0, 0, Header, 1, 11, 120
1, 0, Start_track
1, 0, Time_signature, 2, 2, 24, 8
1, 0, Key_signature, 0, "major"
1, 0, Tempo, 297030
1, 720, Time_signature, 3, 2, 24, 8
1, 1080, Time_signature, 4, 2, 24, 8
1, 1080, End_track
2, 0, Start_track
2, 0, MIDI_port, 0
2, 0, Title_t, "Drums"
2, 0, Program_c, 9, 0
2, 0, Control_c, 9, 7, 114
2, 0, Control_c, 9, 10, 64
2, 0, Control_c, 9, 93, 21
2, 0, Control_c, 9, 91, 89
2, 0, Note_on_c, 9, 40, 127
2, 29, Note_on_c, 9, 40, 0
2, 30, Note_on_c, 9, 40, 125
2, 59, Note_on_c, 9, 40, 0
2, 60, Note_on_c, 9, 40, 106
2, 89, Note_on_c, 9, 40, 0
2, 90, Note_on_c, 9, 40, 114
2, 119, Note_on_c, 9, 40, 0
2, 120, Note_on_c, 9, 40, 125
2, 149, Note_on_c, 9, 40, 0
2, 240, Control_c, 9, 93, 21
2, 240, Control_c, 9, 91, 89
2, 240, Note_on_c, 9, 40, 127
2, 269, Note_on_c, 9, 40, 0
2, 270, Note_on_c, 9, 40, 125
2, 299, Note_on_c, 9, 40, 0
2, 300, Note_on_c, 9, 40, 106
2, 329, Note_on_c, 9, 40, 0
2, 330, Note_on_c, 9, 40, 114
2, 359, Note_on_c, 9, 40, 0
2, 360, Note_on_c, 9, 40, 125
2, 389, Note_on_c, 9, 40, 0
2, 480, Control_c, 9, 93, 21
2, 480, Control_c, 9, 91, 89
2, 480, Note_on_c, 9, 40, 127
2, 509, Note_on_c, 9, 40, 0
2, 510, Note_on_c, 9, 40, 125
2, 539, Note_on_c, 9, 40, 0
2, 540, Note_on_c, 9, 40, 106
2, 569, Note_on_c, 9, 40, 0
2, 570, Note_on_c, 9, 40, 114
2, 599, Note_on_c, 9, 40, 0
2, 600, Note_on_c, 9, 40, 125
2, 629, Note_on_c, 9, 40, 0
2, 720, Control_c, 9, 93, 21
2, 720, Control_c, 9, 91, 89
2, 720, Note_on_c, 9, 40, 127
2, 749, Note_on_c, 9, 40, 0
2, 750, Note_on_c, 9, 40, 125
2, 779, Note_on_c, 9, 40, 0
2, 780, Note_on_c, 9, 40, 106
2, 809, Note_on_c, 9, 40, 0
2, 810, Note_on_c, 9, 40, 114
2, 839, Note_on_c, 9, 40, 0
2, 840, Note_on_c, 9, 40, 125
2, 869, Note_on_c, 9, 40, 0
2, 960, Note_on_c, 9, 40, 125
2, 989, Note_on_c, 9, 40, 0
2, 1080, Note_on_c, 9, 36, 127
2, 1200, Note_on_c, 9, 40, 127
2, 1230, Note_on_c, 9, 36, 0
2, 1320, Note_on_c, 9, 40, 0
2, 1320, Note_on_c, 9, 36, 127
2, 1440, Note_on_c, 9, 36, 0
2, 1440, Note_on_c, 9, 40, 127
2, 1530, Note_on_c, 9, 40, 0
2, 1560, Note_on_c, 9, 36, 127
2, 1680, Note_on_c, 9, 36, 0
2, 1680, Note_on_c, 9, 40, 127
2, 1770, Note_on_c, 9, 40, 0
2, 1800, Note_on_c, 9, 36, 127
2, 1920, Note_on_c, 9, 36, 0
2, 1920, Note_on_c, 9, 40, 127
2, 2010, Note_on_c, 9, 40, 0
2, 2040, Note_on_c, 9, 36, 127
2, 2160, Note_on_c, 9, 40, 127
2, 2190, Note_on_c, 9, 36, 0
2, 2280, Note_on_c, 9, 40, 0
2, 2280, Note_on_c, 9, 36, 127
2, 2400, Note_on_c, 9, 36, 0
2, 2400, Note_on_c, 9, 40, 127
2, 2490, Note_on_c, 9, 40, 0
2, 2520, Note_on_c, 9, 36, 127
2, 2640, Note_on_c, 9, 36, 0
2, 2640, Note_on_c, 9, 40, 127
2, 2730, Note_on_c, 9, 40, 0
2, 2760, Note_on_c, 9, 36, 127
2, 2880, Note_on_c, 9, 36, 0
2, 2880, Note_on_c, 9, 40, 127
2, 2970, Note_on_c, 9, 40, 0
2, 3000, Note_on_c, 9, 36, 127
2, 3120, Note_on_c, 9, 36, 0
2, 3120, Note_on_c, 9, 40, 127
2, 3210, Note_on_c, 9, 40, 0
2, 3240, Note_on_c, 9, 36, 125
2, 3360, Note_on_c, 9, 40, 127
2, 3390, Note_on_c, 9, 36, 0
2, 3450, Note_on_c, 9, 40, 0
2, 3480, Note_on_c, 9, 36, 127
2, 3600, Note_on_c, 9, 36, 0
2, 3600, Note_on_c, 9, 40, 127
2, 3690, Note_on_c, 9, 40, 0
2, 3720, Note_on_c, 9, 36, 127
2, 3840, Note_on_c, 9, 40, 127
2, 3870, Note_on_c, 9, 36, 0
2, 3930, Note_on_c, 9, 40, 0
2, 3960, Note_on_c, 9, 36, 127
2, 4080, Note_on_c, 9, 36, 0
2, 4080, Note_on_c, 9, 40, 127
2, 4170, Note_on_c, 9, 40, 0
2, 4200, Note_on_c, 9, 36, 127
2, 4320, Note_on_c, 9, 36, 0
2, 4320, Note_on_c, 9, 40, 127
2, 4410, Note_on_c, 9, 40, 0
2, 4440, Note_on_c, 9, 36, 127
2, 4560, Note_on_c, 9, 40, 127
2, 4590, Note_on_c, 9, 36, 0
2, 4650, Note_on_c, 9, 40, 0
2, 4680, Note_on_c, 9, 36, 125
2, 4800, Note_on_c, 9, 36, 0
2, 4800, Note_on_c, 9, 40, 127
2, 4890, Note_on_c, 9, 40, 0
2, 4920, Note_on_c, 9, 36, 125
2, 5040, Note_on_c, 9, 36, 0
2, 5040, Note_on_c, 9, 40, 127
2, 5130, Note_on_c, 9, 40, 0
2, 5160, Note_on_c, 9, 36, 125
2, 5280, Note_on_c, 9, 36, 0
2, 5280, Note_on_c, 9, 40, 127
2, 5370, Note_on_c, 9, 40, 0
2, 5400, Note_on_c, 9, 36, 125
2, 5520, Note_on_c, 9, 36, 0
2, 5520, Note_on_c, 9, 40, 127
2, 5610, Note_on_c, 9, 40, 0
2, 5640, Note_on_c, 9, 36, 125
2, 5730, Note_on_c, 9, 36, 0
2, 5760, Note_on_c, 9, 40, 127
2, 5850, Note_on_c, 9, 40, 0
2, 5880, Note_on_c, 9, 36, 125
2, 6000, Note_on_c, 9, 40, 127
2, 6030, Note_on_c, 9, 36, 0
2, 6060, Note_on_c, 9, 40, 0
2, 6120, Note_on_c, 9, 36, 125
2, 6240, Note_on_c, 9, 36, 0
2, 6240, Note_on_c, 9, 40, 127
2, 6330, Note_on_c, 9, 40, 0
2, 6360, Note_on_c, 9, 36, 127
2, 6480, Note_on_c, 9, 36, 0
2, 6480, Note_on_c, 9, 40, 127
2, 6570, Note_on_c, 9, 40, 0
2, 6600, Note_on_c, 9, 36, 125
2, 6720, Note_on_c, 9, 36, 0
2, 6720, Note_on_c, 9, 40, 127
2, 6810, Note_on_c, 9, 40, 0
2, 6840, Note_on_c, 9, 36, 127
2, 6960, Note_on_c, 9, 36, 0
2, 6960, Note_on_c, 9, 40, 127
2, 7050, Note_on_c, 9, 40, 0
2, 7080, Note_on_c, 9, 36, 125
2, 7200, Note_on_c, 9, 40, 125
2, 7230, Note_on_c, 9, 36, 0
2, 7290, Note_on_c, 9, 40, 0
2, 7320, Note_on_c, 9, 36, 127
2, 7440, Note_on_c, 9, 36, 0
2, 7440, Note_on_c, 9, 40, 127
2, 7530, Note_on_c, 9, 40, 0
2, 7560, Note_on_c, 9, 36, 125
2, 7680, Note_on_c, 9, 36, 0
2, 7680, Note_on_c, 9, 40, 125
2, 7770, Note_on_c, 9, 40, 0
2, 7800, Note_on_c, 9, 36, 127
2, 7920, Note_on_c, 9, 36, 0
2, 7920, Note_on_c, 9, 40, 127
2, 8040, Note_on_c, 9, 40, 0
2, 8040, Note_on_c, 9, 36, 125
2, 8160, Note_on_c, 9, 40, 127
2, 8190, Note_on_c, 9, 36, 0
2, 8250, Note_on_c, 9, 40, 0
2, 8280, Note_on_c, 9, 36, 127
2, 8400, Note_on_c, 9, 36, 0
2, 8400, Note_on_c, 9, 40, 127
2, 8490, Note_on_c, 9, 40, 0
2, 8520, Note_on_c, 9, 36, 127
2, 8610, Note_on_c, 9, 36, 0
2, 8640, Note_on_c, 9, 40, 127
2, 8700, Note_on_c, 9, 40, 0
2, 8760, Note_on_c, 9, 36, 125
2, 8820, Note_on_c, 9, 36, 0
2, 8880, Note_on_c, 9, 40, 127
2, 9000, Note_on_c, 9, 40, 0
2, 9060, Note_on_c, 9, 36, 127
2, 9089, Note_on_c, 9, 36, 0
2, 9120, Note_on_c, 9, 40, 127
2, 9180, Note_on_c, 9, 40, 0
2, 9240, Note_on_c, 9, 36, 127
2, 9330, Note_on_c, 9, 36, 0
2, 9360, Note_on_c, 9, 40, 127
2, 9480, Note_on_c, 9, 40, 0
2, 9540, Note_on_c, 9, 36, 127
2, 9600, Note_on_c, 9, 36, 0
2, 9600, Note_on_c, 9, 40, 127
2, 9660, Note_on_c, 9, 40, 0
2, 9720, Note_on_c, 9, 36, 127
2, 9810, Note_on_c, 9, 36, 0
2, 9840, Note_on_c, 9, 40, 127
2, 9960, Note_on_c, 9, 40, 0
2, 10020, Note_on_c, 9, 36, 127
2, 10080, Note_on_c, 9, 36, 0
2, 10080, Note_on_c, 9, 40, 127
2, 10140, Note_on_c, 9, 40, 0
2, 10200, Note_on_c, 9, 36, 127
2, 10290, Note_on_c, 9, 36, 0
2, 10320, Note_on_c, 9, 40, 127
2, 10410, Note_on_c, 9, 40, 0
2, 10500, Note_on_c, 9, 36, 127
2, 10560, Note_on_c, 9, 36, 0
2, 10560, Note_on_c, 9, 40, 127
2, 10620, Note_on_c, 9, 40, 0
2, 10680, Note_on_c, 9, 36, 127
2, 10800, Note_on_c, 9, 40, 127
2, 10830, Note_on_c, 9, 36, 0
2, 10920, Note_on_c, 9, 40, 0
2, 10920, Note_on_c, 9, 36, 127
2, 11040, Note_on_c, 9, 36, 0
2, 11040, Note_on_c, 9, 40, 127
2, 11130, Note_on_c, 9, 40, 0
2, 11160, Note_on_c, 9, 36, 127
2, 11280, Note_on_c, 9, 36, 0
2, 11280, Note_on_c, 9, 40, 127
2, 11370, Note_on_c, 9, 40, 0
2, 11400, Note_on_c, 9, 36, 127
2, 11520, Note_on_c, 9, 36, 0
2, 11520, Note_on_c, 9, 40, 127
2, 11610, Note_on_c, 9, 40, 0
2, 11640, Note_on_c, 9, 36, 127
2, 11760, Note_on_c, 9, 40, 127
2, 11790, Note_on_c, 9, 36, 0
2, 11880, Note_on_c, 9, 40, 0
2, 11880, Note_on_c, 9, 36, 127
2, 12000, Note_on_c, 9, 36, 0
2, 12000, Note_on_c, 9, 40, 127
2, 12090, Note_on_c, 9, 40, 0
2, 12120, Note_on_c, 9, 36, 127
2, 12240, Note_on_c, 9, 36, 0
2, 12240, Note_on_c, 9, 40, 127
2, 12330, Note_on_c, 9, 40, 0
2, 12360, Note_on_c, 9, 36, 127
2, 12480, Note_on_c, 9, 36, 0
2, 12480, Note_on_c, 9, 40, 127
2, 12570, Note_on_c, 9, 40, 0
2, 12600, Note_on_c, 9, 36, 127
2, 12720, Note_on_c, 9, 36, 0
2, 12720, Note_on_c, 9, 40, 127
2, 12810, Note_on_c, 9, 40, 0
2, 12840, Note_on_c, 9, 36, 125
2, 12960, Note_on_c, 9, 40, 127
2, 12990, Note_on_c, 9, 36, 0
2, 13050, Note_on_c, 9, 40, 0
2, 13080, Note_on_c, 9, 36, 127
2, 13200, Note_on_c, 9, 36, 0
2, 13200, Note_on_c, 9, 40, 127
2, 13290, Note_on_c, 9, 40, 0
2, 13320, Note_on_c, 9, 36, 127
2, 13440, Note_on_c, 9, 40, 127
2, 13470, Note_on_c, 9, 36, 0
2, 13530, Note_on_c, 9, 40, 0
2, 13560, Note_on_c, 9, 36, 127
2, 13680, Note_on_c, 9, 36, 0
2, 13680, Note_on_c, 9, 40, 127
2, 13770, Note_on_c, 9, 40, 0
2, 13800, Note_on_c, 9, 36, 127
2, 13920, Note_on_c, 9, 36, 0
2, 13920, Note_on_c, 9, 40, 127
2, 14010, Note_on_c, 9, 40, 0
2, 14040, Note_on_c, 9, 36, 127
2, 14160, Note_on_c, 9, 40, 127
2, 14190, Note_on_c, 9, 36, 0
2, 14250, Note_on_c, 9, 40, 0
2, 14280, Note_on_c, 9, 36, 125
2, 14400, Note_on_c, 9, 36, 0
2, 14400, Note_on_c, 9, 40, 127
2, 14490, Note_on_c, 9, 40, 0
2, 14520, Note_on_c, 9, 36, 125
2, 14640, Note_on_c, 9, 36, 0
2, 14640, Note_on_c, 9, 40, 127
2, 14730, Note_on_c, 9, 40, 0
2, 14760, Note_on_c, 9, 36, 125
2, 14880, Note_on_c, 9, 36, 0
2, 14880, Note_on_c, 9, 40, 127
2, 14970, Note_on_c, 9, 40, 0
2, 15000, Note_on_c, 9, 36, 125
2, 15120, Note_on_c, 9, 36, 0
2, 15120, Note_on_c, 9, 40, 127
2, 15210, Note_on_c, 9, 40, 0
2, 15240, Note_on_c, 9, 36, 125
2, 15330, Note_on_c, 9, 36, 0
2, 15360, Note_on_c, 9, 40, 127
2, 15450, Note_on_c, 9, 40, 0
2, 15480, Note_on_c, 9, 36, 125
2, 15600, Note_on_c, 9, 40, 127
2, 15630, Note_on_c, 9, 36, 0
2, 15660, Note_on_c, 9, 40, 0
2, 15720, Note_on_c, 9, 36, 125
2, 15840, Note_on_c, 9, 36, 0
2, 15840, Note_on_c, 9, 40, 127
2, 15930, Note_on_c, 9, 40, 0
2, 15960, Note_on_c, 9, 36, 127
2, 16080, Note_on_c, 9, 36, 0
2, 16080, Note_on_c, 9, 40, 127
2, 16170, Note_on_c, 9, 40, 0
2, 16200, Note_on_c, 9, 36, 125
2, 16320, Note_on_c, 9, 36, 0
2, 16320, Note_on_c, 9, 40, 127
2, 16410, Note_on_c, 9, 40, 0
2, 16440, Note_on_c, 9, 36, 127
2, 16560, Note_on_c, 9, 36, 0
2, 16560, Note_on_c, 9, 40, 127
2, 16650, Note_on_c, 9, 40, 0
2, 16680, Note_on_c, 9, 36, 125
2, 16800, Note_on_c, 9, 40, 125
2, 16830, Note_on_c, 9, 36, 0
2, 16890, Note_on_c, 9, 40, 0
2, 16920, Note_on_c, 9, 36, 127
2, 17040, Note_on_c, 9, 36, 0
2, 17040, Note_on_c, 9, 40, 127
2, 17130, Note_on_c, 9, 40, 0
2, 17160, Note_on_c, 9, 36, 125
2, 17280, Note_on_c, 9, 36, 0
2, 17280, Note_on_c, 9, 40, 125
2, 17370, Note_on_c, 9, 40, 0
2, 17400, Note_on_c, 9, 36, 127
2, 17520, Note_on_c, 9, 36, 0
2, 17520, Note_on_c, 9, 40, 127
2, 17640, Note_on_c, 9, 40, 0
2, 17640, Note_on_c, 9, 36, 125
2, 17760, Note_on_c, 9, 40, 127
2, 17790, Note_on_c, 9, 36, 0
2, 17850, Note_on_c, 9, 40, 0
2, 17880, Note_on_c, 9, 36, 127
2, 18000, Note_on_c, 9, 36, 0
2, 18000, Note_on_c, 9, 40, 127
2, 18090, Note_on_c, 9, 40, 0
2, 18120, Note_on_c, 9, 36, 127
2, 18210, Note_on_c, 9, 36, 0
2, 18240, Note_on_c, 9, 40, 127
2, 18300, Note_on_c, 9, 40, 0
2, 18360, Note_on_c, 9, 36, 125
2, 18420, Note_on_c, 9, 36, 0
2, 18480, Note_on_c, 9, 40, 127
2, 18600, Note_on_c, 9, 40, 0
2, 18660, Note_on_c, 9, 36, 127
2, 18689, Note_on_c, 9, 36, 0
2, 18720, Note_on_c, 9, 40, 127
2, 18780, Note_on_c, 9, 40, 0
2, 18840, Note_on_c, 9, 36, 127
2, 18930, Note_on_c, 9, 36, 0
2, 18960, Note_on_c, 9, 40, 127
2, 19080, Note_on_c, 9, 40, 0
2, 19140, Note_on_c, 9, 36, 127
2, 19200, Note_on_c, 9, 36, 0
2, 19200, Note_on_c, 9, 40, 127
2, 19260, Note_on_c, 9, 40, 0
2, 19320, Note_on_c, 9, 36, 127
2, 19410, Note_on_c, 9, 36, 0
2, 19440, Note_on_c, 9, 40, 127
2, 19560, Note_on_c, 9, 40, 0
2, 19620, Note_on_c, 9, 36, 127
2, 19680, Note_on_c, 9, 36, 0
2, 19680, Note_on_c, 9, 40, 127
2, 19740, Note_on_c, 9, 40, 0
2, 19800, Note_on_c, 9, 36, 127
2, 19890, Note_on_c, 9, 36, 0
2, 19920, Note_on_c, 9, 40, 127
2, 20010, Note_on_c, 9, 40, 0
2, 20040, Note_on_c, 9, 40, 100
2, 20100, Note_on_c, 9, 40, 0
2, 20100, Note_on_c, 9, 40, 125
2, 20129, Note_on_c, 9, 40, 0
2, 20160, Note_on_c, 9, 40, 125
2, 20189, Note_on_c, 9, 40, 0
2, 20220, Note_on_c, 9, 40, 127
2, 20249, Note_on_c, 9, 40, 0
2, 20280, Note_on_c, 9, 36, 125
2, 20340, Note_on_c, 9, 36, 0
2, 20400, Note_on_c, 9, 40, 127
2, 20520, Note_on_c, 9, 40, 0
2, 20580, Note_on_c, 9, 36, 127
2, 20640, Note_on_c, 9, 36, 0
2, 20640, Note_on_c, 9, 40, 127
2, 20669, Note_on_c, 9, 40, 0
2, 20760, Note_on_c, 9, 36, 127
2, 20820, Note_on_c, 9, 36, 0
2, 20880, Note_on_c, 9, 40, 127
2, 20970, Note_on_c, 9, 40, 0
2, 21060, Note_on_c, 9, 36, 127
2, 21120, Note_on_c, 9, 36, 0
2, 21120, Note_on_c, 9, 40, 127
2, 21180, Note_on_c, 9, 40, 0
2, 21240, Note_on_c, 9, 36, 127
2, 21330, Note_on_c, 9, 36, 0
2, 21360, Note_on_c, 9, 40, 127
2, 21480, Note_on_c, 9, 40, 0
2, 21540, Note_on_c, 9, 36, 127
2, 21600, Note_on_c, 9, 36, 0
2, 21600, Note_on_c, 9, 40, 127
2, 21660, Note_on_c, 9, 40, 0
2, 21720, Note_on_c, 9, 36, 125
2, 21780, Note_on_c, 9, 36, 0
2, 21840, Note_on_c, 9, 40, 127
2, 21869, Note_on_c, 9, 40, 0
2, 21900, Note_on_c, 9, 36, 127
2, 21990, Note_on_c, 9, 36, 0
2, 22080, Note_on_c, 9, 40, 127
2, 22140, Note_on_c, 9, 40, 0
2, 22200, Note_on_c, 9, 36, 127
2, 22260, Note_on_c, 9, 36, 0
2, 22320, Note_on_c, 9, 40, 127
2, 22380, Note_on_c, 9, 40, 0
2, 22500, Note_on_c, 9, 36, 127
2, 22560, Note_on_c, 9, 36, 0
2, 22560, Note_on_c, 9, 40, 127
2, 22620, Note_on_c, 9, 40, 0
2, 22680, Note_on_c, 9, 36, 127
2, 22770, Note_on_c, 9, 36, 0
2, 22800, Note_on_c, 9, 40, 127
2, 22860, Note_on_c, 9, 40, 0
2, 22980, Note_on_c, 9, 36, 127
2, 23040, Note_on_c, 9, 36, 0
2, 23040, Note_on_c, 9, 40, 127
2, 23100, Note_on_c, 9, 40, 0
2, 23160, Note_on_c, 9, 36, 127
2, 23250, Note_on_c, 9, 36, 0
2, 23280, Note_on_c, 9, 40, 127
2, 23370, Note_on_c, 9, 40, 0
2, 23460, Note_on_c, 9, 36, 127
2, 23520, Note_on_c, 9, 36, 0
2, 23520, Note_on_c, 9, 40, 127
2, 23580, Note_on_c, 9, 40, 0
2, 23640, Note_on_c, 9, 36, 125
2, 23700, Note_on_c, 9, 36, 0
2, 23760, Note_on_c, 9, 40, 127
2, 23789, Note_on_c, 9, 40, 0
2, 23820, Note_on_c, 9, 36, 127
2, 23910, Note_on_c, 9, 36, 0
2, 24000, Note_on_c, 9, 40, 127
2, 24060, Note_on_c, 9, 40, 0
2, 24120, Note_on_c, 9, 36, 127
2, 24210, Note_on_c, 9, 36, 0
2, 24240, Note_on_c, 9, 40, 127
2, 24360, Note_on_c, 9, 40, 0
2, 24420, Note_on_c, 9, 36, 127
2, 24480, Note_on_c, 9, 36, 0
2, 24480, Note_on_c, 9, 40, 127
2, 24509, Note_on_c, 9, 40, 0
2, 24600, Note_on_c, 9, 36, 127
2, 24690, Note_on_c, 9, 36, 0
2, 24720, Note_on_c, 9, 40, 127
2, 24810, Note_on_c, 9, 40, 0
2, 24900, Note_on_c, 9, 36, 127
2, 24960, Note_on_c, 9, 36, 0
2, 24960, Note_on_c, 9, 40, 127
2, 24989, Note_on_c, 9, 40, 0
2, 25080, Note_on_c, 9, 36, 127
2, 25170, Note_on_c, 9, 36, 0
2, 25200, Note_on_c, 9, 40, 127
2, 25260, Note_on_c, 9, 40, 0
2, 25380, Note_on_c, 9, 36, 127
2, 25440, Note_on_c, 9, 36, 0
2, 25440, Note_on_c, 9, 40, 127
2, 25500, Note_on_c, 9, 40, 0
2, 25560, Note_on_c, 9, 36, 127
2, 25650, Note_on_c, 9, 36, 0
2, 25680, Note_on_c, 9, 40, 127
2, 25740, Note_on_c, 9, 40, 0
2, 25860, Note_on_c, 9, 36, 127
2, 25920, Note_on_c, 9, 36, 0
2, 25920, Note_on_c, 9, 40, 127
2, 25980, Note_on_c, 9, 40, 0
2, 26040, Note_on_c, 9, 36, 125
2, 26100, Note_on_c, 9, 36, 0
2, 26160, Note_on_c, 9, 40, 127
2, 26160, Note_on_c, 9, 41, 127
2, 26220, Note_on_c, 9, 41, 0
2, 26280, Note_on_c, 9, 40, 0
2, 26280, Note_on_c, 9, 36, 100
2, 26340, Note_on_c, 9, 36, 127
2, 26369, Note_on_c, 9, 36, 0
2, 26400, Note_on_c, 9, 36, 0
2, 26400, Note_on_c, 9, 40, 127
2, 26400, Note_on_c, 9, 41, 127
2, 26460, Note_on_c, 9, 41, 0
2, 26460, Note_on_c, 9, 40, 0
2, 26520, Note_on_c, 9, 36, 127
2, 26610, Note_on_c, 9, 36, 0
2, 26640, Note_on_c, 9, 40, 127
2, 26640, Note_on_c, 9, 41, 114
2, 26669, Note_on_c, 9, 41, 0
2, 26700, Note_on_c, 9, 41, 125
2, 26730, Note_on_c, 9, 40, 0
2, 26760, Note_on_c, 9, 41, 0
2, 26760, Note_on_c, 9, 36, 100
2, 26820, Note_on_c, 9, 36, 127
2, 26880, Note_on_c, 9, 36, 0
2, 26880, Note_on_c, 9, 36, 0
2, 26880, Note_on_c, 9, 40, 127
2, 26880, Note_on_c, 9, 41, 127
2, 26940, Note_on_c, 9, 41, 0
2, 26940, Note_on_c, 9, 40, 0
2, 27000, Note_on_c, 9, 36, 127
2, 27060, Note_on_c, 9, 36, 0
2, 27120, Note_on_c, 9, 41, 125
2, 27120, Note_on_c, 9, 40, 127
2, 27149, Note_on_c, 9, 41, 0
2, 27180, Note_on_c, 9, 40, 0
2, 27240, Note_on_c, 9, 36, 100
2, 27300, Note_on_c, 9, 36, 127
2, 27329, Note_on_c, 9, 36, 0
2, 27360, Note_on_c, 9, 36, 0
2, 27360, Note_on_c, 9, 40, 127
2, 27360, Note_on_c, 9, 41, 127
2, 27389, Note_on_c, 9, 41, 0
2, 27420, Note_on_c, 9, 40, 0
2, 27480, Note_on_c, 9, 36, 127
2, 27540, Note_on_c, 9, 36, 0
2, 27600, Note_on_c, 9, 40, 127
2, 27600, Note_on_c, 9, 41, 125
2, 27629, Note_on_c, 9, 41, 0
2, 27660, Note_on_c, 9, 40, 0
2, 27660, Note_on_c, 9, 41, 125
2, 27720, Note_on_c, 9, 41, 0
2, 27720, Note_on_c, 9, 36, 100
2, 27780, Note_on_c, 9, 36, 127
2, 27809, Note_on_c, 9, 36, 0
2, 27840, Note_on_c, 9, 36, 0
2, 27840, Note_on_c, 9, 41, 127
2, 27840, Note_on_c, 9, 40, 127
2, 27869, Note_on_c, 9, 41, 0
2, 27900, Note_on_c, 9, 40, 0
2, 27960, Note_on_c, 9, 36, 127
2, 28080, Note_on_c, 9, 40, 127
2, 28110, Note_on_c, 9, 36, 0
2, 28200, Note_on_c, 9, 40, 0
2, 28200, Note_on_c, 9, 36, 127
2, 28320, Note_on_c, 9, 36, 0
2, 28320, Note_on_c, 9, 40, 127
2, 28410, Note_on_c, 9, 40, 0
2, 28440, Note_on_c, 9, 36, 127
2, 28560, Note_on_c, 9, 36, 0
2, 28560, Note_on_c, 9, 40, 127
2, 28650, Note_on_c, 9, 40, 0
2, 28680, Note_on_c, 9, 36, 127
2, 28800, Note_on_c, 9, 36, 0
2, 28800, Note_on_c, 9, 40, 127
2, 28890, Note_on_c, 9, 40, 0
2, 28920, Note_on_c, 9, 36, 127
2, 29040, Note_on_c, 9, 40, 127
2, 29070, Note_on_c, 9, 36, 0
2, 29160, Note_on_c, 9, 40, 0
2, 29160, Note_on_c, 9, 36, 127
2, 29280, Note_on_c, 9, 36, 0
2, 29280, Note_on_c, 9, 40, 127
2, 29370, Note_on_c, 9, 40, 0
2, 29400, Note_on_c, 9, 36, 127
2, 29520, Note_on_c, 9, 36, 0
2, 29520, Note_on_c, 9, 40, 127
2, 29610, Note_on_c, 9, 40, 0
2, 29640, Note_on_c, 9, 36, 127
2, 29760, Note_on_c, 9, 36, 0
2, 29760, Note_on_c, 9, 40, 127
2, 29850, Note_on_c, 9, 40, 0
2, 29880, Note_on_c, 9, 36, 127
2, 30000, Note_on_c, 9, 36, 0
2, 30000, Note_on_c, 9, 40, 127
2, 30090, Note_on_c, 9, 40, 0
2, 30120, Note_on_c, 9, 36, 125
2, 30240, Note_on_c, 9, 40, 127
2, 30270, Note_on_c, 9, 36, 0
2, 30330, Note_on_c, 9, 40, 0
2, 30360, Note_on_c, 9, 36, 127
2, 30480, Note_on_c, 9, 36, 0
2, 30480, Note_on_c, 9, 40, 127
2, 30570, Note_on_c, 9, 40, 0
2, 30600, Note_on_c, 9, 36, 127
2, 30720, Note_on_c, 9, 40, 127
2, 30750, Note_on_c, 9, 36, 0
2, 30810, Note_on_c, 9, 40, 0
2, 30840, Note_on_c, 9, 36, 127
2, 30960, Note_on_c, 9, 36, 0
2, 30960, Note_on_c, 9, 40, 127
2, 31050, Note_on_c, 9, 40, 0
2, 31080, Note_on_c, 9, 36, 127
2, 31200, Note_on_c, 9, 36, 0
2, 31200, Note_on_c, 9, 40, 127
2, 31290, Note_on_c, 9, 40, 0
2, 31320, Note_on_c, 9, 36, 127
2, 31440, Note_on_c, 9, 40, 127
2, 31470, Note_on_c, 9, 36, 0
2, 31530, Note_on_c, 9, 40, 0
2, 31560, Note_on_c, 9, 36, 125
2, 31680, Note_on_c, 9, 36, 0
2, 31680, Note_on_c, 9, 40, 127
2, 31770, Note_on_c, 9, 40, 0
2, 31800, Note_on_c, 9, 36, 125
2, 31920, Note_on_c, 9, 36, 0
2, 31920, Note_on_c, 9, 40, 127
2, 32010, Note_on_c, 9, 40, 0
2, 32040, Note_on_c, 9, 36, 125
2, 32160, Note_on_c, 9, 36, 0
2, 32160, Note_on_c, 9, 40, 127
2, 32250, Note_on_c, 9, 40, 0
2, 32280, Note_on_c, 9, 36, 125
2, 32400, Note_on_c, 9, 36, 0
2, 32400, Note_on_c, 9, 40, 127
2, 32490, Note_on_c, 9, 40, 0
2, 32520, Note_on_c, 9, 36, 125
2, 32610, Note_on_c, 9, 36, 0
2, 32640, Note_on_c, 9, 40, 127
2, 32730, Note_on_c, 9, 40, 0
2, 32760, Note_on_c, 9, 36, 125
2, 32880, Note_on_c, 9, 40, 127
2, 32910, Note_on_c, 9, 36, 0
2, 32940, Note_on_c, 9, 40, 0
2, 33000, Note_on_c, 9, 36, 125
2, 33120, Note_on_c, 9, 36, 0
2, 33120, Note_on_c, 9, 40, 127
2, 33210, Note_on_c, 9, 40, 0
2, 33240, Note_on_c, 9, 36, 127
2, 33360, Note_on_c, 9, 36, 0
2, 33360, Note_on_c, 9, 40, 127
2, 33450, Note_on_c, 9, 40, 0
2, 33480, Note_on_c, 9, 36, 125
2, 33600, Note_on_c, 9, 36, 0
2, 33600, Note_on_c, 9, 40, 127
2, 33690, Note_on_c, 9, 40, 0
2, 33720, Note_on_c, 9, 36, 127
2, 33840, Note_on_c, 9, 36, 0
2, 33840, Note_on_c, 9, 40, 127
2, 33930, Note_on_c, 9, 40, 0
2, 33960, Note_on_c, 9, 36, 125
2, 34080, Note_on_c, 9, 40, 125
2, 34110, Note_on_c, 9, 36, 0
2, 34170, Note_on_c, 9, 40, 0
2, 34200, Note_on_c, 9, 36, 127
2, 34320, Note_on_c, 9, 36, 0
2, 34320, Note_on_c, 9, 40, 127
2, 34410, Note_on_c, 9, 40, 0
2, 34440, Note_on_c, 9, 36, 125
2, 34560, Note_on_c, 9, 36, 0
2, 34560, Note_on_c, 9, 40, 125
2, 34650, Note_on_c, 9, 40, 0
2, 34680, Note_on_c, 9, 36, 127
2, 34800, Note_on_c, 9, 36, 0
2, 34800, Note_on_c, 9, 40, 127
2, 34920, Note_on_c, 9, 40, 0
2, 34920, Note_on_c, 9, 36, 125
2, 35040, Note_on_c, 9, 40, 127
2, 35070, Note_on_c, 9, 36, 0
2, 35130, Note_on_c, 9, 40, 0
2, 35160, Note_on_c, 9, 36, 127
2, 35280, Note_on_c, 9, 36, 0
2, 35280, Note_on_c, 9, 40, 127
2, 35370, Note_on_c, 9, 40, 0
2, 35400, Note_on_c, 9, 36, 127
2, 35490, Note_on_c, 9, 36, 0
2, 35520, Note_on_c, 9, 40, 127
2, 35580, Note_on_c, 9, 40, 0
2, 35640, Note_on_c, 9, 36, 125
2, 35700, Note_on_c, 9, 36, 0
2, 35760, Note_on_c, 9, 40, 127
2, 35880, Note_on_c, 9, 40, 0
2, 35940, Note_on_c, 9, 36, 127
2, 35969, Note_on_c, 9, 36, 0
2, 36000, Note_on_c, 9, 40, 127
2, 36060, Note_on_c, 9, 40, 0
2, 36120, Note_on_c, 9, 36, 127
2, 36210, Note_on_c, 9, 36, 0
2, 36240, Note_on_c, 9, 40, 127
2, 36360, Note_on_c, 9, 40, 0
2, 36420, Note_on_c, 9, 36, 127
2, 36480, Note_on_c, 9, 36, 0
2, 36480, Note_on_c, 9, 40, 127
2, 36540, Note_on_c, 9, 40, 0
2, 36600, Note_on_c, 9, 36, 127
2, 36690, Note_on_c, 9, 36, 0
2, 36720, Note_on_c, 9, 40, 127
2, 36840, Note_on_c, 9, 40, 0
2, 36900, Note_on_c, 9, 36, 127
2, 36960, Note_on_c, 9, 36, 0
2, 36960, Note_on_c, 9, 40, 127
2, 37020, Note_on_c, 9, 40, 0
2, 37080, Note_on_c, 9, 36, 127
2, 37170, Note_on_c, 9, 36, 0
2, 37200, Note_on_c, 9, 40, 127
2, 37290, Note_on_c, 9, 40, 0
2, 37320, Note_on_c, 9, 40, 100
2, 37380, Note_on_c, 9, 40, 0
2, 37380, Note_on_c, 9, 40, 125
2, 37409, Note_on_c, 9, 40, 0
2, 37440, Note_on_c, 9, 40, 125
2, 37469, Note_on_c, 9, 40, 0
2, 37500, Note_on_c, 9, 40, 127
2, 37529, Note_on_c, 9, 40, 0
2, 37560, Note_on_c, 9, 36, 125
2, 37620, Note_on_c, 9, 36, 0
2, 37680, Note_on_c, 9, 40, 127
2, 37800, Note_on_c, 9, 40, 0
2, 37860, Note_on_c, 9, 36, 127
2, 37920, Note_on_c, 9, 36, 0
2, 37920, Note_on_c, 9, 40, 127
2, 37949, Note_on_c, 9, 40, 0
2, 38040, Note_on_c, 9, 36, 127
2, 38100, Note_on_c, 9, 36, 0
2, 38160, Note_on_c, 9, 40, 127
2, 38250, Note_on_c, 9, 40, 0
2, 38340, Note_on_c, 9, 36, 127
2, 38400, Note_on_c, 9, 36, 0
2, 38400, Note_on_c, 9, 40, 127
2, 38460, Note_on_c, 9, 40, 0
2, 38520, Note_on_c, 9, 36, 127
2, 38610, Note_on_c, 9, 36, 0
2, 38640, Note_on_c, 9, 40, 127
2, 38760, Note_on_c, 9, 40, 0
2, 38820, Note_on_c, 9, 36, 127
2, 38880, Note_on_c, 9, 36, 0
2, 38880, Note_on_c, 9, 40, 127
2, 38940, Note_on_c, 9, 40, 0
2, 39000, Note_on_c, 9, 36, 125
2, 39060, Note_on_c, 9, 36, 0
2, 39120, Note_on_c, 9, 40, 127
2, 39149, Note_on_c, 9, 40, 0
2, 39180, Note_on_c, 9, 36, 127
2, 39270, Note_on_c, 9, 36, 0
2, 39360, Note_on_c, 9, 40, 127
2, 39420, Note_on_c, 9, 40, 0
2, 39480, Note_on_c, 9, 36, 127
2, 39540, Note_on_c, 9, 36, 0
2, 39600, Note_on_c, 9, 40, 127
2, 39660, Note_on_c, 9, 40, 0
2, 39780, Note_on_c, 9, 36, 127
2, 39840, Note_on_c, 9, 36, 0
2, 39840, Note_on_c, 9, 40, 127
2, 39900, Note_on_c, 9, 40, 0
2, 39960, Note_on_c, 9, 36, 127
2, 40050, Note_on_c, 9, 36, 0
2, 40080, Note_on_c, 9, 40, 127
2, 40140, Note_on_c, 9, 40, 0
2, 40260, Note_on_c, 9, 36, 127
2, 40320, Note_on_c, 9, 36, 0
2, 40320, Note_on_c, 9, 40, 127
2, 40380, Note_on_c, 9, 40, 0
2, 40440, Note_on_c, 9, 36, 127
2, 40530, Note_on_c, 9, 36, 0
2, 40560, Note_on_c, 9, 40, 127
2, 40650, Note_on_c, 9, 40, 0
2, 40740, Note_on_c, 9, 36, 127
2, 40800, Note_on_c, 9, 36, 0
2, 40800, Note_on_c, 9, 40, 127
2, 40860, Note_on_c, 9, 40, 0
2, 40920, Note_on_c, 9, 36, 125
2, 40980, Note_on_c, 9, 36, 0
2, 41040, Note_on_c, 9, 40, 127
2, 41069, Note_on_c, 9, 40, 0
2, 41100, Note_on_c, 9, 36, 127
2, 41190, Note_on_c, 9, 36, 0
2, 41280, Note_on_c, 9, 40, 127
2, 41340, Note_on_c, 9, 40, 0
2, 41400, Note_on_c, 9, 36, 127
2, 41490, Note_on_c, 9, 36, 0
2, 41520, Note_on_c, 9, 40, 127
2, 41640, Note_on_c, 9, 40, 0
2, 41700, Note_on_c, 9, 36, 127
2, 41760, Note_on_c, 9, 36, 0
2, 41760, Note_on_c, 9, 40, 127
2, 41789, Note_on_c, 9, 40, 0
2, 41880, Note_on_c, 9, 36, 127
2, 41970, Note_on_c, 9, 36, 0
2, 42000, Note_on_c, 9, 40, 127
2, 42090, Note_on_c, 9, 40, 0
2, 42180, Note_on_c, 9, 36, 127
2, 42240, Note_on_c, 9, 36, 0
2, 42240, Note_on_c, 9, 40, 127
2, 42269, Note_on_c, 9, 40, 0
2, 42360, Note_on_c, 9, 36, 127
2, 42450, Note_on_c, 9, 36, 0
2, 42480, Note_on_c, 9, 40, 127
2, 42540, Note_on_c, 9, 40, 0
2, 42660, Note_on_c, 9, 36, 127
2, 42720, Note_on_c, 9, 36, 0
2, 42720, Note_on_c, 9, 40, 127
2, 42780, Note_on_c, 9, 40, 0
2, 42840, Note_on_c, 9, 36, 127
2, 42930, Note_on_c, 9, 36, 0
2, 42960, Note_on_c, 9, 40, 127
2, 43020, Note_on_c, 9, 40, 0
2, 43140, Note_on_c, 9, 36, 127
2, 43169, Note_on_c, 9, 36, 0
2, 43200, Note_on_c, 9, 40, 127
2, 43260, Note_on_c, 9, 40, 0
2, 43320, Note_on_c, 9, 36, 125
2, 43380, Note_on_c, 9, 36, 0
2, 43440, Note_on_c, 9, 40, 127
2, 43560, Note_on_c, 9, 40, 0
2, 43560, Note_on_c, 9, 36, 100
2, 43620, Note_on_c, 9, 36, 127
2, 43649, Note_on_c, 9, 36, 0
2, 43680, Note_on_c, 9, 36, 0
2, 43680, Note_on_c, 9, 40, 127
2, 43740, Note_on_c, 9, 40, 0
2, 43800, Note_on_c, 9, 36, 127
2, 43890, Note_on_c, 9, 36, 0
2, 43920, Note_on_c, 9, 40, 127
2, 44010, Note_on_c, 9, 40, 0
2, 44040, Note_on_c, 9, 36, 100
2, 44100, Note_on_c, 9, 36, 127
2, 44160, Note_on_c, 9, 36, 0
2, 44160, Note_on_c, 9, 36, 0
2, 44160, Note_on_c, 9, 40, 127
2, 44220, Note_on_c, 9, 40, 0
2, 44280, Note_on_c, 9, 36, 127
2, 44340, Note_on_c, 9, 36, 0
2, 44400, Note_on_c, 9, 40, 127
2, 44460, Note_on_c, 9, 40, 0
2, 44520, Note_on_c, 9, 36, 100
2, 44580, Note_on_c, 9, 36, 127
2, 44609, Note_on_c, 9, 36, 0
2, 44640, Note_on_c, 9, 36, 0
2, 44640, Note_on_c, 9, 40, 127
2, 44700, Note_on_c, 9, 40, 0
2, 44760, Note_on_c, 9, 36, 127
2, 44820, Note_on_c, 9, 36, 0
2, 44880, Note_on_c, 9, 40, 127
2, 44940, Note_on_c, 9, 40, 0
2, 45000, Note_on_c, 9, 36, 100
2, 45060, Note_on_c, 9, 36, 127
2, 45089, Note_on_c, 9, 36, 0
2, 45120, Note_on_c, 9, 36, 0
2, 45120, Note_on_c, 9, 40, 127
2, 45180, Note_on_c, 9, 40, 0
2, 45240, Note_on_c, 9, 36, 125
2, 45300, Note_on_c, 9, 36, 0
2, 45360, Note_on_c, 9, 40, 127
2, 45360, Note_on_c, 9, 41, 127
2, 45389, Note_on_c, 9, 41, 0
2, 45420, Note_on_c, 9, 41, 125
2, 45449, Note_on_c, 9, 41, 0
2, 45480, Note_on_c, 9, 40, 0
2, 45480, Note_on_c, 9, 36, 100
2, 45540, Note_on_c, 9, 36, 127
2, 45569, Note_on_c, 9, 36, 0
2, 45600, Note_on_c, 9, 36, 0
2, 45600, Note_on_c, 9, 40, 127
2, 45600, Note_on_c, 9, 41, 127
2, 45629, Note_on_c, 9, 41, 0
2, 45660, Note_on_c, 9, 40, 0
2, 45720, Note_on_c, 9, 36, 127
2, 45810, Note_on_c, 9, 36, 0
2, 45840, Note_on_c, 9, 40, 127
2, 45840, Note_on_c, 9, 41, 127
2, 45869, Note_on_c, 9, 41, 0
2, 45900, Note_on_c, 9, 41, 125
2, 45930, Note_on_c, 9, 40, 0
2, 45960, Note_on_c, 9, 41, 0
2, 45960, Note_on_c, 9, 36, 100
2, 46020, Note_on_c, 9, 36, 127
2, 46080, Note_on_c, 9, 36, 0
2, 46080, Note_on_c, 9, 36, 0
2, 46080, Note_on_c, 9, 40, 127
2, 46080, Note_on_c, 9, 41, 127
2, 46140, Note_on_c, 9, 41, 0
2, 46140, Note_on_c, 9, 40, 0
2, 46200, Note_on_c, 9, 36, 127
2, 46260, Note_on_c, 9, 36, 0
2, 46320, Note_on_c, 9, 40, 127
2, 46380, Note_on_c, 9, 40, 0
2, 46440, Note_on_c, 9, 36, 100
2, 46500, Note_on_c, 9, 36, 127
2, 46529, Note_on_c, 9, 36, 0
2, 46560, Note_on_c, 9, 36, 0
2, 46560, Note_on_c, 9, 40, 127
2, 46620, Note_on_c, 9, 40, 0
2, 46680, Note_on_c, 9, 36, 127
2, 46740, Note_on_c, 9, 36, 0
2, 46800, Note_on_c, 9, 40, 127
2, 46860, Note_on_c, 9, 40, 0
2, 46920, Note_on_c, 9, 36, 100
2, 46980, Note_on_c, 9, 36, 127
2, 47009, Note_on_c, 9, 36, 0
2, 47040, Note_on_c, 9, 36, 0
2, 47040, Note_on_c, 9, 40, 127
2, 47100, Note_on_c, 9, 40, 0
2, 47160, Note_on_c, 9, 36, 125
2, 47220, Note_on_c, 9, 36, 0
2, 47280, Note_on_c, 9, 40, 127
2, 47310, Note_on_c, 9, 41, 125
2, 47339, Note_on_c, 9, 41, 0
2, 47340, Note_on_c, 9, 41, 114
2, 47400, Note_on_c, 9, 41, 0
2, 47400, Note_on_c, 9, 40, 0
2, 47400, Note_on_c, 9, 36, 100
2, 47460, Note_on_c, 9, 36, 127
2, 47489, Note_on_c, 9, 36, 0
2, 47520, Note_on_c, 9, 36, 0
2, 47520, Note_on_c, 9, 40, 127
2, 47520, Note_on_c, 9, 41, 127
2, 47580, Note_on_c, 9, 41, 0
2, 47580, Note_on_c, 9, 40, 0
2, 47640, Note_on_c, 9, 36, 127
2, 47730, Note_on_c, 9, 36, 0
2, 47760, Note_on_c, 9, 40, 127
2, 47760, Note_on_c, 9, 41, 127
2, 47789, Note_on_c, 9, 41, 0
2, 47820, Note_on_c, 9, 41, 114
2, 47849, Note_on_c, 9, 41, 0
2, 47850, Note_on_c, 9, 40, 0
2, 47880, Note_on_c, 9, 36, 100
2, 47940, Note_on_c, 9, 36, 127
2, 48000, Note_on_c, 9, 36, 0
2, 48000, Note_on_c, 9, 36, 0
2, 48000, Note_on_c, 9, 41, 127
2, 48000, Note_on_c, 9, 40, 127
2, 48029, Note_on_c, 9, 41, 0
2, 48060, Note_on_c, 9, 40, 0
2, 48120, Note_on_c, 9, 36, 127
2, 48180, Note_on_c, 9, 36, 0
2, 48240, Note_on_c, 9, 40, 127
2, 48300, Note_on_c, 9, 40, 0
2, 48360, Note_on_c, 9, 36, 100
2, 48420, Note_on_c, 9, 36, 127
2, 48449, Note_on_c, 9, 36, 0
2, 48480, Note_on_c, 9, 36, 0
2, 48480, Note_on_c, 9, 40, 127
2, 48540, Note_on_c, 9, 40, 0
2, 48600, Note_on_c, 9, 36, 127
2, 48660, Note_on_c, 9, 36, 0
2, 48720, Note_on_c, 9, 40, 127
2, 48780, Note_on_c, 9, 40, 0
2, 48840, Note_on_c, 9, 36, 100
2, 48900, Note_on_c, 9, 36, 127
2, 48929, Note_on_c, 9, 36, 0
2, 48960, Note_on_c, 9, 36, 0
2, 48960, Note_on_c, 9, 40, 127
2, 49020, Note_on_c, 9, 40, 0
2, 49080, Note_on_c, 9, 36, 125
2, 49140, Note_on_c, 9, 36, 0
2, 49200, Note_on_c, 9, 40, 127
2, 49320, Note_on_c, 9, 40, 0
2, 49320, Note_on_c, 9, 36, 100
2, 49380, Note_on_c, 9, 36, 127
2, 49409, Note_on_c, 9, 36, 0
2, 49440, Note_on_c, 9, 36, 0
2, 49440, Note_on_c, 9, 40, 127
2, 49500, Note_on_c, 9, 40, 0
2, 49560, Note_on_c, 9, 36, 127
2, 49650, Note_on_c, 9, 36, 0
2, 49680, Note_on_c, 9, 40, 127
2, 49800, Note_on_c, 9, 40, 0
2, 49800, Note_on_c, 9, 36, 100
2, 49860, Note_on_c, 9, 36, 127
2, 49920, Note_on_c, 9, 36, 0
2, 49920, Note_on_c, 9, 36, 0
2, 49920, Note_on_c, 9, 40, 127
2, 49980, Note_on_c, 9, 40, 0
2, 50040, Note_on_c, 9, 36, 127
2, 50130, Note_on_c, 9, 36, 0
2, 50160, Note_on_c, 9, 40, 127
2, 50280, Note_on_c, 9, 40, 0
2, 50280, Note_on_c, 9, 36, 100
2, 50340, Note_on_c, 9, 36, 127
2, 50400, Note_on_c, 9, 36, 0
2, 50400, Note_on_c, 9, 36, 0
2, 50400, Note_on_c, 9, 40, 127
2, 50460, Note_on_c, 9, 40, 0
2, 50520, Note_on_c, 9, 36, 127
2, 50610, Note_on_c, 9, 36, 0
2, 50640, Note_on_c, 9, 40, 127
2, 50730, Note_on_c, 9, 40, 0
2, 50760, Note_on_c, 9, 40, 100
2, 50820, Note_on_c, 9, 40, 0
2, 50820, Note_on_c, 9, 40, 125
2, 50849, Note_on_c, 9, 40, 0
2, 50880, Note_on_c, 9, 40, 125
2, 50909, Note_on_c, 9, 40, 0
2, 50940, Note_on_c, 9, 40, 127
2, 50969, Note_on_c, 9, 40, 0
2, 51000, Note_on_c, 9, 36, 125
2, 51060, Note_on_c, 9, 36, 0
2, 51120, Note_on_c, 9, 40, 127
2, 51240, Note_on_c, 9, 40, 0
2, 51300, Note_on_c, 9, 36, 127
2, 51360, Note_on_c, 9, 36, 0
2, 51360, Note_on_c, 9, 40, 127
2, 51389, Note_on_c, 9, 40, 0
2, 51480, Note_on_c, 9, 36, 127
2, 51540, Note_on_c, 9, 36, 0
2, 51600, Note_on_c, 9, 40, 127
2, 51690, Note_on_c, 9, 40, 0
2, 51780, Note_on_c, 9, 36, 127
2, 51840, Note_on_c, 9, 36, 0
2, 51840, Note_on_c, 9, 40, 127
2, 51900, Note_on_c, 9, 40, 0
2, 51960, Note_on_c, 9, 36, 127
2, 52050, Note_on_c, 9, 36, 0
2, 52080, Note_on_c, 9, 40, 127
2, 52200, Note_on_c, 9, 40, 0
2, 52260, Note_on_c, 9, 36, 127
2, 52320, Note_on_c, 9, 36, 0
2, 52320, Note_on_c, 9, 40, 127
2, 52380, Note_on_c, 9, 40, 0
2, 52440, Note_on_c, 9, 36, 125
2, 52500, Note_on_c, 9, 36, 0
2, 52560, Note_on_c, 9, 40, 127
2, 52589, Note_on_c, 9, 40, 0
2, 52620, Note_on_c, 9, 36, 127
2, 52710, Note_on_c, 9, 36, 0
2, 52800, Note_on_c, 9, 40, 127
2, 52860, Note_on_c, 9, 40, 0
2, 52920, Note_on_c, 9, 36, 127
2, 52980, Note_on_c, 9, 36, 0
2, 53040, Note_on_c, 9, 40, 127
2, 53100, Note_on_c, 9, 40, 0
2, 53220, Note_on_c, 9, 36, 127
2, 53280, Note_on_c, 9, 36, 0
2, 53280, Note_on_c, 9, 40, 127
2, 53340, Note_on_c, 9, 40, 0
2, 53400, Note_on_c, 9, 36, 127
2, 53490, Note_on_c, 9, 36, 0
2, 53520, Note_on_c, 9, 40, 127
2, 53580, Note_on_c, 9, 40, 0
2, 53700, Note_on_c, 9, 36, 127
2, 53760, Note_on_c, 9, 36, 0
2, 53760, Note_on_c, 9, 40, 127
2, 53820, Note_on_c, 9, 40, 0
2, 53880, Note_on_c, 9, 36, 127
2, 53970, Note_on_c, 9, 36, 0
2, 54000, Note_on_c, 9, 40, 127
2, 54090, Note_on_c, 9, 40, 0
2, 54180, Note_on_c, 9, 36, 127
2, 54240, Note_on_c, 9, 36, 0
2, 54240, Note_on_c, 9, 40, 127
2, 54300, Note_on_c, 9, 40, 0
2, 54360, Note_on_c, 9, 36, 125
2, 54420, Note_on_c, 9, 36, 0
2, 54480, Note_on_c, 9, 40, 127
2, 54509, Note_on_c, 9, 40, 0
2, 54540, Note_on_c, 9, 36, 127
2, 54630, Note_on_c, 9, 36, 0
2, 54720, Note_on_c, 9, 40, 127
2, 54780, Note_on_c, 9, 40, 0
2, 54840, Note_on_c, 9, 36, 127
2, 54930, Note_on_c, 9, 36, 0
2, 54960, Note_on_c, 9, 40, 127
2, 55080, Note_on_c, 9, 40, 0
2, 55140, Note_on_c, 9, 36, 127
2, 55200, Note_on_c, 9, 36, 0
2, 55200, Note_on_c, 9, 40, 127
2, 55229, Note_on_c, 9, 40, 0
2, 55320, Note_on_c, 9, 36, 127
2, 55410, Note_on_c, 9, 36, 0
2, 55440, Note_on_c, 9, 40, 127
2, 55530, Note_on_c, 9, 40, 0
2, 55620, Note_on_c, 9, 36, 127
2, 55680, Note_on_c, 9, 36, 0
2, 55680, Note_on_c, 9, 40, 127
2, 55709, Note_on_c, 9, 40, 0
2, 55800, Note_on_c, 9, 36, 127
2, 55890, Note_on_c, 9, 36, 0
2, 55920, Note_on_c, 9, 40, 127
2, 55980, Note_on_c, 9, 40, 0
2, 56100, Note_on_c, 9, 36, 127
2, 56160, Note_on_c, 9, 36, 0
2, 56160, Note_on_c, 9, 40, 127
2, 56220, Note_on_c, 9, 40, 0
2, 56280, Note_on_c, 9, 36, 127
2, 56370, Note_on_c, 9, 36, 0
2, 56400, Note_on_c, 9, 40, 127
2, 56460, Note_on_c, 9, 40, 0
2, 56580, Note_on_c, 9, 36, 127
2, 56609, Note_on_c, 9, 36, 0
2, 56640, Note_on_c, 9, 40, 127
2, 56700, Note_on_c, 9, 40, 0
2, 56760, Note_on_c, 9, 36, 125
2, 56820, Note_on_c, 9, 36, 0
2, 56880, Note_on_c, 9, 40, 127
2, 57000, Note_on_c, 9, 40, 0
2, 57060, Note_on_c, 9, 36, 127
2, 57089, Note_on_c, 9, 36, 0
2, 57120, Note_on_c, 9, 40, 127
2, 57180, Note_on_c, 9, 40, 0
2, 57240, Note_on_c, 9, 36, 127
2, 57330, Note_on_c, 9, 36, 0
2, 57360, Note_on_c, 9, 40, 127
2, 57480, Note_on_c, 9, 40, 0
2, 57540, Note_on_c, 9, 36, 127
2, 57600, Note_on_c, 9, 36, 0
2, 57600, Note_on_c, 9, 40, 127
2, 57660, Note_on_c, 9, 40, 0
2, 57720, Note_on_c, 9, 36, 125
2, 57780, Note_on_c, 9, 36, 0
2, 57840, Note_on_c, 9, 40, 127
2, 57900, Note_on_c, 9, 40, 0
2, 57960, Note_on_c, 9, 36, 127
2, 58050, Note_on_c, 9, 36, 0
2, 58080, Note_on_c, 9, 40, 127
2, 58140, Note_on_c, 9, 40, 0
2, 58200, Note_on_c, 9, 36, 127
2, 58290, Note_on_c, 9, 36, 0
2, 58320, Note_on_c, 9, 40, 127
2, 58410, Note_on_c, 9, 40, 0
2, 58440, Note_on_c, 9, 40, 100
2, 58500, Note_on_c, 9, 40, 0
2, 58500, Note_on_c, 9, 40, 125
2, 58529, Note_on_c, 9, 40, 0
2, 58560, Note_on_c, 9, 40, 125
2, 58589, Note_on_c, 9, 40, 0
2, 58620, Note_on_c, 9, 40, 127
2, 58649, Note_on_c, 9, 40, 0
2, 58680, Note_on_c, 9, 36, 127
2, 58800, Note_on_c, 9, 40, 127
2, 58830, Note_on_c, 9, 36, 0
2, 58920, Note_on_c, 9, 40, 0
2, 58920, Note_on_c, 9, 36, 127
2, 59040, Note_on_c, 9, 36, 0
2, 59040, Note_on_c, 9, 40, 127
2, 59130, Note_on_c, 9, 40, 0
2, 59160, Note_on_c, 9, 36, 127
2, 59280, Note_on_c, 9, 36, 0
2, 59280, Note_on_c, 9, 40, 127
2, 59370, Note_on_c, 9, 40, 0
2, 59400, Note_on_c, 9, 36, 127
2, 59520, Note_on_c, 9, 36, 0
2, 59520, Note_on_c, 9, 40, 127
2, 59610, Note_on_c, 9, 40, 0
2, 59640, Note_on_c, 9, 36, 127
2, 59760, Note_on_c, 9, 40, 127
2, 59790, Note_on_c, 9, 36, 0
2, 59880, Note_on_c, 9, 40, 0
2, 59880, Note_on_c, 9, 36, 127
2, 60000, Note_on_c, 9, 36, 0
2, 60000, Note_on_c, 9, 40, 127
2, 60090, Note_on_c, 9, 40, 0
2, 60600, Note_on_c, 9, 36, 127
2, 60720, Note_on_c, 9, 36, 0
2, 60720, Note_on_c, 9, 40, 127
2, 60810, Note_on_c, 9, 40, 0
2, 60840, Note_on_c, 9, 36, 125
2, 60960, Note_on_c, 9, 40, 127
2, 60990, Note_on_c, 9, 36, 0
2, 61050, Note_on_c, 9, 40, 0
2, 61080, Note_on_c, 9, 36, 127
2, 61200, Note_on_c, 9, 36, 0
2, 61200, Note_on_c, 9, 40, 127
2, 61290, Note_on_c, 9, 40, 0
2, 61320, Note_on_c, 9, 36, 127
2, 61440, Note_on_c, 9, 40, 127
2, 61470, Note_on_c, 9, 36, 0
2, 61530, Note_on_c, 9, 40, 0
2, 61560, Note_on_c, 9, 36, 127
2, 61680, Note_on_c, 9, 36, 0
2, 61680, Note_on_c, 9, 40, 127
2, 61770, Note_on_c, 9, 40, 0
2, 61800, Note_on_c, 9, 36, 127
2, 61920, Note_on_c, 9, 36, 0
2, 61920, Note_on_c, 9, 40, 127
2, 62010, Note_on_c, 9, 40, 0
2, 62040, Note_on_c, 9, 36, 127
2, 62160, Note_on_c, 9, 40, 127
2, 62190, Note_on_c, 9, 36, 0
2, 62250, Note_on_c, 9, 40, 0
2, 62280, Note_on_c, 9, 36, 125
2, 62400, Note_on_c, 9, 36, 0
2, 62400, Note_on_c, 9, 40, 127
2, 62490, Note_on_c, 9, 40, 0
2, 62520, Note_on_c, 9, 36, 125
2, 62580, Note_on_c, 9, 36, 0
2, 62640, Note_on_c, 9, 40, 127
2, 62760, Note_on_c, 9, 40, 0
2, 62820, Note_on_c, 9, 36, 127
2, 62849, Note_on_c, 9, 36, 0
2, 62880, Note_on_c, 9, 40, 127
2, 62940, Note_on_c, 9, 40, 0
2, 63000, Note_on_c, 9, 36, 127
2, 63090, Note_on_c, 9, 36, 0
2, 63120, Note_on_c, 9, 40, 127
2, 63240, Note_on_c, 9, 40, 0
2, 63300, Note_on_c, 9, 36, 127
2, 63360, Note_on_c, 9, 36, 0
2, 63360, Note_on_c, 9, 40, 127
2, 63420, Note_on_c, 9, 40, 0
2, 63480, Note_on_c, 9, 36, 127
2, 63570, Note_on_c, 9, 36, 0
2, 63600, Note_on_c, 9, 40, 127
2, 63720, Note_on_c, 9, 40, 0
2, 63780, Note_on_c, 9, 36, 127
2, 63840, Note_on_c, 9, 36, 0
2, 63840, Note_on_c, 9, 40, 127
2, 63900, Note_on_c, 9, 40, 0
2, 63960, Note_on_c, 9, 36, 127
2, 64050, Note_on_c, 9, 36, 0
2, 64080, Note_on_c, 9, 40, 127
2, 64170, Note_on_c, 9, 40, 0
2, 64200, Note_on_c, 9, 40, 100
2, 64260, Note_on_c, 9, 40, 0
2, 64260, Note_on_c, 9, 40, 125
2, 64289, Note_on_c, 9, 40, 0
2, 64320, Note_on_c, 9, 40, 125
2, 64349, Note_on_c, 9, 40, 0
2, 64380, Note_on_c, 9, 40, 127
2, 64409, Note_on_c, 9, 40, 0
2, 64440, Note_on_c, 9, 36, 125
2, 64500, Note_on_c, 9, 36, 0
2, 64560, Note_on_c, 9, 40, 127
2, 64680, Note_on_c, 9, 40, 0
2, 64740, Note_on_c, 9, 36, 127
2, 64800, Note_on_c, 9, 36, 0
2, 64800, Note_on_c, 9, 40, 127
2, 64829, Note_on_c, 9, 40, 0
2, 64920, Note_on_c, 9, 36, 127
2, 64980, Note_on_c, 9, 36, 0
2, 65040, Note_on_c, 9, 40, 127
2, 65130, Note_on_c, 9, 40, 0
2, 65220, Note_on_c, 9, 36, 127
2, 65280, Note_on_c, 9, 36, 0
2, 65280, Note_on_c, 9, 40, 127
2, 65340, Note_on_c, 9, 40, 0
2, 65400, Note_on_c, 9, 36, 127
2, 65490, Note_on_c, 9, 36, 0
2, 65520, Note_on_c, 9, 40, 127
2, 65640, Note_on_c, 9, 40, 0
2, 65700, Note_on_c, 9, 36, 127
2, 65760, Note_on_c, 9, 36, 0
2, 65760, Note_on_c, 9, 40, 127
2, 65820, Note_on_c, 9, 40, 0
2, 65880, Note_on_c, 9, 36, 125
2, 65940, Note_on_c, 9, 36, 0
2, 66000, Note_on_c, 9, 40, 127
2, 66029, Note_on_c, 9, 40, 0
2, 66060, Note_on_c, 9, 36, 127
2, 66150, Note_on_c, 9, 36, 0
2, 66240, Note_on_c, 9, 40, 127
2, 66300, Note_on_c, 9, 40, 0
2, 66360, Note_on_c, 9, 36, 127
2, 66420, Note_on_c, 9, 36, 0
2, 66480, Note_on_c, 9, 40, 127
2, 66540, Note_on_c, 9, 40, 0
2, 66660, Note_on_c, 9, 36, 127
2, 66720, Note_on_c, 9, 36, 0
2, 66720, Note_on_c, 9, 40, 127
2, 66780, Note_on_c, 9, 40, 0
2, 66840, Note_on_c, 9, 36, 127
2, 66930, Note_on_c, 9, 36, 0
2, 66960, Note_on_c, 9, 40, 127
2, 67020, Note_on_c, 9, 40, 0
2, 67140, Note_on_c, 9, 36, 127
2, 67200, Note_on_c, 9, 36, 0
2, 67200, Note_on_c, 9, 40, 127
2, 67260, Note_on_c, 9, 40, 0
2, 67320, Note_on_c, 9, 36, 127
2, 67410, Note_on_c, 9, 36, 0
2, 67440, Note_on_c, 9, 40, 127
2, 67530, Note_on_c, 9, 40, 0
2, 67620, Note_on_c, 9, 36, 127
2, 67680, Note_on_c, 9, 36, 0
2, 67680, Note_on_c, 9, 40, 127
2, 67740, Note_on_c, 9, 40, 0
2, 67800, Note_on_c, 9, 36, 125
2, 67860, Note_on_c, 9, 36, 0
2, 67920, Note_on_c, 9, 40, 127
2, 67949, Note_on_c, 9, 40, 0
2, 67980, Note_on_c, 9, 36, 127
2, 68070, Note_on_c, 9, 36, 0
2, 68160, Note_on_c, 9, 40, 127
2, 68220, Note_on_c, 9, 40, 0
2, 68280, Note_on_c, 9, 36, 127
2, 68370, Note_on_c, 9, 36, 0
2, 68400, Note_on_c, 9, 40, 127
2, 68520, Note_on_c, 9, 40, 0
2, 68580, Note_on_c, 9, 36, 127
2, 68640, Note_on_c, 9, 36, 0
2, 68640, Note_on_c, 9, 40, 127
2, 68669, Note_on_c, 9, 40, 0
2, 68760, Note_on_c, 9, 36, 127
2, 68850, Note_on_c, 9, 36, 0
2, 68880, Note_on_c, 9, 40, 127
2, 68970, Note_on_c, 9, 40, 0
2, 69060, Note_on_c, 9, 36, 127
2, 69120, Note_on_c, 9, 36, 0
2, 69120, Note_on_c, 9, 40, 127
2, 69149, Note_on_c, 9, 40, 0
2, 69240, Note_on_c, 9, 36, 127
2, 69330, Note_on_c, 9, 36, 0
2, 69360, Note_on_c, 9, 40, 127
2, 69420, Note_on_c, 9, 40, 0
2, 69540, Note_on_c, 9, 36, 127
2, 69600, Note_on_c, 9, 36, 0
2, 69600, Note_on_c, 9, 40, 127
2, 69660, Note_on_c, 9, 40, 0
2, 69720, Note_on_c, 9, 36, 127
2, 69810, Note_on_c, 9, 36, 0
2, 69840, Note_on_c, 9, 40, 127
2, 69900, Note_on_c, 9, 40, 0
2, 70020, Note_on_c, 9, 36, 127
2, 70049, Note_on_c, 9, 36, 0
2, 70080, Note_on_c, 9, 40, 127
2, 70140, Note_on_c, 9, 40, 0
2, 70200, Note_on_c, 9, 36, 125
2, 70260, Note_on_c, 9, 36, 0
2, 70320, Note_on_c, 9, 40, 127
2, 70440, Note_on_c, 9, 40, 0
2, 70440, Note_on_c, 9, 36, 100
2, 70500, Note_on_c, 9, 36, 127
2, 70529, Note_on_c, 9, 36, 0
2, 70560, Note_on_c, 9, 36, 0
2, 70560, Note_on_c, 9, 40, 127
2, 70620, Note_on_c, 9, 40, 0
2, 70680, Note_on_c, 9, 36, 127
2, 70770, Note_on_c, 9, 36, 0
2, 70800, Note_on_c, 9, 40, 127
2, 70920, Note_on_c, 9, 40, 0
2, 70920, Note_on_c, 9, 36, 100
2, 70980, Note_on_c, 9, 36, 127
2, 71040, Note_on_c, 9, 36, 0
2, 71040, Note_on_c, 9, 36, 0
2, 71040, Note_on_c, 9, 40, 127
2, 71100, Note_on_c, 9, 40, 0
2, 71160, Note_on_c, 9, 36, 127
2, 71250, Note_on_c, 9, 36, 0
2, 71280, Note_on_c, 9, 40, 127
2, 71400, Note_on_c, 9, 40, 0
2, 71400, Note_on_c, 9, 36, 100
2, 71460, Note_on_c, 9, 36, 127
2, 71520, Note_on_c, 9, 36, 0
2, 71520, Note_on_c, 9, 36, 0
2, 71520, Note_on_c, 9, 40, 127
2, 71580, Note_on_c, 9, 40, 0
2, 71640, Note_on_c, 9, 36, 127
2, 71730, Note_on_c, 9, 36, 0
2, 71760, Note_on_c, 9, 40, 127
2, 71850, Note_on_c, 9, 40, 0
2, 71880, Note_on_c, 9, 40, 100
2, 71940, Note_on_c, 9, 40, 0
2, 71940, Note_on_c, 9, 40, 125
2, 71969, Note_on_c, 9, 40, 0
2, 72000, Note_on_c, 9, 40, 125
2, 72029, Note_on_c, 9, 40, 0
2, 72060, Note_on_c, 9, 40, 127
2, 72089, Note_on_c, 9, 40, 0
2, 72120, Note_on_c, 9, 36, 127
2, 72210, Note_on_c, 9, 36, 0
2, 81720, Note_on_c, 9, 36, 125
2, 81780, Note_on_c, 9, 36, 0
2, 81840, Note_on_c, 9, 40, 127
2, 81960, Note_on_c, 9, 40, 0
2, 82020, Note_on_c, 9, 36, 127
2, 82080, Note_on_c, 9, 36, 0
2, 82080, Note_on_c, 9, 40, 127
2, 82109, Note_on_c, 9, 40, 0
2, 82200, Note_on_c, 9, 36, 127
2, 82260, Note_on_c, 9, 36, 0
2, 82320, Note_on_c, 9, 40, 127
2, 82410, Note_on_c, 9, 40, 0
2, 82500, Note_on_c, 9, 36, 127
2, 82560, Note_on_c, 9, 36, 0
2, 82560, Note_on_c, 9, 40, 127
2, 82620, Note_on_c, 9, 40, 0
2, 82680, Note_on_c, 9, 36, 127
2, 82770, Note_on_c, 9, 36, 0
2, 82800, Note_on_c, 9, 40, 127
2, 82920, Note_on_c, 9, 40, 0
2, 82980, Note_on_c, 9, 36, 127
2, 83040, Note_on_c, 9, 36, 0
2, 83040, Note_on_c, 9, 40, 127
2, 83100, Note_on_c, 9, 40, 0
2, 83160, Note_on_c, 9, 36, 125
2, 83220, Note_on_c, 9, 36, 0
2, 83280, Note_on_c, 9, 40, 127
2, 83309, Note_on_c, 9, 40, 0
2, 83340, Note_on_c, 9, 36, 127
2, 83430, Note_on_c, 9, 36, 0
2, 83520, Note_on_c, 9, 40, 127
2, 83580, Note_on_c, 9, 40, 0
2, 83640, Note_on_c, 9, 36, 127
2, 83700, Note_on_c, 9, 36, 0
2, 83760, Note_on_c, 9, 40, 127
2, 83820, Note_on_c, 9, 40, 0
2, 83940, Note_on_c, 9, 36, 127
2, 84000, Note_on_c, 9, 36, 0
2, 84000, Note_on_c, 9, 40, 127
2, 84060, Note_on_c, 9, 40, 0
2, 84120, Note_on_c, 9, 36, 127
2, 84210, Note_on_c, 9, 36, 0
2, 84240, Note_on_c, 9, 40, 127
2, 84300, Note_on_c, 9, 40, 0
2, 84420, Note_on_c, 9, 36, 127
2, 84480, Note_on_c, 9, 36, 0
2, 84480, Note_on_c, 9, 40, 127
2, 84540, Note_on_c, 9, 40, 0
2, 84600, Note_on_c, 9, 36, 127
2, 84690, Note_on_c, 9, 36, 0
2, 84720, Note_on_c, 9, 40, 127
2, 84810, Note_on_c, 9, 40, 0
2, 84900, Note_on_c, 9, 36, 127
2, 84960, Note_on_c, 9, 36, 0
2, 84960, Note_on_c, 9, 40, 127
2, 85020, Note_on_c, 9, 40, 0
2, 85080, Note_on_c, 9, 36, 125
2, 85140, Note_on_c, 9, 36, 0
2, 85200, Note_on_c, 9, 40, 127
2, 85229, Note_on_c, 9, 40, 0
2, 85260, Note_on_c, 9, 36, 127
2, 85350, Note_on_c, 9, 36, 0
2, 85440, Note_on_c, 9, 40, 127
2, 85500, Note_on_c, 9, 40, 0
2, 85560, Note_on_c, 9, 36, 127
2, 85650, Note_on_c, 9, 36, 0
2, 85680, Note_on_c, 9, 40, 127
2, 85800, Note_on_c, 9, 40, 0
2, 85860, Note_on_c, 9, 36, 127
2, 85920, Note_on_c, 9, 36, 0
2, 85920, Note_on_c, 9, 40, 127
2, 85949, Note_on_c, 9, 40, 0
2, 86040, Note_on_c, 9, 36, 127
2, 86130, Note_on_c, 9, 36, 0
2, 86160, Note_on_c, 9, 40, 127
2, 86250, Note_on_c, 9, 40, 0
2, 86340, Note_on_c, 9, 36, 127
2, 86400, Note_on_c, 9, 36, 0
2, 86400, Note_on_c, 9, 40, 127
2, 86429, Note_on_c, 9, 40, 0
2, 86520, Note_on_c, 9, 36, 127
2, 86610, Note_on_c, 9, 36, 0
2, 86640, Note_on_c, 9, 40, 127
2, 86700, Note_on_c, 9, 40, 0
2, 86820, Note_on_c, 9, 36, 127
2, 86880, Note_on_c, 9, 36, 0
2, 86880, Note_on_c, 9, 40, 127
2, 86940, Note_on_c, 9, 40, 0
2, 87000, Note_on_c, 9, 36, 114
2, 87090, Note_on_c, 9, 36, 0
2, 87120, Note_on_c, 9, 40, 127
2, 87180, Note_on_c, 9, 40, 0
2, 87240, Note_on_c, 9, 36, 127
2, 87300, Note_on_c, 9, 36, 0
2, 87360, Note_on_c, 9, 40, 125
2, 87389, Note_on_c, 9, 40, 0
2, 87420, Note_on_c, 9, 40, 127
2, 87449, Note_on_c, 9, 40, 0
2, 87480, Note_on_c, 9, 36, 125
2, 87540, Note_on_c, 9, 36, 0
2, 87600, Note_on_c, 9, 40, 127
2, 87720, Note_on_c, 9, 40, 0
2, 87720, Note_on_c, 9, 36, 100
2, 87780, Note_on_c, 9, 36, 127
2, 87809, Note_on_c, 9, 36, 0
2, 87840, Note_on_c, 9, 36, 0
2, 87840, Note_on_c, 9, 40, 127
2, 87900, Note_on_c, 9, 40, 0
2, 87960, Note_on_c, 9, 36, 127
2, 88050, Note_on_c, 9, 36, 0
2, 88080, Note_on_c, 9, 40, 127
2, 88200, Note_on_c, 9, 40, 0
2, 88200, Note_on_c, 9, 36, 100
2, 88260, Note_on_c, 9, 36, 127
2, 88320, Note_on_c, 9, 36, 0
2, 88320, Note_on_c, 9, 36, 0
2, 88320, Note_on_c, 9, 40, 127
2, 88380, Note_on_c, 9, 40, 0
2, 88440, Note_on_c, 9, 36, 127
2, 88530, Note_on_c, 9, 36, 0
2, 88560, Note_on_c, 9, 40, 127
2, 88680, Note_on_c, 9, 40, 0
2, 88680, Note_on_c, 9, 36, 100
2, 88740, Note_on_c, 9, 36, 127
2, 88800, Note_on_c, 9, 36, 0
2, 88800, Note_on_c, 9, 36, 0
2, 88800, Note_on_c, 9, 40, 127
2, 88860, Note_on_c, 9, 40, 0
2, 88920, Note_on_c, 9, 36, 127
2, 89010, Note_on_c, 9, 36, 0
2, 89040, Note_on_c, 9, 40, 127
2, 89130, Note_on_c, 9, 40, 0
2, 89160, Note_on_c, 9, 40, 100
2, 89220, Note_on_c, 9, 40, 0
2, 89220, Note_on_c, 9, 40, 125
2, 89249, Note_on_c, 9, 40, 0
2, 89280, Note_on_c, 9, 40, 125
2, 89309, Note_on_c, 9, 40, 0
2, 89340, Note_on_c, 9, 40, 127
2, 89369, Note_on_c, 9, 40, 0
2, 89400, Note_on_c, 9, 36, 125
2, 89460, Note_on_c, 9, 36, 0
2, 89520, Note_on_c, 9, 40, 127
2, 89640, Note_on_c, 9, 40, 0
2, 89700, Note_on_c, 9, 36, 127
2, 89760, Note_on_c, 9, 36, 0
2, 89760, Note_on_c, 9, 40, 127
2, 89789, Note_on_c, 9, 40, 0
2, 89880, Note_on_c, 9, 36, 127
2, 89940, Note_on_c, 9, 36, 0
2, 90000, Note_on_c, 9, 40, 127
2, 90090, Note_on_c, 9, 40, 0
2, 90180, Note_on_c, 9, 36, 127
2, 90240, Note_on_c, 9, 36, 0
2, 90240, Note_on_c, 9, 40, 127
2, 90300, Note_on_c, 9, 40, 0
2, 90360, Note_on_c, 9, 36, 127
2, 90450, Note_on_c, 9, 36, 0
2, 90480, Note_on_c, 9, 40, 127
2, 90600, Note_on_c, 9, 40, 0
2, 90660, Note_on_c, 9, 36, 127
2, 90720, Note_on_c, 9, 36, 0
2, 90720, Note_on_c, 9, 40, 127
2, 90780, Note_on_c, 9, 40, 0
2, 90840, Note_on_c, 9, 36, 125
2, 90900, Note_on_c, 9, 36, 0
2, 90960, Note_on_c, 9, 40, 127
2, 90989, Note_on_c, 9, 40, 0
2, 91020, Note_on_c, 9, 36, 127
2, 91110, Note_on_c, 9, 36, 0
2, 91200, Note_on_c, 9, 40, 127
2, 91260, Note_on_c, 9, 40, 0
2, 91320, Note_on_c, 9, 36, 127
2, 91380, Note_on_c, 9, 36, 0
2, 91440, Note_on_c, 9, 40, 127
2, 91500, Note_on_c, 9, 40, 0
2, 91620, Note_on_c, 9, 36, 127
2, 91680, Note_on_c, 9, 36, 0
2, 91680, Note_on_c, 9, 40, 127
2, 91740, Note_on_c, 9, 40, 0
2, 91800, Note_on_c, 9, 36, 127
2, 91890, Note_on_c, 9, 36, 0
2, 91920, Note_on_c, 9, 40, 127
2, 91980, Note_on_c, 9, 40, 0
2, 92100, Note_on_c, 9, 36, 127
2, 92160, Note_on_c, 9, 36, 0
2, 92160, Note_on_c, 9, 40, 127
2, 92220, Note_on_c, 9, 40, 0
2, 92280, Note_on_c, 9, 36, 127
2, 92370, Note_on_c, 9, 36, 0
2, 92400, Note_on_c, 9, 40, 127
2, 92490, Note_on_c, 9, 40, 0
2, 92580, Note_on_c, 9, 36, 127
2, 92640, Note_on_c, 9, 36, 0
2, 92640, Note_on_c, 9, 40, 127
2, 92700, Note_on_c, 9, 40, 0
2, 92760, Note_on_c, 9, 36, 125
2, 92820, Note_on_c, 9, 36, 0
2, 92880, Note_on_c, 9, 40, 127
2, 92909, Note_on_c, 9, 40, 0
2, 92940, Note_on_c, 9, 36, 127
2, 93030, Note_on_c, 9, 36, 0
2, 93120, Note_on_c, 9, 40, 127
2, 93180, Note_on_c, 9, 40, 0
2, 93240, Note_on_c, 9, 36, 127
2, 93330, Note_on_c, 9, 36, 0
2, 93360, Note_on_c, 9, 40, 127
2, 93480, Note_on_c, 9, 40, 0
2, 93540, Note_on_c, 9, 36, 127
2, 93600, Note_on_c, 9, 36, 0
2, 93600, Note_on_c, 9, 40, 127
2, 93629, Note_on_c, 9, 40, 0
2, 93720, Note_on_c, 9, 36, 127
2, 93810, Note_on_c, 9, 36, 0
2, 93840, Note_on_c, 9, 40, 127
2, 93930, Note_on_c, 9, 40, 0
2, 94020, Note_on_c, 9, 36, 127
2, 94080, Note_on_c, 9, 36, 0
2, 94080, Note_on_c, 9, 40, 127
2, 94109, Note_on_c, 9, 40, 0
2, 94200, Note_on_c, 9, 36, 127
2, 94290, Note_on_c, 9, 36, 0
2, 94320, Note_on_c, 9, 40, 127
2, 94380, Note_on_c, 9, 40, 0
2, 94500, Note_on_c, 9, 36, 127
2, 94560, Note_on_c, 9, 36, 0
2, 94560, Note_on_c, 9, 40, 127
2, 94620, Note_on_c, 9, 40, 0
2, 94680, Note_on_c, 9, 36, 127
2, 94770, Note_on_c, 9, 36, 0
2, 94800, Note_on_c, 9, 40, 127
2, 94825, Control_c, 9, 7, 112
2, 94860, Note_on_c, 9, 40, 0
2, 94885, Control_c, 9, 7, 111
2, 94895, Control_c, 9, 7, 109
2, 94905, Control_c, 9, 7, 108
2, 94925, Control_c, 9, 7, 107
2, 94980, Note_on_c, 9, 36, 127
2, 95009, Note_on_c, 9, 36, 0
2, 95035, Control_c, 9, 7, 106
2, 95040, Note_on_c, 9, 40, 127
2, 95045, Control_c, 9, 7, 105
2, 95069, Control_c, 9, 7, 104
2, 95100, Note_on_c, 9, 40, 0
2, 95117, Control_c, 9, 7, 103
2, 95160, Note_on_c, 9, 36, 125
2, 95175, Control_c, 9, 7, 102
2, 95215, Control_c, 9, 7, 101
2, 95220, Note_on_c, 9, 36, 0
2, 95265, Control_c, 9, 7, 100
2, 95280, Note_on_c, 9, 40, 127
2, 95315, Control_c, 9, 7, 99
2, 95355, Control_c, 9, 7, 98
2, 95400, Note_on_c, 9, 40, 0
2, 95400, Control_c, 9, 7, 97
2, 95400, Note_on_c, 9, 36, 100
2, 95440, Control_c, 9, 7, 96
2, 95460, Note_on_c, 9, 36, 127
2, 95489, Note_on_c, 9, 36, 0
2, 95510, Control_c, 9, 7, 95
2, 95520, Note_on_c, 9, 36, 0
2, 95520, Note_on_c, 9, 40, 127
2, 95540, Control_c, 9, 7, 94
2, 95550, Control_c, 9, 7, 93
2, 95580, Note_on_c, 9, 40, 0
2, 95640, Note_on_c, 9, 36, 127
2, 95715, Control_c, 9, 7, 92
2, 95730, Note_on_c, 9, 36, 0
2, 95755, Control_c, 9, 7, 91
2, 95760, Note_on_c, 9, 40, 127
2, 95765, Control_c, 9, 7, 90
2, 95775, Control_c, 9, 7, 89
2, 95825, Control_c, 9, 7, 88
2, 95860, Control_c, 9, 7, 87
2, 95875, Control_c, 9, 7, 86
2, 95880, Note_on_c, 9, 40, 0
2, 95880, Note_on_c, 9, 36, 100
2, 95939, Control_c, 9, 7, 85
2, 95940, Note_on_c, 9, 36, 127
2, 95969, Control_c, 9, 7, 84
2, 96000, Note_on_c, 9, 36, 0
2, 96000, Note_on_c, 9, 36, 0
2, 96000, Note_on_c, 9, 40, 127
2, 96040, Control_c, 9, 7, 83
2, 96060, Note_on_c, 9, 40, 0
2, 96100, Control_c, 9, 7, 82
2, 96120, Note_on_c, 9, 36, 127
2, 96210, Note_on_c, 9, 36, 0
2, 96225, Control_c, 9, 7, 81
2, 96240, Note_on_c, 9, 40, 127
2, 96245, Control_c, 9, 7, 80
2, 96285, Control_c, 9, 7, 79
2, 96360, Note_on_c, 9, 40, 0
2, 96360, Note_on_c, 9, 36, 100
2, 96370, Control_c, 9, 7, 78
2, 96420, Note_on_c, 9, 36, 127
2, 96440, Control_c, 9, 7, 77
2, 96480, Note_on_c, 9, 36, 0
2, 96480, Note_on_c, 9, 36, 0
2, 96480, Note_on_c, 9, 40, 127
2, 96510, Control_c, 9, 7, 76
2, 96530, Control_c, 9, 7, 75
2, 96540, Note_on_c, 9, 40, 0
2, 96595, Control_c, 9, 7, 74
2, 96600, Note_on_c, 9, 36, 127
2, 96690, Note_on_c, 9, 36, 0
2, 96690, Control_c, 9, 7, 73
2, 96720, Note_on_c, 9, 40, 127
2, 96809, Control_c, 9, 7, 72
2, 96810, Note_on_c, 9, 40, 0
2, 96840, Note_on_c, 9, 40, 100
2, 96865, Control_c, 9, 7, 71
2, 96900, Note_on_c, 9, 40, 0
2, 96900, Note_on_c, 9, 40, 125
2, 96929, Note_on_c, 9, 40, 0
2, 96960, Note_on_c, 9, 40, 125
2, 96970, Control_c, 9, 7, 70
2, 96989, Note_on_c, 9, 40, 0
2, 97004, Control_c, 9, 7, 69
2, 97020, Note_on_c, 9, 40, 127
2, 97030, Control_c, 9, 7, 68
2, 97040, Control_c, 9, 7, 67
2, 97049, Note_on_c, 9, 40, 0
2, 97080, Note_on_c, 9, 36, 125
2, 97140, Note_on_c, 9, 36, 0
2, 97165, Control_c, 9, 7, 66
2, 97200, Note_on_c, 9, 40, 127
2, 97215, Control_c, 9, 7, 65
2, 97320, Note_on_c, 9, 40, 0
2, 97323, Control_c, 9, 7, 64
2, 97380, Note_on_c, 9, 36, 127
2, 97390, Control_c, 9, 7, 63
2, 97440, Note_on_c, 9, 36, 0
2, 97440, Control_c, 9, 7, 62
2, 97440, Note_on_c, 9, 40, 127
2, 97469, Note_on_c, 9, 40, 0
2, 97490, Control_c, 9, 7, 61
2, 97545, Control_c, 9, 7, 60
2, 97560, Note_on_c, 9, 36, 127
2, 97614, Control_c, 9, 7, 59
2, 97620, Note_on_c, 9, 36, 0
2, 97645, Control_c, 9, 7, 58
2, 97675, Control_c, 9, 7, 57
2, 97680, Note_on_c, 9, 40, 127
2, 97705, Control_c, 9, 7, 56
2, 97770, Note_on_c, 9, 40, 0
2, 97785, Control_c, 9, 7, 55
2, 97806, Control_c, 9, 7, 54
2, 97835, Control_c, 9, 7, 53
2, 97860, Note_on_c, 9, 36, 127
2, 97905, Control_c, 9, 7, 52
2, 97920, Note_on_c, 9, 36, 0
2, 97920, Note_on_c, 9, 40, 127
2, 97935, Control_c, 9, 7, 51
2, 97965, Control_c, 9, 7, 50
2, 97976, Control_c, 9, 7, 49
2, 97980, Note_on_c, 9, 40, 0
2, 98026, Control_c, 9, 7, 48
2, 98040, Note_on_c, 9, 36, 127
2, 98054, Control_c, 9, 7, 47
2, 98074, Control_c, 9, 7, 46
2, 98130, Note_on_c, 9, 36, 0
2, 98130, Control_c, 9, 7, 45
2, 98160, Note_on_c, 9, 40, 127
2, 98204, Control_c, 9, 7, 44
2, 98235, Control_c, 9, 7, 43
2, 98280, Note_on_c, 9, 40, 0
2, 98298, Control_c, 9, 7, 42
2, 98340, Note_on_c, 9, 36, 127
2, 98345, Control_c, 9, 7, 41
2, 98350, Control_c, 9, 7, 40
2, 98390, Control_c, 9, 7, 39
2, 98400, Note_on_c, 9, 36, 0
2, 98400, Note_on_c, 9, 40, 127
2, 98403, Control_c, 9, 7, 38
2, 98454, Control_c, 9, 7, 37
2, 98460, Note_on_c, 9, 40, 0
2, 98475, Control_c, 9, 7, 36
2, 98512, Control_c, 9, 7, 35
2, 98520, Note_on_c, 9, 36, 125
2, 98525, Control_c, 9, 7, 34
2, 98574, Control_c, 9, 7, 33
2, 98580, Note_on_c, 9, 36, 0
2, 98585, Control_c, 9, 7, 32
2, 98605, Control_c, 9, 7, 31
2, 98640, Note_on_c, 9, 40, 127
2, 98669, Note_on_c, 9, 40, 0
2, 98695, Control_c, 9, 7, 30
2, 98700, Note_on_c, 9, 36, 127
2, 98705, Control_c, 9, 7, 29
2, 98735, Control_c, 9, 7, 28
2, 98753, Control_c, 9, 7, 27
2, 98790, Note_on_c, 9, 36, 0
2, 98815, Control_c, 9, 7, 26
2, 98855, Control_c, 9, 7, 25
2, 98865, Control_c, 9, 7, 24
2, 98880, Note_on_c, 9, 40, 127
2, 98934, Control_c, 9, 7, 23
2, 98940, Note_on_c, 9, 40, 0
2, 98975, Control_c, 9, 7, 22
2, 98991, Control_c, 9, 7, 21
2, 99000, Note_on_c, 9, 36, 127
2, 99024, Control_c, 9, 7, 20
2, 99060, Note_on_c, 9, 36, 0
2, 99083, Control_c, 9, 7, 19
2, 99120, Control_c, 9, 7, 18
2, 99120, Note_on_c, 9, 40, 127
2, 99180, Note_on_c, 9, 40, 0
2, 99200, Control_c, 9, 7, 17
2, 99220, Control_c, 9, 7, 16
2, 99300, Note_on_c, 9, 36, 127
2, 99340, Control_c, 9, 7, 15
2, 99360, Note_on_c, 9, 36, 0
2, 99360, Note_on_c, 9, 40, 127
2, 99390, Control_c, 9, 7, 14
2, 99409, Control_c, 9, 7, 13
2, 99420, Note_on_c, 9, 40, 0
2, 99506, Control_c, 9, 7, 12
2, 99546, Control_c, 9, 7, 11
2, 99601, Control_c, 9, 7, 10
2, 99616, Control_c, 9, 7, 9
2, 99713, Control_c, 9, 7, 8
2, 99750, Control_c, 9, 7, 7
2, 99780, Control_c, 9, 7, 6
2, 99805, Control_c, 9, 7, 5
2, 99805, End_track
3, 0, Start_track
3, 0, MIDI_port, 0
3, 0, Title_t, "Bass Guitar"
3, 0, Program_c, 1, 33
3, 0, Control_c, 1, 7, 116
3, 0, Control_c, 1, 10, 64
3, 0, Control_c, 1, 93, 0
3, 0, Control_c, 1, 91, 60
3, 1080, Note_on_c, 1, 31, 127
3, 1140, Note_on_c, 1, 31, 0
3, 1200, Note_on_c, 1, 31, 127
3, 1500, Note_on_c, 1, 31, 0
3, 1560, Note_on_c, 1, 38, 127
3, 1620, Note_on_c, 1, 38, 0
3, 1620, Note_on_c, 1, 43, 122
3, 1680, Note_on_c, 1, 43, 0
3, 1740, Note_on_c, 1, 43, 127
3, 1890, Note_on_c, 1, 43, 0
3, 1920, Note_on_c, 1, 38, 127
3, 1980, Note_on_c, 1, 38, 0
3, 2040, Note_on_c, 1, 36, 127
3, 2069, Note_on_c, 1, 36, 0
3, 2160, Note_on_c, 1, 36, 127
3, 2370, Note_on_c, 1, 36, 0
3, 2400, Note_on_c, 1, 35, 125
3, 2490, Note_on_c, 1, 35, 0
3, 2520, Note_on_c, 1, 36, 127
3, 2670, Note_on_c, 1, 36, 0
3, 2700, Note_on_c, 1, 36, 125
3, 2850, Note_on_c, 1, 36, 0
3, 2880, Note_on_c, 1, 38, 127
3, 2940, Note_on_c, 1, 38, 0
3, 3000, Note_on_c, 1, 31, 125
3, 3060, Note_on_c, 1, 31, 0
3, 3120, Note_on_c, 1, 31, 125
3, 3420, Note_on_c, 1, 31, 0
3, 3480, Note_on_c, 1, 38, 127
3, 3540, Note_on_c, 1, 38, 0
3, 3540, Note_on_c, 1, 43, 125
3, 3600, Note_on_c, 1, 43, 0
3, 3660, Note_on_c, 1, 43, 125
3, 3810, Note_on_c, 1, 43, 0
3, 3840, Note_on_c, 1, 38, 127
3, 3900, Note_on_c, 1, 38, 0
3, 3960, Note_on_c, 1, 36, 127
3, 4020, Note_on_c, 1, 36, 0
3, 4080, Note_on_c, 1, 36, 127
3, 4290, Note_on_c, 1, 36, 0
3, 4320, Note_on_c, 1, 35, 114
3, 4380, Note_on_c, 1, 35, 0
3, 4440, Note_on_c, 1, 36, 127
3, 4590, Note_on_c, 1, 36, 0
3, 4620, Note_on_c, 1, 38, 127
3, 4770, Note_on_c, 1, 38, 0
3, 4800, Note_on_c, 1, 38, 127
3, 4890, Note_on_c, 1, 38, 0
3, 4920, Note_on_c, 1, 31, 127
3, 4980, Note_on_c, 1, 31, 0
3, 5040, Note_on_c, 1, 31, 127
3, 5340, Note_on_c, 1, 31, 0
3, 5400, Note_on_c, 1, 38, 127
3, 5460, Note_on_c, 1, 38, 0
3, 5460, Note_on_c, 1, 43, 122
3, 5520, Note_on_c, 1, 43, 0
3, 5580, Note_on_c, 1, 43, 127
3, 5730, Note_on_c, 1, 43, 0
3, 5760, Note_on_c, 1, 38, 127
3, 5820, Note_on_c, 1, 38, 0
3, 5880, Note_on_c, 1, 36, 127
3, 5909, Note_on_c, 1, 36, 0
3, 6000, Note_on_c, 1, 36, 127
3, 6210, Note_on_c, 1, 36, 0
3, 6240, Note_on_c, 1, 35, 125
3, 6330, Note_on_c, 1, 35, 0
3, 6360, Note_on_c, 1, 36, 127
3, 6510, Note_on_c, 1, 36, 0
3, 6540, Note_on_c, 1, 36, 125
3, 6690, Note_on_c, 1, 36, 0
3, 6720, Note_on_c, 1, 38, 127
3, 6780, Note_on_c, 1, 38, 0
3, 6840, Note_on_c, 1, 31, 127
3, 6900, Note_on_c, 1, 31, 0
3, 6960, Note_on_c, 1, 31, 127
3, 7260, Note_on_c, 1, 31, 0
3, 7320, Note_on_c, 1, 38, 127
3, 7380, Note_on_c, 1, 38, 0
3, 7380, Note_on_c, 1, 43, 122
3, 7440, Note_on_c, 1, 43, 0
3, 7500, Note_on_c, 1, 43, 127
3, 7650, Note_on_c, 1, 43, 0
3, 7680, Note_on_c, 1, 38, 127
3, 7740, Note_on_c, 1, 38, 0
3, 7800, Note_on_c, 1, 36, 127
3, 7829, Note_on_c, 1, 36, 0
3, 7920, Note_on_c, 1, 36, 127
3, 8130, Note_on_c, 1, 36, 0
3, 8160, Note_on_c, 1, 35, 125
3, 8250, Note_on_c, 1, 35, 0
3, 8280, Note_on_c, 1, 36, 127
3, 8430, Note_on_c, 1, 36, 0
3, 8460, Note_on_c, 1, 36, 125
3, 8610, Note_on_c, 1, 36, 0
3, 8640, Note_on_c, 1, 38, 127
3, 8700, Note_on_c, 1, 38, 0
3, 8760, Note_on_c, 1, 34, 127
3, 8910, Note_on_c, 1, 34, 0
3, 8940, Note_on_c, 1, 34, 125
3, 9090, Note_on_c, 1, 34, 0
3, 9120, Note_on_c, 1, 34, 114
3, 9210, Note_on_c, 1, 34, 0
3, 9240, Note_on_c, 1, 34, 127
3, 9420, Note_on_c, 1, 34, 0
3, 9420, Note_on_c, 1, 36, 114
3, 9600, Note_on_c, 1, 36, 0
3, 9600, Note_on_c, 1, 38, 120
3, 9720, Note_on_c, 1, 38, 0
3, 9726, Note_on_c, 1, 33, 114
3, 9881, Note_on_c, 1, 33, 0
3, 9916, Note_on_c, 1, 33, 125
3, 10068, Note_on_c, 1, 33, 0
3, 10086, Note_on_c, 1, 35, 125
3, 10194, Note_on_c, 1, 35, 0
3, 10204, Note_on_c, 1, 36, 127
3, 10455, Note_on_c, 1, 36, 0
3, 10458, Note_on_c, 1, 38, 127
3, 10659, Note_on_c, 1, 38, 0
3, 10680, Note_on_c, 1, 31, 127
3, 10740, Note_on_c, 1, 31, 0
3, 10800, Note_on_c, 1, 31, 127
3, 11100, Note_on_c, 1, 31, 0
3, 11160, Note_on_c, 1, 38, 127
3, 11220, Note_on_c, 1, 38, 0
3, 11220, Note_on_c, 1, 43, 122
3, 11280, Note_on_c, 1, 43, 0
3, 11340, Note_on_c, 1, 43, 127
3, 11490, Note_on_c, 1, 43, 0
3, 11520, Note_on_c, 1, 38, 127
3, 11580, Note_on_c, 1, 38, 0
3, 11640, Note_on_c, 1, 36, 127
3, 11669, Note_on_c, 1, 36, 0
3, 11760, Note_on_c, 1, 36, 127
3, 11970, Note_on_c, 1, 36, 0
3, 12000, Note_on_c, 1, 35, 125
3, 12090, Note_on_c, 1, 35, 0
3, 12120, Note_on_c, 1, 36, 127
3, 12270, Note_on_c, 1, 36, 0
3, 12300, Note_on_c, 1, 36, 125
3, 12450, Note_on_c, 1, 36, 0
3, 12480, Note_on_c, 1, 38, 127
3, 12540, Note_on_c, 1, 38, 0
3, 12600, Note_on_c, 1, 31, 125
3, 12660, Note_on_c, 1, 31, 0
3, 12720, Note_on_c, 1, 31, 125
3, 13020, Note_on_c, 1, 31, 0
3, 13080, Note_on_c, 1, 38, 127
3, 13140, Note_on_c, 1, 38, 0
3, 13140, Note_on_c, 1, 43, 125
3, 13200, Note_on_c, 1, 43, 0
3, 13260, Note_on_c, 1, 43, 125
3, 13410, Note_on_c, 1, 43, 0
3, 13440, Note_on_c, 1, 38, 127
3, 13500, Note_on_c, 1, 38, 0
3, 13560, Note_on_c, 1, 36, 127
3, 13620, Note_on_c, 1, 36, 0
3, 13680, Note_on_c, 1, 36, 127
3, 13890, Note_on_c, 1, 36, 0
3, 13920, Note_on_c, 1, 35, 114
3, 13980, Note_on_c, 1, 35, 0
3, 14040, Note_on_c, 1, 36, 127
3, 14190, Note_on_c, 1, 36, 0
3, 14220, Note_on_c, 1, 38, 127
3, 14370, Note_on_c, 1, 38, 0
3, 14400, Note_on_c, 1, 38, 127
3, 14490, Note_on_c, 1, 38, 0
3, 14520, Note_on_c, 1, 31, 127
3, 14580, Note_on_c, 1, 31, 0
3, 14640, Note_on_c, 1, 31, 127
3, 14940, Note_on_c, 1, 31, 0
3, 15000, Note_on_c, 1, 38, 127
3, 15060, Note_on_c, 1, 38, 0
3, 15060, Note_on_c, 1, 43, 122
3, 15120, Note_on_c, 1, 43, 0
3, 15180, Note_on_c, 1, 43, 127
3, 15330, Note_on_c, 1, 43, 0
3, 15360, Note_on_c, 1, 38, 127
3, 15420, Note_on_c, 1, 38, 0
3, 15480, Note_on_c, 1, 36, 127
3, 15509, Note_on_c, 1, 36, 0
3, 15600, Note_on_c, 1, 36, 127
3, 15810, Note_on_c, 1, 36, 0
3, 15840, Note_on_c, 1, 35, 125
3, 15930, Note_on_c, 1, 35, 0
3, 15960, Note_on_c, 1, 36, 127
3, 16110, Note_on_c, 1, 36, 0
3, 16140, Note_on_c, 1, 36, 125
3, 16290, Note_on_c, 1, 36, 0
3, 16320, Note_on_c, 1, 38, 127
3, 16380, Note_on_c, 1, 38, 0
3, 16440, Note_on_c, 1, 31, 127
3, 16500, Note_on_c, 1, 31, 0
3, 16560, Note_on_c, 1, 31, 127
3, 16860, Note_on_c, 1, 31, 0
3, 16920, Note_on_c, 1, 38, 127
3, 16980, Note_on_c, 1, 38, 0
3, 16980, Note_on_c, 1, 43, 122
3, 17040, Note_on_c, 1, 43, 0
3, 17100, Note_on_c, 1, 43, 127
3, 17250, Note_on_c, 1, 43, 0
3, 17280, Note_on_c, 1, 38, 127
3, 17340, Note_on_c, 1, 38, 0
3, 17400, Note_on_c, 1, 36, 127
3, 17429, Note_on_c, 1, 36, 0
3, 17520, Note_on_c, 1, 36, 127
3, 17730, Note_on_c, 1, 36, 0
3, 17760, Note_on_c, 1, 35, 125
3, 17850, Note_on_c, 1, 35, 0
3, 17880, Note_on_c, 1, 36, 127
3, 18030, Note_on_c, 1, 36, 0
3, 18060, Note_on_c, 1, 36, 125
3, 18210, Note_on_c, 1, 36, 0
3, 18240, Note_on_c, 1, 38, 127
3, 18300, Note_on_c, 1, 38, 0
3, 18360, Note_on_c, 1, 34, 127
3, 18510, Note_on_c, 1, 34, 0
3, 18540, Note_on_c, 1, 34, 125
3, 18690, Note_on_c, 1, 34, 0
3, 18720, Note_on_c, 1, 34, 114
3, 18810, Note_on_c, 1, 34, 0
3, 18840, Note_on_c, 1, 34, 127
3, 19020, Note_on_c, 1, 34, 0
3, 19020, Note_on_c, 1, 36, 114
3, 19200, Note_on_c, 1, 36, 0
3, 19200, Note_on_c, 1, 38, 120
3, 19320, Note_on_c, 1, 38, 0
3, 19326, Note_on_c, 1, 33, 114
3, 19481, Note_on_c, 1, 33, 0
3, 19516, Note_on_c, 1, 33, 125
3, 19668, Note_on_c, 1, 33, 0
3, 19686, Note_on_c, 1, 35, 125
3, 19794, Note_on_c, 1, 35, 0
3, 19804, Note_on_c, 1, 36, 127
3, 20055, Note_on_c, 1, 36, 0
3, 20058, Note_on_c, 1, 38, 127
3, 20259, Note_on_c, 1, 38, 0
3, 20280, Note_on_c, 1, 31, 127
3, 20309, Note_on_c, 1, 31, 0
3, 20400, Note_on_c, 1, 31, 125
3, 20550, Note_on_c, 1, 31, 0
3, 20580, Note_on_c, 1, 35, 127
3, 20609, Note_on_c, 1, 35, 0
3, 20640, Note_on_c, 1, 36, 114
3, 20669, Note_on_c, 1, 36, 0
3, 20700, Note_on_c, 1, 38, 127
3, 21060, Note_on_c, 1, 38, 0
3, 21060, Note_on_c, 1, 42, 127
3, 21120, Note_on_c, 1, 42, 0
3, 21120, Note_on_c, 1, 43, 125
3, 21149, Note_on_c, 1, 43, 0
3, 21180, Note_on_c, 1, 45, 127
3, 21330, Note_on_c, 1, 45, 0
3, 21360, Note_on_c, 1, 45, 127
3, 21510, Note_on_c, 1, 45, 0
3, 21540, Note_on_c, 1, 45, 125
3, 21660, Note_on_c, 1, 45, 0
3, 21720, Note_on_c, 1, 45, 127
3, 21840, Note_on_c, 1, 45, 0
3, 21900, Note_on_c, 1, 47, 125
3, 22020, Note_on_c, 1, 47, 0
3, 22080, Note_on_c, 1, 47, 125
3, 22140, Note_on_c, 1, 47, 0
3, 22200, Note_on_c, 1, 43, 127
3, 22260, Note_on_c, 1, 43, 0
3, 22320, Note_on_c, 1, 43, 127
3, 22500, Note_on_c, 1, 43, 0
3, 22500, Note_on_c, 1, 35, 125
3, 22529, Note_on_c, 1, 35, 0
3, 22560, Note_on_c, 1, 36, 127
3, 22589, Note_on_c, 1, 36, 0
3, 22620, Note_on_c, 1, 38, 127
3, 22980, Note_on_c, 1, 38, 0
3, 22980, Note_on_c, 1, 42, 127
3, 23009, Note_on_c, 1, 42, 0
3, 23040, Note_on_c, 1, 43, 114
3, 23069, Note_on_c, 1, 43, 0
3, 23100, Note_on_c, 1, 45, 127
3, 23190, Note_on_c, 1, 45, 0
3, 23280, Note_on_c, 1, 45, 127
3, 23400, Note_on_c, 1, 45, 0
3, 23460, Note_on_c, 1, 45, 125
3, 23580, Note_on_c, 1, 45, 0
3, 23640, Note_on_c, 1, 45, 127
3, 23790, Note_on_c, 1, 45, 0
3, 23820, Note_on_c, 1, 40, 114
3, 23970, Note_on_c, 1, 40, 0
3, 24000, Note_on_c, 1, 42, 127
3, 24060, Note_on_c, 1, 42, 0
3, 24120, Note_on_c, 1, 43, 127
3, 24149, Note_on_c, 1, 43, 0
3, 24240, Note_on_c, 1, 43, 127
3, 24420, Note_on_c, 1, 43, 0
3, 24420, Note_on_c, 1, 35, 125
3, 24480, Note_on_c, 1, 35, 0
3, 24480, Note_on_c, 1, 36, 127
3, 24509, Note_on_c, 1, 36, 0
3, 24540, Note_on_c, 1, 38, 127
3, 24900, Note_on_c, 1, 38, 0
3, 24900, Note_on_c, 1, 42, 127
3, 24929, Note_on_c, 1, 42, 0
3, 24960, Note_on_c, 1, 43, 114
3, 24989, Note_on_c, 1, 43, 0
3, 25020, Note_on_c, 1, 45, 127
3, 25110, Note_on_c, 1, 45, 0
3, 25200, Note_on_c, 1, 45, 127
3, 25350, Note_on_c, 1, 45, 0
3, 25380, Note_on_c, 1, 45, 127
3, 25530, Note_on_c, 1, 45, 0
3, 25560, Note_on_c, 1, 45, 125
3, 25710, Note_on_c, 1, 45, 0
3, 25740, Note_on_c, 1, 45, 127
3, 25890, Note_on_c, 1, 45, 0
3, 25920, Note_on_c, 1, 45, 125
3, 25980, Note_on_c, 1, 45, 0
3, 26040, Note_on_c, 1, 36, 127
3, 26100, Note_on_c, 1, 36, 0
3, 26160, Note_on_c, 1, 36, 127
3, 26310, Note_on_c, 1, 36, 0
3, 26340, Note_on_c, 1, 36, 127
3, 26460, Note_on_c, 1, 36, 0
3, 26520, Note_on_c, 1, 36, 127
3, 26640, Note_on_c, 1, 36, 0
3, 26700, Note_on_c, 1, 36, 114
3, 26820, Note_on_c, 1, 36, 0
3, 26880, Note_on_c, 1, 36, 127
3, 26909, Note_on_c, 1, 36, 0
3, 27000, Note_on_c, 1, 48, 127
3, 27150, Note_on_c, 1, 48, 0
3, 27180, Note_on_c, 1, 46, 125
3, 27330, Note_on_c, 1, 46, 0
3, 27360, Note_on_c, 1, 45, 125
3, 27540, Note_on_c, 1, 45, 0
3, 27540, Note_on_c, 1, 43, 125
3, 27720, Note_on_c, 1, 43, 0
3, 27720, Note_on_c, 1, 41, 125
3, 27780, Note_on_c, 1, 41, 0
3, 27780, Note_on_c, 1, 40, 106
3, 27840, Note_on_c, 1, 40, 0
3, 27840, Note_on_c, 1, 38, 106
3, 27930, Note_on_c, 1, 38, 0
3, 27960, Note_on_c, 1, 31, 127
3, 28020, Note_on_c, 1, 31, 0
3, 28080, Note_on_c, 1, 31, 127
3, 28380, Note_on_c, 1, 31, 0
3, 28440, Note_on_c, 1, 38, 127
3, 28500, Note_on_c, 1, 38, 0
3, 28500, Note_on_c, 1, 43, 122
3, 28560, Note_on_c, 1, 43, 0
3, 28620, Note_on_c, 1, 43, 127
3, 28770, Note_on_c, 1, 43, 0
3, 28800, Note_on_c, 1, 38, 127
3, 28860, Note_on_c, 1, 38, 0
3, 28920, Note_on_c, 1, 36, 127
3, 28949, Note_on_c, 1, 36, 0
3, 29040, Note_on_c, 1, 36, 127
3, 29250, Note_on_c, 1, 36, 0
3, 29280, Note_on_c, 1, 35, 125
3, 29370, Note_on_c, 1, 35, 0
3, 29400, Note_on_c, 1, 36, 127
3, 29550, Note_on_c, 1, 36, 0
3, 29580, Note_on_c, 1, 36, 125
3, 29730, Note_on_c, 1, 36, 0
3, 29760, Note_on_c, 1, 38, 127
3, 29820, Note_on_c, 1, 38, 0
3, 29880, Note_on_c, 1, 31, 125
3, 29940, Note_on_c, 1, 31, 0
3, 30000, Note_on_c, 1, 31, 125
3, 30300, Note_on_c, 1, 31, 0
3, 30360, Note_on_c, 1, 38, 127
3, 30420, Note_on_c, 1, 38, 0
3, 30420, Note_on_c, 1, 43, 125
3, 30480, Note_on_c, 1, 43, 0
3, 30540, Note_on_c, 1, 43, 125
3, 30690, Note_on_c, 1, 43, 0
3, 30720, Note_on_c, 1, 38, 127
3, 30780, Note_on_c, 1, 38, 0
3, 30840, Note_on_c, 1, 36, 127
3, 30900, Note_on_c, 1, 36, 0
3, 30960, Note_on_c, 1, 36, 127
3, 31170, Note_on_c, 1, 36, 0
3, 31200, Note_on_c, 1, 35, 114
3, 31260, Note_on_c, 1, 35, 0
3, 31320, Note_on_c, 1, 36, 127
3, 31470, Note_on_c, 1, 36, 0
3, 31500, Note_on_c, 1, 38, 127
3, 31650, Note_on_c, 1, 38, 0
3, 31680, Note_on_c, 1, 38, 127
3, 31770, Note_on_c, 1, 38, 0
3, 31800, Note_on_c, 1, 31, 127
3, 31860, Note_on_c, 1, 31, 0
3, 31920, Note_on_c, 1, 31, 127
3, 32220, Note_on_c, 1, 31, 0
3, 32280, Note_on_c, 1, 38, 127
3, 32340, Note_on_c, 1, 38, 0
3, 32340, Note_on_c, 1, 43, 122
3, 32400, Note_on_c, 1, 43, 0
3, 32460, Note_on_c, 1, 43, 127
3, 32610, Note_on_c, 1, 43, 0
3, 32640, Note_on_c, 1, 38, 127
3, 32700, Note_on_c, 1, 38, 0
3, 32760, Note_on_c, 1, 36, 127
3, 32789, Note_on_c, 1, 36, 0
3, 32880, Note_on_c, 1, 36, 127
3, 33090, Note_on_c, 1, 36, 0
3, 33120, Note_on_c, 1, 35, 125
3, 33210, Note_on_c, 1, 35, 0
3, 33240, Note_on_c, 1, 36, 127
3, 33390, Note_on_c, 1, 36, 0
3, 33420, Note_on_c, 1, 36, 125
3, 33570, Note_on_c, 1, 36, 0
3, 33600, Note_on_c, 1, 38, 127
3, 33660, Note_on_c, 1, 38, 0
3, 33720, Note_on_c, 1, 31, 127
3, 33780, Note_on_c, 1, 31, 0
3, 33840, Note_on_c, 1, 31, 127
3, 34140, Note_on_c, 1, 31, 0
3, 34200, Note_on_c, 1, 38, 127
3, 34260, Note_on_c, 1, 38, 0
3, 34260, Note_on_c, 1, 43, 122
3, 34320, Note_on_c, 1, 43, 0
3, 34380, Note_on_c, 1, 43, 127
3, 34530, Note_on_c, 1, 43, 0
3, 34560, Note_on_c, 1, 38, 127
3, 34620, Note_on_c, 1, 38, 0
3, 34680, Note_on_c, 1, 36, 127
3, 34709, Note_on_c, 1, 36, 0
3, 34800, Note_on_c, 1, 36, 127
3, 35010, Note_on_c, 1, 36, 0
3, 35040, Note_on_c, 1, 35, 125
3, 35130, Note_on_c, 1, 35, 0
3, 35160, Note_on_c, 1, 36, 127
3, 35310, Note_on_c, 1, 36, 0
3, 35340, Note_on_c, 1, 36, 125
3, 35490, Note_on_c, 1, 36, 0
3, 35520, Note_on_c, 1, 38, 127
3, 35580, Note_on_c, 1, 38, 0
3, 35640, Note_on_c, 1, 34, 127
3, 35790, Note_on_c, 1, 34, 0
3, 35820, Note_on_c, 1, 34, 125
3, 35970, Note_on_c, 1, 34, 0
3, 36000, Note_on_c, 1, 34, 114
3, 36090, Note_on_c, 1, 34, 0
3, 36120, Note_on_c, 1, 34, 127
3, 36300, Note_on_c, 1, 34, 0
3, 36300, Note_on_c, 1, 36, 114
3, 36480, Note_on_c, 1, 36, 0
3, 36480, Note_on_c, 1, 38, 120
3, 36600, Note_on_c, 1, 38, 0
3, 36606, Note_on_c, 1, 33, 114
3, 36761, Note_on_c, 1, 33, 0
3, 36796, Note_on_c, 1, 33, 125
3, 36948, Note_on_c, 1, 33, 0
3, 36966, Note_on_c, 1, 35, 125
3, 37074, Note_on_c, 1, 35, 0
3, 37084, Note_on_c, 1, 36, 127
3, 37335, Note_on_c, 1, 36, 0
3, 37338, Note_on_c, 1, 38, 127
3, 37539, Note_on_c, 1, 38, 0
3, 37560, Note_on_c, 1, 31, 127
3, 37589, Note_on_c, 1, 31, 0
3, 37680, Note_on_c, 1, 31, 125
3, 37830, Note_on_c, 1, 31, 0
3, 37860, Note_on_c, 1, 35, 127
3, 37889, Note_on_c, 1, 35, 0
3, 37920, Note_on_c, 1, 36, 114
3, 37949, Note_on_c, 1, 36, 0
3, 37980, Note_on_c, 1, 38, 127
3, 38340, Note_on_c, 1, 38, 0
3, 38340, Note_on_c, 1, 42, 127
3, 38400, Note_on_c, 1, 42, 0
3, 38400, Note_on_c, 1, 43, 125
3, 38429, Note_on_c, 1, 43, 0
3, 38460, Note_on_c, 1, 45, 127
3, 38610, Note_on_c, 1, 45, 0
3, 38640, Note_on_c, 1, 45, 127
3, 38790, Note_on_c, 1, 45, 0
3, 38820, Note_on_c, 1, 45, 125
3, 38940, Note_on_c, 1, 45, 0
3, 39000, Note_on_c, 1, 45, 127
3, 39120, Note_on_c, 1, 45, 0
3, 39180, Note_on_c, 1, 47, 125
3, 39300, Note_on_c, 1, 47, 0
3, 39360, Note_on_c, 1, 47, 125
3, 39420, Note_on_c, 1, 47, 0
3, 39480, Note_on_c, 1, 43, 127
3, 39540, Note_on_c, 1, 43, 0
3, 39600, Note_on_c, 1, 43, 127
3, 39780, Note_on_c, 1, 43, 0
3, 39780, Note_on_c, 1, 35, 125
3, 39809, Note_on_c, 1, 35, 0
3, 39840, Note_on_c, 1, 36, 127
3, 39869, Note_on_c, 1, 36, 0
3, 39900, Note_on_c, 1, 38, 127
3, 40260, Note_on_c, 1, 38, 0
3, 40260, Note_on_c, 1, 42, 127
3, 40289, Note_on_c, 1, 42, 0
3, 40320, Note_on_c, 1, 43, 114
3, 40349, Note_on_c, 1, 43, 0
3, 40380, Note_on_c, 1, 45, 127
3, 40470, Note_on_c, 1, 45, 0
3, 40560, Note_on_c, 1, 45, 127
3, 40680, Note_on_c, 1, 45, 0
3, 40740, Note_on_c, 1, 45, 125
3, 40860, Note_on_c, 1, 45, 0
3, 40920, Note_on_c, 1, 45, 127
3, 41070, Note_on_c, 1, 45, 0
3, 41100, Note_on_c, 1, 40, 114
3, 41250, Note_on_c, 1, 40, 0
3, 41280, Note_on_c, 1, 42, 127
3, 41340, Note_on_c, 1, 42, 0
3, 41400, Note_on_c, 1, 43, 127
3, 41429, Note_on_c, 1, 43, 0
3, 41520, Note_on_c, 1, 43, 127
3, 41700, Note_on_c, 1, 43, 0
3, 41700, Note_on_c, 1, 35, 125
3, 41760, Note_on_c, 1, 35, 0
3, 41760, Note_on_c, 1, 36, 127
3, 41789, Note_on_c, 1, 36, 0
3, 41820, Note_on_c, 1, 38, 127
3, 42180, Note_on_c, 1, 38, 0
3, 42180, Note_on_c, 1, 42, 127
3, 42209, Note_on_c, 1, 42, 0
3, 42240, Note_on_c, 1, 43, 114
3, 42269, Note_on_c, 1, 43, 0
3, 42300, Note_on_c, 1, 45, 127
3, 42390, Note_on_c, 1, 45, 0
3, 42480, Note_on_c, 1, 45, 127
3, 42630, Note_on_c, 1, 45, 0
3, 42660, Note_on_c, 1, 45, 127
3, 42810, Note_on_c, 1, 45, 0
3, 42840, Note_on_c, 1, 45, 125
3, 42990, Note_on_c, 1, 45, 0
3, 43020, Note_on_c, 1, 45, 127
3, 43170, Note_on_c, 1, 45, 0
3, 43200, Note_on_c, 1, 45, 125
3, 43260, Note_on_c, 1, 45, 0
3, 43320, Note_on_c, 1, 36, 125
3, 43380, Note_on_c, 1, 36, 0
3, 43440, Note_on_c, 1, 36, 125
3, 43560, Note_on_c, 1, 36, 0
3, 43620, Note_on_c, 1, 36, 125
3, 43740, Note_on_c, 1, 36, 0
3, 43800, Note_on_c, 1, 36, 125
3, 43920, Note_on_c, 1, 36, 0
3, 43980, Note_on_c, 1, 35, 125
3, 44100, Note_on_c, 1, 35, 0
3, 44160, Note_on_c, 1, 33, 106
3, 44220, Note_on_c, 1, 33, 0
3, 44280, Note_on_c, 1, 31, 125
3, 44340, Note_on_c, 1, 31, 0
3, 44400, Note_on_c, 1, 31, 125
3, 44520, Note_on_c, 1, 31, 0
3, 44580, Note_on_c, 1, 31, 114
3, 44700, Note_on_c, 1, 31, 0
3, 44760, Note_on_c, 1, 31, 114
3, 44880, Note_on_c, 1, 31, 0
3, 44940, Note_on_c, 1, 33, 125
3, 45090, Note_on_c, 1, 33, 0
3, 45120, Note_on_c, 1, 35, 125
3, 45210, Note_on_c, 1, 35, 0
3, 45240, Note_on_c, 1, 36, 125
3, 45300, Note_on_c, 1, 36, 0
3, 45360, Note_on_c, 1, 36, 125
3, 45480, Note_on_c, 1, 36, 0
3, 45540, Note_on_c, 1, 36, 125
3, 45660, Note_on_c, 1, 36, 0
3, 45720, Note_on_c, 1, 36, 125
3, 45840, Note_on_c, 1, 36, 0
3, 45900, Note_on_c, 1, 35, 125
3, 46020, Note_on_c, 1, 35, 0
3, 46080, Note_on_c, 1, 33, 106
3, 46140, Note_on_c, 1, 33, 0
3, 46200, Note_on_c, 1, 31, 125
3, 46260, Note_on_c, 1, 31, 0
3, 46320, Note_on_c, 1, 31, 125
3, 46440, Note_on_c, 1, 31, 0
3, 46500, Note_on_c, 1, 31, 114
3, 46620, Note_on_c, 1, 31, 0
3, 46680, Note_on_c, 1, 31, 114
3, 46800, Note_on_c, 1, 31, 0
3, 46860, Note_on_c, 1, 33, 125
3, 47010, Note_on_c, 1, 33, 0
3, 47040, Note_on_c, 1, 35, 125
3, 47130, Note_on_c, 1, 35, 0
3, 47160, Note_on_c, 1, 36, 125
3, 47220, Note_on_c, 1, 36, 0
3, 47280, Note_on_c, 1, 36, 125
3, 47400, Note_on_c, 1, 36, 0
3, 47460, Note_on_c, 1, 36, 125
3, 47580, Note_on_c, 1, 36, 0
3, 47640, Note_on_c, 1, 36, 125
3, 47760, Note_on_c, 1, 36, 0
3, 47820, Note_on_c, 1, 35, 125
3, 47940, Note_on_c, 1, 35, 0
3, 48000, Note_on_c, 1, 33, 106
3, 48060, Note_on_c, 1, 33, 0
3, 48120, Note_on_c, 1, 31, 125
3, 48180, Note_on_c, 1, 31, 0
3, 48240, Note_on_c, 1, 31, 125
3, 48360, Note_on_c, 1, 31, 0
3, 48420, Note_on_c, 1, 31, 114
3, 48540, Note_on_c, 1, 31, 0
3, 48600, Note_on_c, 1, 31, 114
3, 48720, Note_on_c, 1, 31, 0
3, 48780, Note_on_c, 1, 33, 125
3, 48930, Note_on_c, 1, 33, 0
3, 48960, Note_on_c, 1, 31, 125
3, 49050, Note_on_c, 1, 31, 0
3, 49080, Note_on_c, 1, 29, 127
3, 49230, Note_on_c, 1, 29, 0
3, 49260, Note_on_c, 1, 29, 125
3, 49410, Note_on_c, 1, 29, 0
3, 49440, Note_on_c, 1, 29, 114
3, 49530, Note_on_c, 1, 29, 0
3, 49560, Note_on_c, 1, 29, 114
3, 49710, Note_on_c, 1, 29, 0
3, 49740, Note_on_c, 1, 36, 127
3, 49890, Note_on_c, 1, 36, 0
3, 49920, Note_on_c, 1, 36, 125
3, 50010, Note_on_c, 1, 36, 0
3, 50040, Note_on_c, 1, 41, 127
3, 50190, Note_on_c, 1, 41, 0
3, 50220, Note_on_c, 1, 40, 127
3, 50370, Note_on_c, 1, 40, 0
3, 50400, Note_on_c, 1, 41, 127
3, 50550, Note_on_c, 1, 41, 0
3, 50580, Note_on_c, 1, 40, 127
3, 50730, Note_on_c, 1, 40, 0
3, 50760, Note_on_c, 1, 41, 127
3, 50820, Note_on_c, 1, 41, 0
3, 50880, Note_on_c, 1, 41, 127
3, 50970, Note_on_c, 1, 41, 0
3, 51000, Note_on_c, 1, 31, 127
3, 51029, Note_on_c, 1, 31, 0
3, 51120, Note_on_c, 1, 31, 125
3, 51270, Note_on_c, 1, 31, 0
3, 51300, Note_on_c, 1, 35, 127
3, 51329, Note_on_c, 1, 35, 0
3, 51360, Note_on_c, 1, 36, 114
3, 51389, Note_on_c, 1, 36, 0
3, 51420, Note_on_c, 1, 38, 127
3, 51780, Note_on_c, 1, 38, 0
3, 51780, Note_on_c, 1, 42, 127
3, 51840, Note_on_c, 1, 42, 0
3, 51840, Note_on_c, 1, 43, 125
3, 51869, Note_on_c, 1, 43, 0
3, 51900, Note_on_c, 1, 45, 127
3, 52050, Note_on_c, 1, 45, 0
3, 52080, Note_on_c, 1, 45, 127
3, 52230, Note_on_c, 1, 45, 0
3, 52260, Note_on_c, 1, 45, 125
3, 52380, Note_on_c, 1, 45, 0
3, 52440, Note_on_c, 1, 45, 127
3, 52560, Note_on_c, 1, 45, 0
3, 52620, Note_on_c, 1, 47, 125
3, 52740, Note_on_c, 1, 47, 0
3, 52800, Note_on_c, 1, 47, 125
3, 52860, Note_on_c, 1, 47, 0
3, 52920, Note_on_c, 1, 43, 127
3, 52980, Note_on_c, 1, 43, 0
3, 53040, Note_on_c, 1, 43, 127
3, 53220, Note_on_c, 1, 43, 0
3, 53220, Note_on_c, 1, 35, 125
3, 53249, Note_on_c, 1, 35, 0
3, 53280, Note_on_c, 1, 36, 127
3, 53309, Note_on_c, 1, 36, 0
3, 53340, Note_on_c, 1, 38, 127
3, 53700, Note_on_c, 1, 38, 0
3, 53700, Note_on_c, 1, 42, 127
3, 53729, Note_on_c, 1, 42, 0
3, 53760, Note_on_c, 1, 43, 114
3, 53789, Note_on_c, 1, 43, 0
3, 53820, Note_on_c, 1, 45, 127
3, 53910, Note_on_c, 1, 45, 0
3, 54000, Note_on_c, 1, 45, 127
3, 54120, Note_on_c, 1, 45, 0
3, 54180, Note_on_c, 1, 45, 125
3, 54300, Note_on_c, 1, 45, 0
3, 54360, Note_on_c, 1, 45, 127
3, 54510, Note_on_c, 1, 45, 0
3, 54540, Note_on_c, 1, 40, 114
3, 54690, Note_on_c, 1, 40, 0
3, 54720, Note_on_c, 1, 42, 127
3, 54780, Note_on_c, 1, 42, 0
3, 54840, Note_on_c, 1, 43, 127
3, 54869, Note_on_c, 1, 43, 0
3, 54960, Note_on_c, 1, 43, 127
3, 55140, Note_on_c, 1, 43, 0
3, 55140, Note_on_c, 1, 35, 125
3, 55200, Note_on_c, 1, 35, 0
3, 55200, Note_on_c, 1, 36, 127
3, 55229, Note_on_c, 1, 36, 0
3, 55260, Note_on_c, 1, 38, 127
3, 55620, Note_on_c, 1, 38, 0
3, 55620, Note_on_c, 1, 42, 127
3, 55649, Note_on_c, 1, 42, 0
3, 55680, Note_on_c, 1, 43, 114
3, 55709, Note_on_c, 1, 43, 0
3, 55740, Note_on_c, 1, 45, 127
3, 55830, Note_on_c, 1, 45, 0
3, 55920, Note_on_c, 1, 45, 127
3, 56070, Note_on_c, 1, 45, 0
3, 56100, Note_on_c, 1, 45, 127
3, 56250, Note_on_c, 1, 45, 0
3, 56280, Note_on_c, 1, 45, 125
3, 56430, Note_on_c, 1, 45, 0
3, 56460, Note_on_c, 1, 45, 127
3, 56610, Note_on_c, 1, 45, 0
3, 56640, Note_on_c, 1, 45, 125
3, 56700, Note_on_c, 1, 45, 0
3, 56760, Note_on_c, 1, 36, 127
3, 56820, Note_on_c, 1, 36, 0
3, 56880, Note_on_c, 1, 36, 127
3, 57030, Note_on_c, 1, 36, 0
3, 57060, Note_on_c, 1, 36, 127
3, 57180, Note_on_c, 1, 36, 0
3, 57240, Note_on_c, 1, 36, 127
3, 57360, Note_on_c, 1, 36, 0
3, 57420, Note_on_c, 1, 36, 114
3, 57540, Note_on_c, 1, 36, 0
3, 57600, Note_on_c, 1, 43, 127
3, 57629, Note_on_c, 1, 43, 0
3, 57720, Note_on_c, 1, 48, 127
3, 57870, Note_on_c, 1, 48, 0
3, 57900, Note_on_c, 1, 46, 125
3, 58050, Note_on_c, 1, 46, 0
3, 58080, Note_on_c, 1, 45, 125
3, 58260, Note_on_c, 1, 45, 0
3, 58260, Note_on_c, 1, 43, 125
3, 58440, Note_on_c, 1, 43, 0
3, 58440, Note_on_c, 1, 41, 125
3, 58500, Note_on_c, 1, 41, 0
3, 58500, Note_on_c, 1, 40, 106
3, 58560, Note_on_c, 1, 40, 0
3, 58560, Note_on_c, 1, 38, 106
3, 58650, Note_on_c, 1, 38, 0
3, 58680, Note_on_c, 1, 31, 127
3, 58740, Note_on_c, 1, 31, 0
3, 58800, Note_on_c, 1, 31, 127
3, 59100, Note_on_c, 1, 31, 0
3, 59160, Note_on_c, 1, 38, 127
3, 59220, Note_on_c, 1, 38, 0
3, 59220, Note_on_c, 1, 43, 122
3, 59280, Note_on_c, 1, 43, 0
3, 59340, Note_on_c, 1, 43, 127
3, 59490, Note_on_c, 1, 43, 0
3, 59520, Note_on_c, 1, 38, 127
3, 59580, Note_on_c, 1, 38, 0
3, 59640, Note_on_c, 1, 36, 127
3, 59669, Note_on_c, 1, 36, 0
3, 59760, Note_on_c, 1, 36, 127
3, 59970, Note_on_c, 1, 36, 0
3, 60000, Note_on_c, 1, 35, 125
3, 60090, Note_on_c, 1, 35, 0
3, 60600, Note_on_c, 1, 31, 127
3, 60660, Note_on_c, 1, 31, 0
3, 60720, Note_on_c, 1, 31, 127
3, 61020, Note_on_c, 1, 31, 0
3, 61080, Note_on_c, 1, 38, 127
3, 61140, Note_on_c, 1, 38, 0
3, 61140, Note_on_c, 1, 43, 122
3, 61200, Note_on_c, 1, 43, 0
3, 61260, Note_on_c, 1, 43, 127
3, 61410, Note_on_c, 1, 43, 0
3, 61440, Note_on_c, 1, 38, 127
3, 61500, Note_on_c, 1, 38, 0
3, 61560, Note_on_c, 1, 36, 127
3, 61589, Note_on_c, 1, 36, 0
3, 61680, Note_on_c, 1, 36, 127
3, 61890, Note_on_c, 1, 36, 0
3, 61920, Note_on_c, 1, 35, 125
3, 62010, Note_on_c, 1, 35, 0
3, 62040, Note_on_c, 1, 36, 127
3, 62190, Note_on_c, 1, 36, 0
3, 62220, Note_on_c, 1, 36, 125
3, 62370, Note_on_c, 1, 36, 0
3, 62400, Note_on_c, 1, 31, 127
3, 62460, Note_on_c, 1, 31, 0
3, 62520, Note_on_c, 1, 34, 127
3, 62670, Note_on_c, 1, 34, 0
3, 62700, Note_on_c, 1, 34, 125
3, 62850, Note_on_c, 1, 34, 0
3, 62880, Note_on_c, 1, 34, 114
3, 62970, Note_on_c, 1, 34, 0
3, 63000, Note_on_c, 1, 34, 127
3, 63180, Note_on_c, 1, 34, 0
3, 63180, Note_on_c, 1, 36, 114
3, 63360, Note_on_c, 1, 36, 0
3, 63360, Note_on_c, 1, 38, 120
3, 63480, Note_on_c, 1, 38, 0
3, 63486, Note_on_c, 1, 33, 114
3, 63641, Note_on_c, 1, 33, 0
3, 63676, Note_on_c, 1, 33, 125
3, 63828, Note_on_c, 1, 33, 0
3, 63846, Note_on_c, 1, 35, 125
3, 63954, Note_on_c, 1, 35, 0
3, 63964, Note_on_c, 1, 36, 127
3, 64215, Note_on_c, 1, 36, 0
3, 64218, Note_on_c, 1, 38, 127
3, 64419, Note_on_c, 1, 38, 0
3, 64440, Note_on_c, 1, 31, 127
3, 64469, Note_on_c, 1, 31, 0
3, 64560, Note_on_c, 1, 31, 125
3, 64710, Note_on_c, 1, 31, 0
3, 64740, Note_on_c, 1, 35, 127
3, 64769, Note_on_c, 1, 35, 0
3, 64800, Note_on_c, 1, 36, 114
3, 64829, Note_on_c, 1, 36, 0
3, 64860, Note_on_c, 1, 38, 127
3, 65220, Note_on_c, 1, 38, 0
3, 65220, Note_on_c, 1, 42, 127
3, 65280, Note_on_c, 1, 42, 0
3, 65280, Note_on_c, 1, 43, 125
3, 65309, Note_on_c, 1, 43, 0
3, 65340, Note_on_c, 1, 45, 127
3, 65490, Note_on_c, 1, 45, 0
3, 65520, Note_on_c, 1, 45, 127
3, 65670, Note_on_c, 1, 45, 0
3, 65700, Note_on_c, 1, 45, 125
3, 65820, Note_on_c, 1, 45, 0
3, 65880, Note_on_c, 1, 45, 127
3, 66000, Note_on_c, 1, 45, 0
3, 66060, Note_on_c, 1, 47, 125
3, 66180, Note_on_c, 1, 47, 0
3, 66240, Note_on_c, 1, 47, 125
3, 66300, Note_on_c, 1, 47, 0
3, 66360, Note_on_c, 1, 43, 127
3, 66420, Note_on_c, 1, 43, 0
3, 66480, Note_on_c, 1, 43, 127
3, 66660, Note_on_c, 1, 43, 0
3, 66660, Note_on_c, 1, 35, 125
3, 66689, Note_on_c, 1, 35, 0
3, 66720, Note_on_c, 1, 36, 127
3, 66749, Note_on_c, 1, 36, 0
3, 66780, Note_on_c, 1, 38, 127
3, 67140, Note_on_c, 1, 38, 0
3, 67140, Note_on_c, 1, 42, 127
3, 67169, Note_on_c, 1, 42, 0
3, 67200, Note_on_c, 1, 43, 114
3, 67229, Note_on_c, 1, 43, 0
3, 67260, Note_on_c, 1, 45, 127
3, 67350, Note_on_c, 1, 45, 0
3, 67440, Note_on_c, 1, 45, 127
3, 67560, Note_on_c, 1, 45, 0
3, 67620, Note_on_c, 1, 45, 125
3, 67740, Note_on_c, 1, 45, 0
3, 67800, Note_on_c, 1, 45, 127
3, 67950, Note_on_c, 1, 45, 0
3, 67980, Note_on_c, 1, 40, 114
3, 68130, Note_on_c, 1, 40, 0
3, 68160, Note_on_c, 1, 42, 127
3, 68220, Note_on_c, 1, 42, 0
3, 68280, Note_on_c, 1, 43, 127
3, 68309, Note_on_c, 1, 43, 0
3, 68400, Note_on_c, 1, 43, 127
3, 68580, Note_on_c, 1, 43, 0
3, 68580, Note_on_c, 1, 35, 125
3, 68640, Note_on_c, 1, 35, 0
3, 68640, Note_on_c, 1, 36, 127
3, 68669, Note_on_c, 1, 36, 0
3, 68700, Note_on_c, 1, 38, 127
3, 69060, Note_on_c, 1, 38, 0
3, 69060, Note_on_c, 1, 42, 127
3, 69089, Note_on_c, 1, 42, 0
3, 69120, Note_on_c, 1, 43, 114
3, 69149, Note_on_c, 1, 43, 0
3, 69180, Note_on_c, 1, 45, 127
3, 69270, Note_on_c, 1, 45, 0
3, 69360, Note_on_c, 1, 45, 127
3, 69510, Note_on_c, 1, 45, 0
3, 69540, Note_on_c, 1, 45, 127
3, 69690, Note_on_c, 1, 45, 0
3, 69720, Note_on_c, 1, 45, 125
3, 69870, Note_on_c, 1, 45, 0
3, 69900, Note_on_c, 1, 45, 127
3, 70050, Note_on_c, 1, 45, 0
3, 70080, Note_on_c, 1, 45, 125
3, 70140, Note_on_c, 1, 45, 0
3, 70200, Note_on_c, 1, 36, 127
3, 70260, Note_on_c, 1, 36, 0
3, 70320, Note_on_c, 1, 36, 127
3, 70470, Note_on_c, 1, 36, 0
3, 70500, Note_on_c, 1, 36, 127
3, 70620, Note_on_c, 1, 36, 0
3, 70680, Note_on_c, 1, 36, 127
3, 70800, Note_on_c, 1, 36, 0
3, 70860, Note_on_c, 1, 36, 114
3, 70980, Note_on_c, 1, 36, 0
3, 71040, Note_on_c, 1, 43, 127
3, 71069, Note_on_c, 1, 43, 0
3, 71160, Note_on_c, 1, 48, 127
3, 71310, Note_on_c, 1, 48, 0
3, 71340, Note_on_c, 1, 46, 125
3, 71490, Note_on_c, 1, 46, 0
3, 71520, Note_on_c, 1, 45, 125
3, 71700, Note_on_c, 1, 45, 0
3, 71700, Note_on_c, 1, 43, 125
3, 71880, Note_on_c, 1, 43, 0
3, 71880, Note_on_c, 1, 41, 125
3, 71940, Note_on_c, 1, 41, 0
3, 71940, Note_on_c, 1, 40, 106
3, 72000, Note_on_c, 1, 40, 0
3, 72000, Note_on_c, 1, 38, 106
3, 72090, Note_on_c, 1, 38, 0
3, 72127, Note_on_c, 1, 31, 127
3, 74135, Note_on_c, 1, 31, 0
3, 81720, Note_on_c, 1, 31, 127
3, 81749, Note_on_c, 1, 31, 0
3, 81840, Note_on_c, 1, 31, 125
3, 81990, Note_on_c, 1, 31, 0
3, 82020, Note_on_c, 1, 35, 127
3, 82049, Note_on_c, 1, 35, 0
3, 82080, Note_on_c, 1, 36, 114
3, 82109, Note_on_c, 1, 36, 0
3, 82140, Note_on_c, 1, 38, 127
3, 82500, Note_on_c, 1, 38, 0
3, 82500, Note_on_c, 1, 42, 127
3, 82560, Note_on_c, 1, 42, 0
3, 82560, Note_on_c, 1, 43, 125
3, 82589, Note_on_c, 1, 43, 0
3, 82620, Note_on_c, 1, 45, 127
3, 82770, Note_on_c, 1, 45, 0
3, 82800, Note_on_c, 1, 45, 127
3, 82950, Note_on_c, 1, 45, 0
3, 82980, Note_on_c, 1, 45, 125
3, 83100, Note_on_c, 1, 45, 0
3, 83160, Note_on_c, 1, 45, 127
3, 83280, Note_on_c, 1, 45, 0
3, 83340, Note_on_c, 1, 47, 125
3, 83460, Note_on_c, 1, 47, 0
3, 83520, Note_on_c, 1, 47, 125
3, 83580, Note_on_c, 1, 47, 0
3, 83640, Note_on_c, 1, 43, 127
3, 83700, Note_on_c, 1, 43, 0
3, 83760, Note_on_c, 1, 43, 127
3, 83940, Note_on_c, 1, 43, 0
3, 83940, Note_on_c, 1, 35, 125
3, 83969, Note_on_c, 1, 35, 0
3, 84000, Note_on_c, 1, 36, 127
3, 84029, Note_on_c, 1, 36, 0
3, 84060, Note_on_c, 1, 38, 127
3, 84420, Note_on_c, 1, 38, 0
3, 84420, Note_on_c, 1, 42, 127
3, 84449, Note_on_c, 1, 42, 0
3, 84480, Note_on_c, 1, 43, 114
3, 84509, Note_on_c, 1, 43, 0
3, 84540, Note_on_c, 1, 45, 127
3, 84630, Note_on_c, 1, 45, 0
3, 84720, Note_on_c, 1, 45, 127
3, 84840, Note_on_c, 1, 45, 0
3, 84900, Note_on_c, 1, 45, 125
3, 85020, Note_on_c, 1, 45, 0
3, 85080, Note_on_c, 1, 45, 127
3, 85230, Note_on_c, 1, 45, 0
3, 85260, Note_on_c, 1, 40, 114
3, 85410, Note_on_c, 1, 40, 0
3, 85440, Note_on_c, 1, 42, 127
3, 85500, Note_on_c, 1, 42, 0
3, 85560, Note_on_c, 1, 43, 127
3, 85589, Note_on_c, 1, 43, 0
3, 85680, Note_on_c, 1, 43, 127
3, 85860, Note_on_c, 1, 43, 0
3, 85860, Note_on_c, 1, 35, 125
3, 85920, Note_on_c, 1, 35, 0
3, 85920, Note_on_c, 1, 36, 127
3, 85949, Note_on_c, 1, 36, 0
3, 85980, Note_on_c, 1, 38, 127
3, 86340, Note_on_c, 1, 38, 0
3, 86340, Note_on_c, 1, 42, 127
3, 86369, Note_on_c, 1, 42, 0
3, 86400, Note_on_c, 1, 43, 114
3, 86429, Note_on_c, 1, 43, 0
3, 86460, Note_on_c, 1, 45, 127
3, 86550, Note_on_c, 1, 45, 0
3, 86640, Note_on_c, 1, 45, 127
3, 86790, Note_on_c, 1, 45, 0
3, 86820, Note_on_c, 1, 45, 127
3, 86970, Note_on_c, 1, 45, 0
3, 87000, Note_on_c, 1, 45, 125
3, 87150, Note_on_c, 1, 45, 0
3, 87180, Note_on_c, 1, 45, 127
3, 87330, Note_on_c, 1, 45, 0
3, 87360, Note_on_c, 1, 45, 125
3, 87420, Note_on_c, 1, 45, 0
3, 87480, Note_on_c, 1, 36, 127
3, 87540, Note_on_c, 1, 36, 0
3, 87600, Note_on_c, 1, 36, 127
3, 87750, Note_on_c, 1, 36, 0
3, 87780, Note_on_c, 1, 36, 127
3, 87900, Note_on_c, 1, 36, 0
3, 87960, Note_on_c, 1, 36, 127
3, 88080, Note_on_c, 1, 36, 0
3, 88140, Note_on_c, 1, 36, 114
3, 88260, Note_on_c, 1, 36, 0
3, 88320, Note_on_c, 1, 43, 127
3, 88349, Note_on_c, 1, 43, 0
3, 88440, Note_on_c, 1, 48, 127
3, 88590, Note_on_c, 1, 48, 0
3, 88620, Note_on_c, 1, 46, 125
3, 88770, Note_on_c, 1, 46, 0
3, 88800, Note_on_c, 1, 45, 125
3, 88980, Note_on_c, 1, 45, 0
3, 88980, Note_on_c, 1, 43, 125
3, 89160, Note_on_c, 1, 43, 0
3, 89160, Note_on_c, 1, 41, 125
3, 89220, Note_on_c, 1, 41, 0
3, 89220, Note_on_c, 1, 40, 106
3, 89280, Note_on_c, 1, 40, 0
3, 89280, Note_on_c, 1, 38, 106
3, 89370, Note_on_c, 1, 38, 0
3, 89400, Note_on_c, 1, 31, 127
3, 89429, Note_on_c, 1, 31, 0
3, 89520, Note_on_c, 1, 31, 125
3, 89670, Note_on_c, 1, 31, 0
3, 89700, Note_on_c, 1, 35, 127
3, 89729, Note_on_c, 1, 35, 0
3, 89760, Note_on_c, 1, 36, 114
3, 89789, Note_on_c, 1, 36, 0
3, 89820, Note_on_c, 1, 38, 127
3, 90180, Note_on_c, 1, 38, 0
3, 90180, Note_on_c, 1, 42, 127
3, 90240, Note_on_c, 1, 42, 0
3, 90240, Note_on_c, 1, 43, 125
3, 90269, Note_on_c, 1, 43, 0
3, 90300, Note_on_c, 1, 45, 127
3, 90450, Note_on_c, 1, 45, 0
3, 90480, Note_on_c, 1, 45, 127
3, 90630, Note_on_c, 1, 45, 0
3, 90660, Note_on_c, 1, 45, 125
3, 90780, Note_on_c, 1, 45, 0
3, 90840, Note_on_c, 1, 45, 127
3, 90960, Note_on_c, 1, 45, 0
3, 91020, Note_on_c, 1, 47, 125
3, 91140, Note_on_c, 1, 47, 0
3, 91200, Note_on_c, 1, 47, 125
3, 91260, Note_on_c, 1, 47, 0
3, 91320, Note_on_c, 1, 43, 127
3, 91380, Note_on_c, 1, 43, 0
3, 91440, Note_on_c, 1, 43, 127
3, 91620, Note_on_c, 1, 43, 0
3, 91620, Note_on_c, 1, 35, 125
3, 91649, Note_on_c, 1, 35, 0
3, 91680, Note_on_c, 1, 36, 127
3, 91709, Note_on_c, 1, 36, 0
3, 91740, Note_on_c, 1, 38, 127
3, 92100, Note_on_c, 1, 38, 0
3, 92100, Note_on_c, 1, 42, 127
3, 92129, Note_on_c, 1, 42, 0
3, 92160, Note_on_c, 1, 43, 114
3, 92189, Note_on_c, 1, 43, 0
3, 92220, Note_on_c, 1, 45, 127
3, 92310, Note_on_c, 1, 45, 0
3, 92400, Note_on_c, 1, 45, 127
3, 92520, Note_on_c, 1, 45, 0
3, 92580, Note_on_c, 1, 45, 125
3, 92700, Note_on_c, 1, 45, 0
3, 92760, Note_on_c, 1, 45, 127
3, 92910, Note_on_c, 1, 45, 0
3, 92940, Note_on_c, 1, 40, 114
3, 93090, Note_on_c, 1, 40, 0
3, 93120, Note_on_c, 1, 42, 127
3, 93180, Note_on_c, 1, 42, 0
3, 93240, Note_on_c, 1, 43, 127
3, 93269, Note_on_c, 1, 43, 0
3, 93360, Note_on_c, 1, 43, 127
3, 93540, Note_on_c, 1, 43, 0
3, 93540, Note_on_c, 1, 35, 125
3, 93600, Note_on_c, 1, 35, 0
3, 93600, Note_on_c, 1, 36, 127
3, 93629, Note_on_c, 1, 36, 0
3, 93660, Note_on_c, 1, 38, 127
3, 94020, Note_on_c, 1, 38, 0
3, 94020, Note_on_c, 1, 42, 127
3, 94049, Note_on_c, 1, 42, 0
3, 94080, Note_on_c, 1, 43, 114
3, 94109, Note_on_c, 1, 43, 0
3, 94140, Note_on_c, 1, 45, 127
3, 94230, Note_on_c, 1, 45, 0
3, 94320, Note_on_c, 1, 45, 127
3, 94470, Note_on_c, 1, 45, 0
3, 94480, Control_c, 1, 7, 114
3, 94500, Note_on_c, 1, 45, 127
3, 94605, Control_c, 1, 7, 113
3, 94650, Note_on_c, 1, 45, 0
3, 94680, Note_on_c, 1, 45, 125
3, 94703, Control_c, 1, 7, 112
3, 94725, Control_c, 1, 7, 111
3, 94785, Control_c, 1, 7, 110
3, 94830, Note_on_c, 1, 45, 0
3, 94860, Note_on_c, 1, 45, 127
3, 94875, Control_c, 1, 7, 109
3, 94907, Control_c, 1, 7, 108
3, 94917, Control_c, 1, 7, 107
3, 95010, Note_on_c, 1, 45, 0
3, 95040, Note_on_c, 1, 45, 125
3, 95050, Control_c, 1, 7, 106
3, 95065, Control_c, 1, 7, 105
3, 95100, Note_on_c, 1, 45, 0
3, 95135, Control_c, 1, 7, 104
3, 95157, Control_c, 1, 7, 103
3, 95160, Note_on_c, 1, 36, 127
3, 95220, Note_on_c, 1, 36, 0
3, 95240, Control_c, 1, 7, 102
3, 95260, Control_c, 1, 7, 101
3, 95270, Control_c, 1, 7, 100
3, 95280, Note_on_c, 1, 36, 127
3, 95300, Control_c, 1, 7, 99
3, 95390, Control_c, 1, 7, 98
3, 95400, Control_c, 1, 7, 97
3, 95410, Control_c, 1, 7, 96
3, 95430, Note_on_c, 1, 36, 0
3, 95460, Note_on_c, 1, 36, 127
3, 95490, Control_c, 1, 7, 95
3, 95555, Control_c, 1, 7, 94
3, 95565, Control_c, 1, 7, 93
3, 95580, Note_on_c, 1, 36, 0
3, 95640, Note_on_c, 1, 36, 127
3, 95675, Control_c, 1, 7, 92
3, 95735, Control_c, 1, 7, 91
3, 95760, Note_on_c, 1, 36, 0
3, 95780, Control_c, 1, 7, 90
3, 95810, Control_c, 1, 7, 89
3, 95820, Note_on_c, 1, 36, 114
3, 95870, Control_c, 1, 7, 88
3, 95940, Note_on_c, 1, 36, 0
3, 95940, Control_c, 1, 7, 87
3, 95990, Control_c, 1, 7, 86
3, 96000, Control_c, 1, 7, 85
3, 96000, Note_on_c, 1, 43, 127
3, 96029, Note_on_c, 1, 43, 0
3, 96050, Control_c, 1, 7, 84
3, 96070, Control_c, 1, 7, 83
3, 96100, Control_c, 1, 7, 82
3, 96120, Note_on_c, 1, 48, 127
3, 96180, Control_c, 1, 7, 81
3, 96195, Control_c, 1, 7, 80
3, 96230, Control_c, 1, 7, 79
3, 96240, Control_c, 1, 7, 78
3, 96270, Note_on_c, 1, 48, 0
3, 96300, Control_c, 1, 7, 77
3, 96300, Note_on_c, 1, 46, 125
3, 96345, Control_c, 1, 7, 76
3, 96355, Control_c, 1, 7, 75
3, 96380, Control_c, 1, 7, 74
3, 96440, Control_c, 1, 7, 73
3, 96450, Note_on_c, 1, 46, 0
3, 96480, Note_on_c, 1, 45, 125
3, 96510, Control_c, 1, 7, 72
3, 96565, Control_c, 1, 7, 71
3, 96650, Control_c, 1, 7, 70
3, 96660, Note_on_c, 1, 45, 0
3, 96660, Note_on_c, 1, 43, 125
3, 96730, Control_c, 1, 7, 69
3, 96769, Control_c, 1, 7, 68
3, 96820, Control_c, 1, 7, 67
3, 96840, Note_on_c, 1, 43, 0
3, 96840, Note_on_c, 1, 41, 125
3, 96885, Control_c, 1, 7, 66
3, 96900, Note_on_c, 1, 41, 0
3, 96900, Control_c, 1, 7, 65
3, 96900, Note_on_c, 1, 40, 106
3, 96930, Control_c, 1, 7, 64
3, 96960, Note_on_c, 1, 40, 0
3, 96960, Note_on_c, 1, 38, 106
3, 96980, Control_c, 1, 7, 63
3, 97016, Control_c, 1, 7, 62
3, 97050, Note_on_c, 1, 38, 0
3, 97060, Control_c, 1, 7, 61
3, 97080, Note_on_c, 1, 31, 127
3, 97094, Control_c, 1, 7, 60
3, 97109, Note_on_c, 1, 31, 0
3, 97175, Control_c, 1, 7, 59
3, 97200, Note_on_c, 1, 31, 125
3, 97225, Control_c, 1, 7, 58
3, 97285, Control_c, 1, 7, 57
3, 97323, Control_c, 1, 7, 56
3, 97350, Note_on_c, 1, 31, 0
3, 97380, Note_on_c, 1, 35, 127
3, 97405, Control_c, 1, 7, 55
3, 97409, Note_on_c, 1, 35, 0
3, 97424, Control_c, 1, 7, 54
3, 97440, Note_on_c, 1, 36, 114
3, 97465, Control_c, 1, 7, 53
3, 97469, Note_on_c, 1, 36, 0
3, 97500, Note_on_c, 1, 38, 127
3, 97540, Control_c, 1, 7, 52
3, 97581, Control_c, 1, 7, 51
3, 97630, Control_c, 1, 7, 50
3, 97680, Control_c, 1, 7, 49
3, 97740, Control_c, 1, 7, 48
3, 97760, Control_c, 1, 7, 47
3, 97770, Control_c, 1, 7, 46
3, 97830, Control_c, 1, 7, 45
3, 97860, Note_on_c, 1, 38, 0
3, 97860, Note_on_c, 1, 42, 127
3, 97900, Control_c, 1, 7, 44
3, 97920, Note_on_c, 1, 42, 0
3, 97920, Note_on_c, 1, 43, 125
3, 97949, Note_on_c, 1, 43, 0
3, 97950, Control_c, 1, 7, 43
3, 97980, Note_on_c, 1, 45, 127
3, 98006, Control_c, 1, 7, 42
3, 98069, Control_c, 1, 7, 41
3, 98079, Control_c, 1, 7, 40
3, 98130, Note_on_c, 1, 45, 0
3, 98135, Control_c, 1, 7, 39
3, 98160, Note_on_c, 1, 45, 127
3, 98165, Control_c, 1, 7, 38
3, 98283, Control_c, 1, 7, 37
3, 98310, Note_on_c, 1, 45, 0
3, 98315, Control_c, 1, 7, 36
3, 98330, Control_c, 1, 7, 35
3, 98340, Note_on_c, 1, 45, 125
3, 98355, Control_c, 1, 7, 34
3, 98403, Control_c, 1, 7, 33
3, 98460, Note_on_c, 1, 45, 0
3, 98485, Control_c, 1, 7, 32
3, 98517, Control_c, 1, 7, 31
3, 98520, Note_on_c, 1, 45, 127
3, 98580, Control_c, 1, 7, 30
3, 98640, Note_on_c, 1, 45, 0
3, 98655, Control_c, 1, 7, 29
3, 98700, Note_on_c, 1, 47, 125
3, 98725, Control_c, 1, 7, 28
3, 98753, Control_c, 1, 7, 27
3, 98820, Note_on_c, 1, 47, 0
3, 98870, Control_c, 1, 7, 26
3, 98880, Note_on_c, 1, 47, 125
3, 98899, Control_c, 1, 7, 25
3, 98940, Note_on_c, 1, 47, 0
3, 98959, Control_c, 1, 7, 24
3, 99000, Note_on_c, 1, 43, 127
3, 99029, Control_c, 1, 7, 23
3, 99060, Note_on_c, 1, 43, 0
3, 99088, Control_c, 1, 7, 20
3, 99120, Note_on_c, 1, 43, 127
3, 99155, Control_c, 1, 7, 19
3, 99205, Control_c, 1, 7, 18
3, 99235, Control_c, 1, 7, 17
3, 99245, Control_c, 1, 7, 16
3, 99300, Note_on_c, 1, 43, 0
3, 99300, Note_on_c, 1, 35, 125
3, 99305, Control_c, 1, 7, 15
3, 99329, Note_on_c, 1, 35, 0
3, 99345, Control_c, 1, 7, 14
3, 99355, Control_c, 1, 7, 13
3, 99360, Note_on_c, 1, 36, 127
3, 99389, Note_on_c, 1, 36, 0
3, 99414, Control_c, 1, 7, 12
3, 99420, Note_on_c, 1, 38, 127
3, 99425, Control_c, 1, 7, 11
3, 99455, Control_c, 1, 7, 10
3, 99511, Control_c, 1, 7, 9
3, 99611, Control_c, 1, 7, 8
3, 99634, Control_c, 1, 7, 7
3, 99674, Control_c, 1, 7, 6
3, 99740, Control_c, 1, 7, 5
3, 99780, Note_on_c, 1, 38, 0
3, 99800, Control_c, 1, 7, 4
3, 99810, Control_c, 1, 7, 3
3, 99810, End_track
4, 0, Start_track
4, 0, MIDI_port, 0
4, 0, Title_t, "Electric Guitar (Chorus)"
4, 0, Control_c, 0, 0, 0
4, 0, Program_c, 0, 30
4, 0, Control_c, 0, 7, 95
4, 0, Control_c, 0, 10, 64
4, 0, Control_c, 0, 93, 51
4, 0, Control_c, 0, 91, 63
4, 8760, Note_on_c, 0, 58, 127
4, 8760, Note_on_c, 0, 53, 120
4, 8760, Note_on_c, 0, 46, 127
4, 8779, Control_c, 0, 64, 127
4, 8820, Note_on_c, 0, 46, 0
4, 8820, Note_on_c, 0, 53, 0
4, 8820, Note_on_c, 0, 58, 0
4, 8940, Note_on_c, 0, 58, 127
4, 8940, Note_on_c, 0, 53, 120
4, 8940, Note_on_c, 0, 46, 114
4, 8969, Note_on_c, 0, 46, 0
4, 8969, Note_on_c, 0, 53, 0
4, 8969, Note_on_c, 0, 58, 0
4, 9120, Note_on_c, 0, 58, 127
4, 9120, Note_on_c, 0, 53, 102
4, 9120, Note_on_c, 0, 46, 125
4, 9149, Note_on_c, 0, 53, 0
4, 9149, Note_on_c, 0, 58, 0
4, 9180, Note_on_c, 0, 46, 0
4, 9300, Note_on_c, 0, 58, 127
4, 9300, Note_on_c, 0, 53, 92
4, 9300, Note_on_c, 0, 46, 114
4, 9329, Note_on_c, 0, 46, 0
4, 9329, Note_on_c, 0, 53, 0
4, 9329, Note_on_c, 0, 58, 0
4, 9420, Note_on_c, 0, 58, 114
4, 9420, Note_on_c, 0, 53, 94
4, 9420, Note_on_c, 0, 46, 114
4, 9449, Note_on_c, 0, 46, 0
4, 9449, Note_on_c, 0, 53, 0
4, 9449, Note_on_c, 0, 58, 0
4, 9480, Note_on_c, 0, 58, 114
4, 9480, Note_on_c, 0, 53, 94
4, 9480, Note_on_c, 0, 46, 83
4, 9509, Note_on_c, 0, 53, 0
4, 9509, Note_on_c, 0, 58, 0
4, 9540, Note_on_c, 0, 58, 114
4, 9540, Note_on_c, 0, 53, 80
4, 9569, Note_on_c, 0, 53, 0
4, 9569, Note_on_c, 0, 58, 0
4, 9570, Note_on_c, 0, 46, 0
4, 9597, Control_c, 0, 64, 127
4, 9600, Note_on_c, 0, 46, 61
4, 9600, Note_on_c, 0, 58, 97
4, 9600, Note_on_c, 0, 53, 65
4, 9660, Note_on_c, 0, 46, 0
4, 9690, Note_on_c, 0, 53, 0
4, 9690, Note_on_c, 0, 58, 0
4, 9720, Note_on_c, 0, 57, 127
4, 9720, Note_on_c, 0, 52, 122
4, 9720, Note_on_c, 0, 45, 112
4, 9735, Control_c, 0, 64, 0
4, 9758, Control_c, 0, 64, 0
4, 9796, Control_c, 0, 64, 127
4, 9840, Note_on_c, 0, 45, 0
4, 9840, Note_on_c, 0, 52, 0
4, 9840, Note_on_c, 0, 57, 0
4, 9900, Note_on_c, 0, 57, 122
4, 9900, Note_on_c, 0, 52, 127
4, 9900, Note_on_c, 0, 45, 97
4, 9960, Note_on_c, 0, 45, 0
4, 9960, Note_on_c, 0, 52, 0
4, 9960, Note_on_c, 0, 57, 0
4, 10080, Note_on_c, 0, 52, 112
4, 10080, Note_on_c, 0, 57, 109
4, 10080, Note_on_c, 0, 45, 100
4, 10109, Note_on_c, 0, 45, 0
4, 10109, Note_on_c, 0, 57, 0
4, 10109, Note_on_c, 0, 52, 0
4, 10260, Note_on_c, 0, 57, 103
4, 10260, Note_on_c, 0, 52, 94
4, 10260, Note_on_c, 0, 45, 98
4, 10289, Note_on_c, 0, 45, 0
4, 10289, Note_on_c, 0, 52, 0
4, 10289, Note_on_c, 0, 57, 0
4, 10380, Note_on_c, 0, 57, 112
4, 10380, Note_on_c, 0, 45, 100
4, 10380, Note_on_c, 0, 52, 107
4, 10409, Note_on_c, 0, 52, 0
4, 10409, Note_on_c, 0, 45, 0
4, 10409, Note_on_c, 0, 57, 0
4, 10440, Note_on_c, 0, 52, 83
4, 10440, Note_on_c, 0, 57, 89
4, 10440, Note_on_c, 0, 45, 97
4, 10469, Note_on_c, 0, 57, 0
4, 10469, Note_on_c, 0, 52, 0
4, 10500, Note_on_c, 0, 45, 0
4, 10500, Note_on_c, 0, 57, 89
4, 10500, Note_on_c, 0, 52, 86
4, 10529, Note_on_c, 0, 52, 0
4, 10529, Note_on_c, 0, 57, 0
4, 10530, Note_on_c, 0, 45, 83
4, 10559, Note_on_c, 0, 45, 0
4, 10560, Note_on_c, 0, 57, 97
4, 10560, Note_on_c, 0, 52, 94
4, 10589, Note_on_c, 0, 52, 0
4, 10589, Note_on_c, 0, 57, 0
4, 10590, Note_on_c, 0, 45, 97
4, 10619, Note_on_c, 0, 45, 0
4, 10634, Control_c, 0, 64, 127
4, 10644, Control_c, 0, 64, 127
4, 10670, Control_c, 0, 64, 0
4, 10680, Note_on_c, 0, 43, 127
4, 10680, Note_on_c, 0, 59, 109
4, 10680, Note_on_c, 0, 55, 117
4, 10680, Note_on_c, 0, 50, 120
4, 10689, Control_c, 0, 64, 127
4, 11234, Control_c, 0, 64, 127
4, 11287, Control_c, 0, 64, 0
4, 11460, Note_on_c, 0, 43, 0
4, 11490, Note_on_c, 0, 59, 0
4, 11490, Note_on_c, 0, 55, 0
4, 11490, Note_on_c, 0, 50, 0
4, 18360, Note_on_c, 0, 58, 127
4, 18360, Note_on_c, 0, 53, 120
4, 18360, Note_on_c, 0, 46, 127
4, 18379, Control_c, 0, 64, 127
4, 18420, Note_on_c, 0, 46, 0
4, 18420, Note_on_c, 0, 53, 0
4, 18420, Note_on_c, 0, 58, 0
4, 18540, Note_on_c, 0, 58, 127
4, 18540, Note_on_c, 0, 53, 120
4, 18540, Note_on_c, 0, 46, 114
4, 18569, Note_on_c, 0, 46, 0
4, 18569, Note_on_c, 0, 53, 0
4, 18569, Note_on_c, 0, 58, 0
4, 18720, Note_on_c, 0, 58, 127
4, 18720, Note_on_c, 0, 53, 102
4, 18720, Note_on_c, 0, 46, 125
4, 18749, Note_on_c, 0, 53, 0
4, 18749, Note_on_c, 0, 58, 0
4, 18780, Note_on_c, 0, 46, 0
4, 18900, Note_on_c, 0, 58, 127
4, 18900, Note_on_c, 0, 53, 92
4, 18900, Note_on_c, 0, 46, 114
4, 18929, Note_on_c, 0, 46, 0
4, 18929, Note_on_c, 0, 53, 0
4, 18929, Note_on_c, 0, 58, 0
4, 19020, Note_on_c, 0, 58, 114
4, 19020, Note_on_c, 0, 53, 94
4, 19020, Note_on_c, 0, 46, 114
4, 19049, Note_on_c, 0, 46, 0
4, 19049, Note_on_c, 0, 53, 0
4, 19049, Note_on_c, 0, 58, 0
4, 19080, Note_on_c, 0, 58, 114
4, 19080, Note_on_c, 0, 53, 94
4, 19080, Note_on_c, 0, 46, 83
4, 19109, Note_on_c, 0, 53, 0
4, 19109, Note_on_c, 0, 58, 0
4, 19140, Note_on_c, 0, 58, 114
4, 19140, Note_on_c, 0, 53, 80
4, 19169, Note_on_c, 0, 53, 0
4, 19169, Note_on_c, 0, 58, 0
4, 19170, Note_on_c, 0, 46, 0
4, 19197, Control_c, 0, 64, 127
4, 19200, Note_on_c, 0, 46, 61
4, 19200, Note_on_c, 0, 58, 97
4, 19200, Note_on_c, 0, 53, 65
4, 19260, Note_on_c, 0, 46, 0
4, 19290, Note_on_c, 0, 53, 0
4, 19290, Note_on_c, 0, 58, 0
4, 19320, Note_on_c, 0, 57, 127
4, 19320, Note_on_c, 0, 52, 122
4, 19320, Note_on_c, 0, 45, 112
4, 19335, Control_c, 0, 64, 0
4, 19358, Control_c, 0, 64, 0
4, 19396, Control_c, 0, 64, 127
4, 19440, Note_on_c, 0, 45, 0
4, 19440, Note_on_c, 0, 52, 0
4, 19440, Note_on_c, 0, 57, 0
4, 19500, Note_on_c, 0, 57, 122
4, 19500, Note_on_c, 0, 52, 127
4, 19500, Note_on_c, 0, 45, 97
4, 19560, Note_on_c, 0, 45, 0
4, 19560, Note_on_c, 0, 52, 0
4, 19560, Note_on_c, 0, 57, 0
4, 19680, Note_on_c, 0, 52, 112
4, 19680, Note_on_c, 0, 57, 109
4, 19680, Note_on_c, 0, 45, 100
4, 19709, Note_on_c, 0, 45, 0
4, 19709, Note_on_c, 0, 57, 0
4, 19709, Note_on_c, 0, 52, 0
4, 19860, Note_on_c, 0, 57, 103
4, 19860, Note_on_c, 0, 52, 94
4, 19860, Note_on_c, 0, 45, 98
4, 19889, Note_on_c, 0, 45, 0
4, 19889, Note_on_c, 0, 52, 0
4, 19889, Note_on_c, 0, 57, 0
4, 19980, Note_on_c, 0, 57, 112
4, 19980, Note_on_c, 0, 45, 100
4, 19980, Note_on_c, 0, 52, 107
4, 20009, Note_on_c, 0, 52, 0
4, 20009, Note_on_c, 0, 45, 0
4, 20009, Note_on_c, 0, 57, 0
4, 20040, Note_on_c, 0, 52, 83
4, 20040, Note_on_c, 0, 57, 89
4, 20040, Note_on_c, 0, 45, 97
4, 20069, Note_on_c, 0, 57, 0
4, 20069, Note_on_c, 0, 52, 0
4, 20100, Note_on_c, 0, 45, 0
4, 20100, Note_on_c, 0, 57, 89
4, 20100, Note_on_c, 0, 52, 86
4, 20129, Note_on_c, 0, 52, 0
4, 20129, Note_on_c, 0, 57, 0
4, 20130, Note_on_c, 0, 45, 83
4, 20159, Note_on_c, 0, 45, 0
4, 20160, Note_on_c, 0, 57, 97
4, 20160, Note_on_c, 0, 52, 94
4, 20189, Note_on_c, 0, 52, 0
4, 20189, Note_on_c, 0, 57, 0
4, 20190, Note_on_c, 0, 45, 97
4, 20219, Note_on_c, 0, 45, 0
4, 20234, Control_c, 0, 64, 127
4, 20244, Control_c, 0, 64, 127
4, 20270, Control_c, 0, 64, 0
4, 20270, Control_c, 0, 64, 127
4, 20273, Note_on_c, 0, 50, 125
4, 20275, Note_on_c, 0, 55, 127
4, 20277, Note_on_c, 0, 43, 127
4, 20539, Note_on_c, 0, 55, 0
4, 20556, Note_on_c, 0, 43, 0
4, 20564, Note_on_c, 0, 50, 0
4, 20580, Note_on_c, 0, 55, 127
4, 20580, Note_on_c, 0, 50, 95
4, 20580, Note_on_c, 0, 43, 112
4, 20609, Note_on_c, 0, 43, 0
4, 20609, Note_on_c, 0, 50, 0
4, 20609, Note_on_c, 0, 55, 0
4, 20640, Note_on_c, 0, 55, 125
4, 20640, Note_on_c, 0, 43, 72
4, 20640, Note_on_c, 0, 50, 106
4, 20669, Note_on_c, 0, 50, 0
4, 20669, Note_on_c, 0, 43, 0
4, 20669, Note_on_c, 0, 55, 0
4, 20700, Note_on_c, 0, 57, 125
4, 20700, Note_on_c, 0, 62, 110
4, 20700, Note_on_c, 0, 50, 127
4, 20702, Control_c, 0, 64, 0
4, 20759, Control_c, 0, 64, 127
4, 21000, Note_on_c, 0, 62, 0
4, 21000, Note_on_c, 0, 57, 0
4, 21030, Note_on_c, 0, 62, 89
4, 21030, Note_on_c, 0, 57, 94
4, 21059, Note_on_c, 0, 57, 0
4, 21059, Note_on_c, 0, 62, 0
4, 21060, Note_on_c, 0, 50, 0
4, 21090, Note_on_c, 0, 62, 106
4, 21090, Note_on_c, 0, 57, 102
4, 21119, Note_on_c, 0, 57, 0
4, 21119, Note_on_c, 0, 62, 0
4, 21191, Control_c, 0, 64, 0
4, 21240, Note_on_c, 0, 64, 114
4, 21240, Note_on_c, 0, 57, 122
4, 21240, Note_on_c, 0, 69, 102
4, 21261, Control_c, 0, 64, 127
4, 21330, Note_on_c, 0, 69, 0
4, 21330, Note_on_c, 0, 57, 0
4, 21330, Note_on_c, 0, 64, 0
4, 21360, Note_on_c, 0, 64, 114
4, 21360, Note_on_c, 0, 69, 94
4, 21360, Note_on_c, 0, 57, 97
4, 21389, Note_on_c, 0, 64, 0
4, 21420, Note_on_c, 0, 57, 0
4, 21420, Note_on_c, 0, 69, 0
4, 21510, Note_on_c, 0, 64, 125
4, 21510, Note_on_c, 0, 69, 109
4, 21510, Note_on_c, 0, 57, 100
4, 21570, Note_on_c, 0, 57, 0
4, 21570, Note_on_c, 0, 69, 0
4, 21570, Note_on_c, 0, 64, 0
4, 21600, Note_on_c, 0, 64, 65
4, 21600, Note_on_c, 0, 69, 50
4, 21600, Note_on_c, 0, 57, 68
4, 21629, Note_on_c, 0, 57, 0
4, 21629, Note_on_c, 0, 69, 0
4, 21629, Note_on_c, 0, 64, 0
4, 21720, Note_on_c, 0, 64, 125
4, 21720, Note_on_c, 0, 57, 114
4, 21720, Note_on_c, 0, 69, 98
4, 21749, Note_on_c, 0, 69, 0
4, 21749, Note_on_c, 0, 57, 0
4, 21749, Note_on_c, 0, 64, 0
4, 21870, Note_on_c, 0, 57, 122
4, 21870, Note_on_c, 0, 64, 120
4, 21900, Note_on_c, 0, 69, 100
4, 21929, Note_on_c, 0, 69, 0
4, 21930, Note_on_c, 0, 64, 0
4, 21930, Note_on_c, 0, 57, 0
4, 21990, Note_on_c, 0, 69, 106
4, 21990, Note_on_c, 0, 64, 125
4, 21990, Note_on_c, 0, 57, 97
4, 22019, Note_on_c, 0, 57, 0
4, 22019, Note_on_c, 0, 64, 0
4, 22019, Note_on_c, 0, 69, 0
4, 22159, Control_c, 0, 64, 0
4, 22200, Note_on_c, 0, 55, 127
4, 22200, Note_on_c, 0, 43, 125
4, 22200, Note_on_c, 0, 50, 120
4, 22224, Control_c, 0, 64, 127
4, 22470, Note_on_c, 0, 50, 0
4, 22470, Note_on_c, 0, 43, 0
4, 22470, Note_on_c, 0, 55, 0
4, 22500, Note_on_c, 0, 55, 106
4, 22500, Note_on_c, 0, 43, 83
4, 22529, Note_on_c, 0, 43, 0
4, 22529, Note_on_c, 0, 55, 0
4, 22530, Note_on_c, 0, 50, 42
4, 22530, Note_on_c, 0, 55, 106
4, 22559, Note_on_c, 0, 50, 0
4, 22560, Note_on_c, 0, 43, 97
4, 22560, Note_on_c, 0, 50, 106
4, 22589, Note_on_c, 0, 50, 0
4, 22589, Note_on_c, 0, 43, 0
4, 22590, Note_on_c, 0, 55, 0
4, 22602, Control_c, 0, 64, 0
4, 22620, Note_on_c, 0, 57, 112
4, 22620, Note_on_c, 0, 62, 112
4, 22620, Note_on_c, 0, 50, 125
4, 22635, Control_c, 0, 64, 127
4, 22920, Note_on_c, 0, 62, 0
4, 22920, Note_on_c, 0, 57, 0
4, 22950, Note_on_c, 0, 50, 0
4, 22950, Note_on_c, 0, 62, 103
4, 22950, Note_on_c, 0, 57, 100
4, 22979, Note_on_c, 0, 57, 0
4, 22979, Note_on_c, 0, 62, 0
4, 23010, Note_on_c, 0, 50, 89
4, 23010, Note_on_c, 0, 62, 110
4, 23010, Note_on_c, 0, 57, 110
4, 23039, Note_on_c, 0, 57, 0
4, 23039, Note_on_c, 0, 62, 0
4, 23039, Note_on_c, 0, 50, 0
4, 23125, Control_c, 0, 64, 0
4, 23130, Note_on_c, 0, 57, 114
4, 23160, Note_on_c, 0, 64, 122
4, 23160, Note_on_c, 0, 69, 102
4, 23196, Control_c, 0, 64, 127
4, 23250, Note_on_c, 0, 69, 0
4, 23250, Note_on_c, 0, 64, 0
4, 23250, Note_on_c, 0, 57, 0
4, 23280, Note_on_c, 0, 64, 122
4, 23280, Note_on_c, 0, 69, 102
4, 23280, Note_on_c, 0, 57, 106
4, 23309, Note_on_c, 0, 64, 0
4, 23340, Note_on_c, 0, 57, 0
4, 23340, Note_on_c, 0, 69, 0
4, 23370, Note_on_c, 0, 69, 58
4, 23370, Note_on_c, 0, 57, 44
4, 23399, Note_on_c, 0, 57, 0
4, 23399, Note_on_c, 0, 69, 0
4, 23430, Note_on_c, 0, 64, 125
4, 23430, Note_on_c, 0, 69, 100
4, 23430, Note_on_c, 0, 57, 114
4, 23490, Note_on_c, 0, 64, 0
4, 23520, Note_on_c, 0, 57, 0
4, 23520, Note_on_c, 0, 69, 0
4, 23550, Note_on_c, 0, 57, 47
4, 23579, Note_on_c, 0, 57, 0
4, 23640, Note_on_c, 0, 69, 97
4, 23640, Note_on_c, 0, 64, 120
4, 23640, Note_on_c, 0, 57, 120
4, 23669, Note_on_c, 0, 64, 0
4, 23669, Note_on_c, 0, 69, 0
4, 23700, Note_on_c, 0, 57, 0
4, 23730, Note_on_c, 0, 64, 42
4, 23759, Note_on_c, 0, 64, 0
4, 23790, Note_on_c, 0, 64, 112
4, 23790, Note_on_c, 0, 69, 94
4, 23790, Note_on_c, 0, 57, 100
4, 23819, Note_on_c, 0, 64, 0
4, 23850, Note_on_c, 0, 57, 0
4, 23850, Note_on_c, 0, 69, 0
4, 23910, Note_on_c, 0, 69, 106
4, 23910, Note_on_c, 0, 64, 127
4, 23910, Note_on_c, 0, 57, 114
4, 23939, Note_on_c, 0, 57, 0
4, 23939, Note_on_c, 0, 64, 0
4, 23939, Note_on_c, 0, 69, 0
4, 24054, Control_c, 0, 64, 0
4, 24090, Note_on_c, 0, 55, 125
4, 24090, Note_on_c, 0, 50, 127
4, 24090, Note_on_c, 0, 43, 110
4, 24128, Control_c, 0, 64, 127
4, 24390, Note_on_c, 0, 55, 0
4, 24420, Note_on_c, 0, 43, 0
4, 24420, Note_on_c, 0, 50, 0
4, 24420, Note_on_c, 0, 55, 114
4, 24449, Note_on_c, 0, 55, 0
4, 24450, Note_on_c, 0, 50, 58
4, 24450, Note_on_c, 0, 43, 95
4, 24479, Note_on_c, 0, 50, 0
4, 24480, Note_on_c, 0, 55, 125
4, 24480, Note_on_c, 0, 50, 100
4, 24509, Note_on_c, 0, 50, 0
4, 24509, Note_on_c, 0, 55, 0
4, 24510, Note_on_c, 0, 43, 0
4, 24535, Control_c, 0, 64, 0
4, 24540, Note_on_c, 0, 57, 112
4, 24540, Note_on_c, 0, 62, 120
4, 24540, Note_on_c, 0, 50, 125
4, 24588, Control_c, 0, 64, 127
4, 24810, Note_on_c, 0, 62, 0
4, 24810, Note_on_c, 0, 57, 0
4, 24840, Note_on_c, 0, 57, 77
4, 24840, Note_on_c, 0, 62, 86
4, 24869, Note_on_c, 0, 62, 0
4, 24869, Note_on_c, 0, 57, 0
4, 24900, Note_on_c, 0, 50, 0
4, 24900, Note_on_c, 0, 62, 112
4, 24900, Note_on_c, 0, 57, 112
4, 24900, Note_on_c, 0, 50, 125
4, 24960, Note_on_c, 0, 50, 0
4, 24960, Note_on_c, 0, 57, 0
4, 24960, Note_on_c, 0, 62, 0
4, 25026, Control_c, 0, 64, 0
4, 25080, Note_on_c, 0, 57, 125
4, 25080, Note_on_c, 0, 69, 118
4, 25080, Note_on_c, 0, 64, 127
4, 25096, Control_c, 0, 64, 127
4, 25140, Note_on_c, 0, 64, 0
4, 25140, Note_on_c, 0, 69, 0
4, 25170, Note_on_c, 0, 57, 0
4, 25200, Note_on_c, 0, 64, 112
4, 25200, Note_on_c, 0, 69, 102
4, 25200, Note_on_c, 0, 57, 98
4, 25229, Note_on_c, 0, 69, 0
4, 25229, Note_on_c, 0, 64, 0
4, 25260, Note_on_c, 0, 57, 0
4, 25290, Note_on_c, 0, 69, 47
4, 25290, Note_on_c, 0, 64, 61
4, 25319, Note_on_c, 0, 64, 0
4, 25319, Note_on_c, 0, 69, 0
4, 25380, Note_on_c, 0, 64, 114
4, 25380, Note_on_c, 0, 69, 102
4, 25380, Note_on_c, 0, 57, 114
4, 25409, Note_on_c, 0, 69, 0
4, 25409, Note_on_c, 0, 64, 0
4, 25440, Note_on_c, 0, 57, 0
4, 25470, Note_on_c, 0, 69, 42
4, 25470, Note_on_c, 0, 57, 45
4, 25470, Note_on_c, 0, 64, 42
4, 25499, Note_on_c, 0, 64, 0
4, 25499, Note_on_c, 0, 57, 0
4, 25499, Note_on_c, 0, 69, 0
4, 25530, Note_on_c, 0, 69, 103
4, 25530, Note_on_c, 0, 64, 120
4, 25560, Note_on_c, 0, 57, 127
4, 25589, Note_on_c, 0, 57, 0
4, 25590, Note_on_c, 0, 64, 0
4, 25590, Note_on_c, 0, 69, 0
4, 25650, Note_on_c, 0, 64, 44
4, 25650, Note_on_c, 0, 69, 42
4, 25650, Note_on_c, 0, 57, 44
4, 25679, Note_on_c, 0, 57, 0
4, 25679, Note_on_c, 0, 69, 0
4, 25679, Note_on_c, 0, 64, 0
4, 25710, Note_on_c, 0, 64, 122
4, 25710, Note_on_c, 0, 57, 122
4, 25710, Note_on_c, 0, 69, 91
4, 25770, Note_on_c, 0, 69, 0
4, 25770, Note_on_c, 0, 57, 0
4, 25770, Note_on_c, 0, 64, 0
4, 25830, Note_on_c, 0, 64, 125
4, 25830, Note_on_c, 0, 69, 102
4, 25830, Note_on_c, 0, 57, 106
4, 25859, Note_on_c, 0, 64, 0
4, 25890, Note_on_c, 0, 57, 0
4, 25890, Note_on_c, 0, 69, 0
4, 25920, Note_on_c, 0, 57, 89
4, 25949, Note_on_c, 0, 57, 0
4, 25992, Control_c, 0, 64, 0
4, 26040, Note_on_c, 0, 64, 127
4, 26040, Note_on_c, 0, 60, 120
4, 26040, Note_on_c, 0, 55, 125
4, 26040, Note_on_c, 0, 48, 127
4, 26061, Control_c, 0, 64, 127
4, 26100, Note_on_c, 0, 48, 0
4, 26100, Note_on_c, 0, 64, 0
4, 26100, Note_on_c, 0, 60, 0
4, 26100, Note_on_c, 0, 55, 0
4, 26130, Note_on_c, 0, 60, 125
4, 26130, Note_on_c, 0, 64, 120
4, 26160, Note_on_c, 0, 55, 106
4, 26160, Note_on_c, 0, 48, 103
4, 26189, Note_on_c, 0, 48, 0
4, 26189, Note_on_c, 0, 55, 0
4, 26190, Note_on_c, 0, 64, 0
4, 26190, Note_on_c, 0, 60, 0
4, 26340, Note_on_c, 0, 64, 110
4, 26340, Note_on_c, 0, 60, 109
4, 26340, Note_on_c, 0, 48, 107
4, 26340, Note_on_c, 0, 55, 106
4, 26369, Note_on_c, 0, 55, 0
4, 26369, Note_on_c, 0, 64, 0
4, 26369, Note_on_c, 0, 60, 0
4, 26369, Note_on_c, 0, 48, 0
4, 26400, Note_on_c, 0, 64, 52
4, 26429, Note_on_c, 0, 64, 0
4, 26430, Note_on_c, 0, 60, 42
4, 26459, Note_on_c, 0, 60, 0
4, 26490, Note_on_c, 0, 64, 112
4, 26490, Note_on_c, 0, 60, 112
4, 26490, Note_on_c, 0, 55, 125
4, 26490, Note_on_c, 0, 48, 120
4, 26550, Note_on_c, 0, 48, 0
4, 26550, Note_on_c, 0, 64, 0
4, 26550, Note_on_c, 0, 60, 0
4, 26580, Note_on_c, 0, 55, 0
4, 26670, Note_on_c, 0, 64, 112
4, 26670, Note_on_c, 0, 60, 110
4, 26670, Note_on_c, 0, 48, 97
4, 26670, Note_on_c, 0, 55, 102
4, 26730, Note_on_c, 0, 55, 0
4, 26730, Note_on_c, 0, 64, 0
4, 26730, Note_on_c, 0, 60, 0
4, 26730, Note_on_c, 0, 48, 0
4, 26790, Note_on_c, 0, 64, 114
4, 26790, Note_on_c, 0, 60, 102
4, 26790, Note_on_c, 0, 55, 83
4, 26790, Note_on_c, 0, 48, 95
4, 26819, Note_on_c, 0, 48, 0
4, 26819, Note_on_c, 0, 64, 0
4, 26819, Note_on_c, 0, 60, 0
4, 26819, Note_on_c, 0, 55, 0
4, 26850, Note_on_c, 0, 64, 95
4, 26850, Note_on_c, 0, 60, 86
4, 26879, Note_on_c, 0, 60, 0
4, 26879, Note_on_c, 0, 64, 0
4, 26880, Note_on_c, 0, 48, 43
4, 26880, Note_on_c, 0, 55, 42
4, 26909, Note_on_c, 0, 55, 0
4, 26909, Note_on_c, 0, 48, 0
4, 27000, Note_on_c, 0, 64, 122
4, 27030, Note_on_c, 0, 60, 109
4, 27030, Note_on_c, 0, 48, 109
4, 27030, Note_on_c, 0, 55, 118
4, 27059, Note_on_c, 0, 48, 0
4, 27060, Note_on_c, 0, 64, 0
4, 27090, Note_on_c, 0, 60, 0
4, 27090, Note_on_c, 0, 55, 0
4, 27120, Note_on_c, 0, 64, 69
4, 27120, Note_on_c, 0, 48, 44
4, 27120, Note_on_c, 0, 60, 44
4, 27120, Note_on_c, 0, 55, 42
4, 27149, Note_on_c, 0, 55, 0
4, 27149, Note_on_c, 0, 64, 0
4, 27149, Note_on_c, 0, 48, 0
4, 27149, Note_on_c, 0, 60, 0
4, 27180, Note_on_c, 0, 64, 112
4, 27180, Note_on_c, 0, 60, 120
4, 27180, Note_on_c, 0, 55, 114
4, 27180, Note_on_c, 0, 48, 102
4, 27240, Note_on_c, 0, 48, 0
4, 27240, Note_on_c, 0, 64, 0
4, 27240, Note_on_c, 0, 60, 0
4, 27240, Note_on_c, 0, 55, 0
4, 27270, Note_on_c, 0, 64, 106
4, 27270, Note_on_c, 0, 60, 86
4, 27299, Note_on_c, 0, 60, 0
4, 27299, Note_on_c, 0, 64, 0
4, 27330, Note_on_c, 0, 64, 112
4, 27360, Note_on_c, 0, 60, 110
4, 27360, Note_on_c, 0, 55, 106
4, 27360, Note_on_c, 0, 48, 94
4, 27390, Note_on_c, 0, 64, 0
4, 27420, Note_on_c, 0, 60, 0
4, 27420, Note_on_c, 0, 55, 0
4, 27420, Note_on_c, 0, 48, 0
4, 27510, Note_on_c, 0, 64, 114
4, 27510, Note_on_c, 0, 60, 110
4, 27510, Note_on_c, 0, 55, 97
4, 27510, Note_on_c, 0, 48, 89
4, 27570, Note_on_c, 0, 48, 0
4, 27570, Note_on_c, 0, 64, 0
4, 27570, Note_on_c, 0, 60, 0
4, 27570, Note_on_c, 0, 55, 0
4, 27630, Note_on_c, 0, 64, 106
4, 27630, Note_on_c, 0, 60, 86
4, 27630, Note_on_c, 0, 55, 66
4, 27630, Note_on_c, 0, 48, 51
4, 27659, Note_on_c, 0, 48, 0
4, 27659, Note_on_c, 0, 64, 0
4, 27659, Note_on_c, 0, 60, 0
4, 27659, Note_on_c, 0, 55, 0
4, 27690, Note_on_c, 0, 64, 112
4, 27690, Note_on_c, 0, 60, 102
4, 27690, Note_on_c, 0, 55, 77
4, 27690, Note_on_c, 0, 48, 80
4, 27719, Note_on_c, 0, 48, 0
4, 27719, Note_on_c, 0, 64, 0
4, 27719, Note_on_c, 0, 60, 0
4, 27719, Note_on_c, 0, 55, 0
4, 27750, Note_on_c, 0, 64, 112
4, 27750, Note_on_c, 0, 60, 102
4, 27750, Note_on_c, 0, 55, 106
4, 27750, Note_on_c, 0, 48, 95
4, 27779, Note_on_c, 0, 48, 0
4, 27779, Note_on_c, 0, 64, 0
4, 27779, Note_on_c, 0, 60, 0
4, 27779, Note_on_c, 0, 55, 0
4, 27810, Note_on_c, 0, 64, 114
4, 27810, Note_on_c, 0, 60, 102
4, 27810, Note_on_c, 0, 55, 89
4, 27810, Note_on_c, 0, 48, 89
4, 27839, Note_on_c, 0, 48, 0
4, 27839, Note_on_c, 0, 64, 0
4, 27839, Note_on_c, 0, 60, 0
4, 27839, Note_on_c, 0, 55, 0
4, 27920, Control_c, 0, 64, 127
4, 27952, Control_c, 0, 64, 0
4, 27960, Note_on_c, 0, 43, 127
4, 27960, Note_on_c, 0, 59, 109
4, 27960, Note_on_c, 0, 55, 117
4, 27960, Note_on_c, 0, 50, 120
4, 27969, Control_c, 0, 64, 127
4, 28514, Control_c, 0, 64, 127
4, 28567, Control_c, 0, 64, 0
4, 28740, Note_on_c, 0, 43, 0
4, 28770, Note_on_c, 0, 59, 0
4, 28770, Note_on_c, 0, 55, 0
4, 28770, Note_on_c, 0, 50, 0
4, 35640, Note_on_c, 0, 58, 127
4, 35640, Note_on_c, 0, 53, 120
4, 35640, Note_on_c, 0, 46, 127
4, 35659, Control_c, 0, 64, 127
4, 35700, Note_on_c, 0, 46, 0
4, 35700, Note_on_c, 0, 53, 0
4, 35700, Note_on_c, 0, 58, 0
4, 35820, Note_on_c, 0, 58, 127
4, 35820, Note_on_c, 0, 53, 120
4, 35820, Note_on_c, 0, 46, 114
4, 35849, Note_on_c, 0, 46, 0
4, 35849, Note_on_c, 0, 53, 0
4, 35849, Note_on_c, 0, 58, 0
4, 36000, Note_on_c, 0, 58, 127
4, 36000, Note_on_c, 0, 53, 102
4, 36000, Note_on_c, 0, 46, 125
4, 36029, Note_on_c, 0, 53, 0
4, 36029, Note_on_c, 0, 58, 0
4, 36060, Note_on_c, 0, 46, 0
4, 36180, Note_on_c, 0, 58, 127
4, 36180, Note_on_c, 0, 53, 92
4, 36180, Note_on_c, 0, 46, 114
4, 36209, Note_on_c, 0, 46, 0
4, 36209, Note_on_c, 0, 53, 0
4, 36209, Note_on_c, 0, 58, 0
4, 36300, Note_on_c, 0, 58, 114
4, 36300, Note_on_c, 0, 53, 94
4, 36300, Note_on_c, 0, 46, 114
4, 36329, Note_on_c, 0, 46, 0
4, 36329, Note_on_c, 0, 53, 0
4, 36329, Note_on_c, 0, 58, 0
4, 36360, Note_on_c, 0, 58, 114
4, 36360, Note_on_c, 0, 53, 94
4, 36360, Note_on_c, 0, 46, 83
4, 36389, Note_on_c, 0, 53, 0
4, 36389, Note_on_c, 0, 58, 0
4, 36420, Note_on_c, 0, 58, 114
4, 36420, Note_on_c, 0, 53, 80
4, 36449, Note_on_c, 0, 53, 0
4, 36449, Note_on_c, 0, 58, 0
4, 36450, Note_on_c, 0, 46, 0
4, 36477, Control_c, 0, 64, 127
4, 36480, Note_on_c, 0, 46, 61
4, 36480, Note_on_c, 0, 58, 97
4, 36480, Note_on_c, 0, 53, 65
4, 36540, Note_on_c, 0, 46, 0
4, 36570, Note_on_c, 0, 53, 0
4, 36570, Note_on_c, 0, 58, 0
4, 36600, Note_on_c, 0, 57, 127
4, 36600, Note_on_c, 0, 52, 122
4, 36600, Note_on_c, 0, 45, 112
4, 36615, Control_c, 0, 64, 0
4, 36638, Control_c, 0, 64, 0
4, 36676, Control_c, 0, 64, 127
4, 36720, Note_on_c, 0, 45, 0
4, 36720, Note_on_c, 0, 52, 0
4, 36720, Note_on_c, 0, 57, 0
4, 36780, Note_on_c, 0, 57, 122
4, 36780, Note_on_c, 0, 52, 127
4, 36780, Note_on_c, 0, 45, 97
4, 36840, Note_on_c, 0, 45, 0
4, 36840, Note_on_c, 0, 52, 0
4, 36840, Note_on_c, 0, 57, 0
4, 36960, Note_on_c, 0, 52, 112
4, 36960, Note_on_c, 0, 57, 109
4, 36960, Note_on_c, 0, 45, 100
4, 36989, Note_on_c, 0, 45, 0
4, 36989, Note_on_c, 0, 57, 0
4, 36989, Note_on_c, 0, 52, 0
4, 37140, Note_on_c, 0, 57, 103
4, 37140, Note_on_c, 0, 52, 94
4, 37140, Note_on_c, 0, 45, 98
4, 37169, Note_on_c, 0, 45, 0
4, 37169, Note_on_c, 0, 52, 0
4, 37169, Note_on_c, 0, 57, 0
4, 37260, Note_on_c, 0, 57, 112
4, 37260, Note_on_c, 0, 45, 100
4, 37260, Note_on_c, 0, 52, 107
4, 37289, Note_on_c, 0, 52, 0
4, 37289, Note_on_c, 0, 45, 0
4, 37289, Note_on_c, 0, 57, 0
4, 37320, Note_on_c, 0, 52, 83
4, 37320, Note_on_c, 0, 57, 89
4, 37320, Note_on_c, 0, 45, 97
4, 37349, Note_on_c, 0, 57, 0
4, 37349, Note_on_c, 0, 52, 0
4, 37380, Note_on_c, 0, 45, 0
4, 37380, Note_on_c, 0, 57, 89
4, 37380, Note_on_c, 0, 52, 86
4, 37409, Note_on_c, 0, 52, 0
4, 37409, Note_on_c, 0, 57, 0
4, 37410, Note_on_c, 0, 45, 83
4, 37439, Note_on_c, 0, 45, 0
4, 37440, Note_on_c, 0, 57, 97
4, 37440, Note_on_c, 0, 52, 94
4, 37469, Note_on_c, 0, 52, 0
4, 37469, Note_on_c, 0, 57, 0
4, 37470, Note_on_c, 0, 45, 97
4, 37499, Note_on_c, 0, 45, 0
4, 37514, Control_c, 0, 64, 127
4, 37524, Control_c, 0, 64, 127
4, 37550, Control_c, 0, 64, 0
4, 37550, Control_c, 0, 64, 127
4, 37553, Note_on_c, 0, 50, 125
4, 37555, Note_on_c, 0, 55, 127
4, 37557, Note_on_c, 0, 43, 127
4, 37819, Note_on_c, 0, 55, 0
4, 37836, Note_on_c, 0, 43, 0
4, 37844, Note_on_c, 0, 50, 0
4, 37860, Note_on_c, 0, 55, 127
4, 37860, Note_on_c, 0, 50, 95
4, 37860, Note_on_c, 0, 43, 112
4, 37889, Note_on_c, 0, 43, 0
4, 37889, Note_on_c, 0, 50, 0
4, 37889, Note_on_c, 0, 55, 0
4, 37920, Note_on_c, 0, 55, 125
4, 37920, Note_on_c, 0, 43, 72
4, 37920, Note_on_c, 0, 50, 106
4, 37949, Note_on_c, 0, 50, 0
4, 37949, Note_on_c, 0, 43, 0
4, 37949, Note_on_c, 0, 55, 0
4, 37980, Note_on_c, 0, 57, 125
4, 37980, Note_on_c, 0, 62, 110
4, 37980, Note_on_c, 0, 50, 127
4, 37982, Control_c, 0, 64, 0
4, 38039, Control_c, 0, 64, 127
4, 38280, Note_on_c, 0, 62, 0
4, 38280, Note_on_c, 0, 57, 0
4, 38310, Note_on_c, 0, 62, 89
4, 38310, Note_on_c, 0, 57, 94
4, 38339, Note_on_c, 0, 57, 0
4, 38339, Note_on_c, 0, 62, 0
4, 38340, Note_on_c, 0, 50, 0
4, 38370, Note_on_c, 0, 62, 106
4, 38370, Note_on_c, 0, 57, 102
4, 38399, Note_on_c, 0, 57, 0
4, 38399, Note_on_c, 0, 62, 0
4, 38471, Control_c, 0, 64, 0
4, 38520, Note_on_c, 0, 64, 114
4, 38520, Note_on_c, 0, 57, 122
4, 38520, Note_on_c, 0, 69, 102
4, 38541, Control_c, 0, 64, 127
4, 38610, Note_on_c, 0, 69, 0
4, 38610, Note_on_c, 0, 57, 0
4, 38610, Note_on_c, 0, 64, 0
4, 38640, Note_on_c, 0, 64, 114
4, 38640, Note_on_c, 0, 69, 94
4, 38640, Note_on_c, 0, 57, 97
4, 38669, Note_on_c, 0, 64, 0
4, 38700, Note_on_c, 0, 57, 0
4, 38700, Note_on_c, 0, 69, 0
4, 38790, Note_on_c, 0, 64, 125
4, 38790, Note_on_c, 0, 69, 109
4, 38790, Note_on_c, 0, 57, 100
4, 38850, Note_on_c, 0, 57, 0
4, 38850, Note_on_c, 0, 69, 0
4, 38850, Note_on_c, 0, 64, 0
4, 38880, Note_on_c, 0, 64, 65
4, 38880, Note_on_c, 0, 69, 50
4, 38880, Note_on_c, 0, 57, 68
4, 38909, Note_on_c, 0, 57, 0
4, 38909, Note_on_c, 0, 69, 0
4, 38909, Note_on_c, 0, 64, 0
4, 39000, Note_on_c, 0, 64, 125
4, 39000, Note_on_c, 0, 57, 114
4, 39000, Note_on_c, 0, 69, 98
4, 39029, Note_on_c, 0, 69, 0
4, 39029, Note_on_c, 0, 57, 0
4, 39029, Note_on_c, 0, 64, 0
4, 39150, Note_on_c, 0, 57, 122
4, 39150, Note_on_c, 0, 64, 120
4, 39180, Note_on_c, 0, 69, 100
4, 39209, Note_on_c, 0, 69, 0
4, 39210, Note_on_c, 0, 64, 0
4, 39210, Note_on_c, 0, 57, 0
4, 39270, Note_on_c, 0, 69, 106
4, 39270, Note_on_c, 0, 64, 125
4, 39270, Note_on_c, 0, 57, 97
4, 39299, Note_on_c, 0, 57, 0
4, 39299, Note_on_c, 0, 64, 0
4, 39299, Note_on_c, 0, 69, 0
4, 39439, Control_c, 0, 64, 0
4, 39480, Note_on_c, 0, 55, 127
4, 39480, Note_on_c, 0, 43, 125
4, 39480, Note_on_c, 0, 50, 120
4, 39504, Control_c, 0, 64, 127
4, 39750, Note_on_c, 0, 50, 0
4, 39750, Note_on_c, 0, 43, 0
4, 39750, Note_on_c, 0, 55, 0
4, 39780, Note_on_c, 0, 55, 106
4, 39780, Note_on_c, 0, 43, 83
4, 39809, Note_on_c, 0, 43, 0
4, 39809, Note_on_c, 0, 55, 0
4, 39810, Note_on_c, 0, 50, 42
4, 39810, Note_on_c, 0, 55, 106
4, 39839, Note_on_c, 0, 50, 0
4, 39840, Note_on_c, 0, 43, 97
4, 39840, Note_on_c, 0, 50, 106
4, 39869, Note_on_c, 0, 50, 0
4, 39869, Note_on_c, 0, 43, 0
4, 39870, Note_on_c, 0, 55, 0
4, 39882, Control_c, 0, 64, 0
4, 39900, Note_on_c, 0, 57, 112
4, 39900, Note_on_c, 0, 62, 112
4, 39900, Note_on_c, 0, 50, 125
4, 39915, Control_c, 0, 64, 127
4, 40200, Note_on_c, 0, 62, 0
4, 40200, Note_on_c, 0, 57, 0
4, 40230, Note_on_c, 0, 50, 0
4, 40230, Note_on_c, 0, 62, 103
4, 40230, Note_on_c, 0, 57, 100
4, 40259, Note_on_c, 0, 57, 0
4, 40259, Note_on_c, 0, 62, 0
4, 40290, Note_on_c, 0, 50, 89
4, 40290, Note_on_c, 0, 62, 110
4, 40290, Note_on_c, 0, 57, 110
4, 40319, Note_on_c, 0, 57, 0
4, 40319, Note_on_c, 0, 62, 0
4, 40319, Note_on_c, 0, 50, 0
4, 40405, Control_c, 0, 64, 0
4, 40410, Note_on_c, 0, 57, 114
4, 40440, Note_on_c, 0, 64, 122
4, 40440, Note_on_c, 0, 69, 102
4, 40476, Control_c, 0, 64, 127
4, 40530, Note_on_c, 0, 69, 0
4, 40530, Note_on_c, 0, 64, 0
4, 40530, Note_on_c, 0, 57, 0
4, 40560, Note_on_c, 0, 64, 122
4, 40560, Note_on_c, 0, 69, 102
4, 40560, Note_on_c, 0, 57, 106
4, 40589, Note_on_c, 0, 64, 0
4, 40620, Note_on_c, 0, 57, 0
4, 40620, Note_on_c, 0, 69, 0
4, 40650, Note_on_c, 0, 69, 58
4, 40650, Note_on_c, 0, 57, 44
4, 40679, Note_on_c, 0, 57, 0
4, 40679, Note_on_c, 0, 69, 0
4, 40710, Note_on_c, 0, 64, 125
4, 40710, Note_on_c, 0, 69, 100
4, 40710, Note_on_c, 0, 57, 114
4, 40770, Note_on_c, 0, 64, 0
4, 40800, Note_on_c, 0, 57, 0
4, 40800, Note_on_c, 0, 69, 0
4, 40830, Note_on_c, 0, 57, 47
4, 40859, Note_on_c, 0, 57, 0
4, 40920, Note_on_c, 0, 69, 97
4, 40920, Note_on_c, 0, 64, 120
4, 40920, Note_on_c, 0, 57, 120
4, 40949, Note_on_c, 0, 64, 0
4, 40949, Note_on_c, 0, 69, 0
4, 40980, Note_on_c, 0, 57, 0
4, 41010, Note_on_c, 0, 64, 42
4, 41039, Note_on_c, 0, 64, 0
4, 41070, Note_on_c, 0, 64, 112
4, 41070, Note_on_c, 0, 69, 94
4, 41070, Note_on_c, 0, 57, 100
4, 41099, Note_on_c, 0, 64, 0
4, 41130, Note_on_c, 0, 57, 0
4, 41130, Note_on_c, 0, 69, 0
4, 41190, Note_on_c, 0, 69, 106
4, 41190, Note_on_c, 0, 64, 127
4, 41190, Note_on_c, 0, 57, 114
4, 41219, Note_on_c, 0, 57, 0
4, 41219, Note_on_c, 0, 64, 0
4, 41219, Note_on_c, 0, 69, 0
4, 41334, Control_c, 0, 64, 0
4, 41370, Note_on_c, 0, 55, 125
4, 41370, Note_on_c, 0, 50, 127
4, 41370, Note_on_c, 0, 43, 110
4, 41408, Control_c, 0, 64, 127
4, 41670, Note_on_c, 0, 55, 0
4, 41700, Note_on_c, 0, 43, 0
4, 41700, Note_on_c, 0, 50, 0
4, 41700, Note_on_c, 0, 55, 114
4, 41729, Note_on_c, 0, 55, 0
4, 41730, Note_on_c, 0, 50, 58
4, 41730, Note_on_c, 0, 43, 95
4, 41759, Note_on_c, 0, 50, 0
4, 41760, Note_on_c, 0, 55, 125
4, 41760, Note_on_c, 0, 50, 100
4, 41789, Note_on_c, 0, 50, 0
4, 41789, Note_on_c, 0, 55, 0
4, 41790, Note_on_c, 0, 43, 0
4, 41815, Control_c, 0, 64, 0
4, 41820, Note_on_c, 0, 57, 112
4, 41820, Note_on_c, 0, 62, 120
4, 41820, Note_on_c, 0, 50, 125
4, 41868, Control_c, 0, 64, 127
4, 42090, Note_on_c, 0, 62, 0
4, 42090, Note_on_c, 0, 57, 0
4, 42120, Note_on_c, 0, 57, 77
4, 42120, Note_on_c, 0, 62, 86
4, 42149, Note_on_c, 0, 62, 0
4, 42149, Note_on_c, 0, 57, 0
4, 42180, Note_on_c, 0, 50, 0
4, 42180, Note_on_c, 0, 62, 112
4, 42180, Note_on_c, 0, 57, 112
4, 42180, Note_on_c, 0, 50, 125
4, 42240, Note_on_c, 0, 50, 0
4, 42240, Note_on_c, 0, 57, 0
4, 42240, Note_on_c, 0, 62, 0
4, 42306, Control_c, 0, 64, 0
4, 42360, Note_on_c, 0, 57, 125
4, 42360, Note_on_c, 0, 69, 118
4, 42360, Note_on_c, 0, 64, 127
4, 42376, Control_c, 0, 64, 127
4, 42420, Note_on_c, 0, 64, 0
4, 42420, Note_on_c, 0, 69, 0
4, 42450, Note_on_c, 0, 57, 0
4, 42480, Note_on_c, 0, 64, 112
4, 42480, Note_on_c, 0, 69, 102
4, 42480, Note_on_c, 0, 57, 98
4, 42509, Note_on_c, 0, 69, 0
4, 42509, Note_on_c, 0, 64, 0
4, 42540, Note_on_c, 0, 57, 0
4, 42570, Note_on_c, 0, 69, 47
4, 42570, Note_on_c, 0, 64, 61
4, 42599, Note_on_c, 0, 64, 0
4, 42599, Note_on_c, 0, 69, 0
4, 42660, Note_on_c, 0, 64, 114
4, 42660, Note_on_c, 0, 69, 102
4, 42660, Note_on_c, 0, 57, 114
4, 42689, Note_on_c, 0, 69, 0
4, 42689, Note_on_c, 0, 64, 0
4, 42720, Note_on_c, 0, 57, 0
4, 42750, Note_on_c, 0, 69, 42
4, 42750, Note_on_c, 0, 57, 45
4, 42750, Note_on_c, 0, 64, 42
4, 42779, Note_on_c, 0, 64, 0
4, 42779, Note_on_c, 0, 57, 0
4, 42779, Note_on_c, 0, 69, 0
4, 42810, Note_on_c, 0, 69, 103
4, 42810, Note_on_c, 0, 64, 120
4, 42840, Note_on_c, 0, 57, 127
4, 42869, Note_on_c, 0, 57, 0
4, 42870, Note_on_c, 0, 64, 0
4, 42870, Note_on_c, 0, 69, 0
4, 42930, Note_on_c, 0, 64, 44
4, 42930, Note_on_c, 0, 69, 42
4, 42930, Note_on_c, 0, 57, 44
4, 42959, Note_on_c, 0, 57, 0
4, 42959, Note_on_c, 0, 69, 0
4, 42959, Note_on_c, 0, 64, 0
4, 42990, Note_on_c, 0, 64, 122
4, 42990, Note_on_c, 0, 57, 122
4, 42990, Note_on_c, 0, 69, 91
4, 43050, Note_on_c, 0, 69, 0
4, 43050, Note_on_c, 0, 57, 0
4, 43050, Note_on_c, 0, 64, 0
4, 43110, Note_on_c, 0, 64, 125
4, 43110, Note_on_c, 0, 69, 102
4, 43110, Note_on_c, 0, 57, 106
4, 43139, Note_on_c, 0, 64, 0
4, 43170, Note_on_c, 0, 57, 0
4, 43170, Note_on_c, 0, 69, 0
4, 43200, Note_on_c, 0, 57, 89
4, 43229, Note_on_c, 0, 57, 0
4, 43272, Control_c, 0, 64, 0
4, 43320, Control_c, 0, 64, 127
4, 43320, Note_on_c, 0, 48, 125
4, 43320, Note_on_c, 0, 55, 122
4, 43440, Note_on_c, 0, 60, 127
4, 43440, Note_on_c, 0, 64, 127
4, 43469, Note_on_c, 0, 64, 0
4, 43469, Note_on_c, 0, 60, 0
4, 43620, Note_on_c, 0, 60, 112
4, 43620, Note_on_c, 0, 64, 110
4, 43649, Note_on_c, 0, 64, 0
4, 43649, Note_on_c, 0, 60, 0
4, 43800, Note_on_c, 0, 60, 114
4, 43800, Note_on_c, 0, 64, 120
4, 43829, Note_on_c, 0, 64, 0
4, 43829, Note_on_c, 0, 60, 0
4, 43950, Note_on_c, 0, 60, 114
4, 43950, Note_on_c, 0, 64, 120
4, 44010, Note_on_c, 0, 64, 0
4, 44010, Note_on_c, 0, 60, 0
4, 44032, Note_on_c, 0, 55, 0
4, 44036, Note_on_c, 0, 48, 0
4, 44160, Note_on_c, 0, 60, 125
4, 44160, Note_on_c, 0, 64, 120
4, 44189, Note_on_c, 0, 64, 0
4, 44189, Note_on_c, 0, 60, 0
4, 44245, Control_c, 0, 64, 0
4, 44295, Control_c, 0, 64, 127
4, 44400, Note_on_c, 0, 50, 114
4, 44400, Note_on_c, 0, 55, 120
4, 44460, Note_on_c, 0, 55, 0
4, 44460, Note_on_c, 0, 50, 0
4, 44580, Note_on_c, 0, 55, 127
4, 44580, Note_on_c, 0, 50, 127
4, 44640, Note_on_c, 0, 50, 0
4, 44640, Note_on_c, 0, 55, 0
4, 44790, Note_on_c, 0, 55, 125
4, 44790, Note_on_c, 0, 50, 127
4, 44819, Note_on_c, 0, 50, 0
4, 44819, Note_on_c, 0, 55, 0
4, 44940, Note_on_c, 0, 55, 127
4, 44940, Note_on_c, 0, 50, 125
4, 45000, Note_on_c, 0, 50, 0
4, 45000, Note_on_c, 0, 55, 0
4, 45120, Note_on_c, 0, 55, 125
4, 45120, Note_on_c, 0, 50, 125
4, 45149, Note_on_c, 0, 50, 0
4, 45149, Note_on_c, 0, 55, 0
4, 45183, Control_c, 0, 64, 0
4, 45249, Note_on_c, 0, 48, 122
4, 45249, Note_on_c, 0, 55, 127
4, 45251, Control_c, 0, 64, 127
4, 45360, Note_on_c, 0, 60, 122
4, 45360, Note_on_c, 0, 64, 120
4, 45389, Note_on_c, 0, 60, 0
4, 45420, Note_on_c, 0, 64, 0
4, 45540, Note_on_c, 0, 60, 122
4, 45540, Note_on_c, 0, 64, 127
4, 45569, Note_on_c, 0, 60, 0
4, 45600, Note_on_c, 0, 64, 0
4, 45720, Note_on_c, 0, 64, 125
4, 45720, Note_on_c, 0, 60, 120
4, 45749, Note_on_c, 0, 60, 0
4, 45749, Note_on_c, 0, 64, 0
4, 45900, Note_on_c, 0, 60, 122
4, 45900, Note_on_c, 0, 64, 110
4, 45929, Note_on_c, 0, 60, 0
4, 45960, Note_on_c, 0, 64, 0
4, 46080, Note_on_c, 0, 64, 122
4, 46080, Note_on_c, 0, 60, 120
4, 46109, Note_on_c, 0, 60, 0
4, 46109, Note_on_c, 0, 64, 0
4, 46150, Control_c, 0, 64, 0
4, 46203, Note_on_c, 0, 48, 0
4, 46208, Control_c, 0, 64, 127
4, 46209, Note_on_c, 0, 55, 0
4, 46320, Note_on_c, 0, 50, 122
4, 46320, Note_on_c, 0, 55, 127
4, 46380, Note_on_c, 0, 55, 0
4, 46380, Note_on_c, 0, 50, 0
4, 46500, Note_on_c, 0, 50, 122
4, 46500, Note_on_c, 0, 55, 120
4, 46560, Note_on_c, 0, 55, 0
4, 46560, Note_on_c, 0, 50, 0
4, 46680, Note_on_c, 0, 55, 127
4, 46680, Note_on_c, 0, 50, 127
4, 46740, Note_on_c, 0, 50, 0
4, 46740, Note_on_c, 0, 55, 0
4, 46860, Note_on_c, 0, 55, 127
4, 46860, Note_on_c, 0, 50, 127
4, 46920, Note_on_c, 0, 50, 0
4, 46920, Note_on_c, 0, 55, 0
4, 47040, Note_on_c, 0, 55, 127
4, 47040, Note_on_c, 0, 50, 127
4, 47100, Note_on_c, 0, 50, 0
4, 47100, Note_on_c, 0, 55, 0
4, 47120, Control_c, 0, 64, 0
4, 47163, Note_on_c, 0, 48, 127
4, 47166, Note_on_c, 0, 55, 127
4, 47174, Control_c, 0, 64, 127
4, 47280, Note_on_c, 0, 60, 125
4, 47280, Note_on_c, 0, 64, 127
4, 47309, Note_on_c, 0, 64, 0
4, 47309, Note_on_c, 0, 60, 0
4, 47460, Note_on_c, 0, 60, 112
4, 47460, Note_on_c, 0, 64, 110
4, 47489, Note_on_c, 0, 64, 0
4, 47489, Note_on_c, 0, 60, 0
4, 47640, Note_on_c, 0, 60, 103
4, 47640, Note_on_c, 0, 64, 112
4, 47669, Note_on_c, 0, 64, 0
4, 47669, Note_on_c, 0, 60, 0
4, 47820, Note_on_c, 0, 60, 112
4, 47820, Note_on_c, 0, 64, 120
4, 47849, Note_on_c, 0, 64, 0
4, 47849, Note_on_c, 0, 60, 0
4, 48000, Note_on_c, 0, 64, 114
4, 48000, Note_on_c, 0, 60, 110
4, 48029, Note_on_c, 0, 60, 0
4, 48029, Note_on_c, 0, 64, 0
4, 48055, Control_c, 0, 64, 0
4, 48113, Note_on_c, 0, 55, 0
4, 48113, Note_on_c, 0, 48, 0
4, 48130, Control_c, 0, 64, 127
4, 48240, Note_on_c, 0, 50, 122
4, 48240, Note_on_c, 0, 55, 122
4, 48269, Note_on_c, 0, 50, 0
4, 48300, Note_on_c, 0, 55, 0
4, 48420, Note_on_c, 0, 55, 122
4, 48420, Note_on_c, 0, 50, 120
4, 48449, Note_on_c, 0, 50, 0
4, 48449, Note_on_c, 0, 55, 0
4, 48600, Note_on_c, 0, 55, 127
4, 48600, Note_on_c, 0, 50, 127
4, 48629, Note_on_c, 0, 50, 0
4, 48629, Note_on_c, 0, 55, 0
4, 48750, Note_on_c, 0, 55, 127
4, 48780, Note_on_c, 0, 50, 125
4, 48809, Note_on_c, 0, 50, 0
4, 48810, Note_on_c, 0, 55, 0
4, 48960, Note_on_c, 0, 55, 127
4, 48960, Note_on_c, 0, 50, 125
4, 48987, Control_c, 0, 64, 127
4, 48989, Note_on_c, 0, 50, 0
4, 48989, Note_on_c, 0, 55, 0
4, 49025, Control_c, 0, 64, 0
4, 49080, Control_c, 0, 64, 127
4, 49081, Note_on_c, 0, 48, 127
4, 49081, Note_on_c, 0, 53, 127
4, 49081, Note_on_c, 0, 41, 127
4, 49180, Note_on_c, 0, 53, 0
4, 49187, Note_on_c, 0, 41, 0
4, 49189, Note_on_c, 0, 48, 0
4, 49254, Note_on_c, 0, 53, 125
4, 49261, Note_on_c, 0, 48, 122
4, 49263, Note_on_c, 0, 41, 120
4, 49308, Note_on_c, 0, 53, 0
4, 49326, Note_on_c, 0, 41, 0
4, 49329, Note_on_c, 0, 48, 0
4, 49430, Note_on_c, 0, 53, 127
4, 49437, Note_on_c, 0, 41, 112
4, 49437, Note_on_c, 0, 48, 110
4, 49489, Note_on_c, 0, 53, 0
4, 49512, Note_on_c, 0, 41, 0
4, 49516, Note_on_c, 0, 48, 0
4, 49616, Note_on_c, 0, 53, 125
4, 49619, Note_on_c, 0, 41, 114
4, 49620, Note_on_c, 0, 48, 110
4, 49661, Note_on_c, 0, 53, 0
4, 49673, Note_on_c, 0, 41, 0
4, 49677, Note_on_c, 0, 48, 0
4, 49741, Note_on_c, 0, 53, 125
4, 49744, Note_on_c, 0, 48, 125
4, 49744, Note_on_c, 0, 41, 110
4, 49773, Note_on_c, 0, 41, 0
4, 49773, Note_on_c, 0, 53, 0
4, 49777, Note_on_c, 0, 48, 0
4, 49799, Note_on_c, 0, 53, 114
4, 49814, Note_on_c, 0, 41, 106
4, 49815, Note_on_c, 0, 48, 102
4, 49833, Note_on_c, 0, 53, 0
4, 49862, Note_on_c, 0, 53, 106
4, 49874, Note_on_c, 0, 48, 0
4, 49875, Note_on_c, 0, 41, 0
4, 49894, Note_on_c, 0, 53, 0
4, 49908, Note_on_c, 0, 41, 112
4, 49910, Note_on_c, 0, 48, 120
4, 49916, Note_on_c, 0, 53, 97
4, 49951, Note_on_c, 0, 53, 0
4, 49962, Note_on_c, 0, 41, 0
4, 49963, Note_on_c, 0, 48, 0
4, 49978, Note_on_c, 0, 53, 106
4, 49994, Note_on_c, 0, 48, 61
4, 49994, Note_on_c, 0, 41, 75
4, 50017, Note_on_c, 0, 53, 0
4, 50021, Note_on_c, 0, 41, 0
4, 50023, Note_on_c, 0, 48, 0
4, 50050, Note_on_c, 0, 53, 127
4, 50058, Note_on_c, 0, 48, 122
4, 50059, Note_on_c, 0, 41, 127
4, 50141, Note_on_c, 0, 41, 0
4, 50144, Note_on_c, 0, 53, 0
4, 50146, Note_on_c, 0, 48, 0
4, 50210, Note_on_c, 0, 53, 114
4, 50214, Note_on_c, 0, 48, 106
4, 50217, Note_on_c, 0, 41, 114
4, 50298, Note_on_c, 0, 53, 0
4, 50308, Note_on_c, 0, 41, 0
4, 50312, Note_on_c, 0, 48, 0
4, 50391, Note_on_c, 0, 53, 114
4, 50394, Note_on_c, 0, 48, 114
4, 50396, Note_on_c, 0, 41, 110
4, 50477, Note_on_c, 0, 53, 0
4, 50493, Note_on_c, 0, 41, 0
4, 50493, Note_on_c, 0, 48, 0
4, 50569, Note_on_c, 0, 53, 114
4, 50572, Note_on_c, 0, 41, 125
4, 50574, Note_on_c, 0, 48, 102
4, 50626, Note_on_c, 0, 53, 0
4, 50641, Note_on_c, 0, 41, 0
4, 50646, Note_on_c, 0, 48, 0
4, 50704, Note_on_c, 0, 53, 125
4, 50706, Note_on_c, 0, 48, 110
4, 50708, Note_on_c, 0, 41, 114
4, 50737, Note_on_c, 0, 53, 0
4, 50738, Note_on_c, 0, 41, 0
4, 50741, Note_on_c, 0, 48, 0
4, 50763, Note_on_c, 0, 53, 106
4, 50772, Note_on_c, 0, 41, 112
4, 50772, Note_on_c, 0, 48, 112
4, 50798, Note_on_c, 0, 53, 0
4, 50822, Note_on_c, 0, 41, 0
4, 50823, Note_on_c, 0, 48, 0
4, 50830, Note_on_c, 0, 53, 106
4, 50845, Note_on_c, 0, 48, 66
4, 50847, Note_on_c, 0, 41, 81
4, 50864, Note_on_c, 0, 53, 0
4, 50880, Note_on_c, 0, 41, 0
4, 50888, Note_on_c, 0, 53, 106
4, 50922, Note_on_c, 0, 41, 112
4, 50927, Note_on_c, 0, 53, 0
4, 50936, Note_on_c, 0, 53, 83
4, 50947, Control_c, 0, 64, 127
4, 50962, Note_on_c, 0, 41, 0
4, 50962, Note_on_c, 0, 48, 0
4, 50972, Note_on_c, 0, 53, 0
4, 50981, Control_c, 0, 64, 0
4, 51300, Note_on_c, 0, 55, 127
4, 51300, Note_on_c, 0, 50, 95
4, 51300, Note_on_c, 0, 43, 112
4, 51329, Note_on_c, 0, 43, 0
4, 51329, Note_on_c, 0, 50, 0
4, 51329, Note_on_c, 0, 55, 0
4, 51360, Note_on_c, 0, 55, 125
4, 51360, Note_on_c, 0, 43, 72
4, 51360, Note_on_c, 0, 50, 106
4, 51389, Note_on_c, 0, 50, 0
4, 51389, Note_on_c, 0, 43, 0
4, 51389, Note_on_c, 0, 55, 0
4, 51420, Note_on_c, 0, 57, 125
4, 51420, Note_on_c, 0, 62, 110
4, 51420, Note_on_c, 0, 50, 127
4, 51422, Control_c, 0, 64, 0
4, 51479, Control_c, 0, 64, 127
4, 51720, Note_on_c, 0, 62, 0
4, 51720, Note_on_c, 0, 57, 0
4, 51750, Note_on_c, 0, 62, 89
4, 51750, Note_on_c, 0, 57, 94
4, 51779, Note_on_c, 0, 57, 0
4, 51779, Note_on_c, 0, 62, 0
4, 51780, Note_on_c, 0, 50, 0
4, 51810, Note_on_c, 0, 62, 106
4, 51810, Note_on_c, 0, 57, 102
4, 51839, Note_on_c, 0, 57, 0
4, 51839, Note_on_c, 0, 62, 0
4, 51911, Control_c, 0, 64, 0
4, 51960, Note_on_c, 0, 64, 114
4, 51960, Note_on_c, 0, 57, 122
4, 51960, Note_on_c, 0, 69, 102
4, 51981, Control_c, 0, 64, 127
4, 52050, Note_on_c, 0, 69, 0
4, 52050, Note_on_c, 0, 57, 0
4, 52050, Note_on_c, 0, 64, 0
4, 52080, Note_on_c, 0, 64, 114
4, 52080, Note_on_c, 0, 69, 94
4, 52080, Note_on_c, 0, 57, 97
4, 52109, Note_on_c, 0, 64, 0
4, 52140, Note_on_c, 0, 57, 0
4, 52140, Note_on_c, 0, 69, 0
4, 52230, Note_on_c, 0, 64, 125
4, 52230, Note_on_c, 0, 69, 109
4, 52230, Note_on_c, 0, 57, 100
4, 52290, Note_on_c, 0, 57, 0
4, 52290, Note_on_c, 0, 69, 0
4, 52290, Note_on_c, 0, 64, 0
4, 52320, Note_on_c, 0, 64, 65
4, 52320, Note_on_c, 0, 69, 50
4, 52320, Note_on_c, 0, 57, 68
4, 52349, Note_on_c, 0, 57, 0
4, 52349, Note_on_c, 0, 69, 0
4, 52349, Note_on_c, 0, 64, 0
4, 52440, Note_on_c, 0, 64, 125
4, 52440, Note_on_c, 0, 57, 114
4, 52440, Note_on_c, 0, 69, 98
4, 52469, Note_on_c, 0, 69, 0
4, 52469, Note_on_c, 0, 57, 0
4, 52469, Note_on_c, 0, 64, 0
4, 52590, Note_on_c, 0, 57, 122
4, 52590, Note_on_c, 0, 64, 120
4, 52620, Note_on_c, 0, 69, 100
4, 52649, Note_on_c, 0, 69, 0
4, 52650, Note_on_c, 0, 64, 0
4, 52650, Note_on_c, 0, 57, 0
4, 52710, Note_on_c, 0, 69, 106
4, 52710, Note_on_c, 0, 64, 125
4, 52710, Note_on_c, 0, 57, 97
4, 52739, Note_on_c, 0, 57, 0
4, 52739, Note_on_c, 0, 64, 0
4, 52739, Note_on_c, 0, 69, 0
4, 52879, Control_c, 0, 64, 0
4, 52920, Note_on_c, 0, 55, 127
4, 52920, Note_on_c, 0, 43, 125
4, 52920, Note_on_c, 0, 50, 120
4, 52944, Control_c, 0, 64, 127
4, 53190, Note_on_c, 0, 50, 0
4, 53190, Note_on_c, 0, 43, 0
4, 53190, Note_on_c, 0, 55, 0
4, 53220, Note_on_c, 0, 55, 106
4, 53220, Note_on_c, 0, 43, 83
4, 53249, Note_on_c, 0, 43, 0
4, 53249, Note_on_c, 0, 55, 0
4, 53250, Note_on_c, 0, 50, 42
4, 53250, Note_on_c, 0, 55, 106
4, 53279, Note_on_c, 0, 50, 0
4, 53280, Note_on_c, 0, 43, 97
4, 53280, Note_on_c, 0, 50, 106
4, 53309, Note_on_c, 0, 50, 0
4, 53309, Note_on_c, 0, 43, 0
4, 53310, Note_on_c, 0, 55, 0
4, 53322, Control_c, 0, 64, 0
4, 53340, Note_on_c, 0, 57, 112
4, 53340, Note_on_c, 0, 62, 112
4, 53340, Note_on_c, 0, 50, 125
4, 53355, Control_c, 0, 64, 127
4, 53640, Note_on_c, 0, 62, 0
4, 53640, Note_on_c, 0, 57, 0
4, 53670, Note_on_c, 0, 50, 0
4, 53670, Note_on_c, 0, 62, 103
4, 53670, Note_on_c, 0, 57, 100
4, 53699, Note_on_c, 0, 57, 0
4, 53699, Note_on_c, 0, 62, 0
4, 53730, Note_on_c, 0, 50, 89
4, 53730, Note_on_c, 0, 62, 110
4, 53730, Note_on_c, 0, 57, 110
4, 53759, Note_on_c, 0, 57, 0
4, 53759, Note_on_c, 0, 62, 0
4, 53759, Note_on_c, 0, 50, 0
4, 53845, Control_c, 0, 64, 0
4, 53850, Note_on_c, 0, 57, 114
4, 53880, Note_on_c, 0, 64, 122
4, 53880, Note_on_c, 0, 69, 102
4, 53916, Control_c, 0, 64, 127
4, 53970, Note_on_c, 0, 69, 0
4, 53970, Note_on_c, 0, 64, 0
4, 53970, Note_on_c, 0, 57, 0
4, 54000, Note_on_c, 0, 64, 122
4, 54000, Note_on_c, 0, 69, 102
4, 54000, Note_on_c, 0, 57, 106
4, 54029, Note_on_c, 0, 64, 0
4, 54060, Note_on_c, 0, 57, 0
4, 54060, Note_on_c, 0, 69, 0
4, 54090, Note_on_c, 0, 69, 58
4, 54090, Note_on_c, 0, 57, 44
4, 54119, Note_on_c, 0, 57, 0
4, 54119, Note_on_c, 0, 69, 0
4, 54150, Note_on_c, 0, 64, 125
4, 54150, Note_on_c, 0, 69, 100
4, 54150, Note_on_c, 0, 57, 114
4, 54210, Note_on_c, 0, 64, 0
4, 54240, Note_on_c, 0, 57, 0
4, 54240, Note_on_c, 0, 69, 0
4, 54270, Note_on_c, 0, 57, 47
4, 54299, Note_on_c, 0, 57, 0
4, 54360, Note_on_c, 0, 69, 97
4, 54360, Note_on_c, 0, 64, 120
4, 54360, Note_on_c, 0, 57, 120
4, 54389, Note_on_c, 0, 64, 0
4, 54389, Note_on_c, 0, 69, 0
4, 54420, Note_on_c, 0, 57, 0
4, 54450, Note_on_c, 0, 64, 42
4, 54479, Note_on_c, 0, 64, 0
4, 54510, Note_on_c, 0, 64, 112
4, 54510, Note_on_c, 0, 69, 94
4, 54510, Note_on_c, 0, 57, 100
4, 54539, Note_on_c, 0, 64, 0
4, 54570, Note_on_c, 0, 57, 0
4, 54570, Note_on_c, 0, 69, 0
4, 54630, Note_on_c, 0, 69, 106
4, 54630, Note_on_c, 0, 64, 127
4, 54630, Note_on_c, 0, 57, 114
4, 54659, Note_on_c, 0, 57, 0
4, 54659, Note_on_c, 0, 64, 0
4, 54659, Note_on_c, 0, 69, 0
4, 54774, Control_c, 0, 64, 0
4, 54810, Note_on_c, 0, 55, 125
4, 54810, Note_on_c, 0, 50, 127
4, 54810, Note_on_c, 0, 43, 110
4, 54848, Control_c, 0, 64, 127
4, 55110, Note_on_c, 0, 55, 0
4, 55140, Note_on_c, 0, 43, 0
4, 55140, Note_on_c, 0, 50, 0
4, 55140, Note_on_c, 0, 55, 114
4, 55169, Note_on_c, 0, 55, 0
4, 55170, Note_on_c, 0, 50, 58
4, 55170, Note_on_c, 0, 43, 95
4, 55199, Note_on_c, 0, 50, 0
4, 55200, Note_on_c, 0, 55, 125
4, 55200, Note_on_c, 0, 50, 100
4, 55229, Note_on_c, 0, 50, 0
4, 55229, Note_on_c, 0, 55, 0
4, 55230, Note_on_c, 0, 43, 0
4, 55255, Control_c, 0, 64, 0
4, 55260, Note_on_c, 0, 57, 112
4, 55260, Note_on_c, 0, 62, 120
4, 55260, Note_on_c, 0, 50, 125
4, 55308, Control_c, 0, 64, 127
4, 55530, Note_on_c, 0, 62, 0
4, 55530, Note_on_c, 0, 57, 0
4, 55560, Note_on_c, 0, 57, 77
4, 55560, Note_on_c, 0, 62, 86
4, 55589, Note_on_c, 0, 62, 0
4, 55589, Note_on_c, 0, 57, 0
4, 55620, Note_on_c, 0, 50, 0
4, 55620, Note_on_c, 0, 62, 112
4, 55620, Note_on_c, 0, 57, 112
4, 55620, Note_on_c, 0, 50, 125
4, 55680, Note_on_c, 0, 50, 0
4, 55680, Note_on_c, 0, 57, 0
4, 55680, Note_on_c, 0, 62, 0
4, 55746, Control_c, 0, 64, 0
4, 55800, Note_on_c, 0, 57, 125
4, 55800, Note_on_c, 0, 69, 118
4, 55800, Note_on_c, 0, 64, 127
4, 55816, Control_c, 0, 64, 127
4, 55860, Note_on_c, 0, 64, 0
4, 55860, Note_on_c, 0, 69, 0
4, 55890, Note_on_c, 0, 57, 0
4, 55920, Note_on_c, 0, 64, 112
4, 55920, Note_on_c, 0, 69, 102
4, 55920, Note_on_c, 0, 57, 98
4, 55949, Note_on_c, 0, 69, 0
4, 55949, Note_on_c, 0, 64, 0
4, 55980, Note_on_c, 0, 57, 0
4, 56010, Note_on_c, 0, 69, 47
4, 56010, Note_on_c, 0, 64, 61
4, 56039, Note_on_c, 0, 64, 0
4, 56039, Note_on_c, 0, 69, 0
4, 56100, Note_on_c, 0, 64, 114
4, 56100, Note_on_c, 0, 69, 102
4, 56100, Note_on_c, 0, 57, 114
4, 56129, Note_on_c, 0, 69, 0
4, 56129, Note_on_c, 0, 64, 0
4, 56160, Note_on_c, 0, 57, 0
4, 56190, Note_on_c, 0, 69, 42
4, 56190, Note_on_c, 0, 57, 45
4, 56190, Note_on_c, 0, 64, 42
4, 56219, Note_on_c, 0, 64, 0
4, 56219, Note_on_c, 0, 57, 0
4, 56219, Note_on_c, 0, 69, 0
4, 56250, Note_on_c, 0, 69, 103
4, 56250, Note_on_c, 0, 64, 120
4, 56280, Note_on_c, 0, 57, 127
4, 56309, Note_on_c, 0, 57, 0
4, 56310, Note_on_c, 0, 64, 0
4, 56310, Note_on_c, 0, 69, 0
4, 56370, Note_on_c, 0, 64, 44
4, 56370, Note_on_c, 0, 69, 42
4, 56370, Note_on_c, 0, 57, 44
4, 56399, Note_on_c, 0, 57, 0
4, 56399, Note_on_c, 0, 69, 0
4, 56399, Note_on_c, 0, 64, 0
4, 56430, Note_on_c, 0, 64, 122
4, 56430, Note_on_c, 0, 57, 122
4, 56430, Note_on_c, 0, 69, 91
4, 56490, Note_on_c, 0, 69, 0
4, 56490, Note_on_c, 0, 57, 0
4, 56490, Note_on_c, 0, 64, 0
4, 56550, Note_on_c, 0, 64, 125
4, 56550, Note_on_c, 0, 69, 102
4, 56550, Note_on_c, 0, 57, 106
4, 56579, Note_on_c, 0, 64, 0
4, 56610, Note_on_c, 0, 57, 0
4, 56610, Note_on_c, 0, 69, 0
4, 56640, Note_on_c, 0, 57, 89
4, 56669, Note_on_c, 0, 57, 0
4, 56712, Control_c, 0, 64, 0
4, 56760, Note_on_c, 0, 64, 127
4, 56760, Note_on_c, 0, 60, 120
4, 56760, Note_on_c, 0, 55, 125
4, 56760, Note_on_c, 0, 48, 127
4, 56781, Control_c, 0, 64, 127
4, 56820, Note_on_c, 0, 48, 0
4, 56820, Note_on_c, 0, 64, 0
4, 56820, Note_on_c, 0, 60, 0
4, 56820, Note_on_c, 0, 55, 0
4, 56850, Note_on_c, 0, 60, 125
4, 56850, Note_on_c, 0, 64, 120
4, 56880, Note_on_c, 0, 55, 106
4, 56880, Note_on_c, 0, 48, 103
4, 56909, Note_on_c, 0, 48, 0
4, 56909, Note_on_c, 0, 55, 0
4, 56910, Note_on_c, 0, 64, 0
4, 56910, Note_on_c, 0, 60, 0
4, 57060, Note_on_c, 0, 64, 110
4, 57060, Note_on_c, 0, 60, 109
4, 57060, Note_on_c, 0, 48, 107
4, 57060, Note_on_c, 0, 55, 106
4, 57089, Note_on_c, 0, 55, 0
4, 57089, Note_on_c, 0, 64, 0
4, 57089, Note_on_c, 0, 60, 0
4, 57089, Note_on_c, 0, 48, 0
4, 57120, Note_on_c, 0, 64, 52
4, 57149, Note_on_c, 0, 64, 0
4, 57150, Note_on_c, 0, 60, 42
4, 57179, Note_on_c, 0, 60, 0
4, 57210, Note_on_c, 0, 64, 112
4, 57210, Note_on_c, 0, 60, 112
4, 57210, Note_on_c, 0, 55, 125
4, 57210, Note_on_c, 0, 48, 120
4, 57270, Note_on_c, 0, 48, 0
4, 57270, Note_on_c, 0, 64, 0
4, 57270, Note_on_c, 0, 60, 0
4, 57300, Note_on_c, 0, 55, 0
4, 57390, Note_on_c, 0, 64, 112
4, 57390, Note_on_c, 0, 60, 110
4, 57390, Note_on_c, 0, 48, 97
4, 57390, Note_on_c, 0, 55, 102
4, 57450, Note_on_c, 0, 55, 0
4, 57450, Note_on_c, 0, 64, 0
4, 57450, Note_on_c, 0, 60, 0
4, 57450, Note_on_c, 0, 48, 0
4, 57510, Note_on_c, 0, 64, 114
4, 57510, Note_on_c, 0, 60, 102
4, 57510, Note_on_c, 0, 55, 83
4, 57510, Note_on_c, 0, 48, 95
4, 57539, Note_on_c, 0, 48, 0
4, 57539, Note_on_c, 0, 64, 0
4, 57539, Note_on_c, 0, 60, 0
4, 57539, Note_on_c, 0, 55, 0
4, 57570, Note_on_c, 0, 64, 95
4, 57570, Note_on_c, 0, 60, 86
4, 57599, Note_on_c, 0, 60, 0
4, 57599, Note_on_c, 0, 64, 0
4, 57600, Note_on_c, 0, 48, 43
4, 57600, Note_on_c, 0, 55, 42
4, 57629, Note_on_c, 0, 55, 0
4, 57629, Note_on_c, 0, 48, 0
4, 57720, Note_on_c, 0, 64, 122
4, 57750, Note_on_c, 0, 60, 109
4, 57750, Note_on_c, 0, 48, 109
4, 57750, Note_on_c, 0, 55, 118
4, 57779, Note_on_c, 0, 48, 0
4, 57780, Note_on_c, 0, 64, 0
4, 57810, Note_on_c, 0, 60, 0
4, 57810, Note_on_c, 0, 55, 0
4, 57840, Note_on_c, 0, 64, 69
4, 57840, Note_on_c, 0, 48, 44
4, 57840, Note_on_c, 0, 60, 44
4, 57840, Note_on_c, 0, 55, 42
4, 57869, Note_on_c, 0, 55, 0
4, 57869, Note_on_c, 0, 64, 0
4, 57869, Note_on_c, 0, 48, 0
4, 57869, Note_on_c, 0, 60, 0
4, 57900, Note_on_c, 0, 64, 112
4, 57900, Note_on_c, 0, 60, 120
4, 57900, Note_on_c, 0, 55, 114
4, 57900, Note_on_c, 0, 48, 102
4, 57960, Note_on_c, 0, 48, 0
4, 57960, Note_on_c, 0, 64, 0
4, 57960, Note_on_c, 0, 60, 0
4, 57960, Note_on_c, 0, 55, 0
4, 57990, Note_on_c, 0, 64, 106
4, 57990, Note_on_c, 0, 60, 86
4, 58019, Note_on_c, 0, 60, 0
4, 58019, Note_on_c, 0, 64, 0
4, 58050, Note_on_c, 0, 64, 112
4, 58080, Note_on_c, 0, 60, 110
4, 58080, Note_on_c, 0, 55, 106
4, 58080, Note_on_c, 0, 48, 94
4, 58110, Note_on_c, 0, 64, 0
4, 58140, Note_on_c, 0, 60, 0
4, 58140, Note_on_c, 0, 55, 0
4, 58140, Note_on_c, 0, 48, 0
4, 58230, Note_on_c, 0, 64, 114
4, 58230, Note_on_c, 0, 60, 110
4, 58230, Note_on_c, 0, 55, 97
4, 58230, Note_on_c, 0, 48, 89
4, 58290, Note_on_c, 0, 48, 0
4, 58290, Note_on_c, 0, 64, 0
4, 58290, Note_on_c, 0, 60, 0
4, 58290, Note_on_c, 0, 55, 0
4, 58350, Note_on_c, 0, 64, 106
4, 58350, Note_on_c, 0, 60, 86
4, 58350, Note_on_c, 0, 55, 66
4, 58350, Note_on_c, 0, 48, 51
4, 58379, Note_on_c, 0, 48, 0
4, 58379, Note_on_c, 0, 64, 0
4, 58379, Note_on_c, 0, 60, 0
4, 58379, Note_on_c, 0, 55, 0
4, 58410, Note_on_c, 0, 64, 112
4, 58410, Note_on_c, 0, 60, 102
4, 58410, Note_on_c, 0, 55, 77
4, 58410, Note_on_c, 0, 48, 80
4, 58439, Note_on_c, 0, 48, 0
4, 58439, Note_on_c, 0, 64, 0
4, 58439, Note_on_c, 0, 60, 0
4, 58439, Note_on_c, 0, 55, 0
4, 58470, Note_on_c, 0, 64, 112
4, 58470, Note_on_c, 0, 60, 102
4, 58470, Note_on_c, 0, 55, 106
4, 58470, Note_on_c, 0, 48, 95
4, 58499, Note_on_c, 0, 48, 0
4, 58499, Note_on_c, 0, 64, 0
4, 58499, Note_on_c, 0, 60, 0
4, 58499, Note_on_c, 0, 55, 0
4, 58530, Note_on_c, 0, 64, 114
4, 58530, Note_on_c, 0, 60, 102
4, 58530, Note_on_c, 0, 55, 89
4, 58530, Note_on_c, 0, 48, 89
4, 58559, Note_on_c, 0, 48, 0
4, 58559, Note_on_c, 0, 64, 0
4, 58559, Note_on_c, 0, 60, 0
4, 58559, Note_on_c, 0, 55, 0
4, 58640, Control_c, 0, 64, 127
4, 58672, Control_c, 0, 64, 0
4, 58680, Note_on_c, 0, 43, 127
4, 58680, Note_on_c, 0, 59, 109
4, 58680, Note_on_c, 0, 55, 117
4, 58680, Note_on_c, 0, 50, 120
4, 58689, Control_c, 0, 64, 127
4, 59234, Control_c, 0, 64, 127
4, 59287, Control_c, 0, 64, 0
4, 59460, Note_on_c, 0, 43, 0
4, 59490, Note_on_c, 0, 59, 0
4, 59490, Note_on_c, 0, 55, 0
4, 59490, Note_on_c, 0, 50, 0
4, 62520, Note_on_c, 0, 58, 127
4, 62520, Note_on_c, 0, 53, 120
4, 62520, Note_on_c, 0, 46, 127
4, 62539, Control_c, 0, 64, 127
4, 62580, Note_on_c, 0, 46, 0
4, 62580, Note_on_c, 0, 53, 0
4, 62580, Note_on_c, 0, 58, 0
4, 62700, Note_on_c, 0, 58, 127
4, 62700, Note_on_c, 0, 53, 120
4, 62700, Note_on_c, 0, 46, 114
4, 62729, Note_on_c, 0, 46, 0
4, 62729, Note_on_c, 0, 53, 0
4, 62729, Note_on_c, 0, 58, 0
4, 62880, Note_on_c, 0, 58, 127
4, 62880, Note_on_c, 0, 53, 102
4, 62880, Note_on_c, 0, 46, 125
4, 62909, Note_on_c, 0, 53, 0
4, 62909, Note_on_c, 0, 58, 0
4, 62940, Note_on_c, 0, 46, 0
4, 63060, Note_on_c, 0, 58, 127
4, 63060, Note_on_c, 0, 53, 92
4, 63060, Note_on_c, 0, 46, 114
4, 63089, Note_on_c, 0, 46, 0
4, 63089, Note_on_c, 0, 53, 0
4, 63089, Note_on_c, 0, 58, 0
4, 63180, Note_on_c, 0, 58, 114
4, 63180, Note_on_c, 0, 53, 94
4, 63180, Note_on_c, 0, 46, 114
4, 63209, Note_on_c, 0, 46, 0
4, 63209, Note_on_c, 0, 53, 0
4, 63209, Note_on_c, 0, 58, 0
4, 63240, Note_on_c, 0, 58, 114
4, 63240, Note_on_c, 0, 53, 94
4, 63240, Note_on_c, 0, 46, 83
4, 63269, Note_on_c, 0, 53, 0
4, 63269, Note_on_c, 0, 58, 0
4, 63300, Note_on_c, 0, 58, 114
4, 63300, Note_on_c, 0, 53, 80
4, 63329, Note_on_c, 0, 53, 0
4, 63329, Note_on_c, 0, 58, 0
4, 63330, Note_on_c, 0, 46, 0
4, 63357, Control_c, 0, 64, 127
4, 63360, Note_on_c, 0, 46, 61
4, 63360, Note_on_c, 0, 58, 97
4, 63360, Note_on_c, 0, 53, 65
4, 63420, Note_on_c, 0, 46, 0
4, 63450, Note_on_c, 0, 53, 0
4, 63450, Note_on_c, 0, 58, 0
4, 63480, Note_on_c, 0, 57, 127
4, 63480, Note_on_c, 0, 52, 122
4, 63480, Note_on_c, 0, 45, 112
4, 63495, Control_c, 0, 64, 0
4, 63518, Control_c, 0, 64, 0
4, 63556, Control_c, 0, 64, 127
4, 63600, Note_on_c, 0, 45, 0
4, 63600, Note_on_c, 0, 52, 0
4, 63600, Note_on_c, 0, 57, 0
4, 63660, Note_on_c, 0, 57, 122
4, 63660, Note_on_c, 0, 52, 127
4, 63660, Note_on_c, 0, 45, 97
4, 63720, Note_on_c, 0, 45, 0
4, 63720, Note_on_c, 0, 52, 0
4, 63720, Note_on_c, 0, 57, 0
4, 63840, Note_on_c, 0, 52, 112
4, 63840, Note_on_c, 0, 57, 109
4, 63840, Note_on_c, 0, 45, 100
4, 63869, Note_on_c, 0, 45, 0
4, 63869, Note_on_c, 0, 57, 0
4, 63869, Note_on_c, 0, 52, 0
4, 64020, Note_on_c, 0, 57, 103
4, 64020, Note_on_c, 0, 52, 94
4, 64020, Note_on_c, 0, 45, 98
4, 64049, Note_on_c, 0, 45, 0
4, 64049, Note_on_c, 0, 52, 0
4, 64049, Note_on_c, 0, 57, 0
4, 64140, Note_on_c, 0, 57, 112
4, 64140, Note_on_c, 0, 45, 100
4, 64140, Note_on_c, 0, 52, 107
4, 64169, Note_on_c, 0, 52, 0
4, 64169, Note_on_c, 0, 45, 0
4, 64169, Note_on_c, 0, 57, 0
4, 64200, Note_on_c, 0, 52, 83
4, 64200, Note_on_c, 0, 57, 89
4, 64200, Note_on_c, 0, 45, 97
4, 64229, Note_on_c, 0, 57, 0
4, 64229, Note_on_c, 0, 52, 0
4, 64260, Note_on_c, 0, 45, 0
4, 64260, Note_on_c, 0, 57, 89
4, 64260, Note_on_c, 0, 52, 86
4, 64289, Note_on_c, 0, 52, 0
4, 64289, Note_on_c, 0, 57, 0
4, 64290, Note_on_c, 0, 45, 83
4, 64319, Note_on_c, 0, 45, 0
4, 64320, Note_on_c, 0, 57, 97
4, 64320, Note_on_c, 0, 52, 94
4, 64349, Note_on_c, 0, 52, 0
4, 64349, Note_on_c, 0, 57, 0
4, 64350, Note_on_c, 0, 45, 97
4, 64379, Note_on_c, 0, 45, 0
4, 64394, Control_c, 0, 64, 127
4, 64404, Control_c, 0, 64, 127
4, 64430, Control_c, 0, 64, 0
4, 64430, Control_c, 0, 64, 127
4, 64433, Note_on_c, 0, 50, 125
4, 64435, Note_on_c, 0, 55, 127
4, 64437, Note_on_c, 0, 43, 127
4, 64699, Note_on_c, 0, 55, 0
4, 64716, Note_on_c, 0, 43, 0
4, 64724, Note_on_c, 0, 50, 0
4, 64740, Note_on_c, 0, 55, 127
4, 64740, Note_on_c, 0, 50, 95
4, 64740, Note_on_c, 0, 43, 112
4, 64769, Note_on_c, 0, 43, 0
4, 64769, Note_on_c, 0, 50, 0
4, 64769, Note_on_c, 0, 55, 0
4, 64800, Note_on_c, 0, 55, 125
4, 64800, Note_on_c, 0, 43, 72
4, 64800, Note_on_c, 0, 50, 106
4, 64829, Note_on_c, 0, 50, 0
4, 64829, Note_on_c, 0, 43, 0
4, 64829, Note_on_c, 0, 55, 0
4, 64860, Note_on_c, 0, 57, 125
4, 64860, Note_on_c, 0, 62, 110
4, 64860, Note_on_c, 0, 50, 127
4, 64862, Control_c, 0, 64, 0
4, 64919, Control_c, 0, 64, 127
4, 65160, Note_on_c, 0, 62, 0
4, 65160, Note_on_c, 0, 57, 0
4, 65190, Note_on_c, 0, 62, 89
4, 65190, Note_on_c, 0, 57, 94
4, 65219, Note_on_c, 0, 57, 0
4, 65219, Note_on_c, 0, 62, 0
4, 65220, Note_on_c, 0, 50, 0
4, 65250, Note_on_c, 0, 62, 106
4, 65250, Note_on_c, 0, 57, 102
4, 65279, Note_on_c, 0, 57, 0
4, 65279, Note_on_c, 0, 62, 0
4, 65351, Control_c, 0, 64, 0
4, 65400, Note_on_c, 0, 64, 114
4, 65400, Note_on_c, 0, 57, 122
4, 65400, Note_on_c, 0, 69, 102
4, 65421, Control_c, 0, 64, 127
4, 65490, Note_on_c, 0, 69, 0
4, 65490, Note_on_c, 0, 57, 0
4, 65490, Note_on_c, 0, 64, 0
4, 65520, Note_on_c, 0, 64, 114
4, 65520, Note_on_c, 0, 69, 94
4, 65520, Note_on_c, 0, 57, 97
4, 65549, Note_on_c, 0, 64, 0
4, 65580, Note_on_c, 0, 57, 0
4, 65580, Note_on_c, 0, 69, 0
4, 65670, Note_on_c, 0, 64, 125
4, 65670, Note_on_c, 0, 69, 109
4, 65670, Note_on_c, 0, 57, 100
4, 65730, Note_on_c, 0, 57, 0
4, 65730, Note_on_c, 0, 69, 0
4, 65730, Note_on_c, 0, 64, 0
4, 65760, Note_on_c, 0, 64, 65
4, 65760, Note_on_c, 0, 69, 50
4, 65760, Note_on_c, 0, 57, 68
4, 65789, Note_on_c, 0, 57, 0
4, 65789, Note_on_c, 0, 69, 0
4, 65789, Note_on_c, 0, 64, 0
4, 65880, Note_on_c, 0, 64, 125
4, 65880, Note_on_c, 0, 57, 114
4, 65880, Note_on_c, 0, 69, 98
4, 65909, Note_on_c, 0, 69, 0
4, 65909, Note_on_c, 0, 57, 0
4, 65909, Note_on_c, 0, 64, 0
4, 66030, Note_on_c, 0, 57, 122
4, 66030, Note_on_c, 0, 64, 120
4, 66060, Note_on_c, 0, 69, 100
4, 66089, Note_on_c, 0, 69, 0
4, 66090, Note_on_c, 0, 64, 0
4, 66090, Note_on_c, 0, 57, 0
4, 66150, Note_on_c, 0, 69, 106
4, 66150, Note_on_c, 0, 64, 125
4, 66150, Note_on_c, 0, 57, 97
4, 66179, Note_on_c, 0, 57, 0
4, 66179, Note_on_c, 0, 64, 0
4, 66179, Note_on_c, 0, 69, 0
4, 66319, Control_c, 0, 64, 0
4, 66360, Note_on_c, 0, 55, 127
4, 66360, Note_on_c, 0, 43, 125
4, 66360, Note_on_c, 0, 50, 120
4, 66384, Control_c, 0, 64, 127
4, 66630, Note_on_c, 0, 50, 0
4, 66630, Note_on_c, 0, 43, 0
4, 66630, Note_on_c, 0, 55, 0
4, 66660, Note_on_c, 0, 55, 106
4, 66660, Note_on_c, 0, 43, 83
4, 66689, Note_on_c, 0, 43, 0
4, 66689, Note_on_c, 0, 55, 0
4, 66690, Note_on_c, 0, 50, 42
4, 66690, Note_on_c, 0, 55, 106
4, 66719, Note_on_c, 0, 50, 0
4, 66720, Note_on_c, 0, 43, 97
4, 66720, Note_on_c, 0, 50, 106
4, 66749, Note_on_c, 0, 50, 0
4, 66749, Note_on_c, 0, 43, 0
4, 66750, Note_on_c, 0, 55, 0
4, 66762, Control_c, 0, 64, 0
4, 66780, Note_on_c, 0, 57, 112
4, 66780, Note_on_c, 0, 62, 112
4, 66780, Note_on_c, 0, 50, 125
4, 66795, Control_c, 0, 64, 127
4, 67080, Note_on_c, 0, 62, 0
4, 67080, Note_on_c, 0, 57, 0
4, 67110, Note_on_c, 0, 50, 0
4, 67110, Note_on_c, 0, 62, 103
4, 67110, Note_on_c, 0, 57, 100
4, 67139, Note_on_c, 0, 57, 0
4, 67139, Note_on_c, 0, 62, 0
4, 67170, Note_on_c, 0, 50, 89
4, 67170, Note_on_c, 0, 62, 110
4, 67170, Note_on_c, 0, 57, 110
4, 67199, Note_on_c, 0, 57, 0
4, 67199, Note_on_c, 0, 62, 0
4, 67199, Note_on_c, 0, 50, 0
4, 67285, Control_c, 0, 64, 0
4, 67290, Note_on_c, 0, 57, 114
4, 67320, Note_on_c, 0, 64, 122
4, 67320, Note_on_c, 0, 69, 102
4, 67356, Control_c, 0, 64, 127
4, 67410, Note_on_c, 0, 69, 0
4, 67410, Note_on_c, 0, 64, 0
4, 67410, Note_on_c, 0, 57, 0
4, 67440, Note_on_c, 0, 64, 122
4, 67440, Note_on_c, 0, 69, 102
4, 67440, Note_on_c, 0, 57, 106
4, 67469, Note_on_c, 0, 64, 0
4, 67500, Note_on_c, 0, 57, 0
4, 67500, Note_on_c, 0, 69, 0
4, 67530, Note_on_c, 0, 69, 58
4, 67530, Note_on_c, 0, 57, 44
4, 67559, Note_on_c, 0, 57, 0
4, 67559, Note_on_c, 0, 69, 0
4, 67590, Note_on_c, 0, 64, 125
4, 67590, Note_on_c, 0, 69, 100
4, 67590, Note_on_c, 0, 57, 114
4, 67650, Note_on_c, 0, 64, 0
4, 67680, Note_on_c, 0, 57, 0
4, 67680, Note_on_c, 0, 69, 0
4, 67710, Note_on_c, 0, 57, 47
4, 67739, Note_on_c, 0, 57, 0
4, 67800, Note_on_c, 0, 69, 97
4, 67800, Note_on_c, 0, 64, 120
4, 67800, Note_on_c, 0, 57, 120
4, 67829, Note_on_c, 0, 64, 0
4, 67829, Note_on_c, 0, 69, 0
4, 67860, Note_on_c, 0, 57, 0
4, 67890, Note_on_c, 0, 64, 42
4, 67919, Note_on_c, 0, 64, 0
4, 67950, Note_on_c, 0, 64, 112
4, 67950, Note_on_c, 0, 69, 94
4, 67950, Note_on_c, 0, 57, 100
4, 67979, Note_on_c, 0, 64, 0
4, 68010, Note_on_c, 0, 57, 0
4, 68010, Note_on_c, 0, 69, 0
4, 68070, Note_on_c, 0, 69, 106
4, 68070, Note_on_c, 0, 64, 127
4, 68070, Note_on_c, 0, 57, 114
4, 68099, Note_on_c, 0, 57, 0
4, 68099, Note_on_c, 0, 64, 0
4, 68099, Note_on_c, 0, 69, 0
4, 68214, Control_c, 0, 64, 0
4, 68250, Note_on_c, 0, 55, 125
4, 68250, Note_on_c, 0, 50, 127
4, 68250, Note_on_c, 0, 43, 110
4, 68288, Control_c, 0, 64, 127
4, 68550, Note_on_c, 0, 55, 0
4, 68580, Note_on_c, 0, 43, 0
4, 68580, Note_on_c, 0, 50, 0
4, 68580, Note_on_c, 0, 55, 114
4, 68609, Note_on_c, 0, 55, 0
4, 68610, Note_on_c, 0, 50, 58
4, 68610, Note_on_c, 0, 43, 95
4, 68639, Note_on_c, 0, 50, 0
4, 68640, Note_on_c, 0, 55, 125
4, 68640, Note_on_c, 0, 50, 100
4, 68669, Note_on_c, 0, 50, 0
4, 68669, Note_on_c, 0, 55, 0
4, 68670, Note_on_c, 0, 43, 0
4, 68695, Control_c, 0, 64, 0
4, 68700, Note_on_c, 0, 57, 112
4, 68700, Note_on_c, 0, 62, 120
4, 68700, Note_on_c, 0, 50, 125
4, 68748, Control_c, 0, 64, 127
4, 68970, Note_on_c, 0, 62, 0
4, 68970, Note_on_c, 0, 57, 0
4, 69000, Note_on_c, 0, 57, 77
4, 69000, Note_on_c, 0, 62, 86
4, 69029, Note_on_c, 0, 62, 0
4, 69029, Note_on_c, 0, 57, 0
4, 69060, Note_on_c, 0, 50, 0
4, 69060, Note_on_c, 0, 62, 112
4, 69060, Note_on_c, 0, 57, 112
4, 69060, Note_on_c, 0, 50, 125
4, 69120, Note_on_c, 0, 50, 0
4, 69120, Note_on_c, 0, 57, 0
4, 69120, Note_on_c, 0, 62, 0
4, 69186, Control_c, 0, 64, 0
4, 69240, Note_on_c, 0, 57, 125
4, 69240, Note_on_c, 0, 69, 118
4, 69240, Note_on_c, 0, 64, 127
4, 69256, Control_c, 0, 64, 127
4, 69300, Note_on_c, 0, 64, 0
4, 69300, Note_on_c, 0, 69, 0
4, 69330, Note_on_c, 0, 57, 0
4, 69360, Note_on_c, 0, 64, 112
4, 69360, Note_on_c, 0, 69, 102
4, 69360, Note_on_c, 0, 57, 98
4, 69389, Note_on_c, 0, 69, 0
4, 69389, Note_on_c, 0, 64, 0
4, 69420, Note_on_c, 0, 57, 0
4, 69450, Note_on_c, 0, 69, 47
4, 69450, Note_on_c, 0, 64, 61
4, 69479, Note_on_c, 0, 64, 0
4, 69479, Note_on_c, 0, 69, 0
4, 69540, Note_on_c, 0, 64, 114
4, 69540, Note_on_c, 0, 69, 102
4, 69540, Note_on_c, 0, 57, 114
4, 69569, Note_on_c, 0, 69, 0
4, 69569, Note_on_c, 0, 64, 0
4, 69600, Note_on_c, 0, 57, 0
4, 69630, Note_on_c, 0, 69, 42
4, 69630, Note_on_c, 0, 57, 45
4, 69630, Note_on_c, 0, 64, 42
4, 69659, Note_on_c, 0, 64, 0
4, 69659, Note_on_c, 0, 57, 0
4, 69659, Note_on_c, 0, 69, 0
4, 69690, Note_on_c, 0, 69, 103
4, 69690, Note_on_c, 0, 64, 120
4, 69720, Note_on_c, 0, 57, 127
4, 69749, Note_on_c, 0, 57, 0
4, 69750, Note_on_c, 0, 64, 0
4, 69750, Note_on_c, 0, 69, 0
4, 69810, Note_on_c, 0, 64, 44
4, 69810, Note_on_c, 0, 69, 42
4, 69810, Note_on_c, 0, 57, 44
4, 69839, Note_on_c, 0, 57, 0
4, 69839, Note_on_c, 0, 69, 0
4, 69839, Note_on_c, 0, 64, 0
4, 69870, Note_on_c, 0, 64, 122
4, 69870, Note_on_c, 0, 57, 122
4, 69870, Note_on_c, 0, 69, 91
4, 69930, Note_on_c, 0, 69, 0
4, 69930, Note_on_c, 0, 57, 0
4, 69930, Note_on_c, 0, 64, 0
4, 69990, Note_on_c, 0, 64, 125
4, 69990, Note_on_c, 0, 69, 102
4, 69990, Note_on_c, 0, 57, 106
4, 70019, Note_on_c, 0, 64, 0
4, 70050, Note_on_c, 0, 57, 0
4, 70050, Note_on_c, 0, 69, 0
4, 70080, Note_on_c, 0, 57, 89
4, 70109, Note_on_c, 0, 57, 0
4, 70152, Control_c, 0, 64, 0
4, 70200, Note_on_c, 0, 64, 127
4, 70200, Note_on_c, 0, 60, 120
4, 70200, Note_on_c, 0, 55, 125
4, 70200, Note_on_c, 0, 48, 127
4, 70221, Control_c, 0, 64, 127
4, 70260, Note_on_c, 0, 48, 0
4, 70260, Note_on_c, 0, 64, 0
4, 70260, Note_on_c, 0, 60, 0
4, 70260, Note_on_c, 0, 55, 0
4, 70290, Note_on_c, 0, 60, 125
4, 70290, Note_on_c, 0, 64, 120
4, 70320, Note_on_c, 0, 55, 106
4, 70320, Note_on_c, 0, 48, 103
4, 70349, Note_on_c, 0, 48, 0
4, 70349, Note_on_c, 0, 55, 0
4, 70350, Note_on_c, 0, 64, 0
4, 70350, Note_on_c, 0, 60, 0
4, 70500, Note_on_c, 0, 64, 110
4, 70500, Note_on_c, 0, 60, 109
4, 70500, Note_on_c, 0, 48, 107
4, 70500, Note_on_c, 0, 55, 106
4, 70529, Note_on_c, 0, 55, 0
4, 70529, Note_on_c, 0, 64, 0
4, 70529, Note_on_c, 0, 60, 0
4, 70529, Note_on_c, 0, 48, 0
4, 70560, Note_on_c, 0, 64, 52
4, 70589, Note_on_c, 0, 64, 0
4, 70590, Note_on_c, 0, 60, 42
4, 70619, Note_on_c, 0, 60, 0
4, 70650, Note_on_c, 0, 64, 112
4, 70650, Note_on_c, 0, 60, 112
4, 70650, Note_on_c, 0, 55, 125
4, 70650, Note_on_c, 0, 48, 120
4, 70710, Note_on_c, 0, 48, 0
4, 70710, Note_on_c, 0, 64, 0
4, 70710, Note_on_c, 0, 60, 0
4, 70740, Note_on_c, 0, 55, 0
4, 70830, Note_on_c, 0, 64, 112
4, 70830, Note_on_c, 0, 60, 110
4, 70830, Note_on_c, 0, 48, 97
4, 70830, Note_on_c, 0, 55, 102
4, 70890, Note_on_c, 0, 55, 0
4, 70890, Note_on_c, 0, 64, 0
4, 70890, Note_on_c, 0, 60, 0
4, 70890, Note_on_c, 0, 48, 0
4, 70950, Note_on_c, 0, 64, 114
4, 70950, Note_on_c, 0, 60, 102
4, 70950, Note_on_c, 0, 55, 83
4, 70950, Note_on_c, 0, 48, 95
4, 70979, Note_on_c, 0, 48, 0
4, 70979, Note_on_c, 0, 64, 0
4, 70979, Note_on_c, 0, 60, 0
4, 70979, Note_on_c, 0, 55, 0
4, 71010, Note_on_c, 0, 64, 95
4, 71010, Note_on_c, 0, 60, 86
4, 71039, Note_on_c, 0, 60, 0
4, 71039, Note_on_c, 0, 64, 0
4, 71040, Note_on_c, 0, 48, 43
4, 71040, Note_on_c, 0, 55, 42
4, 71069, Note_on_c, 0, 55, 0
4, 71069, Note_on_c, 0, 48, 0
4, 71160, Note_on_c, 0, 64, 122
4, 71190, Note_on_c, 0, 60, 109
4, 71190, Note_on_c, 0, 48, 109
4, 71190, Note_on_c, 0, 55, 118
4, 71219, Note_on_c, 0, 48, 0
4, 71220, Note_on_c, 0, 64, 0
4, 71250, Note_on_c, 0, 60, 0
4, 71250, Note_on_c, 0, 55, 0
4, 71280, Note_on_c, 0, 64, 69
4, 71280, Note_on_c, 0, 48, 44
4, 71280, Note_on_c, 0, 60, 44
4, 71280, Note_on_c, 0, 55, 42
4, 71309, Note_on_c, 0, 55, 0
4, 71309, Note_on_c, 0, 64, 0
4, 71309, Note_on_c, 0, 48, 0
4, 71309, Note_on_c, 0, 60, 0
4, 71340, Note_on_c, 0, 64, 112
4, 71340, Note_on_c, 0, 60, 120
4, 71340, Note_on_c, 0, 55, 114
4, 71340, Note_on_c, 0, 48, 102
4, 71400, Note_on_c, 0, 48, 0
4, 71400, Note_on_c, 0, 64, 0
4, 71400, Note_on_c, 0, 60, 0
4, 71400, Note_on_c, 0, 55, 0
4, 71430, Note_on_c, 0, 64, 106
4, 71430, Note_on_c, 0, 60, 86
4, 71459, Note_on_c, 0, 60, 0
4, 71459, Note_on_c, 0, 64, 0
4, 71490, Note_on_c, 0, 64, 112
4, 71520, Note_on_c, 0, 60, 110
4, 71520, Note_on_c, 0, 55, 106
4, 71520, Note_on_c, 0, 48, 94
4, 71550, Note_on_c, 0, 64, 0
4, 71580, Note_on_c, 0, 60, 0
4, 71580, Note_on_c, 0, 55, 0
4, 71580, Note_on_c, 0, 48, 0
4, 71670, Note_on_c, 0, 64, 114
4, 71670, Note_on_c, 0, 60, 110
4, 71670, Note_on_c, 0, 55, 97
4, 71670, Note_on_c, 0, 48, 89
4, 71730, Note_on_c, 0, 48, 0
4, 71730, Note_on_c, 0, 64, 0
4, 71730, Note_on_c, 0, 60, 0
4, 71730, Note_on_c, 0, 55, 0
4, 71790, Note_on_c, 0, 64, 106
4, 71790, Note_on_c, 0, 60, 86
4, 71790, Note_on_c, 0, 55, 66
4, 71790, Note_on_c, 0, 48, 51
4, 71819, Note_on_c, 0, 48, 0
4, 71819, Note_on_c, 0, 64, 0
4, 71819, Note_on_c, 0, 60, 0
4, 71819, Note_on_c, 0, 55, 0
4, 71850, Note_on_c, 0, 64, 112
4, 71850, Note_on_c, 0, 60, 102
4, 71850, Note_on_c, 0, 55, 77
4, 71850, Note_on_c, 0, 48, 80
4, 71879, Note_on_c, 0, 48, 0
4, 71879, Note_on_c, 0, 64, 0
4, 71879, Note_on_c, 0, 60, 0
4, 71879, Note_on_c, 0, 55, 0
4, 71910, Note_on_c, 0, 64, 112
4, 71910, Note_on_c, 0, 60, 102
4, 71910, Note_on_c, 0, 55, 106
4, 71910, Note_on_c, 0, 48, 95
4, 71939, Note_on_c, 0, 48, 0
4, 71939, Note_on_c, 0, 64, 0
4, 71939, Note_on_c, 0, 60, 0
4, 71939, Note_on_c, 0, 55, 0
4, 71970, Note_on_c, 0, 64, 114
4, 71970, Note_on_c, 0, 60, 102
4, 71970, Note_on_c, 0, 55, 89
4, 71970, Note_on_c, 0, 48, 89
4, 71999, Note_on_c, 0, 48, 0
4, 71999, Note_on_c, 0, 64, 0
4, 71999, Note_on_c, 0, 60, 0
4, 71999, Note_on_c, 0, 55, 0
4, 72080, Control_c, 0, 64, 127
4, 72112, Control_c, 0, 64, 0
4, 82020, Note_on_c, 0, 55, 127
4, 82020, Note_on_c, 0, 50, 95
4, 82020, Note_on_c, 0, 43, 112
4, 82049, Note_on_c, 0, 43, 0
4, 82049, Note_on_c, 0, 50, 0
4, 82049, Note_on_c, 0, 55, 0
4, 82080, Note_on_c, 0, 55, 125
4, 82080, Note_on_c, 0, 43, 72
4, 82080, Note_on_c, 0, 50, 106
4, 82109, Note_on_c, 0, 50, 0
4, 82109, Note_on_c, 0, 43, 0
4, 82109, Note_on_c, 0, 55, 0
4, 82140, Note_on_c, 0, 57, 125
4, 82140, Note_on_c, 0, 62, 110
4, 82140, Note_on_c, 0, 50, 127
4, 82142, Control_c, 0, 64, 0
4, 82199, Control_c, 0, 64, 127
4, 82440, Note_on_c, 0, 62, 0
4, 82440, Note_on_c, 0, 57, 0
4, 82470, Note_on_c, 0, 62, 89
4, 82470, Note_on_c, 0, 57, 94
4, 82499, Note_on_c, 0, 57, 0
4, 82499, Note_on_c, 0, 62, 0
4, 82500, Note_on_c, 0, 50, 0
4, 82530, Note_on_c, 0, 62, 106
4, 82530, Note_on_c, 0, 57, 102
4, 82559, Note_on_c, 0, 57, 0
4, 82559, Note_on_c, 0, 62, 0
4, 82631, Control_c, 0, 64, 0
4, 82680, Note_on_c, 0, 64, 114
4, 82680, Note_on_c, 0, 57, 122
4, 82680, Note_on_c, 0, 69, 102
4, 82701, Control_c, 0, 64, 127
4, 82770, Note_on_c, 0, 69, 0
4, 82770, Note_on_c, 0, 57, 0
4, 82770, Note_on_c, 0, 64, 0
4, 82800, Note_on_c, 0, 64, 114
4, 82800, Note_on_c, 0, 69, 94
4, 82800, Note_on_c, 0, 57, 97
4, 82829, Note_on_c, 0, 64, 0
4, 82860, Note_on_c, 0, 57, 0
4, 82860, Note_on_c, 0, 69, 0
4, 82950, Note_on_c, 0, 64, 125
4, 82950, Note_on_c, 0, 69, 109
4, 82950, Note_on_c, 0, 57, 100
4, 83010, Note_on_c, 0, 57, 0
4, 83010, Note_on_c, 0, 69, 0
4, 83010, Note_on_c, 0, 64, 0
4, 83040, Note_on_c, 0, 64, 65
4, 83040, Note_on_c, 0, 69, 50
4, 83040, Note_on_c, 0, 57, 68
4, 83069, Note_on_c, 0, 57, 0
4, 83069, Note_on_c, 0, 69, 0
4, 83069, Note_on_c, 0, 64, 0
4, 83160, Note_on_c, 0, 64, 125
4, 83160, Note_on_c, 0, 57, 114
4, 83160, Note_on_c, 0, 69, 98
4, 83189, Note_on_c, 0, 69, 0
4, 83189, Note_on_c, 0, 57, 0
4, 83189, Note_on_c, 0, 64, 0
4, 83310, Note_on_c, 0, 57, 122
4, 83310, Note_on_c, 0, 64, 120
4, 83340, Note_on_c, 0, 69, 100
4, 83369, Note_on_c, 0, 69, 0
4, 83370, Note_on_c, 0, 64, 0
4, 83370, Note_on_c, 0, 57, 0
4, 83430, Note_on_c, 0, 69, 106
4, 83430, Note_on_c, 0, 64, 125
4, 83430, Note_on_c, 0, 57, 97
4, 83459, Note_on_c, 0, 57, 0
4, 83459, Note_on_c, 0, 64, 0
4, 83459, Note_on_c, 0, 69, 0
4, 83599, Control_c, 0, 64, 0
4, 83640, Note_on_c, 0, 55, 127
4, 83640, Note_on_c, 0, 43, 125
4, 83640, Note_on_c, 0, 50, 120
4, 83664, Control_c, 0, 64, 127
4, 83910, Note_on_c, 0, 50, 0
4, 83910, Note_on_c, 0, 43, 0
4, 83910, Note_on_c, 0, 55, 0
4, 83940, Note_on_c, 0, 55, 106
4, 83940, Note_on_c, 0, 43, 83
4, 83969, Note_on_c, 0, 43, 0
4, 83969, Note_on_c, 0, 55, 0
4, 83970, Note_on_c, 0, 50, 42
4, 83970, Note_on_c, 0, 55, 106
4, 83999, Note_on_c, 0, 50, 0
4, 84000, Note_on_c, 0, 43, 97
4, 84000, Note_on_c, 0, 50, 106
4, 84029, Note_on_c, 0, 50, 0
4, 84029, Note_on_c, 0, 43, 0
4, 84030, Note_on_c, 0, 55, 0
4, 84042, Control_c, 0, 64, 0
4, 84060, Note_on_c, 0, 57, 112
4, 84060, Note_on_c, 0, 62, 112
4, 84060, Note_on_c, 0, 50, 125
4, 84075, Control_c, 0, 64, 127
4, 84360, Note_on_c, 0, 62, 0
4, 84360, Note_on_c, 0, 57, 0
4, 84390, Note_on_c, 0, 50, 0
4, 84390, Note_on_c, 0, 62, 103
4, 84390, Note_on_c, 0, 57, 100
4, 84419, Note_on_c, 0, 57, 0
4, 84419, Note_on_c, 0, 62, 0
4, 84450, Note_on_c, 0, 50, 89
4, 84450, Note_on_c, 0, 62, 110
4, 84450, Note_on_c, 0, 57, 110
4, 84479, Note_on_c, 0, 57, 0
4, 84479, Note_on_c, 0, 62, 0
4, 84479, Note_on_c, 0, 50, 0
4, 84565, Control_c, 0, 64, 0
4, 84570, Note_on_c, 0, 57, 114
4, 84600, Note_on_c, 0, 64, 122
4, 84600, Note_on_c, 0, 69, 102
4, 84636, Control_c, 0, 64, 127
4, 84690, Note_on_c, 0, 69, 0
4, 84690, Note_on_c, 0, 64, 0
4, 84690, Note_on_c, 0, 57, 0
4, 84720, Note_on_c, 0, 64, 122
4, 84720, Note_on_c, 0, 69, 102
4, 84720, Note_on_c, 0, 57, 106
4, 84749, Note_on_c, 0, 64, 0
4, 84780, Note_on_c, 0, 57, 0
4, 84780, Note_on_c, 0, 69, 0
4, 84810, Note_on_c, 0, 69, 58
4, 84810, Note_on_c, 0, 57, 44
4, 84839, Note_on_c, 0, 57, 0
4, 84839, Note_on_c, 0, 69, 0
4, 84870, Note_on_c, 0, 64, 125
4, 84870, Note_on_c, 0, 69, 100
4, 84870, Note_on_c, 0, 57, 114
4, 84930, Note_on_c, 0, 64, 0
4, 84960, Note_on_c, 0, 57, 0
4, 84960, Note_on_c, 0, 69, 0
4, 84990, Note_on_c, 0, 57, 47
4, 85019, Note_on_c, 0, 57, 0
4, 85080, Note_on_c, 0, 69, 97
4, 85080, Note_on_c, 0, 64, 120
4, 85080, Note_on_c, 0, 57, 120
4, 85109, Note_on_c, 0, 64, 0
4, 85109, Note_on_c, 0, 69, 0
4, 85140, Note_on_c, 0, 57, 0
4, 85170, Note_on_c, 0, 64, 42
4, 85199, Note_on_c, 0, 64, 0
4, 85230, Note_on_c, 0, 64, 112
4, 85230, Note_on_c, 0, 69, 94
4, 85230, Note_on_c, 0, 57, 100
4, 85259, Note_on_c, 0, 64, 0
4, 85290, Note_on_c, 0, 57, 0
4, 85290, Note_on_c, 0, 69, 0
4, 85350, Note_on_c, 0, 69, 106
4, 85350, Note_on_c, 0, 64, 127
4, 85350, Note_on_c, 0, 57, 114
4, 85379, Note_on_c, 0, 57, 0
4, 85379, Note_on_c, 0, 64, 0
4, 85379, Note_on_c, 0, 69, 0
4, 85494, Control_c, 0, 64, 0
4, 85530, Note_on_c, 0, 55, 125
4, 85530, Note_on_c, 0, 50, 127
4, 85530, Note_on_c, 0, 43, 110
4, 85568, Control_c, 0, 64, 127
4, 85830, Note_on_c, 0, 55, 0
4, 85860, Note_on_c, 0, 43, 0
4, 85860, Note_on_c, 0, 50, 0
4, 85860, Note_on_c, 0, 55, 114
4, 85889, Note_on_c, 0, 55, 0
4, 85890, Note_on_c, 0, 50, 58
4, 85890, Note_on_c, 0, 43, 95
4, 85919, Note_on_c, 0, 50, 0
4, 85920, Note_on_c, 0, 55, 125
4, 85920, Note_on_c, 0, 50, 100
4, 85949, Note_on_c, 0, 50, 0
4, 85949, Note_on_c, 0, 55, 0
4, 85950, Note_on_c, 0, 43, 0
4, 85975, Control_c, 0, 64, 0
4, 85980, Note_on_c, 0, 57, 112
4, 85980, Note_on_c, 0, 62, 120
4, 85980, Note_on_c, 0, 50, 125
4, 86028, Control_c, 0, 64, 127
4, 86250, Note_on_c, 0, 62, 0
4, 86250, Note_on_c, 0, 57, 0
4, 86280, Note_on_c, 0, 57, 77
4, 86280, Note_on_c, 0, 62, 86
4, 86309, Note_on_c, 0, 62, 0
4, 86309, Note_on_c, 0, 57, 0
4, 86340, Note_on_c, 0, 50, 0
4, 86340, Note_on_c, 0, 62, 112
4, 86340, Note_on_c, 0, 57, 112
4, 86340, Note_on_c, 0, 50, 125
4, 86400, Note_on_c, 0, 50, 0
4, 86400, Note_on_c, 0, 57, 0
4, 86400, Note_on_c, 0, 62, 0
4, 86466, Control_c, 0, 64, 0
4, 86520, Note_on_c, 0, 57, 125
4, 86520, Note_on_c, 0, 69, 118
4, 86520, Note_on_c, 0, 64, 127
4, 86536, Control_c, 0, 64, 127
4, 86580, Note_on_c, 0, 64, 0
4, 86580, Note_on_c, 0, 69, 0
4, 86610, Note_on_c, 0, 57, 0
4, 86640, Note_on_c, 0, 64, 112
4, 86640, Note_on_c, 0, 69, 102
4, 86640, Note_on_c, 0, 57, 98
4, 86669, Note_on_c, 0, 69, 0
4, 86669, Note_on_c, 0, 64, 0
4, 86700, Note_on_c, 0, 57, 0
4, 86730, Note_on_c, 0, 69, 47
4, 86730, Note_on_c, 0, 64, 61
4, 86759, Note_on_c, 0, 64, 0
4, 86759, Note_on_c, 0, 69, 0
4, 86820, Note_on_c, 0, 64, 114
4, 86820, Note_on_c, 0, 69, 102
4, 86820, Note_on_c, 0, 57, 114
4, 86849, Note_on_c, 0, 69, 0
4, 86849, Note_on_c, 0, 64, 0
4, 86880, Note_on_c, 0, 57, 0
4, 86910, Note_on_c, 0, 69, 42
4, 86910, Note_on_c, 0, 57, 45
4, 86910, Note_on_c, 0, 64, 42
4, 86939, Note_on_c, 0, 64, 0
4, 86939, Note_on_c, 0, 57, 0
4, 86939, Note_on_c, 0, 69, 0
4, 86970, Note_on_c, 0, 69, 103
4, 86970, Note_on_c, 0, 64, 120
4, 87000, Note_on_c, 0, 57, 127
4, 87029, Note_on_c, 0, 57, 0
4, 87030, Note_on_c, 0, 64, 0
4, 87030, Note_on_c, 0, 69, 0
4, 87090, Note_on_c, 0, 64, 44
4, 87090, Note_on_c, 0, 69, 42
4, 87090, Note_on_c, 0, 57, 44
4, 87119, Note_on_c, 0, 57, 0
4, 87119, Note_on_c, 0, 69, 0
4, 87119, Note_on_c, 0, 64, 0
4, 87150, Note_on_c, 0, 64, 122
4, 87150, Note_on_c, 0, 57, 122
4, 87150, Note_on_c, 0, 69, 91
4, 87210, Note_on_c, 0, 69, 0
4, 87210, Note_on_c, 0, 57, 0
4, 87210, Note_on_c, 0, 64, 0
4, 87270, Note_on_c, 0, 64, 125
4, 87270, Note_on_c, 0, 69, 102
4, 87270, Note_on_c, 0, 57, 106
4, 87299, Note_on_c, 0, 64, 0
4, 87330, Note_on_c, 0, 57, 0
4, 87330, Note_on_c, 0, 69, 0
4, 87360, Note_on_c, 0, 57, 89
4, 87389, Note_on_c, 0, 57, 0
4, 87432, Control_c, 0, 64, 0
4, 87480, Note_on_c, 0, 64, 127
4, 87480, Note_on_c, 0, 60, 120
4, 87480, Note_on_c, 0, 55, 125
4, 87480, Note_on_c, 0, 48, 127
4, 87501, Control_c, 0, 64, 127
4, 87540, Note_on_c, 0, 48, 0
4, 87540, Note_on_c, 0, 64, 0
4, 87540, Note_on_c, 0, 60, 0
4, 87540, Note_on_c, 0, 55, 0
4, 87570, Note_on_c, 0, 60, 125
4, 87570, Note_on_c, 0, 64, 120
4, 87600, Note_on_c, 0, 55, 106
4, 87600, Note_on_c, 0, 48, 103
4, 87629, Note_on_c, 0, 48, 0
4, 87629, Note_on_c, 0, 55, 0
4, 87630, Note_on_c, 0, 64, 0
4, 87630, Note_on_c, 0, 60, 0
4, 87780, Note_on_c, 0, 64, 110
4, 87780, Note_on_c, 0, 60, 109
4, 87780, Note_on_c, 0, 48, 107
4, 87780, Note_on_c, 0, 55, 106
4, 87809, Note_on_c, 0, 55, 0
4, 87809, Note_on_c, 0, 64, 0
4, 87809, Note_on_c, 0, 60, 0
4, 87809, Note_on_c, 0, 48, 0
4, 87840, Note_on_c, 0, 64, 52
4, 87869, Note_on_c, 0, 64, 0
4, 87870, Note_on_c, 0, 60, 42
4, 87899, Note_on_c, 0, 60, 0
4, 87930, Note_on_c, 0, 64, 112
4, 87930, Note_on_c, 0, 60, 112
4, 87930, Note_on_c, 0, 55, 125
4, 87930, Note_on_c, 0, 48, 120
4, 87990, Note_on_c, 0, 48, 0
4, 87990, Note_on_c, 0, 64, 0
4, 87990, Note_on_c, 0, 60, 0
4, 88020, Note_on_c, 0, 55, 0
4, 88110, Note_on_c, 0, 64, 112
4, 88110, Note_on_c, 0, 60, 110
4, 88110, Note_on_c, 0, 48, 97
4, 88110, Note_on_c, 0, 55, 102
4, 88170, Note_on_c, 0, 55, 0
4, 88170, Note_on_c, 0, 64, 0
4, 88170, Note_on_c, 0, 60, 0
4, 88170, Note_on_c, 0, 48, 0
4, 88230, Note_on_c, 0, 64, 114
4, 88230, Note_on_c, 0, 60, 102
4, 88230, Note_on_c, 0, 55, 83
4, 88230, Note_on_c, 0, 48, 95
4, 88259, Note_on_c, 0, 48, 0
4, 88259, Note_on_c, 0, 64, 0
4, 88259, Note_on_c, 0, 60, 0
4, 88259, Note_on_c, 0, 55, 0
4, 88290, Note_on_c, 0, 64, 95
4, 88290, Note_on_c, 0, 60, 86
4, 88319, Note_on_c, 0, 60, 0
4, 88319, Note_on_c, 0, 64, 0
4, 88320, Note_on_c, 0, 48, 43
4, 88320, Note_on_c, 0, 55, 42
4, 88349, Note_on_c, 0, 55, 0
4, 88349, Note_on_c, 0, 48, 0
4, 88440, Note_on_c, 0, 64, 122
4, 88470, Note_on_c, 0, 60, 109
4, 88470, Note_on_c, 0, 48, 109
4, 88470, Note_on_c, 0, 55, 118
4, 88499, Note_on_c, 0, 48, 0
4, 88500, Note_on_c, 0, 64, 0
4, 88530, Note_on_c, 0, 60, 0
4, 88530, Note_on_c, 0, 55, 0
4, 88560, Note_on_c, 0, 64, 69
4, 88560, Note_on_c, 0, 48, 44
4, 88560, Note_on_c, 0, 60, 44
4, 88560, Note_on_c, 0, 55, 42
4, 88589, Note_on_c, 0, 55, 0
4, 88589, Note_on_c, 0, 64, 0
4, 88589, Note_on_c, 0, 48, 0
4, 88589, Note_on_c, 0, 60, 0
4, 88620, Note_on_c, 0, 64, 112
4, 88620, Note_on_c, 0, 60, 120
4, 88620, Note_on_c, 0, 55, 114
4, 88620, Note_on_c, 0, 48, 102
4, 88680, Note_on_c, 0, 48, 0
4, 88680, Note_on_c, 0, 64, 0
4, 88680, Note_on_c, 0, 60, 0
4, 88680, Note_on_c, 0, 55, 0
4, 88710, Note_on_c, 0, 64, 106
4, 88710, Note_on_c, 0, 60, 86
4, 88739, Note_on_c, 0, 60, 0
4, 88739, Note_on_c, 0, 64, 0
4, 88770, Note_on_c, 0, 64, 112
4, 88800, Note_on_c, 0, 60, 110
4, 88800, Note_on_c, 0, 55, 106
4, 88800, Note_on_c, 0, 48, 94
4, 88830, Note_on_c, 0, 64, 0
4, 88860, Note_on_c, 0, 60, 0
4, 88860, Note_on_c, 0, 55, 0
4, 88860, Note_on_c, 0, 48, 0
4, 88950, Note_on_c, 0, 64, 114
4, 88950, Note_on_c, 0, 60, 110
4, 88950, Note_on_c, 0, 55, 97
4, 88950, Note_on_c, 0, 48, 89
4, 89010, Note_on_c, 0, 48, 0
4, 89010, Note_on_c, 0, 64, 0
4, 89010, Note_on_c, 0, 60, 0
4, 89010, Note_on_c, 0, 55, 0
4, 89070, Note_on_c, 0, 64, 106
4, 89070, Note_on_c, 0, 60, 86
4, 89070, Note_on_c, 0, 55, 66
4, 89070, Note_on_c, 0, 48, 51
4, 89099, Note_on_c, 0, 48, 0
4, 89099, Note_on_c, 0, 64, 0
4, 89099, Note_on_c, 0, 60, 0
4, 89099, Note_on_c, 0, 55, 0
4, 89130, Note_on_c, 0, 64, 112
4, 89130, Note_on_c, 0, 60, 102
4, 89130, Note_on_c, 0, 55, 77
4, 89130, Note_on_c, 0, 48, 80
4, 89159, Note_on_c, 0, 48, 0
4, 89159, Note_on_c, 0, 64, 0
4, 89159, Note_on_c, 0, 60, 0
4, 89159, Note_on_c, 0, 55, 0
4, 89190, Note_on_c, 0, 64, 112
4, 89190, Note_on_c, 0, 60, 102
4, 89190, Note_on_c, 0, 55, 106
4, 89190, Note_on_c, 0, 48, 95
4, 89219, Note_on_c, 0, 48, 0
4, 89219, Note_on_c, 0, 64, 0
4, 89219, Note_on_c, 0, 60, 0
4, 89219, Note_on_c, 0, 55, 0
4, 89250, Note_on_c, 0, 64, 114
4, 89250, Note_on_c, 0, 60, 102
4, 89250, Note_on_c, 0, 55, 89
4, 89250, Note_on_c, 0, 48, 89
4, 89279, Note_on_c, 0, 48, 0
4, 89279, Note_on_c, 0, 64, 0
4, 89279, Note_on_c, 0, 60, 0
4, 89279, Note_on_c, 0, 55, 0
4, 89360, Control_c, 0, 64, 127
4, 89392, Control_c, 0, 64, 0
4, 89700, Note_on_c, 0, 55, 127
4, 89700, Note_on_c, 0, 50, 95
4, 89700, Note_on_c, 0, 43, 112
4, 89729, Note_on_c, 0, 43, 0
4, 89729, Note_on_c, 0, 50, 0
4, 89729, Note_on_c, 0, 55, 0
4, 89760, Note_on_c, 0, 55, 125
4, 89760, Note_on_c, 0, 43, 72
4, 89760, Note_on_c, 0, 50, 106
4, 89789, Note_on_c, 0, 50, 0
4, 89789, Note_on_c, 0, 43, 0
4, 89789, Note_on_c, 0, 55, 0
4, 89820, Note_on_c, 0, 57, 125
4, 89820, Note_on_c, 0, 62, 110
4, 89820, Note_on_c, 0, 50, 127
4, 89822, Control_c, 0, 64, 0
4, 89879, Control_c, 0, 64, 127
4, 90120, Note_on_c, 0, 62, 0
4, 90120, Note_on_c, 0, 57, 0
4, 90150, Note_on_c, 0, 62, 89
4, 90150, Note_on_c, 0, 57, 94
4, 90179, Note_on_c, 0, 57, 0
4, 90179, Note_on_c, 0, 62, 0
4, 90180, Note_on_c, 0, 50, 0
4, 90210, Note_on_c, 0, 62, 106
4, 90210, Note_on_c, 0, 57, 102
4, 90239, Note_on_c, 0, 57, 0
4, 90239, Note_on_c, 0, 62, 0
4, 90311, Control_c, 0, 64, 0
4, 90360, Note_on_c, 0, 64, 114
4, 90360, Note_on_c, 0, 57, 122
4, 90360, Note_on_c, 0, 69, 102
4, 90381, Control_c, 0, 64, 127
4, 90450, Note_on_c, 0, 69, 0
4, 90450, Note_on_c, 0, 57, 0
4, 90450, Note_on_c, 0, 64, 0
4, 90480, Note_on_c, 0, 64, 114
4, 90480, Note_on_c, 0, 69, 94
4, 90480, Note_on_c, 0, 57, 97
4, 90509, Note_on_c, 0, 64, 0
4, 90540, Note_on_c, 0, 57, 0
4, 90540, Note_on_c, 0, 69, 0
4, 90630, Note_on_c, 0, 64, 125
4, 90630, Note_on_c, 0, 69, 109
4, 90630, Note_on_c, 0, 57, 100
4, 90690, Note_on_c, 0, 57, 0
4, 90690, Note_on_c, 0, 69, 0
4, 90690, Note_on_c, 0, 64, 0
4, 90720, Note_on_c, 0, 64, 65
4, 90720, Note_on_c, 0, 69, 50
4, 90720, Note_on_c, 0, 57, 68
4, 90749, Note_on_c, 0, 57, 0
4, 90749, Note_on_c, 0, 69, 0
4, 90749, Note_on_c, 0, 64, 0
4, 90840, Note_on_c, 0, 64, 125
4, 90840, Note_on_c, 0, 57, 114
4, 90840, Note_on_c, 0, 69, 98
4, 90869, Note_on_c, 0, 69, 0
4, 90869, Note_on_c, 0, 57, 0
4, 90869, Note_on_c, 0, 64, 0
4, 90990, Note_on_c, 0, 57, 122
4, 90990, Note_on_c, 0, 64, 120
4, 91020, Note_on_c, 0, 69, 100
4, 91049, Note_on_c, 0, 69, 0
4, 91050, Note_on_c, 0, 64, 0
4, 91050, Note_on_c, 0, 57, 0
4, 91110, Note_on_c, 0, 69, 106
4, 91110, Note_on_c, 0, 64, 125
4, 91110, Note_on_c, 0, 57, 97
4, 91139, Note_on_c, 0, 57, 0
4, 91139, Note_on_c, 0, 64, 0
4, 91139, Note_on_c, 0, 69, 0
4, 91279, Control_c, 0, 64, 0
4, 91320, Note_on_c, 0, 55, 127
4, 91320, Note_on_c, 0, 43, 125
4, 91320, Note_on_c, 0, 50, 120
4, 91344, Control_c, 0, 64, 127
4, 91590, Note_on_c, 0, 50, 0
4, 91590, Note_on_c, 0, 43, 0
4, 91590, Note_on_c, 0, 55, 0
4, 91620, Note_on_c, 0, 55, 106
4, 91620, Note_on_c, 0, 43, 83
4, 91649, Note_on_c, 0, 43, 0
4, 91649, Note_on_c, 0, 55, 0
4, 91650, Note_on_c, 0, 50, 42
4, 91650, Note_on_c, 0, 55, 106
4, 91679, Note_on_c, 0, 50, 0
4, 91680, Note_on_c, 0, 43, 97
4, 91680, Note_on_c, 0, 50, 106
4, 91709, Note_on_c, 0, 50, 0
4, 91709, Note_on_c, 0, 43, 0
4, 91710, Note_on_c, 0, 55, 0
4, 91722, Control_c, 0, 64, 0
4, 91740, Note_on_c, 0, 57, 112
4, 91740, Note_on_c, 0, 62, 112
4, 91740, Note_on_c, 0, 50, 125
4, 91755, Control_c, 0, 64, 127
4, 92040, Note_on_c, 0, 62, 0
4, 92040, Note_on_c, 0, 57, 0
4, 92070, Note_on_c, 0, 50, 0
4, 92070, Note_on_c, 0, 62, 103
4, 92070, Note_on_c, 0, 57, 100
4, 92099, Note_on_c, 0, 57, 0
4, 92099, Note_on_c, 0, 62, 0
4, 92130, Note_on_c, 0, 50, 89
4, 92130, Note_on_c, 0, 62, 110
4, 92130, Note_on_c, 0, 57, 110
4, 92159, Note_on_c, 0, 57, 0
4, 92159, Note_on_c, 0, 62, 0
4, 92159, Note_on_c, 0, 50, 0
4, 92245, Control_c, 0, 64, 0
4, 92250, Note_on_c, 0, 57, 114
4, 92280, Note_on_c, 0, 64, 122
4, 92280, Note_on_c, 0, 69, 102
4, 92316, Control_c, 0, 64, 127
4, 92370, Note_on_c, 0, 69, 0
4, 92370, Note_on_c, 0, 64, 0
4, 92370, Note_on_c, 0, 57, 0
4, 92400, Note_on_c, 0, 64, 122
4, 92400, Note_on_c, 0, 69, 102
4, 92400, Note_on_c, 0, 57, 106
4, 92429, Note_on_c, 0, 64, 0
4, 92460, Note_on_c, 0, 57, 0
4, 92460, Note_on_c, 0, 69, 0
4, 92490, Note_on_c, 0, 69, 58
4, 92490, Note_on_c, 0, 57, 44
4, 92519, Note_on_c, 0, 57, 0
4, 92519, Note_on_c, 0, 69, 0
4, 92550, Note_on_c, 0, 64, 125
4, 92550, Note_on_c, 0, 69, 100
4, 92550, Note_on_c, 0, 57, 114
4, 92610, Note_on_c, 0, 64, 0
4, 92640, Note_on_c, 0, 57, 0
4, 92640, Note_on_c, 0, 69, 0
4, 92670, Note_on_c, 0, 57, 47
4, 92699, Note_on_c, 0, 57, 0
4, 92760, Note_on_c, 0, 69, 97
4, 92760, Note_on_c, 0, 64, 120
4, 92760, Note_on_c, 0, 57, 120
4, 92789, Note_on_c, 0, 64, 0
4, 92789, Note_on_c, 0, 69, 0
4, 92820, Note_on_c, 0, 57, 0
4, 92850, Note_on_c, 0, 64, 42
4, 92879, Note_on_c, 0, 64, 0
4, 92910, Note_on_c, 0, 64, 112
4, 92910, Note_on_c, 0, 69, 94
4, 92910, Note_on_c, 0, 57, 100
4, 92939, Note_on_c, 0, 64, 0
4, 92970, Note_on_c, 0, 57, 0
4, 92970, Note_on_c, 0, 69, 0
4, 93030, Note_on_c, 0, 69, 106
4, 93030, Note_on_c, 0, 64, 127
4, 93030, Note_on_c, 0, 57, 114
4, 93059, Note_on_c, 0, 57, 0
4, 93059, Note_on_c, 0, 64, 0
4, 93059, Note_on_c, 0, 69, 0
4, 93174, Control_c, 0, 64, 0
4, 93210, Note_on_c, 0, 55, 125
4, 93210, Note_on_c, 0, 50, 127
4, 93210, Note_on_c, 0, 43, 110
4, 93248, Control_c, 0, 64, 127
4, 93510, Note_on_c, 0, 55, 0
4, 93540, Note_on_c, 0, 43, 0
4, 93540, Note_on_c, 0, 50, 0
4, 93540, Note_on_c, 0, 55, 114
4, 93569, Note_on_c, 0, 55, 0
4, 93570, Note_on_c, 0, 50, 58
4, 93570, Note_on_c, 0, 43, 95
4, 93599, Note_on_c, 0, 50, 0
4, 93600, Note_on_c, 0, 55, 125
4, 93600, Note_on_c, 0, 50, 100
4, 93629, Note_on_c, 0, 50, 0
4, 93629, Note_on_c, 0, 55, 0
4, 93630, Note_on_c, 0, 43, 0
4, 93655, Control_c, 0, 64, 0
4, 93660, Note_on_c, 0, 57, 112
4, 93660, Note_on_c, 0, 62, 120
4, 93660, Note_on_c, 0, 50, 125
4, 93708, Control_c, 0, 64, 127
4, 93930, Note_on_c, 0, 62, 0
4, 93930, Note_on_c, 0, 57, 0
4, 93960, Note_on_c, 0, 57, 77
4, 93960, Note_on_c, 0, 62, 86
4, 93989, Note_on_c, 0, 62, 0
4, 93989, Note_on_c, 0, 57, 0
4, 94020, Note_on_c, 0, 50, 0
4, 94020, Note_on_c, 0, 62, 112
4, 94020, Note_on_c, 0, 57, 112
4, 94020, Note_on_c, 0, 50, 125
4, 94080, Note_on_c, 0, 50, 0
4, 94080, Note_on_c, 0, 57, 0
4, 94080, Note_on_c, 0, 62, 0
4, 94146, Control_c, 0, 64, 0
4, 94200, Note_on_c, 0, 57, 125
4, 94200, Note_on_c, 0, 69, 118
4, 94200, Note_on_c, 0, 64, 127
4, 94216, Control_c, 0, 64, 127
4, 94260, Note_on_c, 0, 64, 0
4, 94260, Note_on_c, 0, 69, 0
4, 94290, Note_on_c, 0, 57, 0
4, 94320, Note_on_c, 0, 64, 112
4, 94320, Note_on_c, 0, 69, 102
4, 94320, Note_on_c, 0, 57, 98
4, 94349, Note_on_c, 0, 69, 0
4, 94349, Note_on_c, 0, 64, 0
4, 94380, Note_on_c, 0, 57, 0
4, 94410, Note_on_c, 0, 69, 47
4, 94410, Note_on_c, 0, 64, 61
4, 94439, Note_on_c, 0, 64, 0
4, 94439, Note_on_c, 0, 69, 0
4, 94500, Note_on_c, 0, 64, 114
4, 94500, Note_on_c, 0, 69, 102
4, 94500, Note_on_c, 0, 57, 114
4, 94529, Note_on_c, 0, 69, 0
4, 94529, Note_on_c, 0, 64, 0
4, 94560, Note_on_c, 0, 57, 0
4, 94590, Note_on_c, 0, 69, 42
4, 94590, Note_on_c, 0, 57, 45
4, 94590, Note_on_c, 0, 64, 42
4, 94619, Note_on_c, 0, 64, 0
4, 94619, Note_on_c, 0, 57, 0
4, 94619, Note_on_c, 0, 69, 0
4, 94650, Note_on_c, 0, 69, 103
4, 94650, Note_on_c, 0, 64, 120
4, 94680, Note_on_c, 0, 57, 127
4, 94709, Note_on_c, 0, 57, 0
4, 94710, Note_on_c, 0, 64, 0
4, 94710, Note_on_c, 0, 69, 0
4, 94770, Control_c, 0, 7, 97
4, 94770, Note_on_c, 0, 64, 44
4, 94770, Note_on_c, 0, 69, 42
4, 94770, Note_on_c, 0, 57, 44
4, 94799, Note_on_c, 0, 57, 0
4, 94799, Note_on_c, 0, 69, 0
4, 94799, Note_on_c, 0, 64, 0
4, 94830, Note_on_c, 0, 64, 122
4, 94830, Note_on_c, 0, 57, 122
4, 94830, Note_on_c, 0, 69, 91
4, 94860, Control_c, 0, 7, 96
4, 94890, Note_on_c, 0, 69, 0
4, 94890, Note_on_c, 0, 57, 0
4, 94890, Note_on_c, 0, 64, 0
4, 94945, Control_c, 0, 7, 95
4, 94950, Note_on_c, 0, 64, 125
4, 94950, Note_on_c, 0, 69, 102
4, 94950, Note_on_c, 0, 57, 106
4, 94965, Control_c, 0, 7, 94
4, 94979, Note_on_c, 0, 64, 0
4, 95005, Control_c, 0, 7, 93
4, 95010, Note_on_c, 0, 57, 0
4, 95010, Note_on_c, 0, 69, 0
4, 95040, Note_on_c, 0, 57, 89
4, 95069, Note_on_c, 0, 57, 0
4, 95112, Control_c, 0, 7, 92
4, 95112, Control_c, 0, 64, 0
4, 95160, Note_on_c, 0, 64, 127
4, 95160, Note_on_c, 0, 60, 120
4, 95160, Note_on_c, 0, 55, 125
4, 95160, Note_on_c, 0, 48, 127
4, 95170, Control_c, 0, 7, 89
4, 95181, Control_c, 0, 64, 127
4, 95220, Note_on_c, 0, 48, 0
4, 95220, Note_on_c, 0, 64, 0
4, 95220, Note_on_c, 0, 60, 0
4, 95220, Note_on_c, 0, 55, 0
4, 95220, Control_c, 0, 7, 88
4, 95250, Note_on_c, 0, 60, 125
4, 95250, Note_on_c, 0, 64, 120
4, 95280, Note_on_c, 0, 55, 106
4, 95280, Note_on_c, 0, 48, 103
4, 95285, Control_c, 0, 7, 87
4, 95309, Note_on_c, 0, 48, 0
4, 95309, Note_on_c, 0, 55, 0
4, 95310, Note_on_c, 0, 64, 0
4, 95310, Note_on_c, 0, 60, 0
4, 95330, Control_c, 0, 7, 86
4, 95350, Control_c, 0, 7, 85
4, 95430, Control_c, 0, 7, 84
4, 95460, Note_on_c, 0, 64, 110
4, 95460, Note_on_c, 0, 60, 109
4, 95460, Note_on_c, 0, 48, 107
4, 95460, Note_on_c, 0, 55, 106
4, 95489, Note_on_c, 0, 55, 0
4, 95489, Note_on_c, 0, 64, 0
4, 95489, Note_on_c, 0, 60, 0
4, 95489, Note_on_c, 0, 48, 0
4, 95495, Control_c, 0, 7, 83
4, 95520, Note_on_c, 0, 64, 52
4, 95549, Note_on_c, 0, 64, 0
4, 95550, Note_on_c, 0, 60, 42
4, 95555, Control_c, 0, 7, 82
4, 95579, Note_on_c, 0, 60, 0
4, 95610, Note_on_c, 0, 64, 112
4, 95610, Note_on_c, 0, 60, 112
4, 95610, Note_on_c, 0, 55, 125
4, 95610, Note_on_c, 0, 48, 120
4, 95670, Note_on_c, 0, 48, 0
4, 95670, Note_on_c, 0, 64, 0
4, 95670, Note_on_c, 0, 60, 0
4, 95690, Control_c, 0, 7, 81
4, 95700, Note_on_c, 0, 55, 0
4, 95730, Control_c, 0, 7, 80
4, 95760, Control_c, 0, 7, 79
4, 95780, Control_c, 0, 7, 78
4, 95790, Note_on_c, 0, 64, 112
4, 95790, Note_on_c, 0, 60, 110
4, 95790, Note_on_c, 0, 48, 97
4, 95790, Note_on_c, 0, 55, 102
4, 95850, Note_on_c, 0, 55, 0
4, 95850, Note_on_c, 0, 64, 0
4, 95850, Note_on_c, 0, 60, 0
4, 95850, Note_on_c, 0, 48, 0
4, 95850, Control_c, 0, 7, 77
4, 95870, Control_c, 0, 7, 76
4, 95910, Note_on_c, 0, 64, 114
4, 95910, Note_on_c, 0, 60, 102
4, 95910, Note_on_c, 0, 55, 83
4, 95910, Note_on_c, 0, 48, 95
4, 95920, Control_c, 0, 7, 75
4, 95939, Note_on_c, 0, 48, 0
4, 95939, Note_on_c, 0, 64, 0
4, 95939, Note_on_c, 0, 60, 0
4, 95939, Note_on_c, 0, 55, 0
4, 95950, Control_c, 0, 7, 74
4, 95970, Note_on_c, 0, 64, 95
4, 95970, Note_on_c, 0, 60, 86
4, 95999, Note_on_c, 0, 60, 0
4, 95999, Note_on_c, 0, 64, 0
4, 96000, Note_on_c, 0, 48, 43
4, 96000, Note_on_c, 0, 55, 42
4, 96029, Note_on_c, 0, 55, 0
4, 96029, Note_on_c, 0, 48, 0
4, 96100, Control_c, 0, 7, 73
4, 96120, Note_on_c, 0, 64, 122
4, 96150, Note_on_c, 0, 60, 109
4, 96150, Note_on_c, 0, 48, 109
4, 96150, Note_on_c, 0, 55, 118
4, 96179, Note_on_c, 0, 48, 0
4, 96180, Note_on_c, 0, 64, 0
4, 96200, Control_c, 0, 7, 72
4, 96210, Note_on_c, 0, 60, 0
4, 96210, Note_on_c, 0, 55, 0
4, 96240, Note_on_c, 0, 64, 69
4, 96240, Note_on_c, 0, 48, 44
4, 96240, Note_on_c, 0, 60, 44
4, 96240, Note_on_c, 0, 55, 42
4, 96260, Control_c, 0, 7, 71
4, 96269, Note_on_c, 0, 55, 0
4, 96269, Note_on_c, 0, 64, 0
4, 96269, Note_on_c, 0, 48, 0
4, 96269, Note_on_c, 0, 60, 0
4, 96300, Note_on_c, 0, 64, 112
4, 96300, Note_on_c, 0, 60, 120
4, 96300, Note_on_c, 0, 55, 114
4, 96300, Note_on_c, 0, 48, 102
4, 96360, Note_on_c, 0, 48, 0
4, 96360, Note_on_c, 0, 64, 0
4, 96360, Note_on_c, 0, 60, 0
4, 96360, Note_on_c, 0, 55, 0
4, 96385, Control_c, 0, 7, 70
4, 96390, Note_on_c, 0, 64, 106
4, 96390, Note_on_c, 0, 60, 86
4, 96419, Note_on_c, 0, 60, 0
4, 96419, Note_on_c, 0, 64, 0
4, 96445, Control_c, 0, 7, 69
4, 96450, Note_on_c, 0, 64, 112
4, 96455, Control_c, 0, 7, 68
4, 96480, Note_on_c, 0, 60, 110
4, 96480, Note_on_c, 0, 55, 106
4, 96480, Note_on_c, 0, 48, 94
4, 96510, Note_on_c, 0, 64, 0
4, 96540, Note_on_c, 0, 60, 0
4, 96540, Note_on_c, 0, 55, 0
4, 96540, Note_on_c, 0, 48, 0
4, 96550, Control_c, 0, 7, 67
4, 96630, Note_on_c, 0, 64, 114
4, 96630, Note_on_c, 0, 60, 110
4, 96630, Note_on_c, 0, 55, 97
4, 96630, Note_on_c, 0, 48, 89
4, 96685, Control_c, 0, 7, 66
4, 96690, Note_on_c, 0, 48, 0
4, 96690, Note_on_c, 0, 64, 0
4, 96690, Note_on_c, 0, 60, 0
4, 96690, Note_on_c, 0, 55, 0
4, 96750, Note_on_c, 0, 64, 106
4, 96750, Note_on_c, 0, 60, 86
4, 96750, Note_on_c, 0, 55, 66
4, 96750, Note_on_c, 0, 48, 51
4, 96779, Note_on_c, 0, 48, 0
4, 96779, Note_on_c, 0, 64, 0
4, 96779, Note_on_c, 0, 60, 0
4, 96779, Note_on_c, 0, 55, 0
4, 96805, Control_c, 0, 7, 65
4, 96810, Note_on_c, 0, 64, 112
4, 96810, Note_on_c, 0, 60, 102
4, 96810, Note_on_c, 0, 55, 77
4, 96810, Note_on_c, 0, 48, 80
4, 96825, Control_c, 0, 7, 64
4, 96839, Note_on_c, 0, 48, 0
4, 96839, Note_on_c, 0, 64, 0
4, 96839, Note_on_c, 0, 60, 0
4, 96839, Note_on_c, 0, 55, 0
4, 96870, Note_on_c, 0, 64, 112
4, 96870, Note_on_c, 0, 60, 102
4, 96870, Note_on_c, 0, 55, 106
4, 96870, Note_on_c, 0, 48, 95
4, 96899, Note_on_c, 0, 48, 0
4, 96899, Note_on_c, 0, 64, 0
4, 96899, Note_on_c, 0, 60, 0
4, 96899, Note_on_c, 0, 55, 0
4, 96930, Note_on_c, 0, 64, 114
4, 96930, Note_on_c, 0, 60, 102
4, 96930, Note_on_c, 0, 55, 89
4, 96930, Note_on_c, 0, 48, 89
4, 96959, Note_on_c, 0, 48, 0
4, 96959, Note_on_c, 0, 64, 0
4, 96959, Note_on_c, 0, 60, 0
4, 96959, Note_on_c, 0, 55, 0
4, 96960, Control_c, 0, 7, 63
4, 97020, Control_c, 0, 7, 62
4, 97040, Control_c, 0, 64, 127
4, 97072, Control_c, 0, 64, 0
4, 97080, Control_c, 0, 7, 61
4, 97129, Control_c, 0, 7, 60
4, 97234, Control_c, 0, 7, 59
4, 97315, Control_c, 0, 7, 58
4, 97365, Control_c, 0, 7, 57
4, 97380, Note_on_c, 0, 55, 127
4, 97380, Note_on_c, 0, 50, 95
4, 97380, Note_on_c, 0, 43, 112
4, 97409, Note_on_c, 0, 43, 0
4, 97409, Note_on_c, 0, 50, 0
4, 97409, Note_on_c, 0, 55, 0
4, 97414, Control_c, 0, 7, 56
4, 97440, Note_on_c, 0, 55, 125
4, 97440, Note_on_c, 0, 43, 72
4, 97440, Note_on_c, 0, 50, 106
4, 97469, Note_on_c, 0, 50, 0
4, 97469, Note_on_c, 0, 43, 0
4, 97469, Note_on_c, 0, 55, 0
4, 97490, Control_c, 0, 7, 55
4, 97500, Note_on_c, 0, 57, 125
4, 97500, Note_on_c, 0, 62, 110
4, 97500, Note_on_c, 0, 50, 127
4, 97502, Control_c, 0, 64, 0
4, 97532, Control_c, 0, 7, 54
4, 97559, Control_c, 0, 64, 127
4, 97571, Control_c, 0, 7, 53
4, 97660, Control_c, 0, 7, 52
4, 97700, Control_c, 0, 7, 51
4, 97750, Control_c, 0, 7, 50
4, 97770, Control_c, 0, 7, 49
4, 97800, Note_on_c, 0, 62, 0
4, 97800, Note_on_c, 0, 57, 0
4, 97830, Control_c, 0, 7, 48
4, 97830, Note_on_c, 0, 62, 89
4, 97830, Note_on_c, 0, 57, 94
4, 97859, Note_on_c, 0, 57, 0
4, 97859, Note_on_c, 0, 62, 0
4, 97860, Note_on_c, 0, 50, 0
4, 97865, Control_c, 0, 7, 47
4, 97890, Note_on_c, 0, 62, 106
4, 97890, Note_on_c, 0, 57, 102
4, 97910, Control_c, 0, 7, 46
4, 97919, Note_on_c, 0, 57, 0
4, 97919, Note_on_c, 0, 62, 0
4, 97920, Control_c, 0, 7, 45
4, 97971, Control_c, 0, 7, 44
4, 97991, Control_c, 0, 64, 0
4, 98011, Control_c, 0, 7, 43
4, 98040, Note_on_c, 0, 64, 114
4, 98040, Note_on_c, 0, 57, 122
4, 98040, Note_on_c, 0, 69, 102
4, 98061, Control_c, 0, 7, 42
4, 98061, Control_c, 0, 64, 127
4, 98130, Note_on_c, 0, 69, 0
4, 98130, Note_on_c, 0, 57, 0
4, 98130, Note_on_c, 0, 64, 0
4, 98145, Control_c, 0, 7, 41
4, 98160, Note_on_c, 0, 64, 114
4, 98160, Note_on_c, 0, 69, 94
4, 98160, Note_on_c, 0, 57, 97
4, 98189, Note_on_c, 0, 64, 0
4, 98189, Control_c, 0, 7, 40
4, 98209, Control_c, 0, 7, 39
4, 98220, Note_on_c, 0, 57, 0
4, 98220, Note_on_c, 0, 69, 0
4, 98225, Control_c, 0, 7, 38
4, 98280, Control_c, 0, 7, 37
4, 98310, Control_c, 0, 7, 36
4, 98310, Note_on_c, 0, 64, 125
4, 98310, Note_on_c, 0, 69, 109
4, 98310, Note_on_c, 0, 57, 100
4, 98345, Control_c, 0, 7, 35
4, 98355, Control_c, 0, 7, 34
4, 98370, Note_on_c, 0, 57, 0
4, 98370, Note_on_c, 0, 69, 0
4, 98370, Note_on_c, 0, 64, 0
4, 98400, Note_on_c, 0, 64, 65
4, 98400, Note_on_c, 0, 69, 50
4, 98400, Note_on_c, 0, 57, 68
4, 98408, Control_c, 0, 7, 33
4, 98429, Note_on_c, 0, 57, 0
4, 98429, Note_on_c, 0, 69, 0
4, 98429, Note_on_c, 0, 64, 0
4, 98449, Control_c, 0, 7, 32
4, 98460, Control_c, 0, 7, 31
4, 98520, Control_c, 0, 7, 30
4, 98520, Note_on_c, 0, 64, 125
4, 98520, Note_on_c, 0, 57, 114
4, 98520, Note_on_c, 0, 69, 98
4, 98538, Control_c, 0, 7, 29
4, 98549, Note_on_c, 0, 69, 0
4, 98549, Note_on_c, 0, 57, 0
4, 98549, Note_on_c, 0, 64, 0
4, 98559, Control_c, 0, 7, 28
4, 98580, Control_c, 0, 7, 27
4, 98635, Control_c, 0, 7, 26
4, 98645, Control_c, 0, 7, 25
4, 98665, Control_c, 0, 7, 24
4, 98670, Note_on_c, 0, 57, 122
4, 98670, Note_on_c, 0, 64, 120
4, 98695, Control_c, 0, 7, 23
4, 98700, Note_on_c, 0, 69, 100
4, 98729, Note_on_c, 0, 69, 0
4, 98730, Note_on_c, 0, 64, 0
4, 98730, Note_on_c, 0, 57, 0
4, 98748, Control_c, 0, 7, 22
4, 98775, Control_c, 0, 7, 21
4, 98790, Note_on_c, 0, 69, 106
4, 98790, Note_on_c, 0, 64, 125
4, 98790, Note_on_c, 0, 57, 97
4, 98815, Control_c, 0, 7, 20
4, 98819, Note_on_c, 0, 57, 0
4, 98819, Note_on_c, 0, 64, 0
4, 98819, Note_on_c, 0, 69, 0
4, 98894, Control_c, 0, 7, 19
4, 98934, Control_c, 0, 7, 18
4, 98955, Control_c, 0, 7, 17
4, 98959, Control_c, 0, 64, 0
4, 98964, Control_c, 0, 7, 16
4, 99000, Note_on_c, 0, 55, 127
4, 99000, Note_on_c, 0, 43, 125
4, 99000, Note_on_c, 0, 50, 120
4, 99014, Control_c, 0, 7, 15
4, 99024, Control_c, 0, 64, 127
4, 99034, Control_c, 0, 7, 14
4, 99063, Control_c, 0, 7, 13
4, 99135, Control_c, 0, 7, 12
4, 99165, Control_c, 0, 7, 11
4, 99185, Control_c, 0, 7, 10
4, 99210, Control_c, 0, 7, 9
4, 99265, Control_c, 0, 7, 8
4, 99270, Note_on_c, 0, 50, 0
4, 99270, Note_on_c, 0, 43, 0
4, 99270, Note_on_c, 0, 55, 0
4, 99295, Control_c, 0, 7, 7
4, 99300, Note_on_c, 0, 55, 106
4, 99300, Note_on_c, 0, 43, 83
4, 99329, Note_on_c, 0, 43, 0
4, 99329, Note_on_c, 0, 55, 0
4, 99330, Note_on_c, 0, 50, 42
4, 99330, Note_on_c, 0, 55, 106
4, 99345, Control_c, 0, 7, 6
4, 99359, Note_on_c, 0, 50, 0
4, 99360, Note_on_c, 0, 43, 97
4, 99360, Note_on_c, 0, 50, 106
4, 99385, Control_c, 0, 7, 5
4, 99389, Note_on_c, 0, 50, 0
4, 99389, Note_on_c, 0, 43, 0
4, 99390, Note_on_c, 0, 55, 0
4, 99402, Control_c, 0, 64, 0
4, 99420, Note_on_c, 0, 57, 112
4, 99420, Note_on_c, 0, 62, 112
4, 99420, Note_on_c, 0, 50, 125
4, 99435, Control_c, 0, 64, 127
4, 99445, Control_c, 0, 7, 4
4, 99485, Control_c, 0, 7, 3
4, 99506, Control_c, 0, 64, 127
4, 99561, Control_c, 0, 7, 2
4, 99631, Control_c, 0, 64, 0
4, 99698, Control_c, 0, 7, 1
4, 99720, Note_on_c, 0, 62, 0
4, 99720, Note_on_c, 0, 57, 0
4, 99750, Note_on_c, 0, 50, 0
4, 99790, Control_c, 0, 7, 0
4, 99790, End_track
5, 0, Start_track
5, 0, MIDI_port, 0
5, 0, Title_t, "Acoustic Guitar"
5, 0, Program_c, 4, 25
5, 0, Control_c, 4, 7, 87
5, 0, Control_c, 4, 10, 64
5, 0, Control_c, 4, 93, 5
5, 0, Control_c, 4, 91, 79
5, 1080, Note_on_c, 4, 43, 114
5, 1080, Note_on_c, 4, 59, 110
5, 1080, Note_on_c, 4, 67, 100
5, 1080, Note_on_c, 4, 55, 112
5, 1086, Control_c, 4, 64, 127
5, 1140, Note_on_c, 4, 55, 0
5, 1140, Note_on_c, 4, 43, 0
5, 1140, Note_on_c, 4, 59, 0
5, 1140, Note_on_c, 4, 67, 0
5, 1200, Note_on_c, 4, 43, 114
5, 1200, Note_on_c, 4, 59, 114
5, 1200, Note_on_c, 4, 55, 114
5, 1200, Note_on_c, 4, 67, 92
5, 1229, Note_on_c, 4, 67, 0
5, 1229, Note_on_c, 4, 55, 0
5, 1229, Note_on_c, 4, 59, 0
5, 1260, Note_on_c, 4, 43, 0
5, 1320, Note_on_c, 4, 59, 112
5, 1320, Note_on_c, 4, 55, 110
5, 1320, Note_on_c, 4, 67, 91
5, 1320, Note_on_c, 4, 43, 106
5, 1349, Note_on_c, 4, 43, 0
5, 1349, Note_on_c, 4, 59, 0
5, 1349, Note_on_c, 4, 55, 0
5, 1349, Note_on_c, 4, 67, 0
5, 1380, Note_on_c, 4, 59, 103
5, 1380, Note_on_c, 4, 55, 103
5, 1380, Note_on_c, 4, 67, 78
5, 1409, Note_on_c, 4, 67, 0
5, 1409, Note_on_c, 4, 55, 0
5, 1409, Note_on_c, 4, 59, 0
5, 1440, Note_on_c, 4, 55, 114
5, 1440, Note_on_c, 4, 59, 102
5, 1440, Note_on_c, 4, 67, 84
5, 1440, Note_on_c, 4, 43, 106
5, 1469, Note_on_c, 4, 67, 0
5, 1469, Note_on_c, 4, 55, 0
5, 1469, Note_on_c, 4, 59, 0
5, 1500, Note_on_c, 4, 59, 106
5, 1500, Note_on_c, 4, 55, 85
5, 1500, Note_on_c, 4, 67, 72
5, 1529, Note_on_c, 4, 67, 0
5, 1529, Note_on_c, 4, 55, 0
5, 1529, Note_on_c, 4, 59, 0
5, 1530, Note_on_c, 4, 43, 0
5, 1560, Note_on_c, 4, 59, 120
5, 1560, Note_on_c, 4, 55, 120
5, 1560, Note_on_c, 4, 67, 97
5, 1560, Note_on_c, 4, 43, 97
5, 1620, Note_on_c, 4, 43, 0
5, 1620, Note_on_c, 4, 59, 0
5, 1620, Note_on_c, 4, 55, 0
5, 1620, Note_on_c, 4, 67, 0
5, 1680, Note_on_c, 4, 59, 112
5, 1680, Note_on_c, 4, 55, 112
5, 1680, Note_on_c, 4, 67, 84
5, 1680, Note_on_c, 4, 43, 106
5, 1709, Note_on_c, 4, 67, 0
5, 1709, Note_on_c, 4, 59, 0
5, 1709, Note_on_c, 4, 55, 0
5, 1740, Note_on_c, 4, 43, 0
5, 1800, Note_on_c, 4, 59, 112
5, 1800, Note_on_c, 4, 55, 110
5, 1800, Note_on_c, 4, 67, 89
5, 1800, Note_on_c, 4, 43, 114
5, 1829, Note_on_c, 4, 43, 0
5, 1829, Note_on_c, 4, 59, 0
5, 1829, Note_on_c, 4, 55, 0
5, 1829, Note_on_c, 4, 67, 0
5, 1860, Note_on_c, 4, 59, 103
5, 1860, Note_on_c, 4, 55, 86
5, 1860, Note_on_c, 4, 67, 79
5, 1889, Note_on_c, 4, 67, 0
5, 1889, Note_on_c, 4, 55, 0
5, 1889, Note_on_c, 4, 59, 0
5, 1920, Note_on_c, 4, 59, 106
5, 1920, Note_on_c, 4, 67, 80
5, 1920, Note_on_c, 4, 55, 109
5, 1920, Note_on_c, 4, 43, 97
5, 1949, Note_on_c, 4, 55, 0
5, 1949, Note_on_c, 4, 59, 0
5, 1949, Note_on_c, 4, 67, 0
5, 1980, Note_on_c, 4, 59, 97
5, 1980, Note_on_c, 4, 67, 69
5, 1980, Note_on_c, 4, 55, 91
5, 2009, Note_on_c, 4, 55, 0
5, 2009, Note_on_c, 4, 67, 0
5, 2009, Note_on_c, 4, 59, 0
5, 2010, Note_on_c, 4, 43, 0
5, 2040, Note_on_c, 4, 59, 112
5, 2040, Note_on_c, 4, 55, 118
5, 2040, Note_on_c, 4, 67, 98
5, 2040, Note_on_c, 4, 43, 106
5, 2069, Note_on_c, 4, 55, 0
5, 2069, Note_on_c, 4, 59, 0
5, 2100, Note_on_c, 4, 67, 0
5, 2100, Note_on_c, 4, 43, 0
5, 2160, Note_on_c, 4, 43, 106
5, 2160, Note_on_c, 4, 59, 112
5, 2160, Note_on_c, 4, 55, 120
5, 2160, Note_on_c, 4, 67, 98
5, 2189, Note_on_c, 4, 67, 0
5, 2189, Note_on_c, 4, 43, 0
5, 2189, Note_on_c, 4, 59, 0
5, 2189, Note_on_c, 4, 55, 0
5, 2280, Note_on_c, 4, 59, 103
5, 2280, Note_on_c, 4, 67, 85
5, 2280, Note_on_c, 4, 55, 106
5, 2280, Note_on_c, 4, 43, 97
5, 2309, Note_on_c, 4, 43, 0
5, 2309, Note_on_c, 4, 59, 0
5, 2309, Note_on_c, 4, 67, 0
5, 2309, Note_on_c, 4, 55, 0
5, 2340, Note_on_c, 4, 59, 95
5, 2340, Note_on_c, 4, 67, 72
5, 2340, Note_on_c, 4, 55, 92
5, 2369, Note_on_c, 4, 55, 0
5, 2369, Note_on_c, 4, 67, 0
5, 2369, Note_on_c, 4, 59, 0
5, 2400, Note_on_c, 4, 59, 112
5, 2400, Note_on_c, 4, 67, 86
5, 2400, Note_on_c, 4, 55, 107
5, 2400, Note_on_c, 4, 43, 89
5, 2429, Note_on_c, 4, 55, 0
5, 2429, Note_on_c, 4, 59, 0
5, 2429, Note_on_c, 4, 67, 0
5, 2460, Note_on_c, 4, 67, 75
5, 2460, Note_on_c, 4, 59, 102
5, 2460, Note_on_c, 4, 55, 100
5, 2489, Note_on_c, 4, 55, 0
5, 2489, Note_on_c, 4, 59, 0
5, 2489, Note_on_c, 4, 67, 0
5, 2490, Note_on_c, 4, 43, 0
5, 2520, Note_on_c, 4, 67, 103
5, 2520, Note_on_c, 4, 59, 118
5, 2520, Note_on_c, 4, 43, 107
5, 2520, Note_on_c, 4, 55, 117
5, 2549, Note_on_c, 4, 55, 0
5, 2549, Note_on_c, 4, 59, 0
5, 2580, Note_on_c, 4, 43, 0
5, 2580, Note_on_c, 4, 67, 0
5, 2640, Note_on_c, 4, 59, 120
5, 2640, Note_on_c, 4, 55, 110
5, 2640, Note_on_c, 4, 67, 98
5, 2640, Note_on_c, 4, 43, 106
5, 2669, Note_on_c, 4, 67, 0
5, 2669, Note_on_c, 4, 59, 0
5, 2669, Note_on_c, 4, 55, 0
5, 2700, Note_on_c, 4, 43, 0
5, 2760, Note_on_c, 4, 43, 106
5, 2760, Note_on_c, 4, 59, 112
5, 2760, Note_on_c, 4, 55, 110
5, 2760, Note_on_c, 4, 67, 92
5, 2789, Note_on_c, 4, 67, 0
5, 2789, Note_on_c, 4, 43, 0
5, 2789, Note_on_c, 4, 59, 0
5, 2789, Note_on_c, 4, 55, 0
5, 2820, Note_on_c, 4, 59, 112
5, 2820, Note_on_c, 4, 67, 80
5, 2820, Note_on_c, 4, 55, 107
5, 2820, Note_on_c, 4, 43, 83
5, 2849, Note_on_c, 4, 43, 0
5, 2849, Note_on_c, 4, 59, 0
5, 2849, Note_on_c, 4, 67, 0
5, 2849, Note_on_c, 4, 55, 0
5, 2880, Note_on_c, 4, 59, 114
5, 2880, Note_on_c, 4, 67, 92
5, 2880, Note_on_c, 4, 55, 109
5, 2880, Note_on_c, 4, 43, 89
5, 2909, Note_on_c, 4, 43, 0
5, 2909, Note_on_c, 4, 59, 0
5, 2909, Note_on_c, 4, 67, 0
5, 2909, Note_on_c, 4, 55, 0
5, 2940, Note_on_c, 4, 43, 89
5, 2940, Note_on_c, 4, 55, 120
5, 2940, Note_on_c, 4, 59, 118
5, 2940, Note_on_c, 4, 67, 103
5, 2969, Note_on_c, 4, 67, 0
5, 2969, Note_on_c, 4, 43, 0
5, 2969, Note_on_c, 4, 55, 0
5, 2969, Note_on_c, 4, 59, 0
5, 3000, Note_on_c, 4, 43, 114
5, 3000, Note_on_c, 4, 59, 110
5, 3000, Note_on_c, 4, 67, 100
5, 3000, Note_on_c, 4, 55, 112
5, 3006, Control_c, 4, 64, 127
5, 3060, Note_on_c, 4, 55, 0
5, 3060, Note_on_c, 4, 43, 0
5, 3060, Note_on_c, 4, 59, 0
5, 3060, Note_on_c, 4, 67, 0
5, 3120, Note_on_c, 4, 43, 114
5, 3120, Note_on_c, 4, 59, 114
5, 3120, Note_on_c, 4, 55, 114
5, 3120, Note_on_c, 4, 67, 92
5, 3149, Note_on_c, 4, 67, 0
5, 3149, Note_on_c, 4, 55, 0
5, 3149, Note_on_c, 4, 59, 0
5, 3180, Note_on_c, 4, 43, 0
5, 3240, Note_on_c, 4, 59, 112
5, 3240, Note_on_c, 4, 55, 110
5, 3240, Note_on_c, 4, 67, 91
5, 3240, Note_on_c, 4, 43, 106
5, 3269, Note_on_c, 4, 43, 0
5, 3269, Note_on_c, 4, 59, 0
5, 3269, Note_on_c, 4, 55, 0
5, 3269, Note_on_c, 4, 67, 0
5, 3300, Note_on_c, 4, 59, 103
5, 3300, Note_on_c, 4, 55, 103
5, 3300, Note_on_c, 4, 67, 78
5, 3329, Note_on_c, 4, 67, 0
5, 3329, Note_on_c, 4, 55, 0
5, 3329, Note_on_c, 4, 59, 0
5, 3360, Note_on_c, 4, 55, 114
5, 3360, Note_on_c, 4, 59, 102
5, 3360, Note_on_c, 4, 67, 84
5, 3360, Note_on_c, 4, 43, 106
5, 3389, Note_on_c, 4, 67, 0
5, 3389, Note_on_c, 4, 55, 0
5, 3389, Note_on_c, 4, 59, 0
5, 3420, Note_on_c, 4, 59, 106
5, 3420, Note_on_c, 4, 55, 85
5, 3420, Note_on_c, 4, 67, 72
5, 3449, Note_on_c, 4, 67, 0
5, 3449, Note_on_c, 4, 55, 0
5, 3449, Note_on_c, 4, 59, 0
5, 3450, Note_on_c, 4, 43, 0
5, 3480, Note_on_c, 4, 59, 120
5, 3480, Note_on_c, 4, 55, 120
5, 3480, Note_on_c, 4, 67, 97
5, 3480, Note_on_c, 4, 43, 97
5, 3540, Note_on_c, 4, 43, 0
5, 3540, Note_on_c, 4, 59, 0
5, 3540, Note_on_c, 4, 55, 0
5, 3540, Note_on_c, 4, 67, 0
5, 3600, Note_on_c, 4, 59, 112
5, 3600, Note_on_c, 4, 55, 112
5, 3600, Note_on_c, 4, 67, 84
5, 3600, Note_on_c, 4, 43, 106
5, 3629, Note_on_c, 4, 67, 0
5, 3629, Note_on_c, 4, 59, 0
5, 3629, Note_on_c, 4, 55, 0
5, 3660, Note_on_c, 4, 43, 0
5, 3720, Note_on_c, 4, 59, 112
5, 3720, Note_on_c, 4, 55, 110
5, 3720, Note_on_c, 4, 67, 89
5, 3720, Note_on_c, 4, 43, 114
5, 3749, Note_on_c, 4, 43, 0
5, 3749, Note_on_c, 4, 59, 0
5, 3749, Note_on_c, 4, 55, 0
5, 3749, Note_on_c, 4, 67, 0
5, 3780, Note_on_c, 4, 59, 103
5, 3780, Note_on_c, 4, 55, 86
5, 3780, Note_on_c, 4, 67, 79
5, 3809, Note_on_c, 4, 67, 0
5, 3809, Note_on_c, 4, 55, 0
5, 3809, Note_on_c, 4, 59, 0
5, 3840, Note_on_c, 4, 59, 106
5, 3840, Note_on_c, 4, 67, 80
5, 3840, Note_on_c, 4, 55, 109
5, 3840, Note_on_c, 4, 43, 97
5, 3869, Note_on_c, 4, 55, 0
5, 3869, Note_on_c, 4, 59, 0
5, 3869, Note_on_c, 4, 67, 0
5, 3900, Note_on_c, 4, 59, 97
5, 3900, Note_on_c, 4, 67, 69
5, 3900, Note_on_c, 4, 55, 91
5, 3929, Note_on_c, 4, 55, 0
5, 3929, Note_on_c, 4, 67, 0
5, 3929, Note_on_c, 4, 59, 0
5, 3930, Note_on_c, 4, 43, 0
5, 3960, Note_on_c, 4, 59, 112
5, 3960, Note_on_c, 4, 55, 118
5, 3960, Note_on_c, 4, 67, 98
5, 3960, Note_on_c, 4, 43, 106
5, 3989, Note_on_c, 4, 55, 0
5, 3989, Note_on_c, 4, 59, 0
5, 4020, Note_on_c, 4, 67, 0
5, 4020, Note_on_c, 4, 43, 0
5, 4080, Note_on_c, 4, 43, 106
5, 4080, Note_on_c, 4, 59, 112
5, 4080, Note_on_c, 4, 55, 120
5, 4080, Note_on_c, 4, 67, 98
5, 4109, Note_on_c, 4, 67, 0
5, 4109, Note_on_c, 4, 43, 0
5, 4109, Note_on_c, 4, 59, 0
5, 4109, Note_on_c, 4, 55, 0
5, 4200, Note_on_c, 4, 59, 103
5, 4200, Note_on_c, 4, 67, 85
5, 4200, Note_on_c, 4, 55, 106
5, 4200, Note_on_c, 4, 43, 97
5, 4229, Note_on_c, 4, 43, 0
5, 4229, Note_on_c, 4, 59, 0
5, 4229, Note_on_c, 4, 67, 0
5, 4229, Note_on_c, 4, 55, 0
5, 4260, Note_on_c, 4, 59, 95
5, 4260, Note_on_c, 4, 67, 72
5, 4260, Note_on_c, 4, 55, 92
5, 4289, Note_on_c, 4, 55, 0
5, 4289, Note_on_c, 4, 67, 0
5, 4289, Note_on_c, 4, 59, 0
5, 4320, Note_on_c, 4, 59, 112
5, 4320, Note_on_c, 4, 67, 86
5, 4320, Note_on_c, 4, 55, 107
5, 4320, Note_on_c, 4, 43, 89
5, 4349, Note_on_c, 4, 55, 0
5, 4349, Note_on_c, 4, 59, 0
5, 4349, Note_on_c, 4, 67, 0
5, 4380, Note_on_c, 4, 67, 75
5, 4380, Note_on_c, 4, 59, 102
5, 4380, Note_on_c, 4, 55, 100
5, 4409, Note_on_c, 4, 55, 0
5, 4409, Note_on_c, 4, 59, 0
5, 4409, Note_on_c, 4, 67, 0
5, 4410, Note_on_c, 4, 43, 0
5, 4440, Note_on_c, 4, 67, 103
5, 4440, Note_on_c, 4, 59, 118
5, 4440, Note_on_c, 4, 43, 107
5, 4440, Note_on_c, 4, 55, 117
5, 4469, Note_on_c, 4, 55, 0
5, 4469, Note_on_c, 4, 59, 0
5, 4500, Note_on_c, 4, 43, 0
5, 4500, Note_on_c, 4, 67, 0
5, 4560, Note_on_c, 4, 59, 120
5, 4560, Note_on_c, 4, 55, 110
5, 4560, Note_on_c, 4, 67, 98
5, 4560, Note_on_c, 4, 43, 106
5, 4589, Note_on_c, 4, 67, 0
5, 4589, Note_on_c, 4, 59, 0
5, 4589, Note_on_c, 4, 55, 0
5, 4620, Note_on_c, 4, 43, 0
5, 4680, Note_on_c, 4, 43, 106
5, 4680, Note_on_c, 4, 59, 112
5, 4680, Note_on_c, 4, 55, 110
5, 4680, Note_on_c, 4, 67, 92
5, 4709, Note_on_c, 4, 67, 0
5, 4709, Note_on_c, 4, 43, 0
5, 4709, Note_on_c, 4, 59, 0
5, 4709, Note_on_c, 4, 55, 0
5, 4740, Note_on_c, 4, 59, 112
5, 4740, Note_on_c, 4, 67, 80
5, 4740, Note_on_c, 4, 55, 107
5, 4740, Note_on_c, 4, 43, 83
5, 4769, Note_on_c, 4, 43, 0
5, 4769, Note_on_c, 4, 59, 0
5, 4769, Note_on_c, 4, 67, 0
5, 4769, Note_on_c, 4, 55, 0
5, 4800, Note_on_c, 4, 59, 114
5, 4800, Note_on_c, 4, 67, 92
5, 4800, Note_on_c, 4, 55, 109
5, 4800, Note_on_c, 4, 43, 89
5, 4829, Note_on_c, 4, 43, 0
5, 4829, Note_on_c, 4, 59, 0
5, 4829, Note_on_c, 4, 67, 0
5, 4829, Note_on_c, 4, 55, 0
5, 4860, Note_on_c, 4, 43, 89
5, 4860, Note_on_c, 4, 55, 120
5, 4860, Note_on_c, 4, 59, 118
5, 4860, Note_on_c, 4, 67, 103
5, 4889, Note_on_c, 4, 67, 0
5, 4889, Note_on_c, 4, 43, 0
5, 4889, Note_on_c, 4, 55, 0
5, 4889, Note_on_c, 4, 59, 0
5, 4920, Note_on_c, 4, 43, 114
5, 4920, Note_on_c, 4, 59, 110
5, 4920, Note_on_c, 4, 67, 100
5, 4920, Note_on_c, 4, 55, 112
5, 4926, Control_c, 4, 64, 127
5, 4980, Note_on_c, 4, 55, 0
5, 4980, Note_on_c, 4, 43, 0
5, 4980, Note_on_c, 4, 59, 0
5, 4980, Note_on_c, 4, 67, 0
5, 5040, Note_on_c, 4, 43, 114
5, 5040, Note_on_c, 4, 59, 114
5, 5040, Note_on_c, 4, 55, 114
5, 5040, Note_on_c, 4, 67, 92
5, 5069, Note_on_c, 4, 67, 0
5, 5069, Note_on_c, 4, 55, 0
5, 5069, Note_on_c, 4, 59, 0
5, 5100, Note_on_c, 4, 43, 0
5, 5160, Note_on_c, 4, 59, 112
5, 5160, Note_on_c, 4, 55, 110
5, 5160, Note_on_c, 4, 67, 91
5, 5160, Note_on_c, 4, 43, 106
5, 5189, Note_on_c, 4, 43, 0
5, 5189, Note_on_c, 4, 59, 0
5, 5189, Note_on_c, 4, 55, 0
5, 5189, Note_on_c, 4, 67, 0
5, 5220, Note_on_c, 4, 59, 103
5, 5220, Note_on_c, 4, 55, 103
5, 5220, Note_on_c, 4, 67, 78
5, 5249, Note_on_c, 4, 67, 0
5, 5249, Note_on_c, 4, 55, 0
5, 5249, Note_on_c, 4, 59, 0
5, 5280, Note_on_c, 4, 55, 114
5, 5280, Note_on_c, 4, 59, 102
5, 5280, Note_on_c, 4, 67, 84
5, 5280, Note_on_c, 4, 43, 106
5, 5309, Note_on_c, 4, 67, 0
5, 5309, Note_on_c, 4, 55, 0
5, 5309, Note_on_c, 4, 59, 0
5, 5340, Note_on_c, 4, 59, 106
5, 5340, Note_on_c, 4, 55, 85
5, 5340, Note_on_c, 4, 67, 72
5, 5369, Note_on_c, 4, 67, 0
5, 5369, Note_on_c, 4, 55, 0
5, 5369, Note_on_c, 4, 59, 0
5, 5370, Note_on_c, 4, 43, 0
5, 5400, Note_on_c, 4, 59, 120
5, 5400, Note_on_c, 4, 55, 120
5, 5400, Note_on_c, 4, 67, 97
5, 5400, Note_on_c, 4, 43, 97
5, 5460, Note_on_c, 4, 43, 0
5, 5460, Note_on_c, 4, 59, 0
5, 5460, Note_on_c, 4, 55, 0
5, 5460, Note_on_c, 4, 67, 0
5, 5520, Note_on_c, 4, 59, 112
5, 5520, Note_on_c, 4, 55, 112
5, 5520, Note_on_c, 4, 67, 84
5, 5520, Note_on_c, 4, 43, 106
5, 5549, Note_on_c, 4, 67, 0
5, 5549, Note_on_c, 4, 59, 0
5, 5549, Note_on_c, 4, 55, 0
5, 5580, Note_on_c, 4, 43, 0
5, 5640, Note_on_c, 4, 59, 112
5, 5640, Note_on_c, 4, 55, 110
5, 5640, Note_on_c, 4, 67, 89
5, 5640, Note_on_c, 4, 43, 114
5, 5669, Note_on_c, 4, 43, 0
5, 5669, Note_on_c, 4, 59, 0
5, 5669, Note_on_c, 4, 55, 0
5, 5669, Note_on_c, 4, 67, 0
5, 5700, Note_on_c, 4, 59, 103
5, 5700, Note_on_c, 4, 55, 86
5, 5700, Note_on_c, 4, 67, 79
5, 5729, Note_on_c, 4, 67, 0
5, 5729, Note_on_c, 4, 55, 0
5, 5729, Note_on_c, 4, 59, 0
5, 5760, Note_on_c, 4, 59, 106
5, 5760, Note_on_c, 4, 67, 80
5, 5760, Note_on_c, 4, 55, 109
5, 5760, Note_on_c, 4, 43, 97
5, 5789, Note_on_c, 4, 55, 0
5, 5789, Note_on_c, 4, 59, 0
5, 5789, Note_on_c, 4, 67, 0
5, 5820, Note_on_c, 4, 59, 97
5, 5820, Note_on_c, 4, 67, 69
5, 5820, Note_on_c, 4, 55, 91
5, 5849, Note_on_c, 4, 55, 0
5, 5849, Note_on_c, 4, 67, 0
5, 5849, Note_on_c, 4, 59, 0
5, 5850, Note_on_c, 4, 43, 0
5, 5880, Note_on_c, 4, 59, 112
5, 5880, Note_on_c, 4, 55, 118
5, 5880, Note_on_c, 4, 67, 98
5, 5880, Note_on_c, 4, 43, 106
5, 5909, Note_on_c, 4, 55, 0
5, 5909, Note_on_c, 4, 59, 0
5, 5940, Note_on_c, 4, 67, 0
5, 5940, Note_on_c, 4, 43, 0
5, 6000, Note_on_c, 4, 43, 106
5, 6000, Note_on_c, 4, 59, 112
5, 6000, Note_on_c, 4, 55, 120
5, 6000, Note_on_c, 4, 67, 98
5, 6029, Note_on_c, 4, 67, 0
5, 6029, Note_on_c, 4, 43, 0
5, 6029, Note_on_c, 4, 59, 0
5, 6029, Note_on_c, 4, 55, 0
5, 6120, Note_on_c, 4, 59, 103
5, 6120, Note_on_c, 4, 67, 85
5, 6120, Note_on_c, 4, 55, 106
5, 6120, Note_on_c, 4, 43, 97
5, 6149, Note_on_c, 4, 43, 0
5, 6149, Note_on_c, 4, 59, 0
5, 6149, Note_on_c, 4, 67, 0
5, 6149, Note_on_c, 4, 55, 0
5, 6180, Note_on_c, 4, 59, 95
5, 6180, Note_on_c, 4, 67, 72
5, 6180, Note_on_c, 4, 55, 92
5, 6209, Note_on_c, 4, 55, 0
5, 6209, Note_on_c, 4, 67, 0
5, 6209, Note_on_c, 4, 59, 0
5, 6240, Note_on_c, 4, 59, 112
5, 6240, Note_on_c, 4, 67, 86
5, 6240, Note_on_c, 4, 55, 107
5, 6240, Note_on_c, 4, 43, 89
5, 6269, Note_on_c, 4, 55, 0
5, 6269, Note_on_c, 4, 59, 0
5, 6269, Note_on_c, 4, 67, 0
5, 6300, Note_on_c, 4, 67, 75
5, 6300, Note_on_c, 4, 59, 102
5, 6300, Note_on_c, 4, 55, 100
5, 6329, Note_on_c, 4, 55, 0
5, 6329, Note_on_c, 4, 59, 0
5, 6329, Note_on_c, 4, 67, 0
5, 6330, Note_on_c, 4, 43, 0
5, 6360, Note_on_c, 4, 67, 103
5, 6360, Note_on_c, 4, 59, 118
5, 6360, Note_on_c, 4, 43, 107
5, 6360, Note_on_c, 4, 55, 117
5, 6389, Note_on_c, 4, 55, 0
5, 6389, Note_on_c, 4, 59, 0
5, 6420, Note_on_c, 4, 43, 0
5, 6420, Note_on_c, 4, 67, 0
5, 6480, Note_on_c, 4, 59, 120
5, 6480, Note_on_c, 4, 55, 110
5, 6480, Note_on_c, 4, 67, 98
5, 6480, Note_on_c, 4, 43, 106
5, 6509, Note_on_c, 4, 67, 0
5, 6509, Note_on_c, 4, 59, 0
5, 6509, Note_on_c, 4, 55, 0
5, 6540, Note_on_c, 4, 43, 0
5, 6600, Note_on_c, 4, 43, 106
5, 6600, Note_on_c, 4, 59, 112
5, 6600, Note_on_c, 4, 55, 110
5, 6600, Note_on_c, 4, 67, 92
5, 6629, Note_on_c, 4, 67, 0
5, 6629, Note_on_c, 4, 43, 0
5, 6629, Note_on_c, 4, 59, 0
5, 6629, Note_on_c, 4, 55, 0
5, 6660, Note_on_c, 4, 59, 112
5, 6660, Note_on_c, 4, 67, 80
5, 6660, Note_on_c, 4, 55, 107
5, 6660, Note_on_c, 4, 43, 83
5, 6689, Note_on_c, 4, 43, 0
5, 6689, Note_on_c, 4, 59, 0
5, 6689, Note_on_c, 4, 67, 0
5, 6689, Note_on_c, 4, 55, 0
5, 6720, Note_on_c, 4, 59, 114
5, 6720, Note_on_c, 4, 67, 92
5, 6720, Note_on_c, 4, 55, 109
5, 6720, Note_on_c, 4, 43, 89
5, 6749, Note_on_c, 4, 43, 0
5, 6749, Note_on_c, 4, 59, 0
5, 6749, Note_on_c, 4, 67, 0
5, 6749, Note_on_c, 4, 55, 0
5, 6780, Note_on_c, 4, 43, 89
5, 6780, Note_on_c, 4, 55, 120
5, 6780, Note_on_c, 4, 59, 118
5, 6780, Note_on_c, 4, 67, 103
5, 6809, Note_on_c, 4, 67, 0
5, 6809, Note_on_c, 4, 43, 0
5, 6809, Note_on_c, 4, 55, 0
5, 6809, Note_on_c, 4, 59, 0
5, 6840, Note_on_c, 4, 43, 114
5, 6840, Note_on_c, 4, 59, 110
5, 6840, Note_on_c, 4, 67, 100
5, 6840, Note_on_c, 4, 55, 112
5, 6846, Control_c, 4, 64, 127
5, 6900, Note_on_c, 4, 55, 0
5, 6900, Note_on_c, 4, 43, 0
5, 6900, Note_on_c, 4, 59, 0
5, 6900, Note_on_c, 4, 67, 0
5, 6960, Note_on_c, 4, 43, 114
5, 6960, Note_on_c, 4, 59, 114
5, 6960, Note_on_c, 4, 55, 114
5, 6960, Note_on_c, 4, 67, 92
5, 6989, Note_on_c, 4, 67, 0
5, 6989, Note_on_c, 4, 55, 0
5, 6989, Note_on_c, 4, 59, 0
5, 7020, Note_on_c, 4, 43, 0
5, 7080, Note_on_c, 4, 59, 112
5, 7080, Note_on_c, 4, 55, 110
5, 7080, Note_on_c, 4, 67, 91
5, 7080, Note_on_c, 4, 43, 106
5, 7109, Note_on_c, 4, 43, 0
5, 7109, Note_on_c, 4, 59, 0
5, 7109, Note_on_c, 4, 55, 0
5, 7109, Note_on_c, 4, 67, 0
5, 7140, Note_on_c, 4, 59, 103
5, 7140, Note_on_c, 4, 55, 103
5, 7140, Note_on_c, 4, 67, 78
5, 7169, Note_on_c, 4, 67, 0
5, 7169, Note_on_c, 4, 55, 0
5, 7169, Note_on_c, 4, 59, 0
5, 7200, Note_on_c, 4, 55, 114
5, 7200, Note_on_c, 4, 59, 102
5, 7200, Note_on_c, 4, 67, 84
5, 7200, Note_on_c, 4, 43, 106
5, 7229, Note_on_c, 4, 67, 0
5, 7229, Note_on_c, 4, 55, 0
5, 7229, Note_on_c, 4, 59, 0
5, 7260, Note_on_c, 4, 59, 106
5, 7260, Note_on_c, 4, 55, 85
5, 7260, Note_on_c, 4, 67, 72
5, 7289, Note_on_c, 4, 67, 0
5, 7289, Note_on_c, 4, 55, 0
5, 7289, Note_on_c, 4, 59, 0
5, 7290, Note_on_c, 4, 43, 0
5, 7320, Note_on_c, 4, 59, 120
5, 7320, Note_on_c, 4, 55, 120
5, 7320, Note_on_c, 4, 67, 97
5, 7320, Note_on_c, 4, 43, 97
5, 7380, Note_on_c, 4, 43, 0
5, 7380, Note_on_c, 4, 59, 0
5, 7380, Note_on_c, 4, 55, 0
5, 7380, Note_on_c, 4, 67, 0
5, 7440, Note_on_c, 4, 59, 112
5, 7440, Note_on_c, 4, 55, 112
5, 7440, Note_on_c, 4, 67, 84
5, 7440, Note_on_c, 4, 43, 106
5, 7469, Note_on_c, 4, 67, 0
5, 7469, Note_on_c, 4, 59, 0
5, 7469, Note_on_c, 4, 55, 0
5, 7500, Note_on_c, 4, 43, 0
5, 7560, Note_on_c, 4, 59, 112
5, 7560, Note_on_c, 4, 55, 110
5, 7560, Note_on_c, 4, 67, 89
5, 7560, Note_on_c, 4, 43, 114
5, 7589, Note_on_c, 4, 43, 0
5, 7589, Note_on_c, 4, 59, 0
5, 7589, Note_on_c, 4, 55, 0
5, 7589, Note_on_c, 4, 67, 0
5, 7620, Note_on_c, 4, 59, 103
5, 7620, Note_on_c, 4, 55, 86
5, 7620, Note_on_c, 4, 67, 79
5, 7649, Note_on_c, 4, 67, 0
5, 7649, Note_on_c, 4, 55, 0
5, 7649, Note_on_c, 4, 59, 0
5, 7680, Note_on_c, 4, 59, 106
5, 7680, Note_on_c, 4, 67, 80
5, 7680, Note_on_c, 4, 55, 109
5, 7680, Note_on_c, 4, 43, 97
5, 7709, Note_on_c, 4, 55, 0
5, 7709, Note_on_c, 4, 59, 0
5, 7709, Note_on_c, 4, 67, 0
5, 7740, Note_on_c, 4, 59, 97
5, 7740, Note_on_c, 4, 67, 69
5, 7740, Note_on_c, 4, 55, 91
5, 7769, Note_on_c, 4, 55, 0
5, 7769, Note_on_c, 4, 67, 0
5, 7769, Note_on_c, 4, 59, 0
5, 7770, Note_on_c, 4, 43, 0
5, 7800, Note_on_c, 4, 59, 112
5, 7800, Note_on_c, 4, 55, 118
5, 7800, Note_on_c, 4, 67, 98
5, 7800, Note_on_c, 4, 43, 106
5, 7829, Note_on_c, 4, 55, 0
5, 7829, Note_on_c, 4, 59, 0
5, 7860, Note_on_c, 4, 67, 0
5, 7860, Note_on_c, 4, 43, 0
5, 7920, Note_on_c, 4, 43, 106
5, 7920, Note_on_c, 4, 59, 112
5, 7920, Note_on_c, 4, 55, 120
5, 7920, Note_on_c, 4, 67, 98
5, 7949, Note_on_c, 4, 67, 0
5, 7949, Note_on_c, 4, 43, 0
5, 7949, Note_on_c, 4, 59, 0
5, 7949, Note_on_c, 4, 55, 0
5, 8040, Note_on_c, 4, 59, 103
5, 8040, Note_on_c, 4, 67, 85
5, 8040, Note_on_c, 4, 55, 106
5, 8040, Note_on_c, 4, 43, 97
5, 8069, Note_on_c, 4, 43, 0
5, 8069, Note_on_c, 4, 59, 0
5, 8069, Note_on_c, 4, 67, 0
5, 8069, Note_on_c, 4, 55, 0
5, 8100, Note_on_c, 4, 59, 95
5, 8100, Note_on_c, 4, 67, 72
5, 8100, Note_on_c, 4, 55, 92
5, 8129, Note_on_c, 4, 55, 0
5, 8129, Note_on_c, 4, 67, 0
5, 8129, Note_on_c, 4, 59, 0
5, 8160, Note_on_c, 4, 59, 112
5, 8160, Note_on_c, 4, 67, 86
5, 8160, Note_on_c, 4, 55, 107
5, 8160, Note_on_c, 4, 43, 89
5, 8189, Note_on_c, 4, 55, 0
5, 8189, Note_on_c, 4, 59, 0
5, 8189, Note_on_c, 4, 67, 0
5, 8220, Note_on_c, 4, 67, 75
5, 8220, Note_on_c, 4, 59, 102
5, 8220, Note_on_c, 4, 55, 100
5, 8249, Note_on_c, 4, 55, 0
5, 8249, Note_on_c, 4, 59, 0
5, 8249, Note_on_c, 4, 67, 0
5, 8250, Note_on_c, 4, 43, 0
5, 8280, Note_on_c, 4, 67, 103
5, 8280, Note_on_c, 4, 59, 118
5, 8280, Note_on_c, 4, 43, 107
5, 8280, Note_on_c, 4, 55, 117
5, 8309, Note_on_c, 4, 55, 0
5, 8309, Note_on_c, 4, 59, 0
5, 8340, Note_on_c, 4, 43, 0
5, 8340, Note_on_c, 4, 67, 0
5, 8400, Note_on_c, 4, 59, 120
5, 8400, Note_on_c, 4, 55, 110
5, 8400, Note_on_c, 4, 67, 98
5, 8400, Note_on_c, 4, 43, 106
5, 8429, Note_on_c, 4, 67, 0
5, 8429, Note_on_c, 4, 59, 0
5, 8429, Note_on_c, 4, 55, 0
5, 8460, Note_on_c, 4, 43, 0
5, 8520, Note_on_c, 4, 43, 106
5, 8520, Note_on_c, 4, 59, 112
5, 8520, Note_on_c, 4, 55, 110
5, 8520, Note_on_c, 4, 67, 92
5, 8549, Note_on_c, 4, 67, 0
5, 8549, Note_on_c, 4, 43, 0
5, 8549, Note_on_c, 4, 59, 0
5, 8549, Note_on_c, 4, 55, 0
5, 8580, Note_on_c, 4, 59, 112
5, 8580, Note_on_c, 4, 67, 80
5, 8580, Note_on_c, 4, 55, 107
5, 8580, Note_on_c, 4, 43, 83
5, 8609, Note_on_c, 4, 43, 0
5, 8609, Note_on_c, 4, 59, 0
5, 8609, Note_on_c, 4, 67, 0
5, 8609, Note_on_c, 4, 55, 0
5, 8640, Note_on_c, 4, 59, 114
5, 8640, Note_on_c, 4, 67, 92
5, 8640, Note_on_c, 4, 55, 109
5, 8640, Note_on_c, 4, 43, 89
5, 8669, Note_on_c, 4, 43, 0
5, 8669, Note_on_c, 4, 59, 0
5, 8669, Note_on_c, 4, 67, 0
5, 8669, Note_on_c, 4, 55, 0
5, 8700, Note_on_c, 4, 43, 89
5, 8700, Note_on_c, 4, 55, 120
5, 8700, Note_on_c, 4, 59, 118
5, 8700, Note_on_c, 4, 67, 103
5, 8717, Control_c, 4, 64, 127
5, 8729, Note_on_c, 4, 67, 0
5, 8729, Note_on_c, 4, 43, 0
5, 8729, Note_on_c, 4, 55, 0
5, 8729, Note_on_c, 4, 59, 0
5, 8737, Control_c, 4, 64, 0
5, 8760, Control_c, 4, 64, 127
5, 8760, Note_on_c, 4, 58, 127
5, 8760, Note_on_c, 4, 53, 112
5, 8760, Note_on_c, 4, 65, 112
5, 8760, Note_on_c, 4, 46, 125
5, 8789, Note_on_c, 4, 46, 0
5, 8789, Note_on_c, 4, 53, 0
5, 8820, Note_on_c, 4, 65, 0
5, 8820, Note_on_c, 4, 58, 0
5, 8880, Note_on_c, 4, 58, 122
5, 8880, Note_on_c, 4, 53, 109
5, 8880, Note_on_c, 4, 65, 100
5, 8880, Note_on_c, 4, 46, 127
5, 8909, Note_on_c, 4, 46, 0
5, 8909, Note_on_c, 4, 58, 0
5, 8909, Note_on_c, 4, 53, 0
5, 8909, Note_on_c, 4, 65, 0
5, 9000, Note_on_c, 4, 58, 122
5, 9000, Note_on_c, 4, 46, 127
5, 9000, Note_on_c, 4, 53, 98
5, 9000, Note_on_c, 4, 65, 97
5, 9029, Note_on_c, 4, 65, 0
5, 9029, Note_on_c, 4, 58, 0
5, 9029, Note_on_c, 4, 46, 0
5, 9029, Note_on_c, 4, 53, 0
5, 9060, Note_on_c, 4, 58, 103
5, 9060, Note_on_c, 4, 65, 80
5, 9060, Note_on_c, 4, 53, 92
5, 9089, Note_on_c, 4, 53, 0
5, 9089, Note_on_c, 4, 65, 0
5, 9089, Note_on_c, 4, 58, 0
5, 9120, Note_on_c, 4, 58, 114
5, 9120, Note_on_c, 4, 65, 92
5, 9120, Note_on_c, 4, 53, 100
5, 9120, Note_on_c, 4, 46, 120
5, 9149, Note_on_c, 4, 46, 0
5, 9149, Note_on_c, 4, 58, 0
5, 9149, Note_on_c, 4, 65, 0
5, 9149, Note_on_c, 4, 53, 0
5, 9180, Note_on_c, 4, 58, 112
5, 9180, Note_on_c, 4, 65, 84
5, 9180, Note_on_c, 4, 46, 107
5, 9180, Note_on_c, 4, 53, 98
5, 9209, Note_on_c, 4, 53, 0
5, 9209, Note_on_c, 4, 58, 0
5, 9209, Note_on_c, 4, 65, 0
5, 9209, Note_on_c, 4, 46, 0
5, 9240, Note_on_c, 4, 58, 120
5, 9240, Note_on_c, 4, 65, 110
5, 9240, Note_on_c, 4, 53, 107
5, 9240, Note_on_c, 4, 46, 127
5, 9269, Note_on_c, 4, 46, 0
5, 9269, Note_on_c, 4, 58, 0
5, 9269, Note_on_c, 4, 65, 0
5, 9269, Note_on_c, 4, 53, 0
5, 9360, Note_on_c, 4, 58, 122
5, 9360, Note_on_c, 4, 53, 100
5, 9360, Note_on_c, 4, 65, 109
5, 9360, Note_on_c, 4, 46, 127
5, 9389, Note_on_c, 4, 46, 0
5, 9389, Note_on_c, 4, 58, 0
5, 9389, Note_on_c, 4, 53, 0
5, 9389, Note_on_c, 4, 65, 0
5, 9480, Note_on_c, 4, 46, 127
5, 9480, Note_on_c, 4, 58, 122
5, 9480, Note_on_c, 4, 53, 102
5, 9480, Note_on_c, 4, 65, 91
5, 9509, Note_on_c, 4, 65, 0
5, 9509, Note_on_c, 4, 46, 0
5, 9509, Note_on_c, 4, 58, 0
5, 9509, Note_on_c, 4, 53, 0
5, 9540, Note_on_c, 4, 58, 103
5, 9540, Note_on_c, 4, 65, 85
5, 9540, Note_on_c, 4, 46, 98
5, 9540, Note_on_c, 4, 53, 85
5, 9569, Note_on_c, 4, 53, 0
5, 9569, Note_on_c, 4, 58, 0
5, 9569, Note_on_c, 4, 65, 0
5, 9569, Note_on_c, 4, 46, 0
5, 9600, Note_on_c, 4, 58, 112
5, 9600, Note_on_c, 4, 65, 86
5, 9600, Note_on_c, 4, 53, 102
5, 9600, Note_on_c, 4, 46, 114
5, 9629, Note_on_c, 4, 46, 0
5, 9629, Note_on_c, 4, 58, 0
5, 9629, Note_on_c, 4, 65, 0
5, 9629, Note_on_c, 4, 53, 0
5, 9660, Note_on_c, 4, 58, 103
5, 9660, Note_on_c, 4, 65, 74
5, 9660, Note_on_c, 4, 53, 78
5, 9660, Note_on_c, 4, 46, 114
5, 9687, Control_c, 4, 64, 0
5, 9689, Note_on_c, 4, 46, 0
5, 9689, Note_on_c, 4, 58, 0
5, 9689, Note_on_c, 4, 65, 0
5, 9689, Note_on_c, 4, 53, 0
5, 9720, Note_on_c, 4, 57, 114
5, 9720, Note_on_c, 4, 64, 110
5, 9720, Note_on_c, 4, 45, 125
5, 9720, Note_on_c, 4, 52, 110
5, 9738, Control_c, 4, 64, 127
5, 9780, Note_on_c, 4, 64, 0
5, 9810, Note_on_c, 4, 57, 0
5, 9810, Note_on_c, 4, 45, 0
5, 9810, Note_on_c, 4, 52, 0
5, 9840, Note_on_c, 4, 45, 112
5, 9840, Note_on_c, 4, 57, 100
5, 9840, Note_on_c, 4, 52, 118
5, 9840, Note_on_c, 4, 64, 97
5, 9869, Note_on_c, 4, 64, 0
5, 9869, Note_on_c, 4, 45, 0
5, 9869, Note_on_c, 4, 57, 0
5, 9869, Note_on_c, 4, 52, 0
5, 9960, Note_on_c, 4, 57, 106
5, 9960, Note_on_c, 4, 52, 110
5, 9960, Note_on_c, 4, 64, 106
5, 9960, Note_on_c, 4, 45, 120
5, 9989, Note_on_c, 4, 45, 0
5, 9989, Note_on_c, 4, 57, 0
5, 9989, Note_on_c, 4, 52, 0
5, 9989, Note_on_c, 4, 64, 0
5, 10020, Note_on_c, 4, 57, 95
5, 10020, Note_on_c, 4, 52, 94
5, 10020, Note_on_c, 4, 64, 92
5, 10049, Note_on_c, 4, 64, 0
5, 10049, Note_on_c, 4, 52, 0
5, 10049, Note_on_c, 4, 57, 0
5, 10080, Note_on_c, 4, 57, 112
5, 10080, Note_on_c, 4, 64, 109
5, 10080, Note_on_c, 4, 52, 118
5, 10080, Note_on_c, 4, 45, 114
5, 10109, Note_on_c, 4, 45, 0
5, 10109, Note_on_c, 4, 57, 0
5, 10109, Note_on_c, 4, 64, 0
5, 10109, Note_on_c, 4, 52, 0
5, 10140, Note_on_c, 4, 64, 77
5, 10140, Note_on_c, 4, 57, 102
5, 10140, Note_on_c, 4, 52, 100
5, 10140, Note_on_c, 4, 45, 89
5, 10169, Note_on_c, 4, 45, 0
5, 10169, Note_on_c, 4, 64, 0
5, 10169, Note_on_c, 4, 57, 0
5, 10169, Note_on_c, 4, 52, 0
5, 10200, Note_on_c, 4, 57, 114
5, 10200, Note_on_c, 4, 64, 100
5, 10200, Note_on_c, 4, 52, 117
5, 10200, Note_on_c, 4, 45, 110
5, 10229, Note_on_c, 4, 52, 0
5, 10229, Note_on_c, 4, 57, 0
5, 10260, Note_on_c, 4, 64, 0
5, 10260, Note_on_c, 4, 45, 0
5, 10320, Note_on_c, 4, 64, 95
5, 10320, Note_on_c, 4, 57, 110
5, 10320, Note_on_c, 4, 52, 117
5, 10320, Note_on_c, 4, 45, 120
5, 10349, Note_on_c, 4, 45, 0
5, 10349, Note_on_c, 4, 52, 0
5, 10349, Note_on_c, 4, 57, 0
5, 10380, Note_on_c, 4, 64, 0
5, 10440, Note_on_c, 4, 45, 120
5, 10440, Note_on_c, 4, 52, 118
5, 10440, Note_on_c, 4, 57, 117
5, 10440, Note_on_c, 4, 64, 114
5, 10469, Note_on_c, 4, 64, 0
5, 10469, Note_on_c, 4, 45, 0
5, 10469, Note_on_c, 4, 52, 0
5, 10469, Note_on_c, 4, 57, 0
5, 10500, Note_on_c, 4, 45, 112
5, 10500, Note_on_c, 4, 57, 100
5, 10500, Note_on_c, 4, 52, 103
5, 10500, Note_on_c, 4, 64, 89
5, 10529, Note_on_c, 4, 64, 0
5, 10529, Note_on_c, 4, 45, 0
5, 10529, Note_on_c, 4, 57, 0
5, 10529, Note_on_c, 4, 52, 0
5, 10560, Note_on_c, 4, 45, 106
5, 10560, Note_on_c, 4, 57, 103
5, 10560, Note_on_c, 4, 52, 110
5, 10560, Note_on_c, 4, 64, 92
5, 10589, Note_on_c, 4, 64, 0
5, 10589, Note_on_c, 4, 45, 0
5, 10589, Note_on_c, 4, 57, 0
5, 10589, Note_on_c, 4, 52, 0
5, 10615, Control_c, 4, 64, 127
5, 10620, Note_on_c, 4, 57, 127
5, 10620, Note_on_c, 4, 64, 118
5, 10620, Note_on_c, 4, 52, 127
5, 10620, Note_on_c, 4, 45, 127
5, 10646, Control_c, 4, 64, 0
5, 10649, Note_on_c, 4, 45, 0
5, 10649, Note_on_c, 4, 57, 0
5, 10649, Note_on_c, 4, 64, 0
5, 10649, Note_on_c, 4, 52, 0
5, 10680, Note_on_c, 4, 43, 114
5, 10680, Note_on_c, 4, 59, 110
5, 10680, Note_on_c, 4, 67, 100
5, 10680, Note_on_c, 4, 55, 112
5, 10686, Control_c, 4, 64, 127
5, 10740, Note_on_c, 4, 55, 0
5, 10740, Note_on_c, 4, 43, 0
5, 10740, Note_on_c, 4, 59, 0
5, 10740, Note_on_c, 4, 67, 0
5, 10800, Note_on_c, 4, 43, 114
5, 10800, Note_on_c, 4, 59, 114
5, 10800, Note_on_c, 4, 55, 114
5, 10800, Note_on_c, 4, 67, 92
5, 10829, Note_on_c, 4, 67, 0
5, 10829, Note_on_c, 4, 55, 0
5, 10829, Note_on_c, 4, 59, 0
5, 10860, Note_on_c, 4, 43, 0
5, 10920, Note_on_c, 4, 59, 112
5, 10920, Note_on_c, 4, 55, 110
5, 10920, Note_on_c, 4, 67, 91
5, 10920, Note_on_c, 4, 43, 106
5, 10949, Note_on_c, 4, 43, 0
5, 10949, Note_on_c, 4, 59, 0
5, 10949, Note_on_c, 4, 55, 0
5, 10949, Note_on_c, 4, 67, 0
5, 10980, Note_on_c, 4, 59, 103
5, 10980, Note_on_c, 4, 55, 103
5, 10980, Note_on_c, 4, 67, 78
5, 11009, Note_on_c, 4, 67, 0
5, 11009, Note_on_c, 4, 55, 0
5, 11009, Note_on_c, 4, 59, 0
5, 11040, Note_on_c, 4, 55, 114
5, 11040, Note_on_c, 4, 59, 102
5, 11040, Note_on_c, 4, 67, 84
5, 11040, Note_on_c, 4, 43, 106
5, 11069, Note_on_c, 4, 67, 0
5, 11069, Note_on_c, 4, 55, 0
5, 11069, Note_on_c, 4, 59, 0
5, 11100, Note_on_c, 4, 59, 106
5, 11100, Note_on_c, 4, 55, 85
5, 11100, Note_on_c, 4, 67, 72
5, 11129, Note_on_c, 4, 67, 0
5, 11129, Note_on_c, 4, 55, 0
5, 11129, Note_on_c, 4, 59, 0
5, 11130, Note_on_c, 4, 43, 0
5, 11160, Note_on_c, 4, 59, 120
5, 11160, Note_on_c, 4, 55, 120
5, 11160, Note_on_c, 4, 67, 97
5, 11160, Note_on_c, 4, 43, 97
5, 11220, Note_on_c, 4, 43, 0
5, 11220, Note_on_c, 4, 59, 0
5, 11220, Note_on_c, 4, 55, 0
5, 11220, Note_on_c, 4, 67, 0
5, 11280, Note_on_c, 4, 59, 112
5, 11280, Note_on_c, 4, 55, 112
5, 11280, Note_on_c, 4, 67, 84
5, 11280, Note_on_c, 4, 43, 106
5, 11309, Note_on_c, 4, 67, 0
5, 11309, Note_on_c, 4, 59, 0
5, 11309, Note_on_c, 4, 55, 0
5, 11340, Note_on_c, 4, 43, 0
5, 11400, Note_on_c, 4, 59, 112
5, 11400, Note_on_c, 4, 55, 110
5, 11400, Note_on_c, 4, 67, 89
5, 11400, Note_on_c, 4, 43, 114
5, 11429, Note_on_c, 4, 43, 0
5, 11429, Note_on_c, 4, 59, 0
5, 11429, Note_on_c, 4, 55, 0
5, 11429, Note_on_c, 4, 67, 0
5, 11460, Note_on_c, 4, 59, 103
5, 11460, Note_on_c, 4, 55, 86
5, 11460, Note_on_c, 4, 67, 79
5, 11489, Note_on_c, 4, 67, 0
5, 11489, Note_on_c, 4, 55, 0
5, 11489, Note_on_c, 4, 59, 0
5, 11520, Note_on_c, 4, 59, 106
5, 11520, Note_on_c, 4, 67, 80
5, 11520, Note_on_c, 4, 55, 109
5, 11520, Note_on_c, 4, 43, 97
5, 11549, Note_on_c, 4, 55, 0
5, 11549, Note_on_c, 4, 59, 0
5, 11549, Note_on_c, 4, 67, 0
5, 11580, Note_on_c, 4, 59, 97
5, 11580, Note_on_c, 4, 67, 69
5, 11580, Note_on_c, 4, 55, 91
5, 11609, Note_on_c, 4, 55, 0
5, 11609, Note_on_c, 4, 67, 0
5, 11609, Note_on_c, 4, 59, 0
5, 11610, Note_on_c, 4, 43, 0
5, 11640, Note_on_c, 4, 59, 112
5, 11640, Note_on_c, 4, 55, 118
5, 11640, Note_on_c, 4, 67, 98
5, 11640, Note_on_c, 4, 43, 106
5, 11669, Note_on_c, 4, 55, 0
5, 11669, Note_on_c, 4, 59, 0
5, 11700, Note_on_c, 4, 67, 0
5, 11700, Note_on_c, 4, 43, 0
5, 11760, Note_on_c, 4, 43, 106
5, 11760, Note_on_c, 4, 59, 112
5, 11760, Note_on_c, 4, 55, 120
5, 11760, Note_on_c, 4, 67, 98
5, 11789, Note_on_c, 4, 67, 0
5, 11789, Note_on_c, 4, 43, 0
5, 11789, Note_on_c, 4, 59, 0
5, 11789, Note_on_c, 4, 55, 0
5, 11880, Note_on_c, 4, 59, 103
5, 11880, Note_on_c, 4, 67, 85
5, 11880, Note_on_c, 4, 55, 106
5, 11880, Note_on_c, 4, 43, 97
5, 11909, Note_on_c, 4, 43, 0
5, 11909, Note_on_c, 4, 59, 0
5, 11909, Note_on_c, 4, 67, 0
5, 11909, Note_on_c, 4, 55, 0
5, 11940, Note_on_c, 4, 59, 95
5, 11940, Note_on_c, 4, 67, 72
5, 11940, Note_on_c, 4, 55, 92
5, 11969, Note_on_c, 4, 55, 0
5, 11969, Note_on_c, 4, 67, 0
5, 11969, Note_on_c, 4, 59, 0
5, 12000, Note_on_c, 4, 59, 112
5, 12000, Note_on_c, 4, 67, 86
5, 12000, Note_on_c, 4, 55, 107
5, 12000, Note_on_c, 4, 43, 89
5, 12029, Note_on_c, 4, 55, 0
5, 12029, Note_on_c, 4, 59, 0
5, 12029, Note_on_c, 4, 67, 0
5, 12060, Note_on_c, 4, 67, 75
5, 12060, Note_on_c, 4, 59, 102
5, 12060, Note_on_c, 4, 55, 100
5, 12089, Note_on_c, 4, 55, 0
5, 12089, Note_on_c, 4, 59, 0
5, 12089, Note_on_c, 4, 67, 0
5, 12090, Note_on_c, 4, 43, 0
5, 12120, Note_on_c, 4, 67, 103
5, 12120, Note_on_c, 4, 59, 118
5, 12120, Note_on_c, 4, 43, 107
5, 12120, Note_on_c, 4, 55, 117
5, 12149, Note_on_c, 4, 55, 0
5, 12149, Note_on_c, 4, 59, 0
5, 12180, Note_on_c, 4, 43, 0
5, 12180, Note_on_c, 4, 67, 0
5, 12240, Note_on_c, 4, 59, 120
5, 12240, Note_on_c, 4, 55, 110
5, 12240, Note_on_c, 4, 67, 98
5, 12240, Note_on_c, 4, 43, 106
5, 12269, Note_on_c, 4, 67, 0
5, 12269, Note_on_c, 4, 59, 0
5, 12269, Note_on_c, 4, 55, 0
5, 12300, Note_on_c, 4, 43, 0
5, 12360, Note_on_c, 4, 43, 106
5, 12360, Note_on_c, 4, 59, 112
5, 12360, Note_on_c, 4, 55, 110
5, 12360, Note_on_c, 4, 67, 92
5, 12389, Note_on_c, 4, 67, 0
5, 12389, Note_on_c, 4, 43, 0
5, 12389, Note_on_c, 4, 59, 0
5, 12389, Note_on_c, 4, 55, 0
5, 12420, Note_on_c, 4, 59, 112
5, 12420, Note_on_c, 4, 67, 80
5, 12420, Note_on_c, 4, 55, 107
5, 12420, Note_on_c, 4, 43, 83
5, 12449, Note_on_c, 4, 43, 0
5, 12449, Note_on_c, 4, 59, 0
5, 12449, Note_on_c, 4, 67, 0
5, 12449, Note_on_c, 4, 55, 0
5, 12480, Note_on_c, 4, 59, 114
5, 12480, Note_on_c, 4, 67, 92
5, 12480, Note_on_c, 4, 55, 109
5, 12480, Note_on_c, 4, 43, 89
5, 12509, Note_on_c, 4, 43, 0
5, 12509, Note_on_c, 4, 59, 0
5, 12509, Note_on_c, 4, 67, 0
5, 12509, Note_on_c, 4, 55, 0
5, 12540, Note_on_c, 4, 43, 89
5, 12540, Note_on_c, 4, 55, 120
5, 12540, Note_on_c, 4, 59, 118
5, 12540, Note_on_c, 4, 67, 103
5, 12569, Note_on_c, 4, 67, 0
5, 12569, Note_on_c, 4, 43, 0
5, 12569, Note_on_c, 4, 55, 0
5, 12569, Note_on_c, 4, 59, 0
5, 12600, Note_on_c, 4, 43, 114
5, 12600, Note_on_c, 4, 59, 110
5, 12600, Note_on_c, 4, 67, 100
5, 12600, Note_on_c, 4, 55, 112
5, 12606, Control_c, 4, 64, 127
5, 12660, Note_on_c, 4, 55, 0
5, 12660, Note_on_c, 4, 43, 0
5, 12660, Note_on_c, 4, 59, 0
5, 12660, Note_on_c, 4, 67, 0
5, 12720, Note_on_c, 4, 43, 114
5, 12720, Note_on_c, 4, 59, 114
5, 12720, Note_on_c, 4, 55, 114
5, 12720, Note_on_c, 4, 67, 92
5, 12749, Note_on_c, 4, 67, 0
5, 12749, Note_on_c, 4, 55, 0
5, 12749, Note_on_c, 4, 59, 0
5, 12780, Note_on_c, 4, 43, 0
5, 12840, Note_on_c, 4, 59, 112
5, 12840, Note_on_c, 4, 55, 110
5, 12840, Note_on_c, 4, 67, 91
5, 12840, Note_on_c, 4, 43, 106
5, 12869, Note_on_c, 4, 43, 0
5, 12869, Note_on_c, 4, 59, 0
5, 12869, Note_on_c, 4, 55, 0
5, 12869, Note_on_c, 4, 67, 0
5, 12900, Note_on_c, 4, 59, 103
5, 12900, Note_on_c, 4, 55, 103
5, 12900, Note_on_c, 4, 67, 78
5, 12929, Note_on_c, 4, 67, 0
5, 12929, Note_on_c, 4, 55, 0
5, 12929, Note_on_c, 4, 59, 0
5, 12960, Note_on_c, 4, 55, 114
5, 12960, Note_on_c, 4, 59, 102
5, 12960, Note_on_c, 4, 67, 84
5, 12960, Note_on_c, 4, 43, 106
5, 12989, Note_on_c, 4, 67, 0
5, 12989, Note_on_c, 4, 55, 0
5, 12989, Note_on_c, 4, 59, 0
5, 13020, Note_on_c, 4, 59, 106
5, 13020, Note_on_c, 4, 55, 85
5, 13020, Note_on_c, 4, 67, 72
5, 13049, Note_on_c, 4, 67, 0
5, 13049, Note_on_c, 4, 55, 0
5, 13049, Note_on_c, 4, 59, 0
5, 13050, Note_on_c, 4, 43, 0
5, 13080, Note_on_c, 4, 59, 120
5, 13080, Note_on_c, 4, 55, 120
5, 13080, Note_on_c, 4, 67, 97
5, 13080, Note_on_c, 4, 43, 97
5, 13140, Note_on_c, 4, 43, 0
5, 13140, Note_on_c, 4, 59, 0
5, 13140, Note_on_c, 4, 55, 0
5, 13140, Note_on_c, 4, 67, 0
5, 13200, Note_on_c, 4, 59, 112
5, 13200, Note_on_c, 4, 55, 112
5, 13200, Note_on_c, 4, 67, 84
5, 13200, Note_on_c, 4, 43, 106
5, 13229, Note_on_c, 4, 67, 0
5, 13229, Note_on_c, 4, 59, 0
5, 13229, Note_on_c, 4, 55, 0
5, 13260, Note_on_c, 4, 43, 0
5, 13320, Note_on_c, 4, 59, 112
5, 13320, Note_on_c, 4, 55, 110
5, 13320, Note_on_c, 4, 67, 89
5, 13320, Note_on_c, 4, 43, 114
5, 13349, Note_on_c, 4, 43, 0
5, 13349, Note_on_c, 4, 59, 0
5, 13349, Note_on_c, 4, 55, 0
5, 13349, Note_on_c, 4, 67, 0
5, 13380, Note_on_c, 4, 59, 103
5, 13380, Note_on_c, 4, 55, 86
5, 13380, Note_on_c, 4, 67, 79
5, 13409, Note_on_c, 4, 67, 0
5, 13409, Note_on_c, 4, 55, 0
5, 13409, Note_on_c, 4, 59, 0
5, 13440, Note_on_c, 4, 59, 106
5, 13440, Note_on_c, 4, 67, 80
5, 13440, Note_on_c, 4, 55, 109
5, 13440, Note_on_c, 4, 43, 97
5, 13469, Note_on_c, 4, 55, 0
5, 13469, Note_on_c, 4, 59, 0
5, 13469, Note_on_c, 4, 67, 0
5, 13500, Note_on_c, 4, 59, 97
5, 13500, Note_on_c, 4, 67, 69
5, 13500, Note_on_c, 4, 55, 91
5, 13529, Note_on_c, 4, 55, 0
5, 13529, Note_on_c, 4, 67, 0
5, 13529, Note_on_c, 4, 59, 0
5, 13530, Note_on_c, 4, 43, 0
5, 13560, Note_on_c, 4, 59, 112
5, 13560, Note_on_c, 4, 55, 118
5, 13560, Note_on_c, 4, 67, 98
5, 13560, Note_on_c, 4, 43, 106
5, 13589, Note_on_c, 4, 55, 0
5, 13589, Note_on_c, 4, 59, 0
5, 13620, Note_on_c, 4, 67, 0
5, 13620, Note_on_c, 4, 43, 0
5, 13680, Note_on_c, 4, 43, 106
5, 13680, Note_on_c, 4, 59, 112
5, 13680, Note_on_c, 4, 55, 120
5, 13680, Note_on_c, 4, 67, 98
5, 13709, Note_on_c, 4, 67, 0
5, 13709, Note_on_c, 4, 43, 0
5, 13709, Note_on_c, 4, 59, 0
5, 13709, Note_on_c, 4, 55, 0
5, 13800, Note_on_c, 4, 59, 103
5, 13800, Note_on_c, 4, 67, 85
5, 13800, Note_on_c, 4, 55, 106
5, 13800, Note_on_c, 4, 43, 97
5, 13829, Note_on_c, 4, 43, 0
5, 13829, Note_on_c, 4, 59, 0
5, 13829, Note_on_c, 4, 67, 0
5, 13829, Note_on_c, 4, 55, 0
5, 13860, Note_on_c, 4, 59, 95
5, 13860, Note_on_c, 4, 67, 72
5, 13860, Note_on_c, 4, 55, 92
5, 13889, Note_on_c, 4, 55, 0
5, 13889, Note_on_c, 4, 67, 0
5, 13889, Note_on_c, 4, 59, 0
5, 13920, Note_on_c, 4, 59, 112
5, 13920, Note_on_c, 4, 67, 86
5, 13920, Note_on_c, 4, 55, 107
5, 13920, Note_on_c, 4, 43, 89
5, 13949, Note_on_c, 4, 55, 0
5, 13949, Note_on_c, 4, 59, 0
5, 13949, Note_on_c, 4, 67, 0
5, 13980, Note_on_c, 4, 67, 75
5, 13980, Note_on_c, 4, 59, 102
5, 13980, Note_on_c, 4, 55, 100
5, 14009, Note_on_c, 4, 55, 0
5, 14009, Note_on_c, 4, 59, 0
5, 14009, Note_on_c, 4, 67, 0
5, 14010, Note_on_c, 4, 43, 0
5, 14040, Note_on_c, 4, 67, 103
5, 14040, Note_on_c, 4, 59, 118
5, 14040, Note_on_c, 4, 43, 107
5, 14040, Note_on_c, 4, 55, 117
5, 14069, Note_on_c, 4, 55, 0
5, 14069, Note_on_c, 4, 59, 0
5, 14100, Note_on_c, 4, 43, 0
5, 14100, Note_on_c, 4, 67, 0
5, 14160, Note_on_c, 4, 59, 120
5, 14160, Note_on_c, 4, 55, 110
5, 14160, Note_on_c, 4, 67, 98
5, 14160, Note_on_c, 4, 43, 106
5, 14189, Note_on_c, 4, 67, 0
5, 14189, Note_on_c, 4, 59, 0
5, 14189, Note_on_c, 4, 55, 0
5, 14220, Note_on_c, 4, 43, 0
5, 14280, Note_on_c, 4, 43, 106
5, 14280, Note_on_c, 4, 59, 112
5, 14280, Note_on_c, 4, 55, 110
5, 14280, Note_on_c, 4, 67, 92
5, 14309, Note_on_c, 4, 67, 0
5, 14309, Note_on_c, 4, 43, 0
5, 14309, Note_on_c, 4, 59, 0
5, 14309, Note_on_c, 4, 55, 0
5, 14340, Note_on_c, 4, 59, 112
5, 14340, Note_on_c, 4, 67, 80
5, 14340, Note_on_c, 4, 55, 107
5, 14340, Note_on_c, 4, 43, 83
5, 14369, Note_on_c, 4, 43, 0
5, 14369, Note_on_c, 4, 59, 0
5, 14369, Note_on_c, 4, 67, 0
5, 14369, Note_on_c, 4, 55, 0
5, 14400, Note_on_c, 4, 59, 114
5, 14400, Note_on_c, 4, 67, 92
5, 14400, Note_on_c, 4, 55, 109
5, 14400, Note_on_c, 4, 43, 89
5, 14429, Note_on_c, 4, 43, 0
5, 14429, Note_on_c, 4, 59, 0
5, 14429, Note_on_c, 4, 67, 0
5, 14429, Note_on_c, 4, 55, 0
5, 14460, Note_on_c, 4, 43, 89
5, 14460, Note_on_c, 4, 55, 120
5, 14460, Note_on_c, 4, 59, 118
5, 14460, Note_on_c, 4, 67, 103
5, 14489, Note_on_c, 4, 67, 0
5, 14489, Note_on_c, 4, 43, 0
5, 14489, Note_on_c, 4, 55, 0
5, 14489, Note_on_c, 4, 59, 0
5, 14520, Note_on_c, 4, 43, 114
5, 14520, Note_on_c, 4, 59, 110
5, 14520, Note_on_c, 4, 67, 100
5, 14520, Note_on_c, 4, 55, 112
5, 14526, Control_c, 4, 64, 127
5, 14580, Note_on_c, 4, 55, 0
5, 14580, Note_on_c, 4, 43, 0
5, 14580, Note_on_c, 4, 59, 0
5, 14580, Note_on_c, 4, 67, 0
5, 14640, Note_on_c, 4, 43, 114
5, 14640, Note_on_c, 4, 59, 114
5, 14640, Note_on_c, 4, 55, 114
5, 14640, Note_on_c, 4, 67, 92
5, 14669, Note_on_c, 4, 67, 0
5, 14669, Note_on_c, 4, 55, 0
5, 14669, Note_on_c, 4, 59, 0
5, 14700, Note_on_c, 4, 43, 0
5, 14760, Note_on_c, 4, 59, 112
5, 14760, Note_on_c, 4, 55, 110
5, 14760, Note_on_c, 4, 67, 91
5, 14760, Note_on_c, 4, 43, 106
5, 14789, Note_on_c, 4, 43, 0
5, 14789, Note_on_c, 4, 59, 0
5, 14789, Note_on_c, 4, 55, 0
5, 14789, Note_on_c, 4, 67, 0
5, 14820, Note_on_c, 4, 59, 103
5, 14820, Note_on_c, 4, 55, 103
5, 14820, Note_on_c, 4, 67, 78
5, 14849, Note_on_c, 4, 67, 0
5, 14849, Note_on_c, 4, 55, 0
5, 14849, Note_on_c, 4, 59, 0
5, 14880, Note_on_c, 4, 55, 114
5, 14880, Note_on_c, 4, 59, 102
5, 14880, Note_on_c, 4, 67, 84
5, 14880, Note_on_c, 4, 43, 106
5, 14909, Note_on_c, 4, 67, 0
5, 14909, Note_on_c, 4, 55, 0
5, 14909, Note_on_c, 4, 59, 0
5, 14940, Note_on_c, 4, 59, 106
5, 14940, Note_on_c, 4, 55, 85
5, 14940, Note_on_c, 4, 67, 72
5, 14969, Note_on_c, 4, 67, 0
5, 14969, Note_on_c, 4, 55, 0
5, 14969, Note_on_c, 4, 59, 0
5, 14970, Note_on_c, 4, 43, 0
5, 15000, Note_on_c, 4, 59, 120
5, 15000, Note_on_c, 4, 55, 120
5, 15000, Note_on_c, 4, 67, 97
5, 15000, Note_on_c, 4, 43, 97
5, 15060, Note_on_c, 4, 43, 0
5, 15060, Note_on_c, 4, 59, 0
5, 15060, Note_on_c, 4, 55, 0
5, 15060, Note_on_c, 4, 67, 0
5, 15120, Note_on_c, 4, 59, 112
5, 15120, Note_on_c, 4, 55, 112
5, 15120, Note_on_c, 4, 67, 84
5, 15120, Note_on_c, 4, 43, 106
5, 15149, Note_on_c, 4, 67, 0
5, 15149, Note_on_c, 4, 59, 0
5, 15149, Note_on_c, 4, 55, 0
5, 15180, Note_on_c, 4, 43, 0
5, 15240, Note_on_c, 4, 59, 112
5, 15240, Note_on_c, 4, 55, 110
5, 15240, Note_on_c, 4, 67, 89
5, 15240, Note_on_c, 4, 43, 114
5, 15269, Note_on_c, 4, 43, 0
5, 15269, Note_on_c, 4, 59, 0
5, 15269, Note_on_c, 4, 55, 0
5, 15269, Note_on_c, 4, 67, 0
5, 15300, Note_on_c, 4, 59, 103
5, 15300, Note_on_c, 4, 55, 86
5, 15300, Note_on_c, 4, 67, 79
5, 15329, Note_on_c, 4, 67, 0
5, 15329, Note_on_c, 4, 55, 0
5, 15329, Note_on_c, 4, 59, 0
5, 15360, Note_on_c, 4, 59, 106
5, 15360, Note_on_c, 4, 67, 80
5, 15360, Note_on_c, 4, 55, 109
5, 15360, Note_on_c, 4, 43, 97
5, 15389, Note_on_c, 4, 55, 0
5, 15389, Note_on_c, 4, 59, 0
5, 15389, Note_on_c, 4, 67, 0
5, 15420, Note_on_c, 4, 59, 97
5, 15420, Note_on_c, 4, 67, 69
5, 15420, Note_on_c, 4, 55, 91
5, 15449, Note_on_c, 4, 55, 0
5, 15449, Note_on_c, 4, 67, 0
5, 15449, Note_on_c, 4, 59, 0
5, 15450, Note_on_c, 4, 43, 0
5, 15480, Note_on_c, 4, 59, 112
5, 15480, Note_on_c, 4, 55, 118
5, 15480, Note_on_c, 4, 67, 98
5, 15480, Note_on_c, 4, 43, 106
5, 15509, Note_on_c, 4, 55, 0
5, 15509, Note_on_c, 4, 59, 0
5, 15540, Note_on_c, 4, 67, 0
5, 15540, Note_on_c, 4, 43, 0
5, 15600, Note_on_c, 4, 43, 106
5, 15600, Note_on_c, 4, 59, 112
5, 15600, Note_on_c, 4, 55, 120
5, 15600, Note_on_c, 4, 67, 98
5, 15629, Note_on_c, 4, 67, 0
5, 15629, Note_on_c, 4, 43, 0
5, 15629, Note_on_c, 4, 59, 0
5, 15629, Note_on_c, 4, 55, 0
5, 15720, Note_on_c, 4, 59, 103
5, 15720, Note_on_c, 4, 67, 85
5, 15720, Note_on_c, 4, 55, 106
5, 15720, Note_on_c, 4, 43, 97
5, 15749, Note_on_c, 4, 43, 0
5, 15749, Note_on_c, 4, 59, 0
5, 15749, Note_on_c, 4, 67, 0
5, 15749, Note_on_c, 4, 55, 0
5, 15780, Note_on_c, 4, 59, 95
5, 15780, Note_on_c, 4, 67, 72
5, 15780, Note_on_c, 4, 55, 92
5, 15809, Note_on_c, 4, 55, 0
5, 15809, Note_on_c, 4, 67, 0
5, 15809, Note_on_c, 4, 59, 0
5, 15840, Note_on_c, 4, 59, 112
5, 15840, Note_on_c, 4, 67, 86
5, 15840, Note_on_c, 4, 55, 107
5, 15840, Note_on_c, 4, 43, 89
5, 15869, Note_on_c, 4, 55, 0
5, 15869, Note_on_c, 4, 59, 0
5, 15869, Note_on_c, 4, 67, 0
5, 15900, Note_on_c, 4, 67, 75
5, 15900, Note_on_c, 4, 59, 102
5, 15900, Note_on_c, 4, 55, 100
5, 15929, Note_on_c, 4, 55, 0
5, 15929, Note_on_c, 4, 59, 0
5, 15929, Note_on_c, 4, 67, 0
5, 15930, Note_on_c, 4, 43, 0
5, 15960, Note_on_c, 4, 67, 103
5, 15960, Note_on_c, 4, 59, 118
5, 15960, Note_on_c, 4, 43, 107
5, 15960, Note_on_c, 4, 55, 117
5, 15989, Note_on_c, 4, 55, 0
5, 15989, Note_on_c, 4, 59, 0
5, 16020, Note_on_c, 4, 43, 0
5, 16020, Note_on_c, 4, 67, 0
5, 16080, Note_on_c, 4, 59, 120
5, 16080, Note_on_c, 4, 55, 110
5, 16080, Note_on_c, 4, 67, 98
5, 16080, Note_on_c, 4, 43, 106
5, 16109, Note_on_c, 4, 67, 0
5, 16109, Note_on_c, 4, 59, 0
5, 16109, Note_on_c, 4, 55, 0
5, 16140, Note_on_c, 4, 43, 0
5, 16200, Note_on_c, 4, 43, 106
5, 16200, Note_on_c, 4, 59, 112
5, 16200, Note_on_c, 4, 55, 110
5, 16200, Note_on_c, 4, 67, 92
5, 16229, Note_on_c, 4, 67, 0
5, 16229, Note_on_c, 4, 43, 0
5, 16229, Note_on_c, 4, 59, 0
5, 16229, Note_on_c, 4, 55, 0
5, 16260, Note_on_c, 4, 59, 112
5, 16260, Note_on_c, 4, 67, 80
5, 16260, Note_on_c, 4, 55, 107
5, 16260, Note_on_c, 4, 43, 83
5, 16289, Note_on_c, 4, 43, 0
5, 16289, Note_on_c, 4, 59, 0
5, 16289, Note_on_c, 4, 67, 0
5, 16289, Note_on_c, 4, 55, 0
5, 16320, Note_on_c, 4, 59, 114
5, 16320, Note_on_c, 4, 67, 92
5, 16320, Note_on_c, 4, 55, 109
5, 16320, Note_on_c, 4, 43, 89
5, 16349, Note_on_c, 4, 43, 0
5, 16349, Note_on_c, 4, 59, 0
5, 16349, Note_on_c, 4, 67, 0
5, 16349, Note_on_c, 4, 55, 0
5, 16380, Note_on_c, 4, 43, 89
5, 16380, Note_on_c, 4, 55, 120
5, 16380, Note_on_c, 4, 59, 118
5, 16380, Note_on_c, 4, 67, 103
5, 16409, Note_on_c, 4, 67, 0
5, 16409, Note_on_c, 4, 43, 0
5, 16409, Note_on_c, 4, 55, 0
5, 16409, Note_on_c, 4, 59, 0
5, 16440, Note_on_c, 4, 43, 114
5, 16440, Note_on_c, 4, 59, 110
5, 16440, Note_on_c, 4, 67, 100
5, 16440, Note_on_c, 4, 55, 112
5, 16446, Control_c, 4, 64, 127
5, 16500, Note_on_c, 4, 55, 0
5, 16500, Note_on_c, 4, 43, 0
5, 16500, Note_on_c, 4, 59, 0
5, 16500, Note_on_c, 4, 67, 0
5, 16560, Note_on_c, 4, 43, 114
5, 16560, Note_on_c, 4, 59, 114
5, 16560, Note_on_c, 4, 55, 114
5, 16560, Note_on_c, 4, 67, 92
5, 16589, Note_on_c, 4, 67, 0
5, 16589, Note_on_c, 4, 55, 0
5, 16589, Note_on_c, 4, 59, 0
5, 16620, Note_on_c, 4, 43, 0
5, 16680, Note_on_c, 4, 59, 112
5, 16680, Note_on_c, 4, 55, 110
5, 16680, Note_on_c, 4, 67, 91
5, 16680, Note_on_c, 4, 43, 106
5, 16709, Note_on_c, 4, 43, 0
5, 16709, Note_on_c, 4, 59, 0
5, 16709, Note_on_c, 4, 55, 0
5, 16709, Note_on_c, 4, 67, 0
5, 16740, Note_on_c, 4, 59, 103
5, 16740, Note_on_c, 4, 55, 103
5, 16740, Note_on_c, 4, 67, 78
5, 16769, Note_on_c, 4, 67, 0
5, 16769, Note_on_c, 4, 55, 0
5, 16769, Note_on_c, 4, 59, 0
5, 16800, Note_on_c, 4, 55, 114
5, 16800, Note_on_c, 4, 59, 102
5, 16800, Note_on_c, 4, 67, 84
5, 16800, Note_on_c, 4, 43, 106
5, 16829, Note_on_c, 4, 67, 0
5, 16829, Note_on_c, 4, 55, 0
5, 16829, Note_on_c, 4, 59, 0
5, 16860, Note_on_c, 4, 59, 106
5, 16860, Note_on_c, 4, 55, 85
5, 16860, Note_on_c, 4, 67, 72
5, 16889, Note_on_c, 4, 67, 0
5, 16889, Note_on_c, 4, 55, 0
5, 16889, Note_on_c, 4, 59, 0
5, 16890, Note_on_c, 4, 43, 0
5, 16920, Note_on_c, 4, 59, 120
5, 16920, Note_on_c, 4, 55, 120
5, 16920, Note_on_c, 4, 67, 97
5, 16920, Note_on_c, 4, 43, 97
5, 16980, Note_on_c, 4, 43, 0
5, 16980, Note_on_c, 4, 59, 0
5, 16980, Note_on_c, 4, 55, 0
5, 16980, Note_on_c, 4, 67, 0
5, 17040, Note_on_c, 4, 59, 112
5, 17040, Note_on_c, 4, 55, 112
5, 17040, Note_on_c, 4, 67, 84
5, 17040, Note_on_c, 4, 43, 106
5, 17069, Note_on_c, 4, 67, 0
5, 17069, Note_on_c, 4, 59, 0
5, 17069, Note_on_c, 4, 55, 0
5, 17100, Note_on_c, 4, 43, 0
5, 17160, Note_on_c, 4, 59, 112
5, 17160, Note_on_c, 4, 55, 110
5, 17160, Note_on_c, 4, 67, 89
5, 17160, Note_on_c, 4, 43, 114
5, 17189, Note_on_c, 4, 43, 0
5, 17189, Note_on_c, 4, 59, 0
5, 17189, Note_on_c, 4, 55, 0
5, 17189, Note_on_c, 4, 67, 0
5, 17220, Note_on_c, 4, 59, 103
5, 17220, Note_on_c, 4, 55, 86
5, 17220, Note_on_c, 4, 67, 79
5, 17249, Note_on_c, 4, 67, 0
5, 17249, Note_on_c, 4, 55, 0
5, 17249, Note_on_c, 4, 59, 0
5, 17280, Note_on_c, 4, 59, 106
5, 17280, Note_on_c, 4, 67, 80
5, 17280, Note_on_c, 4, 55, 109
5, 17280, Note_on_c, 4, 43, 97
5, 17309, Note_on_c, 4, 55, 0
5, 17309, Note_on_c, 4, 59, 0
5, 17309, Note_on_c, 4, 67, 0
5, 17340, Note_on_c, 4, 59, 97
5, 17340, Note_on_c, 4, 67, 69
5, 17340, Note_on_c, 4, 55, 91
5, 17369, Note_on_c, 4, 55, 0
5, 17369, Note_on_c, 4, 67, 0
5, 17369, Note_on_c, 4, 59, 0
5, 17370, Note_on_c, 4, 43, 0
5, 17400, Note_on_c, 4, 59, 112
5, 17400, Note_on_c, 4, 55, 118
5, 17400, Note_on_c, 4, 67, 98
5, 17400, Note_on_c, 4, 43, 106
5, 17429, Note_on_c, 4, 55, 0
5, 17429, Note_on_c, 4, 59, 0
5, 17460, Note_on_c, 4, 67, 0
5, 17460, Note_on_c, 4, 43, 0
5, 17520, Note_on_c, 4, 43, 106
5, 17520, Note_on_c, 4, 59, 112
5, 17520, Note_on_c, 4, 55, 120
5, 17520, Note_on_c, 4, 67, 98
5, 17549, Note_on_c, 4, 67, 0
5, 17549, Note_on_c, 4, 43, 0
5, 17549, Note_on_c, 4, 59, 0
5, 17549, Note_on_c, 4, 55, 0
5, 17640, Note_on_c, 4, 59, 103
5, 17640, Note_on_c, 4, 67, 85
5, 17640, Note_on_c, 4, 55, 106
5, 17640, Note_on_c, 4, 43, 97
5, 17669, Note_on_c, 4, 43, 0
5, 17669, Note_on_c, 4, 59, 0
5, 17669, Note_on_c, 4, 67, 0
5, 17669, Note_on_c, 4, 55, 0
5, 17700, Note_on_c, 4, 59, 95
5, 17700, Note_on_c, 4, 67, 72
5, 17700, Note_on_c, 4, 55, 92
5, 17729, Note_on_c, 4, 55, 0
5, 17729, Note_on_c, 4, 67, 0
5, 17729, Note_on_c, 4, 59, 0
5, 17760, Note_on_c, 4, 59, 112
5, 17760, Note_on_c, 4, 67, 86
5, 17760, Note_on_c, 4, 55, 107
5, 17760, Note_on_c, 4, 43, 89
5, 17789, Note_on_c, 4, 55, 0
5, 17789, Note_on_c, 4, 59, 0
5, 17789, Note_on_c, 4, 67, 0
5, 17820, Note_on_c, 4, 67, 75
5, 17820, Note_on_c, 4, 59, 102
5, 17820, Note_on_c, 4, 55, 100
5, 17849, Note_on_c, 4, 55, 0
5, 17849, Note_on_c, 4, 59, 0
5, 17849, Note_on_c, 4, 67, 0
5, 17850, Note_on_c, 4, 43, 0
5, 17880, Note_on_c, 4, 67, 103
5, 17880, Note_on_c, 4, 59, 118
5, 17880, Note_on_c, 4, 43, 107
5, 17880, Note_on_c, 4, 55, 117
5, 17909, Note_on_c, 4, 55, 0
5, 17909, Note_on_c, 4, 59, 0
5, 17940, Note_on_c, 4, 43, 0
5, 17940, Note_on_c, 4, 67, 0
5, 18000, Note_on_c, 4, 59, 120
5, 18000, Note_on_c, 4, 55, 110
5, 18000, Note_on_c, 4, 67, 98
5, 18000, Note_on_c, 4, 43, 106
5, 18029, Note_on_c, 4, 67, 0
5, 18029, Note_on_c, 4, 59, 0
5, 18029, Note_on_c, 4, 55, 0
5, 18060, Note_on_c, 4, 43, 0
5, 18120, Note_on_c, 4, 43, 106
5, 18120, Note_on_c, 4, 59, 112
5, 18120, Note_on_c, 4, 55, 110
5, 18120, Note_on_c, 4, 67, 92
5, 18149, Note_on_c, 4, 67, 0
5, 18149, Note_on_c, 4, 43, 0
5, 18149, Note_on_c, 4, 59, 0
5, 18149, Note_on_c, 4, 55, 0
5, 18180, Note_on_c, 4, 59, 112
5, 18180, Note_on_c, 4, 67, 80
5, 18180, Note_on_c, 4, 55, 107
5, 18180, Note_on_c, 4, 43, 83
5, 18209, Note_on_c, 4, 43, 0
5, 18209, Note_on_c, 4, 59, 0
5, 18209, Note_on_c, 4, 67, 0
5, 18209, Note_on_c, 4, 55, 0
5, 18240, Note_on_c, 4, 59, 114
5, 18240, Note_on_c, 4, 67, 92
5, 18240, Note_on_c, 4, 55, 109
5, 18240, Note_on_c, 4, 43, 89
5, 18269, Note_on_c, 4, 43, 0
5, 18269, Note_on_c, 4, 59, 0
5, 18269, Note_on_c, 4, 67, 0
5, 18269, Note_on_c, 4, 55, 0
5, 18300, Note_on_c, 4, 43, 89
5, 18300, Note_on_c, 4, 55, 120
5, 18300, Note_on_c, 4, 59, 118
5, 18300, Note_on_c, 4, 67, 103
5, 18317, Control_c, 4, 64, 127
5, 18329, Note_on_c, 4, 67, 0
5, 18329, Note_on_c, 4, 43, 0
5, 18329, Note_on_c, 4, 55, 0
5, 18329, Note_on_c, 4, 59, 0
5, 18337, Control_c, 4, 64, 0
5, 18360, Control_c, 4, 64, 127
5, 18360, Note_on_c, 4, 58, 127
5, 18360, Note_on_c, 4, 53, 112
5, 18360, Note_on_c, 4, 65, 112
5, 18360, Note_on_c, 4, 46, 125
5, 18389, Note_on_c, 4, 46, 0
5, 18389, Note_on_c, 4, 53, 0
5, 18420, Note_on_c, 4, 65, 0
5, 18420, Note_on_c, 4, 58, 0
5, 18480, Note_on_c, 4, 58, 122
5, 18480, Note_on_c, 4, 53, 109
5, 18480, Note_on_c, 4, 65, 100
5, 18480, Note_on_c, 4, 46, 127
5, 18509, Note_on_c, 4, 46, 0
5, 18509, Note_on_c, 4, 58, 0
5, 18509, Note_on_c, 4, 53, 0
5, 18509, Note_on_c, 4, 65, 0
5, 18600, Note_on_c, 4, 58, 122
5, 18600, Note_on_c, 4, 46, 127
5, 18600, Note_on_c, 4, 53, 98
5, 18600, Note_on_c, 4, 65, 97
5, 18629, Note_on_c, 4, 65, 0
5, 18629, Note_on_c, 4, 58, 0
5, 18629, Note_on_c, 4, 46, 0
5, 18629, Note_on_c, 4, 53, 0
5, 18660, Note_on_c, 4, 58, 103
5, 18660, Note_on_c, 4, 65, 80
5, 18660, Note_on_c, 4, 53, 92
5, 18689, Note_on_c, 4, 53, 0
5, 18689, Note_on_c, 4, 65, 0
5, 18689, Note_on_c, 4, 58, 0
5, 18720, Note_on_c, 4, 58, 114
5, 18720, Note_on_c, 4, 65, 92
5, 18720, Note_on_c, 4, 53, 100
5, 18720, Note_on_c, 4, 46, 120
5, 18749, Note_on_c, 4, 46, 0
5, 18749, Note_on_c, 4, 58, 0
5, 18749, Note_on_c, 4, 65, 0
5, 18749, Note_on_c, 4, 53, 0
5, 18780, Note_on_c, 4, 58, 112
5, 18780, Note_on_c, 4, 65, 84
5, 18780, Note_on_c, 4, 46, 107
5, 18780, Note_on_c, 4, 53, 98
5, 18809, Note_on_c, 4, 53, 0
5, 18809, Note_on_c, 4, 58, 0
5, 18809, Note_on_c, 4, 65, 0
5, 18809, Note_on_c, 4, 46, 0
5, 18840, Note_on_c, 4, 58, 120
5, 18840, Note_on_c, 4, 65, 110
5, 18840, Note_on_c, 4, 53, 107
5, 18840, Note_on_c, 4, 46, 127
5, 18869, Note_on_c, 4, 46, 0
5, 18869, Note_on_c, 4, 58, 0
5, 18869, Note_on_c, 4, 65, 0
5, 18869, Note_on_c, 4, 53, 0
5, 18960, Note_on_c, 4, 58, 122
5, 18960, Note_on_c, 4, 53, 100
5, 18960, Note_on_c, 4, 65, 109
5, 18960, Note_on_c, 4, 46, 127
5, 18989, Note_on_c, 4, 46, 0
5, 18989, Note_on_c, 4, 58, 0
5, 18989, Note_on_c, 4, 53, 0
5, 18989, Note_on_c, 4, 65, 0
5, 19080, Note_on_c, 4, 46, 127
5, 19080, Note_on_c, 4, 58, 122
5, 19080, Note_on_c, 4, 53, 102
5, 19080, Note_on_c, 4, 65, 91
5, 19109, Note_on_c, 4, 65, 0
5, 19109, Note_on_c, 4, 46, 0
5, 19109, Note_on_c, 4, 58, 0
5, 19109, Note_on_c, 4, 53, 0
5, 19140, Note_on_c, 4, 58, 103
5, 19140, Note_on_c, 4, 65, 85
5, 19140, Note_on_c, 4, 46, 98
5, 19140, Note_on_c, 4, 53, 85
5, 19169, Note_on_c, 4, 53, 0
5, 19169, Note_on_c, 4, 58, 0
5, 19169, Note_on_c, 4, 65, 0
5, 19169, Note_on_c, 4, 46, 0
5, 19200, Note_on_c, 4, 58, 112
5, 19200, Note_on_c, 4, 65, 86
5, 19200, Note_on_c, 4, 53, 102
5, 19200, Note_on_c, 4, 46, 114
5, 19229, Note_on_c, 4, 46, 0
5, 19229, Note_on_c, 4, 58, 0
5, 19229, Note_on_c, 4, 65, 0
5, 19229, Note_on_c, 4, 53, 0
5, 19260, Note_on_c, 4, 58, 103
5, 19260, Note_on_c, 4, 65, 74
5, 19260, Note_on_c, 4, 53, 78
5, 19260, Note_on_c, 4, 46, 114
5, 19287, Control_c, 4, 64, 0
5, 19289, Note_on_c, 4, 46, 0
5, 19289, Note_on_c, 4, 58, 0
5, 19289, Note_on_c, 4, 65, 0
5, 19289, Note_on_c, 4, 53, 0
5, 19320, Note_on_c, 4, 57, 114
5, 19320, Note_on_c, 4, 64, 110
5, 19320, Note_on_c, 4, 45, 125
5, 19320, Note_on_c, 4, 52, 110
5, 19338, Control_c, 4, 64, 127
5, 19380, Note_on_c, 4, 64, 0
5, 19410, Note_on_c, 4, 57, 0
5, 19410, Note_on_c, 4, 45, 0
5, 19410, Note_on_c, 4, 52, 0
5, 19440, Note_on_c, 4, 45, 112
5, 19440, Note_on_c, 4, 57, 100
5, 19440, Note_on_c, 4, 52, 118
5, 19440, Note_on_c, 4, 64, 97
5, 19469, Note_on_c, 4, 64, 0
5, 19469, Note_on_c, 4, 45, 0
5, 19469, Note_on_c, 4, 57, 0
5, 19469, Note_on_c, 4, 52, 0
5, 19560, Note_on_c, 4, 57, 106
5, 19560, Note_on_c, 4, 52, 110
5, 19560, Note_on_c, 4, 64, 106
5, 19560, Note_on_c, 4, 45, 120
5, 19589, Note_on_c, 4, 45, 0
5, 19589, Note_on_c, 4, 57, 0
5, 19589, Note_on_c, 4, 52, 0
5, 19589, Note_on_c, 4, 64, 0
5, 19620, Note_on_c, 4, 57, 95
5, 19620, Note_on_c, 4, 52, 94
5, 19620, Note_on_c, 4, 64, 92
5, 19649, Note_on_c, 4, 64, 0
5, 19649, Note_on_c, 4, 52, 0
5, 19649, Note_on_c, 4, 57, 0
5, 19680, Note_on_c, 4, 57, 112
5, 19680, Note_on_c, 4, 64, 109
5, 19680, Note_on_c, 4, 52, 118
5, 19680, Note_on_c, 4, 45, 114
5, 19709, Note_on_c, 4, 45, 0
5, 19709, Note_on_c, 4, 57, 0
5, 19709, Note_on_c, 4, 64, 0
5, 19709, Note_on_c, 4, 52, 0
5, 19740, Note_on_c, 4, 64, 77
5, 19740, Note_on_c, 4, 57, 102
5, 19740, Note_on_c, 4, 52, 100
5, 19740, Note_on_c, 4, 45, 89
5, 19769, Note_on_c, 4, 45, 0
5, 19769, Note_on_c, 4, 64, 0
5, 19769, Note_on_c, 4, 57, 0
5, 19769, Note_on_c, 4, 52, 0
5, 19800, Note_on_c, 4, 57, 114
5, 19800, Note_on_c, 4, 64, 100
5, 19800, Note_on_c, 4, 52, 117
5, 19800, Note_on_c, 4, 45, 110
5, 19829, Note_on_c, 4, 52, 0
5, 19829, Note_on_c, 4, 57, 0
5, 19860, Note_on_c, 4, 64, 0
5, 19860, Note_on_c, 4, 45, 0
5, 19920, Note_on_c, 4, 64, 95
5, 19920, Note_on_c, 4, 57, 110
5, 19920, Note_on_c, 4, 52, 117
5, 19920, Note_on_c, 4, 45, 120
5, 19949, Note_on_c, 4, 45, 0
5, 19949, Note_on_c, 4, 52, 0
5, 19949, Note_on_c, 4, 57, 0
5, 19980, Note_on_c, 4, 64, 0
5, 20040, Note_on_c, 4, 45, 120
5, 20040, Note_on_c, 4, 52, 118
5, 20040, Note_on_c, 4, 57, 117
5, 20040, Note_on_c, 4, 64, 114
5, 20069, Note_on_c, 4, 64, 0
5, 20069, Note_on_c, 4, 45, 0
5, 20069, Note_on_c, 4, 52, 0
5, 20069, Note_on_c, 4, 57, 0
5, 20100, Note_on_c, 4, 45, 112
5, 20100, Note_on_c, 4, 57, 100
5, 20100, Note_on_c, 4, 52, 103
5, 20100, Note_on_c, 4, 64, 89
5, 20129, Note_on_c, 4, 64, 0
5, 20129, Note_on_c, 4, 45, 0
5, 20129, Note_on_c, 4, 57, 0
5, 20129, Note_on_c, 4, 52, 0
5, 20160, Note_on_c, 4, 45, 106
5, 20160, Note_on_c, 4, 57, 103
5, 20160, Note_on_c, 4, 52, 110
5, 20160, Note_on_c, 4, 64, 92
5, 20189, Note_on_c, 4, 64, 0
5, 20189, Note_on_c, 4, 45, 0
5, 20189, Note_on_c, 4, 57, 0
5, 20189, Note_on_c, 4, 52, 0
5, 20215, Control_c, 4, 64, 127
5, 20220, Note_on_c, 4, 57, 127
5, 20220, Note_on_c, 4, 64, 118
5, 20220, Note_on_c, 4, 52, 127
5, 20220, Note_on_c, 4, 45, 127
5, 20246, Control_c, 4, 64, 0
5, 20249, Note_on_c, 4, 45, 0
5, 20249, Note_on_c, 4, 57, 0
5, 20249, Note_on_c, 4, 64, 0
5, 20249, Note_on_c, 4, 52, 0
5, 20280, Note_on_c, 4, 43, 112
5, 20280, Note_on_c, 4, 59, 127
5, 20280, Note_on_c, 4, 62, 120
5, 20280, Note_on_c, 4, 55, 117
5, 20294, Control_c, 4, 64, 127
5, 20340, Note_on_c, 4, 55, 0
5, 20340, Note_on_c, 4, 43, 0
5, 20340, Note_on_c, 4, 59, 0
5, 20340, Note_on_c, 4, 62, 0
5, 20400, Note_on_c, 4, 43, 122
5, 20400, Note_on_c, 4, 59, 118
5, 20400, Note_on_c, 4, 62, 117
5, 20400, Note_on_c, 4, 55, 118
5, 20460, Note_on_c, 4, 55, 0
5, 20460, Note_on_c, 4, 43, 0
5, 20460, Note_on_c, 4, 59, 0
5, 20460, Note_on_c, 4, 62, 0
5, 20520, Note_on_c, 4, 59, 110
5, 20520, Note_on_c, 4, 62, 100
5, 20520, Note_on_c, 4, 43, 117
5, 20520, Note_on_c, 4, 55, 114
5, 20549, Note_on_c, 4, 55, 0
5, 20549, Note_on_c, 4, 59, 0
5, 20549, Note_on_c, 4, 62, 0
5, 20580, Note_on_c, 4, 43, 0
5, 20580, Note_on_c, 4, 59, 103
5, 20580, Note_on_c, 4, 62, 102
5, 20580, Note_on_c, 4, 55, 100
5, 20609, Note_on_c, 4, 55, 0
5, 20609, Note_on_c, 4, 62, 0
5, 20609, Note_on_c, 4, 59, 0
5, 20640, Note_on_c, 4, 43, 127
5, 20640, Note_on_c, 4, 59, 118
5, 20640, Note_on_c, 4, 62, 107
5, 20640, Note_on_c, 4, 55, 106
5, 20669, Note_on_c, 4, 55, 0
5, 20669, Note_on_c, 4, 43, 0
5, 20669, Note_on_c, 4, 59, 0
5, 20669, Note_on_c, 4, 62, 0
5, 20740, Control_c, 4, 64, 0
5, 20760, Note_on_c, 4, 38, 125
5, 20760, Note_on_c, 4, 57, 122
5, 20760, Note_on_c, 4, 54, 127
5, 20760, Note_on_c, 4, 62, 98
5, 20781, Control_c, 4, 64, 127
5, 20820, Note_on_c, 4, 62, 0
5, 20850, Note_on_c, 4, 38, 0
5, 20850, Note_on_c, 4, 57, 0
5, 20850, Note_on_c, 4, 54, 0
5, 20880, Note_on_c, 4, 62, 94
5, 20880, Note_on_c, 4, 38, 109
5, 20880, Note_on_c, 4, 54, 127
5, 20880, Note_on_c, 4, 57, 106
5, 20940, Note_on_c, 4, 57, 0
5, 20940, Note_on_c, 4, 62, 0
5, 20940, Note_on_c, 4, 38, 0
5, 20940, Note_on_c, 4, 54, 0
5, 21000, Note_on_c, 4, 57, 97
5, 21000, Note_on_c, 4, 62, 86
5, 21000, Note_on_c, 4, 54, 91
5, 21000, Note_on_c, 4, 38, 125
5, 21029, Note_on_c, 4, 54, 0
5, 21029, Note_on_c, 4, 57, 0
5, 21029, Note_on_c, 4, 62, 0
5, 21060, Note_on_c, 4, 38, 0
5, 21060, Note_on_c, 4, 57, 103
5, 21060, Note_on_c, 4, 54, 110
5, 21060, Note_on_c, 4, 62, 91
5, 21089, Note_on_c, 4, 62, 0
5, 21089, Note_on_c, 4, 54, 0
5, 21089, Note_on_c, 4, 57, 0
5, 21120, Note_on_c, 4, 54, 127
5, 21120, Note_on_c, 4, 57, 127
5, 21120, Note_on_c, 4, 62, 106
5, 21120, Note_on_c, 4, 38, 118
5, 21149, Note_on_c, 4, 38, 0
5, 21149, Note_on_c, 4, 54, 0
5, 21149, Note_on_c, 4, 57, 0
5, 21180, Note_on_c, 4, 62, 0
5, 21201, Control_c, 4, 64, 0
5, 21240, Note_on_c, 4, 60, 125
5, 21240, Note_on_c, 4, 64, 118
5, 21240, Note_on_c, 4, 45, 125
5, 21240, Note_on_c, 4, 57, 107
5, 21254, Control_c, 4, 64, 127
5, 21300, Note_on_c, 4, 57, 0
5, 21300, Note_on_c, 4, 45, 0
5, 21300, Note_on_c, 4, 60, 0
5, 21330, Note_on_c, 4, 64, 0
5, 21360, Note_on_c, 4, 45, 89
5, 21360, Note_on_c, 4, 60, 127
5, 21360, Note_on_c, 4, 64, 120
5, 21360, Note_on_c, 4, 57, 117
5, 21389, Note_on_c, 4, 57, 0
5, 21389, Note_on_c, 4, 64, 0
5, 21389, Note_on_c, 4, 60, 0
5, 21420, Note_on_c, 4, 45, 0
5, 21480, Note_on_c, 4, 60, 127
5, 21480, Note_on_c, 4, 64, 118
5, 21480, Note_on_c, 4, 57, 109
5, 21480, Note_on_c, 4, 45, 106
5, 21509, Note_on_c, 4, 45, 0
5, 21509, Note_on_c, 4, 60, 0
5, 21509, Note_on_c, 4, 64, 0
5, 21509, Note_on_c, 4, 57, 0
5, 21540, Note_on_c, 4, 60, 122
5, 21540, Note_on_c, 4, 57, 102
5, 21540, Note_on_c, 4, 64, 107
5, 21569, Note_on_c, 4, 64, 0
5, 21569, Note_on_c, 4, 57, 0
5, 21569, Note_on_c, 4, 60, 0
5, 21600, Note_on_c, 4, 45, 110
5, 21600, Note_on_c, 4, 60, 127
5, 21600, Note_on_c, 4, 64, 117
5, 21600, Note_on_c, 4, 57, 117
5, 21660, Note_on_c, 4, 57, 0
5, 21660, Note_on_c, 4, 45, 0
5, 21660, Note_on_c, 4, 60, 0
5, 21660, Note_on_c, 4, 64, 0
5, 21692, Control_c, 4, 64, 0
5, 21720, Note_on_c, 4, 64, 122
5, 21720, Note_on_c, 4, 60, 127
5, 21720, Note_on_c, 4, 45, 127
5, 21720, Note_on_c, 4, 57, 112
5, 21733, Control_c, 4, 64, 127
5, 21780, Note_on_c, 4, 57, 0
5, 21780, Note_on_c, 4, 64, 0
5, 21780, Note_on_c, 4, 60, 0
5, 21780, Note_on_c, 4, 45, 0
5, 21840, Note_on_c, 4, 45, 106
5, 21840, Note_on_c, 4, 60, 122
5, 21840, Note_on_c, 4, 64, 110
5, 21840, Note_on_c, 4, 57, 98
5, 21869, Note_on_c, 4, 57, 0
5, 21869, Note_on_c, 4, 45, 0
5, 21869, Note_on_c, 4, 60, 0
5, 21869, Note_on_c, 4, 64, 0
5, 21900, Note_on_c, 4, 60, 122
5, 21900, Note_on_c, 4, 57, 110
5, 21900, Note_on_c, 4, 64, 107
5, 21900, Note_on_c, 4, 45, 106
5, 21929, Note_on_c, 4, 57, 0
5, 21960, Note_on_c, 4, 60, 0
5, 21960, Note_on_c, 4, 64, 0
5, 21960, Note_on_c, 4, 45, 0
5, 22020, Note_on_c, 4, 60, 127
5, 22020, Note_on_c, 4, 64, 120
5, 22020, Note_on_c, 4, 45, 117
5, 22020, Note_on_c, 4, 57, 103
5, 22049, Note_on_c, 4, 57, 0
5, 22049, Note_on_c, 4, 60, 0
5, 22049, Note_on_c, 4, 64, 0
5, 22049, Note_on_c, 4, 45, 0
5, 22080, Note_on_c, 4, 60, 122
5, 22080, Note_on_c, 4, 57, 110
5, 22080, Note_on_c, 4, 64, 109
5, 22080, Note_on_c, 4, 45, 114
5, 22109, Note_on_c, 4, 45, 0
5, 22109, Note_on_c, 4, 60, 0
5, 22109, Note_on_c, 4, 57, 0
5, 22109, Note_on_c, 4, 64, 0
5, 22187, Control_c, 4, 64, 0
5, 22200, Note_on_c, 4, 43, 112
5, 22200, Note_on_c, 4, 59, 127
5, 22200, Note_on_c, 4, 62, 120
5, 22200, Note_on_c, 4, 55, 117
5, 22214, Control_c, 4, 64, 127
5, 22260, Note_on_c, 4, 55, 0
5, 22260, Note_on_c, 4, 43, 0
5, 22260, Note_on_c, 4, 59, 0
5, 22260, Note_on_c, 4, 62, 0
5, 22320, Note_on_c, 4, 43, 122
5, 22320, Note_on_c, 4, 59, 118
5, 22320, Note_on_c, 4, 62, 117
5, 22320, Note_on_c, 4, 55, 118
5, 22380, Note_on_c, 4, 55, 0
5, 22380, Note_on_c, 4, 43, 0
5, 22380, Note_on_c, 4, 59, 0
5, 22380, Note_on_c, 4, 62, 0
5, 22440, Note_on_c, 4, 59, 110
5, 22440, Note_on_c, 4, 62, 100
5, 22440, Note_on_c, 4, 43, 117
5, 22440, Note_on_c, 4, 55, 114
5, 22469, Note_on_c, 4, 55, 0
5, 22469, Note_on_c, 4, 59, 0
5, 22469, Note_on_c, 4, 62, 0
5, 22500, Note_on_c, 4, 43, 0
5, 22500, Note_on_c, 4, 59, 103
5, 22500, Note_on_c, 4, 62, 102
5, 22500, Note_on_c, 4, 55, 100
5, 22529, Note_on_c, 4, 55, 0
5, 22529, Note_on_c, 4, 62, 0
5, 22529, Note_on_c, 4, 59, 0
5, 22560, Note_on_c, 4, 43, 127
5, 22560, Note_on_c, 4, 59, 118
5, 22560, Note_on_c, 4, 62, 107
5, 22560, Note_on_c, 4, 55, 106
5, 22589, Note_on_c, 4, 55, 0
5, 22589, Note_on_c, 4, 43, 0
5, 22589, Note_on_c, 4, 59, 0
5, 22589, Note_on_c, 4, 62, 0
5, 22660, Control_c, 4, 64, 0
5, 22680, Note_on_c, 4, 38, 125
5, 22680, Note_on_c, 4, 57, 122
5, 22680, Note_on_c, 4, 54, 127
5, 22680, Note_on_c, 4, 62, 98
5, 22701, Control_c, 4, 64, 127
5, 22740, Note_on_c, 4, 62, 0
5, 22770, Note_on_c, 4, 38, 0
5, 22770, Note_on_c, 4, 57, 0
5, 22770, Note_on_c, 4, 54, 0
5, 22800, Note_on_c, 4, 62, 94
5, 22800, Note_on_c, 4, 38, 109
5, 22800, Note_on_c, 4, 54, 127
5, 22800, Note_on_c, 4, 57, 106
5, 22860, Note_on_c, 4, 57, 0
5, 22860, Note_on_c, 4, 62, 0
5, 22860, Note_on_c, 4, 38, 0
5, 22860, Note_on_c, 4, 54, 0
5, 22920, Note_on_c, 4, 57, 97
5, 22920, Note_on_c, 4, 62, 86
5, 22920, Note_on_c, 4, 54, 91
5, 22920, Note_on_c, 4, 38, 125
5, 22949, Note_on_c, 4, 54, 0
5, 22949, Note_on_c, 4, 57, 0
5, 22949, Note_on_c, 4, 62, 0
5, 22980, Note_on_c, 4, 38, 0
5, 22980, Note_on_c, 4, 57, 103
5, 22980, Note_on_c, 4, 54, 110
5, 22980, Note_on_c, 4, 62, 91
5, 23009, Note_on_c, 4, 62, 0
5, 23009, Note_on_c, 4, 54, 0
5, 23009, Note_on_c, 4, 57, 0
5, 23040, Note_on_c, 4, 54, 127
5, 23040, Note_on_c, 4, 57, 127
5, 23040, Note_on_c, 4, 62, 106
5, 23040, Note_on_c, 4, 38, 118
5, 23069, Note_on_c, 4, 38, 0
5, 23069, Note_on_c, 4, 54, 0
5, 23069, Note_on_c, 4, 57, 0
5, 23100, Note_on_c, 4, 62, 0
5, 23121, Control_c, 4, 64, 0
5, 23160, Note_on_c, 4, 60, 125
5, 23160, Note_on_c, 4, 64, 118
5, 23160, Note_on_c, 4, 45, 125
5, 23160, Note_on_c, 4, 57, 107
5, 23174, Control_c, 4, 64, 127
5, 23220, Note_on_c, 4, 57, 0
5, 23220, Note_on_c, 4, 45, 0
5, 23220, Note_on_c, 4, 60, 0
5, 23250, Note_on_c, 4, 64, 0
5, 23280, Note_on_c, 4, 45, 89
5, 23280, Note_on_c, 4, 60, 127
5, 23280, Note_on_c, 4, 64, 120
5, 23280, Note_on_c, 4, 57, 117
5, 23309, Note_on_c, 4, 57, 0
5, 23309, Note_on_c, 4, 64, 0
5, 23309, Note_on_c, 4, 60, 0
5, 23340, Note_on_c, 4, 45, 0
5, 23400, Note_on_c, 4, 60, 127
5, 23400, Note_on_c, 4, 64, 118
5, 23400, Note_on_c, 4, 57, 109
5, 23400, Note_on_c, 4, 45, 106
5, 23429, Note_on_c, 4, 45, 0
5, 23429, Note_on_c, 4, 60, 0
5, 23429, Note_on_c, 4, 64, 0
5, 23429, Note_on_c, 4, 57, 0
5, 23460, Note_on_c, 4, 60, 122
5, 23460, Note_on_c, 4, 57, 102
5, 23460, Note_on_c, 4, 64, 107
5, 23489, Note_on_c, 4, 64, 0
5, 23489, Note_on_c, 4, 57, 0
5, 23489, Note_on_c, 4, 60, 0
5, 23520, Note_on_c, 4, 45, 110
5, 23520, Note_on_c, 4, 60, 127
5, 23520, Note_on_c, 4, 64, 117
5, 23520, Note_on_c, 4, 57, 117
5, 23580, Note_on_c, 4, 57, 0
5, 23580, Note_on_c, 4, 45, 0
5, 23580, Note_on_c, 4, 60, 0
5, 23580, Note_on_c, 4, 64, 0
5, 23612, Control_c, 4, 64, 0
5, 23640, Note_on_c, 4, 64, 122
5, 23640, Note_on_c, 4, 60, 127
5, 23640, Note_on_c, 4, 45, 127
5, 23640, Note_on_c, 4, 57, 112
5, 23653, Control_c, 4, 64, 127
5, 23700, Note_on_c, 4, 57, 0
5, 23700, Note_on_c, 4, 64, 0
5, 23700, Note_on_c, 4, 60, 0
5, 23700, Note_on_c, 4, 45, 0
5, 23760, Note_on_c, 4, 45, 106
5, 23760, Note_on_c, 4, 60, 122
5, 23760, Note_on_c, 4, 64, 110
5, 23760, Note_on_c, 4, 57, 98
5, 23789, Note_on_c, 4, 57, 0
5, 23789, Note_on_c, 4, 45, 0
5, 23789, Note_on_c, 4, 60, 0
5, 23789, Note_on_c, 4, 64, 0
5, 23820, Note_on_c, 4, 60, 122
5, 23820, Note_on_c, 4, 57, 110
5, 23820, Note_on_c, 4, 64, 107
5, 23820, Note_on_c, 4, 45, 106
5, 23849, Note_on_c, 4, 57, 0
5, 23880, Note_on_c, 4, 60, 0
5, 23880, Note_on_c, 4, 64, 0
5, 23880, Note_on_c, 4, 45, 0
5, 23940, Note_on_c, 4, 60, 127
5, 23940, Note_on_c, 4, 64, 120
5, 23940, Note_on_c, 4, 45, 117
5, 23940, Note_on_c, 4, 57, 103
5, 23969, Note_on_c, 4, 57, 0
5, 23969, Note_on_c, 4, 60, 0
5, 23969, Note_on_c, 4, 64, 0
5, 23969, Note_on_c, 4, 45, 0
5, 24000, Note_on_c, 4, 60, 122
5, 24000, Note_on_c, 4, 57, 110
5, 24000, Note_on_c, 4, 64, 109
5, 24000, Note_on_c, 4, 45, 114
5, 24029, Note_on_c, 4, 45, 0
5, 24029, Note_on_c, 4, 60, 0
5, 24029, Note_on_c, 4, 57, 0
5, 24029, Note_on_c, 4, 64, 0
5, 24107, Control_c, 4, 64, 0
5, 24120, Note_on_c, 4, 43, 112
5, 24120, Note_on_c, 4, 59, 127
5, 24120, Note_on_c, 4, 62, 120
5, 24120, Note_on_c, 4, 55, 117
5, 24134, Control_c, 4, 64, 127
5, 24180, Note_on_c, 4, 55, 0
5, 24180, Note_on_c, 4, 43, 0
5, 24180, Note_on_c, 4, 59, 0
5, 24180, Note_on_c, 4, 62, 0
5, 24240, Note_on_c, 4, 43, 122
5, 24240, Note_on_c, 4, 59, 118
5, 24240, Note_on_c, 4, 62, 117
5, 24240, Note_on_c, 4, 55, 118
5, 24300, Note_on_c, 4, 55, 0
5, 24300, Note_on_c, 4, 43, 0
5, 24300, Note_on_c, 4, 59, 0
5, 24300, Note_on_c, 4, 62, 0
5, 24360, Note_on_c, 4, 59, 110
5, 24360, Note_on_c, 4, 62, 100
5, 24360, Note_on_c, 4, 43, 117
5, 24360, Note_on_c, 4, 55, 114
5, 24389, Note_on_c, 4, 55, 0
5, 24389, Note_on_c, 4, 59, 0
5, 24389, Note_on_c, 4, 62, 0
5, 24420, Note_on_c, 4, 43, 0
5, 24420, Note_on_c, 4, 59, 103
5, 24420, Note_on_c, 4, 62, 102
5, 24420, Note_on_c, 4, 55, 100
5, 24449, Note_on_c, 4, 55, 0
5, 24449, Note_on_c, 4, 62, 0
5, 24449, Note_on_c, 4, 59, 0
5, 24480, Note_on_c, 4, 43, 127
5, 24480, Note_on_c, 4, 59, 118
5, 24480, Note_on_c, 4, 62, 107
5, 24480, Note_on_c, 4, 55, 106
5, 24509, Note_on_c, 4, 55, 0
5, 24509, Note_on_c, 4, 43, 0
5, 24509, Note_on_c, 4, 59, 0
5, 24509, Note_on_c, 4, 62, 0
5, 24580, Control_c, 4, 64, 0
5, 24600, Note_on_c, 4, 38, 125
5, 24600, Note_on_c, 4, 57, 122
5, 24600, Note_on_c, 4, 54, 127
5, 24600, Note_on_c, 4, 62, 98
5, 24621, Control_c, 4, 64, 127
5, 24660, Note_on_c, 4, 62, 0
5, 24690, Note_on_c, 4, 38, 0
5, 24690, Note_on_c, 4, 57, 0
5, 24690, Note_on_c, 4, 54, 0
5, 24720, Note_on_c, 4, 62, 94
5, 24720, Note_on_c, 4, 38, 109
5, 24720, Note_on_c, 4, 54, 127
5, 24720, Note_on_c, 4, 57, 106
5, 24780, Note_on_c, 4, 57, 0
5, 24780, Note_on_c, 4, 62, 0
5, 24780, Note_on_c, 4, 38, 0
5, 24780, Note_on_c, 4, 54, 0
5, 24840, Note_on_c, 4, 57, 97
5, 24840, Note_on_c, 4, 62, 86
5, 24840, Note_on_c, 4, 54, 91
5, 24840, Note_on_c, 4, 38, 125
5, 24869, Note_on_c, 4, 54, 0
5, 24869, Note_on_c, 4, 57, 0
5, 24869, Note_on_c, 4, 62, 0
5, 24900, Note_on_c, 4, 38, 0
5, 24900, Note_on_c, 4, 57, 103
5, 24900, Note_on_c, 4, 54, 110
5, 24900, Note_on_c, 4, 62, 91
5, 24929, Note_on_c, 4, 62, 0
5, 24929, Note_on_c, 4, 54, 0
5, 24929, Note_on_c, 4, 57, 0
5, 24960, Note_on_c, 4, 54, 127
5, 24960, Note_on_c, 4, 57, 127
5, 24960, Note_on_c, 4, 62, 106
5, 24960, Note_on_c, 4, 38, 118
5, 24989, Note_on_c, 4, 38, 0
5, 24989, Note_on_c, 4, 54, 0
5, 24989, Note_on_c, 4, 57, 0
5, 25020, Note_on_c, 4, 62, 0
5, 25041, Control_c, 4, 64, 0
5, 25080, Note_on_c, 4, 60, 125
5, 25080, Note_on_c, 4, 64, 118
5, 25080, Note_on_c, 4, 45, 125
5, 25080, Note_on_c, 4, 57, 107
5, 25094, Control_c, 4, 64, 127
5, 25140, Note_on_c, 4, 57, 0
5, 25140, Note_on_c, 4, 45, 0
5, 25140, Note_on_c, 4, 60, 0
5, 25170, Note_on_c, 4, 64, 0
5, 25200, Note_on_c, 4, 45, 89
5, 25200, Note_on_c, 4, 60, 127
5, 25200, Note_on_c, 4, 64, 120
5, 25200, Note_on_c, 4, 57, 117
5, 25229, Note_on_c, 4, 57, 0
5, 25229, Note_on_c, 4, 64, 0
5, 25229, Note_on_c, 4, 60, 0
5, 25260, Note_on_c, 4, 45, 0
5, 25320, Note_on_c, 4, 60, 127
5, 25320, Note_on_c, 4, 64, 118
5, 25320, Note_on_c, 4, 57, 109
5, 25320, Note_on_c, 4, 45, 106
5, 25349, Note_on_c, 4, 45, 0
5, 25349, Note_on_c, 4, 60, 0
5, 25349, Note_on_c, 4, 64, 0
5, 25349, Note_on_c, 4, 57, 0
5, 25380, Note_on_c, 4, 60, 122
5, 25380, Note_on_c, 4, 57, 102
5, 25380, Note_on_c, 4, 64, 107
5, 25409, Note_on_c, 4, 64, 0
5, 25409, Note_on_c, 4, 57, 0
5, 25409, Note_on_c, 4, 60, 0
5, 25440, Note_on_c, 4, 45, 110
5, 25440, Note_on_c, 4, 60, 127
5, 25440, Note_on_c, 4, 64, 117
5, 25440, Note_on_c, 4, 57, 117
5, 25500, Note_on_c, 4, 57, 0
5, 25500, Note_on_c, 4, 45, 0
5, 25500, Note_on_c, 4, 60, 0
5, 25500, Note_on_c, 4, 64, 0
5, 25532, Control_c, 4, 64, 0
5, 25560, Note_on_c, 4, 64, 122
5, 25560, Note_on_c, 4, 60, 127
5, 25560, Note_on_c, 4, 45, 127
5, 25560, Note_on_c, 4, 57, 112
5, 25573, Control_c, 4, 64, 127
5, 25620, Note_on_c, 4, 57, 0
5, 25620, Note_on_c, 4, 64, 0
5, 25620, Note_on_c, 4, 60, 0
5, 25620, Note_on_c, 4, 45, 0
5, 25680, Note_on_c, 4, 45, 106
5, 25680, Note_on_c, 4, 60, 122
5, 25680, Note_on_c, 4, 64, 110
5, 25680, Note_on_c, 4, 57, 98
5, 25709, Note_on_c, 4, 57, 0
5, 25709, Note_on_c, 4, 45, 0
5, 25709, Note_on_c, 4, 60, 0
5, 25709, Note_on_c, 4, 64, 0
5, 25740, Note_on_c, 4, 60, 122
5, 25740, Note_on_c, 4, 57, 110
5, 25740, Note_on_c, 4, 64, 107
5, 25740, Note_on_c, 4, 45, 106
5, 25769, Note_on_c, 4, 57, 0
5, 25800, Note_on_c, 4, 60, 0
5, 25800, Note_on_c, 4, 64, 0
5, 25800, Note_on_c, 4, 45, 0
5, 25860, Note_on_c, 4, 60, 127
5, 25860, Note_on_c, 4, 64, 120
5, 25860, Note_on_c, 4, 45, 117
5, 25860, Note_on_c, 4, 57, 103
5, 25889, Note_on_c, 4, 57, 0
5, 25889, Note_on_c, 4, 60, 0
5, 25889, Note_on_c, 4, 64, 0
5, 25889, Note_on_c, 4, 45, 0
5, 25920, Note_on_c, 4, 60, 122
5, 25920, Note_on_c, 4, 57, 110
5, 25920, Note_on_c, 4, 64, 109
5, 25920, Note_on_c, 4, 45, 114
5, 25949, Note_on_c, 4, 45, 0
5, 25949, Note_on_c, 4, 60, 0
5, 25949, Note_on_c, 4, 57, 0
5, 25949, Note_on_c, 4, 64, 0
5, 26027, Control_c, 4, 64, 0
5, 26040, Note_on_c, 4, 60, 122
5, 26040, Control_c, 4, 64, 127
5, 26040, Note_on_c, 4, 48, 107
5, 26040, Note_on_c, 4, 55, 117
5, 26040, Note_on_c, 4, 64, 117
5, 26100, Note_on_c, 4, 64, 0
5, 26100, Note_on_c, 4, 60, 0
5, 26100, Note_on_c, 4, 48, 0
5, 26100, Note_on_c, 4, 55, 0
5, 26160, Note_on_c, 4, 48, 114
5, 26160, Note_on_c, 4, 55, 110
5, 26160, Note_on_c, 4, 60, 120
5, 26160, Note_on_c, 4, 64, 107
5, 26189, Note_on_c, 4, 64, 0
5, 26189, Note_on_c, 4, 60, 0
5, 26189, Note_on_c, 4, 55, 0
5, 26220, Note_on_c, 4, 48, 0
5, 26280, Note_on_c, 4, 60, 125
5, 26280, Note_on_c, 4, 55, 109
5, 26280, Note_on_c, 4, 64, 107
5, 26280, Note_on_c, 4, 48, 125
5, 26309, Note_on_c, 4, 64, 0
5, 26309, Note_on_c, 4, 60, 0
5, 26309, Note_on_c, 4, 55, 0
5, 26340, Note_on_c, 4, 48, 0
5, 26340, Note_on_c, 4, 60, 106
5, 26340, Note_on_c, 4, 55, 85
5, 26340, Note_on_c, 4, 64, 100
5, 26369, Note_on_c, 4, 64, 0
5, 26369, Note_on_c, 4, 55, 0
5, 26369, Note_on_c, 4, 60, 0
5, 26400, Note_on_c, 4, 60, 122
5, 26400, Note_on_c, 4, 64, 109
5, 26400, Note_on_c, 4, 55, 107
5, 26400, Note_on_c, 4, 48, 107
5, 26429, Note_on_c, 4, 48, 0
5, 26429, Note_on_c, 4, 60, 0
5, 26429, Note_on_c, 4, 64, 0
5, 26429, Note_on_c, 4, 55, 0
5, 26460, Note_on_c, 4, 64, 94
5, 26460, Note_on_c, 4, 60, 100
5, 26460, Note_on_c, 4, 55, 84
5, 26460, Note_on_c, 4, 48, 67
5, 26489, Note_on_c, 4, 48, 0
5, 26489, Note_on_c, 4, 64, 0
5, 26489, Note_on_c, 4, 60, 0
5, 26489, Note_on_c, 4, 55, 0
5, 26520, Note_on_c, 4, 60, 127
5, 26520, Note_on_c, 4, 55, 110
5, 26520, Note_on_c, 4, 64, 118
5, 26520, Note_on_c, 4, 48, 114
5, 26580, Note_on_c, 4, 48, 0
5, 26580, Note_on_c, 4, 60, 0
5, 26580, Note_on_c, 4, 55, 0
5, 26580, Note_on_c, 4, 64, 0
5, 26640, Note_on_c, 4, 60, 122
5, 26640, Note_on_c, 4, 55, 91
5, 26640, Note_on_c, 4, 48, 118
5, 26640, Note_on_c, 4, 64, 103
5, 26669, Note_on_c, 4, 64, 0
5, 26669, Note_on_c, 4, 60, 0
5, 26669, Note_on_c, 4, 55, 0
5, 26669, Note_on_c, 4, 48, 0
5, 26760, Note_on_c, 4, 48, 122
5, 26760, Note_on_c, 4, 55, 109
5, 26760, Note_on_c, 4, 60, 117
5, 26760, Note_on_c, 4, 64, 117
5, 26789, Note_on_c, 4, 64, 0
5, 26789, Note_on_c, 4, 60, 0
5, 26789, Note_on_c, 4, 55, 0
5, 26820, Note_on_c, 4, 48, 0
5, 26820, Note_on_c, 4, 60, 106
5, 26820, Note_on_c, 4, 64, 102
5, 26820, Note_on_c, 4, 55, 92
5, 26820, Note_on_c, 4, 48, 97
5, 26849, Note_on_c, 4, 55, 0
5, 26849, Note_on_c, 4, 60, 0
5, 26849, Note_on_c, 4, 64, 0
5, 26880, Note_on_c, 4, 48, 0
5, 26880, Note_on_c, 4, 55, 95
5, 26880, Note_on_c, 4, 64, 102
5, 26880, Note_on_c, 4, 60, 109
5, 26909, Note_on_c, 4, 60, 0
5, 26909, Note_on_c, 4, 64, 0
5, 26909, Note_on_c, 4, 55, 0
5, 26910, Note_on_c, 4, 48, 106
5, 26939, Note_on_c, 4, 48, 0
5, 26940, Note_on_c, 4, 64, 83
5, 26940, Note_on_c, 4, 55, 63
5, 26940, Note_on_c, 4, 60, 92
5, 26969, Note_on_c, 4, 60, 0
5, 26969, Note_on_c, 4, 55, 0
5, 26969, Note_on_c, 4, 64, 0
5, 27000, Note_on_c, 4, 48, 114
5, 27000, Note_on_c, 4, 55, 112
5, 27000, Note_on_c, 4, 60, 120
5, 27000, Note_on_c, 4, 64, 109
5, 27060, Note_on_c, 4, 64, 0
5, 27060, Note_on_c, 4, 48, 0
5, 27060, Note_on_c, 4, 55, 0
5, 27060, Note_on_c, 4, 60, 0
5, 27120, Note_on_c, 4, 60, 112
5, 27120, Note_on_c, 4, 55, 85
5, 27120, Note_on_c, 4, 64, 100
5, 27120, Note_on_c, 4, 48, 89
5, 27149, Note_on_c, 4, 48, 0
5, 27149, Note_on_c, 4, 60, 0
5, 27149, Note_on_c, 4, 55, 0
5, 27149, Note_on_c, 4, 64, 0
5, 27180, Note_on_c, 4, 60, 125
5, 27180, Note_on_c, 4, 55, 109
5, 27180, Note_on_c, 4, 64, 109
5, 27180, Note_on_c, 4, 48, 114
5, 27240, Note_on_c, 4, 48, 0
5, 27240, Note_on_c, 4, 60, 0
5, 27240, Note_on_c, 4, 55, 0
5, 27240, Note_on_c, 4, 64, 0
5, 27300, Note_on_c, 4, 48, 97
5, 27300, Note_on_c, 4, 55, 95
5, 27300, Note_on_c, 4, 60, 120
5, 27300, Note_on_c, 4, 64, 109
5, 27329, Note_on_c, 4, 64, 0
5, 27329, Note_on_c, 4, 48, 0
5, 27329, Note_on_c, 4, 55, 0
5, 27329, Note_on_c, 4, 60, 0
5, 27360, Note_on_c, 4, 60, 127
5, 27360, Note_on_c, 4, 64, 120
5, 27360, Note_on_c, 4, 55, 120
5, 27360, Note_on_c, 4, 48, 125
5, 27420, Note_on_c, 4, 48, 0
5, 27420, Note_on_c, 4, 60, 0
5, 27420, Note_on_c, 4, 64, 0
5, 27420, Note_on_c, 4, 55, 0
5, 27480, Note_on_c, 4, 48, 71
5, 27480, Note_on_c, 4, 60, 122
5, 27480, Note_on_c, 4, 55, 94
5, 27480, Note_on_c, 4, 64, 100
5, 27509, Note_on_c, 4, 64, 0
5, 27509, Note_on_c, 4, 48, 0
5, 27509, Note_on_c, 4, 60, 0
5, 27509, Note_on_c, 4, 55, 0
5, 27540, Note_on_c, 4, 60, 112
5, 27540, Note_on_c, 4, 64, 102
5, 27540, Note_on_c, 4, 55, 100
5, 27540, Note_on_c, 4, 48, 114
5, 27600, Note_on_c, 4, 48, 0
5, 27600, Note_on_c, 4, 60, 0
5, 27600, Note_on_c, 4, 64, 0
5, 27600, Note_on_c, 4, 55, 0
5, 27660, Note_on_c, 4, 48, 97
5, 27660, Note_on_c, 4, 55, 95
5, 27660, Note_on_c, 4, 60, 110
5, 27660, Note_on_c, 4, 64, 92
5, 27689, Note_on_c, 4, 64, 0
5, 27689, Note_on_c, 4, 48, 0
5, 27689, Note_on_c, 4, 55, 0
5, 27689, Note_on_c, 4, 60, 0
5, 27720, Note_on_c, 4, 60, 112
5, 27720, Note_on_c, 4, 64, 102
5, 27720, Note_on_c, 4, 55, 109
5, 27720, Note_on_c, 4, 48, 125
5, 27749, Note_on_c, 4, 55, 0
5, 27749, Note_on_c, 4, 60, 0
5, 27749, Note_on_c, 4, 64, 0
5, 27780, Note_on_c, 4, 60, 112
5, 27780, Note_on_c, 4, 55, 100
5, 27780, Note_on_c, 4, 64, 100
5, 27809, Note_on_c, 4, 64, 0
5, 27809, Note_on_c, 4, 55, 0
5, 27809, Note_on_c, 4, 60, 0
5, 27810, Note_on_c, 4, 48, 0
5, 27840, Note_on_c, 4, 48, 112
5, 27840, Note_on_c, 4, 60, 127
5, 27840, Note_on_c, 4, 64, 107
5, 27840, Note_on_c, 4, 55, 114
5, 27869, Note_on_c, 4, 55, 0
5, 27869, Note_on_c, 4, 48, 0
5, 27869, Note_on_c, 4, 60, 0
5, 27869, Note_on_c, 4, 64, 0
5, 27950, Control_c, 4, 64, 0
5, 27960, Note_on_c, 4, 43, 114
5, 27960, Note_on_c, 4, 59, 110
5, 27960, Note_on_c, 4, 67, 100
5, 27960, Note_on_c, 4, 55, 112
5, 27966, Control_c, 4, 64, 127
5, 28020, Note_on_c, 4, 55, 0
5, 28020, Note_on_c, 4, 43, 0
5, 28020, Note_on_c, 4, 59, 0
5, 28020, Note_on_c, 4, 67, 0
5, 28080, Note_on_c, 4, 43, 114
5, 28080, Note_on_c, 4, 59, 114
5, 28080, Note_on_c, 4, 55, 114
5, 28080, Note_on_c, 4, 67, 92
5, 28109, Note_on_c, 4, 67, 0
5, 28109, Note_on_c, 4, 55, 0
5, 28109, Note_on_c, 4, 59, 0
5, 28140, Note_on_c, 4, 43, 0
5, 28200, Note_on_c, 4, 59, 112
5, 28200, Note_on_c, 4, 55, 110
5, 28200, Note_on_c, 4, 67, 91
5, 28200, Note_on_c, 4, 43, 106
5, 28229, Note_on_c, 4, 43, 0
5, 28229, Note_on_c, 4, 59, 0
5, 28229, Note_on_c, 4, 55, 0
5, 28229, Note_on_c, 4, 67, 0
5, 28260, Note_on_c, 4, 59, 103
5, 28260, Note_on_c, 4, 55, 103
5, 28260, Note_on_c, 4, 67, 78
5, 28289, Note_on_c, 4, 67, 0
5, 28289, Note_on_c, 4, 55, 0
5, 28289, Note_on_c, 4, 59, 0
5, 28320, Note_on_c, 4, 55, 114
5, 28320, Note_on_c, 4, 59, 102
5, 28320, Note_on_c, 4, 67, 84
5, 28320, Note_on_c, 4, 43, 106
5, 28349, Note_on_c, 4, 67, 0
5, 28349, Note_on_c, 4, 55, 0
5, 28349, Note_on_c, 4, 59, 0
5, 28380, Note_on_c, 4, 59, 106
5, 28380, Note_on_c, 4, 55, 85
5, 28380, Note_on_c, 4, 67, 72
5, 28409, Note_on_c, 4, 67, 0
5, 28409, Note_on_c, 4, 55, 0
5, 28409, Note_on_c, 4, 59, 0
5, 28410, Note_on_c, 4, 43, 0
5, 28440, Note_on_c, 4, 59, 120
5, 28440, Note_on_c, 4, 55, 120
5, 28440, Note_on_c, 4, 67, 97
5, 28440, Note_on_c, 4, 43, 97
5, 28500, Note_on_c, 4, 43, 0
5, 28500, Note_on_c, 4, 59, 0
5, 28500, Note_on_c, 4, 55, 0
5, 28500, Note_on_c, 4, 67, 0
5, 28560, Note_on_c, 4, 59, 112
5, 28560, Note_on_c, 4, 55, 112
5, 28560, Note_on_c, 4, 67, 84
5, 28560, Note_on_c, 4, 43, 106
5, 28589, Note_on_c, 4, 67, 0
5, 28589, Note_on_c, 4, 59, 0
5, 28589, Note_on_c, 4, 55, 0
5, 28620, Note_on_c, 4, 43, 0
5, 28680, Note_on_c, 4, 59, 112
5, 28680, Note_on_c, 4, 55, 110
5, 28680, Note_on_c, 4, 67, 89
5, 28680, Note_on_c, 4, 43, 114
5, 28709, Note_on_c, 4, 43, 0
5, 28709, Note_on_c, 4, 59, 0
5, 28709, Note_on_c, 4, 55, 0
5, 28709, Note_on_c, 4, 67, 0
5, 28740, Note_on_c, 4, 59, 103
5, 28740, Note_on_c, 4, 55, 86
5, 28740, Note_on_c, 4, 67, 79
5, 28769, Note_on_c, 4, 67, 0
5, 28769, Note_on_c, 4, 55, 0
5, 28769, Note_on_c, 4, 59, 0
5, 28800, Note_on_c, 4, 59, 106
5, 28800, Note_on_c, 4, 67, 80
5, 28800, Note_on_c, 4, 55, 109
5, 28800, Note_on_c, 4, 43, 97
5, 28829, Note_on_c, 4, 55, 0
5, 28829, Note_on_c, 4, 59, 0
5, 28829, Note_on_c, 4, 67, 0
5, 28860, Note_on_c, 4, 59, 97
5, 28860, Note_on_c, 4, 67, 69
5, 28860, Note_on_c, 4, 55, 91
5, 28889, Note_on_c, 4, 55, 0
5, 28889, Note_on_c, 4, 67, 0
5, 28889, Note_on_c, 4, 59, 0
5, 28890, Note_on_c, 4, 43, 0
5, 28920, Note_on_c, 4, 59, 112
5, 28920, Note_on_c, 4, 55, 118
5, 28920, Note_on_c, 4, 67, 98
5, 28920, Note_on_c, 4, 43, 106
5, 28949, Note_on_c, 4, 55, 0
5, 28949, Note_on_c, 4, 59, 0
5, 28980, Note_on_c, 4, 67, 0
5, 28980, Note_on_c, 4, 43, 0
5, 29040, Note_on_c, 4, 43, 106
5, 29040, Note_on_c, 4, 59, 112
5, 29040, Note_on_c, 4, 55, 120
5, 29040, Note_on_c, 4, 67, 98
5, 29069, Note_on_c, 4, 67, 0
5, 29069, Note_on_c, 4, 43, 0
5, 29069, Note_on_c, 4, 59, 0
5, 29069, Note_on_c, 4, 55, 0
5, 29160, Note_on_c, 4, 59, 103
5, 29160, Note_on_c, 4, 67, 85
5, 29160, Note_on_c, 4, 55, 106
5, 29160, Note_on_c, 4, 43, 97
5, 29189, Note_on_c, 4, 43, 0
5, 29189, Note_on_c, 4, 59, 0
5, 29189, Note_on_c, 4, 67, 0
5, 29189, Note_on_c, 4, 55, 0
5, 29220, Note_on_c, 4, 59, 95
5, 29220, Note_on_c, 4, 67, 72
5, 29220, Note_on_c, 4, 55, 92
5, 29249, Note_on_c, 4, 55, 0
5, 29249, Note_on_c, 4, 67, 0
5, 29249, Note_on_c, 4, 59, 0
5, 29280, Note_on_c, 4, 59, 112
5, 29280, Note_on_c, 4, 67, 86
5, 29280, Note_on_c, 4, 55, 107
5, 29280, Note_on_c, 4, 43, 89
5, 29309, Note_on_c, 4, 55, 0
5, 29309, Note_on_c, 4, 59, 0
5, 29309, Note_on_c, 4, 67, 0
5, 29340, Note_on_c, 4, 67, 75
5, 29340, Note_on_c, 4, 59, 102
5, 29340, Note_on_c, 4, 55, 100
5, 29369, Note_on_c, 4, 55, 0
5, 29369, Note_on_c, 4, 59, 0
5, 29369, Note_on_c, 4, 67, 0
5, 29370, Note_on_c, 4, 43, 0
5, 29400, Note_on_c, 4, 67, 103
5, 29400, Note_on_c, 4, 59, 118
5, 29400, Note_on_c, 4, 43, 107
5, 29400, Note_on_c, 4, 55, 117
5, 29429, Note_on_c, 4, 55, 0
5, 29429, Note_on_c, 4, 59, 0
5, 29460, Note_on_c, 4, 43, 0
5, 29460, Note_on_c, 4, 67, 0
5, 29520, Note_on_c, 4, 59, 120
5, 29520, Note_on_c, 4, 55, 110
5, 29520, Note_on_c, 4, 67, 98
5, 29520, Note_on_c, 4, 43, 106
5, 29549, Note_on_c, 4, 67, 0
5, 29549, Note_on_c, 4, 59, 0
5, 29549, Note_on_c, 4, 55, 0
5, 29580, Note_on_c, 4, 43, 0
5, 29640, Note_on_c, 4, 43, 106
5, 29640, Note_on_c, 4, 59, 112
5, 29640, Note_on_c, 4, 55, 110
5, 29640, Note_on_c, 4, 67, 92
5, 29669, Note_on_c, 4, 67, 0
5, 29669, Note_on_c, 4, 43, 0
5, 29669, Note_on_c, 4, 59, 0
5, 29669, Note_on_c, 4, 55, 0
5, 29700, Note_on_c, 4, 59, 112
5, 29700, Note_on_c, 4, 67, 80
5, 29700, Note_on_c, 4, 55, 107
5, 29700, Note_on_c, 4, 43, 83
5, 29729, Note_on_c, 4, 43, 0
5, 29729, Note_on_c, 4, 59, 0
5, 29729, Note_on_c, 4, 67, 0
5, 29729, Note_on_c, 4, 55, 0
5, 29760, Note_on_c, 4, 59, 114
5, 29760, Note_on_c, 4, 67, 92
5, 29760, Note_on_c, 4, 55, 109
5, 29760, Note_on_c, 4, 43, 89
5, 29789, Note_on_c, 4, 43, 0
5, 29789, Note_on_c, 4, 59, 0
5, 29789, Note_on_c, 4, 67, 0
5, 29789, Note_on_c, 4, 55, 0
5, 29820, Note_on_c, 4, 43, 89
5, 29820, Note_on_c, 4, 55, 120
5, 29820, Note_on_c, 4, 59, 118
5, 29820, Note_on_c, 4, 67, 103
5, 29849, Note_on_c, 4, 67, 0
5, 29849, Note_on_c, 4, 43, 0
5, 29849, Note_on_c, 4, 55, 0
5, 29849, Note_on_c, 4, 59, 0
5, 29880, Note_on_c, 4, 43, 114
5, 29880, Note_on_c, 4, 59, 110
5, 29880, Note_on_c, 4, 67, 100
5, 29880, Note_on_c, 4, 55, 112
5, 29886, Control_c, 4, 64, 127
5, 29940, Note_on_c, 4, 55, 0
5, 29940, Note_on_c, 4, 43, 0
5, 29940, Note_on_c, 4, 59, 0
5, 29940, Note_on_c, 4, 67, 0
5, 30000, Note_on_c, 4, 43, 114
5, 30000, Note_on_c, 4, 59, 114
5, 30000, Note_on_c, 4, 55, 114
5, 30000, Note_on_c, 4, 67, 92
5, 30029, Note_on_c, 4, 67, 0
5, 30029, Note_on_c, 4, 55, 0
5, 30029, Note_on_c, 4, 59, 0
5, 30060, Note_on_c, 4, 43, 0
5, 30120, Note_on_c, 4, 59, 112
5, 30120, Note_on_c, 4, 55, 110
5, 30120, Note_on_c, 4, 67, 91
5, 30120, Note_on_c, 4, 43, 106
5, 30149, Note_on_c, 4, 43, 0
5, 30149, Note_on_c, 4, 59, 0
5, 30149, Note_on_c, 4, 55, 0
5, 30149, Note_on_c, 4, 67, 0
5, 30180, Note_on_c, 4, 59, 103
5, 30180, Note_on_c, 4, 55, 103
5, 30180, Note_on_c, 4, 67, 78
5, 30209, Note_on_c, 4, 67, 0
5, 30209, Note_on_c, 4, 55, 0
5, 30209, Note_on_c, 4, 59, 0
5, 30240, Note_on_c, 4, 55, 114
5, 30240, Note_on_c, 4, 59, 102
5, 30240, Note_on_c, 4, 67, 84
5, 30240, Note_on_c, 4, 43, 106
5, 30269, Note_on_c, 4, 67, 0
5, 30269, Note_on_c, 4, 55, 0
5, 30269, Note_on_c, 4, 59, 0
5, 30300, Note_on_c, 4, 59, 106
5, 30300, Note_on_c, 4, 55, 85
5, 30300, Note_on_c, 4, 67, 72
5, 30329, Note_on_c, 4, 67, 0
5, 30329, Note_on_c, 4, 55, 0
5, 30329, Note_on_c, 4, 59, 0
5, 30330, Note_on_c, 4, 43, 0
5, 30360, Note_on_c, 4, 59, 120
5, 30360, Note_on_c, 4, 55, 120
5, 30360, Note_on_c, 4, 67, 97
5, 30360, Note_on_c, 4, 43, 97
5, 30420, Note_on_c, 4, 43, 0
5, 30420, Note_on_c, 4, 59, 0
5, 30420, Note_on_c, 4, 55, 0
5, 30420, Note_on_c, 4, 67, 0
5, 30480, Note_on_c, 4, 59, 112
5, 30480, Note_on_c, 4, 55, 112
5, 30480, Note_on_c, 4, 67, 84
5, 30480, Note_on_c, 4, 43, 106
5, 30509, Note_on_c, 4, 67, 0
5, 30509, Note_on_c, 4, 59, 0
5, 30509, Note_on_c, 4, 55, 0
5, 30540, Note_on_c, 4, 43, 0
5, 30600, Note_on_c, 4, 59, 112
5, 30600, Note_on_c, 4, 55, 110
5, 30600, Note_on_c, 4, 67, 89
5, 30600, Note_on_c, 4, 43, 114
5, 30629, Note_on_c, 4, 43, 0
5, 30629, Note_on_c, 4, 59, 0
5, 30629, Note_on_c, 4, 55, 0
5, 30629, Note_on_c, 4, 67, 0
5, 30660, Note_on_c, 4, 59, 103
5, 30660, Note_on_c, 4, 55, 86
5, 30660, Note_on_c, 4, 67, 79
5, 30689, Note_on_c, 4, 67, 0
5, 30689, Note_on_c, 4, 55, 0
5, 30689, Note_on_c, 4, 59, 0
5, 30720, Note_on_c, 4, 59, 106
5, 30720, Note_on_c, 4, 67, 80
5, 30720, Note_on_c, 4, 55, 109
5, 30720, Note_on_c, 4, 43, 97
5, 30749, Note_on_c, 4, 55, 0
5, 30749, Note_on_c, 4, 59, 0
5, 30749, Note_on_c, 4, 67, 0
5, 30780, Note_on_c, 4, 59, 97
5, 30780, Note_on_c, 4, 67, 69
5, 30780, Note_on_c, 4, 55, 91
5, 30809, Note_on_c, 4, 55, 0
5, 30809, Note_on_c, 4, 67, 0
5, 30809, Note_on_c, 4, 59, 0
5, 30810, Note_on_c, 4, 43, 0
5, 30840, Note_on_c, 4, 59, 112
5, 30840, Note_on_c, 4, 55, 118
5, 30840, Note_on_c, 4, 67, 98
5, 30840, Note_on_c, 4, 43, 106
5, 30869, Note_on_c, 4, 55, 0
5, 30869, Note_on_c, 4, 59, 0
5, 30900, Note_on_c, 4, 67, 0
5, 30900, Note_on_c, 4, 43, 0
5, 30960, Note_on_c, 4, 43, 106
5, 30960, Note_on_c, 4, 59, 112
5, 30960, Note_on_c, 4, 55, 120
5, 30960, Note_on_c, 4, 67, 98
5, 30989, Note_on_c, 4, 67, 0
5, 30989, Note_on_c, 4, 43, 0
5, 30989, Note_on_c, 4, 59, 0
5, 30989, Note_on_c, 4, 55, 0
5, 31080, Note_on_c, 4, 59, 103
5, 31080, Note_on_c, 4, 67, 85
5, 31080, Note_on_c, 4, 55, 106
5, 31080, Note_on_c, 4, 43, 97
5, 31109, Note_on_c, 4, 43, 0
5, 31109, Note_on_c, 4, 59, 0
5, 31109, Note_on_c, 4, 67, 0
5, 31109, Note_on_c, 4, 55, 0
5, 31140, Note_on_c, 4, 59, 95
5, 31140, Note_on_c, 4, 67, 72
5, 31140, Note_on_c, 4, 55, 92
5, 31169, Note_on_c, 4, 55, 0
5, 31169, Note_on_c, 4, 67, 0
5, 31169, Note_on_c, 4, 59, 0
5, 31200, Note_on_c, 4, 59, 112
5, 31200, Note_on_c, 4, 67, 86
5, 31200, Note_on_c, 4, 55, 107
5, 31200, Note_on_c, 4, 43, 89
5, 31229, Note_on_c, 4, 55, 0
5, 31229, Note_on_c, 4, 59, 0
5, 31229, Note_on_c, 4, 67, 0
5, 31260, Note_on_c, 4, 67, 75
5, 31260, Note_on_c, 4, 59, 102
5, 31260, Note_on_c, 4, 55, 100
5, 31289, Note_on_c, 4, 55, 0
5, 31289, Note_on_c, 4, 59, 0
5, 31289, Note_on_c, 4, 67, 0
5, 31290, Note_on_c, 4, 43, 0
5, 31320, Note_on_c, 4, 67, 103
5, 31320, Note_on_c, 4, 59, 118
5, 31320, Note_on_c, 4, 43, 107
5, 31320, Note_on_c, 4, 55, 117
5, 31349, Note_on_c, 4, 55, 0
5, 31349, Note_on_c, 4, 59, 0
5, 31380, Note_on_c, 4, 43, 0
5, 31380, Note_on_c, 4, 67, 0
5, 31440, Note_on_c, 4, 59, 120
5, 31440, Note_on_c, 4, 55, 110
5, 31440, Note_on_c, 4, 67, 98
5, 31440, Note_on_c, 4, 43, 106
5, 31469, Note_on_c, 4, 67, 0
5, 31469, Note_on_c, 4, 59, 0
5, 31469, Note_on_c, 4, 55, 0
5, 31500, Note_on_c, 4, 43, 0
5, 31560, Note_on_c, 4, 43, 106
5, 31560, Note_on_c, 4, 59, 112
5, 31560, Note_on_c, 4, 55, 110
5, 31560, Note_on_c, 4, 67, 92
5, 31589, Note_on_c, 4, 67, 0
5, 31589, Note_on_c, 4, 43, 0
5, 31589, Note_on_c, 4, 59, 0
5, 31589, Note_on_c, 4, 55, 0
5, 31620, Note_on_c, 4, 59, 112
5, 31620, Note_on_c, 4, 67, 80
5, 31620, Note_on_c, 4, 55, 107
5, 31620, Note_on_c, 4, 43, 83
5, 31649, Note_on_c, 4, 43, 0
5, 31649, Note_on_c, 4, 59, 0
5, 31649, Note_on_c, 4, 67, 0
5, 31649, Note_on_c, 4, 55, 0
5, 31680, Note_on_c, 4, 59, 114
5, 31680, Note_on_c, 4, 67, 92
5, 31680, Note_on_c, 4, 55, 109
5, 31680, Note_on_c, 4, 43, 89
5, 31709, Note_on_c, 4, 43, 0
5, 31709, Note_on_c, 4, 59, 0
5, 31709, Note_on_c, 4, 67, 0
5, 31709, Note_on_c, 4, 55, 0
5, 31740, Note_on_c, 4, 43, 89
5, 31740, Note_on_c, 4, 55, 120
5, 31740, Note_on_c, 4, 59, 118
5, 31740, Note_on_c, 4, 67, 103
5, 31769, Note_on_c, 4, 67, 0
5, 31769, Note_on_c, 4, 43, 0
5, 31769, Note_on_c, 4, 55, 0
5, 31769, Note_on_c, 4, 59, 0
5, 31800, Note_on_c, 4, 43, 114
5, 31800, Note_on_c, 4, 59, 110
5, 31800, Note_on_c, 4, 67, 100
5, 31800, Note_on_c, 4, 55, 112
5, 31806, Control_c, 4, 64, 127
5, 31860, Note_on_c, 4, 55, 0
5, 31860, Note_on_c, 4, 43, 0
5, 31860, Note_on_c, 4, 59, 0
5, 31860, Note_on_c, 4, 67, 0
5, 31920, Note_on_c, 4, 43, 114
5, 31920, Note_on_c, 4, 59, 114
5, 31920, Note_on_c, 4, 55, 114
5, 31920, Note_on_c, 4, 67, 92
5, 31949, Note_on_c, 4, 67, 0
5, 31949, Note_on_c, 4, 55, 0
5, 31949, Note_on_c, 4, 59, 0
5, 31980, Note_on_c, 4, 43, 0
5, 32040, Note_on_c, 4, 59, 112
5, 32040, Note_on_c, 4, 55, 110
5, 32040, Note_on_c, 4, 67, 91
5, 32040, Note_on_c, 4, 43, 106
5, 32069, Note_on_c, 4, 43, 0
5, 32069, Note_on_c, 4, 59, 0
5, 32069, Note_on_c, 4, 55, 0
5, 32069, Note_on_c, 4, 67, 0
5, 32100, Note_on_c, 4, 59, 103
5, 32100, Note_on_c, 4, 55, 103
5, 32100, Note_on_c, 4, 67, 78
5, 32129, Note_on_c, 4, 67, 0
5, 32129, Note_on_c, 4, 55, 0
5, 32129, Note_on_c, 4, 59, 0
5, 32160, Note_on_c, 4, 55, 114
5, 32160, Note_on_c, 4, 59, 102
5, 32160, Note_on_c, 4, 67, 84
5, 32160, Note_on_c, 4, 43, 106
5, 32189, Note_on_c, 4, 67, 0
5, 32189, Note_on_c, 4, 55, 0
5, 32189, Note_on_c, 4, 59, 0
5, 32220, Note_on_c, 4, 59, 106
5, 32220, Note_on_c, 4, 55, 85
5, 32220, Note_on_c, 4, 67, 72
5, 32249, Note_on_c, 4, 67, 0
5, 32249, Note_on_c, 4, 55, 0
5, 32249, Note_on_c, 4, 59, 0
5, 32250, Note_on_c, 4, 43, 0
5, 32280, Note_on_c, 4, 59, 120
5, 32280, Note_on_c, 4, 55, 120
5, 32280, Note_on_c, 4, 67, 97
5, 32280, Note_on_c, 4, 43, 97
5, 32340, Note_on_c, 4, 43, 0
5, 32340, Note_on_c, 4, 59, 0
5, 32340, Note_on_c, 4, 55, 0
5, 32340, Note_on_c, 4, 67, 0
5, 32400, Note_on_c, 4, 59, 112
5, 32400, Note_on_c, 4, 55, 112
5, 32400, Note_on_c, 4, 67, 84
5, 32400, Note_on_c, 4, 43, 106
5, 32429, Note_on_c, 4, 67, 0
5, 32429, Note_on_c, 4, 59, 0
5, 32429, Note_on_c, 4, 55, 0
5, 32460, Note_on_c, 4, 43, 0
5, 32520, Note_on_c, 4, 59, 112
5, 32520, Note_on_c, 4, 55, 110
5, 32520, Note_on_c, 4, 67, 89
5, 32520, Note_on_c, 4, 43, 114
5, 32549, Note_on_c, 4, 43, 0
5, 32549, Note_on_c, 4, 59, 0
5, 32549, Note_on_c, 4, 55, 0
5, 32549, Note_on_c, 4, 67, 0
5, 32580, Note_on_c, 4, 59, 103
5, 32580, Note_on_c, 4, 55, 86
5, 32580, Note_on_c, 4, 67, 79
5, 32609, Note_on_c, 4, 67, 0
5, 32609, Note_on_c, 4, 55, 0
5, 32609, Note_on_c, 4, 59, 0
5, 32640, Note_on_c, 4, 59, 106
5, 32640, Note_on_c, 4, 67, 80
5, 32640, Note_on_c, 4, 55, 109
5, 32640, Note_on_c, 4, 43, 97
5, 32669, Note_on_c, 4, 55, 0
5, 32669, Note_on_c, 4, 59, 0
5, 32669, Note_on_c, 4, 67, 0
5, 32700, Note_on_c, 4, 59, 97
5, 32700, Note_on_c, 4, 67, 69
5, 32700, Note_on_c, 4, 55, 91
5, 32729, Note_on_c, 4, 55, 0
5, 32729, Note_on_c, 4, 67, 0
5, 32729, Note_on_c, 4, 59, 0
5, 32730, Note_on_c, 4, 43, 0
5, 32760, Note_on_c, 4, 59, 112
5, 32760, Note_on_c, 4, 55, 118
5, 32760, Note_on_c, 4, 67, 98
5, 32760, Note_on_c, 4, 43, 106
5, 32789, Note_on_c, 4, 55, 0
5, 32789, Note_on_c, 4, 59, 0
5, 32820, Note_on_c, 4, 67, 0
5, 32820, Note_on_c, 4, 43, 0
5, 32880, Note_on_c, 4, 43, 106
5, 32880, Note_on_c, 4, 59, 112
5, 32880, Note_on_c, 4, 55, 120
5, 32880, Note_on_c, 4, 67, 98
5, 32909, Note_on_c, 4, 67, 0
5, 32909, Note_on_c, 4, 43, 0
5, 32909, Note_on_c, 4, 59, 0
5, 32909, Note_on_c, 4, 55, 0
5, 33000, Note_on_c, 4, 59, 103
5, 33000, Note_on_c, 4, 67, 85
5, 33000, Note_on_c, 4, 55, 106
5, 33000, Note_on_c, 4, 43, 97
5, 33029, Note_on_c, 4, 43, 0
5, 33029, Note_on_c, 4, 59, 0
5, 33029, Note_on_c, 4, 67, 0
5, 33029, Note_on_c, 4, 55, 0
5, 33060, Note_on_c, 4, 59, 95
5, 33060, Note_on_c, 4, 67, 72
5, 33060, Note_on_c, 4, 55, 92
5, 33089, Note_on_c, 4, 55, 0
5, 33089, Note_on_c, 4, 67, 0
5, 33089, Note_on_c, 4, 59, 0
5, 33120, Note_on_c, 4, 59, 112
5, 33120, Note_on_c, 4, 67, 86
5, 33120, Note_on_c, 4, 55, 107
5, 33120, Note_on_c, 4, 43, 89
5, 33149, Note_on_c, 4, 55, 0
5, 33149, Note_on_c, 4, 59, 0
5, 33149, Note_on_c, 4, 67, 0
5, 33180, Note_on_c, 4, 67, 75
5, 33180, Note_on_c, 4, 59, 102
5, 33180, Note_on_c, 4, 55, 100
5, 33209, Note_on_c, 4, 55, 0
5, 33209, Note_on_c, 4, 59, 0
5, 33209, Note_on_c, 4, 67, 0
5, 33210, Note_on_c, 4, 43, 0
5, 33240, Note_on_c, 4, 67, 103
5, 33240, Note_on_c, 4, 59, 118
5, 33240, Note_on_c, 4, 43, 107
5, 33240, Note_on_c, 4, 55, 117
5, 33269, Note_on_c, 4, 55, 0
5, 33269, Note_on_c, 4, 59, 0
5, 33300, Note_on_c, 4, 43, 0
5, 33300, Note_on_c, 4, 67, 0
5, 33360, Note_on_c, 4, 59, 120
5, 33360, Note_on_c, 4, 55, 110
5, 33360, Note_on_c, 4, 67, 98
5, 33360, Note_on_c, 4, 43, 106
5, 33389, Note_on_c, 4, 67, 0
5, 33389, Note_on_c, 4, 59, 0
5, 33389, Note_on_c, 4, 55, 0
5, 33420, Note_on_c, 4, 43, 0
5, 33480, Note_on_c, 4, 43, 106
5, 33480, Note_on_c, 4, 59, 112
5, 33480, Note_on_c, 4, 55, 110
5, 33480, Note_on_c, 4, 67, 92
5, 33509, Note_on_c, 4, 67, 0
5, 33509, Note_on_c, 4, 43, 0
5, 33509, Note_on_c, 4, 59, 0
5, 33509, Note_on_c, 4, 55, 0
5, 33540, Note_on_c, 4, 59, 112
5, 33540, Note_on_c, 4, 67, 80
5, 33540, Note_on_c, 4, 55, 107
5, 33540, Note_on_c, 4, 43, 83
5, 33569, Note_on_c, 4, 43, 0
5, 33569, Note_on_c, 4, 59, 0
5, 33569, Note_on_c, 4, 67, 0
5, 33569, Note_on_c, 4, 55, 0
5, 33600, Note_on_c, 4, 59, 114
5, 33600, Note_on_c, 4, 67, 92
5, 33600, Note_on_c, 4, 55, 109
5, 33600, Note_on_c, 4, 43, 89
5, 33629, Note_on_c, 4, 43, 0
5, 33629, Note_on_c, 4, 59, 0
5, 33629, Note_on_c, 4, 67, 0
5, 33629, Note_on_c, 4, 55, 0
5, 33660, Note_on_c, 4, 43, 89
5, 33660, Note_on_c, 4, 55, 120
5, 33660, Note_on_c, 4, 59, 118
5, 33660, Note_on_c, 4, 67, 103
5, 33689, Note_on_c, 4, 67, 0
5, 33689, Note_on_c, 4, 43, 0
5, 33689, Note_on_c, 4, 55, 0
5, 33689, Note_on_c, 4, 59, 0
5, 33720, Note_on_c, 4, 43, 114
5, 33720, Note_on_c, 4, 59, 110
5, 33720, Note_on_c, 4, 67, 100
5, 33720, Note_on_c, 4, 55, 112
5, 33726, Control_c, 4, 64, 127
5, 33780, Note_on_c, 4, 55, 0
5, 33780, Note_on_c, 4, 43, 0
5, 33780, Note_on_c, 4, 59, 0
5, 33780, Note_on_c, 4, 67, 0
5, 33840, Note_on_c, 4, 43, 114
5, 33840, Note_on_c, 4, 59, 114
5, 33840, Note_on_c, 4, 55, 114
5, 33840, Note_on_c, 4, 67, 92
5, 33869, Note_on_c, 4, 67, 0
5, 33869, Note_on_c, 4, 55, 0
5, 33869, Note_on_c, 4, 59, 0
5, 33900, Note_on_c, 4, 43, 0
5, 33960, Note_on_c, 4, 59, 112
5, 33960, Note_on_c, 4, 55, 110
5, 33960, Note_on_c, 4, 67, 91
5, 33960, Note_on_c, 4, 43, 106
5, 33989, Note_on_c, 4, 43, 0
5, 33989, Note_on_c, 4, 59, 0
5, 33989, Note_on_c, 4, 55, 0
5, 33989, Note_on_c, 4, 67, 0
5, 34020, Note_on_c, 4, 59, 103
5, 34020, Note_on_c, 4, 55, 103
5, 34020, Note_on_c, 4, 67, 78
5, 34049, Note_on_c, 4, 67, 0
5, 34049, Note_on_c, 4, 55, 0
5, 34049, Note_on_c, 4, 59, 0
5, 34080, Note_on_c, 4, 55, 114
5, 34080, Note_on_c, 4, 59, 102
5, 34080, Note_on_c, 4, 67, 84
5, 34080, Note_on_c, 4, 43, 106
5, 34109, Note_on_c, 4, 67, 0
5, 34109, Note_on_c, 4, 55, 0
5, 34109, Note_on_c, 4, 59, 0
5, 34140, Note_on_c, 4, 59, 106
5, 34140, Note_on_c, 4, 55, 85
5, 34140, Note_on_c, 4, 67, 72
5, 34169, Note_on_c, 4, 67, 0
5, 34169, Note_on_c, 4, 55, 0
5, 34169, Note_on_c, 4, 59, 0
5, 34170, Note_on_c, 4, 43, 0
5, 34200, Note_on_c, 4, 59, 120
5, 34200, Note_on_c, 4, 55, 120
5, 34200, Note_on_c, 4, 67, 97
5, 34200, Note_on_c, 4, 43, 97
5, 34260, Note_on_c, 4, 43, 0
5, 34260, Note_on_c, 4, 59, 0
5, 34260, Note_on_c, 4, 55, 0
5, 34260, Note_on_c, 4, 67, 0
5, 34320, Note_on_c, 4, 59, 112
5, 34320, Note_on_c, 4, 55, 112
5, 34320, Note_on_c, 4, 67, 84
5, 34320, Note_on_c, 4, 43, 106
5, 34349, Note_on_c, 4, 67, 0
5, 34349, Note_on_c, 4, 59, 0
5, 34349, Note_on_c, 4, 55, 0
5, 34380, Note_on_c, 4, 43, 0
5, 34440, Note_on_c, 4, 59, 112
5, 34440, Note_on_c, 4, 55, 110
5, 34440, Note_on_c, 4, 67, 89
5, 34440, Note_on_c, 4, 43, 114
5, 34469, Note_on_c, 4, 43, 0
5, 34469, Note_on_c, 4, 59, 0
5, 34469, Note_on_c, 4, 55, 0
5, 34469, Note_on_c, 4, 67, 0
5, 34500, Note_on_c, 4, 59, 103
5, 34500, Note_on_c, 4, 55, 86
5, 34500, Note_on_c, 4, 67, 79
5, 34529, Note_on_c, 4, 67, 0
5, 34529, Note_on_c, 4, 55, 0
5, 34529, Note_on_c, 4, 59, 0
5, 34560, Note_on_c, 4, 59, 106
5, 34560, Note_on_c, 4, 67, 80
5, 34560, Note_on_c, 4, 55, 109
5, 34560, Note_on_c, 4, 43, 97
5, 34589, Note_on_c, 4, 55, 0
5, 34589, Note_on_c, 4, 59, 0
5, 34589, Note_on_c, 4, 67, 0
5, 34620, Note_on_c, 4, 59, 97
5, 34620, Note_on_c, 4, 67, 69
5, 34620, Note_on_c, 4, 55, 91
5, 34649, Note_on_c, 4, 55, 0
5, 34649, Note_on_c, 4, 67, 0
5, 34649, Note_on_c, 4, 59, 0
5, 34650, Note_on_c, 4, 43, 0
5, 34680, Note_on_c, 4, 59, 112
5, 34680, Note_on_c, 4, 55, 118
5, 34680, Note_on_c, 4, 67, 98
5, 34680, Note_on_c, 4, 43, 106
5, 34709, Note_on_c, 4, 55, 0
5, 34709, Note_on_c, 4, 59, 0
5, 34740, Note_on_c, 4, 67, 0
5, 34740, Note_on_c, 4, 43, 0
5, 34800, Note_on_c, 4, 43, 106
5, 34800, Note_on_c, 4, 59, 112
5, 34800, Note_on_c, 4, 55, 120
5, 34800, Note_on_c, 4, 67, 98
5, 34829, Note_on_c, 4, 67, 0
5, 34829, Note_on_c, 4, 43, 0
5, 34829, Note_on_c, 4, 59, 0
5, 34829, Note_on_c, 4, 55, 0
5, 34920, Note_on_c, 4, 59, 103
5, 34920, Note_on_c, 4, 67, 85
5, 34920, Note_on_c, 4, 55, 106
5, 34920, Note_on_c, 4, 43, 97
5, 34949, Note_on_c, 4, 43, 0
5, 34949, Note_on_c, 4, 59, 0
5, 34949, Note_on_c, 4, 67, 0
5, 34949, Note_on_c, 4, 55, 0
5, 34980, Note_on_c, 4, 59, 95
5, 34980, Note_on_c, 4, 67, 72
5, 34980, Note_on_c, 4, 55, 92
5, 35009, Note_on_c, 4, 55, 0
5, 35009, Note_on_c, 4, 67, 0
5, 35009, Note_on_c, 4, 59, 0
5, 35040, Note_on_c, 4, 59, 112
5, 35040, Note_on_c, 4, 67, 86
5, 35040, Note_on_c, 4, 55, 107
5, 35040, Note_on_c, 4, 43, 89
5, 35069, Note_on_c, 4, 55, 0
5, 35069, Note_on_c, 4, 59, 0
5, 35069, Note_on_c, 4, 67, 0
5, 35100, Note_on_c, 4, 67, 75
5, 35100, Note_on_c, 4, 59, 102
5, 35100, Note_on_c, 4, 55, 100
5, 35129, Note_on_c, 4, 55, 0
5, 35129, Note_on_c, 4, 59, 0
5, 35129, Note_on_c, 4, 67, 0
5, 35130, Note_on_c, 4, 43, 0
5, 35160, Note_on_c, 4, 67, 103
5, 35160, Note_on_c, 4, 59, 118
5, 35160, Note_on_c, 4, 43, 107
5, 35160, Note_on_c, 4, 55, 117
5, 35189, Note_on_c, 4, 55, 0
5, 35189, Note_on_c, 4, 59, 0
5, 35220, Note_on_c, 4, 43, 0
5, 35220, Note_on_c, 4, 67, 0
5, 35280, Note_on_c, 4, 59, 120
5, 35280, Note_on_c, 4, 55, 110
5, 35280, Note_on_c, 4, 67, 98
5, 35280, Note_on_c, 4, 43, 106
5, 35309, Note_on_c, 4, 67, 0
5, 35309, Note_on_c, 4, 59, 0
5, 35309, Note_on_c, 4, 55, 0
5, 35340, Note_on_c, 4, 43, 0
5, 35400, Note_on_c, 4, 43, 106
5, 35400, Note_on_c, 4, 59, 112
5, 35400, Note_on_c, 4, 55, 110
5, 35400, Note_on_c, 4, 67, 92
5, 35429, Note_on_c, 4, 67, 0
5, 35429, Note_on_c, 4, 43, 0
5, 35429, Note_on_c, 4, 59, 0
5, 35429, Note_on_c, 4, 55, 0
5, 35460, Note_on_c, 4, 59, 112
5, 35460, Note_on_c, 4, 67, 80
5, 35460, Note_on_c, 4, 55, 107
5, 35460, Note_on_c, 4, 43, 83
5, 35489, Note_on_c, 4, 43, 0
5, 35489, Note_on_c, 4, 59, 0
5, 35489, Note_on_c, 4, 67, 0
5, 35489, Note_on_c, 4, 55, 0
5, 35520, Note_on_c, 4, 59, 114
5, 35520, Note_on_c, 4, 67, 92
5, 35520, Note_on_c, 4, 55, 109
5, 35520, Note_on_c, 4, 43, 89
5, 35549, Note_on_c, 4, 43, 0
5, 35549, Note_on_c, 4, 59, 0
5, 35549, Note_on_c, 4, 67, 0
5, 35549, Note_on_c, 4, 55, 0
5, 35580, Note_on_c, 4, 43, 89
5, 35580, Note_on_c, 4, 55, 120
5, 35580, Note_on_c, 4, 59, 118
5, 35580, Note_on_c, 4, 67, 103
5, 35609, Note_on_c, 4, 67, 0
5, 35609, Note_on_c, 4, 43, 0
5, 35609, Note_on_c, 4, 55, 0
5, 35609, Note_on_c, 4, 59, 0
5, 35615, Control_c, 4, 64, 127
5, 35637, Control_c, 4, 64, 0
5, 35640, Control_c, 4, 64, 127
5, 35640, Note_on_c, 4, 58, 127
5, 35640, Note_on_c, 4, 53, 112
5, 35640, Note_on_c, 4, 65, 112
5, 35640, Note_on_c, 4, 46, 125
5, 35669, Note_on_c, 4, 46, 0
5, 35669, Note_on_c, 4, 53, 0
5, 35700, Note_on_c, 4, 65, 0
5, 35700, Note_on_c, 4, 58, 0
5, 35760, Note_on_c, 4, 58, 122
5, 35760, Note_on_c, 4, 53, 109
5, 35760, Note_on_c, 4, 65, 100
5, 35760, Note_on_c, 4, 46, 127
5, 35789, Note_on_c, 4, 46, 0
5, 35789, Note_on_c, 4, 58, 0
5, 35789, Note_on_c, 4, 53, 0
5, 35789, Note_on_c, 4, 65, 0
5, 35880, Note_on_c, 4, 58, 122
5, 35880, Note_on_c, 4, 46, 127
5, 35880, Note_on_c, 4, 53, 98
5, 35880, Note_on_c, 4, 65, 97
5, 35909, Note_on_c, 4, 65, 0
5, 35909, Note_on_c, 4, 58, 0
5, 35909, Note_on_c, 4, 46, 0
5, 35909, Note_on_c, 4, 53, 0
5, 35940, Note_on_c, 4, 58, 103
5, 35940, Note_on_c, 4, 65, 80
5, 35940, Note_on_c, 4, 53, 92
5, 35969, Note_on_c, 4, 53, 0
5, 35969, Note_on_c, 4, 65, 0
5, 35969, Note_on_c, 4, 58, 0
5, 36000, Note_on_c, 4, 58, 114
5, 36000, Note_on_c, 4, 65, 92
5, 36000, Note_on_c, 4, 53, 100
5, 36000, Note_on_c, 4, 46, 120
5, 36029, Note_on_c, 4, 46, 0
5, 36029, Note_on_c, 4, 58, 0
5, 36029, Note_on_c, 4, 65, 0
5, 36029, Note_on_c, 4, 53, 0
5, 36060, Note_on_c, 4, 58, 112
5, 36060, Note_on_c, 4, 65, 84
5, 36060, Note_on_c, 4, 46, 107
5, 36060, Note_on_c, 4, 53, 98
5, 36089, Note_on_c, 4, 53, 0
5, 36089, Note_on_c, 4, 58, 0
5, 36089, Note_on_c, 4, 65, 0
5, 36089, Note_on_c, 4, 46, 0
5, 36120, Note_on_c, 4, 58, 120
5, 36120, Note_on_c, 4, 65, 110
5, 36120, Note_on_c, 4, 53, 107
5, 36120, Note_on_c, 4, 46, 127
5, 36149, Note_on_c, 4, 46, 0
5, 36149, Note_on_c, 4, 58, 0
5, 36149, Note_on_c, 4, 65, 0
5, 36149, Note_on_c, 4, 53, 0
5, 36240, Note_on_c, 4, 58, 122
5, 36240, Note_on_c, 4, 53, 100
5, 36240, Note_on_c, 4, 65, 109
5, 36240, Note_on_c, 4, 46, 127
5, 36269, Note_on_c, 4, 46, 0
5, 36269, Note_on_c, 4, 58, 0
5, 36269, Note_on_c, 4, 53, 0
5, 36269, Note_on_c, 4, 65, 0
5, 36360, Note_on_c, 4, 46, 127
5, 36360, Note_on_c, 4, 58, 122
5, 36360, Note_on_c, 4, 53, 102
5, 36360, Note_on_c, 4, 65, 91
5, 36389, Note_on_c, 4, 65, 0
5, 36389, Note_on_c, 4, 46, 0
5, 36389, Note_on_c, 4, 58, 0
5, 36389, Note_on_c, 4, 53, 0
5, 36420, Note_on_c, 4, 58, 103
5, 36420, Note_on_c, 4, 65, 85
5, 36420, Note_on_c, 4, 46, 98
5, 36420, Note_on_c, 4, 53, 85
5, 36449, Note_on_c, 4, 53, 0
5, 36449, Note_on_c, 4, 58, 0
5, 36449, Note_on_c, 4, 65, 0
5, 36449, Note_on_c, 4, 46, 0
5, 36480, Note_on_c, 4, 58, 112
5, 36480, Note_on_c, 4, 65, 86
5, 36480, Note_on_c, 4, 53, 102
5, 36480, Note_on_c, 4, 46, 114
5, 36509, Note_on_c, 4, 46, 0
5, 36509, Note_on_c, 4, 58, 0
5, 36509, Note_on_c, 4, 65, 0
5, 36509, Note_on_c, 4, 53, 0
5, 36540, Note_on_c, 4, 58, 103
5, 36540, Note_on_c, 4, 65, 74
5, 36540, Note_on_c, 4, 53, 78
5, 36540, Note_on_c, 4, 46, 114
5, 36567, Control_c, 4, 64, 0
5, 36569, Note_on_c, 4, 46, 0
5, 36569, Note_on_c, 4, 58, 0
5, 36569, Note_on_c, 4, 65, 0
5, 36569, Note_on_c, 4, 53, 0
5, 36600, Note_on_c, 4, 57, 114
5, 36600, Note_on_c, 4, 64, 110
5, 36600, Note_on_c, 4, 45, 125
5, 36600, Note_on_c, 4, 52, 110
5, 36618, Control_c, 4, 64, 127
5, 36660, Note_on_c, 4, 64, 0
5, 36690, Note_on_c, 4, 57, 0
5, 36690, Note_on_c, 4, 45, 0
5, 36690, Note_on_c, 4, 52, 0
5, 36720, Note_on_c, 4, 45, 112
5, 36720, Note_on_c, 4, 57, 100
5, 36720, Note_on_c, 4, 52, 118
5, 36720, Note_on_c, 4, 64, 97
5, 36749, Note_on_c, 4, 64, 0
5, 36749, Note_on_c, 4, 45, 0
5, 36749, Note_on_c, 4, 57, 0
5, 36749, Note_on_c, 4, 52, 0
5, 36840, Note_on_c, 4, 57, 106
5, 36840, Note_on_c, 4, 52, 110
5, 36840, Note_on_c, 4, 64, 106
5, 36840, Note_on_c, 4, 45, 120
5, 36869, Note_on_c, 4, 45, 0
5, 36869, Note_on_c, 4, 57, 0
5, 36869, Note_on_c, 4, 52, 0
5, 36869, Note_on_c, 4, 64, 0
5, 36900, Note_on_c, 4, 57, 95
5, 36900, Note_on_c, 4, 52, 94
5, 36900, Note_on_c, 4, 64, 92
5, 36929, Note_on_c, 4, 64, 0
5, 36929, Note_on_c, 4, 52, 0
5, 36929, Note_on_c, 4, 57, 0
5, 36960, Note_on_c, 4, 57, 112
5, 36960, Note_on_c, 4, 64, 109
5, 36960, Note_on_c, 4, 52, 118
5, 36960, Note_on_c, 4, 45, 114
5, 36989, Note_on_c, 4, 45, 0
5, 36989, Note_on_c, 4, 57, 0
5, 36989, Note_on_c, 4, 64, 0
5, 36989, Note_on_c, 4, 52, 0
5, 37020, Note_on_c, 4, 64, 77
5, 37020, Note_on_c, 4, 57, 102
5, 37020, Note_on_c, 4, 52, 100
5, 37020, Note_on_c, 4, 45, 89
5, 37049, Note_on_c, 4, 45, 0
5, 37049, Note_on_c, 4, 64, 0
5, 37049, Note_on_c, 4, 57, 0
5, 37049, Note_on_c, 4, 52, 0
5, 37080, Note_on_c, 4, 57, 114
5, 37080, Note_on_c, 4, 64, 100
5, 37080, Note_on_c, 4, 52, 117
5, 37080, Note_on_c, 4, 45, 110
5, 37109, Note_on_c, 4, 52, 0
5, 37109, Note_on_c, 4, 57, 0
5, 37140, Note_on_c, 4, 64, 0
5, 37140, Note_on_c, 4, 45, 0
5, 37200, Note_on_c, 4, 64, 95
5, 37200, Note_on_c, 4, 57, 110
5, 37200, Note_on_c, 4, 52, 117
5, 37200, Note_on_c, 4, 45, 120
5, 37229, Note_on_c, 4, 45, 0
5, 37229, Note_on_c, 4, 52, 0
5, 37229, Note_on_c, 4, 57, 0
5, 37260, Note_on_c, 4, 64, 0
5, 37320, Note_on_c, 4, 45, 120
5, 37320, Note_on_c, 4, 52, 118
5, 37320, Note_on_c, 4, 57, 117
5, 37320, Note_on_c, 4, 64, 114
5, 37349, Note_on_c, 4, 64, 0
5, 37349, Note_on_c, 4, 45, 0
5, 37349, Note_on_c, 4, 52, 0
5, 37349, Note_on_c, 4, 57, 0
5, 37380, Note_on_c, 4, 45, 112
5, 37380, Note_on_c, 4, 57, 100
5, 37380, Note_on_c, 4, 52, 103
5, 37380, Note_on_c, 4, 64, 89
5, 37409, Note_on_c, 4, 64, 0
5, 37409, Note_on_c, 4, 45, 0
5, 37409, Note_on_c, 4, 57, 0
5, 37409, Note_on_c, 4, 52, 0
5, 37440, Note_on_c, 4, 45, 106
5, 37440, Note_on_c, 4, 57, 103
5, 37440, Note_on_c, 4, 52, 110
5, 37440, Note_on_c, 4, 64, 92
5, 37469, Note_on_c, 4, 64, 0
5, 37469, Note_on_c, 4, 45, 0
5, 37469, Note_on_c, 4, 57, 0
5, 37469, Note_on_c, 4, 52, 0
5, 37495, Control_c, 4, 64, 127
5, 37500, Note_on_c, 4, 57, 127
5, 37500, Note_on_c, 4, 64, 118
5, 37500, Note_on_c, 4, 52, 127
5, 37500, Note_on_c, 4, 45, 127
5, 37526, Control_c, 4, 64, 0
5, 37529, Note_on_c, 4, 45, 0
5, 37529, Note_on_c, 4, 57, 0
5, 37529, Note_on_c, 4, 64, 0
5, 37529, Note_on_c, 4, 52, 0
5, 37560, Note_on_c, 4, 43, 112
5, 37560, Note_on_c, 4, 59, 127
5, 37560, Note_on_c, 4, 62, 120
5, 37560, Note_on_c, 4, 55, 117
5, 37574, Control_c, 4, 64, 127
5, 37620, Note_on_c, 4, 55, 0
5, 37620, Note_on_c, 4, 43, 0
5, 37620, Note_on_c, 4, 59, 0
5, 37620, Note_on_c, 4, 62, 0
5, 37680, Note_on_c, 4, 43, 122
5, 37680, Note_on_c, 4, 59, 118
5, 37680, Note_on_c, 4, 62, 117
5, 37680, Note_on_c, 4, 55, 118
5, 37740, Note_on_c, 4, 55, 0
5, 37740, Note_on_c, 4, 43, 0
5, 37740, Note_on_c, 4, 59, 0
5, 37740, Note_on_c, 4, 62, 0
5, 37800, Note_on_c, 4, 59, 110
5, 37800, Note_on_c, 4, 62, 100
5, 37800, Note_on_c, 4, 43, 117
5, 37800, Note_on_c, 4, 55, 114
5, 37829, Note_on_c, 4, 55, 0
5, 37829, Note_on_c, 4, 59, 0
5, 37829, Note_on_c, 4, 62, 0
5, 37860, Note_on_c, 4, 43, 0
5, 37860, Note_on_c, 4, 59, 103
5, 37860, Note_on_c, 4, 62, 102
5, 37860, Note_on_c, 4, 55, 100
5, 37889, Note_on_c, 4, 55, 0
5, 37889, Note_on_c, 4, 62, 0
5, 37889, Note_on_c, 4, 59, 0
5, 37920, Note_on_c, 4, 43, 127
5, 37920, Note_on_c, 4, 59, 118
5, 37920, Note_on_c, 4, 62, 107
5, 37920, Note_on_c, 4, 55, 106
5, 37949, Note_on_c, 4, 55, 0
5, 37949, Note_on_c, 4, 43, 0
5, 37949, Note_on_c, 4, 59, 0
5, 37949, Note_on_c, 4, 62, 0
5, 38020, Control_c, 4, 64, 0
5, 38040, Note_on_c, 4, 38, 125
5, 38040, Note_on_c, 4, 57, 122
5, 38040, Note_on_c, 4, 54, 127
5, 38040, Note_on_c, 4, 62, 98
5, 38061, Control_c, 4, 64, 127
5, 38100, Note_on_c, 4, 62, 0
5, 38130, Note_on_c, 4, 38, 0
5, 38130, Note_on_c, 4, 57, 0
5, 38130, Note_on_c, 4, 54, 0
5, 38160, Note_on_c, 4, 62, 94
5, 38160, Note_on_c, 4, 38, 109
5, 38160, Note_on_c, 4, 54, 127
5, 38160, Note_on_c, 4, 57, 106
5, 38220, Note_on_c, 4, 57, 0
5, 38220, Note_on_c, 4, 62, 0
5, 38220, Note_on_c, 4, 38, 0
5, 38220, Note_on_c, 4, 54, 0
5, 38280, Note_on_c, 4, 57, 97
5, 38280, Note_on_c, 4, 62, 86
5, 38280, Note_on_c, 4, 54, 91
5, 38280, Note_on_c, 4, 38, 125
5, 38309, Note_on_c, 4, 54, 0
5, 38309, Note_on_c, 4, 57, 0
5, 38309, Note_on_c, 4, 62, 0
5, 38340, Note_on_c, 4, 38, 0
5, 38340, Note_on_c, 4, 57, 103
5, 38340, Note_on_c, 4, 54, 110
5, 38340, Note_on_c, 4, 62, 91
5, 38369, Note_on_c, 4, 62, 0
5, 38369, Note_on_c, 4, 54, 0
5, 38369, Note_on_c, 4, 57, 0
5, 38400, Note_on_c, 4, 54, 127
5, 38400, Note_on_c, 4, 57, 127
5, 38400, Note_on_c, 4, 62, 106
5, 38400, Note_on_c, 4, 38, 118
5, 38429, Note_on_c, 4, 38, 0
5, 38429, Note_on_c, 4, 54, 0
5, 38429, Note_on_c, 4, 57, 0
5, 38460, Note_on_c, 4, 62, 0
5, 38481, Control_c, 4, 64, 0
5, 38520, Note_on_c, 4, 60, 125
5, 38520, Note_on_c, 4, 64, 118
5, 38520, Note_on_c, 4, 45, 125
5, 38520, Note_on_c, 4, 57, 107
5, 38534, Control_c, 4, 64, 127
5, 38580, Note_on_c, 4, 57, 0
5, 38580, Note_on_c, 4, 45, 0
5, 38580, Note_on_c, 4, 60, 0
5, 38610, Note_on_c, 4, 64, 0
5, 38640, Note_on_c, 4, 45, 89
5, 38640, Note_on_c, 4, 60, 127
5, 38640, Note_on_c, 4, 64, 120
5, 38640, Note_on_c, 4, 57, 117
5, 38669, Note_on_c, 4, 57, 0
5, 38669, Note_on_c, 4, 64, 0
5, 38669, Note_on_c, 4, 60, 0
5, 38700, Note_on_c, 4, 45, 0
5, 38760, Note_on_c, 4, 60, 127
5, 38760, Note_on_c, 4, 64, 118
5, 38760, Note_on_c, 4, 57, 109
5, 38760, Note_on_c, 4, 45, 106
5, 38789, Note_on_c, 4, 45, 0
5, 38789, Note_on_c, 4, 60, 0
5, 38789, Note_on_c, 4, 64, 0
5, 38789, Note_on_c, 4, 57, 0
5, 38820, Note_on_c, 4, 60, 122
5, 38820, Note_on_c, 4, 57, 102
5, 38820, Note_on_c, 4, 64, 107
5, 38849, Note_on_c, 4, 64, 0
5, 38849, Note_on_c, 4, 57, 0
5, 38849, Note_on_c, 4, 60, 0
5, 38880, Note_on_c, 4, 45, 110
5, 38880, Note_on_c, 4, 60, 127
5, 38880, Note_on_c, 4, 64, 117
5, 38880, Note_on_c, 4, 57, 117
5, 38940, Note_on_c, 4, 57, 0
5, 38940, Note_on_c, 4, 45, 0
5, 38940, Note_on_c, 4, 60, 0
5, 38940, Note_on_c, 4, 64, 0
5, 38972, Control_c, 4, 64, 0
5, 39000, Note_on_c, 4, 64, 122
5, 39000, Note_on_c, 4, 60, 127
5, 39000, Note_on_c, 4, 45, 127
5, 39000, Note_on_c, 4, 57, 112
5, 39013, Control_c, 4, 64, 127
5, 39060, Note_on_c, 4, 57, 0
5, 39060, Note_on_c, 4, 64, 0
5, 39060, Note_on_c, 4, 60, 0
5, 39060, Note_on_c, 4, 45, 0
5, 39120, Note_on_c, 4, 45, 106
5, 39120, Note_on_c, 4, 60, 122
5, 39120, Note_on_c, 4, 64, 110
5, 39120, Note_on_c, 4, 57, 98
5, 39149, Note_on_c, 4, 57, 0
5, 39149, Note_on_c, 4, 45, 0
5, 39149, Note_on_c, 4, 60, 0
5, 39149, Note_on_c, 4, 64, 0
5, 39180, Note_on_c, 4, 60, 122
5, 39180, Note_on_c, 4, 57, 110
5, 39180, Note_on_c, 4, 64, 107
5, 39180, Note_on_c, 4, 45, 106
5, 39209, Note_on_c, 4, 57, 0
5, 39240, Note_on_c, 4, 60, 0
5, 39240, Note_on_c, 4, 64, 0
5, 39240, Note_on_c, 4, 45, 0
5, 39300, Note_on_c, 4, 60, 127
5, 39300, Note_on_c, 4, 64, 120
5, 39300, Note_on_c, 4, 45, 117
5, 39300, Note_on_c, 4, 57, 103
5, 39329, Note_on_c, 4, 57, 0
5, 39329, Note_on_c, 4, 60, 0
5, 39329, Note_on_c, 4, 64, 0
5, 39329, Note_on_c, 4, 45, 0
5, 39360, Note_on_c, 4, 60, 122
5, 39360, Note_on_c, 4, 57, 110
5, 39360, Note_on_c, 4, 64, 109
5, 39360, Note_on_c, 4, 45, 114
5, 39389, Note_on_c, 4, 45, 0
5, 39389, Note_on_c, 4, 60, 0
5, 39389, Note_on_c, 4, 57, 0
5, 39389, Note_on_c, 4, 64, 0
5, 39467, Control_c, 4, 64, 0
5, 39480, Note_on_c, 4, 43, 112
5, 39480, Note_on_c, 4, 59, 127
5, 39480, Note_on_c, 4, 62, 120
5, 39480, Note_on_c, 4, 55, 117
5, 39494, Control_c, 4, 64, 127
5, 39540, Note_on_c, 4, 55, 0
5, 39540, Note_on_c, 4, 43, 0
5, 39540, Note_on_c, 4, 59, 0
5, 39540, Note_on_c, 4, 62, 0
5, 39600, Note_on_c, 4, 43, 122
5, 39600, Note_on_c, 4, 59, 118
5, 39600, Note_on_c, 4, 62, 117
5, 39600, Note_on_c, 4, 55, 118
5, 39660, Note_on_c, 4, 55, 0
5, 39660, Note_on_c, 4, 43, 0
5, 39660, Note_on_c, 4, 59, 0
5, 39660, Note_on_c, 4, 62, 0
5, 39720, Note_on_c, 4, 59, 110
5, 39720, Note_on_c, 4, 62, 100
5, 39720, Note_on_c, 4, 43, 117
5, 39720, Note_on_c, 4, 55, 114
5, 39749, Note_on_c, 4, 55, 0
5, 39749, Note_on_c, 4, 59, 0
5, 39749, Note_on_c, 4, 62, 0
5, 39780, Note_on_c, 4, 43, 0
5, 39780, Note_on_c, 4, 59, 103
5, 39780, Note_on_c, 4, 62, 102
5, 39780, Note_on_c, 4, 55, 100
5, 39809, Note_on_c, 4, 55, 0
5, 39809, Note_on_c, 4, 62, 0
5, 39809, Note_on_c, 4, 59, 0
5, 39840, Note_on_c, 4, 43, 127
5, 39840, Note_on_c, 4, 59, 118
5, 39840, Note_on_c, 4, 62, 107
5, 39840, Note_on_c, 4, 55, 106
5, 39869, Note_on_c, 4, 55, 0
5, 39869, Note_on_c, 4, 43, 0
5, 39869, Note_on_c, 4, 59, 0
5, 39869, Note_on_c, 4, 62, 0
5, 39940, Control_c, 4, 64, 0
5, 39960, Note_on_c, 4, 38, 125
5, 39960, Note_on_c, 4, 57, 122
5, 39960, Note_on_c, 4, 54, 127
5, 39960, Note_on_c, 4, 62, 98
5, 39981, Control_c, 4, 64, 127
5, 40020, Note_on_c, 4, 62, 0
5, 40050, Note_on_c, 4, 38, 0
5, 40050, Note_on_c, 4, 57, 0
5, 40050, Note_on_c, 4, 54, 0
5, 40080, Note_on_c, 4, 62, 94
5, 40080, Note_on_c, 4, 38, 109
5, 40080, Note_on_c, 4, 54, 127
5, 40080, Note_on_c, 4, 57, 106
5, 40140, Note_on_c, 4, 57, 0
5, 40140, Note_on_c, 4, 62, 0
5, 40140, Note_on_c, 4, 38, 0
5, 40140, Note_on_c, 4, 54, 0
5, 40200, Note_on_c, 4, 57, 97
5, 40200, Note_on_c, 4, 62, 86
5, 40200, Note_on_c, 4, 54, 91
5, 40200, Note_on_c, 4, 38, 125
5, 40229, Note_on_c, 4, 54, 0
5, 40229, Note_on_c, 4, 57, 0
5, 40229, Note_on_c, 4, 62, 0
5, 40260, Note_on_c, 4, 38, 0
5, 40260, Note_on_c, 4, 57, 103
5, 40260, Note_on_c, 4, 54, 110
5, 40260, Note_on_c, 4, 62, 91
5, 40289, Note_on_c, 4, 62, 0
5, 40289, Note_on_c, 4, 54, 0
5, 40289, Note_on_c, 4, 57, 0
5, 40320, Note_on_c, 4, 54, 127
5, 40320, Note_on_c, 4, 57, 127
5, 40320, Note_on_c, 4, 62, 106
5, 40320, Note_on_c, 4, 38, 118
5, 40349, Note_on_c, 4, 38, 0
5, 40349, Note_on_c, 4, 54, 0
5, 40349, Note_on_c, 4, 57, 0
5, 40380, Note_on_c, 4, 62, 0
5, 40401, Control_c, 4, 64, 0
5, 40440, Note_on_c, 4, 60, 125
5, 40440, Note_on_c, 4, 64, 118
5, 40440, Note_on_c, 4, 45, 125
5, 40440, Note_on_c, 4, 57, 107
5, 40454, Control_c, 4, 64, 127
5, 40500, Note_on_c, 4, 57, 0
5, 40500, Note_on_c, 4, 45, 0
5, 40500, Note_on_c, 4, 60, 0
5, 40530, Note_on_c, 4, 64, 0
5, 40560, Note_on_c, 4, 45, 89
5, 40560, Note_on_c, 4, 60, 127
5, 40560, Note_on_c, 4, 64, 120
5, 40560, Note_on_c, 4, 57, 117
5, 40589, Note_on_c, 4, 57, 0
5, 40589, Note_on_c, 4, 64, 0
5, 40589, Note_on_c, 4, 60, 0
5, 40620, Note_on_c, 4, 45, 0
5, 40680, Note_on_c, 4, 60, 127
5, 40680, Note_on_c, 4, 64, 118
5, 40680, Note_on_c, 4, 57, 109
5, 40680, Note_on_c, 4, 45, 106
5, 40709, Note_on_c, 4, 45, 0
5, 40709, Note_on_c, 4, 60, 0
5, 40709, Note_on_c, 4, 64, 0
5, 40709, Note_on_c, 4, 57, 0
5, 40740, Note_on_c, 4, 60, 122
5, 40740, Note_on_c, 4, 57, 102
5, 40740, Note_on_c, 4, 64, 107
5, 40769, Note_on_c, 4, 64, 0
5, 40769, Note_on_c, 4, 57, 0
5, 40769, Note_on_c, 4, 60, 0
5, 40800, Note_on_c, 4, 45, 110
5, 40800, Note_on_c, 4, 60, 127
5, 40800, Note_on_c, 4, 64, 117
5, 40800, Note_on_c, 4, 57, 117
5, 40860, Note_on_c, 4, 57, 0
5, 40860, Note_on_c, 4, 45, 0
5, 40860, Note_on_c, 4, 60, 0
5, 40860, Note_on_c, 4, 64, 0
5, 40892, Control_c, 4, 64, 0
5, 40920, Note_on_c, 4, 64, 122
5, 40920, Note_on_c, 4, 60, 127
5, 40920, Note_on_c, 4, 45, 127
5, 40920, Note_on_c, 4, 57, 112
5, 40933, Control_c, 4, 64, 127
5, 40980, Note_on_c, 4, 57, 0
5, 40980, Note_on_c, 4, 64, 0
5, 40980, Note_on_c, 4, 60, 0
5, 40980, Note_on_c, 4, 45, 0
5, 41040, Note_on_c, 4, 45, 106
5, 41040, Note_on_c, 4, 60, 122
5, 41040, Note_on_c, 4, 64, 110
5, 41040, Note_on_c, 4, 57, 98
5, 41069, Note_on_c, 4, 57, 0
5, 41069, Note_on_c, 4, 45, 0
5, 41069, Note_on_c, 4, 60, 0
5, 41069, Note_on_c, 4, 64, 0
5, 41100, Note_on_c, 4, 60, 122
5, 41100, Note_on_c, 4, 57, 110
5, 41100, Note_on_c, 4, 64, 107
5, 41100, Note_on_c, 4, 45, 106
5, 41129, Note_on_c, 4, 57, 0
5, 41160, Note_on_c, 4, 60, 0
5, 41160, Note_on_c, 4, 64, 0
5, 41160, Note_on_c, 4, 45, 0
5, 41220, Note_on_c, 4, 60, 127
5, 41220, Note_on_c, 4, 64, 120
5, 41220, Note_on_c, 4, 45, 117
5, 41220, Note_on_c, 4, 57, 103
5, 41249, Note_on_c, 4, 57, 0
5, 41249, Note_on_c, 4, 60, 0
5, 41249, Note_on_c, 4, 64, 0
5, 41249, Note_on_c, 4, 45, 0
5, 41280, Note_on_c, 4, 60, 122
5, 41280, Note_on_c, 4, 57, 110
5, 41280, Note_on_c, 4, 64, 109
5, 41280, Note_on_c, 4, 45, 114
5, 41309, Note_on_c, 4, 45, 0
5, 41309, Note_on_c, 4, 60, 0
5, 41309, Note_on_c, 4, 57, 0
5, 41309, Note_on_c, 4, 64, 0
5, 41387, Control_c, 4, 64, 0
5, 41400, Note_on_c, 4, 43, 112
5, 41400, Note_on_c, 4, 59, 127
5, 41400, Note_on_c, 4, 62, 120
5, 41400, Note_on_c, 4, 55, 117
5, 41414, Control_c, 4, 64, 127
5, 41460, Note_on_c, 4, 55, 0
5, 41460, Note_on_c, 4, 43, 0
5, 41460, Note_on_c, 4, 59, 0
5, 41460, Note_on_c, 4, 62, 0
5, 41520, Note_on_c, 4, 43, 122
5, 41520, Note_on_c, 4, 59, 118
5, 41520, Note_on_c, 4, 62, 117
5, 41520, Note_on_c, 4, 55, 118
5, 41580, Note_on_c, 4, 55, 0
5, 41580, Note_on_c, 4, 43, 0
5, 41580, Note_on_c, 4, 59, 0
5, 41580, Note_on_c, 4, 62, 0
5, 41640, Note_on_c, 4, 59, 110
5, 41640, Note_on_c, 4, 62, 100
5, 41640, Note_on_c, 4, 43, 117
5, 41640, Note_on_c, 4, 55, 114
5, 41669, Note_on_c, 4, 55, 0
5, 41669, Note_on_c, 4, 59, 0
5, 41669, Note_on_c, 4, 62, 0
5, 41700, Note_on_c, 4, 43, 0
5, 41700, Note_on_c, 4, 59, 103
5, 41700, Note_on_c, 4, 62, 102
5, 41700, Note_on_c, 4, 55, 100
5, 41729, Note_on_c, 4, 55, 0
5, 41729, Note_on_c, 4, 62, 0
5, 41729, Note_on_c, 4, 59, 0
5, 41760, Note_on_c, 4, 43, 127
5, 41760, Note_on_c, 4, 59, 118
5, 41760, Note_on_c, 4, 62, 107
5, 41760, Note_on_c, 4, 55, 106
5, 41789, Note_on_c, 4, 55, 0
5, 41789, Note_on_c, 4, 43, 0
5, 41789, Note_on_c, 4, 59, 0
5, 41789, Note_on_c, 4, 62, 0
5, 41860, Control_c, 4, 64, 0
5, 41880, Note_on_c, 4, 38, 125
5, 41880, Note_on_c, 4, 57, 122
5, 41880, Note_on_c, 4, 54, 127
5, 41880, Note_on_c, 4, 62, 98
5, 41901, Control_c, 4, 64, 127
5, 41940, Note_on_c, 4, 62, 0
5, 41970, Note_on_c, 4, 38, 0
5, 41970, Note_on_c, 4, 57, 0
5, 41970, Note_on_c, 4, 54, 0
5, 42000, Note_on_c, 4, 62, 94
5, 42000, Note_on_c, 4, 38, 109
5, 42000, Note_on_c, 4, 54, 127
5, 42000, Note_on_c, 4, 57, 106
5, 42060, Note_on_c, 4, 57, 0
5, 42060, Note_on_c, 4, 62, 0
5, 42060, Note_on_c, 4, 38, 0
5, 42060, Note_on_c, 4, 54, 0
5, 42120, Note_on_c, 4, 57, 97
5, 42120, Note_on_c, 4, 62, 86
5, 42120, Note_on_c, 4, 54, 91
5, 42120, Note_on_c, 4, 38, 125
5, 42149, Note_on_c, 4, 54, 0
5, 42149, Note_on_c, 4, 57, 0
5, 42149, Note_on_c, 4, 62, 0
5, 42180, Note_on_c, 4, 38, 0
5, 42180, Note_on_c, 4, 57, 103
5, 42180, Note_on_c, 4, 54, 110
5, 42180, Note_on_c, 4, 62, 91
5, 42209, Note_on_c, 4, 62, 0
5, 42209, Note_on_c, 4, 54, 0
5, 42209, Note_on_c, 4, 57, 0
5, 42240, Note_on_c, 4, 54, 127
5, 42240, Note_on_c, 4, 57, 127
5, 42240, Note_on_c, 4, 62, 106
5, 42240, Note_on_c, 4, 38, 118
5, 42269, Note_on_c, 4, 38, 0
5, 42269, Note_on_c, 4, 54, 0
5, 42269, Note_on_c, 4, 57, 0
5, 42300, Note_on_c, 4, 62, 0
5, 42321, Control_c, 4, 64, 0
5, 42360, Note_on_c, 4, 60, 125
5, 42360, Note_on_c, 4, 64, 118
5, 42360, Note_on_c, 4, 45, 125
5, 42360, Note_on_c, 4, 57, 107
5, 42374, Control_c, 4, 64, 127
5, 42420, Note_on_c, 4, 57, 0
5, 42420, Note_on_c, 4, 45, 0
5, 42420, Note_on_c, 4, 60, 0
5, 42450, Note_on_c, 4, 64, 0
5, 42480, Note_on_c, 4, 45, 89
5, 42480, Note_on_c, 4, 60, 127
5, 42480, Note_on_c, 4, 64, 120
5, 42480, Note_on_c, 4, 57, 117
5, 42509, Note_on_c, 4, 57, 0
5, 42509, Note_on_c, 4, 64, 0
5, 42509, Note_on_c, 4, 60, 0
5, 42540, Note_on_c, 4, 45, 0
5, 42600, Note_on_c, 4, 60, 127
5, 42600, Note_on_c, 4, 64, 118
5, 42600, Note_on_c, 4, 57, 109
5, 42600, Note_on_c, 4, 45, 106
5, 42629, Note_on_c, 4, 45, 0
5, 42629, Note_on_c, 4, 60, 0
5, 42629, Note_on_c, 4, 64, 0
5, 42629, Note_on_c, 4, 57, 0
5, 42660, Note_on_c, 4, 60, 122
5, 42660, Note_on_c, 4, 57, 102
5, 42660, Note_on_c, 4, 64, 107
5, 42689, Note_on_c, 4, 64, 0
5, 42689, Note_on_c, 4, 57, 0
5, 42689, Note_on_c, 4, 60, 0
5, 42720, Note_on_c, 4, 45, 110
5, 42720, Note_on_c, 4, 60, 127
5, 42720, Note_on_c, 4, 64, 117
5, 42720, Note_on_c, 4, 57, 117
5, 42780, Note_on_c, 4, 57, 0
5, 42780, Note_on_c, 4, 45, 0
5, 42780, Note_on_c, 4, 60, 0
5, 42780, Note_on_c, 4, 64, 0
5, 42812, Control_c, 4, 64, 0
5, 42840, Note_on_c, 4, 64, 122
5, 42840, Note_on_c, 4, 60, 127
5, 42840, Note_on_c, 4, 45, 127
5, 42840, Note_on_c, 4, 57, 112
5, 42853, Control_c, 4, 64, 127
5, 42900, Note_on_c, 4, 57, 0
5, 42900, Note_on_c, 4, 64, 0
5, 42900, Note_on_c, 4, 60, 0
5, 42900, Note_on_c, 4, 45, 0
5, 42960, Note_on_c, 4, 45, 106
5, 42960, Note_on_c, 4, 60, 122
5, 42960, Note_on_c, 4, 64, 110
5, 42960, Note_on_c, 4, 57, 98
5, 42989, Note_on_c, 4, 57, 0
5, 42989, Note_on_c, 4, 45, 0
5, 42989, Note_on_c, 4, 60, 0
5, 42989, Note_on_c, 4, 64, 0
5, 43020, Note_on_c, 4, 60, 122
5, 43020, Note_on_c, 4, 57, 110
5, 43020, Note_on_c, 4, 64, 107
5, 43020, Note_on_c, 4, 45, 106
5, 43049, Note_on_c, 4, 57, 0
5, 43080, Note_on_c, 4, 60, 0
5, 43080, Note_on_c, 4, 64, 0
5, 43080, Note_on_c, 4, 45, 0
5, 43140, Note_on_c, 4, 60, 127
5, 43140, Note_on_c, 4, 64, 120
5, 43140, Note_on_c, 4, 45, 117
5, 43140, Note_on_c, 4, 57, 103
5, 43169, Note_on_c, 4, 57, 0
5, 43169, Note_on_c, 4, 60, 0
5, 43169, Note_on_c, 4, 64, 0
5, 43169, Note_on_c, 4, 45, 0
5, 43200, Note_on_c, 4, 60, 122
5, 43200, Note_on_c, 4, 57, 110
5, 43200, Note_on_c, 4, 64, 109
5, 43200, Note_on_c, 4, 45, 114
5, 43229, Note_on_c, 4, 45, 0
5, 43229, Note_on_c, 4, 60, 0
5, 43229, Note_on_c, 4, 57, 0
5, 43229, Note_on_c, 4, 64, 0
5, 43307, Control_c, 4, 64, 0
5, 43320, Note_on_c, 4, 60, 122
5, 43320, Note_on_c, 4, 64, 110
5, 43320, Note_on_c, 4, 55, 122
5, 43320, Control_c, 4, 64, 127
5, 43320, Note_on_c, 4, 48, 122
5, 43349, Note_on_c, 4, 48, 0
5, 43380, Note_on_c, 4, 60, 0
5, 43380, Note_on_c, 4, 64, 0
5, 43380, Note_on_c, 4, 55, 0
5, 43440, Note_on_c, 4, 60, 122
5, 43440, Note_on_c, 4, 64, 110
5, 43440, Note_on_c, 4, 55, 107
5, 43440, Note_on_c, 4, 48, 114
5, 43469, Note_on_c, 4, 48, 0
5, 43469, Note_on_c, 4, 60, 0
5, 43469, Note_on_c, 4, 64, 0
5, 43469, Note_on_c, 4, 55, 0
5, 43560, Note_on_c, 4, 48, 112
5, 43560, Note_on_c, 4, 60, 109
5, 43560, Note_on_c, 4, 55, 107
5, 43560, Note_on_c, 4, 64, 118
5, 43589, Note_on_c, 4, 64, 0
5, 43589, Note_on_c, 4, 48, 0
5, 43589, Note_on_c, 4, 60, 0
5, 43589, Note_on_c, 4, 55, 0
5, 43620, Note_on_c, 4, 60, 110
5, 43620, Note_on_c, 4, 64, 120
5, 43620, Note_on_c, 4, 55, 107
5, 43649, Note_on_c, 4, 55, 0
5, 43649, Note_on_c, 4, 64, 0
5, 43649, Note_on_c, 4, 60, 0
5, 43680, Note_on_c, 4, 48, 120
5, 43680, Note_on_c, 4, 60, 118
5, 43680, Note_on_c, 4, 64, 118
5, 43680, Note_on_c, 4, 55, 106
5, 43740, Note_on_c, 4, 55, 0
5, 43740, Note_on_c, 4, 48, 0
5, 43740, Note_on_c, 4, 60, 0
5, 43740, Note_on_c, 4, 64, 0
5, 43800, Note_on_c, 4, 60, 120
5, 43800, Note_on_c, 4, 55, 110
5, 43800, Note_on_c, 4, 64, 117
5, 43800, Note_on_c, 4, 48, 114
5, 43829, Note_on_c, 4, 64, 0
5, 43829, Note_on_c, 4, 60, 0
5, 43829, Note_on_c, 4, 55, 0
5, 43860, Note_on_c, 4, 48, 0
5, 43920, Note_on_c, 4, 60, 122
5, 43920, Note_on_c, 4, 64, 120
5, 43920, Note_on_c, 4, 55, 109
5, 43920, Note_on_c, 4, 48, 114
5, 43949, Note_on_c, 4, 48, 0
5, 43949, Note_on_c, 4, 60, 0
5, 43949, Note_on_c, 4, 64, 0
5, 43949, Note_on_c, 4, 55, 0
5, 44040, Note_on_c, 4, 48, 120
5, 44040, Note_on_c, 4, 60, 109
5, 44040, Note_on_c, 4, 55, 107
5, 44040, Note_on_c, 4, 64, 106
5, 44069, Note_on_c, 4, 64, 0
5, 44069, Note_on_c, 4, 48, 0
5, 44069, Note_on_c, 4, 60, 0
5, 44069, Note_on_c, 4, 55, 0
5, 44100, Note_on_c, 4, 60, 112
5, 44100, Note_on_c, 4, 55, 102
5, 44100, Note_on_c, 4, 64, 107
5, 44129, Note_on_c, 4, 64, 0
5, 44129, Note_on_c, 4, 55, 0
5, 44129, Note_on_c, 4, 60, 0
5, 44160, Note_on_c, 4, 48, 114
5, 44160, Note_on_c, 4, 60, 118
5, 44160, Note_on_c, 4, 64, 127
5, 44160, Note_on_c, 4, 55, 117
5, 44189, Note_on_c, 4, 48, 0
5, 44220, Note_on_c, 4, 60, 0
5, 44220, Note_on_c, 4, 64, 0
5, 44220, Note_on_c, 4, 55, 0
5, 44237, Control_c, 4, 64, 0
5, 44280, Note_on_c, 4, 43, 103
5, 44280, Note_on_c, 4, 59, 118
5, 44280, Note_on_c, 4, 55, 120
5, 44280, Note_on_c, 4, 62, 117
5, 44295, Control_c, 4, 64, 127
5, 44340, Note_on_c, 4, 62, 0
5, 44340, Note_on_c, 4, 43, 0
5, 44340, Note_on_c, 4, 59, 0
5, 44340, Note_on_c, 4, 55, 0
5, 44400, Note_on_c, 4, 59, 112
5, 44400, Note_on_c, 4, 62, 120
5, 44400, Note_on_c, 4, 55, 107
5, 44400, Note_on_c, 4, 43, 106
5, 44429, Note_on_c, 4, 55, 0
5, 44429, Note_on_c, 4, 59, 0
5, 44460, Note_on_c, 4, 62, 0
5, 44460, Note_on_c, 4, 43, 0
5, 44520, Note_on_c, 4, 59, 112
5, 44520, Note_on_c, 4, 62, 110
5, 44520, Note_on_c, 4, 55, 109
5, 44520, Note_on_c, 4, 43, 97
5, 44549, Note_on_c, 4, 43, 0
5, 44549, Note_on_c, 4, 59, 0
5, 44549, Note_on_c, 4, 62, 0
5, 44549, Note_on_c, 4, 55, 0
5, 44580, Note_on_c, 4, 62, 103
5, 44580, Note_on_c, 4, 59, 109
5, 44580, Note_on_c, 4, 55, 109
5, 44609, Note_on_c, 4, 55, 0
5, 44609, Note_on_c, 4, 59, 0
5, 44609, Note_on_c, 4, 62, 0
5, 44640, Note_on_c, 4, 59, 122
5, 44640, Note_on_c, 4, 62, 120
5, 44640, Note_on_c, 4, 55, 117
5, 44640, Note_on_c, 4, 43, 122
5, 44700, Note_on_c, 4, 43, 0
5, 44700, Note_on_c, 4, 59, 0
5, 44700, Note_on_c, 4, 62, 0
5, 44700, Note_on_c, 4, 55, 0
5, 44760, Note_on_c, 4, 62, 112
5, 44760, Note_on_c, 4, 59, 118
5, 44760, Note_on_c, 4, 55, 118
5, 44760, Note_on_c, 4, 43, 125
5, 44789, Note_on_c, 4, 55, 0
5, 44789, Note_on_c, 4, 62, 0
5, 44789, Note_on_c, 4, 59, 0
5, 44820, Note_on_c, 4, 43, 0
5, 44880, Note_on_c, 4, 43, 120
5, 44880, Note_on_c, 4, 62, 120
5, 44880, Note_on_c, 4, 59, 117
5, 44880, Note_on_c, 4, 55, 114
5, 44909, Note_on_c, 4, 55, 0
5, 44909, Note_on_c, 4, 59, 0
5, 44909, Note_on_c, 4, 62, 0
5, 44940, Note_on_c, 4, 43, 0
5, 45000, Note_on_c, 4, 43, 125
5, 45000, Note_on_c, 4, 59, 109
5, 45000, Note_on_c, 4, 62, 120
5, 45000, Note_on_c, 4, 55, 107
5, 45029, Note_on_c, 4, 55, 0
5, 45029, Note_on_c, 4, 43, 0
5, 45029, Note_on_c, 4, 59, 0
5, 45029, Note_on_c, 4, 62, 0
5, 45060, Note_on_c, 4, 62, 103
5, 45060, Note_on_c, 4, 59, 102
5, 45060, Note_on_c, 4, 55, 103
5, 45089, Note_on_c, 4, 55, 0
5, 45089, Note_on_c, 4, 59, 0
5, 45089, Note_on_c, 4, 62, 0
5, 45120, Note_on_c, 4, 62, 112
5, 45120, Note_on_c, 4, 43, 118
5, 45120, Note_on_c, 4, 55, 109
5, 45120, Note_on_c, 4, 59, 106
5, 45180, Note_on_c, 4, 59, 0
5, 45180, Note_on_c, 4, 62, 0
5, 45180, Note_on_c, 4, 43, 0
5, 45180, Note_on_c, 4, 55, 0
5, 45211, Control_c, 4, 64, 0
5, 45240, Note_on_c, 4, 60, 122
5, 45240, Note_on_c, 4, 55, 118
5, 45240, Note_on_c, 4, 48, 127
5, 45240, Note_on_c, 4, 64, 103
5, 45266, Control_c, 4, 64, 127
5, 45300, Note_on_c, 4, 64, 0
5, 45300, Note_on_c, 4, 60, 0
5, 45300, Note_on_c, 4, 55, 0
5, 45300, Note_on_c, 4, 48, 0
5, 45360, Note_on_c, 4, 60, 122
5, 45360, Note_on_c, 4, 48, 109
5, 45360, Note_on_c, 4, 55, 118
5, 45360, Note_on_c, 4, 64, 106
5, 45389, Note_on_c, 4, 64, 0
5, 45389, Note_on_c, 4, 60, 0
5, 45389, Note_on_c, 4, 48, 0
5, 45389, Note_on_c, 4, 55, 0
5, 45480, Note_on_c, 4, 55, 112
5, 45480, Note_on_c, 4, 60, 120
5, 45480, Note_on_c, 4, 64, 118
5, 45480, Note_on_c, 4, 48, 114
5, 45509, Note_on_c, 4, 48, 0
5, 45509, Note_on_c, 4, 55, 0
5, 45509, Note_on_c, 4, 60, 0
5, 45509, Note_on_c, 4, 64, 0
5, 45540, Note_on_c, 4, 60, 112
5, 45540, Note_on_c, 4, 55, 110
5, 45540, Note_on_c, 4, 64, 98
5, 45569, Note_on_c, 4, 64, 0
5, 45569, Note_on_c, 4, 55, 0
5, 45569, Note_on_c, 4, 60, 0
5, 45600, Note_on_c, 4, 60, 112
5, 45600, Note_on_c, 4, 64, 110
5, 45600, Note_on_c, 4, 55, 109
5, 45600, Note_on_c, 4, 48, 125
5, 45629, Note_on_c, 4, 48, 0
5, 45629, Note_on_c, 4, 60, 0
5, 45629, Note_on_c, 4, 64, 0
5, 45629, Note_on_c, 4, 55, 0
5, 45720, Note_on_c, 4, 60, 122
5, 45720, Note_on_c, 4, 55, 110
5, 45720, Note_on_c, 4, 64, 107
5, 45720, Note_on_c, 4, 48, 127
5, 45749, Note_on_c, 4, 48, 0
5, 45749, Note_on_c, 4, 60, 0
5, 45749, Note_on_c, 4, 55, 0
5, 45749, Note_on_c, 4, 64, 0
5, 45840, Note_on_c, 4, 64, 112
5, 45840, Note_on_c, 4, 55, 102
5, 45840, Note_on_c, 4, 60, 118
5, 45840, Note_on_c, 4, 48, 125
5, 45869, Note_on_c, 4, 48, 0
5, 45869, Note_on_c, 4, 64, 0
5, 45869, Note_on_c, 4, 55, 0
5, 45869, Note_on_c, 4, 60, 0
5, 45960, Note_on_c, 4, 60, 112
5, 45960, Note_on_c, 4, 64, 100
5, 45960, Note_on_c, 4, 55, 98
5, 45960, Note_on_c, 4, 48, 117
5, 45989, Note_on_c, 4, 48, 0
5, 45989, Note_on_c, 4, 60, 0
5, 45989, Note_on_c, 4, 64, 0
5, 45989, Note_on_c, 4, 55, 0
5, 46020, Note_on_c, 4, 55, 97
5, 46020, Note_on_c, 4, 60, 110
5, 46020, Note_on_c, 4, 64, 98
5, 46049, Note_on_c, 4, 64, 0
5, 46049, Note_on_c, 4, 60, 0
5, 46049, Note_on_c, 4, 55, 0
5, 46080, Note_on_c, 4, 48, 114
5, 46080, Note_on_c, 4, 60, 125
5, 46080, Note_on_c, 4, 64, 109
5, 46080, Note_on_c, 4, 55, 109
5, 46140, Note_on_c, 4, 55, 0
5, 46140, Note_on_c, 4, 48, 0
5, 46140, Note_on_c, 4, 60, 0
5, 46140, Note_on_c, 4, 64, 0
5, 46174, Control_c, 4, 64, 0
5, 46200, Note_on_c, 4, 43, 114
5, 46200, Note_on_c, 4, 55, 122
5, 46200, Note_on_c, 4, 59, 120
5, 46200, Note_on_c, 4, 62, 120
5, 46224, Control_c, 4, 64, 127
5, 46260, Note_on_c, 4, 62, 0
5, 46260, Note_on_c, 4, 43, 0
5, 46260, Note_on_c, 4, 55, 0
5, 46260, Note_on_c, 4, 59, 0
5, 46320, Note_on_c, 4, 62, 122
5, 46320, Note_on_c, 4, 59, 109
5, 46320, Note_on_c, 4, 55, 107
5, 46320, Note_on_c, 4, 43, 118
5, 46349, Note_on_c, 4, 55, 0
5, 46349, Note_on_c, 4, 62, 0
5, 46349, Note_on_c, 4, 59, 0
5, 46380, Note_on_c, 4, 43, 0
5, 46440, Note_on_c, 4, 43, 112
5, 46440, Note_on_c, 4, 55, 120
5, 46440, Note_on_c, 4, 59, 107
5, 46440, Note_on_c, 4, 62, 118
5, 46469, Note_on_c, 4, 62, 0
5, 46469, Note_on_c, 4, 59, 0
5, 46469, Note_on_c, 4, 55, 0
5, 46500, Note_on_c, 4, 43, 0
5, 46500, Note_on_c, 4, 59, 103
5, 46500, Note_on_c, 4, 62, 102
5, 46500, Note_on_c, 4, 55, 92
5, 46529, Note_on_c, 4, 55, 0
5, 46529, Note_on_c, 4, 62, 0
5, 46529, Note_on_c, 4, 59, 0
5, 46560, Note_on_c, 4, 43, 125
5, 46560, Note_on_c, 4, 55, 112
5, 46560, Note_on_c, 4, 59, 110
5, 46560, Note_on_c, 4, 62, 120
5, 46620, Note_on_c, 4, 62, 0
5, 46620, Note_on_c, 4, 43, 0
5, 46620, Note_on_c, 4, 55, 0
5, 46620, Note_on_c, 4, 59, 0
5, 46680, Note_on_c, 4, 43, 114
5, 46680, Note_on_c, 4, 62, 122
5, 46680, Note_on_c, 4, 59, 122
5, 46680, Note_on_c, 4, 55, 107
5, 46709, Note_on_c, 4, 55, 0
5, 46709, Note_on_c, 4, 59, 0
5, 46709, Note_on_c, 4, 62, 0
5, 46740, Note_on_c, 4, 43, 0
5, 46800, Note_on_c, 4, 59, 125
5, 46800, Note_on_c, 4, 62, 109
5, 46800, Note_on_c, 4, 55, 117
5, 46800, Note_on_c, 4, 43, 120
5, 46829, Note_on_c, 4, 55, 0
5, 46829, Note_on_c, 4, 59, 0
5, 46829, Note_on_c, 4, 62, 0
5, 46860, Note_on_c, 4, 43, 0
5, 46920, Note_on_c, 4, 62, 112
5, 46920, Note_on_c, 4, 55, 110
5, 46920, Note_on_c, 4, 59, 109
5, 46920, Note_on_c, 4, 43, 114
5, 46949, Note_on_c, 4, 59, 0
5, 46949, Note_on_c, 4, 62, 0
5, 46949, Note_on_c, 4, 55, 0
5, 46980, Note_on_c, 4, 43, 0
5, 46980, Note_on_c, 4, 59, 103
5, 46980, Note_on_c, 4, 62, 102
5, 46980, Note_on_c, 4, 55, 98
5, 47009, Note_on_c, 4, 55, 0
5, 47009, Note_on_c, 4, 62, 0
5, 47009, Note_on_c, 4, 59, 0
5, 47040, Note_on_c, 4, 62, 110
5, 47040, Note_on_c, 4, 59, 110
5, 47040, Note_on_c, 4, 43, 117
5, 47040, Note_on_c, 4, 55, 103
5, 47100, Note_on_c, 4, 55, 0
5, 47100, Note_on_c, 4, 62, 0
5, 47100, Note_on_c, 4, 59, 0
5, 47100, Note_on_c, 4, 43, 0
5, 47123, Control_c, 4, 64, 0
5, 47160, Note_on_c, 4, 60, 125
5, 47160, Note_on_c, 4, 64, 109
5, 47160, Note_on_c, 4, 55, 107
5, 47160, Note_on_c, 4, 48, 125
5, 47176, Control_c, 4, 64, 127
5, 47220, Note_on_c, 4, 48, 0
5, 47220, Note_on_c, 4, 60, 0
5, 47220, Note_on_c, 4, 64, 0
5, 47220, Note_on_c, 4, 55, 0
5, 47280, Note_on_c, 4, 48, 125
5, 47280, Note_on_c, 4, 60, 125
5, 47280, Note_on_c, 4, 64, 109
5, 47280, Note_on_c, 4, 55, 118
5, 47309, Note_on_c, 4, 55, 0
5, 47309, Note_on_c, 4, 48, 0
5, 47309, Note_on_c, 4, 60, 0
5, 47309, Note_on_c, 4, 64, 0
5, 47400, Note_on_c, 4, 55, 103
5, 47400, Note_on_c, 4, 60, 120
5, 47400, Note_on_c, 4, 64, 109
5, 47400, Note_on_c, 4, 48, 114
5, 47429, Note_on_c, 4, 48, 0
5, 47429, Note_on_c, 4, 55, 0
5, 47429, Note_on_c, 4, 60, 0
5, 47429, Note_on_c, 4, 64, 0
5, 47460, Note_on_c, 4, 60, 112
5, 47460, Note_on_c, 4, 55, 100
5, 47460, Note_on_c, 4, 64, 92
5, 47489, Note_on_c, 4, 64, 0
5, 47489, Note_on_c, 4, 55, 0
5, 47489, Note_on_c, 4, 60, 0
5, 47520, Note_on_c, 4, 60, 122
5, 47520, Note_on_c, 4, 64, 109
5, 47520, Note_on_c, 4, 55, 118
5, 47520, Note_on_c, 4, 48, 114
5, 47549, Note_on_c, 4, 48, 0
5, 47549, Note_on_c, 4, 60, 0
5, 47549, Note_on_c, 4, 64, 0
5, 47549, Note_on_c, 4, 55, 0
5, 47640, Note_on_c, 4, 55, 112
5, 47640, Note_on_c, 4, 60, 120
5, 47640, Note_on_c, 4, 64, 109
5, 47640, Note_on_c, 4, 48, 125
5, 47669, Note_on_c, 4, 48, 0
5, 47669, Note_on_c, 4, 55, 0
5, 47669, Note_on_c, 4, 60, 0
5, 47669, Note_on_c, 4, 64, 0
5, 47760, Note_on_c, 4, 55, 114
5, 47760, Note_on_c, 4, 60, 120
5, 47760, Note_on_c, 4, 64, 107
5, 47760, Note_on_c, 4, 48, 125
5, 47789, Note_on_c, 4, 48, 0
5, 47789, Note_on_c, 4, 55, 0
5, 47789, Note_on_c, 4, 60, 0
5, 47789, Note_on_c, 4, 64, 0
5, 47880, Note_on_c, 4, 64, 112
5, 47880, Note_on_c, 4, 55, 100
5, 47880, Note_on_c, 4, 60, 117
5, 47880, Note_on_c, 4, 48, 114
5, 47909, Note_on_c, 4, 48, 0
5, 47909, Note_on_c, 4, 64, 0
5, 47909, Note_on_c, 4, 55, 0
5, 47909, Note_on_c, 4, 60, 0
5, 47940, Note_on_c, 4, 60, 122
5, 47940, Note_on_c, 4, 55, 100
5, 47940, Note_on_c, 4, 64, 98
5, 47969, Note_on_c, 4, 64, 0
5, 47969, Note_on_c, 4, 55, 0
5, 47969, Note_on_c, 4, 60, 0
5, 48000, Note_on_c, 4, 48, 112
5, 48000, Note_on_c, 4, 60, 127
5, 48000, Note_on_c, 4, 55, 118
5, 48000, Note_on_c, 4, 64, 106
5, 48029, Note_on_c, 4, 60, 0
5, 48029, Note_on_c, 4, 48, 0
5, 48060, Note_on_c, 4, 55, 0
5, 48060, Note_on_c, 4, 64, 0
5, 48061, Control_c, 4, 64, 0
5, 48119, Control_c, 4, 64, 127
5, 48120, Note_on_c, 4, 55, 112
5, 48120, Note_on_c, 4, 62, 120
5, 48120, Note_on_c, 4, 59, 117
5, 48120, Note_on_c, 4, 43, 114
5, 48180, Note_on_c, 4, 43, 0
5, 48180, Note_on_c, 4, 55, 0
5, 48180, Note_on_c, 4, 62, 0
5, 48180, Note_on_c, 4, 59, 0
5, 48240, Note_on_c, 4, 62, 120
5, 48240, Note_on_c, 4, 59, 120
5, 48240, Note_on_c, 4, 43, 106
5, 48240, Note_on_c, 4, 55, 106
5, 48269, Note_on_c, 4, 55, 0
5, 48269, Note_on_c, 4, 62, 0
5, 48269, Note_on_c, 4, 59, 0
5, 48300, Note_on_c, 4, 43, 0
5, 48360, Note_on_c, 4, 62, 125
5, 48360, Note_on_c, 4, 55, 109
5, 48360, Note_on_c, 4, 59, 109
5, 48360, Note_on_c, 4, 43, 83
5, 48389, Note_on_c, 4, 43, 0
5, 48389, Note_on_c, 4, 62, 0
5, 48389, Note_on_c, 4, 55, 0
5, 48389, Note_on_c, 4, 59, 0
5, 48420, Note_on_c, 4, 55, 95
5, 48420, Note_on_c, 4, 59, 95
5, 48420, Note_on_c, 4, 62, 92
5, 48449, Note_on_c, 4, 62, 0
5, 48449, Note_on_c, 4, 59, 0
5, 48449, Note_on_c, 4, 55, 0
5, 48480, Note_on_c, 4, 43, 125
5, 48480, Note_on_c, 4, 62, 103
5, 48480, Note_on_c, 4, 59, 110
5, 48480, Note_on_c, 4, 55, 100
5, 48540, Note_on_c, 4, 55, 0
5, 48540, Note_on_c, 4, 43, 0
5, 48540, Note_on_c, 4, 62, 0
5, 48540, Note_on_c, 4, 59, 0
5, 48600, Note_on_c, 4, 62, 120
5, 48600, Note_on_c, 4, 59, 118
5, 48600, Note_on_c, 4, 55, 117
5, 48600, Note_on_c, 4, 43, 114
5, 48629, Note_on_c, 4, 55, 0
5, 48629, Note_on_c, 4, 62, 0
5, 48629, Note_on_c, 4, 59, 0
5, 48660, Note_on_c, 4, 43, 0
5, 48720, Note_on_c, 4, 62, 110
5, 48720, Note_on_c, 4, 55, 118
5, 48720, Note_on_c, 4, 59, 107
5, 48720, Note_on_c, 4, 43, 117
5, 48749, Note_on_c, 4, 59, 0
5, 48749, Note_on_c, 4, 62, 0
5, 48749, Note_on_c, 4, 55, 0
5, 48780, Note_on_c, 4, 43, 0
5, 48840, Note_on_c, 4, 62, 110
5, 48840, Note_on_c, 4, 43, 120
5, 48840, Note_on_c, 4, 59, 107
5, 48840, Note_on_c, 4, 55, 106
5, 48869, Note_on_c, 4, 55, 0
5, 48869, Note_on_c, 4, 59, 0
5, 48869, Note_on_c, 4, 62, 0
5, 48900, Note_on_c, 4, 43, 0
5, 48900, Note_on_c, 4, 62, 103
5, 48900, Note_on_c, 4, 59, 94
5, 48900, Note_on_c, 4, 55, 100
5, 48929, Note_on_c, 4, 55, 0
5, 48929, Note_on_c, 4, 59, 0
5, 48929, Note_on_c, 4, 62, 0
5, 48960, Note_on_c, 4, 43, 122
5, 48960, Note_on_c, 4, 62, 112
5, 48960, Note_on_c, 4, 59, 112
5, 48960, Note_on_c, 4, 55, 103
5, 48989, Note_on_c, 4, 55, 0
5, 49020, Note_on_c, 4, 43, 0
5, 49020, Note_on_c, 4, 62, 0
5, 49020, Note_on_c, 4, 59, 0
5, 49044, Control_c, 4, 64, 0
5, 49080, Note_on_c, 4, 57, 112
5, 49080, Note_on_c, 4, 53, 110
5, 49080, Note_on_c, 4, 60, 127
5, 49080, Note_on_c, 4, 41, 118
5, 49093, Control_c, 4, 64, 127
5, 49140, Note_on_c, 4, 41, 0
5, 49140, Note_on_c, 4, 57, 0
5, 49140, Note_on_c, 4, 53, 0
5, 49140, Note_on_c, 4, 60, 0
5, 49200, Note_on_c, 4, 41, 122
5, 49200, Note_on_c, 4, 57, 118
5, 49200, Note_on_c, 4, 60, 127
5, 49200, Note_on_c, 4, 53, 114
5, 49229, Note_on_c, 4, 53, 0
5, 49229, Note_on_c, 4, 60, 0
5, 49229, Note_on_c, 4, 57, 0
5, 49260, Note_on_c, 4, 41, 0
5, 49320, Note_on_c, 4, 60, 110
5, 49320, Note_on_c, 4, 57, 102
5, 49320, Note_on_c, 4, 53, 91
5, 49320, Note_on_c, 4, 41, 125
5, 49349, Note_on_c, 4, 53, 0
5, 49349, Note_on_c, 4, 60, 0
5, 49349, Note_on_c, 4, 57, 0
5, 49380, Note_on_c, 4, 41, 0
5, 49380, Note_on_c, 4, 57, 112
5, 49380, Note_on_c, 4, 60, 110
5, 49380, Note_on_c, 4, 53, 100
5, 49409, Note_on_c, 4, 53, 0
5, 49409, Note_on_c, 4, 60, 0
5, 49409, Note_on_c, 4, 57, 0
5, 49440, Note_on_c, 4, 41, 127
5, 49440, Note_on_c, 4, 57, 109
5, 49440, Note_on_c, 4, 60, 117
5, 49440, Note_on_c, 4, 53, 109
5, 49469, Note_on_c, 4, 53, 0
5, 49469, Note_on_c, 4, 41, 0
5, 49469, Note_on_c, 4, 57, 0
5, 49469, Note_on_c, 4, 60, 0
5, 49560, Note_on_c, 4, 57, 120
5, 49560, Note_on_c, 4, 60, 127
5, 49560, Note_on_c, 4, 53, 117
5, 49560, Note_on_c, 4, 41, 127
5, 49589, Note_on_c, 4, 53, 0
5, 49589, Note_on_c, 4, 57, 0
5, 49589, Note_on_c, 4, 60, 0
5, 49620, Note_on_c, 4, 41, 0
5, 49680, Note_on_c, 4, 57, 122
5, 49680, Note_on_c, 4, 60, 120
5, 49680, Note_on_c, 4, 53, 107
5, 49680, Note_on_c, 4, 41, 125
5, 49709, Note_on_c, 4, 53, 0
5, 49709, Note_on_c, 4, 57, 0
5, 49709, Note_on_c, 4, 60, 0
5, 49740, Note_on_c, 4, 41, 0
5, 49800, Note_on_c, 4, 60, 125
5, 49800, Note_on_c, 4, 57, 109
5, 49800, Note_on_c, 4, 53, 107
5, 49800, Note_on_c, 4, 41, 125
5, 49829, Note_on_c, 4, 41, 0
5, 49829, Note_on_c, 4, 60, 0
5, 49829, Note_on_c, 4, 57, 0
5, 49829, Note_on_c, 4, 53, 0
5, 49860, Note_on_c, 4, 57, 103
5, 49860, Note_on_c, 4, 60, 110
5, 49860, Note_on_c, 4, 53, 91
5, 49889, Note_on_c, 4, 53, 0
5, 49889, Note_on_c, 4, 60, 0
5, 49889, Note_on_c, 4, 57, 0
5, 49920, Note_on_c, 4, 41, 127
5, 49920, Note_on_c, 4, 60, 112
5, 49920, Note_on_c, 4, 57, 112
5, 49920, Note_on_c, 4, 53, 98
5, 49980, Note_on_c, 4, 53, 0
5, 49980, Note_on_c, 4, 41, 0
5, 49980, Note_on_c, 4, 60, 0
5, 49980, Note_on_c, 4, 57, 0
5, 49989, Control_c, 4, 64, 0
5, 50037, Control_c, 4, 64, 127
5, 50040, Note_on_c, 4, 57, 127
5, 50040, Note_on_c, 4, 60, 127
5, 50040, Note_on_c, 4, 53, 117
5, 50040, Note_on_c, 4, 41, 125
5, 50100, Note_on_c, 4, 41, 0
5, 50100, Note_on_c, 4, 57, 0
5, 50100, Note_on_c, 4, 60, 0
5, 50100, Note_on_c, 4, 53, 0
5, 50160, Note_on_c, 4, 60, 110
5, 50160, Note_on_c, 4, 41, 120
5, 50160, Note_on_c, 4, 57, 106
5, 50160, Note_on_c, 4, 53, 97
5, 50189, Note_on_c, 4, 53, 0
5, 50189, Note_on_c, 4, 60, 0
5, 50189, Note_on_c, 4, 41, 0
5, 50189, Note_on_c, 4, 57, 0
5, 50220, Note_on_c, 4, 60, 122
5, 50220, Note_on_c, 4, 57, 118
5, 50220, Note_on_c, 4, 53, 109
5, 50220, Note_on_c, 4, 41, 127
5, 50280, Note_on_c, 4, 41, 0
5, 50280, Note_on_c, 4, 60, 0
5, 50280, Note_on_c, 4, 57, 0
5, 50280, Note_on_c, 4, 53, 0
5, 50340, Note_on_c, 4, 41, 94
5, 50340, Note_on_c, 4, 57, 102
5, 50340, Note_on_c, 4, 53, 83
5, 50340, Note_on_c, 4, 60, 106
5, 50369, Note_on_c, 4, 60, 0
5, 50369, Note_on_c, 4, 41, 0
5, 50369, Note_on_c, 4, 57, 0
5, 50369, Note_on_c, 4, 53, 0
5, 50400, Note_on_c, 4, 57, 122
5, 50400, Note_on_c, 4, 60, 127
5, 50400, Note_on_c, 4, 53, 117
5, 50400, Note_on_c, 4, 41, 127
5, 50460, Note_on_c, 4, 41, 0
5, 50460, Note_on_c, 4, 57, 0
5, 50460, Note_on_c, 4, 60, 0
5, 50460, Note_on_c, 4, 53, 0
5, 50520, Note_on_c, 4, 57, 110
5, 50520, Note_on_c, 4, 60, 110
5, 50520, Note_on_c, 4, 53, 109
5, 50520, Note_on_c, 4, 41, 97
5, 50549, Note_on_c, 4, 41, 0
5, 50549, Note_on_c, 4, 57, 0
5, 50549, Note_on_c, 4, 60, 0
5, 50549, Note_on_c, 4, 53, 0
5, 50580, Note_on_c, 4, 60, 122
5, 50580, Note_on_c, 4, 57, 118
5, 50580, Note_on_c, 4, 53, 109
5, 50580, Note_on_c, 4, 41, 114
5, 50640, Note_on_c, 4, 41, 0
5, 50640, Note_on_c, 4, 60, 0
5, 50640, Note_on_c, 4, 57, 0
5, 50640, Note_on_c, 4, 53, 0
5, 50700, Note_on_c, 4, 57, 112
5, 50700, Note_on_c, 4, 41, 109
5, 50700, Note_on_c, 4, 53, 107
5, 50700, Note_on_c, 4, 60, 114
5, 50729, Note_on_c, 4, 60, 0
5, 50729, Note_on_c, 4, 57, 0
5, 50729, Note_on_c, 4, 41, 0
5, 50729, Note_on_c, 4, 53, 0
5, 50760, Note_on_c, 4, 57, 106
5, 50760, Note_on_c, 4, 60, 120
5, 50760, Note_on_c, 4, 53, 91
5, 50760, Note_on_c, 4, 41, 114
5, 50789, Note_on_c, 4, 53, 0
5, 50789, Note_on_c, 4, 57, 0
5, 50789, Note_on_c, 4, 60, 0
5, 50820, Note_on_c, 4, 41, 0
5, 50820, Note_on_c, 4, 53, 95
5, 50820, Note_on_c, 4, 57, 102
5, 50820, Note_on_c, 4, 60, 109
5, 50820, Note_on_c, 4, 41, 106
5, 50849, Note_on_c, 4, 41, 0
5, 50849, Note_on_c, 4, 53, 0
5, 50849, Note_on_c, 4, 57, 0
5, 50849, Note_on_c, 4, 60, 0
5, 50880, Note_on_c, 4, 57, 122
5, 50880, Note_on_c, 4, 60, 120
5, 50880, Note_on_c, 4, 41, 118
5, 50880, Note_on_c, 4, 53, 103
5, 50905, Control_c, 4, 64, 127
5, 50937, Control_c, 4, 64, 0
5, 50940, Note_on_c, 4, 53, 0
5, 50940, Note_on_c, 4, 57, 0
5, 50940, Note_on_c, 4, 60, 0
5, 50940, Note_on_c, 4, 41, 0
5, 51000, Note_on_c, 4, 43, 112
5, 51000, Note_on_c, 4, 59, 127
5, 51000, Note_on_c, 4, 62, 120
5, 51000, Note_on_c, 4, 55, 117
5, 51014, Control_c, 4, 64, 127
5, 51060, Note_on_c, 4, 55, 0
5, 51060, Note_on_c, 4, 43, 0
5, 51060, Note_on_c, 4, 59, 0
5, 51060, Note_on_c, 4, 62, 0
5, 51120, Note_on_c, 4, 43, 122
5, 51120, Note_on_c, 4, 59, 118
5, 51120, Note_on_c, 4, 62, 117
5, 51120, Note_on_c, 4, 55, 118
5, 51180, Note_on_c, 4, 55, 0
5, 51180, Note_on_c, 4, 43, 0
5, 51180, Note_on_c, 4, 59, 0
5, 51180, Note_on_c, 4, 62, 0
5, 51240, Note_on_c, 4, 59, 110
5, 51240, Note_on_c, 4, 62, 100
5, 51240, Note_on_c, 4, 43, 117
5, 51240, Note_on_c, 4, 55, 114
5, 51269, Note_on_c, 4, 55, 0
5, 51269, Note_on_c, 4, 59, 0
5, 51269, Note_on_c, 4, 62, 0
5, 51300, Note_on_c, 4, 43, 0
5, 51300, Note_on_c, 4, 59, 103
5, 51300, Note_on_c, 4, 62, 102
5, 51300, Note_on_c, 4, 55, 100
5, 51329, Note_on_c, 4, 55, 0
5, 51329, Note_on_c, 4, 62, 0
5, 51329, Note_on_c, 4, 59, 0
5, 51360, Note_on_c, 4, 43, 127
5, 51360, Note_on_c, 4, 59, 118
5, 51360, Note_on_c, 4, 62, 107
5, 51360, Note_on_c, 4, 55, 106
5, 51389, Note_on_c, 4, 55, 0
5, 51389, Note_on_c, 4, 43, 0
5, 51389, Note_on_c, 4, 59, 0
5, 51389, Note_on_c, 4, 62, 0
5, 51460, Control_c, 4, 64, 0
5, 51480, Note_on_c, 4, 38, 125
5, 51480, Note_on_c, 4, 57, 122
5, 51480, Note_on_c, 4, 54, 127
5, 51480, Note_on_c, 4, 62, 98
5, 51501, Control_c, 4, 64, 127
5, 51540, Note_on_c, 4, 62, 0
5, 51570, Note_on_c, 4, 38, 0
5, 51570, Note_on_c, 4, 57, 0
5, 51570, Note_on_c, 4, 54, 0
5, 51600, Note_on_c, 4, 62, 94
5, 51600, Note_on_c, 4, 38, 109
5, 51600, Note_on_c, 4, 54, 127
5, 51600, Note_on_c, 4, 57, 106
5, 51660, Note_on_c, 4, 57, 0
5, 51660, Note_on_c, 4, 62, 0
5, 51660, Note_on_c, 4, 38, 0
5, 51660, Note_on_c, 4, 54, 0
5, 51720, Note_on_c, 4, 57, 97
5, 51720, Note_on_c, 4, 62, 86
5, 51720, Note_on_c, 4, 54, 91
5, 51720, Note_on_c, 4, 38, 125
5, 51749, Note_on_c, 4, 54, 0
5, 51749, Note_on_c, 4, 57, 0
5, 51749, Note_on_c, 4, 62, 0
5, 51780, Note_on_c, 4, 38, 0
5, 51780, Note_on_c, 4, 57, 103
5, 51780, Note_on_c, 4, 54, 110
5, 51780, Note_on_c, 4, 62, 91
5, 51809, Note_on_c, 4, 62, 0
5, 51809, Note_on_c, 4, 54, 0
5, 51809, Note_on_c, 4, 57, 0
5, 51840, Note_on_c, 4, 54, 127
5, 51840, Note_on_c, 4, 57, 127
5, 51840, Note_on_c, 4, 62, 106
5, 51840, Note_on_c, 4, 38, 118
5, 51869, Note_on_c, 4, 38, 0
5, 51869, Note_on_c, 4, 54, 0
5, 51869, Note_on_c, 4, 57, 0
5, 51900, Note_on_c, 4, 62, 0
5, 51921, Control_c, 4, 64, 0
5, 51960, Note_on_c, 4, 60, 125
5, 51960, Note_on_c, 4, 64, 118
5, 51960, Note_on_c, 4, 45, 125
5, 51960, Note_on_c, 4, 57, 107
5, 51974, Control_c, 4, 64, 127
5, 52020, Note_on_c, 4, 57, 0
5, 52020, Note_on_c, 4, 45, 0
5, 52020, Note_on_c, 4, 60, 0
5, 52050, Note_on_c, 4, 64, 0
5, 52080, Note_on_c, 4, 45, 89
5, 52080, Note_on_c, 4, 60, 127
5, 52080, Note_on_c, 4, 64, 120
5, 52080, Note_on_c, 4, 57, 117
5, 52109, Note_on_c, 4, 57, 0
5, 52109, Note_on_c, 4, 64, 0
5, 52109, Note_on_c, 4, 60, 0
5, 52140, Note_on_c, 4, 45, 0
5, 52200, Note_on_c, 4, 60, 127
5, 52200, Note_on_c, 4, 64, 118
5, 52200, Note_on_c, 4, 57, 109
5, 52200, Note_on_c, 4, 45, 106
5, 52229, Note_on_c, 4, 45, 0
5, 52229, Note_on_c, 4, 60, 0
5, 52229, Note_on_c, 4, 64, 0
5, 52229, Note_on_c, 4, 57, 0
5, 52260, Note_on_c, 4, 60, 122
5, 52260, Note_on_c, 4, 57, 102
5, 52260, Note_on_c, 4, 64, 107
5, 52289, Note_on_c, 4, 64, 0
5, 52289, Note_on_c, 4, 57, 0
5, 52289, Note_on_c, 4, 60, 0
5, 52320, Note_on_c, 4, 45, 110
5, 52320, Note_on_c, 4, 60, 127
5, 52320, Note_on_c, 4, 64, 117
5, 52320, Note_on_c, 4, 57, 117
5, 52380, Note_on_c, 4, 57, 0
5, 52380, Note_on_c, 4, 45, 0
5, 52380, Note_on_c, 4, 60, 0
5, 52380, Note_on_c, 4, 64, 0
5, 52412, Control_c, 4, 64, 0
5, 52440, Note_on_c, 4, 64, 122
5, 52440, Note_on_c, 4, 60, 127
5, 52440, Note_on_c, 4, 45, 127
5, 52440, Note_on_c, 4, 57, 112
5, 52453, Control_c, 4, 64, 127
5, 52500, Note_on_c, 4, 57, 0
5, 52500, Note_on_c, 4, 64, 0
5, 52500, Note_on_c, 4, 60, 0
5, 52500, Note_on_c, 4, 45, 0
5, 52560, Note_on_c, 4, 45, 106
5, 52560, Note_on_c, 4, 60, 122
5, 52560, Note_on_c, 4, 64, 110
5, 52560, Note_on_c, 4, 57, 98
5, 52589, Note_on_c, 4, 57, 0
5, 52589, Note_on_c, 4, 45, 0
5, 52589, Note_on_c, 4, 60, 0
5, 52589, Note_on_c, 4, 64, 0
5, 52620, Note_on_c, 4, 60, 122
5, 52620, Note_on_c, 4, 57, 110
5, 52620, Note_on_c, 4, 64, 107
5, 52620, Note_on_c, 4, 45, 106
5, 52649, Note_on_c, 4, 57, 0
5, 52680, Note_on_c, 4, 60, 0
5, 52680, Note_on_c, 4, 64, 0
5, 52680, Note_on_c, 4, 45, 0
5, 52740, Note_on_c, 4, 60, 127
5, 52740, Note_on_c, 4, 64, 120
5, 52740, Note_on_c, 4, 45, 117
5, 52740, Note_on_c, 4, 57, 103
5, 52769, Note_on_c, 4, 57, 0
5, 52769, Note_on_c, 4, 60, 0
5, 52769, Note_on_c, 4, 64, 0
5, 52769, Note_on_c, 4, 45, 0
5, 52800, Note_on_c, 4, 60, 122
5, 52800, Note_on_c, 4, 57, 110
5, 52800, Note_on_c, 4, 64, 109
5, 52800, Note_on_c, 4, 45, 114
5, 52829, Note_on_c, 4, 45, 0
5, 52829, Note_on_c, 4, 60, 0
5, 52829, Note_on_c, 4, 57, 0
5, 52829, Note_on_c, 4, 64, 0
5, 52907, Control_c, 4, 64, 0
5, 52920, Note_on_c, 4, 43, 112
5, 52920, Note_on_c, 4, 59, 127
5, 52920, Note_on_c, 4, 62, 120
5, 52920, Note_on_c, 4, 55, 117
5, 52934, Control_c, 4, 64, 127
5, 52980, Note_on_c, 4, 55, 0
5, 52980, Note_on_c, 4, 43, 0
5, 52980, Note_on_c, 4, 59, 0
5, 52980, Note_on_c, 4, 62, 0
5, 53040, Note_on_c, 4, 43, 122
5, 53040, Note_on_c, 4, 59, 118
5, 53040, Note_on_c, 4, 62, 117
5, 53040, Note_on_c, 4, 55, 118
5, 53100, Note_on_c, 4, 55, 0
5, 53100, Note_on_c, 4, 43, 0
5, 53100, Note_on_c, 4, 59, 0
5, 53100, Note_on_c, 4, 62, 0
5, 53160, Note_on_c, 4, 59, 110
5, 53160, Note_on_c, 4, 62, 100
5, 53160, Note_on_c, 4, 43, 117
5, 53160, Note_on_c, 4, 55, 114
5, 53189, Note_on_c, 4, 55, 0
5, 53189, Note_on_c, 4, 59, 0
5, 53189, Note_on_c, 4, 62, 0
5, 53220, Note_on_c, 4, 43, 0
5, 53220, Note_on_c, 4, 59, 103
5, 53220, Note_on_c, 4, 62, 102
5, 53220, Note_on_c, 4, 55, 100
5, 53249, Note_on_c, 4, 55, 0
5, 53249, Note_on_c, 4, 62, 0
5, 53249, Note_on_c, 4, 59, 0
5, 53280, Note_on_c, 4, 43, 127
5, 53280, Note_on_c, 4, 59, 118
5, 53280, Note_on_c, 4, 62, 107
5, 53280, Note_on_c, 4, 55, 106
5, 53309, Note_on_c, 4, 55, 0
5, 53309, Note_on_c, 4, 43, 0
5, 53309, Note_on_c, 4, 59, 0
5, 53309, Note_on_c, 4, 62, 0
5, 53380, Control_c, 4, 64, 0
5, 53400, Note_on_c, 4, 38, 125
5, 53400, Note_on_c, 4, 57, 122
5, 53400, Note_on_c, 4, 54, 127
5, 53400, Note_on_c, 4, 62, 98
5, 53421, Control_c, 4, 64, 127
5, 53460, Note_on_c, 4, 62, 0
5, 53490, Note_on_c, 4, 38, 0
5, 53490, Note_on_c, 4, 57, 0
5, 53490, Note_on_c, 4, 54, 0
5, 53520, Note_on_c, 4, 62, 94
5, 53520, Note_on_c, 4, 38, 109
5, 53520, Note_on_c, 4, 54, 127
5, 53520, Note_on_c, 4, 57, 106
5, 53580, Note_on_c, 4, 57, 0
5, 53580, Note_on_c, 4, 62, 0
5, 53580, Note_on_c, 4, 38, 0
5, 53580, Note_on_c, 4, 54, 0
5, 53640, Note_on_c, 4, 57, 97
5, 53640, Note_on_c, 4, 62, 86
5, 53640, Note_on_c, 4, 54, 91
5, 53640, Note_on_c, 4, 38, 125
5, 53669, Note_on_c, 4, 54, 0
5, 53669, Note_on_c, 4, 57, 0
5, 53669, Note_on_c, 4, 62, 0
5, 53700, Note_on_c, 4, 38, 0
5, 53700, Note_on_c, 4, 57, 103
5, 53700, Note_on_c, 4, 54, 110
5, 53700, Note_on_c, 4, 62, 91
5, 53729, Note_on_c, 4, 62, 0
5, 53729, Note_on_c, 4, 54, 0
5, 53729, Note_on_c, 4, 57, 0
5, 53760, Note_on_c, 4, 54, 127
5, 53760, Note_on_c, 4, 57, 127
5, 53760, Note_on_c, 4, 62, 106
5, 53760, Note_on_c, 4, 38, 118
5, 53789, Note_on_c, 4, 38, 0
5, 53789, Note_on_c, 4, 54, 0
5, 53789, Note_on_c, 4, 57, 0
5, 53820, Note_on_c, 4, 62, 0
5, 53841, Control_c, 4, 64, 0
5, 53880, Note_on_c, 4, 60, 125
5, 53880, Note_on_c, 4, 64, 118
5, 53880, Note_on_c, 4, 45, 125
5, 53880, Note_on_c, 4, 57, 107
5, 53894, Control_c, 4, 64, 127
5, 53940, Note_on_c, 4, 57, 0
5, 53940, Note_on_c, 4, 45, 0
5, 53940, Note_on_c, 4, 60, 0
5, 53970, Note_on_c, 4, 64, 0
5, 54000, Note_on_c, 4, 45, 89
5, 54000, Note_on_c, 4, 60, 127
5, 54000, Note_on_c, 4, 64, 120
5, 54000, Note_on_c, 4, 57, 117
5, 54029, Note_on_c, 4, 57, 0
5, 54029, Note_on_c, 4, 64, 0
5, 54029, Note_on_c, 4, 60, 0
5, 54060, Note_on_c, 4, 45, 0
5, 54120, Note_on_c, 4, 60, 127
5, 54120, Note_on_c, 4, 64, 118
5, 54120, Note_on_c, 4, 57, 109
5, 54120, Note_on_c, 4, 45, 106
5, 54149, Note_on_c, 4, 45, 0
5, 54149, Note_on_c, 4, 60, 0
5, 54149, Note_on_c, 4, 64, 0
5, 54149, Note_on_c, 4, 57, 0
5, 54180, Note_on_c, 4, 60, 122
5, 54180, Note_on_c, 4, 57, 102
5, 54180, Note_on_c, 4, 64, 107
5, 54209, Note_on_c, 4, 64, 0
5, 54209, Note_on_c, 4, 57, 0
5, 54209, Note_on_c, 4, 60, 0
5, 54240, Note_on_c, 4, 45, 110
5, 54240, Note_on_c, 4, 60, 127
5, 54240, Note_on_c, 4, 64, 117
5, 54240, Note_on_c, 4, 57, 117
5, 54300, Note_on_c, 4, 57, 0
5, 54300, Note_on_c, 4, 45, 0
5, 54300, Note_on_c, 4, 60, 0
5, 54300, Note_on_c, 4, 64, 0
5, 54332, Control_c, 4, 64, 0
5, 54360, Note_on_c, 4, 64, 122
5, 54360, Note_on_c, 4, 60, 127
5, 54360, Note_on_c, 4, 45, 127
5, 54360, Note_on_c, 4, 57, 112
5, 54373, Control_c, 4, 64, 127
5, 54420, Note_on_c, 4, 57, 0
5, 54420, Note_on_c, 4, 64, 0
5, 54420, Note_on_c, 4, 60, 0
5, 54420, Note_on_c, 4, 45, 0
5, 54480, Note_on_c, 4, 45, 106
5, 54480, Note_on_c, 4, 60, 122
5, 54480, Note_on_c, 4, 64, 110
5, 54480, Note_on_c, 4, 57, 98
5, 54509, Note_on_c, 4, 57, 0
5, 54509, Note_on_c, 4, 45, 0
5, 54509, Note_on_c, 4, 60, 0
5, 54509, Note_on_c, 4, 64, 0
5, 54540, Note_on_c, 4, 60, 122
5, 54540, Note_on_c, 4, 57, 110
5, 54540, Note_on_c, 4, 64, 107
5, 54540, Note_on_c, 4, 45, 106
5, 54569, Note_on_c, 4, 57, 0
5, 54600, Note_on_c, 4, 60, 0
5, 54600, Note_on_c, 4, 64, 0
5, 54600, Note_on_c, 4, 45, 0
5, 54660, Note_on_c, 4, 60, 127
5, 54660, Note_on_c, 4, 64, 120
5, 54660, Note_on_c, 4, 45, 117
5, 54660, Note_on_c, 4, 57, 103
5, 54689, Note_on_c, 4, 57, 0
5, 54689, Note_on_c, 4, 60, 0
5, 54689, Note_on_c, 4, 64, 0
5, 54689, Note_on_c, 4, 45, 0
5, 54720, Note_on_c, 4, 60, 122
5, 54720, Note_on_c, 4, 57, 110
5, 54720, Note_on_c, 4, 64, 109
5, 54720, Note_on_c, 4, 45, 114
5, 54749, Note_on_c, 4, 45, 0
5, 54749, Note_on_c, 4, 60, 0
5, 54749, Note_on_c, 4, 57, 0
5, 54749, Note_on_c, 4, 64, 0
5, 54827, Control_c, 4, 64, 0
5, 54840, Note_on_c, 4, 43, 112
5, 54840, Note_on_c, 4, 59, 127
5, 54840, Note_on_c, 4, 62, 120
5, 54840, Note_on_c, 4, 55, 117
5, 54854, Control_c, 4, 64, 127
5, 54900, Note_on_c, 4, 55, 0
5, 54900, Note_on_c, 4, 43, 0
5, 54900, Note_on_c, 4, 59, 0
5, 54900, Note_on_c, 4, 62, 0
5, 54960, Note_on_c, 4, 43, 122
5, 54960, Note_on_c, 4, 59, 118
5, 54960, Note_on_c, 4, 62, 117
5, 54960, Note_on_c, 4, 55, 118
5, 55020, Note_on_c, 4, 55, 0
5, 55020, Note_on_c, 4, 43, 0
5, 55020, Note_on_c, 4, 59, 0
5, 55020, Note_on_c, 4, 62, 0
5, 55080, Note_on_c, 4, 59, 110
5, 55080, Note_on_c, 4, 62, 100
5, 55080, Note_on_c, 4, 43, 117
5, 55080, Note_on_c, 4, 55, 114
5, 55109, Note_on_c, 4, 55, 0
5, 55109, Note_on_c, 4, 59, 0
5, 55109, Note_on_c, 4, 62, 0
5, 55140, Note_on_c, 4, 43, 0
5, 55140, Note_on_c, 4, 59, 103
5, 55140, Note_on_c, 4, 62, 102
5, 55140, Note_on_c, 4, 55, 100
5, 55169, Note_on_c, 4, 55, 0
5, 55169, Note_on_c, 4, 62, 0
5, 55169, Note_on_c, 4, 59, 0
5, 55200, Note_on_c, 4, 43, 127
5, 55200, Note_on_c, 4, 59, 118
5, 55200, Note_on_c, 4, 62, 107
5, 55200, Note_on_c, 4, 55, 106
5, 55229, Note_on_c, 4, 55, 0
5, 55229, Note_on_c, 4, 43, 0
5, 55229, Note_on_c, 4, 59, 0
5, 55229, Note_on_c, 4, 62, 0
5, 55300, Control_c, 4, 64, 0
5, 55320, Note_on_c, 4, 38, 125
5, 55320, Note_on_c, 4, 57, 122
5, 55320, Note_on_c, 4, 54, 127
5, 55320, Note_on_c, 4, 62, 98
5, 55341, Control_c, 4, 64, 127
5, 55380, Note_on_c, 4, 62, 0
5, 55410, Note_on_c, 4, 38, 0
5, 55410, Note_on_c, 4, 57, 0
5, 55410, Note_on_c, 4, 54, 0
5, 55440, Note_on_c, 4, 62, 94
5, 55440, Note_on_c, 4, 38, 109
5, 55440, Note_on_c, 4, 54, 127
5, 55440, Note_on_c, 4, 57, 106
5, 55500, Note_on_c, 4, 57, 0
5, 55500, Note_on_c, 4, 62, 0
5, 55500, Note_on_c, 4, 38, 0
5, 55500, Note_on_c, 4, 54, 0
5, 55560, Note_on_c, 4, 57, 97
5, 55560, Note_on_c, 4, 62, 86
5, 55560, Note_on_c, 4, 54, 91
5, 55560, Note_on_c, 4, 38, 125
5, 55589, Note_on_c, 4, 54, 0
5, 55589, Note_on_c, 4, 57, 0
5, 55589, Note_on_c, 4, 62, 0
5, 55620, Note_on_c, 4, 38, 0
5, 55620, Note_on_c, 4, 57, 103
5, 55620, Note_on_c, 4, 54, 110
5, 55620, Note_on_c, 4, 62, 91
5, 55649, Note_on_c, 4, 62, 0
5, 55649, Note_on_c, 4, 54, 0
5, 55649, Note_on_c, 4, 57, 0
5, 55680, Note_on_c, 4, 54, 127
5, 55680, Note_on_c, 4, 57, 127
5, 55680, Note_on_c, 4, 62, 106
5, 55680, Note_on_c, 4, 38, 118
5, 55709, Note_on_c, 4, 38, 0
5, 55709, Note_on_c, 4, 54, 0
5, 55709, Note_on_c, 4, 57, 0
5, 55740, Note_on_c, 4, 62, 0
5, 55761, Control_c, 4, 64, 0
5, 55800, Note_on_c, 4, 60, 125
5, 55800, Note_on_c, 4, 64, 118
5, 55800, Note_on_c, 4, 45, 125
5, 55800, Note_on_c, 4, 57, 107
5, 55814, Control_c, 4, 64, 127
5, 55860, Note_on_c, 4, 57, 0
5, 55860, Note_on_c, 4, 45, 0
5, 55860, Note_on_c, 4, 60, 0
5, 55890, Note_on_c, 4, 64, 0
5, 55920, Note_on_c, 4, 45, 89
5, 55920, Note_on_c, 4, 60, 127
5, 55920, Note_on_c, 4, 64, 120
5, 55920, Note_on_c, 4, 57, 117
5, 55949, Note_on_c, 4, 57, 0
5, 55949, Note_on_c, 4, 64, 0
5, 55949, Note_on_c, 4, 60, 0
5, 55980, Note_on_c, 4, 45, 0
5, 56040, Note_on_c, 4, 60, 127
5, 56040, Note_on_c, 4, 64, 118
5, 56040, Note_on_c, 4, 57, 109
5, 56040, Note_on_c, 4, 45, 106
5, 56069, Note_on_c, 4, 45, 0
5, 56069, Note_on_c, 4, 60, 0
5, 56069, Note_on_c, 4, 64, 0
5, 56069, Note_on_c, 4, 57, 0
5, 56100, Note_on_c, 4, 60, 122
5, 56100, Note_on_c, 4, 57, 102
5, 56100, Note_on_c, 4, 64, 107
5, 56129, Note_on_c, 4, 64, 0
5, 56129, Note_on_c, 4, 57, 0
5, 56129, Note_on_c, 4, 60, 0
5, 56160, Note_on_c, 4, 45, 110
5, 56160, Note_on_c, 4, 60, 127
5, 56160, Note_on_c, 4, 64, 117
5, 56160, Note_on_c, 4, 57, 117
5, 56220, Note_on_c, 4, 57, 0
5, 56220, Note_on_c, 4, 45, 0
5, 56220, Note_on_c, 4, 60, 0
5, 56220, Note_on_c, 4, 64, 0
5, 56252, Control_c, 4, 64, 0
5, 56280, Note_on_c, 4, 64, 122
5, 56280, Note_on_c, 4, 60, 127
5, 56280, Note_on_c, 4, 45, 127
5, 56280, Note_on_c, 4, 57, 112
5, 56293, Control_c, 4, 64, 127
5, 56340, Note_on_c, 4, 57, 0
5, 56340, Note_on_c, 4, 64, 0
5, 56340, Note_on_c, 4, 60, 0
5, 56340, Note_on_c, 4, 45, 0
5, 56400, Note_on_c, 4, 45, 106
5, 56400, Note_on_c, 4, 60, 122
5, 56400, Note_on_c, 4, 64, 110
5, 56400, Note_on_c, 4, 57, 98
5, 56429, Note_on_c, 4, 57, 0
5, 56429, Note_on_c, 4, 45, 0
5, 56429, Note_on_c, 4, 60, 0
5, 56429, Note_on_c, 4, 64, 0
5, 56460, Note_on_c, 4, 60, 122
5, 56460, Note_on_c, 4, 57, 110
5, 56460, Note_on_c, 4, 64, 107
5, 56460, Note_on_c, 4, 45, 106
5, 56489, Note_on_c, 4, 57, 0
5, 56520, Note_on_c, 4, 60, 0
5, 56520, Note_on_c, 4, 64, 0
5, 56520, Note_on_c, 4, 45, 0
5, 56580, Note_on_c, 4, 60, 127
5, 56580, Note_on_c, 4, 64, 120
5, 56580, Note_on_c, 4, 45, 117
5, 56580, Note_on_c, 4, 57, 103
5, 56609, Note_on_c, 4, 57, 0
5, 56609, Note_on_c, 4, 60, 0
5, 56609, Note_on_c, 4, 64, 0
5, 56609, Note_on_c, 4, 45, 0
5, 56640, Note_on_c, 4, 60, 122
5, 56640, Note_on_c, 4, 57, 110
5, 56640, Note_on_c, 4, 64, 109
5, 56640, Note_on_c, 4, 45, 114
5, 56669, Note_on_c, 4, 45, 0
5, 56669, Note_on_c, 4, 60, 0
5, 56669, Note_on_c, 4, 57, 0
5, 56669, Note_on_c, 4, 64, 0
5, 56747, Control_c, 4, 64, 0
5, 56760, Note_on_c, 4, 60, 122
5, 56760, Control_c, 4, 64, 127
5, 56760, Note_on_c, 4, 48, 107
5, 56760, Note_on_c, 4, 55, 117
5, 56760, Note_on_c, 4, 64, 117
5, 56820, Note_on_c, 4, 64, 0
5, 56820, Note_on_c, 4, 60, 0
5, 56820, Note_on_c, 4, 48, 0
5, 56820, Note_on_c, 4, 55, 0
5, 56880, Note_on_c, 4, 48, 114
5, 56880, Note_on_c, 4, 55, 110
5, 56880, Note_on_c, 4, 60, 120
5, 56880, Note_on_c, 4, 64, 107
5, 56909, Note_on_c, 4, 64, 0
5, 56909, Note_on_c, 4, 60, 0
5, 56909, Note_on_c, 4, 55, 0
5, 56940, Note_on_c, 4, 48, 0
5, 57000, Note_on_c, 4, 60, 125
5, 57000, Note_on_c, 4, 55, 109
5, 57000, Note_on_c, 4, 64, 107
5, 57000, Note_on_c, 4, 48, 125
5, 57029, Note_on_c, 4, 64, 0
5, 57029, Note_on_c, 4, 60, 0
5, 57029, Note_on_c, 4, 55, 0
5, 57060, Note_on_c, 4, 48, 0
5, 57060, Note_on_c, 4, 60, 106
5, 57060, Note_on_c, 4, 55, 85
5, 57060, Note_on_c, 4, 64, 100
5, 57089, Note_on_c, 4, 64, 0
5, 57089, Note_on_c, 4, 55, 0
5, 57089, Note_on_c, 4, 60, 0
5, 57120, Note_on_c, 4, 60, 122
5, 57120, Note_on_c, 4, 64, 109
5, 57120, Note_on_c, 4, 55, 107
5, 57120, Note_on_c, 4, 48, 107
5, 57149, Note_on_c, 4, 48, 0
5, 57149, Note_on_c, 4, 60, 0
5, 57149, Note_on_c, 4, 64, 0
5, 57149, Note_on_c, 4, 55, 0
5, 57180, Note_on_c, 4, 64, 94
5, 57180, Note_on_c, 4, 60, 100
5, 57180, Note_on_c, 4, 55, 84
5, 57180, Note_on_c, 4, 48, 67
5, 57209, Note_on_c, 4, 48, 0
5, 57209, Note_on_c, 4, 64, 0
5, 57209, Note_on_c, 4, 60, 0
5, 57209, Note_on_c, 4, 55, 0
5, 57240, Note_on_c, 4, 60, 127
5, 57240, Note_on_c, 4, 55, 110
5, 57240, Note_on_c, 4, 64, 118
5, 57240, Note_on_c, 4, 48, 114
5, 57300, Note_on_c, 4, 48, 0
5, 57300, Note_on_c, 4, 60, 0
5, 57300, Note_on_c, 4, 55, 0
5, 57300, Note_on_c, 4, 64, 0
5, 57360, Note_on_c, 4, 60, 122
5, 57360, Note_on_c, 4, 55, 91
5, 57360, Note_on_c, 4, 48, 118
5, 57360, Note_on_c, 4, 64, 103
5, 57389, Note_on_c, 4, 64, 0
5, 57389, Note_on_c, 4, 60, 0
5, 57389, Note_on_c, 4, 55, 0
5, 57389, Note_on_c, 4, 48, 0
5, 57480, Note_on_c, 4, 48, 122
5, 57480, Note_on_c, 4, 55, 109
5, 57480, Note_on_c, 4, 60, 117
5, 57480, Note_on_c, 4, 64, 117
5, 57509, Note_on_c, 4, 64, 0
5, 57509, Note_on_c, 4, 60, 0
5, 57509, Note_on_c, 4, 55, 0
5, 57540, Note_on_c, 4, 48, 0
5, 57540, Note_on_c, 4, 60, 106
5, 57540, Note_on_c, 4, 64, 102
5, 57540, Note_on_c, 4, 55, 92
5, 57540, Note_on_c, 4, 48, 97
5, 57569, Note_on_c, 4, 55, 0
5, 57569, Note_on_c, 4, 60, 0
5, 57569, Note_on_c, 4, 64, 0
5, 57600, Note_on_c, 4, 48, 0
5, 57600, Note_on_c, 4, 55, 95
5, 57600, Note_on_c, 4, 64, 102
5, 57600, Note_on_c, 4, 60, 109
5, 57629, Note_on_c, 4, 60, 0
5, 57629, Note_on_c, 4, 64, 0
5, 57629, Note_on_c, 4, 55, 0
5, 57630, Note_on_c, 4, 48, 106
5, 57659, Note_on_c, 4, 48, 0
5, 57660, Note_on_c, 4, 64, 83
5, 57660, Note_on_c, 4, 55, 63
5, 57660, Note_on_c, 4, 60, 92
5, 57689, Note_on_c, 4, 60, 0
5, 57689, Note_on_c, 4, 55, 0
5, 57689, Note_on_c, 4, 64, 0
5, 57720, Note_on_c, 4, 48, 114
5, 57720, Note_on_c, 4, 55, 112
5, 57720, Note_on_c, 4, 60, 120
5, 57720, Note_on_c, 4, 64, 109
5, 57780, Note_on_c, 4, 64, 0
5, 57780, Note_on_c, 4, 48, 0
5, 57780, Note_on_c, 4, 55, 0
5, 57780, Note_on_c, 4, 60, 0
5, 57840, Note_on_c, 4, 60, 112
5, 57840, Note_on_c, 4, 55, 85
5, 57840, Note_on_c, 4, 64, 100
5, 57840, Note_on_c, 4, 48, 89
5, 57869, Note_on_c, 4, 48, 0
5, 57869, Note_on_c, 4, 60, 0
5, 57869, Note_on_c, 4, 55, 0
5, 57869, Note_on_c, 4, 64, 0
5, 57900, Note_on_c, 4, 60, 125
5, 57900, Note_on_c, 4, 55, 109
5, 57900, Note_on_c, 4, 64, 109
5, 57900, Note_on_c, 4, 48, 114
5, 57960, Note_on_c, 4, 48, 0
5, 57960, Note_on_c, 4, 60, 0
5, 57960, Note_on_c, 4, 55, 0
5, 57960, Note_on_c, 4, 64, 0
5, 58020, Note_on_c, 4, 48, 97
5, 58020, Note_on_c, 4, 55, 95
5, 58020, Note_on_c, 4, 60, 120
5, 58020, Note_on_c, 4, 64, 109
5, 58049, Note_on_c, 4, 64, 0
5, 58049, Note_on_c, 4, 48, 0
5, 58049, Note_on_c, 4, 55, 0
5, 58049, Note_on_c, 4, 60, 0
5, 58080, Note_on_c, 4, 60, 127
5, 58080, Note_on_c, 4, 64, 120
5, 58080, Note_on_c, 4, 55, 120
5, 58080, Note_on_c, 4, 48, 125
5, 58140, Note_on_c, 4, 48, 0
5, 58140, Note_on_c, 4, 60, 0
5, 58140, Note_on_c, 4, 64, 0
5, 58140, Note_on_c, 4, 55, 0
5, 58200, Note_on_c, 4, 48, 71
5, 58200, Note_on_c, 4, 60, 122
5, 58200, Note_on_c, 4, 55, 94
5, 58200, Note_on_c, 4, 64, 100
5, 58229, Note_on_c, 4, 64, 0
5, 58229, Note_on_c, 4, 48, 0
5, 58229, Note_on_c, 4, 60, 0
5, 58229, Note_on_c, 4, 55, 0
5, 58260, Note_on_c, 4, 60, 112
5, 58260, Note_on_c, 4, 64, 102
5, 58260, Note_on_c, 4, 55, 100
5, 58260, Note_on_c, 4, 48, 114
5, 58320, Note_on_c, 4, 48, 0
5, 58320, Note_on_c, 4, 60, 0
5, 58320, Note_on_c, 4, 64, 0
5, 58320, Note_on_c, 4, 55, 0
5, 58380, Note_on_c, 4, 48, 97
5, 58380, Note_on_c, 4, 55, 95
5, 58380, Note_on_c, 4, 60, 110
5, 58380, Note_on_c, 4, 64, 92
5, 58409, Note_on_c, 4, 64, 0
5, 58409, Note_on_c, 4, 48, 0
5, 58409, Note_on_c, 4, 55, 0
5, 58409, Note_on_c, 4, 60, 0
5, 58440, Note_on_c, 4, 60, 112
5, 58440, Note_on_c, 4, 64, 102
5, 58440, Note_on_c, 4, 55, 109
5, 58440, Note_on_c, 4, 48, 125
5, 58469, Note_on_c, 4, 55, 0
5, 58469, Note_on_c, 4, 60, 0
5, 58469, Note_on_c, 4, 64, 0
5, 58500, Note_on_c, 4, 60, 112
5, 58500, Note_on_c, 4, 55, 100
5, 58500, Note_on_c, 4, 64, 100
5, 58529, Note_on_c, 4, 64, 0
5, 58529, Note_on_c, 4, 55, 0
5, 58529, Note_on_c, 4, 60, 0
5, 58530, Note_on_c, 4, 48, 0
5, 58560, Note_on_c, 4, 48, 112
5, 58560, Note_on_c, 4, 60, 127
5, 58560, Note_on_c, 4, 64, 107
5, 58560, Note_on_c, 4, 55, 114
5, 58589, Note_on_c, 4, 55, 0
5, 58589, Note_on_c, 4, 48, 0
5, 58589, Note_on_c, 4, 60, 0
5, 58589, Note_on_c, 4, 64, 0
5, 58670, Control_c, 4, 64, 0
5, 58680, Note_on_c, 4, 43, 114
5, 58680, Note_on_c, 4, 59, 110
5, 58680, Note_on_c, 4, 67, 100
5, 58680, Note_on_c, 4, 55, 112
5, 58686, Control_c, 4, 64, 127
5, 58740, Note_on_c, 4, 55, 0
5, 58740, Note_on_c, 4, 43, 0
5, 58740, Note_on_c, 4, 59, 0
5, 58740, Note_on_c, 4, 67, 0
5, 58800, Note_on_c, 4, 43, 114
5, 58800, Note_on_c, 4, 59, 114
5, 58800, Note_on_c, 4, 55, 114
5, 58800, Note_on_c, 4, 67, 92
5, 58829, Note_on_c, 4, 67, 0
5, 58829, Note_on_c, 4, 55, 0
5, 58829, Note_on_c, 4, 59, 0
5, 58860, Note_on_c, 4, 43, 0
5, 58920, Note_on_c, 4, 59, 112
5, 58920, Note_on_c, 4, 55, 110
5, 58920, Note_on_c, 4, 67, 91
5, 58920, Note_on_c, 4, 43, 106
5, 58949, Note_on_c, 4, 43, 0
5, 58949, Note_on_c, 4, 59, 0
5, 58949, Note_on_c, 4, 55, 0
5, 58949, Note_on_c, 4, 67, 0
5, 58980, Note_on_c, 4, 59, 103
5, 58980, Note_on_c, 4, 55, 103
5, 58980, Note_on_c, 4, 67, 78
5, 59009, Note_on_c, 4, 67, 0
5, 59009, Note_on_c, 4, 55, 0
5, 59009, Note_on_c, 4, 59, 0
5, 59040, Note_on_c, 4, 55, 114
5, 59040, Note_on_c, 4, 59, 102
5, 59040, Note_on_c, 4, 67, 84
5, 59040, Note_on_c, 4, 43, 106
5, 59069, Note_on_c, 4, 67, 0
5, 59069, Note_on_c, 4, 55, 0
5, 59069, Note_on_c, 4, 59, 0
5, 59100, Note_on_c, 4, 59, 106
5, 59100, Note_on_c, 4, 55, 85
5, 59100, Note_on_c, 4, 67, 72
5, 59129, Note_on_c, 4, 67, 0
5, 59129, Note_on_c, 4, 55, 0
5, 59129, Note_on_c, 4, 59, 0
5, 59130, Note_on_c, 4, 43, 0
5, 59160, Note_on_c, 4, 59, 120
5, 59160, Note_on_c, 4, 55, 120
5, 59160, Note_on_c, 4, 67, 97
5, 59160, Note_on_c, 4, 43, 97
5, 59220, Note_on_c, 4, 43, 0
5, 59220, Note_on_c, 4, 59, 0
5, 59220, Note_on_c, 4, 55, 0
5, 59220, Note_on_c, 4, 67, 0
5, 59280, Note_on_c, 4, 59, 112
5, 59280, Note_on_c, 4, 55, 112
5, 59280, Note_on_c, 4, 67, 84
5, 59280, Note_on_c, 4, 43, 106
5, 59309, Note_on_c, 4, 67, 0
5, 59309, Note_on_c, 4, 59, 0
5, 59309, Note_on_c, 4, 55, 0
5, 59340, Note_on_c, 4, 43, 0
5, 59400, Note_on_c, 4, 59, 112
5, 59400, Note_on_c, 4, 55, 110
5, 59400, Note_on_c, 4, 67, 89
5, 59400, Note_on_c, 4, 43, 114
5, 59429, Note_on_c, 4, 43, 0
5, 59429, Note_on_c, 4, 59, 0
5, 59429, Note_on_c, 4, 55, 0
5, 59429, Note_on_c, 4, 67, 0
5, 59460, Note_on_c, 4, 59, 103
5, 59460, Note_on_c, 4, 55, 86
5, 59460, Note_on_c, 4, 67, 79
5, 59489, Note_on_c, 4, 67, 0
5, 59489, Note_on_c, 4, 55, 0
5, 59489, Note_on_c, 4, 59, 0
5, 59520, Note_on_c, 4, 59, 106
5, 59520, Note_on_c, 4, 67, 80
5, 59520, Note_on_c, 4, 55, 109
5, 59520, Note_on_c, 4, 43, 97
5, 59549, Note_on_c, 4, 55, 0
5, 59549, Note_on_c, 4, 59, 0
5, 59549, Note_on_c, 4, 67, 0
5, 59580, Note_on_c, 4, 59, 97
5, 59580, Note_on_c, 4, 67, 69
5, 59580, Note_on_c, 4, 55, 91
5, 59609, Note_on_c, 4, 55, 0
5, 59609, Note_on_c, 4, 67, 0
5, 59609, Note_on_c, 4, 59, 0
5, 59610, Note_on_c, 4, 43, 0
5, 59640, Note_on_c, 4, 59, 112
5, 59640, Note_on_c, 4, 55, 118
5, 59640, Note_on_c, 4, 67, 98
5, 59640, Note_on_c, 4, 43, 106
5, 59669, Note_on_c, 4, 55, 0
5, 59669, Note_on_c, 4, 59, 0
5, 59700, Note_on_c, 4, 67, 0
5, 59700, Note_on_c, 4, 43, 0
5, 59760, Note_on_c, 4, 43, 106
5, 59760, Note_on_c, 4, 59, 112
5, 59760, Note_on_c, 4, 55, 120
5, 59760, Note_on_c, 4, 67, 98
5, 59789, Note_on_c, 4, 67, 0
5, 59789, Note_on_c, 4, 43, 0
5, 59789, Note_on_c, 4, 59, 0
5, 59789, Note_on_c, 4, 55, 0
5, 59880, Note_on_c, 4, 59, 103
5, 59880, Note_on_c, 4, 67, 85
5, 59880, Note_on_c, 4, 55, 106
5, 59880, Note_on_c, 4, 43, 97
5, 59909, Note_on_c, 4, 43, 0
5, 59909, Note_on_c, 4, 59, 0
5, 59909, Note_on_c, 4, 67, 0
5, 59909, Note_on_c, 4, 55, 0
5, 59940, Note_on_c, 4, 59, 95
5, 59940, Note_on_c, 4, 67, 72
5, 59940, Note_on_c, 4, 55, 92
5, 59969, Note_on_c, 4, 55, 0
5, 59969, Note_on_c, 4, 67, 0
5, 59969, Note_on_c, 4, 59, 0
5, 60000, Note_on_c, 4, 59, 112
5, 60000, Note_on_c, 4, 67, 86
5, 60000, Note_on_c, 4, 55, 107
5, 60000, Note_on_c, 4, 43, 89
5, 60029, Note_on_c, 4, 55, 0
5, 60029, Note_on_c, 4, 59, 0
5, 60029, Note_on_c, 4, 67, 0
5, 60060, Note_on_c, 4, 67, 75
5, 60060, Note_on_c, 4, 59, 102
5, 60060, Note_on_c, 4, 55, 100
5, 60074, Control_c, 4, 64, 127
5, 60089, Note_on_c, 4, 55, 0
5, 60089, Note_on_c, 4, 59, 0
5, 60089, Note_on_c, 4, 67, 0
5, 60090, Note_on_c, 4, 43, 0
5, 60102, Control_c, 4, 64, 0
5, 60600, Note_on_c, 4, 43, 114
5, 60600, Note_on_c, 4, 59, 110
5, 60600, Note_on_c, 4, 67, 100
5, 60600, Note_on_c, 4, 55, 112
5, 60606, Control_c, 4, 64, 127
5, 60660, Note_on_c, 4, 55, 0
5, 60660, Note_on_c, 4, 43, 0
5, 60660, Note_on_c, 4, 59, 0
5, 60660, Note_on_c, 4, 67, 0
5, 60720, Note_on_c, 4, 43, 114
5, 60720, Note_on_c, 4, 59, 114
5, 60720, Note_on_c, 4, 55, 114
5, 60720, Note_on_c, 4, 67, 92
5, 60749, Note_on_c, 4, 67, 0
5, 60749, Note_on_c, 4, 55, 0
5, 60749, Note_on_c, 4, 59, 0
5, 60780, Note_on_c, 4, 43, 0
5, 60840, Note_on_c, 4, 59, 112
5, 60840, Note_on_c, 4, 55, 110
5, 60840, Note_on_c, 4, 67, 91
5, 60840, Note_on_c, 4, 43, 106
5, 60869, Note_on_c, 4, 43, 0
5, 60869, Note_on_c, 4, 59, 0
5, 60869, Note_on_c, 4, 55, 0
5, 60869, Note_on_c, 4, 67, 0
5, 60900, Note_on_c, 4, 59, 103
5, 60900, Note_on_c, 4, 55, 103
5, 60900, Note_on_c, 4, 67, 78
5, 60929, Note_on_c, 4, 67, 0
5, 60929, Note_on_c, 4, 55, 0
5, 60929, Note_on_c, 4, 59, 0
5, 60960, Note_on_c, 4, 55, 114
5, 60960, Note_on_c, 4, 59, 102
5, 60960, Note_on_c, 4, 67, 84
5, 60960, Note_on_c, 4, 43, 106
5, 60989, Note_on_c, 4, 67, 0
5, 60989, Note_on_c, 4, 55, 0
5, 60989, Note_on_c, 4, 59, 0
5, 61020, Note_on_c, 4, 59, 106
5, 61020, Note_on_c, 4, 55, 85
5, 61020, Note_on_c, 4, 67, 72
5, 61049, Note_on_c, 4, 67, 0
5, 61049, Note_on_c, 4, 55, 0
5, 61049, Note_on_c, 4, 59, 0
5, 61050, Note_on_c, 4, 43, 0
5, 61080, Note_on_c, 4, 59, 120
5, 61080, Note_on_c, 4, 55, 120
5, 61080, Note_on_c, 4, 67, 97
5, 61080, Note_on_c, 4, 43, 97
5, 61140, Note_on_c, 4, 43, 0
5, 61140, Note_on_c, 4, 59, 0
5, 61140, Note_on_c, 4, 55, 0
5, 61140, Note_on_c, 4, 67, 0
5, 61200, Note_on_c, 4, 59, 112
5, 61200, Note_on_c, 4, 55, 112
5, 61200, Note_on_c, 4, 67, 84
5, 61200, Note_on_c, 4, 43, 106
5, 61229, Note_on_c, 4, 67, 0
5, 61229, Note_on_c, 4, 59, 0
5, 61229, Note_on_c, 4, 55, 0
5, 61260, Note_on_c, 4, 43, 0
5, 61320, Note_on_c, 4, 59, 112
5, 61320, Note_on_c, 4, 55, 110
5, 61320, Note_on_c, 4, 67, 89
5, 61320, Note_on_c, 4, 43, 114
5, 61349, Note_on_c, 4, 43, 0
5, 61349, Note_on_c, 4, 59, 0
5, 61349, Note_on_c, 4, 55, 0
5, 61349, Note_on_c, 4, 67, 0
5, 61380, Note_on_c, 4, 59, 103
5, 61380, Note_on_c, 4, 55, 86
5, 61380, Note_on_c, 4, 67, 79
5, 61409, Note_on_c, 4, 67, 0
5, 61409, Note_on_c, 4, 55, 0
5, 61409, Note_on_c, 4, 59, 0
5, 61440, Note_on_c, 4, 59, 106
5, 61440, Note_on_c, 4, 67, 80
5, 61440, Note_on_c, 4, 55, 109
5, 61440, Note_on_c, 4, 43, 97
5, 61469, Note_on_c, 4, 55, 0
5, 61469, Note_on_c, 4, 59, 0
5, 61469, Note_on_c, 4, 67, 0
5, 61500, Note_on_c, 4, 59, 97
5, 61500, Note_on_c, 4, 67, 69
5, 61500, Note_on_c, 4, 55, 91
5, 61529, Note_on_c, 4, 55, 0
5, 61529, Note_on_c, 4, 67, 0
5, 61529, Note_on_c, 4, 59, 0
5, 61530, Note_on_c, 4, 43, 0
5, 61560, Note_on_c, 4, 59, 112
5, 61560, Note_on_c, 4, 55, 118
5, 61560, Note_on_c, 4, 67, 98
5, 61560, Note_on_c, 4, 43, 106
5, 61589, Note_on_c, 4, 55, 0
5, 61589, Note_on_c, 4, 59, 0
5, 61620, Note_on_c, 4, 67, 0
5, 61620, Note_on_c, 4, 43, 0
5, 61680, Note_on_c, 4, 43, 106
5, 61680, Note_on_c, 4, 59, 112
5, 61680, Note_on_c, 4, 55, 120
5, 61680, Note_on_c, 4, 67, 98
5, 61709, Note_on_c, 4, 67, 0
5, 61709, Note_on_c, 4, 43, 0
5, 61709, Note_on_c, 4, 59, 0
5, 61709, Note_on_c, 4, 55, 0
5, 61800, Note_on_c, 4, 59, 103
5, 61800, Note_on_c, 4, 67, 85
5, 61800, Note_on_c, 4, 55, 106
5, 61800, Note_on_c, 4, 43, 97
5, 61829, Note_on_c, 4, 43, 0
5, 61829, Note_on_c, 4, 59, 0
5, 61829, Note_on_c, 4, 67, 0
5, 61829, Note_on_c, 4, 55, 0
5, 61860, Note_on_c, 4, 59, 95
5, 61860, Note_on_c, 4, 67, 72
5, 61860, Note_on_c, 4, 55, 92
5, 61889, Note_on_c, 4, 55, 0
5, 61889, Note_on_c, 4, 67, 0
5, 61889, Note_on_c, 4, 59, 0
5, 61920, Note_on_c, 4, 59, 112
5, 61920, Note_on_c, 4, 67, 86
5, 61920, Note_on_c, 4, 55, 107
5, 61920, Note_on_c, 4, 43, 89
5, 61949, Note_on_c, 4, 55, 0
5, 61949, Note_on_c, 4, 59, 0
5, 61949, Note_on_c, 4, 67, 0
5, 61980, Note_on_c, 4, 67, 75
5, 61980, Note_on_c, 4, 59, 102
5, 61980, Note_on_c, 4, 55, 100
5, 62009, Note_on_c, 4, 55, 0
5, 62009, Note_on_c, 4, 59, 0
5, 62009, Note_on_c, 4, 67, 0
5, 62010, Note_on_c, 4, 43, 0
5, 62040, Note_on_c, 4, 67, 103
5, 62040, Note_on_c, 4, 59, 118
5, 62040, Note_on_c, 4, 43, 107
5, 62040, Note_on_c, 4, 55, 117
5, 62069, Note_on_c, 4, 55, 0
5, 62069, Note_on_c, 4, 59, 0
5, 62100, Note_on_c, 4, 43, 0
5, 62100, Note_on_c, 4, 67, 0
5, 62160, Note_on_c, 4, 59, 120
5, 62160, Note_on_c, 4, 55, 110
5, 62160, Note_on_c, 4, 67, 98
5, 62160, Note_on_c, 4, 43, 106
5, 62189, Note_on_c, 4, 67, 0
5, 62189, Note_on_c, 4, 59, 0
5, 62189, Note_on_c, 4, 55, 0
5, 62220, Note_on_c, 4, 43, 0
5, 62280, Note_on_c, 4, 43, 106
5, 62280, Note_on_c, 4, 59, 112
5, 62280, Note_on_c, 4, 55, 110
5, 62280, Note_on_c, 4, 67, 92
5, 62309, Note_on_c, 4, 67, 0
5, 62309, Note_on_c, 4, 43, 0
5, 62309, Note_on_c, 4, 59, 0
5, 62309, Note_on_c, 4, 55, 0
5, 62340, Note_on_c, 4, 59, 112
5, 62340, Note_on_c, 4, 67, 80
5, 62340, Note_on_c, 4, 55, 107
5, 62340, Note_on_c, 4, 43, 83
5, 62369, Note_on_c, 4, 43, 0
5, 62369, Note_on_c, 4, 59, 0
5, 62369, Note_on_c, 4, 67, 0
5, 62369, Note_on_c, 4, 55, 0
5, 62400, Note_on_c, 4, 59, 114
5, 62400, Note_on_c, 4, 67, 92
5, 62400, Note_on_c, 4, 55, 109
5, 62400, Note_on_c, 4, 43, 89
5, 62429, Note_on_c, 4, 43, 0
5, 62429, Note_on_c, 4, 59, 0
5, 62429, Note_on_c, 4, 67, 0
5, 62429, Note_on_c, 4, 55, 0
5, 62460, Note_on_c, 4, 43, 89
5, 62460, Note_on_c, 4, 55, 120
5, 62460, Note_on_c, 4, 59, 118
5, 62460, Note_on_c, 4, 67, 103
5, 62477, Control_c, 4, 64, 127
5, 62489, Note_on_c, 4, 67, 0
5, 62489, Note_on_c, 4, 43, 0
5, 62489, Note_on_c, 4, 55, 0
5, 62489, Note_on_c, 4, 59, 0
5, 62497, Control_c, 4, 64, 0
5, 62520, Control_c, 4, 64, 127
5, 62520, Note_on_c, 4, 58, 127
5, 62520, Note_on_c, 4, 53, 112
5, 62520, Note_on_c, 4, 65, 112
5, 62520, Note_on_c, 4, 46, 125
5, 62549, Note_on_c, 4, 46, 0
5, 62549, Note_on_c, 4, 53, 0
5, 62580, Note_on_c, 4, 65, 0
5, 62580, Note_on_c, 4, 58, 0
5, 62640, Note_on_c, 4, 58, 122
5, 62640, Note_on_c, 4, 53, 109
5, 62640, Note_on_c, 4, 65, 100
5, 62640, Note_on_c, 4, 46, 127
5, 62669, Note_on_c, 4, 46, 0
5, 62669, Note_on_c, 4, 58, 0
5, 62669, Note_on_c, 4, 53, 0
5, 62669, Note_on_c, 4, 65, 0
5, 62760, Note_on_c, 4, 58, 122
5, 62760, Note_on_c, 4, 46, 127
5, 62760, Note_on_c, 4, 53, 98
5, 62760, Note_on_c, 4, 65, 97
5, 62789, Note_on_c, 4, 65, 0
5, 62789, Note_on_c, 4, 58, 0
5, 62789, Note_on_c, 4, 46, 0
5, 62789, Note_on_c, 4, 53, 0
5, 62820, Note_on_c, 4, 58, 103
5, 62820, Note_on_c, 4, 65, 80
5, 62820, Note_on_c, 4, 53, 92
5, 62849, Note_on_c, 4, 53, 0
5, 62849, Note_on_c, 4, 65, 0
5, 62849, Note_on_c, 4, 58, 0
5, 62880, Note_on_c, 4, 58, 114
5, 62880, Note_on_c, 4, 65, 92
5, 62880, Note_on_c, 4, 53, 100
5, 62880, Note_on_c, 4, 46, 120
5, 62909, Note_on_c, 4, 46, 0
5, 62909, Note_on_c, 4, 58, 0
5, 62909, Note_on_c, 4, 65, 0
5, 62909, Note_on_c, 4, 53, 0
5, 62940, Note_on_c, 4, 58, 112
5, 62940, Note_on_c, 4, 65, 84
5, 62940, Note_on_c, 4, 46, 107
5, 62940, Note_on_c, 4, 53, 98
5, 62969, Note_on_c, 4, 53, 0
5, 62969, Note_on_c, 4, 58, 0
5, 62969, Note_on_c, 4, 65, 0
5, 62969, Note_on_c, 4, 46, 0
5, 63000, Note_on_c, 4, 58, 120
5, 63000, Note_on_c, 4, 65, 110
5, 63000, Note_on_c, 4, 53, 107
5, 63000, Note_on_c, 4, 46, 127
5, 63029, Note_on_c, 4, 46, 0
5, 63029, Note_on_c, 4, 58, 0
5, 63029, Note_on_c, 4, 65, 0
5, 63029, Note_on_c, 4, 53, 0
5, 63120, Note_on_c, 4, 58, 122
5, 63120, Note_on_c, 4, 53, 100
5, 63120, Note_on_c, 4, 65, 109
5, 63120, Note_on_c, 4, 46, 127
5, 63149, Note_on_c, 4, 46, 0
5, 63149, Note_on_c, 4, 58, 0
5, 63149, Note_on_c, 4, 53, 0
5, 63149, Note_on_c, 4, 65, 0
5, 63240, Note_on_c, 4, 46, 127
5, 63240, Note_on_c, 4, 58, 122
5, 63240, Note_on_c, 4, 53, 102
5, 63240, Note_on_c, 4, 65, 91
5, 63269, Note_on_c, 4, 65, 0
5, 63269, Note_on_c, 4, 46, 0
5, 63269, Note_on_c, 4, 58, 0
5, 63269, Note_on_c, 4, 53, 0
5, 63300, Note_on_c, 4, 58, 103
5, 63300, Note_on_c, 4, 65, 85
5, 63300, Note_on_c, 4, 46, 98
5, 63300, Note_on_c, 4, 53, 85
5, 63329, Note_on_c, 4, 53, 0
5, 63329, Note_on_c, 4, 58, 0
5, 63329, Note_on_c, 4, 65, 0
5, 63329, Note_on_c, 4, 46, 0
5, 63360, Note_on_c, 4, 58, 112
5, 63360, Note_on_c, 4, 65, 86
5, 63360, Note_on_c, 4, 53, 102
5, 63360, Note_on_c, 4, 46, 114
5, 63389, Note_on_c, 4, 46, 0
5, 63389, Note_on_c, 4, 58, 0
5, 63389, Note_on_c, 4, 65, 0
5, 63389, Note_on_c, 4, 53, 0
5, 63420, Note_on_c, 4, 58, 103
5, 63420, Note_on_c, 4, 65, 74
5, 63420, Note_on_c, 4, 53, 78
5, 63420, Note_on_c, 4, 46, 114
5, 63447, Control_c, 4, 64, 0
5, 63449, Note_on_c, 4, 46, 0
5, 63449, Note_on_c, 4, 58, 0
5, 63449, Note_on_c, 4, 65, 0
5, 63449, Note_on_c, 4, 53, 0
5, 63480, Note_on_c, 4, 57, 114
5, 63480, Note_on_c, 4, 64, 110
5, 63480, Note_on_c, 4, 45, 125
5, 63480, Note_on_c, 4, 52, 110
5, 63498, Control_c, 4, 64, 127
5, 63540, Note_on_c, 4, 64, 0
5, 63570, Note_on_c, 4, 57, 0
5, 63570, Note_on_c, 4, 45, 0
5, 63570, Note_on_c, 4, 52, 0
5, 63600, Note_on_c, 4, 45, 112
5, 63600, Note_on_c, 4, 57, 100
5, 63600, Note_on_c, 4, 52, 118
5, 63600, Note_on_c, 4, 64, 97
5, 63629, Note_on_c, 4, 64, 0
5, 63629, Note_on_c, 4, 45, 0
5, 63629, Note_on_c, 4, 57, 0
5, 63629, Note_on_c, 4, 52, 0
5, 63720, Note_on_c, 4, 57, 106
5, 63720, Note_on_c, 4, 52, 110
5, 63720, Note_on_c, 4, 64, 106
5, 63720, Note_on_c, 4, 45, 120
5, 63749, Note_on_c, 4, 45, 0
5, 63749, Note_on_c, 4, 57, 0
5, 63749, Note_on_c, 4, 52, 0
5, 63749, Note_on_c, 4, 64, 0
5, 63780, Note_on_c, 4, 57, 95
5, 63780, Note_on_c, 4, 52, 94
5, 63780, Note_on_c, 4, 64, 92
5, 63809, Note_on_c, 4, 64, 0
5, 63809, Note_on_c, 4, 52, 0
5, 63809, Note_on_c, 4, 57, 0
5, 63840, Note_on_c, 4, 57, 112
5, 63840, Note_on_c, 4, 64, 109
5, 63840, Note_on_c, 4, 52, 118
5, 63840, Note_on_c, 4, 45, 114
5, 63869, Note_on_c, 4, 45, 0
5, 63869, Note_on_c, 4, 57, 0
5, 63869, Note_on_c, 4, 64, 0
5, 63869, Note_on_c, 4, 52, 0
5, 63900, Note_on_c, 4, 64, 77
5, 63900, Note_on_c, 4, 57, 102
5, 63900, Note_on_c, 4, 52, 100
5, 63900, Note_on_c, 4, 45, 89
5, 63929, Note_on_c, 4, 45, 0
5, 63929, Note_on_c, 4, 64, 0
5, 63929, Note_on_c, 4, 57, 0
5, 63929, Note_on_c, 4, 52, 0
5, 63960, Note_on_c, 4, 57, 114
5, 63960, Note_on_c, 4, 64, 100
5, 63960, Note_on_c, 4, 52, 117
5, 63960, Note_on_c, 4, 45, 110
5, 63989, Note_on_c, 4, 52, 0
5, 63989, Note_on_c, 4, 57, 0
5, 64020, Note_on_c, 4, 64, 0
5, 64020, Note_on_c, 4, 45, 0
5, 64080, Note_on_c, 4, 64, 95
5, 64080, Note_on_c, 4, 57, 110
5, 64080, Note_on_c, 4, 52, 117
5, 64080, Note_on_c, 4, 45, 120
5, 64109, Note_on_c, 4, 45, 0
5, 64109, Note_on_c, 4, 52, 0
5, 64109, Note_on_c, 4, 57, 0
5, 64140, Note_on_c, 4, 64, 0
5, 64200, Note_on_c, 4, 45, 120
5, 64200, Note_on_c, 4, 52, 118
5, 64200, Note_on_c, 4, 57, 117
5, 64200, Note_on_c, 4, 64, 114
5, 64229, Note_on_c, 4, 64, 0
5, 64229, Note_on_c, 4, 45, 0
5, 64229, Note_on_c, 4, 52, 0
5, 64229, Note_on_c, 4, 57, 0
5, 64260, Note_on_c, 4, 45, 112
5, 64260, Note_on_c, 4, 57, 100
5, 64260, Note_on_c, 4, 52, 103
5, 64260, Note_on_c, 4, 64, 89
5, 64289, Note_on_c, 4, 64, 0
5, 64289, Note_on_c, 4, 45, 0
5, 64289, Note_on_c, 4, 57, 0
5, 64289, Note_on_c, 4, 52, 0
5, 64320, Note_on_c, 4, 45, 106
5, 64320, Note_on_c, 4, 57, 103
5, 64320, Note_on_c, 4, 52, 110
5, 64320, Note_on_c, 4, 64, 92
5, 64349, Note_on_c, 4, 64, 0
5, 64349, Note_on_c, 4, 45, 0
5, 64349, Note_on_c, 4, 57, 0
5, 64349, Note_on_c, 4, 52, 0
5, 64375, Control_c, 4, 64, 127
5, 64380, Note_on_c, 4, 57, 127
5, 64380, Note_on_c, 4, 64, 118
5, 64380, Note_on_c, 4, 52, 127
5, 64380, Note_on_c, 4, 45, 127
5, 64406, Control_c, 4, 64, 0
5, 64409, Note_on_c, 4, 45, 0
5, 64409, Note_on_c, 4, 57, 0
5, 64409, Note_on_c, 4, 64, 0
5, 64409, Note_on_c, 4, 52, 0
5, 64440, Note_on_c, 4, 43, 112
5, 64440, Note_on_c, 4, 59, 127
5, 64440, Note_on_c, 4, 62, 120
5, 64440, Note_on_c, 4, 55, 117
5, 64454, Control_c, 4, 64, 127
5, 64500, Note_on_c, 4, 55, 0
5, 64500, Note_on_c, 4, 43, 0
5, 64500, Note_on_c, 4, 59, 0
5, 64500, Note_on_c, 4, 62, 0
5, 64560, Note_on_c, 4, 43, 122
5, 64560, Note_on_c, 4, 59, 118
5, 64560, Note_on_c, 4, 62, 117
5, 64560, Note_on_c, 4, 55, 118
5, 64620, Note_on_c, 4, 55, 0
5, 64620, Note_on_c, 4, 43, 0
5, 64620, Note_on_c, 4, 59, 0
5, 64620, Note_on_c, 4, 62, 0
5, 64680, Note_on_c, 4, 59, 110
5, 64680, Note_on_c, 4, 62, 100
5, 64680, Note_on_c, 4, 43, 117
5, 64680, Note_on_c, 4, 55, 114
5, 64709, Note_on_c, 4, 55, 0
5, 64709, Note_on_c, 4, 59, 0
5, 64709, Note_on_c, 4, 62, 0
5, 64740, Note_on_c, 4, 43, 0
5, 64740, Note_on_c, 4, 59, 103
5, 64740, Note_on_c, 4, 62, 102
5, 64740, Note_on_c, 4, 55, 100
5, 64769, Note_on_c, 4, 55, 0
5, 64769, Note_on_c, 4, 62, 0
5, 64769, Note_on_c, 4, 59, 0
5, 64800, Note_on_c, 4, 43, 127
5, 64800, Note_on_c, 4, 59, 118
5, 64800, Note_on_c, 4, 62, 107
5, 64800, Note_on_c, 4, 55, 106
5, 64829, Note_on_c, 4, 55, 0
5, 64829, Note_on_c, 4, 43, 0
5, 64829, Note_on_c, 4, 59, 0
5, 64829, Note_on_c, 4, 62, 0
5, 64900, Control_c, 4, 64, 0
5, 64920, Note_on_c, 4, 38, 125
5, 64920, Note_on_c, 4, 57, 122
5, 64920, Note_on_c, 4, 54, 127
5, 64920, Note_on_c, 4, 62, 98
5, 64941, Control_c, 4, 64, 127
5, 64980, Note_on_c, 4, 62, 0
5, 65010, Note_on_c, 4, 38, 0
5, 65010, Note_on_c, 4, 57, 0
5, 65010, Note_on_c, 4, 54, 0
5, 65040, Note_on_c, 4, 62, 94
5, 65040, Note_on_c, 4, 38, 109
5, 65040, Note_on_c, 4, 54, 127
5, 65040, Note_on_c, 4, 57, 106
5, 65100, Note_on_c, 4, 57, 0
5, 65100, Note_on_c, 4, 62, 0
5, 65100, Note_on_c, 4, 38, 0
5, 65100, Note_on_c, 4, 54, 0
5, 65160, Note_on_c, 4, 57, 97
5, 65160, Note_on_c, 4, 62, 86
5, 65160, Note_on_c, 4, 54, 91
5, 65160, Note_on_c, 4, 38, 125
5, 65189, Note_on_c, 4, 54, 0
5, 65189, Note_on_c, 4, 57, 0
5, 65189, Note_on_c, 4, 62, 0
5, 65220, Note_on_c, 4, 38, 0
5, 65220, Note_on_c, 4, 57, 103
5, 65220, Note_on_c, 4, 54, 110
5, 65220, Note_on_c, 4, 62, 91
5, 65249, Note_on_c, 4, 62, 0
5, 65249, Note_on_c, 4, 54, 0
5, 65249, Note_on_c, 4, 57, 0
5, 65280, Note_on_c, 4, 54, 127
5, 65280, Note_on_c, 4, 57, 127
5, 65280, Note_on_c, 4, 62, 106
5, 65280, Note_on_c, 4, 38, 118
5, 65309, Note_on_c, 4, 38, 0
5, 65309, Note_on_c, 4, 54, 0
5, 65309, Note_on_c, 4, 57, 0
5, 65340, Note_on_c, 4, 62, 0
5, 65361, Control_c, 4, 64, 0
5, 65400, Note_on_c, 4, 60, 125
5, 65400, Note_on_c, 4, 64, 118
5, 65400, Note_on_c, 4, 45, 125
5, 65400, Note_on_c, 4, 57, 107
5, 65414, Control_c, 4, 64, 127
5, 65460, Note_on_c, 4, 57, 0
5, 65460, Note_on_c, 4, 45, 0
5, 65460, Note_on_c, 4, 60, 0
5, 65490, Note_on_c, 4, 64, 0
5, 65520, Note_on_c, 4, 45, 89
5, 65520, Note_on_c, 4, 60, 127
5, 65520, Note_on_c, 4, 64, 120
5, 65520, Note_on_c, 4, 57, 117
5, 65549, Note_on_c, 4, 57, 0
5, 65549, Note_on_c, 4, 64, 0
5, 65549, Note_on_c, 4, 60, 0
5, 65580, Note_on_c, 4, 45, 0
5, 65640, Note_on_c, 4, 60, 127
5, 65640, Note_on_c, 4, 64, 118
5, 65640, Note_on_c, 4, 57, 109
5, 65640, Note_on_c, 4, 45, 106
5, 65669, Note_on_c, 4, 45, 0
5, 65669, Note_on_c, 4, 60, 0
5, 65669, Note_on_c, 4, 64, 0
5, 65669, Note_on_c, 4, 57, 0
5, 65700, Note_on_c, 4, 60, 122
5, 65700, Note_on_c, 4, 57, 102
5, 65700, Note_on_c, 4, 64, 107
5, 65729, Note_on_c, 4, 64, 0
5, 65729, Note_on_c, 4, 57, 0
5, 65729, Note_on_c, 4, 60, 0
5, 65760, Note_on_c, 4, 45, 110
5, 65760, Note_on_c, 4, 60, 127
5, 65760, Note_on_c, 4, 64, 117
5, 65760, Note_on_c, 4, 57, 117
5, 65820, Note_on_c, 4, 57, 0
5, 65820, Note_on_c, 4, 45, 0
5, 65820, Note_on_c, 4, 60, 0
5, 65820, Note_on_c, 4, 64, 0
5, 65852, Control_c, 4, 64, 0
5, 65880, Note_on_c, 4, 64, 122
5, 65880, Note_on_c, 4, 60, 127
5, 65880, Note_on_c, 4, 45, 127
5, 65880, Note_on_c, 4, 57, 112
5, 65893, Control_c, 4, 64, 127
5, 65940, Note_on_c, 4, 57, 0
5, 65940, Note_on_c, 4, 64, 0
5, 65940, Note_on_c, 4, 60, 0
5, 65940, Note_on_c, 4, 45, 0
5, 66000, Note_on_c, 4, 45, 106
5, 66000, Note_on_c, 4, 60, 122
5, 66000, Note_on_c, 4, 64, 110
5, 66000, Note_on_c, 4, 57, 98
5, 66029, Note_on_c, 4, 57, 0
5, 66029, Note_on_c, 4, 45, 0
5, 66029, Note_on_c, 4, 60, 0
5, 66029, Note_on_c, 4, 64, 0
5, 66060, Note_on_c, 4, 60, 122
5, 66060, Note_on_c, 4, 57, 110
5, 66060, Note_on_c, 4, 64, 107
5, 66060, Note_on_c, 4, 45, 106
5, 66089, Note_on_c, 4, 57, 0
5, 66120, Note_on_c, 4, 60, 0
5, 66120, Note_on_c, 4, 64, 0
5, 66120, Note_on_c, 4, 45, 0
5, 66180, Note_on_c, 4, 60, 127
5, 66180, Note_on_c, 4, 64, 120
5, 66180, Note_on_c, 4, 45, 117
5, 66180, Note_on_c, 4, 57, 103
5, 66209, Note_on_c, 4, 57, 0
5, 66209, Note_on_c, 4, 60, 0
5, 66209, Note_on_c, 4, 64, 0
5, 66209, Note_on_c, 4, 45, 0
5, 66240, Note_on_c, 4, 60, 122
5, 66240, Note_on_c, 4, 57, 110
5, 66240, Note_on_c, 4, 64, 109
5, 66240, Note_on_c, 4, 45, 114
5, 66269, Note_on_c, 4, 45, 0
5, 66269, Note_on_c, 4, 60, 0
5, 66269, Note_on_c, 4, 57, 0
5, 66269, Note_on_c, 4, 64, 0
5, 66347, Control_c, 4, 64, 0
5, 66360, Note_on_c, 4, 43, 112
5, 66360, Note_on_c, 4, 59, 127
5, 66360, Note_on_c, 4, 62, 120
5, 66360, Note_on_c, 4, 55, 117
5, 66374, Control_c, 4, 64, 127
5, 66420, Note_on_c, 4, 55, 0
5, 66420, Note_on_c, 4, 43, 0
5, 66420, Note_on_c, 4, 59, 0
5, 66420, Note_on_c, 4, 62, 0
5, 66480, Note_on_c, 4, 43, 122
5, 66480, Note_on_c, 4, 59, 118
5, 66480, Note_on_c, 4, 62, 117
5, 66480, Note_on_c, 4, 55, 118
5, 66540, Note_on_c, 4, 55, 0
5, 66540, Note_on_c, 4, 43, 0
5, 66540, Note_on_c, 4, 59, 0
5, 66540, Note_on_c, 4, 62, 0
5, 66600, Note_on_c, 4, 59, 110
5, 66600, Note_on_c, 4, 62, 100
5, 66600, Note_on_c, 4, 43, 117
5, 66600, Note_on_c, 4, 55, 114
5, 66629, Note_on_c, 4, 55, 0
5, 66629, Note_on_c, 4, 59, 0
5, 66629, Note_on_c, 4, 62, 0
5, 66660, Note_on_c, 4, 43, 0
5, 66660, Note_on_c, 4, 59, 103
5, 66660, Note_on_c, 4, 62, 102
5, 66660, Note_on_c, 4, 55, 100
5, 66689, Note_on_c, 4, 55, 0
5, 66689, Note_on_c, 4, 62, 0
5, 66689, Note_on_c, 4, 59, 0
5, 66720, Note_on_c, 4, 43, 127
5, 66720, Note_on_c, 4, 59, 118
5, 66720, Note_on_c, 4, 62, 107
5, 66720, Note_on_c, 4, 55, 106
5, 66749, Note_on_c, 4, 55, 0
5, 66749, Note_on_c, 4, 43, 0
5, 66749, Note_on_c, 4, 59, 0
5, 66749, Note_on_c, 4, 62, 0
5, 66820, Control_c, 4, 64, 0
5, 66840, Note_on_c, 4, 38, 125
5, 66840, Note_on_c, 4, 57, 122
5, 66840, Note_on_c, 4, 54, 127
5, 66840, Note_on_c, 4, 62, 98
5, 66861, Control_c, 4, 64, 127
5, 66900, Note_on_c, 4, 62, 0
5, 66930, Note_on_c, 4, 38, 0
5, 66930, Note_on_c, 4, 57, 0
5, 66930, Note_on_c, 4, 54, 0
5, 66960, Note_on_c, 4, 62, 94
5, 66960, Note_on_c, 4, 38, 109
5, 66960, Note_on_c, 4, 54, 127
5, 66960, Note_on_c, 4, 57, 106
5, 67020, Note_on_c, 4, 57, 0
5, 67020, Note_on_c, 4, 62, 0
5, 67020, Note_on_c, 4, 38, 0
5, 67020, Note_on_c, 4, 54, 0
5, 67080, Note_on_c, 4, 57, 97
5, 67080, Note_on_c, 4, 62, 86
5, 67080, Note_on_c, 4, 54, 91
5, 67080, Note_on_c, 4, 38, 125
5, 67109, Note_on_c, 4, 54, 0
5, 67109, Note_on_c, 4, 57, 0
5, 67109, Note_on_c, 4, 62, 0
5, 67140, Note_on_c, 4, 38, 0
5, 67140, Note_on_c, 4, 57, 103
5, 67140, Note_on_c, 4, 54, 110
5, 67140, Note_on_c, 4, 62, 91
5, 67169, Note_on_c, 4, 62, 0
5, 67169, Note_on_c, 4, 54, 0
5, 67169, Note_on_c, 4, 57, 0
5, 67200, Note_on_c, 4, 54, 127
5, 67200, Note_on_c, 4, 57, 127
5, 67200, Note_on_c, 4, 62, 106
5, 67200, Note_on_c, 4, 38, 118
5, 67229, Note_on_c, 4, 38, 0
5, 67229, Note_on_c, 4, 54, 0
5, 67229, Note_on_c, 4, 57, 0
5, 67260, Note_on_c, 4, 62, 0
5, 67281, Control_c, 4, 64, 0
5, 67320, Note_on_c, 4, 60, 125
5, 67320, Note_on_c, 4, 64, 118
5, 67320, Note_on_c, 4, 45, 125
5, 67320, Note_on_c, 4, 57, 107
5, 67334, Control_c, 4, 64, 127
5, 67380, Note_on_c, 4, 57, 0
5, 67380, Note_on_c, 4, 45, 0
5, 67380, Note_on_c, 4, 60, 0
5, 67410, Note_on_c, 4, 64, 0
5, 67440, Note_on_c, 4, 45, 89
5, 67440, Note_on_c, 4, 60, 127
5, 67440, Note_on_c, 4, 64, 120
5, 67440, Note_on_c, 4, 57, 117
5, 67469, Note_on_c, 4, 57, 0
5, 67469, Note_on_c, 4, 64, 0
5, 67469, Note_on_c, 4, 60, 0
5, 67500, Note_on_c, 4, 45, 0
5, 67560, Note_on_c, 4, 60, 127
5, 67560, Note_on_c, 4, 64, 118
5, 67560, Note_on_c, 4, 57, 109
5, 67560, Note_on_c, 4, 45, 106
5, 67589, Note_on_c, 4, 45, 0
5, 67589, Note_on_c, 4, 60, 0
5, 67589, Note_on_c, 4, 64, 0
5, 67589, Note_on_c, 4, 57, 0
5, 67620, Note_on_c, 4, 60, 122
5, 67620, Note_on_c, 4, 57, 102
5, 67620, Note_on_c, 4, 64, 107
5, 67649, Note_on_c, 4, 64, 0
5, 67649, Note_on_c, 4, 57, 0
5, 67649, Note_on_c, 4, 60, 0
5, 67680, Note_on_c, 4, 45, 110
5, 67680, Note_on_c, 4, 60, 127
5, 67680, Note_on_c, 4, 64, 117
5, 67680, Note_on_c, 4, 57, 117
5, 67740, Note_on_c, 4, 57, 0
5, 67740, Note_on_c, 4, 45, 0
5, 67740, Note_on_c, 4, 60, 0
5, 67740, Note_on_c, 4, 64, 0
5, 67772, Control_c, 4, 64, 0
5, 67800, Note_on_c, 4, 64, 122
5, 67800, Note_on_c, 4, 60, 127
5, 67800, Note_on_c, 4, 45, 127
5, 67800, Note_on_c, 4, 57, 112
5, 67813, Control_c, 4, 64, 127
5, 67860, Note_on_c, 4, 57, 0
5, 67860, Note_on_c, 4, 64, 0
5, 67860, Note_on_c, 4, 60, 0
5, 67860, Note_on_c, 4, 45, 0
5, 67920, Note_on_c, 4, 45, 106
5, 67920, Note_on_c, 4, 60, 122
5, 67920, Note_on_c, 4, 64, 110
5, 67920, Note_on_c, 4, 57, 98
5, 67949, Note_on_c, 4, 57, 0
5, 67949, Note_on_c, 4, 45, 0
5, 67949, Note_on_c, 4, 60, 0
5, 67949, Note_on_c, 4, 64, 0
5, 67980, Note_on_c, 4, 60, 122
5, 67980, Note_on_c, 4, 57, 110
5, 67980, Note_on_c, 4, 64, 107
5, 67980, Note_on_c, 4, 45, 106
5, 68009, Note_on_c, 4, 57, 0
5, 68040, Note_on_c, 4, 60, 0
5, 68040, Note_on_c, 4, 64, 0
5, 68040, Note_on_c, 4, 45, 0
5, 68100, Note_on_c, 4, 60, 127
5, 68100, Note_on_c, 4, 64, 120
5, 68100, Note_on_c, 4, 45, 117
5, 68100, Note_on_c, 4, 57, 103
5, 68129, Note_on_c, 4, 57, 0
5, 68129, Note_on_c, 4, 60, 0
5, 68129, Note_on_c, 4, 64, 0
5, 68129, Note_on_c, 4, 45, 0
5, 68160, Note_on_c, 4, 60, 122
5, 68160, Note_on_c, 4, 57, 110
5, 68160, Note_on_c, 4, 64, 109
5, 68160, Note_on_c, 4, 45, 114
5, 68189, Note_on_c, 4, 45, 0
5, 68189, Note_on_c, 4, 60, 0
5, 68189, Note_on_c, 4, 57, 0
5, 68189, Note_on_c, 4, 64, 0
5, 68267, Control_c, 4, 64, 0
5, 68280, Note_on_c, 4, 43, 112
5, 68280, Note_on_c, 4, 59, 127
5, 68280, Note_on_c, 4, 62, 120
5, 68280, Note_on_c, 4, 55, 117
5, 68294, Control_c, 4, 64, 127
5, 68340, Note_on_c, 4, 55, 0
5, 68340, Note_on_c, 4, 43, 0
5, 68340, Note_on_c, 4, 59, 0
5, 68340, Note_on_c, 4, 62, 0
5, 68400, Note_on_c, 4, 43, 122
5, 68400, Note_on_c, 4, 59, 118
5, 68400, Note_on_c, 4, 62, 117
5, 68400, Note_on_c, 4, 55, 118
5, 68460, Note_on_c, 4, 55, 0
5, 68460, Note_on_c, 4, 43, 0
5, 68460, Note_on_c, 4, 59, 0
5, 68460, Note_on_c, 4, 62, 0
5, 68520, Note_on_c, 4, 59, 110
5, 68520, Note_on_c, 4, 62, 100
5, 68520, Note_on_c, 4, 43, 117
5, 68520, Note_on_c, 4, 55, 114
5, 68549, Note_on_c, 4, 55, 0
5, 68549, Note_on_c, 4, 59, 0
5, 68549, Note_on_c, 4, 62, 0
5, 68580, Note_on_c, 4, 43, 0
5, 68580, Note_on_c, 4, 59, 103
5, 68580, Note_on_c, 4, 62, 102
5, 68580, Note_on_c, 4, 55, 100
5, 68609, Note_on_c, 4, 55, 0
5, 68609, Note_on_c, 4, 62, 0
5, 68609, Note_on_c, 4, 59, 0
5, 68640, Note_on_c, 4, 43, 127
5, 68640, Note_on_c, 4, 59, 118
5, 68640, Note_on_c, 4, 62, 107
5, 68640, Note_on_c, 4, 55, 106
5, 68669, Note_on_c, 4, 55, 0
5, 68669, Note_on_c, 4, 43, 0
5, 68669, Note_on_c, 4, 59, 0
5, 68669, Note_on_c, 4, 62, 0
5, 68740, Control_c, 4, 64, 0
5, 68760, Note_on_c, 4, 38, 125
5, 68760, Note_on_c, 4, 57, 122
5, 68760, Note_on_c, 4, 54, 127
5, 68760, Note_on_c, 4, 62, 98
5, 68781, Control_c, 4, 64, 127
5, 68820, Note_on_c, 4, 62, 0
5, 68850, Note_on_c, 4, 38, 0
5, 68850, Note_on_c, 4, 57, 0
5, 68850, Note_on_c, 4, 54, 0
5, 68880, Note_on_c, 4, 62, 94
5, 68880, Note_on_c, 4, 38, 109
5, 68880, Note_on_c, 4, 54, 127
5, 68880, Note_on_c, 4, 57, 106
5, 68940, Note_on_c, 4, 57, 0
5, 68940, Note_on_c, 4, 62, 0
5, 68940, Note_on_c, 4, 38, 0
5, 68940, Note_on_c, 4, 54, 0
5, 69000, Note_on_c, 4, 57, 97
5, 69000, Note_on_c, 4, 62, 86
5, 69000, Note_on_c, 4, 54, 91
5, 69000, Note_on_c, 4, 38, 125
5, 69029, Note_on_c, 4, 54, 0
5, 69029, Note_on_c, 4, 57, 0
5, 69029, Note_on_c, 4, 62, 0
5, 69060, Note_on_c, 4, 38, 0
5, 69060, Note_on_c, 4, 57, 103
5, 69060, Note_on_c, 4, 54, 110
5, 69060, Note_on_c, 4, 62, 91
5, 69089, Note_on_c, 4, 62, 0
5, 69089, Note_on_c, 4, 54, 0
5, 69089, Note_on_c, 4, 57, 0
5, 69120, Note_on_c, 4, 54, 127
5, 69120, Note_on_c, 4, 57, 127
5, 69120, Note_on_c, 4, 62, 106
5, 69120, Note_on_c, 4, 38, 118
5, 69149, Note_on_c, 4, 38, 0
5, 69149, Note_on_c, 4, 54, 0
5, 69149, Note_on_c, 4, 57, 0
5, 69180, Note_on_c, 4, 62, 0
5, 69201, Control_c, 4, 64, 0
5, 69240, Note_on_c, 4, 60, 125
5, 69240, Note_on_c, 4, 64, 118
5, 69240, Note_on_c, 4, 45, 125
5, 69240, Note_on_c, 4, 57, 107
5, 69254, Control_c, 4, 64, 127
5, 69300, Note_on_c, 4, 57, 0
5, 69300, Note_on_c, 4, 45, 0
5, 69300, Note_on_c, 4, 60, 0
5, 69330, Note_on_c, 4, 64, 0
5, 69360, Note_on_c, 4, 45, 89
5, 69360, Note_on_c, 4, 60, 127
5, 69360, Note_on_c, 4, 64, 120
5, 69360, Note_on_c, 4, 57, 117
5, 69389, Note_on_c, 4, 57, 0
5, 69389, Note_on_c, 4, 64, 0
5, 69389, Note_on_c, 4, 60, 0
5, 69420, Note_on_c, 4, 45, 0
5, 69480, Note_on_c, 4, 60, 127
5, 69480, Note_on_c, 4, 64, 118
5, 69480, Note_on_c, 4, 57, 109
5, 69480, Note_on_c, 4, 45, 106
5, 69509, Note_on_c, 4, 45, 0
5, 69509, Note_on_c, 4, 60, 0
5, 69509, Note_on_c, 4, 64, 0
5, 69509, Note_on_c, 4, 57, 0
5, 69540, Note_on_c, 4, 60, 122
5, 69540, Note_on_c, 4, 57, 102
5, 69540, Note_on_c, 4, 64, 107
5, 69569, Note_on_c, 4, 64, 0
5, 69569, Note_on_c, 4, 57, 0
5, 69569, Note_on_c, 4, 60, 0
5, 69600, Note_on_c, 4, 45, 110
5, 69600, Note_on_c, 4, 60, 127
5, 69600, Note_on_c, 4, 64, 117
5, 69600, Note_on_c, 4, 57, 117
5, 69660, Note_on_c, 4, 57, 0
5, 69660, Note_on_c, 4, 45, 0
5, 69660, Note_on_c, 4, 60, 0
5, 69660, Note_on_c, 4, 64, 0
5, 69692, Control_c, 4, 64, 0
5, 69720, Note_on_c, 4, 64, 122
5, 69720, Note_on_c, 4, 60, 127
5, 69720, Note_on_c, 4, 45, 127
5, 69720, Note_on_c, 4, 57, 112
5, 69733, Control_c, 4, 64, 127
5, 69780, Note_on_c, 4, 57, 0
5, 69780, Note_on_c, 4, 64, 0
5, 69780, Note_on_c, 4, 60, 0
5, 69780, Note_on_c, 4, 45, 0
5, 69840, Note_on_c, 4, 45, 106
5, 69840, Note_on_c, 4, 60, 122
5, 69840, Note_on_c, 4, 64, 110
5, 69840, Note_on_c, 4, 57, 98
5, 69869, Note_on_c, 4, 57, 0
5, 69869, Note_on_c, 4, 45, 0
5, 69869, Note_on_c, 4, 60, 0
5, 69869, Note_on_c, 4, 64, 0
5, 69900, Note_on_c, 4, 60, 122
5, 69900, Note_on_c, 4, 57, 110
5, 69900, Note_on_c, 4, 64, 107
5, 69900, Note_on_c, 4, 45, 106
5, 69929, Note_on_c, 4, 57, 0
5, 69960, Note_on_c, 4, 60, 0
5, 69960, Note_on_c, 4, 64, 0
5, 69960, Note_on_c, 4, 45, 0
5, 70020, Note_on_c, 4, 60, 127
5, 70020, Note_on_c, 4, 64, 120
5, 70020, Note_on_c, 4, 45, 117
5, 70020, Note_on_c, 4, 57, 103
5, 70049, Note_on_c, 4, 57, 0
5, 70049, Note_on_c, 4, 60, 0
5, 70049, Note_on_c, 4, 64, 0
5, 70049, Note_on_c, 4, 45, 0
5, 70080, Note_on_c, 4, 60, 122
5, 70080, Note_on_c, 4, 57, 110
5, 70080, Note_on_c, 4, 64, 109
5, 70080, Note_on_c, 4, 45, 114
5, 70109, Note_on_c, 4, 45, 0
5, 70109, Note_on_c, 4, 60, 0
5, 70109, Note_on_c, 4, 57, 0
5, 70109, Note_on_c, 4, 64, 0
5, 70187, Control_c, 4, 64, 0
5, 70200, Note_on_c, 4, 60, 122
5, 70200, Control_c, 4, 64, 127
5, 70200, Note_on_c, 4, 48, 107
5, 70200, Note_on_c, 4, 55, 117
5, 70200, Note_on_c, 4, 64, 117
5, 70260, Note_on_c, 4, 64, 0
5, 70260, Note_on_c, 4, 60, 0
5, 70260, Note_on_c, 4, 48, 0
5, 70260, Note_on_c, 4, 55, 0
5, 70320, Note_on_c, 4, 48, 114
5, 70320, Note_on_c, 4, 55, 110
5, 70320, Note_on_c, 4, 60, 120
5, 70320, Note_on_c, 4, 64, 107
5, 70349, Note_on_c, 4, 64, 0
5, 70349, Note_on_c, 4, 60, 0
5, 70349, Note_on_c, 4, 55, 0
5, 70380, Note_on_c, 4, 48, 0
5, 70440, Note_on_c, 4, 60, 125
5, 70440, Note_on_c, 4, 55, 109
5, 70440, Note_on_c, 4, 64, 107
5, 70440, Note_on_c, 4, 48, 125
5, 70469, Note_on_c, 4, 64, 0
5, 70469, Note_on_c, 4, 60, 0
5, 70469, Note_on_c, 4, 55, 0
5, 70500, Note_on_c, 4, 48, 0
5, 70500, Note_on_c, 4, 60, 106
5, 70500, Note_on_c, 4, 55, 85
5, 70500, Note_on_c, 4, 64, 100
5, 70529, Note_on_c, 4, 64, 0
5, 70529, Note_on_c, 4, 55, 0
5, 70529, Note_on_c, 4, 60, 0
5, 70560, Note_on_c, 4, 60, 122
5, 70560, Note_on_c, 4, 64, 109
5, 70560, Note_on_c, 4, 55, 107
5, 70560, Note_on_c, 4, 48, 107
5, 70589, Note_on_c, 4, 48, 0
5, 70589, Note_on_c, 4, 60, 0
5, 70589, Note_on_c, 4, 64, 0
5, 70589, Note_on_c, 4, 55, 0
5, 70620, Note_on_c, 4, 64, 94
5, 70620, Note_on_c, 4, 60, 100
5, 70620, Note_on_c, 4, 55, 84
5, 70620, Note_on_c, 4, 48, 67
5, 70649, Note_on_c, 4, 48, 0
5, 70649, Note_on_c, 4, 64, 0
5, 70649, Note_on_c, 4, 60, 0
5, 70649, Note_on_c, 4, 55, 0
5, 70680, Note_on_c, 4, 60, 127
5, 70680, Note_on_c, 4, 55, 110
5, 70680, Note_on_c, 4, 64, 118
5, 70680, Note_on_c, 4, 48, 114
5, 70740, Note_on_c, 4, 48, 0
5, 70740, Note_on_c, 4, 60, 0
5, 70740, Note_on_c, 4, 55, 0
5, 70740, Note_on_c, 4, 64, 0
5, 70800, Note_on_c, 4, 60, 122
5, 70800, Note_on_c, 4, 55, 91
5, 70800, Note_on_c, 4, 48, 118
5, 70800, Note_on_c, 4, 64, 103
5, 70829, Note_on_c, 4, 64, 0
5, 70829, Note_on_c, 4, 60, 0
5, 70829, Note_on_c, 4, 55, 0
5, 70829, Note_on_c, 4, 48, 0
5, 70920, Note_on_c, 4, 48, 122
5, 70920, Note_on_c, 4, 55, 109
5, 70920, Note_on_c, 4, 60, 117
5, 70920, Note_on_c, 4, 64, 117
5, 70949, Note_on_c, 4, 64, 0
5, 70949, Note_on_c, 4, 60, 0
5, 70949, Note_on_c, 4, 55, 0
5, 70980, Note_on_c, 4, 48, 0
5, 70980, Note_on_c, 4, 60, 106
5, 70980, Note_on_c, 4, 64, 102
5, 70980, Note_on_c, 4, 55, 92
5, 70980, Note_on_c, 4, 48, 97
5, 71009, Note_on_c, 4, 55, 0
5, 71009, Note_on_c, 4, 60, 0
5, 71009, Note_on_c, 4, 64, 0
5, 71040, Note_on_c, 4, 48, 0
5, 71040, Note_on_c, 4, 55, 95
5, 71040, Note_on_c, 4, 64, 102
5, 71040, Note_on_c, 4, 60, 109
5, 71069, Note_on_c, 4, 60, 0
5, 71069, Note_on_c, 4, 64, 0
5, 71069, Note_on_c, 4, 55, 0
5, 71070, Note_on_c, 4, 48, 106
5, 71099, Note_on_c, 4, 48, 0
5, 71100, Note_on_c, 4, 64, 83
5, 71100, Note_on_c, 4, 55, 63
5, 71100, Note_on_c, 4, 60, 92
5, 71129, Note_on_c, 4, 60, 0
5, 71129, Note_on_c, 4, 55, 0
5, 71129, Note_on_c, 4, 64, 0
5, 71160, Note_on_c, 4, 48, 114
5, 71160, Note_on_c, 4, 55, 112
5, 71160, Note_on_c, 4, 60, 120
5, 71160, Note_on_c, 4, 64, 109
5, 71220, Note_on_c, 4, 64, 0
5, 71220, Note_on_c, 4, 48, 0
5, 71220, Note_on_c, 4, 55, 0
5, 71220, Note_on_c, 4, 60, 0
5, 71280, Note_on_c, 4, 60, 112
5, 71280, Note_on_c, 4, 55, 85
5, 71280, Note_on_c, 4, 64, 100
5, 71280, Note_on_c, 4, 48, 89
5, 71309, Note_on_c, 4, 48, 0
5, 71309, Note_on_c, 4, 60, 0
5, 71309, Note_on_c, 4, 55, 0
5, 71309, Note_on_c, 4, 64, 0
5, 71340, Note_on_c, 4, 60, 125
5, 71340, Note_on_c, 4, 55, 109
5, 71340, Note_on_c, 4, 64, 109
5, 71340, Note_on_c, 4, 48, 114
5, 71400, Note_on_c, 4, 48, 0
5, 71400, Note_on_c, 4, 60, 0
5, 71400, Note_on_c, 4, 55, 0
5, 71400, Note_on_c, 4, 64, 0
5, 71460, Note_on_c, 4, 48, 97
5, 71460, Note_on_c, 4, 55, 95
5, 71460, Note_on_c, 4, 60, 120
5, 71460, Note_on_c, 4, 64, 109
5, 71489, Note_on_c, 4, 64, 0
5, 71489, Note_on_c, 4, 48, 0
5, 71489, Note_on_c, 4, 55, 0
5, 71489, Note_on_c, 4, 60, 0
5, 71520, Note_on_c, 4, 60, 127
5, 71520, Note_on_c, 4, 64, 120
5, 71520, Note_on_c, 4, 55, 120
5, 71520, Note_on_c, 4, 48, 125
5, 71580, Note_on_c, 4, 48, 0
5, 71580, Note_on_c, 4, 60, 0
5, 71580, Note_on_c, 4, 64, 0
5, 71580, Note_on_c, 4, 55, 0
5, 71640, Note_on_c, 4, 48, 71
5, 71640, Note_on_c, 4, 60, 122
5, 71640, Note_on_c, 4, 55, 94
5, 71640, Note_on_c, 4, 64, 100
5, 71669, Note_on_c, 4, 64, 0
5, 71669, Note_on_c, 4, 48, 0
5, 71669, Note_on_c, 4, 60, 0
5, 71669, Note_on_c, 4, 55, 0
5, 71700, Note_on_c, 4, 60, 112
5, 71700, Note_on_c, 4, 64, 102
5, 71700, Note_on_c, 4, 55, 100
5, 71700, Note_on_c, 4, 48, 114
5, 71760, Note_on_c, 4, 48, 0
5, 71760, Note_on_c, 4, 60, 0
5, 71760, Note_on_c, 4, 64, 0
5, 71760, Note_on_c, 4, 55, 0
5, 71820, Note_on_c, 4, 48, 97
5, 71820, Note_on_c, 4, 55, 95
5, 71820, Note_on_c, 4, 60, 110
5, 71820, Note_on_c, 4, 64, 92
5, 71849, Note_on_c, 4, 64, 0
5, 71849, Note_on_c, 4, 48, 0
5, 71849, Note_on_c, 4, 55, 0
5, 71849, Note_on_c, 4, 60, 0
5, 71880, Note_on_c, 4, 60, 112
5, 71880, Note_on_c, 4, 64, 102
5, 71880, Note_on_c, 4, 55, 109
5, 71880, Note_on_c, 4, 48, 125
5, 71909, Note_on_c, 4, 55, 0
5, 71909, Note_on_c, 4, 60, 0
5, 71909, Note_on_c, 4, 64, 0
5, 71940, Note_on_c, 4, 60, 112
5, 71940, Note_on_c, 4, 55, 100
5, 71940, Note_on_c, 4, 64, 100
5, 71969, Note_on_c, 4, 64, 0
5, 71969, Note_on_c, 4, 55, 0
5, 71969, Note_on_c, 4, 60, 0
5, 71970, Note_on_c, 4, 48, 0
5, 72000, Note_on_c, 4, 48, 112
5, 72000, Note_on_c, 4, 60, 127
5, 72000, Note_on_c, 4, 64, 107
5, 72000, Note_on_c, 4, 55, 114
5, 72029, Note_on_c, 4, 55, 0
5, 72029, Note_on_c, 4, 48, 0
5, 72029, Note_on_c, 4, 60, 0
5, 72029, Note_on_c, 4, 64, 0
5, 72110, Control_c, 4, 64, 0
5, 74040, Note_on_c, 4, 43, 125
5, 74040, Note_on_c, 4, 62, 122
5, 74040, Note_on_c, 4, 67, 118
5, 74040, Note_on_c, 4, 59, 120
5, 74056, Control_c, 4, 64, 127
5, 74100, Note_on_c, 4, 59, 0
5, 74100, Note_on_c, 4, 43, 0
5, 74100, Note_on_c, 4, 62, 0
5, 74100, Note_on_c, 4, 67, 0
5, 74160, Note_on_c, 4, 43, 102
5, 74160, Note_on_c, 4, 62, 120
5, 74160, Note_on_c, 4, 67, 98
5, 74160, Note_on_c, 4, 59, 107
5, 74189, Note_on_c, 4, 59, 0
5, 74189, Note_on_c, 4, 43, 0
5, 74189, Note_on_c, 4, 62, 0
5, 74189, Note_on_c, 4, 67, 0
5, 74220, Note_on_c, 4, 62, 127
5, 74220, Note_on_c, 4, 67, 118
5, 74220, Note_on_c, 4, 59, 127
5, 74220, Note_on_c, 4, 43, 125
5, 74280, Note_on_c, 4, 43, 0
5, 74280, Note_on_c, 4, 62, 0
5, 74280, Note_on_c, 4, 67, 0
5, 74280, Note_on_c, 4, 59, 0
5, 74340, Note_on_c, 4, 62, 127
5, 74340, Note_on_c, 4, 67, 107
5, 74340, Note_on_c, 4, 43, 117
5, 74340, Note_on_c, 4, 59, 114
5, 74369, Note_on_c, 4, 59, 0
5, 74369, Note_on_c, 4, 62, 0
5, 74369, Note_on_c, 4, 67, 0
5, 74369, Note_on_c, 4, 43, 0
5, 74400, Note_on_c, 4, 62, 125
5, 74400, Note_on_c, 4, 67, 109
5, 74400, Note_on_c, 4, 59, 109
5, 74400, Note_on_c, 4, 43, 125
5, 74429, Note_on_c, 4, 43, 0
5, 74429, Note_on_c, 4, 62, 0
5, 74429, Note_on_c, 4, 67, 0
5, 74429, Note_on_c, 4, 59, 0
5, 74460, Note_on_c, 4, 67, 103
5, 74460, Note_on_c, 4, 62, 118
5, 74460, Note_on_c, 4, 59, 110
5, 74460, Note_on_c, 4, 43, 117
5, 74477, Control_c, 4, 64, 0
5, 74489, Note_on_c, 4, 43, 0
5, 74489, Note_on_c, 4, 67, 0
5, 74489, Note_on_c, 4, 62, 0
5, 74489, Note_on_c, 4, 59, 0
5, 74520, Note_on_c, 4, 62, 127
5, 74520, Note_on_c, 4, 57, 125
5, 74520, Note_on_c, 4, 66, 127
5, 74520, Note_on_c, 4, 50, 127
5, 74533, Control_c, 4, 64, 127
5, 74610, Note_on_c, 4, 50, 0
5, 74610, Note_on_c, 4, 62, 0
5, 74610, Note_on_c, 4, 57, 0
5, 74610, Note_on_c, 4, 66, 0
5, 74640, Note_on_c, 4, 62, 122
5, 74640, Note_on_c, 4, 66, 127
5, 74640, Note_on_c, 4, 57, 109
5, 74640, Note_on_c, 4, 50, 110
5, 74669, Note_on_c, 4, 50, 0
5, 74669, Note_on_c, 4, 62, 0
5, 74669, Note_on_c, 4, 66, 0
5, 74669, Note_on_c, 4, 57, 0
5, 74700, Note_on_c, 4, 62, 122
5, 74700, Note_on_c, 4, 66, 127
5, 74700, Note_on_c, 4, 57, 117
5, 74700, Note_on_c, 4, 50, 106
5, 74760, Note_on_c, 4, 50, 0
5, 74760, Note_on_c, 4, 62, 0
5, 74760, Note_on_c, 4, 66, 0
5, 74760, Note_on_c, 4, 57, 0
5, 74820, Note_on_c, 4, 62, 112
5, 74820, Note_on_c, 4, 66, 127
5, 74820, Note_on_c, 4, 57, 117
5, 74820, Note_on_c, 4, 50, 106
5, 74849, Note_on_c, 4, 50, 0
5, 74849, Note_on_c, 4, 62, 0
5, 74849, Note_on_c, 4, 66, 0
5, 74849, Note_on_c, 4, 57, 0
5, 74880, Note_on_c, 4, 62, 110
5, 74880, Note_on_c, 4, 66, 122
5, 74880, Note_on_c, 4, 57, 107
5, 74880, Note_on_c, 4, 50, 97
5, 74909, Note_on_c, 4, 50, 0
5, 74909, Note_on_c, 4, 62, 0
5, 74909, Note_on_c, 4, 66, 0
5, 74909, Note_on_c, 4, 57, 0
5, 74940, Note_on_c, 4, 66, 122
5, 74940, Note_on_c, 4, 62, 110
5, 74940, Note_on_c, 4, 57, 102
5, 74940, Note_on_c, 4, 50, 81
5, 74962, Control_c, 4, 64, 0
5, 74969, Note_on_c, 4, 50, 0
5, 74969, Note_on_c, 4, 66, 0
5, 74969, Note_on_c, 4, 62, 0
5, 74969, Note_on_c, 4, 57, 0
5, 75000, Note_on_c, 4, 60, 127
5, 75000, Note_on_c, 4, 57, 109
5, 75000, Note_on_c, 4, 64, 127
5, 75000, Note_on_c, 4, 45, 127
5, 75014, Control_c, 4, 64, 127
5, 75060, Note_on_c, 4, 64, 0
5, 75060, Note_on_c, 4, 60, 0
5, 75060, Note_on_c, 4, 57, 0
5, 75090, Note_on_c, 4, 45, 0
5, 75120, Note_on_c, 4, 60, 125
5, 75120, Note_on_c, 4, 64, 109
5, 75120, Note_on_c, 4, 57, 107
5, 75120, Note_on_c, 4, 45, 127
5, 75149, Note_on_c, 4, 45, 0
5, 75149, Note_on_c, 4, 60, 0
5, 75149, Note_on_c, 4, 64, 0
5, 75149, Note_on_c, 4, 57, 0
5, 75180, Note_on_c, 4, 64, 120
5, 75180, Note_on_c, 4, 60, 127
5, 75180, Note_on_c, 4, 57, 117
5, 75180, Note_on_c, 4, 45, 125
5, 75240, Note_on_c, 4, 45, 0
5, 75240, Note_on_c, 4, 64, 0
5, 75240, Note_on_c, 4, 60, 0
5, 75240, Note_on_c, 4, 57, 0
5, 75300, Note_on_c, 4, 45, 112
5, 75300, Note_on_c, 4, 60, 118
5, 75300, Note_on_c, 4, 64, 118
5, 75300, Note_on_c, 4, 57, 109
5, 75329, Note_on_c, 4, 57, 0
5, 75329, Note_on_c, 4, 45, 0
5, 75329, Note_on_c, 4, 60, 0
5, 75329, Note_on_c, 4, 64, 0
5, 75360, Note_on_c, 4, 64, 127
5, 75360, Note_on_c, 4, 60, 127
5, 75360, Note_on_c, 4, 57, 117
5, 75360, Note_on_c, 4, 45, 125
5, 75420, Note_on_c, 4, 45, 0
5, 75420, Note_on_c, 4, 64, 0
5, 75420, Note_on_c, 4, 60, 0
5, 75420, Note_on_c, 4, 57, 0
5, 75480, Note_on_c, 4, 45, 106
5, 75480, Note_on_c, 4, 60, 114
5, 75480, Note_on_c, 4, 64, 102
5, 75480, Note_on_c, 4, 57, 84
5, 75509, Note_on_c, 4, 57, 0
5, 75509, Note_on_c, 4, 45, 0
5, 75509, Note_on_c, 4, 60, 0
5, 75509, Note_on_c, 4, 64, 0
5, 75540, Note_on_c, 4, 60, 127
5, 75540, Note_on_c, 4, 57, 120
5, 75540, Note_on_c, 4, 64, 118
5, 75540, Note_on_c, 4, 45, 127
5, 75600, Note_on_c, 4, 45, 0
5, 75600, Note_on_c, 4, 60, 0
5, 75600, Note_on_c, 4, 57, 0
5, 75600, Note_on_c, 4, 64, 0
5, 75660, Note_on_c, 4, 45, 112
5, 75660, Note_on_c, 4, 60, 110
5, 75660, Note_on_c, 4, 64, 98
5, 75660, Note_on_c, 4, 57, 97
5, 75689, Note_on_c, 4, 57, 0
5, 75689, Note_on_c, 4, 45, 0
5, 75689, Note_on_c, 4, 60, 0
5, 75689, Note_on_c, 4, 64, 0
5, 75720, Note_on_c, 4, 60, 127
5, 75720, Note_on_c, 4, 57, 118
5, 75720, Note_on_c, 4, 64, 117
5, 75720, Note_on_c, 4, 45, 125
5, 75749, Note_on_c, 4, 45, 0
5, 75749, Note_on_c, 4, 60, 0
5, 75749, Note_on_c, 4, 57, 0
5, 75749, Note_on_c, 4, 64, 0
5, 75780, Note_on_c, 4, 60, 112
5, 75780, Note_on_c, 4, 64, 110
5, 75780, Note_on_c, 4, 57, 100
5, 75780, Note_on_c, 4, 45, 114
5, 75809, Note_on_c, 4, 45, 0
5, 75809, Note_on_c, 4, 60, 0
5, 75809, Note_on_c, 4, 64, 0
5, 75809, Note_on_c, 4, 57, 0
5, 75840, Note_on_c, 4, 60, 127
5, 75840, Note_on_c, 4, 64, 127
5, 75840, Note_on_c, 4, 57, 127
5, 75840, Note_on_c, 4, 45, 127
5, 75869, Note_on_c, 4, 45, 0
5, 75869, Note_on_c, 4, 60, 0
5, 75869, Note_on_c, 4, 64, 0
5, 75869, Note_on_c, 4, 57, 0
5, 75916, Control_c, 4, 64, 0
5, 75960, Note_on_c, 4, 43, 125
5, 75960, Note_on_c, 4, 62, 122
5, 75960, Note_on_c, 4, 67, 118
5, 75960, Note_on_c, 4, 59, 120
5, 75976, Control_c, 4, 64, 127
5, 76020, Note_on_c, 4, 59, 0
5, 76020, Note_on_c, 4, 43, 0
5, 76020, Note_on_c, 4, 62, 0
5, 76020, Note_on_c, 4, 67, 0
5, 76080, Note_on_c, 4, 43, 102
5, 76080, Note_on_c, 4, 62, 120
5, 76080, Note_on_c, 4, 67, 98
5, 76080, Note_on_c, 4, 59, 107
5, 76109, Note_on_c, 4, 59, 0
5, 76109, Note_on_c, 4, 43, 0
5, 76109, Note_on_c, 4, 62, 0
5, 76109, Note_on_c, 4, 67, 0
5, 76140, Note_on_c, 4, 62, 127
5, 76140, Note_on_c, 4, 67, 118
5, 76140, Note_on_c, 4, 59, 127
5, 76140, Note_on_c, 4, 43, 125
5, 76200, Note_on_c, 4, 43, 0
5, 76200, Note_on_c, 4, 62, 0
5, 76200, Note_on_c, 4, 67, 0
5, 76200, Note_on_c, 4, 59, 0
5, 76260, Note_on_c, 4, 62, 127
5, 76260, Note_on_c, 4, 67, 107
5, 76260, Note_on_c, 4, 43, 117
5, 76260, Note_on_c, 4, 59, 114
5, 76289, Note_on_c, 4, 59, 0
5, 76289, Note_on_c, 4, 62, 0
5, 76289, Note_on_c, 4, 67, 0
5, 76289, Note_on_c, 4, 43, 0
5, 76320, Note_on_c, 4, 62, 125
5, 76320, Note_on_c, 4, 67, 109
5, 76320, Note_on_c, 4, 59, 109
5, 76320, Note_on_c, 4, 43, 125
5, 76349, Note_on_c, 4, 43, 0
5, 76349, Note_on_c, 4, 62, 0
5, 76349, Note_on_c, 4, 67, 0
5, 76349, Note_on_c, 4, 59, 0
5, 76380, Note_on_c, 4, 67, 103
5, 76380, Note_on_c, 4, 62, 118
5, 76380, Note_on_c, 4, 59, 110
5, 76380, Note_on_c, 4, 43, 117
5, 76397, Control_c, 4, 64, 0
5, 76409, Note_on_c, 4, 43, 0
5, 76409, Note_on_c, 4, 67, 0
5, 76409, Note_on_c, 4, 62, 0
5, 76409, Note_on_c, 4, 59, 0
5, 76440, Note_on_c, 4, 62, 127
5, 76440, Note_on_c, 4, 57, 125
5, 76440, Note_on_c, 4, 66, 127
5, 76440, Note_on_c, 4, 50, 127
5, 76453, Control_c, 4, 64, 127
5, 76530, Note_on_c, 4, 50, 0
5, 76530, Note_on_c, 4, 62, 0
5, 76530, Note_on_c, 4, 57, 0
5, 76530, Note_on_c, 4, 66, 0
5, 76560, Note_on_c, 4, 62, 122
5, 76560, Note_on_c, 4, 66, 127
5, 76560, Note_on_c, 4, 57, 109
5, 76560, Note_on_c, 4, 50, 110
5, 76589, Note_on_c, 4, 50, 0
5, 76589, Note_on_c, 4, 62, 0
5, 76589, Note_on_c, 4, 66, 0
5, 76589, Note_on_c, 4, 57, 0
5, 76620, Note_on_c, 4, 62, 122
5, 76620, Note_on_c, 4, 66, 127
5, 76620, Note_on_c, 4, 57, 117
5, 76620, Note_on_c, 4, 50, 106
5, 76680, Note_on_c, 4, 50, 0
5, 76680, Note_on_c, 4, 62, 0
5, 76680, Note_on_c, 4, 66, 0
5, 76680, Note_on_c, 4, 57, 0
5, 76740, Note_on_c, 4, 62, 112
5, 76740, Note_on_c, 4, 66, 127
5, 76740, Note_on_c, 4, 57, 117
5, 76740, Note_on_c, 4, 50, 106
5, 76769, Note_on_c, 4, 50, 0
5, 76769, Note_on_c, 4, 62, 0
5, 76769, Note_on_c, 4, 66, 0
5, 76769, Note_on_c, 4, 57, 0
5, 76800, Note_on_c, 4, 62, 110
5, 76800, Note_on_c, 4, 66, 122
5, 76800, Note_on_c, 4, 57, 107
5, 76800, Note_on_c, 4, 50, 97
5, 76829, Note_on_c, 4, 50, 0
5, 76829, Note_on_c, 4, 62, 0
5, 76829, Note_on_c, 4, 66, 0
5, 76829, Note_on_c, 4, 57, 0
5, 76860, Note_on_c, 4, 66, 122
5, 76860, Note_on_c, 4, 62, 110
5, 76860, Note_on_c, 4, 57, 102
5, 76860, Note_on_c, 4, 50, 81
5, 76882, Control_c, 4, 64, 0
5, 76889, Note_on_c, 4, 50, 0
5, 76889, Note_on_c, 4, 66, 0
5, 76889, Note_on_c, 4, 62, 0
5, 76889, Note_on_c, 4, 57, 0
5, 76920, Note_on_c, 4, 60, 127
5, 76920, Note_on_c, 4, 57, 109
5, 76920, Note_on_c, 4, 64, 127
5, 76920, Note_on_c, 4, 45, 127
5, 76934, Control_c, 4, 64, 127
5, 76980, Note_on_c, 4, 64, 0
5, 76980, Note_on_c, 4, 60, 0
5, 76980, Note_on_c, 4, 57, 0
5, 77010, Note_on_c, 4, 45, 0
5, 77040, Note_on_c, 4, 60, 125
5, 77040, Note_on_c, 4, 64, 109
5, 77040, Note_on_c, 4, 57, 107
5, 77040, Note_on_c, 4, 45, 127
5, 77069, Note_on_c, 4, 45, 0
5, 77069, Note_on_c, 4, 60, 0
5, 77069, Note_on_c, 4, 64, 0
5, 77069, Note_on_c, 4, 57, 0
5, 77100, Note_on_c, 4, 64, 120
5, 77100, Note_on_c, 4, 60, 127
5, 77100, Note_on_c, 4, 57, 117
5, 77100, Note_on_c, 4, 45, 125
5, 77160, Note_on_c, 4, 45, 0
5, 77160, Note_on_c, 4, 64, 0
5, 77160, Note_on_c, 4, 60, 0
5, 77160, Note_on_c, 4, 57, 0
5, 77220, Note_on_c, 4, 45, 112
5, 77220, Note_on_c, 4, 60, 118
5, 77220, Note_on_c, 4, 64, 118
5, 77220, Note_on_c, 4, 57, 109
5, 77249, Note_on_c, 4, 57, 0
5, 77249, Note_on_c, 4, 45, 0
5, 77249, Note_on_c, 4, 60, 0
5, 77249, Note_on_c, 4, 64, 0
5, 77280, Note_on_c, 4, 64, 127
5, 77280, Note_on_c, 4, 60, 127
5, 77280, Note_on_c, 4, 57, 117
5, 77280, Note_on_c, 4, 45, 125
5, 77340, Note_on_c, 4, 45, 0
5, 77340, Note_on_c, 4, 64, 0
5, 77340, Note_on_c, 4, 60, 0
5, 77340, Note_on_c, 4, 57, 0
5, 77400, Note_on_c, 4, 45, 106
5, 77400, Note_on_c, 4, 60, 114
5, 77400, Note_on_c, 4, 64, 102
5, 77400, Note_on_c, 4, 57, 84
5, 77429, Note_on_c, 4, 57, 0
5, 77429, Note_on_c, 4, 45, 0
5, 77429, Note_on_c, 4, 60, 0
5, 77429, Note_on_c, 4, 64, 0
5, 77460, Note_on_c, 4, 60, 127
5, 77460, Note_on_c, 4, 57, 120
5, 77460, Note_on_c, 4, 64, 118
5, 77460, Note_on_c, 4, 45, 127
5, 77520, Note_on_c, 4, 45, 0
5, 77520, Note_on_c, 4, 60, 0
5, 77520, Note_on_c, 4, 57, 0
5, 77520, Note_on_c, 4, 64, 0
5, 77580, Note_on_c, 4, 45, 112
5, 77580, Note_on_c, 4, 60, 110
5, 77580, Note_on_c, 4, 64, 98
5, 77580, Note_on_c, 4, 57, 97
5, 77609, Note_on_c, 4, 57, 0
5, 77609, Note_on_c, 4, 45, 0
5, 77609, Note_on_c, 4, 60, 0
5, 77609, Note_on_c, 4, 64, 0
5, 77640, Note_on_c, 4, 60, 127
5, 77640, Note_on_c, 4, 57, 118
5, 77640, Note_on_c, 4, 64, 117
5, 77640, Note_on_c, 4, 45, 125
5, 77669, Note_on_c, 4, 45, 0
5, 77669, Note_on_c, 4, 60, 0
5, 77669, Note_on_c, 4, 57, 0
5, 77669, Note_on_c, 4, 64, 0
5, 77700, Note_on_c, 4, 60, 112
5, 77700, Note_on_c, 4, 64, 110
5, 77700, Note_on_c, 4, 57, 100
5, 77700, Note_on_c, 4, 45, 114
5, 77729, Note_on_c, 4, 45, 0
5, 77729, Note_on_c, 4, 60, 0
5, 77729, Note_on_c, 4, 64, 0
5, 77729, Note_on_c, 4, 57, 0
5, 77760, Note_on_c, 4, 60, 127
5, 77760, Note_on_c, 4, 64, 127
5, 77760, Note_on_c, 4, 57, 127
5, 77760, Note_on_c, 4, 45, 127
5, 77789, Note_on_c, 4, 45, 0
5, 77789, Note_on_c, 4, 60, 0
5, 77789, Note_on_c, 4, 64, 0
5, 77789, Note_on_c, 4, 57, 0
5, 77836, Control_c, 4, 64, 0
5, 77880, Note_on_c, 4, 43, 125
5, 77880, Note_on_c, 4, 62, 122
5, 77880, Note_on_c, 4, 67, 118
5, 77880, Note_on_c, 4, 59, 120
5, 77896, Control_c, 4, 64, 127
5, 77940, Note_on_c, 4, 59, 0
5, 77940, Note_on_c, 4, 43, 0
5, 77940, Note_on_c, 4, 62, 0
5, 77940, Note_on_c, 4, 67, 0
5, 78000, Note_on_c, 4, 43, 102
5, 78000, Note_on_c, 4, 62, 120
5, 78000, Note_on_c, 4, 67, 98
5, 78000, Note_on_c, 4, 59, 107
5, 78029, Note_on_c, 4, 59, 0
5, 78029, Note_on_c, 4, 43, 0
5, 78029, Note_on_c, 4, 62, 0
5, 78029, Note_on_c, 4, 67, 0
5, 78060, Note_on_c, 4, 62, 127
5, 78060, Note_on_c, 4, 67, 118
5, 78060, Note_on_c, 4, 59, 127
5, 78060, Note_on_c, 4, 43, 125
5, 78120, Note_on_c, 4, 43, 0
5, 78120, Note_on_c, 4, 62, 0
5, 78120, Note_on_c, 4, 67, 0
5, 78120, Note_on_c, 4, 59, 0
5, 78180, Note_on_c, 4, 62, 127
5, 78180, Note_on_c, 4, 67, 107
5, 78180, Note_on_c, 4, 43, 117
5, 78180, Note_on_c, 4, 59, 114
5, 78209, Note_on_c, 4, 59, 0
5, 78209, Note_on_c, 4, 62, 0
5, 78209, Note_on_c, 4, 67, 0
5, 78209, Note_on_c, 4, 43, 0
5, 78240, Note_on_c, 4, 62, 125
5, 78240, Note_on_c, 4, 67, 109
5, 78240, Note_on_c, 4, 59, 109
5, 78240, Note_on_c, 4, 43, 125
5, 78269, Note_on_c, 4, 43, 0
5, 78269, Note_on_c, 4, 62, 0
5, 78269, Note_on_c, 4, 67, 0
5, 78269, Note_on_c, 4, 59, 0
5, 78300, Note_on_c, 4, 67, 103
5, 78300, Note_on_c, 4, 62, 118
5, 78300, Note_on_c, 4, 59, 110
5, 78300, Note_on_c, 4, 43, 117
5, 78317, Control_c, 4, 64, 0
5, 78329, Note_on_c, 4, 43, 0
5, 78329, Note_on_c, 4, 67, 0
5, 78329, Note_on_c, 4, 62, 0
5, 78329, Note_on_c, 4, 59, 0
5, 78360, Note_on_c, 4, 62, 127
5, 78360, Note_on_c, 4, 57, 125
5, 78360, Note_on_c, 4, 66, 127
5, 78360, Note_on_c, 4, 50, 127
5, 78373, Control_c, 4, 64, 127
5, 78450, Note_on_c, 4, 50, 0
5, 78450, Note_on_c, 4, 62, 0
5, 78450, Note_on_c, 4, 57, 0
5, 78450, Note_on_c, 4, 66, 0
5, 78480, Note_on_c, 4, 62, 122
5, 78480, Note_on_c, 4, 66, 127
5, 78480, Note_on_c, 4, 57, 109
5, 78480, Note_on_c, 4, 50, 110
5, 78509, Note_on_c, 4, 50, 0
5, 78509, Note_on_c, 4, 62, 0
5, 78509, Note_on_c, 4, 66, 0
5, 78509, Note_on_c, 4, 57, 0
5, 78540, Note_on_c, 4, 62, 122
5, 78540, Note_on_c, 4, 66, 127
5, 78540, Note_on_c, 4, 57, 117
5, 78540, Note_on_c, 4, 50, 106
5, 78600, Note_on_c, 4, 50, 0
5, 78600, Note_on_c, 4, 62, 0
5, 78600, Note_on_c, 4, 66, 0
5, 78600, Note_on_c, 4, 57, 0
5, 78660, Note_on_c, 4, 62, 112
5, 78660, Note_on_c, 4, 66, 127
5, 78660, Note_on_c, 4, 57, 117
5, 78660, Note_on_c, 4, 50, 106
5, 78689, Note_on_c, 4, 50, 0
5, 78689, Note_on_c, 4, 62, 0
5, 78689, Note_on_c, 4, 66, 0
5, 78689, Note_on_c, 4, 57, 0
5, 78720, Note_on_c, 4, 62, 110
5, 78720, Note_on_c, 4, 66, 122
5, 78720, Note_on_c, 4, 57, 107
5, 78720, Note_on_c, 4, 50, 97
5, 78749, Note_on_c, 4, 50, 0
5, 78749, Note_on_c, 4, 62, 0
5, 78749, Note_on_c, 4, 66, 0
5, 78749, Note_on_c, 4, 57, 0
5, 78780, Note_on_c, 4, 66, 122
5, 78780, Note_on_c, 4, 62, 110
5, 78780, Note_on_c, 4, 57, 102
5, 78780, Note_on_c, 4, 50, 81
5, 78802, Control_c, 4, 64, 0
5, 78809, Note_on_c, 4, 50, 0
5, 78809, Note_on_c, 4, 66, 0
5, 78809, Note_on_c, 4, 62, 0
5, 78809, Note_on_c, 4, 57, 0
5, 78840, Note_on_c, 4, 60, 127
5, 78840, Note_on_c, 4, 57, 109
5, 78840, Note_on_c, 4, 64, 127
5, 78840, Note_on_c, 4, 45, 127
5, 78854, Control_c, 4, 64, 127
5, 78900, Note_on_c, 4, 64, 0
5, 78900, Note_on_c, 4, 60, 0
5, 78900, Note_on_c, 4, 57, 0
5, 78930, Note_on_c, 4, 45, 0
5, 78960, Note_on_c, 4, 60, 125
5, 78960, Note_on_c, 4, 64, 109
5, 78960, Note_on_c, 4, 57, 107
5, 78960, Note_on_c, 4, 45, 127
5, 78989, Note_on_c, 4, 45, 0
5, 78989, Note_on_c, 4, 60, 0
5, 78989, Note_on_c, 4, 64, 0
5, 78989, Note_on_c, 4, 57, 0
5, 79020, Note_on_c, 4, 64, 120
5, 79020, Note_on_c, 4, 60, 127
5, 79020, Note_on_c, 4, 57, 117
5, 79020, Note_on_c, 4, 45, 125
5, 79080, Note_on_c, 4, 45, 0
5, 79080, Note_on_c, 4, 64, 0
5, 79080, Note_on_c, 4, 60, 0
5, 79080, Note_on_c, 4, 57, 0
5, 79140, Note_on_c, 4, 45, 112
5, 79140, Note_on_c, 4, 60, 118
5, 79140, Note_on_c, 4, 64, 118
5, 79140, Note_on_c, 4, 57, 109
5, 79169, Note_on_c, 4, 57, 0
5, 79169, Note_on_c, 4, 45, 0
5, 79169, Note_on_c, 4, 60, 0
5, 79169, Note_on_c, 4, 64, 0
5, 79200, Note_on_c, 4, 64, 127
5, 79200, Note_on_c, 4, 60, 127
5, 79200, Note_on_c, 4, 57, 117
5, 79200, Note_on_c, 4, 45, 125
5, 79260, Note_on_c, 4, 45, 0
5, 79260, Note_on_c, 4, 64, 0
5, 79260, Note_on_c, 4, 60, 0
5, 79260, Note_on_c, 4, 57, 0
5, 79320, Note_on_c, 4, 45, 106
5, 79320, Note_on_c, 4, 60, 114
5, 79320, Note_on_c, 4, 64, 102
5, 79320, Note_on_c, 4, 57, 84
5, 79349, Note_on_c, 4, 57, 0
5, 79349, Note_on_c, 4, 45, 0
5, 79349, Note_on_c, 4, 60, 0
5, 79349, Note_on_c, 4, 64, 0
5, 79380, Note_on_c, 4, 60, 127
5, 79380, Note_on_c, 4, 57, 120
5, 79380, Note_on_c, 4, 64, 118
5, 79380, Note_on_c, 4, 45, 127
5, 79440, Note_on_c, 4, 45, 0
5, 79440, Note_on_c, 4, 60, 0
5, 79440, Note_on_c, 4, 57, 0
5, 79440, Note_on_c, 4, 64, 0
5, 79500, Note_on_c, 4, 45, 112
5, 79500, Note_on_c, 4, 60, 110
5, 79500, Note_on_c, 4, 64, 98
5, 79500, Note_on_c, 4, 57, 97
5, 79529, Note_on_c, 4, 57, 0
5, 79529, Note_on_c, 4, 45, 0
5, 79529, Note_on_c, 4, 60, 0
5, 79529, Note_on_c, 4, 64, 0
5, 79560, Note_on_c, 4, 60, 127
5, 79560, Note_on_c, 4, 57, 118
5, 79560, Note_on_c, 4, 64, 117
5, 79560, Note_on_c, 4, 45, 125
5, 79589, Note_on_c, 4, 45, 0
5, 79589, Note_on_c, 4, 60, 0
5, 79589, Note_on_c, 4, 57, 0
5, 79589, Note_on_c, 4, 64, 0
5, 79620, Note_on_c, 4, 60, 112
5, 79620, Note_on_c, 4, 64, 110
5, 79620, Note_on_c, 4, 57, 100
5, 79620, Note_on_c, 4, 45, 114
5, 79649, Note_on_c, 4, 45, 0
5, 79649, Note_on_c, 4, 60, 0
5, 79649, Note_on_c, 4, 64, 0
5, 79649, Note_on_c, 4, 57, 0
5, 79680, Note_on_c, 4, 60, 127
5, 79680, Note_on_c, 4, 64, 127
5, 79680, Note_on_c, 4, 57, 127
5, 79680, Note_on_c, 4, 45, 127
5, 79709, Note_on_c, 4, 45, 0
5, 79709, Note_on_c, 4, 60, 0
5, 79709, Note_on_c, 4, 64, 0
5, 79709, Note_on_c, 4, 57, 0
5, 79756, Control_c, 4, 64, 0
5, 79800, Note_on_c, 4, 48, 125
5, 79800, Note_on_c, 4, 60, 127
5, 79800, Note_on_c, 4, 55, 127
5, 79800, Note_on_c, 4, 64, 127
5, 79815, Control_c, 4, 64, 127
5, 79860, Note_on_c, 4, 64, 0
5, 79860, Note_on_c, 4, 48, 0
5, 79860, Note_on_c, 4, 60, 0
5, 79860, Note_on_c, 4, 55, 0
5, 79920, Note_on_c, 4, 60, 127
5, 79920, Note_on_c, 4, 64, 109
5, 79920, Note_on_c, 4, 55, 117
5, 79920, Note_on_c, 4, 48, 120
5, 79980, Note_on_c, 4, 48, 0
5, 79980, Note_on_c, 4, 60, 0
5, 79980, Note_on_c, 4, 64, 0
5, 79980, Note_on_c, 4, 55, 0
5, 80040, Note_on_c, 4, 55, 120
5, 80040, Note_on_c, 4, 60, 120
5, 80040, Note_on_c, 4, 64, 118
5, 80040, Note_on_c, 4, 48, 127
5, 80069, Note_on_c, 4, 48, 0
5, 80069, Note_on_c, 4, 55, 0
5, 80069, Note_on_c, 4, 60, 0
5, 80069, Note_on_c, 4, 64, 0
5, 80100, Note_on_c, 4, 60, 122
5, 80100, Note_on_c, 4, 64, 109
5, 80100, Note_on_c, 4, 55, 109
5, 80100, Note_on_c, 4, 48, 114
5, 80129, Note_on_c, 4, 48, 0
5, 80129, Note_on_c, 4, 60, 0
5, 80129, Note_on_c, 4, 64, 0
5, 80129, Note_on_c, 4, 55, 0
5, 80160, Note_on_c, 4, 48, 114
5, 80160, Note_on_c, 4, 60, 122
5, 80160, Note_on_c, 4, 64, 110
5, 80160, Note_on_c, 4, 55, 109
5, 80189, Note_on_c, 4, 55, 0
5, 80189, Note_on_c, 4, 48, 0
5, 80189, Note_on_c, 4, 60, 0
5, 80189, Note_on_c, 4, 64, 0
5, 80220, Note_on_c, 4, 48, 102
5, 80220, Note_on_c, 4, 60, 109
5, 80220, Note_on_c, 4, 64, 98
5, 80220, Note_on_c, 4, 55, 98
5, 80249, Note_on_c, 4, 55, 0
5, 80249, Note_on_c, 4, 48, 0
5, 80249, Note_on_c, 4, 60, 0
5, 80249, Note_on_c, 4, 64, 0
5, 80261, Control_c, 4, 64, 0
5, 80280, Note_on_c, 4, 60, 122
5, 80280, Note_on_c, 4, 48, 127
5, 80280, Note_on_c, 4, 64, 107
5, 80280, Note_on_c, 4, 55, 125
5, 80287, Control_c, 4, 64, 127
5, 80340, Note_on_c, 4, 55, 0
5, 80340, Note_on_c, 4, 60, 0
5, 80340, Note_on_c, 4, 48, 0
5, 80340, Note_on_c, 4, 64, 0
5, 80400, Note_on_c, 4, 64, 112
5, 80400, Note_on_c, 4, 60, 118
5, 80400, Note_on_c, 4, 55, 107
5, 80400, Note_on_c, 4, 48, 117
5, 80429, Note_on_c, 4, 55, 0
5, 80429, Note_on_c, 4, 64, 0
5, 80429, Note_on_c, 4, 60, 0
5, 80460, Note_on_c, 4, 48, 0
5, 80520, Note_on_c, 4, 60, 125
5, 80520, Note_on_c, 4, 64, 110
5, 80520, Note_on_c, 4, 55, 107
5, 80520, Note_on_c, 4, 48, 114
5, 80549, Note_on_c, 4, 48, 0
5, 80549, Note_on_c, 4, 60, 0
5, 80549, Note_on_c, 4, 64, 0
5, 80549, Note_on_c, 4, 55, 0
5, 80580, Note_on_c, 4, 60, 114
5, 80580, Note_on_c, 4, 64, 102
5, 80580, Note_on_c, 4, 55, 91
5, 80580, Note_on_c, 4, 48, 114
5, 80609, Note_on_c, 4, 48, 0
5, 80609, Note_on_c, 4, 60, 0
5, 80609, Note_on_c, 4, 64, 0
5, 80609, Note_on_c, 4, 55, 0
5, 80640, Note_on_c, 4, 60, 122
5, 80640, Note_on_c, 4, 64, 110
5, 80640, Note_on_c, 4, 55, 100
5, 80640, Note_on_c, 4, 48, 98
5, 80669, Note_on_c, 4, 48, 0
5, 80669, Note_on_c, 4, 60, 0
5, 80669, Note_on_c, 4, 64, 0
5, 80669, Note_on_c, 4, 55, 0
5, 80700, Note_on_c, 4, 64, 94
5, 80700, Note_on_c, 4, 60, 110
5, 80700, Note_on_c, 4, 55, 98
5, 80700, Note_on_c, 4, 48, 97
5, 80729, Note_on_c, 4, 48, 0
5, 80729, Note_on_c, 4, 64, 0
5, 80729, Note_on_c, 4, 60, 0
5, 80729, Note_on_c, 4, 55, 0
5, 80760, Note_on_c, 4, 60, 127
5, 80760, Note_on_c, 4, 55, 127
5, 80760, Note_on_c, 4, 64, 117
5, 80760, Note_on_c, 4, 48, 117
5, 80820, Note_on_c, 4, 48, 0
5, 80820, Note_on_c, 4, 60, 0
5, 80820, Note_on_c, 4, 55, 0
5, 80820, Note_on_c, 4, 64, 0
5, 80880, Note_on_c, 4, 60, 122
5, 80880, Note_on_c, 4, 64, 110
5, 80880, Note_on_c, 4, 55, 109
5, 80880, Note_on_c, 4, 48, 125
5, 80940, Note_on_c, 4, 48, 0
5, 80940, Note_on_c, 4, 60, 0
5, 80940, Note_on_c, 4, 64, 0
5, 80940, Note_on_c, 4, 55, 0
5, 81000, Note_on_c, 4, 48, 122
5, 81000, Note_on_c, 4, 55, 109
5, 81000, Note_on_c, 4, 60, 117
5, 81000, Note_on_c, 4, 64, 106
5, 81029, Note_on_c, 4, 64, 0
5, 81029, Note_on_c, 4, 48, 0
5, 81029, Note_on_c, 4, 55, 0
5, 81029, Note_on_c, 4, 60, 0
5, 81060, Note_on_c, 4, 60, 103
5, 81060, Note_on_c, 4, 64, 94
5, 81060, Note_on_c, 4, 55, 100
5, 81060, Note_on_c, 4, 48, 110
5, 81089, Note_on_c, 4, 48, 0
5, 81089, Note_on_c, 4, 60, 0
5, 81089, Note_on_c, 4, 64, 0
5, 81089, Note_on_c, 4, 55, 0
5, 81120, Note_on_c, 4, 60, 122
5, 81120, Note_on_c, 4, 64, 102
5, 81120, Note_on_c, 4, 55, 109
5, 81120, Note_on_c, 4, 48, 114
5, 81149, Note_on_c, 4, 48, 0
5, 81149, Note_on_c, 4, 60, 0
5, 81149, Note_on_c, 4, 64, 0
5, 81149, Note_on_c, 4, 55, 0
5, 81180, Note_on_c, 4, 60, 114
5, 81180, Note_on_c, 4, 55, 92
5, 81180, Note_on_c, 4, 64, 89
5, 81180, Note_on_c, 4, 48, 98
5, 81209, Note_on_c, 4, 48, 0
5, 81209, Note_on_c, 4, 60, 0
5, 81209, Note_on_c, 4, 55, 0
5, 81209, Note_on_c, 4, 64, 0
5, 81240, Note_on_c, 4, 60, 122
5, 81240, Note_on_c, 4, 64, 122
5, 81240, Note_on_c, 4, 55, 107
5, 81240, Note_on_c, 4, 48, 117
5, 81300, Note_on_c, 4, 48, 0
5, 81300, Note_on_c, 4, 60, 0
5, 81300, Note_on_c, 4, 64, 0
5, 81300, Note_on_c, 4, 55, 0
5, 81360, Note_on_c, 4, 55, 122
5, 81360, Note_on_c, 4, 60, 127
5, 81360, Note_on_c, 4, 48, 127
5, 81360, Note_on_c, 4, 64, 114
5, 81420, Note_on_c, 4, 64, 0
5, 81420, Note_on_c, 4, 55, 0
5, 81420, Note_on_c, 4, 60, 0
5, 81420, Note_on_c, 4, 48, 0
5, 81480, Note_on_c, 4, 48, 122
5, 81480, Note_on_c, 4, 55, 109
5, 81480, Note_on_c, 4, 60, 118
5, 81480, Note_on_c, 4, 64, 109
5, 81509, Note_on_c, 4, 64, 0
5, 81509, Note_on_c, 4, 48, 0
5, 81509, Note_on_c, 4, 55, 0
5, 81509, Note_on_c, 4, 60, 0
5, 81540, Note_on_c, 4, 60, 122
5, 81540, Note_on_c, 4, 64, 110
5, 81540, Note_on_c, 4, 55, 107
5, 81540, Note_on_c, 4, 48, 118
5, 81569, Note_on_c, 4, 48, 0
5, 81569, Note_on_c, 4, 60, 0
5, 81569, Note_on_c, 4, 64, 0
5, 81569, Note_on_c, 4, 55, 0
5, 81600, Note_on_c, 4, 48, 106
5, 81600, Note_on_c, 4, 60, 122
5, 81600, Note_on_c, 4, 64, 110
5, 81600, Note_on_c, 4, 55, 117
5, 81629, Note_on_c, 4, 55, 0
5, 81629, Note_on_c, 4, 48, 0
5, 81629, Note_on_c, 4, 60, 0
5, 81629, Note_on_c, 4, 64, 0
5, 81660, Note_on_c, 4, 60, 122
5, 81660, Note_on_c, 4, 64, 110
5, 81660, Note_on_c, 4, 55, 118
5, 81660, Note_on_c, 4, 48, 125
5, 81689, Note_on_c, 4, 48, 0
5, 81689, Note_on_c, 4, 60, 0
5, 81689, Note_on_c, 4, 64, 0
5, 81689, Note_on_c, 4, 55, 0
5, 81705, Control_c, 4, 64, 0
5, 81720, Note_on_c, 4, 43, 112
5, 81720, Note_on_c, 4, 59, 127
5, 81720, Note_on_c, 4, 62, 120
5, 81720, Note_on_c, 4, 55, 117
5, 81734, Control_c, 4, 64, 127
5, 81780, Note_on_c, 4, 55, 0
5, 81780, Note_on_c, 4, 43, 0
5, 81780, Note_on_c, 4, 59, 0
5, 81780, Note_on_c, 4, 62, 0
5, 81840, Note_on_c, 4, 43, 122
5, 81840, Note_on_c, 4, 59, 118
5, 81840, Note_on_c, 4, 62, 117
5, 81840, Note_on_c, 4, 55, 118
5, 81900, Note_on_c, 4, 55, 0
5, 81900, Note_on_c, 4, 43, 0
5, 81900, Note_on_c, 4, 59, 0
5, 81900, Note_on_c, 4, 62, 0
5, 81960, Note_on_c, 4, 59, 110
5, 81960, Note_on_c, 4, 62, 100
5, 81960, Note_on_c, 4, 43, 117
5, 81960, Note_on_c, 4, 55, 114
5, 81989, Note_on_c, 4, 55, 0
5, 81989, Note_on_c, 4, 59, 0
5, 81989, Note_on_c, 4, 62, 0
5, 82020, Note_on_c, 4, 43, 0
5, 82020, Note_on_c, 4, 59, 103
5, 82020, Note_on_c, 4, 62, 102
5, 82020, Note_on_c, 4, 55, 100
5, 82049, Note_on_c, 4, 55, 0
5, 82049, Note_on_c, 4, 62, 0
5, 82049, Note_on_c, 4, 59, 0
5, 82080, Note_on_c, 4, 43, 127
5, 82080, Note_on_c, 4, 59, 118
5, 82080, Note_on_c, 4, 62, 107
5, 82080, Note_on_c, 4, 55, 106
5, 82109, Note_on_c, 4, 55, 0
5, 82109, Note_on_c, 4, 43, 0
5, 82109, Note_on_c, 4, 59, 0
5, 82109, Note_on_c, 4, 62, 0
5, 82180, Control_c, 4, 64, 0
5, 82200, Note_on_c, 4, 38, 125
5, 82200, Note_on_c, 4, 57, 122
5, 82200, Note_on_c, 4, 54, 127
5, 82200, Note_on_c, 4, 62, 98
5, 82221, Control_c, 4, 64, 127
5, 82260, Note_on_c, 4, 62, 0
5, 82290, Note_on_c, 4, 38, 0
5, 82290, Note_on_c, 4, 57, 0
5, 82290, Note_on_c, 4, 54, 0
5, 82320, Note_on_c, 4, 62, 94
5, 82320, Note_on_c, 4, 38, 109
5, 82320, Note_on_c, 4, 54, 127
5, 82320, Note_on_c, 4, 57, 106
5, 82380, Note_on_c, 4, 57, 0
5, 82380, Note_on_c, 4, 62, 0
5, 82380, Note_on_c, 4, 38, 0
5, 82380, Note_on_c, 4, 54, 0
5, 82440, Note_on_c, 4, 57, 97
5, 82440, Note_on_c, 4, 62, 86
5, 82440, Note_on_c, 4, 54, 91
5, 82440, Note_on_c, 4, 38, 125
5, 82469, Note_on_c, 4, 54, 0
5, 82469, Note_on_c, 4, 57, 0
5, 82469, Note_on_c, 4, 62, 0
5, 82500, Note_on_c, 4, 38, 0
5, 82500, Note_on_c, 4, 57, 103
5, 82500, Note_on_c, 4, 54, 110
5, 82500, Note_on_c, 4, 62, 91
5, 82529, Note_on_c, 4, 62, 0
5, 82529, Note_on_c, 4, 54, 0
5, 82529, Note_on_c, 4, 57, 0
5, 82560, Note_on_c, 4, 54, 127
5, 82560, Note_on_c, 4, 57, 127
5, 82560, Note_on_c, 4, 62, 106
5, 82560, Note_on_c, 4, 38, 118
5, 82589, Note_on_c, 4, 38, 0
5, 82589, Note_on_c, 4, 54, 0
5, 82589, Note_on_c, 4, 57, 0
5, 82620, Note_on_c, 4, 62, 0
5, 82641, Control_c, 4, 64, 0
5, 82680, Note_on_c, 4, 60, 125
5, 82680, Note_on_c, 4, 64, 118
5, 82680, Note_on_c, 4, 45, 125
5, 82680, Note_on_c, 4, 57, 107
5, 82694, Control_c, 4, 64, 127
5, 82740, Note_on_c, 4, 57, 0
5, 82740, Note_on_c, 4, 45, 0
5, 82740, Note_on_c, 4, 60, 0
5, 82770, Note_on_c, 4, 64, 0
5, 82800, Note_on_c, 4, 45, 89
5, 82800, Note_on_c, 4, 60, 127
5, 82800, Note_on_c, 4, 64, 120
5, 82800, Note_on_c, 4, 57, 117
5, 82829, Note_on_c, 4, 57, 0
5, 82829, Note_on_c, 4, 64, 0
5, 82829, Note_on_c, 4, 60, 0
5, 82860, Note_on_c, 4, 45, 0
5, 82920, Note_on_c, 4, 60, 127
5, 82920, Note_on_c, 4, 64, 118
5, 82920, Note_on_c, 4, 57, 109
5, 82920, Note_on_c, 4, 45, 106
5, 82949, Note_on_c, 4, 45, 0
5, 82949, Note_on_c, 4, 60, 0
5, 82949, Note_on_c, 4, 64, 0
5, 82949, Note_on_c, 4, 57, 0
5, 82980, Note_on_c, 4, 60, 122
5, 82980, Note_on_c, 4, 57, 102
5, 82980, Note_on_c, 4, 64, 107
5, 83009, Note_on_c, 4, 64, 0
5, 83009, Note_on_c, 4, 57, 0
5, 83009, Note_on_c, 4, 60, 0
5, 83040, Note_on_c, 4, 45, 110
5, 83040, Note_on_c, 4, 60, 127
5, 83040, Note_on_c, 4, 64, 117
5, 83040, Note_on_c, 4, 57, 117
5, 83100, Note_on_c, 4, 57, 0
5, 83100, Note_on_c, 4, 45, 0
5, 83100, Note_on_c, 4, 60, 0
5, 83100, Note_on_c, 4, 64, 0
5, 83132, Control_c, 4, 64, 0
5, 83160, Note_on_c, 4, 64, 122
5, 83160, Note_on_c, 4, 60, 127
5, 83160, Note_on_c, 4, 45, 127
5, 83160, Note_on_c, 4, 57, 112
5, 83173, Control_c, 4, 64, 127
5, 83220, Note_on_c, 4, 57, 0
5, 83220, Note_on_c, 4, 64, 0
5, 83220, Note_on_c, 4, 60, 0
5, 83220, Note_on_c, 4, 45, 0
5, 83280, Note_on_c, 4, 45, 106
5, 83280, Note_on_c, 4, 60, 122
5, 83280, Note_on_c, 4, 64, 110
5, 83280, Note_on_c, 4, 57, 98
5, 83309, Note_on_c, 4, 57, 0
5, 83309, Note_on_c, 4, 45, 0
5, 83309, Note_on_c, 4, 60, 0
5, 83309, Note_on_c, 4, 64, 0
5, 83340, Note_on_c, 4, 60, 122
5, 83340, Note_on_c, 4, 57, 110
5, 83340, Note_on_c, 4, 64, 107
5, 83340, Note_on_c, 4, 45, 106
5, 83369, Note_on_c, 4, 57, 0
5, 83400, Note_on_c, 4, 60, 0
5, 83400, Note_on_c, 4, 64, 0
5, 83400, Note_on_c, 4, 45, 0
5, 83460, Note_on_c, 4, 60, 127
5, 83460, Note_on_c, 4, 64, 120
5, 83460, Note_on_c, 4, 45, 117
5, 83460, Note_on_c, 4, 57, 103
5, 83489, Note_on_c, 4, 57, 0
5, 83489, Note_on_c, 4, 60, 0
5, 83489, Note_on_c, 4, 64, 0
5, 83489, Note_on_c, 4, 45, 0
5, 83520, Note_on_c, 4, 60, 122
5, 83520, Note_on_c, 4, 57, 110
5, 83520, Note_on_c, 4, 64, 109
5, 83520, Note_on_c, 4, 45, 114
5, 83549, Note_on_c, 4, 45, 0
5, 83549, Note_on_c, 4, 60, 0
5, 83549, Note_on_c, 4, 57, 0
5, 83549, Note_on_c, 4, 64, 0
5, 83627, Control_c, 4, 64, 0
5, 83640, Note_on_c, 4, 43, 112
5, 83640, Note_on_c, 4, 59, 127
5, 83640, Note_on_c, 4, 62, 120
5, 83640, Note_on_c, 4, 55, 117
5, 83654, Control_c, 4, 64, 127
5, 83700, Note_on_c, 4, 55, 0
5, 83700, Note_on_c, 4, 43, 0
5, 83700, Note_on_c, 4, 59, 0
5, 83700, Note_on_c, 4, 62, 0
5, 83760, Note_on_c, 4, 43, 122
5, 83760, Note_on_c, 4, 59, 118
5, 83760, Note_on_c, 4, 62, 117
5, 83760, Note_on_c, 4, 55, 118
5, 83820, Note_on_c, 4, 55, 0
5, 83820, Note_on_c, 4, 43, 0
5, 83820, Note_on_c, 4, 59, 0
5, 83820, Note_on_c, 4, 62, 0
5, 83880, Note_on_c, 4, 59, 110
5, 83880, Note_on_c, 4, 62, 100
5, 83880, Note_on_c, 4, 43, 117
5, 83880, Note_on_c, 4, 55, 114
5, 83909, Note_on_c, 4, 55, 0
5, 83909, Note_on_c, 4, 59, 0
5, 83909, Note_on_c, 4, 62, 0
5, 83940, Note_on_c, 4, 43, 0
5, 83940, Note_on_c, 4, 59, 103
5, 83940, Note_on_c, 4, 62, 102
5, 83940, Note_on_c, 4, 55, 100
5, 83969, Note_on_c, 4, 55, 0
5, 83969, Note_on_c, 4, 62, 0
5, 83969, Note_on_c, 4, 59, 0
5, 84000, Note_on_c, 4, 43, 127
5, 84000, Note_on_c, 4, 59, 118
5, 84000, Note_on_c, 4, 62, 107
5, 84000, Note_on_c, 4, 55, 106
5, 84029, Note_on_c, 4, 55, 0
5, 84029, Note_on_c, 4, 43, 0
5, 84029, Note_on_c, 4, 59, 0
5, 84029, Note_on_c, 4, 62, 0
5, 84100, Control_c, 4, 64, 0
5, 84120, Note_on_c, 4, 38, 125
5, 84120, Note_on_c, 4, 57, 122
5, 84120, Note_on_c, 4, 54, 127
5, 84120, Note_on_c, 4, 62, 98
5, 84141, Control_c, 4, 64, 127
5, 84180, Note_on_c, 4, 62, 0
5, 84210, Note_on_c, 4, 38, 0
5, 84210, Note_on_c, 4, 57, 0
5, 84210, Note_on_c, 4, 54, 0
5, 84240, Note_on_c, 4, 62, 94
5, 84240, Note_on_c, 4, 38, 109
5, 84240, Note_on_c, 4, 54, 127
5, 84240, Note_on_c, 4, 57, 106
5, 84300, Note_on_c, 4, 57, 0
5, 84300, Note_on_c, 4, 62, 0
5, 84300, Note_on_c, 4, 38, 0
5, 84300, Note_on_c, 4, 54, 0
5, 84360, Note_on_c, 4, 57, 97
5, 84360, Note_on_c, 4, 62, 86
5, 84360, Note_on_c, 4, 54, 91
5, 84360, Note_on_c, 4, 38, 125
5, 84389, Note_on_c, 4, 54, 0
5, 84389, Note_on_c, 4, 57, 0
5, 84389, Note_on_c, 4, 62, 0
5, 84420, Note_on_c, 4, 38, 0
5, 84420, Note_on_c, 4, 57, 103
5, 84420, Note_on_c, 4, 54, 110
5, 84420, Note_on_c, 4, 62, 91
5, 84449, Note_on_c, 4, 62, 0
5, 84449, Note_on_c, 4, 54, 0
5, 84449, Note_on_c, 4, 57, 0
5, 84480, Note_on_c, 4, 54, 127
5, 84480, Note_on_c, 4, 57, 127
5, 84480, Note_on_c, 4, 62, 106
5, 84480, Note_on_c, 4, 38, 118
5, 84509, Note_on_c, 4, 38, 0
5, 84509, Note_on_c, 4, 54, 0
5, 84509, Note_on_c, 4, 57, 0
5, 84540, Note_on_c, 4, 62, 0
5, 84561, Control_c, 4, 64, 0
5, 84600, Note_on_c, 4, 60, 125
5, 84600, Note_on_c, 4, 64, 118
5, 84600, Note_on_c, 4, 45, 125
5, 84600, Note_on_c, 4, 57, 107
5, 84614, Control_c, 4, 64, 127
5, 84660, Note_on_c, 4, 57, 0
5, 84660, Note_on_c, 4, 45, 0
5, 84660, Note_on_c, 4, 60, 0
5, 84690, Note_on_c, 4, 64, 0
5, 84720, Note_on_c, 4, 45, 89
5, 84720, Note_on_c, 4, 60, 127
5, 84720, Note_on_c, 4, 64, 120
5, 84720, Note_on_c, 4, 57, 117
5, 84749, Note_on_c, 4, 57, 0
5, 84749, Note_on_c, 4, 64, 0
5, 84749, Note_on_c, 4, 60, 0
5, 84780, Note_on_c, 4, 45, 0
5, 84840, Note_on_c, 4, 60, 127
5, 84840, Note_on_c, 4, 64, 118
5, 84840, Note_on_c, 4, 57, 109
5, 84840, Note_on_c, 4, 45, 106
5, 84869, Note_on_c, 4, 45, 0
5, 84869, Note_on_c, 4, 60, 0
5, 84869, Note_on_c, 4, 64, 0
5, 84869, Note_on_c, 4, 57, 0
5, 84900, Note_on_c, 4, 60, 122
5, 84900, Note_on_c, 4, 57, 102
5, 84900, Note_on_c, 4, 64, 107
5, 84929, Note_on_c, 4, 64, 0
5, 84929, Note_on_c, 4, 57, 0
5, 84929, Note_on_c, 4, 60, 0
5, 84960, Note_on_c, 4, 45, 110
5, 84960, Note_on_c, 4, 60, 127
5, 84960, Note_on_c, 4, 64, 117
5, 84960, Note_on_c, 4, 57, 117
5, 85020, Note_on_c, 4, 57, 0
5, 85020, Note_on_c, 4, 45, 0
5, 85020, Note_on_c, 4, 60, 0
5, 85020, Note_on_c, 4, 64, 0
5, 85052, Control_c, 4, 64, 0
5, 85080, Note_on_c, 4, 64, 122
5, 85080, Note_on_c, 4, 60, 127
5, 85080, Note_on_c, 4, 45, 127
5, 85080, Note_on_c, 4, 57, 112
5, 85093, Control_c, 4, 64, 127
5, 85140, Note_on_c, 4, 57, 0
5, 85140, Note_on_c, 4, 64, 0
5, 85140, Note_on_c, 4, 60, 0
5, 85140, Note_on_c, 4, 45, 0
5, 85200, Note_on_c, 4, 45, 106
5, 85200, Note_on_c, 4, 60, 122
5, 85200, Note_on_c, 4, 64, 110
5, 85200, Note_on_c, 4, 57, 98
5, 85229, Note_on_c, 4, 57, 0
5, 85229, Note_on_c, 4, 45, 0
5, 85229, Note_on_c, 4, 60, 0
5, 85229, Note_on_c, 4, 64, 0
5, 85260, Note_on_c, 4, 60, 122
5, 85260, Note_on_c, 4, 57, 110
5, 85260, Note_on_c, 4, 64, 107
5, 85260, Note_on_c, 4, 45, 106
5, 85289, Note_on_c, 4, 57, 0
5, 85320, Note_on_c, 4, 60, 0
5, 85320, Note_on_c, 4, 64, 0
5, 85320, Note_on_c, 4, 45, 0
5, 85380, Note_on_c, 4, 60, 127
5, 85380, Note_on_c, 4, 64, 120
5, 85380, Note_on_c, 4, 45, 117
5, 85380, Note_on_c, 4, 57, 103
5, 85409, Note_on_c, 4, 57, 0
5, 85409, Note_on_c, 4, 60, 0
5, 85409, Note_on_c, 4, 64, 0
5, 85409, Note_on_c, 4, 45, 0
5, 85440, Note_on_c, 4, 60, 122
5, 85440, Note_on_c, 4, 57, 110
5, 85440, Note_on_c, 4, 64, 109
5, 85440, Note_on_c, 4, 45, 114
5, 85469, Note_on_c, 4, 45, 0
5, 85469, Note_on_c, 4, 60, 0
5, 85469, Note_on_c, 4, 57, 0
5, 85469, Note_on_c, 4, 64, 0
5, 85547, Control_c, 4, 64, 0
5, 85560, Note_on_c, 4, 43, 112
5, 85560, Note_on_c, 4, 59, 127
5, 85560, Note_on_c, 4, 62, 120
5, 85560, Note_on_c, 4, 55, 117
5, 85574, Control_c, 4, 64, 127
5, 85620, Note_on_c, 4, 55, 0
5, 85620, Note_on_c, 4, 43, 0
5, 85620, Note_on_c, 4, 59, 0
5, 85620, Note_on_c, 4, 62, 0
5, 85680, Note_on_c, 4, 43, 122
5, 85680, Note_on_c, 4, 59, 118
5, 85680, Note_on_c, 4, 62, 117
5, 85680, Note_on_c, 4, 55, 118
5, 85740, Note_on_c, 4, 55, 0
5, 85740, Note_on_c, 4, 43, 0
5, 85740, Note_on_c, 4, 59, 0
5, 85740, Note_on_c, 4, 62, 0
5, 85800, Note_on_c, 4, 59, 110
5, 85800, Note_on_c, 4, 62, 100
5, 85800, Note_on_c, 4, 43, 117
5, 85800, Note_on_c, 4, 55, 114
5, 85829, Note_on_c, 4, 55, 0
5, 85829, Note_on_c, 4, 59, 0
5, 85829, Note_on_c, 4, 62, 0
5, 85860, Note_on_c, 4, 43, 0
5, 85860, Note_on_c, 4, 59, 103
5, 85860, Note_on_c, 4, 62, 102
5, 85860, Note_on_c, 4, 55, 100
5, 85889, Note_on_c, 4, 55, 0
5, 85889, Note_on_c, 4, 62, 0
5, 85889, Note_on_c, 4, 59, 0
5, 85920, Note_on_c, 4, 43, 127
5, 85920, Note_on_c, 4, 59, 118
5, 85920, Note_on_c, 4, 62, 107
5, 85920, Note_on_c, 4, 55, 106
5, 85949, Note_on_c, 4, 55, 0
5, 85949, Note_on_c, 4, 43, 0
5, 85949, Note_on_c, 4, 59, 0
5, 85949, Note_on_c, 4, 62, 0
5, 86020, Control_c, 4, 64, 0
5, 86040, Note_on_c, 4, 38, 125
5, 86040, Note_on_c, 4, 57, 122
5, 86040, Note_on_c, 4, 54, 127
5, 86040, Note_on_c, 4, 62, 98
5, 86061, Control_c, 4, 64, 127
5, 86100, Note_on_c, 4, 62, 0
5, 86130, Note_on_c, 4, 38, 0
5, 86130, Note_on_c, 4, 57, 0
5, 86130, Note_on_c, 4, 54, 0
5, 86160, Note_on_c, 4, 62, 94
5, 86160, Note_on_c, 4, 38, 109
5, 86160, Note_on_c, 4, 54, 127
5, 86160, Note_on_c, 4, 57, 106
5, 86220, Note_on_c, 4, 57, 0
5, 86220, Note_on_c, 4, 62, 0
5, 86220, Note_on_c, 4, 38, 0
5, 86220, Note_on_c, 4, 54, 0
5, 86280, Note_on_c, 4, 57, 97
5, 86280, Note_on_c, 4, 62, 86
5, 86280, Note_on_c, 4, 54, 91
5, 86280, Note_on_c, 4, 38, 125
5, 86309, Note_on_c, 4, 54, 0
5, 86309, Note_on_c, 4, 57, 0
5, 86309, Note_on_c, 4, 62, 0
5, 86340, Note_on_c, 4, 38, 0
5, 86340, Note_on_c, 4, 57, 103
5, 86340, Note_on_c, 4, 54, 110
5, 86340, Note_on_c, 4, 62, 91
5, 86369, Note_on_c, 4, 62, 0
5, 86369, Note_on_c, 4, 54, 0
5, 86369, Note_on_c, 4, 57, 0
5, 86400, Note_on_c, 4, 54, 127
5, 86400, Note_on_c, 4, 57, 127
5, 86400, Note_on_c, 4, 62, 106
5, 86400, Note_on_c, 4, 38, 118
5, 86429, Note_on_c, 4, 38, 0
5, 86429, Note_on_c, 4, 54, 0
5, 86429, Note_on_c, 4, 57, 0
5, 86460, Note_on_c, 4, 62, 0
5, 86481, Control_c, 4, 64, 0
5, 86520, Note_on_c, 4, 60, 125
5, 86520, Note_on_c, 4, 64, 118
5, 86520, Note_on_c, 4, 45, 125
5, 86520, Note_on_c, 4, 57, 107
5, 86534, Control_c, 4, 64, 127
5, 86580, Note_on_c, 4, 57, 0
5, 86580, Note_on_c, 4, 45, 0
5, 86580, Note_on_c, 4, 60, 0
5, 86610, Note_on_c, 4, 64, 0
5, 86640, Note_on_c, 4, 45, 89
5, 86640, Note_on_c, 4, 60, 127
5, 86640, Note_on_c, 4, 64, 120
5, 86640, Note_on_c, 4, 57, 117
5, 86669, Note_on_c, 4, 57, 0
5, 86669, Note_on_c, 4, 64, 0
5, 86669, Note_on_c, 4, 60, 0
5, 86700, Note_on_c, 4, 45, 0
5, 86760, Note_on_c, 4, 60, 127
5, 86760, Note_on_c, 4, 64, 118
5, 86760, Note_on_c, 4, 57, 109
5, 86760, Note_on_c, 4, 45, 106
5, 86789, Note_on_c, 4, 45, 0
5, 86789, Note_on_c, 4, 60, 0
5, 86789, Note_on_c, 4, 64, 0
5, 86789, Note_on_c, 4, 57, 0
5, 86820, Note_on_c, 4, 60, 122
5, 86820, Note_on_c, 4, 57, 102
5, 86820, Note_on_c, 4, 64, 107
5, 86849, Note_on_c, 4, 64, 0
5, 86849, Note_on_c, 4, 57, 0
5, 86849, Note_on_c, 4, 60, 0
5, 86880, Note_on_c, 4, 45, 110
5, 86880, Note_on_c, 4, 60, 127
5, 86880, Note_on_c, 4, 64, 117
5, 86880, Note_on_c, 4, 57, 117
5, 86940, Note_on_c, 4, 57, 0
5, 86940, Note_on_c, 4, 45, 0
5, 86940, Note_on_c, 4, 60, 0
5, 86940, Note_on_c, 4, 64, 0
5, 86972, Control_c, 4, 64, 0
5, 87000, Note_on_c, 4, 64, 122
5, 87000, Note_on_c, 4, 60, 127
5, 87000, Note_on_c, 4, 45, 127
5, 87000, Note_on_c, 4, 57, 112
5, 87013, Control_c, 4, 64, 127
5, 87060, Note_on_c, 4, 57, 0
5, 87060, Note_on_c, 4, 64, 0
5, 87060, Note_on_c, 4, 60, 0
5, 87060, Note_on_c, 4, 45, 0
5, 87120, Note_on_c, 4, 45, 106
5, 87120, Note_on_c, 4, 60, 122
5, 87120, Note_on_c, 4, 64, 110
5, 87120, Note_on_c, 4, 57, 98
5, 87149, Note_on_c, 4, 57, 0
5, 87149, Note_on_c, 4, 45, 0
5, 87149, Note_on_c, 4, 60, 0
5, 87149, Note_on_c, 4, 64, 0
5, 87180, Note_on_c, 4, 60, 122
5, 87180, Note_on_c, 4, 57, 110
5, 87180, Note_on_c, 4, 64, 107
5, 87180, Note_on_c, 4, 45, 106
5, 87209, Note_on_c, 4, 57, 0
5, 87240, Note_on_c, 4, 60, 0
5, 87240, Note_on_c, 4, 64, 0
5, 87240, Note_on_c, 4, 45, 0
5, 87300, Note_on_c, 4, 60, 127
5, 87300, Note_on_c, 4, 64, 120
5, 87300, Note_on_c, 4, 45, 117
5, 87300, Note_on_c, 4, 57, 103
5, 87329, Note_on_c, 4, 57, 0
5, 87329, Note_on_c, 4, 60, 0
5, 87329, Note_on_c, 4, 64, 0
5, 87329, Note_on_c, 4, 45, 0
5, 87360, Note_on_c, 4, 60, 122
5, 87360, Note_on_c, 4, 57, 110
5, 87360, Note_on_c, 4, 64, 109
5, 87360, Note_on_c, 4, 45, 114
5, 87389, Note_on_c, 4, 45, 0
5, 87389, Note_on_c, 4, 60, 0
5, 87389, Note_on_c, 4, 57, 0
5, 87389, Note_on_c, 4, 64, 0
5, 87467, Control_c, 4, 64, 0
5, 87480, Note_on_c, 4, 60, 122
5, 87480, Control_c, 4, 64, 127
5, 87480, Note_on_c, 4, 48, 107
5, 87480, Note_on_c, 4, 55, 117
5, 87480, Note_on_c, 4, 64, 117
5, 87540, Note_on_c, 4, 64, 0
5, 87540, Note_on_c, 4, 60, 0
5, 87540, Note_on_c, 4, 48, 0
5, 87540, Note_on_c, 4, 55, 0
5, 87600, Note_on_c, 4, 48, 114
5, 87600, Note_on_c, 4, 55, 110
5, 87600, Note_on_c, 4, 60, 120
5, 87600, Note_on_c, 4, 64, 107
5, 87629, Note_on_c, 4, 64, 0
5, 87629, Note_on_c, 4, 60, 0
5, 87629, Note_on_c, 4, 55, 0
5, 87660, Note_on_c, 4, 48, 0
5, 87720, Note_on_c, 4, 60, 125
5, 87720, Note_on_c, 4, 55, 109
5, 87720, Note_on_c, 4, 64, 107
5, 87720, Note_on_c, 4, 48, 125
5, 87749, Note_on_c, 4, 64, 0
5, 87749, Note_on_c, 4, 60, 0
5, 87749, Note_on_c, 4, 55, 0
5, 87780, Note_on_c, 4, 48, 0
5, 87780, Note_on_c, 4, 60, 106
5, 87780, Note_on_c, 4, 55, 85
5, 87780, Note_on_c, 4, 64, 100
5, 87809, Note_on_c, 4, 64, 0
5, 87809, Note_on_c, 4, 55, 0
5, 87809, Note_on_c, 4, 60, 0
5, 87840, Note_on_c, 4, 60, 122
5, 87840, Note_on_c, 4, 64, 109
5, 87840, Note_on_c, 4, 55, 107
5, 87840, Note_on_c, 4, 48, 107
5, 87869, Note_on_c, 4, 48, 0
5, 87869, Note_on_c, 4, 60, 0
5, 87869, Note_on_c, 4, 64, 0
5, 87869, Note_on_c, 4, 55, 0
5, 87900, Note_on_c, 4, 64, 94
5, 87900, Note_on_c, 4, 60, 100
5, 87900, Note_on_c, 4, 55, 84
5, 87900, Note_on_c, 4, 48, 67
5, 87929, Note_on_c, 4, 48, 0
5, 87929, Note_on_c, 4, 64, 0
5, 87929, Note_on_c, 4, 60, 0
5, 87929, Note_on_c, 4, 55, 0
5, 87960, Note_on_c, 4, 60, 127
5, 87960, Note_on_c, 4, 55, 110
5, 87960, Note_on_c, 4, 64, 118
5, 87960, Note_on_c, 4, 48, 114
5, 88020, Note_on_c, 4, 48, 0
5, 88020, Note_on_c, 4, 60, 0
5, 88020, Note_on_c, 4, 55, 0
5, 88020, Note_on_c, 4, 64, 0
5, 88080, Note_on_c, 4, 60, 122
5, 88080, Note_on_c, 4, 55, 91
5, 88080, Note_on_c, 4, 48, 118
5, 88080, Note_on_c, 4, 64, 103
5, 88109, Note_on_c, 4, 64, 0
5, 88109, Note_on_c, 4, 60, 0
5, 88109, Note_on_c, 4, 55, 0
5, 88109, Note_on_c, 4, 48, 0
5, 88200, Note_on_c, 4, 48, 122
5, 88200, Note_on_c, 4, 55, 109
5, 88200, Note_on_c, 4, 60, 117
5, 88200, Note_on_c, 4, 64, 117
5, 88229, Note_on_c, 4, 64, 0
5, 88229, Note_on_c, 4, 60, 0
5, 88229, Note_on_c, 4, 55, 0
5, 88260, Note_on_c, 4, 48, 0
5, 88260, Note_on_c, 4, 60, 106
5, 88260, Note_on_c, 4, 64, 102
5, 88260, Note_on_c, 4, 55, 92
5, 88260, Note_on_c, 4, 48, 97
5, 88289, Note_on_c, 4, 55, 0
5, 88289, Note_on_c, 4, 60, 0
5, 88289, Note_on_c, 4, 64, 0
5, 88320, Note_on_c, 4, 48, 0
5, 88320, Note_on_c, 4, 55, 95
5, 88320, Note_on_c, 4, 64, 102
5, 88320, Note_on_c, 4, 60, 109
5, 88349, Note_on_c, 4, 60, 0
5, 88349, Note_on_c, 4, 64, 0
5, 88349, Note_on_c, 4, 55, 0
5, 88350, Note_on_c, 4, 48, 106
5, 88379, Note_on_c, 4, 48, 0
5, 88380, Note_on_c, 4, 64, 83
5, 88380, Note_on_c, 4, 55, 63
5, 88380, Note_on_c, 4, 60, 92
5, 88409, Note_on_c, 4, 60, 0
5, 88409, Note_on_c, 4, 55, 0
5, 88409, Note_on_c, 4, 64, 0
5, 88440, Note_on_c, 4, 48, 114
5, 88440, Note_on_c, 4, 55, 112
5, 88440, Note_on_c, 4, 60, 120
5, 88440, Note_on_c, 4, 64, 109
5, 88500, Note_on_c, 4, 64, 0
5, 88500, Note_on_c, 4, 48, 0
5, 88500, Note_on_c, 4, 55, 0
5, 88500, Note_on_c, 4, 60, 0
5, 88560, Note_on_c, 4, 60, 112
5, 88560, Note_on_c, 4, 55, 85
5, 88560, Note_on_c, 4, 64, 100
5, 88560, Note_on_c, 4, 48, 89
5, 88589, Note_on_c, 4, 48, 0
5, 88589, Note_on_c, 4, 60, 0
5, 88589, Note_on_c, 4, 55, 0
5, 88589, Note_on_c, 4, 64, 0
5, 88620, Note_on_c, 4, 60, 125
5, 88620, Note_on_c, 4, 55, 109
5, 88620, Note_on_c, 4, 64, 109
5, 88620, Note_on_c, 4, 48, 114
5, 88680, Note_on_c, 4, 48, 0
5, 88680, Note_on_c, 4, 60, 0
5, 88680, Note_on_c, 4, 55, 0
5, 88680, Note_on_c, 4, 64, 0
5, 88740, Note_on_c, 4, 48, 97
5, 88740, Note_on_c, 4, 55, 95
5, 88740, Note_on_c, 4, 60, 120
5, 88740, Note_on_c, 4, 64, 109
5, 88769, Note_on_c, 4, 64, 0
5, 88769, Note_on_c, 4, 48, 0
5, 88769, Note_on_c, 4, 55, 0
5, 88769, Note_on_c, 4, 60, 0
5, 88800, Note_on_c, 4, 60, 127
5, 88800, Note_on_c, 4, 64, 120
5, 88800, Note_on_c, 4, 55, 120
5, 88800, Note_on_c, 4, 48, 125
5, 88860, Note_on_c, 4, 48, 0
5, 88860, Note_on_c, 4, 60, 0
5, 88860, Note_on_c, 4, 64, 0
5, 88860, Note_on_c, 4, 55, 0
5, 88920, Note_on_c, 4, 48, 71
5, 88920, Note_on_c, 4, 60, 122
5, 88920, Note_on_c, 4, 55, 94
5, 88920, Note_on_c, 4, 64, 100
5, 88949, Note_on_c, 4, 64, 0
5, 88949, Note_on_c, 4, 48, 0
5, 88949, Note_on_c, 4, 60, 0
5, 88949, Note_on_c, 4, 55, 0
5, 88980, Note_on_c, 4, 60, 112
5, 88980, Note_on_c, 4, 64, 102
5, 88980, Note_on_c, 4, 55, 100
5, 88980, Note_on_c, 4, 48, 114
5, 89040, Note_on_c, 4, 48, 0
5, 89040, Note_on_c, 4, 60, 0
5, 89040, Note_on_c, 4, 64, 0
5, 89040, Note_on_c, 4, 55, 0
5, 89100, Note_on_c, 4, 48, 97
5, 89100, Note_on_c, 4, 55, 95
5, 89100, Note_on_c, 4, 60, 110
5, 89100, Note_on_c, 4, 64, 92
5, 89129, Note_on_c, 4, 64, 0
5, 89129, Note_on_c, 4, 48, 0
5, 89129, Note_on_c, 4, 55, 0
5, 89129, Note_on_c, 4, 60, 0
5, 89160, Note_on_c, 4, 60, 112
5, 89160, Note_on_c, 4, 64, 102
5, 89160, Note_on_c, 4, 55, 109
5, 89160, Note_on_c, 4, 48, 125
5, 89189, Note_on_c, 4, 55, 0
5, 89189, Note_on_c, 4, 60, 0
5, 89189, Note_on_c, 4, 64, 0
5, 89220, Note_on_c, 4, 60, 112
5, 89220, Note_on_c, 4, 55, 100
5, 89220, Note_on_c, 4, 64, 100
5, 89249, Note_on_c, 4, 64, 0
5, 89249, Note_on_c, 4, 55, 0
5, 89249, Note_on_c, 4, 60, 0
5, 89250, Note_on_c, 4, 48, 0
5, 89280, Note_on_c, 4, 48, 112
5, 89280, Note_on_c, 4, 60, 127
5, 89280, Note_on_c, 4, 64, 107
5, 89280, Note_on_c, 4, 55, 114
5, 89309, Note_on_c, 4, 55, 0
5, 89309, Note_on_c, 4, 48, 0
5, 89309, Note_on_c, 4, 60, 0
5, 89309, Note_on_c, 4, 64, 0
5, 89390, Control_c, 4, 64, 0
5, 89400, Note_on_c, 4, 43, 112
5, 89400, Note_on_c, 4, 59, 127
5, 89400, Note_on_c, 4, 62, 120
5, 89400, Note_on_c, 4, 55, 117
5, 89414, Control_c, 4, 64, 127
5, 89460, Note_on_c, 4, 55, 0
5, 89460, Note_on_c, 4, 43, 0
5, 89460, Note_on_c, 4, 59, 0
5, 89460, Note_on_c, 4, 62, 0
5, 89520, Note_on_c, 4, 43, 122
5, 89520, Note_on_c, 4, 59, 118
5, 89520, Note_on_c, 4, 62, 117
5, 89520, Note_on_c, 4, 55, 118
5, 89580, Note_on_c, 4, 55, 0
5, 89580, Note_on_c, 4, 43, 0
5, 89580, Note_on_c, 4, 59, 0
5, 89580, Note_on_c, 4, 62, 0
5, 89640, Note_on_c, 4, 59, 110
5, 89640, Note_on_c, 4, 62, 100
5, 89640, Note_on_c, 4, 43, 117
5, 89640, Note_on_c, 4, 55, 114
5, 89669, Note_on_c, 4, 55, 0
5, 89669, Note_on_c, 4, 59, 0
5, 89669, Note_on_c, 4, 62, 0
5, 89700, Note_on_c, 4, 43, 0
5, 89700, Note_on_c, 4, 59, 103
5, 89700, Note_on_c, 4, 62, 102
5, 89700, Note_on_c, 4, 55, 100
5, 89729, Note_on_c, 4, 55, 0
5, 89729, Note_on_c, 4, 62, 0
5, 89729, Note_on_c, 4, 59, 0
5, 89760, Note_on_c, 4, 43, 127
5, 89760, Note_on_c, 4, 59, 118
5, 89760, Note_on_c, 4, 62, 107
5, 89760, Note_on_c, 4, 55, 106
5, 89789, Note_on_c, 4, 55, 0
5, 89789, Note_on_c, 4, 43, 0
5, 89789, Note_on_c, 4, 59, 0
5, 89789, Note_on_c, 4, 62, 0
5, 89860, Control_c, 4, 64, 0
5, 89880, Note_on_c, 4, 38, 125
5, 89880, Note_on_c, 4, 57, 122
5, 89880, Note_on_c, 4, 54, 127
5, 89880, Note_on_c, 4, 62, 98
5, 89901, Control_c, 4, 64, 127
5, 89940, Note_on_c, 4, 62, 0
5, 89970, Note_on_c, 4, 38, 0
5, 89970, Note_on_c, 4, 57, 0
5, 89970, Note_on_c, 4, 54, 0
5, 90000, Note_on_c, 4, 62, 94
5, 90000, Note_on_c, 4, 38, 109
5, 90000, Note_on_c, 4, 54, 127
5, 90000, Note_on_c, 4, 57, 106
5, 90060, Note_on_c, 4, 57, 0
5, 90060, Note_on_c, 4, 62, 0
5, 90060, Note_on_c, 4, 38, 0
5, 90060, Note_on_c, 4, 54, 0
5, 90120, Note_on_c, 4, 57, 97
5, 90120, Note_on_c, 4, 62, 86
5, 90120, Note_on_c, 4, 54, 91
5, 90120, Note_on_c, 4, 38, 125
5, 90149, Note_on_c, 4, 54, 0
5, 90149, Note_on_c, 4, 57, 0
5, 90149, Note_on_c, 4, 62, 0
5, 90180, Note_on_c, 4, 38, 0
5, 90180, Note_on_c, 4, 57, 103
5, 90180, Note_on_c, 4, 54, 110
5, 90180, Note_on_c, 4, 62, 91
5, 90209, Note_on_c, 4, 62, 0
5, 90209, Note_on_c, 4, 54, 0
5, 90209, Note_on_c, 4, 57, 0
5, 90240, Note_on_c, 4, 54, 127
5, 90240, Note_on_c, 4, 57, 127
5, 90240, Note_on_c, 4, 62, 106
5, 90240, Note_on_c, 4, 38, 118
5, 90269, Note_on_c, 4, 38, 0
5, 90269, Note_on_c, 4, 54, 0
5, 90269, Note_on_c, 4, 57, 0
5, 90300, Note_on_c, 4, 62, 0
5, 90321, Control_c, 4, 64, 0
5, 90360, Note_on_c, 4, 60, 125
5, 90360, Note_on_c, 4, 64, 118
5, 90360, Note_on_c, 4, 45, 125
5, 90360, Note_on_c, 4, 57, 107
5, 90374, Control_c, 4, 64, 127
5, 90420, Note_on_c, 4, 57, 0
5, 90420, Note_on_c, 4, 45, 0
5, 90420, Note_on_c, 4, 60, 0
5, 90450, Note_on_c, 4, 64, 0
5, 90480, Note_on_c, 4, 45, 89
5, 90480, Note_on_c, 4, 60, 127
5, 90480, Note_on_c, 4, 64, 120
5, 90480, Note_on_c, 4, 57, 117
5, 90509, Note_on_c, 4, 57, 0
5, 90509, Note_on_c, 4, 64, 0
5, 90509, Note_on_c, 4, 60, 0
5, 90540, Note_on_c, 4, 45, 0
5, 90600, Note_on_c, 4, 60, 127
5, 90600, Note_on_c, 4, 64, 118
5, 90600, Note_on_c, 4, 57, 109
5, 90600, Note_on_c, 4, 45, 106
5, 90629, Note_on_c, 4, 45, 0
5, 90629, Note_on_c, 4, 60, 0
5, 90629, Note_on_c, 4, 64, 0
5, 90629, Note_on_c, 4, 57, 0
5, 90660, Note_on_c, 4, 60, 122
5, 90660, Note_on_c, 4, 57, 102
5, 90660, Note_on_c, 4, 64, 107
5, 90689, Note_on_c, 4, 64, 0
5, 90689, Note_on_c, 4, 57, 0
5, 90689, Note_on_c, 4, 60, 0
5, 90720, Note_on_c, 4, 45, 110
5, 90720, Note_on_c, 4, 60, 127
5, 90720, Note_on_c, 4, 64, 117
5, 90720, Note_on_c, 4, 57, 117
5, 90780, Note_on_c, 4, 57, 0
5, 90780, Note_on_c, 4, 45, 0
5, 90780, Note_on_c, 4, 60, 0
5, 90780, Note_on_c, 4, 64, 0
5, 90812, Control_c, 4, 64, 0
5, 90840, Note_on_c, 4, 64, 122
5, 90840, Note_on_c, 4, 60, 127
5, 90840, Note_on_c, 4, 45, 127
5, 90840, Note_on_c, 4, 57, 112
5, 90853, Control_c, 4, 64, 127
5, 90900, Note_on_c, 4, 57, 0
5, 90900, Note_on_c, 4, 64, 0
5, 90900, Note_on_c, 4, 60, 0
5, 90900, Note_on_c, 4, 45, 0
5, 90960, Note_on_c, 4, 45, 106
5, 90960, Note_on_c, 4, 60, 122
5, 90960, Note_on_c, 4, 64, 110
5, 90960, Note_on_c, 4, 57, 98
5, 90989, Note_on_c, 4, 57, 0
5, 90989, Note_on_c, 4, 45, 0
5, 90989, Note_on_c, 4, 60, 0
5, 90989, Note_on_c, 4, 64, 0
5, 91020, Note_on_c, 4, 60, 122
5, 91020, Note_on_c, 4, 57, 110
5, 91020, Note_on_c, 4, 64, 107
5, 91020, Note_on_c, 4, 45, 106
5, 91049, Note_on_c, 4, 57, 0
5, 91080, Note_on_c, 4, 60, 0
5, 91080, Note_on_c, 4, 64, 0
5, 91080, Note_on_c, 4, 45, 0
5, 91140, Note_on_c, 4, 60, 127
5, 91140, Note_on_c, 4, 64, 120
5, 91140, Note_on_c, 4, 45, 117
5, 91140, Note_on_c, 4, 57, 103
5, 91169, Note_on_c, 4, 57, 0
5, 91169, Note_on_c, 4, 60, 0
5, 91169, Note_on_c, 4, 64, 0
5, 91169, Note_on_c, 4, 45, 0
5, 91200, Note_on_c, 4, 60, 122
5, 91200, Note_on_c, 4, 57, 110
5, 91200, Note_on_c, 4, 64, 109
5, 91200, Note_on_c, 4, 45, 114
5, 91229, Note_on_c, 4, 45, 0
5, 91229, Note_on_c, 4, 60, 0
5, 91229, Note_on_c, 4, 57, 0
5, 91229, Note_on_c, 4, 64, 0
5, 91307, Control_c, 4, 64, 0
5, 91320, Note_on_c, 4, 43, 112
5, 91320, Note_on_c, 4, 59, 127
5, 91320, Note_on_c, 4, 62, 120
5, 91320, Note_on_c, 4, 55, 117
5, 91334, Control_c, 4, 64, 127
5, 91380, Note_on_c, 4, 55, 0
5, 91380, Note_on_c, 4, 43, 0
5, 91380, Note_on_c, 4, 59, 0
5, 91380, Note_on_c, 4, 62, 0
5, 91440, Note_on_c, 4, 43, 122
5, 91440, Note_on_c, 4, 59, 118
5, 91440, Note_on_c, 4, 62, 117
5, 91440, Note_on_c, 4, 55, 118
5, 91500, Note_on_c, 4, 55, 0
5, 91500, Note_on_c, 4, 43, 0
5, 91500, Note_on_c, 4, 59, 0
5, 91500, Note_on_c, 4, 62, 0
5, 91560, Note_on_c, 4, 59, 110
5, 91560, Note_on_c, 4, 62, 100
5, 91560, Note_on_c, 4, 43, 117
5, 91560, Note_on_c, 4, 55, 114
5, 91589, Note_on_c, 4, 55, 0
5, 91589, Note_on_c, 4, 59, 0
5, 91589, Note_on_c, 4, 62, 0
5, 91620, Note_on_c, 4, 43, 0
5, 91620, Note_on_c, 4, 59, 103
5, 91620, Note_on_c, 4, 62, 102
5, 91620, Note_on_c, 4, 55, 100
5, 91649, Note_on_c, 4, 55, 0
5, 91649, Note_on_c, 4, 62, 0
5, 91649, Note_on_c, 4, 59, 0
5, 91680, Note_on_c, 4, 43, 127
5, 91680, Note_on_c, 4, 59, 118
5, 91680, Note_on_c, 4, 62, 107
5, 91680, Note_on_c, 4, 55, 106
5, 91709, Note_on_c, 4, 55, 0
5, 91709, Note_on_c, 4, 43, 0
5, 91709, Note_on_c, 4, 59, 0
5, 91709, Note_on_c, 4, 62, 0
5, 91780, Control_c, 4, 64, 0
5, 91800, Note_on_c, 4, 38, 125
5, 91800, Note_on_c, 4, 57, 122
5, 91800, Note_on_c, 4, 54, 127
5, 91800, Note_on_c, 4, 62, 98
5, 91821, Control_c, 4, 64, 127
5, 91860, Note_on_c, 4, 62, 0
5, 91890, Note_on_c, 4, 38, 0
5, 91890, Note_on_c, 4, 57, 0
5, 91890, Note_on_c, 4, 54, 0
5, 91920, Note_on_c, 4, 62, 94
5, 91920, Note_on_c, 4, 38, 109
5, 91920, Note_on_c, 4, 54, 127
5, 91920, Note_on_c, 4, 57, 106
5, 91980, Note_on_c, 4, 57, 0
5, 91980, Note_on_c, 4, 62, 0
5, 91980, Note_on_c, 4, 38, 0
5, 91980, Note_on_c, 4, 54, 0
5, 92040, Note_on_c, 4, 57, 97
5, 92040, Note_on_c, 4, 62, 86
5, 92040, Note_on_c, 4, 54, 91
5, 92040, Note_on_c, 4, 38, 125
5, 92069, Note_on_c, 4, 54, 0
5, 92069, Note_on_c, 4, 57, 0
5, 92069, Note_on_c, 4, 62, 0
5, 92100, Note_on_c, 4, 38, 0
5, 92100, Note_on_c, 4, 57, 103
5, 92100, Note_on_c, 4, 54, 110
5, 92100, Note_on_c, 4, 62, 91
5, 92129, Note_on_c, 4, 62, 0
5, 92129, Note_on_c, 4, 54, 0
5, 92129, Note_on_c, 4, 57, 0
5, 92160, Note_on_c, 4, 54, 127
5, 92160, Note_on_c, 4, 57, 127
5, 92160, Note_on_c, 4, 62, 106
5, 92160, Note_on_c, 4, 38, 118
5, 92189, Note_on_c, 4, 38, 0
5, 92189, Note_on_c, 4, 54, 0
5, 92189, Note_on_c, 4, 57, 0
5, 92220, Note_on_c, 4, 62, 0
5, 92241, Control_c, 4, 64, 0
5, 92280, Note_on_c, 4, 60, 125
5, 92280, Note_on_c, 4, 64, 118
5, 92280, Note_on_c, 4, 45, 125
5, 92280, Note_on_c, 4, 57, 107
5, 92294, Control_c, 4, 64, 127
5, 92340, Note_on_c, 4, 57, 0
5, 92340, Note_on_c, 4, 45, 0
5, 92340, Note_on_c, 4, 60, 0
5, 92370, Note_on_c, 4, 64, 0
5, 92400, Note_on_c, 4, 45, 89
5, 92400, Note_on_c, 4, 60, 127
5, 92400, Note_on_c, 4, 64, 120
5, 92400, Note_on_c, 4, 57, 117
5, 92429, Note_on_c, 4, 57, 0
5, 92429, Note_on_c, 4, 64, 0
5, 92429, Note_on_c, 4, 60, 0
5, 92460, Note_on_c, 4, 45, 0
5, 92520, Note_on_c, 4, 60, 127
5, 92520, Note_on_c, 4, 64, 118
5, 92520, Note_on_c, 4, 57, 109
5, 92520, Note_on_c, 4, 45, 106
5, 92549, Note_on_c, 4, 45, 0
5, 92549, Note_on_c, 4, 60, 0
5, 92549, Note_on_c, 4, 64, 0
5, 92549, Note_on_c, 4, 57, 0
5, 92580, Note_on_c, 4, 60, 122
5, 92580, Note_on_c, 4, 57, 102
5, 92580, Note_on_c, 4, 64, 107
5, 92609, Note_on_c, 4, 64, 0
5, 92609, Note_on_c, 4, 57, 0
5, 92609, Note_on_c, 4, 60, 0
5, 92640, Note_on_c, 4, 45, 110
5, 92640, Note_on_c, 4, 60, 127
5, 92640, Note_on_c, 4, 64, 117
5, 92640, Note_on_c, 4, 57, 117
5, 92700, Note_on_c, 4, 57, 0
5, 92700, Note_on_c, 4, 45, 0
5, 92700, Note_on_c, 4, 60, 0
5, 92700, Note_on_c, 4, 64, 0
5, 92732, Control_c, 4, 64, 0
5, 92760, Note_on_c, 4, 64, 122
5, 92760, Note_on_c, 4, 60, 127
5, 92760, Note_on_c, 4, 45, 127
5, 92760, Note_on_c, 4, 57, 112
5, 92773, Control_c, 4, 64, 127
5, 92820, Note_on_c, 4, 57, 0
5, 92820, Note_on_c, 4, 64, 0
5, 92820, Note_on_c, 4, 60, 0
5, 92820, Note_on_c, 4, 45, 0
5, 92880, Note_on_c, 4, 45, 106
5, 92880, Note_on_c, 4, 60, 122
5, 92880, Note_on_c, 4, 64, 110
5, 92880, Note_on_c, 4, 57, 98
5, 92909, Note_on_c, 4, 57, 0
5, 92909, Note_on_c, 4, 45, 0
5, 92909, Note_on_c, 4, 60, 0
5, 92909, Note_on_c, 4, 64, 0
5, 92940, Note_on_c, 4, 60, 122
5, 92940, Note_on_c, 4, 57, 110
5, 92940, Note_on_c, 4, 64, 107
5, 92940, Note_on_c, 4, 45, 106
5, 92969, Note_on_c, 4, 57, 0
5, 93000, Note_on_c, 4, 60, 0
5, 93000, Note_on_c, 4, 64, 0
5, 93000, Note_on_c, 4, 45, 0
5, 93060, Note_on_c, 4, 60, 127
5, 93060, Note_on_c, 4, 64, 120
5, 93060, Note_on_c, 4, 45, 117
5, 93060, Note_on_c, 4, 57, 103
5, 93089, Note_on_c, 4, 57, 0
5, 93089, Note_on_c, 4, 60, 0
5, 93089, Note_on_c, 4, 64, 0
5, 93089, Note_on_c, 4, 45, 0
5, 93120, Note_on_c, 4, 60, 122
5, 93120, Note_on_c, 4, 57, 110
5, 93120, Note_on_c, 4, 64, 109
5, 93120, Note_on_c, 4, 45, 114
5, 93149, Note_on_c, 4, 45, 0
5, 93149, Note_on_c, 4, 60, 0
5, 93149, Note_on_c, 4, 57, 0
5, 93149, Note_on_c, 4, 64, 0
5, 93227, Control_c, 4, 64, 0
5, 93240, Note_on_c, 4, 43, 112
5, 93240, Note_on_c, 4, 59, 127
5, 93240, Note_on_c, 4, 62, 120
5, 93240, Note_on_c, 4, 55, 117
5, 93254, Control_c, 4, 64, 127
5, 93300, Note_on_c, 4, 55, 0
5, 93300, Note_on_c, 4, 43, 0
5, 93300, Note_on_c, 4, 59, 0
5, 93300, Note_on_c, 4, 62, 0
5, 93360, Note_on_c, 4, 43, 122
5, 93360, Note_on_c, 4, 59, 118
5, 93360, Note_on_c, 4, 62, 117
5, 93360, Note_on_c, 4, 55, 118
5, 93420, Note_on_c, 4, 55, 0
5, 93420, Note_on_c, 4, 43, 0
5, 93420, Note_on_c, 4, 59, 0
5, 93420, Note_on_c, 4, 62, 0
5, 93480, Note_on_c, 4, 59, 110
5, 93480, Note_on_c, 4, 62, 100
5, 93480, Note_on_c, 4, 43, 117
5, 93480, Note_on_c, 4, 55, 114
5, 93509, Note_on_c, 4, 55, 0
5, 93509, Note_on_c, 4, 59, 0
5, 93509, Note_on_c, 4, 62, 0
5, 93540, Note_on_c, 4, 43, 0
5, 93540, Note_on_c, 4, 59, 103
5, 93540, Note_on_c, 4, 62, 102
5, 93540, Note_on_c, 4, 55, 100
5, 93569, Note_on_c, 4, 55, 0
5, 93569, Note_on_c, 4, 62, 0
5, 93569, Note_on_c, 4, 59, 0
5, 93600, Note_on_c, 4, 43, 127
5, 93600, Note_on_c, 4, 59, 118
5, 93600, Note_on_c, 4, 62, 107
5, 93600, Note_on_c, 4, 55, 106
5, 93629, Note_on_c, 4, 55, 0
5, 93629, Note_on_c, 4, 43, 0
5, 93629, Note_on_c, 4, 59, 0
5, 93629, Note_on_c, 4, 62, 0
5, 93700, Control_c, 4, 64, 0
5, 93720, Note_on_c, 4, 38, 125
5, 93720, Note_on_c, 4, 57, 122
5, 93720, Note_on_c, 4, 54, 127
5, 93720, Note_on_c, 4, 62, 98
5, 93741, Control_c, 4, 64, 127
5, 93780, Note_on_c, 4, 62, 0
5, 93810, Note_on_c, 4, 38, 0
5, 93810, Note_on_c, 4, 57, 0
5, 93810, Note_on_c, 4, 54, 0
5, 93840, Note_on_c, 4, 62, 94
5, 93840, Note_on_c, 4, 38, 109
5, 93840, Note_on_c, 4, 54, 127
5, 93840, Note_on_c, 4, 57, 106
5, 93900, Note_on_c, 4, 57, 0
5, 93900, Note_on_c, 4, 62, 0
5, 93900, Note_on_c, 4, 38, 0
5, 93900, Note_on_c, 4, 54, 0
5, 93960, Note_on_c, 4, 57, 97
5, 93960, Note_on_c, 4, 62, 86
5, 93960, Note_on_c, 4, 54, 91
5, 93960, Note_on_c, 4, 38, 125
5, 93989, Note_on_c, 4, 54, 0
5, 93989, Note_on_c, 4, 57, 0
5, 93989, Note_on_c, 4, 62, 0
5, 94020, Note_on_c, 4, 38, 0
5, 94020, Note_on_c, 4, 57, 103
5, 94020, Note_on_c, 4, 54, 110
5, 94020, Note_on_c, 4, 62, 91
5, 94049, Note_on_c, 4, 62, 0
5, 94049, Note_on_c, 4, 54, 0
5, 94049, Note_on_c, 4, 57, 0
5, 94080, Note_on_c, 4, 54, 127
5, 94080, Note_on_c, 4, 57, 127
5, 94080, Note_on_c, 4, 62, 106
5, 94080, Note_on_c, 4, 38, 118
5, 94109, Note_on_c, 4, 38, 0
5, 94109, Note_on_c, 4, 54, 0
5, 94109, Note_on_c, 4, 57, 0
5, 94140, Note_on_c, 4, 62, 0
5, 94161, Control_c, 4, 64, 0
5, 94200, Note_on_c, 4, 60, 125
5, 94200, Note_on_c, 4, 64, 118
5, 94200, Note_on_c, 4, 45, 125
5, 94200, Note_on_c, 4, 57, 107
5, 94214, Control_c, 4, 64, 127
5, 94260, Note_on_c, 4, 57, 0
5, 94260, Note_on_c, 4, 45, 0
5, 94260, Note_on_c, 4, 60, 0
5, 94290, Note_on_c, 4, 64, 0
5, 94320, Note_on_c, 4, 45, 89
5, 94320, Note_on_c, 4, 60, 127
5, 94320, Note_on_c, 4, 64, 120
5, 94320, Note_on_c, 4, 57, 117
5, 94349, Note_on_c, 4, 57, 0
5, 94349, Note_on_c, 4, 64, 0
5, 94349, Note_on_c, 4, 60, 0
5, 94380, Note_on_c, 4, 45, 0
5, 94440, Note_on_c, 4, 60, 127
5, 94440, Note_on_c, 4, 64, 118
5, 94440, Note_on_c, 4, 57, 109
5, 94440, Note_on_c, 4, 45, 106
5, 94469, Note_on_c, 4, 45, 0
5, 94469, Note_on_c, 4, 60, 0
5, 94469, Note_on_c, 4, 64, 0
5, 94469, Note_on_c, 4, 57, 0
5, 94500, Note_on_c, 4, 60, 122
5, 94500, Note_on_c, 4, 57, 102
5, 94500, Note_on_c, 4, 64, 107
5, 94529, Note_on_c, 4, 64, 0
5, 94529, Note_on_c, 4, 57, 0
5, 94529, Note_on_c, 4, 60, 0
5, 94560, Note_on_c, 4, 45, 110
5, 94560, Note_on_c, 4, 60, 127
5, 94560, Note_on_c, 4, 64, 117
5, 94560, Note_on_c, 4, 57, 117
5, 94620, Note_on_c, 4, 57, 0
5, 94620, Note_on_c, 4, 45, 0
5, 94620, Note_on_c, 4, 60, 0
5, 94620, Note_on_c, 4, 64, 0
5, 94652, Control_c, 4, 64, 0
5, 94680, Note_on_c, 4, 64, 122
5, 94680, Note_on_c, 4, 60, 127
5, 94680, Note_on_c, 4, 45, 127
5, 94680, Note_on_c, 4, 57, 112
5, 94693, Control_c, 4, 64, 127
5, 94740, Note_on_c, 4, 57, 0
5, 94740, Note_on_c, 4, 64, 0
5, 94740, Note_on_c, 4, 60, 0
5, 94740, Note_on_c, 4, 45, 0
5, 94800, Note_on_c, 4, 45, 106
5, 94800, Note_on_c, 4, 60, 122
5, 94800, Note_on_c, 4, 64, 110
5, 94800, Note_on_c, 4, 57, 98
5, 94829, Note_on_c, 4, 57, 0
5, 94829, Note_on_c, 4, 45, 0
5, 94829, Note_on_c, 4, 60, 0
5, 94829, Note_on_c, 4, 64, 0
5, 94845, Control_c, 4, 7, 89
5, 94860, Note_on_c, 4, 60, 122
5, 94860, Note_on_c, 4, 57, 110
5, 94860, Note_on_c, 4, 64, 107
5, 94860, Note_on_c, 4, 45, 106
5, 94875, Control_c, 4, 7, 86
5, 94889, Note_on_c, 4, 57, 0
5, 94889, Control_c, 4, 7, 84
5, 94895, Control_c, 4, 7, 81
5, 94907, Control_c, 4, 7, 80
5, 94920, Note_on_c, 4, 60, 0
5, 94920, Note_on_c, 4, 64, 0
5, 94920, Note_on_c, 4, 45, 0
5, 94920, Control_c, 4, 7, 79
5, 94970, Control_c, 4, 7, 78
5, 94980, Note_on_c, 4, 60, 127
5, 94980, Note_on_c, 4, 64, 120
5, 94980, Note_on_c, 4, 45, 117
5, 94980, Note_on_c, 4, 57, 103
5, 95009, Note_on_c, 4, 57, 0
5, 95009, Note_on_c, 4, 60, 0
5, 95009, Note_on_c, 4, 64, 0
5, 95009, Note_on_c, 4, 45, 0
5, 95040, Note_on_c, 4, 60, 122
5, 95040, Note_on_c, 4, 57, 110
5, 95040, Note_on_c, 4, 64, 109
5, 95040, Note_on_c, 4, 45, 114
5, 95060, Control_c, 4, 7, 77
5, 95069, Note_on_c, 4, 45, 0
5, 95069, Note_on_c, 4, 60, 0
5, 95069, Note_on_c, 4, 57, 0
5, 95069, Note_on_c, 4, 64, 0
5, 95130, Control_c, 4, 7, 76
5, 95147, Control_c, 4, 64, 0
5, 95160, Note_on_c, 4, 60, 122
5, 95160, Control_c, 4, 64, 127
5, 95160, Note_on_c, 4, 48, 107
5, 95160, Note_on_c, 4, 55, 117
5, 95160, Note_on_c, 4, 64, 117
5, 95190, Control_c, 4, 7, 75
5, 95220, Note_on_c, 4, 64, 0
5, 95220, Note_on_c, 4, 60, 0
5, 95220, Note_on_c, 4, 48, 0
5, 95220, Note_on_c, 4, 55, 0
5, 95230, Control_c, 4, 7, 74
5, 95280, Note_on_c, 4, 48, 114
5, 95280, Note_on_c, 4, 55, 110
5, 95280, Note_on_c, 4, 60, 120
5, 95280, Note_on_c, 4, 64, 107
5, 95309, Note_on_c, 4, 64, 0
5, 95309, Note_on_c, 4, 60, 0
5, 95309, Note_on_c, 4, 55, 0
5, 95340, Note_on_c, 4, 48, 0
5, 95400, Note_on_c, 4, 60, 125
5, 95400, Note_on_c, 4, 55, 109
5, 95400, Note_on_c, 4, 64, 107
5, 95400, Note_on_c, 4, 48, 125
5, 95429, Note_on_c, 4, 64, 0
5, 95429, Note_on_c, 4, 60, 0
5, 95429, Note_on_c, 4, 55, 0
5, 95460, Note_on_c, 4, 48, 0
5, 95460, Note_on_c, 4, 60, 106
5, 95460, Note_on_c, 4, 55, 85
5, 95460, Note_on_c, 4, 64, 100
5, 95485, Control_c, 4, 7, 73
5, 95489, Note_on_c, 4, 64, 0
5, 95489, Note_on_c, 4, 55, 0
5, 95489, Note_on_c, 4, 60, 0
5, 95520, Note_on_c, 4, 60, 122
5, 95520, Note_on_c, 4, 64, 109
5, 95520, Note_on_c, 4, 55, 107
5, 95520, Note_on_c, 4, 48, 107
5, 95549, Note_on_c, 4, 48, 0
5, 95549, Note_on_c, 4, 60, 0
5, 95549, Note_on_c, 4, 64, 0
5, 95549, Note_on_c, 4, 55, 0
5, 95580, Note_on_c, 4, 64, 94
5, 95580, Note_on_c, 4, 60, 100
5, 95580, Note_on_c, 4, 55, 84
5, 95580, Note_on_c, 4, 48, 67
5, 95609, Note_on_c, 4, 48, 0
5, 95609, Note_on_c, 4, 64, 0
5, 95609, Note_on_c, 4, 60, 0
5, 95609, Note_on_c, 4, 55, 0
5, 95620, Control_c, 4, 7, 72
5, 95640, Control_c, 4, 7, 71
5, 95640, Note_on_c, 4, 60, 127
5, 95640, Note_on_c, 4, 55, 110
5, 95640, Note_on_c, 4, 64, 118
5, 95640, Note_on_c, 4, 48, 114
5, 95700, Note_on_c, 4, 48, 0
5, 95700, Note_on_c, 4, 60, 0
5, 95700, Note_on_c, 4, 55, 0
5, 95700, Note_on_c, 4, 64, 0
5, 95760, Note_on_c, 4, 60, 122
5, 95760, Note_on_c, 4, 55, 91
5, 95760, Note_on_c, 4, 48, 118
5, 95760, Note_on_c, 4, 64, 103
5, 95789, Note_on_c, 4, 64, 0
5, 95789, Note_on_c, 4, 60, 0
5, 95789, Note_on_c, 4, 55, 0
5, 95789, Note_on_c, 4, 48, 0
5, 95830, Control_c, 4, 7, 68
5, 95850, Control_c, 4, 7, 67
5, 95880, Note_on_c, 4, 48, 122
5, 95880, Note_on_c, 4, 55, 109
5, 95880, Note_on_c, 4, 60, 117
5, 95880, Note_on_c, 4, 64, 117
5, 95909, Note_on_c, 4, 64, 0
5, 95909, Note_on_c, 4, 60, 0
5, 95909, Note_on_c, 4, 55, 0
5, 95940, Note_on_c, 4, 48, 0
5, 95940, Note_on_c, 4, 60, 106
5, 95940, Note_on_c, 4, 64, 102
5, 95940, Note_on_c, 4, 55, 92
5, 95940, Note_on_c, 4, 48, 97
5, 95955, Control_c, 4, 7, 66
5, 95969, Note_on_c, 4, 55, 0
5, 95969, Note_on_c, 4, 60, 0
5, 95969, Note_on_c, 4, 64, 0
5, 95975, Control_c, 4, 7, 65
5, 96000, Note_on_c, 4, 48, 0
5, 96000, Note_on_c, 4, 55, 95
5, 96000, Note_on_c, 4, 64, 102
5, 96000, Note_on_c, 4, 60, 109
5, 96029, Note_on_c, 4, 60, 0
5, 96029, Note_on_c, 4, 64, 0
5, 96029, Note_on_c, 4, 55, 0
5, 96030, Note_on_c, 4, 48, 106
5, 96045, Control_c, 4, 7, 64
5, 96059, Note_on_c, 4, 48, 0
5, 96060, Note_on_c, 4, 64, 83
5, 96060, Note_on_c, 4, 55, 63
5, 96060, Note_on_c, 4, 60, 92
5, 96089, Note_on_c, 4, 60, 0
5, 96089, Note_on_c, 4, 55, 0
5, 96089, Note_on_c, 4, 64, 0
5, 96120, Note_on_c, 4, 48, 114
5, 96120, Note_on_c, 4, 55, 112
5, 96120, Note_on_c, 4, 60, 120
5, 96120, Note_on_c, 4, 64, 109
5, 96135, Control_c, 4, 7, 63
5, 96175, Control_c, 4, 7, 62
5, 96180, Note_on_c, 4, 64, 0
5, 96180, Note_on_c, 4, 48, 0
5, 96180, Note_on_c, 4, 55, 0
5, 96180, Note_on_c, 4, 60, 0
5, 96215, Control_c, 4, 7, 61
5, 96240, Note_on_c, 4, 60, 112
5, 96240, Note_on_c, 4, 55, 85
5, 96240, Note_on_c, 4, 64, 100
5, 96240, Note_on_c, 4, 48, 89
5, 96269, Note_on_c, 4, 48, 0
5, 96269, Note_on_c, 4, 60, 0
5, 96269, Note_on_c, 4, 55, 0
5, 96269, Note_on_c, 4, 64, 0
5, 96269, Control_c, 4, 7, 60
5, 96300, Note_on_c, 4, 60, 125
5, 96300, Note_on_c, 4, 55, 109
5, 96300, Note_on_c, 4, 64, 109
5, 96300, Note_on_c, 4, 48, 114
5, 96360, Note_on_c, 4, 48, 0
5, 96360, Note_on_c, 4, 60, 0
5, 96360, Note_on_c, 4, 55, 0
5, 96360, Note_on_c, 4, 64, 0
5, 96420, Note_on_c, 4, 48, 97
5, 96420, Note_on_c, 4, 55, 95
5, 96420, Note_on_c, 4, 60, 120
5, 96420, Note_on_c, 4, 64, 109
5, 96449, Note_on_c, 4, 64, 0
5, 96449, Note_on_c, 4, 48, 0
5, 96449, Note_on_c, 4, 55, 0
5, 96449, Note_on_c, 4, 60, 0
5, 96455, Control_c, 4, 7, 59
5, 96480, Note_on_c, 4, 60, 127
5, 96480, Note_on_c, 4, 64, 120
5, 96480, Note_on_c, 4, 55, 120
5, 96480, Note_on_c, 4, 48, 125
5, 96495, Control_c, 4, 7, 58
5, 96505, Control_c, 4, 7, 57
5, 96540, Note_on_c, 4, 48, 0
5, 96540, Note_on_c, 4, 60, 0
5, 96540, Note_on_c, 4, 64, 0
5, 96540, Note_on_c, 4, 55, 0
5, 96600, Note_on_c, 4, 48, 71
5, 96600, Note_on_c, 4, 60, 122
5, 96600, Note_on_c, 4, 55, 94
5, 96600, Note_on_c, 4, 64, 100
5, 96605, Control_c, 4, 7, 56
5, 96629, Note_on_c, 4, 64, 0
5, 96629, Note_on_c, 4, 48, 0
5, 96629, Note_on_c, 4, 60, 0
5, 96629, Note_on_c, 4, 55, 0
5, 96660, Note_on_c, 4, 60, 112
5, 96660, Note_on_c, 4, 64, 102
5, 96660, Note_on_c, 4, 55, 100
5, 96660, Note_on_c, 4, 48, 114
5, 96720, Note_on_c, 4, 48, 0
5, 96720, Note_on_c, 4, 60, 0
5, 96720, Note_on_c, 4, 64, 0
5, 96720, Note_on_c, 4, 55, 0
5, 96780, Note_on_c, 4, 48, 97
5, 96780, Note_on_c, 4, 55, 95
5, 96780, Note_on_c, 4, 60, 110
5, 96780, Note_on_c, 4, 64, 92
5, 96795, Control_c, 4, 7, 55
5, 96809, Note_on_c, 4, 64, 0
5, 96809, Note_on_c, 4, 48, 0
5, 96809, Note_on_c, 4, 55, 0
5, 96809, Note_on_c, 4, 60, 0
5, 96820, Control_c, 4, 7, 54
5, 96830, Control_c, 4, 7, 53
5, 96840, Note_on_c, 4, 60, 112
5, 96840, Note_on_c, 4, 64, 102
5, 96840, Note_on_c, 4, 55, 109
5, 96840, Note_on_c, 4, 48, 125
5, 96869, Note_on_c, 4, 55, 0
5, 96869, Note_on_c, 4, 60, 0
5, 96869, Note_on_c, 4, 64, 0
5, 96900, Note_on_c, 4, 60, 112
5, 96900, Note_on_c, 4, 55, 100
5, 96900, Note_on_c, 4, 64, 100
5, 96929, Note_on_c, 4, 64, 0
5, 96929, Note_on_c, 4, 55, 0
5, 96929, Note_on_c, 4, 60, 0
5, 96930, Note_on_c, 4, 48, 0
5, 96950, Control_c, 4, 7, 52
5, 96960, Control_c, 4, 7, 51
5, 96960, Note_on_c, 4, 48, 112
5, 96960, Note_on_c, 4, 60, 127
5, 96960, Note_on_c, 4, 64, 107
5, 96960, Note_on_c, 4, 55, 114
5, 96989, Note_on_c, 4, 55, 0
5, 96989, Note_on_c, 4, 48, 0
5, 96989, Note_on_c, 4, 60, 0
5, 96989, Note_on_c, 4, 64, 0
5, 97035, Control_c, 4, 7, 50
5, 97070, Control_c, 4, 64, 0
5, 97080, Control_c, 4, 7, 49
5, 97080, Note_on_c, 4, 43, 112
5, 97080, Note_on_c, 4, 59, 127
5, 97080, Note_on_c, 4, 62, 120
5, 97080, Note_on_c, 4, 55, 117
5, 97094, Control_c, 4, 64, 127
5, 97099, Control_c, 4, 7, 48
5, 97129, Control_c, 4, 7, 47
5, 97140, Note_on_c, 4, 55, 0
5, 97140, Note_on_c, 4, 43, 0
5, 97140, Note_on_c, 4, 59, 0
5, 97140, Note_on_c, 4, 62, 0
5, 97150, Control_c, 4, 7, 46
5, 97170, Control_c, 4, 7, 45
5, 97200, Note_on_c, 4, 43, 122
5, 97200, Note_on_c, 4, 59, 118
5, 97200, Note_on_c, 4, 62, 117
5, 97200, Note_on_c, 4, 55, 118
5, 97220, Control_c, 4, 7, 44
5, 97229, Control_c, 4, 7, 43
5, 97260, Note_on_c, 4, 55, 0
5, 97260, Note_on_c, 4, 43, 0
5, 97260, Note_on_c, 4, 59, 0
5, 97260, Note_on_c, 4, 62, 0
5, 97270, Control_c, 4, 7, 42
5, 97320, Note_on_c, 4, 59, 110
5, 97320, Note_on_c, 4, 62, 100
5, 97320, Note_on_c, 4, 43, 117
5, 97320, Note_on_c, 4, 55, 114
5, 97338, Control_c, 4, 7, 41
5, 97349, Note_on_c, 4, 55, 0
5, 97349, Note_on_c, 4, 59, 0
5, 97349, Note_on_c, 4, 62, 0
5, 97380, Note_on_c, 4, 43, 0
5, 97380, Note_on_c, 4, 59, 103
5, 97380, Note_on_c, 4, 62, 102
5, 97380, Note_on_c, 4, 55, 100
5, 97385, Control_c, 4, 7, 40
5, 97409, Note_on_c, 4, 55, 0
5, 97409, Note_on_c, 4, 62, 0
5, 97409, Note_on_c, 4, 59, 0
5, 97409, Control_c, 4, 7, 39
5, 97440, Note_on_c, 4, 43, 127
5, 97440, Note_on_c, 4, 59, 118
5, 97440, Note_on_c, 4, 62, 107
5, 97440, Note_on_c, 4, 55, 106
5, 97455, Control_c, 4, 7, 38
5, 97469, Note_on_c, 4, 55, 0
5, 97469, Note_on_c, 4, 43, 0
5, 97469, Note_on_c, 4, 59, 0
5, 97469, Note_on_c, 4, 62, 0
5, 97517, Control_c, 4, 7, 37
5, 97540, Control_c, 4, 64, 0
5, 97558, Control_c, 4, 7, 36
5, 97560, Note_on_c, 4, 38, 125
5, 97560, Note_on_c, 4, 57, 122
5, 97560, Note_on_c, 4, 54, 127
5, 97560, Note_on_c, 4, 62, 98
5, 97581, Control_c, 4, 64, 127
5, 97614, Control_c, 4, 7, 35
5, 97620, Note_on_c, 4, 62, 0
5, 97650, Note_on_c, 4, 38, 0
5, 97650, Note_on_c, 4, 57, 0
5, 97650, Note_on_c, 4, 54, 0
5, 97675, Control_c, 4, 7, 34
5, 97680, Note_on_c, 4, 62, 94
5, 97680, Note_on_c, 4, 38, 109
5, 97680, Note_on_c, 4, 54, 127
5, 97680, Note_on_c, 4, 57, 106
5, 97740, Note_on_c, 4, 57, 0
5, 97740, Note_on_c, 4, 62, 0
5, 97740, Note_on_c, 4, 38, 0
5, 97740, Note_on_c, 4, 54, 0
5, 97800, Note_on_c, 4, 57, 97
5, 97800, Note_on_c, 4, 62, 86
5, 97800, Note_on_c, 4, 54, 91
5, 97800, Note_on_c, 4, 38, 125
5, 97829, Note_on_c, 4, 54, 0
5, 97829, Note_on_c, 4, 57, 0
5, 97829, Note_on_c, 4, 62, 0
5, 97835, Control_c, 4, 7, 33
5, 97860, Note_on_c, 4, 38, 0
5, 97860, Note_on_c, 4, 57, 103
5, 97860, Note_on_c, 4, 54, 110
5, 97860, Note_on_c, 4, 62, 91
5, 97889, Note_on_c, 4, 62, 0
5, 97889, Note_on_c, 4, 54, 0
5, 97889, Note_on_c, 4, 57, 0
5, 97895, Control_c, 4, 7, 32
5, 97920, Note_on_c, 4, 54, 127
5, 97920, Note_on_c, 4, 57, 127
5, 97920, Note_on_c, 4, 62, 106
5, 97920, Note_on_c, 4, 38, 118
5, 97949, Note_on_c, 4, 38, 0
5, 97949, Note_on_c, 4, 54, 0
5, 97949, Note_on_c, 4, 57, 0
5, 97950, Control_c, 4, 7, 31
5, 97980, Note_on_c, 4, 62, 0
5, 98001, Control_c, 4, 7, 30
5, 98001, Control_c, 4, 64, 0
5, 98040, Note_on_c, 4, 60, 125
5, 98040, Note_on_c, 4, 64, 118
5, 98040, Note_on_c, 4, 45, 125
5, 98040, Note_on_c, 4, 57, 107
5, 98054, Control_c, 4, 7, 29
5, 98054, Control_c, 4, 64, 127
5, 98100, Note_on_c, 4, 57, 0
5, 98100, Note_on_c, 4, 45, 0
5, 98100, Note_on_c, 4, 60, 0
5, 98100, Control_c, 4, 7, 28
5, 98130, Note_on_c, 4, 64, 0
5, 98150, Control_c, 4, 7, 27
5, 98160, Note_on_c, 4, 45, 89
5, 98160, Note_on_c, 4, 60, 127
5, 98160, Note_on_c, 4, 64, 120
5, 98160, Note_on_c, 4, 57, 117
5, 98189, Note_on_c, 4, 57, 0
5, 98189, Note_on_c, 4, 64, 0
5, 98189, Note_on_c, 4, 60, 0
5, 98209, Control_c, 4, 7, 26
5, 98220, Note_on_c, 4, 45, 0
5, 98250, Control_c, 4, 7, 25
5, 98280, Note_on_c, 4, 60, 127
5, 98280, Note_on_c, 4, 64, 118
5, 98280, Note_on_c, 4, 57, 109
5, 98280, Note_on_c, 4, 45, 106
5, 98288, Control_c, 4, 7, 24
5, 98309, Note_on_c, 4, 45, 0
5, 98309, Note_on_c, 4, 60, 0
5, 98309, Note_on_c, 4, 64, 0
5, 98309, Note_on_c, 4, 57, 0
5, 98340, Note_on_c, 4, 60, 122
5, 98340, Note_on_c, 4, 57, 102
5, 98340, Note_on_c, 4, 64, 107
5, 98350, Control_c, 4, 7, 23
5, 98369, Note_on_c, 4, 64, 0
5, 98369, Note_on_c, 4, 57, 0
5, 98369, Note_on_c, 4, 60, 0
5, 98390, Control_c, 4, 7, 22
5, 98400, Note_on_c, 4, 45, 110
5, 98400, Note_on_c, 4, 60, 127
5, 98400, Note_on_c, 4, 64, 117
5, 98400, Note_on_c, 4, 57, 117
5, 98418, Control_c, 4, 7, 21
5, 98439, Control_c, 4, 7, 20
5, 98460, Note_on_c, 4, 57, 0
5, 98460, Note_on_c, 4, 45, 0
5, 98460, Note_on_c, 4, 60, 0
5, 98460, Note_on_c, 4, 64, 0
5, 98492, Control_c, 4, 64, 0
5, 98520, Note_on_c, 4, 64, 122
5, 98520, Note_on_c, 4, 60, 127
5, 98520, Note_on_c, 4, 45, 127
5, 98520, Note_on_c, 4, 57, 112
5, 98525, Control_c, 4, 7, 19
5, 98533, Control_c, 4, 64, 127
5, 98554, Control_c, 4, 7, 18
5, 98574, Control_c, 4, 7, 17
5, 98580, Note_on_c, 4, 57, 0
5, 98580, Note_on_c, 4, 64, 0
5, 98580, Note_on_c, 4, 60, 0
5, 98580, Note_on_c, 4, 45, 0
5, 98595, Control_c, 4, 7, 16
5, 98640, Note_on_c, 4, 45, 106
5, 98640, Note_on_c, 4, 60, 122
5, 98640, Note_on_c, 4, 64, 110
5, 98640, Note_on_c, 4, 57, 98
5, 98655, Control_c, 4, 7, 15
5, 98669, Note_on_c, 4, 57, 0
5, 98669, Note_on_c, 4, 45, 0
5, 98669, Note_on_c, 4, 60, 0
5, 98669, Note_on_c, 4, 64, 0
5, 98685, Control_c, 4, 7, 14
5, 98700, Note_on_c, 4, 60, 122
5, 98700, Note_on_c, 4, 57, 110
5, 98700, Note_on_c, 4, 64, 107
5, 98700, Note_on_c, 4, 45, 106
5, 98729, Note_on_c, 4, 57, 0
5, 98743, Control_c, 4, 7, 13
5, 98760, Note_on_c, 4, 60, 0
5, 98760, Note_on_c, 4, 64, 0
5, 98760, Note_on_c, 4, 45, 0
5, 98820, Note_on_c, 4, 60, 127
5, 98820, Note_on_c, 4, 64, 120
5, 98820, Note_on_c, 4, 45, 117
5, 98820, Note_on_c, 4, 57, 103
5, 98835, Control_c, 4, 7, 12
5, 98849, Note_on_c, 4, 57, 0
5, 98849, Note_on_c, 4, 60, 0
5, 98849, Note_on_c, 4, 64, 0
5, 98849, Note_on_c, 4, 45, 0
5, 98850, Control_c, 4, 7, 11
5, 98880, Note_on_c, 4, 60, 122
5, 98880, Note_on_c, 4, 57, 110
5, 98880, Note_on_c, 4, 64, 109
5, 98880, Note_on_c, 4, 45, 114
5, 98909, Note_on_c, 4, 45, 0
5, 98909, Note_on_c, 4, 60, 0
5, 98909, Note_on_c, 4, 57, 0
5, 98909, Note_on_c, 4, 64, 0
5, 98914, Control_c, 4, 7, 10
5, 98987, Control_c, 4, 64, 0
5, 99000, Note_on_c, 4, 43, 112
5, 99000, Note_on_c, 4, 59, 127
5, 99000, Note_on_c, 4, 62, 120
5, 99000, Note_on_c, 4, 55, 117
5, 99005, Control_c, 4, 7, 9
5, 99014, Control_c, 4, 64, 127
5, 99060, Note_on_c, 4, 55, 0
5, 99060, Note_on_c, 4, 43, 0
5, 99060, Note_on_c, 4, 59, 0
5, 99060, Note_on_c, 4, 62, 0
5, 99120, Note_on_c, 4, 43, 122
5, 99120, Note_on_c, 4, 59, 118
5, 99120, Note_on_c, 4, 62, 117
5, 99120, Note_on_c, 4, 55, 118
5, 99140, Control_c, 4, 7, 8
5, 99180, Note_on_c, 4, 55, 0
5, 99180, Note_on_c, 4, 43, 0
5, 99180, Note_on_c, 4, 59, 0
5, 99180, Note_on_c, 4, 62, 0
5, 99190, Control_c, 4, 7, 7
5, 99240, Note_on_c, 4, 59, 110
5, 99240, Note_on_c, 4, 62, 100
5, 99240, Note_on_c, 4, 43, 117
5, 99240, Note_on_c, 4, 55, 114
5, 99269, Note_on_c, 4, 55, 0
5, 99269, Note_on_c, 4, 59, 0
5, 99269, Note_on_c, 4, 62, 0
5, 99270, Control_c, 4, 7, 6
5, 99300, Note_on_c, 4, 43, 0
5, 99300, Note_on_c, 4, 59, 103
5, 99300, Note_on_c, 4, 62, 102
5, 99300, Note_on_c, 4, 55, 100
5, 99315, Control_c, 4, 7, 5
5, 99329, Note_on_c, 4, 55, 0
5, 99329, Note_on_c, 4, 62, 0
5, 99329, Note_on_c, 4, 59, 0
5, 99360, Note_on_c, 4, 43, 127
5, 99360, Note_on_c, 4, 59, 118
5, 99360, Note_on_c, 4, 62, 107
5, 99360, Note_on_c, 4, 55, 106
5, 99380, Control_c, 4, 7, 4
5, 99389, Note_on_c, 4, 55, 0
5, 99389, Note_on_c, 4, 43, 0
5, 99389, Note_on_c, 4, 59, 0
5, 99389, Note_on_c, 4, 62, 0
5, 99420, Control_c, 4, 7, 3
5, 99450, Control_c, 4, 7, 2
5, 99460, Control_c, 4, 64, 0
5, 99556, Control_c, 4, 7, 1
5, 99606, Control_c, 4, 7, 0
5, 99606, End_track
6, 0, Start_track
6, 0, MIDI_port, 0
6, 0, Title_t, "Electric Guitar (Verse/Chorus)"
6, 0, Program_c, 2, 30
6, 0, Control_c, 2, 7, 122
6, 0, Control_c, 2, 10, 64
6, 0, Control_c, 2, 93, 12
6, 0, Control_c, 2, 91, 30
6, 3000, Note_on_c, 2, 43, 127
6, 3000, Note_on_c, 2, 59, 109
6, 3000, Note_on_c, 2, 55, 117
6, 3000, Note_on_c, 2, 50, 120
6, 3009, Control_c, 2, 64, 127
6, 3780, Note_on_c, 2, 43, 0
6, 3780, Note_on_c, 2, 43, 125
6, 3810, Note_on_c, 2, 59, 0
6, 3810, Note_on_c, 2, 50, 0
6, 3810, Note_on_c, 2, 55, 0
6, 3840, Note_on_c, 2, 59, 89
6, 3840, Note_on_c, 2, 50, 110
6, 3840, Note_on_c, 2, 55, 109
6, 3900, Note_on_c, 2, 43, 0
6, 3930, Note_on_c, 2, 59, 0
6, 3930, Note_on_c, 2, 50, 0
6, 3930, Note_on_c, 2, 55, 0
6, 3960, Note_on_c, 2, 48, 125
6, 3960, Note_on_c, 2, 55, 125
6, 3960, Note_on_c, 2, 59, 100
6, 3960, Note_on_c, 2, 52, 127
6, 3969, Control_c, 2, 64, 0
6, 4410, Note_on_c, 2, 48, 0
6, 4440, Note_on_c, 2, 55, 0
6, 4440, Note_on_c, 2, 52, 0
6, 4440, Note_on_c, 2, 48, 127
6, 4470, Note_on_c, 2, 59, 0
6, 4560, Note_on_c, 2, 52, 114
6, 4620, Note_on_c, 2, 52, 0
6, 4620, Note_on_c, 2, 59, 106
6, 4740, Note_on_c, 2, 59, 0
6, 4740, Note_on_c, 2, 55, 106
6, 4800, Note_on_c, 2, 55, 0
6, 4800, Note_on_c, 2, 48, 0
6, 4800, Note_on_c, 2, 50, 120
6, 4920, Note_on_c, 2, 50, 0
6, 4920, Note_on_c, 2, 43, 127
6, 4920, Note_on_c, 2, 59, 109
6, 4920, Note_on_c, 2, 55, 117
6, 4920, Note_on_c, 2, 50, 120
6, 4929, Control_c, 2, 64, 127
6, 5700, Note_on_c, 2, 43, 0
6, 5700, Note_on_c, 2, 43, 125
6, 5730, Note_on_c, 2, 59, 0
6, 5730, Note_on_c, 2, 50, 0
6, 5730, Note_on_c, 2, 55, 0
6, 5760, Note_on_c, 2, 59, 89
6, 5760, Note_on_c, 2, 50, 110
6, 5760, Note_on_c, 2, 55, 109
6, 5820, Note_on_c, 2, 43, 0
6, 5850, Note_on_c, 2, 59, 0
6, 5850, Note_on_c, 2, 50, 0
6, 5850, Note_on_c, 2, 55, 0
6, 5880, Note_on_c, 2, 48, 125
6, 5880, Note_on_c, 2, 55, 125
6, 5880, Note_on_c, 2, 59, 100
6, 5880, Note_on_c, 2, 52, 127
6, 5889, Control_c, 2, 64, 0
6, 6330, Note_on_c, 2, 48, 0
6, 6360, Note_on_c, 2, 55, 0
6, 6360, Note_on_c, 2, 52, 0
6, 6360, Note_on_c, 2, 48, 127
6, 6390, Note_on_c, 2, 59, 0
6, 6480, Note_on_c, 2, 52, 114
6, 6540, Note_on_c, 2, 52, 0
6, 6540, Note_on_c, 2, 59, 106
6, 6660, Note_on_c, 2, 59, 0
6, 6660, Note_on_c, 2, 55, 106
6, 6720, Note_on_c, 2, 55, 0
6, 6720, Note_on_c, 2, 48, 0
6, 6720, Note_on_c, 2, 50, 120
6, 6840, Note_on_c, 2, 50, 0
6, 6840, Note_on_c, 2, 43, 127
6, 6840, Note_on_c, 2, 59, 109
6, 6840, Note_on_c, 2, 55, 117
6, 6840, Note_on_c, 2, 50, 120
6, 6849, Control_c, 2, 64, 127
6, 7620, Note_on_c, 2, 43, 0
6, 7620, Note_on_c, 2, 43, 125
6, 7650, Note_on_c, 2, 59, 0
6, 7650, Note_on_c, 2, 50, 0
6, 7650, Note_on_c, 2, 55, 0
6, 7680, Note_on_c, 2, 59, 89
6, 7680, Note_on_c, 2, 50, 110
6, 7680, Note_on_c, 2, 55, 109
6, 7740, Note_on_c, 2, 43, 0
6, 7770, Note_on_c, 2, 59, 0
6, 7770, Note_on_c, 2, 50, 0
6, 7770, Note_on_c, 2, 55, 0
6, 7800, Note_on_c, 2, 48, 125
6, 7800, Note_on_c, 2, 55, 125
6, 7800, Note_on_c, 2, 59, 100
6, 7800, Note_on_c, 2, 52, 127
6, 7809, Control_c, 2, 64, 0
6, 8250, Note_on_c, 2, 48, 0
6, 8280, Note_on_c, 2, 55, 0
6, 8280, Note_on_c, 2, 52, 0
6, 8280, Note_on_c, 2, 48, 127
6, 8310, Note_on_c, 2, 59, 0
6, 8400, Note_on_c, 2, 52, 114
6, 8460, Note_on_c, 2, 52, 0
6, 8460, Note_on_c, 2, 59, 106
6, 8580, Note_on_c, 2, 59, 0
6, 8580, Note_on_c, 2, 55, 106
6, 8640, Note_on_c, 2, 55, 0
6, 8640, Note_on_c, 2, 48, 0
6, 8640, Note_on_c, 2, 50, 120
6, 8760, Note_on_c, 2, 50, 0
6, 8760, Note_on_c, 2, 58, 127
6, 8760, Note_on_c, 2, 53, 120
6, 8760, Note_on_c, 2, 46, 127
6, 8779, Control_c, 2, 64, 127
6, 8820, Note_on_c, 2, 46, 0
6, 8820, Note_on_c, 2, 53, 0
6, 8820, Note_on_c, 2, 58, 0
6, 8940, Note_on_c, 2, 58, 127
6, 8940, Note_on_c, 2, 53, 120
6, 8940, Note_on_c, 2, 46, 114
6, 8969, Note_on_c, 2, 46, 0
6, 8969, Note_on_c, 2, 53, 0
6, 8969, Note_on_c, 2, 58, 0
6, 9120, Note_on_c, 2, 58, 127
6, 9120, Note_on_c, 2, 53, 102
6, 9120, Note_on_c, 2, 46, 125
6, 9149, Note_on_c, 2, 53, 0
6, 9149, Note_on_c, 2, 58, 0
6, 9180, Note_on_c, 2, 46, 0
6, 9300, Note_on_c, 2, 58, 127
6, 9300, Note_on_c, 2, 53, 92
6, 9300, Note_on_c, 2, 46, 114
6, 9329, Note_on_c, 2, 46, 0
6, 9329, Note_on_c, 2, 53, 0
6, 9329, Note_on_c, 2, 58, 0
6, 9420, Note_on_c, 2, 58, 114
6, 9420, Note_on_c, 2, 53, 94
6, 9420, Note_on_c, 2, 46, 114
6, 9449, Note_on_c, 2, 46, 0
6, 9449, Note_on_c, 2, 53, 0
6, 9449, Note_on_c, 2, 58, 0
6, 9480, Note_on_c, 2, 58, 114
6, 9480, Note_on_c, 2, 53, 94
6, 9480, Note_on_c, 2, 46, 83
6, 9509, Note_on_c, 2, 53, 0
6, 9509, Note_on_c, 2, 58, 0
6, 9540, Note_on_c, 2, 58, 114
6, 9540, Note_on_c, 2, 53, 80
6, 9569, Note_on_c, 2, 53, 0
6, 9569, Note_on_c, 2, 58, 0
6, 9570, Note_on_c, 2, 46, 0
6, 9597, Control_c, 2, 64, 127
6, 9600, Note_on_c, 2, 46, 61
6, 9600, Note_on_c, 2, 58, 97
6, 9600, Note_on_c, 2, 53, 65
6, 9660, Note_on_c, 2, 46, 0
6, 9690, Note_on_c, 2, 53, 0
6, 9690, Note_on_c, 2, 58, 0
6, 9720, Note_on_c, 2, 57, 127
6, 9720, Note_on_c, 2, 52, 122
6, 9720, Note_on_c, 2, 45, 112
6, 9735, Control_c, 2, 64, 0
6, 9758, Control_c, 2, 64, 0
6, 9796, Control_c, 2, 64, 127
6, 9840, Note_on_c, 2, 45, 0
6, 9840, Note_on_c, 2, 52, 0
6, 9840, Note_on_c, 2, 57, 0
6, 9900, Note_on_c, 2, 57, 122
6, 9900, Note_on_c, 2, 52, 127
6, 9900, Note_on_c, 2, 45, 97
6, 9960, Note_on_c, 2, 45, 0
6, 9960, Note_on_c, 2, 52, 0
6, 9960, Note_on_c, 2, 57, 0
6, 10080, Note_on_c, 2, 52, 112
6, 10080, Note_on_c, 2, 57, 109
6, 10080, Note_on_c, 2, 45, 100
6, 10109, Note_on_c, 2, 45, 0
6, 10109, Note_on_c, 2, 57, 0
6, 10109, Note_on_c, 2, 52, 0
6, 10260, Note_on_c, 2, 57, 103
6, 10260, Note_on_c, 2, 52, 94
6, 10260, Note_on_c, 2, 45, 98
6, 10289, Note_on_c, 2, 45, 0
6, 10289, Note_on_c, 2, 52, 0
6, 10289, Note_on_c, 2, 57, 0
6, 10380, Note_on_c, 2, 57, 112
6, 10380, Note_on_c, 2, 45, 100
6, 10380, Note_on_c, 2, 52, 107
6, 10409, Note_on_c, 2, 52, 0
6, 10409, Note_on_c, 2, 45, 0
6, 10409, Note_on_c, 2, 57, 0
6, 10440, Note_on_c, 2, 52, 83
6, 10440, Note_on_c, 2, 57, 89
6, 10440, Note_on_c, 2, 45, 97
6, 10469, Note_on_c, 2, 57, 0
6, 10469, Note_on_c, 2, 52, 0
6, 10500, Note_on_c, 2, 45, 0
6, 10500, Note_on_c, 2, 57, 89
6, 10500, Note_on_c, 2, 52, 86
6, 10529, Note_on_c, 2, 52, 0
6, 10529, Note_on_c, 2, 57, 0
6, 10530, Note_on_c, 2, 45, 83
6, 10559, Note_on_c, 2, 45, 0
6, 10560, Note_on_c, 2, 57, 97
6, 10560, Note_on_c, 2, 52, 94
6, 10589, Note_on_c, 2, 52, 0
6, 10589, Note_on_c, 2, 57, 0
6, 10590, Note_on_c, 2, 45, 97
6, 10619, Note_on_c, 2, 45, 0
6, 10634, Control_c, 2, 64, 127
6, 10644, Control_c, 2, 64, 127
6, 10670, Control_c, 2, 64, 0
6, 10680, Note_on_c, 2, 43, 127
6, 10680, Note_on_c, 2, 59, 109
6, 10680, Note_on_c, 2, 55, 117
6, 10680, Note_on_c, 2, 50, 120
6, 10689, Control_c, 2, 64, 127
6, 11460, Note_on_c, 2, 43, 0
6, 11460, Note_on_c, 2, 43, 125
6, 11490, Note_on_c, 2, 59, 0
6, 11490, Note_on_c, 2, 50, 0
6, 11490, Note_on_c, 2, 55, 0
6, 11520, Note_on_c, 2, 59, 89
6, 11520, Note_on_c, 2, 50, 110
6, 11520, Note_on_c, 2, 55, 109
6, 11580, Note_on_c, 2, 43, 0
6, 11610, Note_on_c, 2, 59, 0
6, 11610, Note_on_c, 2, 50, 0
6, 11610, Note_on_c, 2, 55, 0
6, 11640, Note_on_c, 2, 48, 125
6, 11640, Note_on_c, 2, 55, 125
6, 11640, Note_on_c, 2, 59, 100
6, 11640, Note_on_c, 2, 52, 127
6, 11649, Control_c, 2, 64, 0
6, 12090, Note_on_c, 2, 48, 0
6, 12120, Note_on_c, 2, 55, 0
6, 12120, Note_on_c, 2, 52, 0
6, 12120, Note_on_c, 2, 48, 127
6, 12150, Note_on_c, 2, 59, 0
6, 12240, Note_on_c, 2, 52, 114
6, 12300, Note_on_c, 2, 52, 0
6, 12300, Note_on_c, 2, 59, 106
6, 12420, Note_on_c, 2, 59, 0
6, 12420, Note_on_c, 2, 55, 106
6, 12480, Note_on_c, 2, 55, 0
6, 12480, Note_on_c, 2, 48, 0
6, 12480, Note_on_c, 2, 50, 120
6, 12600, Note_on_c, 2, 50, 0
6, 12600, Note_on_c, 2, 43, 127
6, 12600, Note_on_c, 2, 59, 109
6, 12600, Note_on_c, 2, 55, 117
6, 12600, Note_on_c, 2, 50, 120
6, 12609, Control_c, 2, 64, 127
6, 13380, Note_on_c, 2, 43, 0
6, 13380, Note_on_c, 2, 43, 125
6, 13410, Note_on_c, 2, 59, 0
6, 13410, Note_on_c, 2, 50, 0
6, 13410, Note_on_c, 2, 55, 0
6, 13440, Note_on_c, 2, 59, 89
6, 13440, Note_on_c, 2, 50, 110
6, 13440, Note_on_c, 2, 55, 109
6, 13500, Note_on_c, 2, 43, 0
6, 13530, Note_on_c, 2, 59, 0
6, 13530, Note_on_c, 2, 50, 0
6, 13530, Note_on_c, 2, 55, 0
6, 13560, Note_on_c, 2, 48, 125
6, 13560, Note_on_c, 2, 55, 125
6, 13560, Note_on_c, 2, 59, 100
6, 13560, Note_on_c, 2, 52, 127
6, 13569, Control_c, 2, 64, 0
6, 14010, Note_on_c, 2, 48, 0
6, 14040, Note_on_c, 2, 55, 0
6, 14040, Note_on_c, 2, 52, 0
6, 14040, Note_on_c, 2, 48, 127
6, 14070, Note_on_c, 2, 59, 0
6, 14160, Note_on_c, 2, 52, 114
6, 14220, Note_on_c, 2, 52, 0
6, 14220, Note_on_c, 2, 59, 106
6, 14340, Note_on_c, 2, 59, 0
6, 14340, Note_on_c, 2, 55, 106
6, 14400, Note_on_c, 2, 55, 0
6, 14400, Note_on_c, 2, 48, 0
6, 14400, Note_on_c, 2, 50, 120
6, 14520, Note_on_c, 2, 50, 0
6, 14520, Note_on_c, 2, 43, 127
6, 14520, Note_on_c, 2, 59, 109
6, 14520, Note_on_c, 2, 55, 117
6, 14520, Note_on_c, 2, 50, 120
6, 14529, Control_c, 2, 64, 127
6, 15300, Note_on_c, 2, 43, 0
6, 15300, Note_on_c, 2, 43, 125
6, 15330, Note_on_c, 2, 59, 0
6, 15330, Note_on_c, 2, 50, 0
6, 15330, Note_on_c, 2, 55, 0
6, 15360, Note_on_c, 2, 59, 89
6, 15360, Note_on_c, 2, 50, 110
6, 15360, Note_on_c, 2, 55, 109
6, 15420, Note_on_c, 2, 43, 0
6, 15450, Note_on_c, 2, 59, 0
6, 15450, Note_on_c, 2, 50, 0
6, 15450, Note_on_c, 2, 55, 0
6, 15480, Note_on_c, 2, 48, 125
6, 15480, Note_on_c, 2, 55, 125
6, 15480, Note_on_c, 2, 59, 100
6, 15480, Note_on_c, 2, 52, 127
6, 15489, Control_c, 2, 64, 0
6, 15930, Note_on_c, 2, 48, 0
6, 15960, Note_on_c, 2, 55, 0
6, 15960, Note_on_c, 2, 52, 0
6, 15960, Note_on_c, 2, 48, 127
6, 15990, Note_on_c, 2, 59, 0
6, 16080, Note_on_c, 2, 52, 114
6, 16140, Note_on_c, 2, 52, 0
6, 16140, Note_on_c, 2, 59, 106
6, 16260, Note_on_c, 2, 59, 0
6, 16260, Note_on_c, 2, 55, 106
6, 16320, Note_on_c, 2, 55, 0
6, 16320, Note_on_c, 2, 48, 0
6, 16320, Note_on_c, 2, 50, 120
6, 16440, Note_on_c, 2, 50, 0
6, 16440, Note_on_c, 2, 43, 127
6, 16440, Note_on_c, 2, 59, 109
6, 16440, Note_on_c, 2, 55, 117
6, 16440, Note_on_c, 2, 50, 120
6, 16449, Control_c, 2, 64, 127
6, 17220, Note_on_c, 2, 43, 0
6, 17220, Note_on_c, 2, 43, 125
6, 17250, Note_on_c, 2, 59, 0
6, 17250, Note_on_c, 2, 50, 0
6, 17250, Note_on_c, 2, 55, 0
6, 17280, Note_on_c, 2, 59, 89
6, 17280, Note_on_c, 2, 50, 110
6, 17280, Note_on_c, 2, 55, 109
6, 17340, Note_on_c, 2, 43, 0
6, 17370, Note_on_c, 2, 59, 0
6, 17370, Note_on_c, 2, 50, 0
6, 17370, Note_on_c, 2, 55, 0
6, 17400, Note_on_c, 2, 48, 125
6, 17400, Note_on_c, 2, 55, 125
6, 17400, Note_on_c, 2, 59, 100
6, 17400, Note_on_c, 2, 52, 127
6, 17409, Control_c, 2, 64, 0
6, 17850, Note_on_c, 2, 48, 0
6, 17880, Note_on_c, 2, 55, 0
6, 17880, Note_on_c, 2, 52, 0
6, 17880, Note_on_c, 2, 48, 127
6, 17910, Note_on_c, 2, 59, 0
6, 18000, Note_on_c, 2, 52, 114
6, 18060, Note_on_c, 2, 52, 0
6, 18060, Note_on_c, 2, 59, 106
6, 18180, Note_on_c, 2, 59, 0
6, 18180, Note_on_c, 2, 55, 106
6, 18240, Note_on_c, 2, 55, 0
6, 18240, Note_on_c, 2, 48, 0
6, 18240, Note_on_c, 2, 50, 120
6, 18360, Note_on_c, 2, 50, 0
6, 18360, Note_on_c, 2, 58, 127
6, 18360, Note_on_c, 2, 53, 120
6, 18360, Note_on_c, 2, 46, 127
6, 18379, Control_c, 2, 64, 127
6, 18420, Note_on_c, 2, 46, 0
6, 18420, Note_on_c, 2, 53, 0
6, 18420, Note_on_c, 2, 58, 0
6, 18540, Note_on_c, 2, 58, 127
6, 18540, Note_on_c, 2, 53, 120
6, 18540, Note_on_c, 2, 46, 114
6, 18569, Note_on_c, 2, 46, 0
6, 18569, Note_on_c, 2, 53, 0
6, 18569, Note_on_c, 2, 58, 0
6, 18720, Note_on_c, 2, 58, 127
6, 18720, Note_on_c, 2, 53, 102
6, 18720, Note_on_c, 2, 46, 125
6, 18749, Note_on_c, 2, 53, 0
6, 18749, Note_on_c, 2, 58, 0
6, 18780, Note_on_c, 2, 46, 0
6, 18900, Note_on_c, 2, 58, 127
6, 18900, Note_on_c, 2, 53, 92
6, 18900, Note_on_c, 2, 46, 114
6, 18929, Note_on_c, 2, 46, 0
6, 18929, Note_on_c, 2, 53, 0
6, 18929, Note_on_c, 2, 58, 0
6, 19020, Note_on_c, 2, 58, 114
6, 19020, Note_on_c, 2, 53, 94
6, 19020, Note_on_c, 2, 46, 114
6, 19049, Note_on_c, 2, 46, 0
6, 19049, Note_on_c, 2, 53, 0
6, 19049, Note_on_c, 2, 58, 0
6, 19080, Note_on_c, 2, 58, 114
6, 19080, Note_on_c, 2, 53, 94
6, 19080, Note_on_c, 2, 46, 83
6, 19109, Note_on_c, 2, 53, 0
6, 19109, Note_on_c, 2, 58, 0
6, 19140, Note_on_c, 2, 58, 114
6, 19140, Note_on_c, 2, 53, 80
6, 19169, Note_on_c, 2, 53, 0
6, 19169, Note_on_c, 2, 58, 0
6, 19170, Note_on_c, 2, 46, 0
6, 19197, Control_c, 2, 64, 127
6, 19200, Note_on_c, 2, 46, 61
6, 19200, Note_on_c, 2, 58, 97
6, 19200, Note_on_c, 2, 53, 65
6, 19260, Note_on_c, 2, 46, 0
6, 19290, Note_on_c, 2, 53, 0
6, 19290, Note_on_c, 2, 58, 0
6, 19320, Note_on_c, 2, 57, 127
6, 19320, Note_on_c, 2, 52, 122
6, 19320, Note_on_c, 2, 45, 112
6, 19335, Control_c, 2, 64, 0
6, 19358, Control_c, 2, 64, 0
6, 19396, Control_c, 2, 64, 127
6, 19440, Note_on_c, 2, 45, 0
6, 19440, Note_on_c, 2, 52, 0
6, 19440, Note_on_c, 2, 57, 0
6, 19500, Note_on_c, 2, 57, 122
6, 19500, Note_on_c, 2, 52, 127
6, 19500, Note_on_c, 2, 45, 97
6, 19560, Note_on_c, 2, 45, 0
6, 19560, Note_on_c, 2, 52, 0
6, 19560, Note_on_c, 2, 57, 0
6, 19680, Note_on_c, 2, 52, 112
6, 19680, Note_on_c, 2, 57, 109
6, 19680, Note_on_c, 2, 45, 100
6, 19709, Note_on_c, 2, 45, 0
6, 19709, Note_on_c, 2, 57, 0
6, 19709, Note_on_c, 2, 52, 0
6, 19860, Note_on_c, 2, 57, 103
6, 19860, Note_on_c, 2, 52, 94
6, 19860, Note_on_c, 2, 45, 98
6, 19889, Note_on_c, 2, 45, 0
6, 19889, Note_on_c, 2, 52, 0
6, 19889, Note_on_c, 2, 57, 0
6, 19980, Note_on_c, 2, 57, 112
6, 19980, Note_on_c, 2, 45, 100
6, 19980, Note_on_c, 2, 52, 107
6, 20009, Note_on_c, 2, 52, 0
6, 20009, Note_on_c, 2, 45, 0
6, 20009, Note_on_c, 2, 57, 0
6, 20040, Note_on_c, 2, 52, 83
6, 20040, Note_on_c, 2, 57, 89
6, 20040, Note_on_c, 2, 45, 97
6, 20069, Note_on_c, 2, 57, 0
6, 20069, Note_on_c, 2, 52, 0
6, 20100, Note_on_c, 2, 45, 0
6, 20100, Note_on_c, 2, 57, 89
6, 20100, Note_on_c, 2, 52, 86
6, 20129, Note_on_c, 2, 52, 0
6, 20129, Note_on_c, 2, 57, 0
6, 20130, Note_on_c, 2, 45, 83
6, 20159, Note_on_c, 2, 45, 0
6, 20160, Note_on_c, 2, 57, 97
6, 20160, Note_on_c, 2, 52, 94
6, 20189, Note_on_c, 2, 52, 0
6, 20189, Note_on_c, 2, 57, 0
6, 20190, Note_on_c, 2, 45, 97
6, 20219, Note_on_c, 2, 45, 0
6, 20234, Control_c, 2, 64, 127
6, 20244, Control_c, 2, 64, 127
6, 20270, Control_c, 2, 64, 0
6, 20280, Note_on_c, 2, 43, 127
6, 20280, Note_on_c, 2, 55, 127
6, 20280, Note_on_c, 2, 50, 127
6, 20289, Control_c, 2, 64, 127
6, 20550, Note_on_c, 2, 50, 0
6, 20550, Note_on_c, 2, 55, 0
6, 20580, Note_on_c, 2, 55, 106
6, 20580, Note_on_c, 2, 50, 102
6, 20609, Note_on_c, 2, 50, 0
6, 20609, Note_on_c, 2, 55, 0
6, 20640, Note_on_c, 2, 55, 77
6, 20640, Note_on_c, 2, 50, 81
6, 20669, Note_on_c, 2, 50, 0
6, 20669, Note_on_c, 2, 55, 0
6, 20670, Note_on_c, 2, 43, 0
6, 20700, Note_on_c, 2, 38, 127
6, 20700, Note_on_c, 2, 57, 127
6, 20700, Control_c, 2, 64, 0
6, 20700, Note_on_c, 2, 50, 127
6, 20760, Control_c, 2, 64, 127
6, 21030, Note_on_c, 2, 50, 0
6, 21030, Note_on_c, 2, 57, 0
6, 21060, Note_on_c, 2, 57, 112
6, 21060, Note_on_c, 2, 50, 110
6, 21089, Note_on_c, 2, 50, 0
6, 21089, Note_on_c, 2, 57, 0
6, 21120, Note_on_c, 2, 57, 114
6, 21120, Note_on_c, 2, 50, 125
6, 21149, Note_on_c, 2, 50, 0
6, 21149, Note_on_c, 2, 57, 0
6, 21150, Note_on_c, 2, 38, 0
6, 21171, Control_c, 2, 64, 0
6, 21180, Note_on_c, 2, 45, 125
6, 21180, Note_on_c, 2, 52, 127
6, 21180, Note_on_c, 2, 57, 114
6, 21234, Control_c, 2, 64, 127
6, 21330, Note_on_c, 2, 57, 0
6, 21330, Note_on_c, 2, 52, 0
6, 21360, Note_on_c, 2, 45, 0
6, 21360, Note_on_c, 2, 57, 127
6, 21360, Note_on_c, 2, 52, 120
6, 21360, Note_on_c, 2, 45, 72
6, 21450, Note_on_c, 2, 45, 0
6, 21480, Note_on_c, 2, 45, 107
6, 21510, Note_on_c, 2, 52, 0
6, 21510, Note_on_c, 2, 57, 0
6, 21540, Note_on_c, 2, 57, 125
6, 21540, Note_on_c, 2, 52, 110
6, 21570, Note_on_c, 2, 45, 0
6, 21600, Note_on_c, 2, 45, 97
6, 21690, Note_on_c, 2, 52, 0
6, 21690, Note_on_c, 2, 57, 0
6, 21720, Note_on_c, 2, 57, 122
6, 21720, Note_on_c, 2, 52, 103
6, 21780, Note_on_c, 2, 45, 0
6, 21840, Note_on_c, 2, 45, 106
6, 21869, Note_on_c, 2, 45, 0
6, 21870, Note_on_c, 2, 52, 0
6, 21870, Note_on_c, 2, 57, 0
6, 21880, Control_c, 2, 64, 0
6, 21900, Note_on_c, 2, 50, 122
6, 21900, Note_on_c, 2, 59, 112
6, 21900, Note_on_c, 2, 47, 106
6, 21938, Control_c, 2, 64, 127
6, 21990, Note_on_c, 2, 59, 0
6, 21990, Note_on_c, 2, 50, 0
6, 22020, Note_on_c, 2, 59, 114
6, 22020, Note_on_c, 2, 50, 110
6, 22050, Note_on_c, 2, 47, 0
6, 22080, Note_on_c, 2, 47, 106
6, 22170, Note_on_c, 2, 47, 0
6, 22191, Control_c, 2, 64, 0
6, 22200, Note_on_c, 2, 50, 0
6, 22200, Note_on_c, 2, 59, 0
6, 22200, Note_on_c, 2, 50, 122
6, 22200, Note_on_c, 2, 55, 127
6, 22200, Note_on_c, 2, 43, 127
6, 22263, Control_c, 2, 64, 127
6, 22470, Note_on_c, 2, 55, 0
6, 22470, Note_on_c, 2, 50, 0
6, 22500, Note_on_c, 2, 55, 112
6, 22500, Note_on_c, 2, 50, 103
6, 22529, Note_on_c, 2, 50, 0
6, 22529, Note_on_c, 2, 55, 0
6, 22530, Note_on_c, 2, 55, 97
6, 22530, Note_on_c, 2, 50, 103
6, 22560, Note_on_c, 2, 43, 0
6, 22590, Note_on_c, 2, 50, 0
6, 22590, Note_on_c, 2, 55, 0
6, 22604, Control_c, 2, 64, 0
6, 22620, Note_on_c, 2, 38, 125
6, 22620, Note_on_c, 2, 57, 127
6, 22620, Note_on_c, 2, 50, 125
6, 22658, Control_c, 2, 64, 127
6, 22950, Note_on_c, 2, 50, 0
6, 22950, Note_on_c, 2, 57, 0
6, 22980, Note_on_c, 2, 57, 103
6, 22980, Note_on_c, 2, 50, 103
6, 23009, Note_on_c, 2, 50, 0
6, 23009, Note_on_c, 2, 57, 0
6, 23040, Note_on_c, 2, 57, 81
6, 23040, Note_on_c, 2, 50, 102
6, 23069, Note_on_c, 2, 50, 0
6, 23069, Note_on_c, 2, 57, 0
6, 23070, Note_on_c, 2, 38, 0
6, 23088, Control_c, 2, 64, 0
6, 23100, Note_on_c, 2, 57, 114
6, 23100, Note_on_c, 2, 45, 120
6, 23100, Note_on_c, 2, 52, 120
6, 23141, Control_c, 2, 64, 127
6, 23250, Note_on_c, 2, 52, 0
6, 23250, Note_on_c, 2, 57, 0
6, 23280, Note_on_c, 2, 57, 125
6, 23280, Note_on_c, 2, 52, 110
6, 23370, Note_on_c, 2, 45, 0
6, 23430, Note_on_c, 2, 52, 0
6, 23430, Note_on_c, 2, 57, 0
6, 23430, Note_on_c, 2, 45, 89
6, 23460, Note_on_c, 2, 57, 125
6, 23460, Note_on_c, 2, 52, 103
6, 23490, Note_on_c, 2, 45, 0
6, 23520, Note_on_c, 2, 45, 89
6, 23580, Note_on_c, 2, 52, 0
6, 23580, Note_on_c, 2, 57, 0
6, 23640, Note_on_c, 2, 57, 125
6, 23640, Note_on_c, 2, 52, 100
6, 23670, Note_on_c, 2, 45, 0
6, 23760, Note_on_c, 2, 45, 97
6, 23790, Note_on_c, 2, 52, 0
6, 23790, Note_on_c, 2, 57, 0
6, 23820, Note_on_c, 2, 57, 127
6, 23820, Note_on_c, 2, 52, 110
6, 23850, Note_on_c, 2, 45, 0
6, 23880, Note_on_c, 2, 45, 106
6, 23910, Note_on_c, 2, 52, 0
6, 23910, Note_on_c, 2, 57, 0
6, 23940, Note_on_c, 2, 57, 112
6, 23940, Note_on_c, 2, 52, 103
6, 23970, Note_on_c, 2, 45, 0
6, 24000, Note_on_c, 2, 45, 106
6, 24060, Note_on_c, 2, 45, 0
6, 24090, Note_on_c, 2, 52, 0
6, 24090, Note_on_c, 2, 57, 0
6, 24090, Control_c, 2, 64, 0
6, 24120, Note_on_c, 2, 43, 125
6, 24120, Note_on_c, 2, 50, 122
6, 24120, Note_on_c, 2, 55, 127
6, 24143, Control_c, 2, 64, 127
6, 24390, Note_on_c, 2, 55, 0
6, 24390, Note_on_c, 2, 50, 0
6, 24420, Note_on_c, 2, 55, 114
6, 24420, Note_on_c, 2, 50, 106
6, 24449, Note_on_c, 2, 50, 0
6, 24480, Note_on_c, 2, 50, 84
6, 24509, Note_on_c, 2, 50, 0
6, 24510, Note_on_c, 2, 55, 0
6, 24510, Note_on_c, 2, 43, 0
6, 24540, Note_on_c, 2, 38, 125
6, 24540, Note_on_c, 2, 57, 127
6, 24540, Note_on_c, 2, 50, 122
6, 24545, Control_c, 2, 64, 0
6, 24595, Control_c, 2, 64, 127
6, 24900, Note_on_c, 2, 50, 0
6, 24900, Note_on_c, 2, 57, 0
6, 24900, Note_on_c, 2, 57, 97
6, 24900, Note_on_c, 2, 50, 110
6, 24929, Note_on_c, 2, 50, 0
6, 24960, Note_on_c, 2, 57, 0
6, 24960, Note_on_c, 2, 57, 71
6, 24960, Note_on_c, 2, 50, 102
6, 24989, Note_on_c, 2, 50, 0
6, 24990, Note_on_c, 2, 38, 0
6, 25020, Note_on_c, 2, 57, 0
6, 25020, Note_on_c, 2, 57, 95
6, 25020, Note_on_c, 2, 45, 127
6, 25020, Note_on_c, 2, 52, 109
6, 25022, Control_c, 2, 64, 0
6, 25066, Control_c, 2, 64, 127
6, 25170, Note_on_c, 2, 52, 0
6, 25170, Note_on_c, 2, 57, 0
6, 25200, Note_on_c, 2, 57, 122
6, 25200, Note_on_c, 2, 52, 110
6, 25290, Note_on_c, 2, 45, 0
6, 25320, Note_on_c, 2, 45, 97
6, 25350, Note_on_c, 2, 52, 0
6, 25350, Note_on_c, 2, 57, 0
6, 25380, Note_on_c, 2, 57, 125
6, 25380, Note_on_c, 2, 52, 110
6, 25440, Note_on_c, 2, 45, 0
6, 25440, Note_on_c, 2, 45, 97
6, 25530, Note_on_c, 2, 52, 0
6, 25530, Note_on_c, 2, 57, 0
6, 25560, Note_on_c, 2, 57, 125
6, 25560, Note_on_c, 2, 52, 110
6, 25620, Note_on_c, 2, 45, 0
6, 25650, Note_on_c, 2, 45, 89
6, 25680, Note_on_c, 2, 52, 0
6, 25680, Note_on_c, 2, 57, 0
6, 25710, Note_on_c, 2, 57, 125
6, 25710, Note_on_c, 2, 52, 110
6, 25800, Note_on_c, 2, 45, 0
6, 25920, Note_on_c, 2, 45, 89
6, 25949, Note_on_c, 2, 45, 0
6, 26010, Note_on_c, 2, 52, 0
6, 26010, Note_on_c, 2, 57, 0
6, 26032, Control_c, 2, 64, 0
6, 26040, Note_on_c, 2, 60, 127
6, 26040, Note_on_c, 2, 48, 127
6, 26040, Note_on_c, 2, 55, 127
6, 26070, Control_c, 2, 64, 127
6, 26190, Note_on_c, 2, 55, 0
6, 26190, Note_on_c, 2, 48, 0
6, 26190, Note_on_c, 2, 60, 0
6, 26220, Note_on_c, 2, 55, 103
6, 26220, Note_on_c, 2, 60, 112
6, 26220, Note_on_c, 2, 48, 97
6, 26370, Note_on_c, 2, 48, 0
6, 26370, Note_on_c, 2, 60, 0
6, 26370, Note_on_c, 2, 55, 0
6, 26400, Note_on_c, 2, 55, 122
6, 26400, Note_on_c, 2, 60, 120
6, 26400, Note_on_c, 2, 48, 106
6, 26550, Note_on_c, 2, 48, 0
6, 26550, Note_on_c, 2, 60, 0
6, 26550, Note_on_c, 2, 55, 0
6, 26580, Note_on_c, 2, 60, 112
6, 26580, Note_on_c, 2, 55, 110
6, 26580, Note_on_c, 2, 48, 81
6, 26700, Note_on_c, 2, 55, 0
6, 26730, Note_on_c, 2, 48, 0
6, 26730, Note_on_c, 2, 60, 0
6, 26760, Note_on_c, 2, 55, 114
6, 26760, Note_on_c, 2, 60, 120
6, 26760, Note_on_c, 2, 48, 102
6, 26850, Note_on_c, 2, 48, 0
6, 26850, Note_on_c, 2, 60, 0
6, 26850, Note_on_c, 2, 55, 0
6, 26880, Note_on_c, 2, 48, 95
6, 26880, Note_on_c, 2, 60, 86
6, 26880, Note_on_c, 2, 55, 89
6, 26909, Note_on_c, 2, 55, 0
6, 26909, Note_on_c, 2, 60, 0
6, 26909, Note_on_c, 2, 48, 0
6, 26940, Note_on_c, 2, 55, 97
6, 26940, Note_on_c, 2, 60, 94
6, 26969, Note_on_c, 2, 55, 0
6, 26970, Note_on_c, 2, 48, 55
6, 26999, Note_on_c, 2, 48, 0
6, 27000, Note_on_c, 2, 60, 0
6, 27000, Note_on_c, 2, 60, 97
6, 27000, Note_on_c, 2, 55, 102
6, 27000, Note_on_c, 2, 48, 106
6, 27090, Note_on_c, 2, 55, 0
6, 27090, Note_on_c, 2, 60, 0
6, 27120, Note_on_c, 2, 55, 81
6, 27120, Note_on_c, 2, 60, 95
6, 27149, Note_on_c, 2, 60, 0
6, 27149, Note_on_c, 2, 55, 0
6, 27150, Note_on_c, 2, 48, 0
6, 27180, Note_on_c, 2, 55, 112
6, 27180, Note_on_c, 2, 60, 110
6, 27180, Note_on_c, 2, 48, 79
6, 27270, Note_on_c, 2, 60, 0
6, 27270, Note_on_c, 2, 55, 0
6, 27300, Note_on_c, 2, 48, 0
6, 27300, Note_on_c, 2, 60, 71
6, 27300, Note_on_c, 2, 55, 95
6, 27329, Note_on_c, 2, 55, 0
6, 27329, Note_on_c, 2, 60, 0
6, 27330, Note_on_c, 2, 48, 50
6, 27359, Note_on_c, 2, 48, 0
6, 27360, Note_on_c, 2, 55, 122
6, 27360, Note_on_c, 2, 60, 122
6, 27360, Note_on_c, 2, 48, 53
6, 27450, Note_on_c, 2, 48, 0
6, 27450, Note_on_c, 2, 60, 0
6, 27450, Note_on_c, 2, 55, 0
6, 27540, Note_on_c, 2, 55, 112
6, 27540, Note_on_c, 2, 60, 118
6, 27570, Note_on_c, 2, 48, 95
6, 27630, Note_on_c, 2, 48, 0
6, 27630, Note_on_c, 2, 60, 0
6, 27630, Note_on_c, 2, 55, 0
6, 27660, Note_on_c, 2, 55, 97
6, 27660, Note_on_c, 2, 60, 94
6, 27660, Note_on_c, 2, 48, 89
6, 27689, Note_on_c, 2, 60, 0
6, 27689, Note_on_c, 2, 55, 0
6, 27720, Note_on_c, 2, 48, 0
6, 27720, Note_on_c, 2, 55, 97
6, 27720, Note_on_c, 2, 60, 102
6, 27749, Note_on_c, 2, 55, 0
6, 27750, Note_on_c, 2, 48, 61
6, 27780, Note_on_c, 2, 60, 0
6, 27780, Note_on_c, 2, 55, 89
6, 27780, Note_on_c, 2, 60, 80
6, 27809, Note_on_c, 2, 60, 0
6, 27809, Note_on_c, 2, 55, 0
6, 27810, Note_on_c, 2, 48, 0
6, 27840, Note_on_c, 2, 48, 114
6, 27840, Note_on_c, 2, 55, 92
6, 27840, Note_on_c, 2, 60, 100
6, 27891, Control_c, 2, 64, 127
6, 27900, Note_on_c, 2, 60, 0
6, 27900, Note_on_c, 2, 55, 0
6, 27900, Note_on_c, 2, 48, 0
6, 27930, Control_c, 2, 64, 0
6, 27960, Note_on_c, 2, 43, 127
6, 27960, Note_on_c, 2, 59, 109
6, 27960, Note_on_c, 2, 55, 117
6, 27960, Note_on_c, 2, 50, 120
6, 27969, Control_c, 2, 64, 127
6, 28740, Note_on_c, 2, 43, 0
6, 28740, Note_on_c, 2, 43, 125
6, 28770, Note_on_c, 2, 59, 0
6, 28770, Note_on_c, 2, 50, 0
6, 28770, Note_on_c, 2, 55, 0
6, 28800, Note_on_c, 2, 59, 89
6, 28800, Note_on_c, 2, 50, 110
6, 28800, Note_on_c, 2, 55, 109
6, 28860, Note_on_c, 2, 43, 0
6, 28890, Note_on_c, 2, 59, 0
6, 28890, Note_on_c, 2, 50, 0
6, 28890, Note_on_c, 2, 55, 0
6, 28920, Note_on_c, 2, 48, 125
6, 28920, Note_on_c, 2, 55, 125
6, 28920, Note_on_c, 2, 59, 100
6, 28920, Note_on_c, 2, 52, 127
6, 28929, Control_c, 2, 64, 0
6, 29370, Note_on_c, 2, 48, 0
6, 29400, Note_on_c, 2, 55, 0
6, 29400, Note_on_c, 2, 52, 0
6, 29400, Note_on_c, 2, 48, 127
6, 29430, Note_on_c, 2, 59, 0
6, 29520, Note_on_c, 2, 52, 114
6, 29580, Note_on_c, 2, 52, 0
6, 29580, Note_on_c, 2, 59, 106
6, 29700, Note_on_c, 2, 59, 0
6, 29700, Note_on_c, 2, 55, 106
6, 29760, Note_on_c, 2, 55, 0
6, 29760, Note_on_c, 2, 48, 0
6, 29760, Note_on_c, 2, 50, 120
6, 29880, Note_on_c, 2, 50, 0
6, 29880, Note_on_c, 2, 43, 127
6, 29880, Note_on_c, 2, 59, 109
6, 29880, Note_on_c, 2, 55, 117
6, 29880, Note_on_c, 2, 50, 120
6, 29889, Control_c, 2, 64, 127
6, 30660, Note_on_c, 2, 43, 0
6, 30660, Note_on_c, 2, 43, 125
6, 30690, Note_on_c, 2, 59, 0
6, 30690, Note_on_c, 2, 50, 0
6, 30690, Note_on_c, 2, 55, 0
6, 30720, Note_on_c, 2, 59, 89
6, 30720, Note_on_c, 2, 50, 110
6, 30720, Note_on_c, 2, 55, 109
6, 30780, Note_on_c, 2, 43, 0
6, 30810, Note_on_c, 2, 59, 0
6, 30810, Note_on_c, 2, 50, 0
6, 30810, Note_on_c, 2, 55, 0
6, 30840, Note_on_c, 2, 48, 125
6, 30840, Note_on_c, 2, 55, 125
6, 30840, Note_on_c, 2, 59, 100
6, 30840, Note_on_c, 2, 52, 127
6, 30849, Control_c, 2, 64, 0
6, 31290, Note_on_c, 2, 48, 0
6, 31320, Note_on_c, 2, 55, 0
6, 31320, Note_on_c, 2, 52, 0
6, 31320, Note_on_c, 2, 48, 127
6, 31350, Note_on_c, 2, 59, 0
6, 31440, Note_on_c, 2, 52, 114
6, 31500, Note_on_c, 2, 52, 0
6, 31500, Note_on_c, 2, 59, 106
6, 31620, Note_on_c, 2, 59, 0
6, 31620, Note_on_c, 2, 55, 106
6, 31680, Note_on_c, 2, 55, 0
6, 31680, Note_on_c, 2, 48, 0
6, 31680, Note_on_c, 2, 50, 120
6, 31800, Note_on_c, 2, 50, 0
6, 31800, Note_on_c, 2, 43, 127
6, 31800, Note_on_c, 2, 59, 109
6, 31800, Note_on_c, 2, 55, 117
6, 31800, Note_on_c, 2, 50, 120
6, 31809, Control_c, 2, 64, 127
6, 32580, Note_on_c, 2, 43, 0
6, 32580, Note_on_c, 2, 43, 125
6, 32610, Note_on_c, 2, 59, 0
6, 32610, Note_on_c, 2, 50, 0
6, 32610, Note_on_c, 2, 55, 0
6, 32640, Note_on_c, 2, 59, 89
6, 32640, Note_on_c, 2, 50, 110
6, 32640, Note_on_c, 2, 55, 109
6, 32700, Note_on_c, 2, 43, 0
6, 32730, Note_on_c, 2, 59, 0
6, 32730, Note_on_c, 2, 50, 0
6, 32730, Note_on_c, 2, 55, 0
6, 32760, Note_on_c, 2, 48, 125
6, 32760, Note_on_c, 2, 55, 125
6, 32760, Note_on_c, 2, 59, 100
6, 32760, Note_on_c, 2, 52, 127
6, 32769, Control_c, 2, 64, 0
6, 33210, Note_on_c, 2, 48, 0
6, 33240, Note_on_c, 2, 55, 0
6, 33240, Note_on_c, 2, 52, 0
6, 33240, Note_on_c, 2, 48, 127
6, 33270, Note_on_c, 2, 59, 0
6, 33360, Note_on_c, 2, 52, 114
6, 33420, Note_on_c, 2, 52, 0
6, 33420, Note_on_c, 2, 59, 106
6, 33540, Note_on_c, 2, 59, 0
6, 33540, Note_on_c, 2, 55, 106
6, 33600, Note_on_c, 2, 55, 0
6, 33600, Note_on_c, 2, 48, 0
6, 33600, Note_on_c, 2, 50, 120
6, 33720, Note_on_c, 2, 50, 0
6, 33720, Note_on_c, 2, 43, 127
6, 33720, Note_on_c, 2, 59, 109
6, 33720, Note_on_c, 2, 55, 117
6, 33720, Note_on_c, 2, 50, 120
6, 33729, Control_c, 2, 64, 127
6, 34500, Note_on_c, 2, 43, 0
6, 34500, Note_on_c, 2, 43, 125
6, 34530, Note_on_c, 2, 59, 0
6, 34530, Note_on_c, 2, 50, 0
6, 34530, Note_on_c, 2, 55, 0
6, 34560, Note_on_c, 2, 59, 89
6, 34560, Note_on_c, 2, 50, 110
6, 34560, Note_on_c, 2, 55, 109
6, 34620, Note_on_c, 2, 43, 0
6, 34650, Note_on_c, 2, 59, 0
6, 34650, Note_on_c, 2, 50, 0
6, 34650, Note_on_c, 2, 55, 0
6, 34680, Note_on_c, 2, 48, 125
6, 34680, Note_on_c, 2, 55, 125
6, 34680, Note_on_c, 2, 59, 100
6, 34680, Note_on_c, 2, 52, 127
6, 34689, Control_c, 2, 64, 0
6, 35130, Note_on_c, 2, 48, 0
6, 35160, Note_on_c, 2, 55, 0
6, 35160, Note_on_c, 2, 52, 0
6, 35160, Note_on_c, 2, 48, 127
6, 35190, Note_on_c, 2, 59, 0
6, 35280, Note_on_c, 2, 52, 114
6, 35340, Note_on_c, 2, 52, 0
6, 35340, Note_on_c, 2, 59, 106
6, 35460, Note_on_c, 2, 59, 0
6, 35460, Note_on_c, 2, 55, 106
6, 35520, Note_on_c, 2, 55, 0
6, 35520, Note_on_c, 2, 48, 0
6, 35520, Note_on_c, 2, 50, 120
6, 35640, Note_on_c, 2, 50, 0
6, 35640, Note_on_c, 2, 58, 127
6, 35640, Note_on_c, 2, 53, 120
6, 35640, Note_on_c, 2, 46, 127
6, 35659, Control_c, 2, 64, 127
6, 35700, Note_on_c, 2, 46, 0
6, 35700, Note_on_c, 2, 53, 0
6, 35700, Note_on_c, 2, 58, 0
6, 35820, Note_on_c, 2, 58, 127
6, 35820, Note_on_c, 2, 53, 120
6, 35820, Note_on_c, 2, 46, 114
6, 35849, Note_on_c, 2, 46, 0
6, 35849, Note_on_c, 2, 53, 0
6, 35849, Note_on_c, 2, 58, 0
6, 36000, Note_on_c, 2, 58, 127
6, 36000, Note_on_c, 2, 53, 102
6, 36000, Note_on_c, 2, 46, 125
6, 36029, Note_on_c, 2, 53, 0
6, 36029, Note_on_c, 2, 58, 0
6, 36060, Note_on_c, 2, 46, 0
6, 36180, Note_on_c, 2, 58, 127
6, 36180, Note_on_c, 2, 53, 92
6, 36180, Note_on_c, 2, 46, 114
6, 36209, Note_on_c, 2, 46, 0
6, 36209, Note_on_c, 2, 53, 0
6, 36209, Note_on_c, 2, 58, 0
6, 36300, Note_on_c, 2, 58, 114
6, 36300, Note_on_c, 2, 53, 94
6, 36300, Note_on_c, 2, 46, 114
6, 36329, Note_on_c, 2, 46, 0
6, 36329, Note_on_c, 2, 53, 0
6, 36329, Note_on_c, 2, 58, 0
6, 36360, Note_on_c, 2, 58, 114
6, 36360, Note_on_c, 2, 53, 94
6, 36360, Note_on_c, 2, 46, 83
6, 36389, Note_on_c, 2, 53, 0
6, 36389, Note_on_c, 2, 58, 0
6, 36420, Note_on_c, 2, 58, 114
6, 36420, Note_on_c, 2, 53, 80
6, 36449, Note_on_c, 2, 53, 0
6, 36449, Note_on_c, 2, 58, 0
6, 36450, Note_on_c, 2, 46, 0
6, 36477, Control_c, 2, 64, 127
6, 36480, Note_on_c, 2, 46, 61
6, 36480, Note_on_c, 2, 58, 97
6, 36480, Note_on_c, 2, 53, 65
6, 36540, Note_on_c, 2, 46, 0
6, 36570, Note_on_c, 2, 53, 0
6, 36570, Note_on_c, 2, 58, 0
6, 36600, Note_on_c, 2, 57, 127
6, 36600, Note_on_c, 2, 52, 122
6, 36600, Note_on_c, 2, 45, 112
6, 36615, Control_c, 2, 64, 0
6, 36638, Control_c, 2, 64, 0
6, 36676, Control_c, 2, 64, 127
6, 36720, Note_on_c, 2, 45, 0
6, 36720, Note_on_c, 2, 52, 0
6, 36720, Note_on_c, 2, 57, 0
6, 36780, Note_on_c, 2, 57, 122
6, 36780, Note_on_c, 2, 52, 127
6, 36780, Note_on_c, 2, 45, 97
6, 36840, Note_on_c, 2, 45, 0
6, 36840, Note_on_c, 2, 52, 0
6, 36840, Note_on_c, 2, 57, 0
6, 36960, Note_on_c, 2, 52, 112
6, 36960, Note_on_c, 2, 57, 109
6, 36960, Note_on_c, 2, 45, 100
6, 36989, Note_on_c, 2, 45, 0
6, 36989, Note_on_c, 2, 57, 0
6, 36989, Note_on_c, 2, 52, 0
6, 37140, Note_on_c, 2, 57, 103
6, 37140, Note_on_c, 2, 52, 94
6, 37140, Note_on_c, 2, 45, 98
6, 37169, Note_on_c, 2, 45, 0
6, 37169, Note_on_c, 2, 52, 0
6, 37169, Note_on_c, 2, 57, 0
6, 37260, Note_on_c, 2, 57, 112
6, 37260, Note_on_c, 2, 45, 100
6, 37260, Note_on_c, 2, 52, 107
6, 37289, Note_on_c, 2, 52, 0
6, 37289, Note_on_c, 2, 45, 0
6, 37289, Note_on_c, 2, 57, 0
6, 37320, Note_on_c, 2, 52, 83
6, 37320, Note_on_c, 2, 57, 89
6, 37320, Note_on_c, 2, 45, 97
6, 37349, Note_on_c, 2, 57, 0
6, 37349, Note_on_c, 2, 52, 0
6, 37380, Note_on_c, 2, 45, 0
6, 37380, Note_on_c, 2, 57, 89
6, 37380, Note_on_c, 2, 52, 86
6, 37409, Note_on_c, 2, 52, 0
6, 37409, Note_on_c, 2, 57, 0
6, 37410, Note_on_c, 2, 45, 83
6, 37439, Note_on_c, 2, 45, 0
6, 37440, Note_on_c, 2, 57, 97
6, 37440, Note_on_c, 2, 52, 94
6, 37469, Note_on_c, 2, 52, 0
6, 37469, Note_on_c, 2, 57, 0
6, 37470, Note_on_c, 2, 45, 97
6, 37499, Note_on_c, 2, 45, 0
6, 37514, Control_c, 2, 64, 127
6, 37524, Control_c, 2, 64, 127
6, 37550, Control_c, 2, 64, 0
6, 37560, Note_on_c, 2, 43, 127
6, 37560, Note_on_c, 2, 55, 127
6, 37560, Note_on_c, 2, 50, 127
6, 37569, Control_c, 2, 64, 127
6, 37830, Note_on_c, 2, 50, 0
6, 37830, Note_on_c, 2, 55, 0
6, 37860, Note_on_c, 2, 55, 106
6, 37860, Note_on_c, 2, 50, 102
6, 37889, Note_on_c, 2, 50, 0
6, 37889, Note_on_c, 2, 55, 0
6, 37920, Note_on_c, 2, 55, 77
6, 37920, Note_on_c, 2, 50, 81
6, 37949, Note_on_c, 2, 50, 0
6, 37949, Note_on_c, 2, 55, 0
6, 37950, Note_on_c, 2, 43, 0
6, 37980, Note_on_c, 2, 38, 127
6, 37980, Note_on_c, 2, 57, 127
6, 37980, Control_c, 2, 64, 0
6, 37980, Note_on_c, 2, 50, 127
6, 38040, Control_c, 2, 64, 127
6, 38310, Note_on_c, 2, 50, 0
6, 38310, Note_on_c, 2, 57, 0
6, 38340, Note_on_c, 2, 57, 112
6, 38340, Note_on_c, 2, 50, 110
6, 38369, Note_on_c, 2, 50, 0
6, 38369, Note_on_c, 2, 57, 0
6, 38400, Note_on_c, 2, 57, 114
6, 38400, Note_on_c, 2, 50, 125
6, 38429, Note_on_c, 2, 50, 0
6, 38429, Note_on_c, 2, 57, 0
6, 38430, Note_on_c, 2, 38, 0
6, 38451, Control_c, 2, 64, 0
6, 38460, Note_on_c, 2, 45, 125
6, 38460, Note_on_c, 2, 52, 127
6, 38460, Note_on_c, 2, 57, 114
6, 38514, Control_c, 2, 64, 127
6, 38610, Note_on_c, 2, 57, 0
6, 38610, Note_on_c, 2, 52, 0
6, 38640, Note_on_c, 2, 45, 0
6, 38640, Note_on_c, 2, 57, 127
6, 38640, Note_on_c, 2, 52, 120
6, 38640, Note_on_c, 2, 45, 72
6, 38730, Note_on_c, 2, 45, 0
6, 38760, Note_on_c, 2, 45, 107
6, 38790, Note_on_c, 2, 52, 0
6, 38790, Note_on_c, 2, 57, 0
6, 38820, Note_on_c, 2, 57, 125
6, 38820, Note_on_c, 2, 52, 110
6, 38850, Note_on_c, 2, 45, 0
6, 38880, Note_on_c, 2, 45, 97
6, 38970, Note_on_c, 2, 52, 0
6, 38970, Note_on_c, 2, 57, 0
6, 39000, Note_on_c, 2, 57, 122
6, 39000, Note_on_c, 2, 52, 103
6, 39060, Note_on_c, 2, 45, 0
6, 39120, Note_on_c, 2, 45, 106
6, 39149, Note_on_c, 2, 45, 0
6, 39150, Note_on_c, 2, 52, 0
6, 39150, Note_on_c, 2, 57, 0
6, 39160, Control_c, 2, 64, 0
6, 39180, Note_on_c, 2, 50, 122
6, 39180, Note_on_c, 2, 59, 112
6, 39180, Note_on_c, 2, 47, 106
6, 39218, Control_c, 2, 64, 127
6, 39270, Note_on_c, 2, 59, 0
6, 39270, Note_on_c, 2, 50, 0
6, 39300, Note_on_c, 2, 59, 114
6, 39300, Note_on_c, 2, 50, 110
6, 39330, Note_on_c, 2, 47, 0
6, 39360, Note_on_c, 2, 47, 106
6, 39450, Note_on_c, 2, 47, 0
6, 39471, Control_c, 2, 64, 0
6, 39480, Note_on_c, 2, 50, 0
6, 39480, Note_on_c, 2, 59, 0
6, 39480, Note_on_c, 2, 50, 122
6, 39480, Note_on_c, 2, 55, 127
6, 39480, Note_on_c, 2, 43, 127
6, 39543, Control_c, 2, 64, 127
6, 39750, Note_on_c, 2, 55, 0
6, 39750, Note_on_c, 2, 50, 0
6, 39780, Note_on_c, 2, 55, 112
6, 39780, Note_on_c, 2, 50, 103
6, 39809, Note_on_c, 2, 50, 0
6, 39809, Note_on_c, 2, 55, 0
6, 39810, Note_on_c, 2, 55, 97
6, 39810, Note_on_c, 2, 50, 103
6, 39840, Note_on_c, 2, 43, 0
6, 39870, Note_on_c, 2, 50, 0
6, 39870, Note_on_c, 2, 55, 0
6, 39884, Control_c, 2, 64, 0
6, 39900, Note_on_c, 2, 38, 125
6, 39900, Note_on_c, 2, 57, 127
6, 39900, Note_on_c, 2, 50, 125
6, 39938, Control_c, 2, 64, 127
6, 40230, Note_on_c, 2, 50, 0
6, 40230, Note_on_c, 2, 57, 0
6, 40260, Note_on_c, 2, 57, 103
6, 40260, Note_on_c, 2, 50, 103
6, 40289, Note_on_c, 2, 50, 0
6, 40289, Note_on_c, 2, 57, 0
6, 40320, Note_on_c, 2, 57, 81
6, 40320, Note_on_c, 2, 50, 102
6, 40349, Note_on_c, 2, 50, 0
6, 40349, Note_on_c, 2, 57, 0
6, 40350, Note_on_c, 2, 38, 0
6, 40368, Control_c, 2, 64, 0
6, 40380, Note_on_c, 2, 57, 114
6, 40380, Note_on_c, 2, 45, 120
6, 40380, Note_on_c, 2, 52, 120
6, 40421, Control_c, 2, 64, 127
6, 40530, Note_on_c, 2, 52, 0
6, 40530, Note_on_c, 2, 57, 0
6, 40560, Note_on_c, 2, 57, 125
6, 40560, Note_on_c, 2, 52, 110
6, 40650, Note_on_c, 2, 45, 0
6, 40710, Note_on_c, 2, 52, 0
6, 40710, Note_on_c, 2, 57, 0
6, 40710, Note_on_c, 2, 45, 89
6, 40740, Note_on_c, 2, 57, 125
6, 40740, Note_on_c, 2, 52, 103
6, 40770, Note_on_c, 2, 45, 0
6, 40800, Note_on_c, 2, 45, 89
6, 40860, Note_on_c, 2, 52, 0
6, 40860, Note_on_c, 2, 57, 0
6, 40920, Note_on_c, 2, 57, 125
6, 40920, Note_on_c, 2, 52, 100
6, 40950, Note_on_c, 2, 45, 0
6, 41040, Note_on_c, 2, 45, 97
6, 41070, Note_on_c, 2, 52, 0
6, 41070, Note_on_c, 2, 57, 0
6, 41100, Note_on_c, 2, 57, 127
6, 41100, Note_on_c, 2, 52, 110
6, 41130, Note_on_c, 2, 45, 0
6, 41160, Note_on_c, 2, 45, 106
6, 41190, Note_on_c, 2, 52, 0
6, 41190, Note_on_c, 2, 57, 0
6, 41220, Note_on_c, 2, 57, 112
6, 41220, Note_on_c, 2, 52, 103
6, 41250, Note_on_c, 2, 45, 0
6, 41280, Note_on_c, 2, 45, 106
6, 41340, Note_on_c, 2, 45, 0
6, 41370, Note_on_c, 2, 52, 0
6, 41370, Note_on_c, 2, 57, 0
6, 41370, Control_c, 2, 64, 0
6, 41400, Note_on_c, 2, 43, 125
6, 41400, Note_on_c, 2, 50, 122
6, 41400, Note_on_c, 2, 55, 127
6, 41423, Control_c, 2, 64, 127
6, 41670, Note_on_c, 2, 55, 0
6, 41670, Note_on_c, 2, 50, 0
6, 41700, Note_on_c, 2, 55, 114
6, 41700, Note_on_c, 2, 50, 106
6, 41729, Note_on_c, 2, 50, 0
6, 41760, Note_on_c, 2, 50, 84
6, 41789, Note_on_c, 2, 50, 0
6, 41790, Note_on_c, 2, 55, 0
6, 41790, Note_on_c, 2, 43, 0
6, 41820, Note_on_c, 2, 38, 125
6, 41820, Note_on_c, 2, 57, 127
6, 41820, Note_on_c, 2, 50, 122
6, 41825, Control_c, 2, 64, 0
6, 41875, Control_c, 2, 64, 127
6, 42180, Note_on_c, 2, 50, 0
6, 42180, Note_on_c, 2, 57, 0
6, 42180, Note_on_c, 2, 57, 97
6, 42180, Note_on_c, 2, 50, 110
6, 42209, Note_on_c, 2, 50, 0
6, 42240, Note_on_c, 2, 57, 0
6, 42240, Note_on_c, 2, 57, 71
6, 42240, Note_on_c, 2, 50, 102
6, 42269, Note_on_c, 2, 50, 0
6, 42270, Note_on_c, 2, 38, 0
6, 42300, Note_on_c, 2, 57, 0
6, 42300, Note_on_c, 2, 57, 95
6, 42300, Note_on_c, 2, 45, 127
6, 42300, Note_on_c, 2, 52, 109
6, 42302, Control_c, 2, 64, 0
6, 42346, Control_c, 2, 64, 127
6, 42450, Note_on_c, 2, 52, 0
6, 42450, Note_on_c, 2, 57, 0
6, 42480, Note_on_c, 2, 57, 122
6, 42480, Note_on_c, 2, 52, 110
6, 42570, Note_on_c, 2, 45, 0
6, 42600, Note_on_c, 2, 45, 97
6, 42630, Note_on_c, 2, 52, 0
6, 42630, Note_on_c, 2, 57, 0
6, 42660, Note_on_c, 2, 57, 125
6, 42660, Note_on_c, 2, 52, 110
6, 42720, Note_on_c, 2, 45, 0
6, 42720, Note_on_c, 2, 45, 97
6, 42810, Note_on_c, 2, 52, 0
6, 42810, Note_on_c, 2, 57, 0
6, 42840, Note_on_c, 2, 57, 125
6, 42840, Note_on_c, 2, 52, 110
6, 42900, Note_on_c, 2, 45, 0
6, 42930, Note_on_c, 2, 45, 89
6, 42960, Note_on_c, 2, 52, 0
6, 42960, Note_on_c, 2, 57, 0
6, 42990, Note_on_c, 2, 57, 125
6, 42990, Note_on_c, 2, 52, 110
6, 43080, Note_on_c, 2, 45, 0
6, 43200, Note_on_c, 2, 45, 89
6, 43229, Note_on_c, 2, 45, 0
6, 43290, Note_on_c, 2, 52, 0
6, 43290, Note_on_c, 2, 57, 0
6, 43312, Control_c, 2, 64, 0
6, 43320, Note_on_c, 2, 48, 127
6, 43320, Note_on_c, 2, 55, 127
6, 43320, Control_c, 2, 64, 127
6, 43440, Note_on_c, 2, 60, 127
6, 43560, Note_on_c, 2, 60, 0
6, 43620, Note_on_c, 2, 55, 0
6, 43620, Note_on_c, 2, 48, 0
6, 43710, Note_on_c, 2, 48, 106
6, 43710, Note_on_c, 2, 55, 86
6, 43739, Note_on_c, 2, 55, 0
6, 43739, Note_on_c, 2, 48, 0
6, 43800, Note_on_c, 2, 60, 127
6, 43800, Note_on_c, 2, 55, 114
6, 43800, Note_on_c, 2, 48, 125
6, 43890, Note_on_c, 2, 48, 0
6, 43890, Note_on_c, 2, 55, 0
6, 43890, Note_on_c, 2, 60, 0
6, 43980, Note_on_c, 2, 55, 114
6, 43980, Note_on_c, 2, 48, 120
6, 43980, Note_on_c, 2, 60, 127
6, 44040, Note_on_c, 2, 60, 0
6, 44070, Note_on_c, 2, 48, 0
6, 44070, Note_on_c, 2, 55, 0
6, 44160, Note_on_c, 2, 60, 122
6, 44160, Note_on_c, 2, 48, 94
6, 44160, Note_on_c, 2, 55, 109
6, 44189, Note_on_c, 2, 55, 0
6, 44189, Note_on_c, 2, 48, 0
6, 44189, Note_on_c, 2, 60, 0
6, 44280, Note_on_c, 2, 50, 127
6, 44280, Note_on_c, 2, 43, 127
6, 44317, Control_c, 2, 64, 0
6, 44400, Note_on_c, 2, 55, 127
6, 44406, Control_c, 2, 64, 127
6, 44700, Note_on_c, 2, 55, 0
6, 44700, Note_on_c, 2, 43, 0
6, 44700, Note_on_c, 2, 50, 0
6, 44760, Note_on_c, 2, 50, 97
6, 44760, Note_on_c, 2, 43, 110
6, 44760, Note_on_c, 2, 55, 127
6, 44880, Note_on_c, 2, 55, 0
6, 44880, Note_on_c, 2, 43, 0
6, 44880, Note_on_c, 2, 50, 0
6, 44940, Note_on_c, 2, 55, 114
6, 44940, Note_on_c, 2, 50, 112
6, 44940, Note_on_c, 2, 43, 110
6, 45030, Note_on_c, 2, 55, 0
6, 45060, Note_on_c, 2, 43, 0
6, 45060, Note_on_c, 2, 50, 0
6, 45120, Note_on_c, 2, 43, 125
6, 45120, Note_on_c, 2, 50, 110
6, 45120, Note_on_c, 2, 55, 127
6, 45180, Note_on_c, 2, 55, 0
6, 45180, Note_on_c, 2, 50, 0
6, 45180, Note_on_c, 2, 43, 0
6, 45202, Control_c, 2, 64, 127
6, 45238, Control_c, 2, 64, 0
6, 45240, Note_on_c, 2, 48, 127
6, 45240, Note_on_c, 2, 55, 127
6, 45240, Control_c, 2, 64, 127
6, 45360, Note_on_c, 2, 60, 127
6, 45480, Note_on_c, 2, 60, 0
6, 45540, Note_on_c, 2, 55, 0
6, 45540, Note_on_c, 2, 48, 0
6, 45630, Note_on_c, 2, 48, 106
6, 45630, Note_on_c, 2, 55, 86
6, 45659, Note_on_c, 2, 55, 0
6, 45659, Note_on_c, 2, 48, 0
6, 45720, Note_on_c, 2, 60, 127
6, 45720, Note_on_c, 2, 55, 114
6, 45720, Note_on_c, 2, 48, 125
6, 45810, Note_on_c, 2, 48, 0
6, 45810, Note_on_c, 2, 55, 0
6, 45810, Note_on_c, 2, 60, 0
6, 45900, Note_on_c, 2, 55, 114
6, 45900, Note_on_c, 2, 48, 120
6, 45900, Note_on_c, 2, 60, 127
6, 45960, Note_on_c, 2, 60, 0
6, 45990, Note_on_c, 2, 48, 0
6, 45990, Note_on_c, 2, 55, 0
6, 46080, Note_on_c, 2, 60, 122
6, 46080, Note_on_c, 2, 48, 94
6, 46080, Note_on_c, 2, 55, 109
6, 46109, Note_on_c, 2, 55, 0
6, 46109, Note_on_c, 2, 48, 0
6, 46109, Note_on_c, 2, 60, 0
6, 46200, Note_on_c, 2, 50, 127
6, 46200, Note_on_c, 2, 43, 127
6, 46237, Control_c, 2, 64, 0
6, 46320, Note_on_c, 2, 55, 127
6, 46326, Control_c, 2, 64, 127
6, 46620, Note_on_c, 2, 55, 0
6, 46620, Note_on_c, 2, 43, 0
6, 46620, Note_on_c, 2, 50, 0
6, 46680, Note_on_c, 2, 50, 97
6, 46680, Note_on_c, 2, 43, 110
6, 46680, Note_on_c, 2, 55, 127
6, 46800, Note_on_c, 2, 55, 0
6, 46800, Note_on_c, 2, 43, 0
6, 46800, Note_on_c, 2, 50, 0
6, 46860, Note_on_c, 2, 55, 114
6, 46860, Note_on_c, 2, 50, 112
6, 46860, Note_on_c, 2, 43, 110
6, 46950, Note_on_c, 2, 55, 0
6, 46980, Note_on_c, 2, 43, 0
6, 46980, Note_on_c, 2, 50, 0
6, 47040, Note_on_c, 2, 43, 125
6, 47040, Note_on_c, 2, 50, 110
6, 47040, Note_on_c, 2, 55, 127
6, 47100, Note_on_c, 2, 55, 0
6, 47100, Note_on_c, 2, 50, 0
6, 47100, Note_on_c, 2, 43, 0
6, 47122, Control_c, 2, 64, 127
6, 47158, Control_c, 2, 64, 0
6, 47160, Note_on_c, 2, 48, 127
6, 47160, Note_on_c, 2, 55, 127
6, 47160, Control_c, 2, 64, 127
6, 47280, Note_on_c, 2, 60, 127
6, 47400, Note_on_c, 2, 60, 0
6, 47460, Note_on_c, 2, 55, 0
6, 47460, Note_on_c, 2, 48, 0
6, 47550, Note_on_c, 2, 48, 106
6, 47550, Note_on_c, 2, 55, 86
6, 47579, Note_on_c, 2, 55, 0
6, 47579, Note_on_c, 2, 48, 0
6, 47640, Note_on_c, 2, 60, 127
6, 47640, Note_on_c, 2, 55, 114
6, 47640, Note_on_c, 2, 48, 125
6, 47730, Note_on_c, 2, 48, 0
6, 47730, Note_on_c, 2, 55, 0
6, 47730, Note_on_c, 2, 60, 0
6, 47820, Note_on_c, 2, 55, 114
6, 47820, Note_on_c, 2, 48, 120
6, 47820, Note_on_c, 2, 60, 127
6, 47880, Note_on_c, 2, 60, 0
6, 47910, Note_on_c, 2, 48, 0
6, 47910, Note_on_c, 2, 55, 0
6, 48000, Note_on_c, 2, 60, 122
6, 48000, Note_on_c, 2, 48, 94
6, 48000, Note_on_c, 2, 55, 109
6, 48029, Note_on_c, 2, 55, 0
6, 48029, Note_on_c, 2, 48, 0
6, 48029, Note_on_c, 2, 60, 0
6, 48120, Note_on_c, 2, 50, 127
6, 48120, Note_on_c, 2, 43, 127
6, 48157, Control_c, 2, 64, 0
6, 48240, Note_on_c, 2, 55, 127
6, 48246, Control_c, 2, 64, 127
6, 48540, Note_on_c, 2, 55, 0
6, 48540, Note_on_c, 2, 43, 0
6, 48540, Note_on_c, 2, 50, 0
6, 48600, Note_on_c, 2, 50, 97
6, 48600, Note_on_c, 2, 43, 110
6, 48600, Note_on_c, 2, 55, 127
6, 48720, Note_on_c, 2, 55, 0
6, 48720, Note_on_c, 2, 43, 0
6, 48720, Note_on_c, 2, 50, 0
6, 48780, Note_on_c, 2, 55, 114
6, 48780, Note_on_c, 2, 50, 112
6, 48780, Note_on_c, 2, 43, 110
6, 48870, Note_on_c, 2, 55, 0
6, 48900, Note_on_c, 2, 43, 0
6, 48900, Note_on_c, 2, 50, 0
6, 48960, Note_on_c, 2, 43, 125
6, 48960, Note_on_c, 2, 50, 110
6, 48960, Note_on_c, 2, 55, 127
6, 49020, Note_on_c, 2, 55, 0
6, 49020, Note_on_c, 2, 50, 0
6, 49020, Note_on_c, 2, 43, 0
6, 49042, Control_c, 2, 64, 127
6, 49078, Control_c, 2, 64, 0
6, 49080, Control_c, 2, 64, 127
6, 49081, Note_on_c, 2, 48, 127
6, 49081, Note_on_c, 2, 53, 127
6, 49081, Note_on_c, 2, 41, 127
6, 49180, Note_on_c, 2, 53, 0
6, 49187, Note_on_c, 2, 41, 0
6, 49189, Note_on_c, 2, 48, 0
6, 49254, Note_on_c, 2, 53, 125
6, 49261, Note_on_c, 2, 48, 122
6, 49263, Note_on_c, 2, 41, 120
6, 49308, Note_on_c, 2, 53, 0
6, 49326, Note_on_c, 2, 41, 0
6, 49329, Note_on_c, 2, 48, 0
6, 49430, Note_on_c, 2, 53, 127
6, 49437, Note_on_c, 2, 41, 112
6, 49437, Note_on_c, 2, 48, 110
6, 49489, Note_on_c, 2, 53, 0
6, 49512, Note_on_c, 2, 41, 0
6, 49516, Note_on_c, 2, 48, 0
6, 49616, Note_on_c, 2, 53, 125
6, 49619, Note_on_c, 2, 41, 114
6, 49620, Note_on_c, 2, 48, 110
6, 49661, Note_on_c, 2, 53, 0
6, 49673, Note_on_c, 2, 41, 0
6, 49677, Note_on_c, 2, 48, 0
6, 49741, Note_on_c, 2, 53, 125
6, 49744, Note_on_c, 2, 48, 125
6, 49744, Note_on_c, 2, 41, 110
6, 49773, Note_on_c, 2, 41, 0
6, 49773, Note_on_c, 2, 53, 0
6, 49777, Note_on_c, 2, 48, 0
6, 49799, Note_on_c, 2, 53, 114
6, 49814, Note_on_c, 2, 41, 106
6, 49815, Note_on_c, 2, 48, 102
6, 49833, Note_on_c, 2, 53, 0
6, 49862, Note_on_c, 2, 53, 106
6, 49874, Note_on_c, 2, 48, 0
6, 49875, Note_on_c, 2, 41, 0
6, 49894, Note_on_c, 2, 53, 0
6, 49908, Note_on_c, 2, 41, 112
6, 49910, Note_on_c, 2, 48, 120
6, 49916, Note_on_c, 2, 53, 97
6, 49951, Note_on_c, 2, 53, 0
6, 49962, Note_on_c, 2, 41, 0
6, 49963, Note_on_c, 2, 48, 0
6, 49978, Note_on_c, 2, 53, 106
6, 49994, Note_on_c, 2, 48, 61
6, 49994, Note_on_c, 2, 41, 75
6, 50017, Note_on_c, 2, 53, 0
6, 50021, Note_on_c, 2, 41, 0
6, 50023, Note_on_c, 2, 48, 0
6, 50050, Note_on_c, 2, 53, 127
6, 50058, Note_on_c, 2, 48, 122
6, 50059, Note_on_c, 2, 41, 127
6, 50141, Note_on_c, 2, 41, 0
6, 50144, Note_on_c, 2, 53, 0
6, 50146, Note_on_c, 2, 48, 0
6, 50210, Note_on_c, 2, 53, 114
6, 50214, Note_on_c, 2, 48, 106
6, 50217, Note_on_c, 2, 41, 114
6, 50298, Note_on_c, 2, 53, 0
6, 50308, Note_on_c, 2, 41, 0
6, 50312, Note_on_c, 2, 48, 0
6, 50391, Note_on_c, 2, 53, 114
6, 50394, Note_on_c, 2, 48, 114
6, 50396, Note_on_c, 2, 41, 110
6, 50477, Note_on_c, 2, 53, 0
6, 50493, Note_on_c, 2, 41, 0
6, 50493, Note_on_c, 2, 48, 0
6, 50569, Note_on_c, 2, 53, 114
6, 50572, Note_on_c, 2, 41, 125
6, 50574, Note_on_c, 2, 48, 102
6, 50626, Note_on_c, 2, 53, 0
6, 50641, Note_on_c, 2, 41, 0
6, 50646, Note_on_c, 2, 48, 0
6, 50704, Note_on_c, 2, 53, 125
6, 50706, Note_on_c, 2, 48, 110
6, 50708, Note_on_c, 2, 41, 114
6, 50737, Note_on_c, 2, 53, 0
6, 50738, Note_on_c, 2, 41, 0
6, 50741, Note_on_c, 2, 48, 0
6, 50763, Note_on_c, 2, 53, 106
6, 50772, Note_on_c, 2, 41, 112
6, 50772, Note_on_c, 2, 48, 112
6, 50798, Note_on_c, 2, 53, 0
6, 50822, Note_on_c, 2, 41, 0
6, 50823, Note_on_c, 2, 48, 0
6, 50830, Note_on_c, 2, 53, 106
6, 50845, Note_on_c, 2, 48, 66
6, 50847, Note_on_c, 2, 41, 81
6, 50864, Note_on_c, 2, 53, 0
6, 50880, Note_on_c, 2, 41, 0
6, 50888, Note_on_c, 2, 53, 106
6, 50922, Note_on_c, 2, 41, 112
6, 50927, Note_on_c, 2, 53, 0
6, 50936, Note_on_c, 2, 53, 83
6, 50947, Control_c, 2, 64, 127
6, 50962, Note_on_c, 2, 41, 0
6, 50962, Note_on_c, 2, 48, 0
6, 50972, Note_on_c, 2, 53, 0
6, 50981, Control_c, 2, 64, 0
6, 51000, Note_on_c, 2, 43, 127
6, 51000, Note_on_c, 2, 55, 127
6, 51000, Note_on_c, 2, 50, 127
6, 51009, Control_c, 2, 64, 127
6, 51270, Note_on_c, 2, 50, 0
6, 51270, Note_on_c, 2, 55, 0
6, 51300, Note_on_c, 2, 55, 106
6, 51300, Note_on_c, 2, 50, 102
6, 51329, Note_on_c, 2, 50, 0
6, 51329, Note_on_c, 2, 55, 0
6, 51360, Note_on_c, 2, 55, 77
6, 51360, Note_on_c, 2, 50, 81
6, 51389, Note_on_c, 2, 50, 0
6, 51389, Note_on_c, 2, 55, 0
6, 51390, Note_on_c, 2, 43, 0
6, 51420, Note_on_c, 2, 38, 127
6, 51420, Note_on_c, 2, 57, 127
6, 51420, Control_c, 2, 64, 0
6, 51420, Note_on_c, 2, 50, 127
6, 51480, Control_c, 2, 64, 127
6, 51750, Note_on_c, 2, 50, 0
6, 51750, Note_on_c, 2, 57, 0
6, 51780, Note_on_c, 2, 57, 112
6, 51780, Note_on_c, 2, 50, 110
6, 51809, Note_on_c, 2, 50, 0
6, 51809, Note_on_c, 2, 57, 0
6, 51840, Note_on_c, 2, 57, 114
6, 51840, Note_on_c, 2, 50, 125
6, 51869, Note_on_c, 2, 50, 0
6, 51869, Note_on_c, 2, 57, 0
6, 51870, Note_on_c, 2, 38, 0
6, 51891, Control_c, 2, 64, 0
6, 51900, Note_on_c, 2, 45, 125
6, 51900, Note_on_c, 2, 52, 127
6, 51900, Note_on_c, 2, 57, 114
6, 51954, Control_c, 2, 64, 127
6, 52050, Note_on_c, 2, 57, 0
6, 52050, Note_on_c, 2, 52, 0
6, 52080, Note_on_c, 2, 45, 0
6, 52080, Note_on_c, 2, 57, 127
6, 52080, Note_on_c, 2, 52, 120
6, 52080, Note_on_c, 2, 45, 72
6, 52170, Note_on_c, 2, 45, 0
6, 52200, Note_on_c, 2, 45, 107
6, 52230, Note_on_c, 2, 52, 0
6, 52230, Note_on_c, 2, 57, 0
6, 52260, Note_on_c, 2, 57, 125
6, 52260, Note_on_c, 2, 52, 110
6, 52290, Note_on_c, 2, 45, 0
6, 52320, Note_on_c, 2, 45, 97
6, 52410, Note_on_c, 2, 52, 0
6, 52410, Note_on_c, 2, 57, 0
6, 52440, Note_on_c, 2, 57, 122
6, 52440, Note_on_c, 2, 52, 103
6, 52500, Note_on_c, 2, 45, 0
6, 52560, Note_on_c, 2, 45, 106
6, 52589, Note_on_c, 2, 45, 0
6, 52590, Note_on_c, 2, 52, 0
6, 52590, Note_on_c, 2, 57, 0
6, 52600, Control_c, 2, 64, 0
6, 52620, Note_on_c, 2, 50, 122
6, 52620, Note_on_c, 2, 59, 112
6, 52620, Note_on_c, 2, 47, 106
6, 52658, Control_c, 2, 64, 127
6, 52710, Note_on_c, 2, 59, 0
6, 52710, Note_on_c, 2, 50, 0
6, 52740, Note_on_c, 2, 59, 114
6, 52740, Note_on_c, 2, 50, 110
6, 52770, Note_on_c, 2, 47, 0
6, 52800, Note_on_c, 2, 47, 106
6, 52890, Note_on_c, 2, 47, 0
6, 52911, Control_c, 2, 64, 0
6, 52920, Note_on_c, 2, 50, 0
6, 52920, Note_on_c, 2, 59, 0
6, 52920, Note_on_c, 2, 50, 122
6, 52920, Note_on_c, 2, 55, 127
6, 52920, Note_on_c, 2, 43, 127
6, 52983, Control_c, 2, 64, 127
6, 53190, Note_on_c, 2, 55, 0
6, 53190, Note_on_c, 2, 50, 0
6, 53220, Note_on_c, 2, 55, 112
6, 53220, Note_on_c, 2, 50, 103
6, 53249, Note_on_c, 2, 50, 0
6, 53249, Note_on_c, 2, 55, 0
6, 53250, Note_on_c, 2, 55, 97
6, 53250, Note_on_c, 2, 50, 103
6, 53280, Note_on_c, 2, 43, 0
6, 53310, Note_on_c, 2, 50, 0
6, 53310, Note_on_c, 2, 55, 0
6, 53324, Control_c, 2, 64, 0
6, 53340, Note_on_c, 2, 38, 125
6, 53340, Note_on_c, 2, 57, 127
6, 53340, Note_on_c, 2, 50, 125
6, 53378, Control_c, 2, 64, 127
6, 53670, Note_on_c, 2, 50, 0
6, 53670, Note_on_c, 2, 57, 0
6, 53700, Note_on_c, 2, 57, 103
6, 53700, Note_on_c, 2, 50, 103
6, 53729, Note_on_c, 2, 50, 0
6, 53729, Note_on_c, 2, 57, 0
6, 53760, Note_on_c, 2, 57, 81
6, 53760, Note_on_c, 2, 50, 102
6, 53789, Note_on_c, 2, 50, 0
6, 53789, Note_on_c, 2, 57, 0
6, 53790, Note_on_c, 2, 38, 0
6, 53808, Control_c, 2, 64, 0
6, 53820, Note_on_c, 2, 57, 114
6, 53820, Note_on_c, 2, 45, 120
6, 53820, Note_on_c, 2, 52, 120
6, 53861, Control_c, 2, 64, 127
6, 53970, Note_on_c, 2, 52, 0
6, 53970, Note_on_c, 2, 57, 0
6, 54000, Note_on_c, 2, 57, 125
6, 54000, Note_on_c, 2, 52, 110
6, 54090, Note_on_c, 2, 45, 0
6, 54150, Note_on_c, 2, 52, 0
6, 54150, Note_on_c, 2, 57, 0
6, 54150, Note_on_c, 2, 45, 89
6, 54180, Note_on_c, 2, 57, 125
6, 54180, Note_on_c, 2, 52, 103
6, 54210, Note_on_c, 2, 45, 0
6, 54240, Note_on_c, 2, 45, 89
6, 54300, Note_on_c, 2, 52, 0
6, 54300, Note_on_c, 2, 57, 0
6, 54360, Note_on_c, 2, 57, 125
6, 54360, Note_on_c, 2, 52, 100
6, 54390, Note_on_c, 2, 45, 0
6, 54480, Note_on_c, 2, 45, 97
6, 54510, Note_on_c, 2, 52, 0
6, 54510, Note_on_c, 2, 57, 0
6, 54540, Note_on_c, 2, 57, 127
6, 54540, Note_on_c, 2, 52, 110
6, 54570, Note_on_c, 2, 45, 0
6, 54600, Note_on_c, 2, 45, 106
6, 54630, Note_on_c, 2, 52, 0
6, 54630, Note_on_c, 2, 57, 0
6, 54660, Note_on_c, 2, 57, 112
6, 54660, Note_on_c, 2, 52, 103
6, 54690, Note_on_c, 2, 45, 0
6, 54720, Note_on_c, 2, 45, 106
6, 54780, Note_on_c, 2, 45, 0
6, 54810, Note_on_c, 2, 52, 0
6, 54810, Note_on_c, 2, 57, 0
6, 54810, Control_c, 2, 64, 0
6, 54840, Note_on_c, 2, 43, 125
6, 54840, Note_on_c, 2, 50, 122
6, 54840, Note_on_c, 2, 55, 127
6, 54863, Control_c, 2, 64, 127
6, 55110, Note_on_c, 2, 55, 0
6, 55110, Note_on_c, 2, 50, 0
6, 55140, Note_on_c, 2, 55, 114
6, 55140, Note_on_c, 2, 50, 106
6, 55169, Note_on_c, 2, 50, 0
6, 55200, Note_on_c, 2, 50, 84
6, 55229, Note_on_c, 2, 50, 0
6, 55230, Note_on_c, 2, 55, 0
6, 55230, Note_on_c, 2, 43, 0
6, 55260, Note_on_c, 2, 38, 125
6, 55260, Note_on_c, 2, 57, 127
6, 55260, Note_on_c, 2, 50, 122
6, 55265, Control_c, 2, 64, 0
6, 55315, Control_c, 2, 64, 127
6, 55620, Note_on_c, 2, 50, 0
6, 55620, Note_on_c, 2, 57, 0
6, 55620, Note_on_c, 2, 57, 97
6, 55620, Note_on_c, 2, 50, 110
6, 55649, Note_on_c, 2, 50, 0
6, 55680, Note_on_c, 2, 57, 0
6, 55680, Note_on_c, 2, 57, 71
6, 55680, Note_on_c, 2, 50, 102
6, 55709, Note_on_c, 2, 50, 0
6, 55710, Note_on_c, 2, 38, 0
6, 55740, Note_on_c, 2, 57, 0
6, 55740, Note_on_c, 2, 57, 95
6, 55740, Note_on_c, 2, 45, 127
6, 55740, Note_on_c, 2, 52, 109
6, 55742, Control_c, 2, 64, 0
6, 55786, Control_c, 2, 64, 127
6, 55890, Note_on_c, 2, 52, 0
6, 55890, Note_on_c, 2, 57, 0
6, 55920, Note_on_c, 2, 57, 122
6, 55920, Note_on_c, 2, 52, 110
6, 56010, Note_on_c, 2, 45, 0
6, 56040, Note_on_c, 2, 45, 97
6, 56070, Note_on_c, 2, 52, 0
6, 56070, Note_on_c, 2, 57, 0
6, 56100, Note_on_c, 2, 57, 125
6, 56100, Note_on_c, 2, 52, 110
6, 56160, Note_on_c, 2, 45, 0
6, 56160, Note_on_c, 2, 45, 97
6, 56250, Note_on_c, 2, 52, 0
6, 56250, Note_on_c, 2, 57, 0
6, 56280, Note_on_c, 2, 57, 125
6, 56280, Note_on_c, 2, 52, 110
6, 56340, Note_on_c, 2, 45, 0
6, 56370, Note_on_c, 2, 45, 89
6, 56400, Note_on_c, 2, 52, 0
6, 56400, Note_on_c, 2, 57, 0
6, 56430, Note_on_c, 2, 57, 125
6, 56430, Note_on_c, 2, 52, 110
6, 56520, Note_on_c, 2, 45, 0
6, 56640, Note_on_c, 2, 45, 89
6, 56669, Note_on_c, 2, 45, 0
6, 56730, Note_on_c, 2, 52, 0
6, 56730, Note_on_c, 2, 57, 0
6, 56752, Control_c, 2, 64, 0
6, 56760, Note_on_c, 2, 60, 127
6, 56760, Note_on_c, 2, 48, 127
6, 56760, Note_on_c, 2, 55, 127
6, 56790, Control_c, 2, 64, 127
6, 56910, Note_on_c, 2, 55, 0
6, 56910, Note_on_c, 2, 48, 0
6, 56910, Note_on_c, 2, 60, 0
6, 56940, Note_on_c, 2, 55, 103
6, 56940, Note_on_c, 2, 60, 112
6, 56940, Note_on_c, 2, 48, 97
6, 57090, Note_on_c, 2, 48, 0
6, 57090, Note_on_c, 2, 60, 0
6, 57090, Note_on_c, 2, 55, 0
6, 57120, Note_on_c, 2, 55, 122
6, 57120, Note_on_c, 2, 60, 120
6, 57120, Note_on_c, 2, 48, 106
6, 57270, Note_on_c, 2, 48, 0
6, 57270, Note_on_c, 2, 60, 0
6, 57270, Note_on_c, 2, 55, 0
6, 57300, Note_on_c, 2, 60, 112
6, 57300, Note_on_c, 2, 55, 110
6, 57300, Note_on_c, 2, 48, 81
6, 57420, Note_on_c, 2, 55, 0
6, 57450, Note_on_c, 2, 48, 0
6, 57450, Note_on_c, 2, 60, 0
6, 57480, Note_on_c, 2, 55, 114
6, 57480, Note_on_c, 2, 60, 120
6, 57480, Note_on_c, 2, 48, 102
6, 57570, Note_on_c, 2, 48, 0
6, 57570, Note_on_c, 2, 60, 0
6, 57570, Note_on_c, 2, 55, 0
6, 57600, Note_on_c, 2, 48, 95
6, 57600, Note_on_c, 2, 60, 86
6, 57600, Note_on_c, 2, 55, 89
6, 57629, Note_on_c, 2, 55, 0
6, 57629, Note_on_c, 2, 60, 0
6, 57629, Note_on_c, 2, 48, 0
6, 57660, Note_on_c, 2, 55, 97
6, 57660, Note_on_c, 2, 60, 94
6, 57689, Note_on_c, 2, 55, 0
6, 57690, Note_on_c, 2, 48, 55
6, 57719, Note_on_c, 2, 48, 0
6, 57720, Note_on_c, 2, 60, 0
6, 57720, Note_on_c, 2, 60, 97
6, 57720, Note_on_c, 2, 55, 102
6, 57720, Note_on_c, 2, 48, 106
6, 57810, Note_on_c, 2, 55, 0
6, 57810, Note_on_c, 2, 60, 0
6, 57840, Note_on_c, 2, 55, 81
6, 57840, Note_on_c, 2, 60, 95
6, 57869, Note_on_c, 2, 60, 0
6, 57869, Note_on_c, 2, 55, 0
6, 57870, Note_on_c, 2, 48, 0
6, 57900, Note_on_c, 2, 55, 112
6, 57900, Note_on_c, 2, 60, 110
6, 57900, Note_on_c, 2, 48, 79
6, 57990, Note_on_c, 2, 60, 0
6, 57990, Note_on_c, 2, 55, 0
6, 58020, Note_on_c, 2, 48, 0
6, 58020, Note_on_c, 2, 60, 71
6, 58020, Note_on_c, 2, 55, 95
6, 58049, Note_on_c, 2, 55, 0
6, 58049, Note_on_c, 2, 60, 0
6, 58050, Note_on_c, 2, 48, 50
6, 58079, Note_on_c, 2, 48, 0
6, 58080, Note_on_c, 2, 55, 122
6, 58080, Note_on_c, 2, 60, 122
6, 58080, Note_on_c, 2, 48, 53
6, 58170, Note_on_c, 2, 48, 0
6, 58170, Note_on_c, 2, 60, 0
6, 58170, Note_on_c, 2, 55, 0
6, 58260, Note_on_c, 2, 55, 112
6, 58260, Note_on_c, 2, 60, 118
6, 58290, Note_on_c, 2, 48, 95
6, 58350, Note_on_c, 2, 48, 0
6, 58350, Note_on_c, 2, 60, 0
6, 58350, Note_on_c, 2, 55, 0
6, 58380, Note_on_c, 2, 55, 97
6, 58380, Note_on_c, 2, 60, 94
6, 58380, Note_on_c, 2, 48, 89
6, 58409, Note_on_c, 2, 60, 0
6, 58409, Note_on_c, 2, 55, 0
6, 58440, Note_on_c, 2, 48, 0
6, 58440, Note_on_c, 2, 55, 97
6, 58440, Note_on_c, 2, 60, 102
6, 58469, Note_on_c, 2, 55, 0
6, 58470, Note_on_c, 2, 48, 61
6, 58500, Note_on_c, 2, 60, 0
6, 58500, Note_on_c, 2, 55, 89
6, 58500, Note_on_c, 2, 60, 80
6, 58529, Note_on_c, 2, 60, 0
6, 58529, Note_on_c, 2, 55, 0
6, 58530, Note_on_c, 2, 48, 0
6, 58560, Note_on_c, 2, 48, 114
6, 58560, Note_on_c, 2, 55, 92
6, 58560, Note_on_c, 2, 60, 100
6, 58611, Control_c, 2, 64, 127
6, 58620, Note_on_c, 2, 60, 0
6, 58620, Note_on_c, 2, 55, 0
6, 58620, Note_on_c, 2, 48, 0
6, 58650, Control_c, 2, 64, 0
6, 58680, Note_on_c, 2, 43, 127
6, 58680, Note_on_c, 2, 59, 109
6, 58680, Note_on_c, 2, 55, 117
6, 58680, Note_on_c, 2, 50, 120
6, 58689, Control_c, 2, 64, 127
6, 59460, Note_on_c, 2, 43, 0
6, 59460, Note_on_c, 2, 43, 125
6, 59490, Note_on_c, 2, 59, 0
6, 59490, Note_on_c, 2, 50, 0
6, 59490, Note_on_c, 2, 55, 0
6, 59520, Note_on_c, 2, 59, 89
6, 59520, Note_on_c, 2, 50, 110
6, 59520, Note_on_c, 2, 55, 109
6, 59580, Note_on_c, 2, 43, 0
6, 59610, Note_on_c, 2, 59, 0
6, 59610, Note_on_c, 2, 50, 0
6, 59610, Note_on_c, 2, 55, 0
6, 59640, Note_on_c, 2, 48, 125
6, 59640, Note_on_c, 2, 55, 125
6, 59640, Note_on_c, 2, 59, 100
6, 59640, Note_on_c, 2, 52, 127
6, 59649, Control_c, 2, 64, 0
6, 60090, Note_on_c, 2, 48, 0
6, 60120, Note_on_c, 2, 55, 0
6, 60120, Note_on_c, 2, 52, 0
6, 60150, Note_on_c, 2, 59, 0
6, 60600, Note_on_c, 2, 43, 127
6, 60600, Note_on_c, 2, 59, 109
6, 60600, Note_on_c, 2, 55, 117
6, 60600, Note_on_c, 2, 50, 120
6, 60609, Control_c, 2, 64, 127
6, 61380, Note_on_c, 2, 43, 0
6, 61380, Note_on_c, 2, 43, 125
6, 61410, Note_on_c, 2, 59, 0
6, 61410, Note_on_c, 2, 50, 0
6, 61410, Note_on_c, 2, 55, 0
6, 61440, Note_on_c, 2, 59, 89
6, 61440, Note_on_c, 2, 50, 110
6, 61440, Note_on_c, 2, 55, 109
6, 61500, Note_on_c, 2, 43, 0
6, 61530, Note_on_c, 2, 59, 0
6, 61530, Note_on_c, 2, 50, 0
6, 61530, Note_on_c, 2, 55, 0
6, 61560, Note_on_c, 2, 48, 125
6, 61560, Note_on_c, 2, 55, 125
6, 61560, Note_on_c, 2, 59, 100
6, 61560, Note_on_c, 2, 52, 127
6, 61569, Control_c, 2, 64, 0
6, 62010, Note_on_c, 2, 48, 0
6, 62040, Note_on_c, 2, 55, 0
6, 62040, Note_on_c, 2, 52, 0
6, 62040, Note_on_c, 2, 48, 127
6, 62070, Note_on_c, 2, 59, 0
6, 62160, Note_on_c, 2, 52, 114
6, 62220, Note_on_c, 2, 52, 0
6, 62220, Note_on_c, 2, 59, 106
6, 62340, Note_on_c, 2, 59, 0
6, 62340, Note_on_c, 2, 55, 106
6, 62400, Note_on_c, 2, 55, 0
6, 62400, Note_on_c, 2, 48, 0
6, 62400, Note_on_c, 2, 50, 120
6, 62520, Note_on_c, 2, 50, 0
6, 62520, Note_on_c, 2, 58, 127
6, 62520, Note_on_c, 2, 53, 120
6, 62520, Note_on_c, 2, 46, 127
6, 62539, Control_c, 2, 64, 127
6, 62580, Note_on_c, 2, 46, 0
6, 62580, Note_on_c, 2, 53, 0
6, 62580, Note_on_c, 2, 58, 0
6, 62700, Note_on_c, 2, 58, 127
6, 62700, Note_on_c, 2, 53, 120
6, 62700, Note_on_c, 2, 46, 114
6, 62729, Note_on_c, 2, 46, 0
6, 62729, Note_on_c, 2, 53, 0
6, 62729, Note_on_c, 2, 58, 0
6, 62880, Note_on_c, 2, 58, 127
6, 62880, Note_on_c, 2, 53, 102
6, 62880, Note_on_c, 2, 46, 125
6, 62909, Note_on_c, 2, 53, 0
6, 62909, Note_on_c, 2, 58, 0
6, 62940, Note_on_c, 2, 46, 0
6, 63060, Note_on_c, 2, 58, 127
6, 63060, Note_on_c, 2, 53, 92
6, 63060, Note_on_c, 2, 46, 114
6, 63089, Note_on_c, 2, 46, 0
6, 63089, Note_on_c, 2, 53, 0
6, 63089, Note_on_c, 2, 58, 0
6, 63180, Note_on_c, 2, 58, 114
6, 63180, Note_on_c, 2, 53, 94
6, 63180, Note_on_c, 2, 46, 114
6, 63209, Note_on_c, 2, 46, 0
6, 63209, Note_on_c, 2, 53, 0
6, 63209, Note_on_c, 2, 58, 0
6, 63240, Note_on_c, 2, 58, 114
6, 63240, Note_on_c, 2, 53, 94
6, 63240, Note_on_c, 2, 46, 83
6, 63269, Note_on_c, 2, 53, 0
6, 63269, Note_on_c, 2, 58, 0
6, 63300, Note_on_c, 2, 58, 114
6, 63300, Note_on_c, 2, 53, 80
6, 63329, Note_on_c, 2, 53, 0
6, 63329, Note_on_c, 2, 58, 0
6, 63330, Note_on_c, 2, 46, 0
6, 63357, Control_c, 2, 64, 127
6, 63360, Note_on_c, 2, 46, 61
6, 63360, Note_on_c, 2, 58, 97
6, 63360, Note_on_c, 2, 53, 65
6, 63420, Note_on_c, 2, 46, 0
6, 63450, Note_on_c, 2, 53, 0
6, 63450, Note_on_c, 2, 58, 0
6, 63480, Note_on_c, 2, 57, 127
6, 63480, Note_on_c, 2, 52, 122
6, 63480, Note_on_c, 2, 45, 112
6, 63495, Control_c, 2, 64, 0
6, 63518, Control_c, 2, 64, 0
6, 63556, Control_c, 2, 64, 127
6, 63600, Note_on_c, 2, 45, 0
6, 63600, Note_on_c, 2, 52, 0
6, 63600, Note_on_c, 2, 57, 0
6, 63660, Note_on_c, 2, 57, 122
6, 63660, Note_on_c, 2, 52, 127
6, 63660, Note_on_c, 2, 45, 97
6, 63720, Note_on_c, 2, 45, 0
6, 63720, Note_on_c, 2, 52, 0
6, 63720, Note_on_c, 2, 57, 0
6, 63840, Note_on_c, 2, 52, 112
6, 63840, Note_on_c, 2, 57, 109
6, 63840, Note_on_c, 2, 45, 100
6, 63869, Note_on_c, 2, 45, 0
6, 63869, Note_on_c, 2, 57, 0
6, 63869, Note_on_c, 2, 52, 0
6, 64020, Note_on_c, 2, 57, 103
6, 64020, Note_on_c, 2, 52, 94
6, 64020, Note_on_c, 2, 45, 98
6, 64049, Note_on_c, 2, 45, 0
6, 64049, Note_on_c, 2, 52, 0
6, 64049, Note_on_c, 2, 57, 0
6, 64140, Note_on_c, 2, 57, 112
6, 64140, Note_on_c, 2, 45, 100
6, 64140, Note_on_c, 2, 52, 107
6, 64169, Note_on_c, 2, 52, 0
6, 64169, Note_on_c, 2, 45, 0
6, 64169, Note_on_c, 2, 57, 0
6, 64200, Note_on_c, 2, 52, 83
6, 64200, Note_on_c, 2, 57, 89
6, 64200, Note_on_c, 2, 45, 97
6, 64229, Note_on_c, 2, 57, 0
6, 64229, Note_on_c, 2, 52, 0
6, 64260, Note_on_c, 2, 45, 0
6, 64260, Note_on_c, 2, 57, 89
6, 64260, Note_on_c, 2, 52, 86
6, 64289, Note_on_c, 2, 52, 0
6, 64289, Note_on_c, 2, 57, 0
6, 64290, Note_on_c, 2, 45, 83
6, 64319, Note_on_c, 2, 45, 0
6, 64320, Note_on_c, 2, 57, 97
6, 64320, Note_on_c, 2, 52, 94
6, 64349, Note_on_c, 2, 52, 0
6, 64349, Note_on_c, 2, 57, 0
6, 64350, Note_on_c, 2, 45, 97
6, 64379, Note_on_c, 2, 45, 0
6, 64394, Control_c, 2, 64, 127
6, 64404, Control_c, 2, 64, 127
6, 64430, Control_c, 2, 64, 0
6, 64440, Note_on_c, 2, 43, 127
6, 64440, Note_on_c, 2, 55, 127
6, 64440, Note_on_c, 2, 50, 127
6, 64449, Control_c, 2, 64, 127
6, 64710, Note_on_c, 2, 50, 0
6, 64710, Note_on_c, 2, 55, 0
6, 64740, Note_on_c, 2, 55, 106
6, 64740, Note_on_c, 2, 50, 102
6, 64769, Note_on_c, 2, 50, 0
6, 64769, Note_on_c, 2, 55, 0
6, 64800, Note_on_c, 2, 55, 77
6, 64800, Note_on_c, 2, 50, 81
6, 64829, Note_on_c, 2, 50, 0
6, 64829, Note_on_c, 2, 55, 0
6, 64830, Note_on_c, 2, 43, 0
6, 64860, Note_on_c, 2, 38, 127
6, 64860, Note_on_c, 2, 57, 127
6, 64860, Control_c, 2, 64, 0
6, 64860, Note_on_c, 2, 50, 127
6, 64920, Control_c, 2, 64, 127
6, 65190, Note_on_c, 2, 50, 0
6, 65190, Note_on_c, 2, 57, 0
6, 65220, Note_on_c, 2, 57, 112
6, 65220, Note_on_c, 2, 50, 110
6, 65249, Note_on_c, 2, 50, 0
6, 65249, Note_on_c, 2, 57, 0
6, 65280, Note_on_c, 2, 57, 114
6, 65280, Note_on_c, 2, 50, 125
6, 65309, Note_on_c, 2, 50, 0
6, 65309, Note_on_c, 2, 57, 0
6, 65310, Note_on_c, 2, 38, 0
6, 65331, Control_c, 2, 64, 0
6, 65340, Note_on_c, 2, 45, 125
6, 65340, Note_on_c, 2, 52, 127
6, 65340, Note_on_c, 2, 57, 114
6, 65394, Control_c, 2, 64, 127
6, 65490, Note_on_c, 2, 57, 0
6, 65490, Note_on_c, 2, 52, 0
6, 65520, Note_on_c, 2, 45, 0
6, 65520, Note_on_c, 2, 57, 127
6, 65520, Note_on_c, 2, 52, 120
6, 65520, Note_on_c, 2, 45, 72
6, 65610, Note_on_c, 2, 45, 0
6, 65640, Note_on_c, 2, 45, 107
6, 65670, Note_on_c, 2, 52, 0
6, 65670, Note_on_c, 2, 57, 0
6, 65700, Note_on_c, 2, 57, 125
6, 65700, Note_on_c, 2, 52, 110
6, 65730, Note_on_c, 2, 45, 0
6, 65760, Note_on_c, 2, 45, 97
6, 65850, Note_on_c, 2, 52, 0
6, 65850, Note_on_c, 2, 57, 0
6, 65880, Note_on_c, 2, 57, 122
6, 65880, Note_on_c, 2, 52, 103
6, 65940, Note_on_c, 2, 45, 0
6, 66000, Note_on_c, 2, 45, 106
6, 66029, Note_on_c, 2, 45, 0
6, 66030, Note_on_c, 2, 52, 0
6, 66030, Note_on_c, 2, 57, 0
6, 66040, Control_c, 2, 64, 0
6, 66060, Note_on_c, 2, 50, 122
6, 66060, Note_on_c, 2, 59, 112
6, 66060, Note_on_c, 2, 47, 106
6, 66098, Control_c, 2, 64, 127
6, 66150, Note_on_c, 2, 59, 0
6, 66150, Note_on_c, 2, 50, 0
6, 66180, Note_on_c, 2, 59, 114
6, 66180, Note_on_c, 2, 50, 110
6, 66210, Note_on_c, 2, 47, 0
6, 66240, Note_on_c, 2, 47, 106
6, 66330, Note_on_c, 2, 47, 0
6, 66351, Control_c, 2, 64, 0
6, 66360, Note_on_c, 2, 50, 0
6, 66360, Note_on_c, 2, 59, 0
6, 66360, Note_on_c, 2, 50, 122
6, 66360, Note_on_c, 2, 55, 127
6, 66360, Note_on_c, 2, 43, 127
6, 66423, Control_c, 2, 64, 127
6, 66630, Note_on_c, 2, 55, 0
6, 66630, Note_on_c, 2, 50, 0
6, 66660, Note_on_c, 2, 55, 112
6, 66660, Note_on_c, 2, 50, 103
6, 66689, Note_on_c, 2, 50, 0
6, 66689, Note_on_c, 2, 55, 0
6, 66690, Note_on_c, 2, 55, 97
6, 66690, Note_on_c, 2, 50, 103
6, 66720, Note_on_c, 2, 43, 0
6, 66750, Note_on_c, 2, 50, 0
6, 66750, Note_on_c, 2, 55, 0
6, 66764, Control_c, 2, 64, 0
6, 66780, Note_on_c, 2, 38, 125
6, 66780, Note_on_c, 2, 57, 127
6, 66780, Note_on_c, 2, 50, 125
6, 66818, Control_c, 2, 64, 127
6, 67110, Note_on_c, 2, 50, 0
6, 67110, Note_on_c, 2, 57, 0
6, 67140, Note_on_c, 2, 57, 103
6, 67140, Note_on_c, 2, 50, 103
6, 67169, Note_on_c, 2, 50, 0
6, 67169, Note_on_c, 2, 57, 0
6, 67200, Note_on_c, 2, 57, 81
6, 67200, Note_on_c, 2, 50, 102
6, 67229, Note_on_c, 2, 50, 0
6, 67229, Note_on_c, 2, 57, 0
6, 67230, Note_on_c, 2, 38, 0
6, 67248, Control_c, 2, 64, 0
6, 67260, Note_on_c, 2, 57, 114
6, 67260, Note_on_c, 2, 45, 120
6, 67260, Note_on_c, 2, 52, 120
6, 67301, Control_c, 2, 64, 127
6, 67410, Note_on_c, 2, 52, 0
6, 67410, Note_on_c, 2, 57, 0
6, 67440, Note_on_c, 2, 57, 125
6, 67440, Note_on_c, 2, 52, 110
6, 67530, Note_on_c, 2, 45, 0
6, 67590, Note_on_c, 2, 52, 0
6, 67590, Note_on_c, 2, 57, 0
6, 67590, Note_on_c, 2, 45, 89
6, 67620, Note_on_c, 2, 57, 125
6, 67620, Note_on_c, 2, 52, 103
6, 67650, Note_on_c, 2, 45, 0
6, 67680, Note_on_c, 2, 45, 89
6, 67740, Note_on_c, 2, 52, 0
6, 67740, Note_on_c, 2, 57, 0
6, 67800, Note_on_c, 2, 57, 125
6, 67800, Note_on_c, 2, 52, 100
6, 67830, Note_on_c, 2, 45, 0
6, 67920, Note_on_c, 2, 45, 97
6, 67950, Note_on_c, 2, 52, 0
6, 67950, Note_on_c, 2, 57, 0
6, 67980, Note_on_c, 2, 57, 127
6, 67980, Note_on_c, 2, 52, 110
6, 68010, Note_on_c, 2, 45, 0
6, 68040, Note_on_c, 2, 45, 106
6, 68070, Note_on_c, 2, 52, 0
6, 68070, Note_on_c, 2, 57, 0
6, 68100, Note_on_c, 2, 57, 112
6, 68100, Note_on_c, 2, 52, 103
6, 68130, Note_on_c, 2, 45, 0
6, 68160, Note_on_c, 2, 45, 106
6, 68220, Note_on_c, 2, 45, 0
6, 68250, Note_on_c, 2, 52, 0
6, 68250, Note_on_c, 2, 57, 0
6, 68250, Control_c, 2, 64, 0
6, 68280, Note_on_c, 2, 43, 125
6, 68280, Note_on_c, 2, 50, 122
6, 68280, Note_on_c, 2, 55, 127
6, 68303, Control_c, 2, 64, 127
6, 68550, Note_on_c, 2, 55, 0
6, 68550, Note_on_c, 2, 50, 0
6, 68580, Note_on_c, 2, 55, 114
6, 68580, Note_on_c, 2, 50, 106
6, 68609, Note_on_c, 2, 50, 0
6, 68640, Note_on_c, 2, 50, 84
6, 68669, Note_on_c, 2, 50, 0
6, 68670, Note_on_c, 2, 55, 0
6, 68670, Note_on_c, 2, 43, 0
6, 68700, Note_on_c, 2, 38, 125
6, 68700, Note_on_c, 2, 57, 127
6, 68700, Note_on_c, 2, 50, 122
6, 68705, Control_c, 2, 64, 0
6, 68755, Control_c, 2, 64, 127
6, 69060, Note_on_c, 2, 50, 0
6, 69060, Note_on_c, 2, 57, 0
6, 69060, Note_on_c, 2, 57, 97
6, 69060, Note_on_c, 2, 50, 110
6, 69089, Note_on_c, 2, 50, 0
6, 69120, Note_on_c, 2, 57, 0
6, 69120, Note_on_c, 2, 57, 71
6, 69120, Note_on_c, 2, 50, 102
6, 69149, Note_on_c, 2, 50, 0
6, 69150, Note_on_c, 2, 38, 0
6, 69180, Note_on_c, 2, 57, 0
6, 69180, Note_on_c, 2, 57, 95
6, 69180, Note_on_c, 2, 45, 127
6, 69180, Note_on_c, 2, 52, 109
6, 69182, Control_c, 2, 64, 0
6, 69226, Control_c, 2, 64, 127
6, 69330, Note_on_c, 2, 52, 0
6, 69330, Note_on_c, 2, 57, 0
6, 69360, Note_on_c, 2, 57, 122
6, 69360, Note_on_c, 2, 52, 110
6, 69450, Note_on_c, 2, 45, 0
6, 69480, Note_on_c, 2, 45, 97
6, 69510, Note_on_c, 2, 52, 0
6, 69510, Note_on_c, 2, 57, 0
6, 69540, Note_on_c, 2, 57, 125
6, 69540, Note_on_c, 2, 52, 110
6, 69600, Note_on_c, 2, 45, 0
6, 69600, Note_on_c, 2, 45, 97
6, 69690, Note_on_c, 2, 52, 0
6, 69690, Note_on_c, 2, 57, 0
6, 69720, Note_on_c, 2, 57, 125
6, 69720, Note_on_c, 2, 52, 110
6, 69780, Note_on_c, 2, 45, 0
6, 69810, Note_on_c, 2, 45, 89
6, 69840, Note_on_c, 2, 52, 0
6, 69840, Note_on_c, 2, 57, 0
6, 69870, Note_on_c, 2, 57, 125
6, 69870, Note_on_c, 2, 52, 110
6, 69960, Note_on_c, 2, 45, 0
6, 70080, Note_on_c, 2, 45, 89
6, 70109, Note_on_c, 2, 45, 0
6, 70170, Note_on_c, 2, 52, 0
6, 70170, Note_on_c, 2, 57, 0
6, 70192, Control_c, 2, 64, 0
6, 70200, Note_on_c, 2, 60, 127
6, 70200, Note_on_c, 2, 48, 127
6, 70200, Note_on_c, 2, 55, 127
6, 70230, Control_c, 2, 64, 127
6, 70350, Note_on_c, 2, 55, 0
6, 70350, Note_on_c, 2, 48, 0
6, 70350, Note_on_c, 2, 60, 0
6, 70380, Note_on_c, 2, 55, 103
6, 70380, Note_on_c, 2, 60, 112
6, 70380, Note_on_c, 2, 48, 97
6, 70530, Note_on_c, 2, 48, 0
6, 70530, Note_on_c, 2, 60, 0
6, 70530, Note_on_c, 2, 55, 0
6, 70560, Note_on_c, 2, 55, 122
6, 70560, Note_on_c, 2, 60, 120
6, 70560, Note_on_c, 2, 48, 106
6, 70710, Note_on_c, 2, 48, 0
6, 70710, Note_on_c, 2, 60, 0
6, 70710, Note_on_c, 2, 55, 0
6, 70740, Note_on_c, 2, 60, 112
6, 70740, Note_on_c, 2, 55, 110
6, 70740, Note_on_c, 2, 48, 81
6, 70860, Note_on_c, 2, 55, 0
6, 70890, Note_on_c, 2, 48, 0
6, 70890, Note_on_c, 2, 60, 0
6, 70920, Note_on_c, 2, 55, 114
6, 70920, Note_on_c, 2, 60, 120
6, 70920, Note_on_c, 2, 48, 102
6, 71010, Note_on_c, 2, 48, 0
6, 71010, Note_on_c, 2, 60, 0
6, 71010, Note_on_c, 2, 55, 0
6, 71040, Note_on_c, 2, 48, 95
6, 71040, Note_on_c, 2, 60, 86
6, 71040, Note_on_c, 2, 55, 89
6, 71069, Note_on_c, 2, 55, 0
6, 71069, Note_on_c, 2, 60, 0
6, 71069, Note_on_c, 2, 48, 0
6, 71100, Note_on_c, 2, 55, 97
6, 71100, Note_on_c, 2, 60, 94
6, 71129, Note_on_c, 2, 55, 0
6, 71130, Note_on_c, 2, 48, 55
6, 71159, Note_on_c, 2, 48, 0
6, 71160, Note_on_c, 2, 60, 0
6, 71160, Note_on_c, 2, 60, 97
6, 71160, Note_on_c, 2, 55, 102
6, 71160, Note_on_c, 2, 48, 106
6, 71250, Note_on_c, 2, 55, 0
6, 71250, Note_on_c, 2, 60, 0
6, 71280, Note_on_c, 2, 55, 81
6, 71280, Note_on_c, 2, 60, 95
6, 71309, Note_on_c, 2, 60, 0
6, 71309, Note_on_c, 2, 55, 0
6, 71310, Note_on_c, 2, 48, 0
6, 71340, Note_on_c, 2, 55, 112
6, 71340, Note_on_c, 2, 60, 110
6, 71340, Note_on_c, 2, 48, 79
6, 71430, Note_on_c, 2, 60, 0
6, 71430, Note_on_c, 2, 55, 0
6, 71460, Note_on_c, 2, 48, 0
6, 71460, Note_on_c, 2, 60, 71
6, 71460, Note_on_c, 2, 55, 95
6, 71489, Note_on_c, 2, 55, 0
6, 71489, Note_on_c, 2, 60, 0
6, 71490, Note_on_c, 2, 48, 50
6, 71519, Note_on_c, 2, 48, 0
6, 71520, Note_on_c, 2, 55, 122
6, 71520, Note_on_c, 2, 60, 122
6, 71520, Note_on_c, 2, 48, 53
6, 71610, Note_on_c, 2, 48, 0
6, 71610, Note_on_c, 2, 60, 0
6, 71610, Note_on_c, 2, 55, 0
6, 71700, Note_on_c, 2, 55, 112
6, 71700, Note_on_c, 2, 60, 118
6, 71730, Note_on_c, 2, 48, 95
6, 71790, Note_on_c, 2, 48, 0
6, 71790, Note_on_c, 2, 60, 0
6, 71790, Note_on_c, 2, 55, 0
6, 71820, Note_on_c, 2, 55, 97
6, 71820, Note_on_c, 2, 60, 94
6, 71820, Note_on_c, 2, 48, 89
6, 71849, Note_on_c, 2, 60, 0
6, 71849, Note_on_c, 2, 55, 0
6, 71880, Note_on_c, 2, 48, 0
6, 71880, Note_on_c, 2, 55, 97
6, 71880, Note_on_c, 2, 60, 102
6, 71909, Note_on_c, 2, 55, 0
6, 71910, Note_on_c, 2, 48, 61
6, 71940, Note_on_c, 2, 60, 0
6, 71940, Note_on_c, 2, 55, 89
6, 71940, Note_on_c, 2, 60, 80
6, 71969, Note_on_c, 2, 60, 0
6, 71969, Note_on_c, 2, 55, 0
6, 71970, Note_on_c, 2, 48, 0
6, 72000, Note_on_c, 2, 48, 114
6, 72000, Note_on_c, 2, 55, 92
6, 72000, Note_on_c, 2, 60, 100
6, 72051, Control_c, 2, 64, 127
6, 72060, Note_on_c, 2, 60, 0
6, 72060, Note_on_c, 2, 55, 0
6, 72060, Note_on_c, 2, 48, 0
6, 72090, Control_c, 2, 64, 0
6, 72120, Note_on_c, 2, 62, 112
6, 72120, Note_on_c, 2, 43, 120
6, 72120, Note_on_c, 2, 50, 117
6, 72120, Note_on_c, 2, 55, 127
6, 72120, Note_on_c, 2, 67, 100
6, 72131, Control_c, 2, 64, 127
6, 72210, Note_on_c, 2, 43, 0
6, 72240, Note_on_c, 2, 55, 0
6, 72240, Note_on_c, 2, 62, 0
6, 72240, Note_on_c, 2, 50, 0
6, 72240, Note_on_c, 2, 67, 0
6, 72300, Note_on_c, 2, 62, 102
6, 72300, Note_on_c, 2, 55, 102
6, 72300, Note_on_c, 2, 67, 92
6, 72300, Note_on_c, 2, 43, 89
6, 72300, Note_on_c, 2, 50, 95
6, 72360, Note_on_c, 2, 50, 0
6, 72360, Note_on_c, 2, 67, 0
6, 72360, Note_on_c, 2, 62, 0
6, 72360, Note_on_c, 2, 55, 0
6, 72360, Note_on_c, 2, 43, 0
6, 72480, Note_on_c, 2, 55, 112
6, 72480, Note_on_c, 2, 62, 110
6, 72480, Note_on_c, 2, 67, 91
6, 72480, Note_on_c, 2, 43, 95
6, 72480, Note_on_c, 2, 50, 86
6, 72540, Note_on_c, 2, 67, 0
6, 72540, Note_on_c, 2, 55, 0
6, 72540, Note_on_c, 2, 62, 0
6, 72570, Note_on_c, 2, 43, 0
6, 72570, Note_on_c, 2, 50, 0
6, 72660, Note_on_c, 2, 55, 97
6, 72660, Note_on_c, 2, 62, 102
6, 72660, Note_on_c, 2, 67, 102
6, 72660, Note_on_c, 2, 43, 94
6, 72660, Note_on_c, 2, 50, 89
6, 72720, Note_on_c, 2, 50, 0
6, 72720, Note_on_c, 2, 67, 0
6, 72720, Note_on_c, 2, 55, 0
6, 72720, Note_on_c, 2, 62, 0
6, 72720, Note_on_c, 2, 43, 0
6, 72780, Note_on_c, 2, 62, 103
6, 72780, Note_on_c, 2, 55, 103
6, 72780, Note_on_c, 2, 67, 92
6, 72780, Note_on_c, 2, 43, 97
6, 72780, Note_on_c, 2, 50, 102
6, 72809, Note_on_c, 2, 67, 0
6, 72809, Note_on_c, 2, 62, 0
6, 72809, Note_on_c, 2, 55, 0
6, 72840, Note_on_c, 2, 43, 0
6, 72840, Note_on_c, 2, 50, 0
6, 72840, Note_on_c, 2, 62, 97
6, 72840, Note_on_c, 2, 55, 102
6, 72840, Note_on_c, 2, 67, 67
6, 72869, Note_on_c, 2, 67, 0
6, 72869, Note_on_c, 2, 55, 0
6, 72869, Note_on_c, 2, 62, 0
6, 72870, Note_on_c, 2, 43, 75
6, 72870, Note_on_c, 2, 50, 53
6, 72900, Note_on_c, 2, 62, 97
6, 72900, Note_on_c, 2, 55, 94
6, 72900, Note_on_c, 2, 67, 67
6, 72929, Note_on_c, 2, 67, 0
6, 72929, Note_on_c, 2, 62, 0
6, 72929, Note_on_c, 2, 55, 0
6, 72930, Note_on_c, 2, 50, 0
6, 72930, Note_on_c, 2, 43, 0
6, 72960, Note_on_c, 2, 67, 69
6, 72960, Note_on_c, 2, 55, 112
6, 72960, Note_on_c, 2, 62, 98
6, 72960, Note_on_c, 2, 50, 81
6, 72960, Note_on_c, 2, 43, 95
6, 72989, Note_on_c, 2, 62, 0
6, 72989, Note_on_c, 2, 67, 0
6, 72989, Note_on_c, 2, 55, 0
6, 73020, Note_on_c, 2, 50, 0
6, 73020, Note_on_c, 2, 43, 0
6, 73020, Note_on_c, 2, 67, 89
6, 73020, Note_on_c, 2, 62, 109
6, 73020, Note_on_c, 2, 55, 110
6, 73049, Note_on_c, 2, 55, 0
6, 73049, Note_on_c, 2, 62, 0
6, 73049, Note_on_c, 2, 67, 0
6, 73050, Note_on_c, 2, 43, 58
6, 73050, Note_on_c, 2, 50, 47
6, 73079, Note_on_c, 2, 43, 0
6, 73080, Note_on_c, 2, 43, 89
6, 73080, Note_on_c, 2, 67, 102
6, 73080, Note_on_c, 2, 55, 127
6, 73080, Note_on_c, 2, 62, 127
6, 73109, Note_on_c, 2, 62, 0
6, 73109, Note_on_c, 2, 67, 0
6, 73109, Note_on_c, 2, 55, 0
6, 73109, Note_on_c, 2, 43, 0
6, 73110, Note_on_c, 2, 50, 0
6, 74068, Control_c, 2, 64, 0
6, 79800, Note_on_c, 2, 48, 125
6, 79800, Note_on_c, 2, 60, 127
6, 79800, Note_on_c, 2, 64, 117
6, 79800, Control_c, 2, 64, 127
6, 79800, Note_on_c, 2, 55, 127
6, 79920, Note_on_c, 2, 55, 0
6, 79920, Note_on_c, 2, 48, 0
6, 79920, Note_on_c, 2, 60, 0
6, 79920, Note_on_c, 2, 64, 0
6, 79980, Note_on_c, 2, 48, 114
6, 79980, Note_on_c, 2, 60, 127
6, 79980, Note_on_c, 2, 55, 118
6, 79980, Note_on_c, 2, 64, 118
6, 80070, Note_on_c, 2, 64, 0
6, 80070, Note_on_c, 2, 48, 0
6, 80070, Note_on_c, 2, 60, 0
6, 80070, Note_on_c, 2, 55, 0
6, 80160, Note_on_c, 2, 60, 127
6, 80160, Note_on_c, 2, 64, 120
6, 80160, Note_on_c, 2, 55, 117
6, 80160, Note_on_c, 2, 48, 120
6, 80280, Note_on_c, 2, 48, 0
6, 80280, Note_on_c, 2, 60, 0
6, 80280, Note_on_c, 2, 64, 0
6, 80280, Note_on_c, 2, 55, 0
6, 80340, Note_on_c, 2, 64, 110
6, 80340, Note_on_c, 2, 60, 120
6, 80340, Note_on_c, 2, 55, 117
6, 80340, Note_on_c, 2, 48, 120
6, 80430, Note_on_c, 2, 48, 0
6, 80430, Note_on_c, 2, 64, 0
6, 80430, Note_on_c, 2, 60, 0
6, 80430, Note_on_c, 2, 55, 0
6, 80520, Note_on_c, 2, 64, 114
6, 80520, Note_on_c, 2, 60, 127
6, 80520, Note_on_c, 2, 55, 120
6, 80520, Note_on_c, 2, 48, 125
6, 80580, Note_on_c, 2, 48, 0
6, 80580, Note_on_c, 2, 64, 0
6, 80580, Note_on_c, 2, 60, 0
6, 80580, Note_on_c, 2, 55, 0
6, 80640, Note_on_c, 2, 64, 110
6, 80640, Note_on_c, 2, 48, 110
6, 80640, Note_on_c, 2, 60, 117
6, 80640, Note_on_c, 2, 55, 106
6, 80700, Note_on_c, 2, 55, 0
6, 80700, Note_on_c, 2, 64, 0
6, 80700, Note_on_c, 2, 48, 0
6, 80700, Note_on_c, 2, 60, 0
6, 80760, Note_on_c, 2, 64, 125
6, 80760, Note_on_c, 2, 60, 127
6, 80760, Note_on_c, 2, 55, 127
6, 80760, Note_on_c, 2, 48, 125
6, 80850, Note_on_c, 2, 55, 0
6, 80850, Note_on_c, 2, 64, 0
6, 80850, Note_on_c, 2, 60, 0
6, 80880, Note_on_c, 2, 48, 0
6, 80940, Note_on_c, 2, 60, 122
6, 80940, Note_on_c, 2, 64, 100
6, 80940, Note_on_c, 2, 55, 117
6, 80940, Note_on_c, 2, 48, 118
6, 81030, Note_on_c, 2, 48, 0
6, 81030, Note_on_c, 2, 60, 0
6, 81030, Note_on_c, 2, 64, 0
6, 81030, Note_on_c, 2, 55, 0
6, 81120, Note_on_c, 2, 64, 110
6, 81120, Note_on_c, 2, 55, 120
6, 81120, Note_on_c, 2, 60, 117
6, 81120, Note_on_c, 2, 48, 117
6, 81240, Note_on_c, 2, 48, 0
6, 81240, Note_on_c, 2, 64, 0
6, 81240, Note_on_c, 2, 55, 0
6, 81240, Note_on_c, 2, 60, 0
6, 81300, Note_on_c, 2, 60, 122
6, 81300, Note_on_c, 2, 64, 110
6, 81300, Note_on_c, 2, 55, 118
6, 81300, Note_on_c, 2, 48, 125
6, 81360, Note_on_c, 2, 48, 0
6, 81360, Note_on_c, 2, 60, 0
6, 81360, Note_on_c, 2, 64, 0
6, 81360, Note_on_c, 2, 55, 0
6, 81420, Note_on_c, 2, 60, 110
6, 81420, Note_on_c, 2, 64, 110
6, 81420, Note_on_c, 2, 55, 98
6, 81449, Note_on_c, 2, 55, 0
6, 81449, Note_on_c, 2, 64, 0
6, 81449, Note_on_c, 2, 60, 0
6, 81480, Note_on_c, 2, 60, 122
6, 81480, Note_on_c, 2, 64, 102
6, 81480, Note_on_c, 2, 55, 118
6, 81480, Note_on_c, 2, 48, 120
6, 81509, Note_on_c, 2, 55, 0
6, 81509, Note_on_c, 2, 60, 0
6, 81509, Note_on_c, 2, 64, 0
6, 81540, Note_on_c, 2, 48, 0
6, 81540, Note_on_c, 2, 60, 112
6, 81540, Note_on_c, 2, 64, 102
6, 81540, Note_on_c, 2, 55, 107
6, 81569, Note_on_c, 2, 55, 0
6, 81569, Note_on_c, 2, 60, 0
6, 81570, Note_on_c, 2, 48, 61
6, 81599, Note_on_c, 2, 48, 0
6, 81600, Note_on_c, 2, 64, 0
6, 81600, Note_on_c, 2, 64, 112
6, 81600, Note_on_c, 2, 60, 127
6, 81600, Note_on_c, 2, 55, 107
6, 81629, Note_on_c, 2, 55, 0
6, 81629, Note_on_c, 2, 60, 0
6, 81629, Note_on_c, 2, 64, 0
6, 81630, Note_on_c, 2, 48, 114
6, 81659, Note_on_c, 2, 48, 0
6, 81666, Control_c, 2, 64, 127
6, 81715, Control_c, 2, 64, 0
6, 81720, Note_on_c, 2, 43, 127
6, 81720, Note_on_c, 2, 55, 127
6, 81720, Note_on_c, 2, 50, 127
6, 81729, Control_c, 2, 64, 127
6, 81990, Note_on_c, 2, 50, 0
6, 81990, Note_on_c, 2, 55, 0
6, 82020, Note_on_c, 2, 55, 106
6, 82020, Note_on_c, 2, 50, 102
6, 82049, Note_on_c, 2, 50, 0
6, 82049, Note_on_c, 2, 55, 0
6, 82080, Note_on_c, 2, 55, 77
6, 82080, Note_on_c, 2, 50, 81
6, 82109, Note_on_c, 2, 50, 0
6, 82109, Note_on_c, 2, 55, 0
6, 82110, Note_on_c, 2, 43, 0
6, 82140, Note_on_c, 2, 38, 127
6, 82140, Note_on_c, 2, 57, 127
6, 82140, Control_c, 2, 64, 0
6, 82140, Note_on_c, 2, 50, 127
6, 82200, Control_c, 2, 64, 127
6, 82470, Note_on_c, 2, 50, 0
6, 82470, Note_on_c, 2, 57, 0
6, 82500, Note_on_c, 2, 57, 112
6, 82500, Note_on_c, 2, 50, 110
6, 82529, Note_on_c, 2, 50, 0
6, 82529, Note_on_c, 2, 57, 0
6, 82560, Note_on_c, 2, 57, 114
6, 82560, Note_on_c, 2, 50, 125
6, 82589, Note_on_c, 2, 50, 0
6, 82589, Note_on_c, 2, 57, 0
6, 82590, Note_on_c, 2, 38, 0
6, 82611, Control_c, 2, 64, 0
6, 82620, Note_on_c, 2, 45, 125
6, 82620, Note_on_c, 2, 52, 127
6, 82620, Note_on_c, 2, 57, 114
6, 82674, Control_c, 2, 64, 127
6, 82770, Note_on_c, 2, 57, 0
6, 82770, Note_on_c, 2, 52, 0
6, 82800, Note_on_c, 2, 45, 0
6, 82800, Note_on_c, 2, 57, 127
6, 82800, Note_on_c, 2, 52, 120
6, 82800, Note_on_c, 2, 45, 72
6, 82890, Note_on_c, 2, 45, 0
6, 82920, Note_on_c, 2, 45, 107
6, 82950, Note_on_c, 2, 52, 0
6, 82950, Note_on_c, 2, 57, 0
6, 82980, Note_on_c, 2, 57, 125
6, 82980, Note_on_c, 2, 52, 110
6, 83010, Note_on_c, 2, 45, 0
6, 83040, Note_on_c, 2, 45, 97
6, 83130, Note_on_c, 2, 52, 0
6, 83130, Note_on_c, 2, 57, 0
6, 83160, Note_on_c, 2, 57, 122
6, 83160, Note_on_c, 2, 52, 103
6, 83220, Note_on_c, 2, 45, 0
6, 83280, Note_on_c, 2, 45, 106
6, 83309, Note_on_c, 2, 45, 0
6, 83310, Note_on_c, 2, 52, 0
6, 83310, Note_on_c, 2, 57, 0
6, 83320, Control_c, 2, 64, 0
6, 83340, Note_on_c, 2, 50, 122
6, 83340, Note_on_c, 2, 59, 112
6, 83340, Note_on_c, 2, 47, 106
6, 83378, Control_c, 2, 64, 127
6, 83430, Note_on_c, 2, 59, 0
6, 83430, Note_on_c, 2, 50, 0
6, 83460, Note_on_c, 2, 59, 114
6, 83460, Note_on_c, 2, 50, 110
6, 83490, Note_on_c, 2, 47, 0
6, 83520, Note_on_c, 2, 47, 106
6, 83610, Note_on_c, 2, 47, 0
6, 83631, Control_c, 2, 64, 0
6, 83640, Note_on_c, 2, 50, 0
6, 83640, Note_on_c, 2, 59, 0
6, 83640, Note_on_c, 2, 50, 122
6, 83640, Note_on_c, 2, 55, 127
6, 83640, Note_on_c, 2, 43, 127
6, 83703, Control_c, 2, 64, 127
6, 83910, Note_on_c, 2, 55, 0
6, 83910, Note_on_c, 2, 50, 0
6, 83940, Note_on_c, 2, 55, 112
6, 83940, Note_on_c, 2, 50, 103
6, 83969, Note_on_c, 2, 50, 0
6, 83969, Note_on_c, 2, 55, 0
6, 83970, Note_on_c, 2, 55, 97
6, 83970, Note_on_c, 2, 50, 103
6, 84000, Note_on_c, 2, 43, 0
6, 84030, Note_on_c, 2, 50, 0
6, 84030, Note_on_c, 2, 55, 0
6, 84044, Control_c, 2, 64, 0
6, 84060, Note_on_c, 2, 38, 125
6, 84060, Note_on_c, 2, 57, 127
6, 84060, Note_on_c, 2, 50, 125
6, 84098, Control_c, 2, 64, 127
6, 84390, Note_on_c, 2, 50, 0
6, 84390, Note_on_c, 2, 57, 0
6, 84420, Note_on_c, 2, 57, 103
6, 84420, Note_on_c, 2, 50, 103
6, 84449, Note_on_c, 2, 50, 0
6, 84449, Note_on_c, 2, 57, 0
6, 84480, Note_on_c, 2, 57, 81
6, 84480, Note_on_c, 2, 50, 102
6, 84509, Note_on_c, 2, 50, 0
6, 84509, Note_on_c, 2, 57, 0
6, 84510, Note_on_c, 2, 38, 0
6, 84528, Control_c, 2, 64, 0
6, 84540, Note_on_c, 2, 57, 114
6, 84540, Note_on_c, 2, 45, 120
6, 84540, Note_on_c, 2, 52, 120
6, 84581, Control_c, 2, 64, 127
6, 84690, Note_on_c, 2, 52, 0
6, 84690, Note_on_c, 2, 57, 0
6, 84720, Note_on_c, 2, 57, 125
6, 84720, Note_on_c, 2, 52, 110
6, 84810, Note_on_c, 2, 45, 0
6, 84870, Note_on_c, 2, 52, 0
6, 84870, Note_on_c, 2, 57, 0
6, 84870, Note_on_c, 2, 45, 89
6, 84900, Note_on_c, 2, 57, 125
6, 84900, Note_on_c, 2, 52, 103
6, 84930, Note_on_c, 2, 45, 0
6, 84960, Note_on_c, 2, 45, 89
6, 85020, Note_on_c, 2, 52, 0
6, 85020, Note_on_c, 2, 57, 0
6, 85080, Note_on_c, 2, 57, 125
6, 85080, Note_on_c, 2, 52, 100
6, 85110, Note_on_c, 2, 45, 0
6, 85200, Note_on_c, 2, 45, 97
6, 85230, Note_on_c, 2, 52, 0
6, 85230, Note_on_c, 2, 57, 0
6, 85260, Note_on_c, 2, 57, 127
6, 85260, Note_on_c, 2, 52, 110
6, 85290, Note_on_c, 2, 45, 0
6, 85320, Note_on_c, 2, 45, 106
6, 85350, Note_on_c, 2, 52, 0
6, 85350, Note_on_c, 2, 57, 0
6, 85380, Note_on_c, 2, 57, 112
6, 85380, Note_on_c, 2, 52, 103
6, 85410, Note_on_c, 2, 45, 0
6, 85440, Note_on_c, 2, 45, 106
6, 85500, Note_on_c, 2, 45, 0
6, 85530, Note_on_c, 2, 52, 0
6, 85530, Note_on_c, 2, 57, 0
6, 85530, Control_c, 2, 64, 0
6, 85560, Note_on_c, 2, 43, 125
6, 85560, Note_on_c, 2, 50, 122
6, 85560, Note_on_c, 2, 55, 127
6, 85583, Control_c, 2, 64, 127
6, 85830, Note_on_c, 2, 55, 0
6, 85830, Note_on_c, 2, 50, 0
6, 85860, Note_on_c, 2, 55, 114
6, 85860, Note_on_c, 2, 50, 106
6, 85889, Note_on_c, 2, 50, 0
6, 85920, Note_on_c, 2, 50, 84
6, 85949, Note_on_c, 2, 50, 0
6, 85950, Note_on_c, 2, 55, 0
6, 85950, Note_on_c, 2, 43, 0
6, 85980, Note_on_c, 2, 38, 125
6, 85980, Note_on_c, 2, 57, 127
6, 85980, Note_on_c, 2, 50, 122
6, 85985, Control_c, 2, 64, 0
6, 86035, Control_c, 2, 64, 127
6, 86340, Note_on_c, 2, 50, 0
6, 86340, Note_on_c, 2, 57, 0
6, 86340, Note_on_c, 2, 57, 97
6, 86340, Note_on_c, 2, 50, 110
6, 86369, Note_on_c, 2, 50, 0
6, 86400, Note_on_c, 2, 57, 0
6, 86400, Note_on_c, 2, 57, 71
6, 86400, Note_on_c, 2, 50, 102
6, 86429, Note_on_c, 2, 50, 0
6, 86430, Note_on_c, 2, 38, 0
6, 86460, Note_on_c, 2, 57, 0
6, 86460, Note_on_c, 2, 57, 95
6, 86460, Note_on_c, 2, 45, 127
6, 86460, Note_on_c, 2, 52, 109
6, 86462, Control_c, 2, 64, 0
6, 86506, Control_c, 2, 64, 127
6, 86610, Note_on_c, 2, 52, 0
6, 86610, Note_on_c, 2, 57, 0
6, 86640, Note_on_c, 2, 57, 122
6, 86640, Note_on_c, 2, 52, 110
6, 86730, Note_on_c, 2, 45, 0
6, 86760, Note_on_c, 2, 45, 97
6, 86790, Note_on_c, 2, 52, 0
6, 86790, Note_on_c, 2, 57, 0
6, 86820, Note_on_c, 2, 57, 125
6, 86820, Note_on_c, 2, 52, 110
6, 86880, Note_on_c, 2, 45, 0
6, 86880, Note_on_c, 2, 45, 97
6, 86970, Note_on_c, 2, 52, 0
6, 86970, Note_on_c, 2, 57, 0
6, 87000, Note_on_c, 2, 57, 125
6, 87000, Note_on_c, 2, 52, 110
6, 87060, Note_on_c, 2, 45, 0
6, 87090, Note_on_c, 2, 45, 89
6, 87120, Note_on_c, 2, 52, 0
6, 87120, Note_on_c, 2, 57, 0
6, 87150, Note_on_c, 2, 57, 125
6, 87150, Note_on_c, 2, 52, 110
6, 87240, Note_on_c, 2, 45, 0
6, 87360, Note_on_c, 2, 45, 89
6, 87389, Note_on_c, 2, 45, 0
6, 87450, Note_on_c, 2, 52, 0
6, 87450, Note_on_c, 2, 57, 0
6, 87472, Control_c, 2, 64, 0
6, 87480, Note_on_c, 2, 60, 127
6, 87480, Note_on_c, 2, 48, 127
6, 87480, Note_on_c, 2, 55, 127
6, 87510, Control_c, 2, 64, 127
6, 87630, Note_on_c, 2, 55, 0
6, 87630, Note_on_c, 2, 48, 0
6, 87630, Note_on_c, 2, 60, 0
6, 87660, Note_on_c, 2, 55, 103
6, 87660, Note_on_c, 2, 60, 112
6, 87660, Note_on_c, 2, 48, 97
6, 87810, Note_on_c, 2, 48, 0
6, 87810, Note_on_c, 2, 60, 0
6, 87810, Note_on_c, 2, 55, 0
6, 87840, Note_on_c, 2, 55, 122
6, 87840, Note_on_c, 2, 60, 120
6, 87840, Note_on_c, 2, 48, 106
6, 87990, Note_on_c, 2, 48, 0
6, 87990, Note_on_c, 2, 60, 0
6, 87990, Note_on_c, 2, 55, 0
6, 88020, Note_on_c, 2, 60, 112
6, 88020, Note_on_c, 2, 55, 110
6, 88020, Note_on_c, 2, 48, 81
6, 88140, Note_on_c, 2, 55, 0
6, 88170, Note_on_c, 2, 48, 0
6, 88170, Note_on_c, 2, 60, 0
6, 88200, Note_on_c, 2, 55, 114
6, 88200, Note_on_c, 2, 60, 120
6, 88200, Note_on_c, 2, 48, 102
6, 88290, Note_on_c, 2, 48, 0
6, 88290, Note_on_c, 2, 60, 0
6, 88290, Note_on_c, 2, 55, 0
6, 88320, Note_on_c, 2, 48, 95
6, 88320, Note_on_c, 2, 60, 86
6, 88320, Note_on_c, 2, 55, 89
6, 88349, Note_on_c, 2, 55, 0
6, 88349, Note_on_c, 2, 60, 0
6, 88349, Note_on_c, 2, 48, 0
6, 88380, Note_on_c, 2, 55, 97
6, 88380, Note_on_c, 2, 60, 94
6, 88409, Note_on_c, 2, 55, 0
6, 88410, Note_on_c, 2, 48, 55
6, 88439, Note_on_c, 2, 48, 0
6, 88440, Note_on_c, 2, 60, 0
6, 88440, Note_on_c, 2, 60, 97
6, 88440, Note_on_c, 2, 55, 102
6, 88440, Note_on_c, 2, 48, 106
6, 88530, Note_on_c, 2, 55, 0
6, 88530, Note_on_c, 2, 60, 0
6, 88560, Note_on_c, 2, 55, 81
6, 88560, Note_on_c, 2, 60, 95
6, 88589, Note_on_c, 2, 60, 0
6, 88589, Note_on_c, 2, 55, 0
6, 88590, Note_on_c, 2, 48, 0
6, 88620, Note_on_c, 2, 55, 112
6, 88620, Note_on_c, 2, 60, 110
6, 88620, Note_on_c, 2, 48, 79
6, 88710, Note_on_c, 2, 60, 0
6, 88710, Note_on_c, 2, 55, 0
6, 88740, Note_on_c, 2, 48, 0
6, 88740, Note_on_c, 2, 60, 71
6, 88740, Note_on_c, 2, 55, 95
6, 88769, Note_on_c, 2, 55, 0
6, 88769, Note_on_c, 2, 60, 0
6, 88770, Note_on_c, 2, 48, 50
6, 88799, Note_on_c, 2, 48, 0
6, 88800, Note_on_c, 2, 55, 122
6, 88800, Note_on_c, 2, 60, 122
6, 88800, Note_on_c, 2, 48, 53
6, 88890, Note_on_c, 2, 48, 0
6, 88890, Note_on_c, 2, 60, 0
6, 88890, Note_on_c, 2, 55, 0
6, 88980, Note_on_c, 2, 55, 112
6, 88980, Note_on_c, 2, 60, 118
6, 89010, Note_on_c, 2, 48, 95
6, 89070, Note_on_c, 2, 48, 0
6, 89070, Note_on_c, 2, 60, 0
6, 89070, Note_on_c, 2, 55, 0
6, 89100, Note_on_c, 2, 55, 97
6, 89100, Note_on_c, 2, 60, 94
6, 89100, Note_on_c, 2, 48, 89
6, 89129, Note_on_c, 2, 60, 0
6, 89129, Note_on_c, 2, 55, 0
6, 89160, Note_on_c, 2, 48, 0
6, 89160, Note_on_c, 2, 55, 97
6, 89160, Note_on_c, 2, 60, 102
6, 89189, Note_on_c, 2, 55, 0
6, 89190, Note_on_c, 2, 48, 61
6, 89220, Note_on_c, 2, 60, 0
6, 89220, Note_on_c, 2, 55, 89
6, 89220, Note_on_c, 2, 60, 80
6, 89249, Note_on_c, 2, 60, 0
6, 89249, Note_on_c, 2, 55, 0
6, 89250, Note_on_c, 2, 48, 0
6, 89280, Note_on_c, 2, 48, 114
6, 89280, Note_on_c, 2, 55, 92
6, 89280, Note_on_c, 2, 60, 100
6, 89331, Control_c, 2, 64, 127
6, 89340, Note_on_c, 2, 60, 0
6, 89340, Note_on_c, 2, 55, 0
6, 89340, Note_on_c, 2, 48, 0
6, 89370, Control_c, 2, 64, 0
6, 89400, Note_on_c, 2, 43, 127
6, 89400, Note_on_c, 2, 55, 127
6, 89400, Note_on_c, 2, 50, 127
6, 89409, Control_c, 2, 64, 127
6, 89670, Note_on_c, 2, 50, 0
6, 89670, Note_on_c, 2, 55, 0
6, 89700, Note_on_c, 2, 55, 106
6, 89700, Note_on_c, 2, 50, 102
6, 89729, Note_on_c, 2, 50, 0
6, 89729, Note_on_c, 2, 55, 0
6, 89760, Note_on_c, 2, 55, 77
6, 89760, Note_on_c, 2, 50, 81
6, 89789, Note_on_c, 2, 50, 0
6, 89789, Note_on_c, 2, 55, 0
6, 89790, Note_on_c, 2, 43, 0
6, 89820, Note_on_c, 2, 38, 127
6, 89820, Note_on_c, 2, 57, 127
6, 89820, Control_c, 2, 64, 0
6, 89820, Note_on_c, 2, 50, 127
6, 89880, Control_c, 2, 64, 127
6, 90150, Note_on_c, 2, 50, 0
6, 90150, Note_on_c, 2, 57, 0
6, 90180, Note_on_c, 2, 57, 112
6, 90180, Note_on_c, 2, 50, 110
6, 90209, Note_on_c, 2, 50, 0
6, 90209, Note_on_c, 2, 57, 0
6, 90240, Note_on_c, 2, 57, 114
6, 90240, Note_on_c, 2, 50, 125
6, 90269, Note_on_c, 2, 50, 0
6, 90269, Note_on_c, 2, 57, 0
6, 90270, Note_on_c, 2, 38, 0
6, 90291, Control_c, 2, 64, 0
6, 90300, Note_on_c, 2, 45, 125
6, 90300, Note_on_c, 2, 52, 127
6, 90300, Note_on_c, 2, 57, 114
6, 90354, Control_c, 2, 64, 127
6, 90450, Note_on_c, 2, 57, 0
6, 90450, Note_on_c, 2, 52, 0
6, 90480, Note_on_c, 2, 45, 0
6, 90480, Note_on_c, 2, 57, 127
6, 90480, Note_on_c, 2, 52, 120
6, 90480, Note_on_c, 2, 45, 72
6, 90570, Note_on_c, 2, 45, 0
6, 90600, Note_on_c, 2, 45, 107
6, 90630, Note_on_c, 2, 52, 0
6, 90630, Note_on_c, 2, 57, 0
6, 90660, Note_on_c, 2, 57, 125
6, 90660, Note_on_c, 2, 52, 110
6, 90690, Note_on_c, 2, 45, 0
6, 90720, Note_on_c, 2, 45, 97
6, 90810, Note_on_c, 2, 52, 0
6, 90810, Note_on_c, 2, 57, 0
6, 90840, Note_on_c, 2, 57, 122
6, 90840, Note_on_c, 2, 52, 103
6, 90900, Note_on_c, 2, 45, 0
6, 90960, Note_on_c, 2, 45, 106
6, 90989, Note_on_c, 2, 45, 0
6, 90990, Note_on_c, 2, 52, 0
6, 90990, Note_on_c, 2, 57, 0
6, 91000, Control_c, 2, 64, 0
6, 91020, Note_on_c, 2, 50, 122
6, 91020, Note_on_c, 2, 59, 112
6, 91020, Note_on_c, 2, 47, 106
6, 91058, Control_c, 2, 64, 127
6, 91110, Note_on_c, 2, 59, 0
6, 91110, Note_on_c, 2, 50, 0
6, 91140, Note_on_c, 2, 59, 114
6, 91140, Note_on_c, 2, 50, 110
6, 91170, Note_on_c, 2, 47, 0
6, 91200, Note_on_c, 2, 47, 106
6, 91290, Note_on_c, 2, 47, 0
6, 91311, Control_c, 2, 64, 0
6, 91320, Note_on_c, 2, 50, 0
6, 91320, Note_on_c, 2, 59, 0
6, 91320, Note_on_c, 2, 50, 122
6, 91320, Note_on_c, 2, 55, 127
6, 91320, Note_on_c, 2, 43, 127
6, 91383, Control_c, 2, 64, 127
6, 91590, Note_on_c, 2, 55, 0
6, 91590, Note_on_c, 2, 50, 0
6, 91620, Note_on_c, 2, 55, 112
6, 91620, Note_on_c, 2, 50, 103
6, 91649, Note_on_c, 2, 50, 0
6, 91649, Note_on_c, 2, 55, 0
6, 91650, Note_on_c, 2, 55, 97
6, 91650, Note_on_c, 2, 50, 103
6, 91680, Note_on_c, 2, 43, 0
6, 91710, Note_on_c, 2, 50, 0
6, 91710, Note_on_c, 2, 55, 0
6, 91724, Control_c, 2, 64, 0
6, 91740, Note_on_c, 2, 38, 125
6, 91740, Note_on_c, 2, 57, 127
6, 91740, Note_on_c, 2, 50, 125
6, 91778, Control_c, 2, 64, 127
6, 92070, Note_on_c, 2, 50, 0
6, 92070, Note_on_c, 2, 57, 0
6, 92100, Note_on_c, 2, 57, 103
6, 92100, Note_on_c, 2, 50, 103
6, 92129, Note_on_c, 2, 50, 0
6, 92129, Note_on_c, 2, 57, 0
6, 92160, Note_on_c, 2, 57, 81
6, 92160, Note_on_c, 2, 50, 102
6, 92189, Note_on_c, 2, 50, 0
6, 92189, Note_on_c, 2, 57, 0
6, 92190, Note_on_c, 2, 38, 0
6, 92208, Control_c, 2, 64, 0
6, 92220, Note_on_c, 2, 57, 114
6, 92220, Note_on_c, 2, 45, 120
6, 92220, Note_on_c, 2, 52, 120
6, 92261, Control_c, 2, 64, 127
6, 92370, Note_on_c, 2, 52, 0
6, 92370, Note_on_c, 2, 57, 0
6, 92400, Note_on_c, 2, 57, 125
6, 92400, Note_on_c, 2, 52, 110
6, 92490, Note_on_c, 2, 45, 0
6, 92550, Note_on_c, 2, 52, 0
6, 92550, Note_on_c, 2, 57, 0
6, 92550, Note_on_c, 2, 45, 89
6, 92580, Note_on_c, 2, 57, 125
6, 92580, Note_on_c, 2, 52, 103
6, 92610, Note_on_c, 2, 45, 0
6, 92640, Note_on_c, 2, 45, 89
6, 92700, Note_on_c, 2, 52, 0
6, 92700, Note_on_c, 2, 57, 0
6, 92760, Note_on_c, 2, 57, 125
6, 92760, Note_on_c, 2, 52, 100
6, 92790, Note_on_c, 2, 45, 0
6, 92880, Note_on_c, 2, 45, 97
6, 92910, Note_on_c, 2, 52, 0
6, 92910, Note_on_c, 2, 57, 0
6, 92940, Note_on_c, 2, 57, 127
6, 92940, Note_on_c, 2, 52, 110
6, 92970, Note_on_c, 2, 45, 0
6, 93000, Note_on_c, 2, 45, 106
6, 93030, Note_on_c, 2, 52, 0
6, 93030, Note_on_c, 2, 57, 0
6, 93060, Note_on_c, 2, 57, 112
6, 93060, Note_on_c, 2, 52, 103
6, 93090, Note_on_c, 2, 45, 0
6, 93120, Note_on_c, 2, 45, 106
6, 93180, Note_on_c, 2, 45, 0
6, 93210, Note_on_c, 2, 52, 0
6, 93210, Note_on_c, 2, 57, 0
6, 93210, Control_c, 2, 64, 0
6, 93240, Note_on_c, 2, 43, 125
6, 93240, Note_on_c, 2, 50, 122
6, 93240, Note_on_c, 2, 55, 127
6, 93263, Control_c, 2, 64, 127
6, 93510, Note_on_c, 2, 55, 0
6, 93510, Note_on_c, 2, 50, 0
6, 93540, Note_on_c, 2, 55, 114
6, 93540, Note_on_c, 2, 50, 106
6, 93569, Note_on_c, 2, 50, 0
6, 93600, Note_on_c, 2, 50, 84
6, 93629, Note_on_c, 2, 50, 0
6, 93630, Note_on_c, 2, 55, 0
6, 93630, Note_on_c, 2, 43, 0
6, 93660, Note_on_c, 2, 38, 125
6, 93660, Note_on_c, 2, 57, 127
6, 93660, Note_on_c, 2, 50, 122
6, 93665, Control_c, 2, 64, 0
6, 93715, Control_c, 2, 64, 127
6, 94020, Note_on_c, 2, 50, 0
6, 94020, Note_on_c, 2, 57, 0
6, 94020, Note_on_c, 2, 57, 97
6, 94020, Note_on_c, 2, 50, 110
6, 94049, Note_on_c, 2, 50, 0
6, 94080, Note_on_c, 2, 57, 0
6, 94080, Note_on_c, 2, 57, 71
6, 94080, Note_on_c, 2, 50, 102
6, 94109, Note_on_c, 2, 50, 0
6, 94110, Note_on_c, 2, 38, 0
6, 94140, Note_on_c, 2, 57, 0
6, 94140, Note_on_c, 2, 57, 95
6, 94140, Note_on_c, 2, 45, 127
6, 94140, Note_on_c, 2, 52, 109
6, 94142, Control_c, 2, 64, 0
6, 94186, Control_c, 2, 64, 127
6, 94290, Note_on_c, 2, 52, 0
6, 94290, Note_on_c, 2, 57, 0
6, 94320, Note_on_c, 2, 57, 122
6, 94320, Note_on_c, 2, 52, 110
6, 94410, Note_on_c, 2, 45, 0
6, 94440, Note_on_c, 2, 45, 97
6, 94470, Note_on_c, 2, 52, 0
6, 94470, Note_on_c, 2, 57, 0
6, 94500, Note_on_c, 2, 57, 125
6, 94500, Note_on_c, 2, 52, 110
6, 94560, Note_on_c, 2, 45, 0
6, 94560, Note_on_c, 2, 45, 97
6, 94580, Control_c, 2, 7, 125
6, 94650, Note_on_c, 2, 52, 0
6, 94650, Note_on_c, 2, 57, 0
6, 94680, Note_on_c, 2, 57, 125
6, 94680, Note_on_c, 2, 52, 110
6, 94703, Control_c, 2, 7, 124
6, 94725, Control_c, 2, 7, 123
6, 94740, Note_on_c, 2, 45, 0
6, 94755, Control_c, 2, 7, 122
6, 94770, Note_on_c, 2, 45, 89
6, 94800, Note_on_c, 2, 52, 0
6, 94800, Note_on_c, 2, 57, 0
6, 94830, Note_on_c, 2, 57, 125
6, 94830, Note_on_c, 2, 52, 110
6, 94870, Control_c, 2, 7, 121
6, 94880, Control_c, 2, 7, 120
6, 94890, Control_c, 2, 7, 119
6, 94912, Control_c, 2, 7, 118
6, 94920, Note_on_c, 2, 45, 0
6, 94945, Control_c, 2, 7, 117
6, 94955, Control_c, 2, 7, 116
6, 94985, Control_c, 2, 7, 115
6, 94995, Control_c, 2, 7, 114
6, 95030, Control_c, 2, 7, 113
6, 95040, Note_on_c, 2, 45, 89
6, 95045, Control_c, 2, 7, 112
6, 95060, Control_c, 2, 7, 110
6, 95069, Note_on_c, 2, 45, 0
6, 95069, Control_c, 2, 7, 109
6, 95122, Control_c, 2, 7, 108
6, 95130, Note_on_c, 2, 52, 0
6, 95130, Note_on_c, 2, 57, 0
6, 95152, Control_c, 2, 7, 107
6, 95152, Control_c, 2, 64, 0
6, 95160, Note_on_c, 2, 60, 127
6, 95160, Note_on_c, 2, 48, 127
6, 95160, Note_on_c, 2, 55, 127
6, 95190, Control_c, 2, 7, 106
6, 95190, Control_c, 2, 64, 127
6, 95210, Control_c, 2, 7, 105
6, 95260, Control_c, 2, 7, 104
6, 95290, Control_c, 2, 7, 103
6, 95310, Note_on_c, 2, 55, 0
6, 95310, Note_on_c, 2, 48, 0
6, 95310, Note_on_c, 2, 60, 0
6, 95340, Note_on_c, 2, 55, 103
6, 95340, Note_on_c, 2, 60, 112
6, 95340, Note_on_c, 2, 48, 97
6, 95350, Control_c, 2, 7, 102
6, 95380, Control_c, 2, 7, 101
6, 95400, Control_c, 2, 7, 100
6, 95450, Control_c, 2, 7, 99
6, 95480, Control_c, 2, 7, 98
6, 95490, Note_on_c, 2, 48, 0
6, 95490, Note_on_c, 2, 60, 0
6, 95490, Note_on_c, 2, 55, 0
6, 95500, Control_c, 2, 7, 97
6, 95520, Note_on_c, 2, 55, 122
6, 95520, Note_on_c, 2, 60, 120
6, 95520, Note_on_c, 2, 48, 106
6, 95540, Control_c, 2, 7, 96
6, 95620, Control_c, 2, 7, 95
6, 95665, Control_c, 2, 7, 94
6, 95670, Note_on_c, 2, 48, 0
6, 95670, Note_on_c, 2, 60, 0
6, 95670, Note_on_c, 2, 55, 0
6, 95695, Control_c, 2, 7, 93
6, 95700, Note_on_c, 2, 60, 112
6, 95700, Note_on_c, 2, 55, 110
6, 95700, Note_on_c, 2, 48, 81
6, 95755, Control_c, 2, 7, 92
6, 95790, Control_c, 2, 7, 91
6, 95820, Note_on_c, 2, 55, 0
6, 95825, Control_c, 2, 7, 90
6, 95835, Control_c, 2, 7, 89
6, 95850, Note_on_c, 2, 48, 0
6, 95850, Note_on_c, 2, 60, 0
6, 95875, Control_c, 2, 7, 88
6, 95880, Note_on_c, 2, 55, 114
6, 95880, Note_on_c, 2, 60, 120
6, 95880, Note_on_c, 2, 48, 102
6, 95900, Control_c, 2, 7, 87
6, 95920, Control_c, 2, 7, 86
6, 95930, Control_c, 2, 7, 85
6, 95970, Note_on_c, 2, 48, 0
6, 95970, Note_on_c, 2, 60, 0
6, 95970, Note_on_c, 2, 55, 0
6, 95980, Control_c, 2, 7, 84
6, 96000, Note_on_c, 2, 48, 95
6, 96000, Note_on_c, 2, 60, 86
6, 96000, Note_on_c, 2, 55, 89
6, 96010, Control_c, 2, 7, 83
6, 96029, Note_on_c, 2, 55, 0
6, 96029, Note_on_c, 2, 60, 0
6, 96029, Note_on_c, 2, 48, 0
6, 96060, Control_c, 2, 7, 82
6, 96060, Note_on_c, 2, 55, 97
6, 96060, Note_on_c, 2, 60, 94
6, 96089, Note_on_c, 2, 55, 0
6, 96090, Note_on_c, 2, 48, 55
6, 96110, Control_c, 2, 7, 81
6, 96119, Note_on_c, 2, 48, 0
6, 96120, Note_on_c, 2, 60, 0
6, 96120, Note_on_c, 2, 60, 97
6, 96120, Note_on_c, 2, 55, 102
6, 96120, Note_on_c, 2, 48, 106
6, 96170, Control_c, 2, 7, 80
6, 96200, Control_c, 2, 7, 79
6, 96210, Note_on_c, 2, 55, 0
6, 96210, Note_on_c, 2, 60, 0
6, 96240, Control_c, 2, 7, 78
6, 96240, Note_on_c, 2, 55, 81
6, 96240, Note_on_c, 2, 60, 95
6, 96269, Note_on_c, 2, 60, 0
6, 96269, Note_on_c, 2, 55, 0
6, 96270, Note_on_c, 2, 48, 0
6, 96295, Control_c, 2, 7, 77
6, 96300, Note_on_c, 2, 55, 112
6, 96300, Note_on_c, 2, 60, 110
6, 96300, Note_on_c, 2, 48, 79
6, 96320, Control_c, 2, 7, 76
6, 96335, Control_c, 2, 7, 75
6, 96380, Control_c, 2, 7, 74
6, 96390, Note_on_c, 2, 60, 0
6, 96390, Note_on_c, 2, 55, 0
6, 96420, Note_on_c, 2, 48, 0
6, 96420, Note_on_c, 2, 60, 71
6, 96420, Note_on_c, 2, 55, 95
6, 96440, Control_c, 2, 7, 73
6, 96449, Note_on_c, 2, 55, 0
6, 96449, Note_on_c, 2, 60, 0
6, 96450, Note_on_c, 2, 48, 50
6, 96460, Control_c, 2, 7, 72
6, 96479, Note_on_c, 2, 48, 0
6, 96480, Note_on_c, 2, 55, 122
6, 96480, Note_on_c, 2, 60, 122
6, 96480, Note_on_c, 2, 48, 53
6, 96500, Control_c, 2, 7, 71
6, 96530, Control_c, 2, 7, 70
6, 96560, Control_c, 2, 7, 69
6, 96570, Note_on_c, 2, 48, 0
6, 96570, Note_on_c, 2, 60, 0
6, 96570, Note_on_c, 2, 55, 0
6, 96580, Control_c, 2, 7, 68
6, 96630, Control_c, 2, 7, 67
6, 96660, Note_on_c, 2, 55, 112
6, 96660, Note_on_c, 2, 60, 118
6, 96690, Note_on_c, 2, 48, 95
6, 96710, Control_c, 2, 7, 66
6, 96749, Control_c, 2, 7, 65
6, 96750, Note_on_c, 2, 48, 0
6, 96750, Note_on_c, 2, 60, 0
6, 96750, Note_on_c, 2, 55, 0
6, 96780, Note_on_c, 2, 55, 97
6, 96780, Note_on_c, 2, 60, 94
6, 96780, Note_on_c, 2, 48, 89
6, 96790, Control_c, 2, 7, 64
6, 96809, Note_on_c, 2, 60, 0
6, 96809, Note_on_c, 2, 55, 0
6, 96840, Note_on_c, 2, 48, 0
6, 96840, Control_c, 2, 7, 63
6, 96840, Note_on_c, 2, 55, 97
6, 96840, Note_on_c, 2, 60, 102
6, 96845, Control_c, 2, 7, 62
6, 96869, Note_on_c, 2, 55, 0
6, 96870, Note_on_c, 2, 48, 61
6, 96900, Note_on_c, 2, 60, 0
6, 96900, Control_c, 2, 7, 61
6, 96900, Note_on_c, 2, 55, 89
6, 96900, Note_on_c, 2, 60, 80
6, 96929, Note_on_c, 2, 60, 0
6, 96929, Note_on_c, 2, 55, 0
6, 96930, Note_on_c, 2, 48, 0
6, 96930, Control_c, 2, 7, 60
6, 96960, Note_on_c, 2, 48, 114
6, 96960, Note_on_c, 2, 55, 92
6, 96960, Note_on_c, 2, 60, 100
6, 96999, Control_c, 2, 7, 59
6, 97011, Control_c, 2, 64, 127
6, 97020, Note_on_c, 2, 60, 0
6, 97020, Note_on_c, 2, 55, 0
6, 97020, Note_on_c, 2, 48, 0
6, 97025, Control_c, 2, 7, 58
6, 97050, Control_c, 2, 64, 0
6, 97060, Control_c, 2, 7, 57
6, 97080, Note_on_c, 2, 43, 127
6, 97080, Note_on_c, 2, 55, 127
6, 97080, Note_on_c, 2, 50, 127
6, 97089, Control_c, 2, 7, 56
6, 97089, Control_c, 2, 64, 127
6, 97160, Control_c, 2, 7, 55
6, 97200, Control_c, 2, 7, 54
6, 97239, Control_c, 2, 7, 53
6, 97315, Control_c, 2, 7, 52
6, 97350, Note_on_c, 2, 50, 0
6, 97350, Note_on_c, 2, 55, 0
6, 97355, Control_c, 2, 7, 51
6, 97380, Note_on_c, 2, 55, 106
6, 97380, Note_on_c, 2, 50, 102
6, 97395, Control_c, 2, 7, 50
6, 97409, Note_on_c, 2, 50, 0
6, 97409, Note_on_c, 2, 55, 0
6, 97414, Control_c, 2, 7, 49
6, 97440, Note_on_c, 2, 55, 77
6, 97440, Note_on_c, 2, 50, 81
6, 97469, Note_on_c, 2, 50, 0
6, 97469, Note_on_c, 2, 55, 0
6, 97470, Note_on_c, 2, 43, 0
6, 97495, Control_c, 2, 7, 48
6, 97500, Note_on_c, 2, 38, 127
6, 97500, Note_on_c, 2, 57, 127
6, 97500, Control_c, 2, 64, 0
6, 97500, Note_on_c, 2, 50, 127
6, 97512, Control_c, 2, 7, 47
6, 97522, Control_c, 2, 7, 46
6, 97537, Control_c, 2, 7, 45
6, 97560, Control_c, 2, 64, 127
6, 97594, Control_c, 2, 7, 44
6, 97625, Control_c, 2, 7, 43
6, 97665, Control_c, 2, 7, 42
6, 97770, Control_c, 2, 7, 41
6, 97795, Control_c, 2, 7, 40
6, 97830, Note_on_c, 2, 50, 0
6, 97830, Note_on_c, 2, 57, 0
6, 97860, Note_on_c, 2, 57, 112
6, 97860, Note_on_c, 2, 50, 110
6, 97889, Note_on_c, 2, 50, 0
6, 97889, Note_on_c, 2, 57, 0
6, 97895, Control_c, 2, 7, 39
6, 97919, Control_c, 2, 7, 38
6, 97920, Note_on_c, 2, 57, 114
6, 97920, Note_on_c, 2, 50, 125
6, 97949, Note_on_c, 2, 50, 0
6, 97949, Note_on_c, 2, 57, 0
6, 97950, Note_on_c, 2, 38, 0
6, 97971, Control_c, 2, 64, 0
6, 97980, Note_on_c, 2, 45, 125
6, 97980, Note_on_c, 2, 52, 127
6, 97980, Note_on_c, 2, 57, 114
6, 98001, Control_c, 2, 7, 37
6, 98034, Control_c, 2, 64, 127
6, 98042, Control_c, 2, 7, 36
6, 98069, Control_c, 2, 7, 35
6, 98100, Control_c, 2, 7, 34
6, 98130, Note_on_c, 2, 57, 0
6, 98130, Note_on_c, 2, 52, 0
6, 98155, Control_c, 2, 7, 33
6, 98160, Note_on_c, 2, 45, 0
6, 98160, Note_on_c, 2, 57, 127
6, 98160, Note_on_c, 2, 52, 120
6, 98160, Note_on_c, 2, 45, 72
6, 98170, Control_c, 2, 7, 32
6, 98220, Control_c, 2, 7, 31
6, 98250, Note_on_c, 2, 45, 0
6, 98280, Note_on_c, 2, 45, 107
6, 98310, Note_on_c, 2, 52, 0
6, 98310, Note_on_c, 2, 57, 0
6, 98340, Note_on_c, 2, 57, 125
6, 98340, Note_on_c, 2, 52, 110
6, 98370, Note_on_c, 2, 45, 0
6, 98380, Control_c, 2, 7, 30
6, 98400, Note_on_c, 2, 45, 97
6, 98449, Control_c, 2, 7, 29
6, 98475, Control_c, 2, 7, 28
6, 98490, Note_on_c, 2, 52, 0
6, 98490, Note_on_c, 2, 57, 0
6, 98520, Note_on_c, 2, 57, 122
6, 98520, Note_on_c, 2, 52, 103
6, 98525, Control_c, 2, 7, 27
6, 98580, Note_on_c, 2, 45, 0
6, 98595, Control_c, 2, 7, 26
6, 98625, Control_c, 2, 7, 25
6, 98635, Control_c, 2, 7, 24
6, 98640, Note_on_c, 2, 45, 106
6, 98669, Note_on_c, 2, 45, 0
6, 98670, Note_on_c, 2, 52, 0
6, 98670, Note_on_c, 2, 57, 0
6, 98680, Control_c, 2, 64, 0
6, 98690, Control_c, 2, 7, 23
6, 98700, Note_on_c, 2, 50, 122
6, 98700, Note_on_c, 2, 59, 112
6, 98700, Note_on_c, 2, 47, 106
6, 98730, Control_c, 2, 7, 22
6, 98738, Control_c, 2, 7, 21
6, 98738, Control_c, 2, 64, 127
6, 98753, Control_c, 2, 7, 20
6, 98790, Note_on_c, 2, 59, 0
6, 98790, Note_on_c, 2, 50, 0
6, 98820, Note_on_c, 2, 59, 114
6, 98820, Note_on_c, 2, 50, 110
6, 98840, Control_c, 2, 7, 19
6, 98850, Note_on_c, 2, 47, 0
6, 98850, Control_c, 2, 7, 18
6, 98880, Note_on_c, 2, 47, 106
6, 98899, Control_c, 2, 7, 17
6, 98940, Control_c, 2, 7, 16
6, 98970, Note_on_c, 2, 47, 0
6, 98991, Control_c, 2, 64, 0
6, 99000, Note_on_c, 2, 50, 0
6, 99000, Note_on_c, 2, 59, 0
6, 99000, Note_on_c, 2, 50, 122
6, 99000, Note_on_c, 2, 55, 127
6, 99000, Note_on_c, 2, 43, 127
6, 99024, Control_c, 2, 7, 15
6, 99063, Control_c, 2, 64, 127
6, 99073, Control_c, 2, 7, 14
6, 99113, Control_c, 2, 7, 13
6, 99175, Control_c, 2, 7, 12
6, 99225, Control_c, 2, 7, 11
6, 99256, Control_c, 2, 7, 10
6, 99270, Note_on_c, 2, 55, 0
6, 99270, Note_on_c, 2, 50, 0
6, 99275, Control_c, 2, 7, 9
6, 99300, Note_on_c, 2, 55, 112
6, 99300, Note_on_c, 2, 50, 103
6, 99325, Control_c, 2, 7, 8
6, 99329, Note_on_c, 2, 50, 0
6, 99329, Note_on_c, 2, 55, 0
6, 99330, Note_on_c, 2, 55, 97
6, 99330, Note_on_c, 2, 50, 103
6, 99335, Control_c, 2, 7, 7
6, 99360, Note_on_c, 2, 43, 0
6, 99365, Control_c, 2, 7, 6
6, 99389, Control_c, 2, 7, 5
6, 99390, Note_on_c, 2, 50, 0
6, 99390, Note_on_c, 2, 55, 0
6, 99404, Control_c, 2, 64, 0
6, 99420, Note_on_c, 2, 38, 125
6, 99420, Note_on_c, 2, 57, 127
6, 99420, Note_on_c, 2, 50, 125
6, 99445, Control_c, 2, 7, 4
6, 99458, Control_c, 2, 64, 127
6, 99495, Control_c, 2, 7, 3
6, 99546, Control_c, 2, 7, 2
6, 99634, Control_c, 2, 64, 127
6, 99669, Control_c, 2, 7, 1
6, 99698, Control_c, 2, 64, 0
6, 99718, Control_c, 2, 7, 0
6, 99750, Note_on_c, 2, 50, 0
6, 99750, Note_on_c, 2, 57, 0
6, 99870, Note_on_c, 2, 38, 0
6, 99870, End_track
7, 0, Start_track
7, 0, MIDI_port, 0
7, 0, Title_t, "Piano"
7, 0, Program_c, 5, 0
7, 0, Control_c, 5, 7, 119
7, 0, Control_c, 5, 10, 64
7, 0, Control_c, 5, 93, 9
7, 0, Control_c, 5, 91, 48
7, 48122, Note_on_c, 5, 55, 125
7, 48239, Note_on_c, 5, 74, 127
7, 48239, Note_on_c, 5, 79, 127
7, 48241, Note_on_c, 5, 71, 127
7, 48565, Note_on_c, 5, 71, 0
7, 48565, Note_on_c, 5, 74, 0
7, 48567, Note_on_c, 5, 79, 0
7, 48596, Note_on_c, 5, 74, 127
7, 48598, Note_on_c, 5, 83, 127
7, 48598, Note_on_c, 5, 71, 127
7, 48772, Note_on_c, 5, 83, 0
7, 48773, Note_on_c, 5, 74, 0
7, 48776, Note_on_c, 5, 71, 0
7, 48794, Note_on_c, 5, 71, 106
7, 48794, Note_on_c, 5, 74, 120
7, 48797, Note_on_c, 5, 79, 127
7, 48942, Note_on_c, 5, 55, 0
7, 48963, Note_on_c, 5, 55, 125
7, 49038, Note_on_c, 5, 74, 0
7, 49041, Note_on_c, 5, 71, 0
7, 49043, Note_on_c, 5, 55, 0
7, 49047, Note_on_c, 5, 79, 0
7, 49082, Note_on_c, 5, 53, 127
7, 49085, Note_on_c, 5, 77, 127
7, 49085, Note_on_c, 5, 81, 127
7, 49085, Note_on_c, 5, 72, 127
7, 49533, Note_on_c, 5, 53, 0
7, 49534, Note_on_c, 5, 72, 0
7, 49535, Note_on_c, 5, 77, 0
7, 49538, Note_on_c, 5, 81, 0
7, 49564, Note_on_c, 5, 53, 127
7, 49567, Note_on_c, 5, 77, 127
7, 49567, Note_on_c, 5, 81, 118
7, 49569, Note_on_c, 5, 72, 127
7, 50013, Note_on_c, 5, 72, 0
7, 50013, Note_on_c, 5, 53, 0
7, 50013, Note_on_c, 5, 77, 0
7, 50016, Note_on_c, 5, 81, 0
7, 50048, Note_on_c, 5, 53, 127
7, 50048, Note_on_c, 5, 81, 127
7, 50051, Note_on_c, 5, 77, 127
7, 50051, Note_on_c, 5, 72, 127
7, 50196, Note_on_c, 5, 53, 0
7, 50198, Note_on_c, 5, 72, 0
7, 50199, Note_on_c, 5, 77, 0
7, 50205, Note_on_c, 5, 81, 0
7, 50224, Note_on_c, 5, 77, 127
7, 50225, Note_on_c, 5, 53, 127
7, 50226, Note_on_c, 5, 72, 127
7, 50370, Note_on_c, 5, 53, 0
7, 50370, Note_on_c, 5, 77, 0
7, 50371, Note_on_c, 5, 72, 0
7, 50394, Note_on_c, 5, 77, 127
7, 50394, Note_on_c, 5, 81, 120
7, 50395, Note_on_c, 5, 53, 127
7, 50395, Note_on_c, 5, 72, 127
7, 50458, Note_on_c, 5, 72, 0
7, 50467, Note_on_c, 5, 77, 0
7, 50478, Note_on_c, 5, 81, 0
7, 50533, Note_on_c, 5, 95, 127
7, 50537, Note_on_c, 5, 53, 0
7, 50556, Note_on_c, 5, 93, 89
7, 50570, Note_on_c, 5, 95, 0
7, 50572, Note_on_c, 5, 91, 80
7, 50593, Note_on_c, 5, 93, 0
7, 50594, Note_on_c, 5, 89, 94
7, 50610, Note_on_c, 5, 91, 0
7, 50612, Note_on_c, 5, 88, 94
7, 50626, Note_on_c, 5, 89, 0
7, 50627, Note_on_c, 5, 86, 94
7, 50642, Note_on_c, 5, 88, 0
7, 50644, Note_on_c, 5, 84, 94
7, 50660, Note_on_c, 5, 86, 0
7, 50661, Note_on_c, 5, 83, 89
7, 50676, Note_on_c, 5, 81, 106
7, 50678, Note_on_c, 5, 84, 0
7, 50693, Note_on_c, 5, 79, 103
7, 50695, Note_on_c, 5, 83, 0
7, 50710, Note_on_c, 5, 77, 114
7, 50711, Note_on_c, 5, 81, 0
7, 50727, Note_on_c, 5, 76, 114
7, 50728, Note_on_c, 5, 79, 0
7, 50740, Note_on_c, 5, 74, 114
7, 50743, Note_on_c, 5, 77, 0
7, 50757, Note_on_c, 5, 76, 0
7, 50757, Note_on_c, 5, 72, 110
7, 50773, Note_on_c, 5, 74, 0
7, 50773, Note_on_c, 5, 71, 103
7, 50787, Note_on_c, 5, 72, 0
7, 50787, Note_on_c, 5, 69, 112
7, 50801, Note_on_c, 5, 67, 112
7, 50802, Note_on_c, 5, 71, 0
7, 50817, Note_on_c, 5, 69, 0
7, 50817, Note_on_c, 5, 65, 103
7, 50833, Note_on_c, 5, 64, 103
7, 50836, Note_on_c, 5, 67, 0
7, 50848, Note_on_c, 5, 62, 112
7, 50849, Note_on_c, 5, 65, 0
7, 50866, Note_on_c, 5, 64, 0
7, 50866, Note_on_c, 5, 60, 102
7, 50882, Note_on_c, 5, 59, 106
7, 50883, Note_on_c, 5, 62, 0
7, 50899, Note_on_c, 5, 60, 0
7, 50900, Note_on_c, 5, 57, 103
7, 50916, Note_on_c, 5, 59, 0
7, 50918, Note_on_c, 5, 55, 94
7, 50930, Note_on_c, 5, 57, 0
7, 50932, Note_on_c, 5, 53, 112
7, 50946, Note_on_c, 5, 55, 0
7, 50951, Note_on_c, 5, 52, 77
7, 50962, Note_on_c, 5, 53, 0
7, 50976, Note_on_c, 5, 52, 0
7, 50976, End_track
8, 0, Start_track
8, 0, MIDI_port, 0
8, 0, Title_t, "Guitar Feedback"
8, 0, Program_c, 8, 31
8, 0, Control_c, 8, 7, 98
8, 0, Control_c, 8, 10, 64
8, 0, Control_c, 8, 93, 7
8, 0, Control_c, 8, 91, 53
8, 73087, Note_on_c, 8, 55, 112
8, 73088, Note_on_c, 8, 43, 120
8, 73702, Pitch_bend_c, 8, 10496
8, 73767, Pitch_bend_c, 8, 11008
8, 73807, Pitch_bend_c, 8, 11520
8, 73873, Pitch_bend_c, 8, 12032
8, 73916, Pitch_bend_c, 8, 12544
8, 73953, Pitch_bend_c, 8, 13056
8, 73982, Pitch_bend_c, 8, 13568
8, 74034, Pitch_bend_c, 8, 14080
8, 74161, Pitch_bend_c, 8, 14592
8, 74262, Pitch_bend_c, 8, 15104
8, 74917, Pitch_bend_c, 8, 14592
8, 75019, Pitch_bend_c, 8, 14080
8, 75127, Pitch_bend_c, 8, 13568
8, 75244, Pitch_bend_c, 8, 13056
8, 75329, Pitch_bend_c, 8, 12544
8, 75387, Pitch_bend_c, 8, 12032
8, 75447, Pitch_bend_c, 8, 11520
8, 75492, Pitch_bend_c, 8, 11008
8, 75529, Pitch_bend_c, 8, 10496
8, 75557, Pitch_bend_c, 8, 8192
8, 75688, Note_on_c, 8, 43, 0
8, 75716, Note_on_c, 8, 55, 0
8, 75716, End_track
9, 0, Start_track
9, 0, MIDI_port, 0
9, 0, Title_t, "Vocal Line"
9, 0, Program_c, 6, 24
9, 0, Control_c, 6, 7, 118
9, 0, Control_c, 6, 10, 64
9, 0, Control_c, 6, 93, 63
9, 0, Control_c, 6, 91, 47
9, 1204, Note_on_c, 6, 62, 125
9, 1254, Note_on_c, 6, 62, 0
9, 1321, Note_on_c, 6, 62, 127
9, 1373, Note_on_c, 6, 62, 0
9, 1446, Note_on_c, 6, 62, 122
9, 1498, Note_on_c, 6, 62, 0
9, 1557, Note_on_c, 6, 62, 127
9, 1681, Note_on_c, 6, 62, 0
9, 1743, Note_on_c, 6, 62, 125
9, 1803, Note_on_c, 6, 62, 0
9, 1863, Note_on_c, 6, 59, 122
9, 1972, Note_on_c, 6, 59, 0
9, 2038, Note_on_c, 6, 60, 127
9, 2156, Note_on_c, 6, 60, 0
9, 2284, Note_on_c, 6, 60, 127
9, 2378, Note_on_c, 6, 60, 0
9, 2520, Note_on_c, 6, 60, 127
9, 2589, Note_on_c, 6, 60, 0
9, 2643, Note_on_c, 6, 60, 127
9, 2673, Note_on_c, 6, 60, 0
9, 2705, Note_on_c, 6, 60, 122
9, 2835, Note_on_c, 6, 60, 0
9, 2885, Note_on_c, 6, 59, 122
9, 2921, Note_on_c, 6, 59, 0
9, 2945, Note_on_c, 6, 59, 106
9, 2981, Note_on_c, 6, 59, 0
9, 3004, Note_on_c, 6, 59, 106
9, 3041, Note_on_c, 6, 59, 0
9, 3066, Note_on_c, 6, 59, 114
9, 3394, Note_on_c, 6, 59, 0
9, 3478, Note_on_c, 6, 59, 125
9, 3516, Note_on_c, 6, 59, 0
9, 3540, Note_on_c, 6, 59, 114
9, 3636, Note_on_c, 6, 59, 0
9, 3668, Note_on_c, 6, 57, 122
9, 3751, Note_on_c, 6, 57, 0
9, 3794, Note_on_c, 6, 59, 122
9, 3877, Note_on_c, 6, 59, 0
9, 3925, Note_on_c, 6, 60, 127
9, 3994, Note_on_c, 6, 60, 0
9, 4025, Note_on_c, 6, 59, 127
9, 4094, Note_on_c, 6, 59, 0
9, 4118, Note_on_c, 6, 57, 125
9, 4461, Note_on_c, 6, 57, 0
9, 4918, Note_on_c, 6, 62, 127
9, 5001, Note_on_c, 6, 62, 0
9, 5040, Note_on_c, 6, 62, 125
9, 5074, Note_on_c, 6, 62, 0
9, 5101, Note_on_c, 6, 62, 106
9, 5135, Note_on_c, 6, 62, 0
9, 5163, Note_on_c, 6, 62, 114
9, 5197, Note_on_c, 6, 62, 0
9, 5221, Note_on_c, 6, 62, 97
9, 5252, Note_on_c, 6, 62, 0
9, 5282, Note_on_c, 6, 62, 125
9, 5355, Note_on_c, 6, 62, 0
9, 5401, Note_on_c, 6, 62, 125
9, 5433, Note_on_c, 6, 62, 0
9, 5463, Note_on_c, 6, 62, 114
9, 5492, Note_on_c, 6, 62, 0
9, 5522, Note_on_c, 6, 62, 114
9, 5553, Note_on_c, 6, 62, 0
9, 5581, Note_on_c, 6, 62, 112
9, 5614, Note_on_c, 6, 62, 0
9, 5645, Note_on_c, 6, 62, 125
9, 5712, Note_on_c, 6, 62, 0
9, 5755, Note_on_c, 6, 62, 127
9, 5828, Note_on_c, 6, 62, 0
9, 5884, Note_on_c, 6, 62, 127
9, 5961, Note_on_c, 6, 62, 0
9, 6006, Note_on_c, 6, 62, 125
9, 6041, Note_on_c, 6, 62, 0
9, 6071, Note_on_c, 6, 62, 106
9, 6103, Note_on_c, 6, 62, 0
9, 6126, Note_on_c, 6, 62, 114
9, 6187, Note_on_c, 6, 62, 0
9, 6236, Note_on_c, 6, 62, 125
9, 6304, Note_on_c, 6, 62, 0
9, 6356, Note_on_c, 6, 62, 122
9, 6390, Note_on_c, 6, 62, 0
9, 6420, Note_on_c, 6, 62, 106
9, 6455, Note_on_c, 6, 62, 0
9, 6484, Note_on_c, 6, 62, 106
9, 6517, Note_on_c, 6, 62, 0
9, 6542, Note_on_c, 6, 62, 89
9, 6573, Note_on_c, 6, 62, 0
9, 6598, Note_on_c, 6, 62, 106
9, 6655, Note_on_c, 6, 62, 0
9, 6717, Note_on_c, 6, 62, 127
9, 6785, Note_on_c, 6, 62, 0
9, 6842, Note_on_c, 6, 62, 125
9, 6875, Note_on_c, 6, 62, 0
9, 6903, Note_on_c, 6, 62, 106
9, 6937, Note_on_c, 6, 62, 0
9, 6966, Note_on_c, 6, 62, 106
9, 7000, Note_on_c, 6, 62, 0
9, 7023, Note_on_c, 6, 62, 106
9, 7061, Note_on_c, 6, 62, 0
9, 7089, Note_on_c, 6, 62, 125
9, 7152, Note_on_c, 6, 62, 0
9, 7199, Note_on_c, 6, 62, 127
9, 7265, Note_on_c, 6, 62, 0
9, 7318, Note_on_c, 6, 62, 127
9, 7383, Note_on_c, 6, 62, 0
9, 7434, Note_on_c, 6, 62, 127
9, 7503, Note_on_c, 6, 62, 0
9, 7556, Note_on_c, 6, 62, 127
9, 7626, Note_on_c, 6, 62, 0
9, 7676, Note_on_c, 6, 62, 125
9, 7737, Note_on_c, 6, 62, 0
9, 7800, Note_on_c, 6, 62, 122
9, 7833, Note_on_c, 6, 62, 0
9, 7858, Note_on_c, 6, 62, 106
9, 7889, Note_on_c, 6, 62, 0
9, 7914, Note_on_c, 6, 62, 97
9, 7949, Note_on_c, 6, 62, 0
9, 7971, Note_on_c, 6, 62, 97
9, 8007, Note_on_c, 6, 62, 0
9, 8035, Note_on_c, 6, 62, 114
9, 8074, Note_on_c, 6, 62, 0
9, 8102, Note_on_c, 6, 62, 106
9, 8134, Note_on_c, 6, 62, 0
9, 8159, Note_on_c, 6, 62, 114
9, 8232, Note_on_c, 6, 62, 0
9, 8283, Note_on_c, 6, 62, 125
9, 8314, Note_on_c, 6, 62, 0
9, 8340, Note_on_c, 6, 62, 97
9, 8372, Note_on_c, 6, 62, 0
9, 8397, Note_on_c, 6, 62, 114
9, 8464, Note_on_c, 6, 62, 0
9, 8516, Note_on_c, 6, 62, 125
9, 8586, Note_on_c, 6, 62, 0
9, 8633, Note_on_c, 6, 62, 122
9, 8704, Note_on_c, 6, 62, 0
9, 8768, Note_on_c, 6, 62, 125
9, 8801, Note_on_c, 6, 62, 0
9, 8828, Note_on_c, 6, 62, 106
9, 8859, Note_on_c, 6, 62, 0
9, 8888, Note_on_c, 6, 62, 97
9, 8919, Note_on_c, 6, 62, 0
9, 8947, Note_on_c, 6, 62, 103
9, 8978, Note_on_c, 6, 62, 0
9, 9007, Note_on_c, 6, 62, 106
9, 9038, Note_on_c, 6, 62, 0
9, 9069, Note_on_c, 6, 62, 114
9, 9100, Note_on_c, 6, 62, 0
9, 9130, Note_on_c, 6, 62, 106
9, 9160, Note_on_c, 6, 62, 0
9, 9186, Note_on_c, 6, 62, 97
9, 9218, Note_on_c, 6, 62, 0
9, 9246, Note_on_c, 6, 62, 106
9, 9278, Note_on_c, 6, 62, 0
9, 9309, Note_on_c, 6, 62, 106
9, 9340, Note_on_c, 6, 62, 0
9, 9371, Note_on_c, 6, 62, 106
9, 9400, Note_on_c, 6, 62, 0
9, 9433, Note_on_c, 6, 62, 97
9, 9464, Note_on_c, 6, 62, 0
9, 9488, Note_on_c, 6, 62, 125
9, 9547, Note_on_c, 6, 62, 0
9, 9601, Note_on_c, 6, 62, 125
9, 9631, Note_on_c, 6, 62, 0
9, 9665, Note_on_c, 6, 62, 114
9, 9694, Note_on_c, 6, 62, 0
9, 9725, Note_on_c, 6, 62, 106
9, 9755, Note_on_c, 6, 62, 0
9, 9783, Note_on_c, 6, 62, 106
9, 9814, Note_on_c, 6, 62, 0
9, 9842, Note_on_c, 6, 62, 106
9, 9875, Note_on_c, 6, 62, 0
9, 9898, Note_on_c, 6, 62, 97
9, 9927, Note_on_c, 6, 62, 0
9, 9948, Note_on_c, 6, 62, 103
9, 9981, Note_on_c, 6, 62, 0
9, 10015, Note_on_c, 6, 62, 114
9, 10049, Note_on_c, 6, 62, 0
9, 10080, Note_on_c, 6, 62, 125
9, 10113, Note_on_c, 6, 62, 0
9, 10142, Note_on_c, 6, 62, 106
9, 10176, Note_on_c, 6, 62, 0
9, 10201, Note_on_c, 6, 62, 125
9, 10265, Note_on_c, 6, 62, 0
9, 10317, Note_on_c, 6, 62, 125
9, 10380, Note_on_c, 6, 62, 0
9, 10435, Note_on_c, 6, 62, 127
9, 10514, Note_on_c, 6, 62, 0
9, 10680, Note_on_c, 6, 62, 127
9, 10713, Note_on_c, 6, 62, 0
9, 10738, Note_on_c, 6, 62, 114
9, 10770, Note_on_c, 6, 62, 0
9, 10799, Note_on_c, 6, 62, 114
9, 10834, Note_on_c, 6, 62, 0
9, 10859, Note_on_c, 6, 62, 114
9, 10891, Note_on_c, 6, 62, 0
9, 10917, Note_on_c, 6, 62, 106
9, 10950, Note_on_c, 6, 62, 0
9, 10972, Note_on_c, 6, 62, 114
9, 11005, Note_on_c, 6, 62, 0
9, 11030, Note_on_c, 6, 62, 125
9, 11063, Note_on_c, 6, 62, 0
9, 11089, Note_on_c, 6, 62, 125
9, 11123, Note_on_c, 6, 62, 0
9, 11152, Note_on_c, 6, 62, 114
9, 11187, Note_on_c, 6, 62, 0
9, 11213, Note_on_c, 6, 62, 114
9, 11249, Note_on_c, 6, 62, 0
9, 11273, Note_on_c, 6, 62, 114
9, 11310, Note_on_c, 6, 62, 0
9, 11333, Note_on_c, 6, 62, 106
9, 11371, Note_on_c, 6, 62, 0
9, 11391, Note_on_c, 6, 62, 97
9, 11426, Note_on_c, 6, 62, 0
9, 11455, Note_on_c, 6, 62, 112
9, 11487, Note_on_c, 6, 62, 0
9, 11515, Note_on_c, 6, 62, 125
9, 11570, Note_on_c, 6, 62, 0
9, 11577, Note_on_c, 6, 59, 125
9, 11616, Note_on_c, 6, 59, 0
9, 11648, Note_on_c, 6, 60, 127
9, 11795, Note_on_c, 6, 60, 0
9, 11885, Note_on_c, 6, 59, 127
9, 11997, Note_on_c, 6, 59, 0
9, 12121, Note_on_c, 6, 55, 127
9, 12483, Note_on_c, 6, 55, 0
9, 12604, Note_on_c, 6, 62, 127
9, 12636, Note_on_c, 6, 62, 0
9, 12657, Note_on_c, 6, 62, 97
9, 12690, Note_on_c, 6, 62, 0
9, 12717, Note_on_c, 6, 62, 106
9, 12750, Note_on_c, 6, 62, 0
9, 12774, Note_on_c, 6, 62, 106
9, 12809, Note_on_c, 6, 62, 0
9, 12836, Note_on_c, 6, 62, 106
9, 12869, Note_on_c, 6, 62, 0
9, 12896, Note_on_c, 6, 62, 106
9, 12928, Note_on_c, 6, 62, 0
9, 12955, Note_on_c, 6, 62, 114
9, 12984, Note_on_c, 6, 62, 0
9, 13009, Note_on_c, 6, 62, 114
9, 13044, Note_on_c, 6, 62, 0
9, 13073, Note_on_c, 6, 62, 122
9, 13159, Note_on_c, 6, 62, 0
9, 13202, Note_on_c, 6, 62, 114
9, 13233, Note_on_c, 6, 62, 0
9, 13259, Note_on_c, 6, 62, 114
9, 13294, Note_on_c, 6, 62, 0
9, 13313, Note_on_c, 6, 62, 114
9, 13379, Note_on_c, 6, 62, 0
9, 13556, Note_on_c, 6, 62, 127
9, 13593, Note_on_c, 6, 62, 0
9, 13614, Note_on_c, 6, 62, 106
9, 13651, Note_on_c, 6, 62, 0
9, 13679, Note_on_c, 6, 62, 114
9, 13743, Note_on_c, 6, 62, 0
9, 13795, Note_on_c, 6, 62, 127
9, 13864, Note_on_c, 6, 62, 0
9, 13917, Note_on_c, 6, 62, 127
9, 13983, Note_on_c, 6, 62, 0
9, 14037, Note_on_c, 6, 62, 127
9, 14149, Note_on_c, 6, 62, 0
9, 14287, Note_on_c, 6, 62, 127
9, 14380, Note_on_c, 6, 62, 0
9, 14517, Note_on_c, 6, 62, 127
9, 14584, Note_on_c, 6, 62, 0
9, 14645, Note_on_c, 6, 62, 127
9, 14710, Note_on_c, 6, 62, 0
9, 14763, Note_on_c, 6, 62, 125
9, 14795, Note_on_c, 6, 62, 0
9, 14819, Note_on_c, 6, 62, 106
9, 14852, Note_on_c, 6, 62, 0
9, 14878, Note_on_c, 6, 62, 122
9, 14944, Note_on_c, 6, 62, 0
9, 15002, Note_on_c, 6, 62, 127
9, 15035, Note_on_c, 6, 62, 0
9, 15061, Note_on_c, 6, 62, 114
9, 15096, Note_on_c, 6, 62, 0
9, 15120, Note_on_c, 6, 62, 106
9, 15152, Note_on_c, 6, 62, 0
9, 15181, Note_on_c, 6, 62, 106
9, 15212, Note_on_c, 6, 62, 0
9, 15237, Note_on_c, 6, 62, 97
9, 15269, Note_on_c, 6, 62, 0
9, 15297, Note_on_c, 6, 62, 114
9, 15328, Note_on_c, 6, 62, 0
9, 15358, Note_on_c, 6, 62, 106
9, 15389, Note_on_c, 6, 62, 0
9, 15417, Note_on_c, 6, 62, 112
9, 15451, Note_on_c, 6, 62, 0
9, 15481, Note_on_c, 6, 62, 106
9, 15510, Note_on_c, 6, 62, 0
9, 15536, Note_on_c, 6, 62, 106
9, 15568, Note_on_c, 6, 62, 0
9, 15603, Note_on_c, 6, 62, 125
9, 15674, Note_on_c, 6, 62, 0
9, 15730, Note_on_c, 6, 62, 122
9, 15765, Note_on_c, 6, 62, 0
9, 15788, Note_on_c, 6, 62, 106
9, 15822, Note_on_c, 6, 62, 0
9, 15846, Note_on_c, 6, 62, 114
9, 15906, Note_on_c, 6, 62, 0
9, 15953, Note_on_c, 6, 62, 125
9, 15986, Note_on_c, 6, 62, 0
9, 16010, Note_on_c, 6, 62, 106
9, 16044, Note_on_c, 6, 62, 0
9, 16069, Note_on_c, 6, 62, 114
9, 16135, Note_on_c, 6, 62, 0
9, 16204, Note_on_c, 6, 62, 127
9, 16273, Note_on_c, 6, 62, 0
9, 16318, Note_on_c, 6, 62, 125
9, 16357, Note_on_c, 6, 62, 0
9, 16380, Note_on_c, 6, 62, 106
9, 16415, Note_on_c, 6, 62, 0
9, 16440, Note_on_c, 6, 62, 114
9, 16503, Note_on_c, 6, 62, 0
9, 16563, Note_on_c, 6, 62, 127
9, 16633, Note_on_c, 6, 62, 0
9, 16680, Note_on_c, 6, 62, 127
9, 16714, Note_on_c, 6, 62, 0
9, 16735, Note_on_c, 6, 62, 114
9, 16770, Note_on_c, 6, 62, 0
9, 16798, Note_on_c, 6, 62, 114
9, 16832, Note_on_c, 6, 62, 0
9, 16856, Note_on_c, 6, 62, 114
9, 16893, Note_on_c, 6, 62, 0
9, 16919, Note_on_c, 6, 62, 114
9, 16990, Note_on_c, 6, 62, 0
9, 17038, Note_on_c, 6, 62, 122
9, 17100, Note_on_c, 6, 62, 0
9, 17147, Note_on_c, 6, 62, 125
9, 17184, Note_on_c, 6, 62, 0
9, 17210, Note_on_c, 6, 62, 97
9, 17243, Note_on_c, 6, 62, 0
9, 17274, Note_on_c, 6, 62, 103
9, 17309, Note_on_c, 6, 62, 0
9, 17336, Note_on_c, 6, 62, 106
9, 17369, Note_on_c, 6, 62, 0
9, 17395, Note_on_c, 6, 62, 106
9, 17433, Note_on_c, 6, 62, 0
9, 17464, Note_on_c, 6, 62, 77
9, 17495, Note_on_c, 6, 62, 0
9, 17516, Note_on_c, 6, 62, 97
9, 17552, Note_on_c, 6, 62, 0
9, 17578, Note_on_c, 6, 62, 114
9, 17617, Note_on_c, 6, 62, 0
9, 17643, Note_on_c, 6, 62, 106
9, 17677, Note_on_c, 6, 62, 0
9, 17701, Note_on_c, 6, 62, 97
9, 17735, Note_on_c, 6, 62, 0
9, 17760, Note_on_c, 6, 62, 106
9, 17792, Note_on_c, 6, 62, 0
9, 17812, Note_on_c, 6, 62, 103
9, 17851, Note_on_c, 6, 62, 0
9, 17885, Note_on_c, 6, 62, 125
9, 17992, Note_on_c, 6, 62, 0
9, 18121, Note_on_c, 6, 62, 127
9, 18189, Note_on_c, 6, 62, 0
9, 18249, Note_on_c, 6, 62, 127
9, 18307, Note_on_c, 6, 62, 0
9, 18361, Note_on_c, 6, 62, 125
9, 18396, Note_on_c, 6, 62, 0
9, 18420, Note_on_c, 6, 62, 114
9, 18452, Note_on_c, 6, 62, 0
9, 18479, Note_on_c, 6, 62, 114
9, 18514, Note_on_c, 6, 62, 0
9, 18540, Note_on_c, 6, 62, 106
9, 18573, Note_on_c, 6, 62, 0
9, 18598, Note_on_c, 6, 62, 97
9, 18631, Note_on_c, 6, 62, 0
9, 18654, Note_on_c, 6, 62, 106
9, 18691, Note_on_c, 6, 62, 0
9, 18715, Note_on_c, 6, 62, 97
9, 18750, Note_on_c, 6, 62, 0
9, 18772, Note_on_c, 6, 62, 106
9, 18808, Note_on_c, 6, 62, 0
9, 18837, Note_on_c, 6, 62, 125
9, 18907, Note_on_c, 6, 62, 0
9, 18957, Note_on_c, 6, 62, 125
9, 19029, Note_on_c, 6, 62, 0
9, 19078, Note_on_c, 6, 62, 127
9, 19149, Note_on_c, 6, 62, 0
9, 19192, Note_on_c, 6, 62, 125
9, 19260, Note_on_c, 6, 62, 0
9, 19316, Note_on_c, 6, 62, 127
9, 19356, Note_on_c, 6, 62, 0
9, 19378, Note_on_c, 6, 62, 114
9, 19477, Note_on_c, 6, 62, 0
9, 19555, Note_on_c, 6, 62, 127
9, 19593, Note_on_c, 6, 62, 0
9, 19621, Note_on_c, 6, 62, 122
9, 19683, Note_on_c, 6, 62, 0
9, 19737, Note_on_c, 6, 62, 127
9, 19854, Note_on_c, 6, 62, 0
9, 20037, Note_on_c, 6, 59, 127
9, 20117, Note_on_c, 6, 59, 0
9, 20162, Note_on_c, 6, 57, 127
9, 20235, Note_on_c, 6, 57, 0
9, 20284, Note_on_c, 6, 55, 127
9, 20452, Note_on_c, 6, 55, 0
9, 20461, Note_on_c, 6, 62, 127
9, 20602, Note_on_c, 6, 62, 0
9, 20643, Note_on_c, 6, 62, 125
9, 20674, Note_on_c, 6, 62, 0
9, 20704, Note_on_c, 6, 62, 127
9, 20979, Note_on_c, 6, 62, 0
9, 20998, Note_on_c, 6, 57, 125
9, 21097, Note_on_c, 6, 57, 0
9, 21115, Note_on_c, 6, 59, 125
9, 21219, Note_on_c, 6, 59, 0
9, 21242, Note_on_c, 6, 60, 127
9, 21287, Note_on_c, 6, 60, 0
9, 21310, Note_on_c, 6, 59, 127
9, 21458, Note_on_c, 6, 59, 0
9, 21716, Note_on_c, 6, 60, 127
9, 21832, Note_on_c, 6, 60, 0
9, 21894, Note_on_c, 6, 60, 125
9, 21924, Note_on_c, 6, 59, 125
9, 21932, Note_on_c, 6, 60, 0
9, 22157, Note_on_c, 6, 59, 0
9, 22191, Note_on_c, 6, 55, 127
9, 22367, Note_on_c, 6, 55, 0
9, 22383, Note_on_c, 6, 62, 114
9, 22532, Note_on_c, 6, 62, 0
9, 22570, Note_on_c, 6, 62, 114
9, 22606, Note_on_c, 6, 62, 0
9, 22633, Note_on_c, 6, 62, 125
9, 22902, Note_on_c, 6, 62, 0
9, 22920, Note_on_c, 6, 57, 114
9, 23017, Note_on_c, 6, 57, 0
9, 23041, Note_on_c, 6, 59, 114
9, 23138, Note_on_c, 6, 59, 0
9, 23166, Note_on_c, 6, 60, 125
9, 23217, Note_on_c, 6, 60, 0
9, 23232, Note_on_c, 6, 59, 127
9, 23389, Note_on_c, 6, 59, 0
9, 23630, Note_on_c, 6, 60, 127
9, 23760, Note_on_c, 6, 60, 0
9, 23830, Note_on_c, 6, 59, 127
9, 24082, Note_on_c, 6, 59, 0
9, 24122, Note_on_c, 6, 55, 125
9, 24275, Note_on_c, 6, 55, 0
9, 24303, Note_on_c, 6, 62, 114
9, 24452, Note_on_c, 6, 62, 0
9, 24489, Note_on_c, 6, 62, 114
9, 24528, Note_on_c, 6, 62, 0
9, 24553, Note_on_c, 6, 62, 125
9, 24832, Note_on_c, 6, 62, 0
9, 24850, Note_on_c, 6, 57, 122
9, 24951, Note_on_c, 6, 57, 0
9, 24969, Note_on_c, 6, 59, 114
9, 25061, Note_on_c, 6, 59, 0
9, 25092, Note_on_c, 6, 60, 122
9, 25147, Note_on_c, 6, 60, 0
9, 25161, Note_on_c, 6, 59, 122
9, 25299, Note_on_c, 6, 59, 0
9, 25442, Note_on_c, 6, 57, 114
9, 25485, Note_on_c, 6, 57, 0
9, 25507, Note_on_c, 6, 60, 127
9, 25739, Note_on_c, 6, 60, 0
9, 25764, Note_on_c, 6, 59, 127
9, 26023, Note_on_c, 6, 59, 0
9, 26048, Note_on_c, 6, 55, 127
9, 27034, Note_on_c, 6, 55, 0
9, 27967, Note_on_c, 6, 62, 127
9, 28001, Note_on_c, 6, 62, 0
9, 28026, Note_on_c, 6, 62, 125
9, 28058, Note_on_c, 6, 62, 0
9, 28084, Note_on_c, 6, 62, 127
9, 28159, Note_on_c, 6, 62, 0
9, 28208, Note_on_c, 6, 62, 125
9, 28242, Note_on_c, 6, 62, 0
9, 28265, Note_on_c, 6, 62, 125
9, 28298, Note_on_c, 6, 62, 0
9, 28323, Note_on_c, 6, 62, 125
9, 28385, Note_on_c, 6, 62, 0
9, 28434, Note_on_c, 6, 62, 125
9, 28466, Note_on_c, 6, 62, 0
9, 28488, Note_on_c, 6, 62, 106
9, 28521, Note_on_c, 6, 62, 0
9, 28549, Note_on_c, 6, 62, 112
9, 28578, Note_on_c, 6, 62, 0
9, 28606, Note_on_c, 6, 62, 106
9, 28637, Note_on_c, 6, 62, 0
9, 28665, Note_on_c, 6, 62, 114
9, 28696, Note_on_c, 6, 62, 0
9, 28727, Note_on_c, 6, 62, 125
9, 28759, Note_on_c, 6, 62, 0
9, 28790, Note_on_c, 6, 62, 114
9, 28856, Note_on_c, 6, 62, 0
9, 28930, Note_on_c, 6, 62, 122
9, 28967, Note_on_c, 6, 62, 0
9, 28987, Note_on_c, 6, 62, 114
9, 29023, Note_on_c, 6, 62, 0
9, 29048, Note_on_c, 6, 62, 125
9, 29111, Note_on_c, 6, 62, 0
9, 29168, Note_on_c, 6, 62, 125
9, 29231, Note_on_c, 6, 62, 0
9, 29279, Note_on_c, 6, 62, 127
9, 29346, Note_on_c, 6, 62, 0
9, 29396, Note_on_c, 6, 62, 125
9, 29434, Note_on_c, 6, 62, 0
9, 29459, Note_on_c, 6, 62, 114
9, 29494, Note_on_c, 6, 62, 0
9, 29519, Note_on_c, 6, 62, 106
9, 29553, Note_on_c, 6, 62, 0
9, 29575, Note_on_c, 6, 62, 106
9, 29610, Note_on_c, 6, 62, 0
9, 29636, Note_on_c, 6, 62, 114
9, 29700, Note_on_c, 6, 62, 0
9, 29758, Note_on_c, 6, 62, 114
9, 29823, Note_on_c, 6, 62, 0
9, 29879, Note_on_c, 6, 62, 127
9, 29914, Note_on_c, 6, 62, 0
9, 29936, Note_on_c, 6, 62, 106
9, 29971, Note_on_c, 6, 62, 0
9, 29997, Note_on_c, 6, 62, 112
9, 30070, Note_on_c, 6, 62, 0
9, 30125, Note_on_c, 6, 62, 125
9, 30159, Note_on_c, 6, 62, 0
9, 30182, Note_on_c, 6, 62, 106
9, 30217, Note_on_c, 6, 62, 0
9, 30242, Note_on_c, 6, 62, 106
9, 30277, Note_on_c, 6, 62, 0
9, 30295, Note_on_c, 6, 62, 89
9, 30332, Note_on_c, 6, 62, 0
9, 30361, Note_on_c, 6, 62, 125
9, 30432, Note_on_c, 6, 62, 0
9, 30482, Note_on_c, 6, 62, 125
9, 30522, Note_on_c, 6, 62, 0
9, 30545, Note_on_c, 6, 62, 106
9, 30578, Note_on_c, 6, 62, 0
9, 30597, Note_on_c, 6, 62, 114
9, 30664, Note_on_c, 6, 62, 0
9, 30732, Note_on_c, 6, 62, 114
9, 30761, Note_on_c, 6, 62, 0
9, 30785, Note_on_c, 6, 62, 106
9, 30818, Note_on_c, 6, 62, 0
9, 30850, Note_on_c, 6, 62, 106
9, 30877, Note_on_c, 6, 62, 0
9, 30904, Note_on_c, 6, 62, 103
9, 30934, Note_on_c, 6, 62, 0
9, 30962, Note_on_c, 6, 62, 106
9, 30994, Note_on_c, 6, 62, 0
9, 31019, Note_on_c, 6, 62, 97
9, 31054, Note_on_c, 6, 62, 0
9, 31079, Note_on_c, 6, 62, 106
9, 31113, Note_on_c, 6, 62, 0
9, 31137, Note_on_c, 6, 62, 106
9, 31171, Note_on_c, 6, 62, 0
9, 31195, Note_on_c, 6, 62, 106
9, 31259, Note_on_c, 6, 62, 0
9, 31321, Note_on_c, 6, 62, 125
9, 31353, Note_on_c, 6, 62, 0
9, 31382, Note_on_c, 6, 62, 106
9, 31415, Note_on_c, 6, 62, 0
9, 31446, Note_on_c, 6, 62, 106
9, 31477, Note_on_c, 6, 62, 0
9, 31501, Note_on_c, 6, 62, 97
9, 31534, Note_on_c, 6, 62, 0
9, 31556, Note_on_c, 6, 62, 97
9, 31594, Note_on_c, 6, 62, 0
9, 31618, Note_on_c, 6, 62, 114
9, 31654, Note_on_c, 6, 62, 0
9, 31683, Note_on_c, 6, 62, 114
9, 31741, Note_on_c, 6, 62, 0
9, 31797, Note_on_c, 6, 62, 122
9, 31828, Note_on_c, 6, 62, 0
9, 31855, Note_on_c, 6, 62, 106
9, 31891, Note_on_c, 6, 62, 0
9, 31922, Note_on_c, 6, 62, 106
9, 31955, Note_on_c, 6, 62, 0
9, 31979, Note_on_c, 6, 62, 97
9, 32013, Note_on_c, 6, 62, 0
9, 32036, Note_on_c, 6, 62, 106
9, 32072, Note_on_c, 6, 62, 0
9, 32096, Note_on_c, 6, 62, 106
9, 32130, Note_on_c, 6, 62, 0
9, 32153, Note_on_c, 6, 62, 106
9, 32188, Note_on_c, 6, 62, 0
9, 32211, Note_on_c, 6, 62, 106
9, 32246, Note_on_c, 6, 62, 0
9, 32277, Note_on_c, 6, 62, 125
9, 32344, Note_on_c, 6, 62, 0
9, 32397, Note_on_c, 6, 62, 125
9, 32468, Note_on_c, 6, 62, 0
9, 32515, Note_on_c, 6, 62, 125
9, 32579, Note_on_c, 6, 62, 0
9, 32630, Note_on_c, 6, 62, 125
9, 32688, Note_on_c, 6, 62, 0
9, 32757, Note_on_c, 6, 62, 127
9, 32792, Note_on_c, 6, 62, 0
9, 32816, Note_on_c, 6, 62, 114
9, 32851, Note_on_c, 6, 62, 0
9, 32876, Note_on_c, 6, 62, 114
9, 32942, Note_on_c, 6, 62, 0
9, 33000, Note_on_c, 6, 62, 125
9, 33060, Note_on_c, 6, 62, 0
9, 33110, Note_on_c, 6, 62, 127
9, 33180, Note_on_c, 6, 62, 0
9, 33238, Note_on_c, 6, 62, 122
9, 33303, Note_on_c, 6, 62, 0
9, 33355, Note_on_c, 6, 62, 125
9, 33422, Note_on_c, 6, 62, 0
9, 33476, Note_on_c, 6, 62, 122
9, 33542, Note_on_c, 6, 62, 0
9, 33600, Note_on_c, 6, 62, 125
9, 33667, Note_on_c, 6, 62, 0
9, 33722, Note_on_c, 6, 62, 122
9, 33782, Note_on_c, 6, 62, 0
9, 33836, Note_on_c, 6, 62, 127
9, 33905, Note_on_c, 6, 62, 0
9, 33955, Note_on_c, 6, 62, 125
9, 33991, Note_on_c, 6, 62, 0
9, 34015, Note_on_c, 6, 62, 97
9, 34048, Note_on_c, 6, 62, 0
9, 34076, Note_on_c, 6, 62, 114
9, 34147, Note_on_c, 6, 62, 0
9, 34200, Note_on_c, 6, 62, 122
9, 34234, Note_on_c, 6, 62, 0
9, 34257, Note_on_c, 6, 62, 106
9, 34292, Note_on_c, 6, 62, 0
9, 34318, Note_on_c, 6, 62, 97
9, 34349, Note_on_c, 6, 62, 0
9, 34374, Note_on_c, 6, 62, 106
9, 34404, Note_on_c, 6, 62, 0
9, 34430, Note_on_c, 6, 62, 106
9, 34487, Note_on_c, 6, 62, 0
9, 34554, Note_on_c, 6, 62, 127
9, 34596, Note_on_c, 6, 62, 0
9, 34630, Note_on_c, 6, 62, 125
9, 34662, Note_on_c, 6, 62, 0
9, 34681, Note_on_c, 6, 62, 89
9, 34716, Note_on_c, 6, 62, 0
9, 34742, Note_on_c, 6, 62, 106
9, 34779, Note_on_c, 6, 62, 0
9, 34805, Note_on_c, 6, 62, 106
9, 34840, Note_on_c, 6, 62, 0
9, 34868, Note_on_c, 6, 62, 112
9, 34903, Note_on_c, 6, 62, 0
9, 34925, Note_on_c, 6, 62, 106
9, 34962, Note_on_c, 6, 62, 0
9, 34981, Note_on_c, 6, 62, 89
9, 35017, Note_on_c, 6, 62, 0
9, 35038, Note_on_c, 6, 62, 97
9, 35077, Note_on_c, 6, 62, 0
9, 35102, Note_on_c, 6, 62, 97
9, 35136, Note_on_c, 6, 62, 0
9, 35160, Note_on_c, 6, 62, 106
9, 35193, Note_on_c, 6, 62, 0
9, 35221, Note_on_c, 6, 62, 114
9, 35254, Note_on_c, 6, 62, 0
9, 35277, Note_on_c, 6, 62, 114
9, 35311, Note_on_c, 6, 62, 0
9, 35335, Note_on_c, 6, 62, 114
9, 35373, Note_on_c, 6, 62, 0
9, 35408, Note_on_c, 6, 62, 127
9, 35519, Note_on_c, 6, 62, 0
9, 35648, Note_on_c, 6, 62, 127
9, 35681, Note_on_c, 6, 62, 0
9, 35700, Note_on_c, 6, 62, 83
9, 35735, Note_on_c, 6, 62, 0
9, 35762, Note_on_c, 6, 62, 114
9, 35797, Note_on_c, 6, 62, 0
9, 35820, Note_on_c, 6, 62, 114
9, 35852, Note_on_c, 6, 62, 0
9, 35875, Note_on_c, 6, 62, 114
9, 35909, Note_on_c, 6, 62, 0
9, 35936, Note_on_c, 6, 62, 125
9, 36022, Note_on_c, 6, 62, 0
9, 36067, Note_on_c, 6, 62, 125
9, 36146, Note_on_c, 6, 62, 0
9, 36181, Note_on_c, 6, 62, 125
9, 36216, Note_on_c, 6, 62, 0
9, 36238, Note_on_c, 6, 62, 106
9, 36273, Note_on_c, 6, 62, 0
9, 36300, Note_on_c, 6, 62, 106
9, 36332, Note_on_c, 6, 62, 0
9, 36356, Note_on_c, 6, 62, 106
9, 36387, Note_on_c, 6, 62, 0
9, 36413, Note_on_c, 6, 62, 106
9, 36442, Note_on_c, 6, 62, 0
9, 36469, Note_on_c, 6, 62, 114
9, 36504, Note_on_c, 6, 62, 0
9, 36528, Note_on_c, 6, 62, 114
9, 36565, Note_on_c, 6, 62, 0
9, 36596, Note_on_c, 6, 62, 125
9, 36769, Note_on_c, 6, 62, 0
9, 36799, Note_on_c, 6, 62, 125
9, 36925, Note_on_c, 6, 62, 0
9, 36966, Note_on_c, 6, 62, 125
9, 37251, Note_on_c, 6, 62, 0
9, 37318, Note_on_c, 6, 59, 125
9, 37391, Note_on_c, 6, 59, 0
9, 37444, Note_on_c, 6, 57, 125
9, 37513, Note_on_c, 6, 57, 0
9, 37562, Note_on_c, 6, 55, 127
9, 37724, Note_on_c, 6, 55, 0
9, 37748, Note_on_c, 6, 62, 127
9, 37890, Note_on_c, 6, 62, 0
9, 37924, Note_on_c, 6, 62, 122
9, 37958, Note_on_c, 6, 62, 0
9, 37984, Note_on_c, 6, 62, 106
9, 38254, Note_on_c, 6, 62, 0
9, 38268, Note_on_c, 6, 57, 125
9, 38364, Note_on_c, 6, 57, 0
9, 38386, Note_on_c, 6, 59, 125
9, 38480, Note_on_c, 6, 59, 0
9, 38523, Note_on_c, 6, 60, 127
9, 38560, Note_on_c, 6, 60, 0
9, 38579, Note_on_c, 6, 59, 127
9, 38935, Note_on_c, 6, 59, 0
9, 38990, Note_on_c, 6, 60, 127
9, 39146, Note_on_c, 6, 60, 0
9, 39188, Note_on_c, 6, 59, 127
9, 39441, Note_on_c, 6, 59, 0
9, 39474, Note_on_c, 6, 55, 125
9, 39634, Note_on_c, 6, 55, 0
9, 39662, Note_on_c, 6, 62, 125
9, 39821, Note_on_c, 6, 62, 0
9, 39856, Note_on_c, 6, 62, 125
9, 39894, Note_on_c, 6, 62, 0
9, 39919, Note_on_c, 6, 62, 122
9, 40198, Note_on_c, 6, 62, 0
9, 40209, Note_on_c, 6, 57, 125
9, 40306, Note_on_c, 6, 57, 0
9, 40325, Note_on_c, 6, 59, 125
9, 40439, Note_on_c, 6, 59, 0
9, 40451, Note_on_c, 6, 60, 125
9, 40495, Note_on_c, 6, 60, 0
9, 40511, Note_on_c, 6, 59, 127
9, 40857, Note_on_c, 6, 59, 0
9, 40911, Note_on_c, 6, 60, 127
9, 41072, Note_on_c, 6, 60, 0
9, 41103, Note_on_c, 6, 59, 127
9, 41368, Note_on_c, 6, 59, 0
9, 41396, Note_on_c, 6, 55, 127
9, 41570, Note_on_c, 6, 55, 0
9, 41592, Note_on_c, 6, 62, 127
9, 41737, Note_on_c, 6, 62, 0
9, 41767, Note_on_c, 6, 62, 125
9, 41804, Note_on_c, 6, 62, 0
9, 41829, Note_on_c, 6, 62, 122
9, 42105, Note_on_c, 6, 62, 0
9, 42121, Note_on_c, 6, 57, 127
9, 42218, Note_on_c, 6, 57, 0
9, 42240, Note_on_c, 6, 59, 125
9, 42339, Note_on_c, 6, 59, 0
9, 42369, Note_on_c, 6, 60, 127
9, 42414, Note_on_c, 6, 60, 0
9, 42429, Note_on_c, 6, 59, 125
9, 42728, Note_on_c, 6, 59, 0
9, 42732, Note_on_c, 6, 57, 125
9, 42771, Note_on_c, 6, 57, 0
9, 42789, Note_on_c, 6, 60, 127
9, 43044, Note_on_c, 6, 60, 0
9, 43052, Note_on_c, 6, 59, 127
9, 43307, Note_on_c, 6, 59, 0
9, 43321, Note_on_c, 6, 55, 127
9, 43842, Note_on_c, 6, 55, 0
9, 50756, Note_on_c, 6, 59, 122
9, 50857, Note_on_c, 6, 59, 0
9, 50881, Note_on_c, 6, 57, 127
9, 50959, Note_on_c, 6, 57, 0
9, 51000, Note_on_c, 6, 55, 127
9, 51161, Note_on_c, 6, 55, 0
9, 51177, Note_on_c, 6, 62, 127
9, 51323, Note_on_c, 6, 62, 0
9, 51355, Note_on_c, 6, 62, 125
9, 51392, Note_on_c, 6, 62, 0
9, 51421, Note_on_c, 6, 62, 125
9, 51713, Note_on_c, 6, 62, 0
9, 51728, Note_on_c, 6, 57, 125
9, 51829, Note_on_c, 6, 57, 0
9, 51841, Note_on_c, 6, 59, 127
9, 51944, Note_on_c, 6, 59, 0
9, 51960, Note_on_c, 6, 60, 127
9, 52007, Note_on_c, 6, 60, 0
9, 52022, Note_on_c, 6, 59, 127
9, 52394, Note_on_c, 6, 59, 0
9, 52434, Note_on_c, 6, 60, 127
9, 52585, Note_on_c, 6, 60, 0
9, 52618, Note_on_c, 6, 59, 127
9, 52896, Note_on_c, 6, 59, 0
9, 52920, Note_on_c, 6, 55, 127
9, 53092, Note_on_c, 6, 55, 0
9, 53113, Note_on_c, 6, 62, 127
9, 53256, Note_on_c, 6, 62, 0
9, 53285, Note_on_c, 6, 62, 125
9, 53322, Note_on_c, 6, 62, 0
9, 53354, Note_on_c, 6, 62, 127
9, 53632, Note_on_c, 6, 62, 0
9, 53644, Note_on_c, 6, 57, 125
9, 53758, Note_on_c, 6, 57, 0
9, 53758, Note_on_c, 6, 59, 125
9, 53866, Note_on_c, 6, 59, 0
9, 53879, Note_on_c, 6, 60, 127
9, 53934, Note_on_c, 6, 60, 0
9, 53948, Note_on_c, 6, 59, 127
9, 54327, Note_on_c, 6, 59, 0
9, 54361, Note_on_c, 6, 60, 127
9, 54506, Note_on_c, 6, 60, 0
9, 54545, Note_on_c, 6, 59, 127
9, 54810, Note_on_c, 6, 59, 0
9, 54831, Note_on_c, 6, 55, 127
9, 55013, Note_on_c, 6, 55, 0
9, 55026, Note_on_c, 6, 62, 127
9, 55181, Note_on_c, 6, 62, 0
9, 55206, Note_on_c, 6, 62, 125
9, 55246, Note_on_c, 6, 62, 0
9, 55266, Note_on_c, 6, 62, 122
9, 55551, Note_on_c, 6, 62, 0
9, 55559, Note_on_c, 6, 57, 125
9, 55676, Note_on_c, 6, 57, 0
9, 55683, Note_on_c, 6, 59, 125
9, 55793, Note_on_c, 6, 59, 0
9, 55808, Note_on_c, 6, 60, 127
9, 55872, Note_on_c, 6, 60, 0
9, 55872, Note_on_c, 6, 59, 127
9, 56162, Note_on_c, 6, 59, 0
9, 56164, Note_on_c, 6, 57, 125
9, 56213, Note_on_c, 6, 57, 0
9, 56226, Note_on_c, 6, 60, 127
9, 56452, Note_on_c, 6, 60, 0
9, 56470, Note_on_c, 6, 59, 125
9, 56747, Note_on_c, 6, 59, 0
9, 56758, Note_on_c, 6, 55, 127
9, 57458, Note_on_c, 6, 55, 0
9, 58615, Note_on_c, 6, 62, 127
9, 58647, Note_on_c, 6, 62, 0
9, 58673, Note_on_c, 6, 62, 114
9, 58705, Note_on_c, 6, 62, 0
9, 58734, Note_on_c, 6, 62, 114
9, 58765, Note_on_c, 6, 62, 0
9, 58793, Note_on_c, 6, 62, 106
9, 58826, Note_on_c, 6, 62, 0
9, 58856, Note_on_c, 6, 62, 106
9, 58888, Note_on_c, 6, 62, 0
9, 58913, Note_on_c, 6, 62, 106
9, 58948, Note_on_c, 6, 62, 0
9, 58968, Note_on_c, 6, 62, 106
9, 59005, Note_on_c, 6, 62, 0
9, 59035, Note_on_c, 6, 62, 125
9, 59138, Note_on_c, 6, 62, 0
9, 59173, Note_on_c, 6, 62, 114
9, 59207, Note_on_c, 6, 62, 0
9, 59227, Note_on_c, 6, 62, 97
9, 59258, Note_on_c, 6, 62, 0
9, 59281, Note_on_c, 6, 62, 114
9, 59314, Note_on_c, 6, 62, 0
9, 59340, Note_on_c, 6, 62, 106
9, 59372, Note_on_c, 6, 62, 0
9, 59397, Note_on_c, 6, 62, 106
9, 59431, Note_on_c, 6, 62, 0
9, 59454, Note_on_c, 6, 62, 97
9, 59489, Note_on_c, 6, 62, 0
9, 59514, Note_on_c, 6, 62, 114
9, 59584, Note_on_c, 6, 62, 0
9, 59641, Note_on_c, 6, 62, 127
9, 59723, Note_on_c, 6, 62, 0
9, 59765, Note_on_c, 6, 62, 125
9, 59838, Note_on_c, 6, 62, 0
9, 59881, Note_on_c, 6, 62, 127
9, 59920, Note_on_c, 6, 62, 0
9, 59943, Note_on_c, 6, 62, 106
9, 59978, Note_on_c, 6, 62, 0
9, 60003, Note_on_c, 6, 62, 125
9, 60070, Note_on_c, 6, 62, 0
9, 60125, Note_on_c, 6, 62, 127
9, 60197, Note_on_c, 6, 62, 0
9, 60243, Note_on_c, 6, 62, 125
9, 60313, Note_on_c, 6, 62, 0
9, 60360, Note_on_c, 6, 62, 127
9, 60435, Note_on_c, 6, 62, 0
9, 60480, Note_on_c, 6, 62, 127
9, 60557, Note_on_c, 6, 62, 0
9, 60605, Note_on_c, 6, 62, 127
9, 60672, Note_on_c, 6, 62, 0
9, 60720, Note_on_c, 6, 62, 127
9, 60793, Note_on_c, 6, 62, 0
9, 60840, Note_on_c, 6, 62, 127
9, 60910, Note_on_c, 6, 62, 0
9, 60954, Note_on_c, 6, 62, 127
9, 61026, Note_on_c, 6, 62, 0
9, 61080, Note_on_c, 6, 62, 125
9, 61117, Note_on_c, 6, 62, 0
9, 61136, Note_on_c, 6, 62, 106
9, 61173, Note_on_c, 6, 62, 0
9, 61197, Note_on_c, 6, 62, 114
9, 61231, Note_on_c, 6, 62, 0
9, 61254, Note_on_c, 6, 62, 114
9, 61292, Note_on_c, 6, 62, 0
9, 61314, Note_on_c, 6, 62, 97
9, 61347, Note_on_c, 6, 62, 0
9, 61370, Note_on_c, 6, 62, 106
9, 61404, Note_on_c, 6, 62, 0
9, 61433, Note_on_c, 6, 62, 122
9, 61514, Note_on_c, 6, 62, 0
9, 61564, Note_on_c, 6, 62, 125
9, 61603, Note_on_c, 6, 62, 0
9, 61628, Note_on_c, 6, 62, 97
9, 61661, Note_on_c, 6, 62, 0
9, 61684, Note_on_c, 6, 62, 106
9, 61717, Note_on_c, 6, 62, 0
9, 61737, Note_on_c, 6, 62, 106
9, 61772, Note_on_c, 6, 62, 0
9, 61796, Note_on_c, 6, 62, 125
9, 61866, Note_on_c, 6, 62, 0
9, 61918, Note_on_c, 6, 62, 125
9, 61989, Note_on_c, 6, 62, 0
9, 62041, Note_on_c, 6, 62, 125
9, 62080, Note_on_c, 6, 62, 0
9, 62101, Note_on_c, 6, 62, 106
9, 62137, Note_on_c, 6, 62, 0
9, 62163, Note_on_c, 6, 62, 114
9, 62219, Note_on_c, 6, 62, 0
9, 62281, Note_on_c, 6, 62, 127
9, 62347, Note_on_c, 6, 62, 0
9, 62394, Note_on_c, 6, 62, 122
9, 62459, Note_on_c, 6, 62, 0
9, 62514, Note_on_c, 6, 62, 125
9, 62551, Note_on_c, 6, 62, 0
9, 62575, Note_on_c, 6, 62, 106
9, 62608, Note_on_c, 6, 62, 0
9, 62637, Note_on_c, 6, 62, 106
9, 62672, Note_on_c, 6, 62, 0
9, 62697, Note_on_c, 6, 62, 97
9, 62731, Note_on_c, 6, 62, 0
9, 62758, Note_on_c, 6, 62, 114
9, 62791, Note_on_c, 6, 62, 0
9, 62816, Note_on_c, 6, 62, 114
9, 62851, Note_on_c, 6, 62, 0
9, 62876, Note_on_c, 6, 62, 114
9, 62912, Note_on_c, 6, 62, 0
9, 62933, Note_on_c, 6, 62, 106
9, 62968, Note_on_c, 6, 62, 0
9, 62997, Note_on_c, 6, 62, 125
9, 63069, Note_on_c, 6, 62, 0
9, 63120, Note_on_c, 6, 62, 127
9, 63177, Note_on_c, 6, 62, 0
9, 63234, Note_on_c, 6, 62, 127
9, 63296, Note_on_c, 6, 62, 0
9, 63352, Note_on_c, 6, 62, 127
9, 63411, Note_on_c, 6, 62, 0
9, 63477, Note_on_c, 6, 62, 127
9, 63567, Note_on_c, 6, 62, 0
9, 63771, Pitch_bend_c, 6, 6272
9, 63775, Pitch_bend_c, 6, 5760
9, 63778, Pitch_bend_c, 6, 5248
9, 63783, Pitch_bend_c, 6, 4736
9, 63788, Pitch_bend_c, 6, 4224
9, 63792, Pitch_bend_c, 6, 3712
9, 63796, Pitch_bend_c, 6, 3200
9, 63800, Pitch_bend_c, 6, 2688
9, 63804, Pitch_bend_c, 6, 2176
9, 63808, Pitch_bend_c, 6, 1664
9, 63814, Pitch_bend_c, 6, 1152
9, 63823, Pitch_bend_c, 6, 640
9, 63833, Note_on_c, 6, 57, 127
9, 63852, Pitch_bend_c, 6, 1152
9, 63856, Pitch_bend_c, 6, 1664
9, 63859, Pitch_bend_c, 6, 2176
9, 63861, Pitch_bend_c, 6, 2688
9, 63862, Pitch_bend_c, 6, 3200
9, 63865, Pitch_bend_c, 6, 3712
9, 63867, Pitch_bend_c, 6, 4224
9, 63870, Pitch_bend_c, 6, 4736
9, 63872, Pitch_bend_c, 6, 5248
9, 63877, Pitch_bend_c, 6, 5760
9, 63883, Pitch_bend_c, 6, 6272
9, 63895, Pitch_bend_c, 6, 8192
9, 63952, Note_on_c, 6, 57, 0
9, 64195, Note_on_c, 6, 59, 127
9, 64308, Note_on_c, 6, 59, 0
9, 64324, Note_on_c, 6, 57, 125
9, 64423, Note_on_c, 6, 57, 0
9, 64447, Note_on_c, 6, 55, 127
9, 64601, Note_on_c, 6, 55, 0
9, 64614, Note_on_c, 6, 62, 127
9, 64766, Note_on_c, 6, 62, 0
9, 64796, Note_on_c, 6, 62, 125
9, 64829, Note_on_c, 6, 62, 0
9, 64856, Note_on_c, 6, 62, 125
9, 65121, Note_on_c, 6, 62, 0
9, 65148, Note_on_c, 6, 57, 125
9, 65269, Note_on_c, 6, 57, 0
9, 65281, Note_on_c, 6, 59, 114
9, 65383, Note_on_c, 6, 59, 0
9, 65407, Note_on_c, 6, 60, 127
9, 65459, Note_on_c, 6, 60, 0
9, 65475, Note_on_c, 6, 59, 114
9, 65832, Note_on_c, 6, 59, 0
9, 65883, Note_on_c, 6, 60, 127
9, 66026, Note_on_c, 6, 60, 0
9, 66060, Note_on_c, 6, 59, 125
9, 66322, Note_on_c, 6, 59, 0
9, 66353, Note_on_c, 6, 55, 125
9, 66526, Note_on_c, 6, 55, 0
9, 66549, Note_on_c, 6, 62, 125
9, 66699, Note_on_c, 6, 62, 0
9, 66732, Note_on_c, 6, 62, 114
9, 66767, Note_on_c, 6, 62, 0
9, 66794, Note_on_c, 6, 62, 125
9, 67067, Note_on_c, 6, 62, 0
9, 67080, Note_on_c, 6, 57, 125
9, 67188, Note_on_c, 6, 57, 0
9, 67198, Note_on_c, 6, 59, 127
9, 67303, Note_on_c, 6, 59, 0
9, 67319, Note_on_c, 6, 60, 122
9, 67374, Note_on_c, 6, 60, 0
9, 67383, Note_on_c, 6, 59, 125
9, 67759, Note_on_c, 6, 59, 0
9, 67800, Note_on_c, 6, 60, 127
9, 67946, Note_on_c, 6, 60, 0
9, 67980, Note_on_c, 6, 59, 125
9, 68254, Note_on_c, 6, 59, 0
9, 68275, Note_on_c, 6, 55, 127
9, 68441, Note_on_c, 6, 55, 0
9, 68463, Note_on_c, 6, 62, 125
9, 68612, Note_on_c, 6, 62, 0
9, 68642, Note_on_c, 6, 62, 114
9, 68676, Note_on_c, 6, 62, 0
9, 68707, Note_on_c, 6, 62, 125
9, 68985, Note_on_c, 6, 62, 0
9, 69002, Note_on_c, 6, 57, 127
9, 69111, Note_on_c, 6, 57, 0
9, 69124, Note_on_c, 6, 59, 125
9, 69226, Note_on_c, 6, 59, 0
9, 69246, Note_on_c, 6, 60, 127
9, 69304, Note_on_c, 6, 60, 0
9, 69310, Note_on_c, 6, 59, 127
9, 69588, Note_on_c, 6, 59, 0
9, 69593, Note_on_c, 6, 57, 125
9, 69639, Note_on_c, 6, 57, 0
9, 69661, Note_on_c, 6, 60, 127
9, 69899, Note_on_c, 6, 60, 0
9, 69912, Note_on_c, 6, 59, 127
9, 70186, Note_on_c, 6, 59, 0
9, 70196, Note_on_c, 6, 55, 127
9, 72124, Note_on_c, 6, 55, 0
9, 73781, Note_on_c, 6, 59, 89
9, 73903, Note_on_c, 6, 59, 0
9, 73916, Note_on_c, 6, 57, 114
9, 74028, Note_on_c, 6, 57, 0
9, 74036, Note_on_c, 6, 55, 127
9, 74202, Note_on_c, 6, 55, 0
9, 74217, Note_on_c, 6, 62, 127
9, 74363, Note_on_c, 6, 62, 0
9, 74391, Note_on_c, 6, 62, 114
9, 74426, Note_on_c, 6, 62, 0
9, 74451, Note_on_c, 6, 62, 114
9, 74743, Note_on_c, 6, 62, 0
9, 74748, Note_on_c, 6, 57, 112
9, 74868, Note_on_c, 6, 57, 0
9, 74876, Note_on_c, 6, 59, 125
9, 74992, Note_on_c, 6, 59, 0
9, 75002, Note_on_c, 6, 60, 125
9, 75063, Note_on_c, 6, 60, 0
9, 75065, Note_on_c, 6, 59, 125
9, 75420, Note_on_c, 6, 59, 127
9, 75441, Note_on_c, 6, 59, 0
9, 75580, Note_on_c, 6, 59, 0
9, 75647, Note_on_c, 6, 59, 125
9, 75955, Note_on_c, 6, 59, 0
9, 75969, Note_on_c, 6, 55, 127
9, 76133, Note_on_c, 6, 55, 0
9, 76146, Note_on_c, 6, 62, 127
9, 76290, Note_on_c, 6, 62, 0
9, 76314, Note_on_c, 6, 62, 114
9, 76351, Note_on_c, 6, 62, 0
9, 76376, Note_on_c, 6, 62, 114
9, 76670, Note_on_c, 6, 62, 0
9, 76674, Note_on_c, 6, 57, 114
9, 76794, Note_on_c, 6, 59, 127
9, 76804, Note_on_c, 6, 57, 0
9, 76925, Note_on_c, 6, 59, 0
9, 76925, Note_on_c, 6, 60, 122
9, 76985, Note_on_c, 6, 59, 125
9, 76994, Note_on_c, 6, 60, 0
9, 77378, Note_on_c, 6, 59, 0
9, 77400, Note_on_c, 6, 59, 127
9, 77547, Note_on_c, 6, 59, 0
9, 77563, Note_on_c, 6, 59, 125
9, 77867, Note_on_c, 6, 59, 0
9, 77886, Note_on_c, 6, 55, 127
9, 78055, Note_on_c, 6, 55, 0
9, 78071, Note_on_c, 6, 62, 127
9, 78214, Note_on_c, 6, 62, 0
9, 78248, Note_on_c, 6, 62, 125
9, 78286, Note_on_c, 6, 62, 0
9, 78309, Note_on_c, 6, 62, 125
9, 78580, Note_on_c, 6, 62, 0
9, 78584, Note_on_c, 6, 57, 114
9, 78718, Note_on_c, 6, 59, 114
9, 78719, Note_on_c, 6, 57, 0
9, 78845, Note_on_c, 6, 59, 0
9, 78847, Note_on_c, 6, 60, 127
9, 78907, Note_on_c, 6, 59, 127
9, 78911, Note_on_c, 6, 60, 0
9, 79194, Note_on_c, 6, 59, 0
9, 79198, Note_on_c, 6, 57, 114
9, 79252, Note_on_c, 6, 57, 0
9, 79266, Note_on_c, 6, 60, 127
9, 79526, Note_on_c, 6, 60, 0
9, 79544, Note_on_c, 6, 59, 127
9, 79793, Note_on_c, 6, 59, 0
9, 79808, Note_on_c, 6, 55, 127
9, 80399, Note_on_c, 6, 55, 0
9, 81482, Note_on_c, 6, 59, 125
9, 81589, Note_on_c, 6, 59, 0
9, 81603, Note_on_c, 6, 57, 125
9, 81704, Note_on_c, 6, 57, 0
9, 81726, Note_on_c, 6, 55, 127
9, 81879, Note_on_c, 6, 55, 0
9, 81902, Note_on_c, 6, 62, 127
9, 82049, Note_on_c, 6, 62, 0
9, 82083, Note_on_c, 6, 62, 127
9, 82117, Note_on_c, 6, 62, 0
9, 82147, Note_on_c, 6, 62, 125
9, 82428, Note_on_c, 6, 62, 0
9, 82441, Note_on_c, 6, 57, 127
9, 82542, Note_on_c, 6, 57, 0
9, 82558, Note_on_c, 6, 59, 127
9, 82671, Note_on_c, 6, 59, 0
9, 82681, Note_on_c, 6, 60, 127
9, 82743, Note_on_c, 6, 60, 0
9, 82744, Note_on_c, 6, 59, 125
9, 83132, Note_on_c, 6, 59, 0
9, 83161, Note_on_c, 6, 60, 127
9, 83316, Note_on_c, 6, 60, 0
9, 83345, Note_on_c, 6, 59, 127
9, 83611, Note_on_c, 6, 59, 0
9, 83637, Note_on_c, 6, 55, 127
9, 83822, Note_on_c, 6, 55, 0
9, 83835, Note_on_c, 6, 62, 127
9, 83982, Note_on_c, 6, 62, 0
9, 84013, Note_on_c, 6, 62, 127
9, 84049, Note_on_c, 6, 62, 0
9, 84073, Note_on_c, 6, 62, 127
9, 84362, Note_on_c, 6, 62, 0
9, 84371, Note_on_c, 6, 57, 127
9, 84479, Note_on_c, 6, 57, 0
9, 84484, Note_on_c, 6, 59, 127
9, 84602, Note_on_c, 6, 59, 0
9, 84607, Note_on_c, 6, 60, 127
9, 84669, Note_on_c, 6, 59, 122
9, 84671, Note_on_c, 6, 60, 0
9, 85058, Note_on_c, 6, 59, 0
9, 85088, Note_on_c, 6, 60, 127
9, 85226, Note_on_c, 6, 60, 0
9, 85273, Note_on_c, 6, 59, 127
9, 85527, Note_on_c, 6, 59, 0
9, 85550, Note_on_c, 6, 55, 127
9, 85737, Note_on_c, 6, 55, 0
9, 85744, Note_on_c, 6, 62, 127
9, 85899, Note_on_c, 6, 62, 0
9, 85931, Note_on_c, 6, 62, 127
9, 85967, Note_on_c, 6, 62, 0
9, 85992, Note_on_c, 6, 62, 125
9, 86275, Note_on_c, 6, 62, 0
9, 86289, Note_on_c, 6, 57, 127
9, 86399, Note_on_c, 6, 57, 0
9, 86404, Note_on_c, 6, 59, 127
9, 86515, Note_on_c, 6, 59, 0
9, 86525, Note_on_c, 6, 60, 127
9, 86585, Note_on_c, 6, 60, 0
9, 86585, Note_on_c, 6, 59, 127
9, 86889, Note_on_c, 6, 59, 0
9, 86890, Note_on_c, 6, 57, 122
9, 86941, Note_on_c, 6, 57, 0
9, 86956, Note_on_c, 6, 60, 127
9, 87206, Note_on_c, 6, 60, 0
9, 87221, Note_on_c, 6, 59, 127
9, 87476, Note_on_c, 6, 59, 0
9, 87490, Note_on_c, 6, 55, 127
9, 89142, Note_on_c, 6, 55, 0
9, 89164, Note_on_c, 6, 59, 127
9, 89239, Note_on_c, 6, 59, 0
9, 89280, Note_on_c, 6, 57, 125
9, 89356, Note_on_c, 6, 57, 0
9, 89404, Note_on_c, 6, 55, 125
9, 89578, Note_on_c, 6, 55, 0
9, 89590, Note_on_c, 6, 62, 127
9, 89740, Note_on_c, 6, 62, 0
9, 89769, Note_on_c, 6, 62, 127
9, 89805, Note_on_c, 6, 62, 0
9, 89829, Note_on_c, 6, 62, 125
9, 90113, Note_on_c, 6, 62, 0
9, 90123, Note_on_c, 6, 57, 127
9, 90228, Note_on_c, 6, 57, 0
9, 90237, Note_on_c, 6, 59, 127
9, 90353, Note_on_c, 6, 59, 0
9, 90361, Note_on_c, 6, 60, 127
9, 90421, Note_on_c, 6, 60, 0
9, 90423, Note_on_c, 6, 59, 127
9, 90811, Note_on_c, 6, 59, 0
9, 90836, Note_on_c, 6, 60, 127
9, 90991, Note_on_c, 6, 60, 0
9, 91020, Note_on_c, 6, 59, 127
9, 91293, Note_on_c, 6, 59, 0
9, 91316, Note_on_c, 6, 55, 127
9, 91496, Note_on_c, 6, 55, 0
9, 91513, Note_on_c, 6, 62, 127
9, 91656, Note_on_c, 6, 62, 0
9, 91687, Note_on_c, 6, 62, 125
9, 91721, Note_on_c, 6, 62, 0
9, 91750, Note_on_c, 6, 62, 127
9, 92039, Note_on_c, 6, 62, 0
9, 92049, Note_on_c, 6, 57, 125
9, 92153, Note_on_c, 6, 57, 0
9, 92162, Note_on_c, 6, 59, 127
9, 92278, Note_on_c, 6, 59, 0
9, 92281, Note_on_c, 6, 60, 125
9, 92348, Note_on_c, 6, 60, 0
9, 92348, Note_on_c, 6, 59, 127
9, 92741, Note_on_c, 6, 59, 0
9, 92752, Note_on_c, 6, 60, 127
9, 92931, Note_on_c, 6, 60, 0
9, 92949, Note_on_c, 6, 59, 127
9, 93223, Note_on_c, 6, 59, 0
9, 93240, Note_on_c, 6, 55, 127
9, 93419, Note_on_c, 6, 55, 0
9, 93429, Note_on_c, 6, 62, 127
9, 93579, Note_on_c, 6, 62, 0
9, 93608, Note_on_c, 6, 62, 122
9, 93643, Note_on_c, 6, 62, 0
9, 93671, Note_on_c, 6, 62, 127
9, 93950, Note_on_c, 6, 62, 0
9, 93960, Note_on_c, 6, 57, 122
9, 94076, Note_on_c, 6, 57, 0
9, 94085, Note_on_c, 6, 59, 122
9, 94197, Note_on_c, 6, 59, 0
9, 94206, Note_on_c, 6, 60, 127
9, 94268, Note_on_c, 6, 60, 0
9, 94270, Note_on_c, 6, 59, 122
9, 94569, Note_on_c, 6, 57, 112
9, 94570, Note_on_c, 6, 59, 0
9, 94624, Note_on_c, 6, 57, 0
9, 94632, Note_on_c, 6, 60, 127
9, 94907, Note_on_c, 6, 60, 0
9, 94917, Note_on_c, 6, 59, 127
9, 94940, Control_c, 6, 7, 117
9, 94960, Control_c, 6, 7, 116
9, 94990, Control_c, 6, 7, 115
9, 95000, Control_c, 6, 7, 114
9, 95050, Control_c, 6, 7, 113
9, 95069, Control_c, 6, 7, 112
9, 95089, Control_c, 6, 7, 111
9, 95140, Control_c, 6, 7, 110
9, 95144, Note_on_c, 6, 59, 0
9, 95160, Note_on_c, 6, 55, 127
9, 95181, Control_c, 6, 7, 109
9, 95200, Control_c, 6, 7, 108
9, 95240, Control_c, 6, 7, 107
9, 95260, Control_c, 6, 7, 106
9, 95330, Control_c, 6, 7, 105
9, 95360, Control_c, 6, 7, 104
9, 95400, Control_c, 6, 7, 102
9, 95430, Control_c, 6, 7, 101
9, 95470, Control_c, 6, 7, 100
9, 95530, Control_c, 6, 7, 99
9, 95545, Control_c, 6, 7, 98
9, 95580, Control_c, 6, 7, 97
9, 95590, Control_c, 6, 7, 96
9, 95640, Control_c, 6, 7, 95
9, 95655, Control_c, 6, 7, 94
9, 95680, Control_c, 6, 7, 93
9, 95750, Control_c, 6, 7, 92
9, 95760, Control_c, 6, 7, 91
9, 95770, Control_c, 6, 7, 90
9, 95805, Control_c, 6, 7, 89
9, 95865, Control_c, 6, 7, 88
9, 95880, Control_c, 6, 7, 87
9, 95895, Control_c, 6, 7, 86
9, 95910, Control_c, 6, 7, 85
9, 95945, Control_c, 6, 7, 84
9, 95975, Control_c, 6, 7, 83
9, 96005, Control_c, 6, 7, 82
9, 96055, Control_c, 6, 7, 81
9, 96085, Control_c, 6, 7, 80
9, 96105, Control_c, 6, 7, 79
9, 96145, Control_c, 6, 7, 78
9, 96195, Control_c, 6, 7, 77
9, 96215, Control_c, 6, 7, 76
9, 96225, Control_c, 6, 7, 75
9, 96255, Control_c, 6, 7, 74
9, 96769, Note_on_c, 6, 55, 0
9, 96769, End_track
10, 0, Start_track
10, 0, MIDI_port, 0
10, 0, Title_t, "Backing Vocals"
10, 0, Program_c, 7, 24
10, 0, Control_c, 7, 7, 118
10, 0, Control_c, 7, 10, 64
10, 0, Control_c, 7, 93, 63
10, 0, Control_c, 7, 91, 47
10, 16924, Note_on_c, 7, 66, 127
10, 17168, Note_on_c, 7, 66, 0
10, 17170, Note_on_c, 7, 62, 127
10, 17774, Note_on_c, 7, 62, 0
10, 34204, Note_on_c, 7, 66, 127
10, 34448, Note_on_c, 7, 66, 0
10, 34450, Note_on_c, 7, 62, 127
10, 35054, Note_on_c, 7, 62, 0
10, 39440, Note_on_c, 7, 50, 125
10, 39484, Note_on_c, 7, 50, 0
10, 39502, Note_on_c, 7, 55, 127
10, 39715, Note_on_c, 7, 55, 0
10, 39721, Note_on_c, 7, 57, 125
10, 39948, Note_on_c, 7, 57, 0
10, 39955, Note_on_c, 7, 60, 127
10, 40197, Note_on_c, 7, 60, 0
10, 40206, Note_on_c, 7, 59, 127
10, 40424, Note_on_c, 7, 59, 0
10, 40437, Note_on_c, 7, 57, 127
10, 40676, Note_on_c, 7, 57, 0
10, 40681, Note_on_c, 7, 59, 125
10, 40806, Note_on_c, 7, 59, 0
10, 40812, Note_on_c, 7, 57, 127
10, 41262, Note_on_c, 7, 57, 0
10, 41270, Note_on_c, 7, 62, 127
10, 41405, Note_on_c, 7, 62, 0
10, 41405, Note_on_c, 7, 67, 127
10, 41641, Note_on_c, 7, 67, 0
10, 41651, Note_on_c, 7, 62, 127
10, 41888, Note_on_c, 7, 62, 0
10, 41891, Note_on_c, 7, 60, 127
10, 42129, Note_on_c, 7, 60, 0
10, 42129, Note_on_c, 7, 59, 127
10, 42372, Note_on_c, 7, 57, 127
10, 42373, Note_on_c, 7, 59, 0
10, 42612, Note_on_c, 7, 57, 0
10, 42612, Note_on_c, 7, 59, 127
10, 42740, Note_on_c, 7, 59, 0
10, 42742, Note_on_c, 7, 57, 127
10, 43195, Note_on_c, 7, 57, 0
10, 44751, Note_on_c, 7, 60, 127
10, 45003, Note_on_c, 7, 59, 127
10, 45016, Note_on_c, 7, 60, 0
10, 45243, Note_on_c, 7, 59, 0
10, 45243, Note_on_c, 7, 55, 127
10, 46376, Note_on_c, 7, 55, 0
10, 50944, Note_on_c, 7, 62, 114
10, 50986, Note_on_c, 7, 62, 0
10, 50995, Note_on_c, 7, 67, 127
10, 51248, Note_on_c, 7, 67, 0
10, 51248, Note_on_c, 7, 62, 127
10, 51475, Note_on_c, 7, 62, 0
10, 51477, Note_on_c, 7, 60, 127
10, 51735, Note_on_c, 7, 60, 0
10, 51738, Note_on_c, 7, 59, 125
10, 51961, Note_on_c, 7, 59, 0
10, 51965, Note_on_c, 7, 57, 127
10, 52199, Note_on_c, 7, 57, 0
10, 52209, Note_on_c, 7, 59, 127
10, 52328, Note_on_c, 7, 59, 0
10, 52328, Note_on_c, 7, 57, 127
10, 52783, Note_on_c, 7, 57, 0
10, 52783, Note_on_c, 7, 62, 112
10, 52921, Note_on_c, 7, 62, 0
10, 52926, Note_on_c, 7, 67, 125
10, 53166, Note_on_c, 7, 67, 0
10, 53173, Note_on_c, 7, 62, 127
10, 53398, Note_on_c, 7, 62, 0
10, 53402, Note_on_c, 7, 60, 127
10, 53649, Note_on_c, 7, 60, 0
10, 53653, Note_on_c, 7, 59, 127
10, 53874, Note_on_c, 7, 59, 0
10, 53885, Note_on_c, 7, 57, 127
10, 54132, Note_on_c, 7, 57, 0
10, 54137, Note_on_c, 7, 59, 127
10, 54241, Note_on_c, 7, 59, 0
10, 54249, Note_on_c, 7, 57, 127
10, 54714, Note_on_c, 7, 62, 125
10, 54716, Note_on_c, 7, 57, 0
10, 54838, Note_on_c, 7, 62, 0
10, 54844, Note_on_c, 7, 67, 122
10, 55080, Note_on_c, 7, 67, 0
10, 55085, Note_on_c, 7, 62, 127
10, 55316, Note_on_c, 7, 60, 127
10, 55319, Note_on_c, 7, 62, 0
10, 55557, Note_on_c, 7, 60, 0
10, 55563, Note_on_c, 7, 59, 125
10, 55802, Note_on_c, 7, 59, 0
10, 55806, Note_on_c, 7, 57, 122
10, 56036, Note_on_c, 7, 57, 0
10, 56044, Note_on_c, 7, 59, 125
10, 56156, Note_on_c, 7, 59, 0
10, 56163, Note_on_c, 7, 57, 127
10, 56597, Note_on_c, 7, 57, 0
10, 64387, Note_on_c, 7, 62, 83
10, 64436, Note_on_c, 7, 62, 0
10, 64455, Note_on_c, 7, 67, 127
10, 64670, Note_on_c, 7, 67, 0
10, 64680, Note_on_c, 7, 62, 127
10, 64910, Note_on_c, 7, 62, 0
10, 64922, Note_on_c, 7, 60, 127
10, 65156, Note_on_c, 7, 60, 0
10, 65163, Note_on_c, 7, 59, 127
10, 65395, Note_on_c, 7, 59, 0
10, 65408, Note_on_c, 7, 57, 127
10, 65624, Note_on_c, 7, 57, 0
10, 65639, Note_on_c, 7, 59, 127
10, 65766, Note_on_c, 7, 59, 0
10, 65771, Note_on_c, 7, 57, 127
10, 66230, Note_on_c, 7, 57, 0
10, 66240, Note_on_c, 7, 62, 125
10, 66363, Note_on_c, 7, 62, 0
10, 66370, Note_on_c, 7, 67, 122
10, 66596, Note_on_c, 7, 67, 0
10, 66609, Note_on_c, 7, 62, 127
10, 66839, Note_on_c, 7, 62, 0
10, 66842, Note_on_c, 7, 60, 127
10, 67082, Note_on_c, 7, 59, 125
10, 67083, Note_on_c, 7, 60, 0
10, 67319, Note_on_c, 7, 59, 0
10, 67322, Note_on_c, 7, 57, 127
10, 67559, Note_on_c, 7, 57, 0
10, 67567, Note_on_c, 7, 59, 125
10, 67688, Note_on_c, 7, 59, 0
10, 67691, Note_on_c, 7, 57, 125
10, 68146, Note_on_c, 7, 57, 0
10, 68158, Note_on_c, 7, 62, 127
10, 68278, Note_on_c, 7, 62, 0
10, 68289, Note_on_c, 7, 67, 127
10, 68528, Note_on_c, 7, 62, 122
10, 68531, Note_on_c, 7, 67, 0
10, 68755, Note_on_c, 7, 60, 127
10, 68756, Note_on_c, 7, 62, 0
10, 69004, Note_on_c, 7, 60, 0
10, 69004, Note_on_c, 7, 59, 127
10, 69244, Note_on_c, 7, 59, 0
10, 69244, Note_on_c, 7, 57, 127
10, 69485, Note_on_c, 7, 59, 125
10, 69486, Note_on_c, 7, 57, 0
10, 69598, Note_on_c, 7, 59, 0
10, 69601, Note_on_c, 7, 57, 127
10, 69968, Note_on_c, 7, 57, 0
10, 74044, Note_on_c, 7, 55, 127
10, 74193, Note_on_c, 7, 55, 0
10, 74220, Note_on_c, 7, 55, 114
10, 74370, Note_on_c, 7, 55, 0
10, 74398, Note_on_c, 7, 55, 114
10, 74485, Note_on_c, 7, 55, 0
10, 74515, Note_on_c, 7, 54, 127
10, 74726, Note_on_c, 7, 54, 0
10, 74775, Note_on_c, 7, 54, 127
10, 74835, Note_on_c, 7, 54, 0
10, 74885, Note_on_c, 7, 54, 127
10, 74976, Note_on_c, 7, 54, 0
10, 75003, Note_on_c, 7, 52, 122
10, 75040, Note_on_c, 7, 52, 0
10, 75070, Note_on_c, 7, 52, 114
10, 75461, Note_on_c, 7, 52, 0
10, 75483, Note_on_c, 7, 59, 127
10, 75684, Note_on_c, 7, 59, 0
10, 75718, Note_on_c, 7, 59, 114
10, 75941, Note_on_c, 7, 59, 0
10, 75965, Note_on_c, 7, 55, 127
10, 76108, Note_on_c, 7, 55, 0
10, 76142, Note_on_c, 7, 55, 127
10, 76288, Note_on_c, 7, 55, 0
10, 76317, Note_on_c, 7, 55, 125
10, 76376, Note_on_c, 7, 55, 0
10, 76377, Note_on_c, 7, 54, 127
10, 76642, Note_on_c, 7, 54, 0
10, 76678, Note_on_c, 7, 54, 127
10, 76753, Note_on_c, 7, 54, 0
10, 76797, Note_on_c, 7, 54, 127
10, 76923, Note_on_c, 7, 54, 0
10, 76923, Note_on_c, 7, 52, 122
10, 76968, Note_on_c, 7, 52, 0
10, 76990, Note_on_c, 7, 52, 91
10, 77398, Note_on_c, 7, 52, 0
10, 77420, Note_on_c, 7, 59, 125
10, 77601, Note_on_c, 7, 59, 0
10, 77636, Note_on_c, 7, 59, 114
10, 77759, Note_on_c, 7, 62, 125
10, 77857, Note_on_c, 7, 59, 0
10, 77882, Note_on_c, 7, 55, 125
10, 77889, Note_on_c, 7, 62, 0
10, 77892, Note_on_c, 7, 67, 125
10, 78018, Note_on_c, 7, 55, 0
10, 78054, Note_on_c, 7, 55, 125
10, 78119, Note_on_c, 7, 67, 0
10, 78132, Note_on_c, 7, 62, 127
10, 78206, Note_on_c, 7, 55, 0
10, 78231, Note_on_c, 7, 55, 89
10, 78323, Note_on_c, 7, 55, 0
10, 78349, Note_on_c, 7, 54, 127
10, 78365, Note_on_c, 7, 62, 0
10, 78369, Note_on_c, 7, 60, 127
10, 78554, Note_on_c, 7, 54, 0
10, 78594, Note_on_c, 7, 54, 127
10, 78613, Note_on_c, 7, 60, 0
10, 78617, Note_on_c, 7, 59, 127
10, 78662, Note_on_c, 7, 54, 0
10, 78711, Note_on_c, 7, 54, 127
10, 78826, Note_on_c, 7, 54, 0
10, 78840, Note_on_c, 7, 52, 125
10, 78845, Note_on_c, 7, 59, 0
10, 78846, Note_on_c, 7, 57, 127
10, 78879, Note_on_c, 7, 52, 0
10, 78908, Note_on_c, 7, 52, 114
10, 79063, Note_on_c, 7, 57, 0
10, 79073, Note_on_c, 7, 59, 125
10, 79192, Note_on_c, 7, 59, 0
10, 79201, Note_on_c, 7, 57, 127
10, 79328, Note_on_c, 7, 52, 0
10, 79610, Note_on_c, 7, 57, 0
10, 81598, Note_on_c, 7, 62, 127
10, 81721, Note_on_c, 7, 62, 0
10, 81727, Note_on_c, 7, 55, 127
10, 81729, Note_on_c, 7, 67, 125
10, 81871, Note_on_c, 7, 55, 0
10, 81905, Note_on_c, 7, 55, 125
10, 81963, Note_on_c, 7, 67, 0
10, 81969, Note_on_c, 7, 62, 127
10, 82055, Note_on_c, 7, 55, 0
10, 82077, Note_on_c, 7, 55, 89
10, 82142, Note_on_c, 7, 55, 0
10, 82147, Note_on_c, 7, 54, 127
10, 82195, Note_on_c, 7, 62, 0
10, 82195, Note_on_c, 7, 60, 127
10, 82395, Note_on_c, 7, 54, 0
10, 82438, Note_on_c, 7, 60, 0
10, 82438, Note_on_c, 7, 59, 127
10, 82441, Note_on_c, 7, 54, 127
10, 82511, Note_on_c, 7, 54, 0
10, 82556, Note_on_c, 7, 54, 127
10, 82664, Note_on_c, 7, 54, 0
10, 82679, Note_on_c, 7, 52, 127
10, 82690, Note_on_c, 7, 59, 0
10, 82690, Note_on_c, 7, 57, 125
10, 82718, Note_on_c, 7, 52, 0
10, 82748, Note_on_c, 7, 52, 114
10, 82918, Note_on_c, 7, 57, 0
10, 82924, Note_on_c, 7, 59, 125
10, 83037, Note_on_c, 7, 59, 0
10, 83043, Note_on_c, 7, 57, 127
10, 83144, Note_on_c, 7, 52, 0
10, 83162, Note_on_c, 7, 59, 127
10, 83311, Note_on_c, 7, 59, 0
10, 83351, Note_on_c, 7, 59, 125
10, 83523, Note_on_c, 7, 57, 0
10, 83528, Note_on_c, 7, 62, 127
10, 83616, Note_on_c, 7, 59, 0
10, 83640, Note_on_c, 7, 55, 127
10, 83647, Note_on_c, 7, 62, 0
10, 83657, Note_on_c, 7, 67, 122
10, 83792, Note_on_c, 7, 55, 0
10, 83823, Note_on_c, 7, 55, 114
10, 83886, Note_on_c, 7, 67, 0
10, 83886, Note_on_c, 7, 62, 127
10, 83974, Note_on_c, 7, 55, 0
10, 84001, Note_on_c, 7, 55, 114
10, 84072, Note_on_c, 7, 55, 0
10, 84073, Note_on_c, 7, 54, 127
10, 84119, Note_on_c, 7, 62, 0
10, 84125, Note_on_c, 7, 60, 127
10, 84331, Note_on_c, 7, 54, 0
10, 84365, Note_on_c, 7, 60, 0
10, 84369, Note_on_c, 7, 54, 127
10, 84370, Note_on_c, 7, 59, 127
10, 84433, Note_on_c, 7, 54, 0
10, 84474, Note_on_c, 7, 54, 127
10, 84576, Note_on_c, 7, 54, 0
10, 84599, Note_on_c, 7, 52, 127
10, 84605, Note_on_c, 7, 59, 0
10, 84615, Note_on_c, 7, 57, 127
10, 84645, Note_on_c, 7, 52, 0
10, 84671, Note_on_c, 7, 52, 97
10, 84838, Note_on_c, 7, 57, 0
10, 84845, Note_on_c, 7, 59, 127
10, 84961, Note_on_c, 7, 59, 0
10, 84968, Note_on_c, 7, 57, 125
10, 85044, Note_on_c, 7, 52, 0
10, 85076, Note_on_c, 7, 59, 127
10, 85224, Note_on_c, 7, 59, 0
10, 85263, Note_on_c, 7, 59, 125
10, 85433, Note_on_c, 7, 57, 0
10, 85433, Note_on_c, 7, 62, 127
10, 85526, Note_on_c, 7, 59, 0
10, 85555, Note_on_c, 7, 55, 127
10, 85559, Note_on_c, 7, 62, 0
10, 85565, Note_on_c, 7, 67, 125
10, 85714, Note_on_c, 7, 55, 0
10, 85747, Note_on_c, 7, 55, 125
10, 85799, Note_on_c, 7, 67, 0
10, 85804, Note_on_c, 7, 62, 127
10, 85897, Note_on_c, 7, 55, 0
10, 85927, Note_on_c, 7, 55, 125
10, 85990, Note_on_c, 7, 55, 0
10, 85994, Note_on_c, 7, 54, 127
10, 86041, Note_on_c, 7, 62, 0
10, 86041, Note_on_c, 7, 60, 127
10, 86258, Note_on_c, 7, 54, 0
10, 86286, Note_on_c, 7, 60, 0
10, 86288, Note_on_c, 7, 59, 127
10, 86294, Note_on_c, 7, 54, 127
10, 86358, Note_on_c, 7, 54, 0
10, 86399, Note_on_c, 7, 54, 125
10, 86524, Note_on_c, 7, 54, 0
10, 86524, Note_on_c, 7, 52, 127
10, 86527, Note_on_c, 7, 57, 122
10, 86528, Note_on_c, 7, 59, 0
10, 86567, Note_on_c, 7, 52, 0
10, 86594, Note_on_c, 7, 52, 97
10, 86749, Note_on_c, 7, 57, 0
10, 86758, Note_on_c, 7, 59, 122
10, 86875, Note_on_c, 7, 59, 0
10, 86882, Note_on_c, 7, 57, 127
10, 87059, Note_on_c, 7, 57, 0
10, 87295, Note_on_c, 7, 52, 0
10, 89278, Note_on_c, 7, 62, 127
10, 89401, Note_on_c, 7, 62, 0
10, 89407, Note_on_c, 7, 55, 127
10, 89409, Note_on_c, 7, 67, 125
10, 89551, Note_on_c, 7, 55, 0
10, 89585, Note_on_c, 7, 55, 125
10, 89643, Note_on_c, 7, 67, 0
10, 89649, Note_on_c, 7, 62, 127
10, 89735, Note_on_c, 7, 55, 0
10, 89757, Note_on_c, 7, 55, 89
10, 89822, Note_on_c, 7, 55, 0
10, 89827, Note_on_c, 7, 54, 127
10, 89875, Note_on_c, 7, 62, 0
10, 89875, Note_on_c, 7, 60, 127
10, 90075, Note_on_c, 7, 54, 0
10, 90118, Note_on_c, 7, 60, 0
10, 90118, Note_on_c, 7, 59, 127
10, 90121, Note_on_c, 7, 54, 127
10, 90191, Note_on_c, 7, 54, 0
10, 90236, Note_on_c, 7, 54, 127
10, 90344, Note_on_c, 7, 54, 0
10, 90359, Note_on_c, 7, 52, 127
10, 90370, Note_on_c, 7, 59, 0
10, 90370, Note_on_c, 7, 57, 125
10, 90398, Note_on_c, 7, 52, 0
10, 90428, Note_on_c, 7, 52, 114
10, 90598, Note_on_c, 7, 57, 0
10, 90604, Note_on_c, 7, 59, 125
10, 90717, Note_on_c, 7, 59, 0
10, 90723, Note_on_c, 7, 57, 127
10, 90824, Note_on_c, 7, 52, 0
10, 90842, Note_on_c, 7, 59, 127
10, 90991, Note_on_c, 7, 59, 0
10, 91031, Note_on_c, 7, 59, 125
10, 91203, Note_on_c, 7, 57, 0
10, 91208, Note_on_c, 7, 62, 127
10, 91296, Note_on_c, 7, 59, 0
10, 91320, Note_on_c, 7, 55, 127
10, 91327, Note_on_c, 7, 62, 0
10, 91337, Note_on_c, 7, 67, 122
10, 91472, Note_on_c, 7, 55, 0
10, 91503, Note_on_c, 7, 55, 114
10, 91566, Note_on_c, 7, 67, 0
10, 91566, Note_on_c, 7, 62, 127
10, 91654, Note_on_c, 7, 55, 0
10, 91681, Note_on_c, 7, 55, 114
10, 91752, Note_on_c, 7, 55, 0
10, 91753, Note_on_c, 7, 54, 127
10, 91799, Note_on_c, 7, 62, 0
10, 91805, Note_on_c, 7, 60, 127
10, 92011, Note_on_c, 7, 54, 0
10, 92045, Note_on_c, 7, 60, 0
10, 92049, Note_on_c, 7, 54, 127
10, 92050, Note_on_c, 7, 59, 127
10, 92113, Note_on_c, 7, 54, 0
10, 92154, Note_on_c, 7, 54, 127
10, 92256, Note_on_c, 7, 54, 0
10, 92279, Note_on_c, 7, 52, 127
10, 92285, Note_on_c, 7, 59, 0
10, 92295, Note_on_c, 7, 57, 127
10, 92325, Note_on_c, 7, 52, 0
10, 92351, Note_on_c, 7, 52, 97
10, 92518, Note_on_c, 7, 57, 0
10, 92525, Note_on_c, 7, 59, 127
10, 92641, Note_on_c, 7, 59, 0
10, 92648, Note_on_c, 7, 57, 125
10, 92724, Note_on_c, 7, 52, 0
10, 92756, Note_on_c, 7, 59, 127
10, 92904, Note_on_c, 7, 59, 0
10, 92943, Note_on_c, 7, 59, 125
10, 93113, Note_on_c, 7, 57, 0
10, 93113, Note_on_c, 7, 62, 127
10, 93206, Note_on_c, 7, 59, 0
10, 93235, Note_on_c, 7, 55, 127
10, 93239, Note_on_c, 7, 62, 0
10, 93245, Note_on_c, 7, 67, 125
10, 93394, Note_on_c, 7, 55, 0
10, 93427, Note_on_c, 7, 55, 125
10, 93479, Note_on_c, 7, 67, 0
10, 93484, Note_on_c, 7, 62, 127
10, 93577, Note_on_c, 7, 55, 0
10, 93607, Note_on_c, 7, 55, 125
10, 93670, Note_on_c, 7, 55, 0
10, 93674, Note_on_c, 7, 54, 127
10, 93721, Note_on_c, 7, 62, 0
10, 93721, Note_on_c, 7, 60, 127
10, 93938, Note_on_c, 7, 54, 0
10, 93966, Note_on_c, 7, 60, 0
10, 93968, Note_on_c, 7, 59, 127
10, 93974, Note_on_c, 7, 54, 127
10, 94038, Note_on_c, 7, 54, 0
10, 94079, Note_on_c, 7, 54, 125
10, 94204, Note_on_c, 7, 54, 0
10, 94204, Note_on_c, 7, 52, 127
10, 94207, Note_on_c, 7, 57, 122
10, 94208, Note_on_c, 7, 59, 0
10, 94247, Note_on_c, 7, 52, 0
10, 94274, Note_on_c, 7, 52, 97
10, 94429, Note_on_c, 7, 57, 0
10, 94438, Note_on_c, 7, 59, 122
10, 94555, Note_on_c, 7, 59, 0
10, 94562, Note_on_c, 7, 57, 127
10, 94600, Control_c, 7, 7, 117
10, 94650, Control_c, 7, 7, 116
10, 94693, Control_c, 7, 7, 115
10, 94739, Note_on_c, 7, 57, 0
10, 94799, Control_c, 7, 7, 114
10, 94875, Control_c, 7, 7, 113
10, 94895, Control_c, 7, 7, 112
10, 94945, Control_c, 7, 7, 111
10, 94975, Note_on_c, 7, 52, 0
10, 95045, Control_c, 7, 7, 110
10, 95084, Control_c, 7, 7, 109
10, 95122, Control_c, 7, 7, 108
10, 95130, Control_c, 7, 7, 107
10, 95200, Control_c, 7, 7, 106
10, 95230, Control_c, 7, 7, 105
10, 95260, Control_c, 7, 7, 104
10, 95270, Control_c, 7, 7, 103
10, 95370, Control_c, 7, 7, 102
10, 95380, Control_c, 7, 7, 101
10, 95400, Control_c, 7, 7, 100
10, 95445, Control_c, 7, 7, 99
10, 95475, Control_c, 7, 7, 98
10, 95495, Control_c, 7, 7, 97
10, 95525, Control_c, 7, 7, 96
10, 95665, Control_c, 7, 7, 95
10, 95815, Control_c, 7, 7, 94
10, 95840, Control_c, 7, 7, 93
10, 95960, Control_c, 7, 7, 92
10, 96000, Control_c, 7, 7, 91
10, 96005, Control_c, 7, 7, 90
10, 96060, Control_c, 7, 7, 89
10, 96210, Control_c, 7, 7, 88
10, 96250, Control_c, 7, 7, 87
10, 96320, Control_c, 7, 7, 86
10, 96360, Control_c, 7, 7, 85
10, 96435, Control_c, 7, 7, 84
10, 96475, Control_c, 7, 7, 83
10, 96535, Control_c, 7, 7, 82
10, 96595, Control_c, 7, 7, 81
10, 96670, Control_c, 7, 7, 80
10, 96730, Control_c, 7, 7, 79
10, 96740, Control_c, 7, 7, 78
10, 96890, Control_c, 7, 7, 77
10, 96910, Control_c, 7, 7, 76
10, 96940, Control_c, 7, 7, 75
10, 96954, Note_on_c, 7, 50, 127
10, 96970, Control_c, 7, 7, 74
10, 97040, Control_c, 7, 7, 73
10, 97060, Control_c, 7, 7, 72
10, 97075, Note_on_c, 7, 50, 0
10, 97084, Note_on_c, 7, 55, 127
10, 97094, Control_c, 7, 7, 71
10, 97210, Control_c, 7, 7, 70
10, 97249, Control_c, 7, 7, 69
10, 97305, Control_c, 7, 7, 68
10, 97322, Note_on_c, 7, 55, 0
10, 97323, Note_on_c, 7, 57, 127
10, 97365, Control_c, 7, 7, 67
10, 97434, Control_c, 7, 7, 66
10, 97507, Control_c, 7, 7, 65
10, 97537, Control_c, 7, 7, 64
10, 97558, Note_on_c, 7, 60, 127
10, 97561, Note_on_c, 7, 57, 0
10, 97594, Control_c, 7, 7, 63
10, 97625, Control_c, 7, 7, 62
10, 97675, Control_c, 7, 7, 61
10, 97705, Control_c, 7, 7, 60
10, 97755, Control_c, 7, 7, 59
10, 97775, Control_c, 7, 7, 58
10, 97795, Control_c, 7, 7, 57
10, 97806, Note_on_c, 7, 60, 0
10, 97808, Control_c, 7, 7, 56
10, 97808, Note_on_c, 7, 59, 127
10, 97840, Control_c, 7, 7, 55
10, 97850, Control_c, 7, 7, 54
10, 97860, Control_c, 7, 7, 53
10, 97900, Control_c, 7, 7, 52
10, 97930, Control_c, 7, 7, 51
10, 97950, Control_c, 7, 7, 50
10, 97960, Control_c, 7, 7, 49
10, 98001, Control_c, 7, 7, 48
10, 98034, Control_c, 7, 7, 47
10, 98041, Note_on_c, 7, 59, 0
10, 98042, Note_on_c, 7, 57, 127
10, 98054, Control_c, 7, 7, 46
10, 98084, Control_c, 7, 7, 45
10, 98125, Control_c, 7, 7, 44
10, 98135, Control_c, 7, 7, 43
10, 98155, Control_c, 7, 7, 42
10, 98204, Control_c, 7, 7, 41
10, 98255, Control_c, 7, 7, 40
10, 98280, Note_on_c, 7, 57, 0
10, 98283, Note_on_c, 7, 59, 125
10, 98293, Control_c, 7, 7, 39
10, 98315, Control_c, 7, 7, 38
10, 98365, Control_c, 7, 7, 37
10, 98403, Note_on_c, 7, 59, 0
10, 98408, Note_on_c, 7, 57, 127
10, 98413, Control_c, 7, 7, 36
10, 98475, Control_c, 7, 7, 35
10, 98480, Control_c, 7, 7, 34
10, 98533, Control_c, 7, 7, 33
10, 98543, Control_c, 7, 7, 32
10, 98574, Control_c, 7, 7, 31
10, 98615, Control_c, 7, 7, 30
10, 98655, Control_c, 7, 7, 29
10, 98685, Control_c, 7, 7, 28
10, 98705, Control_c, 7, 7, 27
10, 98765, Control_c, 7, 7, 26
10, 98789, Control_c, 7, 7, 25
10, 98815, Control_c, 7, 7, 24
10, 98849, Control_c, 7, 7, 23
10, 98865, Control_c, 7, 7, 22
10, 98878, Control_c, 7, 7, 21
10, 98878, Note_on_c, 7, 50, 107
10, 98884, Note_on_c, 7, 57, 0
10, 98919, Control_c, 7, 7, 20
10, 98950, Control_c, 7, 7, 19
10, 98980, Control_c, 7, 7, 18
10, 98991, Control_c, 7, 7, 17
10, 99009, Note_on_c, 7, 50, 0
10, 99009, Control_c, 7, 7, 16
10, 99013, Note_on_c, 7, 55, 127
10, 99093, Control_c, 7, 7, 15
10, 99120, Control_c, 7, 7, 14
10, 99150, Control_c, 7, 7, 13
10, 99210, Control_c, 7, 7, 12
10, 99250, Control_c, 7, 7, 11
10, 99256, Note_on_c, 7, 57, 125
10, 99265, Note_on_c, 7, 55, 0
10, 99300, Control_c, 7, 7, 10
10, 99330, Control_c, 7, 7, 9
10, 99420, Control_c, 7, 7, 8
10, 99476, Note_on_c, 7, 57, 0
10, 99476, Control_c, 7, 7, 7
10, 99485, Note_on_c, 7, 60, 127
10, 99516, Control_c, 7, 7, 6
10, 99576, Control_c, 7, 7, 5
10, 99703, Control_c, 7, 7, 4
10, 99713, Note_on_c, 7, 60, 0
10, 99718, Note_on_c, 7, 59, 127
10, 99740, Control_c, 7, 7, 3
10, 99790, Control_c, 7, 7, 2
10, 99855, Control_c, 7, 7, 1
10, 99871, Note_on_c, 7, 59, 0
10, 99871, End_track
11, 0, Start_track
11, 0, MIDI_port, 0
11, 0, Title_t, "Cymbals and Percussion"
11, 0, Program_c, 9, 0
11, 0, Control_c, 9, 7, 114
11, 0, Control_c, 9, 10, 64
11, 0, Control_c, 9, 93, 21
11, 0, Control_c, 9, 91, 89
11, 1080, Note_on_c, 9, 51, 127
11, 1140, Note_on_c, 9, 51, 0
11, 1200, Note_on_c, 9, 51, 127
11, 1229, Note_on_c, 9, 51, 0
11, 1320, Note_on_c, 9, 51, 127
11, 1349, Note_on_c, 9, 51, 0
11, 1440, Note_on_c, 9, 51, 127
11, 1469, Note_on_c, 9, 51, 0
11, 1560, Note_on_c, 9, 51, 127
11, 1589, Note_on_c, 9, 51, 0
11, 1680, Note_on_c, 9, 51, 127
11, 1709, Note_on_c, 9, 51, 0
11, 1800, Note_on_c, 9, 51, 127
11, 1860, Note_on_c, 9, 51, 0
11, 1920, Note_on_c, 9, 51, 127
11, 1949, Note_on_c, 9, 51, 0
11, 2040, Note_on_c, 9, 51, 127
11, 2100, Note_on_c, 9, 51, 0
11, 2160, Note_on_c, 9, 51, 127
11, 2220, Note_on_c, 9, 51, 0
11, 2280, Note_on_c, 9, 51, 127
11, 2340, Note_on_c, 9, 51, 0
11, 2400, Note_on_c, 9, 51, 127
11, 2460, Note_on_c, 9, 51, 0
11, 2520, Note_on_c, 9, 51, 127
11, 2580, Note_on_c, 9, 51, 0
11, 2640, Note_on_c, 9, 51, 127
11, 2700, Note_on_c, 9, 51, 0
11, 2760, Note_on_c, 9, 51, 127
11, 2820, Note_on_c, 9, 51, 0
11, 2880, Note_on_c, 9, 51, 127
11, 2940, Note_on_c, 9, 51, 0
11, 3000, Note_on_c, 9, 51, 127
11, 3060, Note_on_c, 9, 51, 0
11, 3120, Note_on_c, 9, 51, 127
11, 3180, Note_on_c, 9, 51, 0
11, 3240, Note_on_c, 9, 51, 127
11, 3300, Note_on_c, 9, 51, 0
11, 3360, Note_on_c, 9, 51, 127
11, 3420, Note_on_c, 9, 51, 0
11, 3480, Note_on_c, 9, 51, 127
11, 3540, Note_on_c, 9, 51, 0
11, 3600, Note_on_c, 9, 51, 127
11, 3660, Note_on_c, 9, 51, 0
11, 3720, Note_on_c, 9, 51, 127
11, 3780, Note_on_c, 9, 51, 0
11, 3840, Note_on_c, 9, 51, 127
11, 3869, Note_on_c, 9, 51, 0
11, 3960, Note_on_c, 9, 51, 127
11, 3989, Note_on_c, 9, 51, 0
11, 4080, Note_on_c, 9, 51, 127
11, 4109, Note_on_c, 9, 51, 0
11, 4200, Note_on_c, 9, 51, 127
11, 4260, Note_on_c, 9, 51, 0
11, 4320, Note_on_c, 9, 51, 127
11, 4380, Note_on_c, 9, 51, 0
11, 4440, Note_on_c, 9, 51, 127
11, 4469, Note_on_c, 9, 51, 0
11, 4560, Note_on_c, 9, 51, 127
11, 4589, Note_on_c, 9, 51, 0
11, 4680, Note_on_c, 9, 51, 127
11, 4709, Note_on_c, 9, 51, 0
11, 4800, Note_on_c, 9, 51, 127
11, 4829, Note_on_c, 9, 51, 0
11, 4920, Note_on_c, 9, 51, 127
11, 4949, Note_on_c, 9, 51, 0
11, 5040, Note_on_c, 9, 51, 127
11, 5069, Note_on_c, 9, 51, 0
11, 5160, Note_on_c, 9, 51, 127
11, 5189, Note_on_c, 9, 51, 0
11, 5280, Note_on_c, 9, 51, 127
11, 5309, Note_on_c, 9, 51, 0
11, 5400, Note_on_c, 9, 51, 127
11, 5429, Note_on_c, 9, 51, 0
11, 5520, Note_on_c, 9, 51, 127
11, 5549, Note_on_c, 9, 51, 0
11, 5640, Note_on_c, 9, 51, 127
11, 5669, Note_on_c, 9, 51, 0
11, 5760, Note_on_c, 9, 51, 127
11, 5789, Note_on_c, 9, 51, 0
11, 5880, Note_on_c, 9, 51, 127
11, 5909, Note_on_c, 9, 51, 0
11, 6000, Note_on_c, 9, 51, 127
11, 6029, Note_on_c, 9, 51, 0
11, 6120, Note_on_c, 9, 51, 127
11, 6149, Note_on_c, 9, 51, 0
11, 6240, Note_on_c, 9, 51, 127
11, 6269, Note_on_c, 9, 51, 0
11, 6360, Note_on_c, 9, 51, 127
11, 6389, Note_on_c, 9, 51, 0
11, 6480, Note_on_c, 9, 51, 127
11, 6509, Note_on_c, 9, 51, 0
11, 6600, Note_on_c, 9, 51, 127
11, 6660, Note_on_c, 9, 51, 0
11, 6720, Note_on_c, 9, 51, 127
11, 6749, Note_on_c, 9, 51, 0
11, 6840, Note_on_c, 9, 51, 127
11, 6900, Note_on_c, 9, 51, 0
11, 6960, Note_on_c, 9, 51, 127
11, 7020, Note_on_c, 9, 51, 0
11, 7080, Note_on_c, 9, 51, 127
11, 7109, Note_on_c, 9, 51, 0
11, 7200, Note_on_c, 9, 51, 127
11, 7229, Note_on_c, 9, 51, 0
11, 7320, Note_on_c, 9, 51, 127
11, 7349, Note_on_c, 9, 51, 0
11, 7440, Note_on_c, 9, 51, 127
11, 7469, Note_on_c, 9, 51, 0
11, 7560, Note_on_c, 9, 51, 127
11, 7589, Note_on_c, 9, 51, 0
11, 7680, Note_on_c, 9, 51, 125
11, 7709, Note_on_c, 9, 51, 0
11, 7800, Note_on_c, 9, 51, 127
11, 7860, Note_on_c, 9, 51, 0
11, 7920, Note_on_c, 9, 51, 127
11, 7949, Note_on_c, 9, 51, 0
11, 8040, Note_on_c, 9, 51, 125
11, 8069, Note_on_c, 9, 51, 0
11, 8160, Note_on_c, 9, 51, 127
11, 8189, Note_on_c, 9, 51, 0
11, 8280, Note_on_c, 9, 51, 127
11, 8340, Note_on_c, 9, 51, 0
11, 8400, Note_on_c, 9, 51, 127
11, 8460, Note_on_c, 9, 51, 0
11, 8520, Note_on_c, 9, 51, 127
11, 8580, Note_on_c, 9, 51, 0
11, 8640, Note_on_c, 9, 51, 127
11, 8669, Note_on_c, 9, 51, 0
11, 8760, Note_on_c, 9, 51, 127
11, 8820, Note_on_c, 9, 51, 0
11, 8880, Note_on_c, 9, 51, 127
11, 8940, Note_on_c, 9, 51, 0
11, 9000, Note_on_c, 9, 51, 127
11, 9060, Note_on_c, 9, 51, 0
11, 9120, Note_on_c, 9, 51, 127
11, 9180, Note_on_c, 9, 51, 0
11, 9240, Note_on_c, 9, 51, 127
11, 9300, Note_on_c, 9, 51, 0
11, 9360, Note_on_c, 9, 51, 127
11, 9420, Note_on_c, 9, 51, 0
11, 9480, Note_on_c, 9, 51, 127
11, 9540, Note_on_c, 9, 51, 0
11, 9600, Note_on_c, 9, 51, 127
11, 9629, Note_on_c, 9, 51, 0
11, 9720, Note_on_c, 9, 51, 127
11, 9780, Note_on_c, 9, 51, 0
11, 9840, Note_on_c, 9, 51, 127
11, 9869, Note_on_c, 9, 51, 0
11, 9960, Note_on_c, 9, 51, 127
11, 10020, Note_on_c, 9, 51, 0
11, 10080, Note_on_c, 9, 51, 127
11, 10109, Note_on_c, 9, 51, 0
11, 10200, Note_on_c, 9, 51, 127
11, 10229, Note_on_c, 9, 51, 0
11, 10320, Note_on_c, 9, 51, 127
11, 10349, Note_on_c, 9, 51, 0
11, 10440, Note_on_c, 9, 51, 127
11, 10469, Note_on_c, 9, 51, 0
11, 10560, Note_on_c, 9, 51, 127
11, 10620, Note_on_c, 9, 51, 0
11, 10680, Note_on_c, 9, 51, 127
11, 10680, Note_on_c, 9, 49, 127
11, 10740, Note_on_c, 9, 49, 0
11, 10740, Note_on_c, 9, 51, 0
11, 10800, Note_on_c, 9, 51, 127
11, 10860, Note_on_c, 9, 51, 0
11, 10920, Note_on_c, 9, 51, 127
11, 10949, Note_on_c, 9, 51, 0
11, 11040, Note_on_c, 9, 51, 127
11, 11069, Note_on_c, 9, 51, 0
11, 11160, Note_on_c, 9, 51, 127
11, 11189, Note_on_c, 9, 51, 0
11, 11280, Note_on_c, 9, 51, 127
11, 11309, Note_on_c, 9, 51, 0
11, 11400, Note_on_c, 9, 51, 127
11, 11429, Note_on_c, 9, 51, 0
11, 11520, Note_on_c, 9, 51, 127
11, 11549, Note_on_c, 9, 51, 0
11, 11640, Note_on_c, 9, 51, 127
11, 11669, Note_on_c, 9, 51, 0
11, 11760, Note_on_c, 9, 51, 127
11, 11789, Note_on_c, 9, 51, 0
11, 11880, Note_on_c, 9, 51, 127
11, 11909, Note_on_c, 9, 51, 0
11, 12000, Note_on_c, 9, 51, 127
11, 12029, Note_on_c, 9, 51, 0
11, 12120, Note_on_c, 9, 51, 127
11, 12149, Note_on_c, 9, 51, 0
11, 12240, Note_on_c, 9, 51, 127
11, 12269, Note_on_c, 9, 51, 0
11, 12360, Note_on_c, 9, 51, 127
11, 12420, Note_on_c, 9, 51, 0
11, 12480, Note_on_c, 9, 51, 127
11, 12540, Note_on_c, 9, 51, 0
11, 12600, Note_on_c, 9, 51, 127
11, 12629, Note_on_c, 9, 51, 0
11, 12720, Note_on_c, 9, 51, 127
11, 12749, Note_on_c, 9, 51, 0
11, 12840, Note_on_c, 9, 51, 127
11, 12869, Note_on_c, 9, 51, 0
11, 12960, Note_on_c, 9, 51, 127
11, 12989, Note_on_c, 9, 51, 0
11, 13080, Note_on_c, 9, 51, 127
11, 13109, Note_on_c, 9, 51, 0
11, 13200, Note_on_c, 9, 51, 127
11, 13229, Note_on_c, 9, 51, 0
11, 13320, Note_on_c, 9, 51, 127
11, 13349, Note_on_c, 9, 51, 0
11, 13440, Note_on_c, 9, 51, 127
11, 13469, Note_on_c, 9, 51, 0
11, 13560, Note_on_c, 9, 51, 127
11, 13620, Note_on_c, 9, 51, 0
11, 13680, Note_on_c, 9, 51, 127
11, 13709, Note_on_c, 9, 51, 0
11, 13800, Note_on_c, 9, 51, 127
11, 13829, Note_on_c, 9, 51, 0
11, 13920, Note_on_c, 9, 51, 127
11, 13949, Note_on_c, 9, 51, 0
11, 14040, Note_on_c, 9, 51, 127
11, 14069, Note_on_c, 9, 51, 0
11, 14160, Note_on_c, 9, 51, 127
11, 14189, Note_on_c, 9, 51, 0
11, 14280, Note_on_c, 9, 51, 127
11, 14309, Note_on_c, 9, 51, 0
11, 14400, Note_on_c, 9, 51, 127
11, 14429, Note_on_c, 9, 51, 0
11, 14520, Note_on_c, 9, 51, 127
11, 14549, Note_on_c, 9, 51, 0
11, 14640, Note_on_c, 9, 51, 127
11, 14669, Note_on_c, 9, 51, 0
11, 14760, Note_on_c, 9, 51, 127
11, 14789, Note_on_c, 9, 51, 0
11, 14880, Note_on_c, 9, 51, 127
11, 14909, Note_on_c, 9, 51, 0
11, 15000, Note_on_c, 9, 51, 127
11, 15029, Note_on_c, 9, 51, 0
11, 15120, Note_on_c, 9, 51, 127
11, 15149, Note_on_c, 9, 51, 0
11, 15240, Note_on_c, 9, 51, 127
11, 15269, Note_on_c, 9, 51, 0
11, 15360, Note_on_c, 9, 51, 127
11, 15389, Note_on_c, 9, 51, 0
11, 15480, Note_on_c, 9, 51, 127
11, 15509, Note_on_c, 9, 51, 0
11, 15600, Note_on_c, 9, 51, 127
11, 15629, Note_on_c, 9, 51, 0
11, 15720, Note_on_c, 9, 51, 127
11, 15749, Note_on_c, 9, 51, 0
11, 15840, Note_on_c, 9, 51, 127
11, 15900, Note_on_c, 9, 51, 0
11, 15960, Note_on_c, 9, 51, 127
11, 16020, Note_on_c, 9, 51, 0
11, 16080, Note_on_c, 9, 51, 127
11, 16140, Note_on_c, 9, 51, 0
11, 16200, Note_on_c, 9, 51, 127
11, 16260, Note_on_c, 9, 51, 0
11, 16320, Note_on_c, 9, 51, 127
11, 16380, Note_on_c, 9, 51, 0
11, 16440, Note_on_c, 9, 51, 127
11, 16500, Note_on_c, 9, 51, 0
11, 16560, Note_on_c, 9, 51, 127
11, 16620, Note_on_c, 9, 51, 0
11, 16680, Note_on_c, 9, 51, 127
11, 16740, Note_on_c, 9, 51, 0
11, 16800, Note_on_c, 9, 51, 127
11, 16860, Note_on_c, 9, 51, 0
11, 16920, Note_on_c, 9, 51, 127
11, 16949, Note_on_c, 9, 51, 0
11, 17040, Note_on_c, 9, 51, 127
11, 17069, Note_on_c, 9, 51, 0
11, 17160, Note_on_c, 9, 51, 127
11, 17189, Note_on_c, 9, 51, 0
11, 17280, Note_on_c, 9, 51, 127
11, 17309, Note_on_c, 9, 51, 0
11, 17400, Note_on_c, 9, 51, 127
11, 17460, Note_on_c, 9, 51, 0
11, 17520, Note_on_c, 9, 51, 127
11, 17580, Note_on_c, 9, 51, 0
11, 17640, Note_on_c, 9, 51, 127
11, 17669, Note_on_c, 9, 51, 0
11, 17760, Note_on_c, 9, 51, 127
11, 17789, Note_on_c, 9, 51, 0
11, 17880, Note_on_c, 9, 51, 127
11, 17909, Note_on_c, 9, 51, 0
11, 18000, Note_on_c, 9, 51, 127
11, 18060, Note_on_c, 9, 51, 0
11, 18120, Note_on_c, 9, 51, 127
11, 18180, Note_on_c, 9, 51, 0
11, 18240, Note_on_c, 9, 51, 127
11, 18300, Note_on_c, 9, 51, 0
11, 18360, Note_on_c, 9, 51, 127
11, 18420, Note_on_c, 9, 51, 0
11, 18480, Note_on_c, 9, 51, 127
11, 18540, Note_on_c, 9, 51, 0
11, 18600, Note_on_c, 9, 51, 127
11, 18629, Note_on_c, 9, 51, 0
11, 18720, Note_on_c, 9, 51, 127
11, 18749, Note_on_c, 9, 51, 0
11, 18840, Note_on_c, 9, 51, 127
11, 18869, Note_on_c, 9, 51, 0
11, 18960, Note_on_c, 9, 51, 127
11, 18989, Note_on_c, 9, 51, 0
11, 19080, Note_on_c, 9, 51, 127
11, 19109, Note_on_c, 9, 51, 0
11, 19200, Note_on_c, 9, 51, 127
11, 19229, Note_on_c, 9, 51, 0
11, 19320, Note_on_c, 9, 51, 127
11, 19349, Note_on_c, 9, 51, 0
11, 19440, Note_on_c, 9, 51, 127
11, 19500, Note_on_c, 9, 51, 0
11, 19560, Note_on_c, 9, 51, 127
11, 19620, Note_on_c, 9, 51, 0
11, 19680, Note_on_c, 9, 51, 127
11, 19740, Note_on_c, 9, 51, 0
11, 19800, Note_on_c, 9, 51, 127
11, 19860, Note_on_c, 9, 51, 0
11, 19920, Note_on_c, 9, 51, 127
11, 19980, Note_on_c, 9, 51, 0
11, 20040, Note_on_c, 9, 51, 127
11, 20069, Note_on_c, 9, 51, 0
11, 20160, Note_on_c, 9, 51, 127
11, 20189, Note_on_c, 9, 51, 0
11, 20280, Note_on_c, 9, 49, 127
11, 20280, Note_on_c, 9, 55, 53
11, 20280, Note_on_c, 9, 51, 127
11, 20280, Note_on_c, 9, 54, 127
11, 20309, Note_on_c, 9, 51, 0
11, 20309, Note_on_c, 9, 55, 0
11, 20340, Note_on_c, 9, 49, 0
11, 20340, Note_on_c, 9, 54, 0
11, 20400, Note_on_c, 9, 54, 127
11, 20400, Note_on_c, 9, 51, 127
11, 20429, Note_on_c, 9, 51, 0
11, 20429, Note_on_c, 9, 54, 0
11, 20520, Note_on_c, 9, 54, 127
11, 20520, Note_on_c, 9, 51, 127
11, 20549, Note_on_c, 9, 51, 0
11, 20549, Note_on_c, 9, 54, 0
11, 20640, Note_on_c, 9, 54, 127
11, 20640, Note_on_c, 9, 51, 127
11, 20669, Note_on_c, 9, 54, 0
11, 20700, Note_on_c, 9, 51, 0
11, 20760, Note_on_c, 9, 54, 127
11, 20760, Note_on_c, 9, 51, 127
11, 20789, Note_on_c, 9, 51, 0
11, 20789, Note_on_c, 9, 54, 0
11, 20880, Note_on_c, 9, 54, 127
11, 20880, Note_on_c, 9, 51, 125
11, 20909, Note_on_c, 9, 51, 0
11, 20940, Note_on_c, 9, 54, 0
11, 21000, Note_on_c, 9, 51, 127
11, 21000, Note_on_c, 9, 54, 127
11, 21029, Note_on_c, 9, 54, 0
11, 21029, Note_on_c, 9, 51, 0
11, 21120, Note_on_c, 9, 54, 127
11, 21120, Note_on_c, 9, 51, 125
11, 21149, Note_on_c, 9, 51, 0
11, 21149, Note_on_c, 9, 54, 0
11, 21240, Note_on_c, 9, 51, 127
11, 21240, Note_on_c, 9, 54, 127
11, 21269, Note_on_c, 9, 51, 0
11, 21300, Note_on_c, 9, 54, 0
11, 21360, Note_on_c, 9, 51, 125
11, 21360, Note_on_c, 9, 54, 127
11, 21389, Note_on_c, 9, 54, 0
11, 21389, Note_on_c, 9, 51, 0
11, 21480, Note_on_c, 9, 51, 127
11, 21480, Note_on_c, 9, 54, 127
11, 21509, Note_on_c, 9, 54, 0
11, 21509, Note_on_c, 9, 51, 0
11, 21600, Note_on_c, 9, 51, 125
11, 21600, Note_on_c, 9, 54, 125
11, 21629, Note_on_c, 9, 54, 0
11, 21629, Note_on_c, 9, 51, 0
11, 21720, Note_on_c, 9, 54, 127
11, 21720, Note_on_c, 9, 51, 127
11, 21780, Note_on_c, 9, 51, 0
11, 21780, Note_on_c, 9, 54, 0
11, 21840, Note_on_c, 9, 54, 127
11, 21840, Note_on_c, 9, 51, 127
11, 21869, Note_on_c, 9, 54, 0
11, 21900, Note_on_c, 9, 51, 0
11, 21960, Note_on_c, 9, 54, 127
11, 21960, Note_on_c, 9, 51, 127
11, 21989, Note_on_c, 9, 54, 0
11, 22020, Note_on_c, 9, 51, 0
11, 22080, Note_on_c, 9, 51, 127
11, 22080, Note_on_c, 9, 54, 127
11, 22109, Note_on_c, 9, 54, 0
11, 22109, Note_on_c, 9, 51, 0
11, 22200, Note_on_c, 9, 54, 127
11, 22200, Note_on_c, 9, 51, 127
11, 22206, Note_on_c, 9, 49, 127
11, 22229, Note_on_c, 9, 51, 0
11, 22229, Note_on_c, 9, 54, 0
11, 22230, Note_on_c, 9, 49, 0
11, 22320, Note_on_c, 9, 54, 127
11, 22320, Note_on_c, 9, 51, 127
11, 22349, Note_on_c, 9, 51, 0
11, 22349, Note_on_c, 9, 54, 0
11, 22440, Note_on_c, 9, 51, 127
11, 22440, Note_on_c, 9, 54, 127
11, 22469, Note_on_c, 9, 54, 0
11, 22469, Note_on_c, 9, 51, 0
11, 22560, Note_on_c, 9, 54, 127
11, 22560, Note_on_c, 9, 51, 127
11, 22589, Note_on_c, 9, 51, 0
11, 22589, Note_on_c, 9, 54, 0
11, 22680, Note_on_c, 9, 51, 127
11, 22680, Note_on_c, 9, 54, 127
11, 22709, Note_on_c, 9, 54, 0
11, 22709, Note_on_c, 9, 51, 0
11, 22800, Note_on_c, 9, 51, 127
11, 22800, Note_on_c, 9, 54, 127
11, 22829, Note_on_c, 9, 51, 0
11, 22860, Note_on_c, 9, 54, 0
11, 22920, Note_on_c, 9, 51, 127
11, 22920, Note_on_c, 9, 54, 127
11, 22949, Note_on_c, 9, 51, 0
11, 22980, Note_on_c, 9, 54, 0
11, 23040, Note_on_c, 9, 51, 125
11, 23040, Note_on_c, 9, 54, 127
11, 23069, Note_on_c, 9, 54, 0
11, 23069, Note_on_c, 9, 51, 0
11, 23160, Note_on_c, 9, 51, 127
11, 23160, Note_on_c, 9, 54, 125
11, 23189, Note_on_c, 9, 54, 0
11, 23189, Note_on_c, 9, 51, 0
11, 23280, Note_on_c, 9, 54, 127
11, 23280, Note_on_c, 9, 51, 125
11, 23309, Note_on_c, 9, 51, 0
11, 23309, Note_on_c, 9, 54, 0
11, 23400, Note_on_c, 9, 54, 127
11, 23400, Note_on_c, 9, 51, 122
11, 23429, Note_on_c, 9, 51, 0
11, 23429, Note_on_c, 9, 54, 0
11, 23520, Note_on_c, 9, 51, 125
11, 23520, Note_on_c, 9, 54, 127
11, 23549, Note_on_c, 9, 54, 0
11, 23549, Note_on_c, 9, 51, 0
11, 23640, Note_on_c, 9, 51, 127
11, 23640, Note_on_c, 9, 54, 127
11, 23669, Note_on_c, 9, 51, 0
11, 23700, Note_on_c, 9, 54, 0
11, 23760, Note_on_c, 9, 51, 125
11, 23760, Note_on_c, 9, 54, 127
11, 23789, Note_on_c, 9, 54, 0
11, 23789, Note_on_c, 9, 51, 0
11, 23880, Note_on_c, 9, 51, 125
11, 23880, Note_on_c, 9, 54, 125
11, 23909, Note_on_c, 9, 54, 0
11, 23940, Note_on_c, 9, 51, 0
11, 24000, Note_on_c, 9, 54, 125
11, 24000, Note_on_c, 9, 51, 127
11, 24029, Note_on_c, 9, 54, 0
11, 24060, Note_on_c, 9, 51, 0
11, 24120, Note_on_c, 9, 54, 127
11, 24120, Note_on_c, 9, 51, 125
11, 24126, Note_on_c, 9, 49, 127
11, 24149, Note_on_c, 9, 54, 0
11, 24150, Note_on_c, 9, 49, 0
11, 24180, Note_on_c, 9, 51, 0
11, 24240, Note_on_c, 9, 54, 127
11, 24240, Note_on_c, 9, 51, 127
11, 24269, Note_on_c, 9, 54, 0
11, 24300, Note_on_c, 9, 51, 0
11, 24360, Note_on_c, 9, 54, 127
11, 24360, Note_on_c, 9, 51, 127
11, 24389, Note_on_c, 9, 51, 0
11, 24389, Note_on_c, 9, 54, 0
11, 24480, Note_on_c, 9, 51, 125
11, 24480, Note_on_c, 9, 54, 127
11, 24540, Note_on_c, 9, 54, 0
11, 24540, Note_on_c, 9, 51, 0
11, 24600, Note_on_c, 9, 51, 125
11, 24600, Note_on_c, 9, 54, 127
11, 24629, Note_on_c, 9, 51, 0
11, 24660, Note_on_c, 9, 54, 0
11, 24720, Note_on_c, 9, 51, 125
11, 24720, Note_on_c, 9, 54, 125
11, 24749, Note_on_c, 9, 54, 0
11, 24749, Note_on_c, 9, 51, 0
11, 24840, Note_on_c, 9, 51, 125
11, 24840, Note_on_c, 9, 54, 127
11, 24869, Note_on_c, 9, 54, 0
11, 24869, Note_on_c, 9, 51, 0
11, 24960, Note_on_c, 9, 51, 114
11, 24960, Note_on_c, 9, 54, 127
11, 24989, Note_on_c, 9, 54, 0
11, 24989, Note_on_c, 9, 51, 0
11, 25080, Note_on_c, 9, 54, 127
11, 25080, Note_on_c, 9, 51, 125
11, 25140, Note_on_c, 9, 51, 0
11, 25140, Note_on_c, 9, 54, 0
11, 25200, Note_on_c, 9, 51, 125
11, 25200, Note_on_c, 9, 54, 127
11, 25229, Note_on_c, 9, 51, 0
11, 25260, Note_on_c, 9, 54, 0
11, 25320, Note_on_c, 9, 51, 125
11, 25320, Note_on_c, 9, 54, 127
11, 25380, Note_on_c, 9, 54, 0
11, 25380, Note_on_c, 9, 51, 0
11, 25440, Note_on_c, 9, 54, 127
11, 25440, Note_on_c, 9, 51, 127
11, 25469, Note_on_c, 9, 54, 0
11, 25500, Note_on_c, 9, 51, 0
11, 25560, Note_on_c, 9, 54, 127
11, 25560, Note_on_c, 9, 51, 125
11, 25589, Note_on_c, 9, 54, 0
11, 25620, Note_on_c, 9, 51, 0
11, 25680, Note_on_c, 9, 54, 127
11, 25680, Note_on_c, 9, 51, 125
11, 25709, Note_on_c, 9, 51, 0
11, 25740, Note_on_c, 9, 54, 0
11, 25800, Note_on_c, 9, 51, 125
11, 25800, Note_on_c, 9, 54, 127
11, 25829, Note_on_c, 9, 51, 0
11, 25860, Note_on_c, 9, 54, 0
11, 25920, Note_on_c, 9, 51, 125
11, 25949, Note_on_c, 9, 51, 0
11, 25950, Note_on_c, 9, 54, 127
11, 25979, Note_on_c, 9, 54, 0
11, 26040, Note_on_c, 9, 51, 127
11, 26040, Note_on_c, 9, 54, 127
11, 26069, Note_on_c, 9, 51, 0
11, 26100, Note_on_c, 9, 54, 0
11, 26160, Note_on_c, 9, 54, 127
11, 26189, Note_on_c, 9, 54, 0
11, 26280, Note_on_c, 9, 54, 127
11, 26340, Note_on_c, 9, 54, 0
11, 26400, Note_on_c, 9, 54, 127
11, 26429, Note_on_c, 9, 54, 0
11, 26520, Note_on_c, 9, 54, 127
11, 26580, Note_on_c, 9, 54, 0
11, 26640, Note_on_c, 9, 54, 127
11, 26700, Note_on_c, 9, 54, 0
11, 26760, Note_on_c, 9, 54, 127
11, 26789, Note_on_c, 9, 54, 0
11, 26880, Note_on_c, 9, 54, 127
11, 26909, Note_on_c, 9, 54, 0
11, 27000, Note_on_c, 9, 54, 127
11, 27029, Note_on_c, 9, 54, 0
11, 27120, Note_on_c, 9, 54, 127
11, 27180, Note_on_c, 9, 54, 0
11, 27240, Note_on_c, 9, 54, 127
11, 27269, Note_on_c, 9, 54, 0
11, 27360, Note_on_c, 9, 54, 127
11, 27420, Note_on_c, 9, 54, 0
11, 27480, Note_on_c, 9, 54, 127
11, 27509, Note_on_c, 9, 54, 0
11, 27600, Note_on_c, 9, 54, 127
11, 27629, Note_on_c, 9, 54, 0
11, 27720, Note_on_c, 9, 54, 127
11, 27749, Note_on_c, 9, 54, 0
11, 27840, Note_on_c, 9, 54, 127
11, 27869, Note_on_c, 9, 54, 0
11, 27960, Note_on_c, 9, 49, 127
11, 27960, Note_on_c, 9, 51, 127
11, 27960, Note_on_c, 9, 49, 127
11, 27989, Note_on_c, 9, 49, 0
11, 28020, Note_on_c, 9, 51, 0
11, 28020, Note_on_c, 9, 49, 0
11, 28080, Note_on_c, 9, 51, 127
11, 28140, Note_on_c, 9, 51, 0
11, 28200, Note_on_c, 9, 51, 127
11, 28229, Note_on_c, 9, 51, 0
11, 28320, Note_on_c, 9, 51, 127
11, 28349, Note_on_c, 9, 51, 0
11, 28440, Note_on_c, 9, 51, 127
11, 28469, Note_on_c, 9, 51, 0
11, 28560, Note_on_c, 9, 51, 127
11, 28589, Note_on_c, 9, 51, 0
11, 28680, Note_on_c, 9, 51, 127
11, 28709, Note_on_c, 9, 51, 0
11, 28800, Note_on_c, 9, 51, 127
11, 28829, Note_on_c, 9, 51, 0
11, 28920, Note_on_c, 9, 51, 127
11, 28949, Note_on_c, 9, 51, 0
11, 29040, Note_on_c, 9, 51, 127
11, 29069, Note_on_c, 9, 51, 0
11, 29160, Note_on_c, 9, 51, 127
11, 29189, Note_on_c, 9, 51, 0
11, 29280, Note_on_c, 9, 51, 127
11, 29309, Note_on_c, 9, 51, 0
11, 29400, Note_on_c, 9, 51, 127
11, 29429, Note_on_c, 9, 51, 0
11, 29520, Note_on_c, 9, 51, 127
11, 29549, Note_on_c, 9, 51, 0
11, 29640, Note_on_c, 9, 51, 127
11, 29700, Note_on_c, 9, 51, 0
11, 29760, Note_on_c, 9, 51, 127
11, 29820, Note_on_c, 9, 51, 0
11, 29880, Note_on_c, 9, 51, 127
11, 29909, Note_on_c, 9, 51, 0
11, 30000, Note_on_c, 9, 51, 127
11, 30029, Note_on_c, 9, 51, 0
11, 30120, Note_on_c, 9, 51, 127
11, 30149, Note_on_c, 9, 51, 0
11, 30240, Note_on_c, 9, 51, 127
11, 30269, Note_on_c, 9, 51, 0
11, 30360, Note_on_c, 9, 51, 127
11, 30389, Note_on_c, 9, 51, 0
11, 30480, Note_on_c, 9, 51, 127
11, 30509, Note_on_c, 9, 51, 0
11, 30600, Note_on_c, 9, 51, 127
11, 30629, Note_on_c, 9, 51, 0
11, 30720, Note_on_c, 9, 51, 127
11, 30749, Note_on_c, 9, 51, 0
11, 30840, Note_on_c, 9, 51, 127
11, 30900, Note_on_c, 9, 51, 0
11, 30960, Note_on_c, 9, 51, 127
11, 30989, Note_on_c, 9, 51, 0
11, 31080, Note_on_c, 9, 51, 127
11, 31109, Note_on_c, 9, 51, 0
11, 31200, Note_on_c, 9, 51, 127
11, 31229, Note_on_c, 9, 51, 0
11, 31320, Note_on_c, 9, 51, 127
11, 31349, Note_on_c, 9, 51, 0
11, 31440, Note_on_c, 9, 51, 127
11, 31469, Note_on_c, 9, 51, 0
11, 31560, Note_on_c, 9, 51, 127
11, 31589, Note_on_c, 9, 51, 0
11, 31680, Note_on_c, 9, 51, 127
11, 31709, Note_on_c, 9, 51, 0
11, 31800, Note_on_c, 9, 51, 127
11, 31829, Note_on_c, 9, 51, 0
11, 31920, Note_on_c, 9, 51, 127
11, 31949, Note_on_c, 9, 51, 0
11, 32040, Note_on_c, 9, 51, 127
11, 32069, Note_on_c, 9, 51, 0
11, 32160, Note_on_c, 9, 51, 127
11, 32189, Note_on_c, 9, 51, 0
11, 32280, Note_on_c, 9, 51, 127
11, 32309, Note_on_c, 9, 51, 0
11, 32400, Note_on_c, 9, 51, 127
11, 32429, Note_on_c, 9, 51, 0
11, 32520, Note_on_c, 9, 51, 127
11, 32549, Note_on_c, 9, 51, 0
11, 32640, Note_on_c, 9, 51, 127
11, 32669, Note_on_c, 9, 51, 0
11, 32760, Note_on_c, 9, 51, 127
11, 32789, Note_on_c, 9, 51, 0
11, 32880, Note_on_c, 9, 51, 127
11, 32909, Note_on_c, 9, 51, 0
11, 33000, Note_on_c, 9, 51, 127
11, 33029, Note_on_c, 9, 51, 0
11, 33120, Note_on_c, 9, 51, 127
11, 33180, Note_on_c, 9, 51, 0
11, 33240, Note_on_c, 9, 51, 127
11, 33300, Note_on_c, 9, 51, 0
11, 33360, Note_on_c, 9, 51, 127
11, 33420, Note_on_c, 9, 51, 0
11, 33480, Note_on_c, 9, 51, 127
11, 33540, Note_on_c, 9, 51, 0
11, 33600, Note_on_c, 9, 51, 127
11, 33660, Note_on_c, 9, 51, 0
11, 33720, Note_on_c, 9, 51, 127
11, 33780, Note_on_c, 9, 51, 0
11, 33840, Note_on_c, 9, 51, 127
11, 33900, Note_on_c, 9, 51, 0
11, 33960, Note_on_c, 9, 51, 127
11, 34020, Note_on_c, 9, 51, 0
11, 34080, Note_on_c, 9, 51, 127
11, 34140, Note_on_c, 9, 51, 0
11, 34200, Note_on_c, 9, 51, 127
11, 34229, Note_on_c, 9, 51, 0
11, 34320, Note_on_c, 9, 51, 127
11, 34349, Note_on_c, 9, 51, 0
11, 34440, Note_on_c, 9, 51, 127
11, 34469, Note_on_c, 9, 51, 0
11, 34560, Note_on_c, 9, 51, 127
11, 34589, Note_on_c, 9, 51, 0
11, 34680, Note_on_c, 9, 51, 127
11, 34740, Note_on_c, 9, 51, 0
11, 34800, Note_on_c, 9, 51, 127
11, 34860, Note_on_c, 9, 51, 0
11, 34920, Note_on_c, 9, 51, 127
11, 34949, Note_on_c, 9, 51, 0
11, 35040, Note_on_c, 9, 51, 127
11, 35069, Note_on_c, 9, 51, 0
11, 35160, Note_on_c, 9, 51, 127
11, 35189, Note_on_c, 9, 51, 0
11, 35280, Note_on_c, 9, 51, 127
11, 35340, Note_on_c, 9, 51, 0
11, 35400, Note_on_c, 9, 51, 127
11, 35460, Note_on_c, 9, 51, 0
11, 35520, Note_on_c, 9, 51, 127
11, 35580, Note_on_c, 9, 51, 0
11, 35640, Note_on_c, 9, 51, 127
11, 35700, Note_on_c, 9, 51, 0
11, 35760, Note_on_c, 9, 51, 127
11, 35820, Note_on_c, 9, 51, 0
11, 35880, Note_on_c, 9, 51, 127
11, 35909, Note_on_c, 9, 51, 0
11, 36000, Note_on_c, 9, 51, 127
11, 36029, Note_on_c, 9, 51, 0
11, 36120, Note_on_c, 9, 51, 127
11, 36149, Note_on_c, 9, 51, 0
11, 36240, Note_on_c, 9, 51, 127
11, 36269, Note_on_c, 9, 51, 0
11, 36360, Note_on_c, 9, 51, 127
11, 36389, Note_on_c, 9, 51, 0
11, 36480, Note_on_c, 9, 51, 127
11, 36509, Note_on_c, 9, 51, 0
11, 36600, Note_on_c, 9, 51, 127
11, 36629, Note_on_c, 9, 51, 0
11, 36720, Note_on_c, 9, 51, 127
11, 36780, Note_on_c, 9, 51, 0
11, 36840, Note_on_c, 9, 51, 127
11, 36900, Note_on_c, 9, 51, 0
11, 36960, Note_on_c, 9, 51, 127
11, 37020, Note_on_c, 9, 51, 0
11, 37080, Note_on_c, 9, 51, 127
11, 37140, Note_on_c, 9, 51, 0
11, 37200, Note_on_c, 9, 51, 127
11, 37260, Note_on_c, 9, 51, 0
11, 37320, Note_on_c, 9, 51, 127
11, 37349, Note_on_c, 9, 51, 0
11, 37440, Note_on_c, 9, 51, 127
11, 37469, Note_on_c, 9, 51, 0
11, 37560, Note_on_c, 9, 49, 127
11, 37560, Note_on_c, 9, 55, 53
11, 37560, Note_on_c, 9, 51, 127
11, 37560, Note_on_c, 9, 54, 127
11, 37589, Note_on_c, 9, 51, 0
11, 37589, Note_on_c, 9, 55, 0
11, 37620, Note_on_c, 9, 49, 0
11, 37620, Note_on_c, 9, 54, 0
11, 37680, Note_on_c, 9, 54, 127
11, 37680, Note_on_c, 9, 51, 127
11, 37709, Note_on_c, 9, 51, 0
11, 37709, Note_on_c, 9, 54, 0
11, 37800, Note_on_c, 9, 54, 127
11, 37800, Note_on_c, 9, 51, 127
11, 37829, Note_on_c, 9, 51, 0
11, 37829, Note_on_c, 9, 54, 0
11, 37920, Note_on_c, 9, 54, 127
11, 37920, Note_on_c, 9, 51, 127
11, 37949, Note_on_c, 9, 54, 0
11, 37980, Note_on_c, 9, 51, 0
11, 38040, Note_on_c, 9, 54, 127
11, 38040, Note_on_c, 9, 51, 127
11, 38069, Note_on_c, 9, 51, 0
11, 38069, Note_on_c, 9, 54, 0
11, 38160, Note_on_c, 9, 54, 127
11, 38160, Note_on_c, 9, 51, 125
11, 38189, Note_on_c, 9, 51, 0
11, 38220, Note_on_c, 9, 54, 0
11, 38280, Note_on_c, 9, 51, 127
11, 38280, Note_on_c, 9, 54, 127
11, 38309, Note_on_c, 9, 54, 0
11, 38309, Note_on_c, 9, 51, 0
11, 38400, Note_on_c, 9, 54, 127
11, 38400, Note_on_c, 9, 51, 125
11, 38429, Note_on_c, 9, 51, 0
11, 38429, Note_on_c, 9, 54, 0
11, 38520, Note_on_c, 9, 51, 127
11, 38520, Note_on_c, 9, 54, 127
11, 38549, Note_on_c, 9, 51, 0
11, 38580, Note_on_c, 9, 54, 0
11, 38640, Note_on_c, 9, 51, 125
11, 38640, Note_on_c, 9, 54, 127
11, 38669, Note_on_c, 9, 54, 0
11, 38669, Note_on_c, 9, 51, 0
11, 38760, Note_on_c, 9, 51, 127
11, 38760, Note_on_c, 9, 54, 127
11, 38789, Note_on_c, 9, 54, 0
11, 38789, Note_on_c, 9, 51, 0
11, 38880, Note_on_c, 9, 51, 125
11, 38880, Note_on_c, 9, 54, 125
11, 38909, Note_on_c, 9, 54, 0
11, 38909, Note_on_c, 9, 51, 0
11, 39000, Note_on_c, 9, 54, 127
11, 39000, Note_on_c, 9, 51, 127
11, 39060, Note_on_c, 9, 51, 0
11, 39060, Note_on_c, 9, 54, 0
11, 39120, Note_on_c, 9, 54, 127
11, 39120, Note_on_c, 9, 51, 127
11, 39149, Note_on_c, 9, 54, 0
11, 39180, Note_on_c, 9, 51, 0
11, 39240, Note_on_c, 9, 54, 127
11, 39240, Note_on_c, 9, 51, 127
11, 39269, Note_on_c, 9, 54, 0
11, 39300, Note_on_c, 9, 51, 0
11, 39360, Note_on_c, 9, 51, 127
11, 39360, Note_on_c, 9, 54, 127
11, 39389, Note_on_c, 9, 54, 0
11, 39389, Note_on_c, 9, 51, 0
11, 39480, Note_on_c, 9, 54, 127
11, 39480, Note_on_c, 9, 51, 127
11, 39486, Note_on_c, 9, 49, 127
11, 39509, Note_on_c, 9, 51, 0
11, 39509, Note_on_c, 9, 54, 0
11, 39510, Note_on_c, 9, 49, 0
11, 39600, Note_on_c, 9, 54, 127
11, 39600, Note_on_c, 9, 51, 127
11, 39629, Note_on_c, 9, 51, 0
11, 39629, Note_on_c, 9, 54, 0
11, 39720, Note_on_c, 9, 51, 127
11, 39720, Note_on_c, 9, 54, 127
11, 39749, Note_on_c, 9, 54, 0
11, 39749, Note_on_c, 9, 51, 0
11, 39840, Note_on_c, 9, 54, 127
11, 39840, Note_on_c, 9, 51, 127
11, 39869, Note_on_c, 9, 51, 0
11, 39869, Note_on_c, 9, 54, 0
11, 39960, Note_on_c, 9, 51, 127
11, 39960, Note_on_c, 9, 54, 127
11, 39989, Note_on_c, 9, 54, 0
11, 39989, Note_on_c, 9, 51, 0
11, 40080, Note_on_c, 9, 51, 127
11, 40080, Note_on_c, 9, 54, 127
11, 40109, Note_on_c, 9, 51, 0
11, 40140, Note_on_c, 9, 54, 0
11, 40200, Note_on_c, 9, 51, 127
11, 40200, Note_on_c, 9, 54, 127
11, 40229, Note_on_c, 9, 51, 0
11, 40260, Note_on_c, 9, 54, 0
11, 40320, Note_on_c, 9, 51, 125
11, 40320, Note_on_c, 9, 54, 127
11, 40349, Note_on_c, 9, 54, 0
11, 40349, Note_on_c, 9, 51, 0
11, 40440, Note_on_c, 9, 51, 127
11, 40440, Note_on_c, 9, 54, 125
11, 40469, Note_on_c, 9, 54, 0
11, 40469, Note_on_c, 9, 51, 0
11, 40560, Note_on_c, 9, 54, 127
11, 40560, Note_on_c, 9, 51, 125
11, 40589, Note_on_c, 9, 51, 0
11, 40589, Note_on_c, 9, 54, 0
11, 40680, Note_on_c, 9, 54, 127
11, 40680, Note_on_c, 9, 51, 122
11, 40709, Note_on_c, 9, 51, 0
11, 40709, Note_on_c, 9, 54, 0
11, 40800, Note_on_c, 9, 51, 125
11, 40800, Note_on_c, 9, 54, 127
11, 40829, Note_on_c, 9, 54, 0
11, 40829, Note_on_c, 9, 51, 0
11, 40920, Note_on_c, 9, 51, 127
11, 40920, Note_on_c, 9, 54, 127
11, 40949, Note_on_c, 9, 51, 0
11, 40980, Note_on_c, 9, 54, 0
11, 41040, Note_on_c, 9, 51, 125
11, 41040, Note_on_c, 9, 54, 127
11, 41069, Note_on_c, 9, 54, 0
11, 41069, Note_on_c, 9, 51, 0
11, 41160, Note_on_c, 9, 51, 125
11, 41160, Note_on_c, 9, 54, 125
11, 41189, Note_on_c, 9, 54, 0
11, 41220, Note_on_c, 9, 51, 0
11, 41280, Note_on_c, 9, 54, 125
11, 41280, Note_on_c, 9, 51, 127
11, 41309, Note_on_c, 9, 54, 0
11, 41340, Note_on_c, 9, 51, 0
11, 41400, Note_on_c, 9, 54, 127
11, 41400, Note_on_c, 9, 51, 125
11, 41406, Note_on_c, 9, 49, 127
11, 41429, Note_on_c, 9, 54, 0
11, 41430, Note_on_c, 9, 49, 0
11, 41460, Note_on_c, 9, 51, 0
11, 41520, Note_on_c, 9, 54, 127
11, 41520, Note_on_c, 9, 51, 127
11, 41549, Note_on_c, 9, 54, 0
11, 41580, Note_on_c, 9, 51, 0
11, 41640, Note_on_c, 9, 54, 127
11, 41640, Note_on_c, 9, 51, 127
11, 41669, Note_on_c, 9, 51, 0
11, 41669, Note_on_c, 9, 54, 0
11, 41760, Note_on_c, 9, 51, 125
11, 41760, Note_on_c, 9, 54, 127
11, 41820, Note_on_c, 9, 54, 0
11, 41820, Note_on_c, 9, 51, 0
11, 41880, Note_on_c, 9, 51, 125
11, 41880, Note_on_c, 9, 54, 127
11, 41909, Note_on_c, 9, 51, 0
11, 41940, Note_on_c, 9, 54, 0
11, 42000, Note_on_c, 9, 51, 125
11, 42000, Note_on_c, 9, 54, 125
11, 42029, Note_on_c, 9, 54, 0
11, 42029, Note_on_c, 9, 51, 0
11, 42120, Note_on_c, 9, 51, 125
11, 42120, Note_on_c, 9, 54, 127
11, 42149, Note_on_c, 9, 54, 0
11, 42149, Note_on_c, 9, 51, 0
11, 42240, Note_on_c, 9, 51, 114
11, 42240, Note_on_c, 9, 54, 127
11, 42269, Note_on_c, 9, 54, 0
11, 42269, Note_on_c, 9, 51, 0
11, 42360, Note_on_c, 9, 54, 127
11, 42360, Note_on_c, 9, 51, 125
11, 42420, Note_on_c, 9, 51, 0
11, 42420, Note_on_c, 9, 54, 0
11, 42480, Note_on_c, 9, 51, 125
11, 42480, Note_on_c, 9, 54, 127
11, 42509, Note_on_c, 9, 51, 0
11, 42540, Note_on_c, 9, 54, 0
11, 42600, Note_on_c, 9, 51, 125
11, 42600, Note_on_c, 9, 54, 127
11, 42660, Note_on_c, 9, 54, 0
11, 42660, Note_on_c, 9, 51, 0
11, 42720, Note_on_c, 9, 54, 127
11, 42720, Note_on_c, 9, 51, 127
11, 42749, Note_on_c, 9, 54, 0
11, 42780, Note_on_c, 9, 51, 0
11, 42840, Note_on_c, 9, 54, 127
11, 42840, Note_on_c, 9, 51, 125
11, 42869, Note_on_c, 9, 54, 0
11, 42900, Note_on_c, 9, 51, 0
11, 42960, Note_on_c, 9, 54, 127
11, 42960, Note_on_c, 9, 51, 125
11, 42989, Note_on_c, 9, 51, 0
11, 43020, Note_on_c, 9, 54, 0
11, 43080, Note_on_c, 9, 51, 125
11, 43080, Note_on_c, 9, 54, 127
11, 43109, Note_on_c, 9, 51, 0
11, 43140, Note_on_c, 9, 54, 0
11, 43200, Note_on_c, 9, 51, 125
11, 43229, Note_on_c, 9, 51, 0
11, 43230, Note_on_c, 9, 54, 127
11, 43259, Note_on_c, 9, 54, 0
11, 43320, Note_on_c, 9, 49, 127
11, 43349, Note_on_c, 9, 49, 0
11, 43800, Note_on_c, 9, 54, 127
11, 43829, Note_on_c, 9, 54, 0
11, 43920, Note_on_c, 9, 54, 127
11, 43980, Note_on_c, 9, 54, 0
11, 44040, Note_on_c, 9, 54, 127
11, 44069, Note_on_c, 9, 54, 0
11, 44160, Note_on_c, 9, 54, 127
11, 44189, Note_on_c, 9, 54, 0
11, 44280, Note_on_c, 9, 49, 127
11, 44309, Note_on_c, 9, 49, 0
11, 44760, Note_on_c, 9, 54, 127
11, 44820, Note_on_c, 9, 54, 0
11, 44880, Note_on_c, 9, 54, 127
11, 44909, Note_on_c, 9, 54, 0
11, 45000, Note_on_c, 9, 54, 127
11, 45029, Note_on_c, 9, 54, 0
11, 45120, Note_on_c, 9, 54, 127
11, 45149, Note_on_c, 9, 54, 0
11, 45240, Note_on_c, 9, 49, 127
11, 45277, Note_on_c, 9, 49, 0
11, 45356, Note_on_c, 9, 54, 127
11, 45391, Note_on_c, 9, 54, 0
11, 45485, Note_on_c, 9, 54, 127
11, 45519, Note_on_c, 9, 54, 0
11, 45607, Note_on_c, 9, 54, 127
11, 45645, Note_on_c, 9, 54, 0
11, 45723, Note_on_c, 9, 54, 127
11, 45766, Note_on_c, 9, 54, 0
11, 45849, Note_on_c, 9, 54, 127
11, 45889, Note_on_c, 9, 54, 0
11, 45962, Note_on_c, 9, 54, 127
11, 46007, Note_on_c, 9, 54, 0
11, 46085, Note_on_c, 9, 54, 127
11, 46123, Note_on_c, 9, 54, 0
11, 46200, Note_on_c, 9, 49, 127
11, 46229, Note_on_c, 9, 49, 0
11, 46320, Note_on_c, 9, 51, 127
11, 46349, Note_on_c, 9, 51, 0
11, 46560, Note_on_c, 9, 51, 127
11, 46589, Note_on_c, 9, 51, 0
11, 46800, Note_on_c, 9, 51, 127
11, 46829, Note_on_c, 9, 51, 0
11, 47040, Note_on_c, 9, 51, 127
11, 47069, Note_on_c, 9, 51, 0
11, 47160, Note_on_c, 9, 54, 127
11, 47189, Note_on_c, 9, 54, 0
11, 47280, Note_on_c, 9, 54, 127
11, 47309, Note_on_c, 9, 54, 0
11, 47400, Note_on_c, 9, 54, 127
11, 47460, Note_on_c, 9, 54, 0
11, 47520, Note_on_c, 9, 54, 127
11, 47580, Note_on_c, 9, 54, 0
11, 47640, Note_on_c, 9, 54, 127
11, 47669, Note_on_c, 9, 54, 0
11, 47760, Note_on_c, 9, 54, 127
11, 47789, Note_on_c, 9, 54, 0
11, 47880, Note_on_c, 9, 54, 127
11, 47909, Note_on_c, 9, 54, 0
11, 48000, Note_on_c, 9, 54, 127
11, 48029, Note_on_c, 9, 54, 0
11, 48120, Note_on_c, 9, 49, 127
11, 48149, Note_on_c, 9, 49, 0
11, 48240, Note_on_c, 9, 51, 127
11, 48269, Note_on_c, 9, 51, 0
11, 48720, Note_on_c, 9, 51, 127
11, 48749, Note_on_c, 9, 51, 0
11, 48960, Note_on_c, 9, 51, 127
11, 48989, Note_on_c, 9, 51, 0
11, 49080, Note_on_c, 9, 49, 127
11, 49080, Note_on_c, 9, 54, 127
11, 49109, Note_on_c, 9, 54, 0
11, 49109, Note_on_c, 9, 49, 0
11, 49200, Note_on_c, 9, 54, 127
11, 49200, Note_on_c, 9, 51, 127
11, 49229, Note_on_c, 9, 54, 0
11, 49260, Note_on_c, 9, 51, 0
11, 49320, Note_on_c, 9, 54, 127
11, 49349, Note_on_c, 9, 54, 0
11, 49440, Note_on_c, 9, 51, 127
11, 49440, Note_on_c, 9, 54, 127
11, 49469, Note_on_c, 9, 54, 0
11, 49469, Note_on_c, 9, 51, 0
11, 49560, Note_on_c, 9, 54, 127
11, 49589, Note_on_c, 9, 54, 0
11, 49680, Note_on_c, 9, 54, 127
11, 49680, Note_on_c, 9, 51, 127
11, 49709, Note_on_c, 9, 51, 0
11, 49709, Note_on_c, 9, 54, 0
11, 49800, Note_on_c, 9, 54, 127
11, 49829, Note_on_c, 9, 54, 0
11, 49920, Note_on_c, 9, 54, 127
11, 49920, Note_on_c, 9, 51, 127
11, 49949, Note_on_c, 9, 51, 0
11, 49949, Note_on_c, 9, 54, 0
11, 50040, Note_on_c, 9, 49, 127
11, 50040, Note_on_c, 9, 54, 127
11, 50069, Note_on_c, 9, 49, 0
11, 50100, Note_on_c, 9, 54, 0
11, 50160, Note_on_c, 9, 51, 127
11, 50160, Note_on_c, 9, 54, 127
11, 50189, Note_on_c, 9, 51, 0
11, 50220, Note_on_c, 9, 54, 0
11, 50280, Note_on_c, 9, 54, 127
11, 50340, Note_on_c, 9, 54, 0
11, 50400, Note_on_c, 9, 51, 127
11, 50400, Note_on_c, 9, 54, 127
11, 50429, Note_on_c, 9, 51, 0
11, 50460, Note_on_c, 9, 54, 0
11, 50520, Note_on_c, 9, 54, 127
11, 50580, Note_on_c, 9, 54, 0
11, 50640, Note_on_c, 9, 51, 127
11, 50640, Note_on_c, 9, 54, 127
11, 50669, Note_on_c, 9, 51, 0
11, 50700, Note_on_c, 9, 54, 0
11, 50760, Note_on_c, 9, 54, 127
11, 50820, Note_on_c, 9, 54, 0
11, 50880, Note_on_c, 9, 54, 127
11, 50880, Note_on_c, 9, 51, 127
11, 50909, Note_on_c, 9, 51, 0
11, 50909, Note_on_c, 9, 54, 0
11, 51000, Note_on_c, 9, 49, 127
11, 51000, Note_on_c, 9, 55, 53
11, 51000, Note_on_c, 9, 51, 127
11, 51000, Note_on_c, 9, 54, 127
11, 51029, Note_on_c, 9, 51, 0
11, 51029, Note_on_c, 9, 55, 0
11, 51060, Note_on_c, 9, 49, 0
11, 51060, Note_on_c, 9, 54, 0
11, 51120, Note_on_c, 9, 54, 127
11, 51120, Note_on_c, 9, 51, 127
11, 51149, Note_on_c, 9, 51, 0
11, 51149, Note_on_c, 9, 54, 0
11, 51240, Note_on_c, 9, 54, 127
11, 51240, Note_on_c, 9, 51, 127
11, 51269, Note_on_c, 9, 51, 0
11, 51269, Note_on_c, 9, 54, 0
11, 51360, Note_on_c, 9, 54, 127
11, 51360, Note_on_c, 9, 51, 127
11, 51389, Note_on_c, 9, 54, 0
11, 51420, Note_on_c, 9, 51, 0
11, 51480, Note_on_c, 9, 54, 127
11, 51480, Note_on_c, 9, 51, 127
11, 51509, Note_on_c, 9, 51, 0
11, 51509, Note_on_c, 9, 54, 0
11, 51600, Note_on_c, 9, 54, 127
11, 51600, Note_on_c, 9, 51, 125
11, 51629, Note_on_c, 9, 51, 0
11, 51660, Note_on_c, 9, 54, 0
11, 51720, Note_on_c, 9, 51, 127
11, 51720, Note_on_c, 9, 54, 127
11, 51749, Note_on_c, 9, 54, 0
11, 51749, Note_on_c, 9, 51, 0
11, 51840, Note_on_c, 9, 54, 127
11, 51840, Note_on_c, 9, 51, 125
11, 51869, Note_on_c, 9, 51, 0
11, 51869, Note_on_c, 9, 54, 0
11, 51960, Note_on_c, 9, 51, 127
11, 51960, Note_on_c, 9, 54, 127
11, 51989, Note_on_c, 9, 51, 0
11, 52020, Note_on_c, 9, 54, 0
11, 52080, Note_on_c, 9, 51, 125
11, 52080, Note_on_c, 9, 54, 127
11, 52109, Note_on_c, 9, 54, 0
11, 52109, Note_on_c, 9, 51, 0
11, 52200, Note_on_c, 9, 51, 127
11, 52200, Note_on_c, 9, 54, 127
11, 52229, Note_on_c, 9, 54, 0
11, 52229, Note_on_c, 9, 51, 0
11, 52320, Note_on_c, 9, 51, 125
11, 52320, Note_on_c, 9, 54, 125
11, 52349, Note_on_c, 9, 54, 0
11, 52349, Note_on_c, 9, 51, 0
11, 52440, Note_on_c, 9, 54, 127
11, 52440, Note_on_c, 9, 51, 127
11, 52500, Note_on_c, 9, 51, 0
11, 52500, Note_on_c, 9, 54, 0
11, 52560, Note_on_c, 9, 54, 127
11, 52560, Note_on_c, 9, 51, 127
11, 52589, Note_on_c, 9, 54, 0
11, 52620, Note_on_c, 9, 51, 0
11, 52680, Note_on_c, 9, 54, 127
11, 52680, Note_on_c, 9, 51, 127
11, 52709, Note_on_c, 9, 54, 0
11, 52740, Note_on_c, 9, 51, 0
11, 52800, Note_on_c, 9, 51, 127
11, 52800, Note_on_c, 9, 54, 127
11, 52829, Note_on_c, 9, 54, 0
11, 52829, Note_on_c, 9, 51, 0
11, 52920, Note_on_c, 9, 54, 127
11, 52920, Note_on_c, 9, 51, 127
11, 52926, Note_on_c, 9, 49, 127
11, 52949, Note_on_c, 9, 51, 0
11, 52949, Note_on_c, 9, 54, 0
11, 52950, Note_on_c, 9, 49, 0
11, 53040, Note_on_c, 9, 54, 127
11, 53040, Note_on_c, 9, 51, 127
11, 53069, Note_on_c, 9, 51, 0
11, 53069, Note_on_c, 9, 54, 0
11, 53160, Note_on_c, 9, 51, 127
11, 53160, Note_on_c, 9, 54, 127
11, 53189, Note_on_c, 9, 54, 0
11, 53189, Note_on_c, 9, 51, 0
11, 53280, Note_on_c, 9, 54, 127
11, 53280, Note_on_c, 9, 51, 127
11, 53309, Note_on_c, 9, 51, 0
11, 53309, Note_on_c, 9, 54, 0
11, 53400, Note_on_c, 9, 51, 127
11, 53400, Note_on_c, 9, 54, 127
11, 53429, Note_on_c, 9, 54, 0
11, 53429, Note_on_c, 9, 51, 0
11, 53520, Note_on_c, 9, 51, 127
11, 53520, Note_on_c, 9, 54, 127
11, 53549, Note_on_c, 9, 51, 0
11, 53580, Note_on_c, 9, 54, 0
11, 53640, Note_on_c, 9, 51, 127
11, 53640, Note_on_c, 9, 54, 127
11, 53669, Note_on_c, 9, 51, 0
11, 53700, Note_on_c, 9, 54, 0
11, 53760, Note_on_c, 9, 51, 125
11, 53760, Note_on_c, 9, 54, 127
11, 53789, Note_on_c, 9, 54, 0
11, 53789, Note_on_c, 9, 51, 0
11, 53880, Note_on_c, 9, 51, 127
11, 53880, Note_on_c, 9, 54, 125
11, 53909, Note_on_c, 9, 54, 0
11, 53909, Note_on_c, 9, 51, 0
11, 54000, Note_on_c, 9, 54, 127
11, 54000, Note_on_c, 9, 51, 125
11, 54029, Note_on_c, 9, 51, 0
11, 54029, Note_on_c, 9, 54, 0
11, 54120, Note_on_c, 9, 54, 127
11, 54120, Note_on_c, 9, 51, 122
11, 54149, Note_on_c, 9, 51, 0
11, 54149, Note_on_c, 9, 54, 0
11, 54240, Note_on_c, 9, 51, 125
11, 54240, Note_on_c, 9, 54, 127
11, 54269, Note_on_c, 9, 54, 0
11, 54269, Note_on_c, 9, 51, 0
11, 54360, Note_on_c, 9, 51, 127
11, 54360, Note_on_c, 9, 54, 127
11, 54389, Note_on_c, 9, 51, 0
11, 54420, Note_on_c, 9, 54, 0
11, 54480, Note_on_c, 9, 51, 125
11, 54480, Note_on_c, 9, 54, 127
11, 54509, Note_on_c, 9, 54, 0
11, 54509, Note_on_c, 9, 51, 0
11, 54600, Note_on_c, 9, 51, 125
11, 54600, Note_on_c, 9, 54, 125
11, 54629, Note_on_c, 9, 54, 0
11, 54660, Note_on_c, 9, 51, 0
11, 54720, Note_on_c, 9, 54, 125
11, 54720, Note_on_c, 9, 51, 127
11, 54749, Note_on_c, 9, 54, 0
11, 54780, Note_on_c, 9, 51, 0
11, 54840, Note_on_c, 9, 54, 127
11, 54840, Note_on_c, 9, 51, 125
11, 54846, Note_on_c, 9, 49, 127
11, 54869, Note_on_c, 9, 54, 0
11, 54870, Note_on_c, 9, 49, 0
11, 54900, Note_on_c, 9, 51, 0
11, 54960, Note_on_c, 9, 54, 127
11, 54960, Note_on_c, 9, 51, 127
11, 54989, Note_on_c, 9, 54, 0
11, 55020, Note_on_c, 9, 51, 0
11, 55080, Note_on_c, 9, 54, 127
11, 55080, Note_on_c, 9, 51, 127
11, 55109, Note_on_c, 9, 51, 0
11, 55109, Note_on_c, 9, 54, 0
11, 55200, Note_on_c, 9, 51, 125
11, 55200, Note_on_c, 9, 54, 127
11, 55260, Note_on_c, 9, 54, 0
11, 55260, Note_on_c, 9, 51, 0
11, 55320, Note_on_c, 9, 51, 125
11, 55320, Note_on_c, 9, 54, 127
11, 55349, Note_on_c, 9, 51, 0
11, 55380, Note_on_c, 9, 54, 0
11, 55440, Note_on_c, 9, 51, 125
11, 55440, Note_on_c, 9, 54, 125
11, 55469, Note_on_c, 9, 54, 0
11, 55469, Note_on_c, 9, 51, 0
11, 55560, Note_on_c, 9, 51, 125
11, 55560, Note_on_c, 9, 54, 127
11, 55589, Note_on_c, 9, 54, 0
11, 55589, Note_on_c, 9, 51, 0
11, 55680, Note_on_c, 9, 51, 114
11, 55680, Note_on_c, 9, 54, 127
11, 55709, Note_on_c, 9, 54, 0
11, 55709, Note_on_c, 9, 51, 0
11, 55800, Note_on_c, 9, 54, 127
11, 55800, Note_on_c, 9, 51, 125
11, 55860, Note_on_c, 9, 51, 0
11, 55860, Note_on_c, 9, 54, 0
11, 55920, Note_on_c, 9, 51, 125
11, 55920, Note_on_c, 9, 54, 127
11, 55949, Note_on_c, 9, 51, 0
11, 55980, Note_on_c, 9, 54, 0
11, 56040, Note_on_c, 9, 51, 125
11, 56040, Note_on_c, 9, 54, 127
11, 56100, Note_on_c, 9, 54, 0
11, 56100, Note_on_c, 9, 51, 0
11, 56160, Note_on_c, 9, 54, 127
11, 56160, Note_on_c, 9, 51, 127
11, 56189, Note_on_c, 9, 54, 0
11, 56220, Note_on_c, 9, 51, 0
11, 56280, Note_on_c, 9, 54, 127
11, 56280, Note_on_c, 9, 51, 125
11, 56309, Note_on_c, 9, 54, 0
11, 56340, Note_on_c, 9, 51, 0
11, 56400, Note_on_c, 9, 54, 127
11, 56400, Note_on_c, 9, 51, 125
11, 56429, Note_on_c, 9, 51, 0
11, 56460, Note_on_c, 9, 54, 0
11, 56520, Note_on_c, 9, 51, 125
11, 56520, Note_on_c, 9, 54, 127
11, 56549, Note_on_c, 9, 51, 0
11, 56580, Note_on_c, 9, 54, 0
11, 56640, Note_on_c, 9, 51, 125
11, 56640, Note_on_c, 9, 53, 127
11, 56669, Note_on_c, 9, 53, 0
11, 56669, Note_on_c, 9, 51, 0
11, 56760, Note_on_c, 9, 51, 127
11, 56760, Note_on_c, 9, 54, 127
11, 56760, Note_on_c, 9, 49, 127
11, 56789, Note_on_c, 9, 49, 0
11, 56789, Note_on_c, 9, 51, 0
11, 56820, Note_on_c, 9, 54, 0
11, 56880, Note_on_c, 9, 54, 127
11, 56909, Note_on_c, 9, 54, 0
11, 57000, Note_on_c, 9, 54, 127
11, 57060, Note_on_c, 9, 54, 0
11, 57120, Note_on_c, 9, 54, 127
11, 57149, Note_on_c, 9, 54, 0
11, 57240, Note_on_c, 9, 54, 127
11, 57240, Note_on_c, 9, 51, 127
11, 57269, Note_on_c, 9, 51, 0
11, 57300, Note_on_c, 9, 54, 0
11, 57360, Note_on_c, 9, 54, 127
11, 57420, Note_on_c, 9, 54, 0
11, 57480, Note_on_c, 9, 54, 127
11, 57509, Note_on_c, 9, 54, 0
11, 57600, Note_on_c, 9, 54, 127
11, 57629, Note_on_c, 9, 54, 0
11, 57720, Note_on_c, 9, 51, 127
11, 57720, Note_on_c, 9, 49, 127
11, 57720, Note_on_c, 9, 54, 127
11, 57749, Note_on_c, 9, 54, 0
11, 57749, Note_on_c, 9, 49, 0
11, 57749, Note_on_c, 9, 51, 0
11, 57840, Note_on_c, 9, 54, 127
11, 57900, Note_on_c, 9, 54, 0
11, 57960, Note_on_c, 9, 54, 127
11, 57989, Note_on_c, 9, 54, 0
11, 58080, Note_on_c, 9, 54, 127
11, 58140, Note_on_c, 9, 54, 0
11, 58200, Note_on_c, 9, 51, 127
11, 58200, Note_on_c, 9, 54, 127
11, 58229, Note_on_c, 9, 54, 0
11, 58229, Note_on_c, 9, 51, 0
11, 58320, Note_on_c, 9, 54, 127
11, 58349, Note_on_c, 9, 54, 0
11, 58440, Note_on_c, 9, 54, 127
11, 58469, Note_on_c, 9, 54, 0
11, 58560, Note_on_c, 9, 54, 127
11, 58589, Note_on_c, 9, 54, 0
11, 58680, Note_on_c, 9, 51, 127
11, 58740, Note_on_c, 9, 51, 0
11, 58800, Note_on_c, 9, 51, 127
11, 58829, Note_on_c, 9, 51, 0
11, 58920, Note_on_c, 9, 51, 127
11, 58949, Note_on_c, 9, 51, 0
11, 59040, Note_on_c, 9, 51, 127
11, 59069, Note_on_c, 9, 51, 0
11, 59160, Note_on_c, 9, 51, 127
11, 59189, Note_on_c, 9, 51, 0
11, 59280, Note_on_c, 9, 51, 127
11, 59309, Note_on_c, 9, 51, 0
11, 59400, Note_on_c, 9, 51, 127
11, 59460, Note_on_c, 9, 51, 0
11, 59520, Note_on_c, 9, 51, 127
11, 59549, Note_on_c, 9, 51, 0
11, 59640, Note_on_c, 9, 51, 127
11, 59700, Note_on_c, 9, 51, 0
11, 59760, Note_on_c, 9, 51, 127
11, 59820, Note_on_c, 9, 51, 0
11, 59880, Note_on_c, 9, 51, 127
11, 59940, Note_on_c, 9, 51, 0
11, 60000, Note_on_c, 9, 42, 100
11, 60120, Note_on_c, 9, 42, 0
11, 60600, Note_on_c, 9, 51, 127
11, 60660, Note_on_c, 9, 51, 0
11, 60720, Note_on_c, 9, 51, 127
11, 60749, Note_on_c, 9, 51, 0
11, 60840, Note_on_c, 9, 51, 127
11, 60869, Note_on_c, 9, 51, 0
11, 60960, Note_on_c, 9, 51, 127
11, 60989, Note_on_c, 9, 51, 0
11, 61080, Note_on_c, 9, 51, 127
11, 61109, Note_on_c, 9, 51, 0
11, 61200, Note_on_c, 9, 51, 127
11, 61229, Note_on_c, 9, 51, 0
11, 61320, Note_on_c, 9, 51, 127
11, 61380, Note_on_c, 9, 51, 0
11, 61440, Note_on_c, 9, 51, 127
11, 61469, Note_on_c, 9, 51, 0
11, 61560, Note_on_c, 9, 51, 127
11, 61620, Note_on_c, 9, 51, 0
11, 61680, Note_on_c, 9, 51, 127
11, 61740, Note_on_c, 9, 51, 0
11, 61800, Note_on_c, 9, 51, 127
11, 61860, Note_on_c, 9, 51, 0
11, 61920, Note_on_c, 9, 51, 127
11, 61980, Note_on_c, 9, 51, 0
11, 62040, Note_on_c, 9, 51, 127
11, 62100, Note_on_c, 9, 51, 0
11, 62160, Note_on_c, 9, 51, 127
11, 62220, Note_on_c, 9, 51, 0
11, 62280, Note_on_c, 9, 51, 127
11, 62340, Note_on_c, 9, 51, 0
11, 62400, Note_on_c, 9, 51, 127
11, 62460, Note_on_c, 9, 51, 0
11, 62520, Note_on_c, 9, 51, 127
11, 62580, Note_on_c, 9, 51, 0
11, 62640, Note_on_c, 9, 51, 127
11, 62700, Note_on_c, 9, 51, 0
11, 62760, Note_on_c, 9, 51, 127
11, 62820, Note_on_c, 9, 51, 0
11, 62880, Note_on_c, 9, 51, 127
11, 62940, Note_on_c, 9, 51, 0
11, 63000, Note_on_c, 9, 51, 127
11, 63060, Note_on_c, 9, 51, 0
11, 63120, Note_on_c, 9, 51, 127
11, 63180, Note_on_c, 9, 51, 0
11, 63240, Note_on_c, 9, 51, 127
11, 63300, Note_on_c, 9, 51, 0
11, 63360, Note_on_c, 9, 51, 127
11, 63389, Note_on_c, 9, 51, 0
11, 63480, Note_on_c, 9, 51, 127
11, 63540, Note_on_c, 9, 51, 0
11, 63600, Note_on_c, 9, 51, 127
11, 63629, Note_on_c, 9, 51, 0
11, 63720, Note_on_c, 9, 51, 127
11, 63780, Note_on_c, 9, 51, 0
11, 63840, Note_on_c, 9, 51, 127
11, 63869, Note_on_c, 9, 51, 0
11, 63960, Note_on_c, 9, 51, 127
11, 63989, Note_on_c, 9, 51, 0
11, 64080, Note_on_c, 9, 51, 127
11, 64109, Note_on_c, 9, 51, 0
11, 64200, Note_on_c, 9, 51, 127
11, 64229, Note_on_c, 9, 51, 0
11, 64320, Note_on_c, 9, 51, 127
11, 64380, Note_on_c, 9, 51, 0
11, 64440, Note_on_c, 9, 49, 127
11, 64440, Note_on_c, 9, 55, 53
11, 64440, Note_on_c, 9, 51, 127
11, 64440, Note_on_c, 9, 54, 127
11, 64469, Note_on_c, 9, 51, 0
11, 64469, Note_on_c, 9, 55, 0
11, 64500, Note_on_c, 9, 49, 0
11, 64500, Note_on_c, 9, 54, 0
11, 64560, Note_on_c, 9, 54, 127
11, 64560, Note_on_c, 9, 51, 127
11, 64589, Note_on_c, 9, 51, 0
11, 64589, Note_on_c, 9, 54, 0
11, 64680, Note_on_c, 9, 54, 127
11, 64680, Note_on_c, 9, 51, 127
11, 64709, Note_on_c, 9, 51, 0
11, 64709, Note_on_c, 9, 54, 0
11, 64800, Note_on_c, 9, 54, 127
11, 64800, Note_on_c, 9, 51, 127
11, 64829, Note_on_c, 9, 54, 0
11, 64860, Note_on_c, 9, 51, 0
11, 64920, Note_on_c, 9, 54, 127
11, 64920, Note_on_c, 9, 51, 127
11, 64949, Note_on_c, 9, 51, 0
11, 64949, Note_on_c, 9, 54, 0
11, 65040, Note_on_c, 9, 54, 127
11, 65040, Note_on_c, 9, 51, 125
11, 65069, Note_on_c, 9, 51, 0
11, 65100, Note_on_c, 9, 54, 0
11, 65160, Note_on_c, 9, 51, 127
11, 65160, Note_on_c, 9, 54, 127
11, 65189, Note_on_c, 9, 54, 0
11, 65189, Note_on_c, 9, 51, 0
11, 65280, Note_on_c, 9, 54, 127
11, 65280, Note_on_c, 9, 51, 125
11, 65309, Note_on_c, 9, 51, 0
11, 65309, Note_on_c, 9, 54, 0
11, 65400, Note_on_c, 9, 51, 127
11, 65400, Note_on_c, 9, 54, 127
11, 65429, Note_on_c, 9, 51, 0
11, 65460, Note_on_c, 9, 54, 0
11, 65520, Note_on_c, 9, 51, 125
11, 65520, Note_on_c, 9, 54, 127
11, 65549, Note_on_c, 9, 54, 0
11, 65549, Note_on_c, 9, 51, 0
11, 65640, Note_on_c, 9, 51, 127
11, 65640, Note_on_c, 9, 54, 127
11, 65669, Note_on_c, 9, 54, 0
11, 65669, Note_on_c, 9, 51, 0
11, 65760, Note_on_c, 9, 51, 125
11, 65760, Note_on_c, 9, 54, 125
11, 65789, Note_on_c, 9, 54, 0
11, 65789, Note_on_c, 9, 51, 0
11, 65880, Note_on_c, 9, 54, 127
11, 65880, Note_on_c, 9, 51, 127
11, 65940, Note_on_c, 9, 51, 0
11, 65940, Note_on_c, 9, 54, 0
11, 66000, Note_on_c, 9, 54, 127
11, 66000, Note_on_c, 9, 51, 127
11, 66029, Note_on_c, 9, 54, 0
11, 66060, Note_on_c, 9, 51, 0
11, 66120, Note_on_c, 9, 54, 127
11, 66120, Note_on_c, 9, 51, 127
11, 66149, Note_on_c, 9, 54, 0
11, 66180, Note_on_c, 9, 51, 0
11, 66240, Note_on_c, 9, 51, 127
11, 66240, Note_on_c, 9, 54, 127
11, 66269, Note_on_c, 9, 54, 0
11, 66269, Note_on_c, 9, 51, 0
11, 66360, Note_on_c, 9, 54, 127
11, 66360, Note_on_c, 9, 51, 127
11, 66366, Note_on_c, 9, 49, 127
11, 66389, Note_on_c, 9, 51, 0
11, 66389, Note_on_c, 9, 54, 0
11, 66390, Note_on_c, 9, 49, 0
11, 66480, Note_on_c, 9, 54, 127
11, 66480, Note_on_c, 9, 51, 127
11, 66509, Note_on_c, 9, 51, 0
11, 66509, Note_on_c, 9, 54, 0
11, 66600, Note_on_c, 9, 51, 127
11, 66600, Note_on_c, 9, 54, 127
11, 66629, Note_on_c, 9, 54, 0
11, 66629, Note_on_c, 9, 51, 0
11, 66720, Note_on_c, 9, 54, 127
11, 66720, Note_on_c, 9, 51, 127
11, 66749, Note_on_c, 9, 51, 0
11, 66749, Note_on_c, 9, 54, 0
11, 66840, Note_on_c, 9, 51, 127
11, 66840, Note_on_c, 9, 54, 127
11, 66869, Note_on_c, 9, 54, 0
11, 66869, Note_on_c, 9, 51, 0
11, 66960, Note_on_c, 9, 51, 127
11, 66960, Note_on_c, 9, 54, 127
11, 66989, Note_on_c, 9, 51, 0
11, 67020, Note_on_c, 9, 54, 0
11, 67080, Note_on_c, 9, 51, 127
11, 67080, Note_on_c, 9, 54, 127
11, 67109, Note_on_c, 9, 51, 0
11, 67140, Note_on_c, 9, 54, 0
11, 67200, Note_on_c, 9, 51, 125
11, 67200, Note_on_c, 9, 54, 127
11, 67229, Note_on_c, 9, 54, 0
11, 67229, Note_on_c, 9, 51, 0
11, 67320, Note_on_c, 9, 51, 127
11, 67320, Note_on_c, 9, 54, 125
11, 67349, Note_on_c, 9, 54, 0
11, 67349, Note_on_c, 9, 51, 0
11, 67440, Note_on_c, 9, 54, 127
11, 67440, Note_on_c, 9, 51, 125
11, 67469, Note_on_c, 9, 51, 0
11, 67469, Note_on_c, 9, 54, 0
11, 67560, Note_on_c, 9, 54, 127
11, 67560, Note_on_c, 9, 51, 122
11, 67589, Note_on_c, 9, 51, 0
11, 67589, Note_on_c, 9, 54, 0
11, 67680, Note_on_c, 9, 51, 125
11, 67680, Note_on_c, 9, 54, 127
11, 67709, Note_on_c, 9, 54, 0
11, 67709, Note_on_c, 9, 51, 0
11, 67800, Note_on_c, 9, 51, 127
11, 67800, Note_on_c, 9, 54, 127
11, 67829, Note_on_c, 9, 51, 0
11, 67860, Note_on_c, 9, 54, 0
11, 67920, Note_on_c, 9, 51, 125
11, 67920, Note_on_c, 9, 54, 127
11, 67949, Note_on_c, 9, 54, 0
11, 67949, Note_on_c, 9, 51, 0
11, 68040, Note_on_c, 9, 51, 125
11, 68040, Note_on_c, 9, 54, 125
11, 68069, Note_on_c, 9, 54, 0
11, 68100, Note_on_c, 9, 51, 0
11, 68160, Note_on_c, 9, 54, 125
11, 68160, Note_on_c, 9, 51, 127
11, 68189, Note_on_c, 9, 54, 0
11, 68220, Note_on_c, 9, 51, 0
11, 68280, Note_on_c, 9, 54, 127
11, 68280, Note_on_c, 9, 51, 125
11, 68286, Note_on_c, 9, 49, 127
11, 68309, Note_on_c, 9, 54, 0
11, 68310, Note_on_c, 9, 49, 0
11, 68340, Note_on_c, 9, 51, 0
11, 68400, Note_on_c, 9, 54, 127
11, 68400, Note_on_c, 9, 51, 127
11, 68429, Note_on_c, 9, 54, 0
11, 68460, Note_on_c, 9, 51, 0
11, 68520, Note_on_c, 9, 54, 127
11, 68520, Note_on_c, 9, 51, 127
11, 68549, Note_on_c, 9, 51, 0
11, 68549, Note_on_c, 9, 54, 0
11, 68640, Note_on_c, 9, 51, 125
11, 68640, Note_on_c, 9, 54, 127
11, 68700, Note_on_c, 9, 54, 0
11, 68700, Note_on_c, 9, 51, 0
11, 68760, Note_on_c, 9, 51, 125
11, 68760, Note_on_c, 9, 54, 127
11, 68789, Note_on_c, 9, 51, 0
11, 68820, Note_on_c, 9, 54, 0
11, 68880, Note_on_c, 9, 51, 125
11, 68880, Note_on_c, 9, 54, 125
11, 68909, Note_on_c, 9, 54, 0
11, 68909, Note_on_c, 9, 51, 0
11, 69000, Note_on_c, 9, 51, 125
11, 69000, Note_on_c, 9, 54, 127
11, 69029, Note_on_c, 9, 54, 0
11, 69029, Note_on_c, 9, 51, 0
11, 69120, Note_on_c, 9, 51, 114
11, 69120, Note_on_c, 9, 54, 127
11, 69149, Note_on_c, 9, 54, 0
11, 69149, Note_on_c, 9, 51, 0
11, 69240, Note_on_c, 9, 54, 127
11, 69240, Note_on_c, 9, 51, 125
11, 69300, Note_on_c, 9, 51, 0
11, 69300, Note_on_c, 9, 54, 0
11, 69360, Note_on_c, 9, 51, 125
11, 69360, Note_on_c, 9, 54, 127
11, 69389, Note_on_c, 9, 51, 0
11, 69420, Note_on_c, 9, 54, 0
11, 69480, Note_on_c, 9, 51, 125
11, 69480, Note_on_c, 9, 54, 127
11, 69540, Note_on_c, 9, 54, 0
11, 69540, Note_on_c, 9, 51, 0
11, 69600, Note_on_c, 9, 54, 127
11, 69600, Note_on_c, 9, 51, 127
11, 69629, Note_on_c, 9, 54, 0
11, 69660, Note_on_c, 9, 51, 0
11, 69720, Note_on_c, 9, 54, 127
11, 69720, Note_on_c, 9, 51, 125
11, 69749, Note_on_c, 9, 54, 0
11, 69780, Note_on_c, 9, 51, 0
11, 69840, Note_on_c, 9, 54, 127
11, 69840, Note_on_c, 9, 51, 125
11, 69869, Note_on_c, 9, 51, 0
11, 69900, Note_on_c, 9, 54, 0
11, 69960, Note_on_c, 9, 51, 125
11, 69960, Note_on_c, 9, 54, 127
11, 69989, Note_on_c, 9, 51, 0
11, 70020, Note_on_c, 9, 54, 0
11, 70080, Note_on_c, 9, 51, 125
11, 70109, Note_on_c, 9, 51, 0
11, 70110, Note_on_c, 9, 54, 127
11, 70139, Note_on_c, 9, 54, 0
11, 70200, Note_on_c, 9, 51, 127
11, 70200, Note_on_c, 9, 54, 127
11, 70200, Note_on_c, 9, 51, 127
11, 70229, Note_on_c, 9, 51, 0
11, 70229, Note_on_c, 9, 51, 0
11, 70260, Note_on_c, 9, 54, 0
11, 70320, Note_on_c, 9, 54, 127
11, 70320, Note_on_c, 9, 51, 127
11, 70349, Note_on_c, 9, 54, 0
11, 70380, Note_on_c, 9, 51, 0
11, 70440, Note_on_c, 9, 54, 127
11, 70440, Note_on_c, 9, 51, 127
11, 70500, Note_on_c, 9, 51, 0
11, 70500, Note_on_c, 9, 54, 0
11, 70560, Note_on_c, 9, 54, 127
11, 70560, Note_on_c, 9, 51, 127
11, 70589, Note_on_c, 9, 51, 0
11, 70589, Note_on_c, 9, 54, 0
11, 70680, Note_on_c, 9, 51, 127
11, 70680, Note_on_c, 9, 54, 127
11, 70709, Note_on_c, 9, 51, 0
11, 70740, Note_on_c, 9, 54, 0
11, 70800, Note_on_c, 9, 51, 127
11, 70800, Note_on_c, 9, 54, 127
11, 70829, Note_on_c, 9, 51, 0
11, 70860, Note_on_c, 9, 54, 0
11, 70920, Note_on_c, 9, 51, 127
11, 70920, Note_on_c, 9, 54, 127
11, 70949, Note_on_c, 9, 54, 0
11, 70949, Note_on_c, 9, 51, 0
11, 71040, Note_on_c, 9, 51, 127
11, 71040, Note_on_c, 9, 54, 127
11, 71069, Note_on_c, 9, 54, 0
11, 71069, Note_on_c, 9, 51, 0
11, 71160, Note_on_c, 9, 51, 127
11, 71160, Note_on_c, 9, 54, 127
11, 71189, Note_on_c, 9, 54, 0
11, 71189, Note_on_c, 9, 51, 0
11, 71280, Note_on_c, 9, 54, 127
11, 71280, Note_on_c, 9, 51, 127
11, 71340, Note_on_c, 9, 51, 0
11, 71340, Note_on_c, 9, 54, 0
11, 71400, Note_on_c, 9, 54, 127
11, 71400, Note_on_c, 9, 51, 127
11, 71429, Note_on_c, 9, 54, 0
11, 71460, Note_on_c, 9, 51, 0
11, 71520, Note_on_c, 9, 54, 127
11, 71520, Note_on_c, 9, 51, 127
11, 71580, Note_on_c, 9, 51, 0
11, 71580, Note_on_c, 9, 54, 0
11, 71640, Note_on_c, 9, 54, 127
11, 71640, Note_on_c, 9, 51, 127
11, 71669, Note_on_c, 9, 54, 0
11, 71700, Note_on_c, 9, 51, 0
11, 71760, Note_on_c, 9, 54, 127
11, 71760, Note_on_c, 9, 51, 127
11, 71789, Note_on_c, 9, 51, 0
11, 71789, Note_on_c, 9, 54, 0
11, 71880, Note_on_c, 9, 51, 127
11, 71880, Note_on_c, 9, 54, 127
11, 71909, Note_on_c, 9, 54, 0
11, 71909, Note_on_c, 9, 51, 0
11, 72000, Note_on_c, 9, 54, 127
11, 72000, Note_on_c, 9, 51, 127
11, 72029, Note_on_c, 9, 51, 0
11, 72029, Note_on_c, 9, 54, 0
11, 72120, Note_on_c, 9, 49, 127
11, 72149, Note_on_c, 9, 49, 0
11, 74040, Note_on_c, 9, 54, 127
11, 74069, Note_on_c, 9, 54, 0
11, 74160, Note_on_c, 9, 54, 127
11, 74189, Note_on_c, 9, 54, 0
11, 74280, Note_on_c, 9, 54, 127
11, 74340, Note_on_c, 9, 54, 0
11, 74400, Note_on_c, 9, 54, 127
11, 74460, Note_on_c, 9, 54, 0
11, 74520, Note_on_c, 9, 54, 127
11, 74580, Note_on_c, 9, 54, 0
11, 74640, Note_on_c, 9, 54, 127
11, 74700, Note_on_c, 9, 54, 0
11, 74760, Note_on_c, 9, 54, 127
11, 74820, Note_on_c, 9, 54, 0
11, 74880, Note_on_c, 9, 54, 127
11, 74940, Note_on_c, 9, 54, 0
11, 75000, Note_on_c, 9, 54, 127
11, 75060, Note_on_c, 9, 54, 0
11, 75120, Note_on_c, 9, 54, 127
11, 75149, Note_on_c, 9, 54, 0
11, 75240, Note_on_c, 9, 54, 127
11, 75300, Note_on_c, 9, 54, 0
11, 75360, Note_on_c, 9, 54, 127
11, 75389, Note_on_c, 9, 54, 0
11, 75480, Note_on_c, 9, 54, 127
11, 75509, Note_on_c, 9, 54, 0
11, 75600, Note_on_c, 9, 54, 127
11, 75629, Note_on_c, 9, 54, 0
11, 75720, Note_on_c, 9, 54, 127
11, 75749, Note_on_c, 9, 54, 0
11, 75840, Note_on_c, 9, 54, 127
11, 75869, Note_on_c, 9, 54, 0
11, 75960, Note_on_c, 9, 54, 127
11, 75989, Note_on_c, 9, 54, 0
11, 76080, Note_on_c, 9, 54, 127
11, 76109, Note_on_c, 9, 54, 0
11, 76200, Note_on_c, 9, 54, 127
11, 76260, Note_on_c, 9, 54, 0
11, 76320, Note_on_c, 9, 54, 127
11, 76380, Note_on_c, 9, 54, 0
11, 76440, Note_on_c, 9, 54, 127
11, 76500, Note_on_c, 9, 54, 0
11, 76560, Note_on_c, 9, 54, 127
11, 76620, Note_on_c, 9, 54, 0
11, 76680, Note_on_c, 9, 54, 127
11, 76740, Note_on_c, 9, 54, 0
11, 76800, Note_on_c, 9, 54, 127
11, 76860, Note_on_c, 9, 54, 0
11, 76920, Note_on_c, 9, 54, 127
11, 76980, Note_on_c, 9, 54, 0
11, 77040, Note_on_c, 9, 54, 127
11, 77069, Note_on_c, 9, 54, 0
11, 77160, Note_on_c, 9, 54, 127
11, 77220, Note_on_c, 9, 54, 0
11, 77280, Note_on_c, 9, 54, 127
11, 77309, Note_on_c, 9, 54, 0
11, 77400, Note_on_c, 9, 54, 127
11, 77429, Note_on_c, 9, 54, 0
11, 77520, Note_on_c, 9, 54, 127
11, 77549, Note_on_c, 9, 54, 0
11, 77640, Note_on_c, 9, 54, 127
11, 77669, Note_on_c, 9, 54, 0
11, 77760, Note_on_c, 9, 54, 127
11, 77789, Note_on_c, 9, 54, 0
11, 77880, Note_on_c, 9, 54, 127
11, 77909, Note_on_c, 9, 54, 0
11, 78000, Note_on_c, 9, 54, 127
11, 78029, Note_on_c, 9, 54, 0
11, 78120, Note_on_c, 9, 54, 127
11, 78180, Note_on_c, 9, 54, 0
11, 78240, Note_on_c, 9, 54, 127
11, 78300, Note_on_c, 9, 54, 0
11, 78360, Note_on_c, 9, 54, 127
11, 78420, Note_on_c, 9, 54, 0
11, 78480, Note_on_c, 9, 54, 127
11, 78540, Note_on_c, 9, 54, 0
11, 78600, Note_on_c, 9, 54, 127
11, 78660, Note_on_c, 9, 54, 0
11, 78720, Note_on_c, 9, 54, 127
11, 78780, Note_on_c, 9, 54, 0
11, 78840, Note_on_c, 9, 54, 127
11, 78900, Note_on_c, 9, 54, 0
11, 78960, Note_on_c, 9, 54, 127
11, 78989, Note_on_c, 9, 54, 0
11, 79080, Note_on_c, 9, 54, 127
11, 79140, Note_on_c, 9, 54, 0
11, 79200, Note_on_c, 9, 54, 127
11, 79229, Note_on_c, 9, 54, 0
11, 79320, Note_on_c, 9, 54, 127
11, 79349, Note_on_c, 9, 54, 0
11, 79440, Note_on_c, 9, 54, 127
11, 79469, Note_on_c, 9, 54, 0
11, 79560, Note_on_c, 9, 54, 127
11, 79589, Note_on_c, 9, 54, 0
11, 79680, Note_on_c, 9, 54, 127
11, 79709, Note_on_c, 9, 54, 0
11, 79800, Note_on_c, 9, 54, 127
11, 79829, Note_on_c, 9, 54, 0
11, 79920, Note_on_c, 9, 54, 127
11, 79949, Note_on_c, 9, 54, 0
11, 80040, Note_on_c, 9, 54, 127
11, 80100, Note_on_c, 9, 54, 0
11, 80160, Note_on_c, 9, 54, 127
11, 80220, Note_on_c, 9, 54, 0
11, 80280, Note_on_c, 9, 54, 127
11, 80340, Note_on_c, 9, 54, 0
11, 80400, Note_on_c, 9, 54, 127
11, 80460, Note_on_c, 9, 54, 0
11, 80520, Note_on_c, 9, 54, 127
11, 80580, Note_on_c, 9, 54, 0
11, 80640, Note_on_c, 9, 54, 127
11, 80700, Note_on_c, 9, 54, 0
11, 80760, Note_on_c, 9, 54, 127
11, 80820, Note_on_c, 9, 54, 0
11, 80880, Note_on_c, 9, 54, 127
11, 80909, Note_on_c, 9, 54, 0
11, 81000, Note_on_c, 9, 54, 127
11, 81060, Note_on_c, 9, 54, 0
11, 81120, Note_on_c, 9, 54, 127
11, 81149, Note_on_c, 9, 54, 0
11, 81240, Note_on_c, 9, 54, 127
11, 81269, Note_on_c, 9, 54, 0
11, 81360, Note_on_c, 9, 54, 127
11, 81389, Note_on_c, 9, 54, 0
11, 81480, Note_on_c, 9, 54, 127
11, 81509, Note_on_c, 9, 54, 0
11, 81600, Note_on_c, 9, 54, 127
11, 81629, Note_on_c, 9, 54, 0
11, 81720, Note_on_c, 9, 51, 127
11, 81720, Note_on_c, 9, 49, 127
11, 81720, Note_on_c, 9, 54, 127
11, 81749, Note_on_c, 9, 54, 0
11, 81780, Note_on_c, 9, 49, 0
11, 81780, Note_on_c, 9, 51, 0
11, 81840, Note_on_c, 9, 51, 127
11, 81840, Note_on_c, 9, 54, 127
11, 81869, Note_on_c, 9, 54, 0
11, 81900, Note_on_c, 9, 51, 0
11, 81960, Note_on_c, 9, 51, 127
11, 81960, Note_on_c, 9, 54, 127
11, 82020, Note_on_c, 9, 54, 0
11, 82020, Note_on_c, 9, 51, 0
11, 82080, Note_on_c, 9, 54, 127
11, 82080, Note_on_c, 9, 51, 127
11, 82109, Note_on_c, 9, 51, 0
11, 82109, Note_on_c, 9, 54, 0
11, 82200, Note_on_c, 9, 51, 127
11, 82200, Note_on_c, 9, 54, 127
11, 82229, Note_on_c, 9, 54, 0
11, 82260, Note_on_c, 9, 51, 0
11, 82320, Note_on_c, 9, 51, 127
11, 82320, Note_on_c, 9, 54, 127
11, 82349, Note_on_c, 9, 51, 0
11, 82380, Note_on_c, 9, 54, 0
11, 82440, Note_on_c, 9, 51, 127
11, 82440, Note_on_c, 9, 54, 127
11, 82469, Note_on_c, 9, 51, 0
11, 82500, Note_on_c, 9, 54, 0
11, 82560, Note_on_c, 9, 51, 127
11, 82560, Note_on_c, 9, 54, 127
11, 82589, Note_on_c, 9, 54, 0
11, 82589, Note_on_c, 9, 51, 0
11, 82680, Note_on_c, 9, 49, 127
11, 82680, Note_on_c, 9, 51, 127
11, 82680, Note_on_c, 9, 54, 127
11, 82709, Note_on_c, 9, 49, 0
11, 82740, Note_on_c, 9, 54, 0
11, 82740, Note_on_c, 9, 51, 0
11, 82800, Note_on_c, 9, 51, 127
11, 82800, Note_on_c, 9, 54, 127
11, 82829, Note_on_c, 9, 54, 0
11, 82829, Note_on_c, 9, 51, 0
11, 82920, Note_on_c, 9, 54, 127
11, 82920, Note_on_c, 9, 51, 127
11, 82949, Note_on_c, 9, 51, 0
11, 82949, Note_on_c, 9, 54, 0
11, 83040, Note_on_c, 9, 51, 127
11, 83040, Note_on_c, 9, 54, 127
11, 83069, Note_on_c, 9, 54, 0
11, 83069, Note_on_c, 9, 51, 0
11, 83160, Note_on_c, 9, 54, 127
11, 83160, Note_on_c, 9, 51, 127
11, 83189, Note_on_c, 9, 54, 0
11, 83220, Note_on_c, 9, 51, 0
11, 83280, Note_on_c, 9, 51, 127
11, 83280, Note_on_c, 9, 54, 127
11, 83309, Note_on_c, 9, 54, 0
11, 83340, Note_on_c, 9, 51, 0
11, 83400, Note_on_c, 9, 51, 127
11, 83400, Note_on_c, 9, 54, 127
11, 83429, Note_on_c, 9, 54, 0
11, 83460, Note_on_c, 9, 51, 0
11, 83520, Note_on_c, 9, 51, 127
11, 83520, Note_on_c, 9, 54, 127
11, 83549, Note_on_c, 9, 54, 0
11, 83549, Note_on_c, 9, 51, 0
11, 83640, Note_on_c, 9, 49, 127
11, 83640, Note_on_c, 9, 51, 127
11, 83640, Note_on_c, 9, 54, 127
11, 83669, Note_on_c, 9, 49, 0
11, 83700, Note_on_c, 9, 54, 0
11, 83700, Note_on_c, 9, 51, 0
11, 83760, Note_on_c, 9, 51, 127
11, 83760, Note_on_c, 9, 54, 127
11, 83820, Note_on_c, 9, 54, 0
11, 83820, Note_on_c, 9, 51, 0
11, 83880, Note_on_c, 9, 51, 127
11, 83880, Note_on_c, 9, 54, 127
11, 83909, Note_on_c, 9, 54, 0
11, 83940, Note_on_c, 9, 51, 0
11, 84000, Note_on_c, 9, 51, 127
11, 84000, Note_on_c, 9, 54, 127
11, 84029, Note_on_c, 9, 54, 0
11, 84029, Note_on_c, 9, 51, 0
11, 84120, Note_on_c, 9, 51, 127
11, 84120, Note_on_c, 9, 54, 127
11, 84149, Note_on_c, 9, 54, 0
11, 84180, Note_on_c, 9, 51, 0
11, 84240, Note_on_c, 9, 51, 127
11, 84240, Note_on_c, 9, 54, 127
11, 84269, Note_on_c, 9, 54, 0
11, 84269, Note_on_c, 9, 51, 0
11, 84360, Note_on_c, 9, 54, 127
11, 84360, Note_on_c, 9, 51, 127
11, 84389, Note_on_c, 9, 51, 0
11, 84389, Note_on_c, 9, 54, 0
11, 84480, Note_on_c, 9, 54, 127
11, 84480, Note_on_c, 9, 51, 127
11, 84509, Note_on_c, 9, 51, 0
11, 84509, Note_on_c, 9, 54, 0
11, 84600, Note_on_c, 9, 54, 127
11, 84600, Note_on_c, 9, 49, 127
11, 84600, Note_on_c, 9, 51, 127
11, 84629, Note_on_c, 9, 49, 0
11, 84660, Note_on_c, 9, 51, 0
11, 84660, Note_on_c, 9, 54, 0
11, 84720, Note_on_c, 9, 51, 127
11, 84720, Note_on_c, 9, 54, 127
11, 84749, Note_on_c, 9, 54, 0
11, 84749, Note_on_c, 9, 51, 0
11, 84840, Note_on_c, 9, 51, 127
11, 84840, Note_on_c, 9, 54, 127
11, 84869, Note_on_c, 9, 51, 0
11, 84900, Note_on_c, 9, 54, 0
11, 84960, Note_on_c, 9, 54, 100
11, 84960, Note_on_c, 9, 51, 127
11, 84989, Note_on_c, 9, 51, 0
11, 85080, Note_on_c, 9, 54, 0
11, 85080, Note_on_c, 9, 54, 127
11, 85080, Note_on_c, 9, 51, 127
11, 85109, Note_on_c, 9, 54, 0
11, 85140, Note_on_c, 9, 51, 0
11, 85200, Note_on_c, 9, 51, 127
11, 85200, Note_on_c, 9, 54, 125
11, 85260, Note_on_c, 9, 54, 0
11, 85260, Note_on_c, 9, 51, 0
11, 85320, Note_on_c, 9, 51, 127
11, 85320, Note_on_c, 9, 54, 127
11, 85380, Note_on_c, 9, 54, 0
11, 85380, Note_on_c, 9, 51, 0
11, 85440, Note_on_c, 9, 51, 127
11, 85440, Note_on_c, 9, 54, 127
11, 85469, Note_on_c, 9, 51, 0
11, 85500, Note_on_c, 9, 54, 0
11, 85560, Note_on_c, 9, 51, 127
11, 85560, Note_on_c, 9, 49, 127
11, 85560, Note_on_c, 9, 54, 127
11, 85589, Note_on_c, 9, 49, 0
11, 85620, Note_on_c, 9, 54, 0
11, 85620, Note_on_c, 9, 51, 0
11, 85680, Note_on_c, 9, 51, 127
11, 85680, Note_on_c, 9, 54, 127
11, 85740, Note_on_c, 9, 54, 0
11, 85740, Note_on_c, 9, 51, 0
11, 85800, Note_on_c, 9, 51, 127
11, 85800, Note_on_c, 9, 54, 127
11, 85860, Note_on_c, 9, 54, 0
11, 85860, Note_on_c, 9, 51, 0
11, 85920, Note_on_c, 9, 51, 127
11, 85920, Note_on_c, 9, 54, 127
11, 85949, Note_on_c, 9, 51, 0
11, 85980, Note_on_c, 9, 54, 0
11, 86040, Note_on_c, 9, 51, 127
11, 86040, Note_on_c, 9, 54, 127
11, 86100, Note_on_c, 9, 54, 0
11, 86100, Note_on_c, 9, 51, 0
11, 86160, Note_on_c, 9, 51, 127
11, 86160, Note_on_c, 9, 54, 127
11, 86189, Note_on_c, 9, 51, 0
11, 86220, Note_on_c, 9, 54, 0
11, 86280, Note_on_c, 9, 51, 127
11, 86280, Note_on_c, 9, 54, 127
11, 86309, Note_on_c, 9, 51, 0
11, 86340, Note_on_c, 9, 54, 0
11, 86400, Note_on_c, 9, 51, 127
11, 86400, Note_on_c, 9, 54, 127
11, 86429, Note_on_c, 9, 51, 0
11, 86460, Note_on_c, 9, 54, 0
11, 86520, Note_on_c, 9, 49, 127
11, 86520, Note_on_c, 9, 51, 127
11, 86520, Note_on_c, 9, 54, 127
11, 86549, Note_on_c, 9, 49, 0
11, 86580, Note_on_c, 9, 54, 0
11, 86580, Note_on_c, 9, 51, 0
11, 86640, Note_on_c, 9, 54, 127
11, 86640, Note_on_c, 9, 51, 127
11, 86669, Note_on_c, 9, 51, 0
11, 86669, Note_on_c, 9, 54, 0
11, 86760, Note_on_c, 9, 54, 127
11, 86760, Note_on_c, 9, 51, 127
11, 86789, Note_on_c, 9, 51, 0
11, 86789, Note_on_c, 9, 54, 0
11, 86880, Note_on_c, 9, 54, 127
11, 86880, Note_on_c, 9, 51, 127
11, 86909, Note_on_c, 9, 51, 0
11, 86909, Note_on_c, 9, 54, 0
11, 87000, Note_on_c, 9, 51, 127
11, 87000, Note_on_c, 9, 54, 127
11, 87060, Note_on_c, 9, 54, 0
11, 87060, Note_on_c, 9, 51, 0
11, 87120, Note_on_c, 9, 51, 127
11, 87120, Note_on_c, 9, 54, 127
11, 87180, Note_on_c, 9, 54, 0
11, 87180, Note_on_c, 9, 51, 0
11, 87240, Note_on_c, 9, 51, 127
11, 87240, Note_on_c, 9, 54, 127
11, 87269, Note_on_c, 9, 54, 0
11, 87300, Note_on_c, 9, 51, 0
11, 87360, Note_on_c, 9, 54, 127
11, 87360, Note_on_c, 9, 51, 127
11, 87389, Note_on_c, 9, 51, 0
11, 87389, Note_on_c, 9, 54, 0
11, 87480, Note_on_c, 9, 54, 127
11, 87480, Note_on_c, 9, 51, 127
11, 87480, Note_on_c, 9, 49, 127
11, 87509, Note_on_c, 9, 51, 0
11, 87509, Note_on_c, 9, 54, 0
11, 87540, Note_on_c, 9, 49, 0
11, 87600, Note_on_c, 9, 54, 127
11, 87600, Note_on_c, 9, 51, 127
11, 87629, Note_on_c, 9, 51, 0
11, 87629, Note_on_c, 9, 54, 0
11, 87720, Note_on_c, 9, 51, 127
11, 87720, Note_on_c, 9, 54, 127
11, 87749, Note_on_c, 9, 51, 0
11, 87780, Note_on_c, 9, 54, 0
11, 87840, Note_on_c, 9, 51, 127
11, 87840, Note_on_c, 9, 54, 127
11, 87869, Note_on_c, 9, 51, 0
11, 87900, Note_on_c, 9, 54, 0
11, 87960, Note_on_c, 9, 51, 127
11, 87960, Note_on_c, 9, 54, 127
11, 87989, Note_on_c, 9, 51, 0
11, 88020, Note_on_c, 9, 54, 0
11, 88080, Note_on_c, 9, 51, 127
11, 88080, Note_on_c, 9, 54, 127
11, 88109, Note_on_c, 9, 51, 0
11, 88140, Note_on_c, 9, 54, 0
11, 88200, Note_on_c, 9, 51, 127
11, 88200, Note_on_c, 9, 54, 127
11, 88229, Note_on_c, 9, 54, 0
11, 88229, Note_on_c, 9, 51, 0
11, 88320, Note_on_c, 9, 54, 127
11, 88320, Note_on_c, 9, 51, 127
11, 88349, Note_on_c, 9, 51, 0
11, 88349, Note_on_c, 9, 54, 0
11, 88440, Note_on_c, 9, 54, 127
11, 88440, Note_on_c, 9, 51, 127
11, 88469, Note_on_c, 9, 51, 0
11, 88469, Note_on_c, 9, 54, 0
11, 88560, Note_on_c, 9, 51, 127
11, 88560, Note_on_c, 9, 54, 127
11, 88620, Note_on_c, 9, 54, 0
11, 88620, Note_on_c, 9, 51, 0
11, 88680, Note_on_c, 9, 54, 127
11, 88680, Note_on_c, 9, 51, 127
11, 88709, Note_on_c, 9, 54, 0
11, 88740, Note_on_c, 9, 51, 0
11, 88800, Note_on_c, 9, 54, 127
11, 88800, Note_on_c, 9, 51, 127
11, 88829, Note_on_c, 9, 54, 0
11, 88860, Note_on_c, 9, 51, 0
11, 88920, Note_on_c, 9, 54, 127
11, 88920, Note_on_c, 9, 51, 127
11, 88949, Note_on_c, 9, 51, 0
11, 88949, Note_on_c, 9, 54, 0
11, 89040, Note_on_c, 9, 54, 127
11, 89040, Note_on_c, 9, 51, 127
11, 89069, Note_on_c, 9, 51, 0
11, 89069, Note_on_c, 9, 54, 0
11, 89160, Note_on_c, 9, 51, 127
11, 89160, Note_on_c, 9, 54, 127
11, 89220, Note_on_c, 9, 54, 0
11, 89220, Note_on_c, 9, 51, 0
11, 89280, Note_on_c, 9, 51, 127
11, 89280, Note_on_c, 9, 54, 127
11, 89309, Note_on_c, 9, 51, 0
11, 89340, Note_on_c, 9, 54, 0
11, 89400, Note_on_c, 9, 51, 127
11, 89400, Note_on_c, 9, 49, 127
11, 89400, Note_on_c, 9, 54, 127
11, 89429, Note_on_c, 9, 54, 0
11, 89460, Note_on_c, 9, 49, 0
11, 89460, Note_on_c, 9, 51, 0
11, 89520, Note_on_c, 9, 51, 127
11, 89520, Note_on_c, 9, 54, 127
11, 89549, Note_on_c, 9, 54, 0
11, 89580, Note_on_c, 9, 51, 0
11, 89640, Note_on_c, 9, 51, 127
11, 89640, Note_on_c, 9, 54, 127
11, 89700, Note_on_c, 9, 54, 0
11, 89700, Note_on_c, 9, 51, 0
11, 89760, Note_on_c, 9, 54, 127
11, 89760, Note_on_c, 9, 51, 127
11, 89789, Note_on_c, 9, 51, 0
11, 89789, Note_on_c, 9, 54, 0
11, 89880, Note_on_c, 9, 51, 127
11, 89880, Note_on_c, 9, 54, 127
11, 89909, Note_on_c, 9, 54, 0
11, 89940, Note_on_c, 9, 51, 0
11, 90000, Note_on_c, 9, 51, 127
11, 90000, Note_on_c, 9, 54, 127
11, 90029, Note_on_c, 9, 51, 0
11, 90060, Note_on_c, 9, 54, 0
11, 90120, Note_on_c, 9, 51, 127
11, 90120, Note_on_c, 9, 54, 127
11, 90149, Note_on_c, 9, 51, 0
11, 90180, Note_on_c, 9, 54, 0
11, 90240, Note_on_c, 9, 51, 127
11, 90240, Note_on_c, 9, 54, 127
11, 90269, Note_on_c, 9, 54, 0
11, 90269, Note_on_c, 9, 51, 0
11, 90360, Note_on_c, 9, 49, 127
11, 90360, Note_on_c, 9, 51, 127
11, 90360, Note_on_c, 9, 54, 127
11, 90389, Note_on_c, 9, 49, 0
11, 90420, Note_on_c, 9, 54, 0
11, 90420, Note_on_c, 9, 51, 0
11, 90480, Note_on_c, 9, 51, 127
11, 90480, Note_on_c, 9, 54, 127
11, 90509, Note_on_c, 9, 54, 0
11, 90509, Note_on_c, 9, 51, 0
11, 90600, Note_on_c, 9, 54, 127
11, 90600, Note_on_c, 9, 51, 127
11, 90629, Note_on_c, 9, 51, 0
11, 90629, Note_on_c, 9, 54, 0
11, 90720, Note_on_c, 9, 51, 127
11, 90720, Note_on_c, 9, 54, 127
11, 90749, Note_on_c, 9, 54, 0
11, 90749, Note_on_c, 9, 51, 0
11, 90840, Note_on_c, 9, 54, 127
11, 90840, Note_on_c, 9, 51, 127
11, 90869, Note_on_c, 9, 54, 0
11, 90900, Note_on_c, 9, 51, 0
11, 90960, Note_on_c, 9, 51, 127
11, 90960, Note_on_c, 9, 54, 127
11, 90989, Note_on_c, 9, 54, 0
11, 91020, Note_on_c, 9, 51, 0
11, 91080, Note_on_c, 9, 51, 127
11, 91080, Note_on_c, 9, 54, 127
11, 91109, Note_on_c, 9, 54, 0
11, 91140, Note_on_c, 9, 51, 0
11, 91200, Note_on_c, 9, 51, 127
11, 91200, Note_on_c, 9, 54, 127
11, 91229, Note_on_c, 9, 54, 0
11, 91229, Note_on_c, 9, 51, 0
11, 91320, Note_on_c, 9, 49, 127
11, 91320, Note_on_c, 9, 51, 127
11, 91320, Note_on_c, 9, 54, 127
11, 91349, Note_on_c, 9, 49, 0
11, 91380, Note_on_c, 9, 54, 0
11, 91380, Note_on_c, 9, 51, 0
11, 91440, Note_on_c, 9, 51, 127
11, 91440, Note_on_c, 9, 54, 127
11, 91500, Note_on_c, 9, 54, 0
11, 91500, Note_on_c, 9, 51, 0
11, 91560, Note_on_c, 9, 51, 127
11, 91560, Note_on_c, 9, 54, 127
11, 91589, Note_on_c, 9, 54, 0
11, 91620, Note_on_c, 9, 51, 0
11, 91680, Note_on_c, 9, 51, 127
11, 91680, Note_on_c, 9, 54, 127
11, 91709, Note_on_c, 9, 54, 0
11, 91709, Note_on_c, 9, 51, 0
11, 91800, Note_on_c, 9, 51, 127
11, 91800, Note_on_c, 9, 54, 127
11, 91829, Note_on_c, 9, 54, 0
11, 91860, Note_on_c, 9, 51, 0
11, 91920, Note_on_c, 9, 51, 127
11, 91920, Note_on_c, 9, 54, 127
11, 91949, Note_on_c, 9, 54, 0
11, 91949, Note_on_c, 9, 51, 0
11, 92040, Note_on_c, 9, 54, 127
11, 92040, Note_on_c, 9, 51, 127
11, 92069, Note_on_c, 9, 51, 0
11, 92069, Note_on_c, 9, 54, 0
11, 92160, Note_on_c, 9, 54, 127
11, 92160, Note_on_c, 9, 51, 127
11, 92189, Note_on_c, 9, 51, 0
11, 92189, Note_on_c, 9, 54, 0
11, 92280, Note_on_c, 9, 54, 127
11, 92280, Note_on_c, 9, 49, 127
11, 92280, Note_on_c, 9, 51, 127
11, 92309, Note_on_c, 9, 49, 0
11, 92340, Note_on_c, 9, 51, 0
11, 92340, Note_on_c, 9, 54, 0
11, 92400, Note_on_c, 9, 51, 127
11, 92400, Note_on_c, 9, 54, 127
11, 92429, Note_on_c, 9, 54, 0
11, 92429, Note_on_c, 9, 51, 0
11, 92520, Note_on_c, 9, 51, 127
11, 92520, Note_on_c, 9, 54, 127
11, 92549, Note_on_c, 9, 51, 0
11, 92580, Note_on_c, 9, 54, 0
11, 92640, Note_on_c, 9, 54, 100
11, 92640, Note_on_c, 9, 51, 127
11, 92669, Note_on_c, 9, 51, 0
11, 92760, Note_on_c, 9, 54, 0
11, 92760, Note_on_c, 9, 54, 127
11, 92760, Note_on_c, 9, 51, 127
11, 92789, Note_on_c, 9, 54, 0
11, 92820, Note_on_c, 9, 51, 0
11, 92880, Note_on_c, 9, 51, 127
11, 92880, Note_on_c, 9, 54, 125
11, 92940, Note_on_c, 9, 54, 0
11, 92940, Note_on_c, 9, 51, 0
11, 93000, Note_on_c, 9, 51, 127
11, 93000, Note_on_c, 9, 54, 127
11, 93060, Note_on_c, 9, 54, 0
11, 93060, Note_on_c, 9, 51, 0
11, 93120, Note_on_c, 9, 51, 127
11, 93120, Note_on_c, 9, 54, 127
11, 93149, Note_on_c, 9, 51, 0
11, 93180, Note_on_c, 9, 54, 0
11, 93240, Note_on_c, 9, 51, 127
11, 93240, Note_on_c, 9, 49, 127
11, 93240, Note_on_c, 9, 54, 127
11, 93269, Note_on_c, 9, 49, 0
11, 93300, Note_on_c, 9, 54, 0
11, 93300, Note_on_c, 9, 51, 0
11, 93360, Note_on_c, 9, 51, 127
11, 93360, Note_on_c, 9, 54, 127
11, 93420, Note_on_c, 9, 54, 0
11, 93420, Note_on_c, 9, 51, 0
11, 93480, Note_on_c, 9, 51, 127
11, 93480, Note_on_c, 9, 54, 127
11, 93540, Note_on_c, 9, 54, 0
11, 93540, Note_on_c, 9, 51, 0
11, 93600, Note_on_c, 9, 51, 127
11, 93600, Note_on_c, 9, 54, 127
11, 93629, Note_on_c, 9, 51, 0
11, 93660, Note_on_c, 9, 54, 0
11, 93720, Note_on_c, 9, 51, 127
11, 93720, Note_on_c, 9, 54, 127
11, 93780, Note_on_c, 9, 54, 0
11, 93780, Note_on_c, 9, 51, 0
11, 93840, Note_on_c, 9, 51, 127
11, 93840, Note_on_c, 9, 54, 127
11, 93869, Note_on_c, 9, 51, 0
11, 93900, Note_on_c, 9, 54, 0
11, 93960, Note_on_c, 9, 51, 127
11, 93960, Note_on_c, 9, 54, 127
11, 93989, Note_on_c, 9, 51, 0
11, 94020, Note_on_c, 9, 54, 0
11, 94080, Note_on_c, 9, 51, 127
11, 94080, Note_on_c, 9, 54, 127
11, 94109, Note_on_c, 9, 51, 0
11, 94140, Note_on_c, 9, 54, 0
11, 94200, Note_on_c, 9, 49, 127
11, 94200, Note_on_c, 9, 51, 127
11, 94200, Note_on_c, 9, 54, 127
11, 94229, Note_on_c, 9, 49, 0
11, 94260, Note_on_c, 9, 54, 0
11, 94260, Note_on_c, 9, 51, 0
11, 94320, Note_on_c, 9, 54, 127
11, 94320, Note_on_c, 9, 51, 127
11, 94349, Note_on_c, 9, 51, 0
11, 94349, Note_on_c, 9, 54, 0
11, 94440, Note_on_c, 9, 54, 127
11, 94440, Note_on_c, 9, 51, 127
11, 94469, Note_on_c, 9, 51, 0
11, 94469, Note_on_c, 9, 54, 0
11, 94560, Note_on_c, 9, 54, 127
11, 94560, Note_on_c, 9, 51, 127
11, 94589, Note_on_c, 9, 51, 0
11, 94589, Note_on_c, 9, 54, 0
11, 94680, Note_on_c, 9, 51, 127
11, 94680, Note_on_c, 9, 54, 127
11, 94740, Note_on_c, 9, 54, 0
11, 94740, Note_on_c, 9, 51, 0
11, 94800, Note_on_c, 9, 51, 127
11, 94800, Note_on_c, 9, 54, 127
11, 94860, Note_on_c, 9, 54, 0
11, 94860, Note_on_c, 9, 51, 0
11, 94920, Note_on_c, 9, 51, 127
11, 94920, Note_on_c, 9, 54, 127
11, 94949, Note_on_c, 9, 54, 0
11, 94980, Note_on_c, 9, 51, 0
11, 95040, Note_on_c, 9, 54, 127
11, 95040, Note_on_c, 9, 51, 127
11, 95069, Note_on_c, 9, 51, 0
11, 95069, Note_on_c, 9, 54, 0
11, 95160, Note_on_c, 9, 54, 127
11, 95160, Note_on_c, 9, 51, 127
11, 95160, Note_on_c, 9, 49, 127
11, 95189, Note_on_c, 9, 51, 0
11, 95189, Note_on_c, 9, 54, 0
11, 95220, Note_on_c, 9, 49, 0
11, 95280, Note_on_c, 9, 54, 127
11, 95280, Note_on_c, 9, 51, 127
11, 95309, Note_on_c, 9, 51, 0
11, 95309, Note_on_c, 9, 54, 0
11, 95400, Note_on_c, 9, 51, 127
11, 95400, Note_on_c, 9, 54, 127
11, 95429, Note_on_c, 9, 51, 0
11, 95460, Note_on_c, 9, 54, 0
11, 95520, Note_on_c, 9, 51, 127
11, 95520, Note_on_c, 9, 54, 127
11, 95549, Note_on_c, 9, 51, 0
11, 95580, Note_on_c, 9, 54, 0
11, 95640, Note_on_c, 9, 51, 127
11, 95640, Note_on_c, 9, 54, 127
11, 95669, Note_on_c, 9, 51, 0
11, 95700, Note_on_c, 9, 54, 0
11, 95760, Note_on_c, 9, 51, 127
11, 95760, Note_on_c, 9, 54, 127
11, 95789, Note_on_c, 9, 51, 0
11, 95820, Note_on_c, 9, 54, 0
11, 95880, Note_on_c, 9, 51, 127
11, 95880, Note_on_c, 9, 54, 127
11, 95909, Note_on_c, 9, 54, 0
11, 95909, Note_on_c, 9, 51, 0
11, 96000, Note_on_c, 9, 54, 127
11, 96000, Note_on_c, 9, 51, 127
11, 96029, Note_on_c, 9, 51, 0
11, 96029, Note_on_c, 9, 54, 0
11, 96120, Note_on_c, 9, 54, 127
11, 96120, Note_on_c, 9, 51, 127
11, 96149, Note_on_c, 9, 51, 0
11, 96149, Note_on_c, 9, 54, 0
11, 96240, Note_on_c, 9, 51, 127
11, 96240, Note_on_c, 9, 54, 127
11, 96300, Note_on_c, 9, 54, 0
11, 96300, Note_on_c, 9, 51, 0
11, 96360, Note_on_c, 9, 54, 127
11, 96360, Note_on_c, 9, 51, 127
11, 96389, Note_on_c, 9, 54, 0
11, 96420, Note_on_c, 9, 51, 0
11, 96480, Note_on_c, 9, 54, 127
11, 96480, Note_on_c, 9, 51, 127
11, 96509, Note_on_c, 9, 54, 0
11, 96540, Note_on_c, 9, 51, 0
11, 96600, Note_on_c, 9, 54, 127
11, 96600, Note_on_c, 9, 51, 127
11, 96629, Note_on_c, 9, 51, 0
11, 96629, Note_on_c, 9, 54, 0
11, 96720, Note_on_c, 9, 54, 127
11, 96720, Note_on_c, 9, 51, 127
11, 96749, Note_on_c, 9, 51, 0
11, 96749, Note_on_c, 9, 54, 0
11, 96840, Note_on_c, 9, 51, 127
11, 96840, Note_on_c, 9, 54, 127
11, 96900, Note_on_c, 9, 54, 0
11, 96900, Note_on_c, 9, 51, 0
11, 96960, Note_on_c, 9, 51, 127
11, 96960, Note_on_c, 9, 54, 127
11, 96989, Note_on_c, 9, 51, 0
11, 97020, Note_on_c, 9, 54, 0
11, 97080, Note_on_c, 9, 51, 127
11, 97080, Note_on_c, 9, 49, 127
11, 97080, Note_on_c, 9, 54, 127
11, 97109, Note_on_c, 9, 54, 0
11, 97140, Note_on_c, 9, 49, 0
11, 97140, Note_on_c, 9, 51, 0
11, 97200, Note_on_c, 9, 51, 127
11, 97200, Note_on_c, 9, 54, 127
11, 97229, Note_on_c, 9, 54, 0
11, 97260, Note_on_c, 9, 51, 0
11, 97320, Note_on_c, 9, 51, 127
11, 97320, Note_on_c, 9, 54, 127
11, 97380, Note_on_c, 9, 54, 0
11, 97380, Note_on_c, 9, 51, 0
11, 97440, Note_on_c, 9, 54, 127
11, 97440, Note_on_c, 9, 51, 127
11, 97469, Note_on_c, 9, 51, 0
11, 97469, Note_on_c, 9, 54, 0
11, 97560, Note_on_c, 9, 51, 127
11, 97560, Note_on_c, 9, 54, 127
11, 97589, Note_on_c, 9, 54, 0
11, 97620, Note_on_c, 9, 51, 0
11, 97680, Note_on_c, 9, 51, 127
11, 97680, Note_on_c, 9, 54, 127
11, 97709, Note_on_c, 9, 51, 0
11, 97740, Note_on_c, 9, 54, 0
11, 97800, Note_on_c, 9, 51, 127
11, 97800, Note_on_c, 9, 54, 127
11, 97829, Note_on_c, 9, 51, 0
11, 97860, Note_on_c, 9, 54, 0
11, 97920, Note_on_c, 9, 51, 127
11, 97920, Note_on_c, 9, 54, 127
11, 97949, Note_on_c, 9, 54, 0
11, 97949, Note_on_c, 9, 51, 0
11, 98040, Note_on_c, 9, 49, 127
11, 98040, Note_on_c, 9, 51, 127
11, 98040, Note_on_c, 9, 54, 127
11, 98069, Note_on_c, 9, 49, 0
11, 98100, Note_on_c, 9, 54, 0
11, 98100, Note_on_c, 9, 51, 0
11, 98160, Note_on_c, 9, 51, 127
11, 98160, Note_on_c, 9, 54, 127
11, 98189, Note_on_c, 9, 54, 0
11, 98189, Note_on_c, 9, 51, 0
11, 98280, Note_on_c, 9, 54, 127
11, 98280, Note_on_c, 9, 51, 127
11, 98309, Note_on_c, 9, 51, 0
11, 98309, Note_on_c, 9, 54, 0
11, 98400, Note_on_c, 9, 51, 127
11, 98400, Note_on_c, 9, 54, 127
11, 98429, Note_on_c, 9, 54, 0
11, 98429, Note_on_c, 9, 51, 0
11, 98520, Note_on_c, 9, 54, 127
11, 98520, Note_on_c, 9, 51, 127
11, 98549, Note_on_c, 9, 54, 0
11, 98580, Note_on_c, 9, 51, 0
11, 98640, Note_on_c, 9, 51, 127
11, 98640, Note_on_c, 9, 54, 127
11, 98669, Note_on_c, 9, 54, 0
11, 98700, Note_on_c, 9, 51, 0
11, 98760, Note_on_c, 9, 51, 127
11, 98760, Note_on_c, 9, 54, 127
11, 98789, Note_on_c, 9, 54, 0
11, 98820, Note_on_c, 9, 51, 0
11, 98880, Note_on_c, 9, 51, 127
11, 98880, Note_on_c, 9, 54, 127
11, 98909, Note_on_c, 9, 54, 0
11, 98909, Note_on_c, 9, 51, 0
11, 99000, Note_on_c, 9, 49, 127
11, 99000, Note_on_c, 9, 51, 127
11, 99000, Note_on_c, 9, 54, 127
11, 99029, Note_on_c, 9, 49, 0
11, 99060, Note_on_c, 9, 54, 0
11, 99060, Note_on_c, 9, 51, 0
11, 99120, Note_on_c, 9, 51, 127
11, 99120, Note_on_c, 9, 54, 127
11, 99180, Note_on_c, 9, 54, 0
11, 99180, Note_on_c, 9, 51, 0
11, 99240, Note_on_c, 9, 51, 127
11, 99240, Note_on_c, 9, 54, 127
11, 99269, Note_on_c, 9, 54, 0
11, 99300, Note_on_c, 9, 51, 0
11, 99360, Note_on_c, 9, 51, 127
11, 99360, Note_on_c, 9, 54, 127
11, 99389, Note_on_c, 9, 54, 0
11, 99389, Note_on_c, 9, 51, 0
11, 99389, End_track
0, 0, End_of_file
