0, 0, Header, 1, 17, 96
1, 0, Start_track
1, 0, Title_t, "*** I Want You ***"
1, 0, Instrument_name_t, "    by The Beatles"
1, 0, SMPTE_offset, 96, 0, 3, 0, 0
1, 0, MIDI_port, 0
1, 0, Time_signature, 4, 2, 24, 8
1, 0, Tempo, 500000
1, 0, Key_signature, 0, "major"
1, 384, Tempo, 750000
1, 384, Time_signature, 6, 3, 36, 8
1, 1824, Tempo, 2000000
1, 1920, Tempo, 600000
1, 2112, Time_signature, 4, 2, 24, 8
1, 5568, Time_signature, 2, 2, 24, 8
1, 5760, Time_signature, 4, 2, 24, 8
1, 9216, Time_signature, 2, 2, 24, 8
1, 9408, Time_signature, 4, 2, 24, 8
1, 15168, Time_signature, 2, 2, 24, 8
1, 15360, Time_signature, 4, 2, 24, 8
1, 18816, Time_signature, 2, 2, 24, 8
1, 19008, Time_signature, 4, 2, 24, 8
1, 21312, Tempo, 750000
1, 21312, Time_signature, 6, 3, 36, 8
1, 24192, Tempo, 2000000
1, 24288, Tempo, 600000
1, 24480, Time_signature, 4, 2, 24, 8
1, 27936, Time_signature, 2, 2, 24, 8
1, 28128, Time_signature, 4, 2, 24, 8
1, 31584, Time_signature, 2, 2, 24, 8
1, 31776, Time_signature, 4, 2, 24, 8
1, 34080, Tempo, 750000
1, 34080, Time_signature, 6, 3, 36, 8
1, 36960, Tempo, 2000000
1, 37056, Tempo, 600000
1, 37248, Time_signature, 4, 2, 24, 8
1, 40704, Time_signature, 2, 2, 24, 8
1, 40896, Time_signature, 4, 2, 24, 8
1, 44352, Time_signature, 2, 2, 24, 8
1, 44544, Time_signature, 4, 2, 24, 8
1, 46848, Tempo, 750000
1, 46848, Time_signature, 6, 3, 36, 8
1, 46848, End_track
2, 0, Start_track
2, 0, Title_t, "Std Drums"
2, 0, Instrument_name_t, "    ""Abbey  Road"""
2, 0, MIDI_port, 0
2, 96, Control_c, 9, 121, 0
2, 97, Control_c, 9, 7, 105
2, 98, Control_c, 9, 10, 64
2, 99, Control_c, 9, 91, 51
2, 100, Control_c, 9, 93, 11
2, 101, Control_c, 9, 32, 0
2, 101, Control_c, 9, 0, 0
2, 101, Program_c, 9, 0
2, 384, Note_on_c, 9, 35, 120
2, 393, Note_on_c, 9, 35, 0
2, 432, Note_on_c, 9, 35, 120
2, 441, Note_on_c, 9, 35, 0
2, 480, Note_on_c, 9, 35, 120
2, 489, Note_on_c, 9, 35, 0
2, 528, Note_on_c, 9, 35, 120
2, 528, Note_on_c, 9, 38, 100
2, 537, Note_on_c, 9, 35, 0
2, 537, Note_on_c, 9, 38, 0
2, 576, Note_on_c, 9, 35, 120
2, 585, Note_on_c, 9, 35, 0
2, 624, Note_on_c, 9, 35, 120
2, 633, Note_on_c, 9, 35, 0
2, 672, Note_on_c, 9, 35, 120
2, 681, Note_on_c, 9, 35, 0
2, 720, Note_on_c, 9, 35, 120
2, 729, Note_on_c, 9, 35, 0
2, 768, Note_on_c, 9, 35, 120
2, 777, Note_on_c, 9, 35, 0
2, 816, Note_on_c, 9, 38, 100
2, 816, Note_on_c, 9, 35, 120
2, 825, Note_on_c, 9, 38, 0
2, 825, Note_on_c, 9, 35, 0
2, 864, Note_on_c, 9, 35, 120
2, 873, Note_on_c, 9, 35, 0
2, 912, Note_on_c, 9, 35, 120
2, 921, Note_on_c, 9, 35, 0
2, 960, Note_on_c, 9, 35, 120
2, 969, Note_on_c, 9, 35, 0
2, 1008, Note_on_c, 9, 35, 120
2, 1017, Note_on_c, 9, 35, 0
2, 1056, Note_on_c, 9, 35, 120
2, 1065, Note_on_c, 9, 35, 0
2, 1104, Note_on_c, 9, 42, 105
2, 1104, Note_on_c, 9, 35, 120
2, 1104, Note_on_c, 9, 38, 100
2, 1113, Note_on_c, 9, 42, 0
2, 1113, Note_on_c, 9, 35, 0
2, 1113, Note_on_c, 9, 38, 0
2, 1152, Note_on_c, 9, 42, 90
2, 1152, Note_on_c, 9, 35, 120
2, 1152, Note_on_c, 9, 38, 100
2, 1161, Note_on_c, 9, 42, 0
2, 1161, Note_on_c, 9, 35, 0
2, 1161, Note_on_c, 9, 38, 0
2, 1200, Note_on_c, 9, 42, 90
2, 1200, Note_on_c, 9, 38, 100
2, 1200, Note_on_c, 9, 35, 120
2, 1209, Note_on_c, 9, 42, 0
2, 1209, Note_on_c, 9, 38, 0
2, 1209, Note_on_c, 9, 35, 0
2, 1248, Note_on_c, 9, 42, 105
2, 1248, Note_on_c, 9, 35, 120
2, 1248, Note_on_c, 9, 38, 100
2, 1257, Note_on_c, 9, 42, 0
2, 1257, Note_on_c, 9, 35, 0
2, 1257, Note_on_c, 9, 38, 0
2, 1296, Note_on_c, 9, 35, 120
2, 1305, Note_on_c, 9, 35, 0
2, 1344, Note_on_c, 9, 35, 120
2, 1353, Note_on_c, 9, 35, 0
2, 1392, Note_on_c, 9, 38, 100
2, 1392, Note_on_c, 9, 35, 120
2, 1401, Note_on_c, 9, 38, 0
2, 1401, Note_on_c, 9, 35, 0
2, 1440, Note_on_c, 9, 42, 90
2, 1440, Note_on_c, 9, 35, 120
2, 1440, Note_on_c, 9, 38, 100
2, 1449, Note_on_c, 9, 42, 0
2, 1449, Note_on_c, 9, 35, 0
2, 1449, Note_on_c, 9, 38, 0
2, 1488, Note_on_c, 9, 42, 90
2, 1488, Note_on_c, 9, 38, 100
2, 1488, Note_on_c, 9, 35, 120
2, 1497, Note_on_c, 9, 42, 0
2, 1497, Note_on_c, 9, 38, 0
2, 1497, Note_on_c, 9, 35, 0
2, 1536, Note_on_c, 9, 42, 105
2, 1536, Note_on_c, 9, 38, 100
2, 1536, Note_on_c, 9, 35, 120
2, 1545, Note_on_c, 9, 42, 0
2, 1545, Note_on_c, 9, 38, 0
2, 1545, Note_on_c, 9, 35, 0
2, 1584, Note_on_c, 9, 35, 120
2, 1593, Note_on_c, 9, 35, 0
2, 1632, Note_on_c, 9, 35, 120
2, 1641, Note_on_c, 9, 35, 0
2, 1680, Note_on_c, 9, 35, 120
2, 1680, Note_on_c, 9, 38, 100
2, 1689, Note_on_c, 9, 35, 0
2, 1689, Note_on_c, 9, 38, 0
2, 2304, Note_on_c, 9, 35, 120
2, 2304, Note_on_c, 9, 38, 100
2, 2304, Note_on_c, 9, 45, 110
2, 2313, Note_on_c, 9, 35, 0
2, 2313, Note_on_c, 9, 38, 0
2, 2313, Note_on_c, 9, 45, 0
2, 2352, Note_on_c, 9, 35, 120
2, 2352, Note_on_c, 9, 38, 100
2, 2352, Note_on_c, 9, 45, 110
2, 2361, Note_on_c, 9, 35, 0
2, 2361, Note_on_c, 9, 38, 0
2, 2361, Note_on_c, 9, 45, 0
2, 2400, Note_on_c, 9, 45, 110
2, 2400, Note_on_c, 9, 35, 120
2, 2400, Note_on_c, 9, 38, 100
2, 2409, Note_on_c, 9, 45, 0
2, 2409, Note_on_c, 9, 35, 0
2, 2409, Note_on_c, 9, 38, 0
2, 3264, Note_on_c, 9, 38, 100
2, 3264, Note_on_c, 9, 45, 110
2, 3264, Note_on_c, 9, 35, 120
2, 3273, Note_on_c, 9, 38, 0
2, 3273, Note_on_c, 9, 45, 0
2, 3273, Note_on_c, 9, 35, 0
2, 3312, Note_on_c, 9, 35, 120
2, 3312, Note_on_c, 9, 38, 100
2, 3312, Note_on_c, 9, 45, 110
2, 3321, Note_on_c, 9, 35, 0
2, 3321, Note_on_c, 9, 38, 0
2, 3321, Note_on_c, 9, 45, 0
2, 3360, Note_on_c, 9, 45, 110
2, 3360, Note_on_c, 9, 35, 120
2, 3360, Note_on_c, 9, 38, 100
2, 3369, Note_on_c, 9, 45, 0
2, 3369, Note_on_c, 9, 35, 0
2, 3369, Note_on_c, 9, 38, 0
2, 3408, Note_on_c, 9, 38, 100
2, 3408, Note_on_c, 9, 35, 120
2, 3408, Note_on_c, 9, 45, 110
2, 3417, Note_on_c, 9, 38, 0
2, 3417, Note_on_c, 9, 35, 0
2, 3417, Note_on_c, 9, 45, 0
2, 4032, Note_on_c, 9, 35, 120
2, 4032, Note_on_c, 9, 38, 100
2, 4032, Note_on_c, 9, 45, 110
2, 4041, Note_on_c, 9, 35, 0
2, 4041, Note_on_c, 9, 38, 0
2, 4041, Note_on_c, 9, 45, 0
2, 4080, Note_on_c, 9, 38, 100
2, 4080, Note_on_c, 9, 35, 120
2, 4080, Note_on_c, 9, 45, 110
2, 4089, Note_on_c, 9, 38, 0
2, 4089, Note_on_c, 9, 35, 0
2, 4089, Note_on_c, 9, 45, 0
2, 4128, Note_on_c, 9, 45, 110
2, 4128, Note_on_c, 9, 35, 120
2, 4128, Note_on_c, 9, 38, 100
2, 4137, Note_on_c, 9, 45, 0
2, 4137, Note_on_c, 9, 35, 0
2, 4137, Note_on_c, 9, 38, 0
2, 4416, Note_on_c, 9, 51, 110
2, 4416, Note_on_c, 9, 35, 120
2, 4425, Note_on_c, 9, 51, 0
2, 4425, Note_on_c, 9, 35, 0
2, 4512, Note_on_c, 9, 51, 110
2, 4512, Note_on_c, 9, 35, 120
2, 4521, Note_on_c, 9, 51, 0
2, 4521, Note_on_c, 9, 35, 0
2, 4608, Note_on_c, 9, 51, 110
2, 4608, Note_on_c, 9, 35, 120
2, 4617, Note_on_c, 9, 51, 0
2, 4617, Note_on_c, 9, 35, 0
2, 4704, Note_on_c, 9, 51, 110
2, 4704, Note_on_c, 9, 35, 120
2, 4713, Note_on_c, 9, 51, 0
2, 4713, Note_on_c, 9, 35, 0
2, 4800, Note_on_c, 9, 51, 110
2, 4800, Note_on_c, 9, 35, 120
2, 4809, Note_on_c, 9, 51, 0
2, 4809, Note_on_c, 9, 35, 0
2, 4896, Note_on_c, 9, 51, 110
2, 4896, Note_on_c, 9, 35, 120
2, 4905, Note_on_c, 9, 51, 0
2, 4905, Note_on_c, 9, 35, 0
2, 4992, Note_on_c, 9, 51, 110
2, 4992, Note_on_c, 9, 35, 120
2, 5001, Note_on_c, 9, 51, 0
2, 5001, Note_on_c, 9, 35, 0
2, 5088, Note_on_c, 9, 51, 110
2, 5088, Note_on_c, 9, 35, 120
2, 5097, Note_on_c, 9, 51, 0
2, 5097, Note_on_c, 9, 35, 0
2, 5184, Note_on_c, 9, 51, 110
2, 5184, Note_on_c, 9, 35, 120
2, 5193, Note_on_c, 9, 51, 0
2, 5193, Note_on_c, 9, 35, 0
2, 5280, Note_on_c, 9, 51, 110
2, 5280, Note_on_c, 9, 35, 120
2, 5289, Note_on_c, 9, 51, 0
2, 5289, Note_on_c, 9, 35, 0
2, 5376, Note_on_c, 9, 51, 110
2, 5376, Note_on_c, 9, 35, 120
2, 5385, Note_on_c, 9, 51, 0
2, 5385, Note_on_c, 9, 35, 0
2, 5472, Note_on_c, 9, 51, 110
2, 5472, Note_on_c, 9, 35, 120
2, 5481, Note_on_c, 9, 51, 0
2, 5481, Note_on_c, 9, 35, 0
2, 5568, Note_on_c, 9, 51, 110
2, 5568, Note_on_c, 9, 35, 120
2, 5577, Note_on_c, 9, 51, 0
2, 5577, Note_on_c, 9, 35, 0
2, 5664, Note_on_c, 9, 51, 110
2, 5664, Note_on_c, 9, 35, 120
2, 5673, Note_on_c, 9, 51, 0
2, 5673, Note_on_c, 9, 35, 0
2, 5760, Note_on_c, 9, 51, 110
2, 5760, Note_on_c, 9, 35, 120
2, 5769, Note_on_c, 9, 51, 0
2, 5769, Note_on_c, 9, 35, 0
2, 5808, Note_on_c, 9, 38, 100
2, 5817, Note_on_c, 9, 38, 0
2, 5832, Note_on_c, 9, 38, 90
2, 5841, Note_on_c, 9, 38, 0
2, 5856, Note_on_c, 9, 38, 100
2, 5865, Note_on_c, 9, 38, 0
2, 5880, Note_on_c, 9, 38, 90
2, 5889, Note_on_c, 9, 38, 0
2, 5904, Note_on_c, 9, 38, 100
2, 5913, Note_on_c, 9, 38, 0
2, 5928, Note_on_c, 9, 38, 90
2, 5937, Note_on_c, 9, 38, 0
2, 5952, Note_on_c, 9, 38, 100
2, 5961, Note_on_c, 9, 38, 0
2, 6000, Note_on_c, 9, 47, 110
2, 6009, Note_on_c, 9, 47, 0
2, 6024, Note_on_c, 9, 45, 110
2, 6033, Note_on_c, 9, 45, 0
2, 6072, Note_on_c, 9, 38, 90
2, 6081, Note_on_c, 9, 38, 0
2, 6096, Note_on_c, 9, 38, 100
2, 6105, Note_on_c, 9, 38, 0
2, 6144, Note_on_c, 9, 35, 120
2, 6144, Note_on_c, 9, 49, 100
2, 6153, Note_on_c, 9, 35, 0
2, 6153, Note_on_c, 9, 49, 0
2, 6192, Note_on_c, 9, 51, 90
2, 6201, Note_on_c, 9, 51, 0
2, 6240, Note_on_c, 9, 51, 110
2, 6249, Note_on_c, 9, 51, 0
2, 6288, Note_on_c, 9, 51, 90
2, 6297, Note_on_c, 9, 51, 0
2, 6336, Note_on_c, 9, 51, 110
2, 6336, Note_on_c, 9, 38, 100
2, 6345, Note_on_c, 9, 51, 0
2, 6345, Note_on_c, 9, 38, 0
2, 6384, Note_on_c, 9, 51, 90
2, 6393, Note_on_c, 9, 51, 0
2, 6432, Note_on_c, 9, 51, 110
2, 6441, Note_on_c, 9, 51, 0
2, 6480, Note_on_c, 9, 51, 90
2, 6489, Note_on_c, 9, 51, 0
2, 6528, Note_on_c, 9, 51, 110
2, 6528, Note_on_c, 9, 35, 120
2, 6537, Note_on_c, 9, 51, 0
2, 6537, Note_on_c, 9, 35, 0
2, 6576, Note_on_c, 9, 51, 90
2, 6585, Note_on_c, 9, 51, 0
2, 6624, Note_on_c, 9, 51, 110
2, 6633, Note_on_c, 9, 51, 0
2, 6672, Note_on_c, 9, 51, 90
2, 6681, Note_on_c, 9, 51, 0
2, 6720, Note_on_c, 9, 51, 110
2, 6720, Note_on_c, 9, 38, 100
2, 6729, Note_on_c, 9, 51, 0
2, 6729, Note_on_c, 9, 38, 0
2, 6768, Note_on_c, 9, 51, 90
2, 6777, Note_on_c, 9, 51, 0
2, 6816, Note_on_c, 9, 51, 110
2, 6825, Note_on_c, 9, 51, 0
2, 6864, Note_on_c, 9, 51, 90
2, 6873, Note_on_c, 9, 51, 0
2, 6912, Note_on_c, 9, 51, 110
2, 6912, Note_on_c, 9, 35, 120
2, 6921, Note_on_c, 9, 51, 0
2, 6921, Note_on_c, 9, 35, 0
2, 6960, Note_on_c, 9, 51, 90
2, 6969, Note_on_c, 9, 51, 0
2, 7008, Note_on_c, 9, 51, 110
2, 7017, Note_on_c, 9, 51, 0
2, 7056, Note_on_c, 9, 51, 90
2, 7065, Note_on_c, 9, 51, 0
2, 7104, Note_on_c, 9, 51, 110
2, 7104, Note_on_c, 9, 38, 100
2, 7113, Note_on_c, 9, 51, 0
2, 7113, Note_on_c, 9, 38, 0
2, 7152, Note_on_c, 9, 51, 90
2, 7161, Note_on_c, 9, 51, 0
2, 7200, Note_on_c, 9, 51, 110
2, 7209, Note_on_c, 9, 51, 0
2, 7248, Note_on_c, 9, 51, 90
2, 7257, Note_on_c, 9, 51, 0
2, 7296, Note_on_c, 9, 51, 110
2, 7296, Note_on_c, 9, 35, 120
2, 7305, Note_on_c, 9, 51, 0
2, 7305, Note_on_c, 9, 35, 0
2, 7344, Note_on_c, 9, 51, 90
2, 7353, Note_on_c, 9, 51, 0
2, 7392, Note_on_c, 9, 51, 110
2, 7401, Note_on_c, 9, 51, 0
2, 7440, Note_on_c, 9, 51, 90
2, 7449, Note_on_c, 9, 51, 0
2, 7488, Note_on_c, 9, 51, 110
2, 7488, Note_on_c, 9, 38, 100
2, 7497, Note_on_c, 9, 51, 0
2, 7497, Note_on_c, 9, 38, 0
2, 7536, Note_on_c, 9, 51, 90
2, 7545, Note_on_c, 9, 51, 0
2, 7584, Note_on_c, 9, 51, 110
2, 7593, Note_on_c, 9, 51, 0
2, 7632, Note_on_c, 9, 51, 90
2, 7641, Note_on_c, 9, 51, 0
2, 7680, Note_on_c, 9, 51, 110
2, 7680, Note_on_c, 9, 35, 120
2, 7689, Note_on_c, 9, 51, 0
2, 7689, Note_on_c, 9, 35, 0
2, 7728, Note_on_c, 9, 51, 90
2, 7737, Note_on_c, 9, 51, 0
2, 7776, Note_on_c, 9, 51, 110
2, 7785, Note_on_c, 9, 51, 0
2, 7824, Note_on_c, 9, 51, 90
2, 7833, Note_on_c, 9, 51, 0
2, 7872, Note_on_c, 9, 51, 110
2, 7872, Note_on_c, 9, 38, 100
2, 7881, Note_on_c, 9, 51, 0
2, 7881, Note_on_c, 9, 38, 0
2, 7920, Note_on_c, 9, 51, 90
2, 7929, Note_on_c, 9, 51, 0
2, 7968, Note_on_c, 9, 51, 110
2, 7977, Note_on_c, 9, 51, 0
2, 8016, Note_on_c, 9, 51, 90
2, 8025, Note_on_c, 9, 51, 0
2, 8064, Note_on_c, 9, 51, 110
2, 8064, Note_on_c, 9, 35, 120
2, 8073, Note_on_c, 9, 51, 0
2, 8073, Note_on_c, 9, 35, 0
2, 8112, Note_on_c, 9, 51, 90
2, 8121, Note_on_c, 9, 51, 0
2, 8160, Note_on_c, 9, 51, 110
2, 8169, Note_on_c, 9, 51, 0
2, 8208, Note_on_c, 9, 51, 90
2, 8217, Note_on_c, 9, 51, 0
2, 8256, Note_on_c, 9, 51, 110
2, 8256, Note_on_c, 9, 38, 100
2, 8265, Note_on_c, 9, 51, 0
2, 8265, Note_on_c, 9, 38, 0
2, 8304, Note_on_c, 9, 51, 90
2, 8313, Note_on_c, 9, 51, 0
2, 8352, Note_on_c, 9, 51, 110
2, 8361, Note_on_c, 9, 51, 0
2, 8400, Note_on_c, 9, 51, 90
2, 8409, Note_on_c, 9, 51, 0
2, 8448, Note_on_c, 9, 51, 110
2, 8448, Note_on_c, 9, 35, 120
2, 8457, Note_on_c, 9, 51, 0
2, 8457, Note_on_c, 9, 35, 0
2, 8496, Note_on_c, 9, 51, 90
2, 8505, Note_on_c, 9, 51, 0
2, 8544, Note_on_c, 9, 51, 110
2, 8553, Note_on_c, 9, 51, 0
2, 8592, Note_on_c, 9, 51, 90
2, 8601, Note_on_c, 9, 51, 0
2, 8640, Note_on_c, 9, 51, 110
2, 8640, Note_on_c, 9, 35, 120
2, 8640, Note_on_c, 9, 38, 100
2, 8649, Note_on_c, 9, 51, 0
2, 8649, Note_on_c, 9, 35, 0
2, 8649, Note_on_c, 9, 38, 0
2, 8688, Note_on_c, 9, 51, 90
2, 8697, Note_on_c, 9, 51, 0
2, 8736, Note_on_c, 9, 51, 110
2, 8745, Note_on_c, 9, 51, 0
2, 8784, Note_on_c, 9, 51, 90
2, 8793, Note_on_c, 9, 51, 0
2, 8832, Note_on_c, 9, 51, 110
2, 8832, Note_on_c, 9, 35, 120
2, 8841, Note_on_c, 9, 51, 0
2, 8841, Note_on_c, 9, 35, 0
2, 8880, Note_on_c, 9, 51, 90
2, 8889, Note_on_c, 9, 51, 0
2, 8928, Note_on_c, 9, 51, 110
2, 8937, Note_on_c, 9, 51, 0
2, 8976, Note_on_c, 9, 51, 90
2, 8985, Note_on_c, 9, 51, 0
2, 9024, Note_on_c, 9, 51, 110
2, 9024, Note_on_c, 9, 38, 100
2, 9024, Note_on_c, 9, 35, 120
2, 9033, Note_on_c, 9, 51, 0
2, 9033, Note_on_c, 9, 38, 0
2, 9033, Note_on_c, 9, 35, 0
2, 9072, Note_on_c, 9, 51, 90
2, 9081, Note_on_c, 9, 51, 0
2, 9120, Note_on_c, 9, 51, 110
2, 9129, Note_on_c, 9, 51, 0
2, 9168, Note_on_c, 9, 51, 90
2, 9177, Note_on_c, 9, 51, 0
2, 9216, Note_on_c, 9, 51, 110
2, 9216, Note_on_c, 9, 38, 100
2, 9216, Note_on_c, 9, 35, 120
2, 9225, Note_on_c, 9, 51, 0
2, 9225, Note_on_c, 9, 38, 0
2, 9225, Note_on_c, 9, 35, 0
2, 9280, Note_on_c, 9, 51, 110
2, 9280, Note_on_c, 9, 38, 100
2, 9280, Note_on_c, 9, 35, 120
2, 9289, Note_on_c, 9, 51, 0
2, 9289, Note_on_c, 9, 38, 0
2, 9289, Note_on_c, 9, 35, 0
2, 9344, Note_on_c, 9, 51, 110
2, 9344, Note_on_c, 9, 35, 120
2, 9344, Note_on_c, 9, 38, 100
2, 9353, Note_on_c, 9, 51, 0
2, 9353, Note_on_c, 9, 35, 0
2, 9353, Note_on_c, 9, 38, 0
2, 9408, Note_on_c, 9, 35, 120
2, 9408, Note_on_c, 9, 49, 100
2, 9417, Note_on_c, 9, 35, 0
2, 9417, Note_on_c, 9, 49, 0
2, 9504, Note_on_c, 9, 51, 110
2, 9513, Note_on_c, 9, 51, 0
2, 9600, Note_on_c, 9, 51, 110
2, 9600, Note_on_c, 9, 38, 100
2, 9600, Note_on_c, 9, 35, 120
2, 9609, Note_on_c, 9, 51, 0
2, 9609, Note_on_c, 9, 38, 0
2, 9609, Note_on_c, 9, 35, 0
2, 9648, Note_on_c, 9, 51, 90
2, 9657, Note_on_c, 9, 51, 0
2, 9696, Note_on_c, 9, 51, 110
2, 9705, Note_on_c, 9, 51, 0
2, 9792, Note_on_c, 9, 38, 100
2, 9792, Note_on_c, 9, 35, 120
2, 9800, Note_on_c, 9, 38, 85
2, 9801, Note_on_c, 9, 38, 0
2, 9801, Note_on_c, 9, 35, 0
2, 9808, Note_on_c, 9, 38, 85
2, 9809, Note_on_c, 9, 38, 0
2, 9817, Note_on_c, 9, 38, 0
2, 9840, Note_on_c, 9, 35, 120
2, 9849, Note_on_c, 9, 35, 0
2, 10176, Note_on_c, 9, 51, 110
2, 10176, Note_on_c, 9, 35, 120
2, 10185, Note_on_c, 9, 51, 0
2, 10185, Note_on_c, 9, 35, 0
2, 10272, Note_on_c, 9, 51, 110
2, 10281, Note_on_c, 9, 51, 0
2, 10320, Note_on_c, 9, 51, 90
2, 10329, Note_on_c, 9, 51, 0
2, 10368, Note_on_c, 9, 51, 110
2, 10368, Note_on_c, 9, 35, 120
2, 10368, Note_on_c, 9, 38, 100
2, 10377, Note_on_c, 9, 51, 0
2, 10377, Note_on_c, 9, 35, 0
2, 10377, Note_on_c, 9, 38, 0
2, 10464, Note_on_c, 9, 51, 110
2, 10473, Note_on_c, 9, 51, 0
2, 10560, Note_on_c, 9, 35, 120
2, 10560, Note_on_c, 9, 38, 100
2, 10568, Note_on_c, 9, 38, 85
2, 10569, Note_on_c, 9, 35, 0
2, 10569, Note_on_c, 9, 38, 0
2, 10576, Note_on_c, 9, 38, 85
2, 10577, Note_on_c, 9, 38, 0
2, 10585, Note_on_c, 9, 38, 0
2, 10608, Note_on_c, 9, 35, 120
2, 10617, Note_on_c, 9, 35, 0
2, 10944, Note_on_c, 9, 35, 120
2, 10944, Note_on_c, 9, 57, 100
2, 10953, Note_on_c, 9, 35, 0
2, 10953, Note_on_c, 9, 57, 0
2, 11040, Note_on_c, 9, 51, 110
2, 11049, Note_on_c, 9, 51, 0
2, 11088, Note_on_c, 9, 51, 90
2, 11097, Note_on_c, 9, 51, 0
2, 11136, Note_on_c, 9, 51, 110
2, 11136, Note_on_c, 9, 35, 120
2, 11136, Note_on_c, 9, 38, 100
2, 11145, Note_on_c, 9, 51, 0
2, 11145, Note_on_c, 9, 35, 0
2, 11145, Note_on_c, 9, 38, 0
2, 11184, Note_on_c, 9, 51, 90
2, 11193, Note_on_c, 9, 51, 0
2, 11232, Note_on_c, 9, 51, 110
2, 11241, Note_on_c, 9, 51, 0
2, 11280, Note_on_c, 9, 51, 90
2, 11289, Note_on_c, 9, 51, 0
2, 11328, Note_on_c, 9, 42, 110
2, 11337, Note_on_c, 9, 42, 0
2, 11424, Note_on_c, 9, 46, 105
2, 11433, Note_on_c, 9, 46, 0
2, 11712, Note_on_c, 9, 35, 120
2, 11712, Note_on_c, 9, 49, 100
2, 11721, Note_on_c, 9, 35, 0
2, 11721, Note_on_c, 9, 49, 0
2, 11760, Note_on_c, 9, 51, 90
2, 11769, Note_on_c, 9, 51, 0
2, 11808, Note_on_c, 9, 51, 110
2, 11817, Note_on_c, 9, 51, 0
2, 11856, Note_on_c, 9, 51, 90
2, 11865, Note_on_c, 9, 51, 0
2, 11904, Note_on_c, 9, 51, 110
2, 11904, Note_on_c, 9, 38, 100
2, 11913, Note_on_c, 9, 51, 0
2, 11913, Note_on_c, 9, 38, 0
2, 11952, Note_on_c, 9, 51, 90
2, 11961, Note_on_c, 9, 51, 0
2, 12000, Note_on_c, 9, 51, 110
2, 12009, Note_on_c, 9, 51, 0
2, 12048, Note_on_c, 9, 51, 90
2, 12048, Note_on_c, 9, 35, 120
2, 12057, Note_on_c, 9, 51, 0
2, 12057, Note_on_c, 9, 35, 0
2, 12096, Note_on_c, 9, 51, 110
2, 12096, Note_on_c, 9, 35, 120
2, 12105, Note_on_c, 9, 51, 0
2, 12105, Note_on_c, 9, 35, 0
2, 12144, Note_on_c, 9, 51, 90
2, 12153, Note_on_c, 9, 51, 0
2, 12192, Note_on_c, 9, 51, 110
2, 12201, Note_on_c, 9, 51, 0
2, 12240, Note_on_c, 9, 51, 90
2, 12240, Note_on_c, 9, 35, 120
2, 12249, Note_on_c, 9, 51, 0
2, 12249, Note_on_c, 9, 35, 0
2, 12288, Note_on_c, 9, 51, 110
2, 12288, Note_on_c, 9, 38, 100
2, 12297, Note_on_c, 9, 51, 0
2, 12297, Note_on_c, 9, 38, 0
2, 12336, Note_on_c, 9, 51, 90
2, 12345, Note_on_c, 9, 51, 0
2, 12384, Note_on_c, 9, 51, 110
2, 12393, Note_on_c, 9, 51, 0
2, 12432, Note_on_c, 9, 51, 90
2, 12441, Note_on_c, 9, 51, 0
2, 12480, Note_on_c, 9, 51, 110
2, 12480, Note_on_c, 9, 35, 120
2, 12489, Note_on_c, 9, 51, 0
2, 12489, Note_on_c, 9, 35, 0
2, 12528, Note_on_c, 9, 51, 90
2, 12537, Note_on_c, 9, 51, 0
2, 12576, Note_on_c, 9, 51, 110
2, 12585, Note_on_c, 9, 51, 0
2, 12624, Note_on_c, 9, 51, 90
2, 12633, Note_on_c, 9, 51, 0
2, 12672, Note_on_c, 9, 51, 110
2, 12672, Note_on_c, 9, 38, 100
2, 12681, Note_on_c, 9, 51, 0
2, 12681, Note_on_c, 9, 38, 0
2, 12720, Note_on_c, 9, 51, 90
2, 12729, Note_on_c, 9, 51, 0
2, 12768, Note_on_c, 9, 51, 110
2, 12777, Note_on_c, 9, 51, 0
2, 12816, Note_on_c, 9, 51, 90
2, 12825, Note_on_c, 9, 51, 0
2, 12864, Note_on_c, 9, 51, 110
2, 12864, Note_on_c, 9, 35, 120
2, 12873, Note_on_c, 9, 51, 0
2, 12873, Note_on_c, 9, 35, 0
2, 12912, Note_on_c, 9, 51, 90
2, 12921, Note_on_c, 9, 51, 0
2, 12960, Note_on_c, 9, 51, 110
2, 12969, Note_on_c, 9, 51, 0
2, 13008, Note_on_c, 9, 51, 90
2, 13008, Note_on_c, 9, 35, 120
2, 13017, Note_on_c, 9, 51, 0
2, 13017, Note_on_c, 9, 35, 0
2, 13056, Note_on_c, 9, 51, 110
2, 13056, Note_on_c, 9, 38, 100
2, 13065, Note_on_c, 9, 51, 0
2, 13065, Note_on_c, 9, 38, 0
2, 13104, Note_on_c, 9, 51, 90
2, 13113, Note_on_c, 9, 51, 0
2, 13152, Note_on_c, 9, 51, 110
2, 13161, Note_on_c, 9, 51, 0
2, 13200, Note_on_c, 9, 51, 90
2, 13209, Note_on_c, 9, 51, 0
2, 13248, Note_on_c, 9, 51, 110
2, 13248, Note_on_c, 9, 35, 120
2, 13257, Note_on_c, 9, 51, 0
2, 13257, Note_on_c, 9, 35, 0
2, 13296, Note_on_c, 9, 51, 90
2, 13305, Note_on_c, 9, 51, 0
2, 13344, Note_on_c, 9, 51, 110
2, 13353, Note_on_c, 9, 51, 0
2, 13392, Note_on_c, 9, 51, 90
2, 13401, Note_on_c, 9, 51, 0
2, 13440, Note_on_c, 9, 51, 110
2, 13440, Note_on_c, 9, 38, 100
2, 13449, Note_on_c, 9, 51, 0
2, 13449, Note_on_c, 9, 38, 0
2, 13464, Note_on_c, 9, 38, 90
2, 13473, Note_on_c, 9, 38, 0
2, 13488, Note_on_c, 9, 51, 90
2, 13497, Note_on_c, 9, 51, 0
2, 13536, Note_on_c, 9, 51, 110
2, 13545, Note_on_c, 9, 51, 0
2, 13584, Note_on_c, 9, 51, 90
2, 13593, Note_on_c, 9, 51, 0
2, 13632, Note_on_c, 9, 51, 110
2, 13632, Note_on_c, 9, 35, 120
2, 13641, Note_on_c, 9, 51, 0
2, 13641, Note_on_c, 9, 35, 0
2, 13680, Note_on_c, 9, 51, 90
2, 13689, Note_on_c, 9, 51, 0
2, 13728, Note_on_c, 9, 51, 110
2, 13737, Note_on_c, 9, 51, 0
2, 13776, Note_on_c, 9, 51, 90
2, 13785, Note_on_c, 9, 51, 0
2, 13824, Note_on_c, 9, 51, 110
2, 13824, Note_on_c, 9, 38, 100
2, 13833, Note_on_c, 9, 51, 0
2, 13833, Note_on_c, 9, 38, 0
2, 13872, Note_on_c, 9, 51, 90
2, 13881, Note_on_c, 9, 51, 0
2, 13920, Note_on_c, 9, 51, 110
2, 13929, Note_on_c, 9, 51, 0
2, 13968, Note_on_c, 9, 51, 90
2, 13977, Note_on_c, 9, 51, 0
2, 14016, Note_on_c, 9, 51, 110
2, 14016, Note_on_c, 9, 35, 120
2, 14025, Note_on_c, 9, 51, 0
2, 14025, Note_on_c, 9, 35, 0
2, 14064, Note_on_c, 9, 51, 90
2, 14073, Note_on_c, 9, 51, 0
2, 14112, Note_on_c, 9, 51, 110
2, 14121, Note_on_c, 9, 51, 0
2, 14160, Note_on_c, 9, 51, 90
2, 14169, Note_on_c, 9, 51, 0
2, 14208, Note_on_c, 9, 51, 110
2, 14208, Note_on_c, 9, 38, 100
2, 14217, Note_on_c, 9, 51, 0
2, 14217, Note_on_c, 9, 38, 0
2, 14256, Note_on_c, 9, 51, 90
2, 14265, Note_on_c, 9, 51, 0
2, 14304, Note_on_c, 9, 51, 110
2, 14313, Note_on_c, 9, 51, 0
2, 14352, Note_on_c, 9, 51, 90
2, 14361, Note_on_c, 9, 51, 0
2, 14400, Note_on_c, 9, 51, 110
2, 14400, Note_on_c, 9, 35, 120
2, 14409, Note_on_c, 9, 51, 0
2, 14409, Note_on_c, 9, 35, 0
2, 14448, Note_on_c, 9, 51, 90
2, 14457, Note_on_c, 9, 51, 0
2, 14496, Note_on_c, 9, 51, 110
2, 14505, Note_on_c, 9, 51, 0
2, 14544, Note_on_c, 9, 51, 90
2, 14553, Note_on_c, 9, 51, 0
2, 14592, Note_on_c, 9, 51, 110
2, 14592, Note_on_c, 9, 38, 100
2, 14601, Note_on_c, 9, 51, 0
2, 14601, Note_on_c, 9, 38, 0
2, 14640, Note_on_c, 9, 51, 90
2, 14649, Note_on_c, 9, 51, 0
2, 14688, Note_on_c, 9, 51, 110
2, 14697, Note_on_c, 9, 51, 0
2, 14736, Note_on_c, 9, 51, 90
2, 14745, Note_on_c, 9, 51, 0
2, 14784, Note_on_c, 9, 51, 110
2, 14784, Note_on_c, 9, 35, 120
2, 14793, Note_on_c, 9, 51, 0
2, 14793, Note_on_c, 9, 35, 0
2, 14832, Note_on_c, 9, 51, 90
2, 14841, Note_on_c, 9, 51, 0
2, 14880, Note_on_c, 9, 51, 110
2, 14889, Note_on_c, 9, 51, 0
2, 14928, Note_on_c, 9, 51, 90
2, 14937, Note_on_c, 9, 51, 0
2, 14976, Note_on_c, 9, 51, 110
2, 14976, Note_on_c, 9, 38, 100
2, 14985, Note_on_c, 9, 51, 0
2, 14985, Note_on_c, 9, 38, 0
2, 15024, Note_on_c, 9, 51, 90
2, 15033, Note_on_c, 9, 51, 0
2, 15072, Note_on_c, 9, 51, 110
2, 15081, Note_on_c, 9, 51, 0
2, 15120, Note_on_c, 9, 51, 90
2, 15129, Note_on_c, 9, 51, 0
2, 15168, Note_on_c, 9, 51, 110
2, 15168, Note_on_c, 9, 35, 120
2, 15177, Note_on_c, 9, 51, 0
2, 15177, Note_on_c, 9, 35, 0
2, 15216, Note_on_c, 9, 51, 90
2, 15225, Note_on_c, 9, 51, 0
2, 15264, Note_on_c, 9, 51, 110
2, 15264, Note_on_c, 9, 35, 120
2, 15273, Note_on_c, 9, 51, 0
2, 15273, Note_on_c, 9, 35, 0
2, 15312, Note_on_c, 9, 51, 90
2, 15321, Note_on_c, 9, 51, 0
2, 15360, Note_on_c, 9, 51, 110
2, 15360, Note_on_c, 9, 35, 120
2, 15369, Note_on_c, 9, 51, 0
2, 15369, Note_on_c, 9, 35, 0
2, 15408, Note_on_c, 9, 51, 90
2, 15408, Note_on_c, 9, 35, 120
2, 15417, Note_on_c, 9, 51, 0
2, 15417, Note_on_c, 9, 35, 0
2, 15456, Note_on_c, 9, 51, 110
2, 15456, Note_on_c, 9, 38, 100
2, 15465, Note_on_c, 9, 51, 0
2, 15465, Note_on_c, 9, 38, 0
2, 15504, Note_on_c, 9, 51, 90
2, 15513, Note_on_c, 9, 51, 0
2, 15552, Note_on_c, 9, 51, 110
2, 15561, Note_on_c, 9, 51, 0
2, 15600, Note_on_c, 9, 51, 90
2, 15600, Note_on_c, 9, 35, 120
2, 15609, Note_on_c, 9, 51, 0
2, 15609, Note_on_c, 9, 35, 0
2, 15648, Note_on_c, 9, 51, 110
2, 15648, Note_on_c, 9, 38, 100
2, 15657, Note_on_c, 9, 51, 0
2, 15657, Note_on_c, 9, 38, 0
2, 15696, Note_on_c, 9, 51, 90
2, 15705, Note_on_c, 9, 51, 0
2, 15744, Note_on_c, 9, 35, 120
2, 15744, Note_on_c, 9, 49, 100
2, 15753, Note_on_c, 9, 35, 0
2, 15753, Note_on_c, 9, 49, 0
2, 15792, Note_on_c, 9, 51, 90
2, 15801, Note_on_c, 9, 51, 0
2, 15840, Note_on_c, 9, 51, 110
2, 15849, Note_on_c, 9, 51, 0
2, 15888, Note_on_c, 9, 51, 90
2, 15897, Note_on_c, 9, 51, 0
2, 15936, Note_on_c, 9, 51, 110
2, 15936, Note_on_c, 9, 38, 100
2, 15945, Note_on_c, 9, 51, 0
2, 15945, Note_on_c, 9, 38, 0
2, 15984, Note_on_c, 9, 51, 90
2, 15993, Note_on_c, 9, 51, 0
2, 16032, Note_on_c, 9, 51, 110
2, 16041, Note_on_c, 9, 51, 0
2, 16080, Note_on_c, 9, 51, 90
2, 16080, Note_on_c, 9, 38, 100
2, 16089, Note_on_c, 9, 51, 0
2, 16089, Note_on_c, 9, 38, 0
2, 16128, Note_on_c, 9, 51, 110
2, 16128, Note_on_c, 9, 35, 120
2, 16137, Note_on_c, 9, 51, 0
2, 16137, Note_on_c, 9, 35, 0
2, 16176, Note_on_c, 9, 51, 90
2, 16185, Note_on_c, 9, 51, 0
2, 16224, Note_on_c, 9, 51, 110
2, 16233, Note_on_c, 9, 51, 0
2, 16272, Note_on_c, 9, 51, 90
2, 16272, Note_on_c, 9, 35, 120
2, 16281, Note_on_c, 9, 51, 0
2, 16281, Note_on_c, 9, 35, 0
2, 16320, Note_on_c, 9, 51, 110
2, 16320, Note_on_c, 9, 38, 100
2, 16329, Note_on_c, 9, 51, 0
2, 16329, Note_on_c, 9, 38, 0
2, 16368, Note_on_c, 9, 51, 90
2, 16377, Note_on_c, 9, 51, 0
2, 16416, Note_on_c, 9, 51, 110
2, 16425, Note_on_c, 9, 51, 0
2, 16464, Note_on_c, 9, 51, 90
2, 16473, Note_on_c, 9, 51, 0
2, 16512, Note_on_c, 9, 51, 110
2, 16512, Note_on_c, 9, 35, 120
2, 16521, Note_on_c, 9, 51, 0
2, 16521, Note_on_c, 9, 35, 0
2, 16560, Note_on_c, 9, 51, 90
2, 16569, Note_on_c, 9, 51, 0
2, 16608, Note_on_c, 9, 51, 110
2, 16617, Note_on_c, 9, 51, 0
2, 16656, Note_on_c, 9, 51, 90
2, 16665, Note_on_c, 9, 51, 0
2, 16704, Note_on_c, 9, 51, 110
2, 16704, Note_on_c, 9, 38, 100
2, 16713, Note_on_c, 9, 51, 0
2, 16713, Note_on_c, 9, 38, 0
2, 16752, Note_on_c, 9, 51, 90
2, 16761, Note_on_c, 9, 51, 0
2, 16800, Note_on_c, 9, 51, 110
2, 16809, Note_on_c, 9, 51, 0
2, 16848, Note_on_c, 9, 51, 90
2, 16857, Note_on_c, 9, 51, 0
2, 16896, Note_on_c, 9, 51, 110
2, 16896, Note_on_c, 9, 35, 120
2, 16905, Note_on_c, 9, 51, 0
2, 16905, Note_on_c, 9, 35, 0
2, 16944, Note_on_c, 9, 51, 90
2, 16953, Note_on_c, 9, 51, 0
2, 16992, Note_on_c, 9, 51, 110
2, 17001, Note_on_c, 9, 51, 0
2, 17040, Note_on_c, 9, 51, 90
2, 17049, Note_on_c, 9, 51, 0
2, 17088, Note_on_c, 9, 51, 110
2, 17088, Note_on_c, 9, 38, 100
2, 17097, Note_on_c, 9, 51, 0
2, 17097, Note_on_c, 9, 38, 0
2, 17136, Note_on_c, 9, 51, 90
2, 17145, Note_on_c, 9, 51, 0
2, 17184, Note_on_c, 9, 51, 110
2, 17193, Note_on_c, 9, 51, 0
2, 17232, Note_on_c, 9, 51, 90
2, 17241, Note_on_c, 9, 51, 0
2, 17280, Note_on_c, 9, 51, 110
2, 17280, Note_on_c, 9, 35, 120
2, 17289, Note_on_c, 9, 51, 0
2, 17289, Note_on_c, 9, 35, 0
2, 17328, Note_on_c, 9, 51, 90
2, 17337, Note_on_c, 9, 51, 0
2, 17376, Note_on_c, 9, 51, 110
2, 17385, Note_on_c, 9, 51, 0
2, 17424, Note_on_c, 9, 51, 90
2, 17433, Note_on_c, 9, 51, 0
2, 17472, Note_on_c, 9, 51, 110
2, 17472, Note_on_c, 9, 38, 100
2, 17481, Note_on_c, 9, 51, 0
2, 17481, Note_on_c, 9, 38, 0
2, 17520, Note_on_c, 9, 51, 90
2, 17529, Note_on_c, 9, 51, 0
2, 17568, Note_on_c, 9, 51, 110
2, 17577, Note_on_c, 9, 51, 0
2, 17616, Note_on_c, 9, 51, 90
2, 17625, Note_on_c, 9, 51, 0
2, 17664, Note_on_c, 9, 51, 110
2, 17664, Note_on_c, 9, 35, 120
2, 17673, Note_on_c, 9, 51, 0
2, 17673, Note_on_c, 9, 35, 0
2, 17712, Note_on_c, 9, 51, 90
2, 17712, Note_on_c, 9, 35, 120
2, 17721, Note_on_c, 9, 51, 0
2, 17721, Note_on_c, 9, 35, 0
2, 17760, Note_on_c, 9, 51, 110
2, 17769, Note_on_c, 9, 51, 0
2, 17808, Note_on_c, 9, 51, 90
2, 17808, Note_on_c, 9, 35, 120
2, 17817, Note_on_c, 9, 51, 0
2, 17817, Note_on_c, 9, 35, 0
2, 17856, Note_on_c, 9, 51, 110
2, 17856, Note_on_c, 9, 38, 100
2, 17865, Note_on_c, 9, 51, 0
2, 17865, Note_on_c, 9, 38, 0
2, 17904, Note_on_c, 9, 51, 90
2, 17913, Note_on_c, 9, 51, 0
2, 17952, Note_on_c, 9, 51, 110
2, 17961, Note_on_c, 9, 51, 0
2, 18000, Note_on_c, 9, 51, 90
2, 18000, Note_on_c, 9, 35, 120
2, 18009, Note_on_c, 9, 51, 0
2, 18009, Note_on_c, 9, 35, 0
2, 18048, Note_on_c, 9, 51, 110
2, 18048, Note_on_c, 9, 35, 120
2, 18057, Note_on_c, 9, 51, 0
2, 18057, Note_on_c, 9, 35, 0
2, 18096, Note_on_c, 9, 51, 90
2, 18105, Note_on_c, 9, 51, 0
2, 18144, Note_on_c, 9, 51, 110
2, 18153, Note_on_c, 9, 51, 0
2, 18192, Note_on_c, 9, 51, 90
2, 18201, Note_on_c, 9, 51, 0
2, 18240, Note_on_c, 9, 51, 110
2, 18240, Note_on_c, 9, 35, 120
2, 18240, Note_on_c, 9, 38, 100
2, 18249, Note_on_c, 9, 51, 0
2, 18249, Note_on_c, 9, 35, 0
2, 18249, Note_on_c, 9, 38, 0
2, 18288, Note_on_c, 9, 51, 90
2, 18297, Note_on_c, 9, 51, 0
2, 18336, Note_on_c, 9, 51, 110
2, 18345, Note_on_c, 9, 51, 0
2, 18384, Note_on_c, 9, 51, 90
2, 18393, Note_on_c, 9, 51, 0
2, 18432, Note_on_c, 9, 51, 110
2, 18432, Note_on_c, 9, 35, 120
2, 18441, Note_on_c, 9, 51, 0
2, 18441, Note_on_c, 9, 35, 0
2, 18480, Note_on_c, 9, 51, 90
2, 18489, Note_on_c, 9, 51, 0
2, 18528, Note_on_c, 9, 51, 110
2, 18537, Note_on_c, 9, 51, 0
2, 18576, Note_on_c, 9, 51, 90
2, 18585, Note_on_c, 9, 51, 0
2, 18624, Note_on_c, 9, 51, 110
2, 18624, Note_on_c, 9, 35, 120
2, 18624, Note_on_c, 9, 38, 100
2, 18633, Note_on_c, 9, 51, 0
2, 18633, Note_on_c, 9, 35, 0
2, 18633, Note_on_c, 9, 38, 0
2, 18672, Note_on_c, 9, 51, 90
2, 18681, Note_on_c, 9, 51, 0
2, 18720, Note_on_c, 9, 51, 110
2, 18729, Note_on_c, 9, 51, 0
2, 18768, Note_on_c, 9, 51, 90
2, 18777, Note_on_c, 9, 51, 0
2, 18816, Note_on_c, 9, 51, 110
2, 18816, Note_on_c, 9, 38, 100
2, 18816, Note_on_c, 9, 35, 120
2, 18825, Note_on_c, 9, 51, 0
2, 18825, Note_on_c, 9, 38, 0
2, 18825, Note_on_c, 9, 35, 0
2, 18880, Note_on_c, 9, 51, 110
2, 18880, Note_on_c, 9, 35, 120
2, 18880, Note_on_c, 9, 38, 100
2, 18889, Note_on_c, 9, 51, 0
2, 18889, Note_on_c, 9, 35, 0
2, 18889, Note_on_c, 9, 38, 0
2, 18944, Note_on_c, 9, 51, 110
2, 18944, Note_on_c, 9, 38, 100
2, 18944, Note_on_c, 9, 35, 120
2, 18953, Note_on_c, 9, 51, 0
2, 18953, Note_on_c, 9, 38, 0
2, 18953, Note_on_c, 9, 35, 0
2, 19008, Note_on_c, 9, 57, 100
2, 19008, Note_on_c, 9, 35, 120
2, 19017, Note_on_c, 9, 57, 0
2, 19017, Note_on_c, 9, 35, 0
2, 19104, Note_on_c, 9, 51, 110
2, 19113, Note_on_c, 9, 51, 0
2, 19200, Note_on_c, 9, 51, 110
2, 19200, Note_on_c, 9, 35, 120
2, 19200, Note_on_c, 9, 38, 100
2, 19209, Note_on_c, 9, 51, 0
2, 19209, Note_on_c, 9, 35, 0
2, 19209, Note_on_c, 9, 38, 0
2, 19248, Note_on_c, 9, 51, 90
2, 19257, Note_on_c, 9, 51, 0
2, 19296, Note_on_c, 9, 51, 110
2, 19305, Note_on_c, 9, 51, 0
2, 19392, Note_on_c, 9, 35, 120
2, 19392, Note_on_c, 9, 38, 100
2, 19400, Note_on_c, 9, 38, 85
2, 19401, Note_on_c, 9, 35, 0
2, 19401, Note_on_c, 9, 38, 0
2, 19408, Note_on_c, 9, 38, 85
2, 19409, Note_on_c, 9, 38, 0
2, 19417, Note_on_c, 9, 38, 0
2, 19440, Note_on_c, 9, 35, 120
2, 19449, Note_on_c, 9, 35, 0
2, 19776, Note_on_c, 9, 57, 100
2, 19776, Note_on_c, 9, 35, 120
2, 19785, Note_on_c, 9, 57, 0
2, 19785, Note_on_c, 9, 35, 0
2, 19872, Note_on_c, 9, 51, 110
2, 19881, Note_on_c, 9, 51, 0
2, 19920, Note_on_c, 9, 51, 90
2, 19929, Note_on_c, 9, 51, 0
2, 19968, Note_on_c, 9, 51, 110
2, 19968, Note_on_c, 9, 35, 120
2, 19968, Note_on_c, 9, 38, 100
2, 19977, Note_on_c, 9, 51, 0
2, 19977, Note_on_c, 9, 35, 0
2, 19977, Note_on_c, 9, 38, 0
2, 20064, Note_on_c, 9, 51, 110
2, 20073, Note_on_c, 9, 51, 0
2, 20160, Note_on_c, 9, 35, 120
2, 20160, Note_on_c, 9, 38, 100
2, 20168, Note_on_c, 9, 38, 85
2, 20169, Note_on_c, 9, 35, 0
2, 20169, Note_on_c, 9, 38, 0
2, 20176, Note_on_c, 9, 38, 85
2, 20177, Note_on_c, 9, 38, 0
2, 20185, Note_on_c, 9, 38, 0
2, 20208, Note_on_c, 9, 35, 120
2, 20217, Note_on_c, 9, 35, 0
2, 20544, Note_on_c, 9, 57, 100
2, 20544, Note_on_c, 9, 35, 120
2, 20553, Note_on_c, 9, 57, 0
2, 20553, Note_on_c, 9, 35, 0
2, 20640, Note_on_c, 9, 51, 110
2, 20649, Note_on_c, 9, 51, 0
2, 20688, Note_on_c, 9, 51, 90
2, 20697, Note_on_c, 9, 51, 0
2, 20736, Note_on_c, 9, 51, 110
2, 20736, Note_on_c, 9, 38, 100
2, 20736, Note_on_c, 9, 35, 120
2, 20745, Note_on_c, 9, 51, 0
2, 20745, Note_on_c, 9, 38, 0
2, 20745, Note_on_c, 9, 35, 0
2, 20784, Note_on_c, 9, 51, 90
2, 20793, Note_on_c, 9, 51, 0
2, 20832, Note_on_c, 9, 51, 110
2, 20841, Note_on_c, 9, 51, 0
2, 20880, Note_on_c, 9, 51, 90
2, 20889, Note_on_c, 9, 51, 0
2, 20928, Note_on_c, 9, 42, 110
2, 20937, Note_on_c, 9, 42, 0
2, 21024, Note_on_c, 9, 46, 105
2, 21033, Note_on_c, 9, 46, 0
2, 21312, Note_on_c, 9, 42, 105
2, 21312, Note_on_c, 9, 35, 120
2, 21321, Note_on_c, 9, 42, 0
2, 21321, Note_on_c, 9, 35, 0
2, 21360, Note_on_c, 9, 42, 90
2, 21369, Note_on_c, 9, 42, 0
2, 21408, Note_on_c, 9, 42, 90
2, 21417, Note_on_c, 9, 42, 0
2, 21456, Note_on_c, 9, 42, 105
2, 21456, Note_on_c, 9, 35, 120
2, 21456, Note_on_c, 9, 38, 100
2, 21465, Note_on_c, 9, 42, 0
2, 21465, Note_on_c, 9, 35, 0
2, 21465, Note_on_c, 9, 38, 0
2, 21504, Note_on_c, 9, 42, 90
2, 21513, Note_on_c, 9, 42, 0
2, 21552, Note_on_c, 9, 42, 90
2, 21561, Note_on_c, 9, 42, 0
2, 21600, Note_on_c, 9, 42, 105
2, 21600, Note_on_c, 9, 35, 120
2, 21609, Note_on_c, 9, 42, 0
2, 21609, Note_on_c, 9, 35, 0
2, 21648, Note_on_c, 9, 42, 90
2, 21657, Note_on_c, 9, 42, 0
2, 21696, Note_on_c, 9, 42, 90
2, 21705, Note_on_c, 9, 42, 0
2, 21744, Note_on_c, 9, 42, 105
2, 21744, Note_on_c, 9, 35, 120
2, 21744, Note_on_c, 9, 38, 100
2, 21753, Note_on_c, 9, 42, 0
2, 21753, Note_on_c, 9, 35, 0
2, 21753, Note_on_c, 9, 38, 0
2, 21792, Note_on_c, 9, 42, 90
2, 21801, Note_on_c, 9, 42, 0
2, 21840, Note_on_c, 9, 42, 90
2, 21849, Note_on_c, 9, 42, 0
2, 21888, Note_on_c, 9, 42, 105
2, 21888, Note_on_c, 9, 35, 120
2, 21897, Note_on_c, 9, 42, 0
2, 21897, Note_on_c, 9, 35, 0
2, 21936, Note_on_c, 9, 42, 90
2, 21945, Note_on_c, 9, 42, 0
2, 21984, Note_on_c, 9, 42, 90
2, 21993, Note_on_c, 9, 42, 0
2, 22032, Note_on_c, 9, 42, 105
2, 22032, Note_on_c, 9, 38, 100
2, 22041, Note_on_c, 9, 42, 0
2, 22041, Note_on_c, 9, 38, 0
2, 22080, Note_on_c, 9, 42, 90
2, 22080, Note_on_c, 9, 35, 120
2, 22089, Note_on_c, 9, 42, 0
2, 22089, Note_on_c, 9, 35, 0
2, 22128, Note_on_c, 9, 42, 90
2, 22128, Note_on_c, 9, 35, 120
2, 22137, Note_on_c, 9, 42, 0
2, 22137, Note_on_c, 9, 35, 0
2, 22176, Note_on_c, 9, 42, 105
2, 22176, Note_on_c, 9, 35, 120
2, 22185, Note_on_c, 9, 42, 0
2, 22185, Note_on_c, 9, 35, 0
2, 22224, Note_on_c, 9, 42, 90
2, 22233, Note_on_c, 9, 42, 0
2, 22272, Note_on_c, 9, 42, 90
2, 22281, Note_on_c, 9, 42, 0
2, 22320, Note_on_c, 9, 42, 105
2, 22320, Note_on_c, 9, 38, 100
2, 22329, Note_on_c, 9, 42, 0
2, 22329, Note_on_c, 9, 38, 0
2, 22368, Note_on_c, 9, 42, 90
2, 22377, Note_on_c, 9, 42, 0
2, 22416, Note_on_c, 9, 42, 90
2, 22425, Note_on_c, 9, 42, 0
2, 22464, Note_on_c, 9, 42, 105
2, 22464, Note_on_c, 9, 35, 120
2, 22473, Note_on_c, 9, 42, 0
2, 22473, Note_on_c, 9, 35, 0
2, 22512, Note_on_c, 9, 42, 90
2, 22521, Note_on_c, 9, 42, 0
2, 22560, Note_on_c, 9, 42, 90
2, 22569, Note_on_c, 9, 42, 0
2, 22608, Note_on_c, 9, 42, 105
2, 22608, Note_on_c, 9, 38, 100
2, 22617, Note_on_c, 9, 42, 0
2, 22617, Note_on_c, 9, 38, 0
2, 22656, Note_on_c, 9, 42, 90
2, 22665, Note_on_c, 9, 42, 0
2, 22704, Note_on_c, 9, 42, 90
2, 22713, Note_on_c, 9, 42, 0
2, 22752, Note_on_c, 9, 42, 105
2, 22752, Note_on_c, 9, 35, 120
2, 22761, Note_on_c, 9, 42, 0
2, 22761, Note_on_c, 9, 35, 0
2, 22800, Note_on_c, 9, 42, 90
2, 22809, Note_on_c, 9, 42, 0
2, 22848, Note_on_c, 9, 42, 90
2, 22857, Note_on_c, 9, 42, 0
2, 22896, Note_on_c, 9, 42, 105
2, 22896, Note_on_c, 9, 38, 100
2, 22896, Note_on_c, 9, 35, 120
2, 22905, Note_on_c, 9, 42, 0
2, 22905, Note_on_c, 9, 38, 0
2, 22905, Note_on_c, 9, 35, 0
2, 22944, Note_on_c, 9, 42, 90
2, 22953, Note_on_c, 9, 42, 0
2, 22992, Note_on_c, 9, 42, 90
2, 23001, Note_on_c, 9, 42, 0
2, 23040, Note_on_c, 9, 42, 105
2, 23040, Note_on_c, 9, 35, 120
2, 23049, Note_on_c, 9, 42, 0
2, 23049, Note_on_c, 9, 35, 0
2, 23088, Note_on_c, 9, 42, 90
2, 23097, Note_on_c, 9, 42, 0
2, 23136, Note_on_c, 9, 42, 90
2, 23145, Note_on_c, 9, 42, 0
2, 23184, Note_on_c, 9, 42, 105
2, 23184, Note_on_c, 9, 38, 100
2, 23184, Note_on_c, 9, 35, 120
2, 23193, Note_on_c, 9, 42, 0
2, 23193, Note_on_c, 9, 38, 0
2, 23193, Note_on_c, 9, 35, 0
2, 23232, Note_on_c, 9, 42, 90
2, 23241, Note_on_c, 9, 42, 0
2, 23280, Note_on_c, 9, 42, 90
2, 23289, Note_on_c, 9, 42, 0
2, 23328, Note_on_c, 9, 42, 105
2, 23328, Note_on_c, 9, 35, 120
2, 23337, Note_on_c, 9, 42, 0
2, 23337, Note_on_c, 9, 35, 0
2, 23376, Note_on_c, 9, 42, 90
2, 23385, Note_on_c, 9, 42, 0
2, 23424, Note_on_c, 9, 42, 90
2, 23433, Note_on_c, 9, 42, 0
2, 23472, Note_on_c, 9, 42, 105
2, 23472, Note_on_c, 9, 38, 100
2, 23481, Note_on_c, 9, 42, 0
2, 23481, Note_on_c, 9, 38, 0
2, 23520, Note_on_c, 9, 42, 90
2, 23520, Note_on_c, 9, 35, 120
2, 23529, Note_on_c, 9, 42, 0
2, 23529, Note_on_c, 9, 35, 0
2, 23568, Note_on_c, 9, 42, 90
2, 23568, Note_on_c, 9, 35, 120
2, 23577, Note_on_c, 9, 42, 0
2, 23577, Note_on_c, 9, 35, 0
2, 23616, Note_on_c, 9, 42, 105
2, 23616, Note_on_c, 9, 35, 120
2, 23625, Note_on_c, 9, 42, 0
2, 23625, Note_on_c, 9, 35, 0
2, 23664, Note_on_c, 9, 42, 90
2, 23673, Note_on_c, 9, 42, 0
2, 23712, Note_on_c, 9, 42, 90
2, 23721, Note_on_c, 9, 42, 0
2, 23760, Note_on_c, 9, 42, 105
2, 23760, Note_on_c, 9, 38, 100
2, 23769, Note_on_c, 9, 42, 0
2, 23769, Note_on_c, 9, 38, 0
2, 23808, Note_on_c, 9, 42, 90
2, 23817, Note_on_c, 9, 42, 0
2, 23856, Note_on_c, 9, 42, 90
2, 23865, Note_on_c, 9, 42, 0
2, 23904, Note_on_c, 9, 42, 105
2, 23904, Note_on_c, 9, 35, 120
2, 23913, Note_on_c, 9, 42, 0
2, 23913, Note_on_c, 9, 35, 0
2, 23952, Note_on_c, 9, 42, 90
2, 23961, Note_on_c, 9, 42, 0
2, 24000, Note_on_c, 9, 42, 90
2, 24009, Note_on_c, 9, 42, 0
2, 24048, Note_on_c, 9, 38, 100
2, 24048, Note_on_c, 9, 35, 120
2, 24057, Note_on_c, 9, 38, 0
2, 24057, Note_on_c, 9, 35, 0
2, 24480, Note_on_c, 9, 53, 105
2, 24480, Note_on_c, 9, 35, 120
2, 24489, Note_on_c, 9, 53, 0
2, 24489, Note_on_c, 9, 35, 0
2, 24528, Note_on_c, 9, 53, 90
2, 24537, Note_on_c, 9, 53, 0
2, 24576, Note_on_c, 9, 53, 105
2, 24576, Note_on_c, 9, 48, 110
2, 24585, Note_on_c, 9, 53, 0
2, 24585, Note_on_c, 9, 48, 0
2, 24624, Note_on_c, 9, 53, 90
2, 24624, Note_on_c, 9, 48, 110
2, 24633, Note_on_c, 9, 53, 0
2, 24633, Note_on_c, 9, 48, 0
2, 24672, Note_on_c, 9, 53, 105
2, 24681, Note_on_c, 9, 53, 0
2, 24720, Note_on_c, 9, 53, 90
2, 24729, Note_on_c, 9, 53, 0
2, 24768, Note_on_c, 9, 53, 105
2, 24768, Note_on_c, 9, 38, 100
2, 24777, Note_on_c, 9, 53, 0
2, 24777, Note_on_c, 9, 38, 0
2, 24816, Note_on_c, 9, 53, 90
2, 24816, Note_on_c, 9, 35, 120
2, 24825, Note_on_c, 9, 53, 0
2, 24825, Note_on_c, 9, 35, 0
2, 24864, Note_on_c, 9, 53, 105
2, 24864, Note_on_c, 9, 35, 120
2, 24873, Note_on_c, 9, 53, 0
2, 24873, Note_on_c, 9, 35, 0
2, 24912, Note_on_c, 9, 53, 90
2, 24921, Note_on_c, 9, 53, 0
2, 24960, Note_on_c, 9, 53, 105
2, 24960, Note_on_c, 9, 48, 110
2, 24969, Note_on_c, 9, 53, 0
2, 24969, Note_on_c, 9, 48, 0
2, 25008, Note_on_c, 9, 53, 90
2, 25008, Note_on_c, 9, 48, 110
2, 25017, Note_on_c, 9, 53, 0
2, 25017, Note_on_c, 9, 48, 0
2, 25032, Note_on_c, 9, 53, 90
2, 25041, Note_on_c, 9, 53, 0
2, 25056, Note_on_c, 9, 53, 105
2, 25065, Note_on_c, 9, 53, 0
2, 25104, Note_on_c, 9, 53, 90
2, 25113, Note_on_c, 9, 53, 0
2, 25152, Note_on_c, 9, 53, 105
2, 25152, Note_on_c, 9, 38, 100
2, 25161, Note_on_c, 9, 53, 0
2, 25161, Note_on_c, 9, 38, 0
2, 25200, Note_on_c, 9, 53, 90
2, 25200, Note_on_c, 9, 35, 120
2, 25209, Note_on_c, 9, 53, 0
2, 25209, Note_on_c, 9, 35, 0
2, 25248, Note_on_c, 9, 53, 105
2, 25248, Note_on_c, 9, 35, 120
2, 25257, Note_on_c, 9, 53, 0
2, 25257, Note_on_c, 9, 35, 0
2, 25296, Note_on_c, 9, 53, 90
2, 25305, Note_on_c, 9, 53, 0
2, 25344, Note_on_c, 9, 53, 105
2, 25344, Note_on_c, 9, 48, 110
2, 25353, Note_on_c, 9, 53, 0
2, 25353, Note_on_c, 9, 48, 0
2, 25392, Note_on_c, 9, 53, 90
2, 25392, Note_on_c, 9, 48, 110
2, 25401, Note_on_c, 9, 53, 0
2, 25401, Note_on_c, 9, 48, 0
2, 25440, Note_on_c, 9, 53, 105
2, 25449, Note_on_c, 9, 53, 0
2, 25488, Note_on_c, 9, 53, 90
2, 25497, Note_on_c, 9, 53, 0
2, 25536, Note_on_c, 9, 53, 105
2, 25536, Note_on_c, 9, 38, 100
2, 25545, Note_on_c, 9, 53, 0
2, 25545, Note_on_c, 9, 38, 0
2, 25584, Note_on_c, 9, 53, 90
2, 25584, Note_on_c, 9, 35, 120
2, 25593, Note_on_c, 9, 53, 0
2, 25593, Note_on_c, 9, 35, 0
2, 25632, Note_on_c, 9, 53, 105
2, 25632, Note_on_c, 9, 35, 120
2, 25641, Note_on_c, 9, 53, 0
2, 25641, Note_on_c, 9, 35, 0
2, 25680, Note_on_c, 9, 53, 90
2, 25689, Note_on_c, 9, 53, 0
2, 25728, Note_on_c, 9, 53, 105
2, 25728, Note_on_c, 9, 48, 110
2, 25737, Note_on_c, 9, 53, 0
2, 25737, Note_on_c, 9, 48, 0
2, 25776, Note_on_c, 9, 53, 90
2, 25776, Note_on_c, 9, 48, 110
2, 25785, Note_on_c, 9, 53, 0
2, 25785, Note_on_c, 9, 48, 0
2, 25800, Note_on_c, 9, 53, 90
2, 25809, Note_on_c, 9, 53, 0
2, 25824, Note_on_c, 9, 53, 105
2, 25833, Note_on_c, 9, 53, 0
2, 25872, Note_on_c, 9, 53, 90
2, 25881, Note_on_c, 9, 53, 0
2, 25920, Note_on_c, 9, 53, 105
2, 25920, Note_on_c, 9, 38, 100
2, 25929, Note_on_c, 9, 53, 0
2, 25929, Note_on_c, 9, 38, 0
2, 25968, Note_on_c, 9, 53, 90
2, 25968, Note_on_c, 9, 35, 120
2, 25977, Note_on_c, 9, 53, 0
2, 25977, Note_on_c, 9, 35, 0
2, 26016, Note_on_c, 9, 49, 100
2, 26016, Note_on_c, 9, 35, 120
2, 26025, Note_on_c, 9, 49, 0
2, 26025, Note_on_c, 9, 35, 0
2, 26064, Note_on_c, 9, 53, 90
2, 26073, Note_on_c, 9, 53, 0
2, 26112, Note_on_c, 9, 53, 105
2, 26112, Note_on_c, 9, 48, 110
2, 26121, Note_on_c, 9, 53, 0
2, 26121, Note_on_c, 9, 48, 0
2, 26160, Note_on_c, 9, 53, 90
2, 26160, Note_on_c, 9, 48, 110
2, 26169, Note_on_c, 9, 53, 0
2, 26169, Note_on_c, 9, 48, 0
2, 26208, Note_on_c, 9, 53, 105
2, 26217, Note_on_c, 9, 53, 0
2, 26256, Note_on_c, 9, 53, 90
2, 26265, Note_on_c, 9, 53, 0
2, 26304, Note_on_c, 9, 53, 105
2, 26304, Note_on_c, 9, 38, 100
2, 26313, Note_on_c, 9, 53, 0
2, 26313, Note_on_c, 9, 38, 0
2, 26352, Note_on_c, 9, 53, 90
2, 26352, Note_on_c, 9, 35, 120
2, 26361, Note_on_c, 9, 53, 0
2, 26361, Note_on_c, 9, 35, 0
2, 26400, Note_on_c, 9, 53, 105
2, 26400, Note_on_c, 9, 35, 120
2, 26409, Note_on_c, 9, 53, 0
2, 26409, Note_on_c, 9, 35, 0
2, 26448, Note_on_c, 9, 53, 90
2, 26457, Note_on_c, 9, 53, 0
2, 26496, Note_on_c, 9, 53, 105
2, 26496, Note_on_c, 9, 48, 110
2, 26505, Note_on_c, 9, 53, 0
2, 26505, Note_on_c, 9, 48, 0
2, 26544, Note_on_c, 9, 53, 90
2, 26544, Note_on_c, 9, 48, 110
2, 26553, Note_on_c, 9, 53, 0
2, 26553, Note_on_c, 9, 48, 0
2, 26568, Note_on_c, 9, 53, 90
2, 26577, Note_on_c, 9, 53, 0
2, 26592, Note_on_c, 9, 53, 105
2, 26601, Note_on_c, 9, 53, 0
2, 26640, Note_on_c, 9, 53, 90
2, 26649, Note_on_c, 9, 53, 0
2, 26688, Note_on_c, 9, 53, 105
2, 26688, Note_on_c, 9, 38, 100
2, 26697, Note_on_c, 9, 53, 0
2, 26697, Note_on_c, 9, 38, 0
2, 26736, Note_on_c, 9, 53, 90
2, 26736, Note_on_c, 9, 35, 120
2, 26745, Note_on_c, 9, 53, 0
2, 26745, Note_on_c, 9, 35, 0
2, 26784, Note_on_c, 9, 53, 105
2, 26784, Note_on_c, 9, 35, 120
2, 26793, Note_on_c, 9, 53, 0
2, 26793, Note_on_c, 9, 35, 0
2, 26832, Note_on_c, 9, 53, 90
2, 26841, Note_on_c, 9, 53, 0
2, 26880, Note_on_c, 9, 53, 105
2, 26880, Note_on_c, 9, 48, 110
2, 26889, Note_on_c, 9, 53, 0
2, 26889, Note_on_c, 9, 48, 0
2, 26928, Note_on_c, 9, 53, 90
2, 26928, Note_on_c, 9, 48, 110
2, 26937, Note_on_c, 9, 53, 0
2, 26937, Note_on_c, 9, 48, 0
2, 26976, Note_on_c, 9, 53, 105
2, 26985, Note_on_c, 9, 53, 0
2, 27024, Note_on_c, 9, 53, 90
2, 27033, Note_on_c, 9, 53, 0
2, 27072, Note_on_c, 9, 53, 105
2, 27072, Note_on_c, 9, 38, 100
2, 27081, Note_on_c, 9, 53, 0
2, 27081, Note_on_c, 9, 38, 0
2, 27120, Note_on_c, 9, 53, 90
2, 27120, Note_on_c, 9, 35, 120
2, 27129, Note_on_c, 9, 53, 0
2, 27129, Note_on_c, 9, 35, 0
2, 27168, Note_on_c, 9, 53, 105
2, 27168, Note_on_c, 9, 35, 120
2, 27177, Note_on_c, 9, 53, 0
2, 27177, Note_on_c, 9, 35, 0
2, 27216, Note_on_c, 9, 53, 90
2, 27225, Note_on_c, 9, 53, 0
2, 27264, Note_on_c, 9, 53, 105
2, 27264, Note_on_c, 9, 48, 110
2, 27273, Note_on_c, 9, 53, 0
2, 27273, Note_on_c, 9, 48, 0
2, 27312, Note_on_c, 9, 53, 90
2, 27312, Note_on_c, 9, 48, 110
2, 27321, Note_on_c, 9, 53, 0
2, 27321, Note_on_c, 9, 48, 0
2, 27360, Note_on_c, 9, 53, 105
2, 27369, Note_on_c, 9, 53, 0
2, 27408, Note_on_c, 9, 53, 90
2, 27417, Note_on_c, 9, 53, 0
2, 27456, Note_on_c, 9, 53, 105
2, 27456, Note_on_c, 9, 38, 100
2, 27465, Note_on_c, 9, 53, 0
2, 27465, Note_on_c, 9, 38, 0
2, 27504, Note_on_c, 9, 53, 90
2, 27504, Note_on_c, 9, 35, 120
2, 27513, Note_on_c, 9, 53, 0
2, 27513, Note_on_c, 9, 35, 0
2, 27552, Note_on_c, 9, 53, 105
2, 27552, Note_on_c, 9, 35, 120
2, 27561, Note_on_c, 9, 53, 0
2, 27561, Note_on_c, 9, 35, 0
2, 27600, Note_on_c, 9, 53, 90
2, 27609, Note_on_c, 9, 53, 0
2, 27648, Note_on_c, 9, 53, 105
2, 27648, Note_on_c, 9, 48, 110
2, 27657, Note_on_c, 9, 53, 0
2, 27657, Note_on_c, 9, 48, 0
2, 27696, Note_on_c, 9, 53, 90
2, 27696, Note_on_c, 9, 48, 110
2, 27705, Note_on_c, 9, 53, 0
2, 27705, Note_on_c, 9, 48, 0
2, 27744, Note_on_c, 9, 53, 105
2, 27753, Note_on_c, 9, 53, 0
2, 27792, Note_on_c, 9, 53, 90
2, 27801, Note_on_c, 9, 53, 0
2, 27840, Note_on_c, 9, 53, 105
2, 27840, Note_on_c, 9, 38, 100
2, 27849, Note_on_c, 9, 53, 0
2, 27849, Note_on_c, 9, 38, 0
2, 27888, Note_on_c, 9, 53, 90
2, 27897, Note_on_c, 9, 53, 0
2, 27936, Note_on_c, 9, 53, 105
2, 27945, Note_on_c, 9, 53, 0
2, 27984, Note_on_c, 9, 53, 90
2, 27993, Note_on_c, 9, 53, 0
2, 28032, Note_on_c, 9, 53, 105
2, 28032, Note_on_c, 9, 48, 110
2, 28041, Note_on_c, 9, 53, 0
2, 28041, Note_on_c, 9, 48, 0
2, 28080, Note_on_c, 9, 53, 90
2, 28080, Note_on_c, 9, 48, 110
2, 28089, Note_on_c, 9, 53, 0
2, 28089, Note_on_c, 9, 48, 0
2, 28128, Note_on_c, 9, 53, 105
2, 28137, Note_on_c, 9, 53, 0
2, 28176, Note_on_c, 9, 53, 90
2, 28185, Note_on_c, 9, 53, 0
2, 28224, Note_on_c, 9, 53, 105
2, 28224, Note_on_c, 9, 38, 100
2, 28224, Note_on_c, 9, 35, 120
2, 28233, Note_on_c, 9, 53, 0
2, 28233, Note_on_c, 9, 38, 0
2, 28233, Note_on_c, 9, 35, 0
2, 28272, Note_on_c, 9, 53, 90
2, 28281, Note_on_c, 9, 53, 0
2, 28320, Note_on_c, 9, 48, 110
2, 28329, Note_on_c, 9, 48, 0
2, 28344, Note_on_c, 9, 48, 110
2, 28353, Note_on_c, 9, 48, 0
2, 28368, Note_on_c, 9, 48, 110
2, 28377, Note_on_c, 9, 48, 0
2, 28416, Note_on_c, 9, 45, 110
2, 28425, Note_on_c, 9, 45, 0
2, 28464, Note_on_c, 9, 45, 110
2, 28473, Note_on_c, 9, 45, 0
2, 28512, Note_on_c, 9, 35, 120
2, 28512, Note_on_c, 9, 57, 100
2, 28521, Note_on_c, 9, 35, 0
2, 28521, Note_on_c, 9, 57, 0
2, 28560, Note_on_c, 9, 53, 90
2, 28569, Note_on_c, 9, 53, 0
2, 28608, Note_on_c, 9, 53, 105
2, 28608, Note_on_c, 9, 48, 110
2, 28617, Note_on_c, 9, 53, 0
2, 28617, Note_on_c, 9, 48, 0
2, 28656, Note_on_c, 9, 53, 90
2, 28656, Note_on_c, 9, 48, 110
2, 28665, Note_on_c, 9, 53, 0
2, 28665, Note_on_c, 9, 48, 0
2, 28704, Note_on_c, 9, 53, 105
2, 28713, Note_on_c, 9, 53, 0
2, 28752, Note_on_c, 9, 53, 90
2, 28761, Note_on_c, 9, 53, 0
2, 28800, Note_on_c, 9, 53, 105
2, 28800, Note_on_c, 9, 38, 100
2, 28809, Note_on_c, 9, 53, 0
2, 28809, Note_on_c, 9, 38, 0
2, 28848, Note_on_c, 9, 53, 90
2, 28848, Note_on_c, 9, 35, 120
2, 28857, Note_on_c, 9, 53, 0
2, 28857, Note_on_c, 9, 35, 0
2, 28896, Note_on_c, 9, 53, 105
2, 28896, Note_on_c, 9, 35, 120
2, 28905, Note_on_c, 9, 53, 0
2, 28905, Note_on_c, 9, 35, 0
2, 28944, Note_on_c, 9, 53, 90
2, 28953, Note_on_c, 9, 53, 0
2, 28992, Note_on_c, 9, 53, 105
2, 28992, Note_on_c, 9, 48, 110
2, 29001, Note_on_c, 9, 53, 0
2, 29001, Note_on_c, 9, 48, 0
2, 29040, Note_on_c, 9, 53, 90
2, 29040, Note_on_c, 9, 48, 110
2, 29049, Note_on_c, 9, 53, 0
2, 29049, Note_on_c, 9, 48, 0
2, 29064, Note_on_c, 9, 53, 90
2, 29073, Note_on_c, 9, 53, 0
2, 29088, Note_on_c, 9, 53, 105
2, 29097, Note_on_c, 9, 53, 0
2, 29136, Note_on_c, 9, 53, 90
2, 29145, Note_on_c, 9, 53, 0
2, 29184, Note_on_c, 9, 53, 105
2, 29184, Note_on_c, 9, 38, 100
2, 29193, Note_on_c, 9, 53, 0
2, 29193, Note_on_c, 9, 38, 0
2, 29232, Note_on_c, 9, 53, 90
2, 29232, Note_on_c, 9, 35, 120
2, 29241, Note_on_c, 9, 53, 0
2, 29241, Note_on_c, 9, 35, 0
2, 29280, Note_on_c, 9, 53, 105
2, 29280, Note_on_c, 9, 35, 120
2, 29289, Note_on_c, 9, 53, 0
2, 29289, Note_on_c, 9, 35, 0
2, 29328, Note_on_c, 9, 53, 90
2, 29337, Note_on_c, 9, 53, 0
2, 29376, Note_on_c, 9, 53, 105
2, 29376, Note_on_c, 9, 48, 110
2, 29385, Note_on_c, 9, 53, 0
2, 29385, Note_on_c, 9, 48, 0
2, 29424, Note_on_c, 9, 53, 90
2, 29424, Note_on_c, 9, 48, 110
2, 29433, Note_on_c, 9, 53, 0
2, 29433, Note_on_c, 9, 48, 0
2, 29472, Note_on_c, 9, 53, 105
2, 29481, Note_on_c, 9, 53, 0
2, 29520, Note_on_c, 9, 53, 90
2, 29529, Note_on_c, 9, 53, 0
2, 29568, Note_on_c, 9, 53, 105
2, 29568, Note_on_c, 9, 38, 100
2, 29577, Note_on_c, 9, 53, 0
2, 29577, Note_on_c, 9, 38, 0
2, 29616, Note_on_c, 9, 53, 90
2, 29616, Note_on_c, 9, 35, 120
2, 29625, Note_on_c, 9, 53, 0
2, 29625, Note_on_c, 9, 35, 0
2, 29664, Note_on_c, 9, 53, 105
2, 29664, Note_on_c, 9, 35, 120
2, 29673, Note_on_c, 9, 53, 0
2, 29673, Note_on_c, 9, 35, 0
2, 29712, Note_on_c, 9, 53, 90
2, 29721, Note_on_c, 9, 53, 0
2, 29760, Note_on_c, 9, 53, 105
2, 29760, Note_on_c, 9, 48, 110
2, 29769, Note_on_c, 9, 53, 0
2, 29769, Note_on_c, 9, 48, 0
2, 29808, Note_on_c, 9, 53, 90
2, 29808, Note_on_c, 9, 48, 110
2, 29817, Note_on_c, 9, 53, 0
2, 29817, Note_on_c, 9, 48, 0
2, 29832, Note_on_c, 9, 53, 90
2, 29841, Note_on_c, 9, 53, 0
2, 29856, Note_on_c, 9, 53, 105
2, 29865, Note_on_c, 9, 53, 0
2, 29904, Note_on_c, 9, 53, 90
2, 29913, Note_on_c, 9, 53, 0
2, 29952, Note_on_c, 9, 53, 105
2, 29952, Note_on_c, 9, 38, 100
2, 29961, Note_on_c, 9, 53, 0
2, 29961, Note_on_c, 9, 38, 0
2, 30000, Note_on_c, 9, 53, 90
2, 30000, Note_on_c, 9, 35, 120
2, 30009, Note_on_c, 9, 53, 0
2, 30009, Note_on_c, 9, 35, 0
2, 30048, Note_on_c, 9, 53, 105
2, 30048, Note_on_c, 9, 35, 120
2, 30057, Note_on_c, 9, 53, 0
2, 30057, Note_on_c, 9, 35, 0
2, 30096, Note_on_c, 9, 53, 90
2, 30105, Note_on_c, 9, 53, 0
2, 30144, Note_on_c, 9, 53, 105
2, 30144, Note_on_c, 9, 48, 110
2, 30153, Note_on_c, 9, 53, 0
2, 30153, Note_on_c, 9, 48, 0
2, 30192, Note_on_c, 9, 53, 90
2, 30192, Note_on_c, 9, 48, 110
2, 30201, Note_on_c, 9, 53, 0
2, 30201, Note_on_c, 9, 48, 0
2, 30240, Note_on_c, 9, 53, 105
2, 30249, Note_on_c, 9, 53, 0
2, 30288, Note_on_c, 9, 53, 90
2, 30297, Note_on_c, 9, 53, 0
2, 30336, Note_on_c, 9, 53, 105
2, 30336, Note_on_c, 9, 38, 100
2, 30345, Note_on_c, 9, 53, 0
2, 30345, Note_on_c, 9, 38, 0
2, 30384, Note_on_c, 9, 53, 90
2, 30384, Note_on_c, 9, 35, 120
2, 30393, Note_on_c, 9, 53, 0
2, 30393, Note_on_c, 9, 35, 0
2, 30432, Note_on_c, 9, 53, 105
2, 30432, Note_on_c, 9, 35, 120
2, 30441, Note_on_c, 9, 53, 0
2, 30441, Note_on_c, 9, 35, 0
2, 30480, Note_on_c, 9, 53, 90
2, 30489, Note_on_c, 9, 53, 0
2, 30528, Note_on_c, 9, 53, 105
2, 30528, Note_on_c, 9, 48, 110
2, 30537, Note_on_c, 9, 53, 0
2, 30537, Note_on_c, 9, 48, 0
2, 30576, Note_on_c, 9, 53, 90
2, 30576, Note_on_c, 9, 48, 110
2, 30585, Note_on_c, 9, 53, 0
2, 30585, Note_on_c, 9, 48, 0
2, 30600, Note_on_c, 9, 53, 90
2, 30609, Note_on_c, 9, 53, 0
2, 30624, Note_on_c, 9, 53, 105
2, 30633, Note_on_c, 9, 53, 0
2, 30672, Note_on_c, 9, 53, 90
2, 30681, Note_on_c, 9, 53, 0
2, 30720, Note_on_c, 9, 53, 105
2, 30720, Note_on_c, 9, 38, 100
2, 30729, Note_on_c, 9, 53, 0
2, 30729, Note_on_c, 9, 38, 0
2, 30768, Note_on_c, 9, 53, 90
2, 30768, Note_on_c, 9, 35, 120
2, 30777, Note_on_c, 9, 53, 0
2, 30777, Note_on_c, 9, 35, 0
2, 30816, Note_on_c, 9, 53, 105
2, 30816, Note_on_c, 9, 35, 120
2, 30825, Note_on_c, 9, 53, 0
2, 30825, Note_on_c, 9, 35, 0
2, 30864, Note_on_c, 9, 53, 90
2, 30873, Note_on_c, 9, 53, 0
2, 30912, Note_on_c, 9, 53, 105
2, 30912, Note_on_c, 9, 48, 110
2, 30921, Note_on_c, 9, 53, 0
2, 30921, Note_on_c, 9, 48, 0
2, 30960, Note_on_c, 9, 53, 90
2, 30960, Note_on_c, 9, 48, 110
2, 30969, Note_on_c, 9, 53, 0
2, 30969, Note_on_c, 9, 48, 0
2, 31008, Note_on_c, 9, 53, 105
2, 31017, Note_on_c, 9, 53, 0
2, 31056, Note_on_c, 9, 53, 90
2, 31065, Note_on_c, 9, 53, 0
2, 31104, Note_on_c, 9, 53, 105
2, 31104, Note_on_c, 9, 38, 100
2, 31113, Note_on_c, 9, 53, 0
2, 31113, Note_on_c, 9, 38, 0
2, 31152, Note_on_c, 9, 53, 90
2, 31152, Note_on_c, 9, 35, 120
2, 31161, Note_on_c, 9, 53, 0
2, 31161, Note_on_c, 9, 35, 0
2, 31200, Note_on_c, 9, 53, 105
2, 31200, Note_on_c, 9, 35, 120
2, 31209, Note_on_c, 9, 53, 0
2, 31209, Note_on_c, 9, 35, 0
2, 31248, Note_on_c, 9, 53, 90
2, 31257, Note_on_c, 9, 53, 0
2, 31296, Note_on_c, 9, 53, 105
2, 31296, Note_on_c, 9, 48, 110
2, 31305, Note_on_c, 9, 53, 0
2, 31305, Note_on_c, 9, 48, 0
2, 31344, Note_on_c, 9, 53, 90
2, 31344, Note_on_c, 9, 48, 110
2, 31353, Note_on_c, 9, 53, 0
2, 31353, Note_on_c, 9, 48, 0
2, 31392, Note_on_c, 9, 53, 105
2, 31401, Note_on_c, 9, 53, 0
2, 31440, Note_on_c, 9, 53, 90
2, 31449, Note_on_c, 9, 53, 0
2, 31488, Note_on_c, 9, 53, 105
2, 31488, Note_on_c, 9, 38, 100
2, 31497, Note_on_c, 9, 53, 0
2, 31497, Note_on_c, 9, 38, 0
2, 31536, Note_on_c, 9, 53, 90
2, 31536, Note_on_c, 9, 35, 120
2, 31545, Note_on_c, 9, 53, 0
2, 31545, Note_on_c, 9, 35, 0
2, 31584, Note_on_c, 9, 53, 105
2, 31584, Note_on_c, 9, 35, 120
2, 31584, Note_on_c, 9, 38, 100
2, 31593, Note_on_c, 9, 53, 0
2, 31593, Note_on_c, 9, 35, 0
2, 31593, Note_on_c, 9, 38, 0
2, 31648, Note_on_c, 9, 53, 105
2, 31648, Note_on_c, 9, 35, 120
2, 31648, Note_on_c, 9, 38, 100
2, 31657, Note_on_c, 9, 53, 0
2, 31657, Note_on_c, 9, 35, 0
2, 31657, Note_on_c, 9, 38, 0
2, 31712, Note_on_c, 9, 53, 105
2, 31712, Note_on_c, 9, 38, 100
2, 31712, Note_on_c, 9, 35, 120
2, 31721, Note_on_c, 9, 53, 0
2, 31721, Note_on_c, 9, 38, 0
2, 31721, Note_on_c, 9, 35, 0
2, 31776, Note_on_c, 9, 57, 100
2, 31776, Note_on_c, 9, 35, 120
2, 31785, Note_on_c, 9, 57, 0
2, 31785, Note_on_c, 9, 35, 0
2, 31872, Note_on_c, 9, 51, 110
2, 31872, Note_on_c, 9, 38, 100
2, 31881, Note_on_c, 9, 51, 0
2, 31881, Note_on_c, 9, 38, 0
2, 31968, Note_on_c, 9, 51, 110
2, 31968, Note_on_c, 9, 35, 120
2, 31977, Note_on_c, 9, 51, 0
2, 31977, Note_on_c, 9, 35, 0
2, 32064, Note_on_c, 9, 51, 110
2, 32064, Note_on_c, 9, 38, 100
2, 32073, Note_on_c, 9, 51, 0
2, 32073, Note_on_c, 9, 38, 0
2, 32160, Note_on_c, 9, 38, 100
2, 32160, Note_on_c, 9, 35, 120
2, 32168, Note_on_c, 9, 38, 87
2, 32169, Note_on_c, 9, 38, 0
2, 32169, Note_on_c, 9, 35, 0
2, 32176, Note_on_c, 9, 38, 87
2, 32177, Note_on_c, 9, 38, 0
2, 32185, Note_on_c, 9, 38, 0
2, 32208, Note_on_c, 9, 35, 120
2, 32217, Note_on_c, 9, 35, 0
2, 32544, Note_on_c, 9, 51, 110
2, 32544, Note_on_c, 9, 35, 120
2, 32553, Note_on_c, 9, 51, 0
2, 32553, Note_on_c, 9, 35, 0
2, 32640, Note_on_c, 9, 51, 110
2, 32649, Note_on_c, 9, 51, 0
2, 32688, Note_on_c, 9, 51, 90
2, 32697, Note_on_c, 9, 51, 0
2, 32736, Note_on_c, 9, 51, 110
2, 32736, Note_on_c, 9, 35, 120
2, 32745, Note_on_c, 9, 51, 0
2, 32745, Note_on_c, 9, 35, 0
2, 32832, Note_on_c, 9, 51, 110
2, 32841, Note_on_c, 9, 51, 0
2, 32928, Note_on_c, 9, 38, 100
2, 32928, Note_on_c, 9, 35, 120
2, 32936, Note_on_c, 9, 38, 87
2, 32937, Note_on_c, 9, 38, 0
2, 32937, Note_on_c, 9, 35, 0
2, 32944, Note_on_c, 9, 38, 87
2, 32945, Note_on_c, 9, 38, 0
2, 32953, Note_on_c, 9, 38, 0
2, 32976, Note_on_c, 9, 35, 120
2, 32985, Note_on_c, 9, 35, 0
2, 33312, Note_on_c, 9, 51, 110
2, 33321, Note_on_c, 9, 51, 0
2, 33408, Note_on_c, 9, 51, 110
2, 33417, Note_on_c, 9, 51, 0
2, 33504, Note_on_c, 9, 51, 110
2, 33513, Note_on_c, 9, 51, 0
2, 33552, Note_on_c, 9, 51, 90
2, 33561, Note_on_c, 9, 51, 0
2, 33600, Note_on_c, 9, 51, 110
2, 33609, Note_on_c, 9, 51, 0
2, 33648, Note_on_c, 9, 51, 90
2, 33657, Note_on_c, 9, 51, 0
2, 33696, Note_on_c, 9, 42, 110
2, 33705, Note_on_c, 9, 42, 0
2, 33792, Note_on_c, 9, 46, 105
2, 33801, Note_on_c, 9, 46, 0
2, 34080, Note_on_c, 9, 42, 105
2, 34080, Note_on_c, 9, 35, 120
2, 34089, Note_on_c, 9, 42, 0
2, 34089, Note_on_c, 9, 35, 0
2, 34128, Note_on_c, 9, 42, 90
2, 34137, Note_on_c, 9, 42, 0
2, 34176, Note_on_c, 9, 42, 90
2, 34185, Note_on_c, 9, 42, 0
2, 34224, Note_on_c, 9, 42, 105
2, 34224, Note_on_c, 9, 38, 100
2, 34224, Note_on_c, 9, 35, 120
2, 34233, Note_on_c, 9, 42, 0
2, 34233, Note_on_c, 9, 38, 0
2, 34233, Note_on_c, 9, 35, 0
2, 34272, Note_on_c, 9, 42, 90
2, 34281, Note_on_c, 9, 42, 0
2, 34320, Note_on_c, 9, 42, 90
2, 34329, Note_on_c, 9, 42, 0
2, 34368, Note_on_c, 9, 42, 105
2, 34368, Note_on_c, 9, 35, 120
2, 34377, Note_on_c, 9, 42, 0
2, 34377, Note_on_c, 9, 35, 0
2, 34416, Note_on_c, 9, 42, 90
2, 34425, Note_on_c, 9, 42, 0
2, 34464, Note_on_c, 9, 42, 90
2, 34473, Note_on_c, 9, 42, 0
2, 34512, Note_on_c, 9, 42, 105
2, 34512, Note_on_c, 9, 38, 100
2, 34512, Note_on_c, 9, 35, 120
2, 34521, Note_on_c, 9, 42, 0
2, 34521, Note_on_c, 9, 38, 0
2, 34521, Note_on_c, 9, 35, 0
2, 34560, Note_on_c, 9, 42, 90
2, 34569, Note_on_c, 9, 42, 0
2, 34608, Note_on_c, 9, 42, 90
2, 34617, Note_on_c, 9, 42, 0
2, 34656, Note_on_c, 9, 42, 105
2, 34656, Note_on_c, 9, 35, 120
2, 34665, Note_on_c, 9, 42, 0
2, 34665, Note_on_c, 9, 35, 0
2, 34704, Note_on_c, 9, 42, 90
2, 34713, Note_on_c, 9, 42, 0
2, 34752, Note_on_c, 9, 42, 90
2, 34761, Note_on_c, 9, 42, 0
2, 34800, Note_on_c, 9, 42, 105
2, 34800, Note_on_c, 9, 38, 100
2, 34809, Note_on_c, 9, 42, 0
2, 34809, Note_on_c, 9, 38, 0
2, 34848, Note_on_c, 9, 42, 90
2, 34848, Note_on_c, 9, 35, 120
2, 34857, Note_on_c, 9, 42, 0
2, 34857, Note_on_c, 9, 35, 0
2, 34896, Note_on_c, 9, 42, 90
2, 34896, Note_on_c, 9, 35, 120
2, 34905, Note_on_c, 9, 42, 0
2, 34905, Note_on_c, 9, 35, 0
2, 34944, Note_on_c, 9, 42, 105
2, 34944, Note_on_c, 9, 35, 120
2, 34953, Note_on_c, 9, 42, 0
2, 34953, Note_on_c, 9, 35, 0
2, 34992, Note_on_c, 9, 42, 90
2, 35001, Note_on_c, 9, 42, 0
2, 35040, Note_on_c, 9, 42, 90
2, 35049, Note_on_c, 9, 42, 0
2, 35088, Note_on_c, 9, 42, 105
2, 35088, Note_on_c, 9, 38, 100
2, 35097, Note_on_c, 9, 42, 0
2, 35097, Note_on_c, 9, 38, 0
2, 35136, Note_on_c, 9, 42, 90
2, 35145, Note_on_c, 9, 42, 0
2, 35184, Note_on_c, 9, 42, 90
2, 35193, Note_on_c, 9, 42, 0
2, 35232, Note_on_c, 9, 42, 105
2, 35232, Note_on_c, 9, 35, 120
2, 35241, Note_on_c, 9, 42, 0
2, 35241, Note_on_c, 9, 35, 0
2, 35280, Note_on_c, 9, 42, 90
2, 35289, Note_on_c, 9, 42, 0
2, 35328, Note_on_c, 9, 42, 90
2, 35337, Note_on_c, 9, 42, 0
2, 35376, Note_on_c, 9, 42, 105
2, 35376, Note_on_c, 9, 38, 100
2, 35385, Note_on_c, 9, 42, 0
2, 35385, Note_on_c, 9, 38, 0
2, 35424, Note_on_c, 9, 42, 90
2, 35433, Note_on_c, 9, 42, 0
2, 35472, Note_on_c, 9, 42, 90
2, 35481, Note_on_c, 9, 42, 0
2, 35520, Note_on_c, 9, 42, 105
2, 35520, Note_on_c, 9, 35, 120
2, 35529, Note_on_c, 9, 42, 0
2, 35529, Note_on_c, 9, 35, 0
2, 35568, Note_on_c, 9, 42, 90
2, 35577, Note_on_c, 9, 42, 0
2, 35616, Note_on_c, 9, 42, 90
2, 35625, Note_on_c, 9, 42, 0
2, 35664, Note_on_c, 9, 42, 105
2, 35664, Note_on_c, 9, 38, 100
2, 35664, Note_on_c, 9, 35, 120
2, 35673, Note_on_c, 9, 42, 0
2, 35673, Note_on_c, 9, 38, 0
2, 35673, Note_on_c, 9, 35, 0
2, 35712, Note_on_c, 9, 42, 90
2, 35721, Note_on_c, 9, 42, 0
2, 35760, Note_on_c, 9, 42, 90
2, 35769, Note_on_c, 9, 42, 0
2, 35808, Note_on_c, 9, 42, 105
2, 35808, Note_on_c, 9, 35, 120
2, 35817, Note_on_c, 9, 42, 0
2, 35817, Note_on_c, 9, 35, 0
2, 35856, Note_on_c, 9, 42, 90
2, 35865, Note_on_c, 9, 42, 0
2, 35904, Note_on_c, 9, 42, 90
2, 35913, Note_on_c, 9, 42, 0
2, 35952, Note_on_c, 9, 42, 105
2, 35952, Note_on_c, 9, 35, 120
2, 35952, Note_on_c, 9, 38, 100
2, 35961, Note_on_c, 9, 42, 0
2, 35961, Note_on_c, 9, 35, 0
2, 35961, Note_on_c, 9, 38, 0
2, 36000, Note_on_c, 9, 42, 90
2, 36009, Note_on_c, 9, 42, 0
2, 36048, Note_on_c, 9, 42, 90
2, 36057, Note_on_c, 9, 42, 0
2, 36096, Note_on_c, 9, 42, 105
2, 36096, Note_on_c, 9, 35, 120
2, 36105, Note_on_c, 9, 42, 0
2, 36105, Note_on_c, 9, 35, 0
2, 36144, Note_on_c, 9, 42, 90
2, 36153, Note_on_c, 9, 42, 0
2, 36192, Note_on_c, 9, 42, 90
2, 36201, Note_on_c, 9, 42, 0
2, 36240, Note_on_c, 9, 42, 105
2, 36240, Note_on_c, 9, 38, 100
2, 36249, Note_on_c, 9, 42, 0
2, 36249, Note_on_c, 9, 38, 0
2, 36288, Note_on_c, 9, 42, 90
2, 36288, Note_on_c, 9, 35, 120
2, 36297, Note_on_c, 9, 42, 0
2, 36297, Note_on_c, 9, 35, 0
2, 36336, Note_on_c, 9, 42, 90
2, 36336, Note_on_c, 9, 35, 120
2, 36345, Note_on_c, 9, 42, 0
2, 36345, Note_on_c, 9, 35, 0
2, 36384, Note_on_c, 9, 42, 105
2, 36384, Note_on_c, 9, 35, 120
2, 36393, Note_on_c, 9, 42, 0
2, 36393, Note_on_c, 9, 35, 0
2, 36432, Note_on_c, 9, 42, 90
2, 36441, Note_on_c, 9, 42, 0
2, 36480, Note_on_c, 9, 42, 90
2, 36489, Note_on_c, 9, 42, 0
2, 36528, Note_on_c, 9, 42, 105
2, 36528, Note_on_c, 9, 38, 100
2, 36537, Note_on_c, 9, 42, 0
2, 36537, Note_on_c, 9, 38, 0
2, 36576, Note_on_c, 9, 42, 90
2, 36585, Note_on_c, 9, 42, 0
2, 36624, Note_on_c, 9, 42, 90
2, 36633, Note_on_c, 9, 42, 0
2, 36672, Note_on_c, 9, 42, 105
2, 36672, Note_on_c, 9, 35, 120
2, 36681, Note_on_c, 9, 42, 0
2, 36681, Note_on_c, 9, 35, 0
2, 36720, Note_on_c, 9, 42, 90
2, 36729, Note_on_c, 9, 42, 0
2, 36768, Note_on_c, 9, 42, 90
2, 36777, Note_on_c, 9, 42, 0
2, 36816, Note_on_c, 9, 38, 100
2, 36816, Note_on_c, 9, 35, 120
2, 36825, Note_on_c, 9, 38, 0
2, 36825, Note_on_c, 9, 35, 0
2, 37248, Note_on_c, 9, 57, 100
2, 37248, Note_on_c, 9, 35, 120
2, 37257, Note_on_c, 9, 57, 0
2, 37257, Note_on_c, 9, 35, 0
2, 37296, Note_on_c, 9, 53, 90
2, 37305, Note_on_c, 9, 53, 0
2, 37344, Note_on_c, 9, 53, 105
2, 37344, Note_on_c, 9, 48, 110
2, 37353, Note_on_c, 9, 53, 0
2, 37353, Note_on_c, 9, 48, 0
2, 37392, Note_on_c, 9, 53, 90
2, 37392, Note_on_c, 9, 48, 110
2, 37401, Note_on_c, 9, 53, 0
2, 37401, Note_on_c, 9, 48, 0
2, 37440, Note_on_c, 9, 53, 105
2, 37449, Note_on_c, 9, 53, 0
2, 37488, Note_on_c, 9, 53, 90
2, 37497, Note_on_c, 9, 53, 0
2, 37536, Note_on_c, 9, 53, 105
2, 37536, Note_on_c, 9, 38, 100
2, 37545, Note_on_c, 9, 53, 0
2, 37545, Note_on_c, 9, 38, 0
2, 37584, Note_on_c, 9, 53, 90
2, 37584, Note_on_c, 9, 35, 120
2, 37593, Note_on_c, 9, 53, 0
2, 37593, Note_on_c, 9, 35, 0
2, 37632, Note_on_c, 9, 53, 105
2, 37632, Note_on_c, 9, 35, 120
2, 37641, Note_on_c, 9, 53, 0
2, 37641, Note_on_c, 9, 35, 0
2, 37680, Note_on_c, 9, 53, 90
2, 37689, Note_on_c, 9, 53, 0
2, 37728, Note_on_c, 9, 53, 105
2, 37728, Note_on_c, 9, 48, 110
2, 37737, Note_on_c, 9, 53, 0
2, 37737, Note_on_c, 9, 48, 0
2, 37776, Note_on_c, 9, 53, 90
2, 37776, Note_on_c, 9, 48, 110
2, 37785, Note_on_c, 9, 53, 0
2, 37785, Note_on_c, 9, 48, 0
2, 37800, Note_on_c, 9, 53, 90
2, 37809, Note_on_c, 9, 53, 0
2, 37824, Note_on_c, 9, 53, 105
2, 37833, Note_on_c, 9, 53, 0
2, 37872, Note_on_c, 9, 53, 90
2, 37881, Note_on_c, 9, 53, 0
2, 37920, Note_on_c, 9, 53, 105
2, 37920, Note_on_c, 9, 38, 100
2, 37929, Note_on_c, 9, 53, 0
2, 37929, Note_on_c, 9, 38, 0
2, 37968, Note_on_c, 9, 53, 90
2, 37968, Note_on_c, 9, 35, 120
2, 37977, Note_on_c, 9, 53, 0
2, 37977, Note_on_c, 9, 35, 0
2, 38016, Note_on_c, 9, 53, 105
2, 38016, Note_on_c, 9, 35, 120
2, 38025, Note_on_c, 9, 53, 0
2, 38025, Note_on_c, 9, 35, 0
2, 38064, Note_on_c, 9, 53, 90
2, 38073, Note_on_c, 9, 53, 0
2, 38112, Note_on_c, 9, 53, 105
2, 38112, Note_on_c, 9, 48, 110
2, 38121, Note_on_c, 9, 53, 0
2, 38121, Note_on_c, 9, 48, 0
2, 38160, Note_on_c, 9, 53, 90
2, 38160, Note_on_c, 9, 48, 110
2, 38169, Note_on_c, 9, 53, 0
2, 38169, Note_on_c, 9, 48, 0
2, 38208, Note_on_c, 9, 53, 105
2, 38217, Note_on_c, 9, 53, 0
2, 38256, Note_on_c, 9, 53, 90
2, 38265, Note_on_c, 9, 53, 0
2, 38304, Note_on_c, 9, 53, 105
2, 38304, Note_on_c, 9, 38, 100
2, 38313, Note_on_c, 9, 53, 0
2, 38313, Note_on_c, 9, 38, 0
2, 38352, Note_on_c, 9, 53, 90
2, 38352, Note_on_c, 9, 35, 120
2, 38361, Note_on_c, 9, 53, 0
2, 38361, Note_on_c, 9, 35, 0
2, 38400, Note_on_c, 9, 53, 105
2, 38400, Note_on_c, 9, 35, 120
2, 38409, Note_on_c, 9, 53, 0
2, 38409, Note_on_c, 9, 35, 0
2, 38448, Note_on_c, 9, 53, 90
2, 38457, Note_on_c, 9, 53, 0
2, 38496, Note_on_c, 9, 53, 105
2, 38496, Note_on_c, 9, 48, 110
2, 38505, Note_on_c, 9, 53, 0
2, 38505, Note_on_c, 9, 48, 0
2, 38544, Note_on_c, 9, 53, 90
2, 38544, Note_on_c, 9, 48, 110
2, 38553, Note_on_c, 9, 53, 0
2, 38553, Note_on_c, 9, 48, 0
2, 38568, Note_on_c, 9, 53, 90
2, 38577, Note_on_c, 9, 53, 0
2, 38592, Note_on_c, 9, 53, 105
2, 38601, Note_on_c, 9, 53, 0
2, 38640, Note_on_c, 9, 53, 90
2, 38649, Note_on_c, 9, 53, 0
2, 38688, Note_on_c, 9, 53, 105
2, 38688, Note_on_c, 9, 38, 100
2, 38697, Note_on_c, 9, 53, 0
2, 38697, Note_on_c, 9, 38, 0
2, 38736, Note_on_c, 9, 53, 90
2, 38736, Note_on_c, 9, 35, 120
2, 38745, Note_on_c, 9, 53, 0
2, 38745, Note_on_c, 9, 35, 0
2, 38784, Note_on_c, 9, 53, 105
2, 38784, Note_on_c, 9, 35, 120
2, 38793, Note_on_c, 9, 53, 0
2, 38793, Note_on_c, 9, 35, 0
2, 38832, Note_on_c, 9, 53, 90
2, 38841, Note_on_c, 9, 53, 0
2, 38880, Note_on_c, 9, 53, 105
2, 38880, Note_on_c, 9, 48, 110
2, 38889, Note_on_c, 9, 53, 0
2, 38889, Note_on_c, 9, 48, 0
2, 38928, Note_on_c, 9, 53, 90
2, 38928, Note_on_c, 9, 48, 110
2, 38937, Note_on_c, 9, 53, 0
2, 38937, Note_on_c, 9, 48, 0
2, 38976, Note_on_c, 9, 53, 105
2, 38985, Note_on_c, 9, 53, 0
2, 39024, Note_on_c, 9, 53, 90
2, 39033, Note_on_c, 9, 53, 0
2, 39072, Note_on_c, 9, 53, 105
2, 39072, Note_on_c, 9, 38, 100
2, 39081, Note_on_c, 9, 53, 0
2, 39081, Note_on_c, 9, 38, 0
2, 39120, Note_on_c, 9, 53, 90
2, 39120, Note_on_c, 9, 35, 120
2, 39129, Note_on_c, 9, 53, 0
2, 39129, Note_on_c, 9, 35, 0
2, 39168, Note_on_c, 9, 53, 105
2, 39168, Note_on_c, 9, 35, 120
2, 39177, Note_on_c, 9, 53, 0
2, 39177, Note_on_c, 9, 35, 0
2, 39216, Note_on_c, 9, 53, 90
2, 39225, Note_on_c, 9, 53, 0
2, 39264, Note_on_c, 9, 53, 105
2, 39264, Note_on_c, 9, 48, 110
2, 39273, Note_on_c, 9, 53, 0
2, 39273, Note_on_c, 9, 48, 0
2, 39312, Note_on_c, 9, 53, 90
2, 39312, Note_on_c, 9, 48, 110
2, 39321, Note_on_c, 9, 53, 0
2, 39321, Note_on_c, 9, 48, 0
2, 39336, Note_on_c, 9, 53, 90
2, 39345, Note_on_c, 9, 53, 0
2, 39360, Note_on_c, 9, 53, 105
2, 39369, Note_on_c, 9, 53, 0
2, 39408, Note_on_c, 9, 53, 90
2, 39417, Note_on_c, 9, 53, 0
2, 39456, Note_on_c, 9, 53, 105
2, 39456, Note_on_c, 9, 38, 100
2, 39465, Note_on_c, 9, 53, 0
2, 39465, Note_on_c, 9, 38, 0
2, 39504, Note_on_c, 9, 53, 90
2, 39504, Note_on_c, 9, 35, 120
2, 39513, Note_on_c, 9, 53, 0
2, 39513, Note_on_c, 9, 35, 0
2, 39552, Note_on_c, 9, 53, 105
2, 39552, Note_on_c, 9, 35, 120
2, 39561, Note_on_c, 9, 53, 0
2, 39561, Note_on_c, 9, 35, 0
2, 39600, Note_on_c, 9, 53, 90
2, 39609, Note_on_c, 9, 53, 0
2, 39648, Note_on_c, 9, 53, 105
2, 39648, Note_on_c, 9, 48, 110
2, 39657, Note_on_c, 9, 53, 0
2, 39657, Note_on_c, 9, 48, 0
2, 39696, Note_on_c, 9, 53, 90
2, 39696, Note_on_c, 9, 48, 110
2, 39705, Note_on_c, 9, 53, 0
2, 39705, Note_on_c, 9, 48, 0
2, 39744, Note_on_c, 9, 53, 105
2, 39753, Note_on_c, 9, 53, 0
2, 39792, Note_on_c, 9, 53, 90
2, 39801, Note_on_c, 9, 53, 0
2, 39840, Note_on_c, 9, 53, 105
2, 39840, Note_on_c, 9, 38, 100
2, 39849, Note_on_c, 9, 53, 0
2, 39849, Note_on_c, 9, 38, 0
2, 39888, Note_on_c, 9, 53, 90
2, 39888, Note_on_c, 9, 35, 120
2, 39897, Note_on_c, 9, 53, 0
2, 39897, Note_on_c, 9, 35, 0
2, 39936, Note_on_c, 9, 53, 105
2, 39936, Note_on_c, 9, 35, 120
2, 39945, Note_on_c, 9, 53, 0
2, 39945, Note_on_c, 9, 35, 0
2, 39984, Note_on_c, 9, 53, 90
2, 39993, Note_on_c, 9, 53, 0
2, 40032, Note_on_c, 9, 53, 105
2, 40032, Note_on_c, 9, 48, 110
2, 40041, Note_on_c, 9, 53, 0
2, 40041, Note_on_c, 9, 48, 0
2, 40080, Note_on_c, 9, 53, 90
2, 40080, Note_on_c, 9, 48, 110
2, 40089, Note_on_c, 9, 53, 0
2, 40089, Note_on_c, 9, 48, 0
2, 40128, Note_on_c, 9, 53, 105
2, 40137, Note_on_c, 9, 53, 0
2, 40176, Note_on_c, 9, 53, 90
2, 40185, Note_on_c, 9, 53, 0
2, 40224, Note_on_c, 9, 53, 105
2, 40224, Note_on_c, 9, 38, 100
2, 40233, Note_on_c, 9, 53, 0
2, 40233, Note_on_c, 9, 38, 0
2, 40272, Note_on_c, 9, 53, 90
2, 40272, Note_on_c, 9, 35, 120
2, 40281, Note_on_c, 9, 53, 0
2, 40281, Note_on_c, 9, 35, 0
2, 40320, Note_on_c, 9, 53, 105
2, 40320, Note_on_c, 9, 35, 120
2, 40329, Note_on_c, 9, 53, 0
2, 40329, Note_on_c, 9, 35, 0
2, 40368, Note_on_c, 9, 53, 90
2, 40377, Note_on_c, 9, 53, 0
2, 40416, Note_on_c, 9, 53, 105
2, 40416, Note_on_c, 9, 48, 110
2, 40425, Note_on_c, 9, 53, 0
2, 40425, Note_on_c, 9, 48, 0
2, 40464, Note_on_c, 9, 53, 90
2, 40464, Note_on_c, 9, 48, 110
2, 40473, Note_on_c, 9, 53, 0
2, 40473, Note_on_c, 9, 48, 0
2, 40512, Note_on_c, 9, 53, 105
2, 40521, Note_on_c, 9, 53, 0
2, 40560, Note_on_c, 9, 53, 90
2, 40569, Note_on_c, 9, 53, 0
2, 40608, Note_on_c, 9, 53, 105
2, 40608, Note_on_c, 9, 38, 100
2, 40617, Note_on_c, 9, 53, 0
2, 40617, Note_on_c, 9, 38, 0
2, 40656, Note_on_c, 9, 53, 90
2, 40665, Note_on_c, 9, 53, 0
2, 40704, Note_on_c, 9, 53, 105
2, 40713, Note_on_c, 9, 53, 0
2, 40752, Note_on_c, 9, 53, 90
2, 40761, Note_on_c, 9, 53, 0
2, 40800, Note_on_c, 9, 53, 105
2, 40800, Note_on_c, 9, 48, 110
2, 40809, Note_on_c, 9, 53, 0
2, 40809, Note_on_c, 9, 48, 0
2, 40848, Note_on_c, 9, 53, 90
2, 40848, Note_on_c, 9, 48, 110
2, 40857, Note_on_c, 9, 53, 0
2, 40857, Note_on_c, 9, 48, 0
2, 40896, Note_on_c, 9, 53, 105
2, 40905, Note_on_c, 9, 53, 0
2, 40944, Note_on_c, 9, 53, 90
2, 40953, Note_on_c, 9, 53, 0
2, 40992, Note_on_c, 9, 53, 105
2, 40992, Note_on_c, 9, 35, 120
2, 40992, Note_on_c, 9, 38, 100
2, 41001, Note_on_c, 9, 53, 0
2, 41001, Note_on_c, 9, 35, 0
2, 41001, Note_on_c, 9, 38, 0
2, 41040, Note_on_c, 9, 53, 90
2, 41049, Note_on_c, 9, 53, 0
2, 41088, Note_on_c, 9, 48, 110
2, 41097, Note_on_c, 9, 48, 0
2, 41112, Note_on_c, 9, 48, 110
2, 41121, Note_on_c, 9, 48, 0
2, 41136, Note_on_c, 9, 48, 110
2, 41145, Note_on_c, 9, 48, 0
2, 41184, Note_on_c, 9, 45, 110
2, 41193, Note_on_c, 9, 45, 0
2, 41232, Note_on_c, 9, 45, 110
2, 41241, Note_on_c, 9, 45, 0
2, 41280, Note_on_c, 9, 49, 100
2, 41280, Note_on_c, 9, 35, 120
2, 41289, Note_on_c, 9, 49, 0
2, 41289, Note_on_c, 9, 35, 0
2, 41328, Note_on_c, 9, 53, 90
2, 41337, Note_on_c, 9, 53, 0
2, 41376, Note_on_c, 9, 53, 105
2, 41376, Note_on_c, 9, 48, 110
2, 41385, Note_on_c, 9, 53, 0
2, 41385, Note_on_c, 9, 48, 0
2, 41424, Note_on_c, 9, 53, 90
2, 41424, Note_on_c, 9, 48, 110
2, 41433, Note_on_c, 9, 53, 0
2, 41433, Note_on_c, 9, 48, 0
2, 41472, Note_on_c, 9, 53, 105
2, 41481, Note_on_c, 9, 53, 0
2, 41520, Note_on_c, 9, 53, 90
2, 41529, Note_on_c, 9, 53, 0
2, 41568, Note_on_c, 9, 53, 105
2, 41568, Note_on_c, 9, 38, 100
2, 41577, Note_on_c, 9, 53, 0
2, 41577, Note_on_c, 9, 38, 0
2, 41616, Note_on_c, 9, 53, 90
2, 41616, Note_on_c, 9, 35, 120
2, 41625, Note_on_c, 9, 53, 0
2, 41625, Note_on_c, 9, 35, 0
2, 41664, Note_on_c, 9, 53, 105
2, 41664, Note_on_c, 9, 35, 120
2, 41673, Note_on_c, 9, 53, 0
2, 41673, Note_on_c, 9, 35, 0
2, 41712, Note_on_c, 9, 53, 90
2, 41721, Note_on_c, 9, 53, 0
2, 41760, Note_on_c, 9, 53, 105
2, 41760, Note_on_c, 9, 48, 110
2, 41769, Note_on_c, 9, 53, 0
2, 41769, Note_on_c, 9, 48, 0
2, 41808, Note_on_c, 9, 53, 90
2, 41808, Note_on_c, 9, 48, 110
2, 41817, Note_on_c, 9, 53, 0
2, 41817, Note_on_c, 9, 48, 0
2, 41832, Note_on_c, 9, 53, 90
2, 41841, Note_on_c, 9, 53, 0
2, 41856, Note_on_c, 9, 53, 105
2, 41865, Note_on_c, 9, 53, 0
2, 41904, Note_on_c, 9, 53, 90
2, 41913, Note_on_c, 9, 53, 0
2, 41952, Note_on_c, 9, 53, 105
2, 41952, Note_on_c, 9, 38, 100
2, 41961, Note_on_c, 9, 53, 0
2, 41961, Note_on_c, 9, 38, 0
2, 42000, Note_on_c, 9, 53, 90
2, 42000, Note_on_c, 9, 35, 120
2, 42009, Note_on_c, 9, 53, 0
2, 42009, Note_on_c, 9, 35, 0
2, 42048, Note_on_c, 9, 53, 105
2, 42048, Note_on_c, 9, 35, 120
2, 42057, Note_on_c, 9, 53, 0
2, 42057, Note_on_c, 9, 35, 0
2, 42096, Note_on_c, 9, 53, 90
2, 42105, Note_on_c, 9, 53, 0
2, 42144, Note_on_c, 9, 53, 105
2, 42144, Note_on_c, 9, 48, 110
2, 42153, Note_on_c, 9, 53, 0
2, 42153, Note_on_c, 9, 48, 0
2, 42192, Note_on_c, 9, 53, 90
2, 42192, Note_on_c, 9, 48, 110
2, 42201, Note_on_c, 9, 53, 0
2, 42201, Note_on_c, 9, 48, 0
2, 42240, Note_on_c, 9, 53, 105
2, 42249, Note_on_c, 9, 53, 0
2, 42288, Note_on_c, 9, 53, 90
2, 42297, Note_on_c, 9, 53, 0
2, 42336, Note_on_c, 9, 53, 105
2, 42336, Note_on_c, 9, 38, 100
2, 42345, Note_on_c, 9, 53, 0
2, 42345, Note_on_c, 9, 38, 0
2, 42384, Note_on_c, 9, 53, 90
2, 42384, Note_on_c, 9, 35, 120
2, 42393, Note_on_c, 9, 53, 0
2, 42393, Note_on_c, 9, 35, 0
2, 42432, Note_on_c, 9, 53, 105
2, 42432, Note_on_c, 9, 35, 120
2, 42441, Note_on_c, 9, 53, 0
2, 42441, Note_on_c, 9, 35, 0
2, 42480, Note_on_c, 9, 53, 90
2, 42489, Note_on_c, 9, 53, 0
2, 42528, Note_on_c, 9, 53, 105
2, 42528, Note_on_c, 9, 48, 110
2, 42537, Note_on_c, 9, 53, 0
2, 42537, Note_on_c, 9, 48, 0
2, 42576, Note_on_c, 9, 53, 90
2, 42576, Note_on_c, 9, 48, 110
2, 42585, Note_on_c, 9, 53, 0
2, 42585, Note_on_c, 9, 48, 0
2, 42600, Note_on_c, 9, 53, 90
2, 42609, Note_on_c, 9, 53, 0
2, 42624, Note_on_c, 9, 53, 105
2, 42633, Note_on_c, 9, 53, 0
2, 42672, Note_on_c, 9, 53, 90
2, 42681, Note_on_c, 9, 53, 0
2, 42720, Note_on_c, 9, 53, 105
2, 42720, Note_on_c, 9, 38, 100
2, 42729, Note_on_c, 9, 53, 0
2, 42729, Note_on_c, 9, 38, 0
2, 42768, Note_on_c, 9, 53, 90
2, 42768, Note_on_c, 9, 35, 120
2, 42777, Note_on_c, 9, 53, 0
2, 42777, Note_on_c, 9, 35, 0
2, 42816, Note_on_c, 9, 53, 105
2, 42816, Note_on_c, 9, 35, 120
2, 42825, Note_on_c, 9, 53, 0
2, 42825, Note_on_c, 9, 35, 0
2, 42864, Note_on_c, 9, 53, 90
2, 42873, Note_on_c, 9, 53, 0
2, 42912, Note_on_c, 9, 53, 105
2, 42912, Note_on_c, 9, 48, 110
2, 42921, Note_on_c, 9, 53, 0
2, 42921, Note_on_c, 9, 48, 0
2, 42960, Note_on_c, 9, 53, 90
2, 42960, Note_on_c, 9, 48, 110
2, 42969, Note_on_c, 9, 53, 0
2, 42969, Note_on_c, 9, 48, 0
2, 43008, Note_on_c, 9, 53, 105
2, 43017, Note_on_c, 9, 53, 0
2, 43056, Note_on_c, 9, 53, 90
2, 43065, Note_on_c, 9, 53, 0
2, 43104, Note_on_c, 9, 53, 105
2, 43104, Note_on_c, 9, 38, 100
2, 43113, Note_on_c, 9, 53, 0
2, 43113, Note_on_c, 9, 38, 0
2, 43152, Note_on_c, 9, 53, 90
2, 43152, Note_on_c, 9, 35, 120
2, 43161, Note_on_c, 9, 53, 0
2, 43161, Note_on_c, 9, 35, 0
2, 43200, Note_on_c, 9, 53, 105
2, 43200, Note_on_c, 9, 35, 120
2, 43209, Note_on_c, 9, 53, 0
2, 43209, Note_on_c, 9, 35, 0
2, 43248, Note_on_c, 9, 53, 90
2, 43257, Note_on_c, 9, 53, 0
2, 43296, Note_on_c, 9, 53, 105
2, 43296, Note_on_c, 9, 48, 110
2, 43305, Note_on_c, 9, 53, 0
2, 43305, Note_on_c, 9, 48, 0
2, 43344, Note_on_c, 9, 53, 90
2, 43344, Note_on_c, 9, 48, 110
2, 43353, Note_on_c, 9, 53, 0
2, 43353, Note_on_c, 9, 48, 0
2, 43368, Note_on_c, 9, 53, 90
2, 43377, Note_on_c, 9, 53, 0
2, 43392, Note_on_c, 9, 53, 105
2, 43401, Note_on_c, 9, 53, 0
2, 43440, Note_on_c, 9, 53, 90
2, 43449, Note_on_c, 9, 53, 0
2, 43488, Note_on_c, 9, 53, 105
2, 43488, Note_on_c, 9, 38, 100
2, 43497, Note_on_c, 9, 53, 0
2, 43497, Note_on_c, 9, 38, 0
2, 43536, Note_on_c, 9, 53, 90
2, 43536, Note_on_c, 9, 35, 120
2, 43545, Note_on_c, 9, 53, 0
2, 43545, Note_on_c, 9, 35, 0
2, 43584, Note_on_c, 9, 53, 105
2, 43584, Note_on_c, 9, 35, 120
2, 43593, Note_on_c, 9, 53, 0
2, 43593, Note_on_c, 9, 35, 0
2, 43632, Note_on_c, 9, 53, 90
2, 43641, Note_on_c, 9, 53, 0
2, 43680, Note_on_c, 9, 53, 105
2, 43680, Note_on_c, 9, 48, 110
2, 43689, Note_on_c, 9, 53, 0
2, 43689, Note_on_c, 9, 48, 0
2, 43728, Note_on_c, 9, 53, 90
2, 43728, Note_on_c, 9, 48, 110
2, 43737, Note_on_c, 9, 53, 0
2, 43737, Note_on_c, 9, 48, 0
2, 43776, Note_on_c, 9, 53, 105
2, 43785, Note_on_c, 9, 53, 0
2, 43824, Note_on_c, 9, 53, 90
2, 43833, Note_on_c, 9, 53, 0
2, 43872, Note_on_c, 9, 53, 105
2, 43872, Note_on_c, 9, 38, 100
2, 43881, Note_on_c, 9, 53, 0
2, 43881, Note_on_c, 9, 38, 0
2, 43920, Note_on_c, 9, 53, 90
2, 43920, Note_on_c, 9, 35, 120
2, 43929, Note_on_c, 9, 53, 0
2, 43929, Note_on_c, 9, 35, 0
2, 43968, Note_on_c, 9, 53, 105
2, 43968, Note_on_c, 9, 35, 120
2, 43977, Note_on_c, 9, 53, 0
2, 43977, Note_on_c, 9, 35, 0
2, 44016, Note_on_c, 9, 53, 90
2, 44025, Note_on_c, 9, 53, 0
2, 44064, Note_on_c, 9, 53, 105
2, 44064, Note_on_c, 9, 48, 110
2, 44073, Note_on_c, 9, 53, 0
2, 44073, Note_on_c, 9, 48, 0
2, 44112, Note_on_c, 9, 53, 90
2, 44112, Note_on_c, 9, 48, 110
2, 44121, Note_on_c, 9, 53, 0
2, 44121, Note_on_c, 9, 48, 0
2, 44160, Note_on_c, 9, 53, 105
2, 44169, Note_on_c, 9, 53, 0
2, 44208, Note_on_c, 9, 53, 90
2, 44217, Note_on_c, 9, 53, 0
2, 44256, Note_on_c, 9, 53, 105
2, 44256, Note_on_c, 9, 38, 100
2, 44265, Note_on_c, 9, 53, 0
2, 44265, Note_on_c, 9, 38, 0
2, 44304, Note_on_c, 9, 53, 90
2, 44304, Note_on_c, 9, 35, 120
2, 44313, Note_on_c, 9, 53, 0
2, 44313, Note_on_c, 9, 35, 0
2, 44352, Note_on_c, 9, 53, 105
2, 44352, Note_on_c, 9, 35, 120
2, 44352, Note_on_c, 9, 38, 100
2, 44361, Note_on_c, 9, 53, 0
2, 44361, Note_on_c, 9, 35, 0
2, 44361, Note_on_c, 9, 38, 0
2, 44416, Note_on_c, 9, 53, 105
2, 44416, Note_on_c, 9, 35, 120
2, 44416, Note_on_c, 9, 38, 100
2, 44425, Note_on_c, 9, 53, 0
2, 44425, Note_on_c, 9, 35, 0
2, 44425, Note_on_c, 9, 38, 0
2, 44480, Note_on_c, 9, 53, 105
2, 44480, Note_on_c, 9, 35, 120
2, 44480, Note_on_c, 9, 38, 100
2, 44489, Note_on_c, 9, 53, 0
2, 44489, Note_on_c, 9, 35, 0
2, 44489, Note_on_c, 9, 38, 0
2, 44544, Note_on_c, 9, 57, 100
2, 44544, Note_on_c, 9, 35, 120
2, 44553, Note_on_c, 9, 57, 0
2, 44553, Note_on_c, 9, 35, 0
2, 44640, Note_on_c, 9, 51, 110
2, 44640, Note_on_c, 9, 38, 100
2, 44649, Note_on_c, 9, 51, 0
2, 44649, Note_on_c, 9, 38, 0
2, 44736, Note_on_c, 9, 51, 110
2, 44736, Note_on_c, 9, 35, 120
2, 44745, Note_on_c, 9, 51, 0
2, 44745, Note_on_c, 9, 35, 0
2, 44832, Note_on_c, 9, 51, 110
2, 44832, Note_on_c, 9, 38, 100
2, 44841, Note_on_c, 9, 51, 0
2, 44841, Note_on_c, 9, 38, 0
2, 44928, Note_on_c, 9, 38, 100
2, 44928, Note_on_c, 9, 35, 120
2, 44936, Note_on_c, 9, 38, 87
2, 44937, Note_on_c, 9, 38, 0
2, 44937, Note_on_c, 9, 35, 0
2, 44944, Note_on_c, 9, 38, 87
2, 44945, Note_on_c, 9, 38, 0
2, 44953, Note_on_c, 9, 38, 0
2, 44976, Note_on_c, 9, 35, 120
2, 44985, Note_on_c, 9, 35, 0
2, 45312, Note_on_c, 9, 51, 110
2, 45312, Note_on_c, 9, 35, 120
2, 45321, Note_on_c, 9, 51, 0
2, 45321, Note_on_c, 9, 35, 0
2, 45408, Note_on_c, 9, 51, 110
2, 45417, Note_on_c, 9, 51, 0
2, 45456, Note_on_c, 9, 51, 90
2, 45465, Note_on_c, 9, 51, 0
2, 45504, Note_on_c, 9, 51, 110
2, 45504, Note_on_c, 9, 35, 120
2, 45513, Note_on_c, 9, 51, 0
2, 45513, Note_on_c, 9, 35, 0
2, 45600, Note_on_c, 9, 51, 110
2, 45609, Note_on_c, 9, 51, 0
2, 45696, Note_on_c, 9, 35, 120
2, 45696, Note_on_c, 9, 38, 100
2, 45704, Note_on_c, 9, 38, 87
2, 45705, Note_on_c, 9, 35, 0
2, 45705, Note_on_c, 9, 38, 0
2, 45712, Note_on_c, 9, 38, 87
2, 45713, Note_on_c, 9, 38, 0
2, 45721, Note_on_c, 9, 38, 0
2, 45744, Note_on_c, 9, 35, 120
2, 45753, Note_on_c, 9, 35, 0
2, 46080, Note_on_c, 9, 57, 100
2, 46089, Note_on_c, 9, 57, 0
2, 46176, Note_on_c, 9, 51, 110
2, 46185, Note_on_c, 9, 51, 0
2, 46272, Note_on_c, 9, 51, 110
2, 46281, Note_on_c, 9, 51, 0
2, 46320, Note_on_c, 9, 51, 90
2, 46329, Note_on_c, 9, 51, 0
2, 46368, Note_on_c, 9, 51, 110
2, 46377, Note_on_c, 9, 51, 0
2, 46416, Note_on_c, 9, 51, 90
2, 46425, Note_on_c, 9, 51, 0
2, 46464, Note_on_c, 9, 42, 110
2, 46473, Note_on_c, 9, 42, 0
2, 46560, Note_on_c, 9, 46, 105
2, 46569, Note_on_c, 9, 46, 0
2, 46848, Note_on_c, 9, 49, 100
2, 46848, Note_on_c, 9, 35, 120
2, 46857, Note_on_c, 9, 49, 0
2, 46857, Note_on_c, 9, 35, 0
2, 46896, Note_on_c, 9, 53, 90
2, 46905, Note_on_c, 9, 53, 0
2, 46944, Note_on_c, 9, 53, 90
2, 46953, Note_on_c, 9, 53, 0
2, 46992, Note_on_c, 9, 53, 105
2, 46992, Note_on_c, 9, 35, 120
2, 46992, Note_on_c, 9, 38, 100
2, 47001, Note_on_c, 9, 53, 0
2, 47001, Note_on_c, 9, 35, 0
2, 47001, Note_on_c, 9, 38, 0
2, 47040, Note_on_c, 9, 53, 90
2, 47049, Note_on_c, 9, 53, 0
2, 47088, Note_on_c, 9, 53, 90
2, 47097, Note_on_c, 9, 53, 0
2, 47136, Note_on_c, 9, 53, 105
2, 47136, Note_on_c, 9, 35, 120
2, 47145, Note_on_c, 9, 53, 0
2, 47145, Note_on_c, 9, 35, 0
2, 47184, Note_on_c, 9, 53, 90
2, 47193, Note_on_c, 9, 53, 0
2, 47232, Note_on_c, 9, 53, 90
2, 47241, Note_on_c, 9, 53, 0
2, 47280, Note_on_c, 9, 53, 105
2, 47280, Note_on_c, 9, 35, 120
2, 47280, Note_on_c, 9, 38, 100
2, 47289, Note_on_c, 9, 53, 0
2, 47289, Note_on_c, 9, 35, 0
2, 47289, Note_on_c, 9, 38, 0
2, 47328, Note_on_c, 9, 53, 90
2, 47337, Note_on_c, 9, 53, 0
2, 47376, Note_on_c, 9, 53, 90
2, 47385, Note_on_c, 9, 53, 0
2, 47424, Note_on_c, 9, 53, 105
2, 47424, Note_on_c, 9, 35, 120
2, 47433, Note_on_c, 9, 53, 0
2, 47433, Note_on_c, 9, 35, 0
2, 47472, Note_on_c, 9, 53, 90
2, 47481, Note_on_c, 9, 53, 0
2, 47520, Note_on_c, 9, 53, 90
2, 47529, Note_on_c, 9, 53, 0
2, 47568, Note_on_c, 9, 53, 105
2, 47568, Note_on_c, 9, 38, 100
2, 47577, Note_on_c, 9, 53, 0
2, 47577, Note_on_c, 9, 38, 0
2, 47616, Note_on_c, 9, 53, 90
2, 47616, Note_on_c, 9, 35, 120
2, 47625, Note_on_c, 9, 53, 0
2, 47625, Note_on_c, 9, 35, 0
2, 47664, Note_on_c, 9, 53, 90
2, 47664, Note_on_c, 9, 35, 120
2, 47673, Note_on_c, 9, 53, 0
2, 47673, Note_on_c, 9, 35, 0
2, 47712, Note_on_c, 9, 53, 105
2, 47712, Note_on_c, 9, 35, 120
2, 47721, Note_on_c, 9, 53, 0
2, 47721, Note_on_c, 9, 35, 0
2, 47760, Note_on_c, 9, 53, 90
2, 47769, Note_on_c, 9, 53, 0
2, 47808, Note_on_c, 9, 53, 90
2, 47817, Note_on_c, 9, 53, 0
2, 47856, Note_on_c, 9, 53, 105
2, 47856, Note_on_c, 9, 38, 100
2, 47856, Note_on_c, 9, 35, 120
2, 47865, Note_on_c, 9, 53, 0
2, 47865, Note_on_c, 9, 38, 0
2, 47865, Note_on_c, 9, 35, 0
2, 47904, Note_on_c, 9, 53, 90
2, 47913, Note_on_c, 9, 53, 0
2, 47952, Note_on_c, 9, 53, 90
2, 47961, Note_on_c, 9, 53, 0
2, 48000, Note_on_c, 9, 53, 105
2, 48000, Note_on_c, 9, 35, 120
2, 48009, Note_on_c, 9, 53, 0
2, 48009, Note_on_c, 9, 35, 0
2, 48048, Note_on_c, 9, 53, 90
2, 48057, Note_on_c, 9, 53, 0
2, 48096, Note_on_c, 9, 53, 90
2, 48105, Note_on_c, 9, 53, 0
2, 48144, Note_on_c, 9, 53, 105
2, 48144, Note_on_c, 9, 38, 100
2, 48144, Note_on_c, 9, 35, 120
2, 48153, Note_on_c, 9, 53, 0
2, 48153, Note_on_c, 9, 38, 0
2, 48153, Note_on_c, 9, 35, 0
2, 48192, Note_on_c, 9, 53, 90
2, 48201, Note_on_c, 9, 53, 0
2, 48240, Note_on_c, 9, 53, 90
2, 48249, Note_on_c, 9, 53, 0
2, 48288, Note_on_c, 9, 53, 105
2, 48288, Note_on_c, 9, 35, 120
2, 48297, Note_on_c, 9, 53, 0
2, 48297, Note_on_c, 9, 35, 0
2, 48336, Note_on_c, 9, 53, 90
2, 48345, Note_on_c, 9, 53, 0
2, 48384, Note_on_c, 9, 53, 90
2, 48393, Note_on_c, 9, 53, 0
2, 48432, Note_on_c, 9, 53, 105
2, 48432, Note_on_c, 9, 35, 120
2, 48432, Note_on_c, 9, 38, 100
2, 48441, Note_on_c, 9, 53, 0
2, 48441, Note_on_c, 9, 35, 0
2, 48441, Note_on_c, 9, 38, 0
2, 48480, Note_on_c, 9, 53, 90
2, 48489, Note_on_c, 9, 53, 0
2, 48528, Note_on_c, 9, 53, 90
2, 48537, Note_on_c, 9, 53, 0
2, 48576, Note_on_c, 9, 53, 105
2, 48576, Note_on_c, 9, 35, 120
2, 48585, Note_on_c, 9, 53, 0
2, 48585, Note_on_c, 9, 35, 0
2, 48624, Note_on_c, 9, 53, 90
2, 48633, Note_on_c, 9, 53, 0
2, 48672, Note_on_c, 9, 53, 90
2, 48681, Note_on_c, 9, 53, 0
2, 48720, Note_on_c, 9, 53, 105
2, 48720, Note_on_c, 9, 35, 120
2, 48720, Note_on_c, 9, 38, 100
2, 48729, Note_on_c, 9, 53, 0
2, 48729, Note_on_c, 9, 35, 0
2, 48729, Note_on_c, 9, 38, 0
2, 48768, Note_on_c, 9, 53, 90
2, 48777, Note_on_c, 9, 53, 0
2, 48816, Note_on_c, 9, 53, 90
2, 48825, Note_on_c, 9, 53, 0
2, 48864, Note_on_c, 9, 53, 105
2, 48864, Note_on_c, 9, 35, 120
2, 48873, Note_on_c, 9, 53, 0
2, 48873, Note_on_c, 9, 35, 0
2, 48912, Note_on_c, 9, 53, 90
2, 48921, Note_on_c, 9, 53, 0
2, 48960, Note_on_c, 9, 53, 90
2, 48969, Note_on_c, 9, 53, 0
2, 49008, Note_on_c, 9, 53, 105
2, 49008, Note_on_c, 9, 38, 100
2, 49017, Note_on_c, 9, 53, 0
2, 49017, Note_on_c, 9, 38, 0
2, 49056, Note_on_c, 9, 53, 90
2, 49056, Note_on_c, 9, 35, 120
2, 49065, Note_on_c, 9, 53, 0
2, 49065, Note_on_c, 9, 35, 0
2, 49104, Note_on_c, 9, 53, 90
2, 49104, Note_on_c, 9, 35, 120
2, 49113, Note_on_c, 9, 53, 0
2, 49113, Note_on_c, 9, 35, 0
2, 49152, Note_on_c, 9, 53, 105
2, 49152, Note_on_c, 9, 35, 120
2, 49161, Note_on_c, 9, 53, 0
2, 49161, Note_on_c, 9, 35, 0
2, 49200, Note_on_c, 9, 53, 90
2, 49209, Note_on_c, 9, 53, 0
2, 49248, Note_on_c, 9, 53, 90
2, 49257, Note_on_c, 9, 53, 0
2, 49296, Note_on_c, 9, 53, 105
2, 49296, Note_on_c, 9, 35, 120
2, 49296, Note_on_c, 9, 38, 100
2, 49305, Note_on_c, 9, 53, 0
2, 49305, Note_on_c, 9, 35, 0
2, 49305, Note_on_c, 9, 38, 0
2, 49344, Note_on_c, 9, 53, 90
2, 49353, Note_on_c, 9, 53, 0
2, 49392, Note_on_c, 9, 53, 90
2, 49401, Note_on_c, 9, 53, 0
2, 49440, Note_on_c, 9, 53, 105
2, 49440, Note_on_c, 9, 35, 120
2, 49449, Note_on_c, 9, 53, 0
2, 49449, Note_on_c, 9, 35, 0
2, 49488, Note_on_c, 9, 53, 90
2, 49497, Note_on_c, 9, 53, 0
2, 49536, Note_on_c, 9, 53, 90
2, 49545, Note_on_c, 9, 53, 0
2, 49584, Note_on_c, 9, 53, 105
2, 49584, Note_on_c, 9, 35, 120
2, 49584, Note_on_c, 9, 38, 100
2, 49593, Note_on_c, 9, 53, 0
2, 49593, Note_on_c, 9, 35, 0
2, 49593, Note_on_c, 9, 38, 0
2, 49632, Note_on_c, 9, 53, 90
2, 49641, Note_on_c, 9, 53, 0
2, 49680, Note_on_c, 9, 53, 90
2, 49689, Note_on_c, 9, 53, 0
2, 49728, Note_on_c, 9, 53, 105
2, 49728, Note_on_c, 9, 35, 120
2, 49737, Note_on_c, 9, 53, 0
2, 49737, Note_on_c, 9, 35, 0
2, 49776, Note_on_c, 9, 53, 90
2, 49785, Note_on_c, 9, 53, 0
2, 49824, Note_on_c, 9, 53, 90
2, 49833, Note_on_c, 9, 53, 0
2, 49872, Note_on_c, 9, 53, 105
2, 49872, Note_on_c, 9, 35, 120
2, 49872, Note_on_c, 9, 38, 100
2, 49881, Note_on_c, 9, 53, 0
2, 49881, Note_on_c, 9, 35, 0
2, 49881, Note_on_c, 9, 38, 0
2, 49920, Note_on_c, 9, 53, 90
2, 49929, Note_on_c, 9, 53, 0
2, 49968, Note_on_c, 9, 53, 90
2, 49977, Note_on_c, 9, 53, 0
2, 50016, Note_on_c, 9, 53, 105
2, 50016, Note_on_c, 9, 35, 120
2, 50025, Note_on_c, 9, 53, 0
2, 50025, Note_on_c, 9, 35, 0
2, 50064, Note_on_c, 9, 53, 90
2, 50073, Note_on_c, 9, 53, 0
2, 50112, Note_on_c, 9, 53, 90
2, 50121, Note_on_c, 9, 53, 0
2, 50160, Note_on_c, 9, 53, 105
2, 50160, Note_on_c, 9, 38, 100
2, 50160, Note_on_c, 9, 35, 120
2, 50169, Note_on_c, 9, 53, 0
2, 50169, Note_on_c, 9, 38, 0
2, 50169, Note_on_c, 9, 35, 0
2, 50208, Note_on_c, 9, 53, 90
2, 50217, Note_on_c, 9, 53, 0
2, 50256, Note_on_c, 9, 53, 90
2, 50265, Note_on_c, 9, 53, 0
2, 50304, Note_on_c, 9, 53, 105
2, 50304, Note_on_c, 9, 35, 120
2, 50313, Note_on_c, 9, 53, 0
2, 50313, Note_on_c, 9, 35, 0
2, 50352, Note_on_c, 9, 53, 90
2, 50361, Note_on_c, 9, 53, 0
2, 50400, Note_on_c, 9, 53, 90
2, 50409, Note_on_c, 9, 53, 0
2, 50448, Note_on_c, 9, 53, 105
2, 50448, Note_on_c, 9, 38, 100
2, 50457, Note_on_c, 9, 53, 0
2, 50457, Note_on_c, 9, 38, 0
2, 50496, Note_on_c, 9, 53, 90
2, 50496, Note_on_c, 9, 35, 120
2, 50505, Note_on_c, 9, 53, 0
2, 50505, Note_on_c, 9, 35, 0
2, 50544, Note_on_c, 9, 53, 90
2, 50544, Note_on_c, 9, 35, 120
2, 50553, Note_on_c, 9, 53, 0
2, 50553, Note_on_c, 9, 35, 0
2, 50592, Note_on_c, 9, 53, 105
2, 50592, Note_on_c, 9, 35, 120
2, 50601, Note_on_c, 9, 53, 0
2, 50601, Note_on_c, 9, 35, 0
2, 50640, Note_on_c, 9, 53, 90
2, 50649, Note_on_c, 9, 53, 0
2, 50688, Note_on_c, 9, 53, 90
2, 50697, Note_on_c, 9, 53, 0
2, 50736, Note_on_c, 9, 53, 105
2, 50736, Note_on_c, 9, 38, 100
2, 50736, Note_on_c, 9, 35, 120
2, 50745, Note_on_c, 9, 53, 0
2, 50745, Note_on_c, 9, 38, 0
2, 50745, Note_on_c, 9, 35, 0
2, 50784, Note_on_c, 9, 53, 90
2, 50793, Note_on_c, 9, 53, 0
2, 50832, Note_on_c, 9, 53, 90
2, 50841, Note_on_c, 9, 53, 0
2, 50856, Note_on_c, 9, 53, 90
2, 50865, Note_on_c, 9, 53, 0
2, 50880, Note_on_c, 9, 53, 105
2, 50880, Note_on_c, 9, 35, 120
2, 50889, Note_on_c, 9, 53, 0
2, 50889, Note_on_c, 9, 35, 0
2, 50928, Note_on_c, 9, 53, 90
2, 50937, Note_on_c, 9, 53, 0
2, 50976, Note_on_c, 9, 53, 90
2, 50985, Note_on_c, 9, 53, 0
2, 51024, Note_on_c, 9, 53, 105
2, 51024, Note_on_c, 9, 38, 100
2, 51024, Note_on_c, 9, 35, 120
2, 51033, Note_on_c, 9, 53, 0
2, 51033, Note_on_c, 9, 38, 0
2, 51033, Note_on_c, 9, 35, 0
2, 51072, Note_on_c, 9, 53, 90
2, 51081, Note_on_c, 9, 53, 0
2, 51120, Note_on_c, 9, 53, 90
2, 51129, Note_on_c, 9, 53, 0
2, 51168, Note_on_c, 9, 35, 120
2, 51168, Note_on_c, 9, 49, 100
2, 51177, Note_on_c, 9, 35, 0
2, 51177, Note_on_c, 9, 49, 0
2, 51216, Note_on_c, 9, 53, 90
2, 51225, Note_on_c, 9, 53, 0
2, 51264, Note_on_c, 9, 53, 90
2, 51273, Note_on_c, 9, 53, 0
2, 51312, Note_on_c, 9, 53, 105
2, 51312, Note_on_c, 9, 35, 120
2, 51312, Note_on_c, 9, 38, 100
2, 51321, Note_on_c, 9, 53, 0
2, 51321, Note_on_c, 9, 35, 0
2, 51321, Note_on_c, 9, 38, 0
2, 51360, Note_on_c, 9, 53, 90
2, 51369, Note_on_c, 9, 53, 0
2, 51408, Note_on_c, 9, 53, 90
2, 51417, Note_on_c, 9, 53, 0
2, 51456, Note_on_c, 9, 53, 105
2, 51456, Note_on_c, 9, 35, 120
2, 51465, Note_on_c, 9, 53, 0
2, 51465, Note_on_c, 9, 35, 0
2, 51504, Note_on_c, 9, 53, 90
2, 51513, Note_on_c, 9, 53, 0
2, 51552, Note_on_c, 9, 53, 90
2, 51561, Note_on_c, 9, 53, 0
2, 51600, Note_on_c, 9, 53, 105
2, 51600, Note_on_c, 9, 35, 120
2, 51600, Note_on_c, 9, 38, 100
2, 51609, Note_on_c, 9, 53, 0
2, 51609, Note_on_c, 9, 35, 0
2, 51609, Note_on_c, 9, 38, 0
2, 51648, Note_on_c, 9, 53, 90
2, 51657, Note_on_c, 9, 53, 0
2, 51696, Note_on_c, 9, 53, 90
2, 51705, Note_on_c, 9, 53, 0
2, 51744, Note_on_c, 9, 53, 105
2, 51744, Note_on_c, 9, 35, 120
2, 51753, Note_on_c, 9, 53, 0
2, 51753, Note_on_c, 9, 35, 0
2, 51792, Note_on_c, 9, 53, 90
2, 51801, Note_on_c, 9, 53, 0
2, 51840, Note_on_c, 9, 53, 90
2, 51849, Note_on_c, 9, 53, 0
2, 51888, Note_on_c, 9, 53, 105
2, 51888, Note_on_c, 9, 38, 100
2, 51897, Note_on_c, 9, 53, 0
2, 51897, Note_on_c, 9, 38, 0
2, 51936, Note_on_c, 9, 53, 90
2, 51936, Note_on_c, 9, 35, 120
2, 51945, Note_on_c, 9, 53, 0
2, 51945, Note_on_c, 9, 35, 0
2, 51984, Note_on_c, 9, 53, 90
2, 51984, Note_on_c, 9, 35, 120
2, 51993, Note_on_c, 9, 53, 0
2, 51993, Note_on_c, 9, 35, 0
2, 52032, Note_on_c, 9, 53, 105
2, 52032, Note_on_c, 9, 35, 120
2, 52041, Note_on_c, 9, 53, 0
2, 52041, Note_on_c, 9, 35, 0
2, 52080, Note_on_c, 9, 53, 90
2, 52089, Note_on_c, 9, 53, 0
2, 52128, Note_on_c, 9, 53, 90
2, 52137, Note_on_c, 9, 53, 0
2, 52176, Note_on_c, 9, 53, 105
2, 52176, Note_on_c, 9, 35, 120
2, 52176, Note_on_c, 9, 38, 100
2, 52185, Note_on_c, 9, 53, 0
2, 52185, Note_on_c, 9, 35, 0
2, 52185, Note_on_c, 9, 38, 0
2, 52224, Note_on_c, 9, 53, 90
2, 52233, Note_on_c, 9, 53, 0
2, 52272, Note_on_c, 9, 53, 90
2, 52281, Note_on_c, 9, 53, 0
2, 52320, Note_on_c, 9, 53, 105
2, 52320, Note_on_c, 9, 35, 120
2, 52329, Note_on_c, 9, 53, 0
2, 52329, Note_on_c, 9, 35, 0
2, 52368, Note_on_c, 9, 53, 90
2, 52377, Note_on_c, 9, 53, 0
2, 52416, Note_on_c, 9, 53, 90
2, 52425, Note_on_c, 9, 53, 0
2, 52464, Note_on_c, 9, 53, 105
2, 52464, Note_on_c, 9, 38, 100
2, 52464, Note_on_c, 9, 35, 120
2, 52473, Note_on_c, 9, 53, 0
2, 52473, Note_on_c, 9, 38, 0
2, 52473, Note_on_c, 9, 35, 0
2, 52512, Note_on_c, 9, 53, 90
2, 52521, Note_on_c, 9, 53, 0
2, 52560, Note_on_c, 9, 53, 90
2, 52569, Note_on_c, 9, 53, 0
2, 52608, Note_on_c, 9, 53, 105
2, 52608, Note_on_c, 9, 35, 120
2, 52617, Note_on_c, 9, 53, 0
2, 52617, Note_on_c, 9, 35, 0
2, 52656, Note_on_c, 9, 53, 90
2, 52665, Note_on_c, 9, 53, 0
2, 52704, Note_on_c, 9, 53, 90
2, 52713, Note_on_c, 9, 53, 0
2, 52752, Note_on_c, 9, 53, 105
2, 52752, Note_on_c, 9, 35, 120
2, 52752, Note_on_c, 9, 38, 100
2, 52761, Note_on_c, 9, 53, 0
2, 52761, Note_on_c, 9, 35, 0
2, 52761, Note_on_c, 9, 38, 0
2, 52800, Note_on_c, 9, 53, 90
2, 52809, Note_on_c, 9, 53, 0
2, 52848, Note_on_c, 9, 53, 90
2, 52857, Note_on_c, 9, 53, 0
2, 52896, Note_on_c, 9, 53, 105
2, 52896, Note_on_c, 9, 35, 120
2, 52905, Note_on_c, 9, 53, 0
2, 52905, Note_on_c, 9, 35, 0
2, 52944, Note_on_c, 9, 53, 90
2, 52953, Note_on_c, 9, 53, 0
2, 52992, Note_on_c, 9, 53, 90
2, 53001, Note_on_c, 9, 53, 0
2, 53040, Note_on_c, 9, 53, 105
2, 53040, Note_on_c, 9, 35, 120
2, 53040, Note_on_c, 9, 38, 100
2, 53049, Note_on_c, 9, 53, 0
2, 53049, Note_on_c, 9, 35, 0
2, 53049, Note_on_c, 9, 38, 0
2, 53088, Note_on_c, 9, 53, 90
2, 53097, Note_on_c, 9, 53, 0
2, 53136, Note_on_c, 9, 53, 90
2, 53145, Note_on_c, 9, 53, 0
2, 53184, Note_on_c, 9, 53, 105
2, 53184, Note_on_c, 9, 35, 120
2, 53193, Note_on_c, 9, 53, 0
2, 53193, Note_on_c, 9, 35, 0
2, 53232, Note_on_c, 9, 53, 90
2, 53241, Note_on_c, 9, 53, 0
2, 53280, Note_on_c, 9, 53, 90
2, 53289, Note_on_c, 9, 53, 0
2, 53328, Note_on_c, 9, 53, 105
2, 53328, Note_on_c, 9, 38, 100
2, 53337, Note_on_c, 9, 53, 0
2, 53337, Note_on_c, 9, 38, 0
2, 53376, Note_on_c, 9, 53, 90
2, 53376, Note_on_c, 9, 35, 120
2, 53385, Note_on_c, 9, 53, 0
2, 53385, Note_on_c, 9, 35, 0
2, 53424, Note_on_c, 9, 53, 90
2, 53424, Note_on_c, 9, 35, 120
2, 53433, Note_on_c, 9, 53, 0
2, 53433, Note_on_c, 9, 35, 0
2, 53472, Note_on_c, 9, 53, 105
2, 53472, Note_on_c, 9, 35, 120
2, 53481, Note_on_c, 9, 53, 0
2, 53481, Note_on_c, 9, 35, 0
2, 53520, Note_on_c, 9, 53, 90
2, 53529, Note_on_c, 9, 53, 0
2, 53568, Note_on_c, 9, 53, 90
2, 53577, Note_on_c, 9, 53, 0
2, 53616, Note_on_c, 9, 53, 105
2, 53616, Note_on_c, 9, 38, 100
2, 53616, Note_on_c, 9, 35, 120
2, 53625, Note_on_c, 9, 53, 0
2, 53625, Note_on_c, 9, 38, 0
2, 53625, Note_on_c, 9, 35, 0
2, 53664, Note_on_c, 9, 53, 90
2, 53673, Note_on_c, 9, 53, 0
2, 53712, Note_on_c, 9, 53, 90
2, 53721, Note_on_c, 9, 53, 0
2, 53760, Note_on_c, 9, 53, 105
2, 53760, Note_on_c, 9, 35, 120
2, 53769, Note_on_c, 9, 53, 0
2, 53769, Note_on_c, 9, 35, 0
2, 53808, Note_on_c, 9, 53, 90
2, 53817, Note_on_c, 9, 53, 0
2, 53856, Note_on_c, 9, 53, 90
2, 53865, Note_on_c, 9, 53, 0
2, 53904, Note_on_c, 9, 53, 105
2, 53904, Note_on_c, 9, 38, 100
2, 53904, Note_on_c, 9, 35, 120
2, 53913, Note_on_c, 9, 53, 0
2, 53913, Note_on_c, 9, 38, 0
2, 53913, Note_on_c, 9, 35, 0
2, 53952, Note_on_c, 9, 53, 90
2, 53961, Note_on_c, 9, 53, 0
2, 54000, Note_on_c, 9, 53, 90
2, 54009, Note_on_c, 9, 53, 0
2, 54048, Note_on_c, 9, 53, 105
2, 54048, Note_on_c, 9, 35, 120
2, 54057, Note_on_c, 9, 53, 0
2, 54057, Note_on_c, 9, 35, 0
2, 54096, Note_on_c, 9, 53, 90
2, 54105, Note_on_c, 9, 53, 0
2, 54144, Note_on_c, 9, 53, 90
2, 54153, Note_on_c, 9, 53, 0
2, 54192, Note_on_c, 9, 53, 105
2, 54192, Note_on_c, 9, 35, 120
2, 54192, Note_on_c, 9, 38, 100
2, 54201, Note_on_c, 9, 53, 0
2, 54201, Note_on_c, 9, 35, 0
2, 54201, Note_on_c, 9, 38, 0
2, 54240, Note_on_c, 9, 53, 90
2, 54249, Note_on_c, 9, 53, 0
2, 54288, Note_on_c, 9, 53, 90
2, 54297, Note_on_c, 9, 53, 0
2, 54336, Note_on_c, 9, 53, 105
2, 54336, Note_on_c, 9, 35, 120
2, 54345, Note_on_c, 9, 53, 0
2, 54345, Note_on_c, 9, 35, 0
2, 54384, Note_on_c, 9, 53, 90
2, 54393, Note_on_c, 9, 53, 0
2, 54432, Note_on_c, 9, 53, 90
2, 54441, Note_on_c, 9, 53, 0
2, 54480, Note_on_c, 9, 53, 105
2, 54480, Note_on_c, 9, 38, 100
2, 54480, Note_on_c, 9, 35, 120
2, 54489, Note_on_c, 9, 53, 0
2, 54489, Note_on_c, 9, 38, 0
2, 54489, Note_on_c, 9, 35, 0
2, 54528, Note_on_c, 9, 53, 90
2, 54537, Note_on_c, 9, 53, 0
2, 54576, Note_on_c, 9, 53, 90
2, 54585, Note_on_c, 9, 53, 0
2, 54624, Note_on_c, 9, 53, 105
2, 54624, Note_on_c, 9, 35, 120
2, 54633, Note_on_c, 9, 53, 0
2, 54633, Note_on_c, 9, 35, 0
2, 54672, Note_on_c, 9, 53, 90
2, 54681, Note_on_c, 9, 53, 0
2, 54720, Note_on_c, 9, 53, 90
2, 54729, Note_on_c, 9, 53, 0
2, 54768, Note_on_c, 9, 53, 105
2, 54768, Note_on_c, 9, 38, 100
2, 54777, Note_on_c, 9, 53, 0
2, 54777, Note_on_c, 9, 38, 0
2, 54816, Note_on_c, 9, 53, 90
2, 54816, Note_on_c, 9, 35, 120
2, 54825, Note_on_c, 9, 53, 0
2, 54825, Note_on_c, 9, 35, 0
2, 54864, Note_on_c, 9, 53, 90
2, 54864, Note_on_c, 9, 35, 120
2, 54873, Note_on_c, 9, 53, 0
2, 54873, Note_on_c, 9, 35, 0
2, 54912, Note_on_c, 9, 53, 105
2, 54912, Note_on_c, 9, 35, 120
2, 54921, Note_on_c, 9, 53, 0
2, 54921, Note_on_c, 9, 35, 0
2, 54960, Note_on_c, 9, 53, 90
2, 54969, Note_on_c, 9, 53, 0
2, 55008, Note_on_c, 9, 53, 90
2, 55017, Note_on_c, 9, 53, 0
2, 55056, Note_on_c, 9, 53, 105
2, 55056, Note_on_c, 9, 38, 100
2, 55056, Note_on_c, 9, 35, 120
2, 55065, Note_on_c, 9, 53, 0
2, 55065, Note_on_c, 9, 38, 0
2, 55065, Note_on_c, 9, 35, 0
2, 55104, Note_on_c, 9, 53, 90
2, 55113, Note_on_c, 9, 53, 0
2, 55152, Note_on_c, 9, 53, 90
2, 55161, Note_on_c, 9, 53, 0
2, 55176, Note_on_c, 9, 53, 90
2, 55185, Note_on_c, 9, 53, 0
2, 55200, Note_on_c, 9, 53, 105
2, 55200, Note_on_c, 9, 35, 120
2, 55209, Note_on_c, 9, 53, 0
2, 55209, Note_on_c, 9, 35, 0
2, 55248, Note_on_c, 9, 53, 90
2, 55257, Note_on_c, 9, 53, 0
2, 55296, Note_on_c, 9, 53, 90
2, 55305, Note_on_c, 9, 53, 0
2, 55344, Note_on_c, 9, 53, 105
2, 55344, Note_on_c, 9, 38, 100
2, 55344, Note_on_c, 9, 35, 120
2, 55353, Note_on_c, 9, 53, 0
2, 55353, Note_on_c, 9, 38, 0
2, 55353, Note_on_c, 9, 35, 0
2, 55392, Note_on_c, 9, 53, 90
2, 55401, Note_on_c, 9, 53, 0
2, 55440, Note_on_c, 9, 53, 90
2, 55449, Note_on_c, 9, 53, 0
2, 55488, Note_on_c, 9, 35, 120
2, 55488, Note_on_c, 9, 49, 100
2, 55497, Note_on_c, 9, 35, 0
2, 55497, Note_on_c, 9, 49, 0
2, 55536, Note_on_c, 9, 53, 90
2, 55545, Note_on_c, 9, 53, 0
2, 55584, Note_on_c, 9, 53, 90
2, 55593, Note_on_c, 9, 53, 0
2, 55632, Note_on_c, 9, 53, 105
2, 55632, Note_on_c, 9, 38, 100
2, 55632, Note_on_c, 9, 35, 120
2, 55641, Note_on_c, 9, 53, 0
2, 55641, Note_on_c, 9, 38, 0
2, 55641, Note_on_c, 9, 35, 0
2, 55680, Note_on_c, 9, 53, 90
2, 55689, Note_on_c, 9, 53, 0
2, 55728, Note_on_c, 9, 53, 90
2, 55737, Note_on_c, 9, 53, 0
2, 55776, Note_on_c, 9, 53, 105
2, 55776, Note_on_c, 9, 35, 120
2, 55785, Note_on_c, 9, 53, 0
2, 55785, Note_on_c, 9, 35, 0
2, 55824, Note_on_c, 9, 53, 90
2, 55833, Note_on_c, 9, 53, 0
2, 55872, Note_on_c, 9, 53, 90
2, 55881, Note_on_c, 9, 53, 0
2, 55920, Note_on_c, 9, 53, 105
2, 55920, Note_on_c, 9, 38, 100
2, 55920, Note_on_c, 9, 35, 120
2, 55929, Note_on_c, 9, 53, 0
2, 55929, Note_on_c, 9, 38, 0
2, 55929, Note_on_c, 9, 35, 0
2, 55968, Note_on_c, 9, 53, 90
2, 55977, Note_on_c, 9, 53, 0
2, 56016, Note_on_c, 9, 53, 90
2, 56025, Note_on_c, 9, 53, 0
2, 56064, Note_on_c, 9, 53, 105
2, 56064, Note_on_c, 9, 35, 120
2, 56073, Note_on_c, 9, 53, 0
2, 56073, Note_on_c, 9, 35, 0
2, 56112, Note_on_c, 9, 53, 90
2, 56121, Note_on_c, 9, 53, 0
2, 56160, Note_on_c, 9, 53, 90
2, 56169, Note_on_c, 9, 53, 0
2, 56208, Note_on_c, 9, 53, 105
2, 56208, Note_on_c, 9, 38, 100
2, 56217, Note_on_c, 9, 53, 0
2, 56217, Note_on_c, 9, 38, 0
2, 56256, Note_on_c, 9, 53, 90
2, 56256, Note_on_c, 9, 35, 120
2, 56265, Note_on_c, 9, 53, 0
2, 56265, Note_on_c, 9, 35, 0
2, 56304, Note_on_c, 9, 53, 90
2, 56304, Note_on_c, 9, 35, 120
2, 56313, Note_on_c, 9, 53, 0
2, 56313, Note_on_c, 9, 35, 0
2, 56352, Note_on_c, 9, 53, 105
2, 56352, Note_on_c, 9, 35, 120
2, 56361, Note_on_c, 9, 53, 0
2, 56361, Note_on_c, 9, 35, 0
2, 56400, Note_on_c, 9, 53, 90
2, 56409, Note_on_c, 9, 53, 0
2, 56448, Note_on_c, 9, 53, 90
2, 56457, Note_on_c, 9, 53, 0
2, 56496, Note_on_c, 9, 53, 105
2, 56496, Note_on_c, 9, 35, 120
2, 56496, Note_on_c, 9, 38, 100
2, 56505, Note_on_c, 9, 53, 0
2, 56505, Note_on_c, 9, 35, 0
2, 56505, Note_on_c, 9, 38, 0
2, 56544, Note_on_c, 9, 53, 90
2, 56553, Note_on_c, 9, 53, 0
2, 56592, Note_on_c, 9, 53, 90
2, 56601, Note_on_c, 9, 53, 0
2, 56640, Note_on_c, 9, 53, 105
2, 56640, Note_on_c, 9, 35, 120
2, 56649, Note_on_c, 9, 53, 0
2, 56649, Note_on_c, 9, 35, 0
2, 56688, Note_on_c, 9, 53, 90
2, 56697, Note_on_c, 9, 53, 0
2, 56736, Note_on_c, 9, 53, 90
2, 56745, Note_on_c, 9, 53, 0
2, 56784, Note_on_c, 9, 53, 105
2, 56784, Note_on_c, 9, 35, 120
2, 56784, Note_on_c, 9, 38, 100
2, 56793, Note_on_c, 9, 53, 0
2, 56793, Note_on_c, 9, 35, 0
2, 56793, Note_on_c, 9, 38, 0
2, 56832, Note_on_c, 9, 53, 90
2, 56841, Note_on_c, 9, 53, 0
2, 56880, Note_on_c, 9, 53, 90
2, 56889, Note_on_c, 9, 53, 0
2, 56928, Note_on_c, 9, 53, 105
2, 56928, Note_on_c, 9, 35, 120
2, 56937, Note_on_c, 9, 53, 0
2, 56937, Note_on_c, 9, 35, 0
2, 56976, Note_on_c, 9, 53, 90
2, 56985, Note_on_c, 9, 53, 0
2, 57024, Note_on_c, 9, 53, 90
2, 57033, Note_on_c, 9, 53, 0
2, 57072, Note_on_c, 9, 53, 105
2, 57072, Note_on_c, 9, 38, 100
2, 57072, Note_on_c, 9, 35, 120
2, 57081, Note_on_c, 9, 53, 0
2, 57081, Note_on_c, 9, 38, 0
2, 57081, Note_on_c, 9, 35, 0
2, 57120, Note_on_c, 9, 53, 90
2, 57129, Note_on_c, 9, 53, 0
2, 57168, Note_on_c, 9, 53, 90
2, 57177, Note_on_c, 9, 53, 0
2, 57216, Note_on_c, 9, 53, 105
2, 57216, Note_on_c, 9, 35, 120
2, 57225, Note_on_c, 9, 53, 0
2, 57225, Note_on_c, 9, 35, 0
2, 57264, Note_on_c, 9, 53, 90
2, 57273, Note_on_c, 9, 53, 0
2, 57312, Note_on_c, 9, 53, 90
2, 57321, Note_on_c, 9, 53, 0
2, 57360, Note_on_c, 9, 53, 105
2, 57360, Note_on_c, 9, 35, 120
2, 57360, Note_on_c, 9, 38, 100
2, 57369, Note_on_c, 9, 53, 0
2, 57369, Note_on_c, 9, 35, 0
2, 57369, Note_on_c, 9, 38, 0
2, 57408, Note_on_c, 9, 53, 90
2, 57417, Note_on_c, 9, 53, 0
2, 57456, Note_on_c, 9, 53, 90
2, 57465, Note_on_c, 9, 53, 0
2, 57504, Note_on_c, 9, 53, 105
2, 57504, Note_on_c, 9, 35, 120
2, 57513, Note_on_c, 9, 53, 0
2, 57513, Note_on_c, 9, 35, 0
2, 57552, Note_on_c, 9, 53, 90
2, 57561, Note_on_c, 9, 53, 0
2, 57600, Note_on_c, 9, 53, 90
2, 57609, Note_on_c, 9, 53, 0
2, 57648, Note_on_c, 9, 53, 105
2, 57648, Note_on_c, 9, 38, 100
2, 57657, Note_on_c, 9, 53, 0
2, 57657, Note_on_c, 9, 38, 0
2, 57696, Note_on_c, 9, 53, 90
2, 57696, Note_on_c, 9, 35, 120
2, 57705, Note_on_c, 9, 53, 0
2, 57705, Note_on_c, 9, 35, 0
2, 57744, Note_on_c, 9, 53, 90
2, 57744, Note_on_c, 9, 35, 120
2, 57753, Note_on_c, 9, 53, 0
2, 57753, Note_on_c, 9, 35, 0
2, 57792, Note_on_c, 9, 53, 105
2, 57792, Note_on_c, 9, 35, 120
2, 57801, Note_on_c, 9, 53, 0
2, 57801, Note_on_c, 9, 35, 0
2, 57840, Note_on_c, 9, 53, 90
2, 57849, Note_on_c, 9, 53, 0
2, 57888, Note_on_c, 9, 53, 90
2, 57897, Note_on_c, 9, 53, 0
2, 57936, Note_on_c, 9, 53, 105
2, 57936, Note_on_c, 9, 38, 100
2, 57936, Note_on_c, 9, 35, 120
2, 57945, Note_on_c, 9, 53, 0
2, 57945, Note_on_c, 9, 38, 0
2, 57945, Note_on_c, 9, 35, 0
2, 57984, Note_on_c, 9, 53, 90
2, 57993, Note_on_c, 9, 53, 0
2, 58032, Note_on_c, 9, 53, 90
2, 58041, Note_on_c, 9, 53, 0
2, 58080, Note_on_c, 9, 53, 105
2, 58080, Note_on_c, 9, 35, 120
2, 58089, Note_on_c, 9, 53, 0
2, 58089, Note_on_c, 9, 35, 0
2, 58128, Note_on_c, 9, 53, 90
2, 58137, Note_on_c, 9, 53, 0
2, 58176, Note_on_c, 9, 53, 90
2, 58185, Note_on_c, 9, 53, 0
2, 58224, Note_on_c, 9, 53, 105
2, 58224, Note_on_c, 9, 35, 120
2, 58224, Note_on_c, 9, 38, 100
2, 58233, Note_on_c, 9, 53, 0
2, 58233, Note_on_c, 9, 35, 0
2, 58233, Note_on_c, 9, 38, 0
2, 58272, Note_on_c, 9, 53, 90
2, 58281, Note_on_c, 9, 53, 0
2, 58320, Note_on_c, 9, 53, 90
2, 58329, Note_on_c, 9, 53, 0
2, 58368, Note_on_c, 9, 53, 105
2, 58368, Note_on_c, 9, 35, 120
2, 58377, Note_on_c, 9, 53, 0
2, 58377, Note_on_c, 9, 35, 0
2, 58416, Note_on_c, 9, 53, 90
2, 58425, Note_on_c, 9, 53, 0
2, 58464, Note_on_c, 9, 53, 90
2, 58473, Note_on_c, 9, 53, 0
2, 58512, Note_on_c, 9, 53, 105
2, 58512, Note_on_c, 9, 38, 100
2, 58512, Note_on_c, 9, 35, 120
2, 58521, Note_on_c, 9, 53, 0
2, 58521, Note_on_c, 9, 38, 0
2, 58521, Note_on_c, 9, 35, 0
2, 58560, Note_on_c, 9, 53, 90
2, 58569, Note_on_c, 9, 53, 0
2, 58608, Note_on_c, 9, 53, 90
2, 58617, Note_on_c, 9, 53, 0
2, 58656, Note_on_c, 9, 53, 105
2, 58656, Note_on_c, 9, 35, 120
2, 58665, Note_on_c, 9, 53, 0
2, 58665, Note_on_c, 9, 35, 0
2, 58704, Note_on_c, 9, 53, 90
2, 58713, Note_on_c, 9, 53, 0
2, 58752, Note_on_c, 9, 53, 90
2, 58761, Note_on_c, 9, 53, 0
2, 58800, Note_on_c, 9, 53, 105
2, 58800, Note_on_c, 9, 38, 100
2, 58800, Note_on_c, 9, 35, 120
2, 58809, Note_on_c, 9, 53, 0
2, 58809, Note_on_c, 9, 38, 0
2, 58809, Note_on_c, 9, 35, 0
2, 58848, Note_on_c, 9, 53, 90
2, 58857, Note_on_c, 9, 53, 0
2, 58896, Note_on_c, 9, 53, 90
2, 58905, Note_on_c, 9, 53, 0
2, 58944, Note_on_c, 9, 53, 105
2, 58944, Note_on_c, 9, 35, 120
2, 58953, Note_on_c, 9, 53, 0
2, 58953, Note_on_c, 9, 35, 0
2, 58992, Note_on_c, 9, 53, 90
2, 59001, Note_on_c, 9, 53, 0
2, 59040, Note_on_c, 9, 53, 90
2, 59049, Note_on_c, 9, 53, 0
2, 59088, Note_on_c, 9, 53, 105
2, 59088, Note_on_c, 9, 38, 100
2, 59097, Note_on_c, 9, 53, 0
2, 59097, Note_on_c, 9, 38, 0
2, 59136, Note_on_c, 9, 53, 90
2, 59136, Note_on_c, 9, 35, 120
2, 59145, Note_on_c, 9, 53, 0
2, 59145, Note_on_c, 9, 35, 0
2, 59184, Note_on_c, 9, 53, 90
2, 59184, Note_on_c, 9, 35, 120
2, 59193, Note_on_c, 9, 53, 0
2, 59193, Note_on_c, 9, 35, 0
2, 59232, Note_on_c, 9, 53, 105
2, 59232, Note_on_c, 9, 35, 120
2, 59241, Note_on_c, 9, 53, 0
2, 59241, Note_on_c, 9, 35, 0
2, 59280, Note_on_c, 9, 53, 90
2, 59289, Note_on_c, 9, 53, 0
2, 59328, Note_on_c, 9, 53, 90
2, 59337, Note_on_c, 9, 53, 0
2, 59376, Note_on_c, 9, 53, 105
2, 59376, Note_on_c, 9, 38, 100
2, 59376, Note_on_c, 9, 35, 120
2, 59385, Note_on_c, 9, 53, 0
2, 59385, Note_on_c, 9, 38, 0
2, 59385, Note_on_c, 9, 35, 0
2, 59424, Note_on_c, 9, 53, 90
2, 59433, Note_on_c, 9, 53, 0
2, 59472, Note_on_c, 9, 53, 90
2, 59481, Note_on_c, 9, 53, 0
2, 59496, Note_on_c, 9, 53, 90
2, 59505, Note_on_c, 9, 53, 0
2, 59520, Note_on_c, 9, 53, 105
2, 59520, Note_on_c, 9, 35, 120
2, 59529, Note_on_c, 9, 53, 0
2, 59529, Note_on_c, 9, 35, 0
2, 59568, Note_on_c, 9, 53, 90
2, 59577, Note_on_c, 9, 53, 0
2, 59616, Note_on_c, 9, 53, 90
2, 59625, Note_on_c, 9, 53, 0
2, 59664, Note_on_c, 9, 53, 105
2, 59664, Note_on_c, 9, 35, 120
2, 59664, Note_on_c, 9, 38, 100
2, 59673, Note_on_c, 9, 53, 0
2, 59673, Note_on_c, 9, 35, 0
2, 59673, Note_on_c, 9, 38, 0
2, 59712, Note_on_c, 9, 53, 90
2, 59721, Note_on_c, 9, 53, 0
2, 59760, Note_on_c, 9, 53, 90
2, 59769, Note_on_c, 9, 53, 0
2, 59808, Note_on_c, 9, 49, 100
2, 59808, Note_on_c, 9, 35, 120
2, 59817, Note_on_c, 9, 49, 0
2, 59817, Note_on_c, 9, 35, 0
2, 59856, Note_on_c, 9, 53, 90
2, 59865, Note_on_c, 9, 53, 0
2, 59904, Note_on_c, 9, 53, 90
2, 59913, Note_on_c, 9, 53, 0
2, 59952, Note_on_c, 9, 53, 105
2, 59952, Note_on_c, 9, 38, 100
2, 59952, Note_on_c, 9, 35, 120
2, 59961, Note_on_c, 9, 53, 0
2, 59961, Note_on_c, 9, 38, 0
2, 59961, Note_on_c, 9, 35, 0
2, 60000, Note_on_c, 9, 53, 90
2, 60009, Note_on_c, 9, 53, 0
2, 60048, Note_on_c, 9, 53, 90
2, 60057, Note_on_c, 9, 53, 0
2, 60096, Note_on_c, 9, 53, 105
2, 60096, Note_on_c, 9, 35, 120
2, 60105, Note_on_c, 9, 53, 0
2, 60105, Note_on_c, 9, 35, 0
2, 60144, Note_on_c, 9, 53, 90
2, 60153, Note_on_c, 9, 53, 0
2, 60192, Note_on_c, 9, 53, 90
2, 60201, Note_on_c, 9, 53, 0
2, 60240, Note_on_c, 9, 53, 105
2, 60240, Note_on_c, 9, 38, 100
2, 60240, Note_on_c, 9, 35, 120
2, 60249, Note_on_c, 9, 53, 0
2, 60249, Note_on_c, 9, 38, 0
2, 60249, Note_on_c, 9, 35, 0
2, 60288, Note_on_c, 9, 53, 90
2, 60297, Note_on_c, 9, 53, 0
2, 60336, Note_on_c, 9, 53, 90
2, 60345, Note_on_c, 9, 53, 0
2, 60384, Note_on_c, 9, 53, 105
2, 60384, Note_on_c, 9, 35, 120
2, 60393, Note_on_c, 9, 53, 0
2, 60393, Note_on_c, 9, 35, 0
2, 60432, Note_on_c, 9, 53, 90
2, 60441, Note_on_c, 9, 53, 0
2, 60480, Note_on_c, 9, 53, 90
2, 60489, Note_on_c, 9, 53, 0
2, 60528, Note_on_c, 9, 53, 105
2, 60528, Note_on_c, 9, 38, 100
2, 60537, Note_on_c, 9, 53, 0
2, 60537, Note_on_c, 9, 38, 0
2, 60576, Note_on_c, 9, 53, 90
2, 60576, Note_on_c, 9, 35, 120
2, 60585, Note_on_c, 9, 53, 0
2, 60585, Note_on_c, 9, 35, 0
2, 60624, Note_on_c, 9, 53, 90
2, 60624, Note_on_c, 9, 35, 120
2, 60633, Note_on_c, 9, 53, 0
2, 60633, Note_on_c, 9, 35, 0
2, 60672, Note_on_c, 9, 53, 105
2, 60672, Note_on_c, 9, 35, 120
2, 60681, Note_on_c, 9, 53, 0
2, 60681, Note_on_c, 9, 35, 0
2, 60720, Note_on_c, 9, 53, 90
2, 60729, Note_on_c, 9, 53, 0
2, 60768, Note_on_c, 9, 53, 90
2, 60777, Note_on_c, 9, 53, 0
2, 60816, Note_on_c, 9, 53, 105
2, 60816, Note_on_c, 9, 35, 120
2, 60816, Note_on_c, 9, 38, 100
2, 60825, Note_on_c, 9, 53, 0
2, 60825, Note_on_c, 9, 35, 0
2, 60825, Note_on_c, 9, 38, 0
2, 60864, Note_on_c, 9, 53, 90
2, 60873, Note_on_c, 9, 53, 0
2, 60912, Note_on_c, 9, 53, 90
2, 60921, Note_on_c, 9, 53, 0
2, 60960, Note_on_c, 9, 53, 105
2, 60960, Note_on_c, 9, 35, 120
2, 60969, Note_on_c, 9, 53, 0
2, 60969, Note_on_c, 9, 35, 0
2, 61008, Note_on_c, 9, 53, 90
2, 61017, Note_on_c, 9, 53, 0
2, 61056, Note_on_c, 9, 53, 90
2, 61065, Note_on_c, 9, 53, 0
2, 61104, Note_on_c, 9, 53, 105
2, 61104, Note_on_c, 9, 35, 120
2, 61104, Note_on_c, 9, 38, 100
2, 61113, Note_on_c, 9, 53, 0
2, 61113, Note_on_c, 9, 35, 0
2, 61113, Note_on_c, 9, 38, 0
2, 61152, Note_on_c, 9, 53, 90
2, 61161, Note_on_c, 9, 53, 0
2, 61200, Note_on_c, 9, 53, 90
2, 61209, Note_on_c, 9, 53, 0
2, 61248, Note_on_c, 9, 53, 105
2, 61248, Note_on_c, 9, 35, 120
2, 61257, Note_on_c, 9, 53, 0
2, 61257, Note_on_c, 9, 35, 0
2, 61296, Note_on_c, 9, 53, 90
2, 61305, Note_on_c, 9, 53, 0
2, 61344, Note_on_c, 9, 53, 90
2, 61353, Note_on_c, 9, 53, 0
2, 61392, Note_on_c, 9, 53, 105
2, 61392, Note_on_c, 9, 35, 120
2, 61392, Note_on_c, 9, 38, 100
2, 61401, Note_on_c, 9, 53, 0
2, 61401, Note_on_c, 9, 35, 0
2, 61401, Note_on_c, 9, 38, 0
2, 61440, Note_on_c, 9, 53, 90
2, 61449, Note_on_c, 9, 53, 0
2, 61488, Note_on_c, 9, 53, 90
2, 61497, Note_on_c, 9, 53, 0
2, 61536, Note_on_c, 9, 53, 105
2, 61536, Note_on_c, 9, 35, 120
2, 61545, Note_on_c, 9, 53, 0
2, 61545, Note_on_c, 9, 35, 0
2, 61584, Note_on_c, 9, 53, 90
2, 61593, Note_on_c, 9, 53, 0
2, 61632, Note_on_c, 9, 53, 90
2, 61641, Note_on_c, 9, 53, 0
2, 61680, Note_on_c, 9, 53, 105
2, 61680, Note_on_c, 9, 35, 120
2, 61680, Note_on_c, 9, 38, 100
2, 61689, Note_on_c, 9, 53, 0
2, 61689, Note_on_c, 9, 35, 0
2, 61689, Note_on_c, 9, 38, 0
2, 61728, Note_on_c, 9, 53, 90
2, 61737, Note_on_c, 9, 53, 0
2, 61776, Note_on_c, 9, 53, 90
2, 61785, Note_on_c, 9, 53, 0
2, 61824, Note_on_c, 9, 53, 105
2, 61824, Note_on_c, 9, 35, 120
2, 61833, Note_on_c, 9, 53, 0
2, 61833, Note_on_c, 9, 35, 0
2, 61872, Note_on_c, 9, 53, 90
2, 61881, Note_on_c, 9, 53, 0
2, 61920, Note_on_c, 9, 53, 90
2, 61929, Note_on_c, 9, 53, 0
2, 61968, Note_on_c, 9, 53, 105
2, 61968, Note_on_c, 9, 38, 100
2, 61977, Note_on_c, 9, 53, 0
2, 61977, Note_on_c, 9, 38, 0
2, 62016, Note_on_c, 9, 53, 90
2, 62016, Note_on_c, 9, 35, 120
2, 62025, Note_on_c, 9, 53, 0
2, 62025, Note_on_c, 9, 35, 0
2, 62064, Note_on_c, 9, 53, 90
2, 62064, Note_on_c, 9, 35, 120
2, 62073, Note_on_c, 9, 53, 0
2, 62073, Note_on_c, 9, 35, 0
2, 62112, Note_on_c, 9, 53, 105
2, 62112, Note_on_c, 9, 35, 120
2, 62121, Note_on_c, 9, 53, 0
2, 62121, Note_on_c, 9, 35, 0
2, 62160, Note_on_c, 9, 53, 90
2, 62169, Note_on_c, 9, 53, 0
2, 62208, Note_on_c, 9, 53, 90
2, 62217, Note_on_c, 9, 53, 0
2, 62256, Note_on_c, 9, 53, 105
2, 62256, Note_on_c, 9, 35, 120
2, 62256, Note_on_c, 9, 38, 100
2, 62265, Note_on_c, 9, 53, 0
2, 62265, Note_on_c, 9, 35, 0
2, 62265, Note_on_c, 9, 38, 0
2, 62304, Note_on_c, 9, 53, 90
2, 62313, Note_on_c, 9, 53, 0
2, 62352, Note_on_c, 9, 53, 90
2, 62361, Note_on_c, 9, 53, 0
2, 62400, Note_on_c, 9, 53, 105
2, 62400, Note_on_c, 9, 35, 120
2, 62409, Note_on_c, 9, 53, 0
2, 62409, Note_on_c, 9, 35, 0
2, 62448, Note_on_c, 9, 53, 90
2, 62457, Note_on_c, 9, 53, 0
2, 62496, Note_on_c, 9, 53, 90
2, 62505, Note_on_c, 9, 53, 0
2, 62544, Note_on_c, 9, 53, 105
2, 62544, Note_on_c, 9, 38, 100
2, 62544, Note_on_c, 9, 35, 120
2, 62553, Note_on_c, 9, 53, 0
2, 62553, Note_on_c, 9, 38, 0
2, 62553, Note_on_c, 9, 35, 0
2, 62592, Note_on_c, 9, 53, 90
2, 62601, Note_on_c, 9, 53, 0
2, 62640, Note_on_c, 9, 53, 90
2, 62649, Note_on_c, 9, 53, 0
2, 62688, Note_on_c, 9, 53, 105
2, 62688, Note_on_c, 9, 35, 120
2, 62697, Note_on_c, 9, 53, 0
2, 62697, Note_on_c, 9, 35, 0
2, 62736, Note_on_c, 9, 53, 90
2, 62745, Note_on_c, 9, 53, 0
2, 62784, Note_on_c, 9, 53, 90
2, 62793, Note_on_c, 9, 53, 0
2, 62832, Note_on_c, 9, 53, 105
2, 62832, Note_on_c, 9, 35, 120
2, 62832, Note_on_c, 9, 38, 100
2, 62841, Note_on_c, 9, 53, 0
2, 62841, Note_on_c, 9, 35, 0
2, 62841, Note_on_c, 9, 38, 0
2, 62880, Note_on_c, 9, 53, 90
2, 62889, Note_on_c, 9, 53, 0
2, 62928, Note_on_c, 9, 53, 90
2, 62937, Note_on_c, 9, 53, 0
2, 62976, Note_on_c, 9, 53, 105
2, 62976, Note_on_c, 9, 35, 120
2, 62985, Note_on_c, 9, 53, 0
2, 62985, Note_on_c, 9, 35, 0
2, 63024, Note_on_c, 9, 53, 90
2, 63033, Note_on_c, 9, 53, 0
2, 63072, Note_on_c, 9, 53, 90
2, 63081, Note_on_c, 9, 53, 0
2, 63120, Note_on_c, 9, 53, 105
2, 63120, Note_on_c, 9, 38, 100
2, 63120, Note_on_c, 9, 35, 120
2, 63129, Note_on_c, 9, 53, 0
2, 63129, Note_on_c, 9, 38, 0
2, 63129, Note_on_c, 9, 35, 0
2, 63168, Note_on_c, 9, 53, 90
2, 63177, Note_on_c, 9, 53, 0
2, 63216, Note_on_c, 9, 53, 90
2, 63225, Note_on_c, 9, 53, 0
2, 63264, Note_on_c, 9, 53, 105
2, 63264, Note_on_c, 9, 35, 120
2, 63273, Note_on_c, 9, 53, 0
2, 63273, Note_on_c, 9, 35, 0
2, 63312, Note_on_c, 9, 53, 90
2, 63321, Note_on_c, 9, 53, 0
2, 63360, Note_on_c, 9, 53, 90
2, 63369, Note_on_c, 9, 53, 0
2, 63408, Note_on_c, 9, 53, 105
2, 63408, Note_on_c, 9, 38, 100
2, 63417, Note_on_c, 9, 53, 0
2, 63417, Note_on_c, 9, 38, 0
2, 63456, Note_on_c, 9, 53, 90
2, 63456, Note_on_c, 9, 35, 120
2, 63465, Note_on_c, 9, 53, 0
2, 63465, Note_on_c, 9, 35, 0
2, 63504, Note_on_c, 9, 53, 90
2, 63504, Note_on_c, 9, 35, 120
2, 63513, Note_on_c, 9, 53, 0
2, 63513, Note_on_c, 9, 35, 0
2, 63552, Note_on_c, 9, 53, 105
2, 63552, Note_on_c, 9, 35, 120
2, 63561, Note_on_c, 9, 53, 0
2, 63561, Note_on_c, 9, 35, 0
2, 63600, Note_on_c, 9, 53, 90
2, 63609, Note_on_c, 9, 53, 0
2, 63648, Note_on_c, 9, 53, 90
2, 63657, Note_on_c, 9, 53, 0
2, 63696, Note_on_c, 9, 53, 105
2, 63696, Note_on_c, 9, 35, 120
2, 63696, Note_on_c, 9, 38, 100
2, 63705, Note_on_c, 9, 53, 0
2, 63705, Note_on_c, 9, 35, 0
2, 63705, Note_on_c, 9, 38, 0
2, 63744, Note_on_c, 9, 53, 90
2, 63753, Note_on_c, 9, 53, 0
2, 63792, Note_on_c, 9, 53, 90
2, 63801, Note_on_c, 9, 53, 0
2, 63816, Note_on_c, 9, 53, 90
2, 63825, Note_on_c, 9, 53, 0
2, 63840, Note_on_c, 9, 53, 105
2, 63840, Note_on_c, 9, 35, 120
2, 63849, Note_on_c, 9, 53, 0
2, 63849, Note_on_c, 9, 35, 0
2, 63888, Note_on_c, 9, 53, 90
2, 63897, Note_on_c, 9, 53, 0
2, 63936, Note_on_c, 9, 53, 90
2, 63945, Note_on_c, 9, 53, 0
2, 63984, Note_on_c, 9, 53, 105
2, 63984, Note_on_c, 9, 38, 100
2, 63984, Note_on_c, 9, 35, 120
2, 63993, Note_on_c, 9, 53, 0
2, 63993, Note_on_c, 9, 38, 0
2, 63993, Note_on_c, 9, 35, 0
2, 64032, Note_on_c, 9, 53, 90
2, 64041, Note_on_c, 9, 53, 0
2, 64080, Note_on_c, 9, 53, 90
2, 64089, Note_on_c, 9, 53, 0
2, 64128, Note_on_c, 9, 49, 100
2, 64128, Note_on_c, 9, 35, 120
2, 64137, Note_on_c, 9, 49, 0
2, 64137, Note_on_c, 9, 35, 0
2, 64176, Note_on_c, 9, 53, 90
2, 64185, Note_on_c, 9, 53, 0
2, 64224, Note_on_c, 9, 53, 90
2, 64233, Note_on_c, 9, 53, 0
2, 64272, Note_on_c, 9, 53, 105
2, 64272, Note_on_c, 9, 38, 100
2, 64272, Note_on_c, 9, 35, 120
2, 64281, Note_on_c, 9, 53, 0
2, 64281, Note_on_c, 9, 38, 0
2, 64281, Note_on_c, 9, 35, 0
2, 64320, Note_on_c, 9, 53, 90
2, 64329, Note_on_c, 9, 53, 0
2, 64368, Note_on_c, 9, 53, 90
2, 64377, Note_on_c, 9, 53, 0
2, 64416, Note_on_c, 9, 53, 105
2, 64416, Note_on_c, 9, 35, 120
2, 64425, Note_on_c, 9, 53, 0
2, 64425, Note_on_c, 9, 35, 0
2, 64464, Note_on_c, 9, 53, 90
2, 64473, Note_on_c, 9, 53, 0
2, 64512, Note_on_c, 9, 53, 90
2, 64521, Note_on_c, 9, 53, 0
2, 64560, Note_on_c, 9, 53, 105
2, 64560, Note_on_c, 9, 38, 100
2, 64560, Note_on_c, 9, 35, 120
2, 64569, Note_on_c, 9, 53, 0
2, 64569, Note_on_c, 9, 38, 0
2, 64569, Note_on_c, 9, 35, 0
2, 64608, Note_on_c, 9, 53, 90
2, 64617, Note_on_c, 9, 53, 0
2, 64656, Note_on_c, 9, 53, 90
2, 64665, Note_on_c, 9, 53, 0
2, 64704, Note_on_c, 9, 53, 105
2, 64704, Note_on_c, 9, 35, 120
2, 64713, Note_on_c, 9, 53, 0
2, 64713, Note_on_c, 9, 35, 0
2, 64752, Note_on_c, 9, 53, 90
2, 64761, Note_on_c, 9, 53, 0
2, 64800, Note_on_c, 9, 53, 90
2, 64809, Note_on_c, 9, 53, 0
2, 64848, Note_on_c, 9, 53, 105
2, 64848, Note_on_c, 9, 38, 100
2, 64857, Note_on_c, 9, 53, 0
2, 64857, Note_on_c, 9, 38, 0
2, 64896, Note_on_c, 9, 53, 90
2, 64896, Note_on_c, 9, 35, 120
2, 64905, Note_on_c, 9, 53, 0
2, 64905, Note_on_c, 9, 35, 0
2, 64944, Note_on_c, 9, 53, 90
2, 64944, Note_on_c, 9, 35, 120
2, 64953, Note_on_c, 9, 53, 0
2, 64953, Note_on_c, 9, 35, 0
2, 64992, Note_on_c, 9, 53, 105
2, 64992, Note_on_c, 9, 35, 120
2, 65001, Note_on_c, 9, 53, 0
2, 65001, Note_on_c, 9, 35, 0
2, 65040, Note_on_c, 9, 53, 90
2, 65049, Note_on_c, 9, 53, 0
2, 65088, Note_on_c, 9, 53, 90
2, 65097, Note_on_c, 9, 53, 0
2, 65136, Note_on_c, 9, 53, 105
2, 65136, Note_on_c, 9, 35, 120
2, 65136, Note_on_c, 9, 38, 100
2, 65145, Note_on_c, 9, 53, 0
2, 65145, Note_on_c, 9, 35, 0
2, 65145, Note_on_c, 9, 38, 0
2, 65184, Note_on_c, 9, 53, 90
2, 65193, Note_on_c, 9, 53, 0
2, 65232, Note_on_c, 9, 53, 90
2, 65241, Note_on_c, 9, 53, 0
2, 65280, Note_on_c, 9, 53, 105
2, 65280, Note_on_c, 9, 35, 120
2, 65289, Note_on_c, 9, 53, 0
2, 65289, Note_on_c, 9, 35, 0
2, 65328, Note_on_c, 9, 53, 90
2, 65337, Note_on_c, 9, 53, 0
2, 65376, Note_on_c, 9, 53, 90
2, 65385, Note_on_c, 9, 53, 0
2, 65424, Note_on_c, 9, 53, 105
2, 65424, Note_on_c, 9, 35, 120
2, 65424, Note_on_c, 9, 38, 100
2, 65433, Note_on_c, 9, 53, 0
2, 65433, Note_on_c, 9, 35, 0
2, 65433, Note_on_c, 9, 38, 0
2, 65472, Note_on_c, 9, 53, 90
2, 65481, Note_on_c, 9, 53, 0
2, 65520, Note_on_c, 9, 53, 90
2, 65529, Note_on_c, 9, 53, 0
2, 65568, Note_on_c, 9, 53, 105
2, 65568, Note_on_c, 9, 35, 120
2, 65577, Note_on_c, 9, 53, 0
2, 65577, Note_on_c, 9, 35, 0
2, 65616, Note_on_c, 9, 53, 90
2, 65625, Note_on_c, 9, 53, 0
2, 65664, Note_on_c, 9, 53, 90
2, 65673, Note_on_c, 9, 53, 0
2, 65712, Note_on_c, 9, 53, 105
2, 65712, Note_on_c, 9, 38, 100
2, 65712, Note_on_c, 9, 35, 120
2, 65721, Note_on_c, 9, 53, 0
2, 65721, Note_on_c, 9, 38, 0
2, 65721, Note_on_c, 9, 35, 0
2, 65760, Note_on_c, 9, 53, 90
2, 65769, Note_on_c, 9, 53, 0
2, 65808, Note_on_c, 9, 53, 90
2, 65817, Note_on_c, 9, 53, 0
2, 65856, Note_on_c, 9, 53, 105
2, 65856, Note_on_c, 9, 35, 120
2, 65865, Note_on_c, 9, 53, 0
2, 65865, Note_on_c, 9, 35, 0
2, 65904, Note_on_c, 9, 53, 90
2, 65913, Note_on_c, 9, 53, 0
2, 65952, Note_on_c, 9, 53, 90
2, 65961, Note_on_c, 9, 53, 0
2, 66000, Note_on_c, 9, 53, 105
2, 66000, Note_on_c, 9, 35, 120
2, 66000, Note_on_c, 9, 38, 100
2, 66009, Note_on_c, 9, 53, 0
2, 66009, Note_on_c, 9, 35, 0
2, 66009, Note_on_c, 9, 38, 0
2, 66048, Note_on_c, 9, 53, 90
2, 66057, Note_on_c, 9, 53, 0
2, 66096, Note_on_c, 9, 53, 90
2, 66105, Note_on_c, 9, 53, 0
2, 66144, Note_on_c, 9, 53, 105
2, 66144, Note_on_c, 9, 35, 120
2, 66153, Note_on_c, 9, 53, 0
2, 66153, Note_on_c, 9, 35, 0
2, 66192, Note_on_c, 9, 53, 90
2, 66201, Note_on_c, 9, 53, 0
2, 66240, Note_on_c, 9, 53, 90
2, 66249, Note_on_c, 9, 53, 0
2, 66288, Note_on_c, 9, 53, 105
2, 66288, Note_on_c, 9, 38, 100
2, 66297, Note_on_c, 9, 53, 0
2, 66297, Note_on_c, 9, 38, 0
2, 66336, Note_on_c, 9, 53, 90
2, 66336, Note_on_c, 9, 35, 120
2, 66345, Note_on_c, 9, 53, 0
2, 66345, Note_on_c, 9, 35, 0
2, 66384, Note_on_c, 9, 53, 90
2, 66384, Note_on_c, 9, 35, 120
2, 66393, Note_on_c, 9, 53, 0
2, 66393, Note_on_c, 9, 35, 0
2, 66432, Note_on_c, 9, 53, 105
2, 66432, Note_on_c, 9, 35, 120
2, 66441, Note_on_c, 9, 53, 0
2, 66441, Note_on_c, 9, 35, 0
2, 66480, Note_on_c, 9, 53, 90
2, 66489, Note_on_c, 9, 53, 0
2, 66528, Note_on_c, 9, 53, 90
2, 66537, Note_on_c, 9, 53, 0
2, 66576, Note_on_c, 9, 53, 105
2, 66576, Note_on_c, 9, 35, 120
2, 66576, Note_on_c, 9, 38, 100
2, 66585, Note_on_c, 9, 53, 0
2, 66585, Note_on_c, 9, 35, 0
2, 66585, Note_on_c, 9, 38, 0
2, 66624, Note_on_c, 9, 53, 90
2, 66633, Note_on_c, 9, 53, 0
2, 66672, Note_on_c, 9, 53, 90
2, 66681, Note_on_c, 9, 53, 0
2, 66720, Note_on_c, 9, 53, 105
2, 66720, Note_on_c, 9, 35, 120
2, 66729, Note_on_c, 9, 53, 0
2, 66729, Note_on_c, 9, 35, 0
2, 66768, Note_on_c, 9, 53, 90
2, 66777, Note_on_c, 9, 53, 0
2, 66816, Note_on_c, 9, 53, 90
2, 66825, Note_on_c, 9, 53, 0
2, 66864, Note_on_c, 9, 53, 105
2, 66864, Note_on_c, 9, 35, 120
2, 66864, Note_on_c, 9, 38, 100
2, 66873, Note_on_c, 9, 53, 0
2, 66873, Note_on_c, 9, 35, 0
2, 66873, Note_on_c, 9, 38, 0
2, 66912, Note_on_c, 9, 53, 90
2, 66921, Note_on_c, 9, 53, 0
2, 66960, Note_on_c, 9, 53, 90
2, 66969, Note_on_c, 9, 53, 0
2, 67008, Note_on_c, 9, 53, 105
2, 67008, Note_on_c, 9, 35, 120
2, 67017, Note_on_c, 9, 53, 0
2, 67017, Note_on_c, 9, 35, 0
2, 67056, Note_on_c, 9, 53, 90
2, 67065, Note_on_c, 9, 53, 0
2, 67104, Note_on_c, 9, 53, 90
2, 67113, Note_on_c, 9, 53, 0
2, 67152, Note_on_c, 9, 53, 105
2, 67152, Note_on_c, 9, 35, 120
2, 67152, Note_on_c, 9, 38, 100
2, 67161, Note_on_c, 9, 53, 0
2, 67161, Note_on_c, 9, 35, 0
2, 67161, Note_on_c, 9, 38, 0
2, 67200, Note_on_c, 9, 53, 90
2, 67209, Note_on_c, 9, 53, 0
2, 67248, Note_on_c, 9, 53, 90
2, 67257, Note_on_c, 9, 53, 0
2, 67296, Note_on_c, 9, 53, 105
2, 67296, Note_on_c, 9, 35, 120
2, 67305, Note_on_c, 9, 53, 0
2, 67305, Note_on_c, 9, 35, 0
2, 67344, Note_on_c, 9, 53, 90
2, 67353, Note_on_c, 9, 53, 0
2, 67392, Note_on_c, 9, 53, 90
2, 67401, Note_on_c, 9, 53, 0
2, 67440, Note_on_c, 9, 53, 105
2, 67440, Note_on_c, 9, 35, 120
2, 67440, Note_on_c, 9, 38, 100
2, 67449, Note_on_c, 9, 53, 0
2, 67449, Note_on_c, 9, 35, 0
2, 67449, Note_on_c, 9, 38, 0
2, 67488, Note_on_c, 9, 53, 90
2, 67497, Note_on_c, 9, 53, 0
2, 67536, Note_on_c, 9, 53, 90
2, 67545, Note_on_c, 9, 53, 0
2, 67584, Note_on_c, 9, 53, 105
2, 67584, Note_on_c, 9, 35, 120
2, 67593, Note_on_c, 9, 53, 0
2, 67593, Note_on_c, 9, 35, 0
2, 67632, Note_on_c, 9, 53, 90
2, 67641, Note_on_c, 9, 53, 0
2, 67680, Note_on_c, 9, 53, 90
2, 67689, Note_on_c, 9, 53, 0
2, 67728, Note_on_c, 9, 53, 105
2, 67728, Note_on_c, 9, 38, 100
2, 67737, Note_on_c, 9, 53, 0
2, 67737, Note_on_c, 9, 38, 0
2, 67776, Note_on_c, 9, 53, 90
2, 67776, Note_on_c, 9, 35, 120
2, 67785, Note_on_c, 9, 53, 0
2, 67785, Note_on_c, 9, 35, 0
2, 67824, Note_on_c, 9, 53, 90
2, 67824, Note_on_c, 9, 35, 120
2, 67833, Note_on_c, 9, 53, 0
2, 67833, Note_on_c, 9, 35, 0
2, 67872, Note_on_c, 9, 53, 105
2, 67872, Note_on_c, 9, 35, 120
2, 67881, Note_on_c, 9, 53, 0
2, 67881, Note_on_c, 9, 35, 0
2, 67920, Note_on_c, 9, 53, 90
2, 67929, Note_on_c, 9, 53, 0
2, 67968, Note_on_c, 9, 53, 90
2, 67977, Note_on_c, 9, 53, 0
2, 68016, Note_on_c, 9, 53, 105
2, 68016, Note_on_c, 9, 35, 120
2, 68016, Note_on_c, 9, 38, 100
2, 68025, Note_on_c, 9, 53, 0
2, 68025, Note_on_c, 9, 35, 0
2, 68025, Note_on_c, 9, 38, 0
2, 68064, Note_on_c, 9, 53, 90
2, 68073, Note_on_c, 9, 53, 0
2, 68112, Note_on_c, 9, 53, 90
2, 68121, Note_on_c, 9, 53, 0
2, 68136, Note_on_c, 9, 53, 90
2, 68145, Note_on_c, 9, 53, 0
2, 68160, Note_on_c, 9, 53, 105
2, 68160, Note_on_c, 9, 35, 120
2, 68169, Note_on_c, 9, 53, 0
2, 68169, Note_on_c, 9, 35, 0
2, 68169, End_track
3, 0, Start_track
3, 0, Title_t, "Fretless E. Bass"
3, 0, Instrument_name_t, "   September 1969"
3, 0, MIDI_port, 0
3, 96, Control_c, 0, 121, 0
3, 97, Control_c, 0, 7, 115
3, 98, Control_c, 0, 10, 56
3, 99, Control_c, 0, 91, 20
3, 100, Control_c, 0, 93, 28
3, 101, Control_c, 0, 32, 0
3, 101, Control_c, 0, 0, 0
3, 101, Program_c, 0, 35
3, 384, Note_on_c, 0, 38, 110
3, 527, Note_on_c, 0, 38, 0
3, 528, Note_on_c, 0, 40, 110
3, 671, Note_on_c, 0, 40, 0
3, 672, Note_on_c, 0, 41, 110
3, 815, Note_on_c, 0, 41, 0
3, 816, Note_on_c, 0, 43, 110
3, 860, Note_on_c, 0, 43, 0
3, 912, Note_on_c, 0, 45, 110
3, 956, Note_on_c, 0, 45, 0
3, 960, Note_on_c, 0, 40, 110
3, 1103, Note_on_c, 0, 40, 0
3, 1104, Note_on_c, 0, 53, 110
3, 1127, Note_on_c, 0, 53, 0
3, 1128, Note_on_c, 0, 48, 110
3, 1133, Note_on_c, 0, 48, 0
3, 1134, Note_on_c, 0, 45, 110
3, 1139, Note_on_c, 0, 45, 0
3, 1140, Note_on_c, 0, 41, 110
3, 1145, Note_on_c, 0, 41, 0
3, 1146, Note_on_c, 0, 40, 110
3, 1151, Note_on_c, 0, 40, 0
3, 1152, Note_on_c, 0, 36, 110
3, 1196, Note_on_c, 0, 36, 0
3, 1200, Note_on_c, 0, 35, 110
3, 1244, Note_on_c, 0, 35, 0
3, 1248, Note_on_c, 0, 34, 110
3, 1391, Note_on_c, 0, 34, 0
3, 1440, Note_on_c, 0, 36, 110
3, 1484, Note_on_c, 0, 36, 0
3, 1488, Note_on_c, 0, 38, 110
3, 1532, Note_on_c, 0, 38, 0
3, 1536, Note_on_c, 0, 33, 110
3, 1679, Note_on_c, 0, 33, 0
3, 1680, Note_on_c, 0, 45, 110
3, 1967, Note_on_c, 0, 45, 0
3, 2304, Note_on_c, 0, 33, 110
3, 2348, Note_on_c, 0, 33, 0
3, 2352, Note_on_c, 0, 33, 110
3, 2396, Note_on_c, 0, 33, 0
3, 2400, Note_on_c, 0, 33, 110
3, 2444, Note_on_c, 0, 33, 0
3, 3264, Note_on_c, 0, 33, 110
3, 3308, Note_on_c, 0, 33, 0
3, 3312, Note_on_c, 0, 33, 110
3, 3356, Note_on_c, 0, 33, 0
3, 3360, Note_on_c, 0, 33, 110
3, 3404, Note_on_c, 0, 33, 0
3, 3408, Note_on_c, 0, 33, 110
3, 3452, Note_on_c, 0, 33, 0
3, 4032, Note_on_c, 0, 33, 110
3, 4076, Note_on_c, 0, 33, 0
3, 4080, Note_on_c, 0, 33, 110
3, 4124, Note_on_c, 0, 33, 0
3, 4128, Note_on_c, 0, 33, 110
3, 4172, Note_on_c, 0, 33, 0
3, 4416, Note_on_c, 0, 33, 110
3, 4511, Note_on_c, 0, 33, 0
3, 4608, Note_on_c, 0, 36, 110
3, 4703, Note_on_c, 0, 36, 0
3, 4800, Note_on_c, 0, 38, 110
3, 4895, Note_on_c, 0, 38, 0
3, 4992, Note_on_c, 0, 41, 110
3, 5087, Note_on_c, 0, 41, 0
3, 5184, Note_on_c, 0, 43, 110
3, 5247, Note_on_c, 0, 43, 0
3, 5280, Note_on_c, 0, 44, 110
3, 5375, Note_on_c, 0, 44, 0
3, 5376, Note_on_c, 0, 45, 110
3, 5519, Note_on_c, 0, 45, 0
3, 5520, Note_on_c, 0, 40, 110
3, 5564, Note_on_c, 0, 40, 0
3, 5568, Note_on_c, 0, 33, 110
3, 5759, Note_on_c, 0, 33, 0
3, 5760, Note_on_c, 0, 33, 110
3, 5804, Note_on_c, 0, 33, 0
3, 5808, Note_on_c, 0, 33, 110
3, 5852, Note_on_c, 0, 33, 0
3, 5856, Note_on_c, 0, 33, 110
3, 5900, Note_on_c, 0, 33, 0
3, 5904, Note_on_c, 0, 37, 110
3, 6047, Note_on_c, 0, 37, 0
3, 6048, Note_on_c, 0, 38, 110
3, 6143, Note_on_c, 0, 38, 0
3, 6144, Note_on_c, 0, 41, 110
3, 6239, Note_on_c, 0, 41, 0
3, 6336, Note_on_c, 0, 50, 110
3, 6431, Note_on_c, 0, 50, 0
3, 6528, Note_on_c, 0, 38, 110
3, 6572, Note_on_c, 0, 38, 0
3, 6576, Note_on_c, 0, 38, 110
3, 6620, Note_on_c, 0, 38, 0
3, 6624, Note_on_c, 0, 38, 110
3, 6668, Note_on_c, 0, 38, 0
3, 6768, Note_on_c, 0, 54, 110
3, 6812, Note_on_c, 0, 54, 0
3, 6816, Note_on_c, 0, 53, 110
3, 6860, Note_on_c, 0, 53, 0
3, 6864, Note_on_c, 0, 50, 110
3, 6908, Note_on_c, 0, 50, 0
3, 6912, Note_on_c, 0, 38, 110
3, 7007, Note_on_c, 0, 38, 0
3, 7104, Note_on_c, 0, 50, 110
3, 7148, Note_on_c, 0, 50, 0
3, 7152, Note_on_c, 0, 50, 110
3, 7196, Note_on_c, 0, 50, 0
3, 7200, Note_on_c, 0, 50, 110
3, 7244, Note_on_c, 0, 50, 0
3, 7296, Note_on_c, 0, 38, 110
3, 7391, Note_on_c, 0, 38, 0
3, 7392, Note_on_c, 0, 57, 110
3, 7436, Note_on_c, 0, 57, 0
3, 7440, Note_on_c, 0, 55, 110
3, 7484, Note_on_c, 0, 55, 0
3, 7488, Note_on_c, 0, 53, 110
3, 7532, Note_on_c, 0, 53, 0
3, 7536, Note_on_c, 0, 50, 110
3, 7631, Note_on_c, 0, 50, 0
3, 7632, Note_on_c, 0, 48, 110
3, 7643, Note_on_c, 0, 48, 0
3, 7644, Note_on_c, 0, 45, 110
3, 7655, Note_on_c, 0, 45, 0
3, 7656, Note_on_c, 0, 41, 110
3, 7667, Note_on_c, 0, 41, 0
3, 7668, Note_on_c, 0, 40, 110
3, 7679, Note_on_c, 0, 40, 0
3, 7680, Note_on_c, 0, 38, 110
3, 7775, Note_on_c, 0, 38, 0
3, 7872, Note_on_c, 0, 50, 110
3, 7967, Note_on_c, 0, 50, 0
3, 8064, Note_on_c, 0, 38, 110
3, 8159, Note_on_c, 0, 38, 0
3, 8256, Note_on_c, 0, 53, 110
3, 8351, Note_on_c, 0, 53, 0
3, 8352, Note_on_c, 0, 50, 110
3, 8447, Note_on_c, 0, 50, 0
3, 8448, Note_on_c, 0, 38, 110
3, 8639, Note_on_c, 0, 38, 0
3, 8640, Note_on_c, 0, 41, 110
3, 8831, Note_on_c, 0, 41, 0
3, 8832, Note_on_c, 0, 36, 110
3, 9023, Note_on_c, 0, 36, 0
3, 9024, Note_on_c, 0, 34, 110
3, 9215, Note_on_c, 0, 34, 0
3, 9216, Note_on_c, 0, 38, 110
3, 9279, Note_on_c, 0, 38, 0
3, 9280, Note_on_c, 0, 39, 110
3, 9343, Note_on_c, 0, 39, 0
3, 9344, Note_on_c, 0, 40, 110
3, 9407, Note_on_c, 0, 40, 0
3, 9408, Note_on_c, 0, 28, 110
3, 9452, Note_on_c, 0, 28, 0
3, 9456, Note_on_c, 0, 40, 110
3, 9500, Note_on_c, 0, 40, 0
3, 9504, Note_on_c, 0, 40, 110
3, 9548, Note_on_c, 0, 40, 0
3, 9552, Note_on_c, 0, 40, 110
3, 9596, Note_on_c, 0, 40, 0
3, 9600, Note_on_c, 0, 40, 110
3, 9644, Note_on_c, 0, 40, 0
3, 9648, Note_on_c, 0, 40, 110
3, 9692, Note_on_c, 0, 40, 0
3, 9696, Note_on_c, 0, 40, 110
3, 9740, Note_on_c, 0, 40, 0
3, 9744, Note_on_c, 0, 40, 110
3, 9788, Note_on_c, 0, 40, 0
3, 9792, Note_on_c, 0, 40, 110
3, 9836, Note_on_c, 0, 40, 0
3, 9840, Note_on_c, 0, 43, 110
3, 9884, Note_on_c, 0, 43, 0
3, 9888, Note_on_c, 0, 42, 110
3, 9932, Note_on_c, 0, 42, 0
3, 9936, Note_on_c, 0, 41, 110
3, 9980, Note_on_c, 0, 41, 0
3, 9984, Note_on_c, 0, 40, 110
3, 10028, Note_on_c, 0, 40, 0
3, 10032, Note_on_c, 0, 47, 110
3, 10055, Note_on_c, 0, 47, 0
3, 10056, Note_on_c, 0, 52, 110
3, 10100, Note_on_c, 0, 52, 0
3, 10104, Note_on_c, 0, 50, 110
3, 10127, Note_on_c, 0, 50, 0
3, 10128, Note_on_c, 0, 47, 110
3, 10172, Note_on_c, 0, 47, 0
3, 10176, Note_on_c, 0, 40, 110
3, 10220, Note_on_c, 0, 40, 0
3, 10224, Note_on_c, 0, 40, 110
3, 10268, Note_on_c, 0, 40, 0
3, 10272, Note_on_c, 0, 40, 110
3, 10316, Note_on_c, 0, 40, 0
3, 10320, Note_on_c, 0, 40, 110
3, 10364, Note_on_c, 0, 40, 0
3, 10368, Note_on_c, 0, 40, 110
3, 10412, Note_on_c, 0, 40, 0
3, 10416, Note_on_c, 0, 40, 110
3, 10460, Note_on_c, 0, 40, 0
3, 10464, Note_on_c, 0, 40, 110
3, 10508, Note_on_c, 0, 40, 0
3, 10512, Note_on_c, 0, 40, 110
3, 10556, Note_on_c, 0, 40, 0
3, 10560, Note_on_c, 0, 40, 110
3, 10604, Note_on_c, 0, 40, 0
3, 10608, Note_on_c, 0, 43, 110
3, 10652, Note_on_c, 0, 43, 0
3, 10656, Note_on_c, 0, 42, 110
3, 10700, Note_on_c, 0, 42, 0
3, 10704, Note_on_c, 0, 41, 110
3, 10748, Note_on_c, 0, 41, 0
3, 10752, Note_on_c, 0, 40, 110
3, 10796, Note_on_c, 0, 40, 0
3, 10800, Note_on_c, 0, 47, 110
3, 10823, Note_on_c, 0, 47, 0
3, 10824, Note_on_c, 0, 52, 110
3, 10868, Note_on_c, 0, 52, 0
3, 10872, Note_on_c, 0, 50, 110
3, 10895, Note_on_c, 0, 50, 0
3, 10896, Note_on_c, 0, 47, 110
3, 10940, Note_on_c, 0, 47, 0
3, 10944, Note_on_c, 0, 40, 110
3, 10988, Note_on_c, 0, 40, 0
3, 10992, Note_on_c, 0, 40, 110
3, 11036, Note_on_c, 0, 40, 0
3, 11040, Note_on_c, 0, 40, 110
3, 11084, Note_on_c, 0, 40, 0
3, 11088, Note_on_c, 0, 40, 110
3, 11132, Note_on_c, 0, 40, 0
3, 11136, Note_on_c, 0, 40, 110
3, 11180, Note_on_c, 0, 40, 0
3, 11184, Note_on_c, 0, 40, 110
3, 11228, Note_on_c, 0, 40, 0
3, 11232, Note_on_c, 0, 40, 110
3, 11276, Note_on_c, 0, 40, 0
3, 11280, Note_on_c, 0, 40, 110
3, 11324, Note_on_c, 0, 40, 0
3, 11328, Note_on_c, 0, 41, 110
3, 11335, Note_on_c, 0, 41, 0
3, 11336, Note_on_c, 0, 43, 110
3, 11343, Note_on_c, 0, 43, 0
3, 11344, Note_on_c, 0, 45, 110
3, 11351, Note_on_c, 0, 45, 0
3, 11352, Note_on_c, 0, 47, 110
3, 11359, Note_on_c, 0, 47, 0
3, 11360, Note_on_c, 0, 48, 110
3, 11367, Note_on_c, 0, 48, 0
3, 11368, Note_on_c, 0, 50, 110
3, 11375, Note_on_c, 0, 50, 0
3, 11376, Note_on_c, 0, 52, 110
3, 11567, Note_on_c, 0, 52, 0
3, 11568, Note_on_c, 0, 50, 110
3, 11575, Note_on_c, 0, 50, 0
3, 11576, Note_on_c, 0, 48, 110
3, 11583, Note_on_c, 0, 48, 0
3, 11584, Note_on_c, 0, 47, 110
3, 11591, Note_on_c, 0, 47, 0
3, 11592, Note_on_c, 0, 45, 110
3, 11599, Note_on_c, 0, 45, 0
3, 11600, Note_on_c, 0, 43, 110
3, 11607, Note_on_c, 0, 43, 0
3, 11608, Note_on_c, 0, 41, 110
3, 11615, Note_on_c, 0, 41, 0
3, 11712, Note_on_c, 0, 45, 110
3, 11999, Note_on_c, 0, 45, 0
3, 12000, Note_on_c, 0, 38, 110
3, 12023, Note_on_c, 0, 38, 0
3, 12024, Note_on_c, 0, 40, 110
3, 12047, Note_on_c, 0, 40, 0
3, 12048, Note_on_c, 0, 38, 110
3, 12092, Note_on_c, 0, 38, 0
3, 12096, Note_on_c, 0, 33, 110
3, 12359, Note_on_c, 0, 33, 0
3, 12360, Note_on_c, 0, 35, 110
3, 12367, Note_on_c, 0, 35, 0
3, 12368, Note_on_c, 0, 36, 110
3, 12375, Note_on_c, 0, 36, 0
3, 12376, Note_on_c, 0, 38, 110
3, 12383, Note_on_c, 0, 38, 0
3, 12384, Note_on_c, 0, 40, 110
3, 12428, Note_on_c, 0, 40, 0
3, 12480, Note_on_c, 0, 45, 110
3, 12767, Note_on_c, 0, 45, 0
3, 12768, Note_on_c, 0, 38, 110
3, 12791, Note_on_c, 0, 38, 0
3, 12792, Note_on_c, 0, 40, 110
3, 12815, Note_on_c, 0, 40, 0
3, 12816, Note_on_c, 0, 38, 110
3, 12847, Note_on_c, 0, 38, 0
3, 12848, Note_on_c, 0, 36, 110
3, 12855, Note_on_c, 0, 36, 0
3, 12856, Note_on_c, 0, 35, 110
3, 12863, Note_on_c, 0, 35, 0
3, 12864, Note_on_c, 0, 33, 110
3, 12959, Note_on_c, 0, 33, 0
3, 12960, Note_on_c, 0, 48, 110
3, 13151, Note_on_c, 0, 48, 0
3, 13152, Note_on_c, 0, 45, 110
3, 13247, Note_on_c, 0, 45, 0
3, 13248, Note_on_c, 0, 33, 110
3, 13511, Note_on_c, 0, 33, 0
3, 13512, Note_on_c, 0, 35, 110
3, 13519, Note_on_c, 0, 35, 0
3, 13520, Note_on_c, 0, 36, 110
3, 13527, Note_on_c, 0, 36, 0
3, 13528, Note_on_c, 0, 38, 110
3, 13535, Note_on_c, 0, 38, 0
3, 13536, Note_on_c, 0, 40, 110
3, 13580, Note_on_c, 0, 40, 0
3, 13632, Note_on_c, 0, 45, 110
3, 13676, Note_on_c, 0, 45, 0
3, 13680, Note_on_c, 0, 45, 110
3, 13724, Note_on_c, 0, 45, 0
3, 13728, Note_on_c, 0, 45, 110
3, 13772, Note_on_c, 0, 45, 0
3, 13920, Note_on_c, 0, 33, 110
3, 13927, Note_on_c, 0, 33, 0
3, 13928, Note_on_c, 0, 36, 110
3, 13935, Note_on_c, 0, 36, 0
3, 13936, Note_on_c, 0, 38, 110
3, 13943, Note_on_c, 0, 38, 0
3, 13944, Note_on_c, 0, 40, 110
3, 13988, Note_on_c, 0, 40, 0
3, 13992, Note_on_c, 0, 38, 110
3, 13999, Note_on_c, 0, 38, 0
3, 14000, Note_on_c, 0, 36, 110
3, 14007, Note_on_c, 0, 36, 0
3, 14008, Note_on_c, 0, 33, 110
3, 14015, Note_on_c, 0, 33, 0
3, 14016, Note_on_c, 0, 33, 110
3, 14111, Note_on_c, 0, 33, 0
3, 14208, Note_on_c, 0, 36, 110
3, 14303, Note_on_c, 0, 36, 0
3, 14400, Note_on_c, 0, 38, 110
3, 14495, Note_on_c, 0, 38, 0
3, 14592, Note_on_c, 0, 41, 110
3, 14687, Note_on_c, 0, 41, 0
3, 14784, Note_on_c, 0, 43, 110
3, 14847, Note_on_c, 0, 43, 0
3, 14880, Note_on_c, 0, 44, 110
3, 14975, Note_on_c, 0, 44, 0
3, 14976, Note_on_c, 0, 45, 110
3, 15119, Note_on_c, 0, 45, 0
3, 15120, Note_on_c, 0, 40, 110
3, 15164, Note_on_c, 0, 40, 0
3, 15168, Note_on_c, 0, 33, 110
3, 15359, Note_on_c, 0, 33, 0
3, 15360, Note_on_c, 0, 33, 110
3, 15404, Note_on_c, 0, 33, 0
3, 15408, Note_on_c, 0, 33, 110
3, 15452, Note_on_c, 0, 33, 0
3, 15456, Note_on_c, 0, 33, 110
3, 15500, Note_on_c, 0, 33, 0
3, 15504, Note_on_c, 0, 37, 110
3, 15647, Note_on_c, 0, 37, 0
3, 15648, Note_on_c, 0, 38, 110
3, 15743, Note_on_c, 0, 38, 0
3, 15744, Note_on_c, 0, 41, 110
3, 15839, Note_on_c, 0, 41, 0
3, 15936, Note_on_c, 0, 50, 110
3, 16031, Note_on_c, 0, 50, 0
3, 16128, Note_on_c, 0, 38, 110
3, 16172, Note_on_c, 0, 38, 0
3, 16176, Note_on_c, 0, 38, 110
3, 16220, Note_on_c, 0, 38, 0
3, 16224, Note_on_c, 0, 38, 110
3, 16268, Note_on_c, 0, 38, 0
3, 16368, Note_on_c, 0, 54, 110
3, 16412, Note_on_c, 0, 54, 0
3, 16416, Note_on_c, 0, 53, 110
3, 16460, Note_on_c, 0, 53, 0
3, 16464, Note_on_c, 0, 50, 110
3, 16508, Note_on_c, 0, 50, 0
3, 16512, Note_on_c, 0, 38, 110
3, 16607, Note_on_c, 0, 38, 0
3, 16704, Note_on_c, 0, 50, 110
3, 16748, Note_on_c, 0, 50, 0
3, 16752, Note_on_c, 0, 50, 110
3, 16796, Note_on_c, 0, 50, 0
3, 16800, Note_on_c, 0, 50, 110
3, 16844, Note_on_c, 0, 50, 0
3, 16896, Note_on_c, 0, 38, 110
3, 16991, Note_on_c, 0, 38, 0
3, 16992, Note_on_c, 0, 57, 110
3, 17036, Note_on_c, 0, 57, 0
3, 17040, Note_on_c, 0, 55, 110
3, 17084, Note_on_c, 0, 55, 0
3, 17088, Note_on_c, 0, 53, 110
3, 17132, Note_on_c, 0, 53, 0
3, 17136, Note_on_c, 0, 50, 110
3, 17231, Note_on_c, 0, 50, 0
3, 17232, Note_on_c, 0, 48, 110
3, 17243, Note_on_c, 0, 48, 0
3, 17244, Note_on_c, 0, 45, 110
3, 17255, Note_on_c, 0, 45, 0
3, 17256, Note_on_c, 0, 41, 110
3, 17267, Note_on_c, 0, 41, 0
3, 17268, Note_on_c, 0, 40, 110
3, 17279, Note_on_c, 0, 40, 0
3, 17280, Note_on_c, 0, 38, 110
3, 17375, Note_on_c, 0, 38, 0
3, 17472, Note_on_c, 0, 50, 110
3, 17567, Note_on_c, 0, 50, 0
3, 17664, Note_on_c, 0, 38, 110
3, 17759, Note_on_c, 0, 38, 0
3, 17856, Note_on_c, 0, 53, 110
3, 17951, Note_on_c, 0, 53, 0
3, 17952, Note_on_c, 0, 50, 110
3, 18047, Note_on_c, 0, 50, 0
3, 18048, Note_on_c, 0, 38, 110
3, 18239, Note_on_c, 0, 38, 0
3, 18240, Note_on_c, 0, 41, 110
3, 18431, Note_on_c, 0, 41, 0
3, 18432, Note_on_c, 0, 36, 110
3, 18623, Note_on_c, 0, 36, 0
3, 18624, Note_on_c, 0, 34, 110
3, 18815, Note_on_c, 0, 34, 0
3, 18816, Note_on_c, 0, 38, 110
3, 18879, Note_on_c, 0, 38, 0
3, 18880, Note_on_c, 0, 39, 110
3, 18943, Note_on_c, 0, 39, 0
3, 18944, Note_on_c, 0, 40, 110
3, 19007, Note_on_c, 0, 40, 0
3, 19008, Note_on_c, 0, 28, 110
3, 19052, Note_on_c, 0, 28, 0
3, 19056, Note_on_c, 0, 40, 110
3, 19100, Note_on_c, 0, 40, 0
3, 19104, Note_on_c, 0, 40, 110
3, 19148, Note_on_c, 0, 40, 0
3, 19152, Note_on_c, 0, 40, 110
3, 19196, Note_on_c, 0, 40, 0
3, 19200, Note_on_c, 0, 40, 110
3, 19244, Note_on_c, 0, 40, 0
3, 19248, Note_on_c, 0, 40, 110
3, 19292, Note_on_c, 0, 40, 0
3, 19296, Note_on_c, 0, 40, 110
3, 19340, Note_on_c, 0, 40, 0
3, 19344, Note_on_c, 0, 40, 110
3, 19388, Note_on_c, 0, 40, 0
3, 19392, Note_on_c, 0, 40, 110
3, 19436, Note_on_c, 0, 40, 0
3, 19440, Note_on_c, 0, 43, 110
3, 19484, Note_on_c, 0, 43, 0
3, 19488, Note_on_c, 0, 42, 110
3, 19532, Note_on_c, 0, 42, 0
3, 19536, Note_on_c, 0, 41, 110
3, 19580, Note_on_c, 0, 41, 0
3, 19584, Note_on_c, 0, 40, 110
3, 19628, Note_on_c, 0, 40, 0
3, 19632, Note_on_c, 0, 47, 110
3, 19655, Note_on_c, 0, 47, 0
3, 19656, Note_on_c, 0, 52, 110
3, 19700, Note_on_c, 0, 52, 0
3, 19704, Note_on_c, 0, 50, 110
3, 19727, Note_on_c, 0, 50, 0
3, 19728, Note_on_c, 0, 47, 110
3, 19772, Note_on_c, 0, 47, 0
3, 19776, Note_on_c, 0, 40, 110
3, 19820, Note_on_c, 0, 40, 0
3, 19824, Note_on_c, 0, 40, 110
3, 19868, Note_on_c, 0, 40, 0
3, 19872, Note_on_c, 0, 40, 110
3, 19916, Note_on_c, 0, 40, 0
3, 19920, Note_on_c, 0, 40, 110
3, 19964, Note_on_c, 0, 40, 0
3, 19968, Note_on_c, 0, 40, 110
3, 20012, Note_on_c, 0, 40, 0
3, 20016, Note_on_c, 0, 40, 110
3, 20060, Note_on_c, 0, 40, 0
3, 20064, Note_on_c, 0, 40, 110
3, 20108, Note_on_c, 0, 40, 0
3, 20112, Note_on_c, 0, 40, 110
3, 20156, Note_on_c, 0, 40, 0
3, 20160, Note_on_c, 0, 40, 110
3, 20204, Note_on_c, 0, 40, 0
3, 20208, Note_on_c, 0, 43, 110
3, 20252, Note_on_c, 0, 43, 0
3, 20256, Note_on_c, 0, 42, 110
3, 20300, Note_on_c, 0, 42, 0
3, 20304, Note_on_c, 0, 41, 110
3, 20348, Note_on_c, 0, 41, 0
3, 20352, Note_on_c, 0, 40, 110
3, 20396, Note_on_c, 0, 40, 0
3, 20400, Note_on_c, 0, 47, 110
3, 20423, Note_on_c, 0, 47, 0
3, 20424, Note_on_c, 0, 52, 110
3, 20468, Note_on_c, 0, 52, 0
3, 20472, Note_on_c, 0, 50, 110
3, 20495, Note_on_c, 0, 50, 0
3, 20496, Note_on_c, 0, 47, 110
3, 20540, Note_on_c, 0, 47, 0
3, 20544, Note_on_c, 0, 40, 110
3, 20588, Note_on_c, 0, 40, 0
3, 20592, Note_on_c, 0, 40, 110
3, 20636, Note_on_c, 0, 40, 0
3, 20640, Note_on_c, 0, 40, 110
3, 20684, Note_on_c, 0, 40, 0
3, 20688, Note_on_c, 0, 40, 110
3, 20732, Note_on_c, 0, 40, 0
3, 20736, Note_on_c, 0, 40, 110
3, 20780, Note_on_c, 0, 40, 0
3, 20784, Note_on_c, 0, 40, 110
3, 20828, Note_on_c, 0, 40, 0
3, 20832, Note_on_c, 0, 40, 110
3, 20876, Note_on_c, 0, 40, 0
3, 20880, Note_on_c, 0, 40, 110
3, 20924, Note_on_c, 0, 40, 0
3, 20928, Note_on_c, 0, 41, 110
3, 20935, Note_on_c, 0, 41, 0
3, 20936, Note_on_c, 0, 43, 110
3, 20943, Note_on_c, 0, 43, 0
3, 20944, Note_on_c, 0, 45, 110
3, 20951, Note_on_c, 0, 45, 0
3, 20952, Note_on_c, 0, 47, 110
3, 20959, Note_on_c, 0, 47, 0
3, 20960, Note_on_c, 0, 48, 110
3, 20967, Note_on_c, 0, 48, 0
3, 20968, Note_on_c, 0, 50, 110
3, 20975, Note_on_c, 0, 50, 0
3, 20976, Note_on_c, 0, 52, 110
3, 21167, Note_on_c, 0, 52, 0
3, 21168, Note_on_c, 0, 50, 110
3, 21175, Note_on_c, 0, 50, 0
3, 21176, Note_on_c, 0, 48, 110
3, 21183, Note_on_c, 0, 48, 0
3, 21184, Note_on_c, 0, 47, 110
3, 21191, Note_on_c, 0, 47, 0
3, 21192, Note_on_c, 0, 45, 110
3, 21199, Note_on_c, 0, 45, 0
3, 21200, Note_on_c, 0, 43, 110
3, 21207, Note_on_c, 0, 43, 0
3, 21208, Note_on_c, 0, 41, 110
3, 21215, Note_on_c, 0, 41, 0
3, 21312, Note_on_c, 0, 38, 110
3, 21455, Note_on_c, 0, 38, 0
3, 21456, Note_on_c, 0, 40, 110
3, 21599, Note_on_c, 0, 40, 0
3, 21600, Note_on_c, 0, 41, 110
3, 21743, Note_on_c, 0, 41, 0
3, 21744, Note_on_c, 0, 43, 110
3, 21839, Note_on_c, 0, 43, 0
3, 21840, Note_on_c, 0, 45, 110
3, 21884, Note_on_c, 0, 45, 0
3, 21888, Note_on_c, 0, 40, 110
3, 21983, Note_on_c, 0, 40, 0
3, 21984, Note_on_c, 0, 53, 110
3, 21991, Note_on_c, 0, 53, 0
3, 22000, Note_on_c, 0, 53, 110
3, 22007, Note_on_c, 0, 53, 0
3, 22016, Note_on_c, 0, 53, 110
3, 22023, Note_on_c, 0, 53, 0
3, 22024, Note_on_c, 0, 48, 110
3, 22031, Note_on_c, 0, 48, 0
3, 22032, Note_on_c, 0, 45, 110
3, 22043, Note_on_c, 0, 45, 0
3, 22044, Note_on_c, 0, 43, 110
3, 22055, Note_on_c, 0, 43, 0
3, 22056, Note_on_c, 0, 41, 110
3, 22067, Note_on_c, 0, 41, 0
3, 22068, Note_on_c, 0, 40, 110
3, 22079, Note_on_c, 0, 40, 0
3, 22080, Note_on_c, 0, 36, 110
3, 22124, Note_on_c, 0, 36, 0
3, 22128, Note_on_c, 0, 35, 110
3, 22172, Note_on_c, 0, 35, 0
3, 22176, Note_on_c, 0, 34, 110
3, 22319, Note_on_c, 0, 34, 0
3, 22368, Note_on_c, 0, 36, 110
3, 22412, Note_on_c, 0, 36, 0
3, 22416, Note_on_c, 0, 38, 110
3, 22460, Note_on_c, 0, 38, 0
3, 22464, Note_on_c, 0, 33, 110
3, 22607, Note_on_c, 0, 33, 0
3, 22608, Note_on_c, 0, 45, 110
3, 22652, Note_on_c, 0, 45, 0
3, 22656, Note_on_c, 0, 37, 110
3, 22700, Note_on_c, 0, 37, 0
3, 22704, Note_on_c, 0, 40, 110
3, 22748, Note_on_c, 0, 40, 0
3, 22752, Note_on_c, 0, 38, 110
3, 22895, Note_on_c, 0, 38, 0
3, 22896, Note_on_c, 0, 40, 110
3, 23039, Note_on_c, 0, 40, 0
3, 23040, Note_on_c, 0, 41, 110
3, 23183, Note_on_c, 0, 41, 0
3, 23184, Note_on_c, 0, 43, 110
3, 23279, Note_on_c, 0, 43, 0
3, 23280, Note_on_c, 0, 45, 110
3, 23324, Note_on_c, 0, 45, 0
3, 23328, Note_on_c, 0, 40, 110
3, 23423, Note_on_c, 0, 40, 0
3, 23424, Note_on_c, 0, 53, 110
3, 23431, Note_on_c, 0, 53, 0
3, 23440, Note_on_c, 0, 53, 110
3, 23447, Note_on_c, 0, 53, 0
3, 23456, Note_on_c, 0, 53, 110
3, 23463, Note_on_c, 0, 53, 0
3, 23464, Note_on_c, 0, 48, 110
3, 23471, Note_on_c, 0, 48, 0
3, 23472, Note_on_c, 0, 45, 110
3, 23483, Note_on_c, 0, 45, 0
3, 23484, Note_on_c, 0, 43, 110
3, 23495, Note_on_c, 0, 43, 0
3, 23496, Note_on_c, 0, 41, 110
3, 23507, Note_on_c, 0, 41, 0
3, 23508, Note_on_c, 0, 40, 110
3, 23519, Note_on_c, 0, 40, 0
3, 23520, Note_on_c, 0, 36, 110
3, 23564, Note_on_c, 0, 36, 0
3, 23568, Note_on_c, 0, 35, 110
3, 23612, Note_on_c, 0, 35, 0
3, 23616, Note_on_c, 0, 34, 110
3, 23759, Note_on_c, 0, 34, 0
3, 23808, Note_on_c, 0, 36, 110
3, 23852, Note_on_c, 0, 36, 0
3, 23856, Note_on_c, 0, 38, 110
3, 23900, Note_on_c, 0, 38, 0
3, 23904, Note_on_c, 0, 33, 110
3, 23948, Note_on_c, 0, 33, 0
3, 23952, Note_on_c, 0, 37, 110
3, 23996, Note_on_c, 0, 37, 0
3, 24000, Note_on_c, 0, 40, 110
3, 24044, Note_on_c, 0, 40, 0
3, 24048, Note_on_c, 0, 45, 110
3, 24335, Note_on_c, 0, 45, 0
3, 24480, Note_on_c, 0, 33, 110
3, 24623, Note_on_c, 0, 33, 0
3, 24624, Note_on_c, 0, 38, 110
3, 24647, Note_on_c, 0, 38, 0
3, 24648, Note_on_c, 0, 40, 110
3, 24671, Note_on_c, 0, 40, 0
3, 24672, Note_on_c, 0, 43, 110
3, 24767, Note_on_c, 0, 43, 0
3, 24768, Note_on_c, 0, 43, 110
3, 24812, Note_on_c, 0, 43, 0
3, 24816, Note_on_c, 0, 45, 110
3, 24860, Note_on_c, 0, 45, 0
3, 24864, Note_on_c, 0, 33, 110
3, 25007, Note_on_c, 0, 33, 0
3, 25008, Note_on_c, 0, 38, 110
3, 25031, Note_on_c, 0, 38, 0
3, 25032, Note_on_c, 0, 40, 110
3, 25055, Note_on_c, 0, 40, 0
3, 25056, Note_on_c, 0, 43, 110
3, 25100, Note_on_c, 0, 43, 0
3, 25104, Note_on_c, 0, 43, 110
3, 25148, Note_on_c, 0, 43, 0
3, 25152, Note_on_c, 0, 43, 110
3, 25196, Note_on_c, 0, 43, 0
3, 25200, Note_on_c, 0, 45, 110
3, 25244, Note_on_c, 0, 45, 0
3, 25248, Note_on_c, 0, 33, 110
3, 25391, Note_on_c, 0, 33, 0
3, 25392, Note_on_c, 0, 40, 110
3, 25535, Note_on_c, 0, 40, 0
3, 25536, Note_on_c, 0, 40, 110
3, 25631, Note_on_c, 0, 40, 0
3, 25632, Note_on_c, 0, 33, 110
3, 25775, Note_on_c, 0, 33, 0
3, 25776, Note_on_c, 0, 38, 110
3, 25799, Note_on_c, 0, 38, 0
3, 25800, Note_on_c, 0, 40, 110
3, 25823, Note_on_c, 0, 40, 0
3, 25824, Note_on_c, 0, 43, 110
3, 25868, Note_on_c, 0, 43, 0
3, 25872, Note_on_c, 0, 43, 110
3, 25916, Note_on_c, 0, 43, 0
3, 25920, Note_on_c, 0, 43, 110
3, 25964, Note_on_c, 0, 43, 0
3, 25968, Note_on_c, 0, 45, 110
3, 26012, Note_on_c, 0, 45, 0
3, 26016, Note_on_c, 0, 33, 110
3, 26159, Note_on_c, 0, 33, 0
3, 26160, Note_on_c, 0, 40, 110
3, 26303, Note_on_c, 0, 40, 0
3, 26304, Note_on_c, 0, 40, 110
3, 26399, Note_on_c, 0, 40, 0
3, 26400, Note_on_c, 0, 33, 110
3, 26543, Note_on_c, 0, 33, 0
3, 26544, Note_on_c, 0, 38, 110
3, 26567, Note_on_c, 0, 38, 0
3, 26568, Note_on_c, 0, 40, 110
3, 26591, Note_on_c, 0, 40, 0
3, 26592, Note_on_c, 0, 43, 110
3, 26636, Note_on_c, 0, 43, 0
3, 26640, Note_on_c, 0, 43, 110
3, 26684, Note_on_c, 0, 43, 0
3, 26688, Note_on_c, 0, 43, 110
3, 26732, Note_on_c, 0, 43, 0
3, 26736, Note_on_c, 0, 45, 110
3, 26780, Note_on_c, 0, 45, 0
3, 26784, Note_on_c, 0, 33, 110
3, 26927, Note_on_c, 0, 33, 0
3, 26928, Note_on_c, 0, 33, 110
3, 26972, Note_on_c, 0, 33, 0
3, 26976, Note_on_c, 0, 36, 110
3, 27119, Note_on_c, 0, 36, 0
3, 27120, Note_on_c, 0, 36, 110
3, 27164, Note_on_c, 0, 36, 0
3, 27168, Note_on_c, 0, 38, 110
3, 27311, Note_on_c, 0, 38, 0
3, 27312, Note_on_c, 0, 38, 110
3, 27356, Note_on_c, 0, 38, 0
3, 27360, Note_on_c, 0, 41, 110
3, 27503, Note_on_c, 0, 41, 0
3, 27504, Note_on_c, 0, 41, 110
3, 27548, Note_on_c, 0, 41, 0
3, 27552, Note_on_c, 0, 40, 110
3, 27623, Note_on_c, 0, 40, 0
3, 27624, Note_on_c, 0, 38, 110
3, 27635, Note_on_c, 0, 38, 0
3, 27636, Note_on_c, 0, 35, 110
3, 27647, Note_on_c, 0, 35, 0
3, 27648, Note_on_c, 0, 36, 110
3, 27719, Note_on_c, 0, 36, 0
3, 27720, Note_on_c, 0, 35, 110
3, 27731, Note_on_c, 0, 35, 0
3, 27732, Note_on_c, 0, 31, 110
3, 27743, Note_on_c, 0, 31, 0
3, 27744, Note_on_c, 0, 33, 110
3, 27839, Note_on_c, 0, 33, 0
3, 27840, Note_on_c, 0, 45, 110
3, 27884, Note_on_c, 0, 45, 0
3, 27888, Note_on_c, 0, 45, 110
3, 27932, Note_on_c, 0, 45, 0
3, 27936, Note_on_c, 0, 45, 110
3, 27980, Note_on_c, 0, 45, 0
3, 27984, Note_on_c, 0, 45, 110
3, 28028, Note_on_c, 0, 45, 0
3, 28032, Note_on_c, 0, 45, 110
3, 28076, Note_on_c, 0, 45, 0
3, 28080, Note_on_c, 0, 45, 110
3, 28124, Note_on_c, 0, 45, 0
3, 28128, Note_on_c, 0, 45, 110
3, 28172, Note_on_c, 0, 45, 0
3, 28176, Note_on_c, 0, 45, 110
3, 28220, Note_on_c, 0, 45, 0
3, 28224, Note_on_c, 0, 45, 110
3, 28247, Note_on_c, 0, 45, 0
3, 28248, Note_on_c, 0, 41, 110
3, 28259, Note_on_c, 0, 41, 0
3, 28260, Note_on_c, 0, 38, 110
3, 28271, Note_on_c, 0, 38, 0
3, 28272, Note_on_c, 0, 35, 110
3, 28283, Note_on_c, 0, 35, 0
3, 28284, Note_on_c, 0, 33, 110
3, 28319, Note_on_c, 0, 33, 0
3, 28320, Note_on_c, 0, 33, 110
3, 28364, Note_on_c, 0, 33, 0
3, 28368, Note_on_c, 0, 33, 110
3, 28412, Note_on_c, 0, 33, 0
3, 28416, Note_on_c, 0, 36, 110
3, 28460, Note_on_c, 0, 36, 0
3, 28464, Note_on_c, 0, 36, 110
3, 28508, Note_on_c, 0, 36, 0
3, 28512, Note_on_c, 0, 38, 110
3, 28655, Note_on_c, 0, 38, 0
3, 28656, Note_on_c, 0, 45, 110
3, 28700, Note_on_c, 0, 45, 0
3, 28704, Note_on_c, 0, 50, 110
3, 28748, Note_on_c, 0, 50, 0
3, 28752, Note_on_c, 0, 50, 110
3, 28796, Note_on_c, 0, 50, 0
3, 28800, Note_on_c, 0, 50, 110
3, 28844, Note_on_c, 0, 50, 0
3, 28848, Note_on_c, 0, 43, 110
3, 28871, Note_on_c, 0, 43, 0
3, 28872, Note_on_c, 0, 45, 110
3, 28895, Note_on_c, 0, 45, 0
3, 28896, Note_on_c, 0, 38, 110
3, 29039, Note_on_c, 0, 38, 0
3, 29040, Note_on_c, 0, 45, 110
3, 29084, Note_on_c, 0, 45, 0
3, 29088, Note_on_c, 0, 50, 110
3, 29132, Note_on_c, 0, 50, 0
3, 29136, Note_on_c, 0, 50, 110
3, 29180, Note_on_c, 0, 50, 0
3, 29184, Note_on_c, 0, 48, 110
3, 29228, Note_on_c, 0, 48, 0
3, 29232, Note_on_c, 0, 45, 110
3, 29276, Note_on_c, 0, 45, 0
3, 29280, Note_on_c, 0, 38, 110
3, 29423, Note_on_c, 0, 38, 0
3, 29424, Note_on_c, 0, 43, 110
3, 29447, Note_on_c, 0, 43, 0
3, 29448, Note_on_c, 0, 45, 110
3, 29471, Note_on_c, 0, 45, 0
3, 29472, Note_on_c, 0, 50, 110
3, 29516, Note_on_c, 0, 50, 0
3, 29520, Note_on_c, 0, 50, 110
3, 29564, Note_on_c, 0, 50, 0
3, 29568, Note_on_c, 0, 50, 110
3, 29612, Note_on_c, 0, 50, 0
3, 29616, Note_on_c, 0, 45, 110
3, 29660, Note_on_c, 0, 45, 0
3, 29664, Note_on_c, 0, 38, 110
3, 29807, Note_on_c, 0, 38, 0
3, 29808, Note_on_c, 0, 53, 110
3, 29819, Note_on_c, 0, 53, 0
3, 29820, Note_on_c, 0, 54, 110
3, 29855, Note_on_c, 0, 54, 0
3, 29904, Note_on_c, 0, 53, 110
3, 29915, Note_on_c, 0, 53, 0
3, 29916, Note_on_c, 0, 54, 110
3, 29951, Note_on_c, 0, 54, 0
3, 29952, Note_on_c, 0, 50, 110
3, 30047, Note_on_c, 0, 50, 0
3, 30048, Note_on_c, 0, 38, 110
3, 30191, Note_on_c, 0, 38, 0
3, 30192, Note_on_c, 0, 38, 110
3, 30236, Note_on_c, 0, 38, 0
3, 30240, Note_on_c, 0, 50, 110
3, 30284, Note_on_c, 0, 50, 0
3, 30288, Note_on_c, 0, 50, 110
3, 30332, Note_on_c, 0, 50, 0
3, 30336, Note_on_c, 0, 50, 110
3, 30380, Note_on_c, 0, 50, 0
3, 30384, Note_on_c, 0, 43, 110
3, 30407, Note_on_c, 0, 43, 0
3, 30408, Note_on_c, 0, 45, 110
3, 30431, Note_on_c, 0, 45, 0
3, 30432, Note_on_c, 0, 38, 110
3, 30476, Note_on_c, 0, 38, 0
3, 30480, Note_on_c, 0, 38, 110
3, 30524, Note_on_c, 0, 38, 0
3, 30624, Note_on_c, 0, 44, 110
3, 30647, Note_on_c, 0, 44, 0
3, 30648, Note_on_c, 0, 45, 110
3, 30671, Note_on_c, 0, 45, 0
3, 30672, Note_on_c, 0, 50, 110
3, 30716, Note_on_c, 0, 50, 0
3, 30720, Note_on_c, 0, 50, 110
3, 30815, Note_on_c, 0, 50, 0
3, 30816, Note_on_c, 0, 38, 110
3, 30959, Note_on_c, 0, 38, 0
3, 30960, Note_on_c, 0, 38, 110
3, 31004, Note_on_c, 0, 38, 0
3, 31008, Note_on_c, 0, 41, 110
3, 31151, Note_on_c, 0, 41, 0
3, 31152, Note_on_c, 0, 41, 110
3, 31196, Note_on_c, 0, 41, 0
3, 31200, Note_on_c, 0, 36, 110
3, 31343, Note_on_c, 0, 36, 0
3, 31344, Note_on_c, 0, 36, 110
3, 31388, Note_on_c, 0, 36, 0
3, 31392, Note_on_c, 0, 34, 110
3, 31535, Note_on_c, 0, 34, 0
3, 31536, Note_on_c, 0, 35, 110
3, 31551, Note_on_c, 0, 35, 0
3, 31552, Note_on_c, 0, 36, 110
3, 31567, Note_on_c, 0, 36, 0
3, 31568, Note_on_c, 0, 37, 110
3, 31583, Note_on_c, 0, 37, 0
3, 31584, Note_on_c, 0, 38, 110
3, 31647, Note_on_c, 0, 38, 0
3, 31648, Note_on_c, 0, 39, 110
3, 31711, Note_on_c, 0, 39, 0
3, 31712, Note_on_c, 0, 40, 110
3, 31775, Note_on_c, 0, 40, 0
3, 31776, Note_on_c, 0, 28, 110
3, 31820, Note_on_c, 0, 28, 0
3, 31824, Note_on_c, 0, 28, 110
3, 31868, Note_on_c, 0, 28, 0
3, 31872, Note_on_c, 0, 28, 110
3, 31916, Note_on_c, 0, 28, 0
3, 31920, Note_on_c, 0, 40, 110
3, 31964, Note_on_c, 0, 40, 0
3, 31968, Note_on_c, 0, 40, 110
3, 32012, Note_on_c, 0, 40, 0
3, 32016, Note_on_c, 0, 40, 110
3, 32060, Note_on_c, 0, 40, 0
3, 32064, Note_on_c, 0, 40, 110
3, 32108, Note_on_c, 0, 40, 0
3, 32112, Note_on_c, 0, 40, 110
3, 32156, Note_on_c, 0, 40, 0
3, 32160, Note_on_c, 0, 40, 110
3, 32204, Note_on_c, 0, 40, 0
3, 32208, Note_on_c, 0, 43, 110
3, 32252, Note_on_c, 0, 43, 0
3, 32256, Note_on_c, 0, 42, 110
3, 32300, Note_on_c, 0, 42, 0
3, 32304, Note_on_c, 0, 41, 110
3, 32348, Note_on_c, 0, 41, 0
3, 32352, Note_on_c, 0, 40, 110
3, 32396, Note_on_c, 0, 40, 0
3, 32400, Note_on_c, 0, 47, 110
3, 32423, Note_on_c, 0, 47, 0
3, 32424, Note_on_c, 0, 52, 110
3, 32468, Note_on_c, 0, 52, 0
3, 32472, Note_on_c, 0, 50, 110
3, 32495, Note_on_c, 0, 50, 0
3, 32496, Note_on_c, 0, 47, 110
3, 32540, Note_on_c, 0, 47, 0
3, 32544, Note_on_c, 0, 40, 110
3, 32588, Note_on_c, 0, 40, 0
3, 32592, Note_on_c, 0, 40, 110
3, 32636, Note_on_c, 0, 40, 0
3, 32640, Note_on_c, 0, 40, 110
3, 32684, Note_on_c, 0, 40, 0
3, 32688, Note_on_c, 0, 40, 110
3, 32732, Note_on_c, 0, 40, 0
3, 32736, Note_on_c, 0, 40, 110
3, 32780, Note_on_c, 0, 40, 0
3, 32784, Note_on_c, 0, 40, 110
3, 32828, Note_on_c, 0, 40, 0
3, 32832, Note_on_c, 0, 40, 110
3, 32876, Note_on_c, 0, 40, 0
3, 32880, Note_on_c, 0, 40, 110
3, 32924, Note_on_c, 0, 40, 0
3, 32928, Note_on_c, 0, 40, 110
3, 32972, Note_on_c, 0, 40, 0
3, 32976, Note_on_c, 0, 43, 110
3, 33020, Note_on_c, 0, 43, 0
3, 33024, Note_on_c, 0, 42, 110
3, 33068, Note_on_c, 0, 42, 0
3, 33072, Note_on_c, 0, 41, 110
3, 33116, Note_on_c, 0, 41, 0
3, 33120, Note_on_c, 0, 40, 110
3, 33164, Note_on_c, 0, 40, 0
3, 33168, Note_on_c, 0, 47, 110
3, 33191, Note_on_c, 0, 47, 0
3, 33192, Note_on_c, 0, 52, 110
3, 33236, Note_on_c, 0, 52, 0
3, 33240, Note_on_c, 0, 50, 110
3, 33263, Note_on_c, 0, 50, 0
3, 33264, Note_on_c, 0, 47, 110
3, 33308, Note_on_c, 0, 47, 0
3, 33312, Note_on_c, 0, 40, 110
3, 33407, Note_on_c, 0, 40, 0
3, 33408, Note_on_c, 0, 40, 110
3, 33408, Note_on_c, 0, 28, 110
3, 33452, Note_on_c, 0, 40, 0
3, 33452, Note_on_c, 0, 28, 0
3, 33456, Note_on_c, 0, 40, 110
3, 33456, Note_on_c, 0, 28, 110
3, 33500, Note_on_c, 0, 40, 0
3, 33500, Note_on_c, 0, 28, 0
3, 33504, Note_on_c, 0, 40, 110
3, 33504, Note_on_c, 0, 28, 110
3, 33548, Note_on_c, 0, 40, 0
3, 33548, Note_on_c, 0, 28, 0
3, 33552, Note_on_c, 0, 40, 110
3, 33552, Note_on_c, 0, 28, 110
3, 33596, Note_on_c, 0, 40, 0
3, 33596, Note_on_c, 0, 28, 0
3, 33600, Note_on_c, 0, 28, 110
3, 33600, Note_on_c, 0, 40, 110
3, 33644, Note_on_c, 0, 28, 0
3, 33644, Note_on_c, 0, 40, 0
3, 33648, Note_on_c, 0, 28, 110
3, 33648, Note_on_c, 0, 40, 110
3, 33692, Note_on_c, 0, 28, 0
3, 33692, Note_on_c, 0, 40, 0
3, 33696, Note_on_c, 0, 28, 110
3, 33696, Note_on_c, 0, 40, 110
3, 33791, Note_on_c, 0, 28, 0
3, 33791, Note_on_c, 0, 40, 0
3, 34080, Note_on_c, 0, 38, 110
3, 34223, Note_on_c, 0, 38, 0
3, 34224, Note_on_c, 0, 40, 110
3, 34367, Note_on_c, 0, 40, 0
3, 34368, Note_on_c, 0, 41, 110
3, 34511, Note_on_c, 0, 41, 0
3, 34512, Note_on_c, 0, 43, 110
3, 34607, Note_on_c, 0, 43, 0
3, 34608, Note_on_c, 0, 45, 110
3, 34652, Note_on_c, 0, 45, 0
3, 34656, Note_on_c, 0, 40, 110
3, 34751, Note_on_c, 0, 40, 0
3, 34752, Note_on_c, 0, 53, 110
3, 34759, Note_on_c, 0, 53, 0
3, 34768, Note_on_c, 0, 53, 110
3, 34775, Note_on_c, 0, 53, 0
3, 34784, Note_on_c, 0, 53, 110
3, 34791, Note_on_c, 0, 53, 0
3, 34792, Note_on_c, 0, 48, 110
3, 34799, Note_on_c, 0, 48, 0
3, 34800, Note_on_c, 0, 45, 110
3, 34811, Note_on_c, 0, 45, 0
3, 34812, Note_on_c, 0, 43, 110
3, 34823, Note_on_c, 0, 43, 0
3, 34824, Note_on_c, 0, 41, 110
3, 34835, Note_on_c, 0, 41, 0
3, 34836, Note_on_c, 0, 40, 110
3, 34847, Note_on_c, 0, 40, 0
3, 34848, Note_on_c, 0, 36, 110
3, 34892, Note_on_c, 0, 36, 0
3, 34896, Note_on_c, 0, 35, 110
3, 34940, Note_on_c, 0, 35, 0
3, 34944, Note_on_c, 0, 34, 110
3, 35087, Note_on_c, 0, 34, 0
3, 35136, Note_on_c, 0, 36, 110
3, 35180, Note_on_c, 0, 36, 0
3, 35184, Note_on_c, 0, 38, 110
3, 35228, Note_on_c, 0, 38, 0
3, 35232, Note_on_c, 0, 33, 110
3, 35375, Note_on_c, 0, 33, 0
3, 35376, Note_on_c, 0, 45, 110
3, 35420, Note_on_c, 0, 45, 0
3, 35424, Note_on_c, 0, 37, 110
3, 35468, Note_on_c, 0, 37, 0
3, 35472, Note_on_c, 0, 40, 110
3, 35516, Note_on_c, 0, 40, 0
3, 35520, Note_on_c, 0, 38, 110
3, 35663, Note_on_c, 0, 38, 0
3, 35664, Note_on_c, 0, 40, 110
3, 35807, Note_on_c, 0, 40, 0
3, 35808, Note_on_c, 0, 41, 110
3, 35951, Note_on_c, 0, 41, 0
3, 35952, Note_on_c, 0, 43, 110
3, 36047, Note_on_c, 0, 43, 0
3, 36048, Note_on_c, 0, 45, 110
3, 36092, Note_on_c, 0, 45, 0
3, 36096, Note_on_c, 0, 40, 110
3, 36191, Note_on_c, 0, 40, 0
3, 36192, Note_on_c, 0, 53, 110
3, 36199, Note_on_c, 0, 53, 0
3, 36208, Note_on_c, 0, 53, 110
3, 36215, Note_on_c, 0, 53, 0
3, 36224, Note_on_c, 0, 53, 110
3, 36231, Note_on_c, 0, 53, 0
3, 36232, Note_on_c, 0, 48, 110
3, 36239, Note_on_c, 0, 48, 0
3, 36240, Note_on_c, 0, 45, 110
3, 36251, Note_on_c, 0, 45, 0
3, 36252, Note_on_c, 0, 43, 110
3, 36263, Note_on_c, 0, 43, 0
3, 36264, Note_on_c, 0, 41, 110
3, 36275, Note_on_c, 0, 41, 0
3, 36276, Note_on_c, 0, 40, 110
3, 36287, Note_on_c, 0, 40, 0
3, 36288, Note_on_c, 0, 36, 110
3, 36332, Note_on_c, 0, 36, 0
3, 36336, Note_on_c, 0, 35, 110
3, 36380, Note_on_c, 0, 35, 0
3, 36384, Note_on_c, 0, 34, 110
3, 36527, Note_on_c, 0, 34, 0
3, 36576, Note_on_c, 0, 36, 110
3, 36620, Note_on_c, 0, 36, 0
3, 36624, Note_on_c, 0, 38, 110
3, 36668, Note_on_c, 0, 38, 0
3, 36672, Note_on_c, 0, 33, 110
3, 36716, Note_on_c, 0, 33, 0
3, 36720, Note_on_c, 0, 37, 110
3, 36764, Note_on_c, 0, 37, 0
3, 36768, Note_on_c, 0, 40, 110
3, 36812, Note_on_c, 0, 40, 0
3, 36816, Note_on_c, 0, 45, 110
3, 37103, Note_on_c, 0, 45, 0
3, 37248, Note_on_c, 0, 33, 110
3, 37391, Note_on_c, 0, 33, 0
3, 37392, Note_on_c, 0, 38, 110
3, 37415, Note_on_c, 0, 38, 0
3, 37416, Note_on_c, 0, 40, 110
3, 37439, Note_on_c, 0, 40, 0
3, 37440, Note_on_c, 0, 43, 110
3, 37535, Note_on_c, 0, 43, 0
3, 37536, Note_on_c, 0, 43, 110
3, 37580, Note_on_c, 0, 43, 0
3, 37584, Note_on_c, 0, 45, 110
3, 37628, Note_on_c, 0, 45, 0
3, 37632, Note_on_c, 0, 33, 110
3, 37775, Note_on_c, 0, 33, 0
3, 37776, Note_on_c, 0, 38, 110
3, 37799, Note_on_c, 0, 38, 0
3, 37800, Note_on_c, 0, 40, 110
3, 37823, Note_on_c, 0, 40, 0
3, 37824, Note_on_c, 0, 43, 110
3, 37868, Note_on_c, 0, 43, 0
3, 37872, Note_on_c, 0, 43, 110
3, 37916, Note_on_c, 0, 43, 0
3, 37920, Note_on_c, 0, 43, 110
3, 37964, Note_on_c, 0, 43, 0
3, 37968, Note_on_c, 0, 45, 110
3, 38012, Note_on_c, 0, 45, 0
3, 38016, Note_on_c, 0, 33, 110
3, 38159, Note_on_c, 0, 33, 0
3, 38160, Note_on_c, 0, 40, 110
3, 38303, Note_on_c, 0, 40, 0
3, 38304, Note_on_c, 0, 40, 110
3, 38399, Note_on_c, 0, 40, 0
3, 38400, Note_on_c, 0, 33, 110
3, 38543, Note_on_c, 0, 33, 0
3, 38544, Note_on_c, 0, 38, 110
3, 38567, Note_on_c, 0, 38, 0
3, 38568, Note_on_c, 0, 40, 110
3, 38591, Note_on_c, 0, 40, 0
3, 38592, Note_on_c, 0, 43, 110
3, 38636, Note_on_c, 0, 43, 0
3, 38640, Note_on_c, 0, 43, 110
3, 38684, Note_on_c, 0, 43, 0
3, 38688, Note_on_c, 0, 43, 110
3, 38732, Note_on_c, 0, 43, 0
3, 38736, Note_on_c, 0, 45, 110
3, 38780, Note_on_c, 0, 45, 0
3, 38784, Note_on_c, 0, 33, 110
3, 38927, Note_on_c, 0, 33, 0
3, 38928, Note_on_c, 0, 40, 110
3, 39071, Note_on_c, 0, 40, 0
3, 39072, Note_on_c, 0, 40, 110
3, 39167, Note_on_c, 0, 40, 0
3, 39168, Note_on_c, 0, 33, 110
3, 39311, Note_on_c, 0, 33, 0
3, 39312, Note_on_c, 0, 38, 110
3, 39335, Note_on_c, 0, 38, 0
3, 39336, Note_on_c, 0, 40, 110
3, 39359, Note_on_c, 0, 40, 0
3, 39360, Note_on_c, 0, 43, 110
3, 39404, Note_on_c, 0, 43, 0
3, 39408, Note_on_c, 0, 43, 110
3, 39452, Note_on_c, 0, 43, 0
3, 39456, Note_on_c, 0, 43, 110
3, 39500, Note_on_c, 0, 43, 0
3, 39504, Note_on_c, 0, 45, 110
3, 39548, Note_on_c, 0, 45, 0
3, 39552, Note_on_c, 0, 33, 110
3, 39695, Note_on_c, 0, 33, 0
3, 39696, Note_on_c, 0, 33, 110
3, 39740, Note_on_c, 0, 33, 0
3, 39744, Note_on_c, 0, 36, 110
3, 39887, Note_on_c, 0, 36, 0
3, 39888, Note_on_c, 0, 36, 110
3, 39932, Note_on_c, 0, 36, 0
3, 39936, Note_on_c, 0, 38, 110
3, 40079, Note_on_c, 0, 38, 0
3, 40080, Note_on_c, 0, 38, 110
3, 40124, Note_on_c, 0, 38, 0
3, 40128, Note_on_c, 0, 41, 110
3, 40271, Note_on_c, 0, 41, 0
3, 40272, Note_on_c, 0, 41, 110
3, 40316, Note_on_c, 0, 41, 0
3, 40320, Note_on_c, 0, 40, 110
3, 40391, Note_on_c, 0, 40, 0
3, 40392, Note_on_c, 0, 38, 110
3, 40403, Note_on_c, 0, 38, 0
3, 40404, Note_on_c, 0, 35, 110
3, 40415, Note_on_c, 0, 35, 0
3, 40416, Note_on_c, 0, 36, 110
3, 40487, Note_on_c, 0, 36, 0
3, 40488, Note_on_c, 0, 35, 110
3, 40499, Note_on_c, 0, 35, 0
3, 40500, Note_on_c, 0, 31, 110
3, 40511, Note_on_c, 0, 31, 0
3, 40512, Note_on_c, 0, 33, 110
3, 40607, Note_on_c, 0, 33, 0
3, 40608, Note_on_c, 0, 45, 110
3, 40652, Note_on_c, 0, 45, 0
3, 40656, Note_on_c, 0, 45, 110
3, 40700, Note_on_c, 0, 45, 0
3, 40704, Note_on_c, 0, 45, 110
3, 40748, Note_on_c, 0, 45, 0
3, 40752, Note_on_c, 0, 45, 110
3, 40796, Note_on_c, 0, 45, 0
3, 40800, Note_on_c, 0, 45, 110
3, 40844, Note_on_c, 0, 45, 0
3, 40848, Note_on_c, 0, 45, 110
3, 40892, Note_on_c, 0, 45, 0
3, 40896, Note_on_c, 0, 45, 110
3, 40940, Note_on_c, 0, 45, 0
3, 40944, Note_on_c, 0, 45, 110
3, 40988, Note_on_c, 0, 45, 0
3, 40992, Note_on_c, 0, 45, 110
3, 41015, Note_on_c, 0, 45, 0
3, 41016, Note_on_c, 0, 41, 110
3, 41027, Note_on_c, 0, 41, 0
3, 41028, Note_on_c, 0, 38, 110
3, 41039, Note_on_c, 0, 38, 0
3, 41040, Note_on_c, 0, 35, 110
3, 41051, Note_on_c, 0, 35, 0
3, 41052, Note_on_c, 0, 33, 110
3, 41087, Note_on_c, 0, 33, 0
3, 41088, Note_on_c, 0, 33, 110
3, 41132, Note_on_c, 0, 33, 0
3, 41136, Note_on_c, 0, 33, 110
3, 41180, Note_on_c, 0, 33, 0
3, 41184, Note_on_c, 0, 36, 110
3, 41228, Note_on_c, 0, 36, 0
3, 41232, Note_on_c, 0, 36, 110
3, 41276, Note_on_c, 0, 36, 0
3, 41280, Note_on_c, 0, 38, 110
3, 41423, Note_on_c, 0, 38, 0
3, 41424, Note_on_c, 0, 45, 110
3, 41468, Note_on_c, 0, 45, 0
3, 41472, Note_on_c, 0, 50, 110
3, 41516, Note_on_c, 0, 50, 0
3, 41520, Note_on_c, 0, 50, 110
3, 41564, Note_on_c, 0, 50, 0
3, 41568, Note_on_c, 0, 50, 110
3, 41612, Note_on_c, 0, 50, 0
3, 41616, Note_on_c, 0, 43, 110
3, 41639, Note_on_c, 0, 43, 0
3, 41640, Note_on_c, 0, 45, 110
3, 41663, Note_on_c, 0, 45, 0
3, 41664, Note_on_c, 0, 38, 110
3, 41807, Note_on_c, 0, 38, 0
3, 41808, Note_on_c, 0, 45, 110
3, 41852, Note_on_c, 0, 45, 0
3, 41856, Note_on_c, 0, 50, 110
3, 41900, Note_on_c, 0, 50, 0
3, 41904, Note_on_c, 0, 50, 110
3, 41948, Note_on_c, 0, 50, 0
3, 41952, Note_on_c, 0, 48, 110
3, 41996, Note_on_c, 0, 48, 0
3, 42000, Note_on_c, 0, 45, 110
3, 42044, Note_on_c, 0, 45, 0
3, 42048, Note_on_c, 0, 38, 110
3, 42191, Note_on_c, 0, 38, 0
3, 42192, Note_on_c, 0, 43, 110
3, 42215, Note_on_c, 0, 43, 0
3, 42216, Note_on_c, 0, 45, 110
3, 42239, Note_on_c, 0, 45, 0
3, 42240, Note_on_c, 0, 50, 110
3, 42284, Note_on_c, 0, 50, 0
3, 42288, Note_on_c, 0, 50, 110
3, 42332, Note_on_c, 0, 50, 0
3, 42336, Note_on_c, 0, 50, 110
3, 42380, Note_on_c, 0, 50, 0
3, 42384, Note_on_c, 0, 45, 110
3, 42428, Note_on_c, 0, 45, 0
3, 42432, Note_on_c, 0, 38, 110
3, 42575, Note_on_c, 0, 38, 0
3, 42576, Note_on_c, 0, 53, 110
3, 42587, Note_on_c, 0, 53, 0
3, 42588, Note_on_c, 0, 54, 110
3, 42623, Note_on_c, 0, 54, 0
3, 42672, Note_on_c, 0, 53, 110
3, 42683, Note_on_c, 0, 53, 0
3, 42684, Note_on_c, 0, 54, 110
3, 42719, Note_on_c, 0, 54, 0
3, 42720, Note_on_c, 0, 50, 110
3, 42815, Note_on_c, 0, 50, 0
3, 42816, Note_on_c, 0, 38, 110
3, 42959, Note_on_c, 0, 38, 0
3, 42960, Note_on_c, 0, 38, 110
3, 43004, Note_on_c, 0, 38, 0
3, 43008, Note_on_c, 0, 50, 110
3, 43052, Note_on_c, 0, 50, 0
3, 43056, Note_on_c, 0, 50, 110
3, 43100, Note_on_c, 0, 50, 0
3, 43104, Note_on_c, 0, 50, 110
3, 43148, Note_on_c, 0, 50, 0
3, 43152, Note_on_c, 0, 43, 110
3, 43175, Note_on_c, 0, 43, 0
3, 43176, Note_on_c, 0, 45, 110
3, 43199, Note_on_c, 0, 45, 0
3, 43200, Note_on_c, 0, 38, 110
3, 43244, Note_on_c, 0, 38, 0
3, 43248, Note_on_c, 0, 38, 110
3, 43292, Note_on_c, 0, 38, 0
3, 43392, Note_on_c, 0, 44, 110
3, 43415, Note_on_c, 0, 44, 0
3, 43416, Note_on_c, 0, 45, 110
3, 43439, Note_on_c, 0, 45, 0
3, 43440, Note_on_c, 0, 50, 110
3, 43484, Note_on_c, 0, 50, 0
3, 43488, Note_on_c, 0, 50, 110
3, 43583, Note_on_c, 0, 50, 0
3, 43584, Note_on_c, 0, 38, 110
3, 43727, Note_on_c, 0, 38, 0
3, 43728, Note_on_c, 0, 38, 110
3, 43772, Note_on_c, 0, 38, 0
3, 43776, Note_on_c, 0, 41, 110
3, 43919, Note_on_c, 0, 41, 0
3, 43920, Note_on_c, 0, 41, 110
3, 43964, Note_on_c, 0, 41, 0
3, 43968, Note_on_c, 0, 36, 110
3, 44111, Note_on_c, 0, 36, 0
3, 44112, Note_on_c, 0, 36, 110
3, 44156, Note_on_c, 0, 36, 0
3, 44160, Note_on_c, 0, 34, 110
3, 44303, Note_on_c, 0, 34, 0
3, 44304, Note_on_c, 0, 35, 110
3, 44319, Note_on_c, 0, 35, 0
3, 44320, Note_on_c, 0, 36, 110
3, 44335, Note_on_c, 0, 36, 0
3, 44336, Note_on_c, 0, 37, 110
3, 44351, Note_on_c, 0, 37, 0
3, 44352, Note_on_c, 0, 38, 110
3, 44415, Note_on_c, 0, 38, 0
3, 44416, Note_on_c, 0, 39, 110
3, 44479, Note_on_c, 0, 39, 0
3, 44480, Note_on_c, 0, 40, 110
3, 44543, Note_on_c, 0, 40, 0
3, 44544, Note_on_c, 0, 28, 110
3, 44588, Note_on_c, 0, 28, 0
3, 44592, Note_on_c, 0, 28, 110
3, 44636, Note_on_c, 0, 28, 0
3, 44640, Note_on_c, 0, 28, 110
3, 44684, Note_on_c, 0, 28, 0
3, 44688, Note_on_c, 0, 40, 110
3, 44732, Note_on_c, 0, 40, 0
3, 44736, Note_on_c, 0, 40, 110
3, 44780, Note_on_c, 0, 40, 0
3, 44784, Note_on_c, 0, 40, 110
3, 44828, Note_on_c, 0, 40, 0
3, 44832, Note_on_c, 0, 40, 110
3, 44876, Note_on_c, 0, 40, 0
3, 44880, Note_on_c, 0, 40, 110
3, 44924, Note_on_c, 0, 40, 0
3, 44928, Note_on_c, 0, 40, 110
3, 44972, Note_on_c, 0, 40, 0
3, 44976, Note_on_c, 0, 43, 110
3, 45020, Note_on_c, 0, 43, 0
3, 45024, Note_on_c, 0, 42, 110
3, 45068, Note_on_c, 0, 42, 0
3, 45072, Note_on_c, 0, 41, 110
3, 45116, Note_on_c, 0, 41, 0
3, 45120, Note_on_c, 0, 40, 110
3, 45164, Note_on_c, 0, 40, 0
3, 45168, Note_on_c, 0, 47, 110
3, 45191, Note_on_c, 0, 47, 0
3, 45192, Note_on_c, 0, 52, 110
3, 45236, Note_on_c, 0, 52, 0
3, 45240, Note_on_c, 0, 50, 110
3, 45263, Note_on_c, 0, 50, 0
3, 45264, Note_on_c, 0, 47, 110
3, 45308, Note_on_c, 0, 47, 0
3, 45312, Note_on_c, 0, 40, 110
3, 45356, Note_on_c, 0, 40, 0
3, 45360, Note_on_c, 0, 40, 110
3, 45404, Note_on_c, 0, 40, 0
3, 45408, Note_on_c, 0, 40, 110
3, 45452, Note_on_c, 0, 40, 0
3, 45456, Note_on_c, 0, 40, 110
3, 45500, Note_on_c, 0, 40, 0
3, 45504, Note_on_c, 0, 40, 110
3, 45548, Note_on_c, 0, 40, 0
3, 45552, Note_on_c, 0, 40, 110
3, 45596, Note_on_c, 0, 40, 0
3, 45600, Note_on_c, 0, 40, 110
3, 45644, Note_on_c, 0, 40, 0
3, 45648, Note_on_c, 0, 40, 110
3, 45692, Note_on_c, 0, 40, 0
3, 45696, Note_on_c, 0, 40, 110
3, 45740, Note_on_c, 0, 40, 0
3, 45744, Note_on_c, 0, 43, 110
3, 45788, Note_on_c, 0, 43, 0
3, 45792, Note_on_c, 0, 42, 110
3, 45836, Note_on_c, 0, 42, 0
3, 45840, Note_on_c, 0, 41, 110
3, 45884, Note_on_c, 0, 41, 0
3, 45888, Note_on_c, 0, 40, 110
3, 45932, Note_on_c, 0, 40, 0
3, 45936, Note_on_c, 0, 47, 110
3, 45959, Note_on_c, 0, 47, 0
3, 45960, Note_on_c, 0, 52, 110
3, 46004, Note_on_c, 0, 52, 0
3, 46008, Note_on_c, 0, 50, 110
3, 46031, Note_on_c, 0, 50, 0
3, 46032, Note_on_c, 0, 47, 110
3, 46076, Note_on_c, 0, 47, 0
3, 46080, Note_on_c, 0, 40, 110
3, 46175, Note_on_c, 0, 40, 0
3, 46176, Note_on_c, 0, 28, 110
3, 46176, Note_on_c, 0, 40, 110
3, 46220, Note_on_c, 0, 28, 0
3, 46220, Note_on_c, 0, 40, 0
3, 46224, Note_on_c, 0, 28, 110
3, 46224, Note_on_c, 0, 40, 110
3, 46268, Note_on_c, 0, 28, 0
3, 46268, Note_on_c, 0, 40, 0
3, 46272, Note_on_c, 0, 40, 110
3, 46272, Note_on_c, 0, 28, 110
3, 46316, Note_on_c, 0, 40, 0
3, 46316, Note_on_c, 0, 28, 0
3, 46320, Note_on_c, 0, 28, 110
3, 46320, Note_on_c, 0, 40, 110
3, 46364, Note_on_c, 0, 28, 0
3, 46364, Note_on_c, 0, 40, 0
3, 46368, Note_on_c, 0, 40, 110
3, 46368, Note_on_c, 0, 28, 110
3, 46412, Note_on_c, 0, 40, 0
3, 46412, Note_on_c, 0, 28, 0
3, 46416, Note_on_c, 0, 40, 110
3, 46416, Note_on_c, 0, 28, 110
3, 46460, Note_on_c, 0, 40, 0
3, 46460, Note_on_c, 0, 28, 0
3, 46464, Note_on_c, 0, 52, 110
3, 46535, Note_on_c, 0, 52, 0
3, 46536, Note_on_c, 0, 48, 100
3, 46547, Note_on_c, 0, 48, 0
3, 46548, Note_on_c, 0, 45, 100
3, 46559, Note_on_c, 0, 45, 0
3, 46560, Note_on_c, 0, 40, 110
3, 46615, Note_on_c, 0, 40, 0
3, 46620, Note_on_c, 0, 45, 100
3, 46631, Note_on_c, 0, 45, 0
3, 46632, Note_on_c, 0, 48, 100
3, 46643, Note_on_c, 0, 48, 0
3, 46644, Note_on_c, 0, 52, 100
3, 46655, Note_on_c, 0, 52, 0
3, 46848, Note_on_c, 0, 38, 110
3, 46991, Note_on_c, 0, 38, 0
3, 46992, Note_on_c, 0, 40, 110
3, 47135, Note_on_c, 0, 40, 0
3, 47136, Note_on_c, 0, 41, 110
3, 47279, Note_on_c, 0, 41, 0
3, 47280, Note_on_c, 0, 43, 110
3, 47375, Note_on_c, 0, 43, 0
3, 47376, Note_on_c, 0, 45, 110
3, 47420, Note_on_c, 0, 45, 0
3, 47424, Note_on_c, 0, 40, 110
3, 47567, Note_on_c, 0, 40, 0
3, 47568, Note_on_c, 0, 53, 110
3, 47591, Note_on_c, 0, 53, 0
3, 47592, Note_on_c, 0, 48, 110
3, 47597, Note_on_c, 0, 48, 0
3, 47598, Note_on_c, 0, 45, 110
3, 47603, Note_on_c, 0, 45, 0
3, 47604, Note_on_c, 0, 41, 110
3, 47609, Note_on_c, 0, 41, 0
3, 47610, Note_on_c, 0, 40, 110
3, 47615, Note_on_c, 0, 40, 0
3, 47616, Note_on_c, 0, 36, 110
3, 47660, Note_on_c, 0, 36, 0
3, 47664, Note_on_c, 0, 35, 110
3, 47708, Note_on_c, 0, 35, 0
3, 47712, Note_on_c, 0, 34, 110
3, 47855, Note_on_c, 0, 34, 0
3, 47904, Note_on_c, 0, 36, 110
3, 47948, Note_on_c, 0, 36, 0
3, 47952, Note_on_c, 0, 38, 110
3, 47996, Note_on_c, 0, 38, 0
3, 48000, Note_on_c, 0, 33, 110
3, 48143, Note_on_c, 0, 33, 0
3, 48192, Note_on_c, 0, 41, 110
3, 48236, Note_on_c, 0, 41, 0
3, 48240, Note_on_c, 0, 40, 110
3, 48284, Note_on_c, 0, 40, 0
3, 48288, Note_on_c, 0, 38, 110
3, 48431, Note_on_c, 0, 38, 0
3, 48432, Note_on_c, 0, 40, 110
3, 48575, Note_on_c, 0, 40, 0
3, 48576, Note_on_c, 0, 41, 110
3, 48719, Note_on_c, 0, 41, 0
3, 48720, Note_on_c, 0, 43, 110
3, 48815, Note_on_c, 0, 43, 0
3, 48816, Note_on_c, 0, 45, 110
3, 48860, Note_on_c, 0, 45, 0
3, 48864, Note_on_c, 0, 40, 110
3, 48959, Note_on_c, 0, 40, 0
3, 48960, Note_on_c, 0, 53, 110
3, 48967, Note_on_c, 0, 53, 0
3, 48976, Note_on_c, 0, 53, 110
3, 48983, Note_on_c, 0, 53, 0
3, 48992, Note_on_c, 0, 53, 110
3, 48999, Note_on_c, 0, 53, 0
3, 49000, Note_on_c, 0, 48, 110
3, 49007, Note_on_c, 0, 48, 0
3, 49008, Note_on_c, 0, 45, 110
3, 49019, Note_on_c, 0, 45, 0
3, 49020, Note_on_c, 0, 43, 110
3, 49031, Note_on_c, 0, 43, 0
3, 49032, Note_on_c, 0, 41, 110
3, 49043, Note_on_c, 0, 41, 0
3, 49044, Note_on_c, 0, 40, 110
3, 49055, Note_on_c, 0, 40, 0
3, 49056, Note_on_c, 0, 36, 110
3, 49100, Note_on_c, 0, 36, 0
3, 49104, Note_on_c, 0, 35, 110
3, 49148, Note_on_c, 0, 35, 0
3, 49152, Note_on_c, 0, 34, 110
3, 49295, Note_on_c, 0, 34, 0
3, 49344, Note_on_c, 0, 36, 110
3, 49388, Note_on_c, 0, 36, 0
3, 49392, Note_on_c, 0, 38, 110
3, 49436, Note_on_c, 0, 38, 0
3, 49440, Note_on_c, 0, 33, 110
3, 49583, Note_on_c, 0, 33, 0
3, 49584, Note_on_c, 0, 45, 110
3, 49628, Note_on_c, 0, 45, 0
3, 49632, Note_on_c, 0, 37, 110
3, 49676, Note_on_c, 0, 37, 0
3, 49680, Note_on_c, 0, 40, 110
3, 49724, Note_on_c, 0, 40, 0
3, 49728, Note_on_c, 0, 38, 110
3, 49871, Note_on_c, 0, 38, 0
3, 49872, Note_on_c, 0, 40, 110
3, 50015, Note_on_c, 0, 40, 0
3, 50016, Note_on_c, 0, 41, 110
3, 50159, Note_on_c, 0, 41, 0
3, 50160, Note_on_c, 0, 43, 110
3, 50255, Note_on_c, 0, 43, 0
3, 50256, Note_on_c, 0, 45, 110
3, 50300, Note_on_c, 0, 45, 0
3, 50304, Note_on_c, 0, 40, 110
3, 50399, Note_on_c, 0, 40, 0
3, 50400, Note_on_c, 0, 53, 110
3, 50407, Note_on_c, 0, 53, 0
3, 50416, Note_on_c, 0, 53, 110
3, 50423, Note_on_c, 0, 53, 0
3, 50432, Note_on_c, 0, 53, 110
3, 50439, Note_on_c, 0, 53, 0
3, 50440, Note_on_c, 0, 48, 110
3, 50447, Note_on_c, 0, 48, 0
3, 50448, Note_on_c, 0, 45, 110
3, 50459, Note_on_c, 0, 45, 0
3, 50460, Note_on_c, 0, 43, 110
3, 50471, Note_on_c, 0, 43, 0
3, 50472, Note_on_c, 0, 41, 110
3, 50483, Note_on_c, 0, 41, 0
3, 50484, Note_on_c, 0, 40, 110
3, 50495, Note_on_c, 0, 40, 0
3, 50496, Note_on_c, 0, 36, 110
3, 50540, Note_on_c, 0, 36, 0
3, 50544, Note_on_c, 0, 35, 110
3, 50588, Note_on_c, 0, 35, 0
3, 50592, Note_on_c, 0, 34, 110
3, 50735, Note_on_c, 0, 34, 0
3, 50784, Note_on_c, 0, 36, 110
3, 50828, Note_on_c, 0, 36, 0
3, 50832, Note_on_c, 0, 38, 110
3, 50876, Note_on_c, 0, 38, 0
3, 50880, Note_on_c, 0, 33, 110
3, 51023, Note_on_c, 0, 33, 0
3, 51072, Note_on_c, 0, 41, 110
3, 51116, Note_on_c, 0, 41, 0
3, 51120, Note_on_c, 0, 40, 110
3, 51164, Note_on_c, 0, 40, 0
3, 51168, Note_on_c, 0, 38, 110
3, 51311, Note_on_c, 0, 38, 0
3, 51312, Note_on_c, 0, 40, 110
3, 51455, Note_on_c, 0, 40, 0
3, 51456, Note_on_c, 0, 41, 110
3, 51599, Note_on_c, 0, 41, 0
3, 51600, Note_on_c, 0, 43, 110
3, 51695, Note_on_c, 0, 43, 0
3, 51696, Note_on_c, 0, 45, 110
3, 51740, Note_on_c, 0, 45, 0
3, 51744, Note_on_c, 0, 40, 110
3, 51887, Note_on_c, 0, 40, 0
3, 51888, Note_on_c, 0, 53, 110
3, 51911, Note_on_c, 0, 53, 0
3, 51912, Note_on_c, 0, 48, 110
3, 51917, Note_on_c, 0, 48, 0
3, 51918, Note_on_c, 0, 45, 110
3, 51923, Note_on_c, 0, 45, 0
3, 51924, Note_on_c, 0, 41, 110
3, 51929, Note_on_c, 0, 41, 0
3, 51930, Note_on_c, 0, 40, 110
3, 51935, Note_on_c, 0, 40, 0
3, 51936, Note_on_c, 0, 36, 110
3, 51980, Note_on_c, 0, 36, 0
3, 51984, Note_on_c, 0, 35, 110
3, 52028, Note_on_c, 0, 35, 0
3, 52032, Note_on_c, 0, 34, 110
3, 52175, Note_on_c, 0, 34, 0
3, 52224, Note_on_c, 0, 36, 110
3, 52268, Note_on_c, 0, 36, 0
3, 52272, Note_on_c, 0, 38, 110
3, 52316, Note_on_c, 0, 38, 0
3, 52320, Note_on_c, 0, 33, 110
3, 52463, Note_on_c, 0, 33, 0
3, 52512, Note_on_c, 0, 41, 110
3, 52556, Note_on_c, 0, 41, 0
3, 52560, Note_on_c, 0, 40, 110
3, 52604, Note_on_c, 0, 40, 0
3, 52608, Note_on_c, 0, 38, 110
3, 52751, Note_on_c, 0, 38, 0
3, 52752, Note_on_c, 0, 40, 110
3, 52895, Note_on_c, 0, 40, 0
3, 52896, Note_on_c, 0, 41, 110
3, 53039, Note_on_c, 0, 41, 0
3, 53040, Note_on_c, 0, 43, 110
3, 53135, Note_on_c, 0, 43, 0
3, 53136, Note_on_c, 0, 45, 110
3, 53180, Note_on_c, 0, 45, 0
3, 53184, Note_on_c, 0, 40, 110
3, 53279, Note_on_c, 0, 40, 0
3, 53280, Note_on_c, 0, 53, 110
3, 53287, Note_on_c, 0, 53, 0
3, 53296, Note_on_c, 0, 53, 110
3, 53303, Note_on_c, 0, 53, 0
3, 53312, Note_on_c, 0, 53, 110
3, 53319, Note_on_c, 0, 53, 0
3, 53320, Note_on_c, 0, 48, 110
3, 53327, Note_on_c, 0, 48, 0
3, 53328, Note_on_c, 0, 45, 110
3, 53339, Note_on_c, 0, 45, 0
3, 53340, Note_on_c, 0, 43, 110
3, 53351, Note_on_c, 0, 43, 0
3, 53352, Note_on_c, 0, 41, 110
3, 53363, Note_on_c, 0, 41, 0
3, 53364, Note_on_c, 0, 40, 110
3, 53375, Note_on_c, 0, 40, 0
3, 53376, Note_on_c, 0, 36, 110
3, 53420, Note_on_c, 0, 36, 0
3, 53424, Note_on_c, 0, 35, 110
3, 53468, Note_on_c, 0, 35, 0
3, 53472, Note_on_c, 0, 34, 110
3, 53615, Note_on_c, 0, 34, 0
3, 53664, Note_on_c, 0, 36, 110
3, 53708, Note_on_c, 0, 36, 0
3, 53712, Note_on_c, 0, 38, 110
3, 53756, Note_on_c, 0, 38, 0
3, 53760, Note_on_c, 0, 33, 110
3, 53903, Note_on_c, 0, 33, 0
3, 53904, Note_on_c, 0, 45, 110
3, 53948, Note_on_c, 0, 45, 0
3, 53952, Note_on_c, 0, 37, 110
3, 53996, Note_on_c, 0, 37, 0
3, 54000, Note_on_c, 0, 40, 110
3, 54044, Note_on_c, 0, 40, 0
3, 54048, Note_on_c, 0, 38, 110
3, 54191, Note_on_c, 0, 38, 0
3, 54192, Note_on_c, 0, 40, 110
3, 54335, Note_on_c, 0, 40, 0
3, 54336, Note_on_c, 0, 41, 110
3, 54479, Note_on_c, 0, 41, 0
3, 54480, Note_on_c, 0, 43, 110
3, 54575, Note_on_c, 0, 43, 0
3, 54576, Note_on_c, 0, 45, 110
3, 54620, Note_on_c, 0, 45, 0
3, 54624, Note_on_c, 0, 40, 110
3, 54719, Note_on_c, 0, 40, 0
3, 54720, Note_on_c, 0, 53, 110
3, 54727, Note_on_c, 0, 53, 0
3, 54736, Note_on_c, 0, 53, 110
3, 54743, Note_on_c, 0, 53, 0
3, 54752, Note_on_c, 0, 53, 110
3, 54759, Note_on_c, 0, 53, 0
3, 54760, Note_on_c, 0, 48, 110
3, 54767, Note_on_c, 0, 48, 0
3, 54768, Note_on_c, 0, 45, 110
3, 54779, Note_on_c, 0, 45, 0
3, 54780, Note_on_c, 0, 43, 110
3, 54791, Note_on_c, 0, 43, 0
3, 54792, Note_on_c, 0, 41, 110
3, 54803, Note_on_c, 0, 41, 0
3, 54804, Note_on_c, 0, 40, 110
3, 54815, Note_on_c, 0, 40, 0
3, 54816, Note_on_c, 0, 36, 110
3, 54860, Note_on_c, 0, 36, 0
3, 54864, Note_on_c, 0, 35, 110
3, 54908, Note_on_c, 0, 35, 0
3, 54912, Note_on_c, 0, 34, 110
3, 55055, Note_on_c, 0, 34, 0
3, 55104, Note_on_c, 0, 36, 110
3, 55148, Note_on_c, 0, 36, 0
3, 55152, Note_on_c, 0, 38, 110
3, 55196, Note_on_c, 0, 38, 0
3, 55200, Note_on_c, 0, 33, 110
3, 55343, Note_on_c, 0, 33, 0
3, 55392, Note_on_c, 0, 41, 110
3, 55436, Note_on_c, 0, 41, 0
3, 55440, Note_on_c, 0, 40, 110
3, 55484, Note_on_c, 0, 40, 0
3, 55488, Note_on_c, 0, 38, 110
3, 55631, Note_on_c, 0, 38, 0
3, 55632, Note_on_c, 0, 40, 110
3, 55775, Note_on_c, 0, 40, 0
3, 55776, Note_on_c, 0, 41, 110
3, 55919, Note_on_c, 0, 41, 0
3, 55920, Note_on_c, 0, 43, 110
3, 56015, Note_on_c, 0, 43, 0
3, 56016, Note_on_c, 0, 45, 110
3, 56060, Note_on_c, 0, 45, 0
3, 56064, Note_on_c, 0, 40, 110
3, 56207, Note_on_c, 0, 40, 0
3, 56208, Note_on_c, 0, 53, 110
3, 56231, Note_on_c, 0, 53, 0
3, 56232, Note_on_c, 0, 48, 110
3, 56237, Note_on_c, 0, 48, 0
3, 56238, Note_on_c, 0, 45, 110
3, 56243, Note_on_c, 0, 45, 0
3, 56244, Note_on_c, 0, 41, 110
3, 56249, Note_on_c, 0, 41, 0
3, 56250, Note_on_c, 0, 40, 110
3, 56255, Note_on_c, 0, 40, 0
3, 56256, Note_on_c, 0, 36, 110
3, 56300, Note_on_c, 0, 36, 0
3, 56304, Note_on_c, 0, 35, 110
3, 56348, Note_on_c, 0, 35, 0
3, 56352, Note_on_c, 0, 34, 110
3, 56495, Note_on_c, 0, 34, 0
3, 56544, Note_on_c, 0, 36, 110
3, 56588, Note_on_c, 0, 36, 0
3, 56592, Note_on_c, 0, 38, 110
3, 56636, Note_on_c, 0, 38, 0
3, 56640, Note_on_c, 0, 33, 110
3, 56783, Note_on_c, 0, 33, 0
3, 56832, Note_on_c, 0, 41, 110
3, 56876, Note_on_c, 0, 41, 0
3, 56880, Note_on_c, 0, 40, 110
3, 56924, Note_on_c, 0, 40, 0
3, 56928, Note_on_c, 0, 38, 110
3, 57071, Note_on_c, 0, 38, 0
3, 57072, Note_on_c, 0, 40, 110
3, 57215, Note_on_c, 0, 40, 0
3, 57216, Note_on_c, 0, 41, 110
3, 57359, Note_on_c, 0, 41, 0
3, 57360, Note_on_c, 0, 43, 110
3, 57455, Note_on_c, 0, 43, 0
3, 57456, Note_on_c, 0, 45, 110
3, 57500, Note_on_c, 0, 45, 0
3, 57504, Note_on_c, 0, 40, 110
3, 57599, Note_on_c, 0, 40, 0
3, 57600, Note_on_c, 0, 53, 110
3, 57607, Note_on_c, 0, 53, 0
3, 57616, Note_on_c, 0, 53, 110
3, 57623, Note_on_c, 0, 53, 0
3, 57632, Note_on_c, 0, 53, 110
3, 57639, Note_on_c, 0, 53, 0
3, 57640, Note_on_c, 0, 48, 110
3, 57647, Note_on_c, 0, 48, 0
3, 57648, Note_on_c, 0, 45, 110
3, 57659, Note_on_c, 0, 45, 0
3, 57660, Note_on_c, 0, 43, 110
3, 57671, Note_on_c, 0, 43, 0
3, 57672, Note_on_c, 0, 41, 110
3, 57683, Note_on_c, 0, 41, 0
3, 57684, Note_on_c, 0, 40, 110
3, 57695, Note_on_c, 0, 40, 0
3, 57696, Note_on_c, 0, 36, 110
3, 57740, Note_on_c, 0, 36, 0
3, 57744, Note_on_c, 0, 35, 110
3, 57788, Note_on_c, 0, 35, 0
3, 57792, Note_on_c, 0, 34, 110
3, 57935, Note_on_c, 0, 34, 0
3, 57984, Note_on_c, 0, 36, 110
3, 58028, Note_on_c, 0, 36, 0
3, 58032, Note_on_c, 0, 38, 110
3, 58076, Note_on_c, 0, 38, 0
3, 58080, Note_on_c, 0, 33, 110
3, 58223, Note_on_c, 0, 33, 0
3, 58224, Note_on_c, 0, 45, 110
3, 58268, Note_on_c, 0, 45, 0
3, 58272, Note_on_c, 0, 37, 110
3, 58316, Note_on_c, 0, 37, 0
3, 58320, Note_on_c, 0, 40, 110
3, 58364, Note_on_c, 0, 40, 0
3, 58368, Note_on_c, 0, 38, 110
3, 58511, Note_on_c, 0, 38, 0
3, 58512, Note_on_c, 0, 40, 110
3, 58655, Note_on_c, 0, 40, 0
3, 58656, Note_on_c, 0, 41, 110
3, 58799, Note_on_c, 0, 41, 0
3, 58800, Note_on_c, 0, 43, 110
3, 58895, Note_on_c, 0, 43, 0
3, 58896, Note_on_c, 0, 45, 110
3, 58940, Note_on_c, 0, 45, 0
3, 58944, Note_on_c, 0, 40, 110
3, 59039, Note_on_c, 0, 40, 0
3, 59040, Note_on_c, 0, 53, 110
3, 59047, Note_on_c, 0, 53, 0
3, 59056, Note_on_c, 0, 53, 110
3, 59063, Note_on_c, 0, 53, 0
3, 59072, Note_on_c, 0, 53, 110
3, 59079, Note_on_c, 0, 53, 0
3, 59080, Note_on_c, 0, 48, 110
3, 59087, Note_on_c, 0, 48, 0
3, 59088, Note_on_c, 0, 45, 110
3, 59099, Note_on_c, 0, 45, 0
3, 59100, Note_on_c, 0, 43, 110
3, 59111, Note_on_c, 0, 43, 0
3, 59112, Note_on_c, 0, 41, 110
3, 59123, Note_on_c, 0, 41, 0
3, 59124, Note_on_c, 0, 40, 110
3, 59135, Note_on_c, 0, 40, 0
3, 59136, Note_on_c, 0, 36, 110
3, 59180, Note_on_c, 0, 36, 0
3, 59184, Note_on_c, 0, 35, 110
3, 59228, Note_on_c, 0, 35, 0
3, 59232, Note_on_c, 0, 34, 110
3, 59375, Note_on_c, 0, 34, 0
3, 59424, Note_on_c, 0, 36, 110
3, 59468, Note_on_c, 0, 36, 0
3, 59472, Note_on_c, 0, 38, 110
3, 59516, Note_on_c, 0, 38, 0
3, 59520, Note_on_c, 0, 33, 110
3, 59663, Note_on_c, 0, 33, 0
3, 59712, Note_on_c, 0, 41, 110
3, 59756, Note_on_c, 0, 41, 0
3, 59760, Note_on_c, 0, 40, 110
3, 59804, Note_on_c, 0, 40, 0
3, 59808, Note_on_c, 0, 38, 110
3, 59951, Note_on_c, 0, 38, 0
3, 59952, Note_on_c, 0, 40, 110
3, 60095, Note_on_c, 0, 40, 0
3, 60096, Note_on_c, 0, 41, 110
3, 60239, Note_on_c, 0, 41, 0
3, 60240, Note_on_c, 0, 43, 110
3, 60335, Note_on_c, 0, 43, 0
3, 60336, Note_on_c, 0, 45, 110
3, 60380, Note_on_c, 0, 45, 0
3, 60384, Note_on_c, 0, 40, 110
3, 60527, Note_on_c, 0, 40, 0
3, 60528, Note_on_c, 0, 53, 110
3, 60551, Note_on_c, 0, 53, 0
3, 60552, Note_on_c, 0, 48, 110
3, 60557, Note_on_c, 0, 48, 0
3, 60558, Note_on_c, 0, 45, 110
3, 60563, Note_on_c, 0, 45, 0
3, 60564, Note_on_c, 0, 41, 110
3, 60569, Note_on_c, 0, 41, 0
3, 60570, Note_on_c, 0, 40, 110
3, 60575, Note_on_c, 0, 40, 0
3, 60576, Note_on_c, 0, 36, 110
3, 60620, Note_on_c, 0, 36, 0
3, 60624, Note_on_c, 0, 35, 110
3, 60668, Note_on_c, 0, 35, 0
3, 60672, Note_on_c, 0, 34, 110
3, 60815, Note_on_c, 0, 34, 0
3, 60864, Note_on_c, 0, 36, 110
3, 60908, Note_on_c, 0, 36, 0
3, 60912, Note_on_c, 0, 38, 110
3, 60956, Note_on_c, 0, 38, 0
3, 60960, Note_on_c, 0, 33, 110
3, 61103, Note_on_c, 0, 33, 0
3, 61152, Note_on_c, 0, 41, 110
3, 61196, Note_on_c, 0, 41, 0
3, 61200, Note_on_c, 0, 40, 110
3, 61244, Note_on_c, 0, 40, 0
3, 61248, Note_on_c, 0, 38, 110
3, 61391, Note_on_c, 0, 38, 0
3, 61392, Note_on_c, 0, 40, 110
3, 61535, Note_on_c, 0, 40, 0
3, 61536, Note_on_c, 0, 41, 110
3, 61679, Note_on_c, 0, 41, 0
3, 61680, Note_on_c, 0, 43, 110
3, 61775, Note_on_c, 0, 43, 0
3, 61776, Note_on_c, 0, 45, 110
3, 61820, Note_on_c, 0, 45, 0
3, 61824, Note_on_c, 0, 40, 110
3, 61919, Note_on_c, 0, 40, 0
3, 61920, Note_on_c, 0, 53, 110
3, 61927, Note_on_c, 0, 53, 0
3, 61936, Note_on_c, 0, 53, 110
3, 61943, Note_on_c, 0, 53, 0
3, 61952, Note_on_c, 0, 53, 110
3, 61959, Note_on_c, 0, 53, 0
3, 61960, Note_on_c, 0, 48, 110
3, 61967, Note_on_c, 0, 48, 0
3, 61968, Note_on_c, 0, 45, 110
3, 61979, Note_on_c, 0, 45, 0
3, 61980, Note_on_c, 0, 43, 110
3, 61991, Note_on_c, 0, 43, 0
3, 61992, Note_on_c, 0, 41, 110
3, 62003, Note_on_c, 0, 41, 0
3, 62004, Note_on_c, 0, 40, 110
3, 62015, Note_on_c, 0, 40, 0
3, 62016, Note_on_c, 0, 36, 110
3, 62060, Note_on_c, 0, 36, 0
3, 62064, Note_on_c, 0, 35, 110
3, 62108, Note_on_c, 0, 35, 0
3, 62112, Note_on_c, 0, 34, 110
3, 62255, Note_on_c, 0, 34, 0
3, 62304, Note_on_c, 0, 36, 110
3, 62348, Note_on_c, 0, 36, 0
3, 62352, Note_on_c, 0, 38, 110
3, 62396, Note_on_c, 0, 38, 0
3, 62400, Note_on_c, 0, 33, 110
3, 62543, Note_on_c, 0, 33, 0
3, 62544, Note_on_c, 0, 45, 110
3, 62588, Note_on_c, 0, 45, 0
3, 62592, Note_on_c, 0, 37, 110
3, 62636, Note_on_c, 0, 37, 0
3, 62640, Note_on_c, 0, 40, 110
3, 62684, Note_on_c, 0, 40, 0
3, 62688, Note_on_c, 0, 38, 110
3, 62831, Note_on_c, 0, 38, 0
3, 62832, Note_on_c, 0, 40, 110
3, 62975, Note_on_c, 0, 40, 0
3, 62976, Note_on_c, 0, 41, 110
3, 63119, Note_on_c, 0, 41, 0
3, 63120, Note_on_c, 0, 43, 110
3, 63215, Note_on_c, 0, 43, 0
3, 63216, Note_on_c, 0, 45, 110
3, 63260, Note_on_c, 0, 45, 0
3, 63264, Note_on_c, 0, 40, 110
3, 63359, Note_on_c, 0, 40, 0
3, 63360, Note_on_c, 0, 53, 110
3, 63367, Note_on_c, 0, 53, 0
3, 63376, Note_on_c, 0, 53, 110
3, 63383, Note_on_c, 0, 53, 0
3, 63392, Note_on_c, 0, 53, 110
3, 63399, Note_on_c, 0, 53, 0
3, 63400, Note_on_c, 0, 48, 110
3, 63407, Note_on_c, 0, 48, 0
3, 63408, Note_on_c, 0, 45, 110
3, 63419, Note_on_c, 0, 45, 0
3, 63420, Note_on_c, 0, 43, 110
3, 63431, Note_on_c, 0, 43, 0
3, 63432, Note_on_c, 0, 41, 110
3, 63443, Note_on_c, 0, 41, 0
3, 63444, Note_on_c, 0, 40, 110
3, 63455, Note_on_c, 0, 40, 0
3, 63456, Note_on_c, 0, 36, 110
3, 63500, Note_on_c, 0, 36, 0
3, 63504, Note_on_c, 0, 35, 110
3, 63548, Note_on_c, 0, 35, 0
3, 63552, Note_on_c, 0, 34, 110
3, 63695, Note_on_c, 0, 34, 0
3, 63744, Note_on_c, 0, 36, 110
3, 63788, Note_on_c, 0, 36, 0
3, 63792, Note_on_c, 0, 38, 110
3, 63836, Note_on_c, 0, 38, 0
3, 63840, Note_on_c, 0, 33, 110
3, 63983, Note_on_c, 0, 33, 0
3, 64032, Note_on_c, 0, 41, 110
3, 64076, Note_on_c, 0, 41, 0
3, 64080, Note_on_c, 0, 40, 110
3, 64124, Note_on_c, 0, 40, 0
3, 64128, Note_on_c, 0, 38, 110
3, 64271, Note_on_c, 0, 38, 0
3, 64272, Note_on_c, 0, 40, 110
3, 64415, Note_on_c, 0, 40, 0
3, 64416, Note_on_c, 0, 41, 110
3, 64559, Note_on_c, 0, 41, 0
3, 64560, Note_on_c, 0, 43, 110
3, 64655, Note_on_c, 0, 43, 0
3, 64656, Note_on_c, 0, 45, 110
3, 64700, Note_on_c, 0, 45, 0
3, 64704, Note_on_c, 0, 40, 110
3, 64847, Note_on_c, 0, 40, 0
3, 64848, Note_on_c, 0, 53, 110
3, 64871, Note_on_c, 0, 53, 0
3, 64872, Note_on_c, 0, 48, 110
3, 64877, Note_on_c, 0, 48, 0
3, 64878, Note_on_c, 0, 45, 110
3, 64883, Note_on_c, 0, 45, 0
3, 64884, Note_on_c, 0, 41, 110
3, 64889, Note_on_c, 0, 41, 0
3, 64890, Note_on_c, 0, 40, 110
3, 64895, Note_on_c, 0, 40, 0
3, 64896, Note_on_c, 0, 36, 110
3, 64940, Note_on_c, 0, 36, 0
3, 64944, Note_on_c, 0, 35, 110
3, 64988, Note_on_c, 0, 35, 0
3, 64992, Note_on_c, 0, 34, 110
3, 65135, Note_on_c, 0, 34, 0
3, 65184, Note_on_c, 0, 36, 110
3, 65228, Note_on_c, 0, 36, 0
3, 65232, Note_on_c, 0, 38, 110
3, 65276, Note_on_c, 0, 38, 0
3, 65280, Note_on_c, 0, 33, 110
3, 65423, Note_on_c, 0, 33, 0
3, 65472, Note_on_c, 0, 41, 110
3, 65516, Note_on_c, 0, 41, 0
3, 65520, Note_on_c, 0, 40, 110
3, 65564, Note_on_c, 0, 40, 0
3, 65568, Note_on_c, 0, 38, 110
3, 65711, Note_on_c, 0, 38, 0
3, 65712, Note_on_c, 0, 40, 110
3, 65855, Note_on_c, 0, 40, 0
3, 65856, Note_on_c, 0, 41, 110
3, 65999, Note_on_c, 0, 41, 0
3, 66000, Note_on_c, 0, 43, 110
3, 66095, Note_on_c, 0, 43, 0
3, 66096, Note_on_c, 0, 45, 110
3, 66140, Note_on_c, 0, 45, 0
3, 66144, Note_on_c, 0, 40, 110
3, 66239, Note_on_c, 0, 40, 0
3, 66240, Note_on_c, 0, 53, 110
3, 66247, Note_on_c, 0, 53, 0
3, 66256, Note_on_c, 0, 53, 110
3, 66263, Note_on_c, 0, 53, 0
3, 66272, Note_on_c, 0, 53, 110
3, 66279, Note_on_c, 0, 53, 0
3, 66280, Note_on_c, 0, 48, 110
3, 66287, Note_on_c, 0, 48, 0
3, 66288, Note_on_c, 0, 45, 110
3, 66299, Note_on_c, 0, 45, 0
3, 66300, Note_on_c, 0, 43, 110
3, 66311, Note_on_c, 0, 43, 0
3, 66312, Note_on_c, 0, 41, 110
3, 66323, Note_on_c, 0, 41, 0
3, 66324, Note_on_c, 0, 40, 110
3, 66335, Note_on_c, 0, 40, 0
3, 66336, Note_on_c, 0, 36, 110
3, 66380, Note_on_c, 0, 36, 0
3, 66384, Note_on_c, 0, 35, 110
3, 66428, Note_on_c, 0, 35, 0
3, 66432, Note_on_c, 0, 34, 110
3, 66575, Note_on_c, 0, 34, 0
3, 66624, Note_on_c, 0, 36, 110
3, 66668, Note_on_c, 0, 36, 0
3, 66672, Note_on_c, 0, 38, 110
3, 66716, Note_on_c, 0, 38, 0
3, 66720, Note_on_c, 0, 33, 110
3, 66863, Note_on_c, 0, 33, 0
3, 66864, Note_on_c, 0, 45, 110
3, 66908, Note_on_c, 0, 45, 0
3, 66912, Note_on_c, 0, 37, 110
3, 66956, Note_on_c, 0, 37, 0
3, 66960, Note_on_c, 0, 40, 110
3, 67004, Note_on_c, 0, 40, 0
3, 67008, Note_on_c, 0, 38, 110
3, 67151, Note_on_c, 0, 38, 0
3, 67152, Note_on_c, 0, 40, 110
3, 67295, Note_on_c, 0, 40, 0
3, 67296, Note_on_c, 0, 41, 110
3, 67439, Note_on_c, 0, 41, 0
3, 67440, Note_on_c, 0, 43, 110
3, 67535, Note_on_c, 0, 43, 0
3, 67536, Note_on_c, 0, 45, 110
3, 67580, Note_on_c, 0, 45, 0
3, 67584, Note_on_c, 0, 40, 110
3, 67679, Note_on_c, 0, 40, 0
3, 67680, Note_on_c, 0, 53, 110
3, 67687, Note_on_c, 0, 53, 0
3, 67696, Note_on_c, 0, 53, 110
3, 67703, Note_on_c, 0, 53, 0
3, 67712, Note_on_c, 0, 53, 110
3, 67719, Note_on_c, 0, 53, 0
3, 67720, Note_on_c, 0, 48, 110
3, 67727, Note_on_c, 0, 48, 0
3, 67728, Note_on_c, 0, 45, 110
3, 67739, Note_on_c, 0, 45, 0
3, 67740, Note_on_c, 0, 43, 110
3, 67751, Note_on_c, 0, 43, 0
3, 67752, Note_on_c, 0, 41, 110
3, 67763, Note_on_c, 0, 41, 0
3, 67764, Note_on_c, 0, 40, 110
3, 67775, Note_on_c, 0, 40, 0
3, 67776, Note_on_c, 0, 36, 110
3, 67820, Note_on_c, 0, 36, 0
3, 67824, Note_on_c, 0, 35, 110
3, 67868, Note_on_c, 0, 35, 0
3, 67872, Note_on_c, 0, 34, 110
3, 68015, Note_on_c, 0, 34, 0
3, 68064, Note_on_c, 0, 36, 110
3, 68108, Note_on_c, 0, 36, 0
3, 68112, Note_on_c, 0, 38, 110
3, 68156, Note_on_c, 0, 38, 0
3, 68160, Note_on_c, 0, 33, 110
3, 68204, Note_on_c, 0, 33, 0
3, 68204, End_track
4, 0, Start_track
4, 0, Title_t, "Lead Alto Sax"
4, 0, MIDI_port, 0
4, 96, Control_c, 1, 121, 0
4, 97, Control_c, 1, 7, 127
4, 98, Control_c, 1, 10, 80
4, 99, Control_c, 1, 91, 50
4, 100, Control_c, 1, 93, 10
4, 101, Control_c, 1, 32, 0
4, 101, Control_c, 1, 0, 0
4, 101, Program_c, 1, 65
4, 102, Text_t, "VIBR DEPTH"
4, 103, Control_c, 1, 99, 1
4, 104, Control_c, 1, 98, 9
4, 105, Control_c, 1, 6, 80
4, 106, Text_t, "VIBR SPEED"
4, 107, Control_c, 1, 99, 1
4, 108, Control_c, 1, 98, 8
4, 109, Control_c, 1, 6, 51
4, 110, Text_t, "VIBR DELAY"
4, 111, Control_c, 1, 99, 1
4, 112, Control_c, 1, 98, 10
4, 113, Control_c, 1, 6, 64
4, 2016, Note_on_c, 1, 57, 115
4, 2039, Note_on_c, 1, 57, 0
4, 2040, Note_on_c, 1, 60, 115
4, 2111, Note_on_c, 1, 60, 0
4, 2112, Note_on_c, 1, 62, 115
4, 2119, Note_on_c, 1, 62, 0
4, 2120, Note_on_c, 1, 64, 115
4, 2303, Note_on_c, 1, 64, 0
4, 2640, Note_on_c, 1, 57, 115
4, 2687, Note_on_c, 1, 57, 0
4, 2688, Note_on_c, 1, 60, 115
4, 2735, Note_on_c, 1, 60, 0
4, 2736, Note_on_c, 1, 62, 115
4, 2783, Note_on_c, 1, 62, 0
4, 2784, Note_on_c, 1, 62, 115
4, 2791, Note_on_c, 1, 62, 0
4, 2792, Note_on_c, 1, 63, 115
4, 2879, Note_on_c, 1, 63, 0
4, 2880, Note_on_c, 1, 62, 115
4, 2927, Note_on_c, 1, 62, 0
4, 2928, Note_on_c, 1, 60, 115
4, 2975, Note_on_c, 1, 60, 0
4, 2976, Note_on_c, 1, 57, 115
4, 3071, Note_on_c, 1, 57, 0
4, 3072, Note_on_c, 1, 60, 115
4, 3167, Note_on_c, 1, 60, 0
4, 3168, Note_on_c, 1, 62, 115
4, 3191, Note_on_c, 1, 62, 0
4, 3192, Note_on_c, 1, 60, 115
4, 3215, Note_on_c, 1, 60, 0
4, 3216, Note_on_c, 1, 57, 115
4, 3239, Note_on_c, 1, 57, 0
4, 3504, Note_on_c, 1, 57, 115
4, 3551, Note_on_c, 1, 57, 0
4, 3552, Note_on_c, 1, 60, 115
4, 3647, Note_on_c, 1, 60, 0
4, 3648, Note_on_c, 1, 62, 115
4, 3697, Pitch_bend_c, 1, 9361
4, 3700, Pitch_bend_c, 1, 10922
4, 3704, Pitch_bend_c, 1, 11117
4, 3707, Pitch_bend_c, 1, 11214
4, 3710, Pitch_bend_c, 1, 11897
4, 3714, Pitch_bend_c, 1, 11994
4, 3717, Pitch_bend_c, 1, 12092
4, 3720, Pitch_bend_c, 1, 12092
4, 3724, Pitch_bend_c, 1, 12287
4, 3744, Pitch_bend_c, 1, 8874
4, 3747, Pitch_bend_c, 1, 8971
4, 3750, Pitch_bend_c, 1, 8874
4, 3753, Pitch_bend_c, 1, 8679
4, 3757, Pitch_bend_c, 1, 8484
4, 3760, Pitch_bend_c, 1, 8289
4, 3763, Pitch_bend_c, 1, 8289
4, 3767, Pitch_bend_c, 1, 8192
4, 3770, Pitch_bend_c, 1, 8192
4, 3790, Pitch_bend_c, 1, 11019
4, 3793, Pitch_bend_c, 1, 11117
4, 3796, Pitch_bend_c, 1, 11214
4, 3800, Pitch_bend_c, 1, 11312
4, 3803, Pitch_bend_c, 1, 11409
4, 3806, Pitch_bend_c, 1, 11604
4, 3810, Pitch_bend_c, 1, 11799
4, 3813, Pitch_bend_c, 1, 11897
4, 3816, Pitch_bend_c, 1, 11994
4, 3820, Pitch_bend_c, 1, 11994
4, 3823, Pitch_bend_c, 1, 11994
4, 3826, Pitch_bend_c, 1, 12092
4, 3830, Pitch_bend_c, 1, 12189
4, 3843, Pitch_bend_c, 1, 8971
4, 3846, Pitch_bend_c, 1, 8581
4, 3849, Pitch_bend_c, 1, 8484
4, 3853, Pitch_bend_c, 1, 8386
4, 3856, Pitch_bend_c, 1, 8289
4, 3859, Pitch_bend_c, 1, 8192
4, 3863, Pitch_bend_c, 1, 8192
4, 3892, Pitch_bend_c, 1, 12384
4, 3896, Pitch_bend_c, 1, 11409
4, 3899, Pitch_bend_c, 1, 11507
4, 3902, Pitch_bend_c, 1, 11604
4, 3906, Pitch_bend_c, 1, 11702
4, 3909, Pitch_bend_c, 1, 11799
4, 3912, Pitch_bend_c, 1, 11799
4, 3916, Pitch_bend_c, 1, 11897
4, 3919, Pitch_bend_c, 1, 11994
4, 3922, Pitch_bend_c, 1, 12092
4, 3926, Pitch_bend_c, 1, 12092
4, 3929, Pitch_bend_c, 1, 12092
4, 3932, Pitch_bend_c, 1, 12092
4, 3936, Pitch_bend_c, 1, 11994
4, 3942, Pitch_bend_c, 1, 8192
4, 3945, Pitch_bend_c, 1, 8874
4, 3949, Pitch_bend_c, 1, 8874
4, 3952, Pitch_bend_c, 1, 8581
4, 3955, Pitch_bend_c, 1, 8581
4, 3959, Pitch_bend_c, 1, 8386
4, 3962, Pitch_bend_c, 1, 8289
4, 3965, Pitch_bend_c, 1, 8192
4, 4031, Note_on_c, 1, 62, 0
4, 4176, Note_on_c, 1, 57, 115
4, 4223, Note_on_c, 1, 57, 0
4, 4224, Note_on_c, 1, 60, 115
4, 4271, Note_on_c, 1, 60, 0
4, 4272, Note_on_c, 1, 62, 115
4, 4319, Note_on_c, 1, 62, 0
4, 4320, Note_on_c, 1, 62, 115
4, 4327, Note_on_c, 1, 62, 0
4, 4328, Note_on_c, 1, 64, 115
4, 4415, Note_on_c, 1, 64, 0
4, 4416, Note_on_c, 1, 62, 115
4, 4463, Note_on_c, 1, 62, 0
4, 4464, Note_on_c, 1, 60, 115
4, 4511, Note_on_c, 1, 60, 0
4, 4512, Note_on_c, 1, 57, 115
4, 4607, Note_on_c, 1, 57, 0
4, 4608, Note_on_c, 1, 60, 115
4, 4703, Note_on_c, 1, 60, 0
4, 4704, Note_on_c, 1, 57, 115
4, 4799, Note_on_c, 1, 57, 0
4, 4800, Note_on_c, 1, 55, 115
4, 4847, Note_on_c, 1, 55, 0
4, 4848, Note_on_c, 1, 52, 115
4, 4895, Note_on_c, 1, 52, 0
4, 4896, Note_on_c, 1, 55, 115
4, 4991, Note_on_c, 1, 55, 0
4, 4992, Note_on_c, 1, 57, 115
4, 5087, Note_on_c, 1, 57, 0
4, 5088, Note_on_c, 1, 55, 115
4, 5183, Note_on_c, 1, 55, 0
4, 5184, Note_on_c, 1, 51, 115
4, 5231, Note_on_c, 1, 51, 0
4, 5232, Note_on_c, 1, 50, 115
4, 5279, Note_on_c, 1, 50, 0
4, 5280, Note_on_c, 1, 48, 115
4, 5375, Note_on_c, 1, 48, 0
4, 5376, Note_on_c, 1, 45, 115
4, 5567, Note_on_c, 1, 45, 0
4, 6000, Note_on_c, 1, 62, 115
4, 6047, Note_on_c, 1, 62, 0
4, 6048, Note_on_c, 1, 65, 115
4, 6143, Note_on_c, 1, 65, 0
4, 6144, Note_on_c, 1, 67, 115
4, 6151, Note_on_c, 1, 67, 0
4, 6152, Note_on_c, 1, 69, 115
4, 6335, Note_on_c, 1, 69, 0
4, 6672, Note_on_c, 1, 62, 115
4, 6719, Note_on_c, 1, 62, 0
4, 6720, Note_on_c, 1, 65, 115
4, 6767, Note_on_c, 1, 65, 0
4, 6768, Note_on_c, 1, 67, 115
4, 6815, Note_on_c, 1, 67, 0
4, 6816, Note_on_c, 1, 67, 115
4, 6823, Note_on_c, 1, 67, 0
4, 6824, Note_on_c, 1, 68, 115
4, 6911, Note_on_c, 1, 68, 0
4, 6912, Note_on_c, 1, 67, 115
4, 6959, Note_on_c, 1, 67, 0
4, 6960, Note_on_c, 1, 65, 115
4, 7007, Note_on_c, 1, 65, 0
4, 7008, Note_on_c, 1, 62, 115
4, 7103, Note_on_c, 1, 62, 0
4, 7104, Note_on_c, 1, 65, 115
4, 7199, Note_on_c, 1, 65, 0
4, 7200, Note_on_c, 1, 69, 115
4, 7295, Note_on_c, 1, 69, 0
4, 7536, Note_on_c, 1, 62, 115
4, 7583, Note_on_c, 1, 62, 0
4, 7584, Note_on_c, 1, 65, 115
4, 7679, Note_on_c, 1, 65, 0
4, 7680, Note_on_c, 1, 71, 115
4, 7680, Note_on_c, 1, 67, 115
4, 7729, Pitch_bend_c, 1, 9361
4, 7732, Pitch_bend_c, 1, 10922
4, 7736, Pitch_bend_c, 1, 11117
4, 7739, Pitch_bend_c, 1, 11214
4, 7742, Pitch_bend_c, 1, 11897
4, 7746, Pitch_bend_c, 1, 11994
4, 7749, Pitch_bend_c, 1, 12092
4, 7752, Pitch_bend_c, 1, 12092
4, 7756, Pitch_bend_c, 1, 12287
4, 7776, Pitch_bend_c, 1, 8874
4, 7779, Pitch_bend_c, 1, 8971
4, 7782, Pitch_bend_c, 1, 8874
4, 7785, Pitch_bend_c, 1, 8679
4, 7789, Pitch_bend_c, 1, 8484
4, 7792, Pitch_bend_c, 1, 8289
4, 7795, Pitch_bend_c, 1, 8289
4, 7799, Pitch_bend_c, 1, 8192
4, 7802, Pitch_bend_c, 1, 8192
4, 7822, Pitch_bend_c, 1, 11019
4, 7825, Pitch_bend_c, 1, 11117
4, 7828, Pitch_bend_c, 1, 11214
4, 7832, Pitch_bend_c, 1, 11312
4, 7835, Pitch_bend_c, 1, 11409
4, 7838, Pitch_bend_c, 1, 11604
4, 7842, Pitch_bend_c, 1, 11799
4, 7845, Pitch_bend_c, 1, 11897
4, 7848, Pitch_bend_c, 1, 11994
4, 7852, Pitch_bend_c, 1, 11994
4, 7855, Pitch_bend_c, 1, 11994
4, 7858, Pitch_bend_c, 1, 12092
4, 7862, Pitch_bend_c, 1, 12189
4, 7875, Pitch_bend_c, 1, 8971
4, 7878, Pitch_bend_c, 1, 8581
4, 7881, Pitch_bend_c, 1, 8484
4, 7885, Pitch_bend_c, 1, 8386
4, 7888, Pitch_bend_c, 1, 8289
4, 7891, Pitch_bend_c, 1, 8192
4, 7895, Pitch_bend_c, 1, 8192
4, 7924, Pitch_bend_c, 1, 12384
4, 7928, Pitch_bend_c, 1, 11409
4, 7931, Pitch_bend_c, 1, 11507
4, 7934, Pitch_bend_c, 1, 11604
4, 7938, Pitch_bend_c, 1, 11702
4, 7941, Pitch_bend_c, 1, 11799
4, 7944, Pitch_bend_c, 1, 11799
4, 7948, Pitch_bend_c, 1, 11897
4, 7951, Pitch_bend_c, 1, 11994
4, 7954, Pitch_bend_c, 1, 12092
4, 7958, Pitch_bend_c, 1, 12092
4, 7961, Pitch_bend_c, 1, 12092
4, 7964, Pitch_bend_c, 1, 12092
4, 7968, Pitch_bend_c, 1, 11994
4, 7974, Pitch_bend_c, 1, 8192
4, 7977, Pitch_bend_c, 1, 8874
4, 7981, Pitch_bend_c, 1, 8874
4, 7984, Pitch_bend_c, 1, 8581
4, 7987, Pitch_bend_c, 1, 8581
4, 7991, Pitch_bend_c, 1, 8386
4, 7994, Pitch_bend_c, 1, 8289
4, 7997, Pitch_bend_c, 1, 8192
4, 8063, Note_on_c, 1, 71, 0
4, 8063, Note_on_c, 1, 67, 0
4, 8208, Note_on_c, 1, 62, 115
4, 8255, Note_on_c, 1, 62, 0
4, 8256, Note_on_c, 1, 65, 115
4, 8303, Note_on_c, 1, 65, 0
4, 8304, Note_on_c, 1, 67, 115
4, 8351, Note_on_c, 1, 67, 0
4, 8352, Note_on_c, 1, 67, 115
4, 8359, Note_on_c, 1, 67, 0
4, 8360, Note_on_c, 1, 68, 115
4, 8447, Note_on_c, 1, 68, 0
4, 8448, Note_on_c, 1, 67, 115
4, 8495, Note_on_c, 1, 67, 0
4, 8496, Note_on_c, 1, 65, 115
4, 8543, Note_on_c, 1, 65, 0
4, 8544, Note_on_c, 1, 62, 115
4, 8639, Note_on_c, 1, 62, 0
4, 8640, Note_on_c, 1, 65, 115
4, 8735, Note_on_c, 1, 65, 0
4, 8736, Note_on_c, 1, 62, 115
4, 8831, Note_on_c, 1, 62, 0
4, 8832, Note_on_c, 1, 60, 115
4, 8879, Note_on_c, 1, 60, 0
4, 8880, Note_on_c, 1, 57, 115
4, 8927, Note_on_c, 1, 57, 0
4, 8928, Note_on_c, 1, 60, 115
4, 9023, Note_on_c, 1, 60, 0
4, 9024, Note_on_c, 1, 62, 115
4, 9119, Note_on_c, 1, 62, 0
4, 9120, Note_on_c, 1, 60, 115
4, 9215, Note_on_c, 1, 60, 0
4, 9216, Note_on_c, 1, 55, 115
4, 9279, Note_on_c, 1, 55, 0
4, 9280, Note_on_c, 1, 56, 115
4, 9343, Note_on_c, 1, 56, 0
4, 9344, Note_on_c, 1, 57, 115
4, 9407, Note_on_c, 1, 57, 0
4, 9408, Note_on_c, 1, 64, 115
4, 9599, Note_on_c, 1, 64, 0
4, 11568, Note_on_c, 1, 57, 115
4, 11615, Note_on_c, 1, 57, 0
4, 11616, Note_on_c, 1, 60, 115
4, 11711, Note_on_c, 1, 60, 0
4, 11712, Note_on_c, 1, 62, 115
4, 11719, Note_on_c, 1, 62, 0
4, 11720, Note_on_c, 1, 64, 115
4, 11903, Note_on_c, 1, 64, 0
4, 12240, Note_on_c, 1, 57, 115
4, 12287, Note_on_c, 1, 57, 0
4, 12288, Note_on_c, 1, 60, 115
4, 12335, Note_on_c, 1, 60, 0
4, 12336, Note_on_c, 1, 62, 115
4, 12383, Note_on_c, 1, 62, 0
4, 12384, Note_on_c, 1, 62, 115
4, 12391, Note_on_c, 1, 62, 0
4, 12392, Note_on_c, 1, 63, 115
4, 12479, Note_on_c, 1, 63, 0
4, 12480, Note_on_c, 1, 62, 115
4, 12527, Note_on_c, 1, 62, 0
4, 12528, Note_on_c, 1, 60, 115
4, 12575, Note_on_c, 1, 60, 0
4, 12576, Note_on_c, 1, 57, 115
4, 12671, Note_on_c, 1, 57, 0
4, 12672, Note_on_c, 1, 60, 115
4, 12767, Note_on_c, 1, 60, 0
4, 12768, Note_on_c, 1, 62, 115
4, 12791, Note_on_c, 1, 62, 0
4, 12792, Note_on_c, 1, 60, 115
4, 12815, Note_on_c, 1, 60, 0
4, 12816, Note_on_c, 1, 57, 115
4, 12839, Note_on_c, 1, 57, 0
4, 13104, Note_on_c, 1, 57, 115
4, 13151, Note_on_c, 1, 57, 0
4, 13152, Note_on_c, 1, 60, 115
4, 13247, Note_on_c, 1, 60, 0
4, 13248, Note_on_c, 1, 62, 115
4, 13297, Pitch_bend_c, 1, 9361
4, 13300, Pitch_bend_c, 1, 10922
4, 13304, Pitch_bend_c, 1, 11117
4, 13307, Pitch_bend_c, 1, 11214
4, 13310, Pitch_bend_c, 1, 11897
4, 13314, Pitch_bend_c, 1, 11994
4, 13317, Pitch_bend_c, 1, 12092
4, 13320, Pitch_bend_c, 1, 12092
4, 13324, Pitch_bend_c, 1, 12287
4, 13344, Pitch_bend_c, 1, 8874
4, 13347, Pitch_bend_c, 1, 8971
4, 13350, Pitch_bend_c, 1, 8874
4, 13353, Pitch_bend_c, 1, 8679
4, 13357, Pitch_bend_c, 1, 8484
4, 13360, Pitch_bend_c, 1, 8289
4, 13363, Pitch_bend_c, 1, 8289
4, 13367, Pitch_bend_c, 1, 8192
4, 13370, Pitch_bend_c, 1, 8192
4, 13390, Pitch_bend_c, 1, 11019
4, 13393, Pitch_bend_c, 1, 11117
4, 13396, Pitch_bend_c, 1, 11214
4, 13400, Pitch_bend_c, 1, 11312
4, 13403, Pitch_bend_c, 1, 11409
4, 13406, Pitch_bend_c, 1, 11604
4, 13410, Pitch_bend_c, 1, 11799
4, 13413, Pitch_bend_c, 1, 11897
4, 13416, Pitch_bend_c, 1, 11994
4, 13420, Pitch_bend_c, 1, 11994
4, 13423, Pitch_bend_c, 1, 11994
4, 13426, Pitch_bend_c, 1, 12092
4, 13430, Pitch_bend_c, 1, 12189
4, 13443, Pitch_bend_c, 1, 8971
4, 13446, Pitch_bend_c, 1, 8581
4, 13449, Pitch_bend_c, 1, 8484
4, 13453, Pitch_bend_c, 1, 8386
4, 13456, Pitch_bend_c, 1, 8289
4, 13459, Pitch_bend_c, 1, 8192
4, 13463, Pitch_bend_c, 1, 8192
4, 13492, Pitch_bend_c, 1, 12384
4, 13496, Pitch_bend_c, 1, 11409
4, 13499, Pitch_bend_c, 1, 11507
4, 13502, Pitch_bend_c, 1, 11604
4, 13506, Pitch_bend_c, 1, 11702
4, 13509, Pitch_bend_c, 1, 11799
4, 13512, Pitch_bend_c, 1, 11799
4, 13516, Pitch_bend_c, 1, 11897
4, 13519, Pitch_bend_c, 1, 11994
4, 13522, Pitch_bend_c, 1, 12092
4, 13526, Pitch_bend_c, 1, 12092
4, 13529, Pitch_bend_c, 1, 12092
4, 13532, Pitch_bend_c, 1, 12092
4, 13536, Pitch_bend_c, 1, 11994
4, 13542, Pitch_bend_c, 1, 8192
4, 13545, Pitch_bend_c, 1, 8874
4, 13549, Pitch_bend_c, 1, 8874
4, 13552, Pitch_bend_c, 1, 8581
4, 13555, Pitch_bend_c, 1, 8581
4, 13559, Pitch_bend_c, 1, 8386
4, 13562, Pitch_bend_c, 1, 8289
4, 13565, Pitch_bend_c, 1, 8192
4, 13631, Note_on_c, 1, 62, 0
4, 13776, Note_on_c, 1, 57, 115
4, 13823, Note_on_c, 1, 57, 0
4, 13824, Note_on_c, 1, 60, 115
4, 13871, Note_on_c, 1, 60, 0
4, 13872, Note_on_c, 1, 62, 115
4, 13919, Note_on_c, 1, 62, 0
4, 13920, Note_on_c, 1, 62, 115
4, 13927, Note_on_c, 1, 62, 0
4, 13928, Note_on_c, 1, 64, 115
4, 14015, Note_on_c, 1, 64, 0
4, 14016, Note_on_c, 1, 62, 115
4, 14063, Note_on_c, 1, 62, 0
4, 14064, Note_on_c, 1, 60, 115
4, 14111, Note_on_c, 1, 60, 0
4, 14112, Note_on_c, 1, 57, 115
4, 14207, Note_on_c, 1, 57, 0
4, 14208, Note_on_c, 1, 60, 115
4, 14303, Note_on_c, 1, 60, 0
4, 14304, Note_on_c, 1, 57, 115
4, 14399, Note_on_c, 1, 57, 0
4, 14400, Note_on_c, 1, 55, 115
4, 14447, Note_on_c, 1, 55, 0
4, 14448, Note_on_c, 1, 52, 115
4, 14495, Note_on_c, 1, 52, 0
4, 14496, Note_on_c, 1, 55, 115
4, 14591, Note_on_c, 1, 55, 0
4, 14592, Note_on_c, 1, 57, 115
4, 14687, Note_on_c, 1, 57, 0
4, 14688, Note_on_c, 1, 55, 115
4, 14783, Note_on_c, 1, 55, 0
4, 14784, Note_on_c, 1, 51, 115
4, 14831, Note_on_c, 1, 51, 0
4, 14832, Note_on_c, 1, 50, 115
4, 14879, Note_on_c, 1, 50, 0
4, 14880, Note_on_c, 1, 48, 115
4, 14975, Note_on_c, 1, 48, 0
4, 14976, Note_on_c, 1, 45, 115
4, 15167, Note_on_c, 1, 45, 0
4, 15600, Note_on_c, 1, 62, 115
4, 15647, Note_on_c, 1, 62, 0
4, 15648, Note_on_c, 1, 65, 115
4, 15743, Note_on_c, 1, 65, 0
4, 15744, Note_on_c, 1, 67, 115
4, 15751, Note_on_c, 1, 67, 0
4, 15752, Note_on_c, 1, 69, 115
4, 15935, Note_on_c, 1, 69, 0
4, 16272, Note_on_c, 1, 62, 115
4, 16319, Note_on_c, 1, 62, 0
4, 16320, Note_on_c, 1, 65, 115
4, 16367, Note_on_c, 1, 65, 0
4, 16368, Note_on_c, 1, 67, 115
4, 16415, Note_on_c, 1, 67, 0
4, 16416, Note_on_c, 1, 67, 115
4, 16423, Note_on_c, 1, 67, 0
4, 16424, Note_on_c, 1, 68, 115
4, 16511, Note_on_c, 1, 68, 0
4, 16512, Note_on_c, 1, 67, 115
4, 16559, Note_on_c, 1, 67, 0
4, 16560, Note_on_c, 1, 65, 115
4, 16607, Note_on_c, 1, 65, 0
4, 16608, Note_on_c, 1, 62, 115
4, 16703, Note_on_c, 1, 62, 0
4, 16704, Note_on_c, 1, 65, 115
4, 16799, Note_on_c, 1, 65, 0
4, 16800, Note_on_c, 1, 69, 115
4, 16895, Note_on_c, 1, 69, 0
4, 17136, Note_on_c, 1, 62, 115
4, 17183, Note_on_c, 1, 62, 0
4, 17184, Note_on_c, 1, 65, 115
4, 17279, Note_on_c, 1, 65, 0
4, 17280, Note_on_c, 1, 71, 115
4, 17280, Note_on_c, 1, 67, 115
4, 17329, Pitch_bend_c, 1, 9361
4, 17332, Pitch_bend_c, 1, 10922
4, 17336, Pitch_bend_c, 1, 11117
4, 17339, Pitch_bend_c, 1, 11214
4, 17342, Pitch_bend_c, 1, 11897
4, 17346, Pitch_bend_c, 1, 11994
4, 17349, Pitch_bend_c, 1, 12092
4, 17352, Pitch_bend_c, 1, 12092
4, 17356, Pitch_bend_c, 1, 12287
4, 17376, Pitch_bend_c, 1, 8874
4, 17379, Pitch_bend_c, 1, 8971
4, 17382, Pitch_bend_c, 1, 8874
4, 17385, Pitch_bend_c, 1, 8679
4, 17389, Pitch_bend_c, 1, 8484
4, 17392, Pitch_bend_c, 1, 8289
4, 17395, Pitch_bend_c, 1, 8289
4, 17399, Pitch_bend_c, 1, 8192
4, 17402, Pitch_bend_c, 1, 8192
4, 17422, Pitch_bend_c, 1, 11019
4, 17425, Pitch_bend_c, 1, 11117
4, 17428, Pitch_bend_c, 1, 11214
4, 17432, Pitch_bend_c, 1, 11312
4, 17435, Pitch_bend_c, 1, 11409
4, 17438, Pitch_bend_c, 1, 11604
4, 17442, Pitch_bend_c, 1, 11799
4, 17445, Pitch_bend_c, 1, 11897
4, 17448, Pitch_bend_c, 1, 11994
4, 17452, Pitch_bend_c, 1, 11994
4, 17455, Pitch_bend_c, 1, 11994
4, 17458, Pitch_bend_c, 1, 12092
4, 17462, Pitch_bend_c, 1, 12189
4, 17475, Pitch_bend_c, 1, 8971
4, 17478, Pitch_bend_c, 1, 8581
4, 17481, Pitch_bend_c, 1, 8484
4, 17485, Pitch_bend_c, 1, 8386
4, 17488, Pitch_bend_c, 1, 8289
4, 17491, Pitch_bend_c, 1, 8192
4, 17495, Pitch_bend_c, 1, 8192
4, 17524, Pitch_bend_c, 1, 12384
4, 17528, Pitch_bend_c, 1, 11409
4, 17531, Pitch_bend_c, 1, 11507
4, 17534, Pitch_bend_c, 1, 11604
4, 17538, Pitch_bend_c, 1, 11702
4, 17541, Pitch_bend_c, 1, 11799
4, 17544, Pitch_bend_c, 1, 11799
4, 17548, Pitch_bend_c, 1, 11897
4, 17551, Pitch_bend_c, 1, 11994
4, 17554, Pitch_bend_c, 1, 12092
4, 17558, Pitch_bend_c, 1, 12092
4, 17561, Pitch_bend_c, 1, 12092
4, 17564, Pitch_bend_c, 1, 12092
4, 17568, Pitch_bend_c, 1, 11994
4, 17574, Pitch_bend_c, 1, 8192
4, 17577, Pitch_bend_c, 1, 8874
4, 17581, Pitch_bend_c, 1, 8874
4, 17584, Pitch_bend_c, 1, 8581
4, 17587, Pitch_bend_c, 1, 8581
4, 17591, Pitch_bend_c, 1, 8386
4, 17594, Pitch_bend_c, 1, 8289
4, 17597, Pitch_bend_c, 1, 8192
4, 17663, Note_on_c, 1, 71, 0
4, 17663, Note_on_c, 1, 67, 0
4, 17808, Note_on_c, 1, 62, 115
4, 17855, Note_on_c, 1, 62, 0
4, 17856, Note_on_c, 1, 65, 115
4, 17903, Note_on_c, 1, 65, 0
4, 17904, Note_on_c, 1, 67, 115
4, 17951, Note_on_c, 1, 67, 0
4, 17952, Note_on_c, 1, 67, 115
4, 17959, Note_on_c, 1, 67, 0
4, 17960, Note_on_c, 1, 68, 115
4, 18047, Note_on_c, 1, 68, 0
4, 18048, Note_on_c, 1, 67, 115
4, 18095, Note_on_c, 1, 67, 0
4, 18096, Note_on_c, 1, 65, 115
4, 18143, Note_on_c, 1, 65, 0
4, 18144, Note_on_c, 1, 62, 115
4, 18239, Note_on_c, 1, 62, 0
4, 18240, Note_on_c, 1, 65, 115
4, 18335, Note_on_c, 1, 65, 0
4, 18336, Note_on_c, 1, 62, 115
4, 18431, Note_on_c, 1, 62, 0
4, 18432, Note_on_c, 1, 60, 115
4, 18479, Note_on_c, 1, 60, 0
4, 18480, Note_on_c, 1, 57, 115
4, 18527, Note_on_c, 1, 57, 0
4, 18528, Note_on_c, 1, 60, 115
4, 18623, Note_on_c, 1, 60, 0
4, 18624, Note_on_c, 1, 62, 115
4, 18719, Note_on_c, 1, 62, 0
4, 18720, Note_on_c, 1, 60, 115
4, 18815, Note_on_c, 1, 60, 0
4, 18816, Note_on_c, 1, 55, 115
4, 18879, Note_on_c, 1, 55, 0
4, 18880, Note_on_c, 1, 56, 115
4, 18943, Note_on_c, 1, 56, 0
4, 18944, Note_on_c, 1, 57, 115
4, 19007, Note_on_c, 1, 57, 0
4, 19008, Note_on_c, 1, 64, 115
4, 19199, Note_on_c, 1, 64, 0
4, 21120, Note_on_c, 1, 54, 115
4, 21120, Note_on_c, 1, 59, 115
4, 21215, Note_on_c, 1, 54, 0
4, 21215, Note_on_c, 1, 59, 0
4, 21216, Note_on_c, 1, 57, 115
4, 21216, Note_on_c, 1, 62, 115
4, 21311, Note_on_c, 1, 57, 0
4, 21311, Note_on_c, 1, 62, 0
4, 22176, Note_on_c, 1, 68, 105
4, 22176, Note_on_c, 1, 65, 105
4, 22223, Note_on_c, 1, 68, 0
4, 22223, Note_on_c, 1, 65, 0
4, 22224, Note_on_c, 1, 68, 105
4, 22224, Note_on_c, 1, 65, 105
4, 22463, Note_on_c, 1, 68, 0
4, 22463, Note_on_c, 1, 65, 0
4, 22464, Note_on_c, 1, 69, 105
4, 22464, Note_on_c, 1, 67, 105
4, 22464, Note_on_c, 1, 64, 105
4, 22511, Note_on_c, 1, 69, 0
4, 22511, Note_on_c, 1, 67, 0
4, 22511, Note_on_c, 1, 64, 0
4, 22752, Note_on_c, 1, 69, 105
4, 22799, Note_on_c, 1, 69, 0
4, 22800, Note_on_c, 1, 69, 105
4, 22895, Note_on_c, 1, 69, 0
4, 22896, Note_on_c, 1, 65, 105
4, 22896, Note_on_c, 1, 69, 105
4, 22943, Note_on_c, 1, 65, 0
4, 22943, Note_on_c, 1, 69, 0
4, 22944, Note_on_c, 1, 69, 105
4, 22944, Note_on_c, 1, 65, 105
4, 23039, Note_on_c, 1, 69, 0
4, 23039, Note_on_c, 1, 65, 0
4, 23040, Note_on_c, 1, 69, 105
4, 23040, Note_on_c, 1, 65, 105
4, 23040, Note_on_c, 1, 72, 105
4, 23087, Note_on_c, 1, 69, 0
4, 23087, Note_on_c, 1, 65, 0
4, 23087, Note_on_c, 1, 72, 0
4, 23088, Note_on_c, 1, 72, 105
4, 23088, Note_on_c, 1, 65, 105
4, 23088, Note_on_c, 1, 69, 105
4, 23327, Note_on_c, 1, 72, 0
4, 23327, Note_on_c, 1, 65, 0
4, 23327, Note_on_c, 1, 69, 0
4, 23328, Note_on_c, 1, 64, 105
4, 23328, Note_on_c, 1, 68, 105
4, 23328, Note_on_c, 1, 71, 105
4, 23471, Note_on_c, 1, 64, 0
4, 23471, Note_on_c, 1, 68, 0
4, 23471, Note_on_c, 1, 71, 0
4, 33888, Note_on_c, 1, 59, 115
4, 33888, Note_on_c, 1, 54, 115
4, 33983, Note_on_c, 1, 59, 0
4, 33983, Note_on_c, 1, 54, 0
4, 33984, Note_on_c, 1, 62, 115
4, 33984, Note_on_c, 1, 57, 115
4, 34079, Note_on_c, 1, 62, 0
4, 34079, Note_on_c, 1, 57, 0
4, 34656, Note_on_c, 1, 65, 105
4, 34656, Note_on_c, 1, 68, 105
4, 34703, Note_on_c, 1, 65, 0
4, 34703, Note_on_c, 1, 68, 0
4, 34704, Note_on_c, 1, 65, 105
4, 34704, Note_on_c, 1, 68, 105
4, 34943, Note_on_c, 1, 65, 0
4, 34943, Note_on_c, 1, 68, 0
4, 34944, Note_on_c, 1, 68, 105
4, 34944, Note_on_c, 1, 65, 105
4, 34991, Note_on_c, 1, 68, 0
4, 34991, Note_on_c, 1, 65, 0
4, 34992, Note_on_c, 1, 65, 105
4, 34992, Note_on_c, 1, 68, 105
4, 35231, Note_on_c, 1, 65, 0
4, 35231, Note_on_c, 1, 68, 0
4, 35232, Note_on_c, 1, 64, 105
4, 35232, Note_on_c, 1, 69, 105
4, 35232, Note_on_c, 1, 67, 105
4, 35279, Note_on_c, 1, 64, 0
4, 35279, Note_on_c, 1, 69, 0
4, 35279, Note_on_c, 1, 67, 0
4, 35520, Note_on_c, 1, 69, 105
4, 35567, Note_on_c, 1, 69, 0
4, 35568, Note_on_c, 1, 69, 105
4, 35663, Note_on_c, 1, 69, 0
4, 35664, Note_on_c, 1, 69, 105
4, 35664, Note_on_c, 1, 65, 105
4, 35711, Note_on_c, 1, 69, 0
4, 35711, Note_on_c, 1, 65, 0
4, 35712, Note_on_c, 1, 65, 105
4, 35712, Note_on_c, 1, 69, 105
4, 35807, Note_on_c, 1, 65, 0
4, 35807, Note_on_c, 1, 69, 0
4, 35808, Note_on_c, 1, 65, 105
4, 35808, Note_on_c, 1, 69, 105
4, 35808, Note_on_c, 1, 72, 105
4, 35855, Note_on_c, 1, 65, 0
4, 35855, Note_on_c, 1, 69, 0
4, 35855, Note_on_c, 1, 72, 0
4, 35856, Note_on_c, 1, 72, 105
4, 35856, Note_on_c, 1, 69, 105
4, 35856, Note_on_c, 1, 65, 105
4, 36095, Note_on_c, 1, 72, 0
4, 36095, Note_on_c, 1, 69, 0
4, 36095, Note_on_c, 1, 65, 0
4, 36096, Note_on_c, 1, 68, 105
4, 36096, Note_on_c, 1, 64, 105
4, 36096, Note_on_c, 1, 71, 105
4, 36239, Note_on_c, 1, 68, 0
4, 36239, Note_on_c, 1, 64, 0
4, 36239, Note_on_c, 1, 71, 0
4, 37104, Note_on_c, 1, 57, 115
4, 37151, Note_on_c, 1, 57, 0
4, 37152, Note_on_c, 1, 60, 115
4, 37247, Note_on_c, 1, 60, 0
4, 37248, Note_on_c, 1, 62, 115
4, 37271, Note_on_c, 1, 62, 0
4, 37272, Note_on_c, 1, 64, 115
4, 37295, Note_on_c, 1, 64, 0
4, 37296, Note_on_c, 1, 62, 115
4, 37319, Note_on_c, 1, 62, 0
4, 37320, Note_on_c, 1, 60, 115
4, 37343, Note_on_c, 1, 60, 0
4, 37344, Note_on_c, 1, 57, 115
4, 37439, Note_on_c, 1, 57, 0
4, 37776, Note_on_c, 1, 57, 115
4, 37823, Note_on_c, 1, 57, 0
4, 37824, Note_on_c, 1, 60, 115
4, 37871, Note_on_c, 1, 60, 0
4, 37872, Note_on_c, 1, 62, 115
4, 37919, Note_on_c, 1, 62, 0
4, 37920, Note_on_c, 1, 62, 115
4, 37927, Note_on_c, 1, 62, 0
4, 37928, Note_on_c, 1, 63, 115
4, 38015, Note_on_c, 1, 63, 0
4, 38016, Note_on_c, 1, 62, 115
4, 38063, Note_on_c, 1, 62, 0
4, 38064, Note_on_c, 1, 60, 115
4, 38111, Note_on_c, 1, 60, 0
4, 38112, Note_on_c, 1, 57, 115
4, 38207, Note_on_c, 1, 57, 0
4, 38208, Note_on_c, 1, 60, 115
4, 38303, Note_on_c, 1, 60, 0
4, 38304, Note_on_c, 1, 62, 115
4, 38327, Note_on_c, 1, 62, 0
4, 38328, Note_on_c, 1, 60, 115
4, 38351, Note_on_c, 1, 60, 0
4, 38352, Note_on_c, 1, 57, 115
4, 38399, Note_on_c, 1, 57, 0
4, 38640, Note_on_c, 1, 57, 115
4, 38687, Note_on_c, 1, 57, 0
4, 38688, Note_on_c, 1, 60, 115
4, 38783, Note_on_c, 1, 60, 0
4, 38784, Note_on_c, 1, 62, 115
4, 38807, Note_on_c, 1, 62, 0
4, 38808, Note_on_c, 1, 63, 115
4, 38831, Note_on_c, 1, 63, 0
4, 38832, Note_on_c, 1, 62, 115
4, 38855, Note_on_c, 1, 62, 0
4, 38856, Note_on_c, 1, 63, 115
4, 38879, Note_on_c, 1, 63, 0
4, 38880, Note_on_c, 1, 60, 115
4, 38927, Note_on_c, 1, 60, 0
4, 38928, Note_on_c, 1, 57, 115
4, 38975, Note_on_c, 1, 57, 0
4, 39312, Note_on_c, 1, 57, 115
4, 39359, Note_on_c, 1, 57, 0
4, 39360, Note_on_c, 1, 60, 115
4, 39407, Note_on_c, 1, 60, 0
4, 39408, Note_on_c, 1, 62, 115
4, 39455, Note_on_c, 1, 62, 0
4, 39456, Note_on_c, 1, 62, 115
4, 39463, Note_on_c, 1, 62, 0
4, 39464, Note_on_c, 1, 63, 115
4, 39551, Note_on_c, 1, 63, 0
4, 39552, Note_on_c, 1, 62, 115
4, 39599, Note_on_c, 1, 62, 0
4, 39600, Note_on_c, 1, 60, 115
4, 39647, Note_on_c, 1, 60, 0
4, 39648, Note_on_c, 1, 57, 115
4, 39743, Note_on_c, 1, 57, 0
4, 39744, Note_on_c, 1, 60, 115
4, 39839, Note_on_c, 1, 60, 0
4, 39840, Note_on_c, 1, 57, 115
4, 39935, Note_on_c, 1, 57, 0
4, 39936, Note_on_c, 1, 55, 115
4, 39983, Note_on_c, 1, 55, 0
4, 39984, Note_on_c, 1, 52, 115
4, 40031, Note_on_c, 1, 52, 0
4, 40032, Note_on_c, 1, 55, 115
4, 40127, Note_on_c, 1, 55, 0
4, 40128, Note_on_c, 1, 57, 115
4, 40223, Note_on_c, 1, 57, 0
4, 40224, Note_on_c, 1, 55, 115
4, 40319, Note_on_c, 1, 55, 0
4, 40320, Note_on_c, 1, 52, 115
4, 40367, Note_on_c, 1, 52, 0
4, 40368, Note_on_c, 1, 50, 115
4, 40415, Note_on_c, 1, 50, 0
4, 40416, Note_on_c, 1, 48, 115
4, 40511, Note_on_c, 1, 48, 0
4, 40512, Note_on_c, 1, 45, 115
4, 40703, Note_on_c, 1, 45, 0
4, 41136, Note_on_c, 1, 62, 115
4, 41183, Note_on_c, 1, 62, 0
4, 41184, Note_on_c, 1, 65, 115
4, 41279, Note_on_c, 1, 65, 0
4, 41280, Note_on_c, 1, 67, 115
4, 41287, Note_on_c, 1, 67, 0
4, 41288, Note_on_c, 1, 69, 115
4, 41471, Note_on_c, 1, 69, 0
4, 41712, Note_on_c, 1, 62, 115
4, 41759, Note_on_c, 1, 62, 0
4, 41760, Note_on_c, 1, 62, 115
4, 41807, Note_on_c, 1, 62, 0
4, 41808, Note_on_c, 1, 62, 115
4, 41855, Note_on_c, 1, 62, 0
4, 41856, Note_on_c, 1, 65, 115
4, 41903, Note_on_c, 1, 65, 0
4, 41904, Note_on_c, 1, 67, 115
4, 41951, Note_on_c, 1, 67, 0
4, 41952, Note_on_c, 1, 67, 115
4, 41959, Note_on_c, 1, 67, 0
4, 41960, Note_on_c, 1, 69, 115
4, 42047, Note_on_c, 1, 69, 0
4, 42048, Note_on_c, 1, 67, 115
4, 42095, Note_on_c, 1, 67, 0
4, 42096, Note_on_c, 1, 65, 115
4, 42143, Note_on_c, 1, 65, 0
4, 42144, Note_on_c, 1, 62, 115
4, 42239, Note_on_c, 1, 62, 0
4, 42240, Note_on_c, 1, 65, 115
4, 42335, Note_on_c, 1, 65, 0
4, 42336, Note_on_c, 1, 69, 115
4, 42431, Note_on_c, 1, 69, 0
4, 42672, Note_on_c, 1, 62, 115
4, 42719, Note_on_c, 1, 62, 0
4, 42720, Note_on_c, 1, 65, 115
4, 42815, Note_on_c, 1, 65, 0
4, 42816, Note_on_c, 1, 71, 115
4, 42816, Pitch_bend_c, 1, 8192
4, 42864, Pitch_bend_c, 1, 12288
4, 42912, Pitch_bend_c, 1, 8192
4, 42960, Pitch_bend_c, 1, 12288
4, 43008, Pitch_bend_c, 1, 8192
4, 43079, Note_on_c, 1, 71, 0
4, 43080, Note_on_c, 1, 69, 115
4, 43087, Note_on_c, 1, 69, 0
4, 43088, Note_on_c, 1, 67, 115
4, 43095, Note_on_c, 1, 67, 0
4, 43096, Note_on_c, 1, 65, 115
4, 43103, Note_on_c, 1, 65, 0
4, 43104, Note_on_c, 1, 62, 115
4, 43111, Note_on_c, 1, 62, 0
4, 43112, Note_on_c, 1, 59, 115
4, 43119, Note_on_c, 1, 59, 0
4, 43248, Note_on_c, 1, 62, 115
4, 43295, Note_on_c, 1, 62, 0
4, 43296, Note_on_c, 1, 62, 115
4, 43343, Note_on_c, 1, 62, 0
4, 43344, Note_on_c, 1, 62, 115
4, 43391, Note_on_c, 1, 62, 0
4, 43392, Note_on_c, 1, 65, 115
4, 43439, Note_on_c, 1, 65, 0
4, 43440, Note_on_c, 1, 67, 115
4, 43487, Note_on_c, 1, 67, 0
4, 43488, Note_on_c, 1, 67, 115
4, 43495, Note_on_c, 1, 67, 0
4, 43496, Note_on_c, 1, 69, 115
4, 43583, Note_on_c, 1, 69, 0
4, 43584, Note_on_c, 1, 67, 115
4, 43631, Note_on_c, 1, 67, 0
4, 43632, Note_on_c, 1, 65, 115
4, 43679, Note_on_c, 1, 65, 0
4, 43680, Note_on_c, 1, 62, 115
4, 43775, Note_on_c, 1, 62, 0
4, 43776, Note_on_c, 1, 65, 115
4, 43871, Note_on_c, 1, 65, 0
4, 43872, Note_on_c, 1, 62, 115
4, 43967, Note_on_c, 1, 62, 0
4, 43968, Note_on_c, 1, 60, 115
4, 44015, Note_on_c, 1, 60, 0
4, 44016, Note_on_c, 1, 57, 115
4, 44063, Note_on_c, 1, 57, 0
4, 44064, Note_on_c, 1, 60, 115
4, 44159, Note_on_c, 1, 60, 0
4, 44160, Note_on_c, 1, 62, 115
4, 44255, Note_on_c, 1, 62, 0
4, 44256, Note_on_c, 1, 60, 115
4, 44351, Note_on_c, 1, 60, 0
4, 44352, Note_on_c, 1, 55, 115
4, 44415, Note_on_c, 1, 55, 0
4, 44416, Note_on_c, 1, 56, 115
4, 44479, Note_on_c, 1, 56, 0
4, 44480, Note_on_c, 1, 57, 115
4, 44543, Note_on_c, 1, 57, 0
4, 44544, Note_on_c, 1, 60, 115
4, 44735, Note_on_c, 1, 60, 0
4, 45072, Note_on_c, 1, 69, 105
4, 45311, Note_on_c, 1, 69, 0
4, 45312, Note_on_c, 1, 70, 105
4, 45695, Note_on_c, 1, 70, 0
4, 45696, Note_on_c, 1, 71, 105
4, 45791, Note_on_c, 1, 71, 0
4, 46656, Note_on_c, 1, 54, 115
4, 46656, Note_on_c, 1, 59, 115
4, 46751, Note_on_c, 1, 54, 0
4, 46751, Note_on_c, 1, 59, 0
4, 46752, Note_on_c, 1, 57, 115
4, 46752, Note_on_c, 1, 62, 115
4, 46847, Note_on_c, 1, 57, 0
4, 46847, Note_on_c, 1, 62, 0
4, 46847, End_track
5, 0, Start_track
5, 0, Title_t, "Rythm Gtr - Muted"
5, 0, MIDI_port, 0
5, 96, Control_c, 2, 121, 0
5, 97, Control_c, 2, 7, 110
5, 98, Control_c, 2, 10, 127
5, 99, Control_c, 2, 91, 54
5, 100, Control_c, 2, 93, 81
5, 101, Control_c, 2, 32, 0
5, 101, Control_c, 2, 0, 0
5, 101, Program_c, 2, 28
5, 384, Note_on_c, 2, 50, 100
5, 432, Note_on_c, 2, 57, 100
5, 480, Note_on_c, 2, 62, 100
5, 527, Note_on_c, 2, 50, 0
5, 528, Note_on_c, 2, 65, 100
5, 575, Note_on_c, 2, 62, 0
5, 576, Note_on_c, 2, 62, 100
5, 623, Note_on_c, 2, 57, 0
5, 624, Note_on_c, 2, 57, 100
5, 671, Note_on_c, 2, 65, 0
5, 671, Note_on_c, 2, 62, 0
5, 671, Note_on_c, 2, 57, 0
5, 672, Note_on_c, 2, 53, 100
5, 720, Note_on_c, 2, 57, 100
5, 768, Note_on_c, 2, 62, 100
5, 815, Note_on_c, 2, 53, 0
5, 816, Note_on_c, 2, 65, 100
5, 863, Note_on_c, 2, 62, 0
5, 864, Note_on_c, 2, 62, 100
5, 911, Note_on_c, 2, 57, 0
5, 912, Note_on_c, 2, 57, 100
5, 959, Note_on_c, 2, 65, 0
5, 959, Note_on_c, 2, 62, 0
5, 959, Note_on_c, 2, 57, 0
5, 960, Note_on_c, 2, 52, 100
5, 1008, Note_on_c, 2, 53, 100
5, 1056, Note_on_c, 2, 62, 100
5, 1103, Note_on_c, 2, 52, 0
5, 1104, Note_on_c, 2, 65, 100
5, 1151, Note_on_c, 2, 53, 0
5, 1151, Note_on_c, 2, 62, 0
5, 1151, Note_on_c, 2, 65, 0
5, 1152, Note_on_c, 2, 48, 100
5, 1199, Note_on_c, 2, 48, 0
5, 1200, Note_on_c, 2, 47, 100
5, 1247, Note_on_c, 2, 47, 0
5, 1248, Note_on_c, 2, 46, 100
5, 1296, Note_on_c, 2, 53, 100
5, 1344, Note_on_c, 2, 57, 100
5, 1391, Note_on_c, 2, 46, 0
5, 1392, Note_on_c, 2, 65, 100
5, 1439, Note_on_c, 2, 53, 0
5, 1440, Note_on_c, 2, 62, 100
5, 1487, Note_on_c, 2, 57, 0
5, 1488, Note_on_c, 2, 57, 100
5, 1535, Note_on_c, 2, 65, 0
5, 1535, Note_on_c, 2, 62, 0
5, 1535, Note_on_c, 2, 57, 0
5, 1536, Note_on_c, 2, 45, 100
5, 1584, Note_on_c, 2, 57, 100
5, 1632, Note_on_c, 2, 61, 100
5, 1679, Note_on_c, 2, 45, 0
5, 1680, Note_on_c, 2, 65, 100
5, 1967, Note_on_c, 2, 57, 0
5, 1967, Note_on_c, 2, 61, 0
5, 1967, Note_on_c, 2, 65, 0
5, 4416, Note_on_c, 2, 60, 100
5, 4416, Note_on_c, 2, 64, 100
5, 4416, Note_on_c, 2, 57, 100
5, 4607, Note_on_c, 2, 60, 0
5, 4607, Note_on_c, 2, 64, 0
5, 4607, Note_on_c, 2, 57, 0
5, 4608, Note_on_c, 2, 64, 100
5, 4608, Note_on_c, 2, 60, 100
5, 4608, Note_on_c, 2, 55, 100
5, 4799, Note_on_c, 2, 64, 0
5, 4799, Note_on_c, 2, 60, 0
5, 4799, Note_on_c, 2, 55, 0
5, 4800, Note_on_c, 2, 55, 100
5, 4800, Note_on_c, 2, 60, 100
5, 4848, Note_on_c, 2, 52, 100
5, 4895, Note_on_c, 2, 55, 0
5, 4895, Note_on_c, 2, 60, 0
5, 4896, Note_on_c, 2, 60, 100
5, 4896, Note_on_c, 2, 55, 100
5, 4991, Note_on_c, 2, 52, 0
5, 4991, Note_on_c, 2, 60, 0
5, 4991, Note_on_c, 2, 55, 0
5, 4992, Note_on_c, 2, 64, 100
5, 4992, Note_on_c, 2, 55, 100
5, 4992, Note_on_c, 2, 60, 100
5, 4999, Note_on_c, 2, 55, 0
5, 5000, Note_on_c, 2, 57, 100
5, 5003, Note_on_c, 2, 64, 0
5, 5004, Note_on_c, 2, 65, 100
5, 5183, Note_on_c, 2, 60, 0
5, 5183, Note_on_c, 2, 57, 0
5, 5183, Note_on_c, 2, 65, 0
5, 5472, Note_on_c, 2, 60, 100
5, 5472, Note_on_c, 2, 55, 100
5, 5519, Note_on_c, 2, 60, 0
5, 5519, Note_on_c, 2, 55, 0
5, 5520, Note_on_c, 2, 60, 100
5, 5520, Note_on_c, 2, 55, 100
5, 5567, Note_on_c, 2, 60, 0
5, 5567, Note_on_c, 2, 55, 0
5, 5568, Note_on_c, 2, 55, 100
5, 5568, Note_on_c, 2, 60, 100
5, 5616, Note_on_c, 2, 52, 100
5, 5639, Note_on_c, 2, 52, 0
5, 5640, Note_on_c, 2, 50, 100
5, 5663, Note_on_c, 2, 50, 0
5, 5664, Note_on_c, 2, 52, 100
5, 5711, Note_on_c, 2, 55, 0
5, 5712, Note_on_c, 2, 55, 100
5, 5759, Note_on_c, 2, 60, 0
5, 5759, Note_on_c, 2, 52, 0
5, 5759, Note_on_c, 2, 55, 0
5, 5760, Note_on_c, 2, 52, 100
5, 5760, Note_on_c, 2, 45, 100
5, 5807, Note_on_c, 2, 52, 0
5, 5807, Note_on_c, 2, 45, 0
5, 5808, Note_on_c, 2, 45, 100
5, 5808, Note_on_c, 2, 52, 100
5, 5855, Note_on_c, 2, 45, 0
5, 5855, Note_on_c, 2, 52, 0
5, 5856, Note_on_c, 2, 52, 100
5, 5856, Note_on_c, 2, 55, 100
5, 5856, Note_on_c, 2, 60, 100
5, 5903, Note_on_c, 2, 52, 0
5, 5903, Note_on_c, 2, 55, 0
5, 5903, Note_on_c, 2, 60, 0
5, 6336, Note_on_c, 2, 50, 100
5, 6336, Note_on_c, 2, 57, 100
5, 6383, Note_on_c, 2, 50, 0
5, 6383, Note_on_c, 2, 57, 0
5, 6384, Note_on_c, 2, 50, 100
5, 6384, Note_on_c, 2, 57, 100
5, 6431, Note_on_c, 2, 50, 0
5, 6431, Note_on_c, 2, 57, 0
5, 6432, Note_on_c, 2, 60, 125
5, 6432, Note_on_c, 2, 50, 100
5, 6432, Note_on_c, 2, 65, 100
5, 6432, Note_on_c, 2, 57, 100
5, 6527, Note_on_c, 2, 60, 0
5, 6527, Note_on_c, 2, 50, 0
5, 6527, Note_on_c, 2, 65, 0
5, 6527, Note_on_c, 2, 57, 0
5, 7392, Note_on_c, 2, 57, 100
5, 7392, Note_on_c, 2, 60, 100
5, 7439, Note_on_c, 2, 57, 0
5, 7439, Note_on_c, 2, 60, 0
5, 7440, Note_on_c, 2, 60, 100
5, 7440, Note_on_c, 2, 57, 100
5, 7487, Note_on_c, 2, 60, 0
5, 7487, Note_on_c, 2, 57, 0
5, 7488, Note_on_c, 2, 60, 100
5, 7488, Note_on_c, 2, 65, 100
5, 7535, Note_on_c, 2, 60, 0
5, 7535, Note_on_c, 2, 65, 0
5, 7536, Note_on_c, 2, 60, 100
5, 7536, Note_on_c, 2, 65, 100
5, 7583, Note_on_c, 2, 60, 0
5, 7583, Note_on_c, 2, 65, 0
5, 8064, Note_on_c, 2, 50, 100
5, 8064, Note_on_c, 2, 57, 100
5, 8111, Note_on_c, 2, 50, 0
5, 8111, Note_on_c, 2, 57, 0
5, 8112, Note_on_c, 2, 65, 100
5, 8112, Note_on_c, 2, 60, 100
5, 8112, Note_on_c, 2, 57, 100
5, 8112, Note_on_c, 2, 50, 100
5, 8159, Note_on_c, 2, 65, 0
5, 8159, Note_on_c, 2, 60, 0
5, 8159, Note_on_c, 2, 57, 0
5, 8159, Note_on_c, 2, 50, 0
5, 8160, Note_on_c, 2, 57, 100
5, 8160, Note_on_c, 2, 69, 100
5, 8160, Note_on_c, 2, 60, 100
5, 8160, Note_on_c, 2, 50, 100
5, 8160, Note_on_c, 2, 65, 100
5, 8207, Note_on_c, 2, 57, 0
5, 8207, Note_on_c, 2, 69, 0
5, 8207, Note_on_c, 2, 60, 0
5, 8207, Note_on_c, 2, 50, 0
5, 8207, Note_on_c, 2, 65, 0
5, 8448, Note_on_c, 2, 57, 100
5, 8448, Note_on_c, 2, 60, 100
5, 8639, Note_on_c, 2, 57, 0
5, 8639, Note_on_c, 2, 60, 0
5, 8640, Note_on_c, 2, 62, 100
5, 8640, Note_on_c, 2, 59, 100
5, 8831, Note_on_c, 2, 62, 0
5, 8831, Note_on_c, 2, 59, 0
5, 8832, Note_on_c, 2, 55, 100
5, 8832, Note_on_c, 2, 60, 100
5, 9023, Note_on_c, 2, 55, 0
5, 9023, Note_on_c, 2, 60, 0
5, 9024, Note_on_c, 2, 58, 100
5, 9024, Note_on_c, 2, 53, 100
5, 9215, Note_on_c, 2, 58, 0
5, 9215, Note_on_c, 2, 53, 0
5, 9216, Note_on_c, 2, 57, 100
5, 9216, Note_on_c, 2, 50, 100
5, 9279, Note_on_c, 2, 57, 0
5, 9279, Note_on_c, 2, 50, 0
5, 9280, Note_on_c, 2, 58, 100
5, 9280, Note_on_c, 2, 51, 100
5, 9343, Note_on_c, 2, 58, 0
5, 9343, Note_on_c, 2, 51, 0
5, 9344, Note_on_c, 2, 52, 100
5, 9344, Note_on_c, 2, 59, 100
5, 9407, Note_on_c, 2, 52, 0
5, 9407, Note_on_c, 2, 59, 0
5, 9504, Note_on_c, 2, 56, 100
5, 9504, Note_on_c, 2, 65, 100
5, 9504, Note_on_c, 2, 62, 100
5, 9551, Note_on_c, 2, 56, 0
5, 9551, Note_on_c, 2, 65, 0
5, 9551, Note_on_c, 2, 62, 0
5, 9552, Note_on_c, 2, 65, 100
5, 9552, Note_on_c, 2, 62, 100
5, 9552, Note_on_c, 2, 56, 100
5, 9599, Note_on_c, 2, 65, 0
5, 9599, Note_on_c, 2, 62, 0
5, 9599, Note_on_c, 2, 56, 0
5, 9600, Note_on_c, 2, 62, 100
5, 9600, Note_on_c, 2, 65, 100
5, 9600, Note_on_c, 2, 56, 100
5, 9647, Note_on_c, 2, 62, 0
5, 9647, Note_on_c, 2, 65, 0
5, 9647, Note_on_c, 2, 56, 0
5, 9648, Note_on_c, 2, 65, 100
5, 9648, Note_on_c, 2, 56, 100
5, 9648, Note_on_c, 2, 62, 100
5, 9743, Note_on_c, 2, 65, 0
5, 9743, Note_on_c, 2, 56, 0
5, 9743, Note_on_c, 2, 62, 0
5, 9744, Note_on_c, 2, 65, 100
5, 9744, Note_on_c, 2, 62, 100
5, 9744, Note_on_c, 2, 56, 100
5, 9791, Note_on_c, 2, 65, 0
5, 9791, Note_on_c, 2, 62, 0
5, 9791, Note_on_c, 2, 56, 0
5, 9792, Note_on_c, 2, 62, 100
5, 9792, Note_on_c, 2, 65, 100
5, 9792, Note_on_c, 2, 56, 100
5, 9839, Note_on_c, 2, 62, 0
5, 9839, Note_on_c, 2, 65, 0
5, 9839, Note_on_c, 2, 56, 0
5, 9840, Note_on_c, 2, 65, 100
5, 9840, Note_on_c, 2, 56, 100
5, 9840, Note_on_c, 2, 62, 100
5, 9887, Note_on_c, 2, 65, 0
5, 9887, Note_on_c, 2, 56, 0
5, 9887, Note_on_c, 2, 62, 0
5, 10272, Note_on_c, 2, 56, 100
5, 10272, Note_on_c, 2, 65, 100
5, 10272, Note_on_c, 2, 62, 100
5, 10319, Note_on_c, 2, 56, 0
5, 10319, Note_on_c, 2, 65, 0
5, 10319, Note_on_c, 2, 62, 0
5, 10320, Note_on_c, 2, 56, 100
5, 10320, Note_on_c, 2, 65, 100
5, 10320, Note_on_c, 2, 62, 100
5, 10367, Note_on_c, 2, 56, 0
5, 10367, Note_on_c, 2, 65, 0
5, 10367, Note_on_c, 2, 62, 0
5, 10368, Note_on_c, 2, 56, 100
5, 10368, Note_on_c, 2, 62, 100
5, 10368, Note_on_c, 2, 65, 100
5, 10415, Note_on_c, 2, 56, 0
5, 10415, Note_on_c, 2, 62, 0
5, 10415, Note_on_c, 2, 65, 0
5, 10416, Note_on_c, 2, 56, 100
5, 10416, Note_on_c, 2, 65, 100
5, 10416, Note_on_c, 2, 62, 100
5, 10511, Note_on_c, 2, 56, 0
5, 10511, Note_on_c, 2, 65, 0
5, 10511, Note_on_c, 2, 62, 0
5, 10512, Note_on_c, 2, 65, 100
5, 10512, Note_on_c, 2, 56, 100
5, 10512, Note_on_c, 2, 62, 100
5, 10559, Note_on_c, 2, 65, 0
5, 10559, Note_on_c, 2, 56, 0
5, 10559, Note_on_c, 2, 62, 0
5, 10560, Note_on_c, 2, 65, 100
5, 10560, Note_on_c, 2, 62, 100
5, 10560, Note_on_c, 2, 56, 100
5, 10607, Note_on_c, 2, 65, 0
5, 10607, Note_on_c, 2, 62, 0
5, 10607, Note_on_c, 2, 56, 0
5, 10608, Note_on_c, 2, 65, 100
5, 10608, Note_on_c, 2, 62, 100
5, 10608, Note_on_c, 2, 56, 100
5, 10655, Note_on_c, 2, 65, 0
5, 10655, Note_on_c, 2, 62, 0
5, 10655, Note_on_c, 2, 56, 0
5, 11040, Note_on_c, 2, 62, 100
5, 11040, Note_on_c, 2, 65, 100
5, 11040, Note_on_c, 2, 56, 100
5, 11087, Note_on_c, 2, 62, 0
5, 11087, Note_on_c, 2, 65, 0
5, 11087, Note_on_c, 2, 56, 0
5, 11088, Note_on_c, 2, 62, 100
5, 11088, Note_on_c, 2, 56, 100
5, 11088, Note_on_c, 2, 65, 100
5, 11135, Note_on_c, 2, 62, 0
5, 11135, Note_on_c, 2, 56, 0
5, 11135, Note_on_c, 2, 65, 0
5, 11136, Note_on_c, 2, 62, 100
5, 11136, Note_on_c, 2, 56, 100
5, 11136, Note_on_c, 2, 65, 100
5, 11183, Note_on_c, 2, 62, 0
5, 11183, Note_on_c, 2, 56, 0
5, 11183, Note_on_c, 2, 65, 0
5, 11184, Note_on_c, 2, 62, 100
5, 11184, Note_on_c, 2, 65, 100
5, 11184, Note_on_c, 2, 56, 100
5, 11279, Note_on_c, 2, 62, 0
5, 11279, Note_on_c, 2, 65, 0
5, 11279, Note_on_c, 2, 56, 0
5, 11280, Note_on_c, 2, 62, 100
5, 11280, Note_on_c, 2, 65, 100
5, 11280, Note_on_c, 2, 56, 100
5, 11327, Note_on_c, 2, 62, 0
5, 11327, Note_on_c, 2, 65, 0
5, 11327, Note_on_c, 2, 56, 0
5, 11328, Note_on_c, 2, 62, 100
5, 11328, Note_on_c, 2, 65, 100
5, 11328, Note_on_c, 2, 56, 100
5, 11375, Note_on_c, 2, 62, 0
5, 11375, Note_on_c, 2, 65, 0
5, 11375, Note_on_c, 2, 56, 0
5, 12000, Note_on_c, 2, 52, 100
5, 12000, Note_on_c, 2, 45, 100
5, 12047, Note_on_c, 2, 52, 0
5, 12047, Note_on_c, 2, 45, 0
5, 12048, Note_on_c, 2, 52, 100
5, 12048, Note_on_c, 2, 45, 100
5, 12095, Note_on_c, 2, 52, 0
5, 12095, Note_on_c, 2, 45, 0
5, 12096, Note_on_c, 2, 52, 100
5, 12096, Note_on_c, 2, 64, 100
5, 12096, Note_on_c, 2, 45, 100
5, 12096, Note_on_c, 2, 57, 100
5, 12096, Note_on_c, 2, 60, 100
5, 12287, Note_on_c, 2, 52, 0
5, 12287, Note_on_c, 2, 64, 0
5, 12287, Note_on_c, 2, 45, 0
5, 12287, Note_on_c, 2, 57, 0
5, 12287, Note_on_c, 2, 60, 0
5, 12864, Note_on_c, 2, 55, 100
5, 12864, Note_on_c, 2, 60, 100
5, 12911, Note_on_c, 2, 55, 0
5, 12911, Note_on_c, 2, 60, 0
5, 12912, Note_on_c, 2, 60, 100
5, 12912, Note_on_c, 2, 55, 100
5, 12959, Note_on_c, 2, 60, 0
5, 12959, Note_on_c, 2, 55, 0
5, 12960, Note_on_c, 2, 60, 100
5, 12960, Note_on_c, 2, 55, 100
5, 13007, Note_on_c, 2, 55, 0
5, 13008, Note_on_c, 2, 55, 100
5, 13031, Note_on_c, 2, 55, 0
5, 13032, Note_on_c, 2, 57, 100
5, 13055, Note_on_c, 2, 60, 0
5, 13055, Note_on_c, 2, 57, 0
5, 13584, Note_on_c, 2, 50, 100
5, 13631, Note_on_c, 2, 50, 0
5, 13632, Note_on_c, 2, 52, 100
5, 13679, Note_on_c, 2, 52, 0
5, 13680, Note_on_c, 2, 52, 100
5, 13680, Note_on_c, 2, 55, 100
5, 13680, Note_on_c, 2, 60, 100
5, 13727, Note_on_c, 2, 52, 0
5, 13727, Note_on_c, 2, 55, 0
5, 13728, Note_on_c, 2, 55, 100
5, 13728, Note_on_c, 2, 52, 100
5, 13775, Note_on_c, 2, 60, 0
5, 13775, Note_on_c, 2, 55, 0
5, 13775, Note_on_c, 2, 52, 0
5, 14016, Note_on_c, 2, 64, 100
5, 14016, Note_on_c, 2, 60, 100
5, 14016, Note_on_c, 2, 57, 100
5, 14207, Note_on_c, 2, 64, 0
5, 14207, Note_on_c, 2, 60, 0
5, 14207, Note_on_c, 2, 57, 0
5, 14208, Note_on_c, 2, 64, 100
5, 14208, Note_on_c, 2, 55, 100
5, 14208, Note_on_c, 2, 60, 100
5, 14399, Note_on_c, 2, 64, 0
5, 14399, Note_on_c, 2, 55, 0
5, 14399, Note_on_c, 2, 60, 0
5, 14400, Note_on_c, 2, 60, 100
5, 14400, Note_on_c, 2, 55, 100
5, 14448, Note_on_c, 2, 52, 100
5, 14495, Note_on_c, 2, 60, 0
5, 14495, Note_on_c, 2, 55, 0
5, 14496, Note_on_c, 2, 60, 100
5, 14496, Note_on_c, 2, 55, 100
5, 14591, Note_on_c, 2, 52, 0
5, 14591, Note_on_c, 2, 60, 0
5, 14591, Note_on_c, 2, 55, 0
5, 14592, Note_on_c, 2, 60, 100
5, 14592, Note_on_c, 2, 64, 100
5, 14592, Note_on_c, 2, 55, 100
5, 14599, Note_on_c, 2, 55, 0
5, 14600, Note_on_c, 2, 57, 100
5, 14603, Note_on_c, 2, 64, 0
5, 14604, Note_on_c, 2, 65, 100
5, 14783, Note_on_c, 2, 60, 0
5, 14783, Note_on_c, 2, 57, 0
5, 14783, Note_on_c, 2, 65, 0
5, 15072, Note_on_c, 2, 60, 100
5, 15072, Note_on_c, 2, 55, 100
5, 15119, Note_on_c, 2, 60, 0
5, 15119, Note_on_c, 2, 55, 0
5, 15120, Note_on_c, 2, 60, 100
5, 15120, Note_on_c, 2, 55, 100
5, 15167, Note_on_c, 2, 60, 0
5, 15167, Note_on_c, 2, 55, 0
5, 15168, Note_on_c, 2, 60, 100
5, 15168, Note_on_c, 2, 55, 100
5, 15216, Note_on_c, 2, 52, 100
5, 15239, Note_on_c, 2, 52, 0
5, 15240, Note_on_c, 2, 50, 100
5, 15263, Note_on_c, 2, 50, 0
5, 15264, Note_on_c, 2, 52, 100
5, 15311, Note_on_c, 2, 55, 0
5, 15312, Note_on_c, 2, 55, 100
5, 15359, Note_on_c, 2, 60, 0
5, 15359, Note_on_c, 2, 52, 0
5, 15359, Note_on_c, 2, 55, 0
5, 15360, Note_on_c, 2, 52, 100
5, 15360, Note_on_c, 2, 45, 100
5, 15407, Note_on_c, 2, 52, 0
5, 15407, Note_on_c, 2, 45, 0
5, 15408, Note_on_c, 2, 52, 100
5, 15408, Note_on_c, 2, 45, 100
5, 15455, Note_on_c, 2, 52, 0
5, 15455, Note_on_c, 2, 45, 0
5, 15456, Note_on_c, 2, 55, 100
5, 15456, Note_on_c, 2, 52, 100
5, 15456, Note_on_c, 2, 60, 100
5, 15503, Note_on_c, 2, 55, 0
5, 15503, Note_on_c, 2, 52, 0
5, 15503, Note_on_c, 2, 60, 0
5, 15936, Note_on_c, 2, 50, 100
5, 15936, Note_on_c, 2, 57, 100
5, 15983, Note_on_c, 2, 50, 0
5, 15983, Note_on_c, 2, 57, 0
5, 15984, Note_on_c, 2, 57, 100
5, 15984, Note_on_c, 2, 50, 100
5, 16031, Note_on_c, 2, 57, 0
5, 16031, Note_on_c, 2, 50, 0
5, 16032, Note_on_c, 2, 50, 100
5, 16032, Note_on_c, 2, 65, 100
5, 16032, Note_on_c, 2, 60, 100
5, 16032, Note_on_c, 2, 57, 100
5, 16127, Note_on_c, 2, 50, 0
5, 16127, Note_on_c, 2, 65, 0
5, 16127, Note_on_c, 2, 60, 0
5, 16127, Note_on_c, 2, 57, 0
5, 16992, Note_on_c, 2, 60, 100
5, 16992, Note_on_c, 2, 57, 100
5, 17039, Note_on_c, 2, 60, 0
5, 17039, Note_on_c, 2, 57, 0
5, 17040, Note_on_c, 2, 57, 100
5, 17040, Note_on_c, 2, 60, 100
5, 17087, Note_on_c, 2, 57, 0
5, 17087, Note_on_c, 2, 60, 0
5, 17088, Note_on_c, 2, 65, 100
5, 17088, Note_on_c, 2, 60, 100
5, 17135, Note_on_c, 2, 65, 0
5, 17135, Note_on_c, 2, 60, 0
5, 17136, Note_on_c, 2, 65, 100
5, 17136, Note_on_c, 2, 60, 100
5, 17183, Note_on_c, 2, 65, 0
5, 17183, Note_on_c, 2, 60, 0
5, 17664, Note_on_c, 2, 57, 100
5, 17664, Note_on_c, 2, 50, 100
5, 17711, Note_on_c, 2, 57, 0
5, 17711, Note_on_c, 2, 50, 0
5, 17712, Note_on_c, 2, 65, 100
5, 17712, Note_on_c, 2, 50, 100
5, 17712, Note_on_c, 2, 57, 100
5, 17712, Note_on_c, 2, 60, 100
5, 17759, Note_on_c, 2, 65, 0
5, 17759, Note_on_c, 2, 50, 0
5, 17759, Note_on_c, 2, 57, 0
5, 17759, Note_on_c, 2, 60, 0
5, 17760, Note_on_c, 2, 69, 100
5, 17760, Note_on_c, 2, 50, 100
5, 17760, Note_on_c, 2, 60, 100
5, 17760, Note_on_c, 2, 65, 100
5, 17760, Note_on_c, 2, 57, 100
5, 17807, Note_on_c, 2, 69, 0
5, 17807, Note_on_c, 2, 50, 0
5, 17807, Note_on_c, 2, 60, 0
5, 17807, Note_on_c, 2, 65, 0
5, 17807, Note_on_c, 2, 57, 0
5, 18048, Note_on_c, 2, 57, 100
5, 18048, Note_on_c, 2, 60, 100
5, 18239, Note_on_c, 2, 57, 0
5, 18239, Note_on_c, 2, 60, 0
5, 18240, Note_on_c, 2, 62, 100
5, 18240, Note_on_c, 2, 59, 100
5, 18431, Note_on_c, 2, 62, 0
5, 18431, Note_on_c, 2, 59, 0
5, 18432, Note_on_c, 2, 55, 100
5, 18432, Note_on_c, 2, 60, 100
5, 18623, Note_on_c, 2, 55, 0
5, 18623, Note_on_c, 2, 60, 0
5, 18624, Note_on_c, 2, 58, 100
5, 18624, Note_on_c, 2, 53, 100
5, 18815, Note_on_c, 2, 58, 0
5, 18815, Note_on_c, 2, 53, 0
5, 18816, Note_on_c, 2, 57, 100
5, 18816, Note_on_c, 2, 50, 100
5, 18879, Note_on_c, 2, 57, 0
5, 18879, Note_on_c, 2, 50, 0
5, 18880, Note_on_c, 2, 58, 100
5, 18880, Note_on_c, 2, 51, 100
5, 18943, Note_on_c, 2, 58, 0
5, 18943, Note_on_c, 2, 51, 0
5, 18944, Note_on_c, 2, 52, 100
5, 18944, Note_on_c, 2, 59, 100
5, 19007, Note_on_c, 2, 52, 0
5, 19007, Note_on_c, 2, 59, 0
5, 19104, Note_on_c, 2, 62, 100
5, 19104, Note_on_c, 2, 56, 100
5, 19104, Note_on_c, 2, 65, 100
5, 19151, Note_on_c, 2, 62, 0
5, 19151, Note_on_c, 2, 56, 0
5, 19151, Note_on_c, 2, 65, 0
5, 19152, Note_on_c, 2, 65, 100
5, 19152, Note_on_c, 2, 62, 100
5, 19152, Note_on_c, 2, 56, 100
5, 19199, Note_on_c, 2, 65, 0
5, 19199, Note_on_c, 2, 62, 0
5, 19199, Note_on_c, 2, 56, 0
5, 19200, Note_on_c, 2, 56, 100
5, 19200, Note_on_c, 2, 62, 100
5, 19200, Note_on_c, 2, 65, 100
5, 19247, Note_on_c, 2, 56, 0
5, 19247, Note_on_c, 2, 62, 0
5, 19247, Note_on_c, 2, 65, 0
5, 19248, Note_on_c, 2, 56, 100
5, 19248, Note_on_c, 2, 65, 100
5, 19248, Note_on_c, 2, 62, 100
5, 19343, Note_on_c, 2, 56, 0
5, 19343, Note_on_c, 2, 65, 0
5, 19343, Note_on_c, 2, 62, 0
5, 19344, Note_on_c, 2, 65, 100
5, 19344, Note_on_c, 2, 56, 100
5, 19344, Note_on_c, 2, 62, 100
5, 19391, Note_on_c, 2, 65, 0
5, 19391, Note_on_c, 2, 56, 0
5, 19391, Note_on_c, 2, 62, 0
5, 19392, Note_on_c, 2, 62, 100
5, 19392, Note_on_c, 2, 65, 100
5, 19392, Note_on_c, 2, 56, 100
5, 19439, Note_on_c, 2, 62, 0
5, 19439, Note_on_c, 2, 65, 0
5, 19439, Note_on_c, 2, 56, 0
5, 19440, Note_on_c, 2, 62, 100
5, 19440, Note_on_c, 2, 56, 100
5, 19440, Note_on_c, 2, 65, 100
5, 19487, Note_on_c, 2, 62, 0
5, 19487, Note_on_c, 2, 56, 0
5, 19487, Note_on_c, 2, 65, 0
5, 19872, Note_on_c, 2, 56, 100
5, 19872, Note_on_c, 2, 65, 100
5, 19872, Note_on_c, 2, 62, 100
5, 19919, Note_on_c, 2, 56, 0
5, 19919, Note_on_c, 2, 65, 0
5, 19919, Note_on_c, 2, 62, 0
5, 19920, Note_on_c, 2, 62, 100
5, 19920, Note_on_c, 2, 56, 100
5, 19920, Note_on_c, 2, 65, 100
5, 19967, Note_on_c, 2, 62, 0
5, 19967, Note_on_c, 2, 56, 0
5, 19967, Note_on_c, 2, 65, 0
5, 19968, Note_on_c, 2, 56, 100
5, 19968, Note_on_c, 2, 62, 100
5, 19968, Note_on_c, 2, 65, 100
5, 20015, Note_on_c, 2, 56, 0
5, 20015, Note_on_c, 2, 62, 0
5, 20015, Note_on_c, 2, 65, 0
5, 20016, Note_on_c, 2, 65, 100
5, 20016, Note_on_c, 2, 62, 100
5, 20016, Note_on_c, 2, 56, 100
5, 20111, Note_on_c, 2, 65, 0
5, 20111, Note_on_c, 2, 62, 0
5, 20111, Note_on_c, 2, 56, 0
5, 20112, Note_on_c, 2, 65, 100
5, 20112, Note_on_c, 2, 62, 100
5, 20112, Note_on_c, 2, 56, 100
5, 20159, Note_on_c, 2, 65, 0
5, 20159, Note_on_c, 2, 62, 0
5, 20159, Note_on_c, 2, 56, 0
5, 20160, Note_on_c, 2, 65, 100
5, 20160, Note_on_c, 2, 62, 100
5, 20160, Note_on_c, 2, 56, 100
5, 20207, Note_on_c, 2, 65, 0
5, 20207, Note_on_c, 2, 62, 0
5, 20207, Note_on_c, 2, 56, 0
5, 20208, Note_on_c, 2, 62, 100
5, 20208, Note_on_c, 2, 56, 100
5, 20208, Note_on_c, 2, 65, 100
5, 20255, Note_on_c, 2, 62, 0
5, 20255, Note_on_c, 2, 56, 0
5, 20255, Note_on_c, 2, 65, 0
5, 20640, Note_on_c, 2, 62, 100
5, 20640, Note_on_c, 2, 65, 100
5, 20640, Note_on_c, 2, 56, 100
5, 20687, Note_on_c, 2, 62, 0
5, 20687, Note_on_c, 2, 65, 0
5, 20687, Note_on_c, 2, 56, 0
5, 20688, Note_on_c, 2, 65, 100
5, 20688, Note_on_c, 2, 56, 100
5, 20688, Note_on_c, 2, 62, 100
5, 20735, Note_on_c, 2, 65, 0
5, 20735, Note_on_c, 2, 56, 0
5, 20735, Note_on_c, 2, 62, 0
5, 20736, Note_on_c, 2, 62, 100
5, 20736, Note_on_c, 2, 65, 100
5, 20736, Note_on_c, 2, 56, 100
5, 20783, Note_on_c, 2, 62, 0
5, 20783, Note_on_c, 2, 65, 0
5, 20783, Note_on_c, 2, 56, 0
5, 20784, Note_on_c, 2, 65, 100
5, 20784, Note_on_c, 2, 56, 100
5, 20784, Note_on_c, 2, 62, 100
5, 20879, Note_on_c, 2, 65, 0
5, 20879, Note_on_c, 2, 56, 0
5, 20879, Note_on_c, 2, 62, 0
5, 20880, Note_on_c, 2, 62, 100
5, 20880, Note_on_c, 2, 56, 100
5, 20880, Note_on_c, 2, 65, 100
5, 20927, Note_on_c, 2, 62, 0
5, 20927, Note_on_c, 2, 56, 0
5, 20927, Note_on_c, 2, 65, 0
5, 20928, Note_on_c, 2, 65, 100
5, 20928, Note_on_c, 2, 62, 100
5, 20928, Note_on_c, 2, 56, 100
5, 20975, Note_on_c, 2, 65, 0
5, 20975, Note_on_c, 2, 62, 0
5, 20975, Note_on_c, 2, 56, 0
5, 21312, Note_on_c, 2, 50, 100
5, 21360, Note_on_c, 2, 57, 100
5, 21408, Note_on_c, 2, 62, 100
5, 21455, Note_on_c, 2, 50, 0
5, 21456, Note_on_c, 2, 65, 100
5, 21503, Note_on_c, 2, 62, 0
5, 21504, Note_on_c, 2, 62, 100
5, 21551, Note_on_c, 2, 57, 0
5, 21552, Note_on_c, 2, 57, 100
5, 21599, Note_on_c, 2, 65, 0
5, 21599, Note_on_c, 2, 62, 0
5, 21599, Note_on_c, 2, 57, 0
5, 21600, Note_on_c, 2, 53, 100
5, 21648, Note_on_c, 2, 57, 100
5, 21696, Note_on_c, 2, 62, 100
5, 21743, Note_on_c, 2, 53, 0
5, 21744, Note_on_c, 2, 65, 100
5, 21791, Note_on_c, 2, 62, 0
5, 21792, Note_on_c, 2, 62, 100
5, 21839, Note_on_c, 2, 57, 0
5, 21840, Note_on_c, 2, 57, 100
5, 21887, Note_on_c, 2, 65, 0
5, 21887, Note_on_c, 2, 62, 0
5, 21887, Note_on_c, 2, 57, 0
5, 21888, Note_on_c, 2, 52, 100
5, 21936, Note_on_c, 2, 56, 100
5, 21984, Note_on_c, 2, 62, 100
5, 22031, Note_on_c, 2, 52, 0
5, 22032, Note_on_c, 2, 65, 100
5, 22079, Note_on_c, 2, 56, 0
5, 22079, Note_on_c, 2, 62, 0
5, 22079, Note_on_c, 2, 65, 0
5, 22080, Note_on_c, 2, 48, 100
5, 22127, Note_on_c, 2, 48, 0
5, 22128, Note_on_c, 2, 47, 100
5, 22175, Note_on_c, 2, 47, 0
5, 22176, Note_on_c, 2, 46, 100
5, 22224, Note_on_c, 2, 53, 100
5, 22272, Note_on_c, 2, 62, 100
5, 22319, Note_on_c, 2, 46, 0
5, 22320, Note_on_c, 2, 65, 100
5, 22367, Note_on_c, 2, 62, 0
5, 22368, Note_on_c, 2, 62, 100
5, 22415, Note_on_c, 2, 53, 0
5, 22416, Note_on_c, 2, 56, 100
5, 22463, Note_on_c, 2, 65, 0
5, 22463, Note_on_c, 2, 62, 0
5, 22463, Note_on_c, 2, 56, 0
5, 22464, Note_on_c, 2, 45, 100
5, 22512, Note_on_c, 2, 57, 100
5, 22560, Note_on_c, 2, 61, 100
5, 22607, Note_on_c, 2, 45, 0
5, 22608, Note_on_c, 2, 65, 100
5, 22655, Note_on_c, 2, 61, 0
5, 22656, Note_on_c, 2, 61, 100
5, 22703, Note_on_c, 2, 57, 0
5, 22704, Note_on_c, 2, 57, 100
5, 22751, Note_on_c, 2, 65, 0
5, 22751, Note_on_c, 2, 61, 0
5, 22751, Note_on_c, 2, 57, 0
5, 22752, Note_on_c, 2, 50, 100
5, 22800, Note_on_c, 2, 57, 100
5, 22848, Note_on_c, 2, 62, 100
5, 22895, Note_on_c, 2, 50, 0
5, 22896, Note_on_c, 2, 65, 100
5, 22943, Note_on_c, 2, 62, 0
5, 22944, Note_on_c, 2, 62, 100
5, 22991, Note_on_c, 2, 57, 0
5, 22992, Note_on_c, 2, 57, 100
5, 23039, Note_on_c, 2, 65, 0
5, 23039, Note_on_c, 2, 62, 0
5, 23039, Note_on_c, 2, 57, 0
5, 23040, Note_on_c, 2, 53, 100
5, 23088, Note_on_c, 2, 57, 100
5, 23136, Note_on_c, 2, 62, 100
5, 23183, Note_on_c, 2, 53, 0
5, 23184, Note_on_c, 2, 65, 100
5, 23231, Note_on_c, 2, 62, 0
5, 23232, Note_on_c, 2, 62, 100
5, 23279, Note_on_c, 2, 57, 0
5, 23280, Note_on_c, 2, 57, 100
5, 23327, Note_on_c, 2, 65, 0
5, 23327, Note_on_c, 2, 62, 0
5, 23327, Note_on_c, 2, 57, 0
5, 23328, Note_on_c, 2, 52, 100
5, 23376, Note_on_c, 2, 56, 100
5, 23424, Note_on_c, 2, 62, 100
5, 23471, Note_on_c, 2, 52, 0
5, 23472, Note_on_c, 2, 65, 100
5, 23519, Note_on_c, 2, 56, 0
5, 23519, Note_on_c, 2, 62, 0
5, 23519, Note_on_c, 2, 65, 0
5, 23520, Note_on_c, 2, 48, 100
5, 23567, Note_on_c, 2, 48, 0
5, 23568, Note_on_c, 2, 47, 100
5, 23615, Note_on_c, 2, 47, 0
5, 23616, Note_on_c, 2, 46, 100
5, 23664, Note_on_c, 2, 53, 100
5, 23712, Note_on_c, 2, 62, 100
5, 23759, Note_on_c, 2, 46, 0
5, 23760, Note_on_c, 2, 65, 100
5, 23807, Note_on_c, 2, 62, 0
5, 23808, Note_on_c, 2, 62, 100
5, 23855, Note_on_c, 2, 53, 0
5, 23856, Note_on_c, 2, 56, 100
5, 23903, Note_on_c, 2, 65, 0
5, 23903, Note_on_c, 2, 62, 0
5, 23903, Note_on_c, 2, 56, 0
5, 23904, Note_on_c, 2, 45, 100
5, 23952, Note_on_c, 2, 57, 100
5, 24000, Note_on_c, 2, 61, 100
5, 24047, Note_on_c, 2, 45, 0
5, 24048, Note_on_c, 2, 65, 100
5, 24335, Note_on_c, 2, 57, 0
5, 24335, Note_on_c, 2, 61, 0
5, 24335, Note_on_c, 2, 65, 0
5, 24720, Note_on_c, 2, 60, 100
5, 24720, Note_on_c, 2, 64, 100
5, 24751, Note_on_c, 2, 60, 0
5, 24751, Note_on_c, 2, 64, 0
5, 24768, Note_on_c, 2, 60, 100
5, 24768, Note_on_c, 2, 64, 100
5, 24799, Note_on_c, 2, 60, 0
5, 24799, Note_on_c, 2, 64, 0
5, 24816, Note_on_c, 2, 60, 100
5, 24816, Note_on_c, 2, 64, 100
5, 24847, Note_on_c, 2, 60, 0
5, 24847, Note_on_c, 2, 64, 0
5, 24864, Note_on_c, 2, 64, 100
5, 24864, Note_on_c, 2, 60, 100
5, 24927, Note_on_c, 2, 64, 0
5, 24927, Note_on_c, 2, 60, 0
5, 24960, Note_on_c, 2, 57, 100
5, 24960, Note_on_c, 2, 52, 100
5, 24991, Note_on_c, 2, 57, 0
5, 24991, Note_on_c, 2, 52, 0
5, 25608, Note_on_c, 2, 55, 100
5, 25608, Note_on_c, 2, 60, 100
5, 25608, Note_on_c, 2, 64, 100
5, 25631, Note_on_c, 2, 55, 0
5, 25631, Note_on_c, 2, 60, 0
5, 25631, Note_on_c, 2, 64, 0
5, 25656, Note_on_c, 2, 60, 100
5, 25727, Note_on_c, 2, 60, 0
5, 25728, Note_on_c, 2, 55, 100
5, 25728, Note_on_c, 2, 64, 100
5, 25728, Note_on_c, 2, 60, 100
5, 25775, Note_on_c, 2, 55, 0
5, 25775, Note_on_c, 2, 64, 0
5, 25775, Note_on_c, 2, 60, 0
5, 26784, Note_on_c, 2, 57, 100
5, 26784, Note_on_c, 2, 52, 100
5, 26975, Note_on_c, 2, 57, 0
5, 26975, Note_on_c, 2, 52, 0
5, 26976, Note_on_c, 2, 55, 100
5, 26976, Note_on_c, 2, 60, 100
5, 27167, Note_on_c, 2, 55, 0
5, 27167, Note_on_c, 2, 60, 0
5, 27168, Note_on_c, 2, 60, 100
5, 27168, Note_on_c, 2, 54, 100
5, 27168, Note_on_c, 2, 57, 100
5, 27359, Note_on_c, 2, 60, 0
5, 27359, Note_on_c, 2, 54, 0
5, 27359, Note_on_c, 2, 57, 0
5, 27360, Note_on_c, 2, 53, 100
5, 27360, Note_on_c, 2, 60, 100
5, 27360, Note_on_c, 2, 65, 100
5, 27551, Note_on_c, 2, 53, 0
5, 27551, Note_on_c, 2, 60, 0
5, 27551, Note_on_c, 2, 65, 0
5, 27840, Note_on_c, 2, 60, 100
5, 27840, Note_on_c, 2, 55, 100
5, 27887, Note_on_c, 2, 60, 0
5, 27887, Note_on_c, 2, 55, 0
5, 27888, Note_on_c, 2, 62, 100
5, 27888, Note_on_c, 2, 57, 100
5, 27911, Note_on_c, 2, 62, 0
5, 27911, Note_on_c, 2, 57, 0
5, 27912, Note_on_c, 2, 58, 100
5, 27912, Note_on_c, 2, 63, 100
5, 27935, Note_on_c, 2, 58, 0
5, 27935, Note_on_c, 2, 63, 0
5, 28656, Note_on_c, 2, 65, 100
5, 28656, Note_on_c, 2, 60, 100
5, 28752, Note_on_c, 2, 57, 100
5, 28799, Note_on_c, 2, 65, 0
5, 28799, Note_on_c, 2, 60, 0
5, 28799, Note_on_c, 2, 57, 0
5, 28800, Note_on_c, 2, 69, 100
5, 28800, Note_on_c, 2, 65, 100
5, 28800, Note_on_c, 2, 60, 100
5, 28847, Note_on_c, 2, 69, 0
5, 28848, Note_on_c, 2, 57, 100
5, 28895, Note_on_c, 2, 65, 0
5, 28895, Note_on_c, 2, 60, 0
5, 28895, Note_on_c, 2, 57, 0
5, 28896, Note_on_c, 2, 60, 100
5, 28991, Note_on_c, 2, 60, 0
5, 28992, Note_on_c, 2, 57, 100
5, 28992, Note_on_c, 2, 60, 100
5, 29039, Note_on_c, 2, 57, 0
5, 29039, Note_on_c, 2, 60, 0
5, 29712, Note_on_c, 2, 50, 100
5, 29712, Note_on_c, 2, 61, 100
5, 29712, Note_on_c, 2, 65, 100
5, 29712, Note_on_c, 2, 57, 100
5, 29759, Note_on_c, 2, 50, 0
5, 29759, Note_on_c, 2, 61, 0
5, 29759, Note_on_c, 2, 65, 0
5, 29759, Note_on_c, 2, 57, 0
5, 29760, Note_on_c, 2, 61, 100
5, 29760, Note_on_c, 2, 50, 100
5, 29760, Note_on_c, 2, 65, 100
5, 29760, Note_on_c, 2, 57, 100
5, 29807, Note_on_c, 2, 61, 0
5, 29807, Note_on_c, 2, 50, 0
5, 29807, Note_on_c, 2, 65, 0
5, 29807, Note_on_c, 2, 57, 0
5, 29808, Note_on_c, 2, 50, 100
5, 29808, Note_on_c, 2, 57, 100
5, 29855, Note_on_c, 2, 57, 0
5, 29856, Note_on_c, 2, 57, 100
5, 29856, Note_on_c, 2, 60, 100
5, 29951, Note_on_c, 2, 57, 0
5, 29952, Note_on_c, 2, 57, 100
5, 29999, Note_on_c, 2, 50, 0
5, 29999, Note_on_c, 2, 60, 0
5, 29999, Note_on_c, 2, 57, 0
5, 30240, Note_on_c, 2, 55, 100
5, 30263, Note_on_c, 2, 55, 0
5, 30264, Note_on_c, 2, 57, 100
5, 30311, Note_on_c, 2, 57, 0
5, 30312, Note_on_c, 2, 65, 100
5, 30312, Note_on_c, 2, 60, 100
5, 30336, Note_on_c, 2, 57, 100
5, 30359, Note_on_c, 2, 57, 0
5, 30360, Note_on_c, 2, 55, 100
5, 30383, Note_on_c, 2, 55, 0
5, 30384, Note_on_c, 2, 57, 100
5, 30431, Note_on_c, 2, 65, 0
5, 30431, Note_on_c, 2, 60, 0
5, 30431, Note_on_c, 2, 57, 0
5, 30432, Note_on_c, 2, 57, 100
5, 30432, Note_on_c, 2, 50, 100
5, 30479, Note_on_c, 2, 50, 0
5, 30480, Note_on_c, 2, 50, 100
5, 30527, Note_on_c, 2, 57, 0
5, 30527, Note_on_c, 2, 50, 0
5, 30528, Note_on_c, 2, 62, 100
5, 30528, Note_on_c, 2, 69, 100
5, 30528, Note_on_c, 2, 65, 100
5, 30575, Note_on_c, 2, 62, 0
5, 30575, Note_on_c, 2, 69, 0
5, 30575, Note_on_c, 2, 65, 0
5, 30816, Note_on_c, 2, 57, 100
5, 30816, Note_on_c, 2, 60, 100
5, 31007, Note_on_c, 2, 57, 0
5, 31007, Note_on_c, 2, 60, 0
5, 31008, Note_on_c, 2, 60, 100
5, 31008, Note_on_c, 2, 65, 100
5, 31199, Note_on_c, 2, 60, 0
5, 31199, Note_on_c, 2, 65, 0
5, 31200, Note_on_c, 2, 65, 100
5, 31200, Note_on_c, 2, 60, 100
5, 31247, Note_on_c, 2, 65, 0
5, 31247, Note_on_c, 2, 60, 0
5, 31248, Note_on_c, 2, 65, 100
5, 31248, Note_on_c, 2, 60, 100
5, 31295, Note_on_c, 2, 65, 0
5, 31295, Note_on_c, 2, 60, 0
5, 31296, Note_on_c, 2, 65, 100
5, 31296, Note_on_c, 2, 60, 100
5, 31391, Note_on_c, 2, 65, 0
5, 31391, Note_on_c, 2, 60, 0
5, 31392, Note_on_c, 2, 65, 100
5, 31392, Note_on_c, 2, 60, 100
5, 31399, Note_on_c, 2, 65, 0
5, 31399, Note_on_c, 2, 60, 0
5, 31400, Note_on_c, 2, 62, 100
5, 31400, Note_on_c, 2, 67, 100
5, 31487, Note_on_c, 2, 62, 0
5, 31487, Note_on_c, 2, 67, 0
5, 31488, Note_on_c, 2, 65, 100
5, 31488, Note_on_c, 2, 60, 100
5, 31535, Note_on_c, 2, 65, 0
5, 31583, Note_on_c, 2, 60, 0
5, 31584, Note_on_c, 2, 55, 100
5, 31584, Note_on_c, 2, 50, 100
5, 31647, Note_on_c, 2, 55, 0
5, 31647, Note_on_c, 2, 50, 0
5, 31648, Note_on_c, 2, 51, 100
5, 31648, Note_on_c, 2, 56, 100
5, 31711, Note_on_c, 2, 51, 0
5, 31711, Note_on_c, 2, 56, 0
5, 31712, Note_on_c, 2, 52, 100
5, 31712, Note_on_c, 2, 57, 100
5, 31775, Note_on_c, 2, 52, 0
5, 31775, Note_on_c, 2, 57, 0
5, 31872, Note_on_c, 2, 62, 100
5, 31872, Note_on_c, 2, 56, 100
5, 31872, Note_on_c, 2, 65, 100
5, 31919, Note_on_c, 2, 62, 0
5, 31919, Note_on_c, 2, 56, 0
5, 31919, Note_on_c, 2, 65, 0
5, 31920, Note_on_c, 2, 62, 100
5, 31920, Note_on_c, 2, 65, 100
5, 31920, Note_on_c, 2, 56, 100
5, 31967, Note_on_c, 2, 62, 0
5, 31967, Note_on_c, 2, 65, 0
5, 31967, Note_on_c, 2, 56, 0
5, 31968, Note_on_c, 2, 56, 100
5, 31968, Note_on_c, 2, 65, 100
5, 31968, Note_on_c, 2, 62, 100
5, 32015, Note_on_c, 2, 56, 0
5, 32015, Note_on_c, 2, 65, 0
5, 32015, Note_on_c, 2, 62, 0
5, 32016, Note_on_c, 2, 62, 100
5, 32016, Note_on_c, 2, 56, 100
5, 32016, Note_on_c, 2, 65, 100
5, 32111, Note_on_c, 2, 62, 0
5, 32111, Note_on_c, 2, 56, 0
5, 32111, Note_on_c, 2, 65, 0
5, 32112, Note_on_c, 2, 62, 100
5, 32112, Note_on_c, 2, 56, 100
5, 32112, Note_on_c, 2, 65, 100
5, 32159, Note_on_c, 2, 62, 0
5, 32159, Note_on_c, 2, 56, 0
5, 32159, Note_on_c, 2, 65, 0
5, 32160, Note_on_c, 2, 56, 100
5, 32160, Note_on_c, 2, 65, 100
5, 32160, Note_on_c, 2, 62, 100
5, 32207, Note_on_c, 2, 56, 0
5, 32207, Note_on_c, 2, 65, 0
5, 32207, Note_on_c, 2, 62, 0
5, 32208, Note_on_c, 2, 56, 100
5, 32208, Note_on_c, 2, 65, 100
5, 32208, Note_on_c, 2, 62, 100
5, 32255, Note_on_c, 2, 56, 0
5, 32255, Note_on_c, 2, 65, 0
5, 32255, Note_on_c, 2, 62, 0
5, 32640, Note_on_c, 2, 65, 100
5, 32640, Note_on_c, 2, 56, 100
5, 32640, Note_on_c, 2, 62, 100
5, 32687, Note_on_c, 2, 65, 0
5, 32687, Note_on_c, 2, 56, 0
5, 32687, Note_on_c, 2, 62, 0
5, 32688, Note_on_c, 2, 65, 100
5, 32688, Note_on_c, 2, 56, 100
5, 32688, Note_on_c, 2, 62, 100
5, 32735, Note_on_c, 2, 65, 0
5, 32735, Note_on_c, 2, 56, 0
5, 32735, Note_on_c, 2, 62, 0
5, 32736, Note_on_c, 2, 65, 100
5, 32736, Note_on_c, 2, 62, 100
5, 32736, Note_on_c, 2, 56, 100
5, 32783, Note_on_c, 2, 65, 0
5, 32783, Note_on_c, 2, 62, 0
5, 32783, Note_on_c, 2, 56, 0
5, 32784, Note_on_c, 2, 62, 100
5, 32784, Note_on_c, 2, 65, 100
5, 32784, Note_on_c, 2, 56, 100
5, 32879, Note_on_c, 2, 62, 0
5, 32879, Note_on_c, 2, 65, 0
5, 32879, Note_on_c, 2, 56, 0
5, 32880, Note_on_c, 2, 56, 100
5, 32880, Note_on_c, 2, 65, 100
5, 32880, Note_on_c, 2, 62, 100
5, 32927, Note_on_c, 2, 56, 0
5, 32927, Note_on_c, 2, 65, 0
5, 32927, Note_on_c, 2, 62, 0
5, 32928, Note_on_c, 2, 65, 100
5, 32928, Note_on_c, 2, 62, 100
5, 32928, Note_on_c, 2, 56, 100
5, 32975, Note_on_c, 2, 65, 0
5, 32975, Note_on_c, 2, 62, 0
5, 32975, Note_on_c, 2, 56, 0
5, 32976, Note_on_c, 2, 65, 100
5, 32976, Note_on_c, 2, 62, 100
5, 32976, Note_on_c, 2, 56, 100
5, 33023, Note_on_c, 2, 65, 0
5, 33023, Note_on_c, 2, 62, 0
5, 33023, Note_on_c, 2, 56, 0
5, 33408, Note_on_c, 2, 62, 100
5, 33408, Note_on_c, 2, 56, 100
5, 33408, Note_on_c, 2, 65, 100
5, 33455, Note_on_c, 2, 62, 0
5, 33455, Note_on_c, 2, 56, 0
5, 33455, Note_on_c, 2, 65, 0
5, 33456, Note_on_c, 2, 65, 100
5, 33456, Note_on_c, 2, 56, 100
5, 33456, Note_on_c, 2, 62, 100
5, 33503, Note_on_c, 2, 65, 0
5, 33503, Note_on_c, 2, 56, 0
5, 33503, Note_on_c, 2, 62, 0
5, 33504, Note_on_c, 2, 65, 100
5, 33504, Note_on_c, 2, 62, 100
5, 33504, Note_on_c, 2, 56, 100
5, 33551, Note_on_c, 2, 65, 0
5, 33551, Note_on_c, 2, 62, 0
5, 33551, Note_on_c, 2, 56, 0
5, 33552, Note_on_c, 2, 62, 100
5, 33552, Note_on_c, 2, 65, 100
5, 33552, Note_on_c, 2, 56, 100
5, 33647, Note_on_c, 2, 62, 0
5, 33647, Note_on_c, 2, 65, 0
5, 33647, Note_on_c, 2, 56, 0
5, 33648, Note_on_c, 2, 65, 100
5, 33648, Note_on_c, 2, 56, 100
5, 33648, Note_on_c, 2, 62, 100
5, 33695, Note_on_c, 2, 65, 0
5, 33695, Note_on_c, 2, 56, 0
5, 33695, Note_on_c, 2, 62, 0
5, 33696, Note_on_c, 2, 62, 100
5, 33696, Note_on_c, 2, 65, 100
5, 33696, Note_on_c, 2, 56, 100
5, 33743, Note_on_c, 2, 62, 0
5, 33743, Note_on_c, 2, 65, 0
5, 33743, Note_on_c, 2, 56, 0
5, 34080, Note_on_c, 2, 50, 100
5, 34128, Note_on_c, 2, 57, 100
5, 34176, Note_on_c, 2, 62, 100
5, 34223, Note_on_c, 2, 50, 0
5, 34224, Note_on_c, 2, 65, 100
5, 34271, Note_on_c, 2, 62, 0
5, 34272, Note_on_c, 2, 62, 100
5, 34319, Note_on_c, 2, 57, 0
5, 34320, Note_on_c, 2, 57, 100
5, 34367, Note_on_c, 2, 65, 0
5, 34367, Note_on_c, 2, 62, 0
5, 34367, Note_on_c, 2, 57, 0
5, 34368, Note_on_c, 2, 53, 100
5, 34416, Note_on_c, 2, 57, 100
5, 34464, Note_on_c, 2, 62, 100
5, 34511, Note_on_c, 2, 53, 0
5, 34512, Note_on_c, 2, 65, 100
5, 34559, Note_on_c, 2, 62, 0
5, 34560, Note_on_c, 2, 62, 100
5, 34607, Note_on_c, 2, 57, 0
5, 34608, Note_on_c, 2, 57, 100
5, 34655, Note_on_c, 2, 65, 0
5, 34655, Note_on_c, 2, 62, 0
5, 34655, Note_on_c, 2, 57, 0
5, 34656, Note_on_c, 2, 52, 100
5, 34704, Note_on_c, 2, 56, 100
5, 34752, Note_on_c, 2, 62, 100
5, 34799, Note_on_c, 2, 52, 0
5, 34800, Note_on_c, 2, 65, 100
5, 34847, Note_on_c, 2, 56, 0
5, 34847, Note_on_c, 2, 62, 0
5, 34847, Note_on_c, 2, 65, 0
5, 34848, Note_on_c, 2, 48, 100
5, 34895, Note_on_c, 2, 48, 0
5, 34896, Note_on_c, 2, 47, 100
5, 34943, Note_on_c, 2, 47, 0
5, 34944, Note_on_c, 2, 46, 100
5, 34992, Note_on_c, 2, 53, 100
5, 35040, Note_on_c, 2, 62, 100
5, 35087, Note_on_c, 2, 46, 0
5, 35088, Note_on_c, 2, 65, 100
5, 35135, Note_on_c, 2, 62, 0
5, 35136, Note_on_c, 2, 62, 100
5, 35183, Note_on_c, 2, 53, 0
5, 35184, Note_on_c, 2, 56, 100
5, 35231, Note_on_c, 2, 65, 0
5, 35231, Note_on_c, 2, 62, 0
5, 35231, Note_on_c, 2, 56, 0
5, 35232, Note_on_c, 2, 45, 100
5, 35280, Note_on_c, 2, 57, 100
5, 35328, Note_on_c, 2, 61, 100
5, 35375, Note_on_c, 2, 45, 0
5, 35376, Note_on_c, 2, 65, 100
5, 35423, Note_on_c, 2, 61, 0
5, 35424, Note_on_c, 2, 61, 100
5, 35471, Note_on_c, 2, 57, 0
5, 35472, Note_on_c, 2, 57, 100
5, 35519, Note_on_c, 2, 65, 0
5, 35519, Note_on_c, 2, 61, 0
5, 35519, Note_on_c, 2, 57, 0
5, 35520, Note_on_c, 2, 50, 100
5, 35568, Note_on_c, 2, 57, 100
5, 35616, Note_on_c, 2, 62, 100
5, 35663, Note_on_c, 2, 50, 0
5, 35664, Note_on_c, 2, 65, 100
5, 35711, Note_on_c, 2, 62, 0
5, 35712, Note_on_c, 2, 62, 100
5, 35759, Note_on_c, 2, 57, 0
5, 35760, Note_on_c, 2, 57, 100
5, 35807, Note_on_c, 2, 65, 0
5, 35807, Note_on_c, 2, 62, 0
5, 35807, Note_on_c, 2, 57, 0
5, 35808, Note_on_c, 2, 53, 100
5, 35856, Note_on_c, 2, 57, 100
5, 35904, Note_on_c, 2, 62, 100
5, 35951, Note_on_c, 2, 53, 0
5, 35952, Note_on_c, 2, 65, 100
5, 35999, Note_on_c, 2, 62, 0
5, 36000, Note_on_c, 2, 62, 100
5, 36047, Note_on_c, 2, 57, 0
5, 36048, Note_on_c, 2, 57, 100
5, 36095, Note_on_c, 2, 65, 0
5, 36095, Note_on_c, 2, 62, 0
5, 36095, Note_on_c, 2, 57, 0
5, 36096, Note_on_c, 2, 52, 100
5, 36144, Note_on_c, 2, 56, 100
5, 36192, Note_on_c, 2, 62, 100
5, 36239, Note_on_c, 2, 52, 0
5, 36240, Note_on_c, 2, 65, 100
5, 36287, Note_on_c, 2, 56, 0
5, 36287, Note_on_c, 2, 62, 0
5, 36287, Note_on_c, 2, 65, 0
5, 36288, Note_on_c, 2, 48, 100
5, 36335, Note_on_c, 2, 48, 0
5, 36336, Note_on_c, 2, 47, 100
5, 36383, Note_on_c, 2, 47, 0
5, 36384, Note_on_c, 2, 46, 100
5, 36432, Note_on_c, 2, 53, 100
5, 36480, Note_on_c, 2, 62, 100
5, 36527, Note_on_c, 2, 46, 0
5, 36528, Note_on_c, 2, 65, 100
5, 36575, Note_on_c, 2, 62, 0
5, 36576, Note_on_c, 2, 62, 100
5, 36623, Note_on_c, 2, 53, 0
5, 36624, Note_on_c, 2, 56, 100
5, 36671, Note_on_c, 2, 65, 0
5, 36671, Note_on_c, 2, 62, 0
5, 36671, Note_on_c, 2, 56, 0
5, 36672, Note_on_c, 2, 45, 100
5, 36720, Note_on_c, 2, 57, 100
5, 36768, Note_on_c, 2, 61, 100
5, 36815, Note_on_c, 2, 45, 0
5, 36816, Note_on_c, 2, 65, 100
5, 37103, Note_on_c, 2, 57, 0
5, 37103, Note_on_c, 2, 61, 0
5, 37103, Note_on_c, 2, 65, 0
5, 37488, Note_on_c, 2, 64, 100
5, 37488, Note_on_c, 2, 60, 100
5, 37519, Note_on_c, 2, 64, 0
5, 37519, Note_on_c, 2, 60, 0
5, 37536, Note_on_c, 2, 64, 100
5, 37536, Note_on_c, 2, 60, 100
5, 37567, Note_on_c, 2, 64, 0
5, 37567, Note_on_c, 2, 60, 0
5, 37584, Note_on_c, 2, 64, 100
5, 37584, Note_on_c, 2, 60, 100
5, 37615, Note_on_c, 2, 64, 0
5, 37615, Note_on_c, 2, 60, 0
5, 37632, Note_on_c, 2, 60, 100
5, 37632, Note_on_c, 2, 64, 100
5, 37695, Note_on_c, 2, 60, 0
5, 37695, Note_on_c, 2, 64, 0
5, 37728, Note_on_c, 2, 57, 100
5, 37728, Note_on_c, 2, 52, 100
5, 37759, Note_on_c, 2, 57, 0
5, 37759, Note_on_c, 2, 52, 0
5, 38376, Note_on_c, 2, 64, 100
5, 38376, Note_on_c, 2, 60, 100
5, 38376, Note_on_c, 2, 55, 100
5, 38399, Note_on_c, 2, 64, 0
5, 38399, Note_on_c, 2, 60, 0
5, 38399, Note_on_c, 2, 55, 0
5, 38424, Note_on_c, 2, 60, 100
5, 38495, Note_on_c, 2, 60, 0
5, 38496, Note_on_c, 2, 64, 100
5, 38496, Note_on_c, 2, 55, 100
5, 38496, Note_on_c, 2, 60, 100
5, 38543, Note_on_c, 2, 64, 0
5, 38543, Note_on_c, 2, 55, 0
5, 38543, Note_on_c, 2, 60, 0
5, 39552, Note_on_c, 2, 52, 100
5, 39552, Note_on_c, 2, 57, 100
5, 39743, Note_on_c, 2, 52, 0
5, 39743, Note_on_c, 2, 57, 0
5, 39744, Note_on_c, 2, 55, 100
5, 39744, Note_on_c, 2, 60, 100
5, 39935, Note_on_c, 2, 55, 0
5, 39935, Note_on_c, 2, 60, 0
5, 39936, Note_on_c, 2, 60, 100
5, 39936, Note_on_c, 2, 54, 100
5, 39936, Note_on_c, 2, 57, 100
5, 40127, Note_on_c, 2, 60, 0
5, 40127, Note_on_c, 2, 54, 0
5, 40127, Note_on_c, 2, 57, 0
5, 40128, Note_on_c, 2, 60, 100
5, 40128, Note_on_c, 2, 53, 100
5, 40128, Note_on_c, 2, 65, 100
5, 40319, Note_on_c, 2, 60, 0
5, 40319, Note_on_c, 2, 53, 0
5, 40319, Note_on_c, 2, 65, 0
5, 40608, Note_on_c, 2, 55, 100
5, 40608, Note_on_c, 2, 60, 100
5, 40655, Note_on_c, 2, 55, 0
5, 40655, Note_on_c, 2, 60, 0
5, 40656, Note_on_c, 2, 57, 100
5, 40656, Note_on_c, 2, 62, 100
5, 40679, Note_on_c, 2, 57, 0
5, 40679, Note_on_c, 2, 62, 0
5, 40680, Note_on_c, 2, 58, 100
5, 40680, Note_on_c, 2, 63, 100
5, 40703, Note_on_c, 2, 58, 0
5, 40703, Note_on_c, 2, 63, 0
5, 41424, Note_on_c, 2, 60, 100
5, 41424, Note_on_c, 2, 65, 100
5, 41520, Note_on_c, 2, 57, 100
5, 41567, Note_on_c, 2, 60, 0
5, 41567, Note_on_c, 2, 65, 0
5, 41567, Note_on_c, 2, 57, 0
5, 41568, Note_on_c, 2, 69, 100
5, 41568, Note_on_c, 2, 60, 100
5, 41568, Note_on_c, 2, 65, 100
5, 41615, Note_on_c, 2, 69, 0
5, 41616, Note_on_c, 2, 57, 100
5, 41663, Note_on_c, 2, 60, 0
5, 41663, Note_on_c, 2, 65, 0
5, 41663, Note_on_c, 2, 57, 0
5, 41664, Note_on_c, 2, 60, 100
5, 41759, Note_on_c, 2, 60, 0
5, 41760, Note_on_c, 2, 57, 100
5, 41760, Note_on_c, 2, 60, 100
5, 41807, Note_on_c, 2, 57, 0
5, 41807, Note_on_c, 2, 60, 0
5, 42480, Note_on_c, 2, 57, 100
5, 42480, Note_on_c, 2, 50, 100
5, 42480, Note_on_c, 2, 65, 100
5, 42480, Note_on_c, 2, 61, 100
5, 42527, Note_on_c, 2, 57, 0
5, 42527, Note_on_c, 2, 50, 0
5, 42527, Note_on_c, 2, 65, 0
5, 42527, Note_on_c, 2, 61, 0
5, 42528, Note_on_c, 2, 65, 100
5, 42528, Note_on_c, 2, 61, 100
5, 42528, Note_on_c, 2, 50, 100
5, 42528, Note_on_c, 2, 57, 100
5, 42575, Note_on_c, 2, 65, 0
5, 42575, Note_on_c, 2, 61, 0
5, 42575, Note_on_c, 2, 50, 0
5, 42575, Note_on_c, 2, 57, 0
5, 42576, Note_on_c, 2, 57, 100
5, 42576, Note_on_c, 2, 50, 100
5, 42623, Note_on_c, 2, 57, 0
5, 42624, Note_on_c, 2, 57, 100
5, 42624, Note_on_c, 2, 60, 100
5, 42719, Note_on_c, 2, 57, 0
5, 42720, Note_on_c, 2, 57, 100
5, 42767, Note_on_c, 2, 50, 0
5, 42767, Note_on_c, 2, 60, 0
5, 42767, Note_on_c, 2, 57, 0
5, 43008, Note_on_c, 2, 55, 100
5, 43031, Note_on_c, 2, 55, 0
5, 43032, Note_on_c, 2, 57, 100
5, 43079, Note_on_c, 2, 57, 0
5, 43080, Note_on_c, 2, 65, 100
5, 43080, Note_on_c, 2, 60, 100
5, 43104, Note_on_c, 2, 57, 100
5, 43127, Note_on_c, 2, 57, 0
5, 43128, Note_on_c, 2, 55, 100
5, 43151, Note_on_c, 2, 55, 0
5, 43152, Note_on_c, 2, 57, 100
5, 43199, Note_on_c, 2, 65, 0
5, 43199, Note_on_c, 2, 60, 0
5, 43199, Note_on_c, 2, 57, 0
5, 43200, Note_on_c, 2, 57, 100
5, 43200, Note_on_c, 2, 50, 100
5, 43247, Note_on_c, 2, 50, 0
5, 43248, Note_on_c, 2, 50, 100
5, 43295, Note_on_c, 2, 57, 0
5, 43295, Note_on_c, 2, 50, 0
5, 43296, Note_on_c, 2, 65, 100
5, 43296, Note_on_c, 2, 62, 100
5, 43296, Note_on_c, 2, 69, 100
5, 43343, Note_on_c, 2, 65, 0
5, 43343, Note_on_c, 2, 62, 0
5, 43343, Note_on_c, 2, 69, 0
5, 43584, Note_on_c, 2, 60, 100
5, 43584, Note_on_c, 2, 57, 100
5, 43775, Note_on_c, 2, 60, 0
5, 43775, Note_on_c, 2, 57, 0
5, 43776, Note_on_c, 2, 65, 100
5, 43776, Note_on_c, 2, 60, 100
5, 43967, Note_on_c, 2, 65, 0
5, 43967, Note_on_c, 2, 60, 0
5, 43968, Note_on_c, 2, 65, 100
5, 43968, Note_on_c, 2, 60, 100
5, 44015, Note_on_c, 2, 65, 0
5, 44015, Note_on_c, 2, 60, 0
5, 44016, Note_on_c, 2, 65, 100
5, 44016, Note_on_c, 2, 60, 100
5, 44063, Note_on_c, 2, 65, 0
5, 44063, Note_on_c, 2, 60, 0
5, 44064, Note_on_c, 2, 65, 100
5, 44064, Note_on_c, 2, 60, 100
5, 44159, Note_on_c, 2, 65, 0
5, 44159, Note_on_c, 2, 60, 0
5, 44160, Note_on_c, 2, 60, 100
5, 44160, Note_on_c, 2, 65, 100
5, 44167, Note_on_c, 2, 60, 0
5, 44167, Note_on_c, 2, 65, 0
5, 44168, Note_on_c, 2, 62, 100
5, 44168, Note_on_c, 2, 67, 100
5, 44255, Note_on_c, 2, 62, 0
5, 44255, Note_on_c, 2, 67, 0
5, 44256, Note_on_c, 2, 65, 100
5, 44256, Note_on_c, 2, 60, 100
5, 44303, Note_on_c, 2, 65, 0
5, 44351, Note_on_c, 2, 60, 0
5, 44352, Note_on_c, 2, 50, 100
5, 44352, Note_on_c, 2, 55, 100
5, 44415, Note_on_c, 2, 50, 0
5, 44415, Note_on_c, 2, 55, 0
5, 44416, Note_on_c, 2, 56, 100
5, 44416, Note_on_c, 2, 51, 100
5, 44479, Note_on_c, 2, 56, 0
5, 44479, Note_on_c, 2, 51, 0
5, 44480, Note_on_c, 2, 52, 100
5, 44480, Note_on_c, 2, 57, 100
5, 44543, Note_on_c, 2, 52, 0
5, 44543, Note_on_c, 2, 57, 0
5, 44640, Note_on_c, 2, 62, 100
5, 44640, Note_on_c, 2, 56, 100
5, 44640, Note_on_c, 2, 65, 100
5, 44687, Note_on_c, 2, 62, 0
5, 44687, Note_on_c, 2, 56, 0
5, 44687, Note_on_c, 2, 65, 0
5, 44688, Note_on_c, 2, 62, 100
5, 44688, Note_on_c, 2, 56, 100
5, 44688, Note_on_c, 2, 65, 100
5, 44735, Note_on_c, 2, 62, 0
5, 44735, Note_on_c, 2, 56, 0
5, 44735, Note_on_c, 2, 65, 0
5, 44736, Note_on_c, 2, 62, 100
5, 44736, Note_on_c, 2, 65, 100
5, 44736, Note_on_c, 2, 56, 100
5, 44783, Note_on_c, 2, 62, 0
5, 44783, Note_on_c, 2, 65, 0
5, 44783, Note_on_c, 2, 56, 0
5, 44784, Note_on_c, 2, 56, 100
5, 44784, Note_on_c, 2, 65, 100
5, 44784, Note_on_c, 2, 62, 100
5, 44879, Note_on_c, 2, 56, 0
5, 44879, Note_on_c, 2, 65, 0
5, 44879, Note_on_c, 2, 62, 0
5, 44880, Note_on_c, 2, 62, 100
5, 44880, Note_on_c, 2, 65, 100
5, 44880, Note_on_c, 2, 56, 100
5, 44927, Note_on_c, 2, 62, 0
5, 44927, Note_on_c, 2, 65, 0
5, 44927, Note_on_c, 2, 56, 0
5, 44928, Note_on_c, 2, 56, 100
5, 44928, Note_on_c, 2, 62, 100
5, 44928, Note_on_c, 2, 65, 100
5, 44975, Note_on_c, 2, 56, 0
5, 44975, Note_on_c, 2, 62, 0
5, 44975, Note_on_c, 2, 65, 0
5, 44976, Note_on_c, 2, 62, 100
5, 44976, Note_on_c, 2, 65, 100
5, 44976, Note_on_c, 2, 56, 100
5, 45023, Note_on_c, 2, 62, 0
5, 45023, Note_on_c, 2, 65, 0
5, 45023, Note_on_c, 2, 56, 0
5, 45408, Note_on_c, 2, 56, 100
5, 45408, Note_on_c, 2, 62, 100
5, 45408, Note_on_c, 2, 65, 100
5, 45455, Note_on_c, 2, 56, 0
5, 45455, Note_on_c, 2, 62, 0
5, 45455, Note_on_c, 2, 65, 0
5, 45456, Note_on_c, 2, 62, 100
5, 45456, Note_on_c, 2, 65, 100
5, 45456, Note_on_c, 2, 56, 100
5, 45503, Note_on_c, 2, 62, 0
5, 45503, Note_on_c, 2, 65, 0
5, 45503, Note_on_c, 2, 56, 0
5, 45504, Note_on_c, 2, 56, 100
5, 45504, Note_on_c, 2, 65, 100
5, 45504, Note_on_c, 2, 62, 100
5, 45551, Note_on_c, 2, 56, 0
5, 45551, Note_on_c, 2, 65, 0
5, 45551, Note_on_c, 2, 62, 0
5, 45552, Note_on_c, 2, 62, 100
5, 45552, Note_on_c, 2, 56, 100
5, 45552, Note_on_c, 2, 65, 100
5, 45647, Note_on_c, 2, 62, 0
5, 45647, Note_on_c, 2, 56, 0
5, 45647, Note_on_c, 2, 65, 0
5, 45648, Note_on_c, 2, 62, 100
5, 45648, Note_on_c, 2, 65, 100
5, 45648, Note_on_c, 2, 56, 100
5, 45695, Note_on_c, 2, 62, 0
5, 45695, Note_on_c, 2, 65, 0
5, 45695, Note_on_c, 2, 56, 0
5, 45696, Note_on_c, 2, 62, 100
5, 45696, Note_on_c, 2, 56, 100
5, 45696, Note_on_c, 2, 65, 100
5, 45743, Note_on_c, 2, 62, 0
5, 45743, Note_on_c, 2, 56, 0
5, 45743, Note_on_c, 2, 65, 0
5, 45744, Note_on_c, 2, 62, 100
5, 45744, Note_on_c, 2, 65, 100
5, 45744, Note_on_c, 2, 56, 100
5, 45791, Note_on_c, 2, 62, 0
5, 45791, Note_on_c, 2, 65, 0
5, 45791, Note_on_c, 2, 56, 0
5, 46176, Note_on_c, 2, 65, 100
5, 46176, Note_on_c, 2, 56, 100
5, 46176, Note_on_c, 2, 62, 100
5, 46223, Note_on_c, 2, 65, 0
5, 46223, Note_on_c, 2, 56, 0
5, 46223, Note_on_c, 2, 62, 0
5, 46224, Note_on_c, 2, 65, 100
5, 46224, Note_on_c, 2, 56, 100
5, 46224, Note_on_c, 2, 62, 100
5, 46271, Note_on_c, 2, 65, 0
5, 46271, Note_on_c, 2, 56, 0
5, 46271, Note_on_c, 2, 62, 0
5, 46272, Note_on_c, 2, 62, 100
5, 46272, Note_on_c, 2, 56, 100
5, 46272, Note_on_c, 2, 65, 100
5, 46319, Note_on_c, 2, 62, 0
5, 46319, Note_on_c, 2, 56, 0
5, 46319, Note_on_c, 2, 65, 0
5, 46320, Note_on_c, 2, 65, 100
5, 46320, Note_on_c, 2, 56, 100
5, 46320, Note_on_c, 2, 62, 100
5, 46415, Note_on_c, 2, 65, 0
5, 46415, Note_on_c, 2, 56, 0
5, 46415, Note_on_c, 2, 62, 0
5, 46416, Note_on_c, 2, 65, 100
5, 46416, Note_on_c, 2, 62, 100
5, 46416, Note_on_c, 2, 56, 100
5, 46463, Note_on_c, 2, 65, 0
5, 46463, Note_on_c, 2, 62, 0
5, 46463, Note_on_c, 2, 56, 0
5, 46464, Note_on_c, 2, 62, 100
5, 46464, Note_on_c, 2, 65, 100
5, 46464, Note_on_c, 2, 56, 100
5, 46511, Note_on_c, 2, 62, 0
5, 46511, Note_on_c, 2, 65, 0
5, 46511, Note_on_c, 2, 56, 0
5, 46848, Note_on_c, 2, 50, 100
5, 46896, Note_on_c, 2, 57, 100
5, 46944, Note_on_c, 2, 62, 100
5, 46991, Note_on_c, 2, 50, 0
5, 46992, Note_on_c, 2, 65, 100
5, 47039, Note_on_c, 2, 62, 0
5, 47040, Note_on_c, 2, 62, 100
5, 47087, Note_on_c, 2, 57, 0
5, 47088, Note_on_c, 2, 57, 100
5, 47135, Note_on_c, 2, 65, 0
5, 47135, Note_on_c, 2, 62, 0
5, 47135, Note_on_c, 2, 57, 0
5, 47136, Note_on_c, 2, 53, 100
5, 47184, Note_on_c, 2, 57, 100
5, 47232, Note_on_c, 2, 62, 100
5, 47279, Note_on_c, 2, 53, 0
5, 47280, Note_on_c, 2, 65, 100
5, 47327, Note_on_c, 2, 62, 0
5, 47328, Note_on_c, 2, 62, 100
5, 47375, Note_on_c, 2, 57, 0
5, 47376, Note_on_c, 2, 57, 100
5, 47423, Note_on_c, 2, 65, 0
5, 47423, Note_on_c, 2, 62, 0
5, 47423, Note_on_c, 2, 57, 0
5, 47424, Note_on_c, 2, 52, 100
5, 47472, Note_on_c, 2, 56, 100
5, 47520, Note_on_c, 2, 62, 100
5, 47567, Note_on_c, 2, 52, 0
5, 47568, Note_on_c, 2, 65, 100
5, 47615, Note_on_c, 2, 62, 0
5, 47616, Note_on_c, 2, 48, 100
5, 47663, Note_on_c, 2, 48, 0
5, 47664, Note_on_c, 2, 47, 100
5, 47711, Note_on_c, 2, 56, 0
5, 47711, Note_on_c, 2, 65, 0
5, 47711, Note_on_c, 2, 47, 0
5, 47712, Note_on_c, 2, 46, 100
5, 47760, Note_on_c, 2, 53, 100
5, 47808, Note_on_c, 2, 56, 100
5, 47855, Note_on_c, 2, 46, 0
5, 47856, Note_on_c, 2, 65, 100
5, 47903, Note_on_c, 2, 53, 0
5, 47904, Note_on_c, 2, 62, 100
5, 47951, Note_on_c, 2, 56, 0
5, 47952, Note_on_c, 2, 56, 100
5, 47999, Note_on_c, 2, 65, 0
5, 47999, Note_on_c, 2, 62, 0
5, 47999, Note_on_c, 2, 56, 0
5, 48000, Note_on_c, 2, 45, 100
5, 48048, Note_on_c, 2, 57, 100
5, 48096, Note_on_c, 2, 61, 100
5, 48143, Note_on_c, 2, 45, 0
5, 48144, Note_on_c, 2, 65, 100
5, 48191, Note_on_c, 2, 61, 0
5, 48192, Note_on_c, 2, 61, 100
5, 48239, Note_on_c, 2, 57, 0
5, 48240, Note_on_c, 2, 57, 100
5, 48287, Note_on_c, 2, 65, 0
5, 48287, Note_on_c, 2, 61, 0
5, 48287, Note_on_c, 2, 57, 0
5, 48288, Note_on_c, 2, 50, 100
5, 48336, Note_on_c, 2, 57, 100
5, 48384, Note_on_c, 2, 62, 100
5, 48431, Note_on_c, 2, 50, 0
5, 48432, Note_on_c, 2, 65, 100
5, 48479, Note_on_c, 2, 62, 0
5, 48480, Note_on_c, 2, 62, 100
5, 48527, Note_on_c, 2, 57, 0
5, 48528, Note_on_c, 2, 57, 100
5, 48575, Note_on_c, 2, 65, 0
5, 48575, Note_on_c, 2, 62, 0
5, 48575, Note_on_c, 2, 57, 0
5, 48576, Note_on_c, 2, 53, 100
5, 48624, Note_on_c, 2, 57, 100
5, 48672, Note_on_c, 2, 62, 100
5, 48719, Note_on_c, 2, 53, 0
5, 48720, Note_on_c, 2, 65, 100
5, 48767, Note_on_c, 2, 62, 0
5, 48768, Note_on_c, 2, 62, 100
5, 48815, Note_on_c, 2, 57, 0
5, 48816, Note_on_c, 2, 57, 100
5, 48863, Note_on_c, 2, 65, 0
5, 48863, Note_on_c, 2, 62, 0
5, 48863, Note_on_c, 2, 57, 0
5, 48864, Note_on_c, 2, 52, 100
5, 48912, Note_on_c, 2, 56, 100
5, 48960, Note_on_c, 2, 62, 100
5, 49007, Note_on_c, 2, 52, 0
5, 49008, Note_on_c, 2, 65, 100
5, 49055, Note_on_c, 2, 62, 0
5, 49056, Note_on_c, 2, 48, 100
5, 49103, Note_on_c, 2, 48, 0
5, 49104, Note_on_c, 2, 47, 100
5, 49151, Note_on_c, 2, 56, 0
5, 49151, Note_on_c, 2, 65, 0
5, 49151, Note_on_c, 2, 47, 0
5, 49152, Note_on_c, 2, 46, 100
5, 49200, Note_on_c, 2, 53, 100
5, 49248, Note_on_c, 2, 56, 100
5, 49295, Note_on_c, 2, 46, 0
5, 49296, Note_on_c, 2, 65, 100
5, 49343, Note_on_c, 2, 53, 0
5, 49344, Note_on_c, 2, 62, 100
5, 49391, Note_on_c, 2, 56, 0
5, 49392, Note_on_c, 2, 56, 100
5, 49439, Note_on_c, 2, 65, 0
5, 49439, Note_on_c, 2, 62, 0
5, 49439, Note_on_c, 2, 56, 0
5, 49440, Note_on_c, 2, 45, 100
5, 49488, Note_on_c, 2, 57, 100
5, 49536, Note_on_c, 2, 61, 100
5, 49583, Note_on_c, 2, 45, 0
5, 49584, Note_on_c, 2, 65, 100
5, 49631, Note_on_c, 2, 61, 0
5, 49632, Note_on_c, 2, 61, 100
5, 49679, Note_on_c, 2, 57, 0
5, 49680, Note_on_c, 2, 57, 100
5, 49727, Note_on_c, 2, 65, 0
5, 49727, Note_on_c, 2, 61, 0
5, 49727, Note_on_c, 2, 57, 0
5, 49728, Note_on_c, 2, 50, 100
5, 49776, Note_on_c, 2, 57, 100
5, 49824, Note_on_c, 2, 62, 100
5, 49871, Note_on_c, 2, 50, 0
5, 49872, Note_on_c, 2, 65, 100
5, 49919, Note_on_c, 2, 62, 0
5, 49920, Note_on_c, 2, 62, 100
5, 49967, Note_on_c, 2, 57, 0
5, 49968, Note_on_c, 2, 57, 100
5, 50015, Note_on_c, 2, 65, 0
5, 50015, Note_on_c, 2, 62, 0
5, 50015, Note_on_c, 2, 57, 0
5, 50016, Note_on_c, 2, 53, 100
5, 50064, Note_on_c, 2, 57, 100
5, 50112, Note_on_c, 2, 62, 100
5, 50159, Note_on_c, 2, 53, 0
5, 50160, Note_on_c, 2, 65, 100
5, 50207, Note_on_c, 2, 62, 0
5, 50208, Note_on_c, 2, 62, 100
5, 50255, Note_on_c, 2, 57, 0
5, 50256, Note_on_c, 2, 57, 100
5, 50303, Note_on_c, 2, 65, 0
5, 50303, Note_on_c, 2, 62, 0
5, 50303, Note_on_c, 2, 57, 0
5, 50304, Note_on_c, 2, 52, 100
5, 50352, Note_on_c, 2, 56, 100
5, 50400, Note_on_c, 2, 62, 100
5, 50447, Note_on_c, 2, 52, 0
5, 50448, Note_on_c, 2, 65, 100
5, 50495, Note_on_c, 2, 62, 0
5, 50496, Note_on_c, 2, 48, 100
5, 50543, Note_on_c, 2, 48, 0
5, 50544, Note_on_c, 2, 47, 100
5, 50591, Note_on_c, 2, 56, 0
5, 50591, Note_on_c, 2, 65, 0
5, 50591, Note_on_c, 2, 47, 0
5, 50592, Note_on_c, 2, 46, 100
5, 50640, Note_on_c, 2, 53, 100
5, 50688, Note_on_c, 2, 56, 100
5, 50735, Note_on_c, 2, 46, 0
5, 50736, Note_on_c, 2, 65, 100
5, 50783, Note_on_c, 2, 53, 0
5, 50784, Note_on_c, 2, 62, 100
5, 50831, Note_on_c, 2, 56, 0
5, 50832, Note_on_c, 2, 56, 100
5, 50879, Note_on_c, 2, 65, 0
5, 50879, Note_on_c, 2, 62, 0
5, 50879, Note_on_c, 2, 56, 0
5, 50880, Note_on_c, 2, 45, 100
5, 50928, Note_on_c, 2, 57, 100
5, 50976, Note_on_c, 2, 61, 100
5, 51023, Note_on_c, 2, 45, 0
5, 51024, Note_on_c, 2, 65, 100
5, 51071, Note_on_c, 2, 61, 0
5, 51072, Note_on_c, 2, 61, 100
5, 51119, Note_on_c, 2, 57, 0
5, 51120, Note_on_c, 2, 57, 100
5, 51167, Note_on_c, 2, 65, 0
5, 51167, Note_on_c, 2, 61, 0
5, 51167, Note_on_c, 2, 57, 0
5, 51168, Note_on_c, 2, 50, 100
5, 51216, Note_on_c, 2, 57, 100
5, 51264, Note_on_c, 2, 62, 100
5, 51311, Note_on_c, 2, 50, 0
5, 51312, Note_on_c, 2, 65, 100
5, 51359, Note_on_c, 2, 62, 0
5, 51360, Note_on_c, 2, 62, 100
5, 51407, Note_on_c, 2, 57, 0
5, 51408, Note_on_c, 2, 57, 100
5, 51455, Note_on_c, 2, 65, 0
5, 51455, Note_on_c, 2, 62, 0
5, 51455, Note_on_c, 2, 57, 0
5, 51456, Note_on_c, 2, 53, 100
5, 51504, Note_on_c, 2, 57, 100
5, 51552, Note_on_c, 2, 62, 100
5, 51599, Note_on_c, 2, 53, 0
5, 51600, Note_on_c, 2, 65, 100
5, 51647, Note_on_c, 2, 62, 0
5, 51648, Note_on_c, 2, 62, 100
5, 51695, Note_on_c, 2, 57, 0
5, 51696, Note_on_c, 2, 57, 100
5, 51743, Note_on_c, 2, 65, 0
5, 51743, Note_on_c, 2, 62, 0
5, 51743, Note_on_c, 2, 57, 0
5, 51744, Note_on_c, 2, 52, 100
5, 51792, Note_on_c, 2, 56, 100
5, 51840, Note_on_c, 2, 62, 100
5, 51887, Note_on_c, 2, 52, 0
5, 51888, Note_on_c, 2, 65, 100
5, 51935, Note_on_c, 2, 62, 0
5, 51936, Note_on_c, 2, 48, 100
5, 51983, Note_on_c, 2, 48, 0
5, 51984, Note_on_c, 2, 47, 100
5, 52031, Note_on_c, 2, 56, 0
5, 52031, Note_on_c, 2, 65, 0
5, 52031, Note_on_c, 2, 47, 0
5, 52032, Note_on_c, 2, 46, 100
5, 52080, Note_on_c, 2, 53, 100
5, 52128, Note_on_c, 2, 56, 100
5, 52175, Note_on_c, 2, 46, 0
5, 52176, Note_on_c, 2, 65, 100
5, 52223, Note_on_c, 2, 53, 0
5, 52224, Note_on_c, 2, 62, 100
5, 52271, Note_on_c, 2, 56, 0
5, 52272, Note_on_c, 2, 56, 100
5, 52319, Note_on_c, 2, 65, 0
5, 52319, Note_on_c, 2, 62, 0
5, 52319, Note_on_c, 2, 56, 0
5, 52320, Note_on_c, 2, 45, 100
5, 52368, Note_on_c, 2, 57, 100
5, 52416, Note_on_c, 2, 61, 100
5, 52463, Note_on_c, 2, 45, 0
5, 52464, Note_on_c, 2, 65, 100
5, 52511, Note_on_c, 2, 61, 0
5, 52512, Note_on_c, 2, 61, 100
5, 52559, Note_on_c, 2, 57, 0
5, 52560, Note_on_c, 2, 57, 100
5, 52607, Note_on_c, 2, 65, 0
5, 52607, Note_on_c, 2, 61, 0
5, 52607, Note_on_c, 2, 57, 0
5, 52608, Note_on_c, 2, 50, 100
5, 52656, Note_on_c, 2, 57, 100
5, 52704, Note_on_c, 2, 62, 100
5, 52751, Note_on_c, 2, 50, 0
5, 52752, Note_on_c, 2, 65, 100
5, 52799, Note_on_c, 2, 62, 0
5, 52800, Note_on_c, 2, 62, 100
5, 52847, Note_on_c, 2, 57, 0
5, 52848, Note_on_c, 2, 57, 100
5, 52895, Note_on_c, 2, 65, 0
5, 52895, Note_on_c, 2, 62, 0
5, 52895, Note_on_c, 2, 57, 0
5, 52896, Note_on_c, 2, 53, 100
5, 52944, Note_on_c, 2, 57, 100
5, 52992, Note_on_c, 2, 62, 100
5, 53039, Note_on_c, 2, 53, 0
5, 53040, Note_on_c, 2, 65, 100
5, 53087, Note_on_c, 2, 62, 0
5, 53088, Note_on_c, 2, 62, 100
5, 53135, Note_on_c, 2, 57, 0
5, 53136, Note_on_c, 2, 57, 100
5, 53183, Note_on_c, 2, 65, 0
5, 53183, Note_on_c, 2, 62, 0
5, 53183, Note_on_c, 2, 57, 0
5, 53184, Note_on_c, 2, 52, 100
5, 53232, Note_on_c, 2, 56, 100
5, 53280, Note_on_c, 2, 62, 100
5, 53327, Note_on_c, 2, 52, 0
5, 53328, Note_on_c, 2, 65, 100
5, 53375, Note_on_c, 2, 62, 0
5, 53376, Note_on_c, 2, 48, 100
5, 53423, Note_on_c, 2, 48, 0
5, 53424, Note_on_c, 2, 47, 100
5, 53471, Note_on_c, 2, 56, 0
5, 53471, Note_on_c, 2, 65, 0
5, 53471, Note_on_c, 2, 47, 0
5, 53472, Note_on_c, 2, 46, 100
5, 53520, Note_on_c, 2, 53, 100
5, 53568, Note_on_c, 2, 56, 100
5, 53615, Note_on_c, 2, 46, 0
5, 53616, Note_on_c, 2, 65, 100
5, 53663, Note_on_c, 2, 53, 0
5, 53664, Note_on_c, 2, 62, 100
5, 53711, Note_on_c, 2, 56, 0
5, 53712, Note_on_c, 2, 56, 100
5, 53759, Note_on_c, 2, 65, 0
5, 53759, Note_on_c, 2, 62, 0
5, 53759, Note_on_c, 2, 56, 0
5, 53760, Note_on_c, 2, 45, 100
5, 53808, Note_on_c, 2, 57, 100
5, 53856, Note_on_c, 2, 61, 100
5, 53903, Note_on_c, 2, 45, 0
5, 53904, Note_on_c, 2, 65, 100
5, 53951, Note_on_c, 2, 61, 0
5, 53952, Note_on_c, 2, 61, 100
5, 53999, Note_on_c, 2, 57, 0
5, 54000, Note_on_c, 2, 57, 100
5, 54047, Note_on_c, 2, 65, 0
5, 54047, Note_on_c, 2, 61, 0
5, 54047, Note_on_c, 2, 57, 0
5, 54048, Note_on_c, 2, 50, 100
5, 54096, Note_on_c, 2, 57, 100
5, 54144, Note_on_c, 2, 62, 100
5, 54191, Note_on_c, 2, 50, 0
5, 54192, Note_on_c, 2, 65, 100
5, 54239, Note_on_c, 2, 62, 0
5, 54240, Note_on_c, 2, 62, 100
5, 54287, Note_on_c, 2, 57, 0
5, 54288, Note_on_c, 2, 57, 100
5, 54335, Note_on_c, 2, 65, 0
5, 54335, Note_on_c, 2, 62, 0
5, 54335, Note_on_c, 2, 57, 0
5, 54336, Note_on_c, 2, 53, 100
5, 54384, Note_on_c, 2, 57, 100
5, 54432, Note_on_c, 2, 62, 100
5, 54479, Note_on_c, 2, 53, 0
5, 54480, Note_on_c, 2, 65, 100
5, 54527, Note_on_c, 2, 62, 0
5, 54528, Note_on_c, 2, 62, 100
5, 54575, Note_on_c, 2, 57, 0
5, 54576, Note_on_c, 2, 57, 100
5, 54623, Note_on_c, 2, 65, 0
5, 54623, Note_on_c, 2, 62, 0
5, 54623, Note_on_c, 2, 57, 0
5, 54624, Note_on_c, 2, 52, 100
5, 54672, Note_on_c, 2, 56, 100
5, 54720, Note_on_c, 2, 62, 100
5, 54767, Note_on_c, 2, 52, 0
5, 54768, Note_on_c, 2, 65, 100
5, 54815, Note_on_c, 2, 62, 0
5, 54816, Note_on_c, 2, 48, 100
5, 54863, Note_on_c, 2, 48, 0
5, 54864, Note_on_c, 2, 47, 100
5, 54911, Note_on_c, 2, 56, 0
5, 54911, Note_on_c, 2, 65, 0
5, 54911, Note_on_c, 2, 47, 0
5, 54912, Note_on_c, 2, 46, 100
5, 54960, Note_on_c, 2, 53, 100
5, 55008, Note_on_c, 2, 56, 100
5, 55055, Note_on_c, 2, 46, 0
5, 55056, Note_on_c, 2, 65, 100
5, 55103, Note_on_c, 2, 53, 0
5, 55104, Note_on_c, 2, 62, 100
5, 55151, Note_on_c, 2, 56, 0
5, 55152, Note_on_c, 2, 56, 100
5, 55199, Note_on_c, 2, 65, 0
5, 55199, Note_on_c, 2, 62, 0
5, 55199, Note_on_c, 2, 56, 0
5, 55200, Note_on_c, 2, 45, 100
5, 55248, Note_on_c, 2, 57, 100
5, 55296, Note_on_c, 2, 61, 100
5, 55343, Note_on_c, 2, 45, 0
5, 55344, Note_on_c, 2, 65, 100
5, 55391, Note_on_c, 2, 61, 0
5, 55392, Note_on_c, 2, 61, 100
5, 55439, Note_on_c, 2, 57, 0
5, 55440, Note_on_c, 2, 57, 100
5, 55487, Note_on_c, 2, 65, 0
5, 55487, Note_on_c, 2, 61, 0
5, 55487, Note_on_c, 2, 57, 0
5, 55488, Note_on_c, 2, 50, 100
5, 55536, Note_on_c, 2, 57, 100
5, 55584, Note_on_c, 2, 62, 100
5, 55631, Note_on_c, 2, 50, 0
5, 55632, Note_on_c, 2, 65, 100
5, 55679, Note_on_c, 2, 62, 0
5, 55680, Note_on_c, 2, 62, 100
5, 55727, Note_on_c, 2, 57, 0
5, 55728, Note_on_c, 2, 57, 100
5, 55775, Note_on_c, 2, 65, 0
5, 55775, Note_on_c, 2, 62, 0
5, 55775, Note_on_c, 2, 57, 0
5, 55776, Note_on_c, 2, 53, 100
5, 55824, Note_on_c, 2, 57, 100
5, 55872, Note_on_c, 2, 62, 100
5, 55919, Note_on_c, 2, 53, 0
5, 55920, Note_on_c, 2, 65, 100
5, 55967, Note_on_c, 2, 62, 0
5, 55968, Note_on_c, 2, 62, 100
5, 56015, Note_on_c, 2, 57, 0
5, 56016, Note_on_c, 2, 57, 100
5, 56063, Note_on_c, 2, 65, 0
5, 56063, Note_on_c, 2, 62, 0
5, 56063, Note_on_c, 2, 57, 0
5, 56064, Note_on_c, 2, 52, 100
5, 56112, Note_on_c, 2, 56, 100
5, 56160, Note_on_c, 2, 62, 100
5, 56207, Note_on_c, 2, 52, 0
5, 56208, Note_on_c, 2, 65, 100
5, 56255, Note_on_c, 2, 62, 0
5, 56256, Note_on_c, 2, 48, 100
5, 56303, Note_on_c, 2, 48, 0
5, 56304, Note_on_c, 2, 47, 100
5, 56351, Note_on_c, 2, 56, 0
5, 56351, Note_on_c, 2, 65, 0
5, 56351, Note_on_c, 2, 47, 0
5, 56352, Note_on_c, 2, 46, 100
5, 56400, Note_on_c, 2, 53, 100
5, 56448, Note_on_c, 2, 56, 100
5, 56495, Note_on_c, 2, 46, 0
5, 56496, Note_on_c, 2, 65, 100
5, 56543, Note_on_c, 2, 53, 0
5, 56544, Note_on_c, 2, 62, 100
5, 56591, Note_on_c, 2, 56, 0
5, 56592, Note_on_c, 2, 56, 100
5, 56639, Note_on_c, 2, 65, 0
5, 56639, Note_on_c, 2, 62, 0
5, 56639, Note_on_c, 2, 56, 0
5, 56640, Note_on_c, 2, 45, 100
5, 56688, Note_on_c, 2, 57, 100
5, 56736, Note_on_c, 2, 61, 100
5, 56783, Note_on_c, 2, 45, 0
5, 56784, Note_on_c, 2, 65, 100
5, 56831, Note_on_c, 2, 61, 0
5, 56832, Note_on_c, 2, 61, 100
5, 56879, Note_on_c, 2, 57, 0
5, 56880, Note_on_c, 2, 57, 100
5, 56927, Note_on_c, 2, 65, 0
5, 56927, Note_on_c, 2, 61, 0
5, 56927, Note_on_c, 2, 57, 0
5, 56928, Note_on_c, 2, 50, 100
5, 56976, Note_on_c, 2, 57, 100
5, 57024, Note_on_c, 2, 62, 100
5, 57071, Note_on_c, 2, 50, 0
5, 57072, Note_on_c, 2, 65, 100
5, 57119, Note_on_c, 2, 62, 0
5, 57120, Note_on_c, 2, 62, 100
5, 57167, Note_on_c, 2, 57, 0
5, 57168, Note_on_c, 2, 57, 100
5, 57215, Note_on_c, 2, 65, 0
5, 57215, Note_on_c, 2, 62, 0
5, 57215, Note_on_c, 2, 57, 0
5, 57216, Note_on_c, 2, 53, 100
5, 57264, Note_on_c, 2, 57, 100
5, 57312, Note_on_c, 2, 62, 100
5, 57359, Note_on_c, 2, 53, 0
5, 57360, Note_on_c, 2, 65, 100
5, 57407, Note_on_c, 2, 62, 0
5, 57408, Note_on_c, 2, 62, 100
5, 57455, Note_on_c, 2, 57, 0
5, 57456, Note_on_c, 2, 57, 100
5, 57503, Note_on_c, 2, 65, 0
5, 57503, Note_on_c, 2, 62, 0
5, 57503, Note_on_c, 2, 57, 0
5, 57504, Note_on_c, 2, 52, 100
5, 57552, Note_on_c, 2, 56, 100
5, 57600, Note_on_c, 2, 62, 100
5, 57647, Note_on_c, 2, 52, 0
5, 57648, Note_on_c, 2, 65, 100
5, 57695, Note_on_c, 2, 62, 0
5, 57696, Note_on_c, 2, 48, 100
5, 57743, Note_on_c, 2, 48, 0
5, 57744, Note_on_c, 2, 47, 100
5, 57791, Note_on_c, 2, 56, 0
5, 57791, Note_on_c, 2, 65, 0
5, 57791, Note_on_c, 2, 47, 0
5, 57792, Note_on_c, 2, 46, 100
5, 57840, Note_on_c, 2, 53, 100
5, 57888, Note_on_c, 2, 56, 100
5, 57935, Note_on_c, 2, 46, 0
5, 57936, Note_on_c, 2, 65, 100
5, 57983, Note_on_c, 2, 53, 0
5, 57984, Note_on_c, 2, 62, 100
5, 58031, Note_on_c, 2, 56, 0
5, 58032, Note_on_c, 2, 56, 100
5, 58079, Note_on_c, 2, 65, 0
5, 58079, Note_on_c, 2, 62, 0
5, 58079, Note_on_c, 2, 56, 0
5, 58080, Note_on_c, 2, 45, 100
5, 58128, Note_on_c, 2, 57, 100
5, 58176, Note_on_c, 2, 61, 100
5, 58223, Note_on_c, 2, 45, 0
5, 58224, Note_on_c, 2, 65, 100
5, 58271, Note_on_c, 2, 61, 0
5, 58272, Note_on_c, 2, 61, 100
5, 58319, Note_on_c, 2, 57, 0
5, 58320, Note_on_c, 2, 57, 100
5, 58367, Note_on_c, 2, 65, 0
5, 58367, Note_on_c, 2, 61, 0
5, 58367, Note_on_c, 2, 57, 0
5, 58368, Note_on_c, 2, 50, 100
5, 58416, Note_on_c, 2, 57, 100
5, 58464, Note_on_c, 2, 62, 100
5, 58511, Note_on_c, 2, 50, 0
5, 58512, Note_on_c, 2, 65, 100
5, 58559, Note_on_c, 2, 62, 0
5, 58560, Note_on_c, 2, 62, 100
5, 58607, Note_on_c, 2, 57, 0
5, 58608, Note_on_c, 2, 57, 100
5, 58655, Note_on_c, 2, 65, 0
5, 58655, Note_on_c, 2, 62, 0
5, 58655, Note_on_c, 2, 57, 0
5, 58656, Note_on_c, 2, 53, 100
5, 58704, Note_on_c, 2, 57, 100
5, 58752, Note_on_c, 2, 62, 100
5, 58799, Note_on_c, 2, 53, 0
5, 58800, Note_on_c, 2, 65, 100
5, 58847, Note_on_c, 2, 62, 0
5, 58848, Note_on_c, 2, 62, 100
5, 58895, Note_on_c, 2, 57, 0
5, 58896, Note_on_c, 2, 57, 100
5, 58943, Note_on_c, 2, 65, 0
5, 58943, Note_on_c, 2, 62, 0
5, 58943, Note_on_c, 2, 57, 0
5, 58944, Note_on_c, 2, 52, 100
5, 58992, Note_on_c, 2, 56, 100
5, 59040, Note_on_c, 2, 62, 100
5, 59087, Note_on_c, 2, 52, 0
5, 59088, Note_on_c, 2, 65, 100
5, 59135, Note_on_c, 2, 62, 0
5, 59136, Note_on_c, 2, 48, 100
5, 59183, Note_on_c, 2, 48, 0
5, 59184, Note_on_c, 2, 47, 100
5, 59231, Note_on_c, 2, 56, 0
5, 59231, Note_on_c, 2, 65, 0
5, 59231, Note_on_c, 2, 47, 0
5, 59232, Note_on_c, 2, 46, 100
5, 59280, Note_on_c, 2, 53, 100
5, 59328, Note_on_c, 2, 56, 100
5, 59375, Note_on_c, 2, 46, 0
5, 59376, Note_on_c, 2, 65, 100
5, 59423, Note_on_c, 2, 53, 0
5, 59424, Note_on_c, 2, 62, 100
5, 59471, Note_on_c, 2, 56, 0
5, 59472, Note_on_c, 2, 56, 100
5, 59519, Note_on_c, 2, 65, 0
5, 59519, Note_on_c, 2, 62, 0
5, 59519, Note_on_c, 2, 56, 0
5, 59520, Note_on_c, 2, 45, 100
5, 59568, Note_on_c, 2, 57, 100
5, 59616, Note_on_c, 2, 61, 100
5, 59663, Note_on_c, 2, 45, 0
5, 59664, Note_on_c, 2, 65, 100
5, 59711, Note_on_c, 2, 61, 0
5, 59712, Note_on_c, 2, 61, 100
5, 59759, Note_on_c, 2, 57, 0
5, 59760, Note_on_c, 2, 57, 100
5, 59807, Note_on_c, 2, 65, 0
5, 59807, Note_on_c, 2, 61, 0
5, 59807, Note_on_c, 2, 57, 0
5, 59808, Note_on_c, 2, 50, 100
5, 59856, Note_on_c, 2, 57, 100
5, 59904, Note_on_c, 2, 62, 100
5, 59951, Note_on_c, 2, 50, 0
5, 59952, Note_on_c, 2, 65, 100
5, 59999, Note_on_c, 2, 62, 0
5, 60000, Note_on_c, 2, 62, 100
5, 60047, Note_on_c, 2, 57, 0
5, 60048, Note_on_c, 2, 57, 100
5, 60095, Note_on_c, 2, 65, 0
5, 60095, Note_on_c, 2, 62, 0
5, 60095, Note_on_c, 2, 57, 0
5, 60096, Note_on_c, 2, 53, 100
5, 60144, Note_on_c, 2, 57, 100
5, 60192, Note_on_c, 2, 62, 100
5, 60239, Note_on_c, 2, 53, 0
5, 60240, Note_on_c, 2, 65, 100
5, 60287, Note_on_c, 2, 62, 0
5, 60288, Note_on_c, 2, 62, 100
5, 60335, Note_on_c, 2, 57, 0
5, 60336, Note_on_c, 2, 57, 100
5, 60383, Note_on_c, 2, 65, 0
5, 60383, Note_on_c, 2, 62, 0
5, 60383, Note_on_c, 2, 57, 0
5, 60384, Note_on_c, 2, 52, 100
5, 60432, Note_on_c, 2, 56, 100
5, 60480, Note_on_c, 2, 62, 100
5, 60527, Note_on_c, 2, 52, 0
5, 60528, Note_on_c, 2, 65, 100
5, 60575, Note_on_c, 2, 62, 0
5, 60576, Note_on_c, 2, 48, 100
5, 60623, Note_on_c, 2, 48, 0
5, 60624, Note_on_c, 2, 47, 100
5, 60671, Note_on_c, 2, 56, 0
5, 60671, Note_on_c, 2, 65, 0
5, 60671, Note_on_c, 2, 47, 0
5, 60672, Note_on_c, 2, 46, 100
5, 60720, Note_on_c, 2, 53, 100
5, 60768, Note_on_c, 2, 56, 100
5, 60815, Note_on_c, 2, 46, 0
5, 60816, Note_on_c, 2, 65, 100
5, 60863, Note_on_c, 2, 53, 0
5, 60864, Note_on_c, 2, 62, 100
5, 60911, Note_on_c, 2, 56, 0
5, 60912, Note_on_c, 2, 56, 100
5, 60959, Note_on_c, 2, 65, 0
5, 60959, Note_on_c, 2, 62, 0
5, 60959, Note_on_c, 2, 56, 0
5, 60960, Note_on_c, 2, 45, 100
5, 61008, Note_on_c, 2, 57, 100
5, 61056, Note_on_c, 2, 61, 100
5, 61103, Note_on_c, 2, 45, 0
5, 61104, Note_on_c, 2, 65, 100
5, 61151, Note_on_c, 2, 61, 0
5, 61152, Note_on_c, 2, 61, 100
5, 61199, Note_on_c, 2, 57, 0
5, 61200, Note_on_c, 2, 57, 100
5, 61247, Note_on_c, 2, 65, 0
5, 61247, Note_on_c, 2, 61, 0
5, 61247, Note_on_c, 2, 57, 0
5, 61248, Note_on_c, 2, 50, 100
5, 61296, Note_on_c, 2, 57, 100
5, 61344, Note_on_c, 2, 62, 100
5, 61391, Note_on_c, 2, 50, 0
5, 61392, Note_on_c, 2, 65, 100
5, 61439, Note_on_c, 2, 62, 0
5, 61440, Note_on_c, 2, 62, 100
5, 61487, Note_on_c, 2, 57, 0
5, 61488, Note_on_c, 2, 57, 100
5, 61535, Note_on_c, 2, 65, 0
5, 61535, Note_on_c, 2, 62, 0
5, 61535, Note_on_c, 2, 57, 0
5, 61536, Note_on_c, 2, 53, 100
5, 61584, Note_on_c, 2, 57, 100
5, 61632, Note_on_c, 2, 62, 100
5, 61679, Note_on_c, 2, 53, 0
5, 61680, Note_on_c, 2, 65, 100
5, 61727, Note_on_c, 2, 62, 0
5, 61728, Note_on_c, 2, 62, 100
5, 61775, Note_on_c, 2, 57, 0
5, 61776, Note_on_c, 2, 57, 100
5, 61823, Note_on_c, 2, 65, 0
5, 61823, Note_on_c, 2, 62, 0
5, 61823, Note_on_c, 2, 57, 0
5, 61824, Note_on_c, 2, 52, 100
5, 61872, Note_on_c, 2, 56, 100
5, 61920, Note_on_c, 2, 62, 100
5, 61967, Note_on_c, 2, 52, 0
5, 61968, Note_on_c, 2, 65, 100
5, 62015, Note_on_c, 2, 62, 0
5, 62016, Note_on_c, 2, 48, 100
5, 62063, Note_on_c, 2, 48, 0
5, 62064, Note_on_c, 2, 47, 100
5, 62111, Note_on_c, 2, 56, 0
5, 62111, Note_on_c, 2, 65, 0
5, 62111, Note_on_c, 2, 47, 0
5, 62112, Note_on_c, 2, 46, 100
5, 62160, Note_on_c, 2, 53, 100
5, 62208, Note_on_c, 2, 56, 100
5, 62255, Note_on_c, 2, 46, 0
5, 62256, Note_on_c, 2, 65, 100
5, 62303, Note_on_c, 2, 53, 0
5, 62304, Note_on_c, 2, 62, 100
5, 62351, Note_on_c, 2, 56, 0
5, 62352, Note_on_c, 2, 56, 100
5, 62399, Note_on_c, 2, 65, 0
5, 62399, Note_on_c, 2, 62, 0
5, 62399, Note_on_c, 2, 56, 0
5, 62400, Note_on_c, 2, 45, 100
5, 62448, Note_on_c, 2, 57, 100
5, 62496, Note_on_c, 2, 61, 100
5, 62543, Note_on_c, 2, 45, 0
5, 62544, Note_on_c, 2, 65, 100
5, 62591, Note_on_c, 2, 61, 0
5, 62592, Note_on_c, 2, 61, 100
5, 62639, Note_on_c, 2, 57, 0
5, 62640, Note_on_c, 2, 57, 100
5, 62687, Note_on_c, 2, 65, 0
5, 62687, Note_on_c, 2, 61, 0
5, 62687, Note_on_c, 2, 57, 0
5, 62688, Note_on_c, 2, 50, 100
5, 62736, Note_on_c, 2, 57, 100
5, 62784, Note_on_c, 2, 62, 100
5, 62831, Note_on_c, 2, 50, 0
5, 62832, Note_on_c, 2, 65, 100
5, 62879, Note_on_c, 2, 62, 0
5, 62880, Note_on_c, 2, 62, 100
5, 62927, Note_on_c, 2, 57, 0
5, 62928, Note_on_c, 2, 57, 100
5, 62975, Note_on_c, 2, 65, 0
5, 62975, Note_on_c, 2, 62, 0
5, 62975, Note_on_c, 2, 57, 0
5, 62976, Note_on_c, 2, 53, 100
5, 63024, Note_on_c, 2, 57, 100
5, 63072, Note_on_c, 2, 62, 100
5, 63119, Note_on_c, 2, 53, 0
5, 63120, Note_on_c, 2, 65, 100
5, 63167, Note_on_c, 2, 62, 0
5, 63168, Note_on_c, 2, 62, 100
5, 63215, Note_on_c, 2, 57, 0
5, 63216, Note_on_c, 2, 57, 100
5, 63263, Note_on_c, 2, 65, 0
5, 63263, Note_on_c, 2, 62, 0
5, 63263, Note_on_c, 2, 57, 0
5, 63264, Note_on_c, 2, 52, 100
5, 63312, Note_on_c, 2, 56, 100
5, 63360, Note_on_c, 2, 62, 100
5, 63407, Note_on_c, 2, 52, 0
5, 63408, Note_on_c, 2, 65, 100
5, 63455, Note_on_c, 2, 62, 0
5, 63456, Note_on_c, 2, 48, 100
5, 63503, Note_on_c, 2, 48, 0
5, 63504, Note_on_c, 2, 47, 100
5, 63551, Note_on_c, 2, 56, 0
5, 63551, Note_on_c, 2, 65, 0
5, 63551, Note_on_c, 2, 47, 0
5, 63552, Note_on_c, 2, 46, 100
5, 63600, Note_on_c, 2, 53, 100
5, 63648, Note_on_c, 2, 56, 100
5, 63695, Note_on_c, 2, 46, 0
5, 63696, Note_on_c, 2, 65, 100
5, 63743, Note_on_c, 2, 53, 0
5, 63744, Note_on_c, 2, 62, 100
5, 63791, Note_on_c, 2, 56, 0
5, 63792, Note_on_c, 2, 56, 100
5, 63839, Note_on_c, 2, 65, 0
5, 63839, Note_on_c, 2, 62, 0
5, 63839, Note_on_c, 2, 56, 0
5, 63840, Note_on_c, 2, 45, 100
5, 63888, Note_on_c, 2, 57, 100
5, 63936, Note_on_c, 2, 61, 100
5, 63983, Note_on_c, 2, 45, 0
5, 63984, Note_on_c, 2, 65, 100
5, 64031, Note_on_c, 2, 61, 0
5, 64032, Note_on_c, 2, 61, 100
5, 64079, Note_on_c, 2, 57, 0
5, 64080, Note_on_c, 2, 57, 100
5, 64127, Note_on_c, 2, 65, 0
5, 64127, Note_on_c, 2, 61, 0
5, 64127, Note_on_c, 2, 57, 0
5, 64128, Note_on_c, 2, 50, 100
5, 64176, Note_on_c, 2, 57, 100
5, 64224, Note_on_c, 2, 62, 100
5, 64271, Note_on_c, 2, 50, 0
5, 64272, Note_on_c, 2, 65, 100
5, 64319, Note_on_c, 2, 62, 0
5, 64320, Note_on_c, 2, 62, 100
5, 64367, Note_on_c, 2, 57, 0
5, 64368, Note_on_c, 2, 57, 100
5, 64415, Note_on_c, 2, 65, 0
5, 64415, Note_on_c, 2, 62, 0
5, 64415, Note_on_c, 2, 57, 0
5, 64416, Note_on_c, 2, 53, 100
5, 64464, Note_on_c, 2, 57, 100
5, 64512, Note_on_c, 2, 62, 100
5, 64559, Note_on_c, 2, 53, 0
5, 64560, Note_on_c, 2, 65, 100
5, 64607, Note_on_c, 2, 62, 0
5, 64608, Note_on_c, 2, 62, 100
5, 64655, Note_on_c, 2, 57, 0
5, 64656, Note_on_c, 2, 57, 100
5, 64703, Note_on_c, 2, 65, 0
5, 64703, Note_on_c, 2, 62, 0
5, 64703, Note_on_c, 2, 57, 0
5, 64704, Note_on_c, 2, 52, 100
5, 64752, Note_on_c, 2, 56, 100
5, 64800, Note_on_c, 2, 62, 100
5, 64847, Note_on_c, 2, 52, 0
5, 64848, Note_on_c, 2, 65, 100
5, 64895, Note_on_c, 2, 62, 0
5, 64896, Note_on_c, 2, 48, 100
5, 64943, Note_on_c, 2, 48, 0
5, 64944, Note_on_c, 2, 47, 100
5, 64991, Note_on_c, 2, 56, 0
5, 64991, Note_on_c, 2, 65, 0
5, 64991, Note_on_c, 2, 47, 0
5, 64992, Note_on_c, 2, 46, 100
5, 65040, Note_on_c, 2, 53, 100
5, 65088, Note_on_c, 2, 56, 100
5, 65135, Note_on_c, 2, 46, 0
5, 65136, Note_on_c, 2, 65, 100
5, 65183, Note_on_c, 2, 53, 0
5, 65184, Note_on_c, 2, 62, 100
5, 65231, Note_on_c, 2, 56, 0
5, 65232, Note_on_c, 2, 56, 100
5, 65279, Note_on_c, 2, 65, 0
5, 65279, Note_on_c, 2, 62, 0
5, 65279, Note_on_c, 2, 56, 0
5, 65280, Note_on_c, 2, 45, 100
5, 65328, Note_on_c, 2, 57, 100
5, 65376, Note_on_c, 2, 61, 100
5, 65423, Note_on_c, 2, 45, 0
5, 65424, Note_on_c, 2, 65, 100
5, 65471, Note_on_c, 2, 61, 0
5, 65472, Note_on_c, 2, 61, 100
5, 65519, Note_on_c, 2, 57, 0
5, 65520, Note_on_c, 2, 57, 100
5, 65567, Note_on_c, 2, 65, 0
5, 65567, Note_on_c, 2, 61, 0
5, 65567, Note_on_c, 2, 57, 0
5, 65568, Note_on_c, 2, 50, 100
5, 65616, Note_on_c, 2, 57, 100
5, 65664, Note_on_c, 2, 62, 100
5, 65711, Note_on_c, 2, 50, 0
5, 65712, Note_on_c, 2, 65, 100
5, 65759, Note_on_c, 2, 62, 0
5, 65760, Note_on_c, 2, 62, 100
5, 65807, Note_on_c, 2, 57, 0
5, 65808, Note_on_c, 2, 57, 100
5, 65855, Note_on_c, 2, 65, 0
5, 65855, Note_on_c, 2, 62, 0
5, 65855, Note_on_c, 2, 57, 0
5, 65856, Note_on_c, 2, 53, 100
5, 65904, Note_on_c, 2, 57, 100
5, 65952, Note_on_c, 2, 62, 100
5, 65999, Note_on_c, 2, 53, 0
5, 66000, Note_on_c, 2, 65, 100
5, 66047, Note_on_c, 2, 62, 0
5, 66048, Note_on_c, 2, 62, 100
5, 66095, Note_on_c, 2, 57, 0
5, 66096, Note_on_c, 2, 57, 100
5, 66143, Note_on_c, 2, 65, 0
5, 66143, Note_on_c, 2, 62, 0
5, 66143, Note_on_c, 2, 57, 0
5, 66144, Note_on_c, 2, 52, 100
5, 66192, Note_on_c, 2, 56, 100
5, 66240, Note_on_c, 2, 62, 100
5, 66287, Note_on_c, 2, 52, 0
5, 66288, Note_on_c, 2, 65, 100
5, 66335, Note_on_c, 2, 62, 0
5, 66336, Note_on_c, 2, 48, 100
5, 66383, Note_on_c, 2, 48, 0
5, 66384, Note_on_c, 2, 47, 100
5, 66431, Note_on_c, 2, 56, 0
5, 66431, Note_on_c, 2, 65, 0
5, 66431, Note_on_c, 2, 47, 0
5, 66432, Note_on_c, 2, 46, 100
5, 66480, Note_on_c, 2, 53, 100
5, 66528, Note_on_c, 2, 56, 100
5, 66575, Note_on_c, 2, 46, 0
5, 66576, Note_on_c, 2, 65, 100
5, 66623, Note_on_c, 2, 53, 0
5, 66624, Note_on_c, 2, 62, 100
5, 66671, Note_on_c, 2, 56, 0
5, 66672, Note_on_c, 2, 56, 100
5, 66719, Note_on_c, 2, 65, 0
5, 66719, Note_on_c, 2, 62, 0
5, 66719, Note_on_c, 2, 56, 0
5, 66720, Note_on_c, 2, 45, 100
5, 66768, Note_on_c, 2, 57, 100
5, 66816, Note_on_c, 2, 61, 100
5, 66863, Note_on_c, 2, 45, 0
5, 66864, Note_on_c, 2, 65, 100
5, 66911, Note_on_c, 2, 61, 0
5, 66912, Note_on_c, 2, 61, 100
5, 66959, Note_on_c, 2, 57, 0
5, 66960, Note_on_c, 2, 57, 100
5, 67007, Note_on_c, 2, 65, 0
5, 67007, Note_on_c, 2, 61, 0
5, 67007, Note_on_c, 2, 57, 0
5, 67008, Note_on_c, 2, 50, 100
5, 67056, Note_on_c, 2, 57, 100
5, 67104, Note_on_c, 2, 62, 100
5, 67151, Note_on_c, 2, 50, 0
5, 67152, Note_on_c, 2, 65, 100
5, 67199, Note_on_c, 2, 62, 0
5, 67200, Note_on_c, 2, 62, 100
5, 67247, Note_on_c, 2, 57, 0
5, 67248, Note_on_c, 2, 57, 100
5, 67295, Note_on_c, 2, 65, 0
5, 67295, Note_on_c, 2, 62, 0
5, 67295, Note_on_c, 2, 57, 0
5, 67296, Note_on_c, 2, 53, 100
5, 67344, Note_on_c, 2, 57, 100
5, 67392, Note_on_c, 2, 62, 100
5, 67439, Note_on_c, 2, 53, 0
5, 67440, Note_on_c, 2, 65, 100
5, 67487, Note_on_c, 2, 62, 0
5, 67488, Note_on_c, 2, 62, 100
5, 67535, Note_on_c, 2, 57, 0
5, 67536, Note_on_c, 2, 57, 100
5, 67583, Note_on_c, 2, 65, 0
5, 67583, Note_on_c, 2, 62, 0
5, 67583, Note_on_c, 2, 57, 0
5, 67584, Note_on_c, 2, 52, 100
5, 67632, Note_on_c, 2, 56, 100
5, 67680, Note_on_c, 2, 62, 100
5, 67727, Note_on_c, 2, 52, 0
5, 67728, Note_on_c, 2, 65, 100
5, 67775, Note_on_c, 2, 62, 0
5, 67776, Note_on_c, 2, 48, 100
5, 67823, Note_on_c, 2, 48, 0
5, 67824, Note_on_c, 2, 47, 100
5, 67871, Note_on_c, 2, 56, 0
5, 67871, Note_on_c, 2, 65, 0
5, 67871, Note_on_c, 2, 47, 0
5, 67872, Note_on_c, 2, 46, 100
5, 67920, Note_on_c, 2, 53, 100
5, 67968, Note_on_c, 2, 56, 100
5, 68015, Note_on_c, 2, 46, 0
5, 68016, Note_on_c, 2, 65, 100
5, 68063, Note_on_c, 2, 53, 0
5, 68064, Note_on_c, 2, 62, 100
5, 68111, Note_on_c, 2, 56, 0
5, 68112, Note_on_c, 2, 56, 100
5, 68159, Note_on_c, 2, 65, 0
5, 68159, Note_on_c, 2, 62, 0
5, 68159, Note_on_c, 2, 56, 0
5, 68160, Note_on_c, 2, 45, 100
5, 68207, Note_on_c, 2, 45, 0
5, 68207, End_track
6, 0, Start_track
6, 0, Title_t, "Lead Gtr - Overdrive"
6, 0, MIDI_port, 0
6, 96, Control_c, 3, 121, 0
6, 97, Control_c, 3, 7, 110
6, 98, Control_c, 3, 10, 10
6, 99, Control_c, 3, 91, 64
6, 100, Control_c, 3, 93, 85
6, 101, Control_c, 3, 32, 0
6, 101, Control_c, 3, 0, 0
6, 101, Program_c, 3, 29
6, 102, Text_t, "VIBR DEPTH"
6, 103, Control_c, 3, 99, 1
6, 104, Control_c, 3, 98, 9
6, 105, Control_c, 3, 6, 80
6, 106, Text_t, "VIBR SPEED"
6, 107, Control_c, 3, 99, 1
6, 108, Control_c, 3, 98, 8
6, 109, Control_c, 3, 6, 50
6, 110, Text_t, "VIBR DELAY"
6, 111, Control_c, 3, 99, 1
6, 112, Control_c, 3, 98, 10
6, 113, Control_c, 3, 6, 80
6, 648, Note_on_c, 3, 62, 100
6, 671, Note_on_c, 3, 62, 0
6, 672, Note_on_c, 3, 65, 100
6, 791, Note_on_c, 3, 65, 0
6, 792, Note_on_c, 3, 62, 100
6, 797, Note_on_c, 3, 62, 0
6, 798, Note_on_c, 3, 64, 100
6, 803, Note_on_c, 3, 64, 0
6, 804, Note_on_c, 3, 65, 100
6, 809, Note_on_c, 3, 65, 0
6, 810, Note_on_c, 3, 67, 100
6, 815, Note_on_c, 3, 67, 0
6, 816, Note_on_c, 3, 69, 100
6, 864, Note_on_c, 3, 72, 100
6, 875, Note_on_c, 3, 72, 0
6, 876, Note_on_c, 3, 74, 100
6, 911, Note_on_c, 3, 74, 0
6, 912, Note_on_c, 3, 72, 100
6, 959, Note_on_c, 3, 69, 0
6, 959, Note_on_c, 3, 72, 0
6, 960, Note_on_c, 3, 71, 100
6, 1103, Note_on_c, 3, 71, 0
6, 1152, Note_on_c, 3, 74, 100
6, 1200, Note_on_c, 3, 71, 100
6, 1247, Note_on_c, 3, 74, 0
6, 1247, Note_on_c, 3, 71, 0
6, 1248, Note_on_c, 3, 81, 100
6, 1255, Note_on_c, 3, 81, 0
6, 1256, Note_on_c, 3, 82, 100
6, 1295, Note_on_c, 3, 82, 0
6, 1392, Note_on_c, 3, 82, 100
6, 1439, Note_on_c, 3, 82, 0
6, 1440, Note_on_c, 3, 81, 100
6, 1487, Note_on_c, 3, 81, 0
6, 1488, Note_on_c, 3, 77, 100
6, 1535, Note_on_c, 3, 77, 0
6, 1536, Note_on_c, 3, 69, 100
6, 1584, Note_on_c, 3, 77, 100
6, 1631, Note_on_c, 3, 69, 0
6, 1631, Note_on_c, 3, 77, 0
6, 1632, Note_on_c, 3, 77, 100
6, 1679, Note_on_c, 3, 77, 0
6, 1680, Note_on_c, 3, 79, 100
6, 1691, Note_on_c, 3, 79, 0
6, 1692, Note_on_c, 3, 81, 100
6, 1967, Note_on_c, 3, 81, 0
6, 2016, Note_on_c, 3, 57, 100
6, 2039, Note_on_c, 3, 57, 0
6, 2040, Note_on_c, 3, 60, 100
6, 2111, Note_on_c, 3, 60, 0
6, 2112, Note_on_c, 3, 62, 100
6, 2119, Note_on_c, 3, 62, 0
6, 2120, Note_on_c, 3, 64, 100
6, 2303, Note_on_c, 3, 64, 0
6, 2304, Note_on_c, 3, 62, 100
6, 2327, Note_on_c, 3, 62, 0
6, 2328, Note_on_c, 3, 60, 100
6, 2351, Note_on_c, 3, 60, 0
6, 2352, Note_on_c, 3, 57, 100
6, 2375, Note_on_c, 3, 57, 0
6, 2640, Note_on_c, 3, 57, 100
6, 2687, Note_on_c, 3, 57, 0
6, 2688, Note_on_c, 3, 60, 100
6, 2735, Note_on_c, 3, 60, 0
6, 2736, Note_on_c, 3, 62, 100
6, 2783, Note_on_c, 3, 62, 0
6, 2784, Note_on_c, 3, 62, 100
6, 2791, Note_on_c, 3, 62, 0
6, 2792, Note_on_c, 3, 63, 100
6, 2879, Note_on_c, 3, 63, 0
6, 2880, Note_on_c, 3, 63, 100
6, 2903, Note_on_c, 3, 63, 0
6, 2904, Note_on_c, 3, 62, 100
6, 2927, Note_on_c, 3, 62, 0
6, 2928, Note_on_c, 3, 60, 100
6, 2975, Note_on_c, 3, 60, 0
6, 2976, Note_on_c, 3, 57, 100
6, 3071, Note_on_c, 3, 57, 0
6, 3072, Note_on_c, 3, 60, 100
6, 3167, Note_on_c, 3, 60, 0
6, 3168, Note_on_c, 3, 62, 100
6, 3215, Note_on_c, 3, 62, 0
6, 3216, Note_on_c, 3, 60, 100
6, 3263, Note_on_c, 3, 60, 0
6, 3504, Note_on_c, 3, 57, 100
6, 3551, Note_on_c, 3, 57, 0
6, 3552, Note_on_c, 3, 60, 100
6, 3647, Note_on_c, 3, 60, 0
6, 3648, Note_on_c, 3, 62, 100
6, 3697, Pitch_bend_c, 3, 9361
6, 3700, Pitch_bend_c, 3, 10922
6, 3704, Pitch_bend_c, 3, 11117
6, 3707, Pitch_bend_c, 3, 11214
6, 3710, Pitch_bend_c, 3, 11897
6, 3714, Pitch_bend_c, 3, 11994
6, 3717, Pitch_bend_c, 3, 12092
6, 3720, Pitch_bend_c, 3, 12092
6, 3724, Pitch_bend_c, 3, 12287
6, 3744, Pitch_bend_c, 3, 8874
6, 3747, Pitch_bend_c, 3, 8971
6, 3750, Pitch_bend_c, 3, 8874
6, 3753, Pitch_bend_c, 3, 8679
6, 3757, Pitch_bend_c, 3, 8484
6, 3760, Pitch_bend_c, 3, 8289
6, 3763, Pitch_bend_c, 3, 8289
6, 3767, Pitch_bend_c, 3, 8192
6, 3770, Pitch_bend_c, 3, 8192
6, 3790, Pitch_bend_c, 3, 11019
6, 3793, Pitch_bend_c, 3, 11117
6, 3796, Pitch_bend_c, 3, 11214
6, 3800, Pitch_bend_c, 3, 11312
6, 3803, Pitch_bend_c, 3, 11409
6, 3806, Pitch_bend_c, 3, 11604
6, 3810, Pitch_bend_c, 3, 11799
6, 3813, Pitch_bend_c, 3, 11897
6, 3816, Pitch_bend_c, 3, 11994
6, 3820, Pitch_bend_c, 3, 11994
6, 3823, Pitch_bend_c, 3, 11994
6, 3826, Pitch_bend_c, 3, 12092
6, 3830, Pitch_bend_c, 3, 12189
6, 3843, Pitch_bend_c, 3, 8971
6, 3846, Pitch_bend_c, 3, 8581
6, 3849, Pitch_bend_c, 3, 8484
6, 3853, Pitch_bend_c, 3, 8386
6, 3856, Pitch_bend_c, 3, 8289
6, 3859, Pitch_bend_c, 3, 8192
6, 3863, Pitch_bend_c, 3, 8192
6, 3892, Pitch_bend_c, 3, 12384
6, 3896, Pitch_bend_c, 3, 11409
6, 3899, Pitch_bend_c, 3, 11507
6, 3902, Pitch_bend_c, 3, 11604
6, 3906, Pitch_bend_c, 3, 11702
6, 3909, Pitch_bend_c, 3, 11799
6, 3912, Pitch_bend_c, 3, 11799
6, 3916, Pitch_bend_c, 3, 11897
6, 3919, Pitch_bend_c, 3, 11994
6, 3922, Pitch_bend_c, 3, 12092
6, 3926, Pitch_bend_c, 3, 12092
6, 3929, Pitch_bend_c, 3, 12092
6, 3932, Pitch_bend_c, 3, 12092
6, 3936, Pitch_bend_c, 3, 11994
6, 3942, Pitch_bend_c, 3, 8192
6, 3945, Pitch_bend_c, 3, 8874
6, 3949, Pitch_bend_c, 3, 8874
6, 3952, Pitch_bend_c, 3, 8581
6, 3955, Pitch_bend_c, 3, 8581
6, 3959, Note_on_c, 3, 62, 0
6, 3959, Pitch_bend_c, 3, 8386
6, 3960, Note_on_c, 3, 60, 100
6, 3962, Pitch_bend_c, 3, 8289
6, 3965, Pitch_bend_c, 3, 8192
6, 3983, Note_on_c, 3, 60, 0
6, 3984, Note_on_c, 3, 57, 100
6, 4007, Note_on_c, 3, 57, 0
6, 4176, Note_on_c, 3, 57, 100
6, 4223, Note_on_c, 3, 57, 0
6, 4224, Note_on_c, 3, 60, 100
6, 4271, Note_on_c, 3, 60, 0
6, 4272, Note_on_c, 3, 62, 100
6, 4319, Note_on_c, 3, 62, 0
6, 4320, Note_on_c, 3, 62, 100
6, 4327, Note_on_c, 3, 62, 0
6, 4328, Note_on_c, 3, 64, 100
6, 4415, Note_on_c, 3, 64, 0
6, 4416, Note_on_c, 3, 63, 100
6, 4439, Note_on_c, 3, 63, 0
6, 4440, Note_on_c, 3, 62, 100
6, 4463, Note_on_c, 3, 62, 0
6, 4464, Note_on_c, 3, 60, 100
6, 4511, Note_on_c, 3, 60, 0
6, 4512, Note_on_c, 3, 57, 100
6, 4607, Note_on_c, 3, 57, 0
6, 4608, Note_on_c, 3, 60, 100
6, 4703, Note_on_c, 3, 60, 0
6, 4704, Note_on_c, 3, 57, 100
6, 4799, Note_on_c, 3, 57, 0
6, 4800, Note_on_c, 3, 55, 100
6, 4847, Note_on_c, 3, 55, 0
6, 4848, Note_on_c, 3, 52, 100
6, 4895, Note_on_c, 3, 52, 0
6, 4896, Note_on_c, 3, 55, 100
6, 4991, Note_on_c, 3, 55, 0
6, 4992, Note_on_c, 3, 55, 100
6, 4999, Note_on_c, 3, 55, 0
6, 5000, Note_on_c, 3, 57, 100
6, 5087, Note_on_c, 3, 57, 0
6, 5088, Note_on_c, 3, 55, 100
6, 5183, Note_on_c, 3, 55, 0
6, 5184, Note_on_c, 3, 51, 100
6, 5231, Note_on_c, 3, 51, 0
6, 5232, Note_on_c, 3, 50, 100
6, 5279, Note_on_c, 3, 50, 0
6, 5280, Note_on_c, 3, 48, 100
6, 5375, Note_on_c, 3, 48, 0
6, 5376, Note_on_c, 3, 45, 100
6, 5471, Note_on_c, 3, 45, 0
6, 6000, Note_on_c, 3, 62, 100
6, 6047, Note_on_c, 3, 62, 0
6, 6048, Note_on_c, 3, 65, 100
6, 6143, Note_on_c, 3, 65, 0
6, 6144, Note_on_c, 3, 67, 100
6, 6151, Note_on_c, 3, 67, 0
6, 6152, Note_on_c, 3, 69, 100
6, 6215, Note_on_c, 3, 69, 0
6, 6216, Note_on_c, 3, 65, 100
6, 6239, Note_on_c, 3, 65, 0
6, 6672, Note_on_c, 3, 62, 100
6, 6719, Note_on_c, 3, 62, 0
6, 6720, Note_on_c, 3, 65, 100
6, 6767, Note_on_c, 3, 65, 0
6, 6768, Note_on_c, 3, 67, 100
6, 6815, Note_on_c, 3, 67, 0
6, 6816, Note_on_c, 3, 67, 100
6, 6823, Note_on_c, 3, 67, 0
6, 6824, Note_on_c, 3, 68, 100
6, 6911, Note_on_c, 3, 68, 0
6, 6912, Note_on_c, 3, 68, 100
6, 6935, Note_on_c, 3, 68, 0
6, 6936, Note_on_c, 3, 67, 100
6, 6959, Note_on_c, 3, 67, 0
6, 6960, Note_on_c, 3, 65, 100
6, 7007, Note_on_c, 3, 65, 0
6, 7008, Note_on_c, 3, 62, 100
6, 7103, Note_on_c, 3, 62, 0
6, 7104, Note_on_c, 3, 65, 100
6, 7199, Note_on_c, 3, 65, 0
6, 7200, Note_on_c, 3, 68, 100
6, 7223, Note_on_c, 3, 68, 0
6, 7224, Note_on_c, 3, 67, 100
6, 7247, Note_on_c, 3, 67, 0
6, 7248, Note_on_c, 3, 65, 100
6, 7271, Note_on_c, 3, 65, 0
6, 7272, Note_on_c, 3, 62, 100
6, 7295, Note_on_c, 3, 62, 0
6, 7536, Note_on_c, 3, 62, 100
6, 7583, Note_on_c, 3, 62, 0
6, 7584, Note_on_c, 3, 65, 100
6, 7679, Note_on_c, 3, 65, 0
6, 7680, Note_on_c, 3, 67, 100
6, 7680, Note_on_c, 3, 71, 100
6, 7729, Pitch_bend_c, 3, 9361
6, 7732, Pitch_bend_c, 3, 10922
6, 7736, Pitch_bend_c, 3, 11117
6, 7739, Pitch_bend_c, 3, 11214
6, 7742, Pitch_bend_c, 3, 11897
6, 7746, Pitch_bend_c, 3, 11994
6, 7749, Pitch_bend_c, 3, 12092
6, 7752, Pitch_bend_c, 3, 12092
6, 7756, Pitch_bend_c, 3, 12287
6, 7776, Pitch_bend_c, 3, 8874
6, 7779, Pitch_bend_c, 3, 8971
6, 7782, Pitch_bend_c, 3, 8874
6, 7785, Pitch_bend_c, 3, 8679
6, 7789, Pitch_bend_c, 3, 8484
6, 7792, Pitch_bend_c, 3, 8289
6, 7795, Pitch_bend_c, 3, 8289
6, 7799, Pitch_bend_c, 3, 8192
6, 7802, Pitch_bend_c, 3, 8192
6, 7822, Pitch_bend_c, 3, 11019
6, 7825, Pitch_bend_c, 3, 11117
6, 7828, Pitch_bend_c, 3, 11214
6, 7832, Pitch_bend_c, 3, 11312
6, 7835, Pitch_bend_c, 3, 11409
6, 7838, Pitch_bend_c, 3, 11604
6, 7842, Pitch_bend_c, 3, 11799
6, 7845, Pitch_bend_c, 3, 11897
6, 7848, Pitch_bend_c, 3, 11994
6, 7852, Pitch_bend_c, 3, 11994
6, 7855, Pitch_bend_c, 3, 11994
6, 7858, Pitch_bend_c, 3, 12092
6, 7862, Pitch_bend_c, 3, 12189
6, 7875, Pitch_bend_c, 3, 8971
6, 7878, Pitch_bend_c, 3, 8581
6, 7881, Pitch_bend_c, 3, 8484
6, 7885, Pitch_bend_c, 3, 8386
6, 7888, Pitch_bend_c, 3, 8289
6, 7891, Pitch_bend_c, 3, 8192
6, 7895, Pitch_bend_c, 3, 8192
6, 7924, Pitch_bend_c, 3, 12384
6, 7928, Pitch_bend_c, 3, 11409
6, 7931, Pitch_bend_c, 3, 11507
6, 7934, Pitch_bend_c, 3, 11604
6, 7938, Pitch_bend_c, 3, 11702
6, 7941, Pitch_bend_c, 3, 11799
6, 7944, Pitch_bend_c, 3, 11799
6, 7948, Pitch_bend_c, 3, 11897
6, 7951, Pitch_bend_c, 3, 11994
6, 7954, Pitch_bend_c, 3, 12092
6, 7958, Pitch_bend_c, 3, 12092
6, 7961, Pitch_bend_c, 3, 12092
6, 7964, Pitch_bend_c, 3, 12092
6, 7968, Pitch_bend_c, 3, 11994
6, 7974, Pitch_bend_c, 3, 8192
6, 7977, Pitch_bend_c, 3, 8874
6, 7981, Pitch_bend_c, 3, 8874
6, 7984, Pitch_bend_c, 3, 8581
6, 7987, Pitch_bend_c, 3, 8581
6, 7991, Pitch_bend_c, 3, 8386
6, 7994, Pitch_bend_c, 3, 8289
6, 7997, Pitch_bend_c, 3, 8192
6, 8063, Note_on_c, 3, 67, 0
6, 8063, Note_on_c, 3, 71, 0
6, 8208, Note_on_c, 3, 62, 100
6, 8255, Note_on_c, 3, 62, 0
6, 8256, Note_on_c, 3, 65, 100
6, 8303, Note_on_c, 3, 65, 0
6, 8304, Note_on_c, 3, 67, 100
6, 8351, Note_on_c, 3, 67, 0
6, 8352, Note_on_c, 3, 67, 100
6, 8359, Note_on_c, 3, 67, 0
6, 8360, Note_on_c, 3, 68, 100
6, 8447, Note_on_c, 3, 68, 0
6, 8448, Note_on_c, 3, 69, 100
6, 8471, Note_on_c, 3, 69, 0
6, 8472, Note_on_c, 3, 67, 100
6, 8495, Note_on_c, 3, 67, 0
6, 8496, Note_on_c, 3, 65, 100
6, 8543, Note_on_c, 3, 65, 0
6, 8544, Note_on_c, 3, 62, 100
6, 8639, Note_on_c, 3, 62, 0
6, 8640, Note_on_c, 3, 65, 100
6, 8735, Note_on_c, 3, 65, 0
6, 8736, Note_on_c, 3, 62, 100
6, 8831, Note_on_c, 3, 62, 0
6, 8832, Note_on_c, 3, 65, 100
6, 8832, Note_on_c, 3, 60, 100
6, 8879, Note_on_c, 3, 65, 0
6, 8879, Note_on_c, 3, 60, 0
6, 8880, Note_on_c, 3, 57, 100
6, 8927, Note_on_c, 3, 57, 0
6, 8928, Note_on_c, 3, 60, 100
6, 9023, Note_on_c, 3, 60, 0
6, 9024, Note_on_c, 3, 65, 100
6, 9024, Note_on_c, 3, 60, 100
6, 9035, Note_on_c, 3, 60, 0
6, 9036, Note_on_c, 3, 62, 100
6, 9119, Note_on_c, 3, 65, 0
6, 9119, Note_on_c, 3, 62, 0
6, 9120, Note_on_c, 3, 60, 100
6, 9215, Note_on_c, 3, 60, 0
6, 9216, Note_on_c, 3, 55, 100
6, 9279, Note_on_c, 3, 55, 0
6, 9280, Note_on_c, 3, 56, 100
6, 9343, Note_on_c, 3, 56, 0
6, 9344, Note_on_c, 3, 57, 100
6, 9407, Note_on_c, 3, 57, 0
6, 11568, Note_on_c, 3, 57, 100
6, 11615, Note_on_c, 3, 57, 0
6, 11616, Note_on_c, 3, 60, 100
6, 11711, Note_on_c, 3, 60, 0
6, 11712, Note_on_c, 3, 62, 100
6, 11719, Note_on_c, 3, 62, 0
6, 11720, Note_on_c, 3, 64, 100
6, 11903, Note_on_c, 3, 64, 0
6, 11904, Note_on_c, 3, 62, 100
6, 11927, Note_on_c, 3, 62, 0
6, 11928, Note_on_c, 3, 60, 100
6, 11951, Note_on_c, 3, 60, 0
6, 11952, Note_on_c, 3, 57, 100
6, 11975, Note_on_c, 3, 57, 0
6, 12240, Note_on_c, 3, 57, 100
6, 12287, Note_on_c, 3, 57, 0
6, 12288, Note_on_c, 3, 60, 100
6, 12335, Note_on_c, 3, 60, 0
6, 12336, Note_on_c, 3, 62, 100
6, 12383, Note_on_c, 3, 62, 0
6, 12384, Note_on_c, 3, 62, 100
6, 12391, Note_on_c, 3, 62, 0
6, 12392, Note_on_c, 3, 63, 100
6, 12479, Note_on_c, 3, 63, 0
6, 12480, Note_on_c, 3, 63, 100
6, 12503, Note_on_c, 3, 63, 0
6, 12504, Note_on_c, 3, 62, 100
6, 12527, Note_on_c, 3, 62, 0
6, 12528, Note_on_c, 3, 60, 100
6, 12575, Note_on_c, 3, 60, 0
6, 12576, Note_on_c, 3, 57, 100
6, 12671, Note_on_c, 3, 57, 0
6, 12672, Note_on_c, 3, 60, 100
6, 12767, Note_on_c, 3, 60, 0
6, 12768, Note_on_c, 3, 62, 100
6, 12815, Note_on_c, 3, 62, 0
6, 12816, Note_on_c, 3, 60, 100
6, 12863, Note_on_c, 3, 60, 0
6, 13104, Note_on_c, 3, 57, 100
6, 13151, Note_on_c, 3, 57, 0
6, 13152, Note_on_c, 3, 60, 100
6, 13247, Note_on_c, 3, 60, 0
6, 13248, Note_on_c, 3, 62, 100
6, 13297, Pitch_bend_c, 3, 9361
6, 13300, Pitch_bend_c, 3, 10922
6, 13304, Pitch_bend_c, 3, 11117
6, 13307, Pitch_bend_c, 3, 11214
6, 13310, Pitch_bend_c, 3, 11897
6, 13314, Pitch_bend_c, 3, 11994
6, 13317, Pitch_bend_c, 3, 12092
6, 13320, Pitch_bend_c, 3, 12092
6, 13324, Pitch_bend_c, 3, 12287
6, 13344, Pitch_bend_c, 3, 8874
6, 13347, Pitch_bend_c, 3, 8971
6, 13350, Pitch_bend_c, 3, 8874
6, 13353, Pitch_bend_c, 3, 8679
6, 13357, Pitch_bend_c, 3, 8484
6, 13360, Pitch_bend_c, 3, 8289
6, 13363, Pitch_bend_c, 3, 8289
6, 13367, Pitch_bend_c, 3, 8192
6, 13370, Pitch_bend_c, 3, 8192
6, 13390, Pitch_bend_c, 3, 11019
6, 13393, Pitch_bend_c, 3, 11117
6, 13396, Pitch_bend_c, 3, 11214
6, 13400, Pitch_bend_c, 3, 11312
6, 13403, Pitch_bend_c, 3, 11409
6, 13406, Pitch_bend_c, 3, 11604
6, 13410, Pitch_bend_c, 3, 11799
6, 13413, Pitch_bend_c, 3, 11897
6, 13416, Pitch_bend_c, 3, 11994
6, 13420, Pitch_bend_c, 3, 11994
6, 13423, Pitch_bend_c, 3, 11994
6, 13426, Pitch_bend_c, 3, 12092
6, 13430, Pitch_bend_c, 3, 12189
6, 13443, Pitch_bend_c, 3, 8971
6, 13446, Pitch_bend_c, 3, 8581
6, 13449, Pitch_bend_c, 3, 8484
6, 13453, Pitch_bend_c, 3, 8386
6, 13456, Pitch_bend_c, 3, 8289
6, 13459, Pitch_bend_c, 3, 8192
6, 13463, Pitch_bend_c, 3, 8192
6, 13492, Pitch_bend_c, 3, 12384
6, 13496, Pitch_bend_c, 3, 11409
6, 13499, Pitch_bend_c, 3, 11507
6, 13502, Pitch_bend_c, 3, 11604
6, 13506, Pitch_bend_c, 3, 11702
6, 13509, Pitch_bend_c, 3, 11799
6, 13512, Pitch_bend_c, 3, 11799
6, 13516, Pitch_bend_c, 3, 11897
6, 13519, Pitch_bend_c, 3, 11994
6, 13522, Pitch_bend_c, 3, 12092
6, 13526, Pitch_bend_c, 3, 12092
6, 13529, Pitch_bend_c, 3, 12092
6, 13532, Pitch_bend_c, 3, 12092
6, 13536, Pitch_bend_c, 3, 11994
6, 13542, Pitch_bend_c, 3, 8192
6, 13545, Pitch_bend_c, 3, 8874
6, 13549, Pitch_bend_c, 3, 8874
6, 13552, Pitch_bend_c, 3, 8581
6, 13555, Pitch_bend_c, 3, 8581
6, 13559, Note_on_c, 3, 62, 0
6, 13559, Pitch_bend_c, 3, 8386
6, 13560, Note_on_c, 3, 60, 100
6, 13562, Pitch_bend_c, 3, 8289
6, 13565, Pitch_bend_c, 3, 8192
6, 13583, Note_on_c, 3, 60, 0
6, 13584, Note_on_c, 3, 57, 100
6, 13607, Note_on_c, 3, 57, 0
6, 13776, Note_on_c, 3, 57, 100
6, 13823, Note_on_c, 3, 57, 0
6, 13824, Note_on_c, 3, 60, 100
6, 13871, Note_on_c, 3, 60, 0
6, 13872, Note_on_c, 3, 62, 100
6, 13919, Note_on_c, 3, 62, 0
6, 13920, Note_on_c, 3, 62, 100
6, 13927, Note_on_c, 3, 62, 0
6, 13928, Note_on_c, 3, 64, 100
6, 14015, Note_on_c, 3, 64, 0
6, 14016, Note_on_c, 3, 63, 100
6, 14039, Note_on_c, 3, 63, 0
6, 14040, Note_on_c, 3, 62, 100
6, 14063, Note_on_c, 3, 62, 0
6, 14064, Note_on_c, 3, 60, 100
6, 14111, Note_on_c, 3, 60, 0
6, 14112, Note_on_c, 3, 57, 100
6, 14207, Note_on_c, 3, 57, 0
6, 14208, Note_on_c, 3, 60, 100
6, 14303, Note_on_c, 3, 60, 0
6, 14304, Note_on_c, 3, 57, 100
6, 14399, Note_on_c, 3, 57, 0
6, 14400, Note_on_c, 3, 55, 100
6, 14447, Note_on_c, 3, 55, 0
6, 14448, Note_on_c, 3, 52, 100
6, 14495, Note_on_c, 3, 52, 0
6, 14496, Note_on_c, 3, 55, 100
6, 14591, Note_on_c, 3, 55, 0
6, 14592, Note_on_c, 3, 55, 100
6, 14599, Note_on_c, 3, 55, 0
6, 14600, Note_on_c, 3, 57, 100
6, 14687, Note_on_c, 3, 57, 0
6, 14688, Note_on_c, 3, 55, 100
6, 14783, Note_on_c, 3, 55, 0
6, 14784, Note_on_c, 3, 51, 100
6, 14831, Note_on_c, 3, 51, 0
6, 14832, Note_on_c, 3, 50, 100
6, 14879, Note_on_c, 3, 50, 0
6, 14880, Note_on_c, 3, 48, 100
6, 14975, Note_on_c, 3, 48, 0
6, 14976, Note_on_c, 3, 45, 100
6, 15071, Note_on_c, 3, 45, 0
6, 15600, Note_on_c, 3, 62, 100
6, 15647, Note_on_c, 3, 62, 0
6, 15648, Note_on_c, 3, 65, 100
6, 15743, Note_on_c, 3, 65, 0
6, 15744, Note_on_c, 3, 67, 100
6, 15751, Note_on_c, 3, 67, 0
6, 15752, Note_on_c, 3, 69, 100
6, 15815, Note_on_c, 3, 69, 0
6, 15816, Note_on_c, 3, 65, 100
6, 15839, Note_on_c, 3, 65, 0
6, 16272, Note_on_c, 3, 62, 100
6, 16319, Note_on_c, 3, 62, 0
6, 16320, Note_on_c, 3, 65, 100
6, 16367, Note_on_c, 3, 65, 0
6, 16368, Note_on_c, 3, 67, 100
6, 16415, Note_on_c, 3, 67, 0
6, 16416, Note_on_c, 3, 67, 100
6, 16423, Note_on_c, 3, 67, 0
6, 16424, Note_on_c, 3, 68, 100
6, 16511, Note_on_c, 3, 68, 0
6, 16512, Note_on_c, 3, 68, 100
6, 16535, Note_on_c, 3, 68, 0
6, 16536, Note_on_c, 3, 67, 100
6, 16559, Note_on_c, 3, 67, 0
6, 16560, Note_on_c, 3, 65, 100
6, 16607, Note_on_c, 3, 65, 0
6, 16608, Note_on_c, 3, 62, 100
6, 16703, Note_on_c, 3, 62, 0
6, 16704, Note_on_c, 3, 65, 100
6, 16799, Note_on_c, 3, 65, 0
6, 16800, Note_on_c, 3, 68, 100
6, 16823, Note_on_c, 3, 68, 0
6, 16824, Note_on_c, 3, 67, 100
6, 16847, Note_on_c, 3, 67, 0
6, 16848, Note_on_c, 3, 65, 100
6, 16871, Note_on_c, 3, 65, 0
6, 16872, Note_on_c, 3, 62, 100
6, 16895, Note_on_c, 3, 62, 0
6, 17136, Note_on_c, 3, 62, 100
6, 17183, Note_on_c, 3, 62, 0
6, 17184, Note_on_c, 3, 65, 100
6, 17279, Note_on_c, 3, 65, 0
6, 17280, Note_on_c, 3, 71, 100
6, 17280, Note_on_c, 3, 67, 100
6, 17329, Pitch_bend_c, 3, 9361
6, 17332, Pitch_bend_c, 3, 10922
6, 17336, Pitch_bend_c, 3, 11117
6, 17339, Pitch_bend_c, 3, 11214
6, 17342, Pitch_bend_c, 3, 11897
6, 17346, Pitch_bend_c, 3, 11994
6, 17349, Pitch_bend_c, 3, 12092
6, 17352, Pitch_bend_c, 3, 12092
6, 17356, Pitch_bend_c, 3, 12287
6, 17376, Pitch_bend_c, 3, 8874
6, 17379, Pitch_bend_c, 3, 8971
6, 17382, Pitch_bend_c, 3, 8874
6, 17385, Pitch_bend_c, 3, 8679
6, 17389, Pitch_bend_c, 3, 8484
6, 17392, Pitch_bend_c, 3, 8289
6, 17395, Pitch_bend_c, 3, 8289
6, 17399, Pitch_bend_c, 3, 8192
6, 17402, Pitch_bend_c, 3, 8192
6, 17422, Pitch_bend_c, 3, 11019
6, 17425, Pitch_bend_c, 3, 11117
6, 17428, Pitch_bend_c, 3, 11214
6, 17432, Pitch_bend_c, 3, 11312
6, 17435, Pitch_bend_c, 3, 11409
6, 17438, Pitch_bend_c, 3, 11604
6, 17442, Pitch_bend_c, 3, 11799
6, 17445, Pitch_bend_c, 3, 11897
6, 17448, Pitch_bend_c, 3, 11994
6, 17452, Pitch_bend_c, 3, 11994
6, 17455, Pitch_bend_c, 3, 11994
6, 17458, Pitch_bend_c, 3, 12092
6, 17462, Pitch_bend_c, 3, 12189
6, 17475, Pitch_bend_c, 3, 8971
6, 17478, Pitch_bend_c, 3, 8581
6, 17481, Pitch_bend_c, 3, 8484
6, 17485, Pitch_bend_c, 3, 8386
6, 17488, Pitch_bend_c, 3, 8289
6, 17491, Pitch_bend_c, 3, 8192
6, 17495, Pitch_bend_c, 3, 8192
6, 17524, Pitch_bend_c, 3, 12384
6, 17528, Pitch_bend_c, 3, 11409
6, 17531, Pitch_bend_c, 3, 11507
6, 17534, Pitch_bend_c, 3, 11604
6, 17538, Pitch_bend_c, 3, 11702
6, 17541, Pitch_bend_c, 3, 11799
6, 17544, Pitch_bend_c, 3, 11799
6, 17548, Pitch_bend_c, 3, 11897
6, 17551, Pitch_bend_c, 3, 11994
6, 17554, Pitch_bend_c, 3, 12092
6, 17558, Pitch_bend_c, 3, 12092
6, 17561, Pitch_bend_c, 3, 12092
6, 17564, Pitch_bend_c, 3, 12092
6, 17568, Pitch_bend_c, 3, 11994
6, 17574, Pitch_bend_c, 3, 8192
6, 17577, Pitch_bend_c, 3, 8874
6, 17581, Pitch_bend_c, 3, 8874
6, 17584, Pitch_bend_c, 3, 8581
6, 17587, Pitch_bend_c, 3, 8581
6, 17591, Pitch_bend_c, 3, 8386
6, 17594, Pitch_bend_c, 3, 8289
6, 17597, Pitch_bend_c, 3, 8192
6, 17663, Note_on_c, 3, 71, 0
6, 17663, Note_on_c, 3, 67, 0
6, 17808, Note_on_c, 3, 62, 100
6, 17855, Note_on_c, 3, 62, 0
6, 17856, Note_on_c, 3, 65, 100
6, 17903, Note_on_c, 3, 65, 0
6, 17904, Note_on_c, 3, 67, 100
6, 17951, Note_on_c, 3, 67, 0
6, 17952, Note_on_c, 3, 67, 100
6, 17959, Note_on_c, 3, 67, 0
6, 17960, Note_on_c, 3, 68, 100
6, 18047, Note_on_c, 3, 68, 0
6, 18048, Note_on_c, 3, 69, 100
6, 18071, Note_on_c, 3, 69, 0
6, 18072, Note_on_c, 3, 67, 100
6, 18095, Note_on_c, 3, 67, 0
6, 18096, Note_on_c, 3, 65, 100
6, 18143, Note_on_c, 3, 65, 0
6, 18144, Note_on_c, 3, 62, 100
6, 18239, Note_on_c, 3, 62, 0
6, 18240, Note_on_c, 3, 65, 100
6, 18335, Note_on_c, 3, 65, 0
6, 18336, Note_on_c, 3, 62, 100
6, 18431, Note_on_c, 3, 62, 0
6, 18432, Note_on_c, 3, 60, 100
6, 18432, Note_on_c, 3, 65, 100
6, 18479, Note_on_c, 3, 60, 0
6, 18479, Note_on_c, 3, 65, 0
6, 18480, Note_on_c, 3, 57, 100
6, 18527, Note_on_c, 3, 57, 0
6, 18528, Note_on_c, 3, 60, 100
6, 18623, Note_on_c, 3, 60, 0
6, 18624, Note_on_c, 3, 60, 100
6, 18624, Note_on_c, 3, 65, 100
6, 18635, Note_on_c, 3, 60, 0
6, 18636, Note_on_c, 3, 62, 100
6, 18719, Note_on_c, 3, 65, 0
6, 18719, Note_on_c, 3, 62, 0
6, 18720, Note_on_c, 3, 60, 100
6, 18815, Note_on_c, 3, 60, 0
6, 18816, Note_on_c, 3, 55, 100
6, 18879, Note_on_c, 3, 55, 0
6, 18880, Note_on_c, 3, 56, 100
6, 18943, Note_on_c, 3, 56, 0
6, 18944, Note_on_c, 3, 57, 100
6, 19007, Note_on_c, 3, 57, 0
6, 24336, Note_on_c, 3, 57, 100
6, 24383, Note_on_c, 3, 57, 0
6, 24384, Note_on_c, 3, 60, 100
6, 24479, Note_on_c, 3, 60, 0
6, 24480, Note_on_c, 3, 62, 100
6, 24487, Note_on_c, 3, 62, 0
6, 24488, Note_on_c, 3, 63, 100
6, 24623, Note_on_c, 3, 63, 0
6, 24624, Note_on_c, 3, 62, 100
6, 24631, Note_on_c, 3, 62, 0
6, 24632, Note_on_c, 3, 64, 100
6, 24671, Note_on_c, 3, 64, 0
6, 24672, Note_on_c, 3, 62, 100
6, 24767, Note_on_c, 3, 62, 0
6, 24768, Note_on_c, 3, 62, 100
6, 24791, Note_on_c, 3, 62, 0
6, 24792, Note_on_c, 3, 63, 100
6, 24815, Note_on_c, 3, 63, 0
6, 24816, Note_on_c, 3, 62, 100
6, 24863, Note_on_c, 3, 62, 0
6, 24864, Note_on_c, 3, 60, 100
6, 24911, Note_on_c, 3, 60, 0
6, 24912, Note_on_c, 3, 57, 100
6, 24959, Note_on_c, 3, 57, 0
6, 25008, Note_on_c, 3, 57, 100
6, 25055, Note_on_c, 3, 57, 0
6, 25056, Note_on_c, 3, 60, 100
6, 25103, Note_on_c, 3, 60, 0
6, 25104, Note_on_c, 3, 62, 100
6, 25151, Note_on_c, 3, 62, 0
6, 25152, Note_on_c, 3, 62, 100
6, 25159, Note_on_c, 3, 62, 0
6, 25160, Note_on_c, 3, 63, 100
6, 25247, Note_on_c, 3, 63, 0
6, 25248, Note_on_c, 3, 64, 100
6, 25271, Note_on_c, 3, 64, 0
6, 25272, Note_on_c, 3, 62, 100
6, 25319, Note_on_c, 3, 62, 0
6, 25320, Note_on_c, 3, 60, 100
6, 25343, Note_on_c, 3, 60, 0
6, 25344, Note_on_c, 3, 57, 100
6, 25439, Note_on_c, 3, 57, 0
6, 25440, Note_on_c, 3, 60, 100
6, 25535, Note_on_c, 3, 60, 0
6, 25536, Note_on_c, 3, 62, 100
6, 25551, Note_on_c, 3, 62, 0
6, 25552, Note_on_c, 3, 63, 100
6, 25567, Note_on_c, 3, 63, 0
6, 25568, Note_on_c, 3, 62, 100
6, 25583, Note_on_c, 3, 62, 0
6, 25584, Note_on_c, 3, 60, 100
6, 25607, Note_on_c, 3, 60, 0
6, 25608, Note_on_c, 3, 57, 100
6, 25631, Note_on_c, 3, 57, 0
6, 25872, Note_on_c, 3, 57, 100
6, 25919, Note_on_c, 3, 57, 0
6, 25920, Note_on_c, 3, 60, 100
6, 26015, Note_on_c, 3, 60, 0
6, 26016, Note_on_c, 3, 62, 100
6, 26065, Pitch_bend_c, 3, 9361
6, 26068, Pitch_bend_c, 3, 10922
6, 26072, Pitch_bend_c, 3, 11117
6, 26075, Pitch_bend_c, 3, 11214
6, 26078, Pitch_bend_c, 3, 11897
6, 26082, Pitch_bend_c, 3, 11994
6, 26085, Pitch_bend_c, 3, 12092
6, 26088, Pitch_bend_c, 3, 12092
6, 26092, Pitch_bend_c, 3, 12287
6, 26112, Pitch_bend_c, 3, 8874
6, 26115, Pitch_bend_c, 3, 8971
6, 26118, Pitch_bend_c, 3, 8874
6, 26121, Pitch_bend_c, 3, 8679
6, 26125, Pitch_bend_c, 3, 8484
6, 26128, Pitch_bend_c, 3, 8289
6, 26131, Pitch_bend_c, 3, 8289
6, 26135, Pitch_bend_c, 3, 8192
6, 26138, Pitch_bend_c, 3, 8192
6, 26158, Pitch_bend_c, 3, 11019
6, 26161, Pitch_bend_c, 3, 11117
6, 26164, Pitch_bend_c, 3, 11214
6, 26168, Pitch_bend_c, 3, 11312
6, 26171, Pitch_bend_c, 3, 11409
6, 26174, Pitch_bend_c, 3, 11604
6, 26178, Pitch_bend_c, 3, 11799
6, 26181, Pitch_bend_c, 3, 11897
6, 26184, Pitch_bend_c, 3, 11994
6, 26188, Pitch_bend_c, 3, 11994
6, 26191, Pitch_bend_c, 3, 11994
6, 26194, Pitch_bend_c, 3, 12092
6, 26198, Pitch_bend_c, 3, 12189
6, 26211, Pitch_bend_c, 3, 8971
6, 26214, Pitch_bend_c, 3, 8581
6, 26217, Pitch_bend_c, 3, 8484
6, 26221, Pitch_bend_c, 3, 8386
6, 26224, Pitch_bend_c, 3, 8289
6, 26227, Pitch_bend_c, 3, 8192
6, 26231, Pitch_bend_c, 3, 8192
6, 26260, Pitch_bend_c, 3, 12384
6, 26264, Pitch_bend_c, 3, 11409
6, 26267, Pitch_bend_c, 3, 11507
6, 26270, Pitch_bend_c, 3, 11604
6, 26274, Pitch_bend_c, 3, 11702
6, 26277, Pitch_bend_c, 3, 11799
6, 26280, Pitch_bend_c, 3, 11799
6, 26284, Pitch_bend_c, 3, 11897
6, 26287, Pitch_bend_c, 3, 11994
6, 26290, Pitch_bend_c, 3, 12092
6, 26294, Pitch_bend_c, 3, 12092
6, 26297, Pitch_bend_c, 3, 12092
6, 26300, Pitch_bend_c, 3, 12092
6, 26304, Pitch_bend_c, 3, 11994
6, 26310, Pitch_bend_c, 3, 8192
6, 26313, Pitch_bend_c, 3, 8874
6, 26317, Pitch_bend_c, 3, 8874
6, 26320, Pitch_bend_c, 3, 8581
6, 26323, Pitch_bend_c, 3, 8581
6, 26327, Note_on_c, 3, 62, 0
6, 26327, Pitch_bend_c, 3, 8386
6, 26328, Note_on_c, 3, 60, 100
6, 26330, Pitch_bend_c, 3, 8289
6, 26333, Pitch_bend_c, 3, 8192
6, 26351, Note_on_c, 3, 60, 0
6, 26352, Note_on_c, 3, 57, 100
6, 26399, Note_on_c, 3, 57, 0
6, 26400, Note_on_c, 3, 60, 100
6, 26447, Note_on_c, 3, 60, 0
6, 26448, Note_on_c, 3, 66, 100
6, 26448, Note_on_c, 3, 62, 100
6, 26495, Note_on_c, 3, 66, 0
6, 26495, Note_on_c, 3, 62, 0
6, 26544, Note_on_c, 3, 57, 100
6, 26591, Note_on_c, 3, 57, 0
6, 26592, Note_on_c, 3, 60, 100
6, 26639, Note_on_c, 3, 60, 0
6, 26640, Note_on_c, 3, 62, 100
6, 26687, Note_on_c, 3, 62, 0
6, 26688, Note_on_c, 3, 62, 100
6, 26695, Note_on_c, 3, 62, 0
6, 26696, Note_on_c, 3, 63, 100
6, 26783, Note_on_c, 3, 63, 0
6, 26784, Note_on_c, 3, 63, 100
6, 26807, Note_on_c, 3, 63, 0
6, 26808, Note_on_c, 3, 62, 100
6, 26831, Note_on_c, 3, 62, 0
6, 26832, Note_on_c, 3, 60, 100
6, 26879, Note_on_c, 3, 60, 0
6, 26880, Note_on_c, 3, 57, 100
6, 26975, Note_on_c, 3, 57, 0
6, 26976, Note_on_c, 3, 60, 100
6, 27071, Note_on_c, 3, 60, 0
6, 27072, Note_on_c, 3, 57, 100
6, 27167, Note_on_c, 3, 57, 0
6, 27168, Note_on_c, 3, 55, 100
6, 27215, Note_on_c, 3, 55, 0
6, 27216, Note_on_c, 3, 52, 100
6, 27263, Note_on_c, 3, 52, 0
6, 27264, Note_on_c, 3, 55, 100
6, 27359, Note_on_c, 3, 55, 0
6, 27360, Note_on_c, 3, 55, 100
6, 27371, Note_on_c, 3, 55, 0
6, 27372, Note_on_c, 3, 57, 100
6, 27455, Note_on_c, 3, 57, 0
6, 27456, Note_on_c, 3, 55, 100
6, 27551, Note_on_c, 3, 55, 0
6, 27552, Note_on_c, 3, 52, 100
6, 27599, Note_on_c, 3, 52, 0
6, 27600, Note_on_c, 3, 50, 100
6, 27647, Note_on_c, 3, 50, 0
6, 27648, Note_on_c, 3, 48, 100
6, 27743, Note_on_c, 3, 48, 0
6, 27744, Note_on_c, 3, 45, 100
6, 27911, Note_on_c, 3, 45, 0
6, 27912, Note_on_c, 3, 40, 100
6, 27917, Note_on_c, 3, 40, 0
6, 27918, Note_on_c, 3, 43, 100
6, 27923, Note_on_c, 3, 43, 0
6, 27924, Note_on_c, 3, 45, 100
6, 27935, Note_on_c, 3, 45, 0
6, 27936, Note_on_c, 3, 48, 100
6, 27947, Note_on_c, 3, 48, 0
6, 27948, Note_on_c, 3, 52, 100
6, 27959, Note_on_c, 3, 52, 0
6, 27960, Note_on_c, 3, 55, 100
6, 28007, Note_on_c, 3, 55, 0
6, 28008, Note_on_c, 3, 57, 100
6, 28031, Note_on_c, 3, 57, 0
6, 28032, Note_on_c, 3, 60, 100
6, 28079, Note_on_c, 3, 60, 0
6, 28080, Note_on_c, 3, 64, 100
6, 28080, Note_on_c, 3, 60, 100
6, 28091, Note_on_c, 3, 60, 0
6, 28092, Note_on_c, 3, 61, 100
6, 28127, Note_on_c, 3, 64, 0
6, 28127, Note_on_c, 3, 61, 0
6, 28368, Note_on_c, 3, 62, 100
6, 28368, Note_on_c, 3, 65, 100
6, 28415, Note_on_c, 3, 62, 0
6, 28415, Note_on_c, 3, 65, 0
6, 28416, Note_on_c, 3, 65, 100
6, 28416, Note_on_c, 3, 69, 100
6, 28511, Note_on_c, 3, 65, 0
6, 28511, Note_on_c, 3, 69, 0
6, 28512, Note_on_c, 3, 67, 100
6, 28512, Note_on_c, 3, 71, 100
6, 28588, Pitch_bend_c, 3, 8192
6, 28589, Pitch_bend_c, 3, 8408
6, 28590, Pitch_bend_c, 3, 8623
6, 28591, Pitch_bend_c, 3, 8839
6, 28592, Pitch_bend_c, 3, 9054
6, 28593, Pitch_bend_c, 3, 9270
6, 28594, Pitch_bend_c, 3, 9485
6, 28595, Pitch_bend_c, 3, 9701
6, 28596, Pitch_bend_c, 3, 9917
6, 28597, Pitch_bend_c, 3, 10132
6, 28598, Pitch_bend_c, 3, 10348
6, 28599, Pitch_bend_c, 3, 10563
6, 28600, Pitch_bend_c, 3, 10779
6, 28601, Pitch_bend_c, 3, 10995
6, 28602, Pitch_bend_c, 3, 11210
6, 28603, Pitch_bend_c, 3, 11426
6, 28604, Pitch_bend_c, 3, 11641
6, 28605, Pitch_bend_c, 3, 11857
6, 28606, Pitch_bend_c, 3, 12072
6, 28607, Pitch_bend_c, 3, 12288
6, 28608, Pitch_bend_c, 3, 12384
6, 28703, Note_on_c, 3, 67, 0
6, 28703, Note_on_c, 3, 71, 0
6, 28704, Note_on_c, 3, 72, 100
6, 28704, Note_on_c, 3, 68, 100
6, 28704, Pitch_bend_c, 3, 8192
6, 28719, Note_on_c, 3, 72, 0
6, 28719, Note_on_c, 3, 68, 0
6, 28720, Note_on_c, 3, 67, 100
6, 28720, Note_on_c, 3, 71, 100
6, 28735, Note_on_c, 3, 67, 0
6, 28735, Note_on_c, 3, 71, 0
6, 28736, Note_on_c, 3, 68, 100
6, 28736, Note_on_c, 3, 65, 100
6, 28751, Note_on_c, 3, 65, 0
6, 28752, Note_on_c, 3, 67, 100
6, 28799, Note_on_c, 3, 68, 0
6, 28799, Note_on_c, 3, 67, 0
6, 28800, Note_on_c, 3, 68, 100
6, 28800, Note_on_c, 3, 65, 100
6, 28847, Note_on_c, 3, 68, 0
6, 28847, Note_on_c, 3, 65, 0
6, 28848, Note_on_c, 3, 67, 100
6, 28848, Note_on_c, 3, 71, 100
6, 28863, Note_on_c, 3, 67, 0
6, 28863, Note_on_c, 3, 71, 0
6, 28864, Note_on_c, 3, 68, 100
6, 28864, Note_on_c, 3, 72, 100
6, 28879, Note_on_c, 3, 68, 0
6, 28879, Note_on_c, 3, 72, 0
6, 28880, Note_on_c, 3, 71, 100
6, 28880, Note_on_c, 3, 67, 100
6, 28895, Note_on_c, 3, 67, 0
6, 28896, Note_on_c, 3, 65, 100
6, 28907, Note_on_c, 3, 65, 0
6, 28908, Note_on_c, 3, 67, 100
6, 29039, Note_on_c, 3, 71, 0
6, 29087, Note_on_c, 3, 67, 0
6, 29088, Note_on_c, 3, 69, 100
6, 29088, Note_on_c, 3, 65, 100
6, 29135, Note_on_c, 3, 69, 0
6, 29135, Note_on_c, 3, 65, 0
6, 29136, Note_on_c, 3, 67, 100
6, 29136, Note_on_c, 3, 71, 100
6, 29183, Note_on_c, 3, 67, 0
6, 29183, Note_on_c, 3, 71, 0
6, 29184, Note_on_c, 3, 67, 100
6, 29184, Note_on_c, 3, 71, 100
6, 29191, Note_on_c, 3, 67, 0
6, 29191, Note_on_c, 3, 71, 0
6, 29192, Note_on_c, 3, 72, 100
6, 29192, Note_on_c, 3, 68, 100
6, 29279, Note_on_c, 3, 72, 0
6, 29279, Note_on_c, 3, 68, 0
6, 29280, Note_on_c, 3, 72, 100
6, 29280, Note_on_c, 3, 68, 100
6, 29303, Note_on_c, 3, 68, 0
6, 29304, Note_on_c, 3, 67, 100
6, 29327, Note_on_c, 3, 72, 0
6, 29327, Note_on_c, 3, 67, 0
6, 29328, Note_on_c, 3, 65, 100
6, 29375, Note_on_c, 3, 65, 0
6, 29376, Note_on_c, 3, 62, 100
6, 29471, Note_on_c, 3, 62, 0
6, 29472, Note_on_c, 3, 68, 100
6, 29472, Note_on_c, 3, 65, 100
6, 29567, Note_on_c, 3, 68, 0
6, 29567, Note_on_c, 3, 65, 0
6, 29568, Note_on_c, 3, 67, 100
6, 29568, Note_on_c, 3, 71, 100
6, 29579, Note_on_c, 3, 67, 0
6, 29579, Note_on_c, 3, 71, 0
6, 29580, Note_on_c, 3, 72, 100
6, 29580, Note_on_c, 3, 68, 100
6, 29615, Note_on_c, 3, 68, 0
6, 29616, Note_on_c, 3, 65, 100
6, 29639, Note_on_c, 3, 72, 0
6, 29639, Note_on_c, 3, 65, 0
6, 29640, Note_on_c, 3, 67, 100
6, 29663, Note_on_c, 3, 67, 0
6, 29904, Note_on_c, 3, 65, 100
6, 29904, Note_on_c, 3, 62, 100
6, 29951, Note_on_c, 3, 65, 0
6, 29951, Note_on_c, 3, 62, 0
6, 29952, Note_on_c, 3, 69, 100
6, 29952, Note_on_c, 3, 65, 100
6, 30047, Note_on_c, 3, 69, 0
6, 30047, Note_on_c, 3, 65, 0
6, 30048, Pitch_bend_c, 3, 8192
6, 30048, Note_on_c, 3, 67, 100
6, 30048, Note_on_c, 3, 71, 100
6, 30072, Pitch_bend_c, 3, 12288
6, 30096, Pitch_bend_c, 3, 8192
6, 30120, Pitch_bend_c, 3, 12288
6, 30144, Pitch_bend_c, 3, 8192
6, 30168, Pitch_bend_c, 3, 12288
6, 30192, Pitch_bend_c, 3, 8192
6, 30216, Pitch_bend_c, 3, 12288
6, 30239, Note_on_c, 3, 67, 0
6, 30239, Note_on_c, 3, 71, 0
6, 30240, Note_on_c, 3, 69, 100
6, 30240, Pitch_bend_c, 3, 8192
6, 30251, Note_on_c, 3, 69, 0
6, 30252, Note_on_c, 3, 71, 100
6, 30391, Note_on_c, 3, 71, 0
6, 30392, Note_on_c, 3, 69, 100
6, 30399, Note_on_c, 3, 69, 0
6, 30400, Note_on_c, 3, 67, 100
6, 30407, Note_on_c, 3, 67, 0
6, 30408, Note_on_c, 3, 65, 100
6, 30415, Note_on_c, 3, 65, 0
6, 30416, Note_on_c, 3, 62, 100
6, 30423, Note_on_c, 3, 62, 0
6, 30424, Note_on_c, 3, 59, 100
6, 30431, Note_on_c, 3, 59, 0
6, 30576, Note_on_c, 3, 65, 100
6, 30576, Note_on_c, 3, 62, 100
6, 30623, Note_on_c, 3, 65, 0
6, 30623, Note_on_c, 3, 62, 0
6, 30624, Note_on_c, 3, 65, 100
6, 30624, Note_on_c, 3, 69, 100
6, 30671, Note_on_c, 3, 65, 0
6, 30671, Note_on_c, 3, 69, 0
6, 30672, Note_on_c, 3, 67, 100
6, 30672, Note_on_c, 3, 71, 100
6, 30719, Note_on_c, 3, 67, 0
6, 30719, Note_on_c, 3, 71, 0
6, 30720, Note_on_c, 3, 71, 100
6, 30720, Note_on_c, 3, 67, 100
6, 30727, Note_on_c, 3, 71, 0
6, 30727, Note_on_c, 3, 67, 0
6, 30728, Note_on_c, 3, 72, 100
6, 30728, Note_on_c, 3, 68, 100
6, 30815, Note_on_c, 3, 72, 0
6, 30815, Note_on_c, 3, 68, 0
6, 30816, Note_on_c, 3, 69, 100
6, 30816, Note_on_c, 3, 72, 100
6, 30839, Note_on_c, 3, 69, 0
6, 30839, Note_on_c, 3, 72, 0
6, 30840, Note_on_c, 3, 71, 100
6, 30840, Note_on_c, 3, 67, 100
6, 30863, Note_on_c, 3, 71, 0
6, 30863, Note_on_c, 3, 67, 0
6, 30864, Note_on_c, 3, 65, 100
6, 30864, Note_on_c, 3, 69, 100
6, 30911, Note_on_c, 3, 65, 0
6, 30912, Note_on_c, 3, 62, 100
6, 30959, Note_on_c, 3, 69, 0
6, 31007, Note_on_c, 3, 62, 0
6, 31008, Note_on_c, 3, 65, 100
6, 31008, Note_on_c, 3, 69, 100
6, 31103, Note_on_c, 3, 65, 0
6, 31103, Note_on_c, 3, 69, 0
6, 31104, Note_on_c, 3, 67, 100
6, 31104, Note_on_c, 3, 62, 100
6, 31199, Note_on_c, 3, 67, 0
6, 31199, Note_on_c, 3, 62, 0
6, 31200, Note_on_c, 3, 60, 100
6, 31200, Note_on_c, 3, 65, 100
6, 31248, Note_on_c, 3, 57, 100
6, 31295, Note_on_c, 3, 60, 0
6, 31295, Note_on_c, 3, 65, 0
6, 31295, Note_on_c, 3, 57, 0
6, 31296, Note_on_c, 3, 60, 100
6, 31296, Note_on_c, 3, 65, 100
6, 31391, Note_on_c, 3, 60, 0
6, 31391, Note_on_c, 3, 65, 0
6, 31392, Note_on_c, 3, 60, 100
6, 31392, Note_on_c, 3, 65, 100
6, 31403, Note_on_c, 3, 60, 0
6, 31403, Note_on_c, 3, 65, 0
6, 31404, Note_on_c, 3, 67, 100
6, 31404, Note_on_c, 3, 62, 100
6, 31487, Note_on_c, 3, 67, 0
6, 31487, Note_on_c, 3, 62, 0
6, 31488, Note_on_c, 3, 65, 100
6, 31488, Note_on_c, 3, 60, 100
6, 31583, Note_on_c, 3, 65, 0
6, 31583, Note_on_c, 3, 60, 0
6, 31584, Note_on_c, 3, 55, 100
6, 31647, Note_on_c, 3, 55, 0
6, 31648, Note_on_c, 3, 56, 100
6, 31711, Note_on_c, 3, 56, 0
6, 31712, Note_on_c, 3, 57, 100
6, 31775, Note_on_c, 3, 57, 0
6, 37104, Note_on_c, 3, 57, 100
6, 37151, Note_on_c, 3, 57, 0
6, 37152, Note_on_c, 3, 60, 100
6, 37247, Note_on_c, 3, 60, 0
6, 37248, Note_on_c, 3, 62, 100
6, 37255, Note_on_c, 3, 62, 0
6, 37256, Note_on_c, 3, 63, 100
6, 37391, Note_on_c, 3, 63, 0
6, 37392, Note_on_c, 3, 62, 100
6, 37399, Note_on_c, 3, 62, 0
6, 37400, Note_on_c, 3, 64, 100
6, 37439, Note_on_c, 3, 64, 0
6, 37440, Note_on_c, 3, 62, 100
6, 37535, Note_on_c, 3, 62, 0
6, 37536, Note_on_c, 3, 62, 100
6, 37559, Note_on_c, 3, 62, 0
6, 37560, Note_on_c, 3, 63, 100
6, 37583, Note_on_c, 3, 63, 0
6, 37584, Note_on_c, 3, 62, 100
6, 37631, Note_on_c, 3, 62, 0
6, 37632, Note_on_c, 3, 60, 100
6, 37679, Note_on_c, 3, 60, 0
6, 37680, Note_on_c, 3, 57, 100
6, 37727, Note_on_c, 3, 57, 0
6, 37776, Note_on_c, 3, 57, 100
6, 37823, Note_on_c, 3, 57, 0
6, 37824, Note_on_c, 3, 60, 100
6, 37871, Note_on_c, 3, 60, 0
6, 37872, Note_on_c, 3, 62, 100
6, 37919, Note_on_c, 3, 62, 0
6, 37920, Note_on_c, 3, 62, 100
6, 37927, Note_on_c, 3, 62, 0
6, 37928, Note_on_c, 3, 63, 100
6, 38015, Note_on_c, 3, 63, 0
6, 38016, Note_on_c, 3, 64, 100
6, 38039, Note_on_c, 3, 64, 0
6, 38040, Note_on_c, 3, 62, 100
6, 38087, Note_on_c, 3, 62, 0
6, 38088, Note_on_c, 3, 60, 100
6, 38111, Note_on_c, 3, 60, 0
6, 38112, Note_on_c, 3, 57, 100
6, 38207, Note_on_c, 3, 57, 0
6, 38208, Note_on_c, 3, 60, 100
6, 38303, Note_on_c, 3, 60, 0
6, 38304, Note_on_c, 3, 62, 100
6, 38319, Note_on_c, 3, 62, 0
6, 38320, Note_on_c, 3, 63, 100
6, 38335, Note_on_c, 3, 63, 0
6, 38336, Note_on_c, 3, 62, 100
6, 38351, Note_on_c, 3, 62, 0
6, 38352, Note_on_c, 3, 60, 100
6, 38375, Note_on_c, 3, 60, 0
6, 38376, Note_on_c, 3, 57, 100
6, 38399, Note_on_c, 3, 57, 0
6, 38640, Note_on_c, 3, 57, 100
6, 38687, Note_on_c, 3, 57, 0
6, 38688, Note_on_c, 3, 60, 100
6, 38783, Note_on_c, 3, 60, 0
6, 38784, Note_on_c, 3, 62, 100
6, 38833, Pitch_bend_c, 3, 9361
6, 38836, Pitch_bend_c, 3, 10922
6, 38840, Pitch_bend_c, 3, 11117
6, 38843, Pitch_bend_c, 3, 11214
6, 38846, Pitch_bend_c, 3, 11897
6, 38850, Pitch_bend_c, 3, 11994
6, 38853, Pitch_bend_c, 3, 12092
6, 38856, Pitch_bend_c, 3, 12092
6, 38860, Pitch_bend_c, 3, 12287
6, 38880, Pitch_bend_c, 3, 8874
6, 38883, Pitch_bend_c, 3, 8971
6, 38886, Pitch_bend_c, 3, 8874
6, 38889, Pitch_bend_c, 3, 8679
6, 38893, Pitch_bend_c, 3, 8484
6, 38896, Pitch_bend_c, 3, 8289
6, 38899, Pitch_bend_c, 3, 8289
6, 38903, Pitch_bend_c, 3, 8192
6, 38906, Pitch_bend_c, 3, 8192
6, 38926, Pitch_bend_c, 3, 11019
6, 38929, Pitch_bend_c, 3, 11117
6, 38932, Pitch_bend_c, 3, 11214
6, 38936, Pitch_bend_c, 3, 11312
6, 38939, Pitch_bend_c, 3, 11409
6, 38942, Pitch_bend_c, 3, 11604
6, 38946, Pitch_bend_c, 3, 11799
6, 38949, Pitch_bend_c, 3, 11897
6, 38952, Pitch_bend_c, 3, 11994
6, 38956, Pitch_bend_c, 3, 11994
6, 38959, Pitch_bend_c, 3, 11994
6, 38962, Pitch_bend_c, 3, 12092
6, 38966, Pitch_bend_c, 3, 12189
6, 38979, Pitch_bend_c, 3, 8971
6, 38982, Pitch_bend_c, 3, 8581
6, 38985, Pitch_bend_c, 3, 8484
6, 38989, Pitch_bend_c, 3, 8386
6, 38992, Pitch_bend_c, 3, 8289
6, 38995, Pitch_bend_c, 3, 8192
6, 38999, Pitch_bend_c, 3, 8192
6, 39028, Pitch_bend_c, 3, 12384
6, 39032, Pitch_bend_c, 3, 11409
6, 39035, Pitch_bend_c, 3, 11507
6, 39038, Pitch_bend_c, 3, 11604
6, 39042, Pitch_bend_c, 3, 11702
6, 39045, Pitch_bend_c, 3, 11799
6, 39048, Pitch_bend_c, 3, 11799
6, 39052, Pitch_bend_c, 3, 11897
6, 39055, Pitch_bend_c, 3, 11994
6, 39058, Pitch_bend_c, 3, 12092
6, 39062, Pitch_bend_c, 3, 12092
6, 39065, Pitch_bend_c, 3, 12092
6, 39068, Pitch_bend_c, 3, 12092
6, 39072, Pitch_bend_c, 3, 11994
6, 39078, Pitch_bend_c, 3, 8192
6, 39081, Pitch_bend_c, 3, 8874
6, 39085, Pitch_bend_c, 3, 8874
6, 39088, Pitch_bend_c, 3, 8581
6, 39091, Pitch_bend_c, 3, 8581
6, 39095, Note_on_c, 3, 62, 0
6, 39095, Pitch_bend_c, 3, 8386
6, 39096, Note_on_c, 3, 60, 100
6, 39098, Pitch_bend_c, 3, 8289
6, 39101, Pitch_bend_c, 3, 8192
6, 39119, Note_on_c, 3, 60, 0
6, 39120, Note_on_c, 3, 57, 100
6, 39167, Note_on_c, 3, 57, 0
6, 39168, Note_on_c, 3, 60, 100
6, 39215, Note_on_c, 3, 60, 0
6, 39216, Note_on_c, 3, 62, 100
6, 39216, Note_on_c, 3, 66, 100
6, 39263, Note_on_c, 3, 62, 0
6, 39263, Note_on_c, 3, 66, 0
6, 39312, Note_on_c, 3, 57, 100
6, 39359, Note_on_c, 3, 57, 0
6, 39360, Note_on_c, 3, 60, 100
6, 39407, Note_on_c, 3, 60, 0
6, 39408, Note_on_c, 3, 62, 100
6, 39455, Note_on_c, 3, 62, 0
6, 39456, Note_on_c, 3, 62, 100
6, 39463, Note_on_c, 3, 62, 0
6, 39464, Note_on_c, 3, 63, 100
6, 39551, Note_on_c, 3, 63, 0
6, 39552, Note_on_c, 3, 63, 100
6, 39575, Note_on_c, 3, 63, 0
6, 39576, Note_on_c, 3, 62, 100
6, 39599, Note_on_c, 3, 62, 0
6, 39600, Note_on_c, 3, 60, 100
6, 39647, Note_on_c, 3, 60, 0
6, 39648, Note_on_c, 3, 57, 100
6, 39743, Note_on_c, 3, 57, 0
6, 39744, Note_on_c, 3, 60, 100
6, 39839, Note_on_c, 3, 60, 0
6, 39840, Note_on_c, 3, 57, 100
6, 39935, Note_on_c, 3, 57, 0
6, 39936, Note_on_c, 3, 55, 100
6, 39983, Note_on_c, 3, 55, 0
6, 39984, Note_on_c, 3, 52, 100
6, 40031, Note_on_c, 3, 52, 0
6, 40032, Note_on_c, 3, 55, 100
6, 40127, Note_on_c, 3, 55, 0
6, 40128, Note_on_c, 3, 55, 100
6, 40139, Note_on_c, 3, 55, 0
6, 40140, Note_on_c, 3, 57, 100
6, 40223, Note_on_c, 3, 57, 0
6, 40224, Note_on_c, 3, 55, 100
6, 40319, Note_on_c, 3, 55, 0
6, 40320, Note_on_c, 3, 52, 100
6, 40367, Note_on_c, 3, 52, 0
6, 40368, Note_on_c, 3, 50, 100
6, 40415, Note_on_c, 3, 50, 0
6, 40416, Note_on_c, 3, 48, 100
6, 40511, Note_on_c, 3, 48, 0
6, 40512, Note_on_c, 3, 45, 100
6, 40679, Note_on_c, 3, 45, 0
6, 40680, Note_on_c, 3, 40, 100
6, 40685, Note_on_c, 3, 40, 0
6, 40686, Note_on_c, 3, 43, 100
6, 40691, Note_on_c, 3, 43, 0
6, 40692, Note_on_c, 3, 45, 100
6, 40703, Note_on_c, 3, 45, 0
6, 40704, Note_on_c, 3, 48, 100
6, 40715, Note_on_c, 3, 48, 0
6, 40716, Note_on_c, 3, 52, 100
6, 40727, Note_on_c, 3, 52, 0
6, 40728, Note_on_c, 3, 55, 100
6, 40775, Note_on_c, 3, 55, 0
6, 40776, Note_on_c, 3, 57, 100
6, 40799, Note_on_c, 3, 57, 0
6, 40800, Note_on_c, 3, 60, 100
6, 40847, Note_on_c, 3, 60, 0
6, 40848, Note_on_c, 3, 64, 100
6, 40848, Note_on_c, 3, 60, 100
6, 40859, Note_on_c, 3, 60, 0
6, 40860, Note_on_c, 3, 61, 100
6, 40895, Note_on_c, 3, 64, 0
6, 40895, Note_on_c, 3, 61, 0
6, 41136, Note_on_c, 3, 65, 100
6, 41136, Note_on_c, 3, 62, 100
6, 41183, Note_on_c, 3, 65, 0
6, 41183, Note_on_c, 3, 62, 0
6, 41184, Note_on_c, 3, 65, 100
6, 41184, Note_on_c, 3, 69, 100
6, 41279, Note_on_c, 3, 65, 0
6, 41279, Note_on_c, 3, 69, 0
6, 41280, Note_on_c, 3, 71, 100
6, 41280, Note_on_c, 3, 67, 100
6, 41356, Pitch_bend_c, 3, 8192
6, 41357, Pitch_bend_c, 3, 8408
6, 41358, Pitch_bend_c, 3, 8623
6, 41359, Pitch_bend_c, 3, 8839
6, 41360, Pitch_bend_c, 3, 9054
6, 41361, Pitch_bend_c, 3, 9270
6, 41362, Pitch_bend_c, 3, 9485
6, 41363, Pitch_bend_c, 3, 9701
6, 41364, Pitch_bend_c, 3, 9917
6, 41365, Pitch_bend_c, 3, 10132
6, 41366, Pitch_bend_c, 3, 10348
6, 41367, Pitch_bend_c, 3, 10563
6, 41368, Pitch_bend_c, 3, 10779
6, 41369, Pitch_bend_c, 3, 10995
6, 41370, Pitch_bend_c, 3, 11210
6, 41371, Pitch_bend_c, 3, 11426
6, 41372, Pitch_bend_c, 3, 11641
6, 41373, Pitch_bend_c, 3, 11857
6, 41374, Pitch_bend_c, 3, 12072
6, 41375, Pitch_bend_c, 3, 12288
6, 41376, Pitch_bend_c, 3, 12384
6, 41471, Note_on_c, 3, 71, 0
6, 41471, Note_on_c, 3, 67, 0
6, 41472, Note_on_c, 3, 68, 100
6, 41472, Note_on_c, 3, 72, 100
6, 41472, Pitch_bend_c, 3, 8192
6, 41487, Note_on_c, 3, 68, 0
6, 41487, Note_on_c, 3, 72, 0
6, 41488, Note_on_c, 3, 67, 100
6, 41488, Note_on_c, 3, 71, 100
6, 41503, Note_on_c, 3, 67, 0
6, 41503, Note_on_c, 3, 71, 0
6, 41504, Note_on_c, 3, 65, 100
6, 41504, Note_on_c, 3, 68, 100
6, 41519, Note_on_c, 3, 65, 0
6, 41520, Note_on_c, 3, 67, 100
6, 41567, Note_on_c, 3, 68, 0
6, 41567, Note_on_c, 3, 67, 0
6, 41568, Note_on_c, 3, 68, 100
6, 41568, Note_on_c, 3, 65, 100
6, 41615, Note_on_c, 3, 68, 0
6, 41615, Note_on_c, 3, 65, 0
6, 41616, Note_on_c, 3, 71, 100
6, 41616, Note_on_c, 3, 67, 100
6, 41631, Note_on_c, 3, 71, 0
6, 41631, Note_on_c, 3, 67, 0
6, 41632, Note_on_c, 3, 68, 100
6, 41632, Note_on_c, 3, 72, 100
6, 41647, Note_on_c, 3, 68, 0
6, 41647, Note_on_c, 3, 72, 0
6, 41648, Note_on_c, 3, 67, 100
6, 41648, Note_on_c, 3, 71, 100
6, 41663, Note_on_c, 3, 67, 0
6, 41664, Note_on_c, 3, 65, 100
6, 41675, Note_on_c, 3, 65, 0
6, 41676, Note_on_c, 3, 67, 100
6, 41807, Note_on_c, 3, 71, 0
6, 41855, Note_on_c, 3, 67, 0
6, 41856, Note_on_c, 3, 65, 100
6, 41856, Note_on_c, 3, 69, 100
6, 41903, Note_on_c, 3, 65, 0
6, 41903, Note_on_c, 3, 69, 0
6, 41904, Note_on_c, 3, 71, 100
6, 41904, Note_on_c, 3, 67, 100
6, 41951, Note_on_c, 3, 71, 0
6, 41951, Note_on_c, 3, 67, 0
6, 41952, Note_on_c, 3, 67, 100
6, 41952, Note_on_c, 3, 71, 100
6, 41959, Note_on_c, 3, 67, 0
6, 41959, Note_on_c, 3, 71, 0
6, 41960, Note_on_c, 3, 72, 100
6, 41960, Note_on_c, 3, 68, 100
6, 42047, Note_on_c, 3, 72, 0
6, 42047, Note_on_c, 3, 68, 0
6, 42048, Note_on_c, 3, 68, 100
6, 42048, Note_on_c, 3, 72, 100
6, 42071, Note_on_c, 3, 68, 0
6, 42072, Note_on_c, 3, 67, 100
6, 42095, Note_on_c, 3, 72, 0
6, 42095, Note_on_c, 3, 67, 0
6, 42096, Note_on_c, 3, 65, 100
6, 42143, Note_on_c, 3, 65, 0
6, 42144, Note_on_c, 3, 62, 100
6, 42239, Note_on_c, 3, 62, 0
6, 42240, Note_on_c, 3, 68, 100
6, 42240, Note_on_c, 3, 65, 100
6, 42335, Note_on_c, 3, 68, 0
6, 42335, Note_on_c, 3, 65, 0
6, 42336, Note_on_c, 3, 71, 100
6, 42336, Note_on_c, 3, 67, 100
6, 42347, Note_on_c, 3, 71, 0
6, 42347, Note_on_c, 3, 67, 0
6, 42348, Note_on_c, 3, 72, 100
6, 42348, Note_on_c, 3, 68, 100
6, 42383, Note_on_c, 3, 68, 0
6, 42384, Note_on_c, 3, 65, 100
6, 42407, Note_on_c, 3, 72, 0
6, 42407, Note_on_c, 3, 65, 0
6, 42408, Note_on_c, 3, 67, 100
6, 42431, Note_on_c, 3, 67, 0
6, 42672, Note_on_c, 3, 65, 100
6, 42672, Note_on_c, 3, 62, 100
6, 42719, Note_on_c, 3, 65, 0
6, 42719, Note_on_c, 3, 62, 0
6, 42720, Note_on_c, 3, 65, 100
6, 42720, Note_on_c, 3, 69, 100
6, 42815, Note_on_c, 3, 65, 0
6, 42815, Note_on_c, 3, 69, 0
6, 42816, Note_on_c, 3, 71, 100
6, 42816, Pitch_bend_c, 3, 8192
6, 42816, Note_on_c, 3, 67, 100
6, 42840, Pitch_bend_c, 3, 12288
6, 42864, Pitch_bend_c, 3, 8192
6, 42888, Pitch_bend_c, 3, 12288
6, 42912, Pitch_bend_c, 3, 8192
6, 42936, Pitch_bend_c, 3, 12288
6, 42960, Pitch_bend_c, 3, 8192
6, 42984, Pitch_bend_c, 3, 12288
6, 43007, Note_on_c, 3, 71, 0
6, 43007, Note_on_c, 3, 67, 0
6, 43008, Note_on_c, 3, 69, 100
6, 43008, Pitch_bend_c, 3, 8192
6, 43019, Note_on_c, 3, 69, 0
6, 43020, Note_on_c, 3, 71, 100
6, 43159, Note_on_c, 3, 71, 0
6, 43160, Note_on_c, 3, 69, 100
6, 43167, Note_on_c, 3, 69, 0
6, 43168, Note_on_c, 3, 67, 100
6, 43175, Note_on_c, 3, 67, 0
6, 43176, Note_on_c, 3, 65, 100
6, 43183, Note_on_c, 3, 65, 0
6, 43184, Note_on_c, 3, 62, 100
6, 43191, Note_on_c, 3, 62, 0
6, 43192, Note_on_c, 3, 59, 100
6, 43199, Note_on_c, 3, 59, 0
6, 43344, Note_on_c, 3, 62, 100
6, 43344, Note_on_c, 3, 65, 100
6, 43391, Note_on_c, 3, 62, 0
6, 43391, Note_on_c, 3, 65, 0
6, 43392, Note_on_c, 3, 69, 100
6, 43392, Note_on_c, 3, 65, 100
6, 43439, Note_on_c, 3, 69, 0
6, 43439, Note_on_c, 3, 65, 0
6, 43440, Note_on_c, 3, 67, 100
6, 43440, Note_on_c, 3, 71, 100
6, 43487, Note_on_c, 3, 67, 0
6, 43487, Note_on_c, 3, 71, 0
6, 43488, Note_on_c, 3, 71, 100
6, 43488, Note_on_c, 3, 67, 100
6, 43495, Note_on_c, 3, 71, 0
6, 43495, Note_on_c, 3, 67, 0
6, 43496, Note_on_c, 3, 72, 100
6, 43496, Note_on_c, 3, 68, 100
6, 43583, Note_on_c, 3, 72, 0
6, 43583, Note_on_c, 3, 68, 0
6, 43584, Note_on_c, 3, 69, 100
6, 43584, Note_on_c, 3, 72, 100
6, 43607, Note_on_c, 3, 69, 0
6, 43607, Note_on_c, 3, 72, 0
6, 43608, Note_on_c, 3, 67, 100
6, 43608, Note_on_c, 3, 71, 100
6, 43631, Note_on_c, 3, 67, 0
6, 43631, Note_on_c, 3, 71, 0
6, 43632, Note_on_c, 3, 65, 100
6, 43632, Note_on_c, 3, 69, 100
6, 43679, Note_on_c, 3, 65, 0
6, 43680, Note_on_c, 3, 62, 100
6, 43727, Note_on_c, 3, 69, 0
6, 43775, Note_on_c, 3, 62, 0
6, 43776, Note_on_c, 3, 69, 100
6, 43776, Note_on_c, 3, 65, 100
6, 43871, Note_on_c, 3, 69, 0
6, 43871, Note_on_c, 3, 65, 0
6, 43872, Note_on_c, 3, 67, 100
6, 43872, Note_on_c, 3, 62, 100
6, 43967, Note_on_c, 3, 67, 0
6, 43967, Note_on_c, 3, 62, 0
6, 43968, Note_on_c, 3, 65, 100
6, 43968, Note_on_c, 3, 60, 100
6, 44016, Note_on_c, 3, 57, 100
6, 44063, Note_on_c, 3, 65, 0
6, 44063, Note_on_c, 3, 60, 0
6, 44063, Note_on_c, 3, 57, 0
6, 44064, Note_on_c, 3, 65, 100
6, 44064, Note_on_c, 3, 60, 100
6, 44159, Note_on_c, 3, 65, 0
6, 44159, Note_on_c, 3, 60, 0
6, 44160, Note_on_c, 3, 60, 100
6, 44160, Note_on_c, 3, 65, 100
6, 44171, Note_on_c, 3, 60, 0
6, 44171, Note_on_c, 3, 65, 0
6, 44172, Note_on_c, 3, 67, 100
6, 44172, Note_on_c, 3, 62, 100
6, 44255, Note_on_c, 3, 67, 0
6, 44255, Note_on_c, 3, 62, 0
6, 44256, Note_on_c, 3, 65, 100
6, 44256, Note_on_c, 3, 60, 100
6, 44351, Note_on_c, 3, 65, 0
6, 44351, Note_on_c, 3, 60, 0
6, 44352, Note_on_c, 3, 55, 100
6, 44415, Note_on_c, 3, 55, 0
6, 44416, Note_on_c, 3, 56, 100
6, 44479, Note_on_c, 3, 56, 0
6, 44480, Note_on_c, 3, 57, 100
6, 44543, Note_on_c, 3, 57, 0
6, 46848, Note_on_c, 3, 50, 100
6, 46991, Note_on_c, 3, 50, 0
6, 46992, Note_on_c, 3, 52, 100
6, 47135, Note_on_c, 3, 52, 0
6, 47136, Note_on_c, 3, 53, 100
6, 47279, Note_on_c, 3, 53, 0
6, 47280, Note_on_c, 3, 55, 100
6, 47375, Note_on_c, 3, 55, 0
6, 47376, Note_on_c, 3, 57, 100
6, 47423, Note_on_c, 3, 57, 0
6, 47424, Note_on_c, 3, 52, 100
6, 47567, Note_on_c, 3, 52, 0
6, 47616, Note_on_c, 3, 60, 100
6, 47663, Note_on_c, 3, 60, 0
6, 47664, Note_on_c, 3, 59, 100
6, 47711, Note_on_c, 3, 59, 0
6, 47712, Note_on_c, 3, 58, 100
6, 47855, Note_on_c, 3, 58, 0
6, 47904, Note_on_c, 3, 60, 100
6, 47951, Note_on_c, 3, 60, 0
6, 47952, Note_on_c, 3, 62, 100
6, 47999, Note_on_c, 3, 62, 0
6, 48000, Note_on_c, 3, 57, 100
6, 48143, Note_on_c, 3, 57, 0
6, 48192, Note_on_c, 3, 53, 100
6, 48239, Note_on_c, 3, 53, 0
6, 48240, Note_on_c, 3, 52, 100
6, 48287, Note_on_c, 3, 52, 0
6, 48288, Note_on_c, 3, 50, 100
6, 48431, Note_on_c, 3, 50, 0
6, 48432, Note_on_c, 3, 52, 100
6, 48575, Note_on_c, 3, 52, 0
6, 48576, Note_on_c, 3, 53, 100
6, 48719, Note_on_c, 3, 53, 0
6, 48720, Note_on_c, 3, 55, 100
6, 48815, Note_on_c, 3, 55, 0
6, 48816, Note_on_c, 3, 57, 100
6, 48863, Note_on_c, 3, 57, 0
6, 48864, Note_on_c, 3, 52, 100
6, 49007, Note_on_c, 3, 52, 0
6, 49056, Note_on_c, 3, 60, 100
6, 49103, Note_on_c, 3, 60, 0
6, 49104, Note_on_c, 3, 59, 100
6, 49151, Note_on_c, 3, 59, 0
6, 49152, Note_on_c, 3, 58, 100
6, 49295, Note_on_c, 3, 58, 0
6, 49344, Note_on_c, 3, 60, 100
6, 49391, Note_on_c, 3, 60, 0
6, 49392, Note_on_c, 3, 62, 100
6, 49439, Note_on_c, 3, 62, 0
6, 49440, Note_on_c, 3, 57, 100
6, 49583, Note_on_c, 3, 57, 0
6, 49632, Note_on_c, 3, 53, 100
6, 49679, Note_on_c, 3, 53, 0
6, 49680, Note_on_c, 3, 52, 100
6, 49727, Note_on_c, 3, 52, 0
6, 49728, Note_on_c, 3, 50, 100
6, 49871, Note_on_c, 3, 50, 0
6, 49872, Note_on_c, 3, 52, 100
6, 50015, Note_on_c, 3, 52, 0
6, 50016, Note_on_c, 3, 53, 100
6, 50159, Note_on_c, 3, 53, 0
6, 50160, Note_on_c, 3, 55, 100
6, 50255, Note_on_c, 3, 55, 0
6, 50256, Note_on_c, 3, 57, 100
6, 50303, Note_on_c, 3, 57, 0
6, 50304, Note_on_c, 3, 52, 100
6, 50447, Note_on_c, 3, 52, 0
6, 50496, Note_on_c, 3, 60, 100
6, 50543, Note_on_c, 3, 60, 0
6, 50544, Note_on_c, 3, 59, 100
6, 50591, Note_on_c, 3, 59, 0
6, 50592, Note_on_c, 3, 58, 100
6, 50735, Note_on_c, 3, 58, 0
6, 50784, Note_on_c, 3, 60, 100
6, 50831, Note_on_c, 3, 60, 0
6, 50832, Note_on_c, 3, 62, 100
6, 50879, Note_on_c, 3, 62, 0
6, 50880, Note_on_c, 3, 57, 100
6, 51023, Note_on_c, 3, 57, 0
6, 51072, Note_on_c, 3, 53, 100
6, 51119, Note_on_c, 3, 53, 0
6, 51120, Note_on_c, 3, 52, 100
6, 51167, Note_on_c, 3, 52, 0
6, 51168, Note_on_c, 3, 50, 100
6, 51311, Note_on_c, 3, 50, 0
6, 51312, Note_on_c, 3, 52, 100
6, 51455, Note_on_c, 3, 52, 0
6, 51456, Note_on_c, 3, 53, 100
6, 51599, Note_on_c, 3, 53, 0
6, 51600, Note_on_c, 3, 55, 100
6, 51695, Note_on_c, 3, 55, 0
6, 51696, Note_on_c, 3, 57, 100
6, 51743, Note_on_c, 3, 57, 0
6, 51744, Note_on_c, 3, 52, 100
6, 51887, Note_on_c, 3, 52, 0
6, 51936, Note_on_c, 3, 60, 100
6, 51983, Note_on_c, 3, 60, 0
6, 51984, Note_on_c, 3, 59, 100
6, 52031, Note_on_c, 3, 59, 0
6, 52032, Note_on_c, 3, 58, 100
6, 52175, Note_on_c, 3, 58, 0
6, 52224, Note_on_c, 3, 60, 100
6, 52271, Note_on_c, 3, 60, 0
6, 52272, Note_on_c, 3, 62, 100
6, 52319, Note_on_c, 3, 62, 0
6, 52320, Note_on_c, 3, 57, 100
6, 52463, Note_on_c, 3, 57, 0
6, 52512, Note_on_c, 3, 53, 100
6, 52559, Note_on_c, 3, 53, 0
6, 52560, Note_on_c, 3, 52, 100
6, 52607, Note_on_c, 3, 52, 0
6, 52608, Note_on_c, 3, 50, 100
6, 52751, Note_on_c, 3, 50, 0
6, 52752, Note_on_c, 3, 52, 100
6, 52895, Note_on_c, 3, 52, 0
6, 52896, Note_on_c, 3, 53, 100
6, 53039, Note_on_c, 3, 53, 0
6, 53040, Note_on_c, 3, 55, 100
6, 53135, Note_on_c, 3, 55, 0
6, 53136, Note_on_c, 3, 57, 100
6, 53183, Note_on_c, 3, 57, 0
6, 53184, Note_on_c, 3, 52, 100
6, 53327, Note_on_c, 3, 52, 0
6, 53376, Note_on_c, 3, 60, 100
6, 53423, Note_on_c, 3, 60, 0
6, 53424, Note_on_c, 3, 59, 100
6, 53471, Note_on_c, 3, 59, 0
6, 53472, Note_on_c, 3, 58, 100
6, 53615, Note_on_c, 3, 58, 0
6, 53664, Note_on_c, 3, 60, 100
6, 53711, Note_on_c, 3, 60, 0
6, 53712, Note_on_c, 3, 62, 100
6, 53759, Note_on_c, 3, 62, 0
6, 53760, Note_on_c, 3, 57, 100
6, 53903, Note_on_c, 3, 57, 0
6, 53952, Note_on_c, 3, 53, 100
6, 53999, Note_on_c, 3, 53, 0
6, 54000, Note_on_c, 3, 52, 100
6, 54047, Note_on_c, 3, 52, 0
6, 54048, Note_on_c, 3, 50, 100
6, 54191, Note_on_c, 3, 50, 0
6, 54192, Note_on_c, 3, 52, 100
6, 54335, Note_on_c, 3, 52, 0
6, 54336, Note_on_c, 3, 53, 100
6, 54479, Note_on_c, 3, 53, 0
6, 54480, Note_on_c, 3, 55, 100
6, 54575, Note_on_c, 3, 55, 0
6, 54576, Note_on_c, 3, 57, 100
6, 54623, Note_on_c, 3, 57, 0
6, 54624, Note_on_c, 3, 52, 100
6, 54767, Note_on_c, 3, 52, 0
6, 54816, Note_on_c, 3, 60, 100
6, 54863, Note_on_c, 3, 60, 0
6, 54864, Note_on_c, 3, 59, 100
6, 54911, Note_on_c, 3, 59, 0
6, 54912, Note_on_c, 3, 58, 100
6, 55055, Note_on_c, 3, 58, 0
6, 55104, Note_on_c, 3, 60, 100
6, 55151, Note_on_c, 3, 60, 0
6, 55152, Note_on_c, 3, 62, 100
6, 55199, Note_on_c, 3, 62, 0
6, 55200, Note_on_c, 3, 57, 100
6, 55343, Note_on_c, 3, 57, 0
6, 55392, Note_on_c, 3, 53, 100
6, 55439, Note_on_c, 3, 53, 0
6, 55440, Note_on_c, 3, 52, 100
6, 55487, Note_on_c, 3, 52, 0
6, 55488, Note_on_c, 3, 50, 100
6, 55631, Note_on_c, 3, 50, 0
6, 55632, Note_on_c, 3, 52, 100
6, 55775, Note_on_c, 3, 52, 0
6, 55776, Note_on_c, 3, 53, 100
6, 55919, Note_on_c, 3, 53, 0
6, 55920, Note_on_c, 3, 55, 100
6, 56015, Note_on_c, 3, 55, 0
6, 56016, Note_on_c, 3, 57, 100
6, 56063, Note_on_c, 3, 57, 0
6, 56064, Note_on_c, 3, 52, 100
6, 56207, Note_on_c, 3, 52, 0
6, 56256, Note_on_c, 3, 60, 100
6, 56303, Note_on_c, 3, 60, 0
6, 56304, Note_on_c, 3, 59, 100
6, 56351, Note_on_c, 3, 59, 0
6, 56352, Note_on_c, 3, 58, 100
6, 56495, Note_on_c, 3, 58, 0
6, 56544, Note_on_c, 3, 60, 100
6, 56591, Note_on_c, 3, 60, 0
6, 56592, Note_on_c, 3, 62, 100
6, 56639, Note_on_c, 3, 62, 0
6, 56640, Note_on_c, 3, 57, 100
6, 56783, Note_on_c, 3, 57, 0
6, 56832, Note_on_c, 3, 53, 100
6, 56879, Note_on_c, 3, 53, 0
6, 56880, Note_on_c, 3, 52, 100
6, 56927, Note_on_c, 3, 52, 0
6, 56928, Note_on_c, 3, 50, 100
6, 57071, Note_on_c, 3, 50, 0
6, 57072, Note_on_c, 3, 52, 100
6, 57215, Note_on_c, 3, 52, 0
6, 57216, Note_on_c, 3, 53, 100
6, 57359, Note_on_c, 3, 53, 0
6, 57360, Note_on_c, 3, 55, 100
6, 57455, Note_on_c, 3, 55, 0
6, 57456, Note_on_c, 3, 57, 100
6, 57503, Note_on_c, 3, 57, 0
6, 57504, Note_on_c, 3, 52, 100
6, 57647, Note_on_c, 3, 52, 0
6, 57696, Note_on_c, 3, 60, 100
6, 57743, Note_on_c, 3, 60, 0
6, 57744, Note_on_c, 3, 59, 100
6, 57791, Note_on_c, 3, 59, 0
6, 57792, Note_on_c, 3, 58, 100
6, 57935, Note_on_c, 3, 58, 0
6, 57984, Note_on_c, 3, 60, 100
6, 58031, Note_on_c, 3, 60, 0
6, 58032, Note_on_c, 3, 62, 100
6, 58079, Note_on_c, 3, 62, 0
6, 58080, Note_on_c, 3, 57, 100
6, 58223, Note_on_c, 3, 57, 0
6, 58272, Note_on_c, 3, 53, 100
6, 58319, Note_on_c, 3, 53, 0
6, 58320, Note_on_c, 3, 52, 100
6, 58367, Note_on_c, 3, 52, 0
6, 58368, Note_on_c, 3, 50, 100
6, 58511, Note_on_c, 3, 50, 0
6, 58512, Note_on_c, 3, 52, 100
6, 58655, Note_on_c, 3, 52, 0
6, 58656, Note_on_c, 3, 53, 100
6, 58799, Note_on_c, 3, 53, 0
6, 58800, Note_on_c, 3, 55, 100
6, 58895, Note_on_c, 3, 55, 0
6, 58896, Note_on_c, 3, 57, 100
6, 58943, Note_on_c, 3, 57, 0
6, 58944, Note_on_c, 3, 52, 100
6, 59087, Note_on_c, 3, 52, 0
6, 59136, Note_on_c, 3, 60, 100
6, 59183, Note_on_c, 3, 60, 0
6, 59184, Note_on_c, 3, 59, 100
6, 59231, Note_on_c, 3, 59, 0
6, 59232, Note_on_c, 3, 58, 100
6, 59375, Note_on_c, 3, 58, 0
6, 59424, Note_on_c, 3, 60, 100
6, 59471, Note_on_c, 3, 60, 0
6, 59472, Note_on_c, 3, 62, 100
6, 59519, Note_on_c, 3, 62, 0
6, 59520, Note_on_c, 3, 57, 100
6, 59663, Note_on_c, 3, 57, 0
6, 59712, Note_on_c, 3, 53, 100
6, 59759, Note_on_c, 3, 53, 0
6, 59760, Note_on_c, 3, 52, 100
6, 59807, Note_on_c, 3, 52, 0
6, 59808, Note_on_c, 3, 50, 100
6, 59951, Note_on_c, 3, 50, 0
6, 59952, Note_on_c, 3, 52, 100
6, 60095, Note_on_c, 3, 52, 0
6, 60096, Note_on_c, 3, 53, 100
6, 60239, Note_on_c, 3, 53, 0
6, 60240, Note_on_c, 3, 55, 100
6, 60335, Note_on_c, 3, 55, 0
6, 60336, Note_on_c, 3, 57, 100
6, 60383, Note_on_c, 3, 57, 0
6, 60384, Note_on_c, 3, 52, 100
6, 60527, Note_on_c, 3, 52, 0
6, 60576, Note_on_c, 3, 60, 100
6, 60623, Note_on_c, 3, 60, 0
6, 60624, Note_on_c, 3, 59, 100
6, 60671, Note_on_c, 3, 59, 0
6, 60672, Note_on_c, 3, 58, 100
6, 60815, Note_on_c, 3, 58, 0
6, 60864, Note_on_c, 3, 60, 100
6, 60911, Note_on_c, 3, 60, 0
6, 60912, Note_on_c, 3, 62, 100
6, 60959, Note_on_c, 3, 62, 0
6, 60960, Note_on_c, 3, 57, 100
6, 61103, Note_on_c, 3, 57, 0
6, 61152, Note_on_c, 3, 53, 100
6, 61199, Note_on_c, 3, 53, 0
6, 61200, Note_on_c, 3, 52, 100
6, 61247, Note_on_c, 3, 52, 0
6, 61248, Note_on_c, 3, 50, 100
6, 61391, Note_on_c, 3, 50, 0
6, 61392, Note_on_c, 3, 52, 100
6, 61535, Note_on_c, 3, 52, 0
6, 61536, Note_on_c, 3, 53, 100
6, 61679, Note_on_c, 3, 53, 0
6, 61680, Note_on_c, 3, 55, 100
6, 61775, Note_on_c, 3, 55, 0
6, 61776, Note_on_c, 3, 57, 100
6, 61823, Note_on_c, 3, 57, 0
6, 61824, Note_on_c, 3, 52, 100
6, 61967, Note_on_c, 3, 52, 0
6, 62016, Note_on_c, 3, 60, 100
6, 62063, Note_on_c, 3, 60, 0
6, 62064, Note_on_c, 3, 59, 100
6, 62111, Note_on_c, 3, 59, 0
6, 62112, Note_on_c, 3, 58, 100
6, 62255, Note_on_c, 3, 58, 0
6, 62304, Note_on_c, 3, 60, 100
6, 62351, Note_on_c, 3, 60, 0
6, 62352, Note_on_c, 3, 62, 100
6, 62399, Note_on_c, 3, 62, 0
6, 62400, Note_on_c, 3, 57, 100
6, 62543, Note_on_c, 3, 57, 0
6, 62592, Note_on_c, 3, 53, 100
6, 62639, Note_on_c, 3, 53, 0
6, 62640, Note_on_c, 3, 52, 100
6, 62687, Note_on_c, 3, 52, 0
6, 62688, Note_on_c, 3, 50, 100
6, 62831, Note_on_c, 3, 50, 0
6, 62832, Note_on_c, 3, 52, 100
6, 62975, Note_on_c, 3, 52, 0
6, 62976, Note_on_c, 3, 53, 100
6, 63119, Note_on_c, 3, 53, 0
6, 63120, Note_on_c, 3, 55, 100
6, 63215, Note_on_c, 3, 55, 0
6, 63216, Note_on_c, 3, 57, 100
6, 63263, Note_on_c, 3, 57, 0
6, 63264, Note_on_c, 3, 52, 100
6, 63407, Note_on_c, 3, 52, 0
6, 63456, Note_on_c, 3, 60, 100
6, 63503, Note_on_c, 3, 60, 0
6, 63504, Note_on_c, 3, 59, 100
6, 63551, Note_on_c, 3, 59, 0
6, 63552, Note_on_c, 3, 58, 100
6, 63695, Note_on_c, 3, 58, 0
6, 63744, Note_on_c, 3, 60, 100
6, 63791, Note_on_c, 3, 60, 0
6, 63792, Note_on_c, 3, 62, 100
6, 63839, Note_on_c, 3, 62, 0
6, 63840, Note_on_c, 3, 57, 100
6, 63983, Note_on_c, 3, 57, 0
6, 64032, Note_on_c, 3, 53, 100
6, 64079, Note_on_c, 3, 53, 0
6, 64080, Note_on_c, 3, 52, 100
6, 64127, Note_on_c, 3, 52, 0
6, 64128, Note_on_c, 3, 50, 100
6, 64271, Note_on_c, 3, 50, 0
6, 64272, Note_on_c, 3, 52, 100
6, 64415, Note_on_c, 3, 52, 0
6, 64416, Note_on_c, 3, 53, 100
6, 64559, Note_on_c, 3, 53, 0
6, 64560, Note_on_c, 3, 55, 100
6, 64655, Note_on_c, 3, 55, 0
6, 64656, Note_on_c, 3, 57, 100
6, 64703, Note_on_c, 3, 57, 0
6, 64704, Note_on_c, 3, 52, 100
6, 64847, Note_on_c, 3, 52, 0
6, 64896, Note_on_c, 3, 60, 100
6, 64943, Note_on_c, 3, 60, 0
6, 64944, Note_on_c, 3, 59, 100
6, 64991, Note_on_c, 3, 59, 0
6, 64992, Note_on_c, 3, 58, 100
6, 65135, Note_on_c, 3, 58, 0
6, 65184, Note_on_c, 3, 60, 100
6, 65231, Note_on_c, 3, 60, 0
6, 65232, Note_on_c, 3, 62, 100
6, 65279, Note_on_c, 3, 62, 0
6, 65280, Note_on_c, 3, 57, 100
6, 65423, Note_on_c, 3, 57, 0
6, 65472, Note_on_c, 3, 53, 100
6, 65519, Note_on_c, 3, 53, 0
6, 65520, Note_on_c, 3, 52, 100
6, 65567, Note_on_c, 3, 52, 0
6, 65568, Note_on_c, 3, 50, 100
6, 65711, Note_on_c, 3, 50, 0
6, 65712, Note_on_c, 3, 52, 100
6, 65855, Note_on_c, 3, 52, 0
6, 65856, Note_on_c, 3, 53, 100
6, 65999, Note_on_c, 3, 53, 0
6, 66000, Note_on_c, 3, 55, 100
6, 66095, Note_on_c, 3, 55, 0
6, 66096, Note_on_c, 3, 57, 100
6, 66143, Note_on_c, 3, 57, 0
6, 66144, Note_on_c, 3, 52, 100
6, 66287, Note_on_c, 3, 52, 0
6, 66336, Note_on_c, 3, 60, 100
6, 66383, Note_on_c, 3, 60, 0
6, 66384, Note_on_c, 3, 59, 100
6, 66431, Note_on_c, 3, 59, 0
6, 66432, Note_on_c, 3, 58, 100
6, 66575, Note_on_c, 3, 58, 0
6, 66624, Note_on_c, 3, 60, 100
6, 66671, Note_on_c, 3, 60, 0
6, 66672, Note_on_c, 3, 62, 100
6, 66719, Note_on_c, 3, 62, 0
6, 66720, Note_on_c, 3, 57, 100
6, 66863, Note_on_c, 3, 57, 0
6, 66912, Note_on_c, 3, 53, 100
6, 66959, Note_on_c, 3, 53, 0
6, 66960, Note_on_c, 3, 52, 100
6, 67007, Note_on_c, 3, 52, 0
6, 67008, Note_on_c, 3, 50, 100
6, 67151, Note_on_c, 3, 50, 0
6, 67152, Note_on_c, 3, 52, 100
6, 67295, Note_on_c, 3, 52, 0
6, 67296, Note_on_c, 3, 53, 100
6, 67439, Note_on_c, 3, 53, 0
6, 67440, Note_on_c, 3, 55, 100
6, 67535, Note_on_c, 3, 55, 0
6, 67536, Note_on_c, 3, 57, 100
6, 67583, Note_on_c, 3, 57, 0
6, 67584, Note_on_c, 3, 52, 100
6, 67727, Note_on_c, 3, 52, 0
6, 67776, Note_on_c, 3, 60, 100
6, 67823, Note_on_c, 3, 60, 0
6, 67824, Note_on_c, 3, 59, 100
6, 67871, Note_on_c, 3, 59, 0
6, 67872, Note_on_c, 3, 58, 100
6, 68015, Note_on_c, 3, 58, 0
6, 68064, Note_on_c, 3, 60, 100
6, 68111, Note_on_c, 3, 60, 0
6, 68112, Note_on_c, 3, 62, 100
6, 68159, Note_on_c, 3, 62, 0
6, 68160, Note_on_c, 3, 57, 100
6, 68207, Note_on_c, 3, 57, 0
6, 68207, End_track
7, 0, Start_track
7, 0, Title_t, "Keyboards - Organ 3"
7, 0, MIDI_port, 0
7, 96, Control_c, 4, 121, 0
7, 97, Control_c, 4, 7, 100
7, 98, Control_c, 4, 10, 32
7, 99, Control_c, 4, 91, 64
7, 100, Control_c, 4, 93, 70
7, 101, Control_c, 4, 32, 0
7, 101, Control_c, 4, 0, 0
7, 101, Program_c, 4, 18
7, 672, Note_on_c, 4, 77, 100
7, 672, Note_on_c, 4, 74, 100
7, 1535, Note_on_c, 4, 77, 0
7, 1535, Note_on_c, 4, 74, 0
7, 1536, Note_on_c, 4, 77, 100
7, 1536, Note_on_c, 4, 69, 100
7, 1536, Note_on_c, 4, 73, 100
7, 2111, Note_on_c, 4, 77, 0
7, 2111, Note_on_c, 4, 69, 0
7, 2111, Note_on_c, 4, 73, 0
7, 2304, Note_on_c, 4, 69, 100
7, 2304, Note_on_c, 4, 76, 100
7, 2351, Note_on_c, 4, 69, 0
7, 2351, Note_on_c, 4, 76, 0
7, 2352, Note_on_c, 4, 69, 100
7, 2352, Note_on_c, 4, 76, 100
7, 2399, Note_on_c, 4, 69, 0
7, 2399, Note_on_c, 4, 76, 0
7, 2400, Note_on_c, 4, 76, 100
7, 2400, Note_on_c, 4, 69, 100
7, 2447, Note_on_c, 4, 76, 0
7, 2447, Note_on_c, 4, 69, 0
7, 3264, Note_on_c, 4, 76, 100
7, 3264, Note_on_c, 4, 69, 100
7, 3311, Note_on_c, 4, 76, 0
7, 3311, Note_on_c, 4, 69, 0
7, 3312, Note_on_c, 4, 69, 100
7, 3312, Note_on_c, 4, 76, 100
7, 3359, Note_on_c, 4, 69, 0
7, 3359, Note_on_c, 4, 76, 0
7, 3360, Note_on_c, 4, 76, 100
7, 3360, Note_on_c, 4, 69, 100
7, 3407, Note_on_c, 4, 76, 0
7, 3407, Note_on_c, 4, 69, 0
7, 3408, Note_on_c, 4, 69, 100
7, 3408, Note_on_c, 4, 76, 100
7, 3455, Note_on_c, 4, 69, 0
7, 3455, Note_on_c, 4, 76, 0
7, 4032, Note_on_c, 4, 76, 100
7, 4032, Note_on_c, 4, 69, 100
7, 4079, Note_on_c, 4, 76, 0
7, 4079, Note_on_c, 4, 69, 0
7, 4080, Note_on_c, 4, 76, 100
7, 4080, Note_on_c, 4, 69, 100
7, 4127, Note_on_c, 4, 76, 0
7, 4127, Note_on_c, 4, 69, 0
7, 4128, Note_on_c, 4, 76, 100
7, 4128, Note_on_c, 4, 69, 100
7, 4175, Note_on_c, 4, 76, 0
7, 4175, Note_on_c, 4, 69, 0
7, 4416, Note_on_c, 4, 76, 100
7, 4416, Note_on_c, 4, 69, 100
7, 4416, Note_on_c, 4, 72, 100
7, 4607, Note_on_c, 4, 76, 0
7, 4607, Note_on_c, 4, 69, 0
7, 4607, Note_on_c, 4, 72, 0
7, 4608, Note_on_c, 4, 67, 100
7, 4608, Note_on_c, 4, 76, 100
7, 4608, Note_on_c, 4, 72, 100
7, 4799, Note_on_c, 4, 67, 0
7, 4799, Note_on_c, 4, 76, 0
7, 4799, Note_on_c, 4, 72, 0
7, 4800, Note_on_c, 4, 74, 100
7, 4800, Note_on_c, 4, 78, 100
7, 4800, Note_on_c, 4, 69, 100
7, 4991, Note_on_c, 4, 74, 0
7, 4991, Note_on_c, 4, 78, 0
7, 4991, Note_on_c, 4, 69, 0
7, 4992, Note_on_c, 4, 81, 100
7, 4992, Note_on_c, 4, 77, 100
7, 4992, Note_on_c, 4, 74, 100
7, 5183, Note_on_c, 4, 81, 0
7, 5183, Note_on_c, 4, 77, 0
7, 5183, Note_on_c, 4, 74, 0
7, 5184, Note_on_c, 4, 74, 100
7, 5195, Note_on_c, 4, 74, 0
7, 5196, Note_on_c, 4, 76, 100
7, 5231, Note_on_c, 4, 76, 0
7, 5232, Note_on_c, 4, 74, 100
7, 5279, Note_on_c, 4, 74, 0
7, 5280, Note_on_c, 4, 72, 100
7, 5375, Note_on_c, 4, 72, 0
7, 5376, Note_on_c, 4, 76, 100
7, 5376, Note_on_c, 4, 72, 100
7, 5472, Note_on_c, 4, 69, 100
7, 5519, Note_on_c, 4, 76, 0
7, 5519, Note_on_c, 4, 72, 0
7, 5520, Note_on_c, 4, 72, 100
7, 5520, Note_on_c, 4, 76, 100
7, 5567, Note_on_c, 4, 69, 0
7, 5567, Note_on_c, 4, 72, 0
7, 5567, Note_on_c, 4, 76, 0
7, 5568, Note_on_c, 4, 69, 100
7, 5616, Note_on_c, 4, 72, 100
7, 5616, Note_on_c, 4, 76, 100
7, 5663, Note_on_c, 4, 72, 0
7, 5663, Note_on_c, 4, 76, 0
7, 5664, Note_on_c, 4, 76, 100
7, 5664, Note_on_c, 4, 72, 100
7, 5711, Note_on_c, 4, 69, 0
7, 5712, Note_on_c, 4, 69, 100
7, 5759, Note_on_c, 4, 76, 0
7, 5759, Note_on_c, 4, 72, 0
7, 5759, Note_on_c, 4, 69, 0
7, 5760, Note_on_c, 4, 72, 100
7, 5760, Note_on_c, 4, 76, 100
7, 5856, Note_on_c, 4, 69, 100
7, 5903, Note_on_c, 4, 72, 0
7, 5903, Note_on_c, 4, 76, 0
7, 5904, Note_on_c, 4, 76, 100
7, 5904, Note_on_c, 4, 73, 100
7, 6143, Note_on_c, 4, 69, 0
7, 6143, Note_on_c, 4, 76, 0
7, 6143, Note_on_c, 4, 73, 0
7, 6144, Note_on_c, 4, 77, 100
7, 6144, Note_on_c, 4, 74, 100
7, 6144, Note_on_c, 4, 69, 100
7, 6335, Note_on_c, 4, 77, 0
7, 6335, Note_on_c, 4, 74, 0
7, 6335, Note_on_c, 4, 69, 0
7, 6336, Note_on_c, 4, 69, 100
7, 6336, Note_on_c, 4, 77, 100
7, 6336, Note_on_c, 4, 73, 100
7, 6527, Note_on_c, 4, 69, 0
7, 6527, Note_on_c, 4, 77, 0
7, 6527, Note_on_c, 4, 73, 0
7, 6528, Note_on_c, 4, 69, 100
7, 6528, Note_on_c, 4, 72, 100
7, 6528, Note_on_c, 4, 77, 100
7, 6575, Note_on_c, 4, 69, 0
7, 6575, Note_on_c, 4, 72, 0
7, 6575, Note_on_c, 4, 77, 0
7, 6576, Note_on_c, 4, 77, 100
7, 6576, Note_on_c, 4, 69, 100
7, 6576, Note_on_c, 4, 72, 100
7, 6623, Note_on_c, 4, 77, 0
7, 6623, Note_on_c, 4, 69, 0
7, 6623, Note_on_c, 4, 72, 0
7, 6624, Note_on_c, 4, 77, 100
7, 6624, Note_on_c, 4, 69, 100
7, 6624, Note_on_c, 4, 72, 100
7, 6671, Note_on_c, 4, 77, 0
7, 6671, Note_on_c, 4, 69, 0
7, 6671, Note_on_c, 4, 72, 0
7, 6768, Note_on_c, 4, 71, 100
7, 6768, Note_on_c, 4, 69, 100
7, 6768, Note_on_c, 4, 77, 100
7, 6911, Note_on_c, 4, 71, 0
7, 6911, Note_on_c, 4, 69, 0
7, 6911, Note_on_c, 4, 77, 0
7, 6912, Note_on_c, 4, 77, 100
7, 6912, Note_on_c, 4, 69, 100
7, 6912, Note_on_c, 4, 74, 100
7, 7103, Note_on_c, 4, 77, 0
7, 7103, Note_on_c, 4, 69, 0
7, 7103, Note_on_c, 4, 74, 0
7, 7104, Note_on_c, 4, 73, 100
7, 7104, Note_on_c, 4, 77, 100
7, 7104, Note_on_c, 4, 69, 100
7, 7295, Note_on_c, 4, 73, 0
7, 7295, Note_on_c, 4, 77, 0
7, 7295, Note_on_c, 4, 69, 0
7, 7296, Note_on_c, 4, 77, 100
7, 7296, Note_on_c, 4, 72, 100
7, 7296, Note_on_c, 4, 69, 100
7, 7391, Note_on_c, 4, 77, 0
7, 7391, Note_on_c, 4, 72, 0
7, 7391, Note_on_c, 4, 69, 0
7, 7392, Note_on_c, 4, 69, 100
7, 7392, Note_on_c, 4, 72, 100
7, 7392, Note_on_c, 4, 77, 100
7, 7439, Note_on_c, 4, 69, 0
7, 7439, Note_on_c, 4, 72, 0
7, 7439, Note_on_c, 4, 77, 0
7, 7440, Note_on_c, 4, 77, 100
7, 7440, Note_on_c, 4, 69, 100
7, 7440, Note_on_c, 4, 72, 100
7, 7487, Note_on_c, 4, 77, 0
7, 7487, Note_on_c, 4, 69, 0
7, 7487, Note_on_c, 4, 72, 0
7, 7488, Note_on_c, 4, 72, 100
7, 7488, Note_on_c, 4, 77, 100
7, 7488, Note_on_c, 4, 69, 100
7, 7679, Note_on_c, 4, 72, 0
7, 7679, Note_on_c, 4, 77, 0
7, 7679, Note_on_c, 4, 69, 0
7, 7680, Note_on_c, 4, 69, 100
7, 7680, Note_on_c, 4, 77, 100
7, 7680, Note_on_c, 4, 74, 100
7, 7871, Note_on_c, 4, 69, 0
7, 7871, Note_on_c, 4, 77, 0
7, 7871, Note_on_c, 4, 74, 0
7, 7872, Note_on_c, 4, 77, 100
7, 7872, Note_on_c, 4, 73, 100
7, 7872, Note_on_c, 4, 69, 100
7, 8063, Note_on_c, 4, 77, 0
7, 8063, Note_on_c, 4, 73, 0
7, 8063, Note_on_c, 4, 69, 0
7, 8064, Note_on_c, 4, 72, 100
7, 8064, Note_on_c, 4, 69, 100
7, 8064, Note_on_c, 4, 77, 100
7, 8207, Note_on_c, 4, 72, 0
7, 8207, Note_on_c, 4, 69, 0
7, 8207, Note_on_c, 4, 77, 0
7, 8208, Note_on_c, 4, 69, 100
7, 8208, Note_on_c, 4, 71, 100
7, 8208, Note_on_c, 4, 77, 100
7, 8255, Note_on_c, 4, 69, 0
7, 8255, Note_on_c, 4, 71, 0
7, 8255, Note_on_c, 4, 77, 0
7, 8448, Note_on_c, 4, 74, 100
7, 8448, Note_on_c, 4, 69, 100
7, 8448, Note_on_c, 4, 77, 100
7, 8639, Note_on_c, 4, 74, 0
7, 8639, Note_on_c, 4, 69, 0
7, 8639, Note_on_c, 4, 77, 0
7, 8640, Note_on_c, 4, 69, 100
7, 8640, Note_on_c, 4, 72, 100
7, 8640, Note_on_c, 4, 77, 100
7, 8831, Note_on_c, 4, 69, 0
7, 8831, Note_on_c, 4, 72, 0
7, 8831, Note_on_c, 4, 77, 0
7, 8832, Note_on_c, 4, 72, 100
7, 8832, Note_on_c, 4, 79, 100
7, 8832, Note_on_c, 4, 77, 100
7, 9023, Note_on_c, 4, 72, 0
7, 9023, Note_on_c, 4, 79, 0
7, 9023, Note_on_c, 4, 77, 0
7, 9024, Note_on_c, 4, 77, 100
7, 9024, Note_on_c, 4, 74, 100
7, 9215, Note_on_c, 4, 77, 0
7, 9215, Note_on_c, 4, 74, 0
7, 9216, Note_on_c, 4, 74, 100
7, 9279, Note_on_c, 4, 74, 0
7, 9280, Note_on_c, 4, 75, 100
7, 9343, Note_on_c, 4, 75, 0
7, 9344, Note_on_c, 4, 76, 100
7, 9407, Note_on_c, 4, 76, 0
7, 9504, Note_on_c, 4, 89, 90
7, 9504, Note_on_c, 4, 80, 90
7, 9504, Note_on_c, 4, 86, 90
7, 9551, Note_on_c, 4, 89, 0
7, 9551, Note_on_c, 4, 80, 0
7, 9551, Note_on_c, 4, 86, 0
7, 9552, Note_on_c, 4, 89, 90
7, 9552, Note_on_c, 4, 86, 90
7, 9552, Note_on_c, 4, 80, 90
7, 9599, Note_on_c, 4, 89, 0
7, 9599, Note_on_c, 4, 86, 0
7, 9599, Note_on_c, 4, 80, 0
7, 9600, Note_on_c, 4, 86, 90
7, 9600, Note_on_c, 4, 89, 90
7, 9600, Note_on_c, 4, 80, 90
7, 9647, Note_on_c, 4, 86, 0
7, 9647, Note_on_c, 4, 89, 0
7, 9647, Note_on_c, 4, 80, 0
7, 9648, Note_on_c, 4, 86, 90
7, 9648, Note_on_c, 4, 80, 90
7, 9648, Note_on_c, 4, 89, 90
7, 9695, Note_on_c, 4, 86, 0
7, 9695, Note_on_c, 4, 80, 0
7, 9695, Note_on_c, 4, 89, 0
7, 9744, Note_on_c, 4, 80, 90
7, 9744, Note_on_c, 4, 86, 90
7, 9744, Note_on_c, 4, 89, 90
7, 9791, Note_on_c, 4, 80, 0
7, 9791, Note_on_c, 4, 86, 0
7, 9791, Note_on_c, 4, 89, 0
7, 9792, Note_on_c, 4, 86, 90
7, 9792, Note_on_c, 4, 89, 90
7, 9792, Note_on_c, 4, 80, 90
7, 9839, Note_on_c, 4, 86, 0
7, 9839, Note_on_c, 4, 89, 0
7, 9839, Note_on_c, 4, 80, 0
7, 9840, Note_on_c, 4, 89, 90
7, 9840, Note_on_c, 4, 80, 90
7, 9840, Note_on_c, 4, 86, 90
7, 9887, Note_on_c, 4, 89, 0
7, 9887, Note_on_c, 4, 80, 0
7, 9887, Note_on_c, 4, 86, 0
7, 10272, Note_on_c, 4, 89, 90
7, 10272, Note_on_c, 4, 80, 90
7, 10272, Note_on_c, 4, 86, 90
7, 10319, Note_on_c, 4, 89, 0
7, 10319, Note_on_c, 4, 80, 0
7, 10319, Note_on_c, 4, 86, 0
7, 10320, Note_on_c, 4, 86, 90
7, 10320, Note_on_c, 4, 80, 90
7, 10320, Note_on_c, 4, 89, 90
7, 10367, Note_on_c, 4, 86, 0
7, 10367, Note_on_c, 4, 80, 0
7, 10367, Note_on_c, 4, 89, 0
7, 10368, Note_on_c, 4, 89, 90
7, 10368, Note_on_c, 4, 86, 90
7, 10368, Note_on_c, 4, 80, 90
7, 10415, Note_on_c, 4, 89, 0
7, 10415, Note_on_c, 4, 86, 0
7, 10415, Note_on_c, 4, 80, 0
7, 10416, Note_on_c, 4, 89, 90
7, 10416, Note_on_c, 4, 80, 90
7, 10416, Note_on_c, 4, 86, 90
7, 10463, Note_on_c, 4, 89, 0
7, 10463, Note_on_c, 4, 80, 0
7, 10463, Note_on_c, 4, 86, 0
7, 10512, Note_on_c, 4, 89, 90
7, 10512, Note_on_c, 4, 80, 90
7, 10512, Note_on_c, 4, 86, 90
7, 10559, Note_on_c, 4, 89, 0
7, 10559, Note_on_c, 4, 80, 0
7, 10559, Note_on_c, 4, 86, 0
7, 10560, Note_on_c, 4, 89, 90
7, 10560, Note_on_c, 4, 86, 90
7, 10560, Note_on_c, 4, 80, 90
7, 10607, Note_on_c, 4, 89, 0
7, 10607, Note_on_c, 4, 86, 0
7, 10607, Note_on_c, 4, 80, 0
7, 10608, Note_on_c, 4, 86, 90
7, 10608, Note_on_c, 4, 89, 90
7, 10608, Note_on_c, 4, 80, 90
7, 10655, Note_on_c, 4, 86, 0
7, 10655, Note_on_c, 4, 89, 0
7, 10655, Note_on_c, 4, 80, 0
7, 11040, Note_on_c, 4, 89, 90
7, 11040, Note_on_c, 4, 80, 90
7, 11040, Note_on_c, 4, 86, 90
7, 11087, Note_on_c, 4, 89, 0
7, 11087, Note_on_c, 4, 80, 0
7, 11087, Note_on_c, 4, 86, 0
7, 11088, Note_on_c, 4, 89, 90
7, 11088, Note_on_c, 4, 80, 90
7, 11088, Note_on_c, 4, 86, 90
7, 11135, Note_on_c, 4, 89, 0
7, 11135, Note_on_c, 4, 80, 0
7, 11135, Note_on_c, 4, 86, 0
7, 11136, Note_on_c, 4, 89, 90
7, 11136, Note_on_c, 4, 86, 90
7, 11136, Note_on_c, 4, 80, 90
7, 11183, Note_on_c, 4, 89, 0
7, 11183, Note_on_c, 4, 86, 0
7, 11183, Note_on_c, 4, 80, 0
7, 11184, Note_on_c, 4, 89, 90
7, 11184, Note_on_c, 4, 86, 90
7, 11184, Note_on_c, 4, 80, 90
7, 11231, Note_on_c, 4, 89, 0
7, 11231, Note_on_c, 4, 86, 0
7, 11231, Note_on_c, 4, 80, 0
7, 11232, Note_on_c, 4, 86, 90
7, 11232, Note_on_c, 4, 89, 90
7, 11232, Note_on_c, 4, 80, 90
7, 11279, Note_on_c, 4, 86, 0
7, 11279, Note_on_c, 4, 89, 0
7, 11279, Note_on_c, 4, 80, 0
7, 11280, Note_on_c, 4, 86, 90
7, 11280, Note_on_c, 4, 80, 90
7, 11280, Note_on_c, 4, 89, 90
7, 11327, Note_on_c, 4, 86, 0
7, 11327, Note_on_c, 4, 80, 0
7, 11327, Note_on_c, 4, 89, 0
7, 11328, Note_on_c, 4, 89, 90
7, 11328, Note_on_c, 4, 80, 90
7, 11328, Note_on_c, 4, 86, 90
7, 11375, Note_on_c, 4, 89, 0
7, 11375, Note_on_c, 4, 80, 0
7, 11375, Note_on_c, 4, 86, 0
7, 14016, Note_on_c, 4, 72, 100
7, 14016, Note_on_c, 4, 76, 100
7, 14016, Note_on_c, 4, 69, 100
7, 14207, Note_on_c, 4, 72, 0
7, 14207, Note_on_c, 4, 76, 0
7, 14207, Note_on_c, 4, 69, 0
7, 14208, Note_on_c, 4, 72, 100
7, 14208, Note_on_c, 4, 67, 100
7, 14208, Note_on_c, 4, 76, 100
7, 14399, Note_on_c, 4, 72, 0
7, 14399, Note_on_c, 4, 67, 0
7, 14399, Note_on_c, 4, 76, 0
7, 14400, Note_on_c, 4, 69, 100
7, 14400, Note_on_c, 4, 74, 100
7, 14400, Note_on_c, 4, 78, 100
7, 14591, Note_on_c, 4, 69, 0
7, 14591, Note_on_c, 4, 74, 0
7, 14591, Note_on_c, 4, 78, 0
7, 14592, Note_on_c, 4, 77, 100
7, 14592, Note_on_c, 4, 81, 100
7, 14592, Note_on_c, 4, 74, 100
7, 14783, Note_on_c, 4, 77, 0
7, 14783, Note_on_c, 4, 81, 0
7, 14783, Note_on_c, 4, 74, 0
7, 14784, Note_on_c, 4, 74, 100
7, 14795, Note_on_c, 4, 74, 0
7, 14796, Note_on_c, 4, 76, 100
7, 14831, Note_on_c, 4, 76, 0
7, 14832, Note_on_c, 4, 74, 100
7, 14879, Note_on_c, 4, 74, 0
7, 14880, Note_on_c, 4, 72, 100
7, 14975, Note_on_c, 4, 72, 0
7, 14976, Note_on_c, 4, 76, 100
7, 14976, Note_on_c, 4, 72, 100
7, 15072, Note_on_c, 4, 69, 100
7, 15119, Note_on_c, 4, 76, 0
7, 15119, Note_on_c, 4, 72, 0
7, 15120, Note_on_c, 4, 72, 100
7, 15120, Note_on_c, 4, 76, 100
7, 15167, Note_on_c, 4, 69, 0
7, 15167, Note_on_c, 4, 72, 0
7, 15167, Note_on_c, 4, 76, 0
7, 15168, Note_on_c, 4, 69, 100
7, 15216, Note_on_c, 4, 76, 100
7, 15216, Note_on_c, 4, 72, 100
7, 15263, Note_on_c, 4, 76, 0
7, 15263, Note_on_c, 4, 72, 0
7, 15264, Note_on_c, 4, 76, 100
7, 15264, Note_on_c, 4, 72, 100
7, 15311, Note_on_c, 4, 69, 0
7, 15312, Note_on_c, 4, 69, 100
7, 15359, Note_on_c, 4, 76, 0
7, 15359, Note_on_c, 4, 72, 0
7, 15359, Note_on_c, 4, 69, 0
7, 15360, Note_on_c, 4, 72, 100
7, 15360, Note_on_c, 4, 76, 100
7, 15456, Note_on_c, 4, 69, 100
7, 15503, Note_on_c, 4, 72, 0
7, 15503, Note_on_c, 4, 76, 0
7, 15504, Note_on_c, 4, 73, 100
7, 15504, Note_on_c, 4, 76, 100
7, 15743, Note_on_c, 4, 69, 0
7, 15743, Note_on_c, 4, 73, 0
7, 15743, Note_on_c, 4, 76, 0
7, 15744, Note_on_c, 4, 74, 100
7, 15744, Note_on_c, 4, 77, 100
7, 15744, Note_on_c, 4, 69, 100
7, 15935, Note_on_c, 4, 74, 0
7, 15935, Note_on_c, 4, 77, 0
7, 15935, Note_on_c, 4, 69, 0
7, 15936, Note_on_c, 4, 69, 100
7, 15936, Note_on_c, 4, 77, 100
7, 15936, Note_on_c, 4, 73, 100
7, 16127, Note_on_c, 4, 69, 0
7, 16127, Note_on_c, 4, 77, 0
7, 16127, Note_on_c, 4, 73, 0
7, 16128, Note_on_c, 4, 69, 100
7, 16128, Note_on_c, 4, 77, 100
7, 16128, Note_on_c, 4, 72, 100
7, 16175, Note_on_c, 4, 69, 0
7, 16175, Note_on_c, 4, 77, 0
7, 16175, Note_on_c, 4, 72, 0
7, 16176, Note_on_c, 4, 72, 100
7, 16176, Note_on_c, 4, 69, 100
7, 16176, Note_on_c, 4, 77, 100
7, 16223, Note_on_c, 4, 72, 0
7, 16223, Note_on_c, 4, 69, 0
7, 16223, Note_on_c, 4, 77, 0
7, 16224, Note_on_c, 4, 69, 100
7, 16224, Note_on_c, 4, 72, 100
7, 16224, Note_on_c, 4, 77, 100
7, 16271, Note_on_c, 4, 69, 0
7, 16271, Note_on_c, 4, 72, 0
7, 16271, Note_on_c, 4, 77, 0
7, 16368, Note_on_c, 4, 69, 100
7, 16368, Note_on_c, 4, 71, 100
7, 16368, Note_on_c, 4, 77, 100
7, 16511, Note_on_c, 4, 69, 0
7, 16511, Note_on_c, 4, 71, 0
7, 16511, Note_on_c, 4, 77, 0
7, 16512, Note_on_c, 4, 77, 100
7, 16512, Note_on_c, 4, 74, 100
7, 16512, Note_on_c, 4, 69, 100
7, 16703, Note_on_c, 4, 77, 0
7, 16703, Note_on_c, 4, 74, 0
7, 16703, Note_on_c, 4, 69, 0
7, 16704, Note_on_c, 4, 69, 100
7, 16704, Note_on_c, 4, 73, 100
7, 16704, Note_on_c, 4, 77, 100
7, 16895, Note_on_c, 4, 69, 0
7, 16895, Note_on_c, 4, 73, 0
7, 16895, Note_on_c, 4, 77, 0
7, 16896, Note_on_c, 4, 77, 100
7, 16896, Note_on_c, 4, 69, 100
7, 16896, Note_on_c, 4, 72, 100
7, 16991, Note_on_c, 4, 77, 0
7, 16991, Note_on_c, 4, 69, 0
7, 16991, Note_on_c, 4, 72, 0
7, 16992, Note_on_c, 4, 77, 100
7, 16992, Note_on_c, 4, 69, 100
7, 16992, Note_on_c, 4, 72, 100
7, 17039, Note_on_c, 4, 77, 0
7, 17039, Note_on_c, 4, 69, 0
7, 17039, Note_on_c, 4, 72, 0
7, 17040, Note_on_c, 4, 72, 100
7, 17040, Note_on_c, 4, 69, 100
7, 17040, Note_on_c, 4, 77, 100
7, 17087, Note_on_c, 4, 72, 0
7, 17087, Note_on_c, 4, 69, 0
7, 17087, Note_on_c, 4, 77, 0
7, 17088, Note_on_c, 4, 69, 100
7, 17088, Note_on_c, 4, 72, 100
7, 17088, Note_on_c, 4, 77, 100
7, 17279, Note_on_c, 4, 69, 0
7, 17279, Note_on_c, 4, 72, 0
7, 17279, Note_on_c, 4, 77, 0
7, 17280, Note_on_c, 4, 69, 100
7, 17280, Note_on_c, 4, 74, 100
7, 17280, Note_on_c, 4, 77, 100
7, 17471, Note_on_c, 4, 69, 0
7, 17471, Note_on_c, 4, 74, 0
7, 17471, Note_on_c, 4, 77, 0
7, 17472, Note_on_c, 4, 73, 100
7, 17472, Note_on_c, 4, 77, 100
7, 17472, Note_on_c, 4, 69, 100
7, 17663, Note_on_c, 4, 73, 0
7, 17663, Note_on_c, 4, 77, 0
7, 17663, Note_on_c, 4, 69, 0
7, 17664, Note_on_c, 4, 77, 100
7, 17664, Note_on_c, 4, 69, 100
7, 17664, Note_on_c, 4, 72, 100
7, 17807, Note_on_c, 4, 77, 0
7, 17807, Note_on_c, 4, 69, 0
7, 17807, Note_on_c, 4, 72, 0
7, 17808, Note_on_c, 4, 69, 100
7, 17808, Note_on_c, 4, 77, 100
7, 17808, Note_on_c, 4, 71, 100
7, 17855, Note_on_c, 4, 69, 0
7, 17855, Note_on_c, 4, 77, 0
7, 17855, Note_on_c, 4, 71, 0
7, 18048, Note_on_c, 4, 74, 100
7, 18048, Note_on_c, 4, 69, 100
7, 18048, Note_on_c, 4, 77, 100
7, 18239, Note_on_c, 4, 74, 0
7, 18239, Note_on_c, 4, 69, 0
7, 18239, Note_on_c, 4, 77, 0
7, 18240, Note_on_c, 4, 69, 100
7, 18240, Note_on_c, 4, 72, 100
7, 18240, Note_on_c, 4, 77, 100
7, 18431, Note_on_c, 4, 69, 0
7, 18431, Note_on_c, 4, 72, 0
7, 18431, Note_on_c, 4, 77, 0
7, 18432, Note_on_c, 4, 72, 100
7, 18432, Note_on_c, 4, 79, 100
7, 18432, Note_on_c, 4, 77, 100
7, 18623, Note_on_c, 4, 72, 0
7, 18623, Note_on_c, 4, 79, 0
7, 18623, Note_on_c, 4, 77, 0
7, 18624, Note_on_c, 4, 77, 100
7, 18624, Note_on_c, 4, 74, 100
7, 18815, Note_on_c, 4, 77, 0
7, 18815, Note_on_c, 4, 74, 0
7, 18816, Note_on_c, 4, 74, 100
7, 18879, Note_on_c, 4, 74, 0
7, 18880, Note_on_c, 4, 75, 100
7, 18943, Note_on_c, 4, 75, 0
7, 18944, Note_on_c, 4, 76, 100
7, 19007, Note_on_c, 4, 76, 0
7, 19104, Note_on_c, 4, 86, 90
7, 19104, Note_on_c, 4, 80, 90
7, 19104, Note_on_c, 4, 89, 90
7, 19151, Note_on_c, 4, 86, 0
7, 19151, Note_on_c, 4, 80, 0
7, 19151, Note_on_c, 4, 89, 0
7, 19152, Note_on_c, 4, 80, 90
7, 19152, Note_on_c, 4, 86, 90
7, 19152, Note_on_c, 4, 89, 90
7, 19199, Note_on_c, 4, 80, 0
7, 19199, Note_on_c, 4, 86, 0
7, 19199, Note_on_c, 4, 89, 0
7, 19200, Note_on_c, 4, 80, 90
7, 19200, Note_on_c, 4, 89, 90
7, 19200, Note_on_c, 4, 86, 90
7, 19247, Note_on_c, 4, 80, 0
7, 19247, Note_on_c, 4, 89, 0
7, 19247, Note_on_c, 4, 86, 0
7, 19248, Note_on_c, 4, 89, 90
7, 19248, Note_on_c, 4, 80, 90
7, 19248, Note_on_c, 4, 86, 90
7, 19295, Note_on_c, 4, 89, 0
7, 19295, Note_on_c, 4, 80, 0
7, 19295, Note_on_c, 4, 86, 0
7, 19344, Note_on_c, 4, 80, 90
7, 19344, Note_on_c, 4, 89, 90
7, 19344, Note_on_c, 4, 86, 90
7, 19391, Note_on_c, 4, 80, 0
7, 19391, Note_on_c, 4, 89, 0
7, 19391, Note_on_c, 4, 86, 0
7, 19392, Note_on_c, 4, 86, 90
7, 19392, Note_on_c, 4, 89, 90
7, 19392, Note_on_c, 4, 80, 90
7, 19439, Note_on_c, 4, 86, 0
7, 19439, Note_on_c, 4, 89, 0
7, 19439, Note_on_c, 4, 80, 0
7, 19440, Note_on_c, 4, 89, 90
7, 19440, Note_on_c, 4, 86, 90
7, 19440, Note_on_c, 4, 80, 90
7, 19487, Note_on_c, 4, 89, 0
7, 19487, Note_on_c, 4, 86, 0
7, 19487, Note_on_c, 4, 80, 0
7, 19872, Note_on_c, 4, 86, 90
7, 19872, Note_on_c, 4, 89, 90
7, 19872, Note_on_c, 4, 80, 90
7, 19919, Note_on_c, 4, 86, 0
7, 19919, Note_on_c, 4, 89, 0
7, 19919, Note_on_c, 4, 80, 0
7, 19920, Note_on_c, 4, 86, 90
7, 19920, Note_on_c, 4, 80, 90
7, 19920, Note_on_c, 4, 89, 90
7, 19967, Note_on_c, 4, 86, 0
7, 19967, Note_on_c, 4, 80, 0
7, 19967, Note_on_c, 4, 89, 0
7, 19968, Note_on_c, 4, 89, 90
7, 19968, Note_on_c, 4, 80, 90
7, 19968, Note_on_c, 4, 86, 90
7, 20015, Note_on_c, 4, 89, 0
7, 20015, Note_on_c, 4, 80, 0
7, 20015, Note_on_c, 4, 86, 0
7, 20016, Note_on_c, 4, 80, 90
7, 20016, Note_on_c, 4, 86, 90
7, 20016, Note_on_c, 4, 89, 90
7, 20063, Note_on_c, 4, 80, 0
7, 20063, Note_on_c, 4, 86, 0
7, 20063, Note_on_c, 4, 89, 0
7, 20112, Note_on_c, 4, 80, 90
7, 20112, Note_on_c, 4, 86, 90
7, 20112, Note_on_c, 4, 89, 90
7, 20159, Note_on_c, 4, 80, 0
7, 20159, Note_on_c, 4, 86, 0
7, 20159, Note_on_c, 4, 89, 0
7, 20160, Note_on_c, 4, 89, 90
7, 20160, Note_on_c, 4, 86, 90
7, 20160, Note_on_c, 4, 80, 90
7, 20207, Note_on_c, 4, 89, 0
7, 20207, Note_on_c, 4, 86, 0
7, 20207, Note_on_c, 4, 80, 0
7, 20208, Note_on_c, 4, 80, 90
7, 20208, Note_on_c, 4, 86, 90
7, 20208, Note_on_c, 4, 89, 90
7, 20255, Note_on_c, 4, 80, 0
7, 20255, Note_on_c, 4, 86, 0
7, 20255, Note_on_c, 4, 89, 0
7, 20640, Note_on_c, 4, 89, 90
7, 20640, Note_on_c, 4, 86, 90
7, 20640, Note_on_c, 4, 80, 90
7, 20687, Note_on_c, 4, 89, 0
7, 20687, Note_on_c, 4, 86, 0
7, 20687, Note_on_c, 4, 80, 0
7, 20688, Note_on_c, 4, 89, 90
7, 20688, Note_on_c, 4, 86, 90
7, 20688, Note_on_c, 4, 80, 90
7, 20735, Note_on_c, 4, 89, 0
7, 20735, Note_on_c, 4, 86, 0
7, 20735, Note_on_c, 4, 80, 0
7, 20736, Note_on_c, 4, 86, 90
7, 20736, Note_on_c, 4, 89, 90
7, 20736, Note_on_c, 4, 80, 90
7, 20783, Note_on_c, 4, 86, 0
7, 20783, Note_on_c, 4, 89, 0
7, 20783, Note_on_c, 4, 80, 0
7, 20784, Note_on_c, 4, 80, 90
7, 20784, Note_on_c, 4, 86, 90
7, 20784, Note_on_c, 4, 89, 90
7, 20831, Note_on_c, 4, 80, 0
7, 20831, Note_on_c, 4, 86, 0
7, 20831, Note_on_c, 4, 89, 0
7, 20832, Note_on_c, 4, 89, 90
7, 20832, Note_on_c, 4, 86, 90
7, 20832, Note_on_c, 4, 80, 90
7, 20879, Note_on_c, 4, 89, 0
7, 20879, Note_on_c, 4, 86, 0
7, 20879, Note_on_c, 4, 80, 0
7, 20880, Note_on_c, 4, 80, 90
7, 20880, Note_on_c, 4, 86, 90
7, 20880, Note_on_c, 4, 89, 90
7, 20927, Note_on_c, 4, 80, 0
7, 20927, Note_on_c, 4, 86, 0
7, 20927, Note_on_c, 4, 89, 0
7, 20928, Note_on_c, 4, 80, 90
7, 20928, Note_on_c, 4, 86, 90
7, 20928, Note_on_c, 4, 89, 90
7, 20975, Note_on_c, 4, 80, 0
7, 20975, Note_on_c, 4, 86, 0
7, 20975, Note_on_c, 4, 89, 0
7, 21456, Note_on_c, 4, 86, 120
7, 21671, Note_on_c, 4, 86, 0
7, 21672, Note_on_c, 4, 84, 110
7, 21683, Note_on_c, 4, 84, 0
7, 21684, Note_on_c, 4, 81, 110
7, 21695, Note_on_c, 4, 81, 0
7, 21696, Note_on_c, 4, 79, 110
7, 21707, Note_on_c, 4, 79, 0
7, 21708, Note_on_c, 4, 80, 110
7, 21719, Note_on_c, 4, 80, 0
7, 21720, Note_on_c, 4, 79, 110
7, 21731, Note_on_c, 4, 79, 0
7, 21732, Note_on_c, 4, 77, 110
7, 21737, Note_on_c, 4, 77, 0
7, 21738, Note_on_c, 4, 74, 110
7, 21743, Note_on_c, 4, 74, 0
7, 21744, Note_on_c, 4, 79, 110
7, 21755, Note_on_c, 4, 79, 0
7, 21756, Note_on_c, 4, 80, 110
7, 21761, Note_on_c, 4, 80, 0
7, 21762, Note_on_c, 4, 81, 110
7, 21767, Note_on_c, 4, 81, 0
7, 21768, Note_on_c, 4, 80, 110
7, 21773, Note_on_c, 4, 80, 0
7, 21774, Note_on_c, 4, 79, 110
7, 21779, Note_on_c, 4, 79, 0
7, 21780, Note_on_c, 4, 77, 110
7, 21785, Note_on_c, 4, 77, 0
7, 21786, Note_on_c, 4, 72, 110
7, 21791, Note_on_c, 4, 72, 0
7, 21792, Note_on_c, 4, 74, 110
7, 21799, Note_on_c, 4, 74, 0
7, 21800, Note_on_c, 4, 72, 110
7, 21807, Note_on_c, 4, 72, 0
7, 21808, Note_on_c, 4, 69, 110
7, 21815, Note_on_c, 4, 69, 0
7, 21816, Note_on_c, 4, 67, 110
7, 21823, Note_on_c, 4, 67, 0
7, 21824, Note_on_c, 4, 68, 110
7, 21831, Note_on_c, 4, 68, 0
7, 21832, Note_on_c, 4, 67, 110
7, 21839, Note_on_c, 4, 67, 0
7, 21840, Note_on_c, 4, 65, 110
7, 21847, Note_on_c, 4, 65, 0
7, 21848, Note_on_c, 4, 62, 110
7, 21855, Note_on_c, 4, 62, 0
7, 21856, Note_on_c, 4, 65, 110
7, 21863, Note_on_c, 4, 65, 0
7, 21864, Note_on_c, 4, 67, 110
7, 21871, Note_on_c, 4, 67, 0
7, 21872, Note_on_c, 4, 65, 110
7, 21879, Note_on_c, 4, 65, 0
7, 21880, Note_on_c, 4, 62, 110
7, 21887, Note_on_c, 4, 62, 0
7, 21888, Note_on_c, 4, 67, 110
7, 21895, Note_on_c, 4, 67, 0
7, 21896, Note_on_c, 4, 68, 110
7, 21903, Note_on_c, 4, 68, 0
7, 21904, Note_on_c, 4, 67, 110
7, 21911, Note_on_c, 4, 67, 0
7, 21912, Note_on_c, 4, 65, 110
7, 21923, Note_on_c, 4, 65, 0
7, 21924, Note_on_c, 4, 62, 110
7, 21935, Note_on_c, 4, 62, 0
7, 21936, Note_on_c, 4, 67, 110
7, 21947, Note_on_c, 4, 67, 0
7, 21948, Note_on_c, 4, 68, 110
7, 21959, Note_on_c, 4, 68, 0
7, 21960, Note_on_c, 4, 67, 110
7, 21971, Note_on_c, 4, 67, 0
7, 21972, Note_on_c, 4, 69, 110
7, 21983, Note_on_c, 4, 69, 0
7, 21984, Note_on_c, 4, 72, 110
7, 21995, Note_on_c, 4, 72, 0
7, 21996, Note_on_c, 4, 76, 110
7, 22003, Note_on_c, 4, 76, 0
7, 22004, Note_on_c, 4, 77, 110
7, 22011, Note_on_c, 4, 77, 0
7, 22012, Note_on_c, 4, 79, 110
7, 22019, Note_on_c, 4, 79, 0
7, 22020, Note_on_c, 4, 80, 110
7, 22031, Note_on_c, 4, 80, 0
7, 22032, Note_on_c, 4, 81, 110
7, 22043, Note_on_c, 4, 81, 0
7, 22044, Note_on_c, 4, 84, 110
7, 22055, Note_on_c, 4, 84, 0
7, 22056, Note_on_c, 4, 86, 110
7, 22067, Note_on_c, 4, 86, 0
7, 22068, Note_on_c, 4, 89, 120
7, 22464, Note_on_c, 4, 85, 110
7, 22464, Note_on_c, 4, 81, 110
7, 22751, Note_on_c, 4, 89, 0
7, 22751, Note_on_c, 4, 85, 0
7, 22751, Note_on_c, 4, 81, 0
7, 22752, Note_on_c, 4, 93, 120
7, 22895, Note_on_c, 4, 93, 0
7, 22896, Note_on_c, 4, 91, 110
7, 22907, Note_on_c, 4, 91, 0
7, 22908, Note_on_c, 4, 92, 110
7, 22919, Note_on_c, 4, 92, 0
7, 22920, Note_on_c, 4, 91, 110
7, 22927, Note_on_c, 4, 91, 0
7, 22928, Note_on_c, 4, 89, 110
7, 22935, Note_on_c, 4, 89, 0
7, 22936, Note_on_c, 4, 86, 110
7, 22943, Note_on_c, 4, 86, 0
7, 22944, Note_on_c, 4, 89, 110
7, 22944, Note_on_c, 4, 86, 110
7, 22955, Note_on_c, 4, 86, 0
7, 22956, Note_on_c, 4, 86, 110
7, 22961, Note_on_c, 4, 86, 0
7, 22962, Note_on_c, 4, 84, 110
7, 22967, Note_on_c, 4, 89, 0
7, 22967, Note_on_c, 4, 84, 0
7, 22968, Note_on_c, 4, 86, 110
7, 22968, Note_on_c, 4, 81, 110
7, 22973, Note_on_c, 4, 86, 0
7, 22974, Note_on_c, 4, 84, 110
7, 22979, Note_on_c, 4, 84, 0
7, 22980, Note_on_c, 4, 81, 110
7, 22991, Note_on_c, 4, 81, 0
7, 22991, Note_on_c, 4, 81, 0
7, 22992, Note_on_c, 4, 79, 110
7, 22999, Note_on_c, 4, 79, 0
7, 23000, Note_on_c, 4, 80, 110
7, 23007, Note_on_c, 4, 80, 0
7, 23008, Note_on_c, 4, 79, 110
7, 23015, Note_on_c, 4, 79, 0
7, 23016, Note_on_c, 4, 81, 110
7, 23016, Note_on_c, 4, 77, 110
7, 23023, Note_on_c, 4, 81, 0
7, 23023, Note_on_c, 4, 77, 0
7, 23024, Note_on_c, 4, 74, 110
7, 23031, Note_on_c, 4, 74, 0
7, 23032, Note_on_c, 4, 72, 110
7, 23039, Note_on_c, 4, 72, 0
7, 23040, Note_on_c, 4, 72, 110
7, 23051, Note_on_c, 4, 72, 0
7, 23052, Note_on_c, 4, 74, 110
7, 23063, Note_on_c, 4, 74, 0
7, 23064, Note_on_c, 4, 72, 110
7, 23075, Note_on_c, 4, 72, 0
7, 23076, Note_on_c, 4, 74, 110
7, 23087, Note_on_c, 4, 74, 0
7, 23088, Note_on_c, 4, 76, 110
7, 23099, Note_on_c, 4, 76, 0
7, 23100, Note_on_c, 4, 77, 110
7, 23111, Note_on_c, 4, 77, 0
7, 23112, Note_on_c, 4, 74, 110
7, 23123, Note_on_c, 4, 74, 0
7, 23124, Note_on_c, 4, 77, 110
7, 23135, Note_on_c, 4, 77, 0
7, 23136, Note_on_c, 4, 81, 110
7, 23147, Note_on_c, 4, 81, 0
7, 23148, Note_on_c, 4, 77, 110
7, 23159, Note_on_c, 4, 77, 0
7, 23160, Note_on_c, 4, 81, 110
7, 23171, Note_on_c, 4, 81, 0
7, 23172, Note_on_c, 4, 84, 110
7, 23183, Note_on_c, 4, 84, 0
7, 23184, Note_on_c, 4, 81, 110
7, 23195, Note_on_c, 4, 81, 0
7, 23196, Note_on_c, 4, 84, 110
7, 23207, Note_on_c, 4, 84, 0
7, 23208, Note_on_c, 4, 86, 110
7, 23219, Note_on_c, 4, 86, 0
7, 23220, Note_on_c, 4, 89, 110
7, 23231, Note_on_c, 4, 89, 0
7, 23232, Note_on_c, 4, 88, 110
7, 23243, Note_on_c, 4, 88, 0
7, 23244, Note_on_c, 4, 89, 110
7, 23255, Note_on_c, 4, 89, 0
7, 23256, Note_on_c, 4, 86, 110
7, 23267, Note_on_c, 4, 86, 0
7, 23268, Note_on_c, 4, 89, 110
7, 23279, Note_on_c, 4, 89, 0
7, 23280, Note_on_c, 4, 88, 110
7, 23291, Note_on_c, 4, 88, 0
7, 23292, Note_on_c, 4, 89, 110
7, 23303, Note_on_c, 4, 89, 0
7, 23304, Note_on_c, 4, 86, 110
7, 23315, Note_on_c, 4, 86, 0
7, 23316, Note_on_c, 4, 91, 110
7, 23327, Note_on_c, 4, 91, 0
7, 23328, Note_on_c, 4, 86, 110
7, 23328, Note_on_c, 4, 89, 110
7, 23519, Note_on_c, 4, 86, 0
7, 23519, Note_on_c, 4, 89, 0
7, 23520, Note_on_c, 4, 84, 110
7, 23520, Note_on_c, 4, 89, 110
7, 23531, Note_on_c, 4, 84, 0
7, 23532, Note_on_c, 4, 86, 110
7, 23567, Note_on_c, 4, 89, 0
7, 23567, Note_on_c, 4, 86, 0
7, 23568, Note_on_c, 4, 84, 110
7, 23568, Note_on_c, 4, 89, 110
7, 23579, Note_on_c, 4, 84, 0
7, 23580, Note_on_c, 4, 86, 110
7, 23615, Note_on_c, 4, 89, 0
7, 23615, Note_on_c, 4, 86, 0
7, 23616, Note_on_c, 4, 82, 110
7, 23616, Note_on_c, 4, 77, 110
7, 23903, Note_on_c, 4, 82, 0
7, 23903, Note_on_c, 4, 77, 0
7, 23904, Note_on_c, 4, 77, 110
7, 23904, Note_on_c, 4, 81, 110
7, 23904, Note_on_c, 4, 73, 110
7, 24335, Note_on_c, 4, 77, 0
7, 24335, Note_on_c, 4, 81, 0
7, 24335, Note_on_c, 4, 73, 0
7, 24480, Note_on_c, 4, 81, 100
7, 24480, Note_on_c, 4, 76, 100
7, 24480, Note_on_c, 4, 72, 100
7, 24623, Note_on_c, 4, 81, 0
7, 24624, Note_on_c, 4, 81, 100
7, 24671, Note_on_c, 4, 81, 0
7, 24672, Note_on_c, 4, 80, 100
7, 24719, Note_on_c, 4, 80, 0
7, 24720, Note_on_c, 4, 80, 100
7, 24767, Note_on_c, 4, 80, 0
7, 24816, Note_on_c, 4, 80, 100
7, 24863, Note_on_c, 4, 76, 0
7, 24863, Note_on_c, 4, 72, 0
7, 24863, Note_on_c, 4, 80, 0
7, 24864, Note_on_c, 4, 72, 100
7, 24864, Note_on_c, 4, 76, 100
7, 24864, Note_on_c, 4, 79, 100
7, 24911, Note_on_c, 4, 79, 0
7, 24912, Note_on_c, 4, 79, 100
7, 24959, Note_on_c, 4, 79, 0
7, 25008, Note_on_c, 4, 78, 100
7, 25055, Note_on_c, 4, 72, 0
7, 25055, Note_on_c, 4, 76, 0
7, 25055, Note_on_c, 4, 78, 0
7, 25248, Note_on_c, 4, 72, 100
7, 25248, Note_on_c, 4, 76, 100
7, 25248, Note_on_c, 4, 81, 100
7, 25439, Note_on_c, 4, 72, 0
7, 25439, Note_on_c, 4, 76, 0
7, 25439, Note_on_c, 4, 81, 0
7, 25440, Note_on_c, 4, 72, 100
7, 25440, Note_on_c, 4, 76, 100
7, 25440, Note_on_c, 4, 80, 100
7, 25631, Note_on_c, 4, 72, 0
7, 25631, Note_on_c, 4, 76, 0
7, 25631, Note_on_c, 4, 80, 0
7, 25632, Note_on_c, 4, 76, 100
7, 25632, Note_on_c, 4, 72, 100
7, 25632, Note_on_c, 4, 79, 100
7, 25775, Note_on_c, 4, 76, 0
7, 25775, Note_on_c, 4, 72, 0
7, 25775, Note_on_c, 4, 79, 0
7, 25776, Note_on_c, 4, 78, 100
7, 25776, Note_on_c, 4, 76, 100
7, 25776, Note_on_c, 4, 72, 100
7, 25823, Note_on_c, 4, 78, 0
7, 25823, Note_on_c, 4, 76, 0
7, 25823, Note_on_c, 4, 72, 0
7, 26016, Note_on_c, 4, 81, 100
7, 26016, Note_on_c, 4, 76, 100
7, 26016, Note_on_c, 4, 72, 100
7, 26207, Note_on_c, 4, 81, 0
7, 26207, Note_on_c, 4, 76, 0
7, 26207, Note_on_c, 4, 72, 0
7, 26208, Note_on_c, 4, 76, 100
7, 26208, Note_on_c, 4, 80, 100
7, 26208, Note_on_c, 4, 72, 100
7, 26399, Note_on_c, 4, 76, 0
7, 26399, Note_on_c, 4, 80, 0
7, 26399, Note_on_c, 4, 72, 0
7, 26400, Note_on_c, 4, 76, 100
7, 26400, Note_on_c, 4, 72, 100
7, 26400, Note_on_c, 4, 79, 100
7, 26543, Note_on_c, 4, 76, 0
7, 26543, Note_on_c, 4, 72, 0
7, 26543, Note_on_c, 4, 79, 0
7, 26544, Note_on_c, 4, 76, 100
7, 26544, Note_on_c, 4, 72, 100
7, 26544, Note_on_c, 4, 78, 100
7, 26591, Note_on_c, 4, 76, 0
7, 26591, Note_on_c, 4, 72, 0
7, 26591, Note_on_c, 4, 78, 0
7, 26784, Note_on_c, 4, 81, 100
7, 26784, Note_on_c, 4, 72, 100
7, 26784, Note_on_c, 4, 76, 100
7, 26975, Note_on_c, 4, 81, 0
7, 26975, Note_on_c, 4, 72, 0
7, 26975, Note_on_c, 4, 76, 0
7, 26976, Note_on_c, 4, 79, 100
7, 26976, Note_on_c, 4, 72, 100
7, 26976, Note_on_c, 4, 76, 100
7, 27167, Note_on_c, 4, 79, 0
7, 27167, Note_on_c, 4, 72, 0
7, 27167, Note_on_c, 4, 76, 0
7, 27168, Note_on_c, 4, 74, 100
7, 27168, Note_on_c, 4, 69, 100
7, 27168, Note_on_c, 4, 78, 100
7, 27359, Note_on_c, 4, 74, 0
7, 27359, Note_on_c, 4, 69, 0
7, 27359, Note_on_c, 4, 78, 0
7, 27360, Note_on_c, 4, 81, 100
7, 27360, Note_on_c, 4, 77, 100
7, 27360, Note_on_c, 4, 74, 100
7, 27551, Note_on_c, 4, 81, 0
7, 27551, Note_on_c, 4, 77, 0
7, 27551, Note_on_c, 4, 74, 0
7, 27840, Note_on_c, 4, 74, 100
7, 27840, Note_on_c, 4, 67, 100
7, 28127, Note_on_c, 4, 74, 0
7, 28127, Note_on_c, 4, 67, 0
7, 28128, Note_on_c, 4, 76, 100
7, 28128, Note_on_c, 4, 81, 100
7, 28271, Note_on_c, 4, 76, 0
7, 28271, Note_on_c, 4, 81, 0
7, 28272, Note_on_c, 4, 76, 100
7, 28272, Note_on_c, 4, 81, 100
7, 28319, Note_on_c, 4, 76, 0
7, 28319, Note_on_c, 4, 81, 0
7, 28512, Note_on_c, 4, 77, 100
7, 28512, Note_on_c, 4, 69, 100
7, 28512, Note_on_c, 4, 74, 100
7, 28703, Note_on_c, 4, 77, 0
7, 28703, Note_on_c, 4, 69, 0
7, 28703, Note_on_c, 4, 74, 0
7, 28704, Note_on_c, 4, 73, 100
7, 28704, Note_on_c, 4, 69, 100
7, 28704, Note_on_c, 4, 77, 100
7, 28895, Note_on_c, 4, 73, 0
7, 28895, Note_on_c, 4, 69, 0
7, 28895, Note_on_c, 4, 77, 0
7, 28896, Note_on_c, 4, 69, 100
7, 28896, Note_on_c, 4, 77, 100
7, 28896, Note_on_c, 4, 72, 100
7, 29039, Note_on_c, 4, 69, 0
7, 29039, Note_on_c, 4, 77, 0
7, 29039, Note_on_c, 4, 72, 0
7, 29040, Note_on_c, 4, 71, 100
7, 29040, Note_on_c, 4, 77, 100
7, 29040, Note_on_c, 4, 69, 100
7, 29087, Note_on_c, 4, 71, 0
7, 29087, Note_on_c, 4, 77, 0
7, 29087, Note_on_c, 4, 69, 0
7, 29280, Note_on_c, 4, 74, 100
7, 29280, Note_on_c, 4, 77, 100
7, 29280, Note_on_c, 4, 69, 100
7, 29471, Note_on_c, 4, 74, 0
7, 29471, Note_on_c, 4, 77, 0
7, 29471, Note_on_c, 4, 69, 0
7, 29472, Note_on_c, 4, 73, 100
7, 29472, Note_on_c, 4, 69, 100
7, 29472, Note_on_c, 4, 77, 100
7, 29663, Note_on_c, 4, 73, 0
7, 29663, Note_on_c, 4, 69, 0
7, 29663, Note_on_c, 4, 77, 0
7, 29664, Note_on_c, 4, 77, 100
7, 29664, Note_on_c, 4, 72, 100
7, 29664, Note_on_c, 4, 69, 100
7, 29807, Note_on_c, 4, 77, 0
7, 29807, Note_on_c, 4, 72, 0
7, 29807, Note_on_c, 4, 69, 0
7, 29808, Note_on_c, 4, 69, 100
7, 29808, Note_on_c, 4, 71, 100
7, 29808, Note_on_c, 4, 77, 100
7, 29855, Note_on_c, 4, 69, 0
7, 29855, Note_on_c, 4, 71, 0
7, 29855, Note_on_c, 4, 77, 0
7, 30048, Note_on_c, 4, 74, 100
7, 30048, Note_on_c, 4, 77, 100
7, 30048, Note_on_c, 4, 69, 100
7, 30239, Note_on_c, 4, 74, 0
7, 30239, Note_on_c, 4, 77, 0
7, 30239, Note_on_c, 4, 69, 0
7, 30240, Note_on_c, 4, 69, 100
7, 30240, Note_on_c, 4, 73, 100
7, 30240, Note_on_c, 4, 77, 100
7, 30431, Note_on_c, 4, 69, 0
7, 30431, Note_on_c, 4, 73, 0
7, 30431, Note_on_c, 4, 77, 0
7, 30432, Note_on_c, 4, 72, 100
7, 30432, Note_on_c, 4, 69, 100
7, 30432, Note_on_c, 4, 77, 100
7, 30575, Note_on_c, 4, 72, 0
7, 30575, Note_on_c, 4, 69, 0
7, 30575, Note_on_c, 4, 77, 0
7, 30576, Note_on_c, 4, 71, 100
7, 30576, Note_on_c, 4, 69, 100
7, 30576, Note_on_c, 4, 77, 100
7, 30623, Note_on_c, 4, 71, 0
7, 30623, Note_on_c, 4, 69, 0
7, 30623, Note_on_c, 4, 77, 0
7, 30816, Note_on_c, 4, 69, 100
7, 30816, Note_on_c, 4, 74, 100
7, 30816, Note_on_c, 4, 77, 100
7, 31007, Note_on_c, 4, 69, 0
7, 31007, Note_on_c, 4, 74, 0
7, 31007, Note_on_c, 4, 77, 0
7, 31008, Note_on_c, 4, 77, 100
7, 31008, Note_on_c, 4, 72, 100
7, 31008, Note_on_c, 4, 81, 100
7, 31199, Note_on_c, 4, 77, 0
7, 31199, Note_on_c, 4, 72, 0
7, 31199, Note_on_c, 4, 81, 0
7, 31200, Note_on_c, 4, 77, 100
7, 31200, Note_on_c, 4, 74, 100
7, 31391, Note_on_c, 4, 77, 0
7, 31391, Note_on_c, 4, 74, 0
7, 31392, Note_on_c, 4, 77, 100
7, 31392, Note_on_c, 4, 74, 100
7, 31583, Note_on_c, 4, 77, 0
7, 31583, Note_on_c, 4, 74, 0
7, 31584, Note_on_c, 4, 74, 100
7, 31647, Note_on_c, 4, 74, 0
7, 31648, Note_on_c, 4, 75, 100
7, 31711, Note_on_c, 4, 75, 0
7, 31712, Note_on_c, 4, 76, 100
7, 31775, Note_on_c, 4, 76, 0
7, 31872, Note_on_c, 4, 86, 90
7, 31872, Note_on_c, 4, 80, 90
7, 31872, Note_on_c, 4, 89, 90
7, 31919, Note_on_c, 4, 86, 0
7, 31919, Note_on_c, 4, 80, 0
7, 31919, Note_on_c, 4, 89, 0
7, 31920, Note_on_c, 4, 86, 90
7, 31920, Note_on_c, 4, 80, 90
7, 31920, Note_on_c, 4, 89, 90
7, 31967, Note_on_c, 4, 86, 0
7, 31967, Note_on_c, 4, 80, 0
7, 31967, Note_on_c, 4, 89, 0
7, 31968, Note_on_c, 4, 86, 90
7, 31968, Note_on_c, 4, 89, 90
7, 31968, Note_on_c, 4, 80, 90
7, 32015, Note_on_c, 4, 86, 0
7, 32015, Note_on_c, 4, 89, 0
7, 32015, Note_on_c, 4, 80, 0
7, 32016, Note_on_c, 4, 89, 90
7, 32016, Note_on_c, 4, 86, 90
7, 32016, Note_on_c, 4, 80, 90
7, 32063, Note_on_c, 4, 89, 0
7, 32063, Note_on_c, 4, 86, 0
7, 32063, Note_on_c, 4, 80, 0
7, 32112, Note_on_c, 4, 89, 90
7, 32112, Note_on_c, 4, 80, 90
7, 32112, Note_on_c, 4, 86, 90
7, 32159, Note_on_c, 4, 89, 0
7, 32159, Note_on_c, 4, 80, 0
7, 32159, Note_on_c, 4, 86, 0
7, 32160, Note_on_c, 4, 80, 90
7, 32160, Note_on_c, 4, 89, 90
7, 32160, Note_on_c, 4, 86, 90
7, 32207, Note_on_c, 4, 80, 0
7, 32207, Note_on_c, 4, 89, 0
7, 32207, Note_on_c, 4, 86, 0
7, 32208, Note_on_c, 4, 89, 90
7, 32208, Note_on_c, 4, 86, 90
7, 32208, Note_on_c, 4, 80, 90
7, 32255, Note_on_c, 4, 89, 0
7, 32255, Note_on_c, 4, 86, 0
7, 32255, Note_on_c, 4, 80, 0
7, 32640, Note_on_c, 4, 86, 90
7, 32640, Note_on_c, 4, 80, 90
7, 32640, Note_on_c, 4, 89, 90
7, 32687, Note_on_c, 4, 86, 0
7, 32687, Note_on_c, 4, 80, 0
7, 32687, Note_on_c, 4, 89, 0
7, 32688, Note_on_c, 4, 89, 90
7, 32688, Note_on_c, 4, 86, 90
7, 32688, Note_on_c, 4, 80, 90
7, 32735, Note_on_c, 4, 89, 0
7, 32735, Note_on_c, 4, 86, 0
7, 32735, Note_on_c, 4, 80, 0
7, 32736, Note_on_c, 4, 80, 90
7, 32736, Note_on_c, 4, 86, 90
7, 32736, Note_on_c, 4, 89, 90
7, 32783, Note_on_c, 4, 80, 0
7, 32783, Note_on_c, 4, 86, 0
7, 32783, Note_on_c, 4, 89, 0
7, 32784, Note_on_c, 4, 86, 90
7, 32784, Note_on_c, 4, 80, 90
7, 32784, Note_on_c, 4, 89, 90
7, 32831, Note_on_c, 4, 86, 0
7, 32831, Note_on_c, 4, 80, 0
7, 32831, Note_on_c, 4, 89, 0
7, 32880, Note_on_c, 4, 89, 90
7, 32880, Note_on_c, 4, 86, 90
7, 32880, Note_on_c, 4, 80, 90
7, 32927, Note_on_c, 4, 89, 0
7, 32927, Note_on_c, 4, 86, 0
7, 32927, Note_on_c, 4, 80, 0
7, 32928, Note_on_c, 4, 80, 90
7, 32928, Note_on_c, 4, 86, 90
7, 32928, Note_on_c, 4, 89, 90
7, 32975, Note_on_c, 4, 80, 0
7, 32975, Note_on_c, 4, 86, 0
7, 32975, Note_on_c, 4, 89, 0
7, 32976, Note_on_c, 4, 89, 90
7, 32976, Note_on_c, 4, 86, 90
7, 32976, Note_on_c, 4, 80, 90
7, 33023, Note_on_c, 4, 89, 0
7, 33023, Note_on_c, 4, 86, 0
7, 33023, Note_on_c, 4, 80, 0
7, 33408, Note_on_c, 4, 86, 90
7, 33408, Note_on_c, 4, 89, 90
7, 33408, Note_on_c, 4, 80, 90
7, 33455, Note_on_c, 4, 86, 0
7, 33455, Note_on_c, 4, 89, 0
7, 33455, Note_on_c, 4, 80, 0
7, 33456, Note_on_c, 4, 86, 90
7, 33456, Note_on_c, 4, 80, 90
7, 33456, Note_on_c, 4, 89, 90
7, 33503, Note_on_c, 4, 86, 0
7, 33503, Note_on_c, 4, 80, 0
7, 33503, Note_on_c, 4, 89, 0
7, 33504, Note_on_c, 4, 89, 90
7, 33504, Note_on_c, 4, 80, 90
7, 33504, Note_on_c, 4, 86, 90
7, 33551, Note_on_c, 4, 89, 0
7, 33551, Note_on_c, 4, 80, 0
7, 33551, Note_on_c, 4, 86, 0
7, 33552, Note_on_c, 4, 80, 90
7, 33552, Note_on_c, 4, 86, 90
7, 33552, Note_on_c, 4, 89, 90
7, 33599, Note_on_c, 4, 80, 0
7, 33599, Note_on_c, 4, 86, 0
7, 33599, Note_on_c, 4, 89, 0
7, 33600, Note_on_c, 4, 86, 90
7, 33600, Note_on_c, 4, 80, 90
7, 33600, Note_on_c, 4, 89, 90
7, 33647, Note_on_c, 4, 86, 0
7, 33647, Note_on_c, 4, 80, 0
7, 33647, Note_on_c, 4, 89, 0
7, 33648, Note_on_c, 4, 80, 90
7, 33648, Note_on_c, 4, 89, 90
7, 33648, Note_on_c, 4, 86, 90
7, 33695, Note_on_c, 4, 80, 0
7, 33695, Note_on_c, 4, 89, 0
7, 33695, Note_on_c, 4, 86, 0
7, 33696, Note_on_c, 4, 89, 90
7, 33696, Note_on_c, 4, 86, 90
7, 33696, Note_on_c, 4, 80, 90
7, 33743, Note_on_c, 4, 89, 0
7, 33743, Note_on_c, 4, 86, 0
7, 33743, Note_on_c, 4, 80, 0
7, 34224, Note_on_c, 4, 86, 120
7, 34439, Note_on_c, 4, 86, 0
7, 34440, Note_on_c, 4, 84, 110
7, 34451, Note_on_c, 4, 84, 0
7, 34452, Note_on_c, 4, 81, 110
7, 34463, Note_on_c, 4, 81, 0
7, 34464, Note_on_c, 4, 79, 110
7, 34475, Note_on_c, 4, 79, 0
7, 34476, Note_on_c, 4, 80, 110
7, 34487, Note_on_c, 4, 80, 0
7, 34488, Note_on_c, 4, 79, 110
7, 34499, Note_on_c, 4, 79, 0
7, 34500, Note_on_c, 4, 77, 110
7, 34505, Note_on_c, 4, 77, 0
7, 34506, Note_on_c, 4, 74, 110
7, 34511, Note_on_c, 4, 74, 0
7, 34512, Note_on_c, 4, 79, 110
7, 34523, Note_on_c, 4, 79, 0
7, 34524, Note_on_c, 4, 80, 110
7, 34529, Note_on_c, 4, 80, 0
7, 34530, Note_on_c, 4, 81, 110
7, 34535, Note_on_c, 4, 81, 0
7, 34536, Note_on_c, 4, 80, 110
7, 34541, Note_on_c, 4, 80, 0
7, 34542, Note_on_c, 4, 79, 110
7, 34547, Note_on_c, 4, 79, 0
7, 34548, Note_on_c, 4, 77, 110
7, 34553, Note_on_c, 4, 77, 0
7, 34554, Note_on_c, 4, 72, 110
7, 34559, Note_on_c, 4, 72, 0
7, 34560, Note_on_c, 4, 74, 110
7, 34567, Note_on_c, 4, 74, 0
7, 34568, Note_on_c, 4, 72, 110
7, 34575, Note_on_c, 4, 72, 0
7, 34576, Note_on_c, 4, 69, 110
7, 34583, Note_on_c, 4, 69, 0
7, 34584, Note_on_c, 4, 67, 110
7, 34591, Note_on_c, 4, 67, 0
7, 34592, Note_on_c, 4, 68, 110
7, 34599, Note_on_c, 4, 68, 0
7, 34600, Note_on_c, 4, 67, 110
7, 34607, Note_on_c, 4, 67, 0
7, 34608, Note_on_c, 4, 65, 110
7, 34615, Note_on_c, 4, 65, 0
7, 34616, Note_on_c, 4, 62, 110
7, 34623, Note_on_c, 4, 62, 0
7, 34624, Note_on_c, 4, 65, 110
7, 34631, Note_on_c, 4, 65, 0
7, 34632, Note_on_c, 4, 67, 110
7, 34639, Note_on_c, 4, 67, 0
7, 34640, Note_on_c, 4, 65, 110
7, 34647, Note_on_c, 4, 65, 0
7, 34648, Note_on_c, 4, 62, 110
7, 34655, Note_on_c, 4, 62, 0
7, 34656, Note_on_c, 4, 67, 110
7, 34663, Note_on_c, 4, 67, 0
7, 34664, Note_on_c, 4, 68, 110
7, 34671, Note_on_c, 4, 68, 0
7, 34672, Note_on_c, 4, 67, 110
7, 34679, Note_on_c, 4, 67, 0
7, 34680, Note_on_c, 4, 65, 110
7, 34691, Note_on_c, 4, 65, 0
7, 34692, Note_on_c, 4, 62, 110
7, 34703, Note_on_c, 4, 62, 0
7, 34704, Note_on_c, 4, 67, 110
7, 34715, Note_on_c, 4, 67, 0
7, 34716, Note_on_c, 4, 68, 110
7, 34727, Note_on_c, 4, 68, 0
7, 34728, Note_on_c, 4, 67, 110
7, 34739, Note_on_c, 4, 67, 0
7, 34740, Note_on_c, 4, 69, 110
7, 34751, Note_on_c, 4, 69, 0
7, 34752, Note_on_c, 4, 72, 110
7, 34763, Note_on_c, 4, 72, 0
7, 34764, Note_on_c, 4, 76, 110
7, 34771, Note_on_c, 4, 76, 0
7, 34772, Note_on_c, 4, 77, 110
7, 34779, Note_on_c, 4, 77, 0
7, 34780, Note_on_c, 4, 79, 110
7, 34787, Note_on_c, 4, 79, 0
7, 34788, Note_on_c, 4, 80, 110
7, 34799, Note_on_c, 4, 80, 0
7, 34800, Note_on_c, 4, 81, 110
7, 34811, Note_on_c, 4, 81, 0
7, 34812, Note_on_c, 4, 84, 110
7, 34823, Note_on_c, 4, 84, 0
7, 34824, Note_on_c, 4, 86, 110
7, 34835, Note_on_c, 4, 86, 0
7, 34836, Note_on_c, 4, 89, 120
7, 35232, Note_on_c, 4, 81, 110
7, 35232, Note_on_c, 4, 85, 110
7, 35519, Note_on_c, 4, 89, 0
7, 35519, Note_on_c, 4, 81, 0
7, 35519, Note_on_c, 4, 85, 0
7, 35520, Note_on_c, 4, 93, 120
7, 35663, Note_on_c, 4, 93, 0
7, 35664, Note_on_c, 4, 91, 110
7, 35675, Note_on_c, 4, 91, 0
7, 35676, Note_on_c, 4, 92, 110
7, 35687, Note_on_c, 4, 92, 0
7, 35688, Note_on_c, 4, 91, 110
7, 35695, Note_on_c, 4, 91, 0
7, 35696, Note_on_c, 4, 89, 110
7, 35703, Note_on_c, 4, 89, 0
7, 35704, Note_on_c, 4, 86, 110
7, 35711, Note_on_c, 4, 86, 0
7, 35712, Note_on_c, 4, 89, 110
7, 35712, Note_on_c, 4, 86, 110
7, 35723, Note_on_c, 4, 86, 0
7, 35724, Note_on_c, 4, 86, 110
7, 35729, Note_on_c, 4, 86, 0
7, 35730, Note_on_c, 4, 84, 110
7, 35735, Note_on_c, 4, 89, 0
7, 35735, Note_on_c, 4, 84, 0
7, 35736, Note_on_c, 4, 81, 110
7, 35736, Note_on_c, 4, 86, 110
7, 35741, Note_on_c, 4, 86, 0
7, 35742, Note_on_c, 4, 84, 110
7, 35747, Note_on_c, 4, 84, 0
7, 35748, Note_on_c, 4, 81, 110
7, 35759, Note_on_c, 4, 81, 0
7, 35759, Note_on_c, 4, 81, 0
7, 35760, Note_on_c, 4, 79, 110
7, 35767, Note_on_c, 4, 79, 0
7, 35768, Note_on_c, 4, 80, 110
7, 35775, Note_on_c, 4, 80, 0
7, 35776, Note_on_c, 4, 79, 110
7, 35783, Note_on_c, 4, 79, 0
7, 35784, Note_on_c, 4, 81, 110
7, 35784, Note_on_c, 4, 77, 110
7, 35791, Note_on_c, 4, 81, 0
7, 35791, Note_on_c, 4, 77, 0
7, 35792, Note_on_c, 4, 74, 110
7, 35799, Note_on_c, 4, 74, 0
7, 35800, Note_on_c, 4, 72, 110
7, 35807, Note_on_c, 4, 72, 0
7, 35808, Note_on_c, 4, 72, 110
7, 35819, Note_on_c, 4, 72, 0
7, 35820, Note_on_c, 4, 74, 110
7, 35831, Note_on_c, 4, 74, 0
7, 35832, Note_on_c, 4, 72, 110
7, 35843, Note_on_c, 4, 72, 0
7, 35844, Note_on_c, 4, 74, 110
7, 35855, Note_on_c, 4, 74, 0
7, 35856, Note_on_c, 4, 76, 110
7, 35867, Note_on_c, 4, 76, 0
7, 35868, Note_on_c, 4, 77, 110
7, 35879, Note_on_c, 4, 77, 0
7, 35880, Note_on_c, 4, 74, 110
7, 35891, Note_on_c, 4, 74, 0
7, 35892, Note_on_c, 4, 77, 110
7, 35903, Note_on_c, 4, 77, 0
7, 35904, Note_on_c, 4, 81, 110
7, 35915, Note_on_c, 4, 81, 0
7, 35916, Note_on_c, 4, 77, 110
7, 35927, Note_on_c, 4, 77, 0
7, 35928, Note_on_c, 4, 81, 110
7, 35939, Note_on_c, 4, 81, 0
7, 35940, Note_on_c, 4, 84, 110
7, 35951, Note_on_c, 4, 84, 0
7, 35952, Note_on_c, 4, 81, 110
7, 35963, Note_on_c, 4, 81, 0
7, 35964, Note_on_c, 4, 84, 110
7, 35975, Note_on_c, 4, 84, 0
7, 35976, Note_on_c, 4, 86, 110
7, 35987, Note_on_c, 4, 86, 0
7, 35988, Note_on_c, 4, 89, 110
7, 35999, Note_on_c, 4, 89, 0
7, 36000, Note_on_c, 4, 88, 110
7, 36011, Note_on_c, 4, 88, 0
7, 36012, Note_on_c, 4, 89, 110
7, 36023, Note_on_c, 4, 89, 0
7, 36024, Note_on_c, 4, 86, 110
7, 36035, Note_on_c, 4, 86, 0
7, 36036, Note_on_c, 4, 89, 110
7, 36047, Note_on_c, 4, 89, 0
7, 36048, Note_on_c, 4, 88, 110
7, 36059, Note_on_c, 4, 88, 0
7, 36060, Note_on_c, 4, 89, 110
7, 36071, Note_on_c, 4, 89, 0
7, 36072, Note_on_c, 4, 86, 110
7, 36083, Note_on_c, 4, 86, 0
7, 36084, Note_on_c, 4, 91, 110
7, 36095, Note_on_c, 4, 91, 0
7, 36096, Note_on_c, 4, 86, 110
7, 36096, Note_on_c, 4, 89, 110
7, 36287, Note_on_c, 4, 86, 0
7, 36287, Note_on_c, 4, 89, 0
7, 36288, Note_on_c, 4, 89, 110
7, 36288, Note_on_c, 4, 84, 110
7, 36299, Note_on_c, 4, 84, 0
7, 36300, Note_on_c, 4, 86, 110
7, 36335, Note_on_c, 4, 89, 0
7, 36335, Note_on_c, 4, 86, 0
7, 36336, Note_on_c, 4, 89, 110
7, 36336, Note_on_c, 4, 84, 110
7, 36347, Note_on_c, 4, 84, 0
7, 36348, Note_on_c, 4, 86, 110
7, 36383, Note_on_c, 4, 89, 0
7, 36383, Note_on_c, 4, 86, 0
7, 36384, Note_on_c, 4, 77, 110
7, 36384, Note_on_c, 4, 82, 110
7, 36671, Note_on_c, 4, 77, 0
7, 36671, Note_on_c, 4, 82, 0
7, 36672, Note_on_c, 4, 81, 110
7, 36672, Note_on_c, 4, 77, 110
7, 36672, Note_on_c, 4, 73, 110
7, 37103, Note_on_c, 4, 81, 0
7, 37103, Note_on_c, 4, 77, 0
7, 37103, Note_on_c, 4, 73, 0
7, 37248, Note_on_c, 4, 72, 100
7, 37248, Note_on_c, 4, 81, 100
7, 37248, Note_on_c, 4, 76, 100
7, 37391, Note_on_c, 4, 81, 0
7, 37392, Note_on_c, 4, 81, 100
7, 37439, Note_on_c, 4, 81, 0
7, 37440, Note_on_c, 4, 80, 100
7, 37487, Note_on_c, 4, 80, 0
7, 37488, Note_on_c, 4, 80, 100
7, 37535, Note_on_c, 4, 80, 0
7, 37584, Note_on_c, 4, 80, 100
7, 37631, Note_on_c, 4, 72, 0
7, 37631, Note_on_c, 4, 76, 0
7, 37631, Note_on_c, 4, 80, 0
7, 37632, Note_on_c, 4, 72, 100
7, 37632, Note_on_c, 4, 76, 100
7, 37632, Note_on_c, 4, 79, 100
7, 37679, Note_on_c, 4, 79, 0
7, 37680, Note_on_c, 4, 79, 100
7, 37727, Note_on_c, 4, 79, 0
7, 37776, Note_on_c, 4, 78, 100
7, 37823, Note_on_c, 4, 72, 0
7, 37823, Note_on_c, 4, 76, 0
7, 37823, Note_on_c, 4, 78, 0
7, 38016, Note_on_c, 4, 76, 100
7, 38016, Note_on_c, 4, 72, 100
7, 38016, Note_on_c, 4, 81, 100
7, 38207, Note_on_c, 4, 76, 0
7, 38207, Note_on_c, 4, 72, 0
7, 38207, Note_on_c, 4, 81, 0
7, 38208, Note_on_c, 4, 76, 100
7, 38208, Note_on_c, 4, 80, 100
7, 38208, Note_on_c, 4, 72, 100
7, 38399, Note_on_c, 4, 76, 0
7, 38399, Note_on_c, 4, 80, 0
7, 38399, Note_on_c, 4, 72, 0
7, 38400, Note_on_c, 4, 79, 100
7, 38400, Note_on_c, 4, 72, 100
7, 38400, Note_on_c, 4, 76, 100
7, 38543, Note_on_c, 4, 79, 0
7, 38543, Note_on_c, 4, 72, 0
7, 38543, Note_on_c, 4, 76, 0
7, 38544, Note_on_c, 4, 76, 100
7, 38544, Note_on_c, 4, 78, 100
7, 38544, Note_on_c, 4, 72, 100
7, 38591, Note_on_c, 4, 76, 0
7, 38591, Note_on_c, 4, 78, 0
7, 38591, Note_on_c, 4, 72, 0
7, 38784, Note_on_c, 4, 72, 100
7, 38784, Note_on_c, 4, 81, 100
7, 38784, Note_on_c, 4, 76, 100
7, 38975, Note_on_c, 4, 72, 0
7, 38975, Note_on_c, 4, 81, 0
7, 38975, Note_on_c, 4, 76, 0
7, 38976, Note_on_c, 4, 80, 100
7, 38976, Note_on_c, 4, 76, 100
7, 38976, Note_on_c, 4, 72, 100
7, 39167, Note_on_c, 4, 80, 0
7, 39167, Note_on_c, 4, 76, 0
7, 39167, Note_on_c, 4, 72, 0
7, 39168, Note_on_c, 4, 76, 100
7, 39168, Note_on_c, 4, 79, 100
7, 39168, Note_on_c, 4, 72, 100
7, 39311, Note_on_c, 4, 76, 0
7, 39311, Note_on_c, 4, 79, 0
7, 39311, Note_on_c, 4, 72, 0
7, 39312, Note_on_c, 4, 72, 100
7, 39312, Note_on_c, 4, 76, 100
7, 39312, Note_on_c, 4, 78, 100
7, 39359, Note_on_c, 4, 72, 0
7, 39359, Note_on_c, 4, 76, 0
7, 39359, Note_on_c, 4, 78, 0
7, 39552, Note_on_c, 4, 76, 100
7, 39552, Note_on_c, 4, 72, 100
7, 39552, Note_on_c, 4, 81, 100
7, 39743, Note_on_c, 4, 76, 0
7, 39743, Note_on_c, 4, 72, 0
7, 39743, Note_on_c, 4, 81, 0
7, 39744, Note_on_c, 4, 76, 100
7, 39744, Note_on_c, 4, 79, 100
7, 39744, Note_on_c, 4, 72, 100
7, 39935, Note_on_c, 4, 76, 0
7, 39935, Note_on_c, 4, 79, 0
7, 39935, Note_on_c, 4, 72, 0
7, 39936, Note_on_c, 4, 78, 100
7, 39936, Note_on_c, 4, 74, 100
7, 39936, Note_on_c, 4, 69, 100
7, 40127, Note_on_c, 4, 78, 0
7, 40127, Note_on_c, 4, 74, 0
7, 40127, Note_on_c, 4, 69, 0
7, 40128, Note_on_c, 4, 74, 100
7, 40128, Note_on_c, 4, 77, 100
7, 40128, Note_on_c, 4, 81, 100
7, 40319, Note_on_c, 4, 74, 0
7, 40319, Note_on_c, 4, 77, 0
7, 40319, Note_on_c, 4, 81, 0
7, 40608, Note_on_c, 4, 67, 100
7, 40608, Note_on_c, 4, 74, 100
7, 40895, Note_on_c, 4, 67, 0
7, 40895, Note_on_c, 4, 74, 0
7, 40896, Note_on_c, 4, 76, 100
7, 40896, Note_on_c, 4, 81, 100
7, 41039, Note_on_c, 4, 76, 0
7, 41039, Note_on_c, 4, 81, 0
7, 41040, Note_on_c, 4, 76, 100
7, 41040, Note_on_c, 4, 81, 100
7, 41087, Note_on_c, 4, 76, 0
7, 41087, Note_on_c, 4, 81, 0
7, 41280, Note_on_c, 4, 77, 100
7, 41280, Note_on_c, 4, 69, 100
7, 41280, Note_on_c, 4, 74, 100
7, 41471, Note_on_c, 4, 77, 0
7, 41471, Note_on_c, 4, 69, 0
7, 41471, Note_on_c, 4, 74, 0
7, 41472, Note_on_c, 4, 77, 100
7, 41472, Note_on_c, 4, 69, 100
7, 41472, Note_on_c, 4, 73, 100
7, 41663, Note_on_c, 4, 77, 0
7, 41663, Note_on_c, 4, 69, 0
7, 41663, Note_on_c, 4, 73, 0
7, 41664, Note_on_c, 4, 77, 100
7, 41664, Note_on_c, 4, 69, 100
7, 41664, Note_on_c, 4, 72, 100
7, 41807, Note_on_c, 4, 77, 0
7, 41807, Note_on_c, 4, 69, 0
7, 41807, Note_on_c, 4, 72, 0
7, 41808, Note_on_c, 4, 69, 100
7, 41808, Note_on_c, 4, 71, 100
7, 41808, Note_on_c, 4, 77, 100
7, 41855, Note_on_c, 4, 69, 0
7, 41855, Note_on_c, 4, 71, 0
7, 41855, Note_on_c, 4, 77, 0
7, 42048, Note_on_c, 4, 69, 100
7, 42048, Note_on_c, 4, 74, 100
7, 42048, Note_on_c, 4, 77, 100
7, 42239, Note_on_c, 4, 69, 0
7, 42239, Note_on_c, 4, 74, 0
7, 42239, Note_on_c, 4, 77, 0
7, 42240, Note_on_c, 4, 77, 100
7, 42240, Note_on_c, 4, 73, 100
7, 42240, Note_on_c, 4, 69, 100
7, 42431, Note_on_c, 4, 77, 0
7, 42431, Note_on_c, 4, 73, 0
7, 42431, Note_on_c, 4, 69, 0
7, 42432, Note_on_c, 4, 69, 100
7, 42432, Note_on_c, 4, 72, 100
7, 42432, Note_on_c, 4, 77, 100
7, 42575, Note_on_c, 4, 69, 0
7, 42575, Note_on_c, 4, 72, 0
7, 42575, Note_on_c, 4, 77, 0
7, 42576, Note_on_c, 4, 71, 100
7, 42576, Note_on_c, 4, 77, 100
7, 42576, Note_on_c, 4, 69, 100
7, 42623, Note_on_c, 4, 71, 0
7, 42623, Note_on_c, 4, 77, 0
7, 42623, Note_on_c, 4, 69, 0
7, 42816, Note_on_c, 4, 77, 100
7, 42816, Note_on_c, 4, 74, 100
7, 42816, Note_on_c, 4, 69, 100
7, 43007, Note_on_c, 4, 77, 0
7, 43007, Note_on_c, 4, 74, 0
7, 43007, Note_on_c, 4, 69, 0
7, 43008, Note_on_c, 4, 69, 100
7, 43008, Note_on_c, 4, 73, 100
7, 43008, Note_on_c, 4, 77, 100
7, 43199, Note_on_c, 4, 69, 0
7, 43199, Note_on_c, 4, 73, 0
7, 43199, Note_on_c, 4, 77, 0
7, 43200, Note_on_c, 4, 77, 100
7, 43200, Note_on_c, 4, 69, 100
7, 43200, Note_on_c, 4, 72, 100
7, 43343, Note_on_c, 4, 77, 0
7, 43343, Note_on_c, 4, 69, 0
7, 43343, Note_on_c, 4, 72, 0
7, 43344, Note_on_c, 4, 69, 100
7, 43344, Note_on_c, 4, 77, 100
7, 43344, Note_on_c, 4, 71, 100
7, 43391, Note_on_c, 4, 69, 0
7, 43391, Note_on_c, 4, 77, 0
7, 43391, Note_on_c, 4, 71, 0
7, 43584, Note_on_c, 4, 69, 100
7, 43584, Note_on_c, 4, 74, 100
7, 43584, Note_on_c, 4, 77, 100
7, 43775, Note_on_c, 4, 69, 0
7, 43775, Note_on_c, 4, 74, 0
7, 43775, Note_on_c, 4, 77, 0
7, 43776, Note_on_c, 4, 81, 100
7, 43776, Note_on_c, 4, 72, 100
7, 43776, Note_on_c, 4, 77, 100
7, 43967, Note_on_c, 4, 81, 0
7, 43967, Note_on_c, 4, 72, 0
7, 43967, Note_on_c, 4, 77, 0
7, 43968, Note_on_c, 4, 77, 100
7, 43968, Note_on_c, 4, 74, 100
7, 44159, Note_on_c, 4, 77, 0
7, 44159, Note_on_c, 4, 74, 0
7, 44160, Note_on_c, 4, 74, 100
7, 44160, Note_on_c, 4, 77, 100
7, 44351, Note_on_c, 4, 74, 0
7, 44351, Note_on_c, 4, 77, 0
7, 44352, Note_on_c, 4, 74, 100
7, 44415, Note_on_c, 4, 74, 0
7, 44416, Note_on_c, 4, 75, 100
7, 44479, Note_on_c, 4, 75, 0
7, 44480, Note_on_c, 4, 76, 100
7, 44543, Note_on_c, 4, 76, 0
7, 44640, Note_on_c, 4, 89, 90
7, 44640, Note_on_c, 4, 80, 90
7, 44640, Note_on_c, 4, 86, 90
7, 44687, Note_on_c, 4, 89, 0
7, 44687, Note_on_c, 4, 80, 0
7, 44687, Note_on_c, 4, 86, 0
7, 44688, Note_on_c, 4, 89, 90
7, 44688, Note_on_c, 4, 80, 90
7, 44688, Note_on_c, 4, 86, 90
7, 44735, Note_on_c, 4, 89, 0
7, 44735, Note_on_c, 4, 80, 0
7, 44735, Note_on_c, 4, 86, 0
7, 44736, Note_on_c, 4, 86, 90
7, 44736, Note_on_c, 4, 80, 90
7, 44736, Note_on_c, 4, 89, 90
7, 44783, Note_on_c, 4, 86, 0
7, 44783, Note_on_c, 4, 80, 0
7, 44783, Note_on_c, 4, 89, 0
7, 44784, Note_on_c, 4, 80, 90
7, 44784, Note_on_c, 4, 89, 90
7, 44784, Note_on_c, 4, 86, 90
7, 44831, Note_on_c, 4, 80, 0
7, 44831, Note_on_c, 4, 89, 0
7, 44831, Note_on_c, 4, 86, 0
7, 44880, Note_on_c, 4, 89, 90
7, 44880, Note_on_c, 4, 80, 90
7, 44880, Note_on_c, 4, 86, 90
7, 44927, Note_on_c, 4, 89, 0
7, 44927, Note_on_c, 4, 80, 0
7, 44927, Note_on_c, 4, 86, 0
7, 44928, Note_on_c, 4, 80, 90
7, 44928, Note_on_c, 4, 89, 90
7, 44928, Note_on_c, 4, 86, 90
7, 44975, Note_on_c, 4, 80, 0
7, 44975, Note_on_c, 4, 89, 0
7, 44975, Note_on_c, 4, 86, 0
7, 44976, Note_on_c, 4, 89, 90
7, 44976, Note_on_c, 4, 80, 90
7, 44976, Note_on_c, 4, 86, 90
7, 45023, Note_on_c, 4, 89, 0
7, 45023, Note_on_c, 4, 80, 0
7, 45023, Note_on_c, 4, 86, 0
7, 45408, Note_on_c, 4, 89, 90
7, 45408, Note_on_c, 4, 80, 90
7, 45408, Note_on_c, 4, 86, 90
7, 45455, Note_on_c, 4, 89, 0
7, 45455, Note_on_c, 4, 80, 0
7, 45455, Note_on_c, 4, 86, 0
7, 45456, Note_on_c, 4, 86, 90
7, 45456, Note_on_c, 4, 80, 90
7, 45456, Note_on_c, 4, 89, 90
7, 45503, Note_on_c, 4, 86, 0
7, 45503, Note_on_c, 4, 80, 0
7, 45503, Note_on_c, 4, 89, 0
7, 45504, Note_on_c, 4, 86, 90
7, 45504, Note_on_c, 4, 80, 90
7, 45504, Note_on_c, 4, 89, 90
7, 45551, Note_on_c, 4, 86, 0
7, 45551, Note_on_c, 4, 80, 0
7, 45551, Note_on_c, 4, 89, 0
7, 45552, Note_on_c, 4, 80, 90
7, 45552, Note_on_c, 4, 89, 90
7, 45552, Note_on_c, 4, 86, 90
7, 45599, Note_on_c, 4, 80, 0
7, 45599, Note_on_c, 4, 89, 0
7, 45599, Note_on_c, 4, 86, 0
7, 45648, Note_on_c, 4, 89, 90
7, 45648, Note_on_c, 4, 80, 90
7, 45648, Note_on_c, 4, 86, 90
7, 45695, Note_on_c, 4, 89, 0
7, 45695, Note_on_c, 4, 80, 0
7, 45695, Note_on_c, 4, 86, 0
7, 45696, Note_on_c, 4, 86, 90
7, 45696, Note_on_c, 4, 80, 90
7, 45696, Note_on_c, 4, 89, 90
7, 45743, Note_on_c, 4, 86, 0
7, 45743, Note_on_c, 4, 80, 0
7, 45743, Note_on_c, 4, 89, 0
7, 45744, Note_on_c, 4, 86, 90
7, 45744, Note_on_c, 4, 80, 90
7, 45744, Note_on_c, 4, 89, 90
7, 45791, Note_on_c, 4, 86, 0
7, 45791, Note_on_c, 4, 80, 0
7, 45791, Note_on_c, 4, 89, 0
7, 46176, Note_on_c, 4, 80, 90
7, 46176, Note_on_c, 4, 86, 90
7, 46176, Note_on_c, 4, 89, 90
7, 46223, Note_on_c, 4, 80, 0
7, 46223, Note_on_c, 4, 86, 0
7, 46223, Note_on_c, 4, 89, 0
7, 46224, Note_on_c, 4, 89, 90
7, 46224, Note_on_c, 4, 80, 90
7, 46224, Note_on_c, 4, 86, 90
7, 46271, Note_on_c, 4, 89, 0
7, 46271, Note_on_c, 4, 80, 0
7, 46271, Note_on_c, 4, 86, 0
7, 46272, Note_on_c, 4, 86, 90
7, 46272, Note_on_c, 4, 89, 90
7, 46272, Note_on_c, 4, 80, 90
7, 46319, Note_on_c, 4, 86, 0
7, 46319, Note_on_c, 4, 89, 0
7, 46319, Note_on_c, 4, 80, 0
7, 46320, Note_on_c, 4, 86, 90
7, 46320, Note_on_c, 4, 89, 90
7, 46320, Note_on_c, 4, 80, 90
7, 46367, Note_on_c, 4, 86, 0
7, 46367, Note_on_c, 4, 89, 0
7, 46367, Note_on_c, 4, 80, 0
7, 46368, Note_on_c, 4, 86, 90
7, 46368, Note_on_c, 4, 89, 90
7, 46368, Note_on_c, 4, 80, 90
7, 46415, Note_on_c, 4, 86, 0
7, 46415, Note_on_c, 4, 89, 0
7, 46415, Note_on_c, 4, 80, 0
7, 46416, Note_on_c, 4, 89, 90
7, 46416, Note_on_c, 4, 86, 90
7, 46416, Note_on_c, 4, 80, 90
7, 46463, Note_on_c, 4, 89, 0
7, 46463, Note_on_c, 4, 86, 0
7, 46463, Note_on_c, 4, 80, 0
7, 46464, Note_on_c, 4, 89, 90
7, 46464, Note_on_c, 4, 80, 90
7, 46464, Note_on_c, 4, 86, 90
7, 46511, Note_on_c, 4, 89, 0
7, 46511, Note_on_c, 4, 80, 0
7, 46511, Note_on_c, 4, 86, 0
7, 46511, End_track
8, 0, Start_track
8, 0, Title_t, "*Rain SFX GS Bank1"
8, 0, MIDI_port, 0
8, 96, Control_c, 5, 121, 0
8, 97, Control_c, 5, 7, 127
8, 98, Control_c, 5, 10, 64
8, 99, Control_c, 5, 91, 20
8, 100, Control_c, 5, 93, 127
8, 101, Control_c, 5, 32, 0
8, 101, Control_c, 5, 0, 1
8, 101, Program_c, 5, 122
8, 46847, Control_c, 5, 11, 0
8, 46848, Note_on_c, 5, 60, 127
8, 46848, Pitch_bend_c, 5, 0
8, 46865, Pitch_bend_c, 5, 656
8, 46882, Pitch_bend_c, 5, 1312
8, 46900, Pitch_bend_c, 5, 1967
8, 46917, Pitch_bend_c, 5, 2622
8, 46934, Pitch_bend_c, 5, 3278
8, 46951, Pitch_bend_c, 5, 3933
8, 46969, Pitch_bend_c, 5, 4588
8, 46982, Control_c, 5, 11, 1
8, 46986, Pitch_bend_c, 5, 5244
8, 47003, Pitch_bend_c, 5, 5899
8, 47020, Pitch_bend_c, 5, 6554
8, 47038, Pitch_bend_c, 5, 7210
8, 47055, Pitch_bend_c, 5, 7865
8, 47072, Pitch_bend_c, 5, 8519
8, 47089, Pitch_bend_c, 5, 9174
8, 47107, Pitch_bend_c, 5, 9830
8, 47116, Control_c, 5, 11, 2
8, 47124, Pitch_bend_c, 5, 10485
8, 47141, Pitch_bend_c, 5, 11140
8, 47158, Pitch_bend_c, 5, 11796
8, 47176, Pitch_bend_c, 5, 12451
8, 47193, Pitch_bend_c, 5, 13106
8, 47210, Pitch_bend_c, 5, 13762
8, 47227, Pitch_bend_c, 5, 14417
8, 47245, Pitch_bend_c, 5, 15072
8, 47249, Control_c, 5, 11, 3
8, 47262, Pitch_bend_c, 5, 15728
8, 47279, Pitch_bend_c, 5, 16383
8, 47280, Pitch_bend_c, 5, 16383
8, 47297, Pitch_bend_c, 5, 15728
8, 47314, Pitch_bend_c, 5, 15072
8, 47332, Pitch_bend_c, 5, 14417
8, 47349, Pitch_bend_c, 5, 13762
8, 47366, Pitch_bend_c, 5, 13106
8, 47383, Pitch_bend_c, 5, 12451
8, 47383, Control_c, 5, 11, 4
8, 47401, Pitch_bend_c, 5, 11796
8, 47418, Pitch_bend_c, 5, 11140
8, 47435, Pitch_bend_c, 5, 10485
8, 47452, Pitch_bend_c, 5, 9830
8, 47470, Pitch_bend_c, 5, 9174
8, 47487, Pitch_bend_c, 5, 8519
8, 47504, Pitch_bend_c, 5, 7865
8, 47517, Control_c, 5, 11, 5
8, 47521, Pitch_bend_c, 5, 7210
8, 47539, Pitch_bend_c, 5, 6554
8, 47556, Pitch_bend_c, 5, 5899
8, 47573, Pitch_bend_c, 5, 5244
8, 47590, Pitch_bend_c, 5, 4588
8, 47608, Pitch_bend_c, 5, 3933
8, 47625, Pitch_bend_c, 5, 3278
8, 47642, Pitch_bend_c, 5, 2622
8, 47651, Control_c, 5, 11, 6
8, 47659, Pitch_bend_c, 5, 1967
8, 47677, Pitch_bend_c, 5, 1312
8, 47694, Pitch_bend_c, 5, 656
8, 47711, Pitch_bend_c, 5, 1
8, 47712, Pitch_bend_c, 5, 0
8, 47729, Pitch_bend_c, 5, 656
8, 47746, Pitch_bend_c, 5, 1312
8, 47764, Pitch_bend_c, 5, 1967
8, 47781, Pitch_bend_c, 5, 2622
8, 47785, Control_c, 5, 11, 7
8, 47798, Pitch_bend_c, 5, 3278
8, 47815, Pitch_bend_c, 5, 3933
8, 47833, Pitch_bend_c, 5, 4588
8, 47850, Pitch_bend_c, 5, 5244
8, 47867, Pitch_bend_c, 5, 5899
8, 47884, Pitch_bend_c, 5, 6554
8, 47902, Pitch_bend_c, 5, 7210
8, 47918, Control_c, 5, 11, 8
8, 47919, Pitch_bend_c, 5, 7865
8, 47936, Pitch_bend_c, 5, 8519
8, 47953, Pitch_bend_c, 5, 9174
8, 47971, Pitch_bend_c, 5, 9830
8, 47988, Pitch_bend_c, 5, 10485
8, 48005, Pitch_bend_c, 5, 11140
8, 48022, Pitch_bend_c, 5, 11796
8, 48040, Pitch_bend_c, 5, 12451
8, 48052, Control_c, 5, 11, 9
8, 48057, Pitch_bend_c, 5, 13106
8, 48074, Pitch_bend_c, 5, 13762
8, 48091, Pitch_bend_c, 5, 14417
8, 48109, Pitch_bend_c, 5, 15072
8, 48126, Pitch_bend_c, 5, 15728
8, 48143, Pitch_bend_c, 5, 16383
8, 48144, Pitch_bend_c, 5, 16383
8, 48161, Pitch_bend_c, 5, 15728
8, 48178, Pitch_bend_c, 5, 15072
8, 48186, Control_c, 5, 11, 10
8, 48196, Pitch_bend_c, 5, 14417
8, 48213, Pitch_bend_c, 5, 13762
8, 48230, Pitch_bend_c, 5, 13106
8, 48247, Pitch_bend_c, 5, 12451
8, 48265, Pitch_bend_c, 5, 11796
8, 48282, Pitch_bend_c, 5, 11140
8, 48299, Pitch_bend_c, 5, 10485
8, 48316, Pitch_bend_c, 5, 9830
8, 48320, Control_c, 5, 11, 11
8, 48334, Pitch_bend_c, 5, 9174
8, 48351, Pitch_bend_c, 5, 8519
8, 48368, Pitch_bend_c, 5, 7865
8, 48385, Pitch_bend_c, 5, 7210
8, 48403, Pitch_bend_c, 5, 6554
8, 48420, Pitch_bend_c, 5, 5899
8, 48437, Pitch_bend_c, 5, 5244
8, 48454, Pitch_bend_c, 5, 4588
8, 48454, Control_c, 5, 11, 12
8, 48472, Pitch_bend_c, 5, 3933
8, 48489, Pitch_bend_c, 5, 3278
8, 48506, Pitch_bend_c, 5, 2622
8, 48523, Pitch_bend_c, 5, 1967
8, 48541, Pitch_bend_c, 5, 1312
8, 48558, Pitch_bend_c, 5, 656
8, 48575, Pitch_bend_c, 5, 1
8, 48576, Pitch_bend_c, 5, 0
8, 48587, Control_c, 5, 11, 13
8, 48593, Pitch_bend_c, 5, 656
8, 48610, Pitch_bend_c, 5, 1312
8, 48628, Pitch_bend_c, 5, 1967
8, 48645, Pitch_bend_c, 5, 2622
8, 48662, Pitch_bend_c, 5, 3278
8, 48679, Pitch_bend_c, 5, 3933
8, 48697, Pitch_bend_c, 5, 4588
8, 48714, Pitch_bend_c, 5, 5244
8, 48721, Control_c, 5, 11, 14
8, 48731, Pitch_bend_c, 5, 5899
8, 48748, Pitch_bend_c, 5, 6554
8, 48766, Pitch_bend_c, 5, 7210
8, 48783, Pitch_bend_c, 5, 7865
8, 48800, Pitch_bend_c, 5, 8519
8, 48817, Pitch_bend_c, 5, 9174
8, 48835, Pitch_bend_c, 5, 9830
8, 48852, Pitch_bend_c, 5, 10485
8, 48855, Control_c, 5, 11, 15
8, 48869, Pitch_bend_c, 5, 11140
8, 48886, Pitch_bend_c, 5, 11796
8, 48904, Pitch_bend_c, 5, 12451
8, 48921, Pitch_bend_c, 5, 13106
8, 48938, Pitch_bend_c, 5, 13762
8, 48955, Pitch_bend_c, 5, 14417
8, 48973, Pitch_bend_c, 5, 15072
8, 48989, Control_c, 5, 11, 16
8, 48990, Pitch_bend_c, 5, 15728
8, 49007, Pitch_bend_c, 5, 16383
8, 49008, Pitch_bend_c, 5, 16383
8, 49025, Pitch_bend_c, 5, 15728
8, 49042, Pitch_bend_c, 5, 15072
8, 49060, Pitch_bend_c, 5, 14417
8, 49077, Pitch_bend_c, 5, 13762
8, 49094, Pitch_bend_c, 5, 13106
8, 49111, Pitch_bend_c, 5, 12451
8, 49123, Control_c, 5, 11, 17
8, 49129, Pitch_bend_c, 5, 11796
8, 49146, Pitch_bend_c, 5, 11140
8, 49163, Pitch_bend_c, 5, 10485
8, 49180, Pitch_bend_c, 5, 9830
8, 49198, Pitch_bend_c, 5, 9174
8, 49215, Pitch_bend_c, 5, 8519
8, 49232, Pitch_bend_c, 5, 7865
8, 49249, Pitch_bend_c, 5, 7210
8, 49256, Control_c, 5, 11, 18
8, 49267, Pitch_bend_c, 5, 6554
8, 49284, Pitch_bend_c, 5, 5899
8, 49301, Pitch_bend_c, 5, 5244
8, 49318, Pitch_bend_c, 5, 4588
8, 49336, Pitch_bend_c, 5, 3933
8, 49353, Pitch_bend_c, 5, 3278
8, 49370, Pitch_bend_c, 5, 2622
8, 49387, Pitch_bend_c, 5, 1967
8, 49390, Control_c, 5, 11, 19
8, 49405, Pitch_bend_c, 5, 1312
8, 49422, Pitch_bend_c, 5, 656
8, 49439, Pitch_bend_c, 5, 1
8, 49440, Pitch_bend_c, 5, 0
8, 49457, Pitch_bend_c, 5, 656
8, 49474, Pitch_bend_c, 5, 1312
8, 49492, Pitch_bend_c, 5, 1967
8, 49509, Pitch_bend_c, 5, 2622
8, 49524, Control_c, 5, 11, 20
8, 49526, Pitch_bend_c, 5, 3278
8, 49543, Pitch_bend_c, 5, 3933
8, 49561, Pitch_bend_c, 5, 4588
8, 49578, Pitch_bend_c, 5, 5244
8, 49595, Pitch_bend_c, 5, 5899
8, 49612, Pitch_bend_c, 5, 6554
8, 49630, Pitch_bend_c, 5, 7210
8, 49647, Pitch_bend_c, 5, 7865
8, 49658, Control_c, 5, 11, 21
8, 49664, Pitch_bend_c, 5, 8519
8, 49681, Pitch_bend_c, 5, 9174
8, 49699, Pitch_bend_c, 5, 9830
8, 49716, Pitch_bend_c, 5, 10485
8, 49733, Pitch_bend_c, 5, 11140
8, 49750, Pitch_bend_c, 5, 11796
8, 49768, Pitch_bend_c, 5, 12451
8, 49785, Pitch_bend_c, 5, 13106
8, 49791, Control_c, 5, 11, 22
8, 49802, Pitch_bend_c, 5, 13762
8, 49819, Pitch_bend_c, 5, 14417
8, 49837, Pitch_bend_c, 5, 15072
8, 49854, Pitch_bend_c, 5, 15728
8, 49871, Pitch_bend_c, 5, 16383
8, 49872, Pitch_bend_c, 5, 16383
8, 49889, Pitch_bend_c, 5, 15728
8, 49906, Pitch_bend_c, 5, 15072
8, 49924, Pitch_bend_c, 5, 14417
8, 49925, Control_c, 5, 11, 23
8, 49941, Pitch_bend_c, 5, 13762
8, 49958, Pitch_bend_c, 5, 13106
8, 49975, Pitch_bend_c, 5, 12451
8, 49993, Pitch_bend_c, 5, 11796
8, 50010, Pitch_bend_c, 5, 11140
8, 50027, Pitch_bend_c, 5, 10485
8, 50044, Pitch_bend_c, 5, 9830
8, 50059, Control_c, 5, 11, 24
8, 50062, Pitch_bend_c, 5, 9174
8, 50079, Pitch_bend_c, 5, 8519
8, 50096, Pitch_bend_c, 5, 7865
8, 50113, Pitch_bend_c, 5, 7210
8, 50131, Pitch_bend_c, 5, 6554
8, 50148, Pitch_bend_c, 5, 5899
8, 50165, Pitch_bend_c, 5, 5244
8, 50182, Pitch_bend_c, 5, 4588
8, 50193, Control_c, 5, 11, 25
8, 50200, Pitch_bend_c, 5, 3933
8, 50217, Pitch_bend_c, 5, 3278
8, 50234, Pitch_bend_c, 5, 2622
8, 50251, Pitch_bend_c, 5, 1967
8, 50269, Pitch_bend_c, 5, 1312
8, 50286, Pitch_bend_c, 5, 656
8, 50303, Pitch_bend_c, 5, 1
8, 50304, Pitch_bend_c, 5, 0
8, 50321, Pitch_bend_c, 5, 656
8, 50327, Control_c, 5, 11, 26
8, 50338, Pitch_bend_c, 5, 1312
8, 50356, Pitch_bend_c, 5, 1967
8, 50373, Pitch_bend_c, 5, 2622
8, 50390, Pitch_bend_c, 5, 3278
8, 50407, Pitch_bend_c, 5, 3933
8, 50425, Pitch_bend_c, 5, 4588
8, 50442, Pitch_bend_c, 5, 5244
8, 50459, Pitch_bend_c, 5, 5899
8, 50460, Control_c, 5, 11, 27
8, 50476, Pitch_bend_c, 5, 6554
8, 50494, Pitch_bend_c, 5, 7210
8, 50511, Pitch_bend_c, 5, 7865
8, 50528, Pitch_bend_c, 5, 8519
8, 50545, Pitch_bend_c, 5, 9174
8, 50563, Pitch_bend_c, 5, 9830
8, 50580, Pitch_bend_c, 5, 10485
8, 50594, Control_c, 5, 11, 28
8, 50597, Pitch_bend_c, 5, 11140
8, 50614, Pitch_bend_c, 5, 11796
8, 50632, Pitch_bend_c, 5, 12451
8, 50649, Pitch_bend_c, 5, 13106
8, 50666, Pitch_bend_c, 5, 13762
8, 50683, Pitch_bend_c, 5, 14417
8, 50701, Pitch_bend_c, 5, 15072
8, 50718, Pitch_bend_c, 5, 15728
8, 50728, Control_c, 5, 11, 29
8, 50735, Pitch_bend_c, 5, 16383
8, 50736, Pitch_bend_c, 5, 16383
8, 50753, Pitch_bend_c, 5, 15728
8, 50770, Pitch_bend_c, 5, 15072
8, 50788, Pitch_bend_c, 5, 14417
8, 50805, Pitch_bend_c, 5, 13762
8, 50822, Pitch_bend_c, 5, 13106
8, 50839, Pitch_bend_c, 5, 12451
8, 50857, Pitch_bend_c, 5, 11796
8, 50862, Control_c, 5, 11, 30
8, 50874, Pitch_bend_c, 5, 11140
8, 50891, Pitch_bend_c, 5, 10485
8, 50908, Pitch_bend_c, 5, 9830
8, 50926, Pitch_bend_c, 5, 9174
8, 50943, Pitch_bend_c, 5, 8519
8, 50960, Pitch_bend_c, 5, 7865
8, 50977, Pitch_bend_c, 5, 7210
8, 50995, Pitch_bend_c, 5, 6554
8, 50996, Control_c, 5, 11, 31
8, 51012, Pitch_bend_c, 5, 5899
8, 51029, Pitch_bend_c, 5, 5244
8, 51046, Pitch_bend_c, 5, 4588
8, 51064, Pitch_bend_c, 5, 3933
8, 51081, Pitch_bend_c, 5, 3278
8, 51098, Pitch_bend_c, 5, 2622
8, 51115, Pitch_bend_c, 5, 1967
8, 51129, Control_c, 5, 11, 32
8, 51133, Pitch_bend_c, 5, 1312
8, 51150, Pitch_bend_c, 5, 656
8, 51167, Pitch_bend_c, 5, 1
8, 51168, Pitch_bend_c, 5, 0
8, 51185, Pitch_bend_c, 5, 656
8, 51202, Pitch_bend_c, 5, 1312
8, 51220, Pitch_bend_c, 5, 1967
8, 51237, Pitch_bend_c, 5, 2622
8, 51254, Pitch_bend_c, 5, 3278
8, 51263, Control_c, 5, 11, 33
8, 51271, Pitch_bend_c, 5, 3933
8, 51289, Pitch_bend_c, 5, 4588
8, 51306, Pitch_bend_c, 5, 5244
8, 51323, Pitch_bend_c, 5, 5899
8, 51340, Pitch_bend_c, 5, 6554
8, 51358, Pitch_bend_c, 5, 7210
8, 51375, Pitch_bend_c, 5, 7865
8, 51392, Pitch_bend_c, 5, 8519
8, 51397, Control_c, 5, 11, 34
8, 51409, Pitch_bend_c, 5, 9174
8, 51427, Pitch_bend_c, 5, 9830
8, 51444, Pitch_bend_c, 5, 10485
8, 51461, Pitch_bend_c, 5, 11140
8, 51478, Pitch_bend_c, 5, 11796
8, 51496, Pitch_bend_c, 5, 12451
8, 51513, Pitch_bend_c, 5, 13106
8, 51530, Pitch_bend_c, 5, 13762
8, 51531, Control_c, 5, 11, 35
8, 51547, Pitch_bend_c, 5, 14417
8, 51565, Pitch_bend_c, 5, 15072
8, 51582, Pitch_bend_c, 5, 15728
8, 51599, Pitch_bend_c, 5, 16383
8, 51600, Pitch_bend_c, 5, 16383
8, 51617, Pitch_bend_c, 5, 15728
8, 51634, Pitch_bend_c, 5, 15072
8, 51652, Pitch_bend_c, 5, 14417
8, 51665, Control_c, 5, 11, 36
8, 51669, Pitch_bend_c, 5, 13762
8, 51686, Pitch_bend_c, 5, 13106
8, 51703, Pitch_bend_c, 5, 12451
8, 51721, Pitch_bend_c, 5, 11796
8, 51738, Pitch_bend_c, 5, 11140
8, 51755, Pitch_bend_c, 5, 10485
8, 51772, Pitch_bend_c, 5, 9830
8, 51790, Pitch_bend_c, 5, 9174
8, 51798, Control_c, 5, 11, 37
8, 51807, Pitch_bend_c, 5, 8519
8, 51824, Pitch_bend_c, 5, 7865
8, 51841, Pitch_bend_c, 5, 7210
8, 51859, Pitch_bend_c, 5, 6554
8, 51876, Pitch_bend_c, 5, 5899
8, 51893, Pitch_bend_c, 5, 5244
8, 51910, Pitch_bend_c, 5, 4588
8, 51928, Pitch_bend_c, 5, 3933
8, 51932, Control_c, 5, 11, 38
8, 51945, Pitch_bend_c, 5, 3278
8, 51962, Pitch_bend_c, 5, 2622
8, 51979, Pitch_bend_c, 5, 1967
8, 51997, Pitch_bend_c, 5, 1312
8, 52014, Pitch_bend_c, 5, 656
8, 52031, Pitch_bend_c, 5, 1
8, 52032, Pitch_bend_c, 5, 0
8, 52049, Pitch_bend_c, 5, 656
8, 52066, Pitch_bend_c, 5, 1312
8, 52066, Control_c, 5, 11, 39
8, 52084, Pitch_bend_c, 5, 1967
8, 52101, Pitch_bend_c, 5, 2622
8, 52118, Pitch_bend_c, 5, 3278
8, 52135, Pitch_bend_c, 5, 3933
8, 52153, Pitch_bend_c, 5, 4588
8, 52170, Pitch_bend_c, 5, 5244
8, 52187, Pitch_bend_c, 5, 5899
8, 52200, Control_c, 5, 11, 40
8, 52204, Pitch_bend_c, 5, 6554
8, 52222, Pitch_bend_c, 5, 7210
8, 52239, Pitch_bend_c, 5, 7865
8, 52256, Pitch_bend_c, 5, 8519
8, 52273, Pitch_bend_c, 5, 9174
8, 52291, Pitch_bend_c, 5, 9830
8, 52308, Pitch_bend_c, 5, 10485
8, 52325, Pitch_bend_c, 5, 11140
8, 52334, Control_c, 5, 11, 41
8, 52342, Pitch_bend_c, 5, 11796
8, 52360, Pitch_bend_c, 5, 12451
8, 52377, Pitch_bend_c, 5, 13106
8, 52394, Pitch_bend_c, 5, 13762
8, 52411, Pitch_bend_c, 5, 14417
8, 52429, Pitch_bend_c, 5, 15072
8, 52446, Pitch_bend_c, 5, 15728
8, 52463, Pitch_bend_c, 5, 16383
8, 52464, Pitch_bend_c, 5, 16383
8, 52467, Control_c, 5, 11, 42
8, 52481, Pitch_bend_c, 5, 15728
8, 52498, Pitch_bend_c, 5, 15072
8, 52516, Pitch_bend_c, 5, 14417
8, 52533, Pitch_bend_c, 5, 13762
8, 52550, Pitch_bend_c, 5, 13106
8, 52567, Pitch_bend_c, 5, 12451
8, 52585, Pitch_bend_c, 5, 11796
8, 52601, Control_c, 5, 11, 43
8, 52602, Pitch_bend_c, 5, 11140
8, 52619, Pitch_bend_c, 5, 10485
8, 52636, Pitch_bend_c, 5, 9830
8, 52654, Pitch_bend_c, 5, 9174
8, 52671, Pitch_bend_c, 5, 8519
8, 52688, Pitch_bend_c, 5, 7865
8, 52705, Pitch_bend_c, 5, 7210
8, 52723, Pitch_bend_c, 5, 6554
8, 52735, Control_c, 5, 11, 44
8, 52740, Pitch_bend_c, 5, 5899
8, 52757, Pitch_bend_c, 5, 5244
8, 52774, Pitch_bend_c, 5, 4588
8, 52792, Pitch_bend_c, 5, 3933
8, 52809, Pitch_bend_c, 5, 3278
8, 52826, Pitch_bend_c, 5, 2622
8, 52843, Pitch_bend_c, 5, 1967
8, 52861, Pitch_bend_c, 5, 1312
8, 52869, Control_c, 5, 11, 45
8, 52878, Pitch_bend_c, 5, 656
8, 52895, Pitch_bend_c, 5, 1
8, 52896, Pitch_bend_c, 5, 0
8, 52913, Pitch_bend_c, 5, 656
8, 52930, Pitch_bend_c, 5, 1312
8, 52948, Pitch_bend_c, 5, 1967
8, 52965, Pitch_bend_c, 5, 2622
8, 52982, Pitch_bend_c, 5, 3278
8, 52999, Pitch_bend_c, 5, 3933
8, 53003, Control_c, 5, 11, 46
8, 53017, Pitch_bend_c, 5, 4588
8, 53034, Pitch_bend_c, 5, 5244
8, 53051, Pitch_bend_c, 5, 5899
8, 53068, Pitch_bend_c, 5, 6554
8, 53086, Pitch_bend_c, 5, 7210
8, 53103, Pitch_bend_c, 5, 7865
8, 53120, Pitch_bend_c, 5, 8519
8, 53136, Control_c, 5, 11, 47
8, 53137, Pitch_bend_c, 5, 9174
8, 53155, Pitch_bend_c, 5, 9830
8, 53172, Pitch_bend_c, 5, 10485
8, 53189, Pitch_bend_c, 5, 11140
8, 53206, Pitch_bend_c, 5, 11796
8, 53224, Pitch_bend_c, 5, 12451
8, 53241, Pitch_bend_c, 5, 13106
8, 53258, Pitch_bend_c, 5, 13762
8, 53270, Control_c, 5, 11, 48
8, 53275, Pitch_bend_c, 5, 14417
8, 53293, Pitch_bend_c, 5, 15072
8, 53310, Pitch_bend_c, 5, 15728
8, 53327, Pitch_bend_c, 5, 16383
8, 53328, Pitch_bend_c, 5, 16383
8, 53345, Pitch_bend_c, 5, 15728
8, 53362, Pitch_bend_c, 5, 15072
8, 53380, Pitch_bend_c, 5, 14417
8, 53397, Pitch_bend_c, 5, 13762
8, 53404, Control_c, 5, 11, 49
8, 53414, Pitch_bend_c, 5, 13106
8, 53431, Pitch_bend_c, 5, 12451
8, 53449, Pitch_bend_c, 5, 11796
8, 53466, Pitch_bend_c, 5, 11140
8, 53483, Pitch_bend_c, 5, 10485
8, 53500, Pitch_bend_c, 5, 9830
8, 53518, Pitch_bend_c, 5, 9174
8, 53535, Pitch_bend_c, 5, 8519
8, 53538, Control_c, 5, 11, 50
8, 53552, Pitch_bend_c, 5, 7865
8, 53569, Pitch_bend_c, 5, 7210
8, 53587, Pitch_bend_c, 5, 6554
8, 53604, Pitch_bend_c, 5, 5899
8, 53621, Pitch_bend_c, 5, 5244
8, 53638, Pitch_bend_c, 5, 4588
8, 53656, Pitch_bend_c, 5, 3933
8, 53672, Control_c, 5, 11, 51
8, 53673, Pitch_bend_c, 5, 3278
8, 53690, Pitch_bend_c, 5, 2622
8, 53707, Pitch_bend_c, 5, 1967
8, 53725, Pitch_bend_c, 5, 1312
8, 53742, Pitch_bend_c, 5, 656
8, 53759, Pitch_bend_c, 5, 1
8, 53760, Pitch_bend_c, 5, 0
8, 53777, Pitch_bend_c, 5, 656
8, 53794, Pitch_bend_c, 5, 1312
8, 53805, Control_c, 5, 11, 52
8, 53812, Pitch_bend_c, 5, 1967
8, 53829, Pitch_bend_c, 5, 2622
8, 53846, Pitch_bend_c, 5, 3278
8, 53863, Pitch_bend_c, 5, 3933
8, 53881, Pitch_bend_c, 5, 4588
8, 53898, Pitch_bend_c, 5, 5244
8, 53915, Pitch_bend_c, 5, 5899
8, 53932, Pitch_bend_c, 5, 6554
8, 53939, Control_c, 5, 11, 53
8, 53950, Pitch_bend_c, 5, 7210
8, 53967, Pitch_bend_c, 5, 7865
8, 53984, Pitch_bend_c, 5, 8519
8, 54001, Pitch_bend_c, 5, 9174
8, 54019, Pitch_bend_c, 5, 9830
8, 54036, Pitch_bend_c, 5, 10485
8, 54053, Pitch_bend_c, 5, 11140
8, 54070, Pitch_bend_c, 5, 11796
8, 54073, Control_c, 5, 11, 54
8, 54088, Pitch_bend_c, 5, 12451
8, 54105, Pitch_bend_c, 5, 13106
8, 54122, Pitch_bend_c, 5, 13762
8, 54139, Pitch_bend_c, 5, 14417
8, 54157, Pitch_bend_c, 5, 15072
8, 54174, Pitch_bend_c, 5, 15728
8, 54191, Pitch_bend_c, 5, 16383
8, 54192, Pitch_bend_c, 5, 16383
8, 54207, Control_c, 5, 11, 55
8, 54209, Pitch_bend_c, 5, 15728
8, 54226, Pitch_bend_c, 5, 15072
8, 54244, Pitch_bend_c, 5, 14417
8, 54261, Pitch_bend_c, 5, 13762
8, 54278, Pitch_bend_c, 5, 13106
8, 54295, Pitch_bend_c, 5, 12451
8, 54313, Pitch_bend_c, 5, 11796
8, 54330, Pitch_bend_c, 5, 11140
8, 54341, Control_c, 5, 11, 56
8, 54347, Pitch_bend_c, 5, 10485
8, 54364, Pitch_bend_c, 5, 9830
8, 54382, Pitch_bend_c, 5, 9174
8, 54399, Pitch_bend_c, 5, 8519
8, 54416, Pitch_bend_c, 5, 7865
8, 54433, Pitch_bend_c, 5, 7210
8, 54451, Pitch_bend_c, 5, 6554
8, 54468, Pitch_bend_c, 5, 5899
8, 54474, Control_c, 5, 11, 57
8, 54485, Pitch_bend_c, 5, 5244
8, 54502, Pitch_bend_c, 5, 4588
8, 54520, Pitch_bend_c, 5, 3933
8, 54537, Pitch_bend_c, 5, 3278
8, 54554, Pitch_bend_c, 5, 2622
8, 54571, Pitch_bend_c, 5, 1967
8, 54589, Pitch_bend_c, 5, 1312
8, 54606, Pitch_bend_c, 5, 656
8, 54608, Control_c, 5, 11, 58
8, 54623, Pitch_bend_c, 5, 1
8, 54624, Pitch_bend_c, 5, 0
8, 54641, Pitch_bend_c, 5, 656
8, 54658, Pitch_bend_c, 5, 1312
8, 54676, Pitch_bend_c, 5, 1967
8, 54693, Pitch_bend_c, 5, 2622
8, 54710, Pitch_bend_c, 5, 3278
8, 54727, Pitch_bend_c, 5, 3933
8, 54742, Control_c, 5, 11, 59
8, 54745, Pitch_bend_c, 5, 4588
8, 54762, Pitch_bend_c, 5, 5244
8, 54779, Pitch_bend_c, 5, 5899
8, 54796, Pitch_bend_c, 5, 6554
8, 54814, Pitch_bend_c, 5, 7210
8, 54831, Pitch_bend_c, 5, 7865
8, 54848, Pitch_bend_c, 5, 8519
8, 54865, Pitch_bend_c, 5, 9174
8, 54876, Control_c, 5, 11, 60
8, 54883, Pitch_bend_c, 5, 9830
8, 54900, Pitch_bend_c, 5, 10485
8, 54917, Pitch_bend_c, 5, 11140
8, 54934, Pitch_bend_c, 5, 11796
8, 54952, Pitch_bend_c, 5, 12451
8, 54969, Pitch_bend_c, 5, 13106
8, 54986, Pitch_bend_c, 5, 13762
8, 55003, Pitch_bend_c, 5, 14417
8, 55010, Control_c, 5, 11, 61
8, 55021, Pitch_bend_c, 5, 15072
8, 55038, Pitch_bend_c, 5, 15728
8, 55055, Pitch_bend_c, 5, 16383
8, 55056, Pitch_bend_c, 5, 16383
8, 55073, Pitch_bend_c, 5, 15728
8, 55090, Pitch_bend_c, 5, 15072
8, 55108, Pitch_bend_c, 5, 14417
8, 55125, Pitch_bend_c, 5, 13762
8, 55142, Pitch_bend_c, 5, 13106
8, 55143, Control_c, 5, 11, 62
8, 55159, Pitch_bend_c, 5, 12451
8, 55177, Pitch_bend_c, 5, 11796
8, 55194, Pitch_bend_c, 5, 11140
8, 55211, Pitch_bend_c, 5, 10485
8, 55228, Pitch_bend_c, 5, 9830
8, 55246, Pitch_bend_c, 5, 9174
8, 55263, Pitch_bend_c, 5, 8519
8, 55277, Control_c, 5, 11, 63
8, 55280, Pitch_bend_c, 5, 7865
8, 55297, Pitch_bend_c, 5, 7210
8, 55315, Pitch_bend_c, 5, 6554
8, 55332, Pitch_bend_c, 5, 5899
8, 55349, Pitch_bend_c, 5, 5244
8, 55366, Pitch_bend_c, 5, 4588
8, 55384, Pitch_bend_c, 5, 3933
8, 55401, Pitch_bend_c, 5, 3278
8, 55411, Control_c, 5, 11, 64
8, 55418, Pitch_bend_c, 5, 2622
8, 55435, Pitch_bend_c, 5, 1967
8, 55453, Pitch_bend_c, 5, 1312
8, 55470, Pitch_bend_c, 5, 656
8, 55487, Pitch_bend_c, 5, 1
8, 55488, Pitch_bend_c, 5, 0
8, 55505, Pitch_bend_c, 5, 656
8, 55522, Pitch_bend_c, 5, 1312
8, 55540, Pitch_bend_c, 5, 1967
8, 55545, Control_c, 5, 11, 65
8, 55557, Pitch_bend_c, 5, 2622
8, 55574, Pitch_bend_c, 5, 3278
8, 55591, Pitch_bend_c, 5, 3933
8, 55609, Pitch_bend_c, 5, 4588
8, 55626, Pitch_bend_c, 5, 5244
8, 55643, Pitch_bend_c, 5, 5899
8, 55660, Pitch_bend_c, 5, 6554
8, 55678, Pitch_bend_c, 5, 7210
8, 55678, Control_c, 5, 11, 66
8, 55695, Pitch_bend_c, 5, 7865
8, 55712, Pitch_bend_c, 5, 8519
8, 55729, Pitch_bend_c, 5, 9174
8, 55747, Pitch_bend_c, 5, 9830
8, 55764, Pitch_bend_c, 5, 10485
8, 55781, Pitch_bend_c, 5, 11140
8, 55798, Pitch_bend_c, 5, 11796
8, 55812, Control_c, 5, 11, 67
8, 55816, Pitch_bend_c, 5, 12451
8, 55833, Pitch_bend_c, 5, 13106
8, 55850, Pitch_bend_c, 5, 13762
8, 55867, Pitch_bend_c, 5, 14417
8, 55885, Pitch_bend_c, 5, 15072
8, 55902, Pitch_bend_c, 5, 15728
8, 55919, Pitch_bend_c, 5, 16383
8, 55920, Pitch_bend_c, 5, 16383
8, 55937, Pitch_bend_c, 5, 15728
8, 55946, Control_c, 5, 11, 68
8, 55954, Pitch_bend_c, 5, 15072
8, 55972, Pitch_bend_c, 5, 14417
8, 55989, Pitch_bend_c, 5, 13762
8, 56006, Pitch_bend_c, 5, 13106
8, 56023, Pitch_bend_c, 5, 12451
8, 56041, Pitch_bend_c, 5, 11796
8, 56058, Pitch_bend_c, 5, 11140
8, 56075, Pitch_bend_c, 5, 10485
8, 56080, Control_c, 5, 11, 69
8, 56092, Pitch_bend_c, 5, 9830
8, 56110, Pitch_bend_c, 5, 9174
8, 56127, Pitch_bend_c, 5, 8519
8, 56144, Pitch_bend_c, 5, 7865
8, 56161, Pitch_bend_c, 5, 7210
8, 56179, Pitch_bend_c, 5, 6554
8, 56196, Pitch_bend_c, 5, 5899
8, 56213, Pitch_bend_c, 5, 5244
8, 56214, Control_c, 5, 11, 70
8, 56230, Pitch_bend_c, 5, 4588
8, 56248, Pitch_bend_c, 5, 3933
8, 56265, Pitch_bend_c, 5, 3278
8, 56282, Pitch_bend_c, 5, 2622
8, 56299, Pitch_bend_c, 5, 1967
8, 56317, Pitch_bend_c, 5, 1312
8, 56334, Pitch_bend_c, 5, 656
8, 56347, Control_c, 5, 11, 71
8, 56351, Pitch_bend_c, 5, 1
8, 56352, Pitch_bend_c, 5, 0
8, 56369, Pitch_bend_c, 5, 656
8, 56386, Pitch_bend_c, 5, 1312
8, 56404, Pitch_bend_c, 5, 1967
8, 56421, Pitch_bend_c, 5, 2622
8, 56438, Pitch_bend_c, 5, 3278
8, 56455, Pitch_bend_c, 5, 3933
8, 56473, Pitch_bend_c, 5, 4588
8, 56481, Control_c, 5, 11, 72
8, 56490, Pitch_bend_c, 5, 5244
8, 56507, Pitch_bend_c, 5, 5899
8, 56524, Pitch_bend_c, 5, 6554
8, 56542, Pitch_bend_c, 5, 7210
8, 56559, Pitch_bend_c, 5, 7865
8, 56576, Pitch_bend_c, 5, 8519
8, 56593, Pitch_bend_c, 5, 9174
8, 56611, Pitch_bend_c, 5, 9830
8, 56615, Control_c, 5, 11, 73
8, 56628, Pitch_bend_c, 5, 10485
8, 56645, Pitch_bend_c, 5, 11140
8, 56662, Pitch_bend_c, 5, 11796
8, 56680, Pitch_bend_c, 5, 12451
8, 56697, Pitch_bend_c, 5, 13106
8, 56714, Pitch_bend_c, 5, 13762
8, 56731, Pitch_bend_c, 5, 14417
8, 56749, Pitch_bend_c, 5, 15072
8, 56749, Control_c, 5, 11, 74
8, 56766, Pitch_bend_c, 5, 15728
8, 56783, Pitch_bend_c, 5, 16383
8, 56784, Pitch_bend_c, 5, 16383
8, 56801, Pitch_bend_c, 5, 15728
8, 56818, Pitch_bend_c, 5, 15072
8, 56836, Pitch_bend_c, 5, 14417
8, 56853, Pitch_bend_c, 5, 13762
8, 56870, Pitch_bend_c, 5, 13106
8, 56883, Control_c, 5, 11, 75
8, 56887, Pitch_bend_c, 5, 12451
8, 56905, Pitch_bend_c, 5, 11796
8, 56922, Pitch_bend_c, 5, 11140
8, 56939, Pitch_bend_c, 5, 10485
8, 56956, Pitch_bend_c, 5, 9830
8, 56974, Pitch_bend_c, 5, 9174
8, 56991, Pitch_bend_c, 5, 8519
8, 57008, Pitch_bend_c, 5, 7865
8, 57016, Control_c, 5, 11, 76
8, 57025, Pitch_bend_c, 5, 7210
8, 57043, Pitch_bend_c, 5, 6554
8, 57060, Pitch_bend_c, 5, 5899
8, 57077, Pitch_bend_c, 5, 5244
8, 57094, Pitch_bend_c, 5, 4588
8, 57112, Pitch_bend_c, 5, 3933
8, 57129, Pitch_bend_c, 5, 3278
8, 57146, Pitch_bend_c, 5, 2622
8, 57150, Control_c, 5, 11, 77
8, 57163, Pitch_bend_c, 5, 1967
8, 57181, Pitch_bend_c, 5, 1312
8, 57198, Pitch_bend_c, 5, 656
8, 57215, Pitch_bend_c, 5, 1
8, 57216, Pitch_bend_c, 5, 0
8, 57233, Pitch_bend_c, 5, 656
8, 57250, Pitch_bend_c, 5, 1312
8, 57268, Pitch_bend_c, 5, 1967
8, 57284, Control_c, 5, 11, 78
8, 57285, Pitch_bend_c, 5, 2622
8, 57302, Pitch_bend_c, 5, 3278
8, 57319, Pitch_bend_c, 5, 3933
8, 57337, Pitch_bend_c, 5, 4588
8, 57354, Pitch_bend_c, 5, 5244
8, 57371, Pitch_bend_c, 5, 5899
8, 57388, Pitch_bend_c, 5, 6554
8, 57406, Pitch_bend_c, 5, 7210
8, 57418, Control_c, 5, 11, 79
8, 57423, Pitch_bend_c, 5, 7865
8, 57440, Pitch_bend_c, 5, 8519
8, 57457, Pitch_bend_c, 5, 9174
8, 57475, Pitch_bend_c, 5, 9830
8, 57492, Pitch_bend_c, 5, 10485
8, 57509, Pitch_bend_c, 5, 11140
8, 57526, Pitch_bend_c, 5, 11796
8, 57544, Pitch_bend_c, 5, 12451
8, 57552, Control_c, 5, 11, 80
8, 57561, Pitch_bend_c, 5, 13106
8, 57578, Pitch_bend_c, 5, 13762
8, 57595, Pitch_bend_c, 5, 14417
8, 57613, Pitch_bend_c, 5, 15072
8, 57630, Pitch_bend_c, 5, 15728
8, 57647, Pitch_bend_c, 5, 16383
8, 57648, Pitch_bend_c, 5, 16383
8, 57665, Pitch_bend_c, 5, 15728
8, 57682, Pitch_bend_c, 5, 15072
8, 57685, Control_c, 5, 11, 81
8, 57700, Pitch_bend_c, 5, 14417
8, 57717, Pitch_bend_c, 5, 13762
8, 57734, Pitch_bend_c, 5, 13106
8, 57751, Pitch_bend_c, 5, 12451
8, 57769, Pitch_bend_c, 5, 11796
8, 57786, Pitch_bend_c, 5, 11140
8, 57803, Pitch_bend_c, 5, 10485
8, 57819, Control_c, 5, 11, 82
8, 57820, Pitch_bend_c, 5, 9830
8, 57838, Pitch_bend_c, 5, 9174
8, 57855, Pitch_bend_c, 5, 8519
8, 57872, Pitch_bend_c, 5, 7865
8, 57889, Pitch_bend_c, 5, 7210
8, 57907, Pitch_bend_c, 5, 6554
8, 57924, Pitch_bend_c, 5, 5899
8, 57941, Pitch_bend_c, 5, 5244
8, 57953, Control_c, 5, 11, 83
8, 57958, Pitch_bend_c, 5, 4588
8, 57976, Pitch_bend_c, 5, 3933
8, 57993, Pitch_bend_c, 5, 3278
8, 58010, Pitch_bend_c, 5, 2622
8, 58027, Pitch_bend_c, 5, 1967
8, 58045, Pitch_bend_c, 5, 1312
8, 58062, Pitch_bend_c, 5, 656
8, 58079, Pitch_bend_c, 5, 1
8, 58080, Pitch_bend_c, 5, 0
8, 58087, Control_c, 5, 11, 84
8, 58097, Pitch_bend_c, 5, 656
8, 58114, Pitch_bend_c, 5, 1312
8, 58132, Pitch_bend_c, 5, 1967
8, 58149, Pitch_bend_c, 5, 2622
8, 58166, Pitch_bend_c, 5, 3278
8, 58183, Pitch_bend_c, 5, 3933
8, 58201, Pitch_bend_c, 5, 4588
8, 58218, Pitch_bend_c, 5, 5244
8, 58221, Control_c, 5, 11, 85
8, 58235, Pitch_bend_c, 5, 5899
8, 58252, Pitch_bend_c, 5, 6554
8, 58270, Pitch_bend_c, 5, 7210
8, 58287, Pitch_bend_c, 5, 7865
8, 58304, Pitch_bend_c, 5, 8519
8, 58321, Pitch_bend_c, 5, 9174
8, 58339, Pitch_bend_c, 5, 9830
8, 58354, Control_c, 5, 11, 86
8, 58356, Pitch_bend_c, 5, 10485
8, 58373, Pitch_bend_c, 5, 11140
8, 58390, Pitch_bend_c, 5, 11796
8, 58408, Pitch_bend_c, 5, 12451
8, 58425, Pitch_bend_c, 5, 13106
8, 58442, Pitch_bend_c, 5, 13762
8, 58459, Pitch_bend_c, 5, 14417
8, 58477, Pitch_bend_c, 5, 15072
8, 58488, Control_c, 5, 11, 87
8, 58494, Pitch_bend_c, 5, 15728
8, 58511, Pitch_bend_c, 5, 16383
8, 58512, Pitch_bend_c, 5, 16383
8, 58529, Pitch_bend_c, 5, 15728
8, 58546, Pitch_bend_c, 5, 15072
8, 58564, Pitch_bend_c, 5, 14417
8, 58581, Pitch_bend_c, 5, 13762
8, 58598, Pitch_bend_c, 5, 13106
8, 58615, Pitch_bend_c, 5, 12451
8, 58622, Control_c, 5, 11, 88
8, 58633, Pitch_bend_c, 5, 11796
8, 58650, Pitch_bend_c, 5, 11140
8, 58667, Pitch_bend_c, 5, 10485
8, 58684, Pitch_bend_c, 5, 9830
8, 58702, Pitch_bend_c, 5, 9174
8, 58719, Pitch_bend_c, 5, 8519
8, 58736, Pitch_bend_c, 5, 7865
8, 58753, Pitch_bend_c, 5, 7210
8, 58756, Control_c, 5, 11, 89
8, 58771, Pitch_bend_c, 5, 6554
8, 58788, Pitch_bend_c, 5, 5899
8, 58805, Pitch_bend_c, 5, 5244
8, 58822, Pitch_bend_c, 5, 4588
8, 58840, Pitch_bend_c, 5, 3933
8, 58857, Pitch_bend_c, 5, 3278
8, 58874, Pitch_bend_c, 5, 2622
8, 58890, Control_c, 5, 11, 90
8, 58891, Pitch_bend_c, 5, 1967
8, 58909, Pitch_bend_c, 5, 1312
8, 58926, Pitch_bend_c, 5, 656
8, 58943, Pitch_bend_c, 5, 1
8, 58944, Pitch_bend_c, 5, 0
8, 58961, Pitch_bend_c, 5, 656
8, 58978, Pitch_bend_c, 5, 1312
8, 58996, Pitch_bend_c, 5, 1967
8, 59013, Pitch_bend_c, 5, 2622
8, 59023, Control_c, 5, 11, 91
8, 59030, Pitch_bend_c, 5, 3278
8, 59047, Pitch_bend_c, 5, 3933
8, 59065, Pitch_bend_c, 5, 4588
8, 59082, Pitch_bend_c, 5, 5244
8, 59099, Pitch_bend_c, 5, 5899
8, 59116, Pitch_bend_c, 5, 6554
8, 59134, Pitch_bend_c, 5, 7210
8, 59151, Pitch_bend_c, 5, 7865
8, 59157, Control_c, 5, 11, 92
8, 59168, Pitch_bend_c, 5, 8519
8, 59185, Pitch_bend_c, 5, 9174
8, 59203, Pitch_bend_c, 5, 9830
8, 59220, Pitch_bend_c, 5, 10485
8, 59237, Pitch_bend_c, 5, 11140
8, 59254, Pitch_bend_c, 5, 11796
8, 59272, Pitch_bend_c, 5, 12451
8, 59289, Pitch_bend_c, 5, 13106
8, 59291, Control_c, 5, 11, 93
8, 59306, Pitch_bend_c, 5, 13762
8, 59323, Pitch_bend_c, 5, 14417
8, 59341, Pitch_bend_c, 5, 15072
8, 59358, Pitch_bend_c, 5, 15728
8, 59375, Pitch_bend_c, 5, 16383
8, 59376, Pitch_bend_c, 5, 16383
8, 59393, Pitch_bend_c, 5, 15728
8, 59410, Pitch_bend_c, 5, 15072
8, 59425, Control_c, 5, 11, 94
8, 59428, Pitch_bend_c, 5, 14417
8, 59445, Pitch_bend_c, 5, 13762
8, 59462, Pitch_bend_c, 5, 13106
8, 59479, Pitch_bend_c, 5, 12451
8, 59497, Pitch_bend_c, 5, 11796
8, 59514, Pitch_bend_c, 5, 11140
8, 59531, Pitch_bend_c, 5, 10485
8, 59548, Pitch_bend_c, 5, 9830
8, 59559, Control_c, 5, 11, 95
8, 59566, Pitch_bend_c, 5, 9174
8, 59583, Pitch_bend_c, 5, 8519
8, 59600, Pitch_bend_c, 5, 7865
8, 59617, Pitch_bend_c, 5, 7210
8, 59635, Pitch_bend_c, 5, 6554
8, 59652, Pitch_bend_c, 5, 5899
8, 59669, Pitch_bend_c, 5, 5244
8, 59686, Pitch_bend_c, 5, 4588
8, 59692, Control_c, 5, 11, 96
8, 59704, Pitch_bend_c, 5, 3933
8, 59721, Pitch_bend_c, 5, 3278
8, 59738, Pitch_bend_c, 5, 2622
8, 59755, Pitch_bend_c, 5, 1967
8, 59773, Pitch_bend_c, 5, 1312
8, 59790, Pitch_bend_c, 5, 656
8, 59807, Pitch_bend_c, 5, 1
8, 59808, Pitch_bend_c, 5, 0
8, 59825, Pitch_bend_c, 5, 656
8, 59826, Control_c, 5, 11, 97
8, 59842, Pitch_bend_c, 5, 1312
8, 59860, Pitch_bend_c, 5, 1967
8, 59877, Pitch_bend_c, 5, 2622
8, 59894, Pitch_bend_c, 5, 3278
8, 59911, Pitch_bend_c, 5, 3933
8, 59929, Pitch_bend_c, 5, 4588
8, 59946, Pitch_bend_c, 5, 5244
8, 59960, Control_c, 5, 11, 98
8, 59963, Pitch_bend_c, 5, 5899
8, 59980, Pitch_bend_c, 5, 6554
8, 59998, Pitch_bend_c, 5, 7210
8, 60015, Pitch_bend_c, 5, 7865
8, 60032, Pitch_bend_c, 5, 8519
8, 60049, Pitch_bend_c, 5, 9174
8, 60067, Pitch_bend_c, 5, 9830
8, 60084, Pitch_bend_c, 5, 10485
8, 60094, Control_c, 5, 11, 99
8, 60101, Pitch_bend_c, 5, 11140
8, 60118, Pitch_bend_c, 5, 11796
8, 60136, Pitch_bend_c, 5, 12451
8, 60153, Pitch_bend_c, 5, 13106
8, 60170, Pitch_bend_c, 5, 13762
8, 60187, Pitch_bend_c, 5, 14417
8, 60205, Pitch_bend_c, 5, 15072
8, 60222, Pitch_bend_c, 5, 15728
8, 60228, Control_c, 5, 11, 100
8, 60239, Pitch_bend_c, 5, 16383
8, 60240, Pitch_bend_c, 5, 16383
8, 60257, Pitch_bend_c, 5, 15728
8, 60274, Pitch_bend_c, 5, 15072
8, 60292, Pitch_bend_c, 5, 14417
8, 60309, Pitch_bend_c, 5, 13762
8, 60326, Pitch_bend_c, 5, 13106
8, 60343, Pitch_bend_c, 5, 12451
8, 60361, Control_c, 5, 11, 101
8, 60361, Pitch_bend_c, 5, 11796
8, 60378, Pitch_bend_c, 5, 11140
8, 60395, Pitch_bend_c, 5, 10485
8, 60412, Pitch_bend_c, 5, 9830
8, 60430, Pitch_bend_c, 5, 9174
8, 60447, Pitch_bend_c, 5, 8519
8, 60464, Pitch_bend_c, 5, 7865
8, 60481, Pitch_bend_c, 5, 7210
8, 60495, Control_c, 5, 11, 102
8, 60499, Pitch_bend_c, 5, 6554
8, 60516, Pitch_bend_c, 5, 5899
8, 60533, Pitch_bend_c, 5, 5244
8, 60550, Pitch_bend_c, 5, 4588
8, 60568, Pitch_bend_c, 5, 3933
8, 60585, Pitch_bend_c, 5, 3278
8, 60602, Pitch_bend_c, 5, 2622
8, 60619, Pitch_bend_c, 5, 1967
8, 60629, Control_c, 5, 11, 103
8, 60637, Pitch_bend_c, 5, 1312
8, 60654, Pitch_bend_c, 5, 656
8, 60671, Pitch_bend_c, 5, 1
8, 60672, Pitch_bend_c, 5, 0
8, 60689, Pitch_bend_c, 5, 656
8, 60706, Pitch_bend_c, 5, 1312
8, 60724, Pitch_bend_c, 5, 1967
8, 60741, Pitch_bend_c, 5, 2622
8, 60758, Pitch_bend_c, 5, 3278
8, 60763, Control_c, 5, 11, 104
8, 60775, Pitch_bend_c, 5, 3933
8, 60793, Pitch_bend_c, 5, 4588
8, 60810, Pitch_bend_c, 5, 5244
8, 60827, Pitch_bend_c, 5, 5899
8, 60844, Pitch_bend_c, 5, 6554
8, 60862, Pitch_bend_c, 5, 7210
8, 60879, Pitch_bend_c, 5, 7865
8, 60896, Pitch_bend_c, 5, 8519
8, 60897, Control_c, 5, 11, 105
8, 60913, Pitch_bend_c, 5, 9174
8, 60931, Pitch_bend_c, 5, 9830
8, 60948, Pitch_bend_c, 5, 10485
8, 60965, Pitch_bend_c, 5, 11140
8, 60982, Pitch_bend_c, 5, 11796
8, 61000, Pitch_bend_c, 5, 12451
8, 61017, Pitch_bend_c, 5, 13106
8, 61030, Control_c, 5, 11, 106
8, 61034, Pitch_bend_c, 5, 13762
8, 61051, Pitch_bend_c, 5, 14417
8, 61069, Pitch_bend_c, 5, 15072
8, 61086, Pitch_bend_c, 5, 15728
8, 61103, Pitch_bend_c, 5, 16383
8, 61104, Pitch_bend_c, 5, 16383
8, 61121, Pitch_bend_c, 5, 15728
8, 61138, Pitch_bend_c, 5, 15072
8, 61156, Pitch_bend_c, 5, 14417
8, 61164, Control_c, 5, 11, 107
8, 61173, Pitch_bend_c, 5, 13762
8, 61190, Pitch_bend_c, 5, 13106
8, 61207, Pitch_bend_c, 5, 12451
8, 61225, Pitch_bend_c, 5, 11796
8, 61242, Pitch_bend_c, 5, 11140
8, 61259, Pitch_bend_c, 5, 10485
8, 61276, Pitch_bend_c, 5, 9830
8, 61294, Pitch_bend_c, 5, 9174
8, 61298, Control_c, 5, 11, 108
8, 61311, Pitch_bend_c, 5, 8519
8, 61328, Pitch_bend_c, 5, 7865
8, 61345, Pitch_bend_c, 5, 7210
8, 61363, Pitch_bend_c, 5, 6554
8, 61380, Pitch_bend_c, 5, 5899
8, 61397, Pitch_bend_c, 5, 5244
8, 61414, Pitch_bend_c, 5, 4588
8, 61432, Control_c, 5, 11, 109
8, 61432, Pitch_bend_c, 5, 3933
8, 61449, Pitch_bend_c, 5, 3278
8, 61466, Pitch_bend_c, 5, 2622
8, 61483, Pitch_bend_c, 5, 1967
8, 61501, Pitch_bend_c, 5, 1312
8, 61518, Pitch_bend_c, 5, 656
8, 61535, Pitch_bend_c, 5, 1
8, 61536, Pitch_bend_c, 5, 0
8, 61553, Pitch_bend_c, 5, 656
8, 61565, Control_c, 5, 11, 110
8, 61570, Pitch_bend_c, 5, 1312
8, 61588, Pitch_bend_c, 5, 1967
8, 61605, Pitch_bend_c, 5, 2622
8, 61622, Pitch_bend_c, 5, 3278
8, 61639, Pitch_bend_c, 5, 3933
8, 61657, Pitch_bend_c, 5, 4588
8, 61674, Pitch_bend_c, 5, 5244
8, 61691, Pitch_bend_c, 5, 5899
8, 61699, Control_c, 5, 11, 111
8, 61708, Pitch_bend_c, 5, 6554
8, 61726, Pitch_bend_c, 5, 7210
8, 61743, Pitch_bend_c, 5, 7865
8, 61760, Pitch_bend_c, 5, 8519
8, 61777, Pitch_bend_c, 5, 9174
8, 61795, Pitch_bend_c, 5, 9830
8, 61812, Pitch_bend_c, 5, 10485
8, 61829, Pitch_bend_c, 5, 11140
8, 61833, Control_c, 5, 11, 112
8, 61846, Pitch_bend_c, 5, 11796
8, 61864, Pitch_bend_c, 5, 12451
8, 61881, Pitch_bend_c, 5, 13106
8, 61898, Pitch_bend_c, 5, 13762
8, 61915, Pitch_bend_c, 5, 14417
8, 61933, Pitch_bend_c, 5, 15072
8, 61950, Pitch_bend_c, 5, 15728
8, 61967, Pitch_bend_c, 5, 16383
8, 61967, Control_c, 5, 11, 113
8, 61968, Pitch_bend_c, 5, 16383
8, 61985, Pitch_bend_c, 5, 15728
8, 62002, Pitch_bend_c, 5, 15072
8, 62020, Pitch_bend_c, 5, 14417
8, 62037, Pitch_bend_c, 5, 13762
8, 62054, Pitch_bend_c, 5, 13106
8, 62071, Pitch_bend_c, 5, 12451
8, 62089, Pitch_bend_c, 5, 11796
8, 62101, Control_c, 5, 11, 114
8, 62106, Pitch_bend_c, 5, 11140
8, 62123, Pitch_bend_c, 5, 10485
8, 62140, Pitch_bend_c, 5, 9830
8, 62158, Pitch_bend_c, 5, 9174
8, 62175, Pitch_bend_c, 5, 8519
8, 62192, Pitch_bend_c, 5, 7865
8, 62209, Pitch_bend_c, 5, 7210
8, 62227, Pitch_bend_c, 5, 6554
8, 62234, Control_c, 5, 11, 115
8, 62244, Pitch_bend_c, 5, 5899
8, 62261, Pitch_bend_c, 5, 5244
8, 62278, Pitch_bend_c, 5, 4588
8, 62296, Pitch_bend_c, 5, 3933
8, 62313, Pitch_bend_c, 5, 3278
8, 62330, Pitch_bend_c, 5, 2622
8, 62347, Pitch_bend_c, 5, 1967
8, 62365, Pitch_bend_c, 5, 1312
8, 62368, Control_c, 5, 11, 116
8, 62382, Pitch_bend_c, 5, 656
8, 62399, Pitch_bend_c, 5, 1
8, 62400, Pitch_bend_c, 5, 0
8, 62417, Pitch_bend_c, 5, 656
8, 62434, Pitch_bend_c, 5, 1312
8, 62452, Pitch_bend_c, 5, 1967
8, 62469, Pitch_bend_c, 5, 2622
8, 62486, Pitch_bend_c, 5, 3278
8, 62502, Control_c, 5, 11, 117
8, 62503, Pitch_bend_c, 5, 3933
8, 62521, Pitch_bend_c, 5, 4588
8, 62538, Pitch_bend_c, 5, 5244
8, 62555, Pitch_bend_c, 5, 5899
8, 62572, Pitch_bend_c, 5, 6554
8, 62590, Pitch_bend_c, 5, 7210
8, 62607, Pitch_bend_c, 5, 7865
8, 62624, Pitch_bend_c, 5, 8519
8, 62636, Control_c, 5, 11, 118
8, 62641, Pitch_bend_c, 5, 9174
8, 62659, Pitch_bend_c, 5, 9830
8, 62676, Pitch_bend_c, 5, 10485
8, 62693, Pitch_bend_c, 5, 11140
8, 62710, Pitch_bend_c, 5, 11796
8, 62728, Pitch_bend_c, 5, 12451
8, 62745, Pitch_bend_c, 5, 13106
8, 62762, Pitch_bend_c, 5, 13762
8, 62770, Control_c, 5, 11, 119
8, 62779, Pitch_bend_c, 5, 14417
8, 62797, Pitch_bend_c, 5, 15072
8, 62814, Pitch_bend_c, 5, 15728
8, 62831, Pitch_bend_c, 5, 16383
8, 62832, Pitch_bend_c, 5, 16383
8, 62849, Pitch_bend_c, 5, 15728
8, 62866, Pitch_bend_c, 5, 15072
8, 62884, Pitch_bend_c, 5, 14417
8, 62901, Pitch_bend_c, 5, 13762
8, 62903, Control_c, 5, 11, 120
8, 62918, Pitch_bend_c, 5, 13106
8, 62935, Pitch_bend_c, 5, 12451
8, 62953, Pitch_bend_c, 5, 11796
8, 62970, Pitch_bend_c, 5, 11140
8, 62987, Pitch_bend_c, 5, 10485
8, 63004, Pitch_bend_c, 5, 9830
8, 63022, Pitch_bend_c, 5, 9174
8, 63037, Control_c, 5, 11, 121
8, 63039, Pitch_bend_c, 5, 8519
8, 63056, Pitch_bend_c, 5, 7865
8, 63073, Pitch_bend_c, 5, 7210
8, 63091, Pitch_bend_c, 5, 6554
8, 63108, Pitch_bend_c, 5, 5899
8, 63125, Pitch_bend_c, 5, 5244
8, 63142, Pitch_bend_c, 5, 4588
8, 63160, Pitch_bend_c, 5, 3933
8, 63171, Control_c, 5, 11, 122
8, 63177, Pitch_bend_c, 5, 3278
8, 63194, Pitch_bend_c, 5, 2622
8, 63211, Pitch_bend_c, 5, 1967
8, 63229, Pitch_bend_c, 5, 1312
8, 63246, Pitch_bend_c, 5, 656
8, 63263, Pitch_bend_c, 5, 1
8, 63264, Pitch_bend_c, 5, 0
8, 63281, Pitch_bend_c, 5, 656
8, 63298, Pitch_bend_c, 5, 1312
8, 63305, Control_c, 5, 11, 123
8, 63316, Pitch_bend_c, 5, 1967
8, 63333, Pitch_bend_c, 5, 2622
8, 63350, Pitch_bend_c, 5, 3278
8, 63367, Pitch_bend_c, 5, 3933
8, 63385, Pitch_bend_c, 5, 4588
8, 63402, Pitch_bend_c, 5, 5244
8, 63419, Pitch_bend_c, 5, 5899
8, 63436, Pitch_bend_c, 5, 6554
8, 63439, Control_c, 5, 11, 124
8, 63454, Pitch_bend_c, 5, 7210
8, 63471, Pitch_bend_c, 5, 7865
8, 63488, Pitch_bend_c, 5, 8519
8, 63505, Pitch_bend_c, 5, 9174
8, 63523, Pitch_bend_c, 5, 9830
8, 63540, Pitch_bend_c, 5, 10485
8, 63557, Pitch_bend_c, 5, 11140
8, 63572, Control_c, 5, 11, 125
8, 63574, Pitch_bend_c, 5, 11796
8, 63592, Pitch_bend_c, 5, 12451
8, 63609, Pitch_bend_c, 5, 13106
8, 63626, Pitch_bend_c, 5, 13762
8, 63643, Pitch_bend_c, 5, 14417
8, 63661, Pitch_bend_c, 5, 15072
8, 63678, Pitch_bend_c, 5, 15728
8, 63695, Pitch_bend_c, 5, 16383
8, 63696, Pitch_bend_c, 5, 16383
8, 63706, Control_c, 5, 11, 126
8, 63713, Pitch_bend_c, 5, 15728
8, 63730, Pitch_bend_c, 5, 15072
8, 63748, Pitch_bend_c, 5, 14417
8, 63765, Pitch_bend_c, 5, 13762
8, 63782, Pitch_bend_c, 5, 13106
8, 63799, Pitch_bend_c, 5, 12451
8, 63817, Pitch_bend_c, 5, 11796
8, 63834, Pitch_bend_c, 5, 11140
8, 63840, Control_c, 5, 11, 127
8, 63851, Pitch_bend_c, 5, 10485
8, 63868, Pitch_bend_c, 5, 9830
8, 63886, Pitch_bend_c, 5, 9174
8, 63903, Pitch_bend_c, 5, 8519
8, 63920, Pitch_bend_c, 5, 7865
8, 63937, Pitch_bend_c, 5, 7210
8, 63955, Pitch_bend_c, 5, 6554
8, 63972, Pitch_bend_c, 5, 5899
8, 63989, Pitch_bend_c, 5, 5244
8, 64006, Pitch_bend_c, 5, 4588
8, 64024, Pitch_bend_c, 5, 3933
8, 64041, Pitch_bend_c, 5, 3278
8, 64058, Pitch_bend_c, 5, 2622
8, 64075, Pitch_bend_c, 5, 1967
8, 64093, Pitch_bend_c, 5, 1312
8, 64110, Pitch_bend_c, 5, 656
8, 64127, Pitch_bend_c, 5, 1
8, 64128, Pitch_bend_c, 5, 0
8, 64145, Pitch_bend_c, 5, 656
8, 64162, Pitch_bend_c, 5, 1312
8, 64180, Pitch_bend_c, 5, 1967
8, 64197, Pitch_bend_c, 5, 2622
8, 64214, Pitch_bend_c, 5, 3278
8, 64231, Pitch_bend_c, 5, 3933
8, 64249, Pitch_bend_c, 5, 4588
8, 64266, Pitch_bend_c, 5, 5244
8, 64283, Pitch_bend_c, 5, 5899
8, 64300, Pitch_bend_c, 5, 6554
8, 64318, Pitch_bend_c, 5, 7210
8, 64335, Pitch_bend_c, 5, 7865
8, 64352, Pitch_bend_c, 5, 8519
8, 64369, Pitch_bend_c, 5, 9174
8, 64387, Pitch_bend_c, 5, 9830
8, 64404, Pitch_bend_c, 5, 10485
8, 64421, Pitch_bend_c, 5, 11140
8, 64438, Pitch_bend_c, 5, 11796
8, 64456, Pitch_bend_c, 5, 12451
8, 64473, Pitch_bend_c, 5, 13106
8, 64490, Pitch_bend_c, 5, 13762
8, 64507, Pitch_bend_c, 5, 14417
8, 64525, Pitch_bend_c, 5, 15072
8, 64542, Pitch_bend_c, 5, 15728
8, 64559, Pitch_bend_c, 5, 16383
8, 64560, Pitch_bend_c, 5, 16383
8, 64577, Pitch_bend_c, 5, 15728
8, 64594, Pitch_bend_c, 5, 15072
8, 64612, Pitch_bend_c, 5, 14417
8, 64629, Pitch_bend_c, 5, 13762
8, 64646, Pitch_bend_c, 5, 13106
8, 64663, Pitch_bend_c, 5, 12451
8, 64681, Pitch_bend_c, 5, 11796
8, 64698, Pitch_bend_c, 5, 11140
8, 64715, Pitch_bend_c, 5, 10485
8, 64732, Pitch_bend_c, 5, 9830
8, 64750, Pitch_bend_c, 5, 9174
8, 64767, Pitch_bend_c, 5, 8519
8, 64784, Pitch_bend_c, 5, 7865
8, 64801, Pitch_bend_c, 5, 7210
8, 64819, Pitch_bend_c, 5, 6554
8, 64836, Pitch_bend_c, 5, 5899
8, 64853, Pitch_bend_c, 5, 5244
8, 64870, Pitch_bend_c, 5, 4588
8, 64888, Pitch_bend_c, 5, 3933
8, 64905, Pitch_bend_c, 5, 3278
8, 64922, Pitch_bend_c, 5, 2622
8, 64939, Pitch_bend_c, 5, 1967
8, 64957, Pitch_bend_c, 5, 1312
8, 64974, Pitch_bend_c, 5, 656
8, 64991, Pitch_bend_c, 5, 1
8, 64992, Pitch_bend_c, 5, 0
8, 65009, Pitch_bend_c, 5, 656
8, 65026, Pitch_bend_c, 5, 1312
8, 65044, Pitch_bend_c, 5, 1967
8, 65061, Pitch_bend_c, 5, 2622
8, 65078, Pitch_bend_c, 5, 3278
8, 65095, Pitch_bend_c, 5, 3933
8, 65113, Pitch_bend_c, 5, 4588
8, 65130, Pitch_bend_c, 5, 5244
8, 65147, Pitch_bend_c, 5, 5899
8, 65164, Pitch_bend_c, 5, 6554
8, 65182, Pitch_bend_c, 5, 7210
8, 65199, Pitch_bend_c, 5, 7865
8, 65216, Pitch_bend_c, 5, 8519
8, 65233, Pitch_bend_c, 5, 9174
8, 65251, Pitch_bend_c, 5, 9830
8, 65268, Pitch_bend_c, 5, 10485
8, 65285, Pitch_bend_c, 5, 11140
8, 65302, Pitch_bend_c, 5, 11796
8, 65320, Pitch_bend_c, 5, 12451
8, 65337, Pitch_bend_c, 5, 13106
8, 65354, Pitch_bend_c, 5, 13762
8, 65371, Pitch_bend_c, 5, 14417
8, 65389, Pitch_bend_c, 5, 15072
8, 65406, Pitch_bend_c, 5, 15728
8, 65423, Pitch_bend_c, 5, 16383
8, 65424, Pitch_bend_c, 5, 16383
8, 65441, Pitch_bend_c, 5, 15728
8, 65458, Pitch_bend_c, 5, 15072
8, 65476, Pitch_bend_c, 5, 14417
8, 65493, Pitch_bend_c, 5, 13762
8, 65510, Pitch_bend_c, 5, 13106
8, 65527, Pitch_bend_c, 5, 12451
8, 65545, Pitch_bend_c, 5, 11796
8, 65562, Pitch_bend_c, 5, 11140
8, 65579, Pitch_bend_c, 5, 10485
8, 65596, Pitch_bend_c, 5, 9830
8, 65614, Pitch_bend_c, 5, 9174
8, 65631, Pitch_bend_c, 5, 8519
8, 65648, Pitch_bend_c, 5, 7865
8, 65665, Pitch_bend_c, 5, 7210
8, 65683, Pitch_bend_c, 5, 6554
8, 65700, Pitch_bend_c, 5, 5899
8, 65717, Pitch_bend_c, 5, 5244
8, 65734, Pitch_bend_c, 5, 4588
8, 65752, Pitch_bend_c, 5, 3933
8, 65769, Pitch_bend_c, 5, 3278
8, 65786, Pitch_bend_c, 5, 2622
8, 65803, Pitch_bend_c, 5, 1967
8, 65821, Pitch_bend_c, 5, 1312
8, 65838, Pitch_bend_c, 5, 656
8, 65855, Pitch_bend_c, 5, 1
8, 65856, Pitch_bend_c, 5, 0
8, 65873, Pitch_bend_c, 5, 656
8, 65890, Pitch_bend_c, 5, 1312
8, 65908, Pitch_bend_c, 5, 1967
8, 65925, Pitch_bend_c, 5, 2622
8, 65942, Pitch_bend_c, 5, 3278
8, 65959, Pitch_bend_c, 5, 3933
8, 65977, Pitch_bend_c, 5, 4588
8, 65994, Pitch_bend_c, 5, 5244
8, 66011, Pitch_bend_c, 5, 5899
8, 66028, Pitch_bend_c, 5, 6554
8, 66046, Pitch_bend_c, 5, 7210
8, 66063, Pitch_bend_c, 5, 7865
8, 66080, Pitch_bend_c, 5, 8519
8, 66097, Pitch_bend_c, 5, 9174
8, 66115, Pitch_bend_c, 5, 9830
8, 66132, Pitch_bend_c, 5, 10485
8, 66149, Pitch_bend_c, 5, 11140
8, 66166, Pitch_bend_c, 5, 11796
8, 66184, Pitch_bend_c, 5, 12451
8, 66201, Pitch_bend_c, 5, 13106
8, 66218, Pitch_bend_c, 5, 13762
8, 66235, Pitch_bend_c, 5, 14417
8, 66253, Pitch_bend_c, 5, 15072
8, 66270, Pitch_bend_c, 5, 15728
8, 66287, Pitch_bend_c, 5, 16383
8, 66288, Pitch_bend_c, 5, 16383
8, 66305, Pitch_bend_c, 5, 15728
8, 66322, Pitch_bend_c, 5, 15072
8, 66340, Pitch_bend_c, 5, 14417
8, 66357, Pitch_bend_c, 5, 13762
8, 66374, Pitch_bend_c, 5, 13106
8, 66391, Pitch_bend_c, 5, 12451
8, 66409, Pitch_bend_c, 5, 11796
8, 66426, Pitch_bend_c, 5, 11140
8, 66443, Pitch_bend_c, 5, 10485
8, 66460, Pitch_bend_c, 5, 9830
8, 66478, Pitch_bend_c, 5, 9174
8, 66495, Pitch_bend_c, 5, 8519
8, 66512, Pitch_bend_c, 5, 7865
8, 66529, Pitch_bend_c, 5, 7210
8, 66547, Pitch_bend_c, 5, 6554
8, 66564, Pitch_bend_c, 5, 5899
8, 66581, Pitch_bend_c, 5, 5244
8, 66598, Pitch_bend_c, 5, 4588
8, 66616, Pitch_bend_c, 5, 3933
8, 66633, Pitch_bend_c, 5, 3278
8, 66650, Pitch_bend_c, 5, 2622
8, 66667, Pitch_bend_c, 5, 1967
8, 66685, Pitch_bend_c, 5, 1312
8, 66702, Pitch_bend_c, 5, 656
8, 66719, Pitch_bend_c, 5, 1
8, 66720, Pitch_bend_c, 5, 0
8, 66737, Pitch_bend_c, 5, 656
8, 66754, Pitch_bend_c, 5, 1312
8, 66772, Pitch_bend_c, 5, 1967
8, 66789, Pitch_bend_c, 5, 2622
8, 66806, Pitch_bend_c, 5, 3278
8, 66823, Pitch_bend_c, 5, 3933
8, 66841, Pitch_bend_c, 5, 4588
8, 66858, Pitch_bend_c, 5, 5244
8, 66875, Pitch_bend_c, 5, 5899
8, 66892, Pitch_bend_c, 5, 6554
8, 66910, Pitch_bend_c, 5, 7210
8, 66927, Pitch_bend_c, 5, 7865
8, 66944, Pitch_bend_c, 5, 8519
8, 66961, Pitch_bend_c, 5, 9174
8, 66979, Pitch_bend_c, 5, 9830
8, 66996, Pitch_bend_c, 5, 10485
8, 67013, Pitch_bend_c, 5, 11140
8, 67030, Pitch_bend_c, 5, 11796
8, 67048, Pitch_bend_c, 5, 12451
8, 67065, Pitch_bend_c, 5, 13106
8, 67082, Pitch_bend_c, 5, 13762
8, 67099, Pitch_bend_c, 5, 14417
8, 67117, Pitch_bend_c, 5, 15072
8, 67134, Pitch_bend_c, 5, 15728
8, 67151, Pitch_bend_c, 5, 16383
8, 67152, Pitch_bend_c, 5, 16383
8, 67169, Pitch_bend_c, 5, 15728
8, 67186, Pitch_bend_c, 5, 15072
8, 67204, Pitch_bend_c, 5, 14417
8, 67221, Pitch_bend_c, 5, 13762
8, 67238, Pitch_bend_c, 5, 13106
8, 67255, Pitch_bend_c, 5, 12451
8, 67273, Pitch_bend_c, 5, 11796
8, 67290, Pitch_bend_c, 5, 11140
8, 67307, Pitch_bend_c, 5, 10485
8, 67324, Pitch_bend_c, 5, 9830
8, 67342, Pitch_bend_c, 5, 9174
8, 67359, Pitch_bend_c, 5, 8519
8, 67376, Pitch_bend_c, 5, 7865
8, 67393, Pitch_bend_c, 5, 7210
8, 67411, Pitch_bend_c, 5, 6554
8, 67428, Pitch_bend_c, 5, 5899
8, 67445, Pitch_bend_c, 5, 5244
8, 67462, Pitch_bend_c, 5, 4588
8, 67480, Pitch_bend_c, 5, 3933
8, 67497, Pitch_bend_c, 5, 3278
8, 67514, Pitch_bend_c, 5, 2622
8, 67531, Pitch_bend_c, 5, 1967
8, 67549, Pitch_bend_c, 5, 1312
8, 67566, Pitch_bend_c, 5, 656
8, 67583, Pitch_bend_c, 5, 1
8, 67584, Pitch_bend_c, 5, 0
8, 67601, Pitch_bend_c, 5, 656
8, 67618, Pitch_bend_c, 5, 1312
8, 67636, Pitch_bend_c, 5, 1967
8, 67653, Pitch_bend_c, 5, 2622
8, 67670, Pitch_bend_c, 5, 3278
8, 67687, Pitch_bend_c, 5, 3933
8, 67705, Pitch_bend_c, 5, 4588
8, 67722, Pitch_bend_c, 5, 5244
8, 67739, Pitch_bend_c, 5, 5899
8, 67756, Pitch_bend_c, 5, 6554
8, 67774, Pitch_bend_c, 5, 7210
8, 67791, Pitch_bend_c, 5, 7865
8, 67808, Pitch_bend_c, 5, 8519
8, 67825, Pitch_bend_c, 5, 9174
8, 67843, Pitch_bend_c, 5, 9830
8, 67860, Pitch_bend_c, 5, 10485
8, 67877, Pitch_bend_c, 5, 11140
8, 67894, Pitch_bend_c, 5, 11796
8, 67912, Pitch_bend_c, 5, 12451
8, 67929, Pitch_bend_c, 5, 13106
8, 67946, Pitch_bend_c, 5, 13762
8, 67963, Pitch_bend_c, 5, 14417
8, 67981, Pitch_bend_c, 5, 15072
8, 67998, Pitch_bend_c, 5, 15728
8, 68015, Pitch_bend_c, 5, 16383
8, 68016, Pitch_bend_c, 5, 16383
8, 68033, Pitch_bend_c, 5, 15728
8, 68050, Pitch_bend_c, 5, 15072
8, 68068, Pitch_bend_c, 5, 14417
8, 68085, Pitch_bend_c, 5, 13762
8, 68102, Pitch_bend_c, 5, 13106
8, 68119, Pitch_bend_c, 5, 12451
8, 68137, Pitch_bend_c, 5, 11796
8, 68154, Pitch_bend_c, 5, 11140
8, 68159, Note_on_c, 5, 60, 0
8, 68171, Pitch_bend_c, 5, 10485
8, 68188, Pitch_bend_c, 5, 9830
8, 68206, Pitch_bend_c, 5, 9174
8, 68207, Control_c, 5, 11, 0
8, 68208, Pitch_bend_c, 5, 8192
8, 68208, End_track
9, 0, Start_track
9, 0, Title_t, "*Delete Trk6 If Probs"
9, 0, MIDI_port, 0
9, 0, End_track
10, 0, Start_track
10, 0, Title_t, "GS Reset SYX DWB"
10, 0, MIDI_port, 0
10, 0, System_exclusive, 10, 65, 16, 66, 18, 64, 0, 127, 0, 65, 247
10, 384, System_exclusive, 32, 65, 16, 69, 18, 16, 0, 0, 83, 101, 113, 117, 101, 110, 99, 101, 100, 32, 98, 121, 32, 68, 46, 87, 46, 66, 97, 114, 110, 101, 115, 102, 247
10, 2880, System_exclusive, 34, 65, 16, 69, 18, 16, 0, 0, 69, 109, 97, 105, 108, 58, 32, 68, 97, 118, 105, 100, 66, 55, 49, 55, 48, 64, 97, 111, 108, 46, 99, 111, 109, 76, 247
10, 68736, System_exclusive, 10, 65, 16, 66, 18, 64, 0, 127, 0, 65, 247
10, 68736, End_track
11, 0, Start_track
11, 0, Title_t, "================="
11, 0, MIDI_port, 0
11, 0, End_track
12, 0, Start_track
12, 0, Title_t, "MUSIC & WORDS by:"
12, 0, MIDI_port, 0
12, 0, End_track
13, 0, Start_track
13, 0, Title_t, "John Lennon"
13, 0, MIDI_port, 0
13, 0, End_track
14, 0, Start_track
14, 0, Title_t, "Paul McCartney"
14, 0, MIDI_port, 0
14, 0, End_track
15, 0, Start_track
15, 0, Title_t, "SEQUENCED by:"
15, 0, MIDI_port, 0
15, 0, End_track
16, 0, Start_track
16, 0, Title_t, "DWBarnes 04/06/96"
16, 0, MIDI_port, 0
16, 0, Copyright_t, "MIDI File Copyright 1996, DWBarnes"
16, 0, Text_t, "For Personal Use Only"
16, 1, Text_t, "Modification without MIDI File"
16, 2, Text_t, "author's permission is prohibited."
16, 4, Text_t, "Comments?"
16, 4, Text_t, "Email: DavidB7170@aol.com"
16, 4, End_track
17, 0, Start_track
17, 0, Title_t, "================="
17, 0, MIDI_port, 0
17, 0, End_track
0, 0, End_of_file
