0, 0, Header, 1, 13, 960
1, 0, Start_track
1, 0, Control_c, 0, 101, 0
1, 0, Control_c, 0, 100, 0
1, 0, Control_c, 0, 6, 12
1, 0, Control_c, 0, 38, 0
1, 0, Control_c, 1, 101, 0
1, 0, Control_c, 1, 100, 0
1, 0, Control_c, 1, 6, 12
1, 0, Control_c, 1, 38, 0
1, 0, Control_c, 2, 101, 0
1, 0, Control_c, 2, 100, 0
1, 0, Control_c, 2, 6, 12
1, 0, Control_c, 2, 38, 0
1, 0, Control_c, 3, 101, 0
1, 0, Control_c, 3, 100, 0
1, 0, Control_c, 3, 6, 12
1, 0, Control_c, 3, 38, 0
1, 0, Control_c, 4, 101, 0
1, 0, Control_c, 4, 100, 0
1, 0, Control_c, 4, 6, 12
1, 0, Control_c, 4, 38, 0
1, 0, Control_c, 5, 101, 0
1, 0, Control_c, 5, 100, 0
1, 0, Control_c, 5, 6, 12
1, 0, Control_c, 5, 38, 0
1, 0, Control_c, 6, 101, 0
1, 0, Control_c, 6, 100, 0
1, 0, Control_c, 6, 6, 12
1, 0, Control_c, 6, 38, 0
1, 0, Control_c, 7, 101, 0
1, 0, Control_c, 7, 100, 0
1, 0, Control_c, 7, 6, 12
1, 0, Control_c, 7, 38, 0
1, 0, Control_c, 8, 101, 0
1, 0, Control_c, 8, 100, 0
1, 0, Control_c, 8, 6, 12
1, 0, Control_c, 8, 38, 0
1, 0, Control_c, 9, 101, 0
1, 0, Control_c, 9, 100, 0
1, 0, Control_c, 9, 6, 12
1, 0, Control_c, 9, 38, 0
1, 0, Control_c, 10, 101, 0
1, 0, Control_c, 10, 100, 0
1, 0, Control_c, 10, 6, 12
1, 0, Control_c, 10, 38, 0
1, 0, Control_c, 11, 101, 0
1, 0, Control_c, 11, 100, 0
1, 0, Control_c, 11, 6, 12
1, 0, Control_c, 11, 38, 0
1, 0, Control_c, 12, 101, 0
1, 0, Control_c, 12, 100, 0
1, 0, Control_c, 12, 6, 12
1, 0, Control_c, 12, 38, 0
1, 0, Control_c, 13, 101, 0
1, 0, Control_c, 13, 100, 0
1, 0, Control_c, 13, 6, 12
1, 0, Control_c, 13, 38, 0
1, 0, Control_c, 14, 101, 0
1, 0, Control_c, 14, 100, 0
1, 0, Control_c, 14, 6, 12
1, 0, Control_c, 14, 38, 0
1, 0, Control_c, 15, 101, 0
1, 0, Control_c, 15, 100, 0
1, 0, Control_c, 15, 6, 12
1, 0, Control_c, 15, 38, 0
1, 0, Time_signature, 4, 2, 24, 8
1, 0, Tempo, 566037
1, 0, End_track
2, 0, Start_track
2, 0, Pitch_bend_c, 0, 8192
2, 0, Control_c, 0, 7, 95
2, 0, Control_c, 0, 10, 63
2, 0, Control_c, 0, 93, 0
2, 0, Control_c, 0, 91, 0
2, 0, Control_c, 0, 95, 0
2, 0, Control_c, 0, 92, 0
2, 0, Control_c, 0, 11, 127
2, 0, Program_c, 0, 25
2, 0, Control_c, 1, 7, 95
2, 0, Control_c, 1, 10, 63
2, 0, Control_c, 1, 93, 0
2, 0, Control_c, 1, 91, 0
2, 0, Control_c, 1, 95, 0
2, 0, Control_c, 1, 92, 0
2, 0, Control_c, 1, 11, 127
2, 0, Program_c, 1, 25
2, 0, Note_on_c, 0, 64, 95
2, 0, Note_on_c, 0, 61, 95
2, 0, Note_on_c, 0, 57, 95
2, 960, Note_off_c, 0, 64, 95
2, 960, Note_off_c, 0, 61, 95
2, 960, Note_off_c, 0, 57, 95
2, 960, Note_on_c, 0, 64, 95
2, 960, Note_on_c, 0, 61, 95
2, 960, Note_on_c, 0, 57, 95
2, 1920, Note_off_c, 0, 64, 95
2, 1920, Note_off_c, 0, 61, 95
2, 1920, Note_off_c, 0, 57, 95
2, 1920, Note_on_c, 0, 64, 95
2, 1920, Note_on_c, 0, 61, 95
2, 1920, Note_on_c, 0, 57, 95
2, 2400, Note_off_c, 0, 64, 95
2, 2400, Note_off_c, 0, 61, 95
2, 2400, Note_off_c, 0, 57, 95
2, 2400, Note_on_c, 0, 64, 95
2, 2400, Note_on_c, 0, 61, 95
2, 2400, Note_on_c, 0, 57, 95
2, 2880, Note_off_c, 0, 64, 95
2, 2880, Note_off_c, 0, 61, 95
2, 2880, Note_off_c, 0, 57, 95
2, 3840, Note_on_c, 0, 64, 95
2, 3840, Note_on_c, 0, 61, 95
2, 3840, Note_on_c, 0, 57, 95
2, 3840, Note_on_c, 0, 52, 95
2, 3840, Note_on_c, 0, 45, 95
2, 3840, Note_on_c, 0, 40, 95
2, 4800, Note_off_c, 0, 64, 95
2, 4800, Note_off_c, 0, 61, 95
2, 4800, Note_off_c, 0, 57, 95
2, 4800, Note_off_c, 0, 52, 95
2, 4800, Note_off_c, 0, 45, 95
2, 4800, Note_off_c, 0, 40, 95
2, 4800, Note_on_c, 0, 64, 95
2, 4800, Note_on_c, 0, 61, 95
2, 4800, Note_on_c, 0, 57, 95
2, 4800, Note_on_c, 0, 52, 95
2, 4800, Note_on_c, 0, 45, 95
2, 4800, Note_on_c, 0, 40, 95
2, 5280, Note_off_c, 0, 64, 95
2, 5280, Note_off_c, 0, 61, 95
2, 5280, Note_off_c, 0, 57, 95
2, 5280, Note_off_c, 0, 52, 95
2, 5280, Note_off_c, 0, 45, 95
2, 5280, Note_off_c, 0, 40, 95
2, 5280, Note_on_c, 0, 64, 95
2, 5280, Note_on_c, 0, 61, 95
2, 5280, Note_on_c, 0, 57, 95
2, 5280, Note_on_c, 0, 52, 95
2, 5280, Note_on_c, 0, 45, 95
2, 5280, Note_on_c, 0, 40, 95
2, 6240, Note_off_c, 0, 64, 95
2, 6240, Note_off_c, 0, 61, 95
2, 6240, Note_off_c, 0, 57, 95
2, 6240, Note_off_c, 0, 52, 95
2, 6240, Note_off_c, 0, 45, 95
2, 6240, Note_off_c, 0, 40, 95
2, 6240, Note_on_c, 0, 64, 95
2, 6240, Note_on_c, 0, 61, 95
2, 6240, Note_on_c, 0, 57, 95
2, 6240, Note_on_c, 0, 52, 95
2, 6240, Note_on_c, 0, 45, 95
2, 6240, Note_on_c, 0, 40, 95
2, 7200, Note_off_c, 0, 64, 95
2, 7200, Note_off_c, 0, 61, 95
2, 7200, Note_off_c, 0, 57, 95
2, 7200, Note_off_c, 0, 52, 95
2, 7200, Note_off_c, 0, 45, 95
2, 7200, Note_off_c, 0, 40, 95
2, 7200, Note_on_c, 0, 64, 95
2, 7200, Note_on_c, 0, 61, 95
2, 7200, Note_on_c, 0, 57, 95
2, 7200, Note_on_c, 0, 52, 95
2, 7200, Note_on_c, 0, 45, 95
2, 7200, Note_on_c, 0, 40, 95
2, 7680, Note_off_c, 0, 64, 95
2, 7680, Note_off_c, 0, 61, 95
2, 7680, Note_off_c, 0, 57, 95
2, 7680, Note_off_c, 0, 52, 95
2, 7680, Note_off_c, 0, 45, 95
2, 7680, Note_off_c, 0, 40, 95
2, 7680, Note_on_c, 0, 64, 95
2, 7680, Note_on_c, 0, 61, 95
2, 7680, Note_on_c, 0, 57, 95
2, 7680, Note_on_c, 0, 52, 95
2, 7680, Note_on_c, 0, 45, 95
2, 7680, Note_on_c, 0, 40, 95
2, 8640, Note_off_c, 0, 64, 95
2, 8640, Note_off_c, 0, 61, 95
2, 8640, Note_off_c, 0, 57, 95
2, 8640, Note_off_c, 0, 52, 95
2, 8640, Note_off_c, 0, 45, 95
2, 8640, Note_off_c, 0, 40, 95
2, 8640, Note_on_c, 0, 64, 95
2, 8640, Note_on_c, 0, 61, 95
2, 8640, Note_on_c, 0, 57, 95
2, 8640, Note_on_c, 0, 52, 95
2, 8640, Note_on_c, 0, 45, 95
2, 8640, Note_on_c, 0, 40, 95
2, 9120, Note_off_c, 0, 64, 95
2, 9120, Note_off_c, 0, 61, 95
2, 9120, Note_off_c, 0, 57, 95
2, 9120, Note_off_c, 0, 52, 95
2, 9120, Note_off_c, 0, 45, 95
2, 9120, Note_off_c, 0, 40, 95
2, 9120, Note_on_c, 0, 64, 95
2, 9120, Note_on_c, 0, 61, 95
2, 9120, Note_on_c, 0, 57, 95
2, 9120, Note_on_c, 0, 52, 95
2, 9120, Note_on_c, 0, 45, 95
2, 9120, Note_on_c, 0, 40, 95
2, 10080, Note_off_c, 0, 64, 95
2, 10080, Note_off_c, 0, 61, 95
2, 10080, Note_off_c, 0, 57, 95
2, 10080, Note_off_c, 0, 52, 95
2, 10080, Note_off_c, 0, 45, 95
2, 10080, Note_off_c, 0, 40, 95
2, 10080, Note_on_c, 0, 64, 95
2, 10080, Note_on_c, 0, 61, 95
2, 10080, Note_on_c, 0, 57, 95
2, 10080, Note_on_c, 0, 52, 95
2, 10080, Note_on_c, 0, 45, 95
2, 10080, Note_on_c, 0, 40, 95
2, 10560, Note_off_c, 0, 64, 95
2, 10560, Note_off_c, 0, 61, 95
2, 10560, Note_off_c, 0, 57, 95
2, 10560, Note_off_c, 0, 52, 95
2, 10560, Note_off_c, 0, 45, 95
2, 10560, Note_off_c, 0, 40, 95
2, 10560, Note_on_c, 0, 64, 95
2, 10560, Note_on_c, 0, 61, 95
2, 10560, Note_on_c, 0, 57, 95
2, 10560, Note_on_c, 0, 52, 95
2, 10560, Note_on_c, 0, 45, 95
2, 10560, Note_on_c, 0, 40, 95
2, 11520, Note_off_c, 0, 64, 95
2, 11520, Note_off_c, 0, 61, 95
2, 11520, Note_off_c, 0, 57, 95
2, 11520, Note_off_c, 0, 52, 95
2, 11520, Note_off_c, 0, 45, 95
2, 11520, Note_off_c, 0, 40, 95
2, 11520, Note_on_c, 0, 66, 95
2, 11520, Note_on_c, 0, 62, 95
2, 11520, Note_on_c, 0, 57, 95
2, 11520, Note_on_c, 0, 50, 95
2, 11520, Note_on_c, 0, 45, 95
2, 11520, Note_on_c, 0, 42, 95
2, 12960, Note_off_c, 0, 66, 95
2, 12960, Note_off_c, 0, 62, 95
2, 12960, Note_off_c, 0, 57, 95
2, 12960, Note_off_c, 0, 50, 95
2, 12960, Note_off_c, 0, 45, 95
2, 12960, Note_off_c, 0, 42, 95
2, 12960, Note_on_c, 0, 66, 95
2, 12960, Note_on_c, 0, 62, 95
2, 12960, Note_on_c, 0, 57, 95
2, 12960, Note_on_c, 0, 50, 95
2, 12960, Note_on_c, 0, 45, 95
2, 12960, Note_on_c, 0, 42, 95
2, 13920, Note_off_c, 0, 66, 95
2, 13920, Note_off_c, 0, 62, 95
2, 13920, Note_off_c, 0, 57, 95
2, 13920, Note_off_c, 0, 50, 95
2, 13920, Note_off_c, 0, 45, 95
2, 13920, Note_off_c, 0, 42, 95
2, 13920, Note_on_c, 0, 66, 95
2, 13920, Note_on_c, 0, 62, 95
2, 13920, Note_on_c, 0, 57, 95
2, 13920, Note_on_c, 0, 50, 95
2, 13920, Note_on_c, 0, 45, 95
2, 13920, Note_on_c, 0, 42, 95
2, 14400, Note_off_c, 0, 66, 95
2, 14400, Note_off_c, 0, 62, 95
2, 14400, Note_off_c, 0, 57, 95
2, 14400, Note_off_c, 0, 50, 95
2, 14400, Note_off_c, 0, 45, 95
2, 14400, Note_off_c, 0, 42, 95
2, 14400, Note_on_c, 0, 66, 95
2, 14400, Note_on_c, 0, 62, 95
2, 14400, Note_on_c, 0, 57, 95
2, 14400, Note_on_c, 0, 50, 95
2, 14400, Note_on_c, 0, 45, 95
2, 14400, Note_on_c, 0, 42, 95
2, 14880, Note_off_c, 0, 66, 95
2, 14880, Note_off_c, 0, 62, 95
2, 14880, Note_off_c, 0, 57, 95
2, 14880, Note_off_c, 0, 50, 95
2, 14880, Note_off_c, 0, 45, 95
2, 14880, Note_off_c, 0, 42, 95
2, 14880, Note_on_c, 0, 66, 95
2, 14880, Note_on_c, 0, 62, 95
2, 14880, Note_on_c, 0, 57, 95
2, 14880, Note_on_c, 0, 50, 95
2, 14880, Note_on_c, 0, 45, 95
2, 14880, Note_on_c, 0, 42, 95
2, 15360, Note_off_c, 0, 66, 95
2, 15360, Note_off_c, 0, 62, 95
2, 15360, Note_off_c, 0, 57, 95
2, 15360, Note_off_c, 0, 50, 95
2, 15360, Note_off_c, 0, 45, 95
2, 15360, Note_off_c, 0, 42, 95
2, 15360, Note_on_c, 0, 66, 95
2, 15360, Note_on_c, 0, 62, 95
2, 15360, Note_on_c, 0, 57, 95
2, 15360, Note_on_c, 0, 50, 95
2, 15360, Note_on_c, 0, 45, 95
2, 16320, Note_off_c, 0, 66, 95
2, 16320, Note_off_c, 0, 62, 95
2, 16320, Note_off_c, 0, 57, 95
2, 16320, Note_off_c, 0, 50, 95
2, 16320, Note_off_c, 0, 45, 95
2, 16320, Note_on_c, 0, 66, 95
2, 16320, Note_on_c, 0, 62, 95
2, 16320, Note_on_c, 0, 57, 95
2, 16320, Note_on_c, 0, 50, 95
2, 16320, Note_on_c, 0, 45, 95
2, 16800, Note_off_c, 0, 66, 95
2, 16800, Note_off_c, 0, 62, 95
2, 16800, Note_off_c, 0, 57, 95
2, 16800, Note_off_c, 0, 50, 95
2, 16800, Note_off_c, 0, 45, 95
2, 16800, Note_on_c, 0, 66, 95
2, 16800, Note_on_c, 0, 62, 95
2, 16800, Note_on_c, 0, 57, 95
2, 16800, Note_on_c, 0, 50, 95
2, 16800, Note_on_c, 0, 45, 95
2, 17760, Note_off_c, 0, 66, 95
2, 17760, Note_off_c, 0, 62, 95
2, 17760, Note_off_c, 0, 57, 95
2, 17760, Note_off_c, 0, 50, 95
2, 17760, Note_off_c, 0, 45, 95
2, 17760, Note_on_c, 0, 66, 95
2, 17760, Note_on_c, 0, 62, 95
2, 17760, Note_on_c, 0, 57, 95
2, 17760, Note_on_c, 0, 50, 95
2, 17760, Note_on_c, 0, 45, 95
2, 18240, Note_off_c, 0, 66, 95
2, 18240, Note_off_c, 0, 62, 95
2, 18240, Note_off_c, 0, 57, 95
2, 18240, Note_off_c, 0, 50, 95
2, 18240, Note_off_c, 0, 45, 95
2, 18240, Note_on_c, 0, 66, 95
2, 18240, Note_on_c, 0, 62, 95
2, 18240, Note_on_c, 0, 57, 95
2, 18240, Note_on_c, 0, 50, 95
2, 18240, Note_on_c, 0, 45, 95
2, 19200, Note_off_c, 0, 66, 95
2, 19200, Note_off_c, 0, 62, 95
2, 19200, Note_off_c, 0, 57, 95
2, 19200, Note_off_c, 0, 50, 95
2, 19200, Note_off_c, 0, 45, 95
2, 19200, Note_on_c, 0, 64, 95
2, 19200, Note_on_c, 0, 61, 95
2, 19200, Note_on_c, 0, 57, 95
2, 19200, Note_on_c, 0, 52, 95
2, 19200, Note_on_c, 0, 45, 95
2, 19200, Note_on_c, 0, 40, 95
2, 20160, Note_off_c, 0, 64, 95
2, 20160, Note_off_c, 0, 61, 95
2, 20160, Note_off_c, 0, 57, 95
2, 20160, Note_off_c, 0, 52, 95
2, 20160, Note_off_c, 0, 45, 95
2, 20160, Note_off_c, 0, 40, 95
2, 20160, Note_on_c, 0, 64, 95
2, 20160, Note_on_c, 0, 61, 95
2, 20160, Note_on_c, 0, 57, 95
2, 20160, Note_on_c, 0, 52, 95
2, 20160, Note_on_c, 0, 45, 95
2, 20160, Note_on_c, 0, 40, 95
2, 20640, Note_off_c, 0, 64, 95
2, 20640, Note_off_c, 0, 61, 95
2, 20640, Note_off_c, 0, 57, 95
2, 20640, Note_off_c, 0, 52, 95
2, 20640, Note_off_c, 0, 45, 95
2, 20640, Note_off_c, 0, 40, 95
2, 20640, Note_on_c, 0, 64, 95
2, 20640, Note_on_c, 0, 61, 95
2, 20640, Note_on_c, 0, 57, 95
2, 20640, Note_on_c, 0, 52, 95
2, 20640, Note_on_c, 0, 45, 95
2, 20640, Note_on_c, 0, 40, 95
2, 21600, Note_off_c, 0, 64, 95
2, 21600, Note_off_c, 0, 61, 95
2, 21600, Note_off_c, 0, 57, 95
2, 21600, Note_off_c, 0, 52, 95
2, 21600, Note_off_c, 0, 45, 95
2, 21600, Note_off_c, 0, 40, 95
2, 21600, Note_on_c, 0, 64, 95
2, 21600, Note_on_c, 0, 61, 95
2, 21600, Note_on_c, 0, 57, 95
2, 21600, Note_on_c, 0, 52, 95
2, 21600, Note_on_c, 0, 45, 95
2, 21600, Note_on_c, 0, 40, 95
2, 22560, Note_off_c, 0, 64, 95
2, 22560, Note_off_c, 0, 61, 95
2, 22560, Note_off_c, 0, 57, 95
2, 22560, Note_off_c, 0, 52, 95
2, 22560, Note_off_c, 0, 45, 95
2, 22560, Note_off_c, 0, 40, 95
2, 22560, Note_on_c, 0, 64, 95
2, 22560, Note_on_c, 0, 61, 95
2, 22560, Note_on_c, 0, 57, 95
2, 22560, Note_on_c, 0, 52, 95
2, 22560, Note_on_c, 0, 45, 95
2, 22560, Note_on_c, 0, 40, 95
2, 23040, Note_off_c, 0, 64, 95
2, 23040, Note_off_c, 0, 61, 95
2, 23040, Note_off_c, 0, 57, 95
2, 23040, Note_off_c, 0, 52, 95
2, 23040, Note_off_c, 0, 45, 95
2, 23040, Note_off_c, 0, 40, 95
2, 23040, Note_on_c, 0, 64, 95
2, 23040, Note_on_c, 0, 61, 95
2, 23040, Note_on_c, 0, 57, 95
2, 23040, Note_on_c, 0, 52, 95
2, 23040, Note_on_c, 0, 45, 95
2, 23040, Note_on_c, 0, 40, 95
2, 24000, Note_off_c, 0, 64, 95
2, 24000, Note_off_c, 0, 61, 95
2, 24000, Note_off_c, 0, 57, 95
2, 24000, Note_off_c, 0, 52, 95
2, 24000, Note_off_c, 0, 45, 95
2, 24000, Note_off_c, 0, 40, 95
2, 24000, Note_on_c, 0, 64, 95
2, 24000, Note_on_c, 0, 61, 95
2, 24000, Note_on_c, 0, 57, 95
2, 24000, Note_on_c, 0, 52, 95
2, 24000, Note_on_c, 0, 45, 95
2, 24000, Note_on_c, 0, 40, 95
2, 24480, Note_off_c, 0, 64, 95
2, 24480, Note_off_c, 0, 61, 95
2, 24480, Note_off_c, 0, 57, 95
2, 24480, Note_off_c, 0, 52, 95
2, 24480, Note_off_c, 0, 45, 95
2, 24480, Note_off_c, 0, 40, 95
2, 24480, Note_on_c, 0, 64, 95
2, 24480, Note_on_c, 0, 61, 95
2, 24480, Note_on_c, 0, 57, 95
2, 24480, Note_on_c, 0, 52, 95
2, 24480, Note_on_c, 0, 45, 95
2, 24480, Note_on_c, 0, 40, 95
2, 25440, Note_off_c, 0, 64, 95
2, 25440, Note_off_c, 0, 61, 95
2, 25440, Note_off_c, 0, 57, 95
2, 25440, Note_off_c, 0, 52, 95
2, 25440, Note_off_c, 0, 45, 95
2, 25440, Note_off_c, 0, 40, 95
2, 25440, Note_on_c, 0, 64, 95
2, 25440, Note_on_c, 0, 61, 95
2, 25440, Note_on_c, 0, 57, 95
2, 25440, Note_on_c, 0, 52, 95
2, 25440, Note_on_c, 0, 45, 95
2, 25440, Note_on_c, 0, 40, 95
2, 25920, Note_off_c, 0, 64, 95
2, 25920, Note_off_c, 0, 61, 95
2, 25920, Note_off_c, 0, 57, 95
2, 25920, Note_off_c, 0, 52, 95
2, 25920, Note_off_c, 0, 45, 95
2, 25920, Note_off_c, 0, 40, 95
2, 25920, Note_on_c, 0, 64, 95
2, 25920, Note_on_c, 0, 61, 95
2, 25920, Note_on_c, 0, 57, 95
2, 25920, Note_on_c, 0, 52, 95
2, 25920, Note_on_c, 0, 45, 95
2, 25920, Note_on_c, 0, 40, 95
2, 26880, Note_off_c, 0, 64, 95
2, 26880, Note_off_c, 0, 61, 95
2, 26880, Note_off_c, 0, 57, 95
2, 26880, Note_off_c, 0, 52, 95
2, 26880, Note_off_c, 0, 45, 95
2, 26880, Note_off_c, 0, 40, 95
2, 26880, Note_on_c, 0, 66, 95
2, 26880, Note_on_c, 0, 62, 95
2, 26880, Note_on_c, 0, 57, 95
2, 26880, Note_on_c, 0, 50, 95
2, 26880, Note_on_c, 0, 45, 95
2, 26880, Note_on_c, 0, 42, 95
2, 28320, Note_off_c, 0, 66, 95
2, 28320, Note_off_c, 0, 62, 95
2, 28320, Note_off_c, 0, 57, 95
2, 28320, Note_off_c, 0, 50, 95
2, 28320, Note_off_c, 0, 45, 95
2, 28320, Note_off_c, 0, 42, 95
2, 28320, Note_on_c, 0, 66, 95
2, 28320, Note_on_c, 0, 62, 95
2, 28320, Note_on_c, 0, 57, 95
2, 28320, Note_on_c, 0, 50, 95
2, 28320, Note_on_c, 0, 45, 95
2, 28320, Note_on_c, 0, 42, 95
2, 29280, Note_off_c, 0, 66, 95
2, 29280, Note_off_c, 0, 62, 95
2, 29280, Note_off_c, 0, 57, 95
2, 29280, Note_off_c, 0, 50, 95
2, 29280, Note_off_c, 0, 45, 95
2, 29280, Note_off_c, 0, 42, 95
2, 29280, Note_on_c, 0, 66, 95
2, 29280, Note_on_c, 0, 62, 95
2, 29280, Note_on_c, 0, 57, 95
2, 29280, Note_on_c, 0, 50, 95
2, 29280, Note_on_c, 0, 45, 95
2, 29280, Note_on_c, 0, 42, 95
2, 29760, Note_off_c, 0, 66, 95
2, 29760, Note_off_c, 0, 62, 95
2, 29760, Note_off_c, 0, 57, 95
2, 29760, Note_off_c, 0, 50, 95
2, 29760, Note_off_c, 0, 45, 95
2, 29760, Note_off_c, 0, 42, 95
2, 29760, Note_on_c, 0, 66, 95
2, 29760, Note_on_c, 0, 62, 95
2, 29760, Note_on_c, 0, 57, 95
2, 29760, Note_on_c, 0, 50, 95
2, 29760, Note_on_c, 0, 45, 95
2, 29760, Note_on_c, 0, 42, 95
2, 30240, Note_off_c, 0, 66, 95
2, 30240, Note_off_c, 0, 62, 95
2, 30240, Note_off_c, 0, 57, 95
2, 30240, Note_off_c, 0, 50, 95
2, 30240, Note_off_c, 0, 45, 95
2, 30240, Note_off_c, 0, 42, 95
2, 30240, Note_on_c, 0, 66, 95
2, 30240, Note_on_c, 0, 62, 95
2, 30240, Note_on_c, 0, 57, 95
2, 30240, Note_on_c, 0, 50, 95
2, 30240, Note_on_c, 0, 45, 95
2, 30240, Note_on_c, 0, 42, 95
2, 30720, Note_off_c, 0, 66, 95
2, 30720, Note_off_c, 0, 62, 95
2, 30720, Note_off_c, 0, 57, 95
2, 30720, Note_off_c, 0, 50, 95
2, 30720, Note_off_c, 0, 45, 95
2, 30720, Note_off_c, 0, 42, 95
2, 30720, Note_on_c, 0, 66, 95
2, 30720, Note_on_c, 0, 62, 95
2, 30720, Note_on_c, 0, 57, 95
2, 30720, Note_on_c, 0, 50, 95
2, 30720, Note_on_c, 0, 45, 95
2, 31680, Note_off_c, 0, 66, 95
2, 31680, Note_off_c, 0, 62, 95
2, 31680, Note_off_c, 0, 57, 95
2, 31680, Note_off_c, 0, 50, 95
2, 31680, Note_off_c, 0, 45, 95
2, 31680, Note_on_c, 0, 66, 95
2, 31680, Note_on_c, 0, 62, 95
2, 31680, Note_on_c, 0, 57, 95
2, 31680, Note_on_c, 0, 50, 95
2, 31680, Note_on_c, 0, 45, 95
2, 32160, Note_off_c, 0, 66, 95
2, 32160, Note_off_c, 0, 62, 95
2, 32160, Note_off_c, 0, 57, 95
2, 32160, Note_off_c, 0, 50, 95
2, 32160, Note_off_c, 0, 45, 95
2, 32160, Note_on_c, 0, 66, 95
2, 32160, Note_on_c, 0, 62, 95
2, 32160, Note_on_c, 0, 57, 95
2, 32160, Note_on_c, 0, 50, 95
2, 32160, Note_on_c, 0, 45, 95
2, 33120, Note_off_c, 0, 66, 95
2, 33120, Note_off_c, 0, 62, 95
2, 33120, Note_off_c, 0, 57, 95
2, 33120, Note_off_c, 0, 50, 95
2, 33120, Note_off_c, 0, 45, 95
2, 33120, Note_on_c, 0, 66, 95
2, 33120, Note_on_c, 0, 62, 95
2, 33120, Note_on_c, 0, 57, 95
2, 33120, Note_on_c, 0, 50, 95
2, 33120, Note_on_c, 0, 45, 95
2, 33600, Note_off_c, 0, 66, 95
2, 33600, Note_off_c, 0, 62, 95
2, 33600, Note_off_c, 0, 57, 95
2, 33600, Note_off_c, 0, 50, 95
2, 33600, Note_off_c, 0, 45, 95
2, 33600, Note_on_c, 0, 66, 95
2, 33600, Note_on_c, 0, 62, 95
2, 33600, Note_on_c, 0, 57, 95
2, 33600, Note_on_c, 0, 50, 95
2, 33600, Note_on_c, 0, 45, 95
2, 34560, Note_off_c, 0, 66, 95
2, 34560, Note_off_c, 0, 62, 95
2, 34560, Note_off_c, 0, 57, 95
2, 34560, Note_off_c, 0, 50, 95
2, 34560, Note_off_c, 0, 45, 95
2, 34560, Note_on_c, 0, 64, 95
2, 34560, Note_on_c, 0, 61, 95
2, 34560, Note_on_c, 0, 57, 95
2, 34560, Note_on_c, 0, 52, 95
2, 34560, Note_on_c, 0, 45, 95
2, 34560, Note_on_c, 0, 40, 95
2, 35520, Note_off_c, 0, 64, 95
2, 35520, Note_off_c, 0, 61, 95
2, 35520, Note_off_c, 0, 57, 95
2, 35520, Note_off_c, 0, 52, 95
2, 35520, Note_off_c, 0, 45, 95
2, 35520, Note_off_c, 0, 40, 95
2, 35520, Note_on_c, 0, 64, 95
2, 35520, Note_on_c, 0, 61, 95
2, 35520, Note_on_c, 0, 57, 95
2, 35520, Note_on_c, 0, 52, 95
2, 35520, Note_on_c, 0, 45, 95
2, 35520, Note_on_c, 0, 40, 95
2, 36000, Note_off_c, 0, 64, 95
2, 36000, Note_off_c, 0, 61, 95
2, 36000, Note_off_c, 0, 57, 95
2, 36000, Note_off_c, 0, 52, 95
2, 36000, Note_off_c, 0, 45, 95
2, 36000, Note_off_c, 0, 40, 95
2, 36000, Note_on_c, 0, 64, 95
2, 36000, Note_on_c, 0, 61, 95
2, 36000, Note_on_c, 0, 57, 95
2, 36000, Note_on_c, 0, 52, 95
2, 36000, Note_on_c, 0, 45, 95
2, 36000, Note_on_c, 0, 40, 95
2, 36960, Note_off_c, 0, 64, 95
2, 36960, Note_off_c, 0, 61, 95
2, 36960, Note_off_c, 0, 57, 95
2, 36960, Note_off_c, 0, 52, 95
2, 36960, Note_off_c, 0, 45, 95
2, 36960, Note_off_c, 0, 40, 95
2, 36960, Note_on_c, 0, 64, 95
2, 36960, Note_on_c, 0, 61, 95
2, 36960, Note_on_c, 0, 57, 95
2, 36960, Note_on_c, 0, 52, 95
2, 36960, Note_on_c, 0, 45, 95
2, 36960, Note_on_c, 0, 40, 95
2, 37920, Note_off_c, 0, 64, 95
2, 37920, Note_off_c, 0, 61, 95
2, 37920, Note_off_c, 0, 57, 95
2, 37920, Note_off_c, 0, 52, 95
2, 37920, Note_off_c, 0, 45, 95
2, 37920, Note_off_c, 0, 40, 95
2, 37920, Note_on_c, 0, 64, 95
2, 37920, Note_on_c, 0, 61, 95
2, 37920, Note_on_c, 0, 57, 95
2, 37920, Note_on_c, 0, 52, 95
2, 37920, Note_on_c, 0, 45, 95
2, 37920, Note_on_c, 0, 40, 95
2, 38400, Note_off_c, 0, 64, 95
2, 38400, Note_off_c, 0, 61, 95
2, 38400, Note_off_c, 0, 57, 95
2, 38400, Note_off_c, 0, 52, 95
2, 38400, Note_off_c, 0, 45, 95
2, 38400, Note_off_c, 0, 40, 95
2, 38400, Note_on_c, 0, 64, 95
2, 38400, Note_on_c, 0, 61, 95
2, 38400, Note_on_c, 0, 57, 95
2, 38400, Note_on_c, 0, 52, 95
2, 38400, Note_on_c, 0, 45, 95
2, 38400, Note_on_c, 0, 40, 95
2, 39360, Note_off_c, 0, 64, 95
2, 39360, Note_off_c, 0, 61, 95
2, 39360, Note_off_c, 0, 57, 95
2, 39360, Note_off_c, 0, 52, 95
2, 39360, Note_off_c, 0, 45, 95
2, 39360, Note_off_c, 0, 40, 95
2, 39360, Note_on_c, 0, 64, 95
2, 39360, Note_on_c, 0, 61, 95
2, 39360, Note_on_c, 0, 57, 95
2, 39360, Note_on_c, 0, 52, 95
2, 39360, Note_on_c, 0, 45, 95
2, 39360, Note_on_c, 0, 40, 95
2, 39840, Note_off_c, 0, 64, 95
2, 39840, Note_off_c, 0, 61, 95
2, 39840, Note_off_c, 0, 57, 95
2, 39840, Note_off_c, 0, 52, 95
2, 39840, Note_off_c, 0, 45, 95
2, 39840, Note_off_c, 0, 40, 95
2, 39840, Note_on_c, 0, 64, 95
2, 39840, Note_on_c, 0, 61, 95
2, 39840, Note_on_c, 0, 57, 95
2, 39840, Note_on_c, 0, 52, 95
2, 39840, Note_on_c, 0, 45, 95
2, 39840, Note_on_c, 0, 40, 95
2, 40800, Note_off_c, 0, 64, 95
2, 40800, Note_off_c, 0, 61, 95
2, 40800, Note_off_c, 0, 57, 95
2, 40800, Note_off_c, 0, 52, 95
2, 40800, Note_off_c, 0, 45, 95
2, 40800, Note_off_c, 0, 40, 95
2, 40800, Note_on_c, 0, 64, 95
2, 40800, Note_on_c, 0, 61, 95
2, 40800, Note_on_c, 0, 57, 95
2, 40800, Note_on_c, 0, 52, 95
2, 40800, Note_on_c, 0, 45, 95
2, 40800, Note_on_c, 0, 40, 95
2, 41280, Note_off_c, 0, 64, 95
2, 41280, Note_off_c, 0, 61, 95
2, 41280, Note_off_c, 0, 57, 95
2, 41280, Note_off_c, 0, 52, 95
2, 41280, Note_off_c, 0, 45, 95
2, 41280, Note_off_c, 0, 40, 95
2, 41280, Note_on_c, 0, 64, 95
2, 41280, Note_on_c, 0, 61, 95
2, 41280, Note_on_c, 0, 57, 95
2, 41280, Note_on_c, 0, 52, 95
2, 41280, Note_on_c, 0, 45, 95
2, 41280, Note_on_c, 0, 40, 95
2, 42240, Note_off_c, 0, 64, 95
2, 42240, Note_off_c, 0, 61, 95
2, 42240, Note_off_c, 0, 57, 95
2, 42240, Note_off_c, 0, 52, 95
2, 42240, Note_off_c, 0, 45, 95
2, 42240, Note_off_c, 0, 40, 95
2, 42240, Note_on_c, 0, 66, 95
2, 42240, Note_on_c, 0, 62, 95
2, 42240, Note_on_c, 0, 57, 95
2, 42240, Note_on_c, 0, 50, 95
2, 42240, Note_on_c, 0, 45, 95
2, 42240, Note_on_c, 0, 42, 95
2, 43680, Note_off_c, 0, 66, 95
2, 43680, Note_off_c, 0, 62, 95
2, 43680, Note_off_c, 0, 57, 95
2, 43680, Note_off_c, 0, 50, 95
2, 43680, Note_off_c, 0, 45, 95
2, 43680, Note_off_c, 0, 42, 95
2, 43680, Note_on_c, 0, 66, 95
2, 43680, Note_on_c, 0, 62, 95
2, 43680, Note_on_c, 0, 57, 95
2, 43680, Note_on_c, 0, 50, 95
2, 43680, Note_on_c, 0, 45, 95
2, 43680, Note_on_c, 0, 42, 95
2, 44640, Note_off_c, 0, 66, 95
2, 44640, Note_off_c, 0, 62, 95
2, 44640, Note_off_c, 0, 57, 95
2, 44640, Note_off_c, 0, 50, 95
2, 44640, Note_off_c, 0, 45, 95
2, 44640, Note_off_c, 0, 42, 95
2, 44640, Note_on_c, 0, 66, 95
2, 44640, Note_on_c, 0, 62, 95
2, 44640, Note_on_c, 0, 57, 95
2, 44640, Note_on_c, 0, 50, 95
2, 44640, Note_on_c, 0, 45, 95
2, 44640, Note_on_c, 0, 42, 95
2, 45120, Note_off_c, 0, 66, 95
2, 45120, Note_off_c, 0, 62, 95
2, 45120, Note_off_c, 0, 57, 95
2, 45120, Note_off_c, 0, 50, 95
2, 45120, Note_off_c, 0, 45, 95
2, 45120, Note_off_c, 0, 42, 95
2, 45120, Note_on_c, 0, 66, 95
2, 45120, Note_on_c, 0, 62, 95
2, 45120, Note_on_c, 0, 57, 95
2, 45120, Note_on_c, 0, 50, 95
2, 45120, Note_on_c, 0, 45, 95
2, 45120, Note_on_c, 0, 42, 95
2, 45600, Note_off_c, 0, 66, 95
2, 45600, Note_off_c, 0, 62, 95
2, 45600, Note_off_c, 0, 57, 95
2, 45600, Note_off_c, 0, 50, 95
2, 45600, Note_off_c, 0, 45, 95
2, 45600, Note_off_c, 0, 42, 95
2, 45600, Note_on_c, 0, 66, 95
2, 45600, Note_on_c, 0, 62, 95
2, 45600, Note_on_c, 0, 57, 95
2, 45600, Note_on_c, 0, 50, 95
2, 45600, Note_on_c, 0, 45, 95
2, 45600, Note_on_c, 0, 42, 95
2, 46080, Note_off_c, 0, 66, 95
2, 46080, Note_off_c, 0, 62, 95
2, 46080, Note_off_c, 0, 57, 95
2, 46080, Note_off_c, 0, 50, 95
2, 46080, Note_off_c, 0, 45, 95
2, 46080, Note_off_c, 0, 42, 95
2, 46080, Note_on_c, 0, 66, 95
2, 46080, Note_on_c, 0, 62, 95
2, 46080, Note_on_c, 0, 57, 95
2, 46080, Note_on_c, 0, 50, 95
2, 46080, Note_on_c, 0, 45, 95
2, 47040, Note_off_c, 0, 66, 95
2, 47040, Note_off_c, 0, 62, 95
2, 47040, Note_off_c, 0, 57, 95
2, 47040, Note_off_c, 0, 50, 95
2, 47040, Note_off_c, 0, 45, 95
2, 47040, Note_on_c, 0, 66, 95
2, 47040, Note_on_c, 0, 62, 95
2, 47040, Note_on_c, 0, 57, 95
2, 47040, Note_on_c, 0, 50, 95
2, 47040, Note_on_c, 0, 45, 95
2, 47520, Note_off_c, 0, 66, 95
2, 47520, Note_off_c, 0, 62, 95
2, 47520, Note_off_c, 0, 57, 95
2, 47520, Note_off_c, 0, 50, 95
2, 47520, Note_off_c, 0, 45, 95
2, 47520, Note_on_c, 0, 66, 95
2, 47520, Note_on_c, 0, 62, 95
2, 47520, Note_on_c, 0, 57, 95
2, 47520, Note_on_c, 0, 50, 95
2, 47520, Note_on_c, 0, 45, 95
2, 48480, Note_off_c, 0, 66, 95
2, 48480, Note_off_c, 0, 62, 95
2, 48480, Note_off_c, 0, 57, 95
2, 48480, Note_off_c, 0, 50, 95
2, 48480, Note_off_c, 0, 45, 95
2, 48480, Note_on_c, 0, 66, 95
2, 48480, Note_on_c, 0, 62, 95
2, 48480, Note_on_c, 0, 57, 95
2, 48480, Note_on_c, 0, 50, 95
2, 48480, Note_on_c, 0, 45, 95
2, 48960, Note_off_c, 0, 66, 95
2, 48960, Note_off_c, 0, 62, 95
2, 48960, Note_off_c, 0, 57, 95
2, 48960, Note_off_c, 0, 50, 95
2, 48960, Note_off_c, 0, 45, 95
2, 48960, Note_on_c, 0, 66, 95
2, 48960, Note_on_c, 0, 62, 95
2, 48960, Note_on_c, 0, 57, 95
2, 48960, Note_on_c, 0, 50, 95
2, 48960, Note_on_c, 0, 45, 95
2, 49920, Note_off_c, 0, 66, 95
2, 49920, Note_off_c, 0, 62, 95
2, 49920, Note_off_c, 0, 57, 95
2, 49920, Note_off_c, 0, 50, 95
2, 49920, Note_off_c, 0, 45, 95
2, 49920, Note_on_c, 0, 64, 95
2, 49920, Note_on_c, 0, 61, 95
2, 49920, Note_on_c, 0, 57, 95
2, 49920, Note_on_c, 0, 52, 95
2, 49920, Note_on_c, 0, 45, 95
2, 49920, Note_on_c, 0, 40, 95
2, 50880, Note_off_c, 0, 64, 95
2, 50880, Note_off_c, 0, 61, 95
2, 50880, Note_off_c, 0, 57, 95
2, 50880, Note_off_c, 0, 52, 95
2, 50880, Note_off_c, 0, 45, 95
2, 50880, Note_off_c, 0, 40, 95
2, 50880, Note_on_c, 0, 64, 95
2, 50880, Note_on_c, 0, 61, 95
2, 50880, Note_on_c, 0, 57, 95
2, 50880, Note_on_c, 0, 52, 95
2, 50880, Note_on_c, 0, 45, 95
2, 50880, Note_on_c, 0, 40, 95
2, 51360, Note_off_c, 0, 64, 95
2, 51360, Note_off_c, 0, 61, 95
2, 51360, Note_off_c, 0, 57, 95
2, 51360, Note_off_c, 0, 52, 95
2, 51360, Note_off_c, 0, 45, 95
2, 51360, Note_off_c, 0, 40, 95
2, 51360, Note_on_c, 0, 64, 95
2, 51360, Note_on_c, 0, 61, 95
2, 51360, Note_on_c, 0, 57, 95
2, 51360, Note_on_c, 0, 52, 95
2, 51360, Note_on_c, 0, 45, 95
2, 51360, Note_on_c, 0, 40, 95
2, 52320, Note_off_c, 0, 64, 95
2, 52320, Note_off_c, 0, 61, 95
2, 52320, Note_off_c, 0, 57, 95
2, 52320, Note_off_c, 0, 52, 95
2, 52320, Note_off_c, 0, 45, 95
2, 52320, Note_off_c, 0, 40, 95
2, 52320, Note_on_c, 0, 64, 95
2, 52320, Note_on_c, 0, 61, 95
2, 52320, Note_on_c, 0, 57, 95
2, 52320, Note_on_c, 0, 52, 95
2, 52320, Note_on_c, 0, 45, 95
2, 52320, Note_on_c, 0, 40, 95
2, 53280, Note_off_c, 0, 64, 95
2, 53280, Note_off_c, 0, 61, 95
2, 53280, Note_off_c, 0, 57, 95
2, 53280, Note_off_c, 0, 52, 95
2, 53280, Note_off_c, 0, 45, 95
2, 53280, Note_off_c, 0, 40, 95
2, 53280, Note_on_c, 0, 64, 95
2, 53280, Note_on_c, 0, 61, 95
2, 53280, Note_on_c, 0, 57, 95
2, 53280, Note_on_c, 0, 52, 95
2, 53280, Note_on_c, 0, 45, 95
2, 53280, Note_on_c, 0, 40, 95
2, 53760, Note_off_c, 0, 64, 95
2, 53760, Note_off_c, 0, 61, 95
2, 53760, Note_off_c, 0, 57, 95
2, 53760, Note_off_c, 0, 52, 95
2, 53760, Note_off_c, 0, 45, 95
2, 53760, Note_off_c, 0, 40, 95
2, 53760, Note_on_c, 0, 64, 95
2, 53760, Note_on_c, 0, 61, 95
2, 53760, Note_on_c, 0, 57, 95
2, 53760, Note_on_c, 0, 52, 95
2, 53760, Note_on_c, 0, 45, 95
2, 53760, Note_on_c, 0, 40, 95
2, 54720, Note_off_c, 0, 64, 95
2, 54720, Note_off_c, 0, 61, 95
2, 54720, Note_off_c, 0, 57, 95
2, 54720, Note_off_c, 0, 52, 95
2, 54720, Note_off_c, 0, 45, 95
2, 54720, Note_off_c, 0, 40, 95
2, 54720, Note_on_c, 0, 64, 95
2, 54720, Note_on_c, 0, 61, 95
2, 54720, Note_on_c, 0, 57, 95
2, 54720, Note_on_c, 0, 52, 95
2, 54720, Note_on_c, 0, 45, 95
2, 54720, Note_on_c, 0, 40, 95
2, 55200, Note_off_c, 0, 64, 95
2, 55200, Note_off_c, 0, 61, 95
2, 55200, Note_off_c, 0, 57, 95
2, 55200, Note_off_c, 0, 52, 95
2, 55200, Note_off_c, 0, 45, 95
2, 55200, Note_off_c, 0, 40, 95
2, 55200, Note_on_c, 0, 64, 95
2, 55200, Note_on_c, 0, 61, 95
2, 55200, Note_on_c, 0, 57, 95
2, 55200, Note_on_c, 0, 52, 95
2, 55200, Note_on_c, 0, 45, 95
2, 55200, Note_on_c, 0, 40, 95
2, 56160, Note_off_c, 0, 64, 95
2, 56160, Note_off_c, 0, 61, 95
2, 56160, Note_off_c, 0, 57, 95
2, 56160, Note_off_c, 0, 52, 95
2, 56160, Note_off_c, 0, 45, 95
2, 56160, Note_off_c, 0, 40, 95
2, 56160, Note_on_c, 0, 64, 95
2, 56160, Note_on_c, 0, 61, 95
2, 56160, Note_on_c, 0, 57, 95
2, 56160, Note_on_c, 0, 52, 95
2, 56160, Note_on_c, 0, 45, 95
2, 56160, Note_on_c, 0, 40, 95
2, 56640, Note_off_c, 0, 64, 95
2, 56640, Note_off_c, 0, 61, 95
2, 56640, Note_off_c, 0, 57, 95
2, 56640, Note_off_c, 0, 52, 95
2, 56640, Note_off_c, 0, 45, 95
2, 56640, Note_off_c, 0, 40, 95
2, 56640, Note_on_c, 0, 64, 95
2, 56640, Note_on_c, 0, 61, 95
2, 56640, Note_on_c, 0, 57, 95
2, 56640, Note_on_c, 0, 52, 95
2, 56640, Note_on_c, 0, 45, 95
2, 56640, Note_on_c, 0, 40, 95
2, 57600, Note_off_c, 0, 64, 95
2, 57600, Note_off_c, 0, 61, 95
2, 57600, Note_off_c, 0, 57, 95
2, 57600, Note_off_c, 0, 52, 95
2, 57600, Note_off_c, 0, 45, 95
2, 57600, Note_off_c, 0, 40, 95
2, 57600, Note_on_c, 0, 66, 95
2, 57600, Note_on_c, 0, 62, 95
2, 57600, Note_on_c, 0, 57, 95
2, 57600, Note_on_c, 0, 50, 95
2, 57600, Note_on_c, 0, 45, 95
2, 57600, Note_on_c, 0, 42, 95
2, 59040, Note_off_c, 0, 66, 95
2, 59040, Note_off_c, 0, 62, 95
2, 59040, Note_off_c, 0, 57, 95
2, 59040, Note_off_c, 0, 50, 95
2, 59040, Note_off_c, 0, 45, 95
2, 59040, Note_off_c, 0, 42, 95
2, 59040, Note_on_c, 0, 66, 95
2, 59040, Note_on_c, 0, 62, 95
2, 59040, Note_on_c, 0, 57, 95
2, 59040, Note_on_c, 0, 50, 95
2, 59040, Note_on_c, 0, 45, 95
2, 59040, Note_on_c, 0, 42, 95
2, 60000, Note_off_c, 0, 66, 95
2, 60000, Note_off_c, 0, 62, 95
2, 60000, Note_off_c, 0, 57, 95
2, 60000, Note_off_c, 0, 50, 95
2, 60000, Note_off_c, 0, 45, 95
2, 60000, Note_off_c, 0, 42, 95
2, 60000, Note_on_c, 0, 66, 95
2, 60000, Note_on_c, 0, 62, 95
2, 60000, Note_on_c, 0, 57, 95
2, 60000, Note_on_c, 0, 50, 95
2, 60000, Note_on_c, 0, 45, 95
2, 60000, Note_on_c, 0, 42, 95
2, 60480, Note_off_c, 0, 66, 95
2, 60480, Note_off_c, 0, 62, 95
2, 60480, Note_off_c, 0, 57, 95
2, 60480, Note_off_c, 0, 50, 95
2, 60480, Note_off_c, 0, 45, 95
2, 60480, Note_off_c, 0, 42, 95
2, 60480, Note_on_c, 0, 66, 95
2, 60480, Note_on_c, 0, 62, 95
2, 60480, Note_on_c, 0, 57, 95
2, 60480, Note_on_c, 0, 50, 95
2, 60480, Note_on_c, 0, 45, 95
2, 60480, Note_on_c, 0, 42, 95
2, 60960, Note_off_c, 0, 66, 95
2, 60960, Note_off_c, 0, 62, 95
2, 60960, Note_off_c, 0, 57, 95
2, 60960, Note_off_c, 0, 50, 95
2, 60960, Note_off_c, 0, 45, 95
2, 60960, Note_off_c, 0, 42, 95
2, 60960, Note_on_c, 0, 66, 95
2, 60960, Note_on_c, 0, 62, 95
2, 60960, Note_on_c, 0, 57, 95
2, 60960, Note_on_c, 0, 50, 95
2, 60960, Note_on_c, 0, 45, 95
2, 60960, Note_on_c, 0, 42, 95
2, 61440, Note_off_c, 0, 66, 95
2, 61440, Note_off_c, 0, 62, 95
2, 61440, Note_off_c, 0, 57, 95
2, 61440, Note_off_c, 0, 50, 95
2, 61440, Note_off_c, 0, 45, 95
2, 61440, Note_off_c, 0, 42, 95
2, 61440, Note_on_c, 0, 66, 95
2, 61440, Note_on_c, 0, 62, 95
2, 61440, Note_on_c, 0, 57, 95
2, 61440, Note_on_c, 0, 50, 95
2, 61440, Note_on_c, 0, 45, 95
2, 62400, Note_off_c, 0, 66, 95
2, 62400, Note_off_c, 0, 62, 95
2, 62400, Note_off_c, 0, 57, 95
2, 62400, Note_off_c, 0, 50, 95
2, 62400, Note_off_c, 0, 45, 95
2, 62400, Note_on_c, 0, 66, 95
2, 62400, Note_on_c, 0, 62, 95
2, 62400, Note_on_c, 0, 57, 95
2, 62400, Note_on_c, 0, 50, 95
2, 62400, Note_on_c, 0, 45, 95
2, 62880, Note_off_c, 0, 66, 95
2, 62880, Note_off_c, 0, 62, 95
2, 62880, Note_off_c, 0, 57, 95
2, 62880, Note_off_c, 0, 50, 95
2, 62880, Note_off_c, 0, 45, 95
2, 62880, Note_on_c, 0, 66, 95
2, 62880, Note_on_c, 0, 62, 95
2, 62880, Note_on_c, 0, 57, 95
2, 62880, Note_on_c, 0, 50, 95
2, 62880, Note_on_c, 0, 45, 95
2, 63840, Note_off_c, 0, 66, 95
2, 63840, Note_off_c, 0, 62, 95
2, 63840, Note_off_c, 0, 57, 95
2, 63840, Note_off_c, 0, 50, 95
2, 63840, Note_off_c, 0, 45, 95
2, 63840, Note_on_c, 0, 66, 95
2, 63840, Note_on_c, 0, 62, 95
2, 63840, Note_on_c, 0, 57, 95
2, 63840, Note_on_c, 0, 50, 95
2, 63840, Note_on_c, 0, 45, 95
2, 64320, Note_off_c, 0, 66, 95
2, 64320, Note_off_c, 0, 62, 95
2, 64320, Note_off_c, 0, 57, 95
2, 64320, Note_off_c, 0, 50, 95
2, 64320, Note_off_c, 0, 45, 95
2, 64320, Note_on_c, 0, 66, 95
2, 64320, Note_on_c, 0, 62, 95
2, 64320, Note_on_c, 0, 57, 95
2, 64320, Note_on_c, 0, 50, 95
2, 64320, Note_on_c, 0, 45, 95
2, 65280, Note_off_c, 0, 66, 95
2, 65280, Note_off_c, 0, 62, 95
2, 65280, Note_off_c, 0, 57, 95
2, 65280, Note_off_c, 0, 50, 95
2, 65280, Note_off_c, 0, 45, 95
2, 65280, Note_on_c, 0, 64, 95
2, 65280, Note_on_c, 0, 61, 95
2, 65280, Note_on_c, 0, 57, 95
2, 65280, Note_on_c, 0, 52, 95
2, 65280, Note_on_c, 0, 45, 95
2, 65280, Note_on_c, 0, 40, 95
2, 66240, Note_off_c, 0, 64, 95
2, 66240, Note_off_c, 0, 61, 95
2, 66240, Note_off_c, 0, 57, 95
2, 66240, Note_off_c, 0, 52, 95
2, 66240, Note_off_c, 0, 45, 95
2, 66240, Note_off_c, 0, 40, 95
2, 66240, Note_on_c, 0, 64, 95
2, 66240, Note_on_c, 0, 61, 95
2, 66240, Note_on_c, 0, 57, 95
2, 66240, Note_on_c, 0, 52, 95
2, 66240, Note_on_c, 0, 45, 95
2, 66240, Note_on_c, 0, 40, 95
2, 66720, Note_off_c, 0, 64, 95
2, 66720, Note_off_c, 0, 61, 95
2, 66720, Note_off_c, 0, 57, 95
2, 66720, Note_off_c, 0, 52, 95
2, 66720, Note_off_c, 0, 45, 95
2, 66720, Note_off_c, 0, 40, 95
2, 66720, Note_on_c, 0, 64, 95
2, 66720, Note_on_c, 0, 61, 95
2, 66720, Note_on_c, 0, 57, 95
2, 66720, Note_on_c, 0, 52, 95
2, 66720, Note_on_c, 0, 45, 95
2, 66720, Note_on_c, 0, 40, 95
2, 67680, Note_off_c, 0, 64, 95
2, 67680, Note_off_c, 0, 61, 95
2, 67680, Note_off_c, 0, 57, 95
2, 67680, Note_off_c, 0, 52, 95
2, 67680, Note_off_c, 0, 45, 95
2, 67680, Note_off_c, 0, 40, 95
2, 67680, Note_on_c, 0, 64, 95
2, 67680, Note_on_c, 0, 61, 95
2, 67680, Note_on_c, 0, 57, 95
2, 67680, Note_on_c, 0, 52, 95
2, 67680, Note_on_c, 0, 45, 95
2, 67680, Note_on_c, 0, 40, 95
2, 68640, Note_off_c, 0, 64, 95
2, 68640, Note_off_c, 0, 61, 95
2, 68640, Note_off_c, 0, 57, 95
2, 68640, Note_off_c, 0, 52, 95
2, 68640, Note_off_c, 0, 45, 95
2, 68640, Note_off_c, 0, 40, 95
2, 68640, Note_on_c, 0, 64, 95
2, 68640, Note_on_c, 0, 61, 95
2, 68640, Note_on_c, 0, 57, 95
2, 68640, Note_on_c, 0, 52, 95
2, 68640, Note_on_c, 0, 45, 95
2, 68640, Note_on_c, 0, 40, 95
2, 69120, Note_off_c, 0, 64, 95
2, 69120, Note_off_c, 0, 61, 95
2, 69120, Note_off_c, 0, 57, 95
2, 69120, Note_off_c, 0, 52, 95
2, 69120, Note_off_c, 0, 45, 95
2, 69120, Note_off_c, 0, 40, 95
2, 69120, Note_on_c, 0, 64, 95
2, 69120, Note_on_c, 0, 61, 95
2, 69120, Note_on_c, 0, 57, 95
2, 69120, Note_on_c, 0, 52, 95
2, 69120, Note_on_c, 0, 45, 95
2, 69120, Note_on_c, 0, 40, 95
2, 70080, Note_off_c, 0, 64, 95
2, 70080, Note_off_c, 0, 61, 95
2, 70080, Note_off_c, 0, 57, 95
2, 70080, Note_off_c, 0, 52, 95
2, 70080, Note_off_c, 0, 45, 95
2, 70080, Note_off_c, 0, 40, 95
2, 70080, Note_on_c, 0, 64, 95
2, 70080, Note_on_c, 0, 61, 95
2, 70080, Note_on_c, 0, 57, 95
2, 70080, Note_on_c, 0, 52, 95
2, 70080, Note_on_c, 0, 45, 95
2, 70080, Note_on_c, 0, 40, 95
2, 70560, Note_off_c, 0, 64, 95
2, 70560, Note_off_c, 0, 61, 95
2, 70560, Note_off_c, 0, 57, 95
2, 70560, Note_off_c, 0, 52, 95
2, 70560, Note_off_c, 0, 45, 95
2, 70560, Note_off_c, 0, 40, 95
2, 70560, Note_on_c, 0, 64, 95
2, 70560, Note_on_c, 0, 61, 95
2, 70560, Note_on_c, 0, 57, 95
2, 70560, Note_on_c, 0, 52, 95
2, 70560, Note_on_c, 0, 45, 95
2, 70560, Note_on_c, 0, 40, 95
2, 71520, Note_off_c, 0, 64, 95
2, 71520, Note_off_c, 0, 61, 95
2, 71520, Note_off_c, 0, 57, 95
2, 71520, Note_off_c, 0, 52, 95
2, 71520, Note_off_c, 0, 45, 95
2, 71520, Note_off_c, 0, 40, 95
2, 71520, Note_on_c, 0, 64, 95
2, 71520, Note_on_c, 0, 61, 95
2, 71520, Note_on_c, 0, 57, 95
2, 71520, Note_on_c, 0, 52, 95
2, 71520, Note_on_c, 0, 45, 95
2, 71520, Note_on_c, 0, 40, 95
2, 72000, Note_off_c, 0, 64, 95
2, 72000, Note_off_c, 0, 61, 95
2, 72000, Note_off_c, 0, 57, 95
2, 72000, Note_off_c, 0, 52, 95
2, 72000, Note_off_c, 0, 45, 95
2, 72000, Note_off_c, 0, 40, 95
2, 72000, Note_on_c, 0, 64, 95
2, 72000, Note_on_c, 0, 61, 95
2, 72000, Note_on_c, 0, 57, 95
2, 72000, Note_on_c, 0, 52, 95
2, 72000, Note_on_c, 0, 45, 95
2, 72000, Note_on_c, 0, 40, 95
2, 72960, Note_off_c, 0, 64, 95
2, 72960, Note_off_c, 0, 61, 95
2, 72960, Note_off_c, 0, 57, 95
2, 72960, Note_off_c, 0, 52, 95
2, 72960, Note_off_c, 0, 45, 95
2, 72960, Note_off_c, 0, 40, 95
2, 72960, Note_on_c, 0, 66, 95
2, 72960, Note_on_c, 0, 62, 95
2, 72960, Note_on_c, 0, 57, 95
2, 72960, Note_on_c, 0, 50, 95
2, 72960, Note_on_c, 0, 45, 95
2, 72960, Note_on_c, 0, 42, 95
2, 74400, Note_off_c, 0, 66, 95
2, 74400, Note_off_c, 0, 62, 95
2, 74400, Note_off_c, 0, 57, 95
2, 74400, Note_off_c, 0, 50, 95
2, 74400, Note_off_c, 0, 45, 95
2, 74400, Note_off_c, 0, 42, 95
2, 74400, Note_on_c, 0, 66, 95
2, 74400, Note_on_c, 0, 62, 95
2, 74400, Note_on_c, 0, 57, 95
2, 74400, Note_on_c, 0, 50, 95
2, 74400, Note_on_c, 0, 45, 95
2, 74400, Note_on_c, 0, 42, 95
2, 75360, Note_off_c, 0, 66, 95
2, 75360, Note_off_c, 0, 62, 95
2, 75360, Note_off_c, 0, 57, 95
2, 75360, Note_off_c, 0, 50, 95
2, 75360, Note_off_c, 0, 45, 95
2, 75360, Note_off_c, 0, 42, 95
2, 75360, Note_on_c, 0, 66, 95
2, 75360, Note_on_c, 0, 62, 95
2, 75360, Note_on_c, 0, 57, 95
2, 75360, Note_on_c, 0, 50, 95
2, 75360, Note_on_c, 0, 45, 95
2, 75360, Note_on_c, 0, 42, 95
2, 75840, Note_off_c, 0, 66, 95
2, 75840, Note_off_c, 0, 62, 95
2, 75840, Note_off_c, 0, 57, 95
2, 75840, Note_off_c, 0, 50, 95
2, 75840, Note_off_c, 0, 45, 95
2, 75840, Note_off_c, 0, 42, 95
2, 75840, Note_on_c, 0, 66, 95
2, 75840, Note_on_c, 0, 62, 95
2, 75840, Note_on_c, 0, 57, 95
2, 75840, Note_on_c, 0, 50, 95
2, 75840, Note_on_c, 0, 45, 95
2, 75840, Note_on_c, 0, 42, 95
2, 76320, Note_off_c, 0, 66, 95
2, 76320, Note_off_c, 0, 62, 95
2, 76320, Note_off_c, 0, 57, 95
2, 76320, Note_off_c, 0, 50, 95
2, 76320, Note_off_c, 0, 45, 95
2, 76320, Note_off_c, 0, 42, 95
2, 76320, Note_on_c, 0, 66, 95
2, 76320, Note_on_c, 0, 62, 95
2, 76320, Note_on_c, 0, 57, 95
2, 76320, Note_on_c, 0, 50, 95
2, 76320, Note_on_c, 0, 45, 95
2, 76320, Note_on_c, 0, 42, 95
2, 76800, Note_off_c, 0, 66, 95
2, 76800, Note_off_c, 0, 62, 95
2, 76800, Note_off_c, 0, 57, 95
2, 76800, Note_off_c, 0, 50, 95
2, 76800, Note_off_c, 0, 45, 95
2, 76800, Note_off_c, 0, 42, 95
2, 76800, Note_on_c, 0, 66, 95
2, 76800, Note_on_c, 0, 62, 95
2, 76800, Note_on_c, 0, 57, 95
2, 76800, Note_on_c, 0, 50, 95
2, 76800, Note_on_c, 0, 45, 95
2, 77760, Note_off_c, 0, 66, 95
2, 77760, Note_off_c, 0, 62, 95
2, 77760, Note_off_c, 0, 57, 95
2, 77760, Note_off_c, 0, 50, 95
2, 77760, Note_off_c, 0, 45, 95
2, 77760, Note_on_c, 0, 66, 95
2, 77760, Note_on_c, 0, 62, 95
2, 77760, Note_on_c, 0, 57, 95
2, 77760, Note_on_c, 0, 50, 95
2, 77760, Note_on_c, 0, 45, 95
2, 78240, Note_off_c, 0, 66, 95
2, 78240, Note_off_c, 0, 62, 95
2, 78240, Note_off_c, 0, 57, 95
2, 78240, Note_off_c, 0, 50, 95
2, 78240, Note_off_c, 0, 45, 95
2, 78240, Note_on_c, 0, 66, 95
2, 78240, Note_on_c, 0, 62, 95
2, 78240, Note_on_c, 0, 57, 95
2, 78240, Note_on_c, 0, 50, 95
2, 78240, Note_on_c, 0, 45, 95
2, 79200, Note_off_c, 0, 66, 95
2, 79200, Note_off_c, 0, 62, 95
2, 79200, Note_off_c, 0, 57, 95
2, 79200, Note_off_c, 0, 50, 95
2, 79200, Note_off_c, 0, 45, 95
2, 79200, Note_on_c, 0, 66, 95
2, 79200, Note_on_c, 0, 62, 95
2, 79200, Note_on_c, 0, 57, 95
2, 79200, Note_on_c, 0, 50, 95
2, 79200, Note_on_c, 0, 45, 95
2, 79680, Note_off_c, 0, 66, 95
2, 79680, Note_off_c, 0, 62, 95
2, 79680, Note_off_c, 0, 57, 95
2, 79680, Note_off_c, 0, 50, 95
2, 79680, Note_off_c, 0, 45, 95
2, 79680, Note_on_c, 0, 66, 95
2, 79680, Note_on_c, 0, 62, 95
2, 79680, Note_on_c, 0, 57, 95
2, 79680, Note_on_c, 0, 50, 95
2, 79680, Note_on_c, 0, 45, 95
2, 80640, Note_off_c, 0, 66, 95
2, 80640, Note_off_c, 0, 62, 95
2, 80640, Note_off_c, 0, 57, 95
2, 80640, Note_off_c, 0, 50, 95
2, 80640, Note_off_c, 0, 45, 95
2, 80640, Note_on_c, 0, 64, 95
2, 80640, Note_on_c, 0, 61, 95
2, 80640, Note_on_c, 0, 57, 95
2, 80640, Note_on_c, 0, 52, 95
2, 80640, Note_on_c, 0, 45, 95
2, 80640, Note_on_c, 0, 40, 95
2, 81600, Note_off_c, 0, 64, 95
2, 81600, Note_off_c, 0, 61, 95
2, 81600, Note_off_c, 0, 57, 95
2, 81600, Note_off_c, 0, 52, 95
2, 81600, Note_off_c, 0, 45, 95
2, 81600, Note_off_c, 0, 40, 95
2, 81600, Note_on_c, 0, 64, 95
2, 81600, Note_on_c, 0, 61, 95
2, 81600, Note_on_c, 0, 57, 95
2, 81600, Note_on_c, 0, 52, 95
2, 81600, Note_on_c, 0, 45, 95
2, 81600, Note_on_c, 0, 40, 95
2, 82080, Note_off_c, 0, 64, 95
2, 82080, Note_off_c, 0, 61, 95
2, 82080, Note_off_c, 0, 57, 95
2, 82080, Note_off_c, 0, 52, 95
2, 82080, Note_off_c, 0, 45, 95
2, 82080, Note_off_c, 0, 40, 95
2, 82080, Note_on_c, 0, 64, 95
2, 82080, Note_on_c, 0, 61, 95
2, 82080, Note_on_c, 0, 57, 95
2, 82080, Note_on_c, 0, 52, 95
2, 82080, Note_on_c, 0, 45, 95
2, 82080, Note_on_c, 0, 40, 95
2, 83040, Note_off_c, 0, 64, 95
2, 83040, Note_off_c, 0, 61, 95
2, 83040, Note_off_c, 0, 57, 95
2, 83040, Note_off_c, 0, 52, 95
2, 83040, Note_off_c, 0, 45, 95
2, 83040, Note_off_c, 0, 40, 95
2, 83040, Note_on_c, 0, 64, 95
2, 83040, Note_on_c, 0, 61, 95
2, 83040, Note_on_c, 0, 57, 95
2, 83040, Note_on_c, 0, 52, 95
2, 83040, Note_on_c, 0, 45, 95
2, 83040, Note_on_c, 0, 40, 95
2, 84000, Note_off_c, 0, 64, 95
2, 84000, Note_off_c, 0, 61, 95
2, 84000, Note_off_c, 0, 57, 95
2, 84000, Note_off_c, 0, 52, 95
2, 84000, Note_off_c, 0, 45, 95
2, 84000, Note_off_c, 0, 40, 95
2, 84000, Note_on_c, 0, 64, 95
2, 84000, Note_on_c, 0, 61, 95
2, 84000, Note_on_c, 0, 57, 95
2, 84000, Note_on_c, 0, 52, 95
2, 84000, Note_on_c, 0, 45, 95
2, 84000, Note_on_c, 0, 40, 95
2, 84480, Note_off_c, 0, 64, 95
2, 84480, Note_off_c, 0, 61, 95
2, 84480, Note_off_c, 0, 57, 95
2, 84480, Note_off_c, 0, 52, 95
2, 84480, Note_off_c, 0, 45, 95
2, 84480, Note_off_c, 0, 40, 95
2, 84480, Note_on_c, 0, 64, 95
2, 84480, Note_on_c, 0, 61, 95
2, 84480, Note_on_c, 0, 57, 95
2, 84480, Note_on_c, 0, 52, 95
2, 84480, Note_on_c, 0, 45, 95
2, 84480, Note_on_c, 0, 40, 95
2, 85440, Note_off_c, 0, 64, 95
2, 85440, Note_off_c, 0, 61, 95
2, 85440, Note_off_c, 0, 57, 95
2, 85440, Note_off_c, 0, 52, 95
2, 85440, Note_off_c, 0, 45, 95
2, 85440, Note_off_c, 0, 40, 95
2, 85440, Note_on_c, 0, 64, 95
2, 85440, Note_on_c, 0, 61, 95
2, 85440, Note_on_c, 0, 57, 95
2, 85440, Note_on_c, 0, 52, 95
2, 85440, Note_on_c, 0, 45, 95
2, 85440, Note_on_c, 0, 40, 95
2, 85920, Note_off_c, 0, 64, 95
2, 85920, Note_off_c, 0, 61, 95
2, 85920, Note_off_c, 0, 57, 95
2, 85920, Note_off_c, 0, 52, 95
2, 85920, Note_off_c, 0, 45, 95
2, 85920, Note_off_c, 0, 40, 95
2, 85920, Note_on_c, 0, 64, 95
2, 85920, Note_on_c, 0, 61, 95
2, 85920, Note_on_c, 0, 57, 95
2, 85920, Note_on_c, 0, 52, 95
2, 85920, Note_on_c, 0, 45, 95
2, 85920, Note_on_c, 0, 40, 95
2, 86880, Note_off_c, 0, 64, 95
2, 86880, Note_off_c, 0, 61, 95
2, 86880, Note_off_c, 0, 57, 95
2, 86880, Note_off_c, 0, 52, 95
2, 86880, Note_off_c, 0, 45, 95
2, 86880, Note_off_c, 0, 40, 95
2, 86880, Note_on_c, 0, 64, 95
2, 86880, Note_on_c, 0, 61, 95
2, 86880, Note_on_c, 0, 57, 95
2, 86880, Note_on_c, 0, 52, 95
2, 86880, Note_on_c, 0, 45, 95
2, 86880, Note_on_c, 0, 40, 95
2, 87360, Note_off_c, 0, 64, 95
2, 87360, Note_off_c, 0, 61, 95
2, 87360, Note_off_c, 0, 57, 95
2, 87360, Note_off_c, 0, 52, 95
2, 87360, Note_off_c, 0, 45, 95
2, 87360, Note_off_c, 0, 40, 95
2, 87360, Note_on_c, 0, 64, 95
2, 87360, Note_on_c, 0, 61, 95
2, 87360, Note_on_c, 0, 57, 95
2, 87360, Note_on_c, 0, 52, 95
2, 87360, Note_on_c, 0, 45, 95
2, 87360, Note_on_c, 0, 40, 95
2, 88320, Note_off_c, 0, 64, 95
2, 88320, Note_off_c, 0, 61, 95
2, 88320, Note_off_c, 0, 57, 95
2, 88320, Note_off_c, 0, 52, 95
2, 88320, Note_off_c, 0, 45, 95
2, 88320, Note_off_c, 0, 40, 95
2, 88320, Note_on_c, 0, 66, 95
2, 88320, Note_on_c, 0, 62, 95
2, 88320, Note_on_c, 0, 57, 95
2, 88320, Note_on_c, 0, 50, 95
2, 88320, Note_on_c, 0, 45, 95
2, 88320, Note_on_c, 0, 42, 95
2, 89760, Note_off_c, 0, 66, 95
2, 89760, Note_off_c, 0, 62, 95
2, 89760, Note_off_c, 0, 57, 95
2, 89760, Note_off_c, 0, 50, 95
2, 89760, Note_off_c, 0, 45, 95
2, 89760, Note_off_c, 0, 42, 95
2, 89760, Note_on_c, 0, 66, 95
2, 89760, Note_on_c, 0, 62, 95
2, 89760, Note_on_c, 0, 57, 95
2, 89760, Note_on_c, 0, 50, 95
2, 89760, Note_on_c, 0, 45, 95
2, 89760, Note_on_c, 0, 42, 95
2, 90720, Note_off_c, 0, 66, 95
2, 90720, Note_off_c, 0, 62, 95
2, 90720, Note_off_c, 0, 57, 95
2, 90720, Note_off_c, 0, 50, 95
2, 90720, Note_off_c, 0, 45, 95
2, 90720, Note_off_c, 0, 42, 95
2, 90720, Note_on_c, 0, 66, 95
2, 90720, Note_on_c, 0, 62, 95
2, 90720, Note_on_c, 0, 57, 95
2, 90720, Note_on_c, 0, 50, 95
2, 90720, Note_on_c, 0, 45, 95
2, 90720, Note_on_c, 0, 42, 95
2, 91200, Note_off_c, 0, 66, 95
2, 91200, Note_off_c, 0, 62, 95
2, 91200, Note_off_c, 0, 57, 95
2, 91200, Note_off_c, 0, 50, 95
2, 91200, Note_off_c, 0, 45, 95
2, 91200, Note_off_c, 0, 42, 95
2, 91200, Note_on_c, 0, 66, 95
2, 91200, Note_on_c, 0, 62, 95
2, 91200, Note_on_c, 0, 57, 95
2, 91200, Note_on_c, 0, 50, 95
2, 91200, Note_on_c, 0, 45, 95
2, 91200, Note_on_c, 0, 42, 95
2, 91680, Note_off_c, 0, 66, 95
2, 91680, Note_off_c, 0, 62, 95
2, 91680, Note_off_c, 0, 57, 95
2, 91680, Note_off_c, 0, 50, 95
2, 91680, Note_off_c, 0, 45, 95
2, 91680, Note_off_c, 0, 42, 95
2, 91680, Note_on_c, 0, 66, 95
2, 91680, Note_on_c, 0, 62, 95
2, 91680, Note_on_c, 0, 57, 95
2, 91680, Note_on_c, 0, 50, 95
2, 91680, Note_on_c, 0, 45, 95
2, 91680, Note_on_c, 0, 42, 95
2, 92160, Note_off_c, 0, 66, 95
2, 92160, Note_off_c, 0, 62, 95
2, 92160, Note_off_c, 0, 57, 95
2, 92160, Note_off_c, 0, 50, 95
2, 92160, Note_off_c, 0, 45, 95
2, 92160, Note_off_c, 0, 42, 95
2, 92160, Note_on_c, 0, 66, 95
2, 92160, Note_on_c, 0, 62, 95
2, 92160, Note_on_c, 0, 57, 95
2, 92160, Note_on_c, 0, 50, 95
2, 92160, Note_on_c, 0, 45, 95
2, 93120, Note_off_c, 0, 66, 95
2, 93120, Note_off_c, 0, 62, 95
2, 93120, Note_off_c, 0, 57, 95
2, 93120, Note_off_c, 0, 50, 95
2, 93120, Note_off_c, 0, 45, 95
2, 93120, Note_on_c, 0, 66, 95
2, 93120, Note_on_c, 0, 62, 95
2, 93120, Note_on_c, 0, 57, 95
2, 93120, Note_on_c, 0, 50, 95
2, 93120, Note_on_c, 0, 45, 95
2, 93600, Note_off_c, 0, 66, 95
2, 93600, Note_off_c, 0, 62, 95
2, 93600, Note_off_c, 0, 57, 95
2, 93600, Note_off_c, 0, 50, 95
2, 93600, Note_off_c, 0, 45, 95
2, 93600, Note_on_c, 0, 66, 95
2, 93600, Note_on_c, 0, 62, 95
2, 93600, Note_on_c, 0, 57, 95
2, 93600, Note_on_c, 0, 50, 95
2, 93600, Note_on_c, 0, 45, 95
2, 94560, Note_off_c, 0, 66, 95
2, 94560, Note_off_c, 0, 62, 95
2, 94560, Note_off_c, 0, 57, 95
2, 94560, Note_off_c, 0, 50, 95
2, 94560, Note_off_c, 0, 45, 95
2, 94560, Note_on_c, 0, 66, 95
2, 94560, Note_on_c, 0, 62, 95
2, 94560, Note_on_c, 0, 57, 95
2, 94560, Note_on_c, 0, 50, 95
2, 94560, Note_on_c, 0, 45, 95
2, 95040, Note_off_c, 0, 66, 95
2, 95040, Note_off_c, 0, 62, 95
2, 95040, Note_off_c, 0, 57, 95
2, 95040, Note_off_c, 0, 50, 95
2, 95040, Note_off_c, 0, 45, 95
2, 95040, Note_on_c, 0, 66, 95
2, 95040, Note_on_c, 0, 62, 95
2, 95040, Note_on_c, 0, 57, 95
2, 95040, Note_on_c, 0, 50, 95
2, 95040, Note_on_c, 0, 45, 95
2, 96000, Note_off_c, 0, 66, 95
2, 96000, Note_off_c, 0, 62, 95
2, 96000, Note_off_c, 0, 57, 95
2, 96000, Note_off_c, 0, 50, 95
2, 96000, Note_off_c, 0, 45, 95
2, 96000, Note_on_c, 0, 64, 95
2, 96000, Note_on_c, 0, 61, 95
2, 96000, Note_on_c, 0, 57, 95
2, 96000, Note_on_c, 0, 52, 95
2, 96000, Note_on_c, 0, 45, 95
2, 96000, Note_on_c, 0, 40, 95
2, 96960, Note_off_c, 0, 64, 95
2, 96960, Note_off_c, 0, 61, 95
2, 96960, Note_off_c, 0, 57, 95
2, 96960, Note_off_c, 0, 52, 95
2, 96960, Note_off_c, 0, 45, 95
2, 96960, Note_off_c, 0, 40, 95
2, 96960, Note_on_c, 0, 64, 95
2, 96960, Note_on_c, 0, 61, 95
2, 96960, Note_on_c, 0, 57, 95
2, 96960, Note_on_c, 0, 52, 95
2, 96960, Note_on_c, 0, 45, 95
2, 96960, Note_on_c, 0, 40, 95
2, 97440, Note_off_c, 0, 64, 95
2, 97440, Note_off_c, 0, 61, 95
2, 97440, Note_off_c, 0, 57, 95
2, 97440, Note_off_c, 0, 52, 95
2, 97440, Note_off_c, 0, 45, 95
2, 97440, Note_off_c, 0, 40, 95
2, 97440, Note_on_c, 0, 64, 95
2, 97440, Note_on_c, 0, 61, 95
2, 97440, Note_on_c, 0, 57, 95
2, 97440, Note_on_c, 0, 52, 95
2, 97440, Note_on_c, 0, 45, 95
2, 97440, Note_on_c, 0, 40, 95
2, 98400, Note_off_c, 0, 64, 95
2, 98400, Note_off_c, 0, 61, 95
2, 98400, Note_off_c, 0, 57, 95
2, 98400, Note_off_c, 0, 52, 95
2, 98400, Note_off_c, 0, 45, 95
2, 98400, Note_off_c, 0, 40, 95
2, 98400, Note_on_c, 0, 64, 95
2, 98400, Note_on_c, 0, 61, 95
2, 98400, Note_on_c, 0, 57, 95
2, 98400, Note_on_c, 0, 52, 95
2, 98400, Note_on_c, 0, 45, 95
2, 98400, Note_on_c, 0, 40, 95
2, 99360, Note_off_c, 0, 64, 95
2, 99360, Note_off_c, 0, 61, 95
2, 99360, Note_off_c, 0, 57, 95
2, 99360, Note_off_c, 0, 52, 95
2, 99360, Note_off_c, 0, 45, 95
2, 99360, Note_off_c, 0, 40, 95
2, 99360, Note_on_c, 0, 64, 95
2, 99360, Note_on_c, 0, 61, 95
2, 99360, Note_on_c, 0, 57, 95
2, 99360, Note_on_c, 0, 52, 95
2, 99360, Note_on_c, 0, 45, 95
2, 99360, Note_on_c, 0, 40, 95
2, 99840, Note_off_c, 0, 64, 95
2, 99840, Note_off_c, 0, 61, 95
2, 99840, Note_off_c, 0, 57, 95
2, 99840, Note_off_c, 0, 52, 95
2, 99840, Note_off_c, 0, 45, 95
2, 99840, Note_off_c, 0, 40, 95
2, 99840, Note_on_c, 0, 64, 95
2, 99840, Note_on_c, 0, 61, 95
2, 99840, Note_on_c, 0, 57, 95
2, 99840, Note_on_c, 0, 52, 95
2, 99840, Note_on_c, 0, 45, 95
2, 99840, Note_on_c, 0, 40, 95
2, 100800, Note_off_c, 0, 64, 95
2, 100800, Note_off_c, 0, 61, 95
2, 100800, Note_off_c, 0, 57, 95
2, 100800, Note_off_c, 0, 52, 95
2, 100800, Note_off_c, 0, 45, 95
2, 100800, Note_off_c, 0, 40, 95
2, 100800, Note_on_c, 0, 64, 95
2, 100800, Note_on_c, 0, 61, 95
2, 100800, Note_on_c, 0, 57, 95
2, 100800, Note_on_c, 0, 52, 95
2, 100800, Note_on_c, 0, 45, 95
2, 100800, Note_on_c, 0, 40, 95
2, 101280, Note_off_c, 0, 64, 95
2, 101280, Note_off_c, 0, 61, 95
2, 101280, Note_off_c, 0, 57, 95
2, 101280, Note_off_c, 0, 52, 95
2, 101280, Note_off_c, 0, 45, 95
2, 101280, Note_off_c, 0, 40, 95
2, 101280, Note_on_c, 0, 64, 95
2, 101280, Note_on_c, 0, 61, 95
2, 101280, Note_on_c, 0, 57, 95
2, 101280, Note_on_c, 0, 52, 95
2, 101280, Note_on_c, 0, 45, 95
2, 101280, Note_on_c, 0, 40, 95
2, 102240, Note_off_c, 0, 64, 95
2, 102240, Note_off_c, 0, 61, 95
2, 102240, Note_off_c, 0, 57, 95
2, 102240, Note_off_c, 0, 52, 95
2, 102240, Note_off_c, 0, 45, 95
2, 102240, Note_off_c, 0, 40, 95
2, 102240, Note_on_c, 0, 64, 95
2, 102240, Note_on_c, 0, 61, 95
2, 102240, Note_on_c, 0, 57, 95
2, 102240, Note_on_c, 0, 52, 95
2, 102240, Note_on_c, 0, 45, 95
2, 102240, Note_on_c, 0, 40, 95
2, 102720, Note_off_c, 0, 64, 95
2, 102720, Note_off_c, 0, 61, 95
2, 102720, Note_off_c, 0, 57, 95
2, 102720, Note_off_c, 0, 52, 95
2, 102720, Note_off_c, 0, 45, 95
2, 102720, Note_off_c, 0, 40, 95
2, 102720, Note_on_c, 0, 64, 95
2, 102720, Note_on_c, 0, 61, 95
2, 102720, Note_on_c, 0, 57, 95
2, 102720, Note_on_c, 0, 52, 95
2, 102720, Note_on_c, 0, 45, 95
2, 102720, Note_on_c, 0, 40, 95
2, 103680, Note_off_c, 0, 64, 95
2, 103680, Note_off_c, 0, 61, 95
2, 103680, Note_off_c, 0, 57, 95
2, 103680, Note_off_c, 0, 52, 95
2, 103680, Note_off_c, 0, 45, 95
2, 103680, Note_off_c, 0, 40, 95
2, 103680, Note_on_c, 0, 66, 95
2, 103680, Note_on_c, 0, 62, 95
2, 103680, Note_on_c, 0, 57, 95
2, 103680, Note_on_c, 0, 50, 95
2, 103680, Note_on_c, 0, 45, 95
2, 103680, Note_on_c, 0, 42, 95
2, 105120, Note_off_c, 0, 66, 95
2, 105120, Note_off_c, 0, 62, 95
2, 105120, Note_off_c, 0, 57, 95
2, 105120, Note_off_c, 0, 50, 95
2, 105120, Note_off_c, 0, 45, 95
2, 105120, Note_off_c, 0, 42, 95
2, 105120, Note_on_c, 0, 66, 95
2, 105120, Note_on_c, 0, 62, 95
2, 105120, Note_on_c, 0, 57, 95
2, 105120, Note_on_c, 0, 50, 95
2, 105120, Note_on_c, 0, 45, 95
2, 105120, Note_on_c, 0, 42, 95
2, 106080, Note_off_c, 0, 66, 95
2, 106080, Note_off_c, 0, 62, 95
2, 106080, Note_off_c, 0, 57, 95
2, 106080, Note_off_c, 0, 50, 95
2, 106080, Note_off_c, 0, 45, 95
2, 106080, Note_off_c, 0, 42, 95
2, 106080, Note_on_c, 0, 66, 95
2, 106080, Note_on_c, 0, 62, 95
2, 106080, Note_on_c, 0, 57, 95
2, 106080, Note_on_c, 0, 50, 95
2, 106080, Note_on_c, 0, 45, 95
2, 106080, Note_on_c, 0, 42, 95
2, 106560, Note_off_c, 0, 66, 95
2, 106560, Note_off_c, 0, 62, 95
2, 106560, Note_off_c, 0, 57, 95
2, 106560, Note_off_c, 0, 50, 95
2, 106560, Note_off_c, 0, 45, 95
2, 106560, Note_off_c, 0, 42, 95
2, 106560, Note_on_c, 0, 66, 95
2, 106560, Note_on_c, 0, 62, 95
2, 106560, Note_on_c, 0, 57, 95
2, 106560, Note_on_c, 0, 50, 95
2, 106560, Note_on_c, 0, 45, 95
2, 106560, Note_on_c, 0, 42, 95
2, 107040, Note_off_c, 0, 66, 95
2, 107040, Note_off_c, 0, 62, 95
2, 107040, Note_off_c, 0, 57, 95
2, 107040, Note_off_c, 0, 50, 95
2, 107040, Note_off_c, 0, 45, 95
2, 107040, Note_off_c, 0, 42, 95
2, 107040, Note_on_c, 0, 66, 95
2, 107040, Note_on_c, 0, 62, 95
2, 107040, Note_on_c, 0, 57, 95
2, 107040, Note_on_c, 0, 50, 95
2, 107040, Note_on_c, 0, 45, 95
2, 107040, Note_on_c, 0, 42, 95
2, 107520, Note_off_c, 0, 66, 95
2, 107520, Note_off_c, 0, 62, 95
2, 107520, Note_off_c, 0, 57, 95
2, 107520, Note_off_c, 0, 50, 95
2, 107520, Note_off_c, 0, 45, 95
2, 107520, Note_off_c, 0, 42, 95
2, 107520, Note_on_c, 0, 66, 95
2, 107520, Note_on_c, 0, 62, 95
2, 107520, Note_on_c, 0, 57, 95
2, 107520, Note_on_c, 0, 50, 95
2, 107520, Note_on_c, 0, 45, 95
2, 108480, Note_off_c, 0, 66, 95
2, 108480, Note_off_c, 0, 62, 95
2, 108480, Note_off_c, 0, 57, 95
2, 108480, Note_off_c, 0, 50, 95
2, 108480, Note_off_c, 0, 45, 95
2, 108480, Note_on_c, 0, 66, 95
2, 108480, Note_on_c, 0, 62, 95
2, 108480, Note_on_c, 0, 57, 95
2, 108480, Note_on_c, 0, 50, 95
2, 108480, Note_on_c, 0, 45, 95
2, 108960, Note_off_c, 0, 66, 95
2, 108960, Note_off_c, 0, 62, 95
2, 108960, Note_off_c, 0, 57, 95
2, 108960, Note_off_c, 0, 50, 95
2, 108960, Note_off_c, 0, 45, 95
2, 108960, Note_on_c, 0, 66, 95
2, 108960, Note_on_c, 0, 62, 95
2, 108960, Note_on_c, 0, 57, 95
2, 108960, Note_on_c, 0, 50, 95
2, 108960, Note_on_c, 0, 45, 95
2, 109920, Note_off_c, 0, 66, 95
2, 109920, Note_off_c, 0, 62, 95
2, 109920, Note_off_c, 0, 57, 95
2, 109920, Note_off_c, 0, 50, 95
2, 109920, Note_off_c, 0, 45, 95
2, 109920, Note_on_c, 0, 66, 95
2, 109920, Note_on_c, 0, 62, 95
2, 109920, Note_on_c, 0, 57, 95
2, 109920, Note_on_c, 0, 50, 95
2, 109920, Note_on_c, 0, 45, 95
2, 110400, Note_off_c, 0, 66, 95
2, 110400, Note_off_c, 0, 62, 95
2, 110400, Note_off_c, 0, 57, 95
2, 110400, Note_off_c, 0, 50, 95
2, 110400, Note_off_c, 0, 45, 95
2, 110400, Note_on_c, 0, 66, 95
2, 110400, Note_on_c, 0, 62, 95
2, 110400, Note_on_c, 0, 57, 95
2, 110400, Note_on_c, 0, 50, 95
2, 110400, Note_on_c, 0, 45, 95
2, 111360, Note_off_c, 0, 66, 95
2, 111360, Note_off_c, 0, 62, 95
2, 111360, Note_off_c, 0, 57, 95
2, 111360, Note_off_c, 0, 50, 95
2, 111360, Note_off_c, 0, 45, 95
2, 111360, Note_on_c, 0, 64, 95
2, 111360, Note_on_c, 0, 61, 95
2, 111360, Note_on_c, 0, 57, 95
2, 111360, Note_on_c, 0, 52, 95
2, 111360, Note_on_c, 0, 45, 95
2, 111360, Note_on_c, 0, 40, 95
2, 112320, Note_off_c, 0, 64, 95
2, 112320, Note_off_c, 0, 61, 95
2, 112320, Note_off_c, 0, 57, 95
2, 112320, Note_off_c, 0, 52, 95
2, 112320, Note_off_c, 0, 45, 95
2, 112320, Note_off_c, 0, 40, 95
2, 112320, Note_on_c, 0, 64, 95
2, 112320, Note_on_c, 0, 61, 95
2, 112320, Note_on_c, 0, 57, 95
2, 112320, Note_on_c, 0, 52, 95
2, 112320, Note_on_c, 0, 45, 95
2, 112320, Note_on_c, 0, 40, 95
2, 112800, Note_off_c, 0, 64, 95
2, 112800, Note_off_c, 0, 61, 95
2, 112800, Note_off_c, 0, 57, 95
2, 112800, Note_off_c, 0, 52, 95
2, 112800, Note_off_c, 0, 45, 95
2, 112800, Note_off_c, 0, 40, 95
2, 112800, Note_on_c, 0, 64, 95
2, 112800, Note_on_c, 0, 61, 95
2, 112800, Note_on_c, 0, 57, 95
2, 112800, Note_on_c, 0, 52, 95
2, 112800, Note_on_c, 0, 45, 95
2, 112800, Note_on_c, 0, 40, 95
2, 113760, Note_off_c, 0, 64, 95
2, 113760, Note_off_c, 0, 61, 95
2, 113760, Note_off_c, 0, 57, 95
2, 113760, Note_off_c, 0, 52, 95
2, 113760, Note_off_c, 0, 45, 95
2, 113760, Note_off_c, 0, 40, 95
2, 113760, Note_on_c, 0, 64, 95
2, 113760, Note_on_c, 0, 61, 95
2, 113760, Note_on_c, 0, 57, 95
2, 113760, Note_on_c, 0, 52, 95
2, 113760, Note_on_c, 0, 45, 95
2, 113760, Note_on_c, 0, 40, 95
2, 114720, Note_off_c, 0, 64, 95
2, 114720, Note_off_c, 0, 61, 95
2, 114720, Note_off_c, 0, 57, 95
2, 114720, Note_off_c, 0, 52, 95
2, 114720, Note_off_c, 0, 45, 95
2, 114720, Note_off_c, 0, 40, 95
2, 114720, Note_on_c, 0, 64, 95
2, 114720, Note_on_c, 0, 61, 95
2, 114720, Note_on_c, 0, 57, 95
2, 114720, Note_on_c, 0, 52, 95
2, 114720, Note_on_c, 0, 45, 95
2, 114720, Note_on_c, 0, 40, 95
2, 115200, Note_off_c, 0, 64, 95
2, 115200, Note_off_c, 0, 61, 95
2, 115200, Note_off_c, 0, 57, 95
2, 115200, Note_off_c, 0, 52, 95
2, 115200, Note_off_c, 0, 45, 95
2, 115200, Note_off_c, 0, 40, 95
2, 115200, Note_on_c, 0, 64, 95
2, 115200, Note_on_c, 0, 61, 95
2, 115200, Note_on_c, 0, 57, 95
2, 115200, Note_on_c, 0, 52, 95
2, 115200, Note_on_c, 0, 45, 95
2, 115200, Note_on_c, 0, 40, 95
2, 116160, Note_off_c, 0, 64, 95
2, 116160, Note_off_c, 0, 61, 95
2, 116160, Note_off_c, 0, 57, 95
2, 116160, Note_off_c, 0, 52, 95
2, 116160, Note_off_c, 0, 45, 95
2, 116160, Note_off_c, 0, 40, 95
2, 116160, Note_on_c, 0, 64, 95
2, 116160, Note_on_c, 0, 61, 95
2, 116160, Note_on_c, 0, 57, 95
2, 116160, Note_on_c, 0, 52, 95
2, 116160, Note_on_c, 0, 45, 95
2, 116160, Note_on_c, 0, 40, 95
2, 116640, Note_off_c, 0, 64, 95
2, 116640, Note_off_c, 0, 61, 95
2, 116640, Note_off_c, 0, 57, 95
2, 116640, Note_off_c, 0, 52, 95
2, 116640, Note_off_c, 0, 45, 95
2, 116640, Note_off_c, 0, 40, 95
2, 116640, Note_on_c, 0, 64, 95
2, 116640, Note_on_c, 0, 61, 95
2, 116640, Note_on_c, 0, 57, 95
2, 116640, Note_on_c, 0, 52, 95
2, 116640, Note_on_c, 0, 45, 95
2, 116640, Note_on_c, 0, 40, 95
2, 117600, Note_off_c, 0, 64, 95
2, 117600, Note_off_c, 0, 61, 95
2, 117600, Note_off_c, 0, 57, 95
2, 117600, Note_off_c, 0, 52, 95
2, 117600, Note_off_c, 0, 45, 95
2, 117600, Note_off_c, 0, 40, 95
2, 117600, Note_on_c, 0, 64, 95
2, 117600, Note_on_c, 0, 61, 95
2, 117600, Note_on_c, 0, 57, 95
2, 117600, Note_on_c, 0, 52, 95
2, 117600, Note_on_c, 0, 45, 95
2, 117600, Note_on_c, 0, 40, 95
2, 118080, Note_off_c, 0, 64, 95
2, 118080, Note_off_c, 0, 61, 95
2, 118080, Note_off_c, 0, 57, 95
2, 118080, Note_off_c, 0, 52, 95
2, 118080, Note_off_c, 0, 45, 95
2, 118080, Note_off_c, 0, 40, 95
2, 118080, Note_on_c, 0, 64, 95
2, 118080, Note_on_c, 0, 61, 95
2, 118080, Note_on_c, 0, 57, 95
2, 118080, Note_on_c, 0, 52, 95
2, 118080, Note_on_c, 0, 45, 95
2, 118080, Note_on_c, 0, 40, 95
2, 119040, Note_off_c, 0, 64, 95
2, 119040, Note_off_c, 0, 61, 95
2, 119040, Note_off_c, 0, 57, 95
2, 119040, Note_off_c, 0, 52, 95
2, 119040, Note_off_c, 0, 45, 95
2, 119040, Note_off_c, 0, 40, 95
2, 119040, Note_on_c, 0, 66, 95
2, 119040, Note_on_c, 0, 62, 95
2, 119040, Note_on_c, 0, 57, 95
2, 119040, Note_on_c, 0, 50, 95
2, 119040, Note_on_c, 0, 45, 95
2, 119040, Note_on_c, 0, 42, 95
2, 120480, Note_off_c, 0, 66, 95
2, 120480, Note_off_c, 0, 62, 95
2, 120480, Note_off_c, 0, 57, 95
2, 120480, Note_off_c, 0, 50, 95
2, 120480, Note_off_c, 0, 45, 95
2, 120480, Note_off_c, 0, 42, 95
2, 120480, Note_on_c, 0, 66, 95
2, 120480, Note_on_c, 0, 62, 95
2, 120480, Note_on_c, 0, 57, 95
2, 120480, Note_on_c, 0, 50, 95
2, 120480, Note_on_c, 0, 45, 95
2, 120480, Note_on_c, 0, 42, 95
2, 121440, Note_off_c, 0, 66, 95
2, 121440, Note_off_c, 0, 62, 95
2, 121440, Note_off_c, 0, 57, 95
2, 121440, Note_off_c, 0, 50, 95
2, 121440, Note_off_c, 0, 45, 95
2, 121440, Note_off_c, 0, 42, 95
2, 121440, Note_on_c, 0, 66, 95
2, 121440, Note_on_c, 0, 62, 95
2, 121440, Note_on_c, 0, 57, 95
2, 121440, Note_on_c, 0, 50, 95
2, 121440, Note_on_c, 0, 45, 95
2, 121440, Note_on_c, 0, 42, 95
2, 121920, Note_off_c, 0, 66, 95
2, 121920, Note_off_c, 0, 62, 95
2, 121920, Note_off_c, 0, 57, 95
2, 121920, Note_off_c, 0, 50, 95
2, 121920, Note_off_c, 0, 45, 95
2, 121920, Note_off_c, 0, 42, 95
2, 121920, Note_on_c, 0, 66, 95
2, 121920, Note_on_c, 0, 62, 95
2, 121920, Note_on_c, 0, 57, 95
2, 121920, Note_on_c, 0, 50, 95
2, 121920, Note_on_c, 0, 45, 95
2, 121920, Note_on_c, 0, 42, 95
2, 122400, Note_off_c, 0, 66, 95
2, 122400, Note_off_c, 0, 62, 95
2, 122400, Note_off_c, 0, 57, 95
2, 122400, Note_off_c, 0, 50, 95
2, 122400, Note_off_c, 0, 45, 95
2, 122400, Note_off_c, 0, 42, 95
2, 122400, Note_on_c, 0, 66, 95
2, 122400, Note_on_c, 0, 62, 95
2, 122400, Note_on_c, 0, 57, 95
2, 122400, Note_on_c, 0, 50, 95
2, 122400, Note_on_c, 0, 45, 95
2, 122400, Note_on_c, 0, 42, 95
2, 122880, Note_off_c, 0, 66, 95
2, 122880, Note_off_c, 0, 62, 95
2, 122880, Note_off_c, 0, 57, 95
2, 122880, Note_off_c, 0, 50, 95
2, 122880, Note_off_c, 0, 45, 95
2, 122880, Note_off_c, 0, 42, 95
2, 122880, Note_on_c, 0, 66, 95
2, 122880, Note_on_c, 0, 62, 95
2, 122880, Note_on_c, 0, 57, 95
2, 122880, Note_on_c, 0, 50, 95
2, 122880, Note_on_c, 0, 45, 95
2, 123840, Note_off_c, 0, 66, 95
2, 123840, Note_off_c, 0, 62, 95
2, 123840, Note_off_c, 0, 57, 95
2, 123840, Note_off_c, 0, 50, 95
2, 123840, Note_off_c, 0, 45, 95
2, 123840, Note_on_c, 0, 66, 95
2, 123840, Note_on_c, 0, 62, 95
2, 123840, Note_on_c, 0, 57, 95
2, 123840, Note_on_c, 0, 50, 95
2, 123840, Note_on_c, 0, 45, 95
2, 124320, Note_off_c, 0, 66, 95
2, 124320, Note_off_c, 0, 62, 95
2, 124320, Note_off_c, 0, 57, 95
2, 124320, Note_off_c, 0, 50, 95
2, 124320, Note_off_c, 0, 45, 95
2, 124320, Note_on_c, 0, 66, 95
2, 124320, Note_on_c, 0, 62, 95
2, 124320, Note_on_c, 0, 57, 95
2, 124320, Note_on_c, 0, 50, 95
2, 124320, Note_on_c, 0, 45, 95
2, 125280, Note_off_c, 0, 66, 95
2, 125280, Note_off_c, 0, 62, 95
2, 125280, Note_off_c, 0, 57, 95
2, 125280, Note_off_c, 0, 50, 95
2, 125280, Note_off_c, 0, 45, 95
2, 125280, Note_on_c, 0, 66, 95
2, 125280, Note_on_c, 0, 62, 95
2, 125280, Note_on_c, 0, 57, 95
2, 125280, Note_on_c, 0, 50, 95
2, 125280, Note_on_c, 0, 45, 95
2, 125760, Note_off_c, 0, 66, 95
2, 125760, Note_off_c, 0, 62, 95
2, 125760, Note_off_c, 0, 57, 95
2, 125760, Note_off_c, 0, 50, 95
2, 125760, Note_off_c, 0, 45, 95
2, 125760, Note_on_c, 0, 66, 95
2, 125760, Note_on_c, 0, 62, 95
2, 125760, Note_on_c, 0, 57, 95
2, 125760, Note_on_c, 0, 50, 95
2, 125760, Note_on_c, 0, 45, 95
2, 126720, Note_off_c, 0, 66, 95
2, 126720, Note_off_c, 0, 62, 95
2, 126720, Note_off_c, 0, 57, 95
2, 126720, Note_off_c, 0, 50, 95
2, 126720, Note_off_c, 0, 45, 95
2, 126720, Note_on_c, 0, 64, 95
2, 126720, Note_on_c, 0, 61, 95
2, 126720, Note_on_c, 0, 57, 95
2, 126720, Note_on_c, 0, 52, 95
2, 126720, Note_on_c, 0, 45, 95
2, 126720, Note_on_c, 0, 40, 95
2, 127680, Note_off_c, 0, 64, 95
2, 127680, Note_off_c, 0, 61, 95
2, 127680, Note_off_c, 0, 57, 95
2, 127680, Note_off_c, 0, 52, 95
2, 127680, Note_off_c, 0, 45, 95
2, 127680, Note_off_c, 0, 40, 95
2, 127680, Note_on_c, 0, 64, 95
2, 127680, Note_on_c, 0, 61, 95
2, 127680, Note_on_c, 0, 57, 95
2, 127680, Note_on_c, 0, 52, 95
2, 127680, Note_on_c, 0, 45, 95
2, 127680, Note_on_c, 0, 40, 95
2, 128160, Note_off_c, 0, 64, 95
2, 128160, Note_off_c, 0, 61, 95
2, 128160, Note_off_c, 0, 57, 95
2, 128160, Note_off_c, 0, 52, 95
2, 128160, Note_off_c, 0, 45, 95
2, 128160, Note_off_c, 0, 40, 95
2, 128160, Note_on_c, 0, 64, 95
2, 128160, Note_on_c, 0, 61, 95
2, 128160, Note_on_c, 0, 57, 95
2, 128160, Note_on_c, 0, 52, 95
2, 128160, Note_on_c, 0, 45, 95
2, 128160, Note_on_c, 0, 40, 95
2, 129120, Note_off_c, 0, 64, 95
2, 129120, Note_off_c, 0, 61, 95
2, 129120, Note_off_c, 0, 57, 95
2, 129120, Note_off_c, 0, 52, 95
2, 129120, Note_off_c, 0, 45, 95
2, 129120, Note_off_c, 0, 40, 95
2, 129120, Note_on_c, 0, 64, 95
2, 129120, Note_on_c, 0, 61, 95
2, 129120, Note_on_c, 0, 57, 95
2, 129120, Note_on_c, 0, 52, 95
2, 129120, Note_on_c, 0, 45, 95
2, 129120, Note_on_c, 0, 40, 95
2, 130080, Note_off_c, 0, 64, 95
2, 130080, Note_off_c, 0, 61, 95
2, 130080, Note_off_c, 0, 57, 95
2, 130080, Note_off_c, 0, 52, 95
2, 130080, Note_off_c, 0, 45, 95
2, 130080, Note_off_c, 0, 40, 95
2, 130080, Note_on_c, 0, 64, 95
2, 130080, Note_on_c, 0, 61, 95
2, 130080, Note_on_c, 0, 57, 95
2, 130080, Note_on_c, 0, 52, 95
2, 130080, Note_on_c, 0, 45, 95
2, 130080, Note_on_c, 0, 40, 95
2, 130560, Note_off_c, 0, 64, 95
2, 130560, Note_off_c, 0, 61, 95
2, 130560, Note_off_c, 0, 57, 95
2, 130560, Note_off_c, 0, 52, 95
2, 130560, Note_off_c, 0, 45, 95
2, 130560, Note_off_c, 0, 40, 95
2, 130560, Note_on_c, 0, 64, 95
2, 130560, Note_on_c, 0, 61, 95
2, 130560, Note_on_c, 0, 57, 95
2, 130560, Note_on_c, 0, 52, 95
2, 130560, Note_on_c, 0, 45, 95
2, 130560, Note_on_c, 0, 40, 95
2, 131520, Note_off_c, 0, 64, 95
2, 131520, Note_off_c, 0, 61, 95
2, 131520, Note_off_c, 0, 57, 95
2, 131520, Note_off_c, 0, 52, 95
2, 131520, Note_off_c, 0, 45, 95
2, 131520, Note_off_c, 0, 40, 95
2, 131520, Note_on_c, 0, 64, 95
2, 131520, Note_on_c, 0, 61, 95
2, 131520, Note_on_c, 0, 57, 95
2, 131520, Note_on_c, 0, 52, 95
2, 131520, Note_on_c, 0, 45, 95
2, 131520, Note_on_c, 0, 40, 95
2, 132000, Note_off_c, 0, 64, 95
2, 132000, Note_off_c, 0, 61, 95
2, 132000, Note_off_c, 0, 57, 95
2, 132000, Note_off_c, 0, 52, 95
2, 132000, Note_off_c, 0, 45, 95
2, 132000, Note_off_c, 0, 40, 95
2, 132000, Note_on_c, 0, 64, 95
2, 132000, Note_on_c, 0, 61, 95
2, 132000, Note_on_c, 0, 57, 95
2, 132000, Note_on_c, 0, 52, 95
2, 132000, Note_on_c, 0, 45, 95
2, 132000, Note_on_c, 0, 40, 95
2, 132960, Note_off_c, 0, 64, 95
2, 132960, Note_off_c, 0, 61, 95
2, 132960, Note_off_c, 0, 57, 95
2, 132960, Note_off_c, 0, 52, 95
2, 132960, Note_off_c, 0, 45, 95
2, 132960, Note_off_c, 0, 40, 95
2, 132960, Note_on_c, 0, 64, 95
2, 132960, Note_on_c, 0, 61, 95
2, 132960, Note_on_c, 0, 57, 95
2, 132960, Note_on_c, 0, 52, 95
2, 132960, Note_on_c, 0, 45, 95
2, 132960, Note_on_c, 0, 40, 95
2, 133440, Note_off_c, 0, 64, 95
2, 133440, Note_off_c, 0, 61, 95
2, 133440, Note_off_c, 0, 57, 95
2, 133440, Note_off_c, 0, 52, 95
2, 133440, Note_off_c, 0, 45, 95
2, 133440, Note_off_c, 0, 40, 95
2, 133440, Note_on_c, 0, 64, 95
2, 133440, Note_on_c, 0, 61, 95
2, 133440, Note_on_c, 0, 57, 95
2, 133440, Note_on_c, 0, 52, 95
2, 133440, Note_on_c, 0, 45, 95
2, 133440, Note_on_c, 0, 40, 95
2, 134400, Note_off_c, 0, 64, 95
2, 134400, Note_off_c, 0, 61, 95
2, 134400, Note_off_c, 0, 57, 95
2, 134400, Note_off_c, 0, 52, 95
2, 134400, Note_off_c, 0, 45, 95
2, 134400, Note_off_c, 0, 40, 95
2, 134400, Note_on_c, 0, 66, 95
2, 134400, Note_on_c, 0, 62, 95
2, 134400, Note_on_c, 0, 57, 95
2, 134400, Note_on_c, 0, 50, 95
2, 134400, Note_on_c, 0, 45, 95
2, 134400, Note_on_c, 0, 42, 95
2, 135840, Note_off_c, 0, 66, 95
2, 135840, Note_off_c, 0, 62, 95
2, 135840, Note_off_c, 0, 57, 95
2, 135840, Note_off_c, 0, 50, 95
2, 135840, Note_off_c, 0, 45, 95
2, 135840, Note_off_c, 0, 42, 95
2, 135840, Note_on_c, 0, 66, 95
2, 135840, Note_on_c, 0, 62, 95
2, 135840, Note_on_c, 0, 57, 95
2, 135840, Note_on_c, 0, 50, 95
2, 135840, Note_on_c, 0, 45, 95
2, 135840, Note_on_c, 0, 42, 95
2, 136800, Note_off_c, 0, 66, 95
2, 136800, Note_off_c, 0, 62, 95
2, 136800, Note_off_c, 0, 57, 95
2, 136800, Note_off_c, 0, 50, 95
2, 136800, Note_off_c, 0, 45, 95
2, 136800, Note_off_c, 0, 42, 95
2, 136800, Note_on_c, 0, 66, 95
2, 136800, Note_on_c, 0, 62, 95
2, 136800, Note_on_c, 0, 57, 95
2, 136800, Note_on_c, 0, 50, 95
2, 136800, Note_on_c, 0, 45, 95
2, 136800, Note_on_c, 0, 42, 95
2, 137280, Note_off_c, 0, 66, 95
2, 137280, Note_off_c, 0, 62, 95
2, 137280, Note_off_c, 0, 57, 95
2, 137280, Note_off_c, 0, 50, 95
2, 137280, Note_off_c, 0, 45, 95
2, 137280, Note_off_c, 0, 42, 95
2, 137280, Note_on_c, 0, 66, 95
2, 137280, Note_on_c, 0, 62, 95
2, 137280, Note_on_c, 0, 57, 95
2, 137280, Note_on_c, 0, 50, 95
2, 137280, Note_on_c, 0, 45, 95
2, 137280, Note_on_c, 0, 42, 95
2, 137760, Note_off_c, 0, 66, 95
2, 137760, Note_off_c, 0, 62, 95
2, 137760, Note_off_c, 0, 57, 95
2, 137760, Note_off_c, 0, 50, 95
2, 137760, Note_off_c, 0, 45, 95
2, 137760, Note_off_c, 0, 42, 95
2, 137760, Note_on_c, 0, 66, 95
2, 137760, Note_on_c, 0, 62, 95
2, 137760, Note_on_c, 0, 57, 95
2, 137760, Note_on_c, 0, 50, 95
2, 137760, Note_on_c, 0, 45, 95
2, 137760, Note_on_c, 0, 42, 95
2, 138240, Note_off_c, 0, 66, 95
2, 138240, Note_off_c, 0, 62, 95
2, 138240, Note_off_c, 0, 57, 95
2, 138240, Note_off_c, 0, 50, 95
2, 138240, Note_off_c, 0, 45, 95
2, 138240, Note_off_c, 0, 42, 95
2, 138240, Note_on_c, 0, 66, 95
2, 138240, Note_on_c, 0, 62, 95
2, 138240, Note_on_c, 0, 57, 95
2, 138240, Note_on_c, 0, 50, 95
2, 138240, Note_on_c, 0, 45, 95
2, 139200, Note_off_c, 0, 66, 95
2, 139200, Note_off_c, 0, 62, 95
2, 139200, Note_off_c, 0, 57, 95
2, 139200, Note_off_c, 0, 50, 95
2, 139200, Note_off_c, 0, 45, 95
2, 139200, Note_on_c, 0, 66, 95
2, 139200, Note_on_c, 0, 62, 95
2, 139200, Note_on_c, 0, 57, 95
2, 139200, Note_on_c, 0, 50, 95
2, 139200, Note_on_c, 0, 45, 95
2, 139680, Note_off_c, 0, 66, 95
2, 139680, Note_off_c, 0, 62, 95
2, 139680, Note_off_c, 0, 57, 95
2, 139680, Note_off_c, 0, 50, 95
2, 139680, Note_off_c, 0, 45, 95
2, 139680, Note_on_c, 0, 66, 95
2, 139680, Note_on_c, 0, 62, 95
2, 139680, Note_on_c, 0, 57, 95
2, 139680, Note_on_c, 0, 50, 95
2, 139680, Note_on_c, 0, 45, 95
2, 140640, Note_off_c, 0, 66, 95
2, 140640, Note_off_c, 0, 62, 95
2, 140640, Note_off_c, 0, 57, 95
2, 140640, Note_off_c, 0, 50, 95
2, 140640, Note_off_c, 0, 45, 95
2, 140640, Note_on_c, 0, 66, 95
2, 140640, Note_on_c, 0, 62, 95
2, 140640, Note_on_c, 0, 57, 95
2, 140640, Note_on_c, 0, 50, 95
2, 140640, Note_on_c, 0, 45, 95
2, 141120, Note_off_c, 0, 66, 95
2, 141120, Note_off_c, 0, 62, 95
2, 141120, Note_off_c, 0, 57, 95
2, 141120, Note_off_c, 0, 50, 95
2, 141120, Note_off_c, 0, 45, 95
2, 141120, Note_on_c, 0, 66, 95
2, 141120, Note_on_c, 0, 62, 95
2, 141120, Note_on_c, 0, 57, 95
2, 141120, Note_on_c, 0, 50, 95
2, 141120, Note_on_c, 0, 45, 95
2, 142080, Note_off_c, 0, 66, 95
2, 142080, Note_off_c, 0, 62, 95
2, 142080, Note_off_c, 0, 57, 95
2, 142080, Note_off_c, 0, 50, 95
2, 142080, Note_off_c, 0, 45, 95
2, 142080, Note_on_c, 0, 64, 95
2, 142080, Note_on_c, 0, 61, 95
2, 142080, Note_on_c, 0, 57, 95
2, 142080, Note_on_c, 0, 52, 95
2, 142080, Note_on_c, 0, 45, 95
2, 142080, Note_on_c, 0, 40, 95
2, 143040, Note_off_c, 0, 64, 95
2, 143040, Note_off_c, 0, 61, 95
2, 143040, Note_off_c, 0, 57, 95
2, 143040, Note_off_c, 0, 52, 95
2, 143040, Note_off_c, 0, 45, 95
2, 143040, Note_off_c, 0, 40, 95
2, 143040, Note_on_c, 0, 64, 95
2, 143040, Note_on_c, 0, 61, 95
2, 143040, Note_on_c, 0, 57, 95
2, 143040, Note_on_c, 0, 52, 95
2, 143040, Note_on_c, 0, 45, 95
2, 143040, Note_on_c, 0, 40, 95
2, 143520, Note_off_c, 0, 64, 95
2, 143520, Note_off_c, 0, 61, 95
2, 143520, Note_off_c, 0, 57, 95
2, 143520, Note_off_c, 0, 52, 95
2, 143520, Note_off_c, 0, 45, 95
2, 143520, Note_off_c, 0, 40, 95
2, 143520, Note_on_c, 0, 64, 95
2, 143520, Note_on_c, 0, 61, 95
2, 143520, Note_on_c, 0, 57, 95
2, 143520, Note_on_c, 0, 52, 95
2, 143520, Note_on_c, 0, 45, 95
2, 143520, Note_on_c, 0, 40, 95
2, 144480, Note_off_c, 0, 64, 95
2, 144480, Note_off_c, 0, 61, 95
2, 144480, Note_off_c, 0, 57, 95
2, 144480, Note_off_c, 0, 52, 95
2, 144480, Note_off_c, 0, 45, 95
2, 144480, Note_off_c, 0, 40, 95
2, 144480, Note_on_c, 0, 64, 95
2, 144480, Note_on_c, 0, 61, 95
2, 144480, Note_on_c, 0, 57, 95
2, 144480, Note_on_c, 0, 52, 95
2, 144480, Note_on_c, 0, 45, 95
2, 144480, Note_on_c, 0, 40, 95
2, 145440, Note_off_c, 0, 64, 95
2, 145440, Note_off_c, 0, 61, 95
2, 145440, Note_off_c, 0, 57, 95
2, 145440, Note_off_c, 0, 52, 95
2, 145440, Note_off_c, 0, 45, 95
2, 145440, Note_off_c, 0, 40, 95
2, 145440, Note_on_c, 0, 64, 95
2, 145440, Note_on_c, 0, 61, 95
2, 145440, Note_on_c, 0, 57, 95
2, 145440, Note_on_c, 0, 52, 95
2, 145440, Note_on_c, 0, 45, 95
2, 145440, Note_on_c, 0, 40, 95
2, 145920, Note_off_c, 0, 64, 95
2, 145920, Note_off_c, 0, 61, 95
2, 145920, Note_off_c, 0, 57, 95
2, 145920, Note_off_c, 0, 52, 95
2, 145920, Note_off_c, 0, 45, 95
2, 145920, Note_off_c, 0, 40, 95
2, 145920, Note_on_c, 0, 64, 95
2, 145920, Note_on_c, 0, 61, 95
2, 145920, Note_on_c, 0, 57, 95
2, 145920, Note_on_c, 0, 52, 95
2, 145920, Note_on_c, 0, 45, 95
2, 145920, Note_on_c, 0, 40, 95
2, 146880, Note_off_c, 0, 64, 95
2, 146880, Note_off_c, 0, 61, 95
2, 146880, Note_off_c, 0, 57, 95
2, 146880, Note_off_c, 0, 52, 95
2, 146880, Note_off_c, 0, 45, 95
2, 146880, Note_off_c, 0, 40, 95
2, 146880, Note_on_c, 0, 64, 95
2, 146880, Note_on_c, 0, 61, 95
2, 146880, Note_on_c, 0, 57, 95
2, 146880, Note_on_c, 0, 52, 95
2, 146880, Note_on_c, 0, 45, 95
2, 146880, Note_on_c, 0, 40, 95
2, 147360, Note_off_c, 0, 64, 95
2, 147360, Note_off_c, 0, 61, 95
2, 147360, Note_off_c, 0, 57, 95
2, 147360, Note_off_c, 0, 52, 95
2, 147360, Note_off_c, 0, 45, 95
2, 147360, Note_off_c, 0, 40, 95
2, 147360, Note_on_c, 0, 64, 95
2, 147360, Note_on_c, 0, 61, 95
2, 147360, Note_on_c, 0, 57, 95
2, 147360, Note_on_c, 0, 52, 95
2, 147360, Note_on_c, 0, 45, 95
2, 147360, Note_on_c, 0, 40, 95
2, 148320, Note_off_c, 0, 64, 95
2, 148320, Note_off_c, 0, 61, 95
2, 148320, Note_off_c, 0, 57, 95
2, 148320, Note_off_c, 0, 52, 95
2, 148320, Note_off_c, 0, 45, 95
2, 148320, Note_off_c, 0, 40, 95
2, 148320, Note_on_c, 0, 64, 95
2, 148320, Note_on_c, 0, 61, 95
2, 148320, Note_on_c, 0, 57, 95
2, 148320, Note_on_c, 0, 52, 95
2, 148320, Note_on_c, 0, 45, 95
2, 148320, Note_on_c, 0, 40, 95
2, 148800, Note_off_c, 0, 64, 95
2, 148800, Note_off_c, 0, 61, 95
2, 148800, Note_off_c, 0, 57, 95
2, 148800, Note_off_c, 0, 52, 95
2, 148800, Note_off_c, 0, 45, 95
2, 148800, Note_off_c, 0, 40, 95
2, 148800, Note_on_c, 0, 64, 95
2, 148800, Note_on_c, 0, 61, 95
2, 148800, Note_on_c, 0, 57, 95
2, 148800, Note_on_c, 0, 52, 95
2, 148800, Note_on_c, 0, 45, 95
2, 148800, Note_on_c, 0, 40, 95
2, 149760, Note_off_c, 0, 64, 95
2, 149760, Note_off_c, 0, 61, 95
2, 149760, Note_off_c, 0, 57, 95
2, 149760, Note_off_c, 0, 52, 95
2, 149760, Note_off_c, 0, 45, 95
2, 149760, Note_off_c, 0, 40, 95
2, 149760, Note_on_c, 0, 66, 95
2, 149760, Note_on_c, 0, 62, 95
2, 149760, Note_on_c, 0, 57, 95
2, 149760, Note_on_c, 0, 50, 95
2, 149760, Note_on_c, 0, 45, 95
2, 149760, Note_on_c, 0, 42, 95
2, 151200, Note_off_c, 0, 66, 95
2, 151200, Note_off_c, 0, 62, 95
2, 151200, Note_off_c, 0, 57, 95
2, 151200, Note_off_c, 0, 50, 95
2, 151200, Note_off_c, 0, 45, 95
2, 151200, Note_off_c, 0, 42, 95
2, 151200, Note_on_c, 0, 66, 95
2, 151200, Note_on_c, 0, 62, 95
2, 151200, Note_on_c, 0, 57, 95
2, 151200, Note_on_c, 0, 50, 95
2, 151200, Note_on_c, 0, 45, 95
2, 151200, Note_on_c, 0, 42, 95
2, 152160, Note_off_c, 0, 66, 95
2, 152160, Note_off_c, 0, 62, 95
2, 152160, Note_off_c, 0, 57, 95
2, 152160, Note_off_c, 0, 50, 95
2, 152160, Note_off_c, 0, 45, 95
2, 152160, Note_off_c, 0, 42, 95
2, 152160, Note_on_c, 0, 66, 95
2, 152160, Note_on_c, 0, 62, 95
2, 152160, Note_on_c, 0, 57, 95
2, 152160, Note_on_c, 0, 50, 95
2, 152160, Note_on_c, 0, 45, 95
2, 152160, Note_on_c, 0, 42, 95
2, 152640, Note_off_c, 0, 66, 95
2, 152640, Note_off_c, 0, 62, 95
2, 152640, Note_off_c, 0, 57, 95
2, 152640, Note_off_c, 0, 50, 95
2, 152640, Note_off_c, 0, 45, 95
2, 152640, Note_off_c, 0, 42, 95
2, 152640, Note_on_c, 0, 66, 95
2, 152640, Note_on_c, 0, 62, 95
2, 152640, Note_on_c, 0, 57, 95
2, 152640, Note_on_c, 0, 50, 95
2, 152640, Note_on_c, 0, 45, 95
2, 152640, Note_on_c, 0, 42, 95
2, 153120, Note_off_c, 0, 66, 95
2, 153120, Note_off_c, 0, 62, 95
2, 153120, Note_off_c, 0, 57, 95
2, 153120, Note_off_c, 0, 50, 95
2, 153120, Note_off_c, 0, 45, 95
2, 153120, Note_off_c, 0, 42, 95
2, 153120, Note_on_c, 0, 66, 95
2, 153120, Note_on_c, 0, 62, 95
2, 153120, Note_on_c, 0, 57, 95
2, 153120, Note_on_c, 0, 50, 95
2, 153120, Note_on_c, 0, 45, 95
2, 153120, Note_on_c, 0, 42, 95
2, 153600, Note_off_c, 0, 66, 95
2, 153600, Note_off_c, 0, 62, 95
2, 153600, Note_off_c, 0, 57, 95
2, 153600, Note_off_c, 0, 50, 95
2, 153600, Note_off_c, 0, 45, 95
2, 153600, Note_off_c, 0, 42, 95
2, 153600, Note_on_c, 0, 66, 95
2, 153600, Note_on_c, 0, 62, 95
2, 153600, Note_on_c, 0, 57, 95
2, 153600, Note_on_c, 0, 50, 95
2, 153600, Note_on_c, 0, 45, 95
2, 154560, Note_off_c, 0, 66, 95
2, 154560, Note_off_c, 0, 62, 95
2, 154560, Note_off_c, 0, 57, 95
2, 154560, Note_off_c, 0, 50, 95
2, 154560, Note_off_c, 0, 45, 95
2, 154560, Note_on_c, 0, 66, 95
2, 154560, Note_on_c, 0, 62, 95
2, 154560, Note_on_c, 0, 57, 95
2, 154560, Note_on_c, 0, 50, 95
2, 154560, Note_on_c, 0, 45, 95
2, 155040, Note_off_c, 0, 66, 95
2, 155040, Note_off_c, 0, 62, 95
2, 155040, Note_off_c, 0, 57, 95
2, 155040, Note_off_c, 0, 50, 95
2, 155040, Note_off_c, 0, 45, 95
2, 155040, Note_on_c, 0, 66, 95
2, 155040, Note_on_c, 0, 62, 95
2, 155040, Note_on_c, 0, 57, 95
2, 155040, Note_on_c, 0, 50, 95
2, 155040, Note_on_c, 0, 45, 95
2, 156000, Note_off_c, 0, 66, 95
2, 156000, Note_off_c, 0, 62, 95
2, 156000, Note_off_c, 0, 57, 95
2, 156000, Note_off_c, 0, 50, 95
2, 156000, Note_off_c, 0, 45, 95
2, 156000, Note_on_c, 0, 66, 95
2, 156000, Note_on_c, 0, 62, 95
2, 156000, Note_on_c, 0, 57, 95
2, 156000, Note_on_c, 0, 50, 95
2, 156000, Note_on_c, 0, 45, 95
2, 156480, Note_off_c, 0, 66, 95
2, 156480, Note_off_c, 0, 62, 95
2, 156480, Note_off_c, 0, 57, 95
2, 156480, Note_off_c, 0, 50, 95
2, 156480, Note_off_c, 0, 45, 95
2, 156480, Note_on_c, 0, 66, 95
2, 156480, Note_on_c, 0, 62, 95
2, 156480, Note_on_c, 0, 57, 95
2, 156480, Note_on_c, 0, 50, 95
2, 156480, Note_on_c, 0, 45, 95
2, 157440, Note_off_c, 0, 66, 95
2, 157440, Note_off_c, 0, 62, 95
2, 157440, Note_off_c, 0, 57, 95
2, 157440, Note_off_c, 0, 50, 95
2, 157440, Note_off_c, 0, 45, 95
2, 157440, Note_on_c, 0, 64, 95
2, 157440, Note_on_c, 0, 61, 95
2, 157440, Note_on_c, 0, 57, 95
2, 157440, Note_on_c, 0, 52, 95
2, 157440, Note_on_c, 0, 45, 95
2, 157440, Note_on_c, 0, 40, 95
2, 158400, Note_off_c, 0, 64, 95
2, 158400, Note_off_c, 0, 61, 95
2, 158400, Note_off_c, 0, 57, 95
2, 158400, Note_off_c, 0, 52, 95
2, 158400, Note_off_c, 0, 45, 95
2, 158400, Note_off_c, 0, 40, 95
2, 158400, Note_on_c, 0, 64, 95
2, 158400, Note_on_c, 0, 61, 95
2, 158400, Note_on_c, 0, 57, 95
2, 158400, Note_on_c, 0, 52, 95
2, 158400, Note_on_c, 0, 45, 95
2, 158400, Note_on_c, 0, 40, 95
2, 158880, Note_off_c, 0, 64, 95
2, 158880, Note_off_c, 0, 61, 95
2, 158880, Note_off_c, 0, 57, 95
2, 158880, Note_off_c, 0, 52, 95
2, 158880, Note_off_c, 0, 45, 95
2, 158880, Note_off_c, 0, 40, 95
2, 158880, Note_on_c, 0, 64, 95
2, 158880, Note_on_c, 0, 61, 95
2, 158880, Note_on_c, 0, 57, 95
2, 158880, Note_on_c, 0, 52, 95
2, 158880, Note_on_c, 0, 45, 95
2, 158880, Note_on_c, 0, 40, 95
2, 159840, Note_off_c, 0, 64, 95
2, 159840, Note_off_c, 0, 61, 95
2, 159840, Note_off_c, 0, 57, 95
2, 159840, Note_off_c, 0, 52, 95
2, 159840, Note_off_c, 0, 45, 95
2, 159840, Note_off_c, 0, 40, 95
2, 159840, Note_on_c, 0, 64, 95
2, 159840, Note_on_c, 0, 61, 95
2, 159840, Note_on_c, 0, 57, 95
2, 159840, Note_on_c, 0, 52, 95
2, 159840, Note_on_c, 0, 45, 95
2, 159840, Note_on_c, 0, 40, 95
2, 160800, Note_off_c, 0, 64, 95
2, 160800, Note_off_c, 0, 61, 95
2, 160800, Note_off_c, 0, 57, 95
2, 160800, Note_off_c, 0, 52, 95
2, 160800, Note_off_c, 0, 45, 95
2, 160800, Note_off_c, 0, 40, 95
2, 160800, Note_on_c, 0, 64, 95
2, 160800, Note_on_c, 0, 61, 95
2, 160800, Note_on_c, 0, 57, 95
2, 160800, Note_on_c, 0, 52, 95
2, 160800, Note_on_c, 0, 45, 95
2, 160800, Note_on_c, 0, 40, 95
2, 161280, Note_off_c, 0, 64, 95
2, 161280, Note_off_c, 0, 61, 95
2, 161280, Note_off_c, 0, 57, 95
2, 161280, Note_off_c, 0, 52, 95
2, 161280, Note_off_c, 0, 45, 95
2, 161280, Note_off_c, 0, 40, 95
2, 161280, Note_on_c, 0, 64, 95
2, 161280, Note_on_c, 0, 61, 95
2, 161280, Note_on_c, 0, 57, 95
2, 161280, Note_on_c, 0, 52, 95
2, 161280, Note_on_c, 0, 45, 95
2, 161280, Note_on_c, 0, 40, 95
2, 162240, Note_off_c, 0, 64, 95
2, 162240, Note_off_c, 0, 61, 95
2, 162240, Note_off_c, 0, 57, 95
2, 162240, Note_off_c, 0, 52, 95
2, 162240, Note_off_c, 0, 45, 95
2, 162240, Note_off_c, 0, 40, 95
2, 162240, Note_on_c, 0, 64, 95
2, 162240, Note_on_c, 0, 61, 95
2, 162240, Note_on_c, 0, 57, 95
2, 162240, Note_on_c, 0, 52, 95
2, 162240, Note_on_c, 0, 45, 95
2, 162240, Note_on_c, 0, 40, 95
2, 162720, Note_off_c, 0, 64, 95
2, 162720, Note_off_c, 0, 61, 95
2, 162720, Note_off_c, 0, 57, 95
2, 162720, Note_off_c, 0, 52, 95
2, 162720, Note_off_c, 0, 45, 95
2, 162720, Note_off_c, 0, 40, 95
2, 162720, Note_on_c, 0, 64, 95
2, 162720, Note_on_c, 0, 61, 95
2, 162720, Note_on_c, 0, 57, 95
2, 162720, Note_on_c, 0, 52, 95
2, 162720, Note_on_c, 0, 45, 95
2, 162720, Note_on_c, 0, 40, 95
2, 163680, Note_off_c, 0, 64, 95
2, 163680, Note_off_c, 0, 61, 95
2, 163680, Note_off_c, 0, 57, 95
2, 163680, Note_off_c, 0, 52, 95
2, 163680, Note_off_c, 0, 45, 95
2, 163680, Note_off_c, 0, 40, 95
2, 163680, Note_on_c, 0, 64, 95
2, 163680, Note_on_c, 0, 61, 95
2, 163680, Note_on_c, 0, 57, 95
2, 163680, Note_on_c, 0, 52, 95
2, 163680, Note_on_c, 0, 45, 95
2, 163680, Note_on_c, 0, 40, 95
2, 164160, Note_off_c, 0, 64, 95
2, 164160, Note_off_c, 0, 61, 95
2, 164160, Note_off_c, 0, 57, 95
2, 164160, Note_off_c, 0, 52, 95
2, 164160, Note_off_c, 0, 45, 95
2, 164160, Note_off_c, 0, 40, 95
2, 164160, Note_on_c, 0, 64, 95
2, 164160, Note_on_c, 0, 61, 95
2, 164160, Note_on_c, 0, 57, 95
2, 164160, Note_on_c, 0, 52, 95
2, 164160, Note_on_c, 0, 45, 95
2, 164160, Note_on_c, 0, 40, 95
2, 165120, Note_off_c, 0, 64, 95
2, 165120, Note_off_c, 0, 61, 95
2, 165120, Note_off_c, 0, 57, 95
2, 165120, Note_off_c, 0, 52, 95
2, 165120, Note_off_c, 0, 45, 95
2, 165120, Note_off_c, 0, 40, 95
2, 165120, Note_on_c, 0, 66, 95
2, 165120, Note_on_c, 0, 62, 95
2, 165120, Note_on_c, 0, 57, 95
2, 165120, Note_on_c, 0, 50, 95
2, 165120, Note_on_c, 0, 45, 95
2, 165120, Note_on_c, 0, 42, 95
2, 166560, Note_off_c, 0, 66, 95
2, 166560, Note_off_c, 0, 62, 95
2, 166560, Note_off_c, 0, 57, 95
2, 166560, Note_off_c, 0, 50, 95
2, 166560, Note_off_c, 0, 45, 95
2, 166560, Note_off_c, 0, 42, 95
2, 166560, Note_on_c, 0, 66, 95
2, 166560, Note_on_c, 0, 62, 95
2, 166560, Note_on_c, 0, 57, 95
2, 166560, Note_on_c, 0, 50, 95
2, 166560, Note_on_c, 0, 45, 95
2, 166560, Note_on_c, 0, 42, 95
2, 167520, Note_off_c, 0, 66, 95
2, 167520, Note_off_c, 0, 62, 95
2, 167520, Note_off_c, 0, 57, 95
2, 167520, Note_off_c, 0, 50, 95
2, 167520, Note_off_c, 0, 45, 95
2, 167520, Note_off_c, 0, 42, 95
2, 167520, Note_on_c, 0, 66, 95
2, 167520, Note_on_c, 0, 62, 95
2, 167520, Note_on_c, 0, 57, 95
2, 167520, Note_on_c, 0, 50, 95
2, 167520, Note_on_c, 0, 45, 95
2, 167520, Note_on_c, 0, 42, 95
2, 168000, Note_off_c, 0, 66, 95
2, 168000, Note_off_c, 0, 62, 95
2, 168000, Note_off_c, 0, 57, 95
2, 168000, Note_off_c, 0, 50, 95
2, 168000, Note_off_c, 0, 45, 95
2, 168000, Note_off_c, 0, 42, 95
2, 168000, Note_on_c, 0, 66, 95
2, 168000, Note_on_c, 0, 62, 95
2, 168000, Note_on_c, 0, 57, 95
2, 168000, Note_on_c, 0, 50, 95
2, 168000, Note_on_c, 0, 45, 95
2, 168000, Note_on_c, 0, 42, 95
2, 168480, Note_off_c, 0, 66, 95
2, 168480, Note_off_c, 0, 62, 95
2, 168480, Note_off_c, 0, 57, 95
2, 168480, Note_off_c, 0, 50, 95
2, 168480, Note_off_c, 0, 45, 95
2, 168480, Note_off_c, 0, 42, 95
2, 168480, Note_on_c, 0, 66, 95
2, 168480, Note_on_c, 0, 62, 95
2, 168480, Note_on_c, 0, 57, 95
2, 168480, Note_on_c, 0, 50, 95
2, 168480, Note_on_c, 0, 45, 95
2, 168480, Note_on_c, 0, 42, 95
2, 168960, Note_off_c, 0, 66, 95
2, 168960, Note_off_c, 0, 62, 95
2, 168960, Note_off_c, 0, 57, 95
2, 168960, Note_off_c, 0, 50, 95
2, 168960, Note_off_c, 0, 45, 95
2, 168960, Note_off_c, 0, 42, 95
2, 168960, Note_on_c, 0, 66, 95
2, 168960, Note_on_c, 0, 62, 95
2, 168960, Note_on_c, 0, 57, 95
2, 168960, Note_on_c, 0, 50, 95
2, 168960, Note_on_c, 0, 45, 95
2, 169920, Note_off_c, 0, 66, 95
2, 169920, Note_off_c, 0, 62, 95
2, 169920, Note_off_c, 0, 57, 95
2, 169920, Note_off_c, 0, 50, 95
2, 169920, Note_off_c, 0, 45, 95
2, 169920, Note_on_c, 0, 66, 95
2, 169920, Note_on_c, 0, 62, 95
2, 169920, Note_on_c, 0, 57, 95
2, 169920, Note_on_c, 0, 50, 95
2, 169920, Note_on_c, 0, 45, 95
2, 170400, Note_off_c, 0, 66, 95
2, 170400, Note_off_c, 0, 62, 95
2, 170400, Note_off_c, 0, 57, 95
2, 170400, Note_off_c, 0, 50, 95
2, 170400, Note_off_c, 0, 45, 95
2, 170400, Note_on_c, 0, 66, 95
2, 170400, Note_on_c, 0, 62, 95
2, 170400, Note_on_c, 0, 57, 95
2, 170400, Note_on_c, 0, 50, 95
2, 170400, Note_on_c, 0, 45, 95
2, 171360, Note_off_c, 0, 66, 95
2, 171360, Note_off_c, 0, 62, 95
2, 171360, Note_off_c, 0, 57, 95
2, 171360, Note_off_c, 0, 50, 95
2, 171360, Note_off_c, 0, 45, 95
2, 171360, Note_on_c, 0, 66, 95
2, 171360, Note_on_c, 0, 62, 95
2, 171360, Note_on_c, 0, 57, 95
2, 171360, Note_on_c, 0, 50, 95
2, 171360, Note_on_c, 0, 45, 95
2, 171840, Note_off_c, 0, 66, 95
2, 171840, Note_off_c, 0, 62, 95
2, 171840, Note_off_c, 0, 57, 95
2, 171840, Note_off_c, 0, 50, 95
2, 171840, Note_off_c, 0, 45, 95
2, 171840, Note_on_c, 0, 66, 95
2, 171840, Note_on_c, 0, 62, 95
2, 171840, Note_on_c, 0, 57, 95
2, 171840, Note_on_c, 0, 50, 95
2, 171840, Note_on_c, 0, 45, 95
2, 172800, Note_off_c, 0, 66, 95
2, 172800, Note_off_c, 0, 62, 95
2, 172800, Note_off_c, 0, 57, 95
2, 172800, Note_off_c, 0, 50, 95
2, 172800, Note_off_c, 0, 45, 95
2, 172800, Note_on_c, 0, 64, 95
2, 172800, Note_on_c, 0, 61, 95
2, 172800, Note_on_c, 0, 57, 95
2, 172800, Note_on_c, 0, 52, 95
2, 172800, Note_on_c, 0, 45, 95
2, 172800, Note_on_c, 0, 40, 95
2, 173760, Note_off_c, 0, 64, 95
2, 173760, Note_off_c, 0, 61, 95
2, 173760, Note_off_c, 0, 57, 95
2, 173760, Note_off_c, 0, 52, 95
2, 173760, Note_off_c, 0, 45, 95
2, 173760, Note_off_c, 0, 40, 95
2, 173760, Note_on_c, 0, 64, 95
2, 173760, Note_on_c, 0, 61, 95
2, 173760, Note_on_c, 0, 57, 95
2, 173760, Note_on_c, 0, 52, 95
2, 173760, Note_on_c, 0, 45, 95
2, 173760, Note_on_c, 0, 40, 95
2, 174240, Note_off_c, 0, 64, 95
2, 174240, Note_off_c, 0, 61, 95
2, 174240, Note_off_c, 0, 57, 95
2, 174240, Note_off_c, 0, 52, 95
2, 174240, Note_off_c, 0, 45, 95
2, 174240, Note_off_c, 0, 40, 95
2, 174240, Note_on_c, 0, 64, 95
2, 174240, Note_on_c, 0, 61, 95
2, 174240, Note_on_c, 0, 57, 95
2, 174240, Note_on_c, 0, 52, 95
2, 174240, Note_on_c, 0, 45, 95
2, 174240, Note_on_c, 0, 40, 95
2, 175200, Note_off_c, 0, 64, 95
2, 175200, Note_off_c, 0, 61, 95
2, 175200, Note_off_c, 0, 57, 95
2, 175200, Note_off_c, 0, 52, 95
2, 175200, Note_off_c, 0, 45, 95
2, 175200, Note_off_c, 0, 40, 95
2, 175200, Note_on_c, 0, 64, 95
2, 175200, Note_on_c, 0, 61, 95
2, 175200, Note_on_c, 0, 57, 95
2, 175200, Note_on_c, 0, 52, 95
2, 175200, Note_on_c, 0, 45, 95
2, 175200, Note_on_c, 0, 40, 95
2, 176160, Note_off_c, 0, 64, 95
2, 176160, Note_off_c, 0, 61, 95
2, 176160, Note_off_c, 0, 57, 95
2, 176160, Note_off_c, 0, 52, 95
2, 176160, Note_off_c, 0, 45, 95
2, 176160, Note_off_c, 0, 40, 95
2, 176160, Note_on_c, 0, 64, 95
2, 176160, Note_on_c, 0, 61, 95
2, 176160, Note_on_c, 0, 57, 95
2, 176160, Note_on_c, 0, 52, 95
2, 176160, Note_on_c, 0, 45, 95
2, 176160, Note_on_c, 0, 40, 95
2, 176640, Note_off_c, 0, 64, 95
2, 176640, Note_off_c, 0, 61, 95
2, 176640, Note_off_c, 0, 57, 95
2, 176640, Note_off_c, 0, 52, 95
2, 176640, Note_off_c, 0, 45, 95
2, 176640, Note_off_c, 0, 40, 95
2, 176640, Note_on_c, 0, 64, 95
2, 176640, Note_on_c, 0, 61, 95
2, 176640, Note_on_c, 0, 57, 95
2, 176640, Note_on_c, 0, 52, 95
2, 176640, Note_on_c, 0, 45, 95
2, 176640, Note_on_c, 0, 40, 95
2, 177600, Note_off_c, 0, 64, 95
2, 177600, Note_off_c, 0, 61, 95
2, 177600, Note_off_c, 0, 57, 95
2, 177600, Note_off_c, 0, 52, 95
2, 177600, Note_off_c, 0, 45, 95
2, 177600, Note_off_c, 0, 40, 95
2, 177600, Note_on_c, 0, 64, 95
2, 177600, Note_on_c, 0, 61, 95
2, 177600, Note_on_c, 0, 57, 95
2, 177600, Note_on_c, 0, 52, 95
2, 177600, Note_on_c, 0, 45, 95
2, 177600, Note_on_c, 0, 40, 95
2, 178080, Note_off_c, 0, 64, 95
2, 178080, Note_off_c, 0, 61, 95
2, 178080, Note_off_c, 0, 57, 95
2, 178080, Note_off_c, 0, 52, 95
2, 178080, Note_off_c, 0, 45, 95
2, 178080, Note_off_c, 0, 40, 95
2, 178080, Note_on_c, 0, 64, 95
2, 178080, Note_on_c, 0, 61, 95
2, 178080, Note_on_c, 0, 57, 95
2, 178080, Note_on_c, 0, 52, 95
2, 178080, Note_on_c, 0, 45, 95
2, 178080, Note_on_c, 0, 40, 95
2, 179040, Note_off_c, 0, 64, 95
2, 179040, Note_off_c, 0, 61, 95
2, 179040, Note_off_c, 0, 57, 95
2, 179040, Note_off_c, 0, 52, 95
2, 179040, Note_off_c, 0, 45, 95
2, 179040, Note_off_c, 0, 40, 95
2, 179040, Note_on_c, 0, 64, 95
2, 179040, Note_on_c, 0, 61, 95
2, 179040, Note_on_c, 0, 57, 95
2, 179040, Note_on_c, 0, 52, 95
2, 179040, Note_on_c, 0, 45, 95
2, 179040, Note_on_c, 0, 40, 95
2, 179520, Note_off_c, 0, 64, 95
2, 179520, Note_off_c, 0, 61, 95
2, 179520, Note_off_c, 0, 57, 95
2, 179520, Note_off_c, 0, 52, 95
2, 179520, Note_off_c, 0, 45, 95
2, 179520, Note_off_c, 0, 40, 95
2, 179520, Note_on_c, 0, 64, 95
2, 179520, Note_on_c, 0, 61, 95
2, 179520, Note_on_c, 0, 57, 95
2, 179520, Note_on_c, 0, 52, 95
2, 179520, Note_on_c, 0, 45, 95
2, 179520, Note_on_c, 0, 40, 95
2, 180480, Note_off_c, 0, 64, 95
2, 180480, Note_off_c, 0, 61, 95
2, 180480, Note_off_c, 0, 57, 95
2, 180480, Note_off_c, 0, 52, 95
2, 180480, Note_off_c, 0, 45, 95
2, 180480, Note_off_c, 0, 40, 95
2, 180480, Note_on_c, 0, 66, 95
2, 180480, Note_on_c, 0, 62, 95
2, 180480, Note_on_c, 0, 57, 95
2, 180480, Note_on_c, 0, 50, 95
2, 180480, Note_on_c, 0, 45, 95
2, 180480, Note_on_c, 0, 42, 95
2, 181920, Note_off_c, 0, 66, 95
2, 181920, Note_off_c, 0, 62, 95
2, 181920, Note_off_c, 0, 57, 95
2, 181920, Note_off_c, 0, 50, 95
2, 181920, Note_off_c, 0, 45, 95
2, 181920, Note_off_c, 0, 42, 95
2, 181920, Note_on_c, 0, 66, 95
2, 181920, Note_on_c, 0, 62, 95
2, 181920, Note_on_c, 0, 57, 95
2, 181920, Note_on_c, 0, 50, 95
2, 181920, Note_on_c, 0, 45, 95
2, 181920, Note_on_c, 0, 42, 95
2, 182880, Note_off_c, 0, 66, 95
2, 182880, Note_off_c, 0, 62, 95
2, 182880, Note_off_c, 0, 57, 95
2, 182880, Note_off_c, 0, 50, 95
2, 182880, Note_off_c, 0, 45, 95
2, 182880, Note_off_c, 0, 42, 95
2, 182880, Note_on_c, 0, 66, 95
2, 182880, Note_on_c, 0, 62, 95
2, 182880, Note_on_c, 0, 57, 95
2, 182880, Note_on_c, 0, 50, 95
2, 182880, Note_on_c, 0, 45, 95
2, 182880, Note_on_c, 0, 42, 95
2, 183360, Note_off_c, 0, 66, 95
2, 183360, Note_off_c, 0, 62, 95
2, 183360, Note_off_c, 0, 57, 95
2, 183360, Note_off_c, 0, 50, 95
2, 183360, Note_off_c, 0, 45, 95
2, 183360, Note_off_c, 0, 42, 95
2, 183360, Note_on_c, 0, 66, 95
2, 183360, Note_on_c, 0, 62, 95
2, 183360, Note_on_c, 0, 57, 95
2, 183360, Note_on_c, 0, 50, 95
2, 183360, Note_on_c, 0, 45, 95
2, 183360, Note_on_c, 0, 42, 95
2, 183840, Note_off_c, 0, 66, 95
2, 183840, Note_off_c, 0, 62, 95
2, 183840, Note_off_c, 0, 57, 95
2, 183840, Note_off_c, 0, 50, 95
2, 183840, Note_off_c, 0, 45, 95
2, 183840, Note_off_c, 0, 42, 95
2, 183840, Note_on_c, 0, 66, 95
2, 183840, Note_on_c, 0, 62, 95
2, 183840, Note_on_c, 0, 57, 95
2, 183840, Note_on_c, 0, 50, 95
2, 183840, Note_on_c, 0, 45, 95
2, 183840, Note_on_c, 0, 42, 95
2, 184320, Note_off_c, 0, 66, 95
2, 184320, Note_off_c, 0, 62, 95
2, 184320, Note_off_c, 0, 57, 95
2, 184320, Note_off_c, 0, 50, 95
2, 184320, Note_off_c, 0, 45, 95
2, 184320, Note_off_c, 0, 42, 95
2, 184320, Note_on_c, 0, 66, 95
2, 184320, Note_on_c, 0, 62, 95
2, 184320, Note_on_c, 0, 57, 95
2, 184320, Note_on_c, 0, 50, 95
2, 184320, Note_on_c, 0, 45, 95
2, 185280, Note_off_c, 0, 66, 95
2, 185280, Note_off_c, 0, 62, 95
2, 185280, Note_off_c, 0, 57, 95
2, 185280, Note_off_c, 0, 50, 95
2, 185280, Note_off_c, 0, 45, 95
2, 185280, Note_on_c, 0, 66, 95
2, 185280, Note_on_c, 0, 62, 95
2, 185280, Note_on_c, 0, 57, 95
2, 185280, Note_on_c, 0, 50, 95
2, 185280, Note_on_c, 0, 45, 95
2, 185760, Note_off_c, 0, 66, 95
2, 185760, Note_off_c, 0, 62, 95
2, 185760, Note_off_c, 0, 57, 95
2, 185760, Note_off_c, 0, 50, 95
2, 185760, Note_off_c, 0, 45, 95
2, 185760, Note_on_c, 0, 66, 95
2, 185760, Note_on_c, 0, 62, 95
2, 185760, Note_on_c, 0, 57, 95
2, 185760, Note_on_c, 0, 50, 95
2, 185760, Note_on_c, 0, 45, 95
2, 186720, Note_off_c, 0, 66, 95
2, 186720, Note_off_c, 0, 62, 95
2, 186720, Note_off_c, 0, 57, 95
2, 186720, Note_off_c, 0, 50, 95
2, 186720, Note_off_c, 0, 45, 95
2, 186720, Note_on_c, 0, 66, 95
2, 186720, Note_on_c, 0, 62, 95
2, 186720, Note_on_c, 0, 57, 95
2, 186720, Note_on_c, 0, 50, 95
2, 186720, Note_on_c, 0, 45, 95
2, 187200, Note_off_c, 0, 66, 95
2, 187200, Note_off_c, 0, 62, 95
2, 187200, Note_off_c, 0, 57, 95
2, 187200, Note_off_c, 0, 50, 95
2, 187200, Note_off_c, 0, 45, 95
2, 187200, Note_on_c, 0, 66, 95
2, 187200, Note_on_c, 0, 62, 95
2, 187200, Note_on_c, 0, 57, 95
2, 187200, Note_on_c, 0, 50, 95
2, 187200, Note_on_c, 0, 45, 95
2, 188160, Note_off_c, 0, 66, 95
2, 188160, Note_off_c, 0, 62, 95
2, 188160, Note_off_c, 0, 57, 95
2, 188160, Note_off_c, 0, 50, 95
2, 188160, Note_off_c, 0, 45, 95
2, 188160, Note_on_c, 0, 64, 95
2, 188160, Note_on_c, 0, 61, 95
2, 188160, Note_on_c, 0, 57, 95
2, 188160, Note_on_c, 0, 52, 95
2, 188160, Note_on_c, 0, 45, 95
2, 188160, Note_on_c, 0, 40, 95
2, 189120, Note_off_c, 0, 64, 95
2, 189120, Note_off_c, 0, 61, 95
2, 189120, Note_off_c, 0, 57, 95
2, 189120, Note_off_c, 0, 52, 95
2, 189120, Note_off_c, 0, 45, 95
2, 189120, Note_off_c, 0, 40, 95
2, 189120, Note_on_c, 0, 64, 95
2, 189120, Note_on_c, 0, 61, 95
2, 189120, Note_on_c, 0, 57, 95
2, 189120, Note_on_c, 0, 52, 95
2, 189120, Note_on_c, 0, 45, 95
2, 189120, Note_on_c, 0, 40, 95
2, 189600, Note_off_c, 0, 64, 95
2, 189600, Note_off_c, 0, 61, 95
2, 189600, Note_off_c, 0, 57, 95
2, 189600, Note_off_c, 0, 52, 95
2, 189600, Note_off_c, 0, 45, 95
2, 189600, Note_off_c, 0, 40, 95
2, 189600, Note_on_c, 0, 64, 95
2, 189600, Note_on_c, 0, 61, 95
2, 189600, Note_on_c, 0, 57, 95
2, 189600, Note_on_c, 0, 52, 95
2, 189600, Note_on_c, 0, 45, 95
2, 189600, Note_on_c, 0, 40, 95
2, 190560, Note_off_c, 0, 64, 95
2, 190560, Note_off_c, 0, 61, 95
2, 190560, Note_off_c, 0, 57, 95
2, 190560, Note_off_c, 0, 52, 95
2, 190560, Note_off_c, 0, 45, 95
2, 190560, Note_off_c, 0, 40, 95
2, 190560, Note_on_c, 0, 64, 95
2, 190560, Note_on_c, 0, 61, 95
2, 190560, Note_on_c, 0, 57, 95
2, 190560, Note_on_c, 0, 52, 95
2, 190560, Note_on_c, 0, 45, 95
2, 190560, Note_on_c, 0, 40, 95
2, 191520, Note_off_c, 0, 64, 95
2, 191520, Note_off_c, 0, 61, 95
2, 191520, Note_off_c, 0, 57, 95
2, 191520, Note_off_c, 0, 52, 95
2, 191520, Note_off_c, 0, 45, 95
2, 191520, Note_off_c, 0, 40, 95
2, 191520, Note_on_c, 0, 64, 95
2, 191520, Note_on_c, 0, 61, 95
2, 191520, Note_on_c, 0, 57, 95
2, 191520, Note_on_c, 0, 52, 95
2, 191520, Note_on_c, 0, 45, 95
2, 191520, Note_on_c, 0, 40, 95
2, 192000, Note_off_c, 0, 64, 95
2, 192000, Note_off_c, 0, 61, 95
2, 192000, Note_off_c, 0, 57, 95
2, 192000, Note_off_c, 0, 52, 95
2, 192000, Note_off_c, 0, 45, 95
2, 192000, Note_off_c, 0, 40, 95
2, 192000, Note_on_c, 0, 64, 95
2, 192000, Note_on_c, 0, 61, 95
2, 192000, Note_on_c, 0, 57, 95
2, 192000, Note_on_c, 0, 52, 95
2, 192000, Note_on_c, 0, 45, 95
2, 192000, Note_on_c, 0, 40, 95
2, 192960, Note_off_c, 0, 64, 95
2, 192960, Note_off_c, 0, 61, 95
2, 192960, Note_off_c, 0, 57, 95
2, 192960, Note_off_c, 0, 52, 95
2, 192960, Note_off_c, 0, 45, 95
2, 192960, Note_off_c, 0, 40, 95
2, 192960, Note_on_c, 0, 64, 95
2, 192960, Note_on_c, 0, 61, 95
2, 192960, Note_on_c, 0, 57, 95
2, 192960, Note_on_c, 0, 52, 95
2, 192960, Note_on_c, 0, 45, 95
2, 192960, Note_on_c, 0, 40, 95
2, 193440, Note_off_c, 0, 64, 95
2, 193440, Note_off_c, 0, 61, 95
2, 193440, Note_off_c, 0, 57, 95
2, 193440, Note_off_c, 0, 52, 95
2, 193440, Note_off_c, 0, 45, 95
2, 193440, Note_off_c, 0, 40, 95
2, 193440, Note_on_c, 0, 64, 95
2, 193440, Note_on_c, 0, 61, 95
2, 193440, Note_on_c, 0, 57, 95
2, 193440, Note_on_c, 0, 52, 95
2, 193440, Note_on_c, 0, 45, 95
2, 193440, Note_on_c, 0, 40, 95
2, 194400, Note_off_c, 0, 64, 95
2, 194400, Note_off_c, 0, 61, 95
2, 194400, Note_off_c, 0, 57, 95
2, 194400, Note_off_c, 0, 52, 95
2, 194400, Note_off_c, 0, 45, 95
2, 194400, Note_off_c, 0, 40, 95
2, 194400, Note_on_c, 0, 64, 95
2, 194400, Note_on_c, 0, 61, 95
2, 194400, Note_on_c, 0, 57, 95
2, 194400, Note_on_c, 0, 52, 95
2, 194400, Note_on_c, 0, 45, 95
2, 194400, Note_on_c, 0, 40, 95
2, 194880, Note_off_c, 0, 64, 95
2, 194880, Note_off_c, 0, 61, 95
2, 194880, Note_off_c, 0, 57, 95
2, 194880, Note_off_c, 0, 52, 95
2, 194880, Note_off_c, 0, 45, 95
2, 194880, Note_off_c, 0, 40, 95
2, 194880, Note_on_c, 0, 64, 95
2, 194880, Note_on_c, 0, 61, 95
2, 194880, Note_on_c, 0, 57, 95
2, 194880, Note_on_c, 0, 52, 95
2, 194880, Note_on_c, 0, 45, 95
2, 194880, Note_on_c, 0, 40, 95
2, 195840, Note_off_c, 0, 64, 95
2, 195840, Note_off_c, 0, 61, 95
2, 195840, Note_off_c, 0, 57, 95
2, 195840, Note_off_c, 0, 52, 95
2, 195840, Note_off_c, 0, 45, 95
2, 195840, Note_off_c, 0, 40, 95
2, 195840, Note_on_c, 0, 66, 95
2, 195840, Note_on_c, 0, 62, 95
2, 195840, Note_on_c, 0, 57, 95
2, 195840, Note_on_c, 0, 50, 95
2, 195840, Note_on_c, 0, 45, 95
2, 195840, Note_on_c, 0, 42, 95
2, 197280, Note_off_c, 0, 66, 95
2, 197280, Note_off_c, 0, 62, 95
2, 197280, Note_off_c, 0, 57, 95
2, 197280, Note_off_c, 0, 50, 95
2, 197280, Note_off_c, 0, 45, 95
2, 197280, Note_off_c, 0, 42, 95
2, 197280, Note_on_c, 0, 66, 95
2, 197280, Note_on_c, 0, 62, 95
2, 197280, Note_on_c, 0, 57, 95
2, 197280, Note_on_c, 0, 50, 95
2, 197280, Note_on_c, 0, 45, 95
2, 197280, Note_on_c, 0, 42, 95
2, 198240, Note_off_c, 0, 66, 95
2, 198240, Note_off_c, 0, 62, 95
2, 198240, Note_off_c, 0, 57, 95
2, 198240, Note_off_c, 0, 50, 95
2, 198240, Note_off_c, 0, 45, 95
2, 198240, Note_off_c, 0, 42, 95
2, 198240, Note_on_c, 0, 66, 95
2, 198240, Note_on_c, 0, 62, 95
2, 198240, Note_on_c, 0, 57, 95
2, 198240, Note_on_c, 0, 50, 95
2, 198240, Note_on_c, 0, 45, 95
2, 198240, Note_on_c, 0, 42, 95
2, 198720, Note_off_c, 0, 66, 95
2, 198720, Note_off_c, 0, 62, 95
2, 198720, Note_off_c, 0, 57, 95
2, 198720, Note_off_c, 0, 50, 95
2, 198720, Note_off_c, 0, 45, 95
2, 198720, Note_off_c, 0, 42, 95
2, 198720, Note_on_c, 0, 66, 95
2, 198720, Note_on_c, 0, 62, 95
2, 198720, Note_on_c, 0, 57, 95
2, 198720, Note_on_c, 0, 50, 95
2, 198720, Note_on_c, 0, 45, 95
2, 198720, Note_on_c, 0, 42, 95
2, 199200, Note_off_c, 0, 66, 95
2, 199200, Note_off_c, 0, 62, 95
2, 199200, Note_off_c, 0, 57, 95
2, 199200, Note_off_c, 0, 50, 95
2, 199200, Note_off_c, 0, 45, 95
2, 199200, Note_off_c, 0, 42, 95
2, 199200, Note_on_c, 0, 66, 95
2, 199200, Note_on_c, 0, 62, 95
2, 199200, Note_on_c, 0, 57, 95
2, 199200, Note_on_c, 0, 50, 95
2, 199200, Note_on_c, 0, 45, 95
2, 199200, Note_on_c, 0, 42, 95
2, 199680, Note_off_c, 0, 66, 95
2, 199680, Note_off_c, 0, 62, 95
2, 199680, Note_off_c, 0, 57, 95
2, 199680, Note_off_c, 0, 50, 95
2, 199680, Note_off_c, 0, 45, 95
2, 199680, Note_off_c, 0, 42, 95
2, 199680, Note_on_c, 0, 66, 95
2, 199680, Note_on_c, 0, 62, 95
2, 199680, Note_on_c, 0, 57, 95
2, 199680, Note_on_c, 0, 50, 95
2, 199680, Note_on_c, 0, 45, 95
2, 200640, Note_off_c, 0, 66, 95
2, 200640, Note_off_c, 0, 62, 95
2, 200640, Note_off_c, 0, 57, 95
2, 200640, Note_off_c, 0, 50, 95
2, 200640, Note_off_c, 0, 45, 95
2, 200640, Note_on_c, 0, 66, 95
2, 200640, Note_on_c, 0, 62, 95
2, 200640, Note_on_c, 0, 57, 95
2, 200640, Note_on_c, 0, 50, 95
2, 200640, Note_on_c, 0, 45, 95
2, 201120, Note_off_c, 0, 66, 95
2, 201120, Note_off_c, 0, 62, 95
2, 201120, Note_off_c, 0, 57, 95
2, 201120, Note_off_c, 0, 50, 95
2, 201120, Note_off_c, 0, 45, 95
2, 201120, Note_on_c, 0, 66, 95
2, 201120, Note_on_c, 0, 62, 95
2, 201120, Note_on_c, 0, 57, 95
2, 201120, Note_on_c, 0, 50, 95
2, 201120, Note_on_c, 0, 45, 95
2, 202080, Note_off_c, 0, 66, 95
2, 202080, Note_off_c, 0, 62, 95
2, 202080, Note_off_c, 0, 57, 95
2, 202080, Note_off_c, 0, 50, 95
2, 202080, Note_off_c, 0, 45, 95
2, 202080, Note_on_c, 0, 66, 95
2, 202080, Note_on_c, 0, 62, 95
2, 202080, Note_on_c, 0, 57, 95
2, 202080, Note_on_c, 0, 50, 95
2, 202080, Note_on_c, 0, 45, 95
2, 202560, Note_off_c, 0, 66, 95
2, 202560, Note_off_c, 0, 62, 95
2, 202560, Note_off_c, 0, 57, 95
2, 202560, Note_off_c, 0, 50, 95
2, 202560, Note_off_c, 0, 45, 95
2, 202560, Note_on_c, 0, 66, 95
2, 202560, Note_on_c, 0, 62, 95
2, 202560, Note_on_c, 0, 57, 95
2, 202560, Note_on_c, 0, 50, 95
2, 202560, Note_on_c, 0, 45, 95
2, 203520, Note_off_c, 0, 66, 95
2, 203520, Note_off_c, 0, 62, 95
2, 203520, Note_off_c, 0, 57, 95
2, 203520, Note_off_c, 0, 50, 95
2, 203520, Note_off_c, 0, 45, 95
2, 203520, Note_on_c, 0, 64, 95
2, 203520, Note_on_c, 0, 61, 95
2, 203520, Note_on_c, 0, 57, 95
2, 203520, Note_on_c, 0, 52, 95
2, 203520, Note_on_c, 0, 45, 95
2, 203520, Note_on_c, 0, 40, 95
2, 204480, Note_off_c, 0, 64, 95
2, 204480, Note_off_c, 0, 61, 95
2, 204480, Note_off_c, 0, 57, 95
2, 204480, Note_off_c, 0, 52, 95
2, 204480, Note_off_c, 0, 45, 95
2, 204480, Note_off_c, 0, 40, 95
2, 204480, Note_on_c, 0, 64, 95
2, 204480, Note_on_c, 0, 61, 95
2, 204480, Note_on_c, 0, 57, 95
2, 204480, Note_on_c, 0, 52, 95
2, 204480, Note_on_c, 0, 45, 95
2, 204480, Note_on_c, 0, 40, 95
2, 204960, Note_off_c, 0, 64, 95
2, 204960, Note_off_c, 0, 61, 95
2, 204960, Note_off_c, 0, 57, 95
2, 204960, Note_off_c, 0, 52, 95
2, 204960, Note_off_c, 0, 45, 95
2, 204960, Note_off_c, 0, 40, 95
2, 204960, Note_on_c, 0, 64, 95
2, 204960, Note_on_c, 0, 61, 95
2, 204960, Note_on_c, 0, 57, 95
2, 204960, Note_on_c, 0, 52, 95
2, 204960, Note_on_c, 0, 45, 95
2, 204960, Note_on_c, 0, 40, 95
2, 205920, Note_off_c, 0, 64, 95
2, 205920, Note_off_c, 0, 61, 95
2, 205920, Note_off_c, 0, 57, 95
2, 205920, Note_off_c, 0, 52, 95
2, 205920, Note_off_c, 0, 45, 95
2, 205920, Note_off_c, 0, 40, 95
2, 205920, Note_on_c, 0, 64, 95
2, 205920, Note_on_c, 0, 61, 95
2, 205920, Note_on_c, 0, 57, 95
2, 205920, Note_on_c, 0, 52, 95
2, 205920, Note_on_c, 0, 45, 95
2, 205920, Note_on_c, 0, 40, 95
2, 206880, Note_off_c, 0, 64, 95
2, 206880, Note_off_c, 0, 61, 95
2, 206880, Note_off_c, 0, 57, 95
2, 206880, Note_off_c, 0, 52, 95
2, 206880, Note_off_c, 0, 45, 95
2, 206880, Note_off_c, 0, 40, 95
2, 206880, Note_on_c, 0, 64, 95
2, 206880, Note_on_c, 0, 61, 95
2, 206880, Note_on_c, 0, 57, 95
2, 206880, Note_on_c, 0, 52, 95
2, 206880, Note_on_c, 0, 45, 95
2, 206880, Note_on_c, 0, 40, 95
2, 207360, Note_off_c, 0, 64, 95
2, 207360, Note_off_c, 0, 61, 95
2, 207360, Note_off_c, 0, 57, 95
2, 207360, Note_off_c, 0, 52, 95
2, 207360, Note_off_c, 0, 45, 95
2, 207360, Note_off_c, 0, 40, 95
2, 207360, Note_on_c, 0, 64, 95
2, 207360, Note_on_c, 0, 61, 95
2, 207360, Note_on_c, 0, 57, 95
2, 207360, Note_on_c, 0, 52, 95
2, 207360, Note_on_c, 0, 45, 95
2, 207360, Note_on_c, 0, 40, 95
2, 208320, Note_off_c, 0, 64, 95
2, 208320, Note_off_c, 0, 61, 95
2, 208320, Note_off_c, 0, 57, 95
2, 208320, Note_off_c, 0, 52, 95
2, 208320, Note_off_c, 0, 45, 95
2, 208320, Note_off_c, 0, 40, 95
2, 208320, Note_on_c, 0, 64, 95
2, 208320, Note_on_c, 0, 61, 95
2, 208320, Note_on_c, 0, 57, 95
2, 208320, Note_on_c, 0, 52, 95
2, 208320, Note_on_c, 0, 45, 95
2, 208320, Note_on_c, 0, 40, 95
2, 208800, Note_off_c, 0, 64, 95
2, 208800, Note_off_c, 0, 61, 95
2, 208800, Note_off_c, 0, 57, 95
2, 208800, Note_off_c, 0, 52, 95
2, 208800, Note_off_c, 0, 45, 95
2, 208800, Note_off_c, 0, 40, 95
2, 208800, Note_on_c, 0, 64, 95
2, 208800, Note_on_c, 0, 61, 95
2, 208800, Note_on_c, 0, 57, 95
2, 208800, Note_on_c, 0, 52, 95
2, 208800, Note_on_c, 0, 45, 95
2, 208800, Note_on_c, 0, 40, 95
2, 209760, Note_off_c, 0, 64, 95
2, 209760, Note_off_c, 0, 61, 95
2, 209760, Note_off_c, 0, 57, 95
2, 209760, Note_off_c, 0, 52, 95
2, 209760, Note_off_c, 0, 45, 95
2, 209760, Note_off_c, 0, 40, 95
2, 209760, Note_on_c, 0, 64, 95
2, 209760, Note_on_c, 0, 61, 95
2, 209760, Note_on_c, 0, 57, 95
2, 209760, Note_on_c, 0, 52, 95
2, 209760, Note_on_c, 0, 45, 95
2, 209760, Note_on_c, 0, 40, 95
2, 210240, Note_off_c, 0, 64, 95
2, 210240, Note_off_c, 0, 61, 95
2, 210240, Note_off_c, 0, 57, 95
2, 210240, Note_off_c, 0, 52, 95
2, 210240, Note_off_c, 0, 45, 95
2, 210240, Note_off_c, 0, 40, 95
2, 210240, Note_on_c, 0, 64, 95
2, 210240, Note_on_c, 0, 61, 95
2, 210240, Note_on_c, 0, 57, 95
2, 210240, Note_on_c, 0, 52, 95
2, 210240, Note_on_c, 0, 45, 95
2, 210240, Note_on_c, 0, 40, 95
2, 211200, Note_off_c, 0, 64, 95
2, 211200, Note_off_c, 0, 61, 95
2, 211200, Note_off_c, 0, 57, 95
2, 211200, Note_off_c, 0, 52, 95
2, 211200, Note_off_c, 0, 45, 95
2, 211200, Note_off_c, 0, 40, 95
2, 211200, Note_on_c, 0, 66, 95
2, 211200, Note_on_c, 0, 62, 95
2, 211200, Note_on_c, 0, 57, 95
2, 211200, Note_on_c, 0, 50, 95
2, 211200, Note_on_c, 0, 45, 95
2, 211200, Note_on_c, 0, 42, 95
2, 212640, Note_off_c, 0, 66, 95
2, 212640, Note_off_c, 0, 62, 95
2, 212640, Note_off_c, 0, 57, 95
2, 212640, Note_off_c, 0, 50, 95
2, 212640, Note_off_c, 0, 45, 95
2, 212640, Note_off_c, 0, 42, 95
2, 212640, Note_on_c, 0, 66, 95
2, 212640, Note_on_c, 0, 62, 95
2, 212640, Note_on_c, 0, 57, 95
2, 212640, Note_on_c, 0, 50, 95
2, 212640, Note_on_c, 0, 45, 95
2, 212640, Note_on_c, 0, 42, 95
2, 213600, Note_off_c, 0, 66, 95
2, 213600, Note_off_c, 0, 62, 95
2, 213600, Note_off_c, 0, 57, 95
2, 213600, Note_off_c, 0, 50, 95
2, 213600, Note_off_c, 0, 45, 95
2, 213600, Note_off_c, 0, 42, 95
2, 213600, Note_on_c, 0, 66, 95
2, 213600, Note_on_c, 0, 62, 95
2, 213600, Note_on_c, 0, 57, 95
2, 213600, Note_on_c, 0, 50, 95
2, 213600, Note_on_c, 0, 45, 95
2, 213600, Note_on_c, 0, 42, 95
2, 214080, Note_off_c, 0, 66, 95
2, 214080, Note_off_c, 0, 62, 95
2, 214080, Note_off_c, 0, 57, 95
2, 214080, Note_off_c, 0, 50, 95
2, 214080, Note_off_c, 0, 45, 95
2, 214080, Note_off_c, 0, 42, 95
2, 214080, Note_on_c, 0, 66, 95
2, 214080, Note_on_c, 0, 62, 95
2, 214080, Note_on_c, 0, 57, 95
2, 214080, Note_on_c, 0, 50, 95
2, 214080, Note_on_c, 0, 45, 95
2, 214080, Note_on_c, 0, 42, 95
2, 214560, Note_off_c, 0, 66, 95
2, 214560, Note_off_c, 0, 62, 95
2, 214560, Note_off_c, 0, 57, 95
2, 214560, Note_off_c, 0, 50, 95
2, 214560, Note_off_c, 0, 45, 95
2, 214560, Note_off_c, 0, 42, 95
2, 214560, Note_on_c, 0, 66, 95
2, 214560, Note_on_c, 0, 62, 95
2, 214560, Note_on_c, 0, 57, 95
2, 214560, Note_on_c, 0, 50, 95
2, 214560, Note_on_c, 0, 45, 95
2, 214560, Note_on_c, 0, 42, 95
2, 215040, Note_off_c, 0, 66, 95
2, 215040, Note_off_c, 0, 62, 95
2, 215040, Note_off_c, 0, 57, 95
2, 215040, Note_off_c, 0, 50, 95
2, 215040, Note_off_c, 0, 45, 95
2, 215040, Note_off_c, 0, 42, 95
2, 215040, Note_on_c, 0, 66, 95
2, 215040, Note_on_c, 0, 62, 95
2, 215040, Note_on_c, 0, 57, 95
2, 215040, Note_on_c, 0, 50, 95
2, 215040, Note_on_c, 0, 45, 95
2, 216000, Note_off_c, 0, 66, 95
2, 216000, Note_off_c, 0, 62, 95
2, 216000, Note_off_c, 0, 57, 95
2, 216000, Note_off_c, 0, 50, 95
2, 216000, Note_off_c, 0, 45, 95
2, 216000, Note_on_c, 0, 66, 95
2, 216000, Note_on_c, 0, 62, 95
2, 216000, Note_on_c, 0, 57, 95
2, 216000, Note_on_c, 0, 50, 95
2, 216000, Note_on_c, 0, 45, 95
2, 216480, Note_off_c, 0, 66, 95
2, 216480, Note_off_c, 0, 62, 95
2, 216480, Note_off_c, 0, 57, 95
2, 216480, Note_off_c, 0, 50, 95
2, 216480, Note_off_c, 0, 45, 95
2, 216480, Note_on_c, 0, 66, 95
2, 216480, Note_on_c, 0, 62, 95
2, 216480, Note_on_c, 0, 57, 95
2, 216480, Note_on_c, 0, 50, 95
2, 216480, Note_on_c, 0, 45, 95
2, 217440, Note_off_c, 0, 66, 95
2, 217440, Note_off_c, 0, 62, 95
2, 217440, Note_off_c, 0, 57, 95
2, 217440, Note_off_c, 0, 50, 95
2, 217440, Note_off_c, 0, 45, 95
2, 217440, Note_on_c, 0, 66, 95
2, 217440, Note_on_c, 0, 62, 95
2, 217440, Note_on_c, 0, 57, 95
2, 217440, Note_on_c, 0, 50, 95
2, 217440, Note_on_c, 0, 45, 95
2, 217920, Note_off_c, 0, 66, 95
2, 217920, Note_off_c, 0, 62, 95
2, 217920, Note_off_c, 0, 57, 95
2, 217920, Note_off_c, 0, 50, 95
2, 217920, Note_off_c, 0, 45, 95
2, 217920, Note_on_c, 0, 66, 95
2, 217920, Note_on_c, 0, 62, 95
2, 217920, Note_on_c, 0, 57, 95
2, 217920, Note_on_c, 0, 50, 95
2, 217920, Note_on_c, 0, 45, 95
2, 218880, Note_off_c, 0, 66, 95
2, 218880, Note_off_c, 0, 62, 95
2, 218880, Note_off_c, 0, 57, 95
2, 218880, Note_off_c, 0, 50, 95
2, 218880, Note_off_c, 0, 45, 95
2, 218880, Note_on_c, 0, 40, 95
2, 221280, Note_off_c, 0, 40, 95
2, 221280, Note_on_c, 0, 61, 95
2, 221760, Note_off_c, 0, 61, 95
2, 221760, Note_on_c, 0, 57, 95
2, 221760, Note_on_c, 0, 52, 95
2, 221760, Note_on_c, 0, 45, 95
2, 222240, Note_off_c, 0, 57, 95
2, 222240, Note_off_c, 0, 52, 95
2, 222240, Note_off_c, 0, 45, 95
2, 222240, Note_on_c, 0, 64, 95
2, 222240, Note_on_c, 0, 61, 95
2, 222240, Note_on_c, 0, 57, 95
2, 222720, Note_off_c, 0, 64, 95
2, 222720, Note_off_c, 0, 61, 95
2, 222720, Note_off_c, 0, 57, 95
2, 222720, Note_on_c, 0, 52, 95
2, 222720, Note_on_c, 0, 45, 95
2, 223680, Note_off_c, 0, 52, 95
2, 223680, Note_off_c, 0, 45, 95
2, 223680, Note_on_c, 0, 61, 95
2, 223680, Note_on_c, 0, 57, 95
2, 223680, Note_on_c, 0, 52, 95
2, 223680, Note_on_c, 0, 45, 95
2, 224160, Note_off_c, 0, 61, 95
2, 224160, Note_off_c, 0, 57, 95
2, 224160, Note_off_c, 0, 52, 95
2, 224160, Note_off_c, 0, 45, 95
2, 224160, Note_on_c, 0, 64, 95
2, 224160, Note_on_c, 0, 61, 95
2, 224160, Note_on_c, 0, 57, 95
2, 224640, Note_off_c, 0, 64, 95
2, 224640, Note_off_c, 0, 61, 95
2, 224640, Note_off_c, 0, 57, 95
2, 224640, Note_on_c, 0, 45, 95
2, 224640, Note_on_c, 0, 40, 95
2, 225120, Note_off_c, 0, 45, 95
2, 225120, Note_off_c, 0, 40, 95
2, 225120, Note_on_c, 0, 64, 95
2, 225120, Note_on_c, 0, 61, 95
2, 225120, Note_on_c, 0, 57, 95
2, 225600, Note_off_c, 0, 64, 95
2, 225600, Note_off_c, 0, 61, 95
2, 225600, Note_off_c, 0, 57, 95
2, 225600, Note_on_c, 0, 57, 95
2, 225600, Note_on_c, 0, 50, 95
2, 226080, Note_off_c, 0, 57, 95
2, 226080, Note_off_c, 0, 50, 95
2, 226080, Note_on_c, 0, 55, 95
2, 226560, Note_off_c, 0, 55, 95
2, 226560, Note_on_c, 0, 45, 95
2, 226560, Note_on_c, 0, 42, 95
2, 228000, Note_off_c, 0, 45, 95
2, 228000, Note_off_c, 0, 42, 95
2, 228000, Note_on_c, 0, 66, 95
2, 228000, Note_on_c, 0, 62, 95
2, 228000, Note_on_c, 0, 57, 95
2, 228000, Note_on_c, 0, 50, 95
2, 229440, Note_off_c, 0, 66, 95
2, 229440, Note_off_c, 0, 62, 95
2, 229440, Note_off_c, 0, 57, 95
2, 229440, Note_off_c, 0, 50, 95
2, 229440, Note_on_c, 0, 62, 95
2, 229440, Note_on_c, 0, 57, 95
2, 229920, Note_off_c, 0, 62, 95
2, 229920, Note_off_c, 0, 57, 95
2, 229920, Note_on_c, 0, 62, 95
2, 229920, Note_on_c, 0, 57, 95
2, 230400, Note_off_c, 0, 62, 95
2, 230400, Note_off_c, 0, 57, 95
2, 230400, Note_on_c, 0, 62, 95
2, 230400, Note_on_c, 0, 57, 95
2, 230400, Note_on_c, 0, 50, 95
2, 230400, Note_on_c, 0, 45, 95
2, 231360, Note_off_c, 0, 62, 95
2, 231360, Note_off_c, 0, 57, 95
2, 231360, Note_off_c, 0, 50, 95
2, 231360, Note_off_c, 0, 45, 95
2, 231360, Note_on_c, 0, 66, 95
2, 231360, Note_on_c, 0, 62, 95
2, 231360, Note_on_c, 0, 57, 95
2, 231360, Note_on_c, 0, 50, 95
2, 231360, Note_on_c, 0, 45, 95
2, 231840, Note_off_c, 0, 66, 95
2, 231840, Note_off_c, 0, 62, 95
2, 231840, Note_off_c, 0, 57, 95
2, 231840, Note_off_c, 0, 50, 95
2, 231840, Note_off_c, 0, 45, 95
2, 231840, Note_on_c, 0, 66, 95
2, 231840, Note_on_c, 0, 62, 95
2, 232320, Note_off_c, 0, 66, 95
2, 232320, Note_off_c, 0, 62, 95
2, 232320, Note_on_c, 0, 62, 95
2, 232320, Note_on_c, 0, 57, 95
2, 232320, Note_on_c, 0, 50, 95
2, 232320, Note_on_c, 0, 45, 95
2, 232800, Note_off_c, 0, 62, 95
2, 232800, Note_off_c, 0, 57, 95
2, 232800, Note_off_c, 0, 50, 95
2, 232800, Note_off_c, 0, 45, 95
2, 232800, Note_on_c, 0, 66, 95
2, 232800, Note_on_c, 0, 62, 95
2, 232800, Note_on_c, 0, 57, 95
2, 233280, Note_off_c, 0, 66, 95
2, 233280, Note_off_c, 0, 62, 95
2, 233280, Note_off_c, 0, 57, 95
2, 233280, Note_on_c, 0, 66, 95
2, 233280, Note_on_c, 0, 62, 95
2, 233280, Note_on_c, 0, 57, 95
2, 233280, Note_on_c, 0, 50, 95
2, 233280, Note_on_c, 0, 45, 95
2, 233760, Note_off_c, 0, 66, 95
2, 233760, Note_off_c, 0, 62, 95
2, 233760, Note_off_c, 0, 57, 95
2, 233760, Note_off_c, 0, 50, 95
2, 233760, Note_off_c, 0, 45, 95
2, 233760, Note_on_c, 0, 50, 95
2, 233760, Note_on_c, 0, 45, 95
2, 234240, Note_off_c, 0, 50, 95
2, 234240, Note_off_c, 0, 45, 95
2, 234240, Note_on_c, 0, 45, 95
2, 234240, Note_on_c, 0, 40, 95
2, 235200, Note_off_c, 0, 45, 95
2, 235200, Note_off_c, 0, 40, 95
2, 235200, Note_on_c, 0, 61, 95
2, 235680, Note_off_c, 0, 61, 95
2, 235680, Note_on_c, 0, 64, 95
2, 235680, Note_on_c, 0, 61, 95
2, 235680, Note_on_c, 0, 57, 95
2, 236640, Note_off_c, 0, 64, 95
2, 236640, Note_off_c, 0, 61, 95
2, 236640, Note_off_c, 0, 57, 95
2, 236640, Note_on_c, 0, 64, 95
2, 236640, Note_on_c, 0, 61, 95
2, 236640, Note_on_c, 0, 57, 95
2, 237120, Note_off_c, 0, 64, 95
2, 237120, Note_off_c, 0, 61, 95
2, 237120, Note_off_c, 0, 57, 95
2, 237120, Note_on_c, 0, 64, 95
2, 237120, Note_on_c, 0, 61, 95
2, 237120, Note_on_c, 0, 57, 95
2, 237600, Note_off_c, 0, 64, 95
2, 237600, Note_off_c, 0, 61, 95
2, 237600, Note_off_c, 0, 57, 95
2, 237600, Note_on_c, 0, 64, 95
2, 237600, Note_on_c, 0, 61, 95
2, 237600, Note_on_c, 0, 57, 95
2, 238080, Note_off_c, 0, 64, 95
2, 238080, Note_off_c, 0, 61, 95
2, 238080, Note_off_c, 0, 57, 95
2, 238080, Note_on_c, 0, 40, 95
2, 239040, Note_off_c, 0, 40, 95
2, 239040, Note_on_c, 0, 52, 95
2, 239520, Note_off_c, 0, 52, 95
2, 239520, Note_on_c, 0, 57, 95
2, 240960, Note_off_c, 0, 57, 95
2, 240960, Note_on_c, 0, 52, 95
2, 240960, Note_on_c, 0, 45, 95
2, 241440, Note_off_c, 0, 52, 95
2, 241440, Note_off_c, 0, 45, 95
2, 241440, Note_on_c, 0, 59, 95
2, 241440, Note_on_c, 0, 55, 95
2, 241920, Note_off_c, 0, 59, 95
2, 241920, Note_off_c, 0, 55, 95
2, 241920, Note_on_c, 0, 45, 95
2, 241920, Note_on_c, 0, 42, 95
2, 242880, Note_off_c, 0, 45, 95
2, 242880, Note_off_c, 0, 42, 95
2, 242880, Note_on_c, 0, 57, 95
2, 243360, Note_off_c, 0, 57, 95
2, 243360, Note_on_c, 0, 66, 95
2, 243360, Note_on_c, 0, 62, 95
2, 243360, Note_on_c, 0, 57, 95
2, 245760, Note_off_c, 0, 66, 95
2, 245760, Note_off_c, 0, 62, 95
2, 245760, Note_off_c, 0, 57, 95
2, 245760, Note_on_c, 0, 50, 95
2, 245760, Note_on_c, 0, 45, 95
2, 246720, Note_off_c, 0, 50, 95
2, 246720, Note_off_c, 0, 45, 95
2, 246720, Note_on_c, 0, 57, 95
2, 246720, Note_on_c, 0, 50, 95
2, 246720, Note_on_c, 0, 45, 95
2, 247200, Note_off_c, 0, 57, 95
2, 247200, Note_off_c, 0, 50, 95
2, 247200, Note_off_c, 0, 45, 95
2, 247200, Note_on_c, 0, 62, 95
2, 247200, Note_on_c, 0, 57, 95
2, 247200, Note_on_c, 0, 50, 95
2, 247200, Note_on_c, 0, 45, 95
2, 247680, Note_off_c, 0, 62, 95
2, 247680, Note_off_c, 0, 57, 95
2, 247680, Note_off_c, 0, 50, 95
2, 247680, Note_off_c, 0, 45, 95
2, 247680, Note_on_c, 0, 66, 95
2, 247680, Note_on_c, 0, 62, 95
2, 247680, Note_on_c, 0, 57, 95
2, 247680, Note_on_c, 0, 50, 95
2, 247680, Note_on_c, 0, 45, 95
2, 248640, Note_off_c, 0, 66, 95
2, 248640, Note_off_c, 0, 62, 95
2, 248640, Note_off_c, 0, 57, 95
2, 248640, Note_off_c, 0, 50, 95
2, 248640, Note_off_c, 0, 45, 95
2, 248640, Note_on_c, 0, 66, 95
2, 248640, Note_on_c, 0, 62, 95
2, 248640, Note_on_c, 0, 57, 95
2, 248640, Note_on_c, 0, 50, 95
2, 248640, Note_on_c, 0, 45, 95
2, 249120, Note_off_c, 0, 66, 95
2, 249120, Note_off_c, 0, 62, 95
2, 249120, Note_off_c, 0, 57, 95
2, 249120, Note_off_c, 0, 50, 95
2, 249120, Note_off_c, 0, 45, 95
2, 249600, Note_on_c, 0, 64, 95
2, 249600, Note_on_c, 0, 61, 95
2, 249600, Note_on_c, 0, 57, 95
2, 249600, Note_on_c, 0, 52, 95
2, 249600, Note_on_c, 0, 45, 95
2, 249600, Note_on_c, 0, 40, 95
2, 250560, Note_off_c, 0, 64, 95
2, 250560, Note_off_c, 0, 61, 95
2, 250560, Note_off_c, 0, 57, 95
2, 250560, Note_off_c, 0, 52, 95
2, 250560, Note_off_c, 0, 45, 95
2, 250560, Note_off_c, 0, 40, 95
2, 250560, Note_on_c, 0, 64, 95
2, 250560, Note_on_c, 0, 61, 95
2, 250560, Note_on_c, 0, 57, 95
2, 250560, Note_on_c, 0, 52, 95
2, 250560, Note_on_c, 0, 45, 95
2, 250560, Note_on_c, 0, 40, 95
2, 251040, Note_off_c, 0, 64, 95
2, 251040, Note_off_c, 0, 61, 95
2, 251040, Note_off_c, 0, 57, 95
2, 251040, Note_off_c, 0, 52, 95
2, 251040, Note_off_c, 0, 45, 95
2, 251040, Note_off_c, 0, 40, 95
2, 251040, Note_on_c, 0, 64, 95
2, 251040, Note_on_c, 0, 61, 95
2, 251040, Note_on_c, 0, 57, 95
2, 251040, Note_on_c, 0, 52, 95
2, 251040, Note_on_c, 0, 45, 95
2, 251040, Note_on_c, 0, 40, 95
2, 252000, Note_off_c, 0, 64, 95
2, 252000, Note_off_c, 0, 61, 95
2, 252000, Note_off_c, 0, 57, 95
2, 252000, Note_off_c, 0, 52, 95
2, 252000, Note_off_c, 0, 45, 95
2, 252000, Note_off_c, 0, 40, 95
2, 252000, Note_on_c, 0, 64, 95
2, 252000, Note_on_c, 0, 61, 95
2, 252000, Note_on_c, 0, 57, 95
2, 252000, Note_on_c, 0, 52, 95
2, 252000, Note_on_c, 0, 45, 95
2, 252000, Note_on_c, 0, 40, 95
2, 252960, Note_off_c, 0, 64, 95
2, 252960, Note_off_c, 0, 61, 95
2, 252960, Note_off_c, 0, 57, 95
2, 252960, Note_off_c, 0, 52, 95
2, 252960, Note_off_c, 0, 45, 95
2, 252960, Note_off_c, 0, 40, 95
2, 252960, Note_on_c, 0, 64, 95
2, 252960, Note_on_c, 0, 61, 95
2, 252960, Note_on_c, 0, 57, 95
2, 252960, Note_on_c, 0, 52, 95
2, 252960, Note_on_c, 0, 45, 95
2, 252960, Note_on_c, 0, 40, 95
2, 253440, Note_off_c, 0, 64, 95
2, 253440, Note_off_c, 0, 61, 95
2, 253440, Note_off_c, 0, 57, 95
2, 253440, Note_off_c, 0, 52, 95
2, 253440, Note_off_c, 0, 45, 95
2, 253440, Note_off_c, 0, 40, 95
2, 253440, Note_on_c, 0, 64, 95
2, 253440, Note_on_c, 0, 61, 95
2, 253440, Note_on_c, 0, 57, 95
2, 253440, Note_on_c, 0, 52, 95
2, 253440, Note_on_c, 0, 45, 95
2, 253440, Note_on_c, 0, 40, 95
2, 254400, Note_off_c, 0, 64, 95
2, 254400, Note_off_c, 0, 61, 95
2, 254400, Note_off_c, 0, 57, 95
2, 254400, Note_off_c, 0, 52, 95
2, 254400, Note_off_c, 0, 45, 95
2, 254400, Note_off_c, 0, 40, 95
2, 254400, Note_on_c, 0, 64, 95
2, 254400, Note_on_c, 0, 61, 95
2, 254400, Note_on_c, 0, 57, 95
2, 254400, Note_on_c, 0, 52, 95
2, 254400, Note_on_c, 0, 45, 95
2, 254400, Note_on_c, 0, 40, 95
2, 254880, Note_off_c, 0, 64, 95
2, 254880, Note_off_c, 0, 61, 95
2, 254880, Note_off_c, 0, 57, 95
2, 254880, Note_off_c, 0, 52, 95
2, 254880, Note_off_c, 0, 45, 95
2, 254880, Note_off_c, 0, 40, 95
2, 254880, Note_on_c, 0, 64, 95
2, 254880, Note_on_c, 0, 61, 95
2, 254880, Note_on_c, 0, 57, 95
2, 254880, Note_on_c, 0, 52, 95
2, 254880, Note_on_c, 0, 45, 95
2, 254880, Note_on_c, 0, 40, 95
2, 255840, Note_off_c, 0, 64, 95
2, 255840, Note_off_c, 0, 61, 95
2, 255840, Note_off_c, 0, 57, 95
2, 255840, Note_off_c, 0, 52, 95
2, 255840, Note_off_c, 0, 45, 95
2, 255840, Note_off_c, 0, 40, 95
2, 255840, Note_on_c, 0, 64, 95
2, 255840, Note_on_c, 0, 61, 95
2, 255840, Note_on_c, 0, 57, 95
2, 255840, Note_on_c, 0, 52, 95
2, 255840, Note_on_c, 0, 45, 95
2, 255840, Note_on_c, 0, 40, 95
2, 256320, Note_off_c, 0, 64, 95
2, 256320, Note_off_c, 0, 61, 95
2, 256320, Note_off_c, 0, 57, 95
2, 256320, Note_off_c, 0, 52, 95
2, 256320, Note_off_c, 0, 45, 95
2, 256320, Note_off_c, 0, 40, 95
2, 256320, Note_on_c, 0, 64, 95
2, 256320, Note_on_c, 0, 61, 95
2, 256320, Note_on_c, 0, 57, 95
2, 256320, Note_on_c, 0, 52, 95
2, 256320, Note_on_c, 0, 45, 95
2, 256320, Note_on_c, 0, 40, 95
2, 257280, Note_off_c, 0, 64, 95
2, 257280, Note_off_c, 0, 61, 95
2, 257280, Note_off_c, 0, 57, 95
2, 257280, Note_off_c, 0, 52, 95
2, 257280, Note_off_c, 0, 45, 95
2, 257280, Note_off_c, 0, 40, 95
2, 257280, Note_on_c, 0, 66, 95
2, 257280, Note_on_c, 0, 62, 95
2, 257280, Note_on_c, 0, 57, 95
2, 257280, Note_on_c, 0, 50, 95
2, 257280, Note_on_c, 0, 45, 95
2, 257280, Note_on_c, 0, 42, 95
2, 258720, Note_off_c, 0, 66, 95
2, 258720, Note_off_c, 0, 62, 95
2, 258720, Note_off_c, 0, 57, 95
2, 258720, Note_off_c, 0, 50, 95
2, 258720, Note_off_c, 0, 45, 95
2, 258720, Note_off_c, 0, 42, 95
2, 258720, Note_on_c, 0, 66, 95
2, 258720, Note_on_c, 0, 62, 95
2, 258720, Note_on_c, 0, 57, 95
2, 258720, Note_on_c, 0, 50, 95
2, 258720, Note_on_c, 0, 45, 95
2, 258720, Note_on_c, 0, 42, 95
2, 259680, Note_off_c, 0, 66, 95
2, 259680, Note_off_c, 0, 62, 95
2, 259680, Note_off_c, 0, 57, 95
2, 259680, Note_off_c, 0, 50, 95
2, 259680, Note_off_c, 0, 45, 95
2, 259680, Note_off_c, 0, 42, 95
2, 259680, Note_on_c, 0, 66, 95
2, 259680, Note_on_c, 0, 62, 95
2, 259680, Note_on_c, 0, 57, 95
2, 259680, Note_on_c, 0, 50, 95
2, 259680, Note_on_c, 0, 45, 95
2, 259680, Note_on_c, 0, 42, 95
2, 260160, Note_off_c, 0, 66, 95
2, 260160, Note_off_c, 0, 62, 95
2, 260160, Note_off_c, 0, 57, 95
2, 260160, Note_off_c, 0, 50, 95
2, 260160, Note_off_c, 0, 45, 95
2, 260160, Note_off_c, 0, 42, 95
2, 260160, Note_on_c, 0, 66, 95
2, 260160, Note_on_c, 0, 62, 95
2, 260160, Note_on_c, 0, 57, 95
2, 260160, Note_on_c, 0, 50, 95
2, 260160, Note_on_c, 0, 45, 95
2, 260160, Note_on_c, 0, 42, 95
2, 260640, Note_off_c, 0, 66, 95
2, 260640, Note_off_c, 0, 62, 95
2, 260640, Note_off_c, 0, 57, 95
2, 260640, Note_off_c, 0, 50, 95
2, 260640, Note_off_c, 0, 45, 95
2, 260640, Note_off_c, 0, 42, 95
2, 260640, Note_on_c, 0, 66, 95
2, 260640, Note_on_c, 0, 62, 95
2, 260640, Note_on_c, 0, 57, 95
2, 260640, Note_on_c, 0, 50, 95
2, 260640, Note_on_c, 0, 45, 95
2, 260640, Note_on_c, 0, 42, 95
2, 261120, Note_off_c, 0, 66, 95
2, 261120, Note_off_c, 0, 62, 95
2, 261120, Note_off_c, 0, 57, 95
2, 261120, Note_off_c, 0, 50, 95
2, 261120, Note_off_c, 0, 45, 95
2, 261120, Note_off_c, 0, 42, 95
2, 261120, Note_on_c, 0, 66, 95
2, 261120, Note_on_c, 0, 62, 95
2, 261120, Note_on_c, 0, 57, 95
2, 261120, Note_on_c, 0, 50, 95
2, 261120, Note_on_c, 0, 45, 95
2, 262080, Note_off_c, 0, 66, 95
2, 262080, Note_off_c, 0, 62, 95
2, 262080, Note_off_c, 0, 57, 95
2, 262080, Note_off_c, 0, 50, 95
2, 262080, Note_off_c, 0, 45, 95
2, 262080, Note_on_c, 0, 66, 95
2, 262080, Note_on_c, 0, 62, 95
2, 262080, Note_on_c, 0, 57, 95
2, 262080, Note_on_c, 0, 50, 95
2, 262080, Note_on_c, 0, 45, 95
2, 262560, Note_off_c, 0, 66, 95
2, 262560, Note_off_c, 0, 62, 95
2, 262560, Note_off_c, 0, 57, 95
2, 262560, Note_off_c, 0, 50, 95
2, 262560, Note_off_c, 0, 45, 95
2, 262560, Note_on_c, 0, 66, 95
2, 262560, Note_on_c, 0, 62, 95
2, 262560, Note_on_c, 0, 57, 95
2, 262560, Note_on_c, 0, 50, 95
2, 262560, Note_on_c, 0, 45, 95
2, 263520, Note_off_c, 0, 66, 95
2, 263520, Note_off_c, 0, 62, 95
2, 263520, Note_off_c, 0, 57, 95
2, 263520, Note_off_c, 0, 50, 95
2, 263520, Note_off_c, 0, 45, 95
2, 263520, Note_on_c, 0, 66, 95
2, 263520, Note_on_c, 0, 62, 95
2, 263520, Note_on_c, 0, 57, 95
2, 263520, Note_on_c, 0, 50, 95
2, 263520, Note_on_c, 0, 45, 95
2, 264000, Note_off_c, 0, 66, 95
2, 264000, Note_off_c, 0, 62, 95
2, 264000, Note_off_c, 0, 57, 95
2, 264000, Note_off_c, 0, 50, 95
2, 264000, Note_off_c, 0, 45, 95
2, 264000, Note_on_c, 0, 66, 95
2, 264000, Note_on_c, 0, 62, 95
2, 264000, Note_on_c, 0, 57, 95
2, 264000, Note_on_c, 0, 50, 95
2, 264000, Note_on_c, 0, 45, 95
2, 264960, Note_off_c, 0, 66, 95
2, 264960, Note_off_c, 0, 62, 95
2, 264960, Note_off_c, 0, 57, 95
2, 264960, Note_off_c, 0, 50, 95
2, 264960, Note_off_c, 0, 45, 95
2, 264960, Note_on_c, 0, 64, 95
2, 264960, Note_on_c, 0, 61, 95
2, 264960, Note_on_c, 0, 57, 95
2, 264960, Note_on_c, 0, 52, 95
2, 264960, Note_on_c, 0, 45, 95
2, 264960, Note_on_c, 0, 40, 95
2, 265920, Note_off_c, 0, 64, 95
2, 265920, Note_off_c, 0, 61, 95
2, 265920, Note_off_c, 0, 57, 95
2, 265920, Note_off_c, 0, 52, 95
2, 265920, Note_off_c, 0, 45, 95
2, 265920, Note_off_c, 0, 40, 95
2, 265920, Note_on_c, 0, 64, 95
2, 265920, Note_on_c, 0, 61, 95
2, 265920, Note_on_c, 0, 57, 95
2, 265920, Note_on_c, 0, 52, 95
2, 265920, Note_on_c, 0, 45, 95
2, 265920, Note_on_c, 0, 40, 95
2, 266400, Note_off_c, 0, 64, 95
2, 266400, Note_off_c, 0, 61, 95
2, 266400, Note_off_c, 0, 57, 95
2, 266400, Note_off_c, 0, 52, 95
2, 266400, Note_off_c, 0, 45, 95
2, 266400, Note_off_c, 0, 40, 95
2, 266400, Note_on_c, 0, 64, 95
2, 266400, Note_on_c, 0, 61, 95
2, 266400, Note_on_c, 0, 57, 95
2, 266400, Note_on_c, 0, 52, 95
2, 266400, Note_on_c, 0, 45, 95
2, 266400, Note_on_c, 0, 40, 95
2, 267360, Note_off_c, 0, 64, 95
2, 267360, Note_off_c, 0, 61, 95
2, 267360, Note_off_c, 0, 57, 95
2, 267360, Note_off_c, 0, 52, 95
2, 267360, Note_off_c, 0, 45, 95
2, 267360, Note_off_c, 0, 40, 95
2, 267360, Note_on_c, 0, 64, 95
2, 267360, Note_on_c, 0, 61, 95
2, 267360, Note_on_c, 0, 57, 95
2, 267360, Note_on_c, 0, 52, 95
2, 267360, Note_on_c, 0, 45, 95
2, 267360, Note_on_c, 0, 40, 95
2, 268320, Note_off_c, 0, 64, 95
2, 268320, Note_off_c, 0, 61, 95
2, 268320, Note_off_c, 0, 57, 95
2, 268320, Note_off_c, 0, 52, 95
2, 268320, Note_off_c, 0, 45, 95
2, 268320, Note_off_c, 0, 40, 95
2, 268320, Note_on_c, 0, 64, 95
2, 268320, Note_on_c, 0, 61, 95
2, 268320, Note_on_c, 0, 57, 95
2, 268320, Note_on_c, 0, 52, 95
2, 268320, Note_on_c, 0, 45, 95
2, 268320, Note_on_c, 0, 40, 95
2, 268800, Note_off_c, 0, 64, 95
2, 268800, Note_off_c, 0, 61, 95
2, 268800, Note_off_c, 0, 57, 95
2, 268800, Note_off_c, 0, 52, 95
2, 268800, Note_off_c, 0, 45, 95
2, 268800, Note_off_c, 0, 40, 95
2, 268800, Note_on_c, 0, 64, 95
2, 268800, Note_on_c, 0, 61, 95
2, 268800, Note_on_c, 0, 57, 95
2, 268800, Note_on_c, 0, 52, 95
2, 268800, Note_on_c, 0, 45, 95
2, 268800, Note_on_c, 0, 40, 95
2, 269760, Note_off_c, 0, 64, 95
2, 269760, Note_off_c, 0, 61, 95
2, 269760, Note_off_c, 0, 57, 95
2, 269760, Note_off_c, 0, 52, 95
2, 269760, Note_off_c, 0, 45, 95
2, 269760, Note_off_c, 0, 40, 95
2, 269760, Note_on_c, 0, 64, 95
2, 269760, Note_on_c, 0, 61, 95
2, 269760, Note_on_c, 0, 57, 95
2, 269760, Note_on_c, 0, 52, 95
2, 269760, Note_on_c, 0, 45, 95
2, 269760, Note_on_c, 0, 40, 95
2, 270240, Note_off_c, 0, 64, 95
2, 270240, Note_off_c, 0, 61, 95
2, 270240, Note_off_c, 0, 57, 95
2, 270240, Note_off_c, 0, 52, 95
2, 270240, Note_off_c, 0, 45, 95
2, 270240, Note_off_c, 0, 40, 95
2, 270240, Note_on_c, 0, 64, 95
2, 270240, Note_on_c, 0, 61, 95
2, 270240, Note_on_c, 0, 57, 95
2, 270240, Note_on_c, 0, 52, 95
2, 270240, Note_on_c, 0, 45, 95
2, 270240, Note_on_c, 0, 40, 95
2, 271200, Note_off_c, 0, 64, 95
2, 271200, Note_off_c, 0, 61, 95
2, 271200, Note_off_c, 0, 57, 95
2, 271200, Note_off_c, 0, 52, 95
2, 271200, Note_off_c, 0, 45, 95
2, 271200, Note_off_c, 0, 40, 95
2, 271200, Note_on_c, 0, 64, 95
2, 271200, Note_on_c, 0, 61, 95
2, 271200, Note_on_c, 0, 57, 95
2, 271200, Note_on_c, 0, 52, 95
2, 271200, Note_on_c, 0, 45, 95
2, 271200, Note_on_c, 0, 40, 95
2, 271680, Note_off_c, 0, 64, 95
2, 271680, Note_off_c, 0, 61, 95
2, 271680, Note_off_c, 0, 57, 95
2, 271680, Note_off_c, 0, 52, 95
2, 271680, Note_off_c, 0, 45, 95
2, 271680, Note_off_c, 0, 40, 95
2, 271680, Note_on_c, 0, 64, 95
2, 271680, Note_on_c, 0, 61, 95
2, 271680, Note_on_c, 0, 57, 95
2, 271680, Note_on_c, 0, 52, 95
2, 271680, Note_on_c, 0, 45, 95
2, 271680, Note_on_c, 0, 40, 95
2, 272640, Note_off_c, 0, 64, 95
2, 272640, Note_off_c, 0, 61, 95
2, 272640, Note_off_c, 0, 57, 95
2, 272640, Note_off_c, 0, 52, 95
2, 272640, Note_off_c, 0, 45, 95
2, 272640, Note_off_c, 0, 40, 95
2, 272640, Note_on_c, 0, 66, 95
2, 272640, Note_on_c, 0, 62, 95
2, 272640, Note_on_c, 0, 57, 95
2, 272640, Note_on_c, 0, 50, 95
2, 272640, Note_on_c, 0, 45, 95
2, 272640, Note_on_c, 0, 42, 95
2, 274080, Note_off_c, 0, 66, 95
2, 274080, Note_off_c, 0, 62, 95
2, 274080, Note_off_c, 0, 57, 95
2, 274080, Note_off_c, 0, 50, 95
2, 274080, Note_off_c, 0, 45, 95
2, 274080, Note_off_c, 0, 42, 95
2, 274080, Note_on_c, 0, 66, 95
2, 274080, Note_on_c, 0, 62, 95
2, 274080, Note_on_c, 0, 57, 95
2, 274080, Note_on_c, 0, 50, 95
2, 274080, Note_on_c, 0, 45, 95
2, 274080, Note_on_c, 0, 42, 95
2, 275040, Note_off_c, 0, 66, 95
2, 275040, Note_off_c, 0, 62, 95
2, 275040, Note_off_c, 0, 57, 95
2, 275040, Note_off_c, 0, 50, 95
2, 275040, Note_off_c, 0, 45, 95
2, 275040, Note_off_c, 0, 42, 95
2, 275040, Note_on_c, 0, 66, 95
2, 275040, Note_on_c, 0, 62, 95
2, 275040, Note_on_c, 0, 57, 95
2, 275040, Note_on_c, 0, 50, 95
2, 275040, Note_on_c, 0, 45, 95
2, 275040, Note_on_c, 0, 42, 95
2, 275520, Note_off_c, 0, 66, 95
2, 275520, Note_off_c, 0, 62, 95
2, 275520, Note_off_c, 0, 57, 95
2, 275520, Note_off_c, 0, 50, 95
2, 275520, Note_off_c, 0, 45, 95
2, 275520, Note_off_c, 0, 42, 95
2, 275520, Note_on_c, 0, 66, 95
2, 275520, Note_on_c, 0, 62, 95
2, 275520, Note_on_c, 0, 57, 95
2, 275520, Note_on_c, 0, 50, 95
2, 275520, Note_on_c, 0, 45, 95
2, 275520, Note_on_c, 0, 42, 95
2, 276000, Note_off_c, 0, 66, 95
2, 276000, Note_off_c, 0, 62, 95
2, 276000, Note_off_c, 0, 57, 95
2, 276000, Note_off_c, 0, 50, 95
2, 276000, Note_off_c, 0, 45, 95
2, 276000, Note_off_c, 0, 42, 95
2, 276000, Note_on_c, 0, 66, 95
2, 276000, Note_on_c, 0, 62, 95
2, 276000, Note_on_c, 0, 57, 95
2, 276000, Note_on_c, 0, 50, 95
2, 276000, Note_on_c, 0, 45, 95
2, 276000, Note_on_c, 0, 42, 95
2, 276480, Note_off_c, 0, 66, 95
2, 276480, Note_off_c, 0, 62, 95
2, 276480, Note_off_c, 0, 57, 95
2, 276480, Note_off_c, 0, 50, 95
2, 276480, Note_off_c, 0, 45, 95
2, 276480, Note_off_c, 0, 42, 95
2, 276480, Note_on_c, 0, 66, 95
2, 276480, Note_on_c, 0, 62, 95
2, 276480, Note_on_c, 0, 57, 95
2, 276480, Note_on_c, 0, 50, 95
2, 276480, Note_on_c, 0, 45, 95
2, 277440, Note_off_c, 0, 66, 95
2, 277440, Note_off_c, 0, 62, 95
2, 277440, Note_off_c, 0, 57, 95
2, 277440, Note_off_c, 0, 50, 95
2, 277440, Note_off_c, 0, 45, 95
2, 277440, Note_on_c, 0, 66, 95
2, 277440, Note_on_c, 0, 62, 95
2, 277440, Note_on_c, 0, 57, 95
2, 277440, Note_on_c, 0, 50, 95
2, 277440, Note_on_c, 0, 45, 95
2, 277920, Note_off_c, 0, 66, 95
2, 277920, Note_off_c, 0, 62, 95
2, 277920, Note_off_c, 0, 57, 95
2, 277920, Note_off_c, 0, 50, 95
2, 277920, Note_off_c, 0, 45, 95
2, 277920, Note_on_c, 0, 66, 95
2, 277920, Note_on_c, 0, 62, 95
2, 277920, Note_on_c, 0, 57, 95
2, 277920, Note_on_c, 0, 50, 95
2, 277920, Note_on_c, 0, 45, 95
2, 278880, Note_off_c, 0, 66, 95
2, 278880, Note_off_c, 0, 62, 95
2, 278880, Note_off_c, 0, 57, 95
2, 278880, Note_off_c, 0, 50, 95
2, 278880, Note_off_c, 0, 45, 95
2, 278880, Note_on_c, 0, 66, 95
2, 278880, Note_on_c, 0, 62, 95
2, 278880, Note_on_c, 0, 57, 95
2, 278880, Note_on_c, 0, 50, 95
2, 278880, Note_on_c, 0, 45, 95
2, 279360, Note_off_c, 0, 66, 95
2, 279360, Note_off_c, 0, 62, 95
2, 279360, Note_off_c, 0, 57, 95
2, 279360, Note_off_c, 0, 50, 95
2, 279360, Note_off_c, 0, 45, 95
2, 279360, Note_on_c, 0, 66, 95
2, 279360, Note_on_c, 0, 62, 95
2, 279360, Note_on_c, 0, 57, 95
2, 279360, Note_on_c, 0, 50, 95
2, 279360, Note_on_c, 0, 45, 95
2, 280320, Note_off_c, 0, 66, 95
2, 280320, Note_off_c, 0, 62, 95
2, 280320, Note_off_c, 0, 57, 95
2, 280320, Note_off_c, 0, 50, 95
2, 280320, Note_off_c, 0, 45, 95
2, 280320, Note_on_c, 0, 52, 95
2, 280320, Note_on_c, 0, 45, 95
2, 280320, Note_on_c, 0, 40, 95
2, 283200, Note_off_c, 0, 52, 95
2, 283200, Note_off_c, 0, 45, 95
2, 283200, Note_off_c, 0, 40, 95
2, 283680, Note_on_c, 0, 64, 95
2, 283680, Note_on_c, 0, 61, 95
2, 283680, Note_on_c, 0, 57, 95
2, 284160, Note_off_c, 0, 64, 95
2, 284160, Note_off_c, 0, 61, 95
2, 284160, Note_off_c, 0, 57, 95
2, 284160, Note_on_c, 0, 64, 95
2, 284160, Note_on_c, 0, 61, 95
2, 284160, Note_on_c, 0, 57, 95
2, 284160, Note_on_c, 0, 52, 95
2, 284160, Note_on_c, 0, 45, 95
2, 285120, Note_off_c, 0, 64, 95
2, 285120, Note_off_c, 0, 61, 95
2, 285120, Note_off_c, 0, 57, 95
2, 285120, Note_off_c, 0, 52, 95
2, 285120, Note_off_c, 0, 45, 95
2, 285120, Note_on_c, 0, 64, 95
2, 285120, Note_on_c, 0, 61, 95
2, 285120, Note_on_c, 0, 57, 95
2, 285120, Note_on_c, 0, 52, 95
2, 285120, Note_on_c, 0, 45, 95
2, 285600, Note_off_c, 0, 64, 95
2, 285600, Note_off_c, 0, 61, 95
2, 285600, Note_off_c, 0, 57, 95
2, 285600, Note_off_c, 0, 52, 95
2, 285600, Note_off_c, 0, 45, 95
2, 285600, Note_on_c, 0, 64, 95
2, 285600, Note_on_c, 0, 61, 95
2, 285600, Note_on_c, 0, 57, 95
2, 286560, Note_off_c, 0, 64, 95
2, 286560, Note_off_c, 0, 61, 95
2, 286560, Note_off_c, 0, 57, 95
2, 286560, Note_on_c, 0, 64, 95
2, 286560, Note_on_c, 0, 61, 95
2, 286560, Note_on_c, 0, 57, 95
2, 287040, Note_off_c, 0, 64, 95
2, 287040, Note_off_c, 0, 61, 95
2, 287040, Note_off_c, 0, 57, 95
2, 287040, Note_on_c, 0, 64, 95
2, 287040, Note_on_c, 0, 61, 95
2, 287040, Note_on_c, 0, 57, 95
2, 287040, Note_on_c, 0, 52, 95
2, 287040, Note_on_c, 0, 45, 95
2, 288000, Note_off_c, 0, 64, 95
2, 288000, Note_off_c, 0, 61, 95
2, 288000, Note_off_c, 0, 57, 95
2, 288000, Note_off_c, 0, 52, 95
2, 288000, Note_off_c, 0, 45, 95
2, 288000, Note_on_c, 0, 57, 95
2, 288000, Note_on_c, 0, 50, 95
2, 288000, Note_on_c, 0, 45, 95
2, 289440, Note_off_c, 0, 57, 95
2, 289440, Note_off_c, 0, 50, 95
2, 289440, Note_off_c, 0, 45, 95
2, 289440, Note_on_c, 0, 66, 95
2, 289440, Note_on_c, 0, 62, 95
2, 289440, Note_on_c, 0, 57, 95
2, 290400, Note_off_c, 0, 66, 95
2, 290400, Note_off_c, 0, 62, 95
2, 290400, Note_off_c, 0, 57, 95
2, 290400, Note_on_c, 0, 66, 95
2, 290400, Note_on_c, 0, 62, 95
2, 290400, Note_on_c, 0, 57, 95
2, 290880, Note_off_c, 0, 66, 95
2, 290880, Note_off_c, 0, 62, 95
2, 290880, Note_off_c, 0, 57, 95
2, 290880, Note_on_c, 0, 66, 95
2, 290880, Note_on_c, 0, 62, 95
2, 290880, Note_on_c, 0, 57, 95
2, 290880, Note_on_c, 0, 50, 95
2, 291360, Note_off_c, 0, 66, 95
2, 291360, Note_off_c, 0, 62, 95
2, 291360, Note_off_c, 0, 57, 95
2, 291360, Note_off_c, 0, 50, 95
2, 291360, Note_on_c, 0, 66, 95
2, 291360, Note_on_c, 0, 62, 95
2, 291360, Note_on_c, 0, 57, 95
2, 291840, Note_off_c, 0, 66, 95
2, 291840, Note_off_c, 0, 62, 95
2, 291840, Note_off_c, 0, 57, 95
2, 291840, Note_on_c, 0, 50, 95
2, 291840, Note_on_c, 0, 45, 95
2, 293280, Note_off_c, 0, 50, 95
2, 293280, Note_off_c, 0, 45, 95
2, 293280, Note_on_c, 0, 66, 95
2, 293280, Note_on_c, 0, 62, 95
2, 293280, Note_on_c, 0, 57, 95
2, 294240, Note_off_c, 0, 66, 95
2, 294240, Note_off_c, 0, 62, 95
2, 294240, Note_off_c, 0, 57, 95
2, 294240, Note_on_c, 0, 66, 95
2, 294240, Note_on_c, 0, 62, 95
2, 294240, Note_on_c, 0, 57, 95
2, 294720, Note_off_c, 0, 66, 95
2, 294720, Note_off_c, 0, 62, 95
2, 294720, Note_off_c, 0, 57, 95
2, 294720, Note_on_c, 0, 66, 95
2, 294720, Note_on_c, 0, 62, 95
2, 294720, Note_on_c, 0, 57, 95
2, 294720, Note_on_c, 0, 50, 95
2, 295680, Note_off_c, 0, 66, 95
2, 295680, Note_off_c, 0, 62, 95
2, 295680, Note_off_c, 0, 57, 95
2, 295680, Note_off_c, 0, 50, 95
2, 295680, Note_on_c, 0, 52, 95
2, 295680, Note_on_c, 0, 45, 95
2, 295680, Note_on_c, 0, 40, 95
2, 298560, Note_off_c, 0, 52, 95
2, 298560, Note_off_c, 0, 45, 95
2, 298560, Note_off_c, 0, 40, 95
2, 299040, Note_on_c, 0, 64, 95
2, 299040, Note_on_c, 0, 61, 95
2, 299040, Note_on_c, 0, 57, 95
2, 299520, Note_off_c, 0, 64, 95
2, 299520, Note_off_c, 0, 61, 95
2, 299520, Note_off_c, 0, 57, 95
2, 299520, Note_on_c, 0, 64, 95
2, 299520, Note_on_c, 0, 61, 95
2, 299520, Note_on_c, 0, 57, 95
2, 299520, Note_on_c, 0, 52, 95
2, 299520, Note_on_c, 0, 45, 95
2, 300480, Note_off_c, 0, 64, 95
2, 300480, Note_off_c, 0, 61, 95
2, 300480, Note_off_c, 0, 57, 95
2, 300480, Note_off_c, 0, 52, 95
2, 300480, Note_off_c, 0, 45, 95
2, 300480, Note_on_c, 0, 64, 95
2, 300480, Note_on_c, 0, 61, 95
2, 300480, Note_on_c, 0, 57, 95
2, 300480, Note_on_c, 0, 52, 95
2, 300480, Note_on_c, 0, 45, 95
2, 300960, Note_off_c, 0, 64, 95
2, 300960, Note_off_c, 0, 61, 95
2, 300960, Note_off_c, 0, 57, 95
2, 300960, Note_off_c, 0, 52, 95
2, 300960, Note_off_c, 0, 45, 95
2, 300960, Note_on_c, 0, 64, 95
2, 300960, Note_on_c, 0, 61, 95
2, 300960, Note_on_c, 0, 57, 95
2, 301920, Note_off_c, 0, 64, 95
2, 301920, Note_off_c, 0, 61, 95
2, 301920, Note_off_c, 0, 57, 95
2, 301920, Note_on_c, 0, 64, 95
2, 301920, Note_on_c, 0, 61, 95
2, 301920, Note_on_c, 0, 57, 95
2, 302400, Note_off_c, 0, 64, 95
2, 302400, Note_off_c, 0, 61, 95
2, 302400, Note_off_c, 0, 57, 95
2, 302400, Note_on_c, 0, 64, 95
2, 302400, Note_on_c, 0, 61, 95
2, 302400, Note_on_c, 0, 57, 95
2, 302400, Note_on_c, 0, 52, 95
2, 302400, Note_on_c, 0, 45, 95
2, 303360, Note_off_c, 0, 64, 95
2, 303360, Note_off_c, 0, 61, 95
2, 303360, Note_off_c, 0, 57, 95
2, 303360, Note_off_c, 0, 52, 95
2, 303360, Note_off_c, 0, 45, 95
2, 303360, Note_on_c, 0, 57, 95
2, 303360, Note_on_c, 0, 50, 95
2, 303360, Note_on_c, 0, 45, 95
2, 304800, Note_off_c, 0, 57, 95
2, 304800, Note_off_c, 0, 50, 95
2, 304800, Note_off_c, 0, 45, 95
2, 304800, Note_on_c, 0, 66, 95
2, 304800, Note_on_c, 0, 62, 95
2, 304800, Note_on_c, 0, 57, 95
2, 305760, Note_off_c, 0, 66, 95
2, 305760, Note_off_c, 0, 62, 95
2, 305760, Note_off_c, 0, 57, 95
2, 305760, Note_on_c, 0, 66, 95
2, 305760, Note_on_c, 0, 62, 95
2, 305760, Note_on_c, 0, 57, 95
2, 306240, Note_off_c, 0, 66, 95
2, 306240, Note_off_c, 0, 62, 95
2, 306240, Note_off_c, 0, 57, 95
2, 306240, Note_on_c, 0, 66, 95
2, 306240, Note_on_c, 0, 62, 95
2, 306240, Note_on_c, 0, 57, 95
2, 306240, Note_on_c, 0, 50, 95
2, 306720, Note_off_c, 0, 66, 95
2, 306720, Note_off_c, 0, 62, 95
2, 306720, Note_off_c, 0, 57, 95
2, 306720, Note_off_c, 0, 50, 95
2, 306720, Note_on_c, 0, 66, 95
2, 306720, Note_on_c, 0, 62, 95
2, 306720, Note_on_c, 0, 57, 95
2, 307200, Note_off_c, 0, 66, 95
2, 307200, Note_off_c, 0, 62, 95
2, 307200, Note_off_c, 0, 57, 95
2, 307200, Note_on_c, 0, 50, 95
2, 307200, Note_on_c, 0, 45, 95
2, 308640, Note_off_c, 0, 50, 95
2, 308640, Note_off_c, 0, 45, 95
2, 308640, Note_on_c, 0, 66, 95
2, 308640, Note_on_c, 0, 62, 95
2, 308640, Note_on_c, 0, 57, 95
2, 309600, Note_off_c, 0, 66, 95
2, 309600, Note_off_c, 0, 62, 95
2, 309600, Note_off_c, 0, 57, 95
2, 309600, Note_on_c, 0, 66, 95
2, 309600, Note_on_c, 0, 62, 95
2, 309600, Note_on_c, 0, 57, 95
2, 310080, Note_off_c, 0, 66, 95
2, 310080, Note_off_c, 0, 62, 95
2, 310080, Note_off_c, 0, 57, 95
2, 310080, Note_on_c, 0, 66, 95
2, 310080, Note_on_c, 0, 62, 95
2, 310080, Note_on_c, 0, 57, 95
2, 310080, Note_on_c, 0, 50, 95
2, 311040, Note_off_c, 0, 66, 95
2, 311040, Note_off_c, 0, 62, 95
2, 311040, Note_off_c, 0, 57, 95
2, 311040, Note_off_c, 0, 50, 95
2, 311040, Note_on_c, 0, 52, 95
2, 311040, Note_on_c, 0, 45, 95
2, 311040, Note_on_c, 0, 40, 95
2, 313920, Note_off_c, 0, 52, 95
2, 313920, Note_off_c, 0, 45, 95
2, 313920, Note_off_c, 0, 40, 95
2, 314400, Note_on_c, 0, 64, 95
2, 314400, Note_on_c, 0, 61, 95
2, 314400, Note_on_c, 0, 57, 95
2, 314880, Note_off_c, 0, 64, 95
2, 314880, Note_off_c, 0, 61, 95
2, 314880, Note_off_c, 0, 57, 95
2, 314880, Note_on_c, 0, 64, 95
2, 314880, Note_on_c, 0, 61, 95
2, 314880, Note_on_c, 0, 57, 95
2, 314880, Note_on_c, 0, 52, 95
2, 314880, Note_on_c, 0, 45, 95
2, 315840, Note_off_c, 0, 64, 95
2, 315840, Note_off_c, 0, 61, 95
2, 315840, Note_off_c, 0, 57, 95
2, 315840, Note_off_c, 0, 52, 95
2, 315840, Note_off_c, 0, 45, 95
2, 315840, Note_on_c, 0, 64, 95
2, 315840, Note_on_c, 0, 61, 95
2, 315840, Note_on_c, 0, 57, 95
2, 315840, Note_on_c, 0, 52, 95
2, 315840, Note_on_c, 0, 45, 95
2, 316320, Note_off_c, 0, 64, 95
2, 316320, Note_off_c, 0, 61, 95
2, 316320, Note_off_c, 0, 57, 95
2, 316320, Note_off_c, 0, 52, 95
2, 316320, Note_off_c, 0, 45, 95
2, 316320, Note_on_c, 0, 64, 95
2, 316320, Note_on_c, 0, 61, 95
2, 316320, Note_on_c, 0, 57, 95
2, 317280, Note_off_c, 0, 64, 95
2, 317280, Note_off_c, 0, 61, 95
2, 317280, Note_off_c, 0, 57, 95
2, 317280, Note_on_c, 0, 64, 95
2, 317280, Note_on_c, 0, 61, 95
2, 317280, Note_on_c, 0, 57, 95
2, 317760, Note_off_c, 0, 64, 95
2, 317760, Note_off_c, 0, 61, 95
2, 317760, Note_off_c, 0, 57, 95
2, 317760, Note_on_c, 0, 64, 95
2, 317760, Note_on_c, 0, 61, 95
2, 317760, Note_on_c, 0, 57, 95
2, 317760, Note_on_c, 0, 52, 95
2, 317760, Note_on_c, 0, 45, 95
2, 318720, Note_off_c, 0, 64, 95
2, 318720, Note_off_c, 0, 61, 95
2, 318720, Note_off_c, 0, 57, 95
2, 318720, Note_off_c, 0, 52, 95
2, 318720, Note_off_c, 0, 45, 95
2, 318720, Note_on_c, 0, 57, 95
2, 318720, Note_on_c, 0, 50, 95
2, 318720, Note_on_c, 0, 45, 95
2, 320160, Note_off_c, 0, 57, 95
2, 320160, Note_off_c, 0, 50, 95
2, 320160, Note_off_c, 0, 45, 95
2, 320160, Note_on_c, 0, 66, 95
2, 320160, Note_on_c, 0, 62, 95
2, 320160, Note_on_c, 0, 57, 95
2, 321120, Note_off_c, 0, 66, 95
2, 321120, Note_off_c, 0, 62, 95
2, 321120, Note_off_c, 0, 57, 95
2, 321120, Note_on_c, 0, 66, 95
2, 321120, Note_on_c, 0, 62, 95
2, 321120, Note_on_c, 0, 57, 95
2, 321600, Note_off_c, 0, 66, 95
2, 321600, Note_off_c, 0, 62, 95
2, 321600, Note_off_c, 0, 57, 95
2, 321600, Note_on_c, 0, 66, 95
2, 321600, Note_on_c, 0, 62, 95
2, 321600, Note_on_c, 0, 57, 95
2, 321600, Note_on_c, 0, 50, 95
2, 322080, Note_off_c, 0, 66, 95
2, 322080, Note_off_c, 0, 62, 95
2, 322080, Note_off_c, 0, 57, 95
2, 322080, Note_off_c, 0, 50, 95
2, 322080, Note_on_c, 0, 66, 95
2, 322080, Note_on_c, 0, 62, 95
2, 322080, Note_on_c, 0, 57, 95
2, 322560, Note_off_c, 0, 66, 95
2, 322560, Note_off_c, 0, 62, 95
2, 322560, Note_off_c, 0, 57, 95
2, 322560, Note_on_c, 0, 50, 95
2, 322560, Note_on_c, 0, 45, 95
2, 324000, Note_off_c, 0, 50, 95
2, 324000, Note_off_c, 0, 45, 95
2, 324000, Note_on_c, 0, 66, 95
2, 324000, Note_on_c, 0, 62, 95
2, 324000, Note_on_c, 0, 57, 95
2, 324960, Note_off_c, 0, 66, 95
2, 324960, Note_off_c, 0, 62, 95
2, 324960, Note_off_c, 0, 57, 95
2, 324960, Note_on_c, 0, 66, 95
2, 324960, Note_on_c, 0, 62, 95
2, 324960, Note_on_c, 0, 57, 95
2, 325440, Note_off_c, 0, 66, 95
2, 325440, Note_off_c, 0, 62, 95
2, 325440, Note_off_c, 0, 57, 95
2, 325440, Note_on_c, 0, 66, 95
2, 325440, Note_on_c, 0, 62, 95
2, 325440, Note_on_c, 0, 57, 95
2, 325440, Note_on_c, 0, 50, 95
2, 326400, Note_off_c, 0, 66, 95
2, 326400, Note_off_c, 0, 62, 95
2, 326400, Note_off_c, 0, 57, 95
2, 326400, Note_off_c, 0, 50, 95
2, 326400, Note_on_c, 0, 52, 95
2, 326400, Note_on_c, 0, 45, 95
2, 326400, Note_on_c, 0, 40, 95
2, 329280, Note_off_c, 0, 52, 95
2, 329280, Note_off_c, 0, 45, 95
2, 329280, Note_off_c, 0, 40, 95
2, 329760, Note_on_c, 0, 64, 95
2, 329760, Note_on_c, 0, 61, 95
2, 329760, Note_on_c, 0, 57, 95
2, 330240, Note_off_c, 0, 64, 95
2, 330240, Note_off_c, 0, 61, 95
2, 330240, Note_off_c, 0, 57, 95
2, 330240, Note_on_c, 0, 64, 95
2, 330240, Note_on_c, 0, 61, 95
2, 330240, Note_on_c, 0, 57, 95
2, 330240, Note_on_c, 0, 52, 95
2, 330240, Note_on_c, 0, 45, 95
2, 331200, Note_off_c, 0, 64, 95
2, 331200, Note_off_c, 0, 61, 95
2, 331200, Note_off_c, 0, 57, 95
2, 331200, Note_off_c, 0, 52, 95
2, 331200, Note_off_c, 0, 45, 95
2, 331200, Note_on_c, 0, 64, 95
2, 331200, Note_on_c, 0, 61, 95
2, 331200, Note_on_c, 0, 57, 95
2, 331200, Note_on_c, 0, 52, 95
2, 331200, Note_on_c, 0, 45, 95
2, 331680, Note_off_c, 0, 64, 95
2, 331680, Note_off_c, 0, 61, 95
2, 331680, Note_off_c, 0, 57, 95
2, 331680, Note_off_c, 0, 52, 95
2, 331680, Note_off_c, 0, 45, 95
2, 331680, Note_on_c, 0, 64, 95
2, 331680, Note_on_c, 0, 61, 95
2, 331680, Note_on_c, 0, 57, 95
2, 332640, Note_off_c, 0, 64, 95
2, 332640, Note_off_c, 0, 61, 95
2, 332640, Note_off_c, 0, 57, 95
2, 332640, Note_on_c, 0, 64, 95
2, 332640, Note_on_c, 0, 61, 95
2, 332640, Note_on_c, 0, 57, 95
2, 333120, Note_off_c, 0, 64, 95
2, 333120, Note_off_c, 0, 61, 95
2, 333120, Note_off_c, 0, 57, 95
2, 333120, Note_on_c, 0, 64, 95
2, 333120, Note_on_c, 0, 61, 95
2, 333120, Note_on_c, 0, 57, 95
2, 333120, Note_on_c, 0, 52, 95
2, 333120, Note_on_c, 0, 45, 95
2, 334080, Note_off_c, 0, 64, 95
2, 334080, Note_off_c, 0, 61, 95
2, 334080, Note_off_c, 0, 57, 95
2, 334080, Note_off_c, 0, 52, 95
2, 334080, Note_off_c, 0, 45, 95
2, 334080, Note_on_c, 0, 57, 95
2, 334080, Note_on_c, 0, 50, 95
2, 334080, Note_on_c, 0, 45, 95
2, 335520, Note_off_c, 0, 57, 95
2, 335520, Note_off_c, 0, 50, 95
2, 335520, Note_off_c, 0, 45, 95
2, 335520, Note_on_c, 0, 66, 95
2, 335520, Note_on_c, 0, 62, 95
2, 335520, Note_on_c, 0, 57, 95
2, 336480, Note_off_c, 0, 66, 95
2, 336480, Note_off_c, 0, 62, 95
2, 336480, Note_off_c, 0, 57, 95
2, 336480, Note_on_c, 0, 66, 95
2, 336480, Note_on_c, 0, 62, 95
2, 336480, Note_on_c, 0, 57, 95
2, 336960, Note_off_c, 0, 66, 95
2, 336960, Note_off_c, 0, 62, 95
2, 336960, Note_off_c, 0, 57, 95
2, 336960, Note_on_c, 0, 66, 95
2, 336960, Note_on_c, 0, 62, 95
2, 336960, Note_on_c, 0, 57, 95
2, 336960, Note_on_c, 0, 50, 95
2, 337440, Note_off_c, 0, 66, 95
2, 337440, Note_off_c, 0, 62, 95
2, 337440, Note_off_c, 0, 57, 95
2, 337440, Note_off_c, 0, 50, 95
2, 337440, Note_on_c, 0, 66, 95
2, 337440, Note_on_c, 0, 62, 95
2, 337440, Note_on_c, 0, 57, 95
2, 337920, Note_off_c, 0, 66, 95
2, 337920, Note_off_c, 0, 62, 95
2, 337920, Note_off_c, 0, 57, 95
2, 337920, Note_on_c, 0, 50, 95
2, 337920, Note_on_c, 0, 45, 95
2, 339360, Note_off_c, 0, 50, 95
2, 339360, Note_off_c, 0, 45, 95
2, 339360, Note_on_c, 0, 66, 95
2, 339360, Note_on_c, 0, 62, 95
2, 339360, Note_on_c, 0, 57, 95
2, 340320, Note_off_c, 0, 66, 95
2, 340320, Note_off_c, 0, 62, 95
2, 340320, Note_off_c, 0, 57, 95
2, 340320, Note_on_c, 0, 66, 95
2, 340320, Note_on_c, 0, 62, 95
2, 340320, Note_on_c, 0, 57, 95
2, 340800, Note_off_c, 0, 66, 95
2, 340800, Note_off_c, 0, 62, 95
2, 340800, Note_off_c, 0, 57, 95
2, 340800, Note_on_c, 0, 66, 95
2, 340800, Note_on_c, 0, 62, 95
2, 340800, Note_on_c, 0, 57, 95
2, 340800, Note_on_c, 0, 50, 95
2, 341760, Note_off_c, 0, 66, 95
2, 341760, Note_off_c, 0, 62, 95
2, 341760, Note_off_c, 0, 57, 95
2, 341760, Note_off_c, 0, 50, 95
2, 341760, Note_on_c, 0, 52, 95
2, 341760, Note_on_c, 0, 45, 95
2, 341760, Note_on_c, 0, 40, 95
2, 344640, Note_off_c, 0, 52, 95
2, 344640, Note_off_c, 0, 45, 95
2, 344640, Note_off_c, 0, 40, 95
2, 345120, Note_on_c, 0, 64, 95
2, 345120, Note_on_c, 0, 61, 95
2, 345120, Note_on_c, 0, 57, 95
2, 345600, Note_off_c, 0, 64, 95
2, 345600, Note_off_c, 0, 61, 95
2, 345600, Note_off_c, 0, 57, 95
2, 345600, Note_on_c, 0, 64, 95
2, 345600, Note_on_c, 0, 61, 95
2, 345600, Note_on_c, 0, 57, 95
2, 345600, Note_on_c, 0, 52, 95
2, 345600, Note_on_c, 0, 45, 95
2, 346560, Note_off_c, 0, 64, 95
2, 346560, Note_off_c, 0, 61, 95
2, 346560, Note_off_c, 0, 57, 95
2, 346560, Note_off_c, 0, 52, 95
2, 346560, Note_off_c, 0, 45, 95
2, 346560, Note_on_c, 0, 64, 95
2, 346560, Note_on_c, 0, 61, 95
2, 346560, Note_on_c, 0, 57, 95
2, 346560, Note_on_c, 0, 52, 95
2, 346560, Note_on_c, 0, 45, 95
2, 347040, Note_off_c, 0, 64, 95
2, 347040, Note_off_c, 0, 61, 95
2, 347040, Note_off_c, 0, 57, 95
2, 347040, Note_off_c, 0, 52, 95
2, 347040, Note_off_c, 0, 45, 95
2, 347040, Note_on_c, 0, 64, 95
2, 347040, Note_on_c, 0, 61, 95
2, 347040, Note_on_c, 0, 57, 95
2, 348000, Note_off_c, 0, 64, 95
2, 348000, Note_off_c, 0, 61, 95
2, 348000, Note_off_c, 0, 57, 95
2, 348000, Note_on_c, 0, 64, 95
2, 348000, Note_on_c, 0, 61, 95
2, 348000, Note_on_c, 0, 57, 95
2, 348480, Note_off_c, 0, 64, 95
2, 348480, Note_off_c, 0, 61, 95
2, 348480, Note_off_c, 0, 57, 95
2, 348480, Note_on_c, 0, 64, 95
2, 348480, Note_on_c, 0, 61, 95
2, 348480, Note_on_c, 0, 57, 95
2, 348480, Note_on_c, 0, 52, 95
2, 348480, Note_on_c, 0, 45, 95
2, 349440, Note_off_c, 0, 64, 95
2, 349440, Note_off_c, 0, 61, 95
2, 349440, Note_off_c, 0, 57, 95
2, 349440, Note_off_c, 0, 52, 95
2, 349440, Note_off_c, 0, 45, 95
2, 349440, Note_on_c, 0, 57, 95
2, 349440, Note_on_c, 0, 50, 95
2, 349440, Note_on_c, 0, 45, 95
2, 350880, Note_off_c, 0, 57, 95
2, 350880, Note_off_c, 0, 50, 95
2, 350880, Note_off_c, 0, 45, 95
2, 350880, Note_on_c, 0, 66, 95
2, 350880, Note_on_c, 0, 62, 95
2, 350880, Note_on_c, 0, 57, 95
2, 351840, Note_off_c, 0, 66, 95
2, 351840, Note_off_c, 0, 62, 95
2, 351840, Note_off_c, 0, 57, 95
2, 351840, Note_on_c, 0, 66, 95
2, 351840, Note_on_c, 0, 62, 95
2, 351840, Note_on_c, 0, 57, 95
2, 352320, Note_off_c, 0, 66, 95
2, 352320, Note_off_c, 0, 62, 95
2, 352320, Note_off_c, 0, 57, 95
2, 352320, Note_on_c, 0, 66, 95
2, 352320, Note_on_c, 0, 62, 95
2, 352320, Note_on_c, 0, 57, 95
2, 352320, Note_on_c, 0, 50, 95
2, 352800, Note_off_c, 0, 66, 95
2, 352800, Note_off_c, 0, 62, 95
2, 352800, Note_off_c, 0, 57, 95
2, 352800, Note_off_c, 0, 50, 95
2, 352800, Note_on_c, 0, 66, 95
2, 352800, Note_on_c, 0, 62, 95
2, 352800, Note_on_c, 0, 57, 95
2, 353280, Note_off_c, 0, 66, 95
2, 353280, Note_off_c, 0, 62, 95
2, 353280, Note_off_c, 0, 57, 95
2, 353280, Note_on_c, 0, 50, 95
2, 353280, Note_on_c, 0, 45, 95
2, 354720, Note_off_c, 0, 50, 95
2, 354720, Note_off_c, 0, 45, 95
2, 354720, Note_on_c, 0, 66, 95
2, 354720, Note_on_c, 0, 62, 95
2, 354720, Note_on_c, 0, 57, 95
2, 355680, Note_off_c, 0, 66, 95
2, 355680, Note_off_c, 0, 62, 95
2, 355680, Note_off_c, 0, 57, 95
2, 355680, Note_on_c, 0, 66, 95
2, 355680, Note_on_c, 0, 62, 95
2, 355680, Note_on_c, 0, 57, 95
2, 356160, Note_off_c, 0, 66, 95
2, 356160, Note_off_c, 0, 62, 95
2, 356160, Note_off_c, 0, 57, 95
2, 356160, Note_on_c, 0, 66, 95
2, 356160, Note_on_c, 0, 62, 95
2, 356160, Note_on_c, 0, 57, 95
2, 356160, Note_on_c, 0, 50, 95
2, 357120, Note_off_c, 0, 66, 95
2, 357120, Note_off_c, 0, 62, 95
2, 357120, Note_off_c, 0, 57, 95
2, 357120, Note_off_c, 0, 50, 95
2, 357120, Note_on_c, 0, 52, 95
2, 357120, Note_on_c, 0, 45, 95
2, 357120, Note_on_c, 0, 40, 95
2, 360000, Note_off_c, 0, 52, 95
2, 360000, Note_off_c, 0, 45, 95
2, 360000, Note_off_c, 0, 40, 95
2, 360480, Note_on_c, 0, 64, 95
2, 360480, Note_on_c, 0, 61, 95
2, 360480, Note_on_c, 0, 57, 95
2, 360960, Note_off_c, 0, 64, 95
2, 360960, Note_off_c, 0, 61, 95
2, 360960, Note_off_c, 0, 57, 95
2, 360960, Note_on_c, 0, 64, 95
2, 360960, Note_on_c, 0, 61, 95
2, 360960, Note_on_c, 0, 57, 95
2, 360960, Note_on_c, 0, 52, 95
2, 360960, Note_on_c, 0, 45, 95
2, 361920, Note_off_c, 0, 64, 95
2, 361920, Note_off_c, 0, 61, 95
2, 361920, Note_off_c, 0, 57, 95
2, 361920, Note_off_c, 0, 52, 95
2, 361920, Note_off_c, 0, 45, 95
2, 361920, Note_on_c, 0, 64, 95
2, 361920, Note_on_c, 0, 61, 95
2, 361920, Note_on_c, 0, 57, 95
2, 361920, Note_on_c, 0, 52, 95
2, 361920, Note_on_c, 0, 45, 95
2, 362400, Note_off_c, 0, 64, 95
2, 362400, Note_off_c, 0, 61, 95
2, 362400, Note_off_c, 0, 57, 95
2, 362400, Note_off_c, 0, 52, 95
2, 362400, Note_off_c, 0, 45, 95
2, 362400, Note_on_c, 0, 64, 95
2, 362400, Note_on_c, 0, 61, 95
2, 362400, Note_on_c, 0, 57, 95
2, 363360, Note_off_c, 0, 64, 95
2, 363360, Note_off_c, 0, 61, 95
2, 363360, Note_off_c, 0, 57, 95
2, 363360, Note_on_c, 0, 64, 95
2, 363360, Note_on_c, 0, 61, 95
2, 363360, Note_on_c, 0, 57, 95
2, 363840, Note_off_c, 0, 64, 95
2, 363840, Note_off_c, 0, 61, 95
2, 363840, Note_off_c, 0, 57, 95
2, 363840, Note_on_c, 0, 64, 95
2, 363840, Note_on_c, 0, 61, 95
2, 363840, Note_on_c, 0, 57, 95
2, 363840, Note_on_c, 0, 52, 95
2, 363840, Note_on_c, 0, 45, 95
2, 364800, Note_off_c, 0, 64, 95
2, 364800, Note_off_c, 0, 61, 95
2, 364800, Note_off_c, 0, 57, 95
2, 364800, Note_off_c, 0, 52, 95
2, 364800, Note_off_c, 0, 45, 95
2, 364800, Note_on_c, 0, 57, 95
2, 364800, Note_on_c, 0, 50, 95
2, 364800, Note_on_c, 0, 45, 95
2, 366240, Note_off_c, 0, 57, 95
2, 366240, Note_off_c, 0, 50, 95
2, 366240, Note_off_c, 0, 45, 95
2, 366240, Note_on_c, 0, 66, 95
2, 366240, Note_on_c, 0, 62, 95
2, 366240, Note_on_c, 0, 57, 95
2, 367200, Note_off_c, 0, 66, 95
2, 367200, Note_off_c, 0, 62, 95
2, 367200, Note_off_c, 0, 57, 95
2, 367200, Note_on_c, 0, 66, 95
2, 367200, Note_on_c, 0, 62, 95
2, 367200, Note_on_c, 0, 57, 95
2, 367680, Note_off_c, 0, 66, 95
2, 367680, Note_off_c, 0, 62, 95
2, 367680, Note_off_c, 0, 57, 95
2, 367680, Note_on_c, 0, 66, 95
2, 367680, Note_on_c, 0, 62, 95
2, 367680, Note_on_c, 0, 57, 95
2, 367680, Note_on_c, 0, 50, 95
2, 368160, Note_off_c, 0, 66, 95
2, 368160, Note_off_c, 0, 62, 95
2, 368160, Note_off_c, 0, 57, 95
2, 368160, Note_off_c, 0, 50, 95
2, 368160, Note_on_c, 0, 66, 95
2, 368160, Note_on_c, 0, 62, 95
2, 368160, Note_on_c, 0, 57, 95
2, 368640, Note_off_c, 0, 66, 95
2, 368640, Note_off_c, 0, 62, 95
2, 368640, Note_off_c, 0, 57, 95
2, 368640, Note_on_c, 0, 50, 95
2, 368640, Note_on_c, 0, 45, 95
2, 370080, Note_off_c, 0, 50, 95
2, 370080, Note_off_c, 0, 45, 95
2, 370080, Note_on_c, 0, 66, 95
2, 370080, Note_on_c, 0, 62, 95
2, 370080, Note_on_c, 0, 57, 95
2, 371040, Note_off_c, 0, 66, 95
2, 371040, Note_off_c, 0, 62, 95
2, 371040, Note_off_c, 0, 57, 95
2, 371040, Note_on_c, 0, 66, 95
2, 371040, Note_on_c, 0, 62, 95
2, 371040, Note_on_c, 0, 57, 95
2, 371520, Note_off_c, 0, 66, 95
2, 371520, Note_off_c, 0, 62, 95
2, 371520, Note_off_c, 0, 57, 95
2, 371520, Note_on_c, 0, 66, 95
2, 371520, Note_on_c, 0, 62, 95
2, 371520, Note_on_c, 0, 57, 95
2, 371520, Note_on_c, 0, 50, 95
2, 372480, Note_off_c, 0, 66, 95
2, 372480, Note_off_c, 0, 62, 95
2, 372480, Note_off_c, 0, 57, 95
2, 372480, Note_off_c, 0, 50, 95
2, 372480, Note_on_c, 0, 52, 95
2, 372480, Note_on_c, 0, 45, 95
2, 372480, Note_on_c, 0, 40, 95
2, 375360, Note_off_c, 0, 52, 95
2, 375360, Note_off_c, 0, 45, 95
2, 375360, Note_off_c, 0, 40, 95
2, 375840, Note_on_c, 0, 64, 95
2, 375840, Note_on_c, 0, 61, 95
2, 375840, Note_on_c, 0, 57, 95
2, 376320, Note_off_c, 0, 64, 95
2, 376320, Note_off_c, 0, 61, 95
2, 376320, Note_off_c, 0, 57, 95
2, 376320, Note_on_c, 0, 64, 95
2, 376320, Note_on_c, 0, 61, 95
2, 376320, Note_on_c, 0, 57, 95
2, 376320, Note_on_c, 0, 52, 95
2, 376320, Note_on_c, 0, 45, 95
2, 377280, Note_off_c, 0, 64, 95
2, 377280, Note_off_c, 0, 61, 95
2, 377280, Note_off_c, 0, 57, 95
2, 377280, Note_off_c, 0, 52, 95
2, 377280, Note_off_c, 0, 45, 95
2, 377280, Note_on_c, 0, 64, 95
2, 377280, Note_on_c, 0, 61, 95
2, 377280, Note_on_c, 0, 57, 95
2, 377280, Note_on_c, 0, 52, 95
2, 377280, Note_on_c, 0, 45, 95
2, 377760, Note_off_c, 0, 64, 95
2, 377760, Note_off_c, 0, 61, 95
2, 377760, Note_off_c, 0, 57, 95
2, 377760, Note_off_c, 0, 52, 95
2, 377760, Note_off_c, 0, 45, 95
2, 377760, Note_on_c, 0, 64, 95
2, 377760, Note_on_c, 0, 61, 95
2, 377760, Note_on_c, 0, 57, 95
2, 378720, Note_off_c, 0, 64, 95
2, 378720, Note_off_c, 0, 61, 95
2, 378720, Note_off_c, 0, 57, 95
2, 378720, Note_on_c, 0, 64, 95
2, 378720, Note_on_c, 0, 61, 95
2, 378720, Note_on_c, 0, 57, 95
2, 379200, Note_off_c, 0, 64, 95
2, 379200, Note_off_c, 0, 61, 95
2, 379200, Note_off_c, 0, 57, 95
2, 379200, Note_on_c, 0, 64, 95
2, 379200, Note_on_c, 0, 61, 95
2, 379200, Note_on_c, 0, 57, 95
2, 379200, Note_on_c, 0, 52, 95
2, 379200, Note_on_c, 0, 45, 95
2, 380160, Note_off_c, 0, 64, 95
2, 380160, Note_off_c, 0, 61, 95
2, 380160, Note_off_c, 0, 57, 95
2, 380160, Note_off_c, 0, 52, 95
2, 380160, Note_off_c, 0, 45, 95
2, 380160, Note_on_c, 0, 57, 95
2, 380160, Note_on_c, 0, 50, 95
2, 380160, Note_on_c, 0, 45, 95
2, 381600, Note_off_c, 0, 57, 95
2, 381600, Note_off_c, 0, 50, 95
2, 381600, Note_off_c, 0, 45, 95
2, 381600, Note_on_c, 0, 66, 95
2, 381600, Note_on_c, 0, 62, 95
2, 381600, Note_on_c, 0, 57, 95
2, 382560, Note_off_c, 0, 66, 95
2, 382560, Note_off_c, 0, 62, 95
2, 382560, Note_off_c, 0, 57, 95
2, 382560, Note_on_c, 0, 66, 95
2, 382560, Note_on_c, 0, 62, 95
2, 382560, Note_on_c, 0, 57, 95
2, 383040, Note_off_c, 0, 66, 95
2, 383040, Note_off_c, 0, 62, 95
2, 383040, Note_off_c, 0, 57, 95
2, 383040, Note_on_c, 0, 66, 95
2, 383040, Note_on_c, 0, 62, 95
2, 383040, Note_on_c, 0, 57, 95
2, 383040, Note_on_c, 0, 50, 95
2, 383520, Note_off_c, 0, 66, 95
2, 383520, Note_off_c, 0, 62, 95
2, 383520, Note_off_c, 0, 57, 95
2, 383520, Note_off_c, 0, 50, 95
2, 383520, Note_on_c, 0, 66, 95
2, 383520, Note_on_c, 0, 62, 95
2, 383520, Note_on_c, 0, 57, 95
2, 384000, Note_off_c, 0, 66, 95
2, 384000, Note_off_c, 0, 62, 95
2, 384000, Note_off_c, 0, 57, 95
2, 384000, Note_on_c, 0, 50, 95
2, 384000, Note_on_c, 0, 45, 95
2, 385440, Note_off_c, 0, 50, 95
2, 385440, Note_off_c, 0, 45, 95
2, 385440, Note_on_c, 0, 66, 95
2, 385440, Note_on_c, 0, 62, 95
2, 385440, Note_on_c, 0, 57, 95
2, 386400, Note_off_c, 0, 66, 95
2, 386400, Note_off_c, 0, 62, 95
2, 386400, Note_off_c, 0, 57, 95
2, 386400, Note_on_c, 0, 66, 95
2, 386400, Note_on_c, 0, 62, 95
2, 386400, Note_on_c, 0, 57, 95
2, 386880, Note_off_c, 0, 66, 95
2, 386880, Note_off_c, 0, 62, 95
2, 386880, Note_off_c, 0, 57, 95
2, 386880, Note_on_c, 0, 66, 95
2, 386880, Note_on_c, 0, 62, 95
2, 386880, Note_on_c, 0, 57, 95
2, 386880, Note_on_c, 0, 50, 95
2, 387840, Note_off_c, 0, 66, 95
2, 387840, Note_off_c, 0, 62, 95
2, 387840, Note_off_c, 0, 57, 95
2, 387840, Note_off_c, 0, 50, 95
2, 387840, Note_on_c, 0, 52, 95
2, 387840, Note_on_c, 0, 45, 95
2, 387840, Note_on_c, 0, 40, 95
2, 390720, Note_off_c, 0, 52, 95
2, 390720, Note_off_c, 0, 45, 95
2, 390720, Note_off_c, 0, 40, 95
2, 391200, Note_on_c, 0, 64, 95
2, 391200, Note_on_c, 0, 61, 95
2, 391200, Note_on_c, 0, 57, 95
2, 391680, Note_off_c, 0, 64, 95
2, 391680, Note_off_c, 0, 61, 95
2, 391680, Note_off_c, 0, 57, 95
2, 391680, Note_on_c, 0, 64, 95
2, 391680, Note_on_c, 0, 61, 95
2, 391680, Note_on_c, 0, 57, 95
2, 391680, Note_on_c, 0, 52, 95
2, 391680, Note_on_c, 0, 45, 95
2, 392640, Note_off_c, 0, 64, 95
2, 392640, Note_off_c, 0, 61, 95
2, 392640, Note_off_c, 0, 57, 95
2, 392640, Note_off_c, 0, 52, 95
2, 392640, Note_off_c, 0, 45, 95
2, 392640, Note_on_c, 0, 64, 95
2, 392640, Note_on_c, 0, 61, 95
2, 392640, Note_on_c, 0, 57, 95
2, 392640, Note_on_c, 0, 52, 95
2, 392640, Note_on_c, 0, 45, 95
2, 393120, Note_off_c, 0, 64, 95
2, 393120, Note_off_c, 0, 61, 95
2, 393120, Note_off_c, 0, 57, 95
2, 393120, Note_off_c, 0, 52, 95
2, 393120, Note_off_c, 0, 45, 95
2, 393120, Note_on_c, 0, 64, 95
2, 393120, Note_on_c, 0, 61, 95
2, 393120, Note_on_c, 0, 57, 95
2, 394080, Note_off_c, 0, 64, 95
2, 394080, Note_off_c, 0, 61, 95
2, 394080, Note_off_c, 0, 57, 95
2, 394080, Note_on_c, 0, 64, 95
2, 394080, Note_on_c, 0, 61, 95
2, 394080, Note_on_c, 0, 57, 95
2, 394560, Note_off_c, 0, 64, 95
2, 394560, Note_off_c, 0, 61, 95
2, 394560, Note_off_c, 0, 57, 95
2, 394560, Note_on_c, 0, 64, 95
2, 394560, Note_on_c, 0, 61, 95
2, 394560, Note_on_c, 0, 57, 95
2, 394560, Note_on_c, 0, 52, 95
2, 394560, Note_on_c, 0, 45, 95
2, 395520, Note_off_c, 0, 64, 95
2, 395520, Note_off_c, 0, 61, 95
2, 395520, Note_off_c, 0, 57, 95
2, 395520, Note_off_c, 0, 52, 95
2, 395520, Note_off_c, 0, 45, 95
2, 395520, Note_on_c, 0, 57, 95
2, 395520, Note_on_c, 0, 50, 95
2, 395520, Note_on_c, 0, 45, 95
2, 396960, Note_off_c, 0, 57, 95
2, 396960, Note_off_c, 0, 50, 95
2, 396960, Note_off_c, 0, 45, 95
2, 396960, Note_on_c, 0, 66, 95
2, 396960, Note_on_c, 0, 62, 95
2, 396960, Note_on_c, 0, 57, 95
2, 397920, Note_off_c, 0, 66, 95
2, 397920, Note_off_c, 0, 62, 95
2, 397920, Note_off_c, 0, 57, 95
2, 397920, Note_on_c, 0, 66, 95
2, 397920, Note_on_c, 0, 62, 95
2, 397920, Note_on_c, 0, 57, 95
2, 398400, Note_off_c, 0, 66, 95
2, 398400, Note_off_c, 0, 62, 95
2, 398400, Note_off_c, 0, 57, 95
2, 398400, Note_on_c, 0, 66, 95
2, 398400, Note_on_c, 0, 62, 95
2, 398400, Note_on_c, 0, 57, 95
2, 398400, Note_on_c, 0, 50, 95
2, 398880, Note_off_c, 0, 66, 95
2, 398880, Note_off_c, 0, 62, 95
2, 398880, Note_off_c, 0, 57, 95
2, 398880, Note_off_c, 0, 50, 95
2, 398880, Note_on_c, 0, 66, 95
2, 398880, Note_on_c, 0, 62, 95
2, 398880, Note_on_c, 0, 57, 95
2, 399360, Note_off_c, 0, 66, 95
2, 399360, Note_off_c, 0, 62, 95
2, 399360, Note_off_c, 0, 57, 95
2, 399360, Note_on_c, 0, 50, 95
2, 399360, Note_on_c, 0, 45, 95
2, 400800, Note_off_c, 0, 50, 95
2, 400800, Note_off_c, 0, 45, 95
2, 400800, Note_on_c, 0, 66, 95
2, 400800, Note_on_c, 0, 62, 95
2, 400800, Note_on_c, 0, 57, 95
2, 401760, Note_off_c, 0, 66, 95
2, 401760, Note_off_c, 0, 62, 95
2, 401760, Note_off_c, 0, 57, 95
2, 401760, Note_on_c, 0, 66, 95
2, 401760, Note_on_c, 0, 62, 95
2, 401760, Note_on_c, 0, 57, 95
2, 402240, Note_off_c, 0, 66, 95
2, 402240, Note_off_c, 0, 62, 95
2, 402240, Note_off_c, 0, 57, 95
2, 402240, Note_on_c, 0, 66, 95
2, 402240, Note_on_c, 0, 62, 95
2, 402240, Note_on_c, 0, 57, 95
2, 402240, Note_on_c, 0, 50, 95
2, 403200, Note_off_c, 0, 66, 95
2, 403200, Note_off_c, 0, 62, 95
2, 403200, Note_off_c, 0, 57, 95
2, 403200, Note_off_c, 0, 50, 95
2, 403200, Note_on_c, 0, 40, 95
2, 403260, Note_on_c, 0, 45, 95
2, 403320, Note_on_c, 0, 52, 95
2, 403380, Note_on_c, 0, 57, 95
2, 406080, Note_off_c, 0, 57, 95
2, 406080, Note_off_c, 0, 52, 95
2, 406080, Note_off_c, 0, 45, 95
2, 406080, Note_off_c, 0, 40, 95
2, 406080, End_track
3, 0, Start_track
3, 0, Pitch_bend_c, 2, 8192
3, 0, Control_c, 2, 7, 103
3, 0, Control_c, 2, 10, 63
3, 0, Control_c, 2, 93, 0
3, 0, Control_c, 2, 91, 0
3, 0, Control_c, 2, 95, 0
3, 0, Control_c, 2, 92, 0
3, 0, Control_c, 2, 11, 127
3, 0, Program_c, 2, 27
3, 0, Note_on_c, 2, 69, 95
3, 160, Pitch_bend_c, 2, 8192
3, 320, Pitch_bend_c, 2, 8320
3, 480, Pitch_bend_c, 2, 8192
3, 640, Pitch_bend_c, 2, 8320
3, 800, Pitch_bend_c, 2, 8192
3, 960, Pitch_bend_c, 2, 8320
3, 1120, Pitch_bend_c, 2, 8192
3, 1280, Pitch_bend_c, 2, 8320
3, 1440, Pitch_bend_c, 2, 8192
3, 1440, Pitch_bend_c, 2, 8320
3, 1440, Pitch_bend_c, 2, 8192
3, 1440, Note_off_c, 2, 69, 95
3, 1440, Note_on_c, 2, 69, 95
3, 1600, Pitch_bend_c, 2, 8192
3, 1760, Pitch_bend_c, 2, 8320
3, 1920, Pitch_bend_c, 2, 8192
3, 2080, Pitch_bend_c, 2, 8320
3, 2240, Pitch_bend_c, 2, 8192
3, 2400, Pitch_bend_c, 2, 8320
3, 2560, Pitch_bend_c, 2, 8192
3, 2720, Pitch_bend_c, 2, 8320
3, 2880, Pitch_bend_c, 2, 8192
3, 3040, Pitch_bend_c, 2, 8320
3, 3200, Pitch_bend_c, 2, 8192
3, 3360, Pitch_bend_c, 2, 8320
3, 3520, Pitch_bend_c, 2, 8192
3, 3680, Pitch_bend_c, 2, 8320
3, 3840, Pitch_bend_c, 2, 8192
3, 3840, Pitch_bend_c, 2, 8320
3, 3840, Pitch_bend_c, 2, 8192
3, 3840, Note_off_c, 2, 69, 95
3, 3840, Note_on_c, 2, 69, 95
3, 4000, Pitch_bend_c, 2, 8192
3, 4160, Pitch_bend_c, 2, 8320
3, 4320, Pitch_bend_c, 2, 8192
3, 4480, Pitch_bend_c, 2, 8320
3, 4640, Pitch_bend_c, 2, 8192
3, 4800, Pitch_bend_c, 2, 8320
3, 4960, Pitch_bend_c, 2, 8192
3, 5120, Pitch_bend_c, 2, 8320
3, 5280, Pitch_bend_c, 2, 8192
3, 5280, Pitch_bend_c, 2, 8320
3, 5280, Pitch_bend_c, 2, 8192
3, 5280, Note_off_c, 2, 69, 95
3, 5280, Note_on_c, 2, 69, 95
3, 5440, Pitch_bend_c, 2, 8192
3, 5600, Pitch_bend_c, 2, 8320
3, 5760, Pitch_bend_c, 2, 8192
3, 5920, Pitch_bend_c, 2, 8320
3, 6080, Pitch_bend_c, 2, 8192
3, 6240, Pitch_bend_c, 2, 8320
3, 6400, Pitch_bend_c, 2, 8192
3, 6560, Pitch_bend_c, 2, 8320
3, 6720, Pitch_bend_c, 2, 8192
3, 6880, Pitch_bend_c, 2, 8320
3, 7040, Pitch_bend_c, 2, 8192
3, 7200, Pitch_bend_c, 2, 8320
3, 7360, Pitch_bend_c, 2, 8192
3, 7520, Pitch_bend_c, 2, 8320
3, 7680, Pitch_bend_c, 2, 8192
3, 7680, Pitch_bend_c, 2, 8320
3, 7680, Pitch_bend_c, 2, 8192
3, 7680, Note_off_c, 2, 69, 95
3, 7680, Note_on_c, 2, 69, 95
3, 7840, Pitch_bend_c, 2, 8192
3, 8000, Pitch_bend_c, 2, 8320
3, 8160, Pitch_bend_c, 2, 8192
3, 8320, Pitch_bend_c, 2, 8320
3, 8480, Pitch_bend_c, 2, 8192
3, 8640, Pitch_bend_c, 2, 8320
3, 8800, Pitch_bend_c, 2, 8192
3, 8960, Pitch_bend_c, 2, 8320
3, 9120, Pitch_bend_c, 2, 8192
3, 9120, Pitch_bend_c, 2, 8320
3, 9120, Pitch_bend_c, 2, 8192
3, 9120, Note_off_c, 2, 69, 95
3, 9120, Note_on_c, 2, 69, 95
3, 9280, Pitch_bend_c, 2, 8192
3, 9440, Pitch_bend_c, 2, 8320
3, 9600, Pitch_bend_c, 2, 8192
3, 9760, Pitch_bend_c, 2, 8320
3, 9920, Pitch_bend_c, 2, 8192
3, 10080, Pitch_bend_c, 2, 8320
3, 10240, Pitch_bend_c, 2, 8192
3, 10400, Pitch_bend_c, 2, 8320
3, 10560, Pitch_bend_c, 2, 8192
3, 10720, Pitch_bend_c, 2, 8320
3, 10880, Pitch_bend_c, 2, 8192
3, 11040, Pitch_bend_c, 2, 8320
3, 11200, Pitch_bend_c, 2, 8192
3, 11360, Pitch_bend_c, 2, 8320
3, 11520, Pitch_bend_c, 2, 8192
3, 11520, Pitch_bend_c, 2, 8320
3, 11520, Pitch_bend_c, 2, 8192
3, 11520, Note_off_c, 2, 69, 95
3, 11520, Note_on_c, 2, 62, 95
3, 11680, Pitch_bend_c, 2, 8192
3, 11840, Pitch_bend_c, 2, 8320
3, 12000, Pitch_bend_c, 2, 8192
3, 12160, Pitch_bend_c, 2, 8320
3, 12320, Pitch_bend_c, 2, 8192
3, 12480, Pitch_bend_c, 2, 8320
3, 12480, Pitch_bend_c, 2, 8192
3, 12480, Note_off_c, 2, 62, 95
3, 12480, Note_on_c, 2, 69, 95
3, 12640, Pitch_bend_c, 2, 8192
3, 12800, Pitch_bend_c, 2, 8320
3, 12960, Pitch_bend_c, 2, 8192
3, 13120, Pitch_bend_c, 2, 8320
3, 13280, Pitch_bend_c, 2, 8192
3, 13440, Pitch_bend_c, 2, 8320
3, 13600, Pitch_bend_c, 2, 8192
3, 13760, Pitch_bend_c, 2, 8320
3, 13920, Pitch_bend_c, 2, 8192
3, 14080, Pitch_bend_c, 2, 8320
3, 14240, Pitch_bend_c, 2, 8192
3, 14400, Pitch_bend_c, 2, 8320
3, 14560, Pitch_bend_c, 2, 8192
3, 14720, Pitch_bend_c, 2, 8320
3, 14880, Pitch_bend_c, 2, 8192
3, 15040, Pitch_bend_c, 2, 8320
3, 15200, Pitch_bend_c, 2, 8192
3, 15360, Pitch_bend_c, 2, 8320
3, 15360, Pitch_bend_c, 2, 8192
3, 15360, Note_off_c, 2, 69, 95
3, 15360, Note_on_c, 2, 62, 95
3, 15520, Pitch_bend_c, 2, 8192
3, 15680, Pitch_bend_c, 2, 8320
3, 15840, Pitch_bend_c, 2, 8192
3, 15840, Pitch_bend_c, 2, 8320
3, 15840, Pitch_bend_c, 2, 8192
3, 15840, Note_off_c, 2, 62, 95
3, 15840, Note_on_c, 2, 64, 95
3, 16000, Pitch_bend_c, 2, 8192
3, 16160, Pitch_bend_c, 2, 8320
3, 16320, Pitch_bend_c, 2, 8192
3, 16320, Pitch_bend_c, 2, 8320
3, 16320, Pitch_bend_c, 2, 8192
3, 16320, Note_off_c, 2, 64, 95
3, 16320, Note_on_c, 2, 69, 95
3, 16480, Pitch_bend_c, 2, 8192
3, 16640, Pitch_bend_c, 2, 8320
3, 16800, Pitch_bend_c, 2, 8192
3, 16800, Pitch_bend_c, 2, 8320
3, 16800, Pitch_bend_c, 2, 8192
3, 16800, Note_off_c, 2, 69, 95
3, 16800, Note_on_c, 2, 62, 95
3, 16960, Pitch_bend_c, 2, 8192
3, 17120, Pitch_bend_c, 2, 8320
3, 17280, Pitch_bend_c, 2, 8192
3, 17280, Pitch_bend_c, 2, 8320
3, 17280, Pitch_bend_c, 2, 8192
3, 17280, Note_off_c, 2, 62, 95
3, 17280, Note_on_c, 2, 64, 95
3, 17440, Pitch_bend_c, 2, 8192
3, 17600, Pitch_bend_c, 2, 8320
3, 17760, Pitch_bend_c, 2, 8192
3, 17760, Pitch_bend_c, 2, 8320
3, 17760, Pitch_bend_c, 2, 8192
3, 17760, Note_off_c, 2, 64, 95
3, 17760, Note_on_c, 2, 69, 95
3, 17920, Pitch_bend_c, 2, 8192
3, 18080, Pitch_bend_c, 2, 8320
3, 18240, Pitch_bend_c, 2, 8192
3, 18240, Pitch_bend_c, 2, 8320
3, 18240, Pitch_bend_c, 2, 8192
3, 18240, Note_off_c, 2, 69, 95
3, 18240, Note_on_c, 2, 60, 95
3, 18400, Pitch_bend_c, 2, 8192
3, 18560, Pitch_bend_c, 2, 8320
3, 18720, Pitch_bend_c, 2, 8192
3, 18880, Pitch_bend_c, 2, 8320
3, 19040, Pitch_bend_c, 2, 8192
3, 19200, Pitch_bend_c, 2, 8320
3, 19200, Pitch_bend_c, 2, 8192
3, 19200, Note_off_c, 2, 60, 95
3, 19200, Note_on_c, 2, 69, 95
3, 19360, Pitch_bend_c, 2, 8192
3, 19520, Pitch_bend_c, 2, 8320
3, 19680, Pitch_bend_c, 2, 8192
3, 19840, Pitch_bend_c, 2, 8320
3, 20000, Pitch_bend_c, 2, 8192
3, 20160, Pitch_bend_c, 2, 8320
3, 20320, Pitch_bend_c, 2, 8192
3, 20480, Pitch_bend_c, 2, 8320
3, 20640, Pitch_bend_c, 2, 8192
3, 20640, Pitch_bend_c, 2, 8320
3, 20640, Pitch_bend_c, 2, 8192
3, 20640, Note_off_c, 2, 69, 95
3, 20640, Note_on_c, 2, 69, 95
3, 20800, Pitch_bend_c, 2, 8192
3, 20960, Pitch_bend_c, 2, 8320
3, 21120, Pitch_bend_c, 2, 8192
3, 21280, Pitch_bend_c, 2, 8320
3, 21440, Pitch_bend_c, 2, 8192
3, 21600, Pitch_bend_c, 2, 8320
3, 21760, Pitch_bend_c, 2, 8192
3, 21920, Pitch_bend_c, 2, 8320
3, 22080, Pitch_bend_c, 2, 8192
3, 22240, Pitch_bend_c, 2, 8320
3, 22400, Pitch_bend_c, 2, 8192
3, 22560, Pitch_bend_c, 2, 8320
3, 22720, Pitch_bend_c, 2, 8192
3, 22880, Pitch_bend_c, 2, 8320
3, 23040, Pitch_bend_c, 2, 8192
3, 23040, Pitch_bend_c, 2, 8320
3, 23040, Pitch_bend_c, 2, 8192
3, 23040, Note_off_c, 2, 69, 95
3, 23040, Note_on_c, 2, 69, 95
3, 23200, Pitch_bend_c, 2, 8192
3, 23360, Pitch_bend_c, 2, 8320
3, 23520, Pitch_bend_c, 2, 8192
3, 23680, Pitch_bend_c, 2, 8320
3, 23840, Pitch_bend_c, 2, 8192
3, 24000, Pitch_bend_c, 2, 8320
3, 24160, Pitch_bend_c, 2, 8192
3, 24320, Pitch_bend_c, 2, 8320
3, 24480, Pitch_bend_c, 2, 8192
3, 24480, Pitch_bend_c, 2, 8320
3, 24480, Pitch_bend_c, 2, 8192
3, 24480, Note_off_c, 2, 69, 95
3, 24480, Note_on_c, 2, 69, 95
3, 24640, Pitch_bend_c, 2, 8192
3, 24800, Pitch_bend_c, 2, 8320
3, 24960, Pitch_bend_c, 2, 8192
3, 25120, Pitch_bend_c, 2, 8320
3, 25280, Pitch_bend_c, 2, 8192
3, 25440, Pitch_bend_c, 2, 8320
3, 25600, Pitch_bend_c, 2, 8192
3, 25760, Pitch_bend_c, 2, 8320
3, 25920, Pitch_bend_c, 2, 8192
3, 26080, Pitch_bend_c, 2, 8320
3, 26240, Pitch_bend_c, 2, 8192
3, 26400, Pitch_bend_c, 2, 8320
3, 26560, Pitch_bend_c, 2, 8192
3, 26720, Pitch_bend_c, 2, 8320
3, 26880, Pitch_bend_c, 2, 8192
3, 26880, Pitch_bend_c, 2, 8320
3, 26880, Pitch_bend_c, 2, 8192
3, 26880, Note_off_c, 2, 69, 95
3, 26880, Note_on_c, 2, 62, 95
3, 27040, Pitch_bend_c, 2, 8192
3, 27200, Pitch_bend_c, 2, 8320
3, 27360, Pitch_bend_c, 2, 8192
3, 27520, Pitch_bend_c, 2, 8320
3, 27680, Pitch_bend_c, 2, 8192
3, 27840, Pitch_bend_c, 2, 8320
3, 27840, Pitch_bend_c, 2, 8192
3, 27840, Note_off_c, 2, 62, 95
3, 27840, Note_on_c, 2, 69, 95
3, 28000, Pitch_bend_c, 2, 8192
3, 28160, Pitch_bend_c, 2, 8320
3, 28320, Pitch_bend_c, 2, 8192
3, 28480, Pitch_bend_c, 2, 8320
3, 28640, Pitch_bend_c, 2, 8192
3, 28800, Pitch_bend_c, 2, 8320
3, 28960, Pitch_bend_c, 2, 8192
3, 29120, Pitch_bend_c, 2, 8320
3, 29280, Pitch_bend_c, 2, 8192
3, 29440, Pitch_bend_c, 2, 8320
3, 29600, Pitch_bend_c, 2, 8192
3, 29760, Pitch_bend_c, 2, 8320
3, 29920, Pitch_bend_c, 2, 8192
3, 30080, Pitch_bend_c, 2, 8320
3, 30240, Pitch_bend_c, 2, 8192
3, 30400, Pitch_bend_c, 2, 8320
3, 30560, Pitch_bend_c, 2, 8192
3, 30720, Pitch_bend_c, 2, 8320
3, 30720, Pitch_bend_c, 2, 8192
3, 30720, Note_off_c, 2, 69, 95
3, 30720, Note_on_c, 2, 62, 95
3, 30880, Pitch_bend_c, 2, 8192
3, 31040, Pitch_bend_c, 2, 8320
3, 31200, Pitch_bend_c, 2, 8192
3, 31200, Pitch_bend_c, 2, 8320
3, 31200, Pitch_bend_c, 2, 8192
3, 31200, Note_off_c, 2, 62, 95
3, 31200, Note_on_c, 2, 64, 95
3, 31360, Pitch_bend_c, 2, 8192
3, 31520, Pitch_bend_c, 2, 8320
3, 31680, Pitch_bend_c, 2, 8192
3, 31680, Pitch_bend_c, 2, 8320
3, 31680, Pitch_bend_c, 2, 8192
3, 31680, Note_off_c, 2, 64, 95
3, 31680, Note_on_c, 2, 69, 95
3, 31840, Pitch_bend_c, 2, 8192
3, 32000, Pitch_bend_c, 2, 8320
3, 32160, Pitch_bend_c, 2, 8192
3, 32160, Pitch_bend_c, 2, 8320
3, 32160, Pitch_bend_c, 2, 8192
3, 32160, Note_off_c, 2, 69, 95
3, 32160, Note_on_c, 2, 62, 95
3, 32320, Pitch_bend_c, 2, 8192
3, 32480, Pitch_bend_c, 2, 8320
3, 32640, Pitch_bend_c, 2, 8192
3, 32640, Pitch_bend_c, 2, 8320
3, 32640, Pitch_bend_c, 2, 8192
3, 32640, Note_off_c, 2, 62, 95
3, 32640, Note_on_c, 2, 64, 95
3, 32800, Pitch_bend_c, 2, 8192
3, 32960, Pitch_bend_c, 2, 8320
3, 33120, Pitch_bend_c, 2, 8192
3, 33120, Pitch_bend_c, 2, 8320
3, 33120, Pitch_bend_c, 2, 8192
3, 33120, Note_off_c, 2, 64, 95
3, 33120, Note_on_c, 2, 69, 95
3, 33280, Pitch_bend_c, 2, 8192
3, 33440, Pitch_bend_c, 2, 8320
3, 33600, Pitch_bend_c, 2, 8192
3, 33600, Pitch_bend_c, 2, 8320
3, 33600, Pitch_bend_c, 2, 8192
3, 33600, Note_off_c, 2, 69, 95
3, 33600, Note_on_c, 2, 60, 95
3, 33760, Pitch_bend_c, 2, 8192
3, 33920, Pitch_bend_c, 2, 8320
3, 34080, Pitch_bend_c, 2, 8192
3, 34240, Pitch_bend_c, 2, 8320
3, 34400, Pitch_bend_c, 2, 8192
3, 34560, Pitch_bend_c, 2, 8320
3, 34560, Pitch_bend_c, 2, 8192
3, 34560, Note_off_c, 2, 60, 95
3, 34560, Note_on_c, 2, 69, 95
3, 34720, Pitch_bend_c, 2, 8192
3, 34880, Pitch_bend_c, 2, 8320
3, 35040, Pitch_bend_c, 2, 8192
3, 35200, Pitch_bend_c, 2, 8320
3, 35360, Pitch_bend_c, 2, 8192
3, 35520, Pitch_bend_c, 2, 8320
3, 35680, Pitch_bend_c, 2, 8192
3, 35840, Pitch_bend_c, 2, 8320
3, 36000, Pitch_bend_c, 2, 8192
3, 36000, Pitch_bend_c, 2, 8320
3, 36000, Pitch_bend_c, 2, 8192
3, 36000, Note_off_c, 2, 69, 95
3, 36000, Note_on_c, 2, 69, 95
3, 36160, Pitch_bend_c, 2, 8192
3, 36320, Pitch_bend_c, 2, 8320
3, 36480, Pitch_bend_c, 2, 8192
3, 36640, Pitch_bend_c, 2, 8320
3, 36800, Pitch_bend_c, 2, 8192
3, 36960, Pitch_bend_c, 2, 8320
3, 37120, Pitch_bend_c, 2, 8192
3, 37280, Pitch_bend_c, 2, 8320
3, 37440, Pitch_bend_c, 2, 8192
3, 37600, Pitch_bend_c, 2, 8320
3, 37760, Pitch_bend_c, 2, 8192
3, 37920, Pitch_bend_c, 2, 8320
3, 38080, Pitch_bend_c, 2, 8192
3, 38240, Pitch_bend_c, 2, 8320
3, 38400, Pitch_bend_c, 2, 8192
3, 38400, Pitch_bend_c, 2, 8320
3, 38400, Pitch_bend_c, 2, 8192
3, 38400, Note_off_c, 2, 69, 95
3, 38400, Note_on_c, 2, 69, 95
3, 38560, Pitch_bend_c, 2, 8192
3, 38720, Pitch_bend_c, 2, 8320
3, 38880, Pitch_bend_c, 2, 8192
3, 39040, Pitch_bend_c, 2, 8320
3, 39200, Pitch_bend_c, 2, 8192
3, 39360, Pitch_bend_c, 2, 8320
3, 39520, Pitch_bend_c, 2, 8192
3, 39680, Pitch_bend_c, 2, 8320
3, 39840, Pitch_bend_c, 2, 8192
3, 39840, Pitch_bend_c, 2, 8320
3, 39840, Pitch_bend_c, 2, 8192
3, 39840, Note_off_c, 2, 69, 95
3, 39840, Note_on_c, 2, 69, 95
3, 40000, Pitch_bend_c, 2, 8192
3, 40160, Pitch_bend_c, 2, 8320
3, 40320, Pitch_bend_c, 2, 8192
3, 40480, Pitch_bend_c, 2, 8320
3, 40640, Pitch_bend_c, 2, 8192
3, 40800, Pitch_bend_c, 2, 8320
3, 40960, Pitch_bend_c, 2, 8192
3, 41120, Pitch_bend_c, 2, 8320
3, 41280, Pitch_bend_c, 2, 8192
3, 41440, Pitch_bend_c, 2, 8320
3, 41600, Pitch_bend_c, 2, 8192
3, 41760, Pitch_bend_c, 2, 8320
3, 41920, Pitch_bend_c, 2, 8192
3, 42080, Pitch_bend_c, 2, 8320
3, 42240, Pitch_bend_c, 2, 8192
3, 42240, Pitch_bend_c, 2, 8320
3, 42240, Pitch_bend_c, 2, 8192
3, 42240, Note_off_c, 2, 69, 95
3, 42240, Note_on_c, 2, 62, 95
3, 42400, Pitch_bend_c, 2, 8192
3, 42560, Pitch_bend_c, 2, 8320
3, 42720, Pitch_bend_c, 2, 8192
3, 42880, Pitch_bend_c, 2, 8320
3, 43040, Pitch_bend_c, 2, 8192
3, 43200, Pitch_bend_c, 2, 8320
3, 43200, Pitch_bend_c, 2, 8192
3, 43200, Note_off_c, 2, 62, 95
3, 43200, Note_on_c, 2, 69, 95
3, 43360, Pitch_bend_c, 2, 8192
3, 43520, Pitch_bend_c, 2, 8320
3, 43680, Pitch_bend_c, 2, 8192
3, 43840, Pitch_bend_c, 2, 8320
3, 44000, Pitch_bend_c, 2, 8192
3, 44160, Pitch_bend_c, 2, 8320
3, 44320, Pitch_bend_c, 2, 8192
3, 44480, Pitch_bend_c, 2, 8320
3, 44640, Pitch_bend_c, 2, 8192
3, 44800, Pitch_bend_c, 2, 8320
3, 44960, Pitch_bend_c, 2, 8192
3, 45120, Pitch_bend_c, 2, 8320
3, 45280, Pitch_bend_c, 2, 8192
3, 45440, Pitch_bend_c, 2, 8320
3, 45600, Pitch_bend_c, 2, 8192
3, 45760, Pitch_bend_c, 2, 8320
3, 45920, Pitch_bend_c, 2, 8192
3, 46080, Pitch_bend_c, 2, 8320
3, 46080, Pitch_bend_c, 2, 8192
3, 46080, Note_off_c, 2, 69, 95
3, 46080, Note_on_c, 2, 62, 95
3, 46240, Pitch_bend_c, 2, 8192
3, 46400, Pitch_bend_c, 2, 8320
3, 46560, Pitch_bend_c, 2, 8192
3, 46560, Pitch_bend_c, 2, 8320
3, 46560, Pitch_bend_c, 2, 8192
3, 46560, Note_off_c, 2, 62, 95
3, 46560, Note_on_c, 2, 64, 95
3, 46720, Pitch_bend_c, 2, 8192
3, 46880, Pitch_bend_c, 2, 8320
3, 47040, Pitch_bend_c, 2, 8192
3, 47040, Pitch_bend_c, 2, 8320
3, 47040, Pitch_bend_c, 2, 8192
3, 47040, Note_off_c, 2, 64, 95
3, 47040, Note_on_c, 2, 69, 95
3, 47200, Pitch_bend_c, 2, 8192
3, 47360, Pitch_bend_c, 2, 8320
3, 47520, Pitch_bend_c, 2, 8192
3, 47520, Pitch_bend_c, 2, 8320
3, 47520, Pitch_bend_c, 2, 8192
3, 47520, Note_off_c, 2, 69, 95
3, 47520, Note_on_c, 2, 62, 95
3, 47680, Pitch_bend_c, 2, 8192
3, 47840, Pitch_bend_c, 2, 8320
3, 48000, Pitch_bend_c, 2, 8192
3, 48000, Pitch_bend_c, 2, 8320
3, 48000, Pitch_bend_c, 2, 8192
3, 48000, Note_off_c, 2, 62, 95
3, 48000, Note_on_c, 2, 64, 95
3, 48160, Pitch_bend_c, 2, 8192
3, 48320, Pitch_bend_c, 2, 8320
3, 48480, Pitch_bend_c, 2, 8192
3, 48480, Pitch_bend_c, 2, 8320
3, 48480, Pitch_bend_c, 2, 8192
3, 48480, Note_off_c, 2, 64, 95
3, 48480, Note_on_c, 2, 69, 95
3, 48640, Pitch_bend_c, 2, 8192
3, 48800, Pitch_bend_c, 2, 8320
3, 48960, Pitch_bend_c, 2, 8192
3, 48960, Pitch_bend_c, 2, 8320
3, 48960, Pitch_bend_c, 2, 8192
3, 48960, Note_off_c, 2, 69, 95
3, 48960, Note_on_c, 2, 60, 95
3, 49120, Pitch_bend_c, 2, 8192
3, 49280, Pitch_bend_c, 2, 8320
3, 49440, Pitch_bend_c, 2, 8192
3, 49600, Pitch_bend_c, 2, 8320
3, 49760, Pitch_bend_c, 2, 8192
3, 49920, Pitch_bend_c, 2, 8320
3, 49920, Pitch_bend_c, 2, 8192
3, 49920, Note_off_c, 2, 60, 95
3, 49920, Note_on_c, 2, 69, 95
3, 50080, Pitch_bend_c, 2, 8192
3, 50240, Pitch_bend_c, 2, 8320
3, 50400, Pitch_bend_c, 2, 8192
3, 50560, Pitch_bend_c, 2, 8320
3, 50720, Pitch_bend_c, 2, 8192
3, 50880, Pitch_bend_c, 2, 8320
3, 51040, Pitch_bend_c, 2, 8192
3, 51200, Pitch_bend_c, 2, 8320
3, 51360, Pitch_bend_c, 2, 8192
3, 51360, Pitch_bend_c, 2, 8320
3, 51360, Pitch_bend_c, 2, 8192
3, 51360, Note_off_c, 2, 69, 95
3, 51360, Note_on_c, 2, 69, 95
3, 51520, Pitch_bend_c, 2, 8192
3, 51680, Pitch_bend_c, 2, 8320
3, 51840, Pitch_bend_c, 2, 8192
3, 52000, Pitch_bend_c, 2, 8320
3, 52160, Pitch_bend_c, 2, 8192
3, 52320, Pitch_bend_c, 2, 8320
3, 52480, Pitch_bend_c, 2, 8192
3, 52640, Pitch_bend_c, 2, 8320
3, 52800, Pitch_bend_c, 2, 8192
3, 52960, Pitch_bend_c, 2, 8320
3, 53120, Pitch_bend_c, 2, 8192
3, 53280, Pitch_bend_c, 2, 8320
3, 53440, Pitch_bend_c, 2, 8192
3, 53600, Pitch_bend_c, 2, 8320
3, 53760, Pitch_bend_c, 2, 8192
3, 53760, Pitch_bend_c, 2, 8320
3, 53760, Pitch_bend_c, 2, 8192
3, 53760, Note_off_c, 2, 69, 95
3, 53760, Note_on_c, 2, 69, 95
3, 53920, Pitch_bend_c, 2, 8192
3, 54080, Pitch_bend_c, 2, 8320
3, 54240, Pitch_bend_c, 2, 8192
3, 54400, Pitch_bend_c, 2, 8320
3, 54560, Pitch_bend_c, 2, 8192
3, 54720, Pitch_bend_c, 2, 8320
3, 54880, Pitch_bend_c, 2, 8192
3, 55040, Pitch_bend_c, 2, 8320
3, 55200, Pitch_bend_c, 2, 8192
3, 55200, Pitch_bend_c, 2, 8320
3, 55200, Pitch_bend_c, 2, 8192
3, 55200, Note_off_c, 2, 69, 95
3, 55200, Note_on_c, 2, 69, 95
3, 55360, Pitch_bend_c, 2, 8192
3, 55520, Pitch_bend_c, 2, 8320
3, 55680, Pitch_bend_c, 2, 8192
3, 55840, Pitch_bend_c, 2, 8320
3, 56000, Pitch_bend_c, 2, 8192
3, 56160, Pitch_bend_c, 2, 8320
3, 56320, Pitch_bend_c, 2, 8192
3, 56480, Pitch_bend_c, 2, 8320
3, 56640, Pitch_bend_c, 2, 8192
3, 56800, Pitch_bend_c, 2, 8320
3, 56960, Pitch_bend_c, 2, 8192
3, 57120, Pitch_bend_c, 2, 8320
3, 57280, Pitch_bend_c, 2, 8192
3, 57440, Pitch_bend_c, 2, 8320
3, 57600, Pitch_bend_c, 2, 8192
3, 57600, Pitch_bend_c, 2, 8320
3, 57600, Pitch_bend_c, 2, 8192
3, 57600, Note_off_c, 2, 69, 95
3, 57600, Note_on_c, 2, 62, 95
3, 57760, Pitch_bend_c, 2, 8192
3, 57920, Pitch_bend_c, 2, 8320
3, 58080, Pitch_bend_c, 2, 8192
3, 58240, Pitch_bend_c, 2, 8320
3, 58400, Pitch_bend_c, 2, 8192
3, 58560, Pitch_bend_c, 2, 8320
3, 58560, Pitch_bend_c, 2, 8192
3, 58560, Note_off_c, 2, 62, 95
3, 58560, Note_on_c, 2, 69, 95
3, 58720, Pitch_bend_c, 2, 8192
3, 58880, Pitch_bend_c, 2, 8320
3, 59040, Pitch_bend_c, 2, 8192
3, 59200, Pitch_bend_c, 2, 8320
3, 59360, Pitch_bend_c, 2, 8192
3, 59520, Pitch_bend_c, 2, 8320
3, 59680, Pitch_bend_c, 2, 8192
3, 59840, Pitch_bend_c, 2, 8320
3, 60000, Pitch_bend_c, 2, 8192
3, 60160, Pitch_bend_c, 2, 8320
3, 60320, Pitch_bend_c, 2, 8192
3, 60480, Pitch_bend_c, 2, 8320
3, 60640, Pitch_bend_c, 2, 8192
3, 60800, Pitch_bend_c, 2, 8320
3, 60960, Pitch_bend_c, 2, 8192
3, 61120, Pitch_bend_c, 2, 8320
3, 61280, Pitch_bend_c, 2, 8192
3, 61440, Pitch_bend_c, 2, 8320
3, 61440, Pitch_bend_c, 2, 8192
3, 61440, Note_off_c, 2, 69, 95
3, 61440, Note_on_c, 2, 62, 95
3, 61600, Pitch_bend_c, 2, 8192
3, 61760, Pitch_bend_c, 2, 8320
3, 61920, Pitch_bend_c, 2, 8192
3, 61920, Pitch_bend_c, 2, 8320
3, 61920, Pitch_bend_c, 2, 8192
3, 61920, Note_off_c, 2, 62, 95
3, 61920, Note_on_c, 2, 64, 95
3, 62080, Pitch_bend_c, 2, 8192
3, 62240, Pitch_bend_c, 2, 8320
3, 62400, Pitch_bend_c, 2, 8192
3, 62400, Pitch_bend_c, 2, 8320
3, 62400, Pitch_bend_c, 2, 8192
3, 62400, Note_off_c, 2, 64, 95
3, 62400, Note_on_c, 2, 69, 95
3, 62560, Pitch_bend_c, 2, 8192
3, 62720, Pitch_bend_c, 2, 8320
3, 62880, Pitch_bend_c, 2, 8192
3, 62880, Pitch_bend_c, 2, 8320
3, 62880, Pitch_bend_c, 2, 8192
3, 62880, Note_off_c, 2, 69, 95
3, 62880, Note_on_c, 2, 62, 95
3, 63040, Pitch_bend_c, 2, 8192
3, 63200, Pitch_bend_c, 2, 8320
3, 63360, Pitch_bend_c, 2, 8192
3, 63360, Pitch_bend_c, 2, 8320
3, 63360, Pitch_bend_c, 2, 8192
3, 63360, Note_off_c, 2, 62, 95
3, 63360, Note_on_c, 2, 64, 95
3, 63520, Pitch_bend_c, 2, 8192
3, 63680, Pitch_bend_c, 2, 8320
3, 63840, Pitch_bend_c, 2, 8192
3, 63840, Pitch_bend_c, 2, 8320
3, 63840, Pitch_bend_c, 2, 8192
3, 63840, Note_off_c, 2, 64, 95
3, 63840, Note_on_c, 2, 69, 95
3, 64000, Pitch_bend_c, 2, 8192
3, 64160, Pitch_bend_c, 2, 8320
3, 64320, Pitch_bend_c, 2, 8192
3, 64320, Pitch_bend_c, 2, 8320
3, 64320, Pitch_bend_c, 2, 8192
3, 64320, Note_off_c, 2, 69, 95
3, 64320, Note_on_c, 2, 60, 95
3, 64480, Pitch_bend_c, 2, 8192
3, 64640, Pitch_bend_c, 2, 8320
3, 64800, Pitch_bend_c, 2, 8192
3, 64960, Pitch_bend_c, 2, 8320
3, 65120, Pitch_bend_c, 2, 8192
3, 65280, Pitch_bend_c, 2, 8320
3, 65280, Pitch_bend_c, 2, 8192
3, 65280, Note_off_c, 2, 60, 95
3, 65280, Note_on_c, 2, 69, 95
3, 65440, Pitch_bend_c, 2, 8192
3, 65600, Pitch_bend_c, 2, 8320
3, 65760, Pitch_bend_c, 2, 8192
3, 65920, Pitch_bend_c, 2, 8320
3, 66080, Pitch_bend_c, 2, 8192
3, 66240, Pitch_bend_c, 2, 8320
3, 66400, Pitch_bend_c, 2, 8192
3, 66560, Pitch_bend_c, 2, 8320
3, 66720, Pitch_bend_c, 2, 8192
3, 66720, Pitch_bend_c, 2, 8320
3, 66720, Pitch_bend_c, 2, 8192
3, 66720, Note_off_c, 2, 69, 95
3, 66720, Note_on_c, 2, 69, 95
3, 66880, Pitch_bend_c, 2, 8192
3, 67040, Pitch_bend_c, 2, 8320
3, 67200, Pitch_bend_c, 2, 8192
3, 67360, Pitch_bend_c, 2, 8320
3, 67520, Pitch_bend_c, 2, 8192
3, 67680, Pitch_bend_c, 2, 8320
3, 67840, Pitch_bend_c, 2, 8192
3, 68000, Pitch_bend_c, 2, 8320
3, 68160, Pitch_bend_c, 2, 8192
3, 68320, Pitch_bend_c, 2, 8320
3, 68480, Pitch_bend_c, 2, 8192
3, 68640, Pitch_bend_c, 2, 8320
3, 68800, Pitch_bend_c, 2, 8192
3, 68960, Pitch_bend_c, 2, 8320
3, 69120, Pitch_bend_c, 2, 8192
3, 69120, Pitch_bend_c, 2, 8320
3, 69120, Pitch_bend_c, 2, 8192
3, 69120, Note_off_c, 2, 69, 95
3, 69120, Note_on_c, 2, 69, 95
3, 69280, Pitch_bend_c, 2, 8192
3, 69440, Pitch_bend_c, 2, 8320
3, 69600, Pitch_bend_c, 2, 8192
3, 69760, Pitch_bend_c, 2, 8320
3, 69920, Pitch_bend_c, 2, 8192
3, 70080, Pitch_bend_c, 2, 8320
3, 70240, Pitch_bend_c, 2, 8192
3, 70400, Pitch_bend_c, 2, 8320
3, 70560, Pitch_bend_c, 2, 8192
3, 70560, Pitch_bend_c, 2, 8320
3, 70560, Pitch_bend_c, 2, 8192
3, 70560, Note_off_c, 2, 69, 95
3, 70560, Note_on_c, 2, 69, 95
3, 70720, Pitch_bend_c, 2, 8192
3, 70880, Pitch_bend_c, 2, 8320
3, 71040, Pitch_bend_c, 2, 8192
3, 71200, Pitch_bend_c, 2, 8320
3, 71360, Pitch_bend_c, 2, 8192
3, 71520, Pitch_bend_c, 2, 8320
3, 71680, Pitch_bend_c, 2, 8192
3, 71840, Pitch_bend_c, 2, 8320
3, 72000, Pitch_bend_c, 2, 8192
3, 72160, Pitch_bend_c, 2, 8320
3, 72320, Pitch_bend_c, 2, 8192
3, 72480, Pitch_bend_c, 2, 8320
3, 72640, Pitch_bend_c, 2, 8192
3, 72800, Pitch_bend_c, 2, 8320
3, 72960, Pitch_bend_c, 2, 8192
3, 72960, Pitch_bend_c, 2, 8320
3, 72960, Pitch_bend_c, 2, 8192
3, 72960, Note_off_c, 2, 69, 95
3, 72960, Note_on_c, 2, 62, 95
3, 73120, Pitch_bend_c, 2, 8192
3, 73280, Pitch_bend_c, 2, 8320
3, 73440, Pitch_bend_c, 2, 8192
3, 73600, Pitch_bend_c, 2, 8320
3, 73760, Pitch_bend_c, 2, 8192
3, 73920, Pitch_bend_c, 2, 8320
3, 73920, Pitch_bend_c, 2, 8192
3, 73920, Note_off_c, 2, 62, 95
3, 73920, Note_on_c, 2, 69, 95
3, 74080, Pitch_bend_c, 2, 8192
3, 74240, Pitch_bend_c, 2, 8320
3, 74400, Pitch_bend_c, 2, 8192
3, 74560, Pitch_bend_c, 2, 8320
3, 74720, Pitch_bend_c, 2, 8192
3, 74880, Pitch_bend_c, 2, 8320
3, 75040, Pitch_bend_c, 2, 8192
3, 75200, Pitch_bend_c, 2, 8320
3, 75360, Pitch_bend_c, 2, 8192
3, 75520, Pitch_bend_c, 2, 8320
3, 75680, Pitch_bend_c, 2, 8192
3, 75840, Pitch_bend_c, 2, 8320
3, 76000, Pitch_bend_c, 2, 8192
3, 76160, Pitch_bend_c, 2, 8320
3, 76320, Pitch_bend_c, 2, 8192
3, 76480, Pitch_bend_c, 2, 8320
3, 76640, Pitch_bend_c, 2, 8192
3, 76800, Pitch_bend_c, 2, 8320
3, 76800, Pitch_bend_c, 2, 8192
3, 76800, Note_off_c, 2, 69, 95
3, 76800, Note_on_c, 2, 62, 95
3, 76960, Pitch_bend_c, 2, 8192
3, 77120, Pitch_bend_c, 2, 8320
3, 77280, Pitch_bend_c, 2, 8192
3, 77280, Pitch_bend_c, 2, 8320
3, 77280, Pitch_bend_c, 2, 8192
3, 77280, Note_off_c, 2, 62, 95
3, 77280, Note_on_c, 2, 64, 95
3, 77440, Pitch_bend_c, 2, 8192
3, 77600, Pitch_bend_c, 2, 8320
3, 77760, Pitch_bend_c, 2, 8192
3, 77760, Pitch_bend_c, 2, 8320
3, 77760, Pitch_bend_c, 2, 8192
3, 77760, Note_off_c, 2, 64, 95
3, 77760, Note_on_c, 2, 69, 95
3, 77920, Pitch_bend_c, 2, 8192
3, 78080, Pitch_bend_c, 2, 8320
3, 78240, Pitch_bend_c, 2, 8192
3, 78240, Pitch_bend_c, 2, 8320
3, 78240, Pitch_bend_c, 2, 8192
3, 78240, Note_off_c, 2, 69, 95
3, 78240, Note_on_c, 2, 62, 95
3, 78400, Pitch_bend_c, 2, 8192
3, 78560, Pitch_bend_c, 2, 8320
3, 78720, Pitch_bend_c, 2, 8192
3, 78720, Pitch_bend_c, 2, 8320
3, 78720, Pitch_bend_c, 2, 8192
3, 78720, Note_off_c, 2, 62, 95
3, 78720, Note_on_c, 2, 64, 95
3, 78880, Pitch_bend_c, 2, 8192
3, 79040, Pitch_bend_c, 2, 8320
3, 79200, Pitch_bend_c, 2, 8192
3, 79200, Pitch_bend_c, 2, 8320
3, 79200, Pitch_bend_c, 2, 8192
3, 79200, Note_off_c, 2, 64, 95
3, 79200, Note_on_c, 2, 69, 95
3, 79360, Pitch_bend_c, 2, 8192
3, 79520, Pitch_bend_c, 2, 8320
3, 79680, Pitch_bend_c, 2, 8192
3, 79680, Pitch_bend_c, 2, 8320
3, 79680, Pitch_bend_c, 2, 8192
3, 79680, Note_off_c, 2, 69, 95
3, 79680, Note_on_c, 2, 60, 95
3, 79840, Pitch_bend_c, 2, 8192
3, 80000, Pitch_bend_c, 2, 8320
3, 80160, Pitch_bend_c, 2, 8192
3, 80320, Pitch_bend_c, 2, 8320
3, 80480, Pitch_bend_c, 2, 8192
3, 80640, Pitch_bend_c, 2, 8320
3, 80640, Pitch_bend_c, 2, 8192
3, 80640, Note_off_c, 2, 60, 95
3, 80640, Note_on_c, 2, 69, 95
3, 80800, Pitch_bend_c, 2, 8192
3, 80960, Pitch_bend_c, 2, 8320
3, 81120, Pitch_bend_c, 2, 8192
3, 81280, Pitch_bend_c, 2, 8320
3, 81440, Pitch_bend_c, 2, 8192
3, 81600, Pitch_bend_c, 2, 8320
3, 81760, Pitch_bend_c, 2, 8192
3, 81920, Pitch_bend_c, 2, 8320
3, 82080, Pitch_bend_c, 2, 8192
3, 82080, Pitch_bend_c, 2, 8320
3, 82080, Pitch_bend_c, 2, 8192
3, 82080, Note_off_c, 2, 69, 95
3, 82080, Note_on_c, 2, 69, 95
3, 82240, Pitch_bend_c, 2, 8192
3, 82400, Pitch_bend_c, 2, 8320
3, 82560, Pitch_bend_c, 2, 8192
3, 82720, Pitch_bend_c, 2, 8320
3, 82880, Pitch_bend_c, 2, 8192
3, 83040, Pitch_bend_c, 2, 8320
3, 83200, Pitch_bend_c, 2, 8192
3, 83360, Pitch_bend_c, 2, 8320
3, 83520, Pitch_bend_c, 2, 8192
3, 83680, Pitch_bend_c, 2, 8320
3, 83840, Pitch_bend_c, 2, 8192
3, 84000, Pitch_bend_c, 2, 8320
3, 84160, Pitch_bend_c, 2, 8192
3, 84320, Pitch_bend_c, 2, 8320
3, 84480, Pitch_bend_c, 2, 8192
3, 84480, Pitch_bend_c, 2, 8320
3, 84480, Pitch_bend_c, 2, 8192
3, 84480, Note_off_c, 2, 69, 95
3, 84480, Note_on_c, 2, 69, 95
3, 84640, Pitch_bend_c, 2, 8192
3, 84800, Pitch_bend_c, 2, 8320
3, 84960, Pitch_bend_c, 2, 8192
3, 85120, Pitch_bend_c, 2, 8320
3, 85280, Pitch_bend_c, 2, 8192
3, 85440, Pitch_bend_c, 2, 8320
3, 85600, Pitch_bend_c, 2, 8192
3, 85760, Pitch_bend_c, 2, 8320
3, 85920, Pitch_bend_c, 2, 8192
3, 85920, Pitch_bend_c, 2, 8320
3, 85920, Pitch_bend_c, 2, 8192
3, 85920, Note_off_c, 2, 69, 95
3, 85920, Note_on_c, 2, 69, 95
3, 86080, Pitch_bend_c, 2, 8192
3, 86240, Pitch_bend_c, 2, 8320
3, 86400, Pitch_bend_c, 2, 8192
3, 86560, Pitch_bend_c, 2, 8320
3, 86720, Pitch_bend_c, 2, 8192
3, 86880, Pitch_bend_c, 2, 8320
3, 87040, Pitch_bend_c, 2, 8192
3, 87200, Pitch_bend_c, 2, 8320
3, 87360, Pitch_bend_c, 2, 8192
3, 87520, Pitch_bend_c, 2, 8320
3, 87680, Pitch_bend_c, 2, 8192
3, 87840, Pitch_bend_c, 2, 8320
3, 88000, Pitch_bend_c, 2, 8192
3, 88160, Pitch_bend_c, 2, 8320
3, 88320, Pitch_bend_c, 2, 8192
3, 88320, Pitch_bend_c, 2, 8320
3, 88320, Pitch_bend_c, 2, 8192
3, 88320, Note_off_c, 2, 69, 95
3, 88320, Note_on_c, 2, 62, 95
3, 88480, Pitch_bend_c, 2, 8192
3, 88640, Pitch_bend_c, 2, 8320
3, 88800, Pitch_bend_c, 2, 8192
3, 88960, Pitch_bend_c, 2, 8320
3, 89120, Pitch_bend_c, 2, 8192
3, 89280, Pitch_bend_c, 2, 8320
3, 89280, Pitch_bend_c, 2, 8192
3, 89280, Note_off_c, 2, 62, 95
3, 89280, Note_on_c, 2, 69, 95
3, 89440, Pitch_bend_c, 2, 8192
3, 89600, Pitch_bend_c, 2, 8320
3, 89760, Pitch_bend_c, 2, 8192
3, 89920, Pitch_bend_c, 2, 8320
3, 90080, Pitch_bend_c, 2, 8192
3, 90240, Pitch_bend_c, 2, 8320
3, 90400, Pitch_bend_c, 2, 8192
3, 90560, Pitch_bend_c, 2, 8320
3, 90720, Pitch_bend_c, 2, 8192
3, 90880, Pitch_bend_c, 2, 8320
3, 91040, Pitch_bend_c, 2, 8192
3, 91200, Pitch_bend_c, 2, 8320
3, 91360, Pitch_bend_c, 2, 8192
3, 91520, Pitch_bend_c, 2, 8320
3, 91680, Pitch_bend_c, 2, 8192
3, 91840, Pitch_bend_c, 2, 8320
3, 92000, Pitch_bend_c, 2, 8192
3, 92160, Pitch_bend_c, 2, 8320
3, 92160, Pitch_bend_c, 2, 8192
3, 92160, Note_off_c, 2, 69, 95
3, 92160, Note_on_c, 2, 62, 95
3, 92320, Pitch_bend_c, 2, 8192
3, 92480, Pitch_bend_c, 2, 8320
3, 92640, Pitch_bend_c, 2, 8192
3, 92640, Pitch_bend_c, 2, 8320
3, 92640, Pitch_bend_c, 2, 8192
3, 92640, Note_off_c, 2, 62, 95
3, 92640, Note_on_c, 2, 64, 95
3, 92800, Pitch_bend_c, 2, 8192
3, 92960, Pitch_bend_c, 2, 8320
3, 93120, Pitch_bend_c, 2, 8192
3, 93120, Pitch_bend_c, 2, 8320
3, 93120, Pitch_bend_c, 2, 8192
3, 93120, Note_off_c, 2, 64, 95
3, 93120, Note_on_c, 2, 69, 95
3, 93280, Pitch_bend_c, 2, 8192
3, 93440, Pitch_bend_c, 2, 8320
3, 93600, Pitch_bend_c, 2, 8192
3, 93600, Pitch_bend_c, 2, 8320
3, 93600, Pitch_bend_c, 2, 8192
3, 93600, Note_off_c, 2, 69, 95
3, 93600, Note_on_c, 2, 62, 95
3, 93760, Pitch_bend_c, 2, 8192
3, 93920, Pitch_bend_c, 2, 8320
3, 94080, Pitch_bend_c, 2, 8192
3, 94080, Pitch_bend_c, 2, 8320
3, 94080, Pitch_bend_c, 2, 8192
3, 94080, Note_off_c, 2, 62, 95
3, 94080, Note_on_c, 2, 64, 95
3, 94240, Pitch_bend_c, 2, 8192
3, 94400, Pitch_bend_c, 2, 8320
3, 94560, Pitch_bend_c, 2, 8192
3, 94560, Pitch_bend_c, 2, 8320
3, 94560, Pitch_bend_c, 2, 8192
3, 94560, Note_off_c, 2, 64, 95
3, 94560, Note_on_c, 2, 69, 95
3, 94720, Pitch_bend_c, 2, 8192
3, 94880, Pitch_bend_c, 2, 8320
3, 95040, Pitch_bend_c, 2, 8192
3, 95040, Pitch_bend_c, 2, 8320
3, 95040, Pitch_bend_c, 2, 8192
3, 95040, Note_off_c, 2, 69, 95
3, 95040, Note_on_c, 2, 60, 95
3, 95200, Pitch_bend_c, 2, 8192
3, 95360, Pitch_bend_c, 2, 8320
3, 95520, Pitch_bend_c, 2, 8192
3, 95680, Pitch_bend_c, 2, 8320
3, 95840, Pitch_bend_c, 2, 8192
3, 96000, Pitch_bend_c, 2, 8320
3, 96000, Pitch_bend_c, 2, 8192
3, 96000, Note_off_c, 2, 60, 95
3, 96000, Note_on_c, 2, 69, 95
3, 96160, Pitch_bend_c, 2, 8192
3, 96320, Pitch_bend_c, 2, 8320
3, 96480, Pitch_bend_c, 2, 8192
3, 96640, Pitch_bend_c, 2, 8320
3, 96800, Pitch_bend_c, 2, 8192
3, 96960, Pitch_bend_c, 2, 8320
3, 97120, Pitch_bend_c, 2, 8192
3, 97280, Pitch_bend_c, 2, 8320
3, 97440, Pitch_bend_c, 2, 8192
3, 97440, Pitch_bend_c, 2, 8320
3, 97440, Pitch_bend_c, 2, 8192
3, 97440, Note_off_c, 2, 69, 95
3, 97440, Note_on_c, 2, 69, 95
3, 97600, Pitch_bend_c, 2, 8192
3, 97760, Pitch_bend_c, 2, 8320
3, 97920, Pitch_bend_c, 2, 8192
3, 98080, Pitch_bend_c, 2, 8320
3, 98240, Pitch_bend_c, 2, 8192
3, 98400, Pitch_bend_c, 2, 8320
3, 98560, Pitch_bend_c, 2, 8192
3, 98720, Pitch_bend_c, 2, 8320
3, 98880, Pitch_bend_c, 2, 8192
3, 99040, Pitch_bend_c, 2, 8320
3, 99200, Pitch_bend_c, 2, 8192
3, 99360, Pitch_bend_c, 2, 8320
3, 99520, Pitch_bend_c, 2, 8192
3, 99680, Pitch_bend_c, 2, 8320
3, 99840, Pitch_bend_c, 2, 8192
3, 99840, Pitch_bend_c, 2, 8320
3, 99840, Pitch_bend_c, 2, 8192
3, 99840, Note_off_c, 2, 69, 95
3, 99840, Note_on_c, 2, 69, 95
3, 100000, Pitch_bend_c, 2, 8192
3, 100160, Pitch_bend_c, 2, 8320
3, 100320, Pitch_bend_c, 2, 8192
3, 100480, Pitch_bend_c, 2, 8320
3, 100640, Pitch_bend_c, 2, 8192
3, 100800, Pitch_bend_c, 2, 8320
3, 100960, Pitch_bend_c, 2, 8192
3, 101120, Pitch_bend_c, 2, 8320
3, 101280, Pitch_bend_c, 2, 8192
3, 101280, Pitch_bend_c, 2, 8320
3, 101280, Pitch_bend_c, 2, 8192
3, 101280, Note_off_c, 2, 69, 95
3, 101280, Note_on_c, 2, 69, 95
3, 101440, Pitch_bend_c, 2, 8192
3, 101600, Pitch_bend_c, 2, 8320
3, 101760, Pitch_bend_c, 2, 8192
3, 101920, Pitch_bend_c, 2, 8320
3, 102080, Pitch_bend_c, 2, 8192
3, 102240, Pitch_bend_c, 2, 8320
3, 102400, Pitch_bend_c, 2, 8192
3, 102560, Pitch_bend_c, 2, 8320
3, 102720, Pitch_bend_c, 2, 8192
3, 102880, Pitch_bend_c, 2, 8320
3, 103040, Pitch_bend_c, 2, 8192
3, 103200, Pitch_bend_c, 2, 8320
3, 103360, Pitch_bend_c, 2, 8192
3, 103520, Pitch_bend_c, 2, 8320
3, 103680, Pitch_bend_c, 2, 8192
3, 103680, Pitch_bend_c, 2, 8320
3, 103680, Pitch_bend_c, 2, 8192
3, 103680, Note_off_c, 2, 69, 95
3, 103680, Note_on_c, 2, 62, 95
3, 103840, Pitch_bend_c, 2, 8192
3, 104000, Pitch_bend_c, 2, 8320
3, 104160, Pitch_bend_c, 2, 8192
3, 104320, Pitch_bend_c, 2, 8320
3, 104480, Pitch_bend_c, 2, 8192
3, 104640, Pitch_bend_c, 2, 8320
3, 104640, Pitch_bend_c, 2, 8192
3, 104640, Note_off_c, 2, 62, 95
3, 104640, Note_on_c, 2, 69, 95
3, 104800, Pitch_bend_c, 2, 8192
3, 104960, Pitch_bend_c, 2, 8320
3, 105120, Pitch_bend_c, 2, 8192
3, 105280, Pitch_bend_c, 2, 8320
3, 105440, Pitch_bend_c, 2, 8192
3, 105600, Pitch_bend_c, 2, 8320
3, 105760, Pitch_bend_c, 2, 8192
3, 105920, Pitch_bend_c, 2, 8320
3, 106080, Pitch_bend_c, 2, 8192
3, 106240, Pitch_bend_c, 2, 8320
3, 106400, Pitch_bend_c, 2, 8192
3, 106560, Pitch_bend_c, 2, 8320
3, 106720, Pitch_bend_c, 2, 8192
3, 106880, Pitch_bend_c, 2, 8320
3, 107040, Pitch_bend_c, 2, 8192
3, 107200, Pitch_bend_c, 2, 8320
3, 107360, Pitch_bend_c, 2, 8192
3, 107520, Pitch_bend_c, 2, 8320
3, 107520, Pitch_bend_c, 2, 8192
3, 107520, Note_off_c, 2, 69, 95
3, 107520, Note_on_c, 2, 62, 95
3, 107680, Pitch_bend_c, 2, 8192
3, 107840, Pitch_bend_c, 2, 8320
3, 108000, Pitch_bend_c, 2, 8192
3, 108000, Pitch_bend_c, 2, 8320
3, 108000, Pitch_bend_c, 2, 8192
3, 108000, Note_off_c, 2, 62, 95
3, 108000, Note_on_c, 2, 64, 95
3, 108160, Pitch_bend_c, 2, 8192
3, 108320, Pitch_bend_c, 2, 8320
3, 108480, Pitch_bend_c, 2, 8192
3, 108480, Pitch_bend_c, 2, 8320
3, 108480, Pitch_bend_c, 2, 8192
3, 108480, Note_off_c, 2, 64, 95
3, 108480, Note_on_c, 2, 69, 95
3, 108640, Pitch_bend_c, 2, 8192
3, 108800, Pitch_bend_c, 2, 8320
3, 108960, Pitch_bend_c, 2, 8192
3, 108960, Pitch_bend_c, 2, 8320
3, 108960, Pitch_bend_c, 2, 8192
3, 108960, Note_off_c, 2, 69, 95
3, 108960, Note_on_c, 2, 62, 95
3, 109120, Pitch_bend_c, 2, 8192
3, 109280, Pitch_bend_c, 2, 8320
3, 109440, Pitch_bend_c, 2, 8192
3, 109440, Pitch_bend_c, 2, 8320
3, 109440, Pitch_bend_c, 2, 8192
3, 109440, Note_off_c, 2, 62, 95
3, 109440, Note_on_c, 2, 64, 95
3, 109600, Pitch_bend_c, 2, 8192
3, 109760, Pitch_bend_c, 2, 8320
3, 109920, Pitch_bend_c, 2, 8192
3, 109920, Pitch_bend_c, 2, 8320
3, 109920, Pitch_bend_c, 2, 8192
3, 109920, Note_off_c, 2, 64, 95
3, 109920, Note_on_c, 2, 69, 95
3, 110080, Pitch_bend_c, 2, 8192
3, 110240, Pitch_bend_c, 2, 8320
3, 110400, Pitch_bend_c, 2, 8192
3, 110400, Pitch_bend_c, 2, 8320
3, 110400, Pitch_bend_c, 2, 8192
3, 110400, Note_off_c, 2, 69, 95
3, 110400, Note_on_c, 2, 60, 95
3, 110560, Pitch_bend_c, 2, 8192
3, 110720, Pitch_bend_c, 2, 8320
3, 110880, Pitch_bend_c, 2, 8192
3, 111040, Pitch_bend_c, 2, 8320
3, 111200, Pitch_bend_c, 2, 8192
3, 111360, Pitch_bend_c, 2, 8320
3, 111360, Pitch_bend_c, 2, 8192
3, 111360, Note_off_c, 2, 60, 95
3, 111360, Note_on_c, 2, 69, 95
3, 111520, Pitch_bend_c, 2, 8192
3, 111680, Pitch_bend_c, 2, 8320
3, 111840, Pitch_bend_c, 2, 8192
3, 112000, Pitch_bend_c, 2, 8320
3, 112160, Pitch_bend_c, 2, 8192
3, 112320, Pitch_bend_c, 2, 8320
3, 112480, Pitch_bend_c, 2, 8192
3, 112640, Pitch_bend_c, 2, 8320
3, 112800, Pitch_bend_c, 2, 8192
3, 112800, Pitch_bend_c, 2, 8320
3, 112800, Pitch_bend_c, 2, 8192
3, 112800, Note_off_c, 2, 69, 95
3, 112800, Note_on_c, 2, 69, 95
3, 112960, Pitch_bend_c, 2, 8192
3, 113120, Pitch_bend_c, 2, 8320
3, 113280, Pitch_bend_c, 2, 8192
3, 113440, Pitch_bend_c, 2, 8320
3, 113600, Pitch_bend_c, 2, 8192
3, 113760, Pitch_bend_c, 2, 8320
3, 113920, Pitch_bend_c, 2, 8192
3, 114080, Pitch_bend_c, 2, 8320
3, 114240, Pitch_bend_c, 2, 8192
3, 114400, Pitch_bend_c, 2, 8320
3, 114560, Pitch_bend_c, 2, 8192
3, 114720, Pitch_bend_c, 2, 8320
3, 114880, Pitch_bend_c, 2, 8192
3, 115040, Pitch_bend_c, 2, 8320
3, 115200, Pitch_bend_c, 2, 8192
3, 115200, Pitch_bend_c, 2, 8320
3, 115200, Pitch_bend_c, 2, 8192
3, 115200, Note_off_c, 2, 69, 95
3, 115200, Note_on_c, 2, 69, 95
3, 115360, Pitch_bend_c, 2, 8192
3, 115520, Pitch_bend_c, 2, 8320
3, 115680, Pitch_bend_c, 2, 8192
3, 115840, Pitch_bend_c, 2, 8320
3, 116000, Pitch_bend_c, 2, 8192
3, 116160, Pitch_bend_c, 2, 8320
3, 116320, Pitch_bend_c, 2, 8192
3, 116480, Pitch_bend_c, 2, 8320
3, 116640, Pitch_bend_c, 2, 8192
3, 116640, Pitch_bend_c, 2, 8320
3, 116640, Pitch_bend_c, 2, 8192
3, 116640, Note_off_c, 2, 69, 95
3, 116640, Note_on_c, 2, 69, 95
3, 116800, Pitch_bend_c, 2, 8192
3, 116960, Pitch_bend_c, 2, 8320
3, 117120, Pitch_bend_c, 2, 8192
3, 117280, Pitch_bend_c, 2, 8320
3, 117440, Pitch_bend_c, 2, 8192
3, 117600, Pitch_bend_c, 2, 8320
3, 117760, Pitch_bend_c, 2, 8192
3, 117920, Pitch_bend_c, 2, 8320
3, 118080, Pitch_bend_c, 2, 8192
3, 118240, Pitch_bend_c, 2, 8320
3, 118400, Pitch_bend_c, 2, 8192
3, 118560, Pitch_bend_c, 2, 8320
3, 118720, Pitch_bend_c, 2, 8192
3, 118880, Pitch_bend_c, 2, 8320
3, 119040, Pitch_bend_c, 2, 8192
3, 119040, Pitch_bend_c, 2, 8320
3, 119040, Pitch_bend_c, 2, 8192
3, 119040, Note_off_c, 2, 69, 95
3, 119040, Note_on_c, 2, 62, 95
3, 119200, Pitch_bend_c, 2, 8192
3, 119360, Pitch_bend_c, 2, 8320
3, 119520, Pitch_bend_c, 2, 8192
3, 119680, Pitch_bend_c, 2, 8320
3, 119840, Pitch_bend_c, 2, 8192
3, 120000, Pitch_bend_c, 2, 8320
3, 120000, Pitch_bend_c, 2, 8192
3, 120000, Note_off_c, 2, 62, 95
3, 120000, Note_on_c, 2, 69, 95
3, 120160, Pitch_bend_c, 2, 8192
3, 120320, Pitch_bend_c, 2, 8320
3, 120480, Pitch_bend_c, 2, 8192
3, 120640, Pitch_bend_c, 2, 8320
3, 120800, Pitch_bend_c, 2, 8192
3, 120960, Pitch_bend_c, 2, 8320
3, 121120, Pitch_bend_c, 2, 8192
3, 121280, Pitch_bend_c, 2, 8320
3, 121440, Pitch_bend_c, 2, 8192
3, 121600, Pitch_bend_c, 2, 8320
3, 121760, Pitch_bend_c, 2, 8192
3, 121920, Pitch_bend_c, 2, 8320
3, 122080, Pitch_bend_c, 2, 8192
3, 122240, Pitch_bend_c, 2, 8320
3, 122400, Pitch_bend_c, 2, 8192
3, 122560, Pitch_bend_c, 2, 8320
3, 122720, Pitch_bend_c, 2, 8192
3, 122880, Pitch_bend_c, 2, 8320
3, 122880, Pitch_bend_c, 2, 8192
3, 122880, Note_off_c, 2, 69, 95
3, 122880, Note_on_c, 2, 62, 95
3, 123040, Pitch_bend_c, 2, 8192
3, 123200, Pitch_bend_c, 2, 8320
3, 123360, Pitch_bend_c, 2, 8192
3, 123360, Pitch_bend_c, 2, 8320
3, 123360, Pitch_bend_c, 2, 8192
3, 123360, Note_off_c, 2, 62, 95
3, 123360, Note_on_c, 2, 64, 95
3, 123520, Pitch_bend_c, 2, 8192
3, 123680, Pitch_bend_c, 2, 8320
3, 123840, Pitch_bend_c, 2, 8192
3, 123840, Pitch_bend_c, 2, 8320
3, 123840, Pitch_bend_c, 2, 8192
3, 123840, Note_off_c, 2, 64, 95
3, 123840, Note_on_c, 2, 69, 95
3, 124000, Pitch_bend_c, 2, 8192
3, 124160, Pitch_bend_c, 2, 8320
3, 124320, Pitch_bend_c, 2, 8192
3, 124320, Pitch_bend_c, 2, 8320
3, 124320, Pitch_bend_c, 2, 8192
3, 124320, Note_off_c, 2, 69, 95
3, 124320, Note_on_c, 2, 62, 95
3, 124480, Pitch_bend_c, 2, 8192
3, 124640, Pitch_bend_c, 2, 8320
3, 124800, Pitch_bend_c, 2, 8192
3, 124800, Pitch_bend_c, 2, 8320
3, 124800, Pitch_bend_c, 2, 8192
3, 124800, Note_off_c, 2, 62, 95
3, 124800, Note_on_c, 2, 64, 95
3, 124960, Pitch_bend_c, 2, 8192
3, 125120, Pitch_bend_c, 2, 8320
3, 125280, Pitch_bend_c, 2, 8192
3, 125280, Pitch_bend_c, 2, 8320
3, 125280, Pitch_bend_c, 2, 8192
3, 125280, Note_off_c, 2, 64, 95
3, 125280, Note_on_c, 2, 69, 95
3, 125440, Pitch_bend_c, 2, 8192
3, 125600, Pitch_bend_c, 2, 8320
3, 125760, Pitch_bend_c, 2, 8192
3, 125760, Pitch_bend_c, 2, 8320
3, 125760, Pitch_bend_c, 2, 8192
3, 125760, Note_off_c, 2, 69, 95
3, 125760, Note_on_c, 2, 60, 95
3, 125920, Pitch_bend_c, 2, 8192
3, 126080, Pitch_bend_c, 2, 8320
3, 126240, Pitch_bend_c, 2, 8192
3, 126400, Pitch_bend_c, 2, 8320
3, 126560, Pitch_bend_c, 2, 8192
3, 126720, Pitch_bend_c, 2, 8320
3, 126720, Pitch_bend_c, 2, 8192
3, 126720, Note_off_c, 2, 60, 95
3, 126720, Note_on_c, 2, 69, 95
3, 126880, Pitch_bend_c, 2, 8192
3, 127040, Pitch_bend_c, 2, 8320
3, 127200, Pitch_bend_c, 2, 8192
3, 127360, Pitch_bend_c, 2, 8320
3, 127520, Pitch_bend_c, 2, 8192
3, 127680, Pitch_bend_c, 2, 8320
3, 127840, Pitch_bend_c, 2, 8192
3, 128000, Pitch_bend_c, 2, 8320
3, 128160, Pitch_bend_c, 2, 8192
3, 128160, Pitch_bend_c, 2, 8320
3, 128160, Pitch_bend_c, 2, 8192
3, 128160, Note_off_c, 2, 69, 95
3, 128160, Note_on_c, 2, 69, 95
3, 128320, Pitch_bend_c, 2, 8192
3, 128480, Pitch_bend_c, 2, 8320
3, 128640, Pitch_bend_c, 2, 8192
3, 128800, Pitch_bend_c, 2, 8320
3, 128960, Pitch_bend_c, 2, 8192
3, 129120, Pitch_bend_c, 2, 8320
3, 129280, Pitch_bend_c, 2, 8192
3, 129440, Pitch_bend_c, 2, 8320
3, 129600, Pitch_bend_c, 2, 8192
3, 129760, Pitch_bend_c, 2, 8320
3, 129920, Pitch_bend_c, 2, 8192
3, 130080, Pitch_bend_c, 2, 8320
3, 130240, Pitch_bend_c, 2, 8192
3, 130400, Pitch_bend_c, 2, 8320
3, 130560, Pitch_bend_c, 2, 8192
3, 130560, Pitch_bend_c, 2, 8320
3, 130560, Pitch_bend_c, 2, 8192
3, 130560, Note_off_c, 2, 69, 95
3, 130560, Note_on_c, 2, 69, 95
3, 130720, Pitch_bend_c, 2, 8192
3, 130880, Pitch_bend_c, 2, 8320
3, 131040, Pitch_bend_c, 2, 8192
3, 131200, Pitch_bend_c, 2, 8320
3, 131360, Pitch_bend_c, 2, 8192
3, 131520, Pitch_bend_c, 2, 8320
3, 131680, Pitch_bend_c, 2, 8192
3, 131840, Pitch_bend_c, 2, 8320
3, 132000, Pitch_bend_c, 2, 8192
3, 132000, Pitch_bend_c, 2, 8320
3, 132000, Pitch_bend_c, 2, 8192
3, 132000, Note_off_c, 2, 69, 95
3, 132000, Note_on_c, 2, 69, 95
3, 132160, Pitch_bend_c, 2, 8192
3, 132320, Pitch_bend_c, 2, 8320
3, 132480, Pitch_bend_c, 2, 8192
3, 132640, Pitch_bend_c, 2, 8320
3, 132800, Pitch_bend_c, 2, 8192
3, 132960, Pitch_bend_c, 2, 8320
3, 133120, Pitch_bend_c, 2, 8192
3, 133280, Pitch_bend_c, 2, 8320
3, 133440, Pitch_bend_c, 2, 8192
3, 133600, Pitch_bend_c, 2, 8320
3, 133760, Pitch_bend_c, 2, 8192
3, 133920, Pitch_bend_c, 2, 8320
3, 134080, Pitch_bend_c, 2, 8192
3, 134240, Pitch_bend_c, 2, 8320
3, 134400, Pitch_bend_c, 2, 8192
3, 134400, Pitch_bend_c, 2, 8320
3, 134400, Pitch_bend_c, 2, 8192
3, 134400, Note_off_c, 2, 69, 95
3, 134400, Note_on_c, 2, 62, 95
3, 134560, Pitch_bend_c, 2, 8192
3, 134720, Pitch_bend_c, 2, 8320
3, 134880, Pitch_bend_c, 2, 8192
3, 135040, Pitch_bend_c, 2, 8320
3, 135200, Pitch_bend_c, 2, 8192
3, 135360, Pitch_bend_c, 2, 8320
3, 135360, Pitch_bend_c, 2, 8192
3, 135360, Note_off_c, 2, 62, 95
3, 135360, Note_on_c, 2, 69, 95
3, 135520, Pitch_bend_c, 2, 8192
3, 135680, Pitch_bend_c, 2, 8320
3, 135840, Pitch_bend_c, 2, 8192
3, 136000, Pitch_bend_c, 2, 8320
3, 136160, Pitch_bend_c, 2, 8192
3, 136320, Pitch_bend_c, 2, 8320
3, 136480, Pitch_bend_c, 2, 8192
3, 136640, Pitch_bend_c, 2, 8320
3, 136800, Pitch_bend_c, 2, 8192
3, 136960, Pitch_bend_c, 2, 8320
3, 137120, Pitch_bend_c, 2, 8192
3, 137280, Pitch_bend_c, 2, 8320
3, 137440, Pitch_bend_c, 2, 8192
3, 137600, Pitch_bend_c, 2, 8320
3, 137760, Pitch_bend_c, 2, 8192
3, 137920, Pitch_bend_c, 2, 8320
3, 138080, Pitch_bend_c, 2, 8192
3, 138240, Pitch_bend_c, 2, 8320
3, 138240, Pitch_bend_c, 2, 8192
3, 138240, Note_off_c, 2, 69, 95
3, 138240, Note_on_c, 2, 62, 95
3, 138400, Pitch_bend_c, 2, 8192
3, 138560, Pitch_bend_c, 2, 8320
3, 138720, Pitch_bend_c, 2, 8192
3, 138720, Pitch_bend_c, 2, 8320
3, 138720, Pitch_bend_c, 2, 8192
3, 138720, Note_off_c, 2, 62, 95
3, 138720, Note_on_c, 2, 64, 95
3, 138880, Pitch_bend_c, 2, 8192
3, 139040, Pitch_bend_c, 2, 8320
3, 139200, Pitch_bend_c, 2, 8192
3, 139200, Pitch_bend_c, 2, 8320
3, 139200, Pitch_bend_c, 2, 8192
3, 139200, Note_off_c, 2, 64, 95
3, 139200, Note_on_c, 2, 69, 95
3, 139360, Pitch_bend_c, 2, 8192
3, 139520, Pitch_bend_c, 2, 8320
3, 139680, Pitch_bend_c, 2, 8192
3, 139680, Pitch_bend_c, 2, 8320
3, 139680, Pitch_bend_c, 2, 8192
3, 139680, Note_off_c, 2, 69, 95
3, 139680, Note_on_c, 2, 62, 95
3, 139840, Pitch_bend_c, 2, 8192
3, 140000, Pitch_bend_c, 2, 8320
3, 140160, Pitch_bend_c, 2, 8192
3, 140160, Pitch_bend_c, 2, 8320
3, 140160, Pitch_bend_c, 2, 8192
3, 140160, Note_off_c, 2, 62, 95
3, 140160, Note_on_c, 2, 64, 95
3, 140320, Pitch_bend_c, 2, 8192
3, 140480, Pitch_bend_c, 2, 8320
3, 140640, Pitch_bend_c, 2, 8192
3, 140640, Pitch_bend_c, 2, 8320
3, 140640, Pitch_bend_c, 2, 8192
3, 140640, Note_off_c, 2, 64, 95
3, 140640, Note_on_c, 2, 69, 95
3, 140800, Pitch_bend_c, 2, 8192
3, 140960, Pitch_bend_c, 2, 8320
3, 141120, Pitch_bend_c, 2, 8192
3, 141120, Pitch_bend_c, 2, 8320
3, 141120, Pitch_bend_c, 2, 8192
3, 141120, Note_off_c, 2, 69, 95
3, 141120, Note_on_c, 2, 60, 95
3, 141280, Pitch_bend_c, 2, 8192
3, 141440, Pitch_bend_c, 2, 8320
3, 141600, Pitch_bend_c, 2, 8192
3, 141760, Pitch_bend_c, 2, 8320
3, 141920, Pitch_bend_c, 2, 8192
3, 142080, Pitch_bend_c, 2, 8320
3, 142080, Pitch_bend_c, 2, 8192
3, 142080, Note_off_c, 2, 60, 95
3, 142080, Note_on_c, 2, 69, 95
3, 142240, Pitch_bend_c, 2, 8192
3, 142400, Pitch_bend_c, 2, 8320
3, 142560, Pitch_bend_c, 2, 8192
3, 142720, Pitch_bend_c, 2, 8320
3, 142880, Pitch_bend_c, 2, 8192
3, 143040, Pitch_bend_c, 2, 8320
3, 143200, Pitch_bend_c, 2, 8192
3, 143360, Pitch_bend_c, 2, 8320
3, 143520, Pitch_bend_c, 2, 8192
3, 143520, Pitch_bend_c, 2, 8320
3, 143520, Pitch_bend_c, 2, 8192
3, 143520, Note_off_c, 2, 69, 95
3, 143520, Note_on_c, 2, 69, 95
3, 143680, Pitch_bend_c, 2, 8192
3, 143840, Pitch_bend_c, 2, 8320
3, 144000, Pitch_bend_c, 2, 8192
3, 144160, Pitch_bend_c, 2, 8320
3, 144320, Pitch_bend_c, 2, 8192
3, 144480, Pitch_bend_c, 2, 8320
3, 144640, Pitch_bend_c, 2, 8192
3, 144800, Pitch_bend_c, 2, 8320
3, 144960, Pitch_bend_c, 2, 8192
3, 145120, Pitch_bend_c, 2, 8320
3, 145280, Pitch_bend_c, 2, 8192
3, 145440, Pitch_bend_c, 2, 8320
3, 145600, Pitch_bend_c, 2, 8192
3, 145760, Pitch_bend_c, 2, 8320
3, 145920, Pitch_bend_c, 2, 8192
3, 145920, Pitch_bend_c, 2, 8320
3, 145920, Pitch_bend_c, 2, 8192
3, 145920, Note_off_c, 2, 69, 95
3, 145920, Note_on_c, 2, 69, 95
3, 146080, Pitch_bend_c, 2, 8192
3, 146240, Pitch_bend_c, 2, 8320
3, 146400, Pitch_bend_c, 2, 8192
3, 146560, Pitch_bend_c, 2, 8320
3, 146720, Pitch_bend_c, 2, 8192
3, 146880, Pitch_bend_c, 2, 8320
3, 147040, Pitch_bend_c, 2, 8192
3, 147200, Pitch_bend_c, 2, 8320
3, 147360, Pitch_bend_c, 2, 8192
3, 147360, Pitch_bend_c, 2, 8320
3, 147360, Pitch_bend_c, 2, 8192
3, 147360, Note_off_c, 2, 69, 95
3, 147360, Note_on_c, 2, 69, 95
3, 147520, Pitch_bend_c, 2, 8192
3, 147680, Pitch_bend_c, 2, 8320
3, 147840, Pitch_bend_c, 2, 8192
3, 148000, Pitch_bend_c, 2, 8320
3, 148160, Pitch_bend_c, 2, 8192
3, 148320, Pitch_bend_c, 2, 8320
3, 148480, Pitch_bend_c, 2, 8192
3, 148640, Pitch_bend_c, 2, 8320
3, 148800, Pitch_bend_c, 2, 8192
3, 148960, Pitch_bend_c, 2, 8320
3, 149120, Pitch_bend_c, 2, 8192
3, 149280, Pitch_bend_c, 2, 8320
3, 149440, Pitch_bend_c, 2, 8192
3, 149600, Pitch_bend_c, 2, 8320
3, 149760, Pitch_bend_c, 2, 8192
3, 149760, Pitch_bend_c, 2, 8320
3, 149760, Pitch_bend_c, 2, 8192
3, 149760, Note_off_c, 2, 69, 95
3, 149760, Note_on_c, 2, 62, 95
3, 149920, Pitch_bend_c, 2, 8192
3, 150080, Pitch_bend_c, 2, 8320
3, 150240, Pitch_bend_c, 2, 8192
3, 150400, Pitch_bend_c, 2, 8320
3, 150560, Pitch_bend_c, 2, 8192
3, 150720, Pitch_bend_c, 2, 8320
3, 150720, Pitch_bend_c, 2, 8192
3, 150720, Note_off_c, 2, 62, 95
3, 150720, Note_on_c, 2, 69, 95
3, 150880, Pitch_bend_c, 2, 8192
3, 151040, Pitch_bend_c, 2, 8320
3, 151200, Pitch_bend_c, 2, 8192
3, 151360, Pitch_bend_c, 2, 8320
3, 151520, Pitch_bend_c, 2, 8192
3, 151680, Pitch_bend_c, 2, 8320
3, 151840, Pitch_bend_c, 2, 8192
3, 152000, Pitch_bend_c, 2, 8320
3, 152160, Pitch_bend_c, 2, 8192
3, 152320, Pitch_bend_c, 2, 8320
3, 152480, Pitch_bend_c, 2, 8192
3, 152640, Pitch_bend_c, 2, 8320
3, 152800, Pitch_bend_c, 2, 8192
3, 152960, Pitch_bend_c, 2, 8320
3, 153120, Pitch_bend_c, 2, 8192
3, 153280, Pitch_bend_c, 2, 8320
3, 153440, Pitch_bend_c, 2, 8192
3, 153600, Pitch_bend_c, 2, 8320
3, 153600, Pitch_bend_c, 2, 8192
3, 153600, Note_off_c, 2, 69, 95
3, 153600, Note_on_c, 2, 62, 95
3, 153760, Pitch_bend_c, 2, 8192
3, 153920, Pitch_bend_c, 2, 8320
3, 154080, Pitch_bend_c, 2, 8192
3, 154080, Pitch_bend_c, 2, 8320
3, 154080, Pitch_bend_c, 2, 8192
3, 154080, Note_off_c, 2, 62, 95
3, 154080, Note_on_c, 2, 64, 95
3, 154240, Pitch_bend_c, 2, 8192
3, 154400, Pitch_bend_c, 2, 8320
3, 154560, Pitch_bend_c, 2, 8192
3, 154560, Pitch_bend_c, 2, 8320
3, 154560, Pitch_bend_c, 2, 8192
3, 154560, Note_off_c, 2, 64, 95
3, 154560, Note_on_c, 2, 69, 95
3, 154720, Pitch_bend_c, 2, 8192
3, 154880, Pitch_bend_c, 2, 8320
3, 155040, Pitch_bend_c, 2, 8192
3, 155040, Pitch_bend_c, 2, 8320
3, 155040, Pitch_bend_c, 2, 8192
3, 155040, Note_off_c, 2, 69, 95
3, 155040, Note_on_c, 2, 62, 95
3, 155200, Pitch_bend_c, 2, 8192
3, 155360, Pitch_bend_c, 2, 8320
3, 155520, Pitch_bend_c, 2, 8192
3, 155520, Pitch_bend_c, 2, 8320
3, 155520, Pitch_bend_c, 2, 8192
3, 155520, Note_off_c, 2, 62, 95
3, 155520, Note_on_c, 2, 64, 95
3, 155680, Pitch_bend_c, 2, 8192
3, 155840, Pitch_bend_c, 2, 8320
3, 156000, Pitch_bend_c, 2, 8192
3, 156000, Pitch_bend_c, 2, 8320
3, 156000, Pitch_bend_c, 2, 8192
3, 156000, Note_off_c, 2, 64, 95
3, 156000, Note_on_c, 2, 69, 95
3, 156160, Pitch_bend_c, 2, 8192
3, 156320, Pitch_bend_c, 2, 8320
3, 156480, Pitch_bend_c, 2, 8192
3, 156480, Pitch_bend_c, 2, 8320
3, 156480, Pitch_bend_c, 2, 8192
3, 156480, Note_off_c, 2, 69, 95
3, 156480, Note_on_c, 2, 60, 95
3, 156640, Pitch_bend_c, 2, 8192
3, 156800, Pitch_bend_c, 2, 8320
3, 156960, Pitch_bend_c, 2, 8192
3, 157120, Pitch_bend_c, 2, 8320
3, 157280, Pitch_bend_c, 2, 8192
3, 157440, Pitch_bend_c, 2, 8320
3, 157440, Pitch_bend_c, 2, 8192
3, 157440, Note_off_c, 2, 60, 95
3, 157440, Note_on_c, 2, 69, 95
3, 157600, Pitch_bend_c, 2, 8192
3, 157760, Pitch_bend_c, 2, 8320
3, 157920, Pitch_bend_c, 2, 8192
3, 158080, Pitch_bend_c, 2, 8320
3, 158240, Pitch_bend_c, 2, 8192
3, 158400, Pitch_bend_c, 2, 8320
3, 158560, Pitch_bend_c, 2, 8192
3, 158720, Pitch_bend_c, 2, 8320
3, 158880, Pitch_bend_c, 2, 8192
3, 158880, Pitch_bend_c, 2, 8320
3, 158880, Pitch_bend_c, 2, 8192
3, 158880, Note_off_c, 2, 69, 95
3, 158880, Note_on_c, 2, 69, 95
3, 159040, Pitch_bend_c, 2, 8192
3, 159200, Pitch_bend_c, 2, 8320
3, 159360, Pitch_bend_c, 2, 8192
3, 159520, Pitch_bend_c, 2, 8320
3, 159680, Pitch_bend_c, 2, 8192
3, 159840, Pitch_bend_c, 2, 8320
3, 160000, Pitch_bend_c, 2, 8192
3, 160160, Pitch_bend_c, 2, 8320
3, 160320, Pitch_bend_c, 2, 8192
3, 160480, Pitch_bend_c, 2, 8320
3, 160640, Pitch_bend_c, 2, 8192
3, 160800, Pitch_bend_c, 2, 8320
3, 160960, Pitch_bend_c, 2, 8192
3, 161120, Pitch_bend_c, 2, 8320
3, 161280, Pitch_bend_c, 2, 8192
3, 161280, Pitch_bend_c, 2, 8320
3, 161280, Pitch_bend_c, 2, 8192
3, 161280, Note_off_c, 2, 69, 95
3, 161280, Note_on_c, 2, 69, 95
3, 161440, Pitch_bend_c, 2, 8192
3, 161600, Pitch_bend_c, 2, 8320
3, 161760, Pitch_bend_c, 2, 8192
3, 161920, Pitch_bend_c, 2, 8320
3, 162080, Pitch_bend_c, 2, 8192
3, 162240, Pitch_bend_c, 2, 8320
3, 162400, Pitch_bend_c, 2, 8192
3, 162560, Pitch_bend_c, 2, 8320
3, 162720, Pitch_bend_c, 2, 8192
3, 162720, Pitch_bend_c, 2, 8320
3, 162720, Pitch_bend_c, 2, 8192
3, 162720, Note_off_c, 2, 69, 95
3, 162720, Note_on_c, 2, 69, 95
3, 162880, Pitch_bend_c, 2, 8192
3, 163040, Pitch_bend_c, 2, 8320
3, 163200, Pitch_bend_c, 2, 8192
3, 163360, Pitch_bend_c, 2, 8320
3, 163520, Pitch_bend_c, 2, 8192
3, 163680, Pitch_bend_c, 2, 8320
3, 163840, Pitch_bend_c, 2, 8192
3, 164000, Pitch_bend_c, 2, 8320
3, 164160, Pitch_bend_c, 2, 8192
3, 164320, Pitch_bend_c, 2, 8320
3, 164480, Pitch_bend_c, 2, 8192
3, 164640, Pitch_bend_c, 2, 8320
3, 164800, Pitch_bend_c, 2, 8192
3, 164960, Pitch_bend_c, 2, 8320
3, 165120, Pitch_bend_c, 2, 8192
3, 165120, Pitch_bend_c, 2, 8320
3, 165120, Pitch_bend_c, 2, 8192
3, 165120, Note_off_c, 2, 69, 95
3, 165120, Note_on_c, 2, 62, 95
3, 165280, Pitch_bend_c, 2, 8192
3, 165440, Pitch_bend_c, 2, 8320
3, 165600, Pitch_bend_c, 2, 8192
3, 165760, Pitch_bend_c, 2, 8320
3, 165920, Pitch_bend_c, 2, 8192
3, 166080, Pitch_bend_c, 2, 8320
3, 166080, Pitch_bend_c, 2, 8192
3, 166080, Note_off_c, 2, 62, 95
3, 166080, Note_on_c, 2, 69, 95
3, 166240, Pitch_bend_c, 2, 8192
3, 166400, Pitch_bend_c, 2, 8320
3, 166560, Pitch_bend_c, 2, 8192
3, 166720, Pitch_bend_c, 2, 8320
3, 166880, Pitch_bend_c, 2, 8192
3, 167040, Pitch_bend_c, 2, 8320
3, 167200, Pitch_bend_c, 2, 8192
3, 167360, Pitch_bend_c, 2, 8320
3, 167520, Pitch_bend_c, 2, 8192
3, 167680, Pitch_bend_c, 2, 8320
3, 167840, Pitch_bend_c, 2, 8192
3, 168000, Pitch_bend_c, 2, 8320
3, 168160, Pitch_bend_c, 2, 8192
3, 168320, Pitch_bend_c, 2, 8320
3, 168480, Pitch_bend_c, 2, 8192
3, 168640, Pitch_bend_c, 2, 8320
3, 168800, Pitch_bend_c, 2, 8192
3, 168960, Pitch_bend_c, 2, 8320
3, 168960, Pitch_bend_c, 2, 8192
3, 168960, Note_off_c, 2, 69, 95
3, 168960, Note_on_c, 2, 62, 95
3, 169120, Pitch_bend_c, 2, 8192
3, 169280, Pitch_bend_c, 2, 8320
3, 169440, Pitch_bend_c, 2, 8192
3, 169440, Pitch_bend_c, 2, 8320
3, 169440, Pitch_bend_c, 2, 8192
3, 169440, Note_off_c, 2, 62, 95
3, 169440, Note_on_c, 2, 64, 95
3, 169600, Pitch_bend_c, 2, 8192
3, 169760, Pitch_bend_c, 2, 8320
3, 169920, Pitch_bend_c, 2, 8192
3, 169920, Pitch_bend_c, 2, 8320
3, 169920, Pitch_bend_c, 2, 8192
3, 169920, Note_off_c, 2, 64, 95
3, 169920, Note_on_c, 2, 69, 95
3, 170080, Pitch_bend_c, 2, 8192
3, 170240, Pitch_bend_c, 2, 8320
3, 170400, Pitch_bend_c, 2, 8192
3, 170400, Pitch_bend_c, 2, 8320
3, 170400, Pitch_bend_c, 2, 8192
3, 170400, Note_off_c, 2, 69, 95
3, 170400, Note_on_c, 2, 62, 95
3, 170560, Pitch_bend_c, 2, 8192
3, 170720, Pitch_bend_c, 2, 8320
3, 170880, Pitch_bend_c, 2, 8192
3, 170880, Pitch_bend_c, 2, 8320
3, 170880, Pitch_bend_c, 2, 8192
3, 170880, Note_off_c, 2, 62, 95
3, 170880, Note_on_c, 2, 64, 95
3, 171040, Pitch_bend_c, 2, 8192
3, 171200, Pitch_bend_c, 2, 8320
3, 171360, Pitch_bend_c, 2, 8192
3, 171360, Pitch_bend_c, 2, 8320
3, 171360, Pitch_bend_c, 2, 8192
3, 171360, Note_off_c, 2, 64, 95
3, 171360, Note_on_c, 2, 69, 95
3, 171520, Pitch_bend_c, 2, 8192
3, 171680, Pitch_bend_c, 2, 8320
3, 171840, Pitch_bend_c, 2, 8192
3, 171840, Pitch_bend_c, 2, 8320
3, 171840, Pitch_bend_c, 2, 8192
3, 171840, Note_off_c, 2, 69, 95
3, 171840, Note_on_c, 2, 60, 95
3, 172000, Pitch_bend_c, 2, 8192
3, 172160, Pitch_bend_c, 2, 8320
3, 172320, Pitch_bend_c, 2, 8192
3, 172480, Pitch_bend_c, 2, 8320
3, 172640, Pitch_bend_c, 2, 8192
3, 172800, Pitch_bend_c, 2, 8320
3, 172800, Pitch_bend_c, 2, 8192
3, 172800, Note_off_c, 2, 60, 95
3, 172800, Note_on_c, 2, 69, 95
3, 172960, Pitch_bend_c, 2, 8192
3, 173120, Pitch_bend_c, 2, 8320
3, 173280, Pitch_bend_c, 2, 8192
3, 173440, Pitch_bend_c, 2, 8320
3, 173600, Pitch_bend_c, 2, 8192
3, 173760, Pitch_bend_c, 2, 8320
3, 173920, Pitch_bend_c, 2, 8192
3, 174080, Pitch_bend_c, 2, 8320
3, 174240, Pitch_bend_c, 2, 8192
3, 174240, Pitch_bend_c, 2, 8320
3, 174240, Pitch_bend_c, 2, 8192
3, 174240, Note_off_c, 2, 69, 95
3, 174240, Note_on_c, 2, 69, 95
3, 174400, Pitch_bend_c, 2, 8192
3, 174560, Pitch_bend_c, 2, 8320
3, 174720, Pitch_bend_c, 2, 8192
3, 174880, Pitch_bend_c, 2, 8320
3, 175040, Pitch_bend_c, 2, 8192
3, 175200, Pitch_bend_c, 2, 8320
3, 175360, Pitch_bend_c, 2, 8192
3, 175520, Pitch_bend_c, 2, 8320
3, 175680, Pitch_bend_c, 2, 8192
3, 175840, Pitch_bend_c, 2, 8320
3, 176000, Pitch_bend_c, 2, 8192
3, 176160, Pitch_bend_c, 2, 8320
3, 176320, Pitch_bend_c, 2, 8192
3, 176480, Pitch_bend_c, 2, 8320
3, 176640, Pitch_bend_c, 2, 8192
3, 176640, Pitch_bend_c, 2, 8320
3, 176640, Pitch_bend_c, 2, 8192
3, 176640, Note_off_c, 2, 69, 95
3, 176640, Note_on_c, 2, 69, 95
3, 176800, Pitch_bend_c, 2, 8192
3, 176960, Pitch_bend_c, 2, 8320
3, 177120, Pitch_bend_c, 2, 8192
3, 177280, Pitch_bend_c, 2, 8320
3, 177440, Pitch_bend_c, 2, 8192
3, 177600, Pitch_bend_c, 2, 8320
3, 177760, Pitch_bend_c, 2, 8192
3, 177920, Pitch_bend_c, 2, 8320
3, 178080, Pitch_bend_c, 2, 8192
3, 178080, Pitch_bend_c, 2, 8320
3, 178080, Pitch_bend_c, 2, 8192
3, 178080, Note_off_c, 2, 69, 95
3, 178080, Note_on_c, 2, 69, 95
3, 178240, Pitch_bend_c, 2, 8192
3, 178400, Pitch_bend_c, 2, 8320
3, 178560, Pitch_bend_c, 2, 8192
3, 178720, Pitch_bend_c, 2, 8320
3, 178880, Pitch_bend_c, 2, 8192
3, 179040, Pitch_bend_c, 2, 8320
3, 179200, Pitch_bend_c, 2, 8192
3, 179360, Pitch_bend_c, 2, 8320
3, 179520, Pitch_bend_c, 2, 8192
3, 179680, Pitch_bend_c, 2, 8320
3, 179840, Pitch_bend_c, 2, 8192
3, 180000, Pitch_bend_c, 2, 8320
3, 180160, Pitch_bend_c, 2, 8192
3, 180320, Pitch_bend_c, 2, 8320
3, 180480, Pitch_bend_c, 2, 8192
3, 180480, Pitch_bend_c, 2, 8320
3, 180480, Pitch_bend_c, 2, 8192
3, 180480, Note_off_c, 2, 69, 95
3, 180480, Note_on_c, 2, 62, 95
3, 180640, Pitch_bend_c, 2, 8192
3, 180800, Pitch_bend_c, 2, 8320
3, 180960, Pitch_bend_c, 2, 8192
3, 181120, Pitch_bend_c, 2, 8320
3, 181280, Pitch_bend_c, 2, 8192
3, 181440, Pitch_bend_c, 2, 8320
3, 181440, Pitch_bend_c, 2, 8192
3, 181440, Note_off_c, 2, 62, 95
3, 181440, Note_on_c, 2, 69, 95
3, 181600, Pitch_bend_c, 2, 8192
3, 181760, Pitch_bend_c, 2, 8320
3, 181920, Pitch_bend_c, 2, 8192
3, 182080, Pitch_bend_c, 2, 8320
3, 182240, Pitch_bend_c, 2, 8192
3, 182400, Pitch_bend_c, 2, 8320
3, 182560, Pitch_bend_c, 2, 8192
3, 182720, Pitch_bend_c, 2, 8320
3, 182880, Pitch_bend_c, 2, 8192
3, 183040, Pitch_bend_c, 2, 8320
3, 183200, Pitch_bend_c, 2, 8192
3, 183360, Pitch_bend_c, 2, 8320
3, 183520, Pitch_bend_c, 2, 8192
3, 183680, Pitch_bend_c, 2, 8320
3, 183840, Pitch_bend_c, 2, 8192
3, 184000, Pitch_bend_c, 2, 8320
3, 184160, Pitch_bend_c, 2, 8192
3, 184320, Pitch_bend_c, 2, 8320
3, 184320, Pitch_bend_c, 2, 8192
3, 184320, Note_off_c, 2, 69, 95
3, 184320, Note_on_c, 2, 62, 95
3, 184480, Pitch_bend_c, 2, 8192
3, 184640, Pitch_bend_c, 2, 8320
3, 184800, Pitch_bend_c, 2, 8192
3, 184800, Pitch_bend_c, 2, 8320
3, 184800, Pitch_bend_c, 2, 8192
3, 184800, Note_off_c, 2, 62, 95
3, 184800, Note_on_c, 2, 64, 95
3, 184960, Pitch_bend_c, 2, 8192
3, 185120, Pitch_bend_c, 2, 8320
3, 185280, Pitch_bend_c, 2, 8192
3, 185280, Pitch_bend_c, 2, 8320
3, 185280, Pitch_bend_c, 2, 8192
3, 185280, Note_off_c, 2, 64, 95
3, 185280, Note_on_c, 2, 69, 95
3, 185440, Pitch_bend_c, 2, 8192
3, 185600, Pitch_bend_c, 2, 8320
3, 185760, Pitch_bend_c, 2, 8192
3, 185760, Pitch_bend_c, 2, 8320
3, 185760, Pitch_bend_c, 2, 8192
3, 185760, Note_off_c, 2, 69, 95
3, 185760, Note_on_c, 2, 62, 95
3, 185920, Pitch_bend_c, 2, 8192
3, 186080, Pitch_bend_c, 2, 8320
3, 186240, Pitch_bend_c, 2, 8192
3, 186240, Pitch_bend_c, 2, 8320
3, 186240, Pitch_bend_c, 2, 8192
3, 186240, Note_off_c, 2, 62, 95
3, 186240, Note_on_c, 2, 64, 95
3, 186400, Pitch_bend_c, 2, 8192
3, 186560, Pitch_bend_c, 2, 8320
3, 186720, Pitch_bend_c, 2, 8192
3, 186720, Pitch_bend_c, 2, 8320
3, 186720, Pitch_bend_c, 2, 8192
3, 186720, Note_off_c, 2, 64, 95
3, 186720, Note_on_c, 2, 69, 95
3, 186880, Pitch_bend_c, 2, 8192
3, 187040, Pitch_bend_c, 2, 8320
3, 187200, Pitch_bend_c, 2, 8192
3, 187200, Pitch_bend_c, 2, 8320
3, 187200, Pitch_bend_c, 2, 8192
3, 187200, Note_off_c, 2, 69, 95
3, 187200, Note_on_c, 2, 60, 95
3, 187360, Pitch_bend_c, 2, 8192
3, 187520, Pitch_bend_c, 2, 8320
3, 187680, Pitch_bend_c, 2, 8192
3, 187840, Pitch_bend_c, 2, 8320
3, 188000, Pitch_bend_c, 2, 8192
3, 188160, Pitch_bend_c, 2, 8320
3, 188160, Pitch_bend_c, 2, 8192
3, 188160, Note_off_c, 2, 60, 95
3, 188160, Note_on_c, 2, 69, 95
3, 188320, Pitch_bend_c, 2, 8192
3, 188480, Pitch_bend_c, 2, 8320
3, 188640, Pitch_bend_c, 2, 8192
3, 188800, Pitch_bend_c, 2, 8320
3, 188960, Pitch_bend_c, 2, 8192
3, 189120, Pitch_bend_c, 2, 8320
3, 189280, Pitch_bend_c, 2, 8192
3, 189440, Pitch_bend_c, 2, 8320
3, 189600, Pitch_bend_c, 2, 8192
3, 189600, Pitch_bend_c, 2, 8320
3, 189600, Pitch_bend_c, 2, 8192
3, 189600, Note_off_c, 2, 69, 95
3, 189600, Note_on_c, 2, 69, 95
3, 189760, Pitch_bend_c, 2, 8192
3, 189920, Pitch_bend_c, 2, 8320
3, 190080, Pitch_bend_c, 2, 8192
3, 190240, Pitch_bend_c, 2, 8320
3, 190400, Pitch_bend_c, 2, 8192
3, 190560, Pitch_bend_c, 2, 8320
3, 190720, Pitch_bend_c, 2, 8192
3, 190880, Pitch_bend_c, 2, 8320
3, 191040, Pitch_bend_c, 2, 8192
3, 191200, Pitch_bend_c, 2, 8320
3, 191360, Pitch_bend_c, 2, 8192
3, 191520, Pitch_bend_c, 2, 8320
3, 191680, Pitch_bend_c, 2, 8192
3, 191840, Pitch_bend_c, 2, 8320
3, 192000, Pitch_bend_c, 2, 8192
3, 192000, Pitch_bend_c, 2, 8320
3, 192000, Pitch_bend_c, 2, 8192
3, 192000, Note_off_c, 2, 69, 95
3, 192000, Note_on_c, 2, 69, 95
3, 192160, Pitch_bend_c, 2, 8192
3, 192320, Pitch_bend_c, 2, 8320
3, 192480, Pitch_bend_c, 2, 8192
3, 192640, Pitch_bend_c, 2, 8320
3, 192800, Pitch_bend_c, 2, 8192
3, 192960, Pitch_bend_c, 2, 8320
3, 193120, Pitch_bend_c, 2, 8192
3, 193280, Pitch_bend_c, 2, 8320
3, 193440, Pitch_bend_c, 2, 8192
3, 193440, Pitch_bend_c, 2, 8320
3, 193440, Pitch_bend_c, 2, 8192
3, 193440, Note_off_c, 2, 69, 95
3, 193440, Note_on_c, 2, 69, 95
3, 193600, Pitch_bend_c, 2, 8192
3, 193760, Pitch_bend_c, 2, 8320
3, 193920, Pitch_bend_c, 2, 8192
3, 194080, Pitch_bend_c, 2, 8320
3, 194240, Pitch_bend_c, 2, 8192
3, 194400, Pitch_bend_c, 2, 8320
3, 194560, Pitch_bend_c, 2, 8192
3, 194720, Pitch_bend_c, 2, 8320
3, 194880, Pitch_bend_c, 2, 8192
3, 195040, Pitch_bend_c, 2, 8320
3, 195200, Pitch_bend_c, 2, 8192
3, 195360, Pitch_bend_c, 2, 8320
3, 195520, Pitch_bend_c, 2, 8192
3, 195680, Pitch_bend_c, 2, 8320
3, 195840, Pitch_bend_c, 2, 8192
3, 195840, Pitch_bend_c, 2, 8320
3, 195840, Pitch_bend_c, 2, 8192
3, 195840, Note_off_c, 2, 69, 95
3, 195840, Note_on_c, 2, 62, 95
3, 196000, Pitch_bend_c, 2, 8192
3, 196160, Pitch_bend_c, 2, 8320
3, 196320, Pitch_bend_c, 2, 8192
3, 196480, Pitch_bend_c, 2, 8320
3, 196640, Pitch_bend_c, 2, 8192
3, 196800, Pitch_bend_c, 2, 8320
3, 196800, Pitch_bend_c, 2, 8192
3, 196800, Note_off_c, 2, 62, 95
3, 196800, Note_on_c, 2, 69, 95
3, 196960, Pitch_bend_c, 2, 8192
3, 197120, Pitch_bend_c, 2, 8320
3, 197280, Pitch_bend_c, 2, 8192
3, 197440, Pitch_bend_c, 2, 8320
3, 197600, Pitch_bend_c, 2, 8192
3, 197760, Pitch_bend_c, 2, 8320
3, 197920, Pitch_bend_c, 2, 8192
3, 198080, Pitch_bend_c, 2, 8320
3, 198240, Pitch_bend_c, 2, 8192
3, 198400, Pitch_bend_c, 2, 8320
3, 198560, Pitch_bend_c, 2, 8192
3, 198720, Pitch_bend_c, 2, 8320
3, 198880, Pitch_bend_c, 2, 8192
3, 199040, Pitch_bend_c, 2, 8320
3, 199200, Pitch_bend_c, 2, 8192
3, 199360, Pitch_bend_c, 2, 8320
3, 199520, Pitch_bend_c, 2, 8192
3, 199680, Pitch_bend_c, 2, 8320
3, 199680, Pitch_bend_c, 2, 8192
3, 199680, Note_off_c, 2, 69, 95
3, 199680, Note_on_c, 2, 62, 95
3, 199840, Pitch_bend_c, 2, 8192
3, 200000, Pitch_bend_c, 2, 8320
3, 200160, Pitch_bend_c, 2, 8192
3, 200160, Pitch_bend_c, 2, 8320
3, 200160, Pitch_bend_c, 2, 8192
3, 200160, Note_off_c, 2, 62, 95
3, 200160, Note_on_c, 2, 64, 95
3, 200320, Pitch_bend_c, 2, 8192
3, 200480, Pitch_bend_c, 2, 8320
3, 200640, Pitch_bend_c, 2, 8192
3, 200640, Pitch_bend_c, 2, 8320
3, 200640, Pitch_bend_c, 2, 8192
3, 200640, Note_off_c, 2, 64, 95
3, 200640, Note_on_c, 2, 69, 95
3, 200800, Pitch_bend_c, 2, 8192
3, 200960, Pitch_bend_c, 2, 8320
3, 201120, Pitch_bend_c, 2, 8192
3, 201120, Pitch_bend_c, 2, 8320
3, 201120, Pitch_bend_c, 2, 8192
3, 201120, Note_off_c, 2, 69, 95
3, 201120, Note_on_c, 2, 62, 95
3, 201280, Pitch_bend_c, 2, 8192
3, 201440, Pitch_bend_c, 2, 8320
3, 201600, Pitch_bend_c, 2, 8192
3, 201600, Pitch_bend_c, 2, 8320
3, 201600, Pitch_bend_c, 2, 8192
3, 201600, Note_off_c, 2, 62, 95
3, 201600, Note_on_c, 2, 64, 95
3, 201760, Pitch_bend_c, 2, 8192
3, 201920, Pitch_bend_c, 2, 8320
3, 202080, Pitch_bend_c, 2, 8192
3, 202080, Pitch_bend_c, 2, 8320
3, 202080, Pitch_bend_c, 2, 8192
3, 202080, Note_off_c, 2, 64, 95
3, 202080, Note_on_c, 2, 69, 95
3, 202240, Pitch_bend_c, 2, 8192
3, 202400, Pitch_bend_c, 2, 8320
3, 202560, Pitch_bend_c, 2, 8192
3, 202560, Pitch_bend_c, 2, 8320
3, 202560, Pitch_bend_c, 2, 8192
3, 202560, Note_off_c, 2, 69, 95
3, 202560, Note_on_c, 2, 60, 95
3, 202720, Pitch_bend_c, 2, 8192
3, 202880, Pitch_bend_c, 2, 8320
3, 203040, Pitch_bend_c, 2, 8192
3, 203200, Pitch_bend_c, 2, 8320
3, 203360, Pitch_bend_c, 2, 8192
3, 203520, Pitch_bend_c, 2, 8320
3, 203520, Pitch_bend_c, 2, 8192
3, 203520, Note_off_c, 2, 60, 95
3, 203520, Note_on_c, 2, 69, 95
3, 203680, Pitch_bend_c, 2, 8192
3, 203840, Pitch_bend_c, 2, 8320
3, 204000, Pitch_bend_c, 2, 8192
3, 204160, Pitch_bend_c, 2, 8320
3, 204320, Pitch_bend_c, 2, 8192
3, 204480, Pitch_bend_c, 2, 8320
3, 204640, Pitch_bend_c, 2, 8192
3, 204800, Pitch_bend_c, 2, 8320
3, 204960, Pitch_bend_c, 2, 8192
3, 204960, Pitch_bend_c, 2, 8320
3, 204960, Pitch_bend_c, 2, 8192
3, 204960, Note_off_c, 2, 69, 95
3, 204960, Note_on_c, 2, 69, 95
3, 205120, Pitch_bend_c, 2, 8192
3, 205280, Pitch_bend_c, 2, 8320
3, 205440, Pitch_bend_c, 2, 8192
3, 205600, Pitch_bend_c, 2, 8320
3, 205760, Pitch_bend_c, 2, 8192
3, 205920, Pitch_bend_c, 2, 8320
3, 206080, Pitch_bend_c, 2, 8192
3, 206240, Pitch_bend_c, 2, 8320
3, 206400, Pitch_bend_c, 2, 8192
3, 206560, Pitch_bend_c, 2, 8320
3, 206720, Pitch_bend_c, 2, 8192
3, 206880, Pitch_bend_c, 2, 8320
3, 207040, Pitch_bend_c, 2, 8192
3, 207200, Pitch_bend_c, 2, 8320
3, 207360, Pitch_bend_c, 2, 8192
3, 207360, Pitch_bend_c, 2, 8320
3, 207360, Pitch_bend_c, 2, 8192
3, 207360, Note_off_c, 2, 69, 95
3, 207360, Note_on_c, 2, 69, 95
3, 207520, Pitch_bend_c, 2, 8192
3, 207680, Pitch_bend_c, 2, 8320
3, 207840, Pitch_bend_c, 2, 8192
3, 208000, Pitch_bend_c, 2, 8320
3, 208160, Pitch_bend_c, 2, 8192
3, 208320, Pitch_bend_c, 2, 8320
3, 208480, Pitch_bend_c, 2, 8192
3, 208640, Pitch_bend_c, 2, 8320
3, 208800, Pitch_bend_c, 2, 8192
3, 208800, Pitch_bend_c, 2, 8320
3, 208800, Pitch_bend_c, 2, 8192
3, 208800, Note_off_c, 2, 69, 95
3, 208800, Note_on_c, 2, 69, 95
3, 208960, Pitch_bend_c, 2, 8192
3, 209120, Pitch_bend_c, 2, 8320
3, 209280, Pitch_bend_c, 2, 8192
3, 209440, Pitch_bend_c, 2, 8320
3, 209600, Pitch_bend_c, 2, 8192
3, 209760, Pitch_bend_c, 2, 8320
3, 209920, Pitch_bend_c, 2, 8192
3, 210080, Pitch_bend_c, 2, 8320
3, 210240, Pitch_bend_c, 2, 8192
3, 210400, Pitch_bend_c, 2, 8320
3, 210560, Pitch_bend_c, 2, 8192
3, 210720, Pitch_bend_c, 2, 8320
3, 210880, Pitch_bend_c, 2, 8192
3, 211040, Pitch_bend_c, 2, 8320
3, 211200, Pitch_bend_c, 2, 8192
3, 211200, Pitch_bend_c, 2, 8320
3, 211200, Pitch_bend_c, 2, 8192
3, 211200, Note_off_c, 2, 69, 95
3, 211200, Note_on_c, 2, 62, 95
3, 211360, Pitch_bend_c, 2, 8192
3, 211520, Pitch_bend_c, 2, 8320
3, 211680, Pitch_bend_c, 2, 8192
3, 211840, Pitch_bend_c, 2, 8320
3, 212000, Pitch_bend_c, 2, 8192
3, 212160, Pitch_bend_c, 2, 8320
3, 212160, Pitch_bend_c, 2, 8192
3, 212160, Note_off_c, 2, 62, 95
3, 212160, Note_on_c, 2, 69, 95
3, 212320, Pitch_bend_c, 2, 8192
3, 212480, Pitch_bend_c, 2, 8320
3, 212640, Pitch_bend_c, 2, 8192
3, 212800, Pitch_bend_c, 2, 8320
3, 212960, Pitch_bend_c, 2, 8192
3, 213120, Pitch_bend_c, 2, 8320
3, 213280, Pitch_bend_c, 2, 8192
3, 213440, Pitch_bend_c, 2, 8320
3, 213600, Pitch_bend_c, 2, 8192
3, 213760, Pitch_bend_c, 2, 8320
3, 213920, Pitch_bend_c, 2, 8192
3, 214080, Pitch_bend_c, 2, 8320
3, 214240, Pitch_bend_c, 2, 8192
3, 214400, Pitch_bend_c, 2, 8320
3, 214560, Pitch_bend_c, 2, 8192
3, 214720, Pitch_bend_c, 2, 8320
3, 214880, Pitch_bend_c, 2, 8192
3, 215040, Pitch_bend_c, 2, 8320
3, 215040, Pitch_bend_c, 2, 8192
3, 215040, Note_off_c, 2, 69, 95
3, 215040, Note_on_c, 2, 62, 95
3, 215200, Pitch_bend_c, 2, 8192
3, 215360, Pitch_bend_c, 2, 8320
3, 215520, Pitch_bend_c, 2, 8192
3, 215520, Pitch_bend_c, 2, 8320
3, 215520, Pitch_bend_c, 2, 8192
3, 215520, Note_off_c, 2, 62, 95
3, 215520, Note_on_c, 2, 64, 95
3, 215680, Pitch_bend_c, 2, 8192
3, 215840, Pitch_bend_c, 2, 8320
3, 216000, Pitch_bend_c, 2, 8192
3, 216000, Pitch_bend_c, 2, 8320
3, 216000, Pitch_bend_c, 2, 8192
3, 216000, Note_off_c, 2, 64, 95
3, 216000, Note_on_c, 2, 69, 95
3, 216160, Pitch_bend_c, 2, 8192
3, 216320, Pitch_bend_c, 2, 8320
3, 216480, Pitch_bend_c, 2, 8192
3, 216480, Pitch_bend_c, 2, 8320
3, 216480, Pitch_bend_c, 2, 8192
3, 216480, Note_off_c, 2, 69, 95
3, 216480, Note_on_c, 2, 62, 95
3, 216640, Pitch_bend_c, 2, 8192
3, 216800, Pitch_bend_c, 2, 8320
3, 216960, Pitch_bend_c, 2, 8192
3, 216960, Pitch_bend_c, 2, 8320
3, 216960, Pitch_bend_c, 2, 8192
3, 216960, Note_off_c, 2, 62, 95
3, 216960, Note_on_c, 2, 64, 95
3, 217120, Pitch_bend_c, 2, 8192
3, 217280, Pitch_bend_c, 2, 8320
3, 217440, Pitch_bend_c, 2, 8192
3, 217440, Pitch_bend_c, 2, 8320
3, 217440, Pitch_bend_c, 2, 8192
3, 217440, Note_off_c, 2, 64, 95
3, 217440, Note_on_c, 2, 69, 95
3, 217600, Pitch_bend_c, 2, 8192
3, 217760, Pitch_bend_c, 2, 8320
3, 217920, Pitch_bend_c, 2, 8192
3, 217920, Pitch_bend_c, 2, 8320
3, 217920, Pitch_bend_c, 2, 8192
3, 217920, Note_off_c, 2, 69, 95
3, 217920, Note_on_c, 2, 60, 95
3, 218080, Pitch_bend_c, 2, 8192
3, 218240, Pitch_bend_c, 2, 8320
3, 218400, Pitch_bend_c, 2, 8192
3, 218560, Pitch_bend_c, 2, 8320
3, 218720, Pitch_bend_c, 2, 8192
3, 218880, Pitch_bend_c, 2, 8320
3, 218880, Pitch_bend_c, 2, 8192
3, 218880, Note_off_c, 2, 60, 95
3, 249600, Note_on_c, 2, 69, 95
3, 249760, Pitch_bend_c, 2, 8192
3, 249920, Pitch_bend_c, 2, 8320
3, 250080, Pitch_bend_c, 2, 8192
3, 250240, Pitch_bend_c, 2, 8320
3, 250400, Pitch_bend_c, 2, 8192
3, 250560, Pitch_bend_c, 2, 8320
3, 250720, Pitch_bend_c, 2, 8192
3, 250880, Pitch_bend_c, 2, 8320
3, 251040, Pitch_bend_c, 2, 8192
3, 251040, Pitch_bend_c, 2, 8320
3, 251040, Pitch_bend_c, 2, 8192
3, 251040, Note_off_c, 2, 69, 95
3, 251040, Note_on_c, 2, 69, 95
3, 251200, Pitch_bend_c, 2, 8192
3, 251360, Pitch_bend_c, 2, 8320
3, 251520, Pitch_bend_c, 2, 8192
3, 251680, Pitch_bend_c, 2, 8320
3, 251840, Pitch_bend_c, 2, 8192
3, 252000, Pitch_bend_c, 2, 8320
3, 252160, Pitch_bend_c, 2, 8192
3, 252320, Pitch_bend_c, 2, 8320
3, 252480, Pitch_bend_c, 2, 8192
3, 252640, Pitch_bend_c, 2, 8320
3, 252800, Pitch_bend_c, 2, 8192
3, 252960, Pitch_bend_c, 2, 8320
3, 253120, Pitch_bend_c, 2, 8192
3, 253280, Pitch_bend_c, 2, 8320
3, 253440, Pitch_bend_c, 2, 8192
3, 253440, Pitch_bend_c, 2, 8320
3, 253440, Pitch_bend_c, 2, 8192
3, 253440, Note_off_c, 2, 69, 95
3, 253440, Note_on_c, 2, 69, 95
3, 253600, Pitch_bend_c, 2, 8192
3, 253760, Pitch_bend_c, 2, 8320
3, 253920, Pitch_bend_c, 2, 8192
3, 254080, Pitch_bend_c, 2, 8320
3, 254240, Pitch_bend_c, 2, 8192
3, 254400, Pitch_bend_c, 2, 8320
3, 254560, Pitch_bend_c, 2, 8192
3, 254720, Pitch_bend_c, 2, 8320
3, 254880, Pitch_bend_c, 2, 8192
3, 254880, Pitch_bend_c, 2, 8320
3, 254880, Pitch_bend_c, 2, 8192
3, 254880, Note_off_c, 2, 69, 95
3, 254880, Note_on_c, 2, 69, 95
3, 255040, Pitch_bend_c, 2, 8192
3, 255200, Pitch_bend_c, 2, 8320
3, 255360, Pitch_bend_c, 2, 8192
3, 255520, Pitch_bend_c, 2, 8320
3, 255680, Pitch_bend_c, 2, 8192
3, 255840, Pitch_bend_c, 2, 8320
3, 256000, Pitch_bend_c, 2, 8192
3, 256160, Pitch_bend_c, 2, 8320
3, 256320, Pitch_bend_c, 2, 8192
3, 256480, Pitch_bend_c, 2, 8320
3, 256640, Pitch_bend_c, 2, 8192
3, 256800, Pitch_bend_c, 2, 8320
3, 256960, Pitch_bend_c, 2, 8192
3, 257120, Pitch_bend_c, 2, 8320
3, 257280, Pitch_bend_c, 2, 8192
3, 257280, Pitch_bend_c, 2, 8320
3, 257280, Pitch_bend_c, 2, 8192
3, 257280, Note_off_c, 2, 69, 95
3, 257280, Note_on_c, 2, 62, 95
3, 257440, Pitch_bend_c, 2, 8192
3, 257600, Pitch_bend_c, 2, 8320
3, 257760, Pitch_bend_c, 2, 8192
3, 257920, Pitch_bend_c, 2, 8320
3, 258080, Pitch_bend_c, 2, 8192
3, 258240, Pitch_bend_c, 2, 8320
3, 258240, Pitch_bend_c, 2, 8192
3, 258240, Note_off_c, 2, 62, 95
3, 258240, Note_on_c, 2, 69, 95
3, 258400, Pitch_bend_c, 2, 8192
3, 258560, Pitch_bend_c, 2, 8320
3, 258720, Pitch_bend_c, 2, 8192
3, 258880, Pitch_bend_c, 2, 8320
3, 259040, Pitch_bend_c, 2, 8192
3, 259200, Pitch_bend_c, 2, 8320
3, 259360, Pitch_bend_c, 2, 8192
3, 259520, Pitch_bend_c, 2, 8320
3, 259680, Pitch_bend_c, 2, 8192
3, 259840, Pitch_bend_c, 2, 8320
3, 260000, Pitch_bend_c, 2, 8192
3, 260160, Pitch_bend_c, 2, 8320
3, 260320, Pitch_bend_c, 2, 8192
3, 260480, Pitch_bend_c, 2, 8320
3, 260640, Pitch_bend_c, 2, 8192
3, 260800, Pitch_bend_c, 2, 8320
3, 260960, Pitch_bend_c, 2, 8192
3, 261120, Pitch_bend_c, 2, 8320
3, 261120, Pitch_bend_c, 2, 8192
3, 261120, Note_off_c, 2, 69, 95
3, 261120, Note_on_c, 2, 62, 95
3, 261280, Pitch_bend_c, 2, 8192
3, 261440, Pitch_bend_c, 2, 8320
3, 261600, Pitch_bend_c, 2, 8192
3, 261600, Pitch_bend_c, 2, 8320
3, 261600, Pitch_bend_c, 2, 8192
3, 261600, Note_off_c, 2, 62, 95
3, 261600, Note_on_c, 2, 64, 95
3, 261760, Pitch_bend_c, 2, 8192
3, 261920, Pitch_bend_c, 2, 8320
3, 262080, Pitch_bend_c, 2, 8192
3, 262080, Pitch_bend_c, 2, 8320
3, 262080, Pitch_bend_c, 2, 8192
3, 262080, Note_off_c, 2, 64, 95
3, 262080, Note_on_c, 2, 69, 95
3, 262240, Pitch_bend_c, 2, 8192
3, 262400, Pitch_bend_c, 2, 8320
3, 262560, Pitch_bend_c, 2, 8192
3, 262560, Pitch_bend_c, 2, 8320
3, 262560, Pitch_bend_c, 2, 8192
3, 262560, Note_off_c, 2, 69, 95
3, 262560, Note_on_c, 2, 62, 95
3, 262720, Pitch_bend_c, 2, 8192
3, 262880, Pitch_bend_c, 2, 8320
3, 263040, Pitch_bend_c, 2, 8192
3, 263040, Pitch_bend_c, 2, 8320
3, 263040, Pitch_bend_c, 2, 8192
3, 263040, Note_off_c, 2, 62, 95
3, 263040, Note_on_c, 2, 64, 95
3, 263200, Pitch_bend_c, 2, 8192
3, 263360, Pitch_bend_c, 2, 8320
3, 263520, Pitch_bend_c, 2, 8192
3, 263520, Pitch_bend_c, 2, 8320
3, 263520, Pitch_bend_c, 2, 8192
3, 263520, Note_off_c, 2, 64, 95
3, 263520, Note_on_c, 2, 69, 95
3, 263680, Pitch_bend_c, 2, 8192
3, 263840, Pitch_bend_c, 2, 8320
3, 264000, Pitch_bend_c, 2, 8192
3, 264000, Pitch_bend_c, 2, 8320
3, 264000, Pitch_bend_c, 2, 8192
3, 264000, Note_off_c, 2, 69, 95
3, 264000, Note_on_c, 2, 60, 95
3, 264160, Pitch_bend_c, 2, 8192
3, 264320, Pitch_bend_c, 2, 8320
3, 264480, Pitch_bend_c, 2, 8192
3, 264640, Pitch_bend_c, 2, 8320
3, 264800, Pitch_bend_c, 2, 8192
3, 264960, Pitch_bend_c, 2, 8320
3, 264960, Pitch_bend_c, 2, 8192
3, 264960, Note_off_c, 2, 60, 95
3, 264960, Note_on_c, 2, 69, 95
3, 265120, Pitch_bend_c, 2, 8192
3, 265280, Pitch_bend_c, 2, 8320
3, 265440, Pitch_bend_c, 2, 8192
3, 265600, Pitch_bend_c, 2, 8320
3, 265760, Pitch_bend_c, 2, 8192
3, 265920, Pitch_bend_c, 2, 8320
3, 266080, Pitch_bend_c, 2, 8192
3, 266240, Pitch_bend_c, 2, 8320
3, 266400, Pitch_bend_c, 2, 8192
3, 266400, Pitch_bend_c, 2, 8320
3, 266400, Pitch_bend_c, 2, 8192
3, 266400, Note_off_c, 2, 69, 95
3, 266400, Note_on_c, 2, 69, 95
3, 266560, Pitch_bend_c, 2, 8192
3, 266720, Pitch_bend_c, 2, 8320
3, 266880, Pitch_bend_c, 2, 8192
3, 267040, Pitch_bend_c, 2, 8320
3, 267200, Pitch_bend_c, 2, 8192
3, 267360, Pitch_bend_c, 2, 8320
3, 267520, Pitch_bend_c, 2, 8192
3, 267680, Pitch_bend_c, 2, 8320
3, 267840, Pitch_bend_c, 2, 8192
3, 268000, Pitch_bend_c, 2, 8320
3, 268160, Pitch_bend_c, 2, 8192
3, 268320, Pitch_bend_c, 2, 8320
3, 268480, Pitch_bend_c, 2, 8192
3, 268640, Pitch_bend_c, 2, 8320
3, 268800, Pitch_bend_c, 2, 8192
3, 268800, Pitch_bend_c, 2, 8320
3, 268800, Pitch_bend_c, 2, 8192
3, 268800, Note_off_c, 2, 69, 95
3, 268800, Note_on_c, 2, 69, 95
3, 268960, Pitch_bend_c, 2, 8192
3, 269120, Pitch_bend_c, 2, 8320
3, 269280, Pitch_bend_c, 2, 8192
3, 269440, Pitch_bend_c, 2, 8320
3, 269600, Pitch_bend_c, 2, 8192
3, 269760, Pitch_bend_c, 2, 8320
3, 269920, Pitch_bend_c, 2, 8192
3, 270080, Pitch_bend_c, 2, 8320
3, 270240, Pitch_bend_c, 2, 8192
3, 270240, Pitch_bend_c, 2, 8320
3, 270240, Pitch_bend_c, 2, 8192
3, 270240, Note_off_c, 2, 69, 95
3, 270240, Note_on_c, 2, 69, 95
3, 270400, Pitch_bend_c, 2, 8192
3, 270560, Pitch_bend_c, 2, 8320
3, 270720, Pitch_bend_c, 2, 8192
3, 270880, Pitch_bend_c, 2, 8320
3, 271040, Pitch_bend_c, 2, 8192
3, 271200, Pitch_bend_c, 2, 8320
3, 271360, Pitch_bend_c, 2, 8192
3, 271520, Pitch_bend_c, 2, 8320
3, 271680, Pitch_bend_c, 2, 8192
3, 271840, Pitch_bend_c, 2, 8320
3, 272000, Pitch_bend_c, 2, 8192
3, 272160, Pitch_bend_c, 2, 8320
3, 272320, Pitch_bend_c, 2, 8192
3, 272480, Pitch_bend_c, 2, 8320
3, 272640, Pitch_bend_c, 2, 8192
3, 272640, Pitch_bend_c, 2, 8320
3, 272640, Pitch_bend_c, 2, 8192
3, 272640, Note_off_c, 2, 69, 95
3, 272640, Note_on_c, 2, 62, 95
3, 272800, Pitch_bend_c, 2, 8192
3, 272960, Pitch_bend_c, 2, 8320
3, 273120, Pitch_bend_c, 2, 8192
3, 273280, Pitch_bend_c, 2, 8320
3, 273440, Pitch_bend_c, 2, 8192
3, 273600, Pitch_bend_c, 2, 8320
3, 273600, Pitch_bend_c, 2, 8192
3, 273600, Note_off_c, 2, 62, 95
3, 273600, Note_on_c, 2, 69, 95
3, 273760, Pitch_bend_c, 2, 8192
3, 273920, Pitch_bend_c, 2, 8320
3, 274080, Pitch_bend_c, 2, 8192
3, 274240, Pitch_bend_c, 2, 8320
3, 274400, Pitch_bend_c, 2, 8192
3, 274560, Pitch_bend_c, 2, 8320
3, 274720, Pitch_bend_c, 2, 8192
3, 274880, Pitch_bend_c, 2, 8320
3, 275040, Pitch_bend_c, 2, 8192
3, 275200, Pitch_bend_c, 2, 8320
3, 275360, Pitch_bend_c, 2, 8192
3, 275520, Pitch_bend_c, 2, 8320
3, 275680, Pitch_bend_c, 2, 8192
3, 275840, Pitch_bend_c, 2, 8320
3, 276000, Pitch_bend_c, 2, 8192
3, 276160, Pitch_bend_c, 2, 8320
3, 276320, Pitch_bend_c, 2, 8192
3, 276480, Pitch_bend_c, 2, 8320
3, 276480, Pitch_bend_c, 2, 8192
3, 276480, Note_off_c, 2, 69, 95
3, 276480, Note_on_c, 2, 62, 95
3, 276640, Pitch_bend_c, 2, 8192
3, 276800, Pitch_bend_c, 2, 8320
3, 276960, Pitch_bend_c, 2, 8192
3, 276960, Pitch_bend_c, 2, 8320
3, 276960, Pitch_bend_c, 2, 8192
3, 276960, Note_off_c, 2, 62, 95
3, 276960, Note_on_c, 2, 64, 95
3, 277120, Pitch_bend_c, 2, 8192
3, 277280, Pitch_bend_c, 2, 8320
3, 277440, Pitch_bend_c, 2, 8192
3, 277440, Pitch_bend_c, 2, 8320
3, 277440, Pitch_bend_c, 2, 8192
3, 277440, Note_off_c, 2, 64, 95
3, 277440, Note_on_c, 2, 69, 95
3, 277600, Pitch_bend_c, 2, 8192
3, 277760, Pitch_bend_c, 2, 8320
3, 277920, Pitch_bend_c, 2, 8192
3, 277920, Pitch_bend_c, 2, 8320
3, 277920, Pitch_bend_c, 2, 8192
3, 277920, Note_off_c, 2, 69, 95
3, 277920, Note_on_c, 2, 62, 95
3, 278080, Pitch_bend_c, 2, 8192
3, 278240, Pitch_bend_c, 2, 8320
3, 278400, Pitch_bend_c, 2, 8192
3, 278400, Pitch_bend_c, 2, 8320
3, 278400, Pitch_bend_c, 2, 8192
3, 278400, Note_off_c, 2, 62, 95
3, 278400, Note_on_c, 2, 64, 95
3, 278560, Pitch_bend_c, 2, 8192
3, 278720, Pitch_bend_c, 2, 8320
3, 278880, Pitch_bend_c, 2, 8192
3, 278880, Pitch_bend_c, 2, 8320
3, 278880, Pitch_bend_c, 2, 8192
3, 278880, Note_off_c, 2, 64, 95
3, 278880, Note_on_c, 2, 69, 95
3, 279040, Pitch_bend_c, 2, 8192
3, 279200, Pitch_bend_c, 2, 8320
3, 279360, Pitch_bend_c, 2, 8192
3, 279360, Pitch_bend_c, 2, 8320
3, 279360, Pitch_bend_c, 2, 8192
3, 279360, Note_off_c, 2, 69, 95
3, 279360, Note_on_c, 2, 60, 95
3, 279520, Pitch_bend_c, 2, 8192
3, 279680, Pitch_bend_c, 2, 8320
3, 279840, Pitch_bend_c, 2, 8192
3, 280000, Pitch_bend_c, 2, 8320
3, 280160, Pitch_bend_c, 2, 8192
3, 280320, Pitch_bend_c, 2, 8320
3, 280320, Pitch_bend_c, 2, 8192
3, 280320, Note_off_c, 2, 60, 95
3, 284160, Note_on_c, 2, 54, 95
3, 284280, Pitch_bend_c, 2, 7936
3, 284400, Pitch_bend_c, 2, 7552
3, 284520, Pitch_bend_c, 2, 7168
3, 284640, Pitch_bend_c, 2, 6784
3, 284640, Pitch_bend_c, 2, 8192
3, 284640, Note_off_c, 2, 54, 95
3, 284640, Note_on_c, 2, 52, 95
3, 287520, Note_off_c, 2, 52, 95
3, 287520, Note_on_c, 2, 52, 95
3, 287640, Pitch_bend_c, 2, 8704
3, 287760, Pitch_bend_c, 2, 9216
3, 287880, Pitch_bend_c, 2, 9728
3, 288000, Pitch_bend_c, 2, 10240
3, 288000, Pitch_bend_c, 2, 8192
3, 288000, Note_off_c, 2, 52, 95
3, 288000, Note_on_c, 2, 55, 95
3, 290880, Note_off_c, 2, 55, 95
3, 291600, Note_on_c, 2, 52, 95
3, 291840, Note_off_c, 2, 52, 95
3, 291840, Note_on_c, 2, 54, 70
3, 292080, Note_off_c, 2, 54, 70
3, 292080, Note_on_c, 2, 52, 70
3, 292320, Note_off_c, 2, 52, 70
3, 292320, Note_on_c, 2, 55, 95
3, 292320, Note_on_c, 2, 50, 70
3, 292560, Note_off_c, 2, 55, 95
3, 292560, Note_off_c, 2, 50, 70
3, 292560, Note_on_c, 2, 49, 95
3, 293760, Note_off_c, 2, 49, 95
3, 293760, Note_on_c, 2, 45, 95
3, 294240, Note_off_c, 2, 45, 95
3, 294240, Note_on_c, 2, 47, 95
3, 294960, Note_off_c, 2, 47, 95
3, 294960, Note_on_c, 2, 47, 95
3, 295080, Pitch_bend_c, 2, 8448
3, 295200, Pitch_bend_c, 2, 8832
3, 295320, Pitch_bend_c, 2, 9216
3, 295440, Pitch_bend_c, 2, 9600
3, 295560, Pitch_bend_c, 2, 9856
3, 295680, Pitch_bend_c, 2, 10240
3, 295680, Pitch_bend_c, 2, 8192
3, 295680, Note_off_c, 2, 47, 95
3, 295680, Note_on_c, 2, 50, 95
3, 296640, Note_off_c, 2, 50, 95
3, 296640, Note_on_c, 2, 49, 95
3, 298560, Note_off_c, 2, 49, 95
3, 299040, Note_on_c, 2, 57, 95
3, 299520, Note_off_c, 2, 57, 95
3, 299520, Note_on_c, 2, 57, 95
3, 300480, Note_off_c, 2, 57, 95
3, 300480, Note_on_c, 2, 57, 95
3, 301440, Note_off_c, 2, 57, 95
3, 301440, Note_on_c, 2, 59, 95
3, 302080, Note_off_c, 2, 59, 95
3, 302080, Note_on_c, 2, 57, 95
3, 302208, Pitch_bend_c, 2, 7808
3, 302336, Pitch_bend_c, 2, 7424
3, 302464, Pitch_bend_c, 2, 7040
3, 302592, Pitch_bend_c, 2, 6528
3, 302720, Pitch_bend_c, 2, 6144
3, 302720, Pitch_bend_c, 2, 8192
3, 302720, Note_off_c, 2, 57, 95
3, 302720, Note_on_c, 2, 54, 95
3, 303360, Note_off_c, 2, 54, 95
3, 303360, Note_on_c, 2, 54, 95
3, 307200, Note_off_c, 2, 54, 95
3, 307200, Note_on_c, 2, 67, 95
3, 307200, Note_on_c, 2, 55, 95
3, 307200, Note_on_c, 2, 55, 95
3, 307253, Note_off_c, 2, 55, 95
3, 307920, Note_off_c, 2, 67, 95
3, 307920, Note_off_c, 2, 55, 95
3, 307920, Note_on_c, 2, 67, 95
3, 307920, Note_on_c, 2, 55, 95
3, 307920, Note_on_c, 2, 55, 95
3, 307973, Note_off_c, 2, 55, 95
3, 308640, Note_off_c, 2, 67, 95
3, 308640, Note_off_c, 2, 55, 95
3, 308640, Note_on_c, 2, 67, 95
3, 308640, Note_on_c, 2, 55, 95
3, 308640, Note_on_c, 2, 55, 95
3, 308693, Note_off_c, 2, 55, 95
3, 308760, Pitch_bend_c, 2, 8832
3, 308760, Pitch_bend_c, 2, 8832
3, 308880, Pitch_bend_c, 2, 9600
3, 308880, Pitch_bend_c, 2, 9600
3, 309000, Pitch_bend_c, 2, 10240
3, 309000, Pitch_bend_c, 2, 10240
3, 309120, Pitch_bend_c, 2, 11008
3, 309120, Pitch_bend_c, 2, 8192
3, 309120, Note_off_c, 2, 67, 95
3, 309120, Pitch_bend_c, 2, 11008
3, 309120, Pitch_bend_c, 2, 8192
3, 309120, Note_off_c, 2, 55, 95
3, 309120, Note_on_c, 2, 71, 95
3, 309120, Note_on_c, 2, 59, 95
3, 309840, Note_off_c, 2, 71, 95
3, 309840, Note_off_c, 2, 59, 95
3, 309840, Note_on_c, 2, 59, 95
3, 310560, Note_off_c, 2, 59, 95
3, 310560, Note_on_c, 2, 61, 95
3, 311040, Note_off_c, 2, 61, 95
3, 311040, Note_on_c, 2, 73, 95
3, 311040, Note_on_c, 2, 55, 95
3, 311040, Note_on_c, 2, 61, 95
3, 311093, Note_off_c, 2, 55, 95
3, 312960, Note_off_c, 2, 73, 95
3, 312960, Note_off_c, 2, 61, 95
3, 312960, Note_on_c, 2, 67, 95
3, 313600, Note_off_c, 2, 67, 95
3, 313600, Note_on_c, 2, 67, 95
3, 314240, Note_off_c, 2, 67, 95
3, 314240, Note_on_c, 2, 67, 95
3, 314880, Note_off_c, 2, 67, 95
3, 314880, Note_on_c, 2, 73, 95
3, 314880, Note_on_c, 2, 55, 95
3, 314880, Note_on_c, 2, 61, 95
3, 314933, Note_off_c, 2, 55, 95
3, 316800, Note_off_c, 2, 73, 95
3, 316800, Note_off_c, 2, 61, 95
3, 316800, Note_on_c, 2, 67, 95
3, 317440, Note_off_c, 2, 67, 95
3, 317440, Note_on_c, 2, 67, 95
3, 318080, Note_off_c, 2, 67, 95
3, 318080, Note_on_c, 2, 67, 95
3, 318720, Note_off_c, 2, 67, 95
3, 318720, Note_on_c, 2, 67, 95
3, 318840, Pitch_bend_c, 2, 7680
3, 318960, Pitch_bend_c, 2, 7168
3, 319080, Pitch_bend_c, 2, 6656
3, 319200, Pitch_bend_c, 2, 6144
3, 319200, Pitch_bend_c, 2, 8192
3, 319200, Note_off_c, 2, 67, 95
3, 319200, Note_on_c, 2, 64, 95
3, 319680, Note_off_c, 2, 64, 95
3, 319680, Note_on_c, 2, 64, 95
3, 322560, Note_off_c, 2, 64, 95
3, 322560, Note_on_c, 2, 62, 95
3, 322800, Note_off_c, 2, 62, 95
3, 322800, Note_on_c, 2, 64, 70
3, 323040, Note_off_c, 2, 64, 70
3, 323040, Note_on_c, 2, 62, 70
3, 323520, Note_off_c, 2, 62, 70
3, 323520, Note_on_c, 2, 61, 95
3, 324480, Note_off_c, 2, 61, 95
3, 324480, Note_on_c, 2, 61, 47
3, 324600, Pitch_bend_c, 2, 7552
3, 324720, Pitch_bend_c, 2, 6784
3, 324840, Pitch_bend_c, 2, 6144
3, 324960, Pitch_bend_c, 2, 5376
3, 324960, Pitch_bend_c, 2, 8192
3, 324960, Note_off_c, 2, 61, 47
3, 324960, Note_on_c, 2, 57, 95
3, 325440, Note_off_c, 2, 57, 95
3, 325440, Note_on_c, 2, 57, 95
3, 326400, Note_off_c, 2, 57, 95
3, 326400, Note_on_c, 2, 59, 95
3, 328320, Note_off_c, 2, 59, 95
3, 328320, Note_on_c, 2, 59, 47
3, 328440, Pitch_bend_c, 2, 11008
3, 328560, Pitch_bend_c, 2, 13824
3, 328560, Pitch_bend_c, 2, 8192
3, 328560, Note_off_c, 2, 59, 47
3, 328560, Note_on_c, 2, 67, 95
3, 328800, Note_off_c, 2, 67, 95
3, 328800, Note_on_c, 2, 67, 95
3, 329040, Note_off_c, 2, 67, 95
3, 329040, Note_on_c, 2, 67, 95
3, 329280, Note_off_c, 2, 67, 95
3, 329280, Note_on_c, 2, 67, 95
3, 329520, Note_off_c, 2, 67, 95
3, 329520, Note_on_c, 2, 67, 95
3, 329760, Note_off_c, 2, 67, 95
3, 329760, Note_on_c, 2, 67, 95
3, 330240, Note_off_c, 2, 67, 95
3, 330240, Note_on_c, 2, 59, 95
3, 330240, Note_on_c, 2, 67, 95
3, 331680, Note_off_c, 2, 59, 95
3, 331680, Note_off_c, 2, 67, 95
3, 331680, Note_on_c, 2, 68, 95
3, 332160, Note_off_c, 2, 68, 95
3, 332160, Note_on_c, 2, 67, 95
3, 332800, Note_off_c, 2, 67, 95
3, 332800, Note_on_c, 2, 68, 95
3, 333440, Note_off_c, 2, 68, 95
3, 333440, Note_on_c, 2, 67, 95
3, 334080, Note_off_c, 2, 67, 95
3, 334080, Note_on_c, 2, 68, 95
3, 334560, Note_off_c, 2, 68, 95
3, 336000, Pitch_bend_c, 2, 8192
3, 336000, Note_on_c, 2, 71, 95
3, 336000, Pitch_bend_c, 2, 8192
3, 336000, Note_on_c, 2, 59, 95
3, 336064, Pitch_bend_c, 2, 8320
3, 336064, Pitch_bend_c, 2, 8320
3, 336128, Pitch_bend_c, 2, 8448
3, 336128, Pitch_bend_c, 2, 8448
3, 336192, Pitch_bend_c, 2, 8576
3, 336192, Pitch_bend_c, 2, 8576
3, 336256, Pitch_bend_c, 2, 8704
3, 336256, Pitch_bend_c, 2, 8704
3, 336320, Pitch_bend_c, 2, 8832
3, 336320, Pitch_bend_c, 2, 8832
3, 336320, Pitch_bend_c, 2, 8832
3, 336320, Pitch_bend_c, 2, 8832
3, 336640, Pitch_bend_c, 2, 8832
3, 336640, Pitch_bend_c, 2, 8192
3, 336640, Note_off_c, 2, 71, 95
3, 336640, Pitch_bend_c, 2, 8832
3, 336640, Pitch_bend_c, 2, 8192
3, 336640, Note_off_c, 2, 59, 95
3, 336640, Note_on_c, 2, 71, 95
3, 336640, Note_on_c, 2, 59, 95
3, 337280, Note_off_c, 2, 71, 95
3, 337280, Note_off_c, 2, 59, 95
3, 337280, Pitch_bend_c, 2, 8192
3, 337280, Note_on_c, 2, 71, 95
3, 337280, Pitch_bend_c, 2, 8192
3, 337280, Note_on_c, 2, 59, 95
3, 337344, Pitch_bend_c, 2, 8320
3, 337344, Pitch_bend_c, 2, 8320
3, 337408, Pitch_bend_c, 2, 8448
3, 337408, Pitch_bend_c, 2, 8448
3, 337472, Pitch_bend_c, 2, 8576
3, 337472, Pitch_bend_c, 2, 8576
3, 337536, Pitch_bend_c, 2, 8704
3, 337536, Pitch_bend_c, 2, 8704
3, 337600, Pitch_bend_c, 2, 8832
3, 337600, Pitch_bend_c, 2, 8832
3, 337600, Pitch_bend_c, 2, 8832
3, 337600, Pitch_bend_c, 2, 8832
3, 337920, Pitch_bend_c, 2, 8832
3, 337920, Pitch_bend_c, 2, 8192
3, 337920, Note_off_c, 2, 71, 95
3, 337920, Pitch_bend_c, 2, 8832
3, 337920, Pitch_bend_c, 2, 8192
3, 337920, Note_off_c, 2, 59, 95
3, 337920, Pitch_bend_c, 2, 8192
3, 337920, Note_on_c, 2, 71, 95
3, 337920, Pitch_bend_c, 2, 8192
3, 337920, Note_on_c, 2, 59, 95
3, 337968, Pitch_bend_c, 2, 8320
3, 337968, Pitch_bend_c, 2, 8320
3, 338016, Pitch_bend_c, 2, 8448
3, 338016, Pitch_bend_c, 2, 8448
3, 338064, Pitch_bend_c, 2, 8576
3, 338064, Pitch_bend_c, 2, 8576
3, 338112, Pitch_bend_c, 2, 8704
3, 338112, Pitch_bend_c, 2, 8704
3, 338160, Pitch_bend_c, 2, 8832
3, 338160, Pitch_bend_c, 2, 8832
3, 338160, Pitch_bend_c, 2, 8832
3, 338160, Pitch_bend_c, 2, 8832
3, 338400, Pitch_bend_c, 2, 8832
3, 338400, Pitch_bend_c, 2, 8832
3, 338448, Pitch_bend_c, 2, 8704
3, 338448, Pitch_bend_c, 2, 8704
3, 338496, Pitch_bend_c, 2, 8576
3, 338496, Pitch_bend_c, 2, 8576
3, 338544, Pitch_bend_c, 2, 8448
3, 338544, Pitch_bend_c, 2, 8448
3, 338592, Pitch_bend_c, 2, 8320
3, 338592, Pitch_bend_c, 2, 8320
3, 338640, Pitch_bend_c, 2, 8192
3, 338640, Pitch_bend_c, 2, 8192
3, 338640, Pitch_bend_c, 2, 8192
3, 338640, Pitch_bend_c, 2, 8192
3, 338880, Pitch_bend_c, 2, 8192
3, 338880, Pitch_bend_c, 2, 8192
3, 338880, Note_off_c, 2, 71, 95
3, 338880, Pitch_bend_c, 2, 8192
3, 338880, Pitch_bend_c, 2, 8192
3, 338880, Note_off_c, 2, 59, 95
3, 338880, Note_on_c, 2, 59, 95
3, 338880, Note_on_c, 2, 55, 95
3, 338880, Note_on_c, 2, 50, 95
3, 338933, Note_off_c, 2, 59, 95
3, 338933, Note_off_c, 2, 55, 95
3, 338933, Note_off_c, 2, 50, 95
3, 339120, Note_on_c, 2, 59, 95
3, 339120, Note_on_c, 2, 55, 95
3, 339120, Note_on_c, 2, 50, 95
3, 339173, Note_off_c, 2, 59, 95
3, 339173, Note_off_c, 2, 55, 95
3, 339173, Note_off_c, 2, 50, 95
3, 339360, Note_on_c, 2, 67, 95
3, 339360, Note_on_c, 2, 55, 95
3, 339840, Note_off_c, 2, 67, 95
3, 339840, Note_off_c, 2, 55, 95
3, 339840, Note_on_c, 2, 67, 95
3, 339840, Note_on_c, 2, 55, 95
3, 340480, Note_off_c, 2, 67, 95
3, 340480, Note_off_c, 2, 55, 95
3, 340480, Note_on_c, 2, 69, 95
3, 340480, Note_on_c, 2, 57, 95
3, 341120, Note_off_c, 2, 69, 95
3, 341120, Note_off_c, 2, 57, 95
3, 341120, Note_on_c, 2, 69, 95
3, 341120, Note_on_c, 2, 57, 95
3, 341760, Note_off_c, 2, 69, 95
3, 341760, Note_off_c, 2, 57, 95
3, 341760, Note_on_c, 2, 69, 95
3, 341760, Note_on_c, 2, 57, 95
3, 341888, Pitch_bend_c, 2, 8448
3, 341888, Pitch_bend_c, 2, 8448
3, 342016, Pitch_bend_c, 2, 8704
3, 342016, Pitch_bend_c, 2, 8704
3, 342144, Pitch_bend_c, 2, 8960
3, 342144, Pitch_bend_c, 2, 8960
3, 342272, Pitch_bend_c, 2, 9216
3, 342272, Pitch_bend_c, 2, 9216
3, 342400, Pitch_bend_c, 2, 9600
3, 342400, Pitch_bend_c, 2, 8192
3, 342400, Note_off_c, 2, 69, 95
3, 342400, Pitch_bend_c, 2, 9600
3, 342400, Pitch_bend_c, 2, 8192
3, 342400, Note_off_c, 2, 57, 95
3, 342400, Note_on_c, 2, 71, 95
3, 342400, Note_on_c, 2, 59, 95
3, 343040, Note_off_c, 2, 71, 95
3, 343040, Note_off_c, 2, 59, 95
3, 343040, Note_on_c, 2, 45, 95
3, 343680, Note_off_c, 2, 45, 95
3, 343680, Note_on_c, 2, 71, 95
3, 343680, Note_on_c, 2, 59, 95
3, 345600, Note_off_c, 2, 71, 95
3, 345600, Note_off_c, 2, 59, 95
3, 346080, Note_on_c, 2, 66, 95
3, 346080, Note_on_c, 2, 54, 95
3, 347040, Note_off_c, 2, 66, 95
3, 347040, Note_off_c, 2, 54, 95
3, 347040, Note_on_c, 2, 67, 95
3, 347040, Note_on_c, 2, 55, 95
3, 347520, Note_off_c, 2, 67, 95
3, 347520, Note_off_c, 2, 55, 95
3, 347520, Note_on_c, 2, 67, 95
3, 347520, Note_on_c, 2, 55, 95
3, 348160, Note_off_c, 2, 67, 95
3, 348160, Note_off_c, 2, 55, 95
3, 348160, Note_on_c, 2, 66, 95
3, 348160, Note_on_c, 2, 54, 95
3, 349440, Note_off_c, 2, 66, 95
3, 349440, Note_off_c, 2, 54, 95
3, 349920, Note_on_c, 2, 62, 95
3, 351360, Note_off_c, 2, 62, 95
3, 351360, Note_on_c, 2, 64, 95
3, 352320, Note_off_c, 2, 64, 95
3, 352320, Note_on_c, 2, 62, 95
3, 352800, Note_off_c, 2, 62, 95
3, 352800, Note_on_c, 2, 64, 95
3, 353760, Note_off_c, 2, 64, 95
3, 353760, Note_on_c, 2, 62, 95
3, 354240, Note_off_c, 2, 62, 95
3, 354240, Note_on_c, 2, 64, 95
3, 355200, Note_off_c, 2, 64, 95
3, 355200, Note_on_c, 2, 62, 95
3, 355680, Note_off_c, 2, 62, 95
3, 355680, Note_on_c, 2, 64, 95
3, 356640, Note_off_c, 2, 64, 95
3, 356640, Note_on_c, 2, 62, 95
3, 356760, Pitch_bend_c, 2, 9856
3, 356880, Pitch_bend_c, 2, 11648
3, 357000, Pitch_bend_c, 2, 13440
3, 357120, Pitch_bend_c, 2, 15232
3, 357120, Pitch_bend_c, 2, 8192
3, 357120, Note_off_c, 2, 62, 95
3, 357120, Note_on_c, 2, 72, 95
3, 357760, Note_off_c, 2, 72, 95
3, 357760, Note_on_c, 2, 71, 95
3, 358400, Note_off_c, 2, 71, 95
3, 358400, Note_on_c, 2, 64, 95
3, 359040, Note_off_c, 2, 64, 95
3, 359040, Note_on_c, 2, 71, 95
3, 359680, Note_off_c, 2, 71, 95
3, 359680, Note_on_c, 2, 64, 95
3, 360320, Note_off_c, 2, 64, 95
3, 360320, Note_on_c, 2, 71, 95
3, 360960, Note_off_c, 2, 71, 95
3, 360960, Note_on_c, 2, 69, 95
3, 362400, Note_off_c, 2, 69, 95
3, 362400, Note_on_c, 2, 68, 95
3, 362640, Note_off_c, 2, 68, 95
3, 362640, Note_on_c, 2, 69, 70
3, 362880, Note_off_c, 2, 69, 70
3, 362880, Note_on_c, 2, 69, 47
3, 363000, Pitch_bend_c, 2, 6528
3, 363120, Pitch_bend_c, 2, 4736
3, 363240, Pitch_bend_c, 2, 2944
3, 363360, Pitch_bend_c, 2, 1152
3, 363360, Pitch_bend_c, 2, 8192
3, 363360, Note_off_c, 2, 69, 47
3, 363360, Note_on_c, 2, 59, 95
3, 363360, Note_on_c, 2, 55, 95
3, 364800, Note_off_c, 2, 59, 95
3, 364800, Note_off_c, 2, 55, 95
3, 364800, Note_on_c, 2, 61, 95
3, 364920, Pitch_bend_c, 2, 8448
3, 365040, Pitch_bend_c, 2, 8832
3, 365160, Pitch_bend_c, 2, 9216
3, 365280, Pitch_bend_c, 2, 9600
3, 365400, Pitch_bend_c, 2, 9856
3, 365520, Pitch_bend_c, 2, 10240
3, 365520, Pitch_bend_c, 2, 8192
3, 365520, Note_off_c, 2, 61, 95
3, 365520, Note_on_c, 2, 64, 95
3, 366240, Note_off_c, 2, 64, 95
3, 366240, Note_on_c, 2, 64, 95
3, 366720, Note_off_c, 2, 64, 95
3, 366720, Note_on_c, 2, 64, 95
3, 367440, Note_off_c, 2, 64, 95
3, 367440, Note_on_c, 2, 64, 47
3, 367680, Note_off_c, 2, 64, 47
3, 368160, Note_on_c, 2, 71, 95
3, 368160, Note_on_c, 2, 64, 95
3, 368640, Note_off_c, 2, 71, 95
3, 368640, Note_off_c, 2, 64, 95
3, 368640, Pitch_bend_c, 2, 8192
3, 368640, Note_on_c, 2, 71, 95
3, 368640, Pitch_bend_c, 2, 8192
3, 368640, Note_on_c, 2, 64, 95
3, 368736, Pitch_bend_c, 2, 8320
3, 368736, Pitch_bend_c, 2, 8320
3, 368832, Pitch_bend_c, 2, 8448
3, 368832, Pitch_bend_c, 2, 8448
3, 368928, Pitch_bend_c, 2, 8576
3, 368928, Pitch_bend_c, 2, 8576
3, 369024, Pitch_bend_c, 2, 8704
3, 369024, Pitch_bend_c, 2, 8704
3, 369120, Pitch_bend_c, 2, 8832
3, 369120, Pitch_bend_c, 2, 8832
3, 369120, Pitch_bend_c, 2, 8832
3, 369120, Pitch_bend_c, 2, 8832
3, 369600, Pitch_bend_c, 2, 8832
3, 369600, Pitch_bend_c, 2, 8192
3, 369600, Note_off_c, 2, 71, 95
3, 369600, Pitch_bend_c, 2, 8832
3, 369600, Pitch_bend_c, 2, 8192
3, 369600, Note_off_c, 2, 64, 95
3, 369600, Pitch_bend_c, 2, 8192
3, 369600, Note_on_c, 2, 71, 95
3, 369648, Pitch_bend_c, 2, 8320
3, 369696, Pitch_bend_c, 2, 8448
3, 369744, Pitch_bend_c, 2, 8576
3, 369792, Pitch_bend_c, 2, 8704
3, 369840, Pitch_bend_c, 2, 8832
3, 369840, Pitch_bend_c, 2, 8832
3, 370080, Pitch_bend_c, 2, 8832
3, 370080, Pitch_bend_c, 2, 8192
3, 370080, Note_off_c, 2, 71, 95
3, 370080, Note_on_c, 2, 71, 95
3, 370560, Note_off_c, 2, 71, 95
3, 370560, Pitch_bend_c, 2, 8192
3, 370560, Note_on_c, 2, 71, 95
3, 370608, Pitch_bend_c, 2, 8320
3, 370656, Pitch_bend_c, 2, 8448
3, 370704, Pitch_bend_c, 2, 8576
3, 370752, Pitch_bend_c, 2, 8704
3, 370800, Pitch_bend_c, 2, 8832
3, 370800, Pitch_bend_c, 2, 8832
3, 371040, Pitch_bend_c, 2, 8832
3, 371088, Pitch_bend_c, 2, 8704
3, 371136, Pitch_bend_c, 2, 8576
3, 371184, Pitch_bend_c, 2, 8448
3, 371232, Pitch_bend_c, 2, 8320
3, 371280, Pitch_bend_c, 2, 8192
3, 371280, Pitch_bend_c, 2, 8192
3, 371520, Pitch_bend_c, 2, 8192
3, 371520, Pitch_bend_c, 2, 8192
3, 371520, Note_off_c, 2, 71, 95
3, 371520, Note_on_c, 2, 71, 95
3, 371520, Note_on_c, 2, 64, 95
3, 372000, Note_off_c, 2, 71, 95
3, 372000, Note_off_c, 2, 64, 95
3, 372480, Pitch_bend_c, 2, 8192
3, 372480, Note_on_c, 2, 59, 95
3, 372510, Pitch_bend_c, 2, 8320
3, 372540, Pitch_bend_c, 2, 8448
3, 372570, Pitch_bend_c, 2, 8576
3, 372600, Pitch_bend_c, 2, 8704
3, 372630, Pitch_bend_c, 2, 8832
3, 372660, Pitch_bend_c, 2, 8960
3, 372690, Pitch_bend_c, 2, 9088
3, 372720, Pitch_bend_c, 2, 9216
3, 372750, Pitch_bend_c, 2, 9344
3, 372780, Pitch_bend_c, 2, 9472
3, 372810, Pitch_bend_c, 2, 9600
3, 372840, Pitch_bend_c, 2, 9728
3, 372870, Pitch_bend_c, 2, 9856
3, 372900, Pitch_bend_c, 2, 9984
3, 372930, Pitch_bend_c, 2, 10112
3, 372960, Pitch_bend_c, 2, 10240
3, 372960, Pitch_bend_c, 2, 10240
3, 373440, Pitch_bend_c, 2, 10240
3, 373470, Pitch_bend_c, 2, 10112
3, 373500, Pitch_bend_c, 2, 9984
3, 373530, Pitch_bend_c, 2, 9856
3, 373560, Pitch_bend_c, 2, 9728
3, 373590, Pitch_bend_c, 2, 9600
3, 373620, Pitch_bend_c, 2, 9472
3, 373650, Pitch_bend_c, 2, 9344
3, 373680, Pitch_bend_c, 2, 9216
3, 373710, Pitch_bend_c, 2, 9088
3, 373740, Pitch_bend_c, 2, 8960
3, 373770, Pitch_bend_c, 2, 8832
3, 373800, Pitch_bend_c, 2, 8704
3, 373830, Pitch_bend_c, 2, 8576
3, 373860, Pitch_bend_c, 2, 8448
3, 373890, Pitch_bend_c, 2, 8320
3, 373920, Pitch_bend_c, 2, 8192
3, 373920, Pitch_bend_c, 2, 8192
3, 374400, Pitch_bend_c, 2, 8192
3, 374400, Pitch_bend_c, 2, 8192
3, 374400, Note_off_c, 2, 59, 95
3, 374400, Note_on_c, 2, 59, 95
3, 374560, Pitch_bend_c, 2, 8192
3, 374720, Pitch_bend_c, 2, 8320
3, 374880, Pitch_bend_c, 2, 8192
3, 375040, Pitch_bend_c, 2, 8320
3, 375200, Pitch_bend_c, 2, 8192
3, 375360, Pitch_bend_c, 2, 8320
3, 375520, Pitch_bend_c, 2, 8192
3, 375680, Pitch_bend_c, 2, 8320
3, 375840, Pitch_bend_c, 2, 8192
3, 376000, Pitch_bend_c, 2, 8320
3, 376160, Pitch_bend_c, 2, 8192
3, 376320, Pitch_bend_c, 2, 8320
3, 376320, Pitch_bend_c, 2, 8192
3, 376320, Note_off_c, 2, 59, 95
3, 376320, Note_on_c, 2, 59, 95
3, 376480, Pitch_bend_c, 2, 8192
3, 376640, Pitch_bend_c, 2, 8320
3, 376800, Pitch_bend_c, 2, 8192
3, 376960, Pitch_bend_c, 2, 8320
3, 377120, Pitch_bend_c, 2, 8192
3, 377280, Pitch_bend_c, 2, 8320
3, 377280, Pitch_bend_c, 2, 8192
3, 377280, Note_off_c, 2, 59, 95
3, 377280, Pitch_bend_c, 2, 8192
3, 377280, Note_on_c, 2, 64, 95
3, 377290, Pitch_bend_c, 2, 8320
3, 377300, Pitch_bend_c, 2, 8448
3, 377310, Pitch_bend_c, 2, 8576
3, 377320, Pitch_bend_c, 2, 8704
3, 377330, Pitch_bend_c, 2, 8832
3, 377340, Pitch_bend_c, 2, 8960
3, 377350, Pitch_bend_c, 2, 9088
3, 377360, Pitch_bend_c, 2, 9216
3, 377370, Pitch_bend_c, 2, 9344
3, 377380, Pitch_bend_c, 2, 9472
3, 377390, Pitch_bend_c, 2, 9600
3, 377400, Pitch_bend_c, 2, 9728
3, 377410, Pitch_bend_c, 2, 9856
3, 377420, Pitch_bend_c, 2, 9984
3, 377430, Pitch_bend_c, 2, 10112
3, 377440, Pitch_bend_c, 2, 10240
3, 377450, Pitch_bend_c, 2, 10368
3, 377460, Pitch_bend_c, 2, 10496
3, 377470, Pitch_bend_c, 2, 10624
3, 377480, Pitch_bend_c, 2, 10752
3, 377490, Pitch_bend_c, 2, 10880
3, 377500, Pitch_bend_c, 2, 11008
3, 377520, Pitch_bend_c, 2, 11008
3, 377760, Pitch_bend_c, 2, 11008
3, 377770, Pitch_bend_c, 2, 10880
3, 377780, Pitch_bend_c, 2, 10752
3, 377790, Pitch_bend_c, 2, 10624
3, 377800, Pitch_bend_c, 2, 10496
3, 377810, Pitch_bend_c, 2, 10368
3, 377820, Pitch_bend_c, 2, 10240
3, 377830, Pitch_bend_c, 2, 10112
3, 377840, Pitch_bend_c, 2, 9984
3, 377850, Pitch_bend_c, 2, 9856
3, 377860, Pitch_bend_c, 2, 9728
3, 377870, Pitch_bend_c, 2, 9600
3, 377880, Pitch_bend_c, 2, 9472
3, 377890, Pitch_bend_c, 2, 9344
3, 377900, Pitch_bend_c, 2, 9216
3, 377910, Pitch_bend_c, 2, 9088
3, 377920, Pitch_bend_c, 2, 8960
3, 377930, Pitch_bend_c, 2, 8832
3, 377940, Pitch_bend_c, 2, 8704
3, 377950, Pitch_bend_c, 2, 8576
3, 377960, Pitch_bend_c, 2, 8448
3, 377970, Pitch_bend_c, 2, 8320
3, 377980, Pitch_bend_c, 2, 8192
3, 378000, Pitch_bend_c, 2, 8192
3, 378240, Pitch_bend_c, 2, 8192
3, 378240, Pitch_bend_c, 2, 8192
3, 378240, Note_off_c, 2, 64, 95
3, 378240, Pitch_bend_c, 2, 8192
3, 378240, Note_on_c, 2, 64, 95
3, 378250, Pitch_bend_c, 2, 8320
3, 378260, Pitch_bend_c, 2, 8448
3, 378270, Pitch_bend_c, 2, 8576
3, 378280, Pitch_bend_c, 2, 8704
3, 378290, Pitch_bend_c, 2, 8832
3, 378300, Pitch_bend_c, 2, 8960
3, 378310, Pitch_bend_c, 2, 9088
3, 378320, Pitch_bend_c, 2, 9216
3, 378330, Pitch_bend_c, 2, 9344
3, 378340, Pitch_bend_c, 2, 9472
3, 378350, Pitch_bend_c, 2, 9600
3, 378360, Pitch_bend_c, 2, 9728
3, 378370, Pitch_bend_c, 2, 9856
3, 378380, Pitch_bend_c, 2, 9984
3, 378390, Pitch_bend_c, 2, 10112
3, 378400, Pitch_bend_c, 2, 10240
3, 378410, Pitch_bend_c, 2, 10368
3, 378420, Pitch_bend_c, 2, 10496
3, 378430, Pitch_bend_c, 2, 10624
3, 378440, Pitch_bend_c, 2, 10752
3, 378450, Pitch_bend_c, 2, 10880
3, 378460, Pitch_bend_c, 2, 11008
3, 378480, Pitch_bend_c, 2, 11008
3, 378720, Pitch_bend_c, 2, 11008
3, 378730, Pitch_bend_c, 2, 10880
3, 378740, Pitch_bend_c, 2, 10752
3, 378750, Pitch_bend_c, 2, 10624
3, 378760, Pitch_bend_c, 2, 10496
3, 378770, Pitch_bend_c, 2, 10368
3, 378780, Pitch_bend_c, 2, 10240
3, 378790, Pitch_bend_c, 2, 10112
3, 378800, Pitch_bend_c, 2, 9984
3, 378810, Pitch_bend_c, 2, 9856
3, 378820, Pitch_bend_c, 2, 9728
3, 378830, Pitch_bend_c, 2, 9600
3, 378840, Pitch_bend_c, 2, 9472
3, 378850, Pitch_bend_c, 2, 9344
3, 378860, Pitch_bend_c, 2, 9216
3, 378870, Pitch_bend_c, 2, 9088
3, 378880, Pitch_bend_c, 2, 8960
3, 378890, Pitch_bend_c, 2, 8832
3, 378900, Pitch_bend_c, 2, 8704
3, 378910, Pitch_bend_c, 2, 8576
3, 378920, Pitch_bend_c, 2, 8448
3, 378930, Pitch_bend_c, 2, 8320
3, 378940, Pitch_bend_c, 2, 8192
3, 378960, Pitch_bend_c, 2, 8192
3, 379200, Pitch_bend_c, 2, 8192
3, 379200, Pitch_bend_c, 2, 8192
3, 379200, Note_off_c, 2, 64, 95
3, 379680, Pitch_bend_c, 2, 8192
3, 379680, Note_on_c, 2, 69, 95
3, 379690, Pitch_bend_c, 2, 8320
3, 379700, Pitch_bend_c, 2, 8448
3, 379710, Pitch_bend_c, 2, 8576
3, 379720, Pitch_bend_c, 2, 8704
3, 379730, Pitch_bend_c, 2, 8832
3, 379740, Pitch_bend_c, 2, 8960
3, 379750, Pitch_bend_c, 2, 9088
3, 379760, Pitch_bend_c, 2, 9216
3, 379770, Pitch_bend_c, 2, 9344
3, 379780, Pitch_bend_c, 2, 9472
3, 379790, Pitch_bend_c, 2, 9600
3, 379800, Pitch_bend_c, 2, 9728
3, 379810, Pitch_bend_c, 2, 9856
3, 379820, Pitch_bend_c, 2, 9984
3, 379830, Pitch_bend_c, 2, 10112
3, 379840, Pitch_bend_c, 2, 10240
3, 379850, Pitch_bend_c, 2, 10368
3, 379860, Pitch_bend_c, 2, 10496
3, 379870, Pitch_bend_c, 2, 10624
3, 379880, Pitch_bend_c, 2, 10752
3, 379890, Pitch_bend_c, 2, 10880
3, 379900, Pitch_bend_c, 2, 11008
3, 379920, Pitch_bend_c, 2, 11008
3, 380160, Pitch_bend_c, 2, 11008
3, 380160, Pitch_bend_c, 2, 8192
3, 380160, Note_off_c, 2, 69, 95
3, 380160, Pitch_bend_c, 2, 11008
3, 380160, Note_on_c, 2, 69, 95
3, 380400, Pitch_bend_c, 2, 11008
3, 380414, Pitch_bend_c, 2, 10880
3, 380428, Pitch_bend_c, 2, 10752
3, 380442, Pitch_bend_c, 2, 10624
3, 380456, Pitch_bend_c, 2, 10496
3, 380470, Pitch_bend_c, 2, 10368
3, 380484, Pitch_bend_c, 2, 10240
3, 380498, Pitch_bend_c, 2, 10112
3, 380512, Pitch_bend_c, 2, 9984
3, 380526, Pitch_bend_c, 2, 9856
3, 380540, Pitch_bend_c, 2, 9728
3, 380554, Pitch_bend_c, 2, 9600
3, 380568, Pitch_bend_c, 2, 9472
3, 380582, Pitch_bend_c, 2, 9344
3, 380596, Pitch_bend_c, 2, 9216
3, 380610, Pitch_bend_c, 2, 9088
3, 380624, Pitch_bend_c, 2, 8960
3, 380638, Pitch_bend_c, 2, 8832
3, 380640, Pitch_bend_c, 2, 8832
3, 380880, Pitch_bend_c, 2, 8832
3, 380880, Pitch_bend_c, 2, 8192
3, 380880, Note_off_c, 2, 69, 95
3, 380880, Pitch_bend_c, 2, 11008
3, 380880, Note_on_c, 2, 69, 95
3, 381600, Pitch_bend_c, 2, 11008
3, 381600, Pitch_bend_c, 2, 8192
3, 381600, Note_off_c, 2, 69, 95
3, 381600, Note_on_c, 2, 69, 95
3, 382080, Note_off_c, 2, 69, 95
3, 382080, Pitch_bend_c, 2, 11648
3, 382080, Note_on_c, 2, 69, 95
3, 382400, Pitch_bend_c, 2, 11648
3, 382411, Pitch_bend_c, 2, 11520
3, 382422, Pitch_bend_c, 2, 11392
3, 382433, Pitch_bend_c, 2, 11264
3, 382444, Pitch_bend_c, 2, 11136
3, 382455, Pitch_bend_c, 2, 11008
3, 382466, Pitch_bend_c, 2, 10880
3, 382477, Pitch_bend_c, 2, 10752
3, 382488, Pitch_bend_c, 2, 10624
3, 382499, Pitch_bend_c, 2, 10496
3, 382510, Pitch_bend_c, 2, 10368
3, 382521, Pitch_bend_c, 2, 10240
3, 382532, Pitch_bend_c, 2, 10112
3, 382543, Pitch_bend_c, 2, 9984
3, 382554, Pitch_bend_c, 2, 9856
3, 382565, Pitch_bend_c, 2, 9728
3, 382576, Pitch_bend_c, 2, 9600
3, 382587, Pitch_bend_c, 2, 9472
3, 382598, Pitch_bend_c, 2, 9344
3, 382609, Pitch_bend_c, 2, 9216
3, 382620, Pitch_bend_c, 2, 9088
3, 382631, Pitch_bend_c, 2, 8960
3, 382642, Pitch_bend_c, 2, 8832
3, 382653, Pitch_bend_c, 2, 8704
3, 382664, Pitch_bend_c, 2, 8576
3, 382675, Pitch_bend_c, 2, 8448
3, 382686, Pitch_bend_c, 2, 8320
3, 382697, Pitch_bend_c, 2, 8192
3, 382720, Pitch_bend_c, 2, 8192
3, 382920, Note_on_c, 2, 69, 95
3, 383040, Pitch_bend_c, 2, 8192
3, 383040, Pitch_bend_c, 2, 8192
3, 383040, Note_off_c, 2, 69, 95
3, 383040, Note_off_c, 2, 69, 95
3, 383040, Note_on_c, 2, 57, 95
3, 383400, Note_on_c, 2, 57, 95
3, 383520, Note_off_c, 2, 57, 95
3, 383520, Note_off_c, 2, 57, 95
3, 383520, Note_on_c, 2, 71, 95
3, 384000, Note_off_c, 2, 71, 95
3, 384000, Note_on_c, 2, 71, 47
3, 384960, Note_off_c, 2, 71, 47
3, 384960, Note_on_c, 2, 61, 95
3, 385080, Pitch_bend_c, 2, 7424
3, 385200, Pitch_bend_c, 2, 6656
3, 385320, Pitch_bend_c, 2, 5888
3, 385440, Pitch_bend_c, 2, 5120
3, 385560, Pitch_bend_c, 2, 4352
3, 385680, Pitch_bend_c, 2, 3456
3, 385800, Pitch_bend_c, 2, 2688
3, 385920, Pitch_bend_c, 2, 1920
3, 385920, Pitch_bend_c, 2, 8192
3, 385920, Note_off_c, 2, 61, 95
3, 385920, Note_on_c, 2, 52, 95
3, 386040, Pitch_bend_c, 2, 11648
3, 386160, Pitch_bend_c, 2, 15232
3, 386160, Pitch_bend_c, 2, 8192
3, 386160, Note_off_c, 2, 52, 95
3, 386160, Note_on_c, 2, 62, 95
3, 386880, Note_off_c, 2, 62, 95
3, 386880, Pitch_bend_c, 2, 8192
3, 386880, Note_on_c, 2, 62, 95
3, 386952, Pitch_bend_c, 2, 8320
3, 387024, Pitch_bend_c, 2, 8448
3, 387096, Pitch_bend_c, 2, 8576
3, 387168, Pitch_bend_c, 2, 8704
3, 387240, Pitch_bend_c, 2, 8832
3, 387240, Pitch_bend_c, 2, 8832
3, 387600, Pitch_bend_c, 2, 8832
3, 387600, Pitch_bend_c, 2, 8192
3, 387600, Note_off_c, 2, 62, 95
3, 387600, Pitch_bend_c, 2, 8192
3, 387600, Note_on_c, 2, 62, 95
3, 387621, Pitch_bend_c, 2, 8320
3, 387642, Pitch_bend_c, 2, 8448
3, 387663, Pitch_bend_c, 2, 8576
3, 387684, Pitch_bend_c, 2, 8704
3, 387705, Pitch_bend_c, 2, 8832
3, 387726, Pitch_bend_c, 2, 8960
3, 387747, Pitch_bend_c, 2, 9088
3, 387768, Pitch_bend_c, 2, 9216
3, 387789, Pitch_bend_c, 2, 9344
3, 387810, Pitch_bend_c, 2, 9472
3, 387831, Pitch_bend_c, 2, 9600
3, 387840, Pitch_bend_c, 2, 9600
3, 388080, Pitch_bend_c, 2, 9600
3, 388080, Pitch_bend_c, 2, 8192
3, 388080, Note_off_c, 2, 62, 95
3, 388080, Note_on_c, 2, 62, 95
3, 388800, Note_off_c, 2, 62, 95
3, 389760, Note_on_c, 2, 52, 95
3, 390000, Note_off_c, 2, 52, 95
3, 390000, Note_on_c, 2, 54, 70
3, 390240, Note_off_c, 2, 54, 70
3, 390240, Note_on_c, 2, 52, 70
3, 390480, Note_off_c, 2, 52, 70
3, 390480, Note_on_c, 2, 50, 70
3, 390720, Note_off_c, 2, 50, 70
3, 390720, Note_on_c, 2, 47, 95
3, 391200, Note_off_c, 2, 47, 95
3, 391200, Note_on_c, 2, 50, 95
3, 391680, Note_off_c, 2, 50, 95
3, 391680, Note_on_c, 2, 50, 47
3, 392160, Note_off_c, 2, 50, 47
3, 392160, Note_on_c, 2, 55, 95
3, 392640, Note_off_c, 2, 55, 95
3, 392640, Note_on_c, 2, 51, 95
3, 393120, Note_off_c, 2, 51, 95
3, 393120, Note_on_c, 2, 51, 95
3, 393600, Note_off_c, 2, 51, 95
3, 393600, Note_on_c, 2, 51, 95
3, 394080, Note_off_c, 2, 51, 95
3, 394080, Note_on_c, 2, 51, 95
3, 394440, Note_on_c, 2, 51, 95
3, 394560, Note_off_c, 2, 51, 95
3, 394560, Note_off_c, 2, 51, 95
3, 394560, Note_on_c, 2, 45, 95
3, 395520, Note_off_c, 2, 45, 95
3, 396240, Note_on_c, 2, 59, 95
3, 396293, Note_off_c, 2, 59, 95
3, 396960, Note_on_c, 2, 59, 95
3, 397013, Note_off_c, 2, 59, 95
3, 397013, End_track
4, 0, Start_track
4, 0, Pitch_bend_c, 4, 8192
4, 0, Control_c, 4, 7, 95
4, 0, Control_c, 4, 10, 63
4, 0, Control_c, 4, 93, 0
4, 0, Control_c, 4, 91, 0
4, 0, Control_c, 4, 95, 0
4, 0, Control_c, 4, 92, 0
4, 0, Control_c, 4, 11, 127
4, 0, Program_c, 4, 26
4, 0, Control_c, 5, 7, 95
4, 0, Control_c, 5, 10, 63
4, 0, Control_c, 5, 93, 0
4, 0, Control_c, 5, 91, 0
4, 0, Control_c, 5, 95, 0
4, 0, Control_c, 5, 92, 0
4, 0, Control_c, 5, 11, 127
4, 0, Program_c, 5, 26
4, 0, Note_on_c, 4, 45, 95
4, 1440, Note_off_c, 4, 45, 95
4, 1440, Note_on_c, 4, 45, 95
4, 2880, Note_off_c, 4, 45, 95
4, 2880, Note_on_c, 4, 40, 95
4, 3360, Note_off_c, 4, 40, 95
4, 3360, Note_on_c, 4, 43, 95
4, 3840, Note_off_c, 4, 43, 95
4, 3840, Note_on_c, 4, 45, 95
4, 5280, Note_off_c, 4, 45, 95
4, 5280, Note_on_c, 4, 45, 95
4, 6720, Note_off_c, 4, 45, 95
4, 6720, Note_on_c, 4, 40, 95
4, 7200, Note_off_c, 4, 40, 95
4, 7200, Note_on_c, 4, 43, 95
4, 7680, Note_off_c, 4, 43, 95
4, 7680, Note_on_c, 4, 45, 95
4, 9120, Note_off_c, 4, 45, 95
4, 9120, Note_on_c, 4, 45, 95
4, 10560, Note_off_c, 4, 45, 95
4, 10560, Note_on_c, 4, 40, 95
4, 11040, Note_off_c, 4, 40, 95
4, 11040, Note_on_c, 4, 43, 95
4, 11520, Note_off_c, 4, 43, 95
4, 11520, Note_on_c, 4, 42, 95
4, 12960, Note_off_c, 4, 42, 95
4, 12960, Note_on_c, 4, 45, 95
4, 14400, Note_off_c, 4, 45, 95
4, 14400, Note_on_c, 4, 40, 95
4, 14880, Note_off_c, 4, 40, 95
4, 14880, Note_on_c, 4, 43, 95
4, 15360, Note_off_c, 4, 43, 95
4, 15360, Note_on_c, 4, 42, 95
4, 16800, Note_off_c, 4, 42, 95
4, 16800, Note_on_c, 4, 42, 95
4, 18240, Note_off_c, 4, 42, 95
4, 18240, Note_on_c, 4, 40, 95
4, 18720, Note_off_c, 4, 40, 95
4, 18720, Note_on_c, 4, 43, 95
4, 19200, Note_off_c, 4, 43, 95
4, 19200, Note_on_c, 4, 45, 95
4, 20640, Note_off_c, 4, 45, 95
4, 20640, Note_on_c, 4, 45, 95
4, 22080, Note_off_c, 4, 45, 95
4, 22080, Note_on_c, 4, 40, 95
4, 22560, Note_off_c, 4, 40, 95
4, 22560, Note_on_c, 4, 43, 95
4, 23040, Note_off_c, 4, 43, 95
4, 23040, Note_on_c, 4, 45, 95
4, 24480, Note_off_c, 4, 45, 95
4, 24480, Note_on_c, 4, 45, 95
4, 25920, Note_off_c, 4, 45, 95
4, 25920, Note_on_c, 4, 40, 95
4, 26400, Note_off_c, 4, 40, 95
4, 26400, Note_on_c, 4, 43, 95
4, 26880, Note_off_c, 4, 43, 95
4, 26880, Note_on_c, 4, 42, 95
4, 28320, Note_off_c, 4, 42, 95
4, 28320, Note_on_c, 4, 45, 95
4, 29760, Note_off_c, 4, 45, 95
4, 29760, Note_on_c, 4, 40, 95
4, 30240, Note_off_c, 4, 40, 95
4, 30240, Note_on_c, 4, 43, 95
4, 30720, Note_off_c, 4, 43, 95
4, 30720, Note_on_c, 4, 42, 95
4, 32160, Note_off_c, 4, 42, 95
4, 32160, Note_on_c, 4, 42, 95
4, 33600, Note_off_c, 4, 42, 95
4, 33600, Note_on_c, 4, 40, 95
4, 34080, Note_off_c, 4, 40, 95
4, 34080, Note_on_c, 4, 43, 95
4, 34560, Note_off_c, 4, 43, 95
4, 34560, Note_on_c, 4, 45, 95
4, 36000, Note_off_c, 4, 45, 95
4, 36000, Note_on_c, 4, 45, 95
4, 37440, Note_off_c, 4, 45, 95
4, 37440, Note_on_c, 4, 40, 95
4, 37920, Note_off_c, 4, 40, 95
4, 37920, Note_on_c, 4, 43, 95
4, 38400, Note_off_c, 4, 43, 95
4, 38400, Note_on_c, 4, 45, 95
4, 39840, Note_off_c, 4, 45, 95
4, 39840, Note_on_c, 4, 45, 95
4, 41280, Note_off_c, 4, 45, 95
4, 41280, Note_on_c, 4, 40, 95
4, 41760, Note_off_c, 4, 40, 95
4, 41760, Note_on_c, 4, 43, 95
4, 42240, Note_off_c, 4, 43, 95
4, 42240, Note_on_c, 4, 42, 95
4, 43680, Note_off_c, 4, 42, 95
4, 43680, Note_on_c, 4, 45, 95
4, 45120, Note_off_c, 4, 45, 95
4, 45120, Note_on_c, 4, 40, 95
4, 45600, Note_off_c, 4, 40, 95
4, 45600, Note_on_c, 4, 43, 95
4, 46080, Note_off_c, 4, 43, 95
4, 46080, Note_on_c, 4, 42, 95
4, 47520, Note_off_c, 4, 42, 95
4, 47520, Note_on_c, 4, 42, 95
4, 48960, Note_off_c, 4, 42, 95
4, 48960, Note_on_c, 4, 40, 95
4, 49440, Note_off_c, 4, 40, 95
4, 49440, Note_on_c, 4, 43, 95
4, 49920, Note_off_c, 4, 43, 95
4, 49920, Note_on_c, 4, 45, 95
4, 51360, Note_off_c, 4, 45, 95
4, 51360, Note_on_c, 4, 45, 95
4, 52800, Note_off_c, 4, 45, 95
4, 52800, Note_on_c, 4, 40, 95
4, 53280, Note_off_c, 4, 40, 95
4, 53280, Note_on_c, 4, 43, 95
4, 53760, Note_off_c, 4, 43, 95
4, 53760, Note_on_c, 4, 45, 95
4, 55200, Note_off_c, 4, 45, 95
4, 55200, Note_on_c, 4, 45, 95
4, 56640, Note_off_c, 4, 45, 95
4, 56640, Note_on_c, 4, 40, 95
4, 57120, Note_off_c, 4, 40, 95
4, 57120, Note_on_c, 4, 43, 95
4, 57600, Note_off_c, 4, 43, 95
4, 57600, Note_on_c, 4, 42, 95
4, 59040, Note_off_c, 4, 42, 95
4, 59040, Note_on_c, 4, 45, 95
4, 60480, Note_off_c, 4, 45, 95
4, 60480, Note_on_c, 4, 40, 95
4, 60960, Note_off_c, 4, 40, 95
4, 60960, Note_on_c, 4, 43, 95
4, 61440, Note_off_c, 4, 43, 95
4, 61440, Note_on_c, 4, 42, 95
4, 62880, Note_off_c, 4, 42, 95
4, 62880, Note_on_c, 4, 42, 95
4, 64320, Note_off_c, 4, 42, 95
4, 64320, Note_on_c, 4, 40, 95
4, 64800, Note_off_c, 4, 40, 95
4, 64800, Note_on_c, 4, 43, 95
4, 65280, Note_off_c, 4, 43, 95
4, 65280, Note_on_c, 4, 45, 95
4, 66720, Note_off_c, 4, 45, 95
4, 66720, Note_on_c, 4, 45, 95
4, 68160, Note_off_c, 4, 45, 95
4, 68160, Note_on_c, 4, 40, 95
4, 68640, Note_off_c, 4, 40, 95
4, 68640, Note_on_c, 4, 43, 95
4, 69120, Note_off_c, 4, 43, 95
4, 69120, Note_on_c, 4, 45, 95
4, 70560, Note_off_c, 4, 45, 95
4, 70560, Note_on_c, 4, 45, 95
4, 72000, Note_off_c, 4, 45, 95
4, 72000, Note_on_c, 4, 40, 95
4, 72480, Note_off_c, 4, 40, 95
4, 72480, Note_on_c, 4, 43, 95
4, 72960, Note_off_c, 4, 43, 95
4, 72960, Note_on_c, 4, 42, 95
4, 74400, Note_off_c, 4, 42, 95
4, 74400, Note_on_c, 4, 45, 95
4, 75840, Note_off_c, 4, 45, 95
4, 75840, Note_on_c, 4, 40, 95
4, 76320, Note_off_c, 4, 40, 95
4, 76320, Note_on_c, 4, 43, 95
4, 76800, Note_off_c, 4, 43, 95
4, 76800, Note_on_c, 4, 42, 95
4, 78240, Note_off_c, 4, 42, 95
4, 78240, Note_on_c, 4, 42, 95
4, 79680, Note_off_c, 4, 42, 95
4, 79680, Note_on_c, 4, 40, 95
4, 80160, Note_off_c, 4, 40, 95
4, 80160, Note_on_c, 4, 43, 95
4, 80640, Note_off_c, 4, 43, 95
4, 80640, Note_on_c, 4, 45, 95
4, 82080, Note_off_c, 4, 45, 95
4, 82080, Note_on_c, 4, 45, 95
4, 83520, Note_off_c, 4, 45, 95
4, 83520, Note_on_c, 4, 40, 95
4, 84000, Note_off_c, 4, 40, 95
4, 84000, Note_on_c, 4, 43, 95
4, 84480, Note_off_c, 4, 43, 95
4, 84480, Note_on_c, 4, 45, 95
4, 85920, Note_off_c, 4, 45, 95
4, 85920, Note_on_c, 4, 45, 95
4, 87360, Note_off_c, 4, 45, 95
4, 87360, Note_on_c, 4, 40, 95
4, 87840, Note_off_c, 4, 40, 95
4, 87840, Note_on_c, 4, 43, 95
4, 88320, Note_off_c, 4, 43, 95
4, 88320, Note_on_c, 4, 42, 95
4, 89760, Note_off_c, 4, 42, 95
4, 89760, Note_on_c, 4, 45, 95
4, 91200, Note_off_c, 4, 45, 95
4, 91200, Note_on_c, 4, 40, 95
4, 91680, Note_off_c, 4, 40, 95
4, 91680, Note_on_c, 4, 43, 95
4, 92160, Note_off_c, 4, 43, 95
4, 92160, Note_on_c, 4, 42, 95
4, 93600, Note_off_c, 4, 42, 95
4, 93600, Note_on_c, 4, 42, 95
4, 95040, Note_off_c, 4, 42, 95
4, 95040, Note_on_c, 4, 40, 95
4, 95520, Note_off_c, 4, 40, 95
4, 95520, Note_on_c, 4, 43, 95
4, 96000, Note_off_c, 4, 43, 95
4, 96000, Note_on_c, 4, 45, 95
4, 97440, Note_off_c, 4, 45, 95
4, 97440, Note_on_c, 4, 45, 95
4, 98880, Note_off_c, 4, 45, 95
4, 98880, Note_on_c, 4, 40, 95
4, 99360, Note_off_c, 4, 40, 95
4, 99360, Note_on_c, 4, 43, 95
4, 99840, Note_off_c, 4, 43, 95
4, 99840, Note_on_c, 4, 45, 95
4, 101280, Note_off_c, 4, 45, 95
4, 101280, Note_on_c, 4, 45, 95
4, 102720, Note_off_c, 4, 45, 95
4, 102720, Note_on_c, 4, 40, 95
4, 103200, Note_off_c, 4, 40, 95
4, 103200, Note_on_c, 4, 43, 95
4, 103680, Note_off_c, 4, 43, 95
4, 103680, Note_on_c, 4, 42, 95
4, 105120, Note_off_c, 4, 42, 95
4, 105120, Note_on_c, 4, 45, 95
4, 106560, Note_off_c, 4, 45, 95
4, 106560, Note_on_c, 4, 40, 95
4, 107040, Note_off_c, 4, 40, 95
4, 107040, Note_on_c, 4, 43, 95
4, 107520, Note_off_c, 4, 43, 95
4, 107520, Note_on_c, 4, 42, 95
4, 108960, Note_off_c, 4, 42, 95
4, 108960, Note_on_c, 4, 42, 95
4, 110400, Note_off_c, 4, 42, 95
4, 110400, Note_on_c, 4, 40, 95
4, 110880, Note_off_c, 4, 40, 95
4, 110880, Note_on_c, 4, 43, 95
4, 111360, Note_off_c, 4, 43, 95
4, 111360, Note_on_c, 4, 45, 95
4, 112800, Note_off_c, 4, 45, 95
4, 112800, Note_on_c, 4, 45, 95
4, 114240, Note_off_c, 4, 45, 95
4, 114240, Note_on_c, 4, 40, 95
4, 114720, Note_off_c, 4, 40, 95
4, 114720, Note_on_c, 4, 43, 95
4, 115200, Note_off_c, 4, 43, 95
4, 115200, Note_on_c, 4, 45, 95
4, 116640, Note_off_c, 4, 45, 95
4, 116640, Note_on_c, 4, 45, 95
4, 118080, Note_off_c, 4, 45, 95
4, 118080, Note_on_c, 4, 40, 95
4, 118560, Note_off_c, 4, 40, 95
4, 118560, Note_on_c, 4, 43, 95
4, 119040, Note_off_c, 4, 43, 95
4, 119040, Note_on_c, 4, 42, 95
4, 120480, Note_off_c, 4, 42, 95
4, 120480, Note_on_c, 4, 45, 95
4, 121920, Note_off_c, 4, 45, 95
4, 121920, Note_on_c, 4, 40, 95
4, 122400, Note_off_c, 4, 40, 95
4, 122400, Note_on_c, 4, 43, 95
4, 122880, Note_off_c, 4, 43, 95
4, 122880, Note_on_c, 4, 42, 95
4, 124320, Note_off_c, 4, 42, 95
4, 124320, Note_on_c, 4, 42, 95
4, 125760, Note_off_c, 4, 42, 95
4, 125760, Note_on_c, 4, 40, 95
4, 126240, Note_off_c, 4, 40, 95
4, 126240, Note_on_c, 4, 43, 95
4, 126720, Note_off_c, 4, 43, 95
4, 126720, Note_on_c, 4, 45, 95
4, 128160, Note_off_c, 4, 45, 95
4, 128160, Note_on_c, 4, 45, 95
4, 129600, Note_off_c, 4, 45, 95
4, 129600, Note_on_c, 4, 40, 95
4, 130080, Note_off_c, 4, 40, 95
4, 130080, Note_on_c, 4, 43, 95
4, 130560, Note_off_c, 4, 43, 95
4, 130560, Note_on_c, 4, 45, 95
4, 132000, Note_off_c, 4, 45, 95
4, 132000, Note_on_c, 4, 45, 95
4, 133440, Note_off_c, 4, 45, 95
4, 133440, Note_on_c, 4, 40, 95
4, 133920, Note_off_c, 4, 40, 95
4, 133920, Note_on_c, 4, 43, 95
4, 134400, Note_off_c, 4, 43, 95
4, 134400, Note_on_c, 4, 42, 95
4, 135840, Note_off_c, 4, 42, 95
4, 135840, Note_on_c, 4, 45, 95
4, 137280, Note_off_c, 4, 45, 95
4, 137280, Note_on_c, 4, 40, 95
4, 137760, Note_off_c, 4, 40, 95
4, 137760, Note_on_c, 4, 43, 95
4, 138240, Note_off_c, 4, 43, 95
4, 138240, Note_on_c, 4, 42, 95
4, 139680, Note_off_c, 4, 42, 95
4, 139680, Note_on_c, 4, 42, 95
4, 141120, Note_off_c, 4, 42, 95
4, 141120, Note_on_c, 4, 40, 95
4, 141600, Note_off_c, 4, 40, 95
4, 141600, Note_on_c, 4, 43, 95
4, 142080, Note_off_c, 4, 43, 95
4, 142080, Note_on_c, 4, 45, 95
4, 143520, Note_off_c, 4, 45, 95
4, 143520, Note_on_c, 4, 45, 95
4, 144960, Note_off_c, 4, 45, 95
4, 144960, Note_on_c, 4, 40, 95
4, 145440, Note_off_c, 4, 40, 95
4, 145440, Note_on_c, 4, 43, 95
4, 145920, Note_off_c, 4, 43, 95
4, 145920, Note_on_c, 4, 45, 95
4, 147360, Note_off_c, 4, 45, 95
4, 147360, Note_on_c, 4, 45, 95
4, 148800, Note_off_c, 4, 45, 95
4, 148800, Note_on_c, 4, 40, 95
4, 149280, Note_off_c, 4, 40, 95
4, 149280, Note_on_c, 4, 43, 95
4, 149760, Note_off_c, 4, 43, 95
4, 149760, Note_on_c, 4, 42, 95
4, 151200, Note_off_c, 4, 42, 95
4, 151200, Note_on_c, 4, 45, 95
4, 152640, Note_off_c, 4, 45, 95
4, 152640, Note_on_c, 4, 40, 95
4, 153120, Note_off_c, 4, 40, 95
4, 153120, Note_on_c, 4, 43, 95
4, 153600, Note_off_c, 4, 43, 95
4, 153600, Note_on_c, 4, 42, 95
4, 155040, Note_off_c, 4, 42, 95
4, 155040, Note_on_c, 4, 42, 95
4, 156480, Note_off_c, 4, 42, 95
4, 156480, Note_on_c, 4, 40, 95
4, 156960, Note_off_c, 4, 40, 95
4, 156960, Note_on_c, 4, 43, 95
4, 157440, Note_off_c, 4, 43, 95
4, 157440, Note_on_c, 4, 45, 95
4, 158880, Note_off_c, 4, 45, 95
4, 158880, Note_on_c, 4, 45, 95
4, 160320, Note_off_c, 4, 45, 95
4, 160320, Note_on_c, 4, 40, 95
4, 160800, Note_off_c, 4, 40, 95
4, 160800, Note_on_c, 4, 43, 95
4, 161280, Note_off_c, 4, 43, 95
4, 161280, Note_on_c, 4, 45, 95
4, 162720, Note_off_c, 4, 45, 95
4, 162720, Note_on_c, 4, 45, 95
4, 164160, Note_off_c, 4, 45, 95
4, 164160, Note_on_c, 4, 40, 95
4, 164640, Note_off_c, 4, 40, 95
4, 164640, Note_on_c, 4, 43, 95
4, 165120, Note_off_c, 4, 43, 95
4, 165120, Note_on_c, 4, 42, 95
4, 166560, Note_off_c, 4, 42, 95
4, 166560, Note_on_c, 4, 45, 95
4, 168000, Note_off_c, 4, 45, 95
4, 168000, Note_on_c, 4, 40, 95
4, 168480, Note_off_c, 4, 40, 95
4, 168480, Note_on_c, 4, 43, 95
4, 168960, Note_off_c, 4, 43, 95
4, 168960, Note_on_c, 4, 42, 95
4, 170400, Note_off_c, 4, 42, 95
4, 170400, Note_on_c, 4, 42, 95
4, 171840, Note_off_c, 4, 42, 95
4, 171840, Note_on_c, 4, 40, 95
4, 172320, Note_off_c, 4, 40, 95
4, 172320, Note_on_c, 4, 43, 95
4, 172800, Note_off_c, 4, 43, 95
4, 172800, Note_on_c, 4, 45, 95
4, 174240, Note_off_c, 4, 45, 95
4, 174240, Note_on_c, 4, 45, 95
4, 175680, Note_off_c, 4, 45, 95
4, 175680, Note_on_c, 4, 40, 95
4, 176160, Note_off_c, 4, 40, 95
4, 176160, Note_on_c, 4, 43, 95
4, 176640, Note_off_c, 4, 43, 95
4, 176640, Note_on_c, 4, 45, 95
4, 178080, Note_off_c, 4, 45, 95
4, 178080, Note_on_c, 4, 45, 95
4, 179520, Note_off_c, 4, 45, 95
4, 179520, Note_on_c, 4, 40, 95
4, 180000, Note_off_c, 4, 40, 95
4, 180000, Note_on_c, 4, 43, 95
4, 180480, Note_off_c, 4, 43, 95
4, 180480, Note_on_c, 4, 42, 95
4, 181920, Note_off_c, 4, 42, 95
4, 181920, Note_on_c, 4, 45, 95
4, 183360, Note_off_c, 4, 45, 95
4, 183360, Note_on_c, 4, 40, 95
4, 183840, Note_off_c, 4, 40, 95
4, 183840, Note_on_c, 4, 43, 95
4, 184320, Note_off_c, 4, 43, 95
4, 184320, Note_on_c, 4, 42, 95
4, 185760, Note_off_c, 4, 42, 95
4, 185760, Note_on_c, 4, 42, 95
4, 187200, Note_off_c, 4, 42, 95
4, 187200, Note_on_c, 4, 40, 95
4, 187680, Note_off_c, 4, 40, 95
4, 187680, Note_on_c, 4, 43, 95
4, 188160, Note_off_c, 4, 43, 95
4, 188160, Note_on_c, 4, 45, 95
4, 189600, Note_off_c, 4, 45, 95
4, 189600, Note_on_c, 4, 45, 95
4, 191040, Note_off_c, 4, 45, 95
4, 191040, Note_on_c, 4, 40, 95
4, 191520, Note_off_c, 4, 40, 95
4, 191520, Note_on_c, 4, 43, 95
4, 192000, Note_off_c, 4, 43, 95
4, 192000, Note_on_c, 4, 45, 95
4, 193440, Note_off_c, 4, 45, 95
4, 193440, Note_on_c, 4, 45, 95
4, 194880, Note_off_c, 4, 45, 95
4, 194880, Note_on_c, 4, 40, 95
4, 195360, Note_off_c, 4, 40, 95
4, 195360, Note_on_c, 4, 43, 95
4, 195840, Note_off_c, 4, 43, 95
4, 195840, Note_on_c, 4, 42, 95
4, 197280, Note_off_c, 4, 42, 95
4, 197280, Note_on_c, 4, 45, 95
4, 198720, Note_off_c, 4, 45, 95
4, 198720, Note_on_c, 4, 40, 95
4, 199200, Note_off_c, 4, 40, 95
4, 199200, Note_on_c, 4, 43, 95
4, 199680, Note_off_c, 4, 43, 95
4, 199680, Note_on_c, 4, 42, 95
4, 201120, Note_off_c, 4, 42, 95
4, 201120, Note_on_c, 4, 42, 95
4, 202560, Note_off_c, 4, 42, 95
4, 202560, Note_on_c, 4, 40, 95
4, 203040, Note_off_c, 4, 40, 95
4, 203040, Note_on_c, 4, 43, 95
4, 203520, Note_off_c, 4, 43, 95
4, 203520, Note_on_c, 4, 45, 95
4, 204960, Note_off_c, 4, 45, 95
4, 204960, Note_on_c, 4, 45, 95
4, 206400, Note_off_c, 4, 45, 95
4, 206400, Note_on_c, 4, 40, 95
4, 206880, Note_off_c, 4, 40, 95
4, 206880, Note_on_c, 4, 43, 95
4, 207360, Note_off_c, 4, 43, 95
4, 207360, Note_on_c, 4, 45, 95
4, 208800, Note_off_c, 4, 45, 95
4, 208800, Note_on_c, 4, 45, 95
4, 210240, Note_off_c, 4, 45, 95
4, 210240, Note_on_c, 4, 40, 95
4, 210720, Note_off_c, 4, 40, 95
4, 210720, Note_on_c, 4, 43, 95
4, 211200, Note_off_c, 4, 43, 95
4, 211200, Note_on_c, 4, 42, 95
4, 212640, Note_off_c, 4, 42, 95
4, 212640, Note_on_c, 4, 45, 95
4, 214080, Note_off_c, 4, 45, 95
4, 214080, Note_on_c, 4, 40, 95
4, 214560, Note_off_c, 4, 40, 95
4, 214560, Note_on_c, 4, 43, 95
4, 215040, Note_off_c, 4, 43, 95
4, 215040, Note_on_c, 4, 42, 95
4, 216480, Note_off_c, 4, 42, 95
4, 216480, Note_on_c, 4, 42, 95
4, 217920, Note_off_c, 4, 42, 95
4, 217920, Note_on_c, 4, 40, 95
4, 218400, Note_off_c, 4, 40, 95
4, 218400, Note_on_c, 4, 43, 95
4, 218880, Note_off_c, 4, 43, 95
4, 249600, Note_on_c, 4, 45, 95
4, 251040, Note_off_c, 4, 45, 95
4, 251040, Note_on_c, 4, 45, 95
4, 252480, Note_off_c, 4, 45, 95
4, 252480, Note_on_c, 4, 40, 95
4, 252960, Note_off_c, 4, 40, 95
4, 252960, Note_on_c, 4, 43, 95
4, 253440, Note_off_c, 4, 43, 95
4, 253440, Note_on_c, 4, 45, 95
4, 254880, Note_off_c, 4, 45, 95
4, 254880, Note_on_c, 4, 45, 95
4, 256320, Note_off_c, 4, 45, 95
4, 256320, Note_on_c, 4, 40, 95
4, 256800, Note_off_c, 4, 40, 95
4, 256800, Note_on_c, 4, 43, 95
4, 257280, Note_off_c, 4, 43, 95
4, 257280, Note_on_c, 4, 42, 95
4, 258720, Note_off_c, 4, 42, 95
4, 258720, Note_on_c, 4, 45, 95
4, 260160, Note_off_c, 4, 45, 95
4, 260160, Note_on_c, 4, 40, 95
4, 260640, Note_off_c, 4, 40, 95
4, 260640, Note_on_c, 4, 43, 95
4, 261120, Note_off_c, 4, 43, 95
4, 261120, Note_on_c, 4, 42, 95
4, 262560, Note_off_c, 4, 42, 95
4, 262560, Note_on_c, 4, 42, 95
4, 264000, Note_off_c, 4, 42, 95
4, 264000, Note_on_c, 4, 40, 95
4, 264480, Note_off_c, 4, 40, 95
4, 264480, Note_on_c, 4, 43, 95
4, 264960, Note_off_c, 4, 43, 95
4, 264960, Note_on_c, 4, 45, 95
4, 266400, Note_off_c, 4, 45, 95
4, 266400, Note_on_c, 4, 45, 95
4, 267840, Note_off_c, 4, 45, 95
4, 267840, Note_on_c, 4, 40, 95
4, 268320, Note_off_c, 4, 40, 95
4, 268320, Note_on_c, 4, 43, 95
4, 268800, Note_off_c, 4, 43, 95
4, 268800, Note_on_c, 4, 45, 95
4, 270240, Note_off_c, 4, 45, 95
4, 270240, Note_on_c, 4, 45, 95
4, 271680, Note_off_c, 4, 45, 95
4, 271680, Note_on_c, 4, 40, 95
4, 272160, Note_off_c, 4, 40, 95
4, 272160, Note_on_c, 4, 43, 95
4, 272640, Note_off_c, 4, 43, 95
4, 272640, Note_on_c, 4, 42, 95
4, 274080, Note_off_c, 4, 42, 95
4, 274080, Note_on_c, 4, 45, 95
4, 275520, Note_off_c, 4, 45, 95
4, 275520, Note_on_c, 4, 40, 95
4, 276000, Note_off_c, 4, 40, 95
4, 276000, Note_on_c, 4, 43, 95
4, 276480, Note_off_c, 4, 43, 95
4, 276480, Note_on_c, 4, 42, 95
4, 277920, Note_off_c, 4, 42, 95
4, 277920, Note_on_c, 4, 42, 95
4, 279360, Note_off_c, 4, 42, 95
4, 279360, Note_on_c, 4, 40, 95
4, 279840, Note_off_c, 4, 40, 95
4, 279840, Note_on_c, 4, 43, 95
4, 280320, Note_off_c, 4, 43, 95
4, 280320, End_track
5, 0, Start_track
5, 0, Pitch_bend_c, 6, 8192
5, 0, Control_c, 6, 7, 71
5, 0, Control_c, 6, 10, 63
5, 0, Control_c, 6, 93, 0
5, 0, Control_c, 6, 91, 0
5, 0, Control_c, 6, 95, 0
5, 0, Control_c, 6, 92, 0
5, 0, Control_c, 6, 11, 127
5, 0, Program_c, 6, 34
5, 0, Control_c, 7, 7, 71
5, 0, Control_c, 7, 10, 63
5, 0, Control_c, 7, 93, 0
5, 0, Control_c, 7, 91, 0
5, 0, Control_c, 7, 95, 0
5, 0, Control_c, 7, 92, 0
5, 0, Control_c, 7, 11, 127
5, 0, Program_c, 7, 34
5, 3840, Note_on_c, 6, 33, 95
5, 5760, Note_off_c, 6, 33, 95
5, 5760, Note_on_c, 6, 38, 95
5, 6720, Note_off_c, 6, 38, 95
5, 6720, Note_on_c, 6, 38, 95
5, 7200, Note_off_c, 6, 38, 95
5, 7200, Note_on_c, 6, 40, 95
5, 7680, Note_off_c, 6, 40, 95
5, 7680, Note_on_c, 6, 33, 95
5, 9120, Note_off_c, 6, 33, 95
5, 9120, Note_on_c, 6, 38, 95
5, 10080, Note_off_c, 6, 38, 95
5, 10080, Note_on_c, 6, 39, 95
5, 10560, Note_off_c, 6, 39, 95
5, 11040, Note_on_c, 6, 40, 95
5, 11520, Note_off_c, 6, 40, 95
5, 11520, Note_on_c, 6, 38, 95
5, 12960, Note_off_c, 6, 38, 95
5, 12960, Note_on_c, 6, 33, 95
5, 14400, Note_off_c, 6, 33, 95
5, 14400, Note_on_c, 6, 35, 95
5, 14880, Note_off_c, 6, 35, 95
5, 14880, Note_on_c, 6, 33, 95
5, 15360, Note_off_c, 6, 33, 95
5, 15360, Note_on_c, 6, 33, 95
5, 16800, Note_off_c, 6, 33, 95
5, 16800, Note_on_c, 6, 33, 95
5, 18240, Note_off_c, 6, 33, 95
5, 18240, Note_on_c, 6, 35, 95
5, 19200, Note_off_c, 6, 35, 95
5, 19200, Note_on_c, 6, 33, 95
5, 21120, Note_off_c, 6, 33, 95
5, 21120, Note_on_c, 6, 38, 95
5, 22080, Note_off_c, 6, 38, 95
5, 22080, Note_on_c, 6, 38, 95
5, 22560, Note_off_c, 6, 38, 95
5, 22560, Note_on_c, 6, 40, 95
5, 23040, Note_off_c, 6, 40, 95
5, 23040, Note_on_c, 6, 33, 95
5, 24480, Note_off_c, 6, 33, 95
5, 24480, Note_on_c, 6, 38, 95
5, 25440, Note_off_c, 6, 38, 95
5, 25440, Note_on_c, 6, 39, 95
5, 25920, Note_off_c, 6, 39, 95
5, 26400, Note_on_c, 6, 40, 95
5, 26880, Note_off_c, 6, 40, 95
5, 26880, Note_on_c, 6, 38, 95
5, 28320, Note_off_c, 6, 38, 95
5, 28320, Note_on_c, 6, 33, 95
5, 29760, Note_off_c, 6, 33, 95
5, 29760, Note_on_c, 6, 35, 95
5, 30240, Note_off_c, 6, 35, 95
5, 30240, Note_on_c, 6, 33, 95
5, 30720, Note_off_c, 6, 33, 95
5, 30720, Note_on_c, 6, 33, 95
5, 32160, Note_off_c, 6, 33, 95
5, 32160, Note_on_c, 6, 33, 95
5, 33600, Note_off_c, 6, 33, 95
5, 33600, Note_on_c, 6, 35, 95
5, 34560, Note_off_c, 6, 35, 95
5, 34560, Note_on_c, 6, 33, 95
5, 36480, Note_off_c, 6, 33, 95
5, 36480, Note_on_c, 6, 38, 95
5, 37440, Note_off_c, 6, 38, 95
5, 37440, Note_on_c, 6, 38, 95
5, 37920, Note_off_c, 6, 38, 95
5, 37920, Note_on_c, 6, 40, 95
5, 38400, Note_off_c, 6, 40, 95
5, 38400, Note_on_c, 6, 33, 95
5, 39840, Note_off_c, 6, 33, 95
5, 39840, Note_on_c, 6, 38, 95
5, 40800, Note_off_c, 6, 38, 95
5, 40800, Note_on_c, 6, 39, 95
5, 41280, Note_off_c, 6, 39, 95
5, 41760, Note_on_c, 6, 40, 95
5, 42240, Note_off_c, 6, 40, 95
5, 42240, Note_on_c, 6, 38, 95
5, 43680, Note_off_c, 6, 38, 95
5, 43680, Note_on_c, 6, 33, 95
5, 45120, Note_off_c, 6, 33, 95
5, 45120, Note_on_c, 6, 35, 95
5, 45600, Note_off_c, 6, 35, 95
5, 45600, Note_on_c, 6, 33, 95
5, 46080, Note_off_c, 6, 33, 95
5, 46080, Note_on_c, 6, 33, 95
5, 47520, Note_off_c, 6, 33, 95
5, 47520, Note_on_c, 6, 33, 95
5, 48960, Note_off_c, 6, 33, 95
5, 48960, Note_on_c, 6, 35, 95
5, 49920, Note_off_c, 6, 35, 95
5, 49920, Note_on_c, 6, 33, 95
5, 51840, Note_off_c, 6, 33, 95
5, 51840, Note_on_c, 6, 38, 95
5, 52800, Note_off_c, 6, 38, 95
5, 52800, Note_on_c, 6, 38, 95
5, 53280, Note_off_c, 6, 38, 95
5, 53280, Note_on_c, 6, 40, 95
5, 53760, Note_off_c, 6, 40, 95
5, 53760, Note_on_c, 6, 33, 95
5, 55200, Note_off_c, 6, 33, 95
5, 55200, Note_on_c, 6, 38, 95
5, 56160, Note_off_c, 6, 38, 95
5, 56160, Note_on_c, 6, 39, 95
5, 56640, Note_off_c, 6, 39, 95
5, 57120, Note_on_c, 6, 40, 95
5, 57600, Note_off_c, 6, 40, 95
5, 57600, Note_on_c, 6, 38, 95
5, 59040, Note_off_c, 6, 38, 95
5, 59040, Note_on_c, 6, 33, 95
5, 60480, Note_off_c, 6, 33, 95
5, 60480, Note_on_c, 6, 35, 95
5, 60960, Note_off_c, 6, 35, 95
5, 60960, Note_on_c, 6, 33, 95
5, 61440, Note_off_c, 6, 33, 95
5, 61440, Note_on_c, 6, 33, 95
5, 62880, Note_off_c, 6, 33, 95
5, 62880, Note_on_c, 6, 33, 95
5, 64320, Note_off_c, 6, 33, 95
5, 64320, Note_on_c, 6, 35, 95
5, 65280, Note_off_c, 6, 35, 95
5, 65280, Note_on_c, 6, 33, 95
5, 67200, Note_off_c, 6, 33, 95
5, 67200, Note_on_c, 6, 38, 95
5, 68160, Note_off_c, 6, 38, 95
5, 68160, Note_on_c, 6, 38, 95
5, 68640, Note_off_c, 6, 38, 95
5, 68640, Note_on_c, 6, 40, 95
5, 69120, Note_off_c, 6, 40, 95
5, 69120, Note_on_c, 6, 33, 95
5, 70560, Note_off_c, 6, 33, 95
5, 70560, Note_on_c, 6, 38, 95
5, 71520, Note_off_c, 6, 38, 95
5, 71520, Note_on_c, 6, 39, 95
5, 72000, Note_off_c, 6, 39, 95
5, 72480, Note_on_c, 6, 40, 95
5, 72960, Note_off_c, 6, 40, 95
5, 72960, Note_on_c, 6, 38, 95
5, 74400, Note_off_c, 6, 38, 95
5, 74400, Note_on_c, 6, 33, 95
5, 75840, Note_off_c, 6, 33, 95
5, 75840, Note_on_c, 6, 35, 95
5, 76320, Note_off_c, 6, 35, 95
5, 76320, Note_on_c, 6, 33, 95
5, 76800, Note_off_c, 6, 33, 95
5, 76800, Note_on_c, 6, 33, 95
5, 78240, Note_off_c, 6, 33, 95
5, 78240, Note_on_c, 6, 33, 95
5, 79680, Note_off_c, 6, 33, 95
5, 79680, Note_on_c, 6, 35, 95
5, 80640, Note_off_c, 6, 35, 95
5, 80640, Note_on_c, 6, 33, 95
5, 82560, Note_off_c, 6, 33, 95
5, 82560, Note_on_c, 6, 38, 95
5, 83520, Note_off_c, 6, 38, 95
5, 83520, Note_on_c, 6, 38, 95
5, 84000, Note_off_c, 6, 38, 95
5, 84000, Note_on_c, 6, 40, 95
5, 84480, Note_off_c, 6, 40, 95
5, 84480, Note_on_c, 6, 33, 95
5, 85920, Note_off_c, 6, 33, 95
5, 85920, Note_on_c, 6, 38, 95
5, 86880, Note_off_c, 6, 38, 95
5, 86880, Note_on_c, 6, 39, 95
5, 87360, Note_off_c, 6, 39, 95
5, 87840, Note_on_c, 6, 40, 95
5, 88320, Note_off_c, 6, 40, 95
5, 88320, Note_on_c, 6, 38, 95
5, 89760, Note_off_c, 6, 38, 95
5, 89760, Note_on_c, 6, 33, 95
5, 91200, Note_off_c, 6, 33, 95
5, 91200, Note_on_c, 6, 35, 95
5, 91680, Note_off_c, 6, 35, 95
5, 91680, Note_on_c, 6, 33, 95
5, 92160, Note_off_c, 6, 33, 95
5, 92160, Note_on_c, 6, 33, 95
5, 93600, Note_off_c, 6, 33, 95
5, 93600, Note_on_c, 6, 33, 95
5, 95040, Note_off_c, 6, 33, 95
5, 95040, Note_on_c, 6, 35, 95
5, 96000, Note_off_c, 6, 35, 95
5, 96000, Note_on_c, 6, 33, 95
5, 97920, Note_off_c, 6, 33, 95
5, 97920, Note_on_c, 6, 38, 95
5, 98880, Note_off_c, 6, 38, 95
5, 98880, Note_on_c, 6, 38, 95
5, 99360, Note_off_c, 6, 38, 95
5, 99360, Note_on_c, 6, 40, 95
5, 99840, Note_off_c, 6, 40, 95
5, 99840, Note_on_c, 6, 33, 95
5, 101280, Note_off_c, 6, 33, 95
5, 101280, Note_on_c, 6, 38, 95
5, 102240, Note_off_c, 6, 38, 95
5, 102240, Note_on_c, 6, 39, 95
5, 102720, Note_off_c, 6, 39, 95
5, 103200, Note_on_c, 6, 40, 95
5, 103680, Note_off_c, 6, 40, 95
5, 103680, Note_on_c, 6, 38, 95
5, 105120, Note_off_c, 6, 38, 95
5, 105120, Note_on_c, 6, 33, 95
5, 106560, Note_off_c, 6, 33, 95
5, 106560, Note_on_c, 6, 35, 95
5, 107040, Note_off_c, 6, 35, 95
5, 107040, Note_on_c, 6, 33, 95
5, 107520, Note_off_c, 6, 33, 95
5, 107520, Note_on_c, 6, 33, 95
5, 108960, Note_off_c, 6, 33, 95
5, 108960, Note_on_c, 6, 33, 95
5, 110400, Note_off_c, 6, 33, 95
5, 110400, Note_on_c, 6, 35, 95
5, 111360, Note_off_c, 6, 35, 95
5, 111360, Note_on_c, 6, 33, 95
5, 113280, Note_off_c, 6, 33, 95
5, 113280, Note_on_c, 6, 38, 95
5, 114240, Note_off_c, 6, 38, 95
5, 114240, Note_on_c, 6, 38, 95
5, 114720, Note_off_c, 6, 38, 95
5, 114720, Note_on_c, 6, 40, 95
5, 115200, Note_off_c, 6, 40, 95
5, 115200, Note_on_c, 6, 33, 95
5, 116640, Note_off_c, 6, 33, 95
5, 116640, Note_on_c, 6, 38, 95
5, 117600, Note_off_c, 6, 38, 95
5, 117600, Note_on_c, 6, 39, 95
5, 118080, Note_off_c, 6, 39, 95
5, 118560, Note_on_c, 6, 40, 95
5, 119040, Note_off_c, 6, 40, 95
5, 119040, Note_on_c, 6, 38, 95
5, 120480, Note_off_c, 6, 38, 95
5, 120480, Note_on_c, 6, 33, 95
5, 121920, Note_off_c, 6, 33, 95
5, 121920, Note_on_c, 6, 35, 95
5, 122400, Note_off_c, 6, 35, 95
5, 122400, Note_on_c, 6, 33, 95
5, 122880, Note_off_c, 6, 33, 95
5, 122880, Note_on_c, 6, 33, 95
5, 124320, Note_off_c, 6, 33, 95
5, 124320, Note_on_c, 6, 33, 95
5, 125760, Note_off_c, 6, 33, 95
5, 125760, Note_on_c, 6, 35, 95
5, 126720, Note_off_c, 6, 35, 95
5, 126720, Note_on_c, 6, 33, 95
5, 128640, Note_off_c, 6, 33, 95
5, 128640, Note_on_c, 6, 38, 95
5, 129600, Note_off_c, 6, 38, 95
5, 129600, Note_on_c, 6, 38, 95
5, 130080, Note_off_c, 6, 38, 95
5, 130080, Note_on_c, 6, 40, 95
5, 130560, Note_off_c, 6, 40, 95
5, 130560, Note_on_c, 6, 33, 95
5, 132000, Note_off_c, 6, 33, 95
5, 132000, Note_on_c, 6, 38, 95
5, 132960, Note_off_c, 6, 38, 95
5, 132960, Note_on_c, 6, 39, 95
5, 133440, Note_off_c, 6, 39, 95
5, 133920, Note_on_c, 6, 40, 95
5, 134400, Note_off_c, 6, 40, 95
5, 134400, Note_on_c, 6, 38, 95
5, 135840, Note_off_c, 6, 38, 95
5, 135840, Note_on_c, 6, 33, 95
5, 137280, Note_off_c, 6, 33, 95
5, 137280, Note_on_c, 6, 35, 95
5, 137760, Note_off_c, 6, 35, 95
5, 137760, Note_on_c, 6, 33, 95
5, 138240, Note_off_c, 6, 33, 95
5, 138240, Note_on_c, 6, 33, 95
5, 139680, Note_off_c, 6, 33, 95
5, 139680, Note_on_c, 6, 33, 95
5, 141120, Note_off_c, 6, 33, 95
5, 141120, Note_on_c, 6, 35, 95
5, 142080, Note_off_c, 6, 35, 95
5, 142080, Note_on_c, 6, 33, 95
5, 144000, Note_off_c, 6, 33, 95
5, 144000, Note_on_c, 6, 38, 95
5, 144960, Note_off_c, 6, 38, 95
5, 144960, Note_on_c, 6, 38, 95
5, 145440, Note_off_c, 6, 38, 95
5, 145440, Note_on_c, 6, 40, 95
5, 145920, Note_off_c, 6, 40, 95
5, 145920, Note_on_c, 6, 33, 95
5, 147360, Note_off_c, 6, 33, 95
5, 147360, Note_on_c, 6, 38, 95
5, 148320, Note_off_c, 6, 38, 95
5, 148320, Note_on_c, 6, 39, 95
5, 148800, Note_off_c, 6, 39, 95
5, 149280, Note_on_c, 6, 40, 95
5, 149760, Note_off_c, 6, 40, 95
5, 149760, Note_on_c, 6, 38, 95
5, 151200, Note_off_c, 6, 38, 95
5, 151200, Note_on_c, 6, 33, 95
5, 152640, Note_off_c, 6, 33, 95
5, 152640, Note_on_c, 6, 35, 95
5, 153120, Note_off_c, 6, 35, 95
5, 153120, Note_on_c, 6, 33, 95
5, 153600, Note_off_c, 6, 33, 95
5, 153600, Note_on_c, 6, 33, 95
5, 155040, Note_off_c, 6, 33, 95
5, 155040, Note_on_c, 6, 33, 95
5, 156480, Note_off_c, 6, 33, 95
5, 156480, Note_on_c, 6, 35, 95
5, 157440, Note_off_c, 6, 35, 95
5, 157440, Note_on_c, 6, 33, 95
5, 159360, Note_off_c, 6, 33, 95
5, 159360, Note_on_c, 6, 38, 95
5, 160320, Note_off_c, 6, 38, 95
5, 160320, Note_on_c, 6, 38, 95
5, 160800, Note_off_c, 6, 38, 95
5, 160800, Note_on_c, 6, 40, 95
5, 161280, Note_off_c, 6, 40, 95
5, 161280, Note_on_c, 6, 33, 95
5, 162720, Note_off_c, 6, 33, 95
5, 162720, Note_on_c, 6, 38, 95
5, 163680, Note_off_c, 6, 38, 95
5, 163680, Note_on_c, 6, 39, 95
5, 164160, Note_off_c, 6, 39, 95
5, 164640, Note_on_c, 6, 40, 95
5, 165120, Note_off_c, 6, 40, 95
5, 165120, Note_on_c, 6, 38, 95
5, 166560, Note_off_c, 6, 38, 95
5, 166560, Note_on_c, 6, 33, 95
5, 168000, Note_off_c, 6, 33, 95
5, 168000, Note_on_c, 6, 35, 95
5, 168480, Note_off_c, 6, 35, 95
5, 168480, Note_on_c, 6, 33, 95
5, 168960, Note_off_c, 6, 33, 95
5, 168960, Note_on_c, 6, 33, 95
5, 170400, Note_off_c, 6, 33, 95
5, 170400, Note_on_c, 6, 33, 95
5, 171840, Note_off_c, 6, 33, 95
5, 171840, Note_on_c, 6, 35, 95
5, 172800, Note_off_c, 6, 35, 95
5, 172800, Note_on_c, 6, 33, 95
5, 174720, Note_off_c, 6, 33, 95
5, 174720, Note_on_c, 6, 38, 95
5, 175680, Note_off_c, 6, 38, 95
5, 175680, Note_on_c, 6, 38, 95
5, 176160, Note_off_c, 6, 38, 95
5, 176160, Note_on_c, 6, 40, 95
5, 176640, Note_off_c, 6, 40, 95
5, 176640, Note_on_c, 6, 33, 95
5, 178080, Note_off_c, 6, 33, 95
5, 178080, Note_on_c, 6, 38, 95
5, 179040, Note_off_c, 6, 38, 95
5, 179040, Note_on_c, 6, 39, 95
5, 179520, Note_off_c, 6, 39, 95
5, 180000, Note_on_c, 6, 40, 95
5, 180480, Note_off_c, 6, 40, 95
5, 180480, Note_on_c, 6, 38, 95
5, 181920, Note_off_c, 6, 38, 95
5, 181920, Note_on_c, 6, 33, 95
5, 183360, Note_off_c, 6, 33, 95
5, 183360, Note_on_c, 6, 35, 95
5, 183840, Note_off_c, 6, 35, 95
5, 183840, Note_on_c, 6, 33, 95
5, 184320, Note_off_c, 6, 33, 95
5, 184320, Note_on_c, 6, 33, 95
5, 185760, Note_off_c, 6, 33, 95
5, 185760, Note_on_c, 6, 33, 95
5, 187200, Note_off_c, 6, 33, 95
5, 187200, Note_on_c, 6, 35, 95
5, 188160, Note_off_c, 6, 35, 95
5, 188160, Note_on_c, 6, 33, 95
5, 190080, Note_off_c, 6, 33, 95
5, 190080, Note_on_c, 6, 38, 95
5, 191040, Note_off_c, 6, 38, 95
5, 191040, Note_on_c, 6, 38, 95
5, 191520, Note_off_c, 6, 38, 95
5, 191520, Note_on_c, 6, 40, 95
5, 192000, Note_off_c, 6, 40, 95
5, 192000, Note_on_c, 6, 33, 95
5, 193440, Note_off_c, 6, 33, 95
5, 193440, Note_on_c, 6, 38, 95
5, 194400, Note_off_c, 6, 38, 95
5, 194400, Note_on_c, 6, 39, 95
5, 194880, Note_off_c, 6, 39, 95
5, 195360, Note_on_c, 6, 40, 95
5, 195840, Note_off_c, 6, 40, 95
5, 195840, Note_on_c, 6, 38, 95
5, 197280, Note_off_c, 6, 38, 95
5, 197280, Note_on_c, 6, 33, 95
5, 198720, Note_off_c, 6, 33, 95
5, 198720, Note_on_c, 6, 35, 95
5, 199200, Note_off_c, 6, 35, 95
5, 199200, Note_on_c, 6, 33, 95
5, 199680, Note_off_c, 6, 33, 95
5, 199680, Note_on_c, 6, 33, 95
5, 201120, Note_off_c, 6, 33, 95
5, 201120, Note_on_c, 6, 33, 95
5, 202560, Note_off_c, 6, 33, 95
5, 202560, Note_on_c, 6, 35, 95
5, 203520, Note_off_c, 6, 35, 95
5, 203520, Note_on_c, 6, 33, 95
5, 205440, Note_off_c, 6, 33, 95
5, 205440, Note_on_c, 6, 38, 95
5, 206400, Note_off_c, 6, 38, 95
5, 206400, Note_on_c, 6, 38, 95
5, 206880, Note_off_c, 6, 38, 95
5, 206880, Note_on_c, 6, 40, 95
5, 207360, Note_off_c, 6, 40, 95
5, 207360, Note_on_c, 6, 33, 95
5, 208800, Note_off_c, 6, 33, 95
5, 208800, Note_on_c, 6, 38, 95
5, 209760, Note_off_c, 6, 38, 95
5, 209760, Note_on_c, 6, 39, 95
5, 210240, Note_off_c, 6, 39, 95
5, 210720, Note_on_c, 6, 40, 95
5, 211200, Note_off_c, 6, 40, 95
5, 211200, Note_on_c, 6, 38, 95
5, 212640, Note_off_c, 6, 38, 95
5, 212640, Note_on_c, 6, 33, 95
5, 214080, Note_off_c, 6, 33, 95
5, 214080, Note_on_c, 6, 35, 95
5, 214560, Note_off_c, 6, 35, 95
5, 214560, Note_on_c, 6, 33, 95
5, 215040, Note_off_c, 6, 33, 95
5, 215040, Note_on_c, 6, 33, 95
5, 216480, Note_off_c, 6, 33, 95
5, 216480, Note_on_c, 6, 33, 95
5, 217920, Note_off_c, 6, 33, 95
5, 217920, Note_on_c, 6, 35, 95
5, 218880, Note_off_c, 6, 35, 95
5, 249600, Note_on_c, 6, 33, 95
5, 251520, Note_off_c, 6, 33, 95
5, 251520, Note_on_c, 6, 38, 95
5, 252480, Note_off_c, 6, 38, 95
5, 252480, Note_on_c, 6, 38, 95
5, 252960, Note_off_c, 6, 38, 95
5, 252960, Note_on_c, 6, 40, 95
5, 253440, Note_off_c, 6, 40, 95
5, 253440, Note_on_c, 6, 33, 95
5, 254880, Note_off_c, 6, 33, 95
5, 254880, Note_on_c, 6, 38, 95
5, 255840, Note_off_c, 6, 38, 95
5, 255840, Note_on_c, 6, 39, 95
5, 256320, Note_off_c, 6, 39, 95
5, 256800, Note_on_c, 6, 40, 95
5, 257280, Note_off_c, 6, 40, 95
5, 257280, Note_on_c, 6, 38, 95
5, 258720, Note_off_c, 6, 38, 95
5, 258720, Note_on_c, 6, 33, 95
5, 260160, Note_off_c, 6, 33, 95
5, 260160, Note_on_c, 6, 35, 95
5, 260640, Note_off_c, 6, 35, 95
5, 260640, Note_on_c, 6, 33, 95
5, 261120, Note_off_c, 6, 33, 95
5, 261120, Note_on_c, 6, 33, 95
5, 262560, Note_off_c, 6, 33, 95
5, 262560, Note_on_c, 6, 33, 95
5, 264000, Note_off_c, 6, 33, 95
5, 264000, Note_on_c, 6, 35, 95
5, 264960, Note_off_c, 6, 35, 95
5, 264960, Note_on_c, 6, 33, 95
5, 266880, Note_off_c, 6, 33, 95
5, 266880, Note_on_c, 6, 38, 95
5, 267840, Note_off_c, 6, 38, 95
5, 267840, Note_on_c, 6, 38, 95
5, 268320, Note_off_c, 6, 38, 95
5, 268320, Note_on_c, 6, 40, 95
5, 268800, Note_off_c, 6, 40, 95
5, 268800, Note_on_c, 6, 33, 95
5, 270240, Note_off_c, 6, 33, 95
5, 270240, Note_on_c, 6, 38, 95
5, 271200, Note_off_c, 6, 38, 95
5, 271200, Note_on_c, 6, 39, 95
5, 271680, Note_off_c, 6, 39, 95
5, 272160, Note_on_c, 6, 40, 95
5, 272640, Note_off_c, 6, 40, 95
5, 272640, Note_on_c, 6, 38, 95
5, 274080, Note_off_c, 6, 38, 95
5, 274080, Note_on_c, 6, 33, 95
5, 275520, Note_off_c, 6, 33, 95
5, 275520, Note_on_c, 6, 35, 95
5, 276000, Note_off_c, 6, 35, 95
5, 276000, Note_on_c, 6, 33, 95
5, 276480, Note_off_c, 6, 33, 95
5, 276480, Note_on_c, 6, 33, 95
5, 277920, Note_off_c, 6, 33, 95
5, 277920, Note_on_c, 6, 33, 95
5, 279360, Note_off_c, 6, 33, 95
5, 279360, Note_on_c, 6, 35, 95
5, 280320, Note_off_c, 6, 35, 95
5, 280320, Note_on_c, 6, 33, 95
5, 282240, Note_off_c, 6, 33, 95
5, 282240, Note_on_c, 6, 38, 95
5, 283200, Note_off_c, 6, 38, 95
5, 283200, Note_on_c, 6, 38, 95
5, 283680, Note_off_c, 6, 38, 95
5, 283680, Note_on_c, 6, 40, 95
5, 284160, Note_off_c, 6, 40, 95
5, 284160, Note_on_c, 6, 33, 95
5, 285600, Note_off_c, 6, 33, 95
5, 285600, Note_on_c, 6, 38, 95
5, 286560, Note_off_c, 6, 38, 95
5, 286560, Note_on_c, 6, 39, 95
5, 287040, Note_off_c, 6, 39, 95
5, 287520, Note_on_c, 6, 40, 95
5, 288000, Note_off_c, 6, 40, 95
5, 288000, Note_on_c, 6, 38, 95
5, 289440, Note_off_c, 6, 38, 95
5, 289440, Note_on_c, 6, 33, 95
5, 290880, Note_off_c, 6, 33, 95
5, 290880, Note_on_c, 6, 35, 95
5, 291360, Note_off_c, 6, 35, 95
5, 291360, Note_on_c, 6, 33, 95
5, 291840, Note_off_c, 6, 33, 95
5, 291840, Note_on_c, 6, 33, 95
5, 293280, Note_off_c, 6, 33, 95
5, 293280, Note_on_c, 6, 33, 95
5, 294720, Note_off_c, 6, 33, 95
5, 294720, Note_on_c, 6, 35, 95
5, 295680, Note_off_c, 6, 35, 95
5, 295680, Note_on_c, 6, 33, 95
5, 297600, Note_off_c, 6, 33, 95
5, 297600, Note_on_c, 6, 38, 95
5, 298560, Note_off_c, 6, 38, 95
5, 298560, Note_on_c, 6, 38, 95
5, 299040, Note_off_c, 6, 38, 95
5, 299040, Note_on_c, 6, 40, 95
5, 299520, Note_off_c, 6, 40, 95
5, 299520, Note_on_c, 6, 33, 95
5, 300960, Note_off_c, 6, 33, 95
5, 300960, Note_on_c, 6, 38, 95
5, 301920, Note_off_c, 6, 38, 95
5, 301920, Note_on_c, 6, 39, 95
5, 302400, Note_off_c, 6, 39, 95
5, 302880, Note_on_c, 6, 40, 95
5, 303360, Note_off_c, 6, 40, 95
5, 303360, Note_on_c, 6, 38, 95
5, 304800, Note_off_c, 6, 38, 95
5, 304800, Note_on_c, 6, 33, 95
5, 306240, Note_off_c, 6, 33, 95
5, 306240, Note_on_c, 6, 35, 95
5, 306720, Note_off_c, 6, 35, 95
5, 306720, Note_on_c, 6, 33, 95
5, 307200, Note_off_c, 6, 33, 95
5, 307200, Note_on_c, 6, 33, 95
5, 308640, Note_off_c, 6, 33, 95
5, 308640, Note_on_c, 6, 33, 95
5, 310080, Note_off_c, 6, 33, 95
5, 310080, Note_on_c, 6, 35, 95
5, 311040, Note_off_c, 6, 35, 95
5, 311040, Note_on_c, 6, 33, 95
5, 312960, Note_off_c, 6, 33, 95
5, 312960, Note_on_c, 6, 38, 95
5, 313920, Note_off_c, 6, 38, 95
5, 313920, Note_on_c, 6, 38, 95
5, 314400, Note_off_c, 6, 38, 95
5, 314400, Note_on_c, 6, 40, 95
5, 314880, Note_off_c, 6, 40, 95
5, 314880, Note_on_c, 6, 33, 95
5, 316320, Note_off_c, 6, 33, 95
5, 316320, Note_on_c, 6, 38, 95
5, 317280, Note_off_c, 6, 38, 95
5, 317280, Note_on_c, 6, 39, 95
5, 317760, Note_off_c, 6, 39, 95
5, 318240, Note_on_c, 6, 40, 95
5, 318720, Note_off_c, 6, 40, 95
5, 318720, Note_on_c, 6, 38, 95
5, 320160, Note_off_c, 6, 38, 95
5, 320160, Note_on_c, 6, 33, 95
5, 321600, Note_off_c, 6, 33, 95
5, 321600, Note_on_c, 6, 35, 95
5, 322080, Note_off_c, 6, 35, 95
5, 322080, Note_on_c, 6, 33, 95
5, 322560, Note_off_c, 6, 33, 95
5, 322560, Note_on_c, 6, 33, 95
5, 324000, Note_off_c, 6, 33, 95
5, 324000, Note_on_c, 6, 33, 95
5, 325440, Note_off_c, 6, 33, 95
5, 325440, Note_on_c, 6, 35, 95
5, 326400, Note_off_c, 6, 35, 95
5, 326400, Note_on_c, 6, 33, 95
5, 328320, Note_off_c, 6, 33, 95
5, 328320, Note_on_c, 6, 38, 95
5, 329280, Note_off_c, 6, 38, 95
5, 329280, Note_on_c, 6, 38, 95
5, 329760, Note_off_c, 6, 38, 95
5, 329760, Note_on_c, 6, 40, 95
5, 330240, Note_off_c, 6, 40, 95
5, 330240, Note_on_c, 6, 33, 95
5, 331680, Note_off_c, 6, 33, 95
5, 331680, Note_on_c, 6, 38, 95
5, 332640, Note_off_c, 6, 38, 95
5, 332640, Note_on_c, 6, 39, 95
5, 333120, Note_off_c, 6, 39, 95
5, 333600, Note_on_c, 6, 40, 95
5, 334080, Note_off_c, 6, 40, 95
5, 334080, Note_on_c, 6, 38, 95
5, 335520, Note_off_c, 6, 38, 95
5, 335520, Note_on_c, 6, 33, 95
5, 336960, Note_off_c, 6, 33, 95
5, 336960, Note_on_c, 6, 35, 95
5, 337440, Note_off_c, 6, 35, 95
5, 337440, Note_on_c, 6, 33, 95
5, 337920, Note_off_c, 6, 33, 95
5, 337920, Note_on_c, 6, 33, 95
5, 339360, Note_off_c, 6, 33, 95
5, 339360, Note_on_c, 6, 33, 95
5, 340800, Note_off_c, 6, 33, 95
5, 340800, Note_on_c, 6, 35, 95
5, 341760, Note_off_c, 6, 35, 95
5, 341760, Note_on_c, 6, 33, 95
5, 343680, Note_off_c, 6, 33, 95
5, 343680, Note_on_c, 6, 38, 95
5, 344640, Note_off_c, 6, 38, 95
5, 344640, Note_on_c, 6, 38, 95
5, 345120, Note_off_c, 6, 38, 95
5, 345120, Note_on_c, 6, 40, 95
5, 345600, Note_off_c, 6, 40, 95
5, 345600, Note_on_c, 6, 33, 95
5, 347040, Note_off_c, 6, 33, 95
5, 347040, Note_on_c, 6, 38, 95
5, 348000, Note_off_c, 6, 38, 95
5, 348000, Note_on_c, 6, 39, 95
5, 348480, Note_off_c, 6, 39, 95
5, 348960, Note_on_c, 6, 40, 95
5, 349440, Note_off_c, 6, 40, 95
5, 349440, Note_on_c, 6, 38, 95
5, 350880, Note_off_c, 6, 38, 95
5, 350880, Note_on_c, 6, 33, 95
5, 352320, Note_off_c, 6, 33, 95
5, 352320, Note_on_c, 6, 35, 95
5, 352800, Note_off_c, 6, 35, 95
5, 352800, Note_on_c, 6, 33, 95
5, 353280, Note_off_c, 6, 33, 95
5, 353280, Note_on_c, 6, 33, 95
5, 354720, Note_off_c, 6, 33, 95
5, 354720, Note_on_c, 6, 33, 95
5, 356160, Note_off_c, 6, 33, 95
5, 356160, Note_on_c, 6, 35, 95
5, 357120, Note_off_c, 6, 35, 95
5, 357120, Note_on_c, 6, 33, 95
5, 359040, Note_off_c, 6, 33, 95
5, 359040, Note_on_c, 6, 38, 95
5, 360000, Note_off_c, 6, 38, 95
5, 360000, Note_on_c, 6, 38, 95
5, 360480, Note_off_c, 6, 38, 95
5, 360480, Note_on_c, 6, 40, 95
5, 360960, Note_off_c, 6, 40, 95
5, 360960, Note_on_c, 6, 33, 95
5, 362400, Note_off_c, 6, 33, 95
5, 362400, Note_on_c, 6, 38, 95
5, 363360, Note_off_c, 6, 38, 95
5, 363360, Note_on_c, 6, 39, 95
5, 363840, Note_off_c, 6, 39, 95
5, 364320, Note_on_c, 6, 40, 95
5, 364800, Note_off_c, 6, 40, 95
5, 364800, Note_on_c, 6, 38, 95
5, 366240, Note_off_c, 6, 38, 95
5, 366240, Note_on_c, 6, 33, 95
5, 367680, Note_off_c, 6, 33, 95
5, 367680, Note_on_c, 6, 35, 95
5, 368160, Note_off_c, 6, 35, 95
5, 368160, Note_on_c, 6, 33, 95
5, 368640, Note_off_c, 6, 33, 95
5, 368640, Note_on_c, 6, 33, 95
5, 370080, Note_off_c, 6, 33, 95
5, 370080, Note_on_c, 6, 33, 95
5, 371520, Note_off_c, 6, 33, 95
5, 371520, Note_on_c, 6, 35, 95
5, 372480, Note_off_c, 6, 35, 95
5, 372480, Note_on_c, 6, 33, 95
5, 374400, Note_off_c, 6, 33, 95
5, 374400, Note_on_c, 6, 38, 95
5, 375360, Note_off_c, 6, 38, 95
5, 375360, Note_on_c, 6, 38, 95
5, 375840, Note_off_c, 6, 38, 95
5, 375840, Note_on_c, 6, 40, 95
5, 376320, Note_off_c, 6, 40, 95
5, 376320, Note_on_c, 6, 33, 95
5, 377760, Note_off_c, 6, 33, 95
5, 377760, Note_on_c, 6, 38, 95
5, 378720, Note_off_c, 6, 38, 95
5, 378720, Note_on_c, 6, 39, 95
5, 379200, Note_off_c, 6, 39, 95
5, 379680, Note_on_c, 6, 40, 95
5, 380160, Note_off_c, 6, 40, 95
5, 380160, Note_on_c, 6, 38, 95
5, 381600, Note_off_c, 6, 38, 95
5, 381600, Note_on_c, 6, 33, 95
5, 383040, Note_off_c, 6, 33, 95
5, 383040, Note_on_c, 6, 35, 95
5, 383520, Note_off_c, 6, 35, 95
5, 383520, Note_on_c, 6, 33, 95
5, 384000, Note_off_c, 6, 33, 95
5, 384000, Note_on_c, 6, 33, 95
5, 385440, Note_off_c, 6, 33, 95
5, 385440, Note_on_c, 6, 33, 95
5, 386880, Note_off_c, 6, 33, 95
5, 386880, Note_on_c, 6, 35, 95
5, 387840, Note_off_c, 6, 35, 95
5, 387840, Note_on_c, 6, 33, 95
5, 389760, Note_off_c, 6, 33, 95
5, 389760, Note_on_c, 6, 38, 95
5, 390720, Note_off_c, 6, 38, 95
5, 390720, Note_on_c, 6, 38, 95
5, 391200, Note_off_c, 6, 38, 95
5, 391200, Note_on_c, 6, 40, 95
5, 391680, Note_off_c, 6, 40, 95
5, 391680, Note_on_c, 6, 33, 95
5, 393120, Note_off_c, 6, 33, 95
5, 393120, Note_on_c, 6, 38, 95
5, 394080, Note_off_c, 6, 38, 95
5, 394080, Note_on_c, 6, 39, 95
5, 394560, Note_off_c, 6, 39, 95
5, 395040, Note_on_c, 6, 40, 95
5, 395520, Note_off_c, 6, 40, 95
5, 395520, Note_on_c, 6, 38, 95
5, 396960, Note_off_c, 6, 38, 95
5, 396960, Note_on_c, 6, 33, 95
5, 398400, Note_off_c, 6, 33, 95
5, 398400, Note_on_c, 6, 35, 95
5, 398880, Note_off_c, 6, 35, 95
5, 398880, Note_on_c, 6, 33, 95
5, 399360, Note_off_c, 6, 33, 95
5, 399360, Note_on_c, 6, 33, 95
5, 400800, Note_off_c, 6, 33, 95
5, 400800, Note_on_c, 6, 33, 95
5, 402240, Note_off_c, 6, 33, 95
5, 402240, Note_on_c, 6, 35, 95
5, 403200, Note_off_c, 6, 35, 95
5, 403200, End_track
6, 0, Start_track
6, 0, Pitch_bend_c, 8, 8192
6, 0, Control_c, 8, 7, 79
6, 0, Control_c, 8, 10, 63
6, 0, Control_c, 8, 93, 0
6, 0, Control_c, 8, 91, 0
6, 0, Control_c, 8, 95, 0
6, 0, Control_c, 8, 92, 0
6, 0, Control_c, 8, 11, 127
6, 0, Program_c, 8, 105
6, 0, Control_c, 10, 7, 79
6, 0, Control_c, 10, 10, 63
6, 0, Control_c, 10, 93, 0
6, 0, Control_c, 10, 91, 0
6, 0, Control_c, 10, 95, 0
6, 0, Control_c, 10, 92, 0
6, 0, Control_c, 10, 11, 127
6, 0, Program_c, 10, 105
6, 0, Note_on_c, 8, 69, 95
6, 480, Note_off_c, 8, 69, 95
6, 480, Note_on_c, 8, 74, 95
6, 960, Note_off_c, 8, 74, 95
6, 960, Note_on_c, 8, 76, 95
6, 1440, Note_off_c, 8, 76, 95
6, 1440, Note_on_c, 8, 69, 95
6, 1920, Note_off_c, 8, 69, 95
6, 1920, Note_on_c, 8, 74, 95
6, 2400, Note_off_c, 8, 74, 95
6, 2400, Note_on_c, 8, 76, 95
6, 2880, Note_off_c, 8, 76, 95
6, 2880, Note_on_c, 8, 74, 95
6, 3360, Note_off_c, 8, 74, 95
6, 3360, Note_on_c, 8, 76, 95
6, 3840, Note_off_c, 8, 76, 95
6, 3840, Note_on_c, 8, 69, 95
6, 4320, Note_off_c, 8, 69, 95
6, 4320, Note_on_c, 8, 74, 95
6, 4800, Note_off_c, 8, 74, 95
6, 4800, Note_on_c, 8, 76, 95
6, 5280, Note_off_c, 8, 76, 95
6, 5280, Note_on_c, 8, 69, 95
6, 5760, Note_off_c, 8, 69, 95
6, 5760, Note_on_c, 8, 74, 95
6, 6240, Note_off_c, 8, 74, 95
6, 6240, Note_on_c, 8, 76, 95
6, 6720, Note_off_c, 8, 76, 95
6, 6720, Note_on_c, 8, 74, 95
6, 7200, Note_off_c, 8, 74, 95
6, 7200, Note_on_c, 8, 76, 95
6, 7680, Note_off_c, 8, 76, 95
6, 7680, Note_on_c, 8, 69, 95
6, 8160, Note_off_c, 8, 69, 95
6, 8160, Note_on_c, 8, 74, 95
6, 8640, Note_off_c, 8, 74, 95
6, 8640, Note_on_c, 8, 76, 95
6, 9120, Note_off_c, 8, 76, 95
6, 9120, Note_on_c, 8, 69, 95
6, 9600, Note_off_c, 8, 69, 95
6, 9600, Note_on_c, 8, 74, 95
6, 10080, Note_off_c, 8, 74, 95
6, 10080, Note_on_c, 8, 76, 95
6, 10560, Note_off_c, 8, 76, 95
6, 10560, Note_on_c, 8, 74, 95
6, 11040, Note_off_c, 8, 74, 95
6, 11040, Note_on_c, 8, 76, 95
6, 11520, Note_off_c, 8, 76, 95
6, 19200, Note_on_c, 8, 69, 95
6, 19680, Note_off_c, 8, 69, 95
6, 19680, Note_on_c, 8, 74, 95
6, 20160, Note_off_c, 8, 74, 95
6, 20160, Note_on_c, 8, 76, 95
6, 20640, Note_off_c, 8, 76, 95
6, 20640, Note_on_c, 8, 69, 95
6, 21120, Note_off_c, 8, 69, 95
6, 21120, Note_on_c, 8, 74, 95
6, 21600, Note_off_c, 8, 74, 95
6, 21600, Note_on_c, 8, 76, 95
6, 22080, Note_off_c, 8, 76, 95
6, 22080, Note_on_c, 8, 74, 95
6, 22560, Note_off_c, 8, 74, 95
6, 22560, Note_on_c, 8, 76, 95
6, 23040, Note_off_c, 8, 76, 95
6, 23040, Note_on_c, 8, 69, 95
6, 23520, Note_off_c, 8, 69, 95
6, 23520, Note_on_c, 8, 74, 95
6, 24000, Note_off_c, 8, 74, 95
6, 24000, Note_on_c, 8, 76, 95
6, 24480, Note_off_c, 8, 76, 95
6, 24480, Note_on_c, 8, 69, 95
6, 24960, Note_off_c, 8, 69, 95
6, 24960, Note_on_c, 8, 74, 95
6, 25440, Note_off_c, 8, 74, 95
6, 25440, Note_on_c, 8, 76, 95
6, 25920, Note_off_c, 8, 76, 95
6, 25920, Note_on_c, 8, 74, 95
6, 26400, Note_off_c, 8, 74, 95
6, 26400, Note_on_c, 8, 76, 95
6, 26880, Note_off_c, 8, 76, 95
6, 34560, Note_on_c, 8, 69, 95
6, 35040, Note_off_c, 8, 69, 95
6, 35040, Note_on_c, 8, 74, 95
6, 35520, Note_off_c, 8, 74, 95
6, 35520, Note_on_c, 8, 76, 95
6, 36000, Note_off_c, 8, 76, 95
6, 36000, Note_on_c, 8, 69, 95
6, 36480, Note_off_c, 8, 69, 95
6, 36480, Note_on_c, 8, 74, 95
6, 36960, Note_off_c, 8, 74, 95
6, 36960, Note_on_c, 8, 76, 95
6, 37440, Note_off_c, 8, 76, 95
6, 37440, Note_on_c, 8, 74, 95
6, 37920, Note_off_c, 8, 74, 95
6, 37920, Note_on_c, 8, 76, 95
6, 38400, Note_off_c, 8, 76, 95
6, 38400, Note_on_c, 8, 69, 95
6, 38880, Note_off_c, 8, 69, 95
6, 38880, Note_on_c, 8, 74, 95
6, 39360, Note_off_c, 8, 74, 95
6, 39360, Note_on_c, 8, 76, 95
6, 39840, Note_off_c, 8, 76, 95
6, 39840, Note_on_c, 8, 69, 95
6, 40320, Note_off_c, 8, 69, 95
6, 40320, Note_on_c, 8, 74, 95
6, 40800, Note_off_c, 8, 74, 95
6, 40800, Note_on_c, 8, 76, 95
6, 41280, Note_off_c, 8, 76, 95
6, 41280, Note_on_c, 8, 74, 95
6, 41760, Note_off_c, 8, 74, 95
6, 41760, Note_on_c, 8, 76, 95
6, 42240, Note_off_c, 8, 76, 95
6, 49920, Note_on_c, 8, 69, 95
6, 50400, Note_off_c, 8, 69, 95
6, 50400, Note_on_c, 8, 74, 95
6, 50880, Note_off_c, 8, 74, 95
6, 50880, Note_on_c, 8, 76, 95
6, 51360, Note_off_c, 8, 76, 95
6, 51360, Note_on_c, 8, 69, 95
6, 51840, Note_off_c, 8, 69, 95
6, 51840, Note_on_c, 8, 74, 95
6, 52320, Note_off_c, 8, 74, 95
6, 52320, Note_on_c, 8, 76, 95
6, 52800, Note_off_c, 8, 76, 95
6, 52800, Note_on_c, 8, 74, 95
6, 53280, Note_off_c, 8, 74, 95
6, 53280, Note_on_c, 8, 76, 95
6, 53760, Note_off_c, 8, 76, 95
6, 53760, Note_on_c, 8, 69, 95
6, 54240, Note_off_c, 8, 69, 95
6, 54240, Note_on_c, 8, 74, 95
6, 54720, Note_off_c, 8, 74, 95
6, 54720, Note_on_c, 8, 76, 95
6, 55200, Note_off_c, 8, 76, 95
6, 55200, Note_on_c, 8, 69, 95
6, 55680, Note_off_c, 8, 69, 95
6, 55680, Note_on_c, 8, 74, 95
6, 56160, Note_off_c, 8, 74, 95
6, 56160, Note_on_c, 8, 76, 95
6, 56640, Note_off_c, 8, 76, 95
6, 56640, Note_on_c, 8, 74, 95
6, 57120, Note_off_c, 8, 74, 95
6, 57120, Note_on_c, 8, 76, 95
6, 57600, Note_off_c, 8, 76, 95
6, 65280, Note_on_c, 8, 69, 95
6, 65760, Note_off_c, 8, 69, 95
6, 65760, Note_on_c, 8, 74, 95
6, 66240, Note_off_c, 8, 74, 95
6, 66240, Note_on_c, 8, 76, 95
6, 66720, Note_off_c, 8, 76, 95
6, 66720, Note_on_c, 8, 69, 95
6, 67200, Note_off_c, 8, 69, 95
6, 67200, Note_on_c, 8, 74, 95
6, 67680, Note_off_c, 8, 74, 95
6, 67680, Note_on_c, 8, 76, 95
6, 68160, Note_off_c, 8, 76, 95
6, 68160, Note_on_c, 8, 74, 95
6, 68640, Note_off_c, 8, 74, 95
6, 68640, Note_on_c, 8, 76, 95
6, 69120, Note_off_c, 8, 76, 95
6, 69120, Note_on_c, 8, 69, 95
6, 69600, Note_off_c, 8, 69, 95
6, 69600, Note_on_c, 8, 74, 95
6, 70080, Note_off_c, 8, 74, 95
6, 70080, Note_on_c, 8, 76, 95
6, 70560, Note_off_c, 8, 76, 95
6, 70560, Note_on_c, 8, 69, 95
6, 71040, Note_off_c, 8, 69, 95
6, 71040, Note_on_c, 8, 74, 95
6, 71520, Note_off_c, 8, 74, 95
6, 71520, Note_on_c, 8, 76, 95
6, 72000, Note_off_c, 8, 76, 95
6, 72000, Note_on_c, 8, 74, 95
6, 72480, Note_off_c, 8, 74, 95
6, 72480, Note_on_c, 8, 76, 95
6, 72960, Note_off_c, 8, 76, 95
6, 80640, Note_on_c, 8, 69, 95
6, 81120, Note_off_c, 8, 69, 95
6, 81120, Note_on_c, 8, 74, 95
6, 81600, Note_off_c, 8, 74, 95
6, 81600, Note_on_c, 8, 76, 95
6, 82080, Note_off_c, 8, 76, 95
6, 82080, Note_on_c, 8, 69, 95
6, 82560, Note_off_c, 8, 69, 95
6, 82560, Note_on_c, 8, 74, 95
6, 83040, Note_off_c, 8, 74, 95
6, 83040, Note_on_c, 8, 76, 95
6, 83520, Note_off_c, 8, 76, 95
6, 83520, Note_on_c, 8, 74, 95
6, 84000, Note_off_c, 8, 74, 95
6, 84000, Note_on_c, 8, 76, 95
6, 84480, Note_off_c, 8, 76, 95
6, 84480, Note_on_c, 8, 69, 95
6, 84960, Note_off_c, 8, 69, 95
6, 84960, Note_on_c, 8, 74, 95
6, 85440, Note_off_c, 8, 74, 95
6, 85440, Note_on_c, 8, 76, 95
6, 85920, Note_off_c, 8, 76, 95
6, 85920, Note_on_c, 8, 69, 95
6, 86400, Note_off_c, 8, 69, 95
6, 86400, Note_on_c, 8, 74, 95
6, 86880, Note_off_c, 8, 74, 95
6, 86880, Note_on_c, 8, 76, 95
6, 87360, Note_off_c, 8, 76, 95
6, 87360, Note_on_c, 8, 74, 95
6, 87840, Note_off_c, 8, 74, 95
6, 87840, Note_on_c, 8, 76, 95
6, 88320, Note_off_c, 8, 76, 95
6, 96000, Note_on_c, 8, 69, 95
6, 96480, Note_off_c, 8, 69, 95
6, 96480, Note_on_c, 8, 74, 95
6, 96960, Note_off_c, 8, 74, 95
6, 96960, Note_on_c, 8, 76, 95
6, 97440, Note_off_c, 8, 76, 95
6, 97440, Note_on_c, 8, 69, 95
6, 97920, Note_off_c, 8, 69, 95
6, 97920, Note_on_c, 8, 74, 95
6, 98400, Note_off_c, 8, 74, 95
6, 98400, Note_on_c, 8, 76, 95
6, 98880, Note_off_c, 8, 76, 95
6, 98880, Note_on_c, 8, 74, 95
6, 99360, Note_off_c, 8, 74, 95
6, 99360, Note_on_c, 8, 76, 95
6, 99840, Note_off_c, 8, 76, 95
6, 99840, Note_on_c, 8, 69, 95
6, 100320, Note_off_c, 8, 69, 95
6, 100320, Note_on_c, 8, 74, 95
6, 100800, Note_off_c, 8, 74, 95
6, 100800, Note_on_c, 8, 76, 95
6, 101280, Note_off_c, 8, 76, 95
6, 101280, Note_on_c, 8, 69, 95
6, 101760, Note_off_c, 8, 69, 95
6, 101760, Note_on_c, 8, 74, 95
6, 102240, Note_off_c, 8, 74, 95
6, 102240, Note_on_c, 8, 76, 95
6, 102720, Note_off_c, 8, 76, 95
6, 102720, Note_on_c, 8, 74, 95
6, 103200, Note_off_c, 8, 74, 95
6, 103200, Note_on_c, 8, 76, 95
6, 103680, Note_off_c, 8, 76, 95
6, 111360, Note_on_c, 8, 69, 95
6, 111840, Note_off_c, 8, 69, 95
6, 111840, Note_on_c, 8, 74, 95
6, 112320, Note_off_c, 8, 74, 95
6, 112320, Note_on_c, 8, 76, 95
6, 112800, Note_off_c, 8, 76, 95
6, 112800, Note_on_c, 8, 69, 95
6, 113280, Note_off_c, 8, 69, 95
6, 113280, Note_on_c, 8, 74, 95
6, 113760, Note_off_c, 8, 74, 95
6, 113760, Note_on_c, 8, 76, 95
6, 114240, Note_off_c, 8, 76, 95
6, 114240, Note_on_c, 8, 74, 95
6, 114720, Note_off_c, 8, 74, 95
6, 114720, Note_on_c, 8, 76, 95
6, 115200, Note_off_c, 8, 76, 95
6, 115200, Note_on_c, 8, 69, 95
6, 115680, Note_off_c, 8, 69, 95
6, 115680, Note_on_c, 8, 74, 95
6, 116160, Note_off_c, 8, 74, 95
6, 116160, Note_on_c, 8, 76, 95
6, 116640, Note_off_c, 8, 76, 95
6, 116640, Note_on_c, 8, 69, 95
6, 117120, Note_off_c, 8, 69, 95
6, 117120, Note_on_c, 8, 74, 95
6, 117600, Note_off_c, 8, 74, 95
6, 117600, Note_on_c, 8, 76, 95
6, 118080, Note_off_c, 8, 76, 95
6, 118080, Note_on_c, 8, 74, 95
6, 118560, Note_off_c, 8, 74, 95
6, 118560, Note_on_c, 8, 76, 95
6, 119040, Note_off_c, 8, 76, 95
6, 126720, Note_on_c, 8, 69, 95
6, 127200, Note_off_c, 8, 69, 95
6, 127200, Note_on_c, 8, 74, 95
6, 127680, Note_off_c, 8, 74, 95
6, 127680, Note_on_c, 8, 76, 95
6, 128160, Note_off_c, 8, 76, 95
6, 128160, Note_on_c, 8, 69, 95
6, 128640, Note_off_c, 8, 69, 95
6, 128640, Note_on_c, 8, 74, 95
6, 129120, Note_off_c, 8, 74, 95
6, 129120, Note_on_c, 8, 76, 95
6, 129600, Note_off_c, 8, 76, 95
6, 129600, Note_on_c, 8, 74, 95
6, 130080, Note_off_c, 8, 74, 95
6, 130080, Note_on_c, 8, 76, 95
6, 130560, Note_off_c, 8, 76, 95
6, 130560, Note_on_c, 8, 69, 95
6, 131040, Note_off_c, 8, 69, 95
6, 131040, Note_on_c, 8, 74, 95
6, 131520, Note_off_c, 8, 74, 95
6, 131520, Note_on_c, 8, 76, 95
6, 132000, Note_off_c, 8, 76, 95
6, 132000, Note_on_c, 8, 69, 95
6, 132480, Note_off_c, 8, 69, 95
6, 132480, Note_on_c, 8, 74, 95
6, 132960, Note_off_c, 8, 74, 95
6, 132960, Note_on_c, 8, 76, 95
6, 133440, Note_off_c, 8, 76, 95
6, 133440, Note_on_c, 8, 74, 95
6, 133920, Note_off_c, 8, 74, 95
6, 133920, Note_on_c, 8, 76, 95
6, 134400, Note_off_c, 8, 76, 95
6, 142080, Note_on_c, 8, 69, 95
6, 142560, Note_off_c, 8, 69, 95
6, 142560, Note_on_c, 8, 74, 95
6, 143040, Note_off_c, 8, 74, 95
6, 143040, Note_on_c, 8, 76, 95
6, 143520, Note_off_c, 8, 76, 95
6, 143520, Note_on_c, 8, 69, 95
6, 144000, Note_off_c, 8, 69, 95
6, 144000, Note_on_c, 8, 74, 95
6, 144480, Note_off_c, 8, 74, 95
6, 144480, Note_on_c, 8, 76, 95
6, 144960, Note_off_c, 8, 76, 95
6, 144960, Note_on_c, 8, 74, 95
6, 145440, Note_off_c, 8, 74, 95
6, 145440, Note_on_c, 8, 76, 95
6, 145920, Note_off_c, 8, 76, 95
6, 145920, Note_on_c, 8, 69, 95
6, 146400, Note_off_c, 8, 69, 95
6, 146400, Note_on_c, 8, 74, 95
6, 146880, Note_off_c, 8, 74, 95
6, 146880, Note_on_c, 8, 76, 95
6, 147360, Note_off_c, 8, 76, 95
6, 147360, Note_on_c, 8, 69, 95
6, 147840, Note_off_c, 8, 69, 95
6, 147840, Note_on_c, 8, 74, 95
6, 148320, Note_off_c, 8, 74, 95
6, 148320, Note_on_c, 8, 76, 95
6, 148800, Note_off_c, 8, 76, 95
6, 148800, Note_on_c, 8, 74, 95
6, 149280, Note_off_c, 8, 74, 95
6, 149280, Note_on_c, 8, 76, 95
6, 149760, Note_off_c, 8, 76, 95
6, 157440, Note_on_c, 8, 69, 95
6, 157920, Note_off_c, 8, 69, 95
6, 157920, Note_on_c, 8, 74, 95
6, 158400, Note_off_c, 8, 74, 95
6, 158400, Note_on_c, 8, 76, 95
6, 158880, Note_off_c, 8, 76, 95
6, 158880, Note_on_c, 8, 69, 95
6, 159360, Note_off_c, 8, 69, 95
6, 159360, Note_on_c, 8, 74, 95
6, 159840, Note_off_c, 8, 74, 95
6, 159840, Note_on_c, 8, 76, 95
6, 160320, Note_off_c, 8, 76, 95
6, 160320, Note_on_c, 8, 74, 95
6, 160800, Note_off_c, 8, 74, 95
6, 160800, Note_on_c, 8, 76, 95
6, 161280, Note_off_c, 8, 76, 95
6, 161280, Note_on_c, 8, 69, 95
6, 161760, Note_off_c, 8, 69, 95
6, 161760, Note_on_c, 8, 74, 95
6, 162240, Note_off_c, 8, 74, 95
6, 162240, Note_on_c, 8, 76, 95
6, 162720, Note_off_c, 8, 76, 95
6, 162720, Note_on_c, 8, 69, 95
6, 163200, Note_off_c, 8, 69, 95
6, 163200, Note_on_c, 8, 74, 95
6, 163680, Note_off_c, 8, 74, 95
6, 163680, Note_on_c, 8, 76, 95
6, 164160, Note_off_c, 8, 76, 95
6, 164160, Note_on_c, 8, 74, 95
6, 164640, Note_off_c, 8, 74, 95
6, 164640, Note_on_c, 8, 76, 95
6, 165120, Note_off_c, 8, 76, 95
6, 172800, Note_on_c, 8, 69, 95
6, 173280, Note_off_c, 8, 69, 95
6, 173280, Note_on_c, 8, 74, 95
6, 173760, Note_off_c, 8, 74, 95
6, 173760, Note_on_c, 8, 76, 95
6, 174240, Note_off_c, 8, 76, 95
6, 174240, Note_on_c, 8, 69, 95
6, 174720, Note_off_c, 8, 69, 95
6, 174720, Note_on_c, 8, 74, 95
6, 175200, Note_off_c, 8, 74, 95
6, 175200, Note_on_c, 8, 76, 95
6, 175680, Note_off_c, 8, 76, 95
6, 175680, Note_on_c, 8, 74, 95
6, 176160, Note_off_c, 8, 74, 95
6, 176160, Note_on_c, 8, 76, 95
6, 176640, Note_off_c, 8, 76, 95
6, 176640, Note_on_c, 8, 69, 95
6, 177120, Note_off_c, 8, 69, 95
6, 177120, Note_on_c, 8, 74, 95
6, 177600, Note_off_c, 8, 74, 95
6, 177600, Note_on_c, 8, 76, 95
6, 178080, Note_off_c, 8, 76, 95
6, 178080, Note_on_c, 8, 69, 95
6, 178560, Note_off_c, 8, 69, 95
6, 178560, Note_on_c, 8, 74, 95
6, 179040, Note_off_c, 8, 74, 95
6, 179040, Note_on_c, 8, 76, 95
6, 179520, Note_off_c, 8, 76, 95
6, 179520, Note_on_c, 8, 74, 95
6, 180000, Note_off_c, 8, 74, 95
6, 180000, Note_on_c, 8, 76, 95
6, 180480, Note_off_c, 8, 76, 95
6, 188160, Note_on_c, 8, 69, 95
6, 188640, Note_off_c, 8, 69, 95
6, 188640, Note_on_c, 8, 74, 95
6, 189120, Note_off_c, 8, 74, 95
6, 189120, Note_on_c, 8, 76, 95
6, 189600, Note_off_c, 8, 76, 95
6, 189600, Note_on_c, 8, 69, 95
6, 190080, Note_off_c, 8, 69, 95
6, 190080, Note_on_c, 8, 74, 95
6, 190560, Note_off_c, 8, 74, 95
6, 190560, Note_on_c, 8, 76, 95
6, 191040, Note_off_c, 8, 76, 95
6, 191040, Note_on_c, 8, 74, 95
6, 191520, Note_off_c, 8, 74, 95
6, 191520, Note_on_c, 8, 76, 95
6, 192000, Note_off_c, 8, 76, 95
6, 192000, Note_on_c, 8, 69, 95
6, 192480, Note_off_c, 8, 69, 95
6, 192480, Note_on_c, 8, 74, 95
6, 192960, Note_off_c, 8, 74, 95
6, 192960, Note_on_c, 8, 76, 95
6, 193440, Note_off_c, 8, 76, 95
6, 193440, Note_on_c, 8, 69, 95
6, 193920, Note_off_c, 8, 69, 95
6, 193920, Note_on_c, 8, 74, 95
6, 194400, Note_off_c, 8, 74, 95
6, 194400, Note_on_c, 8, 76, 95
6, 194880, Note_off_c, 8, 76, 95
6, 194880, Note_on_c, 8, 74, 95
6, 195360, Note_off_c, 8, 74, 95
6, 195360, Note_on_c, 8, 76, 95
6, 195840, Note_off_c, 8, 76, 95
6, 203520, Note_on_c, 8, 69, 95
6, 204000, Note_off_c, 8, 69, 95
6, 204000, Note_on_c, 8, 74, 95
6, 204480, Note_off_c, 8, 74, 95
6, 204480, Note_on_c, 8, 76, 95
6, 204960, Note_off_c, 8, 76, 95
6, 204960, Note_on_c, 8, 69, 95
6, 205440, Note_off_c, 8, 69, 95
6, 205440, Note_on_c, 8, 74, 95
6, 205920, Note_off_c, 8, 74, 95
6, 205920, Note_on_c, 8, 76, 95
6, 206400, Note_off_c, 8, 76, 95
6, 206400, Note_on_c, 8, 74, 95
6, 206880, Note_off_c, 8, 74, 95
6, 206880, Note_on_c, 8, 76, 95
6, 207360, Note_off_c, 8, 76, 95
6, 207360, Note_on_c, 8, 69, 95
6, 207840, Note_off_c, 8, 69, 95
6, 207840, Note_on_c, 8, 74, 95
6, 208320, Note_off_c, 8, 74, 95
6, 208320, Note_on_c, 8, 76, 95
6, 208800, Note_off_c, 8, 76, 95
6, 208800, Note_on_c, 8, 69, 95
6, 209280, Note_off_c, 8, 69, 95
6, 209280, Note_on_c, 8, 74, 95
6, 209760, Note_off_c, 8, 74, 95
6, 209760, Note_on_c, 8, 76, 95
6, 210240, Note_off_c, 8, 76, 95
6, 210240, Note_on_c, 8, 74, 95
6, 210720, Note_off_c, 8, 74, 95
6, 210720, Note_on_c, 8, 76, 95
6, 211200, Note_off_c, 8, 76, 95
6, 249600, Note_on_c, 8, 69, 95
6, 250080, Note_off_c, 8, 69, 95
6, 250080, Note_on_c, 8, 74, 95
6, 250560, Note_off_c, 8, 74, 95
6, 250560, Note_on_c, 8, 76, 95
6, 251040, Note_off_c, 8, 76, 95
6, 251040, Note_on_c, 8, 69, 95
6, 251520, Note_off_c, 8, 69, 95
6, 251520, Note_on_c, 8, 74, 95
6, 252000, Note_off_c, 8, 74, 95
6, 252000, Note_on_c, 8, 76, 95
6, 252480, Note_off_c, 8, 76, 95
6, 252480, Note_on_c, 8, 74, 95
6, 252960, Note_off_c, 8, 74, 95
6, 252960, Note_on_c, 8, 76, 95
6, 253440, Note_off_c, 8, 76, 95
6, 253440, Note_on_c, 8, 69, 95
6, 253920, Note_off_c, 8, 69, 95
6, 253920, Note_on_c, 8, 74, 95
6, 254400, Note_off_c, 8, 74, 95
6, 254400, Note_on_c, 8, 76, 95
6, 254880, Note_off_c, 8, 76, 95
6, 254880, Note_on_c, 8, 69, 95
6, 255360, Note_off_c, 8, 69, 95
6, 255360, Note_on_c, 8, 74, 95
6, 255840, Note_off_c, 8, 74, 95
6, 255840, Note_on_c, 8, 76, 95
6, 256320, Note_off_c, 8, 76, 95
6, 256320, Note_on_c, 8, 74, 95
6, 256800, Note_off_c, 8, 74, 95
6, 256800, Note_on_c, 8, 76, 95
6, 257280, Note_off_c, 8, 76, 95
6, 264960, Note_on_c, 8, 69, 95
6, 265440, Note_off_c, 8, 69, 95
6, 265440, Note_on_c, 8, 74, 95
6, 265920, Note_off_c, 8, 74, 95
6, 265920, Note_on_c, 8, 76, 95
6, 266400, Note_off_c, 8, 76, 95
6, 266400, Note_on_c, 8, 69, 95
6, 266880, Note_off_c, 8, 69, 95
6, 266880, Note_on_c, 8, 74, 95
6, 267360, Note_off_c, 8, 74, 95
6, 267360, Note_on_c, 8, 76, 95
6, 267840, Note_off_c, 8, 76, 95
6, 267840, Note_on_c, 8, 74, 95
6, 268320, Note_off_c, 8, 74, 95
6, 268320, Note_on_c, 8, 76, 95
6, 268800, Note_off_c, 8, 76, 95
6, 268800, Note_on_c, 8, 69, 95
6, 269280, Note_off_c, 8, 69, 95
6, 269280, Note_on_c, 8, 74, 95
6, 269760, Note_off_c, 8, 74, 95
6, 269760, Note_on_c, 8, 76, 95
6, 270240, Note_off_c, 8, 76, 95
6, 270240, Note_on_c, 8, 69, 95
6, 270720, Note_off_c, 8, 69, 95
6, 270720, Note_on_c, 8, 74, 95
6, 271200, Note_off_c, 8, 74, 95
6, 271200, Note_on_c, 8, 76, 95
6, 271680, Note_off_c, 8, 76, 95
6, 271680, Note_on_c, 8, 74, 95
6, 272160, Note_off_c, 8, 74, 95
6, 272160, Note_on_c, 8, 76, 95
6, 272640, Note_off_c, 8, 76, 95
6, 272640, End_track
7, 0, Start_track
7, 0, Pitch_bend_c, 11, 8192
7, 0, Control_c, 11, 7, 127
7, 0, Control_c, 11, 10, 63
7, 0, Control_c, 11, 93, 0
7, 0, Control_c, 11, 91, 0
7, 0, Control_c, 11, 95, 0
7, 0, Control_c, 11, 92, 0
7, 0, Control_c, 11, 11, 127
7, 0, Program_c, 11, 51
7, 34560, Note_on_c, 11, 76, 95
7, 36000, Note_off_c, 11, 76, 95
7, 36000, Note_on_c, 11, 73, 95
7, 37440, Note_off_c, 11, 73, 95
7, 38400, Note_on_c, 11, 74, 95
7, 38880, Note_off_c, 11, 74, 95
7, 38880, Note_on_c, 11, 74, 95
7, 39360, Note_off_c, 11, 74, 95
7, 39360, Note_on_c, 11, 76, 95
7, 39840, Note_off_c, 11, 76, 95
7, 39840, Note_on_c, 11, 74, 95
7, 41280, Note_off_c, 11, 74, 95
7, 41280, Note_on_c, 11, 73, 95
7, 41760, Note_off_c, 11, 73, 95
7, 41760, Note_on_c, 11, 69, 95
7, 42240, Note_off_c, 11, 69, 95
7, 42240, Note_on_c, 11, 71, 95
7, 44160, Note_off_c, 11, 71, 95
7, 44160, Note_on_c, 11, 71, 95
7, 44640, Note_off_c, 11, 71, 95
7, 44640, Note_on_c, 11, 73, 95
7, 45600, Note_off_c, 11, 73, 95
7, 45600, Note_on_c, 11, 69, 95
7, 48000, Note_off_c, 11, 69, 95
7, 49920, Note_on_c, 11, 76, 95
7, 51360, Note_off_c, 11, 76, 95
7, 51360, Note_on_c, 11, 73, 95
7, 52800, Note_off_c, 11, 73, 95
7, 53760, Note_on_c, 11, 74, 95
7, 54240, Note_off_c, 11, 74, 95
7, 54240, Note_on_c, 11, 74, 95
7, 54720, Note_off_c, 11, 74, 95
7, 54720, Note_on_c, 11, 76, 95
7, 55200, Note_off_c, 11, 76, 95
7, 55200, Note_on_c, 11, 74, 95
7, 56640, Note_off_c, 11, 74, 95
7, 56640, Note_on_c, 11, 73, 95
7, 57120, Note_off_c, 11, 73, 95
7, 57120, Note_on_c, 11, 69, 95
7, 57600, Note_off_c, 11, 69, 95
7, 57600, Note_on_c, 11, 71, 95
7, 59520, Note_off_c, 11, 71, 95
7, 59520, Note_on_c, 11, 71, 95
7, 60000, Note_off_c, 11, 71, 95
7, 60000, Note_on_c, 11, 73, 95
7, 60960, Note_off_c, 11, 73, 95
7, 60960, Note_on_c, 11, 69, 95
7, 63360, Note_off_c, 11, 69, 95
7, 63840, Note_on_c, 11, 81, 95
7, 64320, Note_off_c, 11, 81, 95
7, 64320, Note_on_c, 11, 81, 95
7, 64800, Note_off_c, 11, 81, 95
7, 64800, Note_on_c, 11, 81, 95
7, 65760, Note_off_c, 11, 81, 95
7, 65760, Note_on_c, 11, 76, 95
7, 66240, Note_off_c, 11, 76, 95
7, 66240, Note_on_c, 11, 76, 95
7, 66720, Note_off_c, 11, 76, 95
7, 66720, Note_on_c, 11, 76, 95
7, 67200, Note_off_c, 11, 76, 95
7, 67200, Note_on_c, 11, 76, 95
7, 67680, Note_off_c, 11, 76, 95
7, 67680, Note_on_c, 11, 78, 95
7, 68160, Note_off_c, 11, 78, 95
7, 68160, Note_on_c, 11, 79, 95
7, 68640, Note_off_c, 11, 79, 95
7, 68640, Note_on_c, 11, 79, 95
7, 69600, Note_off_c, 11, 79, 95
7, 71520, Note_on_c, 11, 69, 95
7, 71760, Note_off_c, 11, 69, 95
7, 71760, Note_on_c, 11, 74, 95
7, 72240, Note_off_c, 11, 74, 95
7, 72240, Note_on_c, 11, 76, 95
7, 72960, Note_off_c, 11, 76, 95
7, 72960, Note_on_c, 11, 79, 95
7, 73200, Note_off_c, 11, 79, 95
7, 73200, Note_on_c, 11, 78, 95
7, 73680, Note_off_c, 11, 78, 95
7, 73680, Note_on_c, 11, 76, 95
7, 74160, Note_off_c, 11, 76, 95
7, 74160, Note_on_c, 11, 74, 95
7, 75120, Note_off_c, 11, 74, 95
7, 75120, Note_on_c, 11, 69, 95
7, 75840, Note_off_c, 11, 69, 95
7, 75840, Note_on_c, 11, 76, 95
7, 76320, Note_off_c, 11, 76, 95
7, 76320, Note_on_c, 11, 74, 95
7, 77280, Note_off_c, 11, 74, 95
7, 78240, Note_on_c, 11, 69, 95
7, 78720, Note_off_c, 11, 69, 95
7, 78720, Note_on_c, 11, 74, 95
7, 79200, Note_off_c, 11, 74, 95
7, 79200, Note_on_c, 11, 76, 95
7, 79680, Note_off_c, 11, 76, 95
7, 79680, Note_on_c, 11, 74, 95
7, 80640, Note_off_c, 11, 74, 95
7, 80640, Note_on_c, 11, 73, 95
7, 83520, Note_off_c, 11, 73, 95
7, 83520, Note_on_c, 11, 73, 95
7, 84000, Note_off_c, 11, 73, 95
7, 84000, Note_on_c, 11, 74, 95
7, 84480, Note_off_c, 11, 74, 95
7, 84480, Note_on_c, 11, 76, 95
7, 86400, Note_off_c, 11, 76, 95
7, 86400, Note_on_c, 11, 74, 95
7, 87360, Note_off_c, 11, 74, 95
7, 87360, Note_on_c, 11, 73, 95
7, 87840, Note_off_c, 11, 73, 95
7, 87840, Note_on_c, 11, 71, 95
7, 88800, Note_off_c, 11, 71, 95
7, 88800, Note_on_c, 11, 69, 95
7, 90240, Note_off_c, 11, 69, 95
7, 126720, Note_on_c, 11, 76, 95
7, 128160, Note_off_c, 11, 76, 95
7, 128160, Note_on_c, 11, 73, 95
7, 129600, Note_off_c, 11, 73, 95
7, 130560, Note_on_c, 11, 74, 95
7, 131040, Note_off_c, 11, 74, 95
7, 131040, Note_on_c, 11, 74, 95
7, 131520, Note_off_c, 11, 74, 95
7, 131520, Note_on_c, 11, 76, 95
7, 132000, Note_off_c, 11, 76, 95
7, 132000, Note_on_c, 11, 74, 95
7, 133440, Note_off_c, 11, 74, 95
7, 133440, Note_on_c, 11, 73, 95
7, 133920, Note_off_c, 11, 73, 95
7, 133920, Note_on_c, 11, 69, 95
7, 134400, Note_off_c, 11, 69, 95
7, 134400, Note_on_c, 11, 71, 95
7, 136320, Note_off_c, 11, 71, 95
7, 136320, Note_on_c, 11, 71, 95
7, 136800, Note_off_c, 11, 71, 95
7, 136800, Note_on_c, 11, 73, 95
7, 137760, Note_off_c, 11, 73, 95
7, 137760, Note_on_c, 11, 69, 95
7, 140160, Note_off_c, 11, 69, 95
7, 142080, Note_on_c, 11, 76, 95
7, 143520, Note_off_c, 11, 76, 95
7, 143520, Note_on_c, 11, 73, 95
7, 144960, Note_off_c, 11, 73, 95
7, 145920, Note_on_c, 11, 74, 95
7, 146400, Note_off_c, 11, 74, 95
7, 146400, Note_on_c, 11, 74, 95
7, 146880, Note_off_c, 11, 74, 95
7, 146880, Note_on_c, 11, 76, 95
7, 147360, Note_off_c, 11, 76, 95
7, 147360, Note_on_c, 11, 74, 95
7, 148800, Note_off_c, 11, 74, 95
7, 148800, Note_on_c, 11, 73, 95
7, 149280, Note_off_c, 11, 73, 95
7, 149280, Note_on_c, 11, 69, 95
7, 149760, Note_off_c, 11, 69, 95
7, 149760, Note_on_c, 11, 71, 95
7, 151680, Note_off_c, 11, 71, 95
7, 151680, Note_on_c, 11, 71, 95
7, 152160, Note_off_c, 11, 71, 95
7, 152160, Note_on_c, 11, 73, 95
7, 153120, Note_off_c, 11, 73, 95
7, 153120, Note_on_c, 11, 69, 95
7, 155520, Note_off_c, 11, 69, 95
7, 156000, Note_on_c, 11, 81, 95
7, 156480, Note_off_c, 11, 81, 95
7, 156480, Note_on_c, 11, 81, 95
7, 156960, Note_off_c, 11, 81, 95
7, 156960, Note_on_c, 11, 81, 95
7, 157920, Note_off_c, 11, 81, 95
7, 157920, Note_on_c, 11, 76, 95
7, 158400, Note_off_c, 11, 76, 95
7, 158400, Note_on_c, 11, 76, 95
7, 158880, Note_off_c, 11, 76, 95
7, 158880, Note_on_c, 11, 76, 95
7, 159360, Note_off_c, 11, 76, 95
7, 159360, Note_on_c, 11, 76, 95
7, 159840, Note_off_c, 11, 76, 95
7, 159840, Note_on_c, 11, 78, 95
7, 160320, Note_off_c, 11, 78, 95
7, 160320, Note_on_c, 11, 79, 95
7, 160800, Note_off_c, 11, 79, 95
7, 160800, Note_on_c, 11, 79, 95
7, 161760, Note_off_c, 11, 79, 95
7, 163680, Note_on_c, 11, 69, 95
7, 163920, Note_off_c, 11, 69, 95
7, 163920, Note_on_c, 11, 74, 95
7, 164400, Note_off_c, 11, 74, 95
7, 164400, Note_on_c, 11, 76, 95
7, 165120, Note_off_c, 11, 76, 95
7, 165120, Note_on_c, 11, 79, 95
7, 165360, Note_off_c, 11, 79, 95
7, 165360, Note_on_c, 11, 78, 95
7, 165840, Note_off_c, 11, 78, 95
7, 165840, Note_on_c, 11, 76, 95
7, 166320, Note_off_c, 11, 76, 95
7, 166320, Note_on_c, 11, 74, 95
7, 167280, Note_off_c, 11, 74, 95
7, 167280, Note_on_c, 11, 69, 95
7, 168000, Note_off_c, 11, 69, 95
7, 168000, Note_on_c, 11, 76, 95
7, 168480, Note_off_c, 11, 76, 95
7, 168480, Note_on_c, 11, 74, 95
7, 169440, Note_off_c, 11, 74, 95
7, 170400, Note_on_c, 11, 69, 95
7, 170880, Note_off_c, 11, 69, 95
7, 170880, Note_on_c, 11, 74, 95
7, 171360, Note_off_c, 11, 74, 95
7, 171360, Note_on_c, 11, 76, 95
7, 171840, Note_off_c, 11, 76, 95
7, 171840, Note_on_c, 11, 74, 95
7, 172800, Note_off_c, 11, 74, 95
7, 172800, Note_on_c, 11, 73, 95
7, 175680, Note_off_c, 11, 73, 95
7, 175680, Note_on_c, 11, 73, 95
7, 176160, Note_off_c, 11, 73, 95
7, 176160, Note_on_c, 11, 74, 95
7, 176640, Note_off_c, 11, 74, 95
7, 176640, Note_on_c, 11, 76, 95
7, 178560, Note_off_c, 11, 76, 95
7, 178560, Note_on_c, 11, 74, 95
7, 179520, Note_off_c, 11, 74, 95
7, 179520, Note_on_c, 11, 73, 95
7, 180000, Note_off_c, 11, 73, 95
7, 180000, Note_on_c, 11, 71, 95
7, 180960, Note_off_c, 11, 71, 95
7, 180960, Note_on_c, 11, 69, 95
7, 182400, Note_off_c, 11, 69, 95
7, 218880, Note_on_c, 11, 76, 95
7, 220320, Note_off_c, 11, 76, 95
7, 220320, Note_on_c, 11, 73, 95
7, 221760, Note_off_c, 11, 73, 95
7, 222720, Note_on_c, 11, 74, 95
7, 223200, Note_off_c, 11, 74, 95
7, 223200, Note_on_c, 11, 74, 95
7, 223680, Note_off_c, 11, 74, 95
7, 223680, Note_on_c, 11, 76, 95
7, 224160, Note_off_c, 11, 76, 95
7, 224160, Note_on_c, 11, 74, 95
7, 225600, Note_off_c, 11, 74, 95
7, 225600, Note_on_c, 11, 73, 95
7, 226080, Note_off_c, 11, 73, 95
7, 226080, Note_on_c, 11, 69, 95
7, 226560, Note_off_c, 11, 69, 95
7, 226560, Note_on_c, 11, 71, 95
7, 228480, Note_off_c, 11, 71, 95
7, 228480, Note_on_c, 11, 71, 95
7, 228960, Note_off_c, 11, 71, 95
7, 228960, Note_on_c, 11, 73, 95
7, 229920, Note_off_c, 11, 73, 95
7, 229920, Note_on_c, 11, 69, 95
7, 232320, Note_off_c, 11, 69, 95
7, 234240, Note_on_c, 11, 76, 95
7, 235680, Note_off_c, 11, 76, 95
7, 235680, Note_on_c, 11, 73, 95
7, 237120, Note_off_c, 11, 73, 95
7, 238080, Note_on_c, 11, 74, 95
7, 238560, Note_off_c, 11, 74, 95
7, 238560, Note_on_c, 11, 74, 95
7, 239040, Note_off_c, 11, 74, 95
7, 239040, Note_on_c, 11, 76, 95
7, 239520, Note_off_c, 11, 76, 95
7, 239520, Note_on_c, 11, 74, 95
7, 240960, Note_off_c, 11, 74, 95
7, 240960, Note_on_c, 11, 73, 95
7, 241440, Note_off_c, 11, 73, 95
7, 241440, Note_on_c, 11, 69, 95
7, 241920, Note_off_c, 11, 69, 95
7, 241920, Note_on_c, 11, 71, 95
7, 243840, Note_off_c, 11, 71, 95
7, 243840, Note_on_c, 11, 71, 95
7, 244320, Note_off_c, 11, 71, 95
7, 244320, Note_on_c, 11, 73, 95
7, 245280, Note_off_c, 11, 73, 95
7, 245280, Note_on_c, 11, 69, 95
7, 247680, Note_off_c, 11, 69, 95
7, 248160, Note_on_c, 11, 81, 95
7, 248640, Note_off_c, 11, 81, 95
7, 248640, Note_on_c, 11, 81, 95
7, 249120, Note_off_c, 11, 81, 95
7, 249120, Note_on_c, 11, 81, 95
7, 250080, Note_off_c, 11, 81, 95
7, 250080, Note_on_c, 11, 76, 95
7, 250560, Note_off_c, 11, 76, 95
7, 250560, Note_on_c, 11, 76, 95
7, 251040, Note_off_c, 11, 76, 95
7, 251040, Note_on_c, 11, 76, 95
7, 251520, Note_off_c, 11, 76, 95
7, 251520, Note_on_c, 11, 76, 95
7, 252000, Note_off_c, 11, 76, 95
7, 252000, Note_on_c, 11, 78, 95
7, 252480, Note_off_c, 11, 78, 95
7, 252480, Note_on_c, 11, 79, 95
7, 252960, Note_off_c, 11, 79, 95
7, 252960, Note_on_c, 11, 79, 95
7, 253920, Note_off_c, 11, 79, 95
7, 255840, Note_on_c, 11, 69, 95
7, 256080, Note_off_c, 11, 69, 95
7, 256080, Note_on_c, 11, 74, 95
7, 256560, Note_off_c, 11, 74, 95
7, 256560, Note_on_c, 11, 76, 95
7, 257280, Note_off_c, 11, 76, 95
7, 257280, Note_on_c, 11, 79, 95
7, 257520, Note_off_c, 11, 79, 95
7, 257520, Note_on_c, 11, 78, 95
7, 258000, Note_off_c, 11, 78, 95
7, 258000, Note_on_c, 11, 76, 95
7, 258480, Note_off_c, 11, 76, 95
7, 258480, Note_on_c, 11, 74, 95
7, 259440, Note_off_c, 11, 74, 95
7, 259440, Note_on_c, 11, 69, 95
7, 260160, Note_off_c, 11, 69, 95
7, 260160, Note_on_c, 11, 76, 95
7, 260640, Note_off_c, 11, 76, 95
7, 260640, Note_on_c, 11, 74, 95
7, 261600, Note_off_c, 11, 74, 95
7, 262560, Note_on_c, 11, 69, 95
7, 263040, Note_off_c, 11, 69, 95
7, 263040, Note_on_c, 11, 74, 95
7, 263520, Note_off_c, 11, 74, 95
7, 263520, Note_on_c, 11, 76, 95
7, 264000, Note_off_c, 11, 76, 95
7, 264000, Note_on_c, 11, 74, 95
7, 264960, Note_off_c, 11, 74, 95
7, 264960, Note_on_c, 11, 73, 95
7, 267840, Note_off_c, 11, 73, 95
7, 267840, Note_on_c, 11, 73, 95
7, 268320, Note_off_c, 11, 73, 95
7, 268320, Note_on_c, 11, 74, 95
7, 268800, Note_off_c, 11, 74, 95
7, 268800, Note_on_c, 11, 76, 95
7, 270720, Note_off_c, 11, 76, 95
7, 270720, Note_on_c, 11, 74, 95
7, 271680, Note_off_c, 11, 74, 95
7, 271680, Note_on_c, 11, 73, 95
7, 272160, Note_off_c, 11, 73, 95
7, 272160, Note_on_c, 11, 71, 95
7, 273120, Note_off_c, 11, 71, 95
7, 273120, Note_on_c, 11, 69, 95
7, 274560, Note_off_c, 11, 69, 95
7, 274560, End_track
8, 0, Start_track
8, 0, Pitch_bend_c, 13, 8192
8, 0, Control_c, 13, 7, 103
8, 0, Control_c, 13, 10, 63
8, 0, Control_c, 13, 93, 0
8, 0, Control_c, 13, 91, 0
8, 0, Control_c, 13, 95, 0
8, 0, Control_c, 13, 92, 0
8, 0, Control_c, 13, 11, 127
8, 0, Program_c, 13, 44
8, 3840, Note_on_c, 13, 73, 95
8, 4320, Note_off_c, 13, 73, 95
8, 4320, Note_on_c, 13, 71, 95
8, 4800, Note_off_c, 13, 71, 95
8, 4800, Note_on_c, 13, 66, 95
8, 5280, Note_off_c, 13, 66, 95
8, 5280, Note_on_c, 13, 73, 95
8, 5760, Note_off_c, 13, 73, 95
8, 5760, Note_on_c, 13, 71, 95
8, 6240, Note_off_c, 13, 71, 95
8, 6240, Note_on_c, 13, 66, 95
8, 6720, Note_off_c, 13, 66, 95
8, 6720, Note_on_c, 13, 73, 95
8, 7200, Note_off_c, 13, 73, 95
8, 7200, Note_on_c, 13, 71, 95
8, 7680, Note_off_c, 13, 71, 95
8, 7680, Note_on_c, 13, 66, 95
8, 8160, Note_off_c, 13, 66, 95
8, 8160, Note_on_c, 13, 73, 95
8, 8640, Note_off_c, 13, 73, 95
8, 8640, Note_on_c, 13, 71, 95
8, 9120, Note_off_c, 13, 71, 95
8, 9120, Note_on_c, 13, 66, 95
8, 9600, Note_off_c, 13, 66, 95
8, 9600, Note_on_c, 13, 73, 95
8, 10080, Note_off_c, 13, 73, 95
8, 10080, Note_on_c, 13, 71, 95
8, 10560, Note_off_c, 13, 71, 95
8, 10560, Note_on_c, 13, 66, 95
8, 11040, Note_off_c, 13, 66, 95
8, 11040, Note_on_c, 13, 73, 95
8, 11520, Note_off_c, 13, 73, 95
8, 11520, Note_on_c, 13, 67, 95
8, 12000, Note_off_c, 13, 67, 95
8, 12000, Note_on_c, 13, 66, 95
8, 12480, Note_off_c, 13, 66, 95
8, 12480, Note_on_c, 13, 57, 95
8, 12960, Note_off_c, 13, 57, 95
8, 12960, Note_on_c, 13, 67, 95
8, 13440, Note_off_c, 13, 67, 95
8, 13440, Note_on_c, 13, 66, 95
8, 13920, Note_off_c, 13, 66, 95
8, 13920, Note_on_c, 13, 57, 95
8, 14400, Note_off_c, 13, 57, 95
8, 14400, Note_on_c, 13, 67, 95
8, 14880, Note_off_c, 13, 67, 95
8, 14880, Note_on_c, 13, 66, 95
8, 15360, Note_off_c, 13, 66, 95
8, 15360, Note_on_c, 13, 57, 95
8, 15840, Note_off_c, 13, 57, 95
8, 15840, Note_on_c, 13, 67, 95
8, 16320, Note_off_c, 13, 67, 95
8, 16320, Note_on_c, 13, 66, 95
8, 16800, Note_off_c, 13, 66, 95
8, 16800, Note_on_c, 13, 57, 95
8, 17280, Note_off_c, 13, 57, 95
8, 17280, Note_on_c, 13, 67, 95
8, 17760, Note_off_c, 13, 67, 95
8, 17760, Note_on_c, 13, 66, 95
8, 18240, Note_off_c, 13, 66, 95
8, 18240, Note_on_c, 13, 57, 95
8, 19200, Note_off_c, 13, 57, 95
8, 19200, Note_on_c, 13, 73, 95
8, 19680, Note_off_c, 13, 73, 95
8, 19680, Note_on_c, 13, 71, 95
8, 20160, Note_off_c, 13, 71, 95
8, 20160, Note_on_c, 13, 66, 95
8, 20640, Note_off_c, 13, 66, 95
8, 20640, Note_on_c, 13, 73, 95
8, 21120, Note_off_c, 13, 73, 95
8, 21120, Note_on_c, 13, 71, 95
8, 21600, Note_off_c, 13, 71, 95
8, 21600, Note_on_c, 13, 66, 95
8, 22080, Note_off_c, 13, 66, 95
8, 22080, Note_on_c, 13, 73, 95
8, 22560, Note_off_c, 13, 73, 95
8, 22560, Note_on_c, 13, 71, 95
8, 23040, Note_off_c, 13, 71, 95
8, 23040, Note_on_c, 13, 66, 95
8, 23520, Note_off_c, 13, 66, 95
8, 23520, Note_on_c, 13, 73, 95
8, 24000, Note_off_c, 13, 73, 95
8, 24000, Note_on_c, 13, 71, 95
8, 24480, Note_off_c, 13, 71, 95
8, 24480, Note_on_c, 13, 66, 95
8, 24960, Note_off_c, 13, 66, 95
8, 24960, Note_on_c, 13, 73, 95
8, 25440, Note_off_c, 13, 73, 95
8, 25440, Note_on_c, 13, 71, 95
8, 25920, Note_off_c, 13, 71, 95
8, 25920, Note_on_c, 13, 66, 95
8, 26400, Note_off_c, 13, 66, 95
8, 26400, Note_on_c, 13, 73, 95
8, 26880, Note_off_c, 13, 73, 95
8, 26880, Note_on_c, 13, 67, 95
8, 27360, Note_off_c, 13, 67, 95
8, 27360, Note_on_c, 13, 66, 95
8, 27840, Note_off_c, 13, 66, 95
8, 27840, Note_on_c, 13, 57, 95
8, 28320, Note_off_c, 13, 57, 95
8, 28320, Note_on_c, 13, 67, 95
8, 28800, Note_off_c, 13, 67, 95
8, 28800, Note_on_c, 13, 66, 95
8, 29280, Note_off_c, 13, 66, 95
8, 29280, Note_on_c, 13, 57, 95
8, 29760, Note_off_c, 13, 57, 95
8, 29760, Note_on_c, 13, 67, 95
8, 30240, Note_off_c, 13, 67, 95
8, 30240, Note_on_c, 13, 66, 95
8, 30720, Note_off_c, 13, 66, 95
8, 30720, Note_on_c, 13, 57, 95
8, 31200, Note_off_c, 13, 57, 95
8, 31200, Note_on_c, 13, 67, 95
8, 31680, Note_off_c, 13, 67, 95
8, 31680, Note_on_c, 13, 66, 95
8, 32160, Note_off_c, 13, 66, 95
8, 32160, Note_on_c, 13, 57, 95
8, 32640, Note_off_c, 13, 57, 95
8, 32640, Note_on_c, 13, 67, 95
8, 33120, Note_off_c, 13, 67, 95
8, 33120, Note_on_c, 13, 66, 95
8, 33600, Note_off_c, 13, 66, 95
8, 33600, Note_on_c, 13, 57, 95
8, 34560, Note_off_c, 13, 57, 95
8, 65280, Note_on_c, 13, 73, 95
8, 65760, Note_off_c, 13, 73, 95
8, 65760, Note_on_c, 13, 71, 95
8, 66240, Note_off_c, 13, 71, 95
8, 66240, Note_on_c, 13, 66, 95
8, 66720, Note_off_c, 13, 66, 95
8, 66720, Note_on_c, 13, 73, 95
8, 67200, Note_off_c, 13, 73, 95
8, 67200, Note_on_c, 13, 71, 95
8, 67680, Note_off_c, 13, 71, 95
8, 67680, Note_on_c, 13, 66, 95
8, 68160, Note_off_c, 13, 66, 95
8, 68160, Note_on_c, 13, 73, 95
8, 68640, Note_off_c, 13, 73, 95
8, 68640, Note_on_c, 13, 71, 95
8, 69120, Note_off_c, 13, 71, 95
8, 69120, Note_on_c, 13, 66, 95
8, 69600, Note_off_c, 13, 66, 95
8, 69600, Note_on_c, 13, 73, 95
8, 70080, Note_off_c, 13, 73, 95
8, 70080, Note_on_c, 13, 71, 95
8, 70560, Note_off_c, 13, 71, 95
8, 70560, Note_on_c, 13, 66, 95
8, 71040, Note_off_c, 13, 66, 95
8, 71040, Note_on_c, 13, 73, 95
8, 71520, Note_off_c, 13, 73, 95
8, 71520, Note_on_c, 13, 71, 95
8, 72000, Note_off_c, 13, 71, 95
8, 72000, Note_on_c, 13, 66, 95
8, 72480, Note_off_c, 13, 66, 95
8, 72480, Note_on_c, 13, 73, 95
8, 72960, Note_off_c, 13, 73, 95
8, 72960, Note_on_c, 13, 67, 95
8, 73440, Note_off_c, 13, 67, 95
8, 73440, Note_on_c, 13, 66, 95
8, 73920, Note_off_c, 13, 66, 95
8, 73920, Note_on_c, 13, 57, 95
8, 74400, Note_off_c, 13, 57, 95
8, 74400, Note_on_c, 13, 67, 95
8, 74880, Note_off_c, 13, 67, 95
8, 74880, Note_on_c, 13, 66, 95
8, 75360, Note_off_c, 13, 66, 95
8, 75360, Note_on_c, 13, 57, 95
8, 75840, Note_off_c, 13, 57, 95
8, 75840, Note_on_c, 13, 67, 95
8, 76320, Note_off_c, 13, 67, 95
8, 76320, Note_on_c, 13, 66, 95
8, 76800, Note_off_c, 13, 66, 95
8, 76800, Note_on_c, 13, 57, 95
8, 77280, Note_off_c, 13, 57, 95
8, 77280, Note_on_c, 13, 67, 95
8, 77760, Note_off_c, 13, 67, 95
8, 77760, Note_on_c, 13, 66, 95
8, 78240, Note_off_c, 13, 66, 95
8, 78240, Note_on_c, 13, 57, 95
8, 78720, Note_off_c, 13, 57, 95
8, 78720, Note_on_c, 13, 67, 95
8, 79200, Note_off_c, 13, 67, 95
8, 79200, Note_on_c, 13, 66, 95
8, 79680, Note_off_c, 13, 66, 95
8, 79680, Note_on_c, 13, 57, 95
8, 80640, Note_off_c, 13, 57, 95
8, 80640, Note_on_c, 13, 73, 95
8, 81120, Note_off_c, 13, 73, 95
8, 81120, Note_on_c, 13, 71, 95
8, 81600, Note_off_c, 13, 71, 95
8, 81600, Note_on_c, 13, 66, 95
8, 82080, Note_off_c, 13, 66, 95
8, 82080, Note_on_c, 13, 73, 95
8, 82560, Note_off_c, 13, 73, 95
8, 82560, Note_on_c, 13, 71, 95
8, 83040, Note_off_c, 13, 71, 95
8, 83040, Note_on_c, 13, 66, 95
8, 83520, Note_off_c, 13, 66, 95
8, 83520, Note_on_c, 13, 73, 95
8, 84000, Note_off_c, 13, 73, 95
8, 84000, Note_on_c, 13, 71, 95
8, 84480, Note_off_c, 13, 71, 95
8, 84480, Note_on_c, 13, 66, 95
8, 84960, Note_off_c, 13, 66, 95
8, 84960, Note_on_c, 13, 73, 95
8, 85440, Note_off_c, 13, 73, 95
8, 85440, Note_on_c, 13, 71, 95
8, 85920, Note_off_c, 13, 71, 95
8, 85920, Note_on_c, 13, 66, 95
8, 86400, Note_off_c, 13, 66, 95
8, 86400, Note_on_c, 13, 73, 95
8, 86880, Note_off_c, 13, 73, 95
8, 86880, Note_on_c, 13, 71, 95
8, 87360, Note_off_c, 13, 71, 95
8, 87360, Note_on_c, 13, 66, 95
8, 87840, Note_off_c, 13, 66, 95
8, 87840, Note_on_c, 13, 73, 95
8, 88320, Note_off_c, 13, 73, 95
8, 88320, Note_on_c, 13, 67, 95
8, 88800, Note_off_c, 13, 67, 95
8, 88800, Note_on_c, 13, 66, 95
8, 89280, Note_off_c, 13, 66, 95
8, 89280, Note_on_c, 13, 57, 95
8, 89760, Note_off_c, 13, 57, 95
8, 89760, Note_on_c, 13, 67, 95
8, 90240, Note_off_c, 13, 67, 95
8, 90240, Note_on_c, 13, 66, 95
8, 90720, Note_off_c, 13, 66, 95
8, 90720, Note_on_c, 13, 57, 95
8, 91200, Note_off_c, 13, 57, 95
8, 91200, Note_on_c, 13, 67, 95
8, 91680, Note_off_c, 13, 67, 95
8, 91680, Note_on_c, 13, 66, 95
8, 92160, Note_off_c, 13, 66, 95
8, 92160, Note_on_c, 13, 57, 95
8, 92640, Note_off_c, 13, 57, 95
8, 92640, Note_on_c, 13, 67, 95
8, 93120, Note_off_c, 13, 67, 95
8, 93120, Note_on_c, 13, 66, 95
8, 93600, Note_off_c, 13, 66, 95
8, 93600, Note_on_c, 13, 57, 95
8, 94080, Note_off_c, 13, 57, 95
8, 94080, Note_on_c, 13, 67, 95
8, 94560, Note_off_c, 13, 67, 95
8, 94560, Note_on_c, 13, 66, 95
8, 95040, Note_off_c, 13, 66, 95
8, 95040, Note_on_c, 13, 57, 95
8, 96000, Note_off_c, 13, 57, 95
8, 96000, Note_on_c, 13, 73, 95
8, 96480, Note_off_c, 13, 73, 95
8, 96480, Note_on_c, 13, 71, 95
8, 96960, Note_off_c, 13, 71, 95
8, 96960, Note_on_c, 13, 66, 95
8, 97440, Note_off_c, 13, 66, 95
8, 97440, Note_on_c, 13, 73, 95
8, 97920, Note_off_c, 13, 73, 95
8, 97920, Note_on_c, 13, 71, 95
8, 98400, Note_off_c, 13, 71, 95
8, 98400, Note_on_c, 13, 66, 95
8, 98880, Note_off_c, 13, 66, 95
8, 98880, Note_on_c, 13, 73, 95
8, 99360, Note_off_c, 13, 73, 95
8, 99360, Note_on_c, 13, 71, 95
8, 99840, Note_off_c, 13, 71, 95
8, 99840, Note_on_c, 13, 66, 95
8, 100320, Note_off_c, 13, 66, 95
8, 100320, Note_on_c, 13, 73, 95
8, 100800, Note_off_c, 13, 73, 95
8, 100800, Note_on_c, 13, 71, 95
8, 101280, Note_off_c, 13, 71, 95
8, 101280, Note_on_c, 13, 66, 95
8, 101760, Note_off_c, 13, 66, 95
8, 101760, Note_on_c, 13, 73, 95
8, 102240, Note_off_c, 13, 73, 95
8, 102240, Note_on_c, 13, 71, 95
8, 102720, Note_off_c, 13, 71, 95
8, 102720, Note_on_c, 13, 66, 95
8, 103200, Note_off_c, 13, 66, 95
8, 103200, Note_on_c, 13, 73, 95
8, 103680, Note_off_c, 13, 73, 95
8, 103680, Note_on_c, 13, 67, 95
8, 104160, Note_off_c, 13, 67, 95
8, 104160, Note_on_c, 13, 66, 95
8, 104640, Note_off_c, 13, 66, 95
8, 104640, Note_on_c, 13, 57, 95
8, 105120, Note_off_c, 13, 57, 95
8, 105120, Note_on_c, 13, 67, 95
8, 105600, Note_off_c, 13, 67, 95
8, 105600, Note_on_c, 13, 66, 95
8, 106080, Note_off_c, 13, 66, 95
8, 106080, Note_on_c, 13, 57, 95
8, 106560, Note_off_c, 13, 57, 95
8, 106560, Note_on_c, 13, 67, 95
8, 107040, Note_off_c, 13, 67, 95
8, 107040, Note_on_c, 13, 66, 95
8, 107520, Note_off_c, 13, 66, 95
8, 107520, Note_on_c, 13, 57, 95
8, 108000, Note_off_c, 13, 57, 95
8, 108000, Note_on_c, 13, 67, 95
8, 108480, Note_off_c, 13, 67, 95
8, 108480, Note_on_c, 13, 66, 95
8, 108960, Note_off_c, 13, 66, 95
8, 108960, Note_on_c, 13, 57, 95
8, 109440, Note_off_c, 13, 57, 95
8, 109440, Note_on_c, 13, 67, 95
8, 109920, Note_off_c, 13, 67, 95
8, 109920, Note_on_c, 13, 66, 95
8, 110400, Note_off_c, 13, 66, 95
8, 110400, Note_on_c, 13, 57, 95
8, 111360, Note_off_c, 13, 57, 95
8, 111360, Note_on_c, 13, 73, 95
8, 111840, Note_off_c, 13, 73, 95
8, 111840, Note_on_c, 13, 71, 95
8, 112320, Note_off_c, 13, 71, 95
8, 112320, Note_on_c, 13, 66, 95
8, 112800, Note_off_c, 13, 66, 95
8, 112800, Note_on_c, 13, 73, 95
8, 113280, Note_off_c, 13, 73, 95
8, 113280, Note_on_c, 13, 71, 95
8, 113760, Note_off_c, 13, 71, 95
8, 113760, Note_on_c, 13, 66, 95
8, 114240, Note_off_c, 13, 66, 95
8, 114240, Note_on_c, 13, 73, 95
8, 114720, Note_off_c, 13, 73, 95
8, 114720, Note_on_c, 13, 71, 95
8, 115200, Note_off_c, 13, 71, 95
8, 115200, Note_on_c, 13, 66, 95
8, 115680, Note_off_c, 13, 66, 95
8, 115680, Note_on_c, 13, 73, 95
8, 116160, Note_off_c, 13, 73, 95
8, 116160, Note_on_c, 13, 71, 95
8, 116640, Note_off_c, 13, 71, 95
8, 116640, Note_on_c, 13, 66, 95
8, 117120, Note_off_c, 13, 66, 95
8, 117120, Note_on_c, 13, 73, 95
8, 117600, Note_off_c, 13, 73, 95
8, 117600, Note_on_c, 13, 71, 95
8, 118080, Note_off_c, 13, 71, 95
8, 118080, Note_on_c, 13, 66, 95
8, 118560, Note_off_c, 13, 66, 95
8, 118560, Note_on_c, 13, 73, 95
8, 119040, Note_off_c, 13, 73, 95
8, 119040, Note_on_c, 13, 67, 95
8, 119520, Note_off_c, 13, 67, 95
8, 119520, Note_on_c, 13, 66, 95
8, 120000, Note_off_c, 13, 66, 95
8, 120000, Note_on_c, 13, 57, 95
8, 120480, Note_off_c, 13, 57, 95
8, 120480, Note_on_c, 13, 67, 95
8, 120960, Note_off_c, 13, 67, 95
8, 120960, Note_on_c, 13, 66, 95
8, 121440, Note_off_c, 13, 66, 95
8, 121440, Note_on_c, 13, 57, 95
8, 121920, Note_off_c, 13, 57, 95
8, 121920, Note_on_c, 13, 67, 95
8, 122400, Note_off_c, 13, 67, 95
8, 122400, Note_on_c, 13, 66, 95
8, 122880, Note_off_c, 13, 66, 95
8, 122880, Note_on_c, 13, 57, 95
8, 123360, Note_off_c, 13, 57, 95
8, 123360, Note_on_c, 13, 67, 95
8, 123840, Note_off_c, 13, 67, 95
8, 123840, Note_on_c, 13, 66, 95
8, 124320, Note_off_c, 13, 66, 95
8, 124320, Note_on_c, 13, 57, 95
8, 124800, Note_off_c, 13, 57, 95
8, 124800, Note_on_c, 13, 67, 95
8, 125280, Note_off_c, 13, 67, 95
8, 125280, Note_on_c, 13, 66, 95
8, 125760, Note_off_c, 13, 66, 95
8, 125760, Note_on_c, 13, 57, 95
8, 126720, Note_off_c, 13, 57, 95
8, 157440, Note_on_c, 13, 73, 95
8, 157920, Note_off_c, 13, 73, 95
8, 157920, Note_on_c, 13, 71, 95
8, 158400, Note_off_c, 13, 71, 95
8, 158400, Note_on_c, 13, 66, 95
8, 158880, Note_off_c, 13, 66, 95
8, 158880, Note_on_c, 13, 73, 95
8, 159360, Note_off_c, 13, 73, 95
8, 159360, Note_on_c, 13, 71, 95
8, 159840, Note_off_c, 13, 71, 95
8, 159840, Note_on_c, 13, 66, 95
8, 160320, Note_off_c, 13, 66, 95
8, 160320, Note_on_c, 13, 73, 95
8, 160800, Note_off_c, 13, 73, 95
8, 160800, Note_on_c, 13, 71, 95
8, 161280, Note_off_c, 13, 71, 95
8, 161280, Note_on_c, 13, 66, 95
8, 161760, Note_off_c, 13, 66, 95
8, 161760, Note_on_c, 13, 73, 95
8, 162240, Note_off_c, 13, 73, 95
8, 162240, Note_on_c, 13, 71, 95
8, 162720, Note_off_c, 13, 71, 95
8, 162720, Note_on_c, 13, 66, 95
8, 163200, Note_off_c, 13, 66, 95
8, 163200, Note_on_c, 13, 73, 95
8, 163680, Note_off_c, 13, 73, 95
8, 163680, Note_on_c, 13, 71, 95
8, 164160, Note_off_c, 13, 71, 95
8, 164160, Note_on_c, 13, 66, 95
8, 164640, Note_off_c, 13, 66, 95
8, 164640, Note_on_c, 13, 73, 95
8, 165120, Note_off_c, 13, 73, 95
8, 165120, Note_on_c, 13, 67, 95
8, 165600, Note_off_c, 13, 67, 95
8, 165600, Note_on_c, 13, 66, 95
8, 166080, Note_off_c, 13, 66, 95
8, 166080, Note_on_c, 13, 57, 95
8, 166560, Note_off_c, 13, 57, 95
8, 166560, Note_on_c, 13, 67, 95
8, 167040, Note_off_c, 13, 67, 95
8, 167040, Note_on_c, 13, 66, 95
8, 167520, Note_off_c, 13, 66, 95
8, 167520, Note_on_c, 13, 57, 95
8, 168000, Note_off_c, 13, 57, 95
8, 168000, Note_on_c, 13, 67, 95
8, 168480, Note_off_c, 13, 67, 95
8, 168480, Note_on_c, 13, 66, 95
8, 168960, Note_off_c, 13, 66, 95
8, 168960, Note_on_c, 13, 57, 95
8, 169440, Note_off_c, 13, 57, 95
8, 169440, Note_on_c, 13, 67, 95
8, 169920, Note_off_c, 13, 67, 95
8, 169920, Note_on_c, 13, 66, 95
8, 170400, Note_off_c, 13, 66, 95
8, 170400, Note_on_c, 13, 57, 95
8, 170880, Note_off_c, 13, 57, 95
8, 170880, Note_on_c, 13, 67, 95
8, 171360, Note_off_c, 13, 67, 95
8, 171360, Note_on_c, 13, 66, 95
8, 171840, Note_off_c, 13, 66, 95
8, 171840, Note_on_c, 13, 57, 95
8, 172800, Note_off_c, 13, 57, 95
8, 172800, Note_on_c, 13, 73, 95
8, 173280, Note_off_c, 13, 73, 95
8, 173280, Note_on_c, 13, 71, 95
8, 173760, Note_off_c, 13, 71, 95
8, 173760, Note_on_c, 13, 66, 95
8, 174240, Note_off_c, 13, 66, 95
8, 174240, Note_on_c, 13, 73, 95
8, 174720, Note_off_c, 13, 73, 95
8, 174720, Note_on_c, 13, 71, 95
8, 175200, Note_off_c, 13, 71, 95
8, 175200, Note_on_c, 13, 66, 95
8, 175680, Note_off_c, 13, 66, 95
8, 175680, Note_on_c, 13, 73, 95
8, 176160, Note_off_c, 13, 73, 95
8, 176160, Note_on_c, 13, 71, 95
8, 176640, Note_off_c, 13, 71, 95
8, 176640, Note_on_c, 13, 66, 95
8, 177120, Note_off_c, 13, 66, 95
8, 177120, Note_on_c, 13, 73, 95
8, 177600, Note_off_c, 13, 73, 95
8, 177600, Note_on_c, 13, 71, 95
8, 178080, Note_off_c, 13, 71, 95
8, 178080, Note_on_c, 13, 66, 95
8, 178560, Note_off_c, 13, 66, 95
8, 178560, Note_on_c, 13, 73, 95
8, 179040, Note_off_c, 13, 73, 95
8, 179040, Note_on_c, 13, 71, 95
8, 179520, Note_off_c, 13, 71, 95
8, 179520, Note_on_c, 13, 66, 95
8, 180000, Note_off_c, 13, 66, 95
8, 180000, Note_on_c, 13, 73, 95
8, 180480, Note_off_c, 13, 73, 95
8, 180480, Note_on_c, 13, 67, 95
8, 180960, Note_off_c, 13, 67, 95
8, 180960, Note_on_c, 13, 66, 95
8, 181440, Note_off_c, 13, 66, 95
8, 181440, Note_on_c, 13, 57, 95
8, 181920, Note_off_c, 13, 57, 95
8, 181920, Note_on_c, 13, 67, 95
8, 182400, Note_off_c, 13, 67, 95
8, 182400, Note_on_c, 13, 66, 95
8, 182880, Note_off_c, 13, 66, 95
8, 182880, Note_on_c, 13, 57, 95
8, 183360, Note_off_c, 13, 57, 95
8, 183360, Note_on_c, 13, 67, 95
8, 183840, Note_off_c, 13, 67, 95
8, 183840, Note_on_c, 13, 66, 95
8, 184320, Note_off_c, 13, 66, 95
8, 184320, Note_on_c, 13, 57, 95
8, 184800, Note_off_c, 13, 57, 95
8, 184800, Note_on_c, 13, 67, 95
8, 185280, Note_off_c, 13, 67, 95
8, 185280, Note_on_c, 13, 66, 95
8, 185760, Note_off_c, 13, 66, 95
8, 185760, Note_on_c, 13, 57, 95
8, 186240, Note_off_c, 13, 57, 95
8, 186240, Note_on_c, 13, 67, 95
8, 186720, Note_off_c, 13, 67, 95
8, 186720, Note_on_c, 13, 66, 95
8, 187200, Note_off_c, 13, 66, 95
8, 187200, Note_on_c, 13, 57, 95
8, 188160, Note_off_c, 13, 57, 95
8, 188160, Note_on_c, 13, 73, 95
8, 188640, Note_off_c, 13, 73, 95
8, 188640, Note_on_c, 13, 71, 95
8, 189120, Note_off_c, 13, 71, 95
8, 189120, Note_on_c, 13, 66, 95
8, 189600, Note_off_c, 13, 66, 95
8, 189600, Note_on_c, 13, 73, 95
8, 190080, Note_off_c, 13, 73, 95
8, 190080, Note_on_c, 13, 71, 95
8, 190560, Note_off_c, 13, 71, 95
8, 190560, Note_on_c, 13, 66, 95
8, 191040, Note_off_c, 13, 66, 95
8, 191040, Note_on_c, 13, 73, 95
8, 191520, Note_off_c, 13, 73, 95
8, 191520, Note_on_c, 13, 71, 95
8, 192000, Note_off_c, 13, 71, 95
8, 192000, Note_on_c, 13, 66, 95
8, 192480, Note_off_c, 13, 66, 95
8, 192480, Note_on_c, 13, 73, 95
8, 192960, Note_off_c, 13, 73, 95
8, 192960, Note_on_c, 13, 71, 95
8, 193440, Note_off_c, 13, 71, 95
8, 193440, Note_on_c, 13, 66, 95
8, 193920, Note_off_c, 13, 66, 95
8, 193920, Note_on_c, 13, 73, 95
8, 194400, Note_off_c, 13, 73, 95
8, 194400, Note_on_c, 13, 71, 95
8, 194880, Note_off_c, 13, 71, 95
8, 194880, Note_on_c, 13, 66, 95
8, 195360, Note_off_c, 13, 66, 95
8, 195360, Note_on_c, 13, 73, 95
8, 195840, Note_off_c, 13, 73, 95
8, 195840, Note_on_c, 13, 67, 95
8, 196320, Note_off_c, 13, 67, 95
8, 196320, Note_on_c, 13, 66, 95
8, 196800, Note_off_c, 13, 66, 95
8, 196800, Note_on_c, 13, 57, 95
8, 197280, Note_off_c, 13, 57, 95
8, 197280, Note_on_c, 13, 67, 95
8, 197760, Note_off_c, 13, 67, 95
8, 197760, Note_on_c, 13, 66, 95
8, 198240, Note_off_c, 13, 66, 95
8, 198240, Note_on_c, 13, 57, 95
8, 198720, Note_off_c, 13, 57, 95
8, 198720, Note_on_c, 13, 67, 95
8, 199200, Note_off_c, 13, 67, 95
8, 199200, Note_on_c, 13, 66, 95
8, 199680, Note_off_c, 13, 66, 95
8, 199680, Note_on_c, 13, 57, 95
8, 200160, Note_off_c, 13, 57, 95
8, 200160, Note_on_c, 13, 67, 95
8, 200640, Note_off_c, 13, 67, 95
8, 200640, Note_on_c, 13, 66, 95
8, 201120, Note_off_c, 13, 66, 95
8, 201120, Note_on_c, 13, 57, 95
8, 201600, Note_off_c, 13, 57, 95
8, 201600, Note_on_c, 13, 67, 95
8, 202080, Note_off_c, 13, 67, 95
8, 202080, Note_on_c, 13, 66, 95
8, 202560, Note_off_c, 13, 66, 95
8, 202560, Note_on_c, 13, 57, 95
8, 203520, Note_off_c, 13, 57, 95
8, 203520, Note_on_c, 13, 73, 95
8, 204000, Note_off_c, 13, 73, 95
8, 204000, Note_on_c, 13, 71, 95
8, 204480, Note_off_c, 13, 71, 95
8, 204480, Note_on_c, 13, 66, 95
8, 204960, Note_off_c, 13, 66, 95
8, 204960, Note_on_c, 13, 73, 95
8, 205440, Note_off_c, 13, 73, 95
8, 205440, Note_on_c, 13, 71, 95
8, 205920, Note_off_c, 13, 71, 95
8, 205920, Note_on_c, 13, 66, 95
8, 206400, Note_off_c, 13, 66, 95
8, 206400, Note_on_c, 13, 73, 95
8, 206880, Note_off_c, 13, 73, 95
8, 206880, Note_on_c, 13, 71, 95
8, 207360, Note_off_c, 13, 71, 95
8, 207360, Note_on_c, 13, 66, 95
8, 207840, Note_off_c, 13, 66, 95
8, 207840, Note_on_c, 13, 73, 95
8, 208320, Note_off_c, 13, 73, 95
8, 208320, Note_on_c, 13, 71, 95
8, 208800, Note_off_c, 13, 71, 95
8, 208800, Note_on_c, 13, 66, 95
8, 209280, Note_off_c, 13, 66, 95
8, 209280, Note_on_c, 13, 73, 95
8, 209760, Note_off_c, 13, 73, 95
8, 209760, Note_on_c, 13, 71, 95
8, 210240, Note_off_c, 13, 71, 95
8, 210240, Note_on_c, 13, 66, 95
8, 210720, Note_off_c, 13, 66, 95
8, 210720, Note_on_c, 13, 73, 95
8, 211200, Note_off_c, 13, 73, 95
8, 211200, Note_on_c, 13, 67, 95
8, 211680, Note_off_c, 13, 67, 95
8, 211680, Note_on_c, 13, 66, 95
8, 212160, Note_off_c, 13, 66, 95
8, 212160, Note_on_c, 13, 57, 95
8, 212640, Note_off_c, 13, 57, 95
8, 212640, Note_on_c, 13, 67, 95
8, 213120, Note_off_c, 13, 67, 95
8, 213120, Note_on_c, 13, 66, 95
8, 213600, Note_off_c, 13, 66, 95
8, 213600, Note_on_c, 13, 57, 95
8, 214080, Note_off_c, 13, 57, 95
8, 214080, Note_on_c, 13, 67, 95
8, 214560, Note_off_c, 13, 67, 95
8, 214560, Note_on_c, 13, 66, 95
8, 215040, Note_off_c, 13, 66, 95
8, 215040, Note_on_c, 13, 57, 95
8, 215520, Note_off_c, 13, 57, 95
8, 215520, Note_on_c, 13, 67, 95
8, 216000, Note_off_c, 13, 67, 95
8, 216000, Note_on_c, 13, 66, 95
8, 216480, Note_off_c, 13, 66, 95
8, 216480, Note_on_c, 13, 57, 95
8, 216960, Note_off_c, 13, 57, 95
8, 216960, Note_on_c, 13, 67, 95
8, 217440, Note_off_c, 13, 67, 95
8, 217440, Note_on_c, 13, 66, 95
8, 217920, Note_off_c, 13, 66, 95
8, 217920, Note_on_c, 13, 57, 95
8, 218880, Note_off_c, 13, 57, 95
8, 249600, Note_on_c, 13, 73, 95
8, 250080, Note_off_c, 13, 73, 95
8, 250080, Note_on_c, 13, 71, 95
8, 250560, Note_off_c, 13, 71, 95
8, 250560, Note_on_c, 13, 66, 95
8, 251040, Note_off_c, 13, 66, 95
8, 251040, Note_on_c, 13, 73, 95
8, 251520, Note_off_c, 13, 73, 95
8, 251520, Note_on_c, 13, 71, 95
8, 252000, Note_off_c, 13, 71, 95
8, 252000, Note_on_c, 13, 66, 95
8, 252480, Note_off_c, 13, 66, 95
8, 252480, Note_on_c, 13, 73, 95
8, 252960, Note_off_c, 13, 73, 95
8, 252960, Note_on_c, 13, 71, 95
8, 253440, Note_off_c, 13, 71, 95
8, 253440, Note_on_c, 13, 66, 95
8, 253920, Note_off_c, 13, 66, 95
8, 253920, Note_on_c, 13, 73, 95
8, 254400, Note_off_c, 13, 73, 95
8, 254400, Note_on_c, 13, 71, 95
8, 254880, Note_off_c, 13, 71, 95
8, 254880, Note_on_c, 13, 66, 95
8, 255360, Note_off_c, 13, 66, 95
8, 255360, Note_on_c, 13, 73, 95
8, 255840, Note_off_c, 13, 73, 95
8, 255840, Note_on_c, 13, 71, 95
8, 256320, Note_off_c, 13, 71, 95
8, 256320, Note_on_c, 13, 66, 95
8, 256800, Note_off_c, 13, 66, 95
8, 256800, Note_on_c, 13, 73, 95
8, 257280, Note_off_c, 13, 73, 95
8, 257280, Note_on_c, 13, 67, 95
8, 257760, Note_off_c, 13, 67, 95
8, 257760, Note_on_c, 13, 66, 95
8, 258240, Note_off_c, 13, 66, 95
8, 258240, Note_on_c, 13, 57, 95
8, 258720, Note_off_c, 13, 57, 95
8, 258720, Note_on_c, 13, 67, 95
8, 259200, Note_off_c, 13, 67, 95
8, 259200, Note_on_c, 13, 66, 95
8, 259680, Note_off_c, 13, 66, 95
8, 259680, Note_on_c, 13, 57, 95
8, 260160, Note_off_c, 13, 57, 95
8, 260160, Note_on_c, 13, 67, 95
8, 260640, Note_off_c, 13, 67, 95
8, 260640, Note_on_c, 13, 66, 95
8, 261120, Note_off_c, 13, 66, 95
8, 261120, Note_on_c, 13, 57, 95
8, 261600, Note_off_c, 13, 57, 95
8, 261600, Note_on_c, 13, 67, 95
8, 262080, Note_off_c, 13, 67, 95
8, 262080, Note_on_c, 13, 66, 95
8, 262560, Note_off_c, 13, 66, 95
8, 262560, Note_on_c, 13, 57, 95
8, 263040, Note_off_c, 13, 57, 95
8, 263040, Note_on_c, 13, 67, 95
8, 263520, Note_off_c, 13, 67, 95
8, 263520, Note_on_c, 13, 66, 95
8, 264000, Note_off_c, 13, 66, 95
8, 264000, Note_on_c, 13, 57, 95
8, 264960, Note_off_c, 13, 57, 95
8, 264960, Note_on_c, 13, 73, 95
8, 265440, Note_off_c, 13, 73, 95
8, 265440, Note_on_c, 13, 71, 95
8, 265920, Note_off_c, 13, 71, 95
8, 265920, Note_on_c, 13, 66, 95
8, 266400, Note_off_c, 13, 66, 95
8, 266400, Note_on_c, 13, 73, 95
8, 266880, Note_off_c, 13, 73, 95
8, 266880, Note_on_c, 13, 71, 95
8, 267360, Note_off_c, 13, 71, 95
8, 267360, Note_on_c, 13, 66, 95
8, 267840, Note_off_c, 13, 66, 95
8, 267840, Note_on_c, 13, 73, 95
8, 268320, Note_off_c, 13, 73, 95
8, 268320, Note_on_c, 13, 71, 95
8, 268800, Note_off_c, 13, 71, 95
8, 268800, Note_on_c, 13, 66, 95
8, 269280, Note_off_c, 13, 66, 95
8, 269280, Note_on_c, 13, 73, 95
8, 269760, Note_off_c, 13, 73, 95
8, 269760, Note_on_c, 13, 71, 95
8, 270240, Note_off_c, 13, 71, 95
8, 270240, Note_on_c, 13, 66, 95
8, 270720, Note_off_c, 13, 66, 95
8, 270720, Note_on_c, 13, 73, 95
8, 271200, Note_off_c, 13, 73, 95
8, 271200, Note_on_c, 13, 71, 95
8, 271680, Note_off_c, 13, 71, 95
8, 271680, Note_on_c, 13, 66, 95
8, 272160, Note_off_c, 13, 66, 95
8, 272160, Note_on_c, 13, 73, 95
8, 272640, Note_off_c, 13, 73, 95
8, 272640, Note_on_c, 13, 67, 95
8, 273120, Note_off_c, 13, 67, 95
8, 273120, Note_on_c, 13, 66, 95
8, 273600, Note_off_c, 13, 66, 95
8, 273600, Note_on_c, 13, 57, 95
8, 274080, Note_off_c, 13, 57, 95
8, 274080, Note_on_c, 13, 67, 95
8, 274560, Note_off_c, 13, 67, 95
8, 274560, Note_on_c, 13, 66, 95
8, 275040, Note_off_c, 13, 66, 95
8, 275040, Note_on_c, 13, 57, 95
8, 275520, Note_off_c, 13, 57, 95
8, 275520, Note_on_c, 13, 67, 95
8, 276000, Note_off_c, 13, 67, 95
8, 276000, Note_on_c, 13, 66, 95
8, 276480, Note_off_c, 13, 66, 95
8, 276480, Note_on_c, 13, 57, 95
8, 276960, Note_off_c, 13, 57, 95
8, 276960, Note_on_c, 13, 67, 95
8, 277440, Note_off_c, 13, 67, 95
8, 277440, Note_on_c, 13, 66, 95
8, 277920, Note_off_c, 13, 66, 95
8, 277920, Note_on_c, 13, 57, 95
8, 278400, Note_off_c, 13, 57, 95
8, 278400, Note_on_c, 13, 67, 95
8, 278880, Note_off_c, 13, 67, 95
8, 278880, Note_on_c, 13, 66, 95
8, 279360, Note_off_c, 13, 66, 95
8, 279360, Note_on_c, 13, 57, 95
8, 280320, Note_off_c, 13, 57, 95
8, 280320, End_track
9, 0, Start_track
9, 0, Pitch_bend_c, 15, 8192
9, 0, Control_c, 15, 7, 79
9, 0, Control_c, 15, 10, 63
9, 0, Control_c, 15, 93, 0
9, 0, Control_c, 15, 91, 0
9, 0, Control_c, 15, 95, 0
9, 0, Control_c, 15, 92, 0
9, 0, Control_c, 15, 11, 127
9, 0, Program_c, 15, 0
9, 0, Note_on_c, 15, 73, 95
9, 480, Note_off_c, 15, 73, 95
9, 480, Note_on_c, 15, 73, 95
9, 960, Note_off_c, 15, 73, 95
9, 960, Note_on_c, 15, 73, 95
9, 1440, Note_off_c, 15, 73, 95
9, 1440, Note_on_c, 15, 73, 95
9, 1920, Note_off_c, 15, 73, 95
9, 1920, Note_on_c, 15, 73, 95
9, 2400, Note_off_c, 15, 73, 95
9, 2400, Note_on_c, 15, 73, 95
9, 2880, Note_off_c, 15, 73, 95
9, 2880, Note_on_c, 15, 73, 95
9, 3360, Note_off_c, 15, 73, 95
9, 3360, Note_on_c, 15, 73, 95
9, 3840, Note_off_c, 15, 73, 95
9, 3840, Note_on_c, 15, 73, 95
9, 4320, Note_off_c, 15, 73, 95
9, 4320, Note_on_c, 15, 73, 95
9, 4800, Note_off_c, 15, 73, 95
9, 4800, Note_on_c, 15, 73, 95
9, 5280, Note_off_c, 15, 73, 95
9, 5280, Note_on_c, 15, 73, 95
9, 5760, Note_off_c, 15, 73, 95
9, 5760, Note_on_c, 15, 73, 95
9, 6240, Note_off_c, 15, 73, 95
9, 6240, Note_on_c, 15, 73, 95
9, 6720, Note_off_c, 15, 73, 95
9, 6720, Note_on_c, 15, 73, 95
9, 7200, Note_off_c, 15, 73, 95
9, 7200, Note_on_c, 15, 73, 95
9, 7680, Note_off_c, 15, 73, 95
9, 7680, Note_on_c, 15, 73, 95
9, 8160, Note_off_c, 15, 73, 95
9, 8160, Note_on_c, 15, 73, 95
9, 8640, Note_off_c, 15, 73, 95
9, 8640, Note_on_c, 15, 73, 95
9, 9120, Note_off_c, 15, 73, 95
9, 9120, Note_on_c, 15, 73, 95
9, 9600, Note_off_c, 15, 73, 95
9, 9600, Note_on_c, 15, 73, 95
9, 10080, Note_off_c, 15, 73, 95
9, 10080, Note_on_c, 15, 73, 95
9, 10560, Note_off_c, 15, 73, 95
9, 10560, Note_on_c, 15, 73, 95
9, 11040, Note_off_c, 15, 73, 95
9, 11040, Note_on_c, 15, 73, 95
9, 11520, Note_off_c, 15, 73, 95
9, 11520, Note_on_c, 15, 73, 95
9, 12000, Note_off_c, 15, 73, 95
9, 12000, Note_on_c, 15, 73, 95
9, 12480, Note_off_c, 15, 73, 95
9, 12480, Note_on_c, 15, 73, 95
9, 12960, Note_off_c, 15, 73, 95
9, 12960, Note_on_c, 15, 73, 95
9, 13440, Note_off_c, 15, 73, 95
9, 13440, Note_on_c, 15, 73, 95
9, 13920, Note_off_c, 15, 73, 95
9, 13920, Note_on_c, 15, 73, 95
9, 14400, Note_off_c, 15, 73, 95
9, 14400, Note_on_c, 15, 73, 95
9, 14880, Note_off_c, 15, 73, 95
9, 14880, Note_on_c, 15, 73, 95
9, 15360, Note_off_c, 15, 73, 95
9, 15360, Note_on_c, 15, 73, 95
9, 15840, Note_off_c, 15, 73, 95
9, 15840, Note_on_c, 15, 73, 95
9, 16320, Note_off_c, 15, 73, 95
9, 16320, Note_on_c, 15, 73, 95
9, 16800, Note_off_c, 15, 73, 95
9, 16800, Note_on_c, 15, 73, 95
9, 17280, Note_off_c, 15, 73, 95
9, 17280, Note_on_c, 15, 73, 95
9, 17760, Note_off_c, 15, 73, 95
9, 17760, Note_on_c, 15, 73, 95
9, 18240, Note_off_c, 15, 73, 95
9, 18240, Note_on_c, 15, 73, 95
9, 18720, Note_off_c, 15, 73, 95
9, 18720, Note_on_c, 15, 73, 95
9, 19200, Note_off_c, 15, 73, 95
9, 19200, Note_on_c, 15, 73, 95
9, 19680, Note_off_c, 15, 73, 95
9, 19680, Note_on_c, 15, 73, 95
9, 20160, Note_off_c, 15, 73, 95
9, 20160, Note_on_c, 15, 73, 95
9, 20640, Note_off_c, 15, 73, 95
9, 20640, Note_on_c, 15, 73, 95
9, 21120, Note_off_c, 15, 73, 95
9, 21120, Note_on_c, 15, 73, 95
9, 21600, Note_off_c, 15, 73, 95
9, 21600, Note_on_c, 15, 73, 95
9, 22080, Note_off_c, 15, 73, 95
9, 22080, Note_on_c, 15, 73, 95
9, 22560, Note_off_c, 15, 73, 95
9, 22560, Note_on_c, 15, 73, 95
9, 23040, Note_off_c, 15, 73, 95
9, 23040, Note_on_c, 15, 73, 95
9, 23520, Note_off_c, 15, 73, 95
9, 23520, Note_on_c, 15, 73, 95
9, 24000, Note_off_c, 15, 73, 95
9, 24000, Note_on_c, 15, 73, 95
9, 24480, Note_off_c, 15, 73, 95
9, 24480, Note_on_c, 15, 73, 95
9, 24960, Note_off_c, 15, 73, 95
9, 24960, Note_on_c, 15, 73, 95
9, 25440, Note_off_c, 15, 73, 95
9, 25440, Note_on_c, 15, 73, 95
9, 25920, Note_off_c, 15, 73, 95
9, 25920, Note_on_c, 15, 73, 95
9, 26400, Note_off_c, 15, 73, 95
9, 26400, Note_on_c, 15, 73, 95
9, 26880, Note_off_c, 15, 73, 95
9, 26880, Note_on_c, 15, 73, 95
9, 27360, Note_off_c, 15, 73, 95
9, 27360, Note_on_c, 15, 73, 95
9, 27840, Note_off_c, 15, 73, 95
9, 27840, Note_on_c, 15, 73, 95
9, 28320, Note_off_c, 15, 73, 95
9, 28320, Note_on_c, 15, 73, 95
9, 28800, Note_off_c, 15, 73, 95
9, 28800, Note_on_c, 15, 73, 95
9, 29280, Note_off_c, 15, 73, 95
9, 29280, Note_on_c, 15, 73, 95
9, 29760, Note_off_c, 15, 73, 95
9, 29760, Note_on_c, 15, 73, 95
9, 30240, Note_off_c, 15, 73, 95
9, 30240, Note_on_c, 15, 73, 95
9, 30720, Note_off_c, 15, 73, 95
9, 30720, Note_on_c, 15, 73, 95
9, 31200, Note_off_c, 15, 73, 95
9, 31200, Note_on_c, 15, 73, 95
9, 31680, Note_off_c, 15, 73, 95
9, 31680, Note_on_c, 15, 73, 95
9, 32160, Note_off_c, 15, 73, 95
9, 32160, Note_on_c, 15, 73, 95
9, 32640, Note_off_c, 15, 73, 95
9, 32640, Note_on_c, 15, 73, 95
9, 33120, Note_off_c, 15, 73, 95
9, 33120, Note_on_c, 15, 73, 95
9, 33600, Note_off_c, 15, 73, 95
9, 33600, Note_on_c, 15, 73, 95
9, 34080, Note_off_c, 15, 73, 95
9, 34080, Note_on_c, 15, 73, 95
9, 34560, Note_off_c, 15, 73, 95
9, 34560, Note_on_c, 15, 73, 95
9, 35040, Note_off_c, 15, 73, 95
9, 35040, Note_on_c, 15, 73, 95
9, 35520, Note_off_c, 15, 73, 95
9, 35520, Note_on_c, 15, 73, 95
9, 36000, Note_off_c, 15, 73, 95
9, 36000, Note_on_c, 15, 73, 95
9, 36480, Note_off_c, 15, 73, 95
9, 36480, Note_on_c, 15, 73, 95
9, 36960, Note_off_c, 15, 73, 95
9, 36960, Note_on_c, 15, 73, 95
9, 37440, Note_off_c, 15, 73, 95
9, 37440, Note_on_c, 15, 73, 95
9, 37920, Note_off_c, 15, 73, 95
9, 37920, Note_on_c, 15, 73, 95
9, 38400, Note_off_c, 15, 73, 95
9, 38400, Note_on_c, 15, 73, 95
9, 38880, Note_off_c, 15, 73, 95
9, 38880, Note_on_c, 15, 73, 95
9, 39360, Note_off_c, 15, 73, 95
9, 39360, Note_on_c, 15, 73, 95
9, 39840, Note_off_c, 15, 73, 95
9, 39840, Note_on_c, 15, 73, 95
9, 40320, Note_off_c, 15, 73, 95
9, 40320, Note_on_c, 15, 73, 95
9, 40800, Note_off_c, 15, 73, 95
9, 40800, Note_on_c, 15, 73, 95
9, 41280, Note_off_c, 15, 73, 95
9, 41280, Note_on_c, 15, 73, 95
9, 41760, Note_off_c, 15, 73, 95
9, 41760, Note_on_c, 15, 73, 95
9, 42240, Note_off_c, 15, 73, 95
9, 42240, Note_on_c, 15, 73, 95
9, 42720, Note_off_c, 15, 73, 95
9, 42720, Note_on_c, 15, 73, 95
9, 43200, Note_off_c, 15, 73, 95
9, 43200, Note_on_c, 15, 73, 95
9, 43680, Note_off_c, 15, 73, 95
9, 43680, Note_on_c, 15, 73, 95
9, 44160, Note_off_c, 15, 73, 95
9, 44160, Note_on_c, 15, 73, 95
9, 44640, Note_off_c, 15, 73, 95
9, 44640, Note_on_c, 15, 73, 95
9, 45120, Note_off_c, 15, 73, 95
9, 45120, Note_on_c, 15, 73, 95
9, 45600, Note_off_c, 15, 73, 95
9, 45600, Note_on_c, 15, 73, 95
9, 46080, Note_off_c, 15, 73, 95
9, 46080, Note_on_c, 15, 73, 95
9, 46560, Note_off_c, 15, 73, 95
9, 46560, Note_on_c, 15, 73, 95
9, 47040, Note_off_c, 15, 73, 95
9, 47040, Note_on_c, 15, 73, 95
9, 47520, Note_off_c, 15, 73, 95
9, 47520, Note_on_c, 15, 73, 95
9, 48000, Note_off_c, 15, 73, 95
9, 48000, Note_on_c, 15, 73, 95
9, 48480, Note_off_c, 15, 73, 95
9, 48480, Note_on_c, 15, 73, 95
9, 48960, Note_off_c, 15, 73, 95
9, 48960, Note_on_c, 15, 73, 95
9, 49440, Note_off_c, 15, 73, 95
9, 49440, Note_on_c, 15, 73, 95
9, 49920, Note_off_c, 15, 73, 95
9, 49920, Note_on_c, 15, 73, 95
9, 50400, Note_off_c, 15, 73, 95
9, 50400, Note_on_c, 15, 73, 95
9, 50880, Note_off_c, 15, 73, 95
9, 50880, Note_on_c, 15, 73, 95
9, 51360, Note_off_c, 15, 73, 95
9, 51360, Note_on_c, 15, 73, 95
9, 51840, Note_off_c, 15, 73, 95
9, 51840, Note_on_c, 15, 73, 95
9, 52320, Note_off_c, 15, 73, 95
9, 52320, Note_on_c, 15, 73, 95
9, 52800, Note_off_c, 15, 73, 95
9, 52800, Note_on_c, 15, 73, 95
9, 53280, Note_off_c, 15, 73, 95
9, 53280, Note_on_c, 15, 73, 95
9, 53760, Note_off_c, 15, 73, 95
9, 53760, Note_on_c, 15, 73, 95
9, 54240, Note_off_c, 15, 73, 95
9, 54240, Note_on_c, 15, 73, 95
9, 54720, Note_off_c, 15, 73, 95
9, 54720, Note_on_c, 15, 73, 95
9, 55200, Note_off_c, 15, 73, 95
9, 55200, Note_on_c, 15, 73, 95
9, 55680, Note_off_c, 15, 73, 95
9, 55680, Note_on_c, 15, 73, 95
9, 56160, Note_off_c, 15, 73, 95
9, 56160, Note_on_c, 15, 73, 95
9, 56640, Note_off_c, 15, 73, 95
9, 56640, Note_on_c, 15, 73, 95
9, 57120, Note_off_c, 15, 73, 95
9, 57120, Note_on_c, 15, 73, 95
9, 57600, Note_off_c, 15, 73, 95
9, 57600, Note_on_c, 15, 73, 95
9, 58080, Note_off_c, 15, 73, 95
9, 58080, Note_on_c, 15, 73, 95
9, 58560, Note_off_c, 15, 73, 95
9, 58560, Note_on_c, 15, 73, 95
9, 59040, Note_off_c, 15, 73, 95
9, 59040, Note_on_c, 15, 73, 95
9, 59520, Note_off_c, 15, 73, 95
9, 59520, Note_on_c, 15, 73, 95
9, 60000, Note_off_c, 15, 73, 95
9, 60000, Note_on_c, 15, 73, 95
9, 60480, Note_off_c, 15, 73, 95
9, 60480, Note_on_c, 15, 73, 95
9, 60960, Note_off_c, 15, 73, 95
9, 60960, Note_on_c, 15, 73, 95
9, 61440, Note_off_c, 15, 73, 95
9, 61440, Note_on_c, 15, 73, 95
9, 61920, Note_off_c, 15, 73, 95
9, 61920, Note_on_c, 15, 73, 95
9, 62400, Note_off_c, 15, 73, 95
9, 62400, Note_on_c, 15, 73, 95
9, 62880, Note_off_c, 15, 73, 95
9, 62880, Note_on_c, 15, 73, 95
9, 63360, Note_off_c, 15, 73, 95
9, 63360, Note_on_c, 15, 73, 95
9, 63840, Note_off_c, 15, 73, 95
9, 63840, Note_on_c, 15, 73, 95
9, 64320, Note_off_c, 15, 73, 95
9, 64320, Note_on_c, 15, 73, 95
9, 64800, Note_off_c, 15, 73, 95
9, 64800, Note_on_c, 15, 73, 95
9, 65280, Note_off_c, 15, 73, 95
9, 65280, Note_on_c, 15, 73, 95
9, 65760, Note_off_c, 15, 73, 95
9, 65760, Note_on_c, 15, 73, 95
9, 66240, Note_off_c, 15, 73, 95
9, 66240, Note_on_c, 15, 73, 95
9, 66720, Note_off_c, 15, 73, 95
9, 66720, Note_on_c, 15, 73, 95
9, 67200, Note_off_c, 15, 73, 95
9, 67200, Note_on_c, 15, 73, 95
9, 67680, Note_off_c, 15, 73, 95
9, 67680, Note_on_c, 15, 73, 95
9, 68160, Note_off_c, 15, 73, 95
9, 68160, Note_on_c, 15, 73, 95
9, 68640, Note_off_c, 15, 73, 95
9, 68640, Note_on_c, 15, 73, 95
9, 69120, Note_off_c, 15, 73, 95
9, 69120, Note_on_c, 15, 73, 95
9, 69600, Note_off_c, 15, 73, 95
9, 69600, Note_on_c, 15, 73, 95
9, 70080, Note_off_c, 15, 73, 95
9, 70080, Note_on_c, 15, 73, 95
9, 70560, Note_off_c, 15, 73, 95
9, 70560, Note_on_c, 15, 73, 95
9, 71040, Note_off_c, 15, 73, 95
9, 71040, Note_on_c, 15, 73, 95
9, 71520, Note_off_c, 15, 73, 95
9, 71520, Note_on_c, 15, 73, 95
9, 72000, Note_off_c, 15, 73, 95
9, 72000, Note_on_c, 15, 73, 95
9, 72480, Note_off_c, 15, 73, 95
9, 72480, Note_on_c, 15, 73, 95
9, 72960, Note_off_c, 15, 73, 95
9, 72960, Note_on_c, 15, 73, 95
9, 73440, Note_off_c, 15, 73, 95
9, 73440, Note_on_c, 15, 73, 95
9, 73920, Note_off_c, 15, 73, 95
9, 73920, Note_on_c, 15, 73, 95
9, 74400, Note_off_c, 15, 73, 95
9, 74400, Note_on_c, 15, 73, 95
9, 74880, Note_off_c, 15, 73, 95
9, 74880, Note_on_c, 15, 73, 95
9, 75360, Note_off_c, 15, 73, 95
9, 75360, Note_on_c, 15, 73, 95
9, 75840, Note_off_c, 15, 73, 95
9, 75840, Note_on_c, 15, 73, 95
9, 76320, Note_off_c, 15, 73, 95
9, 76320, Note_on_c, 15, 73, 95
9, 76800, Note_off_c, 15, 73, 95
9, 76800, Note_on_c, 15, 73, 95
9, 77280, Note_off_c, 15, 73, 95
9, 77280, Note_on_c, 15, 73, 95
9, 77760, Note_off_c, 15, 73, 95
9, 77760, Note_on_c, 15, 73, 95
9, 78240, Note_off_c, 15, 73, 95
9, 78240, Note_on_c, 15, 73, 95
9, 78720, Note_off_c, 15, 73, 95
9, 78720, Note_on_c, 15, 73, 95
9, 79200, Note_off_c, 15, 73, 95
9, 79200, Note_on_c, 15, 73, 95
9, 79680, Note_off_c, 15, 73, 95
9, 79680, Note_on_c, 15, 73, 95
9, 80160, Note_off_c, 15, 73, 95
9, 80160, Note_on_c, 15, 73, 95
9, 80640, Note_off_c, 15, 73, 95
9, 80640, Note_on_c, 15, 73, 95
9, 81120, Note_off_c, 15, 73, 95
9, 81120, Note_on_c, 15, 73, 95
9, 81600, Note_off_c, 15, 73, 95
9, 81600, Note_on_c, 15, 73, 95
9, 82080, Note_off_c, 15, 73, 95
9, 82080, Note_on_c, 15, 73, 95
9, 82560, Note_off_c, 15, 73, 95
9, 82560, Note_on_c, 15, 73, 95
9, 83040, Note_off_c, 15, 73, 95
9, 83040, Note_on_c, 15, 73, 95
9, 83520, Note_off_c, 15, 73, 95
9, 83520, Note_on_c, 15, 73, 95
9, 84000, Note_off_c, 15, 73, 95
9, 84000, Note_on_c, 15, 73, 95
9, 84480, Note_off_c, 15, 73, 95
9, 84480, Note_on_c, 15, 73, 95
9, 84960, Note_off_c, 15, 73, 95
9, 84960, Note_on_c, 15, 73, 95
9, 85440, Note_off_c, 15, 73, 95
9, 85440, Note_on_c, 15, 73, 95
9, 85920, Note_off_c, 15, 73, 95
9, 85920, Note_on_c, 15, 73, 95
9, 86400, Note_off_c, 15, 73, 95
9, 86400, Note_on_c, 15, 73, 95
9, 86880, Note_off_c, 15, 73, 95
9, 86880, Note_on_c, 15, 73, 95
9, 87360, Note_off_c, 15, 73, 95
9, 87360, Note_on_c, 15, 73, 95
9, 87840, Note_off_c, 15, 73, 95
9, 87840, Note_on_c, 15, 73, 95
9, 88320, Note_off_c, 15, 73, 95
9, 88320, Note_on_c, 15, 73, 95
9, 88800, Note_off_c, 15, 73, 95
9, 88800, Note_on_c, 15, 73, 95
9, 89280, Note_off_c, 15, 73, 95
9, 89280, Note_on_c, 15, 73, 95
9, 89760, Note_off_c, 15, 73, 95
9, 89760, Note_on_c, 15, 73, 95
9, 90240, Note_off_c, 15, 73, 95
9, 90240, Note_on_c, 15, 73, 95
9, 90720, Note_off_c, 15, 73, 95
9, 90720, Note_on_c, 15, 73, 95
9, 91200, Note_off_c, 15, 73, 95
9, 91200, Note_on_c, 15, 73, 95
9, 91680, Note_off_c, 15, 73, 95
9, 91680, Note_on_c, 15, 73, 95
9, 92160, Note_off_c, 15, 73, 95
9, 92160, Note_on_c, 15, 73, 95
9, 92640, Note_off_c, 15, 73, 95
9, 92640, Note_on_c, 15, 73, 95
9, 93120, Note_off_c, 15, 73, 95
9, 93120, Note_on_c, 15, 73, 95
9, 93600, Note_off_c, 15, 73, 95
9, 93600, Note_on_c, 15, 73, 95
9, 94080, Note_off_c, 15, 73, 95
9, 94080, Note_on_c, 15, 73, 95
9, 94560, Note_off_c, 15, 73, 95
9, 94560, Note_on_c, 15, 73, 95
9, 95040, Note_off_c, 15, 73, 95
9, 95040, Note_on_c, 15, 73, 95
9, 95520, Note_off_c, 15, 73, 95
9, 95520, Note_on_c, 15, 73, 95
9, 96000, Note_off_c, 15, 73, 95
9, 96000, Note_on_c, 15, 73, 95
9, 96480, Note_off_c, 15, 73, 95
9, 96480, Note_on_c, 15, 73, 95
9, 96960, Note_off_c, 15, 73, 95
9, 96960, Note_on_c, 15, 73, 95
9, 97440, Note_off_c, 15, 73, 95
9, 97440, Note_on_c, 15, 73, 95
9, 97920, Note_off_c, 15, 73, 95
9, 97920, Note_on_c, 15, 73, 95
9, 98400, Note_off_c, 15, 73, 95
9, 98400, Note_on_c, 15, 73, 95
9, 98880, Note_off_c, 15, 73, 95
9, 98880, Note_on_c, 15, 73, 95
9, 99360, Note_off_c, 15, 73, 95
9, 99360, Note_on_c, 15, 73, 95
9, 99840, Note_off_c, 15, 73, 95
9, 99840, Note_on_c, 15, 73, 95
9, 100320, Note_off_c, 15, 73, 95
9, 100320, Note_on_c, 15, 73, 95
9, 100800, Note_off_c, 15, 73, 95
9, 100800, Note_on_c, 15, 73, 95
9, 101280, Note_off_c, 15, 73, 95
9, 101280, Note_on_c, 15, 73, 95
9, 101760, Note_off_c, 15, 73, 95
9, 101760, Note_on_c, 15, 73, 95
9, 102240, Note_off_c, 15, 73, 95
9, 102240, Note_on_c, 15, 73, 95
9, 102720, Note_off_c, 15, 73, 95
9, 102720, Note_on_c, 15, 73, 95
9, 103200, Note_off_c, 15, 73, 95
9, 103200, Note_on_c, 15, 73, 95
9, 103680, Note_off_c, 15, 73, 95
9, 103680, Note_on_c, 15, 73, 95
9, 104160, Note_off_c, 15, 73, 95
9, 104160, Note_on_c, 15, 73, 95
9, 104640, Note_off_c, 15, 73, 95
9, 104640, Note_on_c, 15, 73, 95
9, 105120, Note_off_c, 15, 73, 95
9, 105120, Note_on_c, 15, 73, 95
9, 105600, Note_off_c, 15, 73, 95
9, 105600, Note_on_c, 15, 73, 95
9, 106080, Note_off_c, 15, 73, 95
9, 106080, Note_on_c, 15, 73, 95
9, 106560, Note_off_c, 15, 73, 95
9, 106560, Note_on_c, 15, 73, 95
9, 107040, Note_off_c, 15, 73, 95
9, 107040, Note_on_c, 15, 73, 95
9, 107520, Note_off_c, 15, 73, 95
9, 107520, Note_on_c, 15, 73, 95
9, 108000, Note_off_c, 15, 73, 95
9, 108000, Note_on_c, 15, 73, 95
9, 108480, Note_off_c, 15, 73, 95
9, 108480, Note_on_c, 15, 73, 95
9, 108960, Note_off_c, 15, 73, 95
9, 108960, Note_on_c, 15, 73, 95
9, 109440, Note_off_c, 15, 73, 95
9, 109440, Note_on_c, 15, 73, 95
9, 109920, Note_off_c, 15, 73, 95
9, 109920, Note_on_c, 15, 73, 95
9, 110400, Note_off_c, 15, 73, 95
9, 110400, Note_on_c, 15, 73, 95
9, 110880, Note_off_c, 15, 73, 95
9, 110880, Note_on_c, 15, 73, 95
9, 111360, Note_off_c, 15, 73, 95
9, 111360, Note_on_c, 15, 73, 95
9, 111840, Note_off_c, 15, 73, 95
9, 111840, Note_on_c, 15, 73, 95
9, 112320, Note_off_c, 15, 73, 95
9, 112320, Note_on_c, 15, 73, 95
9, 112800, Note_off_c, 15, 73, 95
9, 112800, Note_on_c, 15, 73, 95
9, 113280, Note_off_c, 15, 73, 95
9, 113280, Note_on_c, 15, 73, 95
9, 113760, Note_off_c, 15, 73, 95
9, 113760, Note_on_c, 15, 73, 95
9, 114240, Note_off_c, 15, 73, 95
9, 114240, Note_on_c, 15, 73, 95
9, 114720, Note_off_c, 15, 73, 95
9, 114720, Note_on_c, 15, 73, 95
9, 115200, Note_off_c, 15, 73, 95
9, 115200, Note_on_c, 15, 73, 95
9, 115680, Note_off_c, 15, 73, 95
9, 115680, Note_on_c, 15, 73, 95
9, 116160, Note_off_c, 15, 73, 95
9, 116160, Note_on_c, 15, 73, 95
9, 116640, Note_off_c, 15, 73, 95
9, 116640, Note_on_c, 15, 73, 95
9, 117120, Note_off_c, 15, 73, 95
9, 117120, Note_on_c, 15, 73, 95
9, 117600, Note_off_c, 15, 73, 95
9, 117600, Note_on_c, 15, 73, 95
9, 118080, Note_off_c, 15, 73, 95
9, 118080, Note_on_c, 15, 73, 95
9, 118560, Note_off_c, 15, 73, 95
9, 118560, Note_on_c, 15, 73, 95
9, 119040, Note_off_c, 15, 73, 95
9, 119040, Note_on_c, 15, 73, 95
9, 119520, Note_off_c, 15, 73, 95
9, 119520, Note_on_c, 15, 73, 95
9, 120000, Note_off_c, 15, 73, 95
9, 120000, Note_on_c, 15, 73, 95
9, 120480, Note_off_c, 15, 73, 95
9, 120480, Note_on_c, 15, 73, 95
9, 120960, Note_off_c, 15, 73, 95
9, 120960, Note_on_c, 15, 73, 95
9, 121440, Note_off_c, 15, 73, 95
9, 121440, Note_on_c, 15, 73, 95
9, 121920, Note_off_c, 15, 73, 95
9, 121920, Note_on_c, 15, 73, 95
9, 122400, Note_off_c, 15, 73, 95
9, 122400, Note_on_c, 15, 73, 95
9, 122880, Note_off_c, 15, 73, 95
9, 122880, Note_on_c, 15, 73, 95
9, 123360, Note_off_c, 15, 73, 95
9, 123360, Note_on_c, 15, 73, 95
9, 123840, Note_off_c, 15, 73, 95
9, 123840, Note_on_c, 15, 73, 95
9, 124320, Note_off_c, 15, 73, 95
9, 124320, Note_on_c, 15, 73, 95
9, 124800, Note_off_c, 15, 73, 95
9, 124800, Note_on_c, 15, 73, 95
9, 125280, Note_off_c, 15, 73, 95
9, 125280, Note_on_c, 15, 73, 95
9, 125760, Note_off_c, 15, 73, 95
9, 125760, Note_on_c, 15, 73, 95
9, 126240, Note_off_c, 15, 73, 95
9, 126240, Note_on_c, 15, 73, 95
9, 126720, Note_off_c, 15, 73, 95
9, 126720, Note_on_c, 15, 73, 95
9, 127200, Note_off_c, 15, 73, 95
9, 127200, Note_on_c, 15, 73, 95
9, 127680, Note_off_c, 15, 73, 95
9, 127680, Note_on_c, 15, 73, 95
9, 128160, Note_off_c, 15, 73, 95
9, 128160, Note_on_c, 15, 73, 95
9, 128640, Note_off_c, 15, 73, 95
9, 128640, Note_on_c, 15, 73, 95
9, 129120, Note_off_c, 15, 73, 95
9, 129120, Note_on_c, 15, 73, 95
9, 129600, Note_off_c, 15, 73, 95
9, 129600, Note_on_c, 15, 73, 95
9, 130080, Note_off_c, 15, 73, 95
9, 130080, Note_on_c, 15, 73, 95
9, 130560, Note_off_c, 15, 73, 95
9, 130560, Note_on_c, 15, 73, 95
9, 131040, Note_off_c, 15, 73, 95
9, 131040, Note_on_c, 15, 73, 95
9, 131520, Note_off_c, 15, 73, 95
9, 131520, Note_on_c, 15, 73, 95
9, 132000, Note_off_c, 15, 73, 95
9, 132000, Note_on_c, 15, 73, 95
9, 132480, Note_off_c, 15, 73, 95
9, 132480, Note_on_c, 15, 73, 95
9, 132960, Note_off_c, 15, 73, 95
9, 132960, Note_on_c, 15, 73, 95
9, 133440, Note_off_c, 15, 73, 95
9, 133440, Note_on_c, 15, 73, 95
9, 133920, Note_off_c, 15, 73, 95
9, 133920, Note_on_c, 15, 73, 95
9, 134400, Note_off_c, 15, 73, 95
9, 134400, Note_on_c, 15, 73, 95
9, 134880, Note_off_c, 15, 73, 95
9, 134880, Note_on_c, 15, 73, 95
9, 135360, Note_off_c, 15, 73, 95
9, 135360, Note_on_c, 15, 73, 95
9, 135840, Note_off_c, 15, 73, 95
9, 135840, Note_on_c, 15, 73, 95
9, 136320, Note_off_c, 15, 73, 95
9, 136320, Note_on_c, 15, 73, 95
9, 136800, Note_off_c, 15, 73, 95
9, 136800, Note_on_c, 15, 73, 95
9, 137280, Note_off_c, 15, 73, 95
9, 137280, Note_on_c, 15, 73, 95
9, 137760, Note_off_c, 15, 73, 95
9, 137760, Note_on_c, 15, 73, 95
9, 138240, Note_off_c, 15, 73, 95
9, 138240, Note_on_c, 15, 73, 95
9, 138720, Note_off_c, 15, 73, 95
9, 138720, Note_on_c, 15, 73, 95
9, 139200, Note_off_c, 15, 73, 95
9, 139200, Note_on_c, 15, 73, 95
9, 139680, Note_off_c, 15, 73, 95
9, 139680, Note_on_c, 15, 73, 95
9, 140160, Note_off_c, 15, 73, 95
9, 140160, Note_on_c, 15, 73, 95
9, 140640, Note_off_c, 15, 73, 95
9, 140640, Note_on_c, 15, 73, 95
9, 141120, Note_off_c, 15, 73, 95
9, 141120, Note_on_c, 15, 73, 95
9, 141600, Note_off_c, 15, 73, 95
9, 141600, Note_on_c, 15, 73, 95
9, 142080, Note_off_c, 15, 73, 95
9, 142080, Note_on_c, 15, 73, 95
9, 142560, Note_off_c, 15, 73, 95
9, 142560, Note_on_c, 15, 73, 95
9, 143040, Note_off_c, 15, 73, 95
9, 143040, Note_on_c, 15, 73, 95
9, 143520, Note_off_c, 15, 73, 95
9, 143520, Note_on_c, 15, 73, 95
9, 144000, Note_off_c, 15, 73, 95
9, 144000, Note_on_c, 15, 73, 95
9, 144480, Note_off_c, 15, 73, 95
9, 144480, Note_on_c, 15, 73, 95
9, 144960, Note_off_c, 15, 73, 95
9, 144960, Note_on_c, 15, 73, 95
9, 145440, Note_off_c, 15, 73, 95
9, 145440, Note_on_c, 15, 73, 95
9, 145920, Note_off_c, 15, 73, 95
9, 145920, Note_on_c, 15, 73, 95
9, 146400, Note_off_c, 15, 73, 95
9, 146400, Note_on_c, 15, 73, 95
9, 146880, Note_off_c, 15, 73, 95
9, 146880, Note_on_c, 15, 73, 95
9, 147360, Note_off_c, 15, 73, 95
9, 147360, Note_on_c, 15, 73, 95
9, 147840, Note_off_c, 15, 73, 95
9, 147840, Note_on_c, 15, 73, 95
9, 148320, Note_off_c, 15, 73, 95
9, 148320, Note_on_c, 15, 73, 95
9, 148800, Note_off_c, 15, 73, 95
9, 148800, Note_on_c, 15, 73, 95
9, 149280, Note_off_c, 15, 73, 95
9, 149280, Note_on_c, 15, 73, 95
9, 149760, Note_off_c, 15, 73, 95
9, 149760, Note_on_c, 15, 73, 95
9, 150240, Note_off_c, 15, 73, 95
9, 150240, Note_on_c, 15, 73, 95
9, 150720, Note_off_c, 15, 73, 95
9, 150720, Note_on_c, 15, 73, 95
9, 151200, Note_off_c, 15, 73, 95
9, 151200, Note_on_c, 15, 73, 95
9, 151680, Note_off_c, 15, 73, 95
9, 151680, Note_on_c, 15, 73, 95
9, 152160, Note_off_c, 15, 73, 95
9, 152160, Note_on_c, 15, 73, 95
9, 152640, Note_off_c, 15, 73, 95
9, 152640, Note_on_c, 15, 73, 95
9, 153120, Note_off_c, 15, 73, 95
9, 153120, Note_on_c, 15, 73, 95
9, 153600, Note_off_c, 15, 73, 95
9, 153600, Note_on_c, 15, 73, 95
9, 154080, Note_off_c, 15, 73, 95
9, 154080, Note_on_c, 15, 73, 95
9, 154560, Note_off_c, 15, 73, 95
9, 154560, Note_on_c, 15, 73, 95
9, 155040, Note_off_c, 15, 73, 95
9, 155040, Note_on_c, 15, 73, 95
9, 155520, Note_off_c, 15, 73, 95
9, 155520, Note_on_c, 15, 73, 95
9, 156000, Note_off_c, 15, 73, 95
9, 156000, Note_on_c, 15, 73, 95
9, 156480, Note_off_c, 15, 73, 95
9, 156480, Note_on_c, 15, 73, 95
9, 156960, Note_off_c, 15, 73, 95
9, 156960, Note_on_c, 15, 73, 95
9, 157440, Note_off_c, 15, 73, 95
9, 157440, Note_on_c, 15, 73, 95
9, 157920, Note_off_c, 15, 73, 95
9, 157920, Note_on_c, 15, 73, 95
9, 158400, Note_off_c, 15, 73, 95
9, 158400, Note_on_c, 15, 73, 95
9, 158880, Note_off_c, 15, 73, 95
9, 158880, Note_on_c, 15, 73, 95
9, 159360, Note_off_c, 15, 73, 95
9, 159360, Note_on_c, 15, 73, 95
9, 159840, Note_off_c, 15, 73, 95
9, 159840, Note_on_c, 15, 73, 95
9, 160320, Note_off_c, 15, 73, 95
9, 160320, Note_on_c, 15, 73, 95
9, 160800, Note_off_c, 15, 73, 95
9, 160800, Note_on_c, 15, 73, 95
9, 161280, Note_off_c, 15, 73, 95
9, 161280, Note_on_c, 15, 73, 95
9, 161760, Note_off_c, 15, 73, 95
9, 161760, Note_on_c, 15, 73, 95
9, 162240, Note_off_c, 15, 73, 95
9, 162240, Note_on_c, 15, 73, 95
9, 162720, Note_off_c, 15, 73, 95
9, 162720, Note_on_c, 15, 73, 95
9, 163200, Note_off_c, 15, 73, 95
9, 163200, Note_on_c, 15, 73, 95
9, 163680, Note_off_c, 15, 73, 95
9, 163680, Note_on_c, 15, 73, 95
9, 164160, Note_off_c, 15, 73, 95
9, 164160, Note_on_c, 15, 73, 95
9, 164640, Note_off_c, 15, 73, 95
9, 164640, Note_on_c, 15, 73, 95
9, 165120, Note_off_c, 15, 73, 95
9, 165120, Note_on_c, 15, 73, 95
9, 165600, Note_off_c, 15, 73, 95
9, 165600, Note_on_c, 15, 73, 95
9, 166080, Note_off_c, 15, 73, 95
9, 166080, Note_on_c, 15, 73, 95
9, 166560, Note_off_c, 15, 73, 95
9, 166560, Note_on_c, 15, 73, 95
9, 167040, Note_off_c, 15, 73, 95
9, 167040, Note_on_c, 15, 73, 95
9, 167520, Note_off_c, 15, 73, 95
9, 167520, Note_on_c, 15, 73, 95
9, 168000, Note_off_c, 15, 73, 95
9, 168000, Note_on_c, 15, 73, 95
9, 168480, Note_off_c, 15, 73, 95
9, 168480, Note_on_c, 15, 73, 95
9, 168960, Note_off_c, 15, 73, 95
9, 168960, Note_on_c, 15, 73, 95
9, 169440, Note_off_c, 15, 73, 95
9, 169440, Note_on_c, 15, 73, 95
9, 169920, Note_off_c, 15, 73, 95
9, 169920, Note_on_c, 15, 73, 95
9, 170400, Note_off_c, 15, 73, 95
9, 170400, Note_on_c, 15, 73, 95
9, 170880, Note_off_c, 15, 73, 95
9, 170880, Note_on_c, 15, 73, 95
9, 171360, Note_off_c, 15, 73, 95
9, 171360, Note_on_c, 15, 73, 95
9, 171840, Note_off_c, 15, 73, 95
9, 171840, Note_on_c, 15, 73, 95
9, 172320, Note_off_c, 15, 73, 95
9, 172320, Note_on_c, 15, 73, 95
9, 172800, Note_off_c, 15, 73, 95
9, 172800, Note_on_c, 15, 73, 95
9, 173280, Note_off_c, 15, 73, 95
9, 173280, Note_on_c, 15, 73, 95
9, 173760, Note_off_c, 15, 73, 95
9, 173760, Note_on_c, 15, 73, 95
9, 174240, Note_off_c, 15, 73, 95
9, 174240, Note_on_c, 15, 73, 95
9, 174720, Note_off_c, 15, 73, 95
9, 174720, Note_on_c, 15, 73, 95
9, 175200, Note_off_c, 15, 73, 95
9, 175200, Note_on_c, 15, 73, 95
9, 175680, Note_off_c, 15, 73, 95
9, 175680, Note_on_c, 15, 73, 95
9, 176160, Note_off_c, 15, 73, 95
9, 176160, Note_on_c, 15, 73, 95
9, 176640, Note_off_c, 15, 73, 95
9, 176640, Note_on_c, 15, 73, 95
9, 177120, Note_off_c, 15, 73, 95
9, 177120, Note_on_c, 15, 73, 95
9, 177600, Note_off_c, 15, 73, 95
9, 177600, Note_on_c, 15, 73, 95
9, 178080, Note_off_c, 15, 73, 95
9, 178080, Note_on_c, 15, 73, 95
9, 178560, Note_off_c, 15, 73, 95
9, 178560, Note_on_c, 15, 73, 95
9, 179040, Note_off_c, 15, 73, 95
9, 179040, Note_on_c, 15, 73, 95
9, 179520, Note_off_c, 15, 73, 95
9, 179520, Note_on_c, 15, 73, 95
9, 180000, Note_off_c, 15, 73, 95
9, 180000, Note_on_c, 15, 73, 95
9, 180480, Note_off_c, 15, 73, 95
9, 180480, Note_on_c, 15, 73, 95
9, 180960, Note_off_c, 15, 73, 95
9, 180960, Note_on_c, 15, 73, 95
9, 181440, Note_off_c, 15, 73, 95
9, 181440, Note_on_c, 15, 73, 95
9, 181920, Note_off_c, 15, 73, 95
9, 181920, Note_on_c, 15, 73, 95
9, 182400, Note_off_c, 15, 73, 95
9, 182400, Note_on_c, 15, 73, 95
9, 182880, Note_off_c, 15, 73, 95
9, 182880, Note_on_c, 15, 73, 95
9, 183360, Note_off_c, 15, 73, 95
9, 183360, Note_on_c, 15, 73, 95
9, 183840, Note_off_c, 15, 73, 95
9, 183840, Note_on_c, 15, 73, 95
9, 184320, Note_off_c, 15, 73, 95
9, 184320, Note_on_c, 15, 73, 95
9, 184800, Note_off_c, 15, 73, 95
9, 184800, Note_on_c, 15, 73, 95
9, 185280, Note_off_c, 15, 73, 95
9, 185280, Note_on_c, 15, 73, 95
9, 185760, Note_off_c, 15, 73, 95
9, 185760, Note_on_c, 15, 73, 95
9, 186240, Note_off_c, 15, 73, 95
9, 186240, Note_on_c, 15, 73, 95
9, 186720, Note_off_c, 15, 73, 95
9, 186720, Note_on_c, 15, 73, 95
9, 187200, Note_off_c, 15, 73, 95
9, 187200, Note_on_c, 15, 73, 95
9, 187680, Note_off_c, 15, 73, 95
9, 187680, Note_on_c, 15, 73, 95
9, 188160, Note_off_c, 15, 73, 95
9, 188160, Note_on_c, 15, 73, 95
9, 188640, Note_off_c, 15, 73, 95
9, 188640, Note_on_c, 15, 73, 95
9, 189120, Note_off_c, 15, 73, 95
9, 189120, Note_on_c, 15, 73, 95
9, 189600, Note_off_c, 15, 73, 95
9, 189600, Note_on_c, 15, 73, 95
9, 190080, Note_off_c, 15, 73, 95
9, 190080, Note_on_c, 15, 73, 95
9, 190560, Note_off_c, 15, 73, 95
9, 190560, Note_on_c, 15, 73, 95
9, 191040, Note_off_c, 15, 73, 95
9, 191040, Note_on_c, 15, 73, 95
9, 191520, Note_off_c, 15, 73, 95
9, 191520, Note_on_c, 15, 73, 95
9, 192000, Note_off_c, 15, 73, 95
9, 192000, Note_on_c, 15, 73, 95
9, 192480, Note_off_c, 15, 73, 95
9, 192480, Note_on_c, 15, 73, 95
9, 192960, Note_off_c, 15, 73, 95
9, 192960, Note_on_c, 15, 73, 95
9, 193440, Note_off_c, 15, 73, 95
9, 193440, Note_on_c, 15, 73, 95
9, 193920, Note_off_c, 15, 73, 95
9, 193920, Note_on_c, 15, 73, 95
9, 194400, Note_off_c, 15, 73, 95
9, 194400, Note_on_c, 15, 73, 95
9, 194880, Note_off_c, 15, 73, 95
9, 194880, Note_on_c, 15, 73, 95
9, 195360, Note_off_c, 15, 73, 95
9, 195360, Note_on_c, 15, 73, 95
9, 195840, Note_off_c, 15, 73, 95
9, 195840, Note_on_c, 15, 73, 95
9, 196320, Note_off_c, 15, 73, 95
9, 196320, Note_on_c, 15, 73, 95
9, 196800, Note_off_c, 15, 73, 95
9, 196800, Note_on_c, 15, 73, 95
9, 197280, Note_off_c, 15, 73, 95
9, 197280, Note_on_c, 15, 73, 95
9, 197760, Note_off_c, 15, 73, 95
9, 197760, Note_on_c, 15, 73, 95
9, 198240, Note_off_c, 15, 73, 95
9, 198240, Note_on_c, 15, 73, 95
9, 198720, Note_off_c, 15, 73, 95
9, 198720, Note_on_c, 15, 73, 95
9, 199200, Note_off_c, 15, 73, 95
9, 199200, Note_on_c, 15, 73, 95
9, 199680, Note_off_c, 15, 73, 95
9, 199680, Note_on_c, 15, 73, 95
9, 200160, Note_off_c, 15, 73, 95
9, 200160, Note_on_c, 15, 73, 95
9, 200640, Note_off_c, 15, 73, 95
9, 200640, Note_on_c, 15, 73, 95
9, 201120, Note_off_c, 15, 73, 95
9, 201120, Note_on_c, 15, 73, 95
9, 201600, Note_off_c, 15, 73, 95
9, 201600, Note_on_c, 15, 73, 95
9, 202080, Note_off_c, 15, 73, 95
9, 202080, Note_on_c, 15, 73, 95
9, 202560, Note_off_c, 15, 73, 95
9, 202560, Note_on_c, 15, 73, 95
9, 203040, Note_off_c, 15, 73, 95
9, 203040, Note_on_c, 15, 73, 95
9, 203520, Note_off_c, 15, 73, 95
9, 203520, Note_on_c, 15, 73, 95
9, 204000, Note_off_c, 15, 73, 95
9, 204000, Note_on_c, 15, 73, 95
9, 204480, Note_off_c, 15, 73, 95
9, 204480, Note_on_c, 15, 73, 95
9, 204960, Note_off_c, 15, 73, 95
9, 204960, Note_on_c, 15, 73, 95
9, 205440, Note_off_c, 15, 73, 95
9, 205440, Note_on_c, 15, 73, 95
9, 205920, Note_off_c, 15, 73, 95
9, 205920, Note_on_c, 15, 73, 95
9, 206400, Note_off_c, 15, 73, 95
9, 206400, Note_on_c, 15, 73, 95
9, 206880, Note_off_c, 15, 73, 95
9, 206880, Note_on_c, 15, 73, 95
9, 207360, Note_off_c, 15, 73, 95
9, 207360, Note_on_c, 15, 73, 95
9, 207840, Note_off_c, 15, 73, 95
9, 207840, Note_on_c, 15, 73, 95
9, 208320, Note_off_c, 15, 73, 95
9, 208320, Note_on_c, 15, 73, 95
9, 208800, Note_off_c, 15, 73, 95
9, 208800, Note_on_c, 15, 73, 95
9, 209280, Note_off_c, 15, 73, 95
9, 209280, Note_on_c, 15, 73, 95
9, 209760, Note_off_c, 15, 73, 95
9, 209760, Note_on_c, 15, 73, 95
9, 210240, Note_off_c, 15, 73, 95
9, 210240, Note_on_c, 15, 73, 95
9, 210720, Note_off_c, 15, 73, 95
9, 210720, Note_on_c, 15, 73, 95
9, 211200, Note_off_c, 15, 73, 95
9, 211200, Note_on_c, 15, 73, 95
9, 211680, Note_off_c, 15, 73, 95
9, 211680, Note_on_c, 15, 73, 95
9, 212160, Note_off_c, 15, 73, 95
9, 212160, Note_on_c, 15, 73, 95
9, 212640, Note_off_c, 15, 73, 95
9, 212640, Note_on_c, 15, 73, 95
9, 213120, Note_off_c, 15, 73, 95
9, 213120, Note_on_c, 15, 73, 95
9, 213600, Note_off_c, 15, 73, 95
9, 213600, Note_on_c, 15, 73, 95
9, 214080, Note_off_c, 15, 73, 95
9, 214080, Note_on_c, 15, 73, 95
9, 214560, Note_off_c, 15, 73, 95
9, 214560, Note_on_c, 15, 73, 95
9, 215040, Note_off_c, 15, 73, 95
9, 215040, Note_on_c, 15, 73, 95
9, 215520, Note_off_c, 15, 73, 95
9, 215520, Note_on_c, 15, 73, 95
9, 216000, Note_off_c, 15, 73, 95
9, 216000, Note_on_c, 15, 73, 95
9, 216480, Note_off_c, 15, 73, 95
9, 216480, Note_on_c, 15, 73, 95
9, 216960, Note_off_c, 15, 73, 95
9, 216960, Note_on_c, 15, 73, 95
9, 217440, Note_off_c, 15, 73, 95
9, 217440, Note_on_c, 15, 73, 95
9, 217920, Note_off_c, 15, 73, 95
9, 217920, Note_on_c, 15, 73, 95
9, 218400, Note_off_c, 15, 73, 95
9, 218400, Note_on_c, 15, 73, 95
9, 218880, Note_off_c, 15, 73, 95
9, 249600, Note_on_c, 15, 73, 95
9, 250080, Note_off_c, 15, 73, 95
9, 250080, Note_on_c, 15, 73, 95
9, 250560, Note_off_c, 15, 73, 95
9, 250560, Note_on_c, 15, 73, 95
9, 251040, Note_off_c, 15, 73, 95
9, 251040, Note_on_c, 15, 73, 95
9, 251520, Note_off_c, 15, 73, 95
9, 251520, Note_on_c, 15, 73, 95
9, 252000, Note_off_c, 15, 73, 95
9, 252000, Note_on_c, 15, 73, 95
9, 252480, Note_off_c, 15, 73, 95
9, 252480, Note_on_c, 15, 73, 95
9, 252960, Note_off_c, 15, 73, 95
9, 252960, Note_on_c, 15, 73, 95
9, 253440, Note_off_c, 15, 73, 95
9, 253440, Note_on_c, 15, 73, 95
9, 253920, Note_off_c, 15, 73, 95
9, 253920, Note_on_c, 15, 73, 95
9, 254400, Note_off_c, 15, 73, 95
9, 254400, Note_on_c, 15, 73, 95
9, 254880, Note_off_c, 15, 73, 95
9, 254880, Note_on_c, 15, 73, 95
9, 255360, Note_off_c, 15, 73, 95
9, 255360, Note_on_c, 15, 73, 95
9, 255840, Note_off_c, 15, 73, 95
9, 255840, Note_on_c, 15, 73, 95
9, 256320, Note_off_c, 15, 73, 95
9, 256320, Note_on_c, 15, 73, 95
9, 256800, Note_off_c, 15, 73, 95
9, 256800, Note_on_c, 15, 73, 95
9, 257280, Note_off_c, 15, 73, 95
9, 257280, Note_on_c, 15, 73, 95
9, 257760, Note_off_c, 15, 73, 95
9, 257760, Note_on_c, 15, 73, 95
9, 258240, Note_off_c, 15, 73, 95
9, 258240, Note_on_c, 15, 73, 95
9, 258720, Note_off_c, 15, 73, 95
9, 258720, Note_on_c, 15, 73, 95
9, 259200, Note_off_c, 15, 73, 95
9, 259200, Note_on_c, 15, 73, 95
9, 259680, Note_off_c, 15, 73, 95
9, 259680, Note_on_c, 15, 73, 95
9, 260160, Note_off_c, 15, 73, 95
9, 260160, Note_on_c, 15, 73, 95
9, 260640, Note_off_c, 15, 73, 95
9, 260640, Note_on_c, 15, 73, 95
9, 261120, Note_off_c, 15, 73, 95
9, 261120, Note_on_c, 15, 73, 95
9, 261600, Note_off_c, 15, 73, 95
9, 261600, Note_on_c, 15, 73, 95
9, 262080, Note_off_c, 15, 73, 95
9, 262080, Note_on_c, 15, 73, 95
9, 262560, Note_off_c, 15, 73, 95
9, 262560, Note_on_c, 15, 73, 95
9, 263040, Note_off_c, 15, 73, 95
9, 263040, Note_on_c, 15, 73, 95
9, 263520, Note_off_c, 15, 73, 95
9, 263520, Note_on_c, 15, 73, 95
9, 264000, Note_off_c, 15, 73, 95
9, 264000, Note_on_c, 15, 73, 95
9, 264480, Note_off_c, 15, 73, 95
9, 264480, Note_on_c, 15, 73, 95
9, 264960, Note_off_c, 15, 73, 95
9, 264960, Note_on_c, 15, 73, 95
9, 265440, Note_off_c, 15, 73, 95
9, 265440, Note_on_c, 15, 73, 95
9, 265920, Note_off_c, 15, 73, 95
9, 265920, Note_on_c, 15, 73, 95
9, 266400, Note_off_c, 15, 73, 95
9, 266400, Note_on_c, 15, 73, 95
9, 266880, Note_off_c, 15, 73, 95
9, 266880, Note_on_c, 15, 73, 95
9, 267360, Note_off_c, 15, 73, 95
9, 267360, Note_on_c, 15, 73, 95
9, 267840, Note_off_c, 15, 73, 95
9, 267840, Note_on_c, 15, 73, 95
9, 268320, Note_off_c, 15, 73, 95
9, 268320, Note_on_c, 15, 73, 95
9, 268800, Note_off_c, 15, 73, 95
9, 268800, Note_on_c, 15, 73, 95
9, 269280, Note_off_c, 15, 73, 95
9, 269280, Note_on_c, 15, 73, 95
9, 269760, Note_off_c, 15, 73, 95
9, 269760, Note_on_c, 15, 73, 95
9, 270240, Note_off_c, 15, 73, 95
9, 270240, Note_on_c, 15, 73, 95
9, 270720, Note_off_c, 15, 73, 95
9, 270720, Note_on_c, 15, 73, 95
9, 271200, Note_off_c, 15, 73, 95
9, 271200, Note_on_c, 15, 73, 95
9, 271680, Note_off_c, 15, 73, 95
9, 271680, Note_on_c, 15, 73, 95
9, 272160, Note_off_c, 15, 73, 95
9, 272160, Note_on_c, 15, 73, 95
9, 272640, Note_off_c, 15, 73, 95
9, 272640, Note_on_c, 15, 73, 95
9, 273120, Note_off_c, 15, 73, 95
9, 273120, Note_on_c, 15, 73, 95
9, 273600, Note_off_c, 15, 73, 95
9, 273600, Note_on_c, 15, 73, 95
9, 274080, Note_off_c, 15, 73, 95
9, 274080, Note_on_c, 15, 73, 95
9, 274560, Note_off_c, 15, 73, 95
9, 274560, Note_on_c, 15, 73, 95
9, 275040, Note_off_c, 15, 73, 95
9, 275040, Note_on_c, 15, 73, 95
9, 275520, Note_off_c, 15, 73, 95
9, 275520, Note_on_c, 15, 73, 95
9, 276000, Note_off_c, 15, 73, 95
9, 276000, Note_on_c, 15, 73, 95
9, 276480, Note_off_c, 15, 73, 95
9, 276480, Note_on_c, 15, 73, 95
9, 276960, Note_off_c, 15, 73, 95
9, 276960, Note_on_c, 15, 73, 95
9, 277440, Note_off_c, 15, 73, 95
9, 277440, Note_on_c, 15, 73, 95
9, 277920, Note_off_c, 15, 73, 95
9, 277920, Note_on_c, 15, 73, 95
9, 278400, Note_off_c, 15, 73, 95
9, 278400, Note_on_c, 15, 73, 95
9, 278880, Note_off_c, 15, 73, 95
9, 278880, Note_on_c, 15, 73, 95
9, 279360, Note_off_c, 15, 73, 95
9, 279360, Note_on_c, 15, 73, 95
9, 279840, Note_off_c, 15, 73, 95
9, 279840, Note_on_c, 15, 73, 95
9, 280320, Note_off_c, 15, 73, 95
9, 280320, End_track
10, 0, Start_track
10, 0, Pitch_bend_c, 9, 8192
10, 0, Control_c, 9, 7, 103
10, 0, Control_c, 9, 10, 63
10, 0, Control_c, 9, 93, 0
10, 0, Control_c, 9, 91, 0
10, 0, Control_c, 9, 95, 0
10, 0, Control_c, 9, 92, 0
10, 0, Control_c, 9, 11, 127
10, 0, Program_c, 9, 0
10, 0, Note_on_c, 9, 54, 95
10, 0, Note_on_c, 9, 37, 95
10, 480, Note_off_c, 9, 54, 95
10, 480, Note_off_c, 9, 37, 95
10, 480, Note_on_c, 9, 54, 95
10, 480, Note_on_c, 9, 37, 95
10, 960, Note_off_c, 9, 54, 95
10, 960, Note_off_c, 9, 37, 95
10, 960, Note_on_c, 9, 54, 95
10, 960, Note_on_c, 9, 31, 95
10, 1440, Note_off_c, 9, 54, 95
10, 1440, Note_off_c, 9, 31, 95
10, 1440, Note_on_c, 9, 54, 95
10, 1920, Note_off_c, 9, 54, 95
10, 1920, Note_on_c, 9, 54, 95
10, 2400, Note_off_c, 9, 54, 95
10, 2400, Note_on_c, 9, 54, 95
10, 2400, Note_on_c, 9, 37, 95
10, 2880, Note_off_c, 9, 54, 95
10, 2880, Note_off_c, 9, 37, 95
10, 2880, Note_on_c, 9, 54, 95
10, 2880, Note_on_c, 9, 31, 95
10, 3360, Note_off_c, 9, 54, 95
10, 3360, Note_off_c, 9, 31, 95
10, 3360, Note_on_c, 9, 54, 95
10, 3840, Note_off_c, 9, 54, 95
10, 3840, Note_on_c, 9, 54, 95
10, 3840, Note_on_c, 9, 37, 95
10, 4320, Note_off_c, 9, 54, 95
10, 4320, Note_off_c, 9, 37, 95
10, 4320, Note_on_c, 9, 54, 95
10, 4320, Note_on_c, 9, 37, 95
10, 4800, Note_off_c, 9, 54, 95
10, 4800, Note_off_c, 9, 37, 95
10, 4800, Note_on_c, 9, 54, 95
10, 4800, Note_on_c, 9, 31, 95
10, 5280, Note_off_c, 9, 54, 95
10, 5280, Note_off_c, 9, 31, 95
10, 5280, Note_on_c, 9, 54, 95
10, 5760, Note_off_c, 9, 54, 95
10, 5760, Note_on_c, 9, 54, 95
10, 6240, Note_off_c, 9, 54, 95
10, 6240, Note_on_c, 9, 54, 95
10, 6240, Note_on_c, 9, 37, 95
10, 6720, Note_off_c, 9, 54, 95
10, 6720, Note_off_c, 9, 37, 95
10, 6720, Note_on_c, 9, 54, 95
10, 6720, Note_on_c, 9, 31, 95
10, 7200, Note_off_c, 9, 54, 95
10, 7200, Note_off_c, 9, 31, 95
10, 7200, Note_on_c, 9, 54, 95
10, 7680, Note_off_c, 9, 54, 95
10, 7680, Note_on_c, 9, 54, 95
10, 7680, Note_on_c, 9, 37, 95
10, 8160, Note_off_c, 9, 54, 95
10, 8160, Note_off_c, 9, 37, 95
10, 8160, Note_on_c, 9, 54, 95
10, 8160, Note_on_c, 9, 37, 95
10, 8640, Note_off_c, 9, 54, 95
10, 8640, Note_off_c, 9, 37, 95
10, 8640, Note_on_c, 9, 54, 95
10, 8640, Note_on_c, 9, 31, 95
10, 9120, Note_off_c, 9, 54, 95
10, 9120, Note_off_c, 9, 31, 95
10, 9120, Note_on_c, 9, 54, 95
10, 9600, Note_off_c, 9, 54, 95
10, 9600, Note_on_c, 9, 54, 95
10, 10080, Note_off_c, 9, 54, 95
10, 10080, Note_on_c, 9, 54, 95
10, 10080, Note_on_c, 9, 37, 95
10, 10560, Note_off_c, 9, 54, 95
10, 10560, Note_off_c, 9, 37, 95
10, 10560, Note_on_c, 9, 54, 95
10, 10560, Note_on_c, 9, 31, 95
10, 11040, Note_off_c, 9, 54, 95
10, 11040, Note_off_c, 9, 31, 95
10, 11040, Note_on_c, 9, 54, 95
10, 11520, Note_off_c, 9, 54, 95
10, 11520, Note_on_c, 9, 54, 95
10, 11520, Note_on_c, 9, 37, 95
10, 12000, Note_off_c, 9, 54, 95
10, 12000, Note_off_c, 9, 37, 95
10, 12000, Note_on_c, 9, 54, 95
10, 12000, Note_on_c, 9, 37, 95
10, 12480, Note_off_c, 9, 54, 95
10, 12480, Note_off_c, 9, 37, 95
10, 12480, Note_on_c, 9, 54, 95
10, 12480, Note_on_c, 9, 31, 95
10, 12960, Note_off_c, 9, 54, 95
10, 12960, Note_off_c, 9, 31, 95
10, 12960, Note_on_c, 9, 54, 95
10, 13440, Note_off_c, 9, 54, 95
10, 13440, Note_on_c, 9, 54, 95
10, 13920, Note_off_c, 9, 54, 95
10, 13920, Note_on_c, 9, 54, 95
10, 13920, Note_on_c, 9, 37, 95
10, 14400, Note_off_c, 9, 54, 95
10, 14400, Note_off_c, 9, 37, 95
10, 14400, Note_on_c, 9, 54, 95
10, 14400, Note_on_c, 9, 31, 95
10, 14880, Note_off_c, 9, 54, 95
10, 14880, Note_off_c, 9, 31, 95
10, 14880, Note_on_c, 9, 54, 95
10, 15360, Note_off_c, 9, 54, 95
10, 15360, Note_on_c, 9, 54, 95
10, 15360, Note_on_c, 9, 37, 95
10, 15840, Note_off_c, 9, 54, 95
10, 15840, Note_off_c, 9, 37, 95
10, 15840, Note_on_c, 9, 54, 95
10, 15840, Note_on_c, 9, 37, 95
10, 16320, Note_off_c, 9, 54, 95
10, 16320, Note_off_c, 9, 37, 95
10, 16320, Note_on_c, 9, 54, 95
10, 16320, Note_on_c, 9, 31, 95
10, 16800, Note_off_c, 9, 54, 95
10, 16800, Note_off_c, 9, 31, 95
10, 16800, Note_on_c, 9, 54, 95
10, 17280, Note_off_c, 9, 54, 95
10, 17280, Note_on_c, 9, 54, 95
10, 17760, Note_off_c, 9, 54, 95
10, 17760, Note_on_c, 9, 54, 95
10, 17760, Note_on_c, 9, 37, 95
10, 18240, Note_off_c, 9, 54, 95
10, 18240, Note_off_c, 9, 37, 95
10, 18240, Note_on_c, 9, 54, 95
10, 18240, Note_on_c, 9, 31, 95
10, 18720, Note_off_c, 9, 54, 95
10, 18720, Note_off_c, 9, 31, 95
10, 18720, Note_on_c, 9, 54, 95
10, 19200, Note_off_c, 9, 54, 95
10, 19200, Note_on_c, 9, 54, 95
10, 19200, Note_on_c, 9, 37, 95
10, 19680, Note_off_c, 9, 54, 95
10, 19680, Note_off_c, 9, 37, 95
10, 19680, Note_on_c, 9, 54, 95
10, 19680, Note_on_c, 9, 37, 95
10, 20160, Note_off_c, 9, 54, 95
10, 20160, Note_off_c, 9, 37, 95
10, 20160, Note_on_c, 9, 54, 95
10, 20160, Note_on_c, 9, 31, 95
10, 20640, Note_off_c, 9, 54, 95
10, 20640, Note_off_c, 9, 31, 95
10, 20640, Note_on_c, 9, 54, 95
10, 21120, Note_off_c, 9, 54, 95
10, 21120, Note_on_c, 9, 54, 95
10, 21600, Note_off_c, 9, 54, 95
10, 21600, Note_on_c, 9, 54, 95
10, 21600, Note_on_c, 9, 37, 95
10, 22080, Note_off_c, 9, 54, 95
10, 22080, Note_off_c, 9, 37, 95
10, 22080, Note_on_c, 9, 54, 95
10, 22080, Note_on_c, 9, 31, 95
10, 22560, Note_off_c, 9, 54, 95
10, 22560, Note_off_c, 9, 31, 95
10, 22560, Note_on_c, 9, 54, 95
10, 23040, Note_off_c, 9, 54, 95
10, 23040, Note_on_c, 9, 54, 95
10, 23040, Note_on_c, 9, 37, 95
10, 23520, Note_off_c, 9, 54, 95
10, 23520, Note_off_c, 9, 37, 95
10, 23520, Note_on_c, 9, 54, 95
10, 23520, Note_on_c, 9, 37, 95
10, 24000, Note_off_c, 9, 54, 95
10, 24000, Note_off_c, 9, 37, 95
10, 24000, Note_on_c, 9, 54, 95
10, 24000, Note_on_c, 9, 31, 95
10, 24480, Note_off_c, 9, 54, 95
10, 24480, Note_off_c, 9, 31, 95
10, 24480, Note_on_c, 9, 54, 95
10, 24960, Note_off_c, 9, 54, 95
10, 24960, Note_on_c, 9, 54, 95
10, 25440, Note_off_c, 9, 54, 95
10, 25440, Note_on_c, 9, 54, 95
10, 25440, Note_on_c, 9, 37, 95
10, 25920, Note_off_c, 9, 54, 95
10, 25920, Note_off_c, 9, 37, 95
10, 25920, Note_on_c, 9, 54, 95
10, 25920, Note_on_c, 9, 31, 95
10, 26400, Note_off_c, 9, 54, 95
10, 26400, Note_off_c, 9, 31, 95
10, 26400, Note_on_c, 9, 54, 95
10, 26880, Note_off_c, 9, 54, 95
10, 26880, Note_on_c, 9, 54, 95
10, 26880, Note_on_c, 9, 37, 95
10, 27360, Note_off_c, 9, 54, 95
10, 27360, Note_off_c, 9, 37, 95
10, 27360, Note_on_c, 9, 54, 95
10, 27360, Note_on_c, 9, 37, 95
10, 27840, Note_off_c, 9, 54, 95
10, 27840, Note_off_c, 9, 37, 95
10, 27840, Note_on_c, 9, 54, 95
10, 27840, Note_on_c, 9, 31, 95
10, 28320, Note_off_c, 9, 54, 95
10, 28320, Note_off_c, 9, 31, 95
10, 28320, Note_on_c, 9, 54, 95
10, 28800, Note_off_c, 9, 54, 95
10, 28800, Note_on_c, 9, 54, 95
10, 29280, Note_off_c, 9, 54, 95
10, 29280, Note_on_c, 9, 54, 95
10, 29280, Note_on_c, 9, 37, 95
10, 29760, Note_off_c, 9, 54, 95
10, 29760, Note_off_c, 9, 37, 95
10, 29760, Note_on_c, 9, 54, 95
10, 29760, Note_on_c, 9, 31, 95
10, 30240, Note_off_c, 9, 54, 95
10, 30240, Note_off_c, 9, 31, 95
10, 30240, Note_on_c, 9, 54, 95
10, 30720, Note_off_c, 9, 54, 95
10, 30720, Note_on_c, 9, 54, 95
10, 30720, Note_on_c, 9, 37, 95
10, 31200, Note_off_c, 9, 54, 95
10, 31200, Note_off_c, 9, 37, 95
10, 31200, Note_on_c, 9, 54, 95
10, 31200, Note_on_c, 9, 37, 95
10, 31680, Note_off_c, 9, 54, 95
10, 31680, Note_off_c, 9, 37, 95
10, 31680, Note_on_c, 9, 54, 95
10, 31680, Note_on_c, 9, 31, 95
10, 32160, Note_off_c, 9, 54, 95
10, 32160, Note_off_c, 9, 31, 95
10, 32160, Note_on_c, 9, 54, 95
10, 32640, Note_off_c, 9, 54, 95
10, 32640, Note_on_c, 9, 54, 95
10, 33120, Note_off_c, 9, 54, 95
10, 33120, Note_on_c, 9, 54, 95
10, 33120, Note_on_c, 9, 37, 95
10, 33600, Note_off_c, 9, 54, 95
10, 33600, Note_off_c, 9, 37, 95
10, 33600, Note_on_c, 9, 54, 95
10, 33600, Note_on_c, 9, 31, 95
10, 34080, Note_off_c, 9, 54, 95
10, 34080, Note_off_c, 9, 31, 95
10, 34080, Note_on_c, 9, 54, 95
10, 34560, Note_off_c, 9, 54, 95
10, 34560, Note_on_c, 9, 54, 95
10, 34560, Note_on_c, 9, 37, 95
10, 35040, Note_off_c, 9, 54, 95
10, 35040, Note_off_c, 9, 37, 95
10, 35040, Note_on_c, 9, 54, 95
10, 35040, Note_on_c, 9, 37, 95
10, 35520, Note_off_c, 9, 54, 95
10, 35520, Note_off_c, 9, 37, 95
10, 35520, Note_on_c, 9, 54, 95
10, 35520, Note_on_c, 9, 31, 95
10, 36000, Note_off_c, 9, 54, 95
10, 36000, Note_off_c, 9, 31, 95
10, 36000, Note_on_c, 9, 54, 95
10, 36480, Note_off_c, 9, 54, 95
10, 36480, Note_on_c, 9, 54, 95
10, 36960, Note_off_c, 9, 54, 95
10, 36960, Note_on_c, 9, 54, 95
10, 36960, Note_on_c, 9, 37, 95
10, 37440, Note_off_c, 9, 54, 95
10, 37440, Note_off_c, 9, 37, 95
10, 37440, Note_on_c, 9, 54, 95
10, 37440, Note_on_c, 9, 31, 95
10, 37920, Note_off_c, 9, 54, 95
10, 37920, Note_off_c, 9, 31, 95
10, 37920, Note_on_c, 9, 54, 95
10, 38400, Note_off_c, 9, 54, 95
10, 38400, Note_on_c, 9, 54, 95
10, 38400, Note_on_c, 9, 37, 95
10, 38880, Note_off_c, 9, 54, 95
10, 38880, Note_off_c, 9, 37, 95
10, 38880, Note_on_c, 9, 54, 95
10, 38880, Note_on_c, 9, 37, 95
10, 39360, Note_off_c, 9, 54, 95
10, 39360, Note_off_c, 9, 37, 95
10, 39360, Note_on_c, 9, 54, 95
10, 39360, Note_on_c, 9, 31, 95
10, 39840, Note_off_c, 9, 54, 95
10, 39840, Note_off_c, 9, 31, 95
10, 39840, Note_on_c, 9, 54, 95
10, 40320, Note_off_c, 9, 54, 95
10, 40320, Note_on_c, 9, 54, 95
10, 40800, Note_off_c, 9, 54, 95
10, 40800, Note_on_c, 9, 54, 95
10, 40800, Note_on_c, 9, 37, 95
10, 41280, Note_off_c, 9, 54, 95
10, 41280, Note_off_c, 9, 37, 95
10, 41280, Note_on_c, 9, 54, 95
10, 41280, Note_on_c, 9, 31, 95
10, 41760, Note_off_c, 9, 54, 95
10, 41760, Note_off_c, 9, 31, 95
10, 41760, Note_on_c, 9, 54, 95
10, 42240, Note_off_c, 9, 54, 95
10, 42240, Note_on_c, 9, 54, 95
10, 42240, Note_on_c, 9, 37, 95
10, 42720, Note_off_c, 9, 54, 95
10, 42720, Note_off_c, 9, 37, 95
10, 42720, Note_on_c, 9, 54, 95
10, 42720, Note_on_c, 9, 37, 95
10, 43200, Note_off_c, 9, 54, 95
10, 43200, Note_off_c, 9, 37, 95
10, 43200, Note_on_c, 9, 54, 95
10, 43200, Note_on_c, 9, 31, 95
10, 43680, Note_off_c, 9, 54, 95
10, 43680, Note_off_c, 9, 31, 95
10, 43680, Note_on_c, 9, 54, 95
10, 44160, Note_off_c, 9, 54, 95
10, 44160, Note_on_c, 9, 54, 95
10, 44640, Note_off_c, 9, 54, 95
10, 44640, Note_on_c, 9, 54, 95
10, 44640, Note_on_c, 9, 37, 95
10, 45120, Note_off_c, 9, 54, 95
10, 45120, Note_off_c, 9, 37, 95
10, 45120, Note_on_c, 9, 54, 95
10, 45120, Note_on_c, 9, 31, 95
10, 45600, Note_off_c, 9, 54, 95
10, 45600, Note_off_c, 9, 31, 95
10, 45600, Note_on_c, 9, 54, 95
10, 46080, Note_off_c, 9, 54, 95
10, 46080, Note_on_c, 9, 54, 95
10, 46080, Note_on_c, 9, 37, 95
10, 46560, Note_off_c, 9, 54, 95
10, 46560, Note_off_c, 9, 37, 95
10, 46560, Note_on_c, 9, 54, 95
10, 46560, Note_on_c, 9, 37, 95
10, 47040, Note_off_c, 9, 54, 95
10, 47040, Note_off_c, 9, 37, 95
10, 47040, Note_on_c, 9, 54, 95
10, 47040, Note_on_c, 9, 31, 95
10, 47520, Note_off_c, 9, 54, 95
10, 47520, Note_off_c, 9, 31, 95
10, 47520, Note_on_c, 9, 54, 95
10, 48000, Note_off_c, 9, 54, 95
10, 48000, Note_on_c, 9, 54, 95
10, 48480, Note_off_c, 9, 54, 95
10, 48480, Note_on_c, 9, 54, 95
10, 48480, Note_on_c, 9, 37, 95
10, 48960, Note_off_c, 9, 54, 95
10, 48960, Note_off_c, 9, 37, 95
10, 48960, Note_on_c, 9, 54, 95
10, 48960, Note_on_c, 9, 31, 95
10, 49440, Note_off_c, 9, 54, 95
10, 49440, Note_off_c, 9, 31, 95
10, 49440, Note_on_c, 9, 54, 95
10, 49920, Note_off_c, 9, 54, 95
10, 49920, Note_on_c, 9, 54, 95
10, 49920, Note_on_c, 9, 37, 95
10, 50400, Note_off_c, 9, 54, 95
10, 50400, Note_off_c, 9, 37, 95
10, 50400, Note_on_c, 9, 54, 95
10, 50400, Note_on_c, 9, 37, 95
10, 50880, Note_off_c, 9, 54, 95
10, 50880, Note_off_c, 9, 37, 95
10, 50880, Note_on_c, 9, 54, 95
10, 50880, Note_on_c, 9, 31, 95
10, 51360, Note_off_c, 9, 54, 95
10, 51360, Note_off_c, 9, 31, 95
10, 51360, Note_on_c, 9, 54, 95
10, 51840, Note_off_c, 9, 54, 95
10, 51840, Note_on_c, 9, 54, 95
10, 52320, Note_off_c, 9, 54, 95
10, 52320, Note_on_c, 9, 54, 95
10, 52320, Note_on_c, 9, 37, 95
10, 52800, Note_off_c, 9, 54, 95
10, 52800, Note_off_c, 9, 37, 95
10, 52800, Note_on_c, 9, 54, 95
10, 52800, Note_on_c, 9, 31, 95
10, 53280, Note_off_c, 9, 54, 95
10, 53280, Note_off_c, 9, 31, 95
10, 53280, Note_on_c, 9, 54, 95
10, 53760, Note_off_c, 9, 54, 95
10, 53760, Note_on_c, 9, 54, 95
10, 53760, Note_on_c, 9, 37, 95
10, 54240, Note_off_c, 9, 54, 95
10, 54240, Note_off_c, 9, 37, 95
10, 54240, Note_on_c, 9, 54, 95
10, 54240, Note_on_c, 9, 37, 95
10, 54720, Note_off_c, 9, 54, 95
10, 54720, Note_off_c, 9, 37, 95
10, 54720, Note_on_c, 9, 54, 95
10, 54720, Note_on_c, 9, 31, 95
10, 55200, Note_off_c, 9, 54, 95
10, 55200, Note_off_c, 9, 31, 95
10, 55200, Note_on_c, 9, 54, 95
10, 55680, Note_off_c, 9, 54, 95
10, 55680, Note_on_c, 9, 54, 95
10, 56160, Note_off_c, 9, 54, 95
10, 56160, Note_on_c, 9, 54, 95
10, 56160, Note_on_c, 9, 37, 95
10, 56640, Note_off_c, 9, 54, 95
10, 56640, Note_off_c, 9, 37, 95
10, 56640, Note_on_c, 9, 54, 95
10, 56640, Note_on_c, 9, 31, 95
10, 57120, Note_off_c, 9, 54, 95
10, 57120, Note_off_c, 9, 31, 95
10, 57120, Note_on_c, 9, 54, 95
10, 57600, Note_off_c, 9, 54, 95
10, 57600, Note_on_c, 9, 54, 95
10, 57600, Note_on_c, 9, 37, 95
10, 58080, Note_off_c, 9, 54, 95
10, 58080, Note_off_c, 9, 37, 95
10, 58080, Note_on_c, 9, 54, 95
10, 58080, Note_on_c, 9, 37, 95
10, 58560, Note_off_c, 9, 54, 95
10, 58560, Note_off_c, 9, 37, 95
10, 58560, Note_on_c, 9, 54, 95
10, 58560, Note_on_c, 9, 31, 95
10, 59040, Note_off_c, 9, 54, 95
10, 59040, Note_off_c, 9, 31, 95
10, 59040, Note_on_c, 9, 54, 95
10, 59520, Note_off_c, 9, 54, 95
10, 59520, Note_on_c, 9, 54, 95
10, 60000, Note_off_c, 9, 54, 95
10, 60000, Note_on_c, 9, 54, 95
10, 60000, Note_on_c, 9, 37, 95
10, 60480, Note_off_c, 9, 54, 95
10, 60480, Note_off_c, 9, 37, 95
10, 60480, Note_on_c, 9, 54, 95
10, 60480, Note_on_c, 9, 31, 95
10, 60960, Note_off_c, 9, 54, 95
10, 60960, Note_off_c, 9, 31, 95
10, 60960, Note_on_c, 9, 54, 95
10, 61440, Note_off_c, 9, 54, 95
10, 61440, Note_on_c, 9, 54, 95
10, 61440, Note_on_c, 9, 37, 95
10, 61920, Note_off_c, 9, 54, 95
10, 61920, Note_off_c, 9, 37, 95
10, 61920, Note_on_c, 9, 54, 95
10, 61920, Note_on_c, 9, 37, 95
10, 62400, Note_off_c, 9, 54, 95
10, 62400, Note_off_c, 9, 37, 95
10, 62400, Note_on_c, 9, 54, 95
10, 62400, Note_on_c, 9, 31, 95
10, 62880, Note_off_c, 9, 54, 95
10, 62880, Note_off_c, 9, 31, 95
10, 62880, Note_on_c, 9, 54, 95
10, 63360, Note_off_c, 9, 54, 95
10, 63360, Note_on_c, 9, 54, 95
10, 63840, Note_off_c, 9, 54, 95
10, 63840, Note_on_c, 9, 54, 95
10, 63840, Note_on_c, 9, 37, 95
10, 64320, Note_off_c, 9, 54, 95
10, 64320, Note_off_c, 9, 37, 95
10, 64320, Note_on_c, 9, 54, 95
10, 64320, Note_on_c, 9, 31, 95
10, 64800, Note_off_c, 9, 54, 95
10, 64800, Note_off_c, 9, 31, 95
10, 64800, Note_on_c, 9, 54, 95
10, 65280, Note_off_c, 9, 54, 95
10, 65280, Note_on_c, 9, 54, 95
10, 65280, Note_on_c, 9, 37, 95
10, 65760, Note_off_c, 9, 54, 95
10, 65760, Note_off_c, 9, 37, 95
10, 65760, Note_on_c, 9, 54, 95
10, 65760, Note_on_c, 9, 37, 95
10, 66240, Note_off_c, 9, 54, 95
10, 66240, Note_off_c, 9, 37, 95
10, 66240, Note_on_c, 9, 54, 95
10, 66240, Note_on_c, 9, 31, 95
10, 66720, Note_off_c, 9, 54, 95
10, 66720, Note_off_c, 9, 31, 95
10, 66720, Note_on_c, 9, 54, 95
10, 67200, Note_off_c, 9, 54, 95
10, 67200, Note_on_c, 9, 54, 95
10, 67680, Note_off_c, 9, 54, 95
10, 67680, Note_on_c, 9, 54, 95
10, 67680, Note_on_c, 9, 37, 95
10, 68160, Note_off_c, 9, 54, 95
10, 68160, Note_off_c, 9, 37, 95
10, 68160, Note_on_c, 9, 54, 95
10, 68160, Note_on_c, 9, 31, 95
10, 68640, Note_off_c, 9, 54, 95
10, 68640, Note_off_c, 9, 31, 95
10, 68640, Note_on_c, 9, 54, 95
10, 69120, Note_off_c, 9, 54, 95
10, 69120, Note_on_c, 9, 54, 95
10, 69120, Note_on_c, 9, 37, 95
10, 69600, Note_off_c, 9, 54, 95
10, 69600, Note_off_c, 9, 37, 95
10, 69600, Note_on_c, 9, 54, 95
10, 69600, Note_on_c, 9, 37, 95
10, 70080, Note_off_c, 9, 54, 95
10, 70080, Note_off_c, 9, 37, 95
10, 70080, Note_on_c, 9, 54, 95
10, 70080, Note_on_c, 9, 31, 95
10, 70560, Note_off_c, 9, 54, 95
10, 70560, Note_off_c, 9, 31, 95
10, 70560, Note_on_c, 9, 54, 95
10, 71040, Note_off_c, 9, 54, 95
10, 71040, Note_on_c, 9, 54, 95
10, 71520, Note_off_c, 9, 54, 95
10, 71520, Note_on_c, 9, 54, 95
10, 71520, Note_on_c, 9, 37, 95
10, 72000, Note_off_c, 9, 54, 95
10, 72000, Note_off_c, 9, 37, 95
10, 72000, Note_on_c, 9, 54, 95
10, 72000, Note_on_c, 9, 31, 95
10, 72480, Note_off_c, 9, 54, 95
10, 72480, Note_off_c, 9, 31, 95
10, 72480, Note_on_c, 9, 54, 95
10, 72960, Note_off_c, 9, 54, 95
10, 72960, Note_on_c, 9, 54, 95
10, 72960, Note_on_c, 9, 37, 95
10, 73440, Note_off_c, 9, 54, 95
10, 73440, Note_off_c, 9, 37, 95
10, 73440, Note_on_c, 9, 54, 95
10, 73440, Note_on_c, 9, 37, 95
10, 73920, Note_off_c, 9, 54, 95
10, 73920, Note_off_c, 9, 37, 95
10, 73920, Note_on_c, 9, 54, 95
10, 73920, Note_on_c, 9, 31, 95
10, 74400, Note_off_c, 9, 54, 95
10, 74400, Note_off_c, 9, 31, 95
10, 74400, Note_on_c, 9, 54, 95
10, 74880, Note_off_c, 9, 54, 95
10, 74880, Note_on_c, 9, 54, 95
10, 75360, Note_off_c, 9, 54, 95
10, 75360, Note_on_c, 9, 54, 95
10, 75360, Note_on_c, 9, 37, 95
10, 75840, Note_off_c, 9, 54, 95
10, 75840, Note_off_c, 9, 37, 95
10, 75840, Note_on_c, 9, 54, 95
10, 75840, Note_on_c, 9, 31, 95
10, 76320, Note_off_c, 9, 54, 95
10, 76320, Note_off_c, 9, 31, 95
10, 76320, Note_on_c, 9, 54, 95
10, 76800, Note_off_c, 9, 54, 95
10, 76800, Note_on_c, 9, 54, 95
10, 76800, Note_on_c, 9, 37, 95
10, 77280, Note_off_c, 9, 54, 95
10, 77280, Note_off_c, 9, 37, 95
10, 77280, Note_on_c, 9, 54, 95
10, 77280, Note_on_c, 9, 37, 95
10, 77760, Note_off_c, 9, 54, 95
10, 77760, Note_off_c, 9, 37, 95
10, 77760, Note_on_c, 9, 54, 95
10, 77760, Note_on_c, 9, 31, 95
10, 78240, Note_off_c, 9, 54, 95
10, 78240, Note_off_c, 9, 31, 95
10, 78240, Note_on_c, 9, 54, 95
10, 78720, Note_off_c, 9, 54, 95
10, 78720, Note_on_c, 9, 54, 95
10, 79200, Note_off_c, 9, 54, 95
10, 79200, Note_on_c, 9, 54, 95
10, 79200, Note_on_c, 9, 37, 95
10, 79680, Note_off_c, 9, 54, 95
10, 79680, Note_off_c, 9, 37, 95
10, 79680, Note_on_c, 9, 54, 95
10, 79680, Note_on_c, 9, 31, 95
10, 80160, Note_off_c, 9, 54, 95
10, 80160, Note_off_c, 9, 31, 95
10, 80160, Note_on_c, 9, 54, 95
10, 80640, Note_off_c, 9, 54, 95
10, 80640, Note_on_c, 9, 54, 95
10, 80640, Note_on_c, 9, 37, 95
10, 81120, Note_off_c, 9, 54, 95
10, 81120, Note_off_c, 9, 37, 95
10, 81120, Note_on_c, 9, 54, 95
10, 81120, Note_on_c, 9, 37, 95
10, 81600, Note_off_c, 9, 54, 95
10, 81600, Note_off_c, 9, 37, 95
10, 81600, Note_on_c, 9, 54, 95
10, 81600, Note_on_c, 9, 31, 95
10, 82080, Note_off_c, 9, 54, 95
10, 82080, Note_off_c, 9, 31, 95
10, 82080, Note_on_c, 9, 54, 95
10, 82560, Note_off_c, 9, 54, 95
10, 82560, Note_on_c, 9, 54, 95
10, 83040, Note_off_c, 9, 54, 95
10, 83040, Note_on_c, 9, 54, 95
10, 83040, Note_on_c, 9, 37, 95
10, 83520, Note_off_c, 9, 54, 95
10, 83520, Note_off_c, 9, 37, 95
10, 83520, Note_on_c, 9, 54, 95
10, 83520, Note_on_c, 9, 31, 95
10, 84000, Note_off_c, 9, 54, 95
10, 84000, Note_off_c, 9, 31, 95
10, 84000, Note_on_c, 9, 54, 95
10, 84480, Note_off_c, 9, 54, 95
10, 84480, Note_on_c, 9, 54, 95
10, 84480, Note_on_c, 9, 37, 95
10, 84960, Note_off_c, 9, 54, 95
10, 84960, Note_off_c, 9, 37, 95
10, 84960, Note_on_c, 9, 54, 95
10, 84960, Note_on_c, 9, 37, 95
10, 85440, Note_off_c, 9, 54, 95
10, 85440, Note_off_c, 9, 37, 95
10, 85440, Note_on_c, 9, 54, 95
10, 85440, Note_on_c, 9, 31, 95
10, 85920, Note_off_c, 9, 54, 95
10, 85920, Note_off_c, 9, 31, 95
10, 85920, Note_on_c, 9, 54, 95
10, 86400, Note_off_c, 9, 54, 95
10, 86400, Note_on_c, 9, 54, 95
10, 86880, Note_off_c, 9, 54, 95
10, 86880, Note_on_c, 9, 54, 95
10, 86880, Note_on_c, 9, 37, 95
10, 87360, Note_off_c, 9, 54, 95
10, 87360, Note_off_c, 9, 37, 95
10, 87360, Note_on_c, 9, 54, 95
10, 87360, Note_on_c, 9, 31, 95
10, 87840, Note_off_c, 9, 54, 95
10, 87840, Note_off_c, 9, 31, 95
10, 87840, Note_on_c, 9, 54, 95
10, 88320, Note_off_c, 9, 54, 95
10, 88320, Note_on_c, 9, 54, 95
10, 88320, Note_on_c, 9, 37, 95
10, 88800, Note_off_c, 9, 54, 95
10, 88800, Note_off_c, 9, 37, 95
10, 88800, Note_on_c, 9, 54, 95
10, 88800, Note_on_c, 9, 37, 95
10, 89280, Note_off_c, 9, 54, 95
10, 89280, Note_off_c, 9, 37, 95
10, 89280, Note_on_c, 9, 54, 95
10, 89280, Note_on_c, 9, 31, 95
10, 89760, Note_off_c, 9, 54, 95
10, 89760, Note_off_c, 9, 31, 95
10, 89760, Note_on_c, 9, 54, 95
10, 90240, Note_off_c, 9, 54, 95
10, 90240, Note_on_c, 9, 54, 95
10, 90720, Note_off_c, 9, 54, 95
10, 90720, Note_on_c, 9, 54, 95
10, 90720, Note_on_c, 9, 37, 95
10, 91200, Note_off_c, 9, 54, 95
10, 91200, Note_off_c, 9, 37, 95
10, 91200, Note_on_c, 9, 54, 95
10, 91200, Note_on_c, 9, 31, 95
10, 91680, Note_off_c, 9, 54, 95
10, 91680, Note_off_c, 9, 31, 95
10, 91680, Note_on_c, 9, 54, 95
10, 92160, Note_off_c, 9, 54, 95
10, 92160, Note_on_c, 9, 54, 95
10, 92160, Note_on_c, 9, 37, 95
10, 92640, Note_off_c, 9, 54, 95
10, 92640, Note_off_c, 9, 37, 95
10, 92640, Note_on_c, 9, 54, 95
10, 92640, Note_on_c, 9, 37, 95
10, 93120, Note_off_c, 9, 54, 95
10, 93120, Note_off_c, 9, 37, 95
10, 93120, Note_on_c, 9, 54, 95
10, 93120, Note_on_c, 9, 31, 95
10, 93600, Note_off_c, 9, 54, 95
10, 93600, Note_off_c, 9, 31, 95
10, 93600, Note_on_c, 9, 54, 95
10, 94080, Note_off_c, 9, 54, 95
10, 94080, Note_on_c, 9, 54, 95
10, 94560, Note_off_c, 9, 54, 95
10, 94560, Note_on_c, 9, 54, 95
10, 94560, Note_on_c, 9, 37, 95
10, 95040, Note_off_c, 9, 54, 95
10, 95040, Note_off_c, 9, 37, 95
10, 95040, Note_on_c, 9, 54, 95
10, 95040, Note_on_c, 9, 31, 95
10, 95520, Note_off_c, 9, 54, 95
10, 95520, Note_off_c, 9, 31, 95
10, 95520, Note_on_c, 9, 54, 95
10, 96000, Note_off_c, 9, 54, 95
10, 96000, Note_on_c, 9, 54, 95
10, 96000, Note_on_c, 9, 37, 95
10, 96480, Note_off_c, 9, 54, 95
10, 96480, Note_off_c, 9, 37, 95
10, 96480, Note_on_c, 9, 54, 95
10, 96480, Note_on_c, 9, 37, 95
10, 96960, Note_off_c, 9, 54, 95
10, 96960, Note_off_c, 9, 37, 95
10, 96960, Note_on_c, 9, 54, 95
10, 96960, Note_on_c, 9, 31, 95
10, 97440, Note_off_c, 9, 54, 95
10, 97440, Note_off_c, 9, 31, 95
10, 97440, Note_on_c, 9, 54, 95
10, 97920, Note_off_c, 9, 54, 95
10, 97920, Note_on_c, 9, 54, 95
10, 98400, Note_off_c, 9, 54, 95
10, 98400, Note_on_c, 9, 54, 95
10, 98400, Note_on_c, 9, 37, 95
10, 98880, Note_off_c, 9, 54, 95
10, 98880, Note_off_c, 9, 37, 95
10, 98880, Note_on_c, 9, 54, 95
10, 98880, Note_on_c, 9, 31, 95
10, 99360, Note_off_c, 9, 54, 95
10, 99360, Note_off_c, 9, 31, 95
10, 99360, Note_on_c, 9, 54, 95
10, 99840, Note_off_c, 9, 54, 95
10, 99840, Note_on_c, 9, 54, 95
10, 99840, Note_on_c, 9, 37, 95
10, 100320, Note_off_c, 9, 54, 95
10, 100320, Note_off_c, 9, 37, 95
10, 100320, Note_on_c, 9, 54, 95
10, 100320, Note_on_c, 9, 37, 95
10, 100800, Note_off_c, 9, 54, 95
10, 100800, Note_off_c, 9, 37, 95
10, 100800, Note_on_c, 9, 54, 95
10, 100800, Note_on_c, 9, 31, 95
10, 101280, Note_off_c, 9, 54, 95
10, 101280, Note_off_c, 9, 31, 95
10, 101280, Note_on_c, 9, 54, 95
10, 101760, Note_off_c, 9, 54, 95
10, 101760, Note_on_c, 9, 54, 95
10, 102240, Note_off_c, 9, 54, 95
10, 102240, Note_on_c, 9, 54, 95
10, 102240, Note_on_c, 9, 37, 95
10, 102720, Note_off_c, 9, 54, 95
10, 102720, Note_off_c, 9, 37, 95
10, 102720, Note_on_c, 9, 54, 95
10, 102720, Note_on_c, 9, 31, 95
10, 103200, Note_off_c, 9, 54, 95
10, 103200, Note_off_c, 9, 31, 95
10, 103200, Note_on_c, 9, 54, 95
10, 103680, Note_off_c, 9, 54, 95
10, 103680, Note_on_c, 9, 54, 95
10, 103680, Note_on_c, 9, 37, 95
10, 104160, Note_off_c, 9, 54, 95
10, 104160, Note_off_c, 9, 37, 95
10, 104160, Note_on_c, 9, 54, 95
10, 104160, Note_on_c, 9, 37, 95
10, 104640, Note_off_c, 9, 54, 95
10, 104640, Note_off_c, 9, 37, 95
10, 104640, Note_on_c, 9, 54, 95
10, 104640, Note_on_c, 9, 31, 95
10, 105120, Note_off_c, 9, 54, 95
10, 105120, Note_off_c, 9, 31, 95
10, 105120, Note_on_c, 9, 54, 95
10, 105600, Note_off_c, 9, 54, 95
10, 105600, Note_on_c, 9, 54, 95
10, 106080, Note_off_c, 9, 54, 95
10, 106080, Note_on_c, 9, 54, 95
10, 106080, Note_on_c, 9, 37, 95
10, 106560, Note_off_c, 9, 54, 95
10, 106560, Note_off_c, 9, 37, 95
10, 106560, Note_on_c, 9, 54, 95
10, 106560, Note_on_c, 9, 31, 95
10, 107040, Note_off_c, 9, 54, 95
10, 107040, Note_off_c, 9, 31, 95
10, 107040, Note_on_c, 9, 54, 95
10, 107520, Note_off_c, 9, 54, 95
10, 107520, Note_on_c, 9, 54, 95
10, 107520, Note_on_c, 9, 37, 95
10, 108000, Note_off_c, 9, 54, 95
10, 108000, Note_off_c, 9, 37, 95
10, 108000, Note_on_c, 9, 54, 95
10, 108000, Note_on_c, 9, 37, 95
10, 108480, Note_off_c, 9, 54, 95
10, 108480, Note_off_c, 9, 37, 95
10, 108480, Note_on_c, 9, 54, 95
10, 108480, Note_on_c, 9, 31, 95
10, 108960, Note_off_c, 9, 54, 95
10, 108960, Note_off_c, 9, 31, 95
10, 108960, Note_on_c, 9, 54, 95
10, 109440, Note_off_c, 9, 54, 95
10, 109440, Note_on_c, 9, 54, 95
10, 109920, Note_off_c, 9, 54, 95
10, 109920, Note_on_c, 9, 54, 95
10, 109920, Note_on_c, 9, 37, 95
10, 110400, Note_off_c, 9, 54, 95
10, 110400, Note_off_c, 9, 37, 95
10, 110400, Note_on_c, 9, 54, 95
10, 110400, Note_on_c, 9, 31, 95
10, 110880, Note_off_c, 9, 54, 95
10, 110880, Note_off_c, 9, 31, 95
10, 110880, Note_on_c, 9, 54, 95
10, 111360, Note_off_c, 9, 54, 95
10, 111360, Note_on_c, 9, 54, 95
10, 111360, Note_on_c, 9, 37, 95
10, 111840, Note_off_c, 9, 54, 95
10, 111840, Note_off_c, 9, 37, 95
10, 111840, Note_on_c, 9, 54, 95
10, 111840, Note_on_c, 9, 37, 95
10, 112320, Note_off_c, 9, 54, 95
10, 112320, Note_off_c, 9, 37, 95
10, 112320, Note_on_c, 9, 54, 95
10, 112320, Note_on_c, 9, 31, 95
10, 112800, Note_off_c, 9, 54, 95
10, 112800, Note_off_c, 9, 31, 95
10, 112800, Note_on_c, 9, 54, 95
10, 113280, Note_off_c, 9, 54, 95
10, 113280, Note_on_c, 9, 54, 95
10, 113760, Note_off_c, 9, 54, 95
10, 113760, Note_on_c, 9, 54, 95
10, 113760, Note_on_c, 9, 37, 95
10, 114240, Note_off_c, 9, 54, 95
10, 114240, Note_off_c, 9, 37, 95
10, 114240, Note_on_c, 9, 54, 95
10, 114240, Note_on_c, 9, 31, 95
10, 114720, Note_off_c, 9, 54, 95
10, 114720, Note_off_c, 9, 31, 95
10, 114720, Note_on_c, 9, 54, 95
10, 115200, Note_off_c, 9, 54, 95
10, 115200, Note_on_c, 9, 54, 95
10, 115200, Note_on_c, 9, 37, 95
10, 115680, Note_off_c, 9, 54, 95
10, 115680, Note_off_c, 9, 37, 95
10, 115680, Note_on_c, 9, 54, 95
10, 115680, Note_on_c, 9, 37, 95
10, 116160, Note_off_c, 9, 54, 95
10, 116160, Note_off_c, 9, 37, 95
10, 116160, Note_on_c, 9, 54, 95
10, 116160, Note_on_c, 9, 31, 95
10, 116640, Note_off_c, 9, 54, 95
10, 116640, Note_off_c, 9, 31, 95
10, 116640, Note_on_c, 9, 54, 95
10, 117120, Note_off_c, 9, 54, 95
10, 117120, Note_on_c, 9, 54, 95
10, 117600, Note_off_c, 9, 54, 95
10, 117600, Note_on_c, 9, 54, 95
10, 117600, Note_on_c, 9, 37, 95
10, 118080, Note_off_c, 9, 54, 95
10, 118080, Note_off_c, 9, 37, 95
10, 118080, Note_on_c, 9, 54, 95
10, 118080, Note_on_c, 9, 31, 95
10, 118560, Note_off_c, 9, 54, 95
10, 118560, Note_off_c, 9, 31, 95
10, 118560, Note_on_c, 9, 54, 95
10, 119040, Note_off_c, 9, 54, 95
10, 119040, Note_on_c, 9, 54, 95
10, 119040, Note_on_c, 9, 37, 95
10, 119520, Note_off_c, 9, 54, 95
10, 119520, Note_off_c, 9, 37, 95
10, 119520, Note_on_c, 9, 54, 95
10, 119520, Note_on_c, 9, 37, 95
10, 120000, Note_off_c, 9, 54, 95
10, 120000, Note_off_c, 9, 37, 95
10, 120000, Note_on_c, 9, 54, 95
10, 120000, Note_on_c, 9, 31, 95
10, 120480, Note_off_c, 9, 54, 95
10, 120480, Note_off_c, 9, 31, 95
10, 120480, Note_on_c, 9, 54, 95
10, 120960, Note_off_c, 9, 54, 95
10, 120960, Note_on_c, 9, 54, 95
10, 121440, Note_off_c, 9, 54, 95
10, 121440, Note_on_c, 9, 54, 95
10, 121440, Note_on_c, 9, 37, 95
10, 121920, Note_off_c, 9, 54, 95
10, 121920, Note_off_c, 9, 37, 95
10, 121920, Note_on_c, 9, 54, 95
10, 121920, Note_on_c, 9, 31, 95
10, 122400, Note_off_c, 9, 54, 95
10, 122400, Note_off_c, 9, 31, 95
10, 122400, Note_on_c, 9, 54, 95
10, 122880, Note_off_c, 9, 54, 95
10, 122880, Note_on_c, 9, 54, 95
10, 122880, Note_on_c, 9, 37, 95
10, 123360, Note_off_c, 9, 54, 95
10, 123360, Note_off_c, 9, 37, 95
10, 123360, Note_on_c, 9, 54, 95
10, 123360, Note_on_c, 9, 37, 95
10, 123840, Note_off_c, 9, 54, 95
10, 123840, Note_off_c, 9, 37, 95
10, 123840, Note_on_c, 9, 54, 95
10, 123840, Note_on_c, 9, 31, 95
10, 124320, Note_off_c, 9, 54, 95
10, 124320, Note_off_c, 9, 31, 95
10, 124320, Note_on_c, 9, 54, 95
10, 124800, Note_off_c, 9, 54, 95
10, 124800, Note_on_c, 9, 54, 95
10, 125280, Note_off_c, 9, 54, 95
10, 125280, Note_on_c, 9, 54, 95
10, 125280, Note_on_c, 9, 37, 95
10, 125760, Note_off_c, 9, 54, 95
10, 125760, Note_off_c, 9, 37, 95
10, 125760, Note_on_c, 9, 54, 95
10, 125760, Note_on_c, 9, 31, 95
10, 126240, Note_off_c, 9, 54, 95
10, 126240, Note_off_c, 9, 31, 95
10, 126240, Note_on_c, 9, 54, 95
10, 126720, Note_off_c, 9, 54, 95
10, 126720, Note_on_c, 9, 54, 95
10, 126720, Note_on_c, 9, 37, 95
10, 127200, Note_off_c, 9, 54, 95
10, 127200, Note_off_c, 9, 37, 95
10, 127200, Note_on_c, 9, 54, 95
10, 127200, Note_on_c, 9, 37, 95
10, 127680, Note_off_c, 9, 54, 95
10, 127680, Note_off_c, 9, 37, 95
10, 127680, Note_on_c, 9, 54, 95
10, 127680, Note_on_c, 9, 31, 95
10, 128160, Note_off_c, 9, 54, 95
10, 128160, Note_off_c, 9, 31, 95
10, 128160, Note_on_c, 9, 54, 95
10, 128640, Note_off_c, 9, 54, 95
10, 128640, Note_on_c, 9, 54, 95
10, 129120, Note_off_c, 9, 54, 95
10, 129120, Note_on_c, 9, 54, 95
10, 129120, Note_on_c, 9, 37, 95
10, 129600, Note_off_c, 9, 54, 95
10, 129600, Note_off_c, 9, 37, 95
10, 129600, Note_on_c, 9, 54, 95
10, 129600, Note_on_c, 9, 31, 95
10, 130080, Note_off_c, 9, 54, 95
10, 130080, Note_off_c, 9, 31, 95
10, 130080, Note_on_c, 9, 54, 95
10, 130560, Note_off_c, 9, 54, 95
10, 130560, Note_on_c, 9, 54, 95
10, 130560, Note_on_c, 9, 37, 95
10, 131040, Note_off_c, 9, 54, 95
10, 131040, Note_off_c, 9, 37, 95
10, 131040, Note_on_c, 9, 54, 95
10, 131040, Note_on_c, 9, 37, 95
10, 131520, Note_off_c, 9, 54, 95
10, 131520, Note_off_c, 9, 37, 95
10, 131520, Note_on_c, 9, 54, 95
10, 131520, Note_on_c, 9, 31, 95
10, 132000, Note_off_c, 9, 54, 95
10, 132000, Note_off_c, 9, 31, 95
10, 132000, Note_on_c, 9, 54, 95
10, 132480, Note_off_c, 9, 54, 95
10, 132480, Note_on_c, 9, 54, 95
10, 132960, Note_off_c, 9, 54, 95
10, 132960, Note_on_c, 9, 54, 95
10, 132960, Note_on_c, 9, 37, 95
10, 133440, Note_off_c, 9, 54, 95
10, 133440, Note_off_c, 9, 37, 95
10, 133440, Note_on_c, 9, 54, 95
10, 133440, Note_on_c, 9, 31, 95
10, 133920, Note_off_c, 9, 54, 95
10, 133920, Note_off_c, 9, 31, 95
10, 133920, Note_on_c, 9, 54, 95
10, 134400, Note_off_c, 9, 54, 95
10, 134400, Note_on_c, 9, 54, 95
10, 134400, Note_on_c, 9, 37, 95
10, 134880, Note_off_c, 9, 54, 95
10, 134880, Note_off_c, 9, 37, 95
10, 134880, Note_on_c, 9, 54, 95
10, 134880, Note_on_c, 9, 37, 95
10, 135360, Note_off_c, 9, 54, 95
10, 135360, Note_off_c, 9, 37, 95
10, 135360, Note_on_c, 9, 54, 95
10, 135360, Note_on_c, 9, 31, 95
10, 135840, Note_off_c, 9, 54, 95
10, 135840, Note_off_c, 9, 31, 95
10, 135840, Note_on_c, 9, 54, 95
10, 136320, Note_off_c, 9, 54, 95
10, 136320, Note_on_c, 9, 54, 95
10, 136800, Note_off_c, 9, 54, 95
10, 136800, Note_on_c, 9, 54, 95
10, 136800, Note_on_c, 9, 37, 95
10, 137280, Note_off_c, 9, 54, 95
10, 137280, Note_off_c, 9, 37, 95
10, 137280, Note_on_c, 9, 54, 95
10, 137280, Note_on_c, 9, 31, 95
10, 137760, Note_off_c, 9, 54, 95
10, 137760, Note_off_c, 9, 31, 95
10, 137760, Note_on_c, 9, 54, 95
10, 138240, Note_off_c, 9, 54, 95
10, 138240, Note_on_c, 9, 54, 95
10, 138240, Note_on_c, 9, 37, 95
10, 138720, Note_off_c, 9, 54, 95
10, 138720, Note_off_c, 9, 37, 95
10, 138720, Note_on_c, 9, 54, 95
10, 138720, Note_on_c, 9, 37, 95
10, 139200, Note_off_c, 9, 54, 95
10, 139200, Note_off_c, 9, 37, 95
10, 139200, Note_on_c, 9, 54, 95
10, 139200, Note_on_c, 9, 31, 95
10, 139680, Note_off_c, 9, 54, 95
10, 139680, Note_off_c, 9, 31, 95
10, 139680, Note_on_c, 9, 54, 95
10, 140160, Note_off_c, 9, 54, 95
10, 140160, Note_on_c, 9, 54, 95
10, 140640, Note_off_c, 9, 54, 95
10, 140640, Note_on_c, 9, 54, 95
10, 140640, Note_on_c, 9, 37, 95
10, 141120, Note_off_c, 9, 54, 95
10, 141120, Note_off_c, 9, 37, 95
10, 141120, Note_on_c, 9, 54, 95
10, 141120, Note_on_c, 9, 31, 95
10, 141600, Note_off_c, 9, 54, 95
10, 141600, Note_off_c, 9, 31, 95
10, 141600, Note_on_c, 9, 54, 95
10, 142080, Note_off_c, 9, 54, 95
10, 142080, Note_on_c, 9, 54, 95
10, 142080, Note_on_c, 9, 37, 95
10, 142560, Note_off_c, 9, 54, 95
10, 142560, Note_off_c, 9, 37, 95
10, 142560, Note_on_c, 9, 54, 95
10, 142560, Note_on_c, 9, 37, 95
10, 143040, Note_off_c, 9, 54, 95
10, 143040, Note_off_c, 9, 37, 95
10, 143040, Note_on_c, 9, 54, 95
10, 143040, Note_on_c, 9, 31, 95
10, 143520, Note_off_c, 9, 54, 95
10, 143520, Note_off_c, 9, 31, 95
10, 143520, Note_on_c, 9, 54, 95
10, 144000, Note_off_c, 9, 54, 95
10, 144000, Note_on_c, 9, 54, 95
10, 144480, Note_off_c, 9, 54, 95
10, 144480, Note_on_c, 9, 54, 95
10, 144480, Note_on_c, 9, 37, 95
10, 144960, Note_off_c, 9, 54, 95
10, 144960, Note_off_c, 9, 37, 95
10, 144960, Note_on_c, 9, 54, 95
10, 144960, Note_on_c, 9, 31, 95
10, 145440, Note_off_c, 9, 54, 95
10, 145440, Note_off_c, 9, 31, 95
10, 145440, Note_on_c, 9, 54, 95
10, 145920, Note_off_c, 9, 54, 95
10, 145920, Note_on_c, 9, 54, 95
10, 145920, Note_on_c, 9, 37, 95
10, 146400, Note_off_c, 9, 54, 95
10, 146400, Note_off_c, 9, 37, 95
10, 146400, Note_on_c, 9, 54, 95
10, 146400, Note_on_c, 9, 37, 95
10, 146880, Note_off_c, 9, 54, 95
10, 146880, Note_off_c, 9, 37, 95
10, 146880, Note_on_c, 9, 54, 95
10, 146880, Note_on_c, 9, 31, 95
10, 147360, Note_off_c, 9, 54, 95
10, 147360, Note_off_c, 9, 31, 95
10, 147360, Note_on_c, 9, 54, 95
10, 147840, Note_off_c, 9, 54, 95
10, 147840, Note_on_c, 9, 54, 95
10, 148320, Note_off_c, 9, 54, 95
10, 148320, Note_on_c, 9, 54, 95
10, 148320, Note_on_c, 9, 37, 95
10, 148800, Note_off_c, 9, 54, 95
10, 148800, Note_off_c, 9, 37, 95
10, 148800, Note_on_c, 9, 54, 95
10, 148800, Note_on_c, 9, 31, 95
10, 149280, Note_off_c, 9, 54, 95
10, 149280, Note_off_c, 9, 31, 95
10, 149280, Note_on_c, 9, 54, 95
10, 149760, Note_off_c, 9, 54, 95
10, 149760, Note_on_c, 9, 54, 95
10, 149760, Note_on_c, 9, 37, 95
10, 150240, Note_off_c, 9, 54, 95
10, 150240, Note_off_c, 9, 37, 95
10, 150240, Note_on_c, 9, 54, 95
10, 150240, Note_on_c, 9, 37, 95
10, 150720, Note_off_c, 9, 54, 95
10, 150720, Note_off_c, 9, 37, 95
10, 150720, Note_on_c, 9, 54, 95
10, 150720, Note_on_c, 9, 31, 95
10, 151200, Note_off_c, 9, 54, 95
10, 151200, Note_off_c, 9, 31, 95
10, 151200, Note_on_c, 9, 54, 95
10, 151680, Note_off_c, 9, 54, 95
10, 151680, Note_on_c, 9, 54, 95
10, 152160, Note_off_c, 9, 54, 95
10, 152160, Note_on_c, 9, 54, 95
10, 152160, Note_on_c, 9, 37, 95
10, 152640, Note_off_c, 9, 54, 95
10, 152640, Note_off_c, 9, 37, 95
10, 152640, Note_on_c, 9, 54, 95
10, 152640, Note_on_c, 9, 31, 95
10, 153120, Note_off_c, 9, 54, 95
10, 153120, Note_off_c, 9, 31, 95
10, 153120, Note_on_c, 9, 54, 95
10, 153600, Note_off_c, 9, 54, 95
10, 153600, Note_on_c, 9, 54, 95
10, 153600, Note_on_c, 9, 37, 95
10, 154080, Note_off_c, 9, 54, 95
10, 154080, Note_off_c, 9, 37, 95
10, 154080, Note_on_c, 9, 54, 95
10, 154080, Note_on_c, 9, 37, 95
10, 154560, Note_off_c, 9, 54, 95
10, 154560, Note_off_c, 9, 37, 95
10, 154560, Note_on_c, 9, 54, 95
10, 154560, Note_on_c, 9, 31, 95
10, 155040, Note_off_c, 9, 54, 95
10, 155040, Note_off_c, 9, 31, 95
10, 155040, Note_on_c, 9, 54, 95
10, 155520, Note_off_c, 9, 54, 95
10, 155520, Note_on_c, 9, 54, 95
10, 156000, Note_off_c, 9, 54, 95
10, 156000, Note_on_c, 9, 54, 95
10, 156000, Note_on_c, 9, 37, 95
10, 156480, Note_off_c, 9, 54, 95
10, 156480, Note_off_c, 9, 37, 95
10, 156480, Note_on_c, 9, 54, 95
10, 156480, Note_on_c, 9, 31, 95
10, 156960, Note_off_c, 9, 54, 95
10, 156960, Note_off_c, 9, 31, 95
10, 156960, Note_on_c, 9, 54, 95
10, 157440, Note_off_c, 9, 54, 95
10, 157440, Note_on_c, 9, 54, 95
10, 157440, Note_on_c, 9, 37, 95
10, 157920, Note_off_c, 9, 54, 95
10, 157920, Note_off_c, 9, 37, 95
10, 157920, Note_on_c, 9, 54, 95
10, 157920, Note_on_c, 9, 37, 95
10, 158400, Note_off_c, 9, 54, 95
10, 158400, Note_off_c, 9, 37, 95
10, 158400, Note_on_c, 9, 54, 95
10, 158400, Note_on_c, 9, 31, 95
10, 158880, Note_off_c, 9, 54, 95
10, 158880, Note_off_c, 9, 31, 95
10, 158880, Note_on_c, 9, 54, 95
10, 159360, Note_off_c, 9, 54, 95
10, 159360, Note_on_c, 9, 54, 95
10, 159840, Note_off_c, 9, 54, 95
10, 159840, Note_on_c, 9, 54, 95
10, 159840, Note_on_c, 9, 37, 95
10, 160320, Note_off_c, 9, 54, 95
10, 160320, Note_off_c, 9, 37, 95
10, 160320, Note_on_c, 9, 54, 95
10, 160320, Note_on_c, 9, 31, 95
10, 160800, Note_off_c, 9, 54, 95
10, 160800, Note_off_c, 9, 31, 95
10, 160800, Note_on_c, 9, 54, 95
10, 161280, Note_off_c, 9, 54, 95
10, 161280, Note_on_c, 9, 54, 95
10, 161280, Note_on_c, 9, 37, 95
10, 161760, Note_off_c, 9, 54, 95
10, 161760, Note_off_c, 9, 37, 95
10, 161760, Note_on_c, 9, 54, 95
10, 161760, Note_on_c, 9, 37, 95
10, 162240, Note_off_c, 9, 54, 95
10, 162240, Note_off_c, 9, 37, 95
10, 162240, Note_on_c, 9, 54, 95
10, 162240, Note_on_c, 9, 31, 95
10, 162720, Note_off_c, 9, 54, 95
10, 162720, Note_off_c, 9, 31, 95
10, 162720, Note_on_c, 9, 54, 95
10, 163200, Note_off_c, 9, 54, 95
10, 163200, Note_on_c, 9, 54, 95
10, 163680, Note_off_c, 9, 54, 95
10, 163680, Note_on_c, 9, 54, 95
10, 163680, Note_on_c, 9, 37, 95
10, 164160, Note_off_c, 9, 54, 95
10, 164160, Note_off_c, 9, 37, 95
10, 164160, Note_on_c, 9, 54, 95
10, 164160, Note_on_c, 9, 31, 95
10, 164640, Note_off_c, 9, 54, 95
10, 164640, Note_off_c, 9, 31, 95
10, 164640, Note_on_c, 9, 54, 95
10, 165120, Note_off_c, 9, 54, 95
10, 165120, Note_on_c, 9, 54, 95
10, 165120, Note_on_c, 9, 37, 95
10, 165600, Note_off_c, 9, 54, 95
10, 165600, Note_off_c, 9, 37, 95
10, 165600, Note_on_c, 9, 54, 95
10, 165600, Note_on_c, 9, 37, 95
10, 166080, Note_off_c, 9, 54, 95
10, 166080, Note_off_c, 9, 37, 95
10, 166080, Note_on_c, 9, 54, 95
10, 166080, Note_on_c, 9, 31, 95
10, 166560, Note_off_c, 9, 54, 95
10, 166560, Note_off_c, 9, 31, 95
10, 166560, Note_on_c, 9, 54, 95
10, 167040, Note_off_c, 9, 54, 95
10, 167040, Note_on_c, 9, 54, 95
10, 167520, Note_off_c, 9, 54, 95
10, 167520, Note_on_c, 9, 54, 95
10, 167520, Note_on_c, 9, 37, 95
10, 168000, Note_off_c, 9, 54, 95
10, 168000, Note_off_c, 9, 37, 95
10, 168000, Note_on_c, 9, 54, 95
10, 168000, Note_on_c, 9, 31, 95
10, 168480, Note_off_c, 9, 54, 95
10, 168480, Note_off_c, 9, 31, 95
10, 168480, Note_on_c, 9, 54, 95
10, 168960, Note_off_c, 9, 54, 95
10, 168960, Note_on_c, 9, 54, 95
10, 168960, Note_on_c, 9, 37, 95
10, 169440, Note_off_c, 9, 54, 95
10, 169440, Note_off_c, 9, 37, 95
10, 169440, Note_on_c, 9, 54, 95
10, 169440, Note_on_c, 9, 37, 95
10, 169920, Note_off_c, 9, 54, 95
10, 169920, Note_off_c, 9, 37, 95
10, 169920, Note_on_c, 9, 54, 95
10, 169920, Note_on_c, 9, 31, 95
10, 170400, Note_off_c, 9, 54, 95
10, 170400, Note_off_c, 9, 31, 95
10, 170400, Note_on_c, 9, 54, 95
10, 170880, Note_off_c, 9, 54, 95
10, 170880, Note_on_c, 9, 54, 95
10, 171360, Note_off_c, 9, 54, 95
10, 171360, Note_on_c, 9, 54, 95
10, 171360, Note_on_c, 9, 37, 95
10, 171840, Note_off_c, 9, 54, 95
10, 171840, Note_off_c, 9, 37, 95
10, 171840, Note_on_c, 9, 54, 95
10, 171840, Note_on_c, 9, 31, 95
10, 172320, Note_off_c, 9, 54, 95
10, 172320, Note_off_c, 9, 31, 95
10, 172320, Note_on_c, 9, 54, 95
10, 172800, Note_off_c, 9, 54, 95
10, 172800, Note_on_c, 9, 54, 95
10, 172800, Note_on_c, 9, 37, 95
10, 173280, Note_off_c, 9, 54, 95
10, 173280, Note_off_c, 9, 37, 95
10, 173280, Note_on_c, 9, 54, 95
10, 173280, Note_on_c, 9, 37, 95
10, 173760, Note_off_c, 9, 54, 95
10, 173760, Note_off_c, 9, 37, 95
10, 173760, Note_on_c, 9, 54, 95
10, 173760, Note_on_c, 9, 31, 95
10, 174240, Note_off_c, 9, 54, 95
10, 174240, Note_off_c, 9, 31, 95
10, 174240, Note_on_c, 9, 54, 95
10, 174720, Note_off_c, 9, 54, 95
10, 174720, Note_on_c, 9, 54, 95
10, 175200, Note_off_c, 9, 54, 95
10, 175200, Note_on_c, 9, 54, 95
10, 175200, Note_on_c, 9, 37, 95
10, 175680, Note_off_c, 9, 54, 95
10, 175680, Note_off_c, 9, 37, 95
10, 175680, Note_on_c, 9, 54, 95
10, 175680, Note_on_c, 9, 31, 95
10, 176160, Note_off_c, 9, 54, 95
10, 176160, Note_off_c, 9, 31, 95
10, 176160, Note_on_c, 9, 54, 95
10, 176640, Note_off_c, 9, 54, 95
10, 176640, Note_on_c, 9, 54, 95
10, 176640, Note_on_c, 9, 37, 95
10, 177120, Note_off_c, 9, 54, 95
10, 177120, Note_off_c, 9, 37, 95
10, 177120, Note_on_c, 9, 54, 95
10, 177120, Note_on_c, 9, 37, 95
10, 177600, Note_off_c, 9, 54, 95
10, 177600, Note_off_c, 9, 37, 95
10, 177600, Note_on_c, 9, 54, 95
10, 177600, Note_on_c, 9, 31, 95
10, 178080, Note_off_c, 9, 54, 95
10, 178080, Note_off_c, 9, 31, 95
10, 178080, Note_on_c, 9, 54, 95
10, 178560, Note_off_c, 9, 54, 95
10, 178560, Note_on_c, 9, 54, 95
10, 179040, Note_off_c, 9, 54, 95
10, 179040, Note_on_c, 9, 54, 95
10, 179040, Note_on_c, 9, 37, 95
10, 179520, Note_off_c, 9, 54, 95
10, 179520, Note_off_c, 9, 37, 95
10, 179520, Note_on_c, 9, 54, 95
10, 179520, Note_on_c, 9, 31, 95
10, 180000, Note_off_c, 9, 54, 95
10, 180000, Note_off_c, 9, 31, 95
10, 180000, Note_on_c, 9, 54, 95
10, 180480, Note_off_c, 9, 54, 95
10, 180480, Note_on_c, 9, 54, 95
10, 180480, Note_on_c, 9, 37, 95
10, 180960, Note_off_c, 9, 54, 95
10, 180960, Note_off_c, 9, 37, 95
10, 180960, Note_on_c, 9, 54, 95
10, 180960, Note_on_c, 9, 37, 95
10, 181440, Note_off_c, 9, 54, 95
10, 181440, Note_off_c, 9, 37, 95
10, 181440, Note_on_c, 9, 54, 95
10, 181440, Note_on_c, 9, 31, 95
10, 181920, Note_off_c, 9, 54, 95
10, 181920, Note_off_c, 9, 31, 95
10, 181920, Note_on_c, 9, 54, 95
10, 182400, Note_off_c, 9, 54, 95
10, 182400, Note_on_c, 9, 54, 95
10, 182880, Note_off_c, 9, 54, 95
10, 182880, Note_on_c, 9, 54, 95
10, 182880, Note_on_c, 9, 37, 95
10, 183360, Note_off_c, 9, 54, 95
10, 183360, Note_off_c, 9, 37, 95
10, 183360, Note_on_c, 9, 54, 95
10, 183360, Note_on_c, 9, 31, 95
10, 183840, Note_off_c, 9, 54, 95
10, 183840, Note_off_c, 9, 31, 95
10, 183840, Note_on_c, 9, 54, 95
10, 184320, Note_off_c, 9, 54, 95
10, 184320, Note_on_c, 9, 54, 95
10, 184320, Note_on_c, 9, 37, 95
10, 184800, Note_off_c, 9, 54, 95
10, 184800, Note_off_c, 9, 37, 95
10, 184800, Note_on_c, 9, 54, 95
10, 184800, Note_on_c, 9, 37, 95
10, 185280, Note_off_c, 9, 54, 95
10, 185280, Note_off_c, 9, 37, 95
10, 185280, Note_on_c, 9, 54, 95
10, 185280, Note_on_c, 9, 31, 95
10, 185760, Note_off_c, 9, 54, 95
10, 185760, Note_off_c, 9, 31, 95
10, 185760, Note_on_c, 9, 54, 95
10, 186240, Note_off_c, 9, 54, 95
10, 186240, Note_on_c, 9, 54, 95
10, 186720, Note_off_c, 9, 54, 95
10, 186720, Note_on_c, 9, 54, 95
10, 186720, Note_on_c, 9, 37, 95
10, 187200, Note_off_c, 9, 54, 95
10, 187200, Note_off_c, 9, 37, 95
10, 187200, Note_on_c, 9, 54, 95
10, 187200, Note_on_c, 9, 31, 95
10, 187680, Note_off_c, 9, 54, 95
10, 187680, Note_off_c, 9, 31, 95
10, 187680, Note_on_c, 9, 54, 95
10, 188160, Note_off_c, 9, 54, 95
10, 188160, Note_on_c, 9, 54, 95
10, 188160, Note_on_c, 9, 37, 95
10, 188640, Note_off_c, 9, 54, 95
10, 188640, Note_off_c, 9, 37, 95
10, 188640, Note_on_c, 9, 54, 95
10, 188640, Note_on_c, 9, 37, 95
10, 189120, Note_off_c, 9, 54, 95
10, 189120, Note_off_c, 9, 37, 95
10, 189120, Note_on_c, 9, 54, 95
10, 189120, Note_on_c, 9, 31, 95
10, 189600, Note_off_c, 9, 54, 95
10, 189600, Note_off_c, 9, 31, 95
10, 189600, Note_on_c, 9, 54, 95
10, 190080, Note_off_c, 9, 54, 95
10, 190080, Note_on_c, 9, 54, 95
10, 190560, Note_off_c, 9, 54, 95
10, 190560, Note_on_c, 9, 54, 95
10, 190560, Note_on_c, 9, 37, 95
10, 191040, Note_off_c, 9, 54, 95
10, 191040, Note_off_c, 9, 37, 95
10, 191040, Note_on_c, 9, 54, 95
10, 191040, Note_on_c, 9, 31, 95
10, 191520, Note_off_c, 9, 54, 95
10, 191520, Note_off_c, 9, 31, 95
10, 191520, Note_on_c, 9, 54, 95
10, 192000, Note_off_c, 9, 54, 95
10, 192000, Note_on_c, 9, 54, 95
10, 192000, Note_on_c, 9, 37, 95
10, 192480, Note_off_c, 9, 54, 95
10, 192480, Note_off_c, 9, 37, 95
10, 192480, Note_on_c, 9, 54, 95
10, 192480, Note_on_c, 9, 37, 95
10, 192960, Note_off_c, 9, 54, 95
10, 192960, Note_off_c, 9, 37, 95
10, 192960, Note_on_c, 9, 54, 95
10, 192960, Note_on_c, 9, 31, 95
10, 193440, Note_off_c, 9, 54, 95
10, 193440, Note_off_c, 9, 31, 95
10, 193440, Note_on_c, 9, 54, 95
10, 193920, Note_off_c, 9, 54, 95
10, 193920, Note_on_c, 9, 54, 95
10, 194400, Note_off_c, 9, 54, 95
10, 194400, Note_on_c, 9, 54, 95
10, 194400, Note_on_c, 9, 37, 95
10, 194880, Note_off_c, 9, 54, 95
10, 194880, Note_off_c, 9, 37, 95
10, 194880, Note_on_c, 9, 54, 95
10, 194880, Note_on_c, 9, 31, 95
10, 195360, Note_off_c, 9, 54, 95
10, 195360, Note_off_c, 9, 31, 95
10, 195360, Note_on_c, 9, 54, 95
10, 195840, Note_off_c, 9, 54, 95
10, 195840, Note_on_c, 9, 54, 95
10, 195840, Note_on_c, 9, 37, 95
10, 196320, Note_off_c, 9, 54, 95
10, 196320, Note_off_c, 9, 37, 95
10, 196320, Note_on_c, 9, 54, 95
10, 196320, Note_on_c, 9, 37, 95
10, 196800, Note_off_c, 9, 54, 95
10, 196800, Note_off_c, 9, 37, 95
10, 196800, Note_on_c, 9, 54, 95
10, 196800, Note_on_c, 9, 31, 95
10, 197280, Note_off_c, 9, 54, 95
10, 197280, Note_off_c, 9, 31, 95
10, 197280, Note_on_c, 9, 54, 95
10, 197760, Note_off_c, 9, 54, 95
10, 197760, Note_on_c, 9, 54, 95
10, 198240, Note_off_c, 9, 54, 95
10, 198240, Note_on_c, 9, 54, 95
10, 198240, Note_on_c, 9, 37, 95
10, 198720, Note_off_c, 9, 54, 95
10, 198720, Note_off_c, 9, 37, 95
10, 198720, Note_on_c, 9, 54, 95
10, 198720, Note_on_c, 9, 31, 95
10, 199200, Note_off_c, 9, 54, 95
10, 199200, Note_off_c, 9, 31, 95
10, 199200, Note_on_c, 9, 54, 95
10, 199680, Note_off_c, 9, 54, 95
10, 199680, Note_on_c, 9, 54, 95
10, 199680, Note_on_c, 9, 37, 95
10, 200160, Note_off_c, 9, 54, 95
10, 200160, Note_off_c, 9, 37, 95
10, 200160, Note_on_c, 9, 54, 95
10, 200160, Note_on_c, 9, 37, 95
10, 200640, Note_off_c, 9, 54, 95
10, 200640, Note_off_c, 9, 37, 95
10, 200640, Note_on_c, 9, 54, 95
10, 200640, Note_on_c, 9, 31, 95
10, 201120, Note_off_c, 9, 54, 95
10, 201120, Note_off_c, 9, 31, 95
10, 201120, Note_on_c, 9, 54, 95
10, 201600, Note_off_c, 9, 54, 95
10, 201600, Note_on_c, 9, 54, 95
10, 202080, Note_off_c, 9, 54, 95
10, 202080, Note_on_c, 9, 54, 95
10, 202080, Note_on_c, 9, 37, 95
10, 202560, Note_off_c, 9, 54, 95
10, 202560, Note_off_c, 9, 37, 95
10, 202560, Note_on_c, 9, 54, 95
10, 202560, Note_on_c, 9, 31, 95
10, 203040, Note_off_c, 9, 54, 95
10, 203040, Note_off_c, 9, 31, 95
10, 203040, Note_on_c, 9, 54, 95
10, 203520, Note_off_c, 9, 54, 95
10, 203520, Note_on_c, 9, 54, 95
10, 203520, Note_on_c, 9, 37, 95
10, 204000, Note_off_c, 9, 54, 95
10, 204000, Note_off_c, 9, 37, 95
10, 204000, Note_on_c, 9, 54, 95
10, 204000, Note_on_c, 9, 37, 95
10, 204480, Note_off_c, 9, 54, 95
10, 204480, Note_off_c, 9, 37, 95
10, 204480, Note_on_c, 9, 54, 95
10, 204480, Note_on_c, 9, 31, 95
10, 204960, Note_off_c, 9, 54, 95
10, 204960, Note_off_c, 9, 31, 95
10, 204960, Note_on_c, 9, 54, 95
10, 205440, Note_off_c, 9, 54, 95
10, 205440, Note_on_c, 9, 54, 95
10, 205920, Note_off_c, 9, 54, 95
10, 205920, Note_on_c, 9, 54, 95
10, 205920, Note_on_c, 9, 37, 95
10, 206400, Note_off_c, 9, 54, 95
10, 206400, Note_off_c, 9, 37, 95
10, 206400, Note_on_c, 9, 54, 95
10, 206400, Note_on_c, 9, 31, 95
10, 206880, Note_off_c, 9, 54, 95
10, 206880, Note_off_c, 9, 31, 95
10, 206880, Note_on_c, 9, 54, 95
10, 207360, Note_off_c, 9, 54, 95
10, 207360, Note_on_c, 9, 54, 95
10, 207360, Note_on_c, 9, 37, 95
10, 207840, Note_off_c, 9, 54, 95
10, 207840, Note_off_c, 9, 37, 95
10, 207840, Note_on_c, 9, 54, 95
10, 207840, Note_on_c, 9, 37, 95
10, 208320, Note_off_c, 9, 54, 95
10, 208320, Note_off_c, 9, 37, 95
10, 208320, Note_on_c, 9, 54, 95
10, 208320, Note_on_c, 9, 31, 95
10, 208800, Note_off_c, 9, 54, 95
10, 208800, Note_off_c, 9, 31, 95
10, 208800, Note_on_c, 9, 54, 95
10, 209280, Note_off_c, 9, 54, 95
10, 209280, Note_on_c, 9, 54, 95
10, 209760, Note_off_c, 9, 54, 95
10, 209760, Note_on_c, 9, 54, 95
10, 209760, Note_on_c, 9, 37, 95
10, 210240, Note_off_c, 9, 54, 95
10, 210240, Note_off_c, 9, 37, 95
10, 210240, Note_on_c, 9, 54, 95
10, 210240, Note_on_c, 9, 31, 95
10, 210720, Note_off_c, 9, 54, 95
10, 210720, Note_off_c, 9, 31, 95
10, 210720, Note_on_c, 9, 54, 95
10, 211200, Note_off_c, 9, 54, 95
10, 211200, Note_on_c, 9, 54, 95
10, 211200, Note_on_c, 9, 37, 95
10, 211680, Note_off_c, 9, 54, 95
10, 211680, Note_off_c, 9, 37, 95
10, 211680, Note_on_c, 9, 54, 95
10, 211680, Note_on_c, 9, 37, 95
10, 212160, Note_off_c, 9, 54, 95
10, 212160, Note_off_c, 9, 37, 95
10, 212160, Note_on_c, 9, 54, 95
10, 212160, Note_on_c, 9, 31, 95
10, 212640, Note_off_c, 9, 54, 95
10, 212640, Note_off_c, 9, 31, 95
10, 212640, Note_on_c, 9, 54, 95
10, 213120, Note_off_c, 9, 54, 95
10, 213120, Note_on_c, 9, 54, 95
10, 213600, Note_off_c, 9, 54, 95
10, 213600, Note_on_c, 9, 54, 95
10, 213600, Note_on_c, 9, 37, 95
10, 214080, Note_off_c, 9, 54, 95
10, 214080, Note_off_c, 9, 37, 95
10, 214080, Note_on_c, 9, 54, 95
10, 214080, Note_on_c, 9, 31, 95
10, 214560, Note_off_c, 9, 54, 95
10, 214560, Note_off_c, 9, 31, 95
10, 214560, Note_on_c, 9, 54, 95
10, 215040, Note_off_c, 9, 54, 95
10, 215040, Note_on_c, 9, 54, 95
10, 215040, Note_on_c, 9, 37, 95
10, 215520, Note_off_c, 9, 54, 95
10, 215520, Note_off_c, 9, 37, 95
10, 215520, Note_on_c, 9, 54, 95
10, 215520, Note_on_c, 9, 37, 95
10, 216000, Note_off_c, 9, 54, 95
10, 216000, Note_off_c, 9, 37, 95
10, 216000, Note_on_c, 9, 54, 95
10, 216000, Note_on_c, 9, 31, 95
10, 216480, Note_off_c, 9, 54, 95
10, 216480, Note_off_c, 9, 31, 95
10, 216480, Note_on_c, 9, 54, 95
10, 216960, Note_off_c, 9, 54, 95
10, 216960, Note_on_c, 9, 54, 95
10, 217440, Note_off_c, 9, 54, 95
10, 217440, Note_on_c, 9, 54, 95
10, 217440, Note_on_c, 9, 37, 95
10, 217920, Note_off_c, 9, 54, 95
10, 217920, Note_off_c, 9, 37, 95
10, 217920, Note_on_c, 9, 54, 95
10, 217920, Note_on_c, 9, 31, 95
10, 218400, Note_off_c, 9, 54, 95
10, 218400, Note_off_c, 9, 31, 95
10, 218400, Note_on_c, 9, 54, 95
10, 218880, Note_off_c, 9, 54, 95
10, 249600, Note_on_c, 9, 54, 95
10, 249600, Note_on_c, 9, 37, 95
10, 250080, Note_off_c, 9, 54, 95
10, 250080, Note_off_c, 9, 37, 95
10, 250080, Note_on_c, 9, 54, 95
10, 250080, Note_on_c, 9, 37, 95
10, 250560, Note_off_c, 9, 54, 95
10, 250560, Note_off_c, 9, 37, 95
10, 250560, Note_on_c, 9, 54, 95
10, 250560, Note_on_c, 9, 31, 95
10, 251040, Note_off_c, 9, 54, 95
10, 251040, Note_off_c, 9, 31, 95
10, 251040, Note_on_c, 9, 54, 95
10, 251520, Note_off_c, 9, 54, 95
10, 251520, Note_on_c, 9, 54, 95
10, 252000, Note_off_c, 9, 54, 95
10, 252000, Note_on_c, 9, 54, 95
10, 252000, Note_on_c, 9, 37, 95
10, 252480, Note_off_c, 9, 54, 95
10, 252480, Note_off_c, 9, 37, 95
10, 252480, Note_on_c, 9, 54, 95
10, 252480, Note_on_c, 9, 31, 95
10, 252960, Note_off_c, 9, 54, 95
10, 252960, Note_off_c, 9, 31, 95
10, 252960, Note_on_c, 9, 54, 95
10, 253440, Note_off_c, 9, 54, 95
10, 253440, Note_on_c, 9, 54, 95
10, 253440, Note_on_c, 9, 37, 95
10, 253920, Note_off_c, 9, 54, 95
10, 253920, Note_off_c, 9, 37, 95
10, 253920, Note_on_c, 9, 54, 95
10, 253920, Note_on_c, 9, 37, 95
10, 254400, Note_off_c, 9, 54, 95
10, 254400, Note_off_c, 9, 37, 95
10, 254400, Note_on_c, 9, 54, 95
10, 254400, Note_on_c, 9, 31, 95
10, 254880, Note_off_c, 9, 54, 95
10, 254880, Note_off_c, 9, 31, 95
10, 254880, Note_on_c, 9, 54, 95
10, 255360, Note_off_c, 9, 54, 95
10, 255360, Note_on_c, 9, 54, 95
10, 255840, Note_off_c, 9, 54, 95
10, 255840, Note_on_c, 9, 54, 95
10, 255840, Note_on_c, 9, 37, 95
10, 256320, Note_off_c, 9, 54, 95
10, 256320, Note_off_c, 9, 37, 95
10, 256320, Note_on_c, 9, 54, 95
10, 256320, Note_on_c, 9, 31, 95
10, 256800, Note_off_c, 9, 54, 95
10, 256800, Note_off_c, 9, 31, 95
10, 256800, Note_on_c, 9, 54, 95
10, 257280, Note_off_c, 9, 54, 95
10, 257280, Note_on_c, 9, 54, 95
10, 257280, Note_on_c, 9, 37, 95
10, 257760, Note_off_c, 9, 54, 95
10, 257760, Note_off_c, 9, 37, 95
10, 257760, Note_on_c, 9, 54, 95
10, 257760, Note_on_c, 9, 37, 95
10, 258240, Note_off_c, 9, 54, 95
10, 258240, Note_off_c, 9, 37, 95
10, 258240, Note_on_c, 9, 54, 95
10, 258240, Note_on_c, 9, 31, 95
10, 258720, Note_off_c, 9, 54, 95
10, 258720, Note_off_c, 9, 31, 95
10, 258720, Note_on_c, 9, 54, 95
10, 259200, Note_off_c, 9, 54, 95
10, 259200, Note_on_c, 9, 54, 95
10, 259680, Note_off_c, 9, 54, 95
10, 259680, Note_on_c, 9, 54, 95
10, 259680, Note_on_c, 9, 37, 95
10, 260160, Note_off_c, 9, 54, 95
10, 260160, Note_off_c, 9, 37, 95
10, 260160, Note_on_c, 9, 54, 95
10, 260160, Note_on_c, 9, 31, 95
10, 260640, Note_off_c, 9, 54, 95
10, 260640, Note_off_c, 9, 31, 95
10, 260640, Note_on_c, 9, 54, 95
10, 261120, Note_off_c, 9, 54, 95
10, 261120, Note_on_c, 9, 54, 95
10, 261120, Note_on_c, 9, 37, 95
10, 261600, Note_off_c, 9, 54, 95
10, 261600, Note_off_c, 9, 37, 95
10, 261600, Note_on_c, 9, 54, 95
10, 261600, Note_on_c, 9, 37, 95
10, 262080, Note_off_c, 9, 54, 95
10, 262080, Note_off_c, 9, 37, 95
10, 262080, Note_on_c, 9, 54, 95
10, 262080, Note_on_c, 9, 31, 95
10, 262560, Note_off_c, 9, 54, 95
10, 262560, Note_off_c, 9, 31, 95
10, 262560, Note_on_c, 9, 54, 95
10, 263040, Note_off_c, 9, 54, 95
10, 263040, Note_on_c, 9, 54, 95
10, 263520, Note_off_c, 9, 54, 95
10, 263520, Note_on_c, 9, 54, 95
10, 263520, Note_on_c, 9, 37, 95
10, 264000, Note_off_c, 9, 54, 95
10, 264000, Note_off_c, 9, 37, 95
10, 264000, Note_on_c, 9, 54, 95
10, 264000, Note_on_c, 9, 31, 95
10, 264480, Note_off_c, 9, 54, 95
10, 264480, Note_off_c, 9, 31, 95
10, 264480, Note_on_c, 9, 54, 95
10, 264960, Note_off_c, 9, 54, 95
10, 264960, Note_on_c, 9, 54, 95
10, 264960, Note_on_c, 9, 37, 95
10, 265440, Note_off_c, 9, 54, 95
10, 265440, Note_off_c, 9, 37, 95
10, 265440, Note_on_c, 9, 54, 95
10, 265440, Note_on_c, 9, 37, 95
10, 265920, Note_off_c, 9, 54, 95
10, 265920, Note_off_c, 9, 37, 95
10, 265920, Note_on_c, 9, 54, 95
10, 265920, Note_on_c, 9, 31, 95
10, 266400, Note_off_c, 9, 54, 95
10, 266400, Note_off_c, 9, 31, 95
10, 266400, Note_on_c, 9, 54, 95
10, 266880, Note_off_c, 9, 54, 95
10, 266880, Note_on_c, 9, 54, 95
10, 267360, Note_off_c, 9, 54, 95
10, 267360, Note_on_c, 9, 54, 95
10, 267360, Note_on_c, 9, 37, 95
10, 267840, Note_off_c, 9, 54, 95
10, 267840, Note_off_c, 9, 37, 95
10, 267840, Note_on_c, 9, 54, 95
10, 267840, Note_on_c, 9, 31, 95
10, 268320, Note_off_c, 9, 54, 95
10, 268320, Note_off_c, 9, 31, 95
10, 268320, Note_on_c, 9, 54, 95
10, 268800, Note_off_c, 9, 54, 95
10, 268800, Note_on_c, 9, 54, 95
10, 268800, Note_on_c, 9, 37, 95
10, 269280, Note_off_c, 9, 54, 95
10, 269280, Note_off_c, 9, 37, 95
10, 269280, Note_on_c, 9, 54, 95
10, 269280, Note_on_c, 9, 37, 95
10, 269760, Note_off_c, 9, 54, 95
10, 269760, Note_off_c, 9, 37, 95
10, 269760, Note_on_c, 9, 54, 95
10, 269760, Note_on_c, 9, 31, 95
10, 270240, Note_off_c, 9, 54, 95
10, 270240, Note_off_c, 9, 31, 95
10, 270240, Note_on_c, 9, 54, 95
10, 270720, Note_off_c, 9, 54, 95
10, 270720, Note_on_c, 9, 54, 95
10, 271200, Note_off_c, 9, 54, 95
10, 271200, Note_on_c, 9, 54, 95
10, 271200, Note_on_c, 9, 37, 95
10, 271680, Note_off_c, 9, 54, 95
10, 271680, Note_off_c, 9, 37, 95
10, 271680, Note_on_c, 9, 54, 95
10, 271680, Note_on_c, 9, 31, 95
10, 272160, Note_off_c, 9, 54, 95
10, 272160, Note_off_c, 9, 31, 95
10, 272160, Note_on_c, 9, 54, 95
10, 272640, Note_off_c, 9, 54, 95
10, 272640, Note_on_c, 9, 54, 95
10, 272640, Note_on_c, 9, 37, 95
10, 273120, Note_off_c, 9, 54, 95
10, 273120, Note_off_c, 9, 37, 95
10, 273120, Note_on_c, 9, 54, 95
10, 273120, Note_on_c, 9, 37, 95
10, 273600, Note_off_c, 9, 54, 95
10, 273600, Note_off_c, 9, 37, 95
10, 273600, Note_on_c, 9, 54, 95
10, 273600, Note_on_c, 9, 31, 95
10, 274080, Note_off_c, 9, 54, 95
10, 274080, Note_off_c, 9, 31, 95
10, 274080, Note_on_c, 9, 54, 95
10, 274560, Note_off_c, 9, 54, 95
10, 274560, Note_on_c, 9, 54, 95
10, 275040, Note_off_c, 9, 54, 95
10, 275040, Note_on_c, 9, 54, 95
10, 275040, Note_on_c, 9, 37, 95
10, 275520, Note_off_c, 9, 54, 95
10, 275520, Note_off_c, 9, 37, 95
10, 275520, Note_on_c, 9, 54, 95
10, 275520, Note_on_c, 9, 31, 95
10, 276000, Note_off_c, 9, 54, 95
10, 276000, Note_off_c, 9, 31, 95
10, 276000, Note_on_c, 9, 54, 95
10, 276480, Note_off_c, 9, 54, 95
10, 276480, Note_on_c, 9, 54, 95
10, 276480, Note_on_c, 9, 37, 95
10, 276960, Note_off_c, 9, 54, 95
10, 276960, Note_off_c, 9, 37, 95
10, 276960, Note_on_c, 9, 54, 95
10, 276960, Note_on_c, 9, 37, 95
10, 277440, Note_off_c, 9, 54, 95
10, 277440, Note_off_c, 9, 37, 95
10, 277440, Note_on_c, 9, 54, 95
10, 277440, Note_on_c, 9, 31, 95
10, 277920, Note_off_c, 9, 54, 95
10, 277920, Note_off_c, 9, 31, 95
10, 277920, Note_on_c, 9, 54, 95
10, 278400, Note_off_c, 9, 54, 95
10, 278400, Note_on_c, 9, 54, 95
10, 278880, Note_off_c, 9, 54, 95
10, 278880, Note_on_c, 9, 54, 95
10, 278880, Note_on_c, 9, 37, 95
10, 279360, Note_off_c, 9, 54, 95
10, 279360, Note_off_c, 9, 37, 95
10, 279360, Note_on_c, 9, 54, 95
10, 279360, Note_on_c, 9, 31, 95
10, 279840, Note_off_c, 9, 54, 95
10, 279840, Note_off_c, 9, 31, 95
10, 279840, Note_on_c, 9, 54, 95
10, 280320, Note_off_c, 9, 54, 95
10, 280320, Note_on_c, 9, 36, 95
10, 280320, Note_on_c, 9, 36, 95
10, 280800, Note_off_c, 9, 36, 95
10, 280800, Note_off_c, 9, 36, 95
10, 280800, Note_on_c, 9, 36, 95
10, 280800, Note_on_c, 9, 36, 95
10, 281280, Note_off_c, 9, 36, 95
10, 281280, Note_off_c, 9, 36, 95
10, 281280, Note_on_c, 9, 40, 95
10, 281280, Note_on_c, 9, 40, 95
10, 281760, Note_off_c, 9, 40, 95
10, 281760, Note_off_c, 9, 40, 95
10, 281760, Note_on_c, 9, 42, 95
10, 282240, Note_off_c, 9, 42, 95
10, 282240, Note_on_c, 9, 42, 95
10, 282720, Note_off_c, 9, 42, 95
10, 282720, Note_on_c, 9, 36, 95
10, 282720, Note_on_c, 9, 36, 95
10, 283200, Note_off_c, 9, 36, 95
10, 283200, Note_off_c, 9, 36, 95
10, 283200, Note_on_c, 9, 40, 95
10, 283200, Note_on_c, 9, 40, 95
10, 283680, Note_off_c, 9, 40, 95
10, 283680, Note_off_c, 9, 40, 95
10, 283680, Note_on_c, 9, 42, 95
10, 284160, Note_off_c, 9, 42, 95
10, 284160, Note_on_c, 9, 36, 95
10, 284160, Note_on_c, 9, 36, 95
10, 284640, Note_off_c, 9, 36, 95
10, 284640, Note_off_c, 9, 36, 95
10, 284640, Note_on_c, 9, 36, 95
10, 284640, Note_on_c, 9, 36, 95
10, 285120, Note_off_c, 9, 36, 95
10, 285120, Note_off_c, 9, 36, 95
10, 285120, Note_on_c, 9, 40, 95
10, 285120, Note_on_c, 9, 40, 95
10, 285600, Note_off_c, 9, 40, 95
10, 285600, Note_off_c, 9, 40, 95
10, 285600, Note_on_c, 9, 42, 95
10, 286080, Note_off_c, 9, 42, 95
10, 286080, Note_on_c, 9, 42, 95
10, 286560, Note_off_c, 9, 42, 95
10, 286560, Note_on_c, 9, 36, 95
10, 286560, Note_on_c, 9, 36, 95
10, 287040, Note_off_c, 9, 36, 95
10, 287040, Note_off_c, 9, 36, 95
10, 287040, Note_on_c, 9, 40, 95
10, 287040, Note_on_c, 9, 40, 95
10, 287520, Note_off_c, 9, 40, 95
10, 287520, Note_off_c, 9, 40, 95
10, 287520, Note_on_c, 9, 42, 95
10, 288000, Note_off_c, 9, 42, 95
10, 288000, Note_on_c, 9, 36, 95
10, 288000, Note_on_c, 9, 36, 95
10, 288480, Note_off_c, 9, 36, 95
10, 288480, Note_off_c, 9, 36, 95
10, 288480, Note_on_c, 9, 36, 95
10, 288480, Note_on_c, 9, 36, 95
10, 288960, Note_off_c, 9, 36, 95
10, 288960, Note_off_c, 9, 36, 95
10, 288960, Note_on_c, 9, 40, 95
10, 288960, Note_on_c, 9, 40, 95
10, 289440, Note_off_c, 9, 40, 95
10, 289440, Note_off_c, 9, 40, 95
10, 289440, Note_on_c, 9, 42, 95
10, 289920, Note_off_c, 9, 42, 95
10, 289920, Note_on_c, 9, 42, 95
10, 290400, Note_off_c, 9, 42, 95
10, 290400, Note_on_c, 9, 36, 95
10, 290400, Note_on_c, 9, 36, 95
10, 290880, Note_off_c, 9, 36, 95
10, 290880, Note_off_c, 9, 36, 95
10, 290880, Note_on_c, 9, 40, 95
10, 290880, Note_on_c, 9, 40, 95
10, 291360, Note_off_c, 9, 40, 95
10, 291360, Note_off_c, 9, 40, 95
10, 291360, Note_on_c, 9, 42, 95
10, 291840, Note_off_c, 9, 42, 95
10, 291840, Note_on_c, 9, 36, 95
10, 291840, Note_on_c, 9, 36, 95
10, 292320, Note_off_c, 9, 36, 95
10, 292320, Note_off_c, 9, 36, 95
10, 292320, Note_on_c, 9, 36, 95
10, 292320, Note_on_c, 9, 36, 95
10, 292800, Note_off_c, 9, 36, 95
10, 292800, Note_off_c, 9, 36, 95
10, 292800, Note_on_c, 9, 40, 95
10, 292800, Note_on_c, 9, 40, 95
10, 293280, Note_off_c, 9, 40, 95
10, 293280, Note_off_c, 9, 40, 95
10, 293280, Note_on_c, 9, 42, 95
10, 293760, Note_off_c, 9, 42, 95
10, 293760, Note_on_c, 9, 42, 95
10, 294240, Note_off_c, 9, 42, 95
10, 294240, Note_on_c, 9, 36, 95
10, 294240, Note_on_c, 9, 36, 95
10, 294720, Note_off_c, 9, 36, 95
10, 294720, Note_off_c, 9, 36, 95
10, 294720, Note_on_c, 9, 40, 95
10, 294720, Note_on_c, 9, 40, 95
10, 295200, Note_off_c, 9, 40, 95
10, 295200, Note_off_c, 9, 40, 95
10, 295200, Note_on_c, 9, 42, 95
10, 295680, Note_off_c, 9, 42, 95
10, 295680, Note_on_c, 9, 36, 95
10, 295680, Note_on_c, 9, 36, 95
10, 296160, Note_off_c, 9, 36, 95
10, 296160, Note_off_c, 9, 36, 95
10, 296160, Note_on_c, 9, 36, 95
10, 296160, Note_on_c, 9, 36, 95
10, 296640, Note_off_c, 9, 36, 95
10, 296640, Note_off_c, 9, 36, 95
10, 296640, Note_on_c, 9, 40, 95
10, 296640, Note_on_c, 9, 40, 95
10, 297120, Note_off_c, 9, 40, 95
10, 297120, Note_off_c, 9, 40, 95
10, 297120, Note_on_c, 9, 42, 95
10, 297600, Note_off_c, 9, 42, 95
10, 297600, Note_on_c, 9, 42, 95
10, 298080, Note_off_c, 9, 42, 95
10, 298080, Note_on_c, 9, 36, 95
10, 298080, Note_on_c, 9, 36, 95
10, 298560, Note_off_c, 9, 36, 95
10, 298560, Note_off_c, 9, 36, 95
10, 298560, Note_on_c, 9, 40, 95
10, 298560, Note_on_c, 9, 40, 95
10, 299040, Note_off_c, 9, 40, 95
10, 299040, Note_off_c, 9, 40, 95
10, 299040, Note_on_c, 9, 42, 95
10, 299520, Note_off_c, 9, 42, 95
10, 299520, Note_on_c, 9, 36, 95
10, 299520, Note_on_c, 9, 36, 95
10, 300000, Note_off_c, 9, 36, 95
10, 300000, Note_off_c, 9, 36, 95
10, 300000, Note_on_c, 9, 36, 95
10, 300000, Note_on_c, 9, 36, 95
10, 300480, Note_off_c, 9, 36, 95
10, 300480, Note_off_c, 9, 36, 95
10, 300480, Note_on_c, 9, 40, 95
10, 300480, Note_on_c, 9, 40, 95
10, 300960, Note_off_c, 9, 40, 95
10, 300960, Note_off_c, 9, 40, 95
10, 300960, Note_on_c, 9, 42, 95
10, 301440, Note_off_c, 9, 42, 95
10, 301440, Note_on_c, 9, 42, 95
10, 301920, Note_off_c, 9, 42, 95
10, 301920, Note_on_c, 9, 36, 95
10, 301920, Note_on_c, 9, 36, 95
10, 302400, Note_off_c, 9, 36, 95
10, 302400, Note_off_c, 9, 36, 95
10, 302400, Note_on_c, 9, 40, 95
10, 302400, Note_on_c, 9, 40, 95
10, 302880, Note_off_c, 9, 40, 95
10, 302880, Note_off_c, 9, 40, 95
10, 302880, Note_on_c, 9, 42, 95
10, 303360, Note_off_c, 9, 42, 95
10, 303360, Note_on_c, 9, 36, 95
10, 303360, Note_on_c, 9, 36, 95
10, 303840, Note_off_c, 9, 36, 95
10, 303840, Note_off_c, 9, 36, 95
10, 303840, Note_on_c, 9, 36, 95
10, 303840, Note_on_c, 9, 36, 95
10, 304320, Note_off_c, 9, 36, 95
10, 304320, Note_off_c, 9, 36, 95
10, 304320, Note_on_c, 9, 40, 95
10, 304320, Note_on_c, 9, 40, 95
10, 304800, Note_off_c, 9, 40, 95
10, 304800, Note_off_c, 9, 40, 95
10, 304800, Note_on_c, 9, 42, 95
10, 305280, Note_off_c, 9, 42, 95
10, 305280, Note_on_c, 9, 42, 95
10, 305760, Note_off_c, 9, 42, 95
10, 305760, Note_on_c, 9, 36, 95
10, 305760, Note_on_c, 9, 36, 95
10, 306240, Note_off_c, 9, 36, 95
10, 306240, Note_off_c, 9, 36, 95
10, 306240, Note_on_c, 9, 40, 95
10, 306240, Note_on_c, 9, 40, 95
10, 306720, Note_off_c, 9, 40, 95
10, 306720, Note_off_c, 9, 40, 95
10, 306720, Note_on_c, 9, 42, 95
10, 307200, Note_off_c, 9, 42, 95
10, 307200, Note_on_c, 9, 36, 95
10, 307200, Note_on_c, 9, 36, 95
10, 307680, Note_off_c, 9, 36, 95
10, 307680, Note_off_c, 9, 36, 95
10, 307680, Note_on_c, 9, 36, 95
10, 307680, Note_on_c, 9, 36, 95
10, 308160, Note_off_c, 9, 36, 95
10, 308160, Note_off_c, 9, 36, 95
10, 308160, Note_on_c, 9, 40, 95
10, 308160, Note_on_c, 9, 40, 95
10, 308640, Note_off_c, 9, 40, 95
10, 308640, Note_off_c, 9, 40, 95
10, 308640, Note_on_c, 9, 42, 95
10, 309120, Note_off_c, 9, 42, 95
10, 309120, Note_on_c, 9, 42, 95
10, 309600, Note_off_c, 9, 42, 95
10, 309600, Note_on_c, 9, 36, 95
10, 309600, Note_on_c, 9, 36, 95
10, 310080, Note_off_c, 9, 36, 95
10, 310080, Note_off_c, 9, 36, 95
10, 310080, Note_on_c, 9, 40, 95
10, 310080, Note_on_c, 9, 40, 95
10, 310560, Note_off_c, 9, 40, 95
10, 310560, Note_off_c, 9, 40, 95
10, 310560, Note_on_c, 9, 42, 95
10, 311040, Note_off_c, 9, 42, 95
10, 311040, Note_on_c, 9, 36, 95
10, 311040, Note_on_c, 9, 36, 95
10, 311520, Note_off_c, 9, 36, 95
10, 311520, Note_off_c, 9, 36, 95
10, 311520, Note_on_c, 9, 36, 95
10, 311520, Note_on_c, 9, 36, 95
10, 312000, Note_off_c, 9, 36, 95
10, 312000, Note_off_c, 9, 36, 95
10, 312000, Note_on_c, 9, 40, 95
10, 312000, Note_on_c, 9, 40, 95
10, 312480, Note_off_c, 9, 40, 95
10, 312480, Note_off_c, 9, 40, 95
10, 312480, Note_on_c, 9, 42, 95
10, 312960, Note_off_c, 9, 42, 95
10, 312960, Note_on_c, 9, 42, 95
10, 313440, Note_off_c, 9, 42, 95
10, 313440, Note_on_c, 9, 36, 95
10, 313440, Note_on_c, 9, 36, 95
10, 313920, Note_off_c, 9, 36, 95
10, 313920, Note_off_c, 9, 36, 95
10, 313920, Note_on_c, 9, 40, 95
10, 313920, Note_on_c, 9, 40, 95
10, 314400, Note_off_c, 9, 40, 95
10, 314400, Note_off_c, 9, 40, 95
10, 314400, Note_on_c, 9, 42, 95
10, 314880, Note_off_c, 9, 42, 95
10, 314880, Note_on_c, 9, 36, 95
10, 314880, Note_on_c, 9, 36, 95
10, 315360, Note_off_c, 9, 36, 95
10, 315360, Note_off_c, 9, 36, 95
10, 315360, Note_on_c, 9, 36, 95
10, 315360, Note_on_c, 9, 36, 95
10, 315840, Note_off_c, 9, 36, 95
10, 315840, Note_off_c, 9, 36, 95
10, 315840, Note_on_c, 9, 40, 95
10, 315840, Note_on_c, 9, 40, 95
10, 316320, Note_off_c, 9, 40, 95
10, 316320, Note_off_c, 9, 40, 95
10, 316320, Note_on_c, 9, 42, 95
10, 316800, Note_off_c, 9, 42, 95
10, 316800, Note_on_c, 9, 42, 95
10, 317280, Note_off_c, 9, 42, 95
10, 317280, Note_on_c, 9, 36, 95
10, 317280, Note_on_c, 9, 36, 95
10, 317760, Note_off_c, 9, 36, 95
10, 317760, Note_off_c, 9, 36, 95
10, 317760, Note_on_c, 9, 40, 95
10, 317760, Note_on_c, 9, 40, 95
10, 318240, Note_off_c, 9, 40, 95
10, 318240, Note_off_c, 9, 40, 95
10, 318240, Note_on_c, 9, 42, 95
10, 318720, Note_off_c, 9, 42, 95
10, 318720, Note_on_c, 9, 36, 95
10, 318720, Note_on_c, 9, 36, 95
10, 319200, Note_off_c, 9, 36, 95
10, 319200, Note_off_c, 9, 36, 95
10, 319200, Note_on_c, 9, 36, 95
10, 319200, Note_on_c, 9, 36, 95
10, 319680, Note_off_c, 9, 36, 95
10, 319680, Note_off_c, 9, 36, 95
10, 319680, Note_on_c, 9, 40, 95
10, 319680, Note_on_c, 9, 40, 95
10, 320160, Note_off_c, 9, 40, 95
10, 320160, Note_off_c, 9, 40, 95
10, 320160, Note_on_c, 9, 42, 95
10, 320640, Note_off_c, 9, 42, 95
10, 320640, Note_on_c, 9, 42, 95
10, 321120, Note_off_c, 9, 42, 95
10, 321120, Note_on_c, 9, 36, 95
10, 321120, Note_on_c, 9, 36, 95
10, 321600, Note_off_c, 9, 36, 95
10, 321600, Note_off_c, 9, 36, 95
10, 321600, Note_on_c, 9, 40, 95
10, 321600, Note_on_c, 9, 40, 95
10, 322080, Note_off_c, 9, 40, 95
10, 322080, Note_off_c, 9, 40, 95
10, 322080, Note_on_c, 9, 42, 95
10, 322560, Note_off_c, 9, 42, 95
10, 322560, Note_on_c, 9, 36, 95
10, 322560, Note_on_c, 9, 36, 95
10, 323040, Note_off_c, 9, 36, 95
10, 323040, Note_off_c, 9, 36, 95
10, 323040, Note_on_c, 9, 36, 95
10, 323040, Note_on_c, 9, 36, 95
10, 323520, Note_off_c, 9, 36, 95
10, 323520, Note_off_c, 9, 36, 95
10, 323520, Note_on_c, 9, 40, 95
10, 323520, Note_on_c, 9, 40, 95
10, 324000, Note_off_c, 9, 40, 95
10, 324000, Note_off_c, 9, 40, 95
10, 324000, Note_on_c, 9, 42, 95
10, 324480, Note_off_c, 9, 42, 95
10, 324480, Note_on_c, 9, 42, 95
10, 324960, Note_off_c, 9, 42, 95
10, 324960, Note_on_c, 9, 36, 95
10, 324960, Note_on_c, 9, 36, 95
10, 325440, Note_off_c, 9, 36, 95
10, 325440, Note_off_c, 9, 36, 95
10, 325440, Note_on_c, 9, 40, 95
10, 325440, Note_on_c, 9, 40, 95
10, 325920, Note_off_c, 9, 40, 95
10, 325920, Note_off_c, 9, 40, 95
10, 325920, Note_on_c, 9, 42, 95
10, 326400, Note_off_c, 9, 42, 95
10, 326400, Note_on_c, 9, 36, 95
10, 326400, Note_on_c, 9, 36, 95
10, 326880, Note_off_c, 9, 36, 95
10, 326880, Note_off_c, 9, 36, 95
10, 326880, Note_on_c, 9, 36, 95
10, 326880, Note_on_c, 9, 36, 95
10, 327360, Note_off_c, 9, 36, 95
10, 327360, Note_off_c, 9, 36, 95
10, 327360, Note_on_c, 9, 40, 95
10, 327360, Note_on_c, 9, 40, 95
10, 327840, Note_off_c, 9, 40, 95
10, 327840, Note_off_c, 9, 40, 95
10, 327840, Note_on_c, 9, 42, 95
10, 328320, Note_off_c, 9, 42, 95
10, 328320, Note_on_c, 9, 42, 95
10, 328800, Note_off_c, 9, 42, 95
10, 328800, Note_on_c, 9, 36, 95
10, 328800, Note_on_c, 9, 36, 95
10, 329280, Note_off_c, 9, 36, 95
10, 329280, Note_off_c, 9, 36, 95
10, 329280, Note_on_c, 9, 40, 95
10, 329280, Note_on_c, 9, 40, 95
10, 329760, Note_off_c, 9, 40, 95
10, 329760, Note_off_c, 9, 40, 95
10, 329760, Note_on_c, 9, 42, 95
10, 330240, Note_off_c, 9, 42, 95
10, 330240, Note_on_c, 9, 36, 95
10, 330240, Note_on_c, 9, 36, 95
10, 330720, Note_off_c, 9, 36, 95
10, 330720, Note_off_c, 9, 36, 95
10, 330720, Note_on_c, 9, 36, 95
10, 330720, Note_on_c, 9, 36, 95
10, 331200, Note_off_c, 9, 36, 95
10, 331200, Note_off_c, 9, 36, 95
10, 331200, Note_on_c, 9, 40, 95
10, 331200, Note_on_c, 9, 40, 95
10, 331680, Note_off_c, 9, 40, 95
10, 331680, Note_off_c, 9, 40, 95
10, 331680, Note_on_c, 9, 42, 95
10, 332160, Note_off_c, 9, 42, 95
10, 332160, Note_on_c, 9, 42, 95
10, 332640, Note_off_c, 9, 42, 95
10, 332640, Note_on_c, 9, 36, 95
10, 332640, Note_on_c, 9, 36, 95
10, 333120, Note_off_c, 9, 36, 95
10, 333120, Note_off_c, 9, 36, 95
10, 333120, Note_on_c, 9, 40, 95
10, 333120, Note_on_c, 9, 40, 95
10, 333600, Note_off_c, 9, 40, 95
10, 333600, Note_off_c, 9, 40, 95
10, 333600, Note_on_c, 9, 42, 95
10, 334080, Note_off_c, 9, 42, 95
10, 334080, Note_on_c, 9, 36, 95
10, 334080, Note_on_c, 9, 36, 95
10, 334560, Note_off_c, 9, 36, 95
10, 334560, Note_off_c, 9, 36, 95
10, 334560, Note_on_c, 9, 36, 95
10, 334560, Note_on_c, 9, 36, 95
10, 335040, Note_off_c, 9, 36, 95
10, 335040, Note_off_c, 9, 36, 95
10, 335040, Note_on_c, 9, 40, 95
10, 335040, Note_on_c, 9, 40, 95
10, 335520, Note_off_c, 9, 40, 95
10, 335520, Note_off_c, 9, 40, 95
10, 335520, Note_on_c, 9, 42, 95
10, 336000, Note_off_c, 9, 42, 95
10, 336000, Note_on_c, 9, 42, 95
10, 336480, Note_off_c, 9, 42, 95
10, 336480, Note_on_c, 9, 36, 95
10, 336480, Note_on_c, 9, 36, 95
10, 336960, Note_off_c, 9, 36, 95
10, 336960, Note_off_c, 9, 36, 95
10, 336960, Note_on_c, 9, 40, 95
10, 336960, Note_on_c, 9, 40, 95
10, 337440, Note_off_c, 9, 40, 95
10, 337440, Note_off_c, 9, 40, 95
10, 337440, Note_on_c, 9, 42, 95
10, 337920, Note_off_c, 9, 42, 95
10, 337920, Note_on_c, 9, 36, 95
10, 337920, Note_on_c, 9, 36, 95
10, 338400, Note_off_c, 9, 36, 95
10, 338400, Note_off_c, 9, 36, 95
10, 338400, Note_on_c, 9, 36, 95
10, 338400, Note_on_c, 9, 36, 95
10, 338880, Note_off_c, 9, 36, 95
10, 338880, Note_off_c, 9, 36, 95
10, 338880, Note_on_c, 9, 40, 95
10, 338880, Note_on_c, 9, 40, 95
10, 339360, Note_off_c, 9, 40, 95
10, 339360, Note_off_c, 9, 40, 95
10, 339360, Note_on_c, 9, 42, 95
10, 339840, Note_off_c, 9, 42, 95
10, 339840, Note_on_c, 9, 42, 95
10, 340320, Note_off_c, 9, 42, 95
10, 340320, Note_on_c, 9, 36, 95
10, 340320, Note_on_c, 9, 36, 95
10, 340800, Note_off_c, 9, 36, 95
10, 340800, Note_off_c, 9, 36, 95
10, 340800, Note_on_c, 9, 40, 95
10, 340800, Note_on_c, 9, 40, 95
10, 341280, Note_off_c, 9, 40, 95
10, 341280, Note_off_c, 9, 40, 95
10, 341280, Note_on_c, 9, 42, 95
10, 341760, Note_off_c, 9, 42, 95
10, 341760, Note_on_c, 9, 36, 95
10, 341760, Note_on_c, 9, 36, 95
10, 342240, Note_off_c, 9, 36, 95
10, 342240, Note_off_c, 9, 36, 95
10, 342240, Note_on_c, 9, 36, 95
10, 342240, Note_on_c, 9, 36, 95
10, 342720, Note_off_c, 9, 36, 95
10, 342720, Note_off_c, 9, 36, 95
10, 342720, Note_on_c, 9, 40, 95
10, 342720, Note_on_c, 9, 40, 95
10, 343200, Note_off_c, 9, 40, 95
10, 343200, Note_off_c, 9, 40, 95
10, 343200, Note_on_c, 9, 42, 95
10, 343680, Note_off_c, 9, 42, 95
10, 343680, Note_on_c, 9, 42, 95
10, 344160, Note_off_c, 9, 42, 95
10, 344160, Note_on_c, 9, 36, 95
10, 344160, Note_on_c, 9, 36, 95
10, 344640, Note_off_c, 9, 36, 95
10, 344640, Note_off_c, 9, 36, 95
10, 344640, Note_on_c, 9, 40, 95
10, 344640, Note_on_c, 9, 40, 95
10, 345120, Note_off_c, 9, 40, 95
10, 345120, Note_off_c, 9, 40, 95
10, 345120, Note_on_c, 9, 42, 95
10, 345600, Note_off_c, 9, 42, 95
10, 345600, Note_on_c, 9, 36, 95
10, 345600, Note_on_c, 9, 36, 95
10, 346080, Note_off_c, 9, 36, 95
10, 346080, Note_off_c, 9, 36, 95
10, 346080, Note_on_c, 9, 36, 95
10, 346080, Note_on_c, 9, 36, 95
10, 346560, Note_off_c, 9, 36, 95
10, 346560, Note_off_c, 9, 36, 95
10, 346560, Note_on_c, 9, 40, 95
10, 346560, Note_on_c, 9, 40, 95
10, 347040, Note_off_c, 9, 40, 95
10, 347040, Note_off_c, 9, 40, 95
10, 347040, Note_on_c, 9, 42, 95
10, 347520, Note_off_c, 9, 42, 95
10, 347520, Note_on_c, 9, 42, 95
10, 348000, Note_off_c, 9, 42, 95
10, 348000, Note_on_c, 9, 36, 95
10, 348000, Note_on_c, 9, 36, 95
10, 348480, Note_off_c, 9, 36, 95
10, 348480, Note_off_c, 9, 36, 95
10, 348480, Note_on_c, 9, 40, 95
10, 348480, Note_on_c, 9, 40, 95
10, 348960, Note_off_c, 9, 40, 95
10, 348960, Note_off_c, 9, 40, 95
10, 348960, Note_on_c, 9, 42, 95
10, 349440, Note_off_c, 9, 42, 95
10, 349440, Note_on_c, 9, 36, 95
10, 349440, Note_on_c, 9, 36, 95
10, 349920, Note_off_c, 9, 36, 95
10, 349920, Note_off_c, 9, 36, 95
10, 349920, Note_on_c, 9, 36, 95
10, 349920, Note_on_c, 9, 36, 95
10, 350400, Note_off_c, 9, 36, 95
10, 350400, Note_off_c, 9, 36, 95
10, 350400, Note_on_c, 9, 40, 95
10, 350400, Note_on_c, 9, 40, 95
10, 350880, Note_off_c, 9, 40, 95
10, 350880, Note_off_c, 9, 40, 95
10, 350880, Note_on_c, 9, 42, 95
10, 351360, Note_off_c, 9, 42, 95
10, 351360, Note_on_c, 9, 42, 95
10, 351840, Note_off_c, 9, 42, 95
10, 351840, Note_on_c, 9, 36, 95
10, 351840, Note_on_c, 9, 36, 95
10, 352320, Note_off_c, 9, 36, 95
10, 352320, Note_off_c, 9, 36, 95
10, 352320, Note_on_c, 9, 40, 95
10, 352320, Note_on_c, 9, 40, 95
10, 352800, Note_off_c, 9, 40, 95
10, 352800, Note_off_c, 9, 40, 95
10, 352800, Note_on_c, 9, 42, 95
10, 353280, Note_off_c, 9, 42, 95
10, 353280, Note_on_c, 9, 36, 95
10, 353280, Note_on_c, 9, 36, 95
10, 353760, Note_off_c, 9, 36, 95
10, 353760, Note_off_c, 9, 36, 95
10, 353760, Note_on_c, 9, 36, 95
10, 353760, Note_on_c, 9, 36, 95
10, 354240, Note_off_c, 9, 36, 95
10, 354240, Note_off_c, 9, 36, 95
10, 354240, Note_on_c, 9, 40, 95
10, 354240, Note_on_c, 9, 40, 95
10, 354720, Note_off_c, 9, 40, 95
10, 354720, Note_off_c, 9, 40, 95
10, 354720, Note_on_c, 9, 42, 95
10, 355200, Note_off_c, 9, 42, 95
10, 355200, Note_on_c, 9, 42, 95
10, 355680, Note_off_c, 9, 42, 95
10, 355680, Note_on_c, 9, 36, 95
10, 355680, Note_on_c, 9, 36, 95
10, 356160, Note_off_c, 9, 36, 95
10, 356160, Note_off_c, 9, 36, 95
10, 356160, Note_on_c, 9, 40, 95
10, 356160, Note_on_c, 9, 40, 95
10, 356640, Note_off_c, 9, 40, 95
10, 356640, Note_off_c, 9, 40, 95
10, 356640, Note_on_c, 9, 42, 95
10, 357120, Note_off_c, 9, 42, 95
10, 357120, Note_on_c, 9, 36, 95
10, 357120, Note_on_c, 9, 36, 95
10, 357600, Note_off_c, 9, 36, 95
10, 357600, Note_off_c, 9, 36, 95
10, 357600, Note_on_c, 9, 36, 95
10, 357600, Note_on_c, 9, 36, 95
10, 358080, Note_off_c, 9, 36, 95
10, 358080, Note_off_c, 9, 36, 95
10, 358080, Note_on_c, 9, 40, 95
10, 358080, Note_on_c, 9, 40, 95
10, 358560, Note_off_c, 9, 40, 95
10, 358560, Note_off_c, 9, 40, 95
10, 358560, Note_on_c, 9, 42, 95
10, 359040, Note_off_c, 9, 42, 95
10, 359040, Note_on_c, 9, 42, 95
10, 359520, Note_off_c, 9, 42, 95
10, 359520, Note_on_c, 9, 36, 95
10, 359520, Note_on_c, 9, 36, 95
10, 360000, Note_off_c, 9, 36, 95
10, 360000, Note_off_c, 9, 36, 95
10, 360000, Note_on_c, 9, 40, 95
10, 360000, Note_on_c, 9, 40, 95
10, 360480, Note_off_c, 9, 40, 95
10, 360480, Note_off_c, 9, 40, 95
10, 360480, Note_on_c, 9, 42, 95
10, 360960, Note_off_c, 9, 42, 95
10, 360960, Note_on_c, 9, 36, 95
10, 360960, Note_on_c, 9, 36, 95
10, 361440, Note_off_c, 9, 36, 95
10, 361440, Note_off_c, 9, 36, 95
10, 361440, Note_on_c, 9, 36, 95
10, 361440, Note_on_c, 9, 36, 95
10, 361920, Note_off_c, 9, 36, 95
10, 361920, Note_off_c, 9, 36, 95
10, 361920, Note_on_c, 9, 40, 95
10, 361920, Note_on_c, 9, 40, 95
10, 362400, Note_off_c, 9, 40, 95
10, 362400, Note_off_c, 9, 40, 95
10, 362400, Note_on_c, 9, 42, 95
10, 362880, Note_off_c, 9, 42, 95
10, 362880, Note_on_c, 9, 42, 95
10, 363360, Note_off_c, 9, 42, 95
10, 363360, Note_on_c, 9, 36, 95
10, 363360, Note_on_c, 9, 36, 95
10, 363840, Note_off_c, 9, 36, 95
10, 363840, Note_off_c, 9, 36, 95
10, 363840, Note_on_c, 9, 40, 95
10, 363840, Note_on_c, 9, 40, 95
10, 364320, Note_off_c, 9, 40, 95
10, 364320, Note_off_c, 9, 40, 95
10, 364320, Note_on_c, 9, 42, 95
10, 364800, Note_off_c, 9, 42, 95
10, 364800, Note_on_c, 9, 36, 95
10, 364800, Note_on_c, 9, 36, 95
10, 365280, Note_off_c, 9, 36, 95
10, 365280, Note_off_c, 9, 36, 95
10, 365280, Note_on_c, 9, 36, 95
10, 365280, Note_on_c, 9, 36, 95
10, 365760, Note_off_c, 9, 36, 95
10, 365760, Note_off_c, 9, 36, 95
10, 365760, Note_on_c, 9, 40, 95
10, 365760, Note_on_c, 9, 40, 95
10, 366240, Note_off_c, 9, 40, 95
10, 366240, Note_off_c, 9, 40, 95
10, 366240, Note_on_c, 9, 42, 95
10, 366720, Note_off_c, 9, 42, 95
10, 366720, Note_on_c, 9, 42, 95
10, 367200, Note_off_c, 9, 42, 95
10, 367200, Note_on_c, 9, 36, 95
10, 367200, Note_on_c, 9, 36, 95
10, 367680, Note_off_c, 9, 36, 95
10, 367680, Note_off_c, 9, 36, 95
10, 367680, Note_on_c, 9, 40, 95
10, 367680, Note_on_c, 9, 40, 95
10, 368160, Note_off_c, 9, 40, 95
10, 368160, Note_off_c, 9, 40, 95
10, 368160, Note_on_c, 9, 42, 95
10, 368640, Note_off_c, 9, 42, 95
10, 368640, Note_on_c, 9, 36, 95
10, 368640, Note_on_c, 9, 36, 95
10, 369120, Note_off_c, 9, 36, 95
10, 369120, Note_off_c, 9, 36, 95
10, 369120, Note_on_c, 9, 36, 95
10, 369120, Note_on_c, 9, 36, 95
10, 369600, Note_off_c, 9, 36, 95
10, 369600, Note_off_c, 9, 36, 95
10, 369600, Note_on_c, 9, 40, 95
10, 369600, Note_on_c, 9, 40, 95
10, 370080, Note_off_c, 9, 40, 95
10, 370080, Note_off_c, 9, 40, 95
10, 370080, Note_on_c, 9, 42, 95
10, 370560, Note_off_c, 9, 42, 95
10, 370560, Note_on_c, 9, 42, 95
10, 371040, Note_off_c, 9, 42, 95
10, 371040, Note_on_c, 9, 36, 95
10, 371040, Note_on_c, 9, 36, 95
10, 371520, Note_off_c, 9, 36, 95
10, 371520, Note_off_c, 9, 36, 95
10, 371520, Note_on_c, 9, 40, 95
10, 371520, Note_on_c, 9, 40, 95
10, 372000, Note_off_c, 9, 40, 95
10, 372000, Note_off_c, 9, 40, 95
10, 372000, Note_on_c, 9, 42, 95
10, 372480, Note_off_c, 9, 42, 95
10, 372480, Note_on_c, 9, 36, 95
10, 372480, Note_on_c, 9, 36, 95
10, 372960, Note_off_c, 9, 36, 95
10, 372960, Note_off_c, 9, 36, 95
10, 372960, Note_on_c, 9, 36, 95
10, 372960, Note_on_c, 9, 36, 95
10, 373440, Note_off_c, 9, 36, 95
10, 373440, Note_off_c, 9, 36, 95
10, 373440, Note_on_c, 9, 40, 95
10, 373440, Note_on_c, 9, 40, 95
10, 373920, Note_off_c, 9, 40, 95
10, 373920, Note_off_c, 9, 40, 95
10, 373920, Note_on_c, 9, 42, 95
10, 374400, Note_off_c, 9, 42, 95
10, 374400, Note_on_c, 9, 42, 95
10, 374880, Note_off_c, 9, 42, 95
10, 374880, Note_on_c, 9, 36, 95
10, 374880, Note_on_c, 9, 36, 95
10, 375360, Note_off_c, 9, 36, 95
10, 375360, Note_off_c, 9, 36, 95
10, 375360, Note_on_c, 9, 40, 95
10, 375360, Note_on_c, 9, 40, 95
10, 375840, Note_off_c, 9, 40, 95
10, 375840, Note_off_c, 9, 40, 95
10, 375840, Note_on_c, 9, 42, 95
10, 376320, Note_off_c, 9, 42, 95
10, 376320, Note_on_c, 9, 36, 95
10, 376320, Note_on_c, 9, 36, 95
10, 376800, Note_off_c, 9, 36, 95
10, 376800, Note_off_c, 9, 36, 95
10, 376800, Note_on_c, 9, 36, 95
10, 376800, Note_on_c, 9, 36, 95
10, 377280, Note_off_c, 9, 36, 95
10, 377280, Note_off_c, 9, 36, 95
10, 377280, Note_on_c, 9, 40, 95
10, 377280, Note_on_c, 9, 40, 95
10, 377760, Note_off_c, 9, 40, 95
10, 377760, Note_off_c, 9, 40, 95
10, 377760, Note_on_c, 9, 42, 95
10, 378240, Note_off_c, 9, 42, 95
10, 378240, Note_on_c, 9, 42, 95
10, 378720, Note_off_c, 9, 42, 95
10, 378720, Note_on_c, 9, 36, 95
10, 378720, Note_on_c, 9, 36, 95
10, 379200, Note_off_c, 9, 36, 95
10, 379200, Note_off_c, 9, 36, 95
10, 379200, Note_on_c, 9, 40, 95
10, 379200, Note_on_c, 9, 40, 95
10, 379680, Note_off_c, 9, 40, 95
10, 379680, Note_off_c, 9, 40, 95
10, 379680, Note_on_c, 9, 42, 95
10, 380160, Note_off_c, 9, 42, 95
10, 380160, Note_on_c, 9, 36, 95
10, 380160, Note_on_c, 9, 36, 95
10, 380640, Note_off_c, 9, 36, 95
10, 380640, Note_off_c, 9, 36, 95
10, 380640, Note_on_c, 9, 36, 95
10, 380640, Note_on_c, 9, 36, 95
10, 381120, Note_off_c, 9, 36, 95
10, 381120, Note_off_c, 9, 36, 95
10, 381120, Note_on_c, 9, 40, 95
10, 381120, Note_on_c, 9, 40, 95
10, 381600, Note_off_c, 9, 40, 95
10, 381600, Note_off_c, 9, 40, 95
10, 381600, Note_on_c, 9, 42, 95
10, 382080, Note_off_c, 9, 42, 95
10, 382080, Note_on_c, 9, 42, 95
10, 382560, Note_off_c, 9, 42, 95
10, 382560, Note_on_c, 9, 36, 95
10, 382560, Note_on_c, 9, 36, 95
10, 383040, Note_off_c, 9, 36, 95
10, 383040, Note_off_c, 9, 36, 95
10, 383040, Note_on_c, 9, 40, 95
10, 383040, Note_on_c, 9, 40, 95
10, 383520, Note_off_c, 9, 40, 95
10, 383520, Note_off_c, 9, 40, 95
10, 383520, Note_on_c, 9, 42, 95
10, 384000, Note_off_c, 9, 42, 95
10, 384000, Note_on_c, 9, 36, 95
10, 384000, Note_on_c, 9, 36, 95
10, 384480, Note_off_c, 9, 36, 95
10, 384480, Note_off_c, 9, 36, 95
10, 384480, Note_on_c, 9, 36, 95
10, 384480, Note_on_c, 9, 36, 95
10, 384960, Note_off_c, 9, 36, 95
10, 384960, Note_off_c, 9, 36, 95
10, 384960, Note_on_c, 9, 40, 95
10, 384960, Note_on_c, 9, 40, 95
10, 385440, Note_off_c, 9, 40, 95
10, 385440, Note_off_c, 9, 40, 95
10, 385440, Note_on_c, 9, 42, 95
10, 385920, Note_off_c, 9, 42, 95
10, 385920, Note_on_c, 9, 42, 95
10, 386400, Note_off_c, 9, 42, 95
10, 386400, Note_on_c, 9, 36, 95
10, 386400, Note_on_c, 9, 36, 95
10, 386880, Note_off_c, 9, 36, 95
10, 386880, Note_off_c, 9, 36, 95
10, 386880, Note_on_c, 9, 40, 95
10, 386880, Note_on_c, 9, 40, 95
10, 387360, Note_off_c, 9, 40, 95
10, 387360, Note_off_c, 9, 40, 95
10, 387360, Note_on_c, 9, 42, 95
10, 387840, Note_off_c, 9, 42, 95
10, 387840, Note_on_c, 9, 36, 95
10, 387840, Note_on_c, 9, 36, 95
10, 388320, Note_off_c, 9, 36, 95
10, 388320, Note_off_c, 9, 36, 95
10, 388320, Note_on_c, 9, 36, 95
10, 388320, Note_on_c, 9, 36, 95
10, 388800, Note_off_c, 9, 36, 95
10, 388800, Note_off_c, 9, 36, 95
10, 388800, Note_on_c, 9, 40, 95
10, 388800, Note_on_c, 9, 40, 95
10, 389280, Note_off_c, 9, 40, 95
10, 389280, Note_off_c, 9, 40, 95
10, 389280, Note_on_c, 9, 42, 95
10, 389760, Note_off_c, 9, 42, 95
10, 389760, Note_on_c, 9, 42, 95
10, 390240, Note_off_c, 9, 42, 95
10, 390240, Note_on_c, 9, 36, 95
10, 390240, Note_on_c, 9, 36, 95
10, 390720, Note_off_c, 9, 36, 95
10, 390720, Note_off_c, 9, 36, 95
10, 390720, Note_on_c, 9, 40, 95
10, 390720, Note_on_c, 9, 40, 95
10, 391200, Note_off_c, 9, 40, 95
10, 391200, Note_off_c, 9, 40, 95
10, 391200, Note_on_c, 9, 42, 95
10, 391680, Note_off_c, 9, 42, 95
10, 391680, Note_on_c, 9, 36, 95
10, 391680, Note_on_c, 9, 36, 95
10, 392160, Note_off_c, 9, 36, 95
10, 392160, Note_off_c, 9, 36, 95
10, 392160, Note_on_c, 9, 36, 95
10, 392160, Note_on_c, 9, 36, 95
10, 392640, Note_off_c, 9, 36, 95
10, 392640, Note_off_c, 9, 36, 95
10, 392640, Note_on_c, 9, 40, 95
10, 392640, Note_on_c, 9, 40, 95
10, 393120, Note_off_c, 9, 40, 95
10, 393120, Note_off_c, 9, 40, 95
10, 393120, Note_on_c, 9, 42, 95
10, 393600, Note_off_c, 9, 42, 95
10, 393600, Note_on_c, 9, 42, 95
10, 394080, Note_off_c, 9, 42, 95
10, 394080, Note_on_c, 9, 36, 95
10, 394080, Note_on_c, 9, 36, 95
10, 394560, Note_off_c, 9, 36, 95
10, 394560, Note_off_c, 9, 36, 95
10, 394560, Note_on_c, 9, 40, 95
10, 394560, Note_on_c, 9, 40, 95
10, 395040, Note_off_c, 9, 40, 95
10, 395040, Note_off_c, 9, 40, 95
10, 395040, Note_on_c, 9, 42, 95
10, 395520, Note_off_c, 9, 42, 95
10, 395520, Note_on_c, 9, 36, 95
10, 395520, Note_on_c, 9, 36, 95
10, 396000, Note_off_c, 9, 36, 95
10, 396000, Note_off_c, 9, 36, 95
10, 396000, Note_on_c, 9, 36, 95
10, 396000, Note_on_c, 9, 36, 95
10, 396480, Note_off_c, 9, 36, 95
10, 396480, Note_off_c, 9, 36, 95
10, 396480, Note_on_c, 9, 40, 95
10, 396480, Note_on_c, 9, 40, 95
10, 396960, Note_off_c, 9, 40, 95
10, 396960, Note_off_c, 9, 40, 95
10, 396960, Note_on_c, 9, 42, 95
10, 397440, Note_off_c, 9, 42, 95
10, 397440, Note_on_c, 9, 42, 95
10, 397920, Note_off_c, 9, 42, 95
10, 397920, Note_on_c, 9, 36, 95
10, 397920, Note_on_c, 9, 36, 95
10, 398400, Note_off_c, 9, 36, 95
10, 398400, Note_off_c, 9, 36, 95
10, 398400, Note_on_c, 9, 40, 95
10, 398400, Note_on_c, 9, 40, 95
10, 398880, Note_off_c, 9, 40, 95
10, 398880, Note_off_c, 9, 40, 95
10, 398880, Note_on_c, 9, 42, 95
10, 399360, Note_off_c, 9, 42, 95
10, 399360, Note_on_c, 9, 36, 95
10, 399360, Note_on_c, 9, 36, 95
10, 399840, Note_off_c, 9, 36, 95
10, 399840, Note_off_c, 9, 36, 95
10, 399840, Note_on_c, 9, 36, 95
10, 399840, Note_on_c, 9, 36, 95
10, 400320, Note_off_c, 9, 36, 95
10, 400320, Note_off_c, 9, 36, 95
10, 400320, Note_on_c, 9, 40, 95
10, 400320, Note_on_c, 9, 40, 95
10, 400800, Note_off_c, 9, 40, 95
10, 400800, Note_off_c, 9, 40, 95
10, 400800, Note_on_c, 9, 42, 95
10, 401280, Note_off_c, 9, 42, 95
10, 401280, Note_on_c, 9, 42, 95
10, 401760, Note_off_c, 9, 42, 95
10, 401760, Note_on_c, 9, 36, 95
10, 401760, Note_on_c, 9, 36, 95
10, 402240, Note_off_c, 9, 36, 95
10, 402240, Note_off_c, 9, 36, 95
10, 402240, Note_on_c, 9, 40, 95
10, 402240, Note_on_c, 9, 40, 95
10, 402720, Note_off_c, 9, 40, 95
10, 402720, Note_off_c, 9, 40, 95
10, 402720, Note_on_c, 9, 42, 95
10, 403200, Note_off_c, 9, 42, 95
10, 403200, End_track
11, 0, Start_track
11, 0, Pitch_bend_c, 14, 8192
11, 0, Control_c, 14, 7, 95
11, 0, Control_c, 14, 10, 63
11, 0, Control_c, 14, 93, 0
11, 0, Control_c, 14, 91, 0
11, 0, Control_c, 14, 95, 0
11, 0, Control_c, 14, 92, 0
11, 0, Control_c, 14, 11, 127
11, 0, Program_c, 14, 104
11, 96000, Note_on_c, 14, 61, 95
11, 96160, Pitch_bend_c, 14, 8192
11, 96320, Pitch_bend_c, 14, 8320
11, 96480, Pitch_bend_c, 14, 8192
11, 96640, Pitch_bend_c, 14, 8320
11, 96800, Pitch_bend_c, 14, 8192
11, 96960, Pitch_bend_c, 14, 8320
11, 97120, Pitch_bend_c, 14, 8192
11, 97280, Pitch_bend_c, 14, 8320
11, 97440, Pitch_bend_c, 14, 8192
11, 97600, Pitch_bend_c, 14, 8320
11, 97760, Pitch_bend_c, 14, 8192
11, 97920, Pitch_bend_c, 14, 8320
11, 98080, Pitch_bend_c, 14, 8192
11, 98240, Pitch_bend_c, 14, 8320
11, 98400, Pitch_bend_c, 14, 8192
11, 98560, Pitch_bend_c, 14, 8320
11, 98720, Pitch_bend_c, 14, 8192
11, 98880, Pitch_bend_c, 14, 8320
11, 99040, Pitch_bend_c, 14, 8192
11, 99200, Pitch_bend_c, 14, 8320
11, 99360, Pitch_bend_c, 14, 8192
11, 99520, Pitch_bend_c, 14, 8320
11, 99680, Pitch_bend_c, 14, 8192
11, 99840, Pitch_bend_c, 14, 8320
11, 99840, Pitch_bend_c, 14, 8192
11, 99840, Note_off_c, 14, 61, 95
11, 99840, Note_on_c, 14, 64, 95
11, 100000, Pitch_bend_c, 14, 8192
11, 100160, Pitch_bend_c, 14, 8320
11, 100320, Pitch_bend_c, 14, 8192
11, 100480, Pitch_bend_c, 14, 8320
11, 100640, Pitch_bend_c, 14, 8192
11, 100800, Pitch_bend_c, 14, 8320
11, 100960, Pitch_bend_c, 14, 8192
11, 101120, Pitch_bend_c, 14, 8320
11, 101280, Pitch_bend_c, 14, 8192
11, 101440, Pitch_bend_c, 14, 8320
11, 101600, Pitch_bend_c, 14, 8192
11, 101760, Pitch_bend_c, 14, 8320
11, 101920, Pitch_bend_c, 14, 8192
11, 102080, Pitch_bend_c, 14, 8320
11, 102240, Pitch_bend_c, 14, 8192
11, 102400, Pitch_bend_c, 14, 8320
11, 102560, Pitch_bend_c, 14, 8192
11, 102720, Pitch_bend_c, 14, 8320
11, 102880, Pitch_bend_c, 14, 8192
11, 103040, Pitch_bend_c, 14, 8320
11, 103200, Pitch_bend_c, 14, 8192
11, 103360, Pitch_bend_c, 14, 8320
11, 103520, Pitch_bend_c, 14, 8192
11, 103680, Pitch_bend_c, 14, 8320
11, 103680, Pitch_bend_c, 14, 8192
11, 103680, Note_off_c, 14, 64, 95
11, 103680, Note_on_c, 14, 64, 95
11, 103840, Pitch_bend_c, 14, 8192
11, 104000, Pitch_bend_c, 14, 8320
11, 104160, Pitch_bend_c, 14, 8192
11, 104320, Pitch_bend_c, 14, 8320
11, 104480, Pitch_bend_c, 14, 8192
11, 104640, Pitch_bend_c, 14, 8320
11, 104800, Pitch_bend_c, 14, 8192
11, 104960, Pitch_bend_c, 14, 8320
11, 105120, Pitch_bend_c, 14, 8192
11, 105120, Pitch_bend_c, 14, 8320
11, 105120, Pitch_bend_c, 14, 8192
11, 105120, Note_off_c, 14, 64, 95
11, 105120, Note_on_c, 14, 62, 95
11, 105280, Pitch_bend_c, 14, 8192
11, 105440, Pitch_bend_c, 14, 8320
11, 105600, Pitch_bend_c, 14, 8192
11, 105760, Pitch_bend_c, 14, 8320
11, 105920, Pitch_bend_c, 14, 8192
11, 106080, Pitch_bend_c, 14, 8320
11, 106240, Pitch_bend_c, 14, 8192
11, 106400, Pitch_bend_c, 14, 8320
11, 106560, Pitch_bend_c, 14, 8192
11, 106720, Pitch_bend_c, 14, 8320
11, 106880, Pitch_bend_c, 14, 8192
11, 107040, Pitch_bend_c, 14, 8320
11, 107200, Pitch_bend_c, 14, 8192
11, 107360, Pitch_bend_c, 14, 8320
11, 107520, Pitch_bend_c, 14, 8192
11, 107520, Pitch_bend_c, 14, 8320
11, 107520, Pitch_bend_c, 14, 8192
11, 107520, Note_off_c, 14, 62, 95
11, 107520, Note_on_c, 14, 69, 95
11, 107680, Pitch_bend_c, 14, 8192
11, 107840, Pitch_bend_c, 14, 8320
11, 108000, Pitch_bend_c, 14, 8192
11, 108160, Pitch_bend_c, 14, 8320
11, 108320, Pitch_bend_c, 14, 8192
11, 108480, Pitch_bend_c, 14, 8320
11, 108640, Pitch_bend_c, 14, 8192
11, 108800, Pitch_bend_c, 14, 8320
11, 108960, Pitch_bend_c, 14, 8192
11, 108960, Pitch_bend_c, 14, 8320
11, 108960, Pitch_bend_c, 14, 8192
11, 108960, Note_off_c, 14, 69, 95
11, 108960, Note_on_c, 14, 71, 95
11, 109120, Pitch_bend_c, 14, 8192
11, 109280, Pitch_bend_c, 14, 8320
11, 109440, Pitch_bend_c, 14, 8192
11, 109600, Pitch_bend_c, 14, 8320
11, 109760, Pitch_bend_c, 14, 8192
11, 109920, Pitch_bend_c, 14, 8320
11, 110080, Pitch_bend_c, 14, 8192
11, 110240, Pitch_bend_c, 14, 8320
11, 110400, Pitch_bend_c, 14, 8192
11, 110400, Pitch_bend_c, 14, 8320
11, 110400, Pitch_bend_c, 14, 8192
11, 110400, Note_off_c, 14, 71, 95
11, 110400, Note_on_c, 14, 69, 95
11, 110560, Pitch_bend_c, 14, 8192
11, 110720, Pitch_bend_c, 14, 8320
11, 110880, Pitch_bend_c, 14, 8192
11, 111040, Pitch_bend_c, 14, 8320
11, 111200, Pitch_bend_c, 14, 8192
11, 111360, Pitch_bend_c, 14, 8320
11, 111360, Pitch_bend_c, 14, 8192
11, 111360, Note_off_c, 14, 69, 95
11, 111360, Note_on_c, 14, 67, 95
11, 111520, Pitch_bend_c, 14, 8192
11, 111680, Pitch_bend_c, 14, 8320
11, 111840, Pitch_bend_c, 14, 8192
11, 112000, Pitch_bend_c, 14, 8320
11, 112160, Pitch_bend_c, 14, 8192
11, 112320, Pitch_bend_c, 14, 8320
11, 112480, Pitch_bend_c, 14, 8192
11, 112640, Pitch_bend_c, 14, 8320
11, 112800, Pitch_bend_c, 14, 8192
11, 112960, Pitch_bend_c, 14, 8320
11, 113120, Pitch_bend_c, 14, 8192
11, 113280, Pitch_bend_c, 14, 8320
11, 113440, Pitch_bend_c, 14, 8192
11, 113600, Pitch_bend_c, 14, 8320
11, 113760, Pitch_bend_c, 14, 8192
11, 113920, Pitch_bend_c, 14, 8320
11, 114080, Pitch_bend_c, 14, 8192
11, 114240, Pitch_bend_c, 14, 8320
11, 114400, Pitch_bend_c, 14, 8192
11, 114560, Pitch_bend_c, 14, 8320
11, 114720, Pitch_bend_c, 14, 8192
11, 114880, Pitch_bend_c, 14, 8320
11, 115040, Pitch_bend_c, 14, 8192
11, 115200, Pitch_bend_c, 14, 8320
11, 115200, Pitch_bend_c, 14, 8192
11, 115200, Note_off_c, 14, 67, 95
11, 115200, Note_on_c, 14, 64, 95
11, 115360, Pitch_bend_c, 14, 8192
11, 115520, Pitch_bend_c, 14, 8320
11, 115680, Pitch_bend_c, 14, 8192
11, 115840, Pitch_bend_c, 14, 8320
11, 116000, Pitch_bend_c, 14, 8192
11, 116160, Pitch_bend_c, 14, 8320
11, 116320, Pitch_bend_c, 14, 8192
11, 116480, Pitch_bend_c, 14, 8320
11, 116640, Pitch_bend_c, 14, 8192
11, 116800, Pitch_bend_c, 14, 8320
11, 116960, Pitch_bend_c, 14, 8192
11, 117120, Pitch_bend_c, 14, 8320
11, 117280, Pitch_bend_c, 14, 8192
11, 117440, Pitch_bend_c, 14, 8320
11, 117600, Pitch_bend_c, 14, 8192
11, 117600, Pitch_bend_c, 14, 8320
11, 117600, Pitch_bend_c, 14, 8192
11, 117600, Note_off_c, 14, 64, 95
11, 117600, Note_on_c, 14, 66, 95
11, 117760, Pitch_bend_c, 14, 8192
11, 117920, Pitch_bend_c, 14, 8320
11, 118080, Pitch_bend_c, 14, 8192
11, 118240, Pitch_bend_c, 14, 8320
11, 118400, Pitch_bend_c, 14, 8192
11, 118560, Pitch_bend_c, 14, 8320
11, 118720, Pitch_bend_c, 14, 8192
11, 118880, Pitch_bend_c, 14, 8320
11, 119040, Pitch_bend_c, 14, 8192
11, 119040, Pitch_bend_c, 14, 8320
11, 119040, Pitch_bend_c, 14, 8192
11, 119040, Note_off_c, 14, 66, 95
11, 119040, Note_on_c, 14, 61, 95
11, 119200, Pitch_bend_c, 14, 8192
11, 119360, Pitch_bend_c, 14, 8320
11, 119520, Pitch_bend_c, 14, 8192
11, 119680, Pitch_bend_c, 14, 8320
11, 119840, Pitch_bend_c, 14, 8192
11, 120000, Pitch_bend_c, 14, 8320
11, 120000, Pitch_bend_c, 14, 8192
11, 120000, Note_off_c, 14, 61, 95
11, 120000, Note_on_c, 14, 62, 95
11, 120160, Pitch_bend_c, 14, 8192
11, 120320, Pitch_bend_c, 14, 8320
11, 120480, Pitch_bend_c, 14, 8192
11, 120640, Pitch_bend_c, 14, 8320
11, 120800, Pitch_bend_c, 14, 8192
11, 120960, Pitch_bend_c, 14, 8320
11, 121120, Pitch_bend_c, 14, 8192
11, 121280, Pitch_bend_c, 14, 8320
11, 121440, Pitch_bend_c, 14, 8192
11, 121600, Pitch_bend_c, 14, 8320
11, 121760, Pitch_bend_c, 14, 8192
11, 121920, Pitch_bend_c, 14, 8320
11, 122080, Pitch_bend_c, 14, 8192
11, 122240, Pitch_bend_c, 14, 8320
11, 122400, Pitch_bend_c, 14, 8192
11, 122560, Pitch_bend_c, 14, 8320
11, 122720, Pitch_bend_c, 14, 8192
11, 122880, Pitch_bend_c, 14, 8320
11, 122880, Pitch_bend_c, 14, 8192
11, 122880, Note_off_c, 14, 62, 95
11, 122880, Note_on_c, 14, 69, 95
11, 123040, Pitch_bend_c, 14, 8192
11, 123200, Pitch_bend_c, 14, 8320
11, 123360, Pitch_bend_c, 14, 8192
11, 123520, Pitch_bend_c, 14, 8320
11, 123680, Pitch_bend_c, 14, 8192
11, 123840, Pitch_bend_c, 14, 8320
11, 124000, Pitch_bend_c, 14, 8192
11, 124160, Pitch_bend_c, 14, 8320
11, 124320, Pitch_bend_c, 14, 8192
11, 124320, Pitch_bend_c, 14, 8320
11, 124320, Pitch_bend_c, 14, 8192
11, 124320, Note_off_c, 14, 69, 95
11, 124320, Note_on_c, 14, 71, 95
11, 124480, Pitch_bend_c, 14, 8192
11, 124640, Pitch_bend_c, 14, 8320
11, 124800, Pitch_bend_c, 14, 8192
11, 124960, Pitch_bend_c, 14, 8320
11, 125120, Pitch_bend_c, 14, 8192
11, 125280, Pitch_bend_c, 14, 8320
11, 125440, Pitch_bend_c, 14, 8192
11, 125600, Pitch_bend_c, 14, 8320
11, 125760, Pitch_bend_c, 14, 8192
11, 125760, Pitch_bend_c, 14, 8320
11, 125760, Pitch_bend_c, 14, 8192
11, 125760, Note_off_c, 14, 71, 95
11, 125760, Note_on_c, 14, 69, 95
11, 125920, Pitch_bend_c, 14, 8192
11, 126080, Pitch_bend_c, 14, 8320
11, 126240, Pitch_bend_c, 14, 8192
11, 126400, Pitch_bend_c, 14, 8320
11, 126560, Pitch_bend_c, 14, 8192
11, 126720, Pitch_bend_c, 14, 8320
11, 126720, Pitch_bend_c, 14, 8192
11, 126720, Note_off_c, 14, 69, 95
11, 188160, Note_on_c, 14, 61, 95
11, 188320, Pitch_bend_c, 14, 8192
11, 188480, Pitch_bend_c, 14, 8320
11, 188640, Pitch_bend_c, 14, 8192
11, 188800, Pitch_bend_c, 14, 8320
11, 188960, Pitch_bend_c, 14, 8192
11, 189120, Pitch_bend_c, 14, 8320
11, 189280, Pitch_bend_c, 14, 8192
11, 189440, Pitch_bend_c, 14, 8320
11, 189600, Pitch_bend_c, 14, 8192
11, 189760, Pitch_bend_c, 14, 8320
11, 189920, Pitch_bend_c, 14, 8192
11, 190080, Pitch_bend_c, 14, 8320
11, 190240, Pitch_bend_c, 14, 8192
11, 190400, Pitch_bend_c, 14, 8320
11, 190560, Pitch_bend_c, 14, 8192
11, 190720, Pitch_bend_c, 14, 8320
11, 190880, Pitch_bend_c, 14, 8192
11, 191040, Pitch_bend_c, 14, 8320
11, 191200, Pitch_bend_c, 14, 8192
11, 191360, Pitch_bend_c, 14, 8320
11, 191520, Pitch_bend_c, 14, 8192
11, 191680, Pitch_bend_c, 14, 8320
11, 191840, Pitch_bend_c, 14, 8192
11, 192000, Pitch_bend_c, 14, 8320
11, 192000, Pitch_bend_c, 14, 8192
11, 192000, Note_off_c, 14, 61, 95
11, 192000, Note_on_c, 14, 64, 95
11, 192160, Pitch_bend_c, 14, 8192
11, 192320, Pitch_bend_c, 14, 8320
11, 192480, Pitch_bend_c, 14, 8192
11, 192640, Pitch_bend_c, 14, 8320
11, 192800, Pitch_bend_c, 14, 8192
11, 192960, Pitch_bend_c, 14, 8320
11, 193120, Pitch_bend_c, 14, 8192
11, 193280, Pitch_bend_c, 14, 8320
11, 193440, Pitch_bend_c, 14, 8192
11, 193600, Pitch_bend_c, 14, 8320
11, 193760, Pitch_bend_c, 14, 8192
11, 193920, Pitch_bend_c, 14, 8320
11, 194080, Pitch_bend_c, 14, 8192
11, 194240, Pitch_bend_c, 14, 8320
11, 194400, Pitch_bend_c, 14, 8192
11, 194560, Pitch_bend_c, 14, 8320
11, 194720, Pitch_bend_c, 14, 8192
11, 194880, Pitch_bend_c, 14, 8320
11, 195040, Pitch_bend_c, 14, 8192
11, 195200, Pitch_bend_c, 14, 8320
11, 195360, Pitch_bend_c, 14, 8192
11, 195520, Pitch_bend_c, 14, 8320
11, 195680, Pitch_bend_c, 14, 8192
11, 195840, Pitch_bend_c, 14, 8320
11, 195840, Pitch_bend_c, 14, 8192
11, 195840, Note_off_c, 14, 64, 95
11, 195840, Note_on_c, 14, 64, 95
11, 196000, Pitch_bend_c, 14, 8192
11, 196160, Pitch_bend_c, 14, 8320
11, 196320, Pitch_bend_c, 14, 8192
11, 196480, Pitch_bend_c, 14, 8320
11, 196640, Pitch_bend_c, 14, 8192
11, 196800, Pitch_bend_c, 14, 8320
11, 196960, Pitch_bend_c, 14, 8192
11, 197120, Pitch_bend_c, 14, 8320
11, 197280, Pitch_bend_c, 14, 8192
11, 197280, Pitch_bend_c, 14, 8320
11, 197280, Pitch_bend_c, 14, 8192
11, 197280, Note_off_c, 14, 64, 95
11, 197280, Note_on_c, 14, 62, 95
11, 197440, Pitch_bend_c, 14, 8192
11, 197600, Pitch_bend_c, 14, 8320
11, 197760, Pitch_bend_c, 14, 8192
11, 197920, Pitch_bend_c, 14, 8320
11, 198080, Pitch_bend_c, 14, 8192
11, 198240, Pitch_bend_c, 14, 8320
11, 198400, Pitch_bend_c, 14, 8192
11, 198560, Pitch_bend_c, 14, 8320
11, 198720, Pitch_bend_c, 14, 8192
11, 198880, Pitch_bend_c, 14, 8320
11, 199040, Pitch_bend_c, 14, 8192
11, 199200, Pitch_bend_c, 14, 8320
11, 199360, Pitch_bend_c, 14, 8192
11, 199520, Pitch_bend_c, 14, 8320
11, 199680, Pitch_bend_c, 14, 8192
11, 199680, Pitch_bend_c, 14, 8320
11, 199680, Pitch_bend_c, 14, 8192
11, 199680, Note_off_c, 14, 62, 95
11, 199680, Note_on_c, 14, 69, 95
11, 199840, Pitch_bend_c, 14, 8192
11, 200000, Pitch_bend_c, 14, 8320
11, 200160, Pitch_bend_c, 14, 8192
11, 200320, Pitch_bend_c, 14, 8320
11, 200480, Pitch_bend_c, 14, 8192
11, 200640, Pitch_bend_c, 14, 8320
11, 200800, Pitch_bend_c, 14, 8192
11, 200960, Pitch_bend_c, 14, 8320
11, 201120, Pitch_bend_c, 14, 8192
11, 201120, Pitch_bend_c, 14, 8320
11, 201120, Pitch_bend_c, 14, 8192
11, 201120, Note_off_c, 14, 69, 95
11, 201120, Note_on_c, 14, 71, 95
11, 201280, Pitch_bend_c, 14, 8192
11, 201440, Pitch_bend_c, 14, 8320
11, 201600, Pitch_bend_c, 14, 8192
11, 201760, Pitch_bend_c, 14, 8320
11, 201920, Pitch_bend_c, 14, 8192
11, 202080, Pitch_bend_c, 14, 8320
11, 202240, Pitch_bend_c, 14, 8192
11, 202400, Pitch_bend_c, 14, 8320
11, 202560, Pitch_bend_c, 14, 8192
11, 202560, Pitch_bend_c, 14, 8320
11, 202560, Pitch_bend_c, 14, 8192
11, 202560, Note_off_c, 14, 71, 95
11, 202560, Note_on_c, 14, 69, 95
11, 202720, Pitch_bend_c, 14, 8192
11, 202880, Pitch_bend_c, 14, 8320
11, 203040, Pitch_bend_c, 14, 8192
11, 203200, Pitch_bend_c, 14, 8320
11, 203360, Pitch_bend_c, 14, 8192
11, 203520, Pitch_bend_c, 14, 8320
11, 203520, Pitch_bend_c, 14, 8192
11, 203520, Note_off_c, 14, 69, 95
11, 203520, Note_on_c, 14, 67, 95
11, 203680, Pitch_bend_c, 14, 8192
11, 203840, Pitch_bend_c, 14, 8320
11, 204000, Pitch_bend_c, 14, 8192
11, 204160, Pitch_bend_c, 14, 8320
11, 204320, Pitch_bend_c, 14, 8192
11, 204480, Pitch_bend_c, 14, 8320
11, 204640, Pitch_bend_c, 14, 8192
11, 204800, Pitch_bend_c, 14, 8320
11, 204960, Pitch_bend_c, 14, 8192
11, 205120, Pitch_bend_c, 14, 8320
11, 205280, Pitch_bend_c, 14, 8192
11, 205440, Pitch_bend_c, 14, 8320
11, 205600, Pitch_bend_c, 14, 8192
11, 205760, Pitch_bend_c, 14, 8320
11, 205920, Pitch_bend_c, 14, 8192
11, 206080, Pitch_bend_c, 14, 8320
11, 206240, Pitch_bend_c, 14, 8192
11, 206400, Pitch_bend_c, 14, 8320
11, 206560, Pitch_bend_c, 14, 8192
11, 206720, Pitch_bend_c, 14, 8320
11, 206880, Pitch_bend_c, 14, 8192
11, 207040, Pitch_bend_c, 14, 8320
11, 207200, Pitch_bend_c, 14, 8192
11, 207360, Pitch_bend_c, 14, 8320
11, 207360, Pitch_bend_c, 14, 8192
11, 207360, Note_off_c, 14, 67, 95
11, 207360, Note_on_c, 14, 64, 95
11, 207520, Pitch_bend_c, 14, 8192
11, 207680, Pitch_bend_c, 14, 8320
11, 207840, Pitch_bend_c, 14, 8192
11, 208000, Pitch_bend_c, 14, 8320
11, 208160, Pitch_bend_c, 14, 8192
11, 208320, Pitch_bend_c, 14, 8320
11, 208480, Pitch_bend_c, 14, 8192
11, 208640, Pitch_bend_c, 14, 8320
11, 208800, Pitch_bend_c, 14, 8192
11, 208960, Pitch_bend_c, 14, 8320
11, 209120, Pitch_bend_c, 14, 8192
11, 209280, Pitch_bend_c, 14, 8320
11, 209440, Pitch_bend_c, 14, 8192
11, 209600, Pitch_bend_c, 14, 8320
11, 209760, Pitch_bend_c, 14, 8192
11, 209760, Pitch_bend_c, 14, 8320
11, 209760, Pitch_bend_c, 14, 8192
11, 209760, Note_off_c, 14, 64, 95
11, 209760, Note_on_c, 14, 66, 95
11, 209920, Pitch_bend_c, 14, 8192
11, 210080, Pitch_bend_c, 14, 8320
11, 210240, Pitch_bend_c, 14, 8192
11, 210400, Pitch_bend_c, 14, 8320
11, 210560, Pitch_bend_c, 14, 8192
11, 210720, Pitch_bend_c, 14, 8320
11, 210880, Pitch_bend_c, 14, 8192
11, 211040, Pitch_bend_c, 14, 8320
11, 211200, Pitch_bend_c, 14, 8192
11, 211200, Pitch_bend_c, 14, 8320
11, 211200, Pitch_bend_c, 14, 8192
11, 211200, Note_off_c, 14, 66, 95
11, 211200, Note_on_c, 14, 61, 95
11, 211360, Pitch_bend_c, 14, 8192
11, 211520, Pitch_bend_c, 14, 8320
11, 211680, Pitch_bend_c, 14, 8192
11, 211840, Pitch_bend_c, 14, 8320
11, 212000, Pitch_bend_c, 14, 8192
11, 212160, Pitch_bend_c, 14, 8320
11, 212160, Pitch_bend_c, 14, 8192
11, 212160, Note_off_c, 14, 61, 95
11, 212160, Note_on_c, 14, 62, 95
11, 212320, Pitch_bend_c, 14, 8192
11, 212480, Pitch_bend_c, 14, 8320
11, 212640, Pitch_bend_c, 14, 8192
11, 212800, Pitch_bend_c, 14, 8320
11, 212960, Pitch_bend_c, 14, 8192
11, 213120, Pitch_bend_c, 14, 8320
11, 213280, Pitch_bend_c, 14, 8192
11, 213440, Pitch_bend_c, 14, 8320
11, 213600, Pitch_bend_c, 14, 8192
11, 213760, Pitch_bend_c, 14, 8320
11, 213920, Pitch_bend_c, 14, 8192
11, 214080, Pitch_bend_c, 14, 8320
11, 214240, Pitch_bend_c, 14, 8192
11, 214400, Pitch_bend_c, 14, 8320
11, 214560, Pitch_bend_c, 14, 8192
11, 214720, Pitch_bend_c, 14, 8320
11, 214880, Pitch_bend_c, 14, 8192
11, 215040, Pitch_bend_c, 14, 8320
11, 215040, Pitch_bend_c, 14, 8192
11, 215040, Note_off_c, 14, 62, 95
11, 215040, Note_on_c, 14, 69, 95
11, 215200, Pitch_bend_c, 14, 8192
11, 215360, Pitch_bend_c, 14, 8320
11, 215520, Pitch_bend_c, 14, 8192
11, 215680, Pitch_bend_c, 14, 8320
11, 215840, Pitch_bend_c, 14, 8192
11, 216000, Pitch_bend_c, 14, 8320
11, 216160, Pitch_bend_c, 14, 8192
11, 216320, Pitch_bend_c, 14, 8320
11, 216480, Pitch_bend_c, 14, 8192
11, 216480, Pitch_bend_c, 14, 8320
11, 216480, Pitch_bend_c, 14, 8192
11, 216480, Note_off_c, 14, 69, 95
11, 216480, Note_on_c, 14, 71, 95
11, 216640, Pitch_bend_c, 14, 8192
11, 216800, Pitch_bend_c, 14, 8320
11, 216960, Pitch_bend_c, 14, 8192
11, 217120, Pitch_bend_c, 14, 8320
11, 217280, Pitch_bend_c, 14, 8192
11, 217440, Pitch_bend_c, 14, 8320
11, 217600, Pitch_bend_c, 14, 8192
11, 217760, Pitch_bend_c, 14, 8320
11, 217920, Pitch_bend_c, 14, 8192
11, 217920, Pitch_bend_c, 14, 8320
11, 217920, Pitch_bend_c, 14, 8192
11, 217920, Note_off_c, 14, 71, 95
11, 217920, Note_on_c, 14, 69, 95
11, 218080, Pitch_bend_c, 14, 8192
11, 218240, Pitch_bend_c, 14, 8320
11, 218400, Pitch_bend_c, 14, 8192
11, 218560, Pitch_bend_c, 14, 8320
11, 218720, Pitch_bend_c, 14, 8192
11, 218880, Pitch_bend_c, 14, 8320
11, 218880, Pitch_bend_c, 14, 8192
11, 218880, Note_off_c, 14, 69, 95
11, 218880, End_track
12, 0, Start_track
12, 0, Pitch_bend_c, 12, 8192
12, 0, Control_c, 12, 7, 103
12, 0, Control_c, 12, 10, 63
12, 0, Control_c, 12, 93, 0
12, 0, Control_c, 12, 91, 0
12, 0, Control_c, 12, 95, 0
12, 0, Control_c, 12, 92, 0
12, 0, Control_c, 12, 11, 127
12, 0, Program_c, 12, 9
12, 12480, Note_on_c, 12, 69, 95
12, 15360, Note_off_c, 12, 69, 95
12, 15360, Note_on_c, 12, 62, 95
12, 15840, Note_off_c, 12, 62, 95
12, 15840, Note_on_c, 12, 66, 95
12, 16320, Note_off_c, 12, 66, 95
12, 16320, Note_on_c, 12, 69, 95
12, 16800, Note_off_c, 12, 69, 95
12, 16800, Note_on_c, 12, 62, 95
12, 17280, Note_off_c, 12, 62, 95
12, 17280, Note_on_c, 12, 66, 95
12, 17760, Note_off_c, 12, 66, 95
12, 17760, Note_on_c, 12, 69, 95
12, 18240, Note_off_c, 12, 69, 95
12, 18240, Note_on_c, 12, 64, 95
12, 19200, Note_off_c, 12, 64, 95
12, 27840, Note_on_c, 12, 69, 95
12, 30720, Note_off_c, 12, 69, 95
12, 30720, Note_on_c, 12, 62, 95
12, 31200, Note_off_c, 12, 62, 95
12, 31200, Note_on_c, 12, 66, 95
12, 31680, Note_off_c, 12, 66, 95
12, 31680, Note_on_c, 12, 69, 95
12, 32160, Note_off_c, 12, 69, 95
12, 32160, Note_on_c, 12, 62, 95
12, 32640, Note_off_c, 12, 62, 95
12, 32640, Note_on_c, 12, 66, 95
12, 33120, Note_off_c, 12, 66, 95
12, 33120, Note_on_c, 12, 69, 95
12, 33600, Note_off_c, 12, 69, 95
12, 33600, Note_on_c, 12, 64, 95
12, 34560, Note_off_c, 12, 64, 95
12, 43200, Note_on_c, 12, 69, 95
12, 46080, Note_off_c, 12, 69, 95
12, 46080, Note_on_c, 12, 62, 95
12, 46560, Note_off_c, 12, 62, 95
12, 46560, Note_on_c, 12, 66, 95
12, 47040, Note_off_c, 12, 66, 95
12, 47040, Note_on_c, 12, 69, 95
12, 47520, Note_off_c, 12, 69, 95
12, 47520, Note_on_c, 12, 62, 95
12, 48000, Note_off_c, 12, 62, 95
12, 48000, Note_on_c, 12, 66, 95
12, 48480, Note_off_c, 12, 66, 95
12, 48480, Note_on_c, 12, 69, 95
12, 48960, Note_off_c, 12, 69, 95
12, 48960, Note_on_c, 12, 64, 95
12, 49920, Note_off_c, 12, 64, 95
12, 58560, Note_on_c, 12, 69, 95
12, 61440, Note_off_c, 12, 69, 95
12, 61440, Note_on_c, 12, 62, 95
12, 61920, Note_off_c, 12, 62, 95
12, 61920, Note_on_c, 12, 66, 95
12, 62400, Note_off_c, 12, 66, 95
12, 62400, Note_on_c, 12, 69, 95
12, 62880, Note_off_c, 12, 69, 95
12, 62880, Note_on_c, 12, 62, 95
12, 63360, Note_off_c, 12, 62, 95
12, 63360, Note_on_c, 12, 66, 95
12, 63840, Note_off_c, 12, 66, 95
12, 63840, Note_on_c, 12, 69, 95
12, 64320, Note_off_c, 12, 69, 95
12, 64320, Note_on_c, 12, 64, 95
12, 65280, Note_off_c, 12, 64, 95
12, 73920, Note_on_c, 12, 69, 95
12, 76800, Note_off_c, 12, 69, 95
12, 76800, Note_on_c, 12, 62, 95
12, 77280, Note_off_c, 12, 62, 95
12, 77280, Note_on_c, 12, 66, 95
12, 77760, Note_off_c, 12, 66, 95
12, 77760, Note_on_c, 12, 69, 95
12, 78240, Note_off_c, 12, 69, 95
12, 78240, Note_on_c, 12, 62, 95
12, 78720, Note_off_c, 12, 62, 95
12, 78720, Note_on_c, 12, 66, 95
12, 79200, Note_off_c, 12, 66, 95
12, 79200, Note_on_c, 12, 69, 95
12, 79680, Note_off_c, 12, 69, 95
12, 79680, Note_on_c, 12, 64, 95
12, 80640, Note_off_c, 12, 64, 95
12, 89280, Note_on_c, 12, 69, 95
12, 92160, Note_off_c, 12, 69, 95
12, 92160, Note_on_c, 12, 62, 95
12, 92640, Note_off_c, 12, 62, 95
12, 92640, Note_on_c, 12, 66, 95
12, 93120, Note_off_c, 12, 66, 95
12, 93120, Note_on_c, 12, 69, 95
12, 93600, Note_off_c, 12, 69, 95
12, 93600, Note_on_c, 12, 62, 95
12, 94080, Note_off_c, 12, 62, 95
12, 94080, Note_on_c, 12, 66, 95
12, 94560, Note_off_c, 12, 66, 95
12, 94560, Note_on_c, 12, 69, 95
12, 95040, Note_off_c, 12, 69, 95
12, 95040, Note_on_c, 12, 64, 95
12, 96000, Note_off_c, 12, 64, 95
12, 104640, Note_on_c, 12, 69, 95
12, 107520, Note_off_c, 12, 69, 95
12, 107520, Note_on_c, 12, 62, 95
12, 108000, Note_off_c, 12, 62, 95
12, 108000, Note_on_c, 12, 66, 95
12, 108480, Note_off_c, 12, 66, 95
12, 108480, Note_on_c, 12, 69, 95
12, 108960, Note_off_c, 12, 69, 95
12, 108960, Note_on_c, 12, 62, 95
12, 109440, Note_off_c, 12, 62, 95
12, 109440, Note_on_c, 12, 66, 95
12, 109920, Note_off_c, 12, 66, 95
12, 109920, Note_on_c, 12, 69, 95
12, 110400, Note_off_c, 12, 69, 95
12, 110400, Note_on_c, 12, 64, 95
12, 111360, Note_off_c, 12, 64, 95
12, 120000, Note_on_c, 12, 69, 95
12, 122880, Note_off_c, 12, 69, 95
12, 122880, Note_on_c, 12, 62, 95
12, 123360, Note_off_c, 12, 62, 95
12, 123360, Note_on_c, 12, 66, 95
12, 123840, Note_off_c, 12, 66, 95
12, 123840, Note_on_c, 12, 69, 95
12, 124320, Note_off_c, 12, 69, 95
12, 124320, Note_on_c, 12, 62, 95
12, 124800, Note_off_c, 12, 62, 95
12, 124800, Note_on_c, 12, 66, 95
12, 125280, Note_off_c, 12, 66, 95
12, 125280, Note_on_c, 12, 69, 95
12, 125760, Note_off_c, 12, 69, 95
12, 125760, Note_on_c, 12, 64, 95
12, 126720, Note_off_c, 12, 64, 95
12, 135360, Note_on_c, 12, 69, 95
12, 138240, Note_off_c, 12, 69, 95
12, 138240, Note_on_c, 12, 62, 95
12, 138720, Note_off_c, 12, 62, 95
12, 138720, Note_on_c, 12, 66, 95
12, 139200, Note_off_c, 12, 66, 95
12, 139200, Note_on_c, 12, 69, 95
12, 139680, Note_off_c, 12, 69, 95
12, 139680, Note_on_c, 12, 62, 95
12, 140160, Note_off_c, 12, 62, 95
12, 140160, Note_on_c, 12, 66, 95
12, 140640, Note_off_c, 12, 66, 95
12, 140640, Note_on_c, 12, 69, 95
12, 141120, Note_off_c, 12, 69, 95
12, 141120, Note_on_c, 12, 64, 95
12, 142080, Note_off_c, 12, 64, 95
12, 150720, Note_on_c, 12, 69, 95
12, 153600, Note_off_c, 12, 69, 95
12, 153600, Note_on_c, 12, 62, 95
12, 154080, Note_off_c, 12, 62, 95
12, 154080, Note_on_c, 12, 66, 95
12, 154560, Note_off_c, 12, 66, 95
12, 154560, Note_on_c, 12, 69, 95
12, 155040, Note_off_c, 12, 69, 95
12, 155040, Note_on_c, 12, 62, 95
12, 155520, Note_off_c, 12, 62, 95
12, 155520, Note_on_c, 12, 66, 95
12, 156000, Note_off_c, 12, 66, 95
12, 156000, Note_on_c, 12, 69, 95
12, 156480, Note_off_c, 12, 69, 95
12, 156480, Note_on_c, 12, 64, 95
12, 157440, Note_off_c, 12, 64, 95
12, 166080, Note_on_c, 12, 69, 95
12, 168960, Note_off_c, 12, 69, 95
12, 168960, Note_on_c, 12, 62, 95
12, 169440, Note_off_c, 12, 62, 95
12, 169440, Note_on_c, 12, 66, 95
12, 169920, Note_off_c, 12, 66, 95
12, 169920, Note_on_c, 12, 69, 95
12, 170400, Note_off_c, 12, 69, 95
12, 170400, Note_on_c, 12, 62, 95
12, 170880, Note_off_c, 12, 62, 95
12, 170880, Note_on_c, 12, 66, 95
12, 171360, Note_off_c, 12, 66, 95
12, 171360, Note_on_c, 12, 69, 95
12, 171840, Note_off_c, 12, 69, 95
12, 171840, Note_on_c, 12, 64, 95
12, 172800, Note_off_c, 12, 64, 95
12, 181440, Note_on_c, 12, 69, 95
12, 184320, Note_off_c, 12, 69, 95
12, 184320, Note_on_c, 12, 62, 95
12, 184800, Note_off_c, 12, 62, 95
12, 184800, Note_on_c, 12, 66, 95
12, 185280, Note_off_c, 12, 66, 95
12, 185280, Note_on_c, 12, 69, 95
12, 185760, Note_off_c, 12, 69, 95
12, 185760, Note_on_c, 12, 62, 95
12, 186240, Note_off_c, 12, 62, 95
12, 186240, Note_on_c, 12, 66, 95
12, 186720, Note_off_c, 12, 66, 95
12, 186720, Note_on_c, 12, 69, 95
12, 187200, Note_off_c, 12, 69, 95
12, 187200, Note_on_c, 12, 64, 95
12, 188160, Note_off_c, 12, 64, 95
12, 196800, Note_on_c, 12, 69, 95
12, 199680, Note_off_c, 12, 69, 95
12, 199680, Note_on_c, 12, 62, 95
12, 200160, Note_off_c, 12, 62, 95
12, 200160, Note_on_c, 12, 66, 95
12, 200640, Note_off_c, 12, 66, 95
12, 200640, Note_on_c, 12, 69, 95
12, 201120, Note_off_c, 12, 69, 95
12, 201120, Note_on_c, 12, 62, 95
12, 201600, Note_off_c, 12, 62, 95
12, 201600, Note_on_c, 12, 66, 95
12, 202080, Note_off_c, 12, 66, 95
12, 202080, Note_on_c, 12, 69, 95
12, 202560, Note_off_c, 12, 69, 95
12, 202560, Note_on_c, 12, 64, 95
12, 203520, Note_off_c, 12, 64, 95
12, 212160, Note_on_c, 12, 69, 95
12, 215040, Note_off_c, 12, 69, 95
12, 215040, Note_on_c, 12, 62, 95
12, 215520, Note_off_c, 12, 62, 95
12, 215520, Note_on_c, 12, 66, 95
12, 216000, Note_off_c, 12, 66, 95
12, 216000, Note_on_c, 12, 69, 95
12, 216480, Note_off_c, 12, 69, 95
12, 216480, Note_on_c, 12, 62, 95
12, 216960, Note_off_c, 12, 62, 95
12, 216960, Note_on_c, 12, 66, 95
12, 217440, Note_off_c, 12, 66, 95
12, 217440, Note_on_c, 12, 69, 95
12, 217920, Note_off_c, 12, 69, 95
12, 217920, Note_on_c, 12, 64, 95
12, 218880, Note_off_c, 12, 64, 95
12, 258240, Note_on_c, 12, 69, 95
12, 261120, Note_off_c, 12, 69, 95
12, 261120, Note_on_c, 12, 62, 95
12, 261600, Note_off_c, 12, 62, 95
12, 261600, Note_on_c, 12, 66, 95
12, 262080, Note_off_c, 12, 66, 95
12, 262080, Note_on_c, 12, 69, 95
12, 262560, Note_off_c, 12, 69, 95
12, 262560, Note_on_c, 12, 62, 95
12, 263040, Note_off_c, 12, 62, 95
12, 263040, Note_on_c, 12, 66, 95
12, 263520, Note_off_c, 12, 66, 95
12, 263520, Note_on_c, 12, 69, 95
12, 264000, Note_off_c, 12, 69, 95
12, 264000, Note_on_c, 12, 64, 95
12, 264960, Note_off_c, 12, 64, 95
12, 273600, Note_on_c, 12, 69, 95
12, 276480, Note_off_c, 12, 69, 95
12, 276480, Note_on_c, 12, 62, 95
12, 276960, Note_off_c, 12, 62, 95
12, 276960, Note_on_c, 12, 66, 95
12, 277440, Note_off_c, 12, 66, 95
12, 277440, Note_on_c, 12, 69, 95
12, 277920, Note_off_c, 12, 69, 95
12, 277920, Note_on_c, 12, 62, 95
12, 278400, Note_off_c, 12, 62, 95
12, 278400, Note_on_c, 12, 66, 95
12, 278880, Note_off_c, 12, 66, 95
12, 278880, Note_on_c, 12, 69, 95
12, 279360, Note_off_c, 12, 69, 95
12, 279360, Note_on_c, 12, 64, 95
12, 280320, Note_off_c, 12, 64, 95
12, 280320, End_track
13, 0, Start_track
13, 0, Pitch_bend_c, 3, 8192
13, 0, Control_c, 3, 7, 87
13, 0, Control_c, 3, 10, 63
13, 0, Control_c, 3, 93, 0
13, 0, Control_c, 3, 91, 0
13, 0, Control_c, 3, 95, 0
13, 0, Control_c, 3, 92, 0
13, 0, Control_c, 3, 11, 127
13, 0, Program_c, 3, 22
13, 296160, Note_on_c, 3, 85, 95
13, 299520, Note_off_c, 3, 85, 95
13, 299520, Note_on_c, 3, 86, 95
13, 300480, Note_off_c, 3, 86, 95
13, 300480, Note_on_c, 3, 82, 95
13, 300720, Note_off_c, 3, 82, 95
13, 300720, Note_on_c, 3, 81, 95
13, 300960, Note_off_c, 3, 81, 95
13, 300960, Note_on_c, 3, 84, 95
13, 301200, Note_off_c, 3, 84, 95
13, 301200, Note_on_c, 3, 78, 95
13, 301440, Note_off_c, 3, 78, 95
13, 301440, Note_on_c, 3, 78, 95
13, 301920, Note_off_c, 3, 78, 95
13, 301920, Note_on_c, 3, 78, 95
13, 303360, Note_off_c, 3, 78, 95
13, 303360, Note_on_c, 3, 76, 95
13, 306720, Note_off_c, 3, 76, 95
13, 306720, Note_on_c, 3, 76, 95
13, 307200, Note_off_c, 3, 76, 95
13, 307200, Note_on_c, 3, 78, 95
13, 307440, Note_off_c, 3, 78, 95
13, 307440, Note_on_c, 3, 78, 95
13, 307920, Note_off_c, 3, 78, 95
13, 307920, Note_on_c, 3, 76, 95
13, 308160, Note_off_c, 3, 76, 95
13, 308160, Note_on_c, 3, 74, 95
13, 308640, Note_off_c, 3, 74, 95
13, 308640, Note_on_c, 3, 74, 95
13, 308880, Note_off_c, 3, 74, 95
13, 308880, Note_on_c, 3, 73, 95
13, 309840, Note_off_c, 3, 73, 95
13, 309840, Note_on_c, 3, 72, 95
13, 310320, Note_off_c, 3, 72, 95
13, 310320, Note_on_c, 3, 69, 95
13, 311040, Note_off_c, 3, 69, 95
13, 313440, Note_on_c, 3, 69, 95
13, 313920, Note_off_c, 3, 69, 95
13, 313920, Note_on_c, 3, 76, 95
13, 314400, Note_off_c, 3, 76, 95
13, 314400, Note_on_c, 3, 74, 95
13, 314880, Note_off_c, 3, 74, 95
13, 314880, Note_on_c, 3, 76, 95
13, 316320, Note_off_c, 3, 76, 95
13, 316320, Note_on_c, 3, 76, 95
13, 316800, Note_off_c, 3, 76, 95
13, 316800, Note_on_c, 3, 76, 95
13, 317440, Note_off_c, 3, 76, 95
13, 317440, Note_on_c, 3, 76, 95
13, 318080, Note_off_c, 3, 76, 95
13, 318080, Note_on_c, 3, 76, 95
13, 318720, Note_off_c, 3, 76, 95
13, 318720, Note_on_c, 3, 76, 95
13, 318960, Note_off_c, 3, 76, 95
13, 318960, Note_on_c, 3, 71, 95
13, 319200, Note_off_c, 3, 71, 95
13, 319200, Note_on_c, 3, 69, 95
13, 320160, Note_off_c, 3, 69, 95
13, 322080, Note_on_c, 3, 73, 95
13, 322320, Note_off_c, 3, 73, 95
13, 322320, Note_on_c, 3, 74, 95
13, 322560, Note_off_c, 3, 74, 95
13, 322560, Note_on_c, 3, 79, 95
13, 323200, Note_off_c, 3, 79, 95
13, 323200, Note_on_c, 3, 78, 95
13, 323840, Note_off_c, 3, 78, 95
13, 323840, Note_on_c, 3, 76, 95
13, 324480, Note_off_c, 3, 76, 95
13, 324480, Note_on_c, 3, 74, 95
13, 325120, Note_off_c, 3, 74, 95
13, 325120, Note_on_c, 3, 73, 95
13, 325760, Note_off_c, 3, 73, 95
13, 325760, Note_on_c, 3, 73, 95
13, 327360, Note_off_c, 3, 73, 95
13, 327360, Note_on_c, 3, 74, 95
13, 327840, Note_off_c, 3, 74, 95
13, 327840, Note_on_c, 3, 76, 95
13, 329760, Note_off_c, 3, 76, 95
13, 329760, Note_on_c, 3, 74, 95
13, 330000, Note_off_c, 3, 74, 95
13, 330000, Note_on_c, 3, 71, 95
13, 330240, Note_off_c, 3, 71, 95
13, 330240, Note_on_c, 3, 73, 95
13, 331200, Note_off_c, 3, 73, 95
13, 331200, Note_on_c, 3, 74, 95
13, 332640, Note_off_c, 3, 74, 95
13, 332640, Note_on_c, 3, 76, 95
13, 333600, Note_off_c, 3, 76, 95
13, 333600, Note_on_c, 3, 74, 95
13, 334080, Note_off_c, 3, 74, 95
13, 334080, Note_on_c, 3, 76, 95
13, 334720, Note_off_c, 3, 76, 95
13, 334720, Note_on_c, 3, 76, 95
13, 335360, Note_off_c, 3, 76, 95
13, 335360, Note_on_c, 3, 74, 95
13, 336000, Note_off_c, 3, 74, 95
13, 336000, Note_on_c, 3, 73, 95
13, 336640, Note_off_c, 3, 73, 95
13, 336640, Note_on_c, 3, 74, 95
13, 337280, Note_off_c, 3, 74, 95
13, 337280, Note_on_c, 3, 67, 95
13, 337920, Note_off_c, 3, 67, 95
13, 337920, Note_on_c, 3, 74, 95
13, 338400, Note_off_c, 3, 74, 95
13, 338400, Note_on_c, 3, 73, 95
13, 338880, Note_off_c, 3, 73, 95
13, 338880, Note_on_c, 3, 74, 95
13, 339360, Note_off_c, 3, 74, 95
13, 339360, Note_on_c, 3, 69, 95
13, 339840, Note_off_c, 3, 69, 95
13, 339840, Note_on_c, 3, 74, 95
13, 340320, Note_off_c, 3, 74, 95
13, 340320, Note_on_c, 3, 74, 95
13, 340800, Note_off_c, 3, 74, 95
13, 340800, Note_on_c, 3, 78, 95
13, 340800, Note_on_c, 3, 76, 95
13, 341760, Note_off_c, 3, 78, 95
13, 341760, Note_off_c, 3, 76, 95
13, 341760, Note_on_c, 3, 69, 95
13, 342000, Note_off_c, 3, 69, 95
13, 342240, Note_on_c, 3, 74, 95
13, 342240, Note_on_c, 3, 69, 95
13, 342480, Note_off_c, 3, 74, 95
13, 342480, Note_off_c, 3, 69, 95
13, 342480, Note_on_c, 3, 74, 95
13, 342480, Note_on_c, 3, 69, 95
13, 342720, Note_off_c, 3, 74, 95
13, 342720, Note_off_c, 3, 69, 95
13, 342720, Note_on_c, 3, 74, 95
13, 342720, Note_on_c, 3, 69, 95
13, 342960, Note_off_c, 3, 74, 95
13, 342960, Note_off_c, 3, 69, 95
13, 343200, Note_on_c, 3, 74, 95
13, 343200, Note_on_c, 3, 69, 95
13, 343440, Note_off_c, 3, 74, 95
13, 343440, Note_off_c, 3, 69, 95
13, 343440, Note_on_c, 3, 74, 95
13, 343440, Note_on_c, 3, 69, 95
13, 343680, Note_off_c, 3, 74, 95
13, 343680, Note_off_c, 3, 69, 95
13, 343680, Note_on_c, 3, 74, 95
13, 343680, Note_on_c, 3, 69, 95
13, 343920, Note_off_c, 3, 74, 95
13, 343920, Note_off_c, 3, 69, 95
13, 344160, Note_on_c, 3, 74, 95
13, 344160, Note_on_c, 3, 69, 95
13, 344400, Note_off_c, 3, 74, 95
13, 344400, Note_off_c, 3, 69, 95
13, 344400, Note_on_c, 3, 74, 95
13, 344400, Note_on_c, 3, 69, 95
13, 344640, Note_off_c, 3, 74, 95
13, 344640, Note_off_c, 3, 69, 95
13, 344640, Note_on_c, 3, 74, 95
13, 344640, Note_on_c, 3, 69, 95
13, 344880, Note_off_c, 3, 74, 95
13, 344880, Note_off_c, 3, 69, 95
13, 344880, Note_on_c, 3, 74, 95
13, 344880, Note_on_c, 3, 69, 95
13, 345120, Note_off_c, 3, 74, 95
13, 345120, Note_off_c, 3, 69, 95
13, 345120, Note_on_c, 3, 67, 95
13, 345120, Note_on_c, 3, 64, 95
13, 345600, Note_off_c, 3, 67, 95
13, 345600, Note_off_c, 3, 64, 95
13, 345600, Note_on_c, 3, 74, 95
13, 345600, Note_on_c, 3, 69, 95
13, 345840, Note_off_c, 3, 74, 95
13, 345840, Note_off_c, 3, 69, 95
13, 346080, Note_on_c, 3, 74, 95
13, 346080, Note_on_c, 3, 69, 95
13, 346320, Note_off_c, 3, 74, 95
13, 346320, Note_off_c, 3, 69, 95
13, 347040, Note_on_c, 3, 74, 95
13, 347040, Note_on_c, 3, 69, 95
13, 347280, Note_off_c, 3, 74, 95
13, 347280, Note_off_c, 3, 69, 95
13, 347520, Note_on_c, 3, 74, 95
13, 347520, Note_on_c, 3, 69, 95
13, 347760, Note_off_c, 3, 74, 95
13, 347760, Note_off_c, 3, 69, 95
13, 348000, Note_on_c, 3, 74, 95
13, 348000, Note_on_c, 3, 69, 95
13, 348240, Note_off_c, 3, 74, 95
13, 348240, Note_off_c, 3, 69, 95
13, 348480, Note_on_c, 3, 74, 95
13, 348480, Note_on_c, 3, 69, 95
13, 349440, Note_off_c, 3, 74, 95
13, 349440, Note_off_c, 3, 69, 95
13, 349440, Note_on_c, 3, 74, 95
13, 349440, Note_on_c, 3, 69, 95
13, 349680, Note_off_c, 3, 74, 95
13, 349680, Note_off_c, 3, 69, 95
13, 349920, Note_on_c, 3, 74, 95
13, 349920, Note_on_c, 3, 69, 95
13, 350160, Note_off_c, 3, 74, 95
13, 350160, Note_off_c, 3, 69, 95
13, 350880, Note_on_c, 3, 74, 95
13, 350880, Note_on_c, 3, 69, 95
13, 351120, Note_off_c, 3, 74, 95
13, 351120, Note_off_c, 3, 69, 95
13, 351360, Note_on_c, 3, 74, 95
13, 351360, Note_on_c, 3, 69, 95
13, 351600, Note_off_c, 3, 74, 95
13, 351600, Note_off_c, 3, 69, 95
13, 351840, Note_on_c, 3, 74, 95
13, 351840, Note_on_c, 3, 69, 95
13, 352080, Note_off_c, 3, 74, 95
13, 352080, Note_off_c, 3, 69, 95
13, 352320, Note_on_c, 3, 74, 95
13, 352320, Note_on_c, 3, 69, 95
13, 352800, Note_off_c, 3, 74, 95
13, 352800, Note_off_c, 3, 69, 95
13, 353280, Note_on_c, 3, 74, 95
13, 353280, Note_on_c, 3, 69, 95
13, 353520, Note_off_c, 3, 74, 95
13, 353520, Note_off_c, 3, 69, 95
13, 353760, Note_on_c, 3, 74, 95
13, 353760, Note_on_c, 3, 69, 95
13, 354000, Note_off_c, 3, 74, 95
13, 354000, Note_off_c, 3, 69, 95
13, 354720, Note_on_c, 3, 74, 95
13, 354720, Note_on_c, 3, 69, 95
13, 354960, Note_off_c, 3, 74, 95
13, 354960, Note_off_c, 3, 69, 95
13, 355200, Note_on_c, 3, 74, 95
13, 355200, Note_on_c, 3, 69, 95
13, 355440, Note_off_c, 3, 74, 95
13, 355440, Note_off_c, 3, 69, 95
13, 355680, Note_on_c, 3, 74, 95
13, 355680, Note_on_c, 3, 69, 95
13, 355920, Note_off_c, 3, 74, 95
13, 355920, Note_off_c, 3, 69, 95
13, 356160, Note_on_c, 3, 74, 95
13, 356160, Note_on_c, 3, 69, 95
13, 356640, Note_off_c, 3, 74, 95
13, 356640, Note_off_c, 3, 69, 95
13, 357120, Note_on_c, 3, 76, 95
13, 357120, Note_on_c, 3, 73, 95
13, 360000, Note_off_c, 3, 76, 95
13, 360000, Note_off_c, 3, 73, 95
13, 360000, Note_on_c, 3, 73, 95
13, 361440, Note_off_c, 3, 73, 95
13, 361440, Note_on_c, 3, 74, 95
13, 361920, Note_off_c, 3, 74, 95
13, 362400, Note_on_c, 3, 73, 95
13, 362640, Note_off_c, 3, 73, 95
13, 362640, Note_on_c, 3, 74, 95
13, 362880, Note_off_c, 3, 74, 95
13, 362880, Note_on_c, 3, 79, 95
13, 363840, Note_off_c, 3, 79, 95
13, 363840, Note_on_c, 3, 73, 95
13, 364800, Note_off_c, 3, 73, 95
13, 364800, Note_on_c, 3, 76, 95
13, 366720, Note_off_c, 3, 76, 95
13, 366720, Note_on_c, 3, 76, 95
13, 366960, Note_off_c, 3, 76, 95
13, 366960, Note_on_c, 3, 74, 95
13, 367200, Note_off_c, 3, 74, 95
13, 367200, Note_on_c, 3, 76, 95
13, 367680, Note_off_c, 3, 76, 95
13, 368160, Note_on_c, 3, 76, 95
13, 368640, Note_off_c, 3, 76, 95
13, 368880, Note_on_c, 3, 76, 95
13, 369360, Note_off_c, 3, 76, 95
13, 369600, Note_on_c, 3, 76, 95
13, 370080, Note_off_c, 3, 76, 95
13, 370320, Note_on_c, 3, 76, 95
13, 370800, Note_off_c, 3, 76, 95
13, 371040, Note_on_c, 3, 76, 95
13, 371280, Note_off_c, 3, 76, 95
13, 371280, Note_on_c, 3, 74, 95
13, 371520, Note_off_c, 3, 74, 95
13, 371520, Note_on_c, 3, 74, 95
13, 371760, Note_off_c, 3, 74, 95
13, 372000, Note_on_c, 3, 76, 95
13, 372000, Note_on_c, 3, 74, 95
13, 372240, Note_off_c, 3, 76, 95
13, 372240, Note_off_c, 3, 74, 95
13, 372480, Note_on_c, 3, 73, 95
13, 373440, Note_off_c, 3, 73, 95
13, 373440, Note_on_c, 3, 73, 95
13, 373560, Note_off_c, 3, 73, 95
13, 373560, Note_on_c, 3, 76, 95
13, 373800, Note_off_c, 3, 76, 95
13, 373800, Note_on_c, 3, 76, 95
13, 373800, Note_on_c, 3, 73, 95
13, 374280, Note_off_c, 3, 76, 95
13, 374280, Note_off_c, 3, 73, 95
13, 374280, Note_on_c, 3, 73, 95
13, 374520, Note_off_c, 3, 73, 95
13, 374520, Note_on_c, 3, 76, 95
13, 374640, Note_off_c, 3, 76, 95
13, 374640, Note_on_c, 3, 73, 95
13, 374880, Note_off_c, 3, 73, 95
13, 374880, Note_on_c, 3, 76, 95
13, 374880, Note_on_c, 3, 73, 95
13, 375120, Note_off_c, 3, 76, 95
13, 375120, Note_off_c, 3, 73, 95
13, 375360, Note_on_c, 3, 76, 95
13, 375360, Note_on_c, 3, 73, 95
13, 375600, Note_off_c, 3, 76, 95
13, 375600, Note_off_c, 3, 73, 95
13, 375600, Note_on_c, 3, 76, 95
13, 375600, Note_on_c, 3, 73, 95
13, 375840, Note_off_c, 3, 76, 95
13, 375840, Note_off_c, 3, 73, 95
13, 375840, Note_on_c, 3, 73, 95
13, 375840, Note_on_c, 3, 71, 95
13, 377040, Note_off_c, 3, 73, 95
13, 377040, Note_off_c, 3, 71, 95
13, 377040, Note_on_c, 3, 76, 95
13, 377040, Note_on_c, 3, 73, 95
13, 377280, Note_off_c, 3, 76, 95
13, 377280, Note_off_c, 3, 73, 95
13, 377520, Note_on_c, 3, 76, 95
13, 377520, Note_on_c, 3, 73, 95
13, 377760, Note_off_c, 3, 76, 95
13, 377760, Note_off_c, 3, 73, 95
13, 377760, Note_on_c, 3, 76, 95
13, 377760, Note_on_c, 3, 73, 95
13, 378000, Note_off_c, 3, 76, 95
13, 378000, Note_off_c, 3, 73, 95
13, 378240, Note_on_c, 3, 76, 95
13, 378240, Note_on_c, 3, 73, 95
13, 378480, Note_off_c, 3, 76, 95
13, 378480, Note_off_c, 3, 73, 95
13, 378720, Note_on_c, 3, 76, 95
13, 378720, Note_on_c, 3, 73, 95
13, 378960, Note_off_c, 3, 76, 95
13, 378960, Note_off_c, 3, 73, 95
13, 378960, Note_on_c, 3, 76, 95
13, 378960, Note_on_c, 3, 73, 95
13, 379920, Note_off_c, 3, 76, 95
13, 379920, Note_off_c, 3, 73, 95
13, 380400, Note_on_c, 3, 79, 95
13, 381360, Note_off_c, 3, 79, 95
13, 381360, Note_on_c, 3, 74, 95
13, 381840, Note_off_c, 3, 74, 95
13, 381840, Note_on_c, 3, 76, 95
13, 383760, Note_off_c, 3, 76, 95
13, 383760, Note_on_c, 3, 74, 95
13, 384000, Note_off_c, 3, 74, 95
13, 384000, Note_on_c, 3, 76, 95
13, 384480, Note_off_c, 3, 76, 95
13, 384480, Note_on_c, 3, 76, 95
13, 384960, Note_off_c, 3, 76, 95
13, 384960, Note_on_c, 3, 76, 95
13, 385440, Note_off_c, 3, 76, 95
13, 385440, Note_on_c, 3, 76, 95
13, 386160, Note_off_c, 3, 76, 95
13, 386160, Note_on_c, 3, 74, 95
13, 386880, Note_off_c, 3, 74, 95
13, 386880, Note_on_c, 3, 73, 95
13, 387360, Note_off_c, 3, 73, 95
13, 387840, Note_on_c, 3, 76, 95
13, 389760, Note_off_c, 3, 76, 95
13, 390480, Note_on_c, 3, 74, 95
13, 391200, Note_off_c, 3, 74, 95
13, 391200, Note_on_c, 3, 74, 95
13, 391680, Note_off_c, 3, 74, 95
13, 391680, Note_on_c, 3, 71, 95
13, 391680, Note_on_c, 3, 69, 95
13, 392400, Note_off_c, 3, 71, 95
13, 392400, Note_off_c, 3, 69, 95
13, 393360, Note_on_c, 3, 73, 95
13, 393600, Note_off_c, 3, 73, 95
13, 393600, Note_on_c, 3, 76, 95
13, 394560, Note_off_c, 3, 76, 95
13, 394560, Note_on_c, 3, 74, 95
13, 395520, Note_off_c, 3, 74, 95
13, 395520, Note_on_c, 3, 73, 95
13, 396240, Note_off_c, 3, 73, 95
13, 396240, Note_on_c, 3, 69, 95
13, 396720, Note_off_c, 3, 69, 95
13, 397680, Note_on_c, 3, 69, 95
13, 397920, Note_off_c, 3, 69, 95
13, 398880, Note_on_c, 3, 73, 95
13, 399120, Note_off_c, 3, 73, 95
13, 399120, Note_on_c, 3, 76, 95
13, 400320, Note_off_c, 3, 76, 95
13, 401280, Note_on_c, 3, 76, 95
13, 401520, Note_off_c, 3, 76, 95
13, 401520, Note_on_c, 3, 83, 95
13, 401520, Note_on_c, 3, 81, 95
13, 403200, Note_off_c, 3, 83, 95
13, 403200, Note_off_c, 3, 81, 95
13, 403200, End_track
0, 0, End_of_file
