0, 0, Header, 1, 4, 96
1, 0, Start_track
1, 0, Tempo, 500000
1, 0, Time_signature, 4, 2, 24, 8
1, 0, Key_signature, 3, "major"
1, 0, End_track
2, 0, Start_track
2, 0, Title_t, "\000"
2, 0, System_exclusive, 10, 65, 16, 66, 18, 64, 0, 127, 0, 65, 247
2, 0, Control_c, 0, 7, 99
2, 0, Control_c, 0, 10, 64
2, 0, Program_c, 0, 5
2, 96, Note_on_c, 0, 73, 64
2, 141, Note_off_c, 0, 73, 0
2, 144, Note_on_c, 0, 74, 64
2, 189, Note_off_c, 0, 74, 0
2, 192, Note_on_c, 0, 73, 64
2, 237, Note_off_c, 0, 73, 0
2, 240, Note_on_c, 0, 74, 64
2, 285, Note_off_c, 0, 74, 0
2, 288, Note_on_c, 0, 81, 64
2, 333, Note_off_c, 0, 81, 0
2, 336, Note_on_c, 0, 73, 64
2, 381, Note_off_c, 0, 73, 0
2, 384, Note_on_c, 0, 74, 64
2, 429, Note_off_c, 0, 74, 0
2, 432, Note_on_c, 0, 73, 64
2, 477, Note_off_c, 0, 73, 0
2, 480, Note_on_c, 0, 74, 64
2, 525, Note_off_c, 0, 74, 0
2, 528, Note_on_c, 0, 76, 64
2, 573, Note_off_c, 0, 76, 0
2, 576, Note_on_c, 0, 73, 64
2, 621, Note_off_c, 0, 73, 0
2, 624, Note_on_c, 0, 74, 64
2, 669, Note_off_c, 0, 74, 0
2, 672, Note_on_c, 0, 73, 64
2, 717, Note_off_c, 0, 73, 0
2, 720, Note_on_c, 0, 74, 64
2, 765, Note_off_c, 0, 74, 0
2, 768, Note_on_c, 0, 80, 64
2, 813, Note_off_c, 0, 80, 0
2, 816, Note_on_c, 0, 73, 64
2, 861, Note_off_c, 0, 73, 0
2, 864, Note_on_c, 0, 74, 64
2, 909, Note_off_c, 0, 74, 0
2, 912, Note_on_c, 0, 73, 64
2, 957, Note_off_c, 0, 73, 0
2, 960, Note_on_c, 0, 74, 64
2, 1005, Note_off_c, 0, 74, 0
2, 1008, Note_on_c, 0, 76, 64
2, 1053, Note_off_c, 0, 76, 0
2, 1056, Note_on_c, 0, 73, 64
2, 1101, Note_off_c, 0, 73, 0
2, 1104, Note_on_c, 0, 74, 64
2, 1149, Note_off_c, 0, 74, 0
2, 1152, Note_on_c, 0, 73, 64
2, 1197, Note_off_c, 0, 73, 0
2, 1200, Note_on_c, 0, 74, 64
2, 1245, Note_off_c, 0, 74, 0
2, 1248, Note_on_c, 0, 81, 64
2, 1293, Note_off_c, 0, 81, 0
2, 1296, Note_on_c, 0, 73, 64
2, 1341, Note_off_c, 0, 73, 0
2, 1344, Note_on_c, 0, 74, 64
2, 1389, Note_off_c, 0, 74, 0
2, 1392, Note_on_c, 0, 73, 64
2, 1437, Note_off_c, 0, 73, 0
2, 1440, Note_on_c, 0, 74, 64
2, 1485, Note_off_c, 0, 74, 0
2, 1488, Note_on_c, 0, 76, 64
2, 1533, Note_off_c, 0, 76, 0
2, 1536, Note_on_c, 0, 73, 64
2, 1581, Note_off_c, 0, 73, 0
2, 1584, Note_on_c, 0, 74, 64
2, 1629, Note_off_c, 0, 74, 0
2, 1632, Note_on_c, 0, 73, 64
2, 1677, Note_off_c, 0, 73, 0
2, 1680, Note_on_c, 0, 74, 64
2, 1725, Note_off_c, 0, 74, 0
2, 1728, Note_on_c, 0, 80, 64
2, 1773, Note_off_c, 0, 80, 0
2, 1776, Note_on_c, 0, 73, 64
2, 1821, Note_off_c, 0, 73, 0
2, 1824, Note_on_c, 0, 74, 64
2, 1869, Note_off_c, 0, 74, 0
2, 1872, Note_on_c, 0, 73, 64
2, 1917, Note_off_c, 0, 73, 0
2, 1920, Note_on_c, 0, 74, 64
2, 1965, Note_off_c, 0, 74, 0
2, 1968, Note_on_c, 0, 76, 64
2, 2013, Note_off_c, 0, 76, 0
2, 2016, Note_on_c, 0, 73, 64
2, 2061, Note_off_c, 0, 73, 0
2, 2064, Note_on_c, 0, 74, 64
2, 2109, Note_off_c, 0, 74, 0
2, 2112, Note_on_c, 0, 73, 64
2, 2157, Note_off_c, 0, 73, 0
2, 2160, Note_on_c, 0, 74, 64
2, 2205, Note_off_c, 0, 74, 0
2, 2208, Note_on_c, 0, 81, 64
2, 2253, Note_off_c, 0, 81, 0
2, 2256, Note_on_c, 0, 73, 64
2, 2301, Note_off_c, 0, 73, 0
2, 2304, Note_on_c, 0, 74, 64
2, 2349, Note_off_c, 0, 74, 0
2, 2352, Note_on_c, 0, 73, 64
2, 2397, Note_off_c, 0, 73, 0
2, 2400, Note_on_c, 0, 74, 64
2, 2445, Note_off_c, 0, 74, 0
2, 2448, Note_on_c, 0, 76, 64
2, 2493, Note_off_c, 0, 76, 0
2, 2496, Note_on_c, 0, 73, 64
2, 2541, Note_off_c, 0, 73, 0
2, 2544, Note_on_c, 0, 74, 64
2, 2589, Note_off_c, 0, 74, 0
2, 2592, Note_on_c, 0, 73, 64
2, 2637, Note_off_c, 0, 73, 0
2, 2640, Note_on_c, 0, 74, 64
2, 2685, Note_off_c, 0, 74, 0
2, 2688, Note_on_c, 0, 80, 64
2, 2733, Note_off_c, 0, 80, 0
2, 2736, Note_on_c, 0, 73, 64
2, 2781, Note_off_c, 0, 73, 0
2, 2784, Note_on_c, 0, 74, 64
2, 2829, Note_off_c, 0, 74, 0
2, 2832, Note_on_c, 0, 73, 64
2, 2877, Note_off_c, 0, 73, 0
2, 2880, Note_on_c, 0, 74, 64
2, 2925, Note_off_c, 0, 74, 0
2, 2928, Note_on_c, 0, 76, 64
2, 2973, Note_off_c, 0, 76, 0
2, 2976, Note_on_c, 0, 73, 64
2, 3021, Note_off_c, 0, 73, 0
2, 3024, Note_on_c, 0, 74, 64
2, 3069, Note_off_c, 0, 74, 0
2, 3072, Note_on_c, 0, 73, 64
2, 3117, Note_off_c, 0, 73, 0
2, 3120, Note_on_c, 0, 74, 64
2, 3165, Note_off_c, 0, 74, 0
2, 3168, Note_on_c, 0, 81, 64
2, 3213, Note_off_c, 0, 81, 0
2, 3216, Note_on_c, 0, 73, 64
2, 3261, Note_off_c, 0, 73, 0
2, 3264, Note_on_c, 0, 74, 64
2, 3309, Note_off_c, 0, 74, 0
2, 3312, Note_on_c, 0, 73, 64
2, 3357, Note_off_c, 0, 73, 0
2, 3360, Note_on_c, 0, 74, 64
2, 3405, Note_off_c, 0, 74, 0
2, 3408, Note_on_c, 0, 76, 64
2, 3453, Note_off_c, 0, 76, 0
2, 3456, Note_on_c, 0, 73, 64
2, 3501, Note_off_c, 0, 73, 0
2, 3504, Note_on_c, 0, 74, 64
2, 3549, Note_off_c, 0, 74, 0
2, 3552, Note_on_c, 0, 73, 64
2, 3597, Note_off_c, 0, 73, 0
2, 3600, Note_on_c, 0, 74, 64
2, 3645, Note_off_c, 0, 74, 0
2, 3648, Note_on_c, 0, 80, 64
2, 3693, Note_off_c, 0, 80, 0
2, 3696, Note_on_c, 0, 73, 64
2, 3741, Note_off_c, 0, 73, 0
2, 3744, Note_on_c, 0, 74, 64
2, 3789, Note_off_c, 0, 74, 0
2, 3792, Note_on_c, 0, 73, 64
2, 3837, Note_off_c, 0, 73, 0
2, 3840, Note_on_c, 0, 74, 64
2, 3885, Note_off_c, 0, 74, 0
2, 3888, Note_on_c, 0, 76, 64
2, 3933, Note_off_c, 0, 76, 0
2, 3936, Note_on_c, 0, 73, 64
2, 3981, Note_off_c, 0, 73, 0
2, 3984, Note_on_c, 0, 74, 64
2, 4029, Note_off_c, 0, 74, 0
2, 4032, Note_on_c, 0, 73, 64
2, 4077, Note_off_c, 0, 73, 0
2, 4080, Note_on_c, 0, 74, 64
2, 4125, Note_off_c, 0, 74, 0
2, 4128, Note_on_c, 0, 81, 64
2, 4173, Note_off_c, 0, 81, 0
2, 4176, Note_on_c, 0, 73, 64
2, 4221, Note_off_c, 0, 73, 0
2, 4224, Note_on_c, 0, 74, 64
2, 4269, Note_off_c, 0, 74, 0
2, 4272, Note_on_c, 0, 73, 64
2, 4317, Note_off_c, 0, 73, 0
2, 4320, Note_on_c, 0, 74, 64
2, 4365, Note_off_c, 0, 74, 0
2, 4368, Note_on_c, 0, 76, 64
2, 4413, Note_off_c, 0, 76, 0
2, 4416, Note_on_c, 0, 73, 64
2, 4461, Note_off_c, 0, 73, 0
2, 4464, Note_on_c, 0, 74, 64
2, 4509, Note_off_c, 0, 74, 0
2, 4512, Note_on_c, 0, 73, 64
2, 4557, Note_off_c, 0, 73, 0
2, 4560, Note_on_c, 0, 74, 64
2, 4605, Note_off_c, 0, 74, 0
2, 4608, Note_on_c, 0, 80, 64
2, 4653, Note_off_c, 0, 80, 0
2, 4656, Note_on_c, 0, 73, 64
2, 4701, Note_off_c, 0, 73, 0
2, 4704, Note_on_c, 0, 74, 64
2, 4749, Note_off_c, 0, 74, 0
2, 4752, Note_on_c, 0, 73, 64
2, 4797, Note_off_c, 0, 73, 0
2, 4800, Note_on_c, 0, 74, 64
2, 4845, Note_off_c, 0, 74, 0
2, 4848, Note_on_c, 0, 76, 64
2, 4893, Note_off_c, 0, 76, 0
2, 4896, Note_on_c, 0, 73, 64
2, 4941, Note_off_c, 0, 73, 0
2, 4944, Note_on_c, 0, 74, 64
2, 4989, Note_off_c, 0, 74, 0
2, 4992, Note_on_c, 0, 73, 64
2, 5037, Note_off_c, 0, 73, 0
2, 5040, Note_on_c, 0, 74, 64
2, 5085, Note_off_c, 0, 74, 0
2, 5088, Note_on_c, 0, 81, 64
2, 5133, Note_off_c, 0, 81, 0
2, 5136, Note_on_c, 0, 73, 64
2, 5181, Note_off_c, 0, 73, 0
2, 5184, Note_on_c, 0, 74, 64
2, 5229, Note_off_c, 0, 74, 0
2, 5232, Note_on_c, 0, 73, 64
2, 5277, Note_off_c, 0, 73, 0
2, 5280, Note_on_c, 0, 74, 64
2, 5325, Note_off_c, 0, 74, 0
2, 5328, Note_on_c, 0, 76, 64
2, 5373, Note_off_c, 0, 76, 0
2, 5376, Note_on_c, 0, 73, 64
2, 5421, Note_off_c, 0, 73, 0
2, 5424, Note_on_c, 0, 74, 64
2, 5469, Note_off_c, 0, 74, 0
2, 5472, Note_on_c, 0, 73, 64
2, 5517, Note_off_c, 0, 73, 0
2, 5520, Note_on_c, 0, 74, 64
2, 5565, Note_off_c, 0, 74, 0
2, 5568, Note_on_c, 0, 80, 64
2, 5613, Note_off_c, 0, 80, 0
2, 5616, Note_on_c, 0, 73, 64
2, 5661, Note_off_c, 0, 73, 0
2, 5664, Note_on_c, 0, 74, 64
2, 5709, Note_off_c, 0, 74, 0
2, 5712, Note_on_c, 0, 73, 64
2, 5757, Note_off_c, 0, 73, 0
2, 5760, Note_on_c, 0, 74, 64
2, 5805, Note_off_c, 0, 74, 0
2, 5808, Note_on_c, 0, 76, 64
2, 5853, Note_off_c, 0, 76, 0
2, 5856, Note_on_c, 0, 73, 64
2, 5901, Note_off_c, 0, 73, 0
2, 5904, Note_on_c, 0, 74, 64
2, 5949, Note_off_c, 0, 74, 0
2, 5952, Note_on_c, 0, 73, 64
2, 5997, Note_off_c, 0, 73, 0
2, 6000, Note_on_c, 0, 74, 64
2, 6045, Note_off_c, 0, 74, 0
2, 6048, Note_on_c, 0, 81, 64
2, 6093, Note_off_c, 0, 81, 0
2, 6096, Note_on_c, 0, 73, 64
2, 6141, Note_off_c, 0, 73, 0
2, 6144, Note_on_c, 0, 74, 64
2, 6189, Note_off_c, 0, 74, 0
2, 6192, Note_on_c, 0, 73, 64
2, 6237, Note_off_c, 0, 73, 0
2, 6240, Note_on_c, 0, 74, 64
2, 6285, Note_off_c, 0, 74, 0
2, 6288, Note_on_c, 0, 76, 64
2, 6333, Note_off_c, 0, 76, 0
2, 6336, Note_on_c, 0, 73, 64
2, 6381, Note_off_c, 0, 73, 0
2, 6384, Note_on_c, 0, 74, 64
2, 6429, Note_off_c, 0, 74, 0
2, 6432, Note_on_c, 0, 73, 64
2, 6477, Note_off_c, 0, 73, 0
2, 6480, Note_on_c, 0, 74, 64
2, 6525, Note_off_c, 0, 74, 0
2, 6528, Note_on_c, 0, 80, 64
2, 6573, Note_off_c, 0, 80, 0
2, 6576, Note_on_c, 0, 73, 64
2, 6621, Note_off_c, 0, 73, 0
2, 6624, Note_on_c, 0, 74, 64
2, 6669, Note_off_c, 0, 74, 0
2, 6672, Note_on_c, 0, 73, 64
2, 6717, Note_off_c, 0, 73, 0
2, 6720, Note_on_c, 0, 74, 64
2, 6765, Note_off_c, 0, 74, 0
2, 6768, Note_on_c, 0, 76, 64
2, 6813, Note_off_c, 0, 76, 0
2, 6816, Note_on_c, 0, 73, 64
2, 6861, Note_off_c, 0, 73, 0
2, 6864, Note_on_c, 0, 74, 64
2, 6909, Note_off_c, 0, 74, 0
2, 6912, Note_on_c, 0, 74, 64
2, 6957, Note_off_c, 0, 74, 0
2, 6960, Note_on_c, 0, 73, 64
2, 7005, Note_off_c, 0, 73, 0
2, 7008, Note_on_c, 0, 74, 64
2, 7053, Note_off_c, 0, 74, 0
2, 7056, Note_on_c, 0, 73, 64
2, 7101, Note_off_c, 0, 73, 0
2, 7104, Note_on_c, 0, 73, 64
2, 7149, Note_off_c, 0, 73, 0
2, 7152, Note_on_c, 0, 74, 64
2, 7197, Note_off_c, 0, 74, 0
2, 7200, Note_on_c, 0, 73, 64
2, 7245, Note_off_c, 0, 73, 0
2, 7248, Note_on_c, 0, 74, 64
2, 7341, Note_off_c, 0, 74, 0
2, 7344, Note_on_c, 0, 74, 64
2, 7356, Note_off_c, 0, 74, 0
2, 7392, Note_on_c, 0, 74, 64
2, 7437, Note_off_c, 0, 74, 0
2, 7440, Note_on_c, 0, 73, 64
2, 7485, Note_off_c, 0, 73, 0
2, 7488, Note_on_c, 0, 74, 64
2, 7533, Note_off_c, 0, 74, 0
2, 7536, Note_on_c, 0, 73, 64
2, 7581, Note_off_c, 0, 73, 0
2, 7584, Note_on_c, 0, 74, 64
2, 7596, Note_off_c, 0, 74, 0
2, 7632, Note_on_c, 0, 74, 64
2, 7677, Note_off_c, 0, 74, 0
2, 7680, Note_on_c, 0, 73, 64
2, 7725, Note_off_c, 0, 73, 0
2, 7728, Note_on_c, 0, 74, 64
2, 7773, Note_off_c, 0, 74, 0
2, 7776, Note_on_c, 0, 73, 64
2, 7821, Note_off_c, 0, 73, 0
2, 7824, Note_on_c, 0, 74, 64
2, 7836, Note_off_c, 0, 74, 0
2, 7872, Note_on_c, 0, 74, 64
2, 7917, Note_off_c, 0, 74, 0
2, 7920, Note_on_c, 0, 73, 64
2, 7965, Note_off_c, 0, 73, 0
2, 7968, Note_on_c, 0, 74, 64
2, 8013, Note_off_c, 0, 74, 0
2, 8016, Note_on_c, 0, 73, 64
2, 8061, Note_off_c, 0, 73, 0
2, 8064, Note_on_c, 0, 74, 64
2, 8076, Note_off_c, 0, 74, 0
2, 8112, Note_on_c, 0, 74, 64
2, 8157, Note_off_c, 0, 74, 0
2, 8160, Note_on_c, 0, 73, 64
2, 8205, Note_off_c, 0, 73, 0
2, 8208, Note_on_c, 0, 74, 64
2, 8253, Note_off_c, 0, 74, 0
2, 8256, Note_on_c, 0, 73, 64
2, 8301, Note_off_c, 0, 73, 0
2, 8304, Note_on_c, 0, 74, 64
2, 8316, Note_off_c, 0, 74, 0
2, 8352, Note_on_c, 0, 74, 64
2, 8397, Note_off_c, 0, 74, 0
2, 8400, Note_on_c, 0, 73, 64
2, 8445, Note_off_c, 0, 73, 0
2, 8448, Note_on_c, 0, 74, 64
2, 8493, Note_off_c, 0, 74, 0
2, 8496, Note_on_c, 0, 73, 64
2, 8541, Note_off_c, 0, 73, 0
2, 8544, Note_on_c, 0, 74, 64
2, 8556, Note_off_c, 0, 74, 0
2, 8592, Note_on_c, 0, 74, 64
2, 8637, Note_off_c, 0, 74, 0
2, 8640, Note_on_c, 0, 73, 64
2, 8685, Note_off_c, 0, 73, 0
2, 8736, Note_on_c, 0, 73, 64
2, 8781, Note_off_c, 0, 73, 0
2, 8784, Note_on_c, 0, 74, 64
2, 8829, Note_off_c, 0, 74, 0
2, 8832, Note_on_c, 0, 76, 64
2, 8877, Note_off_c, 0, 76, 0
2, 8880, Note_on_c, 0, 73, 64
2, 8925, Note_off_c, 0, 73, 0
2, 8928, Note_on_c, 0, 74, 64
2, 8973, Note_off_c, 0, 74, 0
2, 8976, Note_on_c, 0, 73, 64
2, 9021, Note_off_c, 0, 73, 0
2, 9024, Note_on_c, 0, 74, 64
2, 9036, Note_off_c, 0, 74, 0
2, 9072, Note_on_c, 0, 76, 64
2, 9117, Note_off_c, 0, 76, 0
2, 9120, Note_on_c, 0, 73, 64
2, 9165, Note_off_c, 0, 73, 0
2, 9168, Note_on_c, 0, 76, 64
2, 9213, Note_off_c, 0, 76, 0
2, 9216, Note_on_c, 0, 73, 64
2, 9261, Note_off_c, 0, 73, 0
2, 9264, Note_on_c, 0, 74, 64
2, 9276, Note_off_c, 0, 74, 0
2, 9312, Note_on_c, 0, 74, 64
2, 9357, Note_off_c, 0, 74, 0
2, 9360, Note_on_c, 0, 73, 64
2, 9405, Note_off_c, 0, 73, 0
2, 9408, Note_on_c, 0, 74, 64
2, 9453, Note_off_c, 0, 74, 0
2, 9456, Note_on_c, 0, 73, 64
2, 9501, Note_off_c, 0, 73, 0
2, 9504, Note_on_c, 0, 74, 64
2, 9516, Note_off_c, 0, 74, 0
2, 9552, Note_on_c, 0, 74, 64
2, 9597, Note_off_c, 0, 74, 0
2, 9600, Note_on_c, 0, 73, 64
2, 9645, Note_off_c, 0, 73, 0
2, 9648, Note_on_c, 0, 74, 64
2, 9660, Note_off_c, 0, 74, 0
2, 9696, Note_on_c, 0, 74, 64
2, 9741, Note_off_c, 0, 74, 0
2, 9744, Note_on_c, 0, 73, 64
2, 9789, Note_off_c, 0, 73, 0
2, 9792, Note_on_c, 0, 81, 64
2, 9837, Note_off_c, 0, 81, 0
2, 9840, Note_on_c, 0, 80, 64
2, 9885, Note_off_c, 0, 80, 0
2, 9888, Note_on_c, 0, 76, 64
2, 9933, Note_off_c, 0, 76, 0
2, 9936, Note_on_c, 0, 71, 64
2, 9981, Note_off_c, 0, 71, 0
2, 9984, Note_on_c, 0, 78, 64
2, 10029, Note_off_c, 0, 78, 0
2, 10032, Note_on_c, 0, 71, 64
2, 10077, Note_off_c, 0, 71, 0
2, 10080, Note_on_c, 0, 76, 64
2, 10125, Note_off_c, 0, 76, 0
2, 10128, Note_on_c, 0, 76, 64
2, 10173, Note_off_c, 0, 76, 0
2, 10176, Note_on_c, 0, 71, 64
2, 10221, Note_off_c, 0, 71, 0
2, 10224, Note_on_c, 0, 74, 64
2, 10269, Note_off_c, 0, 74, 0
2, 10272, Note_on_c, 0, 76, 64
2, 10317, Note_off_c, 0, 76, 0
2, 10320, Note_on_c, 0, 71, 64
2, 10365, Note_off_c, 0, 71, 0
2, 10368, Note_on_c, 0, 76, 64
2, 10413, Note_off_c, 0, 76, 0
2, 10416, Note_on_c, 0, 71, 64
2, 10461, Note_off_c, 0, 71, 0
2, 10464, Note_on_c, 0, 76, 64
2, 10509, Note_off_c, 0, 76, 0
2, 10512, Note_on_c, 0, 74, 64
2, 10557, Note_off_c, 0, 74, 0
2, 10560, Note_on_c, 0, 73, 64
2, 10605, Note_off_c, 0, 73, 0
2, 10608, Note_on_c, 0, 74, 64
2, 10653, Note_off_c, 0, 74, 0
2, 10656, Note_on_c, 0, 73, 64
2, 10701, Note_off_c, 0, 73, 0
2, 10704, Note_on_c, 0, 74, 64
2, 10749, Note_off_c, 0, 74, 0
2, 10752, Note_on_c, 0, 81, 64
2, 10797, Note_off_c, 0, 81, 0
2, 10800, Note_on_c, 0, 74, 64
2, 10845, Note_off_c, 0, 74, 0
2, 10848, Note_on_c, 0, 73, 64
2, 10893, Note_off_c, 0, 73, 0
2, 10896, Note_on_c, 0, 80, 64
2, 10941, Note_off_c, 0, 80, 0
2, 10944, Note_on_c, 0, 74, 64
2, 10989, Note_off_c, 0, 74, 0
2, 10992, Note_on_c, 0, 73, 64
2, 11037, Note_off_c, 0, 73, 0
2, 11040, Note_on_c, 0, 76, 64
2, 11085, Note_off_c, 0, 76, 0
2, 11088, Note_on_c, 0, 73, 64
2, 11133, Note_off_c, 0, 73, 0
2, 11136, Note_on_c, 0, 78, 64
2, 11181, Note_off_c, 0, 78, 0
2, 11184, Note_on_c, 0, 71, 64
2, 11229, Note_off_c, 0, 71, 0
2, 11232, Note_on_c, 0, 76, 64
2, 11277, Note_off_c, 0, 76, 0
2, 11280, Note_on_c, 0, 76, 64
2, 11325, Note_off_c, 0, 76, 0
2, 11328, Note_on_c, 0, 71, 64
2, 11373, Note_off_c, 0, 71, 0
2, 11376, Note_on_c, 0, 74, 64
2, 11421, Note_off_c, 0, 74, 0
2, 11424, Note_on_c, 0, 76, 64
2, 11469, Note_off_c, 0, 76, 0
2, 11472, Note_on_c, 0, 71, 64
2, 11517, Note_off_c, 0, 71, 0
2, 11520, Note_on_c, 0, 76, 64
2, 11565, Note_off_c, 0, 76, 0
2, 11568, Note_on_c, 0, 71, 64
2, 11613, Note_off_c, 0, 71, 0
2, 11616, Note_on_c, 0, 76, 64
2, 11661, Note_off_c, 0, 76, 0
2, 11664, Note_on_c, 0, 74, 64
2, 11709, Note_off_c, 0, 74, 0
2, 11712, Note_on_c, 0, 73, 64
2, 11757, Note_off_c, 0, 73, 0
2, 11760, Note_on_c, 0, 74, 64
2, 11805, Note_off_c, 0, 74, 0
2, 11808, Note_on_c, 0, 73, 64
2, 11853, Note_off_c, 0, 73, 0
2, 11856, Note_on_c, 0, 74, 64
2, 11901, Note_off_c, 0, 74, 0
2, 11904, Note_on_c, 0, 81, 64
2, 11949, Note_off_c, 0, 81, 0
2, 11952, Note_on_c, 0, 74, 64
2, 11997, Note_off_c, 0, 74, 0
2, 12000, Note_on_c, 0, 73, 64
2, 12045, Note_off_c, 0, 73, 0
2, 12048, Note_on_c, 0, 80, 64
2, 12093, Note_off_c, 0, 80, 0
2, 12096, Note_on_c, 0, 74, 64
2, 12141, Note_off_c, 0, 74, 0
2, 12144, Note_on_c, 0, 73, 64
2, 12189, Note_off_c, 0, 73, 0
2, 12192, Note_on_c, 0, 76, 64
2, 12237, Note_off_c, 0, 76, 0
2, 12240, Note_on_c, 0, 73, 64
2, 12285, Note_off_c, 0, 73, 0
2, 12288, Note_on_c, 0, 78, 64
2, 12333, Note_off_c, 0, 78, 0
2, 12336, Note_on_c, 0, 71, 64
2, 12381, Note_off_c, 0, 71, 0
2, 12384, Note_on_c, 0, 76, 64
2, 12429, Note_off_c, 0, 76, 0
2, 12432, Note_on_c, 0, 76, 64
2, 12477, Note_off_c, 0, 76, 0
2, 12480, Note_on_c, 0, 71, 64
2, 12525, Note_off_c, 0, 71, 0
2, 12528, Note_on_c, 0, 74, 64
2, 12573, Note_off_c, 0, 74, 0
2, 12576, Note_on_c, 0, 76, 64
2, 12621, Note_off_c, 0, 76, 0
2, 12624, Note_on_c, 0, 71, 64
2, 12669, Note_off_c, 0, 71, 0
2, 12672, Note_on_c, 0, 76, 64
2, 12717, Note_off_c, 0, 76, 0
2, 12720, Note_on_c, 0, 71, 64
2, 12765, Note_off_c, 0, 71, 0
2, 12768, Note_on_c, 0, 76, 64
2, 12813, Note_off_c, 0, 76, 0
2, 12816, Note_on_c, 0, 74, 64
2, 12861, Note_off_c, 0, 74, 0
2, 12864, Note_on_c, 0, 73, 64
2, 12909, Note_off_c, 0, 73, 0
2, 12912, Note_on_c, 0, 76, 64
2, 12957, Note_off_c, 0, 76, 0
2, 12960, Note_on_c, 0, 71, 64
2, 13005, Note_off_c, 0, 71, 0
2, 13008, Note_on_c, 0, 73, 64
2, 13053, Note_off_c, 0, 73, 0
2, 13056, Note_on_c, 0, 71, 64
2, 13101, Note_off_c, 0, 71, 0
2, 13104, Note_on_c, 0, 76, 64
2, 13149, Note_off_c, 0, 76, 0
2, 13152, Note_on_c, 0, 74, 64
2, 13197, Note_off_c, 0, 74, 0
2, 13200, Note_on_c, 0, 69, 64
2, 13245, Note_off_c, 0, 69, 0
2, 13248, Note_on_c, 0, 68, 64
2, 13293, Note_off_c, 0, 68, 0
2, 13296, Note_on_c, 0, 64, 64
2, 13341, Note_off_c, 0, 64, 0
2, 13344, Note_on_c, 0, 59, 64
2, 13433, Note_off_c, 0, 59, 0
2, 13440, Note_on_c, 0, 73, 64
2, 13485, Note_off_c, 0, 73, 0
2, 13488, Note_on_c, 0, 74, 64
2, 13533, Note_off_c, 0, 74, 0
2, 13536, Note_on_c, 0, 73, 64
2, 13581, Note_off_c, 0, 73, 0
2, 13584, Note_on_c, 0, 74, 64
2, 13629, Note_off_c, 0, 74, 0
2, 13632, Note_on_c, 0, 81, 64
2, 13677, Note_off_c, 0, 81, 0
2, 13680, Note_on_c, 0, 73, 64
2, 13725, Note_off_c, 0, 73, 0
2, 13728, Note_on_c, 0, 74, 64
2, 13773, Note_off_c, 0, 74, 0
2, 13776, Note_on_c, 0, 73, 64
2, 13821, Note_off_c, 0, 73, 0
2, 13824, Note_on_c, 0, 74, 64
2, 13869, Note_off_c, 0, 74, 0
2, 13872, Note_on_c, 0, 76, 64
2, 13917, Note_off_c, 0, 76, 0
2, 13920, Note_on_c, 0, 73, 64
2, 13965, Note_off_c, 0, 73, 0
2, 13968, Note_on_c, 0, 74, 64
2, 14013, Note_off_c, 0, 74, 0
2, 14016, Note_on_c, 0, 73, 64
2, 14061, Note_off_c, 0, 73, 0
2, 14064, Note_on_c, 0, 74, 64
2, 14109, Note_off_c, 0, 74, 0
2, 14112, Note_on_c, 0, 80, 64
2, 14157, Note_off_c, 0, 80, 0
2, 14160, Note_on_c, 0, 73, 64
2, 14205, Note_off_c, 0, 73, 0
2, 14208, Note_on_c, 0, 74, 64
2, 14253, Note_off_c, 0, 74, 0
2, 14256, Note_on_c, 0, 76, 64
2, 14301, Note_off_c, 0, 76, 0
2, 14304, Note_on_c, 0, 73, 64
2, 14349, Note_off_c, 0, 73, 0
2, 14352, Note_on_c, 0, 74, 64
2, 14397, Note_off_c, 0, 74, 0
2, 14400, Note_on_c, 0, 73, 64
2, 14445, Note_off_c, 0, 73, 0
2, 14448, Note_on_c, 0, 74, 64
2, 14493, Note_off_c, 0, 74, 0
2, 14496, Note_on_c, 0, 80, 64
2, 14541, Note_off_c, 0, 80, 0
2, 14544, Note_on_c, 0, 73, 64
2, 14589, Note_off_c, 0, 73, 0
2, 14592, Note_on_c, 0, 74, 64
2, 14637, Note_off_c, 0, 74, 0
2, 14640, Note_on_c, 0, 73, 64
2, 14685, Note_off_c, 0, 73, 0
2, 14688, Note_on_c, 0, 74, 64
2, 14733, Note_off_c, 0, 74, 0
2, 14736, Note_on_c, 0, 76, 64
2, 14781, Note_off_c, 0, 76, 0
2, 14784, Note_on_c, 0, 73, 64
2, 14829, Note_off_c, 0, 73, 0
2, 14832, Note_on_c, 0, 74, 64
2, 14877, Note_off_c, 0, 74, 0
2, 14880, Note_on_c, 0, 73, 64
2, 14925, Note_off_c, 0, 73, 0
2, 14928, Note_on_c, 0, 74, 64
2, 14973, Note_off_c, 0, 74, 0
2, 14976, Note_on_c, 0, 81, 64
2, 15021, Note_off_c, 0, 81, 0
2, 15024, Note_on_c, 0, 73, 64
2, 15069, Note_off_c, 0, 73, 0
2, 15072, Note_on_c, 0, 74, 64
2, 15117, Note_off_c, 0, 74, 0
2, 15120, Note_on_c, 0, 73, 64
2, 15165, Note_off_c, 0, 73, 0
2, 15168, Note_on_c, 0, 74, 64
2, 15213, Note_off_c, 0, 74, 0
2, 15216, Note_on_c, 0, 76, 64
2, 15261, Note_off_c, 0, 76, 0
2, 15264, Note_on_c, 0, 73, 64
2, 15309, Note_off_c, 0, 73, 0
2, 15312, Note_on_c, 0, 74, 64
2, 15357, Note_off_c, 0, 74, 0
2, 15360, Note_on_c, 0, 74, 64
2, 15405, Note_off_c, 0, 74, 0
2, 15408, Note_on_c, 0, 76, 64
2, 15453, Note_off_c, 0, 76, 0
2, 15456, Note_on_c, 0, 73, 64
2, 15501, Note_off_c, 0, 73, 0
2, 15504, Note_on_c, 0, 74, 64
2, 15549, Note_off_c, 0, 74, 0
2, 15552, Note_on_c, 0, 73, 64
2, 15597, Note_off_c, 0, 73, 0
2, 15600, Note_on_c, 0, 74, 64
2, 15645, Note_off_c, 0, 74, 0
2, 15648, Note_on_c, 0, 81, 64
2, 15693, Note_off_c, 0, 81, 0
2, 15696, Note_on_c, 0, 73, 64
2, 15741, Note_off_c, 0, 73, 0
2, 15744, Note_on_c, 0, 74, 64
2, 15789, Note_off_c, 0, 74, 0
2, 15792, Note_on_c, 0, 73, 64
2, 15837, Note_off_c, 0, 73, 0
2, 15840, Note_on_c, 0, 74, 64
2, 15885, Note_off_c, 0, 74, 0
2, 15888, Note_on_c, 0, 76, 64
2, 15933, Note_off_c, 0, 76, 0
2, 15936, Note_on_c, 0, 73, 64
2, 15981, Note_off_c, 0, 73, 0
2, 15984, Note_on_c, 0, 74, 64
2, 16029, Note_off_c, 0, 74, 0
2, 16032, Note_on_c, 0, 73, 64
2, 16077, Note_off_c, 0, 73, 0
2, 16080, Note_on_c, 0, 74, 64
2, 16125, Note_off_c, 0, 74, 0
2, 16128, Note_on_c, 0, 80, 64
2, 16173, Note_off_c, 0, 80, 0
2, 16176, Note_on_c, 0, 73, 64
2, 16221, Note_off_c, 0, 73, 0
2, 16224, Note_on_c, 0, 74, 64
2, 16269, Note_off_c, 0, 74, 0
2, 16272, Note_on_c, 0, 73, 64
2, 16317, Note_off_c, 0, 73, 0
2, 16320, Note_on_c, 0, 74, 64
2, 16365, Note_off_c, 0, 74, 0
2, 16368, Note_on_c, 0, 76, 64
2, 16413, Note_off_c, 0, 76, 0
2, 16416, Note_on_c, 0, 73, 64
2, 16461, Note_off_c, 0, 73, 0
2, 16464, Note_on_c, 0, 74, 64
2, 16509, Note_off_c, 0, 74, 0
2, 16512, Note_on_c, 0, 73, 64
2, 16557, Note_off_c, 0, 73, 0
2, 16560, Note_on_c, 0, 74, 64
2, 16605, Note_off_c, 0, 74, 0
2, 16608, Note_on_c, 0, 81, 64
2, 16653, Note_off_c, 0, 81, 0
2, 16656, Note_on_c, 0, 73, 64
2, 16701, Note_off_c, 0, 73, 0
2, 16704, Note_on_c, 0, 74, 64
2, 16749, Note_off_c, 0, 74, 0
2, 16752, Note_on_c, 0, 73, 64
2, 16797, Note_off_c, 0, 73, 0
2, 16800, Note_on_c, 0, 74, 64
2, 16845, Note_off_c, 0, 74, 0
2, 16848, Note_on_c, 0, 76, 64
2, 16893, Note_off_c, 0, 76, 0
2, 16896, Note_on_c, 0, 73, 64
2, 16941, Note_off_c, 0, 73, 0
2, 16944, Note_on_c, 0, 74, 64
2, 16989, Note_off_c, 0, 74, 0
2, 16992, Note_on_c, 0, 73, 64
2, 17037, Note_off_c, 0, 73, 0
2, 17040, Note_on_c, 0, 74, 64
2, 17085, Note_off_c, 0, 74, 0
2, 17088, Note_on_c, 0, 80, 64
2, 17133, Note_off_c, 0, 80, 0
2, 17136, Note_on_c, 0, 73, 64
2, 17181, Note_off_c, 0, 73, 0
2, 17184, Note_on_c, 0, 74, 64
2, 17229, Note_off_c, 0, 74, 0
2, 17232, Note_on_c, 0, 73, 64
2, 17277, Note_off_c, 0, 73, 0
2, 17280, Note_on_c, 0, 74, 64
2, 17325, Note_off_c, 0, 74, 0
2, 17328, Note_on_c, 0, 76, 64
2, 17373, Note_off_c, 0, 76, 0
2, 17376, Note_on_c, 0, 73, 64
2, 17421, Note_off_c, 0, 73, 0
2, 17424, Note_on_c, 0, 74, 64
2, 17469, Note_off_c, 0, 74, 0
2, 17472, Note_on_c, 0, 73, 64
2, 17517, Note_off_c, 0, 73, 0
2, 17520, Note_on_c, 0, 74, 64
2, 17565, Note_off_c, 0, 74, 0
2, 17568, Note_on_c, 0, 81, 64
2, 17613, Note_off_c, 0, 81, 0
2, 17616, Note_on_c, 0, 73, 64
2, 17661, Note_off_c, 0, 73, 0
2, 17664, Note_on_c, 0, 74, 64
2, 17709, Note_off_c, 0, 74, 0
2, 17712, Note_on_c, 0, 73, 64
2, 17757, Note_off_c, 0, 73, 0
2, 17760, Note_on_c, 0, 74, 64
2, 17805, Note_off_c, 0, 74, 0
2, 17808, Note_on_c, 0, 76, 64
2, 17853, Note_off_c, 0, 76, 0
2, 17856, Note_on_c, 0, 73, 64
2, 17901, Note_off_c, 0, 73, 0
2, 17904, Note_on_c, 0, 74, 64
2, 17949, Note_off_c, 0, 74, 0
2, 17952, Note_on_c, 0, 73, 64
2, 17997, Note_off_c, 0, 73, 0
2, 18000, Note_on_c, 0, 74, 64
2, 18045, Note_off_c, 0, 74, 0
2, 18048, Note_on_c, 0, 80, 64
2, 18093, Note_off_c, 0, 80, 0
2, 18096, Note_on_c, 0, 73, 64
2, 18141, Note_off_c, 0, 73, 0
2, 18144, Note_on_c, 0, 74, 64
2, 18189, Note_off_c, 0, 74, 0
2, 18192, Note_on_c, 0, 73, 64
2, 18237, Note_off_c, 0, 73, 0
2, 18240, Note_on_c, 0, 74, 64
2, 18285, Note_off_c, 0, 74, 0
2, 18288, Note_on_c, 0, 76, 64
2, 18333, Note_off_c, 0, 76, 0
2, 18336, Note_on_c, 0, 73, 64
2, 18381, Note_off_c, 0, 73, 0
2, 18384, Note_on_c, 0, 74, 64
2, 18429, Note_off_c, 0, 74, 0
2, 18432, Note_on_c, 0, 74, 64
2, 18477, Note_off_c, 0, 74, 0
2, 18480, Note_on_c, 0, 73, 64
2, 18525, Note_off_c, 0, 73, 0
2, 18528, Note_on_c, 0, 74, 64
2, 18573, Note_off_c, 0, 74, 0
2, 18576, Note_on_c, 0, 73, 64
2, 18621, Note_off_c, 0, 73, 0
2, 18624, Note_on_c, 0, 73, 64
2, 18669, Note_off_c, 0, 73, 0
2, 18672, Note_on_c, 0, 74, 64
2, 18717, Note_off_c, 0, 74, 0
2, 18720, Note_on_c, 0, 73, 64
2, 18765, Note_off_c, 0, 73, 0
2, 18768, Note_on_c, 0, 74, 64
2, 18861, Note_off_c, 0, 74, 0
2, 18864, Note_on_c, 0, 74, 64
2, 18876, Note_off_c, 0, 74, 0
2, 18912, Note_on_c, 0, 74, 64
2, 18957, Note_off_c, 0, 74, 0
2, 18960, Note_on_c, 0, 73, 64
2, 19005, Note_off_c, 0, 73, 0
2, 19008, Note_on_c, 0, 74, 64
2, 19053, Note_off_c, 0, 74, 0
2, 19056, Note_on_c, 0, 73, 64
2, 19101, Note_off_c, 0, 73, 0
2, 19104, Note_on_c, 0, 74, 64
2, 19116, Note_off_c, 0, 74, 0
2, 19152, Note_on_c, 0, 74, 64
2, 19197, Note_off_c, 0, 74, 0
2, 19200, Note_on_c, 0, 73, 64
2, 19245, Note_off_c, 0, 73, 0
2, 19248, Note_on_c, 0, 74, 64
2, 19293, Note_off_c, 0, 74, 0
2, 19296, Note_on_c, 0, 73, 64
2, 19341, Note_off_c, 0, 73, 0
2, 19344, Note_on_c, 0, 74, 64
2, 19356, Note_off_c, 0, 74, 0
2, 19392, Note_on_c, 0, 74, 64
2, 19437, Note_off_c, 0, 74, 0
2, 19440, Note_on_c, 0, 73, 64
2, 19485, Note_off_c, 0, 73, 0
2, 19488, Note_on_c, 0, 74, 64
2, 19533, Note_off_c, 0, 74, 0
2, 19536, Note_on_c, 0, 73, 64
2, 19581, Note_off_c, 0, 73, 0
2, 19584, Note_on_c, 0, 74, 64
2, 19596, Note_off_c, 0, 74, 0
2, 19632, Note_on_c, 0, 74, 64
2, 19677, Note_off_c, 0, 74, 0
2, 19680, Note_on_c, 0, 73, 64
2, 19725, Note_off_c, 0, 73, 0
2, 19728, Note_on_c, 0, 74, 64
2, 19773, Note_off_c, 0, 74, 0
2, 19776, Note_on_c, 0, 73, 64
2, 19821, Note_off_c, 0, 73, 0
2, 19824, Note_on_c, 0, 74, 64
2, 19836, Note_off_c, 0, 74, 0
2, 19872, Note_on_c, 0, 74, 64
2, 19917, Note_off_c, 0, 74, 0
2, 19920, Note_on_c, 0, 73, 64
2, 19965, Note_off_c, 0, 73, 0
2, 19968, Note_on_c, 0, 74, 64
2, 20013, Note_off_c, 0, 74, 0
2, 20016, Note_on_c, 0, 73, 64
2, 20061, Note_off_c, 0, 73, 0
2, 20064, Note_on_c, 0, 74, 64
2, 20076, Note_off_c, 0, 74, 0
2, 20112, Note_on_c, 0, 74, 64
2, 20157, Note_off_c, 0, 74, 0
2, 20160, Note_on_c, 0, 73, 64
2, 20205, Note_off_c, 0, 73, 0
2, 20256, Note_on_c, 0, 73, 64
2, 20301, Note_off_c, 0, 73, 0
2, 20304, Note_on_c, 0, 74, 64
2, 20349, Note_off_c, 0, 74, 0
2, 20352, Note_on_c, 0, 76, 64
2, 20397, Note_off_c, 0, 76, 0
2, 20400, Note_on_c, 0, 73, 64
2, 20445, Note_off_c, 0, 73, 0
2, 20448, Note_on_c, 0, 74, 64
2, 20493, Note_off_c, 0, 74, 0
2, 20496, Note_on_c, 0, 73, 64
2, 20541, Note_off_c, 0, 73, 0
2, 20544, Note_on_c, 0, 74, 64
2, 20556, Note_off_c, 0, 74, 0
2, 20592, Note_on_c, 0, 76, 64
2, 20637, Note_off_c, 0, 76, 0
2, 20640, Note_on_c, 0, 73, 64
2, 20685, Note_off_c, 0, 73, 0
2, 20688, Note_on_c, 0, 76, 64
2, 20733, Note_off_c, 0, 76, 0
2, 20736, Note_on_c, 0, 73, 64
2, 20781, Note_off_c, 0, 73, 0
2, 20784, Note_on_c, 0, 74, 64
2, 20796, Note_off_c, 0, 74, 0
2, 20832, Note_on_c, 0, 74, 64
2, 20877, Note_off_c, 0, 74, 0
2, 20880, Note_on_c, 0, 73, 64
2, 20925, Note_off_c, 0, 73, 0
2, 20928, Note_on_c, 0, 74, 64
2, 20973, Note_off_c, 0, 74, 0
2, 20976, Note_on_c, 0, 73, 64
2, 21021, Note_off_c, 0, 73, 0
2, 21024, Note_on_c, 0, 74, 64
2, 21036, Note_off_c, 0, 74, 0
2, 21072, Note_on_c, 0, 74, 64
2, 21117, Note_off_c, 0, 74, 0
2, 21120, Note_on_c, 0, 73, 64
2, 21165, Note_off_c, 0, 73, 0
2, 21168, Note_on_c, 0, 74, 64
2, 21180, Note_off_c, 0, 74, 0
2, 21216, Note_on_c, 0, 74, 64
2, 21261, Note_off_c, 0, 74, 0
2, 21264, Note_on_c, 0, 73, 64
2, 21309, Note_off_c, 0, 73, 0
2, 21312, Note_on_c, 0, 81, 64
2, 21357, Note_off_c, 0, 81, 0
2, 21360, Note_on_c, 0, 80, 64
2, 21405, Note_off_c, 0, 80, 0
2, 21408, Note_on_c, 0, 76, 64
2, 21453, Note_off_c, 0, 76, 0
2, 21456, Note_on_c, 0, 71, 64
2, 21501, Note_off_c, 0, 71, 0
2, 21504, Note_on_c, 0, 78, 64
2, 21549, Note_off_c, 0, 78, 0
2, 21552, Note_on_c, 0, 71, 64
2, 21597, Note_off_c, 0, 71, 0
2, 21600, Note_on_c, 0, 76, 64
2, 21645, Note_off_c, 0, 76, 0
2, 21648, Note_on_c, 0, 76, 64
2, 21693, Note_off_c, 0, 76, 0
2, 21696, Note_on_c, 0, 71, 64
2, 21741, Note_off_c, 0, 71, 0
2, 21744, Note_on_c, 0, 74, 64
2, 21789, Note_off_c, 0, 74, 0
2, 21792, Note_on_c, 0, 76, 64
2, 21837, Note_off_c, 0, 76, 0
2, 21840, Note_on_c, 0, 71, 64
2, 21885, Note_off_c, 0, 71, 0
2, 21888, Note_on_c, 0, 76, 64
2, 21933, Note_off_c, 0, 76, 0
2, 21936, Note_on_c, 0, 71, 64
2, 21981, Note_off_c, 0, 71, 0
2, 21984, Note_on_c, 0, 76, 64
2, 22029, Note_off_c, 0, 76, 0
2, 22032, Note_on_c, 0, 74, 64
2, 22077, Note_off_c, 0, 74, 0
2, 22080, Note_on_c, 0, 73, 64
2, 22125, Note_off_c, 0, 73, 0
2, 22128, Note_on_c, 0, 74, 64
2, 22173, Note_off_c, 0, 74, 0
2, 22176, Note_on_c, 0, 73, 64
2, 22221, Note_off_c, 0, 73, 0
2, 22224, Note_on_c, 0, 74, 64
2, 22269, Note_off_c, 0, 74, 0
2, 22272, Note_on_c, 0, 81, 64
2, 22317, Note_off_c, 0, 81, 0
2, 22320, Note_on_c, 0, 74, 64
2, 22365, Note_off_c, 0, 74, 0
2, 22368, Note_on_c, 0, 73, 64
2, 22413, Note_off_c, 0, 73, 0
2, 22416, Note_on_c, 0, 80, 64
2, 22461, Note_off_c, 0, 80, 0
2, 22464, Note_on_c, 0, 74, 64
2, 22509, Note_off_c, 0, 74, 0
2, 22512, Note_on_c, 0, 73, 64
2, 22557, Note_off_c, 0, 73, 0
2, 22560, Note_on_c, 0, 76, 64
2, 22605, Note_off_c, 0, 76, 0
2, 22608, Note_on_c, 0, 73, 64
2, 22653, Note_off_c, 0, 73, 0
2, 22656, Note_on_c, 0, 78, 64
2, 22701, Note_off_c, 0, 78, 0
2, 22704, Note_on_c, 0, 71, 64
2, 22749, Note_off_c, 0, 71, 0
2, 22752, Note_on_c, 0, 76, 64
2, 22797, Note_off_c, 0, 76, 0
2, 22800, Note_on_c, 0, 76, 64
2, 22845, Note_off_c, 0, 76, 0
2, 22848, Note_on_c, 0, 71, 64
2, 22893, Note_off_c, 0, 71, 0
2, 22896, Note_on_c, 0, 74, 64
2, 22941, Note_off_c, 0, 74, 0
2, 22944, Note_on_c, 0, 76, 64
2, 22989, Note_off_c, 0, 76, 0
2, 22992, Note_on_c, 0, 71, 64
2, 23037, Note_off_c, 0, 71, 0
2, 23040, Note_on_c, 0, 76, 64
2, 23085, Note_off_c, 0, 76, 0
2, 23088, Note_on_c, 0, 71, 64
2, 23133, Note_off_c, 0, 71, 0
2, 23136, Note_on_c, 0, 76, 64
2, 23181, Note_off_c, 0, 76, 0
2, 23184, Note_on_c, 0, 74, 64
2, 23229, Note_off_c, 0, 74, 0
2, 23232, Note_on_c, 0, 73, 64
2, 23277, Note_off_c, 0, 73, 0
2, 23280, Note_on_c, 0, 74, 64
2, 23325, Note_off_c, 0, 74, 0
2, 23328, Note_on_c, 0, 73, 64
2, 23373, Note_off_c, 0, 73, 0
2, 23376, Note_on_c, 0, 74, 64
2, 23421, Note_off_c, 0, 74, 0
2, 23424, Note_on_c, 0, 81, 64
2, 23469, Note_off_c, 0, 81, 0
2, 23472, Note_on_c, 0, 74, 64
2, 23517, Note_off_c, 0, 74, 0
2, 23520, Note_on_c, 0, 73, 64
2, 23565, Note_off_c, 0, 73, 0
2, 23568, Note_on_c, 0, 80, 64
2, 23613, Note_off_c, 0, 80, 0
2, 23616, Note_on_c, 0, 74, 64
2, 23661, Note_off_c, 0, 74, 0
2, 23664, Note_on_c, 0, 73, 64
2, 23709, Note_off_c, 0, 73, 0
2, 23712, Note_on_c, 0, 76, 64
2, 23757, Note_off_c, 0, 76, 0
2, 23760, Note_on_c, 0, 73, 64
2, 23805, Note_off_c, 0, 73, 0
2, 23808, Note_on_c, 0, 78, 64
2, 23853, Note_off_c, 0, 78, 0
2, 23856, Note_on_c, 0, 71, 64
2, 23901, Note_off_c, 0, 71, 0
2, 23904, Note_on_c, 0, 76, 64
2, 23949, Note_off_c, 0, 76, 0
2, 23952, Note_on_c, 0, 76, 64
2, 23997, Note_off_c, 0, 76, 0
2, 24000, Note_on_c, 0, 71, 64
2, 24045, Note_off_c, 0, 71, 0
2, 24048, Note_on_c, 0, 74, 64
2, 24093, Note_off_c, 0, 74, 0
2, 24096, Note_on_c, 0, 76, 64
2, 24141, Note_off_c, 0, 76, 0
2, 24144, Note_on_c, 0, 71, 64
2, 24189, Note_off_c, 0, 71, 0
2, 24192, Note_on_c, 0, 76, 64
2, 24237, Note_off_c, 0, 76, 0
2, 24240, Note_on_c, 0, 71, 64
2, 24285, Note_off_c, 0, 71, 0
2, 24288, Note_on_c, 0, 76, 64
2, 24333, Note_off_c, 0, 76, 0
2, 24336, Note_on_c, 0, 74, 64
2, 24381, Note_off_c, 0, 74, 0
2, 24384, Note_on_c, 0, 73, 64
2, 24429, Note_off_c, 0, 73, 0
2, 24432, Note_on_c, 0, 76, 64
2, 24477, Note_off_c, 0, 76, 0
2, 24480, Note_on_c, 0, 71, 64
2, 24525, Note_off_c, 0, 71, 0
2, 24528, Note_on_c, 0, 73, 64
2, 24573, Note_off_c, 0, 73, 0
2, 24576, Note_on_c, 0, 71, 64
2, 24621, Note_off_c, 0, 71, 0
2, 24624, Note_on_c, 0, 76, 64
2, 24669, Note_off_c, 0, 76, 0
2, 24672, Note_on_c, 0, 74, 64
2, 24717, Note_off_c, 0, 74, 0
2, 24720, Note_on_c, 0, 69, 64
2, 24765, Note_off_c, 0, 69, 0
2, 24768, Note_on_c, 0, 68, 64
2, 24813, Note_off_c, 0, 68, 0
2, 24816, Note_on_c, 0, 64, 64
2, 24861, Note_off_c, 0, 64, 0
2, 24864, Note_on_c, 0, 59, 64
2, 24953, Note_off_c, 0, 59, 0
2, 24960, Note_on_c, 0, 73, 64
2, 25005, Note_off_c, 0, 73, 0
2, 25008, Note_on_c, 0, 74, 64
2, 25053, Note_off_c, 0, 74, 0
2, 25056, Note_on_c, 0, 73, 64
2, 25101, Note_off_c, 0, 73, 0
2, 25104, Note_on_c, 0, 74, 64
2, 25149, Note_off_c, 0, 74, 0
2, 25152, Note_on_c, 0, 81, 64
2, 25197, Note_off_c, 0, 81, 0
2, 25200, Note_on_c, 0, 73, 64
2, 25245, Note_off_c, 0, 73, 0
2, 25248, Note_on_c, 0, 74, 64
2, 25293, Note_off_c, 0, 74, 0
2, 25296, Note_on_c, 0, 73, 64
2, 25341, Note_off_c, 0, 73, 0
2, 25344, Note_on_c, 0, 74, 64
2, 25389, Note_off_c, 0, 74, 0
2, 25392, Note_on_c, 0, 76, 64
2, 25437, Note_off_c, 0, 76, 0
2, 25440, Note_on_c, 0, 73, 64
2, 25485, Note_off_c, 0, 73, 0
2, 25488, Note_on_c, 0, 74, 64
2, 25533, Note_off_c, 0, 74, 0
2, 25536, Note_on_c, 0, 73, 64
2, 25581, Note_off_c, 0, 73, 0
2, 25584, Note_on_c, 0, 74, 64
2, 25629, Note_off_c, 0, 74, 0
2, 25632, Note_on_c, 0, 80, 64
2, 25677, Note_off_c, 0, 80, 0
2, 25680, Note_on_c, 0, 73, 64
2, 25725, Note_off_c, 0, 73, 0
2, 25728, Note_on_c, 0, 74, 64
2, 25773, Note_off_c, 0, 74, 0
2, 25776, Note_on_c, 0, 76, 64
2, 25821, Note_off_c, 0, 76, 0
2, 25824, Note_on_c, 0, 73, 64
2, 25869, Note_off_c, 0, 73, 0
2, 25872, Note_on_c, 0, 74, 64
2, 25917, Note_off_c, 0, 74, 0
2, 25920, Note_on_c, 0, 73, 64
2, 25965, Note_off_c, 0, 73, 0
2, 25968, Note_on_c, 0, 74, 64
2, 26013, Note_off_c, 0, 74, 0
2, 26016, Note_on_c, 0, 80, 64
2, 26061, Note_off_c, 0, 80, 0
2, 26064, Note_on_c, 0, 73, 64
2, 26109, Note_off_c, 0, 73, 0
2, 26112, Note_on_c, 0, 74, 64
2, 26157, Note_off_c, 0, 74, 0
2, 26160, Note_on_c, 0, 73, 64
2, 26205, Note_off_c, 0, 73, 0
2, 26208, Note_on_c, 0, 74, 64
2, 26253, Note_off_c, 0, 74, 0
2, 26256, Note_on_c, 0, 76, 64
2, 26301, Note_off_c, 0, 76, 0
2, 26304, Note_on_c, 0, 73, 64
2, 26349, Note_off_c, 0, 73, 0
2, 26352, Note_on_c, 0, 74, 64
2, 26397, Note_off_c, 0, 74, 0
2, 26400, Note_on_c, 0, 73, 64
2, 26445, Note_off_c, 0, 73, 0
2, 26448, Note_on_c, 0, 74, 64
2, 26493, Note_off_c, 0, 74, 0
2, 26496, Note_on_c, 0, 81, 64
2, 26541, Note_off_c, 0, 81, 0
2, 26544, Note_on_c, 0, 73, 64
2, 26589, Note_off_c, 0, 73, 0
2, 26592, Note_on_c, 0, 74, 64
2, 26637, Note_off_c, 0, 74, 0
2, 26640, Note_on_c, 0, 73, 64
2, 26685, Note_off_c, 0, 73, 0
2, 26688, Note_on_c, 0, 74, 64
2, 26733, Note_off_c, 0, 74, 0
2, 26736, Note_on_c, 0, 76, 64
2, 26781, Note_off_c, 0, 76, 0
2, 26784, Note_on_c, 0, 73, 64
2, 26829, Note_off_c, 0, 73, 0
2, 26832, Note_on_c, 0, 74, 64
2, 26877, Note_off_c, 0, 74, 0
2, 26928, Note_on_c, 0, 76, 64
2, 27017, Note_off_c, 0, 76, 0
2, 27024, Note_on_c, 0, 78, 64
2, 27069, Note_off_c, 0, 78, 0
2, 27072, Note_on_c, 0, 78, 64
2, 27117, Note_off_c, 0, 78, 0
2, 27120, Note_on_c, 0, 80, 64
2, 27209, Note_off_c, 0, 80, 0
2, 27216, Note_on_c, 0, 81, 64
2, 27309, Note_off_c, 0, 81, 0
2, 27312, Note_on_c, 0, 80, 64
2, 27357, Note_off_c, 0, 80, 0
2, 27360, Note_on_c, 0, 69, 64
2, 27405, Note_off_c, 0, 69, 0
2, 27408, Note_on_c, 0, 81, 64
2, 27453, Note_off_c, 0, 81, 0
2, 27456, Note_on_c, 0, 80, 64
2, 27501, Note_off_c, 0, 80, 0
2, 27504, Note_on_c, 0, 69, 64
2, 27549, Note_off_c, 0, 69, 0
2, 27552, Note_on_c, 0, 81, 64
2, 27597, Note_off_c, 0, 81, 0
2, 27600, Note_on_c, 0, 80, 64
2, 27645, Note_off_c, 0, 80, 0
2, 27648, Note_on_c, 0, 69, 64
2, 27693, Note_off_c, 0, 69, 0
2, 27696, Note_on_c, 0, 76, 64
2, 27741, Note_off_c, 0, 76, 0
2, 27744, Note_on_c, 0, 69, 64
2, 27789, Note_off_c, 0, 69, 0
2, 27792, Note_on_c, 0, 78, 64
2, 27837, Note_off_c, 0, 78, 0
2, 27840, Note_on_c, 0, 69, 64
2, 27885, Note_off_c, 0, 69, 0
2, 27888, Note_on_c, 0, 80, 64
2, 27933, Note_off_c, 0, 80, 0
2, 27936, Note_on_c, 0, 69, 64
2, 27981, Note_off_c, 0, 69, 0
2, 27984, Note_on_c, 0, 81, 64
2, 28029, Note_off_c, 0, 81, 0
2, 28032, Note_on_c, 0, 80, 64
2, 28077, Note_off_c, 0, 80, 0
2, 28080, Note_on_c, 0, 69, 64
2, 28125, Note_off_c, 0, 69, 0
2, 28128, Note_on_c, 0, 81, 64
2, 28173, Note_off_c, 0, 81, 0
2, 28176, Note_on_c, 0, 80, 64
2, 28221, Note_off_c, 0, 80, 0
2, 28224, Note_on_c, 0, 69, 64
2, 28269, Note_off_c, 0, 69, 0
2, 28272, Note_on_c, 0, 80, 64
2, 28317, Note_off_c, 0, 80, 0
2, 28320, Note_on_c, 0, 85, 64
2, 28365, Note_off_c, 0, 85, 0
2, 28368, Note_on_c, 0, 80, 64
2, 28413, Note_off_c, 0, 80, 0
2, 28416, Note_on_c, 0, 69, 64
2, 28461, Note_off_c, 0, 69, 0
2, 28464, Note_on_c, 0, 76, 64
2, 28509, Note_off_c, 0, 76, 0
2, 28512, Note_on_c, 0, 69, 64
2, 28557, Note_off_c, 0, 69, 0
2, 28560, Note_on_c, 0, 78, 64
2, 28605, Note_off_c, 0, 78, 0
2, 28608, Note_on_c, 0, 69, 64
2, 28653, Note_off_c, 0, 69, 0
2, 28656, Note_on_c, 0, 80, 64
2, 28701, Note_off_c, 0, 80, 0
2, 28704, Note_on_c, 0, 69, 64
2, 28749, Note_off_c, 0, 69, 0
2, 28752, Note_on_c, 0, 81, 64
2, 28797, Note_off_c, 0, 81, 0
2, 28800, Note_on_c, 0, 80, 64
2, 28845, Note_off_c, 0, 80, 0
2, 28848, Note_on_c, 0, 69, 64
2, 28893, Note_off_c, 0, 69, 0
2, 28896, Note_on_c, 0, 81, 64
2, 28941, Note_off_c, 0, 81, 0
2, 28944, Note_on_c, 0, 80, 64
2, 28989, Note_off_c, 0, 80, 0
2, 28992, Note_on_c, 0, 69, 64
2, 29037, Note_off_c, 0, 69, 0
2, 29040, Note_on_c, 0, 80, 64
2, 29085, Note_off_c, 0, 80, 0
2, 29088, Note_on_c, 0, 88, 64
2, 29133, Note_off_c, 0, 88, 0
2, 29136, Note_on_c, 0, 78, 64
2, 29181, Note_off_c, 0, 78, 0
2, 29184, Note_on_c, 0, 69, 64
2, 29229, Note_off_c, 0, 69, 0
2, 29232, Note_on_c, 0, 76, 64
2, 29277, Note_off_c, 0, 76, 0
2, 29280, Note_on_c, 0, 69, 64
2, 29325, Note_off_c, 0, 69, 0
2, 29328, Note_on_c, 0, 78, 64
2, 29373, Note_off_c, 0, 78, 0
2, 29376, Note_on_c, 0, 69, 64
2, 29421, Note_off_c, 0, 69, 0
2, 29424, Note_on_c, 0, 80, 64
2, 29469, Note_off_c, 0, 80, 0
2, 29472, Note_on_c, 0, 69, 64
2, 29517, Note_off_c, 0, 69, 0
2, 29520, Note_on_c, 0, 81, 64
2, 29565, Note_off_c, 0, 81, 0
2, 29568, Note_on_c, 0, 80, 64
2, 29613, Note_off_c, 0, 80, 0
2, 29616, Note_on_c, 0, 69, 64
2, 29661, Note_off_c, 0, 69, 0
2, 29664, Note_on_c, 0, 81, 64
2, 29709, Note_off_c, 0, 81, 0
2, 29712, Note_on_c, 0, 80, 64
2, 29757, Note_off_c, 0, 80, 0
2, 29760, Note_on_c, 0, 69, 64
2, 29805, Note_off_c, 0, 69, 0
2, 29808, Note_on_c, 0, 80, 64
2, 29853, Note_off_c, 0, 80, 0
2, 29856, Note_on_c, 0, 85, 64
2, 29901, Note_off_c, 0, 85, 0
2, 29904, Note_on_c, 0, 80, 64
2, 29949, Note_off_c, 0, 80, 0
2, 30000, Note_on_c, 0, 76, 64
2, 30089, Note_off_c, 0, 76, 0
2, 30096, Note_on_c, 0, 78, 64
2, 30141, Note_off_c, 0, 78, 0
2, 30144, Note_on_c, 0, 78, 64
2, 30189, Note_off_c, 0, 78, 0
2, 30192, Note_on_c, 0, 80, 64
2, 30281, Note_off_c, 0, 80, 0
2, 30288, Note_on_c, 0, 81, 64
2, 30381, Note_off_c, 0, 81, 0
2, 30384, Note_on_c, 0, 80, 64
2, 30429, Note_off_c, 0, 80, 0
2, 30432, Note_on_c, 0, 69, 64
2, 30477, Note_off_c, 0, 69, 0
2, 30480, Note_on_c, 0, 81, 64
2, 30525, Note_off_c, 0, 81, 0
2, 30528, Note_on_c, 0, 80, 64
2, 30573, Note_off_c, 0, 80, 0
2, 30576, Note_on_c, 0, 69, 64
2, 30621, Note_off_c, 0, 69, 0
2, 30624, Note_on_c, 0, 81, 64
2, 30669, Note_off_c, 0, 81, 0
2, 30672, Note_on_c, 0, 80, 64
2, 30717, Note_off_c, 0, 80, 0
2, 30720, Note_on_c, 0, 69, 64
2, 30765, Note_off_c, 0, 69, 0
2, 30768, Note_on_c, 0, 76, 64
2, 30813, Note_off_c, 0, 76, 0
2, 30816, Note_on_c, 0, 69, 64
2, 30861, Note_off_c, 0, 69, 0
2, 30864, Note_on_c, 0, 78, 64
2, 30909, Note_off_c, 0, 78, 0
2, 30912, Note_on_c, 0, 69, 64
2, 30957, Note_off_c, 0, 69, 0
2, 30960, Note_on_c, 0, 80, 64
2, 31005, Note_off_c, 0, 80, 0
2, 31008, Note_on_c, 0, 69, 64
2, 31053, Note_off_c, 0, 69, 0
2, 31056, Note_on_c, 0, 81, 64
2, 31101, Note_off_c, 0, 81, 0
2, 31104, Note_on_c, 0, 80, 64
2, 31149, Note_off_c, 0, 80, 0
2, 31152, Note_on_c, 0, 69, 64
2, 31197, Note_off_c, 0, 69, 0
2, 31200, Note_on_c, 0, 81, 64
2, 31245, Note_off_c, 0, 81, 0
2, 31248, Note_on_c, 0, 80, 64
2, 31293, Note_off_c, 0, 80, 0
2, 31296, Note_on_c, 0, 69, 64
2, 31341, Note_off_c, 0, 69, 0
2, 31344, Note_on_c, 0, 80, 64
2, 31389, Note_off_c, 0, 80, 0
2, 31392, Note_on_c, 0, 85, 64
2, 31437, Note_off_c, 0, 85, 0
2, 31440, Note_on_c, 0, 80, 64
2, 31485, Note_off_c, 0, 80, 0
2, 31488, Note_on_c, 0, 69, 64
2, 31533, Note_off_c, 0, 69, 0
2, 31536, Note_on_c, 0, 76, 64
2, 31581, Note_off_c, 0, 76, 0
2, 31584, Note_on_c, 0, 69, 64
2, 31629, Note_off_c, 0, 69, 0
2, 31632, Note_on_c, 0, 78, 64
2, 31677, Note_off_c, 0, 78, 0
2, 31680, Note_on_c, 0, 69, 64
2, 31725, Note_off_c, 0, 69, 0
2, 31728, Note_on_c, 0, 80, 64
2, 31773, Note_off_c, 0, 80, 0
2, 31776, Note_on_c, 0, 69, 64
2, 31821, Note_off_c, 0, 69, 0
2, 31824, Note_on_c, 0, 81, 64
2, 31869, Note_off_c, 0, 81, 0
2, 31872, Note_on_c, 0, 80, 64
2, 31917, Note_off_c, 0, 80, 0
2, 31920, Note_on_c, 0, 69, 64
2, 31965, Note_off_c, 0, 69, 0
2, 31968, Note_on_c, 0, 81, 64
2, 32013, Note_off_c, 0, 81, 0
2, 32016, Note_on_c, 0, 80, 64
2, 32061, Note_off_c, 0, 80, 0
2, 32064, Note_on_c, 0, 69, 64
2, 32109, Note_off_c, 0, 69, 0
2, 32112, Note_on_c, 0, 80, 64
2, 32157, Note_off_c, 0, 80, 0
2, 32160, Note_on_c, 0, 88, 64
2, 32205, Note_off_c, 0, 88, 0
2, 32208, Note_on_c, 0, 78, 64
2, 32253, Note_off_c, 0, 78, 0
2, 32256, Note_on_c, 0, 69, 64
2, 32301, Note_off_c, 0, 69, 0
2, 32304, Note_on_c, 0, 76, 64
2, 32349, Note_off_c, 0, 76, 0
2, 32352, Note_on_c, 0, 69, 64
2, 32397, Note_off_c, 0, 69, 0
2, 32400, Note_on_c, 0, 78, 64
2, 32445, Note_off_c, 0, 78, 0
2, 32448, Note_on_c, 0, 69, 64
2, 32493, Note_off_c, 0, 69, 0
2, 32496, Note_on_c, 0, 80, 64
2, 32541, Note_off_c, 0, 80, 0
2, 32544, Note_on_c, 0, 69, 64
2, 32589, Note_off_c, 0, 69, 0
2, 32592, Note_on_c, 0, 81, 64
2, 32637, Note_off_c, 0, 81, 0
2, 32640, Note_on_c, 0, 80, 64
2, 32685, Note_off_c, 0, 80, 0
2, 32688, Note_on_c, 0, 69, 64
2, 32733, Note_off_c, 0, 69, 0
2, 32736, Note_on_c, 0, 81, 64
2, 32781, Note_off_c, 0, 81, 0
2, 32784, Note_on_c, 0, 80, 64
2, 32829, Note_off_c, 0, 80, 0
2, 32832, Note_on_c, 0, 69, 64
2, 32877, Note_off_c, 0, 69, 0
2, 32880, Note_on_c, 0, 80, 64
2, 32925, Note_off_c, 0, 80, 0
2, 32928, Note_on_c, 0, 85, 64
2, 32973, Note_off_c, 0, 85, 0
2, 32976, Note_on_c, 0, 80, 64
2, 33021, Note_off_c, 0, 80, 0
2, 33024, Note_on_c, 0, 73, 64
2, 33054, Note_off_c, 0, 73, 0
2, 33056, Note_on_c, 0, 74, 64
2, 33086, Note_off_c, 0, 74, 0
2, 33088, Note_on_c, 0, 73, 64
2, 33118, Note_off_c, 0, 73, 0
2, 33120, Note_on_c, 0, 74, 64
2, 33150, Note_off_c, 0, 74, 0
2, 33152, Note_on_c, 0, 73, 64
2, 33182, Note_off_c, 0, 73, 0
2, 33184, Note_on_c, 0, 74, 64
2, 33214, Note_off_c, 0, 74, 0
2, 33216, Note_on_c, 0, 73, 64
2, 33246, Note_off_c, 0, 73, 0
2, 33248, Note_on_c, 0, 74, 64
2, 33278, Note_off_c, 0, 74, 0
2, 33280, Note_on_c, 0, 73, 64
2, 33310, Note_off_c, 0, 73, 0
2, 33312, Note_on_c, 0, 74, 64
2, 33342, Note_off_c, 0, 74, 0
2, 33344, Note_on_c, 0, 73, 64
2, 33374, Note_off_c, 0, 73, 0
2, 33376, Note_on_c, 0, 74, 64
2, 33406, Note_off_c, 0, 74, 0
2, 33408, Note_on_c, 0, 73, 64
2, 33438, Note_off_c, 0, 73, 0
2, 33440, Note_on_c, 0, 74, 64
2, 33470, Note_off_c, 0, 74, 0
2, 33472, Note_on_c, 0, 73, 64
2, 33502, Note_off_c, 0, 73, 0
2, 33504, Note_on_c, 0, 74, 64
2, 33534, Note_off_c, 0, 74, 0
2, 33536, Note_on_c, 0, 73, 64
2, 33566, Note_off_c, 0, 73, 0
2, 33568, Note_on_c, 0, 74, 64
2, 33598, Note_off_c, 0, 74, 0
2, 33600, Note_on_c, 0, 73, 64
2, 33630, Note_off_c, 0, 73, 0
2, 33632, Note_on_c, 0, 74, 64
2, 33662, Note_off_c, 0, 74, 0
2, 33664, Note_on_c, 0, 73, 64
2, 33694, Note_off_c, 0, 73, 0
2, 33696, Note_on_c, 0, 74, 64
2, 33726, Note_off_c, 0, 74, 0
2, 33728, Note_on_c, 0, 73, 64
2, 33758, Note_off_c, 0, 73, 0
2, 33760, Note_on_c, 0, 74, 64
2, 33790, Note_off_c, 0, 74, 0
2, 33792, Note_on_c, 0, 73, 64
2, 33822, Note_off_c, 0, 73, 0
2, 33824, Note_on_c, 0, 74, 64
2, 33854, Note_off_c, 0, 74, 0
2, 33856, Note_on_c, 0, 73, 64
2, 33886, Note_off_c, 0, 73, 0
2, 33888, Note_on_c, 0, 81, 64
2, 33918, Note_off_c, 0, 81, 0
2, 33920, Note_on_c, 0, 80, 64
2, 33950, Note_off_c, 0, 80, 0
2, 33952, Note_on_c, 0, 76, 64
2, 33982, Note_off_c, 0, 76, 0
2, 33984, Note_on_c, 0, 76, 64
2, 34029, Note_off_c, 0, 76, 0
2, 34032, Note_on_c, 0, 80, 64
2, 34077, Note_off_c, 0, 80, 0
2, 34080, Note_on_c, 0, 76, 64
2, 34110, Note_off_c, 0, 76, 0
2, 34112, Note_on_c, 0, 73, 64
2, 34142, Note_off_c, 0, 73, 0
2, 34144, Note_on_c, 0, 74, 64
2, 34174, Note_off_c, 0, 74, 0
2, 34176, Note_on_c, 0, 73, 64
2, 34206, Note_off_c, 0, 73, 0
2, 34208, Note_on_c, 0, 81, 64
2, 34238, Note_off_c, 0, 81, 0
2, 34240, Note_on_c, 0, 80, 64
2, 34270, Note_off_c, 0, 80, 0
2, 34272, Note_on_c, 0, 73, 64
2, 34302, Note_off_c, 0, 73, 0
2, 34304, Note_on_c, 0, 74, 64
2, 34334, Note_off_c, 0, 74, 0
2, 34336, Note_on_c, 0, 73, 64
2, 34366, Note_off_c, 0, 73, 0
2, 34368, Note_on_c, 0, 76, 64
2, 34398, Note_off_c, 0, 76, 0
2, 34400, Note_on_c, 0, 74, 64
2, 34430, Note_off_c, 0, 74, 0
2, 34432, Note_on_c, 0, 73, 64
2, 34462, Note_off_c, 0, 73, 0
2, 34464, Note_on_c, 0, 80, 64
2, 34494, Note_off_c, 0, 80, 0
2, 34496, Note_on_c, 0, 74, 64
2, 34526, Note_off_c, 0, 74, 0
2, 34528, Note_on_c, 0, 76, 64
2, 34558, Note_off_c, 0, 76, 0
2, 34560, Note_on_c, 0, 74, 64
2, 34590, Note_off_c, 0, 74, 0
2, 34592, Note_on_c, 0, 73, 64
2, 34622, Note_off_c, 0, 73, 0
2, 34624, Note_on_c, 0, 74, 64
2, 34654, Note_off_c, 0, 74, 0
2, 34656, Note_on_c, 0, 73, 64
2, 34686, Note_off_c, 0, 73, 0
2, 34688, Note_on_c, 0, 74, 64
2, 34718, Note_off_c, 0, 74, 0
2, 34720, Note_on_c, 0, 73, 64
2, 34750, Note_off_c, 0, 73, 0
2, 34752, Note_on_c, 0, 74, 64
2, 34782, Note_off_c, 0, 74, 0
2, 34784, Note_on_c, 0, 73, 64
2, 34814, Note_off_c, 0, 73, 0
2, 34816, Note_on_c, 0, 74, 64
2, 34846, Note_off_c, 0, 74, 0
2, 34848, Note_on_c, 0, 73, 64
2, 34878, Note_off_c, 0, 73, 0
2, 34880, Note_on_c, 0, 74, 64
2, 34910, Note_off_c, 0, 74, 0
2, 34912, Note_on_c, 0, 73, 64
2, 34942, Note_off_c, 0, 73, 0
2, 34944, Note_on_c, 0, 74, 64
2, 34974, Note_off_c, 0, 74, 0
2, 34976, Note_on_c, 0, 73, 64
2, 35006, Note_off_c, 0, 73, 0
2, 35008, Note_on_c, 0, 74, 64
2, 35038, Note_off_c, 0, 74, 0
2, 35040, Note_on_c, 0, 73, 64
2, 35070, Note_off_c, 0, 73, 0
2, 35072, Note_on_c, 0, 74, 64
2, 35102, Note_off_c, 0, 74, 0
2, 35104, Note_on_c, 0, 73, 64
2, 35134, Note_off_c, 0, 73, 0
2, 35136, Note_on_c, 0, 74, 64
2, 35166, Note_off_c, 0, 74, 0
2, 35168, Note_on_c, 0, 73, 64
2, 35198, Note_off_c, 0, 73, 0
2, 35200, Note_on_c, 0, 74, 64
2, 35230, Note_off_c, 0, 74, 0
2, 35232, Note_on_c, 0, 73, 64
2, 35262, Note_off_c, 0, 73, 0
2, 35264, Note_on_c, 0, 81, 64
2, 35294, Note_off_c, 0, 81, 0
2, 35296, Note_on_c, 0, 80, 64
2, 35326, Note_off_c, 0, 80, 0
2, 35328, Note_on_c, 0, 76, 64
2, 35358, Note_off_c, 0, 76, 0
2, 35360, Note_on_c, 0, 80, 64
2, 35390, Note_off_c, 0, 80, 0
2, 35392, Note_on_c, 0, 76, 64
2, 35422, Note_off_c, 0, 76, 0
2, 35424, Note_on_c, 0, 73, 64
2, 35454, Note_off_c, 0, 73, 0
2, 35456, Note_on_c, 0, 74, 64
2, 35486, Note_off_c, 0, 74, 0
2, 35488, Note_on_c, 0, 73, 64
2, 35518, Note_off_c, 0, 73, 0
2, 35520, Note_on_c, 0, 81, 64
2, 35550, Note_off_c, 0, 81, 0
2, 35552, Note_on_c, 0, 73, 64
2, 35582, Note_off_c, 0, 73, 0
2, 35584, Note_on_c, 0, 74, 64
2, 35614, Note_off_c, 0, 74, 0
2, 35616, Note_on_c, 0, 80, 64
2, 35646, Note_off_c, 0, 80, 0
2, 35648, Note_on_c, 0, 73, 64
2, 35678, Note_off_c, 0, 73, 0
2, 35680, Note_on_c, 0, 74, 64
2, 35710, Note_off_c, 0, 74, 0
2, 35712, Note_on_c, 0, 76, 64
2, 35742, Note_off_c, 0, 76, 0
2, 35744, Note_on_c, 0, 73, 64
2, 35774, Note_off_c, 0, 73, 0
2, 35776, Note_on_c, 0, 74, 64
2, 35806, Note_off_c, 0, 74, 0
2, 35808, Note_on_c, 0, 80, 64
2, 35838, Note_off_c, 0, 80, 0
2, 35840, Note_on_c, 0, 73, 64
2, 35870, Note_off_c, 0, 73, 0
2, 35872, Note_on_c, 0, 74, 64
2, 35902, Note_off_c, 0, 74, 0
2, 35904, Note_on_c, 0, 76, 64
2, 35934, Note_off_c, 0, 76, 0
2, 35936, Note_on_c, 0, 74, 64
2, 35966, Note_off_c, 0, 74, 0
2, 35968, Note_on_c, 0, 73, 64
2, 35998, Note_off_c, 0, 73, 0
2, 36000, Note_on_c, 0, 74, 64
2, 36030, Note_off_c, 0, 74, 0
2, 36032, Note_on_c, 0, 73, 64
2, 36062, Note_off_c, 0, 73, 0
2, 36064, Note_on_c, 0, 86, 64
2, 36109, Note_off_c, 0, 86, 0
2, 36112, Note_on_c, 0, 81, 64
2, 36157, Note_off_c, 0, 81, 0
2, 36160, Note_on_c, 0, 86, 64
2, 36205, Note_off_c, 0, 86, 0
2, 36208, Note_on_c, 0, 85, 64
2, 36253, Note_off_c, 0, 85, 0
2, 36256, Note_on_c, 0, 81, 64
2, 36301, Note_off_c, 0, 81, 0
2, 36304, Note_on_c, 0, 83, 64
2, 36349, Note_off_c, 0, 83, 0
2, 36352, Note_on_c, 0, 81, 64
2, 36397, Note_off_c, 0, 81, 0
2, 36400, Note_on_c, 0, 83, 64
2, 36445, Note_off_c, 0, 83, 0
2, 36496, Note_on_c, 0, 76, 64
2, 36585, Note_off_c, 0, 76, 0
2, 36592, Note_on_c, 0, 78, 64
2, 36685, Note_off_c, 0, 78, 0
2, 36688, Note_on_c, 0, 80, 64
2, 36777, Note_off_c, 0, 80, 0
2, 36784, Note_on_c, 0, 81, 64
2, 36829, Note_off_c, 0, 81, 0
2, 36832, Note_on_c, 0, 80, 64
2, 36921, Note_off_c, 0, 80, 0
2, 36928, Note_on_c, 0, 81, 64
2, 36973, Note_off_c, 0, 81, 0
2, 36976, Note_on_c, 0, 80, 64
2, 37069, Note_off_c, 0, 80, 0
2, 37072, Note_on_c, 0, 80, 64
2, 37161, Note_off_c, 0, 80, 0
2, 37168, Note_on_c, 0, 80, 64
2, 37261, Note_off_c, 0, 80, 0
2, 37264, Note_on_c, 0, 76, 64
2, 37353, Note_off_c, 0, 76, 0
2, 37360, Note_on_c, 0, 78, 64
2, 37405, Note_off_c, 0, 78, 0
2, 37408, Note_on_c, 0, 78, 64
2, 37453, Note_off_c, 0, 78, 0
2, 37456, Note_on_c, 0, 76, 64
2, 37545, Note_off_c, 0, 76, 0
2, 37552, Note_on_c, 0, 76, 64
2, 37645, Note_off_c, 0, 76, 0
2, 37648, Note_on_c, 0, 74, 64
2, 37693, Note_off_c, 0, 74, 0
2, 37696, Note_on_c, 0, 71, 64
2, 37741, Note_off_c, 0, 71, 0
2, 37744, Note_on_c, 0, 73, 64
2, 37789, Note_off_c, 0, 73, 0
2, 37792, Note_on_c, 0, 76, 64
2, 37881, Note_off_c, 0, 76, 0
2, 37888, Note_on_c, 0, 78, 64
2, 38029, Note_off_c, 0, 78, 0
2, 38032, Note_on_c, 0, 76, 64
2, 38121, Note_off_c, 0, 76, 0
2, 38128, Note_on_c, 0, 78, 64
2, 38173, Note_off_c, 0, 78, 0
2, 38176, Note_on_c, 0, 78, 64
2, 38221, Note_off_c, 0, 78, 0
2, 38224, Note_on_c, 0, 80, 64
2, 38313, Note_off_c, 0, 80, 0
2, 38320, Note_on_c, 0, 81, 64
2, 38413, Note_off_c, 0, 81, 0
2, 38416, Note_on_c, 0, 78, 64
2, 38505, Note_off_c, 0, 78, 0
2, 38512, Note_on_c, 0, 80, 64
2, 38605, Note_off_c, 0, 80, 0
2, 38608, Note_on_c, 0, 80, 64
2, 38697, Note_off_c, 0, 80, 0
2, 38704, Note_on_c, 0, 80, 64
2, 38749, Note_off_c, 0, 80, 0
2, 38752, Note_on_c, 0, 57, 64
2, 38797, Note_off_c, 0, 57, 0
2, 38800, Note_on_c, 0, 64, 64
2, 38845, Note_off_c, 0, 64, 0
2, 38848, Note_on_c, 0, 74, 64
2, 38893, Note_off_c, 0, 74, 0
2, 38896, Note_on_c, 0, 57, 64
2, 38941, Note_off_c, 0, 57, 0
2, 38944, Note_on_c, 0, 57, 64
2, 38989, Note_off_c, 0, 57, 0
2, 38992, Note_on_c, 0, 64, 64
2, 39037, Note_off_c, 0, 64, 0
2, 39040, Note_on_c, 0, 74, 64
2, 39085, Note_off_c, 0, 74, 0
2, 39088, Note_on_c, 0, 57, 64
2, 39133, Note_off_c, 0, 57, 0
2, 39136, Note_on_c, 0, 57, 64
2, 39181, Note_off_c, 0, 57, 0
2, 39184, Note_on_c, 0, 64, 64
2, 39229, Note_off_c, 0, 64, 0
2, 39232, Note_on_c, 0, 73, 64
2, 39277, Note_off_c, 0, 73, 0
2, 39280, Note_on_c, 0, 57, 64
2, 39325, Note_off_c, 0, 57, 0
2, 39328, Note_on_c, 0, 57, 64
2, 39373, Note_off_c, 0, 57, 0
2, 39376, Note_on_c, 0, 64, 64
2, 39421, Note_off_c, 0, 64, 0
2, 39424, Note_on_c, 0, 74, 64
2, 39469, Note_off_c, 0, 74, 0
2, 39472, Note_on_c, 0, 57, 64
2, 39517, Note_off_c, 0, 57, 0
2, 39520, Note_on_c, 0, 57, 64
2, 39565, Note_off_c, 0, 57, 0
2, 39568, Note_on_c, 0, 64, 64
2, 39613, Note_off_c, 0, 64, 0
2, 39616, Note_on_c, 0, 74, 64
2, 39661, Note_off_c, 0, 74, 0
2, 39664, Note_on_c, 0, 57, 64
2, 39709, Note_off_c, 0, 57, 0
2, 39712, Note_on_c, 0, 57, 64
2, 39757, Note_off_c, 0, 57, 0
2, 39760, Note_on_c, 0, 64, 64
2, 39805, Note_off_c, 0, 64, 0
2, 39808, Note_on_c, 0, 74, 64
2, 39853, Note_off_c, 0, 74, 0
2, 39856, Note_on_c, 0, 57, 64
2, 39901, Note_off_c, 0, 57, 0
2, 39904, Note_on_c, 0, 57, 64
2, 39949, Note_off_c, 0, 57, 0
2, 39952, Note_on_c, 0, 64, 64
2, 39997, Note_off_c, 0, 64, 0
2, 40000, Note_on_c, 0, 74, 64
2, 40045, Note_off_c, 0, 74, 0
2, 40048, Note_on_c, 0, 73, 64
2, 40093, Note_off_c, 0, 73, 0
2, 40096, Note_on_c, 0, 57, 64
2, 40141, Note_off_c, 0, 57, 0
2, 40144, Note_on_c, 0, 64, 64
2, 40189, Note_off_c, 0, 64, 0
2, 40192, Note_on_c, 0, 73, 64
2, 40237, Note_off_c, 0, 73, 0
2, 40240, Note_on_c, 0, 57, 64
2, 40285, Note_off_c, 0, 57, 0
2, 40288, Note_on_c, 0, 64, 64
2, 40642, Note_off_c, 0, 64, 0
2, 40642, End_track
3, 0, Start_track
3, 0, Title_t, "\000"
3, 0, Control_c, 1, 7, 127
3, 0, Control_c, 1, 10, 64
3, 0, Program_c, 1, 52
3, 3840, Note_on_c, 1, 69, 64
3, 4017, Note_off_c, 1, 69, 0
3, 4032, Note_on_c, 1, 69, 64
3, 4121, Note_off_c, 1, 69, 0
3, 4224, Note_on_c, 1, 69, 64
3, 4269, Note_off_c, 1, 69, 0
3, 4272, Note_on_c, 1, 69, 64
3, 4361, Note_off_c, 1, 69, 0
3, 4368, Note_on_c, 1, 69, 64
3, 4505, Note_off_c, 1, 69, 0
3, 4512, Note_on_c, 1, 69, 64
3, 4557, Note_off_c, 1, 69, 0
3, 4560, Note_on_c, 1, 68, 64
3, 4785, Note_off_c, 1, 68, 0
3, 4800, Note_on_c, 1, 68, 64
3, 4889, Note_off_c, 1, 68, 0
3, 4992, Note_on_c, 1, 68, 64
3, 5037, Note_off_c, 1, 68, 0
3, 5040, Note_on_c, 1, 68, 64
3, 5129, Note_off_c, 1, 68, 0
3, 5136, Note_on_c, 1, 68, 64
3, 5229, Note_off_c, 1, 68, 0
3, 5232, Note_on_c, 1, 69, 64
3, 5321, Note_off_c, 1, 69, 0
3, 5328, Note_on_c, 1, 66, 64
3, 5553, Note_off_c, 1, 66, 0
3, 5568, Note_on_c, 1, 66, 64
3, 5657, Note_off_c, 1, 66, 0
3, 5760, Note_on_c, 1, 66, 64
3, 5805, Note_off_c, 1, 66, 0
3, 5808, Note_on_c, 1, 66, 64
3, 5897, Note_off_c, 1, 66, 0
3, 5904, Note_on_c, 1, 66, 64
3, 6041, Note_off_c, 1, 66, 0
3, 6048, Note_on_c, 1, 64, 64
3, 6093, Note_off_c, 1, 64, 0
3, 6096, Note_on_c, 1, 64, 64
3, 6321, Note_off_c, 1, 64, 0
3, 6336, Note_on_c, 1, 64, 64
3, 6425, Note_off_c, 1, 64, 0
3, 6480, Note_on_c, 1, 64, 64
3, 6525, Note_off_c, 1, 64, 0
3, 6528, Note_on_c, 1, 64, 64
3, 6573, Note_off_c, 1, 64, 0
3, 6576, Note_on_c, 1, 64, 64
3, 6665, Note_off_c, 1, 64, 0
3, 6672, Note_on_c, 1, 64, 64
3, 6765, Note_off_c, 1, 64, 0
3, 6768, Note_on_c, 1, 64, 64
3, 6857, Note_off_c, 1, 64, 0
3, 6864, Note_on_c, 1, 69, 64
3, 7089, Note_off_c, 1, 69, 0
3, 7104, Note_on_c, 1, 69, 64
3, 7193, Note_off_c, 1, 69, 0
3, 7296, Note_on_c, 1, 69, 64
3, 7341, Note_off_c, 1, 69, 0
3, 7344, Note_on_c, 1, 69, 64
3, 7433, Note_off_c, 1, 69, 0
3, 7440, Note_on_c, 1, 69, 64
3, 7533, Note_off_c, 1, 69, 0
3, 7536, Note_on_c, 1, 69, 64
3, 7625, Note_off_c, 1, 69, 0
3, 7632, Note_on_c, 1, 68, 64
3, 7857, Note_off_c, 1, 68, 0
3, 7872, Note_on_c, 1, 68, 64
3, 7961, Note_off_c, 1, 68, 0
3, 8064, Note_on_c, 1, 68, 64
3, 8109, Note_off_c, 1, 68, 0
3, 8112, Note_on_c, 1, 68, 64
3, 8201, Note_off_c, 1, 68, 0
3, 8208, Note_on_c, 1, 68, 64
3, 8301, Note_off_c, 1, 68, 0
3, 8304, Note_on_c, 1, 69, 64
3, 8393, Note_off_c, 1, 69, 0
3, 8400, Note_on_c, 1, 66, 64
3, 8625, Note_off_c, 1, 66, 0
3, 8640, Note_on_c, 1, 66, 64
3, 8729, Note_off_c, 1, 66, 0
3, 8784, Note_on_c, 1, 66, 64
3, 8829, Note_off_c, 1, 66, 0
3, 8832, Note_on_c, 1, 66, 64
3, 8877, Note_off_c, 1, 66, 0
3, 8880, Note_on_c, 1, 66, 64
3, 8969, Note_off_c, 1, 66, 0
3, 8976, Note_on_c, 1, 66, 64
3, 9069, Note_off_c, 1, 66, 0
3, 9072, Note_on_c, 1, 66, 64
3, 9161, Note_off_c, 1, 66, 0
3, 9168, Note_on_c, 1, 64, 64
3, 9305, Note_off_c, 1, 64, 0
3, 9408, Note_on_c, 1, 64, 64
3, 9497, Note_off_c, 1, 64, 0
3, 9600, Note_on_c, 1, 64, 64
3, 9645, Note_off_c, 1, 64, 0
3, 9648, Note_on_c, 1, 64, 64
3, 9737, Note_off_c, 1, 64, 0
3, 9744, Note_on_c, 1, 64, 64
3, 9837, Note_off_c, 1, 64, 0
3, 9840, Note_on_c, 1, 64, 64
3, 9973, Note_off_c, 1, 64, 0
3, 9984, Note_on_c, 1, 74, 64
3, 10117, Note_off_c, 1, 74, 0
3, 10128, Note_on_c, 1, 73, 64
3, 10176, Note_off_c, 1, 73, 0
3, 10176, Note_on_c, 1, 71, 64
3, 10221, Note_off_c, 1, 71, 0
3, 10224, Note_on_c, 1, 71, 64
3, 10357, Note_off_c, 1, 71, 0
3, 10368, Note_on_c, 1, 71, 64
3, 10416, Note_off_c, 1, 71, 0
3, 10416, Note_on_c, 1, 73, 64
3, 10461, Note_off_c, 1, 73, 0
3, 10464, Note_on_c, 1, 73, 64
3, 10509, Note_off_c, 1, 73, 0
3, 10512, Note_on_c, 1, 71, 64
3, 10557, Note_off_c, 1, 71, 0
3, 10560, Note_on_c, 1, 69, 64
3, 10841, Note_off_c, 1, 69, 0
3, 11136, Note_on_c, 1, 74, 64
3, 11269, Note_off_c, 1, 74, 0
3, 11280, Note_on_c, 1, 73, 64
3, 11373, Note_off_c, 1, 73, 0
3, 11376, Note_on_c, 1, 71, 64
3, 11509, Note_off_c, 1, 71, 0
3, 11520, Note_on_c, 1, 73, 64
3, 11609, Note_off_c, 1, 73, 0
3, 11616, Note_on_c, 1, 73, 64
3, 11661, Note_off_c, 1, 73, 0
3, 11664, Note_on_c, 1, 71, 64
3, 11709, Note_off_c, 1, 71, 0
3, 11712, Note_on_c, 1, 69, 64
3, 11993, Note_off_c, 1, 69, 0
3, 12288, Note_on_c, 1, 74, 64
3, 12421, Note_off_c, 1, 74, 0
3, 12432, Note_on_c, 1, 73, 64
3, 12480, Note_off_c, 1, 73, 0
3, 12480, Note_on_c, 1, 71, 64
3, 12525, Note_off_c, 1, 71, 0
3, 12528, Note_on_c, 1, 71, 64
3, 12661, Note_off_c, 1, 71, 0
3, 12672, Note_on_c, 1, 71, 64
3, 12720, Note_off_c, 1, 71, 0
3, 12720, Note_on_c, 1, 73, 64
3, 12765, Note_off_c, 1, 73, 0
3, 12768, Note_on_c, 1, 73, 64
3, 12813, Note_off_c, 1, 73, 0
3, 12816, Note_on_c, 1, 71, 64
3, 12861, Note_off_c, 1, 71, 0
3, 12864, Note_on_c, 1, 69, 64
3, 13041, Note_off_c, 1, 69, 0
3, 15360, Note_on_c, 1, 69, 64
3, 15537, Note_off_c, 1, 69, 0
3, 15552, Note_on_c, 1, 69, 64
3, 15641, Note_off_c, 1, 69, 0
3, 15744, Note_on_c, 1, 69, 64
3, 15789, Note_off_c, 1, 69, 0
3, 15792, Note_on_c, 1, 69, 64
3, 15881, Note_off_c, 1, 69, 0
3, 15888, Note_on_c, 1, 69, 64
3, 16025, Note_off_c, 1, 69, 0
3, 16032, Note_on_c, 1, 69, 64
3, 16077, Note_off_c, 1, 69, 0
3, 16080, Note_on_c, 1, 68, 64
3, 16305, Note_off_c, 1, 68, 0
3, 16320, Note_on_c, 1, 68, 64
3, 16409, Note_off_c, 1, 68, 0
3, 16512, Note_on_c, 1, 68, 64
3, 16557, Note_off_c, 1, 68, 0
3, 16560, Note_on_c, 1, 68, 64
3, 16649, Note_off_c, 1, 68, 0
3, 16656, Note_on_c, 1, 68, 64
3, 16749, Note_off_c, 1, 68, 0
3, 16752, Note_on_c, 1, 69, 64
3, 16841, Note_off_c, 1, 69, 0
3, 16848, Note_on_c, 1, 66, 64
3, 17073, Note_off_c, 1, 66, 0
3, 17088, Note_on_c, 1, 66, 64
3, 17177, Note_off_c, 1, 66, 0
3, 17280, Note_on_c, 1, 66, 64
3, 17325, Note_off_c, 1, 66, 0
3, 17328, Note_on_c, 1, 66, 64
3, 17417, Note_off_c, 1, 66, 0
3, 17424, Note_on_c, 1, 66, 64
3, 17561, Note_off_c, 1, 66, 0
3, 17568, Note_on_c, 1, 64, 64
3, 17613, Note_off_c, 1, 64, 0
3, 17616, Note_on_c, 1, 64, 64
3, 17841, Note_off_c, 1, 64, 0
3, 17856, Note_on_c, 1, 64, 64
3, 17945, Note_off_c, 1, 64, 0
3, 18000, Note_on_c, 1, 64, 64
3, 18045, Note_off_c, 1, 64, 0
3, 18048, Note_on_c, 1, 64, 64
3, 18093, Note_off_c, 1, 64, 0
3, 18096, Note_on_c, 1, 64, 64
3, 18185, Note_off_c, 1, 64, 0
3, 18192, Note_on_c, 1, 64, 64
3, 18285, Note_off_c, 1, 64, 0
3, 18288, Note_on_c, 1, 64, 64
3, 18377, Note_off_c, 1, 64, 0
3, 18384, Note_on_c, 1, 69, 64
3, 18609, Note_off_c, 1, 69, 0
3, 18624, Note_on_c, 1, 69, 64
3, 18713, Note_off_c, 1, 69, 0
3, 18816, Note_on_c, 1, 69, 64
3, 18861, Note_off_c, 1, 69, 0
3, 18864, Note_on_c, 1, 69, 64
3, 18953, Note_off_c, 1, 69, 0
3, 18960, Note_on_c, 1, 69, 64
3, 19053, Note_off_c, 1, 69, 0
3, 19056, Note_on_c, 1, 69, 64
3, 19145, Note_off_c, 1, 69, 0
3, 19152, Note_on_c, 1, 68, 64
3, 19377, Note_off_c, 1, 68, 0
3, 19392, Note_on_c, 1, 68, 64
3, 19481, Note_off_c, 1, 68, 0
3, 19584, Note_on_c, 1, 68, 64
3, 19629, Note_off_c, 1, 68, 0
3, 19632, Note_on_c, 1, 68, 64
3, 19721, Note_off_c, 1, 68, 0
3, 19728, Note_on_c, 1, 68, 64
3, 19821, Note_off_c, 1, 68, 0
3, 19824, Note_on_c, 1, 69, 64
3, 19913, Note_off_c, 1, 69, 0
3, 19920, Note_on_c, 1, 66, 64
3, 20145, Note_off_c, 1, 66, 0
3, 20160, Note_on_c, 1, 66, 64
3, 20249, Note_off_c, 1, 66, 0
3, 20304, Note_on_c, 1, 66, 64
3, 20349, Note_off_c, 1, 66, 0
3, 20352, Note_on_c, 1, 66, 64
3, 20397, Note_off_c, 1, 66, 0
3, 20400, Note_on_c, 1, 66, 64
3, 20489, Note_off_c, 1, 66, 0
3, 20496, Note_on_c, 1, 66, 64
3, 20589, Note_off_c, 1, 66, 0
3, 20592, Note_on_c, 1, 66, 64
3, 20681, Note_off_c, 1, 66, 0
3, 20688, Note_on_c, 1, 64, 64
3, 20825, Note_off_c, 1, 64, 0
3, 20928, Note_on_c, 1, 64, 64
3, 21017, Note_off_c, 1, 64, 0
3, 21120, Note_on_c, 1, 64, 64
3, 21165, Note_off_c, 1, 64, 0
3, 21168, Note_on_c, 1, 64, 64
3, 21257, Note_off_c, 1, 64, 0
3, 21264, Note_on_c, 1, 64, 64
3, 21357, Note_off_c, 1, 64, 0
3, 21360, Note_on_c, 1, 64, 64
3, 21493, Note_off_c, 1, 64, 0
3, 21504, Note_on_c, 1, 74, 64
3, 21637, Note_off_c, 1, 74, 0
3, 21648, Note_on_c, 1, 73, 64
3, 21696, Note_off_c, 1, 73, 0
3, 21696, Note_on_c, 1, 71, 64
3, 21741, Note_off_c, 1, 71, 0
3, 21744, Note_on_c, 1, 71, 64
3, 21877, Note_off_c, 1, 71, 0
3, 21888, Note_on_c, 1, 71, 64
3, 21936, Note_off_c, 1, 71, 0
3, 21936, Note_on_c, 1, 73, 64
3, 21981, Note_off_c, 1, 73, 0
3, 21984, Note_on_c, 1, 73, 64
3, 22029, Note_off_c, 1, 73, 0
3, 22032, Note_on_c, 1, 71, 64
3, 22077, Note_off_c, 1, 71, 0
3, 22080, Note_on_c, 1, 69, 64
3, 22361, Note_off_c, 1, 69, 0
3, 22656, Note_on_c, 1, 74, 64
3, 22789, Note_off_c, 1, 74, 0
3, 22800, Note_on_c, 1, 73, 64
3, 22893, Note_off_c, 1, 73, 0
3, 22896, Note_on_c, 1, 71, 64
3, 23029, Note_off_c, 1, 71, 0
3, 23040, Note_on_c, 1, 73, 64
3, 23129, Note_off_c, 1, 73, 0
3, 23136, Note_on_c, 1, 73, 64
3, 23181, Note_off_c, 1, 73, 0
3, 23184, Note_on_c, 1, 71, 64
3, 23229, Note_off_c, 1, 71, 0
3, 23232, Note_on_c, 1, 69, 64
3, 23513, Note_off_c, 1, 69, 0
3, 23808, Note_on_c, 1, 74, 64
3, 23941, Note_off_c, 1, 74, 0
3, 23952, Note_on_c, 1, 73, 64
3, 24000, Note_off_c, 1, 73, 0
3, 24000, Note_on_c, 1, 71, 64
3, 24045, Note_off_c, 1, 71, 0
3, 24048, Note_on_c, 1, 71, 64
3, 24181, Note_off_c, 1, 71, 0
3, 24192, Note_on_c, 1, 71, 64
3, 24240, Note_off_c, 1, 71, 0
3, 24240, Note_on_c, 1, 73, 64
3, 24285, Note_off_c, 1, 73, 0
3, 24288, Note_on_c, 1, 73, 64
3, 24333, Note_off_c, 1, 73, 0
3, 24336, Note_on_c, 1, 71, 64
3, 24381, Note_off_c, 1, 71, 0
3, 24384, Note_on_c, 1, 69, 64
3, 24561, Note_off_c, 1, 69, 0
3, 33024, Note_on_c, 1, 74, 64
3, 33157, Note_off_c, 1, 74, 0
3, 33168, Note_on_c, 1, 73, 64
3, 33264, Note_off_c, 1, 73, 0
3, 33264, Note_on_c, 1, 71, 64
3, 33456, Note_off_c, 1, 71, 0
3, 33456, Note_on_c, 1, 73, 64
3, 34146, Note_off_c, 1, 73, 0
3, 34560, Note_on_c, 1, 74, 64
3, 34693, Note_off_c, 1, 74, 0
3, 34704, Note_on_c, 1, 73, 64
3, 34800, Note_off_c, 1, 73, 0
3, 34800, Note_on_c, 1, 74, 64
3, 35040, Note_off_c, 1, 74, 0
3, 35040, Note_on_c, 1, 73, 64
3, 35682, Note_off_c, 1, 73, 0
3, 36096, Note_on_c, 1, 74, 64
3, 36229, Note_off_c, 1, 74, 0
3, 36240, Note_on_c, 1, 74, 64
3, 36528, Note_off_c, 1, 74, 0
3, 36528, Note_on_c, 1, 73, 64
3, 36849, Note_off_c, 1, 73, 0
3, 36864, Note_on_c, 1, 73, 64
3, 37218, Note_off_c, 1, 73, 0
3, 37248, Note_on_c, 1, 73, 64
3, 37602, Note_off_c, 1, 73, 0
3, 40320, Note_on_c, 1, 69, 64
3, 40674, Note_off_c, 1, 69, 0
3, 40674, End_track
4, 0, Start_track
4, 0, Title_t, "Track 3\000"
4, 0, Program_c, 9, 0
4, 2890, Note_on_c, 9, 36, 100
4, 2973, Note_off_c, 9, 36, 0
4, 2986, Note_on_c, 9, 41, 100
4, 3038, Note_off_c, 9, 41, 0
4, 3075, Note_on_c, 9, 36, 100
4, 3100, Note_off_c, 9, 36, 0
4, 3122, Note_on_c, 9, 36, 100
4, 3164, Note_on_c, 9, 54, 100
4, 3165, Note_off_c, 9, 36, 0
4, 3169, Note_on_c, 9, 41, 100
4, 3202, Note_off_c, 9, 54, 0
4, 3225, Note_off_c, 9, 41, 0
4, 3270, Note_on_c, 9, 36, 100
4, 3355, Note_off_c, 9, 36, 0
4, 3357, Note_on_c, 9, 54, 100
4, 3362, Note_on_c, 9, 41, 100
4, 3389, Note_off_c, 9, 54, 0
4, 3401, Note_off_c, 9, 41, 0
4, 3412, Note_on_c, 9, 36, 100
4, 3439, Note_off_c, 9, 36, 0
4, 3456, Note_on_c, 9, 36, 100
4, 3499, Note_on_c, 9, 54, 100
4, 3500, Note_off_c, 9, 36, 0
4, 3505, Note_on_c, 9, 41, 100
4, 3531, Note_off_c, 9, 54, 0
4, 3556, Note_off_c, 9, 41, 0
4, 3594, Note_on_c, 9, 54, 100
4, 3601, Note_on_c, 9, 41, 100
4, 3623, Note_off_c, 9, 54, 0
4, 3640, Note_off_c, 9, 41, 0
4, 3650, Note_on_c, 9, 36, 100
4, 3710, Note_off_c, 9, 36, 0
4, 3740, Note_on_c, 9, 41, 100
4, 3742, Note_on_c, 9, 54, 100
4, 3775, Note_off_c, 9, 54, 0
4, 3788, Note_off_c, 9, 41, 0
4, 3835, Note_on_c, 9, 36, 100
4, 3860, Note_off_c, 9, 36, 0
4, 3884, Note_on_c, 9, 36, 100
4, 3931, Note_off_c, 9, 36, 0
4, 3932, Note_on_c, 9, 54, 100
4, 3936, Note_on_c, 9, 41, 100
4, 3966, Note_off_c, 9, 54, 0
4, 3971, Note_off_c, 9, 41, 0
4, 4030, Note_on_c, 9, 36, 100
4, 4078, Note_off_c, 9, 36, 0
4, 4131, Note_on_c, 9, 54, 100
4, 4134, Note_on_c, 9, 41, 100
4, 4170, Note_off_c, 9, 54, 0
4, 4171, Note_off_c, 9, 41, 0
4, 4223, Note_on_c, 9, 36, 100
4, 4273, Note_on_c, 9, 54, 100
4, 4297, Note_off_c, 9, 36, 0
4, 4314, Note_off_c, 9, 54, 0
4, 4317, Note_on_c, 9, 41, 100
4, 4351, Note_off_c, 9, 41, 0
4, 4367, Note_on_c, 9, 36, 100
4, 4391, Note_off_c, 9, 36, 0
4, 4411, Note_on_c, 9, 36, 100
4, 4449, Note_off_c, 9, 36, 0
4, 4463, Note_on_c, 9, 41, 100
4, 4507, Note_off_c, 9, 41, 0
4, 4553, Note_on_c, 9, 41, 100
4, 4589, Note_off_c, 9, 41, 0
4, 4609, Note_on_c, 9, 36, 100
4, 4677, Note_off_c, 9, 36, 0
4, 4696, Note_on_c, 9, 54, 100
4, 4706, Note_on_c, 9, 41, 100
4, 4735, Note_off_c, 9, 54, 0
4, 4753, Note_off_c, 9, 41, 0
4, 4793, Note_on_c, 9, 36, 100
4, 4818, Note_off_c, 9, 36, 0
4, 4853, Note_on_c, 9, 36, 100
4, 4890, Note_off_c, 9, 36, 0
4, 4895, Note_on_c, 9, 41, 100
4, 4897, Note_on_c, 9, 54, 100
4, 4929, Note_off_c, 9, 54, 0
4, 4946, Note_off_c, 9, 41, 0
4, 4994, Note_on_c, 9, 36, 100
4, 5071, Note_off_c, 9, 36, 0
4, 5081, Note_on_c, 9, 54, 100
4, 5085, Note_on_c, 9, 41, 100
4, 5114, Note_off_c, 9, 54, 0
4, 5121, Note_off_c, 9, 41, 0
4, 5132, Note_on_c, 9, 36, 100
4, 5154, Note_off_c, 9, 36, 0
4, 5181, Note_on_c, 9, 36, 100
4, 5220, Note_off_c, 9, 36, 0
4, 5222, Note_on_c, 9, 54, 100
4, 5229, Note_on_c, 9, 41, 100
4, 5260, Note_off_c, 9, 54, 0
4, 5281, Note_off_c, 9, 41, 0
4, 5317, Note_on_c, 9, 54, 100
4, 5323, Note_on_c, 9, 41, 100
4, 5346, Note_off_c, 9, 54, 0
4, 5362, Note_off_c, 9, 41, 0
4, 5373, Note_on_c, 9, 36, 100
4, 5439, Note_off_c, 9, 36, 0
4, 5465, Note_on_c, 9, 54, 100
4, 5469, Note_on_c, 9, 41, 100
4, 5495, Note_off_c, 9, 54, 0
4, 5519, Note_off_c, 9, 41, 0
4, 5564, Note_on_c, 9, 36, 100
4, 5586, Note_off_c, 9, 36, 0
4, 5615, Note_on_c, 9, 36, 100
4, 5658, Note_off_c, 9, 36, 0
4, 5663, Note_on_c, 9, 41, 100
4, 5665, Note_on_c, 9, 54, 100
4, 5696, Note_off_c, 9, 54, 0
4, 5711, Note_off_c, 9, 41, 0
4, 5760, Note_on_c, 9, 36, 100
4, 5825, Note_off_c, 9, 36, 0
4, 5848, Note_on_c, 9, 41, 100
4, 5851, Note_on_c, 9, 54, 100
4, 5877, Note_off_c, 9, 54, 0
4, 5889, Note_off_c, 9, 41, 0
4, 5902, Note_on_c, 9, 36, 100
4, 5920, Note_off_c, 9, 36, 0
4, 5948, Note_on_c, 9, 36, 100
4, 5984, Note_off_c, 9, 36, 0
4, 5992, Note_on_c, 9, 41, 100
4, 5996, Note_on_c, 9, 54, 100
4, 6028, Note_off_c, 9, 54, 0
4, 6038, Note_off_c, 9, 41, 0
4, 6082, Note_on_c, 9, 41, 100
4, 6087, Note_on_c, 9, 54, 100
4, 6108, Note_off_c, 9, 54, 0
4, 6124, Note_off_c, 9, 41, 0
4, 6131, Note_on_c, 9, 36, 100
4, 6174, Note_off_c, 9, 36, 0
4, 6222, Note_on_c, 9, 41, 100
4, 6228, Note_on_c, 9, 54, 100
4, 6255, Note_off_c, 9, 54, 0
4, 6266, Note_off_c, 9, 41, 0
4, 6315, Note_on_c, 9, 36, 100
4, 6335, Note_off_c, 9, 36, 0
4, 6366, Note_on_c, 9, 36, 100
4, 6412, Note_on_c, 9, 54, 100
4, 6415, Note_off_c, 9, 36, 0
4, 6419, Note_on_c, 9, 41, 100
4, 6446, Note_off_c, 9, 54, 0
4, 6472, Note_off_c, 9, 41, 0
4, 6516, Note_on_c, 9, 36, 100
4, 6584, Note_off_c, 9, 36, 0
4, 6612, Note_on_c, 9, 54, 100
4, 6620, Note_on_c, 9, 41, 100
4, 6638, Note_off_c, 9, 54, 0
4, 6659, Note_off_c, 9, 41, 0
4, 6666, Note_on_c, 9, 36, 100
4, 6688, Note_off_c, 9, 36, 0
4, 6720, Note_on_c, 9, 36, 100
4, 6762, Note_off_c, 9, 36, 0
4, 6765, Note_on_c, 9, 54, 100
4, 6769, Note_on_c, 9, 41, 100
4, 6795, Note_off_c, 9, 54, 0
4, 6811, Note_off_c, 9, 41, 0
4, 6856, Note_on_c, 9, 54, 100
4, 6858, Note_on_c, 9, 41, 100
4, 6878, Note_off_c, 9, 54, 0
4, 6898, Note_off_c, 9, 41, 0
4, 6909, Note_on_c, 9, 36, 100
4, 6969, Note_off_c, 9, 36, 0
4, 6997, Note_on_c, 9, 54, 100
4, 7005, Note_on_c, 9, 41, 100
4, 7027, Note_off_c, 9, 54, 0
4, 7060, Note_off_c, 9, 41, 0
4, 7105, Note_on_c, 9, 36, 100
4, 7126, Note_off_c, 9, 36, 0
4, 7157, Note_on_c, 9, 36, 100
4, 7196, Note_off_c, 9, 36, 0
4, 7200, Note_on_c, 9, 41, 100
4, 7207, Note_on_c, 9, 54, 100
4, 7235, Note_off_c, 9, 54, 0
4, 7251, Note_off_c, 9, 41, 0
4, 7292, Note_on_c, 9, 36, 100
4, 7359, Note_off_c, 9, 36, 0
4, 7385, Note_on_c, 9, 54, 100
4, 7390, Note_on_c, 9, 41, 100
4, 7410, Note_off_c, 9, 54, 0
4, 7427, Note_off_c, 9, 41, 0
4, 7437, Note_on_c, 9, 36, 100
4, 7459, Note_off_c, 9, 36, 0
4, 7489, Note_on_c, 9, 36, 100
4, 7532, Note_off_c, 9, 36, 0
4, 7533, Note_on_c, 9, 54, 100
4, 7535, Note_on_c, 9, 41, 100
4, 7564, Note_off_c, 9, 54, 0
4, 7582, Note_off_c, 9, 41, 0
4, 7622, Note_on_c, 9, 54, 100
4, 7628, Note_on_c, 9, 41, 100
4, 7643, Note_off_c, 9, 54, 0
4, 7671, Note_off_c, 9, 41, 0
4, 7681, Note_on_c, 9, 36, 100
4, 7739, Note_off_c, 9, 36, 0
4, 7768, Note_on_c, 9, 54, 100
4, 7770, Note_on_c, 9, 41, 100
4, 7797, Note_off_c, 9, 54, 0
4, 7828, Note_off_c, 9, 41, 0
4, 7869, Note_on_c, 9, 36, 100
4, 7891, Note_off_c, 9, 36, 0
4, 7920, Note_on_c, 9, 36, 100
4, 7959, Note_off_c, 9, 36, 0
4, 7963, Note_on_c, 9, 41, 100
4, 7967, Note_on_c, 9, 54, 100
4, 7998, Note_off_c, 9, 54, 0
4, 8018, Note_off_c, 9, 41, 0
4, 8064, Note_on_c, 9, 36, 100
4, 8121, Note_off_c, 9, 36, 0
4, 8148, Note_on_c, 9, 54, 100
4, 8155, Note_on_c, 9, 41, 100
4, 8176, Note_off_c, 9, 54, 0
4, 8194, Note_off_c, 9, 41, 0
4, 8203, Note_on_c, 9, 36, 100
4, 8227, Note_off_c, 9, 36, 0
4, 8255, Note_on_c, 9, 36, 100
4, 8297, Note_on_c, 9, 54, 100
4, 8298, Note_off_c, 9, 36, 0
4, 8298, Note_on_c, 9, 41, 100
4, 8329, Note_off_c, 9, 54, 0
4, 8342, Note_off_c, 9, 41, 0
4, 8382, Note_on_c, 9, 54, 100
4, 8390, Note_on_c, 9, 41, 100
4, 8406, Note_off_c, 9, 54, 0
4, 8432, Note_off_c, 9, 41, 0
4, 8442, Note_on_c, 9, 36, 100
4, 8499, Note_off_c, 9, 36, 0
4, 8531, Note_on_c, 9, 54, 100
4, 8537, Note_on_c, 9, 41, 100
4, 8562, Note_off_c, 9, 54, 0
4, 8586, Note_off_c, 9, 41, 0
4, 8643, Note_on_c, 9, 36, 100
4, 8662, Note_off_c, 9, 36, 0
4, 8692, Note_on_c, 9, 36, 100
4, 8728, Note_off_c, 9, 36, 0
4, 8733, Note_on_c, 9, 41, 100
4, 8739, Note_on_c, 9, 54, 100
4, 8771, Note_off_c, 9, 54, 0
4, 8785, Note_off_c, 9, 41, 0
4, 8835, Note_on_c, 9, 36, 100
4, 8891, Note_off_c, 9, 36, 0
4, 8918, Note_on_c, 9, 54, 100
4, 8925, Note_on_c, 9, 41, 100
4, 8946, Note_off_c, 9, 54, 0
4, 8962, Note_off_c, 9, 41, 0
4, 8970, Note_on_c, 9, 36, 100
4, 8993, Note_off_c, 9, 36, 0
4, 9020, Note_on_c, 9, 36, 100
4, 9064, Note_on_c, 9, 54, 100
4, 9066, Note_off_c, 9, 36, 0
4, 9073, Note_on_c, 9, 41, 100
4, 9098, Note_off_c, 9, 54, 0
4, 9115, Note_off_c, 9, 41, 0
4, 9158, Note_on_c, 9, 54, 100
4, 9159, Note_on_c, 9, 41, 100
4, 9185, Note_off_c, 9, 54, 0
4, 9202, Note_off_c, 9, 41, 0
4, 9210, Note_on_c, 9, 36, 100
4, 9281, Note_off_c, 9, 36, 0
4, 9301, Note_on_c, 9, 54, 100
4, 9304, Note_on_c, 9, 41, 100
4, 9333, Note_off_c, 9, 54, 0
4, 9361, Note_off_c, 9, 41, 0
4, 9405, Note_on_c, 9, 36, 100
4, 9429, Note_off_c, 9, 36, 0
4, 9458, Note_on_c, 9, 36, 100
4, 9499, Note_on_c, 9, 54, 100
4, 9506, Note_off_c, 9, 36, 0
4, 9508, Note_on_c, 9, 41, 100
4, 9532, Note_off_c, 9, 54, 0
4, 9575, Note_off_c, 9, 41, 0
4, 9603, Note_on_c, 9, 36, 100
4, 9686, Note_off_c, 9, 36, 0
4, 9690, Note_on_c, 9, 54, 100
4, 9697, Note_on_c, 9, 41, 100
4, 9726, Note_off_c, 9, 54, 0
4, 9741, Note_on_c, 9, 36, 100
4, 9742, Note_off_c, 9, 41, 0
4, 9763, Note_off_c, 9, 36, 0
4, 9789, Note_on_c, 9, 36, 100
4, 9834, Note_on_c, 9, 54, 100
4, 9841, Note_off_c, 9, 36, 0
4, 9842, Note_on_c, 9, 41, 100
4, 9875, Note_off_c, 9, 54, 0
4, 9887, Note_off_c, 9, 41, 0
4, 9930, Note_on_c, 9, 54, 100
4, 9934, Note_on_c, 9, 41, 100
4, 9961, Note_off_c, 9, 54, 0
4, 9982, Note_on_c, 9, 36, 100
4, 9984, Note_off_c, 9, 41, 0
4, 10057, Note_off_c, 9, 36, 0
4, 10078, Note_on_c, 9, 41, 100
4, 10080, Note_on_c, 9, 54, 100
4, 10107, Note_off_c, 9, 54, 0
4, 10113, Note_off_c, 9, 41, 0
4, 10126, Note_on_c, 9, 36, 100
4, 10146, Note_off_c, 9, 36, 0
4, 10172, Note_on_c, 9, 36, 100
4, 10208, Note_off_c, 9, 36, 0
4, 10218, Note_on_c, 9, 41, 100
4, 10252, Note_off_c, 9, 41, 0
4, 10311, Note_on_c, 9, 54, 100
4, 10319, Note_on_c, 9, 41, 100
4, 10345, Note_off_c, 9, 54, 0
4, 10368, Note_off_c, 9, 41, 0
4, 10369, Note_on_c, 9, 36, 100
4, 10456, Note_off_c, 9, 36, 0
4, 10465, Note_on_c, 9, 54, 100
4, 10468, Note_on_c, 9, 41, 100
4, 10491, Note_off_c, 9, 41, 0
4, 10503, Note_off_c, 9, 54, 0
4, 10529, Note_on_c, 9, 43, 100
4, 10549, Note_on_c, 9, 41, 100
4, 10551, Note_off_c, 9, 43, 0
4, 10569, Note_off_c, 9, 41, 0
4, 10571, Note_on_c, 9, 43, 100
4, 10594, Note_on_c, 9, 41, 100
4, 10601, Note_off_c, 9, 43, 0
4, 10620, Note_off_c, 9, 41, 0
4, 10639, Note_on_c, 9, 43, 100
4, 10654, Note_on_c, 9, 54, 100
4, 10680, Note_off_c, 9, 54, 0
4, 10686, Note_off_c, 9, 43, 0
4, 10742, Note_on_c, 9, 36, 100
4, 10813, Note_off_c, 9, 36, 0
4, 10828, Note_on_c, 9, 54, 100
4, 10840, Note_on_c, 9, 41, 100
4, 10861, Note_off_c, 9, 54, 0
4, 10878, Note_off_c, 9, 41, 0
4, 10888, Note_on_c, 9, 36, 100
4, 10906, Note_off_c, 9, 36, 0
4, 10935, Note_on_c, 9, 36, 100
4, 10977, Note_on_c, 9, 54, 100
4, 10979, Note_off_c, 9, 36, 0
4, 10994, Note_on_c, 9, 41, 100
4, 11011, Note_off_c, 9, 54, 0
4, 11034, Note_off_c, 9, 41, 0
4, 11079, Note_on_c, 9, 54, 100
4, 11088, Note_on_c, 9, 41, 100
4, 11111, Note_off_c, 9, 54, 0
4, 11120, Note_off_c, 9, 41, 0
4, 11138, Note_on_c, 9, 36, 100
4, 11218, Note_off_c, 9, 36, 0
4, 11226, Note_on_c, 9, 54, 100
4, 11235, Note_on_c, 9, 41, 100
4, 11259, Note_off_c, 9, 54, 0
4, 11268, Note_off_c, 9, 41, 0
4, 11286, Note_on_c, 9, 36, 100
4, 11307, Note_off_c, 9, 36, 0
4, 11334, Note_on_c, 9, 36, 100
4, 11372, Note_off_c, 9, 36, 0
4, 11375, Note_on_c, 9, 54, 100
4, 11382, Note_on_c, 9, 41, 100
4, 11409, Note_off_c, 9, 54, 0
4, 11419, Note_off_c, 9, 41, 0
4, 11471, Note_on_c, 9, 54, 100
4, 11478, Note_on_c, 9, 41, 100
4, 11503, Note_off_c, 9, 54, 0
4, 11523, Note_off_c, 9, 41, 0
4, 11526, Note_on_c, 9, 36, 100
4, 11608, Note_off_c, 9, 36, 0
4, 11608, Note_on_c, 9, 41, 100
4, 11615, Note_on_c, 9, 54, 100
4, 11628, Note_off_c, 9, 41, 0
4, 11647, Note_off_c, 9, 54, 0
4, 11676, Note_on_c, 9, 43, 100
4, 11698, Note_off_c, 9, 43, 0
4, 11704, Note_on_c, 9, 41, 100
4, 11726, Note_on_c, 9, 43, 100
4, 11727, Note_off_c, 9, 41, 0
4, 11753, Note_on_c, 9, 41, 100
4, 11756, Note_off_c, 9, 43, 0
4, 11789, Note_off_c, 9, 41, 0
4, 11795, Note_on_c, 9, 43, 100
4, 11807, Note_on_c, 9, 54, 100
4, 11842, Note_off_c, 9, 54, 0
4, 11845, Note_off_c, 9, 43, 0
4, 11893, Note_on_c, 9, 36, 100
4, 11960, Note_off_c, 9, 36, 0
4, 11986, Note_on_c, 9, 54, 100
4, 11992, Note_on_c, 9, 41, 100
4, 12022, Note_off_c, 9, 54, 0
4, 12027, Note_off_c, 9, 41, 0
4, 12039, Note_on_c, 9, 36, 100
4, 12061, Note_off_c, 9, 36, 0
4, 12089, Note_on_c, 9, 36, 100
4, 12135, Note_off_c, 9, 36, 0
4, 12135, Note_on_c, 9, 54, 100
4, 12143, Note_on_c, 9, 41, 100
4, 12170, Note_off_c, 9, 54, 0
4, 12183, Note_off_c, 9, 41, 0
4, 12231, Note_on_c, 9, 41, 100
4, 12231, Note_on_c, 9, 54, 100
4, 12263, Note_off_c, 9, 54, 0
4, 12272, Note_off_c, 9, 41, 0
4, 12291, Note_on_c, 9, 36, 100
4, 12376, Note_off_c, 9, 36, 0
4, 12384, Note_on_c, 9, 41, 100
4, 12385, Note_on_c, 9, 54, 100
4, 12417, Note_off_c, 9, 54, 0
4, 12419, Note_off_c, 9, 41, 0
4, 12430, Note_on_c, 9, 36, 100
4, 12453, Note_off_c, 9, 36, 0
4, 12481, Note_on_c, 9, 36, 100
4, 12525, Note_off_c, 9, 36, 0
4, 12530, Note_on_c, 9, 41, 100
4, 12533, Note_on_c, 9, 54, 100
4, 12567, Note_off_c, 9, 54, 0
4, 12570, Note_off_c, 9, 41, 0
4, 12624, Note_on_c, 9, 54, 100
4, 12627, Note_on_c, 9, 41, 100
4, 12654, Note_off_c, 9, 54, 0
4, 12673, Note_off_c, 9, 41, 0
4, 12681, Note_on_c, 9, 36, 100
4, 12754, Note_off_c, 9, 36, 0
4, 12769, Note_on_c, 9, 54, 100
4, 12778, Note_on_c, 9, 41, 100
4, 12804, Note_off_c, 9, 54, 0
4, 12809, Note_off_c, 9, 41, 0
4, 12819, Note_on_c, 9, 36, 100
4, 12841, Note_off_c, 9, 36, 0
4, 12866, Note_on_c, 9, 36, 100
4, 12906, Note_off_c, 9, 36, 0
4, 12910, Note_on_c, 9, 54, 100
4, 12921, Note_on_c, 9, 41, 100
4, 12949, Note_off_c, 9, 54, 0
4, 12959, Note_off_c, 9, 41, 0
4, 13005, Note_on_c, 9, 54, 100
4, 13013, Note_on_c, 9, 41, 100
4, 13045, Note_off_c, 9, 54, 0
4, 13048, Note_off_c, 9, 41, 0
4, 13057, Note_on_c, 9, 36, 100
4, 13121, Note_off_c, 9, 36, 0
4, 13152, Note_on_c, 9, 54, 100
4, 13157, Note_on_c, 9, 41, 100
4, 13183, Note_off_c, 9, 54, 0
4, 13187, Note_off_c, 9, 41, 0
4, 13205, Note_on_c, 9, 36, 100
4, 13227, Note_off_c, 9, 36, 0
4, 13252, Note_on_c, 9, 36, 100
4, 13292, Note_off_c, 9, 36, 0
4, 13295, Note_on_c, 9, 54, 100
4, 13302, Note_on_c, 9, 41, 100
4, 13329, Note_off_c, 9, 54, 0
4, 13339, Note_off_c, 9, 41, 0
4, 13384, Note_on_c, 9, 54, 100
4, 13392, Note_on_c, 9, 41, 100
4, 13418, Note_off_c, 9, 54, 0
4, 13430, Note_off_c, 9, 41, 0
4, 13440, Note_on_c, 9, 36, 100
4, 13501, Note_off_c, 9, 36, 0
4, 13524, Note_on_c, 9, 54, 100
4, 13537, Note_on_c, 9, 41, 100
4, 13559, Note_off_c, 9, 54, 0
4, 13576, Note_off_c, 9, 41, 0
4, 13635, Note_on_c, 9, 36, 100
4, 13660, Note_off_c, 9, 36, 0
4, 13685, Note_on_c, 9, 36, 100
4, 13727, Note_on_c, 9, 54, 100
4, 13730, Note_off_c, 9, 36, 0
4, 13736, Note_on_c, 9, 41, 100
4, 13763, Note_off_c, 9, 54, 0
4, 13794, Note_off_c, 9, 41, 0
4, 13831, Note_on_c, 9, 36, 100
4, 13904, Note_off_c, 9, 36, 0
4, 13916, Note_on_c, 9, 54, 100
4, 13922, Note_on_c, 9, 41, 100
4, 13946, Note_off_c, 9, 54, 0
4, 13953, Note_off_c, 9, 41, 0
4, 13970, Note_on_c, 9, 36, 100
4, 13993, Note_off_c, 9, 36, 0
4, 14016, Note_on_c, 9, 36, 100
4, 14058, Note_off_c, 9, 36, 0
4, 14062, Note_on_c, 9, 41, 100
4, 14066, Note_on_c, 9, 54, 100
4, 14095, Note_off_c, 9, 54, 0
4, 14111, Note_off_c, 9, 41, 0
4, 14146, Note_on_c, 9, 54, 100
4, 14166, Note_on_c, 9, 41, 100
4, 14176, Note_off_c, 9, 54, 0
4, 14201, Note_off_c, 9, 41, 0
4, 14213, Note_on_c, 9, 36, 100
4, 14274, Note_off_c, 9, 36, 0
4, 14296, Note_on_c, 9, 54, 100
4, 14305, Note_on_c, 9, 41, 100
4, 14329, Note_off_c, 9, 54, 0
4, 14356, Note_off_c, 9, 41, 0
4, 14397, Note_on_c, 9, 36, 100
4, 14418, Note_off_c, 9, 36, 0
4, 14443, Note_on_c, 9, 36, 100
4, 14485, Note_off_c, 9, 36, 0
4, 14494, Note_on_c, 9, 41, 100
4, 14497, Note_on_c, 9, 54, 100
4, 14533, Note_off_c, 9, 54, 0
4, 14546, Note_off_c, 9, 41, 0
4, 14597, Note_on_c, 9, 36, 100
4, 14668, Note_off_c, 9, 36, 0
4, 14679, Note_on_c, 9, 54, 100
4, 14687, Note_on_c, 9, 41, 100
4, 14718, Note_off_c, 9, 54, 0
4, 14727, Note_off_c, 9, 41, 0
4, 14735, Note_on_c, 9, 36, 100
4, 14754, Note_off_c, 9, 36, 0
4, 14782, Note_on_c, 9, 36, 100
4, 14822, Note_off_c, 9, 36, 0
4, 14829, Note_on_c, 9, 54, 100
4, 14834, Note_on_c, 9, 41, 100
4, 14867, Note_off_c, 9, 54, 0
4, 14876, Note_off_c, 9, 41, 0
4, 14916, Note_on_c, 9, 54, 100
4, 14921, Note_on_c, 9, 41, 100
4, 14953, Note_off_c, 9, 54, 0
4, 14959, Note_off_c, 9, 41, 0
4, 14972, Note_on_c, 9, 36, 100
4, 15038, Note_off_c, 9, 36, 0
4, 15064, Note_on_c, 9, 54, 100
4, 15067, Note_on_c, 9, 41, 100
4, 15102, Note_off_c, 9, 54, 0
4, 15114, Note_off_c, 9, 41, 0
4, 15161, Note_on_c, 9, 36, 100
4, 15183, Note_off_c, 9, 36, 0
4, 15212, Note_on_c, 9, 36, 100
4, 15254, Note_off_c, 9, 36, 0
4, 15261, Note_on_c, 9, 54, 100
4, 15264, Note_on_c, 9, 41, 100
4, 15301, Note_off_c, 9, 54, 0
4, 15318, Note_off_c, 9, 41, 0
4, 15361, Note_on_c, 9, 36, 100
4, 15419, Note_off_c, 9, 36, 0
4, 15455, Note_on_c, 9, 54, 100
4, 15460, Note_on_c, 9, 41, 100
4, 15492, Note_off_c, 9, 54, 0
4, 15498, Note_off_c, 9, 41, 0
4, 15554, Note_on_c, 9, 36, 100
4, 15575, Note_off_c, 9, 36, 0
4, 15605, Note_on_c, 9, 36, 100
4, 15644, Note_off_c, 9, 36, 0
4, 15650, Note_on_c, 9, 54, 100
4, 15651, Note_on_c, 9, 41, 100
4, 15690, Note_off_c, 9, 54, 0
4, 15707, Note_off_c, 9, 41, 0
4, 15743, Note_on_c, 9, 36, 100
4, 15816, Note_off_c, 9, 36, 0
4, 15832, Note_on_c, 9, 54, 100
4, 15838, Note_on_c, 9, 41, 100
4, 15867, Note_off_c, 9, 54, 0
4, 15877, Note_off_c, 9, 41, 0
4, 15886, Note_on_c, 9, 36, 100
4, 15908, Note_off_c, 9, 36, 0
4, 15930, Note_on_c, 9, 36, 100
4, 15976, Note_on_c, 9, 54, 100
4, 15977, Note_off_c, 9, 36, 0
4, 15986, Note_on_c, 9, 41, 100
4, 16014, Note_off_c, 9, 54, 0
4, 16032, Note_off_c, 9, 41, 0
4, 16067, Note_on_c, 9, 54, 100
4, 16078, Note_on_c, 9, 41, 100
4, 16096, Note_off_c, 9, 54, 0
4, 16124, Note_off_c, 9, 41, 0
4, 16128, Note_on_c, 9, 36, 100
4, 16197, Note_off_c, 9, 36, 0
4, 16220, Note_on_c, 9, 54, 100
4, 16224, Note_on_c, 9, 41, 100
4, 16256, Note_off_c, 9, 54, 0
4, 16274, Note_off_c, 9, 41, 0
4, 16315, Note_on_c, 9, 36, 100
4, 16338, Note_off_c, 9, 36, 0
4, 16364, Note_on_c, 9, 36, 100
4, 16408, Note_off_c, 9, 36, 0
4, 16410, Note_on_c, 9, 54, 100
4, 16414, Note_on_c, 9, 41, 100
4, 16445, Note_off_c, 9, 54, 0
4, 16473, Note_off_c, 9, 41, 0
4, 16515, Note_on_c, 9, 36, 100
4, 16578, Note_off_c, 9, 36, 0
4, 16595, Note_on_c, 9, 54, 100
4, 16601, Note_on_c, 9, 41, 100
4, 16630, Note_off_c, 9, 54, 0
4, 16643, Note_off_c, 9, 41, 0
4, 16657, Note_on_c, 9, 36, 100
4, 16677, Note_off_c, 9, 36, 0
4, 16702, Note_on_c, 9, 36, 100
4, 16742, Note_off_c, 9, 36, 0
4, 16747, Note_on_c, 9, 54, 100
4, 16753, Note_on_c, 9, 41, 100
4, 16782, Note_off_c, 9, 54, 0
4, 16796, Note_off_c, 9, 41, 0
4, 16838, Note_on_c, 9, 54, 100
4, 16846, Note_on_c, 9, 41, 100
4, 16872, Note_off_c, 9, 54, 0
4, 16886, Note_off_c, 9, 41, 0
4, 16898, Note_on_c, 9, 36, 100
4, 16950, Note_off_c, 9, 36, 0
4, 16982, Note_on_c, 9, 41, 100
4, 16982, Note_on_c, 9, 54, 100
4, 17015, Note_off_c, 9, 54, 0
4, 17031, Note_off_c, 9, 41, 0
4, 17083, Note_on_c, 9, 36, 100
4, 17101, Note_off_c, 9, 36, 0
4, 17130, Note_on_c, 9, 36, 100
4, 17168, Note_off_c, 9, 36, 0
4, 17177, Note_on_c, 9, 54, 100
4, 17182, Note_on_c, 9, 41, 100
4, 17201, Note_off_c, 9, 54, 0
4, 17227, Note_off_c, 9, 41, 0
4, 17284, Note_on_c, 9, 36, 100
4, 17344, Note_off_c, 9, 36, 0
4, 17369, Note_on_c, 9, 54, 100
4, 17374, Note_on_c, 9, 41, 100
4, 17400, Note_off_c, 9, 54, 0
4, 17412, Note_off_c, 9, 41, 0
4, 17416, Note_on_c, 9, 36, 100
4, 17435, Note_off_c, 9, 36, 0
4, 17470, Note_on_c, 9, 36, 100
4, 17504, Note_off_c, 9, 36, 0
4, 17513, Note_on_c, 9, 54, 100
4, 17524, Note_on_c, 9, 41, 100
4, 17545, Note_off_c, 9, 54, 0
4, 17566, Note_off_c, 9, 41, 0
4, 17608, Note_on_c, 9, 54, 100
4, 17614, Note_on_c, 9, 41, 100
4, 17632, Note_off_c, 9, 54, 0
4, 17654, Note_off_c, 9, 41, 0
4, 17659, Note_on_c, 9, 36, 100
4, 17704, Note_off_c, 9, 36, 0
4, 17748, Note_on_c, 9, 54, 100
4, 17756, Note_on_c, 9, 41, 100
4, 17782, Note_off_c, 9, 54, 0
4, 17805, Note_off_c, 9, 41, 0
4, 17848, Note_on_c, 9, 36, 100
4, 17869, Note_off_c, 9, 36, 0
4, 17901, Note_on_c, 9, 36, 100
4, 17940, Note_off_c, 9, 36, 0
4, 17940, Note_on_c, 9, 54, 100
4, 17951, Note_on_c, 9, 41, 100
4, 17977, Note_off_c, 9, 54, 0
4, 17995, Note_off_c, 9, 41, 0
4, 18052, Note_on_c, 9, 36, 100
4, 18119, Note_off_c, 9, 36, 0
4, 18140, Note_on_c, 9, 54, 100
4, 18145, Note_on_c, 9, 41, 100
4, 18172, Note_off_c, 9, 54, 0
4, 18190, Note_off_c, 9, 41, 0
4, 18191, Note_on_c, 9, 36, 100
4, 18214, Note_off_c, 9, 36, 0
4, 18245, Note_on_c, 9, 36, 100
4, 18285, Note_off_c, 9, 36, 0
4, 18290, Note_on_c, 9, 41, 100
4, 18290, Note_on_c, 9, 54, 100
4, 18323, Note_off_c, 9, 54, 0
4, 18334, Note_off_c, 9, 41, 0
4, 18379, Note_on_c, 9, 41, 100
4, 18381, Note_on_c, 9, 54, 100
4, 18410, Note_off_c, 9, 54, 0
4, 18423, Note_off_c, 9, 41, 0
4, 18428, Note_on_c, 9, 36, 100
4, 18482, Note_off_c, 9, 36, 0
4, 18520, Note_on_c, 9, 54, 100
4, 18524, Note_on_c, 9, 41, 100
4, 18553, Note_off_c, 9, 54, 0
4, 18577, Note_off_c, 9, 41, 0
4, 18620, Note_on_c, 9, 36, 100
4, 18642, Note_off_c, 9, 36, 0
4, 18676, Note_on_c, 9, 36, 100
4, 18717, Note_off_c, 9, 36, 0
4, 18720, Note_on_c, 9, 54, 100
4, 18722, Note_on_c, 9, 41, 100
4, 18753, Note_off_c, 9, 54, 0
4, 18779, Note_off_c, 9, 41, 0
4, 18812, Note_on_c, 9, 36, 100
4, 18887, Note_off_c, 9, 36, 0
4, 18907, Note_on_c, 9, 54, 100
4, 18908, Note_on_c, 9, 41, 100
4, 18939, Note_off_c, 9, 54, 0
4, 18951, Note_off_c, 9, 41, 0
4, 18957, Note_on_c, 9, 36, 100
4, 18981, Note_off_c, 9, 36, 0
4, 19010, Note_on_c, 9, 36, 100
4, 19046, Note_off_c, 9, 36, 0
4, 19053, Note_on_c, 9, 41, 100
4, 19061, Note_on_c, 9, 54, 100
4, 19094, Note_off_c, 9, 54, 0
4, 19100, Note_off_c, 9, 41, 0
4, 19140, Note_on_c, 9, 41, 100
4, 19148, Note_on_c, 9, 54, 100
4, 19181, Note_off_c, 9, 54, 0
4, 19185, Note_off_c, 9, 41, 0
4, 19193, Note_on_c, 9, 36, 100
4, 19251, Note_off_c, 9, 36, 0
4, 19281, Note_on_c, 9, 54, 100
4, 19288, Note_on_c, 9, 41, 100
4, 19316, Note_off_c, 9, 54, 0
4, 19342, Note_off_c, 9, 41, 0
4, 19392, Note_on_c, 9, 36, 100
4, 19416, Note_off_c, 9, 36, 0
4, 19440, Note_on_c, 9, 36, 100
4, 19474, Note_off_c, 9, 36, 0
4, 19484, Note_on_c, 9, 41, 100
4, 19484, Note_on_c, 9, 54, 100
4, 19520, Note_off_c, 9, 54, 0
4, 19558, Note_off_c, 9, 41, 0
4, 19590, Note_on_c, 9, 36, 100
4, 19651, Note_off_c, 9, 36, 0
4, 19673, Note_on_c, 9, 54, 100
4, 19677, Note_on_c, 9, 41, 100
4, 19702, Note_off_c, 9, 54, 0
4, 19721, Note_off_c, 9, 41, 0
4, 19726, Note_on_c, 9, 36, 100
4, 19746, Note_off_c, 9, 36, 0
4, 19771, Note_on_c, 9, 36, 100
4, 19807, Note_off_c, 9, 36, 0
4, 19815, Note_on_c, 9, 54, 100
4, 19818, Note_on_c, 9, 41, 100
4, 19852, Note_off_c, 9, 54, 0
4, 19868, Note_off_c, 9, 41, 0
4, 19910, Note_on_c, 9, 54, 100
4, 19914, Note_on_c, 9, 41, 100
4, 19932, Note_off_c, 9, 54, 0
4, 19955, Note_off_c, 9, 41, 0
4, 19963, Note_on_c, 9, 36, 100
4, 20023, Note_off_c, 9, 36, 0
4, 20052, Note_on_c, 9, 54, 100
4, 20058, Note_on_c, 9, 41, 100
4, 20085, Note_off_c, 9, 54, 0
4, 20116, Note_off_c, 9, 41, 0
4, 20156, Note_on_c, 9, 36, 100
4, 20178, Note_off_c, 9, 36, 0
4, 20205, Note_on_c, 9, 36, 100
4, 20245, Note_off_c, 9, 36, 0
4, 20247, Note_on_c, 9, 54, 100
4, 20252, Note_on_c, 9, 41, 100
4, 20287, Note_off_c, 9, 54, 0
4, 20305, Note_off_c, 9, 41, 0
4, 20348, Note_on_c, 9, 36, 100
4, 20397, Note_off_c, 9, 36, 0
4, 20440, Note_on_c, 9, 54, 100
4, 20447, Note_on_c, 9, 41, 100
4, 20476, Note_off_c, 9, 54, 0
4, 20486, Note_off_c, 9, 41, 0
4, 20487, Note_on_c, 9, 36, 100
4, 20508, Note_off_c, 9, 36, 0
4, 20535, Note_on_c, 9, 36, 100
4, 20573, Note_off_c, 9, 36, 0
4, 20584, Note_on_c, 9, 54, 100
4, 20586, Note_on_c, 9, 41, 100
4, 20622, Note_off_c, 9, 54, 0
4, 20630, Note_off_c, 9, 41, 0
4, 20669, Note_on_c, 9, 41, 100
4, 20675, Note_on_c, 9, 54, 100
4, 20708, Note_off_c, 9, 41, 0
4, 20712, Note_off_c, 9, 54, 0
4, 20722, Note_on_c, 9, 36, 100
4, 20778, Note_off_c, 9, 36, 0
4, 20813, Note_on_c, 9, 54, 100
4, 20819, Note_on_c, 9, 41, 100
4, 20856, Note_off_c, 9, 54, 0
4, 20877, Note_off_c, 9, 41, 0
4, 20922, Note_on_c, 9, 36, 100
4, 20943, Note_off_c, 9, 36, 0
4, 20975, Note_on_c, 9, 36, 100
4, 21015, Note_off_c, 9, 36, 0
4, 21017, Note_on_c, 9, 41, 100
4, 21017, Note_on_c, 9, 54, 100
4, 21051, Note_off_c, 9, 54, 0
4, 21077, Note_off_c, 9, 41, 0
4, 21117, Note_on_c, 9, 36, 100
4, 21187, Note_off_c, 9, 36, 0
4, 21205, Note_on_c, 9, 54, 100
4, 21209, Note_on_c, 9, 41, 100
4, 21240, Note_off_c, 9, 54, 0
4, 21252, Note_off_c, 9, 41, 0
4, 21255, Note_on_c, 9, 36, 100
4, 21276, Note_off_c, 9, 36, 0
4, 21304, Note_on_c, 9, 36, 100
4, 21346, Note_off_c, 9, 36, 0
4, 21350, Note_on_c, 9, 54, 100
4, 21353, Note_on_c, 9, 41, 100
4, 21386, Note_off_c, 9, 54, 0
4, 21399, Note_off_c, 9, 41, 0
4, 21442, Note_on_c, 9, 54, 100
4, 21448, Note_on_c, 9, 41, 100
4, 21477, Note_off_c, 9, 54, 0
4, 21504, Note_off_c, 9, 41, 0
4, 21509, Note_on_c, 9, 36, 100
4, 21585, Note_off_c, 9, 36, 0
4, 21595, Note_on_c, 9, 54, 100
4, 21596, Note_on_c, 9, 41, 100
4, 21630, Note_off_c, 9, 54, 0
4, 21638, Note_off_c, 9, 41, 0
4, 21644, Note_on_c, 9, 36, 100
4, 21661, Note_off_c, 9, 36, 0
4, 21689, Note_on_c, 9, 36, 100
4, 21726, Note_off_c, 9, 36, 0
4, 21739, Note_on_c, 9, 54, 100
4, 21741, Note_on_c, 9, 41, 100
4, 21774, Note_off_c, 9, 54, 0
4, 21784, Note_off_c, 9, 41, 0
4, 21832, Note_on_c, 9, 54, 100
4, 21839, Note_on_c, 9, 41, 100
4, 21862, Note_off_c, 9, 54, 0
4, 21893, Note_off_c, 9, 41, 0
4, 21893, Note_on_c, 9, 36, 100
4, 21979, Note_on_c, 9, 54, 100
4, 21986, Note_on_c, 9, 41, 100
4, 21993, Note_off_c, 9, 36, 0
4, 22008, Note_off_c, 9, 54, 0
4, 22012, Note_off_c, 9, 41, 0
4, 22050, Note_on_c, 9, 43, 100
4, 22073, Note_off_c, 9, 43, 0
4, 22077, Note_on_c, 9, 41, 100
4, 22090, Note_off_c, 9, 41, 0
4, 22098, Note_on_c, 9, 43, 100
4, 22127, Note_off_c, 9, 43, 0
4, 22135, Note_on_c, 9, 41, 100
4, 22158, Note_off_c, 9, 41, 0
4, 22173, Note_on_c, 9, 43, 100
4, 22177, Note_on_c, 9, 54, 100
4, 22215, Note_off_c, 9, 54, 0
4, 22229, Note_off_c, 9, 43, 0
4, 22268, Note_on_c, 9, 36, 100
4, 22344, Note_off_c, 9, 36, 0
4, 22353, Note_on_c, 9, 54, 100
4, 22359, Note_on_c, 9, 41, 100
4, 22390, Note_off_c, 9, 54, 0
4, 22397, Note_off_c, 9, 41, 0
4, 22412, Note_on_c, 9, 36, 100
4, 22433, Note_off_c, 9, 36, 0
4, 22461, Note_on_c, 9, 36, 100
4, 22498, Note_off_c, 9, 36, 0
4, 22506, Note_on_c, 9, 41, 100
4, 22507, Note_on_c, 9, 54, 100
4, 22543, Note_off_c, 9, 54, 0
4, 22546, Note_off_c, 9, 41, 0
4, 22597, Note_on_c, 9, 54, 100
4, 22602, Note_on_c, 9, 41, 100
4, 22628, Note_off_c, 9, 54, 0
4, 22642, Note_off_c, 9, 41, 0
4, 22661, Note_on_c, 9, 36, 100
4, 22728, Note_off_c, 9, 36, 0
4, 22745, Note_on_c, 9, 54, 100
4, 22753, Note_on_c, 9, 41, 100
4, 22780, Note_off_c, 9, 54, 0
4, 22789, Note_off_c, 9, 41, 0
4, 22801, Note_on_c, 9, 36, 100
4, 22822, Note_off_c, 9, 36, 0
4, 22846, Note_on_c, 9, 36, 100
4, 22887, Note_off_c, 9, 36, 0
4, 22895, Note_on_c, 9, 41, 100
4, 22936, Note_on_c, 9, 54, 100
4, 22937, Note_off_c, 9, 41, 0
4, 22968, Note_off_c, 9, 54, 0
4, 22993, Note_on_c, 9, 41, 100
4, 23040, Note_on_c, 9, 36, 100
4, 23046, Note_off_c, 9, 41, 0
4, 23126, Note_off_c, 9, 36, 0
4, 23127, Note_on_c, 9, 41, 100
4, 23127, Note_on_c, 9, 54, 100
4, 23152, Note_off_c, 9, 41, 0
4, 23157, Note_off_c, 9, 54, 0
4, 23193, Note_on_c, 9, 43, 100
4, 23218, Note_off_c, 9, 43, 0
4, 23221, Note_on_c, 9, 41, 100
4, 23244, Note_off_c, 9, 41, 0
4, 23246, Note_on_c, 9, 43, 100
4, 23265, Note_on_c, 9, 41, 100
4, 23274, Note_off_c, 9, 43, 0
4, 23302, Note_off_c, 9, 41, 0
4, 23312, Note_on_c, 9, 43, 100
4, 23313, Note_on_c, 9, 54, 100
4, 23351, Note_off_c, 9, 54, 0
4, 23411, Note_off_c, 9, 43, 0
4, 23416, Note_on_c, 9, 36, 100
4, 23496, Note_off_c, 9, 36, 0
4, 23508, Note_on_c, 9, 41, 100
4, 23509, Note_on_c, 9, 54, 100
4, 23545, Note_off_c, 9, 54, 0
4, 23548, Note_off_c, 9, 41, 0
4, 23554, Note_on_c, 9, 36, 100
4, 23577, Note_off_c, 9, 36, 0
4, 23602, Note_on_c, 9, 36, 100
4, 23645, Note_off_c, 9, 36, 0
4, 23648, Note_on_c, 9, 54, 100
4, 23657, Note_on_c, 9, 41, 100
4, 23681, Note_off_c, 9, 54, 0
4, 23699, Note_off_c, 9, 41, 0
4, 23743, Note_on_c, 9, 54, 100
4, 23748, Note_on_c, 9, 41, 100
4, 23776, Note_off_c, 9, 54, 0
4, 23793, Note_off_c, 9, 41, 0
4, 23798, Note_on_c, 9, 36, 100
4, 23874, Note_off_c, 9, 36, 0
4, 23891, Note_on_c, 9, 54, 100
4, 23897, Note_on_c, 9, 41, 100
4, 23925, Note_off_c, 9, 54, 0
4, 23937, Note_off_c, 9, 41, 0
4, 23941, Note_on_c, 9, 36, 100
4, 23963, Note_off_c, 9, 36, 0
4, 23998, Note_on_c, 9, 36, 100
4, 24034, Note_off_c, 9, 36, 0
4, 24043, Note_on_c, 9, 41, 100
4, 24045, Note_on_c, 9, 54, 100
4, 24078, Note_off_c, 9, 54, 0
4, 24085, Note_off_c, 9, 41, 0
4, 24138, Note_on_c, 9, 54, 100
4, 24141, Note_on_c, 9, 41, 100
4, 24169, Note_off_c, 9, 54, 0
4, 24188, Note_on_c, 9, 36, 100
4, 24192, Note_off_c, 9, 41, 0
4, 24258, Note_off_c, 9, 36, 0
4, 24280, Note_on_c, 9, 54, 100
4, 24286, Note_on_c, 9, 41, 100
4, 24317, Note_off_c, 9, 54, 0
4, 24323, Note_off_c, 9, 41, 0
4, 24326, Note_on_c, 9, 36, 100
4, 24351, Note_off_c, 9, 36, 0
4, 24383, Note_on_c, 9, 36, 100
4, 24420, Note_off_c, 9, 36, 0
4, 24425, Note_on_c, 9, 54, 100
4, 24432, Note_on_c, 9, 41, 100
4, 24464, Note_off_c, 9, 54, 0
4, 24473, Note_off_c, 9, 41, 0
4, 24517, Note_on_c, 9, 54, 100
4, 24528, Note_on_c, 9, 41, 100
4, 24555, Note_off_c, 9, 54, 0
4, 24574, Note_off_c, 9, 41, 0
4, 24580, Note_on_c, 9, 36, 100
4, 24648, Note_off_c, 9, 36, 0
4, 24672, Note_on_c, 9, 41, 100
4, 24673, Note_on_c, 9, 54, 100
4, 24714, Note_off_c, 9, 41, 0
4, 24714, Note_off_c, 9, 54, 0
4, 24718, Note_on_c, 9, 36, 100
4, 24740, Note_off_c, 9, 36, 0
4, 24771, Note_on_c, 9, 36, 100
4, 24811, Note_off_c, 9, 36, 0
4, 24813, Note_on_c, 9, 54, 100
4, 24815, Note_on_c, 9, 41, 100
4, 24850, Note_off_c, 9, 54, 0
4, 24857, Note_off_c, 9, 41, 0
4, 24905, Note_on_c, 9, 54, 100
4, 24909, Note_on_c, 9, 41, 100
4, 24941, Note_off_c, 9, 54, 0
4, 24947, Note_off_c, 9, 41, 0
4, 24964, Note_on_c, 9, 36, 100
4, 25032, Note_off_c, 9, 36, 0
4, 25053, Note_on_c, 9, 54, 100
4, 25058, Note_on_c, 9, 41, 100
4, 25090, Note_off_c, 9, 54, 0
4, 25100, Note_off_c, 9, 41, 0
4, 25149, Note_on_c, 9, 36, 100
4, 25176, Note_off_c, 9, 36, 0
4, 25205, Note_on_c, 9, 36, 100
4, 25245, Note_on_c, 9, 54, 100
4, 25248, Note_off_c, 9, 36, 0
4, 25251, Note_on_c, 9, 41, 100
4, 25286, Note_off_c, 9, 54, 0
4, 25304, Note_off_c, 9, 41, 0
4, 25353, Note_on_c, 9, 36, 100
4, 25427, Note_off_c, 9, 36, 0
4, 25432, Note_on_c, 9, 54, 100
4, 25442, Note_on_c, 9, 41, 100
4, 25464, Note_off_c, 9, 54, 0
4, 25485, Note_off_c, 9, 41, 0
4, 25489, Note_on_c, 9, 36, 100
4, 25513, Note_off_c, 9, 36, 0
4, 25538, Note_on_c, 9, 36, 100
4, 25574, Note_off_c, 9, 36, 0
4, 25583, Note_on_c, 9, 54, 100
4, 25587, Note_on_c, 9, 41, 100
4, 25617, Note_off_c, 9, 54, 0
4, 25639, Note_off_c, 9, 41, 0
4, 25677, Note_on_c, 9, 54, 100
4, 25682, Note_on_c, 9, 41, 100
4, 25707, Note_off_c, 9, 54, 0
4, 25717, Note_off_c, 9, 41, 0
4, 25736, Note_on_c, 9, 36, 100
4, 25796, Note_off_c, 9, 36, 0
4, 25824, Note_on_c, 9, 54, 100
4, 25827, Note_on_c, 9, 41, 100
4, 25863, Note_off_c, 9, 54, 0
4, 25877, Note_off_c, 9, 41, 0
4, 25922, Note_on_c, 9, 36, 100
4, 25944, Note_off_c, 9, 36, 0
4, 25969, Note_on_c, 9, 36, 100
4, 26010, Note_off_c, 9, 36, 0
4, 26014, Note_on_c, 9, 54, 100
4, 26017, Note_on_c, 9, 41, 100
4, 26048, Note_off_c, 9, 54, 0
4, 26066, Note_off_c, 9, 41, 0
4, 26114, Note_on_c, 9, 36, 100
4, 26177, Note_off_c, 9, 36, 0
4, 26204, Note_on_c, 9, 54, 100
4, 26207, Note_on_c, 9, 41, 100
4, 26236, Note_off_c, 9, 54, 0
4, 26243, Note_off_c, 9, 41, 0
4, 26250, Note_on_c, 9, 36, 100
4, 26274, Note_off_c, 9, 36, 0
4, 26300, Note_on_c, 9, 36, 100
4, 26342, Note_off_c, 9, 36, 0
4, 26347, Note_on_c, 9, 41, 100
4, 26347, Note_on_c, 9, 54, 100
4, 26381, Note_off_c, 9, 54, 0
4, 26389, Note_off_c, 9, 41, 0
4, 26432, Note_on_c, 9, 54, 100
4, 26444, Note_on_c, 9, 41, 100
4, 26462, Note_off_c, 9, 54, 0
4, 26484, Note_off_c, 9, 41, 0
4, 26493, Note_on_c, 9, 36, 100
4, 26546, Note_off_c, 9, 36, 0
4, 26583, Note_on_c, 9, 54, 100
4, 26593, Note_on_c, 9, 41, 100
4, 26617, Note_off_c, 9, 54, 0
4, 26643, Note_off_c, 9, 41, 0
4, 26687, Note_on_c, 9, 36, 100
4, 26708, Note_off_c, 9, 36, 0
4, 26734, Note_on_c, 9, 36, 100
4, 26773, Note_off_c, 9, 36, 0
4, 26776, Note_on_c, 9, 54, 100
4, 26782, Note_on_c, 9, 41, 100
4, 26810, Note_off_c, 9, 54, 0
4, 26834, Note_off_c, 9, 41, 0
4, 26883, Note_on_c, 9, 36, 100
4, 26937, Note_off_c, 9, 36, 0
4, 26964, Note_on_c, 9, 54, 100
4, 26978, Note_on_c, 9, 41, 100
4, 26996, Note_off_c, 9, 54, 0
4, 27013, Note_off_c, 9, 41, 0
4, 27026, Note_on_c, 9, 36, 100
4, 27048, Note_off_c, 9, 36, 0
4, 27075, Note_on_c, 9, 36, 100
4, 27108, Note_off_c, 9, 36, 0
4, 27113, Note_on_c, 9, 54, 100
4, 27120, Note_on_c, 9, 41, 100
4, 27154, Note_off_c, 9, 54, 0
4, 27158, Note_off_c, 9, 41, 0
4, 27210, Note_on_c, 9, 41, 100
4, 27210, Note_on_c, 9, 54, 100
4, 27246, Note_off_c, 9, 41, 0
4, 27248, Note_off_c, 9, 54, 0
4, 27265, Note_on_c, 9, 36, 100
4, 27321, Note_off_c, 9, 36, 0
4, 27349, Note_on_c, 9, 54, 100
4, 27361, Note_on_c, 9, 41, 100
4, 27392, Note_off_c, 9, 54, 0
4, 27401, Note_off_c, 9, 41, 0
4, 27542, Note_on_c, 9, 54, 100
4, 27638, Note_off_c, 9, 54, 0
4, 29949, Note_on_c, 9, 36, 100
4, 30021, Note_off_c, 9, 36, 0
4, 30038, Note_on_c, 9, 54, 100
4, 30050, Note_on_c, 9, 41, 100
4, 30081, Note_off_c, 9, 54, 0
4, 30099, Note_off_c, 9, 41, 0
4, 30139, Note_on_c, 9, 36, 100
4, 30157, Note_off_c, 9, 36, 0
4, 30182, Note_on_c, 9, 36, 100
4, 30221, Note_off_c, 9, 36, 0
4, 30234, Note_on_c, 9, 54, 100
4, 30238, Note_on_c, 9, 41, 100
4, 30280, Note_off_c, 9, 54, 0
4, 30286, Note_off_c, 9, 41, 0
4, 30330, Note_on_c, 9, 36, 100
4, 30384, Note_off_c, 9, 36, 0
4, 30425, Note_on_c, 9, 54, 100
4, 30427, Note_on_c, 9, 41, 100
4, 30457, Note_off_c, 9, 54, 0
4, 30460, Note_off_c, 9, 41, 0
4, 30487, Note_on_c, 9, 41, 100
4, 30517, Note_off_c, 9, 41, 0
4, 30570, Note_on_c, 9, 36, 100
4, 30577, Note_on_c, 9, 54, 100
4, 30606, Note_off_c, 9, 36, 0
4, 30610, Note_off_c, 9, 54, 0
4, 30615, Note_on_c, 9, 41, 100
4, 30651, Note_off_c, 9, 41, 0
4, 30704, Note_on_c, 9, 36, 100
4, 30764, Note_off_c, 9, 36, 0
4, 30797, Note_on_c, 9, 54, 100
4, 30808, Note_on_c, 9, 41, 100
4, 30834, Note_off_c, 9, 54, 0
4, 30858, Note_off_c, 9, 41, 0
4, 30906, Note_on_c, 9, 36, 100
4, 30927, Note_off_c, 9, 36, 0
4, 30949, Note_on_c, 9, 36, 100
4, 30992, Note_off_c, 9, 36, 0
4, 31000, Note_on_c, 9, 41, 100
4, 31003, Note_on_c, 9, 54, 100
4, 31040, Note_off_c, 9, 54, 0
4, 31053, Note_off_c, 9, 41, 0
4, 31098, Note_on_c, 9, 36, 100
4, 31179, Note_off_c, 9, 36, 0
4, 31188, Note_on_c, 9, 54, 100
4, 31197, Note_on_c, 9, 41, 100
4, 31221, Note_off_c, 9, 54, 0
4, 31230, Note_off_c, 9, 41, 0
4, 31243, Note_on_c, 9, 36, 100
4, 31259, Note_off_c, 9, 36, 0
4, 31288, Note_on_c, 9, 36, 100
4, 31325, Note_off_c, 9, 36, 0
4, 31331, Note_on_c, 9, 41, 100
4, 31331, Note_on_c, 9, 54, 100
4, 31365, Note_off_c, 9, 54, 0
4, 31378, Note_off_c, 9, 41, 0
4, 31430, Note_on_c, 9, 54, 100
4, 31438, Note_on_c, 9, 41, 100
4, 31462, Note_off_c, 9, 54, 0
4, 31480, Note_off_c, 9, 41, 0
4, 31486, Note_on_c, 9, 36, 100
4, 31545, Note_off_c, 9, 36, 0
4, 31576, Note_on_c, 9, 41, 100
4, 31576, Note_on_c, 9, 54, 100
4, 31612, Note_off_c, 9, 54, 0
4, 31627, Note_off_c, 9, 41, 0
4, 31668, Note_on_c, 9, 36, 100
4, 31691, Note_off_c, 9, 36, 0
4, 31719, Note_on_c, 9, 36, 100
4, 31756, Note_off_c, 9, 36, 0
4, 31766, Note_on_c, 9, 41, 100
4, 31774, Note_on_c, 9, 54, 100
4, 31807, Note_off_c, 9, 54, 0
4, 31818, Note_off_c, 9, 41, 0
4, 31877, Note_on_c, 9, 36, 100
4, 31948, Note_off_c, 9, 36, 0
4, 31962, Note_on_c, 9, 54, 100
4, 31963, Note_on_c, 9, 41, 100
4, 31995, Note_off_c, 9, 54, 0
4, 32000, Note_off_c, 9, 41, 0
4, 32018, Note_on_c, 9, 36, 100
4, 32036, Note_off_c, 9, 36, 0
4, 32061, Note_on_c, 9, 36, 100
4, 32098, Note_off_c, 9, 36, 0
4, 32101, Note_on_c, 9, 54, 100
4, 32111, Note_on_c, 9, 41, 100
4, 32138, Note_off_c, 9, 54, 0
4, 32156, Note_off_c, 9, 41, 0
4, 32204, Note_on_c, 9, 54, 100
4, 32212, Note_on_c, 9, 41, 100
4, 32236, Note_off_c, 9, 54, 0
4, 32253, Note_off_c, 9, 41, 0
4, 32262, Note_on_c, 9, 36, 100
4, 32316, Note_off_c, 9, 36, 0
4, 32350, Note_on_c, 9, 41, 100
4, 32350, Note_on_c, 9, 54, 100
4, 32384, Note_off_c, 9, 54, 0
4, 32399, Note_off_c, 9, 41, 0
4, 32448, Note_on_c, 9, 36, 100
4, 32472, Note_off_c, 9, 36, 0
4, 32497, Note_on_c, 9, 36, 100
4, 32532, Note_off_c, 9, 36, 0
4, 32542, Note_on_c, 9, 54, 100
4, 32545, Note_on_c, 9, 41, 100
4, 32576, Note_off_c, 9, 54, 0
4, 32596, Note_off_c, 9, 41, 0
4, 32640, Note_on_c, 9, 36, 100
4, 32697, Note_off_c, 9, 36, 0
4, 32725, Note_on_c, 9, 54, 100
4, 32731, Note_on_c, 9, 41, 100
4, 32757, Note_off_c, 9, 54, 0
4, 32775, Note_off_c, 9, 41, 0
4, 32782, Note_on_c, 9, 36, 100
4, 32806, Note_off_c, 9, 36, 0
4, 32831, Note_on_c, 9, 36, 100
4, 32873, Note_off_c, 9, 36, 0
4, 32875, Note_on_c, 9, 54, 100
4, 32877, Note_on_c, 9, 41, 100
4, 32910, Note_off_c, 9, 54, 0
4, 32918, Note_off_c, 9, 41, 0
4, 32972, Note_on_c, 9, 54, 100
4, 32973, Note_on_c, 9, 41, 100
4, 33007, Note_off_c, 9, 54, 0
4, 33012, Note_off_c, 9, 41, 0
4, 33025, Note_on_c, 9, 36, 100
4, 33085, Note_off_c, 9, 36, 0
4, 33115, Note_on_c, 9, 54, 100
4, 33123, Note_on_c, 9, 41, 100
4, 33155, Note_off_c, 9, 54, 0
4, 33170, Note_off_c, 9, 41, 0
4, 33216, Note_on_c, 9, 36, 100
4, 33234, Note_off_c, 9, 36, 0
4, 33263, Note_on_c, 9, 36, 100
4, 33307, Note_off_c, 9, 36, 0
4, 33315, Note_on_c, 9, 54, 100
4, 33317, Note_on_c, 9, 41, 100
4, 33355, Note_off_c, 9, 54, 0
4, 33376, Note_off_c, 9, 41, 0
4, 33419, Note_on_c, 9, 36, 100
4, 33495, Note_off_c, 9, 36, 0
4, 33510, Note_on_c, 9, 41, 100
4, 33513, Note_on_c, 9, 54, 100
4, 33544, Note_off_c, 9, 41, 0
4, 33552, Note_off_c, 9, 54, 0
4, 33560, Note_on_c, 9, 36, 100
4, 33579, Note_off_c, 9, 36, 0
4, 33611, Note_on_c, 9, 36, 100
4, 33642, Note_off_c, 9, 36, 0
4, 33658, Note_on_c, 9, 41, 100
4, 33658, Note_on_c, 9, 54, 100
4, 33700, Note_off_c, 9, 54, 0
4, 33701, Note_off_c, 9, 41, 0
4, 33751, Note_on_c, 9, 54, 100
4, 33752, Note_on_c, 9, 41, 100
4, 33791, Note_off_c, 9, 54, 0
4, 33795, Note_off_c, 9, 41, 0
4, 33807, Note_on_c, 9, 36, 100
4, 33866, Note_off_c, 9, 36, 0
4, 33899, Note_on_c, 9, 41, 100
4, 33901, Note_on_c, 9, 54, 100
4, 33941, Note_off_c, 9, 54, 0
4, 33951, Note_off_c, 9, 41, 0
4, 33999, Note_on_c, 9, 36, 100
4, 34018, Note_off_c, 9, 36, 0
4, 34045, Note_on_c, 9, 36, 100
4, 34087, Note_off_c, 9, 36, 0
4, 34092, Note_on_c, 9, 41, 100
4, 34096, Note_on_c, 9, 54, 100
4, 34137, Note_off_c, 9, 54, 0
4, 34139, Note_off_c, 9, 41, 0
4, 34184, Note_on_c, 9, 36, 100
4, 34252, Note_off_c, 9, 36, 0
4, 34278, Note_on_c, 9, 41, 100
4, 34279, Note_on_c, 9, 54, 100
4, 34311, Note_off_c, 9, 54, 0
4, 34317, Note_off_c, 9, 41, 0
4, 34323, Note_on_c, 9, 36, 100
4, 34345, Note_off_c, 9, 36, 0
4, 34371, Note_on_c, 9, 36, 100
4, 34412, Note_off_c, 9, 36, 0
4, 34416, Note_on_c, 9, 54, 100
4, 34421, Note_on_c, 9, 41, 100
4, 34444, Note_off_c, 9, 54, 0
4, 34464, Note_off_c, 9, 41, 0
4, 34502, Note_on_c, 9, 41, 100
4, 34514, Note_on_c, 9, 54, 100
4, 34540, Note_off_c, 9, 41, 0
4, 34550, Note_off_c, 9, 54, 0
4, 34562, Note_on_c, 9, 36, 100
4, 34628, Note_off_c, 9, 36, 0
4, 34656, Note_on_c, 9, 41, 100
4, 34672, Note_on_c, 9, 54, 100
4, 34704, Note_off_c, 9, 54, 0
4, 34708, Note_off_c, 9, 41, 0
4, 34754, Note_on_c, 9, 36, 100
4, 34776, Note_off_c, 9, 36, 0
4, 34814, Note_on_c, 9, 36, 100
4, 34855, Note_off_c, 9, 36, 0
4, 34861, Note_on_c, 9, 54, 100
4, 34862, Note_on_c, 9, 41, 100
4, 34900, Note_off_c, 9, 54, 0
4, 34915, Note_off_c, 9, 41, 0
4, 34964, Note_on_c, 9, 36, 100
4, 35030, Note_off_c, 9, 36, 0
4, 35058, Note_on_c, 9, 54, 100
4, 35059, Note_on_c, 9, 41, 100
4, 35095, Note_off_c, 9, 54, 0
4, 35095, Note_off_c, 9, 41, 0
4, 35109, Note_on_c, 9, 36, 100
4, 35129, Note_off_c, 9, 36, 0
4, 35157, Note_on_c, 9, 36, 100
4, 35190, Note_off_c, 9, 36, 0
4, 35205, Note_on_c, 9, 41, 100
4, 35205, Note_on_c, 9, 54, 100
4, 35243, Note_off_c, 9, 54, 0
4, 35249, Note_off_c, 9, 41, 0
4, 35296, Note_on_c, 9, 54, 100
4, 35300, Note_on_c, 9, 41, 100
4, 35332, Note_off_c, 9, 54, 0
4, 35338, Note_off_c, 9, 41, 0
4, 35358, Note_on_c, 9, 36, 100
4, 35408, Note_off_c, 9, 36, 0
4, 35450, Note_on_c, 9, 54, 100
4, 35458, Note_on_c, 9, 41, 100
4, 35490, Note_off_c, 9, 54, 0
4, 35499, Note_off_c, 9, 41, 0
4, 35559, Note_on_c, 9, 36, 100
4, 35578, Note_off_c, 9, 36, 0
4, 35612, Note_on_c, 9, 36, 100
4, 35648, Note_off_c, 9, 36, 0
4, 35656, Note_on_c, 9, 41, 100
4, 35657, Note_on_c, 9, 54, 100
4, 35696, Note_off_c, 9, 54, 0
4, 35709, Note_off_c, 9, 41, 0
4, 35758, Note_on_c, 9, 36, 100
4, 35815, Note_off_c, 9, 36, 0
4, 35843, Note_on_c, 9, 54, 100
4, 35848, Note_on_c, 9, 41, 100
4, 35879, Note_off_c, 9, 54, 0
4, 35885, Note_off_c, 9, 41, 0
4, 35895, Note_on_c, 9, 36, 100
4, 35913, Note_off_c, 9, 36, 0
4, 35946, Note_on_c, 9, 36, 100
4, 35979, Note_off_c, 9, 36, 0
4, 35992, Note_on_c, 9, 41, 100
4, 35993, Note_on_c, 9, 54, 100
4, 36029, Note_off_c, 9, 54, 0
4, 36035, Note_off_c, 9, 41, 0
4, 36074, Note_on_c, 9, 41, 100
4, 36078, Note_on_c, 9, 54, 100
4, 36113, Note_off_c, 9, 41, 0
4, 36115, Note_off_c, 9, 54, 0
4, 36130, Note_on_c, 9, 36, 100
4, 36187, Note_off_c, 9, 36, 0
4, 36218, Note_on_c, 9, 54, 100
4, 36223, Note_on_c, 9, 41, 100
4, 36258, Note_off_c, 9, 54, 0
4, 36273, Note_off_c, 9, 41, 0
4, 36320, Note_on_c, 9, 36, 100
4, 36343, Note_off_c, 9, 36, 0
4, 36373, Note_on_c, 9, 36, 100
4, 36415, Note_off_c, 9, 36, 0
4, 36422, Note_on_c, 9, 54, 100
4, 36430, Note_on_c, 9, 41, 100
4, 36470, Note_off_c, 9, 54, 0
4, 36475, Note_off_c, 9, 41, 0
4, 36528, Note_on_c, 9, 36, 100
4, 36583, Note_off_c, 9, 36, 0
4, 36634, Note_on_c, 9, 54, 100
4, 36635, Note_on_c, 9, 41, 100
4, 36667, Note_off_c, 9, 54, 0
4, 36668, Note_off_c, 9, 41, 0
4, 36684, Note_on_c, 9, 36, 100
4, 36700, Note_off_c, 9, 36, 0
4, 36728, Note_on_c, 9, 36, 100
4, 36765, Note_off_c, 9, 36, 0
4, 36771, Note_on_c, 9, 54, 100
4, 36780, Note_on_c, 9, 41, 100
4, 36812, Note_off_c, 9, 54, 0
4, 36823, Note_off_c, 9, 41, 0
4, 36871, Note_on_c, 9, 54, 100
4, 36878, Note_on_c, 9, 41, 100
4, 36910, Note_off_c, 9, 54, 0
4, 36917, Note_off_c, 9, 41, 0
4, 36923, Note_on_c, 9, 36, 100
4, 36984, Note_off_c, 9, 36, 0
4, 37019, Note_on_c, 9, 54, 100
4, 37025, Note_on_c, 9, 41, 100
4, 37062, Note_off_c, 9, 54, 0
4, 37072, Note_off_c, 9, 41, 0
4, 37115, Note_on_c, 9, 36, 100
4, 37136, Note_off_c, 9, 36, 0
4, 37168, Note_on_c, 9, 36, 100
4, 37210, Note_off_c, 9, 36, 0
4, 37214, Note_on_c, 9, 54, 100
4, 37219, Note_on_c, 9, 41, 100
4, 37254, Note_off_c, 9, 54, 0
4, 37271, Note_off_c, 9, 41, 0
4, 37321, Note_on_c, 9, 36, 100
4, 37370, Note_off_c, 9, 36, 0
4, 37405, Note_on_c, 9, 54, 100
4, 37410, Note_on_c, 9, 41, 100
4, 37440, Note_off_c, 9, 54, 0
4, 37453, Note_off_c, 9, 41, 0
4, 37498, Note_on_c, 9, 36, 100
4, 37532, Note_off_c, 9, 36, 0
4, 37546, Note_on_c, 9, 41, 100
4, 37552, Note_on_c, 9, 54, 100
4, 37588, Note_off_c, 9, 54, 0
4, 37593, Note_off_c, 9, 41, 0
4, 37632, Note_on_c, 9, 54, 100
4, 37642, Note_on_c, 9, 41, 100
4, 37668, Note_off_c, 9, 54, 0
4, 37685, Note_off_c, 9, 41, 0
4, 37694, Note_on_c, 9, 36, 100
4, 37761, Note_off_c, 9, 36, 0
4, 37782, Note_on_c, 9, 54, 100
4, 37793, Note_on_c, 9, 41, 100
4, 37823, Note_off_c, 9, 54, 0
4, 37840, Note_off_c, 9, 41, 0
4, 37890, Note_on_c, 9, 36, 100
4, 37912, Note_off_c, 9, 36, 0
4, 37941, Note_on_c, 9, 36, 100
4, 37983, Note_off_c, 9, 36, 0
4, 37983, Note_on_c, 9, 54, 100
4, 37990, Note_on_c, 9, 41, 100
4, 38030, Note_off_c, 9, 54, 0
4, 38038, Note_off_c, 9, 41, 0
4, 38091, Note_on_c, 9, 36, 100
4, 38165, Note_off_c, 9, 36, 0
4, 38176, Note_on_c, 9, 54, 100
4, 38186, Note_on_c, 9, 41, 100
4, 38212, Note_off_c, 9, 54, 0
4, 38226, Note_off_c, 9, 41, 0
4, 38229, Note_on_c, 9, 36, 100
4, 38250, Note_off_c, 9, 36, 0
4, 38275, Note_on_c, 9, 36, 100
4, 38318, Note_off_c, 9, 36, 0
4, 38323, Note_on_c, 9, 41, 100
4, 38323, Note_on_c, 9, 54, 100
4, 38357, Note_off_c, 9, 54, 0
4, 38363, Note_off_c, 9, 41, 0
4, 38415, Note_on_c, 9, 54, 100
4, 38423, Note_on_c, 9, 41, 100
4, 38455, Note_off_c, 9, 54, 0
4, 38467, Note_off_c, 9, 41, 0
4, 38474, Note_on_c, 9, 36, 100
4, 38541, Note_off_c, 9, 36, 0
4, 38565, Note_on_c, 9, 54, 100
4, 38570, Note_on_c, 9, 41, 100
4, 38608, Note_off_c, 9, 54, 0
4, 38622, Note_off_c, 9, 41, 0
4, 38666, Note_on_c, 9, 36, 100
4, 38684, Note_off_c, 9, 36, 0
4, 38712, Note_on_c, 9, 36, 100
4, 38753, Note_off_c, 9, 36, 0
4, 38753, Note_on_c, 9, 54, 100
4, 38760, Note_on_c, 9, 41, 100
4, 38808, Note_off_c, 9, 54, 0
4, 38813, Note_off_c, 9, 41, 0
4, 38867, Note_on_c, 9, 36, 100
4, 38931, Note_off_c, 9, 36, 0
4, 38949, Note_on_c, 9, 54, 100
4, 38958, Note_on_c, 9, 41, 100
4, 38990, Note_off_c, 9, 54, 0
4, 38991, Note_off_c, 9, 41, 0
4, 38998, Note_on_c, 9, 36, 100
4, 39020, Note_off_c, 9, 36, 0
4, 39047, Note_on_c, 9, 36, 100
4, 39086, Note_off_c, 9, 36, 0
4, 39089, Note_on_c, 9, 54, 100
4, 39090, Note_on_c, 9, 41, 100
4, 39129, Note_off_c, 9, 54, 0
4, 39131, Note_off_c, 9, 41, 0
4, 39182, Note_on_c, 9, 54, 100
4, 39187, Note_on_c, 9, 41, 100
4, 39216, Note_off_c, 9, 54, 0
4, 39224, Note_off_c, 9, 41, 0
4, 39238, Note_on_c, 9, 36, 100
4, 39295, Note_off_c, 9, 36, 0
4, 39321, Note_on_c, 9, 54, 100
4, 39327, Note_on_c, 9, 41, 100
4, 39371, Note_off_c, 9, 54, 0
4, 39371, Note_off_c, 9, 41, 0
4, 39423, Note_on_c, 9, 36, 100
4, 39444, Note_off_c, 9, 36, 0
4, 39470, Note_on_c, 9, 36, 100
4, 39507, Note_off_c, 9, 36, 0
4, 39509, Note_on_c, 9, 54, 100
4, 39514, Note_on_c, 9, 41, 100
4, 39570, Note_off_c, 9, 41, 0
4, 39611, Note_on_c, 9, 36, 100
4, 39698, Note_off_c, 9, 36, 0
4, 39706, Note_on_c, 9, 41, 100
4, 39747, Note_off_c, 9, 41, 0
4, 39758, Note_on_c, 9, 36, 100
4, 39774, Note_off_c, 9, 36, 0
4, 39798, Note_on_c, 9, 36, 100
4, 39841, Note_off_c, 9, 36, 0
4, 39849, Note_on_c, 9, 41, 100
4, 39898, Note_off_c, 9, 41, 0
4, 39942, Note_on_c, 9, 41, 100
4, 39983, Note_off_c, 9, 41, 0
4, 39995, Note_on_c, 9, 36, 100
4, 40067, Note_off_c, 9, 36, 0
4, 40092, Note_on_c, 9, 41, 100
4, 40131, Note_off_c, 9, 41, 0
4, 40191, Note_on_c, 9, 36, 100
4, 40209, Note_off_c, 9, 36, 0
4, 40238, Note_on_c, 9, 36, 100
4, 40275, Note_off_c, 9, 36, 0
4, 40287, Note_on_c, 9, 41, 100
4, 40342, Note_off_c, 9, 41, 0
4, 40387, Note_on_c, 9, 36, 100
4, 40449, Note_off_c, 9, 36, 0
4, 40473, Note_on_c, 9, 41, 100
4, 40502, Note_off_c, 9, 41, 0
4, 40530, Note_off_c, 9, 54, 0
4, 40539, Note_on_c, 9, 54, 100
4, 40660, Note_off_c, 9, 54, 0
4, 40660, End_track
0, 0, End_of_file
