0, 0, Header, 1, 6, 192
1, 0, Start_track
1, 0, Title_t, "untitled"
1, 0, SMPTE_offset, 96, 0, 3, 0, 0
1, 0, Time_signature, 4, 2, 24, 8
1, 0, Key_signature, -5, "major"
1, 0, Tempo, 437956
1, 96, Tempo, 500000
1, 1152, Tempo, 504202
1, 1200, Tempo, 500000
1, 1344, Tempo, 504202
1, 1392, Tempo, 500000
1, 2448, Tempo, 504202
1, 2496, Tempo, 500000
1, 3840, Tempo, 504202
1, 3888, Tempo, 500000
1, 4032, Tempo, 512821
1, 4080, Tempo, 491803
1, 4128, Tempo, 500000
1, 4176, Tempo, 504202
1, 4224, Tempo, 500000
1, 4560, Tempo, 504202
1, 4608, Tempo, 500000
1, 5184, Tempo, 504202
1, 5232, Tempo, 500000
1, 6576, Tempo, 504202
1, 6624, Tempo, 500000
1, 6720, Tempo, 504202
1, 6768, Tempo, 500000
1, 7152, Tempo, 504202
1, 7200, Tempo, 500000
1, 7872, Tempo, 504202
1, 7920, Tempo, 500000
1, 9216, Tempo, 504202
1, 9264, Tempo, 500000
1, 10560, Tempo, 504202
1, 10608, Tempo, 500000
1, 11952, Tempo, 504202
1, 12000, Tempo, 500000
1, 13296, Tempo, 504202
1, 13344, Tempo, 500000
1, 13584, Tempo, 504202
1, 13632, Tempo, 500000
1, 14640, Tempo, 504202
1, 14688, Tempo, 500000
1, 15984, Tempo, 504202
1, 16032, Tempo, 500000
1, 17328, Tempo, 504202
1, 17376, Tempo, 500000
1, 18672, Tempo, 504202
1, 18720, Tempo, 500000
1, 20016, Tempo, 504202
1, 20064, Tempo, 500000
1, 21360, Tempo, 504202
1, 21408, Tempo, 500000
1, 22704, Tempo, 504202
1, 22752, Tempo, 500000
1, 24048, Tempo, 504202
1, 24096, Tempo, 500000
1, 25440, Tempo, 504202
1, 25488, Tempo, 500000
1, 25728, Tempo, 517241
1, 25776, Tempo, 487805
1, 25824, Tempo, 500000
1, 26928, Tempo, 504202
1, 26976, Tempo, 500000
1, 28128, Tempo, 504202
1, 28176, Tempo, 500000
1, 29280, Tempo, 504202
1, 29328, Tempo, 500000
1, 29472, Tempo, 508475
1, 29520, Tempo, 500000
1, 30816, Tempo, 504202
1, 30864, Tempo, 500000
1, 31440, Tempo, 491803
1, 31488, Tempo, 512821
1, 31536, Tempo, 500000
1, 32208, Tempo, 504202
1, 32256, Tempo, 500000
1, 33504, Tempo, 504202
1, 33552, Tempo, 500000
1, 33936, Tempo, 504202
1, 33984, Tempo, 500000
1, 34848, Tempo, 504202
1, 34896, Tempo, 500000
1, 36240, Tempo, 504202
1, 36288, Tempo, 500000
1, 37152, Tempo, 504202
1, 37200, Tempo, 500000
1, 37584, Tempo, 504202
1, 37632, Tempo, 500000
1, 37776, Tempo, 504202
1, 37824, Tempo, 500000
1, 38928, Tempo, 504202
1, 38976, Tempo, 500000
1, 40272, Tempo, 504202
1, 40320, Tempo, 500000
1, 41616, Tempo, 504202
1, 41664, Tempo, 500000
1, 42960, Tempo, 504202
1, 43008, Tempo, 500000
1, 43584, Tempo, 517241
1, 43632, Tempo, 487805
1, 43680, Tempo, 500000
1, 44304, Tempo, 504202
1, 44352, Tempo, 500000
1, 45648, Tempo, 504202
1, 45696, Tempo, 500000
1, 48384, Tempo, 504202
1, 48432, Tempo, 500000
1, 49728, Tempo, 504202
1, 49776, Tempo, 500000
1, 50544, Tempo, 495868
1, 50592, Tempo, 508475
1, 50640, Tempo, 500000
1, 51072, Tempo, 504202
1, 51120, Tempo, 500000
1, 51168, Tempo, 504202
1, 51216, Tempo, 495868
1, 51264, Tempo, 500000
1, 52416, Tempo, 504202
1, 52464, Tempo, 500000
1, 53760, Tempo, 504202
1, 53808, Tempo, 500000
1, 55104, Tempo, 504202
1, 55152, Tempo, 500000
1, 55728, Tempo, 508475
1, 55776, Tempo, 495868
1, 55824, Tempo, 500000
1, 56496, Tempo, 504202
1, 56544, Tempo, 500000
1, 57840, Tempo, 504202
1, 57888, Tempo, 500000
1, 59184, Tempo, 504202
1, 59232, Tempo, 500000
1, 60528, Tempo, 504202
1, 60576, Tempo, 500000
1, 61872, Tempo, 504202
1, 61920, Tempo, 500000
1, 62688, Tempo, 508475
1, 62736, Tempo, 495868
1, 62784, Tempo, 500000
1, 63216, Tempo, 504202
1, 63264, Tempo, 500000
1, 64560, Tempo, 504202
1, 64608, Tempo, 500000
1, 65904, Tempo, 504202
1, 65952, Tempo, 500000
1, 67296, Tempo, 504202
1, 67344, Tempo, 500000
1, 67344, End_track
2, 0, Start_track
2, 0, MIDI_port, 0
2, 0, Title_t, "REMIXED             "
2, 0, Program_c, 0, 37
2, 717, Note_on_c, 0, 31, 99
2, 717, Control_c, 0, 7, 90
2, 893, Note_on_c, 0, 31, 0
2, 895, Note_on_c, 0, 35, 88
2, 981, Note_on_c, 0, 36, 71
2, 1001, Note_on_c, 0, 35, 0
2, 1059, Note_on_c, 0, 36, 0
2, 1075, Note_on_c, 0, 38, 71
2, 1247, Note_on_c, 0, 38, 0
2, 1251, Note_on_c, 0, 42, 88
2, 1320, Note_on_c, 0, 42, 0
2, 1341, Note_on_c, 0, 43, 88
2, 1415, Note_on_c, 0, 43, 0
2, 1431, Note_on_c, 0, 29, 88
2, 1599, Note_on_c, 0, 29, 0
2, 1609, Note_on_c, 0, 31, 71
2, 1697, Note_on_c, 0, 33, 60
2, 1701, Note_on_c, 0, 31, 0
2, 1787, Note_on_c, 0, 34, 56
2, 1789, Note_on_c, 0, 33, 0
2, 1949, Note_on_c, 0, 34, 0
2, 1967, Note_on_c, 0, 38, 64
2, 2057, Note_on_c, 0, 41, 71
2, 2067, Note_on_c, 0, 38, 0
2, 2115, Note_on_c, 0, 41, 0
2, 2145, Note_on_c, 0, 27, 99
2, 2323, Note_on_c, 0, 31, 71
2, 2330, Note_on_c, 0, 27, 0
2, 2409, Note_on_c, 0, 34, 80
2, 2419, Note_on_c, 0, 31, 0
2, 2493, Note_on_c, 0, 34, 0
2, 2503, Note_on_c, 0, 32, 99
2, 2675, Note_on_c, 0, 32, 0
2, 2679, Note_on_c, 0, 36, 80
2, 2769, Note_on_c, 0, 39, 113
2, 2773, Note_on_c, 0, 36, 0
2, 2843, Note_on_c, 0, 39, 0
2, 2859, Note_on_c, 0, 33, 99
2, 3193, Note_on_c, 0, 33, 0
2, 3215, Note_on_c, 0, 33, 80
2, 3537, Note_on_c, 0, 33, 0
2, 3573, Note_on_c, 0, 33, 80
2, 3895, Note_on_c, 0, 33, 0
2, 3931, Note_on_c, 0, 33, 80
2, 4231, Note_on_c, 0, 33, 0
2, 4288, Note_on_c, 0, 33, 113
2, 4519, Note_on_c, 0, 33, 0
2, 4557, Note_on_c, 0, 36, 113
2, 4633, Note_on_c, 0, 36, 0
2, 4645, Note_on_c, 0, 40, 88
2, 4799, Note_on_c, 0, 40, 0
2, 4823, Note_on_c, 0, 36, 99
2, 4955, Note_on_c, 0, 36, 0
2, 5003, Note_on_c, 0, 30, 88
2, 5231, Note_on_c, 0, 30, 0
2, 5269, Note_on_c, 0, 33, 52
2, 5343, Note_on_c, 0, 33, 0
2, 5357, Note_on_c, 0, 37, 99
2, 5537, Note_on_c, 0, 37, 0
2, 5539, Note_on_c, 0, 33, 71
2, 5605, Note_on_c, 0, 33, 0
2, 5627, Note_on_c, 0, 37, 88
2, 5701, Note_on_c, 0, 37, 0
2, 5717, Note_on_c, 0, 33, 113
2, 5948, Note_on_c, 0, 33, 0
2, 5983, Note_on_c, 0, 36, 113
2, 6061, Note_on_c, 0, 36, 0
2, 6073, Note_on_c, 0, 40, 88
2, 6227, Note_on_c, 0, 40, 0
2, 6251, Note_on_c, 0, 36, 99
2, 6383, Note_on_c, 0, 36, 0
2, 6431, Note_on_c, 0, 30, 88
2, 6661, Note_on_c, 0, 30, 0
2, 6698, Note_on_c, 0, 33, 52
2, 6777, Note_on_c, 0, 33, 0
2, 6787, Note_on_c, 0, 37, 99
2, 6967, Note_on_c, 0, 37, 0
2, 6969, Note_on_c, 0, 33, 71
2, 7037, Note_on_c, 0, 33, 0
2, 7055, Note_on_c, 0, 37, 88
2, 7130, Note_on_c, 0, 37, 0
2, 7145, Note_on_c, 0, 33, 113
2, 7373, Note_on_c, 0, 33, 0
2, 7413, Note_on_c, 0, 36, 113
2, 7493, Note_on_c, 0, 36, 0
2, 7503, Note_on_c, 0, 40, 88
2, 7655, Note_on_c, 0, 40, 0
2, 7679, Note_on_c, 0, 36, 99
2, 7811, Note_on_c, 0, 36, 0
2, 7859, Note_on_c, 0, 30, 88
2, 8090, Note_on_c, 0, 30, 0
2, 8127, Note_on_c, 0, 33, 52
2, 8207, Note_on_c, 0, 33, 0
2, 8216, Note_on_c, 0, 37, 99
2, 8398, Note_on_c, 0, 37, 0
2, 8398, Note_on_c, 0, 33, 71
2, 8466, Note_on_c, 0, 33, 0
2, 8485, Note_on_c, 0, 37, 88
2, 8557, Note_on_c, 0, 37, 0
2, 8573, Note_on_c, 0, 33, 113
2, 8803, Note_on_c, 0, 33, 0
2, 8840, Note_on_c, 0, 36, 113
2, 8921, Note_on_c, 0, 36, 0
2, 8931, Note_on_c, 0, 40, 88
2, 9085, Note_on_c, 0, 40, 0
2, 9109, Note_on_c, 0, 36, 99
2, 9241, Note_on_c, 0, 36, 0
2, 9289, Note_on_c, 0, 30, 88
2, 9518, Note_on_c, 0, 30, 0
2, 9556, Note_on_c, 0, 33, 52
2, 9636, Note_on_c, 0, 33, 0
2, 9646, Note_on_c, 0, 37, 99
2, 9821, Note_on_c, 0, 37, 0
2, 9823, Note_on_c, 0, 33, 71
2, 9894, Note_on_c, 0, 33, 0
2, 9916, Note_on_c, 0, 37, 88
2, 9990, Note_on_c, 0, 37, 0
2, 10003, Note_on_c, 0, 31, 99
2, 10181, Note_on_c, 0, 35, 80
2, 10197, Note_on_c, 0, 31, 0
2, 10259, Note_on_c, 0, 35, 0
2, 10269, Note_on_c, 0, 38, 80
2, 10347, Note_on_c, 0, 38, 0
2, 10361, Note_on_c, 0, 33, 99
2, 10539, Note_on_c, 0, 37, 113
2, 10544, Note_on_c, 0, 33, 0
2, 10621, Note_on_c, 0, 37, 0
2, 10627, Note_on_c, 0, 40, 64
2, 10701, Note_on_c, 0, 40, 0
2, 10717, Note_on_c, 0, 26, 113
2, 10886, Note_on_c, 0, 26, 0
2, 10893, Note_on_c, 0, 30, 99
2, 10978, Note_on_c, 0, 30, 0
2, 10985, Note_on_c, 0, 33, 71
2, 11061, Note_on_c, 0, 33, 0
2, 11075, Note_on_c, 0, 26, 99
2, 11241, Note_on_c, 0, 26, 0
2, 11251, Note_on_c, 0, 30, 113
2, 11339, Note_on_c, 0, 30, 0
2, 11341, Note_on_c, 0, 33, 64
2, 11404, Note_on_c, 0, 33, 0
2, 11432, Note_on_c, 0, 31, 99
2, 11609, Note_on_c, 0, 35, 80
2, 11625, Note_on_c, 0, 31, 0
2, 11689, Note_on_c, 0, 35, 0
2, 11699, Note_on_c, 0, 38, 80
2, 11775, Note_on_c, 0, 38, 0
2, 11787, Note_on_c, 0, 33, 99
2, 11967, Note_on_c, 0, 37, 113
2, 11971, Note_on_c, 0, 33, 0
2, 12049, Note_on_c, 0, 37, 0
2, 12055, Note_on_c, 0, 40, 64
2, 12130, Note_on_c, 0, 40, 0
2, 12145, Note_on_c, 0, 30, 127
2, 12309, Note_on_c, 0, 30, 0
2, 12321, Note_on_c, 0, 33, 80
2, 12415, Note_on_c, 0, 37, 113
2, 12423, Note_on_c, 0, 33, 0
2, 12491, Note_on_c, 0, 37, 0
2, 12503, Note_on_c, 0, 35, 99
2, 12677, Note_on_c, 0, 35, 0
2, 12681, Note_on_c, 0, 33, 88
2, 12813, Note_on_c, 0, 33, 0
2, 12859, Note_on_c, 0, 31, 99
2, 13039, Note_on_c, 0, 35, 71
2, 13042, Note_on_c, 0, 31, 0
2, 13113, Note_on_c, 0, 35, 0
2, 13127, Note_on_c, 0, 38, 71
2, 13201, Note_on_c, 0, 38, 0
2, 13215, Note_on_c, 0, 38, 88
2, 13397, Note_on_c, 0, 42, 113
2, 13402, Note_on_c, 0, 38, 0
2, 13476, Note_on_c, 0, 42, 0
2, 13486, Note_on_c, 0, 45, 56
2, 13559, Note_on_c, 0, 45, 0
2, 13575, Note_on_c, 0, 28, 88
2, 13736, Note_on_c, 0, 28, 0
2, 13752, Note_on_c, 0, 32, 113
2, 13835, Note_on_c, 0, 32, 0
2, 13841, Note_on_c, 0, 35, 69
2, 13910, Note_on_c, 0, 35, 0
2, 13930, Note_on_c, 0, 28, 71
2, 14087, Note_on_c, 0, 28, 0
2, 14111, Note_on_c, 0, 32, 113
2, 14189, Note_on_c, 0, 32, 0
2, 14199, Note_on_c, 0, 35, 71
2, 14289, Note_on_c, 0, 28, 80
2, 14291, Note_on_c, 0, 35, 0
2, 14448, Note_on_c, 0, 28, 0
2, 14467, Note_on_c, 0, 32, 127
2, 14539, Note_on_c, 0, 32, 0
2, 14557, Note_on_c, 0, 35, 52
2, 14638, Note_on_c, 0, 35, 0
2, 14645, Note_on_c, 0, 28, 71
2, 14813, Note_on_c, 0, 28, 0
2, 14824, Note_on_c, 0, 32, 99
2, 14893, Note_on_c, 0, 32, 0
2, 14916, Note_on_c, 0, 35, 46
2, 14975, Note_on_c, 0, 35, 0
2, 15003, Note_on_c, 0, 33, 113
2, 15234, Note_on_c, 0, 33, 0
2, 15269, Note_on_c, 0, 36, 113
2, 15348, Note_on_c, 0, 36, 0
2, 15359, Note_on_c, 0, 40, 88
2, 15514, Note_on_c, 0, 40, 0
2, 15539, Note_on_c, 0, 36, 99
2, 15669, Note_on_c, 0, 36, 0
2, 15717, Note_on_c, 0, 30, 88
2, 15946, Note_on_c, 0, 30, 0
2, 15985, Note_on_c, 0, 33, 52
2, 16063, Note_on_c, 0, 33, 0
2, 16075, Note_on_c, 0, 37, 99
2, 16251, Note_on_c, 0, 37, 0
2, 16253, Note_on_c, 0, 33, 71
2, 16321, Note_on_c, 0, 33, 0
2, 16341, Note_on_c, 0, 37, 88
2, 16415, Note_on_c, 0, 37, 0
2, 16431, Note_on_c, 0, 33, 113
2, 16661, Note_on_c, 0, 33, 0
2, 16699, Note_on_c, 0, 36, 113
2, 16777, Note_on_c, 0, 36, 0
2, 16787, Note_on_c, 0, 40, 88
2, 16937, Note_on_c, 0, 40, 0
2, 16965, Note_on_c, 0, 36, 99
2, 17099, Note_on_c, 0, 36, 0
2, 17145, Note_on_c, 0, 30, 88
2, 17375, Note_on_c, 0, 30, 0
2, 17413, Note_on_c, 0, 33, 52
2, 17494, Note_on_c, 0, 33, 0
2, 17503, Note_on_c, 0, 37, 99
2, 17682, Note_on_c, 0, 37, 0
2, 17682, Note_on_c, 0, 33, 71
2, 17749, Note_on_c, 0, 33, 0
2, 17769, Note_on_c, 0, 37, 88
2, 17846, Note_on_c, 0, 37, 0
2, 17859, Note_on_c, 0, 33, 113
2, 18089, Note_on_c, 0, 33, 0
2, 18127, Note_on_c, 0, 36, 113
2, 18205, Note_on_c, 0, 36, 0
2, 18217, Note_on_c, 0, 40, 88
2, 18371, Note_on_c, 0, 40, 0
2, 18397, Note_on_c, 0, 36, 99
2, 18528, Note_on_c, 0, 36, 0
2, 18575, Note_on_c, 0, 30, 88
2, 18803, Note_on_c, 0, 30, 0
2, 18841, Note_on_c, 0, 33, 52
2, 18922, Note_on_c, 0, 33, 0
2, 18932, Note_on_c, 0, 37, 99
2, 19112, Note_on_c, 0, 37, 0
2, 19112, Note_on_c, 0, 33, 71
2, 19178, Note_on_c, 0, 33, 0
2, 19200, Note_on_c, 0, 37, 88
2, 19274, Note_on_c, 0, 37, 0
2, 19289, Note_on_c, 0, 33, 113
2, 19521, Note_on_c, 0, 33, 0
2, 19557, Note_on_c, 0, 36, 113
2, 19633, Note_on_c, 0, 36, 0
2, 19645, Note_on_c, 0, 40, 88
2, 19799, Note_on_c, 0, 40, 0
2, 19824, Note_on_c, 0, 36, 99
2, 19950, Note_on_c, 0, 36, 0
2, 20004, Note_on_c, 0, 30, 88
2, 20234, Note_on_c, 0, 30, 0
2, 20269, Note_on_c, 0, 33, 52
2, 20349, Note_on_c, 0, 33, 0
2, 20359, Note_on_c, 0, 37, 99
2, 20540, Note_on_c, 0, 37, 0
2, 20540, Note_on_c, 0, 33, 71
2, 20608, Note_on_c, 0, 33, 0
2, 20628, Note_on_c, 0, 37, 88
2, 20701, Note_on_c, 0, 37, 0
2, 20718, Note_on_c, 0, 31, 99
2, 20893, Note_on_c, 0, 35, 80
2, 20908, Note_on_c, 0, 31, 0
2, 20976, Note_on_c, 0, 35, 0
2, 20987, Note_on_c, 0, 38, 80
2, 21064, Note_on_c, 0, 38, 0
2, 21075, Note_on_c, 0, 33, 99
2, 21253, Note_on_c, 0, 37, 113
2, 21255, Note_on_c, 0, 33, 0
2, 21336, Note_on_c, 0, 37, 0
2, 21341, Note_on_c, 0, 40, 64
2, 21413, Note_on_c, 0, 40, 0
2, 21431, Note_on_c, 0, 26, 113
2, 21601, Note_on_c, 0, 26, 0
2, 21610, Note_on_c, 0, 30, 99
2, 21691, Note_on_c, 0, 30, 0
2, 21699, Note_on_c, 0, 33, 71
2, 21775, Note_on_c, 0, 33, 0
2, 21787, Note_on_c, 0, 26, 99
2, 21957, Note_on_c, 0, 26, 0
2, 21970, Note_on_c, 0, 30, 113
2, 22053, Note_on_c, 0, 30, 0
2, 22057, Note_on_c, 0, 33, 64
2, 22116, Note_on_c, 0, 33, 0
2, 22145, Note_on_c, 0, 31, 99
2, 22323, Note_on_c, 0, 35, 80
2, 22339, Note_on_c, 0, 31, 0
2, 22403, Note_on_c, 0, 35, 0
2, 22416, Note_on_c, 0, 38, 80
2, 22491, Note_on_c, 0, 38, 0
2, 22504, Note_on_c, 0, 33, 99
2, 22682, Note_on_c, 0, 37, 113
2, 22686, Note_on_c, 0, 33, 0
2, 22765, Note_on_c, 0, 37, 0
2, 22771, Note_on_c, 0, 40, 64
2, 22845, Note_on_c, 0, 40, 0
2, 22859, Note_on_c, 0, 30, 127
2, 23029, Note_on_c, 0, 30, 0
2, 23039, Note_on_c, 0, 33, 80
2, 23129, Note_on_c, 0, 37, 113
2, 23137, Note_on_c, 0, 33, 0
2, 23205, Note_on_c, 0, 37, 0
2, 23217, Note_on_c, 0, 35, 99
2, 23392, Note_on_c, 0, 35, 0
2, 23396, Note_on_c, 0, 33, 88
2, 23531, Note_on_c, 0, 33, 0
2, 23575, Note_on_c, 0, 31, 99
2, 23753, Note_on_c, 0, 35, 71
2, 23757, Note_on_c, 0, 31, 0
2, 23829, Note_on_c, 0, 35, 0
2, 23841, Note_on_c, 0, 38, 71
2, 23917, Note_on_c, 0, 38, 0
2, 23931, Note_on_c, 0, 38, 88
2, 24111, Note_on_c, 0, 42, 113
2, 24116, Note_on_c, 0, 38, 0
2, 24189, Note_on_c, 0, 42, 0
2, 24201, Note_on_c, 0, 45, 56
2, 24274, Note_on_c, 0, 45, 0
2, 24290, Note_on_c, 0, 28, 88
2, 24449, Note_on_c, 0, 28, 0
2, 24467, Note_on_c, 0, 32, 113
2, 24553, Note_on_c, 0, 32, 0
2, 24557, Note_on_c, 0, 35, 69
2, 24627, Note_on_c, 0, 35, 0
2, 24647, Note_on_c, 0, 28, 71
2, 24801, Note_on_c, 0, 28, 0
2, 24824, Note_on_c, 0, 32, 113
2, 24904, Note_on_c, 0, 32, 0
2, 24915, Note_on_c, 0, 35, 71
2, 25003, Note_on_c, 0, 35, 0
2, 25003, Note_on_c, 0, 28, 80
2, 25164, Note_on_c, 0, 28, 0
2, 25183, Note_on_c, 0, 32, 127
2, 25251, Note_on_c, 0, 32, 0
2, 25269, Note_on_c, 0, 35, 52
2, 25353, Note_on_c, 0, 35, 0
2, 25359, Note_on_c, 0, 28, 71
2, 25529, Note_on_c, 0, 28, 0
2, 25539, Note_on_c, 0, 32, 99
2, 25610, Note_on_c, 0, 32, 0
2, 25630, Note_on_c, 0, 35, 46
2, 25689, Note_on_c, 0, 35, 0
2, 25717, Note_on_c, 0, 33, 113
2, 25869, Note_on_c, 0, 33, 0
2, 25895, Note_on_c, 0, 36, 88
2, 25967, Note_on_c, 0, 36, 0
2, 25987, Note_on_c, 0, 40, 80
2, 26061, Note_on_c, 0, 40, 0
2, 26075, Note_on_c, 0, 35, 99
2, 26255, Note_on_c, 0, 38, 88
2, 26263, Note_on_c, 0, 35, 0
2, 26341, Note_on_c, 0, 42, 99
2, 26361, Note_on_c, 0, 38, 0
2, 26413, Note_on_c, 0, 42, 0
2, 26431, Note_on_c, 0, 33, 99
2, 26607, Note_on_c, 0, 33, 0
2, 26611, Note_on_c, 0, 36, 80
2, 26701, Note_on_c, 0, 40, 80
2, 26720, Note_on_c, 0, 36, 0
2, 26776, Note_on_c, 0, 40, 0
2, 26790, Note_on_c, 0, 35, 113
2, 26967, Note_on_c, 0, 38, 88
2, 26969, Note_on_c, 0, 35, 0
2, 27042, Note_on_c, 0, 38, 0
2, 27054, Note_on_c, 0, 42, 113
2, 27121, Note_on_c, 0, 42, 0
2, 27147, Note_on_c, 0, 33, 113
2, 27323, Note_on_c, 0, 36, 88
2, 27329, Note_on_c, 0, 33, 0
2, 27411, Note_on_c, 0, 36, 0
2, 27413, Note_on_c, 0, 40, 99
2, 27481, Note_on_c, 0, 40, 0
2, 27503, Note_on_c, 0, 35, 99
2, 27683, Note_on_c, 0, 38, 80
2, 27699, Note_on_c, 0, 35, 0
2, 27765, Note_on_c, 0, 38, 0
2, 27771, Note_on_c, 0, 42, 113
2, 27827, Note_on_c, 0, 42, 0
2, 27861, Note_on_c, 0, 33, 113
2, 28039, Note_on_c, 0, 36, 80
2, 28056, Note_on_c, 0, 33, 0
2, 28130, Note_on_c, 0, 40, 80
2, 28147, Note_on_c, 0, 36, 0
2, 28197, Note_on_c, 0, 40, 0
2, 28220, Note_on_c, 0, 35, 99
2, 28395, Note_on_c, 0, 38, 80
2, 28400, Note_on_c, 0, 35, 0
2, 28477, Note_on_c, 0, 38, 0
2, 28485, Note_on_c, 0, 42, 88
2, 28533, Note_on_c, 0, 42, 0
2, 28575, Note_on_c, 0, 33, 113
2, 28729, Note_on_c, 0, 33, 0
2, 28755, Note_on_c, 0, 36, 88
2, 28823, Note_on_c, 0, 36, 0
2, 28841, Note_on_c, 0, 40, 80
2, 28917, Note_on_c, 0, 40, 0
2, 28931, Note_on_c, 0, 35, 99
2, 29109, Note_on_c, 0, 38, 88
2, 29121, Note_on_c, 0, 35, 0
2, 29201, Note_on_c, 0, 42, 99
2, 29219, Note_on_c, 0, 38, 0
2, 29269, Note_on_c, 0, 42, 0
2, 29289, Note_on_c, 0, 33, 99
2, 29464, Note_on_c, 0, 33, 0
2, 29467, Note_on_c, 0, 36, 80
2, 29557, Note_on_c, 0, 40, 80
2, 29577, Note_on_c, 0, 36, 0
2, 29632, Note_on_c, 0, 40, 0
2, 29644, Note_on_c, 0, 35, 113
2, 29825, Note_on_c, 0, 38, 88
2, 29827, Note_on_c, 0, 35, 0
2, 29903, Note_on_c, 0, 38, 0
2, 29913, Note_on_c, 0, 42, 113
2, 29977, Note_on_c, 0, 42, 0
2, 30004, Note_on_c, 0, 33, 113
2, 30183, Note_on_c, 0, 36, 88
2, 30191, Note_on_c, 0, 33, 0
2, 30269, Note_on_c, 0, 36, 0
2, 30271, Note_on_c, 0, 40, 99
2, 30339, Note_on_c, 0, 40, 0
2, 30359, Note_on_c, 0, 35, 99
2, 30539, Note_on_c, 0, 38, 80
2, 30555, Note_on_c, 0, 35, 0
2, 30621, Note_on_c, 0, 38, 0
2, 30625, Note_on_c, 0, 42, 113
2, 30685, Note_on_c, 0, 42, 0
2, 30717, Note_on_c, 0, 33, 113
2, 30895, Note_on_c, 0, 36, 80
2, 30911, Note_on_c, 0, 33, 0
2, 30986, Note_on_c, 0, 40, 80
2, 31004, Note_on_c, 0, 36, 0
2, 31053, Note_on_c, 0, 40, 0
2, 31073, Note_on_c, 0, 35, 99
2, 31255, Note_on_c, 0, 38, 80
2, 31259, Note_on_c, 0, 35, 0
2, 31339, Note_on_c, 0, 38, 0
2, 31343, Note_on_c, 0, 42, 88
2, 31391, Note_on_c, 0, 42, 0
2, 31431, Note_on_c, 0, 33, 113
2, 31585, Note_on_c, 0, 33, 0
2, 31609, Note_on_c, 0, 36, 88
2, 31683, Note_on_c, 0, 36, 0
2, 31701, Note_on_c, 0, 40, 80
2, 31775, Note_on_c, 0, 40, 0
2, 31789, Note_on_c, 0, 35, 99
2, 31967, Note_on_c, 0, 38, 88
2, 31975, Note_on_c, 0, 35, 0
2, 32057, Note_on_c, 0, 42, 99
2, 32077, Note_on_c, 0, 38, 0
2, 32129, Note_on_c, 0, 42, 0
2, 32147, Note_on_c, 0, 33, 99
2, 32321, Note_on_c, 0, 33, 0
2, 32325, Note_on_c, 0, 36, 80
2, 32415, Note_on_c, 0, 40, 80
2, 32433, Note_on_c, 0, 36, 0
2, 32487, Note_on_c, 0, 40, 0
2, 32503, Note_on_c, 0, 35, 113
2, 32681, Note_on_c, 0, 38, 88
2, 32684, Note_on_c, 0, 35, 0
2, 32761, Note_on_c, 0, 38, 0
2, 32773, Note_on_c, 0, 42, 113
2, 32835, Note_on_c, 0, 42, 0
2, 32861, Note_on_c, 0, 31, 99
2, 33039, Note_on_c, 0, 31, 0
2, 33039, Note_on_c, 0, 35, 88
2, 33127, Note_on_c, 0, 36, 71
2, 33145, Note_on_c, 0, 35, 0
2, 33199, Note_on_c, 0, 36, 0
2, 33215, Note_on_c, 0, 38, 71
2, 33393, Note_on_c, 0, 38, 0
2, 33397, Note_on_c, 0, 42, 88
2, 33465, Note_on_c, 0, 42, 0
2, 33485, Note_on_c, 0, 43, 88
2, 33563, Note_on_c, 0, 43, 0
2, 33575, Note_on_c, 0, 29, 88
2, 33738, Note_on_c, 0, 29, 0
2, 33751, Note_on_c, 0, 31, 71
2, 33844, Note_on_c, 0, 33, 60
2, 33845, Note_on_c, 0, 31, 0
2, 33934, Note_on_c, 0, 33, 0
2, 33934, Note_on_c, 0, 34, 56
2, 34096, Note_on_c, 0, 34, 0
2, 34109, Note_on_c, 0, 38, 64
2, 34199, Note_on_c, 0, 41, 71
2, 34212, Note_on_c, 0, 38, 0
2, 34263, Note_on_c, 0, 41, 0
2, 34289, Note_on_c, 0, 27, 99
2, 34469, Note_on_c, 0, 31, 71
2, 34476, Note_on_c, 0, 27, 0
2, 34557, Note_on_c, 0, 34, 80
2, 34569, Note_on_c, 0, 31, 0
2, 34635, Note_on_c, 0, 34, 0
2, 34645, Note_on_c, 0, 32, 99
2, 34817, Note_on_c, 0, 32, 0
2, 34822, Note_on_c, 0, 36, 80
2, 34915, Note_on_c, 0, 39, 113
2, 34919, Note_on_c, 0, 36, 0
2, 34989, Note_on_c, 0, 39, 0
2, 35003, Note_on_c, 0, 33, 99
2, 35339, Note_on_c, 0, 33, 0
2, 35361, Note_on_c, 0, 33, 80
2, 35681, Note_on_c, 0, 33, 0
2, 35717, Note_on_c, 0, 33, 80
2, 36037, Note_on_c, 0, 33, 0
2, 36075, Note_on_c, 0, 33, 80
2, 36377, Note_on_c, 0, 33, 0
2, 36433, Note_on_c, 0, 33, 113
2, 36661, Note_on_c, 0, 33, 0
2, 36699, Note_on_c, 0, 36, 113
2, 36773, Note_on_c, 0, 36, 0
2, 36787, Note_on_c, 0, 40, 88
2, 36943, Note_on_c, 0, 40, 0
2, 36969, Note_on_c, 0, 36, 99
2, 37099, Note_on_c, 0, 36, 0
2, 37147, Note_on_c, 0, 30, 88
2, 37377, Note_on_c, 0, 30, 0
2, 37415, Note_on_c, 0, 33, 52
2, 37493, Note_on_c, 0, 33, 0
2, 37505, Note_on_c, 0, 37, 99
2, 37681, Note_on_c, 0, 37, 0
2, 37683, Note_on_c, 0, 33, 71
2, 37751, Note_on_c, 0, 33, 0
2, 37771, Note_on_c, 0, 37, 88
2, 37845, Note_on_c, 0, 37, 0
2, 37861, Note_on_c, 0, 33, 113
2, 38093, Note_on_c, 0, 33, 0
2, 38128, Note_on_c, 0, 36, 113
2, 38206, Note_on_c, 0, 36, 0
2, 38217, Note_on_c, 0, 40, 88
2, 38371, Note_on_c, 0, 40, 0
2, 38395, Note_on_c, 0, 36, 99
2, 38527, Note_on_c, 0, 36, 0
2, 38575, Note_on_c, 0, 30, 88
2, 38805, Note_on_c, 0, 30, 0
2, 38843, Note_on_c, 0, 33, 52
2, 38917, Note_on_c, 0, 33, 0
2, 38931, Note_on_c, 0, 37, 99
2, 39112, Note_on_c, 0, 37, 0
2, 39112, Note_on_c, 0, 33, 71
2, 39179, Note_on_c, 0, 33, 0
2, 39199, Note_on_c, 0, 37, 88
2, 39273, Note_on_c, 0, 37, 0
2, 39289, Note_on_c, 0, 33, 113
2, 39522, Note_on_c, 0, 33, 0
2, 39560, Note_on_c, 0, 36, 113
2, 39636, Note_on_c, 0, 36, 0
2, 39645, Note_on_c, 0, 40, 88
2, 39800, Note_on_c, 0, 40, 0
2, 39825, Note_on_c, 0, 36, 99
2, 39957, Note_on_c, 0, 36, 0
2, 40003, Note_on_c, 0, 30, 88
2, 40233, Note_on_c, 0, 30, 0
2, 40271, Note_on_c, 0, 33, 52
2, 40345, Note_on_c, 0, 33, 0
2, 40359, Note_on_c, 0, 37, 99
2, 40541, Note_on_c, 0, 37, 0
2, 40541, Note_on_c, 0, 33, 71
2, 40607, Note_on_c, 0, 33, 0
2, 40627, Note_on_c, 0, 37, 88
2, 40703, Note_on_c, 0, 37, 0
2, 40718, Note_on_c, 0, 33, 113
2, 40949, Note_on_c, 0, 33, 0
2, 40987, Note_on_c, 0, 36, 113
2, 41065, Note_on_c, 0, 36, 0
2, 41075, Note_on_c, 0, 40, 88
2, 41229, Note_on_c, 0, 40, 0
2, 41253, Note_on_c, 0, 36, 99
2, 41385, Note_on_c, 0, 36, 0
2, 41433, Note_on_c, 0, 30, 88
2, 41663, Note_on_c, 0, 30, 0
2, 41699, Note_on_c, 0, 33, 52
2, 41779, Note_on_c, 0, 33, 0
2, 41789, Note_on_c, 0, 37, 99
2, 41970, Note_on_c, 0, 37, 0
2, 41970, Note_on_c, 0, 33, 71
2, 42038, Note_on_c, 0, 33, 0
2, 42059, Note_on_c, 0, 37, 88
2, 42132, Note_on_c, 0, 37, 0
2, 42147, Note_on_c, 0, 31, 99
2, 42326, Note_on_c, 0, 35, 80
2, 42339, Note_on_c, 0, 31, 0
2, 42399, Note_on_c, 0, 35, 0
2, 42411, Note_on_c, 0, 38, 80
2, 42491, Note_on_c, 0, 38, 0
2, 42505, Note_on_c, 0, 33, 99
2, 42681, Note_on_c, 0, 37, 113
2, 42688, Note_on_c, 0, 33, 0
2, 42765, Note_on_c, 0, 37, 0
2, 42771, Note_on_c, 0, 40, 64
2, 42845, Note_on_c, 0, 40, 0
2, 42861, Note_on_c, 0, 26, 113
2, 43033, Note_on_c, 0, 26, 0
2, 43041, Note_on_c, 0, 30, 99
2, 43121, Note_on_c, 0, 30, 0
2, 43129, Note_on_c, 0, 33, 71
2, 43206, Note_on_c, 0, 33, 0
2, 43218, Note_on_c, 0, 26, 99
2, 43387, Note_on_c, 0, 26, 0
2, 43398, Note_on_c, 0, 30, 113
2, 43484, Note_on_c, 0, 30, 0
2, 43487, Note_on_c, 0, 33, 64
2, 43547, Note_on_c, 0, 33, 0
2, 43575, Note_on_c, 0, 31, 99
2, 43753, Note_on_c, 0, 35, 80
2, 43770, Note_on_c, 0, 31, 0
2, 43828, Note_on_c, 0, 35, 0
2, 43842, Note_on_c, 0, 38, 80
2, 43922, Note_on_c, 0, 38, 0
2, 43933, Note_on_c, 0, 33, 99
2, 44112, Note_on_c, 0, 37, 113
2, 44114, Note_on_c, 0, 33, 0
2, 44195, Note_on_c, 0, 37, 0
2, 44200, Note_on_c, 0, 40, 64
2, 44273, Note_on_c, 0, 40, 0
2, 44289, Note_on_c, 0, 30, 127
2, 44457, Note_on_c, 0, 30, 0
2, 44469, Note_on_c, 0, 33, 80
2, 44559, Note_on_c, 0, 37, 113
2, 44567, Note_on_c, 0, 33, 0
2, 44635, Note_on_c, 0, 37, 0
2, 44645, Note_on_c, 0, 35, 99
2, 44821, Note_on_c, 0, 35, 0
2, 44825, Note_on_c, 0, 33, 88
2, 44957, Note_on_c, 0, 33, 0
2, 45005, Note_on_c, 0, 31, 99
2, 45181, Note_on_c, 0, 35, 71
2, 45183, Note_on_c, 0, 31, 0
2, 45258, Note_on_c, 0, 35, 0
2, 45271, Note_on_c, 0, 38, 71
2, 45345, Note_on_c, 0, 38, 0
2, 45361, Note_on_c, 0, 38, 88
2, 45541, Note_on_c, 0, 42, 113
2, 45546, Note_on_c, 0, 38, 0
2, 45617, Note_on_c, 0, 42, 0
2, 45630, Note_on_c, 0, 45, 56
2, 45703, Note_on_c, 0, 45, 0
2, 45719, Note_on_c, 0, 28, 88
2, 45879, Note_on_c, 0, 28, 0
2, 45895, Note_on_c, 0, 32, 113
2, 45981, Note_on_c, 0, 32, 0
2, 45987, Note_on_c, 0, 35, 69
2, 46055, Note_on_c, 0, 35, 0
2, 46075, Note_on_c, 0, 28, 71
2, 46231, Note_on_c, 0, 28, 0
2, 46253, Note_on_c, 0, 32, 113
2, 46333, Note_on_c, 0, 32, 0
2, 46343, Note_on_c, 0, 35, 71
2, 46433, Note_on_c, 0, 28, 80
2, 46437, Note_on_c, 0, 35, 0
2, 46590, Note_on_c, 0, 28, 0
2, 46611, Note_on_c, 0, 32, 127
2, 46681, Note_on_c, 0, 32, 0
2, 46699, Note_on_c, 0, 35, 52
2, 46782, Note_on_c, 0, 35, 0
2, 46789, Note_on_c, 0, 28, 71
2, 46959, Note_on_c, 0, 28, 0
2, 46969, Note_on_c, 0, 32, 99
2, 47037, Note_on_c, 0, 32, 0
2, 47059, Note_on_c, 0, 35, 46
2, 47120, Note_on_c, 0, 35, 0
2, 47147, Note_on_c, 0, 33, 113
2, 47375, Note_on_c, 0, 33, 0
2, 47415, Note_on_c, 0, 36, 113
2, 47493, Note_on_c, 0, 36, 0
2, 47505, Note_on_c, 0, 40, 88
2, 47657, Note_on_c, 0, 40, 0
2, 47681, Note_on_c, 0, 36, 99
2, 47813, Note_on_c, 0, 36, 0
2, 47861, Note_on_c, 0, 30, 88
2, 48093, Note_on_c, 0, 30, 0
2, 48131, Note_on_c, 0, 33, 52
2, 48209, Note_on_c, 0, 33, 0
2, 48217, Note_on_c, 0, 37, 99
2, 48395, Note_on_c, 0, 37, 0
2, 48397, Note_on_c, 0, 33, 71
2, 48463, Note_on_c, 0, 33, 0
2, 48487, Note_on_c, 0, 37, 88
2, 48561, Note_on_c, 0, 37, 0
2, 48575, Note_on_c, 0, 33, 113
2, 48805, Note_on_c, 0, 33, 0
2, 48843, Note_on_c, 0, 36, 113
2, 48917, Note_on_c, 0, 36, 0
2, 48929, Note_on_c, 0, 40, 88
2, 49087, Note_on_c, 0, 40, 0
2, 49111, Note_on_c, 0, 36, 99
2, 49243, Note_on_c, 0, 36, 0
2, 49289, Note_on_c, 0, 30, 88
2, 49521, Note_on_c, 0, 30, 0
2, 49559, Note_on_c, 0, 33, 52
2, 49637, Note_on_c, 0, 33, 0
2, 49647, Note_on_c, 0, 37, 99
2, 49826, Note_on_c, 0, 37, 0
2, 49826, Note_on_c, 0, 33, 71
2, 49896, Note_on_c, 0, 33, 0
2, 49915, Note_on_c, 0, 37, 88
2, 49991, Note_on_c, 0, 37, 0
2, 50005, Note_on_c, 0, 33, 113
2, 50233, Note_on_c, 0, 33, 0
2, 50271, Note_on_c, 0, 36, 113
2, 50349, Note_on_c, 0, 36, 0
2, 50361, Note_on_c, 0, 40, 88
2, 50515, Note_on_c, 0, 40, 0
2, 50541, Note_on_c, 0, 36, 99
2, 50671, Note_on_c, 0, 36, 0
2, 50719, Note_on_c, 0, 30, 88
2, 50947, Note_on_c, 0, 30, 0
2, 50987, Note_on_c, 0, 33, 52
2, 51065, Note_on_c, 0, 33, 0
2, 51077, Note_on_c, 0, 37, 99
2, 51254, Note_on_c, 0, 37, 0
2, 51256, Note_on_c, 0, 33, 71
2, 51323, Note_on_c, 0, 33, 0
2, 51343, Note_on_c, 0, 37, 88
2, 51415, Note_on_c, 0, 37, 0
2, 51433, Note_on_c, 0, 33, 113
2, 51665, Note_on_c, 0, 33, 0
2, 51699, Note_on_c, 0, 36, 113
2, 51779, Note_on_c, 0, 36, 0
2, 51789, Note_on_c, 0, 40, 88
2, 51943, Note_on_c, 0, 40, 0
2, 51965, Note_on_c, 0, 36, 99
2, 52099, Note_on_c, 0, 36, 0
2, 52147, Note_on_c, 0, 30, 88
2, 52377, Note_on_c, 0, 30, 0
2, 52415, Note_on_c, 0, 33, 52
2, 52493, Note_on_c, 0, 33, 0
2, 52505, Note_on_c, 0, 37, 99
2, 52681, Note_on_c, 0, 37, 0
2, 52683, Note_on_c, 0, 33, 71
2, 52751, Note_on_c, 0, 33, 0
2, 52771, Note_on_c, 0, 37, 88
2, 52845, Note_on_c, 0, 37, 0
2, 52861, Note_on_c, 0, 31, 99
2, 53041, Note_on_c, 0, 35, 80
2, 53057, Note_on_c, 0, 31, 0
2, 53119, Note_on_c, 0, 35, 0
2, 53131, Note_on_c, 0, 38, 80
2, 53207, Note_on_c, 0, 38, 0
2, 53219, Note_on_c, 0, 33, 99
2, 53397, Note_on_c, 0, 37, 113
2, 53401, Note_on_c, 0, 33, 0
2, 53479, Note_on_c, 0, 37, 0
2, 53485, Note_on_c, 0, 40, 64
2, 53560, Note_on_c, 0, 40, 0
2, 53575, Note_on_c, 0, 26, 113
2, 53747, Note_on_c, 0, 26, 0
2, 53753, Note_on_c, 0, 30, 99
2, 53835, Note_on_c, 0, 30, 0
2, 53843, Note_on_c, 0, 33, 71
2, 53920, Note_on_c, 0, 33, 0
2, 53933, Note_on_c, 0, 26, 99
2, 54101, Note_on_c, 0, 26, 0
2, 54113, Note_on_c, 0, 30, 113
2, 54197, Note_on_c, 0, 30, 0
2, 54201, Note_on_c, 0, 33, 64
2, 54259, Note_on_c, 0, 33, 0
2, 54291, Note_on_c, 0, 31, 99
2, 54467, Note_on_c, 0, 35, 80
2, 54485, Note_on_c, 0, 31, 0
2, 54549, Note_on_c, 0, 35, 0
2, 54559, Note_on_c, 0, 38, 80
2, 54635, Note_on_c, 0, 38, 0
2, 54649, Note_on_c, 0, 33, 99
2, 54825, Note_on_c, 0, 37, 113
2, 54829, Note_on_c, 0, 33, 0
2, 54909, Note_on_c, 0, 37, 0
2, 54915, Note_on_c, 0, 40, 64
2, 54991, Note_on_c, 0, 40, 0
2, 55005, Note_on_c, 0, 26, 113
2, 55175, Note_on_c, 0, 26, 0
2, 55183, Note_on_c, 0, 30, 99
2, 55264, Note_on_c, 0, 30, 0
2, 55272, Note_on_c, 0, 33, 71
2, 55348, Note_on_c, 0, 33, 0
2, 55361, Note_on_c, 0, 26, 99
2, 55529, Note_on_c, 0, 26, 0
2, 55541, Note_on_c, 0, 30, 113
2, 55625, Note_on_c, 0, 30, 0
2, 55629, Note_on_c, 0, 33, 64
2, 55687, Note_on_c, 0, 33, 0
2, 55719, Note_on_c, 0, 29, 99
2, 55881, Note_on_c, 0, 29, 0
2, 55895, Note_on_c, 0, 33, 88
2, 55987, Note_on_c, 0, 36, 80
2, 55995, Note_on_c, 0, 33, 0
2, 56043, Note_on_c, 0, 36, 0
2, 56077, Note_on_c, 0, 36, 88
2, 56253, Note_on_c, 0, 40, 99
2, 56267, Note_on_c, 0, 36, 0
2, 56327, Note_on_c, 0, 40, 0
2, 56343, Note_on_c, 0, 43, 71
2, 56423, Note_on_c, 0, 43, 0
2, 56433, Note_on_c, 0, 38, 88
2, 56591, Note_on_c, 0, 38, 0
2, 56612, Note_on_c, 0, 42, 88
2, 56699, Note_on_c, 0, 42, 0
2, 56699, Note_on_c, 0, 45, 69
2, 56789, Note_on_c, 0, 38, 88
2, 56793, Note_on_c, 0, 45, 0
2, 56943, Note_on_c, 0, 38, 0
2, 56969, Note_on_c, 0, 42, 113
2, 57041, Note_on_c, 0, 42, 0
2, 57057, Note_on_c, 0, 45, 80
2, 57125, Note_on_c, 0, 45, 0
2, 57147, Note_on_c, 0, 29, 99
2, 57311, Note_on_c, 0, 29, 0
2, 57323, Note_on_c, 0, 33, 88
2, 57417, Note_on_c, 0, 36, 80
2, 57423, Note_on_c, 0, 33, 0
2, 57471, Note_on_c, 0, 36, 0
2, 57505, Note_on_c, 0, 36, 88
2, 57683, Note_on_c, 0, 40, 99
2, 57695, Note_on_c, 0, 36, 0
2, 57757, Note_on_c, 0, 40, 0
2, 57771, Note_on_c, 0, 43, 71
2, 57845, Note_on_c, 0, 43, 0
2, 57861, Note_on_c, 0, 38, 88
2, 58021, Note_on_c, 0, 38, 0
2, 58039, Note_on_c, 0, 42, 88
2, 58127, Note_on_c, 0, 42, 0
2, 58129, Note_on_c, 0, 45, 69
2, 58219, Note_on_c, 0, 38, 88
2, 58221, Note_on_c, 0, 45, 0
2, 58373, Note_on_c, 0, 38, 0
2, 58399, Note_on_c, 0, 42, 113
2, 58469, Note_on_c, 0, 42, 0
2, 58487, Note_on_c, 0, 45, 80
2, 58557, Note_on_c, 0, 45, 0
2, 58577, Note_on_c, 0, 29, 99
2, 58745, Note_on_c, 0, 29, 0
2, 58753, Note_on_c, 0, 33, 88
2, 58843, Note_on_c, 0, 36, 80
2, 58851, Note_on_c, 0, 33, 0
2, 58895, Note_on_c, 0, 36, 0
2, 58931, Note_on_c, 0, 36, 88
2, 59111, Note_on_c, 0, 40, 99
2, 59123, Note_on_c, 0, 36, 0
2, 59186, Note_on_c, 0, 40, 0
2, 59201, Note_on_c, 0, 43, 71
2, 59281, Note_on_c, 0, 43, 0
2, 59291, Note_on_c, 0, 38, 88
2, 59451, Note_on_c, 0, 38, 0
2, 59469, Note_on_c, 0, 42, 88
2, 59555, Note_on_c, 0, 42, 0
2, 59559, Note_on_c, 0, 45, 69
2, 59648, Note_on_c, 0, 38, 88
2, 59652, Note_on_c, 0, 45, 0
2, 59799, Note_on_c, 0, 38, 0
2, 59825, Note_on_c, 0, 42, 113
2, 59891, Note_on_c, 0, 42, 0
2, 59917, Note_on_c, 0, 45, 80
2, 59985, Note_on_c, 0, 45, 0
2, 60005, Note_on_c, 0, 29, 99
2, 60173, Note_on_c, 0, 29, 0
2, 60183, Note_on_c, 0, 33, 88
2, 60271, Note_on_c, 0, 36, 80
2, 60279, Note_on_c, 0, 33, 0
2, 60329, Note_on_c, 0, 36, 0
2, 60359, Note_on_c, 0, 36, 88
2, 60541, Note_on_c, 0, 40, 99
2, 60553, Note_on_c, 0, 36, 0
2, 60613, Note_on_c, 0, 40, 0
2, 60629, Note_on_c, 0, 43, 71
2, 60709, Note_on_c, 0, 43, 0
2, 60719, Note_on_c, 0, 26, 113
2, 61967, Note_on_c, 0, 26, 0
2, 62147, Note_on_c, 0, 31, 99
2, 62323, Note_on_c, 0, 31, 0
2, 62327, Note_on_c, 0, 35, 88
2, 62417, Note_on_c, 0, 36, 71
2, 62434, Note_on_c, 0, 35, 0
2, 62489, Note_on_c, 0, 36, 0
2, 62505, Note_on_c, 0, 38, 71
2, 62679, Note_on_c, 0, 38, 0
2, 62683, Note_on_c, 0, 42, 88
2, 62752, Note_on_c, 0, 42, 0
2, 62771, Note_on_c, 0, 43, 88
2, 62851, Note_on_c, 0, 43, 0
2, 62861, Note_on_c, 0, 29, 88
2, 63031, Note_on_c, 0, 29, 0
2, 63041, Note_on_c, 0, 31, 71
2, 63129, Note_on_c, 0, 33, 60
2, 63134, Note_on_c, 0, 31, 0
2, 63220, Note_on_c, 0, 34, 56
2, 63222, Note_on_c, 0, 33, 0
2, 63381, Note_on_c, 0, 34, 0
2, 63395, Note_on_c, 0, 38, 64
2, 63487, Note_on_c, 0, 41, 71
2, 63500, Note_on_c, 0, 38, 0
2, 63549, Note_on_c, 0, 41, 0
2, 63578, Note_on_c, 0, 27, 99
2, 63755, Note_on_c, 0, 31, 71
2, 63760, Note_on_c, 0, 27, 0
2, 63843, Note_on_c, 0, 34, 80
2, 63851, Note_on_c, 0, 31, 0
2, 63923, Note_on_c, 0, 34, 0
2, 63935, Note_on_c, 0, 32, 99
2, 64107, Note_on_c, 0, 32, 0
2, 64111, Note_on_c, 0, 36, 80
2, 64201, Note_on_c, 0, 39, 113
2, 64203, Note_on_c, 0, 36, 0
2, 64275, Note_on_c, 0, 39, 0
2, 64291, Note_on_c, 0, 33, 113
2, 65003, Note_on_c, 0, 33, 0
2, 65005, Note_on_c, 0, 33, 69
2, 65008, Note_on_c, 0, 33, 0
2, 65719, Note_on_c, 0, 33, 113
2, 67264, Note_on_c, 0, 33, 0
2, 67264, End_track
3, 0, Start_track
3, 0, MIDI_port, 0
3, 0, Title_t, "REMIXED             "
3, 0, Program_c, 1, 24
3, 717, Note_on_c, 1, 55, 80
3, 717, Note_on_c, 1, 59, 88
3, 717, Control_c, 1, 7, 80
3, 717, Control_c, 1, 93, 80
3, 719, Note_on_c, 1, 43, 88
3, 719, Note_on_c, 1, 62, 99
3, 959, Note_on_c, 1, 43, 0
3, 975, Note_on_c, 1, 55, 0
3, 993, Note_on_c, 1, 59, 0
3, 1003, Note_on_c, 1, 62, 0
3, 1075, Note_on_c, 1, 69, 69
3, 1075, Note_on_c, 1, 57, 60
3, 1077, Note_on_c, 1, 50, 80
3, 1077, Note_on_c, 1, 62, 69
3, 1077, Note_on_c, 1, 66, 71
3, 1343, Note_on_c, 1, 57, 0
3, 1343, Note_on_c, 1, 69, 0
3, 1351, Note_on_c, 1, 66, 0
3, 1361, Note_on_c, 1, 62, 0
3, 1379, Note_on_c, 1, 50, 0
3, 1431, Note_on_c, 1, 53, 80
3, 1431, Note_on_c, 1, 57, 88
3, 1431, Note_on_c, 1, 60, 88
3, 1713, Note_on_c, 1, 60, 0
3, 1715, Note_on_c, 1, 53, 0
3, 1717, Note_on_c, 1, 57, 0
3, 1789, Note_on_c, 1, 46, 127
3, 1789, Note_on_c, 1, 62, 113
3, 1789, Note_on_c, 1, 53, 80
3, 1789, Note_on_c, 1, 58, 80
3, 2045, Note_on_c, 1, 46, 0
3, 2061, Note_on_c, 1, 53, 0
3, 2071, Note_on_c, 1, 58, 0
3, 2087, Note_on_c, 1, 62, 0
3, 2145, Note_on_c, 1, 65, 80
3, 2147, Note_on_c, 1, 58, 80
3, 2147, Note_on_c, 1, 67, 71
3, 2147, Note_on_c, 1, 55, 71
3, 2149, Note_on_c, 1, 63, 113
3, 2149, Note_on_c, 1, 51, 80
3, 2179, Note_on_c, 1, 65, 0
3, 2375, Note_on_c, 1, 67, 0
3, 2405, Note_on_c, 1, 63, 0
3, 2411, Note_on_c, 1, 58, 0
3, 2431, Note_on_c, 1, 55, 0
3, 2451, Note_on_c, 1, 51, 0
3, 2503, Note_on_c, 1, 51, 80
3, 2503, Note_on_c, 1, 44, 99
3, 2505, Note_on_c, 1, 60, 80
3, 2505, Note_on_c, 1, 56, 80
3, 2723, Note_on_c, 1, 44, 0
3, 2745, Note_on_c, 1, 51, 0
3, 2773, Note_on_c, 1, 56, 0
3, 2781, Note_on_c, 1, 60, 0
3, 2859, Note_on_c, 1, 57, 71
3, 2861, Note_on_c, 1, 45, 80
3, 2861, Note_on_c, 1, 52, 69
3, 2861, Note_on_c, 1, 61, 99
3, 2861, Note_on_c, 1, 64, 80
3, 3197, Note_on_c, 1, 52, 0
3, 3343, Note_on_c, 1, 45, 0
3, 3393, Note_on_c, 1, 45, 88
3, 3485, Note_on_c, 1, 52, 99
3, 3619, Note_on_c, 1, 57, 0
3, 3621, Note_on_c, 1, 61, 0
3, 3625, Note_on_c, 1, 64, 0
3, 3661, Note_on_c, 1, 57, 69
3, 3663, Note_on_c, 1, 64, 80
3, 3663, Note_on_c, 1, 61, 113
3, 3701, Note_on_c, 1, 61, 0
3, 3707, Note_on_c, 1, 57, 0
3, 3711, Note_on_c, 1, 64, 0
3, 3751, Note_on_c, 1, 61, 113
3, 3751, Note_on_c, 1, 57, 69
3, 3753, Note_on_c, 1, 64, 80
3, 3786, Note_on_c, 1, 61, 0
3, 3787, Note_on_c, 1, 57, 0
3, 3796, Note_on_c, 1, 64, 0
3, 3839, Note_on_c, 1, 57, 69
3, 3842, Note_on_c, 1, 64, 80
3, 3842, Note_on_c, 1, 61, 99
3, 3879, Note_on_c, 1, 61, 0
3, 3881, Note_on_c, 1, 57, 0
3, 3887, Note_on_c, 1, 64, 0
3, 3897, Note_on_c, 1, 52, 0
3, 3909, Note_on_c, 1, 45, 0
3, 3931, Note_on_c, 1, 45, 80
3, 3933, Note_on_c, 1, 61, 88
3, 3933, Note_on_c, 1, 57, 69
3, 3933, Note_on_c, 1, 52, 49
3, 3935, Note_on_c, 1, 64, 71
3, 3965, Note_on_c, 1, 61, 0
3, 3967, Note_on_c, 1, 57, 0
3, 3971, Note_on_c, 1, 45, 0
3, 3973, Note_on_c, 1, 52, 0
3, 3978, Note_on_c, 1, 64, 0
3, 4021, Note_on_c, 1, 45, 71
3, 4021, Note_on_c, 1, 61, 99
3, 4021, Note_on_c, 1, 52, 60
3, 4023, Note_on_c, 1, 64, 88
3, 4023, Note_on_c, 1, 57, 69
3, 4047, Note_on_c, 1, 52, 0
3, 4053, Note_on_c, 1, 61, 0
3, 4055, Note_on_c, 1, 45, 0
3, 4058, Note_on_c, 1, 57, 0
3, 4062, Note_on_c, 1, 64, 0
3, 4109, Note_on_c, 1, 61, 113
3, 4111, Note_on_c, 1, 45, 80
3, 4111, Note_on_c, 1, 52, 69
3, 4111, Note_on_c, 1, 64, 80
3, 4111, Note_on_c, 1, 57, 69
3, 4141, Note_on_c, 1, 52, 0
3, 4143, Note_on_c, 1, 61, 0
3, 4149, Note_on_c, 1, 57, 0
3, 4151, Note_on_c, 1, 45, 0
3, 4153, Note_on_c, 1, 64, 0
3, 4197, Note_on_c, 1, 61, 99
3, 4197, Note_on_c, 1, 57, 80
3, 4199, Note_on_c, 1, 64, 88
3, 4199, Note_on_c, 1, 52, 71
3, 4201, Note_on_c, 1, 45, 99
3, 4243, Note_on_c, 1, 57, 0
3, 4243, Note_on_c, 1, 61, 0
3, 4255, Note_on_c, 1, 64, 0
3, 4257, Note_on_c, 1, 52, 0
3, 4257, Note_on_c, 1, 45, 0
3, 4289, Note_on_c, 1, 64, 80
3, 4289, Note_on_c, 1, 60, 127
3, 4289, Note_on_c, 1, 55, 69
3, 4291, Note_on_c, 1, 45, 60
3, 4291, Note_on_c, 1, 52, 60
3, 4867, Note_on_c, 1, 52, 0
3, 4923, Note_on_c, 1, 64, 0
3, 4925, Note_on_c, 1, 60, 0
3, 4929, Note_on_c, 1, 55, 0
3, 4929, Note_on_c, 1, 45, 0
3, 5003, Note_on_c, 1, 57, 64
3, 5005, Note_on_c, 1, 42, 69
3, 5005, Note_on_c, 1, 54, 60
3, 5005, Note_on_c, 1, 61, 88
3, 5371, Note_on_c, 1, 42, 0
3, 5446, Note_on_c, 1, 54, 0
3, 5450, Note_on_c, 1, 42, 88
3, 5491, Note_on_c, 1, 57, 0
3, 5539, Note_on_c, 1, 54, 60
3, 5627, Note_on_c, 1, 57, 52
3, 5633, Note_on_c, 1, 61, 0
3, 5649, Note_on_c, 1, 54, 0
3, 5655, Note_on_c, 1, 42, 0
3, 5675, Note_on_c, 1, 57, 0
3, 5717, Note_on_c, 1, 60, 127
3, 5717, Note_on_c, 1, 55, 69
3, 5720, Note_on_c, 1, 64, 80
3, 5720, Note_on_c, 1, 52, 60
3, 5720, Note_on_c, 1, 45, 60
3, 6301, Note_on_c, 1, 52, 0
3, 6351, Note_on_c, 1, 64, 0
3, 6353, Note_on_c, 1, 60, 0
3, 6357, Note_on_c, 1, 55, 0
3, 6357, Note_on_c, 1, 45, 0
3, 6431, Note_on_c, 1, 57, 64
3, 6434, Note_on_c, 1, 54, 60
3, 6434, Note_on_c, 1, 61, 88
3, 6435, Note_on_c, 1, 42, 69
3, 6799, Note_on_c, 1, 42, 0
3, 6869, Note_on_c, 1, 54, 0
3, 6875, Note_on_c, 1, 42, 88
3, 6919, Note_on_c, 1, 57, 0
3, 6969, Note_on_c, 1, 54, 60
3, 7057, Note_on_c, 1, 57, 52
3, 7062, Note_on_c, 1, 61, 0
3, 7080, Note_on_c, 1, 54, 0
3, 7087, Note_on_c, 1, 42, 0
3, 7103, Note_on_c, 1, 57, 0
3, 7147, Note_on_c, 1, 64, 80
3, 7147, Note_on_c, 1, 60, 127
3, 7147, Note_on_c, 1, 55, 69
3, 7150, Note_on_c, 1, 45, 60
3, 7150, Note_on_c, 1, 52, 60
3, 7729, Note_on_c, 1, 52, 0
3, 7779, Note_on_c, 1, 64, 0
3, 7781, Note_on_c, 1, 60, 0
3, 7783, Note_on_c, 1, 55, 0
3, 7785, Note_on_c, 1, 45, 0
3, 7859, Note_on_c, 1, 57, 64
3, 7861, Note_on_c, 1, 42, 69
3, 7861, Note_on_c, 1, 54, 60
3, 7861, Note_on_c, 1, 61, 88
3, 8227, Note_on_c, 1, 42, 0
3, 8303, Note_on_c, 1, 54, 0
3, 8305, Note_on_c, 1, 42, 88
3, 8343, Note_on_c, 1, 57, 0
3, 8398, Note_on_c, 1, 54, 60
3, 8485, Note_on_c, 1, 57, 52
3, 8487, Note_on_c, 1, 61, 0
3, 8507, Note_on_c, 1, 54, 0
3, 8513, Note_on_c, 1, 42, 0
3, 8533, Note_on_c, 1, 57, 0
3, 8575, Note_on_c, 1, 60, 127
3, 8575, Note_on_c, 1, 55, 69
3, 8577, Note_on_c, 1, 45, 60
3, 8577, Note_on_c, 1, 52, 60
3, 8577, Note_on_c, 1, 64, 80
3, 9157, Note_on_c, 1, 52, 0
3, 9207, Note_on_c, 1, 64, 0
3, 9209, Note_on_c, 1, 60, 0
3, 9214, Note_on_c, 1, 45, 0
3, 9214, Note_on_c, 1, 55, 0
3, 9289, Note_on_c, 1, 42, 69
3, 9289, Note_on_c, 1, 54, 60
3, 9289, Note_on_c, 1, 61, 88
3, 9289, Note_on_c, 1, 57, 64
3, 9656, Note_on_c, 1, 42, 0
3, 9732, Note_on_c, 1, 54, 0
3, 9734, Note_on_c, 1, 42, 88
3, 9777, Note_on_c, 1, 57, 0
3, 9823, Note_on_c, 1, 54, 60
3, 9916, Note_on_c, 1, 61, 0
3, 9916, Note_on_c, 1, 57, 52
3, 9937, Note_on_c, 1, 54, 0
3, 9941, Note_on_c, 1, 42, 0
3, 9961, Note_on_c, 1, 57, 0
3, 10003, Note_on_c, 1, 43, 71
3, 10005, Note_on_c, 1, 59, 80
3, 10005, Note_on_c, 1, 55, 69
3, 10005, Note_on_c, 1, 50, 69
3, 10007, Note_on_c, 1, 62, 88
3, 10239, Note_on_c, 1, 43, 0
3, 10283, Note_on_c, 1, 50, 0
3, 10283, Note_on_c, 1, 55, 0
3, 10301, Note_on_c, 1, 59, 0
3, 10305, Note_on_c, 1, 62, 0
3, 10361, Note_on_c, 1, 43, 52
3, 10363, Note_on_c, 1, 64, 80
3, 10363, Note_on_c, 1, 61, 88
3, 10363, Note_on_c, 1, 57, 80
3, 10363, Note_on_c, 1, 45, 60
3, 10366, Note_on_c, 1, 52, 49
3, 10375, Note_on_c, 1, 43, 0
3, 10579, Note_on_c, 1, 61, 0
3, 10645, Note_on_c, 1, 64, 0
3, 10653, Note_on_c, 1, 52, 0
3, 10659, Note_on_c, 1, 57, 0
3, 10667, Note_on_c, 1, 45, 0
3, 10717, Note_on_c, 1, 54, 88
3, 10719, Note_on_c, 1, 57, 88
3, 10719, Note_on_c, 1, 62, 71
3, 11278, Note_on_c, 1, 54, 0
3, 11323, Note_on_c, 1, 57, 0
3, 11364, Note_on_c, 1, 62, 0
3, 11433, Note_on_c, 1, 59, 88
3, 11433, Note_on_c, 1, 43, 80
3, 11435, Note_on_c, 1, 55, 80
3, 11435, Note_on_c, 1, 62, 71
3, 11692, Note_on_c, 1, 43, 0
3, 11721, Note_on_c, 1, 55, 0
3, 11723, Note_on_c, 1, 59, 0
3, 11735, Note_on_c, 1, 62, 0
3, 11789, Note_on_c, 1, 52, 56
3, 11789, Note_on_c, 1, 57, 69
3, 11789, Note_on_c, 1, 45, 64
3, 11791, Note_on_c, 1, 64, 80
3, 11791, Note_on_c, 1, 61, 88
3, 12035, Note_on_c, 1, 61, 0
3, 12053, Note_on_c, 1, 64, 0
3, 12067, Note_on_c, 1, 57, 0
3, 12073, Note_on_c, 1, 52, 0
3, 12079, Note_on_c, 1, 45, 0
3, 12148, Note_on_c, 1, 54, 80
3, 12148, Note_on_c, 1, 57, 71
3, 12148, Note_on_c, 1, 62, 88
3, 12385, Note_on_c, 1, 57, 0
3, 12387, Note_on_c, 1, 54, 0
3, 12420, Note_on_c, 1, 62, 0
3, 12503, Note_on_c, 1, 59, 52
3, 12505, Note_on_c, 1, 47, 99
3, 12505, Note_on_c, 1, 63, 80
3, 12505, Note_on_c, 1, 66, 99
3, 12775, Note_on_c, 1, 66, 0
3, 12777, Note_on_c, 1, 47, 0
3, 12779, Note_on_c, 1, 63, 0
3, 12787, Note_on_c, 1, 59, 0
3, 12861, Note_on_c, 1, 43, 56
3, 12864, Note_on_c, 1, 62, 71
3, 12864, Note_on_c, 1, 59, 80
3, 12864, Note_on_c, 1, 55, 64
3, 13079, Note_on_c, 1, 59, 0
3, 13135, Note_on_c, 1, 43, 0
3, 13149, Note_on_c, 1, 55, 0
3, 13173, Note_on_c, 1, 62, 0
3, 13217, Note_on_c, 1, 62, 80
3, 13217, Note_on_c, 1, 54, 64
3, 13219, Note_on_c, 1, 42, 80
3, 13219, Note_on_c, 1, 57, 80
3, 13497, Note_on_c, 1, 62, 0
3, 13504, Note_on_c, 1, 54, 0
3, 13506, Note_on_c, 1, 42, 0
3, 13506, Note_on_c, 1, 57, 0
3, 13575, Note_on_c, 1, 59, 64
3, 13578, Note_on_c, 1, 52, 69
3, 13578, Note_on_c, 1, 56, 80
3, 14064, Note_on_c, 1, 52, 0
3, 14111, Note_on_c, 1, 52, 99
3, 14113, Note_on_c, 1, 56, 0
3, 14198, Note_on_c, 1, 59, 0
3, 14201, Note_on_c, 1, 56, 99
3, 14289, Note_on_c, 1, 62, 80
3, 14923, Note_on_c, 1, 52, 0
3, 14925, Note_on_c, 1, 56, 0
3, 14931, Note_on_c, 1, 62, 0
3, 15003, Note_on_c, 1, 55, 69
3, 15005, Note_on_c, 1, 52, 60
3, 15005, Note_on_c, 1, 64, 80
3, 15005, Note_on_c, 1, 60, 127
3, 15007, Note_on_c, 1, 45, 60
3, 15587, Note_on_c, 1, 52, 0
3, 15635, Note_on_c, 1, 64, 0
3, 15637, Note_on_c, 1, 60, 0
3, 15640, Note_on_c, 1, 55, 0
3, 15643, Note_on_c, 1, 45, 0
3, 15717, Note_on_c, 1, 57, 64
3, 15719, Note_on_c, 1, 42, 69
3, 15719, Note_on_c, 1, 54, 60
3, 15719, Note_on_c, 1, 61, 88
3, 16087, Note_on_c, 1, 42, 0
3, 16162, Note_on_c, 1, 54, 0
3, 16164, Note_on_c, 1, 42, 88
3, 16205, Note_on_c, 1, 57, 0
3, 16253, Note_on_c, 1, 54, 60
3, 16343, Note_on_c, 1, 57, 52
3, 16348, Note_on_c, 1, 61, 0
3, 16363, Note_on_c, 1, 54, 0
3, 16371, Note_on_c, 1, 42, 0
3, 16389, Note_on_c, 1, 57, 0
3, 16431, Note_on_c, 1, 55, 69
3, 16433, Note_on_c, 1, 45, 60
3, 16433, Note_on_c, 1, 52, 60
3, 16433, Note_on_c, 1, 64, 80
3, 16433, Note_on_c, 1, 60, 127
3, 17017, Note_on_c, 1, 52, 0
3, 17065, Note_on_c, 1, 64, 0
3, 17067, Note_on_c, 1, 60, 0
3, 17071, Note_on_c, 1, 55, 0
3, 17073, Note_on_c, 1, 45, 0
3, 17147, Note_on_c, 1, 57, 64
3, 17149, Note_on_c, 1, 42, 69
3, 17149, Note_on_c, 1, 54, 60
3, 17149, Note_on_c, 1, 61, 88
3, 17516, Note_on_c, 1, 42, 0
3, 17589, Note_on_c, 1, 54, 0
3, 17594, Note_on_c, 1, 42, 88
3, 17634, Note_on_c, 1, 57, 0
3, 17684, Note_on_c, 1, 54, 60
3, 17771, Note_on_c, 1, 57, 52
3, 17775, Note_on_c, 1, 61, 0
3, 17791, Note_on_c, 1, 54, 0
3, 17799, Note_on_c, 1, 42, 0
3, 17818, Note_on_c, 1, 57, 0
3, 17861, Note_on_c, 1, 64, 80
3, 17861, Note_on_c, 1, 60, 127
3, 17861, Note_on_c, 1, 55, 69
3, 17864, Note_on_c, 1, 45, 60
3, 17864, Note_on_c, 1, 52, 60
3, 18445, Note_on_c, 1, 52, 0
3, 18495, Note_on_c, 1, 64, 0
3, 18497, Note_on_c, 1, 60, 0
3, 18501, Note_on_c, 1, 55, 0
3, 18501, Note_on_c, 1, 45, 0
3, 18575, Note_on_c, 1, 57, 64
3, 18577, Note_on_c, 1, 42, 69
3, 18577, Note_on_c, 1, 54, 60
3, 18577, Note_on_c, 1, 61, 88
3, 18942, Note_on_c, 1, 42, 0
3, 19018, Note_on_c, 1, 54, 0
3, 19021, Note_on_c, 1, 42, 88
3, 19064, Note_on_c, 1, 57, 0
3, 19112, Note_on_c, 1, 54, 60
3, 19201, Note_on_c, 1, 61, 0
3, 19201, Note_on_c, 1, 57, 52
3, 19224, Note_on_c, 1, 54, 0
3, 19230, Note_on_c, 1, 42, 0
3, 19248, Note_on_c, 1, 57, 0
3, 19289, Note_on_c, 1, 60, 127
3, 19289, Note_on_c, 1, 55, 69
3, 19291, Note_on_c, 1, 45, 60
3, 19291, Note_on_c, 1, 52, 60
3, 19291, Note_on_c, 1, 64, 80
3, 19872, Note_on_c, 1, 52, 0
3, 19921, Note_on_c, 1, 60, 0
3, 19923, Note_on_c, 1, 64, 0
3, 19925, Note_on_c, 1, 55, 0
3, 19927, Note_on_c, 1, 45, 0
3, 20004, Note_on_c, 1, 57, 64
3, 20005, Note_on_c, 1, 54, 60
3, 20005, Note_on_c, 1, 61, 88
3, 20007, Note_on_c, 1, 42, 69
3, 20371, Note_on_c, 1, 42, 0
3, 20441, Note_on_c, 1, 54, 0
3, 20447, Note_on_c, 1, 42, 88
3, 20491, Note_on_c, 1, 57, 0
3, 20542, Note_on_c, 1, 54, 60
3, 20630, Note_on_c, 1, 57, 52
3, 20633, Note_on_c, 1, 61, 0
3, 20650, Note_on_c, 1, 54, 0
3, 20658, Note_on_c, 1, 42, 0
3, 20676, Note_on_c, 1, 57, 0
3, 20719, Note_on_c, 1, 55, 69
3, 20719, Note_on_c, 1, 50, 69
3, 20719, Note_on_c, 1, 43, 71
3, 20722, Note_on_c, 1, 59, 80
3, 20722, Note_on_c, 1, 62, 88
3, 20958, Note_on_c, 1, 43, 0
3, 20997, Note_on_c, 1, 50, 0
3, 21001, Note_on_c, 1, 55, 0
3, 21016, Note_on_c, 1, 59, 0
3, 21019, Note_on_c, 1, 62, 0
3, 21075, Note_on_c, 1, 45, 60
3, 21075, Note_on_c, 1, 43, 52
3, 21077, Note_on_c, 1, 64, 80
3, 21077, Note_on_c, 1, 61, 88
3, 21077, Note_on_c, 1, 57, 80
3, 21080, Note_on_c, 1, 52, 49
3, 21089, Note_on_c, 1, 43, 0
3, 21294, Note_on_c, 1, 61, 0
3, 21361, Note_on_c, 1, 64, 0
3, 21367, Note_on_c, 1, 52, 0
3, 21375, Note_on_c, 1, 57, 0
3, 21381, Note_on_c, 1, 45, 0
3, 21433, Note_on_c, 1, 54, 88
3, 21435, Note_on_c, 1, 57, 88
3, 21435, Note_on_c, 1, 62, 71
3, 21995, Note_on_c, 1, 54, 0
3, 22040, Note_on_c, 1, 57, 0
3, 22080, Note_on_c, 1, 62, 0
3, 22147, Note_on_c, 1, 59, 88
3, 22147, Note_on_c, 1, 43, 80
3, 22149, Note_on_c, 1, 55, 80
3, 22149, Note_on_c, 1, 62, 71
3, 22408, Note_on_c, 1, 43, 0
3, 22437, Note_on_c, 1, 55, 0
3, 22441, Note_on_c, 1, 59, 0
3, 22453, Note_on_c, 1, 62, 0
3, 22505, Note_on_c, 1, 52, 56
3, 22505, Note_on_c, 1, 57, 69
3, 22505, Note_on_c, 1, 45, 64
3, 22507, Note_on_c, 1, 64, 80
3, 22507, Note_on_c, 1, 61, 88
3, 22749, Note_on_c, 1, 61, 0
3, 22767, Note_on_c, 1, 64, 0
3, 22782, Note_on_c, 1, 57, 0
3, 22789, Note_on_c, 1, 52, 0
3, 22793, Note_on_c, 1, 45, 0
3, 22861, Note_on_c, 1, 62, 88
3, 22863, Note_on_c, 1, 57, 71
3, 22865, Note_on_c, 1, 54, 80
3, 23099, Note_on_c, 1, 57, 0
3, 23103, Note_on_c, 1, 54, 0
3, 23135, Note_on_c, 1, 62, 0
3, 23219, Note_on_c, 1, 47, 99
3, 23219, Note_on_c, 1, 63, 80
3, 23219, Note_on_c, 1, 66, 99
3, 23219, Note_on_c, 1, 59, 52
3, 23492, Note_on_c, 1, 66, 0
3, 23493, Note_on_c, 1, 47, 0
3, 23495, Note_on_c, 1, 63, 0
3, 23502, Note_on_c, 1, 59, 0
3, 23575, Note_on_c, 1, 43, 56
3, 23578, Note_on_c, 1, 55, 64
3, 23578, Note_on_c, 1, 59, 80
3, 23578, Note_on_c, 1, 62, 71
3, 23793, Note_on_c, 1, 59, 0
3, 23851, Note_on_c, 1, 43, 0
3, 23863, Note_on_c, 1, 55, 0
3, 23887, Note_on_c, 1, 62, 0
3, 23933, Note_on_c, 1, 42, 80
3, 23933, Note_on_c, 1, 57, 80
3, 23933, Note_on_c, 1, 62, 80
3, 23933, Note_on_c, 1, 54, 64
3, 24211, Note_on_c, 1, 62, 0
3, 24213, Note_on_c, 1, 54, 0
3, 24217, Note_on_c, 1, 57, 0
3, 24219, Note_on_c, 1, 42, 0
3, 24290, Note_on_c, 1, 59, 64
3, 24292, Note_on_c, 1, 52, 69
3, 24292, Note_on_c, 1, 56, 80
3, 24776, Note_on_c, 1, 52, 0
3, 24826, Note_on_c, 1, 52, 99
3, 24827, Note_on_c, 1, 56, 0
3, 24914, Note_on_c, 1, 59, 0
3, 24915, Note_on_c, 1, 56, 99
3, 25003, Note_on_c, 1, 62, 80
3, 25640, Note_on_c, 1, 56, 0
3, 25640, Note_on_c, 1, 52, 0
3, 25645, Note_on_c, 1, 62, 0
3, 25719, Note_on_c, 1, 60, 99
3, 25721, Note_on_c, 1, 64, 88
3, 25721, Note_on_c, 1, 45, 88
3, 25721, Note_on_c, 1, 57, 80
3, 25991, Note_on_c, 1, 60, 0
3, 25995, Note_on_c, 1, 57, 0
3, 25997, Note_on_c, 1, 45, 0
3, 26003, Note_on_c, 1, 64, 0
3, 26075, Note_on_c, 1, 62, 88
3, 26077, Note_on_c, 1, 66, 99
3, 26077, Note_on_c, 1, 47, 88
3, 26077, Note_on_c, 1, 57, 64
3, 26351, Note_on_c, 1, 57, 0
3, 26351, Note_on_c, 1, 66, 0
3, 26353, Note_on_c, 1, 47, 0
3, 26353, Note_on_c, 1, 62, 0
3, 26433, Note_on_c, 1, 45, 80
3, 26433, Note_on_c, 1, 57, 71
3, 26433, Note_on_c, 1, 60, 127
3, 26435, Note_on_c, 1, 64, 80
3, 26615, Note_on_c, 1, 60, 0
3, 26615, Note_on_c, 1, 57, 0
3, 26619, Note_on_c, 1, 45, 0
3, 26623, Note_on_c, 1, 64, 0
3, 26701, Note_on_c, 1, 47, 99
3, 26701, Note_on_c, 1, 57, 69
3, 26701, Note_on_c, 1, 66, 99
3, 26701, Note_on_c, 1, 62, 88
3, 27035, Note_on_c, 1, 62, 0
3, 27035, Note_on_c, 1, 66, 0
3, 27035, Note_on_c, 1, 47, 0
3, 27042, Note_on_c, 1, 57, 0
3, 27147, Note_on_c, 1, 45, 99
3, 27149, Note_on_c, 1, 64, 71
3, 27149, Note_on_c, 1, 60, 88
3, 27149, Note_on_c, 1, 57, 64
3, 27403, Note_on_c, 1, 45, 0
3, 27405, Note_on_c, 1, 60, 0
3, 27407, Note_on_c, 1, 57, 0
3, 27419, Note_on_c, 1, 64, 0
3, 27503, Note_on_c, 1, 62, 80
3, 27503, Note_on_c, 1, 66, 80
3, 27505, Note_on_c, 1, 47, 88
3, 27505, Note_on_c, 1, 57, 60
3, 27775, Note_on_c, 1, 57, 0
3, 27775, Note_on_c, 1, 62, 0
3, 27775, Note_on_c, 1, 66, 0
3, 27775, Note_on_c, 1, 47, 0
3, 27861, Note_on_c, 1, 60, 127
3, 27861, Note_on_c, 1, 57, 80
3, 27864, Note_on_c, 1, 64, 80
3, 27864, Note_on_c, 1, 45, 88
3, 28038, Note_on_c, 1, 57, 0
3, 28038, Note_on_c, 1, 60, 0
3, 28041, Note_on_c, 1, 45, 0
3, 28049, Note_on_c, 1, 64, 0
3, 28132, Note_on_c, 1, 57, 69
3, 28132, Note_on_c, 1, 66, 99
3, 28132, Note_on_c, 1, 62, 80
3, 28134, Note_on_c, 1, 47, 88
3, 28459, Note_on_c, 1, 57, 0
3, 28461, Note_on_c, 1, 62, 0
3, 28465, Note_on_c, 1, 66, 0
3, 28465, Note_on_c, 1, 47, 0
3, 28575, Note_on_c, 1, 57, 80
3, 28575, Note_on_c, 1, 60, 88
3, 28577, Note_on_c, 1, 64, 71
3, 28577, Note_on_c, 1, 45, 113
3, 28599, Note_on_c, 1, 60, 0
3, 28601, Note_on_c, 1, 57, 0
3, 28611, Note_on_c, 1, 64, 0
3, 28617, Note_on_c, 1, 45, 0
3, 28691, Note_on_c, 1, 45, 113
3, 28693, Note_on_c, 1, 60, 127
3, 28695, Note_on_c, 1, 57, 80
3, 28697, Note_on_c, 1, 64, 80
3, 28725, Note_on_c, 1, 60, 0
3, 28729, Note_on_c, 1, 45, 0
3, 28729, Note_on_c, 1, 57, 0
3, 28735, Note_on_c, 1, 64, 0
3, 28813, Note_on_c, 1, 64, 88
3, 28813, Note_on_c, 1, 60, 127
3, 28815, Note_on_c, 1, 45, 99
3, 28843, Note_on_c, 1, 57, 69
3, 28846, Note_on_c, 1, 60, 0
3, 28859, Note_on_c, 1, 64, 0
3, 28859, Note_on_c, 1, 45, 0
3, 28871, Note_on_c, 1, 57, 0
3, 28933, Note_on_c, 1, 47, 99
3, 28933, Note_on_c, 1, 66, 99
3, 28933, Note_on_c, 1, 62, 88
3, 28935, Note_on_c, 1, 57, 64
3, 29195, Note_on_c, 1, 66, 0
3, 29195, Note_on_c, 1, 47, 0
3, 29197, Note_on_c, 1, 62, 0
3, 29203, Note_on_c, 1, 57, 0
3, 29289, Note_on_c, 1, 45, 113
3, 29291, Note_on_c, 1, 57, 71
3, 29291, Note_on_c, 1, 60, 88
3, 29293, Note_on_c, 1, 64, 80
3, 29315, Note_on_c, 1, 60, 0
3, 29319, Note_on_c, 1, 57, 0
3, 29321, Note_on_c, 1, 45, 0
3, 29323, Note_on_c, 1, 64, 0
3, 29407, Note_on_c, 1, 45, 88
3, 29409, Note_on_c, 1, 64, 88
3, 29409, Note_on_c, 1, 60, 127
3, 29409, Note_on_c, 1, 57, 80
3, 29435, Note_on_c, 1, 57, 0
3, 29437, Note_on_c, 1, 60, 0
3, 29441, Note_on_c, 1, 45, 0
3, 29445, Note_on_c, 1, 64, 0
3, 29527, Note_on_c, 1, 57, 71
3, 29529, Note_on_c, 1, 45, 113
3, 29529, Note_on_c, 1, 64, 88
3, 29529, Note_on_c, 1, 60, 127
3, 29555, Note_on_c, 1, 60, 0
3, 29555, Note_on_c, 1, 57, 0
3, 29568, Note_on_c, 1, 64, 0
3, 29568, Note_on_c, 1, 45, 0
3, 29646, Note_on_c, 1, 57, 69
3, 29646, Note_on_c, 1, 66, 99
3, 29646, Note_on_c, 1, 62, 80
3, 29647, Note_on_c, 1, 47, 113
3, 29925, Note_on_c, 1, 66, 0
3, 29929, Note_on_c, 1, 62, 0
3, 29931, Note_on_c, 1, 47, 0
3, 29933, Note_on_c, 1, 57, 0
3, 30005, Note_on_c, 1, 60, 99
3, 30005, Note_on_c, 1, 57, 80
3, 30005, Note_on_c, 1, 45, 99
3, 30007, Note_on_c, 1, 64, 88
3, 30033, Note_on_c, 1, 60, 0
3, 30035, Note_on_c, 1, 57, 0
3, 30037, Note_on_c, 1, 45, 0
3, 30039, Note_on_c, 1, 64, 0
3, 30119, Note_on_c, 1, 45, 99
3, 30121, Note_on_c, 1, 60, 127
3, 30121, Note_on_c, 1, 57, 80
3, 30123, Note_on_c, 1, 64, 80
3, 30143, Note_on_c, 1, 57, 0
3, 30147, Note_on_c, 1, 45, 0
3, 30149, Note_on_c, 1, 60, 0
3, 30163, Note_on_c, 1, 64, 0
3, 30243, Note_on_c, 1, 45, 99
3, 30243, Note_on_c, 1, 64, 88
3, 30243, Note_on_c, 1, 60, 88
3, 30243, Note_on_c, 1, 57, 80
3, 30273, Note_on_c, 1, 57, 0
3, 30273, Note_on_c, 1, 60, 0
3, 30279, Note_on_c, 1, 45, 0
3, 30285, Note_on_c, 1, 64, 0
3, 30361, Note_on_c, 1, 62, 80
3, 30361, Note_on_c, 1, 66, 113
3, 30363, Note_on_c, 1, 57, 71
3, 30363, Note_on_c, 1, 47, 99
3, 30619, Note_on_c, 1, 66, 0
3, 30631, Note_on_c, 1, 62, 0
3, 30631, Note_on_c, 1, 57, 0
3, 30631, Note_on_c, 1, 47, 0
3, 30719, Note_on_c, 1, 45, 127
3, 30721, Note_on_c, 1, 60, 127
3, 30721, Note_on_c, 1, 64, 80
3, 30721, Note_on_c, 1, 57, 71
3, 30745, Note_on_c, 1, 57, 0
3, 30745, Note_on_c, 1, 45, 0
3, 30749, Note_on_c, 1, 60, 0
3, 30751, Note_on_c, 1, 64, 0
3, 30836, Note_on_c, 1, 57, 80
3, 30837, Note_on_c, 1, 64, 80
3, 30837, Note_on_c, 1, 60, 127
3, 30839, Note_on_c, 1, 45, 99
3, 30859, Note_on_c, 1, 57, 0
3, 30861, Note_on_c, 1, 60, 0
3, 30871, Note_on_c, 1, 64, 0
3, 30871, Note_on_c, 1, 45, 0
3, 30956, Note_on_c, 1, 60, 127
3, 30956, Note_on_c, 1, 57, 71
3, 30958, Note_on_c, 1, 64, 80
3, 30958, Note_on_c, 1, 45, 99
3, 30981, Note_on_c, 1, 57, 0
3, 30984, Note_on_c, 1, 60, 0
3, 30991, Note_on_c, 1, 45, 0
3, 30993, Note_on_c, 1, 64, 0
3, 31075, Note_on_c, 1, 66, 88
3, 31075, Note_on_c, 1, 47, 88
3, 31075, Note_on_c, 1, 62, 71
3, 31077, Note_on_c, 1, 57, 71
3, 31330, Note_on_c, 1, 47, 0
3, 31337, Note_on_c, 1, 66, 0
3, 31339, Note_on_c, 1, 62, 0
3, 31345, Note_on_c, 1, 57, 0
3, 31433, Note_on_c, 1, 64, 80
3, 31433, Note_on_c, 1, 45, 99
3, 31435, Note_on_c, 1, 57, 80
3, 31435, Note_on_c, 1, 60, 99
3, 31458, Note_on_c, 1, 60, 0
3, 31462, Note_on_c, 1, 60, 127
3, 31464, Note_on_c, 1, 60, 0
3, 31466, Note_on_c, 1, 57, 0
3, 31466, Note_on_c, 1, 45, 0
3, 31466, Note_on_c, 1, 64, 0
3, 31552, Note_on_c, 1, 60, 127
3, 31552, Note_on_c, 1, 57, 69
3, 31552, Note_on_c, 1, 45, 99
3, 31554, Note_on_c, 1, 64, 88
3, 31579, Note_on_c, 1, 60, 0
3, 31581, Note_on_c, 1, 57, 0
3, 31583, Note_on_c, 1, 45, 0
3, 31589, Note_on_c, 1, 64, 0
3, 31668, Note_on_c, 1, 60, 127
3, 31669, Note_on_c, 1, 45, 99
3, 31669, Note_on_c, 1, 64, 88
3, 31669, Note_on_c, 1, 57, 88
3, 31697, Note_on_c, 1, 60, 0
3, 31703, Note_on_c, 1, 57, 0
3, 31709, Note_on_c, 1, 45, 0
3, 31711, Note_on_c, 1, 64, 0
3, 31791, Note_on_c, 1, 47, 99
3, 31791, Note_on_c, 1, 66, 99
3, 31791, Note_on_c, 1, 62, 99
3, 31793, Note_on_c, 1, 57, 69
3, 31817, Note_on_c, 1, 62, 0
3, 31825, Note_on_c, 1, 66, 0
3, 31827, Note_on_c, 1, 47, 0
3, 31831, Note_on_c, 1, 57, 0
3, 31907, Note_on_c, 1, 66, 88
3, 31909, Note_on_c, 1, 57, 69
3, 31909, Note_on_c, 1, 47, 113
3, 31909, Note_on_c, 1, 62, 71
3, 31941, Note_on_c, 1, 62, 0
3, 31943, Note_on_c, 1, 66, 0
3, 31945, Note_on_c, 1, 47, 0
3, 31947, Note_on_c, 1, 57, 0
3, 32027, Note_on_c, 1, 57, 64
3, 32027, Note_on_c, 1, 47, 88
3, 32027, Note_on_c, 1, 62, 80
3, 32029, Note_on_c, 1, 66, 99
3, 32055, Note_on_c, 1, 62, 0
3, 32061, Note_on_c, 1, 66, 0
3, 32063, Note_on_c, 1, 47, 0
3, 32065, Note_on_c, 1, 57, 0
3, 32147, Note_on_c, 1, 57, 71
3, 32149, Note_on_c, 1, 60, 127
3, 32151, Note_on_c, 1, 45, 99
3, 32151, Note_on_c, 1, 64, 80
3, 32181, Note_on_c, 1, 60, 0
3, 32181, Note_on_c, 1, 57, 0
3, 32187, Note_on_c, 1, 45, 0
3, 32191, Note_on_c, 1, 64, 0
3, 32267, Note_on_c, 1, 45, 99
3, 32267, Note_on_c, 1, 60, 88
3, 32267, Note_on_c, 1, 57, 71
3, 32269, Note_on_c, 1, 64, 80
3, 32299, Note_on_c, 1, 57, 0
3, 32299, Note_on_c, 1, 60, 0
3, 32307, Note_on_c, 1, 45, 0
3, 32311, Note_on_c, 1, 64, 0
3, 32385, Note_on_c, 1, 57, 80
3, 32385, Note_on_c, 1, 45, 88
3, 32385, Note_on_c, 1, 60, 99
3, 32388, Note_on_c, 1, 64, 80
3, 32415, Note_on_c, 1, 60, 0
3, 32423, Note_on_c, 1, 57, 0
3, 32425, Note_on_c, 1, 45, 0
3, 32433, Note_on_c, 1, 64, 0
3, 32505, Note_on_c, 1, 47, 113
3, 32505, Note_on_c, 1, 57, 69
3, 32505, Note_on_c, 1, 66, 113
3, 32505, Note_on_c, 1, 62, 80
3, 32535, Note_on_c, 1, 62, 0
3, 32545, Note_on_c, 1, 66, 0
3, 32547, Note_on_c, 1, 47, 0
3, 32549, Note_on_c, 1, 57, 0
3, 32621, Note_on_c, 1, 62, 80
3, 32621, Note_on_c, 1, 66, 88
3, 32623, Note_on_c, 1, 47, 99
3, 32623, Note_on_c, 1, 57, 69
3, 32661, Note_on_c, 1, 62, 0
3, 32663, Note_on_c, 1, 66, 0
3, 32663, Note_on_c, 1, 47, 0
3, 32665, Note_on_c, 1, 57, 0
3, 32739, Note_on_c, 1, 47, 113
3, 32741, Note_on_c, 1, 66, 88
3, 32741, Note_on_c, 1, 57, 71
3, 32741, Note_on_c, 1, 62, 80
3, 32783, Note_on_c, 1, 62, 0
3, 32787, Note_on_c, 1, 57, 0
3, 32789, Note_on_c, 1, 66, 0
3, 32789, Note_on_c, 1, 47, 0
3, 32861, Note_on_c, 1, 59, 88
3, 32863, Note_on_c, 1, 62, 99
3, 32863, Note_on_c, 1, 55, 80
3, 32865, Note_on_c, 1, 43, 88
3, 33105, Note_on_c, 1, 43, 0
3, 33123, Note_on_c, 1, 55, 0
3, 33135, Note_on_c, 1, 59, 0
3, 33145, Note_on_c, 1, 62, 0
3, 33217, Note_on_c, 1, 50, 80
3, 33217, Note_on_c, 1, 62, 69
3, 33217, Note_on_c, 1, 66, 71
3, 33217, Note_on_c, 1, 69, 69
3, 33217, Note_on_c, 1, 57, 60
3, 33491, Note_on_c, 1, 57, 0
3, 33491, Note_on_c, 1, 69, 0
3, 33497, Note_on_c, 1, 66, 0
3, 33505, Note_on_c, 1, 62, 0
3, 33521, Note_on_c, 1, 50, 0
3, 33575, Note_on_c, 1, 60, 88
3, 33577, Note_on_c, 1, 53, 80
3, 33577, Note_on_c, 1, 57, 88
3, 33859, Note_on_c, 1, 60, 0
3, 33861, Note_on_c, 1, 57, 0
3, 33863, Note_on_c, 1, 53, 0
3, 33934, Note_on_c, 1, 46, 127
3, 33934, Note_on_c, 1, 62, 113
3, 33934, Note_on_c, 1, 53, 80
3, 33934, Note_on_c, 1, 58, 80
3, 34187, Note_on_c, 1, 46, 0
3, 34205, Note_on_c, 1, 53, 0
3, 34213, Note_on_c, 1, 58, 0
3, 34233, Note_on_c, 1, 62, 0
3, 34291, Note_on_c, 1, 55, 71
3, 34291, Note_on_c, 1, 65, 80
3, 34293, Note_on_c, 1, 51, 80
3, 34293, Note_on_c, 1, 58, 80
3, 34293, Note_on_c, 1, 67, 71
3, 34295, Note_on_c, 1, 63, 113
3, 34323, Note_on_c, 1, 65, 0
3, 34521, Note_on_c, 1, 67, 0
3, 34553, Note_on_c, 1, 63, 0
3, 34560, Note_on_c, 1, 58, 0
3, 34571, Note_on_c, 1, 55, 0
3, 34595, Note_on_c, 1, 51, 0
3, 34647, Note_on_c, 1, 56, 80
3, 34647, Note_on_c, 1, 51, 80
3, 34647, Note_on_c, 1, 44, 99
3, 34650, Note_on_c, 1, 60, 80
3, 34868, Note_on_c, 1, 44, 0
3, 34889, Note_on_c, 1, 51, 0
3, 34919, Note_on_c, 1, 56, 0
3, 34927, Note_on_c, 1, 60, 0
3, 35005, Note_on_c, 1, 57, 71
3, 35007, Note_on_c, 1, 45, 80
3, 35007, Note_on_c, 1, 52, 69
3, 35007, Note_on_c, 1, 61, 99
3, 35007, Note_on_c, 1, 64, 80
3, 35344, Note_on_c, 1, 52, 0
3, 35493, Note_on_c, 1, 45, 0
3, 35539, Note_on_c, 1, 45, 88
3, 35627, Note_on_c, 1, 52, 99
3, 35763, Note_on_c, 1, 57, 0
3, 35765, Note_on_c, 1, 61, 0
3, 35769, Note_on_c, 1, 64, 0
3, 35805, Note_on_c, 1, 57, 69
3, 35807, Note_on_c, 1, 64, 80
3, 35807, Note_on_c, 1, 61, 113
3, 35847, Note_on_c, 1, 61, 0
3, 35853, Note_on_c, 1, 57, 0
3, 35857, Note_on_c, 1, 64, 0
3, 35897, Note_on_c, 1, 64, 80
3, 35897, Note_on_c, 1, 61, 113
3, 35897, Note_on_c, 1, 57, 69
3, 35931, Note_on_c, 1, 57, 0
3, 35931, Note_on_c, 1, 61, 0
3, 35941, Note_on_c, 1, 64, 0
3, 35987, Note_on_c, 1, 64, 80
3, 35987, Note_on_c, 1, 61, 99
3, 35987, Note_on_c, 1, 57, 69
3, 36021, Note_on_c, 1, 61, 0
3, 36023, Note_on_c, 1, 57, 0
3, 36029, Note_on_c, 1, 64, 0
3, 36043, Note_on_c, 1, 52, 0
3, 36051, Note_on_c, 1, 45, 0
3, 36075, Note_on_c, 1, 45, 80
3, 36077, Note_on_c, 1, 64, 71
3, 36077, Note_on_c, 1, 61, 88
3, 36077, Note_on_c, 1, 57, 69
3, 36077, Note_on_c, 1, 52, 49
3, 36107, Note_on_c, 1, 61, 0
3, 36111, Note_on_c, 1, 57, 0
3, 36115, Note_on_c, 1, 52, 0
3, 36115, Note_on_c, 1, 45, 0
3, 36121, Note_on_c, 1, 64, 0
3, 36163, Note_on_c, 1, 61, 99
3, 36163, Note_on_c, 1, 52, 60
3, 36165, Note_on_c, 1, 64, 88
3, 36165, Note_on_c, 1, 57, 69
3, 36165, Note_on_c, 1, 45, 71
3, 36191, Note_on_c, 1, 52, 0
3, 36197, Note_on_c, 1, 61, 0
3, 36199, Note_on_c, 1, 45, 0
3, 36205, Note_on_c, 1, 57, 0
3, 36207, Note_on_c, 1, 64, 0
3, 36253, Note_on_c, 1, 57, 69
3, 36253, Note_on_c, 1, 61, 113
3, 36255, Note_on_c, 1, 45, 80
3, 36255, Note_on_c, 1, 52, 69
3, 36255, Note_on_c, 1, 64, 80
3, 36283, Note_on_c, 1, 52, 0
3, 36283, Note_on_c, 1, 61, 0
3, 36289, Note_on_c, 1, 57, 0
3, 36289, Note_on_c, 1, 45, 0
3, 36295, Note_on_c, 1, 64, 0
3, 36343, Note_on_c, 1, 57, 80
3, 36345, Note_on_c, 1, 45, 99
3, 36345, Note_on_c, 1, 64, 88
3, 36345, Note_on_c, 1, 52, 71
3, 36345, Note_on_c, 1, 61, 99
3, 36391, Note_on_c, 1, 61, 0
3, 36391, Note_on_c, 1, 57, 0
3, 36399, Note_on_c, 1, 64, 0
3, 36403, Note_on_c, 1, 45, 0
3, 36403, Note_on_c, 1, 52, 0
3, 36433, Note_on_c, 1, 55, 69
3, 36435, Note_on_c, 1, 52, 60
3, 36435, Note_on_c, 1, 64, 80
3, 36435, Note_on_c, 1, 60, 127
3, 36438, Note_on_c, 1, 45, 60
3, 37016, Note_on_c, 1, 52, 0
3, 37065, Note_on_c, 1, 64, 0
3, 37067, Note_on_c, 1, 60, 0
3, 37071, Note_on_c, 1, 45, 0
3, 37071, Note_on_c, 1, 55, 0
3, 37147, Note_on_c, 1, 61, 88
3, 37147, Note_on_c, 1, 57, 64
3, 37150, Note_on_c, 1, 42, 69
3, 37150, Note_on_c, 1, 54, 60
3, 37515, Note_on_c, 1, 42, 0
3, 37591, Note_on_c, 1, 54, 0
3, 37593, Note_on_c, 1, 42, 88
3, 37635, Note_on_c, 1, 57, 0
3, 37683, Note_on_c, 1, 54, 60
3, 37771, Note_on_c, 1, 57, 52
3, 37774, Note_on_c, 1, 61, 0
3, 37793, Note_on_c, 1, 54, 0
3, 37801, Note_on_c, 1, 42, 0
3, 37819, Note_on_c, 1, 57, 0
3, 37861, Note_on_c, 1, 55, 69
3, 37863, Note_on_c, 1, 64, 80
3, 37863, Note_on_c, 1, 60, 127
3, 37866, Note_on_c, 1, 52, 60
3, 37866, Note_on_c, 1, 45, 60
3, 38441, Note_on_c, 1, 52, 0
3, 38495, Note_on_c, 1, 64, 0
3, 38497, Note_on_c, 1, 60, 0
3, 38501, Note_on_c, 1, 55, 0
3, 38501, Note_on_c, 1, 45, 0
3, 38577, Note_on_c, 1, 61, 88
3, 38577, Note_on_c, 1, 57, 64
3, 38579, Note_on_c, 1, 42, 69
3, 38579, Note_on_c, 1, 54, 60
3, 38939, Note_on_c, 1, 42, 0
3, 39019, Note_on_c, 1, 54, 0
3, 39023, Note_on_c, 1, 42, 88
3, 39063, Note_on_c, 1, 57, 0
3, 39113, Note_on_c, 1, 54, 60
3, 39202, Note_on_c, 1, 57, 52
3, 39206, Note_on_c, 1, 61, 0
3, 39222, Note_on_c, 1, 54, 0
3, 39229, Note_on_c, 1, 42, 0
3, 39248, Note_on_c, 1, 57, 0
3, 39292, Note_on_c, 1, 64, 80
3, 39292, Note_on_c, 1, 60, 127
3, 39292, Note_on_c, 1, 55, 69
3, 39293, Note_on_c, 1, 45, 60
3, 39293, Note_on_c, 1, 52, 60
3, 39869, Note_on_c, 1, 52, 0
3, 39926, Note_on_c, 1, 64, 0
3, 39927, Note_on_c, 1, 60, 0
3, 39931, Note_on_c, 1, 55, 0
3, 39931, Note_on_c, 1, 45, 0
3, 40005, Note_on_c, 1, 57, 64
3, 40007, Note_on_c, 1, 42, 69
3, 40007, Note_on_c, 1, 54, 60
3, 40007, Note_on_c, 1, 61, 88
3, 40367, Note_on_c, 1, 42, 0
3, 40448, Note_on_c, 1, 54, 0
3, 40451, Note_on_c, 1, 42, 88
3, 40492, Note_on_c, 1, 57, 0
3, 40541, Note_on_c, 1, 54, 60
3, 40629, Note_on_c, 1, 57, 52
3, 40634, Note_on_c, 1, 61, 0
3, 40652, Note_on_c, 1, 54, 0
3, 40657, Note_on_c, 1, 42, 0
3, 40677, Note_on_c, 1, 57, 0
3, 40720, Note_on_c, 1, 64, 80
3, 40720, Note_on_c, 1, 60, 127
3, 40720, Note_on_c, 1, 55, 69
3, 40721, Note_on_c, 1, 45, 60
3, 40721, Note_on_c, 1, 52, 60
3, 41301, Note_on_c, 1, 52, 0
3, 41351, Note_on_c, 1, 64, 0
3, 41353, Note_on_c, 1, 60, 0
3, 41357, Note_on_c, 1, 55, 0
3, 41357, Note_on_c, 1, 45, 0
3, 41433, Note_on_c, 1, 42, 69
3, 41433, Note_on_c, 1, 54, 60
3, 41433, Note_on_c, 1, 61, 88
3, 41433, Note_on_c, 1, 57, 64
3, 41799, Note_on_c, 1, 42, 0
3, 41875, Note_on_c, 1, 54, 0
3, 41877, Note_on_c, 1, 42, 88
3, 41915, Note_on_c, 1, 57, 0
3, 41971, Note_on_c, 1, 54, 60
3, 42059, Note_on_c, 1, 57, 52
3, 42064, Note_on_c, 1, 61, 0
3, 42081, Note_on_c, 1, 54, 0
3, 42086, Note_on_c, 1, 42, 0
3, 42105, Note_on_c, 1, 57, 0
3, 42147, Note_on_c, 1, 43, 71
3, 42149, Note_on_c, 1, 59, 80
3, 42149, Note_on_c, 1, 55, 69
3, 42149, Note_on_c, 1, 50, 69
3, 42152, Note_on_c, 1, 62, 88
3, 42382, Note_on_c, 1, 43, 0
3, 42427, Note_on_c, 1, 50, 0
3, 42431, Note_on_c, 1, 55, 0
3, 42445, Note_on_c, 1, 59, 0
3, 42449, Note_on_c, 1, 62, 0
3, 42505, Note_on_c, 1, 45, 60
3, 42505, Note_on_c, 1, 43, 52
3, 42507, Note_on_c, 1, 52, 49
3, 42507, Note_on_c, 1, 64, 80
3, 42507, Note_on_c, 1, 61, 88
3, 42507, Note_on_c, 1, 57, 80
3, 42519, Note_on_c, 1, 43, 0
3, 42723, Note_on_c, 1, 61, 0
3, 42789, Note_on_c, 1, 64, 0
3, 42797, Note_on_c, 1, 52, 0
3, 42807, Note_on_c, 1, 57, 0
3, 42811, Note_on_c, 1, 45, 0
3, 42861, Note_on_c, 1, 62, 71
3, 42861, Note_on_c, 1, 54, 88
3, 42863, Note_on_c, 1, 57, 88
3, 43423, Note_on_c, 1, 54, 0
3, 43469, Note_on_c, 1, 57, 0
3, 43512, Note_on_c, 1, 62, 0
3, 43577, Note_on_c, 1, 43, 80
3, 43579, Note_on_c, 1, 55, 80
3, 43579, Note_on_c, 1, 62, 71
3, 43579, Note_on_c, 1, 59, 88
3, 43834, Note_on_c, 1, 43, 0
3, 43867, Note_on_c, 1, 55, 0
3, 43869, Note_on_c, 1, 59, 0
3, 43882, Note_on_c, 1, 62, 0
3, 43933, Note_on_c, 1, 57, 69
3, 43933, Note_on_c, 1, 45, 64
3, 43935, Note_on_c, 1, 64, 80
3, 43935, Note_on_c, 1, 61, 88
3, 43935, Note_on_c, 1, 52, 56
3, 44179, Note_on_c, 1, 61, 0
3, 44197, Note_on_c, 1, 64, 0
3, 44212, Note_on_c, 1, 57, 0
3, 44220, Note_on_c, 1, 52, 0
3, 44223, Note_on_c, 1, 45, 0
3, 44292, Note_on_c, 1, 54, 80
3, 44292, Note_on_c, 1, 57, 71
3, 44292, Note_on_c, 1, 62, 88
3, 44530, Note_on_c, 1, 57, 0
3, 44534, Note_on_c, 1, 54, 0
3, 44563, Note_on_c, 1, 62, 0
3, 44647, Note_on_c, 1, 66, 99
3, 44647, Note_on_c, 1, 59, 52
3, 44649, Note_on_c, 1, 47, 99
3, 44649, Note_on_c, 1, 63, 80
3, 44913, Note_on_c, 1, 66, 0
3, 44915, Note_on_c, 1, 47, 0
3, 44921, Note_on_c, 1, 63, 0
3, 44929, Note_on_c, 1, 59, 0
3, 45005, Note_on_c, 1, 43, 56
3, 45007, Note_on_c, 1, 62, 71
3, 45007, Note_on_c, 1, 59, 80
3, 45007, Note_on_c, 1, 55, 64
3, 45223, Note_on_c, 1, 59, 0
3, 45281, Note_on_c, 1, 43, 0
3, 45293, Note_on_c, 1, 55, 0
3, 45316, Note_on_c, 1, 62, 0
3, 45361, Note_on_c, 1, 62, 80
3, 45361, Note_on_c, 1, 54, 64
3, 45364, Note_on_c, 1, 42, 80
3, 45364, Note_on_c, 1, 57, 80
3, 45641, Note_on_c, 1, 62, 0
3, 45643, Note_on_c, 1, 54, 0
3, 45647, Note_on_c, 1, 57, 0
3, 45649, Note_on_c, 1, 42, 0
3, 45719, Note_on_c, 1, 59, 64
3, 45721, Note_on_c, 1, 52, 69
3, 45721, Note_on_c, 1, 56, 80
3, 46207, Note_on_c, 1, 52, 0
3, 46255, Note_on_c, 1, 52, 99
3, 46257, Note_on_c, 1, 56, 0
3, 46343, Note_on_c, 1, 59, 0
3, 46345, Note_on_c, 1, 56, 99
3, 46433, Note_on_c, 1, 62, 80
3, 47067, Note_on_c, 1, 56, 0
3, 47067, Note_on_c, 1, 52, 0
3, 47073, Note_on_c, 1, 62, 0
3, 47147, Note_on_c, 1, 55, 69
3, 47149, Note_on_c, 1, 52, 60
3, 47149, Note_on_c, 1, 64, 80
3, 47149, Note_on_c, 1, 60, 127
3, 47151, Note_on_c, 1, 45, 60
3, 47731, Note_on_c, 1, 52, 0
3, 47781, Note_on_c, 1, 60, 0
3, 47781, Note_on_c, 1, 64, 0
3, 47785, Note_on_c, 1, 55, 0
3, 47785, Note_on_c, 1, 45, 0
3, 47863, Note_on_c, 1, 61, 88
3, 47863, Note_on_c, 1, 57, 64
3, 47865, Note_on_c, 1, 42, 69
3, 47865, Note_on_c, 1, 54, 60
3, 48229, Note_on_c, 1, 42, 0
3, 48305, Note_on_c, 1, 54, 0
3, 48307, Note_on_c, 1, 42, 88
3, 48349, Note_on_c, 1, 57, 0
3, 48397, Note_on_c, 1, 54, 60
3, 48487, Note_on_c, 1, 57, 52
3, 48489, Note_on_c, 1, 61, 0
3, 48510, Note_on_c, 1, 54, 0
3, 48517, Note_on_c, 1, 42, 0
3, 48535, Note_on_c, 1, 57, 0
3, 48578, Note_on_c, 1, 55, 69
3, 48579, Note_on_c, 1, 45, 60
3, 48579, Note_on_c, 1, 52, 60
3, 48579, Note_on_c, 1, 64, 80
3, 48579, Note_on_c, 1, 60, 127
3, 49161, Note_on_c, 1, 52, 0
3, 49210, Note_on_c, 1, 64, 0
3, 49211, Note_on_c, 1, 60, 0
3, 49215, Note_on_c, 1, 55, 0
3, 49217, Note_on_c, 1, 45, 0
3, 49291, Note_on_c, 1, 54, 60
3, 49291, Note_on_c, 1, 61, 88
3, 49291, Note_on_c, 1, 57, 64
3, 49293, Note_on_c, 1, 42, 69
3, 49657, Note_on_c, 1, 42, 0
3, 49733, Note_on_c, 1, 54, 0
3, 49735, Note_on_c, 1, 42, 88
3, 49780, Note_on_c, 1, 57, 0
3, 49828, Note_on_c, 1, 54, 60
3, 49917, Note_on_c, 1, 57, 52
3, 49919, Note_on_c, 1, 61, 0
3, 49939, Note_on_c, 1, 54, 0
3, 49946, Note_on_c, 1, 42, 0
3, 49965, Note_on_c, 1, 57, 0
3, 50005, Note_on_c, 1, 55, 69
3, 50007, Note_on_c, 1, 52, 60
3, 50007, Note_on_c, 1, 64, 80
3, 50007, Note_on_c, 1, 60, 127
3, 50009, Note_on_c, 1, 45, 60
3, 50590, Note_on_c, 1, 52, 0
3, 50637, Note_on_c, 1, 64, 0
3, 50639, Note_on_c, 1, 60, 0
3, 50643, Note_on_c, 1, 55, 0
3, 50645, Note_on_c, 1, 45, 0
3, 50719, Note_on_c, 1, 61, 88
3, 50719, Note_on_c, 1, 57, 64
3, 50721, Note_on_c, 1, 42, 69
3, 50721, Note_on_c, 1, 54, 60
3, 51087, Note_on_c, 1, 42, 0
3, 51164, Note_on_c, 1, 54, 0
3, 51165, Note_on_c, 1, 42, 88
3, 51207, Note_on_c, 1, 57, 0
3, 51256, Note_on_c, 1, 54, 60
3, 51345, Note_on_c, 1, 57, 52
3, 51349, Note_on_c, 1, 61, 0
3, 51367, Note_on_c, 1, 54, 0
3, 51373, Note_on_c, 1, 42, 0
3, 51392, Note_on_c, 1, 57, 0
3, 51433, Note_on_c, 1, 60, 127
3, 51433, Note_on_c, 1, 55, 69
3, 51435, Note_on_c, 1, 45, 60
3, 51435, Note_on_c, 1, 52, 60
3, 51435, Note_on_c, 1, 64, 80
3, 52017, Note_on_c, 1, 52, 0
3, 52069, Note_on_c, 1, 60, 0
3, 52069, Note_on_c, 1, 64, 0
3, 52073, Note_on_c, 1, 45, 0
3, 52073, Note_on_c, 1, 55, 0
3, 52149, Note_on_c, 1, 54, 60
3, 52149, Note_on_c, 1, 61, 88
3, 52149, Note_on_c, 1, 57, 64
3, 52151, Note_on_c, 1, 42, 69
3, 52518, Note_on_c, 1, 42, 0
3, 52591, Note_on_c, 1, 54, 0
3, 52595, Note_on_c, 1, 42, 88
3, 52635, Note_on_c, 1, 57, 0
3, 52685, Note_on_c, 1, 54, 60
3, 52773, Note_on_c, 1, 57, 52
3, 52777, Note_on_c, 1, 61, 0
3, 52793, Note_on_c, 1, 54, 0
3, 52801, Note_on_c, 1, 42, 0
3, 52819, Note_on_c, 1, 57, 0
3, 52863, Note_on_c, 1, 55, 69
3, 52863, Note_on_c, 1, 50, 69
3, 52863, Note_on_c, 1, 43, 71
3, 52865, Note_on_c, 1, 62, 88
3, 52865, Note_on_c, 1, 59, 80
3, 53101, Note_on_c, 1, 43, 0
3, 53141, Note_on_c, 1, 50, 0
3, 53145, Note_on_c, 1, 55, 0
3, 53159, Note_on_c, 1, 59, 0
3, 53163, Note_on_c, 1, 62, 0
3, 53219, Note_on_c, 1, 43, 52
3, 53221, Note_on_c, 1, 52, 49
3, 53221, Note_on_c, 1, 64, 80
3, 53221, Note_on_c, 1, 61, 88
3, 53221, Note_on_c, 1, 57, 80
3, 53221, Note_on_c, 1, 45, 60
3, 53233, Note_on_c, 1, 43, 0
3, 53437, Note_on_c, 1, 61, 0
3, 53505, Note_on_c, 1, 64, 0
3, 53511, Note_on_c, 1, 52, 0
3, 53517, Note_on_c, 1, 57, 0
3, 53523, Note_on_c, 1, 45, 0
3, 53577, Note_on_c, 1, 54, 88
3, 53579, Note_on_c, 1, 57, 88
3, 53579, Note_on_c, 1, 62, 71
3, 54139, Note_on_c, 1, 54, 0
3, 54181, Note_on_c, 1, 57, 0
3, 54224, Note_on_c, 1, 62, 0
3, 54291, Note_on_c, 1, 59, 88
3, 54291, Note_on_c, 1, 43, 80
3, 54293, Note_on_c, 1, 55, 80
3, 54293, Note_on_c, 1, 62, 71
3, 54551, Note_on_c, 1, 43, 0
3, 54581, Note_on_c, 1, 55, 0
3, 54585, Note_on_c, 1, 59, 0
3, 54595, Note_on_c, 1, 62, 0
3, 54649, Note_on_c, 1, 64, 80
3, 54649, Note_on_c, 1, 61, 88
3, 54649, Note_on_c, 1, 52, 56
3, 54649, Note_on_c, 1, 57, 69
3, 54649, Note_on_c, 1, 45, 64
3, 54893, Note_on_c, 1, 61, 0
3, 54913, Note_on_c, 1, 64, 0
3, 54925, Note_on_c, 1, 57, 0
3, 54931, Note_on_c, 1, 52, 0
3, 54937, Note_on_c, 1, 45, 0
3, 55005, Note_on_c, 1, 54, 88
3, 55007, Note_on_c, 1, 57, 88
3, 55007, Note_on_c, 1, 62, 71
3, 55568, Note_on_c, 1, 54, 0
3, 55609, Note_on_c, 1, 57, 0
3, 55654, Note_on_c, 1, 62, 0
3, 55719, Note_on_c, 1, 57, 88
3, 55721, Note_on_c, 1, 60, 127
3, 55721, Note_on_c, 1, 53, 88
3, 55723, Note_on_c, 1, 41, 88
3, 55983, Note_on_c, 1, 41, 0
3, 55995, Note_on_c, 1, 53, 0
3, 56003, Note_on_c, 1, 57, 0
3, 56005, Note_on_c, 1, 60, 0
3, 56077, Note_on_c, 1, 48, 80
3, 56077, Note_on_c, 1, 60, 88
3, 56077, Note_on_c, 1, 64, 99
3, 56325, Note_on_c, 1, 64, 0
3, 56363, Note_on_c, 1, 48, 0
3, 56385, Note_on_c, 1, 60, 0
3, 56435, Note_on_c, 1, 45, 69
3, 56435, Note_on_c, 1, 57, 69
3, 56437, Note_on_c, 1, 66, 71
3, 56437, Note_on_c, 1, 62, 113
3, 56995, Note_on_c, 1, 57, 0
3, 56997, Note_on_c, 1, 62, 0
3, 56999, Note_on_c, 1, 66, 0
3, 57001, Note_on_c, 1, 45, 0
3, 57149, Note_on_c, 1, 53, 88
3, 57149, Note_on_c, 1, 57, 88
3, 57151, Note_on_c, 1, 41, 88
3, 57151, Note_on_c, 1, 60, 127
3, 57413, Note_on_c, 1, 41, 0
3, 57425, Note_on_c, 1, 53, 0
3, 57431, Note_on_c, 1, 57, 0
3, 57435, Note_on_c, 1, 60, 0
3, 57505, Note_on_c, 1, 64, 99
3, 57507, Note_on_c, 1, 48, 80
3, 57507, Note_on_c, 1, 60, 88
3, 57753, Note_on_c, 1, 64, 0
3, 57794, Note_on_c, 1, 48, 0
3, 57817, Note_on_c, 1, 60, 0
3, 57863, Note_on_c, 1, 57, 69
3, 57865, Note_on_c, 1, 45, 69
3, 57867, Note_on_c, 1, 66, 71
3, 57867, Note_on_c, 1, 62, 113
3, 58425, Note_on_c, 1, 57, 0
3, 58429, Note_on_c, 1, 66, 0
3, 58431, Note_on_c, 1, 45, 0
3, 58431, Note_on_c, 1, 62, 0
3, 58577, Note_on_c, 1, 57, 88
3, 58579, Note_on_c, 1, 41, 88
3, 58579, Note_on_c, 1, 60, 127
3, 58579, Note_on_c, 1, 53, 88
3, 58839, Note_on_c, 1, 41, 0
3, 58853, Note_on_c, 1, 53, 0
3, 58857, Note_on_c, 1, 57, 0
3, 58863, Note_on_c, 1, 60, 0
3, 58933, Note_on_c, 1, 60, 88
3, 58933, Note_on_c, 1, 64, 99
3, 58935, Note_on_c, 1, 48, 80
3, 59181, Note_on_c, 1, 64, 0
3, 59223, Note_on_c, 1, 48, 0
3, 59245, Note_on_c, 1, 60, 0
3, 59291, Note_on_c, 1, 66, 71
3, 59291, Note_on_c, 1, 62, 113
3, 59291, Note_on_c, 1, 45, 69
3, 59291, Note_on_c, 1, 57, 69
3, 59849, Note_on_c, 1, 57, 0
3, 59855, Note_on_c, 1, 66, 0
3, 59855, Note_on_c, 1, 62, 0
3, 59855, Note_on_c, 1, 45, 0
3, 60005, Note_on_c, 1, 57, 88
3, 60007, Note_on_c, 1, 41, 88
3, 60007, Note_on_c, 1, 60, 127
3, 60007, Note_on_c, 1, 53, 88
3, 60267, Note_on_c, 1, 41, 0
3, 60281, Note_on_c, 1, 53, 0
3, 60287, Note_on_c, 1, 57, 0
3, 60291, Note_on_c, 1, 60, 0
3, 60361, Note_on_c, 1, 48, 80
3, 60361, Note_on_c, 1, 60, 88
3, 60361, Note_on_c, 1, 64, 99
3, 60611, Note_on_c, 1, 64, 0
3, 60651, Note_on_c, 1, 48, 0
3, 60673, Note_on_c, 1, 60, 0
3, 60721, Note_on_c, 1, 62, 127
3, 60721, Note_on_c, 1, 54, 99
3, 60721, Note_on_c, 1, 38, 113
3, 60721, Note_on_c, 1, 57, 99
3, 61963, Note_on_c, 1, 57, 0
3, 61963, Note_on_c, 1, 54, 0
3, 61965, Note_on_c, 1, 38, 0
3, 61969, Note_on_c, 1, 62, 0
3, 62149, Note_on_c, 1, 55, 80
3, 62149, Note_on_c, 1, 59, 88
3, 62151, Note_on_c, 1, 43, 88
3, 62151, Note_on_c, 1, 62, 99
3, 62393, Note_on_c, 1, 43, 0
3, 62413, Note_on_c, 1, 55, 0
3, 62423, Note_on_c, 1, 59, 0
3, 62435, Note_on_c, 1, 62, 0
3, 62505, Note_on_c, 1, 57, 60
3, 62507, Note_on_c, 1, 50, 80
3, 62507, Note_on_c, 1, 62, 69
3, 62507, Note_on_c, 1, 66, 71
3, 62507, Note_on_c, 1, 69, 69
3, 62778, Note_on_c, 1, 69, 0
3, 62780, Note_on_c, 1, 57, 0
3, 62785, Note_on_c, 1, 66, 0
3, 62793, Note_on_c, 1, 62, 0
3, 62811, Note_on_c, 1, 50, 0
3, 62863, Note_on_c, 1, 60, 88
3, 62865, Note_on_c, 1, 53, 80
3, 62865, Note_on_c, 1, 57, 88
3, 63143, Note_on_c, 1, 60, 0
3, 63147, Note_on_c, 1, 57, 0
3, 63149, Note_on_c, 1, 53, 0
3, 63222, Note_on_c, 1, 46, 127
3, 63222, Note_on_c, 1, 62, 113
3, 63222, Note_on_c, 1, 53, 80
3, 63222, Note_on_c, 1, 58, 80
3, 63477, Note_on_c, 1, 46, 0
3, 63490, Note_on_c, 1, 53, 0
3, 63503, Note_on_c, 1, 58, 0
3, 63517, Note_on_c, 1, 62, 0
3, 63578, Note_on_c, 1, 65, 80
3, 63579, Note_on_c, 1, 58, 80
3, 63579, Note_on_c, 1, 67, 71
3, 63579, Note_on_c, 1, 55, 71
3, 63581, Note_on_c, 1, 63, 113
3, 63581, Note_on_c, 1, 51, 80
3, 63611, Note_on_c, 1, 65, 0
3, 63805, Note_on_c, 1, 67, 0
3, 63837, Note_on_c, 1, 63, 0
3, 63843, Note_on_c, 1, 58, 0
3, 63857, Note_on_c, 1, 55, 0
3, 63879, Note_on_c, 1, 51, 0
3, 63935, Note_on_c, 1, 51, 80
3, 63935, Note_on_c, 1, 44, 99
3, 63937, Note_on_c, 1, 60, 80
3, 63937, Note_on_c, 1, 56, 80
3, 64153, Note_on_c, 1, 44, 0
3, 64175, Note_on_c, 1, 51, 0
3, 64203, Note_on_c, 1, 56, 0
3, 64213, Note_on_c, 1, 60, 0
3, 64291, Note_on_c, 1, 61, 113
3, 64291, Note_on_c, 1, 57, 71
3, 64293, Note_on_c, 1, 45, 88
3, 64293, Note_on_c, 1, 52, 88
3, 65016, Note_on_c, 1, 57, 0
3, 65028, Note_on_c, 1, 61, 0
3, 65049, Note_on_c, 1, 57, 43
3, 65084, Note_on_c, 1, 45, 0
3, 65089, Note_on_c, 1, 57, 0
3, 65093, Note_on_c, 1, 45, 56
3, 65134, Note_on_c, 1, 45, 0
3, 65135, Note_on_c, 1, 52, 0
3, 65137, Note_on_c, 1, 45, 52
3, 65139, Note_on_c, 1, 57, 43
3, 65178, Note_on_c, 1, 57, 0
3, 65183, Note_on_c, 1, 52, 29
3, 65185, Note_on_c, 1, 45, 0
3, 65228, Note_on_c, 1, 57, 40
3, 65228, Note_on_c, 1, 45, 22
3, 65267, Note_on_c, 1, 57, 0
3, 65271, Note_on_c, 1, 57, 32
3, 65307, Note_on_c, 1, 57, 0
3, 65313, Note_on_c, 1, 45, 0
3, 65319, Note_on_c, 1, 52, 0
3, 65319, Note_on_c, 1, 52, 28
3, 65319, Note_on_c, 1, 45, 52
3, 65322, Note_on_c, 1, 52, 0
3, 65355, Note_on_c, 1, 45, 0
3, 65364, Note_on_c, 1, 57, 40
3, 65364, Note_on_c, 1, 45, 64
3, 65395, Note_on_c, 1, 57, 0
3, 65403, Note_on_c, 1, 45, 0
3, 65407, Note_on_c, 1, 52, 40
3, 65445, Note_on_c, 1, 52, 0
3, 65453, Note_on_c, 1, 57, 46
3, 65453, Note_on_c, 1, 45, 60
3, 65453, Note_on_c, 1, 52, 46
3, 65483, Note_on_c, 1, 57, 0
3, 65485, Note_on_c, 1, 52, 0
3, 65491, Note_on_c, 1, 45, 0
3, 65497, Note_on_c, 1, 57, 52
3, 65497, Note_on_c, 1, 45, 32
3, 65497, Note_on_c, 1, 52, 22
3, 65531, Note_on_c, 1, 57, 0
3, 65541, Note_on_c, 1, 57, 43
3, 65631, Note_on_c, 1, 45, 0
3, 65647, Note_on_c, 1, 57, 0
3, 65649, Note_on_c, 1, 52, 0
3, 65721, Note_on_c, 1, 45, 99
3, 65721, Note_on_c, 1, 49, 99
3, 67341, Note_on_c, 1, 49, 0
3, 67347, Note_on_c, 1, 45, 0
3, 67347, End_track
4, 0, Start_track
4, 0, MIDI_port, 0
4, 0, Title_t, "REMIXED             "
4, 0, Program_c, 2, 17
4, 719, Note_on_c, 2, 83, 88
4, 719, Control_c, 2, 7, 90
4, 719, Control_c, 2, 93, 100
4, 722, Note_on_c, 2, 71, 88
4, 805, Note_on_c, 2, 79, 71
4, 807, Note_on_c, 2, 67, 71
4, 815, Note_on_c, 2, 71, 0
4, 817, Note_on_c, 2, 83, 0
4, 849, Note_on_c, 2, 69, 60
4, 849, Note_on_c, 2, 81, 60
4, 869, Note_on_c, 2, 67, 0
4, 871, Note_on_c, 2, 79, 0
4, 895, Note_on_c, 2, 83, 43
4, 897, Note_on_c, 2, 71, 43
4, 953, Note_on_c, 2, 69, 0
4, 953, Note_on_c, 2, 81, 0
4, 969, Note_on_c, 2, 83, 0
4, 969, Note_on_c, 2, 71, 0
4, 983, Note_on_c, 2, 86, 69
4, 985, Note_on_c, 2, 74, 69
4, 1077, Note_on_c, 2, 72, 56
4, 1077, Note_on_c, 2, 84, 56
4, 1093, Note_on_c, 2, 74, 0
4, 1093, Note_on_c, 2, 86, 0
4, 1161, Note_on_c, 2, 83, 56
4, 1163, Note_on_c, 2, 71, 56
4, 1165, Note_on_c, 2, 72, 0
4, 1165, Note_on_c, 2, 84, 0
4, 1254, Note_on_c, 2, 69, 60
4, 1254, Note_on_c, 2, 81, 60
4, 1280, Note_on_c, 2, 83, 0
4, 1280, Note_on_c, 2, 71, 0
4, 1343, Note_on_c, 2, 69, 0
4, 1343, Note_on_c, 2, 81, 0
4, 1343, Note_on_c, 2, 67, 71
4, 1343, Note_on_c, 2, 79, 71
4, 1403, Note_on_c, 2, 79, 0
4, 1403, Note_on_c, 2, 67, 0
4, 1431, Note_on_c, 2, 69, 80
4, 1431, Note_on_c, 2, 81, 80
4, 1521, Note_on_c, 2, 65, 69
4, 1521, Note_on_c, 2, 77, 69
4, 1531, Note_on_c, 2, 81, 0
4, 1531, Note_on_c, 2, 69, 0
4, 1565, Note_on_c, 2, 67, 64
4, 1565, Note_on_c, 2, 79, 64
4, 1583, Note_on_c, 2, 65, 0
4, 1583, Note_on_c, 2, 77, 0
4, 1611, Note_on_c, 2, 69, 64
4, 1611, Note_on_c, 2, 81, 64
4, 1619, Note_on_c, 2, 67, 0
4, 1620, Note_on_c, 2, 79, 0
4, 1699, Note_on_c, 2, 77, 69
4, 1699, Note_on_c, 2, 89, 69
4, 1703, Note_on_c, 2, 69, 0
4, 1703, Note_on_c, 2, 81, 0
4, 1763, Note_on_c, 2, 77, 0
4, 1765, Note_on_c, 2, 89, 0
4, 1789, Note_on_c, 2, 74, 36
4, 1789, Note_on_c, 2, 86, 36
4, 1831, Note_on_c, 2, 72, 71
4, 1831, Note_on_c, 2, 84, 71
4, 1869, Note_on_c, 2, 86, 0
4, 1869, Note_on_c, 2, 74, 0
4, 1877, Note_on_c, 2, 70, 80
4, 1877, Note_on_c, 2, 82, 80
4, 1889, Note_on_c, 2, 72, 0
4, 1889, Note_on_c, 2, 84, 0
4, 1917, Note_on_c, 2, 70, 0
4, 1919, Note_on_c, 2, 82, 0
4, 1921, Note_on_c, 2, 67, 64
4, 1921, Note_on_c, 2, 79, 64
4, 1967, Note_on_c, 2, 80, 88
4, 1969, Note_on_c, 2, 68, 88
4, 1974, Note_on_c, 2, 67, 0
4, 1975, Note_on_c, 2, 79, 0
4, 2053, Note_on_c, 2, 80, 0
4, 2053, Note_on_c, 2, 68, 0
4, 2057, Note_on_c, 2, 67, 69
4, 2057, Note_on_c, 2, 79, 69
4, 2117, Note_on_c, 2, 67, 0
4, 2119, Note_on_c, 2, 79, 0
4, 2149, Note_on_c, 2, 80, 99
4, 2152, Note_on_c, 2, 68, 99
4, 2223, Note_on_c, 2, 80, 0
4, 2225, Note_on_c, 2, 68, 0
4, 2233, Note_on_c, 2, 79, 69
4, 2235, Note_on_c, 2, 67, 69
4, 2275, Note_on_c, 2, 67, 0
4, 2275, Note_on_c, 2, 79, 0
4, 2277, Note_on_c, 2, 80, 88
4, 2279, Note_on_c, 2, 68, 88
4, 2323, Note_on_c, 2, 82, 71
4, 2325, Note_on_c, 2, 68, 0
4, 2325, Note_on_c, 2, 80, 0
4, 2325, Note_on_c, 2, 70, 71
4, 2395, Note_on_c, 2, 70, 0
4, 2397, Note_on_c, 2, 82, 0
4, 2413, Note_on_c, 2, 72, 69
4, 2413, Note_on_c, 2, 84, 69
4, 2505, Note_on_c, 2, 70, 80
4, 2505, Note_on_c, 2, 82, 80
4, 2521, Note_on_c, 2, 84, 0
4, 2521, Note_on_c, 2, 72, 0
4, 2548, Note_on_c, 2, 68, 88
4, 2548, Note_on_c, 2, 80, 88
4, 2570, Note_on_c, 2, 70, 0
4, 2571, Note_on_c, 2, 82, 0
4, 2591, Note_on_c, 2, 79, 80
4, 2593, Note_on_c, 2, 67, 80
4, 2595, Note_on_c, 2, 68, 0
4, 2598, Note_on_c, 2, 80, 0
4, 2636, Note_on_c, 2, 77, 71
4, 2638, Note_on_c, 2, 65, 71
4, 2649, Note_on_c, 2, 79, 0
4, 2649, Note_on_c, 2, 67, 0
4, 2670, Note_on_c, 2, 77, 0
4, 2670, Note_on_c, 2, 65, 0
4, 2682, Note_on_c, 2, 63, 113
4, 2682, Note_on_c, 2, 75, 113
4, 2757, Note_on_c, 2, 63, 0
4, 2760, Note_on_c, 2, 75, 0
4, 2771, Note_on_c, 2, 65, 64
4, 2771, Note_on_c, 2, 77, 64
4, 2833, Note_on_c, 2, 77, 0
4, 2833, Note_on_c, 2, 65, 0
4, 2861, Note_on_c, 2, 69, 88
4, 2861, Note_on_c, 2, 81, 88
4, 3039, Note_on_c, 2, 61, 127
4, 3039, Note_on_c, 2, 73, 127
4, 3217, Note_on_c, 2, 64, 88
4, 3217, Note_on_c, 2, 76, 88
4, 3219, Note_on_c, 2, 73, 0
4, 3219, Note_on_c, 2, 61, 0
4, 3395, Note_on_c, 2, 61, 127
4, 3395, Note_on_c, 2, 73, 127
4, 3404, Note_on_c, 2, 64, 0
4, 3404, Note_on_c, 2, 76, 0
4, 3481, Note_on_c, 2, 61, 0
4, 3481, Note_on_c, 2, 73, 0
4, 3485, Note_on_c, 2, 64, 99
4, 3485, Note_on_c, 2, 76, 99
4, 3579, Note_on_c, 2, 76, 0
4, 3579, Note_on_c, 2, 64, 0
4, 3753, Note_on_c, 2, 61, 127
4, 3753, Note_on_c, 2, 73, 127
4, 3842, Note_on_c, 2, 73, 0
4, 3842, Note_on_c, 2, 61, 0
4, 3935, Note_on_c, 2, 61, 127
4, 3935, Note_on_c, 2, 73, 127
4, 4017, Note_on_c, 2, 73, 0
4, 4017, Note_on_c, 2, 61, 0
4, 4023, Note_on_c, 2, 64, 99
4, 4023, Note_on_c, 2, 76, 99
4, 4111, Note_on_c, 2, 76, 0
4, 4111, Note_on_c, 2, 64, 0
4, 4201, Note_on_c, 2, 64, 88
4, 4201, Note_on_c, 2, 76, 88
4, 4237, Note_on_c, 2, 69, 0
4, 4239, Note_on_c, 2, 81, 0
4, 4245, Note_on_c, 2, 64, 0
4, 4247, Note_on_c, 2, 76, 0
4, 4291, Note_on_c, 2, 69, 80
4, 4291, Note_on_c, 2, 72, 80
4, 4291, Note_on_c, 2, 76, 71
4, 4291, Note_on_c, 2, 67, 99
4, 4311, Note_on_c, 2, 72, 0
4, 4313, Note_on_c, 2, 69, 0
4, 4313, Note_on_c, 2, 67, 0
4, 4317, Note_on_c, 2, 76, 0
4, 4467, Note_on_c, 2, 69, 71
4, 4467, Note_on_c, 2, 76, 80
4, 4467, Note_on_c, 2, 67, 99
4, 4469, Note_on_c, 2, 72, 80
4, 4485, Note_on_c, 2, 72, 0
4, 4489, Note_on_c, 2, 69, 0
4, 4493, Note_on_c, 2, 67, 0
4, 4497, Note_on_c, 2, 76, 0
4, 4733, Note_on_c, 2, 76, 71
4, 4733, Note_on_c, 2, 67, 99
4, 4735, Note_on_c, 2, 72, 71
4, 4735, Note_on_c, 2, 69, 80
4, 4751, Note_on_c, 2, 72, 0
4, 4755, Note_on_c, 2, 67, 0
4, 4757, Note_on_c, 2, 69, 0
4, 4759, Note_on_c, 2, 76, 0
4, 4823, Note_on_c, 2, 67, 99
4, 4825, Note_on_c, 2, 69, 69
4, 4825, Note_on_c, 2, 72, 88
4, 4825, Note_on_c, 2, 76, 71
4, 4837, Note_on_c, 2, 69, 0
4, 4844, Note_on_c, 2, 72, 0
4, 4845, Note_on_c, 2, 67, 0
4, 4851, Note_on_c, 2, 76, 0
4, 4913, Note_on_c, 2, 69, 56
4, 4915, Note_on_c, 2, 78, 99
4, 4915, Note_on_c, 2, 73, 99
4, 5107, Note_on_c, 2, 69, 0
4, 5109, Note_on_c, 2, 78, 0
4, 5113, Note_on_c, 2, 73, 0
4, 5180, Note_on_c, 2, 78, 99
4, 5181, Note_on_c, 2, 69, 80
4, 5181, Note_on_c, 2, 73, 99
4, 5199, Note_on_c, 2, 73, 0
4, 5199, Note_on_c, 2, 69, 0
4, 5201, Note_on_c, 2, 78, 0
4, 5541, Note_on_c, 2, 69, 64
4, 5541, Note_on_c, 2, 73, 99
4, 5541, Note_on_c, 2, 78, 99
4, 5557, Note_on_c, 2, 73, 0
4, 5559, Note_on_c, 2, 78, 0
4, 5561, Note_on_c, 2, 69, 0
4, 5629, Note_on_c, 2, 76, 71
4, 5629, Note_on_c, 2, 72, 80
4, 5629, Note_on_c, 2, 67, 99
4, 5632, Note_on_c, 2, 69, 69
4, 5834, Note_on_c, 2, 67, 0
4, 5845, Note_on_c, 2, 69, 0
4, 5847, Note_on_c, 2, 72, 0
4, 5847, Note_on_c, 2, 76, 0
4, 5895, Note_on_c, 2, 67, 113
4, 5897, Note_on_c, 2, 69, 71
4, 5897, Note_on_c, 2, 72, 88
4, 5897, Note_on_c, 2, 76, 80
4, 5915, Note_on_c, 2, 69, 0
4, 5919, Note_on_c, 2, 67, 0
4, 5919, Note_on_c, 2, 72, 0
4, 5925, Note_on_c, 2, 76, 0
4, 6163, Note_on_c, 2, 72, 80
4, 6163, Note_on_c, 2, 69, 80
4, 6163, Note_on_c, 2, 76, 71
4, 6185, Note_on_c, 2, 72, 0
4, 6187, Note_on_c, 2, 69, 0
4, 6193, Note_on_c, 2, 76, 0
4, 6253, Note_on_c, 2, 72, 80
4, 6253, Note_on_c, 2, 69, 71
4, 6253, Note_on_c, 2, 76, 69
4, 6269, Note_on_c, 2, 72, 0
4, 6275, Note_on_c, 2, 69, 0
4, 6281, Note_on_c, 2, 76, 0
4, 6344, Note_on_c, 2, 69, 60
4, 6344, Note_on_c, 2, 78, 99
4, 6344, Note_on_c, 2, 73, 99
4, 6548, Note_on_c, 2, 69, 0
4, 6553, Note_on_c, 2, 73, 0
4, 6555, Note_on_c, 2, 78, 0
4, 6609, Note_on_c, 2, 73, 113
4, 6609, Note_on_c, 2, 78, 99
4, 6611, Note_on_c, 2, 69, 80
4, 6627, Note_on_c, 2, 73, 0
4, 6631, Note_on_c, 2, 69, 0
4, 6635, Note_on_c, 2, 78, 0
4, 6877, Note_on_c, 2, 69, 71
4, 6877, Note_on_c, 2, 73, 99
4, 6877, Note_on_c, 2, 78, 99
4, 6891, Note_on_c, 2, 73, 0
4, 6891, Note_on_c, 2, 69, 0
4, 6897, Note_on_c, 2, 78, 0
4, 6969, Note_on_c, 2, 69, 60
4, 6969, Note_on_c, 2, 73, 113
4, 6969, Note_on_c, 2, 78, 99
4, 6983, Note_on_c, 2, 73, 0
4, 6985, Note_on_c, 2, 69, 0
4, 6989, Note_on_c, 2, 78, 0
4, 7057, Note_on_c, 2, 67, 99
4, 7059, Note_on_c, 2, 72, 80
4, 7059, Note_on_c, 2, 69, 71
4, 7059, Note_on_c, 2, 76, 71
4, 7264, Note_on_c, 2, 67, 0
4, 7285, Note_on_c, 2, 76, 0
4, 7285, Note_on_c, 2, 69, 0
4, 7291, Note_on_c, 2, 72, 0
4, 7323, Note_on_c, 2, 76, 88
4, 7323, Note_on_c, 2, 67, 71
4, 7325, Note_on_c, 2, 72, 88
4, 7325, Note_on_c, 2, 69, 80
4, 7345, Note_on_c, 2, 67, 0
4, 7347, Note_on_c, 2, 69, 0
4, 7347, Note_on_c, 2, 72, 0
4, 7353, Note_on_c, 2, 76, 0
4, 7592, Note_on_c, 2, 76, 80
4, 7593, Note_on_c, 2, 69, 80
4, 7593, Note_on_c, 2, 72, 99
4, 7613, Note_on_c, 2, 69, 0
4, 7615, Note_on_c, 2, 72, 0
4, 7627, Note_on_c, 2, 76, 0
4, 7769, Note_on_c, 2, 73, 99
4, 7769, Note_on_c, 2, 78, 99
4, 7771, Note_on_c, 2, 69, 71
4, 7983, Note_on_c, 2, 69, 0
4, 7983, Note_on_c, 2, 73, 0
4, 7987, Note_on_c, 2, 78, 0
4, 8037, Note_on_c, 2, 78, 99
4, 8039, Note_on_c, 2, 69, 69
4, 8039, Note_on_c, 2, 73, 88
4, 8056, Note_on_c, 2, 69, 0
4, 8057, Note_on_c, 2, 73, 0
4, 8063, Note_on_c, 2, 78, 0
4, 8305, Note_on_c, 2, 73, 99
4, 8307, Note_on_c, 2, 69, 69
4, 8307, Note_on_c, 2, 78, 88
4, 8325, Note_on_c, 2, 78, 0
4, 8325, Note_on_c, 2, 69, 0
4, 8325, Note_on_c, 2, 73, 0
4, 8400, Note_on_c, 2, 69, 80
4, 8400, Note_on_c, 2, 73, 127
4, 8400, Note_on_c, 2, 78, 113
4, 8416, Note_on_c, 2, 73, 0
4, 8416, Note_on_c, 2, 69, 0
4, 8421, Note_on_c, 2, 78, 0
4, 8487, Note_on_c, 2, 69, 88
4, 8487, Note_on_c, 2, 72, 88
4, 8487, Note_on_c, 2, 76, 80
4, 8487, Note_on_c, 2, 67, 99
4, 8686, Note_on_c, 2, 67, 0
4, 8695, Note_on_c, 2, 69, 0
4, 8703, Note_on_c, 2, 76, 0
4, 8707, Note_on_c, 2, 72, 0
4, 8751, Note_on_c, 2, 76, 88
4, 8751, Note_on_c, 2, 67, 88
4, 8753, Note_on_c, 2, 72, 99
4, 8753, Note_on_c, 2, 69, 71
4, 8775, Note_on_c, 2, 72, 0
4, 8777, Note_on_c, 2, 69, 0
4, 8777, Note_on_c, 2, 67, 0
4, 8785, Note_on_c, 2, 76, 0
4, 9019, Note_on_c, 2, 76, 80
4, 9021, Note_on_c, 2, 69, 88
4, 9021, Note_on_c, 2, 72, 80
4, 9039, Note_on_c, 2, 72, 0
4, 9041, Note_on_c, 2, 69, 0
4, 9053, Note_on_c, 2, 76, 0
4, 9111, Note_on_c, 2, 69, 69
4, 9111, Note_on_c, 2, 72, 88
4, 9111, Note_on_c, 2, 76, 71
4, 9131, Note_on_c, 2, 69, 0
4, 9135, Note_on_c, 2, 72, 0
4, 9139, Note_on_c, 2, 76, 0
4, 9197, Note_on_c, 2, 69, 56
4, 9200, Note_on_c, 2, 78, 80
4, 9200, Note_on_c, 2, 73, 80
4, 9415, Note_on_c, 2, 78, 0
4, 9415, Note_on_c, 2, 69, 0
4, 9417, Note_on_c, 2, 73, 0
4, 9468, Note_on_c, 2, 78, 99
4, 9468, Note_on_c, 2, 73, 99
4, 9469, Note_on_c, 2, 69, 64
4, 9490, Note_on_c, 2, 78, 0
4, 9492, Note_on_c, 2, 69, 0
4, 9492, Note_on_c, 2, 73, 0
4, 9735, Note_on_c, 2, 73, 99
4, 9735, Note_on_c, 2, 78, 88
4, 9737, Note_on_c, 2, 69, 64
4, 9752, Note_on_c, 2, 73, 0
4, 9755, Note_on_c, 2, 69, 0
4, 9757, Note_on_c, 2, 78, 0
4, 9823, Note_on_c, 2, 78, 113
4, 9825, Note_on_c, 2, 69, 71
4, 9825, Note_on_c, 2, 73, 113
4, 9848, Note_on_c, 2, 73, 0
4, 9849, Note_on_c, 2, 69, 0
4, 9849, Note_on_c, 2, 78, 0
4, 10007, Note_on_c, 2, 79, 80
4, 10007, Note_on_c, 2, 74, 80
4, 10007, Note_on_c, 2, 71, 69
4, 10144, Note_on_c, 2, 71, 0
4, 10147, Note_on_c, 2, 74, 0
4, 10149, Note_on_c, 2, 79, 0
4, 10181, Note_on_c, 2, 71, 69
4, 10184, Note_on_c, 2, 74, 88
4, 10184, Note_on_c, 2, 79, 71
4, 10293, Note_on_c, 2, 71, 0
4, 10310, Note_on_c, 2, 74, 0
4, 10311, Note_on_c, 2, 79, 0
4, 10366, Note_on_c, 2, 76, 88
4, 10366, Note_on_c, 2, 73, 88
4, 10366, Note_on_c, 2, 81, 69
4, 10495, Note_on_c, 2, 73, 0
4, 10497, Note_on_c, 2, 76, 0
4, 10501, Note_on_c, 2, 81, 0
4, 10539, Note_on_c, 2, 81, 64
4, 10539, Note_on_c, 2, 73, 88
4, 10541, Note_on_c, 2, 76, 88
4, 10637, Note_on_c, 2, 76, 0
4, 10643, Note_on_c, 2, 73, 0
4, 10657, Note_on_c, 2, 81, 0
4, 10719, Note_on_c, 2, 74, 69
4, 10721, Note_on_c, 2, 78, 71
4, 10721, Note_on_c, 2, 69, 52
4, 10902, Note_on_c, 2, 69, 0
4, 10904, Note_on_c, 2, 74, 0
4, 10920, Note_on_c, 2, 78, 0
4, 10985, Note_on_c, 2, 79, 113
4, 11164, Note_on_c, 2, 78, 99
4, 11165, Note_on_c, 2, 79, 0
4, 11200, Note_on_c, 2, 78, 0
4, 11207, Note_on_c, 2, 76, 88
4, 11253, Note_on_c, 2, 74, 99
4, 11286, Note_on_c, 2, 76, 0
4, 11333, Note_on_c, 2, 74, 0
4, 11341, Note_on_c, 2, 69, 80
4, 11429, Note_on_c, 2, 69, 0
4, 11435, Note_on_c, 2, 74, 88
4, 11435, Note_on_c, 2, 71, 71
4, 11437, Note_on_c, 2, 79, 80
4, 11561, Note_on_c, 2, 71, 0
4, 11563, Note_on_c, 2, 79, 0
4, 11565, Note_on_c, 2, 74, 0
4, 11611, Note_on_c, 2, 79, 71
4, 11611, Note_on_c, 2, 74, 80
4, 11611, Note_on_c, 2, 71, 69
4, 11727, Note_on_c, 2, 71, 0
4, 11737, Note_on_c, 2, 74, 0
4, 11739, Note_on_c, 2, 79, 0
4, 11791, Note_on_c, 2, 81, 64
4, 11791, Note_on_c, 2, 73, 80
4, 11791, Note_on_c, 2, 76, 88
4, 11920, Note_on_c, 2, 73, 0
4, 11928, Note_on_c, 2, 76, 0
4, 11933, Note_on_c, 2, 81, 0
4, 11969, Note_on_c, 2, 81, 69
4, 11969, Note_on_c, 2, 76, 80
4, 11969, Note_on_c, 2, 73, 88
4, 12065, Note_on_c, 2, 76, 0
4, 12069, Note_on_c, 2, 73, 0
4, 12091, Note_on_c, 2, 81, 0
4, 12150, Note_on_c, 2, 74, 64
4, 12150, Note_on_c, 2, 78, 64
4, 12150, Note_on_c, 2, 69, 60
4, 12374, Note_on_c, 2, 69, 0
4, 12374, Note_on_c, 2, 74, 0
4, 12377, Note_on_c, 2, 78, 0
4, 12505, Note_on_c, 2, 75, 99
4, 12505, Note_on_c, 2, 71, 69
4, 12505, Note_on_c, 2, 78, 80
4, 12783, Note_on_c, 2, 71, 0
4, 12787, Note_on_c, 2, 75, 0
4, 12789, Note_on_c, 2, 78, 0
4, 12866, Note_on_c, 2, 79, 71
4, 12866, Note_on_c, 2, 74, 88
4, 12866, Note_on_c, 2, 71, 71
4, 13167, Note_on_c, 2, 79, 0
4, 13169, Note_on_c, 2, 74, 0
4, 13171, Note_on_c, 2, 71, 0
4, 13219, Note_on_c, 2, 69, 80
4, 13222, Note_on_c, 2, 74, 88
4, 13222, Note_on_c, 2, 78, 88
4, 13353, Note_on_c, 2, 69, 0
4, 13359, Note_on_c, 2, 78, 0
4, 13361, Note_on_c, 2, 74, 0
4, 13397, Note_on_c, 2, 74, 80
4, 13397, Note_on_c, 2, 69, 80
4, 13399, Note_on_c, 2, 78, 80
4, 13562, Note_on_c, 2, 78, 0
4, 13565, Note_on_c, 2, 74, 0
4, 13567, Note_on_c, 2, 69, 0
4, 13578, Note_on_c, 2, 76, 71
4, 13578, Note_on_c, 2, 71, 80
4, 13578, Note_on_c, 2, 68, 88
4, 14870, Note_on_c, 2, 68, 0
4, 14870, Note_on_c, 2, 71, 0
4, 14881, Note_on_c, 2, 76, 0
4, 15007, Note_on_c, 2, 67, 99
4, 15009, Note_on_c, 2, 69, 80
4, 15009, Note_on_c, 2, 72, 80
4, 15009, Note_on_c, 2, 76, 71
4, 15029, Note_on_c, 2, 72, 0
4, 15029, Note_on_c, 2, 67, 0
4, 15029, Note_on_c, 2, 69, 0
4, 15035, Note_on_c, 2, 76, 0
4, 15184, Note_on_c, 2, 72, 80
4, 15184, Note_on_c, 2, 69, 71
4, 15184, Note_on_c, 2, 76, 80
4, 15184, Note_on_c, 2, 67, 99
4, 15202, Note_on_c, 2, 72, 0
4, 15206, Note_on_c, 2, 69, 0
4, 15207, Note_on_c, 2, 67, 0
4, 15211, Note_on_c, 2, 76, 0
4, 15447, Note_on_c, 2, 67, 99
4, 15449, Note_on_c, 2, 72, 71
4, 15449, Note_on_c, 2, 69, 80
4, 15449, Note_on_c, 2, 76, 71
4, 15464, Note_on_c, 2, 72, 0
4, 15469, Note_on_c, 2, 67, 0
4, 15471, Note_on_c, 2, 69, 0
4, 15471, Note_on_c, 2, 76, 0
4, 15539, Note_on_c, 2, 76, 71
4, 15539, Note_on_c, 2, 67, 99
4, 15541, Note_on_c, 2, 69, 69
4, 15541, Note_on_c, 2, 72, 88
4, 15557, Note_on_c, 2, 69, 0
4, 15561, Note_on_c, 2, 72, 0
4, 15563, Note_on_c, 2, 67, 0
4, 15569, Note_on_c, 2, 76, 0
4, 15629, Note_on_c, 2, 78, 99
4, 15629, Note_on_c, 2, 73, 99
4, 15629, Note_on_c, 2, 69, 56
4, 15821, Note_on_c, 2, 69, 0
4, 15823, Note_on_c, 2, 78, 0
4, 15827, Note_on_c, 2, 73, 0
4, 15895, Note_on_c, 2, 73, 99
4, 15895, Note_on_c, 2, 78, 99
4, 15897, Note_on_c, 2, 69, 80
4, 15915, Note_on_c, 2, 69, 0
4, 15915, Note_on_c, 2, 73, 0
4, 15917, Note_on_c, 2, 78, 0
4, 16255, Note_on_c, 2, 73, 99
4, 16255, Note_on_c, 2, 78, 99
4, 16257, Note_on_c, 2, 69, 64
4, 16273, Note_on_c, 2, 78, 0
4, 16273, Note_on_c, 2, 73, 0
4, 16275, Note_on_c, 2, 69, 0
4, 16343, Note_on_c, 2, 76, 71
4, 16343, Note_on_c, 2, 72, 80
4, 16343, Note_on_c, 2, 67, 99
4, 16346, Note_on_c, 2, 69, 69
4, 16551, Note_on_c, 2, 67, 0
4, 16558, Note_on_c, 2, 69, 0
4, 16561, Note_on_c, 2, 76, 0
4, 16563, Note_on_c, 2, 72, 0
4, 16611, Note_on_c, 2, 69, 71
4, 16611, Note_on_c, 2, 72, 88
4, 16611, Note_on_c, 2, 76, 80
4, 16611, Note_on_c, 2, 67, 113
4, 16629, Note_on_c, 2, 67, 0
4, 16629, Note_on_c, 2, 69, 0
4, 16631, Note_on_c, 2, 72, 0
4, 16639, Note_on_c, 2, 76, 0
4, 16877, Note_on_c, 2, 69, 80
4, 16877, Note_on_c, 2, 76, 71
4, 16879, Note_on_c, 2, 72, 80
4, 16899, Note_on_c, 2, 72, 0
4, 16903, Note_on_c, 2, 69, 0
4, 16909, Note_on_c, 2, 76, 0
4, 16968, Note_on_c, 2, 69, 71
4, 16968, Note_on_c, 2, 76, 69
4, 16969, Note_on_c, 2, 72, 80
4, 16987, Note_on_c, 2, 72, 0
4, 16992, Note_on_c, 2, 69, 0
4, 16997, Note_on_c, 2, 76, 0
4, 17057, Note_on_c, 2, 69, 60
4, 17057, Note_on_c, 2, 78, 99
4, 17057, Note_on_c, 2, 73, 99
4, 17261, Note_on_c, 2, 69, 0
4, 17267, Note_on_c, 2, 73, 0
4, 17267, Note_on_c, 2, 78, 0
4, 17324, Note_on_c, 2, 73, 113
4, 17324, Note_on_c, 2, 78, 99
4, 17326, Note_on_c, 2, 69, 80
4, 17341, Note_on_c, 2, 73, 0
4, 17345, Note_on_c, 2, 69, 0
4, 17349, Note_on_c, 2, 78, 0
4, 17594, Note_on_c, 2, 69, 71
4, 17594, Note_on_c, 2, 73, 99
4, 17594, Note_on_c, 2, 78, 99
4, 17612, Note_on_c, 2, 73, 0
4, 17612, Note_on_c, 2, 69, 0
4, 17614, Note_on_c, 2, 78, 0
4, 17685, Note_on_c, 2, 69, 60
4, 17685, Note_on_c, 2, 73, 113
4, 17685, Note_on_c, 2, 78, 99
4, 17695, Note_on_c, 2, 73, 0
4, 17699, Note_on_c, 2, 69, 0
4, 17703, Note_on_c, 2, 78, 0
4, 17771, Note_on_c, 2, 67, 99
4, 17773, Note_on_c, 2, 72, 80
4, 17773, Note_on_c, 2, 69, 71
4, 17773, Note_on_c, 2, 76, 71
4, 17980, Note_on_c, 2, 67, 0
4, 18003, Note_on_c, 2, 76, 0
4, 18003, Note_on_c, 2, 69, 0
4, 18005, Note_on_c, 2, 72, 0
4, 18039, Note_on_c, 2, 69, 80
4, 18039, Note_on_c, 2, 76, 88
4, 18039, Note_on_c, 2, 67, 71
4, 18041, Note_on_c, 2, 72, 88
4, 18061, Note_on_c, 2, 72, 0
4, 18063, Note_on_c, 2, 67, 0
4, 18063, Note_on_c, 2, 69, 0
4, 18069, Note_on_c, 2, 76, 0
4, 18306, Note_on_c, 2, 72, 99
4, 18306, Note_on_c, 2, 76, 80
4, 18307, Note_on_c, 2, 69, 80
4, 18327, Note_on_c, 2, 69, 0
4, 18327, Note_on_c, 2, 72, 0
4, 18343, Note_on_c, 2, 76, 0
4, 18485, Note_on_c, 2, 78, 99
4, 18487, Note_on_c, 2, 69, 71
4, 18487, Note_on_c, 2, 73, 99
4, 18695, Note_on_c, 2, 69, 0
4, 18697, Note_on_c, 2, 73, 0
4, 18701, Note_on_c, 2, 78, 0
4, 18751, Note_on_c, 2, 78, 99
4, 18753, Note_on_c, 2, 69, 69
4, 18753, Note_on_c, 2, 73, 88
4, 18771, Note_on_c, 2, 69, 0
4, 18773, Note_on_c, 2, 73, 0
4, 18777, Note_on_c, 2, 78, 0
4, 19021, Note_on_c, 2, 73, 99
4, 19024, Note_on_c, 2, 69, 69
4, 19024, Note_on_c, 2, 78, 88
4, 19042, Note_on_c, 2, 78, 0
4, 19042, Note_on_c, 2, 69, 0
4, 19042, Note_on_c, 2, 73, 0
4, 19114, Note_on_c, 2, 78, 113
4, 19114, Note_on_c, 2, 73, 127
4, 19114, Note_on_c, 2, 69, 80
4, 19130, Note_on_c, 2, 69, 0
4, 19130, Note_on_c, 2, 73, 0
4, 19134, Note_on_c, 2, 78, 0
4, 19201, Note_on_c, 2, 69, 88
4, 19201, Note_on_c, 2, 72, 88
4, 19201, Note_on_c, 2, 76, 80
4, 19201, Note_on_c, 2, 67, 99
4, 19400, Note_on_c, 2, 67, 0
4, 19411, Note_on_c, 2, 69, 0
4, 19417, Note_on_c, 2, 76, 0
4, 19422, Note_on_c, 2, 72, 0
4, 19465, Note_on_c, 2, 67, 88
4, 19468, Note_on_c, 2, 72, 99
4, 19468, Note_on_c, 2, 69, 71
4, 19468, Note_on_c, 2, 76, 88
4, 19493, Note_on_c, 2, 72, 0
4, 19495, Note_on_c, 2, 67, 0
4, 19495, Note_on_c, 2, 69, 0
4, 19501, Note_on_c, 2, 76, 0
4, 19736, Note_on_c, 2, 72, 80
4, 19736, Note_on_c, 2, 76, 80
4, 19737, Note_on_c, 2, 69, 88
4, 19756, Note_on_c, 2, 72, 0
4, 19758, Note_on_c, 2, 69, 0
4, 19767, Note_on_c, 2, 76, 0
4, 19825, Note_on_c, 2, 69, 69
4, 19825, Note_on_c, 2, 72, 88
4, 19825, Note_on_c, 2, 76, 71
4, 19845, Note_on_c, 2, 69, 0
4, 19849, Note_on_c, 2, 72, 0
4, 19853, Note_on_c, 2, 76, 0
4, 19913, Note_on_c, 2, 73, 80
4, 19913, Note_on_c, 2, 69, 56
4, 19915, Note_on_c, 2, 78, 80
4, 20131, Note_on_c, 2, 78, 0
4, 20131, Note_on_c, 2, 69, 0
4, 20131, Note_on_c, 2, 73, 0
4, 20181, Note_on_c, 2, 73, 99
4, 20183, Note_on_c, 2, 69, 64
4, 20183, Note_on_c, 2, 78, 99
4, 20203, Note_on_c, 2, 73, 0
4, 20205, Note_on_c, 2, 78, 0
4, 20207, Note_on_c, 2, 69, 0
4, 20449, Note_on_c, 2, 78, 88
4, 20451, Note_on_c, 2, 69, 64
4, 20451, Note_on_c, 2, 73, 99
4, 20467, Note_on_c, 2, 73, 0
4, 20473, Note_on_c, 2, 69, 0
4, 20476, Note_on_c, 2, 78, 0
4, 20542, Note_on_c, 2, 73, 113
4, 20542, Note_on_c, 2, 78, 113
4, 20543, Note_on_c, 2, 69, 71
4, 20562, Note_on_c, 2, 69, 0
4, 20564, Note_on_c, 2, 78, 0
4, 20564, Note_on_c, 2, 73, 0
4, 20722, Note_on_c, 2, 71, 69
4, 20722, Note_on_c, 2, 74, 80
4, 20724, Note_on_c, 2, 79, 80
4, 20857, Note_on_c, 2, 71, 0
4, 20862, Note_on_c, 2, 74, 0
4, 20863, Note_on_c, 2, 79, 0
4, 20896, Note_on_c, 2, 79, 71
4, 20896, Note_on_c, 2, 74, 88
4, 20896, Note_on_c, 2, 71, 69
4, 21009, Note_on_c, 2, 71, 0
4, 21024, Note_on_c, 2, 74, 0
4, 21025, Note_on_c, 2, 79, 0
4, 21080, Note_on_c, 2, 76, 88
4, 21080, Note_on_c, 2, 73, 88
4, 21080, Note_on_c, 2, 81, 69
4, 21209, Note_on_c, 2, 73, 0
4, 21211, Note_on_c, 2, 76, 0
4, 21215, Note_on_c, 2, 81, 0
4, 21253, Note_on_c, 2, 81, 64
4, 21253, Note_on_c, 2, 73, 88
4, 21255, Note_on_c, 2, 76, 88
4, 21354, Note_on_c, 2, 76, 0
4, 21359, Note_on_c, 2, 73, 0
4, 21371, Note_on_c, 2, 81, 0
4, 21437, Note_on_c, 2, 78, 71
4, 21437, Note_on_c, 2, 69, 52
4, 21437, Note_on_c, 2, 74, 69
4, 21618, Note_on_c, 2, 69, 0
4, 21621, Note_on_c, 2, 74, 0
4, 21631, Note_on_c, 2, 78, 0
4, 21701, Note_on_c, 2, 79, 113
4, 21876, Note_on_c, 2, 78, 99
4, 21878, Note_on_c, 2, 79, 0
4, 21914, Note_on_c, 2, 78, 0
4, 21923, Note_on_c, 2, 76, 88
4, 21970, Note_on_c, 2, 74, 99
4, 22001, Note_on_c, 2, 76, 0
4, 22049, Note_on_c, 2, 74, 0
4, 22057, Note_on_c, 2, 69, 80
4, 22144, Note_on_c, 2, 69, 0
4, 22149, Note_on_c, 2, 74, 88
4, 22149, Note_on_c, 2, 71, 71
4, 22151, Note_on_c, 2, 79, 80
4, 22275, Note_on_c, 2, 71, 0
4, 22279, Note_on_c, 2, 79, 0
4, 22281, Note_on_c, 2, 74, 0
4, 22323, Note_on_c, 2, 71, 69
4, 22325, Note_on_c, 2, 79, 71
4, 22325, Note_on_c, 2, 74, 80
4, 22446, Note_on_c, 2, 71, 0
4, 22453, Note_on_c, 2, 74, 0
4, 22455, Note_on_c, 2, 79, 0
4, 22507, Note_on_c, 2, 73, 80
4, 22507, Note_on_c, 2, 76, 88
4, 22510, Note_on_c, 2, 81, 64
4, 22633, Note_on_c, 2, 73, 0
4, 22641, Note_on_c, 2, 76, 0
4, 22645, Note_on_c, 2, 81, 0
4, 22683, Note_on_c, 2, 81, 69
4, 22683, Note_on_c, 2, 76, 80
4, 22683, Note_on_c, 2, 73, 88
4, 22779, Note_on_c, 2, 76, 0
4, 22785, Note_on_c, 2, 73, 0
4, 22805, Note_on_c, 2, 81, 0
4, 22865, Note_on_c, 2, 69, 60
4, 22865, Note_on_c, 2, 78, 64
4, 22865, Note_on_c, 2, 74, 64
4, 23089, Note_on_c, 2, 74, 0
4, 23089, Note_on_c, 2, 78, 0
4, 23089, Note_on_c, 2, 69, 0
4, 23219, Note_on_c, 2, 75, 99
4, 23219, Note_on_c, 2, 71, 69
4, 23219, Note_on_c, 2, 78, 80
4, 23498, Note_on_c, 2, 71, 0
4, 23502, Note_on_c, 2, 75, 0
4, 23505, Note_on_c, 2, 78, 0
4, 23579, Note_on_c, 2, 79, 71
4, 23579, Note_on_c, 2, 74, 88
4, 23579, Note_on_c, 2, 71, 71
4, 23883, Note_on_c, 2, 74, 0
4, 23883, Note_on_c, 2, 79, 0
4, 23885, Note_on_c, 2, 71, 0
4, 23933, Note_on_c, 2, 78, 88
4, 23933, Note_on_c, 2, 74, 88
4, 23933, Note_on_c, 2, 69, 80
4, 24069, Note_on_c, 2, 69, 0
4, 24073, Note_on_c, 2, 78, 0
4, 24075, Note_on_c, 2, 74, 0
4, 24111, Note_on_c, 2, 74, 80
4, 24111, Note_on_c, 2, 69, 80
4, 24113, Note_on_c, 2, 78, 80
4, 24276, Note_on_c, 2, 78, 0
4, 24282, Note_on_c, 2, 69, 0
4, 24282, Note_on_c, 2, 74, 0
4, 24292, Note_on_c, 2, 68, 88
4, 24293, Note_on_c, 2, 76, 71
4, 24293, Note_on_c, 2, 71, 80
4, 25585, Note_on_c, 2, 71, 0
4, 25585, Note_on_c, 2, 68, 0
4, 25596, Note_on_c, 2, 76, 0
4, 25721, Note_on_c, 2, 72, 71
4, 25721, Note_on_c, 2, 81, 113
4, 25721, Note_on_c, 2, 76, 71
4, 25721, Note_on_c, 2, 91, 80
4, 25721, Note_on_c, 2, 79, 80
4, 25721, Note_on_c, 2, 88, 71
4, 25721, Note_on_c, 2, 69, 113
4, 25721, Note_on_c, 2, 84, 71
4, 25847, Note_on_c, 2, 79, 0
4, 25847, Note_on_c, 2, 91, 0
4, 25855, Note_on_c, 2, 76, 0
4, 25855, Note_on_c, 2, 88, 0
4, 25859, Note_on_c, 2, 84, 0
4, 25859, Note_on_c, 2, 72, 0
4, 25895, Note_on_c, 2, 91, 88
4, 25897, Note_on_c, 2, 72, 64
4, 25897, Note_on_c, 2, 84, 64
4, 25897, Note_on_c, 2, 76, 80
4, 25899, Note_on_c, 2, 79, 88
4, 25899, Note_on_c, 2, 88, 80
4, 25947, Note_on_c, 2, 84, 0
4, 25947, Note_on_c, 2, 72, 0
4, 25987, Note_on_c, 2, 72, 80
4, 25987, Note_on_c, 2, 84, 80
4, 25993, Note_on_c, 2, 88, 0
4, 25995, Note_on_c, 2, 76, 0
4, 26011, Note_on_c, 2, 79, 0
4, 26011, Note_on_c, 2, 91, 0
4, 26033, Note_on_c, 2, 84, 0
4, 26033, Note_on_c, 2, 72, 0
4, 26061, Note_on_c, 2, 81, 0
4, 26063, Note_on_c, 2, 69, 0
4, 26079, Note_on_c, 2, 78, 88
4, 26079, Note_on_c, 2, 83, 88
4, 26079, Note_on_c, 2, 81, 80
4, 26079, Note_on_c, 2, 86, 80
4, 26079, Note_on_c, 2, 74, 80
4, 26079, Note_on_c, 2, 93, 80
4, 26079, Note_on_c, 2, 71, 88
4, 26079, Note_on_c, 2, 90, 88
4, 26101, Note_on_c, 2, 86, 0
4, 26105, Note_on_c, 2, 74, 0
4, 26119, Note_on_c, 2, 78, 0
4, 26121, Note_on_c, 2, 90, 0
4, 26121, Note_on_c, 2, 93, 0
4, 26123, Note_on_c, 2, 81, 0
4, 26165, Note_on_c, 2, 78, 99
4, 26165, Note_on_c, 2, 90, 99
4, 26165, Note_on_c, 2, 74, 80
4, 26165, Note_on_c, 2, 93, 71
4, 26167, Note_on_c, 2, 81, 71
4, 26167, Note_on_c, 2, 86, 80
4, 26303, Note_on_c, 2, 78, 0
4, 26305, Note_on_c, 2, 90, 0
4, 26307, Note_on_c, 2, 86, 0
4, 26307, Note_on_c, 2, 74, 0
4, 26307, Note_on_c, 2, 81, 0
4, 26309, Note_on_c, 2, 93, 0
4, 26343, Note_on_c, 2, 78, 88
4, 26343, Note_on_c, 2, 86, 71
4, 26345, Note_on_c, 2, 74, 71
4, 26345, Note_on_c, 2, 90, 88
4, 26345, Note_on_c, 2, 81, 71
4, 26345, Note_on_c, 2, 93, 71
4, 26367, Note_on_c, 2, 90, 0
4, 26369, Note_on_c, 2, 78, 0
4, 26383, Note_on_c, 2, 74, 0
4, 26383, Note_on_c, 2, 81, 0
4, 26385, Note_on_c, 2, 86, 0
4, 26385, Note_on_c, 2, 93, 0
4, 26435, Note_on_c, 2, 69, 80
4, 26435, Note_on_c, 2, 91, 80
4, 26437, Note_on_c, 2, 79, 80
4, 26437, Note_on_c, 2, 72, 80
4, 26437, Note_on_c, 2, 81, 80
4, 26437, Note_on_c, 2, 88, 88
4, 26437, Note_on_c, 2, 76, 88
4, 26437, Note_on_c, 2, 84, 80
4, 26440, Note_on_c, 2, 83, 0
4, 26440, Note_on_c, 2, 71, 0
4, 26453, Note_on_c, 2, 84, 0
4, 26453, Note_on_c, 2, 72, 0
4, 26521, Note_on_c, 2, 72, 88
4, 26521, Note_on_c, 2, 84, 88
4, 26525, Note_on_c, 2, 76, 0
4, 26527, Note_on_c, 2, 88, 0
4, 26541, Note_on_c, 2, 79, 0
4, 26543, Note_on_c, 2, 91, 0
4, 26611, Note_on_c, 2, 76, 80
4, 26611, Note_on_c, 2, 91, 80
4, 26611, Note_on_c, 2, 79, 80
4, 26611, Note_on_c, 2, 88, 80
4, 26629, Note_on_c, 2, 72, 0
4, 26629, Note_on_c, 2, 84, 0
4, 26667, Note_on_c, 2, 91, 0
4, 26671, Note_on_c, 2, 76, 0
4, 26671, Note_on_c, 2, 79, 0
4, 26673, Note_on_c, 2, 88, 0
4, 26701, Note_on_c, 2, 71, 88
4, 26701, Note_on_c, 2, 86, 80
4, 26705, Note_on_c, 2, 81, 0
4, 26705, Note_on_c, 2, 74, 80
4, 26705, Note_on_c, 2, 83, 88
4, 26705, Note_on_c, 2, 81, 80
4, 26705, Note_on_c, 2, 90, 99
4, 26705, Note_on_c, 2, 78, 99
4, 26705, Note_on_c, 2, 93, 80
4, 26713, Note_on_c, 2, 69, 0
4, 27000, Note_on_c, 2, 78, 0
4, 27000, Note_on_c, 2, 74, 0
4, 27001, Note_on_c, 2, 86, 0
4, 27001, Note_on_c, 2, 93, 0
4, 27001, Note_on_c, 2, 90, 0
4, 27057, Note_on_c, 2, 81, 0
4, 27057, Note_on_c, 2, 78, 88
4, 27057, Note_on_c, 2, 93, 80
4, 27057, Note_on_c, 2, 74, 71
4, 27057, Note_on_c, 2, 86, 71
4, 27057, Note_on_c, 2, 81, 80
4, 27057, Note_on_c, 2, 90, 88
4, 27097, Note_on_c, 2, 90, 0
4, 27097, Note_on_c, 2, 78, 0
4, 27099, Note_on_c, 2, 74, 0
4, 27099, Note_on_c, 2, 93, 0
4, 27099, Note_on_c, 2, 86, 0
4, 27152, Note_on_c, 2, 81, 0
4, 27152, Note_on_c, 2, 91, 80
4, 27152, Note_on_c, 2, 69, 99
4, 27152, Note_on_c, 2, 88, 99
4, 27152, Note_on_c, 2, 72, 80
4, 27152, Note_on_c, 2, 84, 80
4, 27152, Note_on_c, 2, 81, 99
4, 27152, Note_on_c, 2, 76, 99
4, 27155, Note_on_c, 2, 83, 0
4, 27155, Note_on_c, 2, 71, 0
4, 27155, Note_on_c, 2, 79, 80
4, 27281, Note_on_c, 2, 84, 0
4, 27283, Note_on_c, 2, 72, 0
4, 27285, Note_on_c, 2, 79, 0
4, 27285, Note_on_c, 2, 76, 0
4, 27285, Note_on_c, 2, 88, 0
4, 27287, Note_on_c, 2, 91, 0
4, 27325, Note_on_c, 2, 76, 88
4, 27325, Note_on_c, 2, 84, 71
4, 27327, Note_on_c, 2, 88, 88
4, 27327, Note_on_c, 2, 79, 71
4, 27327, Note_on_c, 2, 91, 71
4, 27329, Note_on_c, 2, 72, 71
4, 27377, Note_on_c, 2, 72, 0
4, 27379, Note_on_c, 2, 84, 0
4, 27415, Note_on_c, 2, 72, 80
4, 27415, Note_on_c, 2, 84, 80
4, 27425, Note_on_c, 2, 88, 0
4, 27425, Note_on_c, 2, 76, 0
4, 27441, Note_on_c, 2, 79, 0
4, 27441, Note_on_c, 2, 91, 0
4, 27455, Note_on_c, 2, 72, 0
4, 27455, Note_on_c, 2, 84, 0
4, 27471, Note_on_c, 2, 69, 0
4, 27507, Note_on_c, 2, 81, 0
4, 27507, Note_on_c, 2, 74, 80
4, 27507, Note_on_c, 2, 83, 113
4, 27507, Note_on_c, 2, 78, 88
4, 27507, Note_on_c, 2, 93, 80
4, 27507, Note_on_c, 2, 81, 80
4, 27507, Note_on_c, 2, 90, 88
4, 27507, Note_on_c, 2, 71, 113
4, 27507, Note_on_c, 2, 86, 80
4, 27533, Note_on_c, 2, 86, 0
4, 27533, Note_on_c, 2, 90, 0
4, 27533, Note_on_c, 2, 78, 0
4, 27533, Note_on_c, 2, 74, 0
4, 27533, Note_on_c, 2, 93, 0
4, 27593, Note_on_c, 2, 93, 71
4, 27593, Note_on_c, 2, 74, 71
4, 27593, Note_on_c, 2, 90, 99
4, 27595, Note_on_c, 2, 81, 0
4, 27595, Note_on_c, 2, 78, 99
4, 27595, Note_on_c, 2, 86, 71
4, 27595, Note_on_c, 2, 81, 71
4, 27648, Note_on_c, 2, 81, 0
4, 27727, Note_on_c, 2, 86, 0
4, 27727, Note_on_c, 2, 93, 0
4, 27729, Note_on_c, 2, 90, 0
4, 27729, Note_on_c, 2, 74, 0
4, 27729, Note_on_c, 2, 78, 0
4, 27773, Note_on_c, 2, 78, 99
4, 27773, Note_on_c, 2, 93, 80
4, 27773, Note_on_c, 2, 82, 64
4, 27773, Note_on_c, 2, 86, 80
4, 27775, Note_on_c, 2, 82, 0
4, 27775, Note_on_c, 2, 74, 80
4, 27775, Note_on_c, 2, 90, 99
4, 27801, Note_on_c, 2, 90, 0
4, 27803, Note_on_c, 2, 78, 0
4, 27811, Note_on_c, 2, 93, 0
4, 27815, Note_on_c, 2, 74, 0
4, 27817, Note_on_c, 2, 86, 0
4, 27829, Note_on_c, 2, 83, 0
4, 27831, Note_on_c, 2, 71, 0
4, 27864, Note_on_c, 2, 91, 99
4, 27865, Note_on_c, 2, 76, 80
4, 27865, Note_on_c, 2, 88, 80
4, 27865, Note_on_c, 2, 69, 80
4, 27867, Note_on_c, 2, 79, 99
4, 27950, Note_on_c, 2, 72, 80
4, 27950, Note_on_c, 2, 84, 80
4, 27960, Note_on_c, 2, 88, 0
4, 27960, Note_on_c, 2, 76, 0
4, 27980, Note_on_c, 2, 79, 0
4, 27980, Note_on_c, 2, 91, 0
4, 28039, Note_on_c, 2, 79, 71
4, 28039, Note_on_c, 2, 88, 80
4, 28041, Note_on_c, 2, 76, 80
4, 28041, Note_on_c, 2, 91, 71
4, 28059, Note_on_c, 2, 72, 0
4, 28059, Note_on_c, 2, 84, 0
4, 28081, Note_on_c, 2, 91, 0
4, 28086, Note_on_c, 2, 79, 0
4, 28088, Note_on_c, 2, 88, 0
4, 28088, Note_on_c, 2, 76, 0
4, 28130, Note_on_c, 2, 69, 0
4, 28134, Note_on_c, 2, 83, 99
4, 28134, Note_on_c, 2, 74, 88
4, 28134, Note_on_c, 2, 90, 113
4, 28134, Note_on_c, 2, 78, 113
4, 28134, Note_on_c, 2, 86, 88
4, 28134, Note_on_c, 2, 71, 99
4, 28134, Note_on_c, 2, 93, 88
4, 28433, Note_on_c, 2, 74, 0
4, 28435, Note_on_c, 2, 86, 0
4, 28435, Note_on_c, 2, 78, 0
4, 28435, Note_on_c, 2, 90, 0
4, 28437, Note_on_c, 2, 93, 0
4, 28457, Note_on_c, 2, 71, 0
4, 28457, Note_on_c, 2, 83, 0
4, 28487, Note_on_c, 2, 86, 88
4, 28487, Note_on_c, 2, 78, 99
4, 28487, Note_on_c, 2, 90, 99
4, 28487, Note_on_c, 2, 74, 88
4, 28487, Note_on_c, 2, 93, 88
4, 28511, Note_on_c, 2, 90, 0
4, 28511, Note_on_c, 2, 78, 0
4, 28513, Note_on_c, 2, 86, 0
4, 28513, Note_on_c, 2, 74, 0
4, 28525, Note_on_c, 2, 93, 0
4, 28579, Note_on_c, 2, 69, 88
4, 28697, Note_on_c, 2, 72, 71
4, 28697, Note_on_c, 2, 84, 71
4, 28729, Note_on_c, 2, 69, 0
4, 28815, Note_on_c, 2, 76, 80
4, 28815, Note_on_c, 2, 88, 80
4, 28825, Note_on_c, 2, 84, 0
4, 28825, Note_on_c, 2, 72, 0
4, 28917, Note_on_c, 2, 76, 0
4, 28919, Note_on_c, 2, 88, 0
4, 28935, Note_on_c, 2, 71, 80
4, 28935, Note_on_c, 2, 83, 80
4, 29049, Note_on_c, 2, 86, 69
4, 29051, Note_on_c, 2, 74, 69
4, 29085, Note_on_c, 2, 83, 0
4, 29085, Note_on_c, 2, 71, 0
4, 29167, Note_on_c, 2, 88, 60
4, 29169, Note_on_c, 2, 86, 0
4, 29169, Note_on_c, 2, 74, 0
4, 29169, Note_on_c, 2, 76, 60
4, 29293, Note_on_c, 2, 69, 80
4, 29298, Note_on_c, 2, 76, 0
4, 29300, Note_on_c, 2, 88, 0
4, 29411, Note_on_c, 2, 72, 69
4, 29411, Note_on_c, 2, 84, 69
4, 29425, Note_on_c, 2, 69, 0
4, 29527, Note_on_c, 2, 84, 0
4, 29527, Note_on_c, 2, 72, 0
4, 29532, Note_on_c, 2, 88, 71
4, 29532, Note_on_c, 2, 76, 71
4, 29636, Note_on_c, 2, 76, 0
4, 29637, Note_on_c, 2, 88, 0
4, 29647, Note_on_c, 2, 71, 80
4, 29647, Note_on_c, 2, 83, 80
4, 29795, Note_on_c, 2, 86, 69
4, 29797, Note_on_c, 2, 74, 69
4, 29807, Note_on_c, 2, 83, 0
4, 29807, Note_on_c, 2, 71, 0
4, 29915, Note_on_c, 2, 88, 56
4, 29917, Note_on_c, 2, 76, 56
4, 29928, Note_on_c, 2, 74, 0
4, 29929, Note_on_c, 2, 86, 0
4, 29991, Note_on_c, 2, 76, 0
4, 29993, Note_on_c, 2, 88, 0
4, 30007, Note_on_c, 2, 74, 71
4, 30007, Note_on_c, 2, 78, 88
4, 30093, Note_on_c, 2, 74, 0
4, 30101, Note_on_c, 2, 78, 0
4, 30123, Note_on_c, 2, 76, 69
4, 30123, Note_on_c, 2, 79, 69
4, 30207, Note_on_c, 2, 79, 0
4, 30209, Note_on_c, 2, 76, 0
4, 30243, Note_on_c, 2, 78, 88
4, 30317, Note_on_c, 2, 78, 0
4, 30363, Note_on_c, 2, 79, 60
4, 30363, Note_on_c, 2, 83, 69
4, 30451, Note_on_c, 2, 83, 0
4, 30459, Note_on_c, 2, 79, 0
4, 30479, Note_on_c, 2, 78, 80
4, 30565, Note_on_c, 2, 78, 0
4, 30595, Note_on_c, 2, 79, 69
4, 30597, Note_on_c, 2, 76, 80
4, 30677, Note_on_c, 2, 76, 0
4, 30681, Note_on_c, 2, 79, 0
4, 30721, Note_on_c, 2, 72, 80
4, 30721, Note_on_c, 2, 76, 88
4, 30801, Note_on_c, 2, 72, 0
4, 30805, Note_on_c, 2, 76, 0
4, 30839, Note_on_c, 2, 78, 80
4, 30839, Note_on_c, 2, 74, 69
4, 30921, Note_on_c, 2, 74, 0
4, 30926, Note_on_c, 2, 78, 0
4, 30958, Note_on_c, 2, 76, 71
4, 30959, Note_on_c, 2, 79, 69
4, 31032, Note_on_c, 2, 76, 0
4, 31041, Note_on_c, 2, 79, 0
4, 31077, Note_on_c, 2, 78, 71
4, 31157, Note_on_c, 2, 78, 0
4, 31195, Note_on_c, 2, 83, 69
4, 31195, Note_on_c, 2, 79, 64
4, 31272, Note_on_c, 2, 79, 0
4, 31281, Note_on_c, 2, 83, 0
4, 31315, Note_on_c, 2, 84, 80
4, 31383, Note_on_c, 2, 84, 0
4, 31435, Note_on_c, 2, 76, 88
4, 31438, Note_on_c, 2, 72, 80
4, 31517, Note_on_c, 2, 72, 0
4, 31517, Note_on_c, 2, 76, 0
4, 31554, Note_on_c, 2, 78, 80
4, 31554, Note_on_c, 2, 74, 69
4, 31631, Note_on_c, 2, 74, 0
4, 31637, Note_on_c, 2, 78, 0
4, 31671, Note_on_c, 2, 79, 69
4, 31671, Note_on_c, 2, 76, 71
4, 31747, Note_on_c, 2, 76, 0
4, 31757, Note_on_c, 2, 79, 0
4, 31793, Note_on_c, 2, 78, 71
4, 31869, Note_on_c, 2, 78, 0
4, 31911, Note_on_c, 2, 83, 69
4, 31911, Note_on_c, 2, 79, 64
4, 31983, Note_on_c, 2, 79, 0
4, 31993, Note_on_c, 2, 83, 0
4, 32029, Note_on_c, 2, 84, 80
4, 32097, Note_on_c, 2, 84, 0
4, 32151, Note_on_c, 2, 72, 80
4, 32151, Note_on_c, 2, 76, 88
4, 32231, Note_on_c, 2, 72, 0
4, 32233, Note_on_c, 2, 76, 0
4, 32269, Note_on_c, 2, 78, 80
4, 32269, Note_on_c, 2, 74, 69
4, 32349, Note_on_c, 2, 74, 0
4, 32353, Note_on_c, 2, 78, 0
4, 32388, Note_on_c, 2, 76, 71
4, 32388, Note_on_c, 2, 79, 69
4, 32460, Note_on_c, 2, 76, 0
4, 32470, Note_on_c, 2, 79, 0
4, 32505, Note_on_c, 2, 78, 71
4, 32585, Note_on_c, 2, 78, 0
4, 32625, Note_on_c, 2, 83, 69
4, 32625, Note_on_c, 2, 79, 64
4, 32697, Note_on_c, 2, 79, 0
4, 32705, Note_on_c, 2, 83, 0
4, 32741, Note_on_c, 2, 84, 80
4, 32813, Note_on_c, 2, 84, 0
4, 32865, Note_on_c, 2, 71, 88
4, 32865, Note_on_c, 2, 83, 88
4, 32949, Note_on_c, 2, 79, 71
4, 32951, Note_on_c, 2, 67, 71
4, 32961, Note_on_c, 2, 83, 0
4, 32961, Note_on_c, 2, 71, 0
4, 32995, Note_on_c, 2, 69, 60
4, 33013, Note_on_c, 2, 67, 0
4, 33015, Note_on_c, 2, 79, 0
4, 33041, Note_on_c, 2, 71, 43
4, 33041, Note_on_c, 2, 83, 43
4, 33101, Note_on_c, 2, 69, 0
4, 33119, Note_on_c, 2, 83, 0
4, 33119, Note_on_c, 2, 71, 0
4, 33129, Note_on_c, 2, 74, 69
4, 33129, Note_on_c, 2, 86, 69
4, 33217, Note_on_c, 2, 72, 56
4, 33217, Note_on_c, 2, 84, 56
4, 33236, Note_on_c, 2, 86, 0
4, 33236, Note_on_c, 2, 74, 0
4, 33307, Note_on_c, 2, 83, 56
4, 33309, Note_on_c, 2, 72, 0
4, 33309, Note_on_c, 2, 71, 56
4, 33313, Note_on_c, 2, 84, 0
4, 33397, Note_on_c, 2, 69, 60
4, 33424, Note_on_c, 2, 71, 0
4, 33424, Note_on_c, 2, 83, 0
4, 33488, Note_on_c, 2, 67, 71
4, 33488, Note_on_c, 2, 79, 71
4, 33489, Note_on_c, 2, 69, 0
4, 33547, Note_on_c, 2, 67, 0
4, 33549, Note_on_c, 2, 79, 0
4, 33579, Note_on_c, 2, 69, 80
4, 33663, Note_on_c, 2, 65, 69
4, 33663, Note_on_c, 2, 77, 69
4, 33673, Note_on_c, 2, 69, 0
4, 33707, Note_on_c, 2, 79, 64
4, 33709, Note_on_c, 2, 67, 64
4, 33723, Note_on_c, 2, 77, 0
4, 33723, Note_on_c, 2, 65, 0
4, 33753, Note_on_c, 2, 69, 64
4, 33760, Note_on_c, 2, 79, 0
4, 33761, Note_on_c, 2, 67, 0
4, 33845, Note_on_c, 2, 77, 69
4, 33845, Note_on_c, 2, 89, 69
4, 33848, Note_on_c, 2, 69, 0
4, 33907, Note_on_c, 2, 77, 0
4, 33909, Note_on_c, 2, 89, 0
4, 33934, Note_on_c, 2, 74, 36
4, 33934, Note_on_c, 2, 86, 36
4, 33975, Note_on_c, 2, 84, 71
4, 33977, Note_on_c, 2, 72, 71
4, 34013, Note_on_c, 2, 74, 0
4, 34015, Note_on_c, 2, 86, 0
4, 34021, Note_on_c, 2, 82, 80
4, 34023, Note_on_c, 2, 70, 80
4, 34031, Note_on_c, 2, 72, 0
4, 34033, Note_on_c, 2, 84, 0
4, 34065, Note_on_c, 2, 82, 0
4, 34065, Note_on_c, 2, 70, 0
4, 34067, Note_on_c, 2, 67, 64
4, 34067, Note_on_c, 2, 79, 64
4, 34111, Note_on_c, 2, 68, 88
4, 34111, Note_on_c, 2, 80, 88
4, 34117, Note_on_c, 2, 79, 0
4, 34117, Note_on_c, 2, 67, 0
4, 34195, Note_on_c, 2, 68, 0
4, 34197, Note_on_c, 2, 80, 0
4, 34199, Note_on_c, 2, 79, 69
4, 34201, Note_on_c, 2, 67, 69
4, 34265, Note_on_c, 2, 67, 0
4, 34265, Note_on_c, 2, 79, 0
4, 34295, Note_on_c, 2, 68, 99
4, 34295, Note_on_c, 2, 80, 99
4, 34369, Note_on_c, 2, 80, 0
4, 34369, Note_on_c, 2, 68, 0
4, 34379, Note_on_c, 2, 67, 69
4, 34379, Note_on_c, 2, 79, 69
4, 34421, Note_on_c, 2, 79, 0
4, 34421, Note_on_c, 2, 67, 0
4, 34423, Note_on_c, 2, 80, 88
4, 34425, Note_on_c, 2, 68, 88
4, 34469, Note_on_c, 2, 70, 71
4, 34469, Note_on_c, 2, 82, 71
4, 34471, Note_on_c, 2, 68, 0
4, 34471, Note_on_c, 2, 80, 0
4, 34541, Note_on_c, 2, 70, 0
4, 34543, Note_on_c, 2, 82, 0
4, 34557, Note_on_c, 2, 84, 69
4, 34560, Note_on_c, 2, 72, 69
4, 34650, Note_on_c, 2, 82, 80
4, 34650, Note_on_c, 2, 70, 80
4, 34665, Note_on_c, 2, 72, 0
4, 34667, Note_on_c, 2, 84, 0
4, 34691, Note_on_c, 2, 68, 88
4, 34691, Note_on_c, 2, 80, 88
4, 34713, Note_on_c, 2, 82, 0
4, 34713, Note_on_c, 2, 70, 0
4, 34735, Note_on_c, 2, 67, 80
4, 34735, Note_on_c, 2, 79, 80
4, 34739, Note_on_c, 2, 68, 0
4, 34741, Note_on_c, 2, 80, 0
4, 34779, Note_on_c, 2, 65, 71
4, 34779, Note_on_c, 2, 77, 71
4, 34789, Note_on_c, 2, 67, 0
4, 34789, Note_on_c, 2, 79, 0
4, 34809, Note_on_c, 2, 65, 0
4, 34809, Note_on_c, 2, 77, 0
4, 34825, Note_on_c, 2, 63, 113
4, 34825, Note_on_c, 2, 75, 113
4, 34903, Note_on_c, 2, 63, 0
4, 34905, Note_on_c, 2, 75, 0
4, 34915, Note_on_c, 2, 65, 64
4, 34915, Note_on_c, 2, 77, 64
4, 34979, Note_on_c, 2, 77, 0
4, 34979, Note_on_c, 2, 65, 0
4, 35007, Note_on_c, 2, 69, 88
4, 35182, Note_on_c, 2, 61, 127
4, 35182, Note_on_c, 2, 73, 127
4, 35361, Note_on_c, 2, 76, 88
4, 35363, Note_on_c, 2, 64, 88
4, 35367, Note_on_c, 2, 73, 0
4, 35367, Note_on_c, 2, 61, 0
4, 35541, Note_on_c, 2, 61, 127
4, 35541, Note_on_c, 2, 73, 127
4, 35546, Note_on_c, 2, 64, 0
4, 35546, Note_on_c, 2, 76, 0
4, 35625, Note_on_c, 2, 61, 0
4, 35627, Note_on_c, 2, 73, 0
4, 35629, Note_on_c, 2, 64, 99
4, 35629, Note_on_c, 2, 76, 99
4, 35722, Note_on_c, 2, 76, 0
4, 35722, Note_on_c, 2, 64, 0
4, 35899, Note_on_c, 2, 61, 127
4, 35899, Note_on_c, 2, 73, 127
4, 35987, Note_on_c, 2, 73, 0
4, 35987, Note_on_c, 2, 61, 0
4, 36079, Note_on_c, 2, 61, 127
4, 36079, Note_on_c, 2, 73, 127
4, 36159, Note_on_c, 2, 73, 0
4, 36159, Note_on_c, 2, 61, 0
4, 36167, Note_on_c, 2, 64, 99
4, 36167, Note_on_c, 2, 76, 99
4, 36261, Note_on_c, 2, 76, 0
4, 36261, Note_on_c, 2, 64, 0
4, 36347, Note_on_c, 2, 64, 88
4, 36347, Note_on_c, 2, 76, 88
4, 36383, Note_on_c, 2, 69, 0
4, 36393, Note_on_c, 2, 76, 0
4, 36393, Note_on_c, 2, 64, 0
4, 36438, Note_on_c, 2, 72, 80
4, 36438, Note_on_c, 2, 76, 71
4, 36438, Note_on_c, 2, 67, 99
4, 36439, Note_on_c, 2, 69, 80
4, 36456, Note_on_c, 2, 72, 0
4, 36458, Note_on_c, 2, 69, 0
4, 36459, Note_on_c, 2, 67, 0
4, 36463, Note_on_c, 2, 76, 0
4, 36610, Note_on_c, 2, 67, 99
4, 36612, Note_on_c, 2, 69, 71
4, 36612, Note_on_c, 2, 76, 80
4, 36613, Note_on_c, 2, 72, 80
4, 36632, Note_on_c, 2, 72, 0
4, 36633, Note_on_c, 2, 69, 0
4, 36635, Note_on_c, 2, 67, 0
4, 36641, Note_on_c, 2, 76, 0
4, 36880, Note_on_c, 2, 76, 71
4, 36880, Note_on_c, 2, 67, 99
4, 36881, Note_on_c, 2, 72, 71
4, 36881, Note_on_c, 2, 69, 80
4, 36898, Note_on_c, 2, 72, 0
4, 36899, Note_on_c, 2, 67, 0
4, 36901, Note_on_c, 2, 69, 0
4, 36903, Note_on_c, 2, 76, 0
4, 36969, Note_on_c, 2, 72, 88
4, 36969, Note_on_c, 2, 76, 71
4, 36969, Note_on_c, 2, 67, 99
4, 36971, Note_on_c, 2, 69, 69
4, 36987, Note_on_c, 2, 69, 0
4, 36989, Note_on_c, 2, 72, 0
4, 36993, Note_on_c, 2, 67, 0
4, 36997, Note_on_c, 2, 76, 0
4, 37057, Note_on_c, 2, 73, 99
4, 37057, Note_on_c, 2, 69, 56
4, 37059, Note_on_c, 2, 78, 99
4, 37251, Note_on_c, 2, 69, 0
4, 37255, Note_on_c, 2, 78, 0
4, 37259, Note_on_c, 2, 73, 0
4, 37325, Note_on_c, 2, 78, 99
4, 37327, Note_on_c, 2, 69, 80
4, 37327, Note_on_c, 2, 73, 99
4, 37345, Note_on_c, 2, 73, 0
4, 37345, Note_on_c, 2, 69, 0
4, 37349, Note_on_c, 2, 78, 0
4, 37683, Note_on_c, 2, 78, 99
4, 37685, Note_on_c, 2, 69, 64
4, 37685, Note_on_c, 2, 73, 99
4, 37701, Note_on_c, 2, 73, 0
4, 37703, Note_on_c, 2, 78, 0
4, 37705, Note_on_c, 2, 69, 0
4, 37774, Note_on_c, 2, 69, 69
4, 37774, Note_on_c, 2, 76, 71
4, 37774, Note_on_c, 2, 72, 80
4, 37774, Note_on_c, 2, 67, 99
4, 37982, Note_on_c, 2, 67, 0
4, 37989, Note_on_c, 2, 69, 0
4, 37992, Note_on_c, 2, 72, 0
4, 37992, Note_on_c, 2, 76, 0
4, 38042, Note_on_c, 2, 69, 71
4, 38042, Note_on_c, 2, 72, 88
4, 38042, Note_on_c, 2, 76, 80
4, 38042, Note_on_c, 2, 67, 113
4, 38060, Note_on_c, 2, 69, 0
4, 38063, Note_on_c, 2, 72, 0
4, 38063, Note_on_c, 2, 67, 0
4, 38071, Note_on_c, 2, 76, 0
4, 38307, Note_on_c, 2, 72, 80
4, 38307, Note_on_c, 2, 69, 80
4, 38307, Note_on_c, 2, 76, 71
4, 38329, Note_on_c, 2, 72, 0
4, 38333, Note_on_c, 2, 69, 0
4, 38337, Note_on_c, 2, 76, 0
4, 38398, Note_on_c, 2, 69, 71
4, 38398, Note_on_c, 2, 76, 69
4, 38399, Note_on_c, 2, 72, 80
4, 38416, Note_on_c, 2, 72, 0
4, 38419, Note_on_c, 2, 69, 0
4, 38423, Note_on_c, 2, 76, 0
4, 38487, Note_on_c, 2, 69, 60
4, 38487, Note_on_c, 2, 78, 99
4, 38487, Note_on_c, 2, 73, 99
4, 38689, Note_on_c, 2, 69, 0
4, 38697, Note_on_c, 2, 73, 0
4, 38697, Note_on_c, 2, 78, 0
4, 38753, Note_on_c, 2, 78, 99
4, 38755, Note_on_c, 2, 69, 80
4, 38755, Note_on_c, 2, 73, 113
4, 38771, Note_on_c, 2, 73, 0
4, 38775, Note_on_c, 2, 69, 0
4, 38779, Note_on_c, 2, 78, 0
4, 39023, Note_on_c, 2, 69, 71
4, 39023, Note_on_c, 2, 73, 99
4, 39023, Note_on_c, 2, 78, 99
4, 39041, Note_on_c, 2, 73, 0
4, 39041, Note_on_c, 2, 69, 0
4, 39043, Note_on_c, 2, 78, 0
4, 39113, Note_on_c, 2, 73, 113
4, 39113, Note_on_c, 2, 78, 99
4, 39116, Note_on_c, 2, 69, 60
4, 39128, Note_on_c, 2, 73, 0
4, 39129, Note_on_c, 2, 69, 0
4, 39133, Note_on_c, 2, 78, 0
4, 39202, Note_on_c, 2, 76, 71
4, 39202, Note_on_c, 2, 67, 99
4, 39203, Note_on_c, 2, 72, 80
4, 39203, Note_on_c, 2, 69, 71
4, 39406, Note_on_c, 2, 67, 0
4, 39426, Note_on_c, 2, 76, 0
4, 39434, Note_on_c, 2, 69, 0
4, 39436, Note_on_c, 2, 72, 0
4, 39469, Note_on_c, 2, 72, 88
4, 39469, Note_on_c, 2, 69, 80
4, 39469, Note_on_c, 2, 76, 88
4, 39469, Note_on_c, 2, 67, 71
4, 39492, Note_on_c, 2, 67, 0
4, 39494, Note_on_c, 2, 72, 0
4, 39495, Note_on_c, 2, 69, 0
4, 39501, Note_on_c, 2, 76, 0
4, 39735, Note_on_c, 2, 72, 99
4, 39735, Note_on_c, 2, 76, 80
4, 39737, Note_on_c, 2, 69, 80
4, 39757, Note_on_c, 2, 69, 0
4, 39757, Note_on_c, 2, 72, 0
4, 39771, Note_on_c, 2, 76, 0
4, 39911, Note_on_c, 2, 78, 99
4, 39913, Note_on_c, 2, 73, 99
4, 39915, Note_on_c, 2, 69, 71
4, 40125, Note_on_c, 2, 69, 0
4, 40127, Note_on_c, 2, 73, 0
4, 40131, Note_on_c, 2, 78, 0
4, 40181, Note_on_c, 2, 78, 99
4, 40183, Note_on_c, 2, 69, 69
4, 40183, Note_on_c, 2, 73, 88
4, 40199, Note_on_c, 2, 69, 0
4, 40201, Note_on_c, 2, 73, 0
4, 40207, Note_on_c, 2, 78, 0
4, 40451, Note_on_c, 2, 78, 88
4, 40451, Note_on_c, 2, 73, 99
4, 40453, Note_on_c, 2, 69, 69
4, 40470, Note_on_c, 2, 69, 0
4, 40472, Note_on_c, 2, 73, 0
4, 40472, Note_on_c, 2, 78, 0
4, 40544, Note_on_c, 2, 78, 113
4, 40544, Note_on_c, 2, 73, 127
4, 40544, Note_on_c, 2, 69, 80
4, 40559, Note_on_c, 2, 69, 0
4, 40559, Note_on_c, 2, 73, 0
4, 40563, Note_on_c, 2, 78, 0
4, 40629, Note_on_c, 2, 67, 99
4, 40632, Note_on_c, 2, 69, 88
4, 40632, Note_on_c, 2, 72, 88
4, 40632, Note_on_c, 2, 76, 80
4, 40829, Note_on_c, 2, 67, 0
4, 40839, Note_on_c, 2, 69, 0
4, 40849, Note_on_c, 2, 76, 0
4, 40853, Note_on_c, 2, 72, 0
4, 40897, Note_on_c, 2, 76, 88
4, 40897, Note_on_c, 2, 67, 88
4, 40899, Note_on_c, 2, 72, 99
4, 40899, Note_on_c, 2, 69, 71
4, 40921, Note_on_c, 2, 72, 0
4, 40923, Note_on_c, 2, 69, 0
4, 40923, Note_on_c, 2, 67, 0
4, 40931, Note_on_c, 2, 76, 0
4, 41164, Note_on_c, 2, 76, 80
4, 41165, Note_on_c, 2, 69, 88
4, 41165, Note_on_c, 2, 72, 80
4, 41183, Note_on_c, 2, 72, 0
4, 41185, Note_on_c, 2, 69, 0
4, 41197, Note_on_c, 2, 76, 0
4, 41255, Note_on_c, 2, 69, 69
4, 41255, Note_on_c, 2, 72, 88
4, 41255, Note_on_c, 2, 76, 71
4, 41275, Note_on_c, 2, 69, 0
4, 41279, Note_on_c, 2, 72, 0
4, 41283, Note_on_c, 2, 76, 0
4, 41343, Note_on_c, 2, 78, 80
4, 41343, Note_on_c, 2, 73, 80
4, 41343, Note_on_c, 2, 69, 56
4, 41559, Note_on_c, 2, 73, 0
4, 41561, Note_on_c, 2, 69, 0
4, 41561, Note_on_c, 2, 78, 0
4, 41612, Note_on_c, 2, 78, 99
4, 41612, Note_on_c, 2, 73, 99
4, 41614, Note_on_c, 2, 69, 64
4, 41633, Note_on_c, 2, 73, 0
4, 41635, Note_on_c, 2, 69, 0
4, 41635, Note_on_c, 2, 78, 0
4, 41880, Note_on_c, 2, 73, 99
4, 41880, Note_on_c, 2, 78, 88
4, 41881, Note_on_c, 2, 69, 64
4, 41894, Note_on_c, 2, 73, 0
4, 41897, Note_on_c, 2, 69, 0
4, 41899, Note_on_c, 2, 78, 0
4, 41971, Note_on_c, 2, 73, 113
4, 41971, Note_on_c, 2, 78, 113
4, 41973, Note_on_c, 2, 69, 71
4, 41991, Note_on_c, 2, 73, 0
4, 41993, Note_on_c, 2, 69, 0
4, 41993, Note_on_c, 2, 78, 0
4, 42152, Note_on_c, 2, 71, 69
4, 42152, Note_on_c, 2, 74, 80
4, 42154, Note_on_c, 2, 79, 80
4, 42288, Note_on_c, 2, 71, 0
4, 42293, Note_on_c, 2, 79, 0
4, 42293, Note_on_c, 2, 74, 0
4, 42327, Note_on_c, 2, 79, 71
4, 42327, Note_on_c, 2, 74, 88
4, 42327, Note_on_c, 2, 71, 69
4, 42437, Note_on_c, 2, 71, 0
4, 42453, Note_on_c, 2, 74, 0
4, 42457, Note_on_c, 2, 79, 0
4, 42510, Note_on_c, 2, 76, 88
4, 42510, Note_on_c, 2, 73, 88
4, 42639, Note_on_c, 2, 73, 0
4, 42643, Note_on_c, 2, 76, 0
4, 42683, Note_on_c, 2, 73, 88
4, 42685, Note_on_c, 2, 76, 88
4, 42781, Note_on_c, 2, 76, 0
4, 42787, Note_on_c, 2, 73, 0
4, 42863, Note_on_c, 2, 78, 71
4, 42863, Note_on_c, 2, 69, 52
4, 42863, Note_on_c, 2, 74, 69
4, 43049, Note_on_c, 2, 74, 0
4, 43049, Note_on_c, 2, 69, 0
4, 43061, Note_on_c, 2, 78, 0
4, 43129, Note_on_c, 2, 79, 113
4, 43307, Note_on_c, 2, 78, 99
4, 43310, Note_on_c, 2, 79, 0
4, 43342, Note_on_c, 2, 78, 0
4, 43349, Note_on_c, 2, 76, 88
4, 43400, Note_on_c, 2, 74, 99
4, 43432, Note_on_c, 2, 76, 0
4, 43479, Note_on_c, 2, 74, 0
4, 43487, Note_on_c, 2, 69, 80
4, 43574, Note_on_c, 2, 69, 0
4, 43579, Note_on_c, 2, 79, 80
4, 43579, Note_on_c, 2, 74, 88
4, 43579, Note_on_c, 2, 71, 71
4, 43707, Note_on_c, 2, 71, 0
4, 43710, Note_on_c, 2, 79, 0
4, 43712, Note_on_c, 2, 74, 0
4, 43756, Note_on_c, 2, 79, 71
4, 43756, Note_on_c, 2, 74, 80
4, 43756, Note_on_c, 2, 71, 69
4, 43876, Note_on_c, 2, 71, 0
4, 43884, Note_on_c, 2, 74, 0
4, 43885, Note_on_c, 2, 79, 0
4, 43938, Note_on_c, 2, 73, 80
4, 43938, Note_on_c, 2, 76, 88
4, 44061, Note_on_c, 2, 73, 0
4, 44071, Note_on_c, 2, 76, 0
4, 44114, Note_on_c, 2, 76, 80
4, 44114, Note_on_c, 2, 73, 88
4, 44210, Note_on_c, 2, 76, 0
4, 44215, Note_on_c, 2, 73, 0
4, 44294, Note_on_c, 2, 69, 60
4, 44294, Note_on_c, 2, 78, 64
4, 44294, Note_on_c, 2, 74, 64
4, 44517, Note_on_c, 2, 74, 0
4, 44520, Note_on_c, 2, 69, 0
4, 44522, Note_on_c, 2, 78, 0
4, 44651, Note_on_c, 2, 75, 99
4, 44651, Note_on_c, 2, 71, 69
4, 44651, Note_on_c, 2, 78, 80
4, 44921, Note_on_c, 2, 71, 0
4, 44927, Note_on_c, 2, 75, 0
4, 44929, Note_on_c, 2, 78, 0
4, 45009, Note_on_c, 2, 79, 71
4, 45009, Note_on_c, 2, 74, 88
4, 45009, Note_on_c, 2, 71, 71
4, 45311, Note_on_c, 2, 79, 0
4, 45314, Note_on_c, 2, 74, 0
4, 45316, Note_on_c, 2, 71, 0
4, 45364, Note_on_c, 2, 69, 80
4, 45365, Note_on_c, 2, 78, 88
4, 45365, Note_on_c, 2, 74, 88
4, 45499, Note_on_c, 2, 69, 0
4, 45503, Note_on_c, 2, 78, 0
4, 45505, Note_on_c, 2, 74, 0
4, 45541, Note_on_c, 2, 74, 80
4, 45541, Note_on_c, 2, 69, 80
4, 45543, Note_on_c, 2, 78, 80
4, 45705, Note_on_c, 2, 78, 0
4, 45710, Note_on_c, 2, 69, 0
4, 45711, Note_on_c, 2, 74, 0
4, 45721, Note_on_c, 2, 68, 88
4, 45723, Note_on_c, 2, 76, 71
4, 45723, Note_on_c, 2, 71, 80
4, 47014, Note_on_c, 2, 71, 0
4, 47015, Note_on_c, 2, 68, 0
4, 47025, Note_on_c, 2, 76, 0
4, 47151, Note_on_c, 2, 72, 80
4, 47151, Note_on_c, 2, 76, 80
4, 47153, Note_on_c, 2, 79, 88
4, 47267, Note_on_c, 2, 79, 0
4, 47269, Note_on_c, 2, 76, 0
4, 47273, Note_on_c, 2, 72, 0
4, 47325, Note_on_c, 2, 76, 88
4, 47325, Note_on_c, 2, 79, 88
4, 47327, Note_on_c, 2, 72, 64
4, 47387, Note_on_c, 2, 72, 0
4, 47417, Note_on_c, 2, 72, 88
4, 47441, Note_on_c, 2, 76, 0
4, 47445, Note_on_c, 2, 79, 0
4, 47461, Note_on_c, 2, 72, 0
4, 47505, Note_on_c, 2, 76, 80
4, 47505, Note_on_c, 2, 79, 88
4, 47539, Note_on_c, 2, 79, 0
4, 47539, Note_on_c, 2, 76, 0
4, 47593, Note_on_c, 2, 79, 80
4, 47595, Note_on_c, 2, 76, 99
4, 47683, Note_on_c, 2, 72, 80
4, 47707, Note_on_c, 2, 76, 0
4, 47711, Note_on_c, 2, 79, 0
4, 47729, Note_on_c, 2, 72, 0
4, 47771, Note_on_c, 2, 79, 80
4, 47771, Note_on_c, 2, 76, 80
4, 47811, Note_on_c, 2, 76, 0
4, 47811, Note_on_c, 2, 79, 0
4, 47867, Note_on_c, 2, 78, 88
4, 47867, Note_on_c, 2, 73, 88
4, 47867, Note_on_c, 2, 76, 80
4, 47975, Note_on_c, 2, 76, 0
4, 47977, Note_on_c, 2, 73, 0
4, 47994, Note_on_c, 2, 78, 0
4, 48042, Note_on_c, 2, 78, 88
4, 48042, Note_on_c, 2, 76, 80
4, 48131, Note_on_c, 2, 73, 99
4, 48141, Note_on_c, 2, 76, 0
4, 48149, Note_on_c, 2, 78, 0
4, 48169, Note_on_c, 2, 73, 0
4, 48219, Note_on_c, 2, 78, 80
4, 48219, Note_on_c, 2, 76, 88
4, 48247, Note_on_c, 2, 76, 0
4, 48249, Note_on_c, 2, 78, 0
4, 48310, Note_on_c, 2, 78, 88
4, 48310, Note_on_c, 2, 76, 80
4, 48381, Note_on_c, 2, 76, 0
4, 48387, Note_on_c, 2, 78, 0
4, 48489, Note_on_c, 2, 78, 88
4, 48489, Note_on_c, 2, 76, 71
4, 48510, Note_on_c, 2, 76, 0
4, 48521, Note_on_c, 2, 78, 0
4, 48579, Note_on_c, 2, 83, 88
4, 48579, Note_on_c, 2, 79, 80
4, 48579, Note_on_c, 2, 76, 88
4, 48695, Note_on_c, 2, 76, 0
4, 48699, Note_on_c, 2, 83, 0
4, 48701, Note_on_c, 2, 79, 0
4, 48753, Note_on_c, 2, 76, 69
4, 48755, Note_on_c, 2, 79, 88
4, 48755, Note_on_c, 2, 83, 88
4, 48803, Note_on_c, 2, 76, 0
4, 48845, Note_on_c, 2, 76, 88
4, 48859, Note_on_c, 2, 79, 0
4, 48867, Note_on_c, 2, 83, 0
4, 48891, Note_on_c, 2, 76, 0
4, 48933, Note_on_c, 2, 76, 69
4, 48933, Note_on_c, 2, 79, 88
4, 48933, Note_on_c, 2, 83, 88
4, 48965, Note_on_c, 2, 83, 0
4, 48965, Note_on_c, 2, 79, 0
4, 48967, Note_on_c, 2, 76, 0
4, 49023, Note_on_c, 2, 83, 88
4, 49023, Note_on_c, 2, 76, 80
4, 49023, Note_on_c, 2, 79, 88
4, 49055, Note_on_c, 2, 76, 0
4, 49113, Note_on_c, 2, 76, 88
4, 49129, Note_on_c, 2, 79, 0
4, 49137, Note_on_c, 2, 83, 0
4, 49167, Note_on_c, 2, 76, 0
4, 49199, Note_on_c, 2, 79, 71
4, 49201, Note_on_c, 2, 83, 88
4, 49232, Note_on_c, 2, 83, 0
4, 49233, Note_on_c, 2, 79, 0
4, 49293, Note_on_c, 2, 76, 80
4, 49296, Note_on_c, 2, 78, 99
4, 49402, Note_on_c, 2, 76, 0
4, 49407, Note_on_c, 2, 78, 0
4, 49470, Note_on_c, 2, 78, 88
4, 49470, Note_on_c, 2, 76, 88
4, 49563, Note_on_c, 2, 76, 0
4, 49569, Note_on_c, 2, 78, 0
4, 49649, Note_on_c, 2, 78, 88
4, 49649, Note_on_c, 2, 76, 80
4, 49672, Note_on_c, 2, 76, 0
4, 49677, Note_on_c, 2, 78, 0
4, 49737, Note_on_c, 2, 78, 99
4, 49737, Note_on_c, 2, 76, 80
4, 49807, Note_on_c, 2, 76, 0
4, 49829, Note_on_c, 2, 78, 0
4, 49917, Note_on_c, 2, 76, 80
4, 49919, Note_on_c, 2, 78, 88
4, 49958, Note_on_c, 2, 76, 0
4, 49965, Note_on_c, 2, 78, 0
4, 50009, Note_on_c, 2, 72, 80
4, 50009, Note_on_c, 2, 76, 80
4, 50011, Note_on_c, 2, 79, 88
4, 50127, Note_on_c, 2, 79, 0
4, 50127, Note_on_c, 2, 76, 0
4, 50129, Note_on_c, 2, 72, 0
4, 50183, Note_on_c, 2, 72, 64
4, 50183, Note_on_c, 2, 76, 88
4, 50183, Note_on_c, 2, 79, 88
4, 50243, Note_on_c, 2, 72, 0
4, 50273, Note_on_c, 2, 72, 88
4, 50297, Note_on_c, 2, 76, 0
4, 50303, Note_on_c, 2, 79, 0
4, 50315, Note_on_c, 2, 72, 0
4, 50363, Note_on_c, 2, 76, 80
4, 50363, Note_on_c, 2, 79, 88
4, 50395, Note_on_c, 2, 76, 0
4, 50397, Note_on_c, 2, 79, 0
4, 50449, Note_on_c, 2, 79, 80
4, 50451, Note_on_c, 2, 76, 99
4, 50541, Note_on_c, 2, 72, 80
4, 50567, Note_on_c, 2, 76, 0
4, 50571, Note_on_c, 2, 79, 0
4, 50586, Note_on_c, 2, 72, 0
4, 50631, Note_on_c, 2, 79, 80
4, 50631, Note_on_c, 2, 76, 80
4, 50667, Note_on_c, 2, 79, 0
4, 50669, Note_on_c, 2, 76, 0
4, 50723, Note_on_c, 2, 78, 88
4, 50723, Note_on_c, 2, 76, 80
4, 50832, Note_on_c, 2, 76, 0
4, 50847, Note_on_c, 2, 78, 0
4, 50897, Note_on_c, 2, 78, 88
4, 50897, Note_on_c, 2, 76, 80
4, 51000, Note_on_c, 2, 76, 0
4, 51006, Note_on_c, 2, 78, 0
4, 51077, Note_on_c, 2, 76, 88
4, 51080, Note_on_c, 2, 78, 80
4, 51107, Note_on_c, 2, 78, 0
4, 51107, Note_on_c, 2, 76, 0
4, 51165, Note_on_c, 2, 76, 80
4, 51167, Note_on_c, 2, 78, 88
4, 51240, Note_on_c, 2, 76, 0
4, 51243, Note_on_c, 2, 78, 0
4, 51345, Note_on_c, 2, 78, 88
4, 51345, Note_on_c, 2, 76, 71
4, 51365, Note_on_c, 2, 76, 0
4, 51377, Note_on_c, 2, 78, 0
4, 51435, Note_on_c, 2, 83, 88
4, 51435, Note_on_c, 2, 79, 80
4, 51435, Note_on_c, 2, 76, 88
4, 51555, Note_on_c, 2, 76, 0
4, 51557, Note_on_c, 2, 83, 0
4, 51559, Note_on_c, 2, 79, 0
4, 51613, Note_on_c, 2, 79, 88
4, 51613, Note_on_c, 2, 83, 88
4, 51613, Note_on_c, 2, 76, 69
4, 51661, Note_on_c, 2, 76, 0
4, 51701, Note_on_c, 2, 76, 88
4, 51717, Note_on_c, 2, 79, 0
4, 51723, Note_on_c, 2, 83, 0
4, 51747, Note_on_c, 2, 76, 0
4, 51791, Note_on_c, 2, 76, 69
4, 51791, Note_on_c, 2, 79, 88
4, 51791, Note_on_c, 2, 83, 88
4, 51821, Note_on_c, 2, 83, 0
4, 51821, Note_on_c, 2, 79, 0
4, 51823, Note_on_c, 2, 76, 0
4, 51879, Note_on_c, 2, 83, 88
4, 51879, Note_on_c, 2, 76, 80
4, 51879, Note_on_c, 2, 79, 88
4, 51909, Note_on_c, 2, 76, 0
4, 51967, Note_on_c, 2, 76, 88
4, 51983, Note_on_c, 2, 79, 0
4, 51989, Note_on_c, 2, 83, 0
4, 52025, Note_on_c, 2, 76, 0
4, 52059, Note_on_c, 2, 83, 88
4, 52059, Note_on_c, 2, 79, 71
4, 52091, Note_on_c, 2, 79, 0
4, 52091, Note_on_c, 2, 83, 0
4, 52151, Note_on_c, 2, 78, 99
4, 52151, Note_on_c, 2, 76, 80
4, 52261, Note_on_c, 2, 76, 0
4, 52269, Note_on_c, 2, 78, 0
4, 52326, Note_on_c, 2, 76, 88
4, 52327, Note_on_c, 2, 78, 88
4, 52421, Note_on_c, 2, 76, 0
4, 52423, Note_on_c, 2, 78, 0
4, 52505, Note_on_c, 2, 76, 80
4, 52508, Note_on_c, 2, 78, 88
4, 52529, Note_on_c, 2, 76, 0
4, 52536, Note_on_c, 2, 78, 0
4, 52595, Note_on_c, 2, 78, 99
4, 52595, Note_on_c, 2, 76, 80
4, 52663, Note_on_c, 2, 76, 0
4, 52685, Note_on_c, 2, 78, 0
4, 52773, Note_on_c, 2, 76, 80
4, 52775, Note_on_c, 2, 78, 88
4, 52813, Note_on_c, 2, 76, 0
4, 52821, Note_on_c, 2, 78, 0
4, 52865, Note_on_c, 2, 74, 80
4, 52865, Note_on_c, 2, 71, 69
4, 52868, Note_on_c, 2, 79, 80
4, 53003, Note_on_c, 2, 71, 0
4, 53007, Note_on_c, 2, 79, 0
4, 53007, Note_on_c, 2, 74, 0
4, 53041, Note_on_c, 2, 74, 88
4, 53041, Note_on_c, 2, 71, 69
4, 53043, Note_on_c, 2, 79, 71
4, 53153, Note_on_c, 2, 71, 0
4, 53167, Note_on_c, 2, 74, 0
4, 53169, Note_on_c, 2, 79, 0
4, 53221, Note_on_c, 2, 76, 88
4, 53357, Note_on_c, 2, 76, 0
4, 53399, Note_on_c, 2, 76, 88
4, 53499, Note_on_c, 2, 76, 0
4, 53579, Note_on_c, 2, 74, 69
4, 53582, Note_on_c, 2, 78, 71
4, 53582, Note_on_c, 2, 69, 52
4, 53763, Note_on_c, 2, 69, 0
4, 53765, Note_on_c, 2, 74, 0
4, 53775, Note_on_c, 2, 78, 0
4, 53845, Note_on_c, 2, 79, 113
4, 54019, Note_on_c, 2, 78, 99
4, 54021, Note_on_c, 2, 79, 0
4, 54061, Note_on_c, 2, 78, 0
4, 54067, Note_on_c, 2, 76, 88
4, 54113, Note_on_c, 2, 74, 99
4, 54145, Note_on_c, 2, 76, 0
4, 54195, Note_on_c, 2, 74, 0
4, 54203, Note_on_c, 2, 69, 80
4, 54287, Note_on_c, 2, 69, 0
4, 54293, Note_on_c, 2, 74, 88
4, 54293, Note_on_c, 2, 71, 71
4, 54296, Note_on_c, 2, 79, 80
4, 54419, Note_on_c, 2, 71, 0
4, 54423, Note_on_c, 2, 79, 0
4, 54425, Note_on_c, 2, 74, 0
4, 54469, Note_on_c, 2, 79, 71
4, 54469, Note_on_c, 2, 74, 80
4, 54469, Note_on_c, 2, 71, 69
4, 54591, Note_on_c, 2, 71, 0
4, 54597, Note_on_c, 2, 74, 0
4, 54599, Note_on_c, 2, 79, 0
4, 54649, Note_on_c, 2, 76, 88
4, 54785, Note_on_c, 2, 76, 0
4, 54827, Note_on_c, 2, 76, 80
4, 54923, Note_on_c, 2, 76, 0
4, 55009, Note_on_c, 2, 78, 71
4, 55009, Note_on_c, 2, 69, 52
4, 55009, Note_on_c, 2, 74, 69
4, 55191, Note_on_c, 2, 69, 0
4, 55194, Note_on_c, 2, 74, 0
4, 55206, Note_on_c, 2, 78, 0
4, 55274, Note_on_c, 2, 79, 113
4, 55451, Note_on_c, 2, 78, 99
4, 55453, Note_on_c, 2, 79, 0
4, 55489, Note_on_c, 2, 78, 0
4, 55497, Note_on_c, 2, 76, 88
4, 55541, Note_on_c, 2, 74, 99
4, 55573, Note_on_c, 2, 76, 0
4, 55621, Note_on_c, 2, 74, 0
4, 55631, Note_on_c, 2, 69, 80
4, 55715, Note_on_c, 2, 69, 0
4, 55723, Note_on_c, 2, 72, 64
4, 55723, Note_on_c, 2, 77, 80
4, 55861, Note_on_c, 2, 77, 0
4, 55861, Note_on_c, 2, 72, 0
4, 55897, Note_on_c, 2, 72, 69
4, 55897, Note_on_c, 2, 77, 80
4, 56029, Note_on_c, 2, 77, 0
4, 56035, Note_on_c, 2, 72, 0
4, 56077, Note_on_c, 2, 72, 56
4, 56077, Note_on_c, 2, 79, 88
4, 56077, Note_on_c, 2, 76, 80
4, 56213, Note_on_c, 2, 79, 0
4, 56215, Note_on_c, 2, 76, 0
4, 56215, Note_on_c, 2, 72, 0
4, 56255, Note_on_c, 2, 72, 69
4, 56255, Note_on_c, 2, 76, 80
4, 56257, Note_on_c, 2, 79, 80
4, 56379, Note_on_c, 2, 76, 0
4, 56387, Note_on_c, 2, 79, 0
4, 56387, Note_on_c, 2, 72, 0
4, 56437, Note_on_c, 2, 74, 80
4, 56437, Note_on_c, 2, 78, 80
4, 56439, Note_on_c, 2, 69, 64
4, 56555, Note_on_c, 2, 69, 0
4, 56613, Note_on_c, 2, 69, 80
4, 56628, Note_on_c, 2, 78, 0
4, 56629, Note_on_c, 2, 74, 0
4, 56702, Note_on_c, 2, 79, 88
4, 56703, Note_on_c, 2, 74, 71
4, 56801, Note_on_c, 2, 69, 0
4, 56877, Note_on_c, 2, 69, 80
4, 56905, Note_on_c, 2, 74, 0
4, 56907, Note_on_c, 2, 79, 0
4, 56971, Note_on_c, 2, 74, 64
4, 56971, Note_on_c, 2, 78, 88
4, 57009, Note_on_c, 2, 69, 0
4, 57059, Note_on_c, 2, 69, 69
4, 57079, Note_on_c, 2, 78, 0
4, 57089, Note_on_c, 2, 74, 0
4, 57095, Note_on_c, 2, 69, 0
4, 57151, Note_on_c, 2, 72, 64
4, 57151, Note_on_c, 2, 77, 80
4, 57293, Note_on_c, 2, 77, 0
4, 57293, Note_on_c, 2, 72, 0
4, 57325, Note_on_c, 2, 72, 69
4, 57325, Note_on_c, 2, 77, 80
4, 57457, Note_on_c, 2, 77, 0
4, 57465, Note_on_c, 2, 72, 0
4, 57507, Note_on_c, 2, 79, 88
4, 57507, Note_on_c, 2, 76, 80
4, 57510, Note_on_c, 2, 72, 56
4, 57641, Note_on_c, 2, 79, 0
4, 57643, Note_on_c, 2, 72, 0
4, 57643, Note_on_c, 2, 76, 0
4, 57685, Note_on_c, 2, 79, 80
4, 57685, Note_on_c, 2, 72, 69
4, 57685, Note_on_c, 2, 76, 80
4, 57811, Note_on_c, 2, 76, 0
4, 57817, Note_on_c, 2, 72, 0
4, 57817, Note_on_c, 2, 79, 0
4, 57867, Note_on_c, 2, 69, 64
4, 57867, Note_on_c, 2, 74, 80
4, 57867, Note_on_c, 2, 78, 80
4, 57985, Note_on_c, 2, 69, 0
4, 58041, Note_on_c, 2, 69, 80
4, 58057, Note_on_c, 2, 78, 0
4, 58057, Note_on_c, 2, 74, 0
4, 58131, Note_on_c, 2, 74, 71
4, 58131, Note_on_c, 2, 79, 88
4, 58229, Note_on_c, 2, 69, 0
4, 58307, Note_on_c, 2, 69, 80
4, 58333, Note_on_c, 2, 74, 0
4, 58335, Note_on_c, 2, 79, 0
4, 58399, Note_on_c, 2, 78, 88
4, 58401, Note_on_c, 2, 74, 64
4, 58440, Note_on_c, 2, 69, 0
4, 58489, Note_on_c, 2, 69, 69
4, 58509, Note_on_c, 2, 78, 0
4, 58517, Note_on_c, 2, 74, 0
4, 58525, Note_on_c, 2, 69, 0
4, 58581, Note_on_c, 2, 72, 64
4, 58581, Note_on_c, 2, 77, 80
4, 58721, Note_on_c, 2, 72, 0
4, 58723, Note_on_c, 2, 77, 0
4, 58755, Note_on_c, 2, 72, 69
4, 58755, Note_on_c, 2, 77, 80
4, 58881, Note_on_c, 2, 77, 0
4, 58887, Note_on_c, 2, 72, 0
4, 58937, Note_on_c, 2, 72, 56
4, 58937, Note_on_c, 2, 79, 88
4, 58937, Note_on_c, 2, 76, 80
4, 59069, Note_on_c, 2, 79, 0
4, 59071, Note_on_c, 2, 76, 0
4, 59071, Note_on_c, 2, 72, 0
4, 59113, Note_on_c, 2, 79, 80
4, 59113, Note_on_c, 2, 72, 69
4, 59113, Note_on_c, 2, 76, 80
4, 59239, Note_on_c, 2, 76, 0
4, 59247, Note_on_c, 2, 79, 0
4, 59251, Note_on_c, 2, 72, 0
4, 59291, Note_on_c, 2, 69, 64
4, 59291, Note_on_c, 2, 74, 80
4, 59291, Note_on_c, 2, 78, 80
4, 59413, Note_on_c, 2, 69, 0
4, 59471, Note_on_c, 2, 69, 80
4, 59487, Note_on_c, 2, 78, 0
4, 59487, Note_on_c, 2, 74, 0
4, 59559, Note_on_c, 2, 74, 71
4, 59559, Note_on_c, 2, 79, 88
4, 59657, Note_on_c, 2, 69, 0
4, 59736, Note_on_c, 2, 69, 80
4, 59759, Note_on_c, 2, 74, 0
4, 59763, Note_on_c, 2, 79, 0
4, 59825, Note_on_c, 2, 78, 88
4, 59828, Note_on_c, 2, 74, 64
4, 59863, Note_on_c, 2, 69, 0
4, 59917, Note_on_c, 2, 69, 69
4, 59939, Note_on_c, 2, 78, 0
4, 59947, Note_on_c, 2, 74, 0
4, 59953, Note_on_c, 2, 69, 0
4, 60009, Note_on_c, 2, 72, 64
4, 60009, Note_on_c, 2, 77, 80
4, 60151, Note_on_c, 2, 77, 0
4, 60151, Note_on_c, 2, 72, 0
4, 60183, Note_on_c, 2, 77, 80
4, 60185, Note_on_c, 2, 72, 69
4, 60315, Note_on_c, 2, 77, 0
4, 60321, Note_on_c, 2, 72, 0
4, 60363, Note_on_c, 2, 72, 56
4, 60363, Note_on_c, 2, 79, 88
4, 60363, Note_on_c, 2, 76, 80
4, 60501, Note_on_c, 2, 76, 0
4, 60501, Note_on_c, 2, 79, 0
4, 60501, Note_on_c, 2, 72, 0
4, 60541, Note_on_c, 2, 72, 69
4, 60541, Note_on_c, 2, 76, 80
4, 60543, Note_on_c, 2, 79, 80
4, 60667, Note_on_c, 2, 76, 0
4, 60677, Note_on_c, 2, 79, 0
4, 60679, Note_on_c, 2, 72, 0
4, 60721, Note_on_c, 2, 78, 99
4, 60721, Note_on_c, 2, 69, 80
4, 60721, Note_on_c, 2, 74, 88
4, 60937, Note_on_c, 2, 74, 0
4, 60937, Note_on_c, 2, 78, 0
4, 60947, Note_on_c, 2, 69, 0
4, 62151, Note_on_c, 2, 71, 88
4, 62151, Note_on_c, 2, 83, 88
4, 62237, Note_on_c, 2, 67, 71
4, 62237, Note_on_c, 2, 79, 71
4, 62248, Note_on_c, 2, 71, 0
4, 62249, Note_on_c, 2, 83, 0
4, 62281, Note_on_c, 2, 69, 60
4, 62295, Note_on_c, 2, 67, 0
4, 62295, Note_on_c, 2, 79, 0
4, 62329, Note_on_c, 2, 71, 43
4, 62329, Note_on_c, 2, 83, 43
4, 62389, Note_on_c, 2, 69, 0
4, 62406, Note_on_c, 2, 83, 0
4, 62406, Note_on_c, 2, 71, 0
4, 62417, Note_on_c, 2, 74, 69
4, 62417, Note_on_c, 2, 86, 69
4, 62509, Note_on_c, 2, 72, 56
4, 62509, Note_on_c, 2, 84, 56
4, 62525, Note_on_c, 2, 86, 0
4, 62525, Note_on_c, 2, 74, 0
4, 62593, Note_on_c, 2, 83, 56
4, 62595, Note_on_c, 2, 71, 56
4, 62599, Note_on_c, 2, 72, 0
4, 62599, Note_on_c, 2, 84, 0
4, 62685, Note_on_c, 2, 69, 60
4, 62711, Note_on_c, 2, 83, 0
4, 62711, Note_on_c, 2, 71, 0
4, 62774, Note_on_c, 2, 67, 71
4, 62774, Note_on_c, 2, 79, 71
4, 62776, Note_on_c, 2, 69, 0
4, 62837, Note_on_c, 2, 79, 0
4, 62837, Note_on_c, 2, 67, 0
4, 62867, Note_on_c, 2, 69, 80
4, 62953, Note_on_c, 2, 65, 69
4, 62953, Note_on_c, 2, 77, 69
4, 62961, Note_on_c, 2, 69, 0
4, 62997, Note_on_c, 2, 67, 64
4, 62997, Note_on_c, 2, 79, 64
4, 63013, Note_on_c, 2, 77, 0
4, 63013, Note_on_c, 2, 65, 0
4, 63043, Note_on_c, 2, 69, 64
4, 63052, Note_on_c, 2, 67, 0
4, 63053, Note_on_c, 2, 79, 0
4, 63131, Note_on_c, 2, 77, 69
4, 63131, Note_on_c, 2, 89, 69
4, 63135, Note_on_c, 2, 69, 0
4, 63193, Note_on_c, 2, 77, 0
4, 63195, Note_on_c, 2, 89, 0
4, 63222, Note_on_c, 2, 74, 36
4, 63222, Note_on_c, 2, 86, 36
4, 63263, Note_on_c, 2, 72, 71
4, 63263, Note_on_c, 2, 84, 71
4, 63299, Note_on_c, 2, 86, 0
4, 63301, Note_on_c, 2, 74, 0
4, 63307, Note_on_c, 2, 70, 80
4, 63307, Note_on_c, 2, 82, 80
4, 63321, Note_on_c, 2, 72, 0
4, 63321, Note_on_c, 2, 84, 0
4, 63351, Note_on_c, 2, 70, 0
4, 63353, Note_on_c, 2, 82, 0
4, 63353, Note_on_c, 2, 79, 64
4, 63355, Note_on_c, 2, 67, 64
4, 63397, Note_on_c, 2, 68, 88
4, 63397, Note_on_c, 2, 80, 88
4, 63402, Note_on_c, 2, 67, 0
4, 63402, Note_on_c, 2, 79, 0
4, 63485, Note_on_c, 2, 68, 0
4, 63485, Note_on_c, 2, 80, 0
4, 63490, Note_on_c, 2, 67, 69
4, 63490, Note_on_c, 2, 79, 69
4, 63551, Note_on_c, 2, 79, 0
4, 63551, Note_on_c, 2, 67, 0
4, 63581, Note_on_c, 2, 68, 99
4, 63581, Note_on_c, 2, 80, 99
4, 63654, Note_on_c, 2, 68, 0
4, 63655, Note_on_c, 2, 80, 0
4, 63665, Note_on_c, 2, 79, 69
4, 63667, Note_on_c, 2, 67, 69
4, 63705, Note_on_c, 2, 67, 0
4, 63705, Note_on_c, 2, 79, 0
4, 63709, Note_on_c, 2, 68, 88
4, 63709, Note_on_c, 2, 80, 88
4, 63755, Note_on_c, 2, 70, 71
4, 63755, Note_on_c, 2, 82, 71
4, 63760, Note_on_c, 2, 80, 0
4, 63760, Note_on_c, 2, 68, 0
4, 63829, Note_on_c, 2, 70, 0
4, 63829, Note_on_c, 2, 82, 0
4, 63843, Note_on_c, 2, 84, 69
4, 63845, Note_on_c, 2, 72, 69
4, 63937, Note_on_c, 2, 70, 80
4, 63937, Note_on_c, 2, 82, 80
4, 63953, Note_on_c, 2, 72, 0
4, 63953, Note_on_c, 2, 84, 0
4, 63979, Note_on_c, 2, 68, 88
4, 63979, Note_on_c, 2, 80, 88
4, 64001, Note_on_c, 2, 70, 0
4, 64001, Note_on_c, 2, 82, 0
4, 64021, Note_on_c, 2, 79, 80
4, 64023, Note_on_c, 2, 67, 80
4, 64027, Note_on_c, 2, 68, 0
4, 64027, Note_on_c, 2, 80, 0
4, 64067, Note_on_c, 2, 77, 71
4, 64069, Note_on_c, 2, 65, 71
4, 64079, Note_on_c, 2, 79, 0
4, 64079, Note_on_c, 2, 67, 0
4, 64099, Note_on_c, 2, 77, 0
4, 64099, Note_on_c, 2, 65, 0
4, 64113, Note_on_c, 2, 63, 113
4, 64113, Note_on_c, 2, 75, 113
4, 64189, Note_on_c, 2, 75, 0
4, 64189, Note_on_c, 2, 63, 0
4, 64203, Note_on_c, 2, 65, 64
4, 64203, Note_on_c, 2, 77, 64
4, 64263, Note_on_c, 2, 65, 0
4, 64265, Note_on_c, 2, 77, 0
4, 64293, Note_on_c, 2, 69, 99
4, 65739, Note_on_c, 2, 69, 0
4, 65739, End_track
5, 0, Start_track
5, 0, MIDI_port, 0
5, 0, Title_t, "REMIXED             "
5, 0, Program_c, 3, 29
5, 28579, Pitch_bend_c, 3, 8832
5, 28579, Note_on_c, 3, 62, 110
5, 28594, Pitch_bend_c, 3, 12800
5, 28594, Pitch_bend_c, 3, 10624
5, 28601, Pitch_bend_c, 3, 14464
5, 28605, Pitch_bend_c, 3, 15872
5, 28609, Pitch_bend_c, 3, 16256
5, 28641, Note_on_c, 3, 62, 0
5, 28653, Pitch_bend_c, 3, 14848
5, 28655, Pitch_bend_c, 3, 12800
5, 28663, Pitch_bend_c, 3, 11008
5, 28665, Pitch_bend_c, 3, 9088
5, 28671, Pitch_bend_c, 3, 8192
5, 28699, Note_on_c, 3, 62, 110
5, 28705, Pitch_bend_c, 3, 9088
5, 28711, Pitch_bend_c, 3, 10880
5, 28713, Pitch_bend_c, 3, 12800
5, 28719, Pitch_bend_c, 3, 14336
5, 28721, Pitch_bend_c, 3, 15616
5, 28729, Pitch_bend_c, 3, 16256
5, 28763, Note_on_c, 3, 62, 0
5, 28773, Pitch_bend_c, 3, 15744
5, 28775, Pitch_bend_c, 3, 15232
5, 28781, Pitch_bend_c, 3, 14464
5, 28783, Pitch_bend_c, 3, 13568
5, 28787, Pitch_bend_c, 3, 12288
5, 28791, Pitch_bend_c, 3, 10880
5, 28795, Pitch_bend_c, 3, 9216
5, 28799, Pitch_bend_c, 3, 8192
5, 28818, Note_on_c, 3, 62, 110
5, 28829, Pitch_bend_c, 3, 8960
5, 28835, Pitch_bend_c, 3, 10368
5, 28837, Pitch_bend_c, 3, 11520
5, 28843, Pitch_bend_c, 3, 13056
5, 28847, Pitch_bend_c, 3, 14592
5, 28853, Pitch_bend_c, 3, 15872
5, 28859, Pitch_bend_c, 3, 16256
5, 28877, Note_on_c, 3, 62, 0
5, 28885, Pitch_bend_c, 3, 15488
5, 28889, Pitch_bend_c, 3, 14080
5, 28893, Pitch_bend_c, 3, 12032
5, 28897, Pitch_bend_c, 3, 9472
5, 28901, Pitch_bend_c, 3, 8192
5, 28938, Note_on_c, 3, 62, 110
5, 28945, Pitch_bend_c, 3, 8576
5, 28949, Pitch_bend_c, 3, 9856
5, 28953, Pitch_bend_c, 3, 11392
5, 28959, Pitch_bend_c, 3, 12800
5, 28963, Pitch_bend_c, 3, 14208
5, 28965, Pitch_bend_c, 3, 15104
5, 28969, Pitch_bend_c, 3, 15744
5, 28973, Pitch_bend_c, 3, 16256
5, 29055, Pitch_bend_c, 3, 16128
5, 29061, Pitch_bend_c, 3, 16000
5, 29065, Pitch_bend_c, 3, 15872
5, 29069, Pitch_bend_c, 3, 15616
5, 29073, Pitch_bend_c, 3, 15488
5, 29075, Pitch_bend_c, 3, 15104
5, 29081, Pitch_bend_c, 3, 14720
5, 29087, Pitch_bend_c, 3, 14080
5, 29089, Pitch_bend_c, 3, 13568
5, 29093, Pitch_bend_c, 3, 13056
5, 29097, Pitch_bend_c, 3, 12544
5, 29099, Pitch_bend_c, 3, 12160
5, 29105, Pitch_bend_c, 3, 11776
5, 29111, Pitch_bend_c, 3, 11392
5, 29115, Pitch_bend_c, 3, 11008
5, 29119, Pitch_bend_c, 3, 10624
5, 29127, Pitch_bend_c, 3, 9856
5, 29129, Pitch_bend_c, 3, 8960
5, 29131, Pitch_bend_c, 3, 8192
5, 29169, Note_on_c, 3, 62, 0
5, 29295, Note_on_c, 3, 62, 110
5, 29309, Pitch_bend_c, 3, 9088
5, 29311, Pitch_bend_c, 3, 10240
5, 29317, Pitch_bend_c, 3, 11648
5, 29323, Pitch_bend_c, 3, 13184
5, 29325, Pitch_bend_c, 3, 14720
5, 29329, Pitch_bend_c, 3, 16000
5, 29333, Pitch_bend_c, 3, 16256
5, 29335, Note_on_c, 3, 62, 0
5, 29379, Pitch_bend_c, 3, 15360
5, 29383, Pitch_bend_c, 3, 12672
5, 29387, Pitch_bend_c, 3, 9856
5, 29393, Pitch_bend_c, 3, 8192
5, 29411, Note_on_c, 3, 62, 110
5, 29427, Pitch_bend_c, 3, 8832
5, 29433, Pitch_bend_c, 3, 10368
5, 29439, Pitch_bend_c, 3, 12032
5, 29443, Pitch_bend_c, 3, 13952
5, 29447, Pitch_bend_c, 3, 15744
5, 29449, Pitch_bend_c, 3, 16256
5, 29465, Note_on_c, 3, 62, 0
5, 29491, Pitch_bend_c, 3, 14976
5, 29495, Pitch_bend_c, 3, 12672
5, 29499, Pitch_bend_c, 3, 9856
5, 29503, Pitch_bend_c, 3, 8192
5, 29532, Note_on_c, 3, 62, 110
5, 29534, Pitch_bend_c, 3, 8960
5, 29543, Pitch_bend_c, 3, 11392
5, 29547, Pitch_bend_c, 3, 14080
5, 29551, Pitch_bend_c, 3, 16256
5, 29582, Note_on_c, 3, 62, 0
5, 29599, Pitch_bend_c, 3, 14848
5, 29604, Pitch_bend_c, 3, 12032
5, 29605, Pitch_bend_c, 3, 9344
5, 29612, Pitch_bend_c, 3, 8192
5, 29647, Pitch_bend_c, 3, 8320
5, 29647, Note_on_c, 3, 62, 110
5, 29656, Pitch_bend_c, 3, 10240
5, 29658, Pitch_bend_c, 3, 12544
5, 29665, Pitch_bend_c, 3, 14848
5, 29667, Pitch_bend_c, 3, 16000
5, 29679, Pitch_bend_c, 3, 16256
5, 29755, Pitch_bend_c, 3, 16128
5, 29759, Pitch_bend_c, 3, 16000
5, 29763, Pitch_bend_c, 3, 15872
5, 29765, Pitch_bend_c, 3, 15744
5, 29769, Pitch_bend_c, 3, 15616
5, 29773, Pitch_bend_c, 3, 15360
5, 29777, Pitch_bend_c, 3, 15232
5, 29783, Pitch_bend_c, 3, 14976
5, 29787, Pitch_bend_c, 3, 14848
5, 29791, Pitch_bend_c, 3, 14592
5, 29797, Pitch_bend_c, 3, 14336
5, 29799, Pitch_bend_c, 3, 13952
5, 29803, Pitch_bend_c, 3, 13440
5, 29807, Pitch_bend_c, 3, 12800
5, 29811, Pitch_bend_c, 3, 12032
5, 29815, Pitch_bend_c, 3, 11136
5, 29817, Pitch_bend_c, 3, 10368
5, 29825, Pitch_bend_c, 3, 9728
5, 29832, Pitch_bend_c, 3, 9216
5, 29833, Pitch_bend_c, 3, 8704
5, 29837, Pitch_bend_c, 3, 8192
5, 29841, Note_on_c, 3, 62, 0
5, 30009, Note_on_c, 3, 67, 110
5, 30014, Pitch_bend_c, 3, 8576
5, 30015, Pitch_bend_c, 3, 11008
5, 30021, Pitch_bend_c, 3, 14208
5, 30027, Pitch_bend_c, 3, 16256
5, 30073, Pitch_bend_c, 3, 16128
5, 30079, Pitch_bend_c, 3, 13568
5, 30083, Pitch_bend_c, 3, 10624
5, 30085, Note_on_c, 3, 67, 0
5, 30087, Pitch_bend_c, 3, 8192
5, 30123, Note_on_c, 3, 67, 110
5, 30129, Pitch_bend_c, 3, 10368
5, 30137, Pitch_bend_c, 3, 15872
5, 30137, Pitch_bend_c, 3, 13184
5, 30145, Pitch_bend_c, 3, 16256
5, 30197, Note_on_c, 3, 67, 0
5, 30197, Pitch_bend_c, 3, 16000
5, 30205, Pitch_bend_c, 3, 13952
5, 30209, Pitch_bend_c, 3, 11520
5, 30213, Pitch_bend_c, 3, 9088
5, 30215, Pitch_bend_c, 3, 8192
5, 30243, Note_on_c, 3, 67, 110
5, 30253, Pitch_bend_c, 3, 8576
5, 30261, Pitch_bend_c, 3, 10496
5, 30263, Pitch_bend_c, 3, 12800
5, 30267, Pitch_bend_c, 3, 14976
5, 30273, Pitch_bend_c, 3, 16256
5, 30307, Note_on_c, 3, 67, 0
5, 30313, Pitch_bend_c, 3, 14848
5, 30315, Pitch_bend_c, 3, 12800
5, 30323, Pitch_bend_c, 3, 10112
5, 30325, Pitch_bend_c, 3, 8320
5, 30329, Pitch_bend_c, 3, 8192
5, 30363, Note_on_c, 3, 67, 110
5, 30379, Pitch_bend_c, 3, 10368
5, 30379, Pitch_bend_c, 3, 8832
5, 30383, Pitch_bend_c, 3, 11904
5, 30387, Pitch_bend_c, 3, 13568
5, 30393, Pitch_bend_c, 3, 15232
5, 30397, Pitch_bend_c, 3, 16256
5, 30507, Pitch_bend_c, 3, 15488
5, 30511, Pitch_bend_c, 3, 14336
5, 30515, Pitch_bend_c, 3, 13184
5, 30519, Pitch_bend_c, 3, 12032
5, 30523, Pitch_bend_c, 3, 11264
5, 30527, Pitch_bend_c, 3, 10752
5, 30533, Pitch_bend_c, 3, 9984
5, 30537, Pitch_bend_c, 3, 9344
5, 30541, Pitch_bend_c, 3, 8576
5, 30545, Pitch_bend_c, 3, 8192
5, 30555, Note_on_c, 3, 67, 0
5, 30721, Pitch_bend_c, 3, 8320
5, 30721, Note_on_c, 3, 67, 110
5, 30734, Pitch_bend_c, 3, 9600
5, 30738, Pitch_bend_c, 3, 11136
5, 30742, Pitch_bend_c, 3, 12928
5, 30751, Pitch_bend_c, 3, 16256
5, 30751, Pitch_bend_c, 3, 14720
5, 30787, Note_on_c, 3, 67, 0
5, 30795, Pitch_bend_c, 3, 15616
5, 30799, Pitch_bend_c, 3, 13440
5, 30803, Pitch_bend_c, 3, 10880
5, 30808, Pitch_bend_c, 3, 8704
5, 30811, Pitch_bend_c, 3, 8192
5, 30841, Note_on_c, 3, 67, 110
5, 30853, Pitch_bend_c, 3, 8320
5, 30855, Pitch_bend_c, 3, 9600
5, 30863, Pitch_bend_c, 3, 11520
5, 30865, Pitch_bend_c, 3, 13312
5, 30869, Pitch_bend_c, 3, 15104
5, 30875, Pitch_bend_c, 3, 16256
5, 30897, Note_on_c, 3, 67, 0
5, 30911, Pitch_bend_c, 3, 16000
5, 30913, Pitch_bend_c, 3, 14464
5, 30920, Pitch_bend_c, 3, 12288
5, 30923, Pitch_bend_c, 3, 9856
5, 30929, Pitch_bend_c, 3, 8192
5, 30959, Note_on_c, 3, 67, 110
5, 30969, Pitch_bend_c, 3, 9216
5, 30973, Pitch_bend_c, 3, 11392
5, 30979, Pitch_bend_c, 3, 13824
5, 30984, Pitch_bend_c, 3, 15488
5, 30987, Pitch_bend_c, 3, 16256
5, 31012, Note_on_c, 3, 67, 0
5, 31026, Pitch_bend_c, 3, 15104
5, 31030, Pitch_bend_c, 3, 12928
5, 31034, Pitch_bend_c, 3, 10368
5, 31038, Pitch_bend_c, 3, 8320
5, 31041, Pitch_bend_c, 3, 8192
5, 31080, Note_on_c, 3, 67, 110
5, 31093, Pitch_bend_c, 3, 8448
5, 31095, Pitch_bend_c, 3, 9600
5, 31099, Pitch_bend_c, 3, 11136
5, 31101, Pitch_bend_c, 3, 12928
5, 31107, Pitch_bend_c, 3, 14848
5, 31109, Pitch_bend_c, 3, 16128
5, 31117, Pitch_bend_c, 3, 16256
5, 31211, Pitch_bend_c, 3, 14976
5, 31213, Pitch_bend_c, 3, 13056
5, 31219, Pitch_bend_c, 3, 11136
5, 31221, Pitch_bend_c, 3, 9344
5, 31227, Pitch_bend_c, 3, 8192
5, 31232, Note_on_c, 3, 67, 0
5, 31438, Note_on_c, 3, 60, 110
5, 31515, Note_on_c, 3, 60, 0
5, 31555, Note_on_c, 3, 62, 110
5, 31627, Note_on_c, 3, 62, 0
5, 31671, Note_on_c, 3, 64, 110
5, 31753, Note_on_c, 3, 64, 0
5, 31793, Note_on_c, 3, 66, 110
5, 31881, Note_on_c, 3, 66, 0
5, 31911, Note_on_c, 3, 67, 110
5, 31979, Note_on_c, 3, 67, 0
5, 32031, Note_on_c, 3, 69, 110
5, 32097, Note_on_c, 3, 69, 0
5, 32153, Note_on_c, 3, 72, 110
5, 32245, Note_on_c, 3, 72, 0
5, 32269, Note_on_c, 3, 71, 110
5, 32337, Note_on_c, 3, 71, 0
5, 32390, Note_on_c, 3, 69, 110
5, 32467, Note_on_c, 3, 69, 0
5, 32505, Note_on_c, 3, 67, 110
5, 32599, Note_on_c, 3, 67, 0
5, 32625, Note_on_c, 3, 66, 110
5, 32705, Note_on_c, 3, 66, 0
5, 32741, Note_on_c, 3, 64, 110
5, 32813, Note_on_c, 3, 64, 0
5, 32813, End_track
6, 0, Start_track
6, 0, MIDI_port, 0
6, 0, Title_t, "REMIXED             "
6, 0, Program_c, 9, 0
6, 0, Note_on_c, 9, 42, 127
6, 0, Control_c, 9, 7, 100
6, 179, Note_on_c, 9, 42, 0
6, 179, Note_on_c, 9, 42, 127
6, 359, Note_on_c, 9, 42, 0
6, 359, Note_on_c, 9, 42, 127
6, 541, Note_on_c, 9, 41, 127
6, 541, Note_on_c, 9, 38, 127
6, 545, Note_on_c, 9, 41, 0
6, 547, Note_on_c, 9, 38, 0
6, 722, Note_on_c, 9, 42, 0
6, 722, Note_on_c, 9, 36, 127
6, 722, Note_on_c, 9, 49, 127
6, 722, Note_on_c, 9, 42, 127
6, 724, Note_on_c, 9, 49, 0
6, 724, Note_on_c, 9, 36, 0
6, 724, Note_on_c, 9, 51, 127
6, 726, Note_on_c, 9, 51, 0
6, 807, Note_on_c, 9, 42, 0
6, 807, Note_on_c, 9, 51, 127
6, 807, Note_on_c, 9, 42, 95
6, 809, Note_on_c, 9, 51, 0
6, 897, Note_on_c, 9, 42, 0
6, 897, Note_on_c, 9, 51, 127
6, 897, Note_on_c, 9, 42, 127
6, 899, Note_on_c, 9, 51, 0
6, 899, Note_on_c, 9, 38, 127
6, 901, Note_on_c, 9, 38, 0
6, 987, Note_on_c, 9, 42, 0
6, 987, Note_on_c, 9, 51, 127
6, 987, Note_on_c, 9, 42, 95
6, 989, Note_on_c, 9, 51, 0
6, 1077, Note_on_c, 9, 42, 0
6, 1077, Note_on_c, 9, 51, 127
6, 1077, Note_on_c, 9, 42, 127
6, 1077, Note_on_c, 9, 36, 127
6, 1163, Note_on_c, 9, 42, 0
6, 1163, Note_on_c, 9, 42, 95
6, 1165, Note_on_c, 9, 51, 0
6, 1165, Note_on_c, 9, 51, 127
6, 1254, Note_on_c, 9, 42, 0
6, 1254, Note_on_c, 9, 42, 127
6, 1255, Note_on_c, 9, 51, 0
6, 1255, Note_on_c, 9, 38, 127
6, 1255, Note_on_c, 9, 51, 127
6, 1259, Note_on_c, 9, 38, 0
6, 1343, Note_on_c, 9, 36, 0
6, 1343, Note_on_c, 9, 42, 0
6, 1343, Note_on_c, 9, 51, 0
6, 1343, Note_on_c, 9, 51, 127
6, 1343, Note_on_c, 9, 42, 95
6, 1343, Note_on_c, 9, 36, 127
6, 1431, Note_on_c, 9, 36, 0
6, 1431, Note_on_c, 9, 42, 0
6, 1431, Note_on_c, 9, 51, 0
6, 1431, Note_on_c, 9, 51, 127
6, 1431, Note_on_c, 9, 42, 127
6, 1431, Note_on_c, 9, 36, 127
6, 1521, Note_on_c, 9, 42, 0
6, 1521, Note_on_c, 9, 51, 0
6, 1521, Note_on_c, 9, 51, 127
6, 1521, Note_on_c, 9, 42, 95
6, 1611, Note_on_c, 9, 42, 0
6, 1611, Note_on_c, 9, 42, 127
6, 1613, Note_on_c, 9, 51, 0
6, 1613, Note_on_c, 9, 38, 127
6, 1613, Note_on_c, 9, 51, 127
6, 1617, Note_on_c, 9, 38, 0
6, 1701, Note_on_c, 9, 51, 0
6, 1701, Note_on_c, 9, 42, 0
6, 1701, Note_on_c, 9, 51, 127
6, 1701, Note_on_c, 9, 42, 95
6, 1789, Note_on_c, 9, 42, 0
6, 1789, Note_on_c, 9, 51, 0
6, 1789, Note_on_c, 9, 36, 0
6, 1789, Note_on_c, 9, 51, 127
6, 1789, Note_on_c, 9, 42, 127
6, 1789, Note_on_c, 9, 36, 127
6, 1877, Note_on_c, 9, 42, 0
6, 1877, Note_on_c, 9, 42, 95
6, 1879, Note_on_c, 9, 51, 0
6, 1879, Note_on_c, 9, 51, 127
6, 1969, Note_on_c, 9, 51, 0
6, 1969, Note_on_c, 9, 42, 0
6, 1969, Note_on_c, 9, 38, 127
6, 1969, Note_on_c, 9, 51, 127
6, 1969, Note_on_c, 9, 42, 127
6, 1975, Note_on_c, 9, 38, 0
6, 2059, Note_on_c, 9, 42, 0
6, 2059, Note_on_c, 9, 51, 0
6, 2059, Note_on_c, 9, 51, 127
6, 2059, Note_on_c, 9, 42, 95
6, 2152, Note_on_c, 9, 42, 0
6, 2152, Note_on_c, 9, 51, 0
6, 2152, Note_on_c, 9, 36, 0
6, 2152, Note_on_c, 9, 36, 127
6, 2152, Note_on_c, 9, 42, 127
6, 2152, Note_on_c, 9, 51, 127
6, 2235, Note_on_c, 9, 51, 0
6, 2235, Note_on_c, 9, 42, 0
6, 2235, Note_on_c, 9, 51, 127
6, 2235, Note_on_c, 9, 42, 95
6, 2325, Note_on_c, 9, 42, 0
6, 2325, Note_on_c, 9, 51, 0
6, 2325, Note_on_c, 9, 38, 127
6, 2325, Note_on_c, 9, 51, 127
6, 2325, Note_on_c, 9, 42, 127
6, 2413, Note_on_c, 9, 42, 0
6, 2413, Note_on_c, 9, 51, 0
6, 2413, Note_on_c, 9, 51, 127
6, 2413, Note_on_c, 9, 42, 95
6, 2505, Note_on_c, 9, 42, 0
6, 2505, Note_on_c, 9, 51, 0
6, 2505, Note_on_c, 9, 36, 0
6, 2505, Note_on_c, 9, 51, 127
6, 2505, Note_on_c, 9, 42, 127
6, 2505, Note_on_c, 9, 36, 127
6, 2593, Note_on_c, 9, 42, 0
6, 2593, Note_on_c, 9, 51, 0
6, 2593, Note_on_c, 9, 51, 127
6, 2593, Note_on_c, 9, 42, 95
6, 2683, Note_on_c, 9, 42, 0
6, 2683, Note_on_c, 9, 51, 0
6, 2683, Note_on_c, 9, 38, 0
6, 2683, Note_on_c, 9, 38, 127
6, 2683, Note_on_c, 9, 51, 127
6, 2683, Note_on_c, 9, 42, 127
6, 2771, Note_on_c, 9, 36, 0
6, 2771, Note_on_c, 9, 36, 127
6, 2773, Note_on_c, 9, 42, 0
6, 2773, Note_on_c, 9, 51, 0
6, 2773, Note_on_c, 9, 51, 127
6, 2773, Note_on_c, 9, 42, 95
6, 2861, Note_on_c, 9, 42, 0
6, 2861, Note_on_c, 9, 51, 0
6, 2861, Note_on_c, 9, 36, 0
6, 2861, Note_on_c, 9, 51, 127
6, 2861, Note_on_c, 9, 42, 127
6, 2861, Note_on_c, 9, 36, 127
6, 2949, Note_on_c, 9, 42, 0
6, 2949, Note_on_c, 9, 51, 0
6, 2949, Note_on_c, 9, 51, 127
6, 2949, Note_on_c, 9, 42, 95
6, 3039, Note_on_c, 9, 42, 0
6, 3039, Note_on_c, 9, 51, 0
6, 3039, Note_on_c, 9, 38, 0
6, 3039, Note_on_c, 9, 38, 127
6, 3039, Note_on_c, 9, 51, 127
6, 3039, Note_on_c, 9, 42, 127
6, 3127, Note_on_c, 9, 42, 0
6, 3127, Note_on_c, 9, 51, 0
6, 3127, Note_on_c, 9, 51, 127
6, 3127, Note_on_c, 9, 42, 95
6, 3219, Note_on_c, 9, 42, 0
6, 3219, Note_on_c, 9, 51, 0
6, 3219, Note_on_c, 9, 36, 0
6, 3219, Note_on_c, 9, 51, 127
6, 3219, Note_on_c, 9, 42, 127
6, 3219, Note_on_c, 9, 36, 127
6, 3305, Note_on_c, 9, 42, 0
6, 3305, Note_on_c, 9, 51, 0
6, 3305, Note_on_c, 9, 51, 127
6, 3305, Note_on_c, 9, 42, 95
6, 3397, Note_on_c, 9, 42, 0
6, 3397, Note_on_c, 9, 42, 127
6, 3400, Note_on_c, 9, 51, 0
6, 3400, Note_on_c, 9, 38, 0
6, 3400, Note_on_c, 9, 38, 127
6, 3400, Note_on_c, 9, 51, 127
6, 3488, Note_on_c, 9, 51, 0
6, 3488, Note_on_c, 9, 42, 0
6, 3488, Note_on_c, 9, 42, 95
6, 3488, Note_on_c, 9, 51, 127
6, 3575, Note_on_c, 9, 36, 0
6, 3575, Note_on_c, 9, 36, 127
6, 3577, Note_on_c, 9, 51, 0
6, 3577, Note_on_c, 9, 42, 0
6, 3577, Note_on_c, 9, 51, 127
6, 3577, Note_on_c, 9, 42, 127
6, 3577, Note_on_c, 9, 49, 127
6, 3579, Note_on_c, 9, 49, 0
6, 3579, Note_on_c, 9, 38, 0
6, 3579, Note_on_c, 9, 38, 95
6, 3665, Note_on_c, 9, 38, 0
6, 3665, Note_on_c, 9, 42, 0
6, 3665, Note_on_c, 9, 51, 0
6, 3665, Note_on_c, 9, 38, 95
6, 3665, Note_on_c, 9, 51, 127
6, 3665, Note_on_c, 9, 42, 95
6, 3755, Note_on_c, 9, 42, 0
6, 3755, Note_on_c, 9, 51, 0
6, 3755, Note_on_c, 9, 36, 0
6, 3755, Note_on_c, 9, 51, 127
6, 3755, Note_on_c, 9, 42, 127
6, 3755, Note_on_c, 9, 36, 127
6, 3757, Note_on_c, 9, 38, 0
6, 3757, Note_on_c, 9, 38, 95
6, 3842, Note_on_c, 9, 38, 0
6, 3842, Note_on_c, 9, 36, 0
6, 3842, Note_on_c, 9, 42, 0
6, 3842, Note_on_c, 9, 51, 0
6, 3842, Note_on_c, 9, 38, 95
6, 3842, Note_on_c, 9, 51, 127
6, 3842, Note_on_c, 9, 42, 95
6, 3842, Note_on_c, 9, 36, 127
6, 3935, Note_on_c, 9, 36, 0
6, 3935, Note_on_c, 9, 38, 0
6, 3935, Note_on_c, 9, 51, 0
6, 3935, Note_on_c, 9, 42, 0
6, 3935, Note_on_c, 9, 45, 127
6, 3935, Note_on_c, 9, 38, 127
6, 3935, Note_on_c, 9, 51, 127
6, 3935, Note_on_c, 9, 42, 127
6, 3935, Note_on_c, 9, 36, 127
6, 4023, Note_on_c, 9, 36, 0
6, 4023, Note_on_c, 9, 51, 0
6, 4023, Note_on_c, 9, 45, 0
6, 4023, Note_on_c, 9, 38, 0
6, 4023, Note_on_c, 9, 42, 0
6, 4023, Note_on_c, 9, 45, 127
6, 4023, Note_on_c, 9, 38, 127
6, 4023, Note_on_c, 9, 51, 127
6, 4023, Note_on_c, 9, 42, 95
6, 4023, Note_on_c, 9, 36, 127
6, 4111, Note_on_c, 9, 36, 0
6, 4111, Note_on_c, 9, 51, 0
6, 4111, Note_on_c, 9, 42, 0
6, 4111, Note_on_c, 9, 38, 0
6, 4111, Note_on_c, 9, 41, 127
6, 4111, Note_on_c, 9, 38, 127
6, 4111, Note_on_c, 9, 51, 127
6, 4111, Note_on_c, 9, 42, 127
6, 4111, Note_on_c, 9, 36, 127
6, 4204, Note_on_c, 9, 36, 0
6, 4204, Note_on_c, 9, 41, 0
6, 4204, Note_on_c, 9, 38, 0
6, 4204, Note_on_c, 9, 51, 0
6, 4204, Note_on_c, 9, 42, 0
6, 4204, Note_on_c, 9, 41, 127
6, 4204, Note_on_c, 9, 38, 127
6, 4204, Note_on_c, 9, 51, 127
6, 4204, Note_on_c, 9, 42, 95
6, 4204, Note_on_c, 9, 36, 127
6, 4291, Note_on_c, 9, 36, 0
6, 4291, Note_on_c, 9, 51, 0
6, 4291, Note_on_c, 9, 42, 0
6, 4291, Note_on_c, 9, 51, 127
6, 4291, Note_on_c, 9, 42, 127
6, 4291, Note_on_c, 9, 49, 127
6, 4291, Note_on_c, 9, 36, 127
6, 4375, Note_on_c, 9, 42, 0
6, 4375, Note_on_c, 9, 42, 95
6, 4377, Note_on_c, 9, 51, 0
6, 4377, Note_on_c, 9, 51, 127
6, 4469, Note_on_c, 9, 42, 0
6, 4469, Note_on_c, 9, 42, 127
6, 4469, Note_on_c, 9, 37, 127
6, 4471, Note_on_c, 9, 37, 0
6, 4471, Note_on_c, 9, 51, 0
6, 4471, Note_on_c, 9, 51, 127
6, 4557, Note_on_c, 9, 51, 0
6, 4557, Note_on_c, 9, 42, 0
6, 4557, Note_on_c, 9, 36, 0
6, 4557, Note_on_c, 9, 51, 127
6, 4557, Note_on_c, 9, 42, 95
6, 4557, Note_on_c, 9, 36, 127
6, 4645, Note_on_c, 9, 42, 0
6, 4645, Note_on_c, 9, 42, 127
6, 4647, Note_on_c, 9, 51, 0
6, 4647, Note_on_c, 9, 51, 127
6, 4737, Note_on_c, 9, 51, 0
6, 4737, Note_on_c, 9, 42, 0
6, 4737, Note_on_c, 9, 51, 127
6, 4737, Note_on_c, 9, 42, 95
6, 4737, Note_on_c, 9, 37, 127
6, 4740, Note_on_c, 9, 37, 0
6, 4825, Note_on_c, 9, 42, 0
6, 4825, Note_on_c, 9, 42, 127
6, 4828, Note_on_c, 9, 51, 0
6, 4828, Note_on_c, 9, 51, 127
6, 4915, Note_on_c, 9, 51, 0
6, 4915, Note_on_c, 9, 42, 0
6, 4915, Note_on_c, 9, 36, 0
6, 4915, Note_on_c, 9, 51, 127
6, 4915, Note_on_c, 9, 42, 95
6, 4915, Note_on_c, 9, 36, 127
6, 5007, Note_on_c, 9, 36, 0
6, 5007, Note_on_c, 9, 51, 0
6, 5007, Note_on_c, 9, 42, 0
6, 5007, Note_on_c, 9, 51, 127
6, 5007, Note_on_c, 9, 42, 127
6, 5007, Note_on_c, 9, 36, 127
6, 5091, Note_on_c, 9, 42, 0
6, 5091, Note_on_c, 9, 42, 95
6, 5093, Note_on_c, 9, 51, 0
6, 5093, Note_on_c, 9, 51, 127
6, 5183, Note_on_c, 9, 51, 0
6, 5183, Note_on_c, 9, 42, 0
6, 5183, Note_on_c, 9, 51, 127
6, 5183, Note_on_c, 9, 42, 127
6, 5183, Note_on_c, 9, 37, 127
6, 5185, Note_on_c, 9, 37, 0
6, 5271, Note_on_c, 9, 42, 0
6, 5271, Note_on_c, 9, 36, 0
6, 5271, Note_on_c, 9, 51, 0
6, 5271, Note_on_c, 9, 51, 127
6, 5271, Note_on_c, 9, 42, 95
6, 5271, Note_on_c, 9, 36, 127
6, 5359, Note_on_c, 9, 42, 0
6, 5359, Note_on_c, 9, 42, 127
6, 5361, Note_on_c, 9, 51, 0
6, 5361, Note_on_c, 9, 51, 127
6, 5450, Note_on_c, 9, 37, 127
6, 5451, Note_on_c, 9, 51, 0
6, 5451, Note_on_c, 9, 42, 0
6, 5451, Note_on_c, 9, 51, 127
6, 5451, Note_on_c, 9, 42, 95
6, 5453, Note_on_c, 9, 37, 0
6, 5544, Note_on_c, 9, 42, 0
6, 5544, Note_on_c, 9, 51, 0
6, 5544, Note_on_c, 9, 42, 127
6, 5544, Note_on_c, 9, 51, 127
6, 5632, Note_on_c, 9, 42, 0
6, 5632, Note_on_c, 9, 36, 0
6, 5632, Note_on_c, 9, 36, 127
6, 5632, Note_on_c, 9, 42, 95
6, 5633, Note_on_c, 9, 51, 0
6, 5633, Note_on_c, 9, 51, 127
6, 5721, Note_on_c, 9, 51, 0
6, 5721, Note_on_c, 9, 42, 0
6, 5721, Note_on_c, 9, 36, 0
6, 5721, Note_on_c, 9, 51, 127
6, 5721, Note_on_c, 9, 42, 127
6, 5721, Note_on_c, 9, 36, 127
6, 5804, Note_on_c, 9, 42, 0
6, 5804, Note_on_c, 9, 42, 95
6, 5805, Note_on_c, 9, 51, 0
6, 5805, Note_on_c, 9, 51, 127
6, 5897, Note_on_c, 9, 37, 127
6, 5900, Note_on_c, 9, 51, 0
6, 5900, Note_on_c, 9, 42, 0
6, 5900, Note_on_c, 9, 42, 127
6, 5900, Note_on_c, 9, 51, 127
6, 5902, Note_on_c, 9, 37, 0
6, 5985, Note_on_c, 9, 51, 0
6, 5985, Note_on_c, 9, 36, 0
6, 5985, Note_on_c, 9, 42, 0
6, 5985, Note_on_c, 9, 51, 127
6, 5985, Note_on_c, 9, 42, 95
6, 5985, Note_on_c, 9, 36, 127
6, 6075, Note_on_c, 9, 42, 0
6, 6075, Note_on_c, 9, 51, 0
6, 6075, Note_on_c, 9, 51, 127
6, 6075, Note_on_c, 9, 42, 127
6, 6165, Note_on_c, 9, 42, 0
6, 6165, Note_on_c, 9, 51, 0
6, 6165, Note_on_c, 9, 51, 127
6, 6165, Note_on_c, 9, 42, 95
6, 6165, Note_on_c, 9, 37, 127
6, 6169, Note_on_c, 9, 37, 0
6, 6255, Note_on_c, 9, 42, 0
6, 6255, Note_on_c, 9, 51, 0
6, 6255, Note_on_c, 9, 51, 127
6, 6255, Note_on_c, 9, 42, 127
6, 6345, Note_on_c, 9, 42, 0
6, 6345, Note_on_c, 9, 36, 0
6, 6345, Note_on_c, 9, 51, 0
6, 6345, Note_on_c, 9, 51, 127
6, 6345, Note_on_c, 9, 42, 95
6, 6345, Note_on_c, 9, 36, 127
6, 6435, Note_on_c, 9, 36, 0
6, 6435, Note_on_c, 9, 36, 127
6, 6437, Note_on_c, 9, 51, 0
6, 6437, Note_on_c, 9, 42, 0
6, 6437, Note_on_c, 9, 51, 127
6, 6437, Note_on_c, 9, 42, 127
6, 6522, Note_on_c, 9, 42, 0
6, 6522, Note_on_c, 9, 51, 0
6, 6522, Note_on_c, 9, 51, 127
6, 6522, Note_on_c, 9, 42, 95
6, 6611, Note_on_c, 9, 37, 127
6, 6613, Note_on_c, 9, 42, 0
6, 6613, Note_on_c, 9, 51, 0
6, 6613, Note_on_c, 9, 51, 127
6, 6613, Note_on_c, 9, 42, 127
6, 6615, Note_on_c, 9, 37, 0
6, 6699, Note_on_c, 9, 42, 0
6, 6699, Note_on_c, 9, 36, 0
6, 6699, Note_on_c, 9, 42, 95
6, 6699, Note_on_c, 9, 36, 127
6, 6701, Note_on_c, 9, 51, 0
6, 6701, Note_on_c, 9, 51, 127
6, 6789, Note_on_c, 9, 51, 0
6, 6789, Note_on_c, 9, 42, 0
6, 6789, Note_on_c, 9, 51, 127
6, 6789, Note_on_c, 9, 42, 127
6, 6877, Note_on_c, 9, 42, 0
6, 6877, Note_on_c, 9, 51, 0
6, 6877, Note_on_c, 9, 51, 127
6, 6877, Note_on_c, 9, 42, 95
6, 6877, Note_on_c, 9, 37, 127
6, 6969, Note_on_c, 9, 42, 0
6, 6969, Note_on_c, 9, 51, 0
6, 6969, Note_on_c, 9, 51, 127
6, 6969, Note_on_c, 9, 42, 127
6, 7059, Note_on_c, 9, 36, 0
6, 7059, Note_on_c, 9, 36, 127
6, 7062, Note_on_c, 9, 42, 0
6, 7062, Note_on_c, 9, 51, 0
6, 7062, Note_on_c, 9, 42, 95
6, 7062, Note_on_c, 9, 51, 127
6, 7150, Note_on_c, 9, 51, 0
6, 7150, Note_on_c, 9, 42, 0
6, 7150, Note_on_c, 9, 36, 0
6, 7150, Note_on_c, 9, 51, 127
6, 7150, Note_on_c, 9, 42, 127
6, 7150, Note_on_c, 9, 36, 127
6, 7233, Note_on_c, 9, 42, 0
6, 7233, Note_on_c, 9, 51, 0
6, 7233, Note_on_c, 9, 51, 127
6, 7233, Note_on_c, 9, 42, 95
6, 7325, Note_on_c, 9, 42, 0
6, 7325, Note_on_c, 9, 51, 0
6, 7325, Note_on_c, 9, 37, 0
6, 7325, Note_on_c, 9, 51, 127
6, 7325, Note_on_c, 9, 42, 127
6, 7325, Note_on_c, 9, 37, 127
6, 7415, Note_on_c, 9, 42, 0
6, 7415, Note_on_c, 9, 51, 0
6, 7415, Note_on_c, 9, 36, 0
6, 7415, Note_on_c, 9, 51, 127
6, 7415, Note_on_c, 9, 42, 95
6, 7415, Note_on_c, 9, 36, 127
6, 7503, Note_on_c, 9, 42, 0
6, 7503, Note_on_c, 9, 51, 0
6, 7503, Note_on_c, 9, 51, 127
6, 7503, Note_on_c, 9, 42, 127
6, 7593, Note_on_c, 9, 37, 0
6, 7593, Note_on_c, 9, 37, 127
6, 7595, Note_on_c, 9, 42, 0
6, 7595, Note_on_c, 9, 51, 0
6, 7595, Note_on_c, 9, 51, 127
6, 7595, Note_on_c, 9, 42, 95
6, 7681, Note_on_c, 9, 42, 0
6, 7681, Note_on_c, 9, 51, 0
6, 7681, Note_on_c, 9, 51, 127
6, 7681, Note_on_c, 9, 42, 127
6, 7771, Note_on_c, 9, 42, 0
6, 7771, Note_on_c, 9, 36, 0
6, 7771, Note_on_c, 9, 42, 95
6, 7771, Note_on_c, 9, 36, 127
6, 7773, Note_on_c, 9, 51, 0
6, 7773, Note_on_c, 9, 51, 127
6, 7861, Note_on_c, 9, 51, 0
6, 7861, Note_on_c, 9, 36, 0
6, 7861, Note_on_c, 9, 42, 0
6, 7861, Note_on_c, 9, 51, 127
6, 7861, Note_on_c, 9, 42, 127
6, 7861, Note_on_c, 9, 36, 127
6, 7949, Note_on_c, 9, 42, 0
6, 7949, Note_on_c, 9, 42, 95
6, 7951, Note_on_c, 9, 51, 0
6, 7951, Note_on_c, 9, 51, 127
6, 8039, Note_on_c, 9, 37, 0
6, 8039, Note_on_c, 9, 37, 127
6, 8042, Note_on_c, 9, 51, 0
6, 8042, Note_on_c, 9, 42, 0
6, 8042, Note_on_c, 9, 42, 127
6, 8042, Note_on_c, 9, 51, 127
6, 8130, Note_on_c, 9, 51, 0
6, 8130, Note_on_c, 9, 42, 0
6, 8130, Note_on_c, 9, 36, 0
6, 8130, Note_on_c, 9, 51, 127
6, 8130, Note_on_c, 9, 42, 95
6, 8130, Note_on_c, 9, 36, 127
6, 8217, Note_on_c, 9, 42, 0
6, 8217, Note_on_c, 9, 51, 0
6, 8217, Note_on_c, 9, 51, 127
6, 8217, Note_on_c, 9, 42, 127
6, 8307, Note_on_c, 9, 37, 0
6, 8307, Note_on_c, 9, 37, 127
6, 8310, Note_on_c, 9, 42, 0
6, 8310, Note_on_c, 9, 51, 0
6, 8310, Note_on_c, 9, 42, 95
6, 8310, Note_on_c, 9, 51, 127
6, 8400, Note_on_c, 9, 42, 0
6, 8400, Note_on_c, 9, 42, 127
6, 8402, Note_on_c, 9, 51, 0
6, 8402, Note_on_c, 9, 51, 127
6, 8487, Note_on_c, 9, 51, 0
6, 8487, Note_on_c, 9, 42, 0
6, 8487, Note_on_c, 9, 36, 0
6, 8487, Note_on_c, 9, 51, 127
6, 8487, Note_on_c, 9, 42, 95
6, 8487, Note_on_c, 9, 36, 127
6, 8577, Note_on_c, 9, 36, 0
6, 8577, Note_on_c, 9, 36, 127
6, 8580, Note_on_c, 9, 42, 0
6, 8580, Note_on_c, 9, 51, 0
6, 8580, Note_on_c, 9, 42, 127
6, 8580, Note_on_c, 9, 51, 127
6, 8663, Note_on_c, 9, 51, 0
6, 8663, Note_on_c, 9, 42, 0
6, 8663, Note_on_c, 9, 51, 127
6, 8663, Note_on_c, 9, 42, 95
6, 8753, Note_on_c, 9, 37, 0
6, 8753, Note_on_c, 9, 37, 127
6, 8755, Note_on_c, 9, 42, 0
6, 8755, Note_on_c, 9, 51, 0
6, 8755, Note_on_c, 9, 51, 127
6, 8755, Note_on_c, 9, 42, 127
6, 8841, Note_on_c, 9, 42, 0
6, 8841, Note_on_c, 9, 51, 0
6, 8841, Note_on_c, 9, 36, 0
6, 8841, Note_on_c, 9, 51, 127
6, 8841, Note_on_c, 9, 42, 95
6, 8841, Note_on_c, 9, 36, 127
6, 8933, Note_on_c, 9, 42, 0
6, 8933, Note_on_c, 9, 51, 0
6, 8933, Note_on_c, 9, 51, 127
6, 8933, Note_on_c, 9, 42, 127
6, 9021, Note_on_c, 9, 37, 0
6, 9021, Note_on_c, 9, 37, 127
6, 9024, Note_on_c, 9, 42, 0
6, 9024, Note_on_c, 9, 51, 0
6, 9024, Note_on_c, 9, 51, 127
6, 9024, Note_on_c, 9, 42, 95
6, 9113, Note_on_c, 9, 42, 0
6, 9113, Note_on_c, 9, 51, 0
6, 9113, Note_on_c, 9, 51, 127
6, 9113, Note_on_c, 9, 42, 127
6, 9202, Note_on_c, 9, 42, 0
6, 9202, Note_on_c, 9, 51, 0
6, 9202, Note_on_c, 9, 36, 0
6, 9202, Note_on_c, 9, 51, 127
6, 9202, Note_on_c, 9, 42, 95
6, 9202, Note_on_c, 9, 36, 127
6, 9289, Note_on_c, 9, 36, 0
6, 9289, Note_on_c, 9, 42, 0
6, 9289, Note_on_c, 9, 51, 0
6, 9289, Note_on_c, 9, 51, 127
6, 9289, Note_on_c, 9, 42, 127
6, 9289, Note_on_c, 9, 36, 127
6, 9379, Note_on_c, 9, 42, 0
6, 9379, Note_on_c, 9, 51, 0
6, 9379, Note_on_c, 9, 51, 127
6, 9379, Note_on_c, 9, 42, 95
6, 9469, Note_on_c, 9, 42, 0
6, 9469, Note_on_c, 9, 37, 0
6, 9469, Note_on_c, 9, 42, 127
6, 9469, Note_on_c, 9, 37, 127
6, 9471, Note_on_c, 9, 51, 0
6, 9471, Note_on_c, 9, 51, 127
6, 9558, Note_on_c, 9, 51, 0
6, 9558, Note_on_c, 9, 36, 0
6, 9558, Note_on_c, 9, 42, 0
6, 9558, Note_on_c, 9, 51, 127
6, 9558, Note_on_c, 9, 42, 95
6, 9558, Note_on_c, 9, 36, 127
6, 9647, Note_on_c, 9, 42, 0
6, 9647, Note_on_c, 9, 51, 0
6, 9647, Note_on_c, 9, 51, 127
6, 9647, Note_on_c, 9, 42, 127
6, 9737, Note_on_c, 9, 42, 0
6, 9737, Note_on_c, 9, 51, 0
6, 9737, Note_on_c, 9, 38, 0
6, 9737, Note_on_c, 9, 38, 95
6, 9737, Note_on_c, 9, 51, 127
6, 9737, Note_on_c, 9, 42, 95
6, 9765, Note_on_c, 9, 38, 0
6, 9765, Note_on_c, 9, 38, 95
6, 9780, Note_on_c, 9, 38, 0
6, 9780, Note_on_c, 9, 38, 95
6, 9807, Note_on_c, 9, 38, 0
6, 9807, Note_on_c, 9, 38, 127
6, 9825, Note_on_c, 9, 42, 0
6, 9825, Note_on_c, 9, 51, 0
6, 9825, Note_on_c, 9, 51, 127
6, 9825, Note_on_c, 9, 42, 127
6, 9901, Note_on_c, 9, 38, 0
6, 9901, Note_on_c, 9, 38, 127
6, 9916, Note_on_c, 9, 42, 0
6, 9916, Note_on_c, 9, 51, 0
6, 9916, Note_on_c, 9, 36, 0
6, 9916, Note_on_c, 9, 51, 127
6, 9916, Note_on_c, 9, 42, 95
6, 9916, Note_on_c, 9, 36, 127
6, 10007, Note_on_c, 9, 36, 0
6, 10007, Note_on_c, 9, 42, 0
6, 10007, Note_on_c, 9, 49, 0
6, 10007, Note_on_c, 9, 51, 0
6, 10007, Note_on_c, 9, 51, 127
6, 10007, Note_on_c, 9, 42, 127
6, 10007, Note_on_c, 9, 49, 127
6, 10007, Note_on_c, 9, 36, 127
6, 10091, Note_on_c, 9, 42, 0
6, 10091, Note_on_c, 9, 42, 95
6, 10093, Note_on_c, 9, 51, 0
6, 10093, Note_on_c, 9, 51, 127
6, 10184, Note_on_c, 9, 51, 0
6, 10184, Note_on_c, 9, 42, 0
6, 10184, Note_on_c, 9, 42, 127
6, 10184, Note_on_c, 9, 51, 127
6, 10186, Note_on_c, 9, 38, 0
6, 10186, Note_on_c, 9, 38, 127
6, 10269, Note_on_c, 9, 42, 0
6, 10269, Note_on_c, 9, 42, 95
6, 10271, Note_on_c, 9, 51, 0
6, 10271, Note_on_c, 9, 51, 127
6, 10367, Note_on_c, 9, 51, 0
6, 10367, Note_on_c, 9, 42, 0
6, 10367, Note_on_c, 9, 36, 0
6, 10367, Note_on_c, 9, 36, 127
6, 10367, Note_on_c, 9, 42, 127
6, 10367, Note_on_c, 9, 51, 127
6, 10449, Note_on_c, 9, 42, 0
6, 10449, Note_on_c, 9, 42, 95
6, 10451, Note_on_c, 9, 51, 0
6, 10451, Note_on_c, 9, 51, 127
6, 10541, Note_on_c, 9, 51, 0
6, 10541, Note_on_c, 9, 42, 0
6, 10541, Note_on_c, 9, 51, 127
6, 10541, Note_on_c, 9, 42, 127
6, 10544, Note_on_c, 9, 38, 0
6, 10544, Note_on_c, 9, 38, 127
6, 10629, Note_on_c, 9, 42, 0
6, 10629, Note_on_c, 9, 51, 0
6, 10629, Note_on_c, 9, 36, 0
6, 10629, Note_on_c, 9, 51, 127
6, 10629, Note_on_c, 9, 42, 95
6, 10629, Note_on_c, 9, 36, 127
6, 10721, Note_on_c, 9, 36, 0
6, 10721, Note_on_c, 9, 42, 0
6, 10721, Note_on_c, 9, 51, 0
6, 10721, Note_on_c, 9, 51, 127
6, 10721, Note_on_c, 9, 42, 127
6, 10721, Note_on_c, 9, 36, 127
6, 10806, Note_on_c, 9, 42, 0
6, 10806, Note_on_c, 9, 51, 0
6, 10806, Note_on_c, 9, 51, 127
6, 10806, Note_on_c, 9, 42, 95
6, 10895, Note_on_c, 9, 42, 0
6, 10895, Note_on_c, 9, 51, 0
6, 10895, Note_on_c, 9, 38, 0
6, 10895, Note_on_c, 9, 38, 127
6, 10895, Note_on_c, 9, 51, 127
6, 10895, Note_on_c, 9, 42, 127
6, 10988, Note_on_c, 9, 42, 0
6, 10988, Note_on_c, 9, 51, 0
6, 10988, Note_on_c, 9, 51, 127
6, 10988, Note_on_c, 9, 42, 95
6, 11075, Note_on_c, 9, 42, 0
6, 11075, Note_on_c, 9, 51, 0
6, 11075, Note_on_c, 9, 36, 0
6, 11075, Note_on_c, 9, 51, 127
6, 11075, Note_on_c, 9, 42, 127
6, 11075, Note_on_c, 9, 36, 127
6, 11165, Note_on_c, 9, 42, 0
6, 11165, Note_on_c, 9, 51, 0
6, 11165, Note_on_c, 9, 51, 127
6, 11165, Note_on_c, 9, 42, 95
6, 11253, Note_on_c, 9, 42, 0
6, 11253, Note_on_c, 9, 51, 0
6, 11253, Note_on_c, 9, 51, 127
6, 11253, Note_on_c, 9, 42, 127
6, 11255, Note_on_c, 9, 38, 0
6, 11255, Note_on_c, 9, 38, 127
6, 11343, Note_on_c, 9, 42, 0
6, 11343, Note_on_c, 9, 51, 0
6, 11343, Note_on_c, 9, 51, 127
6, 11343, Note_on_c, 9, 42, 95
6, 11437, Note_on_c, 9, 42, 0
6, 11437, Note_on_c, 9, 51, 0
6, 11437, Note_on_c, 9, 36, 0
6, 11437, Note_on_c, 9, 51, 127
6, 11437, Note_on_c, 9, 42, 127
6, 11437, Note_on_c, 9, 36, 127
6, 11521, Note_on_c, 9, 42, 0
6, 11521, Note_on_c, 9, 51, 0
6, 11521, Note_on_c, 9, 51, 127
6, 11521, Note_on_c, 9, 42, 95
6, 11613, Note_on_c, 9, 42, 0
6, 11613, Note_on_c, 9, 51, 0
6, 11613, Note_on_c, 9, 38, 0
6, 11613, Note_on_c, 9, 38, 127
6, 11613, Note_on_c, 9, 51, 127
6, 11613, Note_on_c, 9, 42, 127
6, 11699, Note_on_c, 9, 42, 0
6, 11699, Note_on_c, 9, 42, 95
6, 11701, Note_on_c, 9, 51, 0
6, 11701, Note_on_c, 9, 51, 127
6, 11791, Note_on_c, 9, 51, 0
6, 11791, Note_on_c, 9, 42, 0
6, 11791, Note_on_c, 9, 36, 0
6, 11791, Note_on_c, 9, 51, 127
6, 11791, Note_on_c, 9, 42, 127
6, 11791, Note_on_c, 9, 36, 127
6, 11880, Note_on_c, 9, 42, 0
6, 11880, Note_on_c, 9, 51, 0
6, 11880, Note_on_c, 9, 51, 127
6, 11880, Note_on_c, 9, 42, 95
6, 11971, Note_on_c, 9, 42, 0
6, 11971, Note_on_c, 9, 51, 0
6, 11971, Note_on_c, 9, 38, 0
6, 11971, Note_on_c, 9, 38, 127
6, 11971, Note_on_c, 9, 51, 127
6, 11971, Note_on_c, 9, 42, 127
6, 12057, Note_on_c, 9, 42, 0
6, 12057, Note_on_c, 9, 51, 0
6, 12057, Note_on_c, 9, 36, 0
6, 12057, Note_on_c, 9, 51, 127
6, 12057, Note_on_c, 9, 42, 95
6, 12057, Note_on_c, 9, 36, 127
6, 12150, Note_on_c, 9, 36, 0
6, 12150, Note_on_c, 9, 36, 127
6, 12152, Note_on_c, 9, 42, 0
6, 12152, Note_on_c, 9, 51, 0
6, 12152, Note_on_c, 9, 42, 127
6, 12152, Note_on_c, 9, 51, 127
6, 12233, Note_on_c, 9, 42, 0
6, 12233, Note_on_c, 9, 42, 95
6, 12235, Note_on_c, 9, 51, 0
6, 12235, Note_on_c, 9, 51, 127
6, 12324, Note_on_c, 9, 51, 0
6, 12324, Note_on_c, 9, 42, 0
6, 12324, Note_on_c, 9, 38, 0
6, 12324, Note_on_c, 9, 38, 127
6, 12324, Note_on_c, 9, 51, 127
6, 12324, Note_on_c, 9, 42, 127
6, 12415, Note_on_c, 9, 42, 0
6, 12415, Note_on_c, 9, 51, 0
6, 12415, Note_on_c, 9, 51, 127
6, 12415, Note_on_c, 9, 42, 95
6, 12505, Note_on_c, 9, 42, 0
6, 12505, Note_on_c, 9, 51, 0
6, 12505, Note_on_c, 9, 36, 0
6, 12505, Note_on_c, 9, 51, 127
6, 12505, Note_on_c, 9, 42, 127
6, 12505, Note_on_c, 9, 36, 127
6, 12591, Note_on_c, 9, 42, 0
6, 12591, Note_on_c, 9, 42, 95
6, 12594, Note_on_c, 9, 51, 0
6, 12594, Note_on_c, 9, 38, 0
6, 12594, Note_on_c, 9, 38, 95
6, 12594, Note_on_c, 9, 51, 127
6, 12623, Note_on_c, 9, 38, 0
6, 12623, Note_on_c, 9, 38, 95
6, 12637, Note_on_c, 9, 38, 0
6, 12637, Note_on_c, 9, 38, 95
6, 12667, Note_on_c, 9, 38, 0
6, 12667, Note_on_c, 9, 38, 127
6, 12681, Note_on_c, 9, 42, 0
6, 12681, Note_on_c, 9, 42, 127
6, 12683, Note_on_c, 9, 51, 0
6, 12683, Note_on_c, 9, 51, 127
6, 12758, Note_on_c, 9, 38, 0
6, 12758, Note_on_c, 9, 38, 127
6, 12769, Note_on_c, 9, 51, 0
6, 12769, Note_on_c, 9, 42, 0
6, 12769, Note_on_c, 9, 51, 127
6, 12769, Note_on_c, 9, 42, 95
6, 12866, Note_on_c, 9, 42, 0
6, 12866, Note_on_c, 9, 51, 0
6, 12866, Note_on_c, 9, 36, 0
6, 12866, Note_on_c, 9, 51, 127
6, 12866, Note_on_c, 9, 42, 127
6, 12866, Note_on_c, 9, 36, 127
6, 12950, Note_on_c, 9, 42, 0
6, 12950, Note_on_c, 9, 42, 95
6, 12951, Note_on_c, 9, 51, 0
6, 12951, Note_on_c, 9, 51, 127
6, 13039, Note_on_c, 9, 51, 0
6, 13039, Note_on_c, 9, 42, 0
6, 13039, Note_on_c, 9, 51, 127
6, 13039, Note_on_c, 9, 42, 127
6, 13042, Note_on_c, 9, 38, 0
6, 13042, Note_on_c, 9, 38, 127
6, 13129, Note_on_c, 9, 42, 0
6, 13129, Note_on_c, 9, 51, 0
6, 13129, Note_on_c, 9, 51, 127
6, 13129, Note_on_c, 9, 42, 95
6, 13222, Note_on_c, 9, 42, 0
6, 13222, Note_on_c, 9, 36, 0
6, 13222, Note_on_c, 9, 36, 127
6, 13222, Note_on_c, 9, 42, 127
6, 13223, Note_on_c, 9, 51, 0
6, 13223, Note_on_c, 9, 51, 127
6, 13305, Note_on_c, 9, 51, 0
6, 13305, Note_on_c, 9, 42, 0
6, 13305, Note_on_c, 9, 51, 127
6, 13305, Note_on_c, 9, 42, 95
6, 13399, Note_on_c, 9, 42, 0
6, 13399, Note_on_c, 9, 51, 0
6, 13399, Note_on_c, 9, 51, 127
6, 13399, Note_on_c, 9, 42, 127
6, 13402, Note_on_c, 9, 38, 0
6, 13402, Note_on_c, 9, 38, 127
6, 13486, Note_on_c, 9, 36, 0
6, 13486, Note_on_c, 9, 36, 127
6, 13488, Note_on_c, 9, 42, 0
6, 13488, Note_on_c, 9, 51, 0
6, 13488, Note_on_c, 9, 51, 127
6, 13488, Note_on_c, 9, 42, 95
6, 13578, Note_on_c, 9, 42, 0
6, 13578, Note_on_c, 9, 51, 0
6, 13578, Note_on_c, 9, 36, 0
6, 13578, Note_on_c, 9, 51, 127
6, 13578, Note_on_c, 9, 42, 127
6, 13578, Note_on_c, 9, 36, 127
6, 13664, Note_on_c, 9, 42, 0
6, 13664, Note_on_c, 9, 42, 95
6, 13665, Note_on_c, 9, 51, 0
6, 13665, Note_on_c, 9, 51, 127
6, 13753, Note_on_c, 9, 51, 0
6, 13753, Note_on_c, 9, 42, 0
6, 13753, Note_on_c, 9, 51, 127
6, 13753, Note_on_c, 9, 42, 127
6, 13756, Note_on_c, 9, 38, 0
6, 13756, Note_on_c, 9, 38, 127
6, 13841, Note_on_c, 9, 42, 0
6, 13841, Note_on_c, 9, 42, 95
6, 13843, Note_on_c, 9, 51, 0
6, 13843, Note_on_c, 9, 51, 127
6, 13931, Note_on_c, 9, 42, 0
6, 13931, Note_on_c, 9, 36, 0
6, 13931, Note_on_c, 9, 42, 127
6, 13931, Note_on_c, 9, 36, 127
6, 13933, Note_on_c, 9, 51, 0
6, 13933, Note_on_c, 9, 51, 127
6, 14021, Note_on_c, 9, 51, 0
6, 14021, Note_on_c, 9, 42, 0
6, 14021, Note_on_c, 9, 51, 127
6, 14021, Note_on_c, 9, 42, 95
6, 14111, Note_on_c, 9, 42, 0
6, 14111, Note_on_c, 9, 42, 127
6, 14113, Note_on_c, 9, 51, 0
6, 14113, Note_on_c, 9, 38, 0
6, 14113, Note_on_c, 9, 38, 127
6, 14113, Note_on_c, 9, 51, 127
6, 14201, Note_on_c, 9, 51, 0
6, 14201, Note_on_c, 9, 42, 0
6, 14201, Note_on_c, 9, 51, 127
6, 14201, Note_on_c, 9, 42, 95
6, 14289, Note_on_c, 9, 36, 0
6, 14289, Note_on_c, 9, 36, 127
6, 14291, Note_on_c, 9, 42, 0
6, 14291, Note_on_c, 9, 51, 0
6, 14291, Note_on_c, 9, 49, 0
6, 14291, Note_on_c, 9, 51, 127
6, 14291, Note_on_c, 9, 42, 127
6, 14291, Note_on_c, 9, 49, 127
6, 14294, Note_on_c, 9, 38, 0
6, 14294, Note_on_c, 9, 38, 95
6, 14375, Note_on_c, 9, 42, 0
6, 14375, Note_on_c, 9, 42, 95
6, 14377, Note_on_c, 9, 38, 0
6, 14377, Note_on_c, 9, 51, 0
6, 14377, Note_on_c, 9, 38, 95
6, 14377, Note_on_c, 9, 51, 127
6, 14469, Note_on_c, 9, 51, 0
6, 14469, Note_on_c, 9, 38, 0
6, 14469, Note_on_c, 9, 36, 0
6, 14469, Note_on_c, 9, 42, 0
6, 14469, Note_on_c, 9, 38, 95
6, 14469, Note_on_c, 9, 51, 127
6, 14469, Note_on_c, 9, 42, 127
6, 14469, Note_on_c, 9, 36, 127
6, 14557, Note_on_c, 9, 36, 0
6, 14557, Note_on_c, 9, 42, 0
6, 14557, Note_on_c, 9, 42, 95
6, 14557, Note_on_c, 9, 36, 127
6, 14560, Note_on_c, 9, 38, 0
6, 14560, Note_on_c, 9, 51, 0
6, 14560, Note_on_c, 9, 38, 95
6, 14560, Note_on_c, 9, 51, 127
6, 14647, Note_on_c, 9, 51, 0
6, 14647, Note_on_c, 9, 36, 0
6, 14647, Note_on_c, 9, 42, 0
6, 14647, Note_on_c, 9, 51, 127
6, 14647, Note_on_c, 9, 42, 127
6, 14647, Note_on_c, 9, 36, 127
6, 14649, Note_on_c, 9, 45, 0
6, 14649, Note_on_c, 9, 38, 0
6, 14649, Note_on_c, 9, 45, 127
6, 14649, Note_on_c, 9, 38, 127
6, 14733, Note_on_c, 9, 36, 0
6, 14733, Note_on_c, 9, 36, 127
6, 14735, Note_on_c, 9, 38, 0
6, 14735, Note_on_c, 9, 42, 0
6, 14735, Note_on_c, 9, 51, 0
6, 14735, Note_on_c, 9, 38, 127
6, 14735, Note_on_c, 9, 51, 127
6, 14735, Note_on_c, 9, 42, 95
6, 14737, Note_on_c, 9, 45, 0
6, 14737, Note_on_c, 9, 45, 127
6, 14824, Note_on_c, 9, 36, 0
6, 14824, Note_on_c, 9, 36, 127
6, 14825, Note_on_c, 9, 42, 0
6, 14825, Note_on_c, 9, 51, 0
6, 14825, Note_on_c, 9, 38, 0
6, 14825, Note_on_c, 9, 38, 127
6, 14825, Note_on_c, 9, 51, 127
6, 14825, Note_on_c, 9, 42, 127
6, 14828, Note_on_c, 9, 41, 0
6, 14828, Note_on_c, 9, 41, 127
6, 14916, Note_on_c, 9, 41, 0
6, 14916, Note_on_c, 9, 42, 0
6, 14916, Note_on_c, 9, 38, 0
6, 14916, Note_on_c, 9, 36, 0
6, 14916, Note_on_c, 9, 51, 0
6, 14916, Note_on_c, 9, 41, 127
6, 14916, Note_on_c, 9, 38, 127
6, 14916, Note_on_c, 9, 51, 127
6, 14916, Note_on_c, 9, 42, 95
6, 14916, Note_on_c, 9, 36, 127
6, 15009, Note_on_c, 9, 36, 0
6, 15009, Note_on_c, 9, 42, 0
6, 15009, Note_on_c, 9, 49, 0
6, 15009, Note_on_c, 9, 51, 0
6, 15009, Note_on_c, 9, 51, 127
6, 15009, Note_on_c, 9, 42, 127
6, 15009, Note_on_c, 9, 49, 127
6, 15009, Note_on_c, 9, 36, 127
6, 15093, Note_on_c, 9, 42, 0
6, 15093, Note_on_c, 9, 51, 0
6, 15093, Note_on_c, 9, 51, 127
6, 15093, Note_on_c, 9, 42, 95
6, 15184, Note_on_c, 9, 42, 0
6, 15184, Note_on_c, 9, 51, 0
6, 15184, Note_on_c, 9, 37, 0
6, 15184, Note_on_c, 9, 51, 127
6, 15184, Note_on_c, 9, 42, 127
6, 15184, Note_on_c, 9, 37, 127
6, 15272, Note_on_c, 9, 42, 0
6, 15272, Note_on_c, 9, 36, 0
6, 15272, Note_on_c, 9, 42, 95
6, 15272, Note_on_c, 9, 36, 127
6, 15274, Note_on_c, 9, 51, 0
6, 15274, Note_on_c, 9, 51, 127
6, 15361, Note_on_c, 9, 51, 0
6, 15361, Note_on_c, 9, 42, 0
6, 15361, Note_on_c, 9, 51, 127
6, 15361, Note_on_c, 9, 42, 127
6, 15449, Note_on_c, 9, 42, 0
6, 15449, Note_on_c, 9, 51, 0
6, 15449, Note_on_c, 9, 37, 0
6, 15449, Note_on_c, 9, 51, 127
6, 15449, Note_on_c, 9, 42, 95
6, 15449, Note_on_c, 9, 37, 127
6, 15541, Note_on_c, 9, 42, 0
6, 15541, Note_on_c, 9, 42, 127
6, 15543, Note_on_c, 9, 51, 0
6, 15543, Note_on_c, 9, 51, 127
6, 15629, Note_on_c, 9, 51, 0
6, 15629, Note_on_c, 9, 42, 0
6, 15629, Note_on_c, 9, 36, 0
6, 15629, Note_on_c, 9, 51, 127
6, 15629, Note_on_c, 9, 42, 95
6, 15629, Note_on_c, 9, 36, 127
6, 15722, Note_on_c, 9, 36, 0
6, 15722, Note_on_c, 9, 42, 0
6, 15722, Note_on_c, 9, 51, 0
6, 15722, Note_on_c, 9, 51, 127
6, 15722, Note_on_c, 9, 42, 127
6, 15722, Note_on_c, 9, 36, 127
6, 15805, Note_on_c, 9, 42, 0
6, 15805, Note_on_c, 9, 42, 95
6, 15807, Note_on_c, 9, 51, 0
6, 15807, Note_on_c, 9, 51, 127
6, 15897, Note_on_c, 9, 51, 0
6, 15897, Note_on_c, 9, 42, 0
6, 15897, Note_on_c, 9, 37, 0
6, 15897, Note_on_c, 9, 51, 127
6, 15897, Note_on_c, 9, 42, 127
6, 15897, Note_on_c, 9, 37, 127
6, 15987, Note_on_c, 9, 42, 0
6, 15987, Note_on_c, 9, 51, 0
6, 15987, Note_on_c, 9, 36, 0
6, 15987, Note_on_c, 9, 51, 127
6, 15987, Note_on_c, 9, 42, 95
6, 15987, Note_on_c, 9, 36, 127
6, 16075, Note_on_c, 9, 42, 0
6, 16075, Note_on_c, 9, 51, 0
6, 16075, Note_on_c, 9, 51, 127
6, 16075, Note_on_c, 9, 42, 127
6, 16165, Note_on_c, 9, 42, 0
6, 16165, Note_on_c, 9, 51, 0
6, 16165, Note_on_c, 9, 37, 0
6, 16165, Note_on_c, 9, 51, 127
6, 16165, Note_on_c, 9, 42, 95
6, 16165, Note_on_c, 9, 37, 127
6, 16257, Note_on_c, 9, 42, 0
6, 16257, Note_on_c, 9, 51, 0
6, 16257, Note_on_c, 9, 51, 127
6, 16257, Note_on_c, 9, 42, 127
6, 16346, Note_on_c, 9, 42, 0
6, 16346, Note_on_c, 9, 36, 0
6, 16346, Note_on_c, 9, 36, 127
6, 16346, Note_on_c, 9, 42, 95
6, 16348, Note_on_c, 9, 51, 0
6, 16348, Note_on_c, 9, 51, 127
6, 16433, Note_on_c, 9, 36, 0
6, 16433, Note_on_c, 9, 36, 127
6, 16434, Note_on_c, 9, 51, 0
6, 16434, Note_on_c, 9, 42, 0
6, 16434, Note_on_c, 9, 51, 127
6, 16434, Note_on_c, 9, 42, 127
6, 16522, Note_on_c, 9, 42, 0
6, 16522, Note_on_c, 9, 51, 0
6, 16522, Note_on_c, 9, 51, 127
6, 16522, Note_on_c, 9, 42, 95
6, 16611, Note_on_c, 9, 42, 0
6, 16611, Note_on_c, 9, 51, 0
6, 16611, Note_on_c, 9, 37, 0
6, 16611, Note_on_c, 9, 51, 127
6, 16611, Note_on_c, 9, 42, 127
6, 16611, Note_on_c, 9, 37, 127
6, 16702, Note_on_c, 9, 42, 0
6, 16702, Note_on_c, 9, 51, 0
6, 16702, Note_on_c, 9, 36, 0
6, 16702, Note_on_c, 9, 51, 127
6, 16702, Note_on_c, 9, 42, 95
6, 16702, Note_on_c, 9, 36, 127
6, 16790, Note_on_c, 9, 42, 0
6, 16790, Note_on_c, 9, 51, 0
6, 16790, Note_on_c, 9, 51, 127
6, 16790, Note_on_c, 9, 42, 127
6, 16879, Note_on_c, 9, 42, 0
6, 16879, Note_on_c, 9, 37, 0
6, 16879, Note_on_c, 9, 42, 95
6, 16879, Note_on_c, 9, 37, 127
6, 16881, Note_on_c, 9, 51, 0
6, 16881, Note_on_c, 9, 51, 127
6, 16972, Note_on_c, 9, 51, 0
6, 16972, Note_on_c, 9, 42, 0
6, 16972, Note_on_c, 9, 51, 127
6, 16972, Note_on_c, 9, 42, 127
6, 17060, Note_on_c, 9, 42, 0
6, 17060, Note_on_c, 9, 51, 0
6, 17060, Note_on_c, 9, 36, 0
6, 17060, Note_on_c, 9, 51, 127
6, 17060, Note_on_c, 9, 42, 95
6, 17060, Note_on_c, 9, 36, 127
6, 17149, Note_on_c, 9, 36, 0
6, 17149, Note_on_c, 9, 36, 127
6, 17152, Note_on_c, 9, 42, 0
6, 17152, Note_on_c, 9, 51, 0
6, 17152, Note_on_c, 9, 42, 127
6, 17152, Note_on_c, 9, 51, 127
6, 17233, Note_on_c, 9, 42, 0
6, 17233, Note_on_c, 9, 42, 95
6, 17235, Note_on_c, 9, 51, 0
6, 17235, Note_on_c, 9, 51, 127
6, 17326, Note_on_c, 9, 42, 0
6, 17326, Note_on_c, 9, 37, 0
6, 17326, Note_on_c, 9, 42, 127
6, 17326, Note_on_c, 9, 37, 127
6, 17327, Note_on_c, 9, 51, 0
6, 17327, Note_on_c, 9, 51, 127
6, 17413, Note_on_c, 9, 51, 0
6, 17413, Note_on_c, 9, 36, 0
6, 17413, Note_on_c, 9, 42, 0
6, 17413, Note_on_c, 9, 51, 127
6, 17413, Note_on_c, 9, 42, 95
6, 17413, Note_on_c, 9, 36, 127
6, 17503, Note_on_c, 9, 42, 0
6, 17503, Note_on_c, 9, 42, 127
6, 17505, Note_on_c, 9, 51, 0
6, 17505, Note_on_c, 9, 51, 127
6, 17594, Note_on_c, 9, 51, 0
6, 17594, Note_on_c, 9, 42, 0
6, 17594, Note_on_c, 9, 37, 0
6, 17594, Note_on_c, 9, 51, 127
6, 17594, Note_on_c, 9, 42, 95
6, 17594, Note_on_c, 9, 37, 127
6, 17685, Note_on_c, 9, 42, 0
6, 17685, Note_on_c, 9, 51, 0
6, 17685, Note_on_c, 9, 51, 127
6, 17685, Note_on_c, 9, 42, 127
6, 17775, Note_on_c, 9, 42, 0
6, 17775, Note_on_c, 9, 51, 0
6, 17775, Note_on_c, 9, 36, 0
6, 17775, Note_on_c, 9, 51, 127
6, 17775, Note_on_c, 9, 42, 95
6, 17775, Note_on_c, 9, 36, 127
6, 17864, Note_on_c, 9, 36, 0
6, 17864, Note_on_c, 9, 42, 0
6, 17864, Note_on_c, 9, 42, 127
6, 17864, Note_on_c, 9, 36, 127
6, 17866, Note_on_c, 9, 51, 0
6, 17866, Note_on_c, 9, 51, 127
6, 17952, Note_on_c, 9, 51, 0
6, 17952, Note_on_c, 9, 42, 0
6, 17952, Note_on_c, 9, 51, 127
6, 17952, Note_on_c, 9, 42, 95
6, 18041, Note_on_c, 9, 42, 0
6, 18041, Note_on_c, 9, 37, 0
6, 18041, Note_on_c, 9, 42, 127
6, 18041, Note_on_c, 9, 37, 127
6, 18043, Note_on_c, 9, 51, 0
6, 18043, Note_on_c, 9, 51, 127
6, 18129, Note_on_c, 9, 51, 0
6, 18129, Note_on_c, 9, 36, 0
6, 18129, Note_on_c, 9, 42, 0
6, 18129, Note_on_c, 9, 51, 127
6, 18129, Note_on_c, 9, 42, 95
6, 18129, Note_on_c, 9, 36, 127
6, 18217, Note_on_c, 9, 42, 0
6, 18217, Note_on_c, 9, 42, 127
6, 18219, Note_on_c, 9, 51, 0
6, 18219, Note_on_c, 9, 51, 127
6, 18307, Note_on_c, 9, 42, 0
6, 18307, Note_on_c, 9, 37, 0
6, 18307, Note_on_c, 9, 42, 95
6, 18307, Note_on_c, 9, 37, 127
6, 18310, Note_on_c, 9, 51, 0
6, 18310, Note_on_c, 9, 51, 127
6, 18397, Note_on_c, 9, 42, 0
6, 18397, Note_on_c, 9, 42, 127
6, 18399, Note_on_c, 9, 51, 0
6, 18399, Note_on_c, 9, 51, 127
6, 18487, Note_on_c, 9, 51, 0
6, 18487, Note_on_c, 9, 42, 0
6, 18487, Note_on_c, 9, 36, 0
6, 18487, Note_on_c, 9, 51, 127
6, 18487, Note_on_c, 9, 42, 95
6, 18487, Note_on_c, 9, 36, 127
6, 18579, Note_on_c, 9, 36, 0
6, 18579, Note_on_c, 9, 36, 127
6, 18581, Note_on_c, 9, 42, 0
6, 18581, Note_on_c, 9, 51, 0
6, 18581, Note_on_c, 9, 51, 127
6, 18581, Note_on_c, 9, 42, 127
6, 18666, Note_on_c, 9, 42, 0
6, 18666, Note_on_c, 9, 51, 0
6, 18666, Note_on_c, 9, 51, 127
6, 18666, Note_on_c, 9, 42, 95
6, 18755, Note_on_c, 9, 42, 0
6, 18755, Note_on_c, 9, 51, 0
6, 18755, Note_on_c, 9, 37, 0
6, 18755, Note_on_c, 9, 51, 127
6, 18755, Note_on_c, 9, 42, 127
6, 18755, Note_on_c, 9, 37, 127
6, 18843, Note_on_c, 9, 42, 0
6, 18843, Note_on_c, 9, 51, 0
6, 18843, Note_on_c, 9, 36, 0
6, 18843, Note_on_c, 9, 51, 127
6, 18843, Note_on_c, 9, 42, 95
6, 18843, Note_on_c, 9, 36, 127
6, 18932, Note_on_c, 9, 42, 0
6, 18932, Note_on_c, 9, 42, 127
6, 18933, Note_on_c, 9, 51, 0
6, 18933, Note_on_c, 9, 51, 127
6, 19024, Note_on_c, 9, 37, 0
6, 19024, Note_on_c, 9, 37, 127
6, 19025, Note_on_c, 9, 51, 0
6, 19025, Note_on_c, 9, 42, 0
6, 19025, Note_on_c, 9, 51, 127
6, 19025, Note_on_c, 9, 42, 95
6, 19116, Note_on_c, 9, 42, 0
6, 19116, Note_on_c, 9, 51, 0
6, 19116, Note_on_c, 9, 51, 127
6, 19116, Note_on_c, 9, 42, 127
6, 19201, Note_on_c, 9, 42, 0
6, 19201, Note_on_c, 9, 51, 0
6, 19201, Note_on_c, 9, 36, 0
6, 19201, Note_on_c, 9, 51, 127
6, 19201, Note_on_c, 9, 42, 95
6, 19201, Note_on_c, 9, 36, 127
6, 19294, Note_on_c, 9, 36, 0
6, 19294, Note_on_c, 9, 42, 0
6, 19294, Note_on_c, 9, 36, 127
6, 19294, Note_on_c, 9, 42, 127
6, 19296, Note_on_c, 9, 51, 0
6, 19296, Note_on_c, 9, 51, 127
6, 19377, Note_on_c, 9, 51, 0
6, 19377, Note_on_c, 9, 42, 0
6, 19377, Note_on_c, 9, 51, 127
6, 19377, Note_on_c, 9, 42, 95
6, 19468, Note_on_c, 9, 42, 0
6, 19468, Note_on_c, 9, 51, 0
6, 19468, Note_on_c, 9, 37, 0
6, 19468, Note_on_c, 9, 51, 127
6, 19468, Note_on_c, 9, 42, 127
6, 19468, Note_on_c, 9, 37, 127
6, 19557, Note_on_c, 9, 42, 0
6, 19557, Note_on_c, 9, 36, 0
6, 19557, Note_on_c, 9, 42, 95
6, 19557, Note_on_c, 9, 36, 127
6, 19559, Note_on_c, 9, 51, 0
6, 19559, Note_on_c, 9, 51, 127
6, 19647, Note_on_c, 9, 51, 0
6, 19647, Note_on_c, 9, 42, 0
6, 19647, Note_on_c, 9, 51, 127
6, 19647, Note_on_c, 9, 42, 127
6, 19737, Note_on_c, 9, 42, 0
6, 19737, Note_on_c, 9, 51, 0
6, 19737, Note_on_c, 9, 37, 0
6, 19737, Note_on_c, 9, 37, 127
6, 19737, Note_on_c, 9, 42, 95
6, 19737, Note_on_c, 9, 51, 127
6, 19828, Note_on_c, 9, 51, 0
6, 19828, Note_on_c, 9, 42, 0
6, 19828, Note_on_c, 9, 51, 127
6, 19828, Note_on_c, 9, 42, 127
6, 19915, Note_on_c, 9, 42, 0
6, 19915, Note_on_c, 9, 51, 0
6, 19915, Note_on_c, 9, 36, 0
6, 19915, Note_on_c, 9, 51, 127
6, 19915, Note_on_c, 9, 42, 95
6, 19915, Note_on_c, 9, 36, 127
6, 20007, Note_on_c, 9, 36, 0
6, 20007, Note_on_c, 9, 42, 0
6, 20007, Note_on_c, 9, 42, 127
6, 20007, Note_on_c, 9, 36, 127
6, 20010, Note_on_c, 9, 51, 0
6, 20010, Note_on_c, 9, 51, 127
6, 20094, Note_on_c, 9, 51, 0
6, 20094, Note_on_c, 9, 42, 0
6, 20094, Note_on_c, 9, 51, 127
6, 20094, Note_on_c, 9, 42, 95
6, 20183, Note_on_c, 9, 37, 0
6, 20183, Note_on_c, 9, 37, 127
6, 20185, Note_on_c, 9, 42, 0
6, 20185, Note_on_c, 9, 51, 0
6, 20185, Note_on_c, 9, 51, 127
6, 20185, Note_on_c, 9, 42, 127
6, 20272, Note_on_c, 9, 42, 0
6, 20272, Note_on_c, 9, 36, 0
6, 20272, Note_on_c, 9, 42, 95
6, 20272, Note_on_c, 9, 36, 127
6, 20273, Note_on_c, 9, 51, 0
6, 20273, Note_on_c, 9, 51, 127
6, 20359, Note_on_c, 9, 42, 0
6, 20359, Note_on_c, 9, 42, 127
6, 20361, Note_on_c, 9, 51, 0
6, 20361, Note_on_c, 9, 51, 127
6, 20453, Note_on_c, 9, 51, 0
6, 20453, Note_on_c, 9, 42, 0
6, 20453, Note_on_c, 9, 51, 127
6, 20453, Note_on_c, 9, 42, 95
6, 20456, Note_on_c, 9, 38, 0
6, 20456, Note_on_c, 9, 38, 95
6, 20482, Note_on_c, 9, 38, 0
6, 20482, Note_on_c, 9, 38, 95
6, 20497, Note_on_c, 9, 38, 0
6, 20497, Note_on_c, 9, 38, 95
6, 20528, Note_on_c, 9, 38, 0
6, 20528, Note_on_c, 9, 38, 127
6, 20543, Note_on_c, 9, 42, 0
6, 20543, Note_on_c, 9, 51, 0
6, 20543, Note_on_c, 9, 51, 127
6, 20543, Note_on_c, 9, 42, 127
6, 20613, Note_on_c, 9, 38, 0
6, 20613, Note_on_c, 9, 38, 127
6, 20630, Note_on_c, 9, 36, 0
6, 20630, Note_on_c, 9, 36, 127
6, 20632, Note_on_c, 9, 42, 0
6, 20632, Note_on_c, 9, 51, 0
6, 20632, Note_on_c, 9, 51, 127
6, 20632, Note_on_c, 9, 42, 95
6, 20724, Note_on_c, 9, 42, 0
6, 20724, Note_on_c, 9, 36, 0
6, 20724, Note_on_c, 9, 49, 0
6, 20724, Note_on_c, 9, 36, 127
6, 20724, Note_on_c, 9, 49, 127
6, 20724, Note_on_c, 9, 42, 127
6, 20726, Note_on_c, 9, 51, 0
6, 20726, Note_on_c, 9, 51, 127
6, 20805, Note_on_c, 9, 51, 0
6, 20805, Note_on_c, 9, 42, 0
6, 20805, Note_on_c, 9, 51, 127
6, 20805, Note_on_c, 9, 42, 95
6, 20898, Note_on_c, 9, 42, 0
6, 20898, Note_on_c, 9, 51, 0
6, 20898, Note_on_c, 9, 38, 0
6, 20898, Note_on_c, 9, 42, 127
6, 20898, Note_on_c, 9, 51, 127
6, 20898, Note_on_c, 9, 38, 127
6, 20987, Note_on_c, 9, 51, 0
6, 20987, Note_on_c, 9, 42, 0
6, 20987, Note_on_c, 9, 51, 127
6, 20987, Note_on_c, 9, 42, 95
6, 21082, Note_on_c, 9, 42, 0
6, 21082, Note_on_c, 9, 51, 0
6, 21082, Note_on_c, 9, 36, 0
6, 21082, Note_on_c, 9, 36, 127
6, 21082, Note_on_c, 9, 42, 127
6, 21082, Note_on_c, 9, 51, 127
6, 21163, Note_on_c, 9, 42, 0
6, 21163, Note_on_c, 9, 42, 95
6, 21165, Note_on_c, 9, 51, 0
6, 21165, Note_on_c, 9, 51, 127
6, 21255, Note_on_c, 9, 42, 0
6, 21255, Note_on_c, 9, 42, 127
6, 21258, Note_on_c, 9, 51, 0
6, 21258, Note_on_c, 9, 38, 0
6, 21258, Note_on_c, 9, 51, 127
6, 21258, Note_on_c, 9, 38, 127
6, 21341, Note_on_c, 9, 36, 0
6, 21341, Note_on_c, 9, 36, 127
6, 21344, Note_on_c, 9, 42, 0
6, 21344, Note_on_c, 9, 51, 0
6, 21344, Note_on_c, 9, 51, 127
6, 21344, Note_on_c, 9, 42, 95
6, 21437, Note_on_c, 9, 42, 0
6, 21437, Note_on_c, 9, 51, 0
6, 21437, Note_on_c, 9, 36, 0
6, 21437, Note_on_c, 9, 51, 127
6, 21437, Note_on_c, 9, 42, 127
6, 21437, Note_on_c, 9, 36, 127
6, 21521, Note_on_c, 9, 42, 0
6, 21521, Note_on_c, 9, 42, 95
6, 21523, Note_on_c, 9, 51, 0
6, 21523, Note_on_c, 9, 51, 127
6, 21611, Note_on_c, 9, 51, 0
6, 21611, Note_on_c, 9, 42, 0
6, 21611, Note_on_c, 9, 38, 0
6, 21611, Note_on_c, 9, 38, 127
6, 21611, Note_on_c, 9, 51, 127
6, 21611, Note_on_c, 9, 42, 127
6, 21701, Note_on_c, 9, 42, 0
6, 21701, Note_on_c, 9, 51, 0
6, 21701, Note_on_c, 9, 51, 127
6, 21701, Note_on_c, 9, 42, 95
6, 21789, Note_on_c, 9, 42, 0
6, 21789, Note_on_c, 9, 36, 0
6, 21789, Note_on_c, 9, 42, 127
6, 21789, Note_on_c, 9, 36, 127
6, 21791, Note_on_c, 9, 51, 0
6, 21791, Note_on_c, 9, 51, 127
6, 21878, Note_on_c, 9, 51, 0
6, 21878, Note_on_c, 9, 42, 0
6, 21878, Note_on_c, 9, 51, 127
6, 21878, Note_on_c, 9, 42, 95
6, 21970, Note_on_c, 9, 42, 0
6, 21970, Note_on_c, 9, 51, 0
6, 21970, Note_on_c, 9, 51, 127
6, 21970, Note_on_c, 9, 42, 127
6, 21971, Note_on_c, 9, 38, 0
6, 21971, Note_on_c, 9, 38, 127
6, 22060, Note_on_c, 9, 42, 0
6, 22060, Note_on_c, 9, 51, 0
6, 22060, Note_on_c, 9, 51, 127
6, 22060, Note_on_c, 9, 42, 95
6, 22151, Note_on_c, 9, 42, 0
6, 22151, Note_on_c, 9, 51, 0
6, 22151, Note_on_c, 9, 36, 0
6, 22151, Note_on_c, 9, 51, 127
6, 22151, Note_on_c, 9, 42, 127
6, 22151, Note_on_c, 9, 36, 127
6, 22235, Note_on_c, 9, 42, 0
6, 22235, Note_on_c, 9, 51, 0
6, 22235, Note_on_c, 9, 51, 127
6, 22235, Note_on_c, 9, 42, 95
6, 22325, Note_on_c, 9, 42, 0
6, 22325, Note_on_c, 9, 42, 127
6, 22327, Note_on_c, 9, 51, 0
6, 22327, Note_on_c, 9, 38, 0
6, 22327, Note_on_c, 9, 38, 127
6, 22327, Note_on_c, 9, 51, 127
6, 22416, Note_on_c, 9, 51, 0
6, 22416, Note_on_c, 9, 42, 0
6, 22416, Note_on_c, 9, 51, 127
6, 22416, Note_on_c, 9, 42, 95
6, 22510, Note_on_c, 9, 42, 0
6, 22510, Note_on_c, 9, 51, 0
6, 22510, Note_on_c, 9, 36, 0
6, 22510, Note_on_c, 9, 36, 127
6, 22510, Note_on_c, 9, 42, 127
6, 22510, Note_on_c, 9, 51, 127
6, 22591, Note_on_c, 9, 42, 0
6, 22591, Note_on_c, 9, 42, 95
6, 22593, Note_on_c, 9, 51, 0
6, 22593, Note_on_c, 9, 51, 127
6, 22686, Note_on_c, 9, 51, 0
6, 22686, Note_on_c, 9, 42, 0
6, 22686, Note_on_c, 9, 38, 0
6, 22686, Note_on_c, 9, 38, 127
6, 22686, Note_on_c, 9, 51, 127
6, 22686, Note_on_c, 9, 42, 127
6, 22771, Note_on_c, 9, 42, 0
6, 22771, Note_on_c, 9, 36, 0
6, 22771, Note_on_c, 9, 42, 95
6, 22771, Note_on_c, 9, 36, 127
6, 22773, Note_on_c, 9, 51, 0
6, 22773, Note_on_c, 9, 51, 127
6, 22868, Note_on_c, 9, 51, 0
6, 22868, Note_on_c, 9, 36, 0
6, 22868, Note_on_c, 9, 42, 0
6, 22868, Note_on_c, 9, 36, 127
6, 22868, Note_on_c, 9, 42, 127
6, 22868, Note_on_c, 9, 51, 127
6, 22952, Note_on_c, 9, 51, 0
6, 22952, Note_on_c, 9, 42, 0
6, 22952, Note_on_c, 9, 51, 127
6, 22952, Note_on_c, 9, 42, 95
6, 23041, Note_on_c, 9, 42, 0
6, 23041, Note_on_c, 9, 51, 0
6, 23041, Note_on_c, 9, 38, 0
6, 23041, Note_on_c, 9, 38, 127
6, 23041, Note_on_c, 9, 51, 127
6, 23041, Note_on_c, 9, 42, 127
6, 23129, Note_on_c, 9, 42, 0
6, 23129, Note_on_c, 9, 51, 0
6, 23129, Note_on_c, 9, 51, 127
6, 23129, Note_on_c, 9, 42, 95
6, 23219, Note_on_c, 9, 42, 0
6, 23219, Note_on_c, 9, 51, 0
6, 23219, Note_on_c, 9, 36, 0
6, 23219, Note_on_c, 9, 51, 127
6, 23219, Note_on_c, 9, 42, 127
6, 23219, Note_on_c, 9, 36, 127
6, 23305, Note_on_c, 9, 42, 0
6, 23305, Note_on_c, 9, 42, 95
6, 23307, Note_on_c, 9, 51, 0
6, 23307, Note_on_c, 9, 38, 0
6, 23307, Note_on_c, 9, 38, 95
6, 23307, Note_on_c, 9, 51, 127
6, 23337, Note_on_c, 9, 38, 0
6, 23337, Note_on_c, 9, 38, 95
6, 23352, Note_on_c, 9, 38, 0
6, 23352, Note_on_c, 9, 38, 95
6, 23381, Note_on_c, 9, 38, 0
6, 23381, Note_on_c, 9, 38, 127
6, 23396, Note_on_c, 9, 42, 0
6, 23396, Note_on_c, 9, 42, 127
6, 23397, Note_on_c, 9, 51, 0
6, 23397, Note_on_c, 9, 51, 127
6, 23474, Note_on_c, 9, 38, 0
6, 23474, Note_on_c, 9, 38, 127
6, 23485, Note_on_c, 9, 42, 0
6, 23485, Note_on_c, 9, 42, 95
6, 23487, Note_on_c, 9, 51, 0
6, 23487, Note_on_c, 9, 51, 127
6, 23581, Note_on_c, 9, 51, 0
6, 23581, Note_on_c, 9, 42, 0
6, 23581, Note_on_c, 9, 36, 0
6, 23581, Note_on_c, 9, 51, 127
6, 23581, Note_on_c, 9, 42, 127
6, 23581, Note_on_c, 9, 36, 127
6, 23666, Note_on_c, 9, 42, 0
6, 23666, Note_on_c, 9, 51, 0
6, 23666, Note_on_c, 9, 51, 127
6, 23666, Note_on_c, 9, 42, 95
6, 23753, Note_on_c, 9, 42, 0
6, 23753, Note_on_c, 9, 42, 127
6, 23755, Note_on_c, 9, 51, 0
6, 23755, Note_on_c, 9, 51, 127
6, 23757, Note_on_c, 9, 38, 0
6, 23757, Note_on_c, 9, 38, 127
6, 23843, Note_on_c, 9, 51, 0
6, 23843, Note_on_c, 9, 42, 0
6, 23843, Note_on_c, 9, 51, 127
6, 23843, Note_on_c, 9, 42, 95
6, 23933, Note_on_c, 9, 42, 0
6, 23933, Note_on_c, 9, 51, 0
6, 23933, Note_on_c, 9, 36, 0
6, 23933, Note_on_c, 9, 51, 127
6, 23933, Note_on_c, 9, 42, 127
6, 23933, Note_on_c, 9, 36, 127
6, 24019, Note_on_c, 9, 42, 0
6, 24019, Note_on_c, 9, 42, 95
6, 24021, Note_on_c, 9, 51, 0
6, 24021, Note_on_c, 9, 51, 127
6, 24113, Note_on_c, 9, 51, 0
6, 24113, Note_on_c, 9, 42, 0
6, 24113, Note_on_c, 9, 51, 127
6, 24113, Note_on_c, 9, 42, 127
6, 24116, Note_on_c, 9, 38, 0
6, 24116, Note_on_c, 9, 38, 127
6, 24201, Note_on_c, 9, 42, 0
6, 24201, Note_on_c, 9, 36, 0
6, 24201, Note_on_c, 9, 51, 0
6, 24201, Note_on_c, 9, 51, 127
6, 24201, Note_on_c, 9, 42, 95
6, 24201, Note_on_c, 9, 36, 127
6, 24293, Note_on_c, 9, 36, 0
6, 24293, Note_on_c, 9, 42, 0
6, 24293, Note_on_c, 9, 42, 127
6, 24293, Note_on_c, 9, 36, 127
6, 24296, Note_on_c, 9, 51, 0
6, 24296, Note_on_c, 9, 51, 127
6, 24377, Note_on_c, 9, 42, 0
6, 24377, Note_on_c, 9, 42, 95
6, 24379, Note_on_c, 9, 51, 0
6, 24379, Note_on_c, 9, 51, 127
6, 24467, Note_on_c, 9, 42, 0
6, 24467, Note_on_c, 9, 42, 127
6, 24469, Note_on_c, 9, 51, 0
6, 24469, Note_on_c, 9, 38, 0
6, 24469, Note_on_c, 9, 38, 127
6, 24469, Note_on_c, 9, 51, 127
6, 24557, Note_on_c, 9, 42, 0
6, 24557, Note_on_c, 9, 42, 95
6, 24559, Note_on_c, 9, 51, 0
6, 24559, Note_on_c, 9, 51, 127
6, 24647, Note_on_c, 9, 42, 0
6, 24647, Note_on_c, 9, 36, 0
6, 24647, Note_on_c, 9, 42, 127
6, 24647, Note_on_c, 9, 36, 127
6, 24649, Note_on_c, 9, 51, 0
6, 24649, Note_on_c, 9, 51, 127
6, 24738, Note_on_c, 9, 51, 0
6, 24738, Note_on_c, 9, 42, 0
6, 24738, Note_on_c, 9, 51, 127
6, 24738, Note_on_c, 9, 42, 95
6, 24826, Note_on_c, 9, 42, 0
6, 24826, Note_on_c, 9, 42, 127
6, 24827, Note_on_c, 9, 51, 0
6, 24827, Note_on_c, 9, 38, 0
6, 24827, Note_on_c, 9, 38, 127
6, 24827, Note_on_c, 9, 51, 127
6, 24915, Note_on_c, 9, 42, 0
6, 24915, Note_on_c, 9, 42, 95
6, 24917, Note_on_c, 9, 51, 0
6, 24917, Note_on_c, 9, 51, 127
6, 25006, Note_on_c, 9, 51, 0
6, 25006, Note_on_c, 9, 42, 0
6, 25006, Note_on_c, 9, 36, 0
6, 25006, Note_on_c, 9, 49, 0
6, 25006, Note_on_c, 9, 36, 127
6, 25006, Note_on_c, 9, 49, 127
6, 25006, Note_on_c, 9, 42, 127
6, 25006, Note_on_c, 9, 51, 127
6, 25094, Note_on_c, 9, 51, 0
6, 25094, Note_on_c, 9, 42, 0
6, 25094, Note_on_c, 9, 51, 127
6, 25094, Note_on_c, 9, 42, 95
6, 25183, Note_on_c, 9, 42, 0
6, 25183, Note_on_c, 9, 51, 0
6, 25183, Note_on_c, 9, 38, 0
6, 25183, Note_on_c, 9, 38, 127
6, 25183, Note_on_c, 9, 51, 127
6, 25183, Note_on_c, 9, 42, 127
6, 25271, Note_on_c, 9, 36, 0
6, 25271, Note_on_c, 9, 36, 127
6, 25273, Note_on_c, 9, 42, 0
6, 25273, Note_on_c, 9, 51, 0
6, 25273, Note_on_c, 9, 51, 127
6, 25273, Note_on_c, 9, 42, 95
6, 25361, Note_on_c, 9, 42, 0
6, 25361, Note_on_c, 9, 51, 0
6, 25361, Note_on_c, 9, 36, 0
6, 25361, Note_on_c, 9, 51, 127
6, 25361, Note_on_c, 9, 42, 127
6, 25361, Note_on_c, 9, 36, 127
6, 25363, Note_on_c, 9, 38, 0
6, 25363, Note_on_c, 9, 38, 127
6, 25406, Note_on_c, 9, 38, 0
6, 25406, Note_on_c, 9, 38, 127
6, 25449, Note_on_c, 9, 42, 0
6, 25449, Note_on_c, 9, 51, 0
6, 25449, Note_on_c, 9, 51, 127
6, 25449, Note_on_c, 9, 42, 95
6, 25451, Note_on_c, 9, 38, 0
6, 25451, Note_on_c, 9, 38, 127
6, 25493, Note_on_c, 9, 38, 0
6, 25493, Note_on_c, 9, 38, 127
6, 25541, Note_on_c, 9, 38, 0
6, 25541, Note_on_c, 9, 42, 0
6, 25541, Note_on_c, 9, 36, 0
6, 25541, Note_on_c, 9, 51, 0
6, 25541, Note_on_c, 9, 38, 127
6, 25541, Note_on_c, 9, 51, 127
6, 25541, Note_on_c, 9, 42, 127
6, 25541, Note_on_c, 9, 36, 127
6, 25587, Note_on_c, 9, 38, 0
6, 25587, Note_on_c, 9, 38, 127
6, 25630, Note_on_c, 9, 36, 0
6, 25630, Note_on_c, 9, 42, 0
6, 25630, Note_on_c, 9, 42, 95
6, 25630, Note_on_c, 9, 36, 127
6, 25632, Note_on_c, 9, 38, 0
6, 25632, Note_on_c, 9, 51, 0
6, 25632, Note_on_c, 9, 51, 127
6, 25632, Note_on_c, 9, 38, 127
6, 25673, Note_on_c, 9, 38, 0
6, 25673, Note_on_c, 9, 38, 127
6, 25721, Note_on_c, 9, 51, 0
6, 25721, Note_on_c, 9, 49, 0
6, 25721, Note_on_c, 9, 42, 0
6, 25721, Note_on_c, 9, 36, 0
6, 25721, Note_on_c, 9, 51, 127
6, 25721, Note_on_c, 9, 42, 127
6, 25721, Note_on_c, 9, 49, 127
6, 25721, Note_on_c, 9, 36, 127
6, 25806, Note_on_c, 9, 42, 0
6, 25806, Note_on_c, 9, 42, 95
6, 25808, Note_on_c, 9, 51, 0
6, 25808, Note_on_c, 9, 51, 127
6, 25899, Note_on_c, 9, 51, 0
6, 25899, Note_on_c, 9, 42, 0
6, 25899, Note_on_c, 9, 38, 0
6, 25899, Note_on_c, 9, 38, 127
6, 25899, Note_on_c, 9, 51, 127
6, 25899, Note_on_c, 9, 42, 127
6, 25987, Note_on_c, 9, 42, 0
6, 25987, Note_on_c, 9, 51, 0
6, 25987, Note_on_c, 9, 51, 127
6, 25987, Note_on_c, 9, 42, 95
6, 26079, Note_on_c, 9, 42, 0
6, 26079, Note_on_c, 9, 51, 0
6, 26079, Note_on_c, 9, 36, 0
6, 26079, Note_on_c, 9, 51, 127
6, 26079, Note_on_c, 9, 42, 127
6, 26079, Note_on_c, 9, 36, 127
6, 26167, Note_on_c, 9, 42, 0
6, 26167, Note_on_c, 9, 42, 95
6, 26169, Note_on_c, 9, 51, 0
6, 26169, Note_on_c, 9, 51, 127
6, 26255, Note_on_c, 9, 51, 0
6, 26255, Note_on_c, 9, 42, 0
6, 26255, Note_on_c, 9, 38, 0
6, 26255, Note_on_c, 9, 38, 127
6, 26255, Note_on_c, 9, 51, 127
6, 26255, Note_on_c, 9, 42, 127
6, 26345, Note_on_c, 9, 42, 0
6, 26345, Note_on_c, 9, 51, 0
6, 26345, Note_on_c, 9, 36, 0
6, 26345, Note_on_c, 9, 51, 127
6, 26345, Note_on_c, 9, 42, 95
6, 26345, Note_on_c, 9, 36, 127
6, 26437, Note_on_c, 9, 36, 0
6, 26437, Note_on_c, 9, 36, 127
6, 26440, Note_on_c, 9, 42, 0
6, 26440, Note_on_c, 9, 51, 0
6, 26440, Note_on_c, 9, 51, 127
6, 26440, Note_on_c, 9, 42, 127
6, 26521, Note_on_c, 9, 42, 0
6, 26521, Note_on_c, 9, 42, 95
6, 26523, Note_on_c, 9, 51, 0
6, 26523, Note_on_c, 9, 51, 127
6, 26611, Note_on_c, 9, 42, 0
6, 26611, Note_on_c, 9, 42, 127
6, 26615, Note_on_c, 9, 51, 0
6, 26615, Note_on_c, 9, 38, 0
6, 26615, Note_on_c, 9, 38, 127
6, 26615, Note_on_c, 9, 51, 127
6, 26705, Note_on_c, 9, 51, 0
6, 26705, Note_on_c, 9, 42, 0
6, 26705, Note_on_c, 9, 51, 127
6, 26705, Note_on_c, 9, 42, 95
6, 26790, Note_on_c, 9, 36, 0
6, 26790, Note_on_c, 9, 36, 127
6, 26791, Note_on_c, 9, 42, 0
6, 26791, Note_on_c, 9, 51, 0
6, 26791, Note_on_c, 9, 51, 127
6, 26791, Note_on_c, 9, 42, 127
6, 26877, Note_on_c, 9, 42, 0
6, 26877, Note_on_c, 9, 42, 95
6, 26879, Note_on_c, 9, 51, 0
6, 26879, Note_on_c, 9, 51, 127
6, 26969, Note_on_c, 9, 51, 0
6, 26969, Note_on_c, 9, 42, 0
6, 26969, Note_on_c, 9, 51, 127
6, 26969, Note_on_c, 9, 42, 127
6, 26971, Note_on_c, 9, 38, 0
6, 26971, Note_on_c, 9, 38, 127
6, 27057, Note_on_c, 9, 42, 0
6, 27057, Note_on_c, 9, 51, 0
6, 27057, Note_on_c, 9, 51, 127
6, 27057, Note_on_c, 9, 42, 95
6, 27155, Note_on_c, 9, 42, 0
6, 27155, Note_on_c, 9, 51, 0
6, 27155, Note_on_c, 9, 49, 0
6, 27155, Note_on_c, 9, 36, 0
6, 27155, Note_on_c, 9, 36, 127
6, 27155, Note_on_c, 9, 49, 127
6, 27155, Note_on_c, 9, 42, 127
6, 27155, Note_on_c, 9, 51, 127
6, 27237, Note_on_c, 9, 51, 0
6, 27237, Note_on_c, 9, 42, 0
6, 27237, Note_on_c, 9, 51, 127
6, 27237, Note_on_c, 9, 42, 95
6, 27329, Note_on_c, 9, 42, 0
6, 27329, Note_on_c, 9, 51, 0
6, 27329, Note_on_c, 9, 38, 0
6, 27329, Note_on_c, 9, 38, 127
6, 27329, Note_on_c, 9, 51, 127
6, 27329, Note_on_c, 9, 42, 127
6, 27415, Note_on_c, 9, 42, 0
6, 27415, Note_on_c, 9, 42, 95
6, 27418, Note_on_c, 9, 51, 0
6, 27418, Note_on_c, 9, 51, 127
6, 27507, Note_on_c, 9, 51, 0
6, 27507, Note_on_c, 9, 42, 0
6, 27507, Note_on_c, 9, 36, 0
6, 27507, Note_on_c, 9, 51, 127
6, 27507, Note_on_c, 9, 42, 127
6, 27507, Note_on_c, 9, 36, 127
6, 27597, Note_on_c, 9, 42, 0
6, 27597, Note_on_c, 9, 42, 95
6, 27599, Note_on_c, 9, 51, 0
6, 27599, Note_on_c, 9, 51, 127
6, 27683, Note_on_c, 9, 51, 0
6, 27683, Note_on_c, 9, 42, 0
6, 27683, Note_on_c, 9, 51, 127
6, 27683, Note_on_c, 9, 42, 127
6, 27685, Note_on_c, 9, 38, 0
6, 27685, Note_on_c, 9, 38, 127
6, 27775, Note_on_c, 9, 42, 0
6, 27775, Note_on_c, 9, 36, 0
6, 27775, Note_on_c, 9, 51, 0
6, 27775, Note_on_c, 9, 51, 127
6, 27775, Note_on_c, 9, 42, 95
6, 27775, Note_on_c, 9, 36, 127
6, 27867, Note_on_c, 9, 36, 0
6, 27867, Note_on_c, 9, 42, 0
6, 27867, Note_on_c, 9, 51, 0
6, 27867, Note_on_c, 9, 36, 127
6, 27867, Note_on_c, 9, 42, 127
6, 27867, Note_on_c, 9, 51, 127
6, 27952, Note_on_c, 9, 51, 0
6, 27952, Note_on_c, 9, 42, 0
6, 27952, Note_on_c, 9, 51, 127
6, 27952, Note_on_c, 9, 42, 95
6, 28044, Note_on_c, 9, 42, 0
6, 28044, Note_on_c, 9, 51, 0
6, 28044, Note_on_c, 9, 38, 0
6, 28044, Note_on_c, 9, 42, 127
6, 28044, Note_on_c, 9, 51, 127
6, 28044, Note_on_c, 9, 38, 127
6, 28134, Note_on_c, 9, 51, 0
6, 28134, Note_on_c, 9, 42, 0
6, 28134, Note_on_c, 9, 51, 127
6, 28134, Note_on_c, 9, 42, 95
6, 28220, Note_on_c, 9, 42, 0
6, 28220, Note_on_c, 9, 36, 0
6, 28220, Note_on_c, 9, 42, 127
6, 28220, Note_on_c, 9, 36, 127
6, 28222, Note_on_c, 9, 51, 0
6, 28222, Note_on_c, 9, 51, 127
6, 28307, Note_on_c, 9, 42, 0
6, 28307, Note_on_c, 9, 42, 95
6, 28309, Note_on_c, 9, 51, 0
6, 28309, Note_on_c, 9, 51, 127
6, 28397, Note_on_c, 9, 51, 0
6, 28397, Note_on_c, 9, 42, 0
6, 28397, Note_on_c, 9, 38, 0
6, 28397, Note_on_c, 9, 38, 127
6, 28397, Note_on_c, 9, 51, 127
6, 28397, Note_on_c, 9, 42, 127
6, 28487, Note_on_c, 9, 42, 0
6, 28487, Note_on_c, 9, 51, 0
6, 28487, Note_on_c, 9, 51, 127
6, 28487, Note_on_c, 9, 42, 95
6, 28579, Note_on_c, 9, 42, 0
6, 28579, Note_on_c, 9, 51, 0
6, 28579, Note_on_c, 9, 36, 0
6, 28579, Note_on_c, 9, 49, 0
6, 28579, Note_on_c, 9, 51, 127
6, 28579, Note_on_c, 9, 42, 127
6, 28579, Note_on_c, 9, 49, 127
6, 28579, Note_on_c, 9, 36, 127
6, 28661, Note_on_c, 9, 42, 0
6, 28661, Note_on_c, 9, 42, 95
6, 28663, Note_on_c, 9, 51, 0
6, 28663, Note_on_c, 9, 51, 127
6, 28755, Note_on_c, 9, 51, 0
6, 28755, Note_on_c, 9, 36, 0
6, 28755, Note_on_c, 9, 38, 0
6, 28755, Note_on_c, 9, 42, 0
6, 28755, Note_on_c, 9, 38, 127
6, 28755, Note_on_c, 9, 51, 127
6, 28755, Note_on_c, 9, 42, 127
6, 28755, Note_on_c, 9, 36, 127
6, 28846, Note_on_c, 9, 42, 0
6, 28846, Note_on_c, 9, 42, 95
6, 28847, Note_on_c, 9, 51, 0
6, 28847, Note_on_c, 9, 51, 127
6, 28938, Note_on_c, 9, 51, 0
6, 28938, Note_on_c, 9, 42, 0
6, 28938, Note_on_c, 9, 36, 0
6, 28938, Note_on_c, 9, 36, 127
6, 28938, Note_on_c, 9, 42, 127
6, 28938, Note_on_c, 9, 51, 127
6, 29021, Note_on_c, 9, 51, 0
6, 29021, Note_on_c, 9, 42, 0
6, 29021, Note_on_c, 9, 51, 127
6, 29021, Note_on_c, 9, 42, 95
6, 29111, Note_on_c, 9, 42, 0
6, 29111, Note_on_c, 9, 36, 0
6, 29111, Note_on_c, 9, 42, 127
6, 29111, Note_on_c, 9, 36, 127
6, 29113, Note_on_c, 9, 38, 0
6, 29113, Note_on_c, 9, 51, 0
6, 29113, Note_on_c, 9, 38, 127
6, 29113, Note_on_c, 9, 51, 127
6, 29201, Note_on_c, 9, 36, 0
6, 29201, Note_on_c, 9, 42, 0
6, 29201, Note_on_c, 9, 42, 95
6, 29201, Note_on_c, 9, 36, 127
6, 29203, Note_on_c, 9, 51, 0
6, 29203, Note_on_c, 9, 51, 127
6, 29295, Note_on_c, 9, 51, 0
6, 29295, Note_on_c, 9, 36, 0
6, 29295, Note_on_c, 9, 38, 0
6, 29295, Note_on_c, 9, 38, 127
6, 29295, Note_on_c, 9, 51, 127
6, 29295, Note_on_c, 9, 36, 127
6, 29298, Note_on_c, 9, 46, 127
6, 29302, Note_on_c, 9, 46, 0
6, 29377, Note_on_c, 9, 42, 0
6, 29377, Note_on_c, 9, 42, 95
6, 29379, Note_on_c, 9, 51, 0
6, 29379, Note_on_c, 9, 51, 127
6, 29411, Note_on_c, 9, 38, 0
6, 29411, Note_on_c, 9, 46, 127
6, 29411, Note_on_c, 9, 38, 127
6, 29415, Note_on_c, 9, 46, 0
6, 29469, Note_on_c, 9, 36, 0
6, 29469, Note_on_c, 9, 51, 0
6, 29469, Note_on_c, 9, 42, 0
6, 29469, Note_on_c, 9, 51, 127
6, 29469, Note_on_c, 9, 42, 127
6, 29469, Note_on_c, 9, 36, 127
6, 29534, Note_on_c, 9, 38, 0
6, 29534, Note_on_c, 9, 38, 127
6, 29534, Note_on_c, 9, 46, 127
6, 29536, Note_on_c, 9, 46, 0
6, 29557, Note_on_c, 9, 42, 0
6, 29557, Note_on_c, 9, 42, 95
6, 29559, Note_on_c, 9, 51, 0
6, 29559, Note_on_c, 9, 51, 127
6, 29647, Note_on_c, 9, 51, 0
6, 29647, Note_on_c, 9, 36, 0
6, 29647, Note_on_c, 9, 38, 0
6, 29647, Note_on_c, 9, 49, 0
6, 29647, Note_on_c, 9, 46, 127
6, 29647, Note_on_c, 9, 38, 127
6, 29647, Note_on_c, 9, 51, 127
6, 29647, Note_on_c, 9, 49, 127
6, 29647, Note_on_c, 9, 36, 127
6, 29737, Note_on_c, 9, 51, 0
6, 29737, Note_on_c, 9, 42, 0
6, 29737, Note_on_c, 9, 51, 127
6, 29737, Note_on_c, 9, 42, 95
6, 29827, Note_on_c, 9, 42, 0
6, 29827, Note_on_c, 9, 36, 0
6, 29827, Note_on_c, 9, 42, 127
6, 29827, Note_on_c, 9, 36, 127
6, 29830, Note_on_c, 9, 51, 0
6, 29830, Note_on_c, 9, 38, 0
6, 29830, Note_on_c, 9, 51, 127
6, 29830, Note_on_c, 9, 38, 127
6, 29918, Note_on_c, 9, 51, 0
6, 29918, Note_on_c, 9, 42, 0
6, 29918, Note_on_c, 9, 51, 127
6, 29918, Note_on_c, 9, 42, 95
6, 30009, Note_on_c, 9, 51, 0
6, 30009, Note_on_c, 9, 36, 0
6, 30009, Note_on_c, 9, 49, 0
6, 30009, Note_on_c, 9, 51, 127
6, 30009, Note_on_c, 9, 49, 127
6, 30009, Note_on_c, 9, 36, 127
6, 30012, Note_on_c, 9, 46, 0
6, 30012, Note_on_c, 9, 38, 0
6, 30012, Note_on_c, 9, 41, 0
6, 30012, Note_on_c, 9, 38, 127
6, 30012, Note_on_c, 9, 46, 127
6, 30012, Note_on_c, 9, 41, 127
6, 30091, Note_on_c, 9, 51, 0
6, 30091, Note_on_c, 9, 51, 127
6, 30093, Note_on_c, 9, 46, 0
6, 30093, Note_on_c, 9, 46, 127
6, 30123, Note_on_c, 9, 46, 0
6, 30123, Note_on_c, 9, 41, 0
6, 30123, Note_on_c, 9, 38, 0
6, 30123, Note_on_c, 9, 41, 127
6, 30123, Note_on_c, 9, 46, 127
6, 30123, Note_on_c, 9, 38, 127
6, 30183, Note_on_c, 9, 36, 0
6, 30183, Note_on_c, 9, 42, 0
6, 30183, Note_on_c, 9, 42, 127
6, 30183, Note_on_c, 9, 36, 127
6, 30185, Note_on_c, 9, 51, 0
6, 30185, Note_on_c, 9, 51, 127
6, 30243, Note_on_c, 9, 46, 0
6, 30243, Note_on_c, 9, 38, 0
6, 30243, Note_on_c, 9, 41, 0
6, 30243, Note_on_c, 9, 41, 127
6, 30243, Note_on_c, 9, 46, 127
6, 30243, Note_on_c, 9, 38, 127
6, 30273, Note_on_c, 9, 46, 0
6, 30273, Note_on_c, 9, 51, 0
6, 30273, Note_on_c, 9, 46, 127
6, 30273, Note_on_c, 9, 51, 127
6, 30363, Note_on_c, 9, 51, 0
6, 30363, Note_on_c, 9, 38, 0
6, 30363, Note_on_c, 9, 46, 0
6, 30363, Note_on_c, 9, 49, 0
6, 30363, Note_on_c, 9, 36, 0
6, 30363, Note_on_c, 9, 41, 0
6, 30363, Note_on_c, 9, 41, 127
6, 30363, Note_on_c, 9, 46, 127
6, 30363, Note_on_c, 9, 38, 127
6, 30363, Note_on_c, 9, 51, 127
6, 30363, Note_on_c, 9, 49, 127
6, 30363, Note_on_c, 9, 36, 127
6, 30449, Note_on_c, 9, 42, 0
6, 30449, Note_on_c, 9, 42, 95
6, 30451, Note_on_c, 9, 51, 0
6, 30451, Note_on_c, 9, 51, 127
6, 30539, Note_on_c, 9, 36, 0
6, 30539, Note_on_c, 9, 36, 127
6, 30541, Note_on_c, 9, 51, 0
6, 30541, Note_on_c, 9, 42, 0
6, 30541, Note_on_c, 9, 51, 127
6, 30541, Note_on_c, 9, 42, 127
6, 30543, Note_on_c, 9, 38, 0
6, 30543, Note_on_c, 9, 38, 127
6, 30629, Note_on_c, 9, 42, 0
6, 30629, Note_on_c, 9, 51, 0
6, 30629, Note_on_c, 9, 51, 127
6, 30629, Note_on_c, 9, 42, 95
6, 30721, Note_on_c, 9, 51, 0
6, 30721, Note_on_c, 9, 36, 0
6, 30721, Note_on_c, 9, 46, 0
6, 30721, Note_on_c, 9, 38, 0
6, 30721, Note_on_c, 9, 41, 0
6, 30721, Note_on_c, 9, 41, 127
6, 30721, Note_on_c, 9, 46, 127
6, 30721, Note_on_c, 9, 38, 127
6, 30721, Note_on_c, 9, 51, 127
6, 30721, Note_on_c, 9, 36, 127
6, 30808, Note_on_c, 9, 51, 0
6, 30808, Note_on_c, 9, 51, 127
6, 30810, Note_on_c, 9, 46, 0
6, 30810, Note_on_c, 9, 46, 127
6, 30841, Note_on_c, 9, 46, 0
6, 30841, Note_on_c, 9, 38, 0
6, 30841, Note_on_c, 9, 41, 0
6, 30841, Note_on_c, 9, 41, 127
6, 30841, Note_on_c, 9, 46, 127
6, 30841, Note_on_c, 9, 38, 127
6, 30897, Note_on_c, 9, 36, 0
6, 30897, Note_on_c, 9, 51, 0
6, 30897, Note_on_c, 9, 51, 127
6, 30897, Note_on_c, 9, 36, 127
6, 30900, Note_on_c, 9, 46, 0
6, 30900, Note_on_c, 9, 46, 127
6, 30959, Note_on_c, 9, 38, 0
6, 30959, Note_on_c, 9, 38, 127
6, 30961, Note_on_c, 9, 46, 0
6, 30961, Note_on_c, 9, 41, 0
6, 30961, Note_on_c, 9, 41, 127
6, 30961, Note_on_c, 9, 46, 127
6, 30987, Note_on_c, 9, 46, 0
6, 30987, Note_on_c, 9, 51, 0
6, 30987, Note_on_c, 9, 46, 127
6, 30987, Note_on_c, 9, 51, 127
6, 31080, Note_on_c, 9, 36, 0
6, 31080, Note_on_c, 9, 49, 0
6, 31080, Note_on_c, 9, 36, 127
6, 31080, Note_on_c, 9, 49, 127
6, 31081, Note_on_c, 9, 51, 0
6, 31081, Note_on_c, 9, 46, 0
6, 31081, Note_on_c, 9, 38, 0
6, 31081, Note_on_c, 9, 51, 127
6, 31081, Note_on_c, 9, 38, 127
6, 31081, Note_on_c, 9, 46, 127
6, 31083, Note_on_c, 9, 41, 0
6, 31083, Note_on_c, 9, 41, 127
6, 31165, Note_on_c, 9, 42, 0
6, 31165, Note_on_c, 9, 51, 0
6, 31165, Note_on_c, 9, 51, 127
6, 31165, Note_on_c, 9, 42, 95
6, 31255, Note_on_c, 9, 42, 0
6, 31255, Note_on_c, 9, 36, 0
6, 31255, Note_on_c, 9, 51, 0
6, 31255, Note_on_c, 9, 38, 0
6, 31255, Note_on_c, 9, 38, 127
6, 31255, Note_on_c, 9, 51, 127
6, 31255, Note_on_c, 9, 42, 127
6, 31255, Note_on_c, 9, 36, 127
6, 31343, Note_on_c, 9, 42, 0
6, 31343, Note_on_c, 9, 42, 95
6, 31345, Note_on_c, 9, 51, 0
6, 31345, Note_on_c, 9, 51, 127
6, 31438, Note_on_c, 9, 36, 0
6, 31438, Note_on_c, 9, 49, 0
6, 31438, Note_on_c, 9, 36, 127
6, 31438, Note_on_c, 9, 49, 127
6, 31439, Note_on_c, 9, 51, 0
6, 31439, Note_on_c, 9, 46, 0
6, 31439, Note_on_c, 9, 38, 0
6, 31439, Note_on_c, 9, 51, 127
6, 31439, Note_on_c, 9, 38, 127
6, 31439, Note_on_c, 9, 46, 127
6, 31441, Note_on_c, 9, 41, 0
6, 31441, Note_on_c, 9, 41, 127
6, 31521, Note_on_c, 9, 51, 0
6, 31521, Note_on_c, 9, 51, 127
6, 31523, Note_on_c, 9, 46, 0
6, 31523, Note_on_c, 9, 46, 127
6, 31555, Note_on_c, 9, 46, 0
6, 31555, Note_on_c, 9, 38, 0
6, 31555, Note_on_c, 9, 41, 0
6, 31555, Note_on_c, 9, 41, 127
6, 31555, Note_on_c, 9, 46, 127
6, 31555, Note_on_c, 9, 38, 127
6, 31611, Note_on_c, 9, 42, 0
6, 31611, Note_on_c, 9, 51, 0
6, 31611, Note_on_c, 9, 36, 0
6, 31611, Note_on_c, 9, 51, 127
6, 31611, Note_on_c, 9, 42, 127
6, 31611, Note_on_c, 9, 36, 127
6, 31671, Note_on_c, 9, 46, 0
6, 31671, Note_on_c, 9, 38, 0
6, 31671, Note_on_c, 9, 41, 0
6, 31671, Note_on_c, 9, 41, 127
6, 31671, Note_on_c, 9, 46, 127
6, 31671, Note_on_c, 9, 38, 127
6, 31701, Note_on_c, 9, 51, 0
6, 31701, Note_on_c, 9, 51, 127
6, 31703, Note_on_c, 9, 46, 0
6, 31703, Note_on_c, 9, 46, 127
6, 31795, Note_on_c, 9, 38, 0
6, 31795, Note_on_c, 9, 51, 0
6, 31795, Note_on_c, 9, 49, 0
6, 31795, Note_on_c, 9, 36, 0
6, 31795, Note_on_c, 9, 36, 127
6, 31795, Note_on_c, 9, 49, 127
6, 31795, Note_on_c, 9, 51, 127
6, 31795, Note_on_c, 9, 38, 127
6, 31797, Note_on_c, 9, 46, 0
6, 31797, Note_on_c, 9, 46, 127
6, 31799, Note_on_c, 9, 41, 0
6, 31799, Note_on_c, 9, 41, 127
6, 31879, Note_on_c, 9, 46, 0
6, 31879, Note_on_c, 9, 51, 0
6, 31879, Note_on_c, 9, 46, 127
6, 31879, Note_on_c, 9, 51, 127
6, 31914, Note_on_c, 9, 46, 0
6, 31914, Note_on_c, 9, 38, 0
6, 31914, Note_on_c, 9, 41, 0
6, 31914, Note_on_c, 9, 38, 127
6, 31914, Note_on_c, 9, 46, 127
6, 31914, Note_on_c, 9, 41, 127
6, 31969, Note_on_c, 9, 51, 0
6, 31969, Note_on_c, 9, 42, 0
6, 31969, Note_on_c, 9, 36, 0
6, 31969, Note_on_c, 9, 51, 127
6, 31969, Note_on_c, 9, 42, 127
6, 31969, Note_on_c, 9, 36, 127
6, 32031, Note_on_c, 9, 46, 0
6, 32031, Note_on_c, 9, 38, 0
6, 32031, Note_on_c, 9, 46, 127
6, 32031, Note_on_c, 9, 38, 127
6, 32034, Note_on_c, 9, 41, 0
6, 32034, Note_on_c, 9, 41, 127
6, 32057, Note_on_c, 9, 51, 0
6, 32057, Note_on_c, 9, 51, 127
6, 32059, Note_on_c, 9, 46, 0
6, 32059, Note_on_c, 9, 46, 127
6, 32153, Note_on_c, 9, 51, 0
6, 32153, Note_on_c, 9, 36, 0
6, 32153, Note_on_c, 9, 49, 0
6, 32153, Note_on_c, 9, 51, 127
6, 32153, Note_on_c, 9, 49, 127
6, 32153, Note_on_c, 9, 36, 127
6, 32156, Note_on_c, 9, 41, 0
6, 32156, Note_on_c, 9, 46, 0
6, 32156, Note_on_c, 9, 38, 0
6, 32156, Note_on_c, 9, 38, 127
6, 32156, Note_on_c, 9, 46, 127
6, 32156, Note_on_c, 9, 41, 127
6, 32237, Note_on_c, 9, 51, 0
6, 32237, Note_on_c, 9, 51, 127
6, 32239, Note_on_c, 9, 46, 0
6, 32239, Note_on_c, 9, 46, 127
6, 32269, Note_on_c, 9, 46, 0
6, 32269, Note_on_c, 9, 41, 0
6, 32269, Note_on_c, 9, 38, 0
6, 32269, Note_on_c, 9, 41, 127
6, 32269, Note_on_c, 9, 46, 127
6, 32269, Note_on_c, 9, 38, 127
6, 32327, Note_on_c, 9, 51, 0
6, 32327, Note_on_c, 9, 42, 0
6, 32327, Note_on_c, 9, 36, 0
6, 32327, Note_on_c, 9, 51, 127
6, 32327, Note_on_c, 9, 42, 127
6, 32327, Note_on_c, 9, 36, 127
6, 32390, Note_on_c, 9, 46, 0
6, 32390, Note_on_c, 9, 38, 0
6, 32390, Note_on_c, 9, 41, 0
6, 32390, Note_on_c, 9, 41, 127
6, 32390, Note_on_c, 9, 46, 127
6, 32390, Note_on_c, 9, 38, 127
6, 32415, Note_on_c, 9, 51, 0
6, 32415, Note_on_c, 9, 51, 127
6, 32417, Note_on_c, 9, 46, 0
6, 32417, Note_on_c, 9, 46, 127
6, 32505, Note_on_c, 9, 38, 0
6, 32505, Note_on_c, 9, 51, 0
6, 32505, Note_on_c, 9, 36, 0
6, 32505, Note_on_c, 9, 41, 0
6, 32505, Note_on_c, 9, 41, 127
6, 32505, Note_on_c, 9, 38, 127
6, 32505, Note_on_c, 9, 51, 127
6, 32505, Note_on_c, 9, 36, 127
6, 32551, Note_on_c, 9, 38, 0
6, 32551, Note_on_c, 9, 38, 127
6, 32593, Note_on_c, 9, 38, 0
6, 32593, Note_on_c, 9, 51, 0
6, 32593, Note_on_c, 9, 38, 127
6, 32593, Note_on_c, 9, 51, 127
6, 32639, Note_on_c, 9, 38, 0
6, 32639, Note_on_c, 9, 38, 127
6, 32681, Note_on_c, 9, 36, 0
6, 32681, Note_on_c, 9, 36, 127
6, 32684, Note_on_c, 9, 38, 0
6, 32684, Note_on_c, 9, 51, 0
6, 32684, Note_on_c, 9, 51, 127
6, 32684, Note_on_c, 9, 38, 127
6, 32725, Note_on_c, 9, 38, 0
6, 32725, Note_on_c, 9, 38, 127
6, 32773, Note_on_c, 9, 51, 0
6, 32773, Note_on_c, 9, 51, 127
6, 32775, Note_on_c, 9, 38, 0
6, 32775, Note_on_c, 9, 38, 127
6, 32820, Note_on_c, 9, 38, 0
6, 32820, Note_on_c, 9, 38, 127
6, 32865, Note_on_c, 9, 36, 0
6, 32865, Note_on_c, 9, 36, 127
6, 32868, Note_on_c, 9, 51, 0
6, 32868, Note_on_c, 9, 42, 0
6, 32868, Note_on_c, 9, 49, 0
6, 32868, Note_on_c, 9, 49, 127
6, 32868, Note_on_c, 9, 42, 127
6, 32868, Note_on_c, 9, 51, 127
6, 32951, Note_on_c, 9, 51, 0
6, 32951, Note_on_c, 9, 42, 0
6, 32951, Note_on_c, 9, 51, 127
6, 32951, Note_on_c, 9, 42, 95
6, 33041, Note_on_c, 9, 42, 0
6, 33041, Note_on_c, 9, 42, 127
6, 33043, Note_on_c, 9, 51, 0
6, 33043, Note_on_c, 9, 38, 0
6, 33043, Note_on_c, 9, 38, 127
6, 33043, Note_on_c, 9, 51, 127
6, 33131, Note_on_c, 9, 51, 0
6, 33131, Note_on_c, 9, 42, 0
6, 33131, Note_on_c, 9, 51, 127
6, 33131, Note_on_c, 9, 42, 95
6, 33217, Note_on_c, 9, 42, 0
6, 33217, Note_on_c, 9, 51, 0
6, 33217, Note_on_c, 9, 36, 0
6, 33217, Note_on_c, 9, 51, 127
6, 33217, Note_on_c, 9, 42, 127
6, 33217, Note_on_c, 9, 36, 127
6, 33309, Note_on_c, 9, 42, 0
6, 33309, Note_on_c, 9, 42, 95
6, 33311, Note_on_c, 9, 51, 0
6, 33311, Note_on_c, 9, 51, 127
6, 33399, Note_on_c, 9, 51, 0
6, 33399, Note_on_c, 9, 42, 0
6, 33399, Note_on_c, 9, 51, 127
6, 33399, Note_on_c, 9, 42, 127
6, 33401, Note_on_c, 9, 38, 0
6, 33401, Note_on_c, 9, 38, 127
6, 33488, Note_on_c, 9, 36, 0
6, 33488, Note_on_c, 9, 36, 127
6, 33489, Note_on_c, 9, 51, 0
6, 33489, Note_on_c, 9, 42, 0
6, 33489, Note_on_c, 9, 51, 127
6, 33489, Note_on_c, 9, 42, 95
6, 33579, Note_on_c, 9, 42, 0
6, 33579, Note_on_c, 9, 51, 0
6, 33579, Note_on_c, 9, 36, 0
6, 33579, Note_on_c, 9, 51, 127
6, 33579, Note_on_c, 9, 42, 127
6, 33579, Note_on_c, 9, 36, 127
6, 33665, Note_on_c, 9, 42, 0
6, 33665, Note_on_c, 9, 51, 0
6, 33665, Note_on_c, 9, 51, 127
6, 33665, Note_on_c, 9, 42, 95
6, 33753, Note_on_c, 9, 42, 0
6, 33753, Note_on_c, 9, 51, 0
6, 33753, Note_on_c, 9, 38, 0
6, 33753, Note_on_c, 9, 38, 127
6, 33753, Note_on_c, 9, 51, 127
6, 33753, Note_on_c, 9, 42, 127
6, 33848, Note_on_c, 9, 42, 0
6, 33848, Note_on_c, 9, 51, 0
6, 33848, Note_on_c, 9, 42, 95
6, 33848, Note_on_c, 9, 51, 127
6, 33934, Note_on_c, 9, 51, 0
6, 33934, Note_on_c, 9, 42, 0
6, 33934, Note_on_c, 9, 36, 0
6, 33934, Note_on_c, 9, 51, 127
6, 33934, Note_on_c, 9, 42, 127
6, 33934, Note_on_c, 9, 36, 127
6, 34023, Note_on_c, 9, 42, 0
6, 34023, Note_on_c, 9, 51, 0
6, 34023, Note_on_c, 9, 51, 127
6, 34023, Note_on_c, 9, 42, 95
6, 34114, Note_on_c, 9, 42, 0
6, 34114, Note_on_c, 9, 51, 0
6, 34114, Note_on_c, 9, 38, 0
6, 34114, Note_on_c, 9, 38, 127
6, 34114, Note_on_c, 9, 51, 127
6, 34114, Note_on_c, 9, 42, 127
6, 34201, Note_on_c, 9, 42, 0
6, 34201, Note_on_c, 9, 51, 0
6, 34201, Note_on_c, 9, 51, 127
6, 34201, Note_on_c, 9, 42, 95
6, 34295, Note_on_c, 9, 42, 0
6, 34295, Note_on_c, 9, 51, 0
6, 34295, Note_on_c, 9, 36, 0
6, 34295, Note_on_c, 9, 51, 127
6, 34295, Note_on_c, 9, 42, 127
6, 34295, Note_on_c, 9, 36, 127
6, 34381, Note_on_c, 9, 42, 0
6, 34381, Note_on_c, 9, 51, 0
6, 34381, Note_on_c, 9, 51, 127
6, 34381, Note_on_c, 9, 42, 95
6, 34471, Note_on_c, 9, 42, 0
6, 34471, Note_on_c, 9, 51, 0
6, 34471, Note_on_c, 9, 51, 127
6, 34471, Note_on_c, 9, 42, 127
6, 34474, Note_on_c, 9, 38, 0
6, 34474, Note_on_c, 9, 38, 127
6, 34561, Note_on_c, 9, 42, 0
6, 34561, Note_on_c, 9, 51, 0
6, 34561, Note_on_c, 9, 51, 127
6, 34652, Note_on_c, 9, 51, 0
6, 34652, Note_on_c, 9, 36, 0
6, 34652, Note_on_c, 9, 36, 127
6, 34652, Note_on_c, 9, 42, 127
6, 34652, Note_on_c, 9, 51, 127
6, 34737, Note_on_c, 9, 51, 0
6, 34737, Note_on_c, 9, 42, 0
6, 34737, Note_on_c, 9, 51, 127
6, 34737, Note_on_c, 9, 42, 95
6, 34825, Note_on_c, 9, 42, 0
6, 34825, Note_on_c, 9, 51, 0
6, 34825, Note_on_c, 9, 38, 0
6, 34825, Note_on_c, 9, 38, 127
6, 34825, Note_on_c, 9, 51, 127
6, 34825, Note_on_c, 9, 42, 127
6, 34917, Note_on_c, 9, 42, 0
6, 34917, Note_on_c, 9, 51, 0
6, 34917, Note_on_c, 9, 36, 0
6, 34917, Note_on_c, 9, 51, 127
6, 34917, Note_on_c, 9, 42, 95
6, 34917, Note_on_c, 9, 36, 127
6, 35007, Note_on_c, 9, 36, 0
6, 35007, Note_on_c, 9, 42, 0
6, 35007, Note_on_c, 9, 51, 0
6, 35007, Note_on_c, 9, 51, 127
6, 35007, Note_on_c, 9, 42, 127
6, 35007, Note_on_c, 9, 36, 127
6, 35092, Note_on_c, 9, 42, 0
6, 35092, Note_on_c, 9, 42, 95
6, 35094, Note_on_c, 9, 51, 0
6, 35094, Note_on_c, 9, 51, 127
6, 35183, Note_on_c, 9, 51, 0
6, 35183, Note_on_c, 9, 42, 0
6, 35183, Note_on_c, 9, 38, 0
6, 35183, Note_on_c, 9, 38, 127
6, 35183, Note_on_c, 9, 51, 127
6, 35183, Note_on_c, 9, 42, 127
6, 35271, Note_on_c, 9, 42, 0
6, 35271, Note_on_c, 9, 51, 0
6, 35271, Note_on_c, 9, 51, 127
6, 35271, Note_on_c, 9, 42, 95
6, 35363, Note_on_c, 9, 42, 0
6, 35363, Note_on_c, 9, 36, 0
6, 35363, Note_on_c, 9, 42, 127
6, 35363, Note_on_c, 9, 36, 127
6, 35365, Note_on_c, 9, 51, 0
6, 35365, Note_on_c, 9, 51, 127
6, 35451, Note_on_c, 9, 51, 0
6, 35451, Note_on_c, 9, 42, 0
6, 35451, Note_on_c, 9, 51, 127
6, 35451, Note_on_c, 9, 42, 95
6, 35541, Note_on_c, 9, 42, 0
6, 35541, Note_on_c, 9, 51, 0
6, 35541, Note_on_c, 9, 38, 0
6, 35541, Note_on_c, 9, 38, 127
6, 35541, Note_on_c, 9, 51, 127
6, 35541, Note_on_c, 9, 42, 127
6, 35632, Note_on_c, 9, 42, 0
6, 35632, Note_on_c, 9, 51, 0
6, 35632, Note_on_c, 9, 42, 95
6, 35632, Note_on_c, 9, 51, 127
6, 35719, Note_on_c, 9, 42, 0
6, 35719, Note_on_c, 9, 36, 0
6, 35719, Note_on_c, 9, 49, 0
6, 35719, Note_on_c, 9, 42, 127
6, 35719, Note_on_c, 9, 49, 127
6, 35719, Note_on_c, 9, 36, 127
6, 35722, Note_on_c, 9, 51, 0
6, 35722, Note_on_c, 9, 38, 0
6, 35722, Note_on_c, 9, 38, 95
6, 35722, Note_on_c, 9, 51, 127
6, 35807, Note_on_c, 9, 51, 0
6, 35807, Note_on_c, 9, 38, 0
6, 35807, Note_on_c, 9, 42, 0
6, 35807, Note_on_c, 9, 38, 95
6, 35807, Note_on_c, 9, 51, 127
6, 35807, Note_on_c, 9, 42, 95
6, 35899, Note_on_c, 9, 36, 0
6, 35899, Note_on_c, 9, 36, 127
6, 35902, Note_on_c, 9, 42, 0
6, 35902, Note_on_c, 9, 51, 0
6, 35902, Note_on_c, 9, 42, 127
6, 35902, Note_on_c, 9, 51, 127
6, 35903, Note_on_c, 9, 38, 0
6, 35903, Note_on_c, 9, 38, 95
6, 35987, Note_on_c, 9, 38, 0
6, 35987, Note_on_c, 9, 42, 0
6, 35987, Note_on_c, 9, 36, 0
6, 35987, Note_on_c, 9, 51, 0
6, 35987, Note_on_c, 9, 38, 95
6, 35987, Note_on_c, 9, 51, 127
6, 35987, Note_on_c, 9, 42, 95
6, 35987, Note_on_c, 9, 36, 127
6, 36079, Note_on_c, 9, 36, 0
6, 36079, Note_on_c, 9, 42, 0
6, 36079, Note_on_c, 9, 51, 0
6, 36079, Note_on_c, 9, 45, 0
6, 36079, Note_on_c, 9, 38, 0
6, 36079, Note_on_c, 9, 45, 127
6, 36079, Note_on_c, 9, 38, 127
6, 36079, Note_on_c, 9, 51, 127
6, 36079, Note_on_c, 9, 42, 127
6, 36079, Note_on_c, 9, 36, 127
6, 36167, Note_on_c, 9, 36, 0
6, 36167, Note_on_c, 9, 36, 127
6, 36169, Note_on_c, 9, 42, 0
6, 36169, Note_on_c, 9, 51, 0
6, 36169, Note_on_c, 9, 38, 0
6, 36169, Note_on_c, 9, 38, 127
6, 36169, Note_on_c, 9, 51, 127
6, 36169, Note_on_c, 9, 42, 95
6, 36171, Note_on_c, 9, 45, 0
6, 36171, Note_on_c, 9, 45, 127
6, 36255, Note_on_c, 9, 41, 0
6, 36255, Note_on_c, 9, 42, 0
6, 36255, Note_on_c, 9, 51, 0
6, 36255, Note_on_c, 9, 36, 0
6, 36255, Note_on_c, 9, 38, 0
6, 36255, Note_on_c, 9, 41, 127
6, 36255, Note_on_c, 9, 38, 127
6, 36255, Note_on_c, 9, 51, 127
6, 36255, Note_on_c, 9, 42, 127
6, 36255, Note_on_c, 9, 36, 127
6, 36347, Note_on_c, 9, 36, 0
6, 36347, Note_on_c, 9, 42, 0
6, 36347, Note_on_c, 9, 51, 0
6, 36347, Note_on_c, 9, 41, 0
6, 36347, Note_on_c, 9, 38, 0
6, 36347, Note_on_c, 9, 41, 127
6, 36347, Note_on_c, 9, 38, 127
6, 36347, Note_on_c, 9, 51, 127
6, 36347, Note_on_c, 9, 42, 95
6, 36347, Note_on_c, 9, 36, 127
6, 36439, Note_on_c, 9, 36, 0
6, 36439, Note_on_c, 9, 49, 0
6, 36439, Note_on_c, 9, 36, 127
6, 36439, Note_on_c, 9, 49, 127
6, 36441, Note_on_c, 9, 42, 0
6, 36441, Note_on_c, 9, 51, 0
6, 36441, Note_on_c, 9, 42, 127
6, 36441, Note_on_c, 9, 51, 127
6, 36522, Note_on_c, 9, 42, 0
6, 36522, Note_on_c, 9, 42, 95
6, 36524, Note_on_c, 9, 51, 0
6, 36524, Note_on_c, 9, 51, 127
6, 36613, Note_on_c, 9, 42, 0
6, 36613, Note_on_c, 9, 37, 0
6, 36613, Note_on_c, 9, 42, 127
6, 36613, Note_on_c, 9, 37, 127
6, 36615, Note_on_c, 9, 51, 0
6, 36615, Note_on_c, 9, 51, 127
6, 36701, Note_on_c, 9, 51, 0
6, 36701, Note_on_c, 9, 42, 0
6, 36701, Note_on_c, 9, 36, 0
6, 36701, Note_on_c, 9, 51, 127
6, 36701, Note_on_c, 9, 42, 95
6, 36701, Note_on_c, 9, 36, 127
6, 36789, Note_on_c, 9, 42, 0
6, 36789, Note_on_c, 9, 42, 127
6, 36791, Note_on_c, 9, 51, 0
6, 36791, Note_on_c, 9, 51, 127
6, 36881, Note_on_c, 9, 51, 0
6, 36881, Note_on_c, 9, 42, 0
6, 36881, Note_on_c, 9, 37, 0
6, 36881, Note_on_c, 9, 51, 127
6, 36881, Note_on_c, 9, 42, 95
6, 36881, Note_on_c, 9, 37, 127
6, 36971, Note_on_c, 9, 42, 0
6, 36971, Note_on_c, 9, 51, 0
6, 36971, Note_on_c, 9, 51, 127
6, 36971, Note_on_c, 9, 42, 127
6, 37059, Note_on_c, 9, 42, 0
6, 37059, Note_on_c, 9, 51, 0
6, 37059, Note_on_c, 9, 36, 0
6, 37059, Note_on_c, 9, 51, 127
6, 37059, Note_on_c, 9, 42, 95
6, 37059, Note_on_c, 9, 36, 127
6, 37150, Note_on_c, 9, 36, 0
6, 37150, Note_on_c, 9, 42, 0
6, 37150, Note_on_c, 9, 51, 0
6, 37150, Note_on_c, 9, 51, 127
6, 37150, Note_on_c, 9, 42, 127
6, 37150, Note_on_c, 9, 36, 127
6, 37236, Note_on_c, 9, 42, 0
6, 37236, Note_on_c, 9, 51, 0
6, 37236, Note_on_c, 9, 51, 127
6, 37236, Note_on_c, 9, 42, 95
6, 37327, Note_on_c, 9, 37, 0
6, 37327, Note_on_c, 9, 37, 127
6, 37329, Note_on_c, 9, 42, 0
6, 37329, Note_on_c, 9, 51, 0
6, 37329, Note_on_c, 9, 51, 127
6, 37329, Note_on_c, 9, 42, 127
6, 37415, Note_on_c, 9, 42, 0
6, 37415, Note_on_c, 9, 36, 0
6, 37415, Note_on_c, 9, 42, 95
6, 37415, Note_on_c, 9, 36, 127
6, 37417, Note_on_c, 9, 51, 0
6, 37417, Note_on_c, 9, 51, 127
6, 37505, Note_on_c, 9, 51, 0
6, 37505, Note_on_c, 9, 42, 0
6, 37505, Note_on_c, 9, 51, 127
6, 37505, Note_on_c, 9, 42, 127
6, 37593, Note_on_c, 9, 37, 0
6, 37593, Note_on_c, 9, 37, 127
6, 37595, Note_on_c, 9, 42, 0
6, 37595, Note_on_c, 9, 51, 0
6, 37595, Note_on_c, 9, 51, 127
6, 37595, Note_on_c, 9, 42, 95
6, 37685, Note_on_c, 9, 42, 0
6, 37685, Note_on_c, 9, 42, 127
6, 37687, Note_on_c, 9, 51, 0
6, 37687, Note_on_c, 9, 51, 127
6, 37774, Note_on_c, 9, 51, 0
6, 37774, Note_on_c, 9, 42, 0
6, 37774, Note_on_c, 9, 36, 0
6, 37774, Note_on_c, 9, 51, 127
6, 37774, Note_on_c, 9, 42, 95
6, 37774, Note_on_c, 9, 36, 127
6, 37868, Note_on_c, 9, 36, 0
6, 37868, Note_on_c, 9, 42, 0
6, 37868, Note_on_c, 9, 51, 0
6, 37868, Note_on_c, 9, 51, 127
6, 37868, Note_on_c, 9, 42, 127
6, 37868, Note_on_c, 9, 36, 127
6, 37951, Note_on_c, 9, 42, 0
6, 37951, Note_on_c, 9, 51, 0
6, 37951, Note_on_c, 9, 51, 127
6, 37951, Note_on_c, 9, 42, 95
6, 38042, Note_on_c, 9, 42, 0
6, 38042, Note_on_c, 9, 51, 0
6, 38042, Note_on_c, 9, 37, 0
6, 38042, Note_on_c, 9, 51, 127
6, 38042, Note_on_c, 9, 42, 127
6, 38042, Note_on_c, 9, 37, 127
6, 38130, Note_on_c, 9, 42, 0
6, 38130, Note_on_c, 9, 36, 0
6, 38130, Note_on_c, 9, 42, 95
6, 38130, Note_on_c, 9, 36, 127
6, 38131, Note_on_c, 9, 51, 0
6, 38131, Note_on_c, 9, 51, 127
6, 38219, Note_on_c, 9, 51, 0
6, 38219, Note_on_c, 9, 42, 0
6, 38219, Note_on_c, 9, 51, 127
6, 38219, Note_on_c, 9, 42, 127
6, 38309, Note_on_c, 9, 42, 0
6, 38309, Note_on_c, 9, 51, 0
6, 38309, Note_on_c, 9, 37, 0
6, 38309, Note_on_c, 9, 51, 127
6, 38309, Note_on_c, 9, 42, 95
6, 38309, Note_on_c, 9, 37, 127
6, 38399, Note_on_c, 9, 42, 0
6, 38399, Note_on_c, 9, 51, 0
6, 38399, Note_on_c, 9, 51, 127
6, 38399, Note_on_c, 9, 42, 127
6, 38489, Note_on_c, 9, 42, 0
6, 38489, Note_on_c, 9, 51, 0
6, 38489, Note_on_c, 9, 36, 0
6, 38489, Note_on_c, 9, 51, 127
6, 38489, Note_on_c, 9, 42, 95
6, 38489, Note_on_c, 9, 36, 127
6, 38579, Note_on_c, 9, 36, 0
6, 38579, Note_on_c, 9, 42, 0
6, 38579, Note_on_c, 9, 42, 127
6, 38579, Note_on_c, 9, 36, 127
6, 38582, Note_on_c, 9, 51, 0
6, 38582, Note_on_c, 9, 51, 127
6, 38663, Note_on_c, 9, 42, 0
6, 38663, Note_on_c, 9, 42, 95
6, 38665, Note_on_c, 9, 51, 0
6, 38665, Note_on_c, 9, 51, 127
6, 38755, Note_on_c, 9, 37, 0
6, 38755, Note_on_c, 9, 37, 127
6, 38757, Note_on_c, 9, 51, 0
6, 38757, Note_on_c, 9, 42, 0
6, 38757, Note_on_c, 9, 51, 127
6, 38757, Note_on_c, 9, 42, 127
6, 38843, Note_on_c, 9, 42, 0
6, 38843, Note_on_c, 9, 36, 0
6, 38843, Note_on_c, 9, 42, 95
6, 38843, Note_on_c, 9, 36, 127
6, 38846, Note_on_c, 9, 51, 0
6, 38846, Note_on_c, 9, 51, 127
6, 38931, Note_on_c, 9, 42, 0
6, 38931, Note_on_c, 9, 42, 127
6, 38934, Note_on_c, 9, 51, 0
6, 38934, Note_on_c, 9, 51, 127
6, 39023, Note_on_c, 9, 51, 0
6, 39023, Note_on_c, 9, 42, 0
6, 39023, Note_on_c, 9, 37, 0
6, 39023, Note_on_c, 9, 51, 127
6, 39023, Note_on_c, 9, 42, 95
6, 39023, Note_on_c, 9, 37, 127
6, 39116, Note_on_c, 9, 42, 0
6, 39116, Note_on_c, 9, 51, 0
6, 39116, Note_on_c, 9, 42, 127
6, 39116, Note_on_c, 9, 51, 127
6, 39203, Note_on_c, 9, 36, 0
6, 39203, Note_on_c, 9, 36, 127
6, 39206, Note_on_c, 9, 51, 0
6, 39206, Note_on_c, 9, 42, 0
6, 39206, Note_on_c, 9, 51, 127
6, 39206, Note_on_c, 9, 42, 95
6, 39293, Note_on_c, 9, 42, 0
6, 39293, Note_on_c, 9, 51, 0
6, 39293, Note_on_c, 9, 36, 0
6, 39293, Note_on_c, 9, 51, 127
6, 39293, Note_on_c, 9, 42, 127
6, 39293, Note_on_c, 9, 36, 127
6, 39377, Note_on_c, 9, 42, 0
6, 39377, Note_on_c, 9, 42, 95
6, 39379, Note_on_c, 9, 51, 0
6, 39379, Note_on_c, 9, 51, 127
6, 39469, Note_on_c, 9, 51, 0
6, 39469, Note_on_c, 9, 42, 0
6, 39469, Note_on_c, 9, 37, 0
6, 39469, Note_on_c, 9, 51, 127
6, 39469, Note_on_c, 9, 42, 127
6, 39469, Note_on_c, 9, 37, 127
6, 39560, Note_on_c, 9, 42, 0
6, 39560, Note_on_c, 9, 51, 0
6, 39560, Note_on_c, 9, 36, 0
6, 39560, Note_on_c, 9, 51, 127
6, 39560, Note_on_c, 9, 42, 95
6, 39560, Note_on_c, 9, 36, 127
6, 39647, Note_on_c, 9, 42, 0
6, 39647, Note_on_c, 9, 51, 0
6, 39647, Note_on_c, 9, 51, 127
6, 39647, Note_on_c, 9, 42, 127
6, 39737, Note_on_c, 9, 42, 0
6, 39737, Note_on_c, 9, 37, 0
6, 39737, Note_on_c, 9, 42, 95
6, 39737, Note_on_c, 9, 37, 127
6, 39740, Note_on_c, 9, 51, 0
6, 39740, Note_on_c, 9, 51, 127
6, 39825, Note_on_c, 9, 51, 0
6, 39825, Note_on_c, 9, 42, 0
6, 39825, Note_on_c, 9, 51, 127
6, 39825, Note_on_c, 9, 42, 127
6, 39917, Note_on_c, 9, 42, 0
6, 39917, Note_on_c, 9, 51, 0
6, 39917, Note_on_c, 9, 36, 0
6, 39917, Note_on_c, 9, 51, 127
6, 39917, Note_on_c, 9, 42, 95
6, 39917, Note_on_c, 9, 36, 127
6, 40007, Note_on_c, 9, 36, 0
6, 40007, Note_on_c, 9, 36, 127
6, 40010, Note_on_c, 9, 42, 0
6, 40010, Note_on_c, 9, 51, 0
6, 40010, Note_on_c, 9, 42, 127
6, 40010, Note_on_c, 9, 51, 127
6, 40093, Note_on_c, 9, 51, 0
6, 40093, Note_on_c, 9, 42, 0
6, 40093, Note_on_c, 9, 51, 127
6, 40093, Note_on_c, 9, 42, 95
6, 40185, Note_on_c, 9, 42, 0
6, 40185, Note_on_c, 9, 51, 0
6, 40185, Note_on_c, 9, 37, 0
6, 40185, Note_on_c, 9, 51, 127
6, 40185, Note_on_c, 9, 42, 127
6, 40185, Note_on_c, 9, 37, 127
6, 40273, Note_on_c, 9, 42, 0
6, 40273, Note_on_c, 9, 51, 0
6, 40273, Note_on_c, 9, 36, 0
6, 40273, Note_on_c, 9, 51, 127
6, 40273, Note_on_c, 9, 42, 95
6, 40273, Note_on_c, 9, 36, 127
6, 40361, Note_on_c, 9, 42, 0
6, 40361, Note_on_c, 9, 51, 0
6, 40361, Note_on_c, 9, 51, 127
6, 40361, Note_on_c, 9, 42, 127
6, 40453, Note_on_c, 9, 42, 0
6, 40453, Note_on_c, 9, 37, 0
6, 40453, Note_on_c, 9, 42, 95
6, 40453, Note_on_c, 9, 37, 127
6, 40455, Note_on_c, 9, 51, 0
6, 40455, Note_on_c, 9, 51, 127
6, 40546, Note_on_c, 9, 51, 0
6, 40546, Note_on_c, 9, 42, 0
6, 40546, Note_on_c, 9, 42, 127
6, 40546, Note_on_c, 9, 51, 127
6, 40634, Note_on_c, 9, 42, 0
6, 40634, Note_on_c, 9, 36, 0
6, 40634, Note_on_c, 9, 36, 127
6, 40634, Note_on_c, 9, 42, 95
6, 40636, Note_on_c, 9, 51, 0
6, 40636, Note_on_c, 9, 51, 127
6, 40721, Note_on_c, 9, 36, 0
6, 40721, Note_on_c, 9, 36, 127
6, 40724, Note_on_c, 9, 51, 0
6, 40724, Note_on_c, 9, 42, 0
6, 40724, Note_on_c, 9, 42, 127
6, 40724, Note_on_c, 9, 51, 127
6, 40808, Note_on_c, 9, 51, 0
6, 40808, Note_on_c, 9, 42, 0
6, 40808, Note_on_c, 9, 51, 127
6, 40808, Note_on_c, 9, 42, 95
6, 40899, Note_on_c, 9, 37, 0
6, 40899, Note_on_c, 9, 37, 127
6, 40902, Note_on_c, 9, 42, 0
6, 40902, Note_on_c, 9, 51, 0
6, 40902, Note_on_c, 9, 51, 127
6, 40902, Note_on_c, 9, 42, 127
6, 40987, Note_on_c, 9, 42, 0
6, 40987, Note_on_c, 9, 36, 0
6, 40987, Note_on_c, 9, 42, 95
6, 40987, Note_on_c, 9, 36, 127
6, 40989, Note_on_c, 9, 51, 0
6, 40989, Note_on_c, 9, 51, 127
6, 41078, Note_on_c, 9, 51, 0
6, 41078, Note_on_c, 9, 42, 0
6, 41078, Note_on_c, 9, 51, 127
6, 41078, Note_on_c, 9, 42, 127
6, 41167, Note_on_c, 9, 42, 0
6, 41167, Note_on_c, 9, 51, 0
6, 41167, Note_on_c, 9, 37, 0
6, 41167, Note_on_c, 9, 51, 127
6, 41167, Note_on_c, 9, 42, 95
6, 41167, Note_on_c, 9, 37, 127
6, 41257, Note_on_c, 9, 42, 0
6, 41257, Note_on_c, 9, 51, 0
6, 41257, Note_on_c, 9, 51, 127
6, 41257, Note_on_c, 9, 42, 127
6, 41345, Note_on_c, 9, 42, 0
6, 41345, Note_on_c, 9, 51, 0
6, 41345, Note_on_c, 9, 36, 0
6, 41345, Note_on_c, 9, 51, 127
6, 41345, Note_on_c, 9, 42, 95
6, 41345, Note_on_c, 9, 36, 127
6, 41433, Note_on_c, 9, 36, 0
6, 41433, Note_on_c, 9, 42, 0
6, 41433, Note_on_c, 9, 51, 0
6, 41433, Note_on_c, 9, 51, 127
6, 41433, Note_on_c, 9, 42, 127
6, 41433, Note_on_c, 9, 36, 127
6, 41523, Note_on_c, 9, 42, 0
6, 41523, Note_on_c, 9, 51, 0
6, 41523, Note_on_c, 9, 51, 127
6, 41523, Note_on_c, 9, 42, 95
6, 41614, Note_on_c, 9, 42, 0
6, 41614, Note_on_c, 9, 37, 0
6, 41614, Note_on_c, 9, 42, 127
6, 41614, Note_on_c, 9, 37, 127
6, 41615, Note_on_c, 9, 51, 0
6, 41615, Note_on_c, 9, 51, 127
6, 41701, Note_on_c, 9, 51, 0
6, 41701, Note_on_c, 9, 42, 0
6, 41701, Note_on_c, 9, 36, 0
6, 41701, Note_on_c, 9, 51, 127
6, 41701, Note_on_c, 9, 42, 95
6, 41701, Note_on_c, 9, 36, 127
6, 41792, Note_on_c, 9, 42, 0
6, 41792, Note_on_c, 9, 51, 0
6, 41792, Note_on_c, 9, 51, 127
6, 41792, Note_on_c, 9, 42, 127
6, 41881, Note_on_c, 9, 42, 0
6, 41881, Note_on_c, 9, 51, 0
6, 41881, Note_on_c, 9, 38, 0
6, 41881, Note_on_c, 9, 38, 95
6, 41881, Note_on_c, 9, 51, 127
6, 41881, Note_on_c, 9, 42, 95
6, 41908, Note_on_c, 9, 38, 0
6, 41908, Note_on_c, 9, 38, 95
6, 41923, Note_on_c, 9, 38, 0
6, 41923, Note_on_c, 9, 38, 95
6, 41958, Note_on_c, 9, 38, 0
6, 41958, Note_on_c, 9, 38, 127
6, 41973, Note_on_c, 9, 42, 0
6, 41973, Note_on_c, 9, 51, 0
6, 41973, Note_on_c, 9, 51, 127
6, 41973, Note_on_c, 9, 42, 127
6, 42046, Note_on_c, 9, 38, 0
6, 42046, Note_on_c, 9, 38, 127
6, 42059, Note_on_c, 9, 36, 0
6, 42059, Note_on_c, 9, 36, 127
6, 42061, Note_on_c, 9, 42, 0
6, 42061, Note_on_c, 9, 51, 0
6, 42061, Note_on_c, 9, 51, 127
6, 42061, Note_on_c, 9, 42, 95
6, 42154, Note_on_c, 9, 42, 0
6, 42154, Note_on_c, 9, 36, 0
6, 42154, Note_on_c, 9, 49, 0
6, 42154, Note_on_c, 9, 36, 127
6, 42154, Note_on_c, 9, 49, 127
6, 42154, Note_on_c, 9, 42, 127
6, 42156, Note_on_c, 9, 51, 0
6, 42156, Note_on_c, 9, 51, 127
6, 42235, Note_on_c, 9, 42, 0
6, 42235, Note_on_c, 9, 42, 95
6, 42237, Note_on_c, 9, 51, 0
6, 42237, Note_on_c, 9, 51, 127
6, 42327, Note_on_c, 9, 51, 0
6, 42327, Note_on_c, 9, 42, 0
6, 42327, Note_on_c, 9, 38, 0
6, 42327, Note_on_c, 9, 38, 127
6, 42327, Note_on_c, 9, 51, 127
6, 42327, Note_on_c, 9, 42, 127
6, 42413, Note_on_c, 9, 42, 0
6, 42413, Note_on_c, 9, 42, 95
6, 42415, Note_on_c, 9, 51, 0
6, 42415, Note_on_c, 9, 51, 127
6, 42510, Note_on_c, 9, 36, 0
6, 42510, Note_on_c, 9, 36, 127
6, 42512, Note_on_c, 9, 51, 0
6, 42512, Note_on_c, 9, 42, 0
6, 42512, Note_on_c, 9, 42, 127
6, 42512, Note_on_c, 9, 51, 127
6, 42593, Note_on_c, 9, 51, 0
6, 42593, Note_on_c, 9, 42, 0
6, 42593, Note_on_c, 9, 51, 127
6, 42593, Note_on_c, 9, 42, 95
6, 42685, Note_on_c, 9, 42, 0
6, 42685, Note_on_c, 9, 51, 0
6, 42685, Note_on_c, 9, 38, 0
6, 42685, Note_on_c, 9, 38, 127
6, 42685, Note_on_c, 9, 51, 127
6, 42685, Note_on_c, 9, 42, 127
6, 42773, Note_on_c, 9, 42, 0
6, 42773, Note_on_c, 9, 51, 0
6, 42773, Note_on_c, 9, 36, 0
6, 42773, Note_on_c, 9, 51, 127
6, 42773, Note_on_c, 9, 42, 95
6, 42773, Note_on_c, 9, 36, 127
6, 42863, Note_on_c, 9, 36, 0
6, 42863, Note_on_c, 9, 42, 0
6, 42863, Note_on_c, 9, 51, 0
6, 42863, Note_on_c, 9, 51, 127
6, 42863, Note_on_c, 9, 42, 127
6, 42863, Note_on_c, 9, 36, 127
6, 42951, Note_on_c, 9, 42, 0
6, 42951, Note_on_c, 9, 51, 0
6, 42951, Note_on_c, 9, 51, 127
6, 42951, Note_on_c, 9, 42, 95
6, 43041, Note_on_c, 9, 42, 0
6, 43041, Note_on_c, 9, 51, 0
6, 43041, Note_on_c, 9, 38, 0
6, 43041, Note_on_c, 9, 38, 127
6, 43041, Note_on_c, 9, 51, 127
6, 43041, Note_on_c, 9, 42, 127
6, 43131, Note_on_c, 9, 42, 0
6, 43131, Note_on_c, 9, 51, 0
6, 43131, Note_on_c, 9, 51, 127
6, 43131, Note_on_c, 9, 42, 95
6, 43219, Note_on_c, 9, 42, 0
6, 43219, Note_on_c, 9, 51, 0
6, 43219, Note_on_c, 9, 36, 0
6, 43219, Note_on_c, 9, 51, 127
6, 43219, Note_on_c, 9, 42, 127
6, 43219, Note_on_c, 9, 36, 127
6, 43307, Note_on_c, 9, 42, 0
6, 43307, Note_on_c, 9, 42, 95
6, 43310, Note_on_c, 9, 51, 0
6, 43310, Note_on_c, 9, 51, 127
6, 43400, Note_on_c, 9, 51, 0
6, 43400, Note_on_c, 9, 42, 0
6, 43400, Note_on_c, 9, 38, 0
6, 43400, Note_on_c, 9, 38, 127
6, 43400, Note_on_c, 9, 51, 127
6, 43400, Note_on_c, 9, 42, 127
6, 43487, Note_on_c, 9, 42, 0
6, 43487, Note_on_c, 9, 42, 95
6, 43489, Note_on_c, 9, 51, 0
6, 43489, Note_on_c, 9, 51, 127
6, 43579, Note_on_c, 9, 51, 0
6, 43579, Note_on_c, 9, 42, 0
6, 43579, Note_on_c, 9, 36, 0
6, 43579, Note_on_c, 9, 51, 127
6, 43579, Note_on_c, 9, 42, 127
6, 43579, Note_on_c, 9, 36, 127
6, 43664, Note_on_c, 9, 42, 0
6, 43664, Note_on_c, 9, 42, 95
6, 43665, Note_on_c, 9, 51, 0
6, 43665, Note_on_c, 9, 51, 127
6, 43756, Note_on_c, 9, 51, 0
6, 43756, Note_on_c, 9, 42, 0
6, 43756, Note_on_c, 9, 38, 0
6, 43756, Note_on_c, 9, 38, 127
6, 43756, Note_on_c, 9, 51, 127
6, 43756, Note_on_c, 9, 42, 127
6, 43844, Note_on_c, 9, 42, 0
6, 43844, Note_on_c, 9, 51, 0
6, 43844, Note_on_c, 9, 51, 127
6, 43844, Note_on_c, 9, 42, 95
6, 43939, Note_on_c, 9, 42, 0
6, 43939, Note_on_c, 9, 51, 0
6, 43939, Note_on_c, 9, 36, 0
6, 43939, Note_on_c, 9, 51, 127
6, 43939, Note_on_c, 9, 42, 127
6, 43939, Note_on_c, 9, 36, 127
6, 44021, Note_on_c, 9, 42, 0
6, 44021, Note_on_c, 9, 42, 95
6, 44023, Note_on_c, 9, 51, 0
6, 44023, Note_on_c, 9, 51, 127
6, 44114, Note_on_c, 9, 51, 0
6, 44114, Note_on_c, 9, 42, 0
6, 44114, Note_on_c, 9, 38, 0
6, 44114, Note_on_c, 9, 38, 127
6, 44114, Note_on_c, 9, 51, 127
6, 44114, Note_on_c, 9, 42, 127
6, 44202, Note_on_c, 9, 42, 0
6, 44202, Note_on_c, 9, 51, 0
6, 44202, Note_on_c, 9, 36, 0
6, 44202, Note_on_c, 9, 51, 127
6, 44202, Note_on_c, 9, 42, 95
6, 44202, Note_on_c, 9, 36, 127
6, 44294, Note_on_c, 9, 36, 0
6, 44294, Note_on_c, 9, 36, 127
6, 44295, Note_on_c, 9, 42, 0
6, 44295, Note_on_c, 9, 51, 0
6, 44295, Note_on_c, 9, 42, 127
6, 44295, Note_on_c, 9, 51, 127
6, 44379, Note_on_c, 9, 42, 0
6, 44379, Note_on_c, 9, 42, 95
6, 44381, Note_on_c, 9, 51, 0
6, 44381, Note_on_c, 9, 51, 127
6, 44469, Note_on_c, 9, 51, 0
6, 44469, Note_on_c, 9, 42, 0
6, 44469, Note_on_c, 9, 51, 127
6, 44469, Note_on_c, 9, 42, 127
6, 44471, Note_on_c, 9, 38, 0
6, 44471, Note_on_c, 9, 38, 127
6, 44559, Note_on_c, 9, 42, 0
6, 44559, Note_on_c, 9, 51, 0
6, 44559, Note_on_c, 9, 51, 127
6, 44559, Note_on_c, 9, 42, 95
6, 44651, Note_on_c, 9, 42, 0
6, 44651, Note_on_c, 9, 51, 0
6, 44651, Note_on_c, 9, 36, 0
6, 44651, Note_on_c, 9, 51, 127
6, 44651, Note_on_c, 9, 42, 127
6, 44651, Note_on_c, 9, 36, 127
6, 44735, Note_on_c, 9, 42, 0
6, 44735, Note_on_c, 9, 42, 95
6, 44737, Note_on_c, 9, 51, 0
6, 44737, Note_on_c, 9, 38, 0
6, 44737, Note_on_c, 9, 38, 95
6, 44737, Note_on_c, 9, 51, 127
6, 44767, Note_on_c, 9, 38, 0
6, 44767, Note_on_c, 9, 38, 95
6, 44781, Note_on_c, 9, 38, 0
6, 44781, Note_on_c, 9, 38, 95
6, 44811, Note_on_c, 9, 38, 0
6, 44811, Note_on_c, 9, 38, 127
6, 44827, Note_on_c, 9, 51, 0
6, 44827, Note_on_c, 9, 42, 0
6, 44827, Note_on_c, 9, 51, 127
6, 44827, Note_on_c, 9, 42, 127
6, 44901, Note_on_c, 9, 38, 0
6, 44901, Note_on_c, 9, 38, 127
6, 44915, Note_on_c, 9, 42, 0
6, 44915, Note_on_c, 9, 51, 0
6, 44915, Note_on_c, 9, 51, 127
6, 44915, Note_on_c, 9, 42, 95
6, 45009, Note_on_c, 9, 42, 0
6, 45009, Note_on_c, 9, 51, 0
6, 45009, Note_on_c, 9, 36, 0
6, 45009, Note_on_c, 9, 51, 127
6, 45009, Note_on_c, 9, 42, 127
6, 45009, Note_on_c, 9, 36, 127
6, 45095, Note_on_c, 9, 42, 0
6, 45095, Note_on_c, 9, 51, 0
6, 45095, Note_on_c, 9, 51, 127
6, 45095, Note_on_c, 9, 42, 95
6, 45183, Note_on_c, 9, 42, 0
6, 45183, Note_on_c, 9, 42, 127
6, 45185, Note_on_c, 9, 51, 0
6, 45185, Note_on_c, 9, 38, 0
6, 45185, Note_on_c, 9, 38, 127
6, 45185, Note_on_c, 9, 51, 127
6, 45273, Note_on_c, 9, 51, 0
6, 45273, Note_on_c, 9, 42, 0
6, 45273, Note_on_c, 9, 51, 127
6, 45273, Note_on_c, 9, 42, 95
6, 45365, Note_on_c, 9, 42, 0
6, 45365, Note_on_c, 9, 51, 0
6, 45365, Note_on_c, 9, 36, 0
6, 45365, Note_on_c, 9, 51, 127
6, 45365, Note_on_c, 9, 42, 127
6, 45365, Note_on_c, 9, 36, 127
6, 45448, Note_on_c, 9, 42, 0
6, 45448, Note_on_c, 9, 42, 95
6, 45449, Note_on_c, 9, 51, 0
6, 45449, Note_on_c, 9, 51, 127
6, 45543, Note_on_c, 9, 51, 0
6, 45543, Note_on_c, 9, 42, 0
6, 45543, Note_on_c, 9, 51, 127
6, 45543, Note_on_c, 9, 42, 127
6, 45546, Note_on_c, 9, 38, 0
6, 45546, Note_on_c, 9, 38, 127
6, 45632, Note_on_c, 9, 36, 0
6, 45632, Note_on_c, 9, 42, 0
6, 45632, Note_on_c, 9, 51, 0
6, 45632, Note_on_c, 9, 51, 127
6, 45632, Note_on_c, 9, 42, 95
6, 45632, Note_on_c, 9, 36, 127
6, 45723, Note_on_c, 9, 36, 0
6, 45723, Note_on_c, 9, 42, 0
6, 45723, Note_on_c, 9, 42, 127
6, 45723, Note_on_c, 9, 36, 127
6, 45726, Note_on_c, 9, 51, 0
6, 45726, Note_on_c, 9, 51, 127
6, 45807, Note_on_c, 9, 51, 0
6, 45807, Note_on_c, 9, 42, 0
6, 45807, Note_on_c, 9, 51, 127
6, 45807, Note_on_c, 9, 42, 95
6, 45897, Note_on_c, 9, 42, 0
6, 45897, Note_on_c, 9, 51, 0
6, 45897, Note_on_c, 9, 38, 0
6, 45897, Note_on_c, 9, 38, 127
6, 45897, Note_on_c, 9, 51, 127
6, 45897, Note_on_c, 9, 42, 127
6, 45987, Note_on_c, 9, 42, 0
6, 45987, Note_on_c, 9, 51, 0
6, 45987, Note_on_c, 9, 51, 127
6, 45987, Note_on_c, 9, 42, 95
6, 46077, Note_on_c, 9, 42, 0
6, 46077, Note_on_c, 9, 51, 0
6, 46077, Note_on_c, 9, 36, 0
6, 46077, Note_on_c, 9, 51, 127
6, 46077, Note_on_c, 9, 42, 127
6, 46077, Note_on_c, 9, 36, 127
6, 46163, Note_on_c, 9, 42, 0
6, 46163, Note_on_c, 9, 42, 95
6, 46165, Note_on_c, 9, 51, 0
6, 46165, Note_on_c, 9, 51, 127
6, 46255, Note_on_c, 9, 51, 0
6, 46255, Note_on_c, 9, 42, 0
6, 46255, Note_on_c, 9, 51, 127
6, 46255, Note_on_c, 9, 42, 127
6, 46257, Note_on_c, 9, 38, 0
6, 46257, Note_on_c, 9, 38, 127
6, 46345, Note_on_c, 9, 42, 0
6, 46345, Note_on_c, 9, 51, 0
6, 46345, Note_on_c, 9, 51, 127
6, 46345, Note_on_c, 9, 42, 95
6, 46435, Note_on_c, 9, 36, 0
6, 46435, Note_on_c, 9, 49, 0
6, 46435, Note_on_c, 9, 49, 127
6, 46435, Note_on_c, 9, 36, 127
6, 46437, Note_on_c, 9, 42, 0
6, 46437, Note_on_c, 9, 42, 127
6, 46439, Note_on_c, 9, 51, 0
6, 46439, Note_on_c, 9, 38, 0
6, 46439, Note_on_c, 9, 38, 95
6, 46439, Note_on_c, 9, 51, 127
6, 46523, Note_on_c, 9, 51, 0
6, 46523, Note_on_c, 9, 38, 0
6, 46523, Note_on_c, 9, 42, 0
6, 46523, Note_on_c, 9, 38, 95
6, 46523, Note_on_c, 9, 51, 127
6, 46523, Note_on_c, 9, 42, 95
6, 46613, Note_on_c, 9, 42, 0
6, 46613, Note_on_c, 9, 51, 0
6, 46613, Note_on_c, 9, 38, 0
6, 46613, Note_on_c, 9, 36, 0
6, 46613, Note_on_c, 9, 38, 95
6, 46613, Note_on_c, 9, 51, 127
6, 46613, Note_on_c, 9, 42, 127
6, 46613, Note_on_c, 9, 36, 127
6, 46701, Note_on_c, 9, 36, 0
6, 46701, Note_on_c, 9, 42, 0
6, 46701, Note_on_c, 9, 42, 95
6, 46701, Note_on_c, 9, 36, 127
6, 46704, Note_on_c, 9, 51, 0
6, 46704, Note_on_c, 9, 38, 0
6, 46704, Note_on_c, 9, 38, 95
6, 46704, Note_on_c, 9, 51, 127
6, 46792, Note_on_c, 9, 51, 0
6, 46792, Note_on_c, 9, 42, 0
6, 46792, Note_on_c, 9, 38, 0
6, 46792, Note_on_c, 9, 36, 0
6, 46792, Note_on_c, 9, 45, 0
6, 46792, Note_on_c, 9, 45, 127
6, 46792, Note_on_c, 9, 38, 127
6, 46792, Note_on_c, 9, 51, 127
6, 46792, Note_on_c, 9, 42, 127
6, 46792, Note_on_c, 9, 36, 127
6, 46878, Note_on_c, 9, 36, 0
6, 46878, Note_on_c, 9, 36, 127
6, 46880, Note_on_c, 9, 42, 0
6, 46880, Note_on_c, 9, 51, 0
6, 46880, Note_on_c, 9, 38, 0
6, 46880, Note_on_c, 9, 45, 0
6, 46880, Note_on_c, 9, 45, 127
6, 46880, Note_on_c, 9, 38, 127
6, 46880, Note_on_c, 9, 51, 127
6, 46880, Note_on_c, 9, 42, 95
6, 46969, Note_on_c, 9, 42, 0
6, 46969, Note_on_c, 9, 36, 0
6, 46969, Note_on_c, 9, 42, 127
6, 46969, Note_on_c, 9, 36, 127
6, 46971, Note_on_c, 9, 41, 0
6, 46971, Note_on_c, 9, 51, 0
6, 46971, Note_on_c, 9, 38, 0
6, 46971, Note_on_c, 9, 41, 127
6, 46971, Note_on_c, 9, 38, 127
6, 46971, Note_on_c, 9, 51, 127
6, 47059, Note_on_c, 9, 51, 0
6, 47059, Note_on_c, 9, 36, 0
6, 47059, Note_on_c, 9, 38, 0
6, 47059, Note_on_c, 9, 41, 0
6, 47059, Note_on_c, 9, 42, 0
6, 47059, Note_on_c, 9, 41, 127
6, 47059, Note_on_c, 9, 38, 127
6, 47059, Note_on_c, 9, 51, 127
6, 47059, Note_on_c, 9, 42, 95
6, 47059, Note_on_c, 9, 36, 127
6, 47153, Note_on_c, 9, 36, 0
6, 47153, Note_on_c, 9, 42, 0
6, 47153, Note_on_c, 9, 42, 127
6, 47153, Note_on_c, 9, 36, 127
6, 47235, Note_on_c, 9, 42, 0
6, 47235, Note_on_c, 9, 42, 95
6, 47327, Note_on_c, 9, 42, 0
6, 47327, Note_on_c, 9, 38, 0
6, 47327, Note_on_c, 9, 38, 127
6, 47327, Note_on_c, 9, 42, 127
6, 47417, Note_on_c, 9, 42, 0
6, 47417, Note_on_c, 9, 42, 95
6, 47507, Note_on_c, 9, 42, 0
6, 47507, Note_on_c, 9, 36, 0
6, 47507, Note_on_c, 9, 42, 127
6, 47507, Note_on_c, 9, 36, 127
6, 47595, Note_on_c, 9, 42, 0
6, 47595, Note_on_c, 9, 42, 95
6, 47685, Note_on_c, 9, 42, 0
6, 47685, Note_on_c, 9, 38, 0
6, 47685, Note_on_c, 9, 38, 127
6, 47685, Note_on_c, 9, 42, 127
6, 47773, Note_on_c, 9, 42, 0
6, 47773, Note_on_c, 9, 36, 0
6, 47773, Note_on_c, 9, 42, 95
6, 47773, Note_on_c, 9, 36, 127
6, 47867, Note_on_c, 9, 36, 0
6, 47867, Note_on_c, 9, 42, 0
6, 47867, Note_on_c, 9, 42, 127
6, 47867, Note_on_c, 9, 36, 127
6, 47952, Note_on_c, 9, 42, 0
6, 47952, Note_on_c, 9, 42, 95
6, 48043, Note_on_c, 9, 42, 0
6, 48043, Note_on_c, 9, 38, 0
6, 48043, Note_on_c, 9, 38, 127
6, 48043, Note_on_c, 9, 42, 127
6, 48131, Note_on_c, 9, 42, 0
6, 48131, Note_on_c, 9, 42, 95
6, 48222, Note_on_c, 9, 42, 0
6, 48222, Note_on_c, 9, 36, 0
6, 48222, Note_on_c, 9, 36, 127
6, 48222, Note_on_c, 9, 42, 127
6, 48310, Note_on_c, 9, 42, 0
6, 48310, Note_on_c, 9, 42, 95
6, 48399, Note_on_c, 9, 42, 0
6, 48399, Note_on_c, 9, 42, 127
6, 48401, Note_on_c, 9, 38, 0
6, 48401, Note_on_c, 9, 38, 127
6, 48489, Note_on_c, 9, 42, 0
6, 48489, Note_on_c, 9, 42, 95
6, 48579, Note_on_c, 9, 42, 0
6, 48579, Note_on_c, 9, 36, 0
6, 48579, Note_on_c, 9, 42, 127
6, 48579, Note_on_c, 9, 36, 127
6, 48663, Note_on_c, 9, 42, 0
6, 48663, Note_on_c, 9, 42, 95
6, 48755, Note_on_c, 9, 42, 0
6, 48755, Note_on_c, 9, 42, 127
6, 48757, Note_on_c, 9, 38, 0
6, 48757, Note_on_c, 9, 38, 127
6, 48845, Note_on_c, 9, 42, 0
6, 48845, Note_on_c, 9, 42, 95
6, 48933, Note_on_c, 9, 42, 0
6, 48933, Note_on_c, 9, 36, 0
6, 48933, Note_on_c, 9, 42, 127
6, 48933, Note_on_c, 9, 36, 127
6, 49025, Note_on_c, 9, 42, 0
6, 49025, Note_on_c, 9, 42, 95
6, 49113, Note_on_c, 9, 42, 0
6, 49113, Note_on_c, 9, 38, 0
6, 49113, Note_on_c, 9, 38, 127
6, 49113, Note_on_c, 9, 42, 127
6, 49201, Note_on_c, 9, 36, 0
6, 49201, Note_on_c, 9, 36, 127
6, 49203, Note_on_c, 9, 42, 0
6, 49203, Note_on_c, 9, 42, 95
6, 49296, Note_on_c, 9, 42, 0
6, 49296, Note_on_c, 9, 36, 0
6, 49296, Note_on_c, 9, 36, 127
6, 49296, Note_on_c, 9, 42, 127
6, 49379, Note_on_c, 9, 42, 0
6, 49379, Note_on_c, 9, 42, 95
6, 49472, Note_on_c, 9, 42, 0
6, 49472, Note_on_c, 9, 38, 0
6, 49472, Note_on_c, 9, 42, 127
6, 49472, Note_on_c, 9, 38, 127
6, 49559, Note_on_c, 9, 42, 0
6, 49559, Note_on_c, 9, 42, 95
6, 49649, Note_on_c, 9, 42, 0
6, 49649, Note_on_c, 9, 36, 0
6, 49649, Note_on_c, 9, 42, 127
6, 49649, Note_on_c, 9, 36, 127
6, 49739, Note_on_c, 9, 42, 0
6, 49739, Note_on_c, 9, 42, 95
6, 49829, Note_on_c, 9, 42, 0
6, 49829, Note_on_c, 9, 38, 0
6, 49829, Note_on_c, 9, 38, 127
6, 49829, Note_on_c, 9, 42, 127
6, 49921, Note_on_c, 9, 42, 0
6, 49921, Note_on_c, 9, 42, 95
6, 50011, Note_on_c, 9, 42, 0
6, 50011, Note_on_c, 9, 36, 0
6, 50011, Note_on_c, 9, 42, 127
6, 50011, Note_on_c, 9, 36, 127
6, 50095, Note_on_c, 9, 42, 0
6, 50095, Note_on_c, 9, 42, 95
6, 50185, Note_on_c, 9, 42, 0
6, 50185, Note_on_c, 9, 38, 0
6, 50185, Note_on_c, 9, 38, 127
6, 50185, Note_on_c, 9, 42, 127
6, 50273, Note_on_c, 9, 42, 0
6, 50273, Note_on_c, 9, 42, 95
6, 50363, Note_on_c, 9, 42, 0
6, 50363, Note_on_c, 9, 36, 0
6, 50363, Note_on_c, 9, 42, 127
6, 50363, Note_on_c, 9, 36, 127
6, 50451, Note_on_c, 9, 42, 0
6, 50451, Note_on_c, 9, 42, 95
6, 50541, Note_on_c, 9, 42, 0
6, 50541, Note_on_c, 9, 42, 127
6, 50543, Note_on_c, 9, 38, 0
6, 50543, Note_on_c, 9, 38, 127
6, 50631, Note_on_c, 9, 42, 0
6, 50631, Note_on_c, 9, 36, 0
6, 50631, Note_on_c, 9, 42, 95
6, 50631, Note_on_c, 9, 36, 127
6, 50725, Note_on_c, 9, 36, 0
6, 50725, Note_on_c, 9, 42, 0
6, 50725, Note_on_c, 9, 42, 127
6, 50725, Note_on_c, 9, 36, 127
6, 50808, Note_on_c, 9, 42, 0
6, 50808, Note_on_c, 9, 42, 95
6, 50899, Note_on_c, 9, 42, 0
6, 50899, Note_on_c, 9, 38, 0
6, 50899, Note_on_c, 9, 38, 127
6, 50899, Note_on_c, 9, 42, 127
6, 50990, Note_on_c, 9, 42, 0
6, 50990, Note_on_c, 9, 42, 95
6, 51080, Note_on_c, 9, 42, 0
6, 51080, Note_on_c, 9, 36, 0
6, 51080, Note_on_c, 9, 42, 127
6, 51080, Note_on_c, 9, 36, 127
6, 51167, Note_on_c, 9, 42, 0
6, 51167, Note_on_c, 9, 42, 95
6, 51258, Note_on_c, 9, 42, 0
6, 51258, Note_on_c, 9, 38, 0
6, 51258, Note_on_c, 9, 38, 127
6, 51258, Note_on_c, 9, 42, 127
6, 51345, Note_on_c, 9, 42, 0
6, 51345, Note_on_c, 9, 42, 95
6, 51435, Note_on_c, 9, 42, 0
6, 51435, Note_on_c, 9, 36, 0
6, 51435, Note_on_c, 9, 42, 127
6, 51435, Note_on_c, 9, 36, 127
6, 51523, Note_on_c, 9, 42, 0
6, 51523, Note_on_c, 9, 42, 95
6, 51615, Note_on_c, 9, 42, 0
6, 51615, Note_on_c, 9, 38, 0
6, 51615, Note_on_c, 9, 38, 127
6, 51615, Note_on_c, 9, 42, 127
6, 51703, Note_on_c, 9, 42, 0
6, 51703, Note_on_c, 9, 42, 95
6, 51793, Note_on_c, 9, 42, 0
6, 51793, Note_on_c, 9, 36, 0
6, 51793, Note_on_c, 9, 42, 127
6, 51793, Note_on_c, 9, 36, 127
6, 51881, Note_on_c, 9, 42, 0
6, 51881, Note_on_c, 9, 42, 95
6, 51969, Note_on_c, 9, 42, 0
6, 51969, Note_on_c, 9, 38, 0
6, 51969, Note_on_c, 9, 38, 127
6, 51969, Note_on_c, 9, 42, 127
6, 52059, Note_on_c, 9, 36, 0
6, 52059, Note_on_c, 9, 36, 127
6, 52061, Note_on_c, 9, 42, 0
6, 52061, Note_on_c, 9, 42, 95
6, 52151, Note_on_c, 9, 42, 0
6, 52151, Note_on_c, 9, 36, 0
6, 52151, Note_on_c, 9, 42, 127
6, 52151, Note_on_c, 9, 36, 127
6, 52236, Note_on_c, 9, 42, 0
6, 52236, Note_on_c, 9, 42, 95
6, 52327, Note_on_c, 9, 42, 0
6, 52327, Note_on_c, 9, 38, 0
6, 52327, Note_on_c, 9, 38, 127
6, 52327, Note_on_c, 9, 42, 127
6, 52417, Note_on_c, 9, 42, 0
6, 52417, Note_on_c, 9, 42, 95
6, 52508, Note_on_c, 9, 42, 0
6, 52508, Note_on_c, 9, 36, 0
6, 52508, Note_on_c, 9, 36, 127
6, 52508, Note_on_c, 9, 42, 127
6, 52595, Note_on_c, 9, 42, 0
6, 52595, Note_on_c, 9, 38, 0
6, 52595, Note_on_c, 9, 38, 95
6, 52595, Note_on_c, 9, 42, 95
6, 52611, Note_on_c, 9, 38, 0
6, 52611, Note_on_c, 9, 38, 95
6, 52625, Note_on_c, 9, 38, 0
6, 52625, Note_on_c, 9, 38, 95
6, 52640, Note_on_c, 9, 38, 0
6, 52640, Note_on_c, 9, 38, 95
6, 52669, Note_on_c, 9, 38, 0
6, 52669, Note_on_c, 9, 38, 127
6, 52685, Note_on_c, 9, 38, 0
6, 52685, Note_on_c, 9, 42, 0
6, 52685, Note_on_c, 9, 38, 127
6, 52685, Note_on_c, 9, 42, 127
6, 52775, Note_on_c, 9, 42, 0
6, 52775, Note_on_c, 9, 38, 0
6, 52775, Note_on_c, 9, 38, 127
6, 52775, Note_on_c, 9, 42, 95
6, 52868, Note_on_c, 9, 42, 0
6, 52868, Note_on_c, 9, 36, 0
6, 52868, Note_on_c, 9, 49, 0
6, 52868, Note_on_c, 9, 36, 127
6, 52868, Note_on_c, 9, 49, 127
6, 52868, Note_on_c, 9, 42, 127
6, 52870, Note_on_c, 9, 51, 0
6, 52870, Note_on_c, 9, 51, 127
6, 52951, Note_on_c, 9, 51, 0
6, 52951, Note_on_c, 9, 42, 0
6, 52951, Note_on_c, 9, 51, 127
6, 52951, Note_on_c, 9, 42, 95
6, 53043, Note_on_c, 9, 42, 0
6, 53043, Note_on_c, 9, 51, 0
6, 53043, Note_on_c, 9, 51, 127
6, 53043, Note_on_c, 9, 42, 127
6, 53045, Note_on_c, 9, 38, 0
6, 53045, Note_on_c, 9, 38, 127
6, 53131, Note_on_c, 9, 42, 0
6, 53131, Note_on_c, 9, 51, 0
6, 53131, Note_on_c, 9, 51, 127
6, 53131, Note_on_c, 9, 42, 95
6, 53221, Note_on_c, 9, 42, 0
6, 53221, Note_on_c, 9, 51, 0
6, 53221, Note_on_c, 9, 36, 0
6, 53221, Note_on_c, 9, 51, 127
6, 53221, Note_on_c, 9, 42, 127
6, 53221, Note_on_c, 9, 36, 127
6, 53307, Note_on_c, 9, 42, 0
6, 53307, Note_on_c, 9, 42, 95
6, 53309, Note_on_c, 9, 51, 0
6, 53309, Note_on_c, 9, 51, 127
6, 53401, Note_on_c, 9, 51, 0
6, 53401, Note_on_c, 9, 42, 0
6, 53401, Note_on_c, 9, 38, 0
6, 53401, Note_on_c, 9, 38, 127
6, 53401, Note_on_c, 9, 51, 127
6, 53401, Note_on_c, 9, 42, 127
6, 53485, Note_on_c, 9, 36, 0
6, 53485, Note_on_c, 9, 36, 127
6, 53487, Note_on_c, 9, 42, 0
6, 53487, Note_on_c, 9, 51, 0
6, 53487, Note_on_c, 9, 51, 127
6, 53487, Note_on_c, 9, 42, 95
6, 53582, Note_on_c, 9, 42, 0
6, 53582, Note_on_c, 9, 51, 0
6, 53582, Note_on_c, 9, 36, 0
6, 53582, Note_on_c, 9, 51, 127
6, 53582, Note_on_c, 9, 42, 127
6, 53582, Note_on_c, 9, 36, 127
6, 53666, Note_on_c, 9, 42, 0
6, 53666, Note_on_c, 9, 42, 95
6, 53668, Note_on_c, 9, 51, 0
6, 53668, Note_on_c, 9, 51, 127
6, 53755, Note_on_c, 9, 51, 0
6, 53755, Note_on_c, 9, 42, 0
6, 53755, Note_on_c, 9, 51, 127
6, 53755, Note_on_c, 9, 42, 127
6, 53757, Note_on_c, 9, 38, 0
6, 53757, Note_on_c, 9, 38, 127
6, 53845, Note_on_c, 9, 42, 0
6, 53845, Note_on_c, 9, 51, 0
6, 53845, Note_on_c, 9, 51, 127
6, 53845, Note_on_c, 9, 42, 95
6, 53933, Note_on_c, 9, 42, 0
6, 53933, Note_on_c, 9, 36, 0
6, 53933, Note_on_c, 9, 42, 127
6, 53933, Note_on_c, 9, 36, 127
6, 53935, Note_on_c, 9, 51, 0
6, 53935, Note_on_c, 9, 51, 127
6, 54021, Note_on_c, 9, 42, 0
6, 54021, Note_on_c, 9, 42, 95
6, 54023, Note_on_c, 9, 51, 0
6, 54023, Note_on_c, 9, 38, 0
6, 54023, Note_on_c, 9, 38, 95
6, 54023, Note_on_c, 9, 51, 127
6, 54055, Note_on_c, 9, 38, 0
6, 54055, Note_on_c, 9, 38, 95
6, 54070, Note_on_c, 9, 38, 0
6, 54070, Note_on_c, 9, 38, 95
6, 54099, Note_on_c, 9, 38, 0
6, 54099, Note_on_c, 9, 38, 127
6, 54113, Note_on_c, 9, 42, 0
6, 54113, Note_on_c, 9, 42, 127
6, 54115, Note_on_c, 9, 51, 0
6, 54115, Note_on_c, 9, 51, 127
6, 54189, Note_on_c, 9, 38, 0
6, 54189, Note_on_c, 9, 38, 127
6, 54203, Note_on_c, 9, 51, 0
6, 54203, Note_on_c, 9, 42, 0
6, 54203, Note_on_c, 9, 51, 127
6, 54203, Note_on_c, 9, 42, 95
6, 54296, Note_on_c, 9, 49, 0
6, 54296, Note_on_c, 9, 36, 0
6, 54296, Note_on_c, 9, 36, 127
6, 54296, Note_on_c, 9, 49, 127
6, 54298, Note_on_c, 9, 51, 0
6, 54298, Note_on_c, 9, 42, 0
6, 54298, Note_on_c, 9, 42, 127
6, 54298, Note_on_c, 9, 51, 127
6, 54379, Note_on_c, 9, 42, 0
6, 54379, Note_on_c, 9, 42, 95
6, 54381, Note_on_c, 9, 51, 0
6, 54381, Note_on_c, 9, 51, 127
6, 54471, Note_on_c, 9, 51, 0
6, 54471, Note_on_c, 9, 42, 0
6, 54471, Note_on_c, 9, 38, 0
6, 54471, Note_on_c, 9, 38, 127
6, 54471, Note_on_c, 9, 51, 127
6, 54471, Note_on_c, 9, 42, 127
6, 54559, Note_on_c, 9, 42, 0
6, 54559, Note_on_c, 9, 51, 0
6, 54559, Note_on_c, 9, 51, 127
6, 54559, Note_on_c, 9, 42, 95
6, 54649, Note_on_c, 9, 42, 0
6, 54649, Note_on_c, 9, 51, 0
6, 54649, Note_on_c, 9, 36, 0
6, 54649, Note_on_c, 9, 51, 127
6, 54649, Note_on_c, 9, 42, 127
6, 54649, Note_on_c, 9, 36, 127
6, 54735, Note_on_c, 9, 42, 0
6, 54735, Note_on_c, 9, 42, 95
6, 54737, Note_on_c, 9, 51, 0
6, 54737, Note_on_c, 9, 51, 127
6, 54829, Note_on_c, 9, 51, 0
6, 54829, Note_on_c, 9, 42, 0
6, 54829, Note_on_c, 9, 38, 0
6, 54829, Note_on_c, 9, 38, 127
6, 54829, Note_on_c, 9, 51, 127
6, 54829, Note_on_c, 9, 42, 127
6, 54915, Note_on_c, 9, 36, 0
6, 54915, Note_on_c, 9, 36, 127
6, 54917, Note_on_c, 9, 42, 0
6, 54917, Note_on_c, 9, 51, 0
6, 54917, Note_on_c, 9, 51, 127
6, 54917, Note_on_c, 9, 42, 95
6, 55009, Note_on_c, 9, 51, 0
6, 55009, Note_on_c, 9, 36, 0
6, 55009, Note_on_c, 9, 46, 0
6, 55009, Note_on_c, 9, 46, 127
6, 55009, Note_on_c, 9, 51, 127
6, 55009, Note_on_c, 9, 36, 127
6, 55096, Note_on_c, 9, 51, 0
6, 55096, Note_on_c, 9, 51, 127
6, 55183, Note_on_c, 9, 36, 0
6, 55183, Note_on_c, 9, 36, 127
6, 55185, Note_on_c, 9, 51, 0
6, 55185, Note_on_c, 9, 42, 0
6, 55185, Note_on_c, 9, 38, 0
6, 55185, Note_on_c, 9, 38, 127
6, 55185, Note_on_c, 9, 51, 127
6, 55185, Note_on_c, 9, 42, 127
6, 55229, Note_on_c, 9, 38, 0
6, 55229, Note_on_c, 9, 38, 127
6, 55274, Note_on_c, 9, 42, 0
6, 55274, Note_on_c, 9, 51, 0
6, 55274, Note_on_c, 9, 51, 127
6, 55274, Note_on_c, 9, 42, 95
6, 55275, Note_on_c, 9, 38, 0
6, 55275, Note_on_c, 9, 38, 127
6, 55317, Note_on_c, 9, 38, 0
6, 55317, Note_on_c, 9, 38, 127
6, 55363, Note_on_c, 9, 38, 0
6, 55363, Note_on_c, 9, 42, 0
6, 55363, Note_on_c, 9, 51, 0
6, 55363, Note_on_c, 9, 36, 0
6, 55363, Note_on_c, 9, 38, 127
6, 55363, Note_on_c, 9, 51, 127
6, 55363, Note_on_c, 9, 42, 127
6, 55363, Note_on_c, 9, 36, 127
6, 55405, Note_on_c, 9, 38, 0
6, 55405, Note_on_c, 9, 38, 127
6, 55453, Note_on_c, 9, 42, 0
6, 55453, Note_on_c, 9, 51, 0
6, 55453, Note_on_c, 9, 51, 127
6, 55453, Note_on_c, 9, 42, 95
6, 55455, Note_on_c, 9, 38, 0
6, 55455, Note_on_c, 9, 38, 127
6, 55499, Note_on_c, 9, 38, 0
6, 55499, Note_on_c, 9, 38, 127
6, 55541, Note_on_c, 9, 36, 0
6, 55541, Note_on_c, 9, 36, 127
6, 55543, Note_on_c, 9, 51, 0
6, 55543, Note_on_c, 9, 38, 0
6, 55543, Note_on_c, 9, 42, 0
6, 55543, Note_on_c, 9, 38, 127
6, 55543, Note_on_c, 9, 51, 127
6, 55543, Note_on_c, 9, 42, 127
6, 55585, Note_on_c, 9, 38, 0
6, 55585, Note_on_c, 9, 38, 127
6, 55631, Note_on_c, 9, 42, 0
6, 55631, Note_on_c, 9, 51, 0
6, 55631, Note_on_c, 9, 51, 127
6, 55631, Note_on_c, 9, 42, 95
6, 55633, Note_on_c, 9, 38, 0
6, 55633, Note_on_c, 9, 38, 127
6, 55675, Note_on_c, 9, 38, 0
6, 55675, Note_on_c, 9, 38, 127
6, 55723, Note_on_c, 9, 42, 0
6, 55723, Note_on_c, 9, 51, 0
6, 55723, Note_on_c, 9, 36, 0
6, 55723, Note_on_c, 9, 49, 0
6, 55723, Note_on_c, 9, 51, 127
6, 55723, Note_on_c, 9, 42, 127
6, 55723, Note_on_c, 9, 49, 127
6, 55723, Note_on_c, 9, 36, 127
6, 55807, Note_on_c, 9, 42, 0
6, 55807, Note_on_c, 9, 51, 0
6, 55807, Note_on_c, 9, 51, 127
6, 55807, Note_on_c, 9, 42, 95
6, 55897, Note_on_c, 9, 42, 0
6, 55897, Note_on_c, 9, 51, 0
6, 55897, Note_on_c, 9, 38, 0
6, 55897, Note_on_c, 9, 38, 127
6, 55897, Note_on_c, 9, 51, 127
6, 55897, Note_on_c, 9, 42, 127
6, 55987, Note_on_c, 9, 42, 0
6, 55987, Note_on_c, 9, 42, 95
6, 55989, Note_on_c, 9, 51, 0
6, 55989, Note_on_c, 9, 51, 127
6, 56077, Note_on_c, 9, 51, 0
6, 56077, Note_on_c, 9, 42, 0
6, 56077, Note_on_c, 9, 36, 0
6, 56077, Note_on_c, 9, 51, 127
6, 56077, Note_on_c, 9, 42, 127
6, 56077, Note_on_c, 9, 36, 127
6, 56165, Note_on_c, 9, 42, 0
6, 56165, Note_on_c, 9, 42, 95
6, 56167, Note_on_c, 9, 51, 0
6, 56167, Note_on_c, 9, 51, 127
6, 56257, Note_on_c, 9, 51, 0
6, 56257, Note_on_c, 9, 42, 0
6, 56257, Note_on_c, 9, 51, 127
6, 56257, Note_on_c, 9, 42, 127
6, 56259, Note_on_c, 9, 38, 0
6, 56259, Note_on_c, 9, 38, 127
6, 56343, Note_on_c, 9, 36, 0
6, 56343, Note_on_c, 9, 36, 127
6, 56345, Note_on_c, 9, 51, 0
6, 56345, Note_on_c, 9, 42, 0
6, 56345, Note_on_c, 9, 51, 127
6, 56345, Note_on_c, 9, 42, 95
6, 56439, Note_on_c, 9, 42, 0
6, 56439, Note_on_c, 9, 51, 0
6, 56439, Note_on_c, 9, 36, 0
6, 56439, Note_on_c, 9, 36, 127
6, 56439, Note_on_c, 9, 42, 127
6, 56439, Note_on_c, 9, 51, 127
6, 56523, Note_on_c, 9, 51, 0
6, 56523, Note_on_c, 9, 42, 0
6, 56523, Note_on_c, 9, 51, 127
6, 56523, Note_on_c, 9, 42, 95
6, 56613, Note_on_c, 9, 42, 0
6, 56613, Note_on_c, 9, 51, 0
6, 56613, Note_on_c, 9, 51, 127
6, 56613, Note_on_c, 9, 42, 127
6, 56616, Note_on_c, 9, 38, 0
6, 56616, Note_on_c, 9, 38, 127
6, 56703, Note_on_c, 9, 42, 0
6, 56703, Note_on_c, 9, 51, 0
6, 56703, Note_on_c, 9, 51, 127
6, 56703, Note_on_c, 9, 42, 95
6, 56791, Note_on_c, 9, 42, 0
6, 56791, Note_on_c, 9, 51, 0
6, 56791, Note_on_c, 9, 36, 0
6, 56791, Note_on_c, 9, 51, 127
6, 56791, Note_on_c, 9, 42, 127
6, 56791, Note_on_c, 9, 36, 127
6, 56879, Note_on_c, 9, 42, 0
6, 56879, Note_on_c, 9, 42, 95
6, 56881, Note_on_c, 9, 51, 0
6, 56881, Note_on_c, 9, 51, 127
6, 56971, Note_on_c, 9, 51, 0
6, 56971, Note_on_c, 9, 42, 0
6, 56971, Note_on_c, 9, 38, 0
6, 56971, Note_on_c, 9, 38, 127
6, 56971, Note_on_c, 9, 51, 127
6, 56971, Note_on_c, 9, 42, 127
6, 57059, Note_on_c, 9, 42, 0
6, 57059, Note_on_c, 9, 51, 0
6, 57059, Note_on_c, 9, 51, 127
6, 57059, Note_on_c, 9, 42, 95
6, 57154, Note_on_c, 9, 42, 0
6, 57154, Note_on_c, 9, 49, 0
6, 57154, Note_on_c, 9, 51, 0
6, 57154, Note_on_c, 9, 36, 0
6, 57154, Note_on_c, 9, 36, 127
6, 57154, Note_on_c, 9, 49, 127
6, 57154, Note_on_c, 9, 42, 127
6, 57154, Note_on_c, 9, 51, 127
6, 57235, Note_on_c, 9, 51, 0
6, 57235, Note_on_c, 9, 42, 0
6, 57235, Note_on_c, 9, 51, 127
6, 57235, Note_on_c, 9, 42, 95
6, 57327, Note_on_c, 9, 42, 0
6, 57327, Note_on_c, 9, 51, 0
6, 57327, Note_on_c, 9, 38, 0
6, 57327, Note_on_c, 9, 38, 127
6, 57327, Note_on_c, 9, 51, 127
6, 57327, Note_on_c, 9, 42, 127
6, 57417, Note_on_c, 9, 42, 0
6, 57417, Note_on_c, 9, 51, 0
6, 57417, Note_on_c, 9, 51, 127
6, 57417, Note_on_c, 9, 42, 95
6, 57510, Note_on_c, 9, 42, 0
6, 57510, Note_on_c, 9, 51, 0
6, 57510, Note_on_c, 9, 36, 0
6, 57510, Note_on_c, 9, 36, 127
6, 57510, Note_on_c, 9, 42, 127
6, 57510, Note_on_c, 9, 51, 127
6, 57593, Note_on_c, 9, 42, 0
6, 57593, Note_on_c, 9, 42, 95
6, 57595, Note_on_c, 9, 51, 0
6, 57595, Note_on_c, 9, 51, 127
6, 57685, Note_on_c, 9, 51, 0
6, 57685, Note_on_c, 9, 42, 0
6, 57685, Note_on_c, 9, 38, 0
6, 57685, Note_on_c, 9, 38, 127
6, 57685, Note_on_c, 9, 51, 127
6, 57685, Note_on_c, 9, 42, 127
6, 57771, Note_on_c, 9, 36, 0
6, 57771, Note_on_c, 9, 36, 127
6, 57773, Note_on_c, 9, 42, 0
6, 57773, Note_on_c, 9, 51, 0
6, 57773, Note_on_c, 9, 51, 127
6, 57773, Note_on_c, 9, 42, 95
6, 57867, Note_on_c, 9, 42, 0
6, 57867, Note_on_c, 9, 51, 0
6, 57867, Note_on_c, 9, 36, 0
6, 57867, Note_on_c, 9, 51, 127
6, 57867, Note_on_c, 9, 42, 127
6, 57867, Note_on_c, 9, 36, 127
6, 57951, Note_on_c, 9, 42, 0
6, 57951, Note_on_c, 9, 42, 95
6, 57953, Note_on_c, 9, 51, 0
6, 57953, Note_on_c, 9, 51, 127
6, 58041, Note_on_c, 9, 42, 0
6, 58041, Note_on_c, 9, 42, 127
6, 58043, Note_on_c, 9, 51, 0
6, 58043, Note_on_c, 9, 38, 0
6, 58043, Note_on_c, 9, 38, 127
6, 58043, Note_on_c, 9, 51, 127
6, 58131, Note_on_c, 9, 42, 0
6, 58131, Note_on_c, 9, 42, 95
6, 58134, Note_on_c, 9, 51, 0
6, 58134, Note_on_c, 9, 51, 127
6, 58219, Note_on_c, 9, 36, 0
6, 58219, Note_on_c, 9, 36, 127
6, 58221, Note_on_c, 9, 51, 0
6, 58221, Note_on_c, 9, 42, 0
6, 58221, Note_on_c, 9, 51, 127
6, 58221, Note_on_c, 9, 42, 127
6, 58307, Note_on_c, 9, 42, 0
6, 58307, Note_on_c, 9, 42, 95
6, 58309, Note_on_c, 9, 51, 0
6, 58309, Note_on_c, 9, 51, 127
6, 58401, Note_on_c, 9, 51, 0
6, 58401, Note_on_c, 9, 42, 0
6, 58401, Note_on_c, 9, 38, 0
6, 58401, Note_on_c, 9, 38, 127
6, 58401, Note_on_c, 9, 51, 127
6, 58401, Note_on_c, 9, 42, 127
6, 58489, Note_on_c, 9, 42, 0
6, 58489, Note_on_c, 9, 51, 0
6, 58489, Note_on_c, 9, 51, 127
6, 58489, Note_on_c, 9, 42, 95
6, 58581, Note_on_c, 9, 36, 0
6, 58581, Note_on_c, 9, 36, 127
6, 58583, Note_on_c, 9, 42, 0
6, 58583, Note_on_c, 9, 51, 0
6, 58583, Note_on_c, 9, 49, 0
6, 58583, Note_on_c, 9, 49, 127
6, 58583, Note_on_c, 9, 42, 127
6, 58583, Note_on_c, 9, 51, 127
6, 58665, Note_on_c, 9, 42, 0
6, 58665, Note_on_c, 9, 42, 95
6, 58667, Note_on_c, 9, 51, 0
6, 58667, Note_on_c, 9, 51, 127
6, 58757, Note_on_c, 9, 51, 0
6, 58757, Note_on_c, 9, 42, 0
6, 58757, Note_on_c, 9, 51, 127
6, 58757, Note_on_c, 9, 42, 127
6, 58759, Note_on_c, 9, 38, 0
6, 58759, Note_on_c, 9, 38, 127
6, 58843, Note_on_c, 9, 42, 0
6, 58843, Note_on_c, 9, 42, 95
6, 58845, Note_on_c, 9, 51, 0
6, 58845, Note_on_c, 9, 51, 127
6, 58940, Note_on_c, 9, 51, 0
6, 58940, Note_on_c, 9, 42, 0
6, 58940, Note_on_c, 9, 36, 0
6, 58940, Note_on_c, 9, 51, 127
6, 58940, Note_on_c, 9, 42, 127
6, 58940, Note_on_c, 9, 36, 127
6, 59023, Note_on_c, 9, 42, 0
6, 59023, Note_on_c, 9, 51, 0
6, 59023, Note_on_c, 9, 51, 127
6, 59023, Note_on_c, 9, 42, 95
6, 59115, Note_on_c, 9, 42, 0
6, 59115, Note_on_c, 9, 51, 0
6, 59115, Note_on_c, 9, 38, 0
6, 59115, Note_on_c, 9, 38, 127
6, 59115, Note_on_c, 9, 51, 127
6, 59115, Note_on_c, 9, 42, 127
6, 59201, Note_on_c, 9, 36, 0
6, 59201, Note_on_c, 9, 36, 127
6, 59203, Note_on_c, 9, 42, 0
6, 59203, Note_on_c, 9, 51, 0
6, 59203, Note_on_c, 9, 51, 127
6, 59203, Note_on_c, 9, 42, 95
6, 59291, Note_on_c, 9, 42, 0
6, 59291, Note_on_c, 9, 51, 0
6, 59291, Note_on_c, 9, 36, 0
6, 59291, Note_on_c, 9, 38, 0
6, 59291, Note_on_c, 9, 38, 95
6, 59291, Note_on_c, 9, 51, 127
6, 59291, Note_on_c, 9, 42, 127
6, 59291, Note_on_c, 9, 36, 127
6, 59378, Note_on_c, 9, 36, 0
6, 59378, Note_on_c, 9, 36, 127
6, 59379, Note_on_c, 9, 42, 0
6, 59379, Note_on_c, 9, 51, 0
6, 59379, Note_on_c, 9, 38, 0
6, 59379, Note_on_c, 9, 38, 95
6, 59379, Note_on_c, 9, 51, 127
6, 59379, Note_on_c, 9, 42, 95
6, 59471, Note_on_c, 9, 36, 0
6, 59471, Note_on_c, 9, 36, 127
6, 59472, Note_on_c, 9, 42, 0
6, 59472, Note_on_c, 9, 42, 127
6, 59473, Note_on_c, 9, 51, 0
6, 59473, Note_on_c, 9, 38, 0
6, 59473, Note_on_c, 9, 38, 127
6, 59473, Note_on_c, 9, 51, 127
6, 59561, Note_on_c, 9, 51, 0
6, 59561, Note_on_c, 9, 42, 0
6, 59561, Note_on_c, 9, 36, 0
6, 59561, Note_on_c, 9, 51, 127
6, 59561, Note_on_c, 9, 42, 95
6, 59561, Note_on_c, 9, 36, 127
6, 59563, Note_on_c, 9, 38, 0
6, 59563, Note_on_c, 9, 38, 127
6, 59650, Note_on_c, 9, 36, 0
6, 59650, Note_on_c, 9, 42, 0
6, 59650, Note_on_c, 9, 51, 0
6, 59650, Note_on_c, 9, 51, 127
6, 59650, Note_on_c, 9, 42, 127
6, 59650, Note_on_c, 9, 36, 127
6, 59652, Note_on_c, 9, 38, 0
6, 59652, Note_on_c, 9, 38, 95
6, 59693, Note_on_c, 9, 38, 0
6, 59693, Note_on_c, 9, 38, 95
6, 59737, Note_on_c, 9, 36, 0
6, 59737, Note_on_c, 9, 42, 0
6, 59737, Note_on_c, 9, 42, 95
6, 59737, Note_on_c, 9, 36, 127
6, 59739, Note_on_c, 9, 38, 0
6, 59739, Note_on_c, 9, 51, 0
6, 59739, Note_on_c, 9, 38, 95
6, 59739, Note_on_c, 9, 51, 127
6, 59828, Note_on_c, 9, 36, 0
6, 59828, Note_on_c, 9, 42, 0
6, 59828, Note_on_c, 9, 42, 127
6, 59828, Note_on_c, 9, 36, 127
6, 59829, Note_on_c, 9, 38, 0
6, 59829, Note_on_c, 9, 51, 0
6, 59829, Note_on_c, 9, 38, 95
6, 59829, Note_on_c, 9, 51, 127
6, 59869, Note_on_c, 9, 38, 0
6, 59869, Note_on_c, 9, 38, 95
6, 59919, Note_on_c, 9, 38, 0
6, 59919, Note_on_c, 9, 42, 0
6, 59919, Note_on_c, 9, 36, 0
6, 59919, Note_on_c, 9, 51, 0
6, 59919, Note_on_c, 9, 38, 127
6, 59919, Note_on_c, 9, 51, 127
6, 59919, Note_on_c, 9, 42, 95
6, 59919, Note_on_c, 9, 36, 127
6, 59963, Note_on_c, 9, 38, 0
6, 59963, Note_on_c, 9, 38, 127
6, 60012, Note_on_c, 9, 38, 0
6, 60012, Note_on_c, 9, 36, 0
6, 60012, Note_on_c, 9, 42, 0
6, 60012, Note_on_c, 9, 51, 0
6, 60012, Note_on_c, 9, 36, 127
6, 60012, Note_on_c, 9, 42, 127
6, 60012, Note_on_c, 9, 51, 127
6, 60012, Note_on_c, 9, 38, 95
6, 60051, Note_on_c, 9, 38, 0
6, 60051, Note_on_c, 9, 38, 95
6, 60093, Note_on_c, 9, 36, 0
6, 60093, Note_on_c, 9, 36, 127
6, 60095, Note_on_c, 9, 38, 0
6, 60095, Note_on_c, 9, 51, 0
6, 60095, Note_on_c, 9, 42, 0
6, 60095, Note_on_c, 9, 38, 95
6, 60095, Note_on_c, 9, 51, 127
6, 60095, Note_on_c, 9, 42, 95
6, 60139, Note_on_c, 9, 38, 0
6, 60139, Note_on_c, 9, 38, 95
6, 60187, Note_on_c, 9, 38, 0
6, 60187, Note_on_c, 9, 42, 0
6, 60187, Note_on_c, 9, 51, 0
6, 60187, Note_on_c, 9, 36, 0
6, 60187, Note_on_c, 9, 38, 95
6, 60187, Note_on_c, 9, 51, 127
6, 60187, Note_on_c, 9, 42, 127
6, 60187, Note_on_c, 9, 36, 127
6, 60229, Note_on_c, 9, 38, 0
6, 60229, Note_on_c, 9, 38, 95
6, 60273, Note_on_c, 9, 36, 0
6, 60273, Note_on_c, 9, 42, 0
6, 60273, Note_on_c, 9, 42, 95
6, 60273, Note_on_c, 9, 36, 127
6, 60275, Note_on_c, 9, 38, 0
6, 60275, Note_on_c, 9, 51, 0
6, 60275, Note_on_c, 9, 38, 95
6, 60275, Note_on_c, 9, 51, 127
6, 60319, Note_on_c, 9, 38, 0
6, 60319, Note_on_c, 9, 38, 95
6, 60363, Note_on_c, 9, 38, 0
6, 60363, Note_on_c, 9, 36, 0
6, 60363, Note_on_c, 9, 42, 0
6, 60363, Note_on_c, 9, 51, 0
6, 60363, Note_on_c, 9, 45, 0
6, 60363, Note_on_c, 9, 45, 127
6, 60363, Note_on_c, 9, 38, 127
6, 60363, Note_on_c, 9, 51, 127
6, 60363, Note_on_c, 9, 42, 127
6, 60363, Note_on_c, 9, 36, 127
6, 60409, Note_on_c, 9, 38, 0
6, 60409, Note_on_c, 9, 38, 127
6, 60451, Note_on_c, 9, 36, 0
6, 60451, Note_on_c, 9, 36, 127
6, 60453, Note_on_c, 9, 38, 0
6, 60453, Note_on_c, 9, 42, 0
6, 60453, Note_on_c, 9, 51, 0
6, 60453, Note_on_c, 9, 38, 127
6, 60453, Note_on_c, 9, 51, 127
6, 60453, Note_on_c, 9, 42, 95
6, 60456, Note_on_c, 9, 45, 0
6, 60456, Note_on_c, 9, 45, 127
6, 60499, Note_on_c, 9, 45, 0
6, 60499, Note_on_c, 9, 38, 0
6, 60499, Note_on_c, 9, 45, 127
6, 60499, Note_on_c, 9, 38, 127
6, 60543, Note_on_c, 9, 36, 0
6, 60543, Note_on_c, 9, 42, 0
6, 60543, Note_on_c, 9, 42, 127
6, 60543, Note_on_c, 9, 36, 127
6, 60546, Note_on_c, 9, 38, 0
6, 60546, Note_on_c, 9, 51, 0
6, 60546, Note_on_c, 9, 51, 127
6, 60546, Note_on_c, 9, 38, 127
6, 60585, Note_on_c, 9, 38, 0
6, 60585, Note_on_c, 9, 38, 127
6, 60587, Note_on_c, 9, 45, 0
6, 60587, Note_on_c, 9, 45, 127
6, 60631, Note_on_c, 9, 36, 0
6, 60631, Note_on_c, 9, 51, 0
6, 60631, Note_on_c, 9, 42, 0
6, 60631, Note_on_c, 9, 51, 127
6, 60631, Note_on_c, 9, 42, 95
6, 60631, Note_on_c, 9, 36, 127
6, 60633, Note_on_c, 9, 38, 0
6, 60633, Note_on_c, 9, 38, 127
6, 60675, Note_on_c, 9, 38, 0
6, 60675, Note_on_c, 9, 38, 127
6, 60677, Note_on_c, 9, 45, 0
6, 60677, Note_on_c, 9, 45, 127
6, 60721, Note_on_c, 9, 41, 0
6, 60721, Note_on_c, 9, 38, 0
6, 60721, Note_on_c, 9, 36, 0
6, 60721, Note_on_c, 9, 49, 0
6, 60721, Note_on_c, 9, 41, 127
6, 60721, Note_on_c, 9, 38, 127
6, 60721, Note_on_c, 9, 49, 127
6, 60721, Note_on_c, 9, 36, 127
6, 61433, Note_on_c, 9, 42, 0
6, 61433, Note_on_c, 9, 42, 127
6, 61611, Note_on_c, 9, 42, 0
6, 61611, Note_on_c, 9, 42, 127
6, 61789, Note_on_c, 9, 42, 0
6, 61789, Note_on_c, 9, 42, 127
6, 61971, Note_on_c, 9, 38, 0
6, 61971, Note_on_c, 9, 38, 127
6, 62151, Note_on_c, 9, 49, 0
6, 62151, Note_on_c, 9, 42, 0
6, 62151, Note_on_c, 9, 36, 0
6, 62151, Note_on_c, 9, 51, 0
6, 62151, Note_on_c, 9, 51, 127
6, 62151, Note_on_c, 9, 42, 127
6, 62151, Note_on_c, 9, 49, 127
6, 62151, Note_on_c, 9, 36, 127
6, 62237, Note_on_c, 9, 42, 0
6, 62237, Note_on_c, 9, 42, 95
6, 62239, Note_on_c, 9, 51, 0
6, 62239, Note_on_c, 9, 51, 127
6, 62329, Note_on_c, 9, 51, 0
6, 62329, Note_on_c, 9, 42, 0
6, 62329, Note_on_c, 9, 38, 0
6, 62329, Note_on_c, 9, 38, 127
6, 62329, Note_on_c, 9, 51, 127
6, 62329, Note_on_c, 9, 42, 127
6, 62419, Note_on_c, 9, 42, 0
6, 62419, Note_on_c, 9, 51, 0
6, 62419, Note_on_c, 9, 51, 127
6, 62419, Note_on_c, 9, 42, 95
6, 62509, Note_on_c, 9, 36, 0
6, 62509, Note_on_c, 9, 36, 127
6, 62511, Note_on_c, 9, 42, 0
6, 62511, Note_on_c, 9, 51, 0
6, 62511, Note_on_c, 9, 42, 127
6, 62511, Note_on_c, 9, 51, 127
6, 62595, Note_on_c, 9, 51, 0
6, 62595, Note_on_c, 9, 42, 0
6, 62595, Note_on_c, 9, 51, 127
6, 62595, Note_on_c, 9, 42, 95
6, 62685, Note_on_c, 9, 42, 0
6, 62685, Note_on_c, 9, 51, 0
6, 62685, Note_on_c, 9, 38, 0
6, 62685, Note_on_c, 9, 38, 127
6, 62685, Note_on_c, 9, 51, 127
6, 62685, Note_on_c, 9, 42, 127
6, 62776, Note_on_c, 9, 42, 0
6, 62776, Note_on_c, 9, 36, 0
6, 62776, Note_on_c, 9, 36, 127
6, 62776, Note_on_c, 9, 42, 95
6, 62778, Note_on_c, 9, 51, 0
6, 62778, Note_on_c, 9, 51, 127
6, 62867, Note_on_c, 9, 51, 0
6, 62867, Note_on_c, 9, 42, 0
6, 62867, Note_on_c, 9, 36, 0
6, 62867, Note_on_c, 9, 51, 127
6, 62867, Note_on_c, 9, 42, 127
6, 62867, Note_on_c, 9, 36, 127
6, 62953, Note_on_c, 9, 42, 0
6, 62953, Note_on_c, 9, 51, 0
6, 62953, Note_on_c, 9, 51, 127
6, 62953, Note_on_c, 9, 42, 95
6, 63043, Note_on_c, 9, 42, 0
6, 63043, Note_on_c, 9, 51, 0
6, 63043, Note_on_c, 9, 51, 127
6, 63043, Note_on_c, 9, 42, 127
6, 63045, Note_on_c, 9, 38, 0
6, 63045, Note_on_c, 9, 38, 127
6, 63131, Note_on_c, 9, 42, 0
6, 63131, Note_on_c, 9, 42, 95
6, 63134, Note_on_c, 9, 51, 0
6, 63134, Note_on_c, 9, 51, 127
6, 63222, Note_on_c, 9, 51, 0
6, 63222, Note_on_c, 9, 42, 0
6, 63222, Note_on_c, 9, 36, 0
6, 63222, Note_on_c, 9, 51, 127
6, 63222, Note_on_c, 9, 42, 127
6, 63222, Note_on_c, 9, 36, 127
6, 63309, Note_on_c, 9, 42, 0
6, 63309, Note_on_c, 9, 51, 0
6, 63309, Note_on_c, 9, 51, 127
6, 63309, Note_on_c, 9, 42, 95
6, 63397, Note_on_c, 9, 42, 0
6, 63397, Note_on_c, 9, 42, 127
6, 63399, Note_on_c, 9, 51, 0
6, 63399, Note_on_c, 9, 38, 0
6, 63399, Note_on_c, 9, 38, 127
6, 63399, Note_on_c, 9, 51, 127
6, 63490, Note_on_c, 9, 51, 0
6, 63490, Note_on_c, 9, 42, 0
6, 63490, Note_on_c, 9, 51, 127
6, 63490, Note_on_c, 9, 42, 95
6, 63584, Note_on_c, 9, 42, 0
6, 63584, Note_on_c, 9, 36, 0
6, 63584, Note_on_c, 9, 51, 0
6, 63584, Note_on_c, 9, 49, 0
6, 63584, Note_on_c, 9, 36, 127
6, 63584, Note_on_c, 9, 49, 127
6, 63584, Note_on_c, 9, 42, 127
6, 63584, Note_on_c, 9, 51, 127
6, 63667, Note_on_c, 9, 51, 0
6, 63667, Note_on_c, 9, 42, 0
6, 63667, Note_on_c, 9, 51, 127
6, 63667, Note_on_c, 9, 42, 95
6, 63757, Note_on_c, 9, 42, 0
6, 63757, Note_on_c, 9, 51, 0
6, 63757, Note_on_c, 9, 51, 127
6, 63757, Note_on_c, 9, 42, 127
6, 63760, Note_on_c, 9, 38, 0
6, 63760, Note_on_c, 9, 38, 127
6, 63845, Note_on_c, 9, 42, 0
6, 63845, Note_on_c, 9, 51, 0
6, 63845, Note_on_c, 9, 51, 127
6, 63845, Note_on_c, 9, 42, 95
6, 63937, Note_on_c, 9, 42, 0
6, 63937, Note_on_c, 9, 51, 0
6, 63937, Note_on_c, 9, 36, 0
6, 63937, Note_on_c, 9, 51, 127
6, 63937, Note_on_c, 9, 42, 127
6, 63937, Note_on_c, 9, 36, 127
6, 64023, Note_on_c, 9, 36, 0
6, 64023, Note_on_c, 9, 36, 127
6, 64025, Note_on_c, 9, 42, 0
6, 64025, Note_on_c, 9, 51, 0
6, 64025, Note_on_c, 9, 51, 127
6, 64025, Note_on_c, 9, 42, 95
6, 64113, Note_on_c, 9, 36, 0
6, 64113, Note_on_c, 9, 36, 127
6, 64115, Note_on_c, 9, 42, 0
6, 64115, Note_on_c, 9, 51, 0
6, 64115, Note_on_c, 9, 38, 0
6, 64115, Note_on_c, 9, 38, 127
6, 64115, Note_on_c, 9, 51, 127
6, 64115, Note_on_c, 9, 42, 127
6, 64203, Note_on_c, 9, 42, 0
6, 64203, Note_on_c, 9, 51, 0
6, 64203, Note_on_c, 9, 36, 0
6, 64203, Note_on_c, 9, 51, 127
6, 64203, Note_on_c, 9, 42, 95
6, 64203, Note_on_c, 9, 36, 127
6, 64295, Note_on_c, 9, 36, 0
6, 64295, Note_on_c, 9, 49, 0
6, 64295, Note_on_c, 9, 38, 0
6, 64295, Note_on_c, 9, 38, 127
6, 64295, Note_on_c, 9, 49, 127
6, 64295, Note_on_c, 9, 36, 127
6, 64427, Note_on_c, 9, 38, 0
6, 64427, Note_on_c, 9, 38, 95
6, 64471, Note_on_c, 9, 38, 0
6, 64471, Note_on_c, 9, 38, 95
6, 64515, Note_on_c, 9, 38, 0
6, 64515, Note_on_c, 9, 38, 95
6, 64559, Note_on_c, 9, 38, 0
6, 64559, Note_on_c, 9, 38, 95
6, 64603, Note_on_c, 9, 38, 0
6, 64603, Note_on_c, 9, 38, 95
6, 64647, Note_on_c, 9, 42, 0
6, 64647, Note_on_c, 9, 42, 127
6, 64649, Note_on_c, 9, 38, 0
6, 64649, Note_on_c, 9, 38, 127
6, 64709, Note_on_c, 9, 38, 0
6, 64709, Note_on_c, 9, 38, 95
6, 64737, Note_on_c, 9, 38, 0
6, 64737, Note_on_c, 9, 38, 95
6, 64767, Note_on_c, 9, 38, 0
6, 64767, Note_on_c, 9, 38, 95
6, 64797, Note_on_c, 9, 38, 0
6, 64797, Note_on_c, 9, 38, 95
6, 64823, Note_on_c, 9, 42, 0
6, 64823, Note_on_c, 9, 42, 127
6, 64827, Note_on_c, 9, 38, 0
6, 64827, Note_on_c, 9, 38, 127
6, 64859, Note_on_c, 9, 38, 0
6, 64859, Note_on_c, 9, 38, 95
6, 64889, Note_on_c, 9, 38, 0
6, 64889, Note_on_c, 9, 38, 95
6, 64920, Note_on_c, 9, 38, 0
6, 64920, Note_on_c, 9, 38, 95
6, 64949, Note_on_c, 9, 38, 0
6, 64949, Note_on_c, 9, 38, 95
6, 64975, Note_on_c, 9, 38, 0
6, 64975, Note_on_c, 9, 38, 95
6, 65008, Note_on_c, 9, 42, 0
6, 65008, Note_on_c, 9, 42, 127
6, 65009, Note_on_c, 9, 38, 0
6, 65009, Note_on_c, 9, 38, 127
6, 65035, Note_on_c, 9, 38, 0
6, 65035, Note_on_c, 9, 38, 95
6, 65066, Note_on_c, 9, 38, 0
6, 65066, Note_on_c, 9, 38, 95
6, 65095, Note_on_c, 9, 38, 0
6, 65095, Note_on_c, 9, 38, 95
6, 65125, Note_on_c, 9, 38, 0
6, 65125, Note_on_c, 9, 38, 95
6, 65155, Note_on_c, 9, 38, 0
6, 65155, Note_on_c, 9, 38, 95
6, 65185, Note_on_c, 9, 38, 0
6, 65185, Note_on_c, 9, 42, 0
6, 65185, Note_on_c, 9, 38, 127
6, 65185, Note_on_c, 9, 42, 127
6, 65213, Note_on_c, 9, 38, 0
6, 65213, Note_on_c, 9, 38, 95
6, 65243, Note_on_c, 9, 38, 0
6, 65243, Note_on_c, 9, 38, 95
6, 65273, Note_on_c, 9, 38, 0
6, 65273, Note_on_c, 9, 38, 95
6, 65303, Note_on_c, 9, 38, 0
6, 65303, Note_on_c, 9, 38, 95
6, 65335, Note_on_c, 9, 38, 0
6, 65335, Note_on_c, 9, 38, 95
6, 65365, Note_on_c, 9, 38, 0
6, 65365, Note_on_c, 9, 42, 0
6, 65365, Note_on_c, 9, 38, 127
6, 65365, Note_on_c, 9, 42, 127
6, 65395, Note_on_c, 9, 38, 0
6, 65395, Note_on_c, 9, 38, 95
6, 65425, Note_on_c, 9, 38, 0
6, 65425, Note_on_c, 9, 38, 95
6, 65455, Note_on_c, 9, 38, 0
6, 65455, Note_on_c, 9, 38, 127
6, 65485, Note_on_c, 9, 38, 0
6, 65485, Note_on_c, 9, 38, 95
6, 65513, Note_on_c, 9, 38, 0
6, 65513, Note_on_c, 9, 38, 95
6, 65541, Note_on_c, 9, 42, 0
6, 65541, Note_on_c, 9, 42, 127
6, 65543, Note_on_c, 9, 38, 0
6, 65543, Note_on_c, 9, 38, 127
6, 65573, Note_on_c, 9, 38, 0
6, 65573, Note_on_c, 9, 38, 95
6, 65601, Note_on_c, 9, 38, 0
6, 65601, Note_on_c, 9, 38, 95
6, 65631, Note_on_c, 9, 38, 0
6, 65631, Note_on_c, 9, 38, 127
6, 65661, Note_on_c, 9, 38, 0
6, 65661, Note_on_c, 9, 38, 95
6, 65691, Note_on_c, 9, 38, 0
6, 65691, Note_on_c, 9, 38, 95
6, 65723, Note_on_c, 9, 38, 0
6, 65723, Note_on_c, 9, 49, 0
6, 65723, Note_on_c, 9, 36, 0
6, 65723, Note_on_c, 9, 46, 0
6, 65723, Note_on_c, 9, 46, 127
6, 65723, Note_on_c, 9, 38, 127
6, 65723, Note_on_c, 9, 49, 127
6, 65723, Note_on_c, 9, 36, 127
6, 65727, Note_on_c, 9, 36, 0
6, 65727, Note_on_c, 9, 45, 0
6, 65727, Note_on_c, 9, 42, 0
6, 65727, Note_on_c, 9, 41, 0
6, 65727, Note_on_c, 9, 51, 0
6, 65727, Note_on_c, 9, 37, 0
6, 65727, Note_on_c, 9, 38, 0
6, 65727, Note_on_c, 9, 46, 0
6, 65727, Note_on_c, 9, 49, 0
6, 65727, End_track
0, 0, End_of_file
