0, 0, Header, 0, 1, 120
1, 0, Start_track
1, 0, Title_t, "Moonage Daydream"
1, 0, Title_t, "By David Bowie from the album Ziggy Stardust"
1, 0, Copyright_t, "Copyright © 1972 David Bowie"
1, 0, Text_t, "Nigel Harrison\012"
1, 0, SMPTE_offset, 96, 0, 3, 0, 0
1, 0, Time_signature, 4, 2, 24, 8
1, 0, Key_signature, 2, "major"
1, 0, Tempo, 416667
1, 0, Program_c, 0, 30
1, 0, Control_c, 0, 7, 100
1, 0, Control_c, 0, 10, 50
1, 0, Note_on_c, 0, 62, 100
1, 0, Note_on_c, 0, 57, 100
1, 0, Note_on_c, 0, 50, 100
1, 0, Program_c, 1, 29
1, 0, Control_c, 1, 7, 105
1, 0, Control_c, 1, 10, 80
1, 0, Program_c, 2, 25
1, 0, Control_c, 2, 7, 80
1, 0, Control_c, 2, 10, 50
1, 0, Note_on_c, 2, 66, 100
1, 0, Note_on_c, 2, 50, 100
1, 0, Note_on_c, 2, 69, 100
1, 0, Note_on_c, 2, 62, 100
1, 0, Note_on_c, 2, 57, 100
1, 0, Program_c, 3, 33
1, 0, Control_c, 3, 7, 110
1, 0, Note_on_c, 3, 38, 100
1, 0, Program_c, 4, 88
1, 0, Control_c, 4, 7, 127
1, 0, Control_c, 4, 10, 60
1, 0, Program_c, 5, 53
1, 0, Control_c, 5, 7, 120
1, 0, Control_c, 5, 10, 30
1, 0, Program_c, 6, 1
1, 0, Control_c, 6, 7, 110
1, 0, Control_c, 6, 10, 80
1, 0, Program_c, 7, 48
1, 0, Control_c, 7, 7, 100
1, 0, Control_c, 7, 10, 90
1, 0, Program_c, 8, 66
1, 0, Control_c, 8, 7, 110
1, 0, Control_c, 8, 10, 30
1, 0, Control_c, 9, 7, 110
1, 0, Note_on_c, 9, 49, 100
1, 0, Note_on_c, 9, 36, 100
1, 0, Program_c, 10, 74
1, 0, Control_c, 10, 7, 110
1, 0, Control_c, 10, 10, 100
1, 0, Program_c, 11, 120
1, 0, Control_c, 11, 7, 110
1, 0, Program_c, 12, 81
1, 0, Control_c, 12, 7, 90
1, 0, Control_c, 12, 10, 70
1, 0, Program_c, 13, 29
1, 0, Control_c, 13, 7, 105
1, 0, Control_c, 13, 10, 1
1, 0, Program_c, 14, 28
1, 0, Control_c, 14, 7, 100
1, 0, Control_c, 14, 10, 127
1, 0, Program_c, 15, 30
1, 0, Control_c, 15, 7, 100
1, 0, Control_c, 15, 10, 80
1, 5, Note_on_c, 1, 62, 100
1, 5, Note_on_c, 1, 57, 100
1, 5, Note_on_c, 1, 50, 100
1, 15, Note_on_c, 9, 36, 0
1, 15, Note_on_c, 9, 49, 0
1, 180, Note_on_c, 2, 62, 0
1, 180, Note_on_c, 2, 66, 0
1, 180, Note_on_c, 3, 38, 0
1, 180, Note_on_c, 2, 57, 0
1, 180, Note_on_c, 2, 69, 0
1, 180, Note_on_c, 2, 50, 0
1, 180, Note_on_c, 2, 66, 100
1, 180, Note_on_c, 2, 50, 100
1, 180, Note_on_c, 2, 62, 100
1, 180, Note_on_c, 2, 69, 100
1, 180, Note_on_c, 2, 57, 100
1, 180, Note_on_c, 3, 38, 100
1, 180, Note_on_c, 9, 47, 100
1, 195, Note_on_c, 9, 47, 0
1, 210, Note_on_c, 9, 47, 100
1, 225, Note_on_c, 9, 47, 0
1, 240, Note_on_c, 2, 57, 0
1, 240, Note_on_c, 2, 69, 0
1, 240, Note_on_c, 2, 50, 0
1, 240, Note_on_c, 2, 66, 0
1, 240, Note_on_c, 0, 50, 0
1, 240, Note_on_c, 2, 62, 0
1, 240, Note_on_c, 0, 57, 0
1, 240, Note_on_c, 3, 38, 0
1, 240, Note_on_c, 0, 62, 0
1, 240, Note_on_c, 0, 62, 100
1, 240, Note_on_c, 0, 57, 100
1, 240, Note_on_c, 0, 50, 100
1, 240, Note_on_c, 2, 66, 100
1, 240, Note_on_c, 2, 62, 100
1, 240, Note_on_c, 2, 69, 100
1, 240, Note_on_c, 2, 50, 100
1, 240, Note_on_c, 2, 57, 100
1, 240, Note_on_c, 3, 38, 100
1, 240, Note_on_c, 9, 47, 100
1, 240, Note_on_c, 9, 36, 100
1, 245, Note_on_c, 1, 50, 0
1, 245, Note_on_c, 1, 62, 0
1, 245, Note_on_c, 1, 57, 0
1, 245, Note_on_c, 1, 62, 100
1, 245, Note_on_c, 1, 57, 100
1, 245, Note_on_c, 1, 50, 100
1, 255, Note_on_c, 9, 47, 0
1, 255, Note_on_c, 9, 36, 0
1, 360, Note_on_c, 2, 66, 0
1, 360, Note_on_c, 2, 69, 0
1, 360, Note_on_c, 2, 50, 0
1, 360, Note_on_c, 0, 57, 0
1, 360, Note_on_c, 0, 62, 0
1, 360, Note_on_c, 2, 62, 0
1, 360, Note_on_c, 0, 50, 0
1, 360, Note_on_c, 2, 57, 0
1, 360, Note_on_c, 3, 38, 0
1, 360, Note_on_c, 4, 69, 100
1, 360, Note_on_c, 12, 69, 100
1, 365, Note_on_c, 1, 62, 0
1, 365, Note_on_c, 1, 50, 0
1, 365, Note_on_c, 1, 57, 0
1, 420, Note_on_c, 4, 69, 0
1, 420, Note_on_c, 12, 69, 0
1, 420, Note_on_c, 4, 69, 100
1, 420, Note_on_c, 12, 69, 100
1, 480, Note_on_c, 12, 69, 0
1, 480, Note_on_c, 4, 69, 0
1, 480, Note_on_c, 4, 69, 100
1, 480, Note_on_c, 12, 69, 100
1, 600, Note_on_c, 12, 69, 0
1, 600, Note_on_c, 4, 69, 0
1, 600, Note_on_c, 4, 73, 100
1, 600, Note_on_c, 12, 73, 100
1, 660, Note_on_c, 12, 73, 0
1, 660, Note_on_c, 4, 73, 0
1, 660, Note_on_c, 4, 74, 100
1, 660, Note_on_c, 12, 74, 100
1, 780, Note_on_c, 12, 74, 0
1, 780, Note_on_c, 4, 74, 0
1, 780, Note_on_c, 4, 78, 100
1, 780, Note_on_c, 12, 78, 100
1, 960, Note_on_c, 12, 78, 0
1, 960, Note_on_c, 4, 78, 0
1, 960, Note_on_c, 0, 66, 100
1, 960, Note_on_c, 0, 61, 100
1, 960, Note_on_c, 0, 54, 100
1, 960, Note_on_c, 2, 66, 100
1, 960, Note_on_c, 2, 61, 100
1, 960, Note_on_c, 2, 58, 100
1, 960, Note_on_c, 2, 54, 100
1, 960, Note_on_c, 2, 49, 100
1, 960, Note_on_c, 2, 42, 100
1, 960, Note_on_c, 3, 42, 100
1, 960, Note_on_c, 9, 49, 100
1, 960, Note_on_c, 9, 36, 100
1, 965, Note_on_c, 1, 66, 100
1, 965, Note_on_c, 1, 61, 100
1, 965, Note_on_c, 1, 54, 100
1, 975, Note_on_c, 9, 36, 0
1, 975, Note_on_c, 9, 49, 0
1, 1140, Note_on_c, 3, 42, 0
1, 1140, Note_on_c, 2, 54, 0
1, 1140, Note_on_c, 2, 66, 0
1, 1140, Note_on_c, 2, 42, 0
1, 1140, Note_on_c, 2, 49, 0
1, 1140, Note_on_c, 2, 58, 0
1, 1140, Note_on_c, 2, 61, 0
1, 1140, Note_on_c, 2, 66, 100
1, 1140, Note_on_c, 2, 61, 100
1, 1140, Note_on_c, 2, 58, 100
1, 1140, Note_on_c, 2, 54, 100
1, 1140, Note_on_c, 2, 49, 100
1, 1140, Note_on_c, 2, 42, 100
1, 1140, Note_on_c, 3, 42, 100
1, 1140, Note_on_c, 9, 47, 100
1, 1155, Note_on_c, 9, 47, 0
1, 1170, Note_on_c, 9, 47, 100
1, 1185, Note_on_c, 9, 47, 0
1, 1200, Note_on_c, 2, 42, 0
1, 1200, Note_on_c, 0, 66, 0
1, 1200, Note_on_c, 2, 54, 0
1, 1200, Note_on_c, 2, 61, 0
1, 1200, Note_on_c, 2, 66, 0
1, 1200, Note_on_c, 0, 54, 0
1, 1200, Note_on_c, 2, 58, 0
1, 1200, Note_on_c, 3, 42, 0
1, 1200, Note_on_c, 2, 49, 0
1, 1200, Note_on_c, 0, 61, 0
1, 1200, Note_on_c, 0, 66, 100
1, 1200, Note_on_c, 0, 61, 100
1, 1200, Note_on_c, 0, 54, 100
1, 1200, Note_on_c, 2, 66, 100
1, 1200, Note_on_c, 2, 61, 100
1, 1200, Note_on_c, 2, 58, 100
1, 1200, Note_on_c, 2, 54, 100
1, 1200, Note_on_c, 2, 49, 100
1, 1200, Note_on_c, 2, 42, 100
1, 1200, Note_on_c, 3, 42, 100
1, 1200, Note_on_c, 9, 47, 100
1, 1200, Note_on_c, 9, 36, 100
1, 1205, Note_on_c, 1, 61, 0
1, 1205, Note_on_c, 1, 54, 0
1, 1205, Note_on_c, 1, 66, 0
1, 1205, Note_on_c, 1, 66, 100
1, 1205, Note_on_c, 1, 61, 100
1, 1205, Note_on_c, 1, 54, 100
1, 1215, Note_on_c, 9, 47, 0
1, 1215, Note_on_c, 9, 36, 0
1, 1260, Note_on_c, 4, 78, 100
1, 1260, Note_on_c, 12, 78, 100
1, 1320, Note_on_c, 2, 42, 0
1, 1320, Note_on_c, 2, 58, 0
1, 1320, Note_on_c, 0, 66, 0
1, 1320, Note_on_c, 2, 61, 0
1, 1320, Note_on_c, 2, 49, 0
1, 1320, Note_on_c, 0, 61, 0
1, 1320, Note_on_c, 2, 54, 0
1, 1320, Note_on_c, 3, 42, 0
1, 1320, Note_on_c, 0, 54, 0
1, 1320, Note_on_c, 2, 66, 0
1, 1325, Note_on_c, 1, 66, 0
1, 1325, Note_on_c, 1, 54, 0
1, 1325, Note_on_c, 1, 61, 0
1, 1380, Note_on_c, 4, 78, 0
1, 1380, Note_on_c, 12, 78, 0
1, 1380, Note_on_c, 4, 78, 100
1, 1380, Note_on_c, 12, 78, 100
1, 1440, Note_on_c, 12, 78, 0
1, 1440, Note_on_c, 4, 78, 0
1, 1440, Note_on_c, 4, 78, 100
1, 1440, Note_on_c, 12, 78, 100
1, 1500, Note_on_c, 12, 78, 0
1, 1500, Note_on_c, 4, 78, 0
1, 1500, Note_on_c, 4, 78, 100
1, 1500, Note_on_c, 12, 78, 100
1, 1560, Note_on_c, 12, 78, 0
1, 1560, Note_on_c, 4, 78, 0
1, 1560, Note_on_c, 4, 76, 100
1, 1560, Note_on_c, 12, 76, 100
1, 1620, Note_on_c, 12, 76, 0
1, 1620, Note_on_c, 4, 76, 0
1, 1620, Note_on_c, 4, 74, 100
1, 1620, Note_on_c, 12, 74, 100
1, 1680, Note_on_c, 12, 74, 0
1, 1680, Note_on_c, 4, 74, 0
1, 1680, Note_on_c, 4, 76, 100
1, 1680, Note_on_c, 12, 76, 100
1, 1740, Note_on_c, 12, 76, 0
1, 1740, Note_on_c, 4, 76, 0
1, 1740, Note_on_c, 4, 78, 100
1, 1740, Note_on_c, 12, 78, 100
1, 1800, Note_on_c, 12, 78, 0
1, 1800, Note_on_c, 4, 78, 0
1, 1800, Note_on_c, 3, 37, 100
1, 1800, Note_on_c, 4, 76, 100
1, 1800, Note_on_c, 12, 76, 100
1, 1860, Note_on_c, 12, 76, 0
1, 1860, Note_on_c, 4, 76, 0
1, 1860, Note_on_c, 4, 78, 100
1, 1860, Note_on_c, 12, 78, 100
1, 1920, Note_on_c, 3, 37, 0
1, 1920, Note_on_c, 2, 66, 100
1, 1920, Note_on_c, 2, 62, 100
1, 1920, Note_on_c, 2, 59, 100
1, 1920, Note_on_c, 2, 54, 100
1, 1920, Note_on_c, 2, 47, 100
1, 1920, Note_on_c, 3, 35, 100
1, 1920, Note_on_c, 9, 36, 100
1, 1935, Note_on_c, 9, 36, 0
1, 1980, Note_on_c, 12, 78, 0
1, 1980, Note_on_c, 4, 78, 0
1, 1980, Note_on_c, 4, 76, 100
1, 1980, Note_on_c, 12, 76, 100
1, 2040, Note_on_c, 12, 76, 0
1, 2040, Note_on_c, 4, 76, 0
1, 2040, Note_on_c, 2, 47, 0
1, 2040, Note_on_c, 2, 66, 0
1, 2040, Note_on_c, 2, 59, 0
1, 2040, Note_on_c, 2, 62, 0
1, 2040, Note_on_c, 2, 54, 0
1, 2040, Note_on_c, 2, 66, 100
1, 2040, Note_on_c, 2, 62, 100
1, 2040, Note_on_c, 2, 59, 100
1, 2040, Note_on_c, 2, 54, 100
1, 2040, Note_on_c, 2, 47, 100
1, 2040, Note_on_c, 4, 74, 100
1, 2040, Note_on_c, 12, 74, 100
1, 2100, Note_on_c, 12, 74, 0
1, 2100, Note_on_c, 3, 35, 0
1, 2100, Note_on_c, 2, 54, 0
1, 2100, Note_on_c, 2, 66, 0
1, 2100, Note_on_c, 2, 62, 0
1, 2100, Note_on_c, 2, 59, 0
1, 2100, Note_on_c, 2, 47, 0
1, 2100, Note_on_c, 4, 74, 0
1, 2100, Note_on_c, 2, 66, 100
1, 2100, Note_on_c, 2, 62, 100
1, 2100, Note_on_c, 2, 59, 100
1, 2100, Note_on_c, 2, 54, 100
1, 2100, Note_on_c, 2, 47, 100
1, 2100, Note_on_c, 3, 30, 100
1, 2100, Note_on_c, 9, 36, 100
1, 2115, Note_on_c, 9, 36, 0
1, 2160, Note_on_c, 2, 47, 0
1, 2160, Note_on_c, 2, 62, 0
1, 2160, Note_on_c, 2, 59, 0
1, 2160, Note_on_c, 2, 66, 0
1, 2160, Note_on_c, 3, 30, 0
1, 2160, Note_on_c, 2, 54, 0
1, 2160, Note_on_c, 2, 66, 100
1, 2160, Note_on_c, 2, 62, 100
1, 2160, Note_on_c, 2, 59, 100
1, 2160, Note_on_c, 2, 54, 100
1, 2160, Note_on_c, 2, 47, 100
1, 2160, Note_on_c, 3, 35, 100
1, 2160, Note_on_c, 9, 38, 100
1, 2175, Note_on_c, 9, 38, 0
1, 2280, Note_on_c, 2, 47, 0
1, 2280, Note_on_c, 2, 62, 0
1, 2280, Note_on_c, 2, 59, 0
1, 2280, Note_on_c, 2, 66, 0
1, 2280, Note_on_c, 3, 35, 0
1, 2280, Note_on_c, 2, 54, 0
1, 2280, Note_on_c, 2, 66, 100
1, 2280, Note_on_c, 2, 62, 100
1, 2280, Note_on_c, 2, 59, 100
1, 2280, Note_on_c, 2, 54, 100
1, 2280, Note_on_c, 2, 47, 100
1, 2280, Note_on_c, 3, 35, 100
1, 2280, Note_on_c, 4, 71, 100
1, 2280, Note_on_c, 12, 71, 100
1, 2340, Note_on_c, 12, 71, 0
1, 2340, Note_on_c, 2, 66, 0
1, 2340, Note_on_c, 2, 47, 0
1, 2340, Note_on_c, 2, 62, 0
1, 2340, Note_on_c, 2, 59, 0
1, 2340, Note_on_c, 2, 54, 0
1, 2340, Note_on_c, 3, 35, 0
1, 2340, Note_on_c, 4, 71, 0
1, 2340, Note_on_c, 2, 66, 100
1, 2340, Note_on_c, 2, 62, 100
1, 2340, Note_on_c, 2, 59, 100
1, 2340, Note_on_c, 2, 54, 100
1, 2340, Note_on_c, 2, 47, 100
1, 2340, Note_on_c, 3, 34, 100
1, 2340, Note_on_c, 4, 69, 100
1, 2340, Note_on_c, 12, 69, 100
1, 2400, Note_on_c, 12, 69, 0
1, 2400, Note_on_c, 2, 66, 0
1, 2400, Note_on_c, 2, 47, 0
1, 2400, Note_on_c, 2, 62, 0
1, 2400, Note_on_c, 2, 59, 0
1, 2400, Note_on_c, 2, 54, 0
1, 2400, Note_on_c, 3, 34, 0
1, 2400, Note_on_c, 4, 69, 0
1, 2400, Note_on_c, 2, 66, 100
1, 2400, Note_on_c, 2, 62, 100
1, 2400, Note_on_c, 2, 54, 100
1, 2400, Note_on_c, 2, 47, 100
1, 2400, Note_on_c, 2, 57, 100
1, 2400, Note_on_c, 3, 33, 100
1, 2400, Note_on_c, 4, 71, 100
1, 2400, Note_on_c, 9, 36, 100
1, 2400, Note_on_c, 12, 71, 100
1, 2415, Note_on_c, 9, 36, 0
1, 2460, Note_on_c, 12, 71, 0
1, 2460, Note_on_c, 4, 71, 0
1, 2460, Note_on_c, 4, 73, 100
1, 2460, Note_on_c, 12, 73, 100
1, 2520, Note_on_c, 2, 62, 0
1, 2520, Note_on_c, 2, 66, 0
1, 2520, Note_on_c, 2, 47, 0
1, 2520, Note_on_c, 2, 54, 0
1, 2520, Note_on_c, 2, 57, 0
1, 2520, Note_on_c, 2, 66, 100
1, 2520, Note_on_c, 2, 54, 100
1, 2520, Note_on_c, 2, 47, 100
1, 2520, Note_on_c, 2, 57, 100
1, 2520, Note_on_c, 2, 62, 100
1, 2580, Note_on_c, 2, 62, 0
1, 2580, Note_on_c, 3, 33, 0
1, 2580, Note_on_c, 2, 54, 0
1, 2580, Note_on_c, 4, 73, 0
1, 2580, Note_on_c, 12, 73, 0
1, 2580, Note_on_c, 2, 66, 0
1, 2580, Note_on_c, 2, 47, 0
1, 2580, Note_on_c, 2, 57, 0
1, 2580, Note_on_c, 2, 54, 100
1, 2580, Note_on_c, 2, 62, 100
1, 2580, Note_on_c, 2, 66, 100
1, 2580, Note_on_c, 2, 57, 100
1, 2580, Note_on_c, 2, 47, 100
1, 2580, Note_on_c, 3, 33, 100
1, 2580, Note_on_c, 4, 74, 100
1, 2580, Note_on_c, 9, 36, 100
1, 2580, Note_on_c, 12, 74, 100
1, 2595, Note_on_c, 9, 36, 0
1, 2640, Note_on_c, 3, 33, 0
1, 2640, Note_on_c, 2, 57, 0
1, 2640, Note_on_c, 2, 54, 0
1, 2640, Note_on_c, 2, 62, 0
1, 2640, Note_on_c, 2, 66, 0
1, 2640, Note_on_c, 2, 47, 0
1, 2640, Note_on_c, 2, 54, 100
1, 2640, Note_on_c, 2, 66, 100
1, 2640, Note_on_c, 2, 62, 100
1, 2640, Note_on_c, 2, 57, 100
1, 2640, Note_on_c, 2, 47, 100
1, 2640, Note_on_c, 3, 33, 100
1, 2640, Note_on_c, 9, 46, 100
1, 2640, Note_on_c, 9, 38, 100
1, 2655, Note_on_c, 9, 38, 0
1, 2655, Note_on_c, 9, 46, 0
1, 2760, Note_on_c, 2, 66, 0
1, 2760, Note_on_c, 4, 74, 0
1, 2760, Note_on_c, 2, 62, 0
1, 2760, Note_on_c, 12, 74, 0
1, 2760, Note_on_c, 3, 33, 0
1, 2760, Note_on_c, 2, 47, 0
1, 2760, Note_on_c, 2, 57, 0
1, 2760, Note_on_c, 2, 54, 0
1, 2760, Note_on_c, 2, 47, 100
1, 2760, Note_on_c, 2, 66, 100
1, 2760, Note_on_c, 2, 62, 100
1, 2760, Note_on_c, 2, 54, 100
1, 2760, Note_on_c, 2, 57, 100
1, 2760, Note_on_c, 3, 38, 100
1, 2760, Note_on_c, 4, 78, 100
1, 2760, Note_on_c, 12, 78, 100
1, 2820, Note_on_c, 3, 38, 0
1, 2820, Note_on_c, 2, 54, 0
1, 2820, Note_on_c, 2, 47, 0
1, 2820, Note_on_c, 2, 66, 0
1, 2820, Note_on_c, 2, 62, 0
1, 2820, Note_on_c, 2, 57, 0
1, 2820, Note_on_c, 2, 62, 100
1, 2820, Note_on_c, 2, 54, 100
1, 2820, Note_on_c, 2, 47, 100
1, 2820, Note_on_c, 2, 66, 100
1, 2820, Note_on_c, 2, 57, 100
1, 2820, Note_on_c, 3, 39, 100
1, 2880, Note_on_c, 3, 39, 0
1, 2880, Note_on_c, 4, 78, 0
1, 2880, Note_on_c, 2, 47, 0
1, 2880, Note_on_c, 12, 78, 0
1, 2880, Note_on_c, 2, 62, 0
1, 2880, Note_on_c, 2, 54, 0
1, 2880, Note_on_c, 2, 66, 0
1, 2880, Note_on_c, 2, 57, 0
1, 2880, Note_on_c, 2, 71, 100
1, 2880, Note_on_c, 2, 68, 100
1, 2880, Note_on_c, 2, 64, 100
1, 2880, Note_on_c, 2, 59, 100
1, 2880, Note_on_c, 2, 52, 100
1, 2880, Note_on_c, 3, 40, 100
1, 2880, Note_on_c, 9, 42, 100
1, 2880, Note_on_c, 9, 36, 100
1, 2895, Note_on_c, 9, 36, 0
1, 2895, Note_on_c, 9, 42, 0
1, 3000, Note_on_c, 2, 68, 0
1, 3000, Note_on_c, 2, 71, 0
1, 3000, Note_on_c, 2, 64, 0
1, 3000, Note_on_c, 2, 59, 0
1, 3000, Note_on_c, 2, 52, 0
1, 3000, Note_on_c, 9, 42, 100
1, 3015, Note_on_c, 9, 42, 0
1, 3060, Note_on_c, 3, 40, 0
1, 3060, Note_on_c, 2, 71, 100
1, 3060, Note_on_c, 2, 68, 100
1, 3060, Note_on_c, 2, 64, 100
1, 3060, Note_on_c, 2, 59, 100
1, 3060, Note_on_c, 2, 52, 100
1, 3060, Note_on_c, 3, 35, 100
1, 3060, Note_on_c, 9, 36, 100
1, 3075, Note_on_c, 9, 36, 0
1, 3120, Note_on_c, 2, 52, 0
1, 3120, Note_on_c, 2, 68, 0
1, 3120, Note_on_c, 2, 64, 0
1, 3120, Note_on_c, 2, 71, 0
1, 3120, Note_on_c, 3, 35, 0
1, 3120, Note_on_c, 2, 59, 0
1, 3120, Note_on_c, 2, 71, 100
1, 3120, Note_on_c, 2, 68, 100
1, 3120, Note_on_c, 2, 64, 100
1, 3120, Note_on_c, 2, 59, 100
1, 3120, Note_on_c, 2, 52, 100
1, 3120, Note_on_c, 3, 40, 100
1, 3120, Note_on_c, 9, 38, 100
1, 3120, Note_on_c, 9, 42, 100
1, 3135, Note_on_c, 9, 42, 0
1, 3135, Note_on_c, 9, 38, 0
1, 3180, Note_on_c, 4, 78, 100
1, 3180, Note_on_c, 12, 78, 100
1, 3240, Note_on_c, 12, 78, 0
1, 3240, Note_on_c, 2, 59, 0
1, 3240, Note_on_c, 3, 40, 0
1, 3240, Note_on_c, 2, 68, 0
1, 3240, Note_on_c, 2, 64, 0
1, 3240, Note_on_c, 2, 71, 0
1, 3240, Note_on_c, 2, 52, 0
1, 3240, Note_on_c, 4, 78, 0
1, 3240, Note_on_c, 2, 71, 100
1, 3240, Note_on_c, 2, 68, 100
1, 3240, Note_on_c, 2, 64, 100
1, 3240, Note_on_c, 2, 59, 100
1, 3240, Note_on_c, 2, 52, 100
1, 3240, Note_on_c, 3, 35, 100
1, 3240, Note_on_c, 4, 78, 100
1, 3240, Note_on_c, 9, 42, 100
1, 3240, Note_on_c, 12, 78, 100
1, 3255, Note_on_c, 9, 42, 0
1, 3300, Note_on_c, 2, 59, 0
1, 3300, Note_on_c, 2, 71, 0
1, 3300, Note_on_c, 2, 52, 0
1, 3300, Note_on_c, 2, 68, 0
1, 3300, Note_on_c, 2, 64, 0
1, 3300, Note_on_c, 4, 78, 0
1, 3300, Note_on_c, 3, 35, 0
1, 3300, Note_on_c, 12, 78, 0
1, 3300, Note_on_c, 2, 71, 100
1, 3300, Note_on_c, 2, 68, 100
1, 3300, Note_on_c, 2, 64, 100
1, 3300, Note_on_c, 2, 59, 100
1, 3300, Note_on_c, 2, 52, 100
1, 3300, Note_on_c, 3, 39, 100
1, 3300, Note_on_c, 4, 78, 100
1, 3300, Note_on_c, 12, 78, 100
1, 3360, Note_on_c, 12, 78, 0
1, 3360, Note_on_c, 2, 71, 0
1, 3360, Note_on_c, 2, 52, 0
1, 3360, Note_on_c, 2, 68, 0
1, 3360, Note_on_c, 2, 64, 0
1, 3360, Note_on_c, 2, 59, 0
1, 3360, Note_on_c, 3, 39, 0
1, 3360, Note_on_c, 4, 78, 0
1, 3360, Note_on_c, 2, 71, 100
1, 3360, Note_on_c, 2, 68, 100
1, 3360, Note_on_c, 2, 64, 100
1, 3360, Note_on_c, 2, 59, 100
1, 3360, Note_on_c, 2, 52, 100
1, 3360, Note_on_c, 3, 40, 100
1, 3360, Note_on_c, 4, 78, 100
1, 3360, Note_on_c, 9, 42, 100
1, 3360, Note_on_c, 9, 36, 100
1, 3360, Note_on_c, 12, 78, 100
1, 3375, Note_on_c, 9, 36, 0
1, 3375, Note_on_c, 9, 42, 0
1, 3420, Note_on_c, 4, 78, 0
1, 3420, Note_on_c, 12, 78, 0
1, 3420, Note_on_c, 4, 78, 100
1, 3420, Note_on_c, 12, 78, 100
1, 3480, Note_on_c, 12, 78, 0
1, 3480, Note_on_c, 2, 64, 0
1, 3480, Note_on_c, 2, 52, 0
1, 3480, Note_on_c, 4, 78, 0
1, 3480, Note_on_c, 2, 59, 0
1, 3480, Note_on_c, 2, 71, 0
1, 3480, Note_on_c, 2, 68, 0
1, 3480, Note_on_c, 4, 76, 100
1, 3480, Note_on_c, 9, 42, 100
1, 3480, Note_on_c, 12, 76, 100
1, 3495, Note_on_c, 9, 42, 0
1, 3540, Note_on_c, 3, 40, 0
1, 3540, Note_on_c, 4, 76, 0
1, 3540, Note_on_c, 12, 76, 0
1, 3540, Note_on_c, 2, 71, 100
1, 3540, Note_on_c, 2, 68, 100
1, 3540, Note_on_c, 2, 64, 100
1, 3540, Note_on_c, 2, 59, 100
1, 3540, Note_on_c, 2, 52, 100
1, 3540, Note_on_c, 3, 40, 100
1, 3540, Note_on_c, 4, 76, 100
1, 3540, Note_on_c, 9, 36, 100
1, 3540, Note_on_c, 12, 76, 100
1, 3555, Note_on_c, 9, 36, 0
1, 3600, Note_on_c, 2, 59, 0
1, 3600, Note_on_c, 2, 71, 0
1, 3600, Note_on_c, 2, 52, 0
1, 3600, Note_on_c, 2, 68, 0
1, 3600, Note_on_c, 2, 64, 0
1, 3600, Note_on_c, 4, 76, 0
1, 3600, Note_on_c, 3, 40, 0
1, 3600, Note_on_c, 12, 76, 0
1, 3600, Note_on_c, 2, 71, 100
1, 3600, Note_on_c, 2, 68, 100
1, 3600, Note_on_c, 2, 64, 100
1, 3600, Note_on_c, 2, 59, 100
1, 3600, Note_on_c, 2, 52, 100
1, 3600, Note_on_c, 3, 40, 100
1, 3600, Note_on_c, 4, 74, 100
1, 3600, Note_on_c, 9, 46, 100
1, 3600, Note_on_c, 9, 38, 100
1, 3600, Note_on_c, 12, 74, 100
1, 3615, Note_on_c, 9, 38, 0
1, 3615, Note_on_c, 9, 46, 0
1, 3660, Note_on_c, 3, 40, 0
1, 3660, Note_on_c, 3, 39, 100
1, 3720, Note_on_c, 3, 39, 0
1, 3720, Note_on_c, 2, 64, 0
1, 3720, Note_on_c, 2, 52, 0
1, 3720, Note_on_c, 2, 68, 0
1, 3720, Note_on_c, 12, 74, 0
1, 3720, Note_on_c, 2, 59, 0
1, 3720, Note_on_c, 4, 74, 0
1, 3720, Note_on_c, 2, 71, 0
1, 3720, Note_on_c, 2, 71, 100
1, 3720, Note_on_c, 2, 68, 100
1, 3720, Note_on_c, 2, 64, 100
1, 3720, Note_on_c, 2, 59, 100
1, 3720, Note_on_c, 2, 52, 100
1, 3720, Note_on_c, 3, 40, 100
1, 3720, Note_on_c, 4, 78, 100
1, 3720, Note_on_c, 12, 78, 100
1, 3780, Note_on_c, 12, 78, 0
1, 3780, Note_on_c, 2, 71, 0
1, 3780, Note_on_c, 2, 52, 0
1, 3780, Note_on_c, 2, 68, 0
1, 3780, Note_on_c, 2, 64, 0
1, 3780, Note_on_c, 2, 59, 0
1, 3780, Note_on_c, 3, 40, 0
1, 3780, Note_on_c, 4, 78, 0
1, 3780, Note_on_c, 2, 71, 100
1, 3780, Note_on_c, 2, 68, 100
1, 3780, Note_on_c, 2, 64, 100
1, 3780, Note_on_c, 2, 59, 100
1, 3780, Note_on_c, 2, 52, 100
1, 3780, Note_on_c, 3, 42, 100
1, 3780, Note_on_c, 4, 78, 100
1, 3780, Note_on_c, 12, 78, 100
1, 3840, Note_on_c, 3, 42, 0
1, 3840, Note_on_c, 2, 59, 0
1, 3840, Note_on_c, 2, 71, 0
1, 3840, Note_on_c, 2, 68, 0
1, 3840, Note_on_c, 2, 64, 0
1, 3840, Note_on_c, 2, 52, 0
1, 3840, Note_on_c, 2, 67, 100
1, 3840, Note_on_c, 2, 55, 100
1, 3840, Note_on_c, 2, 43, 100
1, 3840, Note_on_c, 2, 50, 100
1, 3840, Note_on_c, 2, 59, 100
1, 3840, Note_on_c, 2, 62, 100
1, 3840, Note_on_c, 3, 43, 100
1, 3840, Note_on_c, 9, 36, 100
1, 3840, Note_on_c, 9, 42, 100
1, 3855, Note_on_c, 9, 42, 0
1, 3855, Note_on_c, 9, 36, 0
1, 3900, Note_on_c, 4, 78, 0
1, 3900, Note_on_c, 12, 78, 0
1, 3900, Note_on_c, 4, 76, 100
1, 3900, Note_on_c, 12, 76, 100
1, 3960, Note_on_c, 12, 76, 0
1, 3960, Note_on_c, 2, 62, 0
1, 3960, Note_on_c, 3, 43, 0
1, 3960, Note_on_c, 2, 50, 0
1, 3960, Note_on_c, 2, 67, 0
1, 3960, Note_on_c, 2, 43, 0
1, 3960, Note_on_c, 2, 55, 0
1, 3960, Note_on_c, 2, 59, 0
1, 3960, Note_on_c, 4, 76, 0
1, 3960, Note_on_c, 3, 31, 100
1, 3960, Note_on_c, 4, 74, 100
1, 3960, Note_on_c, 9, 42, 100
1, 3960, Note_on_c, 12, 74, 100
1, 3975, Note_on_c, 9, 42, 0
1, 4020, Note_on_c, 3, 31, 0
1, 4020, Note_on_c, 2, 67, 100
1, 4020, Note_on_c, 2, 43, 100
1, 4020, Note_on_c, 2, 55, 100
1, 4020, Note_on_c, 2, 59, 100
1, 4020, Note_on_c, 2, 62, 100
1, 4020, Note_on_c, 2, 50, 100
1, 4020, Note_on_c, 3, 38, 100
1, 4020, Note_on_c, 9, 42, 100
1, 4020, Note_on_c, 9, 36, 100
1, 4035, Note_on_c, 9, 36, 0
1, 4035, Note_on_c, 9, 42, 0
1, 4080, Note_on_c, 2, 67, 0
1, 4080, Note_on_c, 2, 43, 0
1, 4080, Note_on_c, 12, 74, 0
1, 4080, Note_on_c, 2, 55, 0
1, 4080, Note_on_c, 4, 74, 0
1, 4080, Note_on_c, 3, 38, 0
1, 4080, Note_on_c, 2, 62, 0
1, 4080, Note_on_c, 2, 59, 0
1, 4080, Note_on_c, 2, 50, 0
1, 4080, Note_on_c, 2, 55, 100
1, 4080, Note_on_c, 2, 43, 100
1, 4080, Note_on_c, 2, 59, 100
1, 4080, Note_on_c, 2, 67, 100
1, 4080, Note_on_c, 2, 50, 100
1, 4080, Note_on_c, 2, 62, 100
1, 4080, Note_on_c, 3, 43, 100
1, 4080, Note_on_c, 9, 42, 100
1, 4080, Note_on_c, 9, 38, 100
1, 4095, Note_on_c, 9, 38, 0
1, 4095, Note_on_c, 9, 42, 0
1, 4200, Note_on_c, 2, 55, 0
1, 4200, Note_on_c, 2, 50, 0
1, 4200, Note_on_c, 2, 43, 0
1, 4200, Note_on_c, 2, 59, 0
1, 4200, Note_on_c, 3, 43, 0
1, 4200, Note_on_c, 2, 62, 0
1, 4200, Note_on_c, 2, 67, 0
1, 4200, Note_on_c, 3, 38, 100
1, 4200, Note_on_c, 9, 42, 100
1, 4215, Note_on_c, 9, 42, 0
1, 4260, Note_on_c, 3, 38, 0
1, 4260, Note_on_c, 2, 43, 100
1, 4260, Note_on_c, 2, 59, 100
1, 4260, Note_on_c, 2, 50, 100
1, 4260, Note_on_c, 2, 55, 100
1, 4260, Note_on_c, 2, 67, 100
1, 4260, Note_on_c, 2, 62, 100
1, 4260, Note_on_c, 3, 42, 100
1, 4320, Note_on_c, 3, 42, 0
1, 4320, Note_on_c, 2, 67, 0
1, 4320, Note_on_c, 2, 59, 0
1, 4320, Note_on_c, 2, 50, 0
1, 4320, Note_on_c, 2, 43, 0
1, 4320, Note_on_c, 2, 62, 0
1, 4320, Note_on_c, 2, 55, 0
1, 4320, Note_on_c, 2, 67, 100
1, 4320, Note_on_c, 2, 55, 100
1, 4320, Note_on_c, 2, 43, 100
1, 4320, Note_on_c, 2, 50, 100
1, 4320, Note_on_c, 2, 59, 100
1, 4320, Note_on_c, 2, 62, 100
1, 4320, Note_on_c, 3, 43, 100
1, 4320, Note_on_c, 4, 71, 100
1, 4320, Note_on_c, 9, 42, 100
1, 4320, Note_on_c, 9, 36, 100
1, 4320, Note_on_c, 12, 71, 100
1, 4335, Note_on_c, 9, 36, 0
1, 4335, Note_on_c, 9, 42, 0
1, 4440, Note_on_c, 2, 43, 0
1, 4440, Note_on_c, 2, 50, 0
1, 4440, Note_on_c, 2, 67, 0
1, 4440, Note_on_c, 2, 59, 0
1, 4440, Note_on_c, 2, 55, 0
1, 4440, Note_on_c, 12, 71, 0
1, 4440, Note_on_c, 3, 43, 0
1, 4440, Note_on_c, 2, 62, 0
1, 4440, Note_on_c, 4, 71, 0
1, 4440, Note_on_c, 3, 43, 100
1, 4440, Note_on_c, 4, 73, 100
1, 4440, Note_on_c, 9, 42, 100
1, 4440, Note_on_c, 12, 73, 100
1, 4455, Note_on_c, 9, 42, 0
1, 4500, Note_on_c, 3, 43, 0
1, 4500, Note_on_c, 4, 73, 0
1, 4500, Note_on_c, 12, 73, 0
1, 4500, Note_on_c, 2, 67, 100
1, 4500, Note_on_c, 2, 43, 100
1, 4500, Note_on_c, 2, 55, 100
1, 4500, Note_on_c, 2, 59, 100
1, 4500, Note_on_c, 2, 62, 100
1, 4500, Note_on_c, 2, 50, 100
1, 4500, Note_on_c, 3, 43, 100
1, 4500, Note_on_c, 4, 74, 100
1, 4500, Note_on_c, 9, 42, 100
1, 4500, Note_on_c, 9, 36, 100
1, 4500, Note_on_c, 12, 74, 100
1, 4515, Note_on_c, 9, 36, 0
1, 4515, Note_on_c, 9, 42, 0
1, 4560, Note_on_c, 2, 55, 0
1, 4560, Note_on_c, 2, 59, 0
1, 4560, Note_on_c, 2, 67, 0
1, 4560, Note_on_c, 2, 62, 0
1, 4560, Note_on_c, 2, 43, 0
1, 4560, Note_on_c, 3, 43, 0
1, 4560, Note_on_c, 2, 50, 0
1, 4560, Note_on_c, 2, 55, 100
1, 4560, Note_on_c, 2, 43, 100
1, 4560, Note_on_c, 2, 59, 100
1, 4560, Note_on_c, 2, 67, 100
1, 4560, Note_on_c, 2, 50, 100
1, 4560, Note_on_c, 2, 62, 100
1, 4560, Note_on_c, 3, 43, 100
1, 4560, Note_on_c, 9, 46, 100
1, 4560, Note_on_c, 9, 38, 100
1, 4575, Note_on_c, 9, 38, 0
1, 4575, Note_on_c, 9, 46, 0
1, 4620, Note_on_c, 4, 74, 0
1, 4620, Note_on_c, 12, 74, 0
1, 4620, Note_on_c, 4, 79, 100
1, 4620, Note_on_c, 12, 79, 100
1, 4680, Note_on_c, 12, 79, 0
1, 4680, Note_on_c, 2, 62, 0
1, 4680, Note_on_c, 3, 43, 0
1, 4680, Note_on_c, 2, 67, 0
1, 4680, Note_on_c, 2, 55, 0
1, 4680, Note_on_c, 2, 59, 0
1, 4680, Note_on_c, 2, 43, 0
1, 4680, Note_on_c, 2, 50, 0
1, 4680, Note_on_c, 4, 79, 0
1, 4680, Note_on_c, 2, 62, 100
1, 4680, Note_on_c, 2, 43, 100
1, 4680, Note_on_c, 2, 59, 100
1, 4680, Note_on_c, 2, 50, 100
1, 4680, Note_on_c, 2, 55, 100
1, 4680, Note_on_c, 2, 67, 100
1, 4680, Note_on_c, 3, 45, 100
1, 4680, Note_on_c, 4, 78, 100
1, 4680, Note_on_c, 12, 78, 100
1, 4740, Note_on_c, 3, 45, 0
1, 4740, Note_on_c, 2, 50, 0
1, 4740, Note_on_c, 2, 62, 0
1, 4740, Note_on_c, 2, 55, 0
1, 4740, Note_on_c, 2, 43, 0
1, 4740, Note_on_c, 2, 59, 0
1, 4740, Note_on_c, 2, 67, 0
1, 4740, Note_on_c, 2, 59, 100
1, 4740, Note_on_c, 2, 50, 100
1, 4740, Note_on_c, 2, 55, 100
1, 4740, Note_on_c, 2, 67, 100
1, 4740, Note_on_c, 2, 62, 100
1, 4740, Note_on_c, 2, 43, 100
1, 4740, Note_on_c, 3, 40, 100
1, 4800, Note_on_c, 3, 40, 0
1, 4800, Note_on_c, 2, 50, 0
1, 4800, Note_on_c, 4, 78, 0
1, 4800, Note_on_c, 2, 55, 0
1, 4800, Note_on_c, 12, 78, 0
1, 4800, Note_on_c, 2, 59, 0
1, 4800, Note_on_c, 2, 62, 0
1, 4800, Note_on_c, 2, 67, 0
1, 4800, Note_on_c, 2, 43, 0
1, 4800, Note_on_c, 2, 69, 100
1, 4800, Note_on_c, 2, 66, 100
1, 4800, Note_on_c, 2, 62, 100
1, 4800, Note_on_c, 2, 57, 100
1, 4800, Note_on_c, 2, 50, 100
1, 4800, Note_on_c, 3, 38, 100
1, 4800, Note_on_c, 9, 42, 100
1, 4800, Note_on_c, 9, 36, 100
1, 4815, Note_on_c, 9, 36, 0
1, 4815, Note_on_c, 9, 42, 0
1, 4920, Note_on_c, 2, 50, 0
1, 4920, Note_on_c, 2, 66, 0
1, 4920, Note_on_c, 2, 62, 0
1, 4920, Note_on_c, 2, 57, 0
1, 4920, Note_on_c, 3, 38, 0
1, 4920, Note_on_c, 2, 69, 0
1, 4920, Note_on_c, 3, 38, 100
1, 4920, Note_on_c, 9, 42, 100
1, 4935, Note_on_c, 9, 42, 0
1, 4980, Note_on_c, 3, 38, 0
1, 4980, Note_on_c, 2, 69, 100
1, 4980, Note_on_c, 2, 66, 100
1, 4980, Note_on_c, 2, 62, 100
1, 4980, Note_on_c, 2, 57, 100
1, 4980, Note_on_c, 2, 50, 100
1, 4980, Note_on_c, 3, 33, 100
1, 4980, Note_on_c, 9, 36, 100
1, 4995, Note_on_c, 9, 36, 0
1, 5040, Note_on_c, 2, 50, 0
1, 5040, Note_on_c, 2, 66, 0
1, 5040, Note_on_c, 2, 62, 0
1, 5040, Note_on_c, 2, 69, 0
1, 5040, Note_on_c, 3, 33, 0
1, 5040, Note_on_c, 2, 57, 0
1, 5040, Note_on_c, 2, 69, 100
1, 5040, Note_on_c, 2, 66, 100
1, 5040, Note_on_c, 2, 62, 100
1, 5040, Note_on_c, 2, 57, 100
1, 5040, Note_on_c, 2, 50, 100
1, 5040, Note_on_c, 3, 38, 100
1, 5040, Note_on_c, 9, 42, 100
1, 5040, Note_on_c, 9, 38, 100
1, 5055, Note_on_c, 9, 38, 0
1, 5055, Note_on_c, 9, 42, 0
1, 5160, Note_on_c, 2, 50, 0
1, 5160, Note_on_c, 2, 66, 0
1, 5160, Note_on_c, 2, 62, 0
1, 5160, Note_on_c, 2, 57, 0
1, 5160, Note_on_c, 3, 38, 0
1, 5160, Note_on_c, 2, 69, 0
1, 5160, Note_on_c, 9, 42, 100
1, 5175, Note_on_c, 9, 42, 0
1, 5220, Note_on_c, 2, 66, 100
1, 5220, Note_on_c, 2, 62, 100
1, 5220, Note_on_c, 2, 57, 100
1, 5220, Note_on_c, 2, 50, 100
1, 5220, Note_on_c, 3, 33, 100
1, 5220, Note_on_c, 4, 78, 100
1, 5220, Note_on_c, 12, 78, 100
1, 5280, Note_on_c, 12, 78, 0
1, 5280, Note_on_c, 3, 33, 0
1, 5280, Note_on_c, 2, 62, 0
1, 5280, Note_on_c, 2, 57, 0
1, 5280, Note_on_c, 2, 66, 0
1, 5280, Note_on_c, 4, 78, 0
1, 5280, Note_on_c, 2, 50, 0
1, 5280, Note_on_c, 2, 69, 100
1, 5280, Note_on_c, 2, 66, 100
1, 5280, Note_on_c, 2, 62, 100
1, 5280, Note_on_c, 2, 57, 100
1, 5280, Note_on_c, 2, 50, 100
1, 5280, Note_on_c, 3, 38, 100
1, 5280, Note_on_c, 4, 79, 100
1, 5280, Note_on_c, 9, 42, 100
1, 5280, Note_on_c, 9, 36, 100
1, 5280, Note_on_c, 12, 79, 100
1, 5295, Note_on_c, 9, 36, 0
1, 5295, Note_on_c, 9, 42, 0
1, 5340, Note_on_c, 4, 79, 0
1, 5340, Note_on_c, 12, 79, 0
1, 5340, Note_on_c, 4, 79, 100
1, 5340, Note_on_c, 12, 79, 100
1, 5400, Note_on_c, 12, 79, 0
1, 5400, Note_on_c, 2, 62, 0
1, 5400, Note_on_c, 2, 50, 0
1, 5400, Note_on_c, 4, 79, 0
1, 5400, Note_on_c, 2, 57, 0
1, 5400, Note_on_c, 2, 69, 0
1, 5400, Note_on_c, 2, 66, 0
1, 5400, Note_on_c, 4, 78, 100
1, 5400, Note_on_c, 9, 42, 100
1, 5400, Note_on_c, 12, 78, 100
1, 5415, Note_on_c, 9, 42, 0
1, 5460, Note_on_c, 3, 38, 0
1, 5460, Note_on_c, 4, 78, 0
1, 5460, Note_on_c, 12, 78, 0
1, 5460, Note_on_c, 2, 69, 100
1, 5460, Note_on_c, 2, 66, 100
1, 5460, Note_on_c, 2, 62, 100
1, 5460, Note_on_c, 2, 57, 100
1, 5460, Note_on_c, 2, 50, 100
1, 5460, Note_on_c, 3, 38, 100
1, 5460, Note_on_c, 4, 78, 100
1, 5460, Note_on_c, 9, 36, 100
1, 5460, Note_on_c, 12, 78, 100
1, 5475, Note_on_c, 9, 36, 0
1, 5520, Note_on_c, 2, 57, 0
1, 5520, Note_on_c, 2, 69, 0
1, 5520, Note_on_c, 2, 50, 0
1, 5520, Note_on_c, 2, 66, 0
1, 5520, Note_on_c, 2, 62, 0
1, 5520, Note_on_c, 4, 78, 0
1, 5520, Note_on_c, 3, 38, 0
1, 5520, Note_on_c, 12, 78, 0
1, 5520, Note_on_c, 2, 69, 100
1, 5520, Note_on_c, 2, 66, 100
1, 5520, Note_on_c, 2, 62, 100
1, 5520, Note_on_c, 2, 57, 100
1, 5520, Note_on_c, 2, 50, 100
1, 5520, Note_on_c, 3, 38, 100
1, 5520, Note_on_c, 4, 78, 100
1, 5520, Note_on_c, 9, 46, 100
1, 5520, Note_on_c, 9, 38, 100
1, 5520, Note_on_c, 12, 78, 100
1, 5535, Note_on_c, 9, 38, 0
1, 5535, Note_on_c, 9, 46, 0
1, 5580, Note_on_c, 4, 78, 0
1, 5580, Note_on_c, 12, 78, 0
1, 5580, Note_on_c, 4, 76, 100
1, 5580, Note_on_c, 12, 76, 100
1, 5640, Note_on_c, 12, 76, 0
1, 5640, Note_on_c, 2, 62, 0
1, 5640, Note_on_c, 3, 38, 0
1, 5640, Note_on_c, 2, 66, 0
1, 5640, Note_on_c, 2, 57, 0
1, 5640, Note_on_c, 2, 69, 0
1, 5640, Note_on_c, 2, 50, 0
1, 5640, Note_on_c, 4, 76, 0
1, 5640, Note_on_c, 2, 50, 100
1, 5640, Note_on_c, 2, 66, 100
1, 5640, Note_on_c, 2, 62, 100
1, 5640, Note_on_c, 2, 57, 100
1, 5640, Note_on_c, 3, 43, 100
1, 5640, Note_on_c, 4, 74, 100
1, 5640, Note_on_c, 12, 74, 100
1, 5700, Note_on_c, 12, 74, 0
1, 5700, Note_on_c, 2, 57, 0
1, 5700, Note_on_c, 2, 66, 0
1, 5700, Note_on_c, 2, 62, 0
1, 5700, Note_on_c, 2, 50, 0
1, 5700, Note_on_c, 4, 74, 0
1, 5700, Note_on_c, 2, 62, 100
1, 5700, Note_on_c, 2, 57, 100
1, 5700, Note_on_c, 2, 50, 100
1, 5700, Note_on_c, 2, 66, 100
1, 5700, Note_on_c, 4, 78, 100
1, 5700, Note_on_c, 12, 78, 100
1, 5760, Note_on_c, 2, 66, 0
1, 5760, Note_on_c, 2, 50, 0
1, 5760, Note_on_c, 3, 43, 0
1, 5760, Note_on_c, 2, 57, 0
1, 5760, Note_on_c, 2, 62, 0
1, 5760, Note_on_c, 2, 42, 100
1, 5760, Note_on_c, 2, 49, 100
1, 5760, Note_on_c, 2, 54, 100
1, 5760, Note_on_c, 2, 58, 100
1, 5760, Note_on_c, 2, 61, 100
1, 5760, Note_on_c, 2, 66, 100
1, 5760, Note_on_c, 3, 42, 100
1, 5760, Note_on_c, 9, 42, 100
1, 5760, Note_on_c, 9, 36, 100
1, 5775, Note_on_c, 9, 36, 0
1, 5775, Note_on_c, 9, 42, 0
1, 5880, Note_on_c, 2, 42, 0
1, 5880, Note_on_c, 2, 61, 0
1, 5880, Note_on_c, 2, 49, 0
1, 5880, Note_on_c, 2, 54, 0
1, 5880, Note_on_c, 2, 66, 0
1, 5880, Note_on_c, 2, 58, 0
1, 5880, Note_on_c, 9, 42, 100
1, 5895, Note_on_c, 9, 42, 0
1, 5940, Note_on_c, 3, 42, 0
1, 5940, Note_on_c, 2, 54, 100
1, 5940, Note_on_c, 2, 58, 100
1, 5940, Note_on_c, 2, 42, 100
1, 5940, Note_on_c, 2, 61, 100
1, 5940, Note_on_c, 2, 49, 100
1, 5940, Note_on_c, 2, 66, 100
1, 5940, Note_on_c, 3, 42, 100
1, 5940, Note_on_c, 9, 36, 100
1, 5955, Note_on_c, 9, 36, 0
1, 6000, Note_on_c, 2, 54, 0
1, 6000, Note_on_c, 2, 58, 0
1, 6000, Note_on_c, 3, 42, 0
1, 6000, Note_on_c, 2, 42, 0
1, 6000, Note_on_c, 2, 49, 0
1, 6000, Note_on_c, 2, 66, 0
1, 6000, Note_on_c, 2, 61, 0
1, 6000, Note_on_c, 2, 61, 100
1, 6000, Note_on_c, 2, 42, 100
1, 6000, Note_on_c, 2, 58, 100
1, 6000, Note_on_c, 2, 66, 100
1, 6000, Note_on_c, 2, 54, 100
1, 6000, Note_on_c, 2, 49, 100
1, 6000, Note_on_c, 3, 42, 100
1, 6000, Note_on_c, 9, 42, 100
1, 6000, Note_on_c, 9, 38, 100
1, 6015, Note_on_c, 9, 38, 0
1, 6015, Note_on_c, 9, 42, 0
1, 6120, Note_on_c, 12, 78, 0
1, 6120, Note_on_c, 4, 78, 0
1, 6120, Note_on_c, 3, 42, 0
1, 6120, Note_on_c, 3, 37, 100
1, 6120, Note_on_c, 4, 76, 100
1, 6120, Note_on_c, 9, 42, 100
1, 6120, Note_on_c, 12, 76, 100
1, 6135, Note_on_c, 9, 42, 0
1, 6180, Note_on_c, 2, 49, 0
1, 6180, Note_on_c, 2, 42, 0
1, 6180, Note_on_c, 2, 58, 0
1, 6180, Note_on_c, 2, 54, 0
1, 6180, Note_on_c, 2, 61, 0
1, 6180, Note_on_c, 4, 76, 0
1, 6180, Note_on_c, 3, 37, 0
1, 6180, Note_on_c, 2, 66, 0
1, 6180, Note_on_c, 12, 76, 0
1, 6180, Note_on_c, 2, 49, 100
1, 6180, Note_on_c, 2, 61, 100
1, 6180, Note_on_c, 2, 54, 100
1, 6180, Note_on_c, 2, 58, 100
1, 6180, Note_on_c, 2, 42, 100
1, 6180, Note_on_c, 2, 66, 100
1, 6180, Note_on_c, 3, 40, 100
1, 6180, Note_on_c, 4, 76, 100
1, 6180, Note_on_c, 12, 76, 100
1, 6240, Note_on_c, 12, 76, 0
1, 6240, Note_on_c, 2, 58, 0
1, 6240, Note_on_c, 2, 49, 0
1, 6240, Note_on_c, 2, 42, 0
1, 6240, Note_on_c, 2, 61, 0
1, 6240, Note_on_c, 2, 54, 0
1, 6240, Note_on_c, 3, 40, 0
1, 6240, Note_on_c, 2, 66, 0
1, 6240, Note_on_c, 4, 76, 0
1, 6240, Note_on_c, 2, 42, 100
1, 6240, Note_on_c, 2, 49, 100
1, 6240, Note_on_c, 2, 54, 100
1, 6240, Note_on_c, 2, 58, 100
1, 6240, Note_on_c, 2, 61, 100
1, 6240, Note_on_c, 2, 66, 100
1, 6240, Note_on_c, 3, 42, 100
1, 6240, Note_on_c, 4, 76, 100
1, 6240, Note_on_c, 9, 42, 100
1, 6240, Note_on_c, 9, 36, 100
1, 6240, Note_on_c, 12, 76, 100
1, 6255, Note_on_c, 9, 36, 0
1, 6255, Note_on_c, 9, 42, 0
1, 6300, Note_on_c, 4, 76, 0
1, 6300, Note_on_c, 12, 76, 0
1, 6300, Note_on_c, 4, 76, 100
1, 6300, Note_on_c, 9, 38, 100
1, 6300, Note_on_c, 12, 76, 100
1, 6315, Note_on_c, 9, 38, 0
1, 6360, Note_on_c, 2, 54, 0
1, 6360, Note_on_c, 2, 58, 0
1, 6360, Note_on_c, 3, 42, 0
1, 6360, Note_on_c, 2, 61, 0
1, 6360, Note_on_c, 2, 49, 0
1, 6360, Note_on_c, 4, 76, 0
1, 6360, Note_on_c, 2, 42, 0
1, 6360, Note_on_c, 2, 66, 0
1, 6360, Note_on_c, 12, 76, 0
1, 6360, Note_on_c, 2, 66, 100
1, 6360, Note_on_c, 2, 58, 100
1, 6360, Note_on_c, 2, 42, 100
1, 6360, Note_on_c, 2, 61, 100
1, 6360, Note_on_c, 2, 54, 100
1, 6360, Note_on_c, 2, 49, 100
1, 6360, Note_on_c, 3, 42, 100
1, 6360, Note_on_c, 4, 76, 100
1, 6360, Note_on_c, 9, 42, 100
1, 6360, Note_on_c, 12, 76, 100
1, 6375, Note_on_c, 9, 42, 0
1, 6420, Note_on_c, 2, 42, 0
1, 6420, Note_on_c, 2, 61, 0
1, 6420, Note_on_c, 2, 66, 0
1, 6420, Note_on_c, 2, 54, 0
1, 6420, Note_on_c, 2, 58, 0
1, 6420, Note_on_c, 4, 76, 0
1, 6420, Note_on_c, 3, 42, 0
1, 6420, Note_on_c, 2, 49, 0
1, 6420, Note_on_c, 12, 76, 0
1, 6420, Note_on_c, 2, 58, 100
1, 6420, Note_on_c, 2, 61, 100
1, 6420, Note_on_c, 2, 42, 100
1, 6420, Note_on_c, 2, 54, 100
1, 6420, Note_on_c, 2, 49, 100
1, 6420, Note_on_c, 2, 66, 100
1, 6420, Note_on_c, 3, 42, 100
1, 6420, Note_on_c, 4, 74, 100
1, 6420, Note_on_c, 9, 36, 100
1, 6420, Note_on_c, 12, 74, 100
1, 6435, Note_on_c, 9, 36, 0
1, 6480, Note_on_c, 2, 42, 0
1, 6480, Note_on_c, 2, 54, 0
1, 6480, Note_on_c, 2, 58, 0
1, 6480, Note_on_c, 2, 49, 0
1, 6480, Note_on_c, 2, 61, 0
1, 6480, Note_on_c, 4, 74, 0
1, 6480, Note_on_c, 3, 42, 0
1, 6480, Note_on_c, 2, 66, 0
1, 6480, Note_on_c, 12, 74, 0
1, 6480, Note_on_c, 2, 42, 100
1, 6480, Note_on_c, 2, 49, 100
1, 6480, Note_on_c, 2, 54, 100
1, 6480, Note_on_c, 2, 58, 100
1, 6480, Note_on_c, 2, 61, 100
1, 6480, Note_on_c, 2, 66, 100
1, 6480, Note_on_c, 3, 42, 100
1, 6480, Note_on_c, 4, 78, 100
1, 6480, Note_on_c, 9, 46, 100
1, 6480, Note_on_c, 9, 38, 100
1, 6480, Note_on_c, 12, 78, 100
1, 6495, Note_on_c, 9, 38, 0
1, 6495, Note_on_c, 9, 46, 0
1, 6600, Note_on_c, 2, 54, 0
1, 6600, Note_on_c, 2, 58, 0
1, 6600, Note_on_c, 2, 42, 0
1, 6600, Note_on_c, 2, 61, 0
1, 6600, Note_on_c, 2, 49, 0
1, 6600, Note_on_c, 3, 42, 0
1, 6600, Note_on_c, 2, 66, 0
1, 6600, Note_on_c, 3, 37, 100
1, 6660, Note_on_c, 12, 78, 0
1, 6660, Note_on_c, 4, 78, 0
1, 6660, Note_on_c, 4, 76, 100
1, 6660, Note_on_c, 12, 76, 100
1, 6720, Note_on_c, 3, 37, 0
1, 6720, Note_on_c, 2, 66, 100
1, 6720, Note_on_c, 2, 62, 100
1, 6720, Note_on_c, 2, 59, 100
1, 6720, Note_on_c, 2, 54, 100
1, 6720, Note_on_c, 2, 47, 100
1, 6720, Note_on_c, 3, 35, 100
1, 6720, Note_on_c, 9, 42, 100
1, 6720, Note_on_c, 9, 36, 100
1, 6735, Note_on_c, 9, 36, 0
1, 6735, Note_on_c, 9, 42, 0
1, 6780, Note_on_c, 4, 76, 0
1, 6780, Note_on_c, 12, 76, 0
1, 6780, Note_on_c, 4, 76, 100
1, 6780, Note_on_c, 12, 76, 100
1, 6840, Note_on_c, 12, 76, 0
1, 6840, Note_on_c, 4, 76, 0
1, 6840, Note_on_c, 2, 47, 0
1, 6840, Note_on_c, 2, 66, 0
1, 6840, Note_on_c, 2, 62, 0
1, 6840, Note_on_c, 2, 59, 0
1, 6840, Note_on_c, 2, 54, 0
1, 6840, Note_on_c, 4, 76, 100
1, 6840, Note_on_c, 9, 42, 100
1, 6840, Note_on_c, 12, 76, 100
1, 6855, Note_on_c, 9, 42, 0
1, 6900, Note_on_c, 3, 35, 0
1, 6900, Note_on_c, 4, 76, 0
1, 6900, Note_on_c, 12, 76, 0
1, 6900, Note_on_c, 2, 66, 100
1, 6900, Note_on_c, 2, 62, 100
1, 6900, Note_on_c, 2, 59, 100
1, 6900, Note_on_c, 2, 54, 100
1, 6900, Note_on_c, 2, 47, 100
1, 6900, Note_on_c, 3, 30, 100
1, 6900, Note_on_c, 4, 74, 100
1, 6900, Note_on_c, 9, 36, 100
1, 6900, Note_on_c, 12, 74, 100
1, 6915, Note_on_c, 9, 36, 0
1, 6960, Note_on_c, 2, 54, 0
1, 6960, Note_on_c, 2, 66, 0
1, 6960, Note_on_c, 2, 47, 0
1, 6960, Note_on_c, 2, 62, 0
1, 6960, Note_on_c, 2, 59, 0
1, 6960, Note_on_c, 4, 74, 0
1, 6960, Note_on_c, 3, 30, 0
1, 6960, Note_on_c, 12, 74, 0
1, 6960, Note_on_c, 2, 66, 100
1, 6960, Note_on_c, 2, 62, 100
1, 6960, Note_on_c, 2, 59, 100
1, 6960, Note_on_c, 2, 54, 100
1, 6960, Note_on_c, 2, 47, 100
1, 6960, Note_on_c, 3, 35, 100
1, 6960, Note_on_c, 4, 71, 100
1, 6960, Note_on_c, 9, 42, 100
1, 6960, Note_on_c, 9, 38, 100
1, 6960, Note_on_c, 12, 71, 100
1, 6975, Note_on_c, 9, 38, 0
1, 6975, Note_on_c, 9, 42, 0
1, 7080, Note_on_c, 2, 54, 0
1, 7080, Note_on_c, 2, 66, 0
1, 7080, Note_on_c, 2, 47, 0
1, 7080, Note_on_c, 2, 62, 0
1, 7080, Note_on_c, 12, 71, 0
1, 7080, Note_on_c, 4, 71, 0
1, 7080, Note_on_c, 3, 35, 0
1, 7080, Note_on_c, 2, 59, 0
1, 7080, Note_on_c, 2, 66, 100
1, 7080, Note_on_c, 2, 62, 100
1, 7080, Note_on_c, 2, 59, 100
1, 7080, Note_on_c, 2, 54, 100
1, 7080, Note_on_c, 2, 47, 100
1, 7080, Note_on_c, 3, 35, 100
1, 7080, Note_on_c, 9, 42, 100
1, 7095, Note_on_c, 9, 42, 0
1, 7140, Note_on_c, 2, 47, 0
1, 7140, Note_on_c, 2, 62, 0
1, 7140, Note_on_c, 2, 59, 0
1, 7140, Note_on_c, 2, 66, 0
1, 7140, Note_on_c, 3, 35, 0
1, 7140, Note_on_c, 2, 54, 0
1, 7140, Note_on_c, 2, 66, 100
1, 7140, Note_on_c, 2, 62, 100
1, 7140, Note_on_c, 2, 59, 100
1, 7140, Note_on_c, 2, 54, 100
1, 7140, Note_on_c, 2, 47, 100
1, 7140, Note_on_c, 3, 34, 100
1, 7200, Note_on_c, 3, 34, 0
1, 7200, Note_on_c, 2, 62, 0
1, 7200, Note_on_c, 2, 59, 0
1, 7200, Note_on_c, 2, 66, 0
1, 7200, Note_on_c, 2, 47, 0
1, 7200, Note_on_c, 2, 54, 0
1, 7200, Note_on_c, 2, 66, 100
1, 7200, Note_on_c, 2, 62, 100
1, 7200, Note_on_c, 2, 54, 100
1, 7200, Note_on_c, 2, 47, 100
1, 7200, Note_on_c, 2, 57, 100
1, 7200, Note_on_c, 3, 33, 100
1, 7200, Note_on_c, 9, 42, 100
1, 7200, Note_on_c, 9, 36, 100
1, 7215, Note_on_c, 9, 36, 0
1, 7215, Note_on_c, 9, 42, 0
1, 7320, Note_on_c, 2, 62, 0
1, 7320, Note_on_c, 2, 66, 0
1, 7320, Note_on_c, 2, 54, 0
1, 7320, Note_on_c, 2, 47, 0
1, 7320, Note_on_c, 2, 57, 0
1, 7320, Note_on_c, 9, 42, 100
1, 7335, Note_on_c, 9, 42, 0
1, 7380, Note_on_c, 3, 33, 0
1, 7380, Note_on_c, 2, 66, 100
1, 7380, Note_on_c, 2, 54, 100
1, 7380, Note_on_c, 2, 47, 100
1, 7380, Note_on_c, 2, 62, 100
1, 7380, Note_on_c, 2, 57, 100
1, 7380, Note_on_c, 3, 33, 100
1, 7380, Note_on_c, 9, 36, 100
1, 7395, Note_on_c, 9, 36, 0
1, 7440, Note_on_c, 2, 57, 0
1, 7440, Note_on_c, 2, 54, 0
1, 7440, Note_on_c, 2, 47, 0
1, 7440, Note_on_c, 2, 66, 0
1, 7440, Note_on_c, 3, 33, 0
1, 7440, Note_on_c, 2, 62, 0
1, 7440, Note_on_c, 2, 54, 100
1, 7440, Note_on_c, 2, 47, 100
1, 7440, Note_on_c, 2, 62, 100
1, 7440, Note_on_c, 2, 57, 100
1, 7440, Note_on_c, 2, 66, 100
1, 7440, Note_on_c, 3, 33, 100
1, 7440, Note_on_c, 9, 46, 100
1, 7440, Note_on_c, 9, 38, 100
1, 7455, Note_on_c, 9, 38, 0
1, 7455, Note_on_c, 9, 46, 0
1, 7560, Note_on_c, 2, 66, 0
1, 7560, Note_on_c, 2, 47, 0
1, 7560, Note_on_c, 2, 62, 0
1, 7560, Note_on_c, 2, 57, 0
1, 7560, Note_on_c, 3, 33, 0
1, 7560, Note_on_c, 2, 54, 0
1, 7560, Note_on_c, 2, 66, 100
1, 7560, Note_on_c, 2, 62, 100
1, 7560, Note_on_c, 2, 57, 100
1, 7560, Note_on_c, 2, 47, 100
1, 7560, Note_on_c, 2, 54, 100
1, 7560, Note_on_c, 3, 38, 100
1, 7620, Note_on_c, 3, 38, 0
1, 7620, Note_on_c, 2, 62, 0
1, 7620, Note_on_c, 2, 57, 0
1, 7620, Note_on_c, 2, 66, 0
1, 7620, Note_on_c, 2, 54, 0
1, 7620, Note_on_c, 2, 47, 0
1, 7620, Note_on_c, 2, 47, 100
1, 7620, Note_on_c, 2, 54, 100
1, 7620, Note_on_c, 2, 66, 100
1, 7620, Note_on_c, 2, 62, 100
1, 7620, Note_on_c, 2, 57, 100
1, 7620, Note_on_c, 3, 39, 100
1, 7680, Note_on_c, 3, 39, 0
1, 7680, Note_on_c, 2, 54, 0
1, 7680, Note_on_c, 2, 66, 0
1, 7680, Note_on_c, 2, 47, 0
1, 7680, Note_on_c, 2, 57, 0
1, 7680, Note_on_c, 2, 62, 0
1, 7680, Note_on_c, 2, 71, 100
1, 7680, Note_on_c, 2, 68, 100
1, 7680, Note_on_c, 2, 64, 100
1, 7680, Note_on_c, 2, 59, 100
1, 7680, Note_on_c, 2, 52, 100
1, 7680, Note_on_c, 3, 40, 100
1, 7680, Note_on_c, 9, 42, 100
1, 7680, Note_on_c, 9, 36, 100
1, 7695, Note_on_c, 9, 36, 0
1, 7695, Note_on_c, 9, 42, 0
1, 7800, Note_on_c, 2, 68, 0
1, 7800, Note_on_c, 2, 71, 0
1, 7800, Note_on_c, 2, 64, 0
1, 7800, Note_on_c, 2, 59, 0
1, 7800, Note_on_c, 2, 52, 0
1, 7800, Note_on_c, 9, 42, 100
1, 7815, Note_on_c, 9, 42, 0
1, 7860, Note_on_c, 3, 40, 0
1, 7860, Note_on_c, 2, 71, 100
1, 7860, Note_on_c, 2, 68, 100
1, 7860, Note_on_c, 2, 64, 100
1, 7860, Note_on_c, 2, 59, 100
1, 7860, Note_on_c, 2, 52, 100
1, 7860, Note_on_c, 3, 35, 100
1, 7860, Note_on_c, 9, 36, 100
1, 7875, Note_on_c, 9, 36, 0
1, 7920, Note_on_c, 2, 52, 0
1, 7920, Note_on_c, 2, 68, 0
1, 7920, Note_on_c, 2, 64, 0
1, 7920, Note_on_c, 2, 71, 0
1, 7920, Note_on_c, 3, 35, 0
1, 7920, Note_on_c, 2, 59, 0
1, 7920, Note_on_c, 2, 71, 100
1, 7920, Note_on_c, 2, 68, 100
1, 7920, Note_on_c, 2, 64, 100
1, 7920, Note_on_c, 2, 59, 100
1, 7920, Note_on_c, 2, 52, 100
1, 7920, Note_on_c, 3, 40, 100
1, 7920, Note_on_c, 9, 42, 100
1, 7920, Note_on_c, 9, 38, 100
1, 7935, Note_on_c, 9, 38, 0
1, 7935, Note_on_c, 9, 42, 0
1, 8040, Note_on_c, 2, 52, 0
1, 8040, Note_on_c, 2, 68, 0
1, 8040, Note_on_c, 2, 64, 0
1, 8040, Note_on_c, 2, 59, 0
1, 8040, Note_on_c, 3, 40, 0
1, 8040, Note_on_c, 2, 71, 0
1, 8040, Note_on_c, 3, 35, 100
1, 8040, Note_on_c, 9, 42, 100
1, 8055, Note_on_c, 9, 42, 0
1, 8100, Note_on_c, 3, 35, 0
1, 8100, Note_on_c, 2, 71, 100
1, 8100, Note_on_c, 2, 68, 100
1, 8100, Note_on_c, 2, 64, 100
1, 8100, Note_on_c, 2, 59, 100
1, 8100, Note_on_c, 2, 52, 100
1, 8100, Note_on_c, 3, 39, 100
1, 8100, Note_on_c, 9, 38, 100
1, 8115, Note_on_c, 9, 38, 0
1, 8120, Note_on_c, 9, 38, 100
1, 8135, Note_on_c, 9, 38, 0
1, 8140, Note_on_c, 9, 38, 100
1, 8155, Note_on_c, 9, 38, 0
1, 8160, Note_on_c, 2, 52, 0
1, 8160, Note_on_c, 2, 68, 0
1, 8160, Note_on_c, 2, 64, 0
1, 8160, Note_on_c, 2, 71, 0
1, 8160, Note_on_c, 3, 39, 0
1, 8160, Note_on_c, 2, 59, 0
1, 8160, Note_on_c, 2, 71, 100
1, 8160, Note_on_c, 2, 68, 100
1, 8160, Note_on_c, 2, 64, 100
1, 8160, Note_on_c, 2, 59, 100
1, 8160, Note_on_c, 2, 52, 100
1, 8160, Note_on_c, 3, 40, 100
1, 8160, Note_on_c, 9, 38, 100
1, 8175, Note_on_c, 9, 38, 0
1, 8220, Note_on_c, 2, 52, 0
1, 8220, Note_on_c, 2, 68, 0
1, 8220, Note_on_c, 2, 64, 0
1, 8220, Note_on_c, 2, 71, 0
1, 8220, Note_on_c, 3, 40, 0
1, 8220, Note_on_c, 2, 59, 0
1, 8220, Note_on_c, 2, 71, 100
1, 8220, Note_on_c, 2, 68, 100
1, 8220, Note_on_c, 2, 64, 100
1, 8220, Note_on_c, 2, 59, 100
1, 8220, Note_on_c, 2, 52, 100
1, 8220, Note_on_c, 3, 40, 100
1, 8220, Note_on_c, 9, 36, 100
1, 8235, Note_on_c, 9, 36, 0
1, 8280, Note_on_c, 2, 52, 0
1, 8280, Note_on_c, 2, 68, 0
1, 8280, Note_on_c, 2, 64, 0
1, 8280, Note_on_c, 2, 71, 0
1, 8280, Note_on_c, 3, 40, 0
1, 8280, Note_on_c, 2, 59, 0
1, 8280, Note_on_c, 2, 71, 100
1, 8280, Note_on_c, 2, 68, 100
1, 8280, Note_on_c, 2, 64, 100
1, 8280, Note_on_c, 2, 59, 100
1, 8280, Note_on_c, 2, 52, 100
1, 8280, Note_on_c, 3, 40, 100
1, 8340, Note_on_c, 2, 52, 0
1, 8340, Note_on_c, 2, 59, 0
1, 8340, Note_on_c, 2, 64, 0
1, 8340, Note_on_c, 2, 71, 0
1, 8340, Note_on_c, 2, 68, 0
1, 8340, Note_on_c, 2, 71, 100
1, 8340, Note_on_c, 2, 68, 100
1, 8340, Note_on_c, 2, 64, 100
1, 8340, Note_on_c, 2, 59, 100
1, 8340, Note_on_c, 2, 52, 100
1, 8340, Note_on_c, 9, 36, 100
1, 8355, Note_on_c, 9, 36, 0
1, 8400, Note_on_c, 2, 59, 0
1, 8400, Note_on_c, 2, 71, 0
1, 8400, Note_on_c, 2, 68, 0
1, 8400, Note_on_c, 3, 40, 0
1, 8400, Note_on_c, 2, 52, 0
1, 8400, Note_on_c, 2, 64, 0
1, 8400, Note_on_c, 2, 59, 100
1, 8400, Note_on_c, 2, 52, 100
1, 8400, Note_on_c, 2, 68, 100
1, 8400, Note_on_c, 2, 64, 100
1, 8400, Note_on_c, 2, 71, 100
1, 8400, Note_on_c, 3, 40, 100
1, 8400, Note_on_c, 9, 46, 100
1, 8400, Note_on_c, 9, 38, 100
1, 8415, Note_on_c, 9, 38, 0
1, 8415, Note_on_c, 9, 46, 0
1, 8520, Note_on_c, 2, 71, 0
1, 8520, Note_on_c, 2, 52, 0
1, 8520, Note_on_c, 2, 68, 0
1, 8520, Note_on_c, 2, 64, 0
1, 8520, Note_on_c, 3, 40, 0
1, 8520, Note_on_c, 2, 59, 0
1, 8520, Note_on_c, 2, 64, 100
1, 8520, Note_on_c, 2, 59, 100
1, 8520, Note_on_c, 2, 71, 100
1, 8520, Note_on_c, 2, 68, 100
1, 8520, Note_on_c, 2, 52, 100
1, 8520, Note_on_c, 3, 45, 100
1, 8580, Note_on_c, 3, 45, 0
1, 8580, Note_on_c, 2, 59, 0
1, 8580, Note_on_c, 2, 71, 0
1, 8580, Note_on_c, 2, 64, 0
1, 8580, Note_on_c, 2, 52, 0
1, 8580, Note_on_c, 2, 68, 0
1, 8580, Note_on_c, 2, 52, 100
1, 8580, Note_on_c, 2, 71, 100
1, 8580, Note_on_c, 2, 68, 100
1, 8580, Note_on_c, 2, 64, 100
1, 8580, Note_on_c, 2, 59, 100
1, 8580, Note_on_c, 3, 46, 100
1, 8640, Marker_t, "chorus"
1, 8640, Note_on_c, 3, 46, 0
1, 8640, Note_on_c, 2, 71, 0
1, 8640, Note_on_c, 2, 68, 0
1, 8640, Note_on_c, 2, 52, 0
1, 8640, Note_on_c, 2, 59, 0
1, 8640, Note_on_c, 2, 64, 0
1, 8640, Note_on_c, 2, 71, 100
1, 8640, Note_on_c, 2, 67, 100
1, 8640, Note_on_c, 2, 62, 100
1, 8640, Note_on_c, 2, 59, 100
1, 8640, Note_on_c, 2, 52, 100
1, 8640, Note_on_c, 3, 47, 100
1, 8640, Note_on_c, 5, 71, 100
1, 8640, Note_on_c, 5, 59, 100
1, 8640, Note_on_c, 6, 71, 100
1, 8640, Note_on_c, 6, 67, 100
1, 8640, Note_on_c, 6, 62, 100
1, 8640, Note_on_c, 6, 55, 100
1, 8640, Note_on_c, 6, 43, 100
1, 8640, Note_on_c, 9, 42, 100
1, 8640, Note_on_c, 9, 36, 100
1, 8655, Note_on_c, 9, 36, 0
1, 8655, Note_on_c, 9, 42, 0
1, 8760, Note_on_c, 2, 52, 0
1, 8760, Note_on_c, 5, 71, 0
1, 8760, Note_on_c, 2, 59, 0
1, 8760, Note_on_c, 2, 71, 0
1, 8760, Note_on_c, 2, 62, 0
1, 8760, Note_on_c, 3, 47, 0
1, 8760, Note_on_c, 2, 67, 0
1, 8760, Note_on_c, 5, 59, 0
1, 8760, Note_on_c, 2, 71, 100
1, 8760, Note_on_c, 2, 67, 100
1, 8760, Note_on_c, 2, 62, 100
1, 8760, Note_on_c, 2, 59, 100
1, 8760, Note_on_c, 2, 52, 100
1, 8760, Note_on_c, 3, 45, 100
1, 8760, Note_on_c, 5, 69, 100
1, 8760, Note_on_c, 5, 57, 100
1, 8760, Note_on_c, 9, 42, 100
1, 8775, Note_on_c, 9, 42, 0
1, 8820, Note_on_c, 2, 59, 0
1, 8820, Note_on_c, 2, 67, 0
1, 8820, Note_on_c, 2, 62, 0
1, 8820, Note_on_c, 2, 52, 0
1, 8820, Note_on_c, 2, 71, 0
1, 8820, Note_on_c, 2, 71, 100
1, 8820, Note_on_c, 2, 67, 100
1, 8820, Note_on_c, 2, 62, 100
1, 8820, Note_on_c, 2, 59, 100
1, 8820, Note_on_c, 2, 52, 100
1, 8820, Note_on_c, 9, 36, 100
1, 8835, Note_on_c, 9, 36, 0
1, 8880, Note_on_c, 3, 45, 0
1, 8880, Note_on_c, 6, 62, 0
1, 8880, Note_on_c, 5, 57, 0
1, 8880, Note_on_c, 6, 67, 0
1, 8880, Note_on_c, 5, 69, 0
1, 8880, Note_on_c, 2, 67, 0
1, 8880, Note_on_c, 6, 71, 0
1, 8880, Note_on_c, 2, 59, 0
1, 8880, Note_on_c, 2, 62, 0
1, 8880, Note_on_c, 2, 71, 0
1, 8880, Note_on_c, 2, 52, 0
1, 8880, Note_on_c, 2, 71, 100
1, 8880, Note_on_c, 2, 67, 100
1, 8880, Note_on_c, 2, 62, 100
1, 8880, Note_on_c, 2, 59, 100
1, 8880, Note_on_c, 2, 52, 100
1, 8880, Note_on_c, 3, 43, 100
1, 8880, Note_on_c, 4, 79, 100
1, 8880, Note_on_c, 5, 67, 100
1, 8880, Note_on_c, 5, 55, 100
1, 8880, Note_on_c, 6, 62, 100
1, 8880, Note_on_c, 9, 42, 100
1, 8880, Note_on_c, 9, 38, 100
1, 8880, Note_on_c, 12, 79, 100
1, 8895, Note_on_c, 9, 38, 0
1, 8895, Note_on_c, 9, 42, 0
1, 8940, Note_on_c, 4, 79, 0
1, 8940, Note_on_c, 12, 79, 0
1, 8940, Note_on_c, 4, 79, 100
1, 8940, Note_on_c, 12, 79, 100
1, 9000, Note_on_c, 5, 55, 0
1, 9000, Note_on_c, 2, 52, 0
1, 9000, Note_on_c, 2, 67, 0
1, 9000, Note_on_c, 3, 43, 0
1, 9000, Note_on_c, 5, 67, 0
1, 9000, Note_on_c, 2, 71, 0
1, 9000, Note_on_c, 2, 59, 0
1, 9000, Note_on_c, 2, 62, 0
1, 9000, Note_on_c, 6, 62, 0
1, 9000, Note_on_c, 2, 71, 100
1, 9000, Note_on_c, 2, 67, 100
1, 9000, Note_on_c, 2, 62, 100
1, 9000, Note_on_c, 2, 59, 100
1, 9000, Note_on_c, 2, 52, 100
1, 9000, Note_on_c, 3, 38, 100
1, 9000, Note_on_c, 5, 62, 100
1, 9000, Note_on_c, 5, 50, 100
1, 9000, Note_on_c, 6, 71, 100
1, 9000, Note_on_c, 6, 67, 100
1, 9000, Note_on_c, 6, 62, 100
1, 9000, Note_on_c, 9, 42, 100
1, 9015, Note_on_c, 9, 42, 0
1, 9060, Note_on_c, 2, 52, 0
1, 9060, Note_on_c, 2, 59, 0
1, 9060, Note_on_c, 2, 62, 0
1, 9060, Note_on_c, 4, 79, 0
1, 9060, Note_on_c, 12, 79, 0
1, 9060, Note_on_c, 2, 67, 0
1, 9060, Note_on_c, 2, 71, 0
1, 9060, Note_on_c, 2, 71, 100
1, 9060, Note_on_c, 2, 67, 100
1, 9060, Note_on_c, 2, 62, 100
1, 9060, Note_on_c, 2, 59, 100
1, 9060, Note_on_c, 2, 52, 100
1, 9060, Note_on_c, 4, 79, 100
1, 9060, Note_on_c, 12, 79, 100
1, 9120, Note_on_c, 12, 79, 0
1, 9120, Note_on_c, 2, 59, 0
1, 9120, Note_on_c, 5, 62, 0
1, 9120, Note_on_c, 3, 38, 0
1, 9120, Note_on_c, 6, 71, 0
1, 9120, Note_on_c, 6, 62, 0
1, 9120, Note_on_c, 5, 50, 0
1, 9120, Note_on_c, 6, 67, 0
1, 9120, Note_on_c, 6, 43, 0
1, 9120, Note_on_c, 2, 52, 0
1, 9120, Note_on_c, 2, 62, 0
1, 9120, Note_on_c, 2, 71, 0
1, 9120, Note_on_c, 6, 55, 0
1, 9120, Note_on_c, 4, 79, 0
1, 9120, Note_on_c, 2, 67, 0
1, 9120, Note_on_c, 2, 47, 100
1, 9120, Note_on_c, 2, 57, 100
1, 9120, Note_on_c, 2, 54, 100
1, 9120, Note_on_c, 2, 66, 100
1, 9120, Note_on_c, 2, 62, 100
1, 9120, Note_on_c, 2, 71, 100
1, 9120, Note_on_c, 3, 42, 100
1, 9120, Note_on_c, 4, 78, 100
1, 9120, Note_on_c, 5, 66, 100
1, 9120, Note_on_c, 5, 54, 100
1, 9120, Note_on_c, 6, 69, 100
1, 9120, Note_on_c, 6, 66, 100
1, 9120, Note_on_c, 6, 62, 100
1, 9120, Note_on_c, 6, 47, 100
1, 9120, Note_on_c, 6, 35, 100
1, 9120, Note_on_c, 9, 42, 100
1, 9120, Note_on_c, 9, 36, 100
1, 9120, Note_on_c, 12, 78, 100
1, 9135, Note_on_c, 9, 36, 0
1, 9135, Note_on_c, 9, 42, 0
1, 9240, Note_on_c, 3, 42, 0
1, 9240, Note_on_c, 2, 47, 0
1, 9240, Note_on_c, 2, 66, 0
1, 9240, Note_on_c, 12, 78, 0
1, 9240, Note_on_c, 5, 66, 0
1, 9240, Note_on_c, 5, 54, 0
1, 9240, Note_on_c, 4, 78, 0
1, 9240, Note_on_c, 2, 54, 0
1, 9240, Note_on_c, 2, 71, 0
1, 9240, Note_on_c, 2, 57, 0
1, 9240, Note_on_c, 2, 62, 0
1, 9240, Note_on_c, 2, 66, 100
1, 9240, Note_on_c, 2, 57, 100
1, 9240, Note_on_c, 2, 62, 100
1, 9240, Note_on_c, 2, 54, 100
1, 9240, Note_on_c, 2, 71, 100
1, 9240, Note_on_c, 2, 47, 100
1, 9240, Note_on_c, 3, 38, 100
1, 9240, Note_on_c, 4, 76, 100
1, 9240, Note_on_c, 5, 62, 100
1, 9240, Note_on_c, 5, 50, 100
1, 9240, Note_on_c, 9, 42, 100
1, 9240, Note_on_c, 12, 76, 100
1, 9255, Note_on_c, 9, 42, 0
1, 9300, Note_on_c, 2, 57, 0
1, 9300, Note_on_c, 12, 76, 0
1, 9300, Note_on_c, 4, 76, 0
1, 9300, Note_on_c, 2, 71, 0
1, 9300, Note_on_c, 2, 54, 0
1, 9300, Note_on_c, 2, 62, 0
1, 9300, Note_on_c, 2, 47, 0
1, 9300, Note_on_c, 2, 66, 0
1, 9300, Note_on_c, 2, 47, 100
1, 9300, Note_on_c, 2, 57, 100
1, 9300, Note_on_c, 2, 54, 100
1, 9300, Note_on_c, 2, 62, 100
1, 9300, Note_on_c, 2, 66, 100
1, 9300, Note_on_c, 2, 71, 100
1, 9300, Note_on_c, 4, 74, 100
1, 9300, Note_on_c, 9, 36, 100
1, 9300, Note_on_c, 12, 74, 100
1, 9315, Note_on_c, 9, 36, 0
1, 9360, Note_on_c, 3, 38, 0
1, 9360, Note_on_c, 12, 74, 0
1, 9360, Note_on_c, 2, 62, 0
1, 9360, Note_on_c, 5, 50, 0
1, 9360, Note_on_c, 6, 47, 0
1, 9360, Note_on_c, 4, 74, 0
1, 9360, Note_on_c, 5, 62, 0
1, 9360, Note_on_c, 2, 57, 0
1, 9360, Note_on_c, 2, 47, 0
1, 9360, Note_on_c, 2, 71, 0
1, 9360, Note_on_c, 2, 66, 0
1, 9360, Note_on_c, 2, 54, 0
1, 9360, Note_on_c, 2, 57, 100
1, 9360, Note_on_c, 2, 66, 100
1, 9360, Note_on_c, 2, 54, 100
1, 9360, Note_on_c, 2, 62, 100
1, 9360, Note_on_c, 2, 47, 100
1, 9360, Note_on_c, 2, 71, 100
1, 9360, Note_on_c, 3, 35, 100
1, 9360, Note_on_c, 4, 76, 100
1, 9360, Note_on_c, 5, 59, 100
1, 9360, Note_on_c, 5, 47, 100
1, 9360, Note_on_c, 6, 47, 100
1, 9360, Note_on_c, 9, 46, 100
1, 9360, Note_on_c, 9, 38, 100
1, 9360, Note_on_c, 12, 76, 100
1, 9375, Note_on_c, 9, 38, 0
1, 9375, Note_on_c, 9, 46, 0
1, 9420, Note_on_c, 6, 66, 0
1, 9420, Note_on_c, 6, 62, 0
1, 9420, Note_on_c, 6, 69, 0
1, 9420, Note_on_c, 6, 69, 100
1, 9420, Note_on_c, 6, 66, 100
1, 9420, Note_on_c, 6, 62, 100
1, 9480, Note_on_c, 2, 66, 0
1, 9480, Note_on_c, 2, 62, 0
1, 9480, Note_on_c, 2, 47, 0
1, 9480, Note_on_c, 12, 76, 0
1, 9480, Note_on_c, 2, 54, 0
1, 9480, Note_on_c, 3, 35, 0
1, 9480, Note_on_c, 2, 57, 0
1, 9480, Note_on_c, 2, 71, 0
1, 9480, Note_on_c, 5, 47, 0
1, 9480, Note_on_c, 4, 76, 0
1, 9480, Note_on_c, 5, 59, 0
1, 9480, Note_on_c, 2, 71, 100
1, 9480, Note_on_c, 2, 62, 100
1, 9480, Note_on_c, 2, 66, 100
1, 9480, Note_on_c, 2, 52, 100
1, 9480, Note_on_c, 2, 59, 100
1, 9480, Note_on_c, 3, 38, 100
1, 9480, Note_on_c, 4, 76, 100
1, 9480, Note_on_c, 5, 62, 100
1, 9480, Note_on_c, 5, 50, 100
1, 9480, Note_on_c, 12, 76, 100
1, 9540, Note_on_c, 2, 59, 0
1, 9540, Note_on_c, 2, 52, 0
1, 9540, Note_on_c, 2, 62, 0
1, 9540, Note_on_c, 2, 66, 0
1, 9540, Note_on_c, 2, 71, 0
1, 9540, Note_on_c, 2, 66, 100
1, 9540, Note_on_c, 2, 71, 100
1, 9540, Note_on_c, 2, 52, 100
1, 9540, Note_on_c, 2, 62, 100
1, 9540, Note_on_c, 2, 59, 100
1, 9600, Note_on_c, 2, 59, 0
1, 9600, Note_on_c, 2, 71, 0
1, 9600, Note_on_c, 12, 76, 0
1, 9600, Note_on_c, 6, 62, 0
1, 9600, Note_on_c, 5, 62, 0
1, 9600, Note_on_c, 6, 47, 0
1, 9600, Note_on_c, 6, 35, 0
1, 9600, Note_on_c, 6, 69, 0
1, 9600, Note_on_c, 6, 66, 0
1, 9600, Note_on_c, 2, 52, 0
1, 9600, Note_on_c, 2, 66, 0
1, 9600, Note_on_c, 4, 76, 0
1, 9600, Note_on_c, 5, 50, 0
1, 9600, Note_on_c, 2, 62, 0
1, 9600, Note_on_c, 3, 38, 0
1, 9600, Note_on_c, 2, 52, 100
1, 9600, Note_on_c, 2, 71, 100
1, 9600, Note_on_c, 2, 59, 100
1, 9600, Note_on_c, 2, 68, 100
1, 9600, Note_on_c, 2, 64, 100
1, 9600, Note_on_c, 3, 40, 100
1, 9600, Note_on_c, 4, 76, 100
1, 9600, Note_on_c, 5, 64, 100
1, 9600, Note_on_c, 5, 52, 100
1, 9600, Note_on_c, 6, 68, 100
1, 9600, Note_on_c, 6, 64, 100
1, 9600, Note_on_c, 6, 59, 100
1, 9600, Note_on_c, 6, 52, 100
1, 9600, Note_on_c, 6, 40, 100
1, 9600, Note_on_c, 9, 42, 100
1, 9600, Note_on_c, 9, 36, 100
1, 9600, Note_on_c, 12, 76, 100
1, 9615, Note_on_c, 9, 36, 0
1, 9615, Note_on_c, 9, 42, 0
1, 9720, Note_on_c, 2, 68, 0
1, 9720, Note_on_c, 2, 52, 0
1, 9720, Note_on_c, 2, 59, 0
1, 9720, Note_on_c, 2, 64, 0
1, 9720, Note_on_c, 2, 71, 0
1, 9720, Note_on_c, 2, 59, 100
1, 9720, Note_on_c, 2, 52, 100
1, 9720, Note_on_c, 2, 68, 100
1, 9720, Note_on_c, 2, 71, 100
1, 9720, Note_on_c, 2, 64, 100
1, 9720, Note_on_c, 9, 42, 100
1, 9735, Note_on_c, 9, 42, 0
1, 9780, Note_on_c, 2, 64, 0
1, 9780, Note_on_c, 2, 52, 0
1, 9780, Note_on_c, 3, 40, 0
1, 9780, Note_on_c, 2, 71, 0
1, 9780, Note_on_c, 2, 59, 0
1, 9780, Note_on_c, 2, 68, 0
1, 9780, Note_on_c, 2, 71, 100
1, 9780, Note_on_c, 2, 68, 100
1, 9780, Note_on_c, 2, 52, 100
1, 9780, Note_on_c, 2, 59, 100
1, 9780, Note_on_c, 2, 64, 100
1, 9780, Note_on_c, 3, 40, 100
1, 9780, Note_on_c, 9, 36, 100
1, 9795, Note_on_c, 9, 36, 0
1, 9840, Note_on_c, 3, 40, 0
1, 9840, Note_on_c, 2, 52, 0
1, 9840, Note_on_c, 2, 71, 0
1, 9840, Note_on_c, 6, 40, 0
1, 9840, Note_on_c, 6, 52, 0
1, 9840, Note_on_c, 5, 64, 0
1, 9840, Note_on_c, 4, 76, 0
1, 9840, Note_on_c, 5, 52, 0
1, 9840, Note_on_c, 12, 76, 0
1, 9840, Note_on_c, 2, 59, 0
1, 9840, Note_on_c, 2, 68, 0
1, 9840, Note_on_c, 2, 64, 0
1, 9840, Note_on_c, 2, 52, 100
1, 9840, Note_on_c, 2, 71, 100
1, 9840, Note_on_c, 2, 59, 100
1, 9840, Note_on_c, 2, 68, 100
1, 9840, Note_on_c, 2, 64, 100
1, 9840, Note_on_c, 3, 40, 100
1, 9840, Note_on_c, 4, 78, 100
1, 9840, Note_on_c, 6, 52, 100
1, 9840, Note_on_c, 6, 40, 100
1, 9840, Note_on_c, 9, 42, 100
1, 9840, Note_on_c, 9, 38, 100
1, 9840, Note_on_c, 12, 78, 100
1, 9855, Note_on_c, 9, 38, 0
1, 9855, Note_on_c, 9, 42, 0
1, 9960, Note_on_c, 2, 71, 0
1, 9960, Note_on_c, 6, 68, 0
1, 9960, Note_on_c, 3, 40, 0
1, 9960, Note_on_c, 2, 68, 0
1, 9960, Note_on_c, 6, 59, 0
1, 9960, Note_on_c, 6, 64, 0
1, 9960, Note_on_c, 2, 52, 0
1, 9960, Note_on_c, 12, 78, 0
1, 9960, Note_on_c, 2, 59, 0
1, 9960, Note_on_c, 2, 64, 0
1, 9960, Note_on_c, 4, 78, 0
1, 9960, Note_on_c, 2, 59, 100
1, 9960, Note_on_c, 2, 52, 100
1, 9960, Note_on_c, 2, 68, 100
1, 9960, Note_on_c, 2, 71, 100
1, 9960, Note_on_c, 2, 64, 100
1, 9960, Note_on_c, 3, 35, 100
1, 9960, Note_on_c, 6, 68, 100
1, 9960, Note_on_c, 6, 64, 100
1, 9960, Note_on_c, 6, 59, 100
1, 9960, Note_on_c, 9, 42, 100
1, 9975, Note_on_c, 9, 42, 0
1, 10020, Note_on_c, 2, 64, 0
1, 10020, Note_on_c, 2, 52, 0
1, 10020, Note_on_c, 2, 59, 0
1, 10020, Note_on_c, 3, 35, 0
1, 10020, Note_on_c, 2, 71, 0
1, 10020, Note_on_c, 2, 68, 0
1, 10020, Note_on_c, 2, 71, 100
1, 10020, Note_on_c, 2, 68, 100
1, 10020, Note_on_c, 2, 52, 100
1, 10020, Note_on_c, 2, 59, 100
1, 10020, Note_on_c, 2, 64, 100
1, 10020, Note_on_c, 3, 38, 100
1, 10080, Note_on_c, 3, 38, 0
1, 10080, Note_on_c, 2, 52, 0
1, 10080, Note_on_c, 2, 64, 0
1, 10080, Note_on_c, 2, 68, 0
1, 10080, Note_on_c, 6, 40, 0
1, 10080, Note_on_c, 6, 52, 0
1, 10080, Note_on_c, 2, 59, 0
1, 10080, Note_on_c, 2, 71, 0
1, 10080, Note_on_c, 2, 52, 100
1, 10080, Note_on_c, 2, 71, 100
1, 10080, Note_on_c, 2, 59, 100
1, 10080, Note_on_c, 2, 68, 100
1, 10080, Note_on_c, 2, 64, 100
1, 10080, Note_on_c, 3, 40, 100
1, 10080, Note_on_c, 6, 52, 100
1, 10080, Note_on_c, 6, 40, 100
1, 10080, Note_on_c, 9, 42, 100
1, 10080, Note_on_c, 9, 36, 100
1, 10095, Note_on_c, 9, 36, 0
1, 10095, Note_on_c, 9, 42, 0
1, 10140, Note_on_c, 6, 64, 0
1, 10140, Note_on_c, 6, 68, 0
1, 10140, Note_on_c, 6, 59, 0
1, 10140, Note_on_c, 6, 69, 100
1, 10140, Note_on_c, 6, 64, 100
1, 10140, Note_on_c, 6, 59, 100
1, 10140, Note_on_c, 9, 38, 100
1, 10155, Note_on_c, 9, 38, 0
1, 10200, Note_on_c, 2, 64, 0
1, 10200, Note_on_c, 2, 52, 0
1, 10200, Note_on_c, 2, 71, 0
1, 10200, Note_on_c, 2, 59, 0
1, 10200, Note_on_c, 2, 68, 0
1, 10200, Note_on_c, 2, 59, 100
1, 10200, Note_on_c, 2, 52, 100
1, 10200, Note_on_c, 2, 68, 100
1, 10200, Note_on_c, 2, 71, 100
1, 10200, Note_on_c, 2, 64, 100
1, 10200, Note_on_c, 9, 42, 100
1, 10215, Note_on_c, 9, 42, 0
1, 10260, Note_on_c, 2, 71, 0
1, 10260, Note_on_c, 2, 52, 0
1, 10260, Note_on_c, 6, 59, 0
1, 10260, Note_on_c, 2, 59, 0
1, 10260, Note_on_c, 3, 40, 0
1, 10260, Note_on_c, 6, 69, 0
1, 10260, Note_on_c, 6, 64, 0
1, 10260, Note_on_c, 2, 68, 0
1, 10260, Note_on_c, 2, 64, 0
1, 10260, Note_on_c, 2, 71, 100
1, 10260, Note_on_c, 2, 68, 100
1, 10260, Note_on_c, 2, 52, 100
1, 10260, Note_on_c, 2, 59, 100
1, 10260, Note_on_c, 2, 64, 100
1, 10260, Note_on_c, 3, 40, 100
1, 10260, Note_on_c, 6, 59, 100
1, 10260, Note_on_c, 9, 36, 100
1, 10275, Note_on_c, 9, 36, 0
1, 10320, Note_on_c, 2, 71, 0
1, 10320, Note_on_c, 3, 40, 0
1, 10320, Note_on_c, 2, 68, 0
1, 10320, Note_on_c, 2, 52, 0
1, 10320, Note_on_c, 6, 40, 0
1, 10320, Note_on_c, 2, 64, 0
1, 10320, Note_on_c, 6, 52, 0
1, 10320, Note_on_c, 2, 59, 0
1, 10320, Note_on_c, 2, 52, 100
1, 10320, Note_on_c, 2, 71, 100
1, 10320, Note_on_c, 2, 59, 100
1, 10320, Note_on_c, 2, 68, 100
1, 10320, Note_on_c, 2, 64, 100
1, 10320, Note_on_c, 3, 40, 100
1, 10320, Note_on_c, 6, 68, 100
1, 10320, Note_on_c, 6, 64, 100
1, 10320, Note_on_c, 6, 52, 100
1, 10320, Note_on_c, 6, 40, 100
1, 10320, Note_on_c, 9, 46, 100
1, 10320, Note_on_c, 9, 38, 100
1, 10335, Note_on_c, 9, 38, 0
1, 10335, Note_on_c, 9, 46, 0
1, 10440, Note_on_c, 2, 52, 0
1, 10440, Note_on_c, 2, 59, 0
1, 10440, Note_on_c, 2, 71, 0
1, 10440, Note_on_c, 2, 64, 0
1, 10440, Note_on_c, 3, 40, 0
1, 10440, Note_on_c, 2, 68, 0
1, 10440, Note_on_c, 2, 59, 100
1, 10440, Note_on_c, 2, 52, 100
1, 10440, Note_on_c, 2, 68, 100
1, 10440, Note_on_c, 2, 71, 100
1, 10440, Note_on_c, 2, 64, 100
1, 10440, Note_on_c, 3, 45, 100
1, 10500, Note_on_c, 3, 45, 0
1, 10500, Note_on_c, 2, 68, 0
1, 10500, Note_on_c, 2, 64, 0
1, 10500, Note_on_c, 2, 52, 0
1, 10500, Note_on_c, 2, 71, 0
1, 10500, Note_on_c, 2, 59, 0
1, 10500, Note_on_c, 2, 71, 100
1, 10500, Note_on_c, 2, 68, 100
1, 10500, Note_on_c, 2, 52, 100
1, 10500, Note_on_c, 2, 59, 100
1, 10500, Note_on_c, 2, 64, 100
1, 10500, Note_on_c, 3, 46, 100
1, 10560, Note_on_c, 3, 46, 0
1, 10560, Note_on_c, 2, 52, 0
1, 10560, Note_on_c, 6, 52, 0
1, 10560, Note_on_c, 6, 64, 0
1, 10560, Note_on_c, 6, 40, 0
1, 10560, Note_on_c, 6, 59, 0
1, 10560, Note_on_c, 6, 68, 0
1, 10560, Note_on_c, 2, 59, 0
1, 10560, Note_on_c, 2, 68, 0
1, 10560, Note_on_c, 2, 71, 0
1, 10560, Note_on_c, 2, 64, 0
1, 10560, Note_on_c, 2, 71, 100
1, 10560, Note_on_c, 2, 67, 100
1, 10560, Note_on_c, 2, 62, 100
1, 10560, Note_on_c, 2, 59, 100
1, 10560, Note_on_c, 2, 52, 100
1, 10560, Note_on_c, 3, 47, 100
1, 10560, Note_on_c, 5, 59, 100
1, 10560, Note_on_c, 5, 71, 100
1, 10560, Note_on_c, 6, 71, 100
1, 10560, Note_on_c, 6, 67, 100
1, 10560, Note_on_c, 6, 62, 100
1, 10560, Note_on_c, 6, 55, 100
1, 10560, Note_on_c, 6, 43, 100
1, 10560, Note_on_c, 9, 42, 100
1, 10560, Note_on_c, 9, 36, 100
1, 10575, Note_on_c, 9, 36, 0
1, 10575, Note_on_c, 9, 42, 0
1, 10680, Note_on_c, 2, 52, 0
1, 10680, Note_on_c, 5, 59, 0
1, 10680, Note_on_c, 2, 59, 0
1, 10680, Note_on_c, 2, 71, 0
1, 10680, Note_on_c, 2, 62, 0
1, 10680, Note_on_c, 3, 47, 0
1, 10680, Note_on_c, 2, 67, 0
1, 10680, Note_on_c, 5, 71, 0
1, 10680, Note_on_c, 2, 71, 100
1, 10680, Note_on_c, 2, 67, 100
1, 10680, Note_on_c, 2, 62, 100
1, 10680, Note_on_c, 2, 59, 100
1, 10680, Note_on_c, 2, 52, 100
1, 10680, Note_on_c, 3, 45, 100
1, 10680, Note_on_c, 5, 57, 100
1, 10680, Note_on_c, 5, 69, 100
1, 10680, Note_on_c, 9, 42, 100
1, 10695, Note_on_c, 9, 42, 0
1, 10740, Note_on_c, 2, 59, 0
1, 10740, Note_on_c, 2, 67, 0
1, 10740, Note_on_c, 2, 62, 0
1, 10740, Note_on_c, 2, 52, 0
1, 10740, Note_on_c, 2, 71, 0
1, 10740, Note_on_c, 2, 71, 100
1, 10740, Note_on_c, 2, 67, 100
1, 10740, Note_on_c, 2, 62, 100
1, 10740, Note_on_c, 2, 59, 100
1, 10740, Note_on_c, 2, 52, 100
1, 10740, Note_on_c, 9, 36, 100
1, 10755, Note_on_c, 9, 36, 0
1, 10800, Note_on_c, 3, 45, 0
1, 10800, Note_on_c, 6, 62, 0
1, 10800, Note_on_c, 5, 69, 0
1, 10800, Note_on_c, 6, 67, 0
1, 10800, Note_on_c, 5, 57, 0
1, 10800, Note_on_c, 2, 67, 0
1, 10800, Note_on_c, 6, 71, 0
1, 10800, Note_on_c, 2, 59, 0
1, 10800, Note_on_c, 2, 62, 0
1, 10800, Note_on_c, 2, 71, 0
1, 10800, Note_on_c, 2, 52, 0
1, 10800, Note_on_c, 2, 71, 100
1, 10800, Note_on_c, 2, 67, 100
1, 10800, Note_on_c, 2, 62, 100
1, 10800, Note_on_c, 2, 59, 100
1, 10800, Note_on_c, 2, 52, 100
1, 10800, Note_on_c, 3, 43, 100
1, 10800, Note_on_c, 4, 79, 100
1, 10800, Note_on_c, 5, 55, 100
1, 10800, Note_on_c, 5, 67, 100
1, 10800, Note_on_c, 6, 62, 100
1, 10800, Note_on_c, 9, 42, 100
1, 10800, Note_on_c, 9, 38, 100
1, 10800, Note_on_c, 12, 79, 100
1, 10815, Note_on_c, 9, 38, 0
1, 10815, Note_on_c, 9, 42, 0
1, 10860, Note_on_c, 4, 79, 0
1, 10860, Note_on_c, 12, 79, 0
1, 10860, Note_on_c, 4, 79, 100
1, 10860, Note_on_c, 12, 79, 100
1, 10920, Note_on_c, 5, 67, 0
1, 10920, Note_on_c, 2, 52, 0
1, 10920, Note_on_c, 2, 67, 0
1, 10920, Note_on_c, 3, 43, 0
1, 10920, Note_on_c, 5, 55, 0
1, 10920, Note_on_c, 2, 71, 0
1, 10920, Note_on_c, 2, 59, 0
1, 10920, Note_on_c, 2, 62, 0
1, 10920, Note_on_c, 6, 62, 0
1, 10920, Note_on_c, 2, 71, 100
1, 10920, Note_on_c, 2, 67, 100
1, 10920, Note_on_c, 2, 62, 100
1, 10920, Note_on_c, 2, 59, 100
1, 10920, Note_on_c, 2, 52, 100
1, 10920, Note_on_c, 3, 38, 100
1, 10920, Note_on_c, 5, 50, 100
1, 10920, Note_on_c, 5, 62, 100
1, 10920, Note_on_c, 6, 71, 100
1, 10920, Note_on_c, 6, 67, 100
1, 10920, Note_on_c, 6, 62, 100
1, 10920, Note_on_c, 9, 42, 100
1, 10935, Note_on_c, 9, 42, 0
1, 10980, Note_on_c, 2, 52, 0
1, 10980, Note_on_c, 2, 59, 0
1, 10980, Note_on_c, 2, 62, 0
1, 10980, Note_on_c, 2, 67, 0
1, 10980, Note_on_c, 2, 71, 0
1, 10980, Note_on_c, 2, 71, 100
1, 10980, Note_on_c, 2, 67, 100
1, 10980, Note_on_c, 2, 62, 100
1, 10980, Note_on_c, 2, 59, 100
1, 10980, Note_on_c, 2, 52, 100
1, 11040, Note_on_c, 2, 52, 0
1, 11040, Note_on_c, 2, 67, 0
1, 11040, Note_on_c, 5, 62, 0
1, 11040, Note_on_c, 6, 55, 0
1, 11040, Note_on_c, 6, 71, 0
1, 11040, Note_on_c, 5, 50, 0
1, 11040, Note_on_c, 6, 43, 0
1, 11040, Note_on_c, 4, 79, 0
1, 11040, Note_on_c, 12, 79, 0
1, 11040, Note_on_c, 2, 62, 0
1, 11040, Note_on_c, 2, 71, 0
1, 11040, Note_on_c, 6, 67, 0
1, 11040, Note_on_c, 6, 62, 0
1, 11040, Note_on_c, 2, 59, 0
1, 11040, Note_on_c, 3, 38, 0
1, 11040, Note_on_c, 2, 47, 100
1, 11040, Note_on_c, 2, 57, 100
1, 11040, Note_on_c, 2, 54, 100
1, 11040, Note_on_c, 2, 66, 100
1, 11040, Note_on_c, 2, 62, 100
1, 11040, Note_on_c, 2, 71, 100
1, 11040, Note_on_c, 3, 42, 100
1, 11040, Note_on_c, 4, 78, 100
1, 11040, Note_on_c, 5, 54, 100
1, 11040, Note_on_c, 5, 66, 100
1, 11040, Note_on_c, 6, 69, 100
1, 11040, Note_on_c, 6, 66, 100
1, 11040, Note_on_c, 6, 62, 100
1, 11040, Note_on_c, 6, 47, 100
1, 11040, Note_on_c, 6, 35, 100
1, 11040, Note_on_c, 9, 42, 100
1, 11040, Note_on_c, 9, 36, 100
1, 11040, Note_on_c, 12, 78, 100
1, 11055, Note_on_c, 9, 36, 0
1, 11055, Note_on_c, 9, 42, 0
1, 11130, Note_on_c, 12, 78, 0
1, 11130, Note_on_c, 4, 78, 0
1, 11130, Note_on_c, 4, 76, 100
1, 11130, Note_on_c, 12, 76, 100
1, 11160, Note_on_c, 2, 47, 0
1, 11160, Note_on_c, 3, 42, 0
1, 11160, Note_on_c, 5, 66, 0
1, 11160, Note_on_c, 2, 66, 0
1, 11160, Note_on_c, 5, 54, 0
1, 11160, Note_on_c, 2, 54, 0
1, 11160, Note_on_c, 2, 71, 0
1, 11160, Note_on_c, 2, 57, 0
1, 11160, Note_on_c, 2, 62, 0
1, 11160, Note_on_c, 2, 66, 100
1, 11160, Note_on_c, 2, 57, 100
1, 11160, Note_on_c, 2, 62, 100
1, 11160, Note_on_c, 2, 54, 100
1, 11160, Note_on_c, 2, 71, 100
1, 11160, Note_on_c, 2, 47, 100
1, 11160, Note_on_c, 3, 38, 100
1, 11160, Note_on_c, 5, 50, 100
1, 11160, Note_on_c, 5, 62, 100
1, 11160, Note_on_c, 9, 42, 100
1, 11175, Note_on_c, 9, 42, 0
1, 11220, Note_on_c, 2, 47, 0
1, 11220, Note_on_c, 2, 62, 0
1, 11220, Note_on_c, 2, 57, 0
1, 11220, Note_on_c, 2, 66, 0
1, 11220, Note_on_c, 2, 71, 0
1, 11220, Note_on_c, 2, 54, 0
1, 11220, Note_on_c, 2, 47, 100
1, 11220, Note_on_c, 2, 57, 100
1, 11220, Note_on_c, 2, 54, 100
1, 11220, Note_on_c, 2, 62, 100
1, 11220, Note_on_c, 2, 66, 100
1, 11220, Note_on_c, 2, 71, 100
1, 11220, Note_on_c, 9, 36, 100
1, 11235, Note_on_c, 9, 36, 0
1, 11280, Note_on_c, 12, 76, 0
1, 11280, Note_on_c, 2, 71, 0
1, 11280, Note_on_c, 2, 57, 0
1, 11280, Note_on_c, 2, 66, 0
1, 11280, Note_on_c, 5, 50, 0
1, 11280, Note_on_c, 4, 76, 0
1, 11280, Note_on_c, 3, 38, 0
1, 11280, Note_on_c, 5, 62, 0
1, 11280, Note_on_c, 6, 47, 0
1, 11280, Note_on_c, 2, 62, 0
1, 11280, Note_on_c, 2, 54, 0
1, 11280, Note_on_c, 2, 47, 0
1, 11280, Note_on_c, 2, 57, 100
1, 11280, Note_on_c, 2, 66, 100
1, 11280, Note_on_c, 2, 54, 100
1, 11280, Note_on_c, 2, 62, 100
1, 11280, Note_on_c, 2, 47, 100
1, 11280, Note_on_c, 2, 71, 100
1, 11280, Note_on_c, 3, 35, 100
1, 11280, Note_on_c, 4, 74, 100
1, 11280, Note_on_c, 5, 47, 100
1, 11280, Note_on_c, 5, 59, 100
1, 11280, Note_on_c, 6, 47, 100
1, 11280, Note_on_c, 9, 46, 100
1, 11280, Note_on_c, 9, 38, 100
1, 11280, Note_on_c, 12, 74, 100
1, 11295, Note_on_c, 9, 38, 0
1, 11295, Note_on_c, 9, 46, 0
1, 11340, Note_on_c, 12, 74, 0
1, 11340, Note_on_c, 6, 66, 0
1, 11340, Note_on_c, 6, 62, 0
1, 11340, Note_on_c, 4, 74, 0
1, 11340, Note_on_c, 6, 69, 0
1, 11340, Note_on_c, 4, 76, 100
1, 11340, Note_on_c, 6, 69, 100
1, 11340, Note_on_c, 6, 66, 100
1, 11340, Note_on_c, 6, 62, 100
1, 11340, Note_on_c, 12, 76, 100
1, 11400, Note_on_c, 2, 66, 0
1, 11400, Note_on_c, 2, 47, 0
1, 11400, Note_on_c, 2, 62, 0
1, 11400, Note_on_c, 3, 35, 0
1, 11400, Note_on_c, 2, 57, 0
1, 11400, Note_on_c, 2, 71, 0
1, 11400, Note_on_c, 2, 54, 0
1, 11400, Note_on_c, 5, 47, 0
1, 11400, Note_on_c, 5, 59, 0
1, 11400, Note_on_c, 2, 71, 100
1, 11400, Note_on_c, 2, 62, 100
1, 11400, Note_on_c, 2, 66, 100
1, 11400, Note_on_c, 2, 52, 100
1, 11400, Note_on_c, 2, 59, 100
1, 11400, Note_on_c, 3, 38, 100
1, 11400, Note_on_c, 5, 50, 100
1, 11400, Note_on_c, 5, 62, 100
1, 11460, Note_on_c, 2, 59, 0
1, 11460, Note_on_c, 2, 66, 0
1, 11460, Note_on_c, 2, 62, 0
1, 11460, Note_on_c, 2, 71, 0
1, 11460, Note_on_c, 2, 52, 0
1, 11460, Note_on_c, 2, 66, 100
1, 11460, Note_on_c, 2, 71, 100
1, 11460, Note_on_c, 2, 52, 100
1, 11460, Note_on_c, 2, 62, 100
1, 11460, Note_on_c, 2, 59, 100
1, 11520, Note_on_c, 2, 59, 0
1, 11520, Note_on_c, 2, 71, 0
1, 11520, Note_on_c, 5, 62, 0
1, 11520, Note_on_c, 3, 38, 0
1, 11520, Note_on_c, 5, 50, 0
1, 11520, Note_on_c, 6, 62, 0
1, 11520, Note_on_c, 6, 69, 0
1, 11520, Note_on_c, 6, 47, 0
1, 11520, Note_on_c, 6, 35, 0
1, 11520, Note_on_c, 2, 52, 0
1, 11520, Note_on_c, 2, 66, 0
1, 11520, Note_on_c, 6, 66, 0
1, 11520, Note_on_c, 2, 62, 0
1, 11520, Note_on_c, 2, 52, 100
1, 11520, Note_on_c, 2, 71, 100
1, 11520, Note_on_c, 2, 59, 100
1, 11520, Note_on_c, 2, 68, 100
1, 11520, Note_on_c, 2, 64, 100
1, 11520, Note_on_c, 3, 40, 100
1, 11520, Note_on_c, 5, 52, 100
1, 11520, Note_on_c, 5, 64, 100
1, 11520, Note_on_c, 6, 68, 100
1, 11520, Note_on_c, 6, 64, 100
1, 11520, Note_on_c, 6, 59, 100
1, 11520, Note_on_c, 6, 52, 100
1, 11520, Note_on_c, 6, 40, 100
1, 11520, Note_on_c, 9, 42, 100
1, 11520, Note_on_c, 9, 36, 100
1, 11535, Note_on_c, 9, 36, 0
1, 11535, Note_on_c, 9, 42, 0
1, 11580, Note_on_c, 4, 76, 0
1, 11580, Note_on_c, 12, 76, 0
1, 11580, Note_on_c, 4, 71, 100
1, 11580, Note_on_c, 12, 71, 100
1, 11640, Note_on_c, 2, 71, 0
1, 11640, Note_on_c, 2, 59, 0
1, 11640, Note_on_c, 2, 64, 0
1, 11640, Note_on_c, 2, 52, 0
1, 11640, Note_on_c, 2, 68, 0
1, 11640, Note_on_c, 2, 59, 100
1, 11640, Note_on_c, 2, 52, 100
1, 11640, Note_on_c, 2, 68, 100
1, 11640, Note_on_c, 2, 71, 100
1, 11640, Note_on_c, 2, 64, 100
1, 11640, Note_on_c, 9, 42, 100
1, 11655, Note_on_c, 9, 42, 0
1, 11700, Note_on_c, 2, 64, 0
1, 11700, Note_on_c, 2, 52, 0
1, 11700, Note_on_c, 12, 71, 0
1, 11700, Note_on_c, 4, 71, 0
1, 11700, Note_on_c, 3, 40, 0
1, 11700, Note_on_c, 2, 71, 0
1, 11700, Note_on_c, 2, 59, 0
1, 11700, Note_on_c, 2, 68, 0
1, 11700, Note_on_c, 2, 71, 100
1, 11700, Note_on_c, 2, 68, 100
1, 11700, Note_on_c, 2, 52, 100
1, 11700, Note_on_c, 2, 59, 100
1, 11700, Note_on_c, 2, 64, 100
1, 11700, Note_on_c, 3, 40, 100
1, 11700, Note_on_c, 4, 69, 100
1, 11700, Note_on_c, 9, 36, 100
1, 11700, Note_on_c, 12, 69, 100
1, 11715, Note_on_c, 9, 36, 0
1, 11760, Note_on_c, 12, 69, 0
1, 11760, Note_on_c, 2, 64, 0
1, 11760, Note_on_c, 2, 52, 0
1, 11760, Note_on_c, 6, 52, 0
1, 11760, Note_on_c, 6, 40, 0
1, 11760, Note_on_c, 2, 71, 0
1, 11760, Note_on_c, 5, 64, 0
1, 11760, Note_on_c, 5, 52, 0
1, 11760, Note_on_c, 2, 68, 0
1, 11760, Note_on_c, 3, 40, 0
1, 11760, Note_on_c, 2, 59, 0
1, 11760, Note_on_c, 4, 69, 0
1, 11760, Note_on_c, 2, 52, 100
1, 11760, Note_on_c, 2, 71, 100
1, 11760, Note_on_c, 2, 59, 100
1, 11760, Note_on_c, 2, 68, 100
1, 11760, Note_on_c, 2, 64, 100
1, 11760, Note_on_c, 3, 40, 100
1, 11760, Note_on_c, 4, 68, 100
1, 11760, Note_on_c, 6, 52, 100
1, 11760, Note_on_c, 6, 40, 100
1, 11760, Note_on_c, 9, 42, 100
1, 11760, Note_on_c, 9, 38, 100
1, 11760, Note_on_c, 12, 68, 100
1, 11775, Note_on_c, 9, 38, 0
1, 11775, Note_on_c, 9, 42, 0
1, 11880, Note_on_c, 2, 71, 0
1, 11880, Note_on_c, 6, 59, 0
1, 11880, Note_on_c, 3, 40, 0
1, 11880, Note_on_c, 2, 68, 0
1, 11880, Note_on_c, 6, 64, 0
1, 11880, Note_on_c, 6, 68, 0
1, 11880, Note_on_c, 2, 52, 0
1, 11880, Note_on_c, 12, 68, 0
1, 11880, Note_on_c, 2, 59, 0
1, 11880, Note_on_c, 2, 64, 0
1, 11880, Note_on_c, 4, 68, 0
1, 11880, Note_on_c, 2, 59, 100
1, 11880, Note_on_c, 2, 52, 100
1, 11880, Note_on_c, 2, 68, 100
1, 11880, Note_on_c, 2, 71, 100
1, 11880, Note_on_c, 2, 64, 100
1, 11880, Note_on_c, 3, 35, 100
1, 11880, Note_on_c, 6, 68, 100
1, 11880, Note_on_c, 6, 64, 100
1, 11880, Note_on_c, 6, 59, 100
1, 11880, Note_on_c, 9, 42, 100
1, 11895, Note_on_c, 9, 42, 0
1, 11940, Note_on_c, 2, 64, 0
1, 11940, Note_on_c, 2, 52, 0
1, 11940, Note_on_c, 2, 59, 0
1, 11940, Note_on_c, 3, 35, 0
1, 11940, Note_on_c, 2, 71, 0
1, 11940, Note_on_c, 2, 68, 0
1, 11940, Note_on_c, 2, 71, 100
1, 11940, Note_on_c, 2, 68, 100
1, 11940, Note_on_c, 2, 52, 100
1, 11940, Note_on_c, 2, 59, 100
1, 11940, Note_on_c, 2, 64, 100
1, 11940, Note_on_c, 3, 38, 100
1, 12000, Note_on_c, 3, 38, 0
1, 12000, Note_on_c, 2, 52, 0
1, 12000, Note_on_c, 2, 64, 0
1, 12000, Note_on_c, 2, 68, 0
1, 12000, Note_on_c, 6, 40, 0
1, 12000, Note_on_c, 6, 52, 0
1, 12000, Note_on_c, 2, 59, 0
1, 12000, Note_on_c, 2, 71, 0
1, 12000, Note_on_c, 2, 52, 100
1, 12000, Note_on_c, 2, 71, 100
1, 12000, Note_on_c, 2, 59, 100
1, 12000, Note_on_c, 2, 68, 100
1, 12000, Note_on_c, 2, 64, 100
1, 12000, Note_on_c, 3, 40, 100
1, 12000, Note_on_c, 6, 52, 100
1, 12000, Note_on_c, 6, 40, 100
1, 12000, Note_on_c, 9, 42, 100
1, 12000, Note_on_c, 9, 36, 100
1, 12015, Note_on_c, 9, 36, 0
1, 12015, Note_on_c, 9, 42, 0
1, 12060, Note_on_c, 6, 64, 0
1, 12060, Note_on_c, 6, 68, 0
1, 12060, Note_on_c, 6, 59, 0
1, 12060, Note_on_c, 6, 69, 100
1, 12060, Note_on_c, 6, 64, 100
1, 12060, Note_on_c, 6, 59, 100
1, 12060, Note_on_c, 9, 38, 100
1, 12075, Note_on_c, 9, 38, 0
1, 12120, Note_on_c, 2, 64, 0
1, 12120, Note_on_c, 2, 52, 0
1, 12120, Note_on_c, 2, 71, 0
1, 12120, Note_on_c, 2, 59, 0
1, 12120, Note_on_c, 2, 68, 0
1, 12120, Note_on_c, 2, 59, 100
1, 12120, Note_on_c, 2, 52, 100
1, 12120, Note_on_c, 2, 68, 100
1, 12120, Note_on_c, 2, 71, 100
1, 12120, Note_on_c, 2, 64, 100
1, 12120, Note_on_c, 9, 42, 100
1, 12135, Note_on_c, 9, 42, 0
1, 12180, Note_on_c, 2, 71, 0
1, 12180, Note_on_c, 2, 52, 0
1, 12180, Note_on_c, 6, 59, 0
1, 12180, Note_on_c, 2, 59, 0
1, 12180, Note_on_c, 3, 40, 0
1, 12180, Note_on_c, 6, 69, 0
1, 12180, Note_on_c, 6, 64, 0
1, 12180, Note_on_c, 2, 68, 0
1, 12180, Note_on_c, 2, 64, 0
1, 12180, Note_on_c, 2, 71, 100
1, 12180, Note_on_c, 2, 68, 100
1, 12180, Note_on_c, 2, 52, 100
1, 12180, Note_on_c, 2, 64, 100
1, 12180, Note_on_c, 2, 59, 100
1, 12180, Note_on_c, 3, 40, 100
1, 12180, Note_on_c, 6, 59, 100
1, 12180, Note_on_c, 9, 36, 100
1, 12195, Note_on_c, 9, 36, 0
1, 12240, Note_on_c, 2, 71, 0
1, 12240, Note_on_c, 3, 40, 0
1, 12240, Note_on_c, 2, 68, 0
1, 12240, Note_on_c, 2, 52, 0
1, 12240, Note_on_c, 6, 40, 0
1, 12240, Note_on_c, 2, 59, 0
1, 12240, Note_on_c, 6, 52, 0
1, 12240, Note_on_c, 2, 64, 0
1, 12240, Note_on_c, 2, 59, 100
1, 12240, Note_on_c, 2, 68, 100
1, 12240, Note_on_c, 2, 64, 100
1, 12240, Note_on_c, 2, 52, 100
1, 12240, Note_on_c, 2, 71, 100
1, 12240, Note_on_c, 3, 40, 100
1, 12240, Note_on_c, 6, 68, 100
1, 12240, Note_on_c, 6, 64, 100
1, 12240, Note_on_c, 6, 52, 100
1, 12240, Note_on_c, 6, 40, 100
1, 12240, Note_on_c, 9, 46, 100
1, 12240, Note_on_c, 9, 38, 100
1, 12255, Note_on_c, 9, 38, 0
1, 12255, Note_on_c, 9, 46, 0
1, 12360, Note_on_c, 2, 59, 0
1, 12360, Note_on_c, 2, 64, 0
1, 12360, Note_on_c, 2, 68, 0
1, 12360, Note_on_c, 2, 71, 0
1, 12360, Note_on_c, 3, 40, 0
1, 12360, Note_on_c, 2, 52, 0
1, 12360, Note_on_c, 2, 52, 100
1, 12360, Note_on_c, 2, 59, 100
1, 12360, Note_on_c, 2, 64, 100
1, 12360, Note_on_c, 2, 68, 100
1, 12360, Note_on_c, 2, 71, 100
1, 12360, Note_on_c, 3, 45, 100
1, 12420, Note_on_c, 3, 45, 0
1, 12420, Note_on_c, 2, 64, 0
1, 12420, Note_on_c, 2, 71, 0
1, 12420, Note_on_c, 2, 59, 0
1, 12420, Note_on_c, 2, 68, 0
1, 12420, Note_on_c, 2, 52, 0
1, 12420, Note_on_c, 2, 52, 100
1, 12420, Note_on_c, 2, 71, 100
1, 12420, Note_on_c, 2, 68, 100
1, 12420, Note_on_c, 2, 64, 100
1, 12420, Note_on_c, 2, 59, 100
1, 12420, Note_on_c, 3, 46, 100
1, 12480, Note_on_c, 3, 46, 0
1, 12480, Note_on_c, 2, 68, 0
1, 12480, Note_on_c, 6, 52, 0
1, 12480, Note_on_c, 6, 64, 0
1, 12480, Note_on_c, 6, 40, 0
1, 12480, Note_on_c, 6, 59, 0
1, 12480, Note_on_c, 6, 68, 0
1, 12480, Note_on_c, 2, 64, 0
1, 12480, Note_on_c, 2, 71, 0
1, 12480, Note_on_c, 2, 52, 0
1, 12480, Note_on_c, 2, 59, 0
1, 12480, Note_on_c, 2, 67, 100
1, 12480, Note_on_c, 2, 62, 100
1, 12480, Note_on_c, 2, 52, 100
1, 12480, Note_on_c, 2, 59, 100
1, 12480, Note_on_c, 2, 71, 100
1, 12480, Note_on_c, 3, 47, 100
1, 12480, Note_on_c, 5, 59, 100
1, 12480, Note_on_c, 5, 71, 100
1, 12480, Note_on_c, 6, 71, 100
1, 12480, Note_on_c, 6, 67, 100
1, 12480, Note_on_c, 6, 62, 100
1, 12480, Note_on_c, 6, 55, 100
1, 12480, Note_on_c, 6, 43, 100
1, 12480, Note_on_c, 9, 42, 100
1, 12480, Note_on_c, 9, 36, 100
1, 12495, Note_on_c, 9, 36, 0
1, 12495, Note_on_c, 9, 42, 0
1, 12600, Note_on_c, 2, 71, 0
1, 12600, Note_on_c, 5, 59, 0
1, 12600, Note_on_c, 2, 59, 0
1, 12600, Note_on_c, 2, 67, 0
1, 12600, Note_on_c, 2, 52, 0
1, 12600, Note_on_c, 3, 47, 0
1, 12600, Note_on_c, 2, 62, 0
1, 12600, Note_on_c, 5, 71, 0
1, 12600, Note_on_c, 2, 71, 100
1, 12600, Note_on_c, 2, 59, 100
1, 12600, Note_on_c, 2, 52, 100
1, 12600, Note_on_c, 2, 62, 100
1, 12600, Note_on_c, 2, 67, 100
1, 12600, Note_on_c, 3, 45, 100
1, 12600, Note_on_c, 5, 57, 100
1, 12600, Note_on_c, 5, 69, 100
1, 12600, Note_on_c, 9, 42, 100
1, 12615, Note_on_c, 9, 42, 0
1, 12660, Note_on_c, 2, 62, 0
1, 12660, Note_on_c, 2, 59, 0
1, 12660, Note_on_c, 2, 52, 0
1, 12660, Note_on_c, 2, 67, 0
1, 12660, Note_on_c, 2, 71, 0
1, 12660, Note_on_c, 2, 67, 100
1, 12660, Note_on_c, 2, 71, 100
1, 12660, Note_on_c, 2, 52, 100
1, 12660, Note_on_c, 2, 59, 100
1, 12660, Note_on_c, 2, 62, 100
1, 12660, Note_on_c, 9, 36, 100
1, 12675, Note_on_c, 9, 36, 0
1, 12720, Note_on_c, 3, 45, 0
1, 12720, Note_on_c, 6, 62, 0
1, 12720, Note_on_c, 5, 69, 0
1, 12720, Note_on_c, 6, 67, 0
1, 12720, Note_on_c, 5, 57, 0
1, 12720, Note_on_c, 2, 71, 0
1, 12720, Note_on_c, 6, 71, 0
1, 12720, Note_on_c, 2, 59, 0
1, 12720, Note_on_c, 2, 52, 0
1, 12720, Note_on_c, 2, 67, 0
1, 12720, Note_on_c, 2, 62, 0
1, 12720, Note_on_c, 2, 62, 100
1, 12720, Note_on_c, 2, 52, 100
1, 12720, Note_on_c, 2, 71, 100
1, 12720, Note_on_c, 2, 59, 100
1, 12720, Note_on_c, 2, 67, 100
1, 12720, Note_on_c, 3, 43, 100
1, 12720, Note_on_c, 4, 79, 100
1, 12720, Note_on_c, 5, 55, 100
1, 12720, Note_on_c, 5, 67, 100
1, 12720, Note_on_c, 6, 62, 100
1, 12720, Note_on_c, 9, 42, 100
1, 12720, Note_on_c, 9, 38, 100
1, 12720, Note_on_c, 12, 79, 100
1, 12735, Note_on_c, 9, 38, 0
1, 12735, Note_on_c, 9, 42, 0
1, 12780, Note_on_c, 4, 79, 0
1, 12780, Note_on_c, 12, 79, 0
1, 12780, Note_on_c, 4, 79, 100
1, 12780, Note_on_c, 12, 79, 100
1, 12840, Note_on_c, 5, 67, 0
1, 12840, Note_on_c, 2, 67, 0
1, 12840, Note_on_c, 2, 52, 0
1, 12840, Note_on_c, 3, 43, 0
1, 12840, Note_on_c, 5, 55, 0
1, 12840, Note_on_c, 2, 62, 0
1, 12840, Note_on_c, 2, 59, 0
1, 12840, Note_on_c, 2, 71, 0
1, 12840, Note_on_c, 6, 62, 0
1, 12840, Note_on_c, 2, 71, 100
1, 12840, Note_on_c, 2, 52, 100
1, 12840, Note_on_c, 2, 62, 100
1, 12840, Note_on_c, 2, 59, 100
1, 12840, Note_on_c, 2, 67, 100
1, 12840, Note_on_c, 3, 38, 100
1, 12840, Note_on_c, 5, 50, 100
1, 12840, Note_on_c, 5, 62, 100
1, 12840, Note_on_c, 6, 71, 100
1, 12840, Note_on_c, 6, 67, 100
1, 12840, Note_on_c, 6, 62, 100
1, 12840, Note_on_c, 9, 42, 100
1, 12855, Note_on_c, 9, 42, 0
1, 12900, Note_on_c, 2, 67, 0
1, 12900, Note_on_c, 2, 59, 0
1, 12900, Note_on_c, 2, 62, 0
1, 12900, Note_on_c, 2, 52, 0
1, 12900, Note_on_c, 2, 71, 0
1, 12900, Note_on_c, 2, 71, 100
1, 12900, Note_on_c, 2, 67, 100
1, 12900, Note_on_c, 2, 52, 100
1, 12900, Note_on_c, 2, 62, 100
1, 12900, Note_on_c, 2, 59, 100
1, 12960, Note_on_c, 2, 59, 0
1, 12960, Note_on_c, 2, 67, 0
1, 12960, Note_on_c, 5, 62, 0
1, 12960, Note_on_c, 6, 55, 0
1, 12960, Note_on_c, 6, 71, 0
1, 12960, Note_on_c, 5, 50, 0
1, 12960, Note_on_c, 6, 43, 0
1, 12960, Note_on_c, 4, 79, 0
1, 12960, Note_on_c, 12, 79, 0
1, 12960, Note_on_c, 2, 52, 0
1, 12960, Note_on_c, 2, 71, 0
1, 12960, Note_on_c, 6, 67, 0
1, 12960, Note_on_c, 6, 62, 0
1, 12960, Note_on_c, 2, 62, 0
1, 12960, Note_on_c, 3, 38, 0
1, 12960, Note_on_c, 2, 66, 100
1, 12960, Note_on_c, 2, 57, 100
1, 12960, Note_on_c, 2, 54, 100
1, 12960, Note_on_c, 2, 47, 100
1, 12960, Note_on_c, 2, 62, 100
1, 12960, Note_on_c, 2, 71, 100
1, 12960, Note_on_c, 3, 42, 100
1, 12960, Note_on_c, 4, 78, 100
1, 12960, Note_on_c, 5, 54, 100
1, 12960, Note_on_c, 5, 66, 100
1, 12960, Note_on_c, 6, 69, 100
1, 12960, Note_on_c, 6, 66, 100
1, 12960, Note_on_c, 6, 62, 100
1, 12960, Note_on_c, 6, 47, 100
1, 12960, Note_on_c, 6, 35, 100
1, 12960, Note_on_c, 9, 42, 100
1, 12960, Note_on_c, 9, 36, 100
1, 12960, Note_on_c, 12, 78, 100
1, 12975, Note_on_c, 9, 36, 0
1, 12975, Note_on_c, 9, 42, 0
1, 13080, Note_on_c, 3, 42, 0
1, 13080, Note_on_c, 2, 66, 0
1, 13080, Note_on_c, 2, 47, 0
1, 13080, Note_on_c, 12, 78, 0
1, 13080, Note_on_c, 5, 54, 0
1, 13080, Note_on_c, 5, 66, 0
1, 13080, Note_on_c, 4, 78, 0
1, 13080, Note_on_c, 2, 54, 0
1, 13080, Note_on_c, 2, 71, 0
1, 13080, Note_on_c, 2, 57, 0
1, 13080, Note_on_c, 2, 62, 0
1, 13080, Note_on_c, 2, 54, 100
1, 13080, Note_on_c, 2, 57, 100
1, 13080, Note_on_c, 2, 62, 100
1, 13080, Note_on_c, 2, 66, 100
1, 13080, Note_on_c, 2, 47, 100
1, 13080, Note_on_c, 2, 71, 100
1, 13080, Note_on_c, 3, 38, 100
1, 13080, Note_on_c, 4, 76, 100
1, 13080, Note_on_c, 5, 50, 100
1, 13080, Note_on_c, 5, 62, 100
1, 13080, Note_on_c, 9, 42, 100
1, 13080, Note_on_c, 12, 76, 100
1, 13095, Note_on_c, 9, 42, 0
1, 13140, Note_on_c, 2, 71, 0
1, 13140, Note_on_c, 2, 47, 0
1, 13140, Note_on_c, 2, 57, 0
1, 13140, Note_on_c, 2, 66, 0
1, 13140, Note_on_c, 2, 62, 0
1, 13140, Note_on_c, 2, 54, 0
1, 13140, Note_on_c, 2, 54, 100
1, 13140, Note_on_c, 2, 66, 100
1, 13140, Note_on_c, 2, 71, 100
1, 13140, Note_on_c, 2, 62, 100
1, 13140, Note_on_c, 2, 57, 100
1, 13140, Note_on_c, 2, 47, 100
1, 13140, Note_on_c, 9, 36, 100
1, 13155, Note_on_c, 9, 36, 0
1, 13200, Note_on_c, 12, 76, 0
1, 13200, Note_on_c, 2, 47, 0
1, 13200, Note_on_c, 2, 66, 0
1, 13200, Note_on_c, 5, 62, 0
1, 13200, Note_on_c, 4, 76, 0
1, 13200, Note_on_c, 2, 57, 0
1, 13200, Note_on_c, 6, 47, 0
1, 13200, Note_on_c, 5, 50, 0
1, 13200, Note_on_c, 3, 38, 0
1, 13200, Note_on_c, 2, 62, 0
1, 13200, Note_on_c, 2, 71, 0
1, 13200, Note_on_c, 2, 54, 0
1, 13200, Note_on_c, 2, 62, 100
1, 13200, Note_on_c, 2, 47, 100
1, 13200, Note_on_c, 2, 71, 100
1, 13200, Note_on_c, 2, 57, 100
1, 13200, Note_on_c, 2, 66, 100
1, 13200, Note_on_c, 2, 54, 100
1, 13200, Note_on_c, 3, 35, 100
1, 13200, Note_on_c, 4, 74, 100
1, 13200, Note_on_c, 5, 47, 100
1, 13200, Note_on_c, 5, 59, 100
1, 13200, Note_on_c, 6, 47, 100
1, 13200, Note_on_c, 9, 46, 100
1, 13200, Note_on_c, 9, 38, 100
1, 13200, Note_on_c, 12, 74, 100
1, 13215, Note_on_c, 9, 38, 0
1, 13215, Note_on_c, 9, 46, 0
1, 13260, Note_on_c, 6, 69, 0
1, 13260, Note_on_c, 6, 66, 0
1, 13260, Note_on_c, 6, 62, 0
1, 13260, Note_on_c, 6, 69, 100
1, 13260, Note_on_c, 6, 66, 100
1, 13260, Note_on_c, 6, 62, 100
1, 13320, Note_on_c, 2, 47, 0
1, 13320, Note_on_c, 2, 57, 0
1, 13320, Note_on_c, 2, 66, 0
1, 13320, Note_on_c, 12, 74, 0
1, 13320, Note_on_c, 2, 71, 0
1, 13320, Note_on_c, 3, 35, 0
1, 13320, Note_on_c, 2, 62, 0
1, 13320, Note_on_c, 2, 54, 0
1, 13320, Note_on_c, 5, 59, 0
1, 13320, Note_on_c, 4, 74, 0
1, 13320, Note_on_c, 5, 47, 0
1, 13320, Note_on_c, 2, 52, 100
1, 13320, Note_on_c, 2, 59, 100
1, 13320, Note_on_c, 2, 62, 100
1, 13320, Note_on_c, 2, 66, 100
1, 13320, Note_on_c, 2, 71, 100
1, 13320, Note_on_c, 3, 38, 100
1, 13320, Note_on_c, 4, 76, 100
1, 13320, Note_on_c, 5, 50, 100
1, 13320, Note_on_c, 5, 62, 100
1, 13320, Note_on_c, 12, 76, 100
1, 13380, Note_on_c, 12, 76, 0
1, 13380, Note_on_c, 2, 66, 0
1, 13380, Note_on_c, 2, 59, 0
1, 13380, Note_on_c, 2, 62, 0
1, 13380, Note_on_c, 4, 76, 0
1, 13380, Note_on_c, 2, 52, 0
1, 13380, Note_on_c, 2, 71, 0
1, 13380, Note_on_c, 2, 66, 100
1, 13380, Note_on_c, 2, 71, 100
1, 13380, Note_on_c, 2, 52, 100
1, 13380, Note_on_c, 2, 62, 100
1, 13380, Note_on_c, 2, 59, 100
1, 13380, Note_on_c, 4, 76, 100
1, 13380, Note_on_c, 12, 76, 100
1, 13440, Note_on_c, 2, 59, 0
1, 13440, Note_on_c, 2, 71, 0
1, 13440, Note_on_c, 5, 50, 0
1, 13440, Note_on_c, 6, 35, 0
1, 13440, Note_on_c, 6, 62, 0
1, 13440, Note_on_c, 6, 69, 0
1, 13440, Note_on_c, 6, 47, 0
1, 13440, Note_on_c, 6, 66, 0
1, 13440, Note_on_c, 5, 62, 0
1, 13440, Note_on_c, 3, 38, 0
1, 13440, Note_on_c, 2, 52, 0
1, 13440, Note_on_c, 2, 66, 0
1, 13440, Note_on_c, 2, 62, 0
1, 13440, Note_on_c, 2, 52, 100
1, 13440, Note_on_c, 2, 71, 100
1, 13440, Note_on_c, 2, 59, 100
1, 13440, Note_on_c, 2, 64, 100
1, 13440, Note_on_c, 2, 68, 100
1, 13440, Note_on_c, 3, 40, 100
1, 13440, Note_on_c, 5, 52, 100
1, 13440, Note_on_c, 5, 64, 100
1, 13440, Note_on_c, 6, 68, 100
1, 13440, Note_on_c, 6, 64, 100
1, 13440, Note_on_c, 6, 59, 100
1, 13440, Note_on_c, 6, 52, 100
1, 13440, Note_on_c, 6, 40, 100
1, 13440, Note_on_c, 9, 42, 100
1, 13440, Note_on_c, 9, 36, 100
1, 13455, Note_on_c, 9, 36, 0
1, 13455, Note_on_c, 9, 42, 0
1, 13560, Note_on_c, 2, 68, 0
1, 13560, Note_on_c, 2, 71, 0
1, 13560, Note_on_c, 2, 52, 0
1, 13560, Note_on_c, 2, 64, 0
1, 13560, Note_on_c, 2, 59, 0
1, 13560, Note_on_c, 2, 68, 100
1, 13560, Note_on_c, 2, 64, 100
1, 13560, Note_on_c, 2, 59, 100
1, 13560, Note_on_c, 2, 71, 100
1, 13560, Note_on_c, 2, 52, 100
1, 13560, Note_on_c, 9, 42, 100
1, 13575, Note_on_c, 9, 42, 0
1, 13620, Note_on_c, 2, 52, 0
1, 13620, Note_on_c, 2, 64, 0
1, 13620, Note_on_c, 12, 76, 0
1, 13620, Note_on_c, 4, 76, 0
1, 13620, Note_on_c, 3, 40, 0
1, 13620, Note_on_c, 2, 71, 0
1, 13620, Note_on_c, 2, 68, 0
1, 13620, Note_on_c, 2, 59, 0
1, 13620, Note_on_c, 2, 71, 100
1, 13620, Note_on_c, 2, 64, 100
1, 13620, Note_on_c, 2, 52, 100
1, 13620, Note_on_c, 2, 59, 100
1, 13620, Note_on_c, 2, 68, 100
1, 13620, Note_on_c, 3, 40, 100
1, 13620, Note_on_c, 4, 78, 100
1, 13620, Note_on_c, 9, 36, 100
1, 13620, Note_on_c, 12, 78, 100
1, 13635, Note_on_c, 9, 36, 0
1, 13680, Note_on_c, 2, 52, 0
1, 13680, Note_on_c, 6, 52, 0
1, 13680, Note_on_c, 5, 52, 0
1, 13680, Note_on_c, 6, 40, 0
1, 13680, Note_on_c, 2, 64, 0
1, 13680, Note_on_c, 5, 64, 0
1, 13680, Note_on_c, 2, 71, 0
1, 13680, Note_on_c, 3, 40, 0
1, 13680, Note_on_c, 2, 59, 0
1, 13680, Note_on_c, 2, 68, 0
1, 13680, Note_on_c, 2, 52, 100
1, 13680, Note_on_c, 2, 71, 100
1, 13680, Note_on_c, 2, 64, 100
1, 13680, Note_on_c, 2, 59, 100
1, 13680, Note_on_c, 2, 68, 100
1, 13680, Note_on_c, 3, 40, 100
1, 13680, Note_on_c, 6, 52, 100
1, 13680, Note_on_c, 6, 40, 100
1, 13680, Note_on_c, 9, 42, 100
1, 13680, Note_on_c, 9, 38, 100
1, 13695, Note_on_c, 9, 38, 0
1, 13695, Note_on_c, 9, 42, 0
1, 13800, Note_on_c, 6, 68, 0
1, 13800, Note_on_c, 2, 68, 0
1, 13800, Note_on_c, 2, 71, 0
1, 13800, Note_on_c, 2, 64, 0
1, 13800, Note_on_c, 6, 64, 0
1, 13800, Note_on_c, 4, 78, 0
1, 13800, Note_on_c, 6, 59, 0
1, 13800, Note_on_c, 3, 40, 0
1, 13800, Note_on_c, 12, 78, 0
1, 13800, Note_on_c, 2, 59, 0
1, 13800, Note_on_c, 2, 52, 0
1, 13800, Note_on_c, 2, 71, 100
1, 13800, Note_on_c, 2, 52, 100
1, 13800, Note_on_c, 2, 68, 100
1, 13800, Note_on_c, 2, 59, 100
1, 13800, Note_on_c, 2, 64, 100
1, 13800, Note_on_c, 3, 35, 100
1, 13800, Note_on_c, 6, 68, 100
1, 13800, Note_on_c, 6, 64, 100
1, 13800, Note_on_c, 6, 59, 100
1, 13800, Note_on_c, 9, 42, 100
1, 13815, Note_on_c, 9, 42, 0
1, 13860, Note_on_c, 2, 64, 0
1, 13860, Note_on_c, 2, 52, 0
1, 13860, Note_on_c, 2, 71, 0
1, 13860, Note_on_c, 3, 35, 0
1, 13860, Note_on_c, 2, 59, 0
1, 13860, Note_on_c, 2, 68, 0
1, 13860, Note_on_c, 2, 59, 100
1, 13860, Note_on_c, 2, 64, 100
1, 13860, Note_on_c, 2, 52, 100
1, 13860, Note_on_c, 2, 71, 100
1, 13860, Note_on_c, 2, 68, 100
1, 13860, Note_on_c, 3, 38, 100
1, 13920, Note_on_c, 3, 38, 0
1, 13920, Note_on_c, 2, 52, 0
1, 13920, Note_on_c, 2, 68, 0
1, 13920, Note_on_c, 2, 64, 0
1, 13920, Note_on_c, 6, 40, 0
1, 13920, Note_on_c, 6, 52, 0
1, 13920, Note_on_c, 2, 71, 0
1, 13920, Note_on_c, 2, 59, 0
1, 13920, Note_on_c, 2, 52, 100
1, 13920, Note_on_c, 2, 71, 100
1, 13920, Note_on_c, 2, 59, 100
1, 13920, Note_on_c, 2, 64, 100
1, 13920, Note_on_c, 2, 68, 100
1, 13920, Note_on_c, 3, 40, 100
1, 13920, Note_on_c, 6, 52, 100
1, 13920, Note_on_c, 6, 40, 100
1, 13920, Note_on_c, 9, 42, 100
1, 13920, Note_on_c, 9, 36, 100
1, 13935, Note_on_c, 9, 36, 0
1, 13935, Note_on_c, 9, 42, 0
1, 13980, Note_on_c, 6, 64, 0
1, 13980, Note_on_c, 6, 68, 0
1, 13980, Note_on_c, 6, 59, 0
1, 13980, Note_on_c, 6, 69, 100
1, 13980, Note_on_c, 6, 64, 100
1, 13980, Note_on_c, 6, 59, 100
1, 13980, Note_on_c, 9, 38, 100
1, 13995, Note_on_c, 9, 38, 0
1, 14040, Note_on_c, 2, 68, 0
1, 14040, Note_on_c, 2, 52, 0
1, 14040, Note_on_c, 2, 71, 0
1, 14040, Note_on_c, 2, 59, 0
1, 14040, Note_on_c, 2, 64, 0
1, 14040, Note_on_c, 2, 68, 100
1, 14040, Note_on_c, 2, 64, 100
1, 14040, Note_on_c, 2, 59, 100
1, 14040, Note_on_c, 2, 71, 100
1, 14040, Note_on_c, 2, 52, 100
1, 14040, Note_on_c, 9, 42, 100
1, 14055, Note_on_c, 9, 42, 0
1, 14100, Note_on_c, 2, 71, 0
1, 14100, Note_on_c, 2, 64, 0
1, 14100, Note_on_c, 6, 59, 0
1, 14100, Note_on_c, 2, 68, 0
1, 14100, Note_on_c, 3, 40, 0
1, 14100, Note_on_c, 6, 69, 0
1, 14100, Note_on_c, 6, 64, 0
1, 14100, Note_on_c, 2, 59, 0
1, 14100, Note_on_c, 2, 52, 0
1, 14100, Note_on_c, 2, 71, 100
1, 14100, Note_on_c, 2, 64, 100
1, 14100, Note_on_c, 2, 52, 100
1, 14100, Note_on_c, 2, 59, 100
1, 14100, Note_on_c, 2, 68, 100
1, 14100, Note_on_c, 3, 40, 100
1, 14100, Note_on_c, 6, 59, 100
1, 14100, Note_on_c, 9, 36, 100
1, 14115, Note_on_c, 9, 36, 0
1, 14160, Note_on_c, 2, 71, 0
1, 14160, Note_on_c, 3, 40, 0
1, 14160, Note_on_c, 2, 64, 0
1, 14160, Note_on_c, 2, 52, 0
1, 14160, Note_on_c, 6, 40, 0
1, 14160, Note_on_c, 2, 68, 0
1, 14160, Note_on_c, 6, 52, 0
1, 14160, Note_on_c, 2, 59, 0
1, 14160, Note_on_c, 2, 52, 100
1, 14160, Note_on_c, 2, 71, 100
1, 14160, Note_on_c, 2, 64, 100
1, 14160, Note_on_c, 2, 59, 100
1, 14160, Note_on_c, 2, 68, 100
1, 14160, Note_on_c, 3, 40, 100
1, 14160, Note_on_c, 6, 68, 100
1, 14160, Note_on_c, 6, 64, 100
1, 14160, Note_on_c, 6, 52, 100
1, 14160, Note_on_c, 6, 40, 100
1, 14160, Note_on_c, 9, 46, 100
1, 14160, Note_on_c, 9, 38, 100
1, 14175, Note_on_c, 9, 38, 0
1, 14175, Note_on_c, 9, 46, 0
1, 14280, Note_on_c, 2, 52, 0
1, 14280, Note_on_c, 2, 64, 0
1, 14280, Note_on_c, 2, 71, 0
1, 14280, Note_on_c, 2, 68, 0
1, 14280, Note_on_c, 3, 40, 0
1, 14280, Note_on_c, 2, 59, 0
1, 14280, Note_on_c, 2, 71, 100
1, 14280, Note_on_c, 2, 52, 100
1, 14280, Note_on_c, 2, 68, 100
1, 14280, Note_on_c, 2, 59, 100
1, 14280, Note_on_c, 2, 64, 100
1, 14280, Note_on_c, 3, 39, 100
1, 14340, Note_on_c, 2, 64, 0
1, 14340, Note_on_c, 2, 59, 0
1, 14340, Note_on_c, 2, 52, 0
1, 14340, Note_on_c, 2, 68, 0
1, 14340, Note_on_c, 2, 71, 0
1, 14340, Note_on_c, 2, 59, 100
1, 14340, Note_on_c, 2, 64, 100
1, 14340, Note_on_c, 2, 52, 100
1, 14340, Note_on_c, 2, 71, 100
1, 14340, Note_on_c, 2, 68, 100
1, 14400, Note_on_c, 2, 68, 0
1, 14400, Note_on_c, 2, 64, 0
1, 14400, Note_on_c, 6, 40, 0
1, 14400, Note_on_c, 6, 52, 0
1, 14400, Note_on_c, 3, 39, 0
1, 14400, Note_on_c, 6, 64, 0
1, 14400, Note_on_c, 6, 59, 0
1, 14400, Note_on_c, 2, 52, 0
1, 14400, Note_on_c, 2, 59, 0
1, 14400, Note_on_c, 6, 68, 0
1, 14400, Note_on_c, 2, 71, 0
1, 14400, Note_on_c, 0, 62, 110
1, 14400, Note_on_c, 0, 57, 110
1, 14400, Note_on_c, 0, 50, 110
1, 14400, Note_on_c, 2, 69, 100
1, 14400, Note_on_c, 2, 66, 100
1, 14400, Note_on_c, 2, 62, 100
1, 14400, Note_on_c, 2, 57, 100
1, 14400, Note_on_c, 2, 50, 100
1, 14400, Note_on_c, 3, 38, 100
1, 14400, Note_on_c, 6, 66, 100
1, 14400, Note_on_c, 6, 62, 100
1, 14400, Note_on_c, 6, 57, 100
1, 14400, Note_on_c, 6, 50, 100
1, 14400, Note_on_c, 6, 38, 100
1, 14400, Note_on_c, 9, 47, 100
1, 14400, Note_on_c, 9, 42, 100
1, 14400, Note_on_c, 11, 74, 100
1, 14400, Note_on_c, 11, 69, 100
1, 14400, Note_on_c, 11, 62, 100
1, 14405, Note_on_c, 1, 62, 110
1, 14405, Note_on_c, 1, 57, 110
1, 14405, Note_on_c, 1, 50, 110
1, 14415, Note_on_c, 9, 42, 0
1, 14415, Note_on_c, 9, 47, 0
1, 14460, Note_on_c, 9, 47, 100
1, 14475, Note_on_c, 9, 47, 0
1, 14520, Note_on_c, 2, 57, 0
1, 14520, Note_on_c, 2, 69, 0
1, 14520, Note_on_c, 2, 50, 0
1, 14520, Note_on_c, 2, 62, 0
1, 14520, Note_on_c, 2, 66, 0
1, 14520, Note_on_c, 4, 74, 100
1, 14520, Note_on_c, 9, 47, 100
1, 14520, Note_on_c, 12, 74, 100
1, 14535, Note_on_c, 9, 47, 0
1, 14577, Pitch_bend_c, 0, 8320
1, 14577, Pitch_bend_c, 11, 8320
1, 14580, Note_on_c, 9, 48, 100
1, 14582, Pitch_bend_c, 0, 8192
1, 14582, Pitch_bend_c, 1, 8320
1, 14582, Pitch_bend_c, 11, 8192
1, 14587, Pitch_bend_c, 1, 8192
1, 14595, Note_on_c, 9, 48, 0
1, 14597, Pitch_bend_c, 0, 8064
1, 14597, Pitch_bend_c, 11, 8064
1, 14602, Pitch_bend_c, 1, 8064
1, 14612, Pitch_bend_c, 0, 7936
1, 14612, Pitch_bend_c, 11, 7936
1, 14617, Pitch_bend_c, 1, 7936
1, 14627, Pitch_bend_c, 0, 7808
1, 14627, Pitch_bend_c, 11, 7808
1, 14632, Pitch_bend_c, 1, 7808
1, 14640, Note_on_c, 0, 62, 0
1, 14640, Note_on_c, 12, 74, 0
1, 14640, Note_on_c, 4, 74, 0
1, 14640, Note_on_c, 0, 50, 0
1, 14640, Note_on_c, 0, 57, 0
1, 14640, Pitch_bend_c, 0, 7680
1, 14640, Note_on_c, 4, 74, 100
1, 14640, Note_on_c, 9, 47, 100
1, 14640, Pitch_bend_c, 11, 7680
1, 14640, Note_on_c, 12, 74, 100
1, 14640, Note_on_c, 13, 62, 65
1, 14640, Note_on_c, 13, 57, 65
1, 14640, Note_on_c, 13, 50, 65
1, 14640, Note_on_c, 14, 62, 100
1, 14640, Note_on_c, 14, 57, 100
1, 14640, Note_on_c, 14, 50, 100
1, 14645, Note_on_c, 1, 62, 0
1, 14645, Note_on_c, 1, 57, 0
1, 14645, Note_on_c, 1, 50, 0
1, 14645, Pitch_bend_c, 1, 7680
1, 14655, Note_on_c, 9, 47, 0
1, 14655, Pitch_bend_c, 0, 7552
1, 14655, Pitch_bend_c, 11, 7552
1, 14660, Pitch_bend_c, 1, 7552
1, 14670, Pitch_bend_c, 0, 7424
1, 14670, Pitch_bend_c, 11, 7424
1, 14675, Pitch_bend_c, 1, 7424
1, 14685, Pitch_bend_c, 0, 7296
1, 14685, Pitch_bend_c, 11, 7296
1, 14690, Pitch_bend_c, 0, 6912
1, 14690, Pitch_bend_c, 1, 7296
1, 14690, Pitch_bend_c, 11, 6912
1, 14695, Pitch_bend_c, 1, 6912
1, 14700, Note_on_c, 14, 62, 0
1, 14700, Note_on_c, 13, 62, 0
1, 14700, Note_on_c, 13, 50, 0
1, 14700, Note_on_c, 14, 57, 0
1, 14700, Note_on_c, 14, 50, 0
1, 14700, Note_on_c, 13, 57, 0
1, 14700, Note_on_c, 9, 47, 100
1, 14700, Note_on_c, 13, 62, 65
1, 14700, Note_on_c, 13, 57, 65
1, 14700, Note_on_c, 13, 50, 65
1, 14700, Note_on_c, 14, 62, 100
1, 14700, Note_on_c, 14, 57, 100
1, 14700, Note_on_c, 14, 50, 100
1, 14712, Pitch_bend_c, 0, 6656
1, 14712, Pitch_bend_c, 11, 6656
1, 14715, Note_on_c, 9, 47, 0
1, 14717, Pitch_bend_c, 0, 6528
1, 14717, Pitch_bend_c, 1, 6656
1, 14717, Pitch_bend_c, 11, 6528
1, 14720, Pitch_bend_c, 0, 6400
1, 14720, Pitch_bend_c, 11, 6400
1, 14722, Pitch_bend_c, 1, 6528
1, 14725, Pitch_bend_c, 0, 6272
1, 14725, Pitch_bend_c, 1, 6400
1, 14725, Pitch_bend_c, 11, 6272
1, 14730, Pitch_bend_c, 1, 6272
1, 14735, Pitch_bend_c, 0, 6144
1, 14735, Pitch_bend_c, 11, 6144
1, 14737, Pitch_bend_c, 0, 6016
1, 14737, Pitch_bend_c, 11, 6016
1, 14740, Pitch_bend_c, 1, 6144
1, 14742, Pitch_bend_c, 0, 5888
1, 14742, Pitch_bend_c, 1, 6016
1, 14742, Pitch_bend_c, 11, 5888
1, 14747, Pitch_bend_c, 1, 5888
1, 14760, Note_on_c, 14, 50, 0
1, 14760, Note_on_c, 14, 57, 0
1, 14760, Note_on_c, 14, 62, 0
1, 14760, Note_on_c, 13, 62, 0
1, 14760, Note_on_c, 13, 50, 0
1, 14760, Note_on_c, 4, 74, 0
1, 14760, Note_on_c, 12, 74, 0
1, 14760, Note_on_c, 13, 57, 0
1, 14760, Pitch_bend_c, 0, 5760
1, 14760, Note_on_c, 4, 69, 100
1, 14760, Note_on_c, 9, 48, 100
1, 14760, Pitch_bend_c, 11, 5760
1, 14760, Note_on_c, 12, 69, 100
1, 14760, Note_on_c, 13, 62, 65
1, 14760, Note_on_c, 13, 57, 65
1, 14760, Note_on_c, 13, 50, 65
1, 14760, Note_on_c, 14, 62, 100
1, 14760, Note_on_c, 14, 57, 100
1, 14760, Note_on_c, 14, 50, 100
1, 14765, Pitch_bend_c, 1, 5760
1, 14775, Note_on_c, 9, 48, 0
1, 14782, Pitch_bend_c, 0, 8192
1, 14782, Pitch_bend_c, 11, 8192
1, 14787, Pitch_bend_c, 1, 8192
1, 14820, Note_on_c, 14, 50, 0
1, 14820, Note_on_c, 14, 57, 0
1, 14820, Note_on_c, 4, 69, 0
1, 14820, Note_on_c, 13, 62, 0
1, 14820, Note_on_c, 14, 62, 0
1, 14820, Note_on_c, 13, 50, 0
1, 14820, Note_on_c, 12, 69, 0
1, 14820, Note_on_c, 13, 57, 0
1, 14820, Note_on_c, 4, 69, 100
1, 14820, Note_on_c, 9, 47, 100
1, 14820, Note_on_c, 12, 69, 100
1, 14820, Note_on_c, 13, 62, 65
1, 14820, Note_on_c, 13, 57, 65
1, 14820, Note_on_c, 13, 50, 65
1, 14820, Note_on_c, 14, 62, 100
1, 14820, Note_on_c, 14, 57, 100
1, 14820, Note_on_c, 14, 50, 100
1, 14835, Note_on_c, 9, 47, 0
1, 14880, Note_on_c, 14, 50, 0
1, 14880, Note_on_c, 14, 57, 0
1, 14880, Note_on_c, 4, 69, 0
1, 14880, Note_on_c, 13, 62, 0
1, 14880, Note_on_c, 14, 62, 0
1, 14880, Note_on_c, 13, 50, 0
1, 14880, Note_on_c, 12, 69, 0
1, 14880, Note_on_c, 13, 57, 0
1, 14880, Note_on_c, 4, 78, 100
1, 14880, Note_on_c, 9, 47, 100
1, 14880, Note_on_c, 11, 74, 15
1, 14880, Note_on_c, 11, 69, 15
1, 14880, Note_on_c, 11, 62, 15
1, 14880, Note_on_c, 12, 78, 100
1, 14880, Note_on_c, 13, 62, 65
1, 14880, Note_on_c, 13, 57, 65
1, 14880, Note_on_c, 13, 50, 65
1, 14880, Note_on_c, 14, 62, 100
1, 14880, Note_on_c, 14, 57, 100
1, 14880, Note_on_c, 14, 50, 100
1, 14895, Note_on_c, 9, 47, 0
1, 14940, Note_on_c, 11, 62, 0
1, 14940, Note_on_c, 14, 50, 0
1, 14940, Note_on_c, 13, 62, 0
1, 14940, Note_on_c, 13, 50, 0
1, 14940, Note_on_c, 4, 78, 0
1, 14940, Note_on_c, 13, 57, 0
1, 14940, Note_on_c, 14, 57, 0
1, 14940, Note_on_c, 14, 62, 0
1, 14940, Note_on_c, 11, 74, 0
1, 14940, Note_on_c, 12, 78, 0
1, 14940, Note_on_c, 11, 69, 0
1, 14940, Note_on_c, 4, 78, 100
1, 14940, Note_on_c, 9, 45, 100
1, 14940, Note_on_c, 11, 74, 15
1, 14940, Note_on_c, 11, 69, 15
1, 14940, Note_on_c, 11, 62, 15
1, 14940, Note_on_c, 12, 78, 100
1, 14940, Note_on_c, 13, 62, 65
1, 14940, Note_on_c, 13, 57, 65
1, 14940, Note_on_c, 13, 50, 65
1, 14940, Note_on_c, 14, 62, 100
1, 14940, Note_on_c, 14, 57, 100
1, 14940, Note_on_c, 14, 50, 100
1, 14955, Note_on_c, 9, 45, 0
1, 15000, Note_on_c, 11, 62, 0
1, 15000, Note_on_c, 14, 50, 0
1, 15000, Note_on_c, 13, 62, 0
1, 15000, Note_on_c, 13, 50, 0
1, 15000, Note_on_c, 11, 74, 0
1, 15000, Note_on_c, 13, 57, 0
1, 15000, Note_on_c, 14, 57, 0
1, 15000, Note_on_c, 14, 62, 0
1, 15000, Note_on_c, 11, 69, 0
1, 15000, Note_on_c, 9, 47, 100
1, 15000, Note_on_c, 11, 74, 15
1, 15000, Note_on_c, 11, 69, 15
1, 15000, Note_on_c, 11, 62, 15
1, 15000, Note_on_c, 13, 62, 65
1, 15000, Note_on_c, 13, 57, 65
1, 15000, Note_on_c, 13, 50, 65
1, 15000, Note_on_c, 14, 62, 100
1, 15000, Note_on_c, 14, 57, 100
1, 15000, Note_on_c, 14, 50, 100
1, 15015, Note_on_c, 9, 47, 0
1, 15060, Note_on_c, 14, 50, 0
1, 15060, Note_on_c, 13, 50, 0
1, 15060, Note_on_c, 4, 78, 0
1, 15060, Note_on_c, 13, 57, 0
1, 15060, Note_on_c, 13, 62, 0
1, 15060, Note_on_c, 14, 57, 0
1, 15060, Note_on_c, 14, 62, 0
1, 15060, Note_on_c, 11, 62, 0
1, 15060, Note_on_c, 11, 74, 0
1, 15060, Note_on_c, 11, 69, 0
1, 15060, Note_on_c, 12, 78, 0
1, 15060, Note_on_c, 4, 76, 100
1, 15060, Note_on_c, 9, 47, 100
1, 15060, Note_on_c, 11, 74, 15
1, 15060, Note_on_c, 11, 69, 15
1, 15060, Note_on_c, 11, 62, 15
1, 15060, Note_on_c, 12, 76, 100
1, 15060, Note_on_c, 13, 62, 65
1, 15060, Note_on_c, 13, 57, 65
1, 15060, Note_on_c, 13, 50, 65
1, 15060, Note_on_c, 14, 62, 100
1, 15060, Note_on_c, 14, 57, 100
1, 15060, Note_on_c, 14, 50, 100
1, 15075, Note_on_c, 9, 47, 0
1, 15120, Note_on_c, 14, 50, 0
1, 15120, Note_on_c, 13, 50, 0
1, 15120, Note_on_c, 11, 62, 0
1, 15120, Note_on_c, 13, 57, 0
1, 15120, Note_on_c, 13, 62, 0
1, 15120, Note_on_c, 14, 57, 0
1, 15120, Note_on_c, 14, 62, 0
1, 15120, Note_on_c, 11, 69, 0
1, 15120, Note_on_c, 11, 74, 0
1, 15120, Note_on_c, 11, 62, 0
1, 15120, Note_on_c, 11, 74, 0
1, 15120, Note_on_c, 11, 69, 0
1, 15120, Note_on_c, 9, 45, 100
1, 15120, Note_on_c, 11, 74, 15
1, 15120, Note_on_c, 11, 69, 15
1, 15120, Note_on_c, 11, 62, 15
1, 15120, Note_on_c, 13, 62, 65
1, 15120, Note_on_c, 13, 57, 65
1, 15120, Note_on_c, 13, 50, 65
1, 15120, Note_on_c, 14, 62, 100
1, 15120, Note_on_c, 14, 57, 100
1, 15120, Note_on_c, 14, 50, 100
1, 15135, Note_on_c, 9, 45, 0
1, 15180, Note_on_c, 14, 50, 0
1, 15180, Note_on_c, 14, 57, 0
1, 15180, Note_on_c, 11, 69, 0
1, 15180, Note_on_c, 13, 62, 0
1, 15180, Note_on_c, 4, 76, 0
1, 15180, Note_on_c, 14, 62, 0
1, 15180, Note_on_c, 11, 74, 0
1, 15180, Note_on_c, 12, 76, 0
1, 15180, Note_on_c, 13, 50, 0
1, 15180, Note_on_c, 11, 62, 0
1, 15180, Note_on_c, 13, 57, 0
1, 15180, Note_on_c, 4, 74, 100
1, 15180, Note_on_c, 9, 47, 100
1, 15180, Note_on_c, 11, 74, 15
1, 15180, Note_on_c, 11, 69, 15
1, 15180, Note_on_c, 11, 62, 15
1, 15180, Note_on_c, 12, 74, 100
1, 15180, Note_on_c, 13, 62, 65
1, 15180, Note_on_c, 13, 57, 65
1, 15180, Note_on_c, 13, 50, 65
1, 15180, Note_on_c, 14, 62, 100
1, 15180, Note_on_c, 14, 57, 100
1, 15180, Note_on_c, 14, 50, 100
1, 15195, Note_on_c, 9, 47, 0
1, 15240, Note_on_c, 14, 50, 0
1, 15240, Note_on_c, 14, 57, 0
1, 15240, Note_on_c, 11, 62, 0
1, 15240, Note_on_c, 13, 62, 0
1, 15240, Note_on_c, 4, 74, 0
1, 15240, Note_on_c, 14, 62, 0
1, 15240, Note_on_c, 11, 69, 0
1, 15240, Note_on_c, 11, 74, 0
1, 15240, Note_on_c, 13, 50, 0
1, 15240, Note_on_c, 12, 74, 0
1, 15240, Note_on_c, 13, 57, 0
1, 15240, Note_on_c, 4, 76, 100
1, 15240, Note_on_c, 9, 47, 100
1, 15240, Note_on_c, 11, 74, 15
1, 15240, Note_on_c, 11, 69, 15
1, 15240, Note_on_c, 11, 62, 15
1, 15240, Note_on_c, 12, 76, 100
1, 15240, Note_on_c, 13, 62, 65
1, 15240, Note_on_c, 13, 57, 65
1, 15240, Note_on_c, 13, 50, 65
1, 15240, Note_on_c, 14, 62, 100
1, 15240, Note_on_c, 14, 57, 100
1, 15240, Note_on_c, 14, 50, 100
1, 15255, Note_on_c, 9, 47, 0
1, 15270, Note_on_c, 9, 45, 100
1, 15285, Note_on_c, 9, 45, 0
1, 15300, Note_on_c, 14, 62, 0
1, 15300, Note_on_c, 14, 50, 0
1, 15300, Note_on_c, 14, 57, 0
1, 15300, Note_on_c, 13, 62, 0
1, 15300, Note_on_c, 11, 62, 0
1, 15300, Note_on_c, 11, 69, 0
1, 15300, Note_on_c, 11, 74, 0
1, 15300, Note_on_c, 13, 50, 0
1, 15300, Note_on_c, 13, 57, 0
1, 15300, Note_on_c, 9, 36, 100
1, 15300, Note_on_c, 11, 74, 15
1, 15300, Note_on_c, 11, 69, 15
1, 15300, Note_on_c, 11, 62, 15
1, 15300, Note_on_c, 13, 62, 65
1, 15300, Note_on_c, 13, 57, 65
1, 15300, Note_on_c, 13, 50, 65
1, 15300, Note_on_c, 14, 62, 100
1, 15300, Note_on_c, 14, 57, 100
1, 15300, Note_on_c, 14, 50, 100
1, 15315, Note_on_c, 9, 36, 0
1, 15360, Note_on_c, 6, 38, 0
1, 15360, Note_on_c, 3, 38, 0
1, 15360, Note_on_c, 14, 50, 0
1, 15360, Note_on_c, 13, 62, 0
1, 15360, Note_on_c, 14, 57, 0
1, 15360, Note_on_c, 6, 66, 0
1, 15360, Note_on_c, 6, 62, 0
1, 15360, Note_on_c, 6, 57, 0
1, 15360, Note_on_c, 6, 50, 0
1, 15360, Note_on_c, 11, 69, 0
1, 15360, Note_on_c, 14, 62, 0
1, 15360, Note_on_c, 13, 57, 0
1, 15360, Note_on_c, 11, 62, 0
1, 15360, Note_on_c, 11, 74, 0
1, 15360, Note_on_c, 13, 50, 0
1, 15360, Note_on_c, 0, 64, 110
1, 15360, Note_on_c, 0, 59, 110
1, 15360, Note_on_c, 0, 52, 110
1, 15360, Note_on_c, 2, 71, 100
1, 15360, Note_on_c, 2, 68, 100
1, 15360, Note_on_c, 2, 64, 100
1, 15360, Note_on_c, 2, 59, 100
1, 15360, Note_on_c, 2, 52, 100
1, 15360, Note_on_c, 3, 40, 100
1, 15360, Note_on_c, 6, 68, 100
1, 15360, Note_on_c, 6, 64, 100
1, 15360, Note_on_c, 6, 59, 100
1, 15360, Note_on_c, 6, 52, 100
1, 15360, Note_on_c, 6, 40, 100
1, 15360, Note_on_c, 9, 47, 100
1, 15360, Note_on_c, 9, 42, 100
1, 15365, Note_on_c, 1, 64, 110
1, 15365, Note_on_c, 1, 59, 110
1, 15365, Note_on_c, 1, 52, 110
1, 15375, Note_on_c, 9, 42, 0
1, 15375, Note_on_c, 9, 47, 0
1, 15420, Note_on_c, 9, 47, 100
1, 15435, Note_on_c, 9, 47, 0
1, 15480, Note_on_c, 4, 76, 0
1, 15480, Note_on_c, 12, 76, 0
1, 15480, Note_on_c, 4, 71, 100
1, 15480, Note_on_c, 9, 47, 100
1, 15480, Note_on_c, 12, 71, 100
1, 15495, Note_on_c, 9, 47, 0
1, 15540, Note_on_c, 12, 71, 0
1, 15540, Note_on_c, 4, 71, 0
1, 15540, Note_on_c, 4, 69, 100
1, 15540, Note_on_c, 9, 45, 100
1, 15540, Note_on_c, 12, 69, 100
1, 15555, Note_on_c, 9, 45, 0
1, 15600, Note_on_c, 12, 69, 0
1, 15600, Note_on_c, 4, 69, 0
1, 15600, Note_on_c, 4, 68, 100
1, 15600, Note_on_c, 9, 47, 100
1, 15600, Note_on_c, 12, 68, 100
1, 15615, Note_on_c, 9, 47, 0
1, 15660, Note_on_c, 9, 47, 100
1, 15675, Note_on_c, 9, 47, 0
1, 15720, Note_on_c, 12, 68, 0
1, 15720, Note_on_c, 4, 68, 0
1, 15720, Note_on_c, 9, 38, 100
1, 15735, Note_on_c, 9, 38, 0
1, 15780, Note_on_c, 9, 47, 100
1, 15795, Note_on_c, 9, 47, 0
1, 15840, Note_on_c, 0, 59, 0
1, 15840, Note_on_c, 6, 40, 0
1, 15840, Note_on_c, 2, 59, 0
1, 15840, Note_on_c, 6, 64, 0
1, 15840, Note_on_c, 2, 71, 0
1, 15840, Note_on_c, 2, 68, 0
1, 15840, Note_on_c, 0, 64, 0
1, 15840, Note_on_c, 2, 64, 0
1, 15840, Note_on_c, 0, 52, 0
1, 15840, Note_on_c, 2, 52, 0
1, 15840, Note_on_c, 6, 52, 0
1, 15840, Note_on_c, 6, 59, 0
1, 15840, Note_on_c, 6, 68, 0
1, 15840, Note_on_c, 9, 47, 100
1, 15845, Note_on_c, 1, 64, 0
1, 15845, Note_on_c, 1, 59, 0
1, 15845, Note_on_c, 1, 52, 0
1, 15855, Note_on_c, 9, 47, 0
1, 15900, Note_on_c, 9, 45, 100
1, 15915, Note_on_c, 9, 45, 0
1, 15960, Note_on_c, 9, 47, 100
1, 15975, Note_on_c, 9, 47, 0
1, 16020, Note_on_c, 9, 47, 100
1, 16035, Note_on_c, 9, 47, 0
1, 16080, Note_on_c, 9, 45, 100
1, 16095, Note_on_c, 9, 45, 0
1, 16110, Note_on_c, 9, 45, 100
1, 16125, Note_on_c, 9, 45, 0
1, 16140, Note_on_c, 9, 45, 100
1, 16155, Note_on_c, 9, 45, 0
1, 16170, Note_on_c, 9, 45, 100
1, 16185, Note_on_c, 9, 45, 0
1, 16200, Note_on_c, 9, 47, 100
1, 16215, Note_on_c, 9, 47, 0
1, 16230, Note_on_c, 9, 47, 100
1, 16245, Note_on_c, 9, 47, 0
1, 16260, Note_on_c, 9, 47, 100
1, 16275, Note_on_c, 9, 47, 0
1, 16320, Marker_t, "verse 2"
1, 16320, Note_on_c, 3, 40, 0
1, 16320, Note_on_c, 0, 62, 100
1, 16320, Note_on_c, 0, 57, 100
1, 16320, Note_on_c, 0, 50, 100
1, 16320, Note_on_c, 2, 66, 100
1, 16320, Note_on_c, 2, 50, 100
1, 16320, Note_on_c, 2, 69, 100
1, 16320, Note_on_c, 2, 62, 100
1, 16320, Note_on_c, 2, 57, 100
1, 16320, Note_on_c, 3, 38, 100
1, 16320, Note_on_c, 9, 49, 100
1, 16320, Note_on_c, 9, 36, 100
1, 16325, Note_on_c, 1, 62, 100
1, 16325, Note_on_c, 1, 57, 100
1, 16325, Note_on_c, 1, 50, 100
1, 16335, Note_on_c, 9, 36, 0
1, 16335, Note_on_c, 9, 49, 0
1, 16500, Note_on_c, 2, 62, 0
1, 16500, Note_on_c, 2, 66, 0
1, 16500, Note_on_c, 3, 38, 0
1, 16500, Note_on_c, 2, 57, 0
1, 16500, Note_on_c, 2, 69, 0
1, 16500, Note_on_c, 2, 50, 0
1, 16500, Note_on_c, 2, 66, 100
1, 16500, Note_on_c, 2, 50, 100
1, 16500, Note_on_c, 2, 62, 100
1, 16500, Note_on_c, 2, 69, 100
1, 16500, Note_on_c, 2, 57, 100
1, 16500, Note_on_c, 3, 38, 100
1, 16500, Note_on_c, 9, 47, 100
1, 16515, Note_on_c, 9, 47, 0
1, 16530, Note_on_c, 9, 47, 100
1, 16545, Note_on_c, 9, 47, 0
1, 16560, Note_on_c, 2, 57, 0
1, 16560, Note_on_c, 2, 69, 0
1, 16560, Note_on_c, 2, 50, 0
1, 16560, Note_on_c, 2, 66, 0
1, 16560, Note_on_c, 0, 50, 0
1, 16560, Note_on_c, 2, 62, 0
1, 16560, Note_on_c, 0, 57, 0
1, 16560, Note_on_c, 3, 38, 0
1, 16560, Note_on_c, 0, 62, 0
1, 16560, Note_on_c, 0, 62, 100
1, 16560, Note_on_c, 0, 57, 100
1, 16560, Note_on_c, 0, 50, 100
1, 16560, Note_on_c, 2, 66, 100
1, 16560, Note_on_c, 2, 62, 100
1, 16560, Note_on_c, 2, 69, 100
1, 16560, Note_on_c, 2, 50, 100
1, 16560, Note_on_c, 2, 57, 100
1, 16560, Note_on_c, 3, 38, 100
1, 16560, Note_on_c, 9, 47, 100
1, 16560, Note_on_c, 9, 36, 100
1, 16560, Pitch_bend_c, 11, 8192
1, 16560, Note_on_c, 11, 62, 120
1, 16565, Note_on_c, 1, 50, 0
1, 16565, Note_on_c, 1, 62, 0
1, 16565, Note_on_c, 1, 57, 0
1, 16565, Note_on_c, 1, 62, 100
1, 16565, Note_on_c, 1, 57, 100
1, 16565, Note_on_c, 1, 50, 100
1, 16565, Pitch_bend_c, 11, 8064
1, 16567, Pitch_bend_c, 11, 7936
1, 16572, Pitch_bend_c, 11, 7808
1, 16575, Note_on_c, 9, 47, 0
1, 16575, Note_on_c, 9, 36, 0
1, 16575, Pitch_bend_c, 11, 7680
1, 16580, Pitch_bend_c, 11, 7552
1, 16582, Pitch_bend_c, 11, 7424
1, 16587, Pitch_bend_c, 11, 7296
1, 16590, Pitch_bend_c, 11, 7168
1, 16595, Pitch_bend_c, 11, 7040
1, 16597, Pitch_bend_c, 11, 6912
1, 16602, Pitch_bend_c, 11, 6784
1, 16605, Pitch_bend_c, 11, 6656
1, 16610, Pitch_bend_c, 11, 6528
1, 16612, Pitch_bend_c, 11, 6400
1, 16615, Pitch_bend_c, 11, 6272
1, 16620, Pitch_bend_c, 11, 6144
1, 16622, Pitch_bend_c, 11, 6016
1, 16625, Pitch_bend_c, 0, 8192
1, 16627, Pitch_bend_c, 11, 5888
1, 16630, Pitch_bend_c, 0, 7936
1, 16630, Pitch_bend_c, 1, 8192
1, 16630, Pitch_bend_c, 11, 5760
1, 16635, Pitch_bend_c, 1, 7936
1, 16635, Pitch_bend_c, 11, 5632
1, 16637, Pitch_bend_c, 11, 5504
1, 16642, Pitch_bend_c, 11, 5376
1, 16645, Pitch_bend_c, 11, 5248
1, 16650, Pitch_bend_c, 11, 5120
1, 16652, Pitch_bend_c, 0, 7808
1, 16652, Pitch_bend_c, 11, 4992
1, 16657, Pitch_bend_c, 1, 7808
1, 16657, Pitch_bend_c, 11, 4864
1, 16660, Pitch_bend_c, 11, 4736
1, 16662, Pitch_bend_c, 11, 4608
1, 16667, Pitch_bend_c, 11, 4480
1, 16670, Pitch_bend_c, 11, 4352
1, 16675, Pitch_bend_c, 0, 7680
1, 16675, Pitch_bend_c, 11, 4224
1, 16677, Pitch_bend_c, 11, 4096
1, 16680, Note_on_c, 2, 69, 0
1, 16680, Note_on_c, 0, 62, 0
1, 16680, Note_on_c, 2, 62, 0
1, 16680, Note_on_c, 2, 50, 0
1, 16680, Note_on_c, 2, 57, 0
1, 16680, Note_on_c, 0, 57, 0
1, 16680, Note_on_c, 2, 66, 0
1, 16680, Note_on_c, 3, 38, 0
1, 16680, Pitch_bend_c, 1, 7680
1, 16680, Note_on_c, 4, 69, 100
1, 16680, Note_on_c, 12, 69, 100
1, 16680, Pitch_bend_c, 14, 8192
1, 16680, Note_on_c, 14, 50, 120
1, 16682, Pitch_bend_c, 11, 3968
1, 16685, Note_on_c, 1, 57, 0
1, 16685, Note_on_c, 1, 62, 0
1, 16685, Pitch_bend_c, 11, 3840
1, 16685, Pitch_bend_c, 14, 8064
1, 16687, Pitch_bend_c, 14, 7936
1, 16690, Pitch_bend_c, 11, 3712
1, 16692, Pitch_bend_c, 11, 3584
1, 16692, Pitch_bend_c, 14, 7808
1, 16695, Pitch_bend_c, 14, 7680
1, 16697, Pitch_bend_c, 0, 7552
1, 16697, Pitch_bend_c, 11, 3456
1, 16700, Pitch_bend_c, 11, 3328
1, 16700, Pitch_bend_c, 14, 7552
1, 16702, Pitch_bend_c, 1, 7552
1, 16702, Pitch_bend_c, 14, 7424
1, 16705, Pitch_bend_c, 11, 3200
1, 16707, Pitch_bend_c, 11, 3072
1, 16707, Pitch_bend_c, 14, 7296
1, 16710, Pitch_bend_c, 14, 7168
1, 16712, Pitch_bend_c, 11, 2944
1, 16715, Pitch_bend_c, 11, 2816
1, 16715, Pitch_bend_c, 14, 7040
1, 16717, Pitch_bend_c, 11, 2688
1, 16717, Pitch_bend_c, 14, 6912
1, 16720, Pitch_bend_c, 0, 7424
1, 16722, Pitch_bend_c, 11, 2560
1, 16722, Pitch_bend_c, 14, 6784
1, 16725, Pitch_bend_c, 1, 7424
1, 16725, Pitch_bend_c, 11, 2432
1, 16725, Pitch_bend_c, 14, 6656
1, 16730, Pitch_bend_c, 11, 2304
1, 16730, Pitch_bend_c, 14, 6528
1, 16732, Pitch_bend_c, 11, 2176
1, 16732, Pitch_bend_c, 14, 6400
1, 16735, Pitch_bend_c, 14, 6272
1, 16737, Pitch_bend_c, 11, 2048
1, 16740, Pitch_bend_c, 11, 1920
1, 16740, Pitch_bend_c, 14, 6144
1, 16742, Pitch_bend_c, 0, 7296
1, 16742, Pitch_bend_c, 14, 6016
1, 16745, Pitch_bend_c, 11, 1792
1, 16747, Pitch_bend_c, 1, 7296
1, 16747, Pitch_bend_c, 11, 1664
1, 16747, Pitch_bend_c, 14, 5888
1, 16750, Pitch_bend_c, 14, 5760
1, 16752, Pitch_bend_c, 11, 1536
1, 16755, Pitch_bend_c, 11, 1408
1, 16755, Pitch_bend_c, 14, 5632
1, 16757, Pitch_bend_c, 14, 5504
1, 16760, Pitch_bend_c, 11, 1280
1, 16762, Pitch_bend_c, 0, 7168
1, 16762, Pitch_bend_c, 11, 1152
1, 16762, Pitch_bend_c, 14, 5376
1, 16765, Pitch_bend_c, 11, 1024
1, 16765, Pitch_bend_c, 14, 5248
1, 16767, Pitch_bend_c, 1, 7168
1, 16770, Pitch_bend_c, 14, 5120
1, 16772, Pitch_bend_c, 14, 4992
1, 16777, Pitch_bend_c, 14, 4864
1, 16780, Pitch_bend_c, 14, 4736
1, 16782, Pitch_bend_c, 14, 4608
1, 16785, Pitch_bend_c, 0, 7040
1, 16787, Pitch_bend_c, 11, 8320
1, 16787, Pitch_bend_c, 14, 4480
1, 16790, Pitch_bend_c, 1, 7040
1, 16790, Pitch_bend_c, 14, 4352
1, 16795, Pitch_bend_c, 14, 4224
1, 16797, Pitch_bend_c, 14, 4096
1, 16800, Note_on_c, 12, 69, 0
1, 16800, Note_on_c, 4, 69, 0
1, 16800, Note_on_c, 4, 69, 100
1, 16800, Note_on_c, 12, 69, 100
1, 16802, Pitch_bend_c, 14, 3968
1, 16805, Note_on_c, 1, 50, 0
1, 16805, Pitch_bend_c, 14, 3840
1, 16807, Pitch_bend_c, 0, 6912
1, 16810, Pitch_bend_c, 14, 3712
1, 16812, Pitch_bend_c, 1, 6912
1, 16812, Pitch_bend_c, 14, 3584
1, 16817, Pitch_bend_c, 14, 3456
1, 16820, Pitch_bend_c, 14, 3328
1, 16825, Pitch_bend_c, 14, 3200
1, 16827, Pitch_bend_c, 14, 3072
1, 16830, Pitch_bend_c, 0, 6784
1, 16832, Pitch_bend_c, 14, 2944
1, 16835, Pitch_bend_c, 1, 6784
1, 16835, Pitch_bend_c, 14, 2816
1, 16837, Pitch_bend_c, 14, 2688
1, 16842, Pitch_bend_c, 14, 2560
1, 16845, Pitch_bend_c, 14, 2432
1, 16850, Pitch_bend_c, 14, 2304
1, 16852, Pitch_bend_c, 0, 6656
1, 16852, Pitch_bend_c, 14, 2176
1, 16857, Pitch_bend_c, 1, 6656
1, 16857, Pitch_bend_c, 14, 2048
1, 16860, Pitch_bend_c, 14, 1920
1, 16865, Pitch_bend_c, 0, 8192
1, 16865, Pitch_bend_c, 14, 1792
1, 16867, Pitch_bend_c, 14, 1664
1, 16870, Pitch_bend_c, 1, 8192
1, 16872, Pitch_bend_c, 14, 1536
1, 16875, Pitch_bend_c, 14, 1408
1, 16880, Pitch_bend_c, 14, 1280
1, 16882, Pitch_bend_c, 14, 1152
1, 16885, Pitch_bend_c, 14, 1024
1, 16907, Pitch_bend_c, 14, 8320
1, 16920, Note_on_c, 4, 69, 0
1, 16920, Note_on_c, 0, 50, 0
1, 16920, Note_on_c, 12, 69, 0
1, 16920, Note_on_c, 4, 73, 100
1, 16920, Note_on_c, 12, 73, 100
1, 16980, Note_on_c, 12, 73, 0
1, 16980, Note_on_c, 4, 73, 0
1, 16980, Note_on_c, 4, 74, 100
1, 16980, Note_on_c, 12, 74, 100
1, 17040, Note_on_c, 11, 62, 0
1, 17100, Note_on_c, 12, 74, 0
1, 17100, Note_on_c, 4, 74, 0
1, 17100, Note_on_c, 4, 78, 100
1, 17100, Note_on_c, 12, 78, 100
1, 17160, Note_on_c, 14, 50, 0
1, 17280, Note_on_c, 12, 78, 0
1, 17280, Note_on_c, 4, 78, 0
1, 17280, Note_on_c, 0, 66, 100
1, 17280, Note_on_c, 0, 61, 100
1, 17280, Note_on_c, 0, 54, 100
1, 17280, Note_on_c, 2, 66, 100
1, 17280, Note_on_c, 2, 61, 100
1, 17280, Note_on_c, 2, 58, 100
1, 17280, Note_on_c, 2, 54, 100
1, 17280, Note_on_c, 2, 49, 100
1, 17280, Note_on_c, 2, 42, 100
1, 17280, Note_on_c, 3, 42, 100
1, 17280, Note_on_c, 9, 49, 100
1, 17280, Note_on_c, 9, 36, 100
1, 17285, Note_on_c, 1, 66, 100
1, 17285, Note_on_c, 1, 61, 100
1, 17285, Note_on_c, 1, 54, 100
1, 17295, Note_on_c, 9, 36, 0
1, 17295, Note_on_c, 9, 49, 0
1, 17460, Note_on_c, 3, 42, 0
1, 17460, Note_on_c, 2, 54, 0
1, 17460, Note_on_c, 2, 66, 0
1, 17460, Note_on_c, 2, 42, 0
1, 17460, Note_on_c, 2, 49, 0
1, 17460, Note_on_c, 2, 58, 0
1, 17460, Note_on_c, 2, 61, 0
1, 17460, Note_on_c, 2, 66, 100
1, 17460, Note_on_c, 2, 61, 100
1, 17460, Note_on_c, 2, 58, 100
1, 17460, Note_on_c, 2, 54, 100
1, 17460, Note_on_c, 2, 49, 100
1, 17460, Note_on_c, 2, 42, 100
1, 17460, Note_on_c, 3, 42, 100
1, 17460, Note_on_c, 9, 47, 100
1, 17475, Note_on_c, 9, 47, 0
1, 17490, Note_on_c, 9, 47, 100
1, 17505, Note_on_c, 9, 47, 0
1, 17520, Note_on_c, 2, 42, 0
1, 17520, Note_on_c, 0, 66, 0
1, 17520, Note_on_c, 2, 54, 0
1, 17520, Note_on_c, 2, 61, 0
1, 17520, Note_on_c, 2, 66, 0
1, 17520, Note_on_c, 0, 54, 0
1, 17520, Note_on_c, 2, 58, 0
1, 17520, Note_on_c, 3, 42, 0
1, 17520, Note_on_c, 2, 49, 0
1, 17520, Note_on_c, 0, 61, 0
1, 17520, Note_on_c, 0, 66, 100
1, 17520, Note_on_c, 0, 61, 100
1, 17520, Note_on_c, 0, 54, 100
1, 17520, Note_on_c, 2, 66, 100
1, 17520, Note_on_c, 2, 61, 100
1, 17520, Note_on_c, 2, 58, 100
1, 17520, Note_on_c, 2, 54, 100
1, 17520, Note_on_c, 2, 49, 100
1, 17520, Note_on_c, 2, 42, 100
1, 17520, Note_on_c, 3, 42, 100
1, 17520, Note_on_c, 9, 47, 100
1, 17520, Note_on_c, 9, 36, 100
1, 17525, Note_on_c, 1, 61, 0
1, 17525, Note_on_c, 1, 54, 0
1, 17525, Note_on_c, 1, 66, 0
1, 17525, Note_on_c, 1, 66, 100
1, 17525, Note_on_c, 1, 61, 100
1, 17525, Note_on_c, 1, 54, 100
1, 17535, Note_on_c, 9, 47, 0
1, 17535, Note_on_c, 9, 36, 0
1, 17640, Note_on_c, 2, 42, 0
1, 17640, Note_on_c, 2, 58, 0
1, 17640, Note_on_c, 0, 66, 0
1, 17640, Note_on_c, 2, 54, 0
1, 17640, Note_on_c, 0, 61, 0
1, 17640, Note_on_c, 2, 61, 0
1, 17640, Note_on_c, 2, 49, 0
1, 17640, Note_on_c, 2, 66, 0
1, 17640, Note_on_c, 0, 54, 0
1, 17640, Note_on_c, 3, 42, 0
1, 17645, Note_on_c, 1, 54, 0
1, 17645, Note_on_c, 1, 66, 0
1, 17645, Note_on_c, 1, 61, 0
1, 17760, Note_on_c, 4, 78, 100
1, 17760, Note_on_c, 12, 78, 100
1, 17820, Note_on_c, 12, 78, 0
1, 17820, Note_on_c, 4, 78, 0
1, 17820, Note_on_c, 4, 78, 100
1, 17820, Note_on_c, 12, 78, 100
1, 17880, Note_on_c, 12, 78, 0
1, 17880, Note_on_c, 4, 78, 0
1, 17880, Note_on_c, 4, 76, 100
1, 17880, Note_on_c, 12, 76, 100
1, 17940, Note_on_c, 12, 76, 0
1, 17940, Note_on_c, 4, 76, 0
1, 17940, Note_on_c, 4, 74, 100
1, 17940, Note_on_c, 12, 74, 100
1, 18000, Note_on_c, 12, 74, 0
1, 18000, Note_on_c, 4, 74, 0
1, 18000, Note_on_c, 4, 76, 100
1, 18000, Note_on_c, 12, 76, 100
1, 18060, Note_on_c, 12, 76, 0
1, 18060, Note_on_c, 4, 76, 0
1, 18060, Note_on_c, 4, 78, 100
1, 18060, Note_on_c, 12, 78, 100
1, 18120, Note_on_c, 12, 78, 0
1, 18120, Note_on_c, 4, 78, 0
1, 18120, Note_on_c, 3, 37, 100
1, 18120, Note_on_c, 4, 76, 100
1, 18120, Note_on_c, 12, 76, 100
1, 18180, Note_on_c, 12, 76, 0
1, 18180, Note_on_c, 4, 76, 0
1, 18180, Note_on_c, 4, 78, 100
1, 18180, Note_on_c, 12, 78, 100
1, 18240, Note_on_c, 3, 37, 0
1, 18240, Note_on_c, 2, 66, 100
1, 18240, Note_on_c, 2, 62, 100
1, 18240, Note_on_c, 2, 59, 100
1, 18240, Note_on_c, 2, 54, 100
1, 18240, Note_on_c, 2, 47, 100
1, 18240, Note_on_c, 3, 35, 100
1, 18240, Note_on_c, 9, 36, 100
1, 18245, Note_on_c, 1, 47, 100
1, 18255, Note_on_c, 9, 36, 0
1, 18300, Note_on_c, 12, 78, 0
1, 18300, Note_on_c, 4, 78, 0
1, 18300, Note_on_c, 4, 76, 100
1, 18300, Note_on_c, 12, 76, 100
1, 18360, Note_on_c, 12, 76, 0
1, 18360, Note_on_c, 2, 59, 0
1, 18360, Note_on_c, 4, 76, 0
1, 18360, Note_on_c, 2, 54, 0
1, 18360, Note_on_c, 2, 66, 0
1, 18360, Note_on_c, 2, 62, 0
1, 18360, Note_on_c, 2, 47, 0
1, 18360, Note_on_c, 2, 66, 100
1, 18360, Note_on_c, 2, 62, 100
1, 18360, Note_on_c, 2, 59, 100
1, 18360, Note_on_c, 2, 54, 100
1, 18360, Note_on_c, 2, 47, 100
1, 18360, Note_on_c, 4, 74, 100
1, 18360, Note_on_c, 12, 74, 100
1, 18365, Note_on_c, 1, 47, 0
1, 18365, Note_on_c, 1, 54, 60
1, 18420, Note_on_c, 2, 59, 0
1, 18420, Note_on_c, 12, 74, 0
1, 18420, Note_on_c, 4, 74, 0
1, 18420, Note_on_c, 2, 54, 0
1, 18420, Note_on_c, 2, 66, 0
1, 18420, Note_on_c, 2, 62, 0
1, 18420, Note_on_c, 3, 35, 0
1, 18420, Note_on_c, 2, 47, 0
1, 18420, Note_on_c, 2, 66, 100
1, 18420, Note_on_c, 2, 62, 100
1, 18420, Note_on_c, 2, 59, 100
1, 18420, Note_on_c, 2, 54, 100
1, 18420, Note_on_c, 2, 47, 100
1, 18420, Note_on_c, 3, 30, 100
1, 18420, Note_on_c, 9, 36, 100
1, 18425, Note_on_c, 1, 54, 0
1, 18425, Note_on_c, 1, 54, 60
1, 18435, Note_on_c, 9, 36, 0
1, 18480, Note_on_c, 2, 66, 0
1, 18480, Note_on_c, 2, 47, 0
1, 18480, Note_on_c, 2, 62, 0
1, 18480, Note_on_c, 2, 59, 0
1, 18480, Note_on_c, 2, 54, 0
1, 18480, Note_on_c, 3, 30, 0
1, 18480, Note_on_c, 2, 66, 100
1, 18480, Note_on_c, 2, 62, 100
1, 18480, Note_on_c, 2, 59, 100
1, 18480, Note_on_c, 2, 54, 100
1, 18480, Note_on_c, 2, 47, 100
1, 18480, Note_on_c, 3, 35, 100
1, 18480, Note_on_c, 9, 38, 100
1, 18485, Note_on_c, 1, 54, 0
1, 18485, Note_on_c, 1, 54, 60
1, 18495, Note_on_c, 9, 38, 0
1, 18545, Note_on_c, 1, 54, 0
1, 18545, Note_on_c, 1, 62, 100
1, 18600, Note_on_c, 2, 47, 0
1, 18600, Note_on_c, 2, 54, 0
1, 18600, Note_on_c, 2, 62, 0
1, 18600, Note_on_c, 2, 59, 0
1, 18600, Note_on_c, 2, 66, 0
1, 18600, Note_on_c, 3, 35, 0
1, 18600, Note_on_c, 2, 66, 100
1, 18600, Note_on_c, 2, 62, 100
1, 18600, Note_on_c, 2, 59, 100
1, 18600, Note_on_c, 2, 54, 100
1, 18600, Note_on_c, 2, 47, 100
1, 18600, Note_on_c, 3, 35, 100
1, 18600, Note_on_c, 4, 71, 100
1, 18600, Note_on_c, 12, 71, 100
1, 18660, Note_on_c, 12, 71, 0
1, 18660, Note_on_c, 2, 59, 0
1, 18660, Note_on_c, 4, 71, 0
1, 18660, Note_on_c, 2, 54, 0
1, 18660, Note_on_c, 2, 66, 0
1, 18660, Note_on_c, 2, 62, 0
1, 18660, Note_on_c, 3, 35, 0
1, 18660, Note_on_c, 2, 47, 0
1, 18660, Note_on_c, 2, 66, 100
1, 18660, Note_on_c, 2, 62, 100
1, 18660, Note_on_c, 2, 59, 100
1, 18660, Note_on_c, 2, 54, 100
1, 18660, Note_on_c, 2, 47, 100
1, 18660, Note_on_c, 3, 34, 100
1, 18660, Note_on_c, 4, 69, 100
1, 18660, Note_on_c, 12, 69, 100
1, 18720, Note_on_c, 12, 69, 0
1, 18720, Note_on_c, 2, 59, 0
1, 18720, Note_on_c, 4, 69, 0
1, 18720, Note_on_c, 2, 54, 0
1, 18720, Note_on_c, 2, 66, 0
1, 18720, Note_on_c, 2, 62, 0
1, 18720, Note_on_c, 3, 34, 0
1, 18720, Note_on_c, 2, 47, 0
1, 18720, Note_on_c, 2, 66, 100
1, 18720, Note_on_c, 2, 62, 100
1, 18720, Note_on_c, 2, 54, 100
1, 18720, Note_on_c, 2, 47, 100
1, 18720, Note_on_c, 2, 57, 100
1, 18720, Note_on_c, 3, 33, 100
1, 18720, Note_on_c, 4, 71, 100
1, 18720, Note_on_c, 9, 36, 100
1, 18720, Note_on_c, 12, 71, 100
1, 18725, Note_on_c, 1, 62, 0
1, 18725, Note_on_c, 1, 45, 60
1, 18735, Note_on_c, 9, 36, 0
1, 18780, Note_on_c, 4, 71, 0
1, 18780, Note_on_c, 12, 71, 0
1, 18780, Note_on_c, 4, 73, 100
1, 18780, Note_on_c, 12, 73, 100
1, 18840, Note_on_c, 2, 66, 0
1, 18840, Note_on_c, 2, 47, 0
1, 18840, Note_on_c, 2, 54, 0
1, 18840, Note_on_c, 2, 57, 0
1, 18840, Note_on_c, 2, 62, 0
1, 18840, Note_on_c, 2, 66, 100
1, 18840, Note_on_c, 2, 54, 100
1, 18840, Note_on_c, 2, 47, 100
1, 18840, Note_on_c, 2, 57, 100
1, 18840, Note_on_c, 2, 62, 100
1, 18845, Note_on_c, 1, 45, 0
1, 18845, Note_on_c, 1, 40, 60
1, 18900, Note_on_c, 2, 66, 0
1, 18900, Note_on_c, 2, 62, 0
1, 18900, Note_on_c, 2, 57, 0
1, 18900, Note_on_c, 2, 54, 0
1, 18900, Note_on_c, 3, 33, 0
1, 18900, Note_on_c, 4, 73, 0
1, 18900, Note_on_c, 12, 73, 0
1, 18900, Note_on_c, 2, 47, 0
1, 18900, Note_on_c, 2, 54, 100
1, 18900, Note_on_c, 2, 62, 100
1, 18900, Note_on_c, 2, 66, 100
1, 18900, Note_on_c, 2, 57, 100
1, 18900, Note_on_c, 2, 47, 100
1, 18900, Note_on_c, 3, 33, 100
1, 18900, Note_on_c, 4, 74, 100
1, 18900, Note_on_c, 9, 36, 100
1, 18900, Note_on_c, 12, 74, 100
1, 18915, Note_on_c, 9, 36, 0
1, 18960, Note_on_c, 3, 33, 0
1, 18960, Note_on_c, 2, 66, 0
1, 18960, Note_on_c, 2, 62, 0
1, 18960, Note_on_c, 2, 57, 0
1, 18960, Note_on_c, 2, 54, 0
1, 18960, Note_on_c, 2, 47, 0
1, 18960, Note_on_c, 2, 54, 100
1, 18960, Note_on_c, 2, 66, 100
1, 18960, Note_on_c, 2, 62, 100
1, 18960, Note_on_c, 2, 57, 100
1, 18960, Note_on_c, 2, 47, 100
1, 18960, Note_on_c, 3, 33, 100
1, 18960, Note_on_c, 9, 46, 100
1, 18960, Note_on_c, 9, 38, 100
1, 18965, Note_on_c, 1, 40, 0
1, 18965, Note_on_c, 1, 52, 60
1, 18975, Note_on_c, 9, 38, 0
1, 18975, Note_on_c, 9, 46, 0
1, 19025, Note_on_c, 1, 52, 0
1, 19025, Note_on_c, 1, 62, 100
1, 19080, Note_on_c, 2, 66, 0
1, 19080, Note_on_c, 2, 54, 0
1, 19080, Note_on_c, 2, 47, 0
1, 19080, Note_on_c, 2, 62, 0
1, 19080, Note_on_c, 12, 74, 0
1, 19080, Note_on_c, 3, 33, 0
1, 19080, Note_on_c, 4, 74, 0
1, 19080, Note_on_c, 2, 57, 0
1, 19080, Note_on_c, 2, 47, 100
1, 19080, Note_on_c, 2, 66, 100
1, 19080, Note_on_c, 2, 62, 100
1, 19080, Note_on_c, 2, 54, 100
1, 19080, Note_on_c, 2, 57, 100
1, 19080, Note_on_c, 3, 38, 100
1, 19080, Note_on_c, 4, 78, 100
1, 19080, Note_on_c, 12, 78, 100
1, 19140, Note_on_c, 3, 38, 0
1, 19140, Note_on_c, 2, 62, 0
1, 19140, Note_on_c, 2, 66, 0
1, 19140, Note_on_c, 2, 54, 0
1, 19140, Note_on_c, 2, 47, 0
1, 19140, Note_on_c, 2, 57, 0
1, 19140, Note_on_c, 2, 62, 100
1, 19140, Note_on_c, 2, 54, 100
1, 19140, Note_on_c, 2, 47, 100
1, 19140, Note_on_c, 2, 66, 100
1, 19140, Note_on_c, 2, 57, 100
1, 19140, Note_on_c, 3, 39, 100
1, 19200, Note_on_c, 3, 39, 0
1, 19200, Note_on_c, 2, 62, 0
1, 19200, Note_on_c, 2, 57, 0
1, 19200, Note_on_c, 2, 54, 0
1, 19200, Note_on_c, 4, 78, 0
1, 19200, Note_on_c, 12, 78, 0
1, 19200, Note_on_c, 2, 66, 0
1, 19200, Note_on_c, 2, 47, 0
1, 19200, Note_on_c, 2, 71, 100
1, 19200, Note_on_c, 2, 68, 100
1, 19200, Note_on_c, 2, 64, 100
1, 19200, Note_on_c, 2, 59, 100
1, 19200, Note_on_c, 2, 52, 100
1, 19200, Note_on_c, 3, 40, 100
1, 19200, Note_on_c, 9, 42, 100
1, 19200, Note_on_c, 9, 36, 100
1, 19205, Note_on_c, 1, 62, 0
1, 19205, Note_on_c, 1, 40, 75
1, 19215, Note_on_c, 9, 36, 0
1, 19215, Note_on_c, 9, 42, 0
1, 19320, Note_on_c, 2, 59, 0
1, 19320, Note_on_c, 2, 71, 0
1, 19320, Note_on_c, 2, 68, 0
1, 19320, Note_on_c, 2, 64, 0
1, 19320, Note_on_c, 2, 52, 0
1, 19320, Note_on_c, 9, 42, 100
1, 19325, Note_on_c, 1, 40, 0
1, 19325, Note_on_c, 1, 64, 75
1, 19325, Note_on_c, 1, 59, 75
1, 19325, Note_on_c, 1, 52, 75
1, 19335, Note_on_c, 9, 42, 0
1, 19380, Note_on_c, 3, 40, 0
1, 19380, Note_on_c, 2, 71, 100
1, 19380, Note_on_c, 2, 68, 100
1, 19380, Note_on_c, 2, 64, 100
1, 19380, Note_on_c, 2, 59, 100
1, 19380, Note_on_c, 2, 52, 100
1, 19380, Note_on_c, 3, 35, 100
1, 19380, Note_on_c, 9, 36, 100
1, 19385, Note_on_c, 1, 59, 0
1, 19385, Note_on_c, 1, 52, 0
1, 19385, Note_on_c, 1, 64, 0
1, 19385, Note_on_c, 1, 64, 75
1, 19385, Note_on_c, 1, 59, 75
1, 19385, Note_on_c, 1, 52, 75
1, 19395, Note_on_c, 9, 36, 0
1, 19440, Note_on_c, 2, 71, 0
1, 19440, Note_on_c, 3, 35, 0
1, 19440, Note_on_c, 2, 68, 0
1, 19440, Note_on_c, 2, 59, 0
1, 19440, Note_on_c, 2, 64, 0
1, 19440, Note_on_c, 2, 52, 0
1, 19440, Note_on_c, 2, 71, 100
1, 19440, Note_on_c, 2, 68, 100
1, 19440, Note_on_c, 2, 64, 100
1, 19440, Note_on_c, 2, 59, 100
1, 19440, Note_on_c, 2, 52, 100
1, 19440, Note_on_c, 3, 40, 100
1, 19440, Note_on_c, 9, 38, 100
1, 19440, Note_on_c, 9, 42, 100
1, 19445, Note_on_c, 1, 52, 0
1, 19445, Note_on_c, 1, 64, 0
1, 19445, Note_on_c, 1, 59, 0
1, 19445, Note_on_c, 1, 64, 100
1, 19445, Note_on_c, 1, 59, 100
1, 19445, Note_on_c, 1, 52, 100
1, 19455, Note_on_c, 9, 38, 0
1, 19455, Note_on_c, 9, 42, 0
1, 19500, Note_on_c, 4, 78, 100
1, 19500, Note_on_c, 12, 78, 100
1, 19560, Note_on_c, 12, 78, 0
1, 19560, Note_on_c, 2, 71, 0
1, 19560, Note_on_c, 2, 52, 0
1, 19560, Note_on_c, 4, 78, 0
1, 19560, Note_on_c, 3, 40, 0
1, 19560, Note_on_c, 2, 59, 0
1, 19560, Note_on_c, 2, 64, 0
1, 19560, Note_on_c, 2, 68, 0
1, 19560, Note_on_c, 2, 71, 100
1, 19560, Note_on_c, 2, 68, 100
1, 19560, Note_on_c, 2, 64, 100
1, 19560, Note_on_c, 2, 59, 100
1, 19560, Note_on_c, 2, 52, 100
1, 19560, Note_on_c, 3, 35, 100
1, 19560, Note_on_c, 4, 78, 100
1, 19560, Note_on_c, 9, 42, 100
1, 19560, Note_on_c, 12, 78, 100
1, 19575, Note_on_c, 9, 42, 0
1, 19620, Note_on_c, 4, 78, 0
1, 19620, Note_on_c, 2, 52, 0
1, 19620, Note_on_c, 2, 59, 0
1, 19620, Note_on_c, 2, 71, 0
1, 19620, Note_on_c, 3, 35, 0
1, 19620, Note_on_c, 2, 68, 0
1, 19620, Note_on_c, 2, 64, 0
1, 19620, Note_on_c, 12, 78, 0
1, 19620, Note_on_c, 2, 71, 100
1, 19620, Note_on_c, 2, 68, 100
1, 19620, Note_on_c, 2, 64, 100
1, 19620, Note_on_c, 2, 59, 100
1, 19620, Note_on_c, 2, 52, 100
1, 19620, Note_on_c, 3, 39, 100
1, 19620, Note_on_c, 4, 78, 100
1, 19620, Note_on_c, 12, 78, 100
1, 19680, Note_on_c, 12, 78, 0
1, 19680, Note_on_c, 2, 52, 0
1, 19680, Note_on_c, 4, 78, 0
1, 19680, Note_on_c, 2, 59, 0
1, 19680, Note_on_c, 2, 71, 0
1, 19680, Note_on_c, 2, 68, 0
1, 19680, Note_on_c, 3, 39, 0
1, 19680, Note_on_c, 2, 64, 0
1, 19680, Note_on_c, 2, 71, 100
1, 19680, Note_on_c, 2, 68, 100
1, 19680, Note_on_c, 2, 64, 100
1, 19680, Note_on_c, 2, 59, 100
1, 19680, Note_on_c, 2, 52, 100
1, 19680, Note_on_c, 3, 40, 100
1, 19680, Note_on_c, 4, 78, 100
1, 19680, Note_on_c, 9, 42, 100
1, 19680, Note_on_c, 9, 36, 100
1, 19680, Note_on_c, 12, 78, 100
1, 19685, Note_on_c, 1, 59, 0
1, 19685, Note_on_c, 1, 64, 0
1, 19685, Note_on_c, 1, 52, 0
1, 19685, Note_on_c, 1, 52, 75
1, 19695, Note_on_c, 9, 42, 0
1, 19695, Note_on_c, 9, 36, 0
1, 19740, Note_on_c, 4, 78, 0
1, 19740, Note_on_c, 12, 78, 0
1, 19740, Note_on_c, 4, 78, 100
1, 19740, Note_on_c, 12, 78, 100
1, 19800, Note_on_c, 12, 78, 0
1, 19800, Note_on_c, 2, 71, 0
1, 19800, Note_on_c, 4, 78, 0
1, 19800, Note_on_c, 2, 59, 0
1, 19800, Note_on_c, 2, 52, 0
1, 19800, Note_on_c, 2, 68, 0
1, 19800, Note_on_c, 2, 64, 0
1, 19800, Note_on_c, 4, 76, 100
1, 19800, Note_on_c, 9, 42, 100
1, 19800, Note_on_c, 12, 76, 100
1, 19805, Note_on_c, 1, 52, 0
1, 19805, Note_on_c, 1, 59, 75
1, 19805, Note_on_c, 1, 52, 75
1, 19805, Note_on_c, 1, 64, 75
1, 19815, Note_on_c, 9, 42, 0
1, 19860, Note_on_c, 12, 76, 0
1, 19860, Note_on_c, 3, 40, 0
1, 19860, Note_on_c, 4, 76, 0
1, 19860, Note_on_c, 2, 71, 100
1, 19860, Note_on_c, 2, 68, 100
1, 19860, Note_on_c, 2, 64, 100
1, 19860, Note_on_c, 2, 59, 100
1, 19860, Note_on_c, 2, 52, 100
1, 19860, Note_on_c, 3, 40, 100
1, 19860, Note_on_c, 4, 76, 100
1, 19860, Note_on_c, 9, 36, 100
1, 19860, Note_on_c, 12, 76, 100
1, 19865, Note_on_c, 1, 64, 0
1, 19865, Note_on_c, 1, 52, 0
1, 19865, Note_on_c, 1, 59, 0
1, 19865, Note_on_c, 1, 59, 75
1, 19865, Note_on_c, 1, 52, 75
1, 19865, Note_on_c, 1, 64, 75
1, 19875, Note_on_c, 9, 36, 0
1, 19920, Note_on_c, 2, 68, 0
1, 19920, Note_on_c, 3, 40, 0
1, 19920, Note_on_c, 2, 71, 0
1, 19920, Note_on_c, 2, 52, 0
1, 19920, Note_on_c, 2, 64, 0
1, 19920, Note_on_c, 2, 59, 0
1, 19920, Note_on_c, 12, 76, 0
1, 19920, Note_on_c, 4, 76, 0
1, 19920, Note_on_c, 2, 71, 100
1, 19920, Note_on_c, 2, 68, 100
1, 19920, Note_on_c, 2, 64, 100
1, 19920, Note_on_c, 2, 59, 100
1, 19920, Note_on_c, 2, 52, 100
1, 19920, Note_on_c, 3, 40, 100
1, 19920, Note_on_c, 4, 74, 100
1, 19920, Note_on_c, 9, 46, 100
1, 19920, Note_on_c, 9, 38, 100
1, 19920, Note_on_c, 12, 74, 100
1, 19925, Note_on_c, 1, 59, 0
1, 19925, Note_on_c, 1, 64, 0
1, 19925, Note_on_c, 1, 52, 0
1, 19925, Note_on_c, 1, 59, 100
1, 19925, Note_on_c, 1, 52, 100
1, 19925, Note_on_c, 1, 64, 100
1, 19935, Note_on_c, 9, 46, 0
1, 19935, Note_on_c, 9, 38, 0
1, 19980, Note_on_c, 3, 40, 0
1, 19980, Note_on_c, 3, 39, 100
1, 20040, Note_on_c, 3, 39, 0
1, 20040, Note_on_c, 12, 74, 0
1, 20040, Note_on_c, 2, 68, 0
1, 20040, Note_on_c, 4, 74, 0
1, 20040, Note_on_c, 2, 52, 0
1, 20040, Note_on_c, 2, 59, 0
1, 20040, Note_on_c, 2, 71, 0
1, 20040, Note_on_c, 2, 64, 0
1, 20040, Note_on_c, 2, 71, 100
1, 20040, Note_on_c, 2, 68, 100
1, 20040, Note_on_c, 2, 64, 100
1, 20040, Note_on_c, 2, 59, 100
1, 20040, Note_on_c, 2, 52, 100
1, 20040, Note_on_c, 3, 40, 100
1, 20040, Note_on_c, 4, 78, 100
1, 20040, Note_on_c, 12, 78, 100
1, 20100, Note_on_c, 12, 78, 0
1, 20100, Note_on_c, 2, 52, 0
1, 20100, Note_on_c, 4, 78, 0
1, 20100, Note_on_c, 2, 59, 0
1, 20100, Note_on_c, 2, 71, 0
1, 20100, Note_on_c, 2, 68, 0
1, 20100, Note_on_c, 3, 40, 0
1, 20100, Note_on_c, 2, 64, 0
1, 20100, Note_on_c, 2, 71, 100
1, 20100, Note_on_c, 2, 68, 100
1, 20100, Note_on_c, 2, 64, 100
1, 20100, Note_on_c, 2, 59, 100
1, 20100, Note_on_c, 2, 52, 100
1, 20100, Note_on_c, 3, 42, 100
1, 20100, Note_on_c, 4, 78, 100
1, 20100, Note_on_c, 12, 78, 100
1, 20160, Note_on_c, 3, 42, 0
1, 20160, Note_on_c, 2, 52, 0
1, 20160, Note_on_c, 2, 59, 0
1, 20160, Note_on_c, 2, 71, 0
1, 20160, Note_on_c, 2, 64, 0
1, 20160, Note_on_c, 2, 68, 0
1, 20160, Note_on_c, 2, 67, 100
1, 20160, Note_on_c, 2, 55, 100
1, 20160, Note_on_c, 2, 43, 100
1, 20160, Note_on_c, 2, 50, 100
1, 20160, Note_on_c, 2, 59, 100
1, 20160, Note_on_c, 2, 62, 100
1, 20160, Note_on_c, 3, 43, 100
1, 20160, Note_on_c, 9, 36, 100
1, 20160, Note_on_c, 9, 42, 100
1, 20165, Note_on_c, 1, 52, 0
1, 20165, Note_on_c, 1, 59, 0
1, 20165, Note_on_c, 1, 64, 0
1, 20165, Note_on_c, 1, 55, 75
1, 20175, Note_on_c, 9, 36, 0
1, 20175, Note_on_c, 9, 42, 0
1, 20220, Note_on_c, 12, 78, 0
1, 20220, Note_on_c, 4, 78, 0
1, 20220, Note_on_c, 4, 76, 100
1, 20220, Note_on_c, 12, 76, 100
1, 20225, Note_on_c, 1, 55, 0
1, 20225, Note_on_c, 1, 55, 75
1, 20280, Note_on_c, 2, 62, 0
1, 20280, Note_on_c, 12, 76, 0
1, 20280, Note_on_c, 2, 55, 0
1, 20280, Note_on_c, 2, 59, 0
1, 20280, Note_on_c, 2, 67, 0
1, 20280, Note_on_c, 3, 43, 0
1, 20280, Note_on_c, 4, 76, 0
1, 20280, Note_on_c, 2, 43, 0
1, 20280, Note_on_c, 2, 50, 0
1, 20280, Note_on_c, 3, 31, 100
1, 20280, Note_on_c, 4, 74, 100
1, 20280, Note_on_c, 9, 42, 100
1, 20280, Note_on_c, 12, 74, 100
1, 20285, Note_on_c, 1, 55, 0
1, 20285, Note_on_c, 1, 55, 75
1, 20295, Note_on_c, 9, 42, 0
1, 20340, Note_on_c, 3, 31, 0
1, 20340, Note_on_c, 2, 67, 100
1, 20340, Note_on_c, 2, 43, 100
1, 20340, Note_on_c, 2, 55, 100
1, 20340, Note_on_c, 2, 59, 100
1, 20340, Note_on_c, 2, 62, 100
1, 20340, Note_on_c, 2, 50, 100
1, 20340, Note_on_c, 3, 38, 100
1, 20340, Note_on_c, 9, 42, 100
1, 20340, Note_on_c, 9, 36, 100
1, 20345, Note_on_c, 1, 55, 0
1, 20345, Note_on_c, 1, 55, 75
1, 20355, Note_on_c, 9, 42, 0
1, 20355, Note_on_c, 9, 36, 0
1, 20400, Note_on_c, 2, 50, 0
1, 20400, Note_on_c, 2, 67, 0
1, 20400, Note_on_c, 2, 43, 0
1, 20400, Note_on_c, 12, 74, 0
1, 20400, Note_on_c, 2, 55, 0
1, 20400, Note_on_c, 4, 74, 0
1, 20400, Note_on_c, 3, 38, 0
1, 20400, Note_on_c, 2, 62, 0
1, 20400, Note_on_c, 2, 59, 0
1, 20400, Note_on_c, 2, 55, 100
1, 20400, Note_on_c, 2, 43, 100
1, 20400, Note_on_c, 2, 59, 100
1, 20400, Note_on_c, 2, 67, 100
1, 20400, Note_on_c, 2, 50, 100
1, 20400, Note_on_c, 2, 62, 100
1, 20400, Note_on_c, 3, 43, 100
1, 20400, Note_on_c, 9, 42, 100
1, 20400, Note_on_c, 9, 38, 100
1, 20405, Note_on_c, 1, 55, 0
1, 20405, Note_on_c, 1, 55, 75
1, 20415, Note_on_c, 9, 38, 0
1, 20415, Note_on_c, 9, 42, 0
1, 20520, Note_on_c, 2, 67, 0
1, 20520, Note_on_c, 3, 43, 0
1, 20520, Note_on_c, 2, 50, 0
1, 20520, Note_on_c, 2, 43, 0
1, 20520, Note_on_c, 2, 59, 0
1, 20520, Note_on_c, 2, 55, 0
1, 20520, Note_on_c, 2, 62, 0
1, 20520, Note_on_c, 3, 38, 100
1, 20520, Note_on_c, 9, 42, 100
1, 20535, Note_on_c, 9, 42, 0
1, 20580, Note_on_c, 3, 38, 0
1, 20580, Note_on_c, 2, 43, 100
1, 20580, Note_on_c, 2, 59, 100
1, 20580, Note_on_c, 2, 50, 100
1, 20580, Note_on_c, 2, 55, 100
1, 20580, Note_on_c, 2, 67, 100
1, 20580, Note_on_c, 2, 62, 100
1, 20580, Note_on_c, 3, 42, 100
1, 20640, Note_on_c, 3, 42, 0
1, 20640, Note_on_c, 2, 62, 0
1, 20640, Note_on_c, 2, 55, 0
1, 20640, Note_on_c, 2, 43, 0
1, 20640, Note_on_c, 2, 59, 0
1, 20640, Note_on_c, 2, 50, 0
1, 20640, Note_on_c, 2, 67, 0
1, 20640, Note_on_c, 2, 67, 100
1, 20640, Note_on_c, 2, 55, 100
1, 20640, Note_on_c, 2, 43, 100
1, 20640, Note_on_c, 2, 50, 100
1, 20640, Note_on_c, 2, 59, 100
1, 20640, Note_on_c, 2, 62, 100
1, 20640, Note_on_c, 3, 43, 100
1, 20640, Note_on_c, 4, 71, 100
1, 20640, Note_on_c, 9, 42, 100
1, 20640, Note_on_c, 9, 36, 100
1, 20640, Note_on_c, 12, 71, 100
1, 20645, Note_on_c, 1, 55, 0
1, 20645, Note_on_c, 1, 55, 75
1, 20655, Note_on_c, 9, 36, 0
1, 20655, Note_on_c, 9, 42, 0
1, 20705, Note_on_c, 1, 55, 0
1, 20705, Note_on_c, 1, 55, 75
1, 20760, Note_on_c, 2, 43, 0
1, 20760, Note_on_c, 2, 62, 0
1, 20760, Note_on_c, 2, 50, 0
1, 20760, Note_on_c, 3, 43, 0
1, 20760, Note_on_c, 2, 59, 0
1, 20760, Note_on_c, 12, 71, 0
1, 20760, Note_on_c, 2, 55, 0
1, 20760, Note_on_c, 2, 67, 0
1, 20760, Note_on_c, 4, 71, 0
1, 20760, Note_on_c, 3, 43, 100
1, 20760, Note_on_c, 4, 73, 100
1, 20760, Note_on_c, 9, 42, 100
1, 20760, Note_on_c, 12, 73, 100
1, 20765, Note_on_c, 1, 55, 0
1, 20765, Note_on_c, 1, 55, 75
1, 20775, Note_on_c, 9, 42, 0
1, 20820, Note_on_c, 12, 73, 0
1, 20820, Note_on_c, 3, 43, 0
1, 20820, Note_on_c, 4, 73, 0
1, 20820, Note_on_c, 2, 67, 100
1, 20820, Note_on_c, 2, 43, 100
1, 20820, Note_on_c, 2, 55, 100
1, 20820, Note_on_c, 2, 59, 100
1, 20820, Note_on_c, 2, 62, 100
1, 20820, Note_on_c, 2, 50, 100
1, 20820, Note_on_c, 3, 43, 100
1, 20820, Note_on_c, 4, 74, 100
1, 20820, Note_on_c, 9, 42, 100
1, 20820, Note_on_c, 9, 36, 100
1, 20820, Note_on_c, 12, 74, 100
1, 20825, Note_on_c, 1, 55, 0
1, 20825, Note_on_c, 1, 55, 75
1, 20835, Note_on_c, 9, 36, 0
1, 20835, Note_on_c, 9, 42, 0
1, 20880, Note_on_c, 3, 43, 0
1, 20880, Note_on_c, 2, 59, 0
1, 20880, Note_on_c, 2, 67, 0
1, 20880, Note_on_c, 2, 55, 0
1, 20880, Note_on_c, 2, 62, 0
1, 20880, Note_on_c, 2, 43, 0
1, 20880, Note_on_c, 2, 50, 0
1, 20880, Note_on_c, 2, 55, 100
1, 20880, Note_on_c, 2, 43, 100
1, 20880, Note_on_c, 2, 59, 100
1, 20880, Note_on_c, 2, 67, 100
1, 20880, Note_on_c, 2, 50, 100
1, 20880, Note_on_c, 2, 62, 100
1, 20880, Note_on_c, 3, 43, 100
1, 20880, Note_on_c, 9, 46, 100
1, 20880, Note_on_c, 9, 38, 100
1, 20885, Note_on_c, 1, 55, 0
1, 20885, Note_on_c, 1, 55, 75
1, 20895, Note_on_c, 9, 46, 0
1, 20895, Note_on_c, 9, 38, 0
1, 20940, Note_on_c, 12, 74, 0
1, 20940, Note_on_c, 4, 74, 0
1, 20940, Note_on_c, 4, 79, 100
1, 20940, Note_on_c, 12, 79, 100
1, 20945, Note_on_c, 1, 55, 0
1, 20945, Note_on_c, 1, 55, 75
1, 21000, Note_on_c, 2, 59, 0
1, 21000, Note_on_c, 12, 79, 0
1, 21000, Note_on_c, 2, 62, 0
1, 21000, Note_on_c, 3, 43, 0
1, 21000, Note_on_c, 2, 67, 0
1, 21000, Note_on_c, 2, 43, 0
1, 21000, Note_on_c, 4, 79, 0
1, 21000, Note_on_c, 2, 55, 0
1, 21000, Note_on_c, 2, 50, 0
1, 21000, Note_on_c, 2, 62, 100
1, 21000, Note_on_c, 2, 43, 100
1, 21000, Note_on_c, 2, 59, 100
1, 21000, Note_on_c, 2, 50, 100
1, 21000, Note_on_c, 2, 55, 100
1, 21000, Note_on_c, 2, 67, 100
1, 21000, Note_on_c, 3, 45, 100
1, 21000, Note_on_c, 4, 78, 100
1, 21000, Note_on_c, 12, 78, 100
1, 21005, Note_on_c, 1, 55, 0
1, 21005, Note_on_c, 1, 55, 75
1, 21060, Note_on_c, 3, 45, 0
1, 21060, Note_on_c, 2, 50, 0
1, 21060, Note_on_c, 2, 62, 0
1, 21060, Note_on_c, 2, 59, 0
1, 21060, Note_on_c, 2, 55, 0
1, 21060, Note_on_c, 2, 43, 0
1, 21060, Note_on_c, 2, 67, 0
1, 21060, Note_on_c, 2, 59, 100
1, 21060, Note_on_c, 2, 50, 100
1, 21060, Note_on_c, 2, 55, 100
1, 21060, Note_on_c, 2, 67, 100
1, 21060, Note_on_c, 2, 62, 100
1, 21060, Note_on_c, 2, 43, 100
1, 21060, Note_on_c, 3, 40, 100
1, 21065, Note_on_c, 1, 55, 0
1, 21065, Note_on_c, 1, 55, 75
1, 21120, Note_on_c, 2, 59, 0
1, 21120, Note_on_c, 3, 40, 0
1, 21120, Note_on_c, 2, 50, 0
1, 21120, Note_on_c, 2, 62, 0
1, 21120, Note_on_c, 2, 55, 0
1, 21120, Note_on_c, 4, 78, 0
1, 21120, Note_on_c, 2, 43, 0
1, 21120, Note_on_c, 12, 78, 0
1, 21120, Note_on_c, 2, 67, 0
1, 21120, Note_on_c, 2, 69, 100
1, 21120, Note_on_c, 2, 66, 100
1, 21120, Note_on_c, 2, 62, 100
1, 21120, Note_on_c, 2, 57, 100
1, 21120, Note_on_c, 2, 50, 100
1, 21120, Note_on_c, 3, 38, 100
1, 21120, Note_on_c, 9, 42, 100
1, 21120, Note_on_c, 9, 36, 100
1, 21125, Note_on_c, 1, 55, 0
1, 21125, Note_on_c, 1, 57, 75
1, 21135, Note_on_c, 9, 36, 0
1, 21135, Note_on_c, 9, 42, 0
1, 21185, Note_on_c, 1, 57, 0
1, 21185, Note_on_c, 1, 57, 75
1, 21240, Note_on_c, 2, 50, 0
1, 21240, Note_on_c, 2, 69, 0
1, 21240, Note_on_c, 2, 66, 0
1, 21240, Note_on_c, 2, 62, 0
1, 21240, Note_on_c, 2, 57, 0
1, 21240, Note_on_c, 3, 38, 0
1, 21240, Note_on_c, 3, 38, 100
1, 21240, Note_on_c, 9, 42, 100
1, 21245, Note_on_c, 1, 57, 0
1, 21245, Note_on_c, 1, 57, 75
1, 21255, Note_on_c, 9, 42, 0
1, 21300, Note_on_c, 3, 38, 0
1, 21300, Note_on_c, 2, 69, 100
1, 21300, Note_on_c, 2, 66, 100
1, 21300, Note_on_c, 2, 62, 100
1, 21300, Note_on_c, 2, 57, 100
1, 21300, Note_on_c, 2, 50, 100
1, 21300, Note_on_c, 3, 33, 100
1, 21300, Note_on_c, 9, 36, 100
1, 21305, Note_on_c, 1, 57, 0
1, 21305, Note_on_c, 1, 57, 75
1, 21315, Note_on_c, 9, 36, 0
1, 21360, Note_on_c, 2, 69, 0
1, 21360, Note_on_c, 2, 50, 0
1, 21360, Note_on_c, 2, 66, 0
1, 21360, Note_on_c, 2, 62, 0
1, 21360, Note_on_c, 2, 57, 0
1, 21360, Note_on_c, 3, 33, 0
1, 21360, Note_on_c, 2, 69, 100
1, 21360, Note_on_c, 2, 66, 100
1, 21360, Note_on_c, 2, 62, 100
1, 21360, Note_on_c, 2, 57, 100
1, 21360, Note_on_c, 2, 50, 100
1, 21360, Note_on_c, 3, 38, 100
1, 21360, Note_on_c, 9, 42, 100
1, 21360, Note_on_c, 9, 38, 100
1, 21365, Note_on_c, 1, 57, 0
1, 21365, Note_on_c, 1, 57, 100
1, 21365, Note_on_c, 1, 50, 100
1, 21375, Note_on_c, 9, 38, 0
1, 21375, Note_on_c, 9, 42, 0
1, 21480, Note_on_c, 2, 57, 0
1, 21480, Note_on_c, 2, 69, 0
1, 21480, Note_on_c, 2, 50, 0
1, 21480, Note_on_c, 2, 66, 0
1, 21480, Note_on_c, 2, 62, 0
1, 21480, Note_on_c, 3, 38, 0
1, 21480, Note_on_c, 9, 42, 100
1, 21495, Note_on_c, 9, 42, 0
1, 21540, Note_on_c, 2, 66, 100
1, 21540, Note_on_c, 2, 62, 100
1, 21540, Note_on_c, 2, 57, 100
1, 21540, Note_on_c, 2, 50, 100
1, 21540, Note_on_c, 3, 33, 100
1, 21540, Note_on_c, 4, 78, 100
1, 21540, Note_on_c, 12, 78, 100
1, 21600, Note_on_c, 12, 78, 0
1, 21600, Note_on_c, 2, 62, 0
1, 21600, Note_on_c, 4, 78, 0
1, 21600, Note_on_c, 2, 57, 0
1, 21600, Note_on_c, 3, 33, 0
1, 21600, Note_on_c, 2, 66, 0
1, 21600, Note_on_c, 2, 50, 0
1, 21600, Note_on_c, 2, 69, 100
1, 21600, Note_on_c, 2, 66, 100
1, 21600, Note_on_c, 2, 62, 100
1, 21600, Note_on_c, 2, 57, 100
1, 21600, Note_on_c, 2, 50, 100
1, 21600, Note_on_c, 3, 38, 100
1, 21600, Note_on_c, 4, 79, 100
1, 21600, Note_on_c, 9, 42, 100
1, 21600, Note_on_c, 9, 36, 100
1, 21600, Note_on_c, 12, 79, 100
1, 21605, Note_on_c, 1, 50, 0
1, 21605, Note_on_c, 1, 57, 0
1, 21615, Note_on_c, 9, 36, 0
1, 21615, Note_on_c, 9, 42, 0
1, 21660, Note_on_c, 4, 79, 0
1, 21660, Note_on_c, 12, 79, 0
1, 21660, Note_on_c, 4, 79, 100
1, 21660, Note_on_c, 12, 79, 100
1, 21720, Note_on_c, 12, 79, 0
1, 21720, Note_on_c, 2, 62, 0
1, 21720, Note_on_c, 2, 50, 0
1, 21720, Note_on_c, 4, 79, 0
1, 21720, Note_on_c, 2, 69, 0
1, 21720, Note_on_c, 2, 66, 0
1, 21720, Note_on_c, 2, 57, 0
1, 21720, Note_on_c, 4, 78, 100
1, 21720, Note_on_c, 9, 42, 100
1, 21720, Note_on_c, 12, 78, 100
1, 21735, Note_on_c, 9, 42, 0
1, 21780, Note_on_c, 3, 38, 0
1, 21780, Note_on_c, 4, 78, 0
1, 21780, Note_on_c, 12, 78, 0
1, 21780, Note_on_c, 2, 69, 100
1, 21780, Note_on_c, 2, 66, 100
1, 21780, Note_on_c, 2, 62, 100
1, 21780, Note_on_c, 2, 57, 100
1, 21780, Note_on_c, 2, 50, 100
1, 21780, Note_on_c, 3, 38, 100
1, 21780, Note_on_c, 4, 78, 100
1, 21780, Note_on_c, 9, 36, 100
1, 21780, Note_on_c, 12, 78, 100
1, 21795, Note_on_c, 9, 36, 0
1, 21840, Note_on_c, 2, 57, 0
1, 21840, Note_on_c, 2, 69, 0
1, 21840, Note_on_c, 2, 50, 0
1, 21840, Note_on_c, 2, 66, 0
1, 21840, Note_on_c, 2, 62, 0
1, 21840, Note_on_c, 4, 78, 0
1, 21840, Note_on_c, 3, 38, 0
1, 21840, Note_on_c, 12, 78, 0
1, 21840, Note_on_c, 2, 69, 100
1, 21840, Note_on_c, 2, 66, 100
1, 21840, Note_on_c, 2, 62, 100
1, 21840, Note_on_c, 2, 57, 100
1, 21840, Note_on_c, 2, 50, 100
1, 21840, Note_on_c, 3, 38, 100
1, 21840, Note_on_c, 4, 78, 100
1, 21840, Note_on_c, 9, 46, 100
1, 21840, Note_on_c, 9, 38, 100
1, 21840, Note_on_c, 12, 78, 100
1, 21855, Note_on_c, 9, 38, 0
1, 21855, Note_on_c, 9, 46, 0
1, 21900, Note_on_c, 4, 78, 0
1, 21900, Note_on_c, 12, 78, 0
1, 21900, Note_on_c, 4, 76, 100
1, 21900, Note_on_c, 12, 76, 100
1, 21905, Note_on_c, 1, 57, 100
1, 21960, Note_on_c, 12, 76, 0
1, 21960, Note_on_c, 4, 76, 0
1, 21960, Note_on_c, 2, 69, 0
1, 21960, Note_on_c, 3, 38, 0
1, 21960, Note_on_c, 2, 66, 0
1, 21960, Note_on_c, 2, 57, 0
1, 21960, Note_on_c, 2, 62, 0
1, 21960, Note_on_c, 2, 50, 0
1, 21960, Note_on_c, 2, 50, 100
1, 21960, Note_on_c, 2, 66, 100
1, 21960, Note_on_c, 2, 62, 100
1, 21960, Note_on_c, 2, 57, 100
1, 21960, Note_on_c, 3, 43, 100
1, 21960, Note_on_c, 4, 74, 100
1, 21960, Note_on_c, 12, 74, 100
1, 21965, Note_on_c, 1, 57, 0
1, 21965, Note_on_c, 1, 62, 100
1, 21965, Note_on_c, 1, 57, 100
1, 22020, Note_on_c, 2, 50, 0
1, 22020, Note_on_c, 12, 74, 0
1, 22020, Note_on_c, 2, 57, 0
1, 22020, Note_on_c, 2, 66, 0
1, 22020, Note_on_c, 2, 62, 0
1, 22020, Note_on_c, 4, 74, 0
1, 22020, Note_on_c, 2, 62, 100
1, 22020, Note_on_c, 2, 57, 100
1, 22020, Note_on_c, 2, 50, 100
1, 22020, Note_on_c, 2, 66, 100
1, 22020, Note_on_c, 4, 78, 100
1, 22020, Note_on_c, 12, 78, 100
1, 22080, Note_on_c, 2, 66, 0
1, 22080, Note_on_c, 2, 62, 0
1, 22080, Note_on_c, 3, 43, 0
1, 22080, Note_on_c, 2, 57, 0
1, 22080, Note_on_c, 2, 50, 0
1, 22080, Note_on_c, 2, 42, 100
1, 22080, Note_on_c, 2, 49, 100
1, 22080, Note_on_c, 2, 54, 100
1, 22080, Note_on_c, 2, 58, 100
1, 22080, Note_on_c, 2, 61, 100
1, 22080, Note_on_c, 2, 66, 100
1, 22080, Note_on_c, 3, 42, 100
1, 22080, Note_on_c, 9, 42, 100
1, 22080, Note_on_c, 9, 36, 100
1, 22085, Note_on_c, 1, 57, 0
1, 22085, Note_on_c, 1, 62, 0
1, 22085, Note_on_c, 1, 54, 75
1, 22085, Note_on_c, 1, 49, 75
1, 22085, Note_on_c, 1, 42, 75
1, 22095, Note_on_c, 9, 42, 0
1, 22095, Note_on_c, 9, 36, 0
1, 22145, Note_on_c, 1, 49, 0
1, 22145, Note_on_c, 1, 54, 0
1, 22145, Note_on_c, 1, 42, 0
1, 22145, Note_on_c, 1, 54, 75
1, 22145, Note_on_c, 1, 49, 75
1, 22145, Note_on_c, 1, 42, 75
1, 22200, Note_on_c, 2, 66, 0
1, 22200, Note_on_c, 2, 58, 0
1, 22200, Note_on_c, 2, 42, 0
1, 22200, Note_on_c, 2, 61, 0
1, 22200, Note_on_c, 2, 54, 0
1, 22200, Note_on_c, 2, 49, 0
1, 22200, Note_on_c, 9, 42, 100
1, 22205, Note_on_c, 1, 54, 0
1, 22205, Note_on_c, 1, 49, 0
1, 22205, Note_on_c, 1, 42, 0
1, 22205, Note_on_c, 1, 54, 75
1, 22205, Note_on_c, 1, 49, 75
1, 22205, Note_on_c, 1, 42, 75
1, 22215, Note_on_c, 9, 42, 0
1, 22260, Note_on_c, 3, 42, 0
1, 22260, Note_on_c, 2, 54, 100
1, 22260, Note_on_c, 2, 58, 100
1, 22260, Note_on_c, 2, 42, 100
1, 22260, Note_on_c, 2, 61, 100
1, 22260, Note_on_c, 2, 49, 100
1, 22260, Note_on_c, 2, 66, 100
1, 22260, Note_on_c, 3, 42, 100
1, 22260, Note_on_c, 9, 36, 100
1, 22265, Note_on_c, 1, 49, 0
1, 22265, Note_on_c, 1, 54, 0
1, 22265, Note_on_c, 1, 42, 0
1, 22265, Note_on_c, 1, 54, 75
1, 22265, Note_on_c, 1, 49, 75
1, 22265, Note_on_c, 1, 42, 75
1, 22275, Note_on_c, 9, 36, 0
1, 22320, Note_on_c, 3, 42, 0
1, 22320, Note_on_c, 2, 61, 0
1, 22320, Note_on_c, 2, 42, 0
1, 22320, Note_on_c, 2, 66, 0
1, 22320, Note_on_c, 2, 49, 0
1, 22320, Note_on_c, 2, 54, 0
1, 22320, Note_on_c, 2, 58, 0
1, 22320, Note_on_c, 2, 61, 100
1, 22320, Note_on_c, 2, 42, 100
1, 22320, Note_on_c, 2, 58, 100
1, 22320, Note_on_c, 2, 66, 100
1, 22320, Note_on_c, 2, 54, 100
1, 22320, Note_on_c, 2, 49, 100
1, 22320, Note_on_c, 3, 42, 100
1, 22320, Note_on_c, 9, 42, 100
1, 22320, Note_on_c, 9, 38, 100
1, 22325, Note_on_c, 1, 49, 0
1, 22325, Note_on_c, 1, 42, 0
1, 22325, Note_on_c, 1, 54, 0
1, 22325, Note_on_c, 1, 54, 100
1, 22325, Note_on_c, 1, 49, 100
1, 22325, Note_on_c, 1, 42, 100
1, 22335, Note_on_c, 9, 38, 0
1, 22335, Note_on_c, 9, 42, 0
1, 22440, Note_on_c, 12, 78, 0
1, 22440, Note_on_c, 4, 78, 0
1, 22440, Note_on_c, 3, 42, 0
1, 22440, Note_on_c, 3, 37, 100
1, 22440, Note_on_c, 4, 76, 100
1, 22440, Note_on_c, 9, 42, 100
1, 22440, Note_on_c, 12, 76, 100
1, 22455, Note_on_c, 9, 42, 0
1, 22500, Note_on_c, 2, 49, 0
1, 22500, Note_on_c, 3, 37, 0
1, 22500, Note_on_c, 2, 58, 0
1, 22500, Note_on_c, 2, 42, 0
1, 22500, Note_on_c, 2, 66, 0
1, 22500, Note_on_c, 2, 54, 0
1, 22500, Note_on_c, 2, 61, 0
1, 22500, Note_on_c, 4, 76, 0
1, 22500, Note_on_c, 12, 76, 0
1, 22500, Note_on_c, 2, 49, 100
1, 22500, Note_on_c, 2, 61, 100
1, 22500, Note_on_c, 2, 54, 100
1, 22500, Note_on_c, 2, 58, 100
1, 22500, Note_on_c, 2, 42, 100
1, 22500, Note_on_c, 2, 66, 100
1, 22500, Note_on_c, 3, 40, 100
1, 22500, Note_on_c, 4, 76, 100
1, 22500, Note_on_c, 12, 76, 100
1, 22560, Note_on_c, 12, 76, 0
1, 22560, Note_on_c, 3, 40, 0
1, 22560, Note_on_c, 2, 42, 0
1, 22560, Note_on_c, 2, 58, 0
1, 22560, Note_on_c, 2, 49, 0
1, 22560, Note_on_c, 2, 66, 0
1, 22560, Note_on_c, 2, 61, 0
1, 22560, Note_on_c, 2, 54, 0
1, 22560, Note_on_c, 4, 76, 0
1, 22560, Note_on_c, 2, 42, 100
1, 22560, Note_on_c, 2, 49, 100
1, 22560, Note_on_c, 2, 54, 100
1, 22560, Note_on_c, 2, 58, 100
1, 22560, Note_on_c, 2, 61, 100
1, 22560, Note_on_c, 2, 66, 100
1, 22560, Note_on_c, 3, 42, 100
1, 22560, Note_on_c, 4, 76, 100
1, 22560, Note_on_c, 9, 42, 100
1, 22560, Note_on_c, 9, 36, 100
1, 22560, Note_on_c, 12, 76, 100
1, 22565, Note_on_c, 1, 42, 0
1, 22565, Note_on_c, 1, 49, 0
1, 22565, Note_on_c, 1, 54, 0
1, 22565, Note_on_c, 1, 54, 100
1, 22565, Note_on_c, 1, 49, 100
1, 22565, Note_on_c, 1, 42, 100
1, 22575, Note_on_c, 9, 42, 0
1, 22575, Note_on_c, 9, 36, 0
1, 22620, Note_on_c, 4, 76, 0
1, 22620, Note_on_c, 12, 76, 0
1, 22620, Note_on_c, 4, 76, 100
1, 22620, Note_on_c, 9, 38, 100
1, 22620, Note_on_c, 12, 76, 100
1, 22635, Note_on_c, 9, 38, 0
1, 22680, Note_on_c, 2, 54, 0
1, 22680, Note_on_c, 3, 42, 0
1, 22680, Note_on_c, 2, 58, 0
1, 22680, Note_on_c, 2, 49, 0
1, 22680, Note_on_c, 2, 42, 0
1, 22680, Note_on_c, 2, 61, 0
1, 22680, Note_on_c, 2, 66, 0
1, 22680, Note_on_c, 4, 76, 0
1, 22680, Note_on_c, 12, 76, 0
1, 22680, Note_on_c, 2, 66, 100
1, 22680, Note_on_c, 2, 58, 100
1, 22680, Note_on_c, 2, 42, 100
1, 22680, Note_on_c, 2, 61, 100
1, 22680, Note_on_c, 2, 54, 100
1, 22680, Note_on_c, 2, 49, 100
1, 22680, Note_on_c, 3, 42, 100
1, 22680, Note_on_c, 4, 76, 100
1, 22680, Note_on_c, 9, 42, 100
1, 22680, Note_on_c, 12, 76, 100
1, 22685, Note_on_c, 1, 54, 0
1, 22685, Note_on_c, 1, 42, 0
1, 22685, Note_on_c, 1, 49, 0
1, 22685, Note_on_c, 1, 54, 75
1, 22685, Note_on_c, 1, 49, 75
1, 22685, Note_on_c, 1, 42, 75
1, 22695, Note_on_c, 9, 42, 0
1, 22740, Note_on_c, 12, 76, 0
1, 22740, Note_on_c, 2, 49, 0
1, 22740, Note_on_c, 2, 66, 0
1, 22740, Note_on_c, 2, 58, 0
1, 22740, Note_on_c, 2, 54, 0
1, 22740, Note_on_c, 4, 76, 0
1, 22740, Note_on_c, 2, 61, 0
1, 22740, Note_on_c, 2, 42, 0
1, 22740, Note_on_c, 3, 42, 0
1, 22740, Note_on_c, 2, 58, 100
1, 22740, Note_on_c, 2, 61, 100
1, 22740, Note_on_c, 2, 42, 100
1, 22740, Note_on_c, 2, 54, 100
1, 22740, Note_on_c, 2, 49, 100
1, 22740, Note_on_c, 2, 66, 100
1, 22740, Note_on_c, 3, 42, 100
1, 22740, Note_on_c, 4, 74, 100
1, 22740, Note_on_c, 9, 36, 100
1, 22740, Note_on_c, 12, 74, 100
1, 22745, Note_on_c, 1, 54, 0
1, 22745, Note_on_c, 1, 42, 0
1, 22745, Note_on_c, 1, 49, 0
1, 22745, Note_on_c, 1, 54, 75
1, 22745, Note_on_c, 1, 49, 75
1, 22745, Note_on_c, 1, 42, 75
1, 22755, Note_on_c, 9, 36, 0
1, 22800, Note_on_c, 12, 74, 0
1, 22800, Note_on_c, 2, 66, 0
1, 22800, Note_on_c, 2, 58, 0
1, 22800, Note_on_c, 2, 61, 0
1, 22800, Note_on_c, 2, 49, 0
1, 22800, Note_on_c, 4, 74, 0
1, 22800, Note_on_c, 2, 54, 0
1, 22800, Note_on_c, 2, 42, 0
1, 22800, Note_on_c, 3, 42, 0
1, 22800, Note_on_c, 2, 42, 100
1, 22800, Note_on_c, 2, 49, 100
1, 22800, Note_on_c, 2, 54, 100
1, 22800, Note_on_c, 2, 58, 100
1, 22800, Note_on_c, 2, 61, 100
1, 22800, Note_on_c, 2, 66, 100
1, 22800, Note_on_c, 3, 42, 100
1, 22800, Note_on_c, 4, 78, 100
1, 22800, Note_on_c, 9, 46, 100
1, 22800, Note_on_c, 9, 38, 100
1, 22800, Note_on_c, 12, 78, 100
1, 22805, Note_on_c, 1, 54, 0
1, 22805, Note_on_c, 1, 42, 0
1, 22805, Note_on_c, 1, 49, 0
1, 22805, Note_on_c, 1, 49, 75
1, 22815, Note_on_c, 9, 46, 0
1, 22815, Note_on_c, 9, 38, 0
1, 22865, Note_on_c, 1, 49, 0
1, 22865, Note_on_c, 1, 54, 100
1, 22920, Note_on_c, 2, 49, 0
1, 22920, Note_on_c, 2, 66, 0
1, 22920, Note_on_c, 2, 42, 0
1, 22920, Note_on_c, 2, 61, 0
1, 22920, Note_on_c, 2, 58, 0
1, 22920, Note_on_c, 3, 42, 0
1, 22920, Note_on_c, 2, 54, 0
1, 22920, Note_on_c, 3, 37, 100
1, 22980, Note_on_c, 12, 78, 0
1, 22980, Note_on_c, 4, 78, 0
1, 22980, Note_on_c, 4, 76, 100
1, 22980, Note_on_c, 12, 76, 100
1, 23040, Note_on_c, 3, 37, 0
1, 23040, Note_on_c, 2, 66, 100
1, 23040, Note_on_c, 2, 62, 100
1, 23040, Note_on_c, 2, 59, 100
1, 23040, Note_on_c, 2, 54, 100
1, 23040, Note_on_c, 2, 47, 100
1, 23040, Note_on_c, 3, 35, 100
1, 23040, Note_on_c, 9, 42, 100
1, 23040, Note_on_c, 9, 36, 100
1, 23045, Note_on_c, 1, 54, 0
1, 23045, Note_on_c, 1, 47, 100
1, 23055, Note_on_c, 9, 36, 0
1, 23055, Note_on_c, 9, 42, 0
1, 23100, Note_on_c, 12, 76, 0
1, 23100, Note_on_c, 4, 76, 0
1, 23100, Note_on_c, 4, 76, 100
1, 23100, Note_on_c, 12, 76, 100
1, 23160, Note_on_c, 12, 76, 0
1, 23160, Note_on_c, 2, 66, 0
1, 23160, Note_on_c, 4, 76, 0
1, 23160, Note_on_c, 2, 54, 0
1, 23160, Note_on_c, 2, 47, 0
1, 23160, Note_on_c, 2, 62, 0
1, 23160, Note_on_c, 2, 59, 0
1, 23160, Note_on_c, 4, 76, 100
1, 23160, Note_on_c, 9, 42, 100
1, 23160, Note_on_c, 12, 76, 100
1, 23175, Note_on_c, 9, 42, 0
1, 23220, Note_on_c, 4, 76, 0
1, 23220, Note_on_c, 12, 76, 0
1, 23220, Note_on_c, 3, 35, 0
1, 23220, Note_on_c, 2, 66, 100
1, 23220, Note_on_c, 2, 62, 100
1, 23220, Note_on_c, 2, 59, 100
1, 23220, Note_on_c, 2, 54, 100
1, 23220, Note_on_c, 2, 47, 100
1, 23220, Note_on_c, 3, 30, 100
1, 23220, Note_on_c, 4, 74, 100
1, 23220, Note_on_c, 9, 36, 100
1, 23220, Note_on_c, 12, 74, 100
1, 23235, Note_on_c, 9, 36, 0
1, 23280, Note_on_c, 2, 62, 0
1, 23280, Note_on_c, 2, 59, 0
1, 23280, Note_on_c, 12, 74, 0
1, 23280, Note_on_c, 2, 54, 0
1, 23280, Note_on_c, 2, 66, 0
1, 23280, Note_on_c, 4, 74, 0
1, 23280, Note_on_c, 3, 30, 0
1, 23280, Note_on_c, 2, 47, 0
1, 23280, Note_on_c, 2, 66, 100
1, 23280, Note_on_c, 2, 62, 100
1, 23280, Note_on_c, 2, 59, 100
1, 23280, Note_on_c, 2, 54, 100
1, 23280, Note_on_c, 2, 47, 100
1, 23280, Note_on_c, 3, 35, 100
1, 23280, Note_on_c, 4, 71, 100
1, 23280, Note_on_c, 9, 42, 100
1, 23280, Note_on_c, 9, 38, 100
1, 23280, Note_on_c, 12, 71, 100
1, 23295, Note_on_c, 9, 38, 0
1, 23295, Note_on_c, 9, 42, 0
1, 23400, Note_on_c, 2, 62, 0
1, 23400, Note_on_c, 2, 59, 0
1, 23400, Note_on_c, 4, 71, 0
1, 23400, Note_on_c, 2, 54, 0
1, 23400, Note_on_c, 2, 66, 0
1, 23400, Note_on_c, 12, 71, 0
1, 23400, Note_on_c, 3, 35, 0
1, 23400, Note_on_c, 2, 47, 0
1, 23400, Note_on_c, 2, 66, 100
1, 23400, Note_on_c, 2, 62, 100
1, 23400, Note_on_c, 2, 59, 100
1, 23400, Note_on_c, 2, 54, 100
1, 23400, Note_on_c, 2, 47, 100
1, 23400, Note_on_c, 3, 35, 100
1, 23400, Note_on_c, 9, 42, 100
1, 23415, Note_on_c, 9, 42, 0
1, 23460, Note_on_c, 3, 35, 0
1, 23460, Note_on_c, 2, 54, 0
1, 23460, Note_on_c, 2, 66, 0
1, 23460, Note_on_c, 2, 62, 0
1, 23460, Note_on_c, 2, 59, 0
1, 23460, Note_on_c, 2, 47, 0
1, 23460, Note_on_c, 2, 66, 100
1, 23460, Note_on_c, 2, 62, 100
1, 23460, Note_on_c, 2, 59, 100
1, 23460, Note_on_c, 2, 54, 100
1, 23460, Note_on_c, 2, 47, 100
1, 23460, Note_on_c, 3, 34, 100
1, 23520, Note_on_c, 3, 34, 0
1, 23520, Note_on_c, 2, 54, 0
1, 23520, Note_on_c, 2, 66, 0
1, 23520, Note_on_c, 2, 62, 0
1, 23520, Note_on_c, 2, 59, 0
1, 23520, Note_on_c, 2, 47, 0
1, 23520, Note_on_c, 2, 66, 100
1, 23520, Note_on_c, 2, 62, 100
1, 23520, Note_on_c, 2, 54, 100
1, 23520, Note_on_c, 2, 47, 100
1, 23520, Note_on_c, 2, 57, 100
1, 23520, Note_on_c, 3, 33, 100
1, 23520, Note_on_c, 9, 42, 100
1, 23520, Note_on_c, 9, 36, 100
1, 23525, Note_on_c, 1, 47, 0
1, 23525, Note_on_c, 1, 45, 100
1, 23535, Note_on_c, 9, 36, 0
1, 23535, Note_on_c, 9, 42, 0
1, 23640, Note_on_c, 2, 47, 0
1, 23640, Note_on_c, 2, 66, 0
1, 23640, Note_on_c, 2, 62, 0
1, 23640, Note_on_c, 2, 54, 0
1, 23640, Note_on_c, 2, 57, 0
1, 23640, Note_on_c, 9, 42, 100
1, 23655, Note_on_c, 9, 42, 0
1, 23700, Note_on_c, 3, 33, 0
1, 23700, Note_on_c, 2, 66, 100
1, 23700, Note_on_c, 2, 54, 100
1, 23700, Note_on_c, 2, 47, 100
1, 23700, Note_on_c, 2, 62, 100
1, 23700, Note_on_c, 2, 57, 100
1, 23700, Note_on_c, 3, 33, 100
1, 23700, Note_on_c, 9, 36, 100
1, 23715, Note_on_c, 9, 36, 0
1, 23760, Note_on_c, 3, 33, 0
1, 23760, Note_on_c, 2, 62, 0
1, 23760, Note_on_c, 2, 66, 0
1, 23760, Note_on_c, 2, 54, 0
1, 23760, Note_on_c, 2, 47, 0
1, 23760, Note_on_c, 2, 57, 0
1, 23760, Note_on_c, 2, 54, 100
1, 23760, Note_on_c, 2, 47, 100
1, 23760, Note_on_c, 2, 62, 100
1, 23760, Note_on_c, 2, 57, 100
1, 23760, Note_on_c, 2, 66, 100
1, 23760, Note_on_c, 3, 33, 100
1, 23760, Note_on_c, 9, 46, 100
1, 23760, Note_on_c, 9, 38, 100
1, 23775, Note_on_c, 9, 38, 0
1, 23775, Note_on_c, 9, 46, 0
1, 23880, Note_on_c, 2, 62, 0
1, 23880, Note_on_c, 2, 57, 0
1, 23880, Note_on_c, 2, 54, 0
1, 23880, Note_on_c, 2, 47, 0
1, 23880, Note_on_c, 3, 33, 0
1, 23880, Note_on_c, 2, 66, 0
1, 23880, Note_on_c, 2, 66, 100
1, 23880, Note_on_c, 2, 62, 100
1, 23880, Note_on_c, 2, 57, 100
1, 23880, Note_on_c, 2, 47, 100
1, 23880, Note_on_c, 2, 54, 100
1, 23880, Note_on_c, 3, 38, 100
1, 23940, Note_on_c, 3, 38, 0
1, 23940, Note_on_c, 2, 47, 0
1, 23940, Note_on_c, 2, 66, 0
1, 23940, Note_on_c, 2, 62, 0
1, 23940, Note_on_c, 2, 57, 0
1, 23940, Note_on_c, 2, 54, 0
1, 23940, Note_on_c, 2, 47, 100
1, 23940, Note_on_c, 2, 54, 100
1, 23940, Note_on_c, 2, 66, 100
1, 23940, Note_on_c, 2, 62, 100
1, 23940, Note_on_c, 2, 57, 100
1, 23940, Note_on_c, 3, 39, 100
1, 24000, Note_on_c, 3, 39, 0
1, 24000, Note_on_c, 2, 62, 0
1, 24000, Note_on_c, 2, 47, 0
1, 24000, Note_on_c, 2, 54, 0
1, 24000, Note_on_c, 2, 66, 0
1, 24000, Note_on_c, 2, 57, 0
1, 24000, Note_on_c, 2, 71, 100
1, 24000, Note_on_c, 2, 68, 100
1, 24000, Note_on_c, 2, 64, 100
1, 24000, Note_on_c, 2, 59, 100
1, 24000, Note_on_c, 2, 52, 100
1, 24000, Note_on_c, 3, 40, 100
1, 24000, Note_on_c, 9, 42, 100
1, 24000, Note_on_c, 9, 36, 100
1, 24005, Note_on_c, 1, 45, 0
1, 24005, Note_on_c, 1, 40, 100
1, 24015, Note_on_c, 9, 36, 0
1, 24015, Note_on_c, 9, 42, 0
1, 24120, Note_on_c, 2, 59, 0
1, 24120, Note_on_c, 2, 71, 0
1, 24120, Note_on_c, 2, 68, 0
1, 24120, Note_on_c, 2, 64, 0
1, 24120, Note_on_c, 2, 52, 0
1, 24120, Note_on_c, 9, 42, 100
1, 24135, Note_on_c, 9, 42, 0
1, 24180, Note_on_c, 3, 40, 0
1, 24180, Note_on_c, 2, 71, 100
1, 24180, Note_on_c, 2, 68, 100
1, 24180, Note_on_c, 2, 64, 100
1, 24180, Note_on_c, 2, 59, 100
1, 24180, Note_on_c, 2, 52, 100
1, 24180, Note_on_c, 3, 35, 100
1, 24180, Note_on_c, 9, 36, 100
1, 24195, Note_on_c, 9, 36, 0
1, 24240, Note_on_c, 3, 35, 0
1, 24240, Note_on_c, 2, 59, 0
1, 24240, Note_on_c, 2, 71, 0
1, 24240, Note_on_c, 2, 68, 0
1, 24240, Note_on_c, 2, 64, 0
1, 24240, Note_on_c, 2, 52, 0
1, 24240, Note_on_c, 2, 71, 100
1, 24240, Note_on_c, 2, 68, 100
1, 24240, Note_on_c, 2, 64, 100
1, 24240, Note_on_c, 2, 59, 100
1, 24240, Note_on_c, 2, 52, 100
1, 24240, Note_on_c, 3, 40, 100
1, 24240, Note_on_c, 9, 42, 100
1, 24240, Note_on_c, 9, 38, 100
1, 24255, Note_on_c, 9, 38, 0
1, 24255, Note_on_c, 9, 42, 0
1, 24360, Note_on_c, 2, 64, 0
1, 24360, Note_on_c, 2, 59, 0
1, 24360, Note_on_c, 2, 71, 0
1, 24360, Note_on_c, 2, 68, 0
1, 24360, Note_on_c, 3, 40, 0
1, 24360, Note_on_c, 2, 52, 0
1, 24360, Note_on_c, 3, 35, 100
1, 24360, Note_on_c, 9, 42, 100
1, 24375, Note_on_c, 9, 42, 0
1, 24420, Note_on_c, 3, 35, 0
1, 24420, Note_on_c, 2, 71, 100
1, 24420, Note_on_c, 2, 68, 100
1, 24420, Note_on_c, 2, 64, 100
1, 24420, Note_on_c, 2, 59, 100
1, 24420, Note_on_c, 2, 52, 100
1, 24420, Note_on_c, 3, 39, 100
1, 24420, Note_on_c, 9, 38, 100
1, 24435, Note_on_c, 9, 38, 0
1, 24440, Note_on_c, 9, 38, 100
1, 24455, Note_on_c, 9, 38, 0
1, 24460, Note_on_c, 9, 38, 100
1, 24475, Note_on_c, 9, 38, 0
1, 24480, Note_on_c, 3, 39, 0
1, 24480, Note_on_c, 2, 59, 0
1, 24480, Note_on_c, 2, 71, 0
1, 24480, Note_on_c, 2, 68, 0
1, 24480, Note_on_c, 2, 64, 0
1, 24480, Note_on_c, 2, 52, 0
1, 24480, Note_on_c, 2, 71, 100
1, 24480, Note_on_c, 2, 68, 100
1, 24480, Note_on_c, 2, 64, 100
1, 24480, Note_on_c, 2, 59, 100
1, 24480, Note_on_c, 2, 52, 100
1, 24480, Note_on_c, 3, 40, 100
1, 24480, Note_on_c, 9, 38, 100
1, 24495, Note_on_c, 9, 38, 0
1, 24540, Note_on_c, 3, 40, 0
1, 24540, Note_on_c, 2, 59, 0
1, 24540, Note_on_c, 2, 71, 0
1, 24540, Note_on_c, 2, 68, 0
1, 24540, Note_on_c, 2, 64, 0
1, 24540, Note_on_c, 2, 52, 0
1, 24540, Note_on_c, 2, 71, 100
1, 24540, Note_on_c, 2, 68, 100
1, 24540, Note_on_c, 2, 64, 100
1, 24540, Note_on_c, 2, 59, 100
1, 24540, Note_on_c, 2, 52, 100
1, 24540, Note_on_c, 3, 40, 100
1, 24540, Note_on_c, 9, 36, 100
1, 24555, Note_on_c, 9, 36, 0
1, 24600, Note_on_c, 3, 40, 0
1, 24600, Note_on_c, 2, 59, 0
1, 24600, Note_on_c, 2, 71, 0
1, 24600, Note_on_c, 2, 68, 0
1, 24600, Note_on_c, 2, 64, 0
1, 24600, Note_on_c, 2, 52, 0
1, 24600, Note_on_c, 2, 71, 100
1, 24600, Note_on_c, 2, 68, 100
1, 24600, Note_on_c, 2, 64, 100
1, 24600, Note_on_c, 2, 59, 100
1, 24600, Note_on_c, 2, 52, 100
1, 24600, Note_on_c, 3, 40, 100
1, 24660, Note_on_c, 2, 52, 0
1, 24660, Note_on_c, 2, 64, 0
1, 24660, Note_on_c, 2, 71, 0
1, 24660, Note_on_c, 2, 68, 0
1, 24660, Note_on_c, 2, 59, 0
1, 24660, Note_on_c, 2, 71, 100
1, 24660, Note_on_c, 2, 68, 100
1, 24660, Note_on_c, 2, 64, 100
1, 24660, Note_on_c, 2, 59, 100
1, 24660, Note_on_c, 2, 52, 100
1, 24660, Note_on_c, 9, 36, 100
1, 24675, Note_on_c, 9, 36, 0
1, 24720, Note_on_c, 2, 52, 0
1, 24720, Note_on_c, 2, 64, 0
1, 24720, Note_on_c, 3, 40, 0
1, 24720, Note_on_c, 2, 71, 0
1, 24720, Note_on_c, 2, 68, 0
1, 24720, Note_on_c, 2, 59, 0
1, 24720, Note_on_c, 2, 59, 100
1, 24720, Note_on_c, 2, 52, 100
1, 24720, Note_on_c, 2, 68, 100
1, 24720, Note_on_c, 2, 64, 100
1, 24720, Note_on_c, 2, 71, 100
1, 24720, Note_on_c, 3, 40, 100
1, 24720, Note_on_c, 9, 46, 100
1, 24720, Note_on_c, 9, 38, 100
1, 24735, Note_on_c, 9, 38, 0
1, 24735, Note_on_c, 9, 46, 0
1, 24840, Note_on_c, 2, 68, 0
1, 24840, Note_on_c, 2, 64, 0
1, 24840, Note_on_c, 2, 59, 0
1, 24840, Note_on_c, 2, 52, 0
1, 24840, Note_on_c, 3, 40, 0
1, 24840, Note_on_c, 2, 71, 0
1, 24840, Note_on_c, 2, 64, 100
1, 24840, Note_on_c, 2, 59, 100
1, 24840, Note_on_c, 2, 71, 100
1, 24840, Note_on_c, 2, 68, 100
1, 24840, Note_on_c, 2, 52, 100
1, 24840, Note_on_c, 3, 45, 100
1, 24845, Note_on_c, 1, 40, 0
1, 24900, Note_on_c, 2, 52, 0
1, 24900, Note_on_c, 2, 59, 0
1, 24900, Note_on_c, 2, 71, 0
1, 24900, Note_on_c, 2, 64, 0
1, 24900, Note_on_c, 3, 45, 0
1, 24900, Note_on_c, 2, 68, 0
1, 24900, Note_on_c, 2, 52, 100
1, 24900, Note_on_c, 2, 71, 100
1, 24900, Note_on_c, 2, 68, 100
1, 24900, Note_on_c, 2, 64, 100
1, 24900, Note_on_c, 2, 59, 100
1, 24900, Note_on_c, 3, 46, 100
1, 24905, Note_on_c, 1, 40, 100
1, 24960, Marker_t, "chorus 2"
1, 24960, Note_on_c, 3, 46, 0
1, 24960, Note_on_c, 2, 64, 0
1, 24960, Note_on_c, 2, 71, 0
1, 24960, Note_on_c, 2, 68, 0
1, 24960, Note_on_c, 2, 52, 0
1, 24960, Note_on_c, 2, 59, 0
1, 24960, Note_on_c, 2, 71, 100
1, 24960, Note_on_c, 2, 67, 100
1, 24960, Note_on_c, 2, 62, 100
1, 24960, Note_on_c, 2, 59, 100
1, 24960, Note_on_c, 2, 52, 100
1, 24960, Note_on_c, 3, 47, 100
1, 24960, Note_on_c, 5, 59, 100
1, 24960, Note_on_c, 5, 71, 100
1, 24960, Note_on_c, 6, 71, 100
1, 24960, Note_on_c, 6, 67, 100
1, 24960, Note_on_c, 6, 62, 100
1, 24960, Note_on_c, 6, 55, 100
1, 24960, Note_on_c, 6, 43, 100
1, 24960, Note_on_c, 9, 42, 100
1, 24960, Note_on_c, 9, 36, 100
1, 24965, Note_on_c, 1, 40, 0
1, 24965, Note_on_c, 1, 43, 100
1, 24975, Note_on_c, 9, 36, 0
1, 24975, Note_on_c, 9, 42, 0
1, 25080, Note_on_c, 2, 52, 0
1, 25080, Note_on_c, 2, 71, 0
1, 25080, Note_on_c, 5, 71, 0
1, 25080, Note_on_c, 5, 59, 0
1, 25080, Note_on_c, 2, 59, 0
1, 25080, Note_on_c, 2, 62, 0
1, 25080, Note_on_c, 2, 67, 0
1, 25080, Note_on_c, 3, 47, 0
1, 25080, Note_on_c, 2, 71, 100
1, 25080, Note_on_c, 2, 67, 100
1, 25080, Note_on_c, 2, 62, 100
1, 25080, Note_on_c, 2, 59, 100
1, 25080, Note_on_c, 2, 52, 100
1, 25080, Note_on_c, 3, 45, 100
1, 25080, Note_on_c, 5, 57, 100
1, 25080, Note_on_c, 5, 69, 100
1, 25080, Note_on_c, 9, 42, 100
1, 25095, Note_on_c, 9, 42, 0
1, 25140, Note_on_c, 2, 59, 0
1, 25140, Note_on_c, 2, 71, 0
1, 25140, Note_on_c, 2, 62, 0
1, 25140, Note_on_c, 2, 67, 0
1, 25140, Note_on_c, 2, 52, 0
1, 25140, Note_on_c, 2, 71, 100
1, 25140, Note_on_c, 2, 67, 100
1, 25140, Note_on_c, 2, 62, 100
1, 25140, Note_on_c, 2, 59, 100
1, 25140, Note_on_c, 2, 52, 100
1, 25140, Note_on_c, 9, 36, 100
1, 25155, Note_on_c, 9, 36, 0
1, 25200, Note_on_c, 2, 62, 0
1, 25200, Note_on_c, 5, 69, 0
1, 25200, Note_on_c, 6, 62, 0
1, 25200, Note_on_c, 3, 45, 0
1, 25200, Note_on_c, 6, 67, 0
1, 25200, Note_on_c, 6, 71, 0
1, 25200, Note_on_c, 2, 71, 0
1, 25200, Note_on_c, 5, 57, 0
1, 25200, Note_on_c, 2, 59, 0
1, 25200, Note_on_c, 2, 67, 0
1, 25200, Note_on_c, 2, 52, 0
1, 25200, Note_on_c, 2, 71, 100
1, 25200, Note_on_c, 2, 67, 100
1, 25200, Note_on_c, 2, 62, 100
1, 25200, Note_on_c, 2, 59, 100
1, 25200, Note_on_c, 2, 52, 100
1, 25200, Note_on_c, 3, 43, 100
1, 25200, Note_on_c, 5, 55, 100
1, 25200, Note_on_c, 5, 67, 100
1, 25200, Note_on_c, 6, 62, 100
1, 25200, Note_on_c, 9, 42, 100
1, 25200, Note_on_c, 9, 38, 100
1, 25200, Note_on_c, 12, 79, 100
1, 25215, Note_on_c, 9, 38, 0
1, 25215, Note_on_c, 9, 42, 0
1, 25260, Note_on_c, 12, 79, 0
1, 25260, Note_on_c, 4, 79, 100
1, 25260, Note_on_c, 12, 79, 100
1, 25320, Note_on_c, 4, 79, 0
1, 25320, Note_on_c, 5, 55, 0
1, 25320, Note_on_c, 5, 67, 0
1, 25320, Note_on_c, 2, 59, 0
1, 25320, Note_on_c, 2, 52, 0
1, 25320, Note_on_c, 2, 71, 0
1, 25320, Note_on_c, 3, 43, 0
1, 25320, Note_on_c, 2, 62, 0
1, 25320, Note_on_c, 6, 62, 0
1, 25320, Note_on_c, 2, 67, 0
1, 25320, Note_on_c, 2, 71, 100
1, 25320, Note_on_c, 2, 67, 100
1, 25320, Note_on_c, 2, 62, 100
1, 25320, Note_on_c, 2, 59, 100
1, 25320, Note_on_c, 2, 52, 100
1, 25320, Note_on_c, 3, 38, 100
1, 25320, Note_on_c, 4, 79, 100
1, 25320, Note_on_c, 5, 50, 100
1, 25320, Note_on_c, 5, 62, 100
1, 25320, Note_on_c, 6, 71, 100
1, 25320, Note_on_c, 6, 67, 100
1, 25320, Note_on_c, 6, 62, 100
1, 25320, Note_on_c, 9, 42, 100
1, 25335, Note_on_c, 9, 42, 0
1, 25380, Note_on_c, 2, 52, 0
1, 25380, Note_on_c, 2, 59, 0
1, 25380, Note_on_c, 2, 62, 0
1, 25380, Note_on_c, 12, 79, 0
1, 25380, Note_on_c, 2, 67, 0
1, 25380, Note_on_c, 2, 71, 0
1, 25380, Note_on_c, 2, 71, 100
1, 25380, Note_on_c, 2, 67, 100
1, 25380, Note_on_c, 2, 62, 100
1, 25380, Note_on_c, 2, 59, 100
1, 25380, Note_on_c, 2, 52, 100
1, 25380, Note_on_c, 12, 79, 100
1, 25440, Note_on_c, 12, 79, 0
1, 25440, Note_on_c, 6, 62, 0
1, 25440, Note_on_c, 2, 67, 0
1, 25440, Note_on_c, 5, 50, 0
1, 25440, Note_on_c, 5, 62, 0
1, 25440, Note_on_c, 2, 52, 0
1, 25440, Note_on_c, 4, 79, 0
1, 25440, Note_on_c, 6, 55, 0
1, 25440, Note_on_c, 6, 43, 0
1, 25440, Note_on_c, 3, 38, 0
1, 25440, Note_on_c, 2, 62, 0
1, 25440, Note_on_c, 2, 71, 0
1, 25440, Note_on_c, 6, 71, 0
1, 25440, Note_on_c, 6, 67, 0
1, 25440, Note_on_c, 2, 59, 0
1, 25440, Note_on_c, 2, 47, 100
1, 25440, Note_on_c, 2, 57, 100
1, 25440, Note_on_c, 2, 54, 100
1, 25440, Note_on_c, 2, 66, 100
1, 25440, Note_on_c, 2, 62, 100
1, 25440, Note_on_c, 2, 71, 100
1, 25440, Note_on_c, 3, 42, 100
1, 25440, Note_on_c, 4, 79, 100
1, 25440, Note_on_c, 5, 54, 100
1, 25440, Note_on_c, 5, 66, 100
1, 25440, Note_on_c, 6, 69, 100
1, 25440, Note_on_c, 6, 66, 100
1, 25440, Note_on_c, 6, 62, 100
1, 25440, Note_on_c, 6, 47, 100
1, 25440, Note_on_c, 6, 35, 100
1, 25440, Note_on_c, 9, 42, 100
1, 25440, Note_on_c, 9, 36, 100
1, 25440, Note_on_c, 12, 78, 100
1, 25445, Note_on_c, 1, 43, 0
1, 25445, Note_on_c, 1, 43, 100
1, 25455, Note_on_c, 9, 36, 0
1, 25455, Note_on_c, 9, 42, 0
1, 25500, Note_on_c, 4, 79, 0
1, 25500, Note_on_c, 4, 78, 100
1, 25560, Note_on_c, 2, 66, 0
1, 25560, Note_on_c, 3, 42, 0
1, 25560, Note_on_c, 2, 47, 0
1, 25560, Note_on_c, 12, 78, 0
1, 25560, Note_on_c, 5, 66, 0
1, 25560, Note_on_c, 2, 54, 0
1, 25560, Note_on_c, 5, 54, 0
1, 25560, Note_on_c, 2, 71, 0
1, 25560, Note_on_c, 2, 57, 0
1, 25560, Note_on_c, 2, 62, 0
1, 25560, Note_on_c, 2, 66, 100
1, 25560, Note_on_c, 2, 57, 100
1, 25560, Note_on_c, 2, 62, 100
1, 25560, Note_on_c, 2, 54, 100
1, 25560, Note_on_c, 2, 71, 100
1, 25560, Note_on_c, 2, 47, 100
1, 25560, Note_on_c, 3, 38, 100
1, 25560, Note_on_c, 5, 50, 100
1, 25560, Note_on_c, 5, 62, 100
1, 25560, Note_on_c, 9, 42, 100
1, 25560, Note_on_c, 12, 76, 100
1, 25565, Note_on_c, 1, 59, 100
1, 25575, Note_on_c, 9, 42, 0
1, 25620, Note_on_c, 12, 76, 0
1, 25620, Note_on_c, 2, 47, 0
1, 25620, Note_on_c, 4, 78, 0
1, 25620, Note_on_c, 2, 62, 0
1, 25620, Note_on_c, 2, 57, 0
1, 25620, Note_on_c, 2, 66, 0
1, 25620, Note_on_c, 2, 71, 0
1, 25620, Note_on_c, 2, 54, 0
1, 25620, Note_on_c, 2, 47, 100
1, 25620, Note_on_c, 2, 57, 100
1, 25620, Note_on_c, 2, 54, 100
1, 25620, Note_on_c, 2, 62, 100
1, 25620, Note_on_c, 2, 66, 100
1, 25620, Note_on_c, 2, 71, 100
1, 25620, Note_on_c, 4, 76, 100
1, 25620, Note_on_c, 9, 36, 100
1, 25620, Note_on_c, 12, 74, 100
1, 25635, Note_on_c, 9, 36, 0
1, 25680, Note_on_c, 2, 66, 0
1, 25680, Note_on_c, 12, 74, 0
1, 25680, Note_on_c, 4, 76, 0
1, 25680, Note_on_c, 5, 62, 0
1, 25680, Note_on_c, 2, 57, 0
1, 25680, Note_on_c, 2, 71, 0
1, 25680, Note_on_c, 5, 50, 0
1, 25680, Note_on_c, 6, 47, 0
1, 25680, Note_on_c, 3, 38, 0
1, 25680, Note_on_c, 2, 62, 0
1, 25680, Note_on_c, 2, 47, 0
1, 25680, Note_on_c, 2, 54, 0
1, 25680, Note_on_c, 2, 57, 100
1, 25680, Note_on_c, 2, 66, 100
1, 25680, Note_on_c, 2, 54, 100
1, 25680, Note_on_c, 2, 62, 100
1, 25680, Note_on_c, 2, 47, 100
1, 25680, Note_on_c, 2, 71, 100
1, 25680, Note_on_c, 3, 35, 100
1, 25680, Note_on_c, 4, 74, 100
1, 25680, Note_on_c, 5, 47, 100
1, 25680, Note_on_c, 5, 59, 100
1, 25680, Note_on_c, 6, 47, 100
1, 25680, Note_on_c, 9, 46, 100
1, 25680, Note_on_c, 9, 38, 100
1, 25680, Note_on_c, 12, 76, 100
1, 25685, Note_on_c, 1, 59, 0
1, 25685, Note_on_c, 1, 62, 100
1, 25695, Note_on_c, 9, 38, 0
1, 25695, Note_on_c, 9, 46, 0
1, 25740, Note_on_c, 6, 69, 0
1, 25740, Note_on_c, 6, 62, 0
1, 25740, Note_on_c, 4, 74, 0
1, 25740, Note_on_c, 6, 66, 0
1, 25740, Note_on_c, 4, 76, 100
1, 25740, Note_on_c, 6, 69, 100
1, 25740, Note_on_c, 6, 66, 100
1, 25740, Note_on_c, 6, 62, 100
1, 25800, Note_on_c, 5, 47, 0
1, 25800, Note_on_c, 2, 66, 0
1, 25800, Note_on_c, 2, 54, 0
1, 25800, Note_on_c, 2, 62, 0
1, 25800, Note_on_c, 5, 59, 0
1, 25800, Note_on_c, 12, 76, 0
1, 25800, Note_on_c, 2, 47, 0
1, 25800, Note_on_c, 3, 35, 0
1, 25800, Note_on_c, 2, 71, 0
1, 25800, Note_on_c, 2, 57, 0
1, 25800, Note_on_c, 2, 71, 100
1, 25800, Note_on_c, 2, 62, 100
1, 25800, Note_on_c, 2, 66, 100
1, 25800, Note_on_c, 2, 52, 100
1, 25800, Note_on_c, 2, 59, 100
1, 25800, Note_on_c, 3, 38, 100
1, 25800, Note_on_c, 5, 50, 100
1, 25800, Note_on_c, 5, 62, 100
1, 25800, Note_on_c, 12, 76, 100
1, 25860, Note_on_c, 2, 59, 0
1, 25860, Note_on_c, 2, 62, 0
1, 25860, Note_on_c, 2, 71, 0
1, 25860, Note_on_c, 4, 76, 0
1, 25860, Note_on_c, 2, 52, 0
1, 25860, Note_on_c, 2, 66, 0
1, 25860, Note_on_c, 2, 66, 100
1, 25860, Note_on_c, 2, 71, 100
1, 25860, Note_on_c, 2, 52, 100
1, 25860, Note_on_c, 2, 62, 100
1, 25860, Note_on_c, 2, 59, 100
1, 25860, Note_on_c, 4, 76, 100
1, 25920, Note_on_c, 2, 59, 0
1, 25920, Note_on_c, 2, 62, 0
1, 25920, Note_on_c, 12, 76, 0
1, 25920, Note_on_c, 2, 66, 0
1, 25920, Note_on_c, 5, 50, 0
1, 25920, Note_on_c, 6, 47, 0
1, 25920, Note_on_c, 5, 62, 0
1, 25920, Note_on_c, 6, 62, 0
1, 25920, Note_on_c, 6, 35, 0
1, 25920, Note_on_c, 6, 69, 0
1, 25920, Note_on_c, 6, 66, 0
1, 25920, Note_on_c, 2, 71, 0
1, 25920, Note_on_c, 3, 38, 0
1, 25920, Note_on_c, 2, 52, 0
1, 25920, Note_on_c, 2, 52, 100
1, 25920, Note_on_c, 2, 71, 100
1, 25920, Note_on_c, 2, 59, 100
1, 25920, Note_on_c, 2, 68, 100
1, 25920, Note_on_c, 2, 64, 100
1, 25920, Note_on_c, 3, 40, 100
1, 25920, Note_on_c, 5, 52, 100
1, 25920, Note_on_c, 5, 64, 100
1, 25920, Note_on_c, 6, 68, 100
1, 25920, Note_on_c, 6, 64, 100
1, 25920, Note_on_c, 6, 59, 100
1, 25920, Note_on_c, 6, 52, 100
1, 25920, Note_on_c, 6, 40, 100
1, 25920, Note_on_c, 9, 42, 100
1, 25920, Note_on_c, 9, 36, 100
1, 25920, Note_on_c, 12, 76, 100
1, 25925, Note_on_c, 1, 62, 0
1, 25925, Note_on_c, 1, 43, 0
1, 25925, Note_on_c, 1, 40, 100
1, 25935, Note_on_c, 9, 36, 0
1, 25935, Note_on_c, 9, 42, 0
1, 25980, Note_on_c, 4, 76, 0
1, 25980, Note_on_c, 4, 76, 100
1, 26040, Note_on_c, 2, 64, 0
1, 26040, Note_on_c, 2, 52, 0
1, 26040, Note_on_c, 2, 71, 0
1, 26040, Note_on_c, 2, 59, 0
1, 26040, Note_on_c, 2, 68, 0
1, 26040, Note_on_c, 2, 59, 100
1, 26040, Note_on_c, 2, 52, 100
1, 26040, Note_on_c, 2, 68, 100
1, 26040, Note_on_c, 2, 71, 100
1, 26040, Note_on_c, 2, 64, 100
1, 26040, Note_on_c, 9, 42, 100
1, 26055, Note_on_c, 9, 42, 0
1, 26100, Note_on_c, 2, 64, 0
1, 26100, Note_on_c, 2, 71, 0
1, 26100, Note_on_c, 2, 59, 0
1, 26100, Note_on_c, 2, 68, 0
1, 26100, Note_on_c, 3, 40, 0
1, 26100, Note_on_c, 2, 52, 0
1, 26100, Note_on_c, 2, 71, 100
1, 26100, Note_on_c, 2, 68, 100
1, 26100, Note_on_c, 2, 52, 100
1, 26100, Note_on_c, 2, 59, 100
1, 26100, Note_on_c, 2, 64, 100
1, 26100, Note_on_c, 3, 40, 100
1, 26100, Note_on_c, 9, 36, 100
1, 26115, Note_on_c, 9, 36, 0
1, 26160, Note_on_c, 6, 52, 0
1, 26160, Note_on_c, 3, 40, 0
1, 26160, Note_on_c, 2, 68, 0
1, 26160, Note_on_c, 2, 64, 0
1, 26160, Note_on_c, 12, 76, 0
1, 26160, Note_on_c, 5, 64, 0
1, 26160, Note_on_c, 6, 40, 0
1, 26160, Note_on_c, 5, 52, 0
1, 26160, Note_on_c, 2, 59, 0
1, 26160, Note_on_c, 2, 71, 0
1, 26160, Note_on_c, 2, 52, 0
1, 26160, Note_on_c, 2, 52, 100
1, 26160, Note_on_c, 2, 71, 100
1, 26160, Note_on_c, 2, 59, 100
1, 26160, Note_on_c, 2, 68, 100
1, 26160, Note_on_c, 2, 64, 100
1, 26160, Note_on_c, 3, 40, 100
1, 26160, Note_on_c, 6, 52, 100
1, 26160, Note_on_c, 6, 40, 100
1, 26160, Note_on_c, 9, 42, 100
1, 26160, Note_on_c, 9, 38, 100
1, 26160, Note_on_c, 12, 78, 100
1, 26175, Note_on_c, 9, 38, 0
1, 26175, Note_on_c, 9, 42, 0
1, 26220, Note_on_c, 4, 76, 0
1, 26220, Note_on_c, 4, 78, 100
1, 26280, Note_on_c, 12, 78, 0
1, 26280, Note_on_c, 3, 40, 0
1, 26280, Note_on_c, 2, 59, 0
1, 26280, Note_on_c, 6, 59, 0
1, 26280, Note_on_c, 2, 68, 0
1, 26280, Note_on_c, 2, 64, 0
1, 26280, Note_on_c, 6, 64, 0
1, 26280, Note_on_c, 2, 71, 0
1, 26280, Note_on_c, 2, 52, 0
1, 26280, Note_on_c, 6, 68, 0
1, 26280, Note_on_c, 2, 59, 100
1, 26280, Note_on_c, 2, 52, 100
1, 26280, Note_on_c, 2, 68, 100
1, 26280, Note_on_c, 2, 71, 100
1, 26280, Note_on_c, 2, 64, 100
1, 26280, Note_on_c, 3, 35, 100
1, 26280, Note_on_c, 6, 68, 100
1, 26280, Note_on_c, 6, 64, 100
1, 26280, Note_on_c, 6, 59, 100
1, 26280, Note_on_c, 9, 42, 100
1, 26285, Note_on_c, 1, 40, 0
1, 26295, Note_on_c, 9, 42, 0
1, 26340, Note_on_c, 3, 35, 0
1, 26340, Note_on_c, 2, 71, 0
1, 26340, Note_on_c, 2, 59, 0
1, 26340, Note_on_c, 2, 64, 0
1, 26340, Note_on_c, 4, 78, 0
1, 26340, Note_on_c, 2, 52, 0
1, 26340, Note_on_c, 2, 68, 0
1, 26340, Note_on_c, 2, 71, 100
1, 26340, Note_on_c, 2, 68, 100
1, 26340, Note_on_c, 2, 52, 100
1, 26340, Note_on_c, 2, 59, 100
1, 26340, Note_on_c, 2, 64, 100
1, 26340, Note_on_c, 3, 38, 100
1, 26345, Note_on_c, 1, 64, 100
1, 26345, Note_on_c, 1, 59, 100
1, 26345, Note_on_c, 1, 52, 100
1, 26400, Note_on_c, 3, 38, 0
1, 26400, Note_on_c, 2, 64, 0
1, 26400, Note_on_c, 2, 68, 0
1, 26400, Note_on_c, 2, 59, 0
1, 26400, Note_on_c, 2, 52, 0
1, 26400, Note_on_c, 2, 71, 0
1, 26400, Note_on_c, 6, 40, 0
1, 26400, Note_on_c, 6, 52, 0
1, 26400, Note_on_c, 2, 52, 100
1, 26400, Note_on_c, 2, 71, 100
1, 26400, Note_on_c, 2, 59, 100
1, 26400, Note_on_c, 2, 68, 100
1, 26400, Note_on_c, 2, 64, 100
1, 26400, Note_on_c, 3, 40, 100
1, 26400, Note_on_c, 6, 52, 100
1, 26400, Note_on_c, 6, 40, 100
1, 26400, Note_on_c, 9, 42, 100
1, 26400, Note_on_c, 9, 36, 100
1, 26415, Note_on_c, 9, 36, 0
1, 26415, Note_on_c, 9, 42, 0
1, 26460, Note_on_c, 6, 64, 0
1, 26460, Note_on_c, 6, 68, 0
1, 26460, Note_on_c, 6, 59, 0
1, 26460, Note_on_c, 6, 69, 100
1, 26460, Note_on_c, 6, 64, 100
1, 26460, Note_on_c, 6, 59, 100
1, 26460, Note_on_c, 9, 38, 100
1, 26465, Note_on_c, 1, 59, 0
1, 26465, Note_on_c, 1, 64, 0
1, 26465, Note_on_c, 1, 52, 0
1, 26465, Note_on_c, 1, 64, 75
1, 26465, Note_on_c, 1, 59, 75
1, 26465, Note_on_c, 1, 52, 75
1, 26475, Note_on_c, 9, 38, 0
1, 26520, Note_on_c, 2, 71, 0
1, 26520, Note_on_c, 2, 59, 0
1, 26520, Note_on_c, 2, 52, 0
1, 26520, Note_on_c, 2, 68, 0
1, 26520, Note_on_c, 2, 64, 0
1, 26520, Note_on_c, 2, 59, 100
1, 26520, Note_on_c, 2, 52, 100
1, 26520, Note_on_c, 2, 68, 100
1, 26520, Note_on_c, 2, 71, 100
1, 26520, Note_on_c, 2, 64, 100
1, 26520, Note_on_c, 9, 42, 100
1, 26525, Note_on_c, 1, 64, 0
1, 26525, Note_on_c, 1, 52, 0
1, 26525, Note_on_c, 1, 59, 0
1, 26525, Note_on_c, 1, 64, 75
1, 26525, Note_on_c, 1, 59, 75
1, 26525, Note_on_c, 1, 52, 75
1, 26535, Note_on_c, 9, 42, 0
1, 26580, Note_on_c, 2, 52, 0
1, 26580, Note_on_c, 6, 64, 0
1, 26580, Note_on_c, 2, 59, 0
1, 26580, Note_on_c, 6, 69, 0
1, 26580, Note_on_c, 3, 40, 0
1, 26580, Note_on_c, 6, 59, 0
1, 26580, Note_on_c, 2, 68, 0
1, 26580, Note_on_c, 2, 71, 0
1, 26580, Note_on_c, 2, 64, 0
1, 26580, Note_on_c, 2, 71, 100
1, 26580, Note_on_c, 2, 68, 100
1, 26580, Note_on_c, 2, 52, 100
1, 26580, Note_on_c, 2, 59, 100
1, 26580, Note_on_c, 2, 64, 100
1, 26580, Note_on_c, 3, 40, 100
1, 26580, Note_on_c, 6, 59, 100
1, 26580, Note_on_c, 9, 36, 100
1, 26585, Note_on_c, 1, 59, 0
1, 26585, Note_on_c, 1, 52, 0
1, 26585, Note_on_c, 1, 64, 0
1, 26585, Note_on_c, 1, 64, 75
1, 26585, Note_on_c, 1, 59, 75
1, 26585, Note_on_c, 1, 52, 75
1, 26595, Note_on_c, 9, 36, 0
1, 26640, Note_on_c, 2, 59, 0
1, 26640, Note_on_c, 6, 52, 0
1, 26640, Note_on_c, 2, 52, 0
1, 26640, Note_on_c, 6, 40, 0
1, 26640, Note_on_c, 2, 64, 0
1, 26640, Note_on_c, 3, 40, 0
1, 26640, Note_on_c, 2, 71, 0
1, 26640, Note_on_c, 2, 68, 0
1, 26640, Note_on_c, 2, 52, 100
1, 26640, Note_on_c, 2, 71, 100
1, 26640, Note_on_c, 2, 59, 100
1, 26640, Note_on_c, 2, 68, 100
1, 26640, Note_on_c, 2, 64, 100
1, 26640, Note_on_c, 3, 40, 100
1, 26640, Note_on_c, 6, 68, 100
1, 26640, Note_on_c, 6, 64, 100
1, 26640, Note_on_c, 6, 52, 100
1, 26640, Note_on_c, 6, 40, 100
1, 26640, Note_on_c, 9, 46, 100
1, 26640, Note_on_c, 9, 38, 100
1, 26645, Note_on_c, 1, 64, 0
1, 26645, Note_on_c, 1, 52, 0
1, 26645, Note_on_c, 1, 59, 0
1, 26645, Note_on_c, 1, 64, 100
1, 26645, Note_on_c, 1, 59, 100
1, 26645, Note_on_c, 1, 52, 100
1, 26655, Note_on_c, 9, 38, 0
1, 26655, Note_on_c, 9, 46, 0
1, 26760, Note_on_c, 2, 71, 0
1, 26760, Note_on_c, 2, 68, 0
1, 26760, Note_on_c, 2, 64, 0
1, 26760, Note_on_c, 3, 40, 0
1, 26760, Note_on_c, 2, 52, 0
1, 26760, Note_on_c, 2, 59, 0
1, 26760, Note_on_c, 2, 59, 100
1, 26760, Note_on_c, 2, 52, 100
1, 26760, Note_on_c, 2, 68, 100
1, 26760, Note_on_c, 2, 71, 100
1, 26760, Note_on_c, 2, 64, 100
1, 26760, Note_on_c, 3, 45, 100
1, 26765, Note_on_c, 1, 52, 0
1, 26765, Note_on_c, 1, 59, 0
1, 26765, Note_on_c, 1, 64, 0
1, 26820, Note_on_c, 2, 59, 0
1, 26820, Note_on_c, 2, 68, 0
1, 26820, Note_on_c, 2, 52, 0
1, 26820, Note_on_c, 2, 71, 0
1, 26820, Note_on_c, 2, 64, 0
1, 26820, Note_on_c, 3, 45, 0
1, 26820, Note_on_c, 2, 71, 100
1, 26820, Note_on_c, 2, 68, 100
1, 26820, Note_on_c, 2, 52, 100
1, 26820, Note_on_c, 2, 59, 100
1, 26820, Note_on_c, 2, 64, 100
1, 26820, Note_on_c, 3, 46, 100
1, 26880, Note_on_c, 3, 46, 0
1, 26880, Note_on_c, 2, 52, 0
1, 26880, Note_on_c, 6, 52, 0
1, 26880, Note_on_c, 6, 59, 0
1, 26880, Note_on_c, 6, 64, 0
1, 26880, Note_on_c, 6, 68, 0
1, 26880, Note_on_c, 6, 40, 0
1, 26880, Note_on_c, 2, 59, 0
1, 26880, Note_on_c, 2, 68, 0
1, 26880, Note_on_c, 2, 71, 0
1, 26880, Note_on_c, 2, 64, 0
1, 26880, Note_on_c, 2, 71, 100
1, 26880, Note_on_c, 2, 67, 100
1, 26880, Note_on_c, 2, 62, 100
1, 26880, Note_on_c, 2, 59, 100
1, 26880, Note_on_c, 2, 52, 100
1, 26880, Note_on_c, 3, 47, 100
1, 26880, Note_on_c, 5, 59, 100
1, 26880, Note_on_c, 5, 71, 100
1, 26880, Note_on_c, 6, 71, 100
1, 26880, Note_on_c, 6, 67, 100
1, 26880, Note_on_c, 6, 62, 100
1, 26880, Note_on_c, 6, 55, 100
1, 26880, Note_on_c, 6, 43, 100
1, 26880, Note_on_c, 9, 42, 100
1, 26880, Note_on_c, 9, 36, 100
1, 26885, Note_on_c, 1, 43, 100
1, 26895, Note_on_c, 9, 36, 0
1, 26895, Note_on_c, 9, 42, 0
1, 27000, Note_on_c, 3, 47, 0
1, 27000, Note_on_c, 2, 52, 0
1, 27000, Note_on_c, 5, 59, 0
1, 27000, Note_on_c, 2, 59, 0
1, 27000, Note_on_c, 2, 71, 0
1, 27000, Note_on_c, 2, 62, 0
1, 27000, Note_on_c, 2, 67, 0
1, 27000, Note_on_c, 5, 71, 0
1, 27000, Note_on_c, 2, 71, 100
1, 27000, Note_on_c, 2, 67, 100
1, 27000, Note_on_c, 2, 62, 100
1, 27000, Note_on_c, 2, 59, 100
1, 27000, Note_on_c, 2, 52, 100
1, 27000, Note_on_c, 3, 45, 100
1, 27000, Note_on_c, 5, 57, 100
1, 27000, Note_on_c, 5, 69, 100
1, 27000, Note_on_c, 9, 42, 100
1, 27015, Note_on_c, 9, 42, 0
1, 27060, Note_on_c, 2, 59, 0
1, 27060, Note_on_c, 2, 71, 0
1, 27060, Note_on_c, 2, 62, 0
1, 27060, Note_on_c, 2, 67, 0
1, 27060, Note_on_c, 2, 52, 0
1, 27060, Note_on_c, 2, 71, 100
1, 27060, Note_on_c, 2, 67, 100
1, 27060, Note_on_c, 2, 62, 100
1, 27060, Note_on_c, 2, 59, 100
1, 27060, Note_on_c, 2, 52, 100
1, 27060, Note_on_c, 9, 36, 100
1, 27075, Note_on_c, 9, 36, 0
1, 27120, Note_on_c, 2, 62, 0
1, 27120, Note_on_c, 5, 69, 0
1, 27120, Note_on_c, 3, 45, 0
1, 27120, Note_on_c, 2, 71, 0
1, 27120, Note_on_c, 5, 57, 0
1, 27120, Note_on_c, 6, 67, 0
1, 27120, Note_on_c, 6, 71, 0
1, 27120, Note_on_c, 6, 62, 0
1, 27120, Note_on_c, 2, 59, 0
1, 27120, Note_on_c, 2, 67, 0
1, 27120, Note_on_c, 2, 52, 0
1, 27120, Note_on_c, 2, 71, 100
1, 27120, Note_on_c, 2, 67, 100
1, 27120, Note_on_c, 2, 62, 100
1, 27120, Note_on_c, 2, 59, 100
1, 27120, Note_on_c, 2, 52, 100
1, 27120, Note_on_c, 3, 43, 100
1, 27120, Note_on_c, 5, 55, 100
1, 27120, Note_on_c, 5, 67, 100
1, 27120, Note_on_c, 6, 62, 100
1, 27120, Note_on_c, 9, 42, 100
1, 27120, Note_on_c, 9, 38, 100
1, 27120, Note_on_c, 12, 79, 100
1, 27135, Note_on_c, 9, 38, 0
1, 27135, Note_on_c, 9, 42, 0
1, 27180, Note_on_c, 12, 79, 0
1, 27180, Note_on_c, 4, 79, 100
1, 27180, Note_on_c, 12, 79, 100
1, 27240, Note_on_c, 4, 79, 0
1, 27240, Note_on_c, 5, 55, 0
1, 27240, Note_on_c, 5, 67, 0
1, 27240, Note_on_c, 2, 59, 0
1, 27240, Note_on_c, 2, 52, 0
1, 27240, Note_on_c, 2, 71, 0
1, 27240, Note_on_c, 3, 43, 0
1, 27240, Note_on_c, 2, 62, 0
1, 27240, Note_on_c, 6, 62, 0
1, 27240, Note_on_c, 2, 67, 0
1, 27240, Note_on_c, 2, 71, 100
1, 27240, Note_on_c, 2, 67, 100
1, 27240, Note_on_c, 2, 62, 100
1, 27240, Note_on_c, 2, 59, 100
1, 27240, Note_on_c, 2, 52, 100
1, 27240, Note_on_c, 3, 38, 100
1, 27240, Note_on_c, 4, 79, 100
1, 27240, Note_on_c, 5, 50, 100
1, 27240, Note_on_c, 5, 62, 100
1, 27240, Note_on_c, 6, 71, 100
1, 27240, Note_on_c, 6, 67, 100
1, 27240, Note_on_c, 6, 62, 100
1, 27240, Note_on_c, 9, 42, 100
1, 27255, Note_on_c, 9, 42, 0
1, 27300, Note_on_c, 2, 52, 0
1, 27300, Note_on_c, 2, 59, 0
1, 27300, Note_on_c, 2, 62, 0
1, 27300, Note_on_c, 2, 67, 0
1, 27300, Note_on_c, 2, 71, 0
1, 27300, Note_on_c, 2, 71, 100
1, 27300, Note_on_c, 2, 67, 100
1, 27300, Note_on_c, 2, 62, 100
1, 27300, Note_on_c, 2, 59, 100
1, 27300, Note_on_c, 2, 52, 100
1, 27360, Note_on_c, 2, 52, 0
1, 27360, Note_on_c, 2, 59, 0
1, 27360, Note_on_c, 2, 71, 0
1, 27360, Note_on_c, 6, 71, 0
1, 27360, Note_on_c, 5, 50, 0
1, 27360, Note_on_c, 5, 62, 0
1, 27360, Note_on_c, 6, 55, 0
1, 27360, Note_on_c, 12, 79, 0
1, 27360, Note_on_c, 6, 62, 0
1, 27360, Note_on_c, 6, 43, 0
1, 27360, Note_on_c, 2, 67, 0
1, 27360, Note_on_c, 6, 67, 0
1, 27360, Note_on_c, 3, 38, 0
1, 27360, Note_on_c, 2, 62, 0
1, 27360, Note_on_c, 2, 47, 100
1, 27360, Note_on_c, 2, 57, 100
1, 27360, Note_on_c, 2, 54, 100
1, 27360, Note_on_c, 2, 66, 100
1, 27360, Note_on_c, 2, 62, 100
1, 27360, Note_on_c, 2, 71, 100
1, 27360, Note_on_c, 3, 42, 100
1, 27360, Note_on_c, 5, 54, 100
1, 27360, Note_on_c, 5, 66, 100
1, 27360, Note_on_c, 6, 69, 100
1, 27360, Note_on_c, 6, 66, 100
1, 27360, Note_on_c, 6, 62, 100
1, 27360, Note_on_c, 6, 47, 100
1, 27360, Note_on_c, 6, 35, 100
1, 27360, Note_on_c, 9, 42, 100
1, 27360, Note_on_c, 9, 36, 100
1, 27360, Note_on_c, 12, 78, 100
1, 27365, Note_on_c, 1, 43, 0
1, 27365, Note_on_c, 1, 43, 100
1, 27375, Note_on_c, 9, 36, 0
1, 27375, Note_on_c, 9, 42, 0
1, 27420, Note_on_c, 4, 79, 0
1, 27420, Note_on_c, 4, 78, 100
1, 27450, Note_on_c, 12, 78, 0
1, 27450, Note_on_c, 12, 76, 100
1, 27480, Note_on_c, 3, 42, 0
1, 27480, Note_on_c, 2, 57, 0
1, 27480, Note_on_c, 2, 71, 0
1, 27480, Note_on_c, 5, 66, 0
1, 27480, Note_on_c, 2, 54, 0
1, 27480, Note_on_c, 5, 54, 0
1, 27480, Note_on_c, 2, 62, 0
1, 27480, Note_on_c, 2, 47, 0
1, 27480, Note_on_c, 2, 66, 0
1, 27480, Note_on_c, 2, 66, 100
1, 27480, Note_on_c, 2, 57, 100
1, 27480, Note_on_c, 2, 62, 100
1, 27480, Note_on_c, 2, 54, 100
1, 27480, Note_on_c, 2, 71, 100
1, 27480, Note_on_c, 2, 47, 100
1, 27480, Note_on_c, 3, 38, 100
1, 27480, Note_on_c, 5, 50, 100
1, 27480, Note_on_c, 5, 62, 100
1, 27480, Note_on_c, 9, 42, 100
1, 27485, Note_on_c, 1, 59, 100
1, 27495, Note_on_c, 9, 42, 0
1, 27510, Note_on_c, 4, 78, 0
1, 27510, Note_on_c, 4, 76, 100
1, 27540, Note_on_c, 2, 62, 0
1, 27540, Note_on_c, 2, 57, 0
1, 27540, Note_on_c, 2, 66, 0
1, 27540, Note_on_c, 2, 47, 0
1, 27540, Note_on_c, 2, 54, 0
1, 27540, Note_on_c, 2, 71, 0
1, 27540, Note_on_c, 2, 47, 100
1, 27540, Note_on_c, 2, 57, 100
1, 27540, Note_on_c, 2, 54, 100
1, 27540, Note_on_c, 2, 62, 100
1, 27540, Note_on_c, 2, 66, 100
1, 27540, Note_on_c, 2, 71, 100
1, 27540, Note_on_c, 9, 36, 100
1, 27555, Note_on_c, 9, 36, 0
1, 27600, Note_on_c, 2, 54, 0
1, 27600, Note_on_c, 2, 71, 0
1, 27600, Note_on_c, 2, 66, 0
1, 27600, Note_on_c, 12, 76, 0
1, 27600, Note_on_c, 5, 50, 0
1, 27600, Note_on_c, 5, 62, 0
1, 27600, Note_on_c, 2, 62, 0
1, 27600, Note_on_c, 6, 47, 0
1, 27600, Note_on_c, 2, 57, 0
1, 27600, Note_on_c, 3, 38, 0
1, 27600, Note_on_c, 2, 47, 0
1, 27600, Note_on_c, 2, 57, 100
1, 27600, Note_on_c, 2, 66, 100
1, 27600, Note_on_c, 2, 54, 100
1, 27600, Note_on_c, 2, 62, 100
1, 27600, Note_on_c, 2, 47, 100
1, 27600, Note_on_c, 2, 71, 100
1, 27600, Note_on_c, 3, 35, 100
1, 27600, Note_on_c, 5, 47, 100
1, 27600, Note_on_c, 5, 59, 100
1, 27600, Note_on_c, 6, 47, 100
1, 27600, Note_on_c, 9, 46, 100
1, 27600, Note_on_c, 9, 38, 100
1, 27600, Note_on_c, 12, 74, 100
1, 27605, Note_on_c, 1, 59, 0
1, 27605, Note_on_c, 1, 62, 100
1, 27615, Note_on_c, 9, 38, 0
1, 27615, Note_on_c, 9, 46, 0
1, 27660, Note_on_c, 6, 62, 0
1, 27660, Note_on_c, 12, 74, 0
1, 27660, Note_on_c, 6, 69, 0
1, 27660, Note_on_c, 6, 66, 0
1, 27660, Note_on_c, 4, 76, 0
1, 27660, Note_on_c, 4, 74, 100
1, 27660, Note_on_c, 6, 69, 100
1, 27660, Note_on_c, 6, 66, 100
1, 27660, Note_on_c, 6, 62, 100
1, 27660, Note_on_c, 12, 76, 100
1, 27720, Note_on_c, 4, 74, 0
1, 27720, Note_on_c, 2, 54, 0
1, 27720, Note_on_c, 2, 57, 0
1, 27720, Note_on_c, 5, 59, 0
1, 27720, Note_on_c, 2, 62, 0
1, 27720, Note_on_c, 3, 35, 0
1, 27720, Note_on_c, 2, 47, 0
1, 27720, Note_on_c, 2, 66, 0
1, 27720, Note_on_c, 2, 71, 0
1, 27720, Note_on_c, 5, 47, 0
1, 27720, Note_on_c, 2, 71, 100
1, 27720, Note_on_c, 2, 62, 100
1, 27720, Note_on_c, 2, 66, 100
1, 27720, Note_on_c, 2, 52, 100
1, 27720, Note_on_c, 2, 59, 100
1, 27720, Note_on_c, 3, 38, 100
1, 27720, Note_on_c, 4, 76, 100
1, 27720, Note_on_c, 5, 50, 100
1, 27720, Note_on_c, 5, 62, 100
1, 27780, Note_on_c, 2, 59, 0
1, 27780, Note_on_c, 2, 62, 0
1, 27780, Note_on_c, 2, 71, 0
1, 27780, Note_on_c, 2, 52, 0
1, 27780, Note_on_c, 2, 66, 0
1, 27780, Note_on_c, 2, 66, 100
1, 27780, Note_on_c, 2, 71, 100
1, 27780, Note_on_c, 2, 52, 100
1, 27780, Note_on_c, 2, 62, 100
1, 27780, Note_on_c, 2, 59, 100
1, 27840, Note_on_c, 2, 59, 0
1, 27840, Note_on_c, 6, 66, 0
1, 27840, Note_on_c, 2, 62, 0
1, 27840, Note_on_c, 5, 62, 0
1, 27840, Note_on_c, 3, 38, 0
1, 27840, Note_on_c, 2, 52, 0
1, 27840, Note_on_c, 5, 50, 0
1, 27840, Note_on_c, 6, 69, 0
1, 27840, Note_on_c, 6, 62, 0
1, 27840, Note_on_c, 6, 47, 0
1, 27840, Note_on_c, 2, 71, 0
1, 27840, Note_on_c, 2, 66, 0
1, 27840, Note_on_c, 6, 35, 0
1, 27840, Note_on_c, 2, 52, 100
1, 27840, Note_on_c, 2, 71, 100
1, 27840, Note_on_c, 2, 59, 100
1, 27840, Note_on_c, 2, 68, 100
1, 27840, Note_on_c, 2, 64, 100
1, 27840, Note_on_c, 3, 40, 100
1, 27840, Note_on_c, 5, 52, 100
1, 27840, Note_on_c, 5, 64, 100
1, 27840, Note_on_c, 6, 68, 100
1, 27840, Note_on_c, 6, 64, 100
1, 27840, Note_on_c, 6, 59, 100
1, 27840, Note_on_c, 6, 52, 100
1, 27840, Note_on_c, 6, 40, 100
1, 27840, Note_on_c, 9, 42, 100
1, 27840, Note_on_c, 9, 36, 100
1, 27845, Note_on_c, 1, 43, 0
1, 27845, Note_on_c, 1, 62, 0
1, 27845, Note_on_c, 1, 40, 100
1, 27855, Note_on_c, 9, 36, 0
1, 27855, Note_on_c, 9, 42, 0
1, 27900, Note_on_c, 12, 76, 0
1, 27900, Note_on_c, 12, 71, 100
1, 27960, Note_on_c, 2, 68, 0
1, 27960, Note_on_c, 2, 64, 0
1, 27960, Note_on_c, 2, 52, 0
1, 27960, Note_on_c, 2, 59, 0
1, 27960, Note_on_c, 4, 76, 0
1, 27960, Note_on_c, 2, 71, 0
1, 27960, Note_on_c, 2, 59, 100
1, 27960, Note_on_c, 2, 52, 100
1, 27960, Note_on_c, 2, 68, 100
1, 27960, Note_on_c, 2, 71, 100
1, 27960, Note_on_c, 2, 64, 100
1, 27960, Note_on_c, 4, 71, 100
1, 27960, Note_on_c, 9, 42, 100
1, 27975, Note_on_c, 9, 42, 0
1, 28020, Note_on_c, 2, 64, 0
1, 28020, Note_on_c, 12, 71, 0
1, 28020, Note_on_c, 2, 52, 0
1, 28020, Note_on_c, 3, 40, 0
1, 28020, Note_on_c, 2, 71, 0
1, 28020, Note_on_c, 2, 59, 0
1, 28020, Note_on_c, 2, 68, 0
1, 28020, Note_on_c, 2, 71, 100
1, 28020, Note_on_c, 2, 68, 100
1, 28020, Note_on_c, 2, 52, 100
1, 28020, Note_on_c, 2, 59, 100
1, 28020, Note_on_c, 2, 64, 100
1, 28020, Note_on_c, 3, 40, 100
1, 28020, Note_on_c, 9, 36, 100
1, 28020, Note_on_c, 12, 69, 100
1, 28035, Note_on_c, 9, 36, 0
1, 28080, Note_on_c, 6, 40, 0
1, 28080, Note_on_c, 12, 69, 0
1, 28080, Note_on_c, 2, 52, 0
1, 28080, Note_on_c, 3, 40, 0
1, 28080, Note_on_c, 5, 64, 0
1, 28080, Note_on_c, 2, 71, 0
1, 28080, Note_on_c, 4, 71, 0
1, 28080, Note_on_c, 6, 52, 0
1, 28080, Note_on_c, 5, 52, 0
1, 28080, Note_on_c, 2, 64, 0
1, 28080, Note_on_c, 2, 59, 0
1, 28080, Note_on_c, 2, 68, 0
1, 28080, Note_on_c, 2, 52, 100
1, 28080, Note_on_c, 2, 71, 100
1, 28080, Note_on_c, 2, 59, 100
1, 28080, Note_on_c, 2, 68, 100
1, 28080, Note_on_c, 2, 64, 100
1, 28080, Note_on_c, 3, 40, 100
1, 28080, Note_on_c, 4, 69, 100
1, 28080, Note_on_c, 6, 52, 100
1, 28080, Note_on_c, 6, 40, 100
1, 28080, Note_on_c, 9, 42, 100
1, 28080, Note_on_c, 9, 38, 100
1, 28080, Note_on_c, 12, 68, 100
1, 28095, Note_on_c, 9, 38, 0
1, 28095, Note_on_c, 9, 42, 0
1, 28140, Note_on_c, 4, 69, 0
1, 28140, Note_on_c, 4, 68, 100
1, 28200, Note_on_c, 2, 52, 0
1, 28200, Note_on_c, 12, 68, 0
1, 28200, Note_on_c, 3, 40, 0
1, 28200, Note_on_c, 2, 59, 0
1, 28200, Note_on_c, 2, 68, 0
1, 28200, Note_on_c, 6, 64, 0
1, 28200, Note_on_c, 6, 59, 0
1, 28200, Note_on_c, 2, 64, 0
1, 28200, Note_on_c, 6, 68, 0
1, 28200, Note_on_c, 2, 71, 0
1, 28200, Note_on_c, 2, 59, 100
1, 28200, Note_on_c, 2, 52, 100
1, 28200, Note_on_c, 2, 68, 100
1, 28200, Note_on_c, 2, 71, 100
1, 28200, Note_on_c, 2, 64, 100
1, 28200, Note_on_c, 3, 35, 100
1, 28200, Note_on_c, 6, 68, 100
1, 28200, Note_on_c, 6, 64, 100
1, 28200, Note_on_c, 6, 59, 100
1, 28200, Note_on_c, 9, 42, 100
1, 28205, Note_on_c, 1, 40, 0
1, 28215, Note_on_c, 9, 42, 0
1, 28260, Note_on_c, 3, 35, 0
1, 28260, Note_on_c, 2, 71, 0
1, 28260, Note_on_c, 2, 59, 0
1, 28260, Note_on_c, 2, 64, 0
1, 28260, Note_on_c, 4, 68, 0
1, 28260, Note_on_c, 2, 52, 0
1, 28260, Note_on_c, 2, 68, 0
1, 28260, Note_on_c, 2, 71, 100
1, 28260, Note_on_c, 2, 68, 100
1, 28260, Note_on_c, 2, 52, 100
1, 28260, Note_on_c, 2, 59, 100
1, 28260, Note_on_c, 2, 64, 100
1, 28260, Note_on_c, 3, 38, 100
1, 28265, Note_on_c, 1, 64, 100
1, 28265, Note_on_c, 1, 59, 100
1, 28265, Note_on_c, 1, 52, 100
1, 28320, Note_on_c, 3, 38, 0
1, 28320, Note_on_c, 2, 64, 0
1, 28320, Note_on_c, 2, 68, 0
1, 28320, Note_on_c, 2, 59, 0
1, 28320, Note_on_c, 2, 52, 0
1, 28320, Note_on_c, 2, 71, 0
1, 28320, Note_on_c, 6, 40, 0
1, 28320, Note_on_c, 6, 52, 0
1, 28320, Note_on_c, 2, 52, 100
1, 28320, Note_on_c, 2, 71, 100
1, 28320, Note_on_c, 2, 59, 100
1, 28320, Note_on_c, 2, 68, 100
1, 28320, Note_on_c, 2, 64, 100
1, 28320, Note_on_c, 3, 40, 100
1, 28320, Note_on_c, 6, 52, 100
1, 28320, Note_on_c, 6, 40, 100
1, 28320, Note_on_c, 9, 42, 100
1, 28320, Note_on_c, 9, 36, 100
1, 28335, Note_on_c, 9, 36, 0
1, 28335, Note_on_c, 9, 42, 0
1, 28380, Note_on_c, 6, 64, 0
1, 28380, Note_on_c, 6, 68, 0
1, 28380, Note_on_c, 6, 59, 0
1, 28380, Note_on_c, 6, 69, 100
1, 28380, Note_on_c, 6, 64, 100
1, 28380, Note_on_c, 6, 59, 100
1, 28380, Note_on_c, 9, 38, 100
1, 28385, Note_on_c, 1, 59, 0
1, 28385, Note_on_c, 1, 64, 0
1, 28385, Note_on_c, 1, 52, 0
1, 28385, Note_on_c, 1, 64, 75
1, 28385, Note_on_c, 1, 59, 75
1, 28385, Note_on_c, 1, 52, 75
1, 28395, Note_on_c, 9, 38, 0
1, 28440, Note_on_c, 2, 71, 0
1, 28440, Note_on_c, 2, 59, 0
1, 28440, Note_on_c, 2, 52, 0
1, 28440, Note_on_c, 2, 68, 0
1, 28440, Note_on_c, 2, 64, 0
1, 28440, Note_on_c, 2, 59, 100
1, 28440, Note_on_c, 2, 52, 100
1, 28440, Note_on_c, 2, 68, 100
1, 28440, Note_on_c, 2, 71, 100
1, 28440, Note_on_c, 2, 64, 100
1, 28440, Note_on_c, 9, 42, 100
1, 28445, Note_on_c, 1, 64, 0
1, 28445, Note_on_c, 1, 52, 0
1, 28445, Note_on_c, 1, 59, 0
1, 28445, Note_on_c, 1, 64, 75
1, 28445, Note_on_c, 1, 59, 75
1, 28445, Note_on_c, 1, 52, 75
1, 28455, Note_on_c, 9, 42, 0
1, 28500, Note_on_c, 2, 52, 0
1, 28500, Note_on_c, 6, 64, 0
1, 28500, Note_on_c, 2, 59, 0
1, 28500, Note_on_c, 6, 69, 0
1, 28500, Note_on_c, 3, 40, 0
1, 28500, Note_on_c, 6, 59, 0
1, 28500, Note_on_c, 2, 68, 0
1, 28500, Note_on_c, 2, 71, 0
1, 28500, Note_on_c, 2, 64, 0
1, 28500, Note_on_c, 2, 71, 100
1, 28500, Note_on_c, 2, 68, 100
1, 28500, Note_on_c, 2, 52, 100
1, 28500, Note_on_c, 2, 64, 100
1, 28500, Note_on_c, 2, 59, 100
1, 28500, Note_on_c, 3, 40, 100
1, 28500, Note_on_c, 6, 59, 100
1, 28500, Note_on_c, 9, 36, 100
1, 28505, Note_on_c, 1, 59, 0
1, 28505, Note_on_c, 1, 52, 0
1, 28505, Note_on_c, 1, 64, 0
1, 28505, Note_on_c, 1, 64, 75
1, 28505, Note_on_c, 1, 59, 75
1, 28505, Note_on_c, 1, 52, 75
1, 28515, Note_on_c, 9, 36, 0
1, 28560, Note_on_c, 2, 64, 0
1, 28560, Note_on_c, 6, 52, 0
1, 28560, Note_on_c, 2, 52, 0
1, 28560, Note_on_c, 6, 40, 0
1, 28560, Note_on_c, 2, 59, 0
1, 28560, Note_on_c, 3, 40, 0
1, 28560, Note_on_c, 2, 71, 0
1, 28560, Note_on_c, 2, 68, 0
1, 28560, Note_on_c, 2, 59, 100
1, 28560, Note_on_c, 2, 68, 100
1, 28560, Note_on_c, 2, 64, 100
1, 28560, Note_on_c, 2, 52, 100
1, 28560, Note_on_c, 2, 71, 100
1, 28560, Note_on_c, 3, 40, 100
1, 28560, Note_on_c, 6, 68, 100
1, 28560, Note_on_c, 6, 64, 100
1, 28560, Note_on_c, 6, 52, 100
1, 28560, Note_on_c, 6, 40, 100
1, 28560, Note_on_c, 9, 46, 100
1, 28560, Note_on_c, 9, 38, 100
1, 28565, Note_on_c, 1, 64, 0
1, 28565, Note_on_c, 1, 52, 0
1, 28565, Note_on_c, 1, 59, 0
1, 28565, Note_on_c, 1, 64, 100
1, 28565, Note_on_c, 1, 59, 100
1, 28565, Note_on_c, 1, 52, 100
1, 28575, Note_on_c, 9, 38, 0
1, 28575, Note_on_c, 9, 46, 0
1, 28680, Note_on_c, 2, 68, 0
1, 28680, Note_on_c, 2, 52, 0
1, 28680, Note_on_c, 2, 71, 0
1, 28680, Note_on_c, 3, 40, 0
1, 28680, Note_on_c, 2, 59, 0
1, 28680, Note_on_c, 2, 64, 0
1, 28680, Note_on_c, 2, 52, 100
1, 28680, Note_on_c, 2, 59, 100
1, 28680, Note_on_c, 2, 64, 100
1, 28680, Note_on_c, 2, 68, 100
1, 28680, Note_on_c, 2, 71, 100
1, 28680, Note_on_c, 3, 45, 100
1, 28685, Note_on_c, 1, 52, 0
1, 28685, Note_on_c, 1, 59, 0
1, 28685, Note_on_c, 1, 64, 0
1, 28740, Note_on_c, 2, 52, 0
1, 28740, Note_on_c, 2, 64, 0
1, 28740, Note_on_c, 2, 59, 0
1, 28740, Note_on_c, 2, 68, 0
1, 28740, Note_on_c, 2, 71, 0
1, 28740, Note_on_c, 3, 45, 0
1, 28740, Note_on_c, 2, 52, 100
1, 28740, Note_on_c, 2, 71, 100
1, 28740, Note_on_c, 2, 68, 100
1, 28740, Note_on_c, 2, 64, 100
1, 28740, Note_on_c, 2, 59, 100
1, 28740, Note_on_c, 3, 46, 100
1, 28800, Note_on_c, 3, 46, 0
1, 28800, Note_on_c, 2, 68, 0
1, 28800, Note_on_c, 6, 52, 0
1, 28800, Note_on_c, 6, 59, 0
1, 28800, Note_on_c, 6, 64, 0
1, 28800, Note_on_c, 6, 68, 0
1, 28800, Note_on_c, 6, 40, 0
1, 28800, Note_on_c, 2, 64, 0
1, 28800, Note_on_c, 2, 71, 0
1, 28800, Note_on_c, 2, 52, 0
1, 28800, Note_on_c, 2, 59, 0
1, 28800, Note_on_c, 2, 67, 100
1, 28800, Note_on_c, 2, 62, 100
1, 28800, Note_on_c, 2, 52, 100
1, 28800, Note_on_c, 2, 59, 100
1, 28800, Note_on_c, 2, 71, 100
1, 28800, Note_on_c, 3, 47, 100
1, 28800, Note_on_c, 5, 59, 100
1, 28800, Note_on_c, 5, 71, 100
1, 28800, Note_on_c, 6, 71, 100
1, 28800, Note_on_c, 6, 67, 100
1, 28800, Note_on_c, 6, 62, 100
1, 28800, Note_on_c, 6, 55, 100
1, 28800, Note_on_c, 6, 43, 100
1, 28800, Note_on_c, 9, 42, 100
1, 28800, Note_on_c, 9, 36, 100
1, 28805, Note_on_c, 1, 43, 100
1, 28815, Note_on_c, 9, 36, 0
1, 28815, Note_on_c, 9, 42, 0
1, 28920, Note_on_c, 3, 47, 0
1, 28920, Note_on_c, 2, 71, 0
1, 28920, Note_on_c, 5, 59, 0
1, 28920, Note_on_c, 2, 59, 0
1, 28920, Note_on_c, 2, 67, 0
1, 28920, Note_on_c, 2, 52, 0
1, 28920, Note_on_c, 2, 62, 0
1, 28920, Note_on_c, 5, 71, 0
1, 28920, Note_on_c, 2, 71, 100
1, 28920, Note_on_c, 2, 59, 100
1, 28920, Note_on_c, 2, 52, 100
1, 28920, Note_on_c, 2, 62, 100
1, 28920, Note_on_c, 2, 67, 100
1, 28920, Note_on_c, 3, 45, 100
1, 28920, Note_on_c, 5, 57, 100
1, 28920, Note_on_c, 5, 69, 100
1, 28920, Note_on_c, 9, 42, 100
1, 28935, Note_on_c, 9, 42, 0
1, 28980, Note_on_c, 2, 62, 0
1, 28980, Note_on_c, 2, 71, 0
1, 28980, Note_on_c, 2, 52, 0
1, 28980, Note_on_c, 2, 59, 0
1, 28980, Note_on_c, 2, 67, 0
1, 28980, Note_on_c, 2, 67, 100
1, 28980, Note_on_c, 2, 71, 100
1, 28980, Note_on_c, 2, 52, 100
1, 28980, Note_on_c, 2, 59, 100
1, 28980, Note_on_c, 2, 62, 100
1, 28980, Note_on_c, 9, 36, 100
1, 28995, Note_on_c, 9, 36, 0
1, 29040, Note_on_c, 2, 52, 0
1, 29040, Note_on_c, 5, 69, 0
1, 29040, Note_on_c, 3, 45, 0
1, 29040, Note_on_c, 2, 67, 0
1, 29040, Note_on_c, 5, 57, 0
1, 29040, Note_on_c, 6, 67, 0
1, 29040, Note_on_c, 6, 71, 0
1, 29040, Note_on_c, 6, 62, 0
1, 29040, Note_on_c, 2, 59, 0
1, 29040, Note_on_c, 2, 71, 0
1, 29040, Note_on_c, 2, 62, 0
1, 29040, Note_on_c, 2, 62, 100
1, 29040, Note_on_c, 2, 52, 100
1, 29040, Note_on_c, 2, 71, 100
1, 29040, Note_on_c, 2, 59, 100
1, 29040, Note_on_c, 2, 67, 100
1, 29040, Note_on_c, 3, 43, 100
1, 29040, Note_on_c, 5, 55, 100
1, 29040, Note_on_c, 5, 67, 100
1, 29040, Note_on_c, 6, 62, 100
1, 29040, Note_on_c, 9, 42, 100
1, 29040, Note_on_c, 9, 38, 100
1, 29040, Note_on_c, 12, 79, 100
1, 29055, Note_on_c, 9, 38, 0
1, 29055, Note_on_c, 9, 42, 0
1, 29100, Note_on_c, 12, 79, 0
1, 29100, Note_on_c, 4, 79, 100
1, 29100, Note_on_c, 12, 79, 100
1, 29160, Note_on_c, 4, 79, 0
1, 29160, Note_on_c, 5, 55, 0
1, 29160, Note_on_c, 5, 67, 0
1, 29160, Note_on_c, 2, 59, 0
1, 29160, Note_on_c, 2, 67, 0
1, 29160, Note_on_c, 2, 62, 0
1, 29160, Note_on_c, 3, 43, 0
1, 29160, Note_on_c, 2, 71, 0
1, 29160, Note_on_c, 6, 62, 0
1, 29160, Note_on_c, 2, 52, 0
1, 29160, Note_on_c, 2, 71, 100
1, 29160, Note_on_c, 2, 52, 100
1, 29160, Note_on_c, 2, 62, 100
1, 29160, Note_on_c, 2, 59, 100
1, 29160, Note_on_c, 2, 67, 100
1, 29160, Note_on_c, 3, 38, 100
1, 29160, Note_on_c, 4, 79, 100
1, 29160, Note_on_c, 5, 50, 100
1, 29160, Note_on_c, 5, 62, 100
1, 29160, Note_on_c, 6, 71, 100
1, 29160, Note_on_c, 6, 67, 100
1, 29160, Note_on_c, 6, 62, 100
1, 29160, Note_on_c, 9, 42, 100
1, 29175, Note_on_c, 9, 42, 0
1, 29220, Note_on_c, 2, 67, 0
1, 29220, Note_on_c, 2, 59, 0
1, 29220, Note_on_c, 2, 62, 0
1, 29220, Note_on_c, 2, 52, 0
1, 29220, Note_on_c, 2, 71, 0
1, 29220, Note_on_c, 2, 71, 100
1, 29220, Note_on_c, 2, 67, 100
1, 29220, Note_on_c, 2, 52, 100
1, 29220, Note_on_c, 2, 62, 100
1, 29220, Note_on_c, 2, 59, 100
1, 29280, Note_on_c, 2, 59, 0
1, 29280, Note_on_c, 2, 62, 0
1, 29280, Note_on_c, 2, 71, 0
1, 29280, Note_on_c, 6, 71, 0
1, 29280, Note_on_c, 5, 50, 0
1, 29280, Note_on_c, 5, 62, 0
1, 29280, Note_on_c, 6, 55, 0
1, 29280, Note_on_c, 12, 79, 0
1, 29280, Note_on_c, 6, 62, 0
1, 29280, Note_on_c, 6, 43, 0
1, 29280, Note_on_c, 2, 67, 0
1, 29280, Note_on_c, 6, 67, 0
1, 29280, Note_on_c, 3, 38, 0
1, 29280, Note_on_c, 2, 52, 0
1, 29280, Note_on_c, 2, 66, 100
1, 29280, Note_on_c, 2, 57, 100
1, 29280, Note_on_c, 2, 54, 100
1, 29280, Note_on_c, 2, 47, 100
1, 29280, Note_on_c, 2, 62, 100
1, 29280, Note_on_c, 2, 71, 100
1, 29280, Note_on_c, 3, 42, 100
1, 29280, Note_on_c, 5, 54, 100
1, 29280, Note_on_c, 5, 66, 100
1, 29280, Note_on_c, 6, 69, 100
1, 29280, Note_on_c, 6, 66, 100
1, 29280, Note_on_c, 6, 62, 100
1, 29280, Note_on_c, 6, 47, 100
1, 29280, Note_on_c, 6, 35, 100
1, 29280, Note_on_c, 9, 42, 100
1, 29280, Note_on_c, 9, 36, 100
1, 29280, Note_on_c, 12, 78, 100
1, 29285, Note_on_c, 1, 43, 0
1, 29285, Note_on_c, 1, 43, 100
1, 29295, Note_on_c, 9, 36, 0
1, 29295, Note_on_c, 9, 42, 0
1, 29340, Note_on_c, 4, 79, 0
1, 29340, Note_on_c, 4, 78, 100
1, 29400, Note_on_c, 2, 71, 0
1, 29400, Note_on_c, 3, 42, 0
1, 29400, Note_on_c, 2, 57, 0
1, 29400, Note_on_c, 12, 78, 0
1, 29400, Note_on_c, 5, 66, 0
1, 29400, Note_on_c, 2, 54, 0
1, 29400, Note_on_c, 5, 54, 0
1, 29400, Note_on_c, 2, 62, 0
1, 29400, Note_on_c, 2, 66, 0
1, 29400, Note_on_c, 2, 47, 0
1, 29400, Note_on_c, 2, 54, 100
1, 29400, Note_on_c, 2, 57, 100
1, 29400, Note_on_c, 2, 62, 100
1, 29400, Note_on_c, 2, 66, 100
1, 29400, Note_on_c, 2, 47, 100
1, 29400, Note_on_c, 2, 71, 100
1, 29400, Note_on_c, 3, 38, 100
1, 29400, Note_on_c, 5, 50, 100
1, 29400, Note_on_c, 5, 62, 100
1, 29400, Note_on_c, 9, 42, 100
1, 29400, Note_on_c, 12, 76, 100
1, 29405, Note_on_c, 1, 59, 100
1, 29415, Note_on_c, 9, 42, 0
1, 29460, Note_on_c, 2, 71, 0
1, 29460, Note_on_c, 2, 62, 0
1, 29460, Note_on_c, 4, 78, 0
1, 29460, Note_on_c, 2, 57, 0
1, 29460, Note_on_c, 2, 54, 0
1, 29460, Note_on_c, 2, 47, 0
1, 29460, Note_on_c, 2, 66, 0
1, 29460, Note_on_c, 2, 54, 100
1, 29460, Note_on_c, 2, 66, 100
1, 29460, Note_on_c, 2, 71, 100
1, 29460, Note_on_c, 2, 62, 100
1, 29460, Note_on_c, 2, 57, 100
1, 29460, Note_on_c, 2, 47, 100
1, 29460, Note_on_c, 4, 76, 100
1, 29460, Note_on_c, 9, 36, 100
1, 29475, Note_on_c, 9, 36, 0
1, 29520, Note_on_c, 12, 76, 0
1, 29520, Note_on_c, 2, 47, 0
1, 29520, Note_on_c, 2, 57, 0
1, 29520, Note_on_c, 6, 47, 0
1, 29520, Note_on_c, 2, 54, 0
1, 29520, Note_on_c, 5, 62, 0
1, 29520, Note_on_c, 5, 50, 0
1, 29520, Note_on_c, 2, 62, 0
1, 29520, Note_on_c, 2, 71, 0
1, 29520, Note_on_c, 3, 38, 0
1, 29520, Note_on_c, 2, 66, 0
1, 29520, Note_on_c, 2, 62, 100
1, 29520, Note_on_c, 2, 47, 100
1, 29520, Note_on_c, 2, 71, 100
1, 29520, Note_on_c, 2, 57, 100
1, 29520, Note_on_c, 2, 66, 100
1, 29520, Note_on_c, 2, 54, 100
1, 29520, Note_on_c, 3, 35, 100
1, 29520, Note_on_c, 5, 47, 100
1, 29520, Note_on_c, 5, 59, 100
1, 29520, Note_on_c, 6, 47, 100
1, 29520, Note_on_c, 9, 46, 100
1, 29520, Note_on_c, 9, 38, 100
1, 29520, Note_on_c, 12, 74, 100
1, 29525, Note_on_c, 1, 59, 0
1, 29525, Note_on_c, 1, 62, 100
1, 29535, Note_on_c, 9, 38, 0
1, 29535, Note_on_c, 9, 46, 0
1, 29580, Note_on_c, 4, 76, 0
1, 29580, Note_on_c, 6, 62, 0
1, 29580, Note_on_c, 6, 66, 0
1, 29580, Note_on_c, 6, 69, 0
1, 29580, Note_on_c, 4, 74, 100
1, 29580, Note_on_c, 6, 69, 100
1, 29580, Note_on_c, 6, 66, 100
1, 29580, Note_on_c, 6, 62, 100
1, 29640, Note_on_c, 3, 35, 0
1, 29640, Note_on_c, 2, 71, 0
1, 29640, Note_on_c, 5, 59, 0
1, 29640, Note_on_c, 2, 62, 0
1, 29640, Note_on_c, 2, 47, 0
1, 29640, Note_on_c, 12, 74, 0
1, 29640, Note_on_c, 2, 57, 0
1, 29640, Note_on_c, 2, 54, 0
1, 29640, Note_on_c, 2, 66, 0
1, 29640, Note_on_c, 5, 47, 0
1, 29640, Note_on_c, 2, 52, 100
1, 29640, Note_on_c, 2, 59, 100
1, 29640, Note_on_c, 2, 62, 100
1, 29640, Note_on_c, 2, 66, 100
1, 29640, Note_on_c, 2, 71, 100
1, 29640, Note_on_c, 3, 38, 100
1, 29640, Note_on_c, 5, 50, 100
1, 29640, Note_on_c, 5, 62, 100
1, 29640, Note_on_c, 12, 76, 100
1, 29700, Note_on_c, 12, 76, 0
1, 29700, Note_on_c, 2, 71, 0
1, 29700, Note_on_c, 2, 59, 0
1, 29700, Note_on_c, 2, 52, 0
1, 29700, Note_on_c, 4, 74, 0
1, 29700, Note_on_c, 2, 66, 0
1, 29700, Note_on_c, 2, 62, 0
1, 29700, Note_on_c, 2, 66, 100
1, 29700, Note_on_c, 2, 71, 100
1, 29700, Note_on_c, 2, 52, 100
1, 29700, Note_on_c, 2, 62, 100
1, 29700, Note_on_c, 2, 59, 100
1, 29700, Note_on_c, 4, 76, 100
1, 29700, Note_on_c, 12, 76, 100
1, 29760, Note_on_c, 4, 76, 0
1, 29760, Note_on_c, 2, 59, 0
1, 29760, Note_on_c, 6, 62, 0
1, 29760, Note_on_c, 2, 71, 0
1, 29760, Note_on_c, 5, 50, 0
1, 29760, Note_on_c, 6, 35, 0
1, 29760, Note_on_c, 5, 62, 0
1, 29760, Note_on_c, 3, 38, 0
1, 29760, Note_on_c, 6, 47, 0
1, 29760, Note_on_c, 6, 69, 0
1, 29760, Note_on_c, 6, 66, 0
1, 29760, Note_on_c, 2, 52, 0
1, 29760, Note_on_c, 2, 66, 0
1, 29760, Note_on_c, 2, 62, 0
1, 29760, Note_on_c, 2, 52, 100
1, 29760, Note_on_c, 2, 71, 100
1, 29760, Note_on_c, 2, 59, 100
1, 29760, Note_on_c, 2, 64, 100
1, 29760, Note_on_c, 2, 68, 100
1, 29760, Note_on_c, 3, 40, 100
1, 29760, Note_on_c, 4, 76, 100
1, 29760, Note_on_c, 5, 52, 100
1, 29760, Note_on_c, 5, 64, 100
1, 29760, Note_on_c, 6, 68, 100
1, 29760, Note_on_c, 6, 64, 100
1, 29760, Note_on_c, 6, 59, 100
1, 29760, Note_on_c, 6, 52, 100
1, 29760, Note_on_c, 6, 40, 100
1, 29760, Note_on_c, 9, 42, 100
1, 29760, Note_on_c, 9, 36, 100
1, 29765, Note_on_c, 1, 62, 0
1, 29765, Note_on_c, 1, 43, 0
1, 29765, Note_on_c, 1, 40, 100
1, 29775, Note_on_c, 9, 36, 0
1, 29775, Note_on_c, 9, 42, 0
1, 29880, Note_on_c, 2, 52, 0
1, 29880, Note_on_c, 2, 68, 0
1, 29880, Note_on_c, 2, 71, 0
1, 29880, Note_on_c, 2, 64, 0
1, 29880, Note_on_c, 2, 59, 0
1, 29880, Note_on_c, 2, 68, 100
1, 29880, Note_on_c, 2, 64, 100
1, 29880, Note_on_c, 2, 59, 100
1, 29880, Note_on_c, 2, 71, 100
1, 29880, Note_on_c, 2, 52, 100
1, 29880, Note_on_c, 9, 42, 100
1, 29895, Note_on_c, 9, 42, 0
1, 29940, Note_on_c, 2, 52, 0
1, 29940, Note_on_c, 2, 71, 0
1, 29940, Note_on_c, 2, 68, 0
1, 29940, Note_on_c, 2, 59, 0
1, 29940, Note_on_c, 3, 40, 0
1, 29940, Note_on_c, 12, 76, 0
1, 29940, Note_on_c, 2, 64, 0
1, 29940, Note_on_c, 2, 71, 100
1, 29940, Note_on_c, 2, 64, 100
1, 29940, Note_on_c, 2, 52, 100
1, 29940, Note_on_c, 2, 59, 100
1, 29940, Note_on_c, 2, 68, 100
1, 29940, Note_on_c, 3, 40, 100
1, 29940, Note_on_c, 9, 36, 100
1, 29940, Note_on_c, 12, 78, 100
1, 29955, Note_on_c, 9, 36, 0
1, 30000, Note_on_c, 3, 40, 0
1, 30000, Note_on_c, 2, 71, 0
1, 30000, Note_on_c, 2, 52, 0
1, 30000, Note_on_c, 4, 76, 0
1, 30000, Note_on_c, 5, 52, 0
1, 30000, Note_on_c, 5, 64, 0
1, 30000, Note_on_c, 6, 52, 0
1, 30000, Note_on_c, 6, 40, 0
1, 30000, Note_on_c, 2, 68, 0
1, 30000, Note_on_c, 2, 64, 0
1, 30000, Note_on_c, 2, 59, 0
1, 30000, Note_on_c, 2, 52, 100
1, 30000, Note_on_c, 2, 71, 100
1, 30000, Note_on_c, 2, 64, 100
1, 30000, Note_on_c, 2, 59, 100
1, 30000, Note_on_c, 2, 68, 100
1, 30000, Note_on_c, 3, 40, 100
1, 30000, Note_on_c, 4, 78, 100
1, 30000, Note_on_c, 6, 52, 100
1, 30000, Note_on_c, 6, 40, 100
1, 30000, Note_on_c, 9, 42, 100
1, 30000, Note_on_c, 9, 38, 100
1, 30015, Note_on_c, 9, 38, 0
1, 30015, Note_on_c, 9, 42, 0
1, 30120, Note_on_c, 6, 68, 0
1, 30120, Note_on_c, 2, 68, 0
1, 30120, Note_on_c, 2, 71, 0
1, 30120, Note_on_c, 6, 59, 0
1, 30120, Note_on_c, 2, 64, 0
1, 30120, Note_on_c, 2, 59, 0
1, 30120, Note_on_c, 6, 64, 0
1, 30120, Note_on_c, 3, 40, 0
1, 30120, Note_on_c, 2, 52, 0
1, 30120, Note_on_c, 12, 78, 0
1, 30120, Note_on_c, 2, 71, 100
1, 30120, Note_on_c, 2, 52, 100
1, 30120, Note_on_c, 2, 68, 100
1, 30120, Note_on_c, 2, 59, 100
1, 30120, Note_on_c, 2, 64, 100
1, 30120, Note_on_c, 3, 35, 100
1, 30120, Note_on_c, 6, 68, 100
1, 30120, Note_on_c, 6, 64, 100
1, 30120, Note_on_c, 6, 59, 100
1, 30120, Note_on_c, 9, 42, 100
1, 30125, Note_on_c, 1, 40, 0
1, 30135, Note_on_c, 9, 42, 0
1, 30180, Note_on_c, 3, 35, 0
1, 30180, Note_on_c, 2, 59, 0
1, 30180, Note_on_c, 2, 71, 0
1, 30180, Note_on_c, 2, 64, 0
1, 30180, Note_on_c, 4, 78, 0
1, 30180, Note_on_c, 2, 52, 0
1, 30180, Note_on_c, 2, 68, 0
1, 30180, Note_on_c, 2, 59, 100
1, 30180, Note_on_c, 2, 64, 100
1, 30180, Note_on_c, 2, 52, 100
1, 30180, Note_on_c, 2, 71, 100
1, 30180, Note_on_c, 2, 68, 100
1, 30180, Note_on_c, 3, 38, 100
1, 30185, Note_on_c, 1, 64, 100
1, 30185, Note_on_c, 1, 59, 100
1, 30185, Note_on_c, 1, 52, 100
1, 30240, Note_on_c, 3, 38, 0
1, 30240, Note_on_c, 2, 68, 0
1, 30240, Note_on_c, 2, 64, 0
1, 30240, Note_on_c, 2, 71, 0
1, 30240, Note_on_c, 2, 52, 0
1, 30240, Note_on_c, 2, 59, 0
1, 30240, Note_on_c, 6, 52, 0
1, 30240, Note_on_c, 6, 40, 0
1, 30240, Note_on_c, 2, 52, 100
1, 30240, Note_on_c, 2, 71, 100
1, 30240, Note_on_c, 2, 59, 100
1, 30240, Note_on_c, 2, 64, 100
1, 30240, Note_on_c, 2, 68, 100
1, 30240, Note_on_c, 3, 40, 100
1, 30240, Note_on_c, 6, 52, 100
1, 30240, Note_on_c, 6, 40, 100
1, 30240, Note_on_c, 9, 42, 100
1, 30240, Note_on_c, 9, 36, 100
1, 30255, Note_on_c, 9, 36, 0
1, 30255, Note_on_c, 9, 42, 0
1, 30300, Note_on_c, 6, 64, 0
1, 30300, Note_on_c, 6, 68, 0
1, 30300, Note_on_c, 6, 59, 0
1, 30300, Note_on_c, 6, 69, 100
1, 30300, Note_on_c, 6, 64, 100
1, 30300, Note_on_c, 6, 59, 100
1, 30300, Note_on_c, 9, 38, 100
1, 30305, Note_on_c, 1, 59, 0
1, 30305, Note_on_c, 1, 64, 0
1, 30305, Note_on_c, 1, 52, 0
1, 30305, Note_on_c, 1, 64, 75
1, 30305, Note_on_c, 1, 59, 75
1, 30305, Note_on_c, 1, 52, 75
1, 30315, Note_on_c, 9, 38, 0
1, 30360, Note_on_c, 2, 71, 0
1, 30360, Note_on_c, 2, 59, 0
1, 30360, Note_on_c, 2, 52, 0
1, 30360, Note_on_c, 2, 64, 0
1, 30360, Note_on_c, 2, 68, 0
1, 30360, Note_on_c, 2, 68, 100
1, 30360, Note_on_c, 2, 64, 100
1, 30360, Note_on_c, 2, 59, 100
1, 30360, Note_on_c, 2, 71, 100
1, 30360, Note_on_c, 2, 52, 100
1, 30360, Note_on_c, 9, 42, 100
1, 30365, Note_on_c, 1, 64, 0
1, 30365, Note_on_c, 1, 52, 0
1, 30365, Note_on_c, 1, 59, 0
1, 30365, Note_on_c, 1, 64, 75
1, 30365, Note_on_c, 1, 59, 75
1, 30365, Note_on_c, 1, 52, 75
1, 30375, Note_on_c, 9, 42, 0
1, 30420, Note_on_c, 2, 64, 0
1, 30420, Note_on_c, 6, 64, 0
1, 30420, Note_on_c, 2, 68, 0
1, 30420, Note_on_c, 6, 69, 0
1, 30420, Note_on_c, 3, 40, 0
1, 30420, Note_on_c, 6, 59, 0
1, 30420, Note_on_c, 2, 59, 0
1, 30420, Note_on_c, 2, 71, 0
1, 30420, Note_on_c, 2, 52, 0
1, 30420, Note_on_c, 2, 71, 100
1, 30420, Note_on_c, 2, 64, 100
1, 30420, Note_on_c, 2, 52, 100
1, 30420, Note_on_c, 2, 59, 100
1, 30420, Note_on_c, 2, 68, 100
1, 30420, Note_on_c, 3, 40, 100
1, 30420, Note_on_c, 6, 59, 100
1, 30420, Note_on_c, 9, 36, 100
1, 30425, Note_on_c, 1, 59, 0
1, 30425, Note_on_c, 1, 52, 0
1, 30425, Note_on_c, 1, 64, 0
1, 30425, Note_on_c, 1, 64, 75
1, 30425, Note_on_c, 1, 59, 75
1, 30425, Note_on_c, 1, 52, 75
1, 30435, Note_on_c, 9, 36, 0
1, 30480, Note_on_c, 2, 59, 0
1, 30480, Note_on_c, 6, 52, 0
1, 30480, Note_on_c, 2, 52, 0
1, 30480, Note_on_c, 6, 40, 0
1, 30480, Note_on_c, 2, 68, 0
1, 30480, Note_on_c, 3, 40, 0
1, 30480, Note_on_c, 2, 71, 0
1, 30480, Note_on_c, 2, 64, 0
1, 30480, Note_on_c, 2, 52, 100
1, 30480, Note_on_c, 2, 71, 100
1, 30480, Note_on_c, 2, 64, 100
1, 30480, Note_on_c, 2, 59, 100
1, 30480, Note_on_c, 2, 68, 100
1, 30480, Note_on_c, 3, 40, 100
1, 30480, Note_on_c, 6, 68, 100
1, 30480, Note_on_c, 6, 64, 100
1, 30480, Note_on_c, 6, 52, 100
1, 30480, Note_on_c, 6, 40, 100
1, 30480, Note_on_c, 9, 46, 100
1, 30480, Note_on_c, 9, 38, 100
1, 30485, Note_on_c, 1, 64, 0
1, 30485, Note_on_c, 1, 52, 0
1, 30485, Note_on_c, 1, 59, 0
1, 30485, Note_on_c, 1, 64, 100
1, 30485, Note_on_c, 1, 59, 100
1, 30485, Note_on_c, 1, 52, 100
1, 30495, Note_on_c, 9, 38, 0
1, 30495, Note_on_c, 9, 46, 0
1, 30600, Note_on_c, 2, 71, 0
1, 30600, Note_on_c, 2, 59, 0
1, 30600, Note_on_c, 2, 68, 0
1, 30600, Note_on_c, 3, 40, 0
1, 30600, Note_on_c, 2, 52, 0
1, 30600, Note_on_c, 2, 64, 0
1, 30600, Note_on_c, 2, 71, 100
1, 30600, Note_on_c, 2, 52, 100
1, 30600, Note_on_c, 2, 68, 100
1, 30600, Note_on_c, 2, 59, 100
1, 30600, Note_on_c, 2, 64, 100
1, 30600, Note_on_c, 3, 39, 100
1, 30605, Note_on_c, 1, 52, 0
1, 30605, Note_on_c, 1, 59, 0
1, 30605, Note_on_c, 1, 64, 0
1, 30660, Note_on_c, 2, 71, 0
1, 30660, Note_on_c, 2, 68, 0
1, 30660, Note_on_c, 2, 52, 0
1, 30660, Note_on_c, 2, 59, 0
1, 30660, Note_on_c, 2, 64, 0
1, 30660, Note_on_c, 2, 59, 100
1, 30660, Note_on_c, 2, 64, 100
1, 30660, Note_on_c, 2, 52, 100
1, 30660, Note_on_c, 2, 71, 100
1, 30660, Note_on_c, 2, 68, 100
1, 30665, Note_on_c, 1, 64, 100
1, 30665, Note_on_c, 1, 59, 100
1, 30665, Note_on_c, 1, 52, 100
1, 30720, Note_on_c, 2, 68, 0
1, 30720, Note_on_c, 2, 71, 0
1, 30720, Note_on_c, 2, 59, 0
1, 30720, Note_on_c, 6, 64, 0
1, 30720, Note_on_c, 2, 64, 0
1, 30720, Note_on_c, 6, 52, 0
1, 30720, Note_on_c, 6, 59, 0
1, 30720, Note_on_c, 2, 52, 0
1, 30720, Note_on_c, 6, 40, 0
1, 30720, Note_on_c, 6, 68, 0
1, 30720, Note_on_c, 3, 39, 0
1, 30720, Note_on_c, 0, 62, 110
1, 30720, Note_on_c, 0, 57, 110
1, 30720, Note_on_c, 0, 50, 110
1, 30720, Note_on_c, 2, 69, 100
1, 30720, Note_on_c, 2, 66, 100
1, 30720, Note_on_c, 2, 62, 100
1, 30720, Note_on_c, 2, 57, 100
1, 30720, Note_on_c, 2, 50, 100
1, 30720, Note_on_c, 3, 38, 100
1, 30720, Note_on_c, 6, 66, 100
1, 30720, Note_on_c, 6, 62, 100
1, 30720, Note_on_c, 6, 57, 100
1, 30720, Note_on_c, 6, 50, 100
1, 30720, Note_on_c, 6, 38, 100
1, 30720, Note_on_c, 9, 47, 100
1, 30720, Note_on_c, 9, 42, 100
1, 30720, Note_on_c, 11, 74, 100
1, 30720, Note_on_c, 11, 69, 100
1, 30720, Note_on_c, 11, 62, 100
1, 30725, Note_on_c, 1, 64, 0
1, 30725, Note_on_c, 1, 52, 0
1, 30725, Note_on_c, 1, 59, 0
1, 30725, Note_on_c, 1, 62, 110
1, 30725, Note_on_c, 1, 57, 110
1, 30725, Note_on_c, 1, 50, 110
1, 30735, Note_on_c, 9, 42, 0
1, 30735, Note_on_c, 9, 47, 0
1, 30780, Note_on_c, 9, 47, 100
1, 30795, Note_on_c, 9, 47, 0
1, 30840, Note_on_c, 2, 66, 0
1, 30840, Note_on_c, 2, 62, 0
1, 30840, Note_on_c, 2, 50, 0
1, 30840, Note_on_c, 2, 57, 0
1, 30840, Note_on_c, 2, 69, 0
1, 30840, Note_on_c, 9, 47, 100
1, 30840, Note_on_c, 12, 74, 100
1, 30855, Note_on_c, 9, 47, 0
1, 30897, Pitch_bend_c, 0, 8320
1, 30897, Pitch_bend_c, 11, 8320
1, 30900, Note_on_c, 4, 74, 100
1, 30900, Note_on_c, 9, 48, 100
1, 30902, Pitch_bend_c, 0, 8192
1, 30902, Pitch_bend_c, 11, 8192
1, 30907, Pitch_bend_c, 1, 8192
1, 30915, Note_on_c, 9, 48, 0
1, 30917, Pitch_bend_c, 0, 8064
1, 30917, Pitch_bend_c, 11, 8064
1, 30922, Pitch_bend_c, 1, 8064
1, 30932, Pitch_bend_c, 0, 7936
1, 30932, Pitch_bend_c, 11, 7936
1, 30937, Pitch_bend_c, 1, 7936
1, 30947, Pitch_bend_c, 0, 7808
1, 30947, Pitch_bend_c, 11, 7808
1, 30952, Pitch_bend_c, 1, 7808
1, 30960, Note_on_c, 12, 74, 0
1, 30960, Note_on_c, 0, 62, 0
1, 30960, Note_on_c, 0, 57, 0
1, 30960, Note_on_c, 0, 50, 0
1, 30960, Pitch_bend_c, 0, 7680
1, 30960, Note_on_c, 9, 47, 100
1, 30960, Pitch_bend_c, 11, 7680
1, 30960, Note_on_c, 12, 74, 100
1, 30960, Note_on_c, 13, 62, 65
1, 30960, Note_on_c, 13, 57, 65
1, 30960, Note_on_c, 13, 50, 65
1, 30960, Note_on_c, 14, 62, 100
1, 30960, Note_on_c, 14, 57, 100
1, 30960, Note_on_c, 14, 50, 100
1, 30965, Note_on_c, 1, 57, 0
1, 30965, Note_on_c, 1, 50, 0
1, 30965, Note_on_c, 1, 62, 0
1, 30965, Pitch_bend_c, 1, 7680
1, 30975, Note_on_c, 9, 47, 0
1, 30975, Pitch_bend_c, 0, 7552
1, 30975, Pitch_bend_c, 11, 7552
1, 30980, Pitch_bend_c, 1, 7552
1, 30990, Pitch_bend_c, 0, 7424
1, 30990, Pitch_bend_c, 11, 7424
1, 30995, Pitch_bend_c, 1, 7424
1, 31005, Pitch_bend_c, 0, 7296
1, 31005, Pitch_bend_c, 11, 7296
1, 31010, Pitch_bend_c, 0, 6912
1, 31010, Pitch_bend_c, 1, 7296
1, 31010, Pitch_bend_c, 11, 6912
1, 31015, Pitch_bend_c, 1, 6912
1, 31020, Note_on_c, 14, 62, 0
1, 31020, Note_on_c, 13, 62, 0
1, 31020, Note_on_c, 4, 74, 0
1, 31020, Note_on_c, 13, 50, 0
1, 31020, Note_on_c, 14, 57, 0
1, 31020, Note_on_c, 14, 50, 0
1, 31020, Note_on_c, 13, 57, 0
1, 31020, Note_on_c, 4, 74, 100
1, 31020, Note_on_c, 9, 47, 100
1, 31020, Note_on_c, 13, 62, 65
1, 31020, Note_on_c, 13, 57, 65
1, 31020, Note_on_c, 13, 50, 65
1, 31020, Note_on_c, 14, 62, 100
1, 31020, Note_on_c, 14, 57, 100
1, 31020, Note_on_c, 14, 50, 100
1, 31032, Pitch_bend_c, 0, 6656
1, 31032, Pitch_bend_c, 11, 6656
1, 31035, Note_on_c, 9, 47, 0
1, 31037, Pitch_bend_c, 0, 6528
1, 31037, Pitch_bend_c, 1, 6656
1, 31037, Pitch_bend_c, 11, 6528
1, 31040, Pitch_bend_c, 0, 6400
1, 31040, Pitch_bend_c, 11, 6400
1, 31042, Pitch_bend_c, 1, 6528
1, 31045, Pitch_bend_c, 0, 6272
1, 31045, Pitch_bend_c, 1, 6400
1, 31045, Pitch_bend_c, 11, 6272
1, 31050, Pitch_bend_c, 1, 6272
1, 31055, Pitch_bend_c, 0, 6144
1, 31055, Pitch_bend_c, 11, 6144
1, 31057, Pitch_bend_c, 0, 6016
1, 31057, Pitch_bend_c, 11, 6016
1, 31060, Pitch_bend_c, 1, 6144
1, 31062, Pitch_bend_c, 0, 5888
1, 31062, Pitch_bend_c, 1, 6016
1, 31062, Pitch_bend_c, 11, 5888
1, 31067, Pitch_bend_c, 1, 5888
1, 31080, Note_on_c, 14, 50, 0
1, 31080, Note_on_c, 14, 57, 0
1, 31080, Note_on_c, 14, 62, 0
1, 31080, Note_on_c, 13, 62, 0
1, 31080, Note_on_c, 13, 50, 0
1, 31080, Note_on_c, 12, 74, 0
1, 31080, Note_on_c, 13, 57, 0
1, 31080, Pitch_bend_c, 0, 5760
1, 31080, Note_on_c, 9, 48, 100
1, 31080, Pitch_bend_c, 11, 5760
1, 31080, Note_on_c, 12, 69, 100
1, 31080, Note_on_c, 13, 62, 65
1, 31080, Note_on_c, 13, 57, 65
1, 31080, Note_on_c, 13, 50, 65
1, 31080, Note_on_c, 14, 62, 100
1, 31080, Note_on_c, 14, 57, 100
1, 31080, Note_on_c, 14, 50, 100
1, 31085, Pitch_bend_c, 1, 5760
1, 31095, Note_on_c, 9, 48, 0
1, 31102, Pitch_bend_c, 0, 8192
1, 31102, Pitch_bend_c, 11, 8192
1, 31107, Pitch_bend_c, 1, 8192
1, 31140, Note_on_c, 14, 50, 0
1, 31140, Note_on_c, 14, 57, 0
1, 31140, Note_on_c, 4, 74, 0
1, 31140, Note_on_c, 13, 62, 0
1, 31140, Note_on_c, 14, 62, 0
1, 31140, Note_on_c, 13, 50, 0
1, 31140, Note_on_c, 12, 69, 0
1, 31140, Note_on_c, 13, 57, 0
1, 31140, Note_on_c, 4, 69, 100
1, 31140, Note_on_c, 9, 47, 100
1, 31140, Note_on_c, 12, 69, 100
1, 31140, Note_on_c, 13, 62, 65
1, 31140, Note_on_c, 13, 57, 65
1, 31140, Note_on_c, 13, 50, 65
1, 31140, Note_on_c, 14, 62, 100
1, 31140, Note_on_c, 14, 57, 100
1, 31140, Note_on_c, 14, 50, 100
1, 31155, Note_on_c, 9, 47, 0
1, 31200, Note_on_c, 14, 50, 0
1, 31200, Note_on_c, 14, 57, 0
1, 31200, Note_on_c, 4, 69, 0
1, 31200, Note_on_c, 13, 62, 0
1, 31200, Note_on_c, 14, 62, 0
1, 31200, Note_on_c, 13, 50, 0
1, 31200, Note_on_c, 12, 69, 0
1, 31200, Note_on_c, 13, 57, 0
1, 31200, Note_on_c, 4, 69, 100
1, 31200, Note_on_c, 9, 47, 100
1, 31200, Note_on_c, 11, 74, 15
1, 31200, Note_on_c, 11, 69, 15
1, 31200, Note_on_c, 11, 62, 15
1, 31200, Note_on_c, 12, 78, 100
1, 31200, Note_on_c, 13, 62, 65
1, 31200, Note_on_c, 13, 57, 65
1, 31200, Note_on_c, 13, 50, 65
1, 31200, Note_on_c, 14, 62, 100
1, 31200, Note_on_c, 14, 57, 100
1, 31200, Note_on_c, 14, 50, 100
1, 31215, Note_on_c, 9, 47, 0
1, 31260, Note_on_c, 11, 74, 0
1, 31260, Note_on_c, 14, 50, 0
1, 31260, Note_on_c, 13, 62, 0
1, 31260, Note_on_c, 13, 50, 0
1, 31260, Note_on_c, 4, 69, 0
1, 31260, Note_on_c, 13, 57, 0
1, 31260, Note_on_c, 14, 57, 0
1, 31260, Note_on_c, 14, 62, 0
1, 31260, Note_on_c, 11, 69, 0
1, 31260, Note_on_c, 12, 78, 0
1, 31260, Note_on_c, 11, 62, 0
1, 31260, Note_on_c, 4, 78, 100
1, 31260, Note_on_c, 9, 45, 100
1, 31260, Note_on_c, 11, 74, 15
1, 31260, Note_on_c, 11, 69, 15
1, 31260, Note_on_c, 11, 62, 15
1, 31260, Note_on_c, 12, 78, 100
1, 31260, Note_on_c, 13, 62, 65
1, 31260, Note_on_c, 13, 57, 65
1, 31260, Note_on_c, 13, 50, 65
1, 31260, Note_on_c, 14, 62, 100
1, 31260, Note_on_c, 14, 57, 100
1, 31260, Note_on_c, 14, 50, 100
1, 31275, Note_on_c, 9, 45, 0
1, 31320, Note_on_c, 11, 74, 0
1, 31320, Note_on_c, 14, 50, 0
1, 31320, Note_on_c, 13, 62, 0
1, 31320, Note_on_c, 13, 50, 0
1, 31320, Note_on_c, 4, 78, 0
1, 31320, Note_on_c, 13, 57, 0
1, 31320, Note_on_c, 14, 57, 0
1, 31320, Note_on_c, 14, 62, 0
1, 31320, Note_on_c, 11, 62, 0
1, 31320, Note_on_c, 11, 69, 0
1, 31320, Note_on_c, 4, 78, 100
1, 31320, Note_on_c, 9, 47, 100
1, 31320, Note_on_c, 11, 74, 15
1, 31320, Note_on_c, 11, 69, 15
1, 31320, Note_on_c, 11, 62, 15
1, 31320, Note_on_c, 13, 62, 65
1, 31320, Note_on_c, 13, 57, 65
1, 31320, Note_on_c, 13, 50, 65
1, 31320, Note_on_c, 14, 62, 100
1, 31320, Note_on_c, 14, 57, 100
1, 31320, Note_on_c, 14, 50, 100
1, 31335, Note_on_c, 9, 47, 0
1, 31380, Note_on_c, 14, 50, 0
1, 31380, Note_on_c, 13, 50, 0
1, 31380, Note_on_c, 11, 62, 0
1, 31380, Note_on_c, 13, 57, 0
1, 31380, Note_on_c, 13, 62, 0
1, 31380, Note_on_c, 14, 57, 0
1, 31380, Note_on_c, 14, 62, 0
1, 31380, Note_on_c, 11, 74, 0
1, 31380, Note_on_c, 11, 69, 0
1, 31380, Note_on_c, 12, 78, 0
1, 31380, Note_on_c, 9, 47, 100
1, 31380, Note_on_c, 11, 74, 15
1, 31380, Note_on_c, 11, 69, 15
1, 31380, Note_on_c, 11, 62, 15
1, 31380, Note_on_c, 12, 76, 100
1, 31380, Note_on_c, 13, 62, 65
1, 31380, Note_on_c, 13, 57, 65
1, 31380, Note_on_c, 13, 50, 65
1, 31380, Note_on_c, 14, 62, 100
1, 31380, Note_on_c, 14, 57, 100
1, 31380, Note_on_c, 14, 50, 100
1, 31395, Note_on_c, 9, 47, 0
1, 31440, Note_on_c, 4, 78, 0
1, 31440, Note_on_c, 14, 50, 0
1, 31440, Note_on_c, 13, 62, 0
1, 31440, Note_on_c, 13, 50, 0
1, 31440, Note_on_c, 11, 62, 0
1, 31440, Note_on_c, 13, 57, 0
1, 31440, Note_on_c, 14, 57, 0
1, 31440, Note_on_c, 11, 74, 0
1, 31440, Note_on_c, 11, 69, 0
1, 31440, Note_on_c, 14, 62, 0
1, 31440, Note_on_c, 11, 62, 0
1, 31440, Note_on_c, 11, 74, 0
1, 31440, Note_on_c, 11, 69, 0
1, 31440, Note_on_c, 4, 76, 100
1, 31440, Note_on_c, 9, 45, 100
1, 31440, Note_on_c, 11, 74, 15
1, 31440, Note_on_c, 11, 69, 15
1, 31440, Note_on_c, 11, 62, 15
1, 31440, Note_on_c, 13, 62, 65
1, 31440, Note_on_c, 13, 57, 65
1, 31440, Note_on_c, 13, 50, 65
1, 31440, Note_on_c, 14, 62, 100
1, 31440, Note_on_c, 14, 57, 100
1, 31440, Note_on_c, 14, 50, 100
1, 31455, Note_on_c, 9, 45, 0
1, 31500, Note_on_c, 14, 50, 0
1, 31500, Note_on_c, 14, 57, 0
1, 31500, Note_on_c, 11, 69, 0
1, 31500, Note_on_c, 13, 62, 0
1, 31500, Note_on_c, 14, 62, 0
1, 31500, Note_on_c, 11, 74, 0
1, 31500, Note_on_c, 12, 76, 0
1, 31500, Note_on_c, 13, 50, 0
1, 31500, Note_on_c, 11, 62, 0
1, 31500, Note_on_c, 13, 57, 0
1, 31500, Note_on_c, 9, 47, 100
1, 31500, Note_on_c, 11, 74, 15
1, 31500, Note_on_c, 11, 69, 15
1, 31500, Note_on_c, 11, 62, 15
1, 31500, Note_on_c, 12, 74, 100
1, 31500, Note_on_c, 13, 62, 65
1, 31500, Note_on_c, 13, 57, 65
1, 31500, Note_on_c, 13, 50, 65
1, 31500, Note_on_c, 14, 62, 100
1, 31500, Note_on_c, 14, 57, 100
1, 31500, Note_on_c, 14, 50, 100
1, 31515, Note_on_c, 9, 47, 0
1, 31560, Note_on_c, 14, 50, 0
1, 31560, Note_on_c, 14, 57, 0
1, 31560, Note_on_c, 11, 62, 0
1, 31560, Note_on_c, 13, 62, 0
1, 31560, Note_on_c, 4, 76, 0
1, 31560, Note_on_c, 14, 62, 0
1, 31560, Note_on_c, 11, 69, 0
1, 31560, Note_on_c, 11, 74, 0
1, 31560, Note_on_c, 13, 50, 0
1, 31560, Note_on_c, 12, 74, 0
1, 31560, Note_on_c, 13, 57, 0
1, 31560, Note_on_c, 4, 74, 100
1, 31560, Note_on_c, 9, 47, 100
1, 31560, Note_on_c, 11, 74, 15
1, 31560, Note_on_c, 11, 69, 15
1, 31560, Note_on_c, 11, 62, 15
1, 31560, Note_on_c, 12, 76, 100
1, 31560, Note_on_c, 13, 62, 65
1, 31560, Note_on_c, 13, 57, 65
1, 31560, Note_on_c, 13, 50, 65
1, 31560, Note_on_c, 14, 62, 100
1, 31560, Note_on_c, 14, 57, 100
1, 31560, Note_on_c, 14, 50, 100
1, 31575, Note_on_c, 9, 47, 0
1, 31590, Note_on_c, 9, 45, 100
1, 31605, Note_on_c, 9, 45, 0
1, 31620, Note_on_c, 14, 62, 0
1, 31620, Note_on_c, 14, 50, 0
1, 31620, Note_on_c, 14, 57, 0
1, 31620, Note_on_c, 13, 62, 0
1, 31620, Note_on_c, 4, 74, 0
1, 31620, Note_on_c, 11, 62, 0
1, 31620, Note_on_c, 11, 69, 0
1, 31620, Note_on_c, 11, 74, 0
1, 31620, Note_on_c, 13, 50, 0
1, 31620, Note_on_c, 13, 57, 0
1, 31620, Note_on_c, 4, 76, 100
1, 31620, Note_on_c, 9, 36, 100
1, 31620, Note_on_c, 11, 74, 15
1, 31620, Note_on_c, 11, 69, 15
1, 31620, Note_on_c, 11, 62, 15
1, 31620, Note_on_c, 13, 62, 65
1, 31620, Note_on_c, 13, 57, 65
1, 31620, Note_on_c, 13, 50, 65
1, 31620, Note_on_c, 14, 62, 100
1, 31620, Note_on_c, 14, 57, 100
1, 31620, Note_on_c, 14, 50, 100
1, 31635, Note_on_c, 9, 36, 0
1, 31680, Note_on_c, 3, 38, 0
1, 31680, Note_on_c, 6, 57, 0
1, 31680, Note_on_c, 14, 50, 0
1, 31680, Note_on_c, 13, 62, 0
1, 31680, Note_on_c, 14, 57, 0
1, 31680, Note_on_c, 6, 38, 0
1, 31680, Note_on_c, 6, 66, 0
1, 31680, Note_on_c, 6, 62, 0
1, 31680, Note_on_c, 6, 50, 0
1, 31680, Note_on_c, 11, 69, 0
1, 31680, Note_on_c, 14, 62, 0
1, 31680, Note_on_c, 13, 57, 0
1, 31680, Note_on_c, 11, 62, 0
1, 31680, Note_on_c, 11, 74, 0
1, 31680, Note_on_c, 13, 50, 0
1, 31680, Note_on_c, 0, 64, 110
1, 31680, Note_on_c, 0, 59, 110
1, 31680, Note_on_c, 0, 52, 110
1, 31680, Note_on_c, 2, 71, 100
1, 31680, Note_on_c, 2, 68, 100
1, 31680, Note_on_c, 2, 64, 100
1, 31680, Note_on_c, 2, 59, 100
1, 31680, Note_on_c, 2, 52, 100
1, 31680, Note_on_c, 3, 40, 100
1, 31680, Note_on_c, 6, 68, 100
1, 31680, Note_on_c, 6, 64, 100
1, 31680, Note_on_c, 6, 59, 100
1, 31680, Note_on_c, 6, 52, 100
1, 31680, Note_on_c, 6, 40, 100
1, 31680, Note_on_c, 9, 47, 100
1, 31680, Note_on_c, 9, 42, 100
1, 31685, Note_on_c, 1, 64, 110
1, 31685, Note_on_c, 1, 59, 110
1, 31685, Note_on_c, 1, 52, 110
1, 31695, Note_on_c, 9, 42, 0
1, 31695, Note_on_c, 9, 47, 0
1, 31740, Note_on_c, 9, 47, 100
1, 31755, Note_on_c, 9, 47, 0
1, 31800, Note_on_c, 12, 76, 0
1, 31800, Note_on_c, 9, 47, 100
1, 31800, Note_on_c, 12, 71, 100
1, 31815, Note_on_c, 9, 47, 0
1, 31860, Note_on_c, 12, 71, 0
1, 31860, Note_on_c, 4, 76, 0
1, 31860, Note_on_c, 4, 71, 100
1, 31860, Note_on_c, 9, 45, 100
1, 31860, Note_on_c, 12, 69, 100
1, 31875, Note_on_c, 9, 45, 0
1, 31920, Note_on_c, 12, 69, 0
1, 31920, Note_on_c, 4, 71, 0
1, 31920, Note_on_c, 4, 69, 100
1, 31920, Note_on_c, 9, 47, 100
1, 31920, Note_on_c, 12, 68, 100
1, 31935, Note_on_c, 9, 47, 0
1, 31980, Note_on_c, 4, 69, 0
1, 31980, Note_on_c, 4, 68, 100
1, 31980, Note_on_c, 9, 47, 100
1, 31995, Note_on_c, 9, 47, 0
1, 32040, Note_on_c, 12, 68, 0
1, 32040, Note_on_c, 9, 38, 100
1, 32055, Note_on_c, 9, 38, 0
1, 32100, Note_on_c, 4, 68, 0
1, 32100, Note_on_c, 9, 47, 100
1, 32115, Note_on_c, 9, 47, 0
1, 32160, Note_on_c, 2, 64, 0
1, 32160, Note_on_c, 6, 40, 0
1, 32160, Note_on_c, 0, 59, 0
1, 32160, Note_on_c, 6, 64, 0
1, 32160, Note_on_c, 2, 71, 0
1, 32160, Note_on_c, 2, 68, 0
1, 32160, Note_on_c, 0, 64, 0
1, 32160, Note_on_c, 2, 59, 0
1, 32160, Note_on_c, 0, 52, 0
1, 32160, Note_on_c, 2, 52, 0
1, 32160, Note_on_c, 6, 52, 0
1, 32160, Note_on_c, 6, 59, 0
1, 32160, Note_on_c, 6, 68, 0
1, 32160, Note_on_c, 9, 47, 100
1, 32165, Note_on_c, 1, 64, 0
1, 32165, Note_on_c, 1, 59, 0
1, 32165, Note_on_c, 1, 52, 0
1, 32175, Note_on_c, 9, 47, 0
1, 32220, Note_on_c, 9, 45, 100
1, 32235, Note_on_c, 9, 45, 0
1, 32280, Note_on_c, 9, 47, 100
1, 32295, Note_on_c, 9, 47, 0
1, 32340, Note_on_c, 9, 47, 100
1, 32355, Note_on_c, 9, 47, 0
1, 32400, Note_on_c, 9, 45, 100
1, 32415, Note_on_c, 9, 45, 0
1, 32430, Note_on_c, 9, 45, 100
1, 32445, Note_on_c, 9, 45, 0
1, 32460, Note_on_c, 9, 45, 100
1, 32475, Note_on_c, 9, 45, 0
1, 32490, Note_on_c, 9, 45, 100
1, 32505, Note_on_c, 9, 45, 0
1, 32520, Note_on_c, 9, 47, 100
1, 32535, Note_on_c, 9, 47, 0
1, 32550, Note_on_c, 9, 47, 100
1, 32565, Note_on_c, 9, 47, 0
1, 32580, Note_on_c, 9, 47, 100
1, 32595, Note_on_c, 9, 47, 0
1, 32640, Marker_t, "middle bit"
1, 32640, Note_on_c, 3, 40, 0
1, 32640, Note_on_c, 3, 47, 100
1, 32640, Note_on_c, 6, 78, 100
1, 32640, Note_on_c, 6, 74, 100
1, 32640, Note_on_c, 6, 69, 100
1, 32640, Note_on_c, 6, 59, 100
1, 32640, Note_on_c, 6, 47, 100
1, 32640, Note_on_c, 8, 71, 100
1, 32640, Note_on_c, 9, 36, 100
1, 32640, Note_on_c, 9, 49, 100
1, 32640, Note_on_c, 10, 86, 100
1, 32645, Note_on_c, 1, 66, 75
1, 32645, Note_on_c, 1, 62, 75
1, 32645, Note_on_c, 1, 57, 75
1, 32645, Note_on_c, 1, 54, 75
1, 32645, Note_on_c, 1, 47, 75
1, 32655, Note_on_c, 9, 49, 0
1, 32655, Note_on_c, 9, 36, 0
1, 32700, Note_on_c, 8, 71, 0
1, 32700, Note_on_c, 6, 69, 0
1, 32700, Note_on_c, 10, 86, 0
1, 32700, Note_on_c, 6, 74, 0
1, 32700, Note_on_c, 6, 47, 0
1, 32700, Note_on_c, 6, 78, 0
1, 32700, Note_on_c, 6, 59, 0
1, 32700, Note_on_c, 6, 78, 100
1, 32700, Note_on_c, 6, 74, 100
1, 32700, Note_on_c, 6, 69, 100
1, 32700, Note_on_c, 6, 59, 100
1, 32700, Note_on_c, 6, 47, 100
1, 32700, Note_on_c, 8, 69, 100
1, 32700, Note_on_c, 10, 85, 100
1, 32705, Note_on_c, 1, 47, 0
1, 32705, Note_on_c, 1, 66, 0
1, 32705, Note_on_c, 1, 54, 0
1, 32705, Note_on_c, 1, 62, 0
1, 32705, Note_on_c, 1, 57, 0
1, 32705, Note_on_c, 1, 66, 75
1, 32705, Note_on_c, 1, 62, 75
1, 32705, Note_on_c, 1, 57, 75
1, 32705, Note_on_c, 1, 54, 75
1, 32705, Note_on_c, 1, 47, 75
1, 32760, Note_on_c, 6, 69, 0
1, 32760, Note_on_c, 6, 47, 0
1, 32760, Note_on_c, 8, 69, 0
1, 32760, Note_on_c, 6, 74, 0
1, 32760, Note_on_c, 3, 47, 0
1, 32760, Note_on_c, 6, 59, 0
1, 32760, Note_on_c, 10, 85, 0
1, 32760, Note_on_c, 6, 78, 0
1, 32760, Note_on_c, 6, 78, 100
1, 32760, Note_on_c, 6, 74, 100
1, 32760, Note_on_c, 6, 69, 100
1, 32760, Note_on_c, 6, 59, 100
1, 32760, Note_on_c, 6, 47, 100
1, 32760, Note_on_c, 8, 71, 100
1, 32760, Note_on_c, 9, 42, 100
1, 32760, Note_on_c, 10, 86, 100
1, 32765, Note_on_c, 1, 66, 0
1, 32765, Note_on_c, 1, 62, 0
1, 32765, Note_on_c, 1, 54, 0
1, 32765, Note_on_c, 1, 57, 0
1, 32765, Note_on_c, 1, 47, 0
1, 32765, Note_on_c, 1, 66, 75
1, 32765, Note_on_c, 1, 62, 75
1, 32765, Note_on_c, 1, 57, 75
1, 32765, Note_on_c, 1, 54, 75
1, 32765, Note_on_c, 1, 47, 75
1, 32775, Note_on_c, 9, 42, 0
1, 32820, Note_on_c, 8, 71, 0
1, 32820, Note_on_c, 10, 86, 0
1, 32820, Note_on_c, 6, 69, 0
1, 32820, Note_on_c, 6, 78, 0
1, 32820, Note_on_c, 6, 59, 0
1, 32820, Note_on_c, 6, 47, 0
1, 32820, Note_on_c, 6, 74, 0
1, 32820, Note_on_c, 3, 42, 100
1, 32820, Note_on_c, 6, 78, 100
1, 32820, Note_on_c, 6, 74, 100
1, 32820, Note_on_c, 6, 69, 100
1, 32820, Note_on_c, 6, 59, 100
1, 32820, Note_on_c, 6, 47, 100
1, 32820, Note_on_c, 8, 69, 100
1, 32820, Note_on_c, 9, 36, 100
1, 32820, Note_on_c, 10, 85, 100
1, 32825, Note_on_c, 1, 66, 0
1, 32825, Note_on_c, 1, 62, 0
1, 32825, Note_on_c, 1, 54, 0
1, 32825, Note_on_c, 1, 57, 0
1, 32825, Note_on_c, 1, 47, 0
1, 32825, Note_on_c, 1, 66, 75
1, 32825, Note_on_c, 1, 62, 75
1, 32825, Note_on_c, 1, 57, 75
1, 32825, Note_on_c, 1, 54, 75
1, 32825, Note_on_c, 1, 47, 75
1, 32835, Note_on_c, 9, 36, 0
1, 32880, Note_on_c, 3, 42, 0
1, 32880, Note_on_c, 6, 78, 0
1, 32880, Note_on_c, 6, 74, 0
1, 32880, Note_on_c, 6, 69, 0
1, 32880, Note_on_c, 8, 69, 0
1, 32880, Note_on_c, 6, 59, 0
1, 32880, Note_on_c, 6, 47, 0
1, 32880, Note_on_c, 10, 85, 0
1, 32880, Note_on_c, 3, 47, 100
1, 32880, Note_on_c, 6, 78, 100
1, 32880, Note_on_c, 6, 74, 100
1, 32880, Note_on_c, 6, 69, 100
1, 32880, Note_on_c, 6, 59, 100
1, 32880, Note_on_c, 6, 47, 100
1, 32880, Note_on_c, 8, 71, 100
1, 32880, Note_on_c, 9, 42, 100
1, 32880, Note_on_c, 9, 38, 100
1, 32880, Note_on_c, 10, 86, 100
1, 32885, Note_on_c, 1, 54, 0
1, 32885, Note_on_c, 1, 66, 0
1, 32885, Note_on_c, 1, 57, 0
1, 32885, Note_on_c, 1, 62, 0
1, 32885, Note_on_c, 1, 47, 0
1, 32885, Note_on_c, 1, 66, 75
1, 32885, Note_on_c, 1, 62, 75
1, 32885, Note_on_c, 1, 57, 75
1, 32885, Note_on_c, 1, 54, 75
1, 32885, Note_on_c, 1, 47, 75
1, 32895, Note_on_c, 9, 42, 0
1, 32895, Note_on_c, 9, 38, 0
1, 32940, Note_on_c, 8, 71, 0
1, 32940, Note_on_c, 10, 86, 0
1, 32940, Note_on_c, 8, 69, 100
1, 32940, Note_on_c, 10, 85, 100
1, 33000, Note_on_c, 10, 85, 0
1, 33000, Note_on_c, 3, 47, 0
1, 33000, Note_on_c, 6, 69, 0
1, 33000, Note_on_c, 6, 78, 0
1, 33000, Note_on_c, 6, 59, 0
1, 33000, Note_on_c, 8, 69, 0
1, 33000, Note_on_c, 6, 74, 0
1, 33000, Note_on_c, 6, 47, 0
1, 33000, Note_on_c, 8, 71, 100
1, 33000, Note_on_c, 9, 42, 100
1, 33000, Note_on_c, 10, 86, 100
1, 33005, Note_on_c, 1, 57, 0
1, 33005, Note_on_c, 1, 47, 0
1, 33005, Note_on_c, 1, 62, 0
1, 33005, Note_on_c, 1, 66, 0
1, 33005, Note_on_c, 1, 54, 0
1, 33005, Note_on_c, 1, 66, 60
1, 33005, Note_on_c, 1, 62, 60
1, 33005, Note_on_c, 1, 57, 60
1, 33005, Note_on_c, 1, 54, 60
1, 33005, Note_on_c, 1, 47, 60
1, 33015, Note_on_c, 9, 42, 0
1, 33060, Note_on_c, 10, 86, 0
1, 33060, Note_on_c, 8, 71, 0
1, 33060, Note_on_c, 8, 69, 100
1, 33060, Note_on_c, 10, 85, 100
1, 33120, Note_on_c, 10, 85, 0
1, 33120, Note_on_c, 8, 69, 0
1, 33120, Note_on_c, 3, 47, 100
1, 33120, Note_on_c, 6, 78, 100
1, 33120, Note_on_c, 6, 74, 100
1, 33120, Note_on_c, 6, 69, 100
1, 33120, Note_on_c, 6, 59, 100
1, 33120, Note_on_c, 6, 47, 100
1, 33120, Note_on_c, 8, 71, 100
1, 33120, Note_on_c, 9, 42, 100
1, 33120, Note_on_c, 9, 36, 100
1, 33120, Note_on_c, 10, 86, 100
1, 33125, Note_on_c, 1, 54, 0
1, 33125, Note_on_c, 1, 66, 0
1, 33125, Note_on_c, 1, 47, 0
1, 33125, Note_on_c, 1, 62, 0
1, 33125, Note_on_c, 1, 57, 0
1, 33125, Note_on_c, 1, 66, 75
1, 33125, Note_on_c, 1, 62, 75
1, 33125, Note_on_c, 1, 57, 75
1, 33125, Note_on_c, 1, 54, 75
1, 33125, Note_on_c, 1, 47, 75
1, 33135, Note_on_c, 9, 42, 0
1, 33135, Note_on_c, 9, 36, 0
1, 33180, Note_on_c, 3, 47, 0
1, 33180, Note_on_c, 6, 74, 0
1, 33180, Note_on_c, 6, 69, 0
1, 33180, Note_on_c, 6, 78, 0
1, 33180, Note_on_c, 6, 59, 0
1, 33180, Note_on_c, 6, 47, 0
1, 33180, Note_on_c, 3, 46, 100
1, 33180, Note_on_c, 6, 78, 100
1, 33180, Note_on_c, 6, 74, 100
1, 33180, Note_on_c, 6, 69, 100
1, 33180, Note_on_c, 6, 59, 100
1, 33180, Note_on_c, 6, 47, 100
1, 33185, Note_on_c, 1, 62, 0
1, 33185, Note_on_c, 1, 54, 0
1, 33185, Note_on_c, 1, 66, 0
1, 33185, Note_on_c, 1, 57, 0
1, 33185, Note_on_c, 1, 47, 0
1, 33185, Note_on_c, 1, 66, 75
1, 33185, Note_on_c, 1, 62, 75
1, 33185, Note_on_c, 1, 57, 75
1, 33185, Note_on_c, 1, 54, 75
1, 33185, Note_on_c, 1, 47, 75
1, 33240, Note_on_c, 3, 46, 0
1, 33240, Note_on_c, 8, 71, 0
1, 33240, Note_on_c, 6, 78, 0
1, 33240, Note_on_c, 10, 86, 0
1, 33240, Note_on_c, 6, 59, 0
1, 33240, Note_on_c, 6, 74, 0
1, 33240, Note_on_c, 6, 47, 0
1, 33240, Note_on_c, 6, 69, 0
1, 33240, Note_on_c, 3, 47, 100
1, 33240, Note_on_c, 6, 78, 100
1, 33240, Note_on_c, 6, 74, 100
1, 33240, Note_on_c, 6, 69, 100
1, 33240, Note_on_c, 6, 59, 100
1, 33240, Note_on_c, 6, 47, 100
1, 33240, Note_on_c, 8, 67, 100
1, 33240, Note_on_c, 9, 42, 100
1, 33240, Note_on_c, 10, 83, 100
1, 33245, Note_on_c, 1, 66, 0
1, 33245, Note_on_c, 1, 62, 0
1, 33245, Note_on_c, 1, 54, 0
1, 33245, Note_on_c, 1, 57, 0
1, 33245, Note_on_c, 1, 47, 0
1, 33245, Note_on_c, 1, 66, 75
1, 33245, Note_on_c, 1, 62, 75
1, 33245, Note_on_c, 1, 57, 75
1, 33245, Note_on_c, 1, 54, 75
1, 33245, Note_on_c, 1, 47, 75
1, 33255, Note_on_c, 9, 42, 0
1, 33300, Note_on_c, 6, 74, 0
1, 33300, Note_on_c, 6, 69, 0
1, 33300, Note_on_c, 3, 47, 0
1, 33300, Note_on_c, 6, 59, 0
1, 33300, Note_on_c, 6, 47, 0
1, 33300, Note_on_c, 6, 78, 0
1, 33300, Note_on_c, 3, 47, 100
1, 33300, Note_on_c, 6, 78, 100
1, 33300, Note_on_c, 6, 74, 100
1, 33300, Note_on_c, 6, 69, 100
1, 33300, Note_on_c, 6, 59, 100
1, 33300, Note_on_c, 6, 47, 100
1, 33300, Note_on_c, 9, 36, 100
1, 33305, Note_on_c, 1, 57, 0
1, 33305, Note_on_c, 1, 47, 0
1, 33305, Note_on_c, 1, 54, 0
1, 33305, Note_on_c, 1, 62, 0
1, 33305, Note_on_c, 1, 66, 0
1, 33305, Note_on_c, 1, 66, 75
1, 33305, Note_on_c, 1, 62, 75
1, 33305, Note_on_c, 1, 57, 75
1, 33305, Note_on_c, 1, 54, 75
1, 33305, Note_on_c, 1, 47, 75
1, 33315, Note_on_c, 9, 36, 0
1, 33360, Note_on_c, 6, 74, 0
1, 33360, Note_on_c, 6, 78, 0
1, 33360, Note_on_c, 10, 83, 0
1, 33360, Note_on_c, 3, 47, 0
1, 33360, Note_on_c, 6, 59, 0
1, 33360, Note_on_c, 6, 69, 0
1, 33360, Note_on_c, 6, 47, 0
1, 33360, Note_on_c, 8, 67, 0
1, 33360, Note_on_c, 3, 47, 100
1, 33360, Note_on_c, 6, 78, 100
1, 33360, Note_on_c, 6, 74, 100
1, 33360, Note_on_c, 6, 69, 100
1, 33360, Note_on_c, 6, 59, 100
1, 33360, Note_on_c, 6, 47, 100
1, 33360, Note_on_c, 9, 46, 100
1, 33360, Note_on_c, 9, 38, 100
1, 33365, Note_on_c, 1, 54, 0
1, 33365, Note_on_c, 1, 66, 0
1, 33365, Note_on_c, 1, 57, 0
1, 33365, Note_on_c, 1, 62, 0
1, 33365, Note_on_c, 1, 47, 0
1, 33365, Note_on_c, 1, 66, 75
1, 33365, Note_on_c, 1, 62, 75
1, 33365, Note_on_c, 1, 57, 75
1, 33365, Note_on_c, 1, 54, 75
1, 33365, Note_on_c, 1, 47, 75
1, 33375, Note_on_c, 9, 46, 0
1, 33375, Note_on_c, 9, 38, 0
1, 33480, Note_on_c, 6, 69, 0
1, 33480, Note_on_c, 6, 47, 0
1, 33480, Note_on_c, 6, 74, 0
1, 33480, Note_on_c, 3, 47, 0
1, 33480, Note_on_c, 6, 59, 0
1, 33480, Note_on_c, 6, 78, 0
1, 33480, Note_on_c, 3, 43, 100
1, 33485, Note_on_c, 1, 47, 0
1, 33485, Note_on_c, 1, 66, 0
1, 33485, Note_on_c, 1, 62, 0
1, 33485, Note_on_c, 1, 57, 0
1, 33485, Note_on_c, 1, 54, 0
1, 33485, Note_on_c, 1, 66, 60
1, 33485, Note_on_c, 1, 62, 60
1, 33485, Note_on_c, 1, 57, 60
1, 33485, Note_on_c, 1, 54, 60
1, 33485, Note_on_c, 1, 47, 60
1, 33540, Note_on_c, 3, 43, 0
1, 33540, Note_on_c, 3, 44, 100
1, 33600, Note_on_c, 3, 44, 0
1, 33600, Note_on_c, 3, 45, 100
1, 33600, Note_on_c, 6, 76, 100
1, 33600, Note_on_c, 6, 73, 100
1, 33600, Note_on_c, 6, 57, 100
1, 33600, Note_on_c, 6, 45, 100
1, 33600, Note_on_c, 6, 69, 100
1, 33600, Note_on_c, 8, 69, 100
1, 33600, Note_on_c, 9, 42, 100
1, 33600, Note_on_c, 9, 36, 100
1, 33600, Note_on_c, 10, 85, 100
1, 33605, Note_on_c, 1, 47, 0
1, 33605, Note_on_c, 1, 54, 0
1, 33605, Note_on_c, 1, 66, 0
1, 33605, Note_on_c, 1, 57, 0
1, 33605, Note_on_c, 1, 62, 0
1, 33605, Note_on_c, 1, 64, 75
1, 33605, Note_on_c, 1, 61, 75
1, 33605, Note_on_c, 1, 52, 75
1, 33605, Note_on_c, 1, 45, 75
1, 33605, Note_on_c, 1, 57, 75
1, 33615, Note_on_c, 9, 42, 0
1, 33615, Note_on_c, 9, 36, 0
1, 33660, Note_on_c, 8, 69, 0
1, 33660, Note_on_c, 10, 85, 0
1, 33660, Note_on_c, 6, 73, 0
1, 33660, Note_on_c, 6, 57, 0
1, 33660, Note_on_c, 6, 76, 0
1, 33660, Note_on_c, 6, 45, 0
1, 33660, Note_on_c, 6, 69, 0
1, 33660, Note_on_c, 6, 76, 100
1, 33660, Note_on_c, 6, 57, 100
1, 33660, Note_on_c, 6, 45, 100
1, 33660, Note_on_c, 6, 69, 100
1, 33660, Note_on_c, 6, 73, 100
1, 33660, Note_on_c, 8, 67, 100
1, 33660, Note_on_c, 10, 83, 100
1, 33665, Note_on_c, 1, 57, 0
1, 33665, Note_on_c, 1, 61, 0
1, 33665, Note_on_c, 1, 45, 0
1, 33665, Note_on_c, 1, 64, 0
1, 33665, Note_on_c, 1, 52, 0
1, 33665, Note_on_c, 1, 61, 75
1, 33665, Note_on_c, 1, 52, 75
1, 33665, Note_on_c, 1, 64, 75
1, 33665, Note_on_c, 1, 57, 75
1, 33665, Note_on_c, 1, 45, 75
1, 33720, Note_on_c, 6, 45, 0
1, 33720, Note_on_c, 6, 73, 0
1, 33720, Note_on_c, 8, 67, 0
1, 33720, Note_on_c, 6, 57, 0
1, 33720, Note_on_c, 3, 45, 0
1, 33720, Note_on_c, 6, 69, 0
1, 33720, Note_on_c, 10, 83, 0
1, 33720, Note_on_c, 6, 76, 0
1, 33720, Note_on_c, 6, 73, 100
1, 33720, Note_on_c, 6, 76, 100
1, 33720, Note_on_c, 6, 69, 100
1, 33720, Note_on_c, 6, 57, 100
1, 33720, Note_on_c, 6, 45, 100
1, 33720, Note_on_c, 8, 69, 100
1, 33720, Note_on_c, 9, 42, 100
1, 33720, Note_on_c, 10, 85, 100
1, 33725, Note_on_c, 1, 61, 0
1, 33725, Note_on_c, 1, 52, 0
1, 33725, Note_on_c, 1, 57, 0
1, 33725, Note_on_c, 1, 64, 0
1, 33725, Note_on_c, 1, 45, 0
1, 33725, Note_on_c, 1, 61, 75
1, 33725, Note_on_c, 1, 64, 75
1, 33725, Note_on_c, 1, 57, 75
1, 33725, Note_on_c, 1, 52, 75
1, 33725, Note_on_c, 1, 45, 75
1, 33735, Note_on_c, 9, 42, 0
1, 33780, Note_on_c, 8, 69, 0
1, 33780, Note_on_c, 10, 85, 0
1, 33780, Note_on_c, 6, 69, 0
1, 33780, Note_on_c, 6, 73, 0
1, 33780, Note_on_c, 6, 57, 0
1, 33780, Note_on_c, 6, 45, 0
1, 33780, Note_on_c, 6, 76, 0
1, 33780, Note_on_c, 3, 40, 100
1, 33780, Note_on_c, 6, 76, 100
1, 33780, Note_on_c, 6, 69, 100
1, 33780, Note_on_c, 6, 73, 100
1, 33780, Note_on_c, 6, 57, 100
1, 33780, Note_on_c, 6, 45, 100
1, 33780, Note_on_c, 8, 67, 100
1, 33780, Note_on_c, 9, 36, 100
1, 33780, Note_on_c, 10, 83, 100
1, 33785, Note_on_c, 1, 61, 0
1, 33785, Note_on_c, 1, 64, 0
1, 33785, Note_on_c, 1, 52, 0
1, 33785, Note_on_c, 1, 57, 0
1, 33785, Note_on_c, 1, 45, 0
1, 33785, Note_on_c, 1, 61, 75
1, 33785, Note_on_c, 1, 64, 75
1, 33785, Note_on_c, 1, 52, 75
1, 33785, Note_on_c, 1, 45, 75
1, 33785, Note_on_c, 1, 57, 75
1, 33795, Note_on_c, 9, 36, 0
1, 33840, Note_on_c, 3, 40, 0
1, 33840, Note_on_c, 6, 76, 0
1, 33840, Note_on_c, 6, 69, 0
1, 33840, Note_on_c, 6, 73, 0
1, 33840, Note_on_c, 8, 67, 0
1, 33840, Note_on_c, 6, 57, 0
1, 33840, Note_on_c, 6, 45, 0
1, 33840, Note_on_c, 10, 83, 0
1, 33840, Note_on_c, 3, 45, 100
1, 33840, Note_on_c, 6, 73, 100
1, 33840, Note_on_c, 6, 57, 100
1, 33840, Note_on_c, 6, 45, 100
1, 33840, Note_on_c, 6, 76, 100
1, 33840, Note_on_c, 6, 69, 100
1, 33840, Note_on_c, 8, 69, 100
1, 33840, Note_on_c, 9, 42, 100
1, 33840, Note_on_c, 9, 38, 100
1, 33840, Note_on_c, 10, 85, 100
1, 33845, Note_on_c, 1, 45, 0
1, 33845, Note_on_c, 1, 61, 0
1, 33845, Note_on_c, 1, 52, 0
1, 33845, Note_on_c, 1, 64, 0
1, 33845, Note_on_c, 1, 57, 0
1, 33845, Note_on_c, 1, 64, 75
1, 33845, Note_on_c, 1, 57, 75
1, 33845, Note_on_c, 1, 52, 75
1, 33845, Note_on_c, 1, 45, 75
1, 33845, Note_on_c, 1, 61, 75
1, 33855, Note_on_c, 9, 42, 0
1, 33855, Note_on_c, 9, 38, 0
1, 33900, Note_on_c, 8, 69, 0
1, 33900, Note_on_c, 10, 85, 0
1, 33900, Note_on_c, 8, 67, 100
1, 33900, Note_on_c, 10, 83, 100
1, 33960, Note_on_c, 10, 83, 0
1, 33960, Note_on_c, 3, 45, 0
1, 33960, Note_on_c, 6, 45, 0
1, 33960, Note_on_c, 6, 73, 0
1, 33960, Note_on_c, 6, 76, 0
1, 33960, Note_on_c, 8, 67, 0
1, 33960, Note_on_c, 6, 57, 0
1, 33960, Note_on_c, 6, 69, 0
1, 33960, Note_on_c, 8, 69, 100
1, 33960, Note_on_c, 9, 42, 100
1, 33960, Note_on_c, 10, 85, 100
1, 33965, Note_on_c, 1, 52, 0
1, 33965, Note_on_c, 1, 61, 0
1, 33965, Note_on_c, 1, 57, 0
1, 33965, Note_on_c, 1, 64, 0
1, 33965, Note_on_c, 1, 45, 0
1, 33965, Note_on_c, 1, 52, 60
1, 33965, Note_on_c, 1, 45, 60
1, 33965, Note_on_c, 1, 64, 60
1, 33965, Note_on_c, 1, 61, 60
1, 33965, Note_on_c, 1, 57, 60
1, 33975, Note_on_c, 9, 42, 0
1, 34020, Note_on_c, 10, 85, 0
1, 34020, Note_on_c, 8, 69, 0
1, 34020, Note_on_c, 8, 67, 100
1, 34020, Note_on_c, 10, 83, 100
1, 34080, Note_on_c, 10, 83, 0
1, 34080, Note_on_c, 8, 67, 0
1, 34080, Note_on_c, 3, 45, 100
1, 34080, Note_on_c, 6, 76, 100
1, 34080, Note_on_c, 6, 73, 100
1, 34080, Note_on_c, 6, 57, 100
1, 34080, Note_on_c, 6, 45, 100
1, 34080, Note_on_c, 6, 69, 100
1, 34080, Note_on_c, 8, 69, 100
1, 34080, Note_on_c, 9, 42, 100
1, 34080, Note_on_c, 9, 36, 100
1, 34080, Note_on_c, 10, 85, 100
1, 34085, Note_on_c, 1, 61, 0
1, 34085, Note_on_c, 1, 52, 0
1, 34085, Note_on_c, 1, 57, 0
1, 34085, Note_on_c, 1, 45, 0
1, 34085, Note_on_c, 1, 64, 0
1, 34085, Note_on_c, 1, 64, 75
1, 34085, Note_on_c, 1, 61, 75
1, 34085, Note_on_c, 1, 52, 75
1, 34085, Note_on_c, 1, 45, 75
1, 34085, Note_on_c, 1, 57, 75
1, 34095, Note_on_c, 9, 42, 0
1, 34095, Note_on_c, 9, 36, 0
1, 34140, Note_on_c, 3, 45, 0
1, 34140, Note_on_c, 6, 73, 0
1, 34140, Note_on_c, 6, 57, 0
1, 34140, Note_on_c, 6, 76, 0
1, 34140, Note_on_c, 6, 45, 0
1, 34140, Note_on_c, 6, 69, 0
1, 34140, Note_on_c, 3, 44, 100
1, 34140, Note_on_c, 6, 76, 100
1, 34140, Note_on_c, 6, 57, 100
1, 34140, Note_on_c, 6, 45, 100
1, 34140, Note_on_c, 6, 69, 100
1, 34140, Note_on_c, 6, 73, 100
1, 34145, Note_on_c, 1, 61, 0
1, 34145, Note_on_c, 1, 45, 0
1, 34145, Note_on_c, 1, 64, 0
1, 34145, Note_on_c, 1, 52, 0
1, 34145, Note_on_c, 1, 57, 0
1, 34145, Note_on_c, 1, 61, 75
1, 34145, Note_on_c, 1, 52, 75
1, 34145, Note_on_c, 1, 64, 75
1, 34145, Note_on_c, 1, 57, 75
1, 34145, Note_on_c, 1, 45, 75
1, 34200, Note_on_c, 3, 44, 0
1, 34200, Note_on_c, 8, 69, 0
1, 34200, Note_on_c, 6, 76, 0
1, 34200, Note_on_c, 10, 85, 0
1, 34200, Note_on_c, 6, 69, 0
1, 34200, Note_on_c, 6, 57, 0
1, 34200, Note_on_c, 6, 73, 0
1, 34200, Note_on_c, 6, 45, 0
1, 34200, Note_on_c, 3, 45, 100
1, 34200, Note_on_c, 6, 73, 100
1, 34200, Note_on_c, 6, 76, 100
1, 34200, Note_on_c, 6, 69, 100
1, 34200, Note_on_c, 6, 57, 100
1, 34200, Note_on_c, 6, 45, 100
1, 34200, Note_on_c, 8, 66, 100
1, 34200, Note_on_c, 9, 42, 100
1, 34200, Note_on_c, 10, 81, 100
1, 34205, Note_on_c, 1, 61, 0
1, 34205, Note_on_c, 1, 52, 0
1, 34205, Note_on_c, 1, 57, 0
1, 34205, Note_on_c, 1, 64, 0
1, 34205, Note_on_c, 1, 45, 0
1, 34205, Note_on_c, 1, 61, 75
1, 34205, Note_on_c, 1, 64, 75
1, 34205, Note_on_c, 1, 57, 75
1, 34205, Note_on_c, 1, 52, 75
1, 34205, Note_on_c, 1, 45, 75
1, 34215, Note_on_c, 9, 42, 0
1, 34260, Note_on_c, 6, 76, 0
1, 34260, Note_on_c, 6, 69, 0
1, 34260, Note_on_c, 3, 45, 0
1, 34260, Note_on_c, 6, 57, 0
1, 34260, Note_on_c, 6, 45, 0
1, 34260, Note_on_c, 6, 73, 0
1, 34260, Note_on_c, 3, 45, 100
1, 34260, Note_on_c, 6, 76, 100
1, 34260, Note_on_c, 6, 69, 100
1, 34260, Note_on_c, 6, 73, 100
1, 34260, Note_on_c, 6, 57, 100
1, 34260, Note_on_c, 6, 45, 100
1, 34260, Note_on_c, 9, 36, 100
1, 34265, Note_on_c, 1, 57, 0
1, 34265, Note_on_c, 1, 45, 0
1, 34265, Note_on_c, 1, 52, 0
1, 34265, Note_on_c, 1, 64, 0
1, 34265, Note_on_c, 1, 61, 0
1, 34265, Note_on_c, 1, 61, 75
1, 34265, Note_on_c, 1, 64, 75
1, 34265, Note_on_c, 1, 52, 75
1, 34265, Note_on_c, 1, 45, 75
1, 34265, Note_on_c, 1, 57, 75
1, 34275, Note_on_c, 9, 36, 0
1, 34320, Note_on_c, 6, 69, 0
1, 34320, Note_on_c, 6, 76, 0
1, 34320, Note_on_c, 10, 81, 0
1, 34320, Note_on_c, 3, 45, 0
1, 34320, Note_on_c, 6, 57, 0
1, 34320, Note_on_c, 6, 73, 0
1, 34320, Note_on_c, 6, 45, 0
1, 34320, Note_on_c, 8, 66, 0
1, 34320, Note_on_c, 3, 45, 100
1, 34320, Note_on_c, 6, 73, 100
1, 34320, Note_on_c, 6, 57, 100
1, 34320, Note_on_c, 6, 45, 100
1, 34320, Note_on_c, 6, 76, 100
1, 34320, Note_on_c, 6, 69, 100
1, 34320, Note_on_c, 9, 46, 100
1, 34320, Note_on_c, 9, 38, 100
1, 34325, Note_on_c, 1, 45, 0
1, 34325, Note_on_c, 1, 61, 0
1, 34325, Note_on_c, 1, 52, 0
1, 34325, Note_on_c, 1, 64, 0
1, 34325, Note_on_c, 1, 57, 0
1, 34325, Note_on_c, 1, 64, 75
1, 34325, Note_on_c, 1, 57, 75
1, 34325, Note_on_c, 1, 52, 75
1, 34325, Note_on_c, 1, 45, 75
1, 34325, Note_on_c, 1, 61, 75
1, 34335, Note_on_c, 9, 46, 0
1, 34335, Note_on_c, 9, 38, 0
1, 34440, Note_on_c, 6, 45, 0
1, 34440, Note_on_c, 6, 69, 0
1, 34440, Note_on_c, 6, 57, 0
1, 34440, Note_on_c, 3, 45, 0
1, 34440, Note_on_c, 6, 76, 0
1, 34440, Note_on_c, 6, 73, 0
1, 34440, Note_on_c, 3, 43, 100
1, 34445, Note_on_c, 1, 61, 0
1, 34445, Note_on_c, 1, 64, 0
1, 34445, Note_on_c, 1, 57, 0
1, 34445, Note_on_c, 1, 52, 0
1, 34445, Note_on_c, 1, 45, 0
1, 34445, Note_on_c, 1, 52, 60
1, 34445, Note_on_c, 1, 45, 60
1, 34445, Note_on_c, 1, 64, 60
1, 34445, Note_on_c, 1, 61, 60
1, 34445, Note_on_c, 1, 57, 60
1, 34560, Note_on_c, 3, 43, 0
1, 34560, Note_on_c, 3, 43, 100
1, 34560, Note_on_c, 6, 74, 100
1, 34560, Note_on_c, 6, 71, 100
1, 34560, Note_on_c, 6, 55, 100
1, 34560, Note_on_c, 6, 43, 100
1, 34560, Note_on_c, 6, 67, 100
1, 34560, Note_on_c, 8, 67, 100
1, 34560, Note_on_c, 9, 36, 100
1, 34560, Note_on_c, 9, 42, 100
1, 34560, Note_on_c, 10, 83, 100
1, 34565, Note_on_c, 1, 45, 0
1, 34565, Note_on_c, 1, 61, 0
1, 34565, Note_on_c, 1, 52, 0
1, 34565, Note_on_c, 1, 64, 0
1, 34565, Note_on_c, 1, 57, 0
1, 34565, Note_on_c, 1, 62, 75
1, 34565, Note_on_c, 1, 59, 75
1, 34565, Note_on_c, 1, 50, 75
1, 34565, Note_on_c, 1, 43, 75
1, 34565, Note_on_c, 1, 55, 75
1, 34575, Note_on_c, 9, 36, 0
1, 34575, Note_on_c, 9, 42, 0
1, 34620, Note_on_c, 8, 67, 0
1, 34620, Note_on_c, 10, 83, 0
1, 34620, Note_on_c, 6, 71, 0
1, 34620, Note_on_c, 6, 55, 0
1, 34620, Note_on_c, 6, 74, 0
1, 34620, Note_on_c, 6, 43, 0
1, 34620, Note_on_c, 6, 67, 0
1, 34620, Note_on_c, 6, 74, 100
1, 34620, Note_on_c, 6, 55, 100
1, 34620, Note_on_c, 6, 43, 100
1, 34620, Note_on_c, 6, 67, 100
1, 34620, Note_on_c, 6, 71, 100
1, 34620, Note_on_c, 8, 66, 100
1, 34620, Note_on_c, 10, 82, 100
1, 34625, Note_on_c, 1, 55, 0
1, 34625, Note_on_c, 1, 59, 0
1, 34625, Note_on_c, 1, 43, 0
1, 34625, Note_on_c, 1, 62, 0
1, 34625, Note_on_c, 1, 50, 0
1, 34625, Note_on_c, 1, 59, 75
1, 34625, Note_on_c, 1, 50, 75
1, 34625, Note_on_c, 1, 62, 75
1, 34625, Note_on_c, 1, 55, 75
1, 34625, Note_on_c, 1, 43, 75
1, 34680, Note_on_c, 6, 43, 0
1, 34680, Note_on_c, 6, 71, 0
1, 34680, Note_on_c, 8, 66, 0
1, 34680, Note_on_c, 6, 55, 0
1, 34680, Note_on_c, 3, 43, 0
1, 34680, Note_on_c, 6, 67, 0
1, 34680, Note_on_c, 10, 82, 0
1, 34680, Note_on_c, 6, 74, 0
1, 34680, Note_on_c, 6, 71, 100
1, 34680, Note_on_c, 6, 74, 100
1, 34680, Note_on_c, 6, 67, 100
1, 34680, Note_on_c, 6, 55, 100
1, 34680, Note_on_c, 6, 43, 100
1, 34680, Note_on_c, 8, 67, 100
1, 34680, Note_on_c, 9, 42, 100
1, 34680, Note_on_c, 10, 83, 100
1, 34685, Note_on_c, 1, 59, 0
1, 34685, Note_on_c, 1, 50, 0
1, 34685, Note_on_c, 1, 55, 0
1, 34685, Note_on_c, 1, 62, 0
1, 34685, Note_on_c, 1, 43, 0
1, 34685, Note_on_c, 1, 59, 75
1, 34685, Note_on_c, 1, 62, 75
1, 34685, Note_on_c, 1, 55, 75
1, 34685, Note_on_c, 1, 50, 75
1, 34685, Note_on_c, 1, 43, 75
1, 34695, Note_on_c, 9, 42, 0
1, 34740, Note_on_c, 8, 67, 0
1, 34740, Note_on_c, 10, 83, 0
1, 34740, Note_on_c, 6, 67, 0
1, 34740, Note_on_c, 6, 71, 0
1, 34740, Note_on_c, 6, 55, 0
1, 34740, Note_on_c, 6, 43, 0
1, 34740, Note_on_c, 6, 74, 0
1, 34740, Note_on_c, 3, 42, 100
1, 34740, Note_on_c, 6, 74, 100
1, 34740, Note_on_c, 6, 67, 100
1, 34740, Note_on_c, 6, 71, 100
1, 34740, Note_on_c, 6, 55, 100
1, 34740, Note_on_c, 6, 43, 100
1, 34740, Note_on_c, 8, 66, 100
1, 34740, Note_on_c, 9, 36, 100
1, 34740, Note_on_c, 10, 82, 100
1, 34745, Note_on_c, 1, 59, 0
1, 34745, Note_on_c, 1, 62, 0
1, 34745, Note_on_c, 1, 50, 0
1, 34745, Note_on_c, 1, 55, 0
1, 34745, Note_on_c, 1, 43, 0
1, 34745, Note_on_c, 1, 59, 75
1, 34745, Note_on_c, 1, 62, 75
1, 34745, Note_on_c, 1, 50, 75
1, 34745, Note_on_c, 1, 43, 75
1, 34745, Note_on_c, 1, 55, 75
1, 34755, Note_on_c, 9, 36, 0
1, 34800, Note_on_c, 3, 42, 0
1, 34800, Note_on_c, 6, 74, 0
1, 34800, Note_on_c, 6, 67, 0
1, 34800, Note_on_c, 6, 71, 0
1, 34800, Note_on_c, 8, 66, 0
1, 34800, Note_on_c, 6, 55, 0
1, 34800, Note_on_c, 6, 43, 0
1, 34800, Note_on_c, 10, 82, 0
1, 34800, Note_on_c, 3, 43, 100
1, 34800, Note_on_c, 6, 71, 100
1, 34800, Note_on_c, 6, 55, 100
1, 34800, Note_on_c, 6, 43, 100
1, 34800, Note_on_c, 6, 74, 100
1, 34800, Note_on_c, 6, 67, 100
1, 34800, Note_on_c, 8, 67, 100
1, 34800, Note_on_c, 9, 42, 100
1, 34800, Note_on_c, 9, 38, 100
1, 34800, Note_on_c, 10, 83, 100
1, 34805, Note_on_c, 1, 43, 0
1, 34805, Note_on_c, 1, 59, 0
1, 34805, Note_on_c, 1, 50, 0
1, 34805, Note_on_c, 1, 62, 0
1, 34805, Note_on_c, 1, 55, 0
1, 34805, Note_on_c, 1, 62, 75
1, 34805, Note_on_c, 1, 55, 75
1, 34805, Note_on_c, 1, 50, 75
1, 34805, Note_on_c, 1, 43, 75
1, 34805, Note_on_c, 1, 59, 75
1, 34815, Note_on_c, 9, 42, 0
1, 34815, Note_on_c, 9, 38, 0
1, 34860, Note_on_c, 8, 67, 0
1, 34860, Note_on_c, 10, 83, 0
1, 34860, Note_on_c, 8, 66, 100
1, 34860, Note_on_c, 10, 82, 100
1, 34920, Note_on_c, 10, 82, 0
1, 34920, Note_on_c, 3, 43, 0
1, 34920, Note_on_c, 6, 43, 0
1, 34920, Note_on_c, 6, 71, 0
1, 34920, Note_on_c, 6, 74, 0
1, 34920, Note_on_c, 8, 66, 0
1, 34920, Note_on_c, 6, 55, 0
1, 34920, Note_on_c, 6, 67, 0
1, 34920, Note_on_c, 8, 67, 100
1, 34920, Note_on_c, 9, 42, 100
1, 34920, Note_on_c, 10, 83, 100
1, 34925, Note_on_c, 1, 50, 0
1, 34925, Note_on_c, 1, 59, 0
1, 34925, Note_on_c, 1, 55, 0
1, 34925, Note_on_c, 1, 62, 0
1, 34925, Note_on_c, 1, 43, 0
1, 34925, Note_on_c, 1, 50, 60
1, 34925, Note_on_c, 1, 43, 60
1, 34925, Note_on_c, 1, 62, 60
1, 34925, Note_on_c, 1, 59, 60
1, 34925, Note_on_c, 1, 55, 60
1, 34935, Note_on_c, 9, 42, 0
1, 34980, Note_on_c, 10, 83, 0
1, 34980, Note_on_c, 8, 67, 0
1, 34980, Note_on_c, 8, 66, 100
1, 34980, Note_on_c, 10, 82, 100
1, 35040, Note_on_c, 10, 82, 0
1, 35040, Note_on_c, 8, 66, 0
1, 35040, Note_on_c, 3, 43, 100
1, 35040, Note_on_c, 6, 74, 100
1, 35040, Note_on_c, 6, 71, 100
1, 35040, Note_on_c, 6, 55, 100
1, 35040, Note_on_c, 6, 43, 100
1, 35040, Note_on_c, 6, 67, 100
1, 35040, Note_on_c, 8, 67, 100
1, 35040, Note_on_c, 9, 42, 100
1, 35040, Note_on_c, 9, 36, 100
1, 35040, Note_on_c, 10, 83, 100
1, 35045, Note_on_c, 1, 59, 0
1, 35045, Note_on_c, 1, 50, 0
1, 35045, Note_on_c, 1, 55, 0
1, 35045, Note_on_c, 1, 43, 0
1, 35045, Note_on_c, 1, 62, 0
1, 35045, Note_on_c, 1, 43, 75
1, 35055, Note_on_c, 9, 42, 0
1, 35055, Note_on_c, 9, 36, 0
1, 35100, Note_on_c, 6, 43, 0
1, 35100, Note_on_c, 6, 55, 0
1, 35100, Note_on_c, 3, 43, 0
1, 35100, Note_on_c, 6, 71, 0
1, 35100, Note_on_c, 6, 74, 0
1, 35100, Note_on_c, 6, 67, 0
1, 35100, Note_on_c, 3, 42, 100
1, 35100, Note_on_c, 6, 74, 100
1, 35100, Note_on_c, 6, 55, 100
1, 35100, Note_on_c, 6, 43, 100
1, 35100, Note_on_c, 6, 67, 100
1, 35100, Note_on_c, 6, 71, 100
1, 35105, Note_on_c, 1, 43, 0
1, 35105, Note_on_c, 1, 43, 75
1, 35160, Note_on_c, 6, 74, 0
1, 35160, Note_on_c, 6, 71, 0
1, 35160, Note_on_c, 6, 67, 0
1, 35160, Note_on_c, 6, 55, 0
1, 35160, Note_on_c, 8, 67, 0
1, 35160, Note_on_c, 3, 42, 0
1, 35160, Note_on_c, 10, 83, 0
1, 35160, Note_on_c, 6, 43, 0
1, 35160, Note_on_c, 3, 43, 100
1, 35160, Note_on_c, 6, 71, 100
1, 35160, Note_on_c, 6, 74, 100
1, 35160, Note_on_c, 6, 67, 100
1, 35160, Note_on_c, 6, 55, 100
1, 35160, Note_on_c, 6, 43, 100
1, 35160, Note_on_c, 8, 64, 100
1, 35160, Note_on_c, 9, 42, 100
1, 35160, Note_on_c, 10, 79, 100
1, 35165, Note_on_c, 1, 43, 0
1, 35165, Note_on_c, 1, 43, 75
1, 35175, Note_on_c, 9, 42, 0
1, 35220, Note_on_c, 6, 67, 0
1, 35220, Note_on_c, 3, 43, 0
1, 35220, Note_on_c, 6, 74, 0
1, 35220, Note_on_c, 6, 55, 0
1, 35220, Note_on_c, 6, 71, 0
1, 35220, Note_on_c, 6, 43, 0
1, 35220, Note_on_c, 3, 42, 100
1, 35220, Note_on_c, 6, 74, 100
1, 35220, Note_on_c, 6, 67, 100
1, 35220, Note_on_c, 6, 71, 100
1, 35220, Note_on_c, 6, 55, 100
1, 35220, Note_on_c, 6, 43, 100
1, 35220, Note_on_c, 9, 36, 100
1, 35225, Note_on_c, 1, 43, 0
1, 35225, Note_on_c, 1, 43, 75
1, 35235, Note_on_c, 9, 36, 0
1, 35280, Note_on_c, 3, 42, 0
1, 35280, Note_on_c, 6, 74, 0
1, 35280, Note_on_c, 6, 55, 0
1, 35280, Note_on_c, 6, 67, 0
1, 35280, Note_on_c, 10, 79, 0
1, 35280, Note_on_c, 6, 43, 0
1, 35280, Note_on_c, 8, 64, 0
1, 35280, Note_on_c, 6, 71, 0
1, 35280, Note_on_c, 3, 43, 100
1, 35280, Note_on_c, 6, 71, 100
1, 35280, Note_on_c, 6, 55, 100
1, 35280, Note_on_c, 6, 43, 100
1, 35280, Note_on_c, 6, 74, 100
1, 35280, Note_on_c, 6, 67, 100
1, 35280, Note_on_c, 9, 46, 100
1, 35280, Note_on_c, 9, 38, 100
1, 35285, Note_on_c, 1, 43, 0
1, 35285, Note_on_c, 1, 43, 75
1, 35295, Note_on_c, 9, 38, 0
1, 35295, Note_on_c, 9, 46, 0
1, 35400, Note_on_c, 6, 43, 0
1, 35400, Note_on_c, 6, 74, 0
1, 35400, Note_on_c, 6, 71, 0
1, 35400, Note_on_c, 6, 55, 0
1, 35400, Note_on_c, 3, 43, 0
1, 35400, Note_on_c, 6, 67, 0
1, 35400, Note_on_c, 3, 40, 100
1, 35520, Note_on_c, 3, 40, 0
1, 35520, Note_on_c, 3, 42, 100
1, 35520, Note_on_c, 6, 70, 100
1, 35520, Note_on_c, 6, 66, 100
1, 35520, Note_on_c, 6, 61, 100
1, 35520, Note_on_c, 6, 42, 100
1, 35520, Note_on_c, 6, 54, 100
1, 35520, Note_on_c, 8, 66, 100
1, 35520, Note_on_c, 9, 42, 100
1, 35520, Note_on_c, 9, 36, 100
1, 35520, Note_on_c, 10, 82, 100
1, 35525, Note_on_c, 1, 43, 0
1, 35525, Note_on_c, 1, 54, 75
1, 35525, Note_on_c, 1, 49, 75
1, 35525, Note_on_c, 1, 42, 75
1, 35535, Note_on_c, 9, 36, 0
1, 35535, Note_on_c, 9, 42, 0
1, 35580, Note_on_c, 8, 66, 0
1, 35580, Note_on_c, 3, 42, 0
1, 35580, Note_on_c, 6, 66, 0
1, 35580, Note_on_c, 6, 61, 0
1, 35580, Note_on_c, 10, 82, 0
1, 35580, Note_on_c, 6, 70, 0
1, 35580, Note_on_c, 3, 41, 100
1, 35580, Note_on_c, 6, 66, 100
1, 35580, Note_on_c, 6, 61, 100
1, 35580, Note_on_c, 6, 70, 100
1, 35580, Note_on_c, 8, 64, 100
1, 35580, Note_on_c, 10, 82, 100
1, 35585, Note_on_c, 1, 49, 0
1, 35585, Note_on_c, 1, 54, 0
1, 35585, Note_on_c, 1, 42, 0
1, 35585, Note_on_c, 1, 54, 75
1, 35585, Note_on_c, 1, 49, 75
1, 35585, Note_on_c, 1, 42, 75
1, 35640, Note_on_c, 6, 61, 0
1, 35640, Note_on_c, 8, 64, 0
1, 35640, Note_on_c, 6, 70, 0
1, 35640, Note_on_c, 10, 82, 0
1, 35640, Note_on_c, 3, 41, 0
1, 35640, Note_on_c, 6, 66, 0
1, 35640, Note_on_c, 3, 42, 100
1, 35640, Note_on_c, 6, 61, 100
1, 35640, Note_on_c, 6, 70, 100
1, 35640, Note_on_c, 6, 66, 100
1, 35640, Note_on_c, 8, 66, 100
1, 35640, Note_on_c, 9, 42, 100
1, 35640, Note_on_c, 10, 82, 100
1, 35645, Note_on_c, 1, 54, 0
1, 35645, Note_on_c, 1, 42, 0
1, 35645, Note_on_c, 1, 49, 0
1, 35645, Note_on_c, 1, 54, 75
1, 35645, Note_on_c, 1, 49, 75
1, 35645, Note_on_c, 1, 42, 75
1, 35655, Note_on_c, 9, 42, 0
1, 35700, Note_on_c, 6, 66, 0
1, 35700, Note_on_c, 6, 70, 0
1, 35700, Note_on_c, 8, 66, 0
1, 35700, Note_on_c, 10, 82, 0
1, 35700, Note_on_c, 6, 61, 0
1, 35700, Note_on_c, 3, 42, 0
1, 35700, Note_on_c, 3, 41, 100
1, 35700, Note_on_c, 6, 70, 100
1, 35700, Note_on_c, 6, 66, 100
1, 35700, Note_on_c, 6, 61, 100
1, 35700, Note_on_c, 8, 64, 100
1, 35700, Note_on_c, 9, 36, 100
1, 35700, Note_on_c, 10, 82, 100
1, 35705, Note_on_c, 1, 54, 0
1, 35705, Note_on_c, 1, 42, 0
1, 35705, Note_on_c, 1, 49, 0
1, 35705, Note_on_c, 1, 54, 75
1, 35705, Note_on_c, 1, 49, 75
1, 35705, Note_on_c, 1, 42, 75
1, 35715, Note_on_c, 9, 36, 0
1, 35760, Note_on_c, 6, 61, 0
1, 35760, Note_on_c, 6, 66, 0
1, 35760, Note_on_c, 8, 64, 0
1, 35760, Note_on_c, 10, 82, 0
1, 35760, Note_on_c, 6, 70, 0
1, 35760, Note_on_c, 3, 41, 0
1, 35760, Note_on_c, 3, 42, 100
1, 35760, Note_on_c, 6, 66, 100
1, 35760, Note_on_c, 6, 61, 100
1, 35760, Note_on_c, 6, 70, 100
1, 35760, Note_on_c, 8, 66, 100
1, 35760, Note_on_c, 9, 42, 100
1, 35760, Note_on_c, 9, 38, 100
1, 35760, Note_on_c, 10, 82, 100
1, 35765, Note_on_c, 1, 54, 0
1, 35765, Note_on_c, 1, 42, 0
1, 35765, Note_on_c, 1, 49, 0
1, 35765, Note_on_c, 1, 54, 75
1, 35765, Note_on_c, 1, 49, 75
1, 35765, Note_on_c, 1, 42, 75
1, 35775, Note_on_c, 9, 42, 0
1, 35775, Note_on_c, 9, 38, 0
1, 35820, Note_on_c, 6, 66, 0
1, 35820, Note_on_c, 6, 70, 0
1, 35820, Note_on_c, 6, 61, 0
1, 35820, Note_on_c, 8, 66, 0
1, 35820, Note_on_c, 10, 82, 0
1, 35820, Note_on_c, 3, 42, 0
1, 35820, Note_on_c, 3, 41, 100
1, 35820, Note_on_c, 6, 61, 100
1, 35820, Note_on_c, 6, 70, 100
1, 35820, Note_on_c, 6, 66, 100
1, 35820, Note_on_c, 8, 64, 100
1, 35820, Note_on_c, 10, 82, 100
1, 35825, Note_on_c, 1, 49, 0
1, 35825, Note_on_c, 1, 54, 0
1, 35825, Note_on_c, 1, 42, 0
1, 35825, Note_on_c, 1, 54, 75
1, 35825, Note_on_c, 1, 49, 75
1, 35825, Note_on_c, 1, 42, 75
1, 35880, Note_on_c, 6, 70, 0
1, 35880, Note_on_c, 8, 64, 0
1, 35880, Note_on_c, 6, 66, 0
1, 35880, Note_on_c, 10, 82, 0
1, 35880, Note_on_c, 3, 41, 0
1, 35880, Note_on_c, 6, 61, 0
1, 35880, Note_on_c, 3, 42, 100
1, 35880, Note_on_c, 6, 70, 100
1, 35880, Note_on_c, 6, 66, 100
1, 35880, Note_on_c, 6, 61, 100
1, 35880, Note_on_c, 8, 66, 100
1, 35880, Note_on_c, 9, 42, 100
1, 35880, Note_on_c, 10, 82, 100
1, 35885, Note_on_c, 1, 54, 0
1, 35885, Note_on_c, 1, 42, 0
1, 35885, Note_on_c, 1, 49, 0
1, 35885, Note_on_c, 1, 54, 75
1, 35885, Note_on_c, 1, 49, 75
1, 35885, Note_on_c, 1, 42, 75
1, 35895, Note_on_c, 9, 42, 0
1, 35940, Note_on_c, 6, 61, 0
1, 35940, Note_on_c, 6, 66, 0
1, 35940, Note_on_c, 8, 66, 0
1, 35940, Note_on_c, 10, 82, 0
1, 35940, Note_on_c, 6, 70, 0
1, 35940, Note_on_c, 3, 42, 0
1, 35940, Note_on_c, 3, 41, 100
1, 35940, Note_on_c, 6, 66, 100
1, 35940, Note_on_c, 6, 61, 100
1, 35940, Note_on_c, 6, 70, 100
1, 35940, Note_on_c, 8, 64, 100
1, 35940, Note_on_c, 10, 82, 100
1, 35945, Note_on_c, 1, 54, 0
1, 35945, Note_on_c, 1, 42, 0
1, 35945, Note_on_c, 1, 49, 0
1, 35945, Note_on_c, 1, 54, 75
1, 35945, Note_on_c, 1, 49, 75
1, 35945, Note_on_c, 1, 42, 75
1, 36000, Note_on_c, 6, 61, 0
1, 36000, Note_on_c, 8, 64, 0
1, 36000, Note_on_c, 6, 70, 0
1, 36000, Note_on_c, 6, 42, 0
1, 36000, Note_on_c, 10, 82, 0
1, 36000, Note_on_c, 3, 41, 0
1, 36000, Note_on_c, 6, 54, 0
1, 36000, Note_on_c, 6, 66, 0
1, 36000, Note_on_c, 3, 42, 100
1, 36000, Note_on_c, 6, 54, 100
1, 36000, Note_on_c, 6, 42, 100
1, 36000, Note_on_c, 6, 66, 100
1, 36000, Note_on_c, 6, 70, 100
1, 36000, Note_on_c, 6, 73, 100
1, 36000, Note_on_c, 8, 69, 100
1, 36000, Note_on_c, 9, 38, 100
1, 36000, Note_on_c, 9, 42, 100
1, 36000, Note_on_c, 10, 85, 100
1, 36005, Note_on_c, 1, 49, 0
1, 36005, Note_on_c, 1, 42, 0
1, 36005, Note_on_c, 1, 54, 0
1, 36005, Note_on_c, 1, 54, 75
1, 36005, Note_on_c, 1, 49, 75
1, 36005, Note_on_c, 1, 42, 75
1, 36015, Note_on_c, 9, 38, 0
1, 36015, Note_on_c, 9, 42, 0
1, 36060, Note_on_c, 8, 69, 0
1, 36060, Note_on_c, 6, 73, 0
1, 36060, Note_on_c, 3, 42, 0
1, 36060, Note_on_c, 6, 70, 0
1, 36060, Note_on_c, 10, 85, 0
1, 36060, Note_on_c, 6, 66, 0
1, 36060, Note_on_c, 3, 41, 100
1, 36060, Note_on_c, 6, 66, 100
1, 36060, Note_on_c, 6, 70, 100
1, 36060, Note_on_c, 6, 73, 100
1, 36060, Note_on_c, 8, 68, 100
1, 36060, Note_on_c, 9, 38, 100
1, 36060, Note_on_c, 9, 42, 100
1, 36060, Note_on_c, 10, 85, 100
1, 36065, Note_on_c, 1, 42, 0
1, 36065, Note_on_c, 1, 54, 0
1, 36065, Note_on_c, 1, 49, 0
1, 36065, Note_on_c, 1, 54, 75
1, 36065, Note_on_c, 1, 49, 75
1, 36065, Note_on_c, 1, 42, 75
1, 36075, Note_on_c, 9, 38, 0
1, 36075, Note_on_c, 9, 42, 0
1, 36120, Note_on_c, 8, 68, 0
1, 36120, Note_on_c, 6, 73, 0
1, 36120, Note_on_c, 6, 70, 0
1, 36120, Note_on_c, 10, 85, 0
1, 36120, Note_on_c, 3, 41, 0
1, 36120, Note_on_c, 6, 66, 0
1, 36120, Note_on_c, 3, 42, 100
1, 36120, Note_on_c, 6, 66, 100
1, 36120, Note_on_c, 6, 70, 100
1, 36120, Note_on_c, 6, 73, 100
1, 36120, Note_on_c, 8, 69, 100
1, 36120, Note_on_c, 9, 38, 100
1, 36120, Note_on_c, 9, 42, 100
1, 36120, Note_on_c, 10, 85, 100
1, 36125, Note_on_c, 1, 49, 0
1, 36125, Note_on_c, 1, 54, 0
1, 36125, Note_on_c, 1, 42, 0
1, 36125, Note_on_c, 1, 54, 75
1, 36125, Note_on_c, 1, 49, 75
1, 36125, Note_on_c, 1, 42, 75
1, 36135, Note_on_c, 9, 38, 0
1, 36135, Note_on_c, 9, 42, 0
1, 36180, Note_on_c, 8, 69, 0
1, 36180, Note_on_c, 6, 73, 0
1, 36180, Note_on_c, 6, 70, 0
1, 36180, Note_on_c, 10, 85, 0
1, 36180, Note_on_c, 3, 42, 0
1, 36180, Note_on_c, 6, 66, 0
1, 36180, Note_on_c, 3, 41, 100
1, 36180, Note_on_c, 6, 66, 100
1, 36180, Note_on_c, 6, 70, 100
1, 36180, Note_on_c, 6, 73, 100
1, 36180, Note_on_c, 8, 68, 100
1, 36180, Note_on_c, 9, 38, 100
1, 36180, Note_on_c, 9, 42, 100
1, 36180, Note_on_c, 10, 85, 100
1, 36185, Note_on_c, 1, 49, 0
1, 36185, Note_on_c, 1, 54, 0
1, 36185, Note_on_c, 1, 42, 0
1, 36185, Note_on_c, 1, 54, 75
1, 36185, Note_on_c, 1, 49, 75
1, 36185, Note_on_c, 1, 42, 75
1, 36195, Note_on_c, 9, 38, 0
1, 36195, Note_on_c, 9, 42, 0
1, 36240, Note_on_c, 8, 68, 0
1, 36240, Note_on_c, 6, 73, 0
1, 36240, Note_on_c, 6, 70, 0
1, 36240, Note_on_c, 10, 85, 0
1, 36240, Note_on_c, 3, 41, 0
1, 36240, Note_on_c, 6, 66, 0
1, 36240, Note_on_c, 3, 42, 100
1, 36240, Note_on_c, 6, 66, 100
1, 36240, Note_on_c, 6, 70, 100
1, 36240, Note_on_c, 6, 73, 100
1, 36240, Note_on_c, 8, 69, 100
1, 36240, Note_on_c, 9, 38, 100
1, 36240, Note_on_c, 9, 42, 100
1, 36240, Note_on_c, 10, 85, 100
1, 36245, Note_on_c, 1, 49, 0
1, 36245, Note_on_c, 1, 54, 0
1, 36245, Note_on_c, 1, 42, 0
1, 36245, Note_on_c, 1, 54, 75
1, 36245, Note_on_c, 1, 49, 75
1, 36245, Note_on_c, 1, 42, 75
1, 36255, Note_on_c, 9, 38, 0
1, 36255, Note_on_c, 9, 42, 0
1, 36300, Note_on_c, 8, 69, 0
1, 36300, Note_on_c, 6, 73, 0
1, 36300, Note_on_c, 6, 70, 0
1, 36300, Note_on_c, 10, 85, 0
1, 36300, Note_on_c, 3, 42, 0
1, 36300, Note_on_c, 6, 66, 0
1, 36300, Note_on_c, 3, 41, 100
1, 36300, Note_on_c, 6, 66, 100
1, 36300, Note_on_c, 6, 70, 100
1, 36300, Note_on_c, 6, 73, 100
1, 36300, Note_on_c, 8, 68, 100
1, 36300, Note_on_c, 9, 38, 100
1, 36300, Note_on_c, 9, 42, 100
1, 36300, Note_on_c, 10, 85, 100
1, 36305, Note_on_c, 1, 49, 0
1, 36305, Note_on_c, 1, 54, 0
1, 36305, Note_on_c, 1, 42, 0
1, 36305, Note_on_c, 1, 54, 75
1, 36305, Note_on_c, 1, 49, 75
1, 36305, Note_on_c, 1, 42, 75
1, 36315, Note_on_c, 9, 38, 0
1, 36315, Note_on_c, 9, 42, 0
1, 36360, Note_on_c, 8, 68, 0
1, 36360, Note_on_c, 6, 73, 0
1, 36360, Note_on_c, 6, 70, 0
1, 36360, Note_on_c, 10, 85, 0
1, 36360, Note_on_c, 3, 41, 0
1, 36360, Note_on_c, 6, 66, 0
1, 36360, Note_on_c, 3, 40, 100
1, 36360, Note_on_c, 6, 66, 100
1, 36360, Note_on_c, 6, 70, 100
1, 36360, Note_on_c, 6, 73, 100
1, 36360, Note_on_c, 8, 69, 100
1, 36360, Note_on_c, 9, 38, 100
1, 36360, Note_on_c, 10, 85, 100
1, 36365, Note_on_c, 1, 49, 0
1, 36365, Note_on_c, 1, 54, 0
1, 36365, Note_on_c, 1, 42, 0
1, 36365, Note_on_c, 1, 54, 75
1, 36365, Note_on_c, 1, 49, 75
1, 36365, Note_on_c, 1, 42, 75
1, 36375, Note_on_c, 9, 38, 0
1, 36390, Note_on_c, 9, 38, 100
1, 36405, Note_on_c, 9, 38, 0
1, 36420, Note_on_c, 10, 85, 0
1, 36420, Note_on_c, 6, 70, 0
1, 36420, Note_on_c, 3, 40, 0
1, 36420, Note_on_c, 6, 73, 0
1, 36420, Note_on_c, 8, 69, 0
1, 36420, Note_on_c, 6, 66, 0
1, 36420, Note_on_c, 3, 37, 100
1, 36420, Note_on_c, 6, 66, 100
1, 36420, Note_on_c, 6, 70, 100
1, 36420, Note_on_c, 6, 73, 100
1, 36420, Note_on_c, 8, 68, 100
1, 36420, Note_on_c, 9, 38, 100
1, 36420, Note_on_c, 10, 85, 100
1, 36425, Note_on_c, 1, 54, 0
1, 36425, Note_on_c, 1, 42, 0
1, 36425, Note_on_c, 1, 49, 0
1, 36425, Note_on_c, 1, 54, 75
1, 36425, Note_on_c, 1, 49, 75
1, 36425, Note_on_c, 1, 42, 75
1, 36435, Note_on_c, 9, 38, 0
1, 36450, Note_on_c, 9, 38, 100
1, 36465, Note_on_c, 9, 38, 0
1, 36480, Note_on_c, 6, 66, 0
1, 36480, Note_on_c, 6, 73, 0
1, 36480, Note_on_c, 6, 54, 0
1, 36480, Note_on_c, 6, 70, 0
1, 36480, Note_on_c, 6, 42, 0
1, 36480, Note_on_c, 3, 37, 0
1, 36480, Note_on_c, 10, 85, 0
1, 36480, Note_on_c, 8, 68, 0
1, 36480, Note_on_c, 3, 47, 100
1, 36480, Note_on_c, 6, 78, 100
1, 36480, Note_on_c, 6, 74, 100
1, 36480, Note_on_c, 6, 69, 100
1, 36480, Note_on_c, 6, 59, 100
1, 36480, Note_on_c, 6, 47, 100
1, 36480, Note_on_c, 8, 71, 100
1, 36480, Note_on_c, 9, 49, 100
1, 36480, Note_on_c, 9, 36, 100
1, 36480, Note_on_c, 10, 86, 100
1, 36485, Note_on_c, 1, 54, 0
1, 36485, Note_on_c, 1, 42, 0
1, 36485, Note_on_c, 1, 49, 0
1, 36485, Note_on_c, 1, 66, 75
1, 36485, Note_on_c, 1, 62, 75
1, 36485, Note_on_c, 1, 57, 75
1, 36485, Note_on_c, 1, 54, 75
1, 36485, Note_on_c, 1, 47, 75
1, 36495, Note_on_c, 9, 49, 0
1, 36495, Note_on_c, 9, 36, 0
1, 36540, Note_on_c, 8, 71, 0
1, 36540, Note_on_c, 6, 47, 0
1, 36540, Note_on_c, 6, 59, 0
1, 36540, Note_on_c, 10, 86, 0
1, 36540, Note_on_c, 6, 78, 0
1, 36540, Note_on_c, 6, 74, 0
1, 36540, Note_on_c, 6, 69, 0
1, 36540, Note_on_c, 6, 78, 100
1, 36540, Note_on_c, 6, 74, 100
1, 36540, Note_on_c, 6, 69, 100
1, 36540, Note_on_c, 6, 59, 100
1, 36540, Note_on_c, 6, 47, 100
1, 36540, Note_on_c, 8, 69, 100
1, 36540, Note_on_c, 10, 85, 100
1, 36545, Note_on_c, 1, 54, 0
1, 36545, Note_on_c, 1, 62, 0
1, 36545, Note_on_c, 1, 57, 0
1, 36545, Note_on_c, 1, 66, 0
1, 36545, Note_on_c, 1, 47, 0
1, 36545, Note_on_c, 1, 66, 75
1, 36545, Note_on_c, 1, 62, 75
1, 36545, Note_on_c, 1, 57, 75
1, 36545, Note_on_c, 1, 54, 75
1, 36545, Note_on_c, 1, 47, 75
1, 36600, Note_on_c, 6, 69, 0
1, 36600, Note_on_c, 6, 47, 0
1, 36600, Note_on_c, 8, 69, 0
1, 36600, Note_on_c, 6, 74, 0
1, 36600, Note_on_c, 3, 47, 0
1, 36600, Note_on_c, 6, 59, 0
1, 36600, Note_on_c, 10, 85, 0
1, 36600, Note_on_c, 6, 78, 0
1, 36600, Note_on_c, 6, 78, 100
1, 36600, Note_on_c, 6, 74, 100
1, 36600, Note_on_c, 6, 69, 100
1, 36600, Note_on_c, 6, 59, 100
1, 36600, Note_on_c, 6, 47, 100
1, 36600, Note_on_c, 8, 71, 100
1, 36600, Note_on_c, 9, 42, 100
1, 36600, Note_on_c, 10, 86, 100
1, 36605, Note_on_c, 1, 66, 0
1, 36605, Note_on_c, 1, 62, 0
1, 36605, Note_on_c, 1, 54, 0
1, 36605, Note_on_c, 1, 57, 0
1, 36605, Note_on_c, 1, 47, 0
1, 36605, Note_on_c, 1, 66, 75
1, 36605, Note_on_c, 1, 62, 75
1, 36605, Note_on_c, 1, 57, 75
1, 36605, Note_on_c, 1, 54, 75
1, 36605, Note_on_c, 1, 47, 75
1, 36615, Note_on_c, 9, 42, 0
1, 36660, Note_on_c, 8, 71, 0
1, 36660, Note_on_c, 10, 86, 0
1, 36660, Note_on_c, 6, 69, 0
1, 36660, Note_on_c, 6, 78, 0
1, 36660, Note_on_c, 6, 59, 0
1, 36660, Note_on_c, 6, 47, 0
1, 36660, Note_on_c, 6, 74, 0
1, 36660, Note_on_c, 3, 42, 100
1, 36660, Note_on_c, 6, 78, 100
1, 36660, Note_on_c, 6, 74, 100
1, 36660, Note_on_c, 6, 69, 100
1, 36660, Note_on_c, 6, 59, 100
1, 36660, Note_on_c, 6, 47, 100
1, 36660, Note_on_c, 8, 69, 100
1, 36660, Note_on_c, 9, 36, 100
1, 36660, Note_on_c, 10, 85, 100
1, 36665, Note_on_c, 1, 66, 0
1, 36665, Note_on_c, 1, 62, 0
1, 36665, Note_on_c, 1, 54, 0
1, 36665, Note_on_c, 1, 57, 0
1, 36665, Note_on_c, 1, 47, 0
1, 36665, Note_on_c, 1, 66, 75
1, 36665, Note_on_c, 1, 62, 75
1, 36665, Note_on_c, 1, 57, 75
1, 36665, Note_on_c, 1, 54, 75
1, 36665, Note_on_c, 1, 47, 75
1, 36675, Note_on_c, 9, 36, 0
1, 36720, Note_on_c, 3, 42, 0
1, 36720, Note_on_c, 6, 78, 0
1, 36720, Note_on_c, 6, 74, 0
1, 36720, Note_on_c, 6, 69, 0
1, 36720, Note_on_c, 8, 69, 0
1, 36720, Note_on_c, 6, 59, 0
1, 36720, Note_on_c, 6, 47, 0
1, 36720, Note_on_c, 10, 85, 0
1, 36720, Note_on_c, 3, 47, 100
1, 36720, Note_on_c, 6, 78, 100
1, 36720, Note_on_c, 6, 74, 100
1, 36720, Note_on_c, 6, 69, 100
1, 36720, Note_on_c, 6, 59, 100
1, 36720, Note_on_c, 6, 47, 100
1, 36720, Note_on_c, 8, 71, 100
1, 36720, Note_on_c, 9, 42, 100
1, 36720, Note_on_c, 9, 38, 100
1, 36720, Note_on_c, 10, 86, 100
1, 36725, Note_on_c, 1, 54, 0
1, 36725, Note_on_c, 1, 66, 0
1, 36725, Note_on_c, 1, 57, 0
1, 36725, Note_on_c, 1, 62, 0
1, 36725, Note_on_c, 1, 47, 0
1, 36725, Note_on_c, 1, 66, 75
1, 36725, Note_on_c, 1, 62, 75
1, 36725, Note_on_c, 1, 57, 75
1, 36725, Note_on_c, 1, 54, 75
1, 36725, Note_on_c, 1, 47, 75
1, 36735, Note_on_c, 9, 42, 0
1, 36735, Note_on_c, 9, 38, 0
1, 36780, Note_on_c, 8, 71, 0
1, 36780, Note_on_c, 10, 86, 0
1, 36780, Note_on_c, 8, 69, 100
1, 36780, Note_on_c, 10, 85, 100
1, 36840, Note_on_c, 10, 85, 0
1, 36840, Note_on_c, 3, 47, 0
1, 36840, Note_on_c, 6, 69, 0
1, 36840, Note_on_c, 6, 78, 0
1, 36840, Note_on_c, 6, 59, 0
1, 36840, Note_on_c, 8, 69, 0
1, 36840, Note_on_c, 6, 74, 0
1, 36840, Note_on_c, 6, 47, 0
1, 36840, Note_on_c, 8, 71, 100
1, 36840, Note_on_c, 9, 42, 100
1, 36840, Note_on_c, 10, 86, 100
1, 36845, Note_on_c, 1, 57, 0
1, 36845, Note_on_c, 1, 47, 0
1, 36845, Note_on_c, 1, 62, 0
1, 36845, Note_on_c, 1, 66, 0
1, 36845, Note_on_c, 1, 54, 0
1, 36845, Note_on_c, 1, 66, 60
1, 36845, Note_on_c, 1, 62, 60
1, 36845, Note_on_c, 1, 57, 60
1, 36845, Note_on_c, 1, 54, 60
1, 36845, Note_on_c, 1, 47, 60
1, 36855, Note_on_c, 9, 42, 0
1, 36900, Note_on_c, 10, 86, 0
1, 36900, Note_on_c, 8, 71, 0
1, 36900, Note_on_c, 8, 69, 100
1, 36900, Note_on_c, 10, 85, 100
1, 36960, Note_on_c, 10, 85, 0
1, 36960, Note_on_c, 8, 69, 0
1, 36960, Note_on_c, 3, 47, 100
1, 36960, Note_on_c, 6, 78, 100
1, 36960, Note_on_c, 6, 74, 100
1, 36960, Note_on_c, 6, 69, 100
1, 36960, Note_on_c, 6, 59, 100
1, 36960, Note_on_c, 6, 47, 100
1, 36960, Note_on_c, 8, 71, 100
1, 36960, Note_on_c, 9, 36, 100
1, 36960, Note_on_c, 9, 42, 100
1, 36960, Note_on_c, 10, 86, 100
1, 36965, Note_on_c, 1, 54, 0
1, 36965, Note_on_c, 1, 66, 0
1, 36965, Note_on_c, 1, 47, 0
1, 36965, Note_on_c, 1, 62, 0
1, 36965, Note_on_c, 1, 57, 0
1, 36965, Note_on_c, 1, 66, 75
1, 36965, Note_on_c, 1, 62, 75
1, 36965, Note_on_c, 1, 57, 75
1, 36965, Note_on_c, 1, 54, 75
1, 36965, Note_on_c, 1, 47, 75
1, 36975, Note_on_c, 9, 36, 0
1, 36975, Note_on_c, 9, 42, 0
1, 37020, Note_on_c, 3, 47, 0
1, 37020, Note_on_c, 6, 74, 0
1, 37020, Note_on_c, 6, 69, 0
1, 37020, Note_on_c, 6, 78, 0
1, 37020, Note_on_c, 6, 59, 0
1, 37020, Note_on_c, 6, 47, 0
1, 37020, Note_on_c, 3, 46, 100
1, 37020, Note_on_c, 6, 78, 100
1, 37020, Note_on_c, 6, 74, 100
1, 37020, Note_on_c, 6, 69, 100
1, 37020, Note_on_c, 6, 59, 100
1, 37020, Note_on_c, 6, 47, 100
1, 37025, Note_on_c, 1, 62, 0
1, 37025, Note_on_c, 1, 54, 0
1, 37025, Note_on_c, 1, 66, 0
1, 37025, Note_on_c, 1, 57, 0
1, 37025, Note_on_c, 1, 47, 0
1, 37025, Note_on_c, 1, 66, 75
1, 37025, Note_on_c, 1, 62, 75
1, 37025, Note_on_c, 1, 57, 75
1, 37025, Note_on_c, 1, 54, 75
1, 37025, Note_on_c, 1, 47, 75
1, 37080, Note_on_c, 3, 46, 0
1, 37080, Note_on_c, 8, 71, 0
1, 37080, Note_on_c, 6, 78, 0
1, 37080, Note_on_c, 10, 86, 0
1, 37080, Note_on_c, 6, 59, 0
1, 37080, Note_on_c, 6, 74, 0
1, 37080, Note_on_c, 6, 47, 0
1, 37080, Note_on_c, 6, 69, 0
1, 37080, Note_on_c, 3, 47, 100
1, 37080, Note_on_c, 6, 78, 100
1, 37080, Note_on_c, 6, 74, 100
1, 37080, Note_on_c, 6, 69, 100
1, 37080, Note_on_c, 6, 59, 100
1, 37080, Note_on_c, 6, 47, 100
1, 37080, Note_on_c, 8, 67, 100
1, 37080, Note_on_c, 9, 42, 100
1, 37080, Note_on_c, 10, 83, 100
1, 37085, Note_on_c, 1, 66, 0
1, 37085, Note_on_c, 1, 62, 0
1, 37085, Note_on_c, 1, 54, 0
1, 37085, Note_on_c, 1, 57, 0
1, 37085, Note_on_c, 1, 47, 0
1, 37085, Note_on_c, 1, 66, 75
1, 37085, Note_on_c, 1, 62, 75
1, 37085, Note_on_c, 1, 57, 75
1, 37085, Note_on_c, 1, 54, 75
1, 37085, Note_on_c, 1, 47, 75
1, 37095, Note_on_c, 9, 42, 0
1, 37140, Note_on_c, 6, 74, 0
1, 37140, Note_on_c, 6, 69, 0
1, 37140, Note_on_c, 3, 47, 0
1, 37140, Note_on_c, 6, 59, 0
1, 37140, Note_on_c, 6, 47, 0
1, 37140, Note_on_c, 6, 78, 0
1, 37140, Note_on_c, 3, 47, 100
1, 37140, Note_on_c, 6, 78, 100
1, 37140, Note_on_c, 6, 74, 100
1, 37140, Note_on_c, 6, 69, 100
1, 37140, Note_on_c, 6, 59, 100
1, 37140, Note_on_c, 6, 47, 100
1, 37140, Note_on_c, 9, 36, 100
1, 37145, Note_on_c, 1, 57, 0
1, 37145, Note_on_c, 1, 47, 0
1, 37145, Note_on_c, 1, 54, 0
1, 37145, Note_on_c, 1, 62, 0
1, 37145, Note_on_c, 1, 66, 0
1, 37145, Note_on_c, 1, 66, 75
1, 37145, Note_on_c, 1, 62, 75
1, 37145, Note_on_c, 1, 57, 75
1, 37145, Note_on_c, 1, 54, 75
1, 37145, Note_on_c, 1, 47, 75
1, 37155, Note_on_c, 9, 36, 0
1, 37200, Note_on_c, 6, 74, 0
1, 37200, Note_on_c, 6, 78, 0
1, 37200, Note_on_c, 10, 83, 0
1, 37200, Note_on_c, 3, 47, 0
1, 37200, Note_on_c, 6, 59, 0
1, 37200, Note_on_c, 6, 69, 0
1, 37200, Note_on_c, 6, 47, 0
1, 37200, Note_on_c, 8, 67, 0
1, 37200, Note_on_c, 3, 47, 100
1, 37200, Note_on_c, 6, 78, 100
1, 37200, Note_on_c, 6, 74, 100
1, 37200, Note_on_c, 6, 69, 100
1, 37200, Note_on_c, 6, 59, 100
1, 37200, Note_on_c, 6, 47, 100
1, 37200, Note_on_c, 9, 46, 100
1, 37200, Note_on_c, 9, 38, 100
1, 37205, Note_on_c, 1, 54, 0
1, 37205, Note_on_c, 1, 66, 0
1, 37205, Note_on_c, 1, 57, 0
1, 37205, Note_on_c, 1, 62, 0
1, 37205, Note_on_c, 1, 47, 0
1, 37205, Note_on_c, 1, 66, 75
1, 37205, Note_on_c, 1, 62, 75
1, 37205, Note_on_c, 1, 57, 75
1, 37205, Note_on_c, 1, 54, 75
1, 37205, Note_on_c, 1, 47, 75
1, 37215, Note_on_c, 9, 46, 0
1, 37215, Note_on_c, 9, 38, 0
1, 37320, Note_on_c, 6, 69, 0
1, 37320, Note_on_c, 6, 47, 0
1, 37320, Note_on_c, 6, 74, 0
1, 37320, Note_on_c, 3, 47, 0
1, 37320, Note_on_c, 6, 59, 0
1, 37320, Note_on_c, 6, 78, 0
1, 37320, Note_on_c, 3, 43, 100
1, 37325, Note_on_c, 1, 47, 0
1, 37325, Note_on_c, 1, 66, 0
1, 37325, Note_on_c, 1, 62, 0
1, 37325, Note_on_c, 1, 57, 0
1, 37325, Note_on_c, 1, 54, 0
1, 37325, Note_on_c, 1, 66, 60
1, 37325, Note_on_c, 1, 62, 60
1, 37325, Note_on_c, 1, 57, 60
1, 37325, Note_on_c, 1, 54, 60
1, 37325, Note_on_c, 1, 47, 60
1, 37380, Note_on_c, 3, 43, 0
1, 37380, Note_on_c, 3, 44, 100
1, 37440, Note_on_c, 3, 44, 0
1, 37440, Note_on_c, 3, 45, 100
1, 37440, Note_on_c, 6, 76, 100
1, 37440, Note_on_c, 6, 73, 100
1, 37440, Note_on_c, 6, 57, 100
1, 37440, Note_on_c, 6, 45, 100
1, 37440, Note_on_c, 6, 69, 100
1, 37440, Note_on_c, 8, 69, 100
1, 37440, Note_on_c, 9, 42, 100
1, 37440, Note_on_c, 9, 36, 100
1, 37440, Note_on_c, 10, 85, 100
1, 37445, Note_on_c, 1, 47, 0
1, 37445, Note_on_c, 1, 54, 0
1, 37445, Note_on_c, 1, 66, 0
1, 37445, Note_on_c, 1, 57, 0
1, 37445, Note_on_c, 1, 62, 0
1, 37445, Note_on_c, 1, 64, 75
1, 37445, Note_on_c, 1, 61, 75
1, 37445, Note_on_c, 1, 52, 75
1, 37445, Note_on_c, 1, 45, 75
1, 37445, Note_on_c, 1, 57, 75
1, 37455, Note_on_c, 9, 42, 0
1, 37455, Note_on_c, 9, 36, 0
1, 37500, Note_on_c, 8, 69, 0
1, 37500, Note_on_c, 10, 85, 0
1, 37500, Note_on_c, 6, 73, 0
1, 37500, Note_on_c, 6, 57, 0
1, 37500, Note_on_c, 6, 76, 0
1, 37500, Note_on_c, 6, 45, 0
1, 37500, Note_on_c, 6, 69, 0
1, 37500, Note_on_c, 6, 76, 100
1, 37500, Note_on_c, 6, 57, 100
1, 37500, Note_on_c, 6, 45, 100
1, 37500, Note_on_c, 6, 69, 100
1, 37500, Note_on_c, 6, 73, 100
1, 37500, Note_on_c, 8, 67, 100
1, 37500, Note_on_c, 10, 83, 100
1, 37505, Note_on_c, 1, 57, 0
1, 37505, Note_on_c, 1, 61, 0
1, 37505, Note_on_c, 1, 45, 0
1, 37505, Note_on_c, 1, 64, 0
1, 37505, Note_on_c, 1, 52, 0
1, 37505, Note_on_c, 1, 61, 75
1, 37505, Note_on_c, 1, 52, 75
1, 37505, Note_on_c, 1, 64, 75
1, 37505, Note_on_c, 1, 57, 75
1, 37505, Note_on_c, 1, 45, 75
1, 37560, Note_on_c, 6, 45, 0
1, 37560, Note_on_c, 6, 73, 0
1, 37560, Note_on_c, 8, 67, 0
1, 37560, Note_on_c, 6, 57, 0
1, 37560, Note_on_c, 3, 45, 0
1, 37560, Note_on_c, 6, 69, 0
1, 37560, Note_on_c, 10, 83, 0
1, 37560, Note_on_c, 6, 76, 0
1, 37560, Note_on_c, 6, 73, 100
1, 37560, Note_on_c, 6, 76, 100
1, 37560, Note_on_c, 6, 69, 100
1, 37560, Note_on_c, 6, 57, 100
1, 37560, Note_on_c, 6, 45, 100
1, 37560, Note_on_c, 8, 69, 100
1, 37560, Note_on_c, 9, 42, 100
1, 37560, Note_on_c, 10, 85, 100
1, 37565, Note_on_c, 1, 61, 0
1, 37565, Note_on_c, 1, 52, 0
1, 37565, Note_on_c, 1, 57, 0
1, 37565, Note_on_c, 1, 64, 0
1, 37565, Note_on_c, 1, 45, 0
1, 37565, Note_on_c, 1, 61, 75
1, 37565, Note_on_c, 1, 64, 75
1, 37565, Note_on_c, 1, 57, 75
1, 37565, Note_on_c, 1, 52, 75
1, 37565, Note_on_c, 1, 45, 75
1, 37575, Note_on_c, 9, 42, 0
1, 37620, Note_on_c, 8, 69, 0
1, 37620, Note_on_c, 10, 85, 0
1, 37620, Note_on_c, 6, 69, 0
1, 37620, Note_on_c, 6, 73, 0
1, 37620, Note_on_c, 6, 57, 0
1, 37620, Note_on_c, 6, 45, 0
1, 37620, Note_on_c, 6, 76, 0
1, 37620, Note_on_c, 3, 40, 100
1, 37620, Note_on_c, 6, 76, 100
1, 37620, Note_on_c, 6, 69, 100
1, 37620, Note_on_c, 6, 73, 100
1, 37620, Note_on_c, 6, 57, 100
1, 37620, Note_on_c, 6, 45, 100
1, 37620, Note_on_c, 8, 67, 100
1, 37620, Note_on_c, 9, 36, 100
1, 37620, Note_on_c, 10, 83, 100
1, 37625, Note_on_c, 1, 61, 0
1, 37625, Note_on_c, 1, 64, 0
1, 37625, Note_on_c, 1, 52, 0
1, 37625, Note_on_c, 1, 57, 0
1, 37625, Note_on_c, 1, 45, 0
1, 37625, Note_on_c, 1, 61, 75
1, 37625, Note_on_c, 1, 64, 75
1, 37625, Note_on_c, 1, 52, 75
1, 37625, Note_on_c, 1, 45, 75
1, 37625, Note_on_c, 1, 57, 75
1, 37635, Note_on_c, 9, 36, 0
1, 37680, Note_on_c, 3, 40, 0
1, 37680, Note_on_c, 6, 76, 0
1, 37680, Note_on_c, 6, 69, 0
1, 37680, Note_on_c, 6, 73, 0
1, 37680, Note_on_c, 8, 67, 0
1, 37680, Note_on_c, 6, 57, 0
1, 37680, Note_on_c, 6, 45, 0
1, 37680, Note_on_c, 10, 83, 0
1, 37680, Note_on_c, 3, 45, 100
1, 37680, Note_on_c, 6, 73, 100
1, 37680, Note_on_c, 6, 57, 100
1, 37680, Note_on_c, 6, 45, 100
1, 37680, Note_on_c, 6, 76, 100
1, 37680, Note_on_c, 6, 69, 100
1, 37680, Note_on_c, 8, 69, 100
1, 37680, Note_on_c, 9, 38, 100
1, 37680, Note_on_c, 9, 42, 100
1, 37680, Note_on_c, 10, 85, 100
1, 37685, Note_on_c, 1, 45, 0
1, 37685, Note_on_c, 1, 61, 0
1, 37685, Note_on_c, 1, 52, 0
1, 37685, Note_on_c, 1, 64, 0
1, 37685, Note_on_c, 1, 57, 0
1, 37685, Note_on_c, 1, 64, 75
1, 37685, Note_on_c, 1, 57, 75
1, 37685, Note_on_c, 1, 52, 75
1, 37685, Note_on_c, 1, 45, 75
1, 37685, Note_on_c, 1, 61, 75
1, 37695, Note_on_c, 9, 38, 0
1, 37695, Note_on_c, 9, 42, 0
1, 37740, Note_on_c, 8, 69, 0
1, 37740, Note_on_c, 10, 85, 0
1, 37740, Note_on_c, 8, 67, 100
1, 37740, Note_on_c, 10, 83, 100
1, 37800, Note_on_c, 10, 83, 0
1, 37800, Note_on_c, 3, 45, 0
1, 37800, Note_on_c, 6, 45, 0
1, 37800, Note_on_c, 6, 73, 0
1, 37800, Note_on_c, 6, 76, 0
1, 37800, Note_on_c, 8, 67, 0
1, 37800, Note_on_c, 6, 57, 0
1, 37800, Note_on_c, 6, 69, 0
1, 37800, Note_on_c, 8, 69, 100
1, 37800, Note_on_c, 9, 42, 100
1, 37800, Note_on_c, 10, 85, 100
1, 37805, Note_on_c, 1, 52, 0
1, 37805, Note_on_c, 1, 61, 0
1, 37805, Note_on_c, 1, 57, 0
1, 37805, Note_on_c, 1, 64, 0
1, 37805, Note_on_c, 1, 45, 0
1, 37805, Note_on_c, 1, 52, 60
1, 37805, Note_on_c, 1, 45, 60
1, 37805, Note_on_c, 1, 64, 60
1, 37805, Note_on_c, 1, 61, 60
1, 37805, Note_on_c, 1, 57, 60
1, 37815, Note_on_c, 9, 42, 0
1, 37860, Note_on_c, 10, 85, 0
1, 37860, Note_on_c, 8, 69, 0
1, 37860, Note_on_c, 8, 67, 100
1, 37860, Note_on_c, 10, 83, 100
1, 37920, Note_on_c, 10, 83, 0
1, 37920, Note_on_c, 8, 67, 0
1, 37920, Note_on_c, 3, 45, 100
1, 37920, Note_on_c, 6, 76, 100
1, 37920, Note_on_c, 6, 73, 100
1, 37920, Note_on_c, 6, 57, 100
1, 37920, Note_on_c, 6, 45, 100
1, 37920, Note_on_c, 6, 69, 100
1, 37920, Note_on_c, 8, 69, 100
1, 37920, Note_on_c, 9, 36, 100
1, 37920, Note_on_c, 9, 42, 100
1, 37920, Note_on_c, 10, 85, 100
1, 37925, Note_on_c, 1, 61, 0
1, 37925, Note_on_c, 1, 52, 0
1, 37925, Note_on_c, 1, 57, 0
1, 37925, Note_on_c, 1, 45, 0
1, 37925, Note_on_c, 1, 64, 0
1, 37925, Note_on_c, 1, 64, 75
1, 37925, Note_on_c, 1, 61, 75
1, 37925, Note_on_c, 1, 52, 75
1, 37925, Note_on_c, 1, 45, 75
1, 37925, Note_on_c, 1, 57, 75
1, 37935, Note_on_c, 9, 36, 0
1, 37935, Note_on_c, 9, 42, 0
1, 37980, Note_on_c, 3, 45, 0
1, 37980, Note_on_c, 6, 73, 0
1, 37980, Note_on_c, 6, 57, 0
1, 37980, Note_on_c, 6, 76, 0
1, 37980, Note_on_c, 6, 45, 0
1, 37980, Note_on_c, 6, 69, 0
1, 37980, Note_on_c, 3, 44, 100
1, 37980, Note_on_c, 6, 76, 100
1, 37980, Note_on_c, 6, 57, 100
1, 37980, Note_on_c, 6, 45, 100
1, 37980, Note_on_c, 6, 69, 100
1, 37980, Note_on_c, 6, 73, 100
1, 37985, Note_on_c, 1, 61, 0
1, 37985, Note_on_c, 1, 45, 0
1, 37985, Note_on_c, 1, 64, 0
1, 37985, Note_on_c, 1, 52, 0
1, 37985, Note_on_c, 1, 57, 0
1, 37985, Note_on_c, 1, 61, 75
1, 37985, Note_on_c, 1, 52, 75
1, 37985, Note_on_c, 1, 64, 75
1, 37985, Note_on_c, 1, 57, 75
1, 37985, Note_on_c, 1, 45, 75
1, 38040, Note_on_c, 3, 44, 0
1, 38040, Note_on_c, 8, 69, 0
1, 38040, Note_on_c, 6, 76, 0
1, 38040, Note_on_c, 10, 85, 0
1, 38040, Note_on_c, 6, 69, 0
1, 38040, Note_on_c, 6, 57, 0
1, 38040, Note_on_c, 6, 73, 0
1, 38040, Note_on_c, 6, 45, 0
1, 38040, Note_on_c, 3, 45, 100
1, 38040, Note_on_c, 6, 73, 100
1, 38040, Note_on_c, 6, 76, 100
1, 38040, Note_on_c, 6, 69, 100
1, 38040, Note_on_c, 6, 57, 100
1, 38040, Note_on_c, 6, 45, 100
1, 38040, Note_on_c, 8, 66, 100
1, 38040, Note_on_c, 9, 42, 100
1, 38040, Note_on_c, 10, 81, 100
1, 38045, Note_on_c, 1, 61, 0
1, 38045, Note_on_c, 1, 52, 0
1, 38045, Note_on_c, 1, 57, 0
1, 38045, Note_on_c, 1, 64, 0
1, 38045, Note_on_c, 1, 45, 0
1, 38045, Note_on_c, 1, 61, 75
1, 38045, Note_on_c, 1, 64, 75
1, 38045, Note_on_c, 1, 57, 75
1, 38045, Note_on_c, 1, 52, 75
1, 38045, Note_on_c, 1, 45, 75
1, 38055, Note_on_c, 9, 42, 0
1, 38100, Note_on_c, 6, 76, 0
1, 38100, Note_on_c, 6, 69, 0
1, 38100, Note_on_c, 3, 45, 0
1, 38100, Note_on_c, 6, 57, 0
1, 38100, Note_on_c, 6, 45, 0
1, 38100, Note_on_c, 6, 73, 0
1, 38100, Note_on_c, 3, 45, 100
1, 38100, Note_on_c, 6, 76, 100
1, 38100, Note_on_c, 6, 69, 100
1, 38100, Note_on_c, 6, 73, 100
1, 38100, Note_on_c, 6, 57, 100
1, 38100, Note_on_c, 6, 45, 100
1, 38100, Note_on_c, 9, 36, 100
1, 38105, Note_on_c, 1, 57, 0
1, 38105, Note_on_c, 1, 45, 0
1, 38105, Note_on_c, 1, 52, 0
1, 38105, Note_on_c, 1, 64, 0
1, 38105, Note_on_c, 1, 61, 0
1, 38105, Note_on_c, 1, 61, 75
1, 38105, Note_on_c, 1, 64, 75
1, 38105, Note_on_c, 1, 52, 75
1, 38105, Note_on_c, 1, 45, 75
1, 38105, Note_on_c, 1, 57, 75
1, 38115, Note_on_c, 9, 36, 0
1, 38160, Note_on_c, 6, 69, 0
1, 38160, Note_on_c, 6, 76, 0
1, 38160, Note_on_c, 10, 81, 0
1, 38160, Note_on_c, 3, 45, 0
1, 38160, Note_on_c, 6, 57, 0
1, 38160, Note_on_c, 6, 73, 0
1, 38160, Note_on_c, 6, 45, 0
1, 38160, Note_on_c, 8, 66, 0
1, 38160, Note_on_c, 3, 45, 100
1, 38160, Note_on_c, 6, 73, 100
1, 38160, Note_on_c, 6, 57, 100
1, 38160, Note_on_c, 6, 45, 100
1, 38160, Note_on_c, 6, 76, 100
1, 38160, Note_on_c, 6, 69, 100
1, 38160, Note_on_c, 9, 46, 100
1, 38160, Note_on_c, 9, 38, 100
1, 38165, Note_on_c, 1, 45, 0
1, 38165, Note_on_c, 1, 61, 0
1, 38165, Note_on_c, 1, 52, 0
1, 38165, Note_on_c, 1, 64, 0
1, 38165, Note_on_c, 1, 57, 0
1, 38165, Note_on_c, 1, 64, 75
1, 38165, Note_on_c, 1, 57, 75
1, 38165, Note_on_c, 1, 52, 75
1, 38165, Note_on_c, 1, 45, 75
1, 38165, Note_on_c, 1, 61, 75
1, 38175, Note_on_c, 9, 46, 0
1, 38175, Note_on_c, 9, 38, 0
1, 38280, Note_on_c, 6, 45, 0
1, 38280, Note_on_c, 6, 69, 0
1, 38280, Note_on_c, 6, 57, 0
1, 38280, Note_on_c, 3, 45, 0
1, 38280, Note_on_c, 6, 76, 0
1, 38280, Note_on_c, 6, 73, 0
1, 38280, Note_on_c, 3, 43, 100
1, 38285, Note_on_c, 1, 61, 0
1, 38285, Note_on_c, 1, 64, 0
1, 38285, Note_on_c, 1, 57, 0
1, 38285, Note_on_c, 1, 52, 0
1, 38285, Note_on_c, 1, 45, 0
1, 38285, Note_on_c, 1, 52, 60
1, 38285, Note_on_c, 1, 45, 60
1, 38285, Note_on_c, 1, 64, 60
1, 38285, Note_on_c, 1, 61, 60
1, 38285, Note_on_c, 1, 57, 60
1, 38400, Note_on_c, 3, 43, 0
1, 38400, Note_on_c, 3, 43, 100
1, 38400, Note_on_c, 6, 74, 100
1, 38400, Note_on_c, 6, 71, 100
1, 38400, Note_on_c, 6, 55, 100
1, 38400, Note_on_c, 6, 43, 100
1, 38400, Note_on_c, 6, 67, 100
1, 38400, Note_on_c, 8, 67, 100
1, 38400, Note_on_c, 9, 42, 100
1, 38400, Note_on_c, 9, 36, 100
1, 38400, Note_on_c, 10, 83, 100
1, 38405, Note_on_c, 1, 45, 0
1, 38405, Note_on_c, 1, 61, 0
1, 38405, Note_on_c, 1, 52, 0
1, 38405, Note_on_c, 1, 64, 0
1, 38405, Note_on_c, 1, 57, 0
1, 38405, Note_on_c, 1, 62, 75
1, 38405, Note_on_c, 1, 59, 75
1, 38405, Note_on_c, 1, 50, 75
1, 38405, Note_on_c, 1, 43, 75
1, 38405, Note_on_c, 1, 55, 75
1, 38415, Note_on_c, 9, 42, 0
1, 38415, Note_on_c, 9, 36, 0
1, 38460, Note_on_c, 8, 67, 0
1, 38460, Note_on_c, 10, 83, 0
1, 38460, Note_on_c, 6, 71, 0
1, 38460, Note_on_c, 6, 55, 0
1, 38460, Note_on_c, 6, 74, 0
1, 38460, Note_on_c, 6, 43, 0
1, 38460, Note_on_c, 6, 67, 0
1, 38460, Note_on_c, 6, 74, 100
1, 38460, Note_on_c, 6, 55, 100
1, 38460, Note_on_c, 6, 43, 100
1, 38460, Note_on_c, 6, 67, 100
1, 38460, Note_on_c, 6, 71, 100
1, 38460, Note_on_c, 8, 66, 100
1, 38460, Note_on_c, 10, 82, 100
1, 38465, Note_on_c, 1, 55, 0
1, 38465, Note_on_c, 1, 59, 0
1, 38465, Note_on_c, 1, 43, 0
1, 38465, Note_on_c, 1, 62, 0
1, 38465, Note_on_c, 1, 50, 0
1, 38465, Note_on_c, 1, 59, 75
1, 38465, Note_on_c, 1, 50, 75
1, 38465, Note_on_c, 1, 62, 75
1, 38465, Note_on_c, 1, 55, 75
1, 38465, Note_on_c, 1, 43, 75
1, 38520, Note_on_c, 6, 43, 0
1, 38520, Note_on_c, 6, 71, 0
1, 38520, Note_on_c, 8, 66, 0
1, 38520, Note_on_c, 6, 55, 0
1, 38520, Note_on_c, 3, 43, 0
1, 38520, Note_on_c, 6, 67, 0
1, 38520, Note_on_c, 10, 82, 0
1, 38520, Note_on_c, 6, 74, 0
1, 38520, Note_on_c, 6, 71, 100
1, 38520, Note_on_c, 6, 74, 100
1, 38520, Note_on_c, 6, 67, 100
1, 38520, Note_on_c, 6, 55, 100
1, 38520, Note_on_c, 6, 43, 100
1, 38520, Note_on_c, 8, 67, 100
1, 38520, Note_on_c, 9, 42, 100
1, 38520, Note_on_c, 10, 83, 100
1, 38525, Note_on_c, 1, 59, 0
1, 38525, Note_on_c, 1, 50, 0
1, 38525, Note_on_c, 1, 55, 0
1, 38525, Note_on_c, 1, 62, 0
1, 38525, Note_on_c, 1, 43, 0
1, 38525, Note_on_c, 1, 59, 75
1, 38525, Note_on_c, 1, 62, 75
1, 38525, Note_on_c, 1, 55, 75
1, 38525, Note_on_c, 1, 50, 75
1, 38525, Note_on_c, 1, 43, 75
1, 38535, Note_on_c, 9, 42, 0
1, 38580, Note_on_c, 8, 67, 0
1, 38580, Note_on_c, 10, 83, 0
1, 38580, Note_on_c, 6, 67, 0
1, 38580, Note_on_c, 6, 71, 0
1, 38580, Note_on_c, 6, 55, 0
1, 38580, Note_on_c, 6, 43, 0
1, 38580, Note_on_c, 6, 74, 0
1, 38580, Note_on_c, 3, 42, 100
1, 38580, Note_on_c, 6, 74, 100
1, 38580, Note_on_c, 6, 67, 100
1, 38580, Note_on_c, 6, 71, 100
1, 38580, Note_on_c, 6, 55, 100
1, 38580, Note_on_c, 6, 43, 100
1, 38580, Note_on_c, 8, 66, 100
1, 38580, Note_on_c, 9, 36, 100
1, 38580, Note_on_c, 10, 82, 100
1, 38585, Note_on_c, 1, 59, 0
1, 38585, Note_on_c, 1, 62, 0
1, 38585, Note_on_c, 1, 50, 0
1, 38585, Note_on_c, 1, 55, 0
1, 38585, Note_on_c, 1, 43, 0
1, 38585, Note_on_c, 1, 59, 75
1, 38585, Note_on_c, 1, 62, 75
1, 38585, Note_on_c, 1, 50, 75
1, 38585, Note_on_c, 1, 43, 75
1, 38585, Note_on_c, 1, 55, 75
1, 38595, Note_on_c, 9, 36, 0
1, 38640, Note_on_c, 3, 42, 0
1, 38640, Note_on_c, 6, 74, 0
1, 38640, Note_on_c, 6, 67, 0
1, 38640, Note_on_c, 6, 71, 0
1, 38640, Note_on_c, 8, 66, 0
1, 38640, Note_on_c, 6, 55, 0
1, 38640, Note_on_c, 6, 43, 0
1, 38640, Note_on_c, 10, 82, 0
1, 38640, Note_on_c, 3, 43, 100
1, 38640, Note_on_c, 6, 71, 100
1, 38640, Note_on_c, 6, 55, 100
1, 38640, Note_on_c, 6, 43, 100
1, 38640, Note_on_c, 6, 74, 100
1, 38640, Note_on_c, 6, 67, 100
1, 38640, Note_on_c, 8, 67, 100
1, 38640, Note_on_c, 9, 42, 100
1, 38640, Note_on_c, 9, 38, 100
1, 38640, Note_on_c, 10, 83, 100
1, 38645, Note_on_c, 1, 43, 0
1, 38645, Note_on_c, 1, 59, 0
1, 38645, Note_on_c, 1, 50, 0
1, 38645, Note_on_c, 1, 62, 0
1, 38645, Note_on_c, 1, 55, 0
1, 38645, Note_on_c, 1, 62, 75
1, 38645, Note_on_c, 1, 55, 75
1, 38645, Note_on_c, 1, 50, 75
1, 38645, Note_on_c, 1, 43, 75
1, 38645, Note_on_c, 1, 59, 75
1, 38655, Note_on_c, 9, 42, 0
1, 38655, Note_on_c, 9, 38, 0
1, 38700, Note_on_c, 8, 67, 0
1, 38700, Note_on_c, 10, 83, 0
1, 38700, Note_on_c, 8, 66, 100
1, 38700, Note_on_c, 10, 82, 100
1, 38760, Note_on_c, 10, 82, 0
1, 38760, Note_on_c, 3, 43, 0
1, 38760, Note_on_c, 6, 43, 0
1, 38760, Note_on_c, 6, 71, 0
1, 38760, Note_on_c, 6, 74, 0
1, 38760, Note_on_c, 8, 66, 0
1, 38760, Note_on_c, 6, 55, 0
1, 38760, Note_on_c, 6, 67, 0
1, 38760, Note_on_c, 8, 67, 100
1, 38760, Note_on_c, 9, 42, 100
1, 38760, Note_on_c, 10, 83, 100
1, 38765, Note_on_c, 1, 50, 0
1, 38765, Note_on_c, 1, 59, 0
1, 38765, Note_on_c, 1, 55, 0
1, 38765, Note_on_c, 1, 62, 0
1, 38765, Note_on_c, 1, 43, 0
1, 38765, Note_on_c, 1, 50, 60
1, 38765, Note_on_c, 1, 43, 60
1, 38765, Note_on_c, 1, 62, 60
1, 38765, Note_on_c, 1, 59, 60
1, 38765, Note_on_c, 1, 55, 60
1, 38775, Note_on_c, 9, 42, 0
1, 38820, Note_on_c, 10, 83, 0
1, 38820, Note_on_c, 8, 67, 0
1, 38820, Note_on_c, 8, 66, 100
1, 38820, Note_on_c, 10, 82, 100
1, 38880, Note_on_c, 10, 82, 0
1, 38880, Note_on_c, 8, 66, 0
1, 38880, Note_on_c, 3, 43, 100
1, 38880, Note_on_c, 6, 74, 100
1, 38880, Note_on_c, 6, 71, 100
1, 38880, Note_on_c, 6, 55, 100
1, 38880, Note_on_c, 6, 43, 100
1, 38880, Note_on_c, 6, 67, 100
1, 38880, Note_on_c, 8, 67, 100
1, 38880, Note_on_c, 9, 36, 100
1, 38880, Note_on_c, 9, 42, 100
1, 38880, Note_on_c, 10, 83, 100
1, 38885, Note_on_c, 1, 59, 0
1, 38885, Note_on_c, 1, 50, 0
1, 38885, Note_on_c, 1, 55, 0
1, 38885, Note_on_c, 1, 43, 0
1, 38885, Note_on_c, 1, 62, 0
1, 38885, Note_on_c, 1, 43, 75
1, 38895, Note_on_c, 9, 36, 0
1, 38895, Note_on_c, 9, 42, 0
1, 38940, Note_on_c, 6, 43, 0
1, 38940, Note_on_c, 6, 55, 0
1, 38940, Note_on_c, 3, 43, 0
1, 38940, Note_on_c, 6, 71, 0
1, 38940, Note_on_c, 6, 74, 0
1, 38940, Note_on_c, 6, 67, 0
1, 38940, Note_on_c, 3, 42, 100
1, 38940, Note_on_c, 6, 74, 100
1, 38940, Note_on_c, 6, 55, 100
1, 38940, Note_on_c, 6, 43, 100
1, 38940, Note_on_c, 6, 67, 100
1, 38940, Note_on_c, 6, 71, 100
1, 38945, Note_on_c, 1, 43, 0
1, 38945, Note_on_c, 1, 43, 75
1, 39000, Note_on_c, 6, 74, 0
1, 39000, Note_on_c, 6, 71, 0
1, 39000, Note_on_c, 6, 67, 0
1, 39000, Note_on_c, 6, 55, 0
1, 39000, Note_on_c, 8, 67, 0
1, 39000, Note_on_c, 3, 42, 0
1, 39000, Note_on_c, 10, 83, 0
1, 39000, Note_on_c, 6, 43, 0
1, 39000, Note_on_c, 3, 43, 100
1, 39000, Note_on_c, 6, 71, 100
1, 39000, Note_on_c, 6, 74, 100
1, 39000, Note_on_c, 6, 67, 100
1, 39000, Note_on_c, 6, 55, 100
1, 39000, Note_on_c, 6, 43, 100
1, 39000, Note_on_c, 8, 64, 100
1, 39000, Note_on_c, 9, 42, 100
1, 39000, Note_on_c, 10, 79, 100
1, 39005, Note_on_c, 1, 43, 0
1, 39005, Note_on_c, 1, 43, 75
1, 39015, Note_on_c, 9, 42, 0
1, 39060, Note_on_c, 6, 67, 0
1, 39060, Note_on_c, 3, 43, 0
1, 39060, Note_on_c, 6, 74, 0
1, 39060, Note_on_c, 6, 55, 0
1, 39060, Note_on_c, 6, 71, 0
1, 39060, Note_on_c, 6, 43, 0
1, 39060, Note_on_c, 3, 42, 100
1, 39060, Note_on_c, 6, 74, 100
1, 39060, Note_on_c, 6, 67, 100
1, 39060, Note_on_c, 6, 71, 100
1, 39060, Note_on_c, 6, 55, 100
1, 39060, Note_on_c, 6, 43, 100
1, 39060, Note_on_c, 9, 36, 100
1, 39065, Note_on_c, 1, 43, 0
1, 39065, Note_on_c, 1, 43, 75
1, 39075, Note_on_c, 9, 36, 0
1, 39120, Note_on_c, 3, 42, 0
1, 39120, Note_on_c, 6, 74, 0
1, 39120, Note_on_c, 6, 55, 0
1, 39120, Note_on_c, 6, 67, 0
1, 39120, Note_on_c, 10, 79, 0
1, 39120, Note_on_c, 6, 43, 0
1, 39120, Note_on_c, 8, 64, 0
1, 39120, Note_on_c, 6, 71, 0
1, 39120, Note_on_c, 3, 43, 100
1, 39120, Note_on_c, 6, 71, 100
1, 39120, Note_on_c, 6, 55, 100
1, 39120, Note_on_c, 6, 43, 100
1, 39120, Note_on_c, 6, 74, 100
1, 39120, Note_on_c, 6, 67, 100
1, 39120, Note_on_c, 9, 46, 100
1, 39120, Note_on_c, 9, 38, 100
1, 39125, Note_on_c, 1, 43, 0
1, 39125, Note_on_c, 1, 43, 75
1, 39135, Note_on_c, 9, 38, 0
1, 39135, Note_on_c, 9, 46, 0
1, 39240, Note_on_c, 6, 43, 0
1, 39240, Note_on_c, 6, 74, 0
1, 39240, Note_on_c, 6, 71, 0
1, 39240, Note_on_c, 6, 55, 0
1, 39240, Note_on_c, 3, 43, 0
1, 39240, Note_on_c, 6, 67, 0
1, 39240, Note_on_c, 3, 40, 100
1, 39360, Note_on_c, 3, 40, 0
1, 39360, Note_on_c, 3, 42, 100
1, 39360, Note_on_c, 6, 70, 100
1, 39360, Note_on_c, 6, 66, 100
1, 39360, Note_on_c, 6, 61, 100
1, 39360, Note_on_c, 6, 42, 100
1, 39360, Note_on_c, 6, 54, 100
1, 39360, Note_on_c, 8, 66, 100
1, 39360, Note_on_c, 9, 36, 100
1, 39360, Note_on_c, 9, 42, 100
1, 39360, Note_on_c, 10, 82, 100
1, 39365, Note_on_c, 1, 43, 0
1, 39365, Note_on_c, 1, 54, 75
1, 39365, Note_on_c, 1, 49, 75
1, 39365, Note_on_c, 1, 42, 75
1, 39375, Note_on_c, 9, 42, 0
1, 39375, Note_on_c, 9, 36, 0
1, 39420, Note_on_c, 8, 66, 0
1, 39420, Note_on_c, 3, 42, 0
1, 39420, Note_on_c, 6, 66, 0
1, 39420, Note_on_c, 6, 61, 0
1, 39420, Note_on_c, 10, 82, 0
1, 39420, Note_on_c, 6, 70, 0
1, 39420, Note_on_c, 3, 41, 100
1, 39420, Note_on_c, 6, 66, 100
1, 39420, Note_on_c, 6, 61, 100
1, 39420, Note_on_c, 6, 70, 100
1, 39420, Note_on_c, 8, 64, 100
1, 39420, Note_on_c, 10, 82, 100
1, 39425, Note_on_c, 1, 49, 0
1, 39425, Note_on_c, 1, 54, 0
1, 39425, Note_on_c, 1, 42, 0
1, 39425, Note_on_c, 1, 54, 75
1, 39425, Note_on_c, 1, 49, 75
1, 39425, Note_on_c, 1, 42, 75
1, 39480, Note_on_c, 6, 61, 0
1, 39480, Note_on_c, 8, 64, 0
1, 39480, Note_on_c, 6, 70, 0
1, 39480, Note_on_c, 10, 82, 0
1, 39480, Note_on_c, 3, 41, 0
1, 39480, Note_on_c, 6, 66, 0
1, 39480, Note_on_c, 3, 42, 100
1, 39480, Note_on_c, 6, 61, 100
1, 39480, Note_on_c, 6, 70, 100
1, 39480, Note_on_c, 6, 66, 100
1, 39480, Note_on_c, 8, 66, 100
1, 39480, Note_on_c, 9, 42, 100
1, 39480, Note_on_c, 10, 82, 100
1, 39485, Note_on_c, 1, 54, 0
1, 39485, Note_on_c, 1, 42, 0
1, 39485, Note_on_c, 1, 49, 0
1, 39485, Note_on_c, 1, 54, 75
1, 39485, Note_on_c, 1, 49, 75
1, 39485, Note_on_c, 1, 42, 75
1, 39495, Note_on_c, 9, 42, 0
1, 39540, Note_on_c, 6, 66, 0
1, 39540, Note_on_c, 6, 70, 0
1, 39540, Note_on_c, 8, 66, 0
1, 39540, Note_on_c, 10, 82, 0
1, 39540, Note_on_c, 6, 61, 0
1, 39540, Note_on_c, 3, 42, 0
1, 39540, Note_on_c, 3, 41, 100
1, 39540, Note_on_c, 6, 70, 100
1, 39540, Note_on_c, 6, 66, 100
1, 39540, Note_on_c, 6, 61, 100
1, 39540, Note_on_c, 8, 64, 100
1, 39540, Note_on_c, 9, 36, 100
1, 39540, Note_on_c, 10, 82, 100
1, 39545, Note_on_c, 1, 54, 0
1, 39545, Note_on_c, 1, 42, 0
1, 39545, Note_on_c, 1, 49, 0
1, 39545, Note_on_c, 1, 54, 75
1, 39545, Note_on_c, 1, 49, 75
1, 39545, Note_on_c, 1, 42, 75
1, 39555, Note_on_c, 9, 36, 0
1, 39600, Note_on_c, 6, 61, 0
1, 39600, Note_on_c, 6, 66, 0
1, 39600, Note_on_c, 8, 64, 0
1, 39600, Note_on_c, 10, 82, 0
1, 39600, Note_on_c, 6, 70, 0
1, 39600, Note_on_c, 3, 41, 0
1, 39600, Note_on_c, 3, 42, 100
1, 39600, Note_on_c, 6, 66, 100
1, 39600, Note_on_c, 6, 61, 100
1, 39600, Note_on_c, 6, 70, 100
1, 39600, Note_on_c, 8, 66, 100
1, 39600, Note_on_c, 9, 42, 100
1, 39600, Note_on_c, 9, 38, 100
1, 39600, Note_on_c, 10, 82, 100
1, 39605, Note_on_c, 1, 54, 0
1, 39605, Note_on_c, 1, 42, 0
1, 39605, Note_on_c, 1, 49, 0
1, 39605, Note_on_c, 1, 54, 75
1, 39605, Note_on_c, 1, 49, 75
1, 39605, Note_on_c, 1, 42, 75
1, 39615, Note_on_c, 9, 42, 0
1, 39615, Note_on_c, 9, 38, 0
1, 39660, Note_on_c, 6, 66, 0
1, 39660, Note_on_c, 6, 70, 0
1, 39660, Note_on_c, 6, 61, 0
1, 39660, Note_on_c, 8, 66, 0
1, 39660, Note_on_c, 10, 82, 0
1, 39660, Note_on_c, 3, 42, 0
1, 39660, Note_on_c, 3, 41, 100
1, 39660, Note_on_c, 6, 61, 100
1, 39660, Note_on_c, 6, 70, 100
1, 39660, Note_on_c, 6, 66, 100
1, 39660, Note_on_c, 8, 64, 100
1, 39660, Note_on_c, 10, 82, 100
1, 39665, Note_on_c, 1, 49, 0
1, 39665, Note_on_c, 1, 54, 0
1, 39665, Note_on_c, 1, 42, 0
1, 39665, Note_on_c, 1, 54, 75
1, 39665, Note_on_c, 1, 49, 75
1, 39665, Note_on_c, 1, 42, 75
1, 39720, Note_on_c, 6, 70, 0
1, 39720, Note_on_c, 8, 64, 0
1, 39720, Note_on_c, 6, 66, 0
1, 39720, Note_on_c, 10, 82, 0
1, 39720, Note_on_c, 3, 41, 0
1, 39720, Note_on_c, 6, 61, 0
1, 39720, Note_on_c, 3, 42, 100
1, 39720, Note_on_c, 6, 70, 100
1, 39720, Note_on_c, 6, 66, 100
1, 39720, Note_on_c, 6, 61, 100
1, 39720, Note_on_c, 8, 66, 100
1, 39720, Note_on_c, 9, 42, 100
1, 39720, Note_on_c, 10, 82, 100
1, 39725, Note_on_c, 1, 54, 0
1, 39725, Note_on_c, 1, 42, 0
1, 39725, Note_on_c, 1, 49, 0
1, 39725, Note_on_c, 1, 54, 75
1, 39725, Note_on_c, 1, 49, 75
1, 39725, Note_on_c, 1, 42, 75
1, 39735, Note_on_c, 9, 42, 0
1, 39780, Note_on_c, 6, 61, 0
1, 39780, Note_on_c, 6, 66, 0
1, 39780, Note_on_c, 8, 66, 0
1, 39780, Note_on_c, 10, 82, 0
1, 39780, Note_on_c, 6, 70, 0
1, 39780, Note_on_c, 3, 42, 0
1, 39780, Note_on_c, 3, 41, 100
1, 39780, Note_on_c, 6, 66, 100
1, 39780, Note_on_c, 6, 61, 100
1, 39780, Note_on_c, 6, 70, 100
1, 39780, Note_on_c, 8, 64, 100
1, 39780, Note_on_c, 10, 82, 100
1, 39785, Note_on_c, 1, 54, 0
1, 39785, Note_on_c, 1, 42, 0
1, 39785, Note_on_c, 1, 49, 0
1, 39785, Note_on_c, 1, 54, 75
1, 39785, Note_on_c, 1, 49, 75
1, 39785, Note_on_c, 1, 42, 75
1, 39840, Note_on_c, 6, 61, 0
1, 39840, Note_on_c, 8, 64, 0
1, 39840, Note_on_c, 6, 70, 0
1, 39840, Note_on_c, 6, 42, 0
1, 39840, Note_on_c, 10, 82, 0
1, 39840, Note_on_c, 3, 41, 0
1, 39840, Note_on_c, 6, 54, 0
1, 39840, Note_on_c, 6, 66, 0
1, 39840, Note_on_c, 3, 42, 100
1, 39840, Note_on_c, 6, 54, 100
1, 39840, Note_on_c, 6, 42, 100
1, 39840, Note_on_c, 6, 66, 100
1, 39840, Note_on_c, 6, 70, 100
1, 39840, Note_on_c, 6, 73, 100
1, 39840, Note_on_c, 8, 69, 100
1, 39840, Note_on_c, 9, 42, 100
1, 39840, Note_on_c, 9, 38, 100
1, 39840, Note_on_c, 10, 85, 100
1, 39845, Note_on_c, 1, 49, 0
1, 39845, Note_on_c, 1, 42, 0
1, 39845, Note_on_c, 1, 54, 0
1, 39845, Note_on_c, 1, 54, 75
1, 39845, Note_on_c, 1, 49, 75
1, 39845, Note_on_c, 1, 42, 75
1, 39855, Note_on_c, 9, 42, 0
1, 39855, Note_on_c, 9, 38, 0
1, 39900, Note_on_c, 8, 69, 0
1, 39900, Note_on_c, 6, 73, 0
1, 39900, Note_on_c, 3, 42, 0
1, 39900, Note_on_c, 6, 70, 0
1, 39900, Note_on_c, 10, 85, 0
1, 39900, Note_on_c, 6, 66, 0
1, 39900, Note_on_c, 3, 41, 100
1, 39900, Note_on_c, 6, 66, 100
1, 39900, Note_on_c, 6, 70, 100
1, 39900, Note_on_c, 6, 73, 100
1, 39900, Note_on_c, 8, 68, 100
1, 39900, Note_on_c, 9, 42, 100
1, 39900, Note_on_c, 9, 38, 100
1, 39900, Note_on_c, 10, 85, 100
1, 39905, Note_on_c, 1, 42, 0
1, 39905, Note_on_c, 1, 54, 0
1, 39905, Note_on_c, 1, 49, 0
1, 39905, Note_on_c, 1, 54, 75
1, 39905, Note_on_c, 1, 49, 75
1, 39905, Note_on_c, 1, 42, 75
1, 39915, Note_on_c, 9, 42, 0
1, 39915, Note_on_c, 9, 38, 0
1, 39960, Note_on_c, 8, 68, 0
1, 39960, Note_on_c, 6, 73, 0
1, 39960, Note_on_c, 6, 70, 0
1, 39960, Note_on_c, 10, 85, 0
1, 39960, Note_on_c, 3, 41, 0
1, 39960, Note_on_c, 6, 66, 0
1, 39960, Note_on_c, 3, 42, 100
1, 39960, Note_on_c, 6, 66, 100
1, 39960, Note_on_c, 6, 70, 100
1, 39960, Note_on_c, 6, 73, 100
1, 39960, Note_on_c, 8, 69, 100
1, 39960, Note_on_c, 9, 38, 100
1, 39960, Note_on_c, 9, 42, 100
1, 39960, Note_on_c, 10, 85, 100
1, 39965, Note_on_c, 1, 49, 0
1, 39965, Note_on_c, 1, 54, 0
1, 39965, Note_on_c, 1, 42, 0
1, 39965, Note_on_c, 1, 54, 75
1, 39965, Note_on_c, 1, 49, 75
1, 39965, Note_on_c, 1, 42, 75
1, 39975, Note_on_c, 9, 38, 0
1, 39975, Note_on_c, 9, 42, 0
1, 40020, Note_on_c, 8, 69, 0
1, 40020, Note_on_c, 6, 73, 0
1, 40020, Note_on_c, 6, 70, 0
1, 40020, Note_on_c, 10, 85, 0
1, 40020, Note_on_c, 3, 42, 0
1, 40020, Note_on_c, 6, 66, 0
1, 40020, Note_on_c, 3, 41, 100
1, 40020, Note_on_c, 6, 66, 100
1, 40020, Note_on_c, 6, 70, 100
1, 40020, Note_on_c, 6, 73, 100
1, 40020, Note_on_c, 8, 68, 100
1, 40020, Note_on_c, 9, 38, 100
1, 40020, Note_on_c, 9, 42, 100
1, 40020, Note_on_c, 10, 85, 100
1, 40025, Note_on_c, 1, 49, 0
1, 40025, Note_on_c, 1, 54, 0
1, 40025, Note_on_c, 1, 42, 0
1, 40025, Note_on_c, 1, 54, 75
1, 40025, Note_on_c, 1, 49, 75
1, 40025, Note_on_c, 1, 42, 75
1, 40035, Note_on_c, 9, 38, 0
1, 40035, Note_on_c, 9, 42, 0
1, 40080, Note_on_c, 8, 68, 0
1, 40080, Note_on_c, 6, 73, 0
1, 40080, Note_on_c, 6, 70, 0
1, 40080, Note_on_c, 10, 85, 0
1, 40080, Note_on_c, 3, 41, 0
1, 40080, Note_on_c, 6, 66, 0
1, 40080, Note_on_c, 3, 42, 100
1, 40080, Note_on_c, 6, 66, 100
1, 40080, Note_on_c, 6, 70, 100
1, 40080, Note_on_c, 6, 73, 100
1, 40080, Note_on_c, 8, 69, 100
1, 40080, Note_on_c, 9, 42, 100
1, 40080, Note_on_c, 9, 38, 100
1, 40080, Note_on_c, 10, 85, 100
1, 40085, Note_on_c, 1, 49, 0
1, 40085, Note_on_c, 1, 54, 0
1, 40085, Note_on_c, 1, 42, 0
1, 40085, Note_on_c, 1, 54, 75
1, 40085, Note_on_c, 1, 49, 75
1, 40085, Note_on_c, 1, 42, 75
1, 40095, Note_on_c, 9, 42, 0
1, 40095, Note_on_c, 9, 38, 0
1, 40140, Note_on_c, 8, 69, 0
1, 40140, Note_on_c, 6, 73, 0
1, 40140, Note_on_c, 6, 70, 0
1, 40140, Note_on_c, 10, 85, 0
1, 40140, Note_on_c, 3, 42, 0
1, 40140, Note_on_c, 6, 66, 0
1, 40140, Note_on_c, 3, 41, 100
1, 40140, Note_on_c, 6, 66, 100
1, 40140, Note_on_c, 6, 70, 100
1, 40140, Note_on_c, 6, 73, 100
1, 40140, Note_on_c, 8, 68, 100
1, 40140, Note_on_c, 9, 38, 100
1, 40140, Note_on_c, 9, 42, 100
1, 40140, Note_on_c, 10, 85, 100
1, 40145, Note_on_c, 1, 49, 0
1, 40145, Note_on_c, 1, 54, 0
1, 40145, Note_on_c, 1, 42, 0
1, 40145, Note_on_c, 1, 54, 75
1, 40145, Note_on_c, 1, 49, 75
1, 40145, Note_on_c, 1, 42, 75
1, 40155, Note_on_c, 9, 38, 0
1, 40155, Note_on_c, 9, 42, 0
1, 40200, Note_on_c, 8, 68, 0
1, 40200, Note_on_c, 6, 73, 0
1, 40200, Note_on_c, 6, 70, 0
1, 40200, Note_on_c, 10, 85, 0
1, 40200, Note_on_c, 3, 41, 0
1, 40200, Note_on_c, 6, 66, 0
1, 40200, Note_on_c, 3, 40, 100
1, 40200, Note_on_c, 6, 66, 100
1, 40200, Note_on_c, 6, 70, 100
1, 40200, Note_on_c, 6, 73, 100
1, 40200, Note_on_c, 8, 69, 100
1, 40200, Note_on_c, 9, 38, 100
1, 40200, Note_on_c, 10, 85, 100
1, 40205, Note_on_c, 1, 49, 0
1, 40205, Note_on_c, 1, 54, 0
1, 40205, Note_on_c, 1, 42, 0
1, 40205, Note_on_c, 1, 54, 75
1, 40205, Note_on_c, 1, 49, 75
1, 40205, Note_on_c, 1, 42, 75
1, 40215, Note_on_c, 9, 38, 0
1, 40230, Note_on_c, 9, 38, 100
1, 40245, Note_on_c, 9, 38, 0
1, 40260, Note_on_c, 10, 85, 0
1, 40260, Note_on_c, 6, 70, 0
1, 40260, Note_on_c, 3, 40, 0
1, 40260, Note_on_c, 6, 73, 0
1, 40260, Note_on_c, 8, 69, 0
1, 40260, Note_on_c, 6, 66, 0
1, 40260, Note_on_c, 3, 37, 100
1, 40260, Note_on_c, 6, 66, 100
1, 40260, Note_on_c, 6, 70, 100
1, 40260, Note_on_c, 6, 73, 100
1, 40260, Note_on_c, 8, 68, 100
1, 40260, Note_on_c, 9, 38, 100
1, 40260, Note_on_c, 10, 85, 100
1, 40265, Note_on_c, 1, 54, 0
1, 40265, Note_on_c, 1, 42, 0
1, 40265, Note_on_c, 1, 49, 0
1, 40265, Note_on_c, 1, 54, 75
1, 40265, Note_on_c, 1, 49, 75
1, 40265, Note_on_c, 1, 42, 75
1, 40275, Note_on_c, 9, 38, 0
1, 40290, Note_on_c, 9, 38, 100
1, 40305, Note_on_c, 9, 38, 0
1, 40320, Marker_t, "last chorus"
1, 40320, Note_on_c, 6, 66, 0
1, 40320, Note_on_c, 6, 73, 0
1, 40320, Note_on_c, 6, 54, 0
1, 40320, Note_on_c, 6, 70, 0
1, 40320, Note_on_c, 6, 42, 0
1, 40320, Note_on_c, 3, 37, 0
1, 40320, Note_on_c, 10, 85, 0
1, 40320, Note_on_c, 8, 68, 0
1, 40320, Note_on_c, 2, 71, 100
1, 40320, Note_on_c, 2, 67, 100
1, 40320, Note_on_c, 2, 62, 100
1, 40320, Note_on_c, 2, 59, 100
1, 40320, Note_on_c, 2, 52, 100
1, 40320, Note_on_c, 3, 47, 100
1, 40320, Note_on_c, 5, 59, 100
1, 40320, Note_on_c, 5, 71, 100
1, 40320, Note_on_c, 6, 71, 100
1, 40320, Note_on_c, 6, 67, 100
1, 40320, Note_on_c, 6, 62, 100
1, 40320, Note_on_c, 6, 55, 100
1, 40320, Note_on_c, 6, 43, 100
1, 40320, Note_on_c, 7, 71, 100
1, 40320, Note_on_c, 7, 67, 100
1, 40320, Note_on_c, 7, 62, 100
1, 40320, Note_on_c, 7, 43, 100
1, 40320, Note_on_c, 9, 42, 100
1, 40320, Note_on_c, 9, 36, 100
1, 40325, Note_on_c, 1, 54, 0
1, 40325, Note_on_c, 1, 42, 0
1, 40325, Note_on_c, 1, 49, 0
1, 40325, Note_on_c, 1, 43, 100
1, 40335, Note_on_c, 9, 36, 0
1, 40335, Note_on_c, 9, 42, 0
1, 40440, Note_on_c, 3, 47, 0
1, 40440, Note_on_c, 2, 71, 0
1, 40440, Note_on_c, 2, 52, 0
1, 40440, Note_on_c, 5, 71, 0
1, 40440, Note_on_c, 5, 59, 0
1, 40440, Note_on_c, 2, 67, 0
1, 40440, Note_on_c, 2, 62, 0
1, 40440, Note_on_c, 2, 59, 0
1, 40440, Note_on_c, 2, 71, 100
1, 40440, Note_on_c, 2, 67, 100
1, 40440, Note_on_c, 2, 62, 100
1, 40440, Note_on_c, 2, 59, 100
1, 40440, Note_on_c, 2, 52, 100
1, 40440, Note_on_c, 3, 45, 100
1, 40440, Note_on_c, 5, 57, 100
1, 40440, Note_on_c, 5, 69, 100
1, 40440, Note_on_c, 9, 42, 100
1, 40455, Note_on_c, 9, 42, 0
1, 40500, Note_on_c, 2, 52, 0
1, 40500, Note_on_c, 2, 59, 0
1, 40500, Note_on_c, 2, 71, 0
1, 40500, Note_on_c, 2, 62, 0
1, 40500, Note_on_c, 2, 67, 0
1, 40500, Note_on_c, 2, 71, 100
1, 40500, Note_on_c, 2, 67, 100
1, 40500, Note_on_c, 2, 62, 100
1, 40500, Note_on_c, 2, 59, 100
1, 40500, Note_on_c, 2, 52, 100
1, 40500, Note_on_c, 9, 36, 100
1, 40515, Note_on_c, 9, 36, 0
1, 40560, Note_on_c, 2, 67, 0
1, 40560, Note_on_c, 5, 57, 0
1, 40560, Note_on_c, 7, 71, 0
1, 40560, Note_on_c, 2, 52, 0
1, 40560, Note_on_c, 6, 62, 0
1, 40560, Note_on_c, 6, 67, 0
1, 40560, Note_on_c, 2, 59, 0
1, 40560, Note_on_c, 5, 69, 0
1, 40560, Note_on_c, 2, 62, 0
1, 40560, Note_on_c, 2, 71, 0
1, 40560, Note_on_c, 6, 71, 0
1, 40560, Note_on_c, 3, 45, 0
1, 40560, Note_on_c, 2, 71, 100
1, 40560, Note_on_c, 2, 67, 100
1, 40560, Note_on_c, 2, 62, 100
1, 40560, Note_on_c, 2, 59, 100
1, 40560, Note_on_c, 2, 52, 100
1, 40560, Note_on_c, 3, 43, 100
1, 40560, Note_on_c, 4, 79, 100
1, 40560, Note_on_c, 5, 55, 100
1, 40560, Note_on_c, 5, 67, 100
1, 40560, Note_on_c, 6, 62, 100
1, 40560, Note_on_c, 7, 74, 100
1, 40560, Note_on_c, 9, 42, 100
1, 40560, Note_on_c, 9, 38, 100
1, 40560, Note_on_c, 12, 79, 100
1, 40575, Note_on_c, 9, 38, 0
1, 40575, Note_on_c, 9, 42, 0
1, 40620, Note_on_c, 4, 79, 0
1, 40620, Note_on_c, 12, 79, 0
1, 40620, Note_on_c, 4, 79, 100
1, 40620, Note_on_c, 12, 79, 100
1, 40680, Note_on_c, 2, 59, 0
1, 40680, Note_on_c, 2, 71, 0
1, 40680, Note_on_c, 7, 74, 0
1, 40680, Note_on_c, 6, 62, 0
1, 40680, Note_on_c, 3, 43, 0
1, 40680, Note_on_c, 2, 62, 0
1, 40680, Note_on_c, 2, 67, 0
1, 40680, Note_on_c, 5, 67, 0
1, 40680, Note_on_c, 2, 52, 0
1, 40680, Note_on_c, 5, 55, 0
1, 40680, Note_on_c, 2, 71, 100
1, 40680, Note_on_c, 2, 67, 100
1, 40680, Note_on_c, 2, 62, 100
1, 40680, Note_on_c, 2, 59, 100
1, 40680, Note_on_c, 2, 52, 100
1, 40680, Note_on_c, 3, 38, 100
1, 40680, Note_on_c, 5, 50, 100
1, 40680, Note_on_c, 5, 62, 100
1, 40680, Note_on_c, 6, 71, 100
1, 40680, Note_on_c, 6, 67, 100
1, 40680, Note_on_c, 6, 62, 100
1, 40680, Note_on_c, 7, 76, 100
1, 40680, Note_on_c, 9, 42, 100
1, 40695, Note_on_c, 9, 42, 0
1, 40740, Note_on_c, 2, 52, 0
1, 40740, Note_on_c, 12, 79, 0
1, 40740, Note_on_c, 2, 67, 0
1, 40740, Note_on_c, 2, 71, 0
1, 40740, Note_on_c, 4, 79, 0
1, 40740, Note_on_c, 2, 59, 0
1, 40740, Note_on_c, 2, 62, 0
1, 40740, Note_on_c, 2, 71, 100
1, 40740, Note_on_c, 2, 67, 100
1, 40740, Note_on_c, 2, 62, 100
1, 40740, Note_on_c, 2, 59, 100
1, 40740, Note_on_c, 2, 52, 100
1, 40740, Note_on_c, 4, 79, 100
1, 40740, Note_on_c, 12, 79, 100
1, 40800, Note_on_c, 12, 79, 0
1, 40800, Note_on_c, 7, 43, 0
1, 40800, Note_on_c, 2, 67, 0
1, 40800, Note_on_c, 6, 62, 0
1, 40800, Note_on_c, 7, 76, 0
1, 40800, Note_on_c, 6, 71, 0
1, 40800, Note_on_c, 3, 38, 0
1, 40800, Note_on_c, 5, 50, 0
1, 40800, Note_on_c, 6, 43, 0
1, 40800, Note_on_c, 4, 79, 0
1, 40800, Note_on_c, 6, 67, 0
1, 40800, Note_on_c, 7, 67, 0
1, 40800, Note_on_c, 2, 62, 0
1, 40800, Note_on_c, 2, 59, 0
1, 40800, Note_on_c, 7, 62, 0
1, 40800, Note_on_c, 6, 55, 0
1, 40800, Note_on_c, 2, 52, 0
1, 40800, Note_on_c, 5, 62, 0
1, 40800, Note_on_c, 2, 71, 0
1, 40800, Note_on_c, 2, 47, 100
1, 40800, Note_on_c, 2, 57, 100
1, 40800, Note_on_c, 2, 54, 100
1, 40800, Note_on_c, 2, 66, 100
1, 40800, Note_on_c, 2, 62, 100
1, 40800, Note_on_c, 2, 71, 100
1, 40800, Note_on_c, 3, 42, 100
1, 40800, Note_on_c, 4, 78, 100
1, 40800, Note_on_c, 5, 54, 100
1, 40800, Note_on_c, 5, 66, 100
1, 40800, Note_on_c, 6, 69, 100
1, 40800, Note_on_c, 6, 66, 100
1, 40800, Note_on_c, 6, 62, 100
1, 40800, Note_on_c, 6, 47, 100
1, 40800, Note_on_c, 6, 35, 100
1, 40800, Note_on_c, 7, 59, 100
1, 40800, Note_on_c, 7, 78, 100
1, 40800, Note_on_c, 7, 69, 100
1, 40800, Note_on_c, 7, 42, 100
1, 40800, Note_on_c, 9, 42, 100
1, 40800, Note_on_c, 9, 36, 100
1, 40800, Note_on_c, 12, 78, 100
1, 40805, Note_on_c, 1, 43, 0
1, 40805, Note_on_c, 1, 43, 100
1, 40815, Note_on_c, 9, 36, 0
1, 40815, Note_on_c, 9, 42, 0
1, 40920, Note_on_c, 4, 78, 0
1, 40920, Note_on_c, 2, 54, 0
1, 40920, Note_on_c, 5, 66, 0
1, 40920, Note_on_c, 3, 42, 0
1, 40920, Note_on_c, 2, 47, 0
1, 40920, Note_on_c, 2, 66, 0
1, 40920, Note_on_c, 7, 59, 0
1, 40920, Note_on_c, 5, 54, 0
1, 40920, Note_on_c, 12, 78, 0
1, 40920, Note_on_c, 2, 71, 0
1, 40920, Note_on_c, 2, 57, 0
1, 40920, Note_on_c, 2, 62, 0
1, 40920, Note_on_c, 2, 66, 100
1, 40920, Note_on_c, 2, 57, 100
1, 40920, Note_on_c, 2, 62, 100
1, 40920, Note_on_c, 2, 54, 100
1, 40920, Note_on_c, 2, 71, 100
1, 40920, Note_on_c, 2, 47, 100
1, 40920, Note_on_c, 3, 38, 100
1, 40920, Note_on_c, 4, 76, 100
1, 40920, Note_on_c, 5, 50, 100
1, 40920, Note_on_c, 5, 62, 100
1, 40920, Note_on_c, 7, 61, 100
1, 40920, Note_on_c, 9, 42, 100
1, 40920, Note_on_c, 12, 76, 100
1, 40925, Note_on_c, 1, 59, 100
1, 40935, Note_on_c, 9, 42, 0
1, 40980, Note_on_c, 12, 76, 0
1, 40980, Note_on_c, 2, 66, 0
1, 40980, Note_on_c, 4, 76, 0
1, 40980, Note_on_c, 2, 47, 0
1, 40980, Note_on_c, 2, 71, 0
1, 40980, Note_on_c, 2, 57, 0
1, 40980, Note_on_c, 2, 54, 0
1, 40980, Note_on_c, 2, 62, 0
1, 40980, Note_on_c, 2, 47, 100
1, 40980, Note_on_c, 2, 57, 100
1, 40980, Note_on_c, 2, 54, 100
1, 40980, Note_on_c, 2, 62, 100
1, 40980, Note_on_c, 2, 66, 100
1, 40980, Note_on_c, 2, 71, 100
1, 40980, Note_on_c, 4, 74, 100
1, 40980, Note_on_c, 9, 36, 100
1, 40980, Note_on_c, 12, 74, 100
1, 40995, Note_on_c, 9, 36, 0
1, 41040, Note_on_c, 2, 66, 0
1, 41040, Note_on_c, 7, 42, 0
1, 41040, Note_on_c, 7, 78, 0
1, 41040, Note_on_c, 7, 61, 0
1, 41040, Note_on_c, 2, 47, 0
1, 41040, Note_on_c, 5, 62, 0
1, 41040, Note_on_c, 7, 69, 0
1, 41040, Note_on_c, 12, 74, 0
1, 41040, Note_on_c, 2, 54, 0
1, 41040, Note_on_c, 3, 38, 0
1, 41040, Note_on_c, 2, 57, 0
1, 41040, Note_on_c, 4, 74, 0
1, 41040, Note_on_c, 2, 62, 0
1, 41040, Note_on_c, 2, 71, 0
1, 41040, Note_on_c, 6, 47, 0
1, 41040, Note_on_c, 5, 50, 0
1, 41040, Note_on_c, 2, 57, 100
1, 41040, Note_on_c, 2, 66, 100
1, 41040, Note_on_c, 2, 54, 100
1, 41040, Note_on_c, 2, 62, 100
1, 41040, Note_on_c, 2, 47, 100
1, 41040, Note_on_c, 2, 71, 100
1, 41040, Note_on_c, 3, 35, 100
1, 41040, Note_on_c, 4, 76, 100
1, 41040, Note_on_c, 5, 47, 100
1, 41040, Note_on_c, 5, 59, 100
1, 41040, Note_on_c, 6, 47, 100
1, 41040, Note_on_c, 7, 62, 100
1, 41040, Note_on_c, 7, 81, 100
1, 41040, Note_on_c, 7, 78, 100
1, 41040, Note_on_c, 7, 35, 100
1, 41040, Note_on_c, 9, 46, 100
1, 41040, Note_on_c, 9, 38, 100
1, 41040, Note_on_c, 12, 76, 100
1, 41045, Note_on_c, 1, 59, 0
1, 41045, Note_on_c, 1, 62, 100
1, 41055, Note_on_c, 9, 38, 0
1, 41055, Note_on_c, 9, 46, 0
1, 41100, Note_on_c, 6, 69, 0
1, 41100, Note_on_c, 6, 66, 0
1, 41100, Note_on_c, 6, 62, 0
1, 41100, Note_on_c, 6, 69, 100
1, 41100, Note_on_c, 6, 66, 100
1, 41100, Note_on_c, 6, 62, 100
1, 41160, Note_on_c, 7, 62, 0
1, 41160, Note_on_c, 2, 54, 0
1, 41160, Note_on_c, 5, 59, 0
1, 41160, Note_on_c, 2, 66, 0
1, 41160, Note_on_c, 2, 62, 0
1, 41160, Note_on_c, 2, 47, 0
1, 41160, Note_on_c, 12, 76, 0
1, 41160, Note_on_c, 3, 35, 0
1, 41160, Note_on_c, 4, 76, 0
1, 41160, Note_on_c, 2, 57, 0
1, 41160, Note_on_c, 2, 71, 0
1, 41160, Note_on_c, 5, 47, 0
1, 41160, Note_on_c, 2, 71, 100
1, 41160, Note_on_c, 2, 62, 100
1, 41160, Note_on_c, 2, 66, 100
1, 41160, Note_on_c, 2, 52, 100
1, 41160, Note_on_c, 2, 59, 100
1, 41160, Note_on_c, 3, 38, 100
1, 41160, Note_on_c, 4, 76, 100
1, 41160, Note_on_c, 5, 50, 100
1, 41160, Note_on_c, 5, 62, 100
1, 41160, Note_on_c, 7, 64, 100
1, 41160, Note_on_c, 12, 76, 100
1, 41220, Note_on_c, 2, 59, 0
1, 41220, Note_on_c, 2, 52, 0
1, 41220, Note_on_c, 2, 71, 0
1, 41220, Note_on_c, 2, 66, 0
1, 41220, Note_on_c, 2, 62, 0
1, 41220, Note_on_c, 2, 66, 100
1, 41220, Note_on_c, 2, 71, 100
1, 41220, Note_on_c, 2, 52, 100
1, 41220, Note_on_c, 2, 62, 100
1, 41220, Note_on_c, 2, 59, 100
1, 41280, Note_on_c, 2, 59, 0
1, 41280, Note_on_c, 7, 64, 0
1, 41280, Note_on_c, 5, 62, 0
1, 41280, Note_on_c, 12, 76, 0
1, 41280, Note_on_c, 4, 76, 0
1, 41280, Note_on_c, 7, 78, 0
1, 41280, Note_on_c, 6, 47, 0
1, 41280, Note_on_c, 6, 66, 0
1, 41280, Note_on_c, 2, 62, 0
1, 41280, Note_on_c, 7, 35, 0
1, 41280, Note_on_c, 2, 66, 0
1, 41280, Note_on_c, 7, 81, 0
1, 41280, Note_on_c, 2, 71, 0
1, 41280, Note_on_c, 5, 50, 0
1, 41280, Note_on_c, 6, 35, 0
1, 41280, Note_on_c, 3, 38, 0
1, 41280, Note_on_c, 6, 69, 0
1, 41280, Note_on_c, 2, 52, 0
1, 41280, Note_on_c, 6, 62, 0
1, 41280, Note_on_c, 2, 52, 100
1, 41280, Note_on_c, 2, 71, 100
1, 41280, Note_on_c, 2, 59, 100
1, 41280, Note_on_c, 2, 68, 100
1, 41280, Note_on_c, 2, 64, 100
1, 41280, Note_on_c, 3, 40, 100
1, 41280, Note_on_c, 4, 76, 100
1, 41280, Note_on_c, 5, 52, 100
1, 41280, Note_on_c, 5, 64, 100
1, 41280, Note_on_c, 6, 68, 100
1, 41280, Note_on_c, 6, 64, 100
1, 41280, Note_on_c, 6, 59, 100
1, 41280, Note_on_c, 6, 52, 100
1, 41280, Note_on_c, 6, 40, 100
1, 41280, Note_on_c, 7, 80, 100
1, 41280, Note_on_c, 7, 76, 100
1, 41280, Note_on_c, 7, 64, 100
1, 41280, Note_on_c, 7, 59, 100
1, 41280, Note_on_c, 7, 40, 100
1, 41280, Note_on_c, 9, 42, 100
1, 41280, Note_on_c, 9, 36, 100
1, 41280, Note_on_c, 12, 76, 100
1, 41285, Note_on_c, 1, 62, 0
1, 41285, Note_on_c, 1, 43, 0
1, 41285, Note_on_c, 1, 40, 100
1, 41295, Note_on_c, 9, 36, 0
1, 41295, Note_on_c, 9, 42, 0
1, 41400, Note_on_c, 2, 71, 0
1, 41400, Note_on_c, 2, 59, 0
1, 41400, Note_on_c, 2, 64, 0
1, 41400, Note_on_c, 2, 52, 0
1, 41400, Note_on_c, 2, 68, 0
1, 41400, Note_on_c, 2, 59, 100
1, 41400, Note_on_c, 2, 52, 100
1, 41400, Note_on_c, 2, 68, 100
1, 41400, Note_on_c, 2, 71, 100
1, 41400, Note_on_c, 2, 64, 100
1, 41400, Note_on_c, 9, 42, 100
1, 41415, Note_on_c, 9, 42, 0
1, 41460, Note_on_c, 2, 64, 0
1, 41460, Note_on_c, 2, 59, 0
1, 41460, Note_on_c, 3, 40, 0
1, 41460, Note_on_c, 2, 71, 0
1, 41460, Note_on_c, 2, 52, 0
1, 41460, Note_on_c, 2, 68, 0
1, 41460, Note_on_c, 2, 71, 100
1, 41460, Note_on_c, 2, 68, 100
1, 41460, Note_on_c, 2, 52, 100
1, 41460, Note_on_c, 2, 59, 100
1, 41460, Note_on_c, 2, 64, 100
1, 41460, Note_on_c, 3, 40, 100
1, 41460, Note_on_c, 9, 36, 100
1, 41475, Note_on_c, 9, 36, 0
1, 41520, Note_on_c, 3, 40, 0
1, 41520, Note_on_c, 6, 40, 0
1, 41520, Note_on_c, 2, 68, 0
1, 41520, Note_on_c, 5, 52, 0
1, 41520, Note_on_c, 4, 76, 0
1, 41520, Note_on_c, 5, 64, 0
1, 41520, Note_on_c, 2, 71, 0
1, 41520, Note_on_c, 2, 64, 0
1, 41520, Note_on_c, 2, 52, 0
1, 41520, Note_on_c, 2, 59, 0
1, 41520, Note_on_c, 12, 76, 0
1, 41520, Note_on_c, 6, 52, 0
1, 41520, Note_on_c, 2, 52, 100
1, 41520, Note_on_c, 2, 71, 100
1, 41520, Note_on_c, 2, 59, 100
1, 41520, Note_on_c, 2, 68, 100
1, 41520, Note_on_c, 2, 64, 100
1, 41520, Note_on_c, 3, 40, 100
1, 41520, Note_on_c, 4, 78, 100
1, 41520, Note_on_c, 6, 52, 100
1, 41520, Note_on_c, 6, 40, 100
1, 41520, Note_on_c, 9, 42, 100
1, 41520, Note_on_c, 9, 38, 100
1, 41520, Note_on_c, 12, 78, 100
1, 41535, Note_on_c, 9, 38, 0
1, 41535, Note_on_c, 9, 42, 0
1, 41640, Note_on_c, 6, 68, 0
1, 41640, Note_on_c, 3, 40, 0
1, 41640, Note_on_c, 2, 52, 0
1, 41640, Note_on_c, 12, 78, 0
1, 41640, Note_on_c, 4, 78, 0
1, 41640, Note_on_c, 2, 59, 0
1, 41640, Note_on_c, 6, 59, 0
1, 41640, Note_on_c, 6, 64, 0
1, 41640, Note_on_c, 2, 64, 0
1, 41640, Note_on_c, 2, 71, 0
1, 41640, Note_on_c, 2, 68, 0
1, 41640, Note_on_c, 2, 59, 100
1, 41640, Note_on_c, 2, 52, 100
1, 41640, Note_on_c, 2, 68, 100
1, 41640, Note_on_c, 2, 71, 100
1, 41640, Note_on_c, 2, 64, 100
1, 41640, Note_on_c, 3, 35, 100
1, 41640, Note_on_c, 6, 68, 100
1, 41640, Note_on_c, 6, 64, 100
1, 41640, Note_on_c, 6, 59, 100
1, 41640, Note_on_c, 9, 42, 100
1, 41645, Note_on_c, 1, 40, 0
1, 41655, Note_on_c, 9, 42, 0
1, 41700, Note_on_c, 2, 68, 0
1, 41700, Note_on_c, 2, 52, 0
1, 41700, Note_on_c, 2, 59, 0
1, 41700, Note_on_c, 3, 35, 0
1, 41700, Note_on_c, 2, 71, 0
1, 41700, Note_on_c, 2, 64, 0
1, 41700, Note_on_c, 2, 71, 100
1, 41700, Note_on_c, 2, 68, 100
1, 41700, Note_on_c, 2, 52, 100
1, 41700, Note_on_c, 2, 59, 100
1, 41700, Note_on_c, 2, 64, 100
1, 41700, Note_on_c, 3, 38, 100
1, 41705, Note_on_c, 1, 64, 100
1, 41705, Note_on_c, 1, 59, 100
1, 41705, Note_on_c, 1, 52, 100
1, 41760, Note_on_c, 3, 38, 0
1, 41760, Note_on_c, 2, 64, 0
1, 41760, Note_on_c, 6, 52, 0
1, 41760, Note_on_c, 6, 40, 0
1, 41760, Note_on_c, 2, 59, 0
1, 41760, Note_on_c, 2, 68, 0
1, 41760, Note_on_c, 2, 71, 0
1, 41760, Note_on_c, 2, 52, 0
1, 41760, Note_on_c, 2, 52, 100
1, 41760, Note_on_c, 2, 71, 100
1, 41760, Note_on_c, 2, 59, 100
1, 41760, Note_on_c, 2, 68, 100
1, 41760, Note_on_c, 2, 64, 100
1, 41760, Note_on_c, 3, 40, 100
1, 41760, Note_on_c, 6, 52, 100
1, 41760, Note_on_c, 6, 40, 100
1, 41760, Note_on_c, 9, 42, 100
1, 41760, Note_on_c, 9, 36, 100
1, 41775, Note_on_c, 9, 36, 0
1, 41775, Note_on_c, 9, 42, 0
1, 41820, Note_on_c, 6, 64, 0
1, 41820, Note_on_c, 6, 59, 0
1, 41820, Note_on_c, 6, 68, 0
1, 41820, Note_on_c, 6, 69, 100
1, 41820, Note_on_c, 6, 64, 100
1, 41820, Note_on_c, 6, 59, 100
1, 41820, Note_on_c, 9, 38, 100
1, 41825, Note_on_c, 1, 52, 0
1, 41825, Note_on_c, 1, 64, 0
1, 41825, Note_on_c, 1, 59, 0
1, 41825, Note_on_c, 1, 64, 75
1, 41825, Note_on_c, 1, 59, 75
1, 41825, Note_on_c, 1, 52, 75
1, 41835, Note_on_c, 9, 38, 0
1, 41880, Note_on_c, 2, 64, 0
1, 41880, Note_on_c, 2, 68, 0
1, 41880, Note_on_c, 2, 52, 0
1, 41880, Note_on_c, 2, 59, 0
1, 41880, Note_on_c, 2, 71, 0
1, 41880, Note_on_c, 2, 59, 100
1, 41880, Note_on_c, 2, 52, 100
1, 41880, Note_on_c, 2, 68, 100
1, 41880, Note_on_c, 2, 71, 100
1, 41880, Note_on_c, 2, 64, 100
1, 41880, Note_on_c, 9, 42, 100
1, 41885, Note_on_c, 1, 59, 0
1, 41885, Note_on_c, 1, 64, 0
1, 41885, Note_on_c, 1, 52, 0
1, 41885, Note_on_c, 1, 64, 75
1, 41885, Note_on_c, 1, 59, 75
1, 41885, Note_on_c, 1, 52, 75
1, 41895, Note_on_c, 9, 42, 0
1, 41940, Note_on_c, 6, 59, 0
1, 41940, Note_on_c, 2, 64, 0
1, 41940, Note_on_c, 2, 52, 0
1, 41940, Note_on_c, 3, 40, 0
1, 41940, Note_on_c, 2, 71, 0
1, 41940, Note_on_c, 2, 68, 0
1, 41940, Note_on_c, 6, 64, 0
1, 41940, Note_on_c, 2, 59, 0
1, 41940, Note_on_c, 6, 69, 0
1, 41940, Note_on_c, 2, 71, 100
1, 41940, Note_on_c, 2, 68, 100
1, 41940, Note_on_c, 2, 52, 100
1, 41940, Note_on_c, 2, 59, 100
1, 41940, Note_on_c, 2, 64, 100
1, 41940, Note_on_c, 3, 40, 100
1, 41940, Note_on_c, 6, 59, 100
1, 41940, Note_on_c, 9, 36, 100
1, 41945, Note_on_c, 1, 52, 0
1, 41945, Note_on_c, 1, 59, 0
1, 41945, Note_on_c, 1, 64, 0
1, 41945, Note_on_c, 1, 64, 75
1, 41945, Note_on_c, 1, 59, 75
1, 41945, Note_on_c, 1, 52, 75
1, 41955, Note_on_c, 9, 36, 0
1, 42000, Note_on_c, 3, 40, 0
1, 42000, Note_on_c, 6, 40, 0
1, 42000, Note_on_c, 2, 71, 0
1, 42000, Note_on_c, 2, 52, 0
1, 42000, Note_on_c, 6, 52, 0
1, 42000, Note_on_c, 2, 64, 0
1, 42000, Note_on_c, 2, 68, 0
1, 42000, Note_on_c, 2, 59, 0
1, 42000, Note_on_c, 2, 52, 100
1, 42000, Note_on_c, 2, 71, 100
1, 42000, Note_on_c, 2, 59, 100
1, 42000, Note_on_c, 2, 68, 100
1, 42000, Note_on_c, 2, 64, 100
1, 42000, Note_on_c, 3, 40, 100
1, 42000, Note_on_c, 6, 68, 100
1, 42000, Note_on_c, 6, 64, 100
1, 42000, Note_on_c, 6, 52, 100
1, 42000, Note_on_c, 6, 40, 100
1, 42000, Note_on_c, 9, 46, 100
1, 42000, Note_on_c, 9, 38, 100
1, 42005, Note_on_c, 1, 59, 0
1, 42005, Note_on_c, 1, 64, 0
1, 42005, Note_on_c, 1, 52, 0
1, 42005, Note_on_c, 1, 64, 100
1, 42005, Note_on_c, 1, 59, 100
1, 42005, Note_on_c, 1, 52, 100
1, 42015, Note_on_c, 9, 38, 0
1, 42015, Note_on_c, 9, 46, 0
1, 42120, Note_on_c, 2, 71, 0
1, 42120, Note_on_c, 7, 64, 0
1, 42120, Note_on_c, 7, 76, 0
1, 42120, Note_on_c, 7, 40, 0
1, 42120, Note_on_c, 2, 52, 0
1, 42120, Note_on_c, 2, 68, 0
1, 42120, Note_on_c, 7, 80, 0
1, 42120, Note_on_c, 7, 59, 0
1, 42120, Note_on_c, 3, 40, 0
1, 42120, Note_on_c, 2, 59, 0
1, 42120, Note_on_c, 2, 64, 0
1, 42120, Note_on_c, 2, 59, 100
1, 42120, Note_on_c, 2, 52, 100
1, 42120, Note_on_c, 2, 68, 100
1, 42120, Note_on_c, 2, 71, 100
1, 42120, Note_on_c, 2, 64, 100
1, 42120, Note_on_c, 3, 45, 100
1, 42125, Note_on_c, 1, 59, 0
1, 42125, Note_on_c, 1, 64, 0
1, 42125, Note_on_c, 1, 52, 0
1, 42180, Note_on_c, 2, 59, 0
1, 42180, Note_on_c, 2, 52, 0
1, 42180, Note_on_c, 2, 68, 0
1, 42180, Note_on_c, 3, 45, 0
1, 42180, Note_on_c, 2, 71, 0
1, 42180, Note_on_c, 2, 64, 0
1, 42180, Note_on_c, 2, 71, 100
1, 42180, Note_on_c, 2, 68, 100
1, 42180, Note_on_c, 2, 52, 100
1, 42180, Note_on_c, 2, 59, 100
1, 42180, Note_on_c, 2, 64, 100
1, 42180, Note_on_c, 3, 46, 100
1, 42240, Note_on_c, 3, 46, 0
1, 42240, Note_on_c, 2, 52, 0
1, 42240, Note_on_c, 6, 59, 0
1, 42240, Note_on_c, 6, 52, 0
1, 42240, Note_on_c, 6, 64, 0
1, 42240, Note_on_c, 6, 68, 0
1, 42240, Note_on_c, 6, 40, 0
1, 42240, Note_on_c, 2, 59, 0
1, 42240, Note_on_c, 2, 68, 0
1, 42240, Note_on_c, 2, 71, 0
1, 42240, Note_on_c, 2, 64, 0
1, 42240, Note_on_c, 2, 71, 100
1, 42240, Note_on_c, 2, 67, 100
1, 42240, Note_on_c, 2, 62, 100
1, 42240, Note_on_c, 2, 59, 100
1, 42240, Note_on_c, 2, 52, 100
1, 42240, Note_on_c, 3, 47, 100
1, 42240, Note_on_c, 5, 59, 100
1, 42240, Note_on_c, 5, 71, 100
1, 42240, Note_on_c, 6, 71, 100
1, 42240, Note_on_c, 6, 67, 100
1, 42240, Note_on_c, 6, 62, 100
1, 42240, Note_on_c, 6, 55, 100
1, 42240, Note_on_c, 6, 43, 100
1, 42240, Note_on_c, 7, 71, 100
1, 42240, Note_on_c, 7, 67, 100
1, 42240, Note_on_c, 7, 62, 100
1, 42240, Note_on_c, 7, 43, 100
1, 42240, Note_on_c, 9, 42, 100
1, 42240, Note_on_c, 9, 36, 100
1, 42245, Note_on_c, 1, 43, 100
1, 42255, Note_on_c, 9, 36, 0
1, 42255, Note_on_c, 9, 42, 0
1, 42360, Note_on_c, 2, 59, 0
1, 42360, Note_on_c, 5, 71, 0
1, 42360, Note_on_c, 2, 71, 0
1, 42360, Note_on_c, 5, 59, 0
1, 42360, Note_on_c, 2, 62, 0
1, 42360, Note_on_c, 3, 47, 0
1, 42360, Note_on_c, 2, 67, 0
1, 42360, Note_on_c, 2, 52, 0
1, 42360, Note_on_c, 2, 71, 100
1, 42360, Note_on_c, 2, 67, 100
1, 42360, Note_on_c, 2, 62, 100
1, 42360, Note_on_c, 2, 59, 100
1, 42360, Note_on_c, 2, 52, 100
1, 42360, Note_on_c, 3, 45, 100
1, 42360, Note_on_c, 5, 57, 100
1, 42360, Note_on_c, 5, 69, 100
1, 42360, Note_on_c, 9, 42, 100
1, 42375, Note_on_c, 9, 42, 0
1, 42420, Note_on_c, 2, 52, 0
1, 42420, Note_on_c, 2, 59, 0
1, 42420, Note_on_c, 2, 71, 0
1, 42420, Note_on_c, 2, 62, 0
1, 42420, Note_on_c, 2, 67, 0
1, 42420, Note_on_c, 2, 71, 100
1, 42420, Note_on_c, 2, 67, 100
1, 42420, Note_on_c, 2, 62, 100
1, 42420, Note_on_c, 2, 59, 100
1, 42420, Note_on_c, 2, 52, 100
1, 42420, Note_on_c, 9, 36, 100
1, 42435, Note_on_c, 9, 36, 0
1, 42480, Note_on_c, 2, 67, 0
1, 42480, Note_on_c, 5, 57, 0
1, 42480, Note_on_c, 6, 62, 0
1, 42480, Note_on_c, 2, 52, 0
1, 42480, Note_on_c, 7, 71, 0
1, 42480, Note_on_c, 2, 59, 0
1, 42480, Note_on_c, 5, 69, 0
1, 42480, Note_on_c, 2, 62, 0
1, 42480, Note_on_c, 6, 71, 0
1, 42480, Note_on_c, 6, 67, 0
1, 42480, Note_on_c, 2, 71, 0
1, 42480, Note_on_c, 3, 45, 0
1, 42480, Note_on_c, 2, 71, 100
1, 42480, Note_on_c, 2, 67, 100
1, 42480, Note_on_c, 2, 62, 100
1, 42480, Note_on_c, 2, 59, 100
1, 42480, Note_on_c, 2, 52, 100
1, 42480, Note_on_c, 3, 43, 100
1, 42480, Note_on_c, 4, 79, 100
1, 42480, Note_on_c, 5, 55, 100
1, 42480, Note_on_c, 5, 67, 100
1, 42480, Note_on_c, 6, 62, 100
1, 42480, Note_on_c, 7, 74, 100
1, 42480, Note_on_c, 9, 42, 100
1, 42480, Note_on_c, 9, 38, 100
1, 42480, Note_on_c, 12, 79, 100
1, 42495, Note_on_c, 9, 38, 0
1, 42495, Note_on_c, 9, 42, 0
1, 42540, Note_on_c, 4, 79, 0
1, 42540, Note_on_c, 12, 79, 0
1, 42540, Note_on_c, 4, 79, 100
1, 42540, Note_on_c, 12, 79, 100
1, 42600, Note_on_c, 2, 59, 0
1, 42600, Note_on_c, 2, 71, 0
1, 42600, Note_on_c, 7, 74, 0
1, 42600, Note_on_c, 6, 62, 0
1, 42600, Note_on_c, 3, 43, 0
1, 42600, Note_on_c, 2, 62, 0
1, 42600, Note_on_c, 2, 67, 0
1, 42600, Note_on_c, 5, 67, 0
1, 42600, Note_on_c, 2, 52, 0
1, 42600, Note_on_c, 5, 55, 0
1, 42600, Note_on_c, 2, 71, 100
1, 42600, Note_on_c, 2, 67, 100
1, 42600, Note_on_c, 2, 62, 100
1, 42600, Note_on_c, 2, 59, 100
1, 42600, Note_on_c, 2, 52, 100
1, 42600, Note_on_c, 3, 38, 100
1, 42600, Note_on_c, 5, 50, 100
1, 42600, Note_on_c, 5, 62, 100
1, 42600, Note_on_c, 6, 71, 100
1, 42600, Note_on_c, 6, 67, 100
1, 42600, Note_on_c, 6, 62, 100
1, 42600, Note_on_c, 7, 76, 100
1, 42600, Note_on_c, 9, 42, 100
1, 42615, Note_on_c, 9, 42, 0
1, 42660, Note_on_c, 2, 52, 0
1, 42660, Note_on_c, 2, 67, 0
1, 42660, Note_on_c, 2, 71, 0
1, 42660, Note_on_c, 2, 59, 0
1, 42660, Note_on_c, 2, 62, 0
1, 42660, Note_on_c, 2, 71, 100
1, 42660, Note_on_c, 2, 67, 100
1, 42660, Note_on_c, 2, 62, 100
1, 42660, Note_on_c, 2, 59, 100
1, 42660, Note_on_c, 2, 52, 100
1, 42720, Note_on_c, 2, 52, 0
1, 42720, Note_on_c, 7, 76, 0
1, 42720, Note_on_c, 4, 79, 0
1, 42720, Note_on_c, 6, 67, 0
1, 42720, Note_on_c, 6, 62, 0
1, 42720, Note_on_c, 5, 62, 0
1, 42720, Note_on_c, 3, 38, 0
1, 42720, Note_on_c, 6, 43, 0
1, 42720, Note_on_c, 7, 43, 0
1, 42720, Note_on_c, 2, 59, 0
1, 42720, Note_on_c, 12, 79, 0
1, 42720, Note_on_c, 7, 67, 0
1, 42720, Note_on_c, 2, 71, 0
1, 42720, Note_on_c, 2, 67, 0
1, 42720, Note_on_c, 5, 50, 0
1, 42720, Note_on_c, 6, 55, 0
1, 42720, Note_on_c, 2, 62, 0
1, 42720, Note_on_c, 6, 71, 0
1, 42720, Note_on_c, 7, 62, 0
1, 42720, Note_on_c, 2, 47, 100
1, 42720, Note_on_c, 2, 57, 100
1, 42720, Note_on_c, 2, 54, 100
1, 42720, Note_on_c, 2, 66, 100
1, 42720, Note_on_c, 2, 62, 100
1, 42720, Note_on_c, 2, 71, 100
1, 42720, Note_on_c, 3, 42, 100
1, 42720, Note_on_c, 4, 78, 100
1, 42720, Note_on_c, 5, 54, 100
1, 42720, Note_on_c, 5, 66, 100
1, 42720, Note_on_c, 6, 69, 100
1, 42720, Note_on_c, 6, 66, 100
1, 42720, Note_on_c, 6, 62, 100
1, 42720, Note_on_c, 6, 47, 100
1, 42720, Note_on_c, 6, 35, 100
1, 42720, Note_on_c, 7, 59, 100
1, 42720, Note_on_c, 7, 78, 100
1, 42720, Note_on_c, 7, 69, 100
1, 42720, Note_on_c, 7, 42, 100
1, 42720, Note_on_c, 9, 42, 100
1, 42720, Note_on_c, 9, 36, 100
1, 42720, Note_on_c, 12, 78, 100
1, 42725, Note_on_c, 1, 43, 0
1, 42725, Note_on_c, 1, 43, 100
1, 42735, Note_on_c, 9, 36, 0
1, 42735, Note_on_c, 9, 42, 0
1, 42810, Note_on_c, 4, 78, 0
1, 42810, Note_on_c, 12, 78, 0
1, 42810, Note_on_c, 4, 76, 100
1, 42810, Note_on_c, 12, 76, 100
1, 42840, Note_on_c, 7, 59, 0
1, 42840, Note_on_c, 3, 42, 0
1, 42840, Note_on_c, 2, 47, 0
1, 42840, Note_on_c, 2, 66, 0
1, 42840, Note_on_c, 5, 66, 0
1, 42840, Note_on_c, 2, 54, 0
1, 42840, Note_on_c, 5, 54, 0
1, 42840, Note_on_c, 2, 71, 0
1, 42840, Note_on_c, 2, 57, 0
1, 42840, Note_on_c, 2, 62, 0
1, 42840, Note_on_c, 2, 66, 100
1, 42840, Note_on_c, 2, 57, 100
1, 42840, Note_on_c, 2, 62, 100
1, 42840, Note_on_c, 2, 54, 100
1, 42840, Note_on_c, 2, 71, 100
1, 42840, Note_on_c, 2, 47, 100
1, 42840, Note_on_c, 3, 38, 100
1, 42840, Note_on_c, 5, 50, 100
1, 42840, Note_on_c, 5, 62, 100
1, 42840, Note_on_c, 7, 61, 100
1, 42840, Note_on_c, 9, 42, 100
1, 42845, Note_on_c, 1, 59, 100
1, 42855, Note_on_c, 9, 42, 0
1, 42900, Note_on_c, 2, 47, 0
1, 42900, Note_on_c, 2, 54, 0
1, 42900, Note_on_c, 2, 71, 0
1, 42900, Note_on_c, 2, 62, 0
1, 42900, Note_on_c, 2, 57, 0
1, 42900, Note_on_c, 2, 66, 0
1, 42900, Note_on_c, 2, 47, 100
1, 42900, Note_on_c, 2, 57, 100
1, 42900, Note_on_c, 2, 54, 100
1, 42900, Note_on_c, 2, 62, 100
1, 42900, Note_on_c, 2, 66, 100
1, 42900, Note_on_c, 2, 71, 100
1, 42900, Note_on_c, 9, 36, 100
1, 42915, Note_on_c, 9, 36, 0
1, 42960, Note_on_c, 2, 54, 0
1, 42960, Note_on_c, 7, 61, 0
1, 42960, Note_on_c, 7, 78, 0
1, 42960, Note_on_c, 5, 62, 0
1, 42960, Note_on_c, 7, 42, 0
1, 42960, Note_on_c, 5, 50, 0
1, 42960, Note_on_c, 2, 71, 0
1, 42960, Note_on_c, 2, 47, 0
1, 42960, Note_on_c, 12, 76, 0
1, 42960, Note_on_c, 7, 69, 0
1, 42960, Note_on_c, 2, 66, 0
1, 42960, Note_on_c, 2, 57, 0
1, 42960, Note_on_c, 2, 62, 0
1, 42960, Note_on_c, 4, 76, 0
1, 42960, Note_on_c, 6, 47, 0
1, 42960, Note_on_c, 3, 38, 0
1, 42960, Note_on_c, 2, 57, 100
1, 42960, Note_on_c, 2, 66, 100
1, 42960, Note_on_c, 2, 54, 100
1, 42960, Note_on_c, 2, 62, 100
1, 42960, Note_on_c, 2, 47, 100
1, 42960, Note_on_c, 2, 71, 100
1, 42960, Note_on_c, 3, 35, 100
1, 42960, Note_on_c, 4, 74, 100
1, 42960, Note_on_c, 5, 47, 100
1, 42960, Note_on_c, 5, 59, 100
1, 42960, Note_on_c, 6, 47, 100
1, 42960, Note_on_c, 7, 62, 100
1, 42960, Note_on_c, 7, 81, 100
1, 42960, Note_on_c, 7, 78, 100
1, 42960, Note_on_c, 7, 35, 100
1, 42960, Note_on_c, 9, 46, 100
1, 42960, Note_on_c, 9, 38, 100
1, 42960, Note_on_c, 12, 74, 100
1, 42965, Note_on_c, 1, 59, 0
1, 42965, Note_on_c, 1, 62, 100
1, 42975, Note_on_c, 9, 38, 0
1, 42975, Note_on_c, 9, 46, 0
1, 43020, Note_on_c, 6, 69, 0
1, 43020, Note_on_c, 6, 66, 0
1, 43020, Note_on_c, 12, 74, 0
1, 43020, Note_on_c, 4, 74, 0
1, 43020, Note_on_c, 6, 62, 0
1, 43020, Note_on_c, 4, 76, 100
1, 43020, Note_on_c, 6, 69, 100
1, 43020, Note_on_c, 6, 66, 100
1, 43020, Note_on_c, 6, 62, 100
1, 43020, Note_on_c, 12, 76, 100
1, 43080, Note_on_c, 2, 66, 0
1, 43080, Note_on_c, 7, 62, 0
1, 43080, Note_on_c, 2, 54, 0
1, 43080, Note_on_c, 5, 59, 0
1, 43080, Note_on_c, 2, 62, 0
1, 43080, Note_on_c, 2, 47, 0
1, 43080, Note_on_c, 3, 35, 0
1, 43080, Note_on_c, 2, 71, 0
1, 43080, Note_on_c, 2, 57, 0
1, 43080, Note_on_c, 5, 47, 0
1, 43080, Note_on_c, 2, 71, 100
1, 43080, Note_on_c, 2, 62, 100
1, 43080, Note_on_c, 2, 66, 100
1, 43080, Note_on_c, 2, 52, 100
1, 43080, Note_on_c, 2, 59, 100
1, 43080, Note_on_c, 3, 38, 100
1, 43080, Note_on_c, 5, 50, 100
1, 43080, Note_on_c, 5, 62, 100
1, 43080, Note_on_c, 7, 64, 100
1, 43140, Note_on_c, 2, 59, 0
1, 43140, Note_on_c, 2, 52, 0
1, 43140, Note_on_c, 2, 66, 0
1, 43140, Note_on_c, 2, 62, 0
1, 43140, Note_on_c, 2, 71, 0
1, 43140, Note_on_c, 2, 66, 100
1, 43140, Note_on_c, 2, 71, 100
1, 43140, Note_on_c, 2, 52, 100
1, 43140, Note_on_c, 2, 62, 100
1, 43140, Note_on_c, 2, 59, 100
1, 43200, Note_on_c, 2, 59, 0
1, 43200, Note_on_c, 7, 64, 0
1, 43200, Note_on_c, 5, 62, 0
1, 43200, Note_on_c, 6, 35, 0
1, 43200, Note_on_c, 5, 50, 0
1, 43200, Note_on_c, 2, 62, 0
1, 43200, Note_on_c, 2, 66, 0
1, 43200, Note_on_c, 6, 66, 0
1, 43200, Note_on_c, 6, 47, 0
1, 43200, Note_on_c, 7, 81, 0
1, 43200, Note_on_c, 6, 62, 0
1, 43200, Note_on_c, 7, 78, 0
1, 43200, Note_on_c, 2, 52, 0
1, 43200, Note_on_c, 2, 71, 0
1, 43200, Note_on_c, 6, 69, 0
1, 43200, Note_on_c, 3, 38, 0
1, 43200, Note_on_c, 7, 35, 0
1, 43200, Note_on_c, 2, 52, 100
1, 43200, Note_on_c, 2, 71, 100
1, 43200, Note_on_c, 2, 59, 100
1, 43200, Note_on_c, 2, 68, 100
1, 43200, Note_on_c, 2, 64, 100
1, 43200, Note_on_c, 3, 40, 100
1, 43200, Note_on_c, 5, 52, 100
1, 43200, Note_on_c, 5, 64, 100
1, 43200, Note_on_c, 6, 68, 100
1, 43200, Note_on_c, 6, 64, 100
1, 43200, Note_on_c, 6, 59, 100
1, 43200, Note_on_c, 6, 52, 100
1, 43200, Note_on_c, 6, 40, 100
1, 43200, Note_on_c, 7, 80, 100
1, 43200, Note_on_c, 7, 76, 100
1, 43200, Note_on_c, 7, 64, 100
1, 43200, Note_on_c, 7, 59, 100
1, 43200, Note_on_c, 7, 40, 100
1, 43200, Note_on_c, 9, 42, 100
1, 43200, Note_on_c, 9, 36, 100
1, 43205, Note_on_c, 1, 62, 0
1, 43205, Note_on_c, 1, 43, 0
1, 43205, Note_on_c, 1, 40, 100
1, 43215, Note_on_c, 9, 42, 0
1, 43215, Note_on_c, 9, 36, 0
1, 43260, Note_on_c, 4, 76, 0
1, 43260, Note_on_c, 12, 76, 0
1, 43260, Note_on_c, 4, 71, 100
1, 43260, Note_on_c, 12, 71, 100
1, 43320, Note_on_c, 2, 68, 0
1, 43320, Note_on_c, 2, 64, 0
1, 43320, Note_on_c, 2, 52, 0
1, 43320, Note_on_c, 2, 71, 0
1, 43320, Note_on_c, 2, 59, 0
1, 43320, Note_on_c, 2, 59, 100
1, 43320, Note_on_c, 2, 52, 100
1, 43320, Note_on_c, 2, 68, 100
1, 43320, Note_on_c, 2, 71, 100
1, 43320, Note_on_c, 2, 64, 100
1, 43320, Note_on_c, 9, 42, 100
1, 43335, Note_on_c, 9, 42, 0
1, 43380, Note_on_c, 2, 64, 0
1, 43380, Note_on_c, 12, 71, 0
1, 43380, Note_on_c, 2, 59, 0
1, 43380, Note_on_c, 3, 40, 0
1, 43380, Note_on_c, 4, 71, 0
1, 43380, Note_on_c, 2, 71, 0
1, 43380, Note_on_c, 2, 52, 0
1, 43380, Note_on_c, 2, 68, 0
1, 43380, Note_on_c, 2, 71, 100
1, 43380, Note_on_c, 2, 68, 100
1, 43380, Note_on_c, 2, 52, 100
1, 43380, Note_on_c, 2, 59, 100
1, 43380, Note_on_c, 2, 64, 100
1, 43380, Note_on_c, 3, 40, 100
1, 43380, Note_on_c, 4, 69, 100
1, 43380, Note_on_c, 9, 36, 100
1, 43380, Note_on_c, 12, 69, 100
1, 43395, Note_on_c, 9, 36, 0
1, 43440, Note_on_c, 12, 69, 0
1, 43440, Note_on_c, 6, 52, 0
1, 43440, Note_on_c, 2, 59, 0
1, 43440, Note_on_c, 2, 68, 0
1, 43440, Note_on_c, 5, 52, 0
1, 43440, Note_on_c, 6, 40, 0
1, 43440, Note_on_c, 2, 52, 0
1, 43440, Note_on_c, 4, 69, 0
1, 43440, Note_on_c, 2, 64, 0
1, 43440, Note_on_c, 3, 40, 0
1, 43440, Note_on_c, 2, 71, 0
1, 43440, Note_on_c, 5, 64, 0
1, 43440, Note_on_c, 2, 52, 100
1, 43440, Note_on_c, 2, 71, 100
1, 43440, Note_on_c, 2, 59, 100
1, 43440, Note_on_c, 2, 68, 100
1, 43440, Note_on_c, 2, 64, 100
1, 43440, Note_on_c, 3, 40, 100
1, 43440, Note_on_c, 4, 68, 100
1, 43440, Note_on_c, 6, 52, 100
1, 43440, Note_on_c, 6, 40, 100
1, 43440, Note_on_c, 9, 42, 100
1, 43440, Note_on_c, 9, 38, 100
1, 43440, Note_on_c, 12, 68, 100
1, 43455, Note_on_c, 9, 38, 0
1, 43455, Note_on_c, 9, 42, 0
1, 43560, Note_on_c, 6, 59, 0
1, 43560, Note_on_c, 3, 40, 0
1, 43560, Note_on_c, 2, 52, 0
1, 43560, Note_on_c, 12, 68, 0
1, 43560, Note_on_c, 4, 68, 0
1, 43560, Note_on_c, 2, 59, 0
1, 43560, Note_on_c, 6, 64, 0
1, 43560, Note_on_c, 6, 68, 0
1, 43560, Note_on_c, 2, 64, 0
1, 43560, Note_on_c, 2, 71, 0
1, 43560, Note_on_c, 2, 68, 0
1, 43560, Note_on_c, 2, 59, 100
1, 43560, Note_on_c, 2, 52, 100
1, 43560, Note_on_c, 2, 68, 100
1, 43560, Note_on_c, 2, 71, 100
1, 43560, Note_on_c, 2, 64, 100
1, 43560, Note_on_c, 3, 35, 100
1, 43560, Note_on_c, 6, 68, 100
1, 43560, Note_on_c, 6, 64, 100
1, 43560, Note_on_c, 6, 59, 100
1, 43560, Note_on_c, 9, 42, 100
1, 43565, Note_on_c, 1, 40, 0
1, 43575, Note_on_c, 9, 42, 0
1, 43620, Note_on_c, 2, 68, 0
1, 43620, Note_on_c, 2, 52, 0
1, 43620, Note_on_c, 2, 59, 0
1, 43620, Note_on_c, 3, 35, 0
1, 43620, Note_on_c, 2, 71, 0
1, 43620, Note_on_c, 2, 64, 0
1, 43620, Note_on_c, 2, 71, 100
1, 43620, Note_on_c, 2, 68, 100
1, 43620, Note_on_c, 2, 52, 100
1, 43620, Note_on_c, 2, 59, 100
1, 43620, Note_on_c, 2, 64, 100
1, 43620, Note_on_c, 3, 38, 100
1, 43625, Note_on_c, 1, 64, 100
1, 43625, Note_on_c, 1, 59, 100
1, 43625, Note_on_c, 1, 52, 100
1, 43680, Note_on_c, 3, 38, 0
1, 43680, Note_on_c, 2, 64, 0
1, 43680, Note_on_c, 6, 40, 0
1, 43680, Note_on_c, 6, 52, 0
1, 43680, Note_on_c, 2, 59, 0
1, 43680, Note_on_c, 2, 68, 0
1, 43680, Note_on_c, 2, 71, 0
1, 43680, Note_on_c, 2, 52, 0
1, 43680, Note_on_c, 2, 52, 100
1, 43680, Note_on_c, 2, 71, 100
1, 43680, Note_on_c, 2, 59, 100
1, 43680, Note_on_c, 2, 68, 100
1, 43680, Note_on_c, 2, 64, 100
1, 43680, Note_on_c, 3, 40, 100
1, 43680, Note_on_c, 6, 52, 100
1, 43680, Note_on_c, 6, 40, 100
1, 43680, Note_on_c, 9, 42, 100
1, 43680, Note_on_c, 9, 36, 100
1, 43695, Note_on_c, 9, 36, 0
1, 43695, Note_on_c, 9, 42, 0
1, 43740, Note_on_c, 6, 64, 0
1, 43740, Note_on_c, 6, 59, 0
1, 43740, Note_on_c, 6, 68, 0
1, 43740, Note_on_c, 6, 69, 100
1, 43740, Note_on_c, 6, 64, 100
1, 43740, Note_on_c, 6, 59, 100
1, 43740, Note_on_c, 9, 38, 100
1, 43745, Note_on_c, 1, 52, 0
1, 43745, Note_on_c, 1, 64, 0
1, 43745, Note_on_c, 1, 59, 0
1, 43745, Note_on_c, 1, 64, 75
1, 43745, Note_on_c, 1, 59, 75
1, 43745, Note_on_c, 1, 52, 75
1, 43755, Note_on_c, 9, 38, 0
1, 43800, Note_on_c, 2, 64, 0
1, 43800, Note_on_c, 2, 68, 0
1, 43800, Note_on_c, 2, 52, 0
1, 43800, Note_on_c, 2, 59, 0
1, 43800, Note_on_c, 2, 71, 0
1, 43800, Note_on_c, 2, 59, 100
1, 43800, Note_on_c, 2, 52, 100
1, 43800, Note_on_c, 2, 68, 100
1, 43800, Note_on_c, 2, 71, 100
1, 43800, Note_on_c, 2, 64, 100
1, 43800, Note_on_c, 9, 42, 100
1, 43805, Note_on_c, 1, 59, 0
1, 43805, Note_on_c, 1, 64, 0
1, 43805, Note_on_c, 1, 52, 0
1, 43805, Note_on_c, 1, 64, 75
1, 43805, Note_on_c, 1, 59, 75
1, 43805, Note_on_c, 1, 52, 75
1, 43815, Note_on_c, 9, 42, 0
1, 43860, Note_on_c, 6, 59, 0
1, 43860, Note_on_c, 2, 64, 0
1, 43860, Note_on_c, 2, 52, 0
1, 43860, Note_on_c, 3, 40, 0
1, 43860, Note_on_c, 2, 71, 0
1, 43860, Note_on_c, 2, 68, 0
1, 43860, Note_on_c, 6, 64, 0
1, 43860, Note_on_c, 2, 59, 0
1, 43860, Note_on_c, 6, 69, 0
1, 43860, Note_on_c, 2, 71, 100
1, 43860, Note_on_c, 2, 68, 100
1, 43860, Note_on_c, 2, 52, 100
1, 43860, Note_on_c, 2, 64, 100
1, 43860, Note_on_c, 2, 59, 100
1, 43860, Note_on_c, 3, 40, 100
1, 43860, Note_on_c, 6, 59, 100
1, 43860, Note_on_c, 9, 36, 100
1, 43865, Note_on_c, 1, 52, 0
1, 43865, Note_on_c, 1, 59, 0
1, 43865, Note_on_c, 1, 64, 0
1, 43865, Note_on_c, 1, 64, 75
1, 43865, Note_on_c, 1, 59, 75
1, 43865, Note_on_c, 1, 52, 75
1, 43875, Note_on_c, 9, 36, 0
1, 43920, Note_on_c, 3, 40, 0
1, 43920, Note_on_c, 6, 40, 0
1, 43920, Note_on_c, 2, 71, 0
1, 43920, Note_on_c, 2, 52, 0
1, 43920, Note_on_c, 6, 52, 0
1, 43920, Note_on_c, 2, 59, 0
1, 43920, Note_on_c, 2, 68, 0
1, 43920, Note_on_c, 2, 64, 0
1, 43920, Note_on_c, 2, 59, 100
1, 43920, Note_on_c, 2, 68, 100
1, 43920, Note_on_c, 2, 64, 100
1, 43920, Note_on_c, 2, 52, 100
1, 43920, Note_on_c, 2, 71, 100
1, 43920, Note_on_c, 3, 40, 100
1, 43920, Note_on_c, 6, 68, 100
1, 43920, Note_on_c, 6, 64, 100
1, 43920, Note_on_c, 6, 52, 100
1, 43920, Note_on_c, 6, 40, 100
1, 43920, Note_on_c, 9, 46, 100
1, 43920, Note_on_c, 9, 38, 100
1, 43925, Note_on_c, 1, 59, 0
1, 43925, Note_on_c, 1, 64, 0
1, 43925, Note_on_c, 1, 52, 0
1, 43925, Note_on_c, 1, 64, 100
1, 43925, Note_on_c, 1, 59, 100
1, 43925, Note_on_c, 1, 52, 100
1, 43935, Note_on_c, 9, 38, 0
1, 43935, Note_on_c, 9, 46, 0
1, 44040, Note_on_c, 2, 68, 0
1, 44040, Note_on_c, 7, 76, 0
1, 44040, Note_on_c, 7, 64, 0
1, 44040, Note_on_c, 7, 80, 0
1, 44040, Note_on_c, 2, 59, 0
1, 44040, Note_on_c, 2, 52, 0
1, 44040, Note_on_c, 7, 59, 0
1, 44040, Note_on_c, 7, 40, 0
1, 44040, Note_on_c, 3, 40, 0
1, 44040, Note_on_c, 2, 64, 0
1, 44040, Note_on_c, 2, 71, 0
1, 44040, Note_on_c, 2, 52, 100
1, 44040, Note_on_c, 2, 59, 100
1, 44040, Note_on_c, 2, 64, 100
1, 44040, Note_on_c, 2, 68, 100
1, 44040, Note_on_c, 2, 71, 100
1, 44040, Note_on_c, 3, 45, 100
1, 44045, Note_on_c, 1, 59, 0
1, 44045, Note_on_c, 1, 64, 0
1, 44045, Note_on_c, 1, 52, 0
1, 44100, Note_on_c, 2, 52, 0
1, 44100, Note_on_c, 2, 59, 0
1, 44100, Note_on_c, 2, 64, 0
1, 44100, Note_on_c, 3, 45, 0
1, 44100, Note_on_c, 2, 68, 0
1, 44100, Note_on_c, 2, 71, 0
1, 44100, Note_on_c, 2, 52, 100
1, 44100, Note_on_c, 2, 71, 100
1, 44100, Note_on_c, 2, 68, 100
1, 44100, Note_on_c, 2, 64, 100
1, 44100, Note_on_c, 2, 59, 100
1, 44100, Note_on_c, 3, 46, 100
1, 44160, Note_on_c, 3, 46, 0
1, 44160, Note_on_c, 2, 68, 0
1, 44160, Note_on_c, 6, 59, 0
1, 44160, Note_on_c, 6, 52, 0
1, 44160, Note_on_c, 6, 64, 0
1, 44160, Note_on_c, 6, 68, 0
1, 44160, Note_on_c, 6, 40, 0
1, 44160, Note_on_c, 2, 64, 0
1, 44160, Note_on_c, 2, 71, 0
1, 44160, Note_on_c, 2, 52, 0
1, 44160, Note_on_c, 2, 59, 0
1, 44160, Note_on_c, 2, 67, 100
1, 44160, Note_on_c, 2, 62, 100
1, 44160, Note_on_c, 2, 52, 100
1, 44160, Note_on_c, 2, 59, 100
1, 44160, Note_on_c, 2, 71, 100
1, 44160, Note_on_c, 3, 47, 100
1, 44160, Note_on_c, 5, 59, 100
1, 44160, Note_on_c, 5, 71, 100
1, 44160, Note_on_c, 6, 71, 100
1, 44160, Note_on_c, 6, 67, 100
1, 44160, Note_on_c, 6, 62, 100
1, 44160, Note_on_c, 6, 55, 100
1, 44160, Note_on_c, 6, 43, 100
1, 44160, Note_on_c, 7, 71, 100
1, 44160, Note_on_c, 7, 67, 100
1, 44160, Note_on_c, 7, 62, 100
1, 44160, Note_on_c, 7, 43, 100
1, 44160, Note_on_c, 9, 42, 100
1, 44160, Note_on_c, 9, 36, 100
1, 44165, Note_on_c, 1, 43, 100
1, 44175, Note_on_c, 9, 36, 0
1, 44175, Note_on_c, 9, 42, 0
1, 44280, Note_on_c, 2, 59, 0
1, 44280, Note_on_c, 5, 71, 0
1, 44280, Note_on_c, 2, 67, 0
1, 44280, Note_on_c, 5, 59, 0
1, 44280, Note_on_c, 2, 52, 0
1, 44280, Note_on_c, 3, 47, 0
1, 44280, Note_on_c, 2, 62, 0
1, 44280, Note_on_c, 2, 71, 0
1, 44280, Note_on_c, 2, 71, 100
1, 44280, Note_on_c, 2, 59, 100
1, 44280, Note_on_c, 2, 52, 100
1, 44280, Note_on_c, 2, 62, 100
1, 44280, Note_on_c, 2, 67, 100
1, 44280, Note_on_c, 3, 45, 100
1, 44280, Note_on_c, 5, 57, 100
1, 44280, Note_on_c, 5, 69, 100
1, 44280, Note_on_c, 9, 42, 100
1, 44295, Note_on_c, 9, 42, 0
1, 44340, Note_on_c, 2, 67, 0
1, 44340, Note_on_c, 2, 62, 0
1, 44340, Note_on_c, 2, 71, 0
1, 44340, Note_on_c, 2, 52, 0
1, 44340, Note_on_c, 2, 59, 0
1, 44340, Note_on_c, 2, 67, 100
1, 44340, Note_on_c, 2, 71, 100
1, 44340, Note_on_c, 2, 52, 100
1, 44340, Note_on_c, 2, 59, 100
1, 44340, Note_on_c, 2, 62, 100
1, 44340, Note_on_c, 9, 36, 100
1, 44355, Note_on_c, 9, 36, 0
1, 44400, Note_on_c, 2, 71, 0
1, 44400, Note_on_c, 5, 57, 0
1, 44400, Note_on_c, 6, 62, 0
1, 44400, Note_on_c, 2, 62, 0
1, 44400, Note_on_c, 7, 71, 0
1, 44400, Note_on_c, 2, 59, 0
1, 44400, Note_on_c, 5, 69, 0
1, 44400, Note_on_c, 2, 52, 0
1, 44400, Note_on_c, 6, 71, 0
1, 44400, Note_on_c, 6, 67, 0
1, 44400, Note_on_c, 2, 67, 0
1, 44400, Note_on_c, 3, 45, 0
1, 44400, Note_on_c, 2, 62, 100
1, 44400, Note_on_c, 2, 52, 100
1, 44400, Note_on_c, 2, 71, 100
1, 44400, Note_on_c, 2, 59, 100
1, 44400, Note_on_c, 2, 67, 100
1, 44400, Note_on_c, 3, 43, 100
1, 44400, Note_on_c, 4, 79, 100
1, 44400, Note_on_c, 5, 55, 100
1, 44400, Note_on_c, 5, 67, 100
1, 44400, Note_on_c, 6, 62, 100
1, 44400, Note_on_c, 7, 74, 100
1, 44400, Note_on_c, 9, 42, 100
1, 44400, Note_on_c, 9, 38, 100
1, 44400, Note_on_c, 12, 79, 100
1, 44415, Note_on_c, 9, 38, 0
1, 44415, Note_on_c, 9, 42, 0
1, 44460, Note_on_c, 4, 79, 0
1, 44460, Note_on_c, 12, 79, 0
1, 44460, Note_on_c, 4, 79, 100
1, 44460, Note_on_c, 12, 79, 100
1, 44520, Note_on_c, 2, 59, 0
1, 44520, Note_on_c, 2, 62, 0
1, 44520, Note_on_c, 7, 74, 0
1, 44520, Note_on_c, 6, 62, 0
1, 44520, Note_on_c, 3, 43, 0
1, 44520, Note_on_c, 2, 71, 0
1, 44520, Note_on_c, 2, 52, 0
1, 44520, Note_on_c, 5, 67, 0
1, 44520, Note_on_c, 2, 67, 0
1, 44520, Note_on_c, 5, 55, 0
1, 44520, Note_on_c, 2, 71, 100
1, 44520, Note_on_c, 2, 52, 100
1, 44520, Note_on_c, 2, 62, 100
1, 44520, Note_on_c, 2, 59, 100
1, 44520, Note_on_c, 2, 67, 100
1, 44520, Note_on_c, 3, 38, 100
1, 44520, Note_on_c, 5, 50, 100
1, 44520, Note_on_c, 5, 62, 100
1, 44520, Note_on_c, 6, 71, 100
1, 44520, Note_on_c, 6, 67, 100
1, 44520, Note_on_c, 6, 62, 100
1, 44520, Note_on_c, 7, 76, 100
1, 44520, Note_on_c, 9, 42, 100
1, 44535, Note_on_c, 9, 42, 0
1, 44580, Note_on_c, 2, 67, 0
1, 44580, Note_on_c, 2, 52, 0
1, 44580, Note_on_c, 2, 71, 0
1, 44580, Note_on_c, 2, 59, 0
1, 44580, Note_on_c, 2, 62, 0
1, 44580, Note_on_c, 2, 71, 100
1, 44580, Note_on_c, 2, 67, 100
1, 44580, Note_on_c, 2, 52, 100
1, 44580, Note_on_c, 2, 62, 100
1, 44580, Note_on_c, 2, 59, 100
1, 44640, Note_on_c, 2, 59, 0
1, 44640, Note_on_c, 7, 76, 0
1, 44640, Note_on_c, 4, 79, 0
1, 44640, Note_on_c, 6, 67, 0
1, 44640, Note_on_c, 6, 62, 0
1, 44640, Note_on_c, 5, 62, 0
1, 44640, Note_on_c, 3, 38, 0
1, 44640, Note_on_c, 6, 43, 0
1, 44640, Note_on_c, 7, 43, 0
1, 44640, Note_on_c, 2, 62, 0
1, 44640, Note_on_c, 12, 79, 0
1, 44640, Note_on_c, 7, 67, 0
1, 44640, Note_on_c, 2, 71, 0
1, 44640, Note_on_c, 2, 67, 0
1, 44640, Note_on_c, 5, 50, 0
1, 44640, Note_on_c, 6, 55, 0
1, 44640, Note_on_c, 2, 52, 0
1, 44640, Note_on_c, 6, 71, 0
1, 44640, Note_on_c, 7, 62, 0
1, 44640, Note_on_c, 2, 66, 100
1, 44640, Note_on_c, 2, 57, 100
1, 44640, Note_on_c, 2, 54, 100
1, 44640, Note_on_c, 2, 47, 100
1, 44640, Note_on_c, 2, 62, 100
1, 44640, Note_on_c, 2, 71, 100
1, 44640, Note_on_c, 3, 42, 100
1, 44640, Note_on_c, 4, 78, 100
1, 44640, Note_on_c, 5, 54, 100
1, 44640, Note_on_c, 5, 66, 100
1, 44640, Note_on_c, 6, 69, 100
1, 44640, Note_on_c, 6, 66, 100
1, 44640, Note_on_c, 6, 62, 100
1, 44640, Note_on_c, 6, 47, 100
1, 44640, Note_on_c, 6, 35, 100
1, 44640, Note_on_c, 7, 59, 100
1, 44640, Note_on_c, 7, 78, 100
1, 44640, Note_on_c, 7, 69, 100
1, 44640, Note_on_c, 7, 42, 100
1, 44640, Note_on_c, 9, 42, 100
1, 44640, Note_on_c, 9, 36, 100
1, 44640, Note_on_c, 12, 78, 100
1, 44645, Note_on_c, 1, 43, 0
1, 44645, Note_on_c, 1, 43, 100
1, 44655, Note_on_c, 9, 36, 0
1, 44655, Note_on_c, 9, 42, 0
1, 44760, Note_on_c, 4, 78, 0
1, 44760, Note_on_c, 2, 54, 0
1, 44760, Note_on_c, 5, 66, 0
1, 44760, Note_on_c, 3, 42, 0
1, 44760, Note_on_c, 2, 66, 0
1, 44760, Note_on_c, 2, 47, 0
1, 44760, Note_on_c, 7, 59, 0
1, 44760, Note_on_c, 5, 54, 0
1, 44760, Note_on_c, 12, 78, 0
1, 44760, Note_on_c, 2, 71, 0
1, 44760, Note_on_c, 2, 57, 0
1, 44760, Note_on_c, 2, 62, 0
1, 44760, Note_on_c, 2, 54, 100
1, 44760, Note_on_c, 2, 57, 100
1, 44760, Note_on_c, 2, 62, 100
1, 44760, Note_on_c, 2, 66, 100
1, 44760, Note_on_c, 2, 47, 100
1, 44760, Note_on_c, 2, 71, 100
1, 44760, Note_on_c, 3, 38, 100
1, 44760, Note_on_c, 4, 76, 100
1, 44760, Note_on_c, 5, 50, 100
1, 44760, Note_on_c, 5, 62, 100
1, 44760, Note_on_c, 7, 61, 100
1, 44760, Note_on_c, 9, 42, 100
1, 44760, Note_on_c, 12, 76, 100
1, 44765, Note_on_c, 1, 59, 100
1, 44775, Note_on_c, 9, 42, 0
1, 44820, Note_on_c, 2, 71, 0
1, 44820, Note_on_c, 2, 54, 0
1, 44820, Note_on_c, 2, 47, 0
1, 44820, Note_on_c, 2, 57, 0
1, 44820, Note_on_c, 2, 66, 0
1, 44820, Note_on_c, 2, 62, 0
1, 44820, Note_on_c, 2, 54, 100
1, 44820, Note_on_c, 2, 66, 100
1, 44820, Note_on_c, 2, 71, 100
1, 44820, Note_on_c, 2, 62, 100
1, 44820, Note_on_c, 2, 57, 100
1, 44820, Note_on_c, 2, 47, 100
1, 44820, Note_on_c, 9, 36, 100
1, 44835, Note_on_c, 9, 36, 0
1, 44880, Note_on_c, 2, 71, 0
1, 44880, Note_on_c, 12, 76, 0
1, 44880, Note_on_c, 7, 61, 0
1, 44880, Note_on_c, 6, 47, 0
1, 44880, Note_on_c, 7, 42, 0
1, 44880, Note_on_c, 5, 50, 0
1, 44880, Note_on_c, 3, 38, 0
1, 44880, Note_on_c, 2, 47, 0
1, 44880, Note_on_c, 2, 54, 0
1, 44880, Note_on_c, 5, 62, 0
1, 44880, Note_on_c, 7, 69, 0
1, 44880, Note_on_c, 2, 57, 0
1, 44880, Note_on_c, 2, 66, 0
1, 44880, Note_on_c, 2, 62, 0
1, 44880, Note_on_c, 7, 78, 0
1, 44880, Note_on_c, 4, 76, 0
1, 44880, Note_on_c, 2, 62, 100
1, 44880, Note_on_c, 2, 47, 100
1, 44880, Note_on_c, 2, 71, 100
1, 44880, Note_on_c, 2, 57, 100
1, 44880, Note_on_c, 2, 66, 100
1, 44880, Note_on_c, 2, 54, 100
1, 44880, Note_on_c, 3, 35, 100
1, 44880, Note_on_c, 4, 74, 100
1, 44880, Note_on_c, 5, 47, 100
1, 44880, Note_on_c, 5, 59, 100
1, 44880, Note_on_c, 6, 47, 100
1, 44880, Note_on_c, 7, 62, 100
1, 44880, Note_on_c, 7, 81, 100
1, 44880, Note_on_c, 7, 78, 100
1, 44880, Note_on_c, 7, 35, 100
1, 44880, Note_on_c, 9, 46, 100
1, 44880, Note_on_c, 9, 38, 100
1, 44880, Note_on_c, 12, 74, 100
1, 44885, Note_on_c, 1, 59, 0
1, 44885, Note_on_c, 1, 62, 100
1, 44895, Note_on_c, 9, 38, 0
1, 44895, Note_on_c, 9, 46, 0
1, 44940, Note_on_c, 6, 62, 0
1, 44940, Note_on_c, 6, 69, 0
1, 44940, Note_on_c, 6, 66, 0
1, 44940, Note_on_c, 6, 69, 100
1, 44940, Note_on_c, 6, 66, 100
1, 44940, Note_on_c, 6, 62, 100
1, 45000, Note_on_c, 5, 59, 0
1, 45000, Note_on_c, 2, 47, 0
1, 45000, Note_on_c, 7, 62, 0
1, 45000, Note_on_c, 2, 71, 0
1, 45000, Note_on_c, 2, 66, 0
1, 45000, Note_on_c, 2, 57, 0
1, 45000, Note_on_c, 12, 74, 0
1, 45000, Note_on_c, 3, 35, 0
1, 45000, Note_on_c, 4, 74, 0
1, 45000, Note_on_c, 2, 62, 0
1, 45000, Note_on_c, 2, 54, 0
1, 45000, Note_on_c, 5, 47, 0
1, 45000, Note_on_c, 2, 52, 100
1, 45000, Note_on_c, 2, 59, 100
1, 45000, Note_on_c, 2, 62, 100
1, 45000, Note_on_c, 2, 66, 100
1, 45000, Note_on_c, 2, 71, 100
1, 45000, Note_on_c, 3, 38, 100
1, 45000, Note_on_c, 4, 76, 100
1, 45000, Note_on_c, 5, 50, 100
1, 45000, Note_on_c, 5, 62, 100
1, 45000, Note_on_c, 7, 64, 100
1, 45000, Note_on_c, 12, 76, 100
1, 45060, Note_on_c, 12, 76, 0
1, 45060, Note_on_c, 4, 76, 0
1, 45060, Note_on_c, 2, 71, 0
1, 45060, Note_on_c, 2, 66, 0
1, 45060, Note_on_c, 2, 52, 0
1, 45060, Note_on_c, 2, 62, 0
1, 45060, Note_on_c, 2, 59, 0
1, 45060, Note_on_c, 2, 66, 100
1, 45060, Note_on_c, 2, 71, 100
1, 45060, Note_on_c, 2, 52, 100
1, 45060, Note_on_c, 2, 62, 100
1, 45060, Note_on_c, 2, 59, 100
1, 45060, Note_on_c, 4, 76, 100
1, 45060, Note_on_c, 12, 76, 100
1, 45120, Note_on_c, 2, 59, 0
1, 45120, Note_on_c, 2, 62, 0
1, 45120, Note_on_c, 2, 52, 0
1, 45120, Note_on_c, 2, 66, 0
1, 45120, Note_on_c, 5, 50, 0
1, 45120, Note_on_c, 6, 66, 0
1, 45120, Note_on_c, 7, 35, 0
1, 45120, Note_on_c, 6, 69, 0
1, 45120, Note_on_c, 5, 62, 0
1, 45120, Note_on_c, 7, 78, 0
1, 45120, Note_on_c, 2, 71, 0
1, 45120, Note_on_c, 7, 81, 0
1, 45120, Note_on_c, 6, 35, 0
1, 45120, Note_on_c, 7, 64, 0
1, 45120, Note_on_c, 6, 62, 0
1, 45120, Note_on_c, 6, 47, 0
1, 45120, Note_on_c, 3, 38, 0
1, 45120, Note_on_c, 2, 52, 100
1, 45120, Note_on_c, 2, 71, 100
1, 45120, Note_on_c, 2, 59, 100
1, 45120, Note_on_c, 2, 64, 100
1, 45120, Note_on_c, 2, 68, 100
1, 45120, Note_on_c, 3, 40, 100
1, 45120, Note_on_c, 5, 52, 100
1, 45120, Note_on_c, 5, 64, 100
1, 45120, Note_on_c, 6, 68, 100
1, 45120, Note_on_c, 6, 64, 100
1, 45120, Note_on_c, 6, 59, 100
1, 45120, Note_on_c, 6, 52, 100
1, 45120, Note_on_c, 6, 40, 100
1, 45120, Note_on_c, 7, 80, 100
1, 45120, Note_on_c, 7, 76, 100
1, 45120, Note_on_c, 7, 64, 100
1, 45120, Note_on_c, 7, 59, 100
1, 45120, Note_on_c, 7, 40, 100
1, 45120, Note_on_c, 9, 42, 100
1, 45120, Note_on_c, 9, 36, 100
1, 45125, Note_on_c, 1, 62, 0
1, 45125, Note_on_c, 1, 43, 0
1, 45125, Note_on_c, 1, 40, 100
1, 45135, Note_on_c, 9, 42, 0
1, 45135, Note_on_c, 9, 36, 0
1, 45240, Note_on_c, 2, 68, 0
1, 45240, Note_on_c, 2, 64, 0
1, 45240, Note_on_c, 2, 52, 0
1, 45240, Note_on_c, 2, 59, 0
1, 45240, Note_on_c, 2, 71, 0
1, 45240, Note_on_c, 2, 68, 100
1, 45240, Note_on_c, 2, 64, 100
1, 45240, Note_on_c, 2, 59, 100
1, 45240, Note_on_c, 2, 71, 100
1, 45240, Note_on_c, 2, 52, 100
1, 45240, Note_on_c, 9, 42, 100
1, 45255, Note_on_c, 9, 42, 0
1, 45300, Note_on_c, 2, 52, 0
1, 45300, Note_on_c, 2, 68, 0
1, 45300, Note_on_c, 12, 76, 0
1, 45300, Note_on_c, 3, 40, 0
1, 45300, Note_on_c, 2, 71, 0
1, 45300, Note_on_c, 2, 64, 0
1, 45300, Note_on_c, 2, 59, 0
1, 45300, Note_on_c, 4, 76, 0
1, 45300, Note_on_c, 2, 71, 100
1, 45300, Note_on_c, 2, 64, 100
1, 45300, Note_on_c, 2, 52, 100
1, 45300, Note_on_c, 2, 59, 100
1, 45300, Note_on_c, 2, 68, 100
1, 45300, Note_on_c, 3, 40, 100
1, 45300, Note_on_c, 4, 78, 100
1, 45300, Note_on_c, 9, 36, 100
1, 45300, Note_on_c, 12, 78, 100
1, 45315, Note_on_c, 9, 36, 0
1, 45360, Note_on_c, 3, 40, 0
1, 45360, Note_on_c, 2, 59, 0
1, 45360, Note_on_c, 6, 40, 0
1, 45360, Note_on_c, 5, 64, 0
1, 45360, Note_on_c, 2, 52, 0
1, 45360, Note_on_c, 2, 64, 0
1, 45360, Note_on_c, 2, 68, 0
1, 45360, Note_on_c, 5, 52, 0
1, 45360, Note_on_c, 2, 71, 0
1, 45360, Note_on_c, 6, 52, 0
1, 45360, Note_on_c, 2, 52, 100
1, 45360, Note_on_c, 2, 71, 100
1, 45360, Note_on_c, 2, 64, 100
1, 45360, Note_on_c, 2, 59, 100
1, 45360, Note_on_c, 2, 68, 100
1, 45360, Note_on_c, 3, 40, 100
1, 45360, Note_on_c, 6, 52, 100
1, 45360, Note_on_c, 6, 40, 100
1, 45360, Note_on_c, 9, 42, 100
1, 45360, Note_on_c, 9, 38, 100
1, 45375, Note_on_c, 9, 38, 0
1, 45375, Note_on_c, 9, 42, 0
1, 45480, Note_on_c, 12, 78, 0
1, 45480, Note_on_c, 2, 59, 0
1, 45480, Note_on_c, 4, 78, 0
1, 45480, Note_on_c, 3, 40, 0
1, 45480, Note_on_c, 2, 68, 0
1, 45480, Note_on_c, 2, 52, 0
1, 45480, Note_on_c, 6, 64, 0
1, 45480, Note_on_c, 6, 68, 0
1, 45480, Note_on_c, 2, 64, 0
1, 45480, Note_on_c, 6, 59, 0
1, 45480, Note_on_c, 2, 71, 0
1, 45480, Note_on_c, 2, 71, 100
1, 45480, Note_on_c, 2, 52, 100
1, 45480, Note_on_c, 2, 68, 100
1, 45480, Note_on_c, 2, 59, 100
1, 45480, Note_on_c, 2, 64, 100
1, 45480, Note_on_c, 3, 35, 100
1, 45480, Note_on_c, 6, 68, 100
1, 45480, Note_on_c, 6, 64, 100
1, 45480, Note_on_c, 6, 59, 100
1, 45480, Note_on_c, 9, 42, 100
1, 45485, Note_on_c, 1, 40, 0
1, 45495, Note_on_c, 9, 42, 0
1, 45540, Note_on_c, 2, 68, 0
1, 45540, Note_on_c, 2, 52, 0
1, 45540, Note_on_c, 2, 71, 0
1, 45540, Note_on_c, 3, 35, 0
1, 45540, Note_on_c, 2, 59, 0
1, 45540, Note_on_c, 2, 64, 0
1, 45540, Note_on_c, 2, 59, 100
1, 45540, Note_on_c, 2, 64, 100
1, 45540, Note_on_c, 2, 52, 100
1, 45540, Note_on_c, 2, 71, 100
1, 45540, Note_on_c, 2, 68, 100
1, 45540, Note_on_c, 3, 38, 100
1, 45545, Note_on_c, 1, 64, 100
1, 45545, Note_on_c, 1, 59, 100
1, 45545, Note_on_c, 1, 52, 100
1, 45600, Note_on_c, 3, 38, 0
1, 45600, Note_on_c, 2, 68, 0
1, 45600, Note_on_c, 6, 40, 0
1, 45600, Note_on_c, 6, 52, 0
1, 45600, Note_on_c, 2, 71, 0
1, 45600, Note_on_c, 2, 64, 0
1, 45600, Note_on_c, 2, 59, 0
1, 45600, Note_on_c, 2, 52, 0
1, 45600, Note_on_c, 2, 52, 100
1, 45600, Note_on_c, 2, 71, 100
1, 45600, Note_on_c, 2, 59, 100
1, 45600, Note_on_c, 2, 64, 100
1, 45600, Note_on_c, 2, 68, 100
1, 45600, Note_on_c, 3, 40, 100
1, 45600, Note_on_c, 6, 52, 100
1, 45600, Note_on_c, 6, 40, 100
1, 45600, Note_on_c, 9, 42, 100
1, 45600, Note_on_c, 9, 36, 100
1, 45615, Note_on_c, 9, 36, 0
1, 45615, Note_on_c, 9, 42, 0
1, 45660, Note_on_c, 6, 64, 0
1, 45660, Note_on_c, 6, 59, 0
1, 45660, Note_on_c, 6, 68, 0
1, 45660, Note_on_c, 6, 69, 100
1, 45660, Note_on_c, 6, 64, 100
1, 45660, Note_on_c, 6, 59, 100
1, 45660, Note_on_c, 9, 38, 100
1, 45665, Note_on_c, 1, 52, 0
1, 45665, Note_on_c, 1, 64, 0
1, 45665, Note_on_c, 1, 59, 0
1, 45665, Note_on_c, 1, 64, 75
1, 45665, Note_on_c, 1, 59, 75
1, 45665, Note_on_c, 1, 52, 75
1, 45675, Note_on_c, 9, 38, 0
1, 45720, Note_on_c, 2, 68, 0
1, 45720, Note_on_c, 2, 64, 0
1, 45720, Note_on_c, 2, 52, 0
1, 45720, Note_on_c, 2, 59, 0
1, 45720, Note_on_c, 2, 71, 0
1, 45720, Note_on_c, 2, 68, 100
1, 45720, Note_on_c, 2, 64, 100
1, 45720, Note_on_c, 2, 59, 100
1, 45720, Note_on_c, 2, 71, 100
1, 45720, Note_on_c, 2, 52, 100
1, 45720, Note_on_c, 9, 42, 100
1, 45725, Note_on_c, 1, 59, 0
1, 45725, Note_on_c, 1, 64, 0
1, 45725, Note_on_c, 1, 52, 0
1, 45725, Note_on_c, 1, 64, 75
1, 45725, Note_on_c, 1, 59, 75
1, 45725, Note_on_c, 1, 52, 75
1, 45735, Note_on_c, 9, 42, 0
1, 45780, Note_on_c, 6, 59, 0
1, 45780, Note_on_c, 2, 52, 0
1, 45780, Note_on_c, 2, 64, 0
1, 45780, Note_on_c, 3, 40, 0
1, 45780, Note_on_c, 2, 71, 0
1, 45780, Note_on_c, 2, 59, 0
1, 45780, Note_on_c, 6, 64, 0
1, 45780, Note_on_c, 2, 68, 0
1, 45780, Note_on_c, 6, 69, 0
1, 45780, Note_on_c, 2, 71, 100
1, 45780, Note_on_c, 2, 64, 100
1, 45780, Note_on_c, 2, 52, 100
1, 45780, Note_on_c, 2, 59, 100
1, 45780, Note_on_c, 2, 68, 100
1, 45780, Note_on_c, 3, 40, 100
1, 45780, Note_on_c, 6, 59, 100
1, 45780, Note_on_c, 9, 36, 100
1, 45785, Note_on_c, 1, 52, 0
1, 45785, Note_on_c, 1, 59, 0
1, 45785, Note_on_c, 1, 64, 0
1, 45785, Note_on_c, 1, 64, 75
1, 45785, Note_on_c, 1, 59, 75
1, 45785, Note_on_c, 1, 52, 75
1, 45795, Note_on_c, 9, 36, 0
1, 45840, Note_on_c, 3, 40, 0
1, 45840, Note_on_c, 6, 40, 0
1, 45840, Note_on_c, 2, 71, 0
1, 45840, Note_on_c, 2, 52, 0
1, 45840, Note_on_c, 6, 52, 0
1, 45840, Note_on_c, 2, 68, 0
1, 45840, Note_on_c, 2, 64, 0
1, 45840, Note_on_c, 2, 59, 0
1, 45840, Note_on_c, 2, 52, 100
1, 45840, Note_on_c, 2, 71, 100
1, 45840, Note_on_c, 2, 64, 100
1, 45840, Note_on_c, 2, 59, 100
1, 45840, Note_on_c, 2, 68, 100
1, 45840, Note_on_c, 3, 40, 100
1, 45840, Note_on_c, 6, 68, 100
1, 45840, Note_on_c, 6, 64, 100
1, 45840, Note_on_c, 6, 52, 100
1, 45840, Note_on_c, 6, 40, 100
1, 45840, Note_on_c, 9, 46, 100
1, 45840, Note_on_c, 9, 38, 100
1, 45845, Note_on_c, 1, 59, 0
1, 45845, Note_on_c, 1, 64, 0
1, 45845, Note_on_c, 1, 52, 0
1, 45845, Note_on_c, 1, 64, 100
1, 45845, Note_on_c, 1, 59, 100
1, 45845, Note_on_c, 1, 52, 100
1, 45855, Note_on_c, 9, 38, 0
1, 45855, Note_on_c, 9, 46, 0
1, 45960, Note_on_c, 2, 71, 0
1, 45960, Note_on_c, 7, 64, 0
1, 45960, Note_on_c, 7, 80, 0
1, 45960, Note_on_c, 7, 76, 0
1, 45960, Note_on_c, 2, 52, 0
1, 45960, Note_on_c, 2, 59, 0
1, 45960, Note_on_c, 7, 40, 0
1, 45960, Note_on_c, 7, 59, 0
1, 45960, Note_on_c, 3, 40, 0
1, 45960, Note_on_c, 2, 64, 0
1, 45960, Note_on_c, 2, 68, 0
1, 45960, Note_on_c, 2, 71, 100
1, 45960, Note_on_c, 2, 52, 100
1, 45960, Note_on_c, 2, 68, 100
1, 45960, Note_on_c, 2, 59, 100
1, 45960, Note_on_c, 2, 64, 100
1, 45960, Note_on_c, 3, 39, 100
1, 45965, Note_on_c, 1, 59, 0
1, 45965, Note_on_c, 1, 64, 0
1, 45965, Note_on_c, 1, 52, 0
1, 46020, Note_on_c, 2, 71, 0
1, 46020, Note_on_c, 2, 52, 0
1, 46020, Note_on_c, 2, 68, 0
1, 46020, Note_on_c, 2, 64, 0
1, 46020, Note_on_c, 2, 59, 0
1, 46020, Note_on_c, 2, 59, 100
1, 46020, Note_on_c, 2, 64, 100
1, 46020, Note_on_c, 2, 52, 100
1, 46020, Note_on_c, 2, 71, 100
1, 46020, Note_on_c, 2, 68, 100
1, 46025, Note_on_c, 1, 64, 100
1, 46025, Note_on_c, 1, 59, 100
1, 46025, Note_on_c, 1, 52, 100
1, 46080, Note_on_c, 2, 68, 0
1, 46080, Note_on_c, 2, 71, 0
1, 46080, Note_on_c, 2, 59, 0
1, 46080, Note_on_c, 6, 64, 0
1, 46080, Note_on_c, 2, 64, 0
1, 46080, Note_on_c, 6, 59, 0
1, 46080, Note_on_c, 6, 52, 0
1, 46080, Note_on_c, 2, 52, 0
1, 46080, Note_on_c, 6, 40, 0
1, 46080, Note_on_c, 6, 68, 0
1, 46080, Note_on_c, 3, 39, 0
1, 46080, Note_on_c, 0, 62, 110
1, 46080, Note_on_c, 0, 57, 110
1, 46080, Note_on_c, 0, 50, 110
1, 46080, Note_on_c, 2, 69, 100
1, 46080, Note_on_c, 2, 66, 100
1, 46080, Note_on_c, 2, 62, 100
1, 46080, Note_on_c, 2, 57, 100
1, 46080, Note_on_c, 2, 50, 100
1, 46080, Note_on_c, 3, 38, 100
1, 46080, Note_on_c, 6, 66, 100
1, 46080, Note_on_c, 6, 62, 100
1, 46080, Note_on_c, 6, 57, 100
1, 46080, Note_on_c, 6, 50, 100
1, 46080, Note_on_c, 6, 38, 100
1, 46080, Note_on_c, 7, 62, 120
1, 46080, Note_on_c, 7, 50, 120
1, 46080, Note_on_c, 9, 47, 100
1, 46080, Note_on_c, 9, 42, 100
1, 46080, Note_on_c, 11, 74, 100
1, 46080, Note_on_c, 11, 69, 100
1, 46080, Note_on_c, 11, 62, 100
1, 46085, Note_on_c, 1, 64, 0
1, 46085, Note_on_c, 1, 52, 0
1, 46085, Note_on_c, 1, 59, 0
1, 46085, Note_on_c, 1, 62, 110
1, 46085, Note_on_c, 1, 57, 110
1, 46085, Note_on_c, 1, 50, 110
1, 46095, Note_on_c, 9, 42, 0
1, 46095, Note_on_c, 9, 47, 0
1, 46140, Note_on_c, 7, 50, 0
1, 46140, Note_on_c, 7, 62, 0
1, 46140, Note_on_c, 7, 62, 120
1, 46140, Note_on_c, 7, 50, 120
1, 46140, Note_on_c, 9, 47, 100
1, 46155, Note_on_c, 9, 47, 0
1, 46200, Note_on_c, 2, 62, 0
1, 46200, Note_on_c, 2, 57, 0
1, 46200, Note_on_c, 7, 50, 0
1, 46200, Note_on_c, 7, 62, 0
1, 46200, Note_on_c, 2, 50, 0
1, 46200, Note_on_c, 2, 66, 0
1, 46200, Note_on_c, 2, 69, 0
1, 46200, Note_on_c, 4, 74, 100
1, 46200, Note_on_c, 9, 47, 100
1, 46200, Note_on_c, 12, 74, 100
1, 46215, Note_on_c, 9, 47, 0
1, 46257, Pitch_bend_c, 0, 8320
1, 46257, Pitch_bend_c, 11, 8320
1, 46260, Note_on_c, 9, 48, 100
1, 46262, Pitch_bend_c, 0, 8192
1, 46262, Pitch_bend_c, 11, 8192
1, 46267, Pitch_bend_c, 1, 8192
1, 46275, Note_on_c, 9, 48, 0
1, 46277, Pitch_bend_c, 0, 8064
1, 46277, Pitch_bend_c, 11, 8064
1, 46282, Pitch_bend_c, 1, 8064
1, 46292, Pitch_bend_c, 0, 7936
1, 46292, Pitch_bend_c, 11, 7936
1, 46297, Pitch_bend_c, 1, 7936
1, 46307, Pitch_bend_c, 0, 7808
1, 46307, Pitch_bend_c, 11, 7808
1, 46312, Pitch_bend_c, 1, 7808
1, 46320, Note_on_c, 0, 62, 0
1, 46320, Note_on_c, 12, 74, 0
1, 46320, Note_on_c, 4, 74, 0
1, 46320, Note_on_c, 0, 57, 0
1, 46320, Note_on_c, 0, 50, 0
1, 46320, Pitch_bend_c, 0, 7680
1, 46320, Note_on_c, 4, 74, 100
1, 46320, Note_on_c, 9, 47, 100
1, 46320, Pitch_bend_c, 11, 7680
1, 46320, Note_on_c, 12, 74, 100
1, 46320, Note_on_c, 13, 62, 65
1, 46320, Note_on_c, 13, 57, 65
1, 46320, Note_on_c, 13, 50, 65
1, 46320, Note_on_c, 14, 62, 100
1, 46320, Note_on_c, 14, 57, 100
1, 46320, Note_on_c, 14, 50, 100
1, 46325, Note_on_c, 1, 62, 0
1, 46325, Note_on_c, 1, 57, 0
1, 46325, Note_on_c, 1, 50, 0
1, 46325, Pitch_bend_c, 1, 7680
1, 46335, Note_on_c, 9, 47, 0
1, 46335, Pitch_bend_c, 0, 7552
1, 46335, Pitch_bend_c, 11, 7552
1, 46340, Pitch_bend_c, 1, 7552
1, 46350, Pitch_bend_c, 0, 7424
1, 46350, Pitch_bend_c, 11, 7424
1, 46355, Pitch_bend_c, 1, 7424
1, 46365, Pitch_bend_c, 0, 7296
1, 46365, Pitch_bend_c, 11, 7296
1, 46370, Pitch_bend_c, 0, 6912
1, 46370, Pitch_bend_c, 1, 7296
1, 46370, Pitch_bend_c, 11, 6912
1, 46375, Pitch_bend_c, 1, 6912
1, 46380, Note_on_c, 14, 62, 0
1, 46380, Note_on_c, 13, 62, 0
1, 46380, Note_on_c, 13, 50, 0
1, 46380, Note_on_c, 14, 50, 0
1, 46380, Note_on_c, 14, 57, 0
1, 46380, Note_on_c, 13, 57, 0
1, 46380, Note_on_c, 9, 47, 100
1, 46380, Note_on_c, 13, 62, 65
1, 46380, Note_on_c, 13, 57, 65
1, 46380, Note_on_c, 13, 50, 65
1, 46380, Note_on_c, 14, 62, 100
1, 46380, Note_on_c, 14, 57, 100
1, 46380, Note_on_c, 14, 50, 100
1, 46392, Pitch_bend_c, 0, 6656
1, 46392, Pitch_bend_c, 11, 6656
1, 46395, Note_on_c, 9, 47, 0
1, 46397, Pitch_bend_c, 0, 6528
1, 46397, Pitch_bend_c, 1, 6656
1, 46397, Pitch_bend_c, 11, 6528
1, 46400, Pitch_bend_c, 0, 6400
1, 46400, Pitch_bend_c, 11, 6400
1, 46402, Pitch_bend_c, 1, 6528
1, 46405, Pitch_bend_c, 0, 6272
1, 46405, Pitch_bend_c, 1, 6400
1, 46405, Pitch_bend_c, 11, 6272
1, 46410, Pitch_bend_c, 1, 6272
1, 46415, Pitch_bend_c, 0, 6144
1, 46415, Pitch_bend_c, 11, 6144
1, 46417, Pitch_bend_c, 0, 6016
1, 46417, Pitch_bend_c, 11, 6016
1, 46420, Pitch_bend_c, 1, 6144
1, 46422, Pitch_bend_c, 0, 5888
1, 46422, Pitch_bend_c, 1, 6016
1, 46422, Pitch_bend_c, 11, 5888
1, 46427, Pitch_bend_c, 1, 5888
1, 46440, Note_on_c, 14, 50, 0
1, 46440, Note_on_c, 14, 57, 0
1, 46440, Note_on_c, 14, 62, 0
1, 46440, Note_on_c, 13, 62, 0
1, 46440, Note_on_c, 13, 50, 0
1, 46440, Note_on_c, 4, 74, 0
1, 46440, Note_on_c, 12, 74, 0
1, 46440, Note_on_c, 13, 57, 0
1, 46440, Pitch_bend_c, 0, 5760
1, 46440, Note_on_c, 4, 69, 100
1, 46440, Note_on_c, 7, 62, 120
1, 46440, Note_on_c, 7, 50, 120
1, 46440, Note_on_c, 9, 48, 100
1, 46440, Pitch_bend_c, 11, 5760
1, 46440, Note_on_c, 12, 69, 100
1, 46440, Note_on_c, 13, 62, 65
1, 46440, Note_on_c, 13, 57, 65
1, 46440, Note_on_c, 13, 50, 65
1, 46440, Note_on_c, 14, 62, 100
1, 46440, Note_on_c, 14, 57, 100
1, 46440, Note_on_c, 14, 50, 100
1, 46445, Pitch_bend_c, 1, 5760
1, 46455, Note_on_c, 9, 48, 0
1, 46462, Pitch_bend_c, 0, 8192
1, 46462, Pitch_bend_c, 11, 8192
1, 46467, Pitch_bend_c, 1, 8192
1, 46500, Note_on_c, 14, 50, 0
1, 46500, Note_on_c, 13, 57, 0
1, 46500, Note_on_c, 14, 62, 0
1, 46500, Note_on_c, 4, 69, 0
1, 46500, Note_on_c, 13, 50, 0
1, 46500, Note_on_c, 7, 50, 0
1, 46500, Note_on_c, 14, 57, 0
1, 46500, Note_on_c, 13, 62, 0
1, 46500, Note_on_c, 7, 62, 0
1, 46500, Note_on_c, 12, 69, 0
1, 46500, Note_on_c, 4, 69, 100
1, 46500, Note_on_c, 7, 61, 120
1, 46500, Note_on_c, 7, 49, 120
1, 46500, Note_on_c, 9, 47, 100
1, 46500, Note_on_c, 12, 69, 100
1, 46500, Note_on_c, 13, 62, 65
1, 46500, Note_on_c, 13, 57, 65
1, 46500, Note_on_c, 13, 50, 65
1, 46500, Note_on_c, 14, 62, 100
1, 46500, Note_on_c, 14, 57, 100
1, 46500, Note_on_c, 14, 50, 100
1, 46515, Note_on_c, 9, 47, 0
1, 46560, Note_on_c, 14, 50, 0
1, 46560, Note_on_c, 13, 57, 0
1, 46560, Note_on_c, 14, 62, 0
1, 46560, Note_on_c, 4, 69, 0
1, 46560, Note_on_c, 13, 50, 0
1, 46560, Note_on_c, 7, 49, 0
1, 46560, Note_on_c, 14, 57, 0
1, 46560, Note_on_c, 13, 62, 0
1, 46560, Note_on_c, 7, 61, 0
1, 46560, Note_on_c, 12, 69, 0
1, 46560, Note_on_c, 4, 78, 100
1, 46560, Note_on_c, 7, 48, 120
1, 46560, Note_on_c, 7, 60, 120
1, 46560, Note_on_c, 9, 47, 100
1, 46560, Note_on_c, 11, 74, 15
1, 46560, Note_on_c, 11, 69, 15
1, 46560, Note_on_c, 11, 62, 15
1, 46560, Note_on_c, 12, 78, 100
1, 46560, Note_on_c, 13, 62, 65
1, 46560, Note_on_c, 13, 57, 65
1, 46560, Note_on_c, 13, 50, 65
1, 46560, Note_on_c, 14, 62, 100
1, 46560, Note_on_c, 14, 57, 100
1, 46560, Note_on_c, 14, 50, 100
1, 46575, Note_on_c, 9, 47, 0
1, 46620, Note_on_c, 13, 50, 0
1, 46620, Note_on_c, 11, 74, 0
1, 46620, Note_on_c, 11, 69, 0
1, 46620, Note_on_c, 14, 50, 0
1, 46620, Note_on_c, 13, 62, 0
1, 46620, Note_on_c, 12, 78, 0
1, 46620, Note_on_c, 4, 78, 0
1, 46620, Note_on_c, 14, 57, 0
1, 46620, Note_on_c, 13, 57, 0
1, 46620, Note_on_c, 14, 62, 0
1, 46620, Note_on_c, 11, 62, 0
1, 46620, Note_on_c, 7, 60, 0
1, 46620, Note_on_c, 7, 48, 0
1, 46620, Note_on_c, 4, 78, 100
1, 46620, Note_on_c, 7, 47, 120
1, 46620, Note_on_c, 7, 59, 120
1, 46620, Note_on_c, 9, 45, 100
1, 46620, Note_on_c, 11, 74, 15
1, 46620, Note_on_c, 11, 69, 15
1, 46620, Note_on_c, 11, 62, 15
1, 46620, Note_on_c, 12, 78, 100
1, 46620, Note_on_c, 13, 62, 65
1, 46620, Note_on_c, 13, 57, 65
1, 46620, Note_on_c, 13, 50, 65
1, 46620, Note_on_c, 14, 62, 100
1, 46620, Note_on_c, 14, 57, 100
1, 46620, Note_on_c, 14, 50, 100
1, 46635, Note_on_c, 9, 45, 0
1, 46680, Note_on_c, 13, 50, 0
1, 46680, Note_on_c, 14, 50, 0
1, 46680, Note_on_c, 11, 74, 0
1, 46680, Note_on_c, 13, 62, 0
1, 46680, Note_on_c, 11, 62, 0
1, 46680, Note_on_c, 14, 57, 0
1, 46680, Note_on_c, 13, 57, 0
1, 46680, Note_on_c, 14, 62, 0
1, 46680, Note_on_c, 7, 59, 0
1, 46680, Note_on_c, 7, 47, 0
1, 46680, Note_on_c, 11, 69, 0
1, 46680, Note_on_c, 7, 57, 120
1, 46680, Note_on_c, 7, 46, 120
1, 46680, Note_on_c, 9, 47, 100
1, 46680, Note_on_c, 11, 74, 15
1, 46680, Note_on_c, 11, 69, 15
1, 46680, Note_on_c, 11, 62, 15
1, 46680, Note_on_c, 13, 62, 65
1, 46680, Note_on_c, 13, 57, 65
1, 46680, Note_on_c, 13, 50, 65
1, 46680, Note_on_c, 14, 62, 100
1, 46680, Note_on_c, 14, 57, 100
1, 46680, Note_on_c, 14, 50, 100
1, 46695, Note_on_c, 9, 47, 0
1, 46740, Note_on_c, 13, 50, 0
1, 46740, Note_on_c, 14, 50, 0
1, 46740, Note_on_c, 12, 78, 0
1, 46740, Note_on_c, 13, 62, 0
1, 46740, Note_on_c, 4, 78, 0
1, 46740, Note_on_c, 14, 57, 0
1, 46740, Note_on_c, 13, 57, 0
1, 46740, Note_on_c, 14, 62, 0
1, 46740, Note_on_c, 7, 46, 0
1, 46740, Note_on_c, 11, 69, 0
1, 46740, Note_on_c, 11, 62, 0
1, 46740, Note_on_c, 11, 74, 0
1, 46740, Note_on_c, 7, 57, 0
1, 46740, Note_on_c, 4, 76, 100
1, 46740, Note_on_c, 7, 45, 120
1, 46740, Note_on_c, 7, 56, 120
1, 46740, Note_on_c, 9, 47, 100
1, 46740, Note_on_c, 11, 74, 15
1, 46740, Note_on_c, 11, 69, 15
1, 46740, Note_on_c, 11, 62, 15
1, 46740, Note_on_c, 12, 76, 100
1, 46740, Note_on_c, 13, 62, 65
1, 46740, Note_on_c, 13, 57, 65
1, 46740, Note_on_c, 13, 50, 65
1, 46740, Note_on_c, 14, 62, 100
1, 46740, Note_on_c, 14, 57, 100
1, 46740, Note_on_c, 14, 50, 100
1, 46755, Note_on_c, 9, 47, 0
1, 46800, Note_on_c, 13, 50, 0
1, 46800, Note_on_c, 14, 50, 0
1, 46800, Note_on_c, 11, 62, 0
1, 46800, Note_on_c, 13, 62, 0
1, 46800, Note_on_c, 11, 62, 0
1, 46800, Note_on_c, 11, 69, 0
1, 46800, Note_on_c, 14, 57, 0
1, 46800, Note_on_c, 13, 57, 0
1, 46800, Note_on_c, 7, 56, 0
1, 46800, Note_on_c, 14, 62, 0
1, 46800, Note_on_c, 11, 74, 0
1, 46800, Note_on_c, 11, 69, 0
1, 46800, Note_on_c, 7, 45, 0
1, 46800, Note_on_c, 11, 74, 0
1, 46800, Note_on_c, 7, 55, 120
1, 46800, Note_on_c, 7, 44, 120
1, 46800, Note_on_c, 9, 45, 100
1, 46800, Note_on_c, 11, 74, 15
1, 46800, Note_on_c, 11, 69, 15
1, 46800, Note_on_c, 11, 62, 15
1, 46800, Note_on_c, 13, 62, 65
1, 46800, Note_on_c, 13, 57, 65
1, 46800, Note_on_c, 13, 50, 65
1, 46800, Note_on_c, 14, 62, 100
1, 46800, Note_on_c, 14, 57, 100
1, 46800, Note_on_c, 14, 50, 100
1, 46815, Note_on_c, 9, 45, 0
1, 46860, Note_on_c, 14, 50, 0
1, 46860, Note_on_c, 13, 57, 0
1, 46860, Note_on_c, 14, 62, 0
1, 46860, Note_on_c, 7, 44, 0
1, 46860, Note_on_c, 4, 76, 0
1, 46860, Note_on_c, 11, 69, 0
1, 46860, Note_on_c, 13, 50, 0
1, 46860, Note_on_c, 14, 57, 0
1, 46860, Note_on_c, 7, 55, 0
1, 46860, Note_on_c, 12, 76, 0
1, 46860, Note_on_c, 13, 62, 0
1, 46860, Note_on_c, 11, 74, 0
1, 46860, Note_on_c, 11, 62, 0
1, 46860, Note_on_c, 4, 74, 100
1, 46860, Note_on_c, 7, 54, 120
1, 46860, Note_on_c, 7, 43, 120
1, 46860, Note_on_c, 9, 47, 100
1, 46860, Note_on_c, 11, 74, 15
1, 46860, Note_on_c, 11, 69, 15
1, 46860, Note_on_c, 11, 62, 15
1, 46860, Note_on_c, 12, 74, 100
1, 46860, Note_on_c, 13, 62, 65
1, 46860, Note_on_c, 13, 57, 65
1, 46860, Note_on_c, 13, 50, 65
1, 46860, Note_on_c, 14, 62, 100
1, 46860, Note_on_c, 14, 57, 100
1, 46860, Note_on_c, 14, 50, 100
1, 46875, Note_on_c, 9, 47, 0
1, 46920, Note_on_c, 14, 50, 0
1, 46920, Note_on_c, 13, 57, 0
1, 46920, Note_on_c, 14, 62, 0
1, 46920, Note_on_c, 11, 74, 0
1, 46920, Note_on_c, 4, 74, 0
1, 46920, Note_on_c, 11, 62, 0
1, 46920, Note_on_c, 13, 50, 0
1, 46920, Note_on_c, 14, 57, 0
1, 46920, Note_on_c, 7, 43, 0
1, 46920, Note_on_c, 7, 54, 0
1, 46920, Note_on_c, 13, 62, 0
1, 46920, Note_on_c, 11, 69, 0
1, 46920, Note_on_c, 12, 74, 0
1, 46920, Note_on_c, 4, 76, 100
1, 46920, Note_on_c, 7, 42, 120
1, 46920, Note_on_c, 7, 54, 120
1, 46920, Note_on_c, 9, 47, 100
1, 46920, Note_on_c, 11, 74, 15
1, 46920, Note_on_c, 11, 69, 15
1, 46920, Note_on_c, 11, 62, 15
1, 46920, Note_on_c, 12, 76, 100
1, 46920, Note_on_c, 13, 62, 65
1, 46920, Note_on_c, 13, 57, 65
1, 46920, Note_on_c, 13, 50, 65
1, 46920, Note_on_c, 14, 62, 100
1, 46920, Note_on_c, 14, 57, 100
1, 46920, Note_on_c, 14, 50, 100
1, 46935, Note_on_c, 9, 47, 0
1, 46950, Note_on_c, 9, 45, 100
1, 46965, Note_on_c, 9, 45, 0
1, 46980, Note_on_c, 7, 54, 0
1, 46980, Note_on_c, 13, 57, 0
1, 46980, Note_on_c, 14, 50, 0
1, 46980, Note_on_c, 11, 74, 0
1, 46980, Note_on_c, 13, 50, 0
1, 46980, Note_on_c, 14, 62, 0
1, 46980, Note_on_c, 14, 57, 0
1, 46980, Note_on_c, 7, 42, 0
1, 46980, Note_on_c, 13, 62, 0
1, 46980, Note_on_c, 11, 69, 0
1, 46980, Note_on_c, 11, 62, 0
1, 46980, Note_on_c, 7, 53, 120
1, 46980, Note_on_c, 7, 41, 120
1, 46980, Note_on_c, 9, 36, 100
1, 46980, Note_on_c, 11, 74, 15
1, 46980, Note_on_c, 11, 69, 15
1, 46980, Note_on_c, 11, 62, 15
1, 46980, Note_on_c, 13, 62, 65
1, 46980, Note_on_c, 13, 57, 65
1, 46980, Note_on_c, 13, 50, 65
1, 46980, Note_on_c, 14, 62, 100
1, 46980, Note_on_c, 14, 57, 100
1, 46980, Note_on_c, 14, 50, 100
1, 46995, Note_on_c, 9, 36, 0
1, 47040, Note_on_c, 6, 38, 0
1, 47040, Note_on_c, 13, 57, 0
1, 47040, Note_on_c, 6, 57, 0
1, 47040, Note_on_c, 6, 62, 0
1, 47040, Note_on_c, 6, 50, 0
1, 47040, Note_on_c, 11, 69, 0
1, 47040, Note_on_c, 14, 50, 0
1, 47040, Note_on_c, 3, 38, 0
1, 47040, Note_on_c, 14, 62, 0
1, 47040, Note_on_c, 6, 66, 0
1, 47040, Note_on_c, 7, 53, 0
1, 47040, Note_on_c, 7, 41, 0
1, 47040, Note_on_c, 13, 50, 0
1, 47040, Note_on_c, 11, 62, 0
1, 47040, Note_on_c, 11, 74, 0
1, 47040, Note_on_c, 14, 57, 0
1, 47040, Note_on_c, 13, 62, 0
1, 47040, Note_on_c, 0, 64, 110
1, 47040, Note_on_c, 0, 59, 110
1, 47040, Note_on_c, 0, 52, 110
1, 47040, Note_on_c, 2, 71, 100
1, 47040, Note_on_c, 2, 68, 100
1, 47040, Note_on_c, 2, 64, 100
1, 47040, Note_on_c, 2, 59, 100
1, 47040, Note_on_c, 2, 52, 100
1, 47040, Note_on_c, 3, 40, 100
1, 47040, Note_on_c, 6, 68, 100
1, 47040, Note_on_c, 6, 64, 100
1, 47040, Note_on_c, 6, 59, 100
1, 47040, Note_on_c, 6, 52, 100
1, 47040, Note_on_c, 6, 40, 100
1, 47040, Note_on_c, 7, 40, 120
1, 47040, Note_on_c, 7, 52, 120
1, 47040, Note_on_c, 9, 47, 100
1, 47040, Note_on_c, 9, 42, 100
1, 47045, Note_on_c, 1, 64, 110
1, 47045, Note_on_c, 1, 59, 110
1, 47045, Note_on_c, 1, 52, 110
1, 47055, Note_on_c, 9, 42, 0
1, 47055, Note_on_c, 9, 47, 0
1, 47100, Note_on_c, 9, 47, 100
1, 47115, Note_on_c, 9, 47, 0
1, 47160, Note_on_c, 12, 76, 0
1, 47160, Note_on_c, 4, 76, 0
1, 47160, Note_on_c, 4, 71, 100
1, 47160, Note_on_c, 9, 47, 100
1, 47160, Note_on_c, 12, 71, 100
1, 47175, Note_on_c, 9, 47, 0
1, 47220, Note_on_c, 12, 71, 0
1, 47220, Note_on_c, 4, 71, 0
1, 47220, Note_on_c, 4, 69, 100
1, 47220, Note_on_c, 9, 45, 100
1, 47220, Note_on_c, 12, 69, 100
1, 47235, Note_on_c, 9, 45, 0
1, 47280, Note_on_c, 12, 69, 0
1, 47280, Note_on_c, 4, 69, 0
1, 47280, Note_on_c, 4, 68, 100
1, 47280, Note_on_c, 9, 47, 100
1, 47280, Note_on_c, 12, 68, 100
1, 47295, Note_on_c, 9, 47, 0
1, 47340, Note_on_c, 9, 47, 100
1, 47355, Note_on_c, 9, 47, 0
1, 47400, Note_on_c, 12, 68, 0
1, 47400, Note_on_c, 4, 68, 0
1, 47400, Note_on_c, 9, 38, 100
1, 47415, Note_on_c, 9, 38, 0
1, 47460, Note_on_c, 9, 47, 100
1, 47475, Note_on_c, 9, 47, 0
1, 47520, Note_on_c, 0, 59, 0
1, 47520, Note_on_c, 7, 40, 0
1, 47520, Note_on_c, 2, 52, 0
1, 47520, Note_on_c, 7, 52, 0
1, 47520, Note_on_c, 2, 64, 0
1, 47520, Note_on_c, 6, 64, 0
1, 47520, Note_on_c, 2, 71, 0
1, 47520, Note_on_c, 2, 68, 0
1, 47520, Note_on_c, 0, 64, 0
1, 47520, Note_on_c, 0, 52, 0
1, 47520, Note_on_c, 2, 59, 0
1, 47520, Note_on_c, 6, 40, 0
1, 47520, Note_on_c, 6, 52, 0
1, 47520, Note_on_c, 6, 59, 0
1, 47520, Note_on_c, 6, 68, 0
1, 47520, Note_on_c, 9, 47, 100
1, 47525, Note_on_c, 1, 52, 0
1, 47525, Note_on_c, 1, 64, 0
1, 47525, Note_on_c, 1, 59, 0
1, 47535, Note_on_c, 9, 47, 0
1, 47580, Note_on_c, 9, 45, 100
1, 47595, Note_on_c, 9, 45, 0
1, 47640, Note_on_c, 9, 47, 100
1, 47655, Note_on_c, 9, 47, 0
1, 47700, Note_on_c, 9, 47, 100
1, 47715, Note_on_c, 9, 47, 0
1, 47760, Note_on_c, 9, 45, 100
1, 47775, Note_on_c, 9, 45, 0
1, 47790, Note_on_c, 9, 45, 100
1, 47805, Note_on_c, 9, 45, 0
1, 47820, Note_on_c, 9, 45, 100
1, 47835, Note_on_c, 9, 45, 0
1, 47850, Note_on_c, 9, 45, 100
1, 47865, Note_on_c, 9, 45, 0
1, 47880, Note_on_c, 9, 47, 100
1, 47895, Note_on_c, 9, 47, 0
1, 47910, Note_on_c, 9, 47, 100
1, 47925, Note_on_c, 9, 47, 0
1, 47940, Note_on_c, 9, 47, 100
1, 47955, Note_on_c, 9, 47, 0
1, 48000, Marker_t, "fadeout"
1, 48000, Note_on_c, 3, 40, 0
1, 48000, Note_on_c, 3, 47, 100
1, 48000, Note_on_c, 6, 78, 100
1, 48000, Note_on_c, 6, 74, 100
1, 48000, Note_on_c, 6, 69, 100
1, 48000, Note_on_c, 6, 59, 100
1, 48000, Note_on_c, 6, 47, 100
1, 48000, Note_on_c, 9, 49, 100
1, 48000, Note_on_c, 9, 36, 100
1, 48000, Note_on_c, 13, 62, 127
1, 48005, Note_on_c, 1, 66, 75
1, 48005, Note_on_c, 1, 62, 75
1, 48005, Note_on_c, 1, 57, 75
1, 48005, Note_on_c, 1, 54, 75
1, 48005, Note_on_c, 1, 47, 75
1, 48015, Note_on_c, 9, 36, 0
1, 48015, Note_on_c, 9, 49, 0
1, 48060, Note_on_c, 6, 69, 0
1, 48060, Note_on_c, 6, 74, 0
1, 48060, Note_on_c, 6, 47, 0
1, 48060, Note_on_c, 6, 78, 0
1, 48060, Note_on_c, 6, 59, 0
1, 48060, Note_on_c, 6, 78, 100
1, 48060, Note_on_c, 6, 74, 100
1, 48060, Note_on_c, 6, 69, 100
1, 48060, Note_on_c, 6, 59, 100
1, 48060, Note_on_c, 6, 47, 100
1, 48060, Note_on_c, 15, 74, 105
1, 48065, Note_on_c, 1, 57, 0
1, 48065, Note_on_c, 1, 47, 0
1, 48065, Note_on_c, 1, 54, 0
1, 48065, Note_on_c, 1, 62, 0
1, 48065, Note_on_c, 1, 66, 0
1, 48065, Note_on_c, 1, 66, 75
1, 48065, Note_on_c, 1, 62, 75
1, 48065, Note_on_c, 1, 57, 75
1, 48065, Note_on_c, 1, 54, 75
1, 48065, Note_on_c, 1, 47, 75
1, 48120, Note_on_c, 6, 78, 0
1, 48120, Note_on_c, 6, 74, 0
1, 48120, Note_on_c, 3, 47, 0
1, 48120, Note_on_c, 6, 69, 0
1, 48120, Note_on_c, 6, 47, 0
1, 48120, Note_on_c, 6, 59, 0
1, 48120, Note_on_c, 6, 78, 100
1, 48120, Note_on_c, 6, 74, 100
1, 48120, Note_on_c, 6, 69, 100
1, 48120, Note_on_c, 6, 59, 100
1, 48120, Note_on_c, 6, 47, 100
1, 48120, Note_on_c, 9, 42, 100
1, 48125, Note_on_c, 1, 57, 0
1, 48125, Note_on_c, 1, 54, 0
1, 48125, Note_on_c, 1, 62, 0
1, 48125, Note_on_c, 1, 66, 0
1, 48125, Note_on_c, 1, 47, 0
1, 48125, Note_on_c, 1, 66, 75
1, 48125, Note_on_c, 1, 62, 75
1, 48125, Note_on_c, 1, 57, 75
1, 48125, Note_on_c, 1, 54, 75
1, 48125, Note_on_c, 1, 47, 75
1, 48135, Note_on_c, 9, 42, 0
1, 48180, Note_on_c, 6, 78, 0
1, 48180, Note_on_c, 6, 74, 0
1, 48180, Note_on_c, 6, 47, 0
1, 48180, Note_on_c, 6, 69, 0
1, 48180, Note_on_c, 6, 59, 0
1, 48180, Note_on_c, 3, 42, 100
1, 48180, Note_on_c, 6, 78, 100
1, 48180, Note_on_c, 6, 74, 100
1, 48180, Note_on_c, 6, 69, 100
1, 48180, Note_on_c, 6, 59, 100
1, 48180, Note_on_c, 6, 47, 100
1, 48180, Note_on_c, 9, 36, 100
1, 48185, Note_on_c, 1, 57, 0
1, 48185, Note_on_c, 1, 47, 0
1, 48185, Note_on_c, 1, 54, 0
1, 48185, Note_on_c, 1, 66, 0
1, 48185, Note_on_c, 1, 62, 0
1, 48185, Note_on_c, 1, 66, 75
1, 48185, Note_on_c, 1, 62, 75
1, 48185, Note_on_c, 1, 57, 75
1, 48185, Note_on_c, 1, 54, 75
1, 48185, Note_on_c, 1, 47, 75
1, 48195, Note_on_c, 9, 36, 0
1, 48240, Note_on_c, 6, 47, 0
1, 48240, Note_on_c, 6, 78, 0
1, 48240, Note_on_c, 3, 42, 0
1, 48240, Note_on_c, 6, 74, 0
1, 48240, Note_on_c, 6, 59, 0
1, 48240, Note_on_c, 6, 69, 0
1, 48240, Note_on_c, 3, 47, 100
1, 48240, Note_on_c, 4, 74, 120
1, 48240, Note_on_c, 6, 78, 100
1, 48240, Note_on_c, 6, 74, 100
1, 48240, Note_on_c, 6, 69, 100
1, 48240, Note_on_c, 6, 59, 100
1, 48240, Note_on_c, 6, 47, 100
1, 48240, Note_on_c, 9, 42, 100
1, 48240, Note_on_c, 9, 38, 100
1, 48240, Note_on_c, 12, 74, 120
1, 48245, Note_on_c, 1, 62, 0
1, 48245, Note_on_c, 1, 57, 0
1, 48245, Note_on_c, 1, 66, 0
1, 48245, Note_on_c, 1, 47, 0
1, 48245, Note_on_c, 1, 54, 0
1, 48245, Note_on_c, 1, 66, 75
1, 48245, Note_on_c, 1, 62, 75
1, 48245, Note_on_c, 1, 57, 75
1, 48245, Note_on_c, 1, 54, 75
1, 48245, Note_on_c, 1, 47, 75
1, 48255, Note_on_c, 9, 38, 0
1, 48255, Note_on_c, 9, 42, 0
1, 48300, Note_on_c, 12, 74, 0
1, 48300, Note_on_c, 4, 74, 0
1, 48300, Note_on_c, 4, 69, 116
1, 48300, Note_on_c, 12, 69, 116
1, 48360, Note_on_c, 12, 69, 0
1, 48360, Note_on_c, 6, 47, 0
1, 48360, Note_on_c, 3, 47, 0
1, 48360, Note_on_c, 6, 78, 0
1, 48360, Note_on_c, 6, 74, 0
1, 48360, Note_on_c, 4, 69, 0
1, 48360, Note_on_c, 6, 69, 0
1, 48360, Note_on_c, 6, 59, 0
1, 48360, Note_on_c, 9, 42, 100
1, 48365, Note_on_c, 1, 54, 0
1, 48365, Note_on_c, 1, 47, 0
1, 48365, Note_on_c, 1, 66, 0
1, 48365, Note_on_c, 1, 57, 0
1, 48365, Note_on_c, 1, 62, 0
1, 48365, Note_on_c, 1, 66, 60
1, 48365, Note_on_c, 1, 62, 60
1, 48365, Note_on_c, 1, 57, 60
1, 48365, Note_on_c, 1, 54, 60
1, 48365, Note_on_c, 1, 47, 60
1, 48375, Note_on_c, 9, 42, 0
1, 48480, Note_on_c, 13, 62, 0
1, 48480, Note_on_c, 3, 47, 100
1, 48480, Note_on_c, 4, 74, 103
1, 48480, Note_on_c, 6, 78, 100
1, 48480, Note_on_c, 6, 74, 100
1, 48480, Note_on_c, 6, 69, 100
1, 48480, Note_on_c, 6, 59, 100
1, 48480, Note_on_c, 6, 47, 100
1, 48480, Note_on_c, 9, 36, 100
1, 48480, Note_on_c, 9, 42, 100
1, 48480, Note_on_c, 12, 74, 103
1, 48480, Note_on_c, 13, 62, 127
1, 48485, Note_on_c, 1, 57, 0
1, 48485, Note_on_c, 1, 66, 0
1, 48485, Note_on_c, 1, 47, 0
1, 48485, Note_on_c, 1, 62, 0
1, 48485, Note_on_c, 1, 54, 0
1, 48485, Note_on_c, 1, 66, 75
1, 48485, Note_on_c, 1, 62, 75
1, 48485, Note_on_c, 1, 57, 75
1, 48485, Note_on_c, 1, 54, 75
1, 48485, Note_on_c, 1, 47, 75
1, 48495, Note_on_c, 9, 36, 0
1, 48495, Note_on_c, 9, 42, 0
1, 48540, Note_on_c, 6, 59, 0
1, 48540, Note_on_c, 12, 74, 0
1, 48540, Note_on_c, 4, 74, 0
1, 48540, Note_on_c, 6, 78, 0
1, 48540, Note_on_c, 6, 74, 0
1, 48540, Note_on_c, 6, 69, 0
1, 48540, Note_on_c, 6, 47, 0
1, 48540, Note_on_c, 15, 74, 0
1, 48540, Note_on_c, 3, 47, 0
1, 48540, Note_on_c, 3, 46, 100
1, 48540, Note_on_c, 4, 69, 98
1, 48540, Note_on_c, 6, 78, 100
1, 48540, Note_on_c, 6, 74, 100
1, 48540, Note_on_c, 6, 69, 100
1, 48540, Note_on_c, 6, 59, 100
1, 48540, Note_on_c, 6, 47, 100
1, 48540, Note_on_c, 12, 69, 98
1, 48540, Note_on_c, 15, 74, 105
1, 48545, Note_on_c, 1, 57, 0
1, 48545, Note_on_c, 1, 66, 0
1, 48545, Note_on_c, 1, 62, 0
1, 48545, Note_on_c, 1, 47, 0
1, 48545, Note_on_c, 1, 54, 0
1, 48545, Note_on_c, 1, 66, 75
1, 48545, Note_on_c, 1, 62, 75
1, 48545, Note_on_c, 1, 57, 75
1, 48545, Note_on_c, 1, 54, 75
1, 48545, Note_on_c, 1, 47, 75
1, 48600, Note_on_c, 6, 69, 0
1, 48600, Note_on_c, 6, 59, 0
1, 48600, Note_on_c, 4, 69, 0
1, 48600, Note_on_c, 6, 78, 0
1, 48600, Note_on_c, 3, 46, 0
1, 48600, Note_on_c, 6, 74, 0
1, 48600, Note_on_c, 6, 47, 0
1, 48600, Note_on_c, 12, 69, 0
1, 48600, Note_on_c, 3, 47, 100
1, 48600, Note_on_c, 6, 78, 100
1, 48600, Note_on_c, 6, 74, 100
1, 48600, Note_on_c, 6, 69, 100
1, 48600, Note_on_c, 6, 59, 100
1, 48600, Note_on_c, 6, 47, 100
1, 48600, Note_on_c, 9, 42, 100
1, 48605, Note_on_c, 1, 66, 0
1, 48605, Note_on_c, 1, 54, 0
1, 48605, Note_on_c, 1, 62, 0
1, 48605, Note_on_c, 1, 47, 0
1, 48605, Note_on_c, 1, 57, 0
1, 48605, Note_on_c, 1, 66, 75
1, 48605, Note_on_c, 1, 62, 75
1, 48605, Note_on_c, 1, 57, 75
1, 48605, Note_on_c, 1, 54, 75
1, 48605, Note_on_c, 1, 47, 75
1, 48615, Note_on_c, 9, 42, 0
1, 48660, Note_on_c, 6, 47, 0
1, 48660, Note_on_c, 6, 78, 0
1, 48660, Note_on_c, 3, 47, 0
1, 48660, Note_on_c, 6, 74, 0
1, 48660, Note_on_c, 6, 59, 0
1, 48660, Note_on_c, 6, 69, 0
1, 48660, Note_on_c, 3, 47, 100
1, 48660, Note_on_c, 6, 78, 100
1, 48660, Note_on_c, 6, 74, 100
1, 48660, Note_on_c, 6, 69, 100
1, 48660, Note_on_c, 6, 59, 100
1, 48660, Note_on_c, 6, 47, 100
1, 48660, Note_on_c, 9, 36, 100
1, 48665, Note_on_c, 1, 62, 0
1, 48665, Note_on_c, 1, 57, 0
1, 48665, Note_on_c, 1, 66, 0
1, 48665, Note_on_c, 1, 47, 0
1, 48665, Note_on_c, 1, 54, 0
1, 48665, Note_on_c, 1, 66, 75
1, 48665, Note_on_c, 1, 62, 75
1, 48665, Note_on_c, 1, 57, 75
1, 48665, Note_on_c, 1, 54, 75
1, 48665, Note_on_c, 1, 47, 75
1, 48675, Note_on_c, 9, 36, 0
1, 48720, Note_on_c, 6, 47, 0
1, 48720, Note_on_c, 6, 78, 0
1, 48720, Note_on_c, 3, 47, 0
1, 48720, Note_on_c, 13, 62, 0
1, 48720, Note_on_c, 6, 74, 0
1, 48720, Note_on_c, 6, 59, 0
1, 48720, Note_on_c, 6, 69, 0
1, 48720, Note_on_c, 3, 47, 100
1, 48720, Note_on_c, 4, 74, 85
1, 48720, Note_on_c, 6, 78, 100
1, 48720, Note_on_c, 6, 74, 100
1, 48720, Note_on_c, 6, 69, 100
1, 48720, Note_on_c, 6, 59, 100
1, 48720, Note_on_c, 6, 47, 100
1, 48720, Note_on_c, 9, 46, 100
1, 48720, Note_on_c, 9, 38, 100
1, 48720, Note_on_c, 12, 74, 85
1, 48720, Note_on_c, 13, 62, 127
1, 48725, Note_on_c, 1, 47, 0
1, 48725, Note_on_c, 1, 62, 0
1, 48725, Note_on_c, 1, 54, 0
1, 48725, Note_on_c, 1, 57, 0
1, 48725, Note_on_c, 1, 66, 0
1, 48725, Note_on_c, 1, 66, 75
1, 48725, Note_on_c, 1, 62, 75
1, 48725, Note_on_c, 1, 57, 75
1, 48725, Note_on_c, 1, 54, 75
1, 48725, Note_on_c, 1, 47, 75
1, 48735, Note_on_c, 9, 46, 0
1, 48735, Note_on_c, 9, 38, 0
1, 48780, Note_on_c, 12, 74, 0
1, 48780, Note_on_c, 13, 62, 0
1, 48780, Note_on_c, 4, 74, 0
1, 48780, Note_on_c, 15, 74, 0
1, 48780, Note_on_c, 4, 69, 80
1, 48780, Note_on_c, 12, 69, 80
1, 48780, Note_on_c, 13, 68, 127
1, 48780, Note_on_c, 15, 74, 105
1, 48840, Note_on_c, 15, 74, 0
1, 48840, Note_on_c, 3, 47, 0
1, 48840, Note_on_c, 6, 78, 0
1, 48840, Note_on_c, 6, 59, 0
1, 48840, Note_on_c, 6, 74, 0
1, 48840, Note_on_c, 6, 69, 0
1, 48840, Note_on_c, 12, 69, 0
1, 48840, Note_on_c, 6, 47, 0
1, 48840, Note_on_c, 4, 69, 0
1, 48840, Note_on_c, 3, 43, 100
1, 48840, Note_on_c, 15, 80, 105
1, 48845, Note_on_c, 1, 62, 0
1, 48845, Note_on_c, 1, 47, 0
1, 48845, Note_on_c, 1, 54, 0
1, 48845, Note_on_c, 1, 66, 0
1, 48845, Note_on_c, 1, 57, 0
1, 48845, Note_on_c, 1, 66, 60
1, 48845, Note_on_c, 1, 62, 60
1, 48845, Note_on_c, 1, 57, 60
1, 48845, Note_on_c, 1, 54, 60
1, 48845, Note_on_c, 1, 47, 60
1, 48900, Note_on_c, 3, 43, 0
1, 48900, Note_on_c, 3, 44, 100
1, 48960, Note_on_c, 3, 44, 0
1, 48960, Note_on_c, 13, 68, 0
1, 48960, Note_on_c, 3, 45, 100
1, 48960, Note_on_c, 6, 76, 100
1, 48960, Note_on_c, 6, 73, 100
1, 48960, Note_on_c, 6, 57, 100
1, 48960, Note_on_c, 6, 45, 100
1, 48960, Note_on_c, 6, 69, 100
1, 48960, Note_on_c, 9, 42, 100
1, 48960, Note_on_c, 9, 36, 100
1, 48965, Note_on_c, 1, 54, 0
1, 48965, Note_on_c, 1, 62, 0
1, 48965, Note_on_c, 1, 47, 0
1, 48965, Note_on_c, 1, 66, 0
1, 48965, Note_on_c, 1, 57, 0
1, 48965, Note_on_c, 1, 64, 75
1, 48965, Note_on_c, 1, 61, 75
1, 48965, Note_on_c, 1, 52, 75
1, 48965, Note_on_c, 1, 45, 75
1, 48965, Note_on_c, 1, 57, 75
1, 48975, Note_on_c, 9, 42, 0
1, 48975, Note_on_c, 9, 36, 0
1, 49020, Note_on_c, 15, 80, 0
1, 49020, Note_on_c, 6, 76, 0
1, 49020, Note_on_c, 6, 73, 0
1, 49020, Note_on_c, 6, 69, 0
1, 49020, Note_on_c, 6, 45, 0
1, 49020, Note_on_c, 6, 57, 0
1, 49020, Note_on_c, 6, 76, 100
1, 49020, Note_on_c, 6, 57, 100
1, 49020, Note_on_c, 6, 45, 100
1, 49020, Note_on_c, 6, 69, 100
1, 49020, Note_on_c, 6, 73, 100
1, 49020, Pitch_bend_c, 13, 6656
1, 49020, Note_on_c, 13, 73, 127
1, 49025, Note_on_c, 1, 45, 0
1, 49025, Note_on_c, 1, 64, 0
1, 49025, Note_on_c, 1, 52, 0
1, 49025, Note_on_c, 1, 61, 0
1, 49025, Note_on_c, 1, 57, 0
1, 49025, Note_on_c, 1, 61, 75
1, 49025, Note_on_c, 1, 52, 75
1, 49025, Note_on_c, 1, 64, 75
1, 49025, Note_on_c, 1, 57, 75
1, 49025, Note_on_c, 1, 45, 75
1, 49030, Pitch_bend_c, 13, 6784
1, 49040, Pitch_bend_c, 13, 6912
1, 49050, Pitch_bend_c, 13, 7040
1, 49060, Pitch_bend_c, 13, 7168
1, 49070, Pitch_bend_c, 13, 7296
1, 49080, Note_on_c, 6, 69, 0
1, 49080, Note_on_c, 6, 57, 0
1, 49080, Note_on_c, 6, 73, 0
1, 49080, Note_on_c, 6, 45, 0
1, 49080, Note_on_c, 3, 45, 0
1, 49080, Note_on_c, 6, 76, 0
1, 49080, Note_on_c, 6, 73, 100
1, 49080, Note_on_c, 6, 76, 100
1, 49080, Note_on_c, 6, 69, 100
1, 49080, Note_on_c, 6, 57, 100
1, 49080, Note_on_c, 6, 45, 100
1, 49080, Note_on_c, 9, 42, 100
1, 49080, Pitch_bend_c, 13, 7424
1, 49080, Pitch_bend_c, 15, 6656
1, 49080, Note_on_c, 15, 85, 105
1, 49085, Note_on_c, 1, 61, 0
1, 49085, Note_on_c, 1, 57, 0
1, 49085, Note_on_c, 1, 52, 0
1, 49085, Note_on_c, 1, 45, 0
1, 49085, Note_on_c, 1, 64, 0
1, 49085, Note_on_c, 1, 61, 75
1, 49085, Note_on_c, 1, 64, 75
1, 49085, Note_on_c, 1, 57, 75
1, 49085, Note_on_c, 1, 52, 75
1, 49085, Note_on_c, 1, 45, 75
1, 49090, Pitch_bend_c, 13, 7552
1, 49090, Pitch_bend_c, 15, 6784
1, 49095, Note_on_c, 9, 42, 0
1, 49100, Pitch_bend_c, 13, 7680
1, 49100, Pitch_bend_c, 15, 6912
1, 49110, Pitch_bend_c, 13, 7808
1, 49110, Pitch_bend_c, 15, 7040
1, 49120, Pitch_bend_c, 13, 7936
1, 49120, Pitch_bend_c, 15, 7168
1, 49130, Pitch_bend_c, 13, 8064
1, 49130, Pitch_bend_c, 15, 7296
1, 49140, Note_on_c, 6, 45, 0
1, 49140, Note_on_c, 6, 76, 0
1, 49140, Note_on_c, 6, 57, 0
1, 49140, Note_on_c, 6, 69, 0
1, 49140, Note_on_c, 6, 73, 0
1, 49140, Note_on_c, 3, 40, 100
1, 49140, Note_on_c, 6, 76, 100
1, 49140, Note_on_c, 6, 69, 100
1, 49140, Note_on_c, 6, 73, 100
1, 49140, Note_on_c, 6, 57, 100
1, 49140, Note_on_c, 6, 45, 100
1, 49140, Note_on_c, 9, 36, 100
1, 49140, Pitch_bend_c, 13, 8192
1, 49140, Pitch_bend_c, 15, 7424
1, 49145, Note_on_c, 1, 57, 0
1, 49145, Note_on_c, 1, 52, 0
1, 49145, Note_on_c, 1, 64, 0
1, 49145, Note_on_c, 1, 61, 0
1, 49145, Note_on_c, 1, 45, 0
1, 49145, Note_on_c, 1, 61, 75
1, 49145, Note_on_c, 1, 64, 75
1, 49145, Note_on_c, 1, 52, 75
1, 49145, Note_on_c, 1, 45, 75
1, 49145, Note_on_c, 1, 57, 75
1, 49147, Pitch_bend_c, 13, 8320
1, 49150, Pitch_bend_c, 13, 8192
1, 49150, Pitch_bend_c, 15, 7552
1, 49155, Note_on_c, 9, 36, 0
1, 49160, Pitch_bend_c, 15, 7680
1, 49170, Pitch_bend_c, 15, 7808
1, 49180, Pitch_bend_c, 15, 7936
1, 49190, Pitch_bend_c, 15, 8064
1, 49200, Note_on_c, 6, 45, 0
1, 49200, Note_on_c, 6, 76, 0
1, 49200, Note_on_c, 3, 40, 0
1, 49200, Note_on_c, 6, 69, 0
1, 49200, Note_on_c, 6, 57, 0
1, 49200, Note_on_c, 6, 73, 0
1, 49200, Note_on_c, 3, 45, 100
1, 49200, Note_on_c, 4, 73, 120
1, 49200, Note_on_c, 6, 73, 100
1, 49200, Note_on_c, 6, 57, 100
1, 49200, Note_on_c, 6, 45, 100
1, 49200, Note_on_c, 6, 76, 100
1, 49200, Note_on_c, 6, 69, 100
1, 49200, Note_on_c, 9, 38, 100
1, 49200, Note_on_c, 9, 42, 100
1, 49200, Note_on_c, 12, 73, 120
1, 49200, Pitch_bend_c, 15, 8192
1, 49205, Note_on_c, 1, 64, 0
1, 49205, Note_on_c, 1, 52, 0
1, 49205, Note_on_c, 1, 61, 0
1, 49205, Note_on_c, 1, 57, 0
1, 49205, Note_on_c, 1, 45, 0
1, 49205, Note_on_c, 1, 64, 75
1, 49205, Note_on_c, 1, 57, 75
1, 49205, Note_on_c, 1, 52, 75
1, 49205, Note_on_c, 1, 45, 75
1, 49205, Note_on_c, 1, 61, 75
1, 49207, Pitch_bend_c, 15, 8320
1, 49210, Pitch_bend_c, 15, 8192
1, 49215, Note_on_c, 9, 42, 0
1, 49215, Note_on_c, 9, 38, 0
1, 49260, Note_on_c, 12, 73, 0
1, 49260, Note_on_c, 4, 73, 0
1, 49260, Note_on_c, 4, 69, 116
1, 49260, Note_on_c, 12, 69, 116
1, 49320, Note_on_c, 12, 69, 0
1, 49320, Note_on_c, 6, 69, 0
1, 49320, Note_on_c, 3, 45, 0
1, 49320, Note_on_c, 6, 73, 0
1, 49320, Note_on_c, 6, 57, 0
1, 49320, Note_on_c, 4, 69, 0
1, 49320, Note_on_c, 6, 45, 0
1, 49320, Note_on_c, 6, 76, 0
1, 49320, Note_on_c, 9, 42, 100
1, 49325, Note_on_c, 1, 45, 0
1, 49325, Note_on_c, 1, 61, 0
1, 49325, Note_on_c, 1, 64, 0
1, 49325, Note_on_c, 1, 52, 0
1, 49325, Note_on_c, 1, 57, 0
1, 49325, Note_on_c, 1, 52, 60
1, 49325, Note_on_c, 1, 45, 60
1, 49325, Note_on_c, 1, 64, 60
1, 49325, Note_on_c, 1, 61, 60
1, 49325, Note_on_c, 1, 57, 60
1, 49335, Note_on_c, 9, 42, 0
1, 49440, Note_on_c, 3, 45, 100
1, 49440, Note_on_c, 4, 73, 103
1, 49440, Note_on_c, 6, 76, 100
1, 49440, Note_on_c, 6, 73, 100
1, 49440, Note_on_c, 6, 57, 100
1, 49440, Note_on_c, 6, 45, 100
1, 49440, Note_on_c, 6, 69, 100
1, 49440, Note_on_c, 9, 36, 100
1, 49440, Note_on_c, 9, 42, 100
1, 49440, Note_on_c, 12, 73, 103
1, 49445, Note_on_c, 1, 57, 0
1, 49445, Note_on_c, 1, 45, 0
1, 49445, Note_on_c, 1, 52, 0
1, 49445, Note_on_c, 1, 61, 0
1, 49445, Note_on_c, 1, 64, 0
1, 49445, Note_on_c, 1, 64, 75
1, 49445, Note_on_c, 1, 61, 75
1, 49445, Note_on_c, 1, 52, 75
1, 49445, Note_on_c, 1, 45, 75
1, 49445, Note_on_c, 1, 57, 75
1, 49455, Note_on_c, 9, 42, 0
1, 49455, Note_on_c, 9, 36, 0
1, 49500, Note_on_c, 6, 57, 0
1, 49500, Note_on_c, 12, 73, 0
1, 49500, Note_on_c, 3, 45, 0
1, 49500, Note_on_c, 4, 73, 0
1, 49500, Note_on_c, 6, 76, 0
1, 49500, Note_on_c, 6, 73, 0
1, 49500, Note_on_c, 6, 45, 0
1, 49500, Note_on_c, 6, 69, 0
1, 49500, Note_on_c, 3, 44, 100
1, 49500, Note_on_c, 4, 69, 98
1, 49500, Note_on_c, 6, 76, 100
1, 49500, Note_on_c, 6, 57, 100
1, 49500, Note_on_c, 6, 45, 100
1, 49500, Note_on_c, 6, 69, 100
1, 49500, Note_on_c, 6, 73, 100
1, 49500, Note_on_c, 12, 69, 98
1, 49505, Note_on_c, 1, 57, 0
1, 49505, Note_on_c, 1, 64, 0
1, 49505, Note_on_c, 1, 52, 0
1, 49505, Note_on_c, 1, 61, 0
1, 49505, Note_on_c, 1, 45, 0
1, 49505, Note_on_c, 1, 61, 75
1, 49505, Note_on_c, 1, 52, 75
1, 49505, Note_on_c, 1, 64, 75
1, 49505, Note_on_c, 1, 57, 75
1, 49505, Note_on_c, 1, 45, 75
1, 49560, Note_on_c, 6, 57, 0
1, 49560, Note_on_c, 6, 45, 0
1, 49560, Note_on_c, 6, 73, 0
1, 49560, Note_on_c, 3, 44, 0
1, 49560, Note_on_c, 4, 69, 0
1, 49560, Note_on_c, 6, 76, 0
1, 49560, Note_on_c, 6, 69, 0
1, 49560, Note_on_c, 12, 69, 0
1, 49560, Note_on_c, 3, 45, 100
1, 49560, Note_on_c, 6, 73, 100
1, 49560, Note_on_c, 6, 76, 100
1, 49560, Note_on_c, 6, 69, 100
1, 49560, Note_on_c, 6, 57, 100
1, 49560, Note_on_c, 6, 45, 100
1, 49560, Note_on_c, 9, 42, 100
1, 49565, Note_on_c, 1, 52, 0
1, 49565, Note_on_c, 1, 45, 0
1, 49565, Note_on_c, 1, 61, 0
1, 49565, Note_on_c, 1, 57, 0
1, 49565, Note_on_c, 1, 64, 0
1, 49565, Note_on_c, 1, 61, 75
1, 49565, Note_on_c, 1, 64, 75
1, 49565, Note_on_c, 1, 57, 75
1, 49565, Note_on_c, 1, 52, 75
1, 49565, Note_on_c, 1, 45, 75
1, 49575, Note_on_c, 9, 42, 0
1, 49620, Note_on_c, 6, 45, 0
1, 49620, Note_on_c, 6, 73, 0
1, 49620, Note_on_c, 3, 45, 0
1, 49620, Note_on_c, 6, 76, 0
1, 49620, Note_on_c, 6, 57, 0
1, 49620, Note_on_c, 6, 69, 0
1, 49620, Note_on_c, 3, 45, 100
1, 49620, Note_on_c, 6, 76, 100
1, 49620, Note_on_c, 6, 69, 100
1, 49620, Note_on_c, 6, 73, 100
1, 49620, Note_on_c, 6, 57, 100
1, 49620, Note_on_c, 6, 45, 100
1, 49620, Note_on_c, 9, 36, 100
1, 49625, Note_on_c, 1, 64, 0
1, 49625, Note_on_c, 1, 57, 0
1, 49625, Note_on_c, 1, 61, 0
1, 49625, Note_on_c, 1, 45, 0
1, 49625, Note_on_c, 1, 52, 0
1, 49625, Note_on_c, 1, 61, 75
1, 49625, Note_on_c, 1, 64, 75
1, 49625, Note_on_c, 1, 52, 75
1, 49625, Note_on_c, 1, 45, 75
1, 49625, Note_on_c, 1, 57, 75
1, 49635, Note_on_c, 9, 36, 0
1, 49680, Note_on_c, 6, 45, 0
1, 49680, Note_on_c, 6, 76, 0
1, 49680, Note_on_c, 3, 45, 0
1, 49680, Note_on_c, 6, 69, 0
1, 49680, Note_on_c, 6, 57, 0
1, 49680, Note_on_c, 6, 73, 0
1, 49680, Note_on_c, 3, 45, 100
1, 49680, Note_on_c, 4, 73, 85
1, 49680, Note_on_c, 6, 73, 100
1, 49680, Note_on_c, 6, 57, 100
1, 49680, Note_on_c, 6, 45, 100
1, 49680, Note_on_c, 6, 76, 100
1, 49680, Note_on_c, 6, 69, 100
1, 49680, Note_on_c, 9, 46, 100
1, 49680, Note_on_c, 9, 38, 100
1, 49680, Note_on_c, 12, 73, 85
1, 49685, Note_on_c, 1, 64, 0
1, 49685, Note_on_c, 1, 52, 0
1, 49685, Note_on_c, 1, 61, 0
1, 49685, Note_on_c, 1, 57, 0
1, 49685, Note_on_c, 1, 45, 0
1, 49685, Note_on_c, 1, 64, 75
1, 49685, Note_on_c, 1, 57, 75
1, 49685, Note_on_c, 1, 52, 75
1, 49685, Note_on_c, 1, 45, 75
1, 49685, Note_on_c, 1, 61, 75
1, 49695, Note_on_c, 9, 38, 0
1, 49695, Note_on_c, 9, 46, 0
1, 49740, Note_on_c, 12, 73, 0
1, 49740, Note_on_c, 4, 73, 0
1, 49740, Note_on_c, 4, 69, 80
1, 49740, Note_on_c, 12, 69, 80
1, 49800, Note_on_c, 12, 69, 0
1, 49800, Note_on_c, 6, 69, 0
1, 49800, Note_on_c, 3, 45, 0
1, 49800, Note_on_c, 6, 73, 0
1, 49800, Note_on_c, 6, 57, 0
1, 49800, Note_on_c, 4, 69, 0
1, 49800, Note_on_c, 6, 45, 0
1, 49800, Note_on_c, 6, 76, 0
1, 49800, Note_on_c, 3, 43, 100
1, 49805, Note_on_c, 1, 45, 0
1, 49805, Note_on_c, 1, 61, 0
1, 49805, Note_on_c, 1, 64, 0
1, 49805, Note_on_c, 1, 52, 0
1, 49805, Note_on_c, 1, 57, 0
1, 49805, Note_on_c, 1, 52, 60
1, 49805, Note_on_c, 1, 45, 60
1, 49805, Note_on_c, 1, 64, 60
1, 49805, Note_on_c, 1, 61, 60
1, 49805, Note_on_c, 1, 57, 60
1, 49920, Note_on_c, 3, 43, 0
1, 49920, Note_on_c, 3, 43, 100
1, 49920, Note_on_c, 6, 74, 100
1, 49920, Note_on_c, 6, 71, 100
1, 49920, Note_on_c, 6, 55, 100
1, 49920, Note_on_c, 6, 43, 100
1, 49920, Note_on_c, 6, 67, 100
1, 49920, Note_on_c, 9, 42, 100
1, 49920, Note_on_c, 9, 36, 100
1, 49925, Note_on_c, 1, 57, 0
1, 49925, Note_on_c, 1, 45, 0
1, 49925, Note_on_c, 1, 52, 0
1, 49925, Note_on_c, 1, 61, 0
1, 49925, Note_on_c, 1, 64, 0
1, 49925, Note_on_c, 1, 62, 75
1, 49925, Note_on_c, 1, 59, 75
1, 49925, Note_on_c, 1, 50, 75
1, 49925, Note_on_c, 1, 43, 75
1, 49925, Note_on_c, 1, 55, 75
1, 49935, Note_on_c, 9, 42, 0
1, 49935, Note_on_c, 9, 36, 0
1, 49980, Note_on_c, 6, 74, 0
1, 49980, Note_on_c, 6, 55, 0
1, 49980, Note_on_c, 6, 71, 0
1, 49980, Note_on_c, 6, 67, 0
1, 49980, Note_on_c, 6, 43, 0
1, 49980, Note_on_c, 6, 74, 100
1, 49980, Note_on_c, 6, 55, 100
1, 49980, Note_on_c, 6, 43, 100
1, 49980, Note_on_c, 6, 67, 100
1, 49980, Note_on_c, 6, 71, 100
1, 49985, Note_on_c, 1, 55, 0
1, 49985, Note_on_c, 1, 59, 0
1, 49985, Note_on_c, 1, 43, 0
1, 49985, Note_on_c, 1, 50, 0
1, 49985, Note_on_c, 1, 62, 0
1, 49985, Note_on_c, 1, 59, 75
1, 49985, Note_on_c, 1, 50, 75
1, 49985, Note_on_c, 1, 62, 75
1, 49985, Note_on_c, 1, 55, 75
1, 49985, Note_on_c, 1, 43, 75
1, 50040, Note_on_c, 3, 43, 0
1, 50040, Note_on_c, 6, 71, 0
1, 50040, Note_on_c, 6, 74, 0
1, 50040, Note_on_c, 6, 43, 0
1, 50040, Note_on_c, 6, 67, 0
1, 50040, Note_on_c, 6, 55, 0
1, 50040, Note_on_c, 6, 71, 100
1, 50040, Note_on_c, 6, 74, 100
1, 50040, Note_on_c, 6, 67, 100
1, 50040, Note_on_c, 6, 55, 100
1, 50040, Note_on_c, 6, 43, 100
1, 50040, Note_on_c, 9, 42, 100
1, 50045, Note_on_c, 1, 62, 0
1, 50045, Note_on_c, 1, 55, 0
1, 50045, Note_on_c, 1, 50, 0
1, 50045, Note_on_c, 1, 59, 0
1, 50045, Note_on_c, 1, 43, 0
1, 50045, Note_on_c, 1, 59, 75
1, 50045, Note_on_c, 1, 62, 75
1, 50045, Note_on_c, 1, 55, 75
1, 50045, Note_on_c, 1, 50, 75
1, 50045, Note_on_c, 1, 43, 75
1, 50055, Note_on_c, 9, 42, 0
1, 50100, Note_on_c, 6, 71, 0
1, 50100, Note_on_c, 6, 74, 0
1, 50100, Note_on_c, 6, 43, 0
1, 50100, Note_on_c, 6, 67, 0
1, 50100, Note_on_c, 6, 55, 0
1, 50100, Note_on_c, 3, 42, 100
1, 50100, Note_on_c, 6, 74, 100
1, 50100, Note_on_c, 6, 67, 100
1, 50100, Note_on_c, 6, 71, 100
1, 50100, Note_on_c, 6, 55, 100
1, 50100, Note_on_c, 6, 43, 100
1, 50100, Note_on_c, 9, 36, 100
1, 50105, Note_on_c, 1, 55, 0
1, 50105, Note_on_c, 1, 43, 0
1, 50105, Note_on_c, 1, 50, 0
1, 50105, Note_on_c, 1, 59, 0
1, 50105, Note_on_c, 1, 62, 0
1, 50105, Note_on_c, 1, 59, 75
1, 50105, Note_on_c, 1, 62, 75
1, 50105, Note_on_c, 1, 50, 75
1, 50105, Note_on_c, 1, 43, 75
1, 50105, Note_on_c, 1, 55, 75
1, 50115, Note_on_c, 9, 36, 0
1, 50160, Note_on_c, 6, 43, 0
1, 50160, Note_on_c, 6, 74, 0
1, 50160, Note_on_c, 3, 42, 0
1, 50160, Note_on_c, 6, 67, 0
1, 50160, Note_on_c, 6, 55, 0
1, 50160, Note_on_c, 6, 71, 0
1, 50160, Note_on_c, 3, 43, 100
1, 50160, Note_on_c, 4, 71, 120
1, 50160, Note_on_c, 6, 71, 100
1, 50160, Note_on_c, 6, 55, 100
1, 50160, Note_on_c, 6, 43, 100
1, 50160, Note_on_c, 6, 74, 100
1, 50160, Note_on_c, 6, 67, 100
1, 50160, Note_on_c, 9, 42, 100
1, 50160, Note_on_c, 9, 38, 100
1, 50160, Note_on_c, 12, 71, 120
1, 50165, Note_on_c, 1, 62, 0
1, 50165, Note_on_c, 1, 50, 0
1, 50165, Note_on_c, 1, 59, 0
1, 50165, Note_on_c, 1, 55, 0
1, 50165, Note_on_c, 1, 43, 0
1, 50165, Note_on_c, 1, 62, 75
1, 50165, Note_on_c, 1, 55, 75
1, 50165, Note_on_c, 1, 50, 75
1, 50165, Note_on_c, 1, 43, 75
1, 50165, Note_on_c, 1, 59, 75
1, 50175, Note_on_c, 9, 38, 0
1, 50175, Note_on_c, 9, 42, 0
1, 50220, Note_on_c, 12, 71, 0
1, 50220, Note_on_c, 4, 71, 0
1, 50220, Note_on_c, 4, 67, 116
1, 50220, Note_on_c, 12, 67, 116
1, 50280, Note_on_c, 12, 67, 0
1, 50280, Note_on_c, 6, 67, 0
1, 50280, Note_on_c, 13, 73, 0
1, 50280, Note_on_c, 3, 43, 0
1, 50280, Note_on_c, 6, 71, 0
1, 50280, Note_on_c, 6, 55, 0
1, 50280, Note_on_c, 4, 67, 0
1, 50280, Note_on_c, 6, 43, 0
1, 50280, Note_on_c, 6, 74, 0
1, 50280, Note_on_c, 9, 42, 100
1, 50280, Pitch_bend_c, 13, 6272
1, 50280, Note_on_c, 13, 73, 127
1, 50285, Note_on_c, 1, 50, 0
1, 50285, Note_on_c, 1, 62, 0
1, 50285, Note_on_c, 1, 55, 0
1, 50285, Note_on_c, 1, 43, 0
1, 50285, Note_on_c, 1, 59, 0
1, 50285, Note_on_c, 1, 50, 60
1, 50285, Note_on_c, 1, 43, 60
1, 50285, Note_on_c, 1, 62, 60
1, 50285, Note_on_c, 1, 59, 60
1, 50285, Note_on_c, 1, 55, 60
1, 50285, Pitch_bend_c, 13, 6400
1, 50290, Pitch_bend_c, 13, 6528
1, 50295, Note_on_c, 9, 42, 0
1, 50295, Pitch_bend_c, 13, 6656
1, 50297, Pitch_bend_c, 13, 6784
1, 50302, Pitch_bend_c, 13, 6912
1, 50307, Pitch_bend_c, 13, 7040
1, 50312, Pitch_bend_c, 13, 7168
1, 50315, Pitch_bend_c, 13, 7296
1, 50320, Pitch_bend_c, 13, 7424
1, 50325, Pitch_bend_c, 13, 7552
1, 50330, Pitch_bend_c, 13, 7680
1, 50332, Pitch_bend_c, 13, 7808
1, 50337, Pitch_bend_c, 13, 7936
1, 50340, Note_on_c, 15, 85, 0
1, 50340, Pitch_bend_c, 15, 6272
1, 50340, Note_on_c, 15, 85, 105
1, 50342, Pitch_bend_c, 13, 8064
1, 50345, Pitch_bend_c, 15, 6400
1, 50347, Pitch_bend_c, 13, 8192
1, 50350, Pitch_bend_c, 13, 8320
1, 50350, Pitch_bend_c, 15, 6528
1, 50352, Pitch_bend_c, 13, 8320
1, 50355, Pitch_bend_c, 15, 6656
1, 50357, Pitch_bend_c, 15, 6784
1, 50362, Pitch_bend_c, 15, 6912
1, 50367, Pitch_bend_c, 15, 7040
1, 50372, Pitch_bend_c, 15, 7168
1, 50375, Pitch_bend_c, 15, 7296
1, 50380, Pitch_bend_c, 15, 7424
1, 50385, Pitch_bend_c, 15, 7552
1, 50390, Pitch_bend_c, 15, 7680
1, 50392, Pitch_bend_c, 15, 7808
1, 50397, Pitch_bend_c, 15, 7936
1, 50400, Note_on_c, 3, 43, 100
1, 50400, Note_on_c, 4, 71, 103
1, 50400, Note_on_c, 6, 74, 100
1, 50400, Note_on_c, 6, 71, 100
1, 50400, Note_on_c, 6, 55, 100
1, 50400, Note_on_c, 6, 43, 100
1, 50400, Note_on_c, 6, 67, 100
1, 50400, Note_on_c, 9, 36, 100
1, 50400, Note_on_c, 9, 42, 100
1, 50400, Note_on_c, 12, 71, 103
1, 50402, Pitch_bend_c, 15, 8064
1, 50405, Note_on_c, 1, 59, 0
1, 50405, Note_on_c, 1, 55, 0
1, 50405, Note_on_c, 1, 43, 0
1, 50405, Note_on_c, 1, 50, 0
1, 50405, Note_on_c, 1, 62, 0
1, 50405, Note_on_c, 1, 43, 75
1, 50407, Pitch_bend_c, 15, 8192
1, 50410, Pitch_bend_c, 15, 8320
1, 50412, Pitch_bend_c, 15, 8320
1, 50415, Note_on_c, 9, 42, 0
1, 50415, Note_on_c, 9, 36, 0
1, 50460, Note_on_c, 6, 55, 0
1, 50460, Note_on_c, 6, 71, 0
1, 50460, Note_on_c, 6, 74, 0
1, 50460, Note_on_c, 4, 71, 0
1, 50460, Note_on_c, 6, 67, 0
1, 50460, Note_on_c, 12, 71, 0
1, 50460, Note_on_c, 3, 43, 0
1, 50460, Note_on_c, 6, 43, 0
1, 50460, Note_on_c, 3, 42, 100
1, 50460, Note_on_c, 4, 67, 98
1, 50460, Note_on_c, 6, 74, 100
1, 50460, Note_on_c, 6, 55, 100
1, 50460, Note_on_c, 6, 43, 100
1, 50460, Note_on_c, 6, 67, 100
1, 50460, Note_on_c, 6, 71, 100
1, 50460, Note_on_c, 12, 67, 98
1, 50465, Note_on_c, 1, 43, 0
1, 50465, Note_on_c, 1, 43, 75
1, 50520, Note_on_c, 6, 67, 0
1, 50520, Note_on_c, 12, 67, 0
1, 50520, Note_on_c, 3, 42, 0
1, 50520, Note_on_c, 6, 43, 0
1, 50520, Note_on_c, 4, 67, 0
1, 50520, Note_on_c, 6, 74, 0
1, 50520, Note_on_c, 6, 71, 0
1, 50520, Note_on_c, 6, 55, 0
1, 50520, Note_on_c, 3, 43, 100
1, 50520, Note_on_c, 6, 71, 100
1, 50520, Note_on_c, 6, 74, 100
1, 50520, Note_on_c, 6, 67, 100
1, 50520, Note_on_c, 6, 55, 100
1, 50520, Note_on_c, 6, 43, 100
1, 50520, Note_on_c, 9, 42, 100
1, 50525, Note_on_c, 1, 43, 0
1, 50525, Note_on_c, 1, 43, 75
1, 50535, Note_on_c, 9, 42, 0
1, 50580, Note_on_c, 3, 43, 0
1, 50580, Note_on_c, 6, 55, 0
1, 50580, Note_on_c, 6, 71, 0
1, 50580, Note_on_c, 6, 74, 0
1, 50580, Note_on_c, 6, 43, 0
1, 50580, Note_on_c, 6, 67, 0
1, 50580, Note_on_c, 3, 42, 100
1, 50580, Note_on_c, 6, 74, 100
1, 50580, Note_on_c, 6, 67, 100
1, 50580, Note_on_c, 6, 71, 100
1, 50580, Note_on_c, 6, 55, 100
1, 50580, Note_on_c, 6, 43, 100
1, 50580, Note_on_c, 9, 36, 100
1, 50585, Note_on_c, 1, 43, 0
1, 50585, Note_on_c, 1, 43, 75
1, 50595, Note_on_c, 9, 36, 0
1, 50640, Note_on_c, 3, 42, 0
1, 50640, Note_on_c, 6, 55, 0
1, 50640, Note_on_c, 6, 74, 0
1, 50640, Note_on_c, 6, 67, 0
1, 50640, Note_on_c, 6, 43, 0
1, 50640, Note_on_c, 6, 71, 0
1, 50640, Note_on_c, 3, 43, 100
1, 50640, Note_on_c, 4, 71, 85
1, 50640, Note_on_c, 6, 71, 100
1, 50640, Note_on_c, 6, 55, 100
1, 50640, Note_on_c, 6, 43, 100
1, 50640, Note_on_c, 6, 74, 100
1, 50640, Note_on_c, 6, 67, 100
1, 50640, Note_on_c, 9, 46, 100
1, 50640, Note_on_c, 9, 38, 100
1, 50640, Note_on_c, 12, 71, 85
1, 50645, Note_on_c, 1, 43, 0
1, 50645, Note_on_c, 1, 43, 75
1, 50655, Note_on_c, 9, 46, 0
1, 50655, Note_on_c, 9, 38, 0
1, 50700, Note_on_c, 4, 71, 0
1, 50700, Note_on_c, 12, 71, 0
1, 50700, Note_on_c, 4, 67, 80
1, 50700, Note_on_c, 12, 67, 80
1, 50760, Note_on_c, 12, 67, 0
1, 50760, Note_on_c, 6, 74, 0
1, 50760, Note_on_c, 6, 55, 0
1, 50760, Note_on_c, 4, 67, 0
1, 50760, Note_on_c, 6, 43, 0
1, 50760, Note_on_c, 6, 71, 0
1, 50760, Note_on_c, 3, 43, 0
1, 50760, Note_on_c, 6, 67, 0
1, 50760, Note_on_c, 3, 40, 100
1, 50880, Note_on_c, 3, 40, 0
1, 50880, Note_on_c, 3, 42, 100
1, 50880, Note_on_c, 6, 70, 100
1, 50880, Note_on_c, 6, 66, 100
1, 50880, Note_on_c, 6, 61, 100
1, 50880, Note_on_c, 6, 42, 100
1, 50880, Note_on_c, 6, 54, 100
1, 50880, Note_on_c, 9, 36, 100
1, 50880, Note_on_c, 9, 42, 100
1, 50885, Note_on_c, 1, 43, 0
1, 50885, Note_on_c, 1, 54, 75
1, 50885, Note_on_c, 1, 49, 75
1, 50885, Note_on_c, 1, 42, 75
1, 50895, Note_on_c, 9, 42, 0
1, 50895, Note_on_c, 9, 36, 0
1, 50940, Note_on_c, 6, 70, 0
1, 50940, Note_on_c, 3, 42, 0
1, 50940, Note_on_c, 6, 61, 0
1, 50940, Note_on_c, 6, 66, 0
1, 50940, Note_on_c, 3, 41, 100
1, 50940, Note_on_c, 6, 66, 100
1, 50940, Note_on_c, 6, 61, 100
1, 50940, Note_on_c, 6, 70, 100
1, 50945, Note_on_c, 1, 54, 0
1, 50945, Note_on_c, 1, 49, 0
1, 50945, Note_on_c, 1, 42, 0
1, 50945, Note_on_c, 1, 54, 75
1, 50945, Note_on_c, 1, 49, 75
1, 50945, Note_on_c, 1, 42, 75
1, 51000, Note_on_c, 3, 41, 0
1, 51000, Note_on_c, 6, 61, 0
1, 51000, Note_on_c, 6, 66, 0
1, 51000, Note_on_c, 6, 70, 0
1, 51000, Note_on_c, 3, 42, 100
1, 51000, Note_on_c, 6, 61, 100
1, 51000, Note_on_c, 6, 70, 100
1, 51000, Note_on_c, 6, 66, 100
1, 51000, Note_on_c, 9, 42, 100
1, 51005, Note_on_c, 1, 54, 0
1, 51005, Note_on_c, 1, 42, 0
1, 51005, Note_on_c, 1, 49, 0
1, 51005, Note_on_c, 1, 54, 75
1, 51005, Note_on_c, 1, 49, 75
1, 51005, Note_on_c, 1, 42, 75
1, 51015, Note_on_c, 9, 42, 0
1, 51060, Note_on_c, 6, 66, 0
1, 51060, Note_on_c, 6, 61, 0
1, 51060, Note_on_c, 3, 42, 0
1, 51060, Note_on_c, 6, 70, 0
1, 51060, Note_on_c, 3, 41, 100
1, 51060, Note_on_c, 6, 70, 100
1, 51060, Note_on_c, 6, 66, 100
1, 51060, Note_on_c, 6, 61, 100
1, 51060, Note_on_c, 9, 36, 100
1, 51065, Note_on_c, 1, 49, 0
1, 51065, Note_on_c, 1, 54, 0
1, 51065, Note_on_c, 1, 42, 0
1, 51065, Note_on_c, 1, 54, 75
1, 51065, Note_on_c, 1, 49, 75
1, 51065, Note_on_c, 1, 42, 75
1, 51075, Note_on_c, 9, 36, 0
1, 51120, Note_on_c, 6, 70, 0
1, 51120, Note_on_c, 3, 41, 0
1, 51120, Note_on_c, 6, 61, 0
1, 51120, Note_on_c, 6, 66, 0
1, 51120, Note_on_c, 3, 42, 100
1, 51120, Note_on_c, 6, 66, 100
1, 51120, Note_on_c, 6, 61, 100
1, 51120, Note_on_c, 6, 70, 100
1, 51120, Note_on_c, 9, 42, 100
1, 51120, Note_on_c, 9, 38, 100
1, 51125, Note_on_c, 1, 54, 0
1, 51125, Note_on_c, 1, 49, 0
1, 51125, Note_on_c, 1, 42, 0
1, 51125, Note_on_c, 1, 54, 75
1, 51125, Note_on_c, 1, 49, 75
1, 51125, Note_on_c, 1, 42, 75
1, 51135, Note_on_c, 9, 42, 0
1, 51135, Note_on_c, 9, 38, 0
1, 51180, Note_on_c, 6, 61, 0
1, 51180, Note_on_c, 6, 66, 0
1, 51180, Note_on_c, 3, 42, 0
1, 51180, Note_on_c, 6, 70, 0
1, 51180, Note_on_c, 3, 41, 100
1, 51180, Note_on_c, 6, 61, 100
1, 51180, Note_on_c, 6, 70, 100
1, 51180, Note_on_c, 6, 66, 100
1, 51185, Note_on_c, 1, 54, 0
1, 51185, Note_on_c, 1, 49, 0
1, 51185, Note_on_c, 1, 42, 0
1, 51185, Note_on_c, 1, 54, 75
1, 51185, Note_on_c, 1, 49, 75
1, 51185, Note_on_c, 1, 42, 75
1, 51240, Note_on_c, 6, 66, 0
1, 51240, Note_on_c, 3, 41, 0
1, 51240, Note_on_c, 6, 70, 0
1, 51240, Note_on_c, 6, 61, 0
1, 51240, Note_on_c, 3, 42, 100
1, 51240, Note_on_c, 6, 70, 100
1, 51240, Note_on_c, 6, 66, 100
1, 51240, Note_on_c, 6, 61, 100
1, 51240, Note_on_c, 9, 42, 100
1, 51245, Note_on_c, 1, 49, 0
1, 51245, Note_on_c, 1, 54, 0
1, 51245, Note_on_c, 1, 42, 0
1, 51245, Note_on_c, 1, 54, 75
1, 51245, Note_on_c, 1, 49, 75
1, 51245, Note_on_c, 1, 42, 75
1, 51255, Note_on_c, 9, 42, 0
1, 51300, Note_on_c, 6, 61, 0
1, 51300, Note_on_c, 6, 70, 0
1, 51300, Note_on_c, 3, 42, 0
1, 51300, Note_on_c, 6, 66, 0
1, 51300, Note_on_c, 3, 41, 100
1, 51300, Note_on_c, 6, 66, 100
1, 51300, Note_on_c, 6, 61, 100
1, 51300, Note_on_c, 6, 70, 100
1, 51305, Note_on_c, 1, 49, 0
1, 51305, Note_on_c, 1, 54, 0
1, 51305, Note_on_c, 1, 42, 0
1, 51305, Note_on_c, 1, 54, 75
1, 51305, Note_on_c, 1, 49, 75
1, 51305, Note_on_c, 1, 42, 75
1, 51360, Note_on_c, 3, 41, 0
1, 51360, Note_on_c, 6, 61, 0
1, 51360, Note_on_c, 6, 66, 0
1, 51360, Note_on_c, 6, 42, 0
1, 51360, Note_on_c, 6, 70, 0
1, 51360, Note_on_c, 6, 54, 0
1, 51360, Note_on_c, 3, 42, 100
1, 51360, Note_on_c, 6, 54, 100
1, 51360, Note_on_c, 6, 42, 100
1, 51360, Note_on_c, 6, 66, 100
1, 51360, Note_on_c, 6, 70, 100
1, 51360, Note_on_c, 6, 73, 100
1, 51360, Note_on_c, 9, 42, 100
1, 51360, Note_on_c, 9, 38, 100
1, 51365, Note_on_c, 1, 42, 0
1, 51365, Note_on_c, 1, 49, 0
1, 51365, Note_on_c, 1, 54, 0
1, 51365, Note_on_c, 1, 54, 75
1, 51365, Note_on_c, 1, 49, 75
1, 51365, Note_on_c, 1, 42, 75
1, 51375, Note_on_c, 9, 38, 0
1, 51375, Note_on_c, 9, 42, 0
1, 51420, Note_on_c, 6, 66, 0
1, 51420, Note_on_c, 3, 42, 0
1, 51420, Note_on_c, 6, 70, 0
1, 51420, Note_on_c, 6, 73, 0
1, 51420, Note_on_c, 3, 41, 100
1, 51420, Note_on_c, 6, 66, 100
1, 51420, Note_on_c, 6, 70, 100
1, 51420, Note_on_c, 6, 73, 100
1, 51420, Note_on_c, 9, 42, 100
1, 51420, Note_on_c, 9, 38, 100
1, 51425, Note_on_c, 1, 49, 0
1, 51425, Note_on_c, 1, 54, 0
1, 51425, Note_on_c, 1, 42, 0
1, 51425, Note_on_c, 1, 54, 75
1, 51425, Note_on_c, 1, 49, 75
1, 51425, Note_on_c, 1, 42, 75
1, 51435, Note_on_c, 9, 42, 0
1, 51435, Note_on_c, 9, 38, 0
1, 51480, Note_on_c, 6, 70, 0
1, 51480, Note_on_c, 6, 66, 0
1, 51480, Note_on_c, 3, 41, 0
1, 51480, Note_on_c, 6, 73, 0
1, 51480, Note_on_c, 3, 42, 100
1, 51480, Note_on_c, 6, 66, 100
1, 51480, Note_on_c, 6, 70, 100
1, 51480, Note_on_c, 6, 73, 100
1, 51480, Note_on_c, 9, 38, 100
1, 51480, Note_on_c, 9, 42, 100
1, 51485, Note_on_c, 1, 54, 0
1, 51485, Note_on_c, 1, 49, 0
1, 51485, Note_on_c, 1, 42, 0
1, 51485, Note_on_c, 1, 54, 75
1, 51485, Note_on_c, 1, 49, 75
1, 51485, Note_on_c, 1, 42, 75
1, 51495, Note_on_c, 9, 38, 0
1, 51495, Note_on_c, 9, 42, 0
1, 51540, Note_on_c, 6, 73, 0
1, 51540, Note_on_c, 3, 42, 0
1, 51540, Note_on_c, 6, 70, 0
1, 51540, Note_on_c, 6, 66, 0
1, 51540, Note_on_c, 3, 41, 100
1, 51540, Note_on_c, 6, 66, 100
1, 51540, Note_on_c, 6, 70, 100
1, 51540, Note_on_c, 6, 73, 100
1, 51540, Note_on_c, 9, 38, 100
1, 51540, Note_on_c, 9, 42, 100
1, 51540, Note_on_c, 13, 68, 127
1, 51545, Note_on_c, 1, 49, 0
1, 51545, Note_on_c, 1, 54, 0
1, 51545, Note_on_c, 1, 42, 0
1, 51545, Note_on_c, 1, 54, 75
1, 51545, Note_on_c, 1, 49, 75
1, 51545, Note_on_c, 1, 42, 75
1, 51555, Note_on_c, 9, 38, 0
1, 51555, Note_on_c, 9, 42, 0
1, 51600, Note_on_c, 6, 66, 0
1, 51600, Note_on_c, 13, 73, 0
1, 51600, Note_on_c, 6, 70, 0
1, 51600, Note_on_c, 3, 41, 0
1, 51600, Note_on_c, 6, 73, 0
1, 51600, Note_on_c, 13, 68, 0
1, 51600, Note_on_c, 3, 42, 100
1, 51600, Note_on_c, 6, 66, 100
1, 51600, Note_on_c, 6, 70, 100
1, 51600, Note_on_c, 6, 73, 100
1, 51600, Note_on_c, 9, 42, 100
1, 51600, Note_on_c, 9, 38, 100
1, 51600, Note_on_c, 13, 68, 127
1, 51600, Note_on_c, 15, 80, 105
1, 51605, Note_on_c, 1, 42, 0
1, 51605, Note_on_c, 1, 54, 0
1, 51605, Note_on_c, 1, 49, 0
1, 51605, Note_on_c, 1, 54, 75
1, 51605, Note_on_c, 1, 49, 75
1, 51605, Note_on_c, 1, 42, 75
1, 51615, Note_on_c, 9, 42, 0
1, 51615, Note_on_c, 9, 38, 0
1, 51660, Note_on_c, 6, 70, 0
1, 51660, Note_on_c, 6, 66, 0
1, 51660, Note_on_c, 6, 73, 0
1, 51660, Note_on_c, 3, 42, 0
1, 51660, Note_on_c, 15, 85, 0
1, 51660, Note_on_c, 13, 68, 0
1, 51660, Note_on_c, 15, 80, 0
1, 51660, Note_on_c, 3, 41, 100
1, 51660, Note_on_c, 6, 66, 100
1, 51660, Note_on_c, 6, 70, 100
1, 51660, Note_on_c, 6, 73, 100
1, 51660, Note_on_c, 9, 38, 100
1, 51660, Note_on_c, 9, 42, 100
1, 51660, Note_on_c, 13, 73, 127
1, 51660, Note_on_c, 13, 68, 127
1, 51660, Note_on_c, 15, 80, 105
1, 51665, Note_on_c, 1, 49, 0
1, 51665, Note_on_c, 1, 54, 0
1, 51665, Note_on_c, 1, 42, 0
1, 51665, Note_on_c, 1, 54, 75
1, 51665, Note_on_c, 1, 49, 75
1, 51665, Note_on_c, 1, 42, 75
1, 51675, Note_on_c, 9, 42, 0
1, 51675, Note_on_c, 9, 38, 0
1, 51720, Note_on_c, 6, 73, 0
1, 51720, Note_on_c, 6, 70, 0
1, 51720, Note_on_c, 3, 41, 0
1, 51720, Note_on_c, 6, 66, 0
1, 51720, Note_on_c, 13, 73, 0
1, 51720, Note_on_c, 13, 68, 0
1, 51720, Note_on_c, 15, 80, 0
1, 51720, Note_on_c, 3, 40, 100
1, 51720, Note_on_c, 6, 66, 100
1, 51720, Note_on_c, 6, 70, 100
1, 51720, Note_on_c, 6, 73, 100
1, 51720, Note_on_c, 9, 38, 100
1, 51720, Note_on_c, 13, 62, 127
1, 51720, Note_on_c, 13, 66, 127
1, 51720, Note_on_c, 15, 85, 105
1, 51720, Note_on_c, 15, 80, 105
1, 51725, Note_on_c, 1, 49, 0
1, 51725, Note_on_c, 1, 42, 0
1, 51725, Note_on_c, 1, 54, 0
1, 51725, Note_on_c, 1, 54, 75
1, 51725, Note_on_c, 1, 49, 75
1, 51725, Note_on_c, 1, 42, 75
1, 51735, Note_on_c, 9, 38, 0
1, 51750, Note_on_c, 9, 38, 100
1, 51765, Note_on_c, 9, 38, 0
1, 51780, Note_on_c, 15, 85, 0
1, 51780, Note_on_c, 6, 70, 0
1, 51780, Note_on_c, 6, 66, 0
1, 51780, Note_on_c, 3, 40, 0
1, 51780, Note_on_c, 13, 62, 0
1, 51780, Note_on_c, 6, 73, 0
1, 51780, Note_on_c, 13, 66, 0
1, 51780, Note_on_c, 15, 80, 0
1, 51780, Note_on_c, 3, 37, 100
1, 51780, Note_on_c, 6, 66, 100
1, 51780, Note_on_c, 6, 70, 100
1, 51780, Note_on_c, 6, 73, 100
1, 51780, Note_on_c, 9, 38, 100
1, 51780, Note_on_c, 15, 74, 105
1, 51780, Note_on_c, 15, 78, 105
1, 51785, Note_on_c, 1, 49, 0
1, 51785, Note_on_c, 1, 42, 0
1, 51785, Note_on_c, 1, 54, 0
1, 51785, Note_on_c, 1, 54, 75
1, 51785, Note_on_c, 1, 49, 75
1, 51785, Note_on_c, 1, 42, 75
1, 51795, Note_on_c, 9, 38, 0
1, 51810, Note_on_c, 9, 38, 100
1, 51825, Note_on_c, 9, 38, 0
1, 51840, Note_on_c, 6, 66, 0
1, 51840, Note_on_c, 6, 73, 0
1, 51840, Note_on_c, 6, 54, 0
1, 51840, Note_on_c, 6, 70, 0
1, 51840, Note_on_c, 15, 74, 0
1, 51840, Note_on_c, 3, 37, 0
1, 51840, Note_on_c, 15, 78, 0
1, 51840, Note_on_c, 6, 42, 0
1, 51840, Note_on_c, 3, 47, 100
1, 51840, Note_on_c, 6, 78, 100
1, 51840, Note_on_c, 6, 74, 100
1, 51840, Note_on_c, 6, 69, 100
1, 51840, Note_on_c, 6, 59, 100
1, 51840, Note_on_c, 6, 47, 100
1, 51840, Note_on_c, 9, 49, 100
1, 51840, Note_on_c, 9, 36, 100
1, 51845, Note_on_c, 1, 54, 0
1, 51845, Note_on_c, 1, 42, 0
1, 51845, Note_on_c, 1, 49, 0
1, 51845, Note_on_c, 1, 66, 75
1, 51845, Note_on_c, 1, 62, 75
1, 51845, Note_on_c, 1, 57, 75
1, 51845, Note_on_c, 1, 54, 75
1, 51845, Note_on_c, 1, 47, 75
1, 51855, Note_on_c, 9, 49, 0
1, 51855, Note_on_c, 9, 36, 0
1, 51900, Note_on_c, 6, 47, 0
1, 51900, Note_on_c, 6, 59, 0
1, 51900, Note_on_c, 6, 78, 0
1, 51900, Note_on_c, 6, 74, 0
1, 51900, Note_on_c, 6, 69, 0
1, 51900, Note_on_c, 6, 78, 100
1, 51900, Note_on_c, 6, 74, 100
1, 51900, Note_on_c, 6, 69, 100
1, 51900, Note_on_c, 6, 59, 100
1, 51900, Note_on_c, 6, 47, 100
1, 51900, Note_on_c, 13, 66, 127
1, 51905, Note_on_c, 1, 66, 0
1, 51905, Note_on_c, 1, 57, 0
1, 51905, Note_on_c, 1, 47, 0
1, 51905, Note_on_c, 1, 54, 0
1, 51905, Note_on_c, 1, 62, 0
1, 51905, Note_on_c, 1, 66, 75
1, 51905, Note_on_c, 1, 62, 75
1, 51905, Note_on_c, 1, 57, 75
1, 51905, Note_on_c, 1, 54, 75
1, 51905, Note_on_c, 1, 47, 75
1, 51960, Note_on_c, 6, 74, 0
1, 51960, Note_on_c, 6, 59, 0
1, 51960, Note_on_c, 3, 47, 0
1, 51960, Note_on_c, 6, 47, 0
1, 51960, Note_on_c, 6, 69, 0
1, 51960, Note_on_c, 13, 66, 0
1, 51960, Note_on_c, 6, 78, 0
1, 51960, Note_on_c, 6, 78, 100
1, 51960, Note_on_c, 6, 74, 100
1, 51960, Note_on_c, 6, 69, 100
1, 51960, Note_on_c, 6, 59, 100
1, 51960, Note_on_c, 6, 47, 100
1, 51960, Note_on_c, 9, 42, 100
1, 51960, Note_on_c, 13, 68, 127
1, 51960, Note_on_c, 15, 78, 105
1, 51965, Note_on_c, 1, 62, 0
1, 51965, Note_on_c, 1, 57, 0
1, 51965, Note_on_c, 1, 47, 0
1, 51965, Note_on_c, 1, 54, 0
1, 51965, Note_on_c, 1, 66, 0
1, 51965, Note_on_c, 1, 66, 75
1, 51965, Note_on_c, 1, 62, 75
1, 51965, Note_on_c, 1, 57, 75
1, 51965, Note_on_c, 1, 54, 75
1, 51965, Note_on_c, 1, 47, 75
1, 51975, Note_on_c, 9, 42, 0
1, 52020, Note_on_c, 6, 59, 0
1, 52020, Note_on_c, 13, 68, 0
1, 52020, Note_on_c, 6, 69, 0
1, 52020, Note_on_c, 6, 78, 0
1, 52020, Note_on_c, 6, 47, 0
1, 52020, Note_on_c, 15, 78, 0
1, 52020, Note_on_c, 6, 74, 0
1, 52020, Note_on_c, 3, 42, 100
1, 52020, Note_on_c, 6, 78, 100
1, 52020, Note_on_c, 6, 74, 100
1, 52020, Note_on_c, 6, 69, 100
1, 52020, Note_on_c, 6, 59, 100
1, 52020, Note_on_c, 6, 47, 100
1, 52020, Note_on_c, 9, 36, 100
1, 52020, Note_on_c, 13, 69, 127
1, 52020, Note_on_c, 15, 80, 105
1, 52025, Note_on_c, 1, 66, 0
1, 52025, Note_on_c, 1, 62, 0
1, 52025, Note_on_c, 1, 54, 0
1, 52025, Note_on_c, 1, 57, 0
1, 52025, Note_on_c, 1, 47, 0
1, 52025, Note_on_c, 1, 66, 75
1, 52025, Note_on_c, 1, 62, 75
1, 52025, Note_on_c, 1, 57, 75
1, 52025, Note_on_c, 1, 54, 75
1, 52025, Note_on_c, 1, 47, 75
1, 52035, Note_on_c, 9, 36, 0
1, 52080, Note_on_c, 3, 42, 0
1, 52080, Note_on_c, 6, 78, 0
1, 52080, Note_on_c, 6, 74, 0
1, 52080, Note_on_c, 6, 69, 0
1, 52080, Note_on_c, 6, 59, 0
1, 52080, Note_on_c, 6, 47, 0
1, 52080, Note_on_c, 15, 80, 0
1, 52080, Note_on_c, 3, 47, 100
1, 52080, Note_on_c, 6, 78, 100
1, 52080, Note_on_c, 6, 74, 100
1, 52080, Note_on_c, 6, 69, 100
1, 52080, Note_on_c, 6, 59, 100
1, 52080, Note_on_c, 6, 47, 100
1, 52080, Note_on_c, 9, 42, 100
1, 52080, Note_on_c, 9, 38, 100
1, 52080, Note_on_c, 15, 81, 105
1, 52085, Note_on_c, 1, 57, 0
1, 52085, Note_on_c, 1, 66, 0
1, 52085, Note_on_c, 1, 47, 0
1, 52085, Note_on_c, 1, 62, 0
1, 52085, Note_on_c, 1, 54, 0
1, 52085, Note_on_c, 1, 66, 75
1, 52085, Note_on_c, 1, 62, 75
1, 52085, Note_on_c, 1, 57, 75
1, 52085, Note_on_c, 1, 54, 75
1, 52085, Note_on_c, 1, 47, 75
1, 52095, Note_on_c, 9, 42, 0
1, 52095, Note_on_c, 9, 38, 0
1, 52200, Note_on_c, 6, 47, 0
1, 52200, Note_on_c, 6, 78, 0
1, 52200, Note_on_c, 6, 74, 0
1, 52200, Note_on_c, 3, 47, 0
1, 52200, Note_on_c, 6, 69, 0
1, 52200, Note_on_c, 6, 59, 0
1, 52200, Note_on_c, 9, 42, 100
1, 52205, Note_on_c, 1, 62, 0
1, 52205, Note_on_c, 1, 54, 0
1, 52205, Note_on_c, 1, 47, 0
1, 52205, Note_on_c, 1, 66, 0
1, 52205, Note_on_c, 1, 57, 0
1, 52205, Note_on_c, 1, 66, 60
1, 52205, Note_on_c, 1, 62, 60
1, 52205, Note_on_c, 1, 57, 60
1, 52205, Note_on_c, 1, 54, 60
1, 52205, Note_on_c, 1, 47, 60
1, 52215, Note_on_c, 9, 42, 0
1, 52320, Note_on_c, 3, 47, 100
1, 52320, Note_on_c, 6, 78, 100
1, 52320, Note_on_c, 6, 74, 100
1, 52320, Note_on_c, 6, 69, 100
1, 52320, Note_on_c, 6, 59, 100
1, 52320, Note_on_c, 6, 47, 100
1, 52320, Note_on_c, 9, 36, 100
1, 52320, Note_on_c, 9, 42, 100
1, 52325, Note_on_c, 1, 47, 0
1, 52325, Note_on_c, 1, 62, 0
1, 52325, Note_on_c, 1, 66, 0
1, 52325, Note_on_c, 1, 54, 0
1, 52325, Note_on_c, 1, 57, 0
1, 52325, Note_on_c, 1, 66, 75
1, 52325, Note_on_c, 1, 62, 75
1, 52325, Note_on_c, 1, 57, 75
1, 52325, Note_on_c, 1, 54, 75
1, 52325, Note_on_c, 1, 47, 75
1, 52335, Note_on_c, 9, 36, 0
1, 52335, Note_on_c, 9, 42, 0
1, 52380, Note_on_c, 6, 78, 0
1, 52380, Note_on_c, 3, 47, 0
1, 52380, Note_on_c, 6, 69, 0
1, 52380, Note_on_c, 6, 74, 0
1, 52380, Note_on_c, 6, 47, 0
1, 52380, Note_on_c, 6, 59, 0
1, 52380, Note_on_c, 3, 46, 100
1, 52380, Note_on_c, 6, 78, 100
1, 52380, Note_on_c, 6, 74, 100
1, 52380, Note_on_c, 6, 69, 100
1, 52380, Note_on_c, 6, 59, 100
1, 52380, Note_on_c, 6, 47, 100
1, 52385, Note_on_c, 1, 66, 0
1, 52385, Note_on_c, 1, 54, 0
1, 52385, Note_on_c, 1, 62, 0
1, 52385, Note_on_c, 1, 47, 0
1, 52385, Note_on_c, 1, 57, 0
1, 52385, Note_on_c, 1, 66, 75
1, 52385, Note_on_c, 1, 62, 75
1, 52385, Note_on_c, 1, 57, 75
1, 52385, Note_on_c, 1, 54, 75
1, 52385, Note_on_c, 1, 47, 75
1, 52440, Note_on_c, 3, 46, 0
1, 52440, Note_on_c, 6, 59, 0
1, 52440, Note_on_c, 6, 78, 0
1, 52440, Note_on_c, 6, 47, 0
1, 52440, Note_on_c, 6, 74, 0
1, 52440, Note_on_c, 6, 69, 0
1, 52440, Note_on_c, 3, 47, 100
1, 52440, Note_on_c, 6, 78, 100
1, 52440, Note_on_c, 6, 74, 100
1, 52440, Note_on_c, 6, 69, 100
1, 52440, Note_on_c, 6, 59, 100
1, 52440, Note_on_c, 6, 47, 100
1, 52440, Note_on_c, 9, 42, 100
1, 52445, Note_on_c, 1, 57, 0
1, 52445, Note_on_c, 1, 47, 0
1, 52445, Note_on_c, 1, 54, 0
1, 52445, Note_on_c, 1, 66, 0
1, 52445, Note_on_c, 1, 62, 0
1, 52445, Note_on_c, 1, 66, 75
1, 52445, Note_on_c, 1, 62, 75
1, 52445, Note_on_c, 1, 57, 75
1, 52445, Note_on_c, 1, 54, 75
1, 52445, Note_on_c, 1, 47, 75
1, 52455, Note_on_c, 9, 42, 0
1, 52500, Note_on_c, 6, 47, 0
1, 52500, Note_on_c, 6, 78, 0
1, 52500, Note_on_c, 3, 47, 0
1, 52500, Note_on_c, 6, 74, 0
1, 52500, Note_on_c, 6, 59, 0
1, 52500, Note_on_c, 6, 69, 0
1, 52500, Note_on_c, 3, 47, 100
1, 52500, Note_on_c, 6, 78, 100
1, 52500, Note_on_c, 6, 74, 100
1, 52500, Note_on_c, 6, 69, 100
1, 52500, Note_on_c, 6, 59, 100
1, 52500, Note_on_c, 6, 47, 100
1, 52500, Note_on_c, 9, 36, 100
1, 52505, Note_on_c, 1, 62, 0
1, 52505, Note_on_c, 1, 57, 0
1, 52505, Note_on_c, 1, 66, 0
1, 52505, Note_on_c, 1, 47, 0
1, 52505, Note_on_c, 1, 54, 0
1, 52505, Note_on_c, 1, 66, 75
1, 52505, Note_on_c, 1, 62, 75
1, 52505, Note_on_c, 1, 57, 75
1, 52505, Note_on_c, 1, 54, 75
1, 52505, Note_on_c, 1, 47, 75
1, 52515, Note_on_c, 9, 36, 0
1, 52560, Note_on_c, 6, 47, 0
1, 52560, Note_on_c, 6, 78, 0
1, 52560, Note_on_c, 3, 47, 0
1, 52560, Note_on_c, 6, 74, 0
1, 52560, Note_on_c, 6, 59, 0
1, 52560, Note_on_c, 6, 69, 0
1, 52560, Note_on_c, 3, 47, 100
1, 52560, Note_on_c, 6, 78, 100
1, 52560, Note_on_c, 6, 74, 100
1, 52560, Note_on_c, 6, 69, 100
1, 52560, Note_on_c, 6, 59, 100
1, 52560, Note_on_c, 6, 47, 100
1, 52560, Note_on_c, 9, 46, 100
1, 52560, Note_on_c, 9, 38, 100
1, 52565, Note_on_c, 1, 62, 0
1, 52565, Note_on_c, 1, 57, 0
1, 52565, Note_on_c, 1, 66, 0
1, 52565, Note_on_c, 1, 47, 0
1, 52565, Note_on_c, 1, 54, 0
1, 52565, Note_on_c, 1, 66, 75
1, 52565, Note_on_c, 1, 62, 75
1, 52565, Note_on_c, 1, 57, 75
1, 52565, Note_on_c, 1, 54, 75
1, 52565, Note_on_c, 1, 47, 75
1, 52575, Note_on_c, 9, 46, 0
1, 52575, Note_on_c, 9, 38, 0
1, 52680, Note_on_c, 6, 69, 0
1, 52680, Note_on_c, 6, 78, 0
1, 52680, Note_on_c, 13, 69, 0
1, 52680, Note_on_c, 3, 47, 0
1, 52680, Note_on_c, 6, 74, 0
1, 52680, Note_on_c, 6, 47, 0
1, 52680, Note_on_c, 6, 59, 0
1, 52680, Note_on_c, 3, 43, 100
1, 52680, Note_on_c, 13, 71, 127
1, 52685, Note_on_c, 1, 57, 0
1, 52685, Note_on_c, 1, 62, 0
1, 52685, Note_on_c, 1, 54, 0
1, 52685, Note_on_c, 1, 66, 0
1, 52685, Note_on_c, 1, 47, 0
1, 52685, Note_on_c, 1, 66, 60
1, 52685, Note_on_c, 1, 62, 60
1, 52685, Note_on_c, 1, 57, 60
1, 52685, Note_on_c, 1, 54, 60
1, 52685, Note_on_c, 1, 47, 60
1, 52740, Note_on_c, 15, 81, 0
1, 52740, Note_on_c, 3, 43, 0
1, 52740, Note_on_c, 3, 44, 100
1, 52740, Note_on_c, 15, 83, 105
1, 52800, Note_on_c, 3, 44, 0
1, 52800, Note_on_c, 3, 45, 100
1, 52800, Note_on_c, 6, 76, 100
1, 52800, Note_on_c, 6, 73, 100
1, 52800, Note_on_c, 6, 57, 100
1, 52800, Note_on_c, 6, 45, 100
1, 52800, Note_on_c, 6, 69, 100
1, 52800, Note_on_c, 9, 42, 100
1, 52800, Note_on_c, 9, 36, 100
1, 52805, Note_on_c, 1, 47, 0
1, 52805, Note_on_c, 1, 62, 0
1, 52805, Note_on_c, 1, 66, 0
1, 52805, Note_on_c, 1, 54, 0
1, 52805, Note_on_c, 1, 57, 0
1, 52805, Note_on_c, 1, 64, 75
1, 52805, Note_on_c, 1, 61, 75
1, 52805, Note_on_c, 1, 52, 75
1, 52805, Note_on_c, 1, 45, 75
1, 52805, Note_on_c, 1, 57, 75
1, 52815, Note_on_c, 9, 42, 0
1, 52815, Note_on_c, 9, 36, 0
1, 52860, Note_on_c, 6, 76, 0
1, 52860, Note_on_c, 6, 57, 0
1, 52860, Note_on_c, 6, 73, 0
1, 52860, Note_on_c, 6, 69, 0
1, 52860, Note_on_c, 6, 45, 0
1, 52860, Note_on_c, 6, 76, 100
1, 52860, Note_on_c, 6, 57, 100
1, 52860, Note_on_c, 6, 45, 100
1, 52860, Note_on_c, 6, 69, 100
1, 52860, Note_on_c, 6, 73, 100
1, 52865, Note_on_c, 1, 57, 0
1, 52865, Note_on_c, 1, 61, 0
1, 52865, Note_on_c, 1, 45, 0
1, 52865, Note_on_c, 1, 52, 0
1, 52865, Note_on_c, 1, 64, 0
1, 52865, Note_on_c, 1, 61, 75
1, 52865, Note_on_c, 1, 52, 75
1, 52865, Note_on_c, 1, 64, 75
1, 52865, Note_on_c, 1, 57, 75
1, 52865, Note_on_c, 1, 45, 75
1, 52920, Note_on_c, 3, 45, 0
1, 52920, Note_on_c, 6, 73, 0
1, 52920, Note_on_c, 6, 76, 0
1, 52920, Note_on_c, 6, 45, 0
1, 52920, Note_on_c, 6, 69, 0
1, 52920, Note_on_c, 6, 57, 0
1, 52920, Note_on_c, 6, 73, 100
1, 52920, Note_on_c, 6, 76, 100
1, 52920, Note_on_c, 6, 69, 100
1, 52920, Note_on_c, 6, 57, 100
1, 52920, Note_on_c, 6, 45, 100
1, 52920, Note_on_c, 9, 42, 100
1, 52925, Note_on_c, 1, 64, 0
1, 52925, Note_on_c, 1, 57, 0
1, 52925, Note_on_c, 1, 52, 0
1, 52925, Note_on_c, 1, 61, 0
1, 52925, Note_on_c, 1, 45, 0
1, 52925, Note_on_c, 1, 61, 75
1, 52925, Note_on_c, 1, 64, 75
1, 52925, Note_on_c, 1, 57, 75
1, 52925, Note_on_c, 1, 52, 75
1, 52925, Note_on_c, 1, 45, 75
1, 52935, Note_on_c, 9, 42, 0
1, 52980, Note_on_c, 6, 73, 0
1, 52980, Note_on_c, 6, 76, 0
1, 52980, Note_on_c, 6, 45, 0
1, 52980, Note_on_c, 6, 69, 0
1, 52980, Note_on_c, 6, 57, 0
1, 52980, Note_on_c, 3, 40, 100
1, 52980, Note_on_c, 6, 76, 100
1, 52980, Note_on_c, 6, 69, 100
1, 52980, Note_on_c, 6, 73, 100
1, 52980, Note_on_c, 6, 57, 100
1, 52980, Note_on_c, 6, 45, 100
1, 52980, Note_on_c, 9, 36, 100
1, 52985, Note_on_c, 1, 57, 0
1, 52985, Note_on_c, 1, 45, 0
1, 52985, Note_on_c, 1, 52, 0
1, 52985, Note_on_c, 1, 61, 0
1, 52985, Note_on_c, 1, 64, 0
1, 52985, Note_on_c, 1, 61, 75
1, 52985, Note_on_c, 1, 64, 75
1, 52985, Note_on_c, 1, 52, 75
1, 52985, Note_on_c, 1, 45, 75
1, 52985, Note_on_c, 1, 57, 75
1, 52995, Note_on_c, 9, 36, 0
1, 53040, Note_on_c, 6, 45, 0
1, 53040, Note_on_c, 6, 76, 0
1, 53040, Note_on_c, 3, 40, 0
1, 53040, Note_on_c, 13, 71, 0
1, 53040, Note_on_c, 6, 69, 0
1, 53040, Note_on_c, 6, 57, 0
1, 53040, Note_on_c, 6, 73, 0
1, 53040, Note_on_c, 3, 45, 100
1, 53040, Note_on_c, 6, 73, 100
1, 53040, Note_on_c, 6, 57, 100
1, 53040, Note_on_c, 6, 45, 100
1, 53040, Note_on_c, 6, 76, 100
1, 53040, Note_on_c, 6, 69, 100
1, 53040, Note_on_c, 9, 38, 100
1, 53040, Note_on_c, 9, 42, 100
1, 53040, Note_on_c, 13, 71, 127
1, 53042, Pitch_bend_c, 13, 6400
1, 53045, Note_on_c, 1, 57, 0
1, 53045, Note_on_c, 1, 64, 0
1, 53045, Note_on_c, 1, 45, 0
1, 53045, Note_on_c, 1, 52, 0
1, 53045, Note_on_c, 1, 61, 0
1, 53045, Note_on_c, 1, 64, 75
1, 53045, Note_on_c, 1, 57, 75
1, 53045, Note_on_c, 1, 52, 75
1, 53045, Note_on_c, 1, 45, 75
1, 53045, Note_on_c, 1, 61, 75
1, 53050, Pitch_bend_c, 13, 6528
1, 53055, Note_on_c, 9, 38, 0
1, 53055, Note_on_c, 9, 42, 0
1, 53055, Pitch_bend_c, 13, 6656
1, 53060, Pitch_bend_c, 13, 6784
1, 53065, Pitch_bend_c, 13, 6912
1, 53070, Pitch_bend_c, 13, 7040
1, 53077, Pitch_bend_c, 13, 7168
1, 53082, Pitch_bend_c, 13, 7296
1, 53087, Pitch_bend_c, 13, 7424
1, 53092, Pitch_bend_c, 13, 7552
1, 53097, Pitch_bend_c, 13, 7680
1, 53100, Note_on_c, 15, 83, 0
1, 53100, Note_on_c, 15, 83, 105
1, 53102, Pitch_bend_c, 15, 6400
1, 53105, Pitch_bend_c, 13, 7808
1, 53110, Pitch_bend_c, 13, 7936
1, 53110, Pitch_bend_c, 15, 6528
1, 53115, Pitch_bend_c, 13, 8064
1, 53115, Pitch_bend_c, 15, 6656
1, 53120, Pitch_bend_c, 13, 8192
1, 53120, Pitch_bend_c, 15, 6784
1, 53125, Pitch_bend_c, 13, 8320
1, 53125, Pitch_bend_c, 15, 6912
1, 53130, Pitch_bend_c, 15, 7040
1, 53137, Pitch_bend_c, 15, 7168
1, 53142, Pitch_bend_c, 15, 7296
1, 53147, Pitch_bend_c, 15, 7424
1, 53152, Pitch_bend_c, 15, 7552
1, 53157, Pitch_bend_c, 15, 7680
1, 53160, Note_on_c, 6, 73, 0
1, 53160, Note_on_c, 6, 57, 0
1, 53160, Note_on_c, 3, 45, 0
1, 53160, Note_on_c, 6, 45, 0
1, 53160, Note_on_c, 6, 69, 0
1, 53160, Note_on_c, 6, 76, 0
1, 53160, Note_on_c, 9, 42, 100
1, 53165, Note_on_c, 1, 64, 0
1, 53165, Note_on_c, 1, 52, 0
1, 53165, Note_on_c, 1, 57, 0
1, 53165, Note_on_c, 1, 61, 0
1, 53165, Note_on_c, 1, 45, 0
1, 53165, Note_on_c, 1, 52, 60
1, 53165, Note_on_c, 1, 45, 60
1, 53165, Note_on_c, 1, 64, 60
1, 53165, Note_on_c, 1, 61, 60
1, 53165, Note_on_c, 1, 57, 60
1, 53165, Pitch_bend_c, 15, 7808
1, 53170, Pitch_bend_c, 15, 7936
1, 53175, Note_on_c, 9, 42, 0
1, 53175, Pitch_bend_c, 15, 8064
1, 53180, Pitch_bend_c, 15, 8192
1, 53185, Pitch_bend_c, 15, 8320
1, 53280, Note_on_c, 3, 45, 100
1, 53280, Note_on_c, 6, 76, 100
1, 53280, Note_on_c, 6, 73, 100
1, 53280, Note_on_c, 6, 57, 100
1, 53280, Note_on_c, 6, 45, 100
1, 53280, Note_on_c, 6, 69, 100
1, 53280, Note_on_c, 9, 36, 100
1, 53280, Note_on_c, 9, 42, 100
1, 53285, Note_on_c, 1, 57, 0
1, 53285, Note_on_c, 1, 45, 0
1, 53285, Note_on_c, 1, 52, 0
1, 53285, Note_on_c, 1, 61, 0
1, 53285, Note_on_c, 1, 64, 0
1, 53285, Note_on_c, 1, 64, 75
1, 53285, Note_on_c, 1, 61, 75
1, 53285, Note_on_c, 1, 52, 75
1, 53285, Note_on_c, 1, 45, 75
1, 53285, Note_on_c, 1, 57, 75
1, 53295, Note_on_c, 9, 36, 0
1, 53295, Note_on_c, 9, 42, 0
1, 53340, Note_on_c, 6, 76, 0
1, 53340, Note_on_c, 3, 45, 0
1, 53340, Note_on_c, 6, 57, 0
1, 53340, Note_on_c, 6, 73, 0
1, 53340, Note_on_c, 6, 69, 0
1, 53340, Note_on_c, 6, 45, 0
1, 53340, Note_on_c, 3, 44, 100
1, 53340, Note_on_c, 6, 76, 100
1, 53340, Note_on_c, 6, 57, 100
1, 53340, Note_on_c, 6, 45, 100
1, 53340, Note_on_c, 6, 69, 100
1, 53340, Note_on_c, 6, 73, 100
1, 53345, Note_on_c, 1, 64, 0
1, 53345, Note_on_c, 1, 45, 0
1, 53345, Note_on_c, 1, 61, 0
1, 53345, Note_on_c, 1, 57, 0
1, 53345, Note_on_c, 1, 52, 0
1, 53345, Note_on_c, 1, 61, 75
1, 53345, Note_on_c, 1, 52, 75
1, 53345, Note_on_c, 1, 64, 75
1, 53345, Note_on_c, 1, 57, 75
1, 53345, Note_on_c, 1, 45, 75
1, 53400, Note_on_c, 3, 44, 0
1, 53400, Note_on_c, 6, 69, 0
1, 53400, Note_on_c, 6, 76, 0
1, 53400, Note_on_c, 6, 73, 0
1, 53400, Note_on_c, 6, 57, 0
1, 53400, Note_on_c, 6, 45, 0
1, 53400, Note_on_c, 3, 45, 100
1, 53400, Note_on_c, 6, 73, 100
1, 53400, Note_on_c, 6, 76, 100
1, 53400, Note_on_c, 6, 69, 100
1, 53400, Note_on_c, 6, 57, 100
1, 53400, Note_on_c, 6, 45, 100
1, 53400, Note_on_c, 9, 42, 100
1, 53405, Note_on_c, 1, 64, 0
1, 53405, Note_on_c, 1, 45, 0
1, 53405, Note_on_c, 1, 57, 0
1, 53405, Note_on_c, 1, 61, 0
1, 53405, Note_on_c, 1, 52, 0
1, 53405, Note_on_c, 1, 61, 75
1, 53405, Note_on_c, 1, 64, 75
1, 53405, Note_on_c, 1, 57, 75
1, 53405, Note_on_c, 1, 52, 75
1, 53405, Note_on_c, 1, 45, 75
1, 53415, Note_on_c, 9, 42, 0
1, 53460, Note_on_c, 6, 45, 0
1, 53460, Note_on_c, 6, 73, 0
1, 53460, Note_on_c, 3, 45, 0
1, 53460, Note_on_c, 6, 76, 0
1, 53460, Note_on_c, 6, 57, 0
1, 53460, Note_on_c, 6, 69, 0
1, 53460, Note_on_c, 3, 45, 100
1, 53460, Note_on_c, 6, 76, 100
1, 53460, Note_on_c, 6, 69, 100
1, 53460, Note_on_c, 6, 73, 100
1, 53460, Note_on_c, 6, 57, 100
1, 53460, Note_on_c, 6, 45, 100
1, 53460, Note_on_c, 9, 36, 100
1, 53465, Note_on_c, 1, 64, 0
1, 53465, Note_on_c, 1, 57, 0
1, 53465, Note_on_c, 1, 61, 0
1, 53465, Note_on_c, 1, 45, 0
1, 53465, Note_on_c, 1, 52, 0
1, 53465, Note_on_c, 1, 61, 75
1, 53465, Note_on_c, 1, 64, 75
1, 53465, Note_on_c, 1, 52, 75
1, 53465, Note_on_c, 1, 45, 75
1, 53465, Note_on_c, 1, 57, 75
1, 53475, Note_on_c, 9, 36, 0
1, 53520, Note_on_c, 6, 45, 0
1, 53520, Note_on_c, 6, 76, 0
1, 53520, Note_on_c, 3, 45, 0
1, 53520, Note_on_c, 13, 71, 0
1, 53520, Note_on_c, 6, 69, 0
1, 53520, Note_on_c, 6, 57, 0
1, 53520, Note_on_c, 6, 73, 0
1, 53520, Note_on_c, 3, 45, 100
1, 53520, Note_on_c, 6, 73, 100
1, 53520, Note_on_c, 6, 57, 100
1, 53520, Note_on_c, 6, 45, 100
1, 53520, Note_on_c, 6, 76, 100
1, 53520, Note_on_c, 6, 69, 100
1, 53520, Note_on_c, 9, 46, 100
1, 53520, Note_on_c, 9, 38, 100
1, 53520, Note_on_c, 13, 71, 127
1, 53522, Pitch_bend_c, 13, 6784
1, 53525, Note_on_c, 1, 57, 0
1, 53525, Note_on_c, 1, 64, 0
1, 53525, Note_on_c, 1, 45, 0
1, 53525, Note_on_c, 1, 52, 0
1, 53525, Note_on_c, 1, 61, 0
1, 53525, Note_on_c, 1, 64, 75
1, 53525, Note_on_c, 1, 57, 75
1, 53525, Note_on_c, 1, 52, 75
1, 53525, Note_on_c, 1, 45, 75
1, 53525, Note_on_c, 1, 61, 75
1, 53530, Pitch_bend_c, 13, 6912
1, 53535, Note_on_c, 9, 46, 0
1, 53535, Note_on_c, 9, 38, 0
1, 53535, Pitch_bend_c, 13, 7040
1, 53540, Pitch_bend_c, 13, 7168
1, 53547, Pitch_bend_c, 13, 7296
1, 53552, Pitch_bend_c, 13, 7424
1, 53557, Pitch_bend_c, 13, 7552
1, 53565, Pitch_bend_c, 13, 7680
1, 53570, Pitch_bend_c, 13, 7808
1, 53575, Pitch_bend_c, 13, 7936
1, 53580, Note_on_c, 15, 83, 0
1, 53580, Note_on_c, 15, 83, 105
1, 53582, Pitch_bend_c, 13, 8064
1, 53582, Pitch_bend_c, 15, 6784
1, 53587, Pitch_bend_c, 13, 8192
1, 53590, Pitch_bend_c, 15, 6912
1, 53592, Pitch_bend_c, 13, 8320
1, 53595, Pitch_bend_c, 15, 7040
1, 53600, Pitch_bend_c, 15, 7168
1, 53607, Pitch_bend_c, 15, 7296
1, 53612, Pitch_bend_c, 15, 7424
1, 53617, Pitch_bend_c, 15, 7552
1, 53625, Pitch_bend_c, 15, 7680
1, 53630, Pitch_bend_c, 15, 7808
1, 53635, Pitch_bend_c, 15, 7936
1, 53640, Note_on_c, 6, 73, 0
1, 53640, Note_on_c, 6, 57, 0
1, 53640, Note_on_c, 3, 45, 0
1, 53640, Note_on_c, 6, 45, 0
1, 53640, Note_on_c, 6, 69, 0
1, 53640, Note_on_c, 6, 76, 0
1, 53640, Note_on_c, 3, 43, 100
1, 53642, Pitch_bend_c, 15, 8064
1, 53645, Note_on_c, 1, 64, 0
1, 53645, Note_on_c, 1, 52, 0
1, 53645, Note_on_c, 1, 57, 0
1, 53645, Note_on_c, 1, 61, 0
1, 53645, Note_on_c, 1, 45, 0
1, 53645, Note_on_c, 1, 52, 60
1, 53645, Note_on_c, 1, 45, 60
1, 53645, Note_on_c, 1, 64, 60
1, 53645, Note_on_c, 1, 61, 60
1, 53645, Note_on_c, 1, 57, 60
1, 53647, Pitch_bend_c, 15, 8192
1, 53652, Pitch_bend_c, 15, 8320
1, 53760, Note_on_c, 3, 43, 0
1, 53760, Note_on_c, 13, 71, 0
1, 53760, Note_on_c, 3, 43, 100
1, 53760, Note_on_c, 6, 74, 100
1, 53760, Note_on_c, 6, 71, 100
1, 53760, Note_on_c, 6, 55, 100
1, 53760, Note_on_c, 6, 43, 100
1, 53760, Note_on_c, 6, 67, 100
1, 53760, Note_on_c, 9, 42, 100
1, 53760, Note_on_c, 9, 36, 100
1, 53765, Note_on_c, 1, 61, 0
1, 53765, Note_on_c, 1, 57, 0
1, 53765, Note_on_c, 1, 45, 0
1, 53765, Note_on_c, 1, 52, 0
1, 53765, Note_on_c, 1, 64, 0
1, 53765, Note_on_c, 1, 62, 75
1, 53765, Note_on_c, 1, 59, 75
1, 53765, Note_on_c, 1, 50, 75
1, 53765, Note_on_c, 1, 43, 75
1, 53765, Note_on_c, 1, 55, 75
1, 53775, Note_on_c, 9, 42, 0
1, 53775, Note_on_c, 9, 36, 0
1, 53820, Note_on_c, 15, 83, 0
1, 53820, Note_on_c, 6, 74, 0
1, 53820, Note_on_c, 6, 71, 0
1, 53820, Note_on_c, 6, 67, 0
1, 53820, Note_on_c, 6, 43, 0
1, 53820, Note_on_c, 6, 55, 0
1, 53820, Note_on_c, 6, 74, 100
1, 53820, Note_on_c, 6, 55, 100
1, 53820, Note_on_c, 6, 43, 100
1, 53820, Note_on_c, 6, 67, 100
1, 53820, Note_on_c, 6, 71, 100
1, 53825, Note_on_c, 1, 43, 0
1, 53825, Note_on_c, 1, 62, 0
1, 53825, Note_on_c, 1, 50, 0
1, 53825, Note_on_c, 1, 59, 0
1, 53825, Note_on_c, 1, 55, 0
1, 53825, Note_on_c, 1, 59, 75
1, 53825, Note_on_c, 1, 50, 75
1, 53825, Note_on_c, 1, 62, 75
1, 53825, Note_on_c, 1, 55, 75
1, 53825, Note_on_c, 1, 43, 75
1, 53880, Note_on_c, 6, 74, 0
1, 53880, Note_on_c, 6, 43, 0
1, 53880, Note_on_c, 6, 71, 0
1, 53880, Note_on_c, 6, 67, 0
1, 53880, Note_on_c, 6, 55, 0
1, 53880, Note_on_c, 3, 43, 0
1, 53880, Note_on_c, 6, 71, 100
1, 53880, Note_on_c, 6, 74, 100
1, 53880, Note_on_c, 6, 67, 100
1, 53880, Note_on_c, 6, 55, 100
1, 53880, Note_on_c, 6, 43, 100
1, 53880, Note_on_c, 9, 42, 100
1, 53880, Note_on_c, 13, 76, 127
1, 53885, Note_on_c, 1, 50, 0
1, 53885, Note_on_c, 1, 62, 0
1, 53885, Note_on_c, 1, 43, 0
1, 53885, Note_on_c, 1, 55, 0
1, 53885, Note_on_c, 1, 59, 0
1, 53885, Note_on_c, 1, 59, 75
1, 53885, Note_on_c, 1, 62, 75
1, 53885, Note_on_c, 1, 55, 75
1, 53885, Note_on_c, 1, 50, 75
1, 53885, Note_on_c, 1, 43, 75
1, 53895, Note_on_c, 9, 42, 0
1, 53940, Note_on_c, 6, 67, 0
1, 53940, Note_on_c, 6, 43, 0
1, 53940, Note_on_c, 6, 55, 0
1, 53940, Note_on_c, 6, 71, 0
1, 53940, Note_on_c, 6, 74, 0
1, 53940, Note_on_c, 3, 42, 100
1, 53940, Note_on_c, 6, 74, 100
1, 53940, Note_on_c, 6, 67, 100
1, 53940, Note_on_c, 6, 71, 100
1, 53940, Note_on_c, 6, 55, 100
1, 53940, Note_on_c, 6, 43, 100
1, 53940, Note_on_c, 9, 36, 100
1, 53940, Note_on_c, 15, 88, 105
1, 53945, Note_on_c, 1, 59, 0
1, 53945, Note_on_c, 1, 50, 0
1, 53945, Note_on_c, 1, 62, 0
1, 53945, Note_on_c, 1, 43, 0
1, 53945, Note_on_c, 1, 55, 0
1, 53945, Note_on_c, 1, 59, 75
1, 53945, Note_on_c, 1, 62, 75
1, 53945, Note_on_c, 1, 50, 75
1, 53945, Note_on_c, 1, 43, 75
1, 53945, Note_on_c, 1, 55, 75
1, 53955, Note_on_c, 9, 36, 0
1, 54000, Note_on_c, 6, 74, 0
1, 54000, Note_on_c, 6, 67, 0
1, 54000, Note_on_c, 6, 43, 0
1, 54000, Note_on_c, 6, 71, 0
1, 54000, Note_on_c, 6, 55, 0
1, 54000, Note_on_c, 3, 42, 0
1, 54000, Note_on_c, 3, 43, 100
1, 54000, Note_on_c, 6, 71, 100
1, 54000, Note_on_c, 6, 55, 100
1, 54000, Note_on_c, 6, 43, 100
1, 54000, Note_on_c, 6, 74, 100
1, 54000, Note_on_c, 6, 67, 100
1, 54000, Note_on_c, 9, 42, 100
1, 54000, Note_on_c, 9, 38, 100
1, 54005, Note_on_c, 1, 50, 0
1, 54005, Note_on_c, 1, 55, 0
1, 54005, Note_on_c, 1, 43, 0
1, 54005, Note_on_c, 1, 62, 0
1, 54005, Note_on_c, 1, 59, 0
1, 54005, Note_on_c, 1, 62, 75
1, 54005, Note_on_c, 1, 55, 75
1, 54005, Note_on_c, 1, 50, 75
1, 54005, Note_on_c, 1, 43, 75
1, 54005, Note_on_c, 1, 59, 75
1, 54015, Note_on_c, 9, 42, 0
1, 54015, Note_on_c, 9, 38, 0
1, 54120, Note_on_c, 6, 71, 0
1, 54120, Note_on_c, 3, 43, 0
1, 54120, Note_on_c, 6, 43, 0
1, 54120, Note_on_c, 6, 55, 0
1, 54120, Note_on_c, 13, 76, 0
1, 54120, Note_on_c, 6, 67, 0
1, 54120, Note_on_c, 6, 74, 0
1, 54120, Note_on_c, 9, 42, 100
1, 54120, Note_on_c, 13, 78, 127
1, 54125, Note_on_c, 1, 59, 0
1, 54125, Note_on_c, 1, 62, 0
1, 54125, Note_on_c, 1, 43, 0
1, 54125, Note_on_c, 1, 55, 0
1, 54125, Note_on_c, 1, 50, 0
1, 54125, Note_on_c, 1, 50, 60
1, 54125, Note_on_c, 1, 43, 60
1, 54125, Note_on_c, 1, 62, 60
1, 54125, Note_on_c, 1, 59, 60
1, 54125, Note_on_c, 1, 55, 60
1, 54135, Note_on_c, 9, 42, 0
1, 54180, Note_on_c, 15, 88, 0
1, 54180, Note_on_c, 15, 90, 105
1, 54240, Note_on_c, 13, 78, 0
1, 54240, Note_on_c, 3, 43, 100
1, 54240, Note_on_c, 6, 74, 100
1, 54240, Note_on_c, 6, 71, 100
1, 54240, Note_on_c, 6, 55, 100
1, 54240, Note_on_c, 6, 43, 100
1, 54240, Note_on_c, 6, 67, 100
1, 54240, Note_on_c, 9, 36, 100
1, 54240, Note_on_c, 9, 42, 100
1, 54240, Note_on_c, 13, 78, 127
1, 54245, Note_on_c, 1, 59, 0
1, 54245, Note_on_c, 1, 55, 0
1, 54245, Note_on_c, 1, 43, 0
1, 54245, Note_on_c, 1, 50, 0
1, 54245, Note_on_c, 1, 62, 0
1, 54245, Note_on_c, 1, 43, 75
1, 54255, Note_on_c, 9, 36, 0
1, 54255, Note_on_c, 9, 42, 0
1, 54300, Note_on_c, 3, 43, 0
1, 54300, Note_on_c, 6, 74, 0
1, 54300, Note_on_c, 6, 71, 0
1, 54300, Note_on_c, 6, 43, 0
1, 54300, Note_on_c, 15, 90, 0
1, 54300, Note_on_c, 6, 55, 0
1, 54300, Note_on_c, 6, 67, 0
1, 54300, Note_on_c, 3, 42, 100
1, 54300, Note_on_c, 6, 74, 100
1, 54300, Note_on_c, 6, 55, 100
1, 54300, Note_on_c, 6, 43, 100
1, 54300, Note_on_c, 6, 67, 100
1, 54300, Note_on_c, 6, 71, 100
1, 54300, Note_on_c, 15, 90, 105
1, 54305, Note_on_c, 1, 43, 0
1, 54305, Note_on_c, 1, 43, 75
1, 54360, Note_on_c, 6, 71, 0
1, 54360, Note_on_c, 6, 55, 0
1, 54360, Note_on_c, 6, 74, 0
1, 54360, Note_on_c, 6, 43, 0
1, 54360, Note_on_c, 3, 42, 0
1, 54360, Note_on_c, 6, 67, 0
1, 54360, Note_on_c, 3, 43, 100
1, 54360, Note_on_c, 6, 71, 100
1, 54360, Note_on_c, 6, 74, 100
1, 54360, Note_on_c, 6, 67, 100
1, 54360, Note_on_c, 6, 55, 100
1, 54360, Note_on_c, 6, 43, 100
1, 54360, Note_on_c, 9, 42, 100
1, 54365, Note_on_c, 1, 43, 0
1, 54365, Note_on_c, 1, 43, 75
1, 54375, Note_on_c, 9, 42, 0
1, 54420, Note_on_c, 3, 43, 0
1, 54420, Note_on_c, 6, 55, 0
1, 54420, Note_on_c, 6, 71, 0
1, 54420, Note_on_c, 6, 74, 0
1, 54420, Note_on_c, 6, 43, 0
1, 54420, Note_on_c, 6, 67, 0
1, 54420, Note_on_c, 3, 42, 100
1, 54420, Note_on_c, 6, 74, 100
1, 54420, Note_on_c, 6, 67, 100
1, 54420, Note_on_c, 6, 71, 100
1, 54420, Note_on_c, 6, 55, 100
1, 54420, Note_on_c, 6, 43, 100
1, 54420, Note_on_c, 9, 36, 100
1, 54425, Note_on_c, 1, 43, 0
1, 54425, Note_on_c, 1, 43, 75
1, 54435, Note_on_c, 9, 36, 0
1, 54480, Note_on_c, 3, 42, 0
1, 54480, Note_on_c, 6, 55, 0
1, 54480, Note_on_c, 6, 74, 0
1, 54480, Note_on_c, 6, 67, 0
1, 54480, Note_on_c, 6, 43, 0
1, 54480, Note_on_c, 6, 71, 0
1, 54480, Note_on_c, 3, 43, 100
1, 54480, Note_on_c, 6, 71, 100
1, 54480, Note_on_c, 6, 55, 100
1, 54480, Note_on_c, 6, 43, 100
1, 54480, Note_on_c, 6, 74, 100
1, 54480, Note_on_c, 6, 67, 100
1, 54480, Note_on_c, 9, 46, 100
1, 54480, Note_on_c, 9, 38, 100
1, 54485, Note_on_c, 1, 43, 0
1, 54485, Note_on_c, 1, 43, 75
1, 54495, Note_on_c, 9, 38, 0
1, 54495, Note_on_c, 9, 46, 0
1, 54600, Note_on_c, 3, 43, 0
1, 54600, Note_on_c, 6, 74, 0
1, 54600, Note_on_c, 6, 71, 0
1, 54600, Note_on_c, 6, 55, 0
1, 54600, Note_on_c, 6, 67, 0
1, 54600, Note_on_c, 6, 43, 0
1, 54600, Note_on_c, 3, 40, 100
1, 54720, Note_on_c, 3, 40, 0
1, 54720, Note_on_c, 13, 78, 0
1, 54720, Note_on_c, 3, 42, 100
1, 54720, Note_on_c, 6, 70, 100
1, 54720, Note_on_c, 6, 66, 100
1, 54720, Note_on_c, 6, 61, 100
1, 54720, Note_on_c, 6, 42, 100
1, 54720, Note_on_c, 6, 54, 100
1, 54720, Note_on_c, 9, 36, 100
1, 54720, Note_on_c, 9, 42, 100
1, 54720, Note_on_c, 13, 78, 127
1, 54722, Pitch_bend_c, 13, 6144
1, 54725, Note_on_c, 1, 43, 0
1, 54725, Note_on_c, 1, 54, 75
1, 54725, Note_on_c, 1, 49, 75
1, 54725, Note_on_c, 1, 42, 75
1, 54732, Pitch_bend_c, 13, 6272
1, 54735, Note_on_c, 9, 42, 0
1, 54735, Note_on_c, 9, 36, 0
1, 54742, Pitch_bend_c, 13, 6400
1, 54750, Pitch_bend_c, 13, 6528
1, 54760, Pitch_bend_c, 13, 6656
1, 54767, Pitch_bend_c, 13, 6784
1, 54777, Pitch_bend_c, 13, 6912
1, 54780, Note_on_c, 6, 66, 0
1, 54780, Note_on_c, 15, 90, 0
1, 54780, Note_on_c, 6, 70, 0
1, 54780, Note_on_c, 6, 61, 0
1, 54780, Note_on_c, 3, 42, 0
1, 54780, Note_on_c, 3, 41, 100
1, 54780, Note_on_c, 6, 66, 100
1, 54780, Note_on_c, 6, 61, 100
1, 54780, Note_on_c, 6, 70, 100
1, 54780, Note_on_c, 15, 90, 105
1, 54782, Pitch_bend_c, 15, 6144
1, 54785, Note_on_c, 1, 49, 0
1, 54785, Note_on_c, 1, 42, 0
1, 54785, Note_on_c, 1, 54, 0
1, 54785, Note_on_c, 1, 54, 75
1, 54785, Note_on_c, 1, 49, 75
1, 54785, Note_on_c, 1, 42, 75
1, 54785, Pitch_bend_c, 13, 7040
1, 54792, Pitch_bend_c, 15, 6272
1, 54795, Pitch_bend_c, 13, 7168
1, 54802, Pitch_bend_c, 13, 7296
1, 54802, Pitch_bend_c, 15, 6400
1, 54810, Pitch_bend_c, 15, 6528
1, 54812, Pitch_bend_c, 13, 7424
1, 54820, Pitch_bend_c, 13, 7552
1, 54820, Pitch_bend_c, 15, 6656
1, 54827, Pitch_bend_c, 15, 6784
1, 54830, Pitch_bend_c, 13, 7680
1, 54837, Pitch_bend_c, 13, 7808
1, 54837, Pitch_bend_c, 15, 6912
1, 54840, Note_on_c, 6, 61, 0
1, 54840, Note_on_c, 6, 66, 0
1, 54840, Note_on_c, 6, 70, 0
1, 54840, Note_on_c, 3, 41, 0
1, 54840, Note_on_c, 3, 42, 100
1, 54840, Note_on_c, 6, 61, 100
1, 54840, Note_on_c, 6, 70, 100
1, 54840, Note_on_c, 6, 66, 100
1, 54840, Note_on_c, 9, 42, 100
1, 54845, Note_on_c, 1, 49, 0
1, 54845, Note_on_c, 1, 54, 0
1, 54845, Note_on_c, 1, 42, 0
1, 54845, Note_on_c, 1, 54, 75
1, 54845, Note_on_c, 1, 49, 75
1, 54845, Note_on_c, 1, 42, 75
1, 54845, Pitch_bend_c, 15, 7040
1, 54847, Pitch_bend_c, 13, 7936
1, 54855, Note_on_c, 9, 42, 0
1, 54855, Pitch_bend_c, 13, 8064
1, 54855, Pitch_bend_c, 15, 7168
1, 54862, Pitch_bend_c, 15, 7296
1, 54872, Pitch_bend_c, 15, 7424
1, 54880, Pitch_bend_c, 15, 7552
1, 54890, Pitch_bend_c, 15, 7680
1, 54897, Pitch_bend_c, 15, 7808
1, 54900, Note_on_c, 6, 66, 0
1, 54900, Note_on_c, 6, 61, 0
1, 54900, Note_on_c, 3, 42, 0
1, 54900, Note_on_c, 6, 70, 0
1, 54900, Note_on_c, 3, 41, 100
1, 54900, Note_on_c, 6, 70, 100
1, 54900, Note_on_c, 6, 66, 100
1, 54900, Note_on_c, 6, 61, 100
1, 54900, Note_on_c, 9, 36, 100
1, 54905, Note_on_c, 1, 49, 0
1, 54905, Note_on_c, 1, 54, 0
1, 54905, Note_on_c, 1, 42, 0
1, 54905, Note_on_c, 1, 54, 75
1, 54905, Note_on_c, 1, 49, 75
1, 54905, Note_on_c, 1, 42, 75
1, 54907, Pitch_bend_c, 15, 7936
1, 54915, Note_on_c, 9, 36, 0
1, 54915, Pitch_bend_c, 15, 8064
1, 54960, Note_on_c, 13, 78, 0
1, 54960, Note_on_c, 6, 70, 0
1, 54960, Note_on_c, 3, 41, 0
1, 54960, Note_on_c, 6, 61, 0
1, 54960, Note_on_c, 6, 66, 0
1, 54960, Note_on_c, 3, 42, 100
1, 54960, Note_on_c, 6, 66, 100
1, 54960, Note_on_c, 6, 61, 100
1, 54960, Note_on_c, 6, 70, 100
1, 54960, Note_on_c, 9, 42, 100
1, 54960, Note_on_c, 9, 38, 100
1, 54960, Pitch_bend_c, 13, 6656
1, 54960, Note_on_c, 13, 78, 127
1, 54965, Note_on_c, 1, 49, 0
1, 54965, Note_on_c, 1, 54, 0
1, 54965, Note_on_c, 1, 42, 0
1, 54965, Note_on_c, 1, 54, 75
1, 54965, Note_on_c, 1, 49, 75
1, 54965, Note_on_c, 1, 42, 75
1, 54967, Pitch_bend_c, 13, 6784
1, 54975, Note_on_c, 9, 42, 0
1, 54975, Note_on_c, 9, 38, 0
1, 54975, Pitch_bend_c, 13, 6912
1, 54982, Pitch_bend_c, 13, 7040
1, 54990, Pitch_bend_c, 13, 7168
1, 54997, Pitch_bend_c, 13, 7296
1, 55002, Pitch_bend_c, 13, 7424
1, 55010, Pitch_bend_c, 13, 7552
1, 55017, Pitch_bend_c, 13, 7680
1, 55020, Note_on_c, 6, 70, 0
1, 55020, Note_on_c, 6, 61, 0
1, 55020, Note_on_c, 6, 66, 0
1, 55020, Note_on_c, 15, 90, 0
1, 55020, Note_on_c, 3, 42, 0
1, 55020, Note_on_c, 3, 41, 100
1, 55020, Note_on_c, 6, 61, 100
1, 55020, Note_on_c, 6, 70, 100
1, 55020, Note_on_c, 6, 66, 100
1, 55020, Pitch_bend_c, 15, 6656
1, 55020, Note_on_c, 15, 90, 105
1, 55025, Note_on_c, 1, 49, 0
1, 55025, Note_on_c, 1, 54, 0
1, 55025, Note_on_c, 1, 42, 0
1, 55025, Note_on_c, 1, 54, 75
1, 55025, Note_on_c, 1, 49, 75
1, 55025, Note_on_c, 1, 42, 75
1, 55025, Pitch_bend_c, 13, 7808
1, 55027, Pitch_bend_c, 15, 6784
1, 55032, Pitch_bend_c, 13, 7936
1, 55035, Pitch_bend_c, 15, 6912
1, 55040, Pitch_bend_c, 13, 8064
1, 55042, Pitch_bend_c, 15, 7040
1, 55045, Pitch_bend_c, 13, 8192
1, 55050, Pitch_bend_c, 15, 7168
1, 55057, Pitch_bend_c, 15, 7296
1, 55062, Pitch_bend_c, 15, 7424
1, 55070, Pitch_bend_c, 15, 7552
1, 55077, Pitch_bend_c, 15, 7680
1, 55080, Note_on_c, 6, 70, 0
1, 55080, Note_on_c, 6, 61, 0
1, 55080, Note_on_c, 6, 66, 0
1, 55080, Note_on_c, 13, 78, 0
1, 55080, Note_on_c, 3, 41, 0
1, 55080, Note_on_c, 3, 42, 100
1, 55080, Note_on_c, 6, 70, 100
1, 55080, Note_on_c, 6, 66, 100
1, 55080, Note_on_c, 6, 61, 100
1, 55080, Note_on_c, 9, 42, 100
1, 55080, Pitch_bend_c, 13, 7040
1, 55080, Note_on_c, 13, 78, 127
1, 55085, Note_on_c, 1, 49, 0
1, 55085, Note_on_c, 1, 54, 0
1, 55085, Note_on_c, 1, 42, 0
1, 55085, Note_on_c, 1, 54, 75
1, 55085, Note_on_c, 1, 49, 75
1, 55085, Note_on_c, 1, 42, 75
1, 55085, Pitch_bend_c, 15, 7808
1, 55087, Pitch_bend_c, 13, 7168
1, 55092, Pitch_bend_c, 15, 7936
1, 55095, Note_on_c, 9, 42, 0
1, 55095, Pitch_bend_c, 13, 7296
1, 55100, Pitch_bend_c, 15, 8064
1, 55102, Pitch_bend_c, 13, 7424
1, 55105, Pitch_bend_c, 15, 8192
1, 55110, Pitch_bend_c, 13, 7552
1, 55117, Pitch_bend_c, 13, 7680
1, 55125, Pitch_bend_c, 13, 7808
1, 55132, Pitch_bend_c, 13, 7936
1, 55140, Note_on_c, 6, 66, 0
1, 55140, Note_on_c, 6, 70, 0
1, 55140, Note_on_c, 6, 61, 0
1, 55140, Note_on_c, 3, 42, 0
1, 55140, Note_on_c, 15, 90, 0
1, 55140, Note_on_c, 3, 41, 100
1, 55140, Note_on_c, 6, 66, 100
1, 55140, Note_on_c, 6, 61, 100
1, 55140, Note_on_c, 6, 70, 100
1, 55140, Pitch_bend_c, 13, 8064
1, 55140, Pitch_bend_c, 15, 7040
1, 55140, Note_on_c, 15, 90, 105
1, 55145, Note_on_c, 1, 54, 0
1, 55145, Note_on_c, 1, 49, 0
1, 55145, Note_on_c, 1, 42, 0
1, 55145, Note_on_c, 1, 54, 75
1, 55145, Note_on_c, 1, 49, 75
1, 55145, Note_on_c, 1, 42, 75
1, 55147, Pitch_bend_c, 13, 8192
1, 55147, Pitch_bend_c, 15, 7168
1, 55155, Pitch_bend_c, 15, 7296
1, 55162, Pitch_bend_c, 15, 7424
1, 55170, Pitch_bend_c, 15, 7552
1, 55177, Pitch_bend_c, 15, 7680
1, 55185, Pitch_bend_c, 15, 7808
1, 55192, Pitch_bend_c, 15, 7936
1, 55200, Note_on_c, 6, 66, 0
1, 55200, Note_on_c, 6, 61, 0
1, 55200, Note_on_c, 13, 78, 0
1, 55200, Note_on_c, 6, 70, 0
1, 55200, Note_on_c, 6, 42, 0
1, 55200, Note_on_c, 3, 41, 0
1, 55200, Note_on_c, 6, 54, 0
1, 55200, Note_on_c, 3, 42, 100
1, 55200, Note_on_c, 6, 54, 100
1, 55200, Note_on_c, 6, 42, 100
1, 55200, Note_on_c, 6, 66, 100
1, 55200, Note_on_c, 6, 70, 100
1, 55200, Note_on_c, 6, 73, 100
1, 55200, Note_on_c, 9, 42, 100
1, 55200, Note_on_c, 9, 38, 100
1, 55200, Pitch_bend_c, 13, 6784
1, 55200, Note_on_c, 13, 78, 127
1, 55200, Pitch_bend_c, 15, 8064
1, 55205, Note_on_c, 1, 49, 0
1, 55205, Note_on_c, 1, 54, 0
1, 55205, Note_on_c, 1, 42, 0
1, 55205, Note_on_c, 1, 54, 75
1, 55205, Note_on_c, 1, 49, 75
1, 55205, Note_on_c, 1, 42, 75
1, 55207, Pitch_bend_c, 13, 6912
1, 55207, Pitch_bend_c, 15, 8192
1, 55215, Note_on_c, 9, 42, 0
1, 55215, Note_on_c, 9, 38, 0
1, 55215, Pitch_bend_c, 13, 7040
1, 55222, Pitch_bend_c, 13, 7168
1, 55230, Pitch_bend_c, 13, 7296
1, 55237, Pitch_bend_c, 13, 7424
1, 55245, Pitch_bend_c, 13, 7552
1, 55252, Pitch_bend_c, 13, 7680
1, 55260, Note_on_c, 6, 73, 0
1, 55260, Note_on_c, 6, 66, 0
1, 55260, Note_on_c, 6, 70, 0
1, 55260, Note_on_c, 3, 42, 0
1, 55260, Note_on_c, 15, 90, 0
1, 55260, Note_on_c, 3, 41, 100
1, 55260, Note_on_c, 6, 66, 100
1, 55260, Note_on_c, 6, 70, 100
1, 55260, Note_on_c, 6, 73, 100
1, 55260, Note_on_c, 9, 42, 100
1, 55260, Note_on_c, 9, 38, 100
1, 55260, Pitch_bend_c, 13, 7808
1, 55260, Pitch_bend_c, 15, 6784
1, 55260, Note_on_c, 15, 90, 105
1, 55265, Note_on_c, 1, 49, 0
1, 55265, Note_on_c, 1, 54, 0
1, 55265, Note_on_c, 1, 42, 0
1, 55265, Note_on_c, 1, 54, 75
1, 55265, Note_on_c, 1, 49, 75
1, 55265, Note_on_c, 1, 42, 75
1, 55267, Pitch_bend_c, 13, 7936
1, 55267, Pitch_bend_c, 15, 6912
1, 55275, Note_on_c, 9, 42, 0
1, 55275, Note_on_c, 9, 38, 0
1, 55275, Pitch_bend_c, 13, 8064
1, 55275, Pitch_bend_c, 15, 7040
1, 55282, Pitch_bend_c, 13, 8192
1, 55282, Pitch_bend_c, 15, 7168
1, 55290, Pitch_bend_c, 15, 7296
1, 55297, Pitch_bend_c, 15, 7424
1, 55305, Pitch_bend_c, 15, 7552
1, 55312, Pitch_bend_c, 15, 7680
1, 55317, Pitch_bend_c, 13, 6912
1, 55320, Note_on_c, 6, 70, 0
1, 55320, Note_on_c, 6, 66, 0
1, 55320, Note_on_c, 6, 73, 0
1, 55320, Note_on_c, 13, 78, 0
1, 55320, Note_on_c, 3, 41, 0
1, 55320, Note_on_c, 3, 42, 100
1, 55320, Note_on_c, 6, 66, 100
1, 55320, Note_on_c, 6, 70, 100
1, 55320, Note_on_c, 6, 73, 100
1, 55320, Note_on_c, 9, 38, 100
1, 55320, Note_on_c, 9, 42, 100
1, 55320, Pitch_bend_c, 13, 8192
1, 55320, Note_on_c, 13, 78, 127
1, 55320, Pitch_bend_c, 15, 7808
1, 55325, Note_on_c, 1, 49, 0
1, 55325, Note_on_c, 1, 54, 0
1, 55325, Note_on_c, 1, 42, 0
1, 55325, Note_on_c, 1, 54, 75
1, 55325, Note_on_c, 1, 49, 75
1, 55325, Note_on_c, 1, 42, 75
1, 55327, Pitch_bend_c, 13, 7040
1, 55327, Pitch_bend_c, 15, 7936
1, 55335, Note_on_c, 9, 38, 0
1, 55335, Note_on_c, 9, 42, 0
1, 55335, Pitch_bend_c, 15, 8064
1, 55337, Pitch_bend_c, 13, 7168
1, 55342, Pitch_bend_c, 15, 8192
1, 55347, Pitch_bend_c, 13, 7296
1, 55357, Pitch_bend_c, 13, 7424
1, 55367, Pitch_bend_c, 13, 7552
1, 55377, Pitch_bend_c, 13, 7680
1, 55377, Pitch_bend_c, 15, 6912
1, 55380, Note_on_c, 6, 70, 0
1, 55380, Note_on_c, 15, 90, 0
1, 55380, Note_on_c, 6, 66, 0
1, 55380, Note_on_c, 6, 73, 0
1, 55380, Note_on_c, 3, 42, 0
1, 55380, Note_on_c, 3, 41, 100
1, 55380, Note_on_c, 6, 66, 100
1, 55380, Note_on_c, 6, 70, 100
1, 55380, Note_on_c, 6, 73, 100
1, 55380, Note_on_c, 9, 38, 100
1, 55380, Note_on_c, 9, 42, 100
1, 55380, Pitch_bend_c, 15, 8192
1, 55380, Note_on_c, 15, 90, 105
1, 55385, Note_on_c, 1, 49, 0
1, 55385, Note_on_c, 1, 54, 0
1, 55385, Note_on_c, 1, 42, 0
1, 55385, Note_on_c, 1, 54, 75
1, 55385, Note_on_c, 1, 49, 75
1, 55385, Note_on_c, 1, 42, 75
1, 55387, Pitch_bend_c, 13, 7808
1, 55387, Pitch_bend_c, 15, 7040
1, 55395, Note_on_c, 9, 38, 0
1, 55395, Note_on_c, 9, 42, 0
1, 55397, Pitch_bend_c, 13, 7936
1, 55397, Pitch_bend_c, 15, 7168
1, 55405, Pitch_bend_c, 13, 8064
1, 55407, Pitch_bend_c, 15, 7296
1, 55417, Pitch_bend_c, 15, 7424
1, 55427, Pitch_bend_c, 15, 7552
1, 55437, Pitch_bend_c, 13, 7296
1, 55437, Pitch_bend_c, 15, 7680
1, 55440, Note_on_c, 6, 70, 0
1, 55440, Note_on_c, 13, 78, 0
1, 55440, Note_on_c, 6, 66, 0
1, 55440, Note_on_c, 6, 73, 0
1, 55440, Note_on_c, 3, 41, 0
1, 55440, Note_on_c, 3, 42, 100
1, 55440, Note_on_c, 6, 66, 100
1, 55440, Note_on_c, 6, 70, 100
1, 55440, Note_on_c, 6, 73, 100
1, 55440, Note_on_c, 9, 42, 100
1, 55440, Note_on_c, 9, 38, 100
1, 55440, Note_on_c, 13, 78, 127
1, 55445, Note_on_c, 1, 49, 0
1, 55445, Note_on_c, 1, 54, 0
1, 55445, Note_on_c, 1, 42, 0
1, 55445, Note_on_c, 1, 54, 75
1, 55445, Note_on_c, 1, 49, 75
1, 55445, Note_on_c, 1, 42, 75
1, 55447, Pitch_bend_c, 15, 7808
1, 55450, Pitch_bend_c, 13, 7424
1, 55455, Note_on_c, 9, 42, 0
1, 55455, Note_on_c, 9, 38, 0
1, 55457, Pitch_bend_c, 15, 7936
1, 55462, Pitch_bend_c, 13, 7552
1, 55465, Pitch_bend_c, 15, 8064
1, 55475, Pitch_bend_c, 13, 7680
1, 55485, Pitch_bend_c, 13, 7808
1, 55497, Pitch_bend_c, 13, 7936
1, 55497, Pitch_bend_c, 15, 7296
1, 55500, Note_on_c, 6, 70, 0
1, 55500, Note_on_c, 15, 90, 0
1, 55500, Note_on_c, 6, 66, 0
1, 55500, Note_on_c, 6, 73, 0
1, 55500, Note_on_c, 3, 42, 0
1, 55500, Note_on_c, 3, 41, 100
1, 55500, Note_on_c, 6, 66, 100
1, 55500, Note_on_c, 6, 70, 100
1, 55500, Note_on_c, 6, 73, 100
1, 55500, Note_on_c, 9, 38, 100
1, 55500, Note_on_c, 9, 42, 100
1, 55500, Note_on_c, 15, 90, 105
1, 55505, Note_on_c, 1, 49, 0
1, 55505, Note_on_c, 1, 54, 0
1, 55505, Note_on_c, 1, 42, 0
1, 55505, Note_on_c, 1, 54, 75
1, 55505, Note_on_c, 1, 49, 75
1, 55505, Note_on_c, 1, 42, 75
1, 55510, Pitch_bend_c, 13, 8064
1, 55510, Pitch_bend_c, 15, 7424
1, 55515, Note_on_c, 9, 38, 0
1, 55515, Note_on_c, 9, 42, 0
1, 55522, Pitch_bend_c, 13, 8192
1, 55522, Pitch_bend_c, 15, 7552
1, 55532, Pitch_bend_c, 13, 8320
1, 55535, Pitch_bend_c, 15, 7680
1, 55545, Pitch_bend_c, 15, 7808
1, 55557, Pitch_bend_c, 15, 7936
1, 55560, Note_on_c, 6, 70, 0
1, 55560, Note_on_c, 13, 78, 0
1, 55560, Note_on_c, 6, 66, 0
1, 55560, Note_on_c, 6, 73, 0
1, 55560, Note_on_c, 3, 41, 0
1, 55560, Note_on_c, 3, 40, 100
1, 55560, Note_on_c, 6, 66, 100
1, 55560, Note_on_c, 6, 70, 100
1, 55560, Note_on_c, 6, 73, 100
1, 55560, Note_on_c, 9, 38, 100
1, 55560, Pitch_bend_c, 13, 7168
1, 55560, Note_on_c, 13, 78, 127
1, 55565, Note_on_c, 1, 49, 0
1, 55565, Note_on_c, 1, 54, 0
1, 55565, Note_on_c, 1, 42, 0
1, 55565, Note_on_c, 1, 54, 75
1, 55565, Note_on_c, 1, 49, 75
1, 55565, Note_on_c, 1, 42, 75
1, 55570, Pitch_bend_c, 13, 7296
1, 55570, Pitch_bend_c, 15, 8064
1, 55575, Note_on_c, 9, 38, 0
1, 55577, Pitch_bend_c, 13, 7424
1, 55582, Pitch_bend_c, 15, 8192
1, 55587, Pitch_bend_c, 13, 7552
1, 55590, Note_on_c, 9, 38, 100
1, 55592, Pitch_bend_c, 15, 8320
1, 55595, Pitch_bend_c, 13, 7680
1, 55605, Note_on_c, 9, 38, 0
1, 55605, Pitch_bend_c, 13, 7808
1, 55612, Pitch_bend_c, 13, 7936
1, 55620, Note_on_c, 15, 90, 0
1, 55620, Note_on_c, 6, 66, 0
1, 55620, Note_on_c, 6, 73, 0
1, 55620, Note_on_c, 6, 70, 0
1, 55620, Note_on_c, 3, 40, 0
1, 55620, Note_on_c, 3, 37, 100
1, 55620, Note_on_c, 6, 66, 100
1, 55620, Note_on_c, 6, 70, 100
1, 55620, Note_on_c, 6, 73, 100
1, 55620, Note_on_c, 9, 38, 100
1, 55620, Pitch_bend_c, 15, 7168
1, 55620, Note_on_c, 15, 90, 105
1, 55622, Pitch_bend_c, 13, 8064
1, 55625, Note_on_c, 1, 54, 0
1, 55625, Note_on_c, 1, 42, 0
1, 55625, Note_on_c, 1, 49, 0
1, 55625, Note_on_c, 1, 54, 75
1, 55625, Note_on_c, 1, 49, 75
1, 55625, Note_on_c, 1, 42, 75
1, 55630, Pitch_bend_c, 13, 8192
1, 55630, Pitch_bend_c, 15, 7296
1, 55635, Note_on_c, 9, 38, 0
1, 55637, Pitch_bend_c, 13, 8320
1, 55637, Pitch_bend_c, 15, 7424
1, 55647, Pitch_bend_c, 15, 7552
1, 55650, Note_on_c, 9, 38, 100
1, 55655, Pitch_bend_c, 15, 7680
1, 55665, Note_on_c, 9, 38, 0
1, 55665, Pitch_bend_c, 15, 7808
1, 55672, Pitch_bend_c, 15, 7936
1, 55680, Note_on_c, 13, 78, 0
1, 55680, Note_on_c, 6, 42, 0
1, 55680, Note_on_c, 6, 66, 0
1, 55680, Note_on_c, 6, 73, 0
1, 55680, Note_on_c, 6, 70, 0
1, 55680, Note_on_c, 6, 54, 0
1, 55680, Note_on_c, 3, 37, 0
1, 55680, Note_on_c, 3, 47, 100
1, 55680, Note_on_c, 6, 78, 100
1, 55680, Note_on_c, 6, 74, 100
1, 55680, Note_on_c, 6, 69, 100
1, 55680, Note_on_c, 6, 59, 100
1, 55680, Note_on_c, 6, 47, 100
1, 55680, Note_on_c, 9, 49, 100
1, 55680, Note_on_c, 9, 36, 100
1, 55680, Pitch_bend_c, 13, 6784
1, 55680, Note_on_c, 13, 78, 100
1, 55682, Pitch_bend_c, 15, 8064
1, 55685, Note_on_c, 1, 54, 0
1, 55685, Note_on_c, 1, 42, 0
1, 55685, Note_on_c, 1, 49, 0
1, 55685, Note_on_c, 1, 66, 75
1, 55685, Note_on_c, 1, 62, 75
1, 55685, Note_on_c, 1, 57, 75
1, 55685, Note_on_c, 1, 54, 75
1, 55685, Note_on_c, 1, 47, 75
1, 55687, Pitch_bend_c, 13, 6912
1, 55690, Pitch_bend_c, 15, 8192
1, 55695, Note_on_c, 9, 49, 0
1, 55695, Note_on_c, 9, 36, 0
1, 55695, Pitch_bend_c, 13, 7040
1, 55697, Pitch_bend_c, 15, 8320
1, 55702, Pitch_bend_c, 13, 7168
1, 55710, Pitch_bend_c, 13, 7296
1, 55717, Pitch_bend_c, 13, 7424
1, 55725, Pitch_bend_c, 13, 7552
1, 55732, Pitch_bend_c, 13, 7680
1, 55740, Note_on_c, 6, 47, 0
1, 55740, Note_on_c, 6, 69, 0
1, 55740, Note_on_c, 6, 59, 0
1, 55740, Note_on_c, 15, 90, 0
1, 55740, Note_on_c, 6, 74, 0
1, 55740, Note_on_c, 6, 78, 0
1, 55740, Note_on_c, 6, 78, 100
1, 55740, Note_on_c, 6, 74, 100
1, 55740, Note_on_c, 6, 69, 100
1, 55740, Note_on_c, 6, 59, 100
1, 55740, Note_on_c, 6, 47, 100
1, 55740, Pitch_bend_c, 13, 7808
1, 55740, Pitch_bend_c, 15, 6784
1, 55740, Note_on_c, 15, 90, 105
1, 55745, Note_on_c, 1, 66, 0
1, 55745, Note_on_c, 1, 57, 0
1, 55745, Note_on_c, 1, 62, 0
1, 55745, Note_on_c, 1, 54, 0
1, 55745, Note_on_c, 1, 47, 0
1, 55745, Note_on_c, 1, 66, 75
1, 55745, Note_on_c, 1, 62, 75
1, 55745, Note_on_c, 1, 57, 75
1, 55745, Note_on_c, 1, 54, 75
1, 55745, Note_on_c, 1, 47, 75
1, 55747, Pitch_bend_c, 13, 7936
1, 55747, Pitch_bend_c, 15, 6912
1, 55755, Pitch_bend_c, 13, 8064
1, 55755, Pitch_bend_c, 15, 7040
1, 55762, Pitch_bend_c, 13, 8192
1, 55762, Pitch_bend_c, 15, 7168
1, 55770, Pitch_bend_c, 15, 7296
1, 55777, Pitch_bend_c, 15, 7424
1, 55785, Pitch_bend_c, 15, 7552
1, 55792, Pitch_bend_c, 15, 7680
1, 55797, Pitch_bend_c, 13, 6912
1, 55800, Note_on_c, 6, 78, 0
1, 55800, Note_on_c, 6, 47, 0
1, 55800, Note_on_c, 6, 74, 0
1, 55800, Note_on_c, 13, 78, 0
1, 55800, Note_on_c, 6, 69, 0
1, 55800, Note_on_c, 6, 59, 0
1, 55800, Note_on_c, 3, 47, 0
1, 55800, Note_on_c, 6, 78, 100
1, 55800, Note_on_c, 6, 74, 100
1, 55800, Note_on_c, 6, 69, 100
1, 55800, Note_on_c, 6, 59, 100
1, 55800, Note_on_c, 6, 47, 100
1, 55800, Note_on_c, 9, 42, 100
1, 55800, Pitch_bend_c, 13, 8192
1, 55800, Note_on_c, 13, 78, 100
1, 55800, Pitch_bend_c, 15, 7808
1, 55805, Note_on_c, 1, 66, 0
1, 55805, Note_on_c, 1, 62, 0
1, 55805, Note_on_c, 1, 54, 0
1, 55805, Note_on_c, 1, 57, 0
1, 55805, Note_on_c, 1, 47, 0
1, 55805, Note_on_c, 1, 66, 75
1, 55805, Note_on_c, 1, 62, 75
1, 55805, Note_on_c, 1, 57, 75
1, 55805, Note_on_c, 1, 54, 75
1, 55805, Note_on_c, 1, 47, 75
1, 55807, Pitch_bend_c, 13, 7040
1, 55807, Pitch_bend_c, 15, 7936
1, 55815, Note_on_c, 9, 42, 0
1, 55815, Pitch_bend_c, 15, 8064
1, 55817, Pitch_bend_c, 13, 7168
1, 55822, Pitch_bend_c, 15, 8192
1, 55827, Pitch_bend_c, 13, 7296
1, 55837, Pitch_bend_c, 13, 7424
1, 55847, Pitch_bend_c, 13, 7552
1, 55857, Pitch_bend_c, 13, 7680
1, 55857, Pitch_bend_c, 15, 6912
1, 55860, Note_on_c, 6, 47, 0
1, 55860, Note_on_c, 6, 74, 0
1, 55860, Note_on_c, 15, 90, 0
1, 55860, Note_on_c, 6, 69, 0
1, 55860, Note_on_c, 6, 59, 0
1, 55860, Note_on_c, 6, 78, 0
1, 55860, Note_on_c, 3, 42, 100
1, 55860, Note_on_c, 6, 78, 100
1, 55860, Note_on_c, 6, 74, 100
1, 55860, Note_on_c, 6, 69, 100
1, 55860, Note_on_c, 6, 59, 100
1, 55860, Note_on_c, 6, 47, 100
1, 55860, Note_on_c, 9, 36, 100
1, 55860, Pitch_bend_c, 15, 8192
1, 55860, Note_on_c, 15, 90, 105
1, 55865, Note_on_c, 1, 66, 0
1, 55865, Note_on_c, 1, 57, 0
1, 55865, Note_on_c, 1, 47, 0
1, 55865, Note_on_c, 1, 54, 0
1, 55865, Note_on_c, 1, 62, 0
1, 55865, Note_on_c, 1, 66, 75
1, 55865, Note_on_c, 1, 62, 75
1, 55865, Note_on_c, 1, 57, 75
1, 55865, Note_on_c, 1, 54, 75
1, 55865, Note_on_c, 1, 47, 75
1, 55867, Pitch_bend_c, 13, 7808
1, 55867, Pitch_bend_c, 15, 7040
1, 55875, Note_on_c, 9, 36, 0
1, 55877, Pitch_bend_c, 13, 7936
1, 55877, Pitch_bend_c, 15, 7168
1, 55885, Pitch_bend_c, 13, 8064
1, 55887, Pitch_bend_c, 15, 7296
1, 55897, Pitch_bend_c, 15, 7424
1, 55907, Pitch_bend_c, 15, 7552
1, 55917, Pitch_bend_c, 13, 7296
1, 55917, Pitch_bend_c, 15, 7680
1, 55920, Note_on_c, 13, 78, 0
1, 55920, Note_on_c, 6, 78, 0
1, 55920, Note_on_c, 6, 74, 0
1, 55920, Note_on_c, 6, 47, 0
1, 55920, Note_on_c, 6, 69, 0
1, 55920, Note_on_c, 6, 59, 0
1, 55920, Note_on_c, 3, 42, 0
1, 55920, Note_on_c, 3, 47, 100
1, 55920, Note_on_c, 6, 78, 100
1, 55920, Note_on_c, 6, 74, 100
1, 55920, Note_on_c, 6, 69, 100
1, 55920, Note_on_c, 6, 59, 100
1, 55920, Note_on_c, 6, 47, 100
1, 55920, Note_on_c, 9, 42, 100
1, 55920, Note_on_c, 9, 38, 100
1, 55920, Note_on_c, 13, 78, 100
1, 55925, Note_on_c, 1, 47, 0
1, 55925, Note_on_c, 1, 62, 0
1, 55925, Note_on_c, 1, 54, 0
1, 55925, Note_on_c, 1, 57, 0
1, 55925, Note_on_c, 1, 66, 0
1, 55925, Note_on_c, 1, 66, 75
1, 55925, Note_on_c, 1, 62, 75
1, 55925, Note_on_c, 1, 57, 75
1, 55925, Note_on_c, 1, 54, 75
1, 55925, Note_on_c, 1, 47, 75
1, 55927, Pitch_bend_c, 15, 7808
1, 55930, Pitch_bend_c, 13, 7424
1, 55935, Note_on_c, 9, 42, 0
1, 55935, Note_on_c, 9, 38, 0
1, 55937, Pitch_bend_c, 15, 7936
1, 55942, Pitch_bend_c, 13, 7552
1, 55945, Pitch_bend_c, 15, 8064
1, 55955, Pitch_bend_c, 13, 7680
1, 55965, Pitch_bend_c, 13, 7808
1, 55977, Pitch_bend_c, 13, 7936
1, 55977, Pitch_bend_c, 15, 7296
1, 55980, Note_on_c, 15, 90, 0
1, 55980, Note_on_c, 15, 90, 105
1, 55990, Pitch_bend_c, 13, 8064
1, 55990, Pitch_bend_c, 15, 7424
1, 56002, Pitch_bend_c, 13, 8192
1, 56002, Pitch_bend_c, 15, 7552
1, 56012, Pitch_bend_c, 13, 8320
1, 56015, Pitch_bend_c, 15, 7680
1, 56025, Pitch_bend_c, 15, 7808
1, 56037, Pitch_bend_c, 15, 7936
1, 56040, Note_on_c, 13, 78, 0
1, 56040, Note_on_c, 6, 78, 0
1, 56040, Note_on_c, 6, 74, 0
1, 56040, Note_on_c, 3, 47, 0
1, 56040, Note_on_c, 6, 69, 0
1, 56040, Note_on_c, 6, 47, 0
1, 56040, Note_on_c, 6, 59, 0
1, 56040, Note_on_c, 9, 42, 100
1, 56040, Pitch_bend_c, 13, 7168
1, 56040, Note_on_c, 13, 78, 100
1, 56045, Note_on_c, 1, 57, 0
1, 56045, Note_on_c, 1, 62, 0
1, 56045, Note_on_c, 1, 54, 0
1, 56045, Note_on_c, 1, 66, 0
1, 56045, Note_on_c, 1, 47, 0
1, 56045, Note_on_c, 1, 66, 60
1, 56045, Note_on_c, 1, 62, 60
1, 56045, Note_on_c, 1, 57, 60
1, 56045, Note_on_c, 1, 54, 60
1, 56045, Note_on_c, 1, 47, 60
1, 56050, Pitch_bend_c, 13, 7296
1, 56050, Pitch_bend_c, 15, 8064
1, 56055, Note_on_c, 9, 42, 0
1, 56057, Pitch_bend_c, 13, 7424
1, 56062, Pitch_bend_c, 15, 8192
1, 56067, Pitch_bend_c, 13, 7552
1, 56072, Pitch_bend_c, 15, 8320
1, 56075, Pitch_bend_c, 13, 7680
1, 56085, Pitch_bend_c, 13, 7808
1, 56092, Pitch_bend_c, 13, 7936
1, 56100, Note_on_c, 15, 90, 0
1, 56100, Pitch_bend_c, 15, 7168
1, 56100, Note_on_c, 15, 90, 105
1, 56102, Pitch_bend_c, 13, 8064
1, 56110, Pitch_bend_c, 13, 8192
1, 56110, Pitch_bend_c, 15, 7296
1, 56117, Pitch_bend_c, 13, 8320
1, 56117, Pitch_bend_c, 15, 7424
1, 56127, Pitch_bend_c, 15, 7552
1, 56135, Pitch_bend_c, 15, 7680
1, 56145, Pitch_bend_c, 15, 7808
1, 56152, Pitch_bend_c, 15, 7936
1, 56160, Note_on_c, 13, 78, 0
1, 56160, Note_on_c, 3, 47, 100
1, 56160, Note_on_c, 6, 78, 100
1, 56160, Note_on_c, 6, 74, 100
1, 56160, Note_on_c, 6, 69, 100
1, 56160, Note_on_c, 6, 59, 100
1, 56160, Note_on_c, 6, 47, 100
1, 56160, Note_on_c, 9, 36, 100
1, 56160, Note_on_c, 9, 42, 100
1, 56160, Pitch_bend_c, 13, 6784
1, 56160, Note_on_c, 13, 78, 100
1, 56162, Pitch_bend_c, 15, 8064
1, 56165, Note_on_c, 1, 54, 0
1, 56165, Note_on_c, 1, 47, 0
1, 56165, Note_on_c, 1, 62, 0
1, 56165, Note_on_c, 1, 66, 0
1, 56165, Note_on_c, 1, 57, 0
1, 56165, Note_on_c, 1, 66, 75
1, 56165, Note_on_c, 1, 62, 75
1, 56165, Note_on_c, 1, 57, 75
1, 56165, Note_on_c, 1, 54, 75
1, 56165, Note_on_c, 1, 47, 75
1, 56167, Pitch_bend_c, 13, 6912
1, 56170, Pitch_bend_c, 15, 8192
1, 56175, Note_on_c, 9, 36, 0
1, 56175, Note_on_c, 9, 42, 0
1, 56175, Pitch_bend_c, 13, 7040
1, 56177, Pitch_bend_c, 15, 8320
1, 56182, Pitch_bend_c, 13, 7168
1, 56190, Pitch_bend_c, 13, 7296
1, 56197, Pitch_bend_c, 13, 7424
1, 56205, Pitch_bend_c, 13, 7552
1, 56212, Pitch_bend_c, 13, 7680
1, 56220, Note_on_c, 3, 47, 0
1, 56220, Note_on_c, 6, 74, 0
1, 56220, Note_on_c, 15, 90, 0
1, 56220, Note_on_c, 6, 78, 0
1, 56220, Note_on_c, 6, 69, 0
1, 56220, Note_on_c, 6, 47, 0
1, 56220, Note_on_c, 6, 59, 0
1, 56220, Note_on_c, 3, 46, 100
1, 56220, Note_on_c, 6, 78, 100
1, 56220, Note_on_c, 6, 74, 100
1, 56220, Note_on_c, 6, 69, 100
1, 56220, Note_on_c, 6, 59, 100
1, 56220, Note_on_c, 6, 47, 100
1, 56220, Pitch_bend_c, 13, 7808
1, 56220, Pitch_bend_c, 15, 6784
1, 56220, Note_on_c, 15, 90, 105
1, 56225, Note_on_c, 1, 57, 0
1, 56225, Note_on_c, 1, 62, 0
1, 56225, Note_on_c, 1, 54, 0
1, 56225, Note_on_c, 1, 66, 0
1, 56225, Note_on_c, 1, 47, 0
1, 56225, Note_on_c, 1, 66, 75
1, 56225, Note_on_c, 1, 62, 75
1, 56225, Note_on_c, 1, 57, 75
1, 56225, Note_on_c, 1, 54, 75
1, 56225, Note_on_c, 1, 47, 75
1, 56227, Pitch_bend_c, 13, 7936
1, 56227, Pitch_bend_c, 15, 6912
1, 56235, Pitch_bend_c, 13, 8064
1, 56235, Pitch_bend_c, 15, 7040
1, 56242, Pitch_bend_c, 13, 8192
1, 56242, Pitch_bend_c, 15, 7168
1, 56250, Pitch_bend_c, 15, 7296
1, 56257, Pitch_bend_c, 15, 7424
1, 56265, Pitch_bend_c, 15, 7552
1, 56272, Pitch_bend_c, 15, 7680
1, 56277, Pitch_bend_c, 13, 6912
1, 56280, Note_on_c, 6, 74, 0
1, 56280, Note_on_c, 6, 59, 0
1, 56280, Note_on_c, 6, 78, 0
1, 56280, Note_on_c, 13, 78, 0
1, 56280, Note_on_c, 6, 69, 0
1, 56280, Note_on_c, 6, 47, 0
1, 56280, Note_on_c, 3, 46, 0
1, 56280, Note_on_c, 3, 47, 100
1, 56280, Note_on_c, 6, 78, 100
1, 56280, Note_on_c, 6, 74, 100
1, 56280, Note_on_c, 6, 69, 100
1, 56280, Note_on_c, 6, 59, 100
1, 56280, Note_on_c, 6, 47, 100
1, 56280, Note_on_c, 9, 42, 100
1, 56280, Pitch_bend_c, 13, 8192
1, 56280, Note_on_c, 13, 78, 100
1, 56280, Pitch_bend_c, 15, 7808
1, 56285, Note_on_c, 1, 66, 0
1, 56285, Note_on_c, 1, 57, 0
1, 56285, Note_on_c, 1, 47, 0
1, 56285, Note_on_c, 1, 54, 0
1, 56285, Note_on_c, 1, 62, 0
1, 56285, Note_on_c, 1, 66, 75
1, 56285, Note_on_c, 1, 62, 75
1, 56285, Note_on_c, 1, 57, 75
1, 56285, Note_on_c, 1, 54, 75
1, 56285, Note_on_c, 1, 47, 75
1, 56287, Pitch_bend_c, 13, 7040
1, 56287, Pitch_bend_c, 15, 7936
1, 56295, Note_on_c, 9, 42, 0
1, 56295, Pitch_bend_c, 15, 8064
1, 56297, Pitch_bend_c, 13, 7168
1, 56302, Pitch_bend_c, 15, 8192
1, 56307, Pitch_bend_c, 13, 7296
1, 56317, Pitch_bend_c, 13, 7424
1, 56327, Pitch_bend_c, 13, 7552
1, 56337, Pitch_bend_c, 13, 7680
1, 56337, Pitch_bend_c, 15, 6912
1, 56340, Note_on_c, 15, 90, 0
1, 56340, Note_on_c, 6, 78, 0
1, 56340, Note_on_c, 6, 74, 0
1, 56340, Note_on_c, 6, 47, 0
1, 56340, Note_on_c, 6, 69, 0
1, 56340, Note_on_c, 6, 59, 0
1, 56340, Note_on_c, 3, 47, 0
1, 56340, Note_on_c, 3, 47, 100
1, 56340, Note_on_c, 6, 78, 100
1, 56340, Note_on_c, 6, 74, 100
1, 56340, Note_on_c, 6, 69, 100
1, 56340, Note_on_c, 6, 59, 100
1, 56340, Note_on_c, 6, 47, 100
1, 56340, Note_on_c, 9, 36, 100
1, 56340, Pitch_bend_c, 15, 8192
1, 56340, Note_on_c, 15, 90, 105
1, 56345, Note_on_c, 1, 47, 0
1, 56345, Note_on_c, 1, 62, 0
1, 56345, Note_on_c, 1, 54, 0
1, 56345, Note_on_c, 1, 57, 0
1, 56345, Note_on_c, 1, 66, 0
1, 56345, Note_on_c, 1, 66, 75
1, 56345, Note_on_c, 1, 62, 75
1, 56345, Note_on_c, 1, 57, 75
1, 56345, Note_on_c, 1, 54, 75
1, 56345, Note_on_c, 1, 47, 75
1, 56347, Pitch_bend_c, 13, 7808
1, 56347, Pitch_bend_c, 15, 7040
1, 56355, Note_on_c, 9, 36, 0
1, 56357, Pitch_bend_c, 13, 7936
1, 56357, Pitch_bend_c, 15, 7168
1, 56365, Pitch_bend_c, 13, 8064
1, 56367, Pitch_bend_c, 15, 7296
1, 56377, Pitch_bend_c, 15, 7424
1, 56387, Pitch_bend_c, 15, 7552
1, 56397, Pitch_bend_c, 13, 7296
1, 56397, Pitch_bend_c, 15, 7680
1, 56400, Note_on_c, 13, 78, 0
1, 56400, Note_on_c, 6, 78, 0
1, 56400, Note_on_c, 6, 74, 0
1, 56400, Note_on_c, 6, 47, 0
1, 56400, Note_on_c, 6, 69, 0
1, 56400, Note_on_c, 6, 59, 0
1, 56400, Note_on_c, 3, 47, 0
1, 56400, Note_on_c, 3, 47, 100
1, 56400, Note_on_c, 6, 78, 100
1, 56400, Note_on_c, 6, 74, 100
1, 56400, Note_on_c, 6, 69, 100
1, 56400, Note_on_c, 6, 59, 100
1, 56400, Note_on_c, 6, 47, 100
1, 56400, Note_on_c, 9, 46, 100
1, 56400, Note_on_c, 9, 38, 100
1, 56400, Note_on_c, 13, 78, 100
1, 56405, Note_on_c, 1, 47, 0
1, 56405, Note_on_c, 1, 62, 0
1, 56405, Note_on_c, 1, 54, 0
1, 56405, Note_on_c, 1, 57, 0
1, 56405, Note_on_c, 1, 66, 0
1, 56405, Note_on_c, 1, 66, 75
1, 56405, Note_on_c, 1, 62, 75
1, 56405, Note_on_c, 1, 57, 75
1, 56405, Note_on_c, 1, 54, 75
1, 56405, Note_on_c, 1, 47, 75
1, 56407, Pitch_bend_c, 15, 7808
1, 56410, Pitch_bend_c, 13, 7424
1, 56415, Note_on_c, 9, 46, 0
1, 56415, Note_on_c, 9, 38, 0
1, 56417, Pitch_bend_c, 15, 7936
1, 56422, Pitch_bend_c, 13, 7552
1, 56425, Pitch_bend_c, 15, 8064
1, 56435, Pitch_bend_c, 13, 7680
1, 56445, Pitch_bend_c, 13, 7808
1, 56457, Pitch_bend_c, 13, 7936
1, 56457, Pitch_bend_c, 15, 7296
1, 56460, Note_on_c, 15, 90, 0
1, 56460, Note_on_c, 15, 90, 105
1, 56470, Pitch_bend_c, 13, 8064
1, 56470, Pitch_bend_c, 15, 7424
1, 56482, Pitch_bend_c, 13, 8192
1, 56482, Pitch_bend_c, 15, 7552
1, 56492, Pitch_bend_c, 13, 8320
1, 56495, Pitch_bend_c, 15, 7680
1, 56505, Pitch_bend_c, 15, 7808
1, 56517, Pitch_bend_c, 15, 7936
1, 56520, Note_on_c, 13, 78, 0
1, 56520, Note_on_c, 6, 78, 0
1, 56520, Note_on_c, 6, 74, 0
1, 56520, Note_on_c, 3, 47, 0
1, 56520, Note_on_c, 6, 69, 0
1, 56520, Note_on_c, 6, 47, 0
1, 56520, Note_on_c, 6, 59, 0
1, 56520, Note_on_c, 3, 43, 100
1, 56520, Pitch_bend_c, 13, 7168
1, 56520, Note_on_c, 13, 78, 100
1, 56525, Note_on_c, 1, 57, 0
1, 56525, Note_on_c, 1, 62, 0
1, 56525, Note_on_c, 1, 54, 0
1, 56525, Note_on_c, 1, 66, 0
1, 56525, Note_on_c, 1, 47, 0
1, 56525, Note_on_c, 1, 66, 60
1, 56525, Note_on_c, 1, 62, 60
1, 56525, Note_on_c, 1, 57, 60
1, 56525, Note_on_c, 1, 54, 60
1, 56525, Note_on_c, 1, 47, 60
1, 56530, Pitch_bend_c, 13, 7296
1, 56530, Pitch_bend_c, 15, 8064
1, 56537, Pitch_bend_c, 13, 7424
1, 56542, Pitch_bend_c, 15, 8192
1, 56547, Pitch_bend_c, 13, 7552
1, 56552, Pitch_bend_c, 15, 8320
1, 56555, Pitch_bend_c, 13, 7680
1, 56565, Pitch_bend_c, 13, 7808
1, 56572, Pitch_bend_c, 13, 7936
1, 56580, Note_on_c, 15, 90, 0
1, 56580, Note_on_c, 3, 43, 0
1, 56580, Note_on_c, 3, 44, 100
1, 56580, Pitch_bend_c, 15, 7168
1, 56580, Note_on_c, 15, 90, 105
1, 56582, Pitch_bend_c, 13, 8064
1, 56590, Pitch_bend_c, 13, 8192
1, 56590, Pitch_bend_c, 15, 7296
1, 56597, Pitch_bend_c, 13, 8320
1, 56597, Pitch_bend_c, 15, 7424
1, 56607, Pitch_bend_c, 15, 7552
1, 56615, Pitch_bend_c, 15, 7680
1, 56625, Pitch_bend_c, 15, 7808
1, 56632, Pitch_bend_c, 15, 7936
1, 56640, Note_on_c, 3, 44, 0
1, 56640, Note_on_c, 13, 78, 0
1, 56640, Note_on_c, 3, 45, 100
1, 56640, Note_on_c, 6, 76, 100
1, 56640, Note_on_c, 6, 73, 100
1, 56640, Note_on_c, 6, 57, 100
1, 56640, Note_on_c, 6, 45, 100
1, 56640, Note_on_c, 6, 69, 100
1, 56640, Note_on_c, 9, 42, 100
1, 56640, Note_on_c, 9, 36, 100
1, 56640, Pitch_bend_c, 13, 6784
1, 56640, Note_on_c, 13, 78, 100
1, 56642, Pitch_bend_c, 15, 8064
1, 56645, Note_on_c, 1, 66, 0
1, 56645, Note_on_c, 1, 54, 0
1, 56645, Note_on_c, 1, 47, 0
1, 56645, Note_on_c, 1, 62, 0
1, 56645, Note_on_c, 1, 57, 0
1, 56645, Note_on_c, 1, 64, 75
1, 56645, Note_on_c, 1, 61, 75
1, 56645, Note_on_c, 1, 52, 75
1, 56645, Note_on_c, 1, 45, 75
1, 56645, Note_on_c, 1, 57, 75
1, 56647, Pitch_bend_c, 13, 6912
1, 56650, Pitch_bend_c, 15, 8192
1, 56655, Note_on_c, 9, 42, 0
1, 56655, Note_on_c, 9, 36, 0
1, 56655, Pitch_bend_c, 13, 7040
1, 56657, Pitch_bend_c, 15, 8320
1, 56662, Pitch_bend_c, 13, 7168
1, 56670, Pitch_bend_c, 13, 7296
1, 56677, Pitch_bend_c, 13, 7424
1, 56685, Pitch_bend_c, 13, 7552
1, 56692, Pitch_bend_c, 13, 7680
1, 56700, Note_on_c, 6, 69, 0
1, 56700, Note_on_c, 6, 76, 0
1, 56700, Note_on_c, 6, 73, 0
1, 56700, Note_on_c, 6, 57, 0
1, 56700, Note_on_c, 15, 90, 0
1, 56700, Note_on_c, 6, 45, 0
1, 56700, Note_on_c, 6, 76, 100
1, 56700, Note_on_c, 6, 57, 100
1, 56700, Note_on_c, 6, 45, 100
1, 56700, Note_on_c, 6, 69, 100
1, 56700, Note_on_c, 6, 73, 100
1, 56700, Pitch_bend_c, 13, 7808
1, 56700, Pitch_bend_c, 15, 6784
1, 56700, Note_on_c, 15, 90, 105
1, 56705, Note_on_c, 1, 64, 0
1, 56705, Note_on_c, 1, 52, 0
1, 56705, Note_on_c, 1, 61, 0
1, 56705, Note_on_c, 1, 45, 0
1, 56705, Note_on_c, 1, 57, 0
1, 56705, Note_on_c, 1, 61, 75
1, 56705, Note_on_c, 1, 52, 75
1, 56705, Note_on_c, 1, 64, 75
1, 56705, Note_on_c, 1, 57, 75
1, 56705, Note_on_c, 1, 45, 75
1, 56707, Pitch_bend_c, 13, 7936
1, 56707, Pitch_bend_c, 15, 6912
1, 56715, Pitch_bend_c, 13, 8064
1, 56715, Pitch_bend_c, 15, 7040
1, 56722, Pitch_bend_c, 13, 8192
1, 56722, Pitch_bend_c, 15, 7168
1, 56730, Pitch_bend_c, 15, 7296
1, 56737, Pitch_bend_c, 15, 7424
1, 56745, Pitch_bend_c, 15, 7552
1, 56752, Pitch_bend_c, 15, 7680
1, 56757, Pitch_bend_c, 13, 6912
1, 56760, Note_on_c, 6, 76, 0
1, 56760, Note_on_c, 6, 73, 0
1, 56760, Note_on_c, 6, 57, 0
1, 56760, Note_on_c, 13, 78, 0
1, 56760, Note_on_c, 6, 45, 0
1, 56760, Note_on_c, 6, 69, 0
1, 56760, Note_on_c, 3, 45, 0
1, 56760, Note_on_c, 6, 73, 100
1, 56760, Note_on_c, 6, 76, 100
1, 56760, Note_on_c, 6, 69, 100
1, 56760, Note_on_c, 6, 57, 100
1, 56760, Note_on_c, 6, 45, 100
1, 56760, Note_on_c, 9, 42, 100
1, 56760, Pitch_bend_c, 13, 8192
1, 56760, Note_on_c, 13, 78, 100
1, 56760, Pitch_bend_c, 15, 7808
1, 56765, Note_on_c, 1, 61, 0
1, 56765, Note_on_c, 1, 52, 0
1, 56765, Note_on_c, 1, 57, 0
1, 56765, Note_on_c, 1, 64, 0
1, 56765, Note_on_c, 1, 45, 0
1, 56765, Note_on_c, 1, 61, 75
1, 56765, Note_on_c, 1, 64, 75
1, 56765, Note_on_c, 1, 57, 75
1, 56765, Note_on_c, 1, 52, 75
1, 56765, Note_on_c, 1, 45, 75
1, 56767, Pitch_bend_c, 13, 7040
1, 56767, Pitch_bend_c, 15, 7936
1, 56775, Note_on_c, 9, 42, 0
1, 56775, Pitch_bend_c, 15, 8064
1, 56777, Pitch_bend_c, 13, 7168
1, 56782, Pitch_bend_c, 15, 8192
1, 56787, Pitch_bend_c, 13, 7296
1, 56797, Pitch_bend_c, 13, 7424
1, 56807, Pitch_bend_c, 13, 7552
1, 56817, Pitch_bend_c, 13, 7680
1, 56817, Pitch_bend_c, 15, 6912
1, 56820, Note_on_c, 6, 45, 0
1, 56820, Note_on_c, 6, 76, 0
1, 56820, Note_on_c, 15, 90, 0
1, 56820, Note_on_c, 6, 69, 0
1, 56820, Note_on_c, 6, 57, 0
1, 56820, Note_on_c, 6, 73, 0
1, 56820, Note_on_c, 3, 40, 100
1, 56820, Note_on_c, 6, 76, 100
1, 56820, Note_on_c, 6, 69, 100
1, 56820, Note_on_c, 6, 73, 100
1, 56820, Note_on_c, 6, 57, 100
1, 56820, Note_on_c, 6, 45, 100
1, 56820, Note_on_c, 9, 36, 100
1, 56820, Pitch_bend_c, 15, 8192
1, 56820, Note_on_c, 15, 90, 105
1, 56825, Note_on_c, 1, 61, 0
1, 56825, Note_on_c, 1, 57, 0
1, 56825, Note_on_c, 1, 45, 0
1, 56825, Note_on_c, 1, 52, 0
1, 56825, Note_on_c, 1, 64, 0
1, 56825, Note_on_c, 1, 61, 75
1, 56825, Note_on_c, 1, 64, 75
1, 56825, Note_on_c, 1, 52, 75
1, 56825, Note_on_c, 1, 45, 75
1, 56825, Note_on_c, 1, 57, 75
1, 56827, Pitch_bend_c, 13, 7808
1, 56827, Pitch_bend_c, 15, 7040
1, 56835, Note_on_c, 9, 36, 0
1, 56837, Pitch_bend_c, 13, 7936
1, 56837, Pitch_bend_c, 15, 7168
1, 56845, Pitch_bend_c, 13, 8064
1, 56847, Pitch_bend_c, 15, 7296
1, 56857, Pitch_bend_c, 15, 7424
1, 56867, Pitch_bend_c, 15, 7552
1, 56877, Pitch_bend_c, 13, 7296
1, 56877, Pitch_bend_c, 15, 7680
1, 56880, Note_on_c, 13, 78, 0
1, 56880, Note_on_c, 6, 76, 0
1, 56880, Note_on_c, 6, 69, 0
1, 56880, Note_on_c, 6, 45, 0
1, 56880, Note_on_c, 6, 73, 0
1, 56880, Note_on_c, 6, 57, 0
1, 56880, Note_on_c, 3, 40, 0
1, 56880, Note_on_c, 3, 45, 100
1, 56880, Note_on_c, 6, 73, 100
1, 56880, Note_on_c, 6, 57, 100
1, 56880, Note_on_c, 6, 45, 100
1, 56880, Note_on_c, 6, 76, 100
1, 56880, Note_on_c, 6, 69, 100
1, 56880, Note_on_c, 9, 38, 100
1, 56880, Note_on_c, 9, 42, 100
1, 56880, Note_on_c, 13, 78, 100
1, 56885, Note_on_c, 1, 57, 0
1, 56885, Note_on_c, 1, 64, 0
1, 56885, Note_on_c, 1, 45, 0
1, 56885, Note_on_c, 1, 52, 0
1, 56885, Note_on_c, 1, 61, 0
1, 56885, Note_on_c, 1, 64, 75
1, 56885, Note_on_c, 1, 57, 75
1, 56885, Note_on_c, 1, 52, 75
1, 56885, Note_on_c, 1, 45, 75
1, 56885, Note_on_c, 1, 61, 75
1, 56887, Pitch_bend_c, 15, 7808
1, 56890, Pitch_bend_c, 13, 7424
1, 56895, Note_on_c, 9, 38, 0
1, 56895, Note_on_c, 9, 42, 0
1, 56897, Pitch_bend_c, 15, 7936
1, 56902, Pitch_bend_c, 13, 7552
1, 56905, Pitch_bend_c, 15, 8064
1, 56915, Pitch_bend_c, 13, 7680
1, 56925, Pitch_bend_c, 13, 7808
1, 56937, Pitch_bend_c, 13, 7936
1, 56937, Pitch_bend_c, 15, 7296
1, 56940, Note_on_c, 15, 90, 0
1, 56940, Note_on_c, 15, 90, 105
1, 56950, Pitch_bend_c, 13, 8064
1, 56950, Pitch_bend_c, 15, 7424
1, 56962, Pitch_bend_c, 13, 8192
1, 56962, Pitch_bend_c, 15, 7552
1, 56972, Pitch_bend_c, 13, 8320
1, 56975, Pitch_bend_c, 15, 7680
1, 56985, Pitch_bend_c, 15, 7808
1, 56997, Pitch_bend_c, 15, 7936
1, 57000, Note_on_c, 13, 78, 0
1, 57000, Note_on_c, 6, 73, 0
1, 57000, Note_on_c, 6, 57, 0
1, 57000, Note_on_c, 3, 45, 0
1, 57000, Note_on_c, 6, 45, 0
1, 57000, Note_on_c, 6, 69, 0
1, 57000, Note_on_c, 6, 76, 0
1, 57000, Note_on_c, 9, 42, 100
1, 57000, Pitch_bend_c, 13, 7168
1, 57000, Note_on_c, 13, 78, 100
1, 57005, Note_on_c, 1, 52, 0
1, 57005, Note_on_c, 1, 57, 0
1, 57005, Note_on_c, 1, 45, 0
1, 57005, Note_on_c, 1, 64, 0
1, 57005, Note_on_c, 1, 61, 0
1, 57005, Note_on_c, 1, 52, 60
1, 57005, Note_on_c, 1, 45, 60
1, 57005, Note_on_c, 1, 64, 60
1, 57005, Note_on_c, 1, 61, 60
1, 57005, Note_on_c, 1, 57, 60
1, 57010, Pitch_bend_c, 13, 7296
1, 57010, Pitch_bend_c, 15, 8064
1, 57015, Note_on_c, 9, 42, 0
1, 57017, Pitch_bend_c, 13, 7424
1, 57022, Pitch_bend_c, 15, 8192
1, 57027, Pitch_bend_c, 13, 7552
1, 57032, Pitch_bend_c, 15, 8320
1, 57035, Pitch_bend_c, 13, 7680
1, 57045, Pitch_bend_c, 13, 7808
1, 57052, Pitch_bend_c, 13, 7936
1, 57060, Note_on_c, 15, 90, 0
1, 57060, Pitch_bend_c, 15, 7168
1, 57060, Note_on_c, 15, 90, 105
1, 57062, Pitch_bend_c, 13, 8064
1, 57070, Pitch_bend_c, 13, 8192
1, 57070, Pitch_bend_c, 15, 7296
1, 57077, Pitch_bend_c, 13, 8320
1, 57077, Pitch_bend_c, 15, 7424
1, 57087, Pitch_bend_c, 15, 7552
1, 57095, Pitch_bend_c, 15, 7680
1, 57105, Pitch_bend_c, 15, 7808
1, 57112, Pitch_bend_c, 15, 7936
1, 57120, Note_on_c, 13, 78, 0
1, 57120, Note_on_c, 3, 45, 100
1, 57120, Note_on_c, 6, 76, 100
1, 57120, Note_on_c, 6, 73, 100
1, 57120, Note_on_c, 6, 57, 100
1, 57120, Note_on_c, 6, 45, 100
1, 57120, Note_on_c, 6, 69, 100
1, 57120, Note_on_c, 9, 36, 100
1, 57120, Note_on_c, 9, 42, 100
1, 57120, Pitch_bend_c, 13, 6784
1, 57120, Note_on_c, 13, 78, 100
1, 57122, Pitch_bend_c, 15, 8064
1, 57125, Note_on_c, 1, 61, 0
1, 57125, Note_on_c, 1, 57, 0
1, 57125, Note_on_c, 1, 45, 0
1, 57125, Note_on_c, 1, 52, 0
1, 57125, Note_on_c, 1, 64, 0
1, 57125, Note_on_c, 1, 64, 75
1, 57125, Note_on_c, 1, 61, 75
1, 57125, Note_on_c, 1, 52, 75
1, 57125, Note_on_c, 1, 45, 75
1, 57125, Note_on_c, 1, 57, 75
1, 57127, Pitch_bend_c, 13, 6912
1, 57130, Pitch_bend_c, 15, 8192
1, 57135, Note_on_c, 9, 36, 0
1, 57135, Note_on_c, 9, 42, 0
1, 57135, Pitch_bend_c, 13, 7040
1, 57137, Pitch_bend_c, 15, 8320
1, 57142, Pitch_bend_c, 13, 7168
1, 57150, Pitch_bend_c, 13, 7296
1, 57157, Pitch_bend_c, 13, 7424
1, 57165, Pitch_bend_c, 13, 7552
1, 57172, Pitch_bend_c, 13, 7680
1, 57180, Note_on_c, 3, 45, 0
1, 57180, Note_on_c, 6, 73, 0
1, 57180, Note_on_c, 15, 90, 0
1, 57180, Note_on_c, 6, 76, 0
1, 57180, Note_on_c, 6, 57, 0
1, 57180, Note_on_c, 6, 69, 0
1, 57180, Note_on_c, 6, 45, 0
1, 57180, Note_on_c, 3, 44, 100
1, 57180, Note_on_c, 6, 76, 100
1, 57180, Note_on_c, 6, 57, 100
1, 57180, Note_on_c, 6, 45, 100
1, 57180, Note_on_c, 6, 69, 100
1, 57180, Note_on_c, 6, 73, 100
1, 57180, Pitch_bend_c, 13, 7808
1, 57180, Pitch_bend_c, 15, 6784
1, 57180, Note_on_c, 15, 90, 105
1, 57185, Note_on_c, 1, 52, 0
1, 57185, Note_on_c, 1, 61, 0
1, 57185, Note_on_c, 1, 45, 0
1, 57185, Note_on_c, 1, 64, 0
1, 57185, Note_on_c, 1, 57, 0
1, 57185, Note_on_c, 1, 61, 75
1, 57185, Note_on_c, 1, 52, 75
1, 57185, Note_on_c, 1, 64, 75
1, 57185, Note_on_c, 1, 57, 75
1, 57185, Note_on_c, 1, 45, 75
1, 57187, Pitch_bend_c, 13, 7936
1, 57187, Pitch_bend_c, 15, 6912
1, 57195, Pitch_bend_c, 13, 8064
1, 57195, Pitch_bend_c, 15, 7040
1, 57202, Pitch_bend_c, 13, 8192
1, 57202, Pitch_bend_c, 15, 7168
1, 57210, Pitch_bend_c, 15, 7296
1, 57217, Pitch_bend_c, 15, 7424
1, 57225, Pitch_bend_c, 15, 7552
1, 57232, Pitch_bend_c, 15, 7680
1, 57237, Pitch_bend_c, 13, 6912
1, 57240, Note_on_c, 6, 57, 0
1, 57240, Note_on_c, 6, 69, 0
1, 57240, Note_on_c, 6, 76, 0
1, 57240, Note_on_c, 13, 78, 0
1, 57240, Note_on_c, 6, 45, 0
1, 57240, Note_on_c, 6, 73, 0
1, 57240, Note_on_c, 3, 44, 0
1, 57240, Note_on_c, 3, 45, 100
1, 57240, Note_on_c, 6, 73, 100
1, 57240, Note_on_c, 6, 76, 100
1, 57240, Note_on_c, 6, 69, 100
1, 57240, Note_on_c, 6, 57, 100
1, 57240, Note_on_c, 6, 45, 100
1, 57240, Note_on_c, 9, 42, 100
1, 57240, Pitch_bend_c, 13, 8192
1, 57240, Note_on_c, 13, 78, 100
1, 57240, Pitch_bend_c, 15, 7808
1, 57245, Note_on_c, 1, 61, 0
1, 57245, Note_on_c, 1, 64, 0
1, 57245, Note_on_c, 1, 45, 0
1, 57245, Note_on_c, 1, 57, 0
1, 57245, Note_on_c, 1, 52, 0
1, 57245, Note_on_c, 1, 61, 75
1, 57245, Note_on_c, 1, 64, 75
1, 57245, Note_on_c, 1, 57, 75
1, 57245, Note_on_c, 1, 52, 75
1, 57245, Note_on_c, 1, 45, 75
1, 57247, Pitch_bend_c, 13, 7040
1, 57247, Pitch_bend_c, 15, 7936
1, 57255, Note_on_c, 9, 42, 0
1, 57255, Pitch_bend_c, 15, 8064
1, 57257, Pitch_bend_c, 13, 7168
1, 57262, Pitch_bend_c, 15, 8192
1, 57267, Pitch_bend_c, 13, 7296
1, 57277, Pitch_bend_c, 13, 7424
1, 57287, Pitch_bend_c, 13, 7552
1, 57297, Pitch_bend_c, 13, 7680
1, 57297, Pitch_bend_c, 15, 6912
1, 57300, Note_on_c, 15, 90, 0
1, 57300, Note_on_c, 6, 73, 0
1, 57300, Note_on_c, 6, 76, 0
1, 57300, Note_on_c, 6, 45, 0
1, 57300, Note_on_c, 6, 69, 0
1, 57300, Note_on_c, 6, 57, 0
1, 57300, Note_on_c, 3, 45, 0
1, 57300, Note_on_c, 3, 45, 100
1, 57300, Note_on_c, 6, 76, 100
1, 57300, Note_on_c, 6, 69, 100
1, 57300, Note_on_c, 6, 73, 100
1, 57300, Note_on_c, 6, 57, 100
1, 57300, Note_on_c, 6, 45, 100
1, 57300, Note_on_c, 9, 36, 100
1, 57300, Pitch_bend_c, 15, 8192
1, 57300, Note_on_c, 15, 90, 105
1, 57305, Note_on_c, 1, 45, 0
1, 57305, Note_on_c, 1, 64, 0
1, 57305, Note_on_c, 1, 52, 0
1, 57305, Note_on_c, 1, 57, 0
1, 57305, Note_on_c, 1, 61, 0
1, 57305, Note_on_c, 1, 61, 75
1, 57305, Note_on_c, 1, 64, 75
1, 57305, Note_on_c, 1, 52, 75
1, 57305, Note_on_c, 1, 45, 75
1, 57305, Note_on_c, 1, 57, 75
1, 57307, Pitch_bend_c, 13, 7808
1, 57307, Pitch_bend_c, 15, 7040
1, 57315, Note_on_c, 9, 36, 0
1, 57317, Pitch_bend_c, 13, 7936
1, 57317, Pitch_bend_c, 15, 7168
1, 57325, Pitch_bend_c, 13, 8064
1, 57327, Pitch_bend_c, 15, 7296
1, 57337, Pitch_bend_c, 15, 7424
1, 57347, Pitch_bend_c, 15, 7552
1, 57357, Pitch_bend_c, 13, 7296
1, 57357, Pitch_bend_c, 15, 7680
1, 57360, Note_on_c, 13, 78, 0
1, 57360, Note_on_c, 6, 76, 0
1, 57360, Note_on_c, 6, 69, 0
1, 57360, Note_on_c, 6, 45, 0
1, 57360, Note_on_c, 6, 73, 0
1, 57360, Note_on_c, 6, 57, 0
1, 57360, Note_on_c, 3, 45, 0
1, 57360, Note_on_c, 3, 45, 100
1, 57360, Note_on_c, 6, 73, 100
1, 57360, Note_on_c, 6, 57, 100
1, 57360, Note_on_c, 6, 45, 100
1, 57360, Note_on_c, 6, 76, 100
1, 57360, Note_on_c, 6, 69, 100
1, 57360, Note_on_c, 9, 46, 100
1, 57360, Note_on_c, 9, 38, 100
1, 57360, Note_on_c, 13, 78, 100
1, 57365, Note_on_c, 1, 57, 0
1, 57365, Note_on_c, 1, 64, 0
1, 57365, Note_on_c, 1, 45, 0
1, 57365, Note_on_c, 1, 52, 0
1, 57365, Note_on_c, 1, 61, 0
1, 57365, Note_on_c, 1, 64, 75
1, 57365, Note_on_c, 1, 57, 75
1, 57365, Note_on_c, 1, 52, 75
1, 57365, Note_on_c, 1, 45, 75
1, 57365, Note_on_c, 1, 61, 75
1, 57367, Pitch_bend_c, 15, 7808
1, 57370, Pitch_bend_c, 13, 7424
1, 57375, Note_on_c, 9, 46, 0
1, 57375, Note_on_c, 9, 38, 0
1, 57377, Pitch_bend_c, 15, 7936
1, 57382, Pitch_bend_c, 13, 7552
1, 57385, Pitch_bend_c, 15, 8064
1, 57395, Pitch_bend_c, 13, 7680
1, 57405, Pitch_bend_c, 13, 7808
1, 57417, Pitch_bend_c, 13, 7936
1, 57417, Pitch_bend_c, 15, 7296
1, 57420, Note_on_c, 15, 90, 0
1, 57420, Note_on_c, 15, 90, 105
1, 57430, Pitch_bend_c, 13, 8064
1, 57430, Pitch_bend_c, 15, 7424
1, 57442, Pitch_bend_c, 13, 8192
1, 57442, Pitch_bend_c, 15, 7552
1, 57452, Pitch_bend_c, 13, 8320
1, 57455, Pitch_bend_c, 15, 7680
1, 57465, Pitch_bend_c, 15, 7808
1, 57477, Pitch_bend_c, 15, 7936
1, 57480, Note_on_c, 13, 78, 0
1, 57480, Note_on_c, 6, 73, 0
1, 57480, Note_on_c, 6, 57, 0
1, 57480, Note_on_c, 3, 45, 0
1, 57480, Note_on_c, 6, 45, 0
1, 57480, Note_on_c, 6, 69, 0
1, 57480, Note_on_c, 6, 76, 0
1, 57480, Note_on_c, 3, 43, 100
1, 57480, Pitch_bend_c, 13, 7168
1, 57480, Note_on_c, 13, 78, 100
1, 57485, Note_on_c, 1, 52, 0
1, 57485, Note_on_c, 1, 57, 0
1, 57485, Note_on_c, 1, 45, 0
1, 57485, Note_on_c, 1, 64, 0
1, 57485, Note_on_c, 1, 61, 0
1, 57485, Note_on_c, 1, 52, 60
1, 57485, Note_on_c, 1, 45, 60
1, 57485, Note_on_c, 1, 64, 60
1, 57485, Note_on_c, 1, 61, 60
1, 57485, Note_on_c, 1, 57, 60
1, 57490, Pitch_bend_c, 13, 7296
1, 57490, Pitch_bend_c, 15, 8064
1, 57497, Pitch_bend_c, 13, 7424
1, 57502, Pitch_bend_c, 15, 8192
1, 57507, Pitch_bend_c, 13, 7552
1, 57512, Pitch_bend_c, 15, 8320
1, 57515, Pitch_bend_c, 13, 7680
1, 57525, Pitch_bend_c, 13, 7808
1, 57532, Pitch_bend_c, 13, 7936
1, 57540, Note_on_c, 15, 90, 0
1, 57540, Pitch_bend_c, 15, 7168
1, 57540, Note_on_c, 15, 90, 105
1, 57542, Pitch_bend_c, 13, 8064
1, 57550, Pitch_bend_c, 13, 8192
1, 57550, Pitch_bend_c, 15, 7296
1, 57557, Pitch_bend_c, 13, 8320
1, 57557, Pitch_bend_c, 15, 7424
1, 57567, Pitch_bend_c, 15, 7552
1, 57575, Pitch_bend_c, 15, 7680
1, 57585, Pitch_bend_c, 15, 7808
1, 57592, Pitch_bend_c, 15, 7936
1, 57600, Note_on_c, 13, 78, 0
1, 57600, Note_on_c, 3, 43, 0
1, 57600, Note_on_c, 3, 43, 100
1, 57600, Note_on_c, 6, 74, 100
1, 57600, Note_on_c, 6, 71, 100
1, 57600, Note_on_c, 6, 55, 100
1, 57600, Note_on_c, 6, 43, 100
1, 57600, Note_on_c, 6, 67, 100
1, 57600, Note_on_c, 9, 42, 100
1, 57600, Note_on_c, 9, 36, 100
1, 57600, Pitch_bend_c, 13, 6784
1, 57600, Note_on_c, 13, 78, 100
1, 57602, Pitch_bend_c, 15, 8064
1, 57605, Note_on_c, 1, 61, 0
1, 57605, Note_on_c, 1, 52, 0
1, 57605, Note_on_c, 1, 57, 0
1, 57605, Note_on_c, 1, 45, 0
1, 57605, Note_on_c, 1, 64, 0
1, 57605, Note_on_c, 1, 62, 75
1, 57605, Note_on_c, 1, 59, 75
1, 57605, Note_on_c, 1, 50, 75
1, 57605, Note_on_c, 1, 43, 75
1, 57605, Note_on_c, 1, 55, 75
1, 57607, Pitch_bend_c, 13, 6912
1, 57610, Pitch_bend_c, 15, 8192
1, 57615, Note_on_c, 9, 42, 0
1, 57615, Note_on_c, 9, 36, 0
1, 57615, Pitch_bend_c, 13, 7040
1, 57617, Pitch_bend_c, 15, 8320
1, 57622, Pitch_bend_c, 13, 7168
1, 57630, Pitch_bend_c, 13, 7296
1, 57637, Pitch_bend_c, 13, 7424
1, 57645, Pitch_bend_c, 13, 7552
1, 57652, Pitch_bend_c, 13, 7680
1, 57660, Note_on_c, 6, 67, 0
1, 57660, Note_on_c, 6, 74, 0
1, 57660, Note_on_c, 6, 71, 0
1, 57660, Note_on_c, 6, 55, 0
1, 57660, Note_on_c, 15, 90, 0
1, 57660, Note_on_c, 6, 43, 0
1, 57660, Note_on_c, 6, 74, 100
1, 57660, Note_on_c, 6, 55, 100
1, 57660, Note_on_c, 6, 43, 100
1, 57660, Note_on_c, 6, 67, 100
1, 57660, Note_on_c, 6, 71, 100
1, 57660, Pitch_bend_c, 13, 7808
1, 57660, Pitch_bend_c, 15, 6784
1, 57660, Note_on_c, 15, 90, 105
1, 57665, Note_on_c, 1, 62, 0
1, 57665, Note_on_c, 1, 50, 0
1, 57665, Note_on_c, 1, 59, 0
1, 57665, Note_on_c, 1, 43, 0
1, 57665, Note_on_c, 1, 55, 0
1, 57665, Note_on_c, 1, 59, 75
1, 57665, Note_on_c, 1, 50, 75
1, 57665, Note_on_c, 1, 62, 75
1, 57665, Note_on_c, 1, 55, 75
1, 57665, Note_on_c, 1, 43, 75
1, 57667, Pitch_bend_c, 13, 7936
1, 57667, Pitch_bend_c, 15, 6912
1, 57675, Pitch_bend_c, 13, 8064
1, 57675, Pitch_bend_c, 15, 7040
1, 57682, Pitch_bend_c, 13, 8192
1, 57682, Pitch_bend_c, 15, 7168
1, 57690, Pitch_bend_c, 15, 7296
1, 57697, Pitch_bend_c, 15, 7424
1, 57705, Pitch_bend_c, 15, 7552
1, 57712, Pitch_bend_c, 15, 7680
1, 57717, Pitch_bend_c, 13, 6912
1, 57720, Note_on_c, 6, 74, 0
1, 57720, Note_on_c, 6, 71, 0
1, 57720, Note_on_c, 6, 55, 0
1, 57720, Note_on_c, 13, 78, 0
1, 57720, Note_on_c, 6, 43, 0
1, 57720, Note_on_c, 6, 67, 0
1, 57720, Note_on_c, 3, 43, 0
1, 57720, Note_on_c, 6, 71, 100
1, 57720, Note_on_c, 6, 74, 100
1, 57720, Note_on_c, 6, 67, 100
1, 57720, Note_on_c, 6, 55, 100
1, 57720, Note_on_c, 6, 43, 100
1, 57720, Note_on_c, 9, 42, 100
1, 57720, Pitch_bend_c, 13, 8192
1, 57720, Note_on_c, 13, 78, 100
1, 57720, Pitch_bend_c, 15, 7808
1, 57725, Note_on_c, 1, 59, 0
1, 57725, Note_on_c, 1, 50, 0
1, 57725, Note_on_c, 1, 55, 0
1, 57725, Note_on_c, 1, 62, 0
1, 57725, Note_on_c, 1, 43, 0
1, 57725, Note_on_c, 1, 59, 75
1, 57725, Note_on_c, 1, 62, 75
1, 57725, Note_on_c, 1, 55, 75
1, 57725, Note_on_c, 1, 50, 75
1, 57725, Note_on_c, 1, 43, 75
1, 57727, Pitch_bend_c, 13, 7040
1, 57727, Pitch_bend_c, 15, 7936
1, 57735, Note_on_c, 9, 42, 0
1, 57735, Pitch_bend_c, 15, 8064
1, 57737, Pitch_bend_c, 13, 7168
1, 57742, Pitch_bend_c, 15, 8192
1, 57747, Pitch_bend_c, 13, 7296
1, 57757, Pitch_bend_c, 13, 7424
1, 57767, Pitch_bend_c, 13, 7552
1, 57777, Pitch_bend_c, 13, 7680
1, 57777, Pitch_bend_c, 15, 6912
1, 57780, Note_on_c, 6, 43, 0
1, 57780, Note_on_c, 6, 74, 0
1, 57780, Note_on_c, 15, 90, 0
1, 57780, Note_on_c, 6, 67, 0
1, 57780, Note_on_c, 6, 55, 0
1, 57780, Note_on_c, 6, 71, 0
1, 57780, Note_on_c, 3, 42, 100
1, 57780, Note_on_c, 6, 74, 100
1, 57780, Note_on_c, 6, 67, 100
1, 57780, Note_on_c, 6, 71, 100
1, 57780, Note_on_c, 6, 55, 100
1, 57780, Note_on_c, 6, 43, 100
1, 57780, Note_on_c, 9, 36, 100
1, 57780, Pitch_bend_c, 15, 8192
1, 57780, Note_on_c, 15, 90, 105
1, 57785, Note_on_c, 1, 59, 0
1, 57785, Note_on_c, 1, 55, 0
1, 57785, Note_on_c, 1, 43, 0
1, 57785, Note_on_c, 1, 50, 0
1, 57785, Note_on_c, 1, 62, 0
1, 57785, Note_on_c, 1, 59, 75
1, 57785, Note_on_c, 1, 62, 75
1, 57785, Note_on_c, 1, 50, 75
1, 57785, Note_on_c, 1, 43, 75
1, 57785, Note_on_c, 1, 55, 75
1, 57787, Pitch_bend_c, 13, 7808
1, 57787, Pitch_bend_c, 15, 7040
1, 57795, Note_on_c, 9, 36, 0
1, 57797, Pitch_bend_c, 13, 7936
1, 57797, Pitch_bend_c, 15, 7168
1, 57805, Pitch_bend_c, 13, 8064
1, 57807, Pitch_bend_c, 15, 7296
1, 57817, Pitch_bend_c, 15, 7424
1, 57827, Pitch_bend_c, 15, 7552
1, 57837, Pitch_bend_c, 13, 7296
1, 57837, Pitch_bend_c, 15, 7680
1, 57840, Note_on_c, 13, 78, 0
1, 57840, Note_on_c, 6, 74, 0
1, 57840, Note_on_c, 6, 67, 0
1, 57840, Note_on_c, 6, 43, 0
1, 57840, Note_on_c, 6, 71, 0
1, 57840, Note_on_c, 6, 55, 0
1, 57840, Note_on_c, 3, 42, 0
1, 57840, Note_on_c, 3, 43, 100
1, 57840, Note_on_c, 6, 71, 100
1, 57840, Note_on_c, 6, 55, 100
1, 57840, Note_on_c, 6, 43, 100
1, 57840, Note_on_c, 6, 74, 100
1, 57840, Note_on_c, 6, 67, 100
1, 57840, Note_on_c, 9, 42, 100
1, 57840, Note_on_c, 9, 38, 100
1, 57840, Note_on_c, 13, 78, 100
1, 57845, Note_on_c, 1, 55, 0
1, 57845, Note_on_c, 1, 62, 0
1, 57845, Note_on_c, 1, 43, 0
1, 57845, Note_on_c, 1, 50, 0
1, 57845, Note_on_c, 1, 59, 0
1, 57845, Note_on_c, 1, 62, 75
1, 57845, Note_on_c, 1, 55, 75
1, 57845, Note_on_c, 1, 50, 75
1, 57845, Note_on_c, 1, 43, 75
1, 57845, Note_on_c, 1, 59, 75
1, 57847, Pitch_bend_c, 15, 7808
1, 57850, Pitch_bend_c, 13, 7424
1, 57855, Note_on_c, 9, 42, 0
1, 57855, Note_on_c, 9, 38, 0
1, 57857, Pitch_bend_c, 15, 7936
1, 57862, Pitch_bend_c, 13, 7552
1, 57865, Pitch_bend_c, 15, 8064
1, 57875, Pitch_bend_c, 13, 7680
1, 57885, Pitch_bend_c, 13, 7808
1, 57897, Pitch_bend_c, 13, 7936
1, 57897, Pitch_bend_c, 15, 7296
1, 57900, Note_on_c, 15, 90, 0
1, 57900, Note_on_c, 15, 90, 105
1, 57910, Pitch_bend_c, 13, 8064
1, 57910, Pitch_bend_c, 15, 7424
1, 57922, Pitch_bend_c, 13, 8192
1, 57922, Pitch_bend_c, 15, 7552
1, 57932, Pitch_bend_c, 13, 8320
1, 57935, Pitch_bend_c, 15, 7680
1, 57945, Pitch_bend_c, 15, 7808
1, 57957, Pitch_bend_c, 15, 7936
1, 57960, Note_on_c, 13, 78, 0
1, 57960, Note_on_c, 6, 71, 0
1, 57960, Note_on_c, 6, 55, 0
1, 57960, Note_on_c, 3, 43, 0
1, 57960, Note_on_c, 6, 43, 0
1, 57960, Note_on_c, 6, 67, 0
1, 57960, Note_on_c, 6, 74, 0
1, 57960, Note_on_c, 9, 42, 100
1, 57960, Pitch_bend_c, 13, 7168
1, 57960, Note_on_c, 13, 78, 100
1, 57965, Note_on_c, 1, 50, 0
1, 57965, Note_on_c, 1, 55, 0
1, 57965, Note_on_c, 1, 43, 0
1, 57965, Note_on_c, 1, 62, 0
1, 57965, Note_on_c, 1, 59, 0
1, 57965, Note_on_c, 1, 50, 60
1, 57965, Note_on_c, 1, 43, 60
1, 57965, Note_on_c, 1, 62, 60
1, 57965, Note_on_c, 1, 59, 60
1, 57965, Note_on_c, 1, 55, 60
1, 57970, Pitch_bend_c, 13, 7296
1, 57970, Pitch_bend_c, 15, 8064
1, 57975, Note_on_c, 9, 42, 0
1, 57977, Pitch_bend_c, 13, 7424
1, 57982, Pitch_bend_c, 15, 8192
1, 57987, Pitch_bend_c, 13, 7552
1, 57992, Pitch_bend_c, 15, 8320
1, 57995, Pitch_bend_c, 13, 7680
1, 58005, Pitch_bend_c, 13, 7808
1, 58012, Pitch_bend_c, 13, 7936
1, 58020, Note_on_c, 15, 90, 0
1, 58020, Pitch_bend_c, 15, 7168
1, 58020, Note_on_c, 15, 90, 105
1, 58022, Pitch_bend_c, 13, 8064
1, 58030, Pitch_bend_c, 13, 8192
1, 58030, Pitch_bend_c, 15, 7296
1, 58037, Pitch_bend_c, 13, 8320
1, 58037, Pitch_bend_c, 15, 7424
1, 58047, Pitch_bend_c, 15, 7552
1, 58055, Pitch_bend_c, 15, 7680
1, 58065, Pitch_bend_c, 15, 7808
1, 58072, Pitch_bend_c, 15, 7936
1, 58080, Note_on_c, 13, 78, 0
1, 58080, Note_on_c, 3, 43, 100
1, 58080, Note_on_c, 6, 74, 100
1, 58080, Note_on_c, 6, 71, 100
1, 58080, Note_on_c, 6, 55, 100
1, 58080, Note_on_c, 6, 43, 100
1, 58080, Note_on_c, 6, 67, 100
1, 58080, Note_on_c, 9, 36, 100
1, 58080, Note_on_c, 9, 42, 100
1, 58080, Pitch_bend_c, 13, 6784
1, 58080, Note_on_c, 13, 78, 100
1, 58082, Pitch_bend_c, 15, 8064
1, 58085, Note_on_c, 1, 59, 0
1, 58085, Note_on_c, 1, 55, 0
1, 58085, Note_on_c, 1, 43, 0
1, 58085, Note_on_c, 1, 50, 0
1, 58085, Note_on_c, 1, 62, 0
1, 58085, Note_on_c, 1, 43, 75
1, 58087, Pitch_bend_c, 13, 6912
1, 58090, Pitch_bend_c, 15, 8192
1, 58095, Note_on_c, 9, 36, 0
1, 58095, Note_on_c, 9, 42, 0
1, 58095, Pitch_bend_c, 13, 7040
1, 58097, Pitch_bend_c, 15, 8320
1, 58102, Pitch_bend_c, 13, 7168
1, 58110, Pitch_bend_c, 13, 7296
1, 58117, Pitch_bend_c, 13, 7424
1, 58125, Pitch_bend_c, 13, 7552
1, 58132, Pitch_bend_c, 13, 7680
1, 58140, Note_on_c, 3, 43, 0
1, 58140, Note_on_c, 6, 74, 0
1, 58140, Note_on_c, 6, 71, 0
1, 58140, Note_on_c, 6, 43, 0
1, 58140, Note_on_c, 15, 90, 0
1, 58140, Note_on_c, 6, 55, 0
1, 58140, Note_on_c, 6, 67, 0
1, 58140, Note_on_c, 3, 42, 100
1, 58140, Note_on_c, 6, 74, 100
1, 58140, Note_on_c, 6, 55, 100
1, 58140, Note_on_c, 6, 43, 100
1, 58140, Note_on_c, 6, 67, 100
1, 58140, Note_on_c, 6, 71, 100
1, 58140, Pitch_bend_c, 13, 7808
1, 58140, Pitch_bend_c, 15, 6784
1, 58140, Note_on_c, 15, 90, 105
1, 58145, Note_on_c, 1, 43, 0
1, 58145, Note_on_c, 1, 43, 75
1, 58147, Pitch_bend_c, 13, 7936
1, 58147, Pitch_bend_c, 15, 6912
1, 58155, Pitch_bend_c, 13, 8064
1, 58155, Pitch_bend_c, 15, 7040
1, 58162, Pitch_bend_c, 13, 8192
1, 58162, Pitch_bend_c, 15, 7168
1, 58170, Pitch_bend_c, 15, 7296
1, 58177, Pitch_bend_c, 15, 7424
1, 58185, Pitch_bend_c, 15, 7552
1, 58192, Pitch_bend_c, 15, 7680
1, 58197, Pitch_bend_c, 13, 6912
1, 58200, Note_on_c, 6, 71, 0
1, 58200, Note_on_c, 6, 55, 0
1, 58200, Note_on_c, 13, 78, 0
1, 58200, Note_on_c, 6, 43, 0
1, 58200, Note_on_c, 3, 42, 0
1, 58200, Note_on_c, 6, 74, 0
1, 58200, Note_on_c, 6, 67, 0
1, 58200, Note_on_c, 3, 43, 100
1, 58200, Note_on_c, 6, 71, 100
1, 58200, Note_on_c, 6, 74, 100
1, 58200, Note_on_c, 6, 67, 100
1, 58200, Note_on_c, 6, 55, 100
1, 58200, Note_on_c, 6, 43, 100
1, 58200, Note_on_c, 9, 42, 100
1, 58200, Pitch_bend_c, 13, 8192
1, 58200, Note_on_c, 13, 78, 100
1, 58200, Pitch_bend_c, 15, 7808
1, 58205, Note_on_c, 1, 43, 0
1, 58205, Note_on_c, 1, 43, 75
1, 58207, Pitch_bend_c, 13, 7040
1, 58207, Pitch_bend_c, 15, 7936
1, 58215, Note_on_c, 9, 42, 0
1, 58215, Pitch_bend_c, 15, 8064
1, 58217, Pitch_bend_c, 13, 7168
1, 58222, Pitch_bend_c, 15, 8192
1, 58227, Pitch_bend_c, 13, 7296
1, 58237, Pitch_bend_c, 13, 7424
1, 58247, Pitch_bend_c, 13, 7552
1, 58257, Pitch_bend_c, 13, 7680
1, 58257, Pitch_bend_c, 15, 6912
1, 58260, Note_on_c, 6, 43, 0
1, 58260, Note_on_c, 15, 90, 0
1, 58260, Note_on_c, 6, 74, 0
1, 58260, Note_on_c, 6, 67, 0
1, 58260, Note_on_c, 3, 43, 0
1, 58260, Note_on_c, 6, 71, 0
1, 58260, Note_on_c, 6, 55, 0
1, 58260, Note_on_c, 3, 42, 100
1, 58260, Note_on_c, 6, 74, 100
1, 58260, Note_on_c, 6, 67, 100
1, 58260, Note_on_c, 6, 71, 100
1, 58260, Note_on_c, 6, 55, 100
1, 58260, Note_on_c, 6, 43, 100
1, 58260, Note_on_c, 9, 36, 100
1, 58260, Pitch_bend_c, 15, 8192
1, 58260, Note_on_c, 15, 90, 105
1, 58265, Note_on_c, 1, 43, 0
1, 58265, Note_on_c, 1, 43, 75
1, 58267, Pitch_bend_c, 13, 7808
1, 58267, Pitch_bend_c, 15, 7040
1, 58275, Note_on_c, 9, 36, 0
1, 58277, Pitch_bend_c, 13, 7936
1, 58277, Pitch_bend_c, 15, 7168
1, 58285, Pitch_bend_c, 13, 8064
1, 58287, Pitch_bend_c, 15, 7296
1, 58297, Pitch_bend_c, 15, 7424
1, 58307, Pitch_bend_c, 15, 7552
1, 58317, Pitch_bend_c, 13, 7296
1, 58317, Pitch_bend_c, 15, 7680
1, 58320, Note_on_c, 6, 43, 0
1, 58320, Note_on_c, 13, 78, 0
1, 58320, Note_on_c, 6, 67, 0
1, 58320, Note_on_c, 6, 71, 0
1, 58320, Note_on_c, 3, 42, 0
1, 58320, Note_on_c, 6, 74, 0
1, 58320, Note_on_c, 6, 55, 0
1, 58320, Note_on_c, 3, 43, 100
1, 58320, Note_on_c, 6, 71, 100
1, 58320, Note_on_c, 6, 55, 100
1, 58320, Note_on_c, 6, 43, 100
1, 58320, Note_on_c, 6, 74, 100
1, 58320, Note_on_c, 6, 67, 100
1, 58320, Note_on_c, 9, 46, 100
1, 58320, Note_on_c, 9, 38, 100
1, 58320, Note_on_c, 13, 78, 100
1, 58325, Note_on_c, 1, 43, 0
1, 58325, Note_on_c, 1, 43, 75
1, 58327, Pitch_bend_c, 15, 7808
1, 58330, Pitch_bend_c, 13, 7424
1, 58335, Note_on_c, 9, 38, 0
1, 58335, Note_on_c, 9, 46, 0
1, 58337, Pitch_bend_c, 15, 7936
1, 58342, Pitch_bend_c, 13, 7552
1, 58345, Pitch_bend_c, 15, 8064
1, 58355, Pitch_bend_c, 13, 7680
1, 58365, Pitch_bend_c, 13, 7808
1, 58377, Pitch_bend_c, 13, 7936
1, 58377, Pitch_bend_c, 15, 7296
1, 58380, Note_on_c, 15, 90, 0
1, 58380, Note_on_c, 15, 90, 105
1, 58390, Pitch_bend_c, 13, 8064
1, 58390, Pitch_bend_c, 15, 7424
1, 58402, Pitch_bend_c, 13, 8192
1, 58402, Pitch_bend_c, 15, 7552
1, 58412, Pitch_bend_c, 13, 8320
1, 58415, Pitch_bend_c, 15, 7680
1, 58425, Pitch_bend_c, 15, 7808
1, 58437, Pitch_bend_c, 15, 7936
1, 58440, Note_on_c, 6, 67, 0
1, 58440, Note_on_c, 6, 55, 0
1, 58440, Note_on_c, 6, 71, 0
1, 58440, Note_on_c, 6, 43, 0
1, 58440, Note_on_c, 3, 43, 0
1, 58440, Note_on_c, 13, 78, 0
1, 58440, Note_on_c, 6, 74, 0
1, 58440, Note_on_c, 3, 40, 100
1, 58440, Pitch_bend_c, 13, 7168
1, 58440, Note_on_c, 13, 78, 100
1, 58450, Pitch_bend_c, 13, 7296
1, 58450, Pitch_bend_c, 15, 8064
1, 58457, Pitch_bend_c, 13, 7424
1, 58462, Pitch_bend_c, 15, 8192
1, 58467, Pitch_bend_c, 13, 7552
1, 58472, Pitch_bend_c, 15, 8320
1, 58475, Pitch_bend_c, 13, 7680
1, 58485, Pitch_bend_c, 13, 7808
1, 58492, Pitch_bend_c, 13, 7936
1, 58500, Note_on_c, 15, 90, 0
1, 58500, Pitch_bend_c, 15, 7168
1, 58500, Note_on_c, 15, 90, 105
1, 58502, Pitch_bend_c, 13, 8064
1, 58510, Pitch_bend_c, 13, 8192
1, 58510, Pitch_bend_c, 15, 7296
1, 58517, Pitch_bend_c, 13, 8320
1, 58517, Pitch_bend_c, 15, 7424
1, 58527, Pitch_bend_c, 15, 7552
1, 58535, Pitch_bend_c, 15, 7680
1, 58545, Pitch_bend_c, 15, 7808
1, 58552, Pitch_bend_c, 15, 7936
1, 58560, Note_on_c, 13, 78, 0
1, 58560, Note_on_c, 3, 40, 0
1, 58560, Note_on_c, 3, 42, 100
1, 58560, Note_on_c, 6, 70, 100
1, 58560, Note_on_c, 6, 66, 100
1, 58560, Note_on_c, 6, 61, 100
1, 58560, Note_on_c, 6, 42, 100
1, 58560, Note_on_c, 6, 54, 100
1, 58560, Note_on_c, 9, 36, 100
1, 58560, Note_on_c, 9, 42, 100
1, 58560, Note_on_c, 13, 67, 100
1, 58562, Pitch_bend_c, 15, 8064
1, 58565, Note_on_c, 1, 43, 0
1, 58565, Note_on_c, 1, 54, 75
1, 58565, Note_on_c, 1, 49, 75
1, 58565, Note_on_c, 1, 42, 75
1, 58570, Pitch_bend_c, 15, 8192
1, 58575, Note_on_c, 9, 42, 0
1, 58575, Note_on_c, 9, 36, 0
1, 58577, Pitch_bend_c, 15, 8320
1, 58620, Note_on_c, 6, 66, 0
1, 58620, Note_on_c, 15, 90, 0
1, 58620, Note_on_c, 6, 70, 0
1, 58620, Note_on_c, 6, 61, 0
1, 58620, Note_on_c, 3, 42, 0
1, 58620, Note_on_c, 3, 41, 100
1, 58620, Note_on_c, 6, 66, 100
1, 58620, Note_on_c, 6, 61, 100
1, 58620, Note_on_c, 6, 70, 100
1, 58620, Note_on_c, 15, 79, 105
1, 58625, Note_on_c, 1, 49, 0
1, 58625, Note_on_c, 1, 42, 0
1, 58625, Note_on_c, 1, 54, 0
1, 58625, Note_on_c, 1, 54, 75
1, 58625, Note_on_c, 1, 49, 75
1, 58625, Note_on_c, 1, 42, 75
1, 58680, Note_on_c, 6, 61, 0
1, 58680, Note_on_c, 6, 66, 0
1, 58680, Note_on_c, 6, 70, 0
1, 58680, Note_on_c, 3, 41, 0
1, 58680, Note_on_c, 3, 42, 100
1, 58680, Note_on_c, 6, 61, 100
1, 58680, Note_on_c, 6, 70, 100
1, 58680, Note_on_c, 6, 66, 100
1, 58680, Note_on_c, 9, 42, 100
1, 58685, Note_on_c, 1, 49, 0
1, 58685, Note_on_c, 1, 54, 0
1, 58685, Note_on_c, 1, 42, 0
1, 58685, Note_on_c, 1, 54, 75
1, 58685, Note_on_c, 1, 49, 75
1, 58685, Note_on_c, 1, 42, 75
1, 58695, Note_on_c, 9, 42, 0
1, 58740, Note_on_c, 6, 66, 0
1, 58740, Note_on_c, 6, 61, 0
1, 58740, Note_on_c, 3, 42, 0
1, 58740, Note_on_c, 6, 70, 0
1, 58740, Note_on_c, 3, 41, 100
1, 58740, Note_on_c, 6, 70, 100
1, 58740, Note_on_c, 6, 66, 100
1, 58740, Note_on_c, 6, 61, 100
1, 58740, Note_on_c, 9, 36, 100
1, 58745, Note_on_c, 1, 49, 0
1, 58745, Note_on_c, 1, 54, 0
1, 58745, Note_on_c, 1, 42, 0
1, 58745, Note_on_c, 1, 54, 75
1, 58745, Note_on_c, 1, 49, 75
1, 58745, Note_on_c, 1, 42, 75
1, 58755, Note_on_c, 9, 36, 0
1, 58800, Note_on_c, 13, 67, 0
1, 58800, Note_on_c, 6, 70, 0
1, 58800, Note_on_c, 3, 41, 0
1, 58800, Note_on_c, 6, 61, 0
1, 58800, Note_on_c, 6, 66, 0
1, 58800, Note_on_c, 3, 42, 100
1, 58800, Note_on_c, 6, 66, 100
1, 58800, Note_on_c, 6, 61, 100
1, 58800, Note_on_c, 6, 70, 100
1, 58800, Note_on_c, 9, 42, 100
1, 58800, Note_on_c, 9, 38, 100
1, 58800, Note_on_c, 13, 69, 100
1, 58805, Note_on_c, 1, 49, 0
1, 58805, Note_on_c, 1, 54, 0
1, 58805, Note_on_c, 1, 42, 0
1, 58805, Note_on_c, 1, 54, 75
1, 58805, Note_on_c, 1, 49, 75
1, 58805, Note_on_c, 1, 42, 75
1, 58815, Note_on_c, 9, 42, 0
1, 58815, Note_on_c, 9, 38, 0
1, 58860, Note_on_c, 6, 70, 0
1, 58860, Note_on_c, 6, 61, 0
1, 58860, Note_on_c, 6, 66, 0
1, 58860, Note_on_c, 15, 79, 0
1, 58860, Note_on_c, 3, 42, 0
1, 58860, Note_on_c, 3, 41, 100
1, 58860, Note_on_c, 6, 61, 100
1, 58860, Note_on_c, 6, 70, 100
1, 58860, Note_on_c, 6, 66, 100
1, 58860, Note_on_c, 15, 81, 105
1, 58865, Note_on_c, 1, 49, 0
1, 58865, Note_on_c, 1, 54, 0
1, 58865, Note_on_c, 1, 42, 0
1, 58865, Note_on_c, 1, 54, 75
1, 58865, Note_on_c, 1, 49, 75
1, 58865, Note_on_c, 1, 42, 75
1, 58920, Note_on_c, 6, 70, 0
1, 58920, Note_on_c, 6, 61, 0
1, 58920, Note_on_c, 6, 66, 0
1, 58920, Note_on_c, 3, 41, 0
1, 58920, Note_on_c, 3, 42, 100
1, 58920, Note_on_c, 6, 70, 100
1, 58920, Note_on_c, 6, 66, 100
1, 58920, Note_on_c, 6, 61, 100
1, 58920, Note_on_c, 9, 42, 100
1, 58925, Note_on_c, 1, 49, 0
1, 58925, Note_on_c, 1, 54, 0
1, 58925, Note_on_c, 1, 42, 0
1, 58925, Note_on_c, 1, 54, 75
1, 58925, Note_on_c, 1, 49, 75
1, 58925, Note_on_c, 1, 42, 75
1, 58935, Note_on_c, 9, 42, 0
1, 58980, Note_on_c, 6, 61, 0
1, 58980, Note_on_c, 6, 70, 0
1, 58980, Note_on_c, 3, 42, 0
1, 58980, Note_on_c, 6, 66, 0
1, 58980, Note_on_c, 3, 41, 100
1, 58980, Note_on_c, 6, 66, 100
1, 58980, Note_on_c, 6, 61, 100
1, 58980, Note_on_c, 6, 70, 100
1, 58985, Note_on_c, 1, 49, 0
1, 58985, Note_on_c, 1, 54, 0
1, 58985, Note_on_c, 1, 42, 0
1, 58985, Note_on_c, 1, 54, 75
1, 58985, Note_on_c, 1, 49, 75
1, 58985, Note_on_c, 1, 42, 75
1, 59040, Note_on_c, 3, 41, 0
1, 59040, Note_on_c, 6, 61, 0
1, 59040, Note_on_c, 6, 66, 0
1, 59040, Note_on_c, 6, 54, 0
1, 59040, Note_on_c, 6, 70, 0
1, 59040, Note_on_c, 13, 69, 0
1, 59040, Note_on_c, 6, 42, 0
1, 59040, Note_on_c, 3, 42, 100
1, 59040, Note_on_c, 6, 54, 100
1, 59040, Note_on_c, 6, 42, 100
1, 59040, Note_on_c, 6, 66, 100
1, 59040, Note_on_c, 6, 70, 100
1, 59040, Note_on_c, 6, 73, 100
1, 59040, Note_on_c, 9, 42, 100
1, 59040, Note_on_c, 9, 38, 100
1, 59040, Note_on_c, 13, 67, 100
1, 59045, Note_on_c, 1, 54, 0
1, 59045, Note_on_c, 1, 42, 0
1, 59045, Note_on_c, 1, 49, 0
1, 59045, Note_on_c, 1, 54, 75
1, 59045, Note_on_c, 1, 49, 75
1, 59045, Note_on_c, 1, 42, 75
1, 59055, Note_on_c, 9, 42, 0
1, 59055, Note_on_c, 9, 38, 0
1, 59070, Note_on_c, 13, 67, 0
1, 59070, Note_on_c, 13, 64, 100
1, 59100, Note_on_c, 13, 64, 0
1, 59100, Note_on_c, 3, 42, 0
1, 59100, Note_on_c, 6, 73, 0
1, 59100, Note_on_c, 6, 66, 0
1, 59100, Note_on_c, 6, 70, 0
1, 59100, Note_on_c, 15, 81, 0
1, 59100, Note_on_c, 3, 41, 100
1, 59100, Note_on_c, 6, 66, 100
1, 59100, Note_on_c, 6, 70, 100
1, 59100, Note_on_c, 6, 73, 100
1, 59100, Note_on_c, 9, 42, 100
1, 59100, Note_on_c, 9, 38, 100
1, 59100, Note_on_c, 13, 67, 100
1, 59100, Note_on_c, 15, 79, 105
1, 59105, Note_on_c, 1, 42, 0
1, 59105, Note_on_c, 1, 54, 0
1, 59105, Note_on_c, 1, 49, 0
1, 59105, Note_on_c, 1, 54, 75
1, 59105, Note_on_c, 1, 49, 75
1, 59105, Note_on_c, 1, 42, 75
1, 59115, Note_on_c, 9, 38, 0
1, 59115, Note_on_c, 9, 42, 0
1, 59130, Note_on_c, 15, 79, 0
1, 59130, Note_on_c, 15, 76, 105
1, 59160, Note_on_c, 15, 76, 0
1, 59160, Note_on_c, 3, 41, 0
1, 59160, Note_on_c, 6, 73, 0
1, 59160, Note_on_c, 6, 70, 0
1, 59160, Note_on_c, 6, 66, 0
1, 59160, Note_on_c, 3, 42, 100
1, 59160, Note_on_c, 6, 66, 100
1, 59160, Note_on_c, 6, 70, 100
1, 59160, Note_on_c, 6, 73, 100
1, 59160, Note_on_c, 9, 38, 100
1, 59160, Note_on_c, 9, 42, 100
1, 59160, Note_on_c, 15, 79, 105
1, 59165, Note_on_c, 1, 49, 0
1, 59165, Note_on_c, 1, 54, 0
1, 59165, Note_on_c, 1, 42, 0
1, 59165, Note_on_c, 1, 54, 75
1, 59165, Note_on_c, 1, 49, 75
1, 59165, Note_on_c, 1, 42, 75
1, 59175, Note_on_c, 9, 38, 0
1, 59175, Note_on_c, 9, 42, 0
1, 59220, Note_on_c, 6, 70, 0
1, 59220, Note_on_c, 13, 67, 0
1, 59220, Note_on_c, 6, 66, 0
1, 59220, Note_on_c, 6, 73, 0
1, 59220, Note_on_c, 3, 42, 0
1, 59220, Note_on_c, 3, 41, 100
1, 59220, Note_on_c, 6, 66, 100
1, 59220, Note_on_c, 6, 70, 100
1, 59220, Note_on_c, 6, 73, 100
1, 59220, Note_on_c, 9, 38, 100
1, 59220, Note_on_c, 9, 42, 100
1, 59220, Note_on_c, 13, 67, 100
1, 59225, Note_on_c, 1, 49, 0
1, 59225, Note_on_c, 1, 54, 0
1, 59225, Note_on_c, 1, 42, 0
1, 59225, Note_on_c, 1, 54, 75
1, 59225, Note_on_c, 1, 49, 75
1, 59225, Note_on_c, 1, 42, 75
1, 59235, Note_on_c, 9, 38, 0
1, 59235, Note_on_c, 9, 42, 0
1, 59280, Note_on_c, 6, 70, 0
1, 59280, Note_on_c, 15, 79, 0
1, 59280, Note_on_c, 6, 66, 0
1, 59280, Note_on_c, 6, 73, 0
1, 59280, Note_on_c, 3, 41, 0
1, 59280, Note_on_c, 3, 42, 100
1, 59280, Note_on_c, 6, 66, 100
1, 59280, Note_on_c, 6, 70, 100
1, 59280, Note_on_c, 6, 73, 100
1, 59280, Note_on_c, 9, 42, 100
1, 59280, Note_on_c, 9, 38, 100
1, 59280, Note_on_c, 15, 79, 105
1, 59285, Note_on_c, 1, 49, 0
1, 59285, Note_on_c, 1, 54, 0
1, 59285, Note_on_c, 1, 42, 0
1, 59285, Note_on_c, 1, 54, 75
1, 59285, Note_on_c, 1, 49, 75
1, 59285, Note_on_c, 1, 42, 75
1, 59295, Note_on_c, 9, 42, 0
1, 59295, Note_on_c, 9, 38, 0
1, 59340, Note_on_c, 6, 70, 0
1, 59340, Note_on_c, 6, 66, 0
1, 59340, Note_on_c, 6, 73, 0
1, 59340, Note_on_c, 3, 42, 0
1, 59340, Note_on_c, 3, 41, 100
1, 59340, Note_on_c, 6, 66, 100
1, 59340, Note_on_c, 6, 70, 100
1, 59340, Note_on_c, 6, 73, 100
1, 59340, Note_on_c, 9, 38, 100
1, 59340, Note_on_c, 9, 42, 100
1, 59345, Note_on_c, 1, 54, 0
1, 59345, Note_on_c, 1, 42, 0
1, 59345, Note_on_c, 1, 49, 0
1, 59345, Note_on_c, 1, 54, 75
1, 59345, Note_on_c, 1, 49, 75
1, 59345, Note_on_c, 1, 42, 75
1, 59355, Note_on_c, 9, 42, 0
1, 59355, Note_on_c, 9, 38, 0
1, 59400, Note_on_c, 6, 73, 0
1, 59400, Note_on_c, 3, 41, 0
1, 59400, Note_on_c, 13, 67, 0
1, 59400, Note_on_c, 6, 70, 0
1, 59400, Note_on_c, 6, 66, 0
1, 59400, Note_on_c, 3, 40, 100
1, 59400, Note_on_c, 6, 66, 100
1, 59400, Note_on_c, 6, 70, 100
1, 59400, Note_on_c, 6, 73, 100
1, 59400, Note_on_c, 9, 38, 100
1, 59405, Note_on_c, 1, 49, 0
1, 59405, Note_on_c, 1, 54, 0
1, 59405, Note_on_c, 1, 42, 0
1, 59405, Note_on_c, 1, 54, 75
1, 59405, Note_on_c, 1, 49, 75
1, 59405, Note_on_c, 1, 42, 75
1, 59415, Note_on_c, 9, 38, 0
1, 59430, Note_on_c, 9, 38, 100
1, 59445, Note_on_c, 9, 38, 0
1, 59460, Note_on_c, 6, 73, 0
1, 59460, Note_on_c, 6, 66, 0
1, 59460, Note_on_c, 15, 79, 0
1, 59460, Note_on_c, 6, 70, 0
1, 59460, Note_on_c, 3, 40, 0
1, 59460, Note_on_c, 3, 37, 100
1, 59460, Note_on_c, 6, 66, 100
1, 59460, Note_on_c, 6, 70, 100
1, 59460, Note_on_c, 6, 73, 100
1, 59460, Note_on_c, 9, 38, 100
1, 59465, Note_on_c, 1, 42, 0
1, 59465, Note_on_c, 1, 49, 0
1, 59465, Note_on_c, 1, 54, 0
1, 59465, Note_on_c, 1, 54, 75
1, 59465, Note_on_c, 1, 49, 75
1, 59465, Note_on_c, 1, 42, 75
1, 59475, Note_on_c, 9, 38, 0
1, 59490, Note_on_c, 9, 38, 100
1, 59505, Note_on_c, 9, 38, 0
1, 59520, Note_on_c, 6, 70, 0
1, 59520, Note_on_c, 6, 42, 0
1, 59520, Note_on_c, 6, 73, 0
1, 59520, Note_on_c, 3, 37, 0
1, 59520, Note_on_c, 6, 54, 0
1, 59520, Note_on_c, 6, 66, 0
1, 59520, Note_on_c, 3, 47, 100
1, 59520, Note_on_c, 6, 78, 100
1, 59520, Note_on_c, 6, 74, 100
1, 59520, Note_on_c, 6, 69, 100
1, 59520, Note_on_c, 6, 59, 100
1, 59520, Note_on_c, 6, 47, 100
1, 59520, Note_on_c, 9, 49, 100
1, 59520, Note_on_c, 9, 36, 100
1, 59520, Note_on_c, 13, 69, 100
1, 59525, Note_on_c, 1, 42, 0
1, 59525, Note_on_c, 1, 54, 0
1, 59525, Note_on_c, 1, 49, 0
1, 59525, Note_on_c, 1, 66, 75
1, 59525, Note_on_c, 1, 62, 75
1, 59525, Note_on_c, 1, 57, 75
1, 59525, Note_on_c, 1, 54, 75
1, 59525, Note_on_c, 1, 47, 75
1, 59535, Note_on_c, 9, 36, 0
1, 59535, Note_on_c, 9, 49, 0
1, 59580, Note_on_c, 6, 47, 0
1, 59580, Note_on_c, 6, 59, 0
1, 59580, Note_on_c, 6, 78, 0
1, 59580, Note_on_c, 6, 74, 0
1, 59580, Note_on_c, 6, 69, 0
1, 59580, Note_on_c, 6, 78, 100
1, 59580, Note_on_c, 6, 74, 100
1, 59580, Note_on_c, 6, 69, 100
1, 59580, Note_on_c, 6, 59, 100
1, 59580, Note_on_c, 6, 47, 100
1, 59580, Note_on_c, 15, 81, 105
1, 59585, Note_on_c, 1, 62, 0
1, 59585, Note_on_c, 1, 57, 0
1, 59585, Note_on_c, 1, 66, 0
1, 59585, Note_on_c, 1, 47, 0
1, 59585, Note_on_c, 1, 54, 0
1, 59585, Note_on_c, 1, 66, 75
1, 59585, Note_on_c, 1, 62, 75
1, 59585, Note_on_c, 1, 57, 75
1, 59585, Note_on_c, 1, 54, 75
1, 59585, Note_on_c, 1, 47, 75
1, 59640, Note_on_c, 6, 78, 0
1, 59640, Note_on_c, 6, 47, 0
1, 59640, Note_on_c, 6, 74, 0
1, 59640, Note_on_c, 3, 47, 0
1, 59640, Note_on_c, 6, 69, 0
1, 59640, Note_on_c, 6, 59, 0
1, 59640, Note_on_c, 6, 78, 100
1, 59640, Note_on_c, 6, 74, 100
1, 59640, Note_on_c, 6, 69, 100
1, 59640, Note_on_c, 6, 59, 100
1, 59640, Note_on_c, 6, 47, 100
1, 59640, Note_on_c, 9, 42, 100
1, 59645, Note_on_c, 1, 62, 0
1, 59645, Note_on_c, 1, 54, 0
1, 59645, Note_on_c, 1, 57, 0
1, 59645, Note_on_c, 1, 66, 0
1, 59645, Note_on_c, 1, 47, 0
1, 59645, Note_on_c, 1, 66, 75
1, 59645, Note_on_c, 1, 62, 75
1, 59645, Note_on_c, 1, 57, 75
1, 59645, Note_on_c, 1, 54, 75
1, 59645, Note_on_c, 1, 47, 75
1, 59655, Note_on_c, 9, 42, 0
1, 59700, Note_on_c, 6, 78, 0
1, 59700, Note_on_c, 6, 74, 0
1, 59700, Note_on_c, 6, 47, 0
1, 59700, Note_on_c, 6, 69, 0
1, 59700, Note_on_c, 6, 59, 0
1, 59700, Note_on_c, 3, 42, 100
1, 59700, Note_on_c, 6, 78, 100
1, 59700, Note_on_c, 6, 74, 100
1, 59700, Note_on_c, 6, 69, 100
1, 59700, Note_on_c, 6, 59, 100
1, 59700, Note_on_c, 6, 47, 100
1, 59700, Note_on_c, 9, 36, 100
1, 59705, Note_on_c, 1, 57, 0
1, 59705, Note_on_c, 1, 47, 0
1, 59705, Note_on_c, 1, 54, 0
1, 59705, Note_on_c, 1, 66, 0
1, 59705, Note_on_c, 1, 62, 0
1, 59705, Note_on_c, 1, 66, 75
1, 59705, Note_on_c, 1, 62, 75
1, 59705, Note_on_c, 1, 57, 75
1, 59705, Note_on_c, 1, 54, 75
1, 59705, Note_on_c, 1, 47, 75
1, 59715, Note_on_c, 9, 36, 0
1, 59760, Note_on_c, 6, 47, 0
1, 59760, Note_on_c, 6, 78, 0
1, 59760, Note_on_c, 3, 42, 0
1, 59760, Note_on_c, 6, 74, 0
1, 59760, Note_on_c, 6, 59, 0
1, 59760, Note_on_c, 6, 69, 0
1, 59760, Note_on_c, 3, 47, 100
1, 59760, Note_on_c, 6, 78, 100
1, 59760, Note_on_c, 6, 74, 100
1, 59760, Note_on_c, 6, 69, 100
1, 59760, Note_on_c, 6, 59, 100
1, 59760, Note_on_c, 6, 47, 100
1, 59760, Note_on_c, 9, 42, 100
1, 59760, Note_on_c, 9, 38, 100
1, 59765, Note_on_c, 1, 62, 0
1, 59765, Note_on_c, 1, 57, 0
1, 59765, Note_on_c, 1, 66, 0
1, 59765, Note_on_c, 1, 47, 0
1, 59765, Note_on_c, 1, 54, 0
1, 59765, Note_on_c, 1, 66, 75
1, 59765, Note_on_c, 1, 62, 75
1, 59765, Note_on_c, 1, 57, 75
1, 59765, Note_on_c, 1, 54, 75
1, 59765, Note_on_c, 1, 47, 75
1, 59775, Note_on_c, 9, 42, 0
1, 59775, Note_on_c, 9, 38, 0
1, 59880, Note_on_c, 6, 69, 0
1, 59880, Note_on_c, 6, 78, 0
1, 59880, Note_on_c, 3, 47, 0
1, 59880, Note_on_c, 6, 74, 0
1, 59880, Note_on_c, 6, 47, 0
1, 59880, Note_on_c, 6, 59, 0
1, 59880, Note_on_c, 9, 42, 100
1, 59885, Note_on_c, 1, 66, 0
1, 59885, Note_on_c, 1, 57, 0
1, 59885, Note_on_c, 1, 62, 0
1, 59885, Note_on_c, 1, 47, 0
1, 59885, Note_on_c, 1, 54, 0
1, 59885, Note_on_c, 1, 66, 60
1, 59885, Note_on_c, 1, 62, 60
1, 59885, Note_on_c, 1, 57, 60
1, 59885, Note_on_c, 1, 54, 60
1, 59885, Note_on_c, 1, 47, 60
1, 59895, Note_on_c, 9, 42, 0
1, 60000, Note_on_c, 13, 69, 0
1, 60000, Note_on_c, 3, 47, 100
1, 60000, Note_on_c, 6, 78, 100
1, 60000, Note_on_c, 6, 74, 100
1, 60000, Note_on_c, 6, 69, 100
1, 60000, Note_on_c, 6, 59, 100
1, 60000, Note_on_c, 6, 47, 100
1, 60000, Note_on_c, 9, 36, 100
1, 60000, Note_on_c, 9, 42, 100
1, 60005, Note_on_c, 1, 57, 0
1, 60005, Note_on_c, 1, 66, 0
1, 60005, Note_on_c, 1, 47, 0
1, 60005, Note_on_c, 1, 62, 0
1, 60005, Note_on_c, 1, 54, 0
1, 60005, Note_on_c, 1, 66, 75
1, 60005, Note_on_c, 1, 62, 75
1, 60005, Note_on_c, 1, 57, 75
1, 60005, Note_on_c, 1, 54, 75
1, 60005, Note_on_c, 1, 47, 75
1, 60015, Note_on_c, 9, 36, 0
1, 60015, Note_on_c, 9, 42, 0
1, 60060, Note_on_c, 15, 81, 0
1, 60060, Note_on_c, 3, 47, 0
1, 60060, Note_on_c, 6, 78, 0
1, 60060, Note_on_c, 6, 74, 0
1, 60060, Note_on_c, 6, 47, 0
1, 60060, Note_on_c, 6, 59, 0
1, 60060, Note_on_c, 6, 69, 0
1, 60060, Note_on_c, 3, 46, 100
1, 60060, Note_on_c, 6, 78, 100
1, 60060, Note_on_c, 6, 74, 100
1, 60060, Note_on_c, 6, 69, 100
1, 60060, Note_on_c, 6, 59, 100
1, 60060, Note_on_c, 6, 47, 100
1, 60060, Note_on_c, 13, 66, 100
1, 60065, Note_on_c, 1, 47, 0
1, 60065, Note_on_c, 1, 57, 0
1, 60065, Note_on_c, 1, 62, 0
1, 60065, Note_on_c, 1, 66, 0
1, 60065, Note_on_c, 1, 54, 0
1, 60065, Note_on_c, 1, 66, 75
1, 60065, Note_on_c, 1, 62, 75
1, 60065, Note_on_c, 1, 57, 75
1, 60065, Note_on_c, 1, 54, 75
1, 60065, Note_on_c, 1, 47, 75
1, 60120, Note_on_c, 6, 74, 0
1, 60120, Note_on_c, 6, 59, 0
1, 60120, Note_on_c, 3, 46, 0
1, 60120, Note_on_c, 6, 47, 0
1, 60120, Note_on_c, 6, 69, 0
1, 60120, Note_on_c, 13, 66, 0
1, 60120, Note_on_c, 6, 78, 0
1, 60120, Note_on_c, 3, 47, 100
1, 60120, Note_on_c, 6, 78, 100
1, 60120, Note_on_c, 6, 74, 100
1, 60120, Note_on_c, 6, 69, 100
1, 60120, Note_on_c, 6, 59, 100
1, 60120, Note_on_c, 6, 47, 100
1, 60120, Note_on_c, 9, 42, 100
1, 60120, Note_on_c, 13, 69, 100
1, 60120, Note_on_c, 15, 78, 105
1, 60125, Note_on_c, 1, 62, 0
1, 60125, Note_on_c, 1, 57, 0
1, 60125, Note_on_c, 1, 47, 0
1, 60125, Note_on_c, 1, 54, 0
1, 60125, Note_on_c, 1, 66, 0
1, 60125, Note_on_c, 1, 66, 75
1, 60125, Note_on_c, 1, 62, 75
1, 60125, Note_on_c, 1, 57, 75
1, 60125, Note_on_c, 1, 54, 75
1, 60125, Note_on_c, 1, 47, 75
1, 60135, Note_on_c, 9, 42, 0
1, 60180, Note_on_c, 3, 47, 0
1, 60180, Note_on_c, 6, 78, 0
1, 60180, Note_on_c, 6, 74, 0
1, 60180, Note_on_c, 6, 69, 0
1, 60180, Note_on_c, 13, 69, 0
1, 60180, Note_on_c, 6, 59, 0
1, 60180, Note_on_c, 6, 47, 0
1, 60180, Note_on_c, 15, 78, 0
1, 60180, Note_on_c, 3, 47, 100
1, 60180, Note_on_c, 6, 78, 100
1, 60180, Note_on_c, 6, 74, 100
1, 60180, Note_on_c, 6, 69, 100
1, 60180, Note_on_c, 6, 59, 100
1, 60180, Note_on_c, 6, 47, 100
1, 60180, Note_on_c, 9, 36, 100
1, 60180, Note_on_c, 13, 69, 100
1, 60180, Note_on_c, 15, 81, 105
1, 60185, Note_on_c, 1, 54, 0
1, 60185, Note_on_c, 1, 66, 0
1, 60185, Note_on_c, 1, 57, 0
1, 60185, Note_on_c, 1, 62, 0
1, 60185, Note_on_c, 1, 47, 0
1, 60185, Note_on_c, 1, 66, 75
1, 60185, Note_on_c, 1, 62, 75
1, 60185, Note_on_c, 1, 57, 75
1, 60185, Note_on_c, 1, 54, 75
1, 60185, Note_on_c, 1, 47, 75
1, 60195, Note_on_c, 9, 36, 0
1, 60240, Note_on_c, 3, 47, 0
1, 60240, Note_on_c, 6, 78, 0
1, 60240, Note_on_c, 6, 74, 0
1, 60240, Note_on_c, 6, 69, 0
1, 60240, Note_on_c, 13, 69, 0
1, 60240, Note_on_c, 6, 59, 0
1, 60240, Note_on_c, 6, 47, 0
1, 60240, Note_on_c, 15, 81, 0
1, 60240, Note_on_c, 3, 47, 100
1, 60240, Note_on_c, 6, 78, 100
1, 60240, Note_on_c, 6, 74, 100
1, 60240, Note_on_c, 6, 69, 100
1, 60240, Note_on_c, 6, 59, 100
1, 60240, Note_on_c, 6, 47, 100
1, 60240, Note_on_c, 9, 46, 100
1, 60240, Note_on_c, 9, 38, 100
1, 60240, Note_on_c, 13, 66, 100
1, 60240, Note_on_c, 15, 81, 105
1, 60245, Note_on_c, 1, 54, 0
1, 60245, Note_on_c, 1, 66, 0
1, 60245, Note_on_c, 1, 57, 0
1, 60245, Note_on_c, 1, 62, 0
1, 60245, Note_on_c, 1, 47, 0
1, 60245, Note_on_c, 1, 66, 75
1, 60245, Note_on_c, 1, 62, 75
1, 60245, Note_on_c, 1, 57, 75
1, 60245, Note_on_c, 1, 54, 75
1, 60245, Note_on_c, 1, 47, 75
1, 60255, Note_on_c, 9, 46, 0
1, 60255, Note_on_c, 9, 38, 0
1, 60300, Note_on_c, 13, 66, 0
1, 60300, Note_on_c, 15, 81, 0
1, 60300, Note_on_c, 13, 69, 100
1, 60300, Note_on_c, 15, 78, 105
1, 60360, Note_on_c, 15, 78, 0
1, 60360, Note_on_c, 6, 74, 0
1, 60360, Note_on_c, 6, 69, 0
1, 60360, Note_on_c, 6, 78, 0
1, 60360, Note_on_c, 6, 59, 0
1, 60360, Note_on_c, 6, 47, 0
1, 60360, Note_on_c, 3, 47, 0
1, 60360, Note_on_c, 3, 43, 100
1, 60360, Note_on_c, 15, 81, 105
1, 60365, Note_on_c, 1, 47, 0
1, 60365, Note_on_c, 1, 57, 0
1, 60365, Note_on_c, 1, 54, 0
1, 60365, Note_on_c, 1, 66, 0
1, 60365, Note_on_c, 1, 62, 0
1, 60365, Note_on_c, 1, 66, 60
1, 60365, Note_on_c, 1, 62, 60
1, 60365, Note_on_c, 1, 57, 60
1, 60365, Note_on_c, 1, 54, 60
1, 60365, Note_on_c, 1, 47, 60
1, 60420, Note_on_c, 3, 43, 0
1, 60420, Note_on_c, 3, 44, 100
1, 60480, Note_on_c, 3, 44, 0
1, 60480, Note_on_c, 3, 45, 100
1, 60480, Note_on_c, 6, 76, 100
1, 60480, Note_on_c, 6, 73, 100
1, 60480, Note_on_c, 6, 57, 100
1, 60480, Note_on_c, 6, 45, 100
1, 60480, Note_on_c, 6, 69, 100
1, 60480, Note_on_c, 9, 42, 100
1, 60480, Note_on_c, 9, 36, 100
1, 60485, Note_on_c, 1, 47, 0
1, 60485, Note_on_c, 1, 62, 0
1, 60485, Note_on_c, 1, 66, 0
1, 60485, Note_on_c, 1, 54, 0
1, 60485, Note_on_c, 1, 57, 0
1, 60485, Note_on_c, 1, 64, 75
1, 60485, Note_on_c, 1, 61, 75
1, 60485, Note_on_c, 1, 52, 75
1, 60485, Note_on_c, 1, 45, 75
1, 60485, Note_on_c, 1, 57, 75
1, 60495, Note_on_c, 9, 42, 0
1, 60495, Note_on_c, 9, 36, 0
1, 60540, Note_on_c, 6, 76, 0
1, 60540, Note_on_c, 6, 57, 0
1, 60540, Note_on_c, 6, 73, 0
1, 60540, Note_on_c, 6, 69, 0
1, 60540, Note_on_c, 6, 45, 0
1, 60540, Note_on_c, 6, 76, 100
1, 60540, Note_on_c, 6, 57, 100
1, 60540, Note_on_c, 6, 45, 100
1, 60540, Note_on_c, 6, 69, 100
1, 60540, Note_on_c, 6, 73, 100
1, 60545, Note_on_c, 1, 57, 0
1, 60545, Note_on_c, 1, 61, 0
1, 60545, Note_on_c, 1, 45, 0
1, 60545, Note_on_c, 1, 52, 0
1, 60545, Note_on_c, 1, 64, 0
1, 60545, Note_on_c, 1, 61, 75
1, 60545, Note_on_c, 1, 52, 75
1, 60545, Note_on_c, 1, 64, 75
1, 60545, Note_on_c, 1, 57, 75
1, 60545, Note_on_c, 1, 45, 75
1, 60600, Note_on_c, 13, 69, 0
1, 60600, Note_on_c, 6, 73, 0
1, 60600, Note_on_c, 6, 76, 0
1, 60600, Note_on_c, 6, 45, 0
1, 60600, Note_on_c, 3, 45, 0
1, 60600, Note_on_c, 6, 69, 0
1, 60600, Note_on_c, 6, 57, 0
1, 60600, Note_on_c, 6, 73, 100
1, 60600, Note_on_c, 6, 76, 100
1, 60600, Note_on_c, 6, 69, 100
1, 60600, Note_on_c, 6, 57, 100
1, 60600, Note_on_c, 6, 45, 100
1, 60600, Note_on_c, 9, 42, 100
1, 60600, Note_on_c, 13, 69, 100
1, 60605, Note_on_c, 1, 61, 0
1, 60605, Note_on_c, 1, 64, 0
1, 60605, Note_on_c, 1, 45, 0
1, 60605, Note_on_c, 1, 57, 0
1, 60605, Note_on_c, 1, 52, 0
1, 60605, Note_on_c, 1, 61, 75
1, 60605, Note_on_c, 1, 64, 75
1, 60605, Note_on_c, 1, 57, 75
1, 60605, Note_on_c, 1, 52, 75
1, 60605, Note_on_c, 1, 45, 75
1, 60615, Note_on_c, 9, 42, 0
1, 60660, Note_on_c, 6, 45, 0
1, 60660, Note_on_c, 6, 76, 0
1, 60660, Note_on_c, 15, 81, 0
1, 60660, Note_on_c, 6, 69, 0
1, 60660, Note_on_c, 6, 57, 0
1, 60660, Note_on_c, 6, 73, 0
1, 60660, Note_on_c, 3, 40, 100
1, 60660, Note_on_c, 6, 76, 100
1, 60660, Note_on_c, 6, 69, 100
1, 60660, Note_on_c, 6, 73, 100
1, 60660, Note_on_c, 6, 57, 100
1, 60660, Note_on_c, 6, 45, 100
1, 60660, Note_on_c, 9, 36, 100
1, 60660, Note_on_c, 15, 81, 105
1, 60665, Note_on_c, 1, 61, 0
1, 60665, Note_on_c, 1, 57, 0
1, 60665, Note_on_c, 1, 45, 0
1, 60665, Note_on_c, 1, 52, 0
1, 60665, Note_on_c, 1, 64, 0
1, 60665, Note_on_c, 1, 61, 75
1, 60665, Note_on_c, 1, 64, 75
1, 60665, Note_on_c, 1, 52, 75
1, 60665, Note_on_c, 1, 45, 75
1, 60665, Note_on_c, 1, 57, 75
1, 60675, Note_on_c, 9, 36, 0
1, 60720, Note_on_c, 13, 69, 0
1, 60720, Note_on_c, 6, 76, 0
1, 60720, Note_on_c, 6, 69, 0
1, 60720, Note_on_c, 6, 45, 0
1, 60720, Note_on_c, 6, 73, 0
1, 60720, Note_on_c, 6, 57, 0
1, 60720, Note_on_c, 3, 40, 0
1, 60720, Note_on_c, 3, 45, 100
1, 60720, Note_on_c, 6, 73, 100
1, 60720, Note_on_c, 6, 57, 100
1, 60720, Note_on_c, 6, 45, 100
1, 60720, Note_on_c, 6, 76, 100
1, 60720, Note_on_c, 6, 69, 100
1, 60720, Note_on_c, 9, 38, 100
1, 60720, Note_on_c, 9, 42, 100
1, 60720, Note_on_c, 13, 62, 100
1, 60725, Note_on_c, 1, 57, 0
1, 60725, Note_on_c, 1, 64, 0
1, 60725, Note_on_c, 1, 45, 0
1, 60725, Note_on_c, 1, 52, 0
1, 60725, Note_on_c, 1, 61, 0
1, 60725, Note_on_c, 1, 64, 75
1, 60725, Note_on_c, 1, 57, 75
1, 60725, Note_on_c, 1, 52, 75
1, 60725, Note_on_c, 1, 45, 75
1, 60725, Note_on_c, 1, 61, 75
1, 60735, Note_on_c, 9, 38, 0
1, 60735, Note_on_c, 9, 42, 0
1, 60760, Note_on_c, 13, 62, 0
1, 60760, Note_on_c, 13, 62, 100
1, 60780, Note_on_c, 15, 81, 0
1, 60780, Note_on_c, 15, 74, 105
1, 60800, Note_on_c, 13, 62, 0
1, 60800, Note_on_c, 13, 62, 100
1, 60820, Note_on_c, 15, 74, 0
1, 60820, Note_on_c, 15, 74, 105
1, 60840, Note_on_c, 6, 73, 0
1, 60840, Note_on_c, 6, 57, 0
1, 60840, Note_on_c, 3, 45, 0
1, 60840, Note_on_c, 6, 45, 0
1, 60840, Note_on_c, 13, 62, 0
1, 60840, Note_on_c, 6, 69, 0
1, 60840, Note_on_c, 6, 76, 0
1, 60840, Note_on_c, 9, 42, 100
1, 60840, Note_on_c, 13, 62, 100
1, 60845, Note_on_c, 1, 52, 0
1, 60845, Note_on_c, 1, 64, 0
1, 60845, Note_on_c, 1, 61, 0
1, 60845, Note_on_c, 1, 57, 0
1, 60845, Note_on_c, 1, 45, 0
1, 60845, Note_on_c, 1, 52, 60
1, 60845, Note_on_c, 1, 45, 60
1, 60845, Note_on_c, 1, 64, 60
1, 60845, Note_on_c, 1, 61, 60
1, 60845, Note_on_c, 1, 57, 60
1, 60855, Note_on_c, 9, 42, 0
1, 60860, Note_on_c, 15, 74, 0
1, 60860, Note_on_c, 15, 74, 105
1, 60900, Note_on_c, 15, 74, 0
1, 60900, Note_on_c, 15, 74, 105
1, 60960, Note_on_c, 13, 62, 0
1, 60960, Note_on_c, 3, 45, 100
1, 60960, Note_on_c, 6, 76, 100
1, 60960, Note_on_c, 6, 73, 100
1, 60960, Note_on_c, 6, 57, 100
1, 60960, Note_on_c, 6, 45, 100
1, 60960, Note_on_c, 6, 69, 100
1, 60960, Note_on_c, 9, 36, 100
1, 60960, Note_on_c, 9, 42, 100
1, 60960, Note_on_c, 13, 62, 100
1, 60965, Note_on_c, 1, 61, 0
1, 60965, Note_on_c, 1, 57, 0
1, 60965, Note_on_c, 1, 45, 0
1, 60965, Note_on_c, 1, 52, 0
1, 60965, Note_on_c, 1, 64, 0
1, 60965, Note_on_c, 1, 64, 75
1, 60965, Note_on_c, 1, 61, 75
1, 60965, Note_on_c, 1, 52, 75
1, 60965, Note_on_c, 1, 45, 75
1, 60965, Note_on_c, 1, 57, 75
1, 60975, Note_on_c, 9, 36, 0
1, 60975, Note_on_c, 9, 42, 0
1, 61020, Note_on_c, 3, 45, 0
1, 61020, Note_on_c, 6, 73, 0
1, 61020, Note_on_c, 15, 74, 0
1, 61020, Note_on_c, 6, 76, 0
1, 61020, Note_on_c, 6, 57, 0
1, 61020, Note_on_c, 6, 69, 0
1, 61020, Note_on_c, 6, 45, 0
1, 61020, Note_on_c, 3, 44, 100
1, 61020, Note_on_c, 6, 76, 100
1, 61020, Note_on_c, 6, 57, 100
1, 61020, Note_on_c, 6, 45, 100
1, 61020, Note_on_c, 6, 69, 100
1, 61020, Note_on_c, 6, 73, 100
1, 61020, Note_on_c, 15, 74, 105
1, 61025, Note_on_c, 1, 52, 0
1, 61025, Note_on_c, 1, 61, 0
1, 61025, Note_on_c, 1, 45, 0
1, 61025, Note_on_c, 1, 64, 0
1, 61025, Note_on_c, 1, 57, 0
1, 61025, Note_on_c, 1, 61, 75
1, 61025, Note_on_c, 1, 52, 75
1, 61025, Note_on_c, 1, 64, 75
1, 61025, Note_on_c, 1, 57, 75
1, 61025, Note_on_c, 1, 45, 75
1, 61080, Note_on_c, 6, 57, 0
1, 61080, Note_on_c, 6, 69, 0
1, 61080, Note_on_c, 6, 76, 0
1, 61080, Note_on_c, 6, 45, 0
1, 61080, Note_on_c, 6, 73, 0
1, 61080, Note_on_c, 3, 44, 0
1, 61080, Note_on_c, 3, 45, 100
1, 61080, Note_on_c, 6, 73, 100
1, 61080, Note_on_c, 6, 76, 100
1, 61080, Note_on_c, 6, 69, 100
1, 61080, Note_on_c, 6, 57, 100
1, 61080, Note_on_c, 6, 45, 100
1, 61080, Note_on_c, 9, 42, 100
1, 61085, Note_on_c, 1, 64, 0
1, 61085, Note_on_c, 1, 57, 0
1, 61085, Note_on_c, 1, 52, 0
1, 61085, Note_on_c, 1, 61, 0
1, 61085, Note_on_c, 1, 45, 0
1, 61085, Note_on_c, 1, 61, 75
1, 61085, Note_on_c, 1, 64, 75
1, 61085, Note_on_c, 1, 57, 75
1, 61085, Note_on_c, 1, 52, 75
1, 61085, Note_on_c, 1, 45, 75
1, 61095, Note_on_c, 9, 42, 0
1, 61140, Note_on_c, 6, 45, 0
1, 61140, Note_on_c, 6, 73, 0
1, 61140, Note_on_c, 3, 45, 0
1, 61140, Note_on_c, 6, 76, 0
1, 61140, Note_on_c, 6, 57, 0
1, 61140, Note_on_c, 6, 69, 0
1, 61140, Note_on_c, 3, 45, 100
1, 61140, Note_on_c, 6, 76, 100
1, 61140, Note_on_c, 6, 69, 100
1, 61140, Note_on_c, 6, 73, 100
1, 61140, Note_on_c, 6, 57, 100
1, 61140, Note_on_c, 6, 45, 100
1, 61140, Note_on_c, 9, 36, 100
1, 61145, Note_on_c, 1, 64, 0
1, 61145, Note_on_c, 1, 57, 0
1, 61145, Note_on_c, 1, 61, 0
1, 61145, Note_on_c, 1, 45, 0
1, 61145, Note_on_c, 1, 52, 0
1, 61145, Note_on_c, 1, 61, 75
1, 61145, Note_on_c, 1, 64, 75
1, 61145, Note_on_c, 1, 52, 75
1, 61145, Note_on_c, 1, 45, 75
1, 61145, Note_on_c, 1, 57, 75
1, 61155, Note_on_c, 9, 36, 0
1, 61200, Note_on_c, 6, 45, 0
1, 61200, Note_on_c, 6, 76, 0
1, 61200, Note_on_c, 3, 45, 0
1, 61200, Note_on_c, 13, 62, 0
1, 61200, Note_on_c, 6, 69, 0
1, 61200, Note_on_c, 6, 57, 0
1, 61200, Note_on_c, 6, 73, 0
1, 61200, Note_on_c, 3, 45, 100
1, 61200, Note_on_c, 6, 73, 100
1, 61200, Note_on_c, 6, 57, 100
1, 61200, Note_on_c, 6, 45, 100
1, 61200, Note_on_c, 6, 76, 100
1, 61200, Note_on_c, 6, 69, 100
1, 61200, Note_on_c, 9, 46, 100
1, 61200, Note_on_c, 9, 38, 100
1, 61200, Note_on_c, 13, 67, 100
1, 61205, Note_on_c, 1, 57, 0
1, 61205, Note_on_c, 1, 64, 0
1, 61205, Note_on_c, 1, 45, 0
1, 61205, Note_on_c, 1, 52, 0
1, 61205, Note_on_c, 1, 61, 0
1, 61205, Note_on_c, 1, 64, 75
1, 61205, Note_on_c, 1, 57, 75
1, 61205, Note_on_c, 1, 52, 75
1, 61205, Note_on_c, 1, 45, 75
1, 61205, Note_on_c, 1, 61, 75
1, 61215, Note_on_c, 9, 46, 0
1, 61215, Note_on_c, 9, 38, 0
1, 61260, Note_on_c, 15, 74, 0
1, 61260, Note_on_c, 15, 79, 105
1, 61320, Note_on_c, 13, 67, 0
1, 61320, Note_on_c, 6, 73, 0
1, 61320, Note_on_c, 6, 57, 0
1, 61320, Note_on_c, 3, 45, 0
1, 61320, Note_on_c, 6, 45, 0
1, 61320, Note_on_c, 6, 69, 0
1, 61320, Note_on_c, 6, 76, 0
1, 61320, Note_on_c, 3, 43, 100
1, 61320, Note_on_c, 13, 67, 100
1, 61325, Note_on_c, 1, 52, 0
1, 61325, Note_on_c, 1, 57, 0
1, 61325, Note_on_c, 1, 45, 0
1, 61325, Note_on_c, 1, 64, 0
1, 61325, Note_on_c, 1, 61, 0
1, 61325, Note_on_c, 1, 52, 60
1, 61325, Note_on_c, 1, 45, 60
1, 61325, Note_on_c, 1, 64, 60
1, 61325, Note_on_c, 1, 61, 60
1, 61325, Note_on_c, 1, 57, 60
1, 61380, Note_on_c, 15, 79, 0
1, 61380, Note_on_c, 15, 79, 105
1, 61440, Note_on_c, 13, 67, 0
1, 61440, Note_on_c, 3, 43, 0
1, 61440, Note_on_c, 3, 43, 100
1, 61440, Note_on_c, 6, 74, 100
1, 61440, Note_on_c, 6, 71, 100
1, 61440, Note_on_c, 6, 55, 100
1, 61440, Note_on_c, 6, 43, 100
1, 61440, Note_on_c, 6, 67, 100
1, 61440, Note_on_c, 9, 42, 100
1, 61440, Note_on_c, 9, 36, 100
1, 61440, Note_on_c, 13, 67, 100
1, 61445, Note_on_c, 1, 61, 0
1, 61445, Note_on_c, 1, 52, 0
1, 61445, Note_on_c, 1, 57, 0
1, 61445, Note_on_c, 1, 45, 0
1, 61445, Note_on_c, 1, 64, 0
1, 61445, Note_on_c, 1, 62, 75
1, 61445, Note_on_c, 1, 59, 75
1, 61445, Note_on_c, 1, 50, 75
1, 61445, Note_on_c, 1, 43, 75
1, 61445, Note_on_c, 1, 55, 75
1, 61455, Note_on_c, 9, 42, 0
1, 61455, Note_on_c, 9, 36, 0
1, 61500, Note_on_c, 6, 67, 0
1, 61500, Note_on_c, 6, 74, 0
1, 61500, Note_on_c, 6, 71, 0
1, 61500, Note_on_c, 6, 55, 0
1, 61500, Note_on_c, 15, 79, 0
1, 61500, Note_on_c, 6, 43, 0
1, 61500, Note_on_c, 6, 74, 100
1, 61500, Note_on_c, 6, 55, 100
1, 61500, Note_on_c, 6, 43, 100
1, 61500, Note_on_c, 6, 67, 100
1, 61500, Note_on_c, 6, 71, 100
1, 61500, Note_on_c, 15, 79, 105
1, 61505, Note_on_c, 1, 62, 0
1, 61505, Note_on_c, 1, 50, 0
1, 61505, Note_on_c, 1, 59, 0
1, 61505, Note_on_c, 1, 43, 0
1, 61505, Note_on_c, 1, 55, 0
1, 61505, Note_on_c, 1, 59, 75
1, 61505, Note_on_c, 1, 50, 75
1, 61505, Note_on_c, 1, 62, 75
1, 61505, Note_on_c, 1, 55, 75
1, 61505, Note_on_c, 1, 43, 75
1, 61560, Note_on_c, 6, 74, 0
1, 61560, Note_on_c, 6, 71, 0
1, 61560, Note_on_c, 6, 55, 0
1, 61560, Note_on_c, 13, 67, 0
1, 61560, Note_on_c, 6, 43, 0
1, 61560, Note_on_c, 6, 67, 0
1, 61560, Note_on_c, 3, 43, 0
1, 61560, Note_on_c, 6, 71, 100
1, 61560, Note_on_c, 6, 74, 100
1, 61560, Note_on_c, 6, 67, 100
1, 61560, Note_on_c, 6, 55, 100
1, 61560, Note_on_c, 6, 43, 100
1, 61560, Note_on_c, 9, 42, 100
1, 61560, Note_on_c, 13, 67, 100
1, 61565, Note_on_c, 1, 59, 0
1, 61565, Note_on_c, 1, 50, 0
1, 61565, Note_on_c, 1, 55, 0
1, 61565, Note_on_c, 1, 62, 0
1, 61565, Note_on_c, 1, 43, 0
1, 61565, Note_on_c, 1, 59, 75
1, 61565, Note_on_c, 1, 62, 75
1, 61565, Note_on_c, 1, 55, 75
1, 61565, Note_on_c, 1, 50, 75
1, 61565, Note_on_c, 1, 43, 75
1, 61575, Note_on_c, 9, 42, 0
1, 61620, Note_on_c, 6, 43, 0
1, 61620, Note_on_c, 6, 74, 0
1, 61620, Note_on_c, 15, 79, 0
1, 61620, Note_on_c, 6, 67, 0
1, 61620, Note_on_c, 6, 55, 0
1, 61620, Note_on_c, 6, 71, 0
1, 61620, Note_on_c, 3, 42, 100
1, 61620, Note_on_c, 6, 74, 100
1, 61620, Note_on_c, 6, 67, 100
1, 61620, Note_on_c, 6, 71, 100
1, 61620, Note_on_c, 6, 55, 100
1, 61620, Note_on_c, 6, 43, 100
1, 61620, Note_on_c, 9, 36, 100
1, 61620, Note_on_c, 15, 79, 105
1, 61625, Note_on_c, 1, 59, 0
1, 61625, Note_on_c, 1, 55, 0
1, 61625, Note_on_c, 1, 43, 0
1, 61625, Note_on_c, 1, 50, 0
1, 61625, Note_on_c, 1, 62, 0
1, 61625, Note_on_c, 1, 59, 75
1, 61625, Note_on_c, 1, 62, 75
1, 61625, Note_on_c, 1, 50, 75
1, 61625, Note_on_c, 1, 43, 75
1, 61625, Note_on_c, 1, 55, 75
1, 61635, Note_on_c, 9, 36, 0
1, 61680, Note_on_c, 13, 67, 0
1, 61680, Note_on_c, 6, 74, 0
1, 61680, Note_on_c, 6, 67, 0
1, 61680, Note_on_c, 6, 43, 0
1, 61680, Note_on_c, 6, 71, 0
1, 61680, Note_on_c, 6, 55, 0
1, 61680, Note_on_c, 3, 42, 0
1, 61680, Note_on_c, 3, 43, 100
1, 61680, Note_on_c, 6, 71, 100
1, 61680, Note_on_c, 6, 55, 100
1, 61680, Note_on_c, 6, 43, 100
1, 61680, Note_on_c, 6, 74, 100
1, 61680, Note_on_c, 6, 67, 100
1, 61680, Note_on_c, 9, 42, 100
1, 61680, Note_on_c, 9, 38, 100
1, 61685, Note_on_c, 1, 55, 0
1, 61685, Note_on_c, 1, 62, 0
1, 61685, Note_on_c, 1, 43, 0
1, 61685, Note_on_c, 1, 50, 0
1, 61685, Note_on_c, 1, 59, 0
1, 61685, Note_on_c, 1, 62, 75
1, 61685, Note_on_c, 1, 55, 75
1, 61685, Note_on_c, 1, 50, 75
1, 61685, Note_on_c, 1, 43, 75
1, 61685, Note_on_c, 1, 59, 75
1, 61695, Note_on_c, 9, 42, 0
1, 61695, Note_on_c, 9, 38, 0
1, 61740, Note_on_c, 15, 79, 0
1, 61740, Note_on_c, 13, 57, 100
1, 61800, Note_on_c, 13, 57, 0
1, 61800, Note_on_c, 6, 71, 0
1, 61800, Note_on_c, 6, 55, 0
1, 61800, Note_on_c, 6, 67, 0
1, 61800, Note_on_c, 3, 43, 0
1, 61800, Note_on_c, 6, 74, 0
1, 61800, Note_on_c, 6, 43, 0
1, 61800, Note_on_c, 9, 42, 100
1, 61800, Note_on_c, 13, 59, 100
1, 61800, Note_on_c, 15, 69, 105
1, 61805, Note_on_c, 1, 50, 0
1, 61805, Note_on_c, 1, 62, 0
1, 61805, Note_on_c, 1, 59, 0
1, 61805, Note_on_c, 1, 55, 0
1, 61805, Note_on_c, 1, 43, 0
1, 61805, Note_on_c, 1, 50, 60
1, 61805, Note_on_c, 1, 43, 60
1, 61805, Note_on_c, 1, 62, 60
1, 61805, Note_on_c, 1, 59, 60
1, 61805, Note_on_c, 1, 55, 60
1, 61815, Note_on_c, 9, 42, 0
1, 61860, Note_on_c, 15, 69, 0
1, 61860, Note_on_c, 13, 59, 0
1, 61860, Note_on_c, 13, 59, 100
1, 61860, Note_on_c, 15, 71, 105
1, 61920, Note_on_c, 15, 71, 0
1, 61920, Note_on_c, 3, 43, 100
1, 61920, Note_on_c, 6, 74, 100
1, 61920, Note_on_c, 6, 71, 100
1, 61920, Note_on_c, 6, 55, 100
1, 61920, Note_on_c, 6, 43, 100
1, 61920, Note_on_c, 6, 67, 100
1, 61920, Note_on_c, 9, 36, 100
1, 61920, Note_on_c, 9, 42, 100
1, 61920, Note_on_c, 15, 71, 105
1, 61925, Note_on_c, 1, 59, 0
1, 61925, Note_on_c, 1, 50, 0
1, 61925, Note_on_c, 1, 55, 0
1, 61925, Note_on_c, 1, 43, 0
1, 61925, Note_on_c, 1, 62, 0
1, 61925, Note_on_c, 1, 43, 75
1, 61935, Note_on_c, 9, 36, 0
1, 61935, Note_on_c, 9, 42, 0
1, 61980, Note_on_c, 6, 55, 0
1, 61980, Note_on_c, 6, 71, 0
1, 61980, Note_on_c, 6, 67, 0
1, 61980, Note_on_c, 6, 74, 0
1, 61980, Note_on_c, 3, 43, 0
1, 61980, Note_on_c, 6, 43, 0
1, 61980, Note_on_c, 3, 42, 100
1, 61980, Note_on_c, 6, 74, 100
1, 61980, Note_on_c, 6, 55, 100
1, 61980, Note_on_c, 6, 43, 100
1, 61980, Note_on_c, 6, 67, 100
1, 61980, Note_on_c, 6, 71, 100
1, 61985, Note_on_c, 1, 43, 0
1, 61985, Note_on_c, 1, 43, 75
1, 62040, Note_on_c, 6, 74, 0
1, 62040, Note_on_c, 6, 71, 0
1, 62040, Note_on_c, 6, 67, 0
1, 62040, Note_on_c, 6, 55, 0
1, 62040, Note_on_c, 3, 42, 0
1, 62040, Note_on_c, 6, 43, 0
1, 62040, Note_on_c, 3, 43, 100
1, 62040, Note_on_c, 6, 71, 100
1, 62040, Note_on_c, 6, 74, 100
1, 62040, Note_on_c, 6, 67, 100
1, 62040, Note_on_c, 6, 55, 100
1, 62040, Note_on_c, 6, 43, 100
1, 62040, Note_on_c, 9, 42, 100
1, 62045, Note_on_c, 1, 43, 0
1, 62045, Note_on_c, 1, 43, 75
1, 62055, Note_on_c, 9, 42, 0
1, 62100, Note_on_c, 3, 43, 0
1, 62100, Note_on_c, 6, 55, 0
1, 62100, Note_on_c, 6, 71, 0
1, 62100, Note_on_c, 6, 74, 0
1, 62100, Note_on_c, 6, 43, 0
1, 62100, Note_on_c, 6, 67, 0
1, 62100, Note_on_c, 3, 42, 100
1, 62100, Note_on_c, 6, 74, 100
1, 62100, Note_on_c, 6, 67, 100
1, 62100, Note_on_c, 6, 71, 100
1, 62100, Note_on_c, 6, 55, 100
1, 62100, Note_on_c, 6, 43, 100
1, 62100, Note_on_c, 9, 36, 100
1, 62105, Note_on_c, 1, 43, 0
1, 62105, Note_on_c, 1, 43, 75
1, 62115, Note_on_c, 9, 36, 0
1, 62160, Note_on_c, 3, 42, 0
1, 62160, Note_on_c, 6, 55, 0
1, 62160, Note_on_c, 6, 74, 0
1, 62160, Note_on_c, 6, 67, 0
1, 62160, Note_on_c, 6, 43, 0
1, 62160, Note_on_c, 6, 71, 0
1, 62160, Note_on_c, 3, 43, 100
1, 62160, Note_on_c, 6, 71, 100
1, 62160, Note_on_c, 6, 55, 100
1, 62160, Note_on_c, 6, 43, 100
1, 62160, Note_on_c, 6, 74, 100
1, 62160, Note_on_c, 6, 67, 100
1, 62160, Note_on_c, 9, 46, 100
1, 62160, Note_on_c, 9, 38, 100
1, 62165, Note_on_c, 1, 43, 0
1, 62165, Note_on_c, 1, 43, 75
1, 62175, Note_on_c, 9, 38, 0
1, 62175, Note_on_c, 9, 46, 0
1, 62280, Note_on_c, 3, 43, 0
1, 62280, Note_on_c, 6, 74, 0
1, 62280, Note_on_c, 6, 71, 0
1, 62280, Note_on_c, 6, 55, 0
1, 62280, Note_on_c, 6, 67, 0
1, 62280, Note_on_c, 6, 43, 0
1, 62280, Note_on_c, 3, 40, 100
1, 62400, Note_on_c, 3, 40, 0
1, 62400, Note_on_c, 13, 59, 0
1, 62400, Note_on_c, 3, 42, 100
1, 62400, Note_on_c, 6, 70, 100
1, 62400, Note_on_c, 6, 66, 100
1, 62400, Note_on_c, 6, 61, 100
1, 62400, Note_on_c, 6, 42, 100
1, 62400, Note_on_c, 6, 54, 100
1, 62400, Note_on_c, 9, 36, 100
1, 62400, Note_on_c, 9, 42, 100
1, 62400, Note_on_c, 13, 58, 100
1, 62405, Note_on_c, 1, 43, 0
1, 62405, Note_on_c, 1, 54, 75
1, 62405, Note_on_c, 1, 49, 75
1, 62405, Note_on_c, 1, 42, 75
1, 62415, Note_on_c, 9, 42, 0
1, 62415, Note_on_c, 9, 36, 0
1, 62460, Note_on_c, 6, 66, 0
1, 62460, Note_on_c, 15, 71, 0
1, 62460, Note_on_c, 6, 70, 0
1, 62460, Note_on_c, 6, 61, 0
1, 62460, Note_on_c, 3, 42, 0
1, 62460, Note_on_c, 3, 41, 100
1, 62460, Note_on_c, 6, 66, 100
1, 62460, Note_on_c, 6, 61, 100
1, 62460, Note_on_c, 6, 70, 100
1, 62460, Note_on_c, 15, 70, 105
1, 62465, Note_on_c, 1, 49, 0
1, 62465, Note_on_c, 1, 42, 0
1, 62465, Note_on_c, 1, 54, 0
1, 62465, Note_on_c, 1, 54, 75
1, 62465, Note_on_c, 1, 49, 75
1, 62465, Note_on_c, 1, 42, 75
1, 62520, Note_on_c, 6, 61, 0
1, 62520, Note_on_c, 6, 66, 0
1, 62520, Note_on_c, 6, 70, 0
1, 62520, Note_on_c, 3, 41, 0
1, 62520, Note_on_c, 3, 42, 100
1, 62520, Note_on_c, 6, 61, 100
1, 62520, Note_on_c, 6, 70, 100
1, 62520, Note_on_c, 6, 66, 100
1, 62520, Note_on_c, 9, 42, 100
1, 62525, Note_on_c, 1, 49, 0
1, 62525, Note_on_c, 1, 54, 0
1, 62525, Note_on_c, 1, 42, 0
1, 62525, Note_on_c, 1, 54, 75
1, 62525, Note_on_c, 1, 49, 75
1, 62525, Note_on_c, 1, 42, 75
1, 62535, Note_on_c, 9, 42, 0
1, 62580, Note_on_c, 6, 66, 0
1, 62580, Note_on_c, 6, 61, 0
1, 62580, Note_on_c, 3, 42, 0
1, 62580, Note_on_c, 6, 70, 0
1, 62580, Note_on_c, 3, 41, 100
1, 62580, Note_on_c, 6, 70, 100
1, 62580, Note_on_c, 6, 66, 100
1, 62580, Note_on_c, 6, 61, 100
1, 62580, Note_on_c, 9, 36, 100
1, 62585, Note_on_c, 1, 49, 0
1, 62585, Note_on_c, 1, 54, 0
1, 62585, Note_on_c, 1, 42, 0
1, 62585, Note_on_c, 1, 54, 75
1, 62585, Note_on_c, 1, 49, 75
1, 62585, Note_on_c, 1, 42, 75
1, 62595, Note_on_c, 9, 36, 0
1, 62640, Note_on_c, 13, 58, 0
1, 62640, Note_on_c, 6, 70, 0
1, 62640, Note_on_c, 3, 41, 0
1, 62640, Note_on_c, 6, 61, 0
1, 62640, Note_on_c, 6, 66, 0
1, 62640, Note_on_c, 3, 42, 100
1, 62640, Note_on_c, 6, 66, 100
1, 62640, Note_on_c, 6, 61, 100
1, 62640, Note_on_c, 6, 70, 100
1, 62640, Note_on_c, 9, 42, 100
1, 62640, Note_on_c, 9, 38, 100
1, 62640, Note_on_c, 13, 59, 100
1, 62645, Note_on_c, 1, 49, 0
1, 62645, Note_on_c, 1, 54, 0
1, 62645, Note_on_c, 1, 42, 0
1, 62645, Note_on_c, 1, 54, 75
1, 62645, Note_on_c, 1, 49, 75
1, 62645, Note_on_c, 1, 42, 75
1, 62655, Note_on_c, 9, 42, 0
1, 62655, Note_on_c, 9, 38, 0
1, 62700, Note_on_c, 6, 70, 0
1, 62700, Note_on_c, 6, 61, 0
1, 62700, Note_on_c, 6, 66, 0
1, 62700, Note_on_c, 15, 70, 0
1, 62700, Note_on_c, 3, 42, 0
1, 62700, Note_on_c, 3, 41, 100
1, 62700, Note_on_c, 6, 61, 100
1, 62700, Note_on_c, 6, 70, 100
1, 62700, Note_on_c, 6, 66, 100
1, 62700, Note_on_c, 15, 71, 105
1, 62705, Note_on_c, 1, 49, 0
1, 62705, Note_on_c, 1, 54, 0
1, 62705, Note_on_c, 1, 42, 0
1, 62705, Note_on_c, 1, 54, 75
1, 62705, Note_on_c, 1, 49, 75
1, 62705, Note_on_c, 1, 42, 75
1, 62760, Note_on_c, 6, 70, 0
1, 62760, Note_on_c, 6, 61, 0
1, 62760, Note_on_c, 6, 66, 0
1, 62760, Note_on_c, 3, 41, 0
1, 62760, Note_on_c, 3, 42, 100
1, 62760, Note_on_c, 6, 70, 100
1, 62760, Note_on_c, 6, 66, 100
1, 62760, Note_on_c, 6, 61, 100
1, 62760, Note_on_c, 9, 42, 100
1, 62765, Note_on_c, 1, 49, 0
1, 62765, Note_on_c, 1, 54, 0
1, 62765, Note_on_c, 1, 42, 0
1, 62765, Note_on_c, 1, 54, 75
1, 62765, Note_on_c, 1, 49, 75
1, 62765, Note_on_c, 1, 42, 75
1, 62775, Note_on_c, 9, 42, 0
1, 62820, Note_on_c, 6, 61, 0
1, 62820, Note_on_c, 6, 70, 0
1, 62820, Note_on_c, 3, 42, 0
1, 62820, Note_on_c, 6, 66, 0
1, 62820, Note_on_c, 3, 41, 100
1, 62820, Note_on_c, 6, 66, 100
1, 62820, Note_on_c, 6, 61, 100
1, 62820, Note_on_c, 6, 70, 100
1, 62825, Note_on_c, 1, 49, 0
1, 62825, Note_on_c, 1, 54, 0
1, 62825, Note_on_c, 1, 42, 0
1, 62825, Note_on_c, 1, 54, 75
1, 62825, Note_on_c, 1, 49, 75
1, 62825, Note_on_c, 1, 42, 75
1, 62880, Note_on_c, 3, 41, 0
1, 62880, Note_on_c, 6, 61, 0
1, 62880, Note_on_c, 6, 66, 0
1, 62880, Note_on_c, 6, 54, 0
1, 62880, Note_on_c, 6, 70, 0
1, 62880, Note_on_c, 6, 42, 0
1, 62880, Note_on_c, 3, 42, 100
1, 62880, Note_on_c, 6, 54, 100
1, 62880, Note_on_c, 6, 42, 100
1, 62880, Note_on_c, 6, 66, 100
1, 62880, Note_on_c, 6, 70, 100
1, 62880, Note_on_c, 6, 73, 100
1, 62880, Note_on_c, 9, 42, 100
1, 62880, Note_on_c, 9, 38, 100
1, 62885, Note_on_c, 1, 42, 0
1, 62885, Note_on_c, 1, 49, 0
1, 62885, Note_on_c, 1, 54, 0
1, 62885, Note_on_c, 1, 54, 75
1, 62885, Note_on_c, 1, 49, 75
1, 62885, Note_on_c, 1, 42, 75
1, 62895, Note_on_c, 9, 38, 0
1, 62895, Note_on_c, 9, 42, 0
1, 62940, Note_on_c, 6, 66, 0
1, 62940, Note_on_c, 3, 42, 0
1, 62940, Note_on_c, 6, 70, 0
1, 62940, Note_on_c, 6, 73, 0
1, 62940, Note_on_c, 3, 41, 100
1, 62940, Note_on_c, 6, 66, 100
1, 62940, Note_on_c, 6, 70, 100
1, 62940, Note_on_c, 6, 73, 100
1, 62940, Note_on_c, 9, 42, 100
1, 62940, Note_on_c, 9, 38, 100
1, 62945, Note_on_c, 1, 49, 0
1, 62945, Note_on_c, 1, 54, 0
1, 62945, Note_on_c, 1, 42, 0
1, 62945, Note_on_c, 1, 54, 75
1, 62945, Note_on_c, 1, 49, 75
1, 62945, Note_on_c, 1, 42, 75
1, 62955, Note_on_c, 9, 42, 0
1, 62955, Note_on_c, 9, 38, 0
1, 63000, Note_on_c, 6, 70, 0
1, 63000, Note_on_c, 6, 66, 0
1, 63000, Note_on_c, 13, 59, 0
1, 63000, Note_on_c, 3, 41, 0
1, 63000, Note_on_c, 6, 73, 0
1, 63000, Note_on_c, 3, 42, 100
1, 63000, Note_on_c, 6, 66, 100
1, 63000, Note_on_c, 6, 70, 100
1, 63000, Note_on_c, 6, 73, 100
1, 63000, Note_on_c, 9, 38, 100
1, 63000, Note_on_c, 9, 42, 100
1, 63000, Note_on_c, 13, 61, 100
1, 63005, Note_on_c, 1, 54, 0
1, 63005, Note_on_c, 1, 49, 0
1, 63005, Note_on_c, 1, 42, 0
1, 63005, Note_on_c, 1, 54, 75
1, 63005, Note_on_c, 1, 49, 75
1, 63005, Note_on_c, 1, 42, 75
1, 63015, Note_on_c, 9, 38, 0
1, 63015, Note_on_c, 9, 42, 0
1, 63060, Note_on_c, 6, 70, 0
1, 63060, Note_on_c, 6, 66, 0
1, 63060, Note_on_c, 15, 71, 0
1, 63060, Note_on_c, 6, 73, 0
1, 63060, Note_on_c, 3, 42, 0
1, 63060, Note_on_c, 3, 41, 100
1, 63060, Note_on_c, 6, 66, 100
1, 63060, Note_on_c, 6, 70, 100
1, 63060, Note_on_c, 6, 73, 100
1, 63060, Note_on_c, 9, 38, 100
1, 63060, Note_on_c, 9, 42, 100
1, 63060, Note_on_c, 15, 73, 105
1, 63065, Note_on_c, 1, 49, 0
1, 63065, Note_on_c, 1, 54, 0
1, 63065, Note_on_c, 1, 42, 0
1, 63065, Note_on_c, 1, 54, 75
1, 63065, Note_on_c, 1, 49, 75
1, 63065, Note_on_c, 1, 42, 75
1, 63075, Note_on_c, 9, 38, 0
1, 63075, Note_on_c, 9, 42, 0
1, 63120, Note_on_c, 6, 70, 0
1, 63120, Note_on_c, 13, 61, 0
1, 63120, Note_on_c, 6, 66, 0
1, 63120, Note_on_c, 6, 73, 0
1, 63120, Note_on_c, 3, 41, 0
1, 63120, Note_on_c, 3, 42, 100
1, 63120, Note_on_c, 6, 66, 100
1, 63120, Note_on_c, 6, 70, 100
1, 63120, Note_on_c, 6, 73, 100
1, 63120, Note_on_c, 9, 42, 100
1, 63120, Note_on_c, 9, 38, 100
1, 63120, Note_on_c, 13, 62, 100
1, 63125, Note_on_c, 1, 49, 0
1, 63125, Note_on_c, 1, 54, 0
1, 63125, Note_on_c, 1, 42, 0
1, 63125, Note_on_c, 1, 54, 75
1, 63125, Note_on_c, 1, 49, 75
1, 63125, Note_on_c, 1, 42, 75
1, 63135, Note_on_c, 9, 42, 0
1, 63135, Note_on_c, 9, 38, 0
1, 63180, Note_on_c, 6, 70, 0
1, 63180, Note_on_c, 15, 73, 0
1, 63180, Note_on_c, 6, 66, 0
1, 63180, Note_on_c, 6, 73, 0
1, 63180, Note_on_c, 3, 42, 0
1, 63180, Note_on_c, 3, 41, 100
1, 63180, Note_on_c, 6, 66, 100
1, 63180, Note_on_c, 6, 70, 100
1, 63180, Note_on_c, 6, 73, 100
1, 63180, Note_on_c, 9, 38, 100
1, 63180, Note_on_c, 9, 42, 100
1, 63180, Note_on_c, 15, 74, 105
1, 63185, Note_on_c, 1, 49, 0
1, 63185, Note_on_c, 1, 54, 0
1, 63185, Note_on_c, 1, 42, 0
1, 63185, Note_on_c, 1, 54, 75
1, 63185, Note_on_c, 1, 49, 75
1, 63185, Note_on_c, 1, 42, 75
1, 63195, Note_on_c, 9, 38, 0
1, 63195, Note_on_c, 9, 42, 0
1, 63240, Note_on_c, 6, 70, 0
1, 63240, Note_on_c, 13, 62, 0
1, 63240, Note_on_c, 6, 66, 0
1, 63240, Note_on_c, 6, 73, 0
1, 63240, Note_on_c, 3, 41, 0
1, 63240, Note_on_c, 3, 40, 100
1, 63240, Note_on_c, 6, 66, 100
1, 63240, Note_on_c, 6, 70, 100
1, 63240, Note_on_c, 6, 73, 100
1, 63240, Note_on_c, 9, 38, 100
1, 63240, Note_on_c, 13, 62, 100
1, 63245, Note_on_c, 1, 49, 0
1, 63245, Note_on_c, 1, 54, 0
1, 63245, Note_on_c, 1, 42, 0
1, 63245, Note_on_c, 1, 54, 75
1, 63245, Note_on_c, 1, 49, 75
1, 63245, Note_on_c, 1, 42, 75
1, 63255, Note_on_c, 9, 38, 0
1, 63270, Note_on_c, 9, 38, 100
1, 63285, Note_on_c, 9, 38, 0
1, 63300, Note_on_c, 15, 74, 0
1, 63300, Note_on_c, 6, 66, 0
1, 63300, Note_on_c, 6, 73, 0
1, 63300, Note_on_c, 6, 70, 0
1, 63300, Note_on_c, 3, 40, 0
1, 63300, Note_on_c, 3, 37, 100
1, 63300, Note_on_c, 6, 66, 100
1, 63300, Note_on_c, 6, 70, 100
1, 63300, Note_on_c, 6, 73, 100
1, 63300, Note_on_c, 9, 38, 100
1, 63300, Note_on_c, 15, 74, 105
1, 63305, Note_on_c, 1, 54, 0
1, 63305, Note_on_c, 1, 42, 0
1, 63305, Note_on_c, 1, 49, 0
1, 63305, Note_on_c, 1, 54, 75
1, 63305, Note_on_c, 1, 49, 75
1, 63305, Note_on_c, 1, 42, 75
1, 63315, Note_on_c, 9, 38, 0
1, 63330, Note_on_c, 9, 38, 100
1, 63345, Note_on_c, 9, 38, 0
1, 63360, Note_on_c, 13, 62, 0
1, 63360, Note_on_c, 6, 54, 0
1, 63360, Note_on_c, 6, 66, 0
1, 63360, Note_on_c, 6, 73, 0
1, 63360, Note_on_c, 6, 70, 0
1, 63360, Note_on_c, 6, 42, 0
1, 63360, Note_on_c, 3, 37, 0
1, 63360, Note_on_c, 3, 47, 100
1, 63360, Note_on_c, 6, 78, 100
1, 63360, Note_on_c, 6, 74, 100
1, 63360, Note_on_c, 6, 69, 100
1, 63360, Note_on_c, 6, 59, 100
1, 63360, Note_on_c, 6, 47, 100
1, 63360, Note_on_c, 9, 49, 100
1, 63360, Note_on_c, 9, 36, 100
1, 63360, Pitch_bend_c, 13, 6784
1, 63360, Note_on_c, 13, 78, 100
1, 63365, Note_on_c, 1, 54, 0
1, 63365, Note_on_c, 1, 42, 0
1, 63365, Note_on_c, 1, 49, 0
1, 63365, Note_on_c, 1, 66, 75
1, 63365, Note_on_c, 1, 62, 75
1, 63365, Note_on_c, 1, 57, 75
1, 63365, Note_on_c, 1, 54, 75
1, 63365, Note_on_c, 1, 47, 75
1, 63367, Pitch_bend_c, 13, 6912
1, 63375, Note_on_c, 9, 49, 0
1, 63375, Note_on_c, 9, 36, 0
1, 63375, Pitch_bend_c, 13, 7040
1, 63382, Pitch_bend_c, 13, 7168
1, 63390, Pitch_bend_c, 13, 7296
1, 63397, Pitch_bend_c, 13, 7424
1, 63405, Pitch_bend_c, 13, 7552
1, 63412, Pitch_bend_c, 13, 7680
1, 63420, Note_on_c, 6, 47, 0
1, 63420, Note_on_c, 6, 69, 0
1, 63420, Note_on_c, 6, 59, 0
1, 63420, Note_on_c, 15, 74, 0
1, 63420, Note_on_c, 6, 74, 0
1, 63420, Note_on_c, 6, 78, 0
1, 63420, Note_on_c, 6, 78, 100
1, 63420, Note_on_c, 6, 74, 100
1, 63420, Note_on_c, 6, 69, 100
1, 63420, Note_on_c, 6, 59, 100
1, 63420, Note_on_c, 6, 47, 100
1, 63420, Pitch_bend_c, 13, 7808
1, 63420, Pitch_bend_c, 15, 6784
1, 63420, Note_on_c, 15, 90, 105
1, 63425, Note_on_c, 1, 66, 0
1, 63425, Note_on_c, 1, 57, 0
1, 63425, Note_on_c, 1, 62, 0
1, 63425, Note_on_c, 1, 54, 0
1, 63425, Note_on_c, 1, 47, 0
1, 63425, Note_on_c, 1, 66, 75
1, 63425, Note_on_c, 1, 62, 75
1, 63425, Note_on_c, 1, 57, 75
1, 63425, Note_on_c, 1, 54, 75
1, 63425, Note_on_c, 1, 47, 75
1, 63427, Pitch_bend_c, 13, 7936
1, 63427, Pitch_bend_c, 15, 6912
1, 63435, Pitch_bend_c, 13, 8064
1, 63435, Pitch_bend_c, 15, 7040
1, 63442, Pitch_bend_c, 13, 8192
1, 63442, Pitch_bend_c, 15, 7168
1, 63450, Pitch_bend_c, 15, 7296
1, 63457, Pitch_bend_c, 15, 7424
1, 63465, Pitch_bend_c, 15, 7552
1, 63472, Pitch_bend_c, 15, 7680
1, 63477, Pitch_bend_c, 13, 6912
1, 63480, Note_on_c, 6, 78, 0
1, 63480, Note_on_c, 6, 47, 0
1, 63480, Note_on_c, 6, 74, 0
1, 63480, Note_on_c, 13, 78, 0
1, 63480, Note_on_c, 6, 69, 0
1, 63480, Note_on_c, 6, 59, 0
1, 63480, Note_on_c, 3, 47, 0
1, 63480, Note_on_c, 6, 78, 100
1, 63480, Note_on_c, 6, 74, 100
1, 63480, Note_on_c, 6, 69, 100
1, 63480, Note_on_c, 6, 59, 100
1, 63480, Note_on_c, 6, 47, 100
1, 63480, Note_on_c, 9, 42, 100
1, 63480, Pitch_bend_c, 13, 8192
1, 63480, Note_on_c, 13, 78, 100
1, 63480, Pitch_bend_c, 15, 7808
1, 63485, Note_on_c, 1, 66, 0
1, 63485, Note_on_c, 1, 62, 0
1, 63485, Note_on_c, 1, 54, 0
1, 63485, Note_on_c, 1, 57, 0
1, 63485, Note_on_c, 1, 47, 0
1, 63485, Note_on_c, 1, 66, 75
1, 63485, Note_on_c, 1, 62, 75
1, 63485, Note_on_c, 1, 57, 75
1, 63485, Note_on_c, 1, 54, 75
1, 63485, Note_on_c, 1, 47, 75
1, 63487, Pitch_bend_c, 13, 7040
1, 63487, Pitch_bend_c, 15, 7936
1, 63495, Note_on_c, 9, 42, 0
1, 63495, Pitch_bend_c, 15, 8064
1, 63497, Pitch_bend_c, 13, 7168
1, 63502, Pitch_bend_c, 15, 8192
1, 63507, Pitch_bend_c, 13, 7296
1, 63517, Pitch_bend_c, 13, 7424
1, 63527, Pitch_bend_c, 13, 7552
1, 63537, Pitch_bend_c, 13, 7680
1, 63537, Pitch_bend_c, 15, 6912
1, 63540, Note_on_c, 6, 47, 0
1, 63540, Note_on_c, 6, 74, 0
1, 63540, Note_on_c, 15, 90, 0
1, 63540, Note_on_c, 6, 69, 0
1, 63540, Note_on_c, 6, 59, 0
1, 63540, Note_on_c, 6, 78, 0
1, 63540, Note_on_c, 3, 42, 100
1, 63540, Note_on_c, 6, 78, 100
1, 63540, Note_on_c, 6, 74, 100
1, 63540, Note_on_c, 6, 69, 100
1, 63540, Note_on_c, 6, 59, 100
1, 63540, Note_on_c, 6, 47, 100
1, 63540, Note_on_c, 9, 36, 100
1, 63540, Pitch_bend_c, 15, 8192
1, 63540, Note_on_c, 15, 90, 105
1, 63545, Note_on_c, 1, 66, 0
1, 63545, Note_on_c, 1, 57, 0
1, 63545, Note_on_c, 1, 47, 0
1, 63545, Note_on_c, 1, 54, 0
1, 63545, Note_on_c, 1, 62, 0
1, 63545, Note_on_c, 1, 66, 75
1, 63545, Note_on_c, 1, 62, 75
1, 63545, Note_on_c, 1, 57, 75
1, 63545, Note_on_c, 1, 54, 75
1, 63545, Note_on_c, 1, 47, 75
1, 63547, Pitch_bend_c, 13, 7808
1, 63547, Pitch_bend_c, 15, 7040
1, 63555, Note_on_c, 9, 36, 0
1, 63557, Pitch_bend_c, 13, 7936
1, 63557, Pitch_bend_c, 15, 7168
1, 63565, Pitch_bend_c, 13, 8064
1, 63567, Pitch_bend_c, 15, 7296
1, 63577, Pitch_bend_c, 15, 7424
1, 63587, Pitch_bend_c, 15, 7552
1, 63597, Pitch_bend_c, 13, 7296
1, 63597, Pitch_bend_c, 15, 7680
1, 63600, Note_on_c, 13, 78, 0
1, 63600, Note_on_c, 6, 78, 0
1, 63600, Note_on_c, 6, 74, 0
1, 63600, Note_on_c, 6, 47, 0
1, 63600, Note_on_c, 6, 69, 0
1, 63600, Note_on_c, 6, 59, 0
1, 63600, Note_on_c, 3, 42, 0
1, 63600, Note_on_c, 3, 47, 100
1, 63600, Note_on_c, 6, 78, 100
1, 63600, Note_on_c, 6, 74, 100
1, 63600, Note_on_c, 6, 69, 100
1, 63600, Note_on_c, 6, 59, 100
1, 63600, Note_on_c, 6, 47, 100
1, 63600, Note_on_c, 9, 42, 100
1, 63600, Note_on_c, 9, 38, 100
1, 63600, Note_on_c, 13, 78, 100
1, 63605, Note_on_c, 1, 47, 0
1, 63605, Note_on_c, 1, 62, 0
1, 63605, Note_on_c, 1, 54, 0
1, 63605, Note_on_c, 1, 57, 0
1, 63605, Note_on_c, 1, 66, 0
1, 63605, Note_on_c, 1, 66, 75
1, 63605, Note_on_c, 1, 62, 75
1, 63605, Note_on_c, 1, 57, 75
1, 63605, Note_on_c, 1, 54, 75
1, 63605, Note_on_c, 1, 47, 75
1, 63607, Pitch_bend_c, 15, 7808
1, 63610, Pitch_bend_c, 13, 7424
1, 63615, Note_on_c, 9, 42, 0
1, 63615, Note_on_c, 9, 38, 0
1, 63617, Pitch_bend_c, 15, 7936
1, 63622, Pitch_bend_c, 13, 7552
1, 63625, Pitch_bend_c, 15, 8064
1, 63635, Pitch_bend_c, 13, 7680
1, 63645, Pitch_bend_c, 13, 7808
1, 63657, Pitch_bend_c, 13, 7936
1, 63657, Pitch_bend_c, 15, 7296
1, 63660, Note_on_c, 15, 90, 0
1, 63660, Note_on_c, 15, 90, 105
1, 63670, Pitch_bend_c, 13, 8064
1, 63670, Pitch_bend_c, 15, 7424
1, 63682, Pitch_bend_c, 13, 8192
1, 63682, Pitch_bend_c, 15, 7552
1, 63692, Pitch_bend_c, 13, 8320
1, 63695, Pitch_bend_c, 15, 7680
1, 63705, Pitch_bend_c, 15, 7808
1, 63717, Pitch_bend_c, 15, 7936
1, 63720, Note_on_c, 13, 78, 0
1, 63720, Note_on_c, 6, 78, 0
1, 63720, Note_on_c, 6, 74, 0
1, 63720, Note_on_c, 3, 47, 0
1, 63720, Note_on_c, 6, 69, 0
1, 63720, Note_on_c, 6, 47, 0
1, 63720, Note_on_c, 6, 59, 0
1, 63720, Note_on_c, 9, 42, 100
1, 63720, Pitch_bend_c, 13, 7168
1, 63720, Note_on_c, 13, 78, 100
1, 63725, Note_on_c, 1, 57, 0
1, 63725, Note_on_c, 1, 62, 0
1, 63725, Note_on_c, 1, 54, 0
1, 63725, Note_on_c, 1, 66, 0
1, 63725, Note_on_c, 1, 47, 0
1, 63725, Note_on_c, 1, 66, 60
1, 63725, Note_on_c, 1, 62, 60
1, 63725, Note_on_c, 1, 57, 60
1, 63725, Note_on_c, 1, 54, 60
1, 63725, Note_on_c, 1, 47, 60
1, 63730, Pitch_bend_c, 13, 7296
1, 63730, Pitch_bend_c, 15, 8064
1, 63735, Note_on_c, 9, 42, 0
1, 63737, Pitch_bend_c, 13, 7424
1, 63742, Pitch_bend_c, 15, 8192
1, 63747, Pitch_bend_c, 13, 7552
1, 63752, Pitch_bend_c, 15, 8320
1, 63755, Pitch_bend_c, 13, 7680
1, 63765, Pitch_bend_c, 13, 7808
1, 63772, Pitch_bend_c, 13, 7936
1, 63780, Note_on_c, 15, 90, 0
1, 63780, Pitch_bend_c, 15, 7168
1, 63780, Note_on_c, 15, 90, 105
1, 63782, Pitch_bend_c, 13, 8064
1, 63790, Pitch_bend_c, 13, 8192
1, 63790, Pitch_bend_c, 15, 7296
1, 63797, Pitch_bend_c, 13, 8320
1, 63797, Pitch_bend_c, 15, 7424
1, 63807, Pitch_bend_c, 15, 7552
1, 63815, Pitch_bend_c, 15, 7680
1, 63825, Pitch_bend_c, 15, 7808
1, 63832, Pitch_bend_c, 15, 7936
1, 63840, Note_on_c, 13, 78, 0
1, 63840, Note_on_c, 3, 47, 100
1, 63840, Note_on_c, 6, 78, 100
1, 63840, Note_on_c, 6, 74, 100
1, 63840, Note_on_c, 6, 69, 100
1, 63840, Note_on_c, 6, 59, 100
1, 63840, Note_on_c, 6, 47, 100
1, 63840, Note_on_c, 9, 36, 100
1, 63840, Note_on_c, 9, 42, 100
1, 63840, Pitch_bend_c, 13, 6784
1, 63840, Note_on_c, 13, 78, 100
1, 63842, Pitch_bend_c, 15, 8064
1, 63845, Note_on_c, 1, 54, 0
1, 63845, Note_on_c, 1, 47, 0
1, 63845, Note_on_c, 1, 62, 0
1, 63845, Note_on_c, 1, 66, 0
1, 63845, Note_on_c, 1, 57, 0
1, 63845, Note_on_c, 1, 66, 75
1, 63845, Note_on_c, 1, 62, 75
1, 63845, Note_on_c, 1, 57, 75
1, 63845, Note_on_c, 1, 54, 75
1, 63845, Note_on_c, 1, 47, 75
1, 63847, Pitch_bend_c, 13, 6912
1, 63850, Pitch_bend_c, 15, 8192
1, 63855, Note_on_c, 9, 36, 0
1, 63855, Note_on_c, 9, 42, 0
1, 63855, Pitch_bend_c, 13, 7040
1, 63857, Pitch_bend_c, 15, 8320
1, 63862, Pitch_bend_c, 13, 7168
1, 63870, Pitch_bend_c, 13, 7296
1, 63877, Pitch_bend_c, 13, 7424
1, 63885, Pitch_bend_c, 13, 7552
1, 63892, Pitch_bend_c, 13, 7680
1, 63900, Note_on_c, 3, 47, 0
1, 63900, Note_on_c, 6, 74, 0
1, 63900, Note_on_c, 15, 90, 0
1, 63900, Note_on_c, 6, 78, 0
1, 63900, Note_on_c, 6, 69, 0
1, 63900, Note_on_c, 6, 47, 0
1, 63900, Note_on_c, 6, 59, 0
1, 63900, Note_on_c, 3, 46, 100
1, 63900, Note_on_c, 6, 78, 100
1, 63900, Note_on_c, 6, 74, 100
1, 63900, Note_on_c, 6, 69, 100
1, 63900, Note_on_c, 6, 59, 100
1, 63900, Note_on_c, 6, 47, 100
1, 63900, Pitch_bend_c, 13, 7808
1, 63900, Pitch_bend_c, 15, 6784
1, 63900, Note_on_c, 15, 90, 105
1, 63905, Note_on_c, 1, 57, 0
1, 63905, Note_on_c, 1, 62, 0
1, 63905, Note_on_c, 1, 54, 0
1, 63905, Note_on_c, 1, 66, 0
1, 63905, Note_on_c, 1, 47, 0
1, 63905, Note_on_c, 1, 66, 75
1, 63905, Note_on_c, 1, 62, 75
1, 63905, Note_on_c, 1, 57, 75
1, 63905, Note_on_c, 1, 54, 75
1, 63905, Note_on_c, 1, 47, 75
1, 63907, Pitch_bend_c, 13, 7936
1, 63907, Pitch_bend_c, 15, 6912
1, 63915, Pitch_bend_c, 13, 8064
1, 63915, Pitch_bend_c, 15, 7040
1, 63922, Pitch_bend_c, 13, 8192
1, 63922, Pitch_bend_c, 15, 7168
1, 63930, Pitch_bend_c, 15, 7296
1, 63937, Pitch_bend_c, 15, 7424
1, 63945, Pitch_bend_c, 15, 7552
1, 63952, Pitch_bend_c, 15, 7680
1, 63957, Pitch_bend_c, 13, 6912
1, 63960, Note_on_c, 6, 74, 0
1, 63960, Note_on_c, 6, 59, 0
1, 63960, Note_on_c, 6, 78, 0
1, 63960, Note_on_c, 13, 78, 0
1, 63960, Note_on_c, 6, 69, 0
1, 63960, Note_on_c, 6, 47, 0
1, 63960, Note_on_c, 3, 46, 0
1, 63960, Note_on_c, 3, 47, 100
1, 63960, Note_on_c, 6, 78, 100
1, 63960, Note_on_c, 6, 74, 100
1, 63960, Note_on_c, 6, 69, 100
1, 63960, Note_on_c, 6, 59, 100
1, 63960, Note_on_c, 6, 47, 100
1, 63960, Note_on_c, 9, 42, 100
1, 63960, Pitch_bend_c, 13, 8192
1, 63960, Note_on_c, 13, 78, 100
1, 63960, Pitch_bend_c, 15, 7808
1, 63965, Note_on_c, 1, 66, 0
1, 63965, Note_on_c, 1, 57, 0
1, 63965, Note_on_c, 1, 47, 0
1, 63965, Note_on_c, 1, 54, 0
1, 63965, Note_on_c, 1, 62, 0
1, 63965, Note_on_c, 1, 66, 75
1, 63965, Note_on_c, 1, 62, 75
1, 63965, Note_on_c, 1, 57, 75
1, 63965, Note_on_c, 1, 54, 75
1, 63965, Note_on_c, 1, 47, 75
1, 63967, Pitch_bend_c, 13, 7040
1, 63967, Pitch_bend_c, 15, 7936
1, 63975, Note_on_c, 9, 42, 0
1, 63975, Pitch_bend_c, 15, 8064
1, 63977, Pitch_bend_c, 13, 7168
1, 63982, Pitch_bend_c, 15, 8192
1, 63987, Pitch_bend_c, 13, 7296
1, 63997, Pitch_bend_c, 13, 7424
1, 64007, Pitch_bend_c, 13, 7552
1, 64017, Pitch_bend_c, 13, 7680
1, 64017, Pitch_bend_c, 15, 6912
1, 64020, Note_on_c, 15, 90, 0
1, 64020, Note_on_c, 6, 78, 0
1, 64020, Note_on_c, 6, 74, 0
1, 64020, Note_on_c, 6, 47, 0
1, 64020, Note_on_c, 6, 69, 0
1, 64020, Note_on_c, 6, 59, 0
1, 64020, Note_on_c, 3, 47, 0
1, 64020, Note_on_c, 3, 47, 100
1, 64020, Note_on_c, 6, 78, 100
1, 64020, Note_on_c, 6, 74, 100
1, 64020, Note_on_c, 6, 69, 100
1, 64020, Note_on_c, 6, 59, 100
1, 64020, Note_on_c, 6, 47, 100
1, 64020, Note_on_c, 9, 36, 100
1, 64020, Pitch_bend_c, 15, 8192
1, 64020, Note_on_c, 15, 90, 105
1, 64025, Note_on_c, 1, 47, 0
1, 64025, Note_on_c, 1, 62, 0
1, 64025, Note_on_c, 1, 54, 0
1, 64025, Note_on_c, 1, 57, 0
1, 64025, Note_on_c, 1, 66, 0
1, 64025, Note_on_c, 1, 66, 75
1, 64025, Note_on_c, 1, 62, 75
1, 64025, Note_on_c, 1, 57, 75
1, 64025, Note_on_c, 1, 54, 75
1, 64025, Note_on_c, 1, 47, 75
1, 64027, Pitch_bend_c, 13, 7808
1, 64027, Pitch_bend_c, 15, 7040
1, 64035, Note_on_c, 9, 36, 0
1, 64037, Pitch_bend_c, 13, 7936
1, 64037, Pitch_bend_c, 15, 7168
1, 64045, Pitch_bend_c, 13, 8064
1, 64047, Pitch_bend_c, 15, 7296
1, 64057, Pitch_bend_c, 15, 7424
1, 64067, Pitch_bend_c, 15, 7552
1, 64077, Pitch_bend_c, 13, 7296
1, 64077, Pitch_bend_c, 15, 7680
1, 64080, Note_on_c, 13, 78, 0
1, 64080, Note_on_c, 6, 78, 0
1, 64080, Note_on_c, 6, 74, 0
1, 64080, Note_on_c, 6, 47, 0
1, 64080, Note_on_c, 6, 69, 0
1, 64080, Note_on_c, 6, 59, 0
1, 64080, Note_on_c, 3, 47, 0
1, 64080, Note_on_c, 3, 47, 100
1, 64080, Note_on_c, 6, 78, 100
1, 64080, Note_on_c, 6, 74, 100
1, 64080, Note_on_c, 6, 69, 100
1, 64080, Note_on_c, 6, 59, 100
1, 64080, Note_on_c, 6, 47, 100
1, 64080, Note_on_c, 9, 46, 100
1, 64080, Note_on_c, 9, 38, 100
1, 64080, Note_on_c, 13, 78, 100
1, 64085, Note_on_c, 1, 47, 0
1, 64085, Note_on_c, 1, 62, 0
1, 64085, Note_on_c, 1, 54, 0
1, 64085, Note_on_c, 1, 57, 0
1, 64085, Note_on_c, 1, 66, 0
1, 64085, Note_on_c, 1, 66, 75
1, 64085, Note_on_c, 1, 62, 75
1, 64085, Note_on_c, 1, 57, 75
1, 64085, Note_on_c, 1, 54, 75
1, 64085, Note_on_c, 1, 47, 75
1, 64087, Pitch_bend_c, 15, 7808
1, 64090, Pitch_bend_c, 13, 7424
1, 64095, Note_on_c, 9, 46, 0
1, 64095, Note_on_c, 9, 38, 0
1, 64097, Pitch_bend_c, 15, 7936
1, 64102, Pitch_bend_c, 13, 7552
1, 64105, Pitch_bend_c, 15, 8064
1, 64115, Pitch_bend_c, 13, 7680
1, 64125, Pitch_bend_c, 13, 7808
1, 64137, Pitch_bend_c, 13, 7936
1, 64137, Pitch_bend_c, 15, 7296
1, 64140, Note_on_c, 15, 90, 0
1, 64140, Note_on_c, 15, 90, 105
1, 64150, Pitch_bend_c, 13, 8064
1, 64150, Pitch_bend_c, 15, 7424
1, 64162, Pitch_bend_c, 13, 8192
1, 64162, Pitch_bend_c, 15, 7552
1, 64172, Pitch_bend_c, 13, 8320
1, 64175, Pitch_bend_c, 15, 7680
1, 64185, Pitch_bend_c, 15, 7808
1, 64197, Pitch_bend_c, 15, 7936
1, 64200, Note_on_c, 13, 78, 0
1, 64200, Note_on_c, 6, 78, 0
1, 64200, Note_on_c, 6, 74, 0
1, 64200, Note_on_c, 3, 47, 0
1, 64200, Note_on_c, 6, 69, 0
1, 64200, Note_on_c, 6, 47, 0
1, 64200, Note_on_c, 6, 59, 0
1, 64200, Note_on_c, 3, 43, 100
1, 64200, Pitch_bend_c, 13, 7168
1, 64200, Note_on_c, 13, 78, 100
1, 64205, Note_on_c, 1, 57, 0
1, 64205, Note_on_c, 1, 62, 0
1, 64205, Note_on_c, 1, 54, 0
1, 64205, Note_on_c, 1, 66, 0
1, 64205, Note_on_c, 1, 47, 0
1, 64205, Note_on_c, 1, 66, 60
1, 64205, Note_on_c, 1, 62, 60
1, 64205, Note_on_c, 1, 57, 60
1, 64205, Note_on_c, 1, 54, 60
1, 64205, Note_on_c, 1, 47, 60
1, 64210, Pitch_bend_c, 13, 7296
1, 64210, Pitch_bend_c, 15, 8064
1, 64217, Pitch_bend_c, 13, 7424
1, 64222, Pitch_bend_c, 15, 8192
1, 64227, Pitch_bend_c, 13, 7552
1, 64232, Pitch_bend_c, 15, 8320
1, 64235, Pitch_bend_c, 13, 7680
1, 64245, Pitch_bend_c, 13, 7808
1, 64252, Pitch_bend_c, 13, 7936
1, 64260, Note_on_c, 15, 90, 0
1, 64260, Note_on_c, 3, 43, 0
1, 64260, Note_on_c, 3, 44, 100
1, 64260, Pitch_bend_c, 15, 7168
1, 64260, Note_on_c, 15, 90, 105
1, 64262, Pitch_bend_c, 13, 8064
1, 64270, Pitch_bend_c, 13, 8192
1, 64270, Pitch_bend_c, 15, 7296
1, 64277, Pitch_bend_c, 13, 8320
1, 64277, Pitch_bend_c, 15, 7424
1, 64287, Pitch_bend_c, 15, 7552
1, 64295, Pitch_bend_c, 15, 7680
1, 64305, Pitch_bend_c, 15, 7808
1, 64312, Pitch_bend_c, 15, 7936
1, 64320, Note_on_c, 3, 44, 0
1, 64320, Note_on_c, 13, 78, 0
1, 64320, Note_on_c, 3, 45, 100
1, 64320, Note_on_c, 6, 76, 100
1, 64320, Note_on_c, 6, 73, 100
1, 64320, Note_on_c, 6, 57, 100
1, 64320, Note_on_c, 6, 45, 100
1, 64320, Note_on_c, 6, 69, 100
1, 64320, Note_on_c, 9, 42, 100
1, 64320, Note_on_c, 9, 36, 100
1, 64320, Pitch_bend_c, 13, 6784
1, 64320, Note_on_c, 13, 78, 100
1, 64322, Pitch_bend_c, 15, 8064
1, 64325, Note_on_c, 1, 66, 0
1, 64325, Note_on_c, 1, 54, 0
1, 64325, Note_on_c, 1, 47, 0
1, 64325, Note_on_c, 1, 62, 0
1, 64325, Note_on_c, 1, 57, 0
1, 64325, Note_on_c, 1, 64, 75
1, 64325, Note_on_c, 1, 61, 75
1, 64325, Note_on_c, 1, 52, 75
1, 64325, Note_on_c, 1, 45, 75
1, 64325, Note_on_c, 1, 57, 75
1, 64327, Pitch_bend_c, 13, 6912
1, 64330, Pitch_bend_c, 15, 8192
1, 64335, Note_on_c, 9, 42, 0
1, 64335, Note_on_c, 9, 36, 0
1, 64335, Pitch_bend_c, 13, 7040
1, 64337, Pitch_bend_c, 15, 8320
1, 64342, Pitch_bend_c, 13, 7168
1, 64350, Pitch_bend_c, 13, 7296
1, 64357, Pitch_bend_c, 13, 7424
1, 64365, Pitch_bend_c, 13, 7552
1, 64372, Pitch_bend_c, 13, 7680
1, 64380, Note_on_c, 6, 69, 0
1, 64380, Note_on_c, 6, 76, 0
1, 64380, Note_on_c, 6, 73, 0
1, 64380, Note_on_c, 6, 57, 0
1, 64380, Note_on_c, 15, 90, 0
1, 64380, Note_on_c, 6, 45, 0
1, 64380, Note_on_c, 6, 76, 100
1, 64380, Note_on_c, 6, 57, 100
1, 64380, Note_on_c, 6, 45, 100
1, 64380, Note_on_c, 6, 69, 100
1, 64380, Note_on_c, 6, 73, 100
1, 64380, Pitch_bend_c, 13, 7808
1, 64380, Pitch_bend_c, 15, 6784
1, 64380, Note_on_c, 15, 90, 105
1, 64385, Note_on_c, 1, 64, 0
1, 64385, Note_on_c, 1, 52, 0
1, 64385, Note_on_c, 1, 61, 0
1, 64385, Note_on_c, 1, 45, 0
1, 64385, Note_on_c, 1, 57, 0
1, 64385, Note_on_c, 1, 61, 75
1, 64385, Note_on_c, 1, 52, 75
1, 64385, Note_on_c, 1, 64, 75
1, 64385, Note_on_c, 1, 57, 75
1, 64385, Note_on_c, 1, 45, 75
1, 64387, Pitch_bend_c, 13, 7936
1, 64387, Pitch_bend_c, 15, 6912
1, 64395, Pitch_bend_c, 13, 8064
1, 64395, Pitch_bend_c, 15, 7040
1, 64402, Pitch_bend_c, 13, 8192
1, 64402, Pitch_bend_c, 15, 7168
1, 64410, Pitch_bend_c, 15, 7296
1, 64417, Pitch_bend_c, 15, 7424
1, 64425, Pitch_bend_c, 15, 7552
1, 64432, Pitch_bend_c, 15, 7680
1, 64437, Pitch_bend_c, 13, 6912
1, 64440, Note_on_c, 6, 76, 0
1, 64440, Note_on_c, 6, 73, 0
1, 64440, Note_on_c, 6, 57, 0
1, 64440, Note_on_c, 13, 78, 0
1, 64440, Note_on_c, 6, 45, 0
1, 64440, Note_on_c, 6, 69, 0
1, 64440, Note_on_c, 3, 45, 0
1, 64440, Note_on_c, 6, 73, 100
1, 64440, Note_on_c, 6, 76, 100
1, 64440, Note_on_c, 6, 69, 100
1, 64440, Note_on_c, 6, 57, 100
1, 64440, Note_on_c, 6, 45, 100
1, 64440, Note_on_c, 9, 42, 100
1, 64440, Pitch_bend_c, 13, 8192
1, 64440, Note_on_c, 13, 78, 100
1, 64440, Pitch_bend_c, 15, 7808
1, 64445, Note_on_c, 1, 61, 0
1, 64445, Note_on_c, 1, 52, 0
1, 64445, Note_on_c, 1, 57, 0
1, 64445, Note_on_c, 1, 64, 0
1, 64445, Note_on_c, 1, 45, 0
1, 64445, Note_on_c, 1, 61, 75
1, 64445, Note_on_c, 1, 64, 75
1, 64445, Note_on_c, 1, 57, 75
1, 64445, Note_on_c, 1, 52, 75
1, 64445, Note_on_c, 1, 45, 75
1, 64447, Pitch_bend_c, 13, 7040
1, 64447, Pitch_bend_c, 15, 7936
1, 64455, Note_on_c, 9, 42, 0
1, 64455, Pitch_bend_c, 15, 8064
1, 64457, Pitch_bend_c, 13, 7168
1, 64462, Pitch_bend_c, 15, 8192
1, 64467, Pitch_bend_c, 13, 7296
1, 64477, Pitch_bend_c, 13, 7424
1, 64487, Pitch_bend_c, 13, 7552
1, 64497, Pitch_bend_c, 13, 7680
1, 64497, Pitch_bend_c, 15, 6912
1, 64500, Note_on_c, 6, 45, 0
1, 64500, Note_on_c, 6, 76, 0
1, 64500, Note_on_c, 15, 90, 0
1, 64500, Note_on_c, 6, 69, 0
1, 64500, Note_on_c, 6, 57, 0
1, 64500, Note_on_c, 6, 73, 0
1, 64500, Note_on_c, 3, 40, 100
1, 64500, Note_on_c, 6, 76, 100
1, 64500, Note_on_c, 6, 69, 100
1, 64500, Note_on_c, 6, 73, 100
1, 64500, Note_on_c, 6, 57, 100
1, 64500, Note_on_c, 6, 45, 100
1, 64500, Note_on_c, 9, 36, 100
1, 64500, Pitch_bend_c, 15, 8192
1, 64500, Note_on_c, 15, 90, 105
1, 64505, Note_on_c, 1, 61, 0
1, 64505, Note_on_c, 1, 57, 0
1, 64505, Note_on_c, 1, 45, 0
1, 64505, Note_on_c, 1, 52, 0
1, 64505, Note_on_c, 1, 64, 0
1, 64505, Note_on_c, 1, 61, 75
1, 64505, Note_on_c, 1, 64, 75
1, 64505, Note_on_c, 1, 52, 75
1, 64505, Note_on_c, 1, 45, 75
1, 64505, Note_on_c, 1, 57, 75
1, 64507, Pitch_bend_c, 13, 7808
1, 64507, Pitch_bend_c, 15, 7040
1, 64515, Note_on_c, 9, 36, 0
1, 64517, Pitch_bend_c, 13, 7936
1, 64517, Pitch_bend_c, 15, 7168
1, 64525, Pitch_bend_c, 13, 8064
1, 64527, Pitch_bend_c, 15, 7296
1, 64537, Pitch_bend_c, 15, 7424
1, 64547, Pitch_bend_c, 15, 7552
1, 64557, Pitch_bend_c, 13, 7296
1, 64557, Pitch_bend_c, 15, 7680
1, 64560, Note_on_c, 13, 78, 0
1, 64560, Note_on_c, 6, 76, 0
1, 64560, Note_on_c, 6, 69, 0
1, 64560, Note_on_c, 6, 45, 0
1, 64560, Note_on_c, 6, 73, 0
1, 64560, Note_on_c, 6, 57, 0
1, 64560, Note_on_c, 3, 40, 0
1, 64560, Note_on_c, 3, 45, 100
1, 64560, Note_on_c, 6, 73, 100
1, 64560, Note_on_c, 6, 57, 100
1, 64560, Note_on_c, 6, 45, 100
1, 64560, Note_on_c, 6, 76, 100
1, 64560, Note_on_c, 6, 69, 100
1, 64560, Note_on_c, 9, 38, 100
1, 64560, Note_on_c, 9, 42, 100
1, 64560, Note_on_c, 13, 78, 100
1, 64565, Note_on_c, 1, 57, 0
1, 64565, Note_on_c, 1, 64, 0
1, 64565, Note_on_c, 1, 45, 0
1, 64565, Note_on_c, 1, 52, 0
1, 64565, Note_on_c, 1, 61, 0
1, 64565, Note_on_c, 1, 64, 75
1, 64565, Note_on_c, 1, 57, 75
1, 64565, Note_on_c, 1, 52, 75
1, 64565, Note_on_c, 1, 45, 75
1, 64565, Note_on_c, 1, 61, 75
1, 64567, Pitch_bend_c, 15, 7808
1, 64570, Pitch_bend_c, 13, 7424
1, 64575, Note_on_c, 9, 38, 0
1, 64575, Note_on_c, 9, 42, 0
1, 64577, Pitch_bend_c, 15, 7936
1, 64582, Pitch_bend_c, 13, 7552
1, 64585, Pitch_bend_c, 15, 8064
1, 64595, Pitch_bend_c, 13, 7680
1, 64605, Pitch_bend_c, 13, 7808
1, 64617, Pitch_bend_c, 13, 7936
1, 64617, Pitch_bend_c, 15, 7296
1, 64620, Note_on_c, 15, 90, 0
1, 64620, Note_on_c, 15, 90, 105
1, 64630, Pitch_bend_c, 13, 8064
1, 64630, Pitch_bend_c, 15, 7424
1, 64642, Pitch_bend_c, 13, 8192
1, 64642, Pitch_bend_c, 15, 7552
1, 64652, Pitch_bend_c, 13, 8320
1, 64655, Pitch_bend_c, 15, 7680
1, 64665, Pitch_bend_c, 15, 7808
1, 64677, Pitch_bend_c, 15, 7936
1, 64680, Note_on_c, 13, 78, 0
1, 64680, Note_on_c, 6, 73, 0
1, 64680, Note_on_c, 6, 57, 0
1, 64680, Note_on_c, 3, 45, 0
1, 64680, Note_on_c, 6, 45, 0
1, 64680, Note_on_c, 6, 69, 0
1, 64680, Note_on_c, 6, 76, 0
1, 64680, Note_on_c, 9, 42, 100
1, 64680, Pitch_bend_c, 13, 7168
1, 64680, Note_on_c, 13, 78, 100
1, 64685, Note_on_c, 1, 52, 0
1, 64685, Note_on_c, 1, 57, 0
1, 64685, Note_on_c, 1, 45, 0
1, 64685, Note_on_c, 1, 64, 0
1, 64685, Note_on_c, 1, 61, 0
1, 64685, Note_on_c, 1, 52, 60
1, 64685, Note_on_c, 1, 45, 60
1, 64685, Note_on_c, 1, 64, 60
1, 64685, Note_on_c, 1, 61, 60
1, 64685, Note_on_c, 1, 57, 60
1, 64690, Pitch_bend_c, 13, 7296
1, 64690, Pitch_bend_c, 15, 8064
1, 64695, Note_on_c, 9, 42, 0
1, 64697, Pitch_bend_c, 13, 7424
1, 64702, Pitch_bend_c, 15, 8192
1, 64707, Pitch_bend_c, 13, 7552
1, 64712, Pitch_bend_c, 15, 8320
1, 64715, Pitch_bend_c, 13, 7680
1, 64725, Pitch_bend_c, 13, 7808
1, 64732, Pitch_bend_c, 13, 7936
1, 64740, Note_on_c, 15, 90, 0
1, 64740, Pitch_bend_c, 15, 7168
1, 64740, Note_on_c, 15, 90, 105
1, 64742, Pitch_bend_c, 13, 8064
1, 64750, Pitch_bend_c, 13, 8192
1, 64750, Pitch_bend_c, 15, 7296
1, 64757, Pitch_bend_c, 13, 8320
1, 64757, Pitch_bend_c, 15, 7424
1, 64767, Pitch_bend_c, 15, 7552
1, 64775, Pitch_bend_c, 15, 7680
1, 64785, Pitch_bend_c, 15, 7808
1, 64792, Pitch_bend_c, 15, 7936
1, 64800, Note_on_c, 13, 78, 0
1, 64800, Note_on_c, 3, 45, 100
1, 64800, Note_on_c, 6, 76, 100
1, 64800, Note_on_c, 6, 73, 100
1, 64800, Note_on_c, 6, 57, 100
1, 64800, Note_on_c, 6, 45, 100
1, 64800, Note_on_c, 6, 69, 100
1, 64800, Note_on_c, 9, 36, 100
1, 64800, Note_on_c, 9, 42, 100
1, 64800, Pitch_bend_c, 13, 6784
1, 64800, Note_on_c, 13, 78, 100
1, 64802, Pitch_bend_c, 15, 8064
1, 64805, Note_on_c, 1, 61, 0
1, 64805, Note_on_c, 1, 57, 0
1, 64805, Note_on_c, 1, 45, 0
1, 64805, Note_on_c, 1, 52, 0
1, 64805, Note_on_c, 1, 64, 0
1, 64805, Note_on_c, 1, 64, 75
1, 64805, Note_on_c, 1, 61, 75
1, 64805, Note_on_c, 1, 52, 75
1, 64805, Note_on_c, 1, 45, 75
1, 64805, Note_on_c, 1, 57, 75
1, 64807, Pitch_bend_c, 13, 6912
1, 64810, Pitch_bend_c, 15, 8192
1, 64815, Note_on_c, 9, 36, 0
1, 64815, Note_on_c, 9, 42, 0
1, 64815, Pitch_bend_c, 13, 7040
1, 64817, Pitch_bend_c, 15, 8320
1, 64822, Pitch_bend_c, 13, 7168
1, 64830, Pitch_bend_c, 13, 7296
1, 64837, Pitch_bend_c, 13, 7424
1, 64845, Pitch_bend_c, 13, 7552
1, 64852, Pitch_bend_c, 13, 7680
1, 64860, Note_on_c, 3, 45, 0
1, 64860, Note_on_c, 6, 73, 0
1, 64860, Note_on_c, 15, 90, 0
1, 64860, Note_on_c, 6, 76, 0
1, 64860, Note_on_c, 6, 57, 0
1, 64860, Note_on_c, 6, 69, 0
1, 64860, Note_on_c, 6, 45, 0
1, 64860, Note_on_c, 3, 44, 100
1, 64860, Note_on_c, 6, 76, 100
1, 64860, Note_on_c, 6, 57, 100
1, 64860, Note_on_c, 6, 45, 100
1, 64860, Note_on_c, 6, 69, 100
1, 64860, Note_on_c, 6, 73, 100
1, 64860, Pitch_bend_c, 13, 7808
1, 64860, Pitch_bend_c, 15, 6784
1, 64860, Note_on_c, 15, 90, 105
1, 64865, Note_on_c, 1, 52, 0
1, 64865, Note_on_c, 1, 61, 0
1, 64865, Note_on_c, 1, 45, 0
1, 64865, Note_on_c, 1, 64, 0
1, 64865, Note_on_c, 1, 57, 0
1, 64865, Note_on_c, 1, 61, 75
1, 64865, Note_on_c, 1, 52, 75
1, 64865, Note_on_c, 1, 64, 75
1, 64865, Note_on_c, 1, 57, 75
1, 64865, Note_on_c, 1, 45, 75
1, 64867, Pitch_bend_c, 13, 7936
1, 64867, Pitch_bend_c, 15, 6912
1, 64875, Pitch_bend_c, 13, 8064
1, 64875, Pitch_bend_c, 15, 7040
1, 64882, Pitch_bend_c, 13, 8192
1, 64882, Pitch_bend_c, 15, 7168
1, 64890, Pitch_bend_c, 15, 7296
1, 64897, Pitch_bend_c, 15, 7424
1, 64905, Pitch_bend_c, 15, 7552
1, 64912, Pitch_bend_c, 15, 7680
1, 64917, Pitch_bend_c, 13, 6912
1, 64920, Note_on_c, 6, 57, 0
1, 64920, Note_on_c, 6, 69, 0
1, 64920, Note_on_c, 6, 76, 0
1, 64920, Note_on_c, 13, 78, 0
1, 64920, Note_on_c, 6, 45, 0
1, 64920, Note_on_c, 6, 73, 0
1, 64920, Note_on_c, 3, 44, 0
1, 64920, Note_on_c, 3, 45, 100
1, 64920, Note_on_c, 6, 73, 100
1, 64920, Note_on_c, 6, 76, 100
1, 64920, Note_on_c, 6, 69, 100
1, 64920, Note_on_c, 6, 57, 100
1, 64920, Note_on_c, 6, 45, 100
1, 64920, Note_on_c, 9, 42, 100
1, 64920, Pitch_bend_c, 13, 8192
1, 64920, Note_on_c, 13, 78, 100
1, 64920, Pitch_bend_c, 15, 7808
1, 64925, Note_on_c, 1, 61, 0
1, 64925, Note_on_c, 1, 64, 0
1, 64925, Note_on_c, 1, 45, 0
1, 64925, Note_on_c, 1, 57, 0
1, 64925, Note_on_c, 1, 52, 0
1, 64925, Note_on_c, 1, 61, 75
1, 64925, Note_on_c, 1, 64, 75
1, 64925, Note_on_c, 1, 57, 75
1, 64925, Note_on_c, 1, 52, 75
1, 64925, Note_on_c, 1, 45, 75
1, 64927, Pitch_bend_c, 13, 7040
1, 64927, Pitch_bend_c, 15, 7936
1, 64935, Note_on_c, 9, 42, 0
1, 64935, Pitch_bend_c, 15, 8064
1, 64937, Pitch_bend_c, 13, 7168
1, 64942, Pitch_bend_c, 15, 8192
1, 64947, Pitch_bend_c, 13, 7296
1, 64957, Pitch_bend_c, 13, 7424
1, 64967, Pitch_bend_c, 13, 7552
1, 64977, Pitch_bend_c, 13, 7680
1, 64977, Pitch_bend_c, 15, 6912
1, 64980, Note_on_c, 15, 90, 0
1, 64980, Note_on_c, 6, 73, 0
1, 64980, Note_on_c, 6, 76, 0
1, 64980, Note_on_c, 6, 45, 0
1, 64980, Note_on_c, 6, 69, 0
1, 64980, Note_on_c, 6, 57, 0
1, 64980, Note_on_c, 3, 45, 0
1, 64980, Note_on_c, 3, 45, 100
1, 64980, Note_on_c, 6, 76, 100
1, 64980, Note_on_c, 6, 69, 100
1, 64980, Note_on_c, 6, 73, 100
1, 64980, Note_on_c, 6, 57, 100
1, 64980, Note_on_c, 6, 45, 100
1, 64980, Note_on_c, 9, 36, 100
1, 64980, Pitch_bend_c, 15, 8192
1, 64980, Note_on_c, 15, 90, 105
1, 64985, Note_on_c, 1, 45, 0
1, 64985, Note_on_c, 1, 64, 0
1, 64985, Note_on_c, 1, 52, 0
1, 64985, Note_on_c, 1, 57, 0
1, 64985, Note_on_c, 1, 61, 0
1, 64985, Note_on_c, 1, 61, 75
1, 64985, Note_on_c, 1, 64, 75
1, 64985, Note_on_c, 1, 52, 75
1, 64985, Note_on_c, 1, 45, 75
1, 64985, Note_on_c, 1, 57, 75
1, 64987, Pitch_bend_c, 13, 7808
1, 64987, Pitch_bend_c, 15, 7040
1, 64995, Note_on_c, 9, 36, 0
1, 64997, Pitch_bend_c, 13, 7936
1, 64997, Pitch_bend_c, 15, 7168
1, 65005, Pitch_bend_c, 13, 8064
1, 65007, Pitch_bend_c, 15, 7296
1, 65017, Pitch_bend_c, 15, 7424
1, 65027, Pitch_bend_c, 15, 7552
1, 65037, Pitch_bend_c, 13, 7296
1, 65037, Pitch_bend_c, 15, 7680
1, 65040, Note_on_c, 13, 78, 0
1, 65040, Note_on_c, 6, 76, 0
1, 65040, Note_on_c, 6, 69, 0
1, 65040, Note_on_c, 6, 45, 0
1, 65040, Note_on_c, 6, 73, 0
1, 65040, Note_on_c, 6, 57, 0
1, 65040, Note_on_c, 3, 45, 0
1, 65040, Note_on_c, 3, 45, 100
1, 65040, Note_on_c, 6, 73, 100
1, 65040, Note_on_c, 6, 57, 100
1, 65040, Note_on_c, 6, 45, 100
1, 65040, Note_on_c, 6, 76, 100
1, 65040, Note_on_c, 6, 69, 100
1, 65040, Note_on_c, 9, 46, 100
1, 65040, Note_on_c, 9, 38, 100
1, 65040, Note_on_c, 13, 78, 100
1, 65045, Note_on_c, 1, 57, 0
1, 65045, Note_on_c, 1, 64, 0
1, 65045, Note_on_c, 1, 45, 0
1, 65045, Note_on_c, 1, 52, 0
1, 65045, Note_on_c, 1, 61, 0
1, 65045, Note_on_c, 1, 64, 75
1, 65045, Note_on_c, 1, 57, 75
1, 65045, Note_on_c, 1, 52, 75
1, 65045, Note_on_c, 1, 45, 75
1, 65045, Note_on_c, 1, 61, 75
1, 65047, Pitch_bend_c, 15, 7808
1, 65050, Pitch_bend_c, 13, 7424
1, 65055, Note_on_c, 9, 46, 0
1, 65055, Note_on_c, 9, 38, 0
1, 65057, Pitch_bend_c, 15, 7936
1, 65062, Pitch_bend_c, 13, 7552
1, 65065, Pitch_bend_c, 15, 8064
1, 65075, Pitch_bend_c, 13, 7680
1, 65085, Pitch_bend_c, 13, 7808
1, 65097, Pitch_bend_c, 13, 7936
1, 65097, Pitch_bend_c, 15, 7296
1, 65100, Note_on_c, 15, 90, 0
1, 65100, Note_on_c, 15, 90, 105
1, 65110, Pitch_bend_c, 13, 8064
1, 65110, Pitch_bend_c, 15, 7424
1, 65122, Pitch_bend_c, 13, 8192
1, 65122, Pitch_bend_c, 15, 7552
1, 65132, Pitch_bend_c, 13, 8320
1, 65135, Pitch_bend_c, 15, 7680
1, 65145, Pitch_bend_c, 15, 7808
1, 65157, Pitch_bend_c, 15, 7936
1, 65160, Note_on_c, 13, 78, 0
1, 65160, Note_on_c, 6, 73, 0
1, 65160, Note_on_c, 6, 57, 0
1, 65160, Note_on_c, 3, 45, 0
1, 65160, Note_on_c, 6, 45, 0
1, 65160, Note_on_c, 6, 69, 0
1, 65160, Note_on_c, 6, 76, 0
1, 65160, Note_on_c, 3, 43, 100
1, 65160, Pitch_bend_c, 13, 7168
1, 65160, Note_on_c, 13, 78, 100
1, 65165, Note_on_c, 1, 52, 0
1, 65165, Note_on_c, 1, 57, 0
1, 65165, Note_on_c, 1, 45, 0
1, 65165, Note_on_c, 1, 64, 0
1, 65165, Note_on_c, 1, 61, 0
1, 65165, Note_on_c, 1, 52, 60
1, 65165, Note_on_c, 1, 45, 60
1, 65165, Note_on_c, 1, 64, 60
1, 65165, Note_on_c, 1, 61, 60
1, 65165, Note_on_c, 1, 57, 60
1, 65170, Pitch_bend_c, 13, 7296
1, 65170, Pitch_bend_c, 15, 8064
1, 65177, Pitch_bend_c, 13, 7424
1, 65182, Pitch_bend_c, 15, 8192
1, 65187, Pitch_bend_c, 13, 7552
1, 65192, Pitch_bend_c, 15, 8320
1, 65195, Pitch_bend_c, 13, 7680
1, 65205, Pitch_bend_c, 13, 7808
1, 65212, Pitch_bend_c, 13, 7936
1, 65220, Note_on_c, 15, 90, 0
1, 65220, Pitch_bend_c, 15, 7168
1, 65220, Note_on_c, 15, 90, 105
1, 65222, Pitch_bend_c, 13, 8064
1, 65230, Pitch_bend_c, 13, 8192
1, 65230, Pitch_bend_c, 15, 7296
1, 65237, Pitch_bend_c, 13, 8320
1, 65237, Pitch_bend_c, 15, 7424
1, 65247, Pitch_bend_c, 15, 7552
1, 65255, Pitch_bend_c, 15, 7680
1, 65265, Pitch_bend_c, 15, 7808
1, 65272, Pitch_bend_c, 15, 7936
1, 65280, Note_on_c, 13, 78, 0
1, 65280, Note_on_c, 3, 43, 0
1, 65280, Note_on_c, 3, 43, 100
1, 65280, Note_on_c, 6, 74, 100
1, 65280, Note_on_c, 6, 71, 100
1, 65280, Note_on_c, 6, 55, 100
1, 65280, Note_on_c, 6, 43, 100
1, 65280, Note_on_c, 6, 67, 100
1, 65280, Note_on_c, 9, 42, 100
1, 65280, Note_on_c, 9, 36, 100
1, 65280, Pitch_bend_c, 13, 6784
1, 65280, Note_on_c, 13, 78, 100
1, 65282, Pitch_bend_c, 15, 8064
1, 65285, Note_on_c, 1, 61, 0
1, 65285, Note_on_c, 1, 52, 0
1, 65285, Note_on_c, 1, 57, 0
1, 65285, Note_on_c, 1, 45, 0
1, 65285, Note_on_c, 1, 64, 0
1, 65285, Note_on_c, 1, 62, 75
1, 65285, Note_on_c, 1, 59, 75
1, 65285, Note_on_c, 1, 50, 75
1, 65285, Note_on_c, 1, 43, 75
1, 65285, Note_on_c, 1, 55, 75
1, 65287, Pitch_bend_c, 13, 6912
1, 65290, Pitch_bend_c, 15, 8192
1, 65295, Note_on_c, 9, 42, 0
1, 65295, Note_on_c, 9, 36, 0
1, 65295, Pitch_bend_c, 13, 7040
1, 65297, Pitch_bend_c, 15, 8320
1, 65302, Pitch_bend_c, 13, 7168
1, 65310, Pitch_bend_c, 13, 7296
1, 65317, Pitch_bend_c, 13, 7424
1, 65325, Pitch_bend_c, 13, 7552
1, 65332, Pitch_bend_c, 13, 7680
1, 65340, Note_on_c, 6, 67, 0
1, 65340, Note_on_c, 6, 74, 0
1, 65340, Note_on_c, 6, 71, 0
1, 65340, Note_on_c, 6, 55, 0
1, 65340, Note_on_c, 15, 90, 0
1, 65340, Note_on_c, 6, 43, 0
1, 65340, Note_on_c, 6, 74, 100
1, 65340, Note_on_c, 6, 55, 100
1, 65340, Note_on_c, 6, 43, 100
1, 65340, Note_on_c, 6, 67, 100
1, 65340, Note_on_c, 6, 71, 100
1, 65340, Pitch_bend_c, 13, 7808
1, 65340, Pitch_bend_c, 15, 6784
1, 65340, Note_on_c, 15, 90, 105
1, 65345, Note_on_c, 1, 62, 0
1, 65345, Note_on_c, 1, 50, 0
1, 65345, Note_on_c, 1, 59, 0
1, 65345, Note_on_c, 1, 43, 0
1, 65345, Note_on_c, 1, 55, 0
1, 65345, Note_on_c, 1, 59, 75
1, 65345, Note_on_c, 1, 50, 75
1, 65345, Note_on_c, 1, 62, 75
1, 65345, Note_on_c, 1, 55, 75
1, 65345, Note_on_c, 1, 43, 75
1, 65347, Pitch_bend_c, 13, 7936
1, 65347, Pitch_bend_c, 15, 6912
1, 65355, Pitch_bend_c, 13, 8064
1, 65355, Pitch_bend_c, 15, 7040
1, 65362, Pitch_bend_c, 13, 8192
1, 65362, Pitch_bend_c, 15, 7168
1, 65370, Pitch_bend_c, 15, 7296
1, 65377, Pitch_bend_c, 15, 7424
1, 65385, Pitch_bend_c, 15, 7552
1, 65392, Pitch_bend_c, 15, 7680
1, 65397, Pitch_bend_c, 13, 6912
1, 65400, Note_on_c, 6, 74, 0
1, 65400, Note_on_c, 6, 71, 0
1, 65400, Note_on_c, 6, 55, 0
1, 65400, Note_on_c, 13, 78, 0
1, 65400, Note_on_c, 6, 43, 0
1, 65400, Note_on_c, 6, 67, 0
1, 65400, Note_on_c, 3, 43, 0
1, 65400, Note_on_c, 6, 71, 100
1, 65400, Note_on_c, 6, 74, 100
1, 65400, Note_on_c, 6, 67, 100
1, 65400, Note_on_c, 6, 55, 100
1, 65400, Note_on_c, 6, 43, 100
1, 65400, Note_on_c, 9, 42, 100
1, 65400, Pitch_bend_c, 13, 8192
1, 65400, Note_on_c, 13, 78, 100
1, 65400, Pitch_bend_c, 15, 7808
1, 65405, Note_on_c, 1, 59, 0
1, 65405, Note_on_c, 1, 50, 0
1, 65405, Note_on_c, 1, 55, 0
1, 65405, Note_on_c, 1, 62, 0
1, 65405, Note_on_c, 1, 43, 0
1, 65405, Note_on_c, 1, 59, 75
1, 65405, Note_on_c, 1, 62, 75
1, 65405, Note_on_c, 1, 55, 75
1, 65405, Note_on_c, 1, 50, 75
1, 65405, Note_on_c, 1, 43, 75
1, 65407, Pitch_bend_c, 13, 7040
1, 65407, Pitch_bend_c, 15, 7936
1, 65415, Note_on_c, 9, 42, 0
1, 65415, Pitch_bend_c, 15, 8064
1, 65417, Pitch_bend_c, 13, 7168
1, 65422, Pitch_bend_c, 15, 8192
1, 65427, Pitch_bend_c, 13, 7296
1, 65437, Pitch_bend_c, 13, 7424
1, 65447, Pitch_bend_c, 13, 7552
1, 65457, Pitch_bend_c, 13, 7680
1, 65457, Pitch_bend_c, 15, 6912
1, 65460, Note_on_c, 6, 43, 0
1, 65460, Note_on_c, 6, 74, 0
1, 65460, Note_on_c, 15, 90, 0
1, 65460, Note_on_c, 6, 67, 0
1, 65460, Note_on_c, 6, 55, 0
1, 65460, Note_on_c, 6, 71, 0
1, 65460, Note_on_c, 3, 42, 100
1, 65460, Note_on_c, 6, 74, 100
1, 65460, Note_on_c, 6, 67, 100
1, 65460, Note_on_c, 6, 71, 100
1, 65460, Note_on_c, 6, 55, 100
1, 65460, Note_on_c, 6, 43, 100
1, 65460, Note_on_c, 9, 36, 100
1, 65460, Pitch_bend_c, 15, 8192
1, 65460, Note_on_c, 15, 90, 105
1, 65465, Note_on_c, 1, 59, 0
1, 65465, Note_on_c, 1, 55, 0
1, 65465, Note_on_c, 1, 43, 0
1, 65465, Note_on_c, 1, 50, 0
1, 65465, Note_on_c, 1, 62, 0
1, 65465, Note_on_c, 1, 59, 75
1, 65465, Note_on_c, 1, 62, 75
1, 65465, Note_on_c, 1, 50, 75
1, 65465, Note_on_c, 1, 43, 75
1, 65465, Note_on_c, 1, 55, 75
1, 65467, Pitch_bend_c, 13, 7808
1, 65467, Pitch_bend_c, 15, 7040
1, 65475, Note_on_c, 9, 36, 0
1, 65477, Pitch_bend_c, 13, 7936
1, 65477, Pitch_bend_c, 15, 7168
1, 65485, Pitch_bend_c, 13, 8064
1, 65487, Pitch_bend_c, 15, 7296
1, 65497, Pitch_bend_c, 15, 7424
1, 65507, Pitch_bend_c, 15, 7552
1, 65517, Pitch_bend_c, 13, 7296
1, 65517, Pitch_bend_c, 15, 7680
1, 65520, Note_on_c, 13, 78, 0
1, 65520, Note_on_c, 6, 74, 0
1, 65520, Note_on_c, 6, 67, 0
1, 65520, Note_on_c, 6, 43, 0
1, 65520, Note_on_c, 6, 71, 0
1, 65520, Note_on_c, 6, 55, 0
1, 65520, Note_on_c, 3, 42, 0
1, 65520, Note_on_c, 3, 43, 100
1, 65520, Note_on_c, 6, 71, 100
1, 65520, Note_on_c, 6, 55, 100
1, 65520, Note_on_c, 6, 43, 100
1, 65520, Note_on_c, 6, 74, 100
1, 65520, Note_on_c, 6, 67, 100
1, 65520, Note_on_c, 9, 42, 100
1, 65520, Note_on_c, 9, 38, 100
1, 65520, Note_on_c, 13, 78, 100
1, 65525, Note_on_c, 1, 55, 0
1, 65525, Note_on_c, 1, 62, 0
1, 65525, Note_on_c, 1, 43, 0
1, 65525, Note_on_c, 1, 50, 0
1, 65525, Note_on_c, 1, 59, 0
1, 65525, Note_on_c, 1, 62, 75
1, 65525, Note_on_c, 1, 55, 75
1, 65525, Note_on_c, 1, 50, 75
1, 65525, Note_on_c, 1, 43, 75
1, 65525, Note_on_c, 1, 59, 75
1, 65527, Pitch_bend_c, 15, 7808
1, 65530, Pitch_bend_c, 13, 7424
1, 65535, Note_on_c, 9, 42, 0
1, 65535, Note_on_c, 9, 38, 0
1, 65537, Pitch_bend_c, 15, 7936
1, 65542, Pitch_bend_c, 13, 7552
1, 65545, Pitch_bend_c, 15, 8064
1, 65555, Pitch_bend_c, 13, 7680
1, 65565, Pitch_bend_c, 13, 7808
1, 65577, Pitch_bend_c, 13, 7936
1, 65577, Pitch_bend_c, 15, 7296
1, 65580, Note_on_c, 15, 90, 0
1, 65580, Note_on_c, 15, 90, 105
1, 65590, Pitch_bend_c, 13, 8064
1, 65590, Pitch_bend_c, 15, 7424
1, 65602, Pitch_bend_c, 13, 8192
1, 65602, Pitch_bend_c, 15, 7552
1, 65612, Pitch_bend_c, 13, 8320
1, 65615, Pitch_bend_c, 15, 7680
1, 65625, Pitch_bend_c, 15, 7808
1, 65637, Pitch_bend_c, 15, 7936
1, 65640, Note_on_c, 13, 78, 0
1, 65640, Note_on_c, 6, 71, 0
1, 65640, Note_on_c, 6, 55, 0
1, 65640, Note_on_c, 3, 43, 0
1, 65640, Note_on_c, 6, 43, 0
1, 65640, Note_on_c, 6, 67, 0
1, 65640, Note_on_c, 6, 74, 0
1, 65640, Note_on_c, 9, 42, 100
1, 65640, Pitch_bend_c, 13, 7168
1, 65640, Note_on_c, 13, 78, 100
1, 65645, Note_on_c, 1, 50, 0
1, 65645, Note_on_c, 1, 55, 0
1, 65645, Note_on_c, 1, 43, 0
1, 65645, Note_on_c, 1, 62, 0
1, 65645, Note_on_c, 1, 59, 0
1, 65645, Note_on_c, 1, 50, 60
1, 65645, Note_on_c, 1, 43, 60
1, 65645, Note_on_c, 1, 62, 60
1, 65645, Note_on_c, 1, 59, 60
1, 65645, Note_on_c, 1, 55, 60
1, 65650, Pitch_bend_c, 13, 7296
1, 65650, Pitch_bend_c, 15, 8064
1, 65655, Note_on_c, 9, 42, 0
1, 65657, Pitch_bend_c, 13, 7424
1, 65662, Pitch_bend_c, 15, 8192
1, 65667, Pitch_bend_c, 13, 7552
1, 65672, Pitch_bend_c, 15, 8320
1, 65675, Pitch_bend_c, 13, 7680
1, 65685, Pitch_bend_c, 13, 7808
1, 65692, Pitch_bend_c, 13, 7936
1, 65700, Note_on_c, 15, 90, 0
1, 65700, Pitch_bend_c, 15, 7168
1, 65700, Note_on_c, 15, 90, 105
1, 65702, Pitch_bend_c, 13, 8064
1, 65710, Pitch_bend_c, 13, 8192
1, 65710, Pitch_bend_c, 15, 7296
1, 65717, Pitch_bend_c, 13, 8320
1, 65717, Pitch_bend_c, 15, 7424
1, 65727, Pitch_bend_c, 15, 7552
1, 65735, Pitch_bend_c, 15, 7680
1, 65745, Pitch_bend_c, 15, 7808
1, 65752, Pitch_bend_c, 15, 7936
1, 65760, Note_on_c, 13, 78, 0
1, 65760, Note_on_c, 3, 43, 100
1, 65760, Note_on_c, 6, 74, 100
1, 65760, Note_on_c, 6, 71, 100
1, 65760, Note_on_c, 6, 55, 100
1, 65760, Note_on_c, 6, 43, 100
1, 65760, Note_on_c, 6, 67, 100
1, 65760, Note_on_c, 9, 36, 100
1, 65760, Note_on_c, 9, 42, 100
1, 65760, Pitch_bend_c, 13, 6784
1, 65760, Note_on_c, 13, 78, 100
1, 65762, Pitch_bend_c, 15, 8064
1, 65765, Note_on_c, 1, 59, 0
1, 65765, Note_on_c, 1, 55, 0
1, 65765, Note_on_c, 1, 43, 0
1, 65765, Note_on_c, 1, 50, 0
1, 65765, Note_on_c, 1, 62, 0
1, 65765, Note_on_c, 1, 43, 75
1, 65767, Pitch_bend_c, 13, 6912
1, 65770, Pitch_bend_c, 15, 8192
1, 65775, Note_on_c, 9, 36, 0
1, 65775, Note_on_c, 9, 42, 0
1, 65775, Pitch_bend_c, 13, 7040
1, 65777, Pitch_bend_c, 15, 8320
1, 65782, Pitch_bend_c, 13, 7168
1, 65790, Pitch_bend_c, 13, 7296
1, 65797, Pitch_bend_c, 13, 7424
1, 65805, Pitch_bend_c, 13, 7552
1, 65812, Pitch_bend_c, 13, 7680
1, 65820, Note_on_c, 3, 43, 0
1, 65820, Note_on_c, 6, 74, 0
1, 65820, Note_on_c, 6, 71, 0
1, 65820, Note_on_c, 6, 43, 0
1, 65820, Note_on_c, 15, 90, 0
1, 65820, Note_on_c, 6, 55, 0
1, 65820, Note_on_c, 6, 67, 0
1, 65820, Note_on_c, 3, 42, 100
1, 65820, Note_on_c, 6, 74, 100
1, 65820, Note_on_c, 6, 55, 100
1, 65820, Note_on_c, 6, 43, 100
1, 65820, Note_on_c, 6, 67, 100
1, 65820, Note_on_c, 6, 71, 100
1, 65820, Pitch_bend_c, 13, 7808
1, 65820, Pitch_bend_c, 15, 6784
1, 65820, Note_on_c, 15, 90, 105
1, 65825, Note_on_c, 1, 43, 0
1, 65825, Note_on_c, 1, 43, 75
1, 65827, Pitch_bend_c, 13, 7936
1, 65827, Pitch_bend_c, 15, 6912
1, 65835, Pitch_bend_c, 13, 8064
1, 65835, Pitch_bend_c, 15, 7040
1, 65842, Pitch_bend_c, 13, 8192
1, 65842, Pitch_bend_c, 15, 7168
1, 65850, Pitch_bend_c, 15, 7296
1, 65857, Pitch_bend_c, 15, 7424
1, 65865, Pitch_bend_c, 15, 7552
1, 65872, Pitch_bend_c, 15, 7680
1, 65877, Pitch_bend_c, 13, 6912
1, 65880, Note_on_c, 6, 71, 0
1, 65880, Note_on_c, 6, 55, 0
1, 65880, Note_on_c, 13, 78, 0
1, 65880, Note_on_c, 6, 43, 0
1, 65880, Note_on_c, 3, 42, 0
1, 65880, Note_on_c, 6, 74, 0
1, 65880, Note_on_c, 6, 67, 0
1, 65880, Note_on_c, 3, 43, 100
1, 65880, Note_on_c, 6, 71, 100
1, 65880, Note_on_c, 6, 74, 100
1, 65880, Note_on_c, 6, 67, 100
1, 65880, Note_on_c, 6, 55, 100
1, 65880, Note_on_c, 6, 43, 100
1, 65880, Note_on_c, 9, 42, 100
1, 65880, Pitch_bend_c, 13, 8192
1, 65880, Note_on_c, 13, 78, 100
1, 65880, Pitch_bend_c, 15, 7808
1, 65885, Note_on_c, 1, 43, 0
1, 65885, Note_on_c, 1, 43, 75
1, 65887, Pitch_bend_c, 13, 7040
1, 65887, Pitch_bend_c, 15, 7936
1, 65895, Note_on_c, 9, 42, 0
1, 65895, Pitch_bend_c, 15, 8064
1, 65897, Pitch_bend_c, 13, 7168
1, 65902, Pitch_bend_c, 15, 8192
1, 65907, Pitch_bend_c, 13, 7296
1, 65917, Pitch_bend_c, 13, 7424
1, 65927, Pitch_bend_c, 13, 7552
1, 65937, Pitch_bend_c, 13, 7680
1, 65937, Pitch_bend_c, 15, 6912
1, 65940, Note_on_c, 6, 43, 0
1, 65940, Note_on_c, 15, 90, 0
1, 65940, Note_on_c, 6, 74, 0
1, 65940, Note_on_c, 6, 67, 0
1, 65940, Note_on_c, 3, 43, 0
1, 65940, Note_on_c, 6, 71, 0
1, 65940, Note_on_c, 6, 55, 0
1, 65940, Note_on_c, 3, 42, 100
1, 65940, Note_on_c, 6, 74, 100
1, 65940, Note_on_c, 6, 67, 100
1, 65940, Note_on_c, 6, 71, 100
1, 65940, Note_on_c, 6, 55, 100
1, 65940, Note_on_c, 6, 43, 100
1, 65940, Note_on_c, 9, 36, 100
1, 65940, Pitch_bend_c, 15, 8192
1, 65940, Note_on_c, 15, 90, 105
1, 65945, Note_on_c, 1, 43, 0
1, 65945, Note_on_c, 1, 43, 75
1, 65947, Pitch_bend_c, 13, 7808
1, 65947, Pitch_bend_c, 15, 7040
1, 65955, Note_on_c, 9, 36, 0
1, 65957, Pitch_bend_c, 13, 7936
1, 65957, Pitch_bend_c, 15, 7168
1, 65965, Pitch_bend_c, 13, 8064
1, 65967, Pitch_bend_c, 15, 7296
1, 65977, Pitch_bend_c, 15, 7424
1, 65987, Pitch_bend_c, 15, 7552
1, 65997, Pitch_bend_c, 13, 7296
1, 65997, Pitch_bend_c, 15, 7680
1, 66000, Note_on_c, 6, 43, 0
1, 66000, Note_on_c, 13, 78, 0
1, 66000, Note_on_c, 6, 67, 0
1, 66000, Note_on_c, 6, 71, 0
1, 66000, Note_on_c, 3, 42, 0
1, 66000, Note_on_c, 6, 74, 0
1, 66000, Note_on_c, 6, 55, 0
1, 66000, Note_on_c, 3, 43, 100
1, 66000, Note_on_c, 6, 71, 100
1, 66000, Note_on_c, 6, 55, 100
1, 66000, Note_on_c, 6, 43, 100
1, 66000, Note_on_c, 6, 74, 100
1, 66000, Note_on_c, 6, 67, 100
1, 66000, Note_on_c, 9, 46, 100
1, 66000, Note_on_c, 9, 38, 100
1, 66000, Note_on_c, 13, 78, 100
1, 66005, Note_on_c, 1, 43, 0
1, 66005, Note_on_c, 1, 43, 75
1, 66007, Pitch_bend_c, 15, 7808
1, 66010, Pitch_bend_c, 13, 7424
1, 66015, Note_on_c, 9, 38, 0
1, 66015, Note_on_c, 9, 46, 0
1, 66017, Pitch_bend_c, 15, 7936
1, 66022, Pitch_bend_c, 13, 7552
1, 66025, Pitch_bend_c, 15, 8064
1, 66035, Pitch_bend_c, 13, 7680
1, 66045, Pitch_bend_c, 13, 7808
1, 66057, Pitch_bend_c, 13, 7936
1, 66057, Pitch_bend_c, 15, 7296
1, 66060, Note_on_c, 15, 90, 0
1, 66060, Note_on_c, 15, 90, 105
1, 66070, Pitch_bend_c, 13, 8064
1, 66070, Pitch_bend_c, 15, 7424
1, 66082, Pitch_bend_c, 13, 8192
1, 66082, Pitch_bend_c, 15, 7552
1, 66092, Pitch_bend_c, 13, 8320
1, 66095, Pitch_bend_c, 15, 7680
1, 66105, Pitch_bend_c, 15, 7808
1, 66117, Pitch_bend_c, 15, 7936
1, 66120, Note_on_c, 6, 67, 0
1, 66120, Note_on_c, 6, 55, 0
1, 66120, Note_on_c, 6, 71, 0
1, 66120, Note_on_c, 6, 43, 0
1, 66120, Note_on_c, 3, 43, 0
1, 66120, Note_on_c, 13, 78, 0
1, 66120, Note_on_c, 6, 74, 0
1, 66120, Note_on_c, 3, 40, 100
1, 66120, Pitch_bend_c, 13, 7168
1, 66120, Note_on_c, 13, 78, 100
1, 66130, Pitch_bend_c, 13, 7296
1, 66130, Pitch_bend_c, 15, 8064
1, 66137, Pitch_bend_c, 13, 7424
1, 66142, Pitch_bend_c, 15, 8192
1, 66147, Pitch_bend_c, 13, 7552
1, 66152, Pitch_bend_c, 15, 8320
1, 66155, Pitch_bend_c, 13, 7680
1, 66165, Pitch_bend_c, 13, 7808
1, 66172, Pitch_bend_c, 13, 7936
1, 66180, Note_on_c, 15, 90, 0
1, 66180, Pitch_bend_c, 15, 7168
1, 66180, Note_on_c, 15, 90, 105
1, 66182, Pitch_bend_c, 13, 8064
1, 66190, Pitch_bend_c, 13, 8192
1, 66190, Pitch_bend_c, 15, 7296
1, 66197, Pitch_bend_c, 13, 8320
1, 66197, Pitch_bend_c, 15, 7424
1, 66207, Pitch_bend_c, 15, 7552
1, 66215, Pitch_bend_c, 15, 7680
1, 66225, Pitch_bend_c, 15, 7808
1, 66232, Pitch_bend_c, 15, 7936
1, 66240, Note_on_c, 13, 78, 0
1, 66240, Note_on_c, 3, 40, 0
1, 66240, Note_on_c, 3, 42, 100
1, 66240, Note_on_c, 6, 70, 100
1, 66240, Note_on_c, 6, 66, 100
1, 66240, Note_on_c, 6, 61, 100
1, 66240, Note_on_c, 6, 42, 100
1, 66240, Note_on_c, 6, 54, 100
1, 66240, Note_on_c, 9, 36, 100
1, 66240, Note_on_c, 9, 42, 100
1, 66240, Note_on_c, 13, 67, 100
1, 66242, Pitch_bend_c, 15, 8064
1, 66245, Note_on_c, 1, 43, 0
1, 66245, Note_on_c, 1, 54, 75
1, 66245, Note_on_c, 1, 49, 75
1, 66245, Note_on_c, 1, 42, 75
1, 66250, Pitch_bend_c, 15, 8192
1, 66255, Note_on_c, 9, 42, 0
1, 66255, Note_on_c, 9, 36, 0
1, 66257, Pitch_bend_c, 15, 8320
1, 66300, Note_on_c, 6, 66, 0
1, 66300, Note_on_c, 15, 90, 0
1, 66300, Note_on_c, 6, 70, 0
1, 66300, Note_on_c, 6, 61, 0
1, 66300, Note_on_c, 3, 42, 0
1, 66300, Note_on_c, 3, 41, 100
1, 66300, Note_on_c, 6, 66, 100
1, 66300, Note_on_c, 6, 61, 100
1, 66300, Note_on_c, 6, 70, 100
1, 66300, Note_on_c, 15, 79, 105
1, 66305, Note_on_c, 1, 49, 0
1, 66305, Note_on_c, 1, 42, 0
1, 66305, Note_on_c, 1, 54, 0
1, 66305, Note_on_c, 1, 54, 75
1, 66305, Note_on_c, 1, 49, 75
1, 66305, Note_on_c, 1, 42, 75
1, 66360, Note_on_c, 6, 61, 0
1, 66360, Note_on_c, 6, 66, 0
1, 66360, Note_on_c, 6, 70, 0
1, 66360, Note_on_c, 3, 41, 0
1, 66360, Note_on_c, 3, 42, 100
1, 66360, Note_on_c, 6, 61, 100
1, 66360, Note_on_c, 6, 70, 100
1, 66360, Note_on_c, 6, 66, 100
1, 66360, Note_on_c, 9, 42, 100
1, 66365, Note_on_c, 1, 49, 0
1, 66365, Note_on_c, 1, 54, 0
1, 66365, Note_on_c, 1, 42, 0
1, 66365, Note_on_c, 1, 54, 75
1, 66365, Note_on_c, 1, 49, 75
1, 66365, Note_on_c, 1, 42, 75
1, 66375, Note_on_c, 9, 42, 0
1, 66420, Note_on_c, 6, 66, 0
1, 66420, Note_on_c, 6, 61, 0
1, 66420, Note_on_c, 3, 42, 0
1, 66420, Note_on_c, 6, 70, 0
1, 66420, Note_on_c, 3, 41, 100
1, 66420, Note_on_c, 6, 70, 100
1, 66420, Note_on_c, 6, 66, 100
1, 66420, Note_on_c, 6, 61, 100
1, 66420, Note_on_c, 9, 36, 100
1, 66425, Note_on_c, 1, 49, 0
1, 66425, Note_on_c, 1, 54, 0
1, 66425, Note_on_c, 1, 42, 0
1, 66425, Note_on_c, 1, 54, 75
1, 66425, Note_on_c, 1, 49, 75
1, 66425, Note_on_c, 1, 42, 75
1, 66435, Note_on_c, 9, 36, 0
1, 66480, Note_on_c, 13, 67, 0
1, 66480, Note_on_c, 6, 70, 0
1, 66480, Note_on_c, 3, 41, 0
1, 66480, Note_on_c, 6, 61, 0
1, 66480, Note_on_c, 6, 66, 0
1, 66480, Note_on_c, 3, 42, 100
1, 66480, Note_on_c, 6, 66, 100
1, 66480, Note_on_c, 6, 61, 100
1, 66480, Note_on_c, 6, 70, 100
1, 66480, Note_on_c, 9, 42, 100
1, 66480, Note_on_c, 9, 38, 100
1, 66480, Note_on_c, 13, 69, 100
1, 66485, Note_on_c, 1, 49, 0
1, 66485, Note_on_c, 1, 54, 0
1, 66485, Note_on_c, 1, 42, 0
1, 66485, Note_on_c, 1, 54, 75
1, 66485, Note_on_c, 1, 49, 75
1, 66485, Note_on_c, 1, 42, 75
1, 66495, Note_on_c, 9, 42, 0
1, 66495, Note_on_c, 9, 38, 0
1, 66540, Note_on_c, 6, 70, 0
1, 66540, Note_on_c, 6, 61, 0
1, 66540, Note_on_c, 6, 66, 0
1, 66540, Note_on_c, 15, 79, 0
1, 66540, Note_on_c, 3, 42, 0
1, 66540, Note_on_c, 3, 41, 100
1, 66540, Note_on_c, 6, 61, 100
1, 66540, Note_on_c, 6, 70, 100
1, 66540, Note_on_c, 6, 66, 100
1, 66540, Note_on_c, 15, 81, 105
1, 66545, Note_on_c, 1, 49, 0
1, 66545, Note_on_c, 1, 54, 0
1, 66545, Note_on_c, 1, 42, 0
1, 66545, Note_on_c, 1, 54, 75
1, 66545, Note_on_c, 1, 49, 75
1, 66545, Note_on_c, 1, 42, 75
1, 66600, Note_on_c, 6, 70, 0
1, 66600, Note_on_c, 6, 61, 0
1, 66600, Note_on_c, 6, 66, 0
1, 66600, Note_on_c, 3, 41, 0
1, 66600, Note_on_c, 3, 42, 100
1, 66600, Note_on_c, 6, 70, 100
1, 66600, Note_on_c, 6, 66, 100
1, 66600, Note_on_c, 6, 61, 100
1, 66600, Note_on_c, 9, 42, 100
1, 66605, Note_on_c, 1, 49, 0
1, 66605, Note_on_c, 1, 54, 0
1, 66605, Note_on_c, 1, 42, 0
1, 66605, Note_on_c, 1, 54, 75
1, 66605, Note_on_c, 1, 49, 75
1, 66605, Note_on_c, 1, 42, 75
1, 66615, Note_on_c, 9, 42, 0
1, 66660, Note_on_c, 6, 61, 0
1, 66660, Note_on_c, 6, 70, 0
1, 66660, Note_on_c, 3, 42, 0
1, 66660, Note_on_c, 6, 66, 0
1, 66660, Note_on_c, 3, 41, 100
1, 66660, Note_on_c, 6, 66, 100
1, 66660, Note_on_c, 6, 61, 100
1, 66660, Note_on_c, 6, 70, 100
1, 66665, Note_on_c, 1, 49, 0
1, 66665, Note_on_c, 1, 54, 0
1, 66665, Note_on_c, 1, 42, 0
1, 66665, Note_on_c, 1, 54, 75
1, 66665, Note_on_c, 1, 49, 75
1, 66665, Note_on_c, 1, 42, 75
1, 66720, Note_on_c, 3, 41, 0
1, 66720, Note_on_c, 6, 61, 0
1, 66720, Note_on_c, 6, 66, 0
1, 66720, Note_on_c, 6, 54, 0
1, 66720, Note_on_c, 6, 70, 0
1, 66720, Note_on_c, 13, 69, 0
1, 66720, Note_on_c, 6, 42, 0
1, 66720, Note_on_c, 3, 42, 100
1, 66720, Note_on_c, 6, 54, 100
1, 66720, Note_on_c, 6, 42, 100
1, 66720, Note_on_c, 6, 66, 100
1, 66720, Note_on_c, 6, 70, 100
1, 66720, Note_on_c, 6, 73, 100
1, 66720, Note_on_c, 9, 42, 100
1, 66720, Note_on_c, 9, 38, 100
1, 66720, Note_on_c, 13, 67, 100
1, 66725, Note_on_c, 1, 54, 0
1, 66725, Note_on_c, 1, 42, 0
1, 66725, Note_on_c, 1, 49, 0
1, 66725, Note_on_c, 1, 54, 75
1, 66725, Note_on_c, 1, 49, 75
1, 66725, Note_on_c, 1, 42, 75
1, 66735, Note_on_c, 9, 42, 0
1, 66735, Note_on_c, 9, 38, 0
1, 66750, Note_on_c, 13, 67, 0
1, 66750, Note_on_c, 13, 64, 100
1, 66780, Note_on_c, 13, 64, 0
1, 66780, Note_on_c, 3, 42, 0
1, 66780, Note_on_c, 6, 73, 0
1, 66780, Note_on_c, 6, 66, 0
1, 66780, Note_on_c, 6, 70, 0
1, 66780, Note_on_c, 15, 81, 0
1, 66780, Note_on_c, 3, 41, 100
1, 66780, Note_on_c, 6, 66, 100
1, 66780, Note_on_c, 6, 70, 100
1, 66780, Note_on_c, 6, 73, 100
1, 66780, Note_on_c, 9, 42, 100
1, 66780, Note_on_c, 9, 38, 100
1, 66780, Note_on_c, 13, 67, 100
1, 66780, Note_on_c, 15, 79, 105
1, 66785, Note_on_c, 1, 42, 0
1, 66785, Note_on_c, 1, 54, 0
1, 66785, Note_on_c, 1, 49, 0
1, 66785, Note_on_c, 1, 54, 75
1, 66785, Note_on_c, 1, 49, 75
1, 66785, Note_on_c, 1, 42, 75
1, 66795, Note_on_c, 9, 38, 0
1, 66795, Note_on_c, 9, 42, 0
1, 66810, Note_on_c, 15, 79, 0
1, 66810, Note_on_c, 15, 76, 105
1, 66840, Note_on_c, 15, 76, 0
1, 66840, Note_on_c, 3, 41, 0
1, 66840, Note_on_c, 6, 73, 0
1, 66840, Note_on_c, 6, 70, 0
1, 66840, Note_on_c, 6, 66, 0
1, 66840, Note_on_c, 3, 42, 100
1, 66840, Note_on_c, 6, 66, 100
1, 66840, Note_on_c, 6, 70, 100
1, 66840, Note_on_c, 6, 73, 100
1, 66840, Note_on_c, 9, 38, 100
1, 66840, Note_on_c, 9, 42, 100
1, 66840, Note_on_c, 15, 79, 105
1, 66845, Note_on_c, 1, 49, 0
1, 66845, Note_on_c, 1, 54, 0
1, 66845, Note_on_c, 1, 42, 0
1, 66845, Note_on_c, 1, 54, 75
1, 66845, Note_on_c, 1, 49, 75
1, 66845, Note_on_c, 1, 42, 75
1, 66855, Note_on_c, 9, 38, 0
1, 66855, Note_on_c, 9, 42, 0
1, 66900, Note_on_c, 6, 70, 0
1, 66900, Note_on_c, 13, 67, 0
1, 66900, Note_on_c, 6, 66, 0
1, 66900, Note_on_c, 6, 73, 0
1, 66900, Note_on_c, 3, 42, 0
1, 66900, Note_on_c, 3, 41, 100
1, 66900, Note_on_c, 6, 66, 100
1, 66900, Note_on_c, 6, 70, 100
1, 66900, Note_on_c, 6, 73, 100
1, 66900, Note_on_c, 9, 38, 100
1, 66900, Note_on_c, 9, 42, 100
1, 66900, Note_on_c, 13, 67, 100
1, 66905, Note_on_c, 1, 49, 0
1, 66905, Note_on_c, 1, 54, 0
1, 66905, Note_on_c, 1, 42, 0
1, 66905, Note_on_c, 1, 54, 75
1, 66905, Note_on_c, 1, 49, 75
1, 66905, Note_on_c, 1, 42, 75
1, 66915, Note_on_c, 9, 38, 0
1, 66915, Note_on_c, 9, 42, 0
1, 66960, Note_on_c, 6, 70, 0
1, 66960, Note_on_c, 15, 79, 0
1, 66960, Note_on_c, 6, 66, 0
1, 66960, Note_on_c, 6, 73, 0
1, 66960, Note_on_c, 3, 41, 0
1, 66960, Note_on_c, 3, 42, 100
1, 66960, Note_on_c, 6, 66, 100
1, 66960, Note_on_c, 6, 70, 100
1, 66960, Note_on_c, 6, 73, 100
1, 66960, Note_on_c, 9, 42, 100
1, 66960, Note_on_c, 9, 38, 100
1, 66960, Note_on_c, 15, 79, 105
1, 66965, Note_on_c, 1, 49, 0
1, 66965, Note_on_c, 1, 54, 0
1, 66965, Note_on_c, 1, 42, 0
1, 66965, Note_on_c, 1, 54, 75
1, 66965, Note_on_c, 1, 49, 75
1, 66965, Note_on_c, 1, 42, 75
1, 66975, Note_on_c, 9, 42, 0
1, 66975, Note_on_c, 9, 38, 0
1, 67020, Note_on_c, 6, 70, 0
1, 67020, Note_on_c, 6, 66, 0
1, 67020, Note_on_c, 6, 73, 0
1, 67020, Note_on_c, 3, 42, 0
1, 67020, Note_on_c, 3, 41, 100
1, 67020, Note_on_c, 6, 66, 100
1, 67020, Note_on_c, 6, 70, 100
1, 67020, Note_on_c, 6, 73, 100
1, 67020, Note_on_c, 9, 38, 100
1, 67020, Note_on_c, 9, 42, 100
1, 67025, Note_on_c, 1, 54, 0
1, 67025, Note_on_c, 1, 42, 0
1, 67025, Note_on_c, 1, 49, 0
1, 67025, Note_on_c, 1, 54, 75
1, 67025, Note_on_c, 1, 49, 75
1, 67025, Note_on_c, 1, 42, 75
1, 67035, Note_on_c, 9, 42, 0
1, 67035, Note_on_c, 9, 38, 0
1, 67080, Note_on_c, 6, 73, 0
1, 67080, Note_on_c, 3, 41, 0
1, 67080, Note_on_c, 13, 67, 0
1, 67080, Note_on_c, 6, 70, 0
1, 67080, Note_on_c, 6, 66, 0
1, 67080, Note_on_c, 3, 40, 100
1, 67080, Note_on_c, 6, 66, 100
1, 67080, Note_on_c, 6, 70, 100
1, 67080, Note_on_c, 6, 73, 100
1, 67080, Note_on_c, 9, 38, 100
1, 67085, Note_on_c, 1, 49, 0
1, 67085, Note_on_c, 1, 54, 0
1, 67085, Note_on_c, 1, 42, 0
1, 67085, Note_on_c, 1, 54, 75
1, 67085, Note_on_c, 1, 49, 75
1, 67085, Note_on_c, 1, 42, 75
1, 67095, Note_on_c, 9, 38, 0
1, 67110, Note_on_c, 9, 38, 100
1, 67125, Note_on_c, 9, 38, 0
1, 67140, Note_on_c, 6, 73, 0
1, 67140, Note_on_c, 6, 66, 0
1, 67140, Note_on_c, 15, 79, 0
1, 67140, Note_on_c, 6, 70, 0
1, 67140, Note_on_c, 3, 40, 0
1, 67140, Note_on_c, 3, 37, 100
1, 67140, Note_on_c, 6, 66, 100
1, 67140, Note_on_c, 6, 70, 100
1, 67140, Note_on_c, 6, 73, 100
1, 67140, Note_on_c, 9, 38, 100
1, 67145, Note_on_c, 1, 42, 0
1, 67145, Note_on_c, 1, 49, 0
1, 67145, Note_on_c, 1, 54, 0
1, 67145, Note_on_c, 1, 54, 75
1, 67145, Note_on_c, 1, 49, 75
1, 67145, Note_on_c, 1, 42, 75
1, 67155, Note_on_c, 9, 38, 0
1, 67170, Note_on_c, 9, 38, 100
1, 67185, Note_on_c, 9, 38, 0
1, 67200, Note_on_c, 6, 70, 0
1, 67200, Note_on_c, 6, 42, 0
1, 67200, Note_on_c, 6, 73, 0
1, 67200, Note_on_c, 3, 37, 0
1, 67200, Note_on_c, 6, 54, 0
1, 67200, Note_on_c, 6, 66, 0
1, 67200, Note_on_c, 3, 35, 100
1, 67200, Note_on_c, 6, 74, 100
1, 67200, Note_on_c, 6, 71, 100
1, 67200, Note_on_c, 6, 66, 100
1, 67200, Note_on_c, 6, 59, 100
1, 67200, Note_on_c, 6, 47, 100
1, 67200, Note_on_c, 9, 49, 100
1, 67200, Note_on_c, 9, 36, 100
1, 67200, Note_on_c, 9, 38, 100
1, 67200, Note_on_c, 13, 71, 100
1, 67205, Note_on_c, 1, 42, 0
1, 67205, Note_on_c, 1, 54, 0
1, 67205, Note_on_c, 1, 49, 0
1, 67205, Note_on_c, 1, 54, 100
1, 67205, Note_on_c, 1, 47, 100
1, 67215, Note_on_c, 9, 36, 0
1, 67215, Note_on_c, 9, 49, 0
1, 67215, Note_on_c, 9, 38, 0
1, 67260, Note_on_c, 15, 83, 105
1, 67680, Note_on_c, 6, 74, 0
1, 67680, Note_on_c, 6, 47, 0
1, 67680, Note_on_c, 6, 59, 0
1, 67680, Note_on_c, 13, 71, 0
1, 67680, Note_on_c, 6, 66, 0
1, 67680, Note_on_c, 6, 71, 0
1, 67685, Note_on_c, 1, 47, 0
1, 67685, Note_on_c, 1, 54, 0
1, 67740, Note_on_c, 15, 83, 0
1, 67800, Note_on_c, 3, 35, 0
1, 67800, End_track
0, 0, End_of_file
