0, 0, Header, 1, 5, 960
1, 0, Start_track
1, 0, Control_c, 0, 101, 0
1, 0, Control_c, 0, 100, 0
1, 0, Control_c, 0, 6, 12
1, 0, Control_c, 0, 38, 0
1, 0, Control_c, 1, 101, 0
1, 0, Control_c, 1, 100, 0
1, 0, Control_c, 1, 6, 12
1, 0, Control_c, 1, 38, 0
1, 0, Control_c, 2, 101, 0
1, 0, Control_c, 2, 100, 0
1, 0, Control_c, 2, 6, 12
1, 0, Control_c, 2, 38, 0
1, 0, Control_c, 3, 101, 0
1, 0, Control_c, 3, 100, 0
1, 0, Control_c, 3, 6, 12
1, 0, Control_c, 3, 38, 0
1, 0, Control_c, 4, 101, 0
1, 0, Control_c, 4, 100, 0
1, 0, Control_c, 4, 6, 12
1, 0, Control_c, 4, 38, 0
1, 0, Control_c, 5, 101, 0
1, 0, Control_c, 5, 100, 0
1, 0, Control_c, 5, 6, 12
1, 0, Control_c, 5, 38, 0
1, 0, Control_c, 6, 101, 0
1, 0, Control_c, 6, 100, 0
1, 0, Control_c, 6, 6, 12
1, 0, Control_c, 6, 38, 0
1, 0, Control_c, 7, 101, 0
1, 0, Control_c, 7, 100, 0
1, 0, Control_c, 7, 6, 12
1, 0, Control_c, 7, 38, 0
1, 0, Control_c, 8, 101, 0
1, 0, Control_c, 8, 100, 0
1, 0, Control_c, 8, 6, 12
1, 0, Control_c, 8, 38, 0
1, 0, Control_c, 9, 101, 0
1, 0, Control_c, 9, 100, 0
1, 0, Control_c, 9, 6, 12
1, 0, Control_c, 9, 38, 0
1, 0, Control_c, 10, 101, 0
1, 0, Control_c, 10, 100, 0
1, 0, Control_c, 10, 6, 12
1, 0, Control_c, 10, 38, 0
1, 0, Control_c, 11, 101, 0
1, 0, Control_c, 11, 100, 0
1, 0, Control_c, 11, 6, 12
1, 0, Control_c, 11, 38, 0
1, 0, Control_c, 12, 101, 0
1, 0, Control_c, 12, 100, 0
1, 0, Control_c, 12, 6, 12
1, 0, Control_c, 12, 38, 0
1, 0, Control_c, 13, 101, 0
1, 0, Control_c, 13, 100, 0
1, 0, Control_c, 13, 6, 12
1, 0, Control_c, 13, 38, 0
1, 0, Control_c, 14, 101, 0
1, 0, Control_c, 14, 100, 0
1, 0, Control_c, 14, 6, 12
1, 0, Control_c, 14, 38, 0
1, 0, Control_c, 15, 101, 0
1, 0, Control_c, 15, 100, 0
1, 0, Control_c, 15, 6, 12
1, 0, Control_c, 15, 38, 0
1, 0, Time_signature, 4, 2, 24, 8
1, 0, Tempo, 394736
1, 0, End_track
2, 0, Start_track
2, 0, Pitch_bend_c, 0, 8192
2, 0, Control_c, 0, 7, 95
2, 0, Control_c, 0, 10, 103
2, 0, Control_c, 0, 93, 0
2, 0, Control_c, 0, 91, 0
2, 0, Control_c, 0, 95, 0
2, 0, Control_c, 0, 92, 0
2, 0, Control_c, 0, 11, 127
2, 0, Program_c, 0, 30
2, 0, Control_c, 1, 7, 95
2, 0, Control_c, 1, 10, 103
2, 0, Control_c, 1, 93, 0
2, 0, Control_c, 1, 91, 0
2, 0, Control_c, 1, 95, 0
2, 0, Control_c, 1, 92, 0
2, 0, Control_c, 1, 11, 127
2, 0, Program_c, 1, 30
2, 0, Note_on_c, 0, 45, 95
2, 152, Note_off_c, 0, 45, 95
2, 480, Note_on_c, 0, 45, 95
2, 632, Note_off_c, 0, 45, 95
2, 960, Note_on_c, 0, 57, 95
2, 1440, Note_off_c, 0, 57, 95
2, 1440, Note_on_c, 0, 57, 95
2, 1920, Note_off_c, 0, 57, 95
2, 1920, Note_on_c, 0, 45, 95
2, 2072, Note_off_c, 0, 45, 95
2, 2400, Note_on_c, 0, 45, 95
2, 2552, Note_off_c, 0, 45, 95
2, 2880, Note_on_c, 0, 52, 95
2, 3360, Note_off_c, 0, 52, 95
2, 3360, Note_on_c, 0, 52, 95
2, 3840, Note_off_c, 0, 52, 95
2, 3840, Note_on_c, 0, 45, 95
2, 3992, Note_off_c, 0, 45, 95
2, 4320, Note_on_c, 0, 45, 95
2, 4472, Note_off_c, 0, 45, 95
2, 4800, Note_on_c, 0, 57, 95
2, 5280, Note_off_c, 0, 57, 95
2, 5280, Note_on_c, 0, 57, 95
2, 5760, Note_off_c, 0, 57, 95
2, 5760, Note_on_c, 0, 45, 95
2, 5912, Note_off_c, 0, 45, 95
2, 6240, Note_on_c, 0, 45, 95
2, 6392, Note_off_c, 0, 45, 95
2, 6720, Note_on_c, 0, 52, 95
2, 7200, Note_off_c, 0, 52, 95
2, 7200, Note_on_c, 0, 52, 95
2, 7680, Note_off_c, 0, 52, 95
2, 7680, Note_on_c, 0, 45, 95
2, 7832, Note_off_c, 0, 45, 95
2, 8160, Note_on_c, 0, 45, 95
2, 8312, Note_off_c, 0, 45, 95
2, 8640, Note_on_c, 0, 57, 95
2, 9120, Note_off_c, 0, 57, 95
2, 9120, Note_on_c, 0, 57, 95
2, 9600, Note_off_c, 0, 57, 95
2, 9600, Note_on_c, 0, 45, 95
2, 9752, Note_off_c, 0, 45, 95
2, 10080, Note_on_c, 0, 45, 95
2, 10232, Note_off_c, 0, 45, 95
2, 10560, Note_on_c, 0, 52, 95
2, 11040, Note_off_c, 0, 52, 95
2, 11040, Note_on_c, 0, 52, 95
2, 11520, Note_off_c, 0, 52, 95
2, 11520, Note_on_c, 0, 45, 95
2, 11672, Note_off_c, 0, 45, 95
2, 12000, Note_on_c, 0, 45, 95
2, 12152, Note_off_c, 0, 45, 95
2, 12480, Note_on_c, 0, 57, 95
2, 12960, Note_off_c, 0, 57, 95
2, 12960, Note_on_c, 0, 57, 95
2, 13440, Note_off_c, 0, 57, 95
2, 13440, Note_on_c, 0, 45, 95
2, 13592, Note_off_c, 0, 45, 95
2, 13920, Note_on_c, 0, 45, 95
2, 14072, Note_off_c, 0, 45, 95
2, 14400, Note_on_c, 0, 52, 95
2, 14880, Note_off_c, 0, 52, 95
2, 14880, Note_on_c, 0, 52, 95
2, 15360, Note_off_c, 0, 52, 95
2, 15360, Note_on_c, 0, 45, 95
2, 15512, Note_off_c, 0, 45, 95
2, 15840, Note_on_c, 0, 45, 95
2, 15992, Note_off_c, 0, 45, 95
2, 16320, Note_on_c, 0, 57, 95
2, 16800, Note_off_c, 0, 57, 95
2, 16800, Note_on_c, 0, 57, 95
2, 17280, Note_off_c, 0, 57, 95
2, 17280, Note_on_c, 0, 45, 95
2, 17432, Note_off_c, 0, 45, 95
2, 17760, Note_on_c, 0, 45, 95
2, 17912, Note_off_c, 0, 45, 95
2, 18240, Note_on_c, 0, 52, 95
2, 18720, Note_off_c, 0, 52, 95
2, 18720, Note_on_c, 0, 52, 95
2, 19200, Note_off_c, 0, 52, 95
2, 19200, Note_on_c, 0, 45, 95
2, 19352, Note_off_c, 0, 45, 95
2, 19680, Note_on_c, 0, 45, 95
2, 19832, Note_off_c, 0, 45, 95
2, 20160, Note_on_c, 0, 57, 95
2, 20640, Note_off_c, 0, 57, 95
2, 20640, Note_on_c, 0, 57, 95
2, 21120, Note_off_c, 0, 57, 95
2, 21120, Note_on_c, 0, 45, 95
2, 21272, Note_off_c, 0, 45, 95
2, 21600, Note_on_c, 0, 45, 95
2, 21752, Note_off_c, 0, 45, 95
2, 22080, Note_on_c, 0, 52, 95
2, 22560, Note_off_c, 0, 52, 95
2, 22560, Note_on_c, 0, 52, 95
2, 23040, Note_off_c, 0, 52, 95
2, 23040, Note_on_c, 0, 45, 95
2, 23192, Note_off_c, 0, 45, 95
2, 23520, Note_on_c, 0, 45, 95
2, 23672, Note_off_c, 0, 45, 95
2, 24000, Note_on_c, 0, 57, 95
2, 24480, Note_off_c, 0, 57, 95
2, 24480, Note_on_c, 0, 57, 95
2, 24960, Note_off_c, 0, 57, 95
2, 24960, Note_on_c, 0, 45, 95
2, 25112, Note_off_c, 0, 45, 95
2, 25440, Note_on_c, 0, 45, 95
2, 25592, Note_off_c, 0, 45, 95
2, 25920, Note_on_c, 0, 52, 95
2, 26400, Note_off_c, 0, 52, 95
2, 26400, Note_on_c, 0, 52, 95
2, 26880, Note_off_c, 0, 52, 95
2, 26880, Note_on_c, 0, 45, 95
2, 27032, Note_off_c, 0, 45, 95
2, 27360, Note_on_c, 0, 45, 95
2, 27512, Note_off_c, 0, 45, 95
2, 27840, Note_on_c, 0, 57, 95
2, 28320, Note_off_c, 0, 57, 95
2, 28320, Note_on_c, 0, 57, 95
2, 28800, Note_off_c, 0, 57, 95
2, 28800, Note_on_c, 0, 45, 95
2, 28952, Note_off_c, 0, 45, 95
2, 29280, Note_on_c, 0, 45, 95
2, 29432, Note_off_c, 0, 45, 95
2, 29760, Note_on_c, 0, 52, 95
2, 30240, Note_off_c, 0, 52, 95
2, 30240, Note_on_c, 0, 52, 95
2, 30720, Note_off_c, 0, 52, 95
2, 30720, Note_on_c, 0, 45, 95
2, 30872, Note_off_c, 0, 45, 95
2, 31200, Note_on_c, 0, 45, 95
2, 31352, Note_off_c, 0, 45, 95
2, 31680, Note_on_c, 0, 57, 111
2, 32160, Note_off_c, 0, 57, 111
2, 32160, Note_on_c, 0, 57, 111
2, 32640, Note_off_c, 0, 57, 111
2, 32640, Note_on_c, 0, 45, 95
2, 32792, Note_off_c, 0, 45, 95
2, 33120, Note_on_c, 0, 45, 95
2, 33272, Note_off_c, 0, 45, 95
2, 33600, Note_on_c, 0, 52, 111
2, 34080, Note_off_c, 0, 52, 111
2, 34080, Note_on_c, 0, 52, 111
2, 34560, Note_off_c, 0, 52, 111
2, 34560, Note_on_c, 0, 45, 95
2, 34712, Note_off_c, 0, 45, 95
2, 35040, Note_on_c, 0, 45, 95
2, 35192, Note_off_c, 0, 45, 95
2, 35520, Note_on_c, 0, 57, 111
2, 36000, Note_off_c, 0, 57, 111
2, 36000, Note_on_c, 0, 57, 111
2, 36480, Note_off_c, 0, 57, 111
2, 36480, Note_on_c, 0, 45, 95
2, 36632, Note_off_c, 0, 45, 95
2, 36960, Note_on_c, 0, 45, 95
2, 37112, Note_off_c, 0, 45, 95
2, 37440, Note_on_c, 0, 52, 111
2, 37920, Note_off_c, 0, 52, 111
2, 37920, Note_on_c, 0, 52, 111
2, 38400, Note_off_c, 0, 52, 111
2, 38400, Note_on_c, 0, 45, 95
2, 38552, Note_off_c, 0, 45, 95
2, 38880, Note_on_c, 0, 45, 95
2, 39032, Note_off_c, 0, 45, 95
2, 39360, Note_on_c, 0, 57, 111
2, 39840, Note_off_c, 0, 57, 111
2, 39840, Note_on_c, 0, 57, 111
2, 40320, Note_off_c, 0, 57, 111
2, 40320, Note_on_c, 0, 45, 95
2, 40472, Note_off_c, 0, 45, 95
2, 40800, Note_on_c, 0, 45, 95
2, 40952, Note_off_c, 0, 45, 95
2, 41280, Note_on_c, 0, 52, 111
2, 41760, Note_off_c, 0, 52, 111
2, 41760, Note_on_c, 0, 52, 111
2, 42240, Note_off_c, 0, 52, 111
2, 42240, Note_on_c, 0, 45, 95
2, 42392, Note_off_c, 0, 45, 95
2, 42720, Note_on_c, 0, 45, 95
2, 42872, Note_off_c, 0, 45, 95
2, 43200, Note_on_c, 0, 57, 111
2, 43680, Note_off_c, 0, 57, 111
2, 43680, Note_on_c, 0, 57, 111
2, 44160, Note_off_c, 0, 57, 111
2, 44160, Note_on_c, 0, 45, 95
2, 44312, Note_off_c, 0, 45, 95
2, 44640, Note_on_c, 0, 45, 95
2, 44792, Note_off_c, 0, 45, 95
2, 45120, Note_on_c, 0, 52, 111
2, 45600, Note_off_c, 0, 52, 111
2, 45600, Note_on_c, 0, 52, 111
2, 46080, Note_off_c, 0, 52, 111
2, 46080, Note_on_c, 0, 45, 95
2, 46232, Note_off_c, 0, 45, 95
2, 46560, Note_on_c, 0, 45, 95
2, 46712, Note_off_c, 0, 45, 95
2, 47040, Note_on_c, 0, 57, 111
2, 47520, Note_off_c, 0, 57, 111
2, 47520, Note_on_c, 0, 57, 111
2, 48000, Note_off_c, 0, 57, 111
2, 48000, Note_on_c, 0, 45, 95
2, 48152, Note_off_c, 0, 45, 95
2, 48480, Note_on_c, 0, 45, 95
2, 48632, Note_off_c, 0, 45, 95
2, 48960, Note_on_c, 0, 52, 111
2, 49440, Note_off_c, 0, 52, 111
2, 49440, Note_on_c, 0, 52, 111
2, 49920, Note_off_c, 0, 52, 111
2, 49920, Note_on_c, 0, 45, 95
2, 50072, Note_off_c, 0, 45, 95
2, 50400, Note_on_c, 0, 45, 95
2, 50552, Note_off_c, 0, 45, 95
2, 50880, Note_on_c, 0, 57, 111
2, 51360, Note_off_c, 0, 57, 111
2, 51360, Note_on_c, 0, 57, 111
2, 51840, Note_off_c, 0, 57, 111
2, 51840, Note_on_c, 0, 45, 95
2, 51992, Note_off_c, 0, 45, 95
2, 52320, Note_on_c, 0, 45, 95
2, 52472, Note_off_c, 0, 45, 95
2, 52800, Note_on_c, 0, 52, 111
2, 53280, Note_off_c, 0, 52, 111
2, 53280, Note_on_c, 0, 52, 111
2, 53760, Note_off_c, 0, 52, 111
2, 53760, Note_on_c, 0, 45, 95
2, 53912, Note_off_c, 0, 45, 95
2, 54240, Note_on_c, 0, 45, 95
2, 54392, Note_off_c, 0, 45, 95
2, 54720, Note_on_c, 0, 57, 111
2, 55200, Note_off_c, 0, 57, 111
2, 55200, Note_on_c, 0, 57, 111
2, 55680, Note_off_c, 0, 57, 111
2, 55680, Note_on_c, 0, 45, 95
2, 55832, Note_off_c, 0, 45, 95
2, 56160, Note_on_c, 0, 45, 95
2, 56312, Note_off_c, 0, 45, 95
2, 56640, Note_on_c, 0, 52, 111
2, 57120, Note_off_c, 0, 52, 111
2, 57120, Note_on_c, 0, 52, 111
2, 57600, Note_off_c, 0, 52, 111
2, 57600, Note_on_c, 0, 45, 95
2, 57752, Note_off_c, 0, 45, 95
2, 58080, Note_on_c, 0, 45, 95
2, 58232, Note_off_c, 0, 45, 95
2, 58560, Note_on_c, 0, 57, 111
2, 59040, Note_off_c, 0, 57, 111
2, 59040, Note_on_c, 0, 57, 111
2, 59520, Note_off_c, 0, 57, 111
2, 59520, Note_on_c, 0, 45, 95
2, 59672, Note_off_c, 0, 45, 95
2, 60000, Note_on_c, 0, 45, 95
2, 60152, Note_off_c, 0, 45, 95
2, 60480, Note_on_c, 0, 52, 111
2, 60960, Note_off_c, 0, 52, 111
2, 60960, Note_on_c, 0, 52, 111
2, 61440, Note_off_c, 0, 52, 111
2, 61440, Note_on_c, 0, 61, 95
2, 61440, Note_on_c, 0, 57, 95
2, 61440, Note_on_c, 0, 52, 95
2, 61440, Note_on_c, 0, 45, 95
2, 62400, Note_off_c, 0, 61, 95
2, 62400, Note_off_c, 0, 57, 95
2, 62400, Note_off_c, 0, 52, 95
2, 62400, Note_off_c, 0, 45, 95
2, 62400, Note_on_c, 0, 61, 95
2, 62400, Note_on_c, 0, 57, 95
2, 62400, Note_on_c, 0, 52, 95
2, 62400, Note_on_c, 0, 45, 95
2, 63840, Note_off_c, 0, 61, 95
2, 63840, Note_off_c, 0, 57, 95
2, 63840, Note_off_c, 0, 52, 95
2, 63840, Note_off_c, 0, 45, 95
2, 63840, Note_on_c, 0, 61, 95
2, 63840, Note_on_c, 0, 57, 95
2, 63840, Note_on_c, 0, 52, 95
2, 63840, Note_on_c, 0, 45, 95
2, 64800, Note_off_c, 0, 61, 95
2, 64800, Note_off_c, 0, 57, 95
2, 64800, Note_off_c, 0, 52, 95
2, 64800, Note_off_c, 0, 45, 95
2, 64800, Note_on_c, 0, 52, 95
2, 64800, Note_on_c, 0, 45, 95
2, 65280, Note_off_c, 0, 52, 95
2, 65280, Note_off_c, 0, 45, 95
2, 65280, Note_on_c, 0, 61, 95
2, 65280, Note_on_c, 0, 57, 95
2, 65280, Note_on_c, 0, 52, 95
2, 65280, Note_on_c, 0, 45, 95
2, 66240, Note_off_c, 0, 61, 95
2, 66240, Note_off_c, 0, 57, 95
2, 66240, Note_off_c, 0, 52, 95
2, 66240, Note_off_c, 0, 45, 95
2, 66240, Note_on_c, 0, 61, 95
2, 66240, Note_on_c, 0, 57, 95
2, 66240, Note_on_c, 0, 52, 95
2, 66240, Note_on_c, 0, 45, 95
2, 67680, Note_off_c, 0, 61, 95
2, 67680, Note_off_c, 0, 57, 95
2, 67680, Note_off_c, 0, 52, 95
2, 67680, Note_off_c, 0, 45, 95
2, 67680, Note_on_c, 0, 61, 95
2, 67680, Note_on_c, 0, 57, 95
2, 67680, Note_on_c, 0, 52, 95
2, 67680, Note_on_c, 0, 45, 95
2, 68640, Note_off_c, 0, 61, 95
2, 68640, Note_off_c, 0, 57, 95
2, 68640, Note_off_c, 0, 52, 95
2, 68640, Note_off_c, 0, 45, 95
2, 68640, Note_on_c, 0, 52, 95
2, 68640, Note_on_c, 0, 45, 95
2, 69120, Note_off_c, 0, 52, 95
2, 69120, Note_off_c, 0, 45, 95
2, 69120, Note_on_c, 0, 61, 95
2, 69120, Note_on_c, 0, 57, 95
2, 69120, Note_on_c, 0, 52, 95
2, 69120, Note_on_c, 0, 45, 95
2, 70080, Note_off_c, 0, 61, 95
2, 70080, Note_off_c, 0, 57, 95
2, 70080, Note_off_c, 0, 52, 95
2, 70080, Note_off_c, 0, 45, 95
2, 70080, Note_on_c, 0, 61, 95
2, 70080, Note_on_c, 0, 57, 95
2, 70080, Note_on_c, 0, 52, 95
2, 70080, Note_on_c, 0, 45, 95
2, 71520, Note_off_c, 0, 61, 95
2, 71520, Note_off_c, 0, 57, 95
2, 71520, Note_off_c, 0, 52, 95
2, 71520, Note_off_c, 0, 45, 95
2, 71520, Note_on_c, 0, 61, 95
2, 71520, Note_on_c, 0, 57, 95
2, 71520, Note_on_c, 0, 52, 95
2, 71520, Note_on_c, 0, 45, 95
2, 72480, Note_off_c, 0, 61, 95
2, 72480, Note_off_c, 0, 57, 95
2, 72480, Note_off_c, 0, 52, 95
2, 72480, Note_off_c, 0, 45, 95
2, 72480, Note_on_c, 0, 52, 95
2, 72480, Note_on_c, 0, 45, 95
2, 72960, Note_off_c, 0, 52, 95
2, 72960, Note_off_c, 0, 45, 95
2, 72960, Note_on_c, 0, 61, 95
2, 72960, Note_on_c, 0, 57, 95
2, 72960, Note_on_c, 0, 52, 95
2, 72960, Note_on_c, 0, 45, 95
2, 73920, Note_off_c, 0, 61, 95
2, 73920, Note_off_c, 0, 57, 95
2, 73920, Note_off_c, 0, 52, 95
2, 73920, Note_off_c, 0, 45, 95
2, 73920, Note_on_c, 0, 61, 95
2, 73920, Note_on_c, 0, 57, 95
2, 73920, Note_on_c, 0, 52, 95
2, 73920, Note_on_c, 0, 45, 95
2, 75360, Note_off_c, 0, 61, 95
2, 75360, Note_off_c, 0, 57, 95
2, 75360, Note_off_c, 0, 52, 95
2, 75360, Note_off_c, 0, 45, 95
2, 75360, Note_on_c, 0, 61, 95
2, 75360, Note_on_c, 0, 57, 95
2, 75360, Note_on_c, 0, 52, 95
2, 75360, Note_on_c, 0, 45, 95
2, 76320, Note_off_c, 0, 61, 95
2, 76320, Note_off_c, 0, 57, 95
2, 76320, Note_off_c, 0, 52, 95
2, 76320, Note_off_c, 0, 45, 95
2, 76320, Note_on_c, 0, 52, 95
2, 76320, Note_on_c, 0, 45, 95
2, 76800, Note_off_c, 0, 52, 95
2, 76800, Note_off_c, 0, 45, 95
2, 76800, Note_on_c, 0, 57, 95
2, 76800, Note_on_c, 0, 52, 95
2, 76800, Note_on_c, 0, 45, 95
2, 77760, Note_off_c, 0, 57, 95
2, 77760, Note_off_c, 0, 52, 95
2, 77760, Note_off_c, 0, 45, 95
2, 77760, Note_on_c, 0, 55, 95
2, 77760, Note_on_c, 0, 50, 95
2, 77760, Note_on_c, 0, 45, 95
2, 77836, Note_off_c, 0, 55, 95
2, 77836, Note_off_c, 0, 50, 95
2, 77836, Note_off_c, 0, 45, 95
2, 78240, Note_on_c, 0, 50, 95
2, 78240, Note_on_c, 0, 45, 95
2, 78240, Note_on_c, 0, 43, 95
2, 78316, Note_off_c, 0, 45, 95
2, 78720, Note_off_c, 0, 50, 95
2, 78720, Note_off_c, 0, 43, 95
2, 78720, Note_on_c, 0, 67, 95
2, 78720, Note_on_c, 0, 59, 95
2, 78720, Note_on_c, 0, 55, 95
2, 78720, Note_on_c, 0, 50, 95
2, 78720, Note_on_c, 0, 48, 95
2, 78720, Note_on_c, 0, 43, 95
2, 78796, Note_off_c, 0, 48, 95
2, 80160, Note_off_c, 0, 67, 95
2, 80160, Note_off_c, 0, 59, 95
2, 80160, Note_off_c, 0, 55, 95
2, 80160, Note_off_c, 0, 50, 95
2, 80160, Note_off_c, 0, 43, 95
2, 80160, Note_on_c, 0, 64, 95
2, 80160, Note_on_c, 0, 59, 95
2, 80160, Note_on_c, 0, 55, 95
2, 80160, Note_on_c, 0, 50, 95
2, 80236, Note_off_c, 0, 64, 95
2, 80236, Note_off_c, 0, 59, 95
2, 80236, Note_off_c, 0, 55, 95
2, 80236, Note_off_c, 0, 50, 95
2, 80640, Note_on_c, 0, 66, 95
2, 80640, Note_on_c, 0, 62, 95
2, 80640, Note_on_c, 0, 57, 95
2, 80640, Note_on_c, 0, 50, 95
2, 81600, Note_off_c, 0, 66, 95
2, 81600, Note_off_c, 0, 62, 95
2, 81600, Note_off_c, 0, 57, 95
2, 81600, Note_off_c, 0, 50, 95
2, 81600, Note_on_c, 0, 64, 95
2, 81600, Note_on_c, 0, 59, 95
2, 81600, Note_on_c, 0, 55, 95
2, 81600, Note_on_c, 0, 50, 95
2, 81676, Note_off_c, 0, 64, 95
2, 81676, Note_off_c, 0, 59, 95
2, 81676, Note_off_c, 0, 55, 95
2, 81676, Note_off_c, 0, 50, 95
2, 82080, Note_on_c, 0, 57, 95
2, 82080, Note_on_c, 0, 52, 95
2, 82080, Note_on_c, 0, 45, 95
2, 83040, Note_off_c, 0, 57, 95
2, 83040, Note_off_c, 0, 52, 95
2, 83040, Note_off_c, 0, 45, 95
2, 83040, Note_on_c, 0, 57, 95
2, 83040, Note_on_c, 0, 52, 95
2, 83040, Note_on_c, 0, 45, 95
2, 83520, Note_off_c, 0, 57, 95
2, 83520, Note_off_c, 0, 52, 95
2, 83520, Note_off_c, 0, 45, 95
2, 83520, Note_on_c, 0, 57, 95
2, 83520, Note_on_c, 0, 52, 95
2, 83520, Note_on_c, 0, 45, 95
2, 84000, Note_off_c, 0, 57, 95
2, 84000, Note_off_c, 0, 52, 95
2, 84000, Note_off_c, 0, 45, 95
2, 84000, Note_on_c, 0, 55, 95
2, 84000, Note_on_c, 0, 50, 95
2, 84076, Note_off_c, 0, 55, 95
2, 84076, Note_off_c, 0, 50, 95
2, 84480, Note_on_c, 0, 67, 95
2, 84480, Note_on_c, 0, 59, 95
2, 84480, Note_on_c, 0, 55, 95
2, 84480, Note_on_c, 0, 50, 95
2, 84480, Note_on_c, 0, 45, 95
2, 84480, Note_on_c, 0, 43, 95
2, 84556, Note_off_c, 0, 45, 95
2, 86400, Note_off_c, 0, 67, 95
2, 86400, Note_off_c, 0, 59, 95
2, 86400, Note_off_c, 0, 55, 95
2, 86400, Note_off_c, 0, 50, 95
2, 86400, Note_off_c, 0, 43, 95
2, 86400, Note_on_c, 0, 67, 95
2, 86400, Note_on_c, 0, 59, 95
2, 86400, Note_on_c, 0, 55, 95
2, 86400, Note_on_c, 0, 50, 95
2, 86400, Note_on_c, 0, 45, 95
2, 86400, Note_on_c, 0, 43, 95
2, 86476, Note_off_c, 0, 45, 95
2, 86880, Note_off_c, 0, 67, 95
2, 86880, Note_off_c, 0, 59, 95
2, 86880, Note_off_c, 0, 55, 95
2, 86880, Note_off_c, 0, 50, 95
2, 86880, Note_off_c, 0, 43, 95
2, 86880, Note_on_c, 0, 67, 95
2, 86880, Note_on_c, 0, 59, 95
2, 86880, Note_on_c, 0, 55, 95
2, 86880, Note_on_c, 0, 50, 95
2, 86880, Note_on_c, 0, 45, 95
2, 86880, Note_on_c, 0, 43, 95
2, 86956, Note_off_c, 0, 45, 95
2, 87840, Note_off_c, 0, 67, 95
2, 87840, Note_off_c, 0, 59, 95
2, 87840, Note_off_c, 0, 55, 95
2, 87840, Note_off_c, 0, 50, 95
2, 87840, Note_off_c, 0, 43, 95
2, 87840, Note_on_c, 0, 64, 95
2, 87840, Note_on_c, 0, 59, 95
2, 87840, Note_on_c, 0, 55, 95
2, 87840, Note_on_c, 0, 50, 95
2, 87916, Note_off_c, 0, 64, 95
2, 87916, Note_off_c, 0, 59, 95
2, 87916, Note_off_c, 0, 55, 95
2, 87916, Note_off_c, 0, 50, 95
2, 88320, Note_on_c, 0, 68, 95
2, 88320, Note_on_c, 0, 64, 95
2, 88320, Note_on_c, 0, 59, 95
2, 88320, Note_on_c, 0, 52, 95
2, 88800, Note_off_c, 0, 68, 95
2, 88800, Note_off_c, 0, 64, 95
2, 88800, Note_off_c, 0, 59, 95
2, 88800, Note_off_c, 0, 52, 95
2, 88800, Note_on_c, 0, 68, 95
2, 88800, Note_on_c, 0, 64, 95
2, 88800, Note_on_c, 0, 59, 95
2, 88800, Note_on_c, 0, 52, 95
2, 89280, Note_off_c, 0, 68, 95
2, 89280, Note_off_c, 0, 64, 95
2, 89280, Note_off_c, 0, 59, 95
2, 89280, Note_off_c, 0, 52, 95
2, 89280, Note_on_c, 0, 68, 95
2, 89280, Note_on_c, 0, 64, 95
2, 89280, Note_on_c, 0, 59, 95
2, 89280, Note_on_c, 0, 52, 95
2, 90240, Note_off_c, 0, 68, 95
2, 90240, Note_off_c, 0, 64, 95
2, 90240, Note_off_c, 0, 59, 95
2, 90240, Note_off_c, 0, 52, 95
2, 90240, Note_on_c, 0, 68, 95
2, 90240, Note_on_c, 0, 64, 95
2, 90240, Note_on_c, 0, 59, 95
2, 90240, Note_on_c, 0, 52, 95
2, 90720, Note_off_c, 0, 68, 95
2, 90720, Note_off_c, 0, 64, 95
2, 90720, Note_off_c, 0, 59, 95
2, 90720, Note_off_c, 0, 52, 95
2, 90720, Note_on_c, 0, 68, 95
2, 90720, Note_on_c, 0, 64, 95
2, 90720, Note_on_c, 0, 59, 95
2, 90720, Note_on_c, 0, 52, 95
2, 91200, Note_off_c, 0, 68, 95
2, 91200, Note_off_c, 0, 64, 95
2, 91200, Note_off_c, 0, 59, 95
2, 91200, Note_off_c, 0, 52, 95
2, 91200, Note_on_c, 0, 68, 95
2, 91200, Note_on_c, 0, 64, 95
2, 91200, Note_on_c, 0, 59, 95
2, 91200, Note_on_c, 0, 52, 95
2, 91680, Note_off_c, 0, 68, 95
2, 91680, Note_off_c, 0, 64, 95
2, 91680, Note_off_c, 0, 59, 95
2, 91680, Note_off_c, 0, 52, 95
2, 91680, Note_on_c, 0, 59, 95
2, 91680, Note_on_c, 0, 55, 95
2, 91680, Note_on_c, 0, 50, 95
2, 91680, Note_on_c, 0, 45, 95
2, 91756, Note_off_c, 0, 59, 95
2, 91756, Note_off_c, 0, 55, 95
2, 91756, Note_off_c, 0, 50, 95
2, 91756, Note_off_c, 0, 45, 95
2, 92160, Note_on_c, 0, 57, 95
2, 92160, Note_on_c, 0, 52, 95
2, 92160, Note_on_c, 0, 45, 95
2, 93120, Note_off_c, 0, 57, 95
2, 93120, Note_off_c, 0, 52, 95
2, 93120, Note_off_c, 0, 45, 95
2, 93120, Note_on_c, 0, 55, 95
2, 93120, Note_on_c, 0, 50, 95
2, 93120, Note_on_c, 0, 45, 95
2, 93196, Note_off_c, 0, 55, 95
2, 93196, Note_off_c, 0, 50, 95
2, 93196, Note_off_c, 0, 45, 95
2, 93600, Note_on_c, 0, 50, 95
2, 93600, Note_on_c, 0, 45, 95
2, 93600, Note_on_c, 0, 43, 95
2, 93676, Note_off_c, 0, 45, 95
2, 94080, Note_off_c, 0, 50, 95
2, 94080, Note_off_c, 0, 43, 95
2, 94080, Note_on_c, 0, 67, 95
2, 94080, Note_on_c, 0, 59, 95
2, 94080, Note_on_c, 0, 55, 95
2, 94080, Note_on_c, 0, 50, 95
2, 94080, Note_on_c, 0, 48, 95
2, 94080, Note_on_c, 0, 43, 95
2, 94156, Note_off_c, 0, 48, 95
2, 95520, Note_off_c, 0, 67, 95
2, 95520, Note_off_c, 0, 59, 95
2, 95520, Note_off_c, 0, 55, 95
2, 95520, Note_off_c, 0, 50, 95
2, 95520, Note_off_c, 0, 43, 95
2, 95520, Note_on_c, 0, 64, 95
2, 95520, Note_on_c, 0, 59, 95
2, 95520, Note_on_c, 0, 55, 95
2, 95520, Note_on_c, 0, 50, 95
2, 95596, Note_off_c, 0, 64, 95
2, 95596, Note_off_c, 0, 59, 95
2, 95596, Note_off_c, 0, 55, 95
2, 95596, Note_off_c, 0, 50, 95
2, 96000, Note_on_c, 0, 66, 95
2, 96000, Note_on_c, 0, 62, 95
2, 96000, Note_on_c, 0, 57, 95
2, 96000, Note_on_c, 0, 50, 95
2, 96960, Note_off_c, 0, 66, 95
2, 96960, Note_off_c, 0, 62, 95
2, 96960, Note_off_c, 0, 57, 95
2, 96960, Note_off_c, 0, 50, 95
2, 96960, Note_on_c, 0, 64, 95
2, 96960, Note_on_c, 0, 59, 95
2, 96960, Note_on_c, 0, 55, 95
2, 96960, Note_on_c, 0, 50, 95
2, 97036, Note_off_c, 0, 64, 95
2, 97036, Note_off_c, 0, 59, 95
2, 97036, Note_off_c, 0, 55, 95
2, 97036, Note_off_c, 0, 50, 95
2, 97440, Note_on_c, 0, 57, 95
2, 97440, Note_on_c, 0, 52, 95
2, 97440, Note_on_c, 0, 45, 95
2, 98400, Note_off_c, 0, 57, 95
2, 98400, Note_off_c, 0, 52, 95
2, 98400, Note_off_c, 0, 45, 95
2, 98400, Note_on_c, 0, 57, 95
2, 98400, Note_on_c, 0, 52, 95
2, 98400, Note_on_c, 0, 45, 95
2, 98880, Note_off_c, 0, 57, 95
2, 98880, Note_off_c, 0, 52, 95
2, 98880, Note_off_c, 0, 45, 95
2, 98880, Note_on_c, 0, 57, 95
2, 98880, Note_on_c, 0, 52, 95
2, 98880, Note_on_c, 0, 45, 95
2, 99360, Note_off_c, 0, 57, 95
2, 99360, Note_off_c, 0, 52, 95
2, 99360, Note_off_c, 0, 45, 95
2, 99360, Note_on_c, 0, 55, 95
2, 99360, Note_on_c, 0, 50, 95
2, 99360, Note_on_c, 0, 45, 95
2, 99436, Note_off_c, 0, 55, 95
2, 99436, Note_off_c, 0, 50, 95
2, 99436, Note_off_c, 0, 45, 95
2, 99840, Note_on_c, 0, 67, 95
2, 99840, Note_on_c, 0, 59, 95
2, 99840, Note_on_c, 0, 55, 95
2, 99840, Note_on_c, 0, 50, 95
2, 99840, Note_on_c, 0, 45, 95
2, 99840, Note_on_c, 0, 43, 95
2, 99916, Note_off_c, 0, 45, 95
2, 100800, Note_off_c, 0, 67, 95
2, 100800, Note_off_c, 0, 59, 95
2, 100800, Note_off_c, 0, 55, 95
2, 100800, Note_off_c, 0, 50, 95
2, 100800, Note_off_c, 0, 43, 95
2, 100800, Note_on_c, 0, 67, 95
2, 100800, Note_on_c, 0, 59, 95
2, 100800, Note_on_c, 0, 55, 95
2, 100800, Note_on_c, 0, 50, 95
2, 100800, Note_on_c, 0, 45, 95
2, 100800, Note_on_c, 0, 43, 95
2, 100876, Note_off_c, 0, 45, 95
2, 101760, Note_off_c, 0, 67, 95
2, 101760, Note_off_c, 0, 59, 95
2, 101760, Note_off_c, 0, 55, 95
2, 101760, Note_off_c, 0, 50, 95
2, 101760, Note_off_c, 0, 43, 95
2, 101760, Note_on_c, 0, 67, 95
2, 101760, Note_on_c, 0, 59, 95
2, 101760, Note_on_c, 0, 55, 95
2, 101760, Note_on_c, 0, 50, 95
2, 101760, Note_on_c, 0, 45, 95
2, 101760, Note_on_c, 0, 43, 95
2, 101836, Note_off_c, 0, 45, 95
2, 102240, Note_off_c, 0, 67, 95
2, 102240, Note_off_c, 0, 59, 95
2, 102240, Note_off_c, 0, 55, 95
2, 102240, Note_off_c, 0, 50, 95
2, 102240, Note_off_c, 0, 43, 95
2, 102240, Note_on_c, 0, 67, 95
2, 102240, Note_on_c, 0, 59, 95
2, 102240, Note_on_c, 0, 55, 95
2, 102240, Note_on_c, 0, 50, 95
2, 102240, Note_on_c, 0, 45, 95
2, 102240, Note_on_c, 0, 43, 95
2, 102316, Note_off_c, 0, 45, 95
2, 103200, Note_off_c, 0, 67, 95
2, 103200, Note_off_c, 0, 59, 95
2, 103200, Note_off_c, 0, 55, 95
2, 103200, Note_off_c, 0, 50, 95
2, 103200, Note_off_c, 0, 43, 95
2, 103200, Note_on_c, 0, 59, 95
2, 103200, Note_on_c, 0, 55, 95
2, 103200, Note_on_c, 0, 50, 95
2, 103200, Note_on_c, 0, 45, 95
2, 103276, Note_off_c, 0, 59, 95
2, 103276, Note_off_c, 0, 55, 95
2, 103276, Note_off_c, 0, 50, 95
2, 103276, Note_off_c, 0, 45, 95
2, 103680, Note_on_c, 0, 68, 95
2, 103680, Note_on_c, 0, 64, 95
2, 103680, Note_on_c, 0, 59, 95
2, 103680, Note_on_c, 0, 52, 95
2, 104520, Note_on_c, 1, 54, 95
2, 104640, Note_off_c, 0, 68, 95
2, 104640, Note_off_c, 0, 64, 95
2, 104640, Note_off_c, 0, 59, 95
2, 104640, Note_off_c, 0, 52, 95
2, 104640, Note_off_c, 1, 54, 95
2, 104640, Note_on_c, 1, 56, 95
2, 105120, Note_off_c, 1, 56, 95
2, 105120, Note_on_c, 0, 59, 95
2, 105600, Note_off_c, 0, 59, 95
2, 105600, Note_on_c, 0, 61, 95
2, 106080, Note_off_c, 0, 61, 95
2, 106080, Note_on_c, 0, 64, 95
2, 106560, Note_off_c, 0, 64, 95
2, 106560, Pitch_bend_c, 1, 8192
2, 106560, Note_on_c, 1, 66, 95
2, 106656, Pitch_bend_c, 1, 8320
2, 106752, Pitch_bend_c, 1, 8448
2, 106848, Pitch_bend_c, 1, 8576
2, 106944, Pitch_bend_c, 1, 8704
2, 107040, Pitch_bend_c, 1, 8832
2, 107040, Pitch_bend_c, 1, 8832
2, 107120, Pitch_bend_c, 1, 8960
2, 107200, Pitch_bend_c, 1, 9088
2, 107280, Pitch_bend_c, 1, 9216
2, 107360, Pitch_bend_c, 1, 9344
2, 107440, Pitch_bend_c, 1, 9472
2, 107520, Pitch_bend_c, 1, 9600
2, 107520, Pitch_bend_c, 1, 9600
2, 107520, Pitch_bend_c, 1, 8192
2, 107520, Note_off_c, 1, 66, 95
2, 107520, Note_on_c, 0, 71, 95
2, 108000, Note_off_c, 0, 71, 95
2, 108000, Pitch_bend_c, 1, 8192
2, 108000, Note_on_c, 1, 66, 95
2, 108048, Pitch_bend_c, 1, 8320
2, 108096, Pitch_bend_c, 1, 8448
2, 108144, Pitch_bend_c, 1, 8576
2, 108192, Pitch_bend_c, 1, 8704
2, 108240, Pitch_bend_c, 1, 8832
2, 108240, Pitch_bend_c, 1, 8832
2, 108280, Pitch_bend_c, 1, 8960
2, 108320, Pitch_bend_c, 1, 9088
2, 108360, Pitch_bend_c, 1, 9216
2, 108400, Pitch_bend_c, 1, 9344
2, 108440, Pitch_bend_c, 1, 9472
2, 108480, Pitch_bend_c, 1, 9600
2, 108480, Pitch_bend_c, 1, 9600
2, 108480, Pitch_bend_c, 1, 8192
2, 108480, Note_off_c, 1, 66, 95
2, 108480, Note_on_c, 0, 66, 95
2, 108720, Note_off_c, 0, 66, 95
2, 108720, Note_on_c, 0, 64, 95
2, 108960, Note_off_c, 0, 64, 95
2, 108960, Note_on_c, 0, 61, 95
2, 109440, Note_off_c, 0, 61, 95
2, 109440, Note_on_c, 1, 64, 95
2, 109600, Pitch_bend_c, 1, 8192
2, 109760, Pitch_bend_c, 1, 8320
2, 109920, Pitch_bend_c, 1, 8192
2, 110080, Pitch_bend_c, 1, 8320
2, 110240, Pitch_bend_c, 1, 8192
2, 110400, Pitch_bend_c, 1, 8320
2, 110560, Pitch_bend_c, 1, 8192
2, 110720, Pitch_bend_c, 1, 8320
2, 110880, Pitch_bend_c, 1, 8192
2, 110880, Pitch_bend_c, 1, 8320
2, 110880, Pitch_bend_c, 1, 8192
2, 110880, Note_off_c, 1, 64, 95
2, 111360, Note_on_c, 0, 57, 95
2, 111360, Note_on_c, 0, 52, 95
2, 111360, Note_on_c, 0, 45, 95
2, 112320, Note_off_c, 0, 57, 95
2, 112320, Note_off_c, 0, 52, 95
2, 112320, Note_off_c, 0, 45, 95
2, 112320, Note_on_c, 0, 57, 95
2, 112320, Note_on_c, 0, 52, 95
2, 112320, Note_on_c, 0, 45, 95
2, 113280, Note_off_c, 0, 57, 95
2, 113280, Note_off_c, 0, 52, 95
2, 113280, Note_off_c, 0, 45, 95
2, 113280, Note_on_c, 0, 57, 95
2, 113280, Note_on_c, 0, 52, 95
2, 113280, Note_on_c, 0, 45, 95
2, 113760, Note_off_c, 0, 57, 95
2, 113760, Note_off_c, 0, 52, 95
2, 113760, Note_off_c, 0, 45, 95
2, 113760, Note_on_c, 0, 57, 95
2, 113760, Note_on_c, 0, 52, 95
2, 113760, Note_on_c, 0, 45, 95
2, 114720, Note_off_c, 0, 57, 95
2, 114720, Note_off_c, 0, 52, 95
2, 114720, Note_off_c, 0, 45, 95
2, 114720, Note_on_c, 0, 57, 95
2, 114720, Note_on_c, 0, 52, 95
2, 114720, Note_on_c, 0, 45, 95
2, 115200, Note_off_c, 0, 57, 95
2, 115200, Note_off_c, 0, 52, 95
2, 115200, Note_off_c, 0, 45, 95
2, 115200, Pitch_bend_c, 1, 8192
2, 115200, Note_on_c, 1, 59, 95
2, 115296, Pitch_bend_c, 1, 8320
2, 115392, Pitch_bend_c, 1, 8448
2, 115488, Pitch_bend_c, 1, 8576
2, 115584, Pitch_bend_c, 1, 8704
2, 115680, Pitch_bend_c, 1, 8832
2, 115680, Pitch_bend_c, 1, 8832
2, 115760, Pitch_bend_c, 1, 8960
2, 115840, Pitch_bend_c, 1, 9088
2, 115920, Pitch_bend_c, 1, 9216
2, 116000, Pitch_bend_c, 1, 9344
2, 116080, Pitch_bend_c, 1, 9472
2, 116160, Pitch_bend_c, 1, 9600
2, 116160, Pitch_bend_c, 1, 9600
2, 116160, Pitch_bend_c, 1, 8192
2, 116160, Note_off_c, 1, 59, 95
2, 116160, Note_on_c, 0, 59, 95
2, 116400, Note_off_c, 0, 59, 95
2, 116400, Note_on_c, 0, 57, 95
2, 116640, Note_off_c, 0, 57, 95
2, 116640, Note_on_c, 0, 59, 95
2, 116880, Note_off_c, 0, 59, 95
2, 116880, Note_on_c, 0, 57, 95
2, 117120, Note_off_c, 0, 57, 95
2, 117120, Note_on_c, 0, 52, 95
2, 117360, Note_off_c, 0, 52, 95
2, 117360, Note_on_c, 0, 54, 95
2, 117600, Note_off_c, 0, 54, 95
2, 117600, Note_on_c, 0, 57, 95
2, 117840, Note_off_c, 0, 57, 95
2, 117840, Note_on_c, 0, 59, 95
2, 118080, Note_off_c, 0, 59, 95
2, 118080, Note_on_c, 0, 57, 95
2, 118560, Note_off_c, 0, 57, 95
2, 119040, Note_on_c, 0, 62, 95
2, 119040, Note_on_c, 0, 57, 95
2, 119040, Note_on_c, 0, 50, 95
2, 120000, Note_off_c, 0, 62, 95
2, 120000, Note_off_c, 0, 57, 95
2, 120000, Note_off_c, 0, 50, 95
2, 120000, Note_on_c, 0, 62, 95
2, 120000, Note_on_c, 0, 57, 95
2, 120000, Note_on_c, 0, 50, 95
2, 120960, Note_off_c, 0, 62, 95
2, 120960, Note_off_c, 0, 57, 95
2, 120960, Note_off_c, 0, 50, 95
2, 120960, Note_on_c, 0, 62, 95
2, 120960, Note_on_c, 0, 57, 95
2, 120960, Note_on_c, 0, 50, 95
2, 121440, Note_off_c, 0, 62, 95
2, 121440, Note_off_c, 0, 57, 95
2, 121440, Note_off_c, 0, 50, 95
2, 121440, Note_on_c, 0, 62, 95
2, 121440, Note_on_c, 0, 57, 95
2, 121440, Note_on_c, 0, 50, 95
2, 122400, Note_off_c, 0, 62, 95
2, 122400, Note_off_c, 0, 57, 95
2, 122400, Note_off_c, 0, 50, 95
2, 122400, Note_on_c, 0, 60, 95
2, 122400, Note_on_c, 0, 53, 95
2, 122400, Note_on_c, 0, 48, 95
2, 122880, Note_off_c, 0, 60, 95
2, 122880, Note_off_c, 0, 53, 95
2, 122880, Note_off_c, 0, 48, 95
2, 122880, Note_on_c, 0, 60, 95
2, 122880, Note_on_c, 0, 55, 95
2, 122880, Note_on_c, 0, 48, 95
2, 123360, Note_off_c, 0, 60, 95
2, 123360, Note_off_c, 0, 55, 95
2, 123360, Note_off_c, 0, 48, 95
2, 123360, Note_on_c, 0, 60, 95
2, 123360, Note_on_c, 0, 55, 95
2, 123360, Note_on_c, 0, 48, 95
2, 123840, Note_off_c, 0, 60, 95
2, 123840, Note_off_c, 0, 55, 95
2, 123840, Note_off_c, 0, 48, 95
2, 123840, Note_on_c, 0, 60, 95
2, 123840, Note_on_c, 0, 55, 95
2, 123840, Note_on_c, 0, 48, 95
2, 124320, Note_off_c, 0, 60, 95
2, 124320, Note_off_c, 0, 55, 95
2, 124320, Note_off_c, 0, 48, 95
2, 124320, Note_on_c, 0, 60, 95
2, 124320, Note_on_c, 0, 55, 95
2, 124320, Note_on_c, 0, 48, 95
2, 124800, Note_off_c, 0, 60, 95
2, 124800, Note_off_c, 0, 55, 95
2, 124800, Note_off_c, 0, 48, 95
2, 124800, Note_on_c, 0, 60, 95
2, 124800, Note_on_c, 0, 55, 95
2, 124800, Note_on_c, 0, 48, 95
2, 125280, Note_off_c, 0, 60, 95
2, 125280, Note_off_c, 0, 55, 95
2, 125280, Note_off_c, 0, 48, 95
2, 125280, Note_on_c, 0, 60, 95
2, 125280, Note_on_c, 0, 55, 95
2, 125280, Note_on_c, 0, 48, 95
2, 126240, Note_off_c, 0, 60, 95
2, 126240, Note_off_c, 0, 55, 95
2, 126240, Note_off_c, 0, 48, 95
2, 126240, Note_on_c, 0, 57, 95
2, 126240, Note_on_c, 0, 52, 95
2, 126240, Note_on_c, 0, 45, 95
2, 126720, Note_off_c, 0, 57, 95
2, 126720, Note_off_c, 0, 52, 95
2, 126720, Note_off_c, 0, 45, 95
2, 126720, Note_on_c, 0, 57, 111
2, 126720, Note_on_c, 0, 52, 111
2, 126720, Note_on_c, 0, 45, 111
2, 127200, Note_off_c, 0, 57, 111
2, 127200, Note_off_c, 0, 52, 111
2, 127200, Note_off_c, 0, 45, 111
2, 127200, Note_on_c, 0, 57, 111
2, 127200, Note_on_c, 0, 52, 111
2, 127200, Note_on_c, 0, 45, 111
2, 127680, Note_off_c, 0, 57, 111
2, 127680, Note_off_c, 0, 52, 111
2, 127680, Note_off_c, 0, 45, 111
2, 127680, Note_on_c, 0, 48, 127
2, 128160, Note_off_c, 0, 48, 127
2, 128160, Note_on_c, 0, 45, 127
2, 128640, Note_off_c, 0, 45, 127
2, 128640, Pitch_bend_c, 1, 8192
2, 128640, Note_on_c, 1, 43, 127
2, 128760, Pitch_bend_c, 1, 8320
2, 128880, Pitch_bend_c, 1, 8448
2, 128880, Pitch_bend_c, 1, 8448
2, 128960, Pitch_bend_c, 1, 8576
2, 129040, Pitch_bend_c, 1, 8704
2, 129120, Pitch_bend_c, 1, 8832
2, 129120, Pitch_bend_c, 1, 8832
2, 129120, Pitch_bend_c, 1, 8192
2, 129120, Note_off_c, 1, 43, 127
2, 129120, Note_on_c, 0, 57, 111
2, 129120, Note_on_c, 0, 52, 111
2, 129120, Note_on_c, 0, 45, 111
2, 130080, Note_off_c, 0, 57, 111
2, 130080, Note_off_c, 0, 52, 111
2, 130080, Note_off_c, 0, 45, 111
2, 130080, Note_on_c, 0, 57, 111
2, 130080, Note_on_c, 0, 52, 111
2, 130080, Note_on_c, 0, 45, 111
2, 130560, Note_off_c, 0, 57, 111
2, 130560, Note_off_c, 0, 52, 111
2, 130560, Note_off_c, 0, 45, 111
2, 130560, Note_on_c, 0, 57, 111
2, 130560, Note_on_c, 0, 52, 111
2, 130560, Note_on_c, 0, 45, 111
2, 131040, Note_off_c, 0, 57, 111
2, 131040, Note_off_c, 0, 52, 111
2, 131040, Note_off_c, 0, 45, 111
2, 131040, Note_on_c, 0, 57, 111
2, 131040, Note_on_c, 0, 52, 111
2, 131040, Note_on_c, 0, 45, 111
2, 131520, Note_off_c, 0, 57, 111
2, 131520, Note_off_c, 0, 52, 111
2, 131520, Note_off_c, 0, 45, 111
2, 131520, Note_on_c, 0, 48, 127
2, 132000, Note_off_c, 0, 48, 127
2, 132000, Note_on_c, 0, 45, 127
2, 132480, Note_off_c, 0, 45, 127
2, 132480, Pitch_bend_c, 1, 8192
2, 132480, Note_on_c, 1, 43, 127
2, 132600, Pitch_bend_c, 1, 8320
2, 132720, Pitch_bend_c, 1, 8448
2, 132720, Pitch_bend_c, 1, 8448
2, 132800, Pitch_bend_c, 1, 8576
2, 132880, Pitch_bend_c, 1, 8704
2, 132960, Pitch_bend_c, 1, 8832
2, 132960, Pitch_bend_c, 1, 8832
2, 132960, Pitch_bend_c, 1, 8192
2, 132960, Note_off_c, 1, 43, 127
2, 132960, Note_on_c, 0, 57, 111
2, 132960, Note_on_c, 0, 52, 111
2, 132960, Note_on_c, 0, 45, 111
2, 133920, Note_off_c, 0, 57, 111
2, 133920, Note_off_c, 0, 52, 111
2, 133920, Note_off_c, 0, 45, 111
2, 133920, Note_on_c, 0, 57, 95
2, 133920, Note_on_c, 0, 52, 95
2, 133920, Note_on_c, 0, 45, 95
2, 133996, Note_off_c, 0, 57, 95
2, 133996, Note_off_c, 0, 52, 95
2, 133996, Note_off_c, 0, 45, 95
2, 134400, Note_on_c, 0, 62, 95
2, 134400, Note_on_c, 0, 57, 95
2, 134400, Note_on_c, 0, 50, 95
2, 135360, Note_off_c, 0, 62, 95
2, 135360, Note_off_c, 0, 57, 95
2, 135360, Note_off_c, 0, 50, 95
2, 135360, Note_on_c, 0, 62, 95
2, 135360, Note_on_c, 0, 57, 95
2, 135360, Note_on_c, 0, 50, 95
2, 136320, Note_off_c, 0, 62, 95
2, 136320, Note_off_c, 0, 57, 95
2, 136320, Note_off_c, 0, 50, 95
2, 136320, Note_on_c, 0, 62, 95
2, 136320, Note_on_c, 0, 57, 95
2, 136320, Note_on_c, 0, 50, 95
2, 136800, Note_off_c, 0, 62, 95
2, 136800, Note_off_c, 0, 57, 95
2, 136800, Note_off_c, 0, 50, 95
2, 136800, Note_on_c, 0, 62, 95
2, 136800, Note_on_c, 0, 57, 95
2, 136800, Note_on_c, 0, 50, 95
2, 137760, Note_off_c, 0, 62, 95
2, 137760, Note_off_c, 0, 57, 95
2, 137760, Note_off_c, 0, 50, 95
2, 137760, Note_on_c, 0, 60, 95
2, 137760, Note_on_c, 0, 53, 95
2, 137760, Note_on_c, 0, 48, 95
2, 138240, Note_off_c, 0, 60, 95
2, 138240, Note_off_c, 0, 53, 95
2, 138240, Note_off_c, 0, 48, 95
2, 138240, Note_on_c, 0, 60, 95
2, 138240, Note_on_c, 0, 55, 95
2, 138240, Note_on_c, 0, 48, 95
2, 138720, Note_off_c, 0, 60, 95
2, 138720, Note_off_c, 0, 55, 95
2, 138720, Note_off_c, 0, 48, 95
2, 138720, Note_on_c, 0, 60, 95
2, 138720, Note_on_c, 0, 55, 95
2, 138720, Note_on_c, 0, 48, 95
2, 139200, Note_off_c, 0, 60, 95
2, 139200, Note_off_c, 0, 55, 95
2, 139200, Note_off_c, 0, 48, 95
2, 139200, Note_on_c, 0, 60, 95
2, 139200, Note_on_c, 0, 55, 95
2, 139200, Note_on_c, 0, 48, 95
2, 139680, Note_off_c, 0, 60, 95
2, 139680, Note_off_c, 0, 55, 95
2, 139680, Note_off_c, 0, 48, 95
2, 139680, Note_on_c, 0, 60, 95
2, 139680, Note_on_c, 0, 55, 95
2, 139680, Note_on_c, 0, 48, 95
2, 140160, Note_off_c, 0, 60, 95
2, 140160, Note_off_c, 0, 55, 95
2, 140160, Note_off_c, 0, 48, 95
2, 140160, Note_on_c, 0, 60, 95
2, 140160, Note_on_c, 0, 55, 95
2, 140160, Note_on_c, 0, 48, 95
2, 140640, Note_off_c, 0, 60, 95
2, 140640, Note_off_c, 0, 55, 95
2, 140640, Note_off_c, 0, 48, 95
2, 140640, Note_on_c, 0, 60, 95
2, 140640, Note_on_c, 0, 55, 95
2, 140640, Note_on_c, 0, 48, 95
2, 141600, Note_off_c, 0, 60, 95
2, 141600, Note_off_c, 0, 55, 95
2, 141600, Note_off_c, 0, 48, 95
2, 141600, Note_on_c, 0, 57, 95
2, 141600, Note_on_c, 0, 52, 95
2, 141600, Note_on_c, 0, 45, 95
2, 142080, Note_off_c, 0, 57, 95
2, 142080, Note_off_c, 0, 52, 95
2, 142080, Note_off_c, 0, 45, 95
2, 142080, Note_on_c, 0, 57, 111
2, 142080, Note_on_c, 0, 52, 111
2, 142080, Note_on_c, 0, 45, 111
2, 142560, Note_off_c, 0, 57, 111
2, 142560, Note_off_c, 0, 52, 111
2, 142560, Note_off_c, 0, 45, 111
2, 142560, Note_on_c, 0, 57, 111
2, 142560, Note_on_c, 0, 52, 111
2, 142560, Note_on_c, 0, 45, 111
2, 143040, Note_off_c, 0, 57, 111
2, 143040, Note_off_c, 0, 52, 111
2, 143040, Note_off_c, 0, 45, 111
2, 143040, Note_on_c, 0, 48, 127
2, 143520, Note_off_c, 0, 48, 127
2, 143520, Note_on_c, 0, 45, 127
2, 144000, Note_off_c, 0, 45, 127
2, 144000, Pitch_bend_c, 1, 8192
2, 144000, Note_on_c, 1, 43, 127
2, 144120, Pitch_bend_c, 1, 8320
2, 144240, Pitch_bend_c, 1, 8448
2, 144240, Pitch_bend_c, 1, 8448
2, 144320, Pitch_bend_c, 1, 8576
2, 144400, Pitch_bend_c, 1, 8704
2, 144480, Pitch_bend_c, 1, 8832
2, 144480, Pitch_bend_c, 1, 8832
2, 144480, Pitch_bend_c, 1, 8192
2, 144480, Note_off_c, 1, 43, 127
2, 144480, Note_on_c, 0, 57, 111
2, 144480, Note_on_c, 0, 52, 111
2, 144480, Note_on_c, 0, 45, 111
2, 145440, Note_off_c, 0, 57, 111
2, 145440, Note_off_c, 0, 52, 111
2, 145440, Note_off_c, 0, 45, 111
2, 145440, Note_on_c, 0, 57, 111
2, 145440, Note_on_c, 0, 52, 111
2, 145440, Note_on_c, 0, 45, 111
2, 145920, Note_off_c, 0, 57, 111
2, 145920, Note_off_c, 0, 52, 111
2, 145920, Note_off_c, 0, 45, 111
2, 145920, Note_on_c, 0, 57, 111
2, 145920, Note_on_c, 0, 52, 111
2, 145920, Note_on_c, 0, 45, 111
2, 146400, Note_off_c, 0, 57, 111
2, 146400, Note_off_c, 0, 52, 111
2, 146400, Note_off_c, 0, 45, 111
2, 146400, Note_on_c, 0, 57, 111
2, 146400, Note_on_c, 0, 52, 111
2, 146400, Note_on_c, 0, 45, 111
2, 146880, Note_off_c, 0, 57, 111
2, 146880, Note_off_c, 0, 52, 111
2, 146880, Note_off_c, 0, 45, 111
2, 146880, Note_on_c, 0, 48, 127
2, 147360, Note_off_c, 0, 48, 127
2, 147360, Note_on_c, 0, 45, 127
2, 147840, Note_off_c, 0, 45, 127
2, 147840, Pitch_bend_c, 1, 8192
2, 147840, Note_on_c, 1, 43, 127
2, 147960, Pitch_bend_c, 1, 8320
2, 148080, Pitch_bend_c, 1, 8448
2, 148080, Pitch_bend_c, 1, 8448
2, 148160, Pitch_bend_c, 1, 8576
2, 148240, Pitch_bend_c, 1, 8704
2, 148320, Pitch_bend_c, 1, 8832
2, 148320, Pitch_bend_c, 1, 8832
2, 148320, Pitch_bend_c, 1, 8192
2, 148320, Note_off_c, 1, 43, 127
2, 148320, Note_on_c, 0, 57, 111
2, 148320, Note_on_c, 0, 52, 111
2, 148320, Note_on_c, 0, 45, 111
2, 149280, Note_off_c, 0, 57, 111
2, 149280, Note_off_c, 0, 52, 111
2, 149280, Note_off_c, 0, 45, 111
2, 149280, Note_on_c, 0, 57, 95
2, 149280, Note_on_c, 0, 52, 95
2, 149280, Note_on_c, 0, 45, 95
2, 149356, Note_off_c, 0, 57, 95
2, 149356, Note_off_c, 0, 52, 95
2, 149356, Note_off_c, 0, 45, 95
2, 149760, Note_on_c, 0, 61, 95
2, 149760, Note_on_c, 0, 57, 95
2, 149760, Note_on_c, 0, 52, 95
2, 149760, Note_on_c, 0, 45, 95
2, 150720, Note_off_c, 0, 61, 95
2, 150720, Note_off_c, 0, 57, 95
2, 150720, Note_off_c, 0, 52, 95
2, 150720, Note_off_c, 0, 45, 95
2, 150720, Note_on_c, 0, 61, 95
2, 150720, Note_on_c, 0, 57, 95
2, 150720, Note_on_c, 0, 52, 95
2, 150720, Note_on_c, 0, 45, 95
2, 152160, Note_off_c, 0, 61, 95
2, 152160, Note_off_c, 0, 57, 95
2, 152160, Note_off_c, 0, 52, 95
2, 152160, Note_off_c, 0, 45, 95
2, 152160, Note_on_c, 0, 61, 95
2, 152160, Note_on_c, 0, 57, 95
2, 152160, Note_on_c, 0, 52, 95
2, 152160, Note_on_c, 0, 45, 95
2, 153120, Note_off_c, 0, 61, 95
2, 153120, Note_off_c, 0, 57, 95
2, 153120, Note_off_c, 0, 52, 95
2, 153120, Note_off_c, 0, 45, 95
2, 153120, Note_on_c, 0, 52, 95
2, 153120, Note_on_c, 0, 45, 95
2, 153600, Note_off_c, 0, 52, 95
2, 153600, Note_off_c, 0, 45, 95
2, 153600, Note_on_c, 0, 57, 95
2, 153600, Note_on_c, 0, 52, 95
2, 153600, Note_on_c, 0, 45, 95
2, 154560, Note_off_c, 0, 57, 95
2, 154560, Note_off_c, 0, 52, 95
2, 154560, Note_off_c, 0, 45, 95
2, 154560, Note_on_c, 0, 55, 95
2, 154560, Note_on_c, 0, 50, 95
2, 154560, Note_on_c, 0, 45, 95
2, 154636, Note_off_c, 0, 55, 95
2, 154636, Note_off_c, 0, 50, 95
2, 154636, Note_off_c, 0, 45, 95
2, 155040, Note_on_c, 0, 50, 95
2, 155040, Note_on_c, 0, 45, 95
2, 155040, Note_on_c, 0, 43, 95
2, 155116, Note_off_c, 0, 45, 95
2, 155520, Note_off_c, 0, 50, 95
2, 155520, Note_off_c, 0, 43, 95
2, 155520, Note_on_c, 0, 67, 95
2, 155520, Note_on_c, 0, 59, 95
2, 155520, Note_on_c, 0, 55, 95
2, 155520, Note_on_c, 0, 50, 95
2, 155520, Note_on_c, 0, 48, 95
2, 155520, Note_on_c, 0, 43, 95
2, 155596, Note_off_c, 0, 48, 95
2, 156960, Note_off_c, 0, 67, 95
2, 156960, Note_off_c, 0, 59, 95
2, 156960, Note_off_c, 0, 55, 95
2, 156960, Note_off_c, 0, 50, 95
2, 156960, Note_off_c, 0, 43, 95
2, 156960, Note_on_c, 0, 64, 95
2, 156960, Note_on_c, 0, 59, 95
2, 156960, Note_on_c, 0, 55, 95
2, 156960, Note_on_c, 0, 50, 95
2, 157036, Note_off_c, 0, 64, 95
2, 157036, Note_off_c, 0, 59, 95
2, 157036, Note_off_c, 0, 55, 95
2, 157036, Note_off_c, 0, 50, 95
2, 157440, Note_on_c, 0, 66, 95
2, 157440, Note_on_c, 0, 62, 95
2, 157440, Note_on_c, 0, 57, 95
2, 157440, Note_on_c, 0, 50, 95
2, 158400, Note_off_c, 0, 66, 95
2, 158400, Note_off_c, 0, 62, 95
2, 158400, Note_off_c, 0, 57, 95
2, 158400, Note_off_c, 0, 50, 95
2, 158400, Note_on_c, 0, 64, 95
2, 158400, Note_on_c, 0, 59, 95
2, 158400, Note_on_c, 0, 55, 95
2, 158400, Note_on_c, 0, 50, 95
2, 158476, Note_off_c, 0, 64, 95
2, 158476, Note_off_c, 0, 59, 95
2, 158476, Note_off_c, 0, 55, 95
2, 158476, Note_off_c, 0, 50, 95
2, 158880, Note_on_c, 0, 57, 95
2, 158880, Note_on_c, 0, 52, 95
2, 158880, Note_on_c, 0, 45, 95
2, 159840, Note_off_c, 0, 57, 95
2, 159840, Note_off_c, 0, 52, 95
2, 159840, Note_off_c, 0, 45, 95
2, 159840, Note_on_c, 0, 57, 95
2, 159840, Note_on_c, 0, 52, 95
2, 159840, Note_on_c, 0, 45, 95
2, 160320, Note_off_c, 0, 57, 95
2, 160320, Note_off_c, 0, 52, 95
2, 160320, Note_off_c, 0, 45, 95
2, 160320, Note_on_c, 0, 57, 95
2, 160320, Note_on_c, 0, 52, 95
2, 160320, Note_on_c, 0, 45, 95
2, 160800, Note_off_c, 0, 57, 95
2, 160800, Note_off_c, 0, 52, 95
2, 160800, Note_off_c, 0, 45, 95
2, 160800, Note_on_c, 0, 55, 95
2, 160800, Note_on_c, 0, 50, 95
2, 160876, Note_off_c, 0, 55, 95
2, 160876, Note_off_c, 0, 50, 95
2, 161280, Note_on_c, 0, 67, 95
2, 161280, Note_on_c, 0, 59, 95
2, 161280, Note_on_c, 0, 55, 95
2, 161280, Note_on_c, 0, 50, 95
2, 161280, Note_on_c, 0, 45, 95
2, 161280, Note_on_c, 0, 43, 95
2, 161356, Note_off_c, 0, 45, 95
2, 163200, Note_off_c, 0, 67, 95
2, 163200, Note_off_c, 0, 59, 95
2, 163200, Note_off_c, 0, 55, 95
2, 163200, Note_off_c, 0, 50, 95
2, 163200, Note_off_c, 0, 43, 95
2, 163200, Note_on_c, 0, 67, 95
2, 163200, Note_on_c, 0, 59, 95
2, 163200, Note_on_c, 0, 55, 95
2, 163200, Note_on_c, 0, 50, 95
2, 163200, Note_on_c, 0, 45, 95
2, 163200, Note_on_c, 0, 43, 95
2, 163276, Note_off_c, 0, 45, 95
2, 163680, Note_off_c, 0, 67, 95
2, 163680, Note_off_c, 0, 59, 95
2, 163680, Note_off_c, 0, 55, 95
2, 163680, Note_off_c, 0, 50, 95
2, 163680, Note_off_c, 0, 43, 95
2, 163680, Note_on_c, 0, 67, 95
2, 163680, Note_on_c, 0, 59, 95
2, 163680, Note_on_c, 0, 55, 95
2, 163680, Note_on_c, 0, 50, 95
2, 163680, Note_on_c, 0, 45, 95
2, 163680, Note_on_c, 0, 43, 95
2, 163756, Note_off_c, 0, 45, 95
2, 164640, Note_off_c, 0, 67, 95
2, 164640, Note_off_c, 0, 59, 95
2, 164640, Note_off_c, 0, 55, 95
2, 164640, Note_off_c, 0, 50, 95
2, 164640, Note_off_c, 0, 43, 95
2, 164640, Note_on_c, 0, 64, 95
2, 164640, Note_on_c, 0, 59, 95
2, 164640, Note_on_c, 0, 55, 95
2, 164640, Note_on_c, 0, 50, 95
2, 164716, Note_off_c, 0, 64, 95
2, 164716, Note_off_c, 0, 59, 95
2, 164716, Note_off_c, 0, 55, 95
2, 164716, Note_off_c, 0, 50, 95
2, 165120, Note_on_c, 0, 68, 95
2, 165120, Note_on_c, 0, 64, 95
2, 165120, Note_on_c, 0, 59, 95
2, 165120, Note_on_c, 0, 52, 95
2, 165600, Note_off_c, 0, 68, 95
2, 165600, Note_off_c, 0, 64, 95
2, 165600, Note_off_c, 0, 59, 95
2, 165600, Note_off_c, 0, 52, 95
2, 165600, Note_on_c, 0, 68, 95
2, 165600, Note_on_c, 0, 64, 95
2, 165600, Note_on_c, 0, 59, 95
2, 165600, Note_on_c, 0, 52, 95
2, 166080, Note_off_c, 0, 68, 95
2, 166080, Note_off_c, 0, 64, 95
2, 166080, Note_off_c, 0, 59, 95
2, 166080, Note_off_c, 0, 52, 95
2, 166080, Note_on_c, 0, 68, 95
2, 166080, Note_on_c, 0, 64, 95
2, 166080, Note_on_c, 0, 59, 95
2, 166080, Note_on_c, 0, 52, 95
2, 167040, Note_off_c, 0, 68, 95
2, 167040, Note_off_c, 0, 64, 95
2, 167040, Note_off_c, 0, 59, 95
2, 167040, Note_off_c, 0, 52, 95
2, 167040, Note_on_c, 0, 68, 95
2, 167040, Note_on_c, 0, 64, 95
2, 167040, Note_on_c, 0, 59, 95
2, 167040, Note_on_c, 0, 52, 95
2, 167520, Note_off_c, 0, 68, 95
2, 167520, Note_off_c, 0, 64, 95
2, 167520, Note_off_c, 0, 59, 95
2, 167520, Note_off_c, 0, 52, 95
2, 167520, Note_on_c, 0, 68, 95
2, 167520, Note_on_c, 0, 64, 95
2, 167520, Note_on_c, 0, 59, 95
2, 167520, Note_on_c, 0, 52, 95
2, 168000, Note_off_c, 0, 68, 95
2, 168000, Note_off_c, 0, 64, 95
2, 168000, Note_off_c, 0, 59, 95
2, 168000, Note_off_c, 0, 52, 95
2, 168000, Note_on_c, 0, 68, 95
2, 168000, Note_on_c, 0, 64, 95
2, 168000, Note_on_c, 0, 59, 95
2, 168000, Note_on_c, 0, 52, 95
2, 168480, Note_off_c, 0, 68, 95
2, 168480, Note_off_c, 0, 64, 95
2, 168480, Note_off_c, 0, 59, 95
2, 168480, Note_off_c, 0, 52, 95
2, 168480, Note_on_c, 0, 59, 95
2, 168480, Note_on_c, 0, 55, 95
2, 168480, Note_on_c, 0, 50, 95
2, 168480, Note_on_c, 0, 45, 95
2, 168556, Note_off_c, 0, 59, 95
2, 168556, Note_off_c, 0, 55, 95
2, 168556, Note_off_c, 0, 50, 95
2, 168556, Note_off_c, 0, 45, 95
2, 168960, Note_on_c, 0, 57, 95
2, 168960, Note_on_c, 0, 52, 95
2, 168960, Note_on_c, 0, 45, 95
2, 169920, Note_off_c, 0, 57, 95
2, 169920, Note_off_c, 0, 52, 95
2, 169920, Note_off_c, 0, 45, 95
2, 169920, Note_on_c, 0, 55, 95
2, 169920, Note_on_c, 0, 50, 95
2, 169920, Note_on_c, 0, 45, 95
2, 169996, Note_off_c, 0, 55, 95
2, 169996, Note_off_c, 0, 50, 95
2, 169996, Note_off_c, 0, 45, 95
2, 170400, Note_on_c, 0, 50, 95
2, 170400, Note_on_c, 0, 45, 95
2, 170400, Note_on_c, 0, 43, 95
2, 170476, Note_off_c, 0, 45, 95
2, 170880, Note_off_c, 0, 50, 95
2, 170880, Note_off_c, 0, 43, 95
2, 170880, Note_on_c, 0, 67, 95
2, 170880, Note_on_c, 0, 59, 95
2, 170880, Note_on_c, 0, 55, 95
2, 170880, Note_on_c, 0, 50, 95
2, 170880, Note_on_c, 0, 48, 95
2, 170880, Note_on_c, 0, 43, 95
2, 170956, Note_off_c, 0, 48, 95
2, 172320, Note_off_c, 0, 67, 95
2, 172320, Note_off_c, 0, 59, 95
2, 172320, Note_off_c, 0, 55, 95
2, 172320, Note_off_c, 0, 50, 95
2, 172320, Note_off_c, 0, 43, 95
2, 172320, Note_on_c, 0, 64, 95
2, 172320, Note_on_c, 0, 59, 95
2, 172320, Note_on_c, 0, 55, 95
2, 172320, Note_on_c, 0, 50, 95
2, 172396, Note_off_c, 0, 64, 95
2, 172396, Note_off_c, 0, 59, 95
2, 172396, Note_off_c, 0, 55, 95
2, 172396, Note_off_c, 0, 50, 95
2, 172800, Note_on_c, 0, 66, 95
2, 172800, Note_on_c, 0, 62, 95
2, 172800, Note_on_c, 0, 57, 95
2, 172800, Note_on_c, 0, 50, 95
2, 173760, Note_off_c, 0, 66, 95
2, 173760, Note_off_c, 0, 62, 95
2, 173760, Note_off_c, 0, 57, 95
2, 173760, Note_off_c, 0, 50, 95
2, 173760, Note_on_c, 0, 64, 95
2, 173760, Note_on_c, 0, 59, 95
2, 173760, Note_on_c, 0, 55, 95
2, 173760, Note_on_c, 0, 50, 95
2, 173836, Note_off_c, 0, 64, 95
2, 173836, Note_off_c, 0, 59, 95
2, 173836, Note_off_c, 0, 55, 95
2, 173836, Note_off_c, 0, 50, 95
2, 174240, Note_on_c, 0, 57, 95
2, 174240, Note_on_c, 0, 52, 95
2, 174240, Note_on_c, 0, 45, 95
2, 175200, Note_off_c, 0, 57, 95
2, 175200, Note_off_c, 0, 52, 95
2, 175200, Note_off_c, 0, 45, 95
2, 175200, Note_on_c, 0, 57, 95
2, 175200, Note_on_c, 0, 52, 95
2, 175200, Note_on_c, 0, 45, 95
2, 175680, Note_off_c, 0, 57, 95
2, 175680, Note_off_c, 0, 52, 95
2, 175680, Note_off_c, 0, 45, 95
2, 175680, Note_on_c, 0, 57, 95
2, 175680, Note_on_c, 0, 52, 95
2, 175680, Note_on_c, 0, 45, 95
2, 176160, Note_off_c, 0, 57, 95
2, 176160, Note_off_c, 0, 52, 95
2, 176160, Note_off_c, 0, 45, 95
2, 176160, Note_on_c, 0, 55, 95
2, 176160, Note_on_c, 0, 50, 95
2, 176160, Note_on_c, 0, 45, 95
2, 176236, Note_off_c, 0, 55, 95
2, 176236, Note_off_c, 0, 50, 95
2, 176236, Note_off_c, 0, 45, 95
2, 176640, Note_on_c, 0, 67, 95
2, 176640, Note_on_c, 0, 59, 95
2, 176640, Note_on_c, 0, 55, 95
2, 176640, Note_on_c, 0, 50, 95
2, 176640, Note_on_c, 0, 45, 95
2, 176640, Note_on_c, 0, 43, 95
2, 176716, Note_off_c, 0, 45, 95
2, 177600, Note_off_c, 0, 67, 95
2, 177600, Note_off_c, 0, 59, 95
2, 177600, Note_off_c, 0, 55, 95
2, 177600, Note_off_c, 0, 50, 95
2, 177600, Note_off_c, 0, 43, 95
2, 177600, Note_on_c, 0, 67, 95
2, 177600, Note_on_c, 0, 59, 95
2, 177600, Note_on_c, 0, 55, 95
2, 177600, Note_on_c, 0, 50, 95
2, 177600, Note_on_c, 0, 45, 95
2, 177600, Note_on_c, 0, 43, 95
2, 177676, Note_off_c, 0, 45, 95
2, 178560, Note_off_c, 0, 67, 95
2, 178560, Note_off_c, 0, 59, 95
2, 178560, Note_off_c, 0, 55, 95
2, 178560, Note_off_c, 0, 50, 95
2, 178560, Note_off_c, 0, 43, 95
2, 178560, Note_on_c, 0, 67, 95
2, 178560, Note_on_c, 0, 59, 95
2, 178560, Note_on_c, 0, 55, 95
2, 178560, Note_on_c, 0, 50, 95
2, 178560, Note_on_c, 0, 45, 95
2, 178560, Note_on_c, 0, 43, 95
2, 178636, Note_off_c, 0, 45, 95
2, 179040, Note_off_c, 0, 67, 95
2, 179040, Note_off_c, 0, 59, 95
2, 179040, Note_off_c, 0, 55, 95
2, 179040, Note_off_c, 0, 50, 95
2, 179040, Note_off_c, 0, 43, 95
2, 179040, Note_on_c, 0, 67, 95
2, 179040, Note_on_c, 0, 59, 95
2, 179040, Note_on_c, 0, 55, 95
2, 179040, Note_on_c, 0, 50, 95
2, 179040, Note_on_c, 0, 45, 95
2, 179040, Note_on_c, 0, 43, 95
2, 179116, Note_off_c, 0, 45, 95
2, 180000, Note_off_c, 0, 67, 95
2, 180000, Note_off_c, 0, 59, 95
2, 180000, Note_off_c, 0, 55, 95
2, 180000, Note_off_c, 0, 50, 95
2, 180000, Note_off_c, 0, 43, 95
2, 180000, Note_on_c, 0, 59, 95
2, 180000, Note_on_c, 0, 55, 95
2, 180000, Note_on_c, 0, 50, 95
2, 180000, Note_on_c, 0, 45, 95
2, 180076, Note_off_c, 0, 59, 95
2, 180076, Note_off_c, 0, 55, 95
2, 180076, Note_off_c, 0, 50, 95
2, 180076, Note_off_c, 0, 45, 95
2, 180480, Pitch_bend_c, 1, 8192
2, 180480, Note_on_c, 1, 66, 111
2, 180504, Pitch_bend_c, 1, 8320
2, 180528, Pitch_bend_c, 1, 8448
2, 180552, Pitch_bend_c, 1, 8576
2, 180576, Pitch_bend_c, 1, 8704
2, 180600, Pitch_bend_c, 1, 8832
2, 180600, Pitch_bend_c, 1, 8832
2, 180620, Pitch_bend_c, 1, 8960
2, 180640, Pitch_bend_c, 1, 9088
2, 180660, Pitch_bend_c, 1, 9216
2, 180680, Pitch_bend_c, 1, 9344
2, 180700, Pitch_bend_c, 1, 9472
2, 180720, Pitch_bend_c, 1, 9600
2, 180720, Pitch_bend_c, 1, 9600
2, 180733, Pitch_bend_c, 1, 9472
2, 180746, Pitch_bend_c, 1, 9344
2, 180759, Pitch_bend_c, 1, 9216
2, 180772, Pitch_bend_c, 1, 9088
2, 180785, Pitch_bend_c, 1, 8960
2, 180798, Pitch_bend_c, 1, 8832
2, 180811, Pitch_bend_c, 1, 8704
2, 180824, Pitch_bend_c, 1, 8576
2, 180837, Pitch_bend_c, 1, 8448
2, 180840, Pitch_bend_c, 1, 8448
2, 180900, Pitch_bend_c, 1, 8320
2, 180960, Pitch_bend_c, 1, 8192
2, 180960, Pitch_bend_c, 1, 8192
2, 180960, Pitch_bend_c, 1, 8192
2, 180960, Note_off_c, 1, 66, 111
2, 180960, Note_on_c, 0, 66, 111
2, 181440, Note_off_c, 0, 66, 111
2, 181440, Note_on_c, 0, 64, 111
2, 181920, Note_off_c, 0, 64, 111
2, 181920, Pitch_bend_c, 1, 8192
2, 181920, Note_on_c, 1, 66, 127
2, 181930, Pitch_bend_c, 1, 8320
2, 181940, Pitch_bend_c, 1, 8448
2, 181950, Pitch_bend_c, 1, 8576
2, 181960, Pitch_bend_c, 1, 8704
2, 181970, Pitch_bend_c, 1, 8832
2, 181980, Pitch_bend_c, 1, 8960
2, 181990, Pitch_bend_c, 1, 9088
2, 182000, Pitch_bend_c, 1, 9216
2, 182010, Pitch_bend_c, 1, 9344
2, 182020, Pitch_bend_c, 1, 9472
2, 182030, Pitch_bend_c, 1, 9600
2, 182040, Pitch_bend_c, 1, 9600
2, 182160, Pitch_bend_c, 1, 9600
2, 182320, Pitch_bend_c, 1, 9600
2, 182326, Pitch_bend_c, 1, 9472
2, 182332, Pitch_bend_c, 1, 9344
2, 182338, Pitch_bend_c, 1, 9216
2, 182344, Pitch_bend_c, 1, 9088
2, 182350, Pitch_bend_c, 1, 8960
2, 182356, Pitch_bend_c, 1, 8832
2, 182360, Pitch_bend_c, 1, 8832
2, 182368, Pitch_bend_c, 1, 8704
2, 182376, Pitch_bend_c, 1, 8576
2, 182384, Pitch_bend_c, 1, 8448
2, 182392, Pitch_bend_c, 1, 8320
2, 182400, Pitch_bend_c, 1, 8192
2, 182400, Pitch_bend_c, 1, 8192
2, 182400, Pitch_bend_c, 1, 8192
2, 182400, Note_off_c, 1, 66, 127
2, 182880, Note_on_c, 0, 71, 111
2, 183360, Note_off_c, 0, 71, 111
2, 184320, Note_on_c, 1, 64, 111
2, 184480, Pitch_bend_c, 1, 8192
2, 184640, Pitch_bend_c, 1, 8320
2, 184800, Pitch_bend_c, 1, 8192
2, 184960, Pitch_bend_c, 1, 8320
2, 185120, Pitch_bend_c, 1, 8192
2, 185280, Pitch_bend_c, 1, 8320
2, 185440, Pitch_bend_c, 1, 8192
2, 185600, Pitch_bend_c, 1, 8320
2, 185760, Pitch_bend_c, 1, 8192
2, 185920, Pitch_bend_c, 1, 8320
2, 186080, Pitch_bend_c, 1, 8192
2, 186240, Pitch_bend_c, 1, 8320
2, 186400, Pitch_bend_c, 1, 8192
2, 186560, Pitch_bend_c, 1, 8320
2, 186720, Pitch_bend_c, 1, 8192
2, 186880, Pitch_bend_c, 1, 8320
2, 187040, Pitch_bend_c, 1, 8192
2, 187200, Pitch_bend_c, 1, 8320
2, 187200, Pitch_bend_c, 1, 8192
2, 187200, Note_off_c, 1, 64, 111
2, 191040, Pitch_bend_c, 1, 8192
2, 191040, Note_on_c, 1, 59, 111
2, 191136, Pitch_bend_c, 1, 8320
2, 191232, Pitch_bend_c, 1, 8448
2, 191328, Pitch_bend_c, 1, 8576
2, 191424, Pitch_bend_c, 1, 8704
2, 191520, Pitch_bend_c, 1, 8832
2, 191520, Pitch_bend_c, 1, 8832
2, 192000, Pitch_bend_c, 1, 8832
2, 192480, Pitch_bend_c, 1, 8832
2, 192576, Pitch_bend_c, 1, 8704
2, 192672, Pitch_bend_c, 1, 8576
2, 192768, Pitch_bend_c, 1, 8448
2, 192864, Pitch_bend_c, 1, 8320
2, 192960, Pitch_bend_c, 1, 8192
2, 192960, Pitch_bend_c, 1, 8192
2, 192960, Pitch_bend_c, 1, 8192
2, 192960, Note_off_c, 1, 59, 111
2, 192960, Note_on_c, 0, 61, 111
2, 193200, Note_off_c, 0, 61, 111
2, 193200, Note_on_c, 0, 62, 111
2, 193440, Note_off_c, 0, 62, 111
2, 193440, Note_on_c, 0, 64, 111
2, 193680, Note_off_c, 0, 64, 111
2, 193680, Note_on_c, 0, 61, 111
2, 193920, Note_off_c, 0, 61, 111
2, 193920, Note_on_c, 0, 62, 111
2, 194160, Note_off_c, 0, 62, 111
2, 194160, Note_on_c, 0, 61, 111
2, 194400, Note_off_c, 0, 61, 111
2, 194400, Note_on_c, 0, 59, 111
2, 194640, Note_off_c, 0, 59, 111
2, 194640, Note_on_c, 0, 57, 111
2, 194880, Note_off_c, 0, 57, 111
2, 194880, Note_on_c, 0, 55, 111
2, 195360, Note_off_c, 0, 55, 111
2, 195840, Note_on_c, 0, 62, 95
2, 195840, Note_on_c, 0, 57, 95
2, 195840, Note_on_c, 0, 50, 95
2, 196800, Note_off_c, 0, 62, 95
2, 196800, Note_off_c, 0, 57, 95
2, 196800, Note_off_c, 0, 50, 95
2, 196800, Note_on_c, 0, 62, 95
2, 196800, Note_on_c, 0, 57, 95
2, 196800, Note_on_c, 0, 50, 95
2, 197760, Note_off_c, 0, 62, 95
2, 197760, Note_off_c, 0, 57, 95
2, 197760, Note_off_c, 0, 50, 95
2, 197760, Note_on_c, 0, 62, 95
2, 197760, Note_on_c, 0, 57, 95
2, 197760, Note_on_c, 0, 50, 95
2, 198240, Note_off_c, 0, 62, 95
2, 198240, Note_off_c, 0, 57, 95
2, 198240, Note_off_c, 0, 50, 95
2, 198240, Note_on_c, 0, 62, 95
2, 198240, Note_on_c, 0, 57, 95
2, 198240, Note_on_c, 0, 50, 95
2, 199200, Note_off_c, 0, 62, 95
2, 199200, Note_off_c, 0, 57, 95
2, 199200, Note_off_c, 0, 50, 95
2, 199200, Note_on_c, 0, 60, 95
2, 199200, Note_on_c, 0, 53, 95
2, 199200, Note_on_c, 0, 48, 95
2, 199680, Note_off_c, 0, 60, 95
2, 199680, Note_off_c, 0, 53, 95
2, 199680, Note_off_c, 0, 48, 95
2, 199680, Note_on_c, 0, 60, 95
2, 199680, Note_on_c, 0, 55, 95
2, 199680, Note_on_c, 0, 48, 95
2, 200160, Note_off_c, 0, 60, 95
2, 200160, Note_off_c, 0, 55, 95
2, 200160, Note_off_c, 0, 48, 95
2, 200160, Note_on_c, 0, 60, 95
2, 200160, Note_on_c, 0, 55, 95
2, 200160, Note_on_c, 0, 48, 95
2, 200640, Note_off_c, 0, 60, 95
2, 200640, Note_off_c, 0, 55, 95
2, 200640, Note_off_c, 0, 48, 95
2, 200640, Note_on_c, 0, 60, 95
2, 200640, Note_on_c, 0, 55, 95
2, 200640, Note_on_c, 0, 48, 95
2, 201120, Note_off_c, 0, 60, 95
2, 201120, Note_off_c, 0, 55, 95
2, 201120, Note_off_c, 0, 48, 95
2, 201120, Note_on_c, 0, 60, 95
2, 201120, Note_on_c, 0, 55, 95
2, 201120, Note_on_c, 0, 48, 95
2, 201600, Note_off_c, 0, 60, 95
2, 201600, Note_off_c, 0, 55, 95
2, 201600, Note_off_c, 0, 48, 95
2, 201600, Note_on_c, 0, 60, 95
2, 201600, Note_on_c, 0, 55, 95
2, 201600, Note_on_c, 0, 48, 95
2, 202080, Note_off_c, 0, 60, 95
2, 202080, Note_off_c, 0, 55, 95
2, 202080, Note_off_c, 0, 48, 95
2, 202080, Note_on_c, 0, 60, 95
2, 202080, Note_on_c, 0, 55, 95
2, 202080, Note_on_c, 0, 48, 95
2, 203040, Note_off_c, 0, 60, 95
2, 203040, Note_off_c, 0, 55, 95
2, 203040, Note_off_c, 0, 48, 95
2, 203040, Note_on_c, 0, 57, 95
2, 203040, Note_on_c, 0, 52, 95
2, 203040, Note_on_c, 0, 45, 95
2, 203520, Note_off_c, 0, 57, 95
2, 203520, Note_off_c, 0, 52, 95
2, 203520, Note_off_c, 0, 45, 95
2, 203520, Note_on_c, 0, 57, 111
2, 203520, Note_on_c, 0, 52, 111
2, 203520, Note_on_c, 0, 45, 111
2, 204000, Note_off_c, 0, 57, 111
2, 204000, Note_off_c, 0, 52, 111
2, 204000, Note_off_c, 0, 45, 111
2, 204000, Note_on_c, 0, 57, 111
2, 204000, Note_on_c, 0, 52, 111
2, 204000, Note_on_c, 0, 45, 111
2, 204480, Note_off_c, 0, 57, 111
2, 204480, Note_off_c, 0, 52, 111
2, 204480, Note_off_c, 0, 45, 111
2, 204480, Note_on_c, 0, 48, 127
2, 204960, Note_off_c, 0, 48, 127
2, 204960, Note_on_c, 0, 45, 127
2, 205440, Note_off_c, 0, 45, 127
2, 205440, Pitch_bend_c, 1, 8192
2, 205440, Note_on_c, 1, 43, 127
2, 205560, Pitch_bend_c, 1, 8320
2, 205680, Pitch_bend_c, 1, 8448
2, 205680, Pitch_bend_c, 1, 8448
2, 205760, Pitch_bend_c, 1, 8576
2, 205840, Pitch_bend_c, 1, 8704
2, 205920, Pitch_bend_c, 1, 8832
2, 205920, Pitch_bend_c, 1, 8832
2, 205920, Pitch_bend_c, 1, 8192
2, 205920, Note_off_c, 1, 43, 127
2, 205920, Note_on_c, 0, 57, 111
2, 205920, Note_on_c, 0, 52, 111
2, 205920, Note_on_c, 0, 45, 111
2, 206880, Note_off_c, 0, 57, 111
2, 206880, Note_off_c, 0, 52, 111
2, 206880, Note_off_c, 0, 45, 111
2, 206880, Note_on_c, 0, 57, 111
2, 206880, Note_on_c, 0, 52, 111
2, 206880, Note_on_c, 0, 45, 111
2, 207360, Note_off_c, 0, 57, 111
2, 207360, Note_off_c, 0, 52, 111
2, 207360, Note_off_c, 0, 45, 111
2, 207360, Note_on_c, 0, 57, 111
2, 207360, Note_on_c, 0, 52, 111
2, 207360, Note_on_c, 0, 45, 111
2, 207840, Note_off_c, 0, 57, 111
2, 207840, Note_off_c, 0, 52, 111
2, 207840, Note_off_c, 0, 45, 111
2, 207840, Note_on_c, 0, 57, 111
2, 207840, Note_on_c, 0, 52, 111
2, 207840, Note_on_c, 0, 45, 111
2, 208320, Note_off_c, 0, 57, 111
2, 208320, Note_off_c, 0, 52, 111
2, 208320, Note_off_c, 0, 45, 111
2, 208320, Note_on_c, 0, 48, 127
2, 208800, Note_off_c, 0, 48, 127
2, 208800, Note_on_c, 0, 45, 127
2, 209280, Note_off_c, 0, 45, 127
2, 209280, Pitch_bend_c, 1, 8192
2, 209280, Note_on_c, 1, 43, 127
2, 209400, Pitch_bend_c, 1, 8320
2, 209520, Pitch_bend_c, 1, 8448
2, 209520, Pitch_bend_c, 1, 8448
2, 209600, Pitch_bend_c, 1, 8576
2, 209680, Pitch_bend_c, 1, 8704
2, 209760, Pitch_bend_c, 1, 8832
2, 209760, Pitch_bend_c, 1, 8832
2, 209760, Pitch_bend_c, 1, 8192
2, 209760, Note_off_c, 1, 43, 127
2, 209760, Note_on_c, 0, 57, 111
2, 209760, Note_on_c, 0, 52, 111
2, 209760, Note_on_c, 0, 45, 111
2, 210720, Note_off_c, 0, 57, 111
2, 210720, Note_off_c, 0, 52, 111
2, 210720, Note_off_c, 0, 45, 111
2, 210720, Note_on_c, 0, 57, 95
2, 210720, Note_on_c, 0, 52, 95
2, 210720, Note_on_c, 0, 45, 95
2, 210796, Note_off_c, 0, 57, 95
2, 210796, Note_off_c, 0, 52, 95
2, 210796, Note_off_c, 0, 45, 95
2, 211200, Note_on_c, 0, 62, 95
2, 211200, Note_on_c, 0, 57, 95
2, 211200, Note_on_c, 0, 50, 95
2, 212160, Note_off_c, 0, 62, 95
2, 212160, Note_off_c, 0, 57, 95
2, 212160, Note_off_c, 0, 50, 95
2, 212160, Note_on_c, 0, 62, 95
2, 212160, Note_on_c, 0, 57, 95
2, 212160, Note_on_c, 0, 50, 95
2, 213120, Note_off_c, 0, 62, 95
2, 213120, Note_off_c, 0, 57, 95
2, 213120, Note_off_c, 0, 50, 95
2, 213120, Note_on_c, 0, 62, 95
2, 213120, Note_on_c, 0, 57, 95
2, 213120, Note_on_c, 0, 50, 95
2, 213600, Note_off_c, 0, 62, 95
2, 213600, Note_off_c, 0, 57, 95
2, 213600, Note_off_c, 0, 50, 95
2, 213600, Note_on_c, 0, 62, 95
2, 213600, Note_on_c, 0, 57, 95
2, 213600, Note_on_c, 0, 50, 95
2, 214560, Note_off_c, 0, 62, 95
2, 214560, Note_off_c, 0, 57, 95
2, 214560, Note_off_c, 0, 50, 95
2, 214560, Note_on_c, 0, 60, 95
2, 214560, Note_on_c, 0, 53, 95
2, 214560, Note_on_c, 0, 48, 95
2, 215040, Note_off_c, 0, 60, 95
2, 215040, Note_off_c, 0, 53, 95
2, 215040, Note_off_c, 0, 48, 95
2, 215040, Note_on_c, 0, 60, 95
2, 215040, Note_on_c, 0, 55, 95
2, 215040, Note_on_c, 0, 48, 95
2, 215520, Note_off_c, 0, 60, 95
2, 215520, Note_off_c, 0, 55, 95
2, 215520, Note_off_c, 0, 48, 95
2, 215520, Note_on_c, 0, 60, 95
2, 215520, Note_on_c, 0, 55, 95
2, 215520, Note_on_c, 0, 48, 95
2, 216000, Note_off_c, 0, 60, 95
2, 216000, Note_off_c, 0, 55, 95
2, 216000, Note_off_c, 0, 48, 95
2, 216000, Note_on_c, 0, 60, 95
2, 216000, Note_on_c, 0, 55, 95
2, 216000, Note_on_c, 0, 48, 95
2, 216480, Note_off_c, 0, 60, 95
2, 216480, Note_off_c, 0, 55, 95
2, 216480, Note_off_c, 0, 48, 95
2, 216480, Note_on_c, 0, 60, 95
2, 216480, Note_on_c, 0, 55, 95
2, 216480, Note_on_c, 0, 48, 95
2, 216960, Note_off_c, 0, 60, 95
2, 216960, Note_off_c, 0, 55, 95
2, 216960, Note_off_c, 0, 48, 95
2, 216960, Note_on_c, 0, 60, 95
2, 216960, Note_on_c, 0, 55, 95
2, 216960, Note_on_c, 0, 48, 95
2, 217440, Note_off_c, 0, 60, 95
2, 217440, Note_off_c, 0, 55, 95
2, 217440, Note_off_c, 0, 48, 95
2, 217440, Note_on_c, 0, 60, 95
2, 217440, Note_on_c, 0, 55, 95
2, 217440, Note_on_c, 0, 48, 95
2, 218400, Note_off_c, 0, 60, 95
2, 218400, Note_off_c, 0, 55, 95
2, 218400, Note_off_c, 0, 48, 95
2, 218400, Note_on_c, 0, 57, 95
2, 218400, Note_on_c, 0, 52, 95
2, 218400, Note_on_c, 0, 45, 95
2, 218880, Note_off_c, 0, 57, 95
2, 218880, Note_off_c, 0, 52, 95
2, 218880, Note_off_c, 0, 45, 95
2, 218880, Note_on_c, 0, 57, 111
2, 218880, Note_on_c, 0, 52, 111
2, 218880, Note_on_c, 0, 45, 111
2, 219360, Note_off_c, 0, 57, 111
2, 219360, Note_off_c, 0, 52, 111
2, 219360, Note_off_c, 0, 45, 111
2, 219360, Note_on_c, 0, 57, 111
2, 219360, Note_on_c, 0, 52, 111
2, 219360, Note_on_c, 0, 45, 111
2, 219840, Note_off_c, 0, 57, 111
2, 219840, Note_off_c, 0, 52, 111
2, 219840, Note_off_c, 0, 45, 111
2, 219840, Note_on_c, 0, 48, 127
2, 220320, Note_off_c, 0, 48, 127
2, 220320, Note_on_c, 0, 45, 127
2, 220800, Note_off_c, 0, 45, 127
2, 220800, Pitch_bend_c, 1, 8192
2, 220800, Note_on_c, 1, 43, 127
2, 220920, Pitch_bend_c, 1, 8320
2, 221040, Pitch_bend_c, 1, 8448
2, 221040, Pitch_bend_c, 1, 8448
2, 221120, Pitch_bend_c, 1, 8576
2, 221200, Pitch_bend_c, 1, 8704
2, 221280, Pitch_bend_c, 1, 8832
2, 221280, Pitch_bend_c, 1, 8832
2, 221280, Pitch_bend_c, 1, 8192
2, 221280, Note_off_c, 1, 43, 127
2, 221280, Note_on_c, 0, 57, 111
2, 221280, Note_on_c, 0, 52, 111
2, 221280, Note_on_c, 0, 45, 111
2, 222240, Note_off_c, 0, 57, 111
2, 222240, Note_off_c, 0, 52, 111
2, 222240, Note_off_c, 0, 45, 111
2, 222240, Note_on_c, 0, 57, 111
2, 222240, Note_on_c, 0, 52, 111
2, 222240, Note_on_c, 0, 45, 111
2, 222720, Note_off_c, 0, 57, 111
2, 222720, Note_off_c, 0, 52, 111
2, 222720, Note_off_c, 0, 45, 111
2, 222720, Note_on_c, 0, 57, 111
2, 222720, Note_on_c, 0, 52, 111
2, 222720, Note_on_c, 0, 45, 111
2, 223200, Note_off_c, 0, 57, 111
2, 223200, Note_off_c, 0, 52, 111
2, 223200, Note_off_c, 0, 45, 111
2, 223200, Note_on_c, 0, 57, 111
2, 223200, Note_on_c, 0, 52, 111
2, 223200, Note_on_c, 0, 45, 111
2, 223680, Note_off_c, 0, 57, 111
2, 223680, Note_off_c, 0, 52, 111
2, 223680, Note_off_c, 0, 45, 111
2, 223680, Note_on_c, 0, 48, 127
2, 224160, Note_off_c, 0, 48, 127
2, 224160, Note_on_c, 0, 45, 127
2, 224640, Note_off_c, 0, 45, 127
2, 224640, Pitch_bend_c, 1, 8192
2, 224640, Note_on_c, 1, 43, 127
2, 224760, Pitch_bend_c, 1, 8320
2, 224880, Pitch_bend_c, 1, 8448
2, 224880, Pitch_bend_c, 1, 8448
2, 224960, Pitch_bend_c, 1, 8576
2, 225040, Pitch_bend_c, 1, 8704
2, 225120, Pitch_bend_c, 1, 8832
2, 225120, Pitch_bend_c, 1, 8832
2, 225120, Pitch_bend_c, 1, 8192
2, 225120, Note_off_c, 1, 43, 127
2, 225120, Note_on_c, 0, 57, 111
2, 225120, Note_on_c, 0, 52, 111
2, 225120, Note_on_c, 0, 45, 111
2, 226080, Note_off_c, 0, 57, 111
2, 226080, Note_off_c, 0, 52, 111
2, 226080, Note_off_c, 0, 45, 111
2, 226080, Note_on_c, 0, 57, 95
2, 226080, Note_on_c, 0, 52, 95
2, 226080, Note_on_c, 0, 45, 95
2, 226156, Note_off_c, 0, 57, 95
2, 226156, Note_off_c, 0, 52, 95
2, 226156, Note_off_c, 0, 45, 95
2, 226560, Note_on_c, 0, 62, 95
2, 226560, Note_on_c, 0, 57, 95
2, 226560, Note_on_c, 0, 50, 95
2, 227520, Note_off_c, 0, 62, 95
2, 227520, Note_off_c, 0, 57, 95
2, 227520, Note_off_c, 0, 50, 95
2, 227520, Note_on_c, 0, 62, 95
2, 227520, Note_on_c, 0, 57, 95
2, 227520, Note_on_c, 0, 50, 95
2, 228480, Note_off_c, 0, 62, 95
2, 228480, Note_off_c, 0, 57, 95
2, 228480, Note_off_c, 0, 50, 95
2, 228480, Note_on_c, 0, 62, 95
2, 228480, Note_on_c, 0, 57, 95
2, 228480, Note_on_c, 0, 50, 95
2, 228960, Note_off_c, 0, 62, 95
2, 228960, Note_off_c, 0, 57, 95
2, 228960, Note_off_c, 0, 50, 95
2, 228960, Note_on_c, 0, 62, 95
2, 228960, Note_on_c, 0, 57, 95
2, 228960, Note_on_c, 0, 50, 95
2, 229920, Note_off_c, 0, 62, 95
2, 229920, Note_off_c, 0, 57, 95
2, 229920, Note_off_c, 0, 50, 95
2, 229920, Note_on_c, 0, 60, 95
2, 229920, Note_on_c, 0, 55, 95
2, 229920, Note_on_c, 0, 48, 95
2, 230400, Note_off_c, 0, 60, 95
2, 230400, Note_off_c, 0, 55, 95
2, 230400, Note_off_c, 0, 48, 95
2, 230400, Note_on_c, 0, 60, 95
2, 230400, Note_on_c, 0, 55, 95
2, 230400, Note_on_c, 0, 48, 95
2, 230880, Note_off_c, 0, 60, 95
2, 230880, Note_off_c, 0, 55, 95
2, 230880, Note_off_c, 0, 48, 95
2, 230880, Note_on_c, 0, 60, 95
2, 230880, Note_on_c, 0, 55, 95
2, 230880, Note_on_c, 0, 48, 95
2, 231360, Note_off_c, 0, 60, 95
2, 231360, Note_off_c, 0, 55, 95
2, 231360, Note_off_c, 0, 48, 95
2, 231360, Note_on_c, 0, 60, 95
2, 231360, Note_on_c, 0, 55, 95
2, 231360, Note_on_c, 0, 48, 95
2, 231840, Note_off_c, 0, 60, 95
2, 231840, Note_off_c, 0, 55, 95
2, 231840, Note_off_c, 0, 48, 95
2, 231840, Note_on_c, 0, 60, 95
2, 231840, Note_on_c, 0, 55, 95
2, 231840, Note_on_c, 0, 48, 95
2, 232320, Note_off_c, 0, 60, 95
2, 232320, Note_off_c, 0, 55, 95
2, 232320, Note_off_c, 0, 48, 95
2, 232320, Note_on_c, 0, 60, 95
2, 232320, Note_on_c, 0, 55, 95
2, 232320, Note_on_c, 0, 48, 95
2, 232800, Note_off_c, 0, 60, 95
2, 232800, Note_off_c, 0, 55, 95
2, 232800, Note_off_c, 0, 48, 95
2, 232800, Note_on_c, 0, 60, 95
2, 232800, Note_on_c, 0, 55, 95
2, 232800, Note_on_c, 0, 48, 95
2, 233280, Note_off_c, 0, 60, 95
2, 233280, Note_off_c, 0, 55, 95
2, 233280, Note_off_c, 0, 48, 95
2, 233280, Note_on_c, 0, 60, 95
2, 233280, Note_on_c, 0, 55, 95
2, 233280, Note_on_c, 0, 48, 95
2, 233760, Note_off_c, 0, 60, 95
2, 233760, Note_off_c, 0, 55, 95
2, 233760, Note_off_c, 0, 48, 95
2, 233760, Note_on_c, 0, 57, 95
2, 233760, Note_on_c, 0, 52, 95
2, 233760, Note_on_c, 0, 45, 95
2, 234240, Note_off_c, 0, 57, 95
2, 234240, Note_off_c, 0, 52, 95
2, 234240, Note_off_c, 0, 45, 95
2, 234240, Note_on_c, 0, 57, 95
2, 234240, Note_on_c, 0, 52, 95
2, 234240, Note_on_c, 0, 45, 95
2, 237120, Note_off_c, 0, 57, 95
2, 237120, Note_off_c, 0, 52, 95
2, 237120, Note_off_c, 0, 45, 95
2, 238080, Note_on_c, 0, 55, 95
2, 238080, Note_on_c, 0, 50, 95
2, 238080, Note_on_c, 0, 43, 95
2, 238560, Note_off_c, 0, 55, 95
2, 238560, Note_off_c, 0, 50, 95
2, 238560, Note_off_c, 0, 43, 95
2, 238560, Note_on_c, 0, 55, 95
2, 238560, Note_on_c, 0, 50, 95
2, 238560, Note_on_c, 0, 43, 95
2, 239040, Note_off_c, 0, 55, 95
2, 239040, Note_off_c, 0, 50, 95
2, 239040, Note_off_c, 0, 43, 95
2, 239040, Note_on_c, 0, 55, 95
2, 239040, Note_on_c, 0, 50, 95
2, 239040, Note_on_c, 0, 43, 95
2, 239520, Note_off_c, 0, 55, 95
2, 239520, Note_off_c, 0, 50, 95
2, 239520, Note_off_c, 0, 43, 95
2, 239520, Note_on_c, 0, 55, 95
2, 239520, Note_on_c, 0, 50, 95
2, 239520, Note_on_c, 0, 43, 95
2, 240000, Note_off_c, 0, 55, 95
2, 240000, Note_off_c, 0, 50, 95
2, 240000, Note_off_c, 0, 43, 95
2, 240000, Note_on_c, 0, 55, 95
2, 240000, Note_on_c, 0, 50, 95
2, 240000, Note_on_c, 0, 43, 95
2, 240480, Note_off_c, 0, 55, 95
2, 240480, Note_off_c, 0, 50, 95
2, 240480, Note_off_c, 0, 43, 95
2, 240480, Note_on_c, 0, 55, 95
2, 240480, Note_on_c, 0, 50, 95
2, 240480, Note_on_c, 0, 43, 95
2, 240960, Note_off_c, 0, 55, 95
2, 240960, Note_off_c, 0, 50, 95
2, 240960, Note_off_c, 0, 43, 95
2, 240960, Note_on_c, 0, 55, 95
2, 240960, Note_on_c, 0, 50, 95
2, 240960, Note_on_c, 0, 43, 95
2, 241440, Note_off_c, 0, 55, 95
2, 241440, Note_off_c, 0, 50, 95
2, 241440, Note_off_c, 0, 43, 95
2, 241440, Note_on_c, 0, 55, 95
2, 241440, Note_on_c, 0, 50, 95
2, 241440, Note_on_c, 0, 43, 95
2, 241920, Note_off_c, 0, 55, 95
2, 241920, Note_off_c, 0, 50, 95
2, 241920, Note_off_c, 0, 43, 95
2, 241920, Note_on_c, 0, 52, 95
2, 241920, Note_on_c, 0, 47, 95
2, 241920, Note_on_c, 0, 40, 95
2, 242400, Note_off_c, 0, 52, 95
2, 242400, Note_off_c, 0, 47, 95
2, 242400, Note_off_c, 0, 40, 95
2, 244320, Note_on_c, 1, 62, 95
2, 244440, Pitch_bend_c, 1, 7296
2, 244560, Pitch_bend_c, 1, 6272
2, 244680, Pitch_bend_c, 1, 5248
2, 244800, Pitch_bend_c, 1, 4224
2, 244920, Pitch_bend_c, 1, 3328
2, 245040, Pitch_bend_c, 1, 2304
2, 245160, Pitch_bend_c, 1, 1280
2, 245280, Pitch_bend_c, 1, 256
2, 245400, Pitch_bend_c, 1, 0
2, 245520, Pitch_bend_c, 1, 0
2, 245640, Pitch_bend_c, 1, 0
2, 245760, Pitch_bend_c, 1, 0
2, 245760, Pitch_bend_c, 1, 8192
2, 245760, Note_off_c, 1, 62, 95
2, 245760, Note_on_c, 0, 57, 95
2, 245760, Note_on_c, 0, 52, 95
2, 245760, Note_on_c, 0, 45, 95
2, 246720, Note_off_c, 0, 57, 95
2, 246720, Note_off_c, 0, 52, 95
2, 246720, Note_off_c, 0, 45, 95
2, 246720, Note_on_c, 0, 57, 95
2, 246720, Note_on_c, 0, 52, 95
2, 246720, Note_on_c, 0, 45, 95
2, 247200, Note_off_c, 0, 57, 95
2, 247200, Note_off_c, 0, 52, 95
2, 247200, Note_off_c, 0, 45, 95
2, 247200, Note_on_c, 0, 57, 95
2, 247200, Note_on_c, 0, 52, 95
2, 247200, Note_on_c, 0, 45, 95
2, 247680, Note_off_c, 0, 57, 95
2, 247680, Note_off_c, 0, 52, 95
2, 247680, Note_off_c, 0, 45, 95
2, 247680, Note_on_c, 0, 57, 95
2, 247680, Note_on_c, 0, 52, 95
2, 247680, Note_on_c, 0, 45, 95
2, 248160, Note_off_c, 0, 57, 95
2, 248160, Note_off_c, 0, 52, 95
2, 248160, Note_off_c, 0, 45, 95
2, 248160, Note_on_c, 0, 57, 95
2, 248160, Note_on_c, 0, 52, 95
2, 248160, Note_on_c, 0, 45, 95
2, 248640, Note_off_c, 0, 57, 95
2, 248640, Note_off_c, 0, 52, 95
2, 248640, Note_off_c, 0, 45, 95
2, 248640, Note_on_c, 0, 57, 95
2, 248640, Note_on_c, 0, 52, 95
2, 248640, Note_on_c, 0, 45, 95
2, 249120, Note_off_c, 0, 57, 95
2, 249120, Note_off_c, 0, 52, 95
2, 249120, Note_off_c, 0, 45, 95
2, 249120, Note_on_c, 0, 57, 95
2, 249120, Note_on_c, 0, 52, 95
2, 249120, Note_on_c, 0, 45, 95
2, 249600, Note_off_c, 0, 57, 95
2, 249600, Note_off_c, 0, 52, 95
2, 249600, Note_off_c, 0, 45, 95
2, 249600, Note_on_c, 0, 57, 95
2, 249600, Note_on_c, 0, 52, 95
2, 249600, Note_on_c, 0, 45, 95
2, 250560, Note_off_c, 0, 57, 95
2, 250560, Note_off_c, 0, 52, 95
2, 250560, Note_off_c, 0, 45, 95
2, 250560, Note_on_c, 0, 57, 95
2, 250560, Note_on_c, 0, 52, 95
2, 250560, Note_on_c, 0, 45, 95
2, 251040, Note_off_c, 0, 57, 95
2, 251040, Note_off_c, 0, 52, 95
2, 251040, Note_off_c, 0, 45, 95
2, 251040, Note_on_c, 0, 57, 95
2, 251040, Note_on_c, 0, 52, 95
2, 251040, Note_on_c, 0, 45, 95
2, 251520, Note_off_c, 0, 57, 95
2, 251520, Note_off_c, 0, 52, 95
2, 251520, Note_off_c, 0, 45, 95
2, 251520, Note_on_c, 0, 57, 95
2, 251520, Note_on_c, 0, 52, 95
2, 251520, Note_on_c, 0, 45, 95
2, 252000, Note_off_c, 0, 57, 95
2, 252000, Note_off_c, 0, 52, 95
2, 252000, Note_off_c, 0, 45, 95
2, 252000, Note_on_c, 0, 57, 95
2, 252000, Note_on_c, 0, 52, 95
2, 252000, Note_on_c, 0, 45, 95
2, 252480, Note_off_c, 0, 57, 95
2, 252480, Note_off_c, 0, 52, 95
2, 252480, Note_off_c, 0, 45, 95
2, 252480, Note_on_c, 0, 57, 95
2, 252480, Note_on_c, 0, 52, 95
2, 252480, Note_on_c, 0, 45, 95
2, 252960, Note_off_c, 0, 57, 95
2, 252960, Note_off_c, 0, 52, 95
2, 252960, Note_off_c, 0, 45, 95
2, 252960, Note_on_c, 0, 57, 95
2, 252960, Note_on_c, 0, 52, 95
2, 252960, Note_on_c, 0, 45, 95
2, 253440, Note_off_c, 0, 57, 95
2, 253440, Note_off_c, 0, 52, 95
2, 253440, Note_off_c, 0, 45, 95
2, 253440, Note_on_c, 0, 57, 95
2, 253440, Note_on_c, 0, 52, 95
2, 253440, Note_on_c, 0, 45, 95
2, 254400, Note_off_c, 0, 57, 95
2, 254400, Note_off_c, 0, 52, 95
2, 254400, Note_off_c, 0, 45, 95
2, 254400, Note_on_c, 0, 57, 95
2, 254400, Note_on_c, 0, 52, 95
2, 254400, Note_on_c, 0, 45, 95
2, 254880, Note_off_c, 0, 57, 95
2, 254880, Note_off_c, 0, 52, 95
2, 254880, Note_off_c, 0, 45, 95
2, 254880, Note_on_c, 0, 57, 95
2, 254880, Note_on_c, 0, 52, 95
2, 254880, Note_on_c, 0, 45, 95
2, 255360, Note_off_c, 0, 57, 95
2, 255360, Note_off_c, 0, 52, 95
2, 255360, Note_off_c, 0, 45, 95
2, 255360, Note_on_c, 0, 57, 95
2, 255360, Note_on_c, 0, 52, 95
2, 255360, Note_on_c, 0, 45, 95
2, 255840, Note_off_c, 0, 57, 95
2, 255840, Note_off_c, 0, 52, 95
2, 255840, Note_off_c, 0, 45, 95
2, 255840, Note_on_c, 0, 57, 95
2, 255840, Note_on_c, 0, 52, 95
2, 255840, Note_on_c, 0, 45, 95
2, 256320, Note_off_c, 0, 57, 95
2, 256320, Note_off_c, 0, 52, 95
2, 256320, Note_off_c, 0, 45, 95
2, 256320, Note_on_c, 0, 57, 95
2, 256320, Note_on_c, 0, 52, 95
2, 256320, Note_on_c, 0, 45, 95
2, 256800, Note_off_c, 0, 57, 95
2, 256800, Note_off_c, 0, 52, 95
2, 256800, Note_off_c, 0, 45, 95
2, 256800, Note_on_c, 0, 57, 95
2, 256800, Note_on_c, 0, 52, 95
2, 256800, Note_on_c, 0, 45, 95
2, 257280, Note_off_c, 0, 57, 95
2, 257280, Note_off_c, 0, 52, 95
2, 257280, Note_off_c, 0, 45, 95
2, 257280, Note_on_c, 0, 61, 95
2, 257280, Note_on_c, 0, 57, 95
2, 257280, Note_on_c, 0, 52, 95
2, 257280, Note_on_c, 0, 45, 95
2, 258240, Note_off_c, 0, 61, 95
2, 258240, Note_off_c, 0, 57, 95
2, 258240, Note_off_c, 0, 52, 95
2, 258240, Note_off_c, 0, 45, 95
2, 258240, Note_on_c, 0, 61, 95
2, 258240, Note_on_c, 0, 57, 95
2, 258240, Note_on_c, 0, 52, 95
2, 258240, Note_on_c, 0, 45, 95
2, 259680, Note_off_c, 0, 61, 95
2, 259680, Note_off_c, 0, 57, 95
2, 259680, Note_off_c, 0, 52, 95
2, 259680, Note_off_c, 0, 45, 95
2, 259680, Note_on_c, 0, 61, 95
2, 259680, Note_on_c, 0, 57, 95
2, 259680, Note_on_c, 0, 52, 95
2, 259680, Note_on_c, 0, 45, 95
2, 260640, Note_off_c, 0, 61, 95
2, 260640, Note_off_c, 0, 57, 95
2, 260640, Note_off_c, 0, 52, 95
2, 260640, Note_off_c, 0, 45, 95
2, 260640, Note_on_c, 0, 52, 95
2, 260640, Note_on_c, 0, 45, 95
2, 261120, Note_off_c, 0, 52, 95
2, 261120, Note_off_c, 0, 45, 95
2, 261120, Note_on_c, 0, 57, 95
2, 261120, Note_on_c, 0, 52, 95
2, 261120, Note_on_c, 0, 45, 95
2, 262080, Note_off_c, 0, 57, 95
2, 262080, Note_off_c, 0, 52, 95
2, 262080, Note_off_c, 0, 45, 95
2, 262080, Note_on_c, 0, 55, 95
2, 262080, Note_on_c, 0, 50, 95
2, 262080, Note_on_c, 0, 45, 95
2, 262156, Note_off_c, 0, 55, 95
2, 262156, Note_off_c, 0, 50, 95
2, 262156, Note_off_c, 0, 45, 95
2, 262560, Note_on_c, 0, 50, 95
2, 262560, Note_on_c, 0, 45, 95
2, 262560, Note_on_c, 0, 43, 95
2, 262636, Note_off_c, 0, 45, 95
2, 263040, Note_off_c, 0, 50, 95
2, 263040, Note_off_c, 0, 43, 95
2, 263040, Note_on_c, 0, 67, 95
2, 263040, Note_on_c, 0, 59, 95
2, 263040, Note_on_c, 0, 55, 95
2, 263040, Note_on_c, 0, 50, 95
2, 263040, Note_on_c, 0, 48, 95
2, 263040, Note_on_c, 0, 43, 95
2, 263116, Note_off_c, 0, 48, 95
2, 264480, Note_off_c, 0, 67, 95
2, 264480, Note_off_c, 0, 59, 95
2, 264480, Note_off_c, 0, 55, 95
2, 264480, Note_off_c, 0, 50, 95
2, 264480, Note_off_c, 0, 43, 95
2, 264480, Note_on_c, 0, 64, 95
2, 264480, Note_on_c, 0, 59, 95
2, 264480, Note_on_c, 0, 55, 95
2, 264480, Note_on_c, 0, 50, 95
2, 264556, Note_off_c, 0, 64, 95
2, 264556, Note_off_c, 0, 59, 95
2, 264556, Note_off_c, 0, 55, 95
2, 264556, Note_off_c, 0, 50, 95
2, 264960, Note_on_c, 0, 66, 95
2, 264960, Note_on_c, 0, 62, 95
2, 264960, Note_on_c, 0, 57, 95
2, 264960, Note_on_c, 0, 50, 95
2, 265920, Note_off_c, 0, 66, 95
2, 265920, Note_off_c, 0, 62, 95
2, 265920, Note_off_c, 0, 57, 95
2, 265920, Note_off_c, 0, 50, 95
2, 265920, Note_on_c, 0, 64, 95
2, 265920, Note_on_c, 0, 59, 95
2, 265920, Note_on_c, 0, 55, 95
2, 265920, Note_on_c, 0, 50, 95
2, 265996, Note_off_c, 0, 64, 95
2, 265996, Note_off_c, 0, 59, 95
2, 265996, Note_off_c, 0, 55, 95
2, 265996, Note_off_c, 0, 50, 95
2, 266400, Note_on_c, 0, 57, 95
2, 266400, Note_on_c, 0, 52, 95
2, 266400, Note_on_c, 0, 45, 95
2, 267360, Note_off_c, 0, 57, 95
2, 267360, Note_off_c, 0, 52, 95
2, 267360, Note_off_c, 0, 45, 95
2, 267360, Note_on_c, 0, 57, 95
2, 267360, Note_on_c, 0, 52, 95
2, 267360, Note_on_c, 0, 45, 95
2, 267840, Note_off_c, 0, 57, 95
2, 267840, Note_off_c, 0, 52, 95
2, 267840, Note_off_c, 0, 45, 95
2, 267840, Note_on_c, 0, 57, 95
2, 267840, Note_on_c, 0, 52, 95
2, 267840, Note_on_c, 0, 45, 95
2, 268320, Note_off_c, 0, 57, 95
2, 268320, Note_off_c, 0, 52, 95
2, 268320, Note_off_c, 0, 45, 95
2, 268320, Note_on_c, 0, 55, 95
2, 268320, Note_on_c, 0, 50, 95
2, 268396, Note_off_c, 0, 55, 95
2, 268396, Note_off_c, 0, 50, 95
2, 268800, Note_on_c, 0, 67, 95
2, 268800, Note_on_c, 0, 59, 95
2, 268800, Note_on_c, 0, 55, 95
2, 268800, Note_on_c, 0, 50, 95
2, 268800, Note_on_c, 0, 45, 95
2, 268800, Note_on_c, 0, 43, 95
2, 268876, Note_off_c, 0, 45, 95
2, 270720, Note_off_c, 0, 67, 95
2, 270720, Note_off_c, 0, 59, 95
2, 270720, Note_off_c, 0, 55, 95
2, 270720, Note_off_c, 0, 50, 95
2, 270720, Note_off_c, 0, 43, 95
2, 270720, Note_on_c, 0, 67, 95
2, 270720, Note_on_c, 0, 59, 95
2, 270720, Note_on_c, 0, 55, 95
2, 270720, Note_on_c, 0, 50, 95
2, 270720, Note_on_c, 0, 45, 95
2, 270720, Note_on_c, 0, 43, 95
2, 270796, Note_off_c, 0, 45, 95
2, 271200, Note_off_c, 0, 67, 95
2, 271200, Note_off_c, 0, 59, 95
2, 271200, Note_off_c, 0, 55, 95
2, 271200, Note_off_c, 0, 50, 95
2, 271200, Note_off_c, 0, 43, 95
2, 271200, Note_on_c, 0, 67, 95
2, 271200, Note_on_c, 0, 59, 95
2, 271200, Note_on_c, 0, 55, 95
2, 271200, Note_on_c, 0, 50, 95
2, 271200, Note_on_c, 0, 45, 95
2, 271200, Note_on_c, 0, 43, 95
2, 271276, Note_off_c, 0, 45, 95
2, 272160, Note_off_c, 0, 67, 95
2, 272160, Note_off_c, 0, 59, 95
2, 272160, Note_off_c, 0, 55, 95
2, 272160, Note_off_c, 0, 50, 95
2, 272160, Note_off_c, 0, 43, 95
2, 272160, Note_on_c, 0, 64, 95
2, 272160, Note_on_c, 0, 59, 95
2, 272160, Note_on_c, 0, 55, 95
2, 272160, Note_on_c, 0, 50, 95
2, 272236, Note_off_c, 0, 64, 95
2, 272236, Note_off_c, 0, 59, 95
2, 272236, Note_off_c, 0, 55, 95
2, 272236, Note_off_c, 0, 50, 95
2, 272640, Note_on_c, 0, 68, 95
2, 272640, Note_on_c, 0, 64, 95
2, 272640, Note_on_c, 0, 59, 95
2, 272640, Note_on_c, 0, 52, 95
2, 273120, Note_off_c, 0, 68, 95
2, 273120, Note_off_c, 0, 64, 95
2, 273120, Note_off_c, 0, 59, 95
2, 273120, Note_off_c, 0, 52, 95
2, 273120, Note_on_c, 0, 68, 95
2, 273120, Note_on_c, 0, 64, 95
2, 273120, Note_on_c, 0, 59, 95
2, 273120, Note_on_c, 0, 52, 95
2, 273600, Note_off_c, 0, 68, 95
2, 273600, Note_off_c, 0, 64, 95
2, 273600, Note_off_c, 0, 59, 95
2, 273600, Note_off_c, 0, 52, 95
2, 273600, Note_on_c, 0, 68, 95
2, 273600, Note_on_c, 0, 64, 95
2, 273600, Note_on_c, 0, 59, 95
2, 273600, Note_on_c, 0, 52, 95
2, 274560, Note_off_c, 0, 68, 95
2, 274560, Note_off_c, 0, 64, 95
2, 274560, Note_off_c, 0, 59, 95
2, 274560, Note_off_c, 0, 52, 95
2, 274560, Note_on_c, 0, 68, 95
2, 274560, Note_on_c, 0, 64, 95
2, 274560, Note_on_c, 0, 59, 95
2, 274560, Note_on_c, 0, 52, 95
2, 275040, Note_off_c, 0, 68, 95
2, 275040, Note_off_c, 0, 64, 95
2, 275040, Note_off_c, 0, 59, 95
2, 275040, Note_off_c, 0, 52, 95
2, 275040, Note_on_c, 0, 68, 95
2, 275040, Note_on_c, 0, 64, 95
2, 275040, Note_on_c, 0, 59, 95
2, 275040, Note_on_c, 0, 52, 95
2, 275520, Note_off_c, 0, 68, 95
2, 275520, Note_off_c, 0, 64, 95
2, 275520, Note_off_c, 0, 59, 95
2, 275520, Note_off_c, 0, 52, 95
2, 275520, Note_on_c, 0, 68, 95
2, 275520, Note_on_c, 0, 64, 95
2, 275520, Note_on_c, 0, 59, 95
2, 275520, Note_on_c, 0, 52, 95
2, 276000, Note_off_c, 0, 68, 95
2, 276000, Note_off_c, 0, 64, 95
2, 276000, Note_off_c, 0, 59, 95
2, 276000, Note_off_c, 0, 52, 95
2, 276000, Note_on_c, 0, 59, 95
2, 276000, Note_on_c, 0, 55, 95
2, 276000, Note_on_c, 0, 50, 95
2, 276000, Note_on_c, 0, 45, 95
2, 276076, Note_off_c, 0, 59, 95
2, 276076, Note_off_c, 0, 55, 95
2, 276076, Note_off_c, 0, 50, 95
2, 276076, Note_off_c, 0, 45, 95
2, 276480, Note_on_c, 0, 57, 95
2, 276480, Note_on_c, 0, 52, 95
2, 276480, Note_on_c, 0, 45, 95
2, 277440, Note_off_c, 0, 57, 95
2, 277440, Note_off_c, 0, 52, 95
2, 277440, Note_off_c, 0, 45, 95
2, 277440, Note_on_c, 0, 55, 95
2, 277440, Note_on_c, 0, 50, 95
2, 277440, Note_on_c, 0, 45, 95
2, 277516, Note_off_c, 0, 55, 95
2, 277516, Note_off_c, 0, 50, 95
2, 277516, Note_off_c, 0, 45, 95
2, 277920, Note_on_c, 0, 50, 95
2, 277920, Note_on_c, 0, 45, 95
2, 277920, Note_on_c, 0, 43, 95
2, 277996, Note_off_c, 0, 45, 95
2, 278400, Note_off_c, 0, 50, 95
2, 278400, Note_off_c, 0, 43, 95
2, 278400, Note_on_c, 0, 67, 95
2, 278400, Note_on_c, 0, 59, 95
2, 278400, Note_on_c, 0, 55, 95
2, 278400, Note_on_c, 0, 50, 95
2, 278400, Note_on_c, 0, 48, 95
2, 278400, Note_on_c, 0, 43, 95
2, 278476, Note_off_c, 0, 48, 95
2, 279840, Note_off_c, 0, 67, 95
2, 279840, Note_off_c, 0, 59, 95
2, 279840, Note_off_c, 0, 55, 95
2, 279840, Note_off_c, 0, 50, 95
2, 279840, Note_off_c, 0, 43, 95
2, 279840, Note_on_c, 0, 64, 95
2, 279840, Note_on_c, 0, 59, 95
2, 279840, Note_on_c, 0, 55, 95
2, 279840, Note_on_c, 0, 50, 95
2, 279916, Note_off_c, 0, 64, 95
2, 279916, Note_off_c, 0, 59, 95
2, 279916, Note_off_c, 0, 55, 95
2, 279916, Note_off_c, 0, 50, 95
2, 280320, Note_on_c, 0, 66, 95
2, 280320, Note_on_c, 0, 62, 95
2, 280320, Note_on_c, 0, 57, 95
2, 280320, Note_on_c, 0, 50, 95
2, 281280, Note_off_c, 0, 66, 95
2, 281280, Note_off_c, 0, 62, 95
2, 281280, Note_off_c, 0, 57, 95
2, 281280, Note_off_c, 0, 50, 95
2, 281280, Note_on_c, 0, 64, 95
2, 281280, Note_on_c, 0, 59, 95
2, 281280, Note_on_c, 0, 55, 95
2, 281280, Note_on_c, 0, 50, 95
2, 281356, Note_off_c, 0, 64, 95
2, 281356, Note_off_c, 0, 59, 95
2, 281356, Note_off_c, 0, 55, 95
2, 281356, Note_off_c, 0, 50, 95
2, 281760, Note_on_c, 0, 57, 95
2, 281760, Note_on_c, 0, 52, 95
2, 281760, Note_on_c, 0, 45, 95
2, 282720, Note_off_c, 0, 57, 95
2, 282720, Note_off_c, 0, 52, 95
2, 282720, Note_off_c, 0, 45, 95
2, 282720, Note_on_c, 0, 57, 95
2, 282720, Note_on_c, 0, 52, 95
2, 282720, Note_on_c, 0, 45, 95
2, 283200, Note_off_c, 0, 57, 95
2, 283200, Note_off_c, 0, 52, 95
2, 283200, Note_off_c, 0, 45, 95
2, 283200, Note_on_c, 0, 57, 95
2, 283200, Note_on_c, 0, 52, 95
2, 283200, Note_on_c, 0, 45, 95
2, 283680, Note_off_c, 0, 57, 95
2, 283680, Note_off_c, 0, 52, 95
2, 283680, Note_off_c, 0, 45, 95
2, 283680, Note_on_c, 0, 55, 95
2, 283680, Note_on_c, 0, 50, 95
2, 283680, Note_on_c, 0, 45, 95
2, 283756, Note_off_c, 0, 55, 95
2, 283756, Note_off_c, 0, 50, 95
2, 283756, Note_off_c, 0, 45, 95
2, 284160, Note_on_c, 0, 67, 95
2, 284160, Note_on_c, 0, 59, 95
2, 284160, Note_on_c, 0, 55, 95
2, 284160, Note_on_c, 0, 50, 95
2, 284160, Note_on_c, 0, 45, 95
2, 284160, Note_on_c, 0, 43, 95
2, 284236, Note_off_c, 0, 45, 95
2, 285120, Note_off_c, 0, 67, 95
2, 285120, Note_off_c, 0, 59, 95
2, 285120, Note_off_c, 0, 55, 95
2, 285120, Note_off_c, 0, 50, 95
2, 285120, Note_off_c, 0, 43, 95
2, 285120, Note_on_c, 0, 67, 95
2, 285120, Note_on_c, 0, 59, 95
2, 285120, Note_on_c, 0, 55, 95
2, 285120, Note_on_c, 0, 50, 95
2, 285120, Note_on_c, 0, 45, 95
2, 285120, Note_on_c, 0, 43, 95
2, 285196, Note_off_c, 0, 45, 95
2, 286080, Note_off_c, 0, 67, 95
2, 286080, Note_off_c, 0, 59, 95
2, 286080, Note_off_c, 0, 55, 95
2, 286080, Note_off_c, 0, 50, 95
2, 286080, Note_off_c, 0, 43, 95
2, 286080, Note_on_c, 0, 67, 95
2, 286080, Note_on_c, 0, 59, 95
2, 286080, Note_on_c, 0, 55, 95
2, 286080, Note_on_c, 0, 50, 95
2, 286080, Note_on_c, 0, 45, 95
2, 286080, Note_on_c, 0, 43, 95
2, 286156, Note_off_c, 0, 45, 95
2, 286560, Note_off_c, 0, 67, 95
2, 286560, Note_off_c, 0, 59, 95
2, 286560, Note_off_c, 0, 55, 95
2, 286560, Note_off_c, 0, 50, 95
2, 286560, Note_off_c, 0, 43, 95
2, 286560, Note_on_c, 0, 67, 95
2, 286560, Note_on_c, 0, 59, 95
2, 286560, Note_on_c, 0, 55, 95
2, 286560, Note_on_c, 0, 50, 95
2, 286560, Note_on_c, 0, 45, 95
2, 286560, Note_on_c, 0, 43, 95
2, 286636, Note_off_c, 0, 45, 95
2, 287520, Note_off_c, 0, 67, 95
2, 287520, Note_off_c, 0, 59, 95
2, 287520, Note_off_c, 0, 55, 95
2, 287520, Note_off_c, 0, 50, 95
2, 287520, Note_off_c, 0, 43, 95
2, 287520, Note_on_c, 0, 59, 95
2, 287520, Note_on_c, 0, 55, 95
2, 287520, Note_on_c, 0, 50, 95
2, 287520, Note_on_c, 0, 45, 95
2, 287596, Note_off_c, 0, 59, 95
2, 287596, Note_off_c, 0, 55, 95
2, 287596, Note_off_c, 0, 50, 95
2, 287596, Note_off_c, 0, 45, 95
2, 288000, Note_on_c, 0, 59, 111
2, 288000, Note_on_c, 0, 52, 111
2, 288480, Note_off_c, 0, 59, 111
2, 288480, Note_off_c, 0, 52, 111
2, 288480, Note_on_c, 0, 59, 111
2, 288480, Note_on_c, 0, 52, 111
2, 288960, Note_off_c, 0, 59, 111
2, 288960, Note_off_c, 0, 52, 111
2, 288960, Note_on_c, 0, 61, 111
2, 288960, Note_on_c, 0, 52, 111
2, 289440, Note_off_c, 0, 61, 111
2, 289440, Note_off_c, 0, 52, 111
2, 289440, Note_on_c, 0, 59, 111
2, 289440, Note_on_c, 0, 52, 111
2, 289920, Note_off_c, 0, 59, 111
2, 289920, Note_off_c, 0, 52, 111
2, 289920, Note_on_c, 0, 68, 111
2, 289920, Note_on_c, 0, 64, 111
2, 289920, Note_on_c, 0, 59, 111
2, 290400, Note_off_c, 0, 68, 111
2, 290400, Note_off_c, 0, 64, 111
2, 290400, Note_off_c, 0, 59, 111
2, 290400, Note_on_c, 0, 69, 111
2, 290400, Note_on_c, 0, 64, 111
2, 290400, Note_on_c, 0, 61, 111
2, 290880, Note_off_c, 0, 69, 111
2, 290880, Note_off_c, 0, 64, 111
2, 290880, Note_off_c, 0, 61, 111
2, 291360, Note_on_c, 0, 68, 111
2, 291360, Note_on_c, 0, 64, 111
2, 291360, Note_on_c, 0, 59, 111
2, 292320, Note_off_c, 0, 68, 111
2, 292320, Note_off_c, 0, 64, 111
2, 292320, Note_off_c, 0, 59, 111
2, 292320, Pitch_bend_c, 1, 8192
2, 292320, Note_on_c, 1, 66, 111
2, 292464, Pitch_bend_c, 1, 8320
2, 292608, Pitch_bend_c, 1, 8448
2, 292752, Pitch_bend_c, 1, 8576
2, 292896, Pitch_bend_c, 1, 8704
2, 293040, Pitch_bend_c, 1, 8832
2, 293040, Pitch_bend_c, 1, 8832
2, 293160, Pitch_bend_c, 1, 8960
2, 293280, Pitch_bend_c, 1, 9088
2, 293400, Pitch_bend_c, 1, 9216
2, 293520, Pitch_bend_c, 1, 9344
2, 293640, Pitch_bend_c, 1, 9472
2, 293760, Pitch_bend_c, 1, 9600
2, 293760, Pitch_bend_c, 1, 9600
2, 293760, Pitch_bend_c, 1, 8192
2, 293760, Note_off_c, 1, 66, 111
2, 293760, Pitch_bend_c, 1, 9600
2, 293760, Note_on_c, 1, 66, 111
2, 294240, Pitch_bend_c, 1, 9600
2, 294240, Pitch_bend_c, 1, 8192
2, 294240, Note_off_c, 1, 66, 111
2, 294240, Note_on_c, 0, 71, 111
2, 294720, Note_off_c, 0, 71, 111
2, 294720, Note_on_c, 0, 66, 111
2, 295200, Note_off_c, 0, 66, 111
2, 295680, Note_on_c, 0, 57, 111
2, 295680, Note_on_c, 0, 52, 111
2, 295680, Note_on_c, 0, 45, 111
2, 297600, Note_off_c, 0, 57, 111
2, 297600, Note_off_c, 0, 52, 111
2, 297600, Note_off_c, 0, 45, 111
2, 297600, Pitch_bend_c, 1, 8192
2, 297600, Note_on_c, 1, 59, 111
2, 297614, Pitch_bend_c, 1, 8320
2, 297628, Pitch_bend_c, 1, 8448
2, 297642, Pitch_bend_c, 1, 8576
2, 297656, Pitch_bend_c, 1, 8704
2, 297670, Pitch_bend_c, 1, 8832
2, 297684, Pitch_bend_c, 1, 8960
2, 297698, Pitch_bend_c, 1, 9088
2, 297712, Pitch_bend_c, 1, 9216
2, 297726, Pitch_bend_c, 1, 9344
2, 297740, Pitch_bend_c, 1, 9472
2, 297754, Pitch_bend_c, 1, 9600
2, 297760, Pitch_bend_c, 1, 9600
2, 297763, Pitch_bend_c, 1, 9728
2, 297766, Pitch_bend_c, 1, 9856
2, 297769, Pitch_bend_c, 1, 9984
2, 297772, Pitch_bend_c, 1, 10112
2, 297775, Pitch_bend_c, 1, 10240
2, 297778, Pitch_bend_c, 1, 10368
2, 297781, Pitch_bend_c, 1, 10496
2, 297784, Pitch_bend_c, 1, 10624
2, 297787, Pitch_bend_c, 1, 10752
2, 297790, Pitch_bend_c, 1, 10880
2, 297793, Pitch_bend_c, 1, 11008
2, 297796, Pitch_bend_c, 1, 11136
2, 297799, Pitch_bend_c, 1, 11264
2, 297802, Pitch_bend_c, 1, 11392
2, 297805, Pitch_bend_c, 1, 11520
2, 297808, Pitch_bend_c, 1, 11648
2, 297811, Pitch_bend_c, 1, 11776
2, 297814, Pitch_bend_c, 1, 11904
2, 297817, Pitch_bend_c, 1, 12032
2, 297820, Pitch_bend_c, 1, 12160
2, 297823, Pitch_bend_c, 1, 12288
2, 297826, Pitch_bend_c, 1, 12416
2, 297840, Pitch_bend_c, 1, 12416
2, 297851, Pitch_bend_c, 1, 12288
2, 297862, Pitch_bend_c, 1, 12160
2, 297873, Pitch_bend_c, 1, 12032
2, 297884, Pitch_bend_c, 1, 11904
2, 297895, Pitch_bend_c, 1, 11776
2, 297906, Pitch_bend_c, 1, 11648
2, 297917, Pitch_bend_c, 1, 11520
2, 297928, Pitch_bend_c, 1, 11392
2, 297939, Pitch_bend_c, 1, 11264
2, 297950, Pitch_bend_c, 1, 11136
2, 297961, Pitch_bend_c, 1, 11008
2, 297972, Pitch_bend_c, 1, 10880
2, 297983, Pitch_bend_c, 1, 10752
2, 297994, Pitch_bend_c, 1, 10624
2, 298000, Pitch_bend_c, 1, 10624
2, 298020, Pitch_bend_c, 1, 10496
2, 298040, Pitch_bend_c, 1, 10368
2, 298060, Pitch_bend_c, 1, 10240
2, 298080, Pitch_bend_c, 1, 10112
2, 298100, Pitch_bend_c, 1, 9984
2, 298120, Pitch_bend_c, 1, 9856
2, 298140, Pitch_bend_c, 1, 9728
2, 298160, Pitch_bend_c, 1, 9600
2, 298160, Pitch_bend_c, 1, 9600
2, 298196, Pitch_bend_c, 1, 9472
2, 298232, Pitch_bend_c, 1, 9344
2, 298268, Pitch_bend_c, 1, 9216
2, 298304, Pitch_bend_c, 1, 9088
2, 298340, Pitch_bend_c, 1, 8960
2, 298376, Pitch_bend_c, 1, 8832
2, 298412, Pitch_bend_c, 1, 8704
2, 298448, Pitch_bend_c, 1, 8576
2, 298484, Pitch_bend_c, 1, 8448
2, 298520, Pitch_bend_c, 1, 8320
2, 298556, Pitch_bend_c, 1, 8192
2, 298560, Pitch_bend_c, 1, 8192
2, 298560, Pitch_bend_c, 1, 8192
2, 298560, Note_off_c, 1, 59, 111
2, 298560, Note_on_c, 0, 61, 111
2, 299040, Note_off_c, 0, 61, 111
2, 299040, Note_on_c, 0, 62, 111
2, 299520, Note_off_c, 0, 62, 111
2, 299520, Note_on_c, 0, 69, 111
2, 299520, Note_on_c, 0, 64, 111
2, 300000, Note_off_c, 0, 69, 111
2, 300000, Note_off_c, 0, 64, 111
2, 300000, Note_on_c, 0, 61, 111
2, 300240, Note_off_c, 0, 61, 111
2, 300240, Note_on_c, 0, 62, 111
2, 300480, Note_off_c, 0, 62, 111
2, 300480, Note_on_c, 0, 61, 111
2, 300960, Note_off_c, 0, 61, 111
2, 300960, Note_on_c, 1, 59, 111
2, 301120, Pitch_bend_c, 1, 8192
2, 301280, Pitch_bend_c, 1, 8320
2, 301440, Pitch_bend_c, 1, 8192
2, 301600, Pitch_bend_c, 1, 8320
2, 301760, Pitch_bend_c, 1, 8192
2, 301920, Pitch_bend_c, 1, 8320
2, 302080, Pitch_bend_c, 1, 8192
2, 302240, Pitch_bend_c, 1, 8320
2, 302400, Pitch_bend_c, 1, 8192
2, 302560, Pitch_bend_c, 1, 8320
2, 302720, Pitch_bend_c, 1, 8192
2, 302880, Pitch_bend_c, 1, 8320
2, 303040, Pitch_bend_c, 1, 8192
2, 303200, Pitch_bend_c, 1, 8320
2, 303360, Pitch_bend_c, 1, 8192
2, 303360, Pitch_bend_c, 1, 8320
2, 303360, Pitch_bend_c, 1, 8192
2, 303360, Note_off_c, 1, 59, 111
2, 303360, Note_on_c, 0, 62, 95
2, 303360, Note_on_c, 0, 57, 95
2, 303360, Note_on_c, 0, 50, 95
2, 304320, Note_off_c, 0, 62, 95
2, 304320, Note_off_c, 0, 57, 95
2, 304320, Note_off_c, 0, 50, 95
2, 304320, Note_on_c, 0, 62, 95
2, 304320, Note_on_c, 0, 57, 95
2, 304320, Note_on_c, 0, 50, 95
2, 305280, Note_off_c, 0, 62, 95
2, 305280, Note_off_c, 0, 57, 95
2, 305280, Note_off_c, 0, 50, 95
2, 305280, Note_on_c, 0, 62, 95
2, 305280, Note_on_c, 0, 57, 95
2, 305280, Note_on_c, 0, 50, 95
2, 305760, Note_off_c, 0, 62, 95
2, 305760, Note_off_c, 0, 57, 95
2, 305760, Note_off_c, 0, 50, 95
2, 305760, Note_on_c, 0, 62, 95
2, 305760, Note_on_c, 0, 57, 95
2, 305760, Note_on_c, 0, 50, 95
2, 306720, Note_off_c, 0, 62, 95
2, 306720, Note_off_c, 0, 57, 95
2, 306720, Note_off_c, 0, 50, 95
2, 306720, Note_on_c, 0, 60, 95
2, 306720, Note_on_c, 0, 53, 95
2, 306720, Note_on_c, 0, 48, 95
2, 307200, Note_off_c, 0, 60, 95
2, 307200, Note_off_c, 0, 53, 95
2, 307200, Note_off_c, 0, 48, 95
2, 307200, Note_on_c, 0, 60, 95
2, 307200, Note_on_c, 0, 55, 95
2, 307200, Note_on_c, 0, 48, 95
2, 307680, Note_off_c, 0, 60, 95
2, 307680, Note_off_c, 0, 55, 95
2, 307680, Note_off_c, 0, 48, 95
2, 307680, Note_on_c, 0, 60, 95
2, 307680, Note_on_c, 0, 55, 95
2, 307680, Note_on_c, 0, 48, 95
2, 308160, Note_off_c, 0, 60, 95
2, 308160, Note_off_c, 0, 55, 95
2, 308160, Note_off_c, 0, 48, 95
2, 308160, Note_on_c, 0, 60, 95
2, 308160, Note_on_c, 0, 55, 95
2, 308160, Note_on_c, 0, 48, 95
2, 308640, Note_off_c, 0, 60, 95
2, 308640, Note_off_c, 0, 55, 95
2, 308640, Note_off_c, 0, 48, 95
2, 308640, Note_on_c, 0, 60, 95
2, 308640, Note_on_c, 0, 55, 95
2, 308640, Note_on_c, 0, 48, 95
2, 309120, Note_off_c, 0, 60, 95
2, 309120, Note_off_c, 0, 55, 95
2, 309120, Note_off_c, 0, 48, 95
2, 309120, Note_on_c, 0, 60, 95
2, 309120, Note_on_c, 0, 55, 95
2, 309120, Note_on_c, 0, 48, 95
2, 309600, Note_off_c, 0, 60, 95
2, 309600, Note_off_c, 0, 55, 95
2, 309600, Note_off_c, 0, 48, 95
2, 309600, Note_on_c, 0, 60, 95
2, 309600, Note_on_c, 0, 55, 95
2, 309600, Note_on_c, 0, 48, 95
2, 310560, Note_off_c, 0, 60, 95
2, 310560, Note_off_c, 0, 55, 95
2, 310560, Note_off_c, 0, 48, 95
2, 310560, Note_on_c, 0, 57, 95
2, 310560, Note_on_c, 0, 52, 95
2, 310560, Note_on_c, 0, 45, 95
2, 311040, Note_off_c, 0, 57, 95
2, 311040, Note_off_c, 0, 52, 95
2, 311040, Note_off_c, 0, 45, 95
2, 311040, Note_on_c, 0, 57, 111
2, 311040, Note_on_c, 0, 52, 111
2, 311040, Note_on_c, 0, 45, 111
2, 311520, Note_off_c, 0, 57, 111
2, 311520, Note_off_c, 0, 52, 111
2, 311520, Note_off_c, 0, 45, 111
2, 311520, Note_on_c, 0, 57, 111
2, 311520, Note_on_c, 0, 52, 111
2, 311520, Note_on_c, 0, 45, 111
2, 312000, Note_off_c, 0, 57, 111
2, 312000, Note_off_c, 0, 52, 111
2, 312000, Note_off_c, 0, 45, 111
2, 312000, Note_on_c, 0, 48, 127
2, 312480, Note_off_c, 0, 48, 127
2, 312480, Note_on_c, 0, 45, 127
2, 312960, Note_off_c, 0, 45, 127
2, 312960, Pitch_bend_c, 1, 8192
2, 312960, Note_on_c, 1, 43, 127
2, 313080, Pitch_bend_c, 1, 8320
2, 313200, Pitch_bend_c, 1, 8448
2, 313200, Pitch_bend_c, 1, 8448
2, 313280, Pitch_bend_c, 1, 8576
2, 313360, Pitch_bend_c, 1, 8704
2, 313440, Pitch_bend_c, 1, 8832
2, 313440, Pitch_bend_c, 1, 8832
2, 313440, Pitch_bend_c, 1, 8192
2, 313440, Note_off_c, 1, 43, 127
2, 313440, Note_on_c, 0, 57, 111
2, 313440, Note_on_c, 0, 52, 111
2, 313440, Note_on_c, 0, 45, 111
2, 314400, Note_off_c, 0, 57, 111
2, 314400, Note_off_c, 0, 52, 111
2, 314400, Note_off_c, 0, 45, 111
2, 314400, Note_on_c, 0, 57, 111
2, 314400, Note_on_c, 0, 52, 111
2, 314400, Note_on_c, 0, 45, 111
2, 314880, Note_off_c, 0, 57, 111
2, 314880, Note_off_c, 0, 52, 111
2, 314880, Note_off_c, 0, 45, 111
2, 314880, Note_on_c, 0, 57, 111
2, 314880, Note_on_c, 0, 52, 111
2, 314880, Note_on_c, 0, 45, 111
2, 315360, Note_off_c, 0, 57, 111
2, 315360, Note_off_c, 0, 52, 111
2, 315360, Note_off_c, 0, 45, 111
2, 315360, Note_on_c, 0, 57, 111
2, 315360, Note_on_c, 0, 52, 111
2, 315360, Note_on_c, 0, 45, 111
2, 315840, Note_off_c, 0, 57, 111
2, 315840, Note_off_c, 0, 52, 111
2, 315840, Note_off_c, 0, 45, 111
2, 315840, Note_on_c, 0, 48, 127
2, 316320, Note_off_c, 0, 48, 127
2, 316320, Note_on_c, 0, 45, 127
2, 316800, Note_off_c, 0, 45, 127
2, 316800, Pitch_bend_c, 1, 8192
2, 316800, Note_on_c, 1, 43, 127
2, 316920, Pitch_bend_c, 1, 8320
2, 317040, Pitch_bend_c, 1, 8448
2, 317040, Pitch_bend_c, 1, 8448
2, 317120, Pitch_bend_c, 1, 8576
2, 317200, Pitch_bend_c, 1, 8704
2, 317280, Pitch_bend_c, 1, 8832
2, 317280, Pitch_bend_c, 1, 8832
2, 317280, Pitch_bend_c, 1, 8192
2, 317280, Note_off_c, 1, 43, 127
2, 317280, Note_on_c, 0, 57, 111
2, 317280, Note_on_c, 0, 52, 111
2, 317280, Note_on_c, 0, 45, 111
2, 318240, Note_off_c, 0, 57, 111
2, 318240, Note_off_c, 0, 52, 111
2, 318240, Note_off_c, 0, 45, 111
2, 318240, Note_on_c, 0, 57, 95
2, 318240, Note_on_c, 0, 52, 95
2, 318240, Note_on_c, 0, 45, 95
2, 318316, Note_off_c, 0, 57, 95
2, 318316, Note_off_c, 0, 52, 95
2, 318316, Note_off_c, 0, 45, 95
2, 318720, Note_on_c, 0, 62, 95
2, 318720, Note_on_c, 0, 57, 95
2, 318720, Note_on_c, 0, 50, 95
2, 319680, Note_off_c, 0, 62, 95
2, 319680, Note_off_c, 0, 57, 95
2, 319680, Note_off_c, 0, 50, 95
2, 319680, Note_on_c, 0, 62, 95
2, 319680, Note_on_c, 0, 57, 95
2, 319680, Note_on_c, 0, 50, 95
2, 320640, Note_off_c, 0, 62, 95
2, 320640, Note_off_c, 0, 57, 95
2, 320640, Note_off_c, 0, 50, 95
2, 320640, Note_on_c, 0, 62, 95
2, 320640, Note_on_c, 0, 57, 95
2, 320640, Note_on_c, 0, 50, 95
2, 321120, Note_off_c, 0, 62, 95
2, 321120, Note_off_c, 0, 57, 95
2, 321120, Note_off_c, 0, 50, 95
2, 321120, Note_on_c, 0, 62, 95
2, 321120, Note_on_c, 0, 57, 95
2, 321120, Note_on_c, 0, 50, 95
2, 322080, Note_off_c, 0, 62, 95
2, 322080, Note_off_c, 0, 57, 95
2, 322080, Note_off_c, 0, 50, 95
2, 322080, Note_on_c, 0, 60, 95
2, 322080, Note_on_c, 0, 53, 95
2, 322080, Note_on_c, 0, 48, 95
2, 322560, Note_off_c, 0, 60, 95
2, 322560, Note_off_c, 0, 53, 95
2, 322560, Note_off_c, 0, 48, 95
2, 322560, Note_on_c, 0, 60, 95
2, 322560, Note_on_c, 0, 55, 95
2, 322560, Note_on_c, 0, 48, 95
2, 323040, Note_off_c, 0, 60, 95
2, 323040, Note_off_c, 0, 55, 95
2, 323040, Note_off_c, 0, 48, 95
2, 323040, Note_on_c, 0, 60, 95
2, 323040, Note_on_c, 0, 55, 95
2, 323040, Note_on_c, 0, 48, 95
2, 323520, Note_off_c, 0, 60, 95
2, 323520, Note_off_c, 0, 55, 95
2, 323520, Note_off_c, 0, 48, 95
2, 323520, Note_on_c, 0, 60, 95
2, 323520, Note_on_c, 0, 55, 95
2, 323520, Note_on_c, 0, 48, 95
2, 324000, Note_off_c, 0, 60, 95
2, 324000, Note_off_c, 0, 55, 95
2, 324000, Note_off_c, 0, 48, 95
2, 324000, Note_on_c, 0, 60, 95
2, 324000, Note_on_c, 0, 55, 95
2, 324000, Note_on_c, 0, 48, 95
2, 324480, Note_off_c, 0, 60, 95
2, 324480, Note_off_c, 0, 55, 95
2, 324480, Note_off_c, 0, 48, 95
2, 324480, Note_on_c, 0, 60, 95
2, 324480, Note_on_c, 0, 55, 95
2, 324480, Note_on_c, 0, 48, 95
2, 324960, Note_off_c, 0, 60, 95
2, 324960, Note_off_c, 0, 55, 95
2, 324960, Note_off_c, 0, 48, 95
2, 324960, Note_on_c, 0, 60, 95
2, 324960, Note_on_c, 0, 55, 95
2, 324960, Note_on_c, 0, 48, 95
2, 325920, Note_off_c, 0, 60, 95
2, 325920, Note_off_c, 0, 55, 95
2, 325920, Note_off_c, 0, 48, 95
2, 325920, Note_on_c, 0, 57, 95
2, 325920, Note_on_c, 0, 52, 95
2, 325920, Note_on_c, 0, 45, 95
2, 326400, Note_off_c, 0, 57, 95
2, 326400, Note_off_c, 0, 52, 95
2, 326400, Note_off_c, 0, 45, 95
2, 326400, Note_on_c, 0, 57, 111
2, 326400, Note_on_c, 0, 52, 111
2, 326400, Note_on_c, 0, 45, 111
2, 326880, Note_off_c, 0, 57, 111
2, 326880, Note_off_c, 0, 52, 111
2, 326880, Note_off_c, 0, 45, 111
2, 326880, Note_on_c, 0, 57, 111
2, 326880, Note_on_c, 0, 52, 111
2, 326880, Note_on_c, 0, 45, 111
2, 327360, Note_off_c, 0, 57, 111
2, 327360, Note_off_c, 0, 52, 111
2, 327360, Note_off_c, 0, 45, 111
2, 327360, Note_on_c, 0, 48, 127
2, 327840, Note_off_c, 0, 48, 127
2, 327840, Note_on_c, 0, 45, 127
2, 328320, Note_off_c, 0, 45, 127
2, 328320, Pitch_bend_c, 1, 8192
2, 328320, Note_on_c, 1, 43, 127
2, 328440, Pitch_bend_c, 1, 8320
2, 328560, Pitch_bend_c, 1, 8448
2, 328560, Pitch_bend_c, 1, 8448
2, 328640, Pitch_bend_c, 1, 8576
2, 328720, Pitch_bend_c, 1, 8704
2, 328800, Pitch_bend_c, 1, 8832
2, 328800, Pitch_bend_c, 1, 8832
2, 328800, Pitch_bend_c, 1, 8192
2, 328800, Note_off_c, 1, 43, 127
2, 328800, Note_on_c, 0, 57, 111
2, 328800, Note_on_c, 0, 52, 111
2, 328800, Note_on_c, 0, 45, 111
2, 329760, Note_off_c, 0, 57, 111
2, 329760, Note_off_c, 0, 52, 111
2, 329760, Note_off_c, 0, 45, 111
2, 329760, Note_on_c, 0, 57, 111
2, 329760, Note_on_c, 0, 52, 111
2, 329760, Note_on_c, 0, 45, 111
2, 330240, Note_off_c, 0, 57, 111
2, 330240, Note_off_c, 0, 52, 111
2, 330240, Note_off_c, 0, 45, 111
2, 330240, Note_on_c, 0, 57, 111
2, 330240, Note_on_c, 0, 52, 111
2, 330240, Note_on_c, 0, 45, 111
2, 330720, Note_off_c, 0, 57, 111
2, 330720, Note_off_c, 0, 52, 111
2, 330720, Note_off_c, 0, 45, 111
2, 330720, Note_on_c, 0, 57, 111
2, 330720, Note_on_c, 0, 52, 111
2, 330720, Note_on_c, 0, 45, 111
2, 331200, Note_off_c, 0, 57, 111
2, 331200, Note_off_c, 0, 52, 111
2, 331200, Note_off_c, 0, 45, 111
2, 331200, Note_on_c, 0, 48, 127
2, 331680, Note_off_c, 0, 48, 127
2, 331680, Note_on_c, 0, 45, 127
2, 332160, Note_off_c, 0, 45, 127
2, 332160, Pitch_bend_c, 1, 8192
2, 332160, Note_on_c, 1, 43, 127
2, 332280, Pitch_bend_c, 1, 8320
2, 332400, Pitch_bend_c, 1, 8448
2, 332400, Pitch_bend_c, 1, 8448
2, 332480, Pitch_bend_c, 1, 8576
2, 332560, Pitch_bend_c, 1, 8704
2, 332640, Pitch_bend_c, 1, 8832
2, 332640, Pitch_bend_c, 1, 8832
2, 332640, Pitch_bend_c, 1, 8192
2, 332640, Note_off_c, 1, 43, 127
2, 332640, Note_on_c, 0, 57, 111
2, 332640, Note_on_c, 0, 52, 111
2, 332640, Note_on_c, 0, 45, 111
2, 333600, Note_off_c, 0, 57, 111
2, 333600, Note_off_c, 0, 52, 111
2, 333600, Note_off_c, 0, 45, 111
2, 333600, Note_on_c, 0, 57, 95
2, 333600, Note_on_c, 0, 52, 95
2, 333600, Note_on_c, 0, 45, 95
2, 333676, Note_off_c, 0, 57, 95
2, 333676, Note_off_c, 0, 52, 95
2, 333676, Note_off_c, 0, 45, 95
2, 334080, Note_on_c, 0, 62, 95
2, 334080, Note_on_c, 0, 57, 95
2, 334080, Note_on_c, 0, 50, 95
2, 335040, Note_off_c, 0, 62, 95
2, 335040, Note_off_c, 0, 57, 95
2, 335040, Note_off_c, 0, 50, 95
2, 335040, Note_on_c, 0, 62, 95
2, 335040, Note_on_c, 0, 57, 95
2, 335040, Note_on_c, 0, 50, 95
2, 336000, Note_off_c, 0, 62, 95
2, 336000, Note_off_c, 0, 57, 95
2, 336000, Note_off_c, 0, 50, 95
2, 336000, Note_on_c, 0, 62, 95
2, 336000, Note_on_c, 0, 57, 95
2, 336000, Note_on_c, 0, 50, 95
2, 336480, Note_off_c, 0, 62, 95
2, 336480, Note_off_c, 0, 57, 95
2, 336480, Note_off_c, 0, 50, 95
2, 336480, Note_on_c, 0, 62, 95
2, 336480, Note_on_c, 0, 57, 95
2, 336480, Note_on_c, 0, 50, 95
2, 337440, Note_off_c, 0, 62, 95
2, 337440, Note_off_c, 0, 57, 95
2, 337440, Note_off_c, 0, 50, 95
2, 337440, Note_on_c, 0, 60, 95
2, 337440, Note_on_c, 0, 55, 95
2, 337440, Note_on_c, 0, 48, 95
2, 337920, Note_off_c, 0, 60, 95
2, 337920, Note_off_c, 0, 55, 95
2, 337920, Note_off_c, 0, 48, 95
2, 337920, Note_on_c, 0, 60, 95
2, 337920, Note_on_c, 0, 55, 95
2, 337920, Note_on_c, 0, 48, 95
2, 338400, Note_off_c, 0, 60, 95
2, 338400, Note_off_c, 0, 55, 95
2, 338400, Note_off_c, 0, 48, 95
2, 338400, Note_on_c, 0, 60, 95
2, 338400, Note_on_c, 0, 55, 95
2, 338400, Note_on_c, 0, 48, 95
2, 338880, Note_off_c, 0, 60, 95
2, 338880, Note_off_c, 0, 55, 95
2, 338880, Note_off_c, 0, 48, 95
2, 338880, Note_on_c, 0, 60, 95
2, 338880, Note_on_c, 0, 55, 95
2, 338880, Note_on_c, 0, 48, 95
2, 339360, Note_off_c, 0, 60, 95
2, 339360, Note_off_c, 0, 55, 95
2, 339360, Note_off_c, 0, 48, 95
2, 339360, Note_on_c, 0, 60, 95
2, 339360, Note_on_c, 0, 55, 95
2, 339360, Note_on_c, 0, 48, 95
2, 339840, Note_off_c, 0, 60, 95
2, 339840, Note_off_c, 0, 55, 95
2, 339840, Note_off_c, 0, 48, 95
2, 339840, Note_on_c, 0, 60, 95
2, 339840, Note_on_c, 0, 55, 95
2, 339840, Note_on_c, 0, 48, 95
2, 340320, Note_off_c, 0, 60, 95
2, 340320, Note_off_c, 0, 55, 95
2, 340320, Note_off_c, 0, 48, 95
2, 340320, Note_on_c, 0, 60, 95
2, 340320, Note_on_c, 0, 55, 95
2, 340320, Note_on_c, 0, 48, 95
2, 340800, Note_off_c, 0, 60, 95
2, 340800, Note_off_c, 0, 55, 95
2, 340800, Note_off_c, 0, 48, 95
2, 340800, Note_on_c, 0, 60, 95
2, 340800, Note_on_c, 0, 55, 95
2, 340800, Note_on_c, 0, 48, 95
2, 341280, Note_off_c, 0, 60, 95
2, 341280, Note_off_c, 0, 55, 95
2, 341280, Note_off_c, 0, 48, 95
2, 341280, Note_on_c, 0, 57, 95
2, 341280, Note_on_c, 0, 52, 95
2, 341280, Note_on_c, 0, 45, 95
2, 341760, Note_off_c, 0, 57, 95
2, 341760, Note_off_c, 0, 52, 95
2, 341760, Note_off_c, 0, 45, 95
2, 341760, Note_on_c, 0, 57, 95
2, 341760, Note_on_c, 0, 52, 95
2, 341760, Note_on_c, 0, 45, 95
2, 344640, Note_off_c, 0, 57, 95
2, 344640, Note_off_c, 0, 52, 95
2, 344640, Note_off_c, 0, 45, 95
2, 345600, Note_on_c, 0, 55, 95
2, 345600, Note_on_c, 0, 50, 95
2, 345600, Note_on_c, 0, 43, 95
2, 346080, Note_off_c, 0, 55, 95
2, 346080, Note_off_c, 0, 50, 95
2, 346080, Note_off_c, 0, 43, 95
2, 346080, Note_on_c, 0, 55, 95
2, 346080, Note_on_c, 0, 50, 95
2, 346080, Note_on_c, 0, 43, 95
2, 346560, Note_off_c, 0, 55, 95
2, 346560, Note_off_c, 0, 50, 95
2, 346560, Note_off_c, 0, 43, 95
2, 346560, Note_on_c, 0, 55, 95
2, 346560, Note_on_c, 0, 50, 95
2, 346560, Note_on_c, 0, 43, 95
2, 347040, Note_off_c, 0, 55, 95
2, 347040, Note_off_c, 0, 50, 95
2, 347040, Note_off_c, 0, 43, 95
2, 347040, Note_on_c, 0, 55, 95
2, 347040, Note_on_c, 0, 50, 95
2, 347040, Note_on_c, 0, 43, 95
2, 347520, Note_off_c, 0, 55, 95
2, 347520, Note_off_c, 0, 50, 95
2, 347520, Note_off_c, 0, 43, 95
2, 347520, Note_on_c, 0, 55, 95
2, 347520, Note_on_c, 0, 50, 95
2, 347520, Note_on_c, 0, 43, 95
2, 348000, Note_off_c, 0, 55, 95
2, 348000, Note_off_c, 0, 50, 95
2, 348000, Note_off_c, 0, 43, 95
2, 348000, Note_on_c, 0, 55, 95
2, 348000, Note_on_c, 0, 50, 95
2, 348000, Note_on_c, 0, 43, 95
2, 348480, Note_off_c, 0, 55, 95
2, 348480, Note_off_c, 0, 50, 95
2, 348480, Note_off_c, 0, 43, 95
2, 348480, Note_on_c, 0, 55, 95
2, 348480, Note_on_c, 0, 50, 95
2, 348480, Note_on_c, 0, 43, 95
2, 348960, Note_off_c, 0, 55, 95
2, 348960, Note_off_c, 0, 50, 95
2, 348960, Note_off_c, 0, 43, 95
2, 348960, Note_on_c, 0, 55, 95
2, 348960, Note_on_c, 0, 50, 95
2, 348960, Note_on_c, 0, 43, 95
2, 349440, Note_off_c, 0, 55, 95
2, 349440, Note_off_c, 0, 50, 95
2, 349440, Note_off_c, 0, 43, 95
2, 349440, Note_on_c, 0, 52, 95
2, 349440, Note_on_c, 0, 47, 95
2, 349440, Note_on_c, 0, 40, 95
2, 349920, Note_off_c, 0, 52, 95
2, 349920, Note_off_c, 0, 47, 95
2, 349920, Note_off_c, 0, 40, 95
2, 351840, Note_on_c, 1, 62, 127
2, 353280, Note_off_c, 1, 62, 127
2, 353280, Note_on_c, 0, 59, 111
2, 354240, Note_off_c, 0, 59, 111
2, 354240, Note_on_c, 0, 61, 111
2, 354480, Note_off_c, 0, 61, 111
2, 354480, Note_on_c, 0, 62, 95
2, 355200, Note_off_c, 0, 62, 95
2, 355200, Note_on_c, 0, 62, 111
2, 355680, Note_off_c, 0, 62, 111
2, 355680, Note_on_c, 0, 61, 111
2, 355840, Note_off_c, 0, 61, 111
2, 355840, Note_on_c, 0, 62, 111
2, 356000, Note_off_c, 0, 62, 111
2, 356000, Note_on_c, 0, 61, 111
2, 356160, Note_off_c, 0, 61, 111
2, 356160, Note_on_c, 0, 59, 111
2, 356640, Note_off_c, 0, 59, 111
2, 357120, Note_on_c, 0, 57, 111
2, 357120, Note_on_c, 0, 52, 111
2, 357120, Note_on_c, 0, 45, 111
2, 358080, Note_off_c, 0, 57, 111
2, 358080, Note_off_c, 0, 52, 111
2, 358080, Note_off_c, 0, 45, 111
2, 358080, Note_on_c, 0, 57, 111
2, 358080, Note_on_c, 0, 52, 111
2, 358080, Note_on_c, 0, 45, 111
2, 359520, Note_off_c, 0, 57, 111
2, 359520, Note_off_c, 0, 52, 111
2, 359520, Note_off_c, 0, 45, 111
2, 360000, Note_on_c, 1, 76, 127
2, 360000, Note_on_c, 1, 72, 127
2, 360120, Pitch_bend_c, 1, 8192
2, 360240, Pitch_bend_c, 1, 8192
2, 360360, Pitch_bend_c, 1, 8192
2, 360480, Pitch_bend_c, 1, 8192
2, 360600, Pitch_bend_c, 1, 8192
2, 360720, Pitch_bend_c, 1, 8192
2, 360840, Pitch_bend_c, 1, 8192
2, 360960, Pitch_bend_c, 1, 8192
2, 360960, Pitch_bend_c, 1, 8192
2, 360960, Note_off_c, 1, 76, 127
2, 360960, Note_off_c, 1, 72, 127
2, 360960, Note_on_c, 0, 76, 127
2, 361440, Note_off_c, 0, 76, 127
2, 361440, Note_on_c, 0, 81, 127
2, 361920, Note_off_c, 0, 81, 127
2, 361920, Note_on_c, 0, 76, 127
2, 362400, Note_off_c, 0, 76, 127
2, 362400, Note_on_c, 0, 81, 127
2, 362880, Note_off_c, 0, 81, 127
2, 362880, Pitch_bend_c, 1, 8192
2, 362880, Note_on_c, 1, 73, 127
2, 362928, Pitch_bend_c, 1, 8320
2, 362976, Pitch_bend_c, 1, 8448
2, 363024, Pitch_bend_c, 1, 8576
2, 363072, Pitch_bend_c, 1, 8704
2, 363120, Pitch_bend_c, 1, 8832
2, 363120, Pitch_bend_c, 1, 8832
2, 363160, Pitch_bend_c, 1, 8960
2, 363200, Pitch_bend_c, 1, 9088
2, 363240, Pitch_bend_c, 1, 9216
2, 363280, Pitch_bend_c, 1, 9344
2, 363320, Pitch_bend_c, 1, 9472
2, 363360, Pitch_bend_c, 1, 9600
2, 363360, Pitch_bend_c, 1, 9600
2, 363360, Pitch_bend_c, 1, 8192
2, 363360, Note_off_c, 1, 73, 127
2, 363360, Note_on_c, 0, 76, 127
2, 363840, Note_off_c, 0, 76, 127
2, 364800, Note_on_c, 0, 61, 95
2, 364800, Note_on_c, 0, 57, 95
2, 364800, Note_on_c, 0, 52, 95
2, 364800, Note_on_c, 0, 45, 95
2, 365760, Note_off_c, 0, 61, 95
2, 365760, Note_off_c, 0, 57, 95
2, 365760, Note_off_c, 0, 52, 95
2, 365760, Note_off_c, 0, 45, 95
2, 365760, Note_on_c, 0, 61, 95
2, 365760, Note_on_c, 0, 57, 95
2, 365760, Note_on_c, 0, 52, 95
2, 365760, Note_on_c, 0, 45, 95
2, 367200, Note_off_c, 0, 61, 95
2, 367200, Note_off_c, 0, 57, 95
2, 367200, Note_off_c, 0, 52, 95
2, 367200, Note_off_c, 0, 45, 95
2, 367200, Note_on_c, 0, 61, 95
2, 367200, Note_on_c, 0, 57, 95
2, 367200, Note_on_c, 0, 52, 95
2, 367200, Note_on_c, 0, 45, 95
2, 368160, Note_off_c, 0, 61, 95
2, 368160, Note_off_c, 0, 57, 95
2, 368160, Note_off_c, 0, 52, 95
2, 368160, Note_off_c, 0, 45, 95
2, 368160, Note_on_c, 0, 52, 95
2, 368160, Note_on_c, 0, 45, 95
2, 368640, Note_off_c, 0, 52, 95
2, 368640, Note_off_c, 0, 45, 95
2, 368640, Note_on_c, 0, 57, 95
2, 368640, Note_on_c, 0, 52, 95
2, 368640, Note_on_c, 0, 45, 95
2, 369600, Note_off_c, 0, 57, 95
2, 369600, Note_off_c, 0, 52, 95
2, 369600, Note_off_c, 0, 45, 95
2, 369600, Note_on_c, 0, 67, 95
2, 370080, Note_off_c, 0, 67, 95
2, 370080, Note_on_c, 0, 66, 95
2, 370560, Note_off_c, 0, 66, 95
2, 370560, Note_on_c, 0, 69, 95
2, 370560, Note_on_c, 0, 64, 95
2, 371040, Note_off_c, 0, 69, 95
2, 371040, Note_off_c, 0, 64, 95
2, 371040, Note_on_c, 0, 62, 95
2, 371520, Note_off_c, 0, 62, 95
2, 371520, Note_on_c, 0, 62, 95
2, 372000, Note_off_c, 0, 62, 95
2, 372000, Note_on_c, 0, 60, 95
2, 372480, Note_off_c, 0, 60, 95
2, 372480, Note_on_c, 0, 57, 95
2, 372960, Note_off_c, 0, 57, 95
2, 372960, Note_on_c, 0, 64, 95
2, 372960, Note_on_c, 0, 60, 95
2, 373440, Note_off_c, 0, 64, 95
2, 373440, Note_off_c, 0, 60, 95
2, 373440, Note_on_c, 0, 64, 95
2, 373440, Note_on_c, 0, 60, 95
2, 373920, Note_off_c, 0, 64, 95
2, 373920, Note_off_c, 0, 60, 95
2, 373920, Note_on_c, 0, 57, 95
2, 375360, Note_off_c, 0, 57, 95
2, 375360, Note_on_c, 0, 57, 95
2, 375360, Note_on_c, 0, 45, 95
2, 376320, Note_off_c, 0, 45, 95
2, 378240, Note_off_c, 0, 57, 95
2, 378720, Note_on_c, 0, 57, 127
2, 378720, Note_on_c, 0, 52, 127
2, 378720, Note_on_c, 0, 45, 127
2, 379200, Note_off_c, 0, 57, 127
2, 379200, Note_off_c, 0, 52, 127
2, 379200, Note_off_c, 0, 45, 127
2, 379200, Note_on_c, 0, 55, 95
2, 379200, Note_on_c, 0, 50, 95
2, 379200, Note_on_c, 0, 45, 95
2, 379276, Note_off_c, 0, 55, 95
2, 379276, Note_off_c, 0, 50, 95
2, 379276, Note_off_c, 0, 45, 95
2, 379680, Note_on_c, 0, 57, 127
2, 379680, Note_on_c, 0, 52, 127
2, 379680, Note_on_c, 0, 45, 127
2, 380160, Note_off_c, 0, 57, 127
2, 380160, Note_off_c, 0, 52, 127
2, 380160, Note_off_c, 0, 45, 127
2, 380160, End_track
3, 0, Start_track
3, 0, Pitch_bend_c, 2, 8192
3, 0, Control_c, 2, 7, 103
3, 0, Control_c, 2, 10, 63
3, 0, Control_c, 2, 93, 0
3, 0, Control_c, 2, 91, 0
3, 0, Control_c, 2, 95, 0
3, 0, Control_c, 2, 92, 0
3, 0, Control_c, 2, 11, 127
3, 0, Program_c, 2, 34
3, 0, Control_c, 3, 7, 103
3, 0, Control_c, 3, 10, 63
3, 0, Control_c, 3, 93, 0
3, 0, Control_c, 3, 91, 0
3, 0, Control_c, 3, 95, 0
3, 0, Control_c, 3, 92, 0
3, 0, Control_c, 3, 11, 127
3, 0, Program_c, 3, 34
3, 30720, Note_on_c, 2, 31, 111
3, 31200, Note_off_c, 2, 31, 111
3, 31200, Note_on_c, 2, 33, 111
3, 31680, Note_off_c, 2, 33, 111
3, 31680, Note_on_c, 2, 33, 111
3, 32160, Note_off_c, 2, 33, 111
3, 32160, Note_on_c, 2, 33, 111
3, 32640, Note_off_c, 2, 33, 111
3, 32640, Note_on_c, 2, 33, 111
3, 33120, Note_off_c, 2, 33, 111
3, 33120, Note_on_c, 2, 33, 111
3, 33600, Note_off_c, 2, 33, 111
3, 33600, Note_on_c, 2, 33, 111
3, 34080, Note_off_c, 2, 33, 111
3, 34080, Note_on_c, 2, 33, 111
3, 34560, Note_off_c, 2, 33, 111
3, 34560, Note_on_c, 2, 33, 95
3, 35040, Note_off_c, 2, 33, 95
3, 35040, Note_on_c, 2, 33, 95
3, 35520, Note_off_c, 2, 33, 95
3, 35520, Note_on_c, 2, 33, 95
3, 36000, Note_off_c, 2, 33, 95
3, 36000, Note_on_c, 2, 33, 95
3, 36480, Note_off_c, 2, 33, 95
3, 36480, Note_on_c, 2, 33, 95
3, 36960, Note_off_c, 2, 33, 95
3, 36960, Note_on_c, 2, 33, 95
3, 37440, Note_off_c, 2, 33, 95
3, 37440, Note_on_c, 2, 33, 95
3, 37920, Note_off_c, 2, 33, 95
3, 37920, Note_on_c, 2, 33, 95
3, 38400, Note_off_c, 2, 33, 95
3, 38400, Note_on_c, 2, 31, 111
3, 38880, Note_off_c, 2, 31, 111
3, 38880, Note_on_c, 2, 33, 111
3, 39360, Note_off_c, 2, 33, 111
3, 39360, Note_on_c, 2, 33, 111
3, 39840, Note_off_c, 2, 33, 111
3, 39840, Note_on_c, 2, 33, 111
3, 40320, Note_off_c, 2, 33, 111
3, 40320, Note_on_c, 2, 33, 111
3, 40800, Note_off_c, 2, 33, 111
3, 40800, Note_on_c, 2, 33, 111
3, 41280, Note_off_c, 2, 33, 111
3, 41280, Note_on_c, 2, 33, 111
3, 41760, Note_off_c, 2, 33, 111
3, 41760, Note_on_c, 2, 33, 111
3, 42240, Note_off_c, 2, 33, 111
3, 42240, Note_on_c, 2, 33, 95
3, 42720, Note_off_c, 2, 33, 95
3, 42720, Note_on_c, 2, 33, 95
3, 43200, Note_off_c, 2, 33, 95
3, 43200, Note_on_c, 2, 33, 95
3, 43680, Note_off_c, 2, 33, 95
3, 43680, Note_on_c, 2, 33, 95
3, 44160, Note_off_c, 2, 33, 95
3, 44160, Note_on_c, 2, 33, 95
3, 44640, Note_off_c, 2, 33, 95
3, 44640, Note_on_c, 2, 33, 95
3, 45120, Note_off_c, 2, 33, 95
3, 45120, Note_on_c, 2, 33, 95
3, 45600, Note_off_c, 2, 33, 95
3, 45600, Note_on_c, 2, 33, 95
3, 46080, Note_off_c, 2, 33, 95
3, 46080, Note_on_c, 2, 31, 111
3, 46560, Note_off_c, 2, 31, 111
3, 46560, Note_on_c, 2, 33, 111
3, 47040, Note_off_c, 2, 33, 111
3, 47040, Note_on_c, 2, 33, 111
3, 47520, Note_off_c, 2, 33, 111
3, 47520, Note_on_c, 2, 33, 111
3, 48000, Note_off_c, 2, 33, 111
3, 48000, Note_on_c, 2, 33, 111
3, 48480, Note_off_c, 2, 33, 111
3, 48480, Note_on_c, 2, 33, 111
3, 48960, Note_off_c, 2, 33, 111
3, 48960, Note_on_c, 2, 33, 111
3, 49440, Note_off_c, 2, 33, 111
3, 49440, Note_on_c, 2, 33, 111
3, 49920, Note_off_c, 2, 33, 111
3, 49920, Note_on_c, 2, 33, 95
3, 50400, Note_off_c, 2, 33, 95
3, 50400, Note_on_c, 2, 33, 95
3, 50880, Note_off_c, 2, 33, 95
3, 50880, Note_on_c, 2, 33, 95
3, 51360, Note_off_c, 2, 33, 95
3, 51360, Note_on_c, 2, 33, 95
3, 51840, Note_off_c, 2, 33, 95
3, 51840, Note_on_c, 2, 33, 95
3, 52320, Note_off_c, 2, 33, 95
3, 52320, Note_on_c, 2, 33, 95
3, 52800, Note_off_c, 2, 33, 95
3, 52800, Note_on_c, 2, 33, 95
3, 53280, Note_off_c, 2, 33, 95
3, 53280, Note_on_c, 2, 33, 95
3, 53760, Note_off_c, 2, 33, 95
3, 53760, Note_on_c, 2, 31, 111
3, 54240, Note_off_c, 2, 31, 111
3, 54240, Note_on_c, 2, 33, 111
3, 54720, Note_off_c, 2, 33, 111
3, 54720, Note_on_c, 2, 33, 111
3, 55200, Note_off_c, 2, 33, 111
3, 55200, Note_on_c, 2, 33, 111
3, 55680, Note_off_c, 2, 33, 111
3, 55680, Note_on_c, 2, 33, 111
3, 56160, Note_off_c, 2, 33, 111
3, 56160, Note_on_c, 2, 33, 111
3, 56640, Note_off_c, 2, 33, 111
3, 56640, Note_on_c, 2, 33, 111
3, 57120, Note_off_c, 2, 33, 111
3, 57120, Note_on_c, 2, 33, 111
3, 57600, Note_off_c, 2, 33, 111
3, 57600, Note_on_c, 2, 33, 95
3, 58080, Note_off_c, 2, 33, 95
3, 58080, Note_on_c, 2, 33, 95
3, 58560, Note_off_c, 2, 33, 95
3, 58560, Note_on_c, 2, 33, 95
3, 59040, Note_off_c, 2, 33, 95
3, 59040, Note_on_c, 2, 33, 95
3, 59520, Note_off_c, 2, 33, 95
3, 59520, Note_on_c, 2, 33, 95
3, 60000, Note_off_c, 2, 33, 95
3, 60000, Note_on_c, 2, 33, 95
3, 60480, Note_off_c, 2, 33, 95
3, 60480, Note_on_c, 2, 33, 95
3, 60960, Note_off_c, 2, 33, 95
3, 60960, Note_on_c, 2, 33, 95
3, 61440, Note_off_c, 2, 33, 95
3, 61440, Note_on_c, 2, 33, 95
3, 61920, Note_off_c, 2, 33, 95
3, 61920, Note_on_c, 2, 33, 95
3, 62400, Note_off_c, 2, 33, 95
3, 62400, Note_on_c, 2, 33, 95
3, 63840, Note_off_c, 2, 33, 95
3, 63840, Note_on_c, 2, 33, 95
3, 64800, Note_off_c, 2, 33, 95
3, 64800, Note_on_c, 2, 33, 95
3, 65280, Note_off_c, 2, 33, 95
3, 65280, Note_on_c, 2, 33, 95
3, 65760, Note_off_c, 2, 33, 95
3, 65760, Note_on_c, 2, 33, 95
3, 66240, Note_off_c, 2, 33, 95
3, 66240, Note_on_c, 2, 33, 95
3, 67680, Note_off_c, 2, 33, 95
3, 67680, Note_on_c, 2, 33, 95
3, 68640, Note_off_c, 2, 33, 95
3, 68640, Note_on_c, 2, 33, 95
3, 69120, Note_off_c, 2, 33, 95
3, 69120, Note_on_c, 2, 33, 95
3, 69600, Note_off_c, 2, 33, 95
3, 69600, Note_on_c, 2, 33, 95
3, 70080, Note_off_c, 2, 33, 95
3, 70080, Note_on_c, 2, 33, 95
3, 71520, Note_off_c, 2, 33, 95
3, 71520, Note_on_c, 2, 33, 95
3, 72480, Note_off_c, 2, 33, 95
3, 72480, Note_on_c, 2, 33, 95
3, 72960, Note_off_c, 2, 33, 95
3, 72960, Note_on_c, 2, 33, 95
3, 73440, Note_off_c, 2, 33, 95
3, 73440, Note_on_c, 2, 33, 95
3, 73920, Note_off_c, 2, 33, 95
3, 73920, Note_on_c, 2, 33, 95
3, 75360, Note_off_c, 2, 33, 95
3, 75360, Note_on_c, 2, 33, 95
3, 76320, Note_off_c, 2, 33, 95
3, 76320, Note_on_c, 2, 33, 95
3, 76800, Note_off_c, 2, 33, 95
3, 76800, Note_on_c, 2, 33, 95
3, 77760, Note_off_c, 2, 33, 95
3, 78240, Note_on_c, 2, 31, 95
3, 78720, Note_off_c, 2, 31, 95
3, 78720, Note_on_c, 2, 31, 95
3, 80160, Note_off_c, 2, 31, 95
3, 80160, Note_on_c, 2, 40, 95
3, 80640, Note_off_c, 2, 40, 95
3, 80640, Note_on_c, 2, 38, 95
3, 81600, Note_off_c, 2, 38, 95
3, 81600, Note_on_c, 2, 36, 95
3, 82080, Note_off_c, 2, 36, 95
3, 82080, Note_on_c, 2, 33, 95
3, 83040, Note_off_c, 2, 33, 95
3, 83040, Note_on_c, 2, 33, 95
3, 83520, Note_off_c, 2, 33, 95
3, 83520, Note_on_c, 2, 33, 95
3, 84480, Note_off_c, 2, 33, 95
3, 84480, Note_on_c, 2, 31, 95
3, 86400, Note_off_c, 2, 31, 95
3, 86400, Note_on_c, 2, 31, 95
3, 86880, Note_off_c, 2, 31, 95
3, 86880, Note_on_c, 2, 31, 95
3, 87840, Note_off_c, 2, 31, 95
3, 87840, Note_on_c, 2, 30, 95
3, 88320, Note_off_c, 2, 30, 95
3, 88320, Note_on_c, 3, 35, 95
3, 88440, Pitch_bend_c, 3, 8960
3, 88560, Pitch_bend_c, 3, 9856
3, 88680, Pitch_bend_c, 3, 10752
3, 88800, Pitch_bend_c, 3, 11648
3, 88800, Pitch_bend_c, 3, 8192
3, 88800, Note_off_c, 3, 35, 95
3, 88800, Note_on_c, 2, 40, 95
3, 89280, Note_off_c, 2, 40, 95
3, 89280, Note_on_c, 2, 40, 95
3, 90240, Note_off_c, 2, 40, 95
3, 90240, Note_on_c, 2, 40, 95
3, 90720, Note_off_c, 2, 40, 95
3, 90720, Note_on_c, 2, 40, 95
3, 91200, Note_off_c, 2, 40, 95
3, 91200, Note_on_c, 2, 40, 95
3, 91680, Note_off_c, 2, 40, 95
3, 92160, Note_on_c, 2, 33, 95
3, 93120, Note_off_c, 2, 33, 95
3, 93600, Note_on_c, 2, 31, 95
3, 94080, Note_off_c, 2, 31, 95
3, 94080, Note_on_c, 2, 31, 95
3, 95520, Note_off_c, 2, 31, 95
3, 95520, Note_on_c, 2, 28, 95
3, 95596, Note_off_c, 2, 28, 95
3, 96000, Note_on_c, 2, 38, 95
3, 96960, Note_off_c, 2, 38, 95
3, 96960, Note_on_c, 2, 38, 95
3, 97036, Note_off_c, 2, 38, 95
3, 97440, Note_on_c, 2, 33, 95
3, 98400, Note_off_c, 2, 33, 95
3, 98400, Note_on_c, 2, 33, 95
3, 98880, Note_off_c, 2, 33, 95
3, 98880, Note_on_c, 2, 33, 95
3, 99360, Note_off_c, 2, 33, 95
3, 99840, Note_on_c, 2, 31, 95
3, 100800, Note_off_c, 2, 31, 95
3, 100800, Note_on_c, 2, 31, 95
3, 101760, Note_off_c, 2, 31, 95
3, 101760, Note_on_c, 2, 31, 95
3, 102240, Note_off_c, 2, 31, 95
3, 102240, Note_on_c, 2, 31, 95
3, 103200, Note_off_c, 2, 31, 95
3, 103200, Note_on_c, 2, 28, 95
3, 103276, Note_off_c, 2, 28, 95
3, 103680, Note_on_c, 2, 28, 95
3, 104160, Note_off_c, 2, 28, 95
3, 104160, Note_on_c, 2, 28, 95
3, 104640, Note_off_c, 2, 28, 95
3, 104640, Note_on_c, 2, 28, 95
3, 105120, Note_off_c, 2, 28, 95
3, 105120, Note_on_c, 2, 28, 95
3, 105600, Note_off_c, 2, 28, 95
3, 105600, Note_on_c, 2, 28, 95
3, 106080, Note_off_c, 2, 28, 95
3, 106080, Note_on_c, 2, 28, 95
3, 106560, Note_off_c, 2, 28, 95
3, 106560, Note_on_c, 2, 28, 95
3, 107040, Note_off_c, 2, 28, 95
3, 107040, Note_on_c, 2, 28, 95
3, 107520, Note_off_c, 2, 28, 95
3, 107520, Note_on_c, 2, 28, 95
3, 108000, Note_off_c, 2, 28, 95
3, 108000, Note_on_c, 2, 28, 95
3, 108480, Note_off_c, 2, 28, 95
3, 108480, Note_on_c, 2, 28, 95
3, 108960, Note_off_c, 2, 28, 95
3, 108960, Note_on_c, 2, 28, 95
3, 109440, Note_off_c, 2, 28, 95
3, 109440, Note_on_c, 2, 28, 95
3, 109920, Note_off_c, 2, 28, 95
3, 109920, Note_on_c, 2, 28, 95
3, 110400, Note_off_c, 2, 28, 95
3, 110400, Note_on_c, 2, 28, 95
3, 110880, Note_off_c, 2, 28, 95
3, 110880, Note_on_c, 2, 28, 95
3, 111360, Note_off_c, 2, 28, 95
3, 111360, Note_on_c, 2, 33, 95
3, 112320, Note_off_c, 2, 33, 95
3, 112320, Note_on_c, 2, 33, 95
3, 112800, Note_off_c, 2, 33, 95
3, 112800, Note_on_c, 2, 33, 95
3, 113280, Note_off_c, 2, 33, 95
3, 113280, Note_on_c, 2, 33, 95
3, 113760, Note_off_c, 2, 33, 95
3, 113760, Note_on_c, 2, 33, 95
3, 114720, Note_off_c, 2, 33, 95
3, 114720, Note_on_c, 2, 33, 95
3, 115200, Note_off_c, 2, 33, 95
3, 115200, Note_on_c, 2, 33, 95
3, 115680, Note_off_c, 2, 33, 95
3, 115680, Note_on_c, 2, 33, 95
3, 116160, Note_off_c, 2, 33, 95
3, 116160, Note_on_c, 2, 33, 95
3, 116640, Note_off_c, 2, 33, 95
3, 116640, Note_on_c, 2, 33, 95
3, 117120, Note_off_c, 2, 33, 95
3, 117120, Note_on_c, 2, 33, 95
3, 117600, Note_off_c, 2, 33, 95
3, 117600, Note_on_c, 2, 33, 95
3, 118080, Note_off_c, 2, 33, 95
3, 118080, Note_on_c, 2, 33, 95
3, 118560, Note_off_c, 2, 33, 95
3, 118560, Note_on_c, 2, 33, 95
3, 118636, Note_off_c, 2, 33, 95
3, 119040, Note_on_c, 2, 38, 95
3, 119520, Note_off_c, 2, 38, 95
3, 119520, Note_on_c, 2, 38, 95
3, 120000, Note_off_c, 2, 38, 95
3, 120000, Note_on_c, 2, 38, 95
3, 120480, Note_off_c, 2, 38, 95
3, 120480, Note_on_c, 2, 38, 95
3, 120960, Note_off_c, 2, 38, 95
3, 120960, Note_on_c, 2, 38, 95
3, 121440, Note_off_c, 2, 38, 95
3, 121440, Note_on_c, 2, 38, 95
3, 121920, Note_off_c, 2, 38, 95
3, 121920, Note_on_c, 2, 38, 95
3, 122400, Note_off_c, 2, 38, 95
3, 122400, Note_on_c, 2, 38, 95
3, 122880, Note_off_c, 2, 38, 95
3, 122880, Note_on_c, 2, 36, 95
3, 123360, Note_off_c, 2, 36, 95
3, 123360, Note_on_c, 2, 36, 95
3, 123840, Note_off_c, 2, 36, 95
3, 123840, Note_on_c, 2, 36, 95
3, 124320, Note_off_c, 2, 36, 95
3, 124320, Note_on_c, 2, 36, 95
3, 124800, Note_off_c, 2, 36, 95
3, 124800, Note_on_c, 2, 36, 95
3, 125280, Note_off_c, 2, 36, 95
3, 125280, Note_on_c, 2, 36, 95
3, 125760, Note_off_c, 2, 36, 95
3, 125760, Note_on_c, 2, 36, 95
3, 126240, Note_off_c, 2, 36, 95
3, 126240, Note_on_c, 2, 33, 95
3, 126720, Note_off_c, 2, 33, 95
3, 126720, Note_on_c, 2, 33, 95
3, 127200, Note_off_c, 2, 33, 95
3, 127200, Note_on_c, 2, 33, 95
3, 127680, Note_off_c, 2, 33, 95
3, 127680, Note_on_c, 2, 33, 95
3, 128160, Note_off_c, 2, 33, 95
3, 128160, Note_on_c, 2, 33, 95
3, 128640, Note_off_c, 2, 33, 95
3, 128640, Note_on_c, 2, 33, 95
3, 129120, Note_off_c, 2, 33, 95
3, 129120, Note_on_c, 2, 33, 95
3, 129600, Note_off_c, 2, 33, 95
3, 129600, Note_on_c, 2, 33, 95
3, 130080, Note_off_c, 2, 33, 95
3, 130080, Note_on_c, 2, 33, 95
3, 130560, Note_off_c, 2, 33, 95
3, 130560, Note_on_c, 2, 33, 95
3, 131040, Note_off_c, 2, 33, 95
3, 131040, Note_on_c, 2, 33, 95
3, 131520, Note_off_c, 2, 33, 95
3, 131520, Note_on_c, 2, 33, 95
3, 132000, Note_off_c, 2, 33, 95
3, 132000, Note_on_c, 2, 33, 95
3, 132480, Note_off_c, 2, 33, 95
3, 132480, Note_on_c, 2, 33, 95
3, 132960, Note_off_c, 2, 33, 95
3, 132960, Note_on_c, 2, 33, 95
3, 133440, Note_off_c, 2, 33, 95
3, 133440, Note_on_c, 2, 33, 95
3, 133920, Note_off_c, 2, 33, 95
3, 133920, Note_on_c, 2, 33, 95
3, 134400, Note_off_c, 2, 33, 95
3, 134400, Note_on_c, 2, 38, 95
3, 134880, Note_off_c, 2, 38, 95
3, 134880, Note_on_c, 2, 38, 95
3, 135360, Note_off_c, 2, 38, 95
3, 135360, Note_on_c, 2, 38, 95
3, 135840, Note_off_c, 2, 38, 95
3, 135840, Note_on_c, 2, 38, 95
3, 136320, Note_off_c, 2, 38, 95
3, 136320, Note_on_c, 2, 38, 95
3, 136800, Note_off_c, 2, 38, 95
3, 136800, Note_on_c, 2, 38, 95
3, 137280, Note_off_c, 2, 38, 95
3, 137280, Note_on_c, 2, 38, 95
3, 137760, Note_off_c, 2, 38, 95
3, 137760, Note_on_c, 2, 36, 95
3, 138240, Note_off_c, 2, 36, 95
3, 138240, Note_on_c, 2, 36, 95
3, 138720, Note_off_c, 2, 36, 95
3, 138720, Note_on_c, 2, 36, 95
3, 139200, Note_off_c, 2, 36, 95
3, 139200, Note_on_c, 2, 36, 95
3, 139680, Note_off_c, 2, 36, 95
3, 139680, Note_on_c, 2, 36, 95
3, 140160, Note_off_c, 2, 36, 95
3, 140160, Note_on_c, 2, 36, 95
3, 140640, Note_off_c, 2, 36, 95
3, 140640, Note_on_c, 2, 36, 95
3, 141120, Note_off_c, 2, 36, 95
3, 141120, Note_on_c, 2, 36, 95
3, 141600, Note_off_c, 2, 36, 95
3, 141600, Note_on_c, 2, 33, 95
3, 142080, Note_off_c, 2, 33, 95
3, 142080, Note_on_c, 2, 33, 95
3, 142560, Note_off_c, 2, 33, 95
3, 142560, Note_on_c, 2, 33, 95
3, 143040, Note_off_c, 2, 33, 95
3, 143040, Note_on_c, 2, 33, 95
3, 143520, Note_off_c, 2, 33, 95
3, 143520, Note_on_c, 2, 33, 95
3, 144000, Note_off_c, 2, 33, 95
3, 144000, Note_on_c, 2, 33, 95
3, 144480, Note_off_c, 2, 33, 95
3, 144480, Note_on_c, 2, 33, 95
3, 144960, Note_off_c, 2, 33, 95
3, 144960, Note_on_c, 2, 33, 95
3, 145440, Note_off_c, 2, 33, 95
3, 145440, Note_on_c, 2, 33, 95
3, 145920, Note_off_c, 2, 33, 95
3, 145920, Note_on_c, 2, 33, 95
3, 146400, Note_off_c, 2, 33, 95
3, 146400, Note_on_c, 2, 33, 95
3, 146880, Note_off_c, 2, 33, 95
3, 146880, Note_on_c, 2, 33, 95
3, 147360, Note_off_c, 2, 33, 95
3, 147360, Note_on_c, 2, 33, 95
3, 147840, Note_off_c, 2, 33, 95
3, 147840, Note_on_c, 2, 33, 95
3, 148320, Note_off_c, 2, 33, 95
3, 148320, Note_on_c, 2, 33, 95
3, 148800, Note_off_c, 2, 33, 95
3, 148800, Note_on_c, 2, 33, 95
3, 149280, Note_off_c, 2, 33, 95
3, 149280, Note_on_c, 2, 33, 95
3, 149760, Note_off_c, 2, 33, 95
3, 149760, Note_on_c, 2, 33, 95
3, 150240, Note_off_c, 2, 33, 95
3, 150240, Note_on_c, 2, 33, 95
3, 150720, Note_off_c, 2, 33, 95
3, 150720, Note_on_c, 2, 33, 95
3, 152160, Note_off_c, 2, 33, 95
3, 152160, Note_on_c, 2, 33, 95
3, 153120, Note_off_c, 2, 33, 95
3, 153120, Note_on_c, 2, 33, 95
3, 153600, Note_off_c, 2, 33, 95
3, 153600, Note_on_c, 2, 33, 95
3, 154560, Note_off_c, 2, 33, 95
3, 155040, Note_on_c, 2, 31, 95
3, 155520, Note_off_c, 2, 31, 95
3, 155520, Note_on_c, 2, 31, 95
3, 156960, Note_off_c, 2, 31, 95
3, 156960, Note_on_c, 2, 40, 95
3, 157440, Note_off_c, 2, 40, 95
3, 157440, Note_on_c, 2, 38, 95
3, 158400, Note_off_c, 2, 38, 95
3, 158400, Note_on_c, 2, 36, 95
3, 158880, Note_off_c, 2, 36, 95
3, 158880, Note_on_c, 2, 33, 95
3, 159840, Note_off_c, 2, 33, 95
3, 159840, Note_on_c, 2, 33, 95
3, 160320, Note_off_c, 2, 33, 95
3, 160320, Note_on_c, 2, 33, 95
3, 161280, Note_off_c, 2, 33, 95
3, 161280, Note_on_c, 2, 31, 95
3, 163200, Note_off_c, 2, 31, 95
3, 163200, Note_on_c, 2, 31, 95
3, 163680, Note_off_c, 2, 31, 95
3, 163680, Note_on_c, 2, 31, 95
3, 164640, Note_off_c, 2, 31, 95
3, 164640, Note_on_c, 2, 30, 95
3, 165120, Note_off_c, 2, 30, 95
3, 165120, Note_on_c, 3, 35, 95
3, 165240, Pitch_bend_c, 3, 8960
3, 165360, Pitch_bend_c, 3, 9856
3, 165480, Pitch_bend_c, 3, 10752
3, 165600, Pitch_bend_c, 3, 11648
3, 165600, Pitch_bend_c, 3, 8192
3, 165600, Note_off_c, 3, 35, 95
3, 165600, Note_on_c, 2, 40, 95
3, 166080, Note_off_c, 2, 40, 95
3, 166080, Note_on_c, 2, 40, 95
3, 167040, Note_off_c, 2, 40, 95
3, 167040, Note_on_c, 2, 40, 95
3, 167520, Note_off_c, 2, 40, 95
3, 167520, Note_on_c, 2, 40, 95
3, 168000, Note_off_c, 2, 40, 95
3, 168000, Note_on_c, 2, 40, 95
3, 168480, Note_off_c, 2, 40, 95
3, 168960, Note_on_c, 2, 33, 95
3, 169920, Note_off_c, 2, 33, 95
3, 170400, Note_on_c, 2, 31, 95
3, 170880, Note_off_c, 2, 31, 95
3, 170880, Note_on_c, 2, 31, 95
3, 172320, Note_off_c, 2, 31, 95
3, 172320, Note_on_c, 2, 28, 95
3, 172396, Note_off_c, 2, 28, 95
3, 172800, Note_on_c, 2, 38, 95
3, 173760, Note_off_c, 2, 38, 95
3, 173760, Note_on_c, 2, 38, 95
3, 173836, Note_off_c, 2, 38, 95
3, 174240, Note_on_c, 2, 33, 95
3, 175200, Note_off_c, 2, 33, 95
3, 175200, Note_on_c, 2, 33, 95
3, 175680, Note_off_c, 2, 33, 95
3, 175680, Note_on_c, 2, 33, 95
3, 176160, Note_off_c, 2, 33, 95
3, 176640, Note_on_c, 2, 31, 95
3, 177600, Note_off_c, 2, 31, 95
3, 177600, Note_on_c, 2, 31, 95
3, 178560, Note_off_c, 2, 31, 95
3, 178560, Note_on_c, 2, 31, 95
3, 179040, Note_off_c, 2, 31, 95
3, 179040, Note_on_c, 2, 31, 95
3, 180000, Note_off_c, 2, 31, 95
3, 180000, Note_on_c, 2, 28, 95
3, 180076, Note_off_c, 2, 28, 95
3, 180480, Note_on_c, 2, 28, 95
3, 180960, Note_off_c, 2, 28, 95
3, 180960, Note_on_c, 2, 28, 95
3, 181440, Note_off_c, 2, 28, 95
3, 181440, Note_on_c, 2, 28, 95
3, 181920, Note_off_c, 2, 28, 95
3, 181920, Note_on_c, 2, 28, 95
3, 182400, Note_off_c, 2, 28, 95
3, 182400, Note_on_c, 2, 28, 95
3, 182880, Note_off_c, 2, 28, 95
3, 182880, Note_on_c, 2, 28, 95
3, 183360, Note_off_c, 2, 28, 95
3, 183360, Note_on_c, 2, 28, 95
3, 183840, Note_off_c, 2, 28, 95
3, 183840, Note_on_c, 2, 28, 95
3, 184320, Note_off_c, 2, 28, 95
3, 184320, Note_on_c, 2, 28, 95
3, 184800, Note_off_c, 2, 28, 95
3, 184800, Note_on_c, 2, 28, 95
3, 185280, Note_off_c, 2, 28, 95
3, 185280, Note_on_c, 2, 28, 95
3, 185760, Note_off_c, 2, 28, 95
3, 185760, Note_on_c, 2, 28, 95
3, 186240, Note_off_c, 2, 28, 95
3, 186240, Note_on_c, 2, 28, 95
3, 186720, Note_off_c, 2, 28, 95
3, 186720, Note_on_c, 2, 28, 95
3, 187200, Note_off_c, 2, 28, 95
3, 187200, Note_on_c, 2, 28, 95
3, 187680, Note_off_c, 2, 28, 95
3, 187680, Note_on_c, 2, 28, 95
3, 188160, Note_off_c, 2, 28, 95
3, 188160, Note_on_c, 2, 33, 95
3, 189120, Note_off_c, 2, 33, 95
3, 189120, Note_on_c, 2, 33, 95
3, 189600, Note_off_c, 2, 33, 95
3, 189600, Note_on_c, 2, 33, 95
3, 190080, Note_off_c, 2, 33, 95
3, 190080, Note_on_c, 2, 33, 95
3, 190560, Note_off_c, 2, 33, 95
3, 190560, Note_on_c, 2, 33, 95
3, 191520, Note_off_c, 2, 33, 95
3, 191520, Note_on_c, 2, 33, 95
3, 192000, Note_off_c, 2, 33, 95
3, 192000, Note_on_c, 2, 33, 95
3, 192480, Note_off_c, 2, 33, 95
3, 192480, Note_on_c, 2, 33, 95
3, 192960, Note_off_c, 2, 33, 95
3, 192960, Note_on_c, 2, 33, 95
3, 193440, Note_off_c, 2, 33, 95
3, 193440, Note_on_c, 2, 33, 95
3, 193920, Note_off_c, 2, 33, 95
3, 193920, Note_on_c, 2, 33, 95
3, 194400, Note_off_c, 2, 33, 95
3, 194400, Note_on_c, 2, 33, 95
3, 194880, Note_off_c, 2, 33, 95
3, 194880, Note_on_c, 2, 33, 95
3, 195360, Note_off_c, 2, 33, 95
3, 195360, Note_on_c, 2, 33, 95
3, 195436, Note_off_c, 2, 33, 95
3, 195840, Note_on_c, 2, 38, 95
3, 196320, Note_off_c, 2, 38, 95
3, 196320, Note_on_c, 2, 38, 95
3, 196800, Note_off_c, 2, 38, 95
3, 196800, Note_on_c, 2, 38, 95
3, 197280, Note_off_c, 2, 38, 95
3, 197280, Note_on_c, 2, 38, 95
3, 197760, Note_off_c, 2, 38, 95
3, 197760, Note_on_c, 2, 38, 95
3, 198240, Note_off_c, 2, 38, 95
3, 198240, Note_on_c, 2, 38, 95
3, 198720, Note_off_c, 2, 38, 95
3, 198720, Note_on_c, 2, 38, 95
3, 199200, Note_off_c, 2, 38, 95
3, 199200, Note_on_c, 2, 36, 95
3, 199680, Note_off_c, 2, 36, 95
3, 199680, Note_on_c, 2, 36, 95
3, 200160, Note_off_c, 2, 36, 95
3, 200160, Note_on_c, 2, 36, 95
3, 200640, Note_off_c, 2, 36, 95
3, 200640, Note_on_c, 2, 36, 95
3, 201120, Note_off_c, 2, 36, 95
3, 201120, Note_on_c, 2, 36, 95
3, 201600, Note_off_c, 2, 36, 95
3, 201600, Note_on_c, 2, 36, 95
3, 202080, Note_off_c, 2, 36, 95
3, 202080, Note_on_c, 2, 36, 95
3, 202560, Note_off_c, 2, 36, 95
3, 202560, Note_on_c, 2, 36, 95
3, 203040, Note_off_c, 2, 36, 95
3, 203040, Note_on_c, 2, 33, 95
3, 203520, Note_off_c, 2, 33, 95
3, 203520, Note_on_c, 2, 33, 95
3, 204000, Note_off_c, 2, 33, 95
3, 204000, Note_on_c, 2, 33, 95
3, 204480, Note_off_c, 2, 33, 95
3, 204480, Note_on_c, 2, 33, 95
3, 204960, Note_off_c, 2, 33, 95
3, 204960, Note_on_c, 2, 33, 95
3, 205440, Note_off_c, 2, 33, 95
3, 205440, Note_on_c, 2, 33, 95
3, 205920, Note_off_c, 2, 33, 95
3, 205920, Note_on_c, 2, 33, 95
3, 206400, Note_off_c, 2, 33, 95
3, 206400, Note_on_c, 2, 33, 95
3, 206880, Note_off_c, 2, 33, 95
3, 206880, Note_on_c, 2, 33, 95
3, 207360, Note_off_c, 2, 33, 95
3, 207360, Note_on_c, 2, 33, 95
3, 207840, Note_off_c, 2, 33, 95
3, 207840, Note_on_c, 2, 33, 95
3, 208320, Note_off_c, 2, 33, 95
3, 208320, Note_on_c, 2, 33, 95
3, 208800, Note_off_c, 2, 33, 95
3, 208800, Note_on_c, 2, 33, 95
3, 209280, Note_off_c, 2, 33, 95
3, 209280, Note_on_c, 2, 33, 95
3, 209760, Note_off_c, 2, 33, 95
3, 209760, Note_on_c, 2, 33, 95
3, 210240, Note_off_c, 2, 33, 95
3, 210240, Note_on_c, 2, 33, 95
3, 210720, Note_off_c, 2, 33, 95
3, 210720, Note_on_c, 2, 33, 95
3, 210796, Note_off_c, 2, 33, 95
3, 211200, Note_on_c, 2, 38, 95
3, 211680, Note_off_c, 2, 38, 95
3, 211680, Note_on_c, 2, 38, 95
3, 212160, Note_off_c, 2, 38, 95
3, 212160, Note_on_c, 2, 38, 95
3, 212640, Note_off_c, 2, 38, 95
3, 212640, Note_on_c, 2, 38, 95
3, 213120, Note_off_c, 2, 38, 95
3, 213120, Note_on_c, 2, 38, 95
3, 213600, Note_off_c, 2, 38, 95
3, 213600, Note_on_c, 2, 38, 95
3, 214080, Note_off_c, 2, 38, 95
3, 214080, Note_on_c, 2, 38, 95
3, 214560, Note_off_c, 2, 38, 95
3, 214560, Note_on_c, 2, 36, 95
3, 215040, Note_off_c, 2, 36, 95
3, 215040, Note_on_c, 2, 36, 95
3, 215520, Note_off_c, 2, 36, 95
3, 215520, Note_on_c, 2, 36, 95
3, 216000, Note_off_c, 2, 36, 95
3, 216000, Note_on_c, 2, 36, 95
3, 216480, Note_off_c, 2, 36, 95
3, 216480, Note_on_c, 2, 36, 95
3, 216960, Note_off_c, 2, 36, 95
3, 216960, Note_on_c, 2, 36, 95
3, 217440, Note_off_c, 2, 36, 95
3, 217440, Note_on_c, 2, 36, 95
3, 217920, Note_off_c, 2, 36, 95
3, 217920, Note_on_c, 2, 36, 95
3, 218400, Note_off_c, 2, 36, 95
3, 218400, Note_on_c, 2, 33, 95
3, 218880, Note_off_c, 2, 33, 95
3, 218880, Note_on_c, 2, 33, 95
3, 219360, Note_off_c, 2, 33, 95
3, 219360, Note_on_c, 2, 33, 95
3, 219840, Note_off_c, 2, 33, 95
3, 219840, Note_on_c, 2, 33, 95
3, 220320, Note_off_c, 2, 33, 95
3, 220320, Note_on_c, 2, 33, 95
3, 220800, Note_off_c, 2, 33, 95
3, 220800, Note_on_c, 2, 33, 95
3, 221280, Note_off_c, 2, 33, 95
3, 221280, Note_on_c, 2, 33, 95
3, 221760, Note_off_c, 2, 33, 95
3, 221760, Note_on_c, 2, 33, 95
3, 222240, Note_off_c, 2, 33, 95
3, 222240, Note_on_c, 2, 33, 95
3, 222720, Note_off_c, 2, 33, 95
3, 222720, Note_on_c, 2, 33, 95
3, 223200, Note_off_c, 2, 33, 95
3, 223200, Note_on_c, 2, 33, 95
3, 223680, Note_off_c, 2, 33, 95
3, 223680, Note_on_c, 2, 33, 95
3, 224160, Note_off_c, 2, 33, 95
3, 224160, Note_on_c, 2, 33, 95
3, 224640, Note_off_c, 2, 33, 95
3, 224640, Note_on_c, 2, 33, 95
3, 225120, Note_off_c, 2, 33, 95
3, 225120, Note_on_c, 2, 33, 95
3, 225600, Note_off_c, 2, 33, 95
3, 225600, Note_on_c, 2, 33, 95
3, 226080, Note_off_c, 2, 33, 95
3, 226080, Note_on_c, 2, 33, 95
3, 226156, Note_off_c, 2, 33, 95
3, 226560, Note_on_c, 2, 38, 95
3, 227040, Note_off_c, 2, 38, 95
3, 227040, Note_on_c, 2, 38, 95
3, 227520, Note_off_c, 2, 38, 95
3, 227520, Note_on_c, 2, 38, 95
3, 228000, Note_off_c, 2, 38, 95
3, 228000, Note_on_c, 2, 38, 95
3, 228480, Note_off_c, 2, 38, 95
3, 228480, Note_on_c, 2, 38, 95
3, 228960, Note_off_c, 2, 38, 95
3, 228960, Note_on_c, 2, 38, 95
3, 229440, Note_off_c, 2, 38, 95
3, 229440, Note_on_c, 2, 38, 95
3, 229920, Note_off_c, 2, 38, 95
3, 229920, Note_on_c, 2, 36, 95
3, 230400, Note_off_c, 2, 36, 95
3, 230400, Note_on_c, 2, 36, 95
3, 230880, Note_off_c, 2, 36, 95
3, 230880, Note_on_c, 2, 36, 95
3, 231360, Note_off_c, 2, 36, 95
3, 231360, Note_on_c, 2, 36, 95
3, 231840, Note_off_c, 2, 36, 95
3, 231840, Note_on_c, 2, 36, 95
3, 232320, Note_off_c, 2, 36, 95
3, 232320, Note_on_c, 2, 36, 95
3, 232800, Note_off_c, 2, 36, 95
3, 232800, Note_on_c, 2, 36, 95
3, 233280, Note_off_c, 2, 36, 95
3, 233280, Note_on_c, 2, 36, 95
3, 233760, Note_off_c, 2, 36, 95
3, 233760, Note_on_c, 2, 33, 95
3, 234240, Note_off_c, 2, 33, 95
3, 234240, Note_on_c, 2, 33, 95
3, 237120, Note_off_c, 2, 33, 95
3, 238080, Note_on_c, 2, 31, 95
3, 238560, Note_off_c, 2, 31, 95
3, 238560, Note_on_c, 2, 31, 95
3, 239040, Note_off_c, 2, 31, 95
3, 239040, Note_on_c, 2, 31, 95
3, 239520, Note_off_c, 2, 31, 95
3, 239520, Note_on_c, 2, 31, 95
3, 240000, Note_off_c, 2, 31, 95
3, 240000, Note_on_c, 2, 31, 95
3, 240480, Note_off_c, 2, 31, 95
3, 240480, Note_on_c, 2, 31, 95
3, 240960, Note_off_c, 2, 31, 95
3, 240960, Note_on_c, 2, 31, 95
3, 241440, Note_off_c, 2, 31, 95
3, 241440, Note_on_c, 2, 31, 95
3, 241920, Note_off_c, 2, 31, 95
3, 241920, Note_on_c, 2, 28, 95
3, 242400, Note_off_c, 2, 28, 95
3, 244320, Note_on_c, 3, 40, 111
3, 244440, Pitch_bend_c, 3, 7552
3, 244560, Pitch_bend_c, 3, 6784
3, 244680, Pitch_bend_c, 3, 6144
3, 244800, Pitch_bend_c, 3, 5376
3, 244920, Pitch_bend_c, 3, 4736
3, 245040, Pitch_bend_c, 3, 3968
3, 245160, Pitch_bend_c, 3, 3328
3, 245280, Pitch_bend_c, 3, 2560
3, 245400, Pitch_bend_c, 3, 1920
3, 245520, Pitch_bend_c, 3, 1152
3, 245640, Pitch_bend_c, 3, 512
3, 245760, Pitch_bend_c, 3, 0
3, 245760, Pitch_bend_c, 3, 8192
3, 245760, Note_off_c, 3, 40, 111
3, 245760, Note_on_c, 2, 28, 95
3, 246240, Note_off_c, 2, 28, 95
3, 246240, Note_on_c, 2, 28, 95
3, 246720, Note_off_c, 2, 28, 95
3, 246720, Note_on_c, 2, 28, 95
3, 247200, Note_off_c, 2, 28, 95
3, 247200, Note_on_c, 2, 28, 95
3, 247680, Note_off_c, 2, 28, 95
3, 247680, Note_on_c, 2, 28, 95
3, 248160, Note_off_c, 2, 28, 95
3, 248160, Note_on_c, 2, 28, 95
3, 248640, Note_off_c, 2, 28, 95
3, 248640, Note_on_c, 2, 28, 95
3, 249120, Note_off_c, 2, 28, 95
3, 249120, Note_on_c, 2, 28, 95
3, 249600, Note_off_c, 2, 28, 95
3, 249600, Note_on_c, 2, 28, 95
3, 250080, Note_off_c, 2, 28, 95
3, 250080, Note_on_c, 2, 28, 95
3, 250560, Note_off_c, 2, 28, 95
3, 250560, Note_on_c, 2, 28, 95
3, 251040, Note_off_c, 2, 28, 95
3, 251040, Note_on_c, 2, 28, 95
3, 251520, Note_off_c, 2, 28, 95
3, 251520, Note_on_c, 2, 28, 95
3, 252000, Note_off_c, 2, 28, 95
3, 252000, Note_on_c, 2, 28, 95
3, 252480, Note_off_c, 2, 28, 95
3, 252480, Note_on_c, 2, 28, 95
3, 252960, Note_off_c, 2, 28, 95
3, 252960, Note_on_c, 2, 28, 95
3, 253440, Note_off_c, 2, 28, 95
3, 253440, Note_on_c, 2, 28, 95
3, 253920, Note_off_c, 2, 28, 95
3, 253920, Note_on_c, 2, 28, 95
3, 254400, Note_off_c, 2, 28, 95
3, 254400, Note_on_c, 2, 28, 95
3, 254880, Note_off_c, 2, 28, 95
3, 254880, Note_on_c, 2, 28, 95
3, 255360, Note_off_c, 2, 28, 95
3, 255360, Note_on_c, 2, 28, 95
3, 255840, Note_off_c, 2, 28, 95
3, 255840, Note_on_c, 2, 28, 95
3, 256320, Note_off_c, 2, 28, 95
3, 256320, Note_on_c, 2, 28, 95
3, 256800, Note_off_c, 2, 28, 95
3, 256800, Note_on_c, 2, 28, 95
3, 257280, Note_off_c, 2, 28, 95
3, 257280, Note_on_c, 2, 33, 95
3, 257760, Note_off_c, 2, 33, 95
3, 257760, Note_on_c, 2, 33, 95
3, 258240, Note_off_c, 2, 33, 95
3, 258240, Note_on_c, 2, 33, 95
3, 259680, Note_off_c, 2, 33, 95
3, 259680, Note_on_c, 2, 33, 95
3, 260640, Note_off_c, 2, 33, 95
3, 260640, Note_on_c, 2, 33, 95
3, 261120, Note_off_c, 2, 33, 95
3, 261120, Note_on_c, 2, 33, 95
3, 262080, Note_off_c, 2, 33, 95
3, 262560, Note_on_c, 2, 31, 95
3, 263040, Note_off_c, 2, 31, 95
3, 263040, Note_on_c, 2, 31, 95
3, 264480, Note_off_c, 2, 31, 95
3, 264480, Note_on_c, 2, 40, 95
3, 264960, Note_off_c, 2, 40, 95
3, 264960, Note_on_c, 2, 38, 95
3, 265920, Note_off_c, 2, 38, 95
3, 265920, Note_on_c, 2, 36, 95
3, 266400, Note_off_c, 2, 36, 95
3, 266400, Note_on_c, 2, 33, 95
3, 267360, Note_off_c, 2, 33, 95
3, 267360, Note_on_c, 2, 33, 95
3, 267840, Note_off_c, 2, 33, 95
3, 267840, Note_on_c, 2, 33, 95
3, 268800, Note_off_c, 2, 33, 95
3, 268800, Note_on_c, 2, 31, 95
3, 270720, Note_off_c, 2, 31, 95
3, 270720, Note_on_c, 2, 31, 95
3, 271200, Note_off_c, 2, 31, 95
3, 271200, Note_on_c, 2, 31, 95
3, 272160, Note_off_c, 2, 31, 95
3, 272160, Note_on_c, 2, 30, 95
3, 272640, Note_off_c, 2, 30, 95
3, 272640, Note_on_c, 3, 35, 95
3, 272760, Pitch_bend_c, 3, 8960
3, 272880, Pitch_bend_c, 3, 9856
3, 273000, Pitch_bend_c, 3, 10752
3, 273120, Pitch_bend_c, 3, 11648
3, 273120, Pitch_bend_c, 3, 8192
3, 273120, Note_off_c, 3, 35, 95
3, 273120, Note_on_c, 2, 40, 95
3, 273600, Note_off_c, 2, 40, 95
3, 273600, Note_on_c, 2, 40, 95
3, 274560, Note_off_c, 2, 40, 95
3, 274560, Note_on_c, 2, 40, 95
3, 275040, Note_off_c, 2, 40, 95
3, 275040, Note_on_c, 2, 40, 95
3, 275520, Note_off_c, 2, 40, 95
3, 275520, Note_on_c, 2, 40, 95
3, 276000, Note_off_c, 2, 40, 95
3, 276480, Note_on_c, 2, 33, 95
3, 277440, Note_off_c, 2, 33, 95
3, 277920, Note_on_c, 2, 31, 95
3, 278400, Note_off_c, 2, 31, 95
3, 278400, Note_on_c, 2, 31, 95
3, 279840, Note_off_c, 2, 31, 95
3, 279840, Note_on_c, 2, 28, 95
3, 279916, Note_off_c, 2, 28, 95
3, 280320, Note_on_c, 2, 38, 95
3, 281280, Note_off_c, 2, 38, 95
3, 281280, Note_on_c, 2, 38, 95
3, 281356, Note_off_c, 2, 38, 95
3, 281760, Note_on_c, 2, 33, 95
3, 282720, Note_off_c, 2, 33, 95
3, 282720, Note_on_c, 2, 33, 95
3, 283200, Note_off_c, 2, 33, 95
3, 283200, Note_on_c, 2, 33, 95
3, 283680, Note_off_c, 2, 33, 95
3, 284160, Note_on_c, 2, 31, 95
3, 285120, Note_off_c, 2, 31, 95
3, 285120, Note_on_c, 2, 31, 95
3, 286080, Note_off_c, 2, 31, 95
3, 286080, Note_on_c, 2, 31, 95
3, 286560, Note_off_c, 2, 31, 95
3, 286560, Note_on_c, 2, 31, 95
3, 287520, Note_off_c, 2, 31, 95
3, 287520, Note_on_c, 2, 28, 95
3, 287596, Note_off_c, 2, 28, 95
3, 288000, Note_on_c, 2, 28, 95
3, 288480, Note_off_c, 2, 28, 95
3, 288480, Note_on_c, 2, 28, 95
3, 288960, Note_off_c, 2, 28, 95
3, 288960, Note_on_c, 2, 28, 95
3, 289440, Note_off_c, 2, 28, 95
3, 289440, Note_on_c, 2, 28, 95
3, 289920, Note_off_c, 2, 28, 95
3, 289920, Note_on_c, 2, 28, 95
3, 290400, Note_off_c, 2, 28, 95
3, 290400, Note_on_c, 2, 28, 95
3, 290880, Note_off_c, 2, 28, 95
3, 290880, Note_on_c, 2, 28, 95
3, 291360, Note_off_c, 2, 28, 95
3, 291360, Note_on_c, 2, 28, 95
3, 291840, Note_off_c, 2, 28, 95
3, 291840, Note_on_c, 2, 28, 95
3, 292320, Note_off_c, 2, 28, 95
3, 292320, Note_on_c, 2, 28, 95
3, 292800, Note_off_c, 2, 28, 95
3, 292800, Note_on_c, 2, 28, 95
3, 293280, Note_off_c, 2, 28, 95
3, 293280, Note_on_c, 2, 28, 95
3, 293760, Note_off_c, 2, 28, 95
3, 293760, Note_on_c, 2, 28, 95
3, 294240, Note_off_c, 2, 28, 95
3, 294240, Note_on_c, 2, 28, 95
3, 294720, Note_off_c, 2, 28, 95
3, 294720, Note_on_c, 2, 28, 95
3, 295200, Note_off_c, 2, 28, 95
3, 295200, Note_on_c, 2, 28, 95
3, 295680, Note_off_c, 2, 28, 95
3, 295680, Note_on_c, 2, 33, 95
3, 296640, Note_off_c, 2, 33, 95
3, 296640, Note_on_c, 2, 33, 95
3, 297120, Note_off_c, 2, 33, 95
3, 297120, Note_on_c, 2, 33, 95
3, 297600, Note_off_c, 2, 33, 95
3, 297600, Note_on_c, 2, 33, 95
3, 298080, Note_off_c, 2, 33, 95
3, 298080, Note_on_c, 2, 33, 95
3, 299040, Note_off_c, 2, 33, 95
3, 299040, Note_on_c, 2, 33, 95
3, 299520, Note_off_c, 2, 33, 95
3, 299520, Note_on_c, 2, 33, 95
3, 300000, Note_off_c, 2, 33, 95
3, 300000, Note_on_c, 2, 33, 95
3, 300480, Note_off_c, 2, 33, 95
3, 300480, Note_on_c, 2, 33, 95
3, 300960, Note_off_c, 2, 33, 95
3, 300960, Note_on_c, 2, 33, 95
3, 301440, Note_off_c, 2, 33, 95
3, 301440, Note_on_c, 2, 33, 95
3, 301920, Note_off_c, 2, 33, 95
3, 301920, Note_on_c, 2, 33, 95
3, 302400, Note_off_c, 2, 33, 95
3, 302400, Note_on_c, 2, 33, 95
3, 302880, Note_off_c, 2, 33, 95
3, 302880, Note_on_c, 2, 33, 95
3, 302956, Note_off_c, 2, 33, 95
3, 303360, Note_on_c, 2, 38, 95
3, 303840, Note_off_c, 2, 38, 95
3, 303840, Note_on_c, 2, 38, 95
3, 304320, Note_off_c, 2, 38, 95
3, 304320, Note_on_c, 2, 38, 95
3, 304800, Note_off_c, 2, 38, 95
3, 304800, Note_on_c, 2, 38, 95
3, 305280, Note_off_c, 2, 38, 95
3, 305280, Note_on_c, 2, 38, 95
3, 305760, Note_off_c, 2, 38, 95
3, 305760, Note_on_c, 2, 38, 95
3, 306240, Note_off_c, 2, 38, 95
3, 306240, Note_on_c, 2, 38, 95
3, 306720, Note_off_c, 2, 38, 95
3, 306720, Note_on_c, 2, 36, 95
3, 307200, Note_off_c, 2, 36, 95
3, 307200, Note_on_c, 2, 36, 95
3, 307680, Note_off_c, 2, 36, 95
3, 307680, Note_on_c, 2, 36, 95
3, 308160, Note_off_c, 2, 36, 95
3, 308160, Note_on_c, 2, 36, 95
3, 308640, Note_off_c, 2, 36, 95
3, 308640, Note_on_c, 2, 36, 95
3, 309120, Note_off_c, 2, 36, 95
3, 309120, Note_on_c, 2, 36, 95
3, 309600, Note_off_c, 2, 36, 95
3, 309600, Note_on_c, 2, 36, 95
3, 310080, Note_off_c, 2, 36, 95
3, 310080, Note_on_c, 2, 36, 95
3, 310560, Note_off_c, 2, 36, 95
3, 310560, Note_on_c, 2, 33, 95
3, 311040, Note_off_c, 2, 33, 95
3, 311040, Note_on_c, 2, 33, 95
3, 311520, Note_off_c, 2, 33, 95
3, 311520, Note_on_c, 2, 33, 95
3, 312000, Note_off_c, 2, 33, 95
3, 312000, Note_on_c, 2, 33, 95
3, 312480, Note_off_c, 2, 33, 95
3, 312480, Note_on_c, 2, 33, 95
3, 312960, Note_off_c, 2, 33, 95
3, 312960, Note_on_c, 2, 33, 95
3, 313440, Note_off_c, 2, 33, 95
3, 313440, Note_on_c, 2, 33, 95
3, 313920, Note_off_c, 2, 33, 95
3, 313920, Note_on_c, 2, 33, 95
3, 314400, Note_off_c, 2, 33, 95
3, 314400, Note_on_c, 2, 33, 95
3, 314880, Note_off_c, 2, 33, 95
3, 314880, Note_on_c, 2, 33, 95
3, 315360, Note_off_c, 2, 33, 95
3, 315360, Note_on_c, 2, 33, 95
3, 315840, Note_off_c, 2, 33, 95
3, 315840, Note_on_c, 2, 33, 95
3, 316320, Note_off_c, 2, 33, 95
3, 316320, Note_on_c, 2, 33, 95
3, 316800, Note_off_c, 2, 33, 95
3, 316800, Note_on_c, 2, 33, 95
3, 317280, Note_off_c, 2, 33, 95
3, 317280, Note_on_c, 2, 33, 95
3, 317760, Note_off_c, 2, 33, 95
3, 317760, Note_on_c, 2, 33, 95
3, 318240, Note_off_c, 2, 33, 95
3, 318240, Note_on_c, 2, 33, 95
3, 318316, Note_off_c, 2, 33, 95
3, 318720, Note_on_c, 2, 38, 95
3, 319200, Note_off_c, 2, 38, 95
3, 319200, Note_on_c, 2, 38, 95
3, 319680, Note_off_c, 2, 38, 95
3, 319680, Note_on_c, 2, 38, 95
3, 320160, Note_off_c, 2, 38, 95
3, 320160, Note_on_c, 2, 38, 95
3, 320640, Note_off_c, 2, 38, 95
3, 320640, Note_on_c, 2, 38, 95
3, 321120, Note_off_c, 2, 38, 95
3, 321120, Note_on_c, 2, 38, 95
3, 321600, Note_off_c, 2, 38, 95
3, 321600, Note_on_c, 2, 38, 95
3, 322080, Note_off_c, 2, 38, 95
3, 322080, Note_on_c, 2, 36, 95
3, 322560, Note_off_c, 2, 36, 95
3, 322560, Note_on_c, 2, 36, 95
3, 323040, Note_off_c, 2, 36, 95
3, 323040, Note_on_c, 2, 36, 95
3, 323520, Note_off_c, 2, 36, 95
3, 323520, Note_on_c, 2, 36, 95
3, 324000, Note_off_c, 2, 36, 95
3, 324000, Note_on_c, 2, 36, 95
3, 324480, Note_off_c, 2, 36, 95
3, 324480, Note_on_c, 2, 36, 95
3, 324960, Note_off_c, 2, 36, 95
3, 324960, Note_on_c, 2, 36, 95
3, 325440, Note_off_c, 2, 36, 95
3, 325440, Note_on_c, 2, 36, 95
3, 325920, Note_off_c, 2, 36, 95
3, 325920, Note_on_c, 2, 33, 95
3, 326400, Note_off_c, 2, 33, 95
3, 326400, Note_on_c, 2, 33, 95
3, 326880, Note_off_c, 2, 33, 95
3, 326880, Note_on_c, 2, 33, 95
3, 327360, Note_off_c, 2, 33, 95
3, 327360, Note_on_c, 2, 33, 95
3, 327840, Note_off_c, 2, 33, 95
3, 327840, Note_on_c, 2, 33, 95
3, 328320, Note_off_c, 2, 33, 95
3, 328320, Note_on_c, 2, 33, 95
3, 328800, Note_off_c, 2, 33, 95
3, 328800, Note_on_c, 2, 33, 95
3, 329280, Note_off_c, 2, 33, 95
3, 329280, Note_on_c, 2, 33, 95
3, 329760, Note_off_c, 2, 33, 95
3, 329760, Note_on_c, 2, 33, 95
3, 330240, Note_off_c, 2, 33, 95
3, 330240, Note_on_c, 2, 33, 95
3, 330720, Note_off_c, 2, 33, 95
3, 330720, Note_on_c, 2, 33, 95
3, 331200, Note_off_c, 2, 33, 95
3, 331200, Note_on_c, 2, 33, 95
3, 331680, Note_off_c, 2, 33, 95
3, 331680, Note_on_c, 2, 33, 95
3, 332160, Note_off_c, 2, 33, 95
3, 332160, Note_on_c, 2, 33, 95
3, 332640, Note_off_c, 2, 33, 95
3, 332640, Note_on_c, 2, 33, 95
3, 333120, Note_off_c, 2, 33, 95
3, 333120, Note_on_c, 2, 33, 95
3, 333600, Note_off_c, 2, 33, 95
3, 333600, Note_on_c, 2, 33, 95
3, 333676, Note_off_c, 2, 33, 95
3, 334080, Note_on_c, 2, 38, 95
3, 334560, Note_off_c, 2, 38, 95
3, 334560, Note_on_c, 2, 38, 95
3, 335040, Note_off_c, 2, 38, 95
3, 335040, Note_on_c, 2, 38, 95
3, 335520, Note_off_c, 2, 38, 95
3, 335520, Note_on_c, 2, 38, 95
3, 336000, Note_off_c, 2, 38, 95
3, 336000, Note_on_c, 2, 38, 95
3, 336480, Note_off_c, 2, 38, 95
3, 336480, Note_on_c, 2, 38, 95
3, 336960, Note_off_c, 2, 38, 95
3, 336960, Note_on_c, 2, 38, 95
3, 337440, Note_off_c, 2, 38, 95
3, 337440, Note_on_c, 2, 36, 95
3, 337920, Note_off_c, 2, 36, 95
3, 337920, Note_on_c, 2, 36, 95
3, 338400, Note_off_c, 2, 36, 95
3, 338400, Note_on_c, 2, 36, 95
3, 338880, Note_off_c, 2, 36, 95
3, 338880, Note_on_c, 2, 36, 95
3, 339360, Note_off_c, 2, 36, 95
3, 339360, Note_on_c, 2, 36, 95
3, 339840, Note_off_c, 2, 36, 95
3, 339840, Note_on_c, 2, 36, 95
3, 340320, Note_off_c, 2, 36, 95
3, 340320, Note_on_c, 2, 36, 95
3, 340800, Note_off_c, 2, 36, 95
3, 340800, Note_on_c, 2, 36, 95
3, 341280, Note_off_c, 2, 36, 95
3, 341280, Note_on_c, 2, 33, 95
3, 341760, Note_off_c, 2, 33, 95
3, 341760, Note_on_c, 2, 33, 95
3, 344640, Note_off_c, 2, 33, 95
3, 345600, Note_on_c, 2, 31, 95
3, 346080, Note_off_c, 2, 31, 95
3, 346080, Note_on_c, 2, 31, 95
3, 346560, Note_off_c, 2, 31, 95
3, 346560, Note_on_c, 2, 31, 95
3, 347040, Note_off_c, 2, 31, 95
3, 347040, Note_on_c, 2, 31, 95
3, 347520, Note_off_c, 2, 31, 95
3, 347520, Note_on_c, 2, 31, 95
3, 348000, Note_off_c, 2, 31, 95
3, 348000, Note_on_c, 2, 31, 95
3, 348480, Note_off_c, 2, 31, 95
3, 348480, Note_on_c, 2, 31, 95
3, 348960, Note_off_c, 2, 31, 95
3, 348960, Note_on_c, 2, 31, 95
3, 349440, Note_off_c, 2, 31, 95
3, 349440, Note_on_c, 2, 28, 95
3, 349920, Note_off_c, 2, 28, 95
3, 351840, Note_on_c, 3, 40, 111
3, 351960, Pitch_bend_c, 3, 7552
3, 352080, Pitch_bend_c, 3, 6784
3, 352200, Pitch_bend_c, 3, 6144
3, 352320, Pitch_bend_c, 3, 5376
3, 352440, Pitch_bend_c, 3, 4736
3, 352560, Pitch_bend_c, 3, 3968
3, 352680, Pitch_bend_c, 3, 3328
3, 352800, Pitch_bend_c, 3, 2560
3, 352920, Pitch_bend_c, 3, 1920
3, 353040, Pitch_bend_c, 3, 1152
3, 353160, Pitch_bend_c, 3, 512
3, 353280, Pitch_bend_c, 3, 0
3, 353280, Pitch_bend_c, 3, 8192
3, 353280, Note_off_c, 3, 40, 111
3, 353280, Note_on_c, 2, 28, 95
3, 353760, Note_off_c, 2, 28, 95
3, 353760, Note_on_c, 2, 28, 95
3, 354240, Note_off_c, 2, 28, 95
3, 354240, Note_on_c, 2, 28, 95
3, 354720, Note_off_c, 2, 28, 95
3, 354720, Note_on_c, 2, 28, 95
3, 355200, Note_off_c, 2, 28, 95
3, 355200, Note_on_c, 2, 28, 95
3, 355680, Note_off_c, 2, 28, 95
3, 355680, Note_on_c, 2, 28, 95
3, 356160, Note_off_c, 2, 28, 95
3, 356160, Note_on_c, 2, 28, 95
3, 356640, Note_off_c, 2, 28, 95
3, 356640, Note_on_c, 2, 28, 95
3, 357120, Note_off_c, 2, 28, 95
3, 357120, Note_on_c, 2, 28, 95
3, 357600, Note_off_c, 2, 28, 95
3, 357600, Note_on_c, 2, 28, 95
3, 358080, Note_off_c, 2, 28, 95
3, 358080, Note_on_c, 2, 28, 95
3, 358560, Note_off_c, 2, 28, 95
3, 358560, Note_on_c, 2, 28, 95
3, 359040, Note_off_c, 2, 28, 95
3, 359040, Note_on_c, 2, 28, 95
3, 359520, Note_off_c, 2, 28, 95
3, 359520, Note_on_c, 2, 28, 95
3, 360000, Note_off_c, 2, 28, 95
3, 360000, Note_on_c, 2, 28, 95
3, 360480, Note_off_c, 2, 28, 95
3, 360480, Note_on_c, 2, 28, 95
3, 360960, Note_off_c, 2, 28, 95
3, 360960, Note_on_c, 2, 28, 95
3, 361440, Note_off_c, 2, 28, 95
3, 361440, Note_on_c, 2, 28, 95
3, 361920, Note_off_c, 2, 28, 95
3, 361920, Note_on_c, 2, 28, 95
3, 362400, Note_off_c, 2, 28, 95
3, 362400, Note_on_c, 2, 28, 95
3, 362880, Note_off_c, 2, 28, 95
3, 362880, Note_on_c, 2, 28, 95
3, 363360, Note_off_c, 2, 28, 95
3, 363360, Note_on_c, 2, 28, 95
3, 363840, Note_off_c, 2, 28, 95
3, 363840, Note_on_c, 2, 28, 95
3, 364320, Note_off_c, 2, 28, 95
3, 364320, Note_on_c, 2, 28, 95
3, 364800, Note_off_c, 2, 28, 95
3, 364800, Note_on_c, 2, 33, 95
3, 365280, Note_off_c, 2, 33, 95
3, 365280, Note_on_c, 2, 33, 95
3, 365760, Note_off_c, 2, 33, 95
3, 365760, Note_on_c, 2, 33, 95
3, 367200, Note_off_c, 2, 33, 95
3, 367200, Note_on_c, 2, 33, 95
3, 368160, Note_off_c, 2, 33, 95
3, 368160, Note_on_c, 2, 33, 95
3, 368640, Note_off_c, 2, 33, 95
3, 368640, Note_on_c, 2, 33, 95
3, 368880, Note_off_c, 2, 33, 95
3, 368880, Note_on_c, 2, 33, 95
3, 369120, Note_off_c, 2, 33, 95
3, 369120, Note_on_c, 2, 33, 95
3, 369360, Note_off_c, 2, 33, 95
3, 369360, Note_on_c, 2, 33, 95
3, 369600, Note_off_c, 2, 33, 95
3, 369600, Note_on_c, 3, 45, 95
3, 370560, Note_off_c, 3, 45, 95
3, 372480, Note_on_c, 2, 33, 95
3, 373440, Note_off_c, 2, 33, 95
3, 373440, Note_on_c, 2, 43, 95
3, 373920, Note_off_c, 2, 43, 95
3, 373920, Note_on_c, 2, 45, 95
3, 374400, Note_off_c, 2, 45, 95
3, 374400, Note_on_c, 2, 33, 95
3, 375360, Note_off_c, 2, 33, 95
3, 375360, Note_on_c, 2, 43, 95
3, 375840, Note_off_c, 2, 43, 95
3, 375840, Note_on_c, 2, 45, 95
3, 376320, Note_off_c, 2, 45, 95
3, 376320, End_track
4, 0, Start_track
4, 0, Pitch_bend_c, 9, 8192
4, 0, Control_c, 9, 7, 103
4, 0, Control_c, 9, 10, 63
4, 0, Control_c, 9, 93, 0
4, 0, Control_c, 9, 91, 0
4, 0, Control_c, 9, 95, 0
4, 0, Control_c, 9, 92, 0
4, 0, Control_c, 9, 11, 127
4, 0, Program_c, 9, 0
4, 30720, Note_on_c, 9, 36, 95
4, 30720, Note_on_c, 9, 45, 95
4, 30960, Note_off_c, 9, 36, 95
4, 30960, Note_off_c, 9, 45, 95
4, 30960, Note_on_c, 9, 45, 95
4, 31200, Note_off_c, 9, 45, 95
4, 31200, Note_on_c, 9, 36, 95
4, 31200, Note_on_c, 9, 45, 95
4, 31440, Note_off_c, 9, 36, 95
4, 31440, Note_off_c, 9, 45, 95
4, 31440, Note_on_c, 9, 45, 95
4, 31680, Note_off_c, 9, 45, 95
4, 31680, Note_on_c, 9, 36, 95
4, 31680, Note_on_c, 9, 45, 95
4, 32160, Note_off_c, 9, 36, 95
4, 32160, Note_off_c, 9, 45, 95
4, 32160, Note_on_c, 9, 45, 95
4, 32640, Note_off_c, 9, 45, 95
4, 32640, Note_on_c, 9, 36, 95
4, 32640, Note_on_c, 9, 45, 95
4, 33120, Note_off_c, 9, 36, 95
4, 33120, Note_off_c, 9, 45, 95
4, 33120, Note_on_c, 9, 45, 95
4, 33600, Note_off_c, 9, 45, 95
4, 33600, Note_on_c, 9, 36, 95
4, 33600, Note_on_c, 9, 45, 95
4, 34080, Note_off_c, 9, 36, 95
4, 34080, Note_off_c, 9, 45, 95
4, 34080, Note_on_c, 9, 45, 95
4, 34560, Note_off_c, 9, 45, 95
4, 34560, Note_on_c, 9, 36, 95
4, 34560, Note_on_c, 9, 45, 95
4, 35040, Note_off_c, 9, 36, 95
4, 35040, Note_off_c, 9, 45, 95
4, 35040, Note_on_c, 9, 45, 95
4, 35520, Note_off_c, 9, 45, 95
4, 35520, Note_on_c, 9, 36, 95
4, 35520, Note_on_c, 9, 45, 95
4, 36000, Note_off_c, 9, 36, 95
4, 36000, Note_off_c, 9, 45, 95
4, 36000, Note_on_c, 9, 45, 95
4, 36480, Note_off_c, 9, 45, 95
4, 36480, Note_on_c, 9, 36, 95
4, 36480, Note_on_c, 9, 45, 95
4, 36960, Note_off_c, 9, 36, 95
4, 36960, Note_off_c, 9, 45, 95
4, 36960, Note_on_c, 9, 45, 95
4, 37440, Note_off_c, 9, 45, 95
4, 37440, Note_on_c, 9, 36, 95
4, 37440, Note_on_c, 9, 45, 95
4, 37920, Note_off_c, 9, 36, 95
4, 37920, Note_off_c, 9, 45, 95
4, 37920, Note_on_c, 9, 45, 95
4, 38400, Note_off_c, 9, 45, 95
4, 38400, Note_on_c, 9, 36, 95
4, 38400, Note_on_c, 9, 45, 95
4, 38640, Note_off_c, 9, 36, 95
4, 38640, Note_off_c, 9, 45, 95
4, 38640, Note_on_c, 9, 45, 95
4, 38880, Note_off_c, 9, 45, 95
4, 38880, Note_on_c, 9, 36, 95
4, 38880, Note_on_c, 9, 45, 95
4, 39120, Note_off_c, 9, 36, 95
4, 39120, Note_off_c, 9, 45, 95
4, 39120, Note_on_c, 9, 45, 95
4, 39360, Note_off_c, 9, 45, 95
4, 39360, Note_on_c, 9, 36, 95
4, 39360, Note_on_c, 9, 45, 95
4, 39840, Note_off_c, 9, 36, 95
4, 39840, Note_off_c, 9, 45, 95
4, 39840, Note_on_c, 9, 45, 95
4, 40320, Note_off_c, 9, 45, 95
4, 40320, Note_on_c, 9, 36, 95
4, 40320, Note_on_c, 9, 45, 95
4, 40800, Note_off_c, 9, 36, 95
4, 40800, Note_off_c, 9, 45, 95
4, 40800, Note_on_c, 9, 45, 95
4, 41280, Note_off_c, 9, 45, 95
4, 41280, Note_on_c, 9, 36, 95
4, 41280, Note_on_c, 9, 45, 95
4, 41760, Note_off_c, 9, 36, 95
4, 41760, Note_off_c, 9, 45, 95
4, 41760, Note_on_c, 9, 45, 95
4, 42240, Note_off_c, 9, 45, 95
4, 42240, Note_on_c, 9, 36, 95
4, 42240, Note_on_c, 9, 45, 95
4, 42720, Note_off_c, 9, 36, 95
4, 42720, Note_off_c, 9, 45, 95
4, 42720, Note_on_c, 9, 45, 95
4, 43200, Note_off_c, 9, 45, 95
4, 43200, Note_on_c, 9, 36, 95
4, 43200, Note_on_c, 9, 45, 95
4, 43680, Note_off_c, 9, 36, 95
4, 43680, Note_off_c, 9, 45, 95
4, 43680, Note_on_c, 9, 45, 95
4, 44160, Note_off_c, 9, 45, 95
4, 44160, Note_on_c, 9, 36, 95
4, 44160, Note_on_c, 9, 45, 95
4, 44640, Note_off_c, 9, 36, 95
4, 44640, Note_off_c, 9, 45, 95
4, 44640, Note_on_c, 9, 45, 95
4, 45120, Note_off_c, 9, 45, 95
4, 45120, Note_on_c, 9, 36, 95
4, 45120, Note_on_c, 9, 45, 95
4, 45600, Note_off_c, 9, 36, 95
4, 45600, Note_off_c, 9, 45, 95
4, 45600, Note_on_c, 9, 45, 95
4, 46080, Note_off_c, 9, 45, 95
4, 46080, Note_on_c, 9, 36, 95
4, 46080, Note_on_c, 9, 45, 95
4, 46320, Note_off_c, 9, 36, 95
4, 46320, Note_off_c, 9, 45, 95
4, 46320, Note_on_c, 9, 45, 95
4, 46560, Note_off_c, 9, 45, 95
4, 46560, Note_on_c, 9, 36, 95
4, 46560, Note_on_c, 9, 45, 95
4, 46800, Note_off_c, 9, 36, 95
4, 46800, Note_off_c, 9, 45, 95
4, 46800, Note_on_c, 9, 45, 95
4, 47040, Note_off_c, 9, 45, 95
4, 47040, Note_on_c, 9, 36, 95
4, 47040, Note_on_c, 9, 45, 95
4, 47520, Note_off_c, 9, 36, 95
4, 47520, Note_off_c, 9, 45, 95
4, 47520, Note_on_c, 9, 45, 95
4, 48000, Note_off_c, 9, 45, 95
4, 48000, Note_on_c, 9, 36, 95
4, 48000, Note_on_c, 9, 45, 95
4, 48480, Note_off_c, 9, 36, 95
4, 48480, Note_off_c, 9, 45, 95
4, 48480, Note_on_c, 9, 45, 95
4, 48960, Note_off_c, 9, 45, 95
4, 48960, Note_on_c, 9, 36, 95
4, 48960, Note_on_c, 9, 45, 95
4, 49440, Note_off_c, 9, 36, 95
4, 49440, Note_off_c, 9, 45, 95
4, 49440, Note_on_c, 9, 45, 95
4, 49920, Note_off_c, 9, 45, 95
4, 49920, Note_on_c, 9, 36, 95
4, 49920, Note_on_c, 9, 45, 95
4, 50400, Note_off_c, 9, 36, 95
4, 50400, Note_off_c, 9, 45, 95
4, 50400, Note_on_c, 9, 45, 95
4, 50880, Note_off_c, 9, 45, 95
4, 50880, Note_on_c, 9, 36, 95
4, 50880, Note_on_c, 9, 45, 95
4, 51360, Note_off_c, 9, 36, 95
4, 51360, Note_off_c, 9, 45, 95
4, 51360, Note_on_c, 9, 45, 95
4, 51840, Note_off_c, 9, 45, 95
4, 51840, Note_on_c, 9, 36, 95
4, 51840, Note_on_c, 9, 45, 95
4, 52320, Note_off_c, 9, 36, 95
4, 52320, Note_off_c, 9, 45, 95
4, 52320, Note_on_c, 9, 45, 95
4, 52800, Note_off_c, 9, 45, 95
4, 52800, Note_on_c, 9, 36, 95
4, 52800, Note_on_c, 9, 45, 95
4, 53280, Note_off_c, 9, 36, 95
4, 53280, Note_off_c, 9, 45, 95
4, 53280, Note_on_c, 9, 45, 95
4, 53760, Note_off_c, 9, 45, 95
4, 53760, Note_on_c, 9, 36, 95
4, 53760, Note_on_c, 9, 45, 95
4, 54000, Note_off_c, 9, 36, 95
4, 54000, Note_off_c, 9, 45, 95
4, 54000, Note_on_c, 9, 45, 95
4, 54240, Note_off_c, 9, 45, 95
4, 54240, Note_on_c, 9, 36, 95
4, 54240, Note_on_c, 9, 45, 95
4, 54480, Note_off_c, 9, 36, 95
4, 54480, Note_off_c, 9, 45, 95
4, 54480, Note_on_c, 9, 45, 95
4, 54720, Note_off_c, 9, 45, 95
4, 54720, Note_on_c, 9, 36, 95
4, 54720, Note_on_c, 9, 45, 95
4, 55200, Note_off_c, 9, 36, 95
4, 55200, Note_off_c, 9, 45, 95
4, 55200, Note_on_c, 9, 45, 95
4, 55680, Note_off_c, 9, 45, 95
4, 55680, Note_on_c, 9, 36, 95
4, 55680, Note_on_c, 9, 45, 95
4, 56160, Note_off_c, 9, 36, 95
4, 56160, Note_off_c, 9, 45, 95
4, 56160, Note_on_c, 9, 45, 95
4, 56640, Note_off_c, 9, 45, 95
4, 56640, Note_on_c, 9, 36, 95
4, 56640, Note_on_c, 9, 45, 95
4, 57120, Note_off_c, 9, 36, 95
4, 57120, Note_off_c, 9, 45, 95
4, 57120, Note_on_c, 9, 45, 95
4, 57600, Note_off_c, 9, 45, 95
4, 57600, Note_on_c, 9, 36, 95
4, 57600, Note_on_c, 9, 45, 95
4, 58080, Note_off_c, 9, 36, 95
4, 58080, Note_off_c, 9, 45, 95
4, 58080, Note_on_c, 9, 45, 95
4, 58560, Note_off_c, 9, 45, 95
4, 58560, Note_on_c, 9, 36, 95
4, 58560, Note_on_c, 9, 45, 95
4, 59040, Note_off_c, 9, 36, 95
4, 59040, Note_off_c, 9, 45, 95
4, 59040, Note_on_c, 9, 45, 95
4, 59520, Note_off_c, 9, 45, 95
4, 59520, Note_on_c, 9, 36, 95
4, 59520, Note_on_c, 9, 45, 95
4, 60000, Note_off_c, 9, 36, 95
4, 60000, Note_off_c, 9, 45, 95
4, 60000, Note_on_c, 9, 45, 95
4, 60480, Note_off_c, 9, 45, 95
4, 60480, Note_on_c, 9, 36, 95
4, 60480, Note_on_c, 9, 45, 95
4, 60960, Note_off_c, 9, 36, 95
4, 60960, Note_off_c, 9, 45, 95
4, 60960, Note_on_c, 9, 45, 95
4, 61440, Note_off_c, 9, 45, 95
4, 61440, Note_on_c, 9, 49, 95
4, 61440, Note_on_c, 9, 45, 95
4, 61920, Note_off_c, 9, 49, 95
4, 61920, Note_off_c, 9, 45, 95
4, 62400, Note_on_c, 9, 45, 95
4, 62880, Note_off_c, 9, 45, 95
4, 63360, Note_on_c, 9, 45, 95
4, 63840, Note_off_c, 9, 45, 95
4, 64320, Note_on_c, 9, 45, 95
4, 64800, Note_off_c, 9, 45, 95
4, 65280, Note_on_c, 9, 45, 95
4, 65760, Note_off_c, 9, 45, 95
4, 66240, Note_on_c, 9, 45, 95
4, 66720, Note_off_c, 9, 45, 95
4, 67200, Note_on_c, 9, 45, 95
4, 67680, Note_off_c, 9, 45, 95
4, 68160, Note_on_c, 9, 45, 95
4, 68640, Note_off_c, 9, 45, 95
4, 69120, Note_on_c, 9, 45, 95
4, 69600, Note_off_c, 9, 45, 95
4, 70080, Note_on_c, 9, 45, 95
4, 70560, Note_off_c, 9, 45, 95
4, 71040, Note_on_c, 9, 45, 95
4, 71520, Note_off_c, 9, 45, 95
4, 72000, Note_on_c, 9, 45, 95
4, 72480, Note_off_c, 9, 45, 95
4, 72960, Note_on_c, 9, 45, 95
4, 73440, Note_off_c, 9, 45, 95
4, 73920, Note_on_c, 9, 45, 95
4, 74400, Note_off_c, 9, 45, 95
4, 74880, Note_on_c, 9, 45, 95
4, 75360, Note_off_c, 9, 45, 95
4, 75840, Note_on_c, 9, 45, 95
4, 76320, Note_off_c, 9, 45, 95
4, 76800, Note_on_c, 9, 45, 95
4, 77280, Note_off_c, 9, 45, 95
4, 77280, Note_on_c, 9, 45, 95
4, 77520, Note_off_c, 9, 45, 95
4, 77520, Note_on_c, 9, 45, 95
4, 77760, Note_off_c, 9, 45, 95
4, 77760, Note_on_c, 9, 45, 95
4, 78000, Note_off_c, 9, 45, 95
4, 78000, Note_on_c, 9, 45, 95
4, 78240, Note_off_c, 9, 45, 95
4, 78240, Note_on_c, 9, 49, 95
4, 78720, Note_off_c, 9, 49, 95
4, 78720, Note_on_c, 9, 45, 95
4, 79200, Note_off_c, 9, 45, 95
4, 79680, Note_on_c, 9, 45, 95
4, 80160, Note_off_c, 9, 45, 95
4, 80640, Note_on_c, 9, 45, 95
4, 81120, Note_off_c, 9, 45, 95
4, 81120, Note_on_c, 9, 49, 95
4, 81600, Note_off_c, 9, 49, 95
4, 81600, Note_on_c, 9, 42, 95
4, 82560, Note_off_c, 9, 42, 95
4, 82560, Note_on_c, 9, 45, 95
4, 83040, Note_off_c, 9, 45, 95
4, 83040, Note_on_c, 9, 45, 95
4, 83520, Note_off_c, 9, 45, 95
4, 83520, Note_on_c, 9, 45, 95
4, 84000, Note_off_c, 9, 45, 95
4, 84000, Note_on_c, 9, 45, 95
4, 84480, Note_off_c, 9, 45, 95
4, 84480, Note_on_c, 9, 45, 95
4, 84960, Note_off_c, 9, 45, 95
4, 85440, Note_on_c, 9, 45, 95
4, 85920, Note_off_c, 9, 45, 95
4, 86400, Note_on_c, 9, 45, 95
4, 86880, Note_off_c, 9, 45, 95
4, 87360, Note_on_c, 9, 45, 95
4, 87840, Note_off_c, 9, 45, 95
4, 88320, Note_on_c, 9, 45, 95
4, 88800, Note_off_c, 9, 45, 95
4, 89280, Note_on_c, 9, 45, 95
4, 89760, Note_off_c, 9, 45, 95
4, 90240, Note_on_c, 9, 45, 95
4, 90720, Note_off_c, 9, 45, 95
4, 91200, Note_on_c, 9, 45, 95
4, 91680, Note_off_c, 9, 45, 95
4, 92160, Note_on_c, 9, 45, 95
4, 92400, Note_off_c, 9, 45, 95
4, 92400, Note_on_c, 9, 45, 95
4, 92640, Note_off_c, 9, 45, 95
4, 92640, Note_on_c, 9, 45, 95
4, 92880, Note_off_c, 9, 45, 95
4, 92880, Note_on_c, 9, 45, 95
4, 93120, Note_off_c, 9, 45, 95
4, 93120, Note_on_c, 9, 49, 95
4, 93600, Note_off_c, 9, 49, 95
4, 93600, Note_on_c, 9, 45, 95
4, 94080, Note_off_c, 9, 45, 95
4, 94560, Note_on_c, 9, 45, 95
4, 95040, Note_off_c, 9, 45, 95
4, 95520, Note_on_c, 9, 45, 95
4, 96000, Note_off_c, 9, 45, 95
4, 96000, Note_on_c, 9, 49, 95
4, 96480, Note_off_c, 9, 49, 95
4, 96480, Note_on_c, 9, 45, 95
4, 96720, Note_off_c, 9, 45, 95
4, 96720, Note_on_c, 9, 45, 95
4, 97200, Note_off_c, 9, 45, 95
4, 97440, Note_on_c, 9, 45, 95
4, 97920, Note_off_c, 9, 45, 95
4, 98400, Note_on_c, 9, 45, 95
4, 98880, Note_off_c, 9, 45, 95
4, 99360, Note_on_c, 9, 45, 95
4, 99840, Note_off_c, 9, 45, 95
4, 99840, Note_on_c, 9, 45, 95
4, 100320, Note_off_c, 9, 45, 95
4, 100800, Note_on_c, 9, 45, 95
4, 101280, Note_off_c, 9, 45, 95
4, 101760, Note_on_c, 9, 45, 95
4, 102240, Note_off_c, 9, 45, 95
4, 102720, Note_on_c, 9, 45, 95
4, 103200, Note_off_c, 9, 45, 95
4, 103680, Note_on_c, 9, 49, 95
4, 104160, Note_off_c, 9, 49, 95
4, 104160, Note_on_c, 9, 45, 95
4, 104640, Note_off_c, 9, 45, 95
4, 104640, Note_on_c, 9, 45, 95
4, 105120, Note_off_c, 9, 45, 95
4, 106080, Note_on_c, 9, 45, 95
4, 106560, Note_off_c, 9, 45, 95
4, 106560, Note_on_c, 9, 45, 95
4, 107040, Note_off_c, 9, 45, 95
4, 107520, Note_on_c, 9, 45, 95
4, 108480, Note_off_c, 9, 45, 95
4, 108480, Note_on_c, 9, 45, 95
4, 109440, Note_off_c, 9, 45, 95
4, 109440, Note_on_c, 9, 45, 95
4, 110400, Note_off_c, 9, 45, 95
4, 110400, Note_on_c, 9, 45, 95
4, 111360, Note_off_c, 9, 45, 95
4, 111360, Note_on_c, 9, 45, 95
4, 111600, Note_off_c, 9, 45, 95
4, 111600, Note_on_c, 9, 45, 95
4, 111840, Note_off_c, 9, 45, 95
4, 111840, Note_on_c, 9, 45, 95
4, 112080, Note_off_c, 9, 45, 95
4, 112080, Note_on_c, 9, 45, 95
4, 112320, Note_off_c, 9, 45, 95
4, 112320, Note_on_c, 9, 45, 95
4, 112800, Note_off_c, 9, 45, 95
4, 112800, Note_on_c, 9, 45, 95
4, 113280, Note_off_c, 9, 45, 95
4, 113280, Note_on_c, 9, 49, 95
4, 115200, Note_off_c, 9, 49, 95
4, 115200, Note_on_c, 9, 45, 95
4, 115680, Note_off_c, 9, 45, 95
4, 116160, Note_on_c, 9, 45, 95
4, 116640, Note_off_c, 9, 45, 95
4, 117120, Note_on_c, 9, 45, 95
4, 117600, Note_off_c, 9, 45, 95
4, 118080, Note_on_c, 9, 45, 95
4, 118560, Note_off_c, 9, 45, 95
4, 119040, Note_on_c, 9, 45, 95
4, 119520, Note_off_c, 9, 45, 95
4, 119520, Note_on_c, 9, 45, 95
4, 120000, Note_off_c, 9, 45, 95
4, 120000, Note_on_c, 9, 42, 95
4, 120240, Note_off_c, 9, 42, 95
4, 120960, Note_on_c, 9, 45, 95
4, 121440, Note_off_c, 9, 45, 95
4, 121440, Note_on_c, 9, 45, 95
4, 121920, Note_off_c, 9, 45, 95
4, 121920, Note_on_c, 9, 42, 95
4, 122160, Note_off_c, 9, 42, 95
4, 122880, Note_on_c, 9, 45, 95
4, 123360, Note_off_c, 9, 45, 95
4, 123360, Note_on_c, 9, 45, 95
4, 123840, Note_off_c, 9, 45, 95
4, 123840, Note_on_c, 9, 42, 95
4, 124080, Note_off_c, 9, 42, 95
4, 124800, Note_on_c, 9, 45, 95
4, 125280, Note_off_c, 9, 45, 95
4, 125280, Note_on_c, 9, 45, 95
4, 125760, Note_off_c, 9, 45, 95
4, 125760, Note_on_c, 9, 42, 95
4, 126000, Note_off_c, 9, 42, 95
4, 126720, Note_on_c, 9, 45, 95
4, 127200, Note_off_c, 9, 45, 95
4, 127200, Note_on_c, 9, 45, 95
4, 127680, Note_off_c, 9, 45, 95
4, 127680, Note_on_c, 9, 42, 95
4, 127920, Note_off_c, 9, 42, 95
4, 128640, Note_on_c, 9, 45, 95
4, 129120, Note_off_c, 9, 45, 95
4, 129120, Note_on_c, 9, 45, 95
4, 129600, Note_off_c, 9, 45, 95
4, 129600, Note_on_c, 9, 42, 95
4, 129840, Note_off_c, 9, 42, 95
4, 130560, Note_on_c, 9, 45, 95
4, 131040, Note_off_c, 9, 45, 95
4, 131040, Note_on_c, 9, 45, 95
4, 131520, Note_off_c, 9, 45, 95
4, 131520, Note_on_c, 9, 42, 95
4, 131760, Note_off_c, 9, 42, 95
4, 132480, Note_on_c, 9, 45, 95
4, 132960, Note_off_c, 9, 45, 95
4, 132960, Note_on_c, 9, 45, 95
4, 133440, Note_off_c, 9, 45, 95
4, 133440, Note_on_c, 9, 42, 95
4, 133680, Note_off_c, 9, 42, 95
4, 134400, Note_on_c, 9, 45, 95
4, 134880, Note_off_c, 9, 45, 95
4, 134880, Note_on_c, 9, 45, 95
4, 135360, Note_off_c, 9, 45, 95
4, 135360, Note_on_c, 9, 42, 95
4, 135600, Note_off_c, 9, 42, 95
4, 136320, Note_on_c, 9, 45, 95
4, 136800, Note_off_c, 9, 45, 95
4, 136800, Note_on_c, 9, 45, 95
4, 137280, Note_off_c, 9, 45, 95
4, 137280, Note_on_c, 9, 42, 95
4, 137520, Note_off_c, 9, 42, 95
4, 138240, Note_on_c, 9, 45, 95
4, 138720, Note_off_c, 9, 45, 95
4, 138720, Note_on_c, 9, 45, 95
4, 139200, Note_off_c, 9, 45, 95
4, 139200, Note_on_c, 9, 42, 95
4, 139440, Note_off_c, 9, 42, 95
4, 140160, Note_on_c, 9, 45, 95
4, 140640, Note_off_c, 9, 45, 95
4, 140640, Note_on_c, 9, 45, 95
4, 141120, Note_off_c, 9, 45, 95
4, 141120, Note_on_c, 9, 42, 95
4, 141360, Note_off_c, 9, 42, 95
4, 142080, Note_on_c, 9, 45, 95
4, 142560, Note_off_c, 9, 45, 95
4, 142560, Note_on_c, 9, 45, 95
4, 143040, Note_off_c, 9, 45, 95
4, 143040, Note_on_c, 9, 45, 95
4, 143520, Note_off_c, 9, 45, 95
4, 143520, Note_on_c, 9, 45, 95
4, 144000, Note_off_c, 9, 45, 95
4, 144000, Note_on_c, 9, 49, 95
4, 144480, Note_off_c, 9, 49, 95
4, 144720, Note_on_c, 9, 45, 95
4, 144960, Note_off_c, 9, 45, 95
4, 144960, Note_on_c, 9, 45, 95
4, 145440, Note_off_c, 9, 45, 95
4, 145440, Note_on_c, 9, 45, 95
4, 145920, Note_off_c, 9, 45, 95
4, 145920, Note_on_c, 9, 45, 95
4, 146400, Note_off_c, 9, 45, 95
4, 146400, Note_on_c, 9, 45, 95
4, 146880, Note_off_c, 9, 45, 95
4, 146880, Note_on_c, 9, 45, 95
4, 147360, Note_off_c, 9, 45, 95
4, 147360, Note_on_c, 9, 45, 95
4, 147840, Note_off_c, 9, 45, 95
4, 147840, Note_on_c, 9, 49, 95
4, 148320, Note_off_c, 9, 49, 95
4, 148560, Note_on_c, 9, 45, 95
4, 148800, Note_off_c, 9, 45, 95
4, 148800, Note_on_c, 9, 45, 95
4, 149280, Note_off_c, 9, 45, 95
4, 149280, Note_on_c, 9, 45, 95
4, 149760, Note_off_c, 9, 45, 95
4, 149760, Note_on_c, 9, 45, 95
4, 150240, Note_off_c, 9, 45, 95
4, 150720, Note_on_c, 9, 45, 95
4, 151200, Note_off_c, 9, 45, 95
4, 151680, Note_on_c, 9, 45, 95
4, 152160, Note_off_c, 9, 45, 95
4, 152640, Note_on_c, 9, 45, 95
4, 153120, Note_off_c, 9, 45, 95
4, 153600, Note_on_c, 9, 45, 95
4, 154080, Note_off_c, 9, 45, 95
4, 154080, Note_on_c, 9, 45, 95
4, 154320, Note_off_c, 9, 45, 95
4, 154320, Note_on_c, 9, 45, 95
4, 154560, Note_off_c, 9, 45, 95
4, 154560, Note_on_c, 9, 45, 95
4, 154800, Note_off_c, 9, 45, 95
4, 154800, Note_on_c, 9, 45, 95
4, 155040, Note_off_c, 9, 45, 95
4, 155040, Note_on_c, 9, 49, 95
4, 155520, Note_off_c, 9, 49, 95
4, 155520, Note_on_c, 9, 45, 95
4, 156000, Note_off_c, 9, 45, 95
4, 156480, Note_on_c, 9, 45, 95
4, 156960, Note_off_c, 9, 45, 95
4, 157440, Note_on_c, 9, 45, 95
4, 157920, Note_off_c, 9, 45, 95
4, 157920, Note_on_c, 9, 49, 95
4, 158400, Note_off_c, 9, 49, 95
4, 158400, Note_on_c, 9, 42, 95
4, 159360, Note_off_c, 9, 42, 95
4, 159360, Note_on_c, 9, 45, 95
4, 159840, Note_off_c, 9, 45, 95
4, 159840, Note_on_c, 9, 45, 95
4, 160320, Note_off_c, 9, 45, 95
4, 160320, Note_on_c, 9, 45, 95
4, 160800, Note_off_c, 9, 45, 95
4, 160800, Note_on_c, 9, 45, 95
4, 161280, Note_off_c, 9, 45, 95
4, 161280, Note_on_c, 9, 45, 95
4, 161760, Note_off_c, 9, 45, 95
4, 162240, Note_on_c, 9, 45, 95
4, 162720, Note_off_c, 9, 45, 95
4, 163200, Note_on_c, 9, 45, 95
4, 163680, Note_off_c, 9, 45, 95
4, 164160, Note_on_c, 9, 45, 95
4, 164640, Note_off_c, 9, 45, 95
4, 165120, Note_on_c, 9, 45, 95
4, 165600, Note_off_c, 9, 45, 95
4, 166080, Note_on_c, 9, 45, 95
4, 166560, Note_off_c, 9, 45, 95
4, 167040, Note_on_c, 9, 45, 95
4, 167520, Note_off_c, 9, 45, 95
4, 168000, Note_on_c, 9, 45, 95
4, 168480, Note_off_c, 9, 45, 95
4, 168960, Note_on_c, 9, 45, 95
4, 169200, Note_off_c, 9, 45, 95
4, 169200, Note_on_c, 9, 45, 95
4, 169440, Note_off_c, 9, 45, 95
4, 169440, Note_on_c, 9, 45, 95
4, 169680, Note_off_c, 9, 45, 95
4, 169680, Note_on_c, 9, 45, 95
4, 169920, Note_off_c, 9, 45, 95
4, 169920, Note_on_c, 9, 49, 95
4, 170400, Note_off_c, 9, 49, 95
4, 170400, Note_on_c, 9, 45, 95
4, 170880, Note_off_c, 9, 45, 95
4, 171360, Note_on_c, 9, 45, 95
4, 171840, Note_off_c, 9, 45, 95
4, 172320, Note_on_c, 9, 45, 95
4, 172800, Note_off_c, 9, 45, 95
4, 172800, Note_on_c, 9, 49, 95
4, 173280, Note_off_c, 9, 49, 95
4, 173280, Note_on_c, 9, 45, 95
4, 173520, Note_off_c, 9, 45, 95
4, 173520, Note_on_c, 9, 45, 95
4, 174000, Note_off_c, 9, 45, 95
4, 174240, Note_on_c, 9, 45, 95
4, 174720, Note_off_c, 9, 45, 95
4, 175200, Note_on_c, 9, 45, 95
4, 175680, Note_off_c, 9, 45, 95
4, 176160, Note_on_c, 9, 45, 95
4, 176640, Note_off_c, 9, 45, 95
4, 176640, Note_on_c, 9, 45, 95
4, 177120, Note_off_c, 9, 45, 95
4, 177600, Note_on_c, 9, 45, 95
4, 178080, Note_off_c, 9, 45, 95
4, 178560, Note_on_c, 9, 45, 95
4, 179040, Note_off_c, 9, 45, 95
4, 179520, Note_on_c, 9, 45, 95
4, 180000, Note_off_c, 9, 45, 95
4, 180480, Note_on_c, 9, 49, 95
4, 180960, Note_off_c, 9, 49, 95
4, 180960, Note_on_c, 9, 45, 95
4, 181440, Note_off_c, 9, 45, 95
4, 181440, Note_on_c, 9, 45, 95
4, 181920, Note_off_c, 9, 45, 95
4, 182880, Note_on_c, 9, 45, 95
4, 183360, Note_off_c, 9, 45, 95
4, 183360, Note_on_c, 9, 45, 95
4, 183840, Note_off_c, 9, 45, 95
4, 184320, Note_on_c, 9, 45, 95
4, 185280, Note_off_c, 9, 45, 95
4, 185280, Note_on_c, 9, 45, 95
4, 186240, Note_off_c, 9, 45, 95
4, 186240, Note_on_c, 9, 45, 95
4, 187200, Note_off_c, 9, 45, 95
4, 187200, Note_on_c, 9, 45, 95
4, 188160, Note_off_c, 9, 45, 95
4, 188160, Note_on_c, 9, 45, 95
4, 188400, Note_off_c, 9, 45, 95
4, 188400, Note_on_c, 9, 45, 95
4, 188640, Note_off_c, 9, 45, 95
4, 188640, Note_on_c, 9, 45, 95
4, 188880, Note_off_c, 9, 45, 95
4, 188880, Note_on_c, 9, 45, 95
4, 189120, Note_off_c, 9, 45, 95
4, 189120, Note_on_c, 9, 45, 95
4, 189600, Note_off_c, 9, 45, 95
4, 189600, Note_on_c, 9, 45, 95
4, 190080, Note_off_c, 9, 45, 95
4, 190080, Note_on_c, 9, 49, 95
4, 192000, Note_off_c, 9, 49, 95
4, 192000, Note_on_c, 9, 45, 95
4, 192480, Note_off_c, 9, 45, 95
4, 192960, Note_on_c, 9, 45, 95
4, 193440, Note_off_c, 9, 45, 95
4, 193920, Note_on_c, 9, 45, 95
4, 194400, Note_off_c, 9, 45, 95
4, 194880, Note_on_c, 9, 45, 95
4, 195360, Note_off_c, 9, 45, 95
4, 195840, Note_on_c, 9, 45, 95
4, 196320, Note_off_c, 9, 45, 95
4, 196320, Note_on_c, 9, 45, 95
4, 196800, Note_off_c, 9, 45, 95
4, 196800, Note_on_c, 9, 42, 95
4, 197040, Note_off_c, 9, 42, 95
4, 197040, Note_on_c, 9, 42, 95
4, 197280, Note_off_c, 9, 42, 95
4, 197760, Note_on_c, 9, 45, 95
4, 198240, Note_off_c, 9, 45, 95
4, 198240, Note_on_c, 9, 45, 95
4, 198720, Note_off_c, 9, 45, 95
4, 198720, Note_on_c, 9, 42, 95
4, 198960, Note_off_c, 9, 42, 95
4, 198960, Note_on_c, 9, 42, 95
4, 199200, Note_off_c, 9, 42, 95
4, 199680, Note_on_c, 9, 45, 95
4, 200160, Note_off_c, 9, 45, 95
4, 200160, Note_on_c, 9, 45, 95
4, 200640, Note_off_c, 9, 45, 95
4, 200640, Note_on_c, 9, 42, 95
4, 200880, Note_off_c, 9, 42, 95
4, 200880, Note_on_c, 9, 42, 95
4, 201120, Note_off_c, 9, 42, 95
4, 201600, Note_on_c, 9, 45, 95
4, 202080, Note_off_c, 9, 45, 95
4, 202080, Note_on_c, 9, 45, 95
4, 202560, Note_off_c, 9, 45, 95
4, 202560, Note_on_c, 9, 42, 95
4, 202800, Note_off_c, 9, 42, 95
4, 202800, Note_on_c, 9, 42, 95
4, 203040, Note_off_c, 9, 42, 95
4, 203520, Note_on_c, 9, 45, 95
4, 204000, Note_off_c, 9, 45, 95
4, 204000, Note_on_c, 9, 45, 95
4, 204480, Note_off_c, 9, 45, 95
4, 204480, Note_on_c, 9, 42, 95
4, 204720, Note_off_c, 9, 42, 95
4, 204720, Note_on_c, 9, 42, 95
4, 204960, Note_off_c, 9, 42, 95
4, 205440, Note_on_c, 9, 45, 95
4, 205920, Note_off_c, 9, 45, 95
4, 205920, Note_on_c, 9, 45, 95
4, 206400, Note_off_c, 9, 45, 95
4, 206400, Note_on_c, 9, 42, 95
4, 206640, Note_off_c, 9, 42, 95
4, 206640, Note_on_c, 9, 42, 95
4, 206880, Note_off_c, 9, 42, 95
4, 207360, Note_on_c, 9, 45, 95
4, 207840, Note_off_c, 9, 45, 95
4, 207840, Note_on_c, 9, 45, 95
4, 208320, Note_off_c, 9, 45, 95
4, 208320, Note_on_c, 9, 42, 95
4, 208560, Note_off_c, 9, 42, 95
4, 208560, Note_on_c, 9, 42, 95
4, 208800, Note_off_c, 9, 42, 95
4, 209280, Note_on_c, 9, 45, 95
4, 209760, Note_off_c, 9, 45, 95
4, 209760, Note_on_c, 9, 45, 95
4, 210240, Note_off_c, 9, 45, 95
4, 210240, Note_on_c, 9, 42, 95
4, 210480, Note_off_c, 9, 42, 95
4, 210480, Note_on_c, 9, 42, 95
4, 210720, Note_off_c, 9, 42, 95
4, 211200, Note_on_c, 9, 45, 95
4, 211680, Note_off_c, 9, 45, 95
4, 211680, Note_on_c, 9, 45, 95
4, 212160, Note_off_c, 9, 45, 95
4, 212160, Note_on_c, 9, 42, 95
4, 212400, Note_off_c, 9, 42, 95
4, 212400, Note_on_c, 9, 42, 95
4, 212640, Note_off_c, 9, 42, 95
4, 213120, Note_on_c, 9, 45, 95
4, 213600, Note_off_c, 9, 45, 95
4, 213600, Note_on_c, 9, 45, 95
4, 214080, Note_off_c, 9, 45, 95
4, 214080, Note_on_c, 9, 42, 95
4, 214320, Note_off_c, 9, 42, 95
4, 214320, Note_on_c, 9, 42, 95
4, 214560, Note_off_c, 9, 42, 95
4, 215040, Note_on_c, 9, 45, 95
4, 215520, Note_off_c, 9, 45, 95
4, 215520, Note_on_c, 9, 45, 95
4, 216000, Note_off_c, 9, 45, 95
4, 216000, Note_on_c, 9, 42, 95
4, 216240, Note_off_c, 9, 42, 95
4, 216240, Note_on_c, 9, 42, 95
4, 216480, Note_off_c, 9, 42, 95
4, 216960, Note_on_c, 9, 45, 95
4, 217440, Note_off_c, 9, 45, 95
4, 217440, Note_on_c, 9, 45, 95
4, 217920, Note_off_c, 9, 45, 95
4, 217920, Note_on_c, 9, 42, 95
4, 218160, Note_off_c, 9, 42, 95
4, 218160, Note_on_c, 9, 42, 95
4, 218400, Note_off_c, 9, 42, 95
4, 218880, Note_on_c, 9, 45, 95
4, 219360, Note_off_c, 9, 45, 95
4, 219360, Note_on_c, 9, 45, 95
4, 219840, Note_off_c, 9, 45, 95
4, 219840, Note_on_c, 9, 45, 95
4, 220320, Note_off_c, 9, 45, 95
4, 220320, Note_on_c, 9, 45, 95
4, 220800, Note_off_c, 9, 45, 95
4, 220800, Note_on_c, 9, 49, 95
4, 221280, Note_off_c, 9, 49, 95
4, 221520, Note_on_c, 9, 45, 95
4, 221760, Note_off_c, 9, 45, 95
4, 221760, Note_on_c, 9, 45, 95
4, 222240, Note_off_c, 9, 45, 95
4, 222240, Note_on_c, 9, 45, 95
4, 222720, Note_off_c, 9, 45, 95
4, 222720, Note_on_c, 9, 45, 95
4, 223200, Note_off_c, 9, 45, 95
4, 223200, Note_on_c, 9, 45, 95
4, 223680, Note_off_c, 9, 45, 95
4, 223680, Note_on_c, 9, 45, 95
4, 224160, Note_off_c, 9, 45, 95
4, 224160, Note_on_c, 9, 45, 95
4, 224640, Note_off_c, 9, 45, 95
4, 224640, Note_on_c, 9, 49, 95
4, 225120, Note_off_c, 9, 49, 95
4, 225360, Note_on_c, 9, 45, 95
4, 225600, Note_off_c, 9, 45, 95
4, 225600, Note_on_c, 9, 45, 95
4, 226080, Note_off_c, 9, 45, 95
4, 226080, Note_on_c, 9, 45, 95
4, 226560, Note_off_c, 9, 45, 95
4, 226560, Note_on_c, 9, 45, 95
4, 227040, Note_off_c, 9, 45, 95
4, 227040, Note_on_c, 9, 45, 95
4, 227520, Note_off_c, 9, 45, 95
4, 227520, Note_on_c, 9, 42, 95
4, 227760, Note_off_c, 9, 42, 95
4, 227760, Note_on_c, 9, 42, 95
4, 228000, Note_off_c, 9, 42, 95
4, 228480, Note_on_c, 9, 45, 95
4, 228960, Note_off_c, 9, 45, 95
4, 228960, Note_on_c, 9, 45, 95
4, 229440, Note_off_c, 9, 45, 95
4, 229440, Note_on_c, 9, 42, 95
4, 229680, Note_off_c, 9, 42, 95
4, 229680, Note_on_c, 9, 42, 95
4, 229920, Note_off_c, 9, 42, 95
4, 230400, Note_on_c, 9, 45, 95
4, 230880, Note_off_c, 9, 45, 95
4, 230880, Note_on_c, 9, 45, 95
4, 231360, Note_off_c, 9, 45, 95
4, 231360, Note_on_c, 9, 42, 95
4, 231600, Note_off_c, 9, 42, 95
4, 231600, Note_on_c, 9, 42, 95
4, 231840, Note_off_c, 9, 42, 95
4, 232320, Note_on_c, 9, 45, 95
4, 232800, Note_off_c, 9, 45, 95
4, 232800, Note_on_c, 9, 45, 95
4, 233280, Note_off_c, 9, 45, 95
4, 233280, Note_on_c, 9, 42, 95
4, 233520, Note_off_c, 9, 42, 95
4, 233520, Note_on_c, 9, 42, 95
4, 233760, Note_off_c, 9, 42, 95
4, 234240, Note_on_c, 9, 45, 95
4, 234720, Note_off_c, 9, 45, 95
4, 234720, Note_on_c, 9, 45, 95
4, 235200, Note_off_c, 9, 45, 95
4, 235200, Note_on_c, 9, 45, 95
4, 235680, Note_off_c, 9, 45, 95
4, 235680, Note_on_c, 9, 45, 95
4, 236160, Note_off_c, 9, 45, 95
4, 236160, Note_on_c, 9, 49, 95
4, 236640, Note_off_c, 9, 49, 95
4, 241440, Note_on_c, 9, 45, 95
4, 241680, Note_off_c, 9, 45, 95
4, 241680, Note_on_c, 9, 45, 95
4, 241920, Note_off_c, 9, 45, 95
4, 241920, Note_on_c, 9, 45, 95
4, 242160, Note_off_c, 9, 45, 95
4, 242160, Note_on_c, 9, 45, 95
4, 242400, Note_off_c, 9, 45, 95
4, 245760, Note_on_c, 9, 45, 95
4, 246000, Note_off_c, 9, 45, 95
4, 246000, Note_on_c, 9, 45, 95
4, 246240, Note_off_c, 9, 45, 95
4, 246240, Note_on_c, 9, 45, 95
4, 246480, Note_off_c, 9, 45, 95
4, 246480, Note_on_c, 9, 45, 95
4, 246720, Note_off_c, 9, 45, 95
4, 246720, Note_on_c, 9, 49, 95
4, 246720, Note_on_c, 9, 45, 95
4, 247200, Note_off_c, 9, 49, 95
4, 247200, Note_off_c, 9, 45, 95
4, 247200, Note_on_c, 9, 49, 95
4, 247200, Note_on_c, 9, 45, 95
4, 247680, Note_off_c, 9, 49, 95
4, 247680, Note_off_c, 9, 45, 95
4, 248160, Note_on_c, 9, 45, 95
4, 248640, Note_off_c, 9, 45, 95
4, 249120, Note_on_c, 9, 45, 95
4, 249600, Note_off_c, 9, 45, 95
4, 249600, Note_on_c, 9, 45, 95
4, 250560, Note_off_c, 9, 45, 95
4, 250560, Note_on_c, 9, 45, 95
4, 251040, Note_off_c, 9, 45, 95
4, 251520, Note_on_c, 9, 45, 95
4, 252000, Note_off_c, 9, 45, 95
4, 252480, Note_on_c, 9, 45, 95
4, 252960, Note_off_c, 9, 45, 95
4, 253440, Note_on_c, 9, 45, 95
4, 254400, Note_off_c, 9, 45, 95
4, 254400, Note_on_c, 9, 45, 95
4, 254880, Note_off_c, 9, 45, 95
4, 255360, Note_on_c, 9, 45, 95
4, 255840, Note_off_c, 9, 45, 95
4, 256320, Note_on_c, 9, 45, 95
4, 256800, Note_off_c, 9, 45, 95
4, 257280, Note_on_c, 9, 45, 95
4, 257760, Note_off_c, 9, 45, 95
4, 258240, Note_on_c, 9, 45, 95
4, 258720, Note_off_c, 9, 45, 95
4, 259200, Note_on_c, 9, 45, 95
4, 259680, Note_off_c, 9, 45, 95
4, 260160, Note_on_c, 9, 45, 95
4, 260640, Note_off_c, 9, 45, 95
4, 261120, Note_on_c, 9, 45, 95
4, 261600, Note_off_c, 9, 45, 95
4, 261600, Note_on_c, 9, 45, 95
4, 261840, Note_off_c, 9, 45, 95
4, 261840, Note_on_c, 9, 45, 95
4, 262080, Note_off_c, 9, 45, 95
4, 262080, Note_on_c, 9, 45, 95
4, 262320, Note_off_c, 9, 45, 95
4, 262320, Note_on_c, 9, 45, 95
4, 262560, Note_off_c, 9, 45, 95
4, 262560, Note_on_c, 9, 49, 95
4, 263040, Note_off_c, 9, 49, 95
4, 263040, Note_on_c, 9, 45, 95
4, 263520, Note_off_c, 9, 45, 95
4, 264000, Note_on_c, 9, 45, 95
4, 264480, Note_off_c, 9, 45, 95
4, 264960, Note_on_c, 9, 45, 95
4, 265440, Note_off_c, 9, 45, 95
4, 265440, Note_on_c, 9, 49, 95
4, 265920, Note_off_c, 9, 49, 95
4, 265920, Note_on_c, 9, 42, 95
4, 266880, Note_off_c, 9, 42, 95
4, 266880, Note_on_c, 9, 45, 95
4, 267360, Note_off_c, 9, 45, 95
4, 267360, Note_on_c, 9, 45, 95
4, 267840, Note_off_c, 9, 45, 95
4, 267840, Note_on_c, 9, 45, 95
4, 268320, Note_off_c, 9, 45, 95
4, 268320, Note_on_c, 9, 45, 95
4, 268800, Note_off_c, 9, 45, 95
4, 268800, Note_on_c, 9, 45, 95
4, 269280, Note_off_c, 9, 45, 95
4, 269760, Note_on_c, 9, 45, 95
4, 270240, Note_off_c, 9, 45, 95
4, 270720, Note_on_c, 9, 45, 95
4, 271200, Note_off_c, 9, 45, 95
4, 271680, Note_on_c, 9, 45, 95
4, 272160, Note_off_c, 9, 45, 95
4, 272640, Note_on_c, 9, 45, 95
4, 273120, Note_off_c, 9, 45, 95
4, 273600, Note_on_c, 9, 45, 95
4, 274080, Note_off_c, 9, 45, 95
4, 274560, Note_on_c, 9, 45, 95
4, 275040, Note_off_c, 9, 45, 95
4, 275520, Note_on_c, 9, 45, 95
4, 276000, Note_off_c, 9, 45, 95
4, 276480, Note_on_c, 9, 45, 95
4, 276720, Note_off_c, 9, 45, 95
4, 276720, Note_on_c, 9, 45, 95
4, 276960, Note_off_c, 9, 45, 95
4, 276960, Note_on_c, 9, 45, 95
4, 277200, Note_off_c, 9, 45, 95
4, 277200, Note_on_c, 9, 45, 95
4, 277440, Note_off_c, 9, 45, 95
4, 277440, Note_on_c, 9, 49, 95
4, 277920, Note_off_c, 9, 49, 95
4, 277920, Note_on_c, 9, 45, 95
4, 278400, Note_off_c, 9, 45, 95
4, 278880, Note_on_c, 9, 45, 95
4, 279360, Note_off_c, 9, 45, 95
4, 279840, Note_on_c, 9, 45, 95
4, 280320, Note_off_c, 9, 45, 95
4, 280320, Note_on_c, 9, 49, 95
4, 280800, Note_off_c, 9, 49, 95
4, 280800, Note_on_c, 9, 45, 95
4, 281040, Note_off_c, 9, 45, 95
4, 281040, Note_on_c, 9, 45, 95
4, 281520, Note_off_c, 9, 45, 95
4, 281760, Note_on_c, 9, 45, 95
4, 282240, Note_off_c, 9, 45, 95
4, 282720, Note_on_c, 9, 45, 95
4, 283200, Note_off_c, 9, 45, 95
4, 283680, Note_on_c, 9, 45, 95
4, 284160, Note_off_c, 9, 45, 95
4, 284160, Note_on_c, 9, 45, 95
4, 284640, Note_off_c, 9, 45, 95
4, 285120, Note_on_c, 9, 45, 95
4, 285600, Note_off_c, 9, 45, 95
4, 286080, Note_on_c, 9, 45, 95
4, 286560, Note_off_c, 9, 45, 95
4, 287040, Note_on_c, 9, 45, 95
4, 287520, Note_off_c, 9, 45, 95
4, 288000, Note_on_c, 9, 49, 95
4, 288480, Note_off_c, 9, 49, 95
4, 288480, Note_on_c, 9, 45, 95
4, 288960, Note_off_c, 9, 45, 95
4, 288960, Note_on_c, 9, 45, 95
4, 289440, Note_off_c, 9, 45, 95
4, 290400, Note_on_c, 9, 45, 95
4, 290880, Note_off_c, 9, 45, 95
4, 290880, Note_on_c, 9, 45, 95
4, 291360, Note_off_c, 9, 45, 95
4, 291840, Note_on_c, 9, 45, 95
4, 292800, Note_off_c, 9, 45, 95
4, 292800, Note_on_c, 9, 45, 95
4, 293760, Note_off_c, 9, 45, 95
4, 293760, Note_on_c, 9, 45, 95
4, 294720, Note_off_c, 9, 45, 95
4, 294720, Note_on_c, 9, 45, 95
4, 295680, Note_off_c, 9, 45, 95
4, 295680, Note_on_c, 9, 45, 95
4, 295920, Note_off_c, 9, 45, 95
4, 295920, Note_on_c, 9, 45, 95
4, 296160, Note_off_c, 9, 45, 95
4, 296160, Note_on_c, 9, 45, 95
4, 296400, Note_off_c, 9, 45, 95
4, 296400, Note_on_c, 9, 45, 95
4, 296640, Note_off_c, 9, 45, 95
4, 296640, Note_on_c, 9, 45, 95
4, 297120, Note_off_c, 9, 45, 95
4, 297120, Note_on_c, 9, 45, 95
4, 297600, Note_off_c, 9, 45, 95
4, 297600, Note_on_c, 9, 49, 95
4, 299520, Note_off_c, 9, 49, 95
4, 299520, Note_on_c, 9, 45, 95
4, 300000, Note_off_c, 9, 45, 95
4, 300480, Note_on_c, 9, 45, 95
4, 300960, Note_off_c, 9, 45, 95
4, 301440, Note_on_c, 9, 45, 95
4, 301920, Note_off_c, 9, 45, 95
4, 302400, Note_on_c, 9, 45, 95
4, 302880, Note_off_c, 9, 45, 95
4, 303360, Note_on_c, 9, 45, 95
4, 303840, Note_off_c, 9, 45, 95
4, 303840, Note_on_c, 9, 45, 95
4, 304320, Note_off_c, 9, 45, 95
4, 304320, Note_on_c, 9, 42, 95
4, 304560, Note_off_c, 9, 42, 95
4, 305280, Note_on_c, 9, 45, 95
4, 305760, Note_off_c, 9, 45, 95
4, 305760, Note_on_c, 9, 45, 95
4, 306240, Note_off_c, 9, 45, 95
4, 306240, Note_on_c, 9, 42, 95
4, 306480, Note_off_c, 9, 42, 95
4, 307200, Note_on_c, 9, 45, 95
4, 307680, Note_off_c, 9, 45, 95
4, 307680, Note_on_c, 9, 45, 95
4, 308160, Note_off_c, 9, 45, 95
4, 308160, Note_on_c, 9, 42, 95
4, 308400, Note_off_c, 9, 42, 95
4, 309120, Note_on_c, 9, 45, 95
4, 309600, Note_off_c, 9, 45, 95
4, 309600, Note_on_c, 9, 45, 95
4, 310080, Note_off_c, 9, 45, 95
4, 310080, Note_on_c, 9, 42, 95
4, 310320, Note_off_c, 9, 42, 95
4, 311040, Note_on_c, 9, 45, 95
4, 311520, Note_off_c, 9, 45, 95
4, 311520, Note_on_c, 9, 45, 95
4, 312000, Note_off_c, 9, 45, 95
4, 312000, Note_on_c, 9, 42, 95
4, 312240, Note_off_c, 9, 42, 95
4, 312960, Note_on_c, 9, 45, 95
4, 313440, Note_off_c, 9, 45, 95
4, 313440, Note_on_c, 9, 45, 95
4, 313920, Note_off_c, 9, 45, 95
4, 313920, Note_on_c, 9, 42, 95
4, 314160, Note_off_c, 9, 42, 95
4, 314880, Note_on_c, 9, 45, 95
4, 315360, Note_off_c, 9, 45, 95
4, 315360, Note_on_c, 9, 45, 95
4, 315840, Note_off_c, 9, 45, 95
4, 315840, Note_on_c, 9, 42, 95
4, 316080, Note_off_c, 9, 42, 95
4, 316800, Note_on_c, 9, 45, 95
4, 317280, Note_off_c, 9, 45, 95
4, 317280, Note_on_c, 9, 45, 95
4, 317760, Note_off_c, 9, 45, 95
4, 317760, Note_on_c, 9, 42, 95
4, 318000, Note_off_c, 9, 42, 95
4, 318720, Note_on_c, 9, 45, 95
4, 319200, Note_off_c, 9, 45, 95
4, 319200, Note_on_c, 9, 45, 95
4, 319680, Note_off_c, 9, 45, 95
4, 319680, Note_on_c, 9, 42, 95
4, 319920, Note_off_c, 9, 42, 95
4, 320640, Note_on_c, 9, 45, 95
4, 321120, Note_off_c, 9, 45, 95
4, 321120, Note_on_c, 9, 45, 95
4, 321600, Note_off_c, 9, 45, 95
4, 321600, Note_on_c, 9, 42, 95
4, 321840, Note_off_c, 9, 42, 95
4, 322560, Note_on_c, 9, 45, 95
4, 323040, Note_off_c, 9, 45, 95
4, 323040, Note_on_c, 9, 45, 95
4, 323520, Note_off_c, 9, 45, 95
4, 323520, Note_on_c, 9, 42, 95
4, 323760, Note_off_c, 9, 42, 95
4, 324480, Note_on_c, 9, 45, 95
4, 324960, Note_off_c, 9, 45, 95
4, 324960, Note_on_c, 9, 45, 95
4, 325440, Note_off_c, 9, 45, 95
4, 325440, Note_on_c, 9, 42, 95
4, 325680, Note_off_c, 9, 42, 95
4, 326400, Note_on_c, 9, 45, 95
4, 326880, Note_off_c, 9, 45, 95
4, 326880, Note_on_c, 9, 45, 95
4, 327360, Note_off_c, 9, 45, 95
4, 327360, Note_on_c, 9, 45, 95
4, 327840, Note_off_c, 9, 45, 95
4, 327840, Note_on_c, 9, 45, 95
4, 328320, Note_off_c, 9, 45, 95
4, 328320, Note_on_c, 9, 49, 95
4, 328800, Note_off_c, 9, 49, 95
4, 329040, Note_on_c, 9, 45, 95
4, 329280, Note_off_c, 9, 45, 95
4, 329280, Note_on_c, 9, 45, 95
4, 329760, Note_off_c, 9, 45, 95
4, 329760, Note_on_c, 9, 45, 95
4, 330240, Note_off_c, 9, 45, 95
4, 330240, Note_on_c, 9, 45, 95
4, 330720, Note_off_c, 9, 45, 95
4, 330720, Note_on_c, 9, 45, 95
4, 331200, Note_off_c, 9, 45, 95
4, 331200, Note_on_c, 9, 45, 95
4, 331680, Note_off_c, 9, 45, 95
4, 331680, Note_on_c, 9, 45, 95
4, 332160, Note_off_c, 9, 45, 95
4, 332160, Note_on_c, 9, 49, 95
4, 332640, Note_off_c, 9, 49, 95
4, 332880, Note_on_c, 9, 45, 95
4, 333120, Note_off_c, 9, 45, 95
4, 333120, Note_on_c, 9, 45, 95
4, 333600, Note_off_c, 9, 45, 95
4, 333600, Note_on_c, 9, 45, 95
4, 334080, Note_off_c, 9, 45, 95
4, 334080, Note_on_c, 9, 45, 95
4, 334560, Note_off_c, 9, 45, 95
4, 334560, Note_on_c, 9, 45, 95
4, 335040, Note_off_c, 9, 45, 95
4, 335040, Note_on_c, 9, 42, 95
4, 335280, Note_off_c, 9, 42, 95
4, 336000, Note_on_c, 9, 45, 95
4, 336480, Note_off_c, 9, 45, 95
4, 336480, Note_on_c, 9, 45, 95
4, 336960, Note_off_c, 9, 45, 95
4, 336960, Note_on_c, 9, 42, 95
4, 337200, Note_off_c, 9, 42, 95
4, 337920, Note_on_c, 9, 45, 95
4, 338400, Note_off_c, 9, 45, 95
4, 338400, Note_on_c, 9, 45, 95
4, 338880, Note_off_c, 9, 45, 95
4, 338880, Note_on_c, 9, 42, 95
4, 339120, Note_off_c, 9, 42, 95
4, 339840, Note_on_c, 9, 45, 95
4, 340320, Note_off_c, 9, 45, 95
4, 340320, Note_on_c, 9, 45, 95
4, 340800, Note_off_c, 9, 45, 95
4, 340800, Note_on_c, 9, 42, 95
4, 341040, Note_off_c, 9, 42, 95
4, 341760, Note_on_c, 9, 45, 95
4, 342240, Note_off_c, 9, 45, 95
4, 342240, Note_on_c, 9, 45, 95
4, 342720, Note_off_c, 9, 45, 95
4, 342720, Note_on_c, 9, 42, 95
4, 342960, Note_off_c, 9, 42, 95
4, 343680, Note_on_c, 9, 45, 95
4, 344160, Note_off_c, 9, 45, 95
4, 344160, Note_on_c, 9, 45, 95
4, 344640, Note_off_c, 9, 45, 95
4, 344640, Note_on_c, 9, 42, 95
4, 344880, Note_off_c, 9, 42, 95
4, 345600, Note_on_c, 9, 45, 95
4, 346080, Note_off_c, 9, 45, 95
4, 346080, Note_on_c, 9, 45, 95
4, 346560, Note_off_c, 9, 45, 95
4, 346560, Note_on_c, 9, 42, 95
4, 346800, Note_off_c, 9, 42, 95
4, 347520, Note_on_c, 9, 45, 95
4, 348000, Note_off_c, 9, 45, 95
4, 348000, Note_on_c, 9, 45, 95
4, 348480, Note_off_c, 9, 45, 95
4, 348480, Note_on_c, 9, 42, 95
4, 348720, Note_off_c, 9, 42, 95
4, 348960, Note_on_c, 9, 36, 95
4, 348960, Note_on_c, 9, 45, 95
4, 349440, Note_off_c, 9, 36, 95
4, 349440, Note_off_c, 9, 45, 95
4, 349440, Note_on_c, 9, 36, 127
4, 349440, Note_on_c, 9, 45, 127
4, 349920, Note_off_c, 9, 36, 127
4, 349920, Note_off_c, 9, 45, 127
4, 353280, Note_on_c, 9, 45, 95
4, 353760, Note_off_c, 9, 45, 95
4, 353760, Note_on_c, 9, 45, 95
4, 354240, Note_off_c, 9, 45, 95
4, 354240, Note_on_c, 9, 42, 95
4, 354480, Note_off_c, 9, 42, 95
4, 355200, Note_on_c, 9, 45, 95
4, 355680, Note_off_c, 9, 45, 95
4, 355680, Note_on_c, 9, 45, 95
4, 356160, Note_off_c, 9, 45, 95
4, 356160, Note_on_c, 9, 42, 95
4, 356400, Note_off_c, 9, 42, 95
4, 357120, Note_on_c, 9, 45, 95
4, 357600, Note_off_c, 9, 45, 95
4, 357600, Note_on_c, 9, 45, 95
4, 358080, Note_off_c, 9, 45, 95
4, 358080, Note_on_c, 9, 45, 95
4, 358560, Note_off_c, 9, 45, 95
4, 358560, Note_on_c, 9, 45, 95
4, 359040, Note_off_c, 9, 45, 95
4, 359040, Note_on_c, 9, 49, 95
4, 359520, Note_off_c, 9, 49, 95
4, 359760, Note_on_c, 9, 45, 95
4, 360000, Note_off_c, 9, 45, 95
4, 360000, Note_on_c, 9, 45, 95
4, 360480, Note_off_c, 9, 45, 95
4, 360480, Note_on_c, 9, 45, 95
4, 360960, Note_off_c, 9, 45, 95
4, 360960, Note_on_c, 9, 45, 95
4, 361440, Note_off_c, 9, 45, 95
4, 361440, Note_on_c, 9, 45, 95
4, 361920, Note_off_c, 9, 45, 95
4, 361920, Note_on_c, 9, 45, 95
4, 362400, Note_off_c, 9, 45, 95
4, 362400, Note_on_c, 9, 45, 95
4, 362880, Note_off_c, 9, 45, 95
4, 362880, Note_on_c, 9, 49, 95
4, 363360, Note_off_c, 9, 49, 95
4, 363600, Note_on_c, 9, 45, 95
4, 363840, Note_off_c, 9, 45, 95
4, 363840, Note_on_c, 9, 45, 95
4, 364320, Note_off_c, 9, 45, 95
4, 364320, Note_on_c, 9, 45, 95
4, 364800, Note_off_c, 9, 45, 95
4, 364800, Note_on_c, 9, 45, 95
4, 365280, Note_off_c, 9, 45, 95
4, 365760, Note_on_c, 9, 45, 95
4, 366240, Note_off_c, 9, 45, 95
4, 366720, Note_on_c, 9, 45, 95
4, 367200, Note_off_c, 9, 45, 95
4, 367680, Note_on_c, 9, 45, 95
4, 368160, Note_off_c, 9, 45, 95
4, 368640, Note_on_c, 9, 45, 95
4, 369120, Note_off_c, 9, 45, 95
4, 369600, Note_on_c, 9, 45, 95
4, 370080, Note_off_c, 9, 45, 95
4, 370560, Note_on_c, 9, 45, 95
4, 371040, Note_off_c, 9, 45, 95
4, 371520, Note_on_c, 9, 45, 95
4, 372000, Note_off_c, 9, 45, 95
4, 379200, Note_on_c, 9, 45, 95
4, 379440, Note_off_c, 9, 45, 95
4, 379440, Note_on_c, 9, 45, 95
4, 379680, Note_off_c, 9, 45, 95
4, 379680, Note_on_c, 9, 45, 95
4, 379920, Note_off_c, 9, 45, 95
4, 379920, Note_on_c, 9, 49, 95
4, 380160, Note_off_c, 9, 49, 95
4, 380160, End_track
5, 0, Start_track
5, 0, Pitch_bend_c, 4, 8192
5, 0, Control_c, 4, 7, 87
5, 0, Control_c, 4, 10, 23
5, 0, Control_c, 4, 93, 0
5, 0, Control_c, 4, 91, 0
5, 0, Control_c, 4, 95, 0
5, 0, Control_c, 4, 92, 0
5, 0, Control_c, 4, 11, 127
5, 0, Program_c, 4, 29
5, 0, Control_c, 5, 7, 87
5, 0, Control_c, 5, 10, 23
5, 0, Control_c, 5, 93, 0
5, 0, Control_c, 5, 91, 0
5, 0, Control_c, 5, 95, 0
5, 0, Control_c, 5, 92, 0
5, 0, Control_c, 5, 11, 127
5, 0, Program_c, 5, 29
5, 0, Note_on_c, 4, 45, 95
5, 152, Note_off_c, 4, 45, 95
5, 480, Note_on_c, 4, 45, 95
5, 632, Note_off_c, 4, 45, 95
5, 960, Note_on_c, 4, 57, 95
5, 1440, Note_off_c, 4, 57, 95
5, 1440, Note_on_c, 4, 57, 95
5, 1920, Note_off_c, 4, 57, 95
5, 1920, Note_on_c, 4, 45, 95
5, 2072, Note_off_c, 4, 45, 95
5, 2400, Note_on_c, 4, 45, 95
5, 2552, Note_off_c, 4, 45, 95
5, 2880, Note_on_c, 4, 52, 95
5, 3360, Note_off_c, 4, 52, 95
5, 3360, Note_on_c, 4, 52, 95
5, 3840, Note_off_c, 4, 52, 95
5, 3840, Note_on_c, 4, 45, 95
5, 3992, Note_off_c, 4, 45, 95
5, 4320, Note_on_c, 4, 45, 95
5, 4472, Note_off_c, 4, 45, 95
5, 4800, Note_on_c, 4, 57, 95
5, 5280, Note_off_c, 4, 57, 95
5, 5280, Note_on_c, 4, 57, 95
5, 5760, Note_off_c, 4, 57, 95
5, 5760, Note_on_c, 4, 45, 95
5, 5912, Note_off_c, 4, 45, 95
5, 6240, Note_on_c, 4, 45, 95
5, 6392, Note_off_c, 4, 45, 95
5, 6720, Note_on_c, 4, 52, 95
5, 7200, Note_off_c, 4, 52, 95
5, 7200, Note_on_c, 4, 52, 95
5, 7680, Note_off_c, 4, 52, 95
5, 7680, Note_on_c, 4, 45, 95
5, 7832, Note_off_c, 4, 45, 95
5, 8160, Note_on_c, 4, 45, 95
5, 8312, Note_off_c, 4, 45, 95
5, 8640, Note_on_c, 4, 57, 95
5, 9120, Note_off_c, 4, 57, 95
5, 9120, Note_on_c, 4, 57, 95
5, 9600, Note_off_c, 4, 57, 95
5, 9600, Note_on_c, 4, 45, 95
5, 9752, Note_off_c, 4, 45, 95
5, 10080, Note_on_c, 4, 45, 95
5, 10232, Note_off_c, 4, 45, 95
5, 10560, Note_on_c, 4, 52, 95
5, 11040, Note_off_c, 4, 52, 95
5, 11040, Note_on_c, 4, 52, 95
5, 11520, Note_off_c, 4, 52, 95
5, 11520, Note_on_c, 4, 45, 95
5, 11672, Note_off_c, 4, 45, 95
5, 12000, Note_on_c, 4, 45, 95
5, 12152, Note_off_c, 4, 45, 95
5, 12480, Note_on_c, 4, 57, 95
5, 12960, Note_off_c, 4, 57, 95
5, 12960, Note_on_c, 4, 57, 95
5, 13440, Note_off_c, 4, 57, 95
5, 13440, Note_on_c, 4, 45, 95
5, 13592, Note_off_c, 4, 45, 95
5, 13920, Note_on_c, 4, 45, 95
5, 14072, Note_off_c, 4, 45, 95
5, 14400, Note_on_c, 4, 52, 95
5, 14880, Note_off_c, 4, 52, 95
5, 14880, Note_on_c, 4, 52, 95
5, 15360, Note_off_c, 4, 52, 95
5, 15360, Note_on_c, 4, 45, 95
5, 15512, Note_off_c, 4, 45, 95
5, 15840, Note_on_c, 4, 45, 95
5, 15992, Note_off_c, 4, 45, 95
5, 16320, Note_on_c, 4, 57, 95
5, 16800, Note_off_c, 4, 57, 95
5, 16800, Note_on_c, 4, 57, 95
5, 17280, Note_off_c, 4, 57, 95
5, 17280, Note_on_c, 4, 45, 95
5, 17432, Note_off_c, 4, 45, 95
5, 17760, Note_on_c, 4, 45, 95
5, 17912, Note_off_c, 4, 45, 95
5, 18240, Note_on_c, 4, 52, 95
5, 18720, Note_off_c, 4, 52, 95
5, 18720, Note_on_c, 4, 52, 95
5, 19200, Note_off_c, 4, 52, 95
5, 19200, Note_on_c, 4, 45, 95
5, 19352, Note_off_c, 4, 45, 95
5, 19680, Note_on_c, 4, 45, 95
5, 19832, Note_off_c, 4, 45, 95
5, 20160, Note_on_c, 4, 57, 95
5, 20640, Note_off_c, 4, 57, 95
5, 20640, Note_on_c, 4, 57, 95
5, 21120, Note_off_c, 4, 57, 95
5, 21120, Note_on_c, 4, 45, 95
5, 21272, Note_off_c, 4, 45, 95
5, 21600, Note_on_c, 4, 45, 95
5, 21752, Note_off_c, 4, 45, 95
5, 22080, Note_on_c, 4, 52, 95
5, 22560, Note_off_c, 4, 52, 95
5, 22560, Note_on_c, 4, 52, 95
5, 23040, Note_off_c, 4, 52, 95
5, 23040, Note_on_c, 4, 45, 95
5, 23192, Note_off_c, 4, 45, 95
5, 23520, Note_on_c, 4, 45, 95
5, 23672, Note_off_c, 4, 45, 95
5, 24000, Note_on_c, 4, 57, 95
5, 24480, Note_off_c, 4, 57, 95
5, 24480, Note_on_c, 4, 57, 95
5, 24960, Note_off_c, 4, 57, 95
5, 24960, Note_on_c, 4, 45, 95
5, 25112, Note_off_c, 4, 45, 95
5, 25440, Note_on_c, 4, 45, 95
5, 25592, Note_off_c, 4, 45, 95
5, 25920, Note_on_c, 4, 52, 95
5, 26400, Note_off_c, 4, 52, 95
5, 26400, Note_on_c, 4, 52, 95
5, 26880, Note_off_c, 4, 52, 95
5, 26880, Note_on_c, 4, 45, 95
5, 27032, Note_off_c, 4, 45, 95
5, 27360, Note_on_c, 4, 45, 95
5, 27512, Note_off_c, 4, 45, 95
5, 27840, Note_on_c, 4, 57, 95
5, 28320, Note_off_c, 4, 57, 95
5, 28320, Note_on_c, 4, 57, 95
5, 28800, Note_off_c, 4, 57, 95
5, 28800, Note_on_c, 4, 45, 95
5, 28952, Note_off_c, 4, 45, 95
5, 29280, Note_on_c, 4, 45, 95
5, 29432, Note_off_c, 4, 45, 95
5, 29760, Note_on_c, 4, 52, 95
5, 30240, Note_off_c, 4, 52, 95
5, 30240, Note_on_c, 4, 52, 95
5, 30720, Note_off_c, 4, 52, 95
5, 30720, Note_on_c, 4, 45, 95
5, 30872, Note_off_c, 4, 45, 95
5, 31200, Note_on_c, 4, 45, 95
5, 31352, Note_off_c, 4, 45, 95
5, 31680, Note_on_c, 4, 57, 111
5, 32160, Note_off_c, 4, 57, 111
5, 32160, Note_on_c, 4, 57, 111
5, 32640, Note_off_c, 4, 57, 111
5, 32640, Note_on_c, 4, 45, 95
5, 32792, Note_off_c, 4, 45, 95
5, 33120, Note_on_c, 4, 45, 95
5, 33272, Note_off_c, 4, 45, 95
5, 33600, Note_on_c, 4, 52, 111
5, 34080, Note_off_c, 4, 52, 111
5, 34080, Note_on_c, 4, 52, 111
5, 34560, Note_off_c, 4, 52, 111
5, 34560, Note_on_c, 4, 45, 95
5, 34712, Note_off_c, 4, 45, 95
5, 35040, Note_on_c, 4, 45, 95
5, 35192, Note_off_c, 4, 45, 95
5, 35520, Note_on_c, 4, 57, 111
5, 36000, Note_off_c, 4, 57, 111
5, 36000, Note_on_c, 4, 57, 111
5, 36480, Note_off_c, 4, 57, 111
5, 36480, Note_on_c, 4, 45, 95
5, 36632, Note_off_c, 4, 45, 95
5, 36960, Note_on_c, 4, 45, 95
5, 37112, Note_off_c, 4, 45, 95
5, 37440, Note_on_c, 4, 52, 111
5, 37920, Note_off_c, 4, 52, 111
5, 37920, Note_on_c, 4, 52, 111
5, 38400, Note_off_c, 4, 52, 111
5, 38400, Note_on_c, 4, 45, 95
5, 38552, Note_off_c, 4, 45, 95
5, 38880, Note_on_c, 4, 45, 95
5, 39032, Note_off_c, 4, 45, 95
5, 39360, Note_on_c, 4, 57, 111
5, 39840, Note_off_c, 4, 57, 111
5, 39840, Note_on_c, 4, 57, 111
5, 40320, Note_off_c, 4, 57, 111
5, 40320, Note_on_c, 4, 45, 95
5, 40472, Note_off_c, 4, 45, 95
5, 40800, Note_on_c, 4, 45, 95
5, 40952, Note_off_c, 4, 45, 95
5, 41280, Note_on_c, 4, 52, 111
5, 41760, Note_off_c, 4, 52, 111
5, 41760, Note_on_c, 4, 52, 111
5, 42240, Note_off_c, 4, 52, 111
5, 42240, Note_on_c, 4, 45, 95
5, 42392, Note_off_c, 4, 45, 95
5, 42720, Note_on_c, 4, 45, 95
5, 42872, Note_off_c, 4, 45, 95
5, 43200, Note_on_c, 4, 57, 111
5, 43680, Note_off_c, 4, 57, 111
5, 43680, Note_on_c, 4, 57, 111
5, 44160, Note_off_c, 4, 57, 111
5, 44160, Note_on_c, 4, 45, 95
5, 44312, Note_off_c, 4, 45, 95
5, 44640, Note_on_c, 4, 45, 95
5, 44792, Note_off_c, 4, 45, 95
5, 45120, Note_on_c, 4, 52, 111
5, 45600, Note_off_c, 4, 52, 111
5, 45600, Note_on_c, 4, 52, 111
5, 46080, Note_off_c, 4, 52, 111
5, 46080, Note_on_c, 4, 45, 95
5, 46232, Note_off_c, 4, 45, 95
5, 46560, Note_on_c, 4, 45, 95
5, 46712, Note_off_c, 4, 45, 95
5, 47040, Note_on_c, 4, 57, 111
5, 47520, Note_off_c, 4, 57, 111
5, 47520, Note_on_c, 4, 57, 111
5, 48000, Note_off_c, 4, 57, 111
5, 48000, Note_on_c, 4, 45, 95
5, 48152, Note_off_c, 4, 45, 95
5, 48480, Note_on_c, 4, 45, 95
5, 48632, Note_off_c, 4, 45, 95
5, 48960, Note_on_c, 4, 52, 111
5, 49440, Note_off_c, 4, 52, 111
5, 49440, Note_on_c, 4, 52, 111
5, 49920, Note_off_c, 4, 52, 111
5, 49920, Note_on_c, 4, 45, 95
5, 50072, Note_off_c, 4, 45, 95
5, 50400, Note_on_c, 4, 45, 95
5, 50552, Note_off_c, 4, 45, 95
5, 50880, Note_on_c, 4, 57, 111
5, 51360, Note_off_c, 4, 57, 111
5, 51360, Note_on_c, 4, 57, 111
5, 51840, Note_off_c, 4, 57, 111
5, 51840, Note_on_c, 4, 45, 95
5, 51992, Note_off_c, 4, 45, 95
5, 52320, Note_on_c, 4, 45, 95
5, 52472, Note_off_c, 4, 45, 95
5, 52800, Note_on_c, 4, 52, 111
5, 53280, Note_off_c, 4, 52, 111
5, 53280, Note_on_c, 4, 52, 111
5, 53760, Note_off_c, 4, 52, 111
5, 53760, Note_on_c, 4, 45, 95
5, 53912, Note_off_c, 4, 45, 95
5, 54240, Note_on_c, 4, 45, 95
5, 54392, Note_off_c, 4, 45, 95
5, 54720, Note_on_c, 4, 57, 111
5, 55200, Note_off_c, 4, 57, 111
5, 55200, Note_on_c, 4, 57, 111
5, 55680, Note_off_c, 4, 57, 111
5, 55680, Note_on_c, 4, 45, 95
5, 55832, Note_off_c, 4, 45, 95
5, 56160, Note_on_c, 4, 45, 95
5, 56312, Note_off_c, 4, 45, 95
5, 56640, Note_on_c, 4, 52, 111
5, 57120, Note_off_c, 4, 52, 111
5, 57120, Note_on_c, 4, 52, 111
5, 57600, Note_off_c, 4, 52, 111
5, 57600, Note_on_c, 4, 45, 95
5, 57752, Note_off_c, 4, 45, 95
5, 58080, Note_on_c, 4, 45, 95
5, 58232, Note_off_c, 4, 45, 95
5, 58560, Note_on_c, 4, 57, 111
5, 59040, Note_off_c, 4, 57, 111
5, 59040, Note_on_c, 4, 57, 111
5, 59520, Note_off_c, 4, 57, 111
5, 59520, Note_on_c, 4, 45, 95
5, 59672, Note_off_c, 4, 45, 95
5, 60000, Note_on_c, 4, 45, 95
5, 60152, Note_off_c, 4, 45, 95
5, 60480, Note_on_c, 4, 52, 111
5, 60960, Note_off_c, 4, 52, 111
5, 60960, Note_on_c, 4, 52, 111
5, 61440, Note_off_c, 4, 52, 111
5, 61440, Note_on_c, 4, 61, 95
5, 61440, Note_on_c, 4, 57, 95
5, 61440, Note_on_c, 4, 52, 95
5, 61440, Note_on_c, 4, 45, 95
5, 62400, Note_off_c, 4, 61, 95
5, 62400, Note_off_c, 4, 57, 95
5, 62400, Note_off_c, 4, 52, 95
5, 62400, Note_off_c, 4, 45, 95
5, 62400, Note_on_c, 4, 61, 95
5, 62400, Note_on_c, 4, 57, 95
5, 62400, Note_on_c, 4, 52, 95
5, 62400, Note_on_c, 4, 45, 95
5, 63840, Note_off_c, 4, 61, 95
5, 63840, Note_off_c, 4, 57, 95
5, 63840, Note_off_c, 4, 52, 95
5, 63840, Note_off_c, 4, 45, 95
5, 63840, Note_on_c, 4, 61, 95
5, 63840, Note_on_c, 4, 57, 95
5, 63840, Note_on_c, 4, 52, 95
5, 63840, Note_on_c, 4, 45, 95
5, 64800, Note_off_c, 4, 61, 95
5, 64800, Note_off_c, 4, 57, 95
5, 64800, Note_off_c, 4, 52, 95
5, 64800, Note_off_c, 4, 45, 95
5, 64800, Note_on_c, 4, 52, 95
5, 64800, Note_on_c, 4, 45, 95
5, 65280, Note_off_c, 4, 52, 95
5, 65280, Note_off_c, 4, 45, 95
5, 65280, Note_on_c, 4, 61, 95
5, 65280, Note_on_c, 4, 57, 95
5, 65280, Note_on_c, 4, 52, 95
5, 65280, Note_on_c, 4, 45, 95
5, 66240, Note_off_c, 4, 61, 95
5, 66240, Note_off_c, 4, 57, 95
5, 66240, Note_off_c, 4, 52, 95
5, 66240, Note_off_c, 4, 45, 95
5, 66240, Note_on_c, 4, 61, 95
5, 66240, Note_on_c, 4, 57, 95
5, 66240, Note_on_c, 4, 52, 95
5, 66240, Note_on_c, 4, 45, 95
5, 67680, Note_off_c, 4, 61, 95
5, 67680, Note_off_c, 4, 57, 95
5, 67680, Note_off_c, 4, 52, 95
5, 67680, Note_off_c, 4, 45, 95
5, 67680, Note_on_c, 4, 61, 95
5, 67680, Note_on_c, 4, 57, 95
5, 67680, Note_on_c, 4, 52, 95
5, 67680, Note_on_c, 4, 45, 95
5, 68640, Note_off_c, 4, 61, 95
5, 68640, Note_off_c, 4, 57, 95
5, 68640, Note_off_c, 4, 52, 95
5, 68640, Note_off_c, 4, 45, 95
5, 68640, Note_on_c, 4, 52, 95
5, 68640, Note_on_c, 4, 45, 95
5, 69120, Note_off_c, 4, 52, 95
5, 69120, Note_off_c, 4, 45, 95
5, 69120, Note_on_c, 4, 61, 95
5, 69120, Note_on_c, 4, 57, 95
5, 69120, Note_on_c, 4, 52, 95
5, 69120, Note_on_c, 4, 45, 95
5, 70080, Note_off_c, 4, 61, 95
5, 70080, Note_off_c, 4, 57, 95
5, 70080, Note_off_c, 4, 52, 95
5, 70080, Note_off_c, 4, 45, 95
5, 70080, Note_on_c, 4, 61, 95
5, 70080, Note_on_c, 4, 57, 95
5, 70080, Note_on_c, 4, 52, 95
5, 70080, Note_on_c, 4, 45, 95
5, 71520, Note_off_c, 4, 61, 95
5, 71520, Note_off_c, 4, 57, 95
5, 71520, Note_off_c, 4, 52, 95
5, 71520, Note_off_c, 4, 45, 95
5, 71520, Note_on_c, 4, 61, 95
5, 71520, Note_on_c, 4, 57, 95
5, 71520, Note_on_c, 4, 52, 95
5, 71520, Note_on_c, 4, 45, 95
5, 72480, Note_off_c, 4, 61, 95
5, 72480, Note_off_c, 4, 57, 95
5, 72480, Note_off_c, 4, 52, 95
5, 72480, Note_off_c, 4, 45, 95
5, 72480, Note_on_c, 4, 52, 95
5, 72480, Note_on_c, 4, 45, 95
5, 72960, Note_off_c, 4, 52, 95
5, 72960, Note_off_c, 4, 45, 95
5, 72960, Note_on_c, 4, 61, 95
5, 72960, Note_on_c, 4, 57, 95
5, 72960, Note_on_c, 4, 52, 95
5, 72960, Note_on_c, 4, 45, 95
5, 73920, Note_off_c, 4, 61, 95
5, 73920, Note_off_c, 4, 57, 95
5, 73920, Note_off_c, 4, 52, 95
5, 73920, Note_off_c, 4, 45, 95
5, 73920, Note_on_c, 4, 61, 95
5, 73920, Note_on_c, 4, 57, 95
5, 73920, Note_on_c, 4, 52, 95
5, 73920, Note_on_c, 4, 45, 95
5, 75360, Note_off_c, 4, 61, 95
5, 75360, Note_off_c, 4, 57, 95
5, 75360, Note_off_c, 4, 52, 95
5, 75360, Note_off_c, 4, 45, 95
5, 75360, Note_on_c, 4, 61, 95
5, 75360, Note_on_c, 4, 57, 95
5, 75360, Note_on_c, 4, 52, 95
5, 75360, Note_on_c, 4, 45, 95
5, 76320, Note_off_c, 4, 61, 95
5, 76320, Note_off_c, 4, 57, 95
5, 76320, Note_off_c, 4, 52, 95
5, 76320, Note_off_c, 4, 45, 95
5, 76320, Note_on_c, 4, 52, 95
5, 76320, Note_on_c, 4, 45, 95
5, 76800, Note_off_c, 4, 52, 95
5, 76800, Note_off_c, 4, 45, 95
5, 76800, Note_on_c, 4, 57, 95
5, 76800, Note_on_c, 4, 52, 95
5, 76800, Note_on_c, 4, 45, 95
5, 77760, Note_off_c, 4, 57, 95
5, 77760, Note_off_c, 4, 52, 95
5, 77760, Note_off_c, 4, 45, 95
5, 77760, Note_on_c, 4, 55, 95
5, 77760, Note_on_c, 4, 50, 95
5, 77760, Note_on_c, 4, 45, 95
5, 77836, Note_off_c, 4, 55, 95
5, 77836, Note_off_c, 4, 50, 95
5, 77836, Note_off_c, 4, 45, 95
5, 78240, Note_on_c, 4, 50, 95
5, 78240, Note_on_c, 4, 45, 95
5, 78240, Note_on_c, 4, 43, 95
5, 78316, Note_off_c, 4, 45, 95
5, 78720, Note_off_c, 4, 50, 95
5, 78720, Note_off_c, 4, 43, 95
5, 78720, Note_on_c, 4, 67, 95
5, 78720, Note_on_c, 4, 59, 95
5, 78720, Note_on_c, 4, 55, 95
5, 78720, Note_on_c, 4, 50, 95
5, 78720, Note_on_c, 4, 48, 95
5, 78720, Note_on_c, 4, 43, 95
5, 78796, Note_off_c, 4, 48, 95
5, 80160, Note_off_c, 4, 67, 95
5, 80160, Note_off_c, 4, 59, 95
5, 80160, Note_off_c, 4, 55, 95
5, 80160, Note_off_c, 4, 50, 95
5, 80160, Note_off_c, 4, 43, 95
5, 80160, Note_on_c, 4, 64, 95
5, 80160, Note_on_c, 4, 59, 95
5, 80160, Note_on_c, 4, 55, 95
5, 80160, Note_on_c, 4, 50, 95
5, 80236, Note_off_c, 4, 64, 95
5, 80236, Note_off_c, 4, 59, 95
5, 80236, Note_off_c, 4, 55, 95
5, 80236, Note_off_c, 4, 50, 95
5, 80640, Note_on_c, 4, 66, 95
5, 80640, Note_on_c, 4, 62, 95
5, 80640, Note_on_c, 4, 57, 95
5, 80640, Note_on_c, 4, 50, 95
5, 81600, Note_off_c, 4, 66, 95
5, 81600, Note_off_c, 4, 62, 95
5, 81600, Note_off_c, 4, 57, 95
5, 81600, Note_off_c, 4, 50, 95
5, 81600, Note_on_c, 4, 64, 95
5, 81600, Note_on_c, 4, 59, 95
5, 81600, Note_on_c, 4, 55, 95
5, 81600, Note_on_c, 4, 50, 95
5, 81676, Note_off_c, 4, 64, 95
5, 81676, Note_off_c, 4, 59, 95
5, 81676, Note_off_c, 4, 55, 95
5, 81676, Note_off_c, 4, 50, 95
5, 82080, Note_on_c, 4, 57, 95
5, 82080, Note_on_c, 4, 52, 95
5, 82080, Note_on_c, 4, 45, 95
5, 83040, Note_off_c, 4, 57, 95
5, 83040, Note_off_c, 4, 52, 95
5, 83040, Note_off_c, 4, 45, 95
5, 83040, Note_on_c, 4, 57, 95
5, 83040, Note_on_c, 4, 52, 95
5, 83040, Note_on_c, 4, 45, 95
5, 83520, Note_off_c, 4, 57, 95
5, 83520, Note_off_c, 4, 52, 95
5, 83520, Note_off_c, 4, 45, 95
5, 83520, Note_on_c, 4, 57, 95
5, 83520, Note_on_c, 4, 52, 95
5, 83520, Note_on_c, 4, 45, 95
5, 84000, Note_off_c, 4, 57, 95
5, 84000, Note_off_c, 4, 52, 95
5, 84000, Note_off_c, 4, 45, 95
5, 84000, Note_on_c, 4, 55, 95
5, 84000, Note_on_c, 4, 50, 95
5, 84076, Note_off_c, 4, 55, 95
5, 84076, Note_off_c, 4, 50, 95
5, 84480, Note_on_c, 4, 67, 95
5, 84480, Note_on_c, 4, 59, 95
5, 84480, Note_on_c, 4, 55, 95
5, 84480, Note_on_c, 4, 50, 95
5, 84480, Note_on_c, 4, 45, 95
5, 84480, Note_on_c, 4, 43, 95
5, 84556, Note_off_c, 4, 45, 95
5, 86400, Note_off_c, 4, 67, 95
5, 86400, Note_off_c, 4, 59, 95
5, 86400, Note_off_c, 4, 55, 95
5, 86400, Note_off_c, 4, 50, 95
5, 86400, Note_off_c, 4, 43, 95
5, 86400, Note_on_c, 4, 67, 95
5, 86400, Note_on_c, 4, 59, 95
5, 86400, Note_on_c, 4, 55, 95
5, 86400, Note_on_c, 4, 50, 95
5, 86400, Note_on_c, 4, 45, 95
5, 86400, Note_on_c, 4, 43, 95
5, 86476, Note_off_c, 4, 45, 95
5, 86880, Note_off_c, 4, 67, 95
5, 86880, Note_off_c, 4, 59, 95
5, 86880, Note_off_c, 4, 55, 95
5, 86880, Note_off_c, 4, 50, 95
5, 86880, Note_off_c, 4, 43, 95
5, 86880, Note_on_c, 4, 67, 95
5, 86880, Note_on_c, 4, 59, 95
5, 86880, Note_on_c, 4, 55, 95
5, 86880, Note_on_c, 4, 50, 95
5, 86880, Note_on_c, 4, 45, 95
5, 86880, Note_on_c, 4, 43, 95
5, 86956, Note_off_c, 4, 45, 95
5, 87840, Note_off_c, 4, 67, 95
5, 87840, Note_off_c, 4, 59, 95
5, 87840, Note_off_c, 4, 55, 95
5, 87840, Note_off_c, 4, 50, 95
5, 87840, Note_off_c, 4, 43, 95
5, 87840, Note_on_c, 4, 64, 95
5, 87840, Note_on_c, 4, 59, 95
5, 87840, Note_on_c, 4, 55, 95
5, 87840, Note_on_c, 4, 50, 95
5, 87916, Note_off_c, 4, 64, 95
5, 87916, Note_off_c, 4, 59, 95
5, 87916, Note_off_c, 4, 55, 95
5, 87916, Note_off_c, 4, 50, 95
5, 88320, Note_on_c, 4, 68, 95
5, 88320, Note_on_c, 4, 64, 95
5, 88320, Note_on_c, 4, 59, 95
5, 88320, Note_on_c, 4, 52, 95
5, 88800, Note_off_c, 4, 68, 95
5, 88800, Note_off_c, 4, 64, 95
5, 88800, Note_off_c, 4, 59, 95
5, 88800, Note_off_c, 4, 52, 95
5, 88800, Note_on_c, 4, 68, 95
5, 88800, Note_on_c, 4, 64, 95
5, 88800, Note_on_c, 4, 59, 95
5, 88800, Note_on_c, 4, 52, 95
5, 89280, Note_off_c, 4, 68, 95
5, 89280, Note_off_c, 4, 64, 95
5, 89280, Note_off_c, 4, 59, 95
5, 89280, Note_off_c, 4, 52, 95
5, 89280, Note_on_c, 4, 68, 95
5, 89280, Note_on_c, 4, 64, 95
5, 89280, Note_on_c, 4, 59, 95
5, 89280, Note_on_c, 4, 52, 95
5, 90240, Note_off_c, 4, 68, 95
5, 90240, Note_off_c, 4, 64, 95
5, 90240, Note_off_c, 4, 59, 95
5, 90240, Note_off_c, 4, 52, 95
5, 90240, Note_on_c, 4, 68, 95
5, 90240, Note_on_c, 4, 64, 95
5, 90240, Note_on_c, 4, 59, 95
5, 90240, Note_on_c, 4, 52, 95
5, 90720, Note_off_c, 4, 68, 95
5, 90720, Note_off_c, 4, 64, 95
5, 90720, Note_off_c, 4, 59, 95
5, 90720, Note_off_c, 4, 52, 95
5, 90720, Note_on_c, 4, 68, 95
5, 90720, Note_on_c, 4, 64, 95
5, 90720, Note_on_c, 4, 59, 95
5, 90720, Note_on_c, 4, 52, 95
5, 91200, Note_off_c, 4, 68, 95
5, 91200, Note_off_c, 4, 64, 95
5, 91200, Note_off_c, 4, 59, 95
5, 91200, Note_off_c, 4, 52, 95
5, 91200, Note_on_c, 4, 68, 95
5, 91200, Note_on_c, 4, 64, 95
5, 91200, Note_on_c, 4, 59, 95
5, 91200, Note_on_c, 4, 52, 95
5, 91680, Note_off_c, 4, 68, 95
5, 91680, Note_off_c, 4, 64, 95
5, 91680, Note_off_c, 4, 59, 95
5, 91680, Note_off_c, 4, 52, 95
5, 91680, Note_on_c, 4, 59, 95
5, 91680, Note_on_c, 4, 55, 95
5, 91680, Note_on_c, 4, 50, 95
5, 91680, Note_on_c, 4, 45, 95
5, 91756, Note_off_c, 4, 59, 95
5, 91756, Note_off_c, 4, 55, 95
5, 91756, Note_off_c, 4, 50, 95
5, 91756, Note_off_c, 4, 45, 95
5, 92160, Note_on_c, 4, 57, 95
5, 92160, Note_on_c, 4, 52, 95
5, 92160, Note_on_c, 4, 45, 95
5, 93120, Note_off_c, 4, 57, 95
5, 93120, Note_off_c, 4, 52, 95
5, 93120, Note_off_c, 4, 45, 95
5, 93120, Note_on_c, 4, 55, 95
5, 93120, Note_on_c, 4, 50, 95
5, 93120, Note_on_c, 4, 45, 95
5, 93196, Note_off_c, 4, 55, 95
5, 93196, Note_off_c, 4, 50, 95
5, 93196, Note_off_c, 4, 45, 95
5, 93600, Note_on_c, 4, 50, 95
5, 93600, Note_on_c, 4, 45, 95
5, 93600, Note_on_c, 4, 43, 95
5, 93676, Note_off_c, 4, 45, 95
5, 94080, Note_off_c, 4, 50, 95
5, 94080, Note_off_c, 4, 43, 95
5, 94080, Note_on_c, 4, 67, 95
5, 94080, Note_on_c, 4, 59, 95
5, 94080, Note_on_c, 4, 55, 95
5, 94080, Note_on_c, 4, 50, 95
5, 94080, Note_on_c, 4, 48, 95
5, 94080, Note_on_c, 4, 43, 95
5, 94156, Note_off_c, 4, 48, 95
5, 95520, Note_off_c, 4, 67, 95
5, 95520, Note_off_c, 4, 59, 95
5, 95520, Note_off_c, 4, 55, 95
5, 95520, Note_off_c, 4, 50, 95
5, 95520, Note_off_c, 4, 43, 95
5, 95520, Note_on_c, 4, 64, 95
5, 95520, Note_on_c, 4, 59, 95
5, 95520, Note_on_c, 4, 55, 95
5, 95520, Note_on_c, 4, 50, 95
5, 95596, Note_off_c, 4, 64, 95
5, 95596, Note_off_c, 4, 59, 95
5, 95596, Note_off_c, 4, 55, 95
5, 95596, Note_off_c, 4, 50, 95
5, 96000, Note_on_c, 4, 66, 95
5, 96000, Note_on_c, 4, 62, 95
5, 96000, Note_on_c, 4, 57, 95
5, 96000, Note_on_c, 4, 50, 95
5, 96960, Note_off_c, 4, 66, 95
5, 96960, Note_off_c, 4, 62, 95
5, 96960, Note_off_c, 4, 57, 95
5, 96960, Note_off_c, 4, 50, 95
5, 96960, Note_on_c, 4, 64, 95
5, 96960, Note_on_c, 4, 59, 95
5, 96960, Note_on_c, 4, 55, 95
5, 96960, Note_on_c, 4, 50, 95
5, 97036, Note_off_c, 4, 64, 95
5, 97036, Note_off_c, 4, 59, 95
5, 97036, Note_off_c, 4, 55, 95
5, 97036, Note_off_c, 4, 50, 95
5, 97440, Note_on_c, 4, 57, 95
5, 97440, Note_on_c, 4, 52, 95
5, 97440, Note_on_c, 4, 45, 95
5, 98400, Note_off_c, 4, 57, 95
5, 98400, Note_off_c, 4, 52, 95
5, 98400, Note_off_c, 4, 45, 95
5, 98400, Note_on_c, 4, 57, 95
5, 98400, Note_on_c, 4, 52, 95
5, 98400, Note_on_c, 4, 45, 95
5, 98880, Note_off_c, 4, 57, 95
5, 98880, Note_off_c, 4, 52, 95
5, 98880, Note_off_c, 4, 45, 95
5, 98880, Note_on_c, 4, 57, 95
5, 98880, Note_on_c, 4, 52, 95
5, 98880, Note_on_c, 4, 45, 95
5, 99360, Note_off_c, 4, 57, 95
5, 99360, Note_off_c, 4, 52, 95
5, 99360, Note_off_c, 4, 45, 95
5, 99360, Note_on_c, 4, 55, 95
5, 99360, Note_on_c, 4, 50, 95
5, 99360, Note_on_c, 4, 45, 95
5, 99436, Note_off_c, 4, 55, 95
5, 99436, Note_off_c, 4, 50, 95
5, 99436, Note_off_c, 4, 45, 95
5, 99840, Note_on_c, 4, 67, 95
5, 99840, Note_on_c, 4, 59, 95
5, 99840, Note_on_c, 4, 55, 95
5, 99840, Note_on_c, 4, 50, 95
5, 99840, Note_on_c, 4, 45, 95
5, 99840, Note_on_c, 4, 43, 95
5, 99916, Note_off_c, 4, 45, 95
5, 100800, Note_off_c, 4, 67, 95
5, 100800, Note_off_c, 4, 59, 95
5, 100800, Note_off_c, 4, 55, 95
5, 100800, Note_off_c, 4, 50, 95
5, 100800, Note_off_c, 4, 43, 95
5, 100800, Note_on_c, 4, 67, 95
5, 100800, Note_on_c, 4, 59, 95
5, 100800, Note_on_c, 4, 55, 95
5, 100800, Note_on_c, 4, 50, 95
5, 100800, Note_on_c, 4, 45, 95
5, 100800, Note_on_c, 4, 43, 95
5, 100876, Note_off_c, 4, 45, 95
5, 101760, Note_off_c, 4, 67, 95
5, 101760, Note_off_c, 4, 59, 95
5, 101760, Note_off_c, 4, 55, 95
5, 101760, Note_off_c, 4, 50, 95
5, 101760, Note_off_c, 4, 43, 95
5, 101760, Note_on_c, 4, 67, 95
5, 101760, Note_on_c, 4, 59, 95
5, 101760, Note_on_c, 4, 55, 95
5, 101760, Note_on_c, 4, 50, 95
5, 101760, Note_on_c, 4, 45, 95
5, 101760, Note_on_c, 4, 43, 95
5, 101836, Note_off_c, 4, 45, 95
5, 102240, Note_off_c, 4, 67, 95
5, 102240, Note_off_c, 4, 59, 95
5, 102240, Note_off_c, 4, 55, 95
5, 102240, Note_off_c, 4, 50, 95
5, 102240, Note_off_c, 4, 43, 95
5, 102240, Note_on_c, 4, 67, 95
5, 102240, Note_on_c, 4, 59, 95
5, 102240, Note_on_c, 4, 55, 95
5, 102240, Note_on_c, 4, 50, 95
5, 102240, Note_on_c, 4, 45, 95
5, 102240, Note_on_c, 4, 43, 95
5, 102316, Note_off_c, 4, 45, 95
5, 103200, Note_off_c, 4, 67, 95
5, 103200, Note_off_c, 4, 59, 95
5, 103200, Note_off_c, 4, 55, 95
5, 103200, Note_off_c, 4, 50, 95
5, 103200, Note_off_c, 4, 43, 95
5, 103200, Note_on_c, 4, 59, 95
5, 103200, Note_on_c, 4, 55, 95
5, 103200, Note_on_c, 4, 50, 95
5, 103200, Note_on_c, 4, 45, 95
5, 103276, Note_off_c, 4, 59, 95
5, 103276, Note_off_c, 4, 55, 95
5, 103276, Note_off_c, 4, 50, 95
5, 103276, Note_off_c, 4, 45, 95
5, 103680, Note_on_c, 4, 68, 95
5, 103680, Note_on_c, 4, 64, 95
5, 103680, Note_on_c, 4, 59, 95
5, 103680, Note_on_c, 4, 52, 95
5, 104160, Note_off_c, 4, 68, 95
5, 104160, Note_off_c, 4, 64, 95
5, 104160, Note_off_c, 4, 59, 95
5, 104160, Note_off_c, 4, 52, 95
5, 104160, Note_on_c, 4, 68, 95
5, 104160, Note_on_c, 4, 64, 95
5, 104160, Note_on_c, 4, 59, 95
5, 104160, Note_on_c, 4, 52, 95
5, 104640, Note_off_c, 4, 68, 95
5, 104640, Note_off_c, 4, 64, 95
5, 104640, Note_off_c, 4, 59, 95
5, 104640, Note_off_c, 4, 52, 95
5, 104640, Note_on_c, 4, 68, 95
5, 104640, Note_on_c, 4, 64, 95
5, 104640, Note_on_c, 4, 59, 95
5, 104640, Note_on_c, 4, 52, 95
5, 105120, Note_off_c, 4, 68, 95
5, 105120, Note_off_c, 4, 64, 95
5, 105120, Note_off_c, 4, 59, 95
5, 105120, Note_off_c, 4, 52, 95
5, 105120, Note_on_c, 4, 68, 95
5, 105120, Note_on_c, 4, 64, 95
5, 105120, Note_on_c, 4, 59, 95
5, 105120, Note_on_c, 4, 52, 95
5, 105600, Note_off_c, 4, 68, 95
5, 105600, Note_off_c, 4, 64, 95
5, 105600, Note_off_c, 4, 59, 95
5, 105600, Note_off_c, 4, 52, 95
5, 105600, Note_on_c, 4, 68, 95
5, 105600, Note_on_c, 4, 64, 95
5, 105600, Note_on_c, 4, 59, 95
5, 105600, Note_on_c, 4, 52, 95
5, 106080, Note_off_c, 4, 68, 95
5, 106080, Note_off_c, 4, 64, 95
5, 106080, Note_off_c, 4, 59, 95
5, 106080, Note_off_c, 4, 52, 95
5, 106080, Note_on_c, 4, 68, 95
5, 106080, Note_on_c, 4, 64, 95
5, 106080, Note_on_c, 4, 59, 95
5, 106080, Note_on_c, 4, 52, 95
5, 106560, Note_off_c, 4, 68, 95
5, 106560, Note_off_c, 4, 64, 95
5, 106560, Note_off_c, 4, 59, 95
5, 106560, Note_off_c, 4, 52, 95
5, 106560, Note_on_c, 4, 68, 95
5, 106560, Note_on_c, 4, 64, 95
5, 106560, Note_on_c, 4, 59, 95
5, 106560, Note_on_c, 4, 52, 95
5, 107040, Note_off_c, 4, 68, 95
5, 107040, Note_off_c, 4, 64, 95
5, 107040, Note_off_c, 4, 59, 95
5, 107040, Note_off_c, 4, 52, 95
5, 107040, Note_on_c, 4, 68, 95
5, 107040, Note_on_c, 4, 64, 95
5, 107040, Note_on_c, 4, 59, 95
5, 107040, Note_on_c, 4, 52, 95
5, 107520, Note_off_c, 4, 68, 95
5, 107520, Note_off_c, 4, 64, 95
5, 107520, Note_off_c, 4, 59, 95
5, 107520, Note_off_c, 4, 52, 95
5, 107520, Note_on_c, 4, 64, 95
5, 107520, Note_on_c, 4, 59, 95
5, 107520, Note_on_c, 4, 52, 95
5, 108000, Note_off_c, 4, 64, 95
5, 108000, Note_off_c, 4, 59, 95
5, 108000, Note_off_c, 4, 52, 95
5, 108000, Note_on_c, 4, 64, 95
5, 108000, Note_on_c, 4, 59, 95
5, 108000, Note_on_c, 4, 52, 95
5, 108480, Note_off_c, 4, 64, 95
5, 108480, Note_off_c, 4, 59, 95
5, 108480, Note_off_c, 4, 52, 95
5, 108480, Note_on_c, 4, 64, 95
5, 108480, Note_on_c, 4, 59, 95
5, 108480, Note_on_c, 4, 52, 95
5, 108960, Note_off_c, 4, 64, 95
5, 108960, Note_off_c, 4, 59, 95
5, 108960, Note_off_c, 4, 52, 95
5, 108960, Note_on_c, 4, 64, 95
5, 108960, Note_on_c, 4, 59, 95
5, 108960, Note_on_c, 4, 52, 95
5, 109440, Note_off_c, 4, 64, 95
5, 109440, Note_off_c, 4, 59, 95
5, 109440, Note_off_c, 4, 52, 95
5, 109440, Note_on_c, 4, 64, 95
5, 109440, Note_on_c, 4, 59, 95
5, 109440, Note_on_c, 4, 52, 95
5, 109920, Note_off_c, 4, 64, 95
5, 109920, Note_off_c, 4, 59, 95
5, 109920, Note_off_c, 4, 52, 95
5, 109920, Note_on_c, 4, 64, 95
5, 109920, Note_on_c, 4, 59, 95
5, 109920, Note_on_c, 4, 52, 95
5, 110400, Note_off_c, 4, 64, 95
5, 110400, Note_off_c, 4, 59, 95
5, 110400, Note_off_c, 4, 52, 95
5, 110400, Note_on_c, 4, 64, 95
5, 110400, Note_on_c, 4, 59, 95
5, 110400, Note_on_c, 4, 52, 95
5, 110880, Note_off_c, 4, 64, 95
5, 110880, Note_off_c, 4, 59, 95
5, 110880, Note_off_c, 4, 52, 95
5, 110880, Note_on_c, 4, 64, 95
5, 110880, Note_on_c, 4, 59, 95
5, 110880, Note_on_c, 4, 52, 95
5, 111360, Note_off_c, 4, 64, 95
5, 111360, Note_off_c, 4, 59, 95
5, 111360, Note_off_c, 4, 52, 95
5, 111360, Note_on_c, 4, 57, 95
5, 111360, Note_on_c, 4, 52, 95
5, 111360, Note_on_c, 4, 45, 95
5, 112800, Note_off_c, 4, 57, 95
5, 112800, Note_off_c, 4, 52, 95
5, 112800, Note_off_c, 4, 45, 95
5, 112800, Note_on_c, 4, 57, 95
5, 112800, Note_on_c, 4, 52, 95
5, 112800, Note_on_c, 4, 45, 95
5, 113280, Note_off_c, 4, 57, 95
5, 113280, Note_off_c, 4, 52, 95
5, 113280, Note_off_c, 4, 45, 95
5, 113280, Note_on_c, 4, 57, 95
5, 113280, Note_on_c, 4, 52, 95
5, 113280, Note_on_c, 4, 45, 95
5, 113760, Note_off_c, 4, 57, 95
5, 113760, Note_off_c, 4, 52, 95
5, 113760, Note_off_c, 4, 45, 95
5, 113760, Note_on_c, 4, 57, 95
5, 113760, Note_on_c, 4, 52, 95
5, 113760, Note_on_c, 4, 45, 95
5, 114720, Note_off_c, 4, 57, 95
5, 114720, Note_off_c, 4, 52, 95
5, 114720, Note_off_c, 4, 45, 95
5, 114720, Note_on_c, 4, 57, 95
5, 114720, Note_on_c, 4, 52, 95
5, 114720, Note_on_c, 4, 45, 95
5, 115200, Note_off_c, 4, 57, 95
5, 115200, Note_off_c, 4, 52, 95
5, 115200, Note_off_c, 4, 45, 95
5, 115200, Note_on_c, 4, 57, 95
5, 115200, Note_on_c, 4, 52, 95
5, 115200, Note_on_c, 4, 45, 95
5, 115680, Note_off_c, 4, 57, 95
5, 115680, Note_off_c, 4, 52, 95
5, 115680, Note_off_c, 4, 45, 95
5, 115680, Note_on_c, 4, 57, 95
5, 115680, Note_on_c, 4, 52, 95
5, 115680, Note_on_c, 4, 45, 95
5, 116160, Note_off_c, 4, 57, 95
5, 116160, Note_off_c, 4, 52, 95
5, 116160, Note_off_c, 4, 45, 95
5, 116160, Note_on_c, 4, 57, 95
5, 116160, Note_on_c, 4, 52, 95
5, 116160, Note_on_c, 4, 45, 95
5, 116640, Note_off_c, 4, 57, 95
5, 116640, Note_off_c, 4, 52, 95
5, 116640, Note_off_c, 4, 45, 95
5, 116640, Note_on_c, 4, 57, 95
5, 116640, Note_on_c, 4, 52, 95
5, 116640, Note_on_c, 4, 45, 95
5, 117120, Note_off_c, 4, 57, 95
5, 117120, Note_off_c, 4, 52, 95
5, 117120, Note_off_c, 4, 45, 95
5, 117120, Note_on_c, 4, 57, 95
5, 117120, Note_on_c, 4, 52, 95
5, 117120, Note_on_c, 4, 45, 95
5, 117600, Note_off_c, 4, 57, 95
5, 117600, Note_off_c, 4, 52, 95
5, 117600, Note_off_c, 4, 45, 95
5, 117600, Note_on_c, 4, 57, 95
5, 117600, Note_on_c, 4, 52, 95
5, 117600, Note_on_c, 4, 45, 95
5, 118080, Note_off_c, 4, 57, 95
5, 118080, Note_off_c, 4, 52, 95
5, 118080, Note_off_c, 4, 45, 95
5, 118080, Note_on_c, 4, 57, 95
5, 118080, Note_on_c, 4, 52, 95
5, 118080, Note_on_c, 4, 45, 95
5, 118560, Note_off_c, 4, 57, 95
5, 118560, Note_off_c, 4, 52, 95
5, 118560, Note_off_c, 4, 45, 95
5, 118560, Note_on_c, 4, 59, 95
5, 118560, Note_on_c, 4, 55, 95
5, 118560, Note_on_c, 4, 50, 95
5, 118560, Note_on_c, 4, 45, 95
5, 118636, Note_off_c, 4, 59, 95
5, 118636, Note_off_c, 4, 55, 95
5, 118636, Note_off_c, 4, 50, 95
5, 118636, Note_off_c, 4, 45, 95
5, 119040, Note_on_c, 4, 62, 79
5, 119040, Note_on_c, 4, 57, 79
5, 119040, Note_on_c, 4, 50, 79
5, 119520, Note_off_c, 4, 62, 79
5, 119520, Note_off_c, 4, 57, 79
5, 119520, Note_off_c, 4, 50, 79
5, 119520, Note_on_c, 4, 62, 79
5, 119520, Note_on_c, 4, 57, 79
5, 119520, Note_on_c, 4, 50, 79
5, 120000, Note_off_c, 4, 62, 79
5, 120000, Note_off_c, 4, 57, 79
5, 120000, Note_off_c, 4, 50, 79
5, 120000, Note_on_c, 4, 62, 79
5, 120000, Note_on_c, 4, 57, 79
5, 120000, Note_on_c, 4, 50, 79
5, 120480, Note_off_c, 4, 62, 79
5, 120480, Note_off_c, 4, 57, 79
5, 120480, Note_off_c, 4, 50, 79
5, 120480, Note_on_c, 4, 62, 79
5, 120480, Note_on_c, 4, 57, 79
5, 120480, Note_on_c, 4, 50, 79
5, 120960, Note_off_c, 4, 62, 79
5, 120960, Note_off_c, 4, 57, 79
5, 120960, Note_off_c, 4, 50, 79
5, 120960, Note_on_c, 4, 62, 79
5, 120960, Note_on_c, 4, 57, 79
5, 120960, Note_on_c, 4, 50, 79
5, 121440, Note_off_c, 4, 62, 79
5, 121440, Note_off_c, 4, 57, 79
5, 121440, Note_off_c, 4, 50, 79
5, 121440, Note_on_c, 4, 62, 79
5, 121440, Note_on_c, 4, 57, 79
5, 121440, Note_on_c, 4, 50, 79
5, 121920, Note_off_c, 4, 62, 79
5, 121920, Note_off_c, 4, 57, 79
5, 121920, Note_off_c, 4, 50, 79
5, 121920, Note_on_c, 4, 62, 79
5, 121920, Note_on_c, 4, 57, 79
5, 121920, Note_on_c, 4, 50, 79
5, 122400, Note_off_c, 4, 62, 79
5, 122400, Note_off_c, 4, 57, 79
5, 122400, Note_off_c, 4, 50, 79
5, 122400, Note_on_c, 4, 60, 79
5, 122400, Note_on_c, 4, 55, 79
5, 122400, Note_on_c, 4, 48, 79
5, 122880, Note_off_c, 4, 60, 79
5, 122880, Note_off_c, 4, 55, 79
5, 122880, Note_off_c, 4, 48, 79
5, 122880, Note_on_c, 4, 60, 79
5, 122880, Note_on_c, 4, 55, 79
5, 122880, Note_on_c, 4, 48, 79
5, 123360, Note_off_c, 4, 60, 79
5, 123360, Note_off_c, 4, 55, 79
5, 123360, Note_off_c, 4, 48, 79
5, 123360, Note_on_c, 4, 60, 79
5, 123360, Note_on_c, 4, 55, 79
5, 123360, Note_on_c, 4, 48, 79
5, 123840, Note_off_c, 4, 60, 79
5, 123840, Note_off_c, 4, 55, 79
5, 123840, Note_off_c, 4, 48, 79
5, 123840, Note_on_c, 4, 60, 79
5, 123840, Note_on_c, 4, 55, 79
5, 123840, Note_on_c, 4, 48, 79
5, 124320, Note_off_c, 4, 60, 79
5, 124320, Note_off_c, 4, 55, 79
5, 124320, Note_off_c, 4, 48, 79
5, 124320, Note_on_c, 4, 60, 79
5, 124320, Note_on_c, 4, 55, 79
5, 124320, Note_on_c, 4, 48, 79
5, 124800, Note_off_c, 4, 60, 79
5, 124800, Note_off_c, 4, 55, 79
5, 124800, Note_off_c, 4, 48, 79
5, 124800, Note_on_c, 4, 60, 79
5, 124800, Note_on_c, 4, 55, 79
5, 124800, Note_on_c, 4, 48, 79
5, 125280, Note_off_c, 4, 60, 79
5, 125280, Note_off_c, 4, 55, 79
5, 125280, Note_off_c, 4, 48, 79
5, 125280, Note_on_c, 4, 60, 79
5, 125280, Note_on_c, 4, 55, 79
5, 125280, Note_on_c, 4, 48, 79
5, 125760, Note_off_c, 4, 60, 79
5, 125760, Note_off_c, 4, 55, 79
5, 125760, Note_off_c, 4, 48, 79
5, 125760, Note_on_c, 4, 60, 79
5, 125760, Note_on_c, 4, 55, 79
5, 125760, Note_on_c, 4, 48, 79
5, 126240, Note_off_c, 4, 60, 79
5, 126240, Note_off_c, 4, 55, 79
5, 126240, Note_off_c, 4, 48, 79
5, 126240, Note_on_c, 4, 57, 79
5, 126240, Note_on_c, 4, 52, 79
5, 126240, Note_on_c, 4, 45, 79
5, 126720, Note_off_c, 4, 57, 79
5, 126720, Note_off_c, 4, 52, 79
5, 126720, Note_off_c, 4, 45, 79
5, 126720, Note_on_c, 4, 57, 79
5, 126720, Note_on_c, 4, 52, 79
5, 126720, Note_on_c, 4, 45, 79
5, 127200, Note_off_c, 4, 57, 79
5, 127200, Note_off_c, 4, 52, 79
5, 127200, Note_off_c, 4, 45, 79
5, 127200, Note_on_c, 4, 57, 79
5, 127200, Note_on_c, 4, 52, 79
5, 127200, Note_on_c, 4, 45, 79
5, 127680, Note_off_c, 4, 57, 79
5, 127680, Note_off_c, 4, 52, 79
5, 127680, Note_off_c, 4, 45, 79
5, 127680, Note_on_c, 4, 57, 79
5, 127680, Note_on_c, 4, 52, 79
5, 127680, Note_on_c, 4, 45, 79
5, 128160, Note_off_c, 4, 57, 79
5, 128160, Note_off_c, 4, 52, 79
5, 128160, Note_off_c, 4, 45, 79
5, 128160, Note_on_c, 4, 57, 79
5, 128160, Note_on_c, 4, 52, 79
5, 128160, Note_on_c, 4, 45, 79
5, 128640, Note_off_c, 4, 57, 79
5, 128640, Note_off_c, 4, 52, 79
5, 128640, Note_off_c, 4, 45, 79
5, 128640, Note_on_c, 4, 57, 79
5, 128640, Note_on_c, 4, 52, 79
5, 128640, Note_on_c, 4, 45, 79
5, 129120, Note_off_c, 4, 57, 79
5, 129120, Note_off_c, 4, 52, 79
5, 129120, Note_off_c, 4, 45, 79
5, 129120, Note_on_c, 4, 57, 79
5, 129120, Note_on_c, 4, 52, 79
5, 129120, Note_on_c, 4, 45, 79
5, 129600, Note_off_c, 4, 57, 79
5, 129600, Note_off_c, 4, 52, 79
5, 129600, Note_off_c, 4, 45, 79
5, 129600, Note_on_c, 4, 57, 79
5, 129600, Note_on_c, 4, 52, 79
5, 129600, Note_on_c, 4, 45, 79
5, 130080, Note_off_c, 4, 57, 79
5, 130080, Note_off_c, 4, 52, 79
5, 130080, Note_off_c, 4, 45, 79
5, 130080, Note_on_c, 4, 57, 79
5, 130080, Note_on_c, 4, 52, 79
5, 130080, Note_on_c, 4, 45, 79
5, 130560, Note_off_c, 4, 57, 79
5, 130560, Note_off_c, 4, 52, 79
5, 130560, Note_off_c, 4, 45, 79
5, 130560, Note_on_c, 4, 57, 79
5, 130560, Note_on_c, 4, 52, 79
5, 130560, Note_on_c, 4, 45, 79
5, 131040, Note_off_c, 4, 57, 79
5, 131040, Note_off_c, 4, 52, 79
5, 131040, Note_off_c, 4, 45, 79
5, 131040, Note_on_c, 4, 57, 79
5, 131040, Note_on_c, 4, 52, 79
5, 131040, Note_on_c, 4, 45, 79
5, 131520, Note_off_c, 4, 57, 79
5, 131520, Note_off_c, 4, 52, 79
5, 131520, Note_off_c, 4, 45, 79
5, 131520, Note_on_c, 4, 57, 79
5, 131520, Note_on_c, 4, 52, 79
5, 131520, Note_on_c, 4, 45, 79
5, 132000, Note_off_c, 4, 57, 79
5, 132000, Note_off_c, 4, 52, 79
5, 132000, Note_off_c, 4, 45, 79
5, 132000, Note_on_c, 4, 57, 79
5, 132000, Note_on_c, 4, 52, 79
5, 132000, Note_on_c, 4, 45, 79
5, 132480, Note_off_c, 4, 57, 79
5, 132480, Note_off_c, 4, 52, 79
5, 132480, Note_off_c, 4, 45, 79
5, 132480, Note_on_c, 4, 57, 79
5, 132480, Note_on_c, 4, 52, 79
5, 132480, Note_on_c, 4, 45, 79
5, 132960, Note_off_c, 4, 57, 79
5, 132960, Note_off_c, 4, 52, 79
5, 132960, Note_off_c, 4, 45, 79
5, 132960, Note_on_c, 4, 57, 79
5, 132960, Note_on_c, 4, 52, 79
5, 132960, Note_on_c, 4, 45, 79
5, 133440, Note_off_c, 4, 57, 79
5, 133440, Note_off_c, 4, 52, 79
5, 133440, Note_off_c, 4, 45, 79
5, 133440, Note_on_c, 4, 57, 79
5, 133440, Note_on_c, 4, 52, 79
5, 133440, Note_on_c, 4, 45, 79
5, 133920, Note_off_c, 4, 57, 79
5, 133920, Note_off_c, 4, 52, 79
5, 133920, Note_off_c, 4, 45, 79
5, 133920, Note_on_c, 4, 55, 95
5, 133920, Note_on_c, 4, 50, 95
5, 133920, Note_on_c, 4, 45, 95
5, 133996, Note_off_c, 4, 55, 95
5, 133996, Note_off_c, 4, 50, 95
5, 133996, Note_off_c, 4, 45, 95
5, 134400, Note_on_c, 4, 62, 79
5, 134400, Note_on_c, 4, 57, 79
5, 134400, Note_on_c, 4, 50, 79
5, 134880, Note_off_c, 4, 62, 79
5, 134880, Note_off_c, 4, 57, 79
5, 134880, Note_off_c, 4, 50, 79
5, 134880, Note_on_c, 4, 62, 79
5, 134880, Note_on_c, 4, 57, 79
5, 134880, Note_on_c, 4, 50, 79
5, 135360, Note_off_c, 4, 62, 79
5, 135360, Note_off_c, 4, 57, 79
5, 135360, Note_off_c, 4, 50, 79
5, 135360, Note_on_c, 4, 62, 79
5, 135360, Note_on_c, 4, 57, 79
5, 135360, Note_on_c, 4, 50, 79
5, 135840, Note_off_c, 4, 62, 79
5, 135840, Note_off_c, 4, 57, 79
5, 135840, Note_off_c, 4, 50, 79
5, 135840, Note_on_c, 4, 62, 79
5, 135840, Note_on_c, 4, 57, 79
5, 135840, Note_on_c, 4, 50, 79
5, 136320, Note_off_c, 4, 62, 79
5, 136320, Note_off_c, 4, 57, 79
5, 136320, Note_off_c, 4, 50, 79
5, 136320, Note_on_c, 4, 62, 79
5, 136320, Note_on_c, 4, 57, 79
5, 136320, Note_on_c, 4, 50, 79
5, 136800, Note_off_c, 4, 62, 79
5, 136800, Note_off_c, 4, 57, 79
5, 136800, Note_off_c, 4, 50, 79
5, 136800, Note_on_c, 4, 62, 79
5, 136800, Note_on_c, 4, 57, 79
5, 136800, Note_on_c, 4, 50, 79
5, 137280, Note_off_c, 4, 62, 79
5, 137280, Note_off_c, 4, 57, 79
5, 137280, Note_off_c, 4, 50, 79
5, 137280, Note_on_c, 4, 62, 79
5, 137280, Note_on_c, 4, 57, 79
5, 137280, Note_on_c, 4, 50, 79
5, 137760, Note_off_c, 4, 62, 79
5, 137760, Note_off_c, 4, 57, 79
5, 137760, Note_off_c, 4, 50, 79
5, 137760, Note_on_c, 4, 60, 79
5, 137760, Note_on_c, 4, 55, 79
5, 137760, Note_on_c, 4, 48, 79
5, 138240, Note_off_c, 4, 60, 79
5, 138240, Note_off_c, 4, 55, 79
5, 138240, Note_off_c, 4, 48, 79
5, 138240, Note_on_c, 4, 60, 79
5, 138240, Note_on_c, 4, 55, 79
5, 138240, Note_on_c, 4, 48, 79
5, 138720, Note_off_c, 4, 60, 79
5, 138720, Note_off_c, 4, 55, 79
5, 138720, Note_off_c, 4, 48, 79
5, 138720, Note_on_c, 4, 60, 79
5, 138720, Note_on_c, 4, 55, 79
5, 138720, Note_on_c, 4, 48, 79
5, 139200, Note_off_c, 4, 60, 79
5, 139200, Note_off_c, 4, 55, 79
5, 139200, Note_off_c, 4, 48, 79
5, 139200, Note_on_c, 4, 60, 79
5, 139200, Note_on_c, 4, 55, 79
5, 139200, Note_on_c, 4, 48, 79
5, 139680, Note_off_c, 4, 60, 79
5, 139680, Note_off_c, 4, 55, 79
5, 139680, Note_off_c, 4, 48, 79
5, 139680, Note_on_c, 4, 60, 79
5, 139680, Note_on_c, 4, 55, 79
5, 139680, Note_on_c, 4, 48, 79
5, 140160, Note_off_c, 4, 60, 79
5, 140160, Note_off_c, 4, 55, 79
5, 140160, Note_off_c, 4, 48, 79
5, 140160, Note_on_c, 4, 60, 79
5, 140160, Note_on_c, 4, 55, 79
5, 140160, Note_on_c, 4, 48, 79
5, 140640, Note_off_c, 4, 60, 79
5, 140640, Note_off_c, 4, 55, 79
5, 140640, Note_off_c, 4, 48, 79
5, 140640, Note_on_c, 4, 60, 79
5, 140640, Note_on_c, 4, 55, 79
5, 140640, Note_on_c, 4, 48, 79
5, 141120, Note_off_c, 4, 60, 79
5, 141120, Note_off_c, 4, 55, 79
5, 141120, Note_off_c, 4, 48, 79
5, 141120, Note_on_c, 4, 60, 79
5, 141120, Note_on_c, 4, 55, 79
5, 141120, Note_on_c, 4, 48, 79
5, 141600, Note_off_c, 4, 60, 79
5, 141600, Note_off_c, 4, 55, 79
5, 141600, Note_off_c, 4, 48, 79
5, 141600, Note_on_c, 4, 57, 79
5, 141600, Note_on_c, 4, 52, 79
5, 141600, Note_on_c, 4, 45, 79
5, 142080, Note_off_c, 4, 57, 79
5, 142080, Note_off_c, 4, 52, 79
5, 142080, Note_off_c, 4, 45, 79
5, 142080, Note_on_c, 4, 57, 79
5, 142080, Note_on_c, 4, 52, 79
5, 142080, Note_on_c, 4, 45, 79
5, 142560, Note_off_c, 4, 57, 79
5, 142560, Note_off_c, 4, 52, 79
5, 142560, Note_off_c, 4, 45, 79
5, 142560, Note_on_c, 4, 57, 79
5, 142560, Note_on_c, 4, 52, 79
5, 142560, Note_on_c, 4, 45, 79
5, 143040, Note_off_c, 4, 57, 79
5, 143040, Note_off_c, 4, 52, 79
5, 143040, Note_off_c, 4, 45, 79
5, 143040, Note_on_c, 4, 57, 79
5, 143040, Note_on_c, 4, 52, 79
5, 143040, Note_on_c, 4, 45, 79
5, 143520, Note_off_c, 4, 57, 79
5, 143520, Note_off_c, 4, 52, 79
5, 143520, Note_off_c, 4, 45, 79
5, 143520, Note_on_c, 4, 57, 79
5, 143520, Note_on_c, 4, 52, 79
5, 143520, Note_on_c, 4, 45, 79
5, 144000, Note_off_c, 4, 57, 79
5, 144000, Note_off_c, 4, 52, 79
5, 144000, Note_off_c, 4, 45, 79
5, 144000, Note_on_c, 4, 57, 79
5, 144000, Note_on_c, 4, 52, 79
5, 144000, Note_on_c, 4, 45, 79
5, 144480, Note_off_c, 4, 57, 79
5, 144480, Note_off_c, 4, 52, 79
5, 144480, Note_off_c, 4, 45, 79
5, 144480, Note_on_c, 4, 57, 79
5, 144480, Note_on_c, 4, 52, 79
5, 144480, Note_on_c, 4, 45, 79
5, 144960, Note_off_c, 4, 57, 79
5, 144960, Note_off_c, 4, 52, 79
5, 144960, Note_off_c, 4, 45, 79
5, 144960, Note_on_c, 4, 57, 79
5, 144960, Note_on_c, 4, 52, 79
5, 144960, Note_on_c, 4, 45, 79
5, 145440, Note_off_c, 4, 57, 79
5, 145440, Note_off_c, 4, 52, 79
5, 145440, Note_off_c, 4, 45, 79
5, 145440, Note_on_c, 4, 57, 79
5, 145440, Note_on_c, 4, 52, 79
5, 145440, Note_on_c, 4, 45, 79
5, 145920, Note_off_c, 4, 57, 79
5, 145920, Note_off_c, 4, 52, 79
5, 145920, Note_off_c, 4, 45, 79
5, 145920, Note_on_c, 4, 57, 79
5, 145920, Note_on_c, 4, 52, 79
5, 145920, Note_on_c, 4, 45, 79
5, 146400, Note_off_c, 4, 57, 79
5, 146400, Note_off_c, 4, 52, 79
5, 146400, Note_off_c, 4, 45, 79
5, 146400, Note_on_c, 4, 57, 79
5, 146400, Note_on_c, 4, 52, 79
5, 146400, Note_on_c, 4, 45, 79
5, 146880, Note_off_c, 4, 57, 79
5, 146880, Note_off_c, 4, 52, 79
5, 146880, Note_off_c, 4, 45, 79
5, 146880, Note_on_c, 4, 57, 79
5, 146880, Note_on_c, 4, 52, 79
5, 146880, Note_on_c, 4, 45, 79
5, 147360, Note_off_c, 4, 57, 79
5, 147360, Note_off_c, 4, 52, 79
5, 147360, Note_off_c, 4, 45, 79
5, 147360, Note_on_c, 4, 57, 79
5, 147360, Note_on_c, 4, 52, 79
5, 147360, Note_on_c, 4, 45, 79
5, 147840, Note_off_c, 4, 57, 79
5, 147840, Note_off_c, 4, 52, 79
5, 147840, Note_off_c, 4, 45, 79
5, 147840, Note_on_c, 4, 57, 79
5, 147840, Note_on_c, 4, 52, 79
5, 147840, Note_on_c, 4, 45, 79
5, 148320, Note_off_c, 4, 57, 79
5, 148320, Note_off_c, 4, 52, 79
5, 148320, Note_off_c, 4, 45, 79
5, 148320, Note_on_c, 4, 57, 79
5, 148320, Note_on_c, 4, 52, 79
5, 148320, Note_on_c, 4, 45, 79
5, 148800, Note_off_c, 4, 57, 79
5, 148800, Note_off_c, 4, 52, 79
5, 148800, Note_off_c, 4, 45, 79
5, 148800, Note_on_c, 4, 57, 79
5, 148800, Note_on_c, 4, 52, 79
5, 148800, Note_on_c, 4, 45, 79
5, 149280, Note_off_c, 4, 57, 79
5, 149280, Note_off_c, 4, 52, 79
5, 149280, Note_off_c, 4, 45, 79
5, 149280, Note_on_c, 4, 55, 95
5, 149280, Note_on_c, 4, 50, 95
5, 149280, Note_on_c, 4, 45, 95
5, 149356, Note_off_c, 4, 55, 95
5, 149356, Note_off_c, 4, 50, 95
5, 149356, Note_off_c, 4, 45, 95
5, 149760, Note_on_c, 4, 61, 95
5, 149760, Note_on_c, 4, 57, 95
5, 149760, Note_on_c, 4, 52, 95
5, 149760, Note_on_c, 4, 45, 95
5, 150720, Note_off_c, 4, 61, 95
5, 150720, Note_off_c, 4, 57, 95
5, 150720, Note_off_c, 4, 52, 95
5, 150720, Note_off_c, 4, 45, 95
5, 150720, Note_on_c, 4, 61, 95
5, 150720, Note_on_c, 4, 57, 95
5, 150720, Note_on_c, 4, 52, 95
5, 150720, Note_on_c, 4, 45, 95
5, 152160, Note_off_c, 4, 61, 95
5, 152160, Note_off_c, 4, 57, 95
5, 152160, Note_off_c, 4, 52, 95
5, 152160, Note_off_c, 4, 45, 95
5, 152160, Note_on_c, 4, 61, 95
5, 152160, Note_on_c, 4, 57, 95
5, 152160, Note_on_c, 4, 52, 95
5, 152160, Note_on_c, 4, 45, 95
5, 153120, Note_off_c, 4, 61, 95
5, 153120, Note_off_c, 4, 57, 95
5, 153120, Note_off_c, 4, 52, 95
5, 153120, Note_off_c, 4, 45, 95
5, 153120, Note_on_c, 4, 52, 95
5, 153120, Note_on_c, 4, 45, 95
5, 153600, Note_off_c, 4, 52, 95
5, 153600, Note_off_c, 4, 45, 95
5, 153600, Note_on_c, 4, 57, 95
5, 153600, Note_on_c, 4, 52, 95
5, 153600, Note_on_c, 4, 45, 95
5, 154560, Note_off_c, 4, 57, 95
5, 154560, Note_off_c, 4, 52, 95
5, 154560, Note_off_c, 4, 45, 95
5, 154560, Note_on_c, 4, 55, 95
5, 154560, Note_on_c, 4, 50, 95
5, 154560, Note_on_c, 4, 45, 95
5, 154636, Note_off_c, 4, 55, 95
5, 154636, Note_off_c, 4, 50, 95
5, 154636, Note_off_c, 4, 45, 95
5, 155040, Note_on_c, 4, 50, 95
5, 155040, Note_on_c, 4, 45, 95
5, 155040, Note_on_c, 4, 43, 95
5, 155116, Note_off_c, 4, 45, 95
5, 155520, Note_off_c, 4, 50, 95
5, 155520, Note_off_c, 4, 43, 95
5, 155520, Note_on_c, 4, 67, 95
5, 155520, Note_on_c, 4, 59, 95
5, 155520, Note_on_c, 4, 55, 95
5, 155520, Note_on_c, 4, 50, 95
5, 155520, Note_on_c, 4, 48, 95
5, 155520, Note_on_c, 4, 43, 95
5, 155596, Note_off_c, 4, 48, 95
5, 156960, Note_off_c, 4, 67, 95
5, 156960, Note_off_c, 4, 59, 95
5, 156960, Note_off_c, 4, 55, 95
5, 156960, Note_off_c, 4, 50, 95
5, 156960, Note_off_c, 4, 43, 95
5, 156960, Note_on_c, 4, 64, 95
5, 156960, Note_on_c, 4, 59, 95
5, 156960, Note_on_c, 4, 55, 95
5, 156960, Note_on_c, 4, 50, 95
5, 157036, Note_off_c, 4, 64, 95
5, 157036, Note_off_c, 4, 59, 95
5, 157036, Note_off_c, 4, 55, 95
5, 157036, Note_off_c, 4, 50, 95
5, 157440, Note_on_c, 4, 66, 95
5, 157440, Note_on_c, 4, 62, 95
5, 157440, Note_on_c, 4, 57, 95
5, 157440, Note_on_c, 4, 50, 95
5, 158400, Note_off_c, 4, 66, 95
5, 158400, Note_off_c, 4, 62, 95
5, 158400, Note_off_c, 4, 57, 95
5, 158400, Note_off_c, 4, 50, 95
5, 158400, Note_on_c, 4, 64, 95
5, 158400, Note_on_c, 4, 59, 95
5, 158400, Note_on_c, 4, 55, 95
5, 158400, Note_on_c, 4, 50, 95
5, 158476, Note_off_c, 4, 64, 95
5, 158476, Note_off_c, 4, 59, 95
5, 158476, Note_off_c, 4, 55, 95
5, 158476, Note_off_c, 4, 50, 95
5, 158880, Note_on_c, 4, 57, 95
5, 158880, Note_on_c, 4, 52, 95
5, 158880, Note_on_c, 4, 45, 95
5, 159840, Note_off_c, 4, 57, 95
5, 159840, Note_off_c, 4, 52, 95
5, 159840, Note_off_c, 4, 45, 95
5, 159840, Note_on_c, 4, 57, 95
5, 159840, Note_on_c, 4, 52, 95
5, 159840, Note_on_c, 4, 45, 95
5, 160320, Note_off_c, 4, 57, 95
5, 160320, Note_off_c, 4, 52, 95
5, 160320, Note_off_c, 4, 45, 95
5, 160320, Note_on_c, 4, 57, 95
5, 160320, Note_on_c, 4, 52, 95
5, 160320, Note_on_c, 4, 45, 95
5, 160800, Note_off_c, 4, 57, 95
5, 160800, Note_off_c, 4, 52, 95
5, 160800, Note_off_c, 4, 45, 95
5, 160800, Note_on_c, 4, 55, 95
5, 160800, Note_on_c, 4, 50, 95
5, 160876, Note_off_c, 4, 55, 95
5, 160876, Note_off_c, 4, 50, 95
5, 161280, Note_on_c, 4, 67, 95
5, 161280, Note_on_c, 4, 59, 95
5, 161280, Note_on_c, 4, 55, 95
5, 161280, Note_on_c, 4, 50, 95
5, 161280, Note_on_c, 4, 45, 95
5, 161280, Note_on_c, 4, 43, 95
5, 161356, Note_off_c, 4, 45, 95
5, 163200, Note_off_c, 4, 67, 95
5, 163200, Note_off_c, 4, 59, 95
5, 163200, Note_off_c, 4, 55, 95
5, 163200, Note_off_c, 4, 50, 95
5, 163200, Note_off_c, 4, 43, 95
5, 163200, Note_on_c, 4, 67, 95
5, 163200, Note_on_c, 4, 59, 95
5, 163200, Note_on_c, 4, 55, 95
5, 163200, Note_on_c, 4, 50, 95
5, 163200, Note_on_c, 4, 45, 95
5, 163200, Note_on_c, 4, 43, 95
5, 163276, Note_off_c, 4, 45, 95
5, 163680, Note_off_c, 4, 67, 95
5, 163680, Note_off_c, 4, 59, 95
5, 163680, Note_off_c, 4, 55, 95
5, 163680, Note_off_c, 4, 50, 95
5, 163680, Note_off_c, 4, 43, 95
5, 163680, Note_on_c, 4, 67, 95
5, 163680, Note_on_c, 4, 59, 95
5, 163680, Note_on_c, 4, 55, 95
5, 163680, Note_on_c, 4, 50, 95
5, 163680, Note_on_c, 4, 45, 95
5, 163680, Note_on_c, 4, 43, 95
5, 163756, Note_off_c, 4, 45, 95
5, 164640, Note_off_c, 4, 67, 95
5, 164640, Note_off_c, 4, 59, 95
5, 164640, Note_off_c, 4, 55, 95
5, 164640, Note_off_c, 4, 50, 95
5, 164640, Note_off_c, 4, 43, 95
5, 164640, Note_on_c, 4, 64, 95
5, 164640, Note_on_c, 4, 59, 95
5, 164640, Note_on_c, 4, 55, 95
5, 164640, Note_on_c, 4, 50, 95
5, 164716, Note_off_c, 4, 64, 95
5, 164716, Note_off_c, 4, 59, 95
5, 164716, Note_off_c, 4, 55, 95
5, 164716, Note_off_c, 4, 50, 95
5, 165120, Note_on_c, 4, 68, 95
5, 165120, Note_on_c, 4, 64, 95
5, 165120, Note_on_c, 4, 59, 95
5, 165120, Note_on_c, 4, 52, 95
5, 165600, Note_off_c, 4, 68, 95
5, 165600, Note_off_c, 4, 64, 95
5, 165600, Note_off_c, 4, 59, 95
5, 165600, Note_off_c, 4, 52, 95
5, 165600, Note_on_c, 4, 68, 95
5, 165600, Note_on_c, 4, 64, 95
5, 165600, Note_on_c, 4, 59, 95
5, 165600, Note_on_c, 4, 52, 95
5, 166080, Note_off_c, 4, 68, 95
5, 166080, Note_off_c, 4, 64, 95
5, 166080, Note_off_c, 4, 59, 95
5, 166080, Note_off_c, 4, 52, 95
5, 166080, Note_on_c, 4, 68, 95
5, 166080, Note_on_c, 4, 64, 95
5, 166080, Note_on_c, 4, 59, 95
5, 166080, Note_on_c, 4, 52, 95
5, 167040, Note_off_c, 4, 68, 95
5, 167040, Note_off_c, 4, 64, 95
5, 167040, Note_off_c, 4, 59, 95
5, 167040, Note_off_c, 4, 52, 95
5, 167040, Note_on_c, 4, 68, 95
5, 167040, Note_on_c, 4, 64, 95
5, 167040, Note_on_c, 4, 59, 95
5, 167040, Note_on_c, 4, 52, 95
5, 167520, Note_off_c, 4, 68, 95
5, 167520, Note_off_c, 4, 64, 95
5, 167520, Note_off_c, 4, 59, 95
5, 167520, Note_off_c, 4, 52, 95
5, 167520, Note_on_c, 4, 68, 95
5, 167520, Note_on_c, 4, 64, 95
5, 167520, Note_on_c, 4, 59, 95
5, 167520, Note_on_c, 4, 52, 95
5, 168000, Note_off_c, 4, 68, 95
5, 168000, Note_off_c, 4, 64, 95
5, 168000, Note_off_c, 4, 59, 95
5, 168000, Note_off_c, 4, 52, 95
5, 168000, Note_on_c, 4, 68, 95
5, 168000, Note_on_c, 4, 64, 95
5, 168000, Note_on_c, 4, 59, 95
5, 168000, Note_on_c, 4, 52, 95
5, 168480, Note_off_c, 4, 68, 95
5, 168480, Note_off_c, 4, 64, 95
5, 168480, Note_off_c, 4, 59, 95
5, 168480, Note_off_c, 4, 52, 95
5, 168480, Note_on_c, 4, 59, 95
5, 168480, Note_on_c, 4, 55, 95
5, 168480, Note_on_c, 4, 50, 95
5, 168480, Note_on_c, 4, 45, 95
5, 168556, Note_off_c, 4, 59, 95
5, 168556, Note_off_c, 4, 55, 95
5, 168556, Note_off_c, 4, 50, 95
5, 168556, Note_off_c, 4, 45, 95
5, 168960, Note_on_c, 4, 57, 95
5, 168960, Note_on_c, 4, 52, 95
5, 168960, Note_on_c, 4, 45, 95
5, 169920, Note_off_c, 4, 57, 95
5, 169920, Note_off_c, 4, 52, 95
5, 169920, Note_off_c, 4, 45, 95
5, 169920, Note_on_c, 4, 55, 95
5, 169920, Note_on_c, 4, 50, 95
5, 169920, Note_on_c, 4, 45, 95
5, 169996, Note_off_c, 4, 55, 95
5, 169996, Note_off_c, 4, 50, 95
5, 169996, Note_off_c, 4, 45, 95
5, 170400, Note_on_c, 4, 50, 95
5, 170400, Note_on_c, 4, 45, 95
5, 170400, Note_on_c, 4, 43, 95
5, 170476, Note_off_c, 4, 45, 95
5, 170880, Note_off_c, 4, 50, 95
5, 170880, Note_off_c, 4, 43, 95
5, 170880, Note_on_c, 4, 67, 95
5, 170880, Note_on_c, 4, 59, 95
5, 170880, Note_on_c, 4, 55, 95
5, 170880, Note_on_c, 4, 50, 95
5, 170880, Note_on_c, 4, 48, 95
5, 170880, Note_on_c, 4, 43, 95
5, 170956, Note_off_c, 4, 48, 95
5, 172320, Note_off_c, 4, 67, 95
5, 172320, Note_off_c, 4, 59, 95
5, 172320, Note_off_c, 4, 55, 95
5, 172320, Note_off_c, 4, 50, 95
5, 172320, Note_off_c, 4, 43, 95
5, 172320, Note_on_c, 4, 64, 95
5, 172320, Note_on_c, 4, 59, 95
5, 172320, Note_on_c, 4, 55, 95
5, 172320, Note_on_c, 4, 50, 95
5, 172396, Note_off_c, 4, 64, 95
5, 172396, Note_off_c, 4, 59, 95
5, 172396, Note_off_c, 4, 55, 95
5, 172396, Note_off_c, 4, 50, 95
5, 172800, Note_on_c, 4, 66, 95
5, 172800, Note_on_c, 4, 62, 95
5, 172800, Note_on_c, 4, 57, 95
5, 172800, Note_on_c, 4, 50, 95
5, 173760, Note_off_c, 4, 66, 95
5, 173760, Note_off_c, 4, 62, 95
5, 173760, Note_off_c, 4, 57, 95
5, 173760, Note_off_c, 4, 50, 95
5, 173760, Note_on_c, 4, 64, 95
5, 173760, Note_on_c, 4, 59, 95
5, 173760, Note_on_c, 4, 55, 95
5, 173760, Note_on_c, 4, 50, 95
5, 173836, Note_off_c, 4, 64, 95
5, 173836, Note_off_c, 4, 59, 95
5, 173836, Note_off_c, 4, 55, 95
5, 173836, Note_off_c, 4, 50, 95
5, 174240, Note_on_c, 4, 57, 95
5, 174240, Note_on_c, 4, 52, 95
5, 174240, Note_on_c, 4, 45, 95
5, 175200, Note_off_c, 4, 57, 95
5, 175200, Note_off_c, 4, 52, 95
5, 175200, Note_off_c, 4, 45, 95
5, 175200, Note_on_c, 4, 57, 95
5, 175200, Note_on_c, 4, 52, 95
5, 175200, Note_on_c, 4, 45, 95
5, 175680, Note_off_c, 4, 57, 95
5, 175680, Note_off_c, 4, 52, 95
5, 175680, Note_off_c, 4, 45, 95
5, 175680, Note_on_c, 4, 57, 95
5, 175680, Note_on_c, 4, 52, 95
5, 175680, Note_on_c, 4, 45, 95
5, 176160, Note_off_c, 4, 57, 95
5, 176160, Note_off_c, 4, 52, 95
5, 176160, Note_off_c, 4, 45, 95
5, 176160, Note_on_c, 4, 55, 95
5, 176160, Note_on_c, 4, 50, 95
5, 176160, Note_on_c, 4, 45, 95
5, 176236, Note_off_c, 4, 55, 95
5, 176236, Note_off_c, 4, 50, 95
5, 176236, Note_off_c, 4, 45, 95
5, 176640, Note_on_c, 4, 67, 95
5, 176640, Note_on_c, 4, 59, 95
5, 176640, Note_on_c, 4, 55, 95
5, 176640, Note_on_c, 4, 50, 95
5, 176640, Note_on_c, 4, 45, 95
5, 176640, Note_on_c, 4, 43, 95
5, 176716, Note_off_c, 4, 45, 95
5, 177600, Note_off_c, 4, 67, 95
5, 177600, Note_off_c, 4, 59, 95
5, 177600, Note_off_c, 4, 55, 95
5, 177600, Note_off_c, 4, 50, 95
5, 177600, Note_off_c, 4, 43, 95
5, 177600, Note_on_c, 4, 67, 95
5, 177600, Note_on_c, 4, 59, 95
5, 177600, Note_on_c, 4, 55, 95
5, 177600, Note_on_c, 4, 50, 95
5, 177600, Note_on_c, 4, 45, 95
5, 177600, Note_on_c, 4, 43, 95
5, 177676, Note_off_c, 4, 45, 95
5, 178560, Note_off_c, 4, 67, 95
5, 178560, Note_off_c, 4, 59, 95
5, 178560, Note_off_c, 4, 55, 95
5, 178560, Note_off_c, 4, 50, 95
5, 178560, Note_off_c, 4, 43, 95
5, 178560, Note_on_c, 4, 67, 95
5, 178560, Note_on_c, 4, 59, 95
5, 178560, Note_on_c, 4, 55, 95
5, 178560, Note_on_c, 4, 50, 95
5, 178560, Note_on_c, 4, 45, 95
5, 178560, Note_on_c, 4, 43, 95
5, 178636, Note_off_c, 4, 45, 95
5, 179040, Note_off_c, 4, 67, 95
5, 179040, Note_off_c, 4, 59, 95
5, 179040, Note_off_c, 4, 55, 95
5, 179040, Note_off_c, 4, 50, 95
5, 179040, Note_off_c, 4, 43, 95
5, 179040, Note_on_c, 4, 67, 95
5, 179040, Note_on_c, 4, 59, 95
5, 179040, Note_on_c, 4, 55, 95
5, 179040, Note_on_c, 4, 50, 95
5, 179040, Note_on_c, 4, 45, 95
5, 179040, Note_on_c, 4, 43, 95
5, 179116, Note_off_c, 4, 45, 95
5, 180000, Note_off_c, 4, 67, 95
5, 180000, Note_off_c, 4, 59, 95
5, 180000, Note_off_c, 4, 55, 95
5, 180000, Note_off_c, 4, 50, 95
5, 180000, Note_off_c, 4, 43, 95
5, 180000, Note_on_c, 4, 59, 95
5, 180000, Note_on_c, 4, 55, 95
5, 180000, Note_on_c, 4, 50, 95
5, 180000, Note_on_c, 4, 45, 95
5, 180076, Note_off_c, 4, 59, 95
5, 180076, Note_off_c, 4, 55, 95
5, 180076, Note_off_c, 4, 50, 95
5, 180076, Note_off_c, 4, 45, 95
5, 180480, Note_on_c, 4, 68, 95
5, 180480, Note_on_c, 4, 64, 95
5, 180480, Note_on_c, 4, 59, 95
5, 180480, Note_on_c, 4, 52, 95
5, 180960, Note_off_c, 4, 68, 95
5, 180960, Note_off_c, 4, 64, 95
5, 180960, Note_off_c, 4, 59, 95
5, 180960, Note_off_c, 4, 52, 95
5, 180960, Note_on_c, 4, 68, 95
5, 180960, Note_on_c, 4, 64, 95
5, 180960, Note_on_c, 4, 59, 95
5, 180960, Note_on_c, 4, 52, 95
5, 181440, Note_off_c, 4, 68, 95
5, 181440, Note_off_c, 4, 64, 95
5, 181440, Note_off_c, 4, 59, 95
5, 181440, Note_off_c, 4, 52, 95
5, 181440, Note_on_c, 4, 68, 95
5, 181440, Note_on_c, 4, 64, 95
5, 181440, Note_on_c, 4, 59, 95
5, 181440, Note_on_c, 4, 52, 95
5, 181920, Note_off_c, 4, 68, 95
5, 181920, Note_off_c, 4, 64, 95
5, 181920, Note_off_c, 4, 59, 95
5, 181920, Note_off_c, 4, 52, 95
5, 181920, Note_on_c, 4, 68, 95
5, 181920, Note_on_c, 4, 64, 95
5, 181920, Note_on_c, 4, 59, 95
5, 181920, Note_on_c, 4, 52, 95
5, 182400, Note_off_c, 4, 68, 95
5, 182400, Note_off_c, 4, 64, 95
5, 182400, Note_off_c, 4, 59, 95
5, 182400, Note_off_c, 4, 52, 95
5, 182400, Note_on_c, 4, 68, 95
5, 182400, Note_on_c, 4, 64, 95
5, 182400, Note_on_c, 4, 59, 95
5, 182400, Note_on_c, 4, 52, 95
5, 182880, Note_off_c, 4, 68, 95
5, 182880, Note_off_c, 4, 64, 95
5, 182880, Note_off_c, 4, 59, 95
5, 182880, Note_off_c, 4, 52, 95
5, 182880, Note_on_c, 4, 68, 95
5, 182880, Note_on_c, 4, 64, 95
5, 182880, Note_on_c, 4, 59, 95
5, 182880, Note_on_c, 4, 52, 95
5, 183360, Note_off_c, 4, 68, 95
5, 183360, Note_off_c, 4, 64, 95
5, 183360, Note_off_c, 4, 59, 95
5, 183360, Note_off_c, 4, 52, 95
5, 183360, Note_on_c, 4, 68, 95
5, 183360, Note_on_c, 4, 64, 95
5, 183360, Note_on_c, 4, 59, 95
5, 183360, Note_on_c, 4, 52, 95
5, 183840, Note_off_c, 4, 68, 95
5, 183840, Note_off_c, 4, 64, 95
5, 183840, Note_off_c, 4, 59, 95
5, 183840, Note_off_c, 4, 52, 95
5, 183840, Note_on_c, 4, 68, 95
5, 183840, Note_on_c, 4, 64, 95
5, 183840, Note_on_c, 4, 59, 95
5, 183840, Note_on_c, 4, 52, 95
5, 184320, Note_off_c, 4, 68, 95
5, 184320, Note_off_c, 4, 64, 95
5, 184320, Note_off_c, 4, 59, 95
5, 184320, Note_off_c, 4, 52, 95
5, 184320, Note_on_c, 4, 64, 95
5, 184320, Note_on_c, 4, 59, 95
5, 184320, Note_on_c, 4, 52, 95
5, 184800, Note_off_c, 4, 64, 95
5, 184800, Note_off_c, 4, 59, 95
5, 184800, Note_off_c, 4, 52, 95
5, 184800, Note_on_c, 4, 64, 95
5, 184800, Note_on_c, 4, 59, 95
5, 184800, Note_on_c, 4, 52, 95
5, 185280, Note_off_c, 4, 64, 95
5, 185280, Note_off_c, 4, 59, 95
5, 185280, Note_off_c, 4, 52, 95
5, 185280, Note_on_c, 4, 64, 95
5, 185280, Note_on_c, 4, 59, 95
5, 185280, Note_on_c, 4, 52, 95
5, 185760, Note_off_c, 4, 64, 95
5, 185760, Note_off_c, 4, 59, 95
5, 185760, Note_off_c, 4, 52, 95
5, 185760, Note_on_c, 4, 64, 95
5, 185760, Note_on_c, 4, 59, 95
5, 185760, Note_on_c, 4, 52, 95
5, 186240, Note_off_c, 4, 64, 95
5, 186240, Note_off_c, 4, 59, 95
5, 186240, Note_off_c, 4, 52, 95
5, 186240, Note_on_c, 4, 64, 95
5, 186240, Note_on_c, 4, 59, 95
5, 186240, Note_on_c, 4, 52, 95
5, 186720, Note_off_c, 4, 64, 95
5, 186720, Note_off_c, 4, 59, 95
5, 186720, Note_off_c, 4, 52, 95
5, 186720, Note_on_c, 4, 64, 95
5, 186720, Note_on_c, 4, 59, 95
5, 186720, Note_on_c, 4, 52, 95
5, 187200, Note_off_c, 4, 64, 95
5, 187200, Note_off_c, 4, 59, 95
5, 187200, Note_off_c, 4, 52, 95
5, 187200, Note_on_c, 4, 64, 95
5, 187200, Note_on_c, 4, 59, 95
5, 187200, Note_on_c, 4, 52, 95
5, 187680, Note_off_c, 4, 64, 95
5, 187680, Note_off_c, 4, 59, 95
5, 187680, Note_off_c, 4, 52, 95
5, 187680, Note_on_c, 4, 64, 95
5, 187680, Note_on_c, 4, 59, 95
5, 187680, Note_on_c, 4, 52, 95
5, 188160, Note_off_c, 4, 64, 95
5, 188160, Note_off_c, 4, 59, 95
5, 188160, Note_off_c, 4, 52, 95
5, 188160, Note_on_c, 4, 57, 95
5, 188160, Note_on_c, 4, 52, 95
5, 188160, Note_on_c, 4, 45, 95
5, 189600, Note_off_c, 4, 57, 95
5, 189600, Note_off_c, 4, 52, 95
5, 189600, Note_off_c, 4, 45, 95
5, 189600, Note_on_c, 4, 57, 95
5, 189600, Note_on_c, 4, 52, 95
5, 189600, Note_on_c, 4, 45, 95
5, 190080, Note_off_c, 4, 57, 95
5, 190080, Note_off_c, 4, 52, 95
5, 190080, Note_off_c, 4, 45, 95
5, 190080, Note_on_c, 4, 57, 95
5, 190080, Note_on_c, 4, 52, 95
5, 190080, Note_on_c, 4, 45, 95
5, 190560, Note_off_c, 4, 57, 95
5, 190560, Note_off_c, 4, 52, 95
5, 190560, Note_off_c, 4, 45, 95
5, 190560, Note_on_c, 4, 57, 95
5, 190560, Note_on_c, 4, 52, 95
5, 190560, Note_on_c, 4, 45, 95
5, 191520, Note_off_c, 4, 57, 95
5, 191520, Note_off_c, 4, 52, 95
5, 191520, Note_off_c, 4, 45, 95
5, 191520, Note_on_c, 4, 57, 95
5, 191520, Note_on_c, 4, 52, 95
5, 191520, Note_on_c, 4, 45, 95
5, 192000, Note_off_c, 4, 57, 95
5, 192000, Note_off_c, 4, 52, 95
5, 192000, Note_off_c, 4, 45, 95
5, 192000, Note_on_c, 4, 57, 95
5, 192000, Note_on_c, 4, 52, 95
5, 192000, Note_on_c, 4, 45, 95
5, 192480, Note_off_c, 4, 57, 95
5, 192480, Note_off_c, 4, 52, 95
5, 192480, Note_off_c, 4, 45, 95
5, 192480, Note_on_c, 4, 57, 95
5, 192480, Note_on_c, 4, 52, 95
5, 192480, Note_on_c, 4, 45, 95
5, 192960, Note_off_c, 4, 57, 95
5, 192960, Note_off_c, 4, 52, 95
5, 192960, Note_off_c, 4, 45, 95
5, 192960, Note_on_c, 4, 57, 95
5, 192960, Note_on_c, 4, 52, 95
5, 192960, Note_on_c, 4, 45, 95
5, 193440, Note_off_c, 4, 57, 95
5, 193440, Note_off_c, 4, 52, 95
5, 193440, Note_off_c, 4, 45, 95
5, 193440, Note_on_c, 4, 57, 95
5, 193440, Note_on_c, 4, 52, 95
5, 193440, Note_on_c, 4, 45, 95
5, 193920, Note_off_c, 4, 57, 95
5, 193920, Note_off_c, 4, 52, 95
5, 193920, Note_off_c, 4, 45, 95
5, 193920, Note_on_c, 4, 57, 95
5, 193920, Note_on_c, 4, 52, 95
5, 193920, Note_on_c, 4, 45, 95
5, 194400, Note_off_c, 4, 57, 95
5, 194400, Note_off_c, 4, 52, 95
5, 194400, Note_off_c, 4, 45, 95
5, 194400, Note_on_c, 4, 57, 95
5, 194400, Note_on_c, 4, 52, 95
5, 194400, Note_on_c, 4, 45, 95
5, 194880, Note_off_c, 4, 57, 95
5, 194880, Note_off_c, 4, 52, 95
5, 194880, Note_off_c, 4, 45, 95
5, 194880, Note_on_c, 4, 57, 95
5, 194880, Note_on_c, 4, 52, 95
5, 194880, Note_on_c, 4, 45, 95
5, 195360, Note_off_c, 4, 57, 95
5, 195360, Note_off_c, 4, 52, 95
5, 195360, Note_off_c, 4, 45, 95
5, 195360, Note_on_c, 4, 59, 95
5, 195360, Note_on_c, 4, 55, 95
5, 195360, Note_on_c, 4, 50, 95
5, 195360, Note_on_c, 4, 45, 95
5, 195436, Note_off_c, 4, 59, 95
5, 195436, Note_off_c, 4, 55, 95
5, 195436, Note_off_c, 4, 50, 95
5, 195436, Note_off_c, 4, 45, 95
5, 195840, Note_on_c, 4, 62, 79
5, 195840, Note_on_c, 4, 57, 79
5, 195840, Note_on_c, 4, 50, 79
5, 196320, Note_off_c, 4, 62, 79
5, 196320, Note_off_c, 4, 57, 79
5, 196320, Note_off_c, 4, 50, 79
5, 196320, Note_on_c, 4, 62, 79
5, 196320, Note_on_c, 4, 57, 79
5, 196320, Note_on_c, 4, 50, 79
5, 196800, Note_off_c, 4, 62, 79
5, 196800, Note_off_c, 4, 57, 79
5, 196800, Note_off_c, 4, 50, 79
5, 196800, Note_on_c, 4, 62, 79
5, 196800, Note_on_c, 4, 57, 79
5, 196800, Note_on_c, 4, 50, 79
5, 197280, Note_off_c, 4, 62, 79
5, 197280, Note_off_c, 4, 57, 79
5, 197280, Note_off_c, 4, 50, 79
5, 197280, Note_on_c, 4, 62, 79
5, 197280, Note_on_c, 4, 57, 79
5, 197280, Note_on_c, 4, 50, 79
5, 197760, Note_off_c, 4, 62, 79
5, 197760, Note_off_c, 4, 57, 79
5, 197760, Note_off_c, 4, 50, 79
5, 197760, Note_on_c, 4, 62, 79
5, 197760, Note_on_c, 4, 57, 79
5, 197760, Note_on_c, 4, 50, 79
5, 198240, Note_off_c, 4, 62, 79
5, 198240, Note_off_c, 4, 57, 79
5, 198240, Note_off_c, 4, 50, 79
5, 198240, Note_on_c, 4, 62, 79
5, 198240, Note_on_c, 4, 57, 79
5, 198240, Note_on_c, 4, 50, 79
5, 198720, Note_off_c, 4, 62, 79
5, 198720, Note_off_c, 4, 57, 79
5, 198720, Note_off_c, 4, 50, 79
5, 198720, Note_on_c, 4, 62, 79
5, 198720, Note_on_c, 4, 57, 79
5, 198720, Note_on_c, 4, 50, 79
5, 199200, Note_off_c, 4, 62, 79
5, 199200, Note_off_c, 4, 57, 79
5, 199200, Note_off_c, 4, 50, 79
5, 199200, Note_on_c, 4, 60, 79
5, 199200, Note_on_c, 4, 55, 79
5, 199200, Note_on_c, 4, 48, 79
5, 199680, Note_off_c, 4, 60, 79
5, 199680, Note_off_c, 4, 55, 79
5, 199680, Note_off_c, 4, 48, 79
5, 199680, Note_on_c, 4, 60, 79
5, 199680, Note_on_c, 4, 55, 79
5, 199680, Note_on_c, 4, 48, 79
5, 200160, Note_off_c, 4, 60, 79
5, 200160, Note_off_c, 4, 55, 79
5, 200160, Note_off_c, 4, 48, 79
5, 200160, Note_on_c, 4, 60, 79
5, 200160, Note_on_c, 4, 55, 79
5, 200160, Note_on_c, 4, 48, 79
5, 200640, Note_off_c, 4, 60, 79
5, 200640, Note_off_c, 4, 55, 79
5, 200640, Note_off_c, 4, 48, 79
5, 200640, Note_on_c, 4, 60, 79
5, 200640, Note_on_c, 4, 55, 79
5, 200640, Note_on_c, 4, 48, 79
5, 201120, Note_off_c, 4, 60, 79
5, 201120, Note_off_c, 4, 55, 79
5, 201120, Note_off_c, 4, 48, 79
5, 201120, Note_on_c, 4, 60, 79
5, 201120, Note_on_c, 4, 55, 79
5, 201120, Note_on_c, 4, 48, 79
5, 201600, Note_off_c, 4, 60, 79
5, 201600, Note_off_c, 4, 55, 79
5, 201600, Note_off_c, 4, 48, 79
5, 201600, Note_on_c, 4, 60, 79
5, 201600, Note_on_c, 4, 55, 79
5, 201600, Note_on_c, 4, 48, 79
5, 202080, Note_off_c, 4, 60, 79
5, 202080, Note_off_c, 4, 55, 79
5, 202080, Note_off_c, 4, 48, 79
5, 202080, Note_on_c, 4, 60, 79
5, 202080, Note_on_c, 4, 55, 79
5, 202080, Note_on_c, 4, 48, 79
5, 202560, Note_off_c, 4, 60, 79
5, 202560, Note_off_c, 4, 55, 79
5, 202560, Note_off_c, 4, 48, 79
5, 202560, Note_on_c, 4, 60, 79
5, 202560, Note_on_c, 4, 55, 79
5, 202560, Note_on_c, 4, 48, 79
5, 203040, Note_off_c, 4, 60, 79
5, 203040, Note_off_c, 4, 55, 79
5, 203040, Note_off_c, 4, 48, 79
5, 203040, Note_on_c, 4, 57, 79
5, 203040, Note_on_c, 4, 52, 79
5, 203040, Note_on_c, 4, 45, 79
5, 203520, Note_off_c, 4, 57, 79
5, 203520, Note_off_c, 4, 52, 79
5, 203520, Note_off_c, 4, 45, 79
5, 203520, Note_on_c, 4, 57, 79
5, 203520, Note_on_c, 4, 52, 79
5, 203520, Note_on_c, 4, 45, 79
5, 204000, Note_off_c, 4, 57, 79
5, 204000, Note_off_c, 4, 52, 79
5, 204000, Note_off_c, 4, 45, 79
5, 204000, Note_on_c, 4, 57, 79
5, 204000, Note_on_c, 4, 52, 79
5, 204000, Note_on_c, 4, 45, 79
5, 204480, Note_off_c, 4, 57, 79
5, 204480, Note_off_c, 4, 52, 79
5, 204480, Note_off_c, 4, 45, 79
5, 204480, Note_on_c, 4, 57, 79
5, 204480, Note_on_c, 4, 52, 79
5, 204480, Note_on_c, 4, 45, 79
5, 204960, Note_off_c, 4, 57, 79
5, 204960, Note_off_c, 4, 52, 79
5, 204960, Note_off_c, 4, 45, 79
5, 204960, Note_on_c, 4, 57, 79
5, 204960, Note_on_c, 4, 52, 79
5, 204960, Note_on_c, 4, 45, 79
5, 205440, Note_off_c, 4, 57, 79
5, 205440, Note_off_c, 4, 52, 79
5, 205440, Note_off_c, 4, 45, 79
5, 205440, Note_on_c, 4, 57, 79
5, 205440, Note_on_c, 4, 52, 79
5, 205440, Note_on_c, 4, 45, 79
5, 205920, Note_off_c, 4, 57, 79
5, 205920, Note_off_c, 4, 52, 79
5, 205920, Note_off_c, 4, 45, 79
5, 205920, Note_on_c, 4, 57, 79
5, 205920, Note_on_c, 4, 52, 79
5, 205920, Note_on_c, 4, 45, 79
5, 206400, Note_off_c, 4, 57, 79
5, 206400, Note_off_c, 4, 52, 79
5, 206400, Note_off_c, 4, 45, 79
5, 206400, Note_on_c, 4, 57, 79
5, 206400, Note_on_c, 4, 52, 79
5, 206400, Note_on_c, 4, 45, 79
5, 206880, Note_off_c, 4, 57, 79
5, 206880, Note_off_c, 4, 52, 79
5, 206880, Note_off_c, 4, 45, 79
5, 206880, Note_on_c, 4, 57, 79
5, 206880, Note_on_c, 4, 52, 79
5, 206880, Note_on_c, 4, 45, 79
5, 207360, Note_off_c, 4, 57, 79
5, 207360, Note_off_c, 4, 52, 79
5, 207360, Note_off_c, 4, 45, 79
5, 207360, Note_on_c, 4, 57, 79
5, 207360, Note_on_c, 4, 52, 79
5, 207360, Note_on_c, 4, 45, 79
5, 207840, Note_off_c, 4, 57, 79
5, 207840, Note_off_c, 4, 52, 79
5, 207840, Note_off_c, 4, 45, 79
5, 207840, Note_on_c, 4, 57, 79
5, 207840, Note_on_c, 4, 52, 79
5, 207840, Note_on_c, 4, 45, 79
5, 208320, Note_off_c, 4, 57, 79
5, 208320, Note_off_c, 4, 52, 79
5, 208320, Note_off_c, 4, 45, 79
5, 208320, Note_on_c, 4, 57, 79
5, 208320, Note_on_c, 4, 52, 79
5, 208320, Note_on_c, 4, 45, 79
5, 208800, Note_off_c, 4, 57, 79
5, 208800, Note_off_c, 4, 52, 79
5, 208800, Note_off_c, 4, 45, 79
5, 208800, Note_on_c, 4, 57, 79
5, 208800, Note_on_c, 4, 52, 79
5, 208800, Note_on_c, 4, 45, 79
5, 209280, Note_off_c, 4, 57, 79
5, 209280, Note_off_c, 4, 52, 79
5, 209280, Note_off_c, 4, 45, 79
5, 209280, Note_on_c, 4, 57, 79
5, 209280, Note_on_c, 4, 52, 79
5, 209280, Note_on_c, 4, 45, 79
5, 209760, Note_off_c, 4, 57, 79
5, 209760, Note_off_c, 4, 52, 79
5, 209760, Note_off_c, 4, 45, 79
5, 209760, Note_on_c, 4, 57, 79
5, 209760, Note_on_c, 4, 52, 79
5, 209760, Note_on_c, 4, 45, 79
5, 210240, Note_off_c, 4, 57, 79
5, 210240, Note_off_c, 4, 52, 79
5, 210240, Note_off_c, 4, 45, 79
5, 210240, Note_on_c, 4, 57, 79
5, 210240, Note_on_c, 4, 52, 79
5, 210240, Note_on_c, 4, 45, 79
5, 210720, Note_off_c, 4, 57, 79
5, 210720, Note_off_c, 4, 52, 79
5, 210720, Note_off_c, 4, 45, 79
5, 210720, Note_on_c, 4, 55, 95
5, 210720, Note_on_c, 4, 50, 95
5, 210720, Note_on_c, 4, 45, 95
5, 210796, Note_off_c, 4, 55, 95
5, 210796, Note_off_c, 4, 50, 95
5, 210796, Note_off_c, 4, 45, 95
5, 211200, Note_on_c, 4, 62, 79
5, 211200, Note_on_c, 4, 57, 79
5, 211200, Note_on_c, 4, 50, 79
5, 211680, Note_off_c, 4, 62, 79
5, 211680, Note_off_c, 4, 57, 79
5, 211680, Note_off_c, 4, 50, 79
5, 211680, Note_on_c, 4, 62, 79
5, 211680, Note_on_c, 4, 57, 79
5, 211680, Note_on_c, 4, 50, 79
5, 212160, Note_off_c, 4, 62, 79
5, 212160, Note_off_c, 4, 57, 79
5, 212160, Note_off_c, 4, 50, 79
5, 212160, Note_on_c, 4, 62, 79
5, 212160, Note_on_c, 4, 57, 79
5, 212160, Note_on_c, 4, 50, 79
5, 212640, Note_off_c, 4, 62, 79
5, 212640, Note_off_c, 4, 57, 79
5, 212640, Note_off_c, 4, 50, 79
5, 212640, Note_on_c, 4, 62, 79
5, 212640, Note_on_c, 4, 57, 79
5, 212640, Note_on_c, 4, 50, 79
5, 213120, Note_off_c, 4, 62, 79
5, 213120, Note_off_c, 4, 57, 79
5, 213120, Note_off_c, 4, 50, 79
5, 213120, Note_on_c, 4, 62, 79
5, 213120, Note_on_c, 4, 57, 79
5, 213120, Note_on_c, 4, 50, 79
5, 213600, Note_off_c, 4, 62, 79
5, 213600, Note_off_c, 4, 57, 79
5, 213600, Note_off_c, 4, 50, 79
5, 213600, Note_on_c, 4, 62, 79
5, 213600, Note_on_c, 4, 57, 79
5, 213600, Note_on_c, 4, 50, 79
5, 214080, Note_off_c, 4, 62, 79
5, 214080, Note_off_c, 4, 57, 79
5, 214080, Note_off_c, 4, 50, 79
5, 214080, Note_on_c, 4, 62, 79
5, 214080, Note_on_c, 4, 57, 79
5, 214080, Note_on_c, 4, 50, 79
5, 214560, Note_off_c, 4, 62, 79
5, 214560, Note_off_c, 4, 57, 79
5, 214560, Note_off_c, 4, 50, 79
5, 214560, Note_on_c, 4, 60, 79
5, 214560, Note_on_c, 4, 55, 79
5, 214560, Note_on_c, 4, 48, 79
5, 215040, Note_off_c, 4, 60, 79
5, 215040, Note_off_c, 4, 55, 79
5, 215040, Note_off_c, 4, 48, 79
5, 215040, Note_on_c, 4, 60, 79
5, 215040, Note_on_c, 4, 55, 79
5, 215040, Note_on_c, 4, 48, 79
5, 215520, Note_off_c, 4, 60, 79
5, 215520, Note_off_c, 4, 55, 79
5, 215520, Note_off_c, 4, 48, 79
5, 215520, Note_on_c, 4, 60, 79
5, 215520, Note_on_c, 4, 55, 79
5, 215520, Note_on_c, 4, 48, 79
5, 216000, Note_off_c, 4, 60, 79
5, 216000, Note_off_c, 4, 55, 79
5, 216000, Note_off_c, 4, 48, 79
5, 216000, Note_on_c, 4, 60, 79
5, 216000, Note_on_c, 4, 55, 79
5, 216000, Note_on_c, 4, 48, 79
5, 216480, Note_off_c, 4, 60, 79
5, 216480, Note_off_c, 4, 55, 79
5, 216480, Note_off_c, 4, 48, 79
5, 216480, Note_on_c, 4, 60, 79
5, 216480, Note_on_c, 4, 55, 79
5, 216480, Note_on_c, 4, 48, 79
5, 216960, Note_off_c, 4, 60, 79
5, 216960, Note_off_c, 4, 55, 79
5, 216960, Note_off_c, 4, 48, 79
5, 216960, Note_on_c, 4, 60, 79
5, 216960, Note_on_c, 4, 55, 79
5, 216960, Note_on_c, 4, 48, 79
5, 217440, Note_off_c, 4, 60, 79
5, 217440, Note_off_c, 4, 55, 79
5, 217440, Note_off_c, 4, 48, 79
5, 217440, Note_on_c, 4, 60, 79
5, 217440, Note_on_c, 4, 55, 79
5, 217440, Note_on_c, 4, 48, 79
5, 217920, Note_off_c, 4, 60, 79
5, 217920, Note_off_c, 4, 55, 79
5, 217920, Note_off_c, 4, 48, 79
5, 217920, Note_on_c, 4, 60, 79
5, 217920, Note_on_c, 4, 55, 79
5, 217920, Note_on_c, 4, 48, 79
5, 218400, Note_off_c, 4, 60, 79
5, 218400, Note_off_c, 4, 55, 79
5, 218400, Note_off_c, 4, 48, 79
5, 218400, Note_on_c, 4, 57, 79
5, 218400, Note_on_c, 4, 52, 79
5, 218400, Note_on_c, 4, 45, 79
5, 218880, Note_off_c, 4, 57, 79
5, 218880, Note_off_c, 4, 52, 79
5, 218880, Note_off_c, 4, 45, 79
5, 218880, Note_on_c, 4, 57, 79
5, 218880, Note_on_c, 4, 52, 79
5, 218880, Note_on_c, 4, 45, 79
5, 219360, Note_off_c, 4, 57, 79
5, 219360, Note_off_c, 4, 52, 79
5, 219360, Note_off_c, 4, 45, 79
5, 219360, Note_on_c, 4, 57, 79
5, 219360, Note_on_c, 4, 52, 79
5, 219360, Note_on_c, 4, 45, 79
5, 219840, Note_off_c, 4, 57, 79
5, 219840, Note_off_c, 4, 52, 79
5, 219840, Note_off_c, 4, 45, 79
5, 219840, Note_on_c, 4, 57, 79
5, 219840, Note_on_c, 4, 52, 79
5, 219840, Note_on_c, 4, 45, 79
5, 220320, Note_off_c, 4, 57, 79
5, 220320, Note_off_c, 4, 52, 79
5, 220320, Note_off_c, 4, 45, 79
5, 220320, Note_on_c, 4, 57, 79
5, 220320, Note_on_c, 4, 52, 79
5, 220320, Note_on_c, 4, 45, 79
5, 220800, Note_off_c, 4, 57, 79
5, 220800, Note_off_c, 4, 52, 79
5, 220800, Note_off_c, 4, 45, 79
5, 220800, Note_on_c, 4, 57, 79
5, 220800, Note_on_c, 4, 52, 79
5, 220800, Note_on_c, 4, 45, 79
5, 221280, Note_off_c, 4, 57, 79
5, 221280, Note_off_c, 4, 52, 79
5, 221280, Note_off_c, 4, 45, 79
5, 221280, Note_on_c, 4, 57, 79
5, 221280, Note_on_c, 4, 52, 79
5, 221280, Note_on_c, 4, 45, 79
5, 221760, Note_off_c, 4, 57, 79
5, 221760, Note_off_c, 4, 52, 79
5, 221760, Note_off_c, 4, 45, 79
5, 221760, Note_on_c, 4, 57, 79
5, 221760, Note_on_c, 4, 52, 79
5, 221760, Note_on_c, 4, 45, 79
5, 222240, Note_off_c, 4, 57, 79
5, 222240, Note_off_c, 4, 52, 79
5, 222240, Note_off_c, 4, 45, 79
5, 222240, Note_on_c, 4, 57, 79
5, 222240, Note_on_c, 4, 52, 79
5, 222240, Note_on_c, 4, 45, 79
5, 222720, Note_off_c, 4, 57, 79
5, 222720, Note_off_c, 4, 52, 79
5, 222720, Note_off_c, 4, 45, 79
5, 222720, Note_on_c, 4, 57, 79
5, 222720, Note_on_c, 4, 52, 79
5, 222720, Note_on_c, 4, 45, 79
5, 223200, Note_off_c, 4, 57, 79
5, 223200, Note_off_c, 4, 52, 79
5, 223200, Note_off_c, 4, 45, 79
5, 223200, Note_on_c, 4, 57, 79
5, 223200, Note_on_c, 4, 52, 79
5, 223200, Note_on_c, 4, 45, 79
5, 223680, Note_off_c, 4, 57, 79
5, 223680, Note_off_c, 4, 52, 79
5, 223680, Note_off_c, 4, 45, 79
5, 223680, Note_on_c, 4, 57, 79
5, 223680, Note_on_c, 4, 52, 79
5, 223680, Note_on_c, 4, 45, 79
5, 224160, Note_off_c, 4, 57, 79
5, 224160, Note_off_c, 4, 52, 79
5, 224160, Note_off_c, 4, 45, 79
5, 224160, Note_on_c, 4, 57, 79
5, 224160, Note_on_c, 4, 52, 79
5, 224160, Note_on_c, 4, 45, 79
5, 224640, Note_off_c, 4, 57, 79
5, 224640, Note_off_c, 4, 52, 79
5, 224640, Note_off_c, 4, 45, 79
5, 224640, Note_on_c, 4, 57, 79
5, 224640, Note_on_c, 4, 52, 79
5, 224640, Note_on_c, 4, 45, 79
5, 225120, Note_off_c, 4, 57, 79
5, 225120, Note_off_c, 4, 52, 79
5, 225120, Note_off_c, 4, 45, 79
5, 225120, Note_on_c, 4, 57, 79
5, 225120, Note_on_c, 4, 52, 79
5, 225120, Note_on_c, 4, 45, 79
5, 225600, Note_off_c, 4, 57, 79
5, 225600, Note_off_c, 4, 52, 79
5, 225600, Note_off_c, 4, 45, 79
5, 225600, Note_on_c, 4, 57, 79
5, 225600, Note_on_c, 4, 52, 79
5, 225600, Note_on_c, 4, 45, 79
5, 226080, Note_off_c, 4, 57, 79
5, 226080, Note_off_c, 4, 52, 79
5, 226080, Note_off_c, 4, 45, 79
5, 226080, Note_on_c, 4, 55, 95
5, 226080, Note_on_c, 4, 50, 95
5, 226080, Note_on_c, 4, 45, 95
5, 226156, Note_off_c, 4, 55, 95
5, 226156, Note_off_c, 4, 50, 95
5, 226156, Note_off_c, 4, 45, 95
5, 226560, Note_on_c, 4, 57, 95
5, 226560, Note_on_c, 4, 50, 95
5, 227040, Note_off_c, 4, 57, 95
5, 227040, Note_off_c, 4, 50, 95
5, 227040, Note_on_c, 4, 57, 95
5, 227040, Note_on_c, 4, 50, 95
5, 227520, Note_off_c, 4, 57, 95
5, 227520, Note_off_c, 4, 50, 95
5, 227520, Note_on_c, 4, 57, 95
5, 227520, Note_on_c, 4, 50, 95
5, 228000, Note_off_c, 4, 57, 95
5, 228000, Note_off_c, 4, 50, 95
5, 228000, Note_on_c, 4, 57, 95
5, 228000, Note_on_c, 4, 50, 95
5, 228480, Note_off_c, 4, 57, 95
5, 228480, Note_off_c, 4, 50, 95
5, 228480, Note_on_c, 4, 57, 95
5, 228480, Note_on_c, 4, 50, 95
5, 228960, Note_off_c, 4, 57, 95
5, 228960, Note_off_c, 4, 50, 95
5, 228960, Note_on_c, 4, 57, 95
5, 228960, Note_on_c, 4, 50, 95
5, 229440, Note_off_c, 4, 57, 95
5, 229440, Note_off_c, 4, 50, 95
5, 229440, Note_on_c, 4, 57, 95
5, 229440, Note_on_c, 4, 50, 95
5, 229920, Note_off_c, 4, 57, 95
5, 229920, Note_off_c, 4, 50, 95
5, 229920, Note_on_c, 4, 55, 95
5, 229920, Note_on_c, 4, 48, 95
5, 230400, Note_off_c, 4, 55, 95
5, 230400, Note_off_c, 4, 48, 95
5, 230400, Note_on_c, 4, 55, 95
5, 230400, Note_on_c, 4, 48, 95
5, 230880, Note_off_c, 4, 55, 95
5, 230880, Note_off_c, 4, 48, 95
5, 230880, Note_on_c, 4, 55, 95
5, 230880, Note_on_c, 4, 48, 95
5, 231360, Note_off_c, 4, 55, 95
5, 231360, Note_off_c, 4, 48, 95
5, 231360, Note_on_c, 4, 55, 95
5, 231360, Note_on_c, 4, 48, 95
5, 231840, Note_off_c, 4, 55, 95
5, 231840, Note_off_c, 4, 48, 95
5, 231840, Note_on_c, 4, 55, 95
5, 231840, Note_on_c, 4, 48, 95
5, 232320, Note_off_c, 4, 55, 95
5, 232320, Note_off_c, 4, 48, 95
5, 232320, Note_on_c, 4, 55, 95
5, 232320, Note_on_c, 4, 48, 95
5, 232800, Note_off_c, 4, 55, 95
5, 232800, Note_off_c, 4, 48, 95
5, 232800, Note_on_c, 4, 55, 95
5, 232800, Note_on_c, 4, 48, 95
5, 233280, Note_off_c, 4, 55, 95
5, 233280, Note_off_c, 4, 48, 95
5, 233280, Note_on_c, 4, 55, 95
5, 233280, Note_on_c, 4, 48, 95
5, 233760, Note_off_c, 4, 55, 95
5, 233760, Note_off_c, 4, 48, 95
5, 233760, Note_on_c, 4, 52, 95
5, 233760, Note_on_c, 4, 45, 95
5, 234240, Note_off_c, 4, 52, 95
5, 234240, Note_off_c, 4, 45, 95
5, 234240, Note_on_c, 4, 57, 95
5, 234240, Note_on_c, 4, 52, 95
5, 234240, Note_on_c, 4, 45, 95
5, 237120, Note_off_c, 4, 57, 95
5, 237120, Note_off_c, 4, 52, 95
5, 237120, Note_off_c, 4, 45, 95
5, 238080, Note_on_c, 4, 50, 95
5, 238080, Note_on_c, 4, 43, 95
5, 238560, Note_off_c, 4, 50, 95
5, 238560, Note_off_c, 4, 43, 95
5, 238560, Note_on_c, 4, 50, 95
5, 238560, Note_on_c, 4, 43, 95
5, 239040, Note_off_c, 4, 50, 95
5, 239040, Note_off_c, 4, 43, 95
5, 239040, Note_on_c, 4, 50, 95
5, 239040, Note_on_c, 4, 43, 95
5, 239520, Note_off_c, 4, 50, 95
5, 239520, Note_off_c, 4, 43, 95
5, 239520, Note_on_c, 4, 50, 95
5, 239520, Note_on_c, 4, 43, 95
5, 240000, Note_off_c, 4, 50, 95
5, 240000, Note_off_c, 4, 43, 95
5, 240000, Note_on_c, 4, 50, 95
5, 240000, Note_on_c, 4, 43, 95
5, 240480, Note_off_c, 4, 50, 95
5, 240480, Note_off_c, 4, 43, 95
5, 240480, Note_on_c, 4, 50, 95
5, 240480, Note_on_c, 4, 43, 95
5, 240960, Note_off_c, 4, 50, 95
5, 240960, Note_off_c, 4, 43, 95
5, 240960, Note_on_c, 4, 50, 95
5, 240960, Note_on_c, 4, 43, 95
5, 241440, Note_off_c, 4, 50, 95
5, 241440, Note_off_c, 4, 43, 95
5, 241440, Note_on_c, 4, 50, 95
5, 241440, Note_on_c, 4, 43, 95
5, 241920, Note_off_c, 4, 50, 95
5, 241920, Note_off_c, 4, 43, 95
5, 241920, Note_on_c, 4, 52, 95
5, 241920, Note_on_c, 4, 47, 95
5, 241920, Note_on_c, 4, 40, 95
5, 242400, Note_off_c, 4, 52, 95
5, 242400, Note_off_c, 4, 47, 95
5, 242400, Note_off_c, 4, 40, 95
5, 244320, Note_on_c, 5, 62, 95
5, 244440, Pitch_bend_c, 5, 7296
5, 244560, Pitch_bend_c, 5, 6272
5, 244680, Pitch_bend_c, 5, 5248
5, 244800, Pitch_bend_c, 5, 4224
5, 244920, Pitch_bend_c, 5, 3328
5, 245040, Pitch_bend_c, 5, 2304
5, 245160, Pitch_bend_c, 5, 1280
5, 245280, Pitch_bend_c, 5, 256
5, 245400, Pitch_bend_c, 5, 0
5, 245520, Pitch_bend_c, 5, 0
5, 245640, Pitch_bend_c, 5, 0
5, 245760, Pitch_bend_c, 5, 0
5, 245760, Pitch_bend_c, 5, 8192
5, 245760, Note_off_c, 5, 62, 95
5, 245760, Note_on_c, 4, 57, 95
5, 245760, Note_on_c, 4, 52, 95
5, 245760, Note_on_c, 4, 45, 95
5, 246720, Note_off_c, 4, 57, 95
5, 246720, Note_off_c, 4, 52, 95
5, 246720, Note_off_c, 4, 45, 95
5, 246720, Note_on_c, 4, 57, 95
5, 246720, Note_on_c, 4, 52, 95
5, 246720, Note_on_c, 4, 45, 95
5, 247200, Note_off_c, 4, 57, 95
5, 247200, Note_off_c, 4, 52, 95
5, 247200, Note_off_c, 4, 45, 95
5, 247200, Note_on_c, 4, 57, 95
5, 247200, Note_on_c, 4, 52, 95
5, 247200, Note_on_c, 4, 45, 95
5, 247680, Note_off_c, 4, 57, 95
5, 247680, Note_off_c, 4, 52, 95
5, 247680, Note_off_c, 4, 45, 95
5, 247680, Note_on_c, 4, 57, 95
5, 247680, Note_on_c, 4, 52, 95
5, 247680, Note_on_c, 4, 45, 95
5, 248160, Note_off_c, 4, 57, 95
5, 248160, Note_off_c, 4, 52, 95
5, 248160, Note_off_c, 4, 45, 95
5, 248160, Note_on_c, 4, 57, 95
5, 248160, Note_on_c, 4, 52, 95
5, 248160, Note_on_c, 4, 45, 95
5, 248640, Note_off_c, 4, 57, 95
5, 248640, Note_off_c, 4, 52, 95
5, 248640, Note_off_c, 4, 45, 95
5, 248640, Note_on_c, 4, 57, 95
5, 248640, Note_on_c, 4, 52, 95
5, 248640, Note_on_c, 4, 45, 95
5, 249120, Note_off_c, 4, 57, 95
5, 249120, Note_off_c, 4, 52, 95
5, 249120, Note_off_c, 4, 45, 95
5, 249120, Note_on_c, 4, 57, 95
5, 249120, Note_on_c, 4, 52, 95
5, 249120, Note_on_c, 4, 45, 95
5, 249600, Note_off_c, 4, 57, 95
5, 249600, Note_off_c, 4, 52, 95
5, 249600, Note_off_c, 4, 45, 95
5, 249600, Note_on_c, 4, 57, 95
5, 249600, Note_on_c, 4, 52, 95
5, 249600, Note_on_c, 4, 45, 95
5, 250560, Note_off_c, 4, 57, 95
5, 250560, Note_off_c, 4, 52, 95
5, 250560, Note_off_c, 4, 45, 95
5, 250560, Note_on_c, 4, 57, 95
5, 250560, Note_on_c, 4, 52, 95
5, 250560, Note_on_c, 4, 45, 95
5, 251040, Note_off_c, 4, 57, 95
5, 251040, Note_off_c, 4, 52, 95
5, 251040, Note_off_c, 4, 45, 95
5, 251040, Note_on_c, 4, 57, 95
5, 251040, Note_on_c, 4, 52, 95
5, 251040, Note_on_c, 4, 45, 95
5, 251520, Note_off_c, 4, 57, 95
5, 251520, Note_off_c, 4, 52, 95
5, 251520, Note_off_c, 4, 45, 95
5, 251520, Note_on_c, 4, 57, 95
5, 251520, Note_on_c, 4, 52, 95
5, 251520, Note_on_c, 4, 45, 95
5, 252000, Note_off_c, 4, 57, 95
5, 252000, Note_off_c, 4, 52, 95
5, 252000, Note_off_c, 4, 45, 95
5, 252000, Note_on_c, 4, 57, 95
5, 252000, Note_on_c, 4, 52, 95
5, 252000, Note_on_c, 4, 45, 95
5, 252480, Note_off_c, 4, 57, 95
5, 252480, Note_off_c, 4, 52, 95
5, 252480, Note_off_c, 4, 45, 95
5, 252480, Note_on_c, 4, 57, 95
5, 252480, Note_on_c, 4, 52, 95
5, 252480, Note_on_c, 4, 45, 95
5, 252960, Note_off_c, 4, 57, 95
5, 252960, Note_off_c, 4, 52, 95
5, 252960, Note_off_c, 4, 45, 95
5, 252960, Note_on_c, 4, 57, 95
5, 252960, Note_on_c, 4, 52, 95
5, 252960, Note_on_c, 4, 45, 95
5, 253440, Note_off_c, 4, 57, 95
5, 253440, Note_off_c, 4, 52, 95
5, 253440, Note_off_c, 4, 45, 95
5, 253440, Note_on_c, 4, 57, 95
5, 253440, Note_on_c, 4, 52, 95
5, 253440, Note_on_c, 4, 45, 95
5, 254400, Note_off_c, 4, 57, 95
5, 254400, Note_off_c, 4, 52, 95
5, 254400, Note_off_c, 4, 45, 95
5, 254400, Note_on_c, 4, 57, 95
5, 254400, Note_on_c, 4, 52, 95
5, 254400, Note_on_c, 4, 45, 95
5, 254880, Note_off_c, 4, 57, 95
5, 254880, Note_off_c, 4, 52, 95
5, 254880, Note_off_c, 4, 45, 95
5, 254880, Note_on_c, 4, 57, 95
5, 254880, Note_on_c, 4, 52, 95
5, 254880, Note_on_c, 4, 45, 95
5, 255360, Note_off_c, 4, 57, 95
5, 255360, Note_off_c, 4, 52, 95
5, 255360, Note_off_c, 4, 45, 95
5, 255360, Note_on_c, 4, 57, 95
5, 255360, Note_on_c, 4, 52, 95
5, 255360, Note_on_c, 4, 45, 95
5, 255840, Note_off_c, 4, 57, 95
5, 255840, Note_off_c, 4, 52, 95
5, 255840, Note_off_c, 4, 45, 95
5, 255840, Note_on_c, 4, 57, 95
5, 255840, Note_on_c, 4, 52, 95
5, 255840, Note_on_c, 4, 45, 95
5, 256320, Note_off_c, 4, 57, 95
5, 256320, Note_off_c, 4, 52, 95
5, 256320, Note_off_c, 4, 45, 95
5, 256320, Note_on_c, 4, 57, 95
5, 256320, Note_on_c, 4, 52, 95
5, 256320, Note_on_c, 4, 45, 95
5, 256800, Note_off_c, 4, 57, 95
5, 256800, Note_off_c, 4, 52, 95
5, 256800, Note_off_c, 4, 45, 95
5, 256800, Note_on_c, 4, 57, 95
5, 256800, Note_on_c, 4, 52, 95
5, 256800, Note_on_c, 4, 45, 95
5, 257280, Note_off_c, 4, 57, 95
5, 257280, Note_off_c, 4, 52, 95
5, 257280, Note_off_c, 4, 45, 95
5, 257280, Note_on_c, 4, 61, 95
5, 257280, Note_on_c, 4, 57, 95
5, 257280, Note_on_c, 4, 52, 95
5, 257280, Note_on_c, 4, 45, 95
5, 258240, Note_off_c, 4, 61, 95
5, 258240, Note_off_c, 4, 57, 95
5, 258240, Note_off_c, 4, 52, 95
5, 258240, Note_off_c, 4, 45, 95
5, 258240, Note_on_c, 4, 61, 95
5, 258240, Note_on_c, 4, 57, 95
5, 258240, Note_on_c, 4, 52, 95
5, 258240, Note_on_c, 4, 45, 95
5, 259680, Note_off_c, 4, 61, 95
5, 259680, Note_off_c, 4, 57, 95
5, 259680, Note_off_c, 4, 52, 95
5, 259680, Note_off_c, 4, 45, 95
5, 259680, Note_on_c, 4, 61, 95
5, 259680, Note_on_c, 4, 57, 95
5, 259680, Note_on_c, 4, 52, 95
5, 259680, Note_on_c, 4, 45, 95
5, 260640, Note_off_c, 4, 61, 95
5, 260640, Note_off_c, 4, 57, 95
5, 260640, Note_off_c, 4, 52, 95
5, 260640, Note_off_c, 4, 45, 95
5, 260640, Note_on_c, 4, 52, 95
5, 260640, Note_on_c, 4, 45, 95
5, 261120, Note_off_c, 4, 52, 95
5, 261120, Note_off_c, 4, 45, 95
5, 261120, Note_on_c, 4, 57, 95
5, 261120, Note_on_c, 4, 52, 95
5, 261120, Note_on_c, 4, 45, 95
5, 262080, Note_off_c, 4, 57, 95
5, 262080, Note_off_c, 4, 52, 95
5, 262080, Note_off_c, 4, 45, 95
5, 262080, Note_on_c, 4, 55, 95
5, 262080, Note_on_c, 4, 50, 95
5, 262080, Note_on_c, 4, 45, 95
5, 262156, Note_off_c, 4, 55, 95
5, 262156, Note_off_c, 4, 50, 95
5, 262156, Note_off_c, 4, 45, 95
5, 262560, Note_on_c, 4, 50, 95
5, 262560, Note_on_c, 4, 45, 95
5, 262560, Note_on_c, 4, 43, 95
5, 262636, Note_off_c, 4, 45, 95
5, 263040, Note_off_c, 4, 50, 95
5, 263040, Note_off_c, 4, 43, 95
5, 263040, Note_on_c, 4, 67, 95
5, 263040, Note_on_c, 4, 59, 95
5, 263040, Note_on_c, 4, 55, 95
5, 263040, Note_on_c, 4, 50, 95
5, 263040, Note_on_c, 4, 48, 95
5, 263040, Note_on_c, 4, 43, 95
5, 263116, Note_off_c, 4, 48, 95
5, 264480, Note_off_c, 4, 67, 95
5, 264480, Note_off_c, 4, 59, 95
5, 264480, Note_off_c, 4, 55, 95
5, 264480, Note_off_c, 4, 50, 95
5, 264480, Note_off_c, 4, 43, 95
5, 264480, Note_on_c, 4, 64, 95
5, 264480, Note_on_c, 4, 59, 95
5, 264480, Note_on_c, 4, 55, 95
5, 264480, Note_on_c, 4, 50, 95
5, 264556, Note_off_c, 4, 64, 95
5, 264556, Note_off_c, 4, 59, 95
5, 264556, Note_off_c, 4, 55, 95
5, 264556, Note_off_c, 4, 50, 95
5, 264960, Note_on_c, 4, 66, 95
5, 264960, Note_on_c, 4, 62, 95
5, 264960, Note_on_c, 4, 57, 95
5, 264960, Note_on_c, 4, 50, 95
5, 265920, Note_off_c, 4, 66, 95
5, 265920, Note_off_c, 4, 62, 95
5, 265920, Note_off_c, 4, 57, 95
5, 265920, Note_off_c, 4, 50, 95
5, 265920, Note_on_c, 4, 64, 95
5, 265920, Note_on_c, 4, 59, 95
5, 265920, Note_on_c, 4, 55, 95
5, 265920, Note_on_c, 4, 50, 95
5, 265996, Note_off_c, 4, 64, 95
5, 265996, Note_off_c, 4, 59, 95
5, 265996, Note_off_c, 4, 55, 95
5, 265996, Note_off_c, 4, 50, 95
5, 266400, Note_on_c, 4, 57, 95
5, 266400, Note_on_c, 4, 52, 95
5, 266400, Note_on_c, 4, 45, 95
5, 267360, Note_off_c, 4, 57, 95
5, 267360, Note_off_c, 4, 52, 95
5, 267360, Note_off_c, 4, 45, 95
5, 267360, Note_on_c, 4, 57, 95
5, 267360, Note_on_c, 4, 52, 95
5, 267360, Note_on_c, 4, 45, 95
5, 267840, Note_off_c, 4, 57, 95
5, 267840, Note_off_c, 4, 52, 95
5, 267840, Note_off_c, 4, 45, 95
5, 267840, Note_on_c, 4, 57, 95
5, 267840, Note_on_c, 4, 52, 95
5, 267840, Note_on_c, 4, 45, 95
5, 268320, Note_off_c, 4, 57, 95
5, 268320, Note_off_c, 4, 52, 95
5, 268320, Note_off_c, 4, 45, 95
5, 268320, Note_on_c, 4, 55, 95
5, 268320, Note_on_c, 4, 50, 95
5, 268396, Note_off_c, 4, 55, 95
5, 268396, Note_off_c, 4, 50, 95
5, 268800, Note_on_c, 4, 67, 95
5, 268800, Note_on_c, 4, 59, 95
5, 268800, Note_on_c, 4, 55, 95
5, 268800, Note_on_c, 4, 50, 95
5, 268800, Note_on_c, 4, 45, 95
5, 268800, Note_on_c, 4, 43, 95
5, 268876, Note_off_c, 4, 45, 95
5, 270720, Note_off_c, 4, 67, 95
5, 270720, Note_off_c, 4, 59, 95
5, 270720, Note_off_c, 4, 55, 95
5, 270720, Note_off_c, 4, 50, 95
5, 270720, Note_off_c, 4, 43, 95
5, 270720, Note_on_c, 4, 67, 95
5, 270720, Note_on_c, 4, 59, 95
5, 270720, Note_on_c, 4, 55, 95
5, 270720, Note_on_c, 4, 50, 95
5, 270720, Note_on_c, 4, 45, 95
5, 270720, Note_on_c, 4, 43, 95
5, 270796, Note_off_c, 4, 45, 95
5, 271200, Note_off_c, 4, 67, 95
5, 271200, Note_off_c, 4, 59, 95
5, 271200, Note_off_c, 4, 55, 95
5, 271200, Note_off_c, 4, 50, 95
5, 271200, Note_off_c, 4, 43, 95
5, 271200, Note_on_c, 4, 67, 95
5, 271200, Note_on_c, 4, 59, 95
5, 271200, Note_on_c, 4, 55, 95
5, 271200, Note_on_c, 4, 50, 95
5, 271200, Note_on_c, 4, 45, 95
5, 271200, Note_on_c, 4, 43, 95
5, 271276, Note_off_c, 4, 45, 95
5, 272160, Note_off_c, 4, 67, 95
5, 272160, Note_off_c, 4, 59, 95
5, 272160, Note_off_c, 4, 55, 95
5, 272160, Note_off_c, 4, 50, 95
5, 272160, Note_off_c, 4, 43, 95
5, 272160, Note_on_c, 4, 64, 95
5, 272160, Note_on_c, 4, 59, 95
5, 272160, Note_on_c, 4, 55, 95
5, 272160, Note_on_c, 4, 50, 95
5, 272236, Note_off_c, 4, 64, 95
5, 272236, Note_off_c, 4, 59, 95
5, 272236, Note_off_c, 4, 55, 95
5, 272236, Note_off_c, 4, 50, 95
5, 272640, Note_on_c, 4, 68, 95
5, 272640, Note_on_c, 4, 64, 95
5, 272640, Note_on_c, 4, 59, 95
5, 272640, Note_on_c, 4, 52, 95
5, 273120, Note_off_c, 4, 68, 95
5, 273120, Note_off_c, 4, 64, 95
5, 273120, Note_off_c, 4, 59, 95
5, 273120, Note_off_c, 4, 52, 95
5, 273120, Note_on_c, 4, 68, 95
5, 273120, Note_on_c, 4, 64, 95
5, 273120, Note_on_c, 4, 59, 95
5, 273120, Note_on_c, 4, 52, 95
5, 273600, Note_off_c, 4, 68, 95
5, 273600, Note_off_c, 4, 64, 95
5, 273600, Note_off_c, 4, 59, 95
5, 273600, Note_off_c, 4, 52, 95
5, 273600, Note_on_c, 4, 68, 95
5, 273600, Note_on_c, 4, 64, 95
5, 273600, Note_on_c, 4, 59, 95
5, 273600, Note_on_c, 4, 52, 95
5, 274560, Note_off_c, 4, 68, 95
5, 274560, Note_off_c, 4, 64, 95
5, 274560, Note_off_c, 4, 59, 95
5, 274560, Note_off_c, 4, 52, 95
5, 274560, Note_on_c, 4, 68, 95
5, 274560, Note_on_c, 4, 64, 95
5, 274560, Note_on_c, 4, 59, 95
5, 274560, Note_on_c, 4, 52, 95
5, 275040, Note_off_c, 4, 68, 95
5, 275040, Note_off_c, 4, 64, 95
5, 275040, Note_off_c, 4, 59, 95
5, 275040, Note_off_c, 4, 52, 95
5, 275040, Note_on_c, 4, 68, 95
5, 275040, Note_on_c, 4, 64, 95
5, 275040, Note_on_c, 4, 59, 95
5, 275040, Note_on_c, 4, 52, 95
5, 275520, Note_off_c, 4, 68, 95
5, 275520, Note_off_c, 4, 64, 95
5, 275520, Note_off_c, 4, 59, 95
5, 275520, Note_off_c, 4, 52, 95
5, 275520, Note_on_c, 4, 68, 95
5, 275520, Note_on_c, 4, 64, 95
5, 275520, Note_on_c, 4, 59, 95
5, 275520, Note_on_c, 4, 52, 95
5, 276000, Note_off_c, 4, 68, 95
5, 276000, Note_off_c, 4, 64, 95
5, 276000, Note_off_c, 4, 59, 95
5, 276000, Note_off_c, 4, 52, 95
5, 276000, Note_on_c, 4, 59, 95
5, 276000, Note_on_c, 4, 55, 95
5, 276000, Note_on_c, 4, 50, 95
5, 276000, Note_on_c, 4, 45, 95
5, 276076, Note_off_c, 4, 59, 95
5, 276076, Note_off_c, 4, 55, 95
5, 276076, Note_off_c, 4, 50, 95
5, 276076, Note_off_c, 4, 45, 95
5, 276480, Note_on_c, 4, 57, 95
5, 276480, Note_on_c, 4, 52, 95
5, 276480, Note_on_c, 4, 45, 95
5, 277440, Note_off_c, 4, 57, 95
5, 277440, Note_off_c, 4, 52, 95
5, 277440, Note_off_c, 4, 45, 95
5, 277440, Note_on_c, 4, 55, 95
5, 277440, Note_on_c, 4, 50, 95
5, 277440, Note_on_c, 4, 45, 95
5, 277516, Note_off_c, 4, 55, 95
5, 277516, Note_off_c, 4, 50, 95
5, 277516, Note_off_c, 4, 45, 95
5, 277920, Note_on_c, 4, 50, 95
5, 277920, Note_on_c, 4, 45, 95
5, 277920, Note_on_c, 4, 43, 95
5, 277996, Note_off_c, 4, 45, 95
5, 278400, Note_off_c, 4, 50, 95
5, 278400, Note_off_c, 4, 43, 95
5, 278400, Note_on_c, 4, 67, 95
5, 278400, Note_on_c, 4, 59, 95
5, 278400, Note_on_c, 4, 55, 95
5, 278400, Note_on_c, 4, 50, 95
5, 278400, Note_on_c, 4, 48, 95
5, 278400, Note_on_c, 4, 43, 95
5, 278476, Note_off_c, 4, 48, 95
5, 279840, Note_off_c, 4, 67, 95
5, 279840, Note_off_c, 4, 59, 95
5, 279840, Note_off_c, 4, 55, 95
5, 279840, Note_off_c, 4, 50, 95
5, 279840, Note_off_c, 4, 43, 95
5, 279840, Note_on_c, 4, 64, 95
5, 279840, Note_on_c, 4, 59, 95
5, 279840, Note_on_c, 4, 55, 95
5, 279840, Note_on_c, 4, 50, 95
5, 279916, Note_off_c, 4, 64, 95
5, 279916, Note_off_c, 4, 59, 95
5, 279916, Note_off_c, 4, 55, 95
5, 279916, Note_off_c, 4, 50, 95
5, 280320, Note_on_c, 4, 66, 95
5, 280320, Note_on_c, 4, 62, 95
5, 280320, Note_on_c, 4, 57, 95
5, 280320, Note_on_c, 4, 50, 95
5, 281280, Note_off_c, 4, 66, 95
5, 281280, Note_off_c, 4, 62, 95
5, 281280, Note_off_c, 4, 57, 95
5, 281280, Note_off_c, 4, 50, 95
5, 281280, Note_on_c, 4, 64, 95
5, 281280, Note_on_c, 4, 59, 95
5, 281280, Note_on_c, 4, 55, 95
5, 281280, Note_on_c, 4, 50, 95
5, 281356, Note_off_c, 4, 64, 95
5, 281356, Note_off_c, 4, 59, 95
5, 281356, Note_off_c, 4, 55, 95
5, 281356, Note_off_c, 4, 50, 95
5, 281760, Note_on_c, 4, 57, 95
5, 281760, Note_on_c, 4, 52, 95
5, 281760, Note_on_c, 4, 45, 95
5, 282720, Note_off_c, 4, 57, 95
5, 282720, Note_off_c, 4, 52, 95
5, 282720, Note_off_c, 4, 45, 95
5, 282720, Note_on_c, 4, 57, 95
5, 282720, Note_on_c, 4, 52, 95
5, 282720, Note_on_c, 4, 45, 95
5, 283200, Note_off_c, 4, 57, 95
5, 283200, Note_off_c, 4, 52, 95
5, 283200, Note_off_c, 4, 45, 95
5, 283200, Note_on_c, 4, 57, 95
5, 283200, Note_on_c, 4, 52, 95
5, 283200, Note_on_c, 4, 45, 95
5, 283680, Note_off_c, 4, 57, 95
5, 283680, Note_off_c, 4, 52, 95
5, 283680, Note_off_c, 4, 45, 95
5, 283680, Note_on_c, 4, 55, 95
5, 283680, Note_on_c, 4, 50, 95
5, 283680, Note_on_c, 4, 45, 95
5, 283756, Note_off_c, 4, 55, 95
5, 283756, Note_off_c, 4, 50, 95
5, 283756, Note_off_c, 4, 45, 95
5, 284160, Note_on_c, 4, 67, 95
5, 284160, Note_on_c, 4, 59, 95
5, 284160, Note_on_c, 4, 55, 95
5, 284160, Note_on_c, 4, 50, 95
5, 284160, Note_on_c, 4, 45, 95
5, 284160, Note_on_c, 4, 43, 95
5, 284236, Note_off_c, 4, 45, 95
5, 285120, Note_off_c, 4, 67, 95
5, 285120, Note_off_c, 4, 59, 95
5, 285120, Note_off_c, 4, 55, 95
5, 285120, Note_off_c, 4, 50, 95
5, 285120, Note_off_c, 4, 43, 95
5, 285120, Note_on_c, 4, 67, 95
5, 285120, Note_on_c, 4, 59, 95
5, 285120, Note_on_c, 4, 55, 95
5, 285120, Note_on_c, 4, 50, 95
5, 285120, Note_on_c, 4, 45, 95
5, 285120, Note_on_c, 4, 43, 95
5, 285196, Note_off_c, 4, 45, 95
5, 286080, Note_off_c, 4, 67, 95
5, 286080, Note_off_c, 4, 59, 95
5, 286080, Note_off_c, 4, 55, 95
5, 286080, Note_off_c, 4, 50, 95
5, 286080, Note_off_c, 4, 43, 95
5, 286080, Note_on_c, 4, 67, 95
5, 286080, Note_on_c, 4, 59, 95
5, 286080, Note_on_c, 4, 55, 95
5, 286080, Note_on_c, 4, 50, 95
5, 286080, Note_on_c, 4, 45, 95
5, 286080, Note_on_c, 4, 43, 95
5, 286156, Note_off_c, 4, 45, 95
5, 286560, Note_off_c, 4, 67, 95
5, 286560, Note_off_c, 4, 59, 95
5, 286560, Note_off_c, 4, 55, 95
5, 286560, Note_off_c, 4, 50, 95
5, 286560, Note_off_c, 4, 43, 95
5, 286560, Note_on_c, 4, 67, 95
5, 286560, Note_on_c, 4, 59, 95
5, 286560, Note_on_c, 4, 55, 95
5, 286560, Note_on_c, 4, 50, 95
5, 286560, Note_on_c, 4, 45, 95
5, 286560, Note_on_c, 4, 43, 95
5, 286636, Note_off_c, 4, 45, 95
5, 287520, Note_off_c, 4, 67, 95
5, 287520, Note_off_c, 4, 59, 95
5, 287520, Note_off_c, 4, 55, 95
5, 287520, Note_off_c, 4, 50, 95
5, 287520, Note_off_c, 4, 43, 95
5, 287520, Note_on_c, 4, 59, 95
5, 287520, Note_on_c, 4, 55, 95
5, 287520, Note_on_c, 4, 50, 95
5, 287520, Note_on_c, 4, 45, 95
5, 287596, Note_off_c, 4, 59, 95
5, 287596, Note_off_c, 4, 55, 95
5, 287596, Note_off_c, 4, 50, 95
5, 287596, Note_off_c, 4, 45, 95
5, 288000, Note_on_c, 4, 68, 95
5, 288000, Note_on_c, 4, 64, 95
5, 288000, Note_on_c, 4, 59, 95
5, 288000, Note_on_c, 4, 52, 95
5, 288480, Note_off_c, 4, 68, 95
5, 288480, Note_off_c, 4, 64, 95
5, 288480, Note_off_c, 4, 59, 95
5, 288480, Note_off_c, 4, 52, 95
5, 288480, Note_on_c, 4, 68, 95
5, 288480, Note_on_c, 4, 64, 95
5, 288480, Note_on_c, 4, 59, 95
5, 288480, Note_on_c, 4, 52, 95
5, 288960, Note_off_c, 4, 68, 95
5, 288960, Note_off_c, 4, 64, 95
5, 288960, Note_off_c, 4, 59, 95
5, 288960, Note_off_c, 4, 52, 95
5, 288960, Note_on_c, 4, 68, 95
5, 288960, Note_on_c, 4, 64, 95
5, 288960, Note_on_c, 4, 59, 95
5, 288960, Note_on_c, 4, 52, 95
5, 289440, Note_off_c, 4, 68, 95
5, 289440, Note_off_c, 4, 64, 95
5, 289440, Note_off_c, 4, 59, 95
5, 289440, Note_off_c, 4, 52, 95
5, 289440, Note_on_c, 4, 68, 95
5, 289440, Note_on_c, 4, 64, 95
5, 289440, Note_on_c, 4, 59, 95
5, 289440, Note_on_c, 4, 52, 95
5, 289920, Note_off_c, 4, 68, 95
5, 289920, Note_off_c, 4, 64, 95
5, 289920, Note_off_c, 4, 59, 95
5, 289920, Note_off_c, 4, 52, 95
5, 289920, Note_on_c, 4, 68, 95
5, 289920, Note_on_c, 4, 64, 95
5, 289920, Note_on_c, 4, 59, 95
5, 289920, Note_on_c, 4, 52, 95
5, 290400, Note_off_c, 4, 68, 95
5, 290400, Note_off_c, 4, 64, 95
5, 290400, Note_off_c, 4, 59, 95
5, 290400, Note_off_c, 4, 52, 95
5, 290400, Note_on_c, 4, 68, 95
5, 290400, Note_on_c, 4, 64, 95
5, 290400, Note_on_c, 4, 59, 95
5, 290400, Note_on_c, 4, 52, 95
5, 290880, Note_off_c, 4, 68, 95
5, 290880, Note_off_c, 4, 64, 95
5, 290880, Note_off_c, 4, 59, 95
5, 290880, Note_off_c, 4, 52, 95
5, 290880, Note_on_c, 4, 68, 95
5, 290880, Note_on_c, 4, 64, 95
5, 290880, Note_on_c, 4, 59, 95
5, 290880, Note_on_c, 4, 52, 95
5, 291360, Note_off_c, 4, 68, 95
5, 291360, Note_off_c, 4, 64, 95
5, 291360, Note_off_c, 4, 59, 95
5, 291360, Note_off_c, 4, 52, 95
5, 291360, Note_on_c, 4, 68, 95
5, 291360, Note_on_c, 4, 64, 95
5, 291360, Note_on_c, 4, 59, 95
5, 291360, Note_on_c, 4, 52, 95
5, 291840, Note_off_c, 4, 68, 95
5, 291840, Note_off_c, 4, 64, 95
5, 291840, Note_off_c, 4, 59, 95
5, 291840, Note_off_c, 4, 52, 95
5, 291840, Note_on_c, 4, 64, 95
5, 291840, Note_on_c, 4, 59, 95
5, 291840, Note_on_c, 4, 52, 95
5, 292320, Note_off_c, 4, 64, 95
5, 292320, Note_off_c, 4, 59, 95
5, 292320, Note_off_c, 4, 52, 95
5, 292320, Note_on_c, 4, 64, 95
5, 292320, Note_on_c, 4, 59, 95
5, 292320, Note_on_c, 4, 52, 95
5, 292800, Note_off_c, 4, 64, 95
5, 292800, Note_off_c, 4, 59, 95
5, 292800, Note_off_c, 4, 52, 95
5, 292800, Note_on_c, 4, 64, 95
5, 292800, Note_on_c, 4, 59, 95
5, 292800, Note_on_c, 4, 52, 95
5, 293280, Note_off_c, 4, 64, 95
5, 293280, Note_off_c, 4, 59, 95
5, 293280, Note_off_c, 4, 52, 95
5, 293280, Note_on_c, 4, 64, 95
5, 293280, Note_on_c, 4, 59, 95
5, 293280, Note_on_c, 4, 52, 95
5, 293760, Note_off_c, 4, 64, 95
5, 293760, Note_off_c, 4, 59, 95
5, 293760, Note_off_c, 4, 52, 95
5, 293760, Note_on_c, 4, 64, 95
5, 293760, Note_on_c, 4, 59, 95
5, 293760, Note_on_c, 4, 52, 95
5, 294240, Note_off_c, 4, 64, 95
5, 294240, Note_off_c, 4, 59, 95
5, 294240, Note_off_c, 4, 52, 95
5, 294240, Note_on_c, 4, 64, 95
5, 294240, Note_on_c, 4, 59, 95
5, 294240, Note_on_c, 4, 52, 95
5, 294720, Note_off_c, 4, 64, 95
5, 294720, Note_off_c, 4, 59, 95
5, 294720, Note_off_c, 4, 52, 95
5, 294720, Note_on_c, 4, 64, 95
5, 294720, Note_on_c, 4, 59, 95
5, 294720, Note_on_c, 4, 52, 95
5, 295200, Note_off_c, 4, 64, 95
5, 295200, Note_off_c, 4, 59, 95
5, 295200, Note_off_c, 4, 52, 95
5, 295200, Note_on_c, 4, 64, 95
5, 295200, Note_on_c, 4, 59, 95
5, 295200, Note_on_c, 4, 52, 95
5, 295680, Note_off_c, 4, 64, 95
5, 295680, Note_off_c, 4, 59, 95
5, 295680, Note_off_c, 4, 52, 95
5, 295680, Note_on_c, 4, 57, 95
5, 295680, Note_on_c, 4, 52, 95
5, 295680, Note_on_c, 4, 45, 95
5, 297120, Note_off_c, 4, 57, 95
5, 297120, Note_off_c, 4, 52, 95
5, 297120, Note_off_c, 4, 45, 95
5, 297120, Note_on_c, 4, 57, 95
5, 297120, Note_on_c, 4, 52, 95
5, 297120, Note_on_c, 4, 45, 95
5, 297600, Note_off_c, 4, 57, 95
5, 297600, Note_off_c, 4, 52, 95
5, 297600, Note_off_c, 4, 45, 95
5, 297600, Note_on_c, 4, 57, 95
5, 297600, Note_on_c, 4, 52, 95
5, 297600, Note_on_c, 4, 45, 95
5, 298080, Note_off_c, 4, 57, 95
5, 298080, Note_off_c, 4, 52, 95
5, 298080, Note_off_c, 4, 45, 95
5, 298080, Note_on_c, 4, 57, 95
5, 298080, Note_on_c, 4, 52, 95
5, 298080, Note_on_c, 4, 45, 95
5, 299040, Note_off_c, 4, 57, 95
5, 299040, Note_off_c, 4, 52, 95
5, 299040, Note_off_c, 4, 45, 95
5, 299040, Note_on_c, 4, 57, 95
5, 299040, Note_on_c, 4, 52, 95
5, 299040, Note_on_c, 4, 45, 95
5, 299520, Note_off_c, 4, 57, 95
5, 299520, Note_off_c, 4, 52, 95
5, 299520, Note_off_c, 4, 45, 95
5, 299520, Note_on_c, 4, 57, 95
5, 299520, Note_on_c, 4, 52, 95
5, 299520, Note_on_c, 4, 45, 95
5, 300000, Note_off_c, 4, 57, 95
5, 300000, Note_off_c, 4, 52, 95
5, 300000, Note_off_c, 4, 45, 95
5, 300000, Note_on_c, 4, 57, 95
5, 300000, Note_on_c, 4, 52, 95
5, 300000, Note_on_c, 4, 45, 95
5, 300480, Note_off_c, 4, 57, 95
5, 300480, Note_off_c, 4, 52, 95
5, 300480, Note_off_c, 4, 45, 95
5, 300480, Note_on_c, 4, 57, 95
5, 300480, Note_on_c, 4, 52, 95
5, 300480, Note_on_c, 4, 45, 95
5, 300960, Note_off_c, 4, 57, 95
5, 300960, Note_off_c, 4, 52, 95
5, 300960, Note_off_c, 4, 45, 95
5, 300960, Note_on_c, 4, 57, 95
5, 300960, Note_on_c, 4, 52, 95
5, 300960, Note_on_c, 4, 45, 95
5, 301440, Note_off_c, 4, 57, 95
5, 301440, Note_off_c, 4, 52, 95
5, 301440, Note_off_c, 4, 45, 95
5, 301440, Note_on_c, 4, 57, 95
5, 301440, Note_on_c, 4, 52, 95
5, 301440, Note_on_c, 4, 45, 95
5, 301920, Note_off_c, 4, 57, 95
5, 301920, Note_off_c, 4, 52, 95
5, 301920, Note_off_c, 4, 45, 95
5, 301920, Note_on_c, 4, 57, 95
5, 301920, Note_on_c, 4, 52, 95
5, 301920, Note_on_c, 4, 45, 95
5, 302400, Note_off_c, 4, 57, 95
5, 302400, Note_off_c, 4, 52, 95
5, 302400, Note_off_c, 4, 45, 95
5, 302400, Note_on_c, 4, 57, 95
5, 302400, Note_on_c, 4, 52, 95
5, 302400, Note_on_c, 4, 45, 95
5, 302880, Note_off_c, 4, 57, 95
5, 302880, Note_off_c, 4, 52, 95
5, 302880, Note_off_c, 4, 45, 95
5, 302880, Note_on_c, 4, 59, 95
5, 302880, Note_on_c, 4, 55, 95
5, 302880, Note_on_c, 4, 50, 95
5, 302880, Note_on_c, 4, 45, 95
5, 302956, Note_off_c, 4, 59, 95
5, 302956, Note_off_c, 4, 55, 95
5, 302956, Note_off_c, 4, 50, 95
5, 302956, Note_off_c, 4, 45, 95
5, 303360, Note_on_c, 4, 62, 79
5, 303360, Note_on_c, 4, 57, 79
5, 303360, Note_on_c, 4, 50, 79
5, 303840, Note_off_c, 4, 62, 79
5, 303840, Note_off_c, 4, 57, 79
5, 303840, Note_off_c, 4, 50, 79
5, 303840, Note_on_c, 4, 62, 79
5, 303840, Note_on_c, 4, 57, 79
5, 303840, Note_on_c, 4, 50, 79
5, 304320, Note_off_c, 4, 62, 79
5, 304320, Note_off_c, 4, 57, 79
5, 304320, Note_off_c, 4, 50, 79
5, 304320, Note_on_c, 4, 62, 79
5, 304320, Note_on_c, 4, 57, 79
5, 304320, Note_on_c, 4, 50, 79
5, 304800, Note_off_c, 4, 62, 79
5, 304800, Note_off_c, 4, 57, 79
5, 304800, Note_off_c, 4, 50, 79
5, 304800, Note_on_c, 4, 62, 79
5, 304800, Note_on_c, 4, 57, 79
5, 304800, Note_on_c, 4, 50, 79
5, 305280, Note_off_c, 4, 62, 79
5, 305280, Note_off_c, 4, 57, 79
5, 305280, Note_off_c, 4, 50, 79
5, 305280, Note_on_c, 4, 62, 79
5, 305280, Note_on_c, 4, 57, 79
5, 305280, Note_on_c, 4, 50, 79
5, 305760, Note_off_c, 4, 62, 79
5, 305760, Note_off_c, 4, 57, 79
5, 305760, Note_off_c, 4, 50, 79
5, 305760, Note_on_c, 4, 62, 79
5, 305760, Note_on_c, 4, 57, 79
5, 305760, Note_on_c, 4, 50, 79
5, 306240, Note_off_c, 4, 62, 79
5, 306240, Note_off_c, 4, 57, 79
5, 306240, Note_off_c, 4, 50, 79
5, 306240, Note_on_c, 4, 62, 79
5, 306240, Note_on_c, 4, 57, 79
5, 306240, Note_on_c, 4, 50, 79
5, 306720, Note_off_c, 4, 62, 79
5, 306720, Note_off_c, 4, 57, 79
5, 306720, Note_off_c, 4, 50, 79
5, 306720, Note_on_c, 4, 60, 79
5, 306720, Note_on_c, 4, 55, 79
5, 306720, Note_on_c, 4, 48, 79
5, 307200, Note_off_c, 4, 60, 79
5, 307200, Note_off_c, 4, 55, 79
5, 307200, Note_off_c, 4, 48, 79
5, 307200, Note_on_c, 4, 60, 79
5, 307200, Note_on_c, 4, 55, 79
5, 307200, Note_on_c, 4, 48, 79
5, 307680, Note_off_c, 4, 60, 79
5, 307680, Note_off_c, 4, 55, 79
5, 307680, Note_off_c, 4, 48, 79
5, 307680, Note_on_c, 4, 60, 79
5, 307680, Note_on_c, 4, 55, 79
5, 307680, Note_on_c, 4, 48, 79
5, 308160, Note_off_c, 4, 60, 79
5, 308160, Note_off_c, 4, 55, 79
5, 308160, Note_off_c, 4, 48, 79
5, 308160, Note_on_c, 4, 60, 79
5, 308160, Note_on_c, 4, 55, 79
5, 308160, Note_on_c, 4, 48, 79
5, 308640, Note_off_c, 4, 60, 79
5, 308640, Note_off_c, 4, 55, 79
5, 308640, Note_off_c, 4, 48, 79
5, 308640, Note_on_c, 4, 60, 79
5, 308640, Note_on_c, 4, 55, 79
5, 308640, Note_on_c, 4, 48, 79
5, 309120, Note_off_c, 4, 60, 79
5, 309120, Note_off_c, 4, 55, 79
5, 309120, Note_off_c, 4, 48, 79
5, 309120, Note_on_c, 4, 60, 79
5, 309120, Note_on_c, 4, 55, 79
5, 309120, Note_on_c, 4, 48, 79
5, 309600, Note_off_c, 4, 60, 79
5, 309600, Note_off_c, 4, 55, 79
5, 309600, Note_off_c, 4, 48, 79
5, 309600, Note_on_c, 4, 60, 79
5, 309600, Note_on_c, 4, 55, 79
5, 309600, Note_on_c, 4, 48, 79
5, 310080, Note_off_c, 4, 60, 79
5, 310080, Note_off_c, 4, 55, 79
5, 310080, Note_off_c, 4, 48, 79
5, 310080, Note_on_c, 4, 60, 79
5, 310080, Note_on_c, 4, 55, 79
5, 310080, Note_on_c, 4, 48, 79
5, 310560, Note_off_c, 4, 60, 79
5, 310560, Note_off_c, 4, 55, 79
5, 310560, Note_off_c, 4, 48, 79
5, 310560, Note_on_c, 4, 57, 79
5, 310560, Note_on_c, 4, 52, 79
5, 310560, Note_on_c, 4, 45, 79
5, 311040, Note_off_c, 4, 57, 79
5, 311040, Note_off_c, 4, 52, 79
5, 311040, Note_off_c, 4, 45, 79
5, 311040, Note_on_c, 4, 57, 79
5, 311040, Note_on_c, 4, 52, 79
5, 311040, Note_on_c, 4, 45, 79
5, 311520, Note_off_c, 4, 57, 79
5, 311520, Note_off_c, 4, 52, 79
5, 311520, Note_off_c, 4, 45, 79
5, 311520, Note_on_c, 4, 57, 79
5, 311520, Note_on_c, 4, 52, 79
5, 311520, Note_on_c, 4, 45, 79
5, 312000, Note_off_c, 4, 57, 79
5, 312000, Note_off_c, 4, 52, 79
5, 312000, Note_off_c, 4, 45, 79
5, 312000, Note_on_c, 4, 57, 79
5, 312000, Note_on_c, 4, 52, 79
5, 312000, Note_on_c, 4, 45, 79
5, 312480, Note_off_c, 4, 57, 79
5, 312480, Note_off_c, 4, 52, 79
5, 312480, Note_off_c, 4, 45, 79
5, 312480, Note_on_c, 4, 57, 79
5, 312480, Note_on_c, 4, 52, 79
5, 312480, Note_on_c, 4, 45, 79
5, 312960, Note_off_c, 4, 57, 79
5, 312960, Note_off_c, 4, 52, 79
5, 312960, Note_off_c, 4, 45, 79
5, 312960, Note_on_c, 4, 57, 79
5, 312960, Note_on_c, 4, 52, 79
5, 312960, Note_on_c, 4, 45, 79
5, 313440, Note_off_c, 4, 57, 79
5, 313440, Note_off_c, 4, 52, 79
5, 313440, Note_off_c, 4, 45, 79
5, 313440, Note_on_c, 4, 57, 79
5, 313440, Note_on_c, 4, 52, 79
5, 313440, Note_on_c, 4, 45, 79
5, 313920, Note_off_c, 4, 57, 79
5, 313920, Note_off_c, 4, 52, 79
5, 313920, Note_off_c, 4, 45, 79
5, 313920, Note_on_c, 4, 57, 79
5, 313920, Note_on_c, 4, 52, 79
5, 313920, Note_on_c, 4, 45, 79
5, 314400, Note_off_c, 4, 57, 79
5, 314400, Note_off_c, 4, 52, 79
5, 314400, Note_off_c, 4, 45, 79
5, 314400, Note_on_c, 4, 57, 79
5, 314400, Note_on_c, 4, 52, 79
5, 314400, Note_on_c, 4, 45, 79
5, 314880, Note_off_c, 4, 57, 79
5, 314880, Note_off_c, 4, 52, 79
5, 314880, Note_off_c, 4, 45, 79
5, 314880, Note_on_c, 4, 57, 79
5, 314880, Note_on_c, 4, 52, 79
5, 314880, Note_on_c, 4, 45, 79
5, 315360, Note_off_c, 4, 57, 79
5, 315360, Note_off_c, 4, 52, 79
5, 315360, Note_off_c, 4, 45, 79
5, 315360, Note_on_c, 4, 57, 79
5, 315360, Note_on_c, 4, 52, 79
5, 315360, Note_on_c, 4, 45, 79
5, 315840, Note_off_c, 4, 57, 79
5, 315840, Note_off_c, 4, 52, 79
5, 315840, Note_off_c, 4, 45, 79
5, 315840, Note_on_c, 4, 57, 79
5, 315840, Note_on_c, 4, 52, 79
5, 315840, Note_on_c, 4, 45, 79
5, 316320, Note_off_c, 4, 57, 79
5, 316320, Note_off_c, 4, 52, 79
5, 316320, Note_off_c, 4, 45, 79
5, 316320, Note_on_c, 4, 57, 79
5, 316320, Note_on_c, 4, 52, 79
5, 316320, Note_on_c, 4, 45, 79
5, 316800, Note_off_c, 4, 57, 79
5, 316800, Note_off_c, 4, 52, 79
5, 316800, Note_off_c, 4, 45, 79
5, 316800, Note_on_c, 4, 57, 79
5, 316800, Note_on_c, 4, 52, 79
5, 316800, Note_on_c, 4, 45, 79
5, 317280, Note_off_c, 4, 57, 79
5, 317280, Note_off_c, 4, 52, 79
5, 317280, Note_off_c, 4, 45, 79
5, 317280, Note_on_c, 4, 57, 79
5, 317280, Note_on_c, 4, 52, 79
5, 317280, Note_on_c, 4, 45, 79
5, 317760, Note_off_c, 4, 57, 79
5, 317760, Note_off_c, 4, 52, 79
5, 317760, Note_off_c, 4, 45, 79
5, 317760, Note_on_c, 4, 57, 79
5, 317760, Note_on_c, 4, 52, 79
5, 317760, Note_on_c, 4, 45, 79
5, 318240, Note_off_c, 4, 57, 79
5, 318240, Note_off_c, 4, 52, 79
5, 318240, Note_off_c, 4, 45, 79
5, 318240, Note_on_c, 4, 55, 95
5, 318240, Note_on_c, 4, 50, 95
5, 318240, Note_on_c, 4, 45, 95
5, 318316, Note_off_c, 4, 55, 95
5, 318316, Note_off_c, 4, 50, 95
5, 318316, Note_off_c, 4, 45, 95
5, 318720, Note_on_c, 4, 62, 79
5, 318720, Note_on_c, 4, 57, 79
5, 318720, Note_on_c, 4, 50, 79
5, 319200, Note_off_c, 4, 62, 79
5, 319200, Note_off_c, 4, 57, 79
5, 319200, Note_off_c, 4, 50, 79
5, 319200, Note_on_c, 4, 62, 79
5, 319200, Note_on_c, 4, 57, 79
5, 319200, Note_on_c, 4, 50, 79
5, 319680, Note_off_c, 4, 62, 79
5, 319680, Note_off_c, 4, 57, 79
5, 319680, Note_off_c, 4, 50, 79
5, 319680, Note_on_c, 4, 62, 79
5, 319680, Note_on_c, 4, 57, 79
5, 319680, Note_on_c, 4, 50, 79
5, 320160, Note_off_c, 4, 62, 79
5, 320160, Note_off_c, 4, 57, 79
5, 320160, Note_off_c, 4, 50, 79
5, 320160, Note_on_c, 4, 62, 79
5, 320160, Note_on_c, 4, 57, 79
5, 320160, Note_on_c, 4, 50, 79
5, 320640, Note_off_c, 4, 62, 79
5, 320640, Note_off_c, 4, 57, 79
5, 320640, Note_off_c, 4, 50, 79
5, 320640, Note_on_c, 4, 62, 79
5, 320640, Note_on_c, 4, 57, 79
5, 320640, Note_on_c, 4, 50, 79
5, 321120, Note_off_c, 4, 62, 79
5, 321120, Note_off_c, 4, 57, 79
5, 321120, Note_off_c, 4, 50, 79
5, 321120, Note_on_c, 4, 62, 79
5, 321120, Note_on_c, 4, 57, 79
5, 321120, Note_on_c, 4, 50, 79
5, 321600, Note_off_c, 4, 62, 79
5, 321600, Note_off_c, 4, 57, 79
5, 321600, Note_off_c, 4, 50, 79
5, 321600, Note_on_c, 4, 62, 79
5, 321600, Note_on_c, 4, 57, 79
5, 321600, Note_on_c, 4, 50, 79
5, 322080, Note_off_c, 4, 62, 79
5, 322080, Note_off_c, 4, 57, 79
5, 322080, Note_off_c, 4, 50, 79
5, 322080, Note_on_c, 4, 60, 79
5, 322080, Note_on_c, 4, 55, 79
5, 322080, Note_on_c, 4, 48, 79
5, 322560, Note_off_c, 4, 60, 79
5, 322560, Note_off_c, 4, 55, 79
5, 322560, Note_off_c, 4, 48, 79
5, 322560, Note_on_c, 4, 60, 79
5, 322560, Note_on_c, 4, 55, 79
5, 322560, Note_on_c, 4, 48, 79
5, 323040, Note_off_c, 4, 60, 79
5, 323040, Note_off_c, 4, 55, 79
5, 323040, Note_off_c, 4, 48, 79
5, 323040, Note_on_c, 4, 60, 79
5, 323040, Note_on_c, 4, 55, 79
5, 323040, Note_on_c, 4, 48, 79
5, 323520, Note_off_c, 4, 60, 79
5, 323520, Note_off_c, 4, 55, 79
5, 323520, Note_off_c, 4, 48, 79
5, 323520, Note_on_c, 4, 60, 79
5, 323520, Note_on_c, 4, 55, 79
5, 323520, Note_on_c, 4, 48, 79
5, 324000, Note_off_c, 4, 60, 79
5, 324000, Note_off_c, 4, 55, 79
5, 324000, Note_off_c, 4, 48, 79
5, 324000, Note_on_c, 4, 60, 79
5, 324000, Note_on_c, 4, 55, 79
5, 324000, Note_on_c, 4, 48, 79
5, 324480, Note_off_c, 4, 60, 79
5, 324480, Note_off_c, 4, 55, 79
5, 324480, Note_off_c, 4, 48, 79
5, 324480, Note_on_c, 4, 60, 79
5, 324480, Note_on_c, 4, 55, 79
5, 324480, Note_on_c, 4, 48, 79
5, 324960, Note_off_c, 4, 60, 79
5, 324960, Note_off_c, 4, 55, 79
5, 324960, Note_off_c, 4, 48, 79
5, 324960, Note_on_c, 4, 60, 79
5, 324960, Note_on_c, 4, 55, 79
5, 324960, Note_on_c, 4, 48, 79
5, 325440, Note_off_c, 4, 60, 79
5, 325440, Note_off_c, 4, 55, 79
5, 325440, Note_off_c, 4, 48, 79
5, 325440, Note_on_c, 4, 60, 79
5, 325440, Note_on_c, 4, 55, 79
5, 325440, Note_on_c, 4, 48, 79
5, 325920, Note_off_c, 4, 60, 79
5, 325920, Note_off_c, 4, 55, 79
5, 325920, Note_off_c, 4, 48, 79
5, 325920, Note_on_c, 4, 57, 79
5, 325920, Note_on_c, 4, 52, 79
5, 325920, Note_on_c, 4, 45, 79
5, 326400, Note_off_c, 4, 57, 79
5, 326400, Note_off_c, 4, 52, 79
5, 326400, Note_off_c, 4, 45, 79
5, 326400, Note_on_c, 4, 57, 79
5, 326400, Note_on_c, 4, 52, 79
5, 326400, Note_on_c, 4, 45, 79
5, 326880, Note_off_c, 4, 57, 79
5, 326880, Note_off_c, 4, 52, 79
5, 326880, Note_off_c, 4, 45, 79
5, 326880, Note_on_c, 4, 57, 79
5, 326880, Note_on_c, 4, 52, 79
5, 326880, Note_on_c, 4, 45, 79
5, 327360, Note_off_c, 4, 57, 79
5, 327360, Note_off_c, 4, 52, 79
5, 327360, Note_off_c, 4, 45, 79
5, 327360, Note_on_c, 4, 57, 79
5, 327360, Note_on_c, 4, 52, 79
5, 327360, Note_on_c, 4, 45, 79
5, 327840, Note_off_c, 4, 57, 79
5, 327840, Note_off_c, 4, 52, 79
5, 327840, Note_off_c, 4, 45, 79
5, 327840, Note_on_c, 4, 57, 79
5, 327840, Note_on_c, 4, 52, 79
5, 327840, Note_on_c, 4, 45, 79
5, 328320, Note_off_c, 4, 57, 79
5, 328320, Note_off_c, 4, 52, 79
5, 328320, Note_off_c, 4, 45, 79
5, 328320, Note_on_c, 4, 57, 79
5, 328320, Note_on_c, 4, 52, 79
5, 328320, Note_on_c, 4, 45, 79
5, 328800, Note_off_c, 4, 57, 79
5, 328800, Note_off_c, 4, 52, 79
5, 328800, Note_off_c, 4, 45, 79
5, 328800, Note_on_c, 4, 57, 79
5, 328800, Note_on_c, 4, 52, 79
5, 328800, Note_on_c, 4, 45, 79
5, 329280, Note_off_c, 4, 57, 79
5, 329280, Note_off_c, 4, 52, 79
5, 329280, Note_off_c, 4, 45, 79
5, 329280, Note_on_c, 4, 57, 79
5, 329280, Note_on_c, 4, 52, 79
5, 329280, Note_on_c, 4, 45, 79
5, 329760, Note_off_c, 4, 57, 79
5, 329760, Note_off_c, 4, 52, 79
5, 329760, Note_off_c, 4, 45, 79
5, 329760, Note_on_c, 4, 57, 79
5, 329760, Note_on_c, 4, 52, 79
5, 329760, Note_on_c, 4, 45, 79
5, 330240, Note_off_c, 4, 57, 79
5, 330240, Note_off_c, 4, 52, 79
5, 330240, Note_off_c, 4, 45, 79
5, 330240, Note_on_c, 4, 57, 79
5, 330240, Note_on_c, 4, 52, 79
5, 330240, Note_on_c, 4, 45, 79
5, 330720, Note_off_c, 4, 57, 79
5, 330720, Note_off_c, 4, 52, 79
5, 330720, Note_off_c, 4, 45, 79
5, 330720, Note_on_c, 4, 57, 79
5, 330720, Note_on_c, 4, 52, 79
5, 330720, Note_on_c, 4, 45, 79
5, 331200, Note_off_c, 4, 57, 79
5, 331200, Note_off_c, 4, 52, 79
5, 331200, Note_off_c, 4, 45, 79
5, 331200, Note_on_c, 4, 57, 79
5, 331200, Note_on_c, 4, 52, 79
5, 331200, Note_on_c, 4, 45, 79
5, 331680, Note_off_c, 4, 57, 79
5, 331680, Note_off_c, 4, 52, 79
5, 331680, Note_off_c, 4, 45, 79
5, 331680, Note_on_c, 4, 57, 79
5, 331680, Note_on_c, 4, 52, 79
5, 331680, Note_on_c, 4, 45, 79
5, 332160, Note_off_c, 4, 57, 79
5, 332160, Note_off_c, 4, 52, 79
5, 332160, Note_off_c, 4, 45, 79
5, 332160, Note_on_c, 4, 57, 79
5, 332160, Note_on_c, 4, 52, 79
5, 332160, Note_on_c, 4, 45, 79
5, 332640, Note_off_c, 4, 57, 79
5, 332640, Note_off_c, 4, 52, 79
5, 332640, Note_off_c, 4, 45, 79
5, 332640, Note_on_c, 4, 57, 79
5, 332640, Note_on_c, 4, 52, 79
5, 332640, Note_on_c, 4, 45, 79
5, 333120, Note_off_c, 4, 57, 79
5, 333120, Note_off_c, 4, 52, 79
5, 333120, Note_off_c, 4, 45, 79
5, 333120, Note_on_c, 4, 57, 79
5, 333120, Note_on_c, 4, 52, 79
5, 333120, Note_on_c, 4, 45, 79
5, 333600, Note_off_c, 4, 57, 79
5, 333600, Note_off_c, 4, 52, 79
5, 333600, Note_off_c, 4, 45, 79
5, 333600, Note_on_c, 4, 55, 95
5, 333600, Note_on_c, 4, 50, 95
5, 333600, Note_on_c, 4, 45, 95
5, 333676, Note_off_c, 4, 55, 95
5, 333676, Note_off_c, 4, 50, 95
5, 333676, Note_off_c, 4, 45, 95
5, 334080, Note_on_c, 4, 62, 95
5, 334080, Note_on_c, 4, 57, 95
5, 334080, Note_on_c, 4, 50, 95
5, 335040, Note_off_c, 4, 62, 95
5, 335040, Note_off_c, 4, 57, 95
5, 335040, Note_off_c, 4, 50, 95
5, 335040, Note_on_c, 4, 62, 95
5, 335040, Note_on_c, 4, 57, 95
5, 335040, Note_on_c, 4, 50, 95
5, 336000, Note_off_c, 4, 62, 95
5, 336000, Note_off_c, 4, 57, 95
5, 336000, Note_off_c, 4, 50, 95
5, 336000, Note_on_c, 4, 62, 95
5, 336000, Note_on_c, 4, 57, 95
5, 336000, Note_on_c, 4, 50, 95
5, 336480, Note_off_c, 4, 62, 95
5, 336480, Note_off_c, 4, 57, 95
5, 336480, Note_off_c, 4, 50, 95
5, 336480, Note_on_c, 4, 62, 95
5, 336480, Note_on_c, 4, 57, 95
5, 336480, Note_on_c, 4, 50, 95
5, 337440, Note_off_c, 4, 62, 95
5, 337440, Note_off_c, 4, 57, 95
5, 337440, Note_off_c, 4, 50, 95
5, 337440, Note_on_c, 4, 60, 95
5, 337440, Note_on_c, 4, 55, 95
5, 337440, Note_on_c, 4, 48, 95
5, 337920, Note_off_c, 4, 60, 95
5, 337920, Note_off_c, 4, 55, 95
5, 337920, Note_off_c, 4, 48, 95
5, 337920, Note_on_c, 4, 60, 95
5, 337920, Note_on_c, 4, 55, 95
5, 337920, Note_on_c, 4, 48, 95
5, 338400, Note_off_c, 4, 60, 95
5, 338400, Note_off_c, 4, 55, 95
5, 338400, Note_off_c, 4, 48, 95
5, 338400, Note_on_c, 4, 60, 95
5, 338400, Note_on_c, 4, 55, 95
5, 338400, Note_on_c, 4, 48, 95
5, 338880, Note_off_c, 4, 60, 95
5, 338880, Note_off_c, 4, 55, 95
5, 338880, Note_off_c, 4, 48, 95
5, 338880, Note_on_c, 4, 60, 95
5, 338880, Note_on_c, 4, 55, 95
5, 338880, Note_on_c, 4, 48, 95
5, 339360, Note_off_c, 4, 60, 95
5, 339360, Note_off_c, 4, 55, 95
5, 339360, Note_off_c, 4, 48, 95
5, 339360, Note_on_c, 4, 60, 95
5, 339360, Note_on_c, 4, 55, 95
5, 339360, Note_on_c, 4, 48, 95
5, 339840, Note_off_c, 4, 60, 95
5, 339840, Note_off_c, 4, 55, 95
5, 339840, Note_off_c, 4, 48, 95
5, 339840, Note_on_c, 4, 60, 95
5, 339840, Note_on_c, 4, 55, 95
5, 339840, Note_on_c, 4, 48, 95
5, 340320, Note_off_c, 4, 60, 95
5, 340320, Note_off_c, 4, 55, 95
5, 340320, Note_off_c, 4, 48, 95
5, 340320, Note_on_c, 4, 60, 95
5, 340320, Note_on_c, 4, 55, 95
5, 340320, Note_on_c, 4, 48, 95
5, 340800, Note_off_c, 4, 60, 95
5, 340800, Note_off_c, 4, 55, 95
5, 340800, Note_off_c, 4, 48, 95
5, 340800, Note_on_c, 4, 60, 95
5, 340800, Note_on_c, 4, 55, 95
5, 340800, Note_on_c, 4, 48, 95
5, 341280, Note_off_c, 4, 60, 95
5, 341280, Note_off_c, 4, 55, 95
5, 341280, Note_off_c, 4, 48, 95
5, 341280, Note_on_c, 4, 57, 95
5, 341280, Note_on_c, 4, 52, 95
5, 341280, Note_on_c, 4, 45, 95
5, 341760, Note_off_c, 4, 57, 95
5, 341760, Note_off_c, 4, 52, 95
5, 341760, Note_off_c, 4, 45, 95
5, 341760, Note_on_c, 4, 57, 95
5, 341760, Note_on_c, 4, 52, 95
5, 341760, Note_on_c, 4, 45, 95
5, 344640, Note_off_c, 4, 57, 95
5, 344640, Note_off_c, 4, 52, 95
5, 344640, Note_off_c, 4, 45, 95
5, 345600, Note_on_c, 4, 55, 95
5, 345600, Note_on_c, 4, 50, 95
5, 345600, Note_on_c, 4, 43, 95
5, 346080, Note_off_c, 4, 55, 95
5, 346080, Note_off_c, 4, 50, 95
5, 346080, Note_off_c, 4, 43, 95
5, 346080, Note_on_c, 4, 55, 95
5, 346080, Note_on_c, 4, 50, 95
5, 346080, Note_on_c, 4, 43, 95
5, 346560, Note_off_c, 4, 55, 95
5, 346560, Note_off_c, 4, 50, 95
5, 346560, Note_off_c, 4, 43, 95
5, 346560, Note_on_c, 4, 55, 95
5, 346560, Note_on_c, 4, 50, 95
5, 346560, Note_on_c, 4, 43, 95
5, 347040, Note_off_c, 4, 55, 95
5, 347040, Note_off_c, 4, 50, 95
5, 347040, Note_off_c, 4, 43, 95
5, 347040, Note_on_c, 4, 55, 95
5, 347040, Note_on_c, 4, 50, 95
5, 347040, Note_on_c, 4, 43, 95
5, 347520, Note_off_c, 4, 55, 95
5, 347520, Note_off_c, 4, 50, 95
5, 347520, Note_off_c, 4, 43, 95
5, 347520, Note_on_c, 4, 55, 95
5, 347520, Note_on_c, 4, 50, 95
5, 347520, Note_on_c, 4, 43, 95
5, 348000, Note_off_c, 4, 55, 95
5, 348000, Note_off_c, 4, 50, 95
5, 348000, Note_off_c, 4, 43, 95
5, 348000, Note_on_c, 4, 55, 95
5, 348000, Note_on_c, 4, 50, 95
5, 348000, Note_on_c, 4, 43, 95
5, 348480, Note_off_c, 4, 55, 95
5, 348480, Note_off_c, 4, 50, 95
5, 348480, Note_off_c, 4, 43, 95
5, 348480, Note_on_c, 4, 55, 95
5, 348480, Note_on_c, 4, 50, 95
5, 348480, Note_on_c, 4, 43, 95
5, 348960, Note_off_c, 4, 55, 95
5, 348960, Note_off_c, 4, 50, 95
5, 348960, Note_off_c, 4, 43, 95
5, 348960, Note_on_c, 4, 55, 95
5, 348960, Note_on_c, 4, 50, 95
5, 348960, Note_on_c, 4, 43, 95
5, 349440, Note_off_c, 4, 55, 95
5, 349440, Note_off_c, 4, 50, 95
5, 349440, Note_off_c, 4, 43, 95
5, 349440, Note_on_c, 4, 52, 95
5, 349440, Note_on_c, 4, 47, 95
5, 349440, Note_on_c, 4, 40, 95
5, 349920, Note_off_c, 4, 52, 95
5, 349920, Note_off_c, 4, 47, 95
5, 349920, Note_off_c, 4, 40, 95
5, 351840, Note_on_c, 5, 62, 95
5, 351960, Pitch_bend_c, 5, 7296
5, 352080, Pitch_bend_c, 5, 6272
5, 352200, Pitch_bend_c, 5, 5248
5, 352320, Pitch_bend_c, 5, 4224
5, 352440, Pitch_bend_c, 5, 3328
5, 352560, Pitch_bend_c, 5, 2304
5, 352680, Pitch_bend_c, 5, 1280
5, 352800, Pitch_bend_c, 5, 256
5, 352920, Pitch_bend_c, 5, 0
5, 353040, Pitch_bend_c, 5, 0
5, 353160, Pitch_bend_c, 5, 0
5, 353280, Pitch_bend_c, 5, 0
5, 353280, Pitch_bend_c, 5, 8192
5, 353280, Note_off_c, 5, 62, 95
5, 353280, Note_on_c, 4, 57, 95
5, 353280, Note_on_c, 4, 52, 95
5, 353280, Note_on_c, 4, 45, 95
5, 354240, Note_off_c, 4, 57, 95
5, 354240, Note_off_c, 4, 52, 95
5, 354240, Note_off_c, 4, 45, 95
5, 354240, Note_on_c, 4, 57, 95
5, 354240, Note_on_c, 4, 52, 95
5, 354240, Note_on_c, 4, 45, 95
5, 354720, Note_off_c, 4, 57, 95
5, 354720, Note_off_c, 4, 52, 95
5, 354720, Note_off_c, 4, 45, 95
5, 354720, Note_on_c, 4, 57, 95
5, 354720, Note_on_c, 4, 52, 95
5, 354720, Note_on_c, 4, 45, 95
5, 355200, Note_off_c, 4, 57, 95
5, 355200, Note_off_c, 4, 52, 95
5, 355200, Note_off_c, 4, 45, 95
5, 355200, Note_on_c, 4, 57, 95
5, 355200, Note_on_c, 4, 52, 95
5, 355200, Note_on_c, 4, 45, 95
5, 355680, Note_off_c, 4, 57, 95
5, 355680, Note_off_c, 4, 52, 95
5, 355680, Note_off_c, 4, 45, 95
5, 355680, Note_on_c, 4, 57, 95
5, 355680, Note_on_c, 4, 52, 95
5, 355680, Note_on_c, 4, 45, 95
5, 356160, Note_off_c, 4, 57, 95
5, 356160, Note_off_c, 4, 52, 95
5, 356160, Note_off_c, 4, 45, 95
5, 356160, Note_on_c, 4, 57, 95
5, 356160, Note_on_c, 4, 52, 95
5, 356160, Note_on_c, 4, 45, 95
5, 356640, Note_off_c, 4, 57, 95
5, 356640, Note_off_c, 4, 52, 95
5, 356640, Note_off_c, 4, 45, 95
5, 356640, Note_on_c, 4, 57, 95
5, 356640, Note_on_c, 4, 52, 95
5, 356640, Note_on_c, 4, 45, 95
5, 357120, Note_off_c, 4, 57, 95
5, 357120, Note_off_c, 4, 52, 95
5, 357120, Note_off_c, 4, 45, 95
5, 357120, Note_on_c, 4, 57, 95
5, 357120, Note_on_c, 4, 52, 95
5, 357120, Note_on_c, 4, 45, 95
5, 358080, Note_off_c, 4, 57, 95
5, 358080, Note_off_c, 4, 52, 95
5, 358080, Note_off_c, 4, 45, 95
5, 358080, Note_on_c, 4, 57, 95
5, 358080, Note_on_c, 4, 52, 95
5, 358080, Note_on_c, 4, 45, 95
5, 358560, Note_off_c, 4, 57, 95
5, 358560, Note_off_c, 4, 52, 95
5, 358560, Note_off_c, 4, 45, 95
5, 358560, Note_on_c, 4, 57, 95
5, 358560, Note_on_c, 4, 52, 95
5, 358560, Note_on_c, 4, 45, 95
5, 359040, Note_off_c, 4, 57, 95
5, 359040, Note_off_c, 4, 52, 95
5, 359040, Note_off_c, 4, 45, 95
5, 359040, Note_on_c, 4, 57, 95
5, 359040, Note_on_c, 4, 52, 95
5, 359040, Note_on_c, 4, 45, 95
5, 359520, Note_off_c, 4, 57, 95
5, 359520, Note_off_c, 4, 52, 95
5, 359520, Note_off_c, 4, 45, 95
5, 359520, Note_on_c, 4, 57, 95
5, 359520, Note_on_c, 4, 52, 95
5, 359520, Note_on_c, 4, 45, 95
5, 360000, Note_off_c, 4, 57, 95
5, 360000, Note_off_c, 4, 52, 95
5, 360000, Note_off_c, 4, 45, 95
5, 360000, Note_on_c, 4, 57, 95
5, 360000, Note_on_c, 4, 52, 95
5, 360000, Note_on_c, 4, 45, 95
5, 360480, Note_off_c, 4, 57, 95
5, 360480, Note_off_c, 4, 52, 95
5, 360480, Note_off_c, 4, 45, 95
5, 360480, Note_on_c, 4, 57, 95
5, 360480, Note_on_c, 4, 52, 95
5, 360480, Note_on_c, 4, 45, 95
5, 360960, Note_off_c, 4, 57, 95
5, 360960, Note_off_c, 4, 52, 95
5, 360960, Note_off_c, 4, 45, 95
5, 360960, Note_on_c, 4, 57, 95
5, 360960, Note_on_c, 4, 52, 95
5, 360960, Note_on_c, 4, 45, 95
5, 361920, Note_off_c, 4, 57, 95
5, 361920, Note_off_c, 4, 52, 95
5, 361920, Note_off_c, 4, 45, 95
5, 361920, Note_on_c, 4, 57, 95
5, 361920, Note_on_c, 4, 52, 95
5, 361920, Note_on_c, 4, 45, 95
5, 362400, Note_off_c, 4, 57, 95
5, 362400, Note_off_c, 4, 52, 95
5, 362400, Note_off_c, 4, 45, 95
5, 362400, Note_on_c, 4, 57, 95
5, 362400, Note_on_c, 4, 52, 95
5, 362400, Note_on_c, 4, 45, 95
5, 362880, Note_off_c, 4, 57, 95
5, 362880, Note_off_c, 4, 52, 95
5, 362880, Note_off_c, 4, 45, 95
5, 362880, Note_on_c, 4, 57, 95
5, 362880, Note_on_c, 4, 52, 95
5, 362880, Note_on_c, 4, 45, 95
5, 363360, Note_off_c, 4, 57, 95
5, 363360, Note_off_c, 4, 52, 95
5, 363360, Note_off_c, 4, 45, 95
5, 363360, Note_on_c, 4, 57, 95
5, 363360, Note_on_c, 4, 52, 95
5, 363360, Note_on_c, 4, 45, 95
5, 363840, Note_off_c, 4, 57, 95
5, 363840, Note_off_c, 4, 52, 95
5, 363840, Note_off_c, 4, 45, 95
5, 363840, Note_on_c, 4, 57, 95
5, 363840, Note_on_c, 4, 52, 95
5, 363840, Note_on_c, 4, 45, 95
5, 364320, Note_off_c, 4, 57, 95
5, 364320, Note_off_c, 4, 52, 95
5, 364320, Note_off_c, 4, 45, 95
5, 364320, Note_on_c, 4, 57, 95
5, 364320, Note_on_c, 4, 52, 95
5, 364320, Note_on_c, 4, 45, 95
5, 364800, Note_off_c, 4, 57, 95
5, 364800, Note_off_c, 4, 52, 95
5, 364800, Note_off_c, 4, 45, 95
5, 364800, Note_on_c, 4, 61, 95
5, 364800, Note_on_c, 4, 57, 95
5, 364800, Note_on_c, 4, 52, 95
5, 364800, Note_on_c, 4, 45, 95
5, 365760, Note_off_c, 4, 61, 95
5, 365760, Note_off_c, 4, 57, 95
5, 365760, Note_off_c, 4, 52, 95
5, 365760, Note_off_c, 4, 45, 95
5, 365760, Note_on_c, 4, 61, 95
5, 365760, Note_on_c, 4, 57, 95
5, 365760, Note_on_c, 4, 52, 95
5, 365760, Note_on_c, 4, 45, 95
5, 367200, Note_off_c, 4, 61, 95
5, 367200, Note_off_c, 4, 57, 95
5, 367200, Note_off_c, 4, 52, 95
5, 367200, Note_off_c, 4, 45, 95
5, 367200, Note_on_c, 4, 61, 95
5, 367200, Note_on_c, 4, 57, 95
5, 367200, Note_on_c, 4, 52, 95
5, 367200, Note_on_c, 4, 45, 95
5, 368160, Note_off_c, 4, 61, 95
5, 368160, Note_off_c, 4, 57, 95
5, 368160, Note_off_c, 4, 52, 95
5, 368160, Note_off_c, 4, 45, 95
5, 368160, Note_on_c, 4, 52, 95
5, 368160, Note_on_c, 4, 45, 95
5, 368640, Note_off_c, 4, 52, 95
5, 368640, Note_off_c, 4, 45, 95
5, 368640, Control_c, 5, 11, 31
5, 368640, Note_on_c, 5, 69, 95
5, 368640, Control_c, 5, 11, 31
5, 368640, Note_on_c, 5, 64, 95
5, 368640, Control_c, 5, 11, 31
5, 368640, Note_on_c, 5, 57, 95
5, 368640, Control_c, 5, 11, 31
5, 368640, Note_on_c, 5, 52, 95
5, 368640, Control_c, 5, 11, 31
5, 368640, Note_on_c, 5, 45, 95
5, 368720, Control_c, 5, 11, 32
5, 368720, Control_c, 5, 11, 32
5, 368720, Control_c, 5, 11, 32
5, 368720, Control_c, 5, 11, 32
5, 368720, Control_c, 5, 11, 32
5, 368800, Control_c, 5, 11, 33
5, 368800, Control_c, 5, 11, 33
5, 368800, Control_c, 5, 11, 33
5, 368800, Control_c, 5, 11, 33
5, 368800, Control_c, 5, 11, 33
5, 368880, Control_c, 5, 11, 34
5, 368880, Control_c, 5, 11, 34
5, 368880, Control_c, 5, 11, 34
5, 368880, Control_c, 5, 11, 34
5, 368880, Control_c, 5, 11, 34
5, 368960, Control_c, 5, 11, 35
5, 368960, Control_c, 5, 11, 35
5, 368960, Control_c, 5, 11, 35
5, 368960, Control_c, 5, 11, 35
5, 368960, Control_c, 5, 11, 35
5, 369040, Control_c, 5, 11, 36
5, 369040, Control_c, 5, 11, 36
5, 369040, Control_c, 5, 11, 36
5, 369040, Control_c, 5, 11, 36
5, 369040, Control_c, 5, 11, 36
5, 369120, Control_c, 5, 11, 37
5, 369120, Control_c, 5, 11, 37
5, 369120, Control_c, 5, 11, 37
5, 369120, Control_c, 5, 11, 37
5, 369120, Control_c, 5, 11, 37
5, 369200, Control_c, 5, 11, 38
5, 369200, Control_c, 5, 11, 38
5, 369200, Control_c, 5, 11, 38
5, 369200, Control_c, 5, 11, 38
5, 369200, Control_c, 5, 11, 38
5, 369280, Control_c, 5, 11, 39
5, 369280, Control_c, 5, 11, 39
5, 369280, Control_c, 5, 11, 39
5, 369280, Control_c, 5, 11, 39
5, 369280, Control_c, 5, 11, 39
5, 369360, Control_c, 5, 11, 40
5, 369360, Control_c, 5, 11, 40
5, 369360, Control_c, 5, 11, 40
5, 369360, Control_c, 5, 11, 40
5, 369360, Control_c, 5, 11, 40
5, 369440, Control_c, 5, 11, 41
5, 369440, Control_c, 5, 11, 41
5, 369440, Control_c, 5, 11, 41
5, 369440, Control_c, 5, 11, 41
5, 369440, Control_c, 5, 11, 41
5, 369520, Control_c, 5, 11, 42
5, 369520, Control_c, 5, 11, 42
5, 369520, Control_c, 5, 11, 42
5, 369520, Control_c, 5, 11, 42
5, 369520, Control_c, 5, 11, 42
5, 369600, Control_c, 5, 11, 43
5, 369600, Control_c, 5, 11, 43
5, 369600, Control_c, 5, 11, 43
5, 369600, Control_c, 5, 11, 43
5, 369600, Control_c, 5, 11, 43
5, 369680, Control_c, 5, 11, 44
5, 369680, Control_c, 5, 11, 44
5, 369680, Control_c, 5, 11, 44
5, 369680, Control_c, 5, 11, 44
5, 369680, Control_c, 5, 11, 44
5, 369760, Control_c, 5, 11, 45
5, 369760, Control_c, 5, 11, 45
5, 369760, Control_c, 5, 11, 45
5, 369760, Control_c, 5, 11, 45
5, 369760, Control_c, 5, 11, 45
5, 369840, Control_c, 5, 11, 46
5, 369840, Control_c, 5, 11, 46
5, 369840, Control_c, 5, 11, 46
5, 369840, Control_c, 5, 11, 46
5, 369840, Control_c, 5, 11, 46
5, 369920, Control_c, 5, 11, 47
5, 369920, Control_c, 5, 11, 47
5, 369920, Control_c, 5, 11, 47
5, 369920, Control_c, 5, 11, 47
5, 369920, Control_c, 5, 11, 47
5, 370000, Control_c, 5, 11, 48
5, 370000, Control_c, 5, 11, 48
5, 370000, Control_c, 5, 11, 48
5, 370000, Control_c, 5, 11, 48
5, 370000, Control_c, 5, 11, 48
5, 370080, Control_c, 5, 11, 49
5, 370080, Control_c, 5, 11, 49
5, 370080, Control_c, 5, 11, 49
5, 370080, Control_c, 5, 11, 49
5, 370080, Control_c, 5, 11, 49
5, 370160, Control_c, 5, 11, 50
5, 370160, Control_c, 5, 11, 50
5, 370160, Control_c, 5, 11, 50
5, 370160, Control_c, 5, 11, 50
5, 370160, Control_c, 5, 11, 50
5, 370240, Control_c, 5, 11, 51
5, 370240, Control_c, 5, 11, 51
5, 370240, Control_c, 5, 11, 51
5, 370240, Control_c, 5, 11, 51
5, 370240, Control_c, 5, 11, 51
5, 370320, Control_c, 5, 11, 52
5, 370320, Control_c, 5, 11, 52
5, 370320, Control_c, 5, 11, 52
5, 370320, Control_c, 5, 11, 52
5, 370320, Control_c, 5, 11, 52
5, 370400, Control_c, 5, 11, 53
5, 370400, Control_c, 5, 11, 53
5, 370400, Control_c, 5, 11, 53
5, 370400, Control_c, 5, 11, 53
5, 370400, Control_c, 5, 11, 53
5, 370480, Control_c, 5, 11, 54
5, 370480, Control_c, 5, 11, 54
5, 370480, Control_c, 5, 11, 54
5, 370480, Control_c, 5, 11, 54
5, 370480, Control_c, 5, 11, 54
5, 370560, Control_c, 5, 11, 55
5, 370560, Control_c, 5, 11, 55
5, 370560, Control_c, 5, 11, 55
5, 370560, Control_c, 5, 11, 55
5, 370560, Control_c, 5, 11, 55
5, 370640, Control_c, 5, 11, 56
5, 370640, Control_c, 5, 11, 56
5, 370640, Control_c, 5, 11, 56
5, 370640, Control_c, 5, 11, 56
5, 370640, Control_c, 5, 11, 56
5, 370720, Control_c, 5, 11, 57
5, 370720, Control_c, 5, 11, 57
5, 370720, Control_c, 5, 11, 57
5, 370720, Control_c, 5, 11, 57
5, 370720, Control_c, 5, 11, 57
5, 370800, Control_c, 5, 11, 58
5, 370800, Control_c, 5, 11, 58
5, 370800, Control_c, 5, 11, 58
5, 370800, Control_c, 5, 11, 58
5, 370800, Control_c, 5, 11, 58
5, 370880, Control_c, 5, 11, 59
5, 370880, Control_c, 5, 11, 59
5, 370880, Control_c, 5, 11, 59
5, 370880, Control_c, 5, 11, 59
5, 370880, Control_c, 5, 11, 59
5, 370960, Control_c, 5, 11, 60
5, 370960, Control_c, 5, 11, 60
5, 370960, Control_c, 5, 11, 60
5, 370960, Control_c, 5, 11, 60
5, 370960, Control_c, 5, 11, 60
5, 371040, Control_c, 5, 11, 61
5, 371040, Control_c, 5, 11, 61
5, 371040, Control_c, 5, 11, 61
5, 371040, Control_c, 5, 11, 61
5, 371040, Control_c, 5, 11, 61
5, 371120, Control_c, 5, 11, 62
5, 371120, Control_c, 5, 11, 62
5, 371120, Control_c, 5, 11, 62
5, 371120, Control_c, 5, 11, 62
5, 371120, Control_c, 5, 11, 62
5, 371200, Control_c, 5, 11, 63
5, 371200, Control_c, 5, 11, 63
5, 371200, Control_c, 5, 11, 63
5, 371200, Control_c, 5, 11, 63
5, 371200, Control_c, 5, 11, 63
5, 371280, Control_c, 5, 11, 64
5, 371280, Control_c, 5, 11, 64
5, 371280, Control_c, 5, 11, 64
5, 371280, Control_c, 5, 11, 64
5, 371280, Control_c, 5, 11, 64
5, 371360, Control_c, 5, 11, 65
5, 371360, Control_c, 5, 11, 65
5, 371360, Control_c, 5, 11, 65
5, 371360, Control_c, 5, 11, 65
5, 371360, Control_c, 5, 11, 65
5, 371440, Control_c, 5, 11, 66
5, 371440, Control_c, 5, 11, 66
5, 371440, Control_c, 5, 11, 66
5, 371440, Control_c, 5, 11, 66
5, 371440, Control_c, 5, 11, 66
5, 371520, Control_c, 5, 11, 67
5, 371520, Control_c, 5, 11, 67
5, 371520, Control_c, 5, 11, 67
5, 371520, Control_c, 5, 11, 67
5, 371520, Control_c, 5, 11, 67
5, 371600, Control_c, 5, 11, 68
5, 371600, Control_c, 5, 11, 68
5, 371600, Control_c, 5, 11, 68
5, 371600, Control_c, 5, 11, 68
5, 371600, Control_c, 5, 11, 68
5, 371680, Control_c, 5, 11, 69
5, 371680, Control_c, 5, 11, 69
5, 371680, Control_c, 5, 11, 69
5, 371680, Control_c, 5, 11, 69
5, 371680, Control_c, 5, 11, 69
5, 371760, Control_c, 5, 11, 70
5, 371760, Control_c, 5, 11, 70
5, 371760, Control_c, 5, 11, 70
5, 371760, Control_c, 5, 11, 70
5, 371760, Control_c, 5, 11, 70
5, 371840, Control_c, 5, 11, 71
5, 371840, Control_c, 5, 11, 71
5, 371840, Control_c, 5, 11, 71
5, 371840, Control_c, 5, 11, 71
5, 371840, Control_c, 5, 11, 71
5, 371920, Control_c, 5, 11, 72
5, 371920, Control_c, 5, 11, 72
5, 371920, Control_c, 5, 11, 72
5, 371920, Control_c, 5, 11, 72
5, 371920, Control_c, 5, 11, 72
5, 372000, Control_c, 5, 11, 73
5, 372000, Control_c, 5, 11, 73
5, 372000, Control_c, 5, 11, 73
5, 372000, Control_c, 5, 11, 73
5, 372000, Control_c, 5, 11, 73
5, 372080, Control_c, 5, 11, 74
5, 372080, Control_c, 5, 11, 74
5, 372080, Control_c, 5, 11, 74
5, 372080, Control_c, 5, 11, 74
5, 372080, Control_c, 5, 11, 74
5, 372160, Control_c, 5, 11, 75
5, 372160, Control_c, 5, 11, 75
5, 372160, Control_c, 5, 11, 75
5, 372160, Control_c, 5, 11, 75
5, 372160, Control_c, 5, 11, 75
5, 372240, Control_c, 5, 11, 76
5, 372240, Control_c, 5, 11, 76
5, 372240, Control_c, 5, 11, 76
5, 372240, Control_c, 5, 11, 76
5, 372240, Control_c, 5, 11, 76
5, 372320, Control_c, 5, 11, 77
5, 372320, Control_c, 5, 11, 77
5, 372320, Control_c, 5, 11, 77
5, 372320, Control_c, 5, 11, 77
5, 372320, Control_c, 5, 11, 77
5, 372400, Control_c, 5, 11, 78
5, 372400, Control_c, 5, 11, 78
5, 372400, Control_c, 5, 11, 78
5, 372400, Control_c, 5, 11, 78
5, 372400, Control_c, 5, 11, 78
5, 372480, Control_c, 5, 11, 79
5, 372480, Control_c, 5, 11, 79
5, 372480, Control_c, 5, 11, 79
5, 372480, Control_c, 5, 11, 79
5, 372480, Control_c, 5, 11, 79
5, 372560, Control_c, 5, 11, 80
5, 372560, Control_c, 5, 11, 80
5, 372560, Control_c, 5, 11, 80
5, 372560, Control_c, 5, 11, 80
5, 372560, Control_c, 5, 11, 80
5, 372640, Control_c, 5, 11, 81
5, 372640, Control_c, 5, 11, 81
5, 372640, Control_c, 5, 11, 81
5, 372640, Control_c, 5, 11, 81
5, 372640, Control_c, 5, 11, 81
5, 372720, Control_c, 5, 11, 82
5, 372720, Control_c, 5, 11, 82
5, 372720, Control_c, 5, 11, 82
5, 372720, Control_c, 5, 11, 82
5, 372720, Control_c, 5, 11, 82
5, 372800, Control_c, 5, 11, 83
5, 372800, Control_c, 5, 11, 83
5, 372800, Control_c, 5, 11, 83
5, 372800, Control_c, 5, 11, 83
5, 372800, Control_c, 5, 11, 83
5, 372880, Control_c, 5, 11, 84
5, 372880, Control_c, 5, 11, 84
5, 372880, Control_c, 5, 11, 84
5, 372880, Control_c, 5, 11, 84
5, 372880, Control_c, 5, 11, 84
5, 372960, Control_c, 5, 11, 85
5, 372960, Control_c, 5, 11, 85
5, 372960, Control_c, 5, 11, 85
5, 372960, Control_c, 5, 11, 85
5, 372960, Control_c, 5, 11, 85
5, 373040, Control_c, 5, 11, 86
5, 373040, Control_c, 5, 11, 86
5, 373040, Control_c, 5, 11, 86
5, 373040, Control_c, 5, 11, 86
5, 373040, Control_c, 5, 11, 86
5, 373120, Control_c, 5, 11, 87
5, 373120, Control_c, 5, 11, 87
5, 373120, Control_c, 5, 11, 87
5, 373120, Control_c, 5, 11, 87
5, 373120, Control_c, 5, 11, 87
5, 373200, Control_c, 5, 11, 88
5, 373200, Control_c, 5, 11, 88
5, 373200, Control_c, 5, 11, 88
5, 373200, Control_c, 5, 11, 88
5, 373200, Control_c, 5, 11, 88
5, 373280, Control_c, 5, 11, 89
5, 373280, Control_c, 5, 11, 89
5, 373280, Control_c, 5, 11, 89
5, 373280, Control_c, 5, 11, 89
5, 373280, Control_c, 5, 11, 89
5, 373360, Control_c, 5, 11, 90
5, 373360, Control_c, 5, 11, 90
5, 373360, Control_c, 5, 11, 90
5, 373360, Control_c, 5, 11, 90
5, 373360, Control_c, 5, 11, 90
5, 373440, Control_c, 5, 11, 91
5, 373440, Control_c, 5, 11, 91
5, 373440, Control_c, 5, 11, 91
5, 373440, Control_c, 5, 11, 91
5, 373440, Control_c, 5, 11, 91
5, 373520, Control_c, 5, 11, 92
5, 373520, Control_c, 5, 11, 92
5, 373520, Control_c, 5, 11, 92
5, 373520, Control_c, 5, 11, 92
5, 373520, Control_c, 5, 11, 92
5, 373600, Control_c, 5, 11, 93
5, 373600, Control_c, 5, 11, 93
5, 373600, Control_c, 5, 11, 93
5, 373600, Control_c, 5, 11, 93
5, 373600, Control_c, 5, 11, 93
5, 373680, Control_c, 5, 11, 94
5, 373680, Control_c, 5, 11, 94
5, 373680, Control_c, 5, 11, 94
5, 373680, Control_c, 5, 11, 94
5, 373680, Control_c, 5, 11, 94
5, 373760, Control_c, 5, 11, 95
5, 373760, Control_c, 5, 11, 95
5, 373760, Control_c, 5, 11, 95
5, 373760, Control_c, 5, 11, 95
5, 373760, Control_c, 5, 11, 95
5, 373840, Control_c, 5, 11, 96
5, 373840, Control_c, 5, 11, 96
5, 373840, Control_c, 5, 11, 96
5, 373840, Control_c, 5, 11, 96
5, 373840, Control_c, 5, 11, 96
5, 373920, Control_c, 5, 11, 97
5, 373920, Control_c, 5, 11, 97
5, 373920, Control_c, 5, 11, 97
5, 373920, Control_c, 5, 11, 97
5, 373920, Control_c, 5, 11, 97
5, 374000, Control_c, 5, 11, 98
5, 374000, Control_c, 5, 11, 98
5, 374000, Control_c, 5, 11, 98
5, 374000, Control_c, 5, 11, 98
5, 374000, Control_c, 5, 11, 98
5, 374080, Control_c, 5, 11, 99
5, 374080, Control_c, 5, 11, 99
5, 374080, Control_c, 5, 11, 99
5, 374080, Control_c, 5, 11, 99
5, 374080, Control_c, 5, 11, 99
5, 374160, Control_c, 5, 11, 100
5, 374160, Control_c, 5, 11, 100
5, 374160, Control_c, 5, 11, 100
5, 374160, Control_c, 5, 11, 100
5, 374160, Control_c, 5, 11, 100
5, 374240, Control_c, 5, 11, 101
5, 374240, Control_c, 5, 11, 101
5, 374240, Control_c, 5, 11, 101
5, 374240, Control_c, 5, 11, 101
5, 374240, Control_c, 5, 11, 101
5, 374320, Control_c, 5, 11, 102
5, 374320, Control_c, 5, 11, 102
5, 374320, Control_c, 5, 11, 102
5, 374320, Control_c, 5, 11, 102
5, 374320, Control_c, 5, 11, 102
5, 374400, Control_c, 5, 11, 103
5, 374400, Control_c, 5, 11, 103
5, 374400, Control_c, 5, 11, 103
5, 374400, Control_c, 5, 11, 103
5, 374400, Control_c, 5, 11, 103
5, 374480, Control_c, 5, 11, 104
5, 374480, Control_c, 5, 11, 104
5, 374480, Control_c, 5, 11, 104
5, 374480, Control_c, 5, 11, 104
5, 374480, Control_c, 5, 11, 104
5, 374560, Control_c, 5, 11, 105
5, 374560, Control_c, 5, 11, 105
5, 374560, Control_c, 5, 11, 105
5, 374560, Control_c, 5, 11, 105
5, 374560, Control_c, 5, 11, 105
5, 374640, Control_c, 5, 11, 106
5, 374640, Control_c, 5, 11, 106
5, 374640, Control_c, 5, 11, 106
5, 374640, Control_c, 5, 11, 106
5, 374640, Control_c, 5, 11, 106
5, 374720, Control_c, 5, 11, 107
5, 374720, Control_c, 5, 11, 107
5, 374720, Control_c, 5, 11, 107
5, 374720, Control_c, 5, 11, 107
5, 374720, Control_c, 5, 11, 107
5, 374800, Control_c, 5, 11, 108
5, 374800, Control_c, 5, 11, 108
5, 374800, Control_c, 5, 11, 108
5, 374800, Control_c, 5, 11, 108
5, 374800, Control_c, 5, 11, 108
5, 374880, Control_c, 5, 11, 109
5, 374880, Control_c, 5, 11, 109
5, 374880, Control_c, 5, 11, 109
5, 374880, Control_c, 5, 11, 109
5, 374880, Control_c, 5, 11, 109
5, 374960, Control_c, 5, 11, 110
5, 374960, Control_c, 5, 11, 110
5, 374960, Control_c, 5, 11, 110
5, 374960, Control_c, 5, 11, 110
5, 374960, Control_c, 5, 11, 110
5, 375040, Control_c, 5, 11, 111
5, 375040, Control_c, 5, 11, 111
5, 375040, Control_c, 5, 11, 111
5, 375040, Control_c, 5, 11, 111
5, 375040, Control_c, 5, 11, 111
5, 375120, Control_c, 5, 11, 112
5, 375120, Control_c, 5, 11, 112
5, 375120, Control_c, 5, 11, 112
5, 375120, Control_c, 5, 11, 112
5, 375120, Control_c, 5, 11, 112
5, 375200, Control_c, 5, 11, 113
5, 375200, Control_c, 5, 11, 113
5, 375200, Control_c, 5, 11, 113
5, 375200, Control_c, 5, 11, 113
5, 375200, Control_c, 5, 11, 113
5, 375280, Control_c, 5, 11, 114
5, 375280, Control_c, 5, 11, 114
5, 375280, Control_c, 5, 11, 114
5, 375280, Control_c, 5, 11, 114
5, 375280, Control_c, 5, 11, 114
5, 375360, Control_c, 5, 11, 115
5, 375360, Control_c, 5, 11, 115
5, 375360, Control_c, 5, 11, 115
5, 375360, Control_c, 5, 11, 115
5, 375360, Control_c, 5, 11, 115
5, 375440, Control_c, 5, 11, 116
5, 375440, Control_c, 5, 11, 116
5, 375440, Control_c, 5, 11, 116
5, 375440, Control_c, 5, 11, 116
5, 375440, Control_c, 5, 11, 116
5, 375520, Control_c, 5, 11, 117
5, 375520, Control_c, 5, 11, 117
5, 375520, Control_c, 5, 11, 117
5, 375520, Control_c, 5, 11, 117
5, 375520, Control_c, 5, 11, 117
5, 375600, Control_c, 5, 11, 118
5, 375600, Control_c, 5, 11, 118
5, 375600, Control_c, 5, 11, 118
5, 375600, Control_c, 5, 11, 118
5, 375600, Control_c, 5, 11, 118
5, 375680, Control_c, 5, 11, 119
5, 375680, Control_c, 5, 11, 119
5, 375680, Control_c, 5, 11, 119
5, 375680, Control_c, 5, 11, 119
5, 375680, Control_c, 5, 11, 119
5, 375760, Control_c, 5, 11, 120
5, 375760, Control_c, 5, 11, 120
5, 375760, Control_c, 5, 11, 120
5, 375760, Control_c, 5, 11, 120
5, 375760, Control_c, 5, 11, 120
5, 375840, Control_c, 5, 11, 121
5, 375840, Control_c, 5, 11, 121
5, 375840, Control_c, 5, 11, 121
5, 375840, Control_c, 5, 11, 121
5, 375840, Control_c, 5, 11, 121
5, 375920, Control_c, 5, 11, 122
5, 375920, Control_c, 5, 11, 122
5, 375920, Control_c, 5, 11, 122
5, 375920, Control_c, 5, 11, 122
5, 375920, Control_c, 5, 11, 122
5, 376000, Control_c, 5, 11, 123
5, 376000, Control_c, 5, 11, 123
5, 376000, Control_c, 5, 11, 123
5, 376000, Control_c, 5, 11, 123
5, 376000, Control_c, 5, 11, 123
5, 376080, Control_c, 5, 11, 124
5, 376080, Control_c, 5, 11, 124
5, 376080, Control_c, 5, 11, 124
5, 376080, Control_c, 5, 11, 124
5, 376080, Control_c, 5, 11, 124
5, 376160, Control_c, 5, 11, 125
5, 376160, Control_c, 5, 11, 125
5, 376160, Control_c, 5, 11, 125
5, 376160, Control_c, 5, 11, 125
5, 376160, Control_c, 5, 11, 125
5, 376240, Control_c, 5, 11, 126
5, 376240, Control_c, 5, 11, 126
5, 376240, Control_c, 5, 11, 126
5, 376240, Control_c, 5, 11, 126
5, 376240, Control_c, 5, 11, 126
5, 376320, Control_c, 5, 11, 127
5, 376320, Note_off_c, 5, 69, 95
5, 376320, Control_c, 5, 11, 127
5, 376320, Note_off_c, 5, 64, 95
5, 376320, Control_c, 5, 11, 127
5, 376320, Note_off_c, 5, 57, 95
5, 376320, Control_c, 5, 11, 127
5, 376320, Note_off_c, 5, 52, 95
5, 376320, Control_c, 5, 11, 127
5, 376320, Note_off_c, 5, 45, 95
5, 376320, End_track
0, 0, End_of_file
