0, 0, Header, 1, 7, 384
1, 0, Start_track
1, 0, Tempo, 483870
1, 0, Time_signature, 4, 2, 24, 8
1, 167420, End_track
2, 0, Start_track
2, 0, Title_t, "vocals"
2, 0, Control_c, 5, 7, 127
2, 15574, Note_on_c, 5, 69, 100
2, 15734, Note_on_c, 5, 72, 100
2, 15766, Note_off_c, 5, 69, 100
2, 16118, Note_off_c, 5, 72, 100
2, 16121, Note_on_c, 5, 69, 100
2, 16313, Note_off_c, 5, 69, 100
2, 16313, Note_on_c, 5, 67, 100
2, 16502, Note_on_c, 5, 69, 100
2, 16505, Note_off_c, 5, 67, 100
2, 16886, Note_off_c, 5, 69, 100
2, 16896, Note_on_c, 5, 69, 100
2, 17078, Note_on_c, 5, 67, 100
2, 17088, Note_off_c, 5, 69, 100
2, 17270, Note_off_c, 5, 67, 100
2, 17270, Note_on_c, 5, 69, 100
2, 17462, Note_off_c, 5, 69, 100
2, 17472, Note_on_c, 5, 69, 100
2, 18048, Note_off_c, 5, 69, 100
2, 18614, Note_on_c, 5, 72, 100
2, 18806, Note_off_c, 5, 72, 100
2, 18806, Note_on_c, 5, 69, 100
2, 18998, Note_off_c, 5, 69, 100
2, 19008, Note_on_c, 5, 67, 100
2, 19200, Note_off_c, 5, 67, 100
2, 19206, Note_on_c, 5, 69, 100
2, 19382, Note_on_c, 5, 67, 100
2, 19398, Note_off_c, 5, 69, 100
2, 19574, Note_off_c, 5, 67, 100
2, 19574, Note_on_c, 5, 69, 100
2, 19766, Note_off_c, 5, 69, 100
2, 19769, Note_on_c, 5, 67, 100
2, 19961, Note_off_c, 5, 67, 100
2, 20160, Note_on_c, 5, 69, 100
2, 20320, Note_on_c, 5, 67, 100
2, 20352, Note_off_c, 5, 69, 100
2, 20512, Note_off_c, 5, 67, 100
2, 20544, Note_on_c, 5, 69, 100
2, 21120, Note_off_c, 5, 69, 100
2, 21673, Note_on_c, 5, 69, 100
2, 21865, Note_off_c, 5, 69, 100
2, 21881, Note_on_c, 5, 69, 100
2, 22265, Note_off_c, 5, 69, 100
2, 22288, Note_on_c, 5, 69, 100
2, 22640, Note_on_c, 5, 69, 100
2, 22672, Note_off_c, 5, 69, 100
2, 22832, Note_off_c, 5, 69, 100
2, 22841, Note_on_c, 5, 67, 100
2, 23033, Note_off_c, 5, 67, 100
2, 23081, Note_on_c, 5, 69, 100
2, 23241, Note_on_c, 5, 69, 100
2, 23273, Note_off_c, 5, 69, 100
2, 23616, Note_on_c, 5, 69, 100
2, 23625, Note_off_c, 5, 69, 100
2, 24192, Note_off_c, 5, 69, 100
2, 24969, Note_on_c, 5, 76, 100
2, 25318, Note_on_c, 5, 76, 100
2, 25353, Note_off_c, 5, 76, 100
2, 25510, Note_off_c, 5, 76, 100
2, 25536, Note_on_c, 5, 69, 100
2, 25718, Note_on_c, 5, 69, 100
2, 25728, Note_off_c, 5, 69, 100
2, 25910, Note_off_c, 5, 69, 100
2, 25920, Note_on_c, 5, 67, 100
2, 26112, Note_off_c, 5, 67, 100
2, 26112, Note_on_c, 5, 69, 100
2, 26304, Note_off_c, 5, 69, 100
2, 26313, Note_on_c, 5, 69, 100
2, 26678, Note_on_c, 5, 69, 100
2, 26697, Note_off_c, 5, 69, 100
2, 27254, Note_off_c, 5, 69, 100
2, 28416, Note_on_c, 5, 72, 64
2, 28598, Note_on_c, 5, 72, 64
2, 28608, Note_off_c, 5, 72, 64
2, 28790, Note_off_c, 5, 72, 64
2, 28800, Note_on_c, 5, 72, 64
2, 28992, Note_off_c, 5, 72, 64
2, 28992, Note_on_c, 5, 72, 64
2, 29184, Note_off_c, 5, 72, 64
2, 29974, Note_on_c, 5, 71, 64
2, 30137, Note_on_c, 5, 71, 64
2, 30166, Note_off_c, 5, 71, 64
2, 30329, Note_off_c, 5, 71, 64
2, 30329, Note_on_c, 5, 71, 64
2, 30713, Note_off_c, 5, 71, 64
2, 30944, Note_on_c, 5, 69, 64
2, 31088, Note_on_c, 5, 69, 64
2, 31136, Note_off_c, 5, 69, 64
2, 31280, Note_off_c, 5, 69, 64
2, 31296, Note_on_c, 5, 64, 64
2, 31488, Note_off_c, 5, 64, 64
2, 31488, Note_on_c, 5, 72, 64
2, 31865, Note_on_c, 5, 69, 64
2, 31872, Note_off_c, 5, 72, 64
2, 32057, Note_off_c, 5, 69, 64
2, 32064, Note_on_c, 5, 64, 64
2, 32256, Note_off_c, 5, 64, 64
2, 32297, Note_on_c, 5, 69, 64
2, 32425, Note_on_c, 5, 64, 64
2, 32489, Note_off_c, 5, 69, 64
2, 32617, Note_off_c, 5, 64, 64
2, 32617, Note_on_c, 5, 72, 64
2, 33001, Note_off_c, 5, 72, 64
2, 33033, Note_on_c, 5, 69, 64
2, 33366, Note_on_c, 5, 69, 64
2, 33417, Note_off_c, 5, 69, 64
2, 33558, Note_off_c, 5, 69, 64
2, 33577, Note_on_c, 5, 67, 64
2, 33769, Note_off_c, 5, 67, 64
2, 34169, Note_on_c, 5, 72, 64
2, 34361, Note_off_c, 5, 72, 64
2, 34361, Note_on_c, 5, 72, 64
2, 34745, Note_off_c, 5, 72, 64
2, 34745, Note_on_c, 5, 72, 64
2, 35129, Note_off_c, 5, 72, 64
2, 35136, Note_on_c, 5, 71, 64
2, 35689, Note_on_c, 5, 71, 64
2, 35712, Note_off_c, 5, 71, 64
2, 35881, Note_off_c, 5, 71, 64
2, 35904, Note_on_c, 5, 71, 64
2, 36086, Note_on_c, 5, 71, 64
2, 36096, Note_off_c, 5, 71, 64
2, 36342, Note_off_c, 5, 71, 64
2, 36342, Note_on_c, 5, 71, 64
2, 36598, Note_off_c, 5, 71, 64
2, 36598, Note_on_c, 5, 71, 64
2, 36854, Note_off_c, 5, 71, 64
2, 36864, Note_on_c, 5, 72, 64
2, 38016, Note_off_c, 5, 72, 64
2, 38400, Note_on_c, 5, 76, 64
2, 39168, Note_off_c, 5, 76, 64
2, 39168, Note_on_c, 5, 72, 64
2, 39936, Note_off_c, 5, 72, 64
2, 39936, Note_on_c, 5, 65, 64
2, 40320, Note_off_c, 5, 65, 64
2, 40704, Note_on_c, 5, 72, 64
2, 40886, Note_on_c, 5, 72, 64
2, 40896, Note_off_c, 5, 72, 64
2, 41065, Note_on_c, 5, 72, 64
2, 41078, Note_off_c, 5, 72, 64
2, 41248, Note_on_c, 5, 72, 64
2, 41257, Note_off_c, 5, 72, 64
2, 41440, Note_off_c, 5, 72, 64
2, 41472, Note_on_c, 5, 71, 64
2, 41654, Note_on_c, 5, 71, 64
2, 41664, Note_off_c, 5, 71, 64
2, 41833, Note_on_c, 5, 71, 64
2, 41846, Note_off_c, 5, 71, 64
2, 42217, Note_off_c, 5, 71, 64
2, 43216, Note_on_c, 5, 69, 64
2, 43369, Note_on_c, 5, 69, 64
2, 43408, Note_off_c, 5, 69, 64
2, 43561, Note_off_c, 5, 69, 64
2, 43577, Note_on_c, 5, 64, 64
2, 43769, Note_off_c, 5, 64, 64
2, 43776, Note_on_c, 5, 72, 64
2, 44137, Note_on_c, 5, 69, 64
2, 44160, Note_off_c, 5, 72, 64
2, 44329, Note_off_c, 5, 69, 64
2, 44352, Note_on_c, 5, 64, 64
2, 44544, Note_off_c, 5, 64, 64
2, 44544, Note_on_c, 5, 69, 64
2, 44736, Note_off_c, 5, 69, 64
2, 44745, Note_on_c, 5, 64, 64
2, 44918, Note_on_c, 5, 72, 64
2, 44937, Note_off_c, 5, 64, 64
2, 45302, Note_off_c, 5, 72, 64
2, 45302, Note_on_c, 5, 69, 64
2, 45673, Note_on_c, 5, 69, 64
2, 45686, Note_off_c, 5, 69, 64
2, 45865, Note_off_c, 5, 69, 64
2, 45878, Note_on_c, 5, 67, 64
2, 46070, Note_off_c, 5, 67, 64
2, 46464, Note_on_c, 5, 72, 100
2, 46656, Note_off_c, 5, 72, 100
2, 46656, Note_on_c, 5, 72, 100
2, 47040, Note_off_c, 5, 72, 100
2, 47040, Note_on_c, 5, 72, 100
2, 47424, Note_off_c, 5, 72, 100
2, 47424, Note_on_c, 5, 71, 100
2, 48000, Note_off_c, 5, 71, 100
2, 48000, Note_on_c, 5, 71, 100
2, 48192, Note_off_c, 5, 71, 100
2, 48192, Note_on_c, 5, 71, 100
2, 48384, Note_off_c, 5, 71, 100
2, 48384, Note_on_c, 5, 71, 100
2, 48640, Note_off_c, 5, 71, 100
2, 48640, Note_on_c, 5, 71, 100
2, 48896, Note_off_c, 5, 71, 100
2, 48896, Note_on_c, 5, 71, 100
2, 49152, Note_off_c, 5, 71, 100
2, 49152, Note_on_c, 5, 72, 100
2, 50304, Note_off_c, 5, 72, 100
2, 51081, Note_on_c, 5, 72, 100
2, 51449, Note_on_c, 5, 76, 100
2, 51465, Note_off_c, 5, 72, 100
2, 51830, Note_on_c, 5, 79, 100
2, 51833, Note_off_c, 5, 76, 100
2, 52214, Note_off_c, 5, 79, 100
2, 52224, Note_on_c, 5, 81, 100
2, 53760, Note_off_c, 5, 81, 100
2, 53760, Note_on_c, 5, 83, 100
2, 54016, Note_off_c, 5, 83, 100
2, 54016, Note_on_c, 5, 83, 100
2, 54272, Note_off_c, 5, 83, 100
2, 54281, Note_on_c, 5, 83, 100
2, 54528, Note_on_c, 5, 83, 100
2, 54537, Note_off_c, 5, 83, 100
2, 54905, Note_on_c, 5, 83, 100
2, 54912, Note_off_c, 5, 83, 100
2, 55289, Note_off_c, 5, 83, 100
2, 55296, Note_on_c, 5, 81, 100
2, 56832, Note_off_c, 5, 81, 100
2, 61654, Note_on_c, 5, 69, 100
2, 61814, Note_on_c, 5, 72, 100
2, 61846, Note_off_c, 5, 69, 100
2, 62198, Note_off_c, 5, 72, 100
2, 62201, Note_on_c, 5, 69, 100
2, 62393, Note_off_c, 5, 69, 100
2, 62393, Note_on_c, 5, 67, 100
2, 62582, Note_on_c, 5, 69, 100
2, 62585, Note_off_c, 5, 67, 100
2, 62966, Note_off_c, 5, 69, 100
2, 62976, Note_on_c, 5, 69, 100
2, 63158, Note_on_c, 5, 67, 100
2, 63168, Note_off_c, 5, 69, 100
2, 63350, Note_off_c, 5, 67, 100
2, 63350, Note_on_c, 5, 69, 100
2, 63542, Note_off_c, 5, 69, 100
2, 63552, Note_on_c, 5, 69, 100
2, 64128, Note_off_c, 5, 69, 100
2, 64694, Note_on_c, 5, 72, 100
2, 64886, Note_off_c, 5, 72, 100
2, 64886, Note_on_c, 5, 69, 100
2, 65078, Note_off_c, 5, 69, 100
2, 65088, Note_on_c, 5, 67, 100
2, 65280, Note_off_c, 5, 67, 100
2, 65286, Note_on_c, 5, 69, 100
2, 65462, Note_on_c, 5, 67, 100
2, 65478, Note_off_c, 5, 69, 100
2, 65654, Note_off_c, 5, 67, 100
2, 65654, Note_on_c, 5, 69, 100
2, 65846, Note_off_c, 5, 69, 100
2, 65849, Note_on_c, 5, 67, 100
2, 66041, Note_off_c, 5, 67, 100
2, 66240, Note_on_c, 5, 69, 100
2, 66400, Note_on_c, 5, 67, 100
2, 66432, Note_off_c, 5, 69, 100
2, 66592, Note_off_c, 5, 67, 100
2, 66624, Note_on_c, 5, 69, 100
2, 67200, Note_off_c, 5, 69, 100
2, 67753, Note_on_c, 5, 69, 100
2, 67945, Note_off_c, 5, 69, 100
2, 67961, Note_on_c, 5, 69, 100
2, 68345, Note_off_c, 5, 69, 100
2, 68368, Note_on_c, 5, 69, 100
2, 68720, Note_on_c, 5, 69, 100
2, 68752, Note_off_c, 5, 69, 100
2, 68912, Note_off_c, 5, 69, 100
2, 68921, Note_on_c, 5, 67, 100
2, 69113, Note_off_c, 5, 67, 100
2, 69161, Note_on_c, 5, 69, 100
2, 69321, Note_on_c, 5, 69, 100
2, 69353, Note_off_c, 5, 69, 100
2, 69696, Note_on_c, 5, 69, 100
2, 69705, Note_off_c, 5, 69, 100
2, 70272, Note_off_c, 5, 69, 100
2, 71049, Note_on_c, 5, 76, 100
2, 71398, Note_on_c, 5, 76, 100
2, 71433, Note_off_c, 5, 76, 100
2, 71590, Note_off_c, 5, 76, 100
2, 71616, Note_on_c, 5, 69, 100
2, 71798, Note_on_c, 5, 69, 100
2, 71808, Note_off_c, 5, 69, 100
2, 71990, Note_off_c, 5, 69, 100
2, 72000, Note_on_c, 5, 67, 100
2, 72192, Note_off_c, 5, 67, 100
2, 72192, Note_on_c, 5, 69, 100
2, 72384, Note_off_c, 5, 69, 100
2, 72393, Note_on_c, 5, 69, 100
2, 72758, Note_on_c, 5, 69, 100
2, 72777, Note_off_c, 5, 69, 100
2, 73334, Note_off_c, 5, 69, 100
2, 74496, Note_on_c, 5, 72, 64
2, 74678, Note_on_c, 5, 72, 64
2, 74688, Note_off_c, 5, 72, 64
2, 74870, Note_off_c, 5, 72, 64
2, 74880, Note_on_c, 5, 72, 64
2, 75072, Note_off_c, 5, 72, 64
2, 75072, Note_on_c, 5, 72, 64
2, 75264, Note_off_c, 5, 72, 64
2, 76054, Note_on_c, 5, 71, 64
2, 76217, Note_on_c, 5, 71, 64
2, 76246, Note_off_c, 5, 71, 64
2, 76409, Note_off_c, 5, 71, 64
2, 76409, Note_on_c, 5, 71, 64
2, 76793, Note_off_c, 5, 71, 64
2, 77024, Note_on_c, 5, 69, 64
2, 77168, Note_on_c, 5, 69, 64
2, 77216, Note_off_c, 5, 69, 64
2, 77360, Note_off_c, 5, 69, 64
2, 77376, Note_on_c, 5, 64, 64
2, 77568, Note_off_c, 5, 64, 64
2, 77568, Note_on_c, 5, 72, 64
2, 77945, Note_on_c, 5, 69, 64
2, 77952, Note_off_c, 5, 72, 64
2, 78137, Note_off_c, 5, 69, 64
2, 78144, Note_on_c, 5, 64, 64
2, 78336, Note_off_c, 5, 64, 64
2, 78377, Note_on_c, 5, 69, 64
2, 78505, Note_on_c, 5, 64, 64
2, 78569, Note_off_c, 5, 69, 64
2, 78697, Note_off_c, 5, 64, 64
2, 78697, Note_on_c, 5, 72, 64
2, 79081, Note_off_c, 5, 72, 64
2, 79113, Note_on_c, 5, 69, 64
2, 79446, Note_on_c, 5, 69, 64
2, 79497, Note_off_c, 5, 69, 64
2, 79638, Note_off_c, 5, 69, 64
2, 79657, Note_on_c, 5, 67, 64
2, 79849, Note_off_c, 5, 67, 64
2, 80249, Note_on_c, 5, 72, 64
2, 80441, Note_off_c, 5, 72, 64
2, 80441, Note_on_c, 5, 72, 64
2, 80825, Note_off_c, 5, 72, 64
2, 80825, Note_on_c, 5, 72, 64
2, 81209, Note_off_c, 5, 72, 64
2, 81216, Note_on_c, 5, 71, 64
2, 81769, Note_on_c, 5, 71, 64
2, 81792, Note_off_c, 5, 71, 64
2, 81961, Note_off_c, 5, 71, 64
2, 81984, Note_on_c, 5, 71, 64
2, 82166, Note_on_c, 5, 71, 64
2, 82176, Note_off_c, 5, 71, 64
2, 82422, Note_off_c, 5, 71, 64
2, 82422, Note_on_c, 5, 71, 64
2, 82678, Note_off_c, 5, 71, 64
2, 82678, Note_on_c, 5, 71, 64
2, 82934, Note_off_c, 5, 71, 64
2, 82944, Note_on_c, 5, 72, 64
2, 84096, Note_off_c, 5, 72, 64
2, 84480, Note_on_c, 5, 76, 64
2, 85248, Note_off_c, 5, 76, 64
2, 85248, Note_on_c, 5, 72, 64
2, 86016, Note_off_c, 5, 72, 64
2, 86016, Note_on_c, 5, 65, 64
2, 86400, Note_off_c, 5, 65, 64
2, 86784, Note_on_c, 5, 72, 64
2, 86966, Note_on_c, 5, 72, 64
2, 86976, Note_off_c, 5, 72, 64
2, 87145, Note_on_c, 5, 72, 64
2, 87158, Note_off_c, 5, 72, 64
2, 87328, Note_on_c, 5, 72, 64
2, 87337, Note_off_c, 5, 72, 64
2, 87520, Note_off_c, 5, 72, 64
2, 87552, Note_on_c, 5, 71, 64
2, 87734, Note_on_c, 5, 71, 64
2, 87744, Note_off_c, 5, 71, 64
2, 87913, Note_on_c, 5, 71, 64
2, 87926, Note_off_c, 5, 71, 64
2, 88297, Note_off_c, 5, 71, 64
2, 89296, Note_on_c, 5, 69, 64
2, 89449, Note_on_c, 5, 69, 64
2, 89488, Note_off_c, 5, 69, 64
2, 89641, Note_off_c, 5, 69, 64
2, 89657, Note_on_c, 5, 64, 64
2, 89849, Note_off_c, 5, 64, 64
2, 89856, Note_on_c, 5, 72, 64
2, 90217, Note_on_c, 5, 69, 64
2, 90240, Note_off_c, 5, 72, 64
2, 90409, Note_off_c, 5, 69, 64
2, 90432, Note_on_c, 5, 64, 64
2, 90624, Note_off_c, 5, 64, 64
2, 90624, Note_on_c, 5, 69, 64
2, 90816, Note_off_c, 5, 69, 64
2, 90825, Note_on_c, 5, 64, 64
2, 90998, Note_on_c, 5, 72, 64
2, 91017, Note_off_c, 5, 64, 64
2, 91382, Note_off_c, 5, 72, 64
2, 91382, Note_on_c, 5, 69, 64
2, 91753, Note_on_c, 5, 69, 64
2, 91766, Note_off_c, 5, 69, 64
2, 91945, Note_off_c, 5, 69, 64
2, 91958, Note_on_c, 5, 67, 64
2, 92150, Note_off_c, 5, 67, 64
2, 92544, Note_on_c, 5, 72, 100
2, 92736, Note_off_c, 5, 72, 100
2, 92736, Note_on_c, 5, 72, 100
2, 93120, Note_off_c, 5, 72, 100
2, 93120, Note_on_c, 5, 72, 100
2, 93504, Note_off_c, 5, 72, 100
2, 93504, Note_on_c, 5, 71, 100
2, 94080, Note_off_c, 5, 71, 100
2, 94080, Note_on_c, 5, 71, 100
2, 94272, Note_off_c, 5, 71, 100
2, 94272, Note_on_c, 5, 71, 100
2, 94464, Note_off_c, 5, 71, 100
2, 94464, Note_on_c, 5, 71, 100
2, 94720, Note_off_c, 5, 71, 100
2, 94720, Note_on_c, 5, 71, 100
2, 94976, Note_off_c, 5, 71, 100
2, 94976, Note_on_c, 5, 71, 100
2, 95232, Note_off_c, 5, 71, 100
2, 95232, Note_on_c, 5, 72, 100
2, 96384, Note_off_c, 5, 72, 100
2, 97161, Note_on_c, 5, 72, 100
2, 97529, Note_on_c, 5, 76, 100
2, 97545, Note_off_c, 5, 72, 100
2, 97910, Note_on_c, 5, 79, 100
2, 97913, Note_off_c, 5, 76, 100
2, 98294, Note_off_c, 5, 79, 100
2, 98304, Note_on_c, 5, 81, 100
2, 99840, Note_off_c, 5, 81, 100
2, 99840, Note_on_c, 5, 83, 100
2, 100096, Note_off_c, 5, 83, 100
2, 100096, Note_on_c, 5, 83, 100
2, 100352, Note_off_c, 5, 83, 100
2, 100352, Note_on_c, 5, 83, 100
2, 100608, Note_off_c, 5, 83, 100
2, 100608, Note_on_c, 5, 83, 100
2, 100950, Note_on_c, 5, 83, 100
2, 100992, Note_off_c, 5, 83, 100
2, 101334, Note_off_c, 5, 83, 100
2, 101334, End_track
3, 0, Start_track
3, 0, Title_t, "organ bre"
3, 0, Control_c, 5, 7, 127
3, 101760, Note_on_c, 5, 78, 64
3, 102140, Note_off_c, 5, 78, 64
3, 102144, Note_on_c, 5, 78, 64
3, 102524, Note_off_c, 5, 78, 64
3, 102528, Note_on_c, 5, 78, 64
3, 102908, Note_off_c, 5, 78, 64
3, 102912, Note_on_c, 5, 78, 64
3, 103292, Note_off_c, 5, 78, 64
3, 103936, Note_on_c, 5, 76, 64
3, 104188, Note_off_c, 5, 76, 64
3, 104192, Note_on_c, 5, 78, 64
3, 104444, Note_off_c, 5, 78, 64
3, 104448, Note_on_c, 5, 79, 64
3, 104828, Note_off_c, 5, 79, 64
3, 107904, Note_on_c, 5, 78, 64
3, 108284, Note_off_c, 5, 78, 64
3, 108288, Note_on_c, 5, 78, 64
3, 108668, Note_off_c, 5, 78, 64
3, 108672, Note_on_c, 5, 78, 64
3, 109052, Note_off_c, 5, 78, 64
3, 109056, Note_on_c, 5, 78, 64
3, 109436, Note_off_c, 5, 78, 64
3, 110080, Note_on_c, 5, 76, 64
3, 110332, Note_off_c, 5, 76, 64
3, 110336, Note_on_c, 5, 78, 64
3, 110588, Note_off_c, 5, 78, 64
3, 110592, Note_on_c, 5, 79, 64
3, 110972, Note_off_c, 5, 79, 64
3, 114048, Note_on_c, 5, 73, 64
3, 114236, Note_off_c, 5, 73, 64
3, 114240, Note_on_c, 5, 72, 64
3, 114428, Note_off_c, 5, 72, 64
3, 114432, Note_on_c, 5, 73, 64
3, 114620, Note_off_c, 5, 73, 64
3, 114624, Note_on_c, 5, 69, 64
3, 114812, Note_off_c, 5, 69, 64
3, 115200, Note_on_c, 5, 69, 64
3, 115388, Note_off_c, 5, 69, 64
3, 115392, Note_on_c, 5, 69, 64
3, 115772, Note_off_c, 5, 69, 64
3, 115776, Note_on_c, 5, 69, 64
3, 115964, Note_off_c, 5, 69, 64
3, 115968, Note_on_c, 5, 69, 64
3, 116348, Note_off_c, 5, 69, 64
3, 117120, Note_on_c, 5, 74, 64
3, 117308, Note_off_c, 5, 74, 64
3, 117312, Note_on_c, 5, 74, 64
3, 117500, Note_off_c, 5, 74, 64
3, 117504, Note_on_c, 5, 74, 64
3, 117884, Note_off_c, 5, 74, 64
3, 118656, Note_on_c, 5, 74, 64
3, 118844, Note_off_c, 5, 74, 64
3, 118848, Note_on_c, 5, 74, 64
3, 119036, Note_off_c, 5, 74, 64
3, 119040, Note_on_c, 5, 74, 64
3, 119612, Note_off_c, 5, 74, 64
3, 119616, Note_on_c, 5, 74, 64
3, 119804, Note_off_c, 5, 74, 64
3, 119808, Note_on_c, 5, 76, 64
3, 121340, Note_off_c, 5, 76, 64
3, 121344, Note_on_c, 5, 76, 64
3, 122492, Note_off_c, 5, 76, 64
3, 123072, Note_on_c, 5, 76, 64
3, 123260, Note_off_c, 5, 76, 64
3, 123264, Note_on_c, 5, 76, 64
3, 123452, Note_off_c, 5, 76, 64
3, 123456, Note_on_c, 5, 76, 64
3, 123644, Note_off_c, 5, 76, 64
3, 123648, Note_on_c, 5, 76, 64
3, 123836, Note_off_c, 5, 76, 64
3, 123840, Note_on_c, 5, 76, 64
3, 124028, Note_off_c, 5, 76, 64
3, 124032, Note_on_c, 5, 76, 64
3, 124220, Note_off_c, 5, 76, 64
3, 124224, Note_on_c, 5, 76, 64
3, 124412, Note_off_c, 5, 76, 64
3, 124416, Note_on_c, 5, 76, 64
3, 124604, Note_off_c, 5, 76, 64
3, 124608, Note_on_c, 5, 76, 64
3, 124796, Note_off_c, 5, 76, 64
3, 124800, Note_on_c, 5, 76, 64
3, 124988, Note_off_c, 5, 76, 64
3, 124992, Note_on_c, 5, 76, 64
3, 125180, Note_off_c, 5, 76, 64
3, 125184, Note_on_c, 5, 76, 64
3, 125564, Note_off_c, 5, 76, 64
3, 126336, Note_on_c, 5, 76, 64
3, 126524, Note_off_c, 5, 76, 64
3, 126528, Note_on_c, 5, 76, 64
3, 126716, Note_off_c, 5, 76, 64
3, 126720, Note_on_c, 5, 76, 64
3, 127100, Note_off_c, 5, 76, 64
3, 127104, Note_on_c, 5, 76, 64
3, 127484, Note_off_c, 5, 76, 64
3, 127488, Note_on_c, 5, 76, 64
3, 127676, Note_off_c, 5, 76, 64
3, 127680, Note_on_c, 5, 76, 64
3, 128060, Note_off_c, 5, 76, 64
3, 128064, Note_on_c, 5, 76, 64
3, 128252, Note_off_c, 5, 76, 64
3, 128256, Note_on_c, 5, 76, 64
3, 129020, Note_off_c, 5, 76, 64
3, 129216, Note_on_c, 5, 76, 64
3, 129404, Note_off_c, 5, 76, 64
3, 129408, Note_on_c, 5, 76, 64
3, 129788, Note_off_c, 5, 76, 64
3, 129792, Note_on_c, 5, 76, 64
3, 129980, Note_off_c, 5, 76, 64
3, 129984, Note_on_c, 5, 76, 64
3, 130172, Note_off_c, 5, 76, 64
3, 130176, Note_on_c, 5, 76, 64
3, 130364, Note_off_c, 5, 76, 64
3, 130368, Note_on_c, 5, 76, 64
3, 130556, Note_off_c, 5, 76, 64
3, 130752, Note_on_c, 5, 76, 64
3, 131132, Note_off_c, 5, 76, 64
3, 131136, Note_on_c, 5, 76, 64
3, 131324, Note_off_c, 5, 76, 64
3, 131328, Note_on_c, 5, 76, 64
3, 132092, Note_off_c, 5, 76, 64
3, 132096, Note_on_c, 5, 83, 64
3, 132348, Note_off_c, 5, 83, 64
3, 132352, Note_on_c, 5, 83, 64
3, 132604, Note_off_c, 5, 83, 64
3, 132608, Note_on_c, 5, 83, 64
3, 132860, Note_off_c, 5, 83, 64
3, 132864, Note_on_c, 5, 83, 64
3, 133244, Note_off_c, 5, 83, 64
3, 133248, Note_on_c, 5, 83, 64
3, 133628, Note_off_c, 5, 83, 64
3, 133632, Note_on_c, 5, 81, 64
3, 135164, Note_off_c, 5, 81, 64
3, 135164, End_track
4, 0, Start_track
4, 0, Title_t, "piano"
4, 0, Control_c, 2, 7, 127
4, 9216, Note_on_c, 2, 69, 64
4, 9216, Note_on_c, 2, 64, 64
4, 9404, Note_off_c, 2, 64, 64
4, 9404, Note_off_c, 2, 69, 64
4, 9408, Note_on_c, 2, 69, 64
4, 9408, Note_on_c, 2, 64, 64
4, 9596, Note_off_c, 2, 64, 64
4, 9596, Note_off_c, 2, 69, 64
4, 9600, Note_on_c, 2, 64, 64
4, 9600, Note_on_c, 2, 69, 64
4, 9788, Note_off_c, 2, 69, 64
4, 9788, Note_off_c, 2, 64, 64
4, 9792, Note_on_c, 2, 64, 64
4, 9792, Note_on_c, 2, 69, 64
4, 9980, Note_off_c, 2, 69, 64
4, 9980, Note_off_c, 2, 64, 64
4, 9984, Note_on_c, 2, 64, 64
4, 9984, Note_on_c, 2, 69, 64
4, 10172, Note_off_c, 2, 69, 64
4, 10172, Note_off_c, 2, 64, 64
4, 10176, Note_on_c, 2, 64, 64
4, 10176, Note_on_c, 2, 69, 64
4, 10364, Note_off_c, 2, 69, 64
4, 10364, Note_off_c, 2, 64, 64
4, 10368, Note_on_c, 2, 64, 64
4, 10368, Note_on_c, 2, 69, 64
4, 10556, Note_off_c, 2, 69, 64
4, 10556, Note_off_c, 2, 64, 64
4, 10560, Note_on_c, 2, 64, 64
4, 10560, Note_on_c, 2, 69, 64
4, 10748, Note_off_c, 2, 69, 64
4, 10748, Note_off_c, 2, 64, 64
4, 10752, Note_on_c, 2, 64, 64
4, 10752, Note_on_c, 2, 69, 64
4, 10940, Note_off_c, 2, 69, 64
4, 10940, Note_off_c, 2, 64, 64
4, 10944, Note_on_c, 2, 64, 64
4, 10944, Note_on_c, 2, 69, 64
4, 11132, Note_off_c, 2, 69, 64
4, 11132, Note_off_c, 2, 64, 64
4, 11136, Note_on_c, 2, 64, 64
4, 11136, Note_on_c, 2, 69, 64
4, 11324, Note_off_c, 2, 69, 64
4, 11324, Note_off_c, 2, 64, 64
4, 11328, Note_on_c, 2, 64, 64
4, 11328, Note_on_c, 2, 69, 64
4, 11516, Note_off_c, 2, 69, 64
4, 11516, Note_off_c, 2, 64, 64
4, 11520, Note_on_c, 2, 64, 64
4, 11520, Note_on_c, 2, 69, 64
4, 11708, Note_off_c, 2, 69, 64
4, 11708, Note_off_c, 2, 64, 64
4, 11712, Note_on_c, 2, 63, 64
4, 11712, Note_on_c, 2, 66, 64
4, 11712, Note_on_c, 2, 72, 64
4, 12284, Note_off_c, 2, 72, 64
4, 12284, Note_off_c, 2, 66, 64
4, 12284, Note_off_c, 2, 63, 64
4, 12288, Note_on_c, 2, 64, 64
4, 12288, Note_on_c, 2, 69, 64
4, 12476, Note_off_c, 2, 69, 64
4, 12476, Note_off_c, 2, 64, 64
4, 12480, Note_on_c, 2, 64, 64
4, 12480, Note_on_c, 2, 69, 64
4, 12668, Note_off_c, 2, 69, 64
4, 12668, Note_off_c, 2, 64, 64
4, 12672, Note_on_c, 2, 64, 64
4, 12672, Note_on_c, 2, 69, 64
4, 12860, Note_off_c, 2, 69, 64
4, 12860, Note_off_c, 2, 64, 64
4, 12864, Note_on_c, 2, 64, 64
4, 12864, Note_on_c, 2, 69, 64
4, 13052, Note_off_c, 2, 69, 64
4, 13052, Note_off_c, 2, 64, 64
4, 13056, Note_on_c, 2, 64, 64
4, 13056, Note_on_c, 2, 69, 64
4, 13244, Note_off_c, 2, 69, 64
4, 13244, Note_off_c, 2, 64, 64
4, 13248, Note_on_c, 2, 64, 64
4, 13248, Note_on_c, 2, 69, 64
4, 13436, Note_off_c, 2, 69, 64
4, 13436, Note_off_c, 2, 64, 64
4, 13440, Note_on_c, 2, 64, 64
4, 13440, Note_on_c, 2, 69, 64
4, 13628, Note_off_c, 2, 69, 64
4, 13628, Note_off_c, 2, 64, 64
4, 13632, Note_on_c, 2, 64, 64
4, 13632, Note_on_c, 2, 69, 64
4, 13820, Note_off_c, 2, 69, 64
4, 13820, Note_off_c, 2, 64, 64
4, 13824, Note_on_c, 2, 64, 64
4, 13824, Note_on_c, 2, 69, 64
4, 14012, Note_off_c, 2, 69, 64
4, 14012, Note_off_c, 2, 64, 64
4, 14016, Note_on_c, 2, 64, 64
4, 14016, Note_on_c, 2, 69, 64
4, 14204, Note_off_c, 2, 69, 64
4, 14204, Note_off_c, 2, 64, 64
4, 14208, Note_on_c, 2, 64, 64
4, 14208, Note_on_c, 2, 69, 64
4, 14396, Note_off_c, 2, 69, 64
4, 14396, Note_off_c, 2, 64, 64
4, 14400, Note_on_c, 2, 64, 64
4, 14400, Note_on_c, 2, 69, 64
4, 14588, Note_off_c, 2, 69, 64
4, 14588, Note_off_c, 2, 64, 64
4, 14592, Note_on_c, 2, 64, 64
4, 14592, Note_on_c, 2, 69, 64
4, 14780, Note_off_c, 2, 69, 64
4, 14780, Note_off_c, 2, 64, 64
4, 14784, Note_on_c, 2, 66, 64
4, 14784, Note_on_c, 2, 72, 64
4, 14784, Note_on_c, 2, 63, 64
4, 15356, Note_off_c, 2, 63, 64
4, 15356, Note_off_c, 2, 72, 64
4, 15356, Note_off_c, 2, 66, 64
4, 15360, Note_on_c, 2, 66, 64
4, 15360, Note_on_c, 2, 61, 64
4, 15360, Note_on_c, 2, 55, 64
4, 16892, Note_off_c, 2, 55, 64
4, 16892, Note_off_c, 2, 61, 64
4, 16892, Note_off_c, 2, 66, 64
4, 16896, Note_on_c, 2, 61, 64
4, 16896, Note_on_c, 2, 64, 64
4, 16896, Note_on_c, 2, 55, 64
4, 18044, Note_off_c, 2, 55, 64
4, 18044, Note_off_c, 2, 64, 64
4, 18044, Note_off_c, 2, 61, 64
4, 18048, Note_on_c, 2, 67, 64
4, 18048, Note_on_c, 2, 62, 64
4, 18048, Note_on_c, 2, 59, 64
4, 18428, Note_off_c, 2, 59, 64
4, 18428, Note_off_c, 2, 62, 64
4, 18428, Note_off_c, 2, 67, 64
4, 18432, Note_on_c, 2, 61, 64
4, 18432, Note_on_c, 2, 55, 64
4, 18432, Note_on_c, 2, 64, 64
4, 19964, Note_off_c, 2, 64, 64
4, 19964, Note_off_c, 2, 55, 64
4, 19964, Note_off_c, 2, 61, 64
4, 19968, Note_on_c, 2, 61, 64
4, 19968, Note_on_c, 2, 55, 64
4, 19968, Note_on_c, 2, 64, 64
4, 21116, Note_off_c, 2, 64, 64
4, 21116, Note_off_c, 2, 55, 64
4, 21116, Note_off_c, 2, 61, 64
4, 21120, Note_on_c, 2, 59, 64
4, 21120, Note_on_c, 2, 62, 64
4, 21120, Note_on_c, 2, 67, 64
4, 21500, Note_off_c, 2, 67, 64
4, 21500, Note_off_c, 2, 62, 64
4, 21500, Note_off_c, 2, 59, 64
4, 21504, Note_on_c, 2, 61, 64
4, 21504, Note_on_c, 2, 64, 64
4, 21504, Note_on_c, 2, 55, 64
4, 23036, Note_off_c, 2, 55, 64
4, 23036, Note_off_c, 2, 64, 64
4, 23036, Note_off_c, 2, 61, 64
4, 23040, Note_on_c, 2, 61, 64
4, 23040, Note_on_c, 2, 64, 64
4, 23040, Note_on_c, 2, 55, 64
4, 24188, Note_off_c, 2, 55, 64
4, 24188, Note_off_c, 2, 64, 64
4, 24188, Note_off_c, 2, 61, 64
4, 24192, Note_on_c, 2, 62, 64
4, 24192, Note_on_c, 2, 67, 64
4, 24192, Note_on_c, 2, 59, 64
4, 24572, Note_off_c, 2, 59, 64
4, 24572, Note_off_c, 2, 67, 64
4, 24572, Note_off_c, 2, 62, 64
4, 24576, Note_on_c, 2, 61, 64
4, 24576, Note_on_c, 2, 64, 64
4, 24576, Note_on_c, 2, 55, 64
4, 26108, Note_off_c, 2, 55, 64
4, 26108, Note_off_c, 2, 64, 64
4, 26108, Note_off_c, 2, 61, 64
4, 26112, Note_on_c, 2, 61, 64
4, 26112, Note_on_c, 2, 64, 64
4, 26112, Note_on_c, 2, 55, 64
4, 27260, Note_off_c, 2, 55, 64
4, 27260, Note_off_c, 2, 64, 64
4, 27260, Note_off_c, 2, 61, 64
4, 27264, Note_on_c, 2, 67, 64
4, 27264, Note_on_c, 2, 62, 64
4, 27264, Note_on_c, 2, 59, 64
4, 27644, Note_off_c, 2, 59, 64
4, 27644, Note_off_c, 2, 62, 64
4, 27644, Note_off_c, 2, 67, 64
4, 27648, Note_on_c, 2, 65, 64
4, 27648, Note_on_c, 2, 62, 64
4, 27648, Note_on_c, 2, 57, 64
4, 29180, Note_off_c, 2, 57, 64
4, 29180, Note_off_c, 2, 62, 64
4, 29180, Note_off_c, 2, 65, 64
4, 29184, Note_on_c, 2, 67, 64
4, 29184, Note_on_c, 2, 62, 64
4, 29184, Note_on_c, 2, 59, 64
4, 30716, Note_off_c, 2, 59, 64
4, 30716, Note_off_c, 2, 62, 64
4, 30716, Note_off_c, 2, 67, 64
4, 30720, Note_on_c, 2, 57, 64
4, 30720, Note_on_c, 2, 64, 64
4, 30720, Note_on_c, 2, 60, 64
4, 32252, Note_off_c, 2, 60, 64
4, 32252, Note_off_c, 2, 64, 64
4, 32252, Note_off_c, 2, 57, 64
4, 32256, Note_on_c, 2, 57, 64
4, 32256, Note_on_c, 2, 64, 64
4, 32256, Note_on_c, 2, 60, 64
4, 33788, Note_off_c, 2, 60, 64
4, 33788, Note_off_c, 2, 64, 64
4, 33788, Note_off_c, 2, 57, 64
4, 33792, Note_on_c, 2, 62, 64
4, 33792, Note_on_c, 2, 65, 64
4, 33792, Note_on_c, 2, 57, 64
4, 35324, Note_off_c, 2, 57, 64
4, 35324, Note_off_c, 2, 65, 64
4, 35324, Note_off_c, 2, 62, 64
4, 35328, Note_on_c, 2, 67, 64
4, 35328, Note_on_c, 2, 62, 64
4, 35328, Note_on_c, 2, 59, 64
4, 36860, Note_off_c, 2, 59, 64
4, 36860, Note_off_c, 2, 62, 64
4, 36860, Note_off_c, 2, 67, 64
4, 36864, Note_on_c, 2, 60, 64
4, 36864, Note_on_c, 2, 55, 64
4, 36864, Note_on_c, 2, 64, 64
4, 38396, Note_off_c, 2, 64, 64
4, 38396, Note_off_c, 2, 55, 64
4, 38396, Note_off_c, 2, 60, 64
4, 38400, Note_on_c, 2, 55, 64
4, 38400, Note_on_c, 2, 64, 64
4, 38400, Note_on_c, 2, 60, 64
4, 39932, Note_off_c, 2, 60, 64
4, 39932, Note_off_c, 2, 64, 64
4, 39932, Note_off_c, 2, 55, 64
4, 39936, Note_on_c, 2, 65, 64
4, 39936, Note_on_c, 2, 60, 64
4, 39936, Note_on_c, 2, 57, 64
4, 41468, Note_off_c, 2, 57, 64
4, 41468, Note_off_c, 2, 60, 64
4, 41468, Note_off_c, 2, 65, 64
4, 41472, Note_on_c, 2, 62, 64
4, 41472, Note_on_c, 2, 67, 64
4, 41472, Note_on_c, 2, 59, 64
4, 43004, Note_off_c, 2, 59, 64
4, 43004, Note_off_c, 2, 67, 64
4, 43004, Note_off_c, 2, 62, 64
4, 43008, Note_on_c, 2, 64, 64
4, 43008, Note_on_c, 2, 69, 64
4, 43008, Note_on_c, 2, 60, 64
4, 44540, Note_off_c, 2, 60, 64
4, 44540, Note_off_c, 2, 69, 64
4, 44540, Note_off_c, 2, 64, 64
4, 44544, Note_on_c, 2, 64, 64
4, 44544, Note_on_c, 2, 69, 64
4, 44544, Note_on_c, 2, 60, 64
4, 46076, Note_off_c, 2, 60, 64
4, 46076, Note_off_c, 2, 69, 64
4, 46076, Note_off_c, 2, 64, 64
4, 46080, Note_on_c, 2, 60, 64
4, 46080, Note_on_c, 2, 65, 64
4, 46080, Note_on_c, 2, 57, 64
4, 47612, Note_off_c, 2, 57, 64
4, 47612, Note_off_c, 2, 65, 64
4, 47612, Note_off_c, 2, 60, 64
4, 47616, Note_on_c, 2, 62, 64
4, 47616, Note_on_c, 2, 67, 64
4, 47616, Note_on_c, 2, 59, 64
4, 49148, Note_off_c, 2, 59, 64
4, 49148, Note_off_c, 2, 67, 64
4, 49148, Note_off_c, 2, 62, 64
4, 49152, Note_on_c, 2, 60, 64
4, 49152, Note_on_c, 2, 64, 64
4, 49152, Note_on_c, 2, 55, 64
4, 50684, Note_off_c, 2, 55, 64
4, 50684, Note_off_c, 2, 64, 64
4, 50684, Note_off_c, 2, 60, 64
4, 50688, Note_on_c, 2, 64, 64
4, 50688, Note_on_c, 2, 55, 64
4, 50688, Note_on_c, 2, 60, 64
4, 52220, Note_off_c, 2, 60, 64
4, 52220, Note_off_c, 2, 55, 64
4, 52220, Note_off_c, 2, 64, 64
4, 52224, Note_on_c, 2, 60, 64
4, 52224, Note_on_c, 2, 65, 64
4, 52224, Note_on_c, 2, 57, 64
4, 53756, Note_off_c, 2, 57, 64
4, 53756, Note_off_c, 2, 65, 64
4, 53756, Note_off_c, 2, 60, 64
4, 53760, Note_on_c, 2, 67, 64
4, 53760, Note_on_c, 2, 62, 64
4, 53760, Note_on_c, 2, 59, 64
4, 55292, Note_off_c, 2, 59, 64
4, 55292, Note_off_c, 2, 62, 64
4, 55292, Note_off_c, 2, 67, 64
4, 55296, Note_on_c, 2, 69, 64
4, 55296, Note_on_c, 2, 64, 64
4, 55484, Note_off_c, 2, 64, 64
4, 55484, Note_off_c, 2, 69, 64
4, 55488, Note_on_c, 2, 64, 64
4, 55488, Note_on_c, 2, 69, 64
4, 55676, Note_off_c, 2, 69, 64
4, 55676, Note_off_c, 2, 64, 64
4, 55680, Note_on_c, 2, 64, 64
4, 55680, Note_on_c, 2, 69, 64
4, 55868, Note_off_c, 2, 69, 64
4, 55868, Note_off_c, 2, 64, 64
4, 55872, Note_on_c, 2, 64, 64
4, 55872, Note_on_c, 2, 69, 64
4, 56060, Note_off_c, 2, 69, 64
4, 56060, Note_off_c, 2, 64, 64
4, 56064, Note_on_c, 2, 64, 64
4, 56064, Note_on_c, 2, 69, 64
4, 56252, Note_off_c, 2, 69, 64
4, 56252, Note_off_c, 2, 64, 64
4, 56256, Note_on_c, 2, 64, 64
4, 56256, Note_on_c, 2, 69, 64
4, 56444, Note_off_c, 2, 69, 64
4, 56444, Note_off_c, 2, 64, 64
4, 56448, Note_on_c, 2, 69, 64
4, 56448, Note_on_c, 2, 64, 64
4, 56636, Note_off_c, 2, 64, 64
4, 56636, Note_off_c, 2, 69, 64
4, 56640, Note_on_c, 2, 69, 64
4, 56640, Note_on_c, 2, 64, 64
4, 56828, Note_off_c, 2, 64, 64
4, 56828, Note_off_c, 2, 69, 64
4, 56832, Note_on_c, 2, 64, 64
4, 56832, Note_on_c, 2, 69, 64
4, 57020, Note_off_c, 2, 69, 64
4, 57020, Note_off_c, 2, 64, 64
4, 57024, Note_on_c, 2, 69, 64
4, 57024, Note_on_c, 2, 64, 64
4, 57212, Note_off_c, 2, 64, 64
4, 57212, Note_off_c, 2, 69, 64
4, 57216, Note_on_c, 2, 69, 64
4, 57216, Note_on_c, 2, 64, 64
4, 57404, Note_off_c, 2, 64, 64
4, 57404, Note_off_c, 2, 69, 64
4, 57408, Note_on_c, 2, 69, 64
4, 57408, Note_on_c, 2, 64, 64
4, 57596, Note_off_c, 2, 64, 64
4, 57596, Note_off_c, 2, 69, 64
4, 57600, Note_on_c, 2, 69, 64
4, 57600, Note_on_c, 2, 64, 64
4, 57788, Note_off_c, 2, 64, 64
4, 57788, Note_off_c, 2, 69, 64
4, 57792, Note_on_c, 2, 66, 64
4, 57792, Note_on_c, 2, 72, 64
4, 57792, Note_on_c, 2, 63, 64
4, 58364, Note_off_c, 2, 63, 64
4, 58364, Note_off_c, 2, 72, 64
4, 58364, Note_off_c, 2, 66, 64
4, 58368, Note_on_c, 2, 64, 64
4, 58368, Note_on_c, 2, 69, 64
4, 58556, Note_off_c, 2, 69, 64
4, 58556, Note_off_c, 2, 64, 64
4, 58560, Note_on_c, 2, 64, 64
4, 58560, Note_on_c, 2, 69, 64
4, 58748, Note_off_c, 2, 69, 64
4, 58748, Note_off_c, 2, 64, 64
4, 58752, Note_on_c, 2, 64, 64
4, 58752, Note_on_c, 2, 69, 64
4, 58940, Note_off_c, 2, 69, 64
4, 58940, Note_off_c, 2, 64, 64
4, 58944, Note_on_c, 2, 64, 64
4, 58944, Note_on_c, 2, 69, 64
4, 59132, Note_off_c, 2, 69, 64
4, 59132, Note_off_c, 2, 64, 64
4, 59136, Note_on_c, 2, 64, 64
4, 59136, Note_on_c, 2, 69, 64
4, 59324, Note_off_c, 2, 69, 64
4, 59324, Note_off_c, 2, 64, 64
4, 59328, Note_on_c, 2, 64, 64
4, 59328, Note_on_c, 2, 69, 64
4, 59516, Note_off_c, 2, 69, 64
4, 59516, Note_off_c, 2, 64, 64
4, 59520, Note_on_c, 2, 64, 64
4, 59520, Note_on_c, 2, 69, 64
4, 59708, Note_off_c, 2, 69, 64
4, 59708, Note_off_c, 2, 64, 64
4, 59712, Note_on_c, 2, 69, 64
4, 59712, Note_on_c, 2, 64, 64
4, 59900, Note_off_c, 2, 64, 64
4, 59900, Note_off_c, 2, 69, 64
4, 59904, Note_on_c, 2, 64, 64
4, 59904, Note_on_c, 2, 69, 64
4, 60092, Note_off_c, 2, 69, 64
4, 60092, Note_off_c, 2, 64, 64
4, 60096, Note_on_c, 2, 69, 64
4, 60096, Note_on_c, 2, 64, 64
4, 60284, Note_off_c, 2, 64, 64
4, 60284, Note_off_c, 2, 69, 64
4, 60288, Note_on_c, 2, 64, 64
4, 60288, Note_on_c, 2, 69, 64
4, 60476, Note_off_c, 2, 69, 64
4, 60476, Note_off_c, 2, 64, 64
4, 60480, Note_on_c, 2, 64, 64
4, 60480, Note_on_c, 2, 69, 64
4, 60668, Note_off_c, 2, 69, 64
4, 60668, Note_off_c, 2, 64, 64
4, 60672, Note_on_c, 2, 64, 64
4, 60672, Note_on_c, 2, 69, 64
4, 60860, Note_off_c, 2, 69, 64
4, 60860, Note_off_c, 2, 64, 64
4, 60864, Note_on_c, 2, 66, 64
4, 60864, Note_on_c, 2, 63, 64
4, 60864, Note_on_c, 2, 72, 64
4, 61436, Note_off_c, 2, 72, 64
4, 61436, Note_off_c, 2, 63, 64
4, 61436, Note_off_c, 2, 66, 64
4, 61440, Note_on_c, 2, 61, 64
4, 61440, Note_on_c, 2, 55, 64
4, 61440, Note_on_c, 2, 64, 64
4, 62972, Note_off_c, 2, 64, 64
4, 62972, Note_off_c, 2, 55, 64
4, 62972, Note_off_c, 2, 61, 64
4, 62976, Note_on_c, 2, 61, 64
4, 62976, Note_on_c, 2, 64, 64
4, 62976, Note_on_c, 2, 55, 64
4, 64124, Note_off_c, 2, 55, 64
4, 64124, Note_off_c, 2, 64, 64
4, 64124, Note_off_c, 2, 61, 64
4, 64128, Note_on_c, 2, 67, 64
4, 64128, Note_on_c, 2, 62, 64
4, 64128, Note_on_c, 2, 59, 64
4, 64508, Note_off_c, 2, 59, 64
4, 64508, Note_off_c, 2, 62, 64
4, 64508, Note_off_c, 2, 67, 64
4, 64512, Note_on_c, 2, 61, 64
4, 64512, Note_on_c, 2, 55, 64
4, 64512, Note_on_c, 2, 64, 64
4, 66044, Note_off_c, 2, 64, 64
4, 66044, Note_off_c, 2, 55, 64
4, 66044, Note_off_c, 2, 61, 64
4, 66048, Note_on_c, 2, 61, 64
4, 66048, Note_on_c, 2, 55, 64
4, 66048, Note_on_c, 2, 64, 64
4, 67196, Note_off_c, 2, 64, 64
4, 67196, Note_off_c, 2, 55, 64
4, 67196, Note_off_c, 2, 61, 64
4, 67200, Note_on_c, 2, 59, 64
4, 67200, Note_on_c, 2, 62, 64
4, 67200, Note_on_c, 2, 67, 64
4, 67580, Note_off_c, 2, 67, 64
4, 67580, Note_off_c, 2, 62, 64
4, 67580, Note_off_c, 2, 59, 64
4, 67584, Note_on_c, 2, 61, 64
4, 67584, Note_on_c, 2, 64, 64
4, 67584, Note_on_c, 2, 55, 64
4, 69116, Note_off_c, 2, 55, 64
4, 69116, Note_off_c, 2, 64, 64
4, 69116, Note_off_c, 2, 61, 64
4, 69120, Note_on_c, 2, 61, 64
4, 69120, Note_on_c, 2, 64, 64
4, 69120, Note_on_c, 2, 55, 64
4, 70268, Note_off_c, 2, 55, 64
4, 70268, Note_off_c, 2, 64, 64
4, 70268, Note_off_c, 2, 61, 64
4, 70272, Note_on_c, 2, 62, 64
4, 70272, Note_on_c, 2, 67, 64
4, 70272, Note_on_c, 2, 59, 64
4, 70652, Note_off_c, 2, 59, 64
4, 70652, Note_off_c, 2, 67, 64
4, 70652, Note_off_c, 2, 62, 64
4, 70656, Note_on_c, 2, 61, 64
4, 70656, Note_on_c, 2, 64, 64
4, 70656, Note_on_c, 2, 55, 64
4, 72188, Note_off_c, 2, 55, 64
4, 72188, Note_off_c, 2, 64, 64
4, 72188, Note_off_c, 2, 61, 64
4, 72192, Note_on_c, 2, 61, 64
4, 72192, Note_on_c, 2, 64, 64
4, 72192, Note_on_c, 2, 55, 64
4, 73340, Note_off_c, 2, 55, 64
4, 73340, Note_off_c, 2, 64, 64
4, 73340, Note_off_c, 2, 61, 64
4, 73344, Note_on_c, 2, 67, 64
4, 73344, Note_on_c, 2, 62, 64
4, 73344, Note_on_c, 2, 59, 64
4, 73724, Note_off_c, 2, 59, 64
4, 73724, Note_off_c, 2, 62, 64
4, 73724, Note_off_c, 2, 67, 64
4, 73728, Note_on_c, 2, 62, 64
4, 73728, Note_on_c, 2, 65, 64
4, 73728, Note_on_c, 2, 57, 64
4, 75260, Note_off_c, 2, 57, 64
4, 75260, Note_off_c, 2, 65, 64
4, 75260, Note_off_c, 2, 62, 64
4, 75264, Note_on_c, 2, 67, 64
4, 75264, Note_on_c, 2, 62, 64
4, 75264, Note_on_c, 2, 59, 64
4, 76796, Note_off_c, 2, 59, 64
4, 76796, Note_off_c, 2, 62, 64
4, 76796, Note_off_c, 2, 67, 64
4, 76800, Note_on_c, 2, 57, 64
4, 76800, Note_on_c, 2, 64, 64
4, 76800, Note_on_c, 2, 60, 64
4, 78332, Note_off_c, 2, 60, 64
4, 78332, Note_off_c, 2, 64, 64
4, 78332, Note_off_c, 2, 57, 64
4, 78336, Note_on_c, 2, 57, 64
4, 78336, Note_on_c, 2, 64, 64
4, 78336, Note_on_c, 2, 60, 64
4, 79868, Note_off_c, 2, 60, 64
4, 79868, Note_off_c, 2, 64, 64
4, 79868, Note_off_c, 2, 57, 64
4, 79872, Note_on_c, 2, 62, 64
4, 79872, Note_on_c, 2, 65, 64
4, 79872, Note_on_c, 2, 57, 64
4, 81404, Note_off_c, 2, 57, 64
4, 81404, Note_off_c, 2, 65, 64
4, 81404, Note_off_c, 2, 62, 64
4, 81408, Note_on_c, 2, 67, 64
4, 81408, Note_on_c, 2, 62, 64
4, 81408, Note_on_c, 2, 59, 64
4, 82940, Note_off_c, 2, 59, 64
4, 82940, Note_off_c, 2, 62, 64
4, 82940, Note_off_c, 2, 67, 64
4, 82944, Note_on_c, 2, 60, 64
4, 82944, Note_on_c, 2, 55, 64
4, 82944, Note_on_c, 2, 64, 64
4, 84476, Note_off_c, 2, 64, 64
4, 84476, Note_off_c, 2, 55, 64
4, 84476, Note_off_c, 2, 60, 64
4, 84480, Note_on_c, 2, 55, 64
4, 84480, Note_on_c, 2, 64, 64
4, 84480, Note_on_c, 2, 60, 64
4, 86012, Note_off_c, 2, 60, 64
4, 86012, Note_off_c, 2, 64, 64
4, 86012, Note_off_c, 2, 55, 64
4, 86016, Note_on_c, 2, 65, 64
4, 86016, Note_on_c, 2, 60, 64
4, 86016, Note_on_c, 2, 57, 64
4, 87548, Note_off_c, 2, 57, 64
4, 87548, Note_off_c, 2, 60, 64
4, 87548, Note_off_c, 2, 65, 64
4, 87552, Note_on_c, 2, 62, 64
4, 87552, Note_on_c, 2, 67, 64
4, 87552, Note_on_c, 2, 59, 64
4, 89084, Note_off_c, 2, 59, 64
4, 89084, Note_off_c, 2, 67, 64
4, 89084, Note_off_c, 2, 62, 64
4, 89088, Note_on_c, 2, 64, 64
4, 89088, Note_on_c, 2, 69, 64
4, 89088, Note_on_c, 2, 60, 64
4, 90620, Note_off_c, 2, 60, 64
4, 90620, Note_off_c, 2, 69, 64
4, 90620, Note_off_c, 2, 64, 64
4, 90624, Note_on_c, 2, 64, 64
4, 90624, Note_on_c, 2, 69, 64
4, 90624, Note_on_c, 2, 60, 64
4, 92156, Note_off_c, 2, 60, 64
4, 92156, Note_off_c, 2, 69, 64
4, 92156, Note_off_c, 2, 64, 64
4, 92160, Note_on_c, 2, 60, 64
4, 92160, Note_on_c, 2, 65, 64
4, 92160, Note_on_c, 2, 57, 64
4, 93692, Note_off_c, 2, 57, 64
4, 93692, Note_off_c, 2, 65, 64
4, 93692, Note_off_c, 2, 60, 64
4, 93696, Note_on_c, 2, 62, 64
4, 93696, Note_on_c, 2, 67, 64
4, 93696, Note_on_c, 2, 59, 64
4, 95228, Note_off_c, 2, 59, 64
4, 95228, Note_off_c, 2, 67, 64
4, 95228, Note_off_c, 2, 62, 64
4, 95232, Note_on_c, 2, 60, 64
4, 95232, Note_on_c, 2, 64, 64
4, 95232, Note_on_c, 2, 55, 64
4, 96764, Note_off_c, 2, 55, 64
4, 96764, Note_off_c, 2, 64, 64
4, 96764, Note_off_c, 2, 60, 64
4, 96768, Note_on_c, 2, 64, 64
4, 96768, Note_on_c, 2, 55, 64
4, 96768, Note_on_c, 2, 60, 64
4, 98300, Note_off_c, 2, 60, 64
4, 98300, Note_off_c, 2, 55, 64
4, 98300, Note_off_c, 2, 64, 64
4, 98304, Note_on_c, 2, 60, 64
4, 98304, Note_on_c, 2, 65, 64
4, 98304, Note_on_c, 2, 57, 64
4, 99836, Note_off_c, 2, 57, 64
4, 99836, Note_off_c, 2, 65, 64
4, 99836, Note_off_c, 2, 60, 64
4, 99840, Note_on_c, 2, 62, 64
4, 99840, Note_on_c, 2, 59, 64
4, 99840, Note_on_c, 2, 67, 64
4, 101372, Note_off_c, 2, 67, 64
4, 101372, Note_off_c, 2, 59, 64
4, 101372, Note_off_c, 2, 62, 64
4, 101376, Note_on_c, 2, 66, 64
4, 101376, Note_on_c, 2, 62, 64
4, 101376, Note_on_c, 2, 59, 64
4, 101756, Note_off_c, 2, 59, 64
4, 101756, Note_off_c, 2, 62, 64
4, 101756, Note_off_c, 2, 66, 64
4, 101760, Note_on_c, 2, 62, 64
4, 101760, Note_on_c, 2, 66, 64
4, 101760, Note_on_c, 2, 59, 64
4, 102140, Note_off_c, 2, 59, 64
4, 102140, Note_off_c, 2, 66, 64
4, 102140, Note_off_c, 2, 62, 64
4, 102144, Note_on_c, 2, 62, 64
4, 102144, Note_on_c, 2, 66, 64
4, 102144, Note_on_c, 2, 59, 64
4, 102524, Note_off_c, 2, 59, 64
4, 102524, Note_off_c, 2, 66, 64
4, 102524, Note_off_c, 2, 62, 64
4, 102528, Note_on_c, 2, 62, 64
4, 102528, Note_on_c, 2, 66, 64
4, 102528, Note_on_c, 2, 59, 64
4, 102908, Note_off_c, 2, 59, 64
4, 102908, Note_off_c, 2, 66, 64
4, 102908, Note_off_c, 2, 62, 64
4, 102912, Note_on_c, 2, 62, 64
4, 102912, Note_on_c, 2, 59, 64
4, 102912, Note_on_c, 2, 66, 64
4, 103292, Note_off_c, 2, 66, 64
4, 103292, Note_off_c, 2, 59, 64
4, 103292, Note_off_c, 2, 62, 64
4, 103296, Note_on_c, 2, 62, 64
4, 103296, Note_on_c, 2, 59, 64
4, 103296, Note_on_c, 2, 66, 64
4, 103676, Note_off_c, 2, 66, 64
4, 103676, Note_off_c, 2, 59, 64
4, 103676, Note_off_c, 2, 62, 64
4, 103680, Note_on_c, 2, 62, 64
4, 103680, Note_on_c, 2, 66, 64
4, 103680, Note_on_c, 2, 59, 64
4, 104060, Note_off_c, 2, 59, 64
4, 104060, Note_off_c, 2, 66, 64
4, 104060, Note_off_c, 2, 62, 64
4, 104064, Note_on_c, 2, 66, 64
4, 104064, Note_on_c, 2, 62, 64
4, 104064, Note_on_c, 2, 59, 64
4, 104444, Note_off_c, 2, 59, 64
4, 104444, Note_off_c, 2, 62, 64
4, 104444, Note_off_c, 2, 66, 64
4, 104448, Note_on_c, 2, 62, 64
4, 104448, Note_on_c, 2, 67, 64
4, 104448, Note_on_c, 2, 59, 64
4, 104828, Note_off_c, 2, 59, 64
4, 104828, Note_off_c, 2, 67, 64
4, 104828, Note_off_c, 2, 62, 64
4, 104832, Note_on_c, 2, 62, 64
4, 104832, Note_on_c, 2, 59, 64
4, 104832, Note_on_c, 2, 67, 64
4, 105212, Note_off_c, 2, 67, 64
4, 105212, Note_off_c, 2, 59, 64
4, 105212, Note_off_c, 2, 62, 64
4, 105216, Note_on_c, 2, 62, 64
4, 105216, Note_on_c, 2, 59, 64
4, 105216, Note_on_c, 2, 67, 64
4, 105596, Note_off_c, 2, 67, 64
4, 105596, Note_off_c, 2, 59, 64
4, 105596, Note_off_c, 2, 62, 64
4, 105600, Note_on_c, 2, 62, 64
4, 105600, Note_on_c, 2, 59, 64
4, 105600, Note_on_c, 2, 67, 64
4, 105980, Note_off_c, 2, 67, 64
4, 105980, Note_off_c, 2, 59, 64
4, 105980, Note_off_c, 2, 62, 64
4, 105984, Note_on_c, 2, 62, 64
4, 105984, Note_on_c, 2, 59, 64
4, 105984, Note_on_c, 2, 67, 64
4, 106364, Note_off_c, 2, 67, 64
4, 106364, Note_off_c, 2, 59, 64
4, 106364, Note_off_c, 2, 62, 64
4, 106368, Note_on_c, 2, 62, 64
4, 106368, Note_on_c, 2, 59, 64
4, 106368, Note_on_c, 2, 67, 64
4, 106748, Note_off_c, 2, 67, 64
4, 106748, Note_off_c, 2, 59, 64
4, 106748, Note_off_c, 2, 62, 64
4, 106752, Note_on_c, 2, 59, 64
4, 106752, Note_on_c, 2, 62, 64
4, 106752, Note_on_c, 2, 67, 64
4, 107132, Note_off_c, 2, 67, 64
4, 107132, Note_off_c, 2, 62, 64
4, 107132, Note_off_c, 2, 59, 64
4, 107136, Note_on_c, 2, 62, 64
4, 107136, Note_on_c, 2, 59, 64
4, 107136, Note_on_c, 2, 67, 64
4, 107516, Note_off_c, 2, 67, 64
4, 107516, Note_off_c, 2, 59, 64
4, 107516, Note_off_c, 2, 62, 64
4, 107520, Note_on_c, 2, 62, 64
4, 107520, Note_on_c, 2, 66, 64
4, 107520, Note_on_c, 2, 59, 64
4, 107900, Note_off_c, 2, 59, 64
4, 107900, Note_off_c, 2, 66, 64
4, 107900, Note_off_c, 2, 62, 64
4, 107904, Note_on_c, 2, 66, 64
4, 107904, Note_on_c, 2, 62, 64
4, 107904, Note_on_c, 2, 59, 64
4, 108284, Note_off_c, 2, 59, 64
4, 108284, Note_off_c, 2, 62, 64
4, 108284, Note_off_c, 2, 66, 64
4, 108288, Note_on_c, 2, 62, 64
4, 108288, Note_on_c, 2, 66, 64
4, 108288, Note_on_c, 2, 59, 64
4, 108668, Note_off_c, 2, 59, 64
4, 108668, Note_off_c, 2, 66, 64
4, 108668, Note_off_c, 2, 62, 64
4, 108672, Note_on_c, 2, 62, 64
4, 108672, Note_on_c, 2, 59, 64
4, 108672, Note_on_c, 2, 66, 64
4, 109052, Note_off_c, 2, 66, 64
4, 109052, Note_off_c, 2, 59, 64
4, 109052, Note_off_c, 2, 62, 64
4, 109056, Note_on_c, 2, 66, 64
4, 109056, Note_on_c, 2, 62, 64
4, 109056, Note_on_c, 2, 59, 64
4, 109436, Note_off_c, 2, 59, 64
4, 109436, Note_off_c, 2, 62, 64
4, 109436, Note_off_c, 2, 66, 64
4, 109440, Note_on_c, 2, 59, 64
4, 109440, Note_on_c, 2, 66, 64
4, 109440, Note_on_c, 2, 62, 64
4, 109820, Note_off_c, 2, 62, 64
4, 109820, Note_off_c, 2, 66, 64
4, 109820, Note_off_c, 2, 59, 64
4, 109824, Note_on_c, 2, 59, 64
4, 109824, Note_on_c, 2, 66, 64
4, 109824, Note_on_c, 2, 62, 64
4, 110204, Note_off_c, 2, 62, 64
4, 110204, Note_off_c, 2, 66, 64
4, 110204, Note_off_c, 2, 59, 64
4, 110208, Note_on_c, 2, 59, 64
4, 110208, Note_on_c, 2, 66, 64
4, 110208, Note_on_c, 2, 62, 64
4, 110588, Note_off_c, 2, 62, 64
4, 110588, Note_off_c, 2, 66, 64
4, 110588, Note_off_c, 2, 59, 64
4, 110592, Note_on_c, 2, 62, 64
4, 110592, Note_on_c, 2, 67, 64
4, 110592, Note_on_c, 2, 59, 64
4, 110972, Note_off_c, 2, 59, 64
4, 110972, Note_off_c, 2, 67, 64
4, 110972, Note_off_c, 2, 62, 64
4, 110976, Note_on_c, 2, 62, 64
4, 110976, Note_on_c, 2, 67, 64
4, 110976, Note_on_c, 2, 59, 64
4, 111356, Note_off_c, 2, 59, 64
4, 111356, Note_off_c, 2, 67, 64
4, 111356, Note_off_c, 2, 62, 64
4, 111360, Note_on_c, 2, 62, 64
4, 111360, Note_on_c, 2, 59, 64
4, 111360, Note_on_c, 2, 67, 64
4, 111740, Note_off_c, 2, 67, 64
4, 111740, Note_off_c, 2, 59, 64
4, 111740, Note_off_c, 2, 62, 64
4, 111744, Note_on_c, 2, 62, 64
4, 111744, Note_on_c, 2, 59, 64
4, 111744, Note_on_c, 2, 67, 64
4, 112124, Note_off_c, 2, 67, 64
4, 112124, Note_off_c, 2, 59, 64
4, 112124, Note_off_c, 2, 62, 64
4, 112128, Note_on_c, 2, 62, 64
4, 112128, Note_on_c, 2, 67, 64
4, 112128, Note_on_c, 2, 59, 64
4, 112508, Note_off_c, 2, 59, 64
4, 112508, Note_off_c, 2, 67, 64
4, 112508, Note_off_c, 2, 62, 64
4, 112512, Note_on_c, 2, 62, 64
4, 112512, Note_on_c, 2, 59, 64
4, 112512, Note_on_c, 2, 67, 64
4, 112892, Note_off_c, 2, 67, 64
4, 112892, Note_off_c, 2, 59, 64
4, 112892, Note_off_c, 2, 62, 64
4, 112896, Note_on_c, 2, 62, 64
4, 112896, Note_on_c, 2, 59, 64
4, 112896, Note_on_c, 2, 67, 64
4, 113276, Note_off_c, 2, 67, 64
4, 113276, Note_off_c, 2, 59, 64
4, 113276, Note_off_c, 2, 62, 64
4, 113280, Note_on_c, 2, 62, 64
4, 113280, Note_on_c, 2, 67, 64
4, 113280, Note_on_c, 2, 59, 64
4, 113660, Note_off_c, 2, 59, 64
4, 113660, Note_off_c, 2, 67, 64
4, 113660, Note_off_c, 2, 62, 64
4, 113664, Note_on_c, 2, 61, 64
4, 113664, Note_on_c, 2, 64, 64
4, 113664, Note_on_c, 2, 57, 64
4, 113664, Note_on_c, 2, 52, 64
4, 115196, Note_off_c, 2, 52, 64
4, 115196, Note_off_c, 2, 57, 64
4, 115196, Note_off_c, 2, 64, 64
4, 115196, Note_off_c, 2, 61, 64
4, 115200, Note_on_c, 2, 61, 64
4, 115200, Note_on_c, 2, 52, 64
4, 115200, Note_on_c, 2, 64, 64
4, 115200, Note_on_c, 2, 57, 64
4, 116732, Note_off_c, 2, 57, 64
4, 116732, Note_off_c, 2, 64, 64
4, 116732, Note_off_c, 2, 52, 64
4, 116732, Note_off_c, 2, 61, 64
4, 116736, Note_on_c, 2, 55, 64
4, 116736, Note_on_c, 2, 67, 64
4, 116736, Note_on_c, 2, 62, 64
4, 116736, Note_on_c, 2, 59, 64
4, 118268, Note_off_c, 2, 59, 64
4, 118268, Note_off_c, 2, 62, 64
4, 118268, Note_off_c, 2, 67, 64
4, 118268, Note_off_c, 2, 55, 64
4, 118272, Note_on_c, 2, 55, 64
4, 118272, Note_on_c, 2, 67, 64
4, 118272, Note_on_c, 2, 62, 64
4, 118272, Note_on_c, 2, 59, 64
4, 119804, Note_off_c, 2, 59, 64
4, 119804, Note_off_c, 2, 62, 64
4, 119804, Note_off_c, 2, 67, 64
4, 119804, Note_off_c, 2, 55, 64
4, 119808, Note_on_c, 2, 61, 64
4, 119808, Note_on_c, 2, 57, 64
4, 119808, Note_on_c, 2, 64, 64
4, 120188, Note_off_c, 2, 64, 64
4, 120188, Note_off_c, 2, 57, 64
4, 120188, Note_off_c, 2, 61, 64
4, 120192, Note_on_c, 2, 61, 64
4, 120192, Note_on_c, 2, 64, 64
4, 120192, Note_on_c, 2, 57, 64
4, 120572, Note_off_c, 2, 57, 64
4, 120572, Note_off_c, 2, 64, 64
4, 120572, Note_off_c, 2, 61, 64
4, 120576, Note_on_c, 2, 61, 64
4, 120576, Note_on_c, 2, 57, 64
4, 120576, Note_on_c, 2, 64, 64
4, 120956, Note_off_c, 2, 64, 64
4, 120956, Note_off_c, 2, 57, 64
4, 120956, Note_off_c, 2, 61, 64
4, 120960, Note_on_c, 2, 61, 64
4, 120960, Note_on_c, 2, 64, 64
4, 120960, Note_on_c, 2, 57, 64
4, 121340, Note_off_c, 2, 57, 64
4, 121340, Note_off_c, 2, 64, 64
4, 121340, Note_off_c, 2, 61, 64
4, 121344, Note_on_c, 2, 61, 64
4, 121344, Note_on_c, 2, 57, 64
4, 121344, Note_on_c, 2, 64, 64
4, 121724, Note_off_c, 2, 64, 64
4, 121724, Note_off_c, 2, 57, 64
4, 121724, Note_off_c, 2, 61, 64
4, 121728, Note_on_c, 2, 61, 64
4, 121728, Note_on_c, 2, 64, 64
4, 121728, Note_on_c, 2, 57, 64
4, 122108, Note_off_c, 2, 57, 64
4, 122108, Note_off_c, 2, 64, 64
4, 122108, Note_off_c, 2, 61, 64
4, 122112, Note_on_c, 2, 61, 64
4, 122112, Note_on_c, 2, 64, 64
4, 122112, Note_on_c, 2, 57, 64
4, 122492, Note_off_c, 2, 57, 64
4, 122492, Note_off_c, 2, 64, 64
4, 122492, Note_off_c, 2, 61, 64
4, 122496, Note_on_c, 2, 67, 64
4, 122496, Note_on_c, 2, 62, 64
4, 122496, Note_on_c, 2, 59, 64
4, 122876, Note_off_c, 2, 59, 64
4, 122876, Note_off_c, 2, 62, 64
4, 122876, Note_off_c, 2, 67, 64
4, 122880, Note_on_c, 2, 61, 64
4, 122880, Note_on_c, 2, 64, 64
4, 122880, Note_on_c, 2, 57, 64
4, 123260, Note_off_c, 2, 57, 64
4, 123260, Note_off_c, 2, 64, 64
4, 123260, Note_off_c, 2, 61, 64
4, 123264, Note_on_c, 2, 61, 64
4, 123264, Note_on_c, 2, 64, 64
4, 123264, Note_on_c, 2, 57, 64
4, 123644, Note_off_c, 2, 57, 64
4, 123644, Note_off_c, 2, 64, 64
4, 123644, Note_off_c, 2, 61, 64
4, 123648, Note_on_c, 2, 61, 64
4, 123648, Note_on_c, 2, 64, 64
4, 123648, Note_on_c, 2, 57, 64
4, 124028, Note_off_c, 2, 57, 64
4, 124028, Note_off_c, 2, 64, 64
4, 124028, Note_off_c, 2, 61, 64
4, 124032, Note_on_c, 2, 61, 64
4, 124032, Note_on_c, 2, 64, 64
4, 124032, Note_on_c, 2, 57, 64
4, 124412, Note_off_c, 2, 57, 64
4, 124412, Note_off_c, 2, 64, 64
4, 124412, Note_off_c, 2, 61, 64
4, 124416, Note_on_c, 2, 61, 64
4, 124416, Note_on_c, 2, 64, 64
4, 124416, Note_on_c, 2, 57, 64
4, 124796, Note_off_c, 2, 57, 64
4, 124796, Note_off_c, 2, 64, 64
4, 124796, Note_off_c, 2, 61, 64
4, 124800, Note_on_c, 2, 61, 64
4, 124800, Note_on_c, 2, 57, 64
4, 124800, Note_on_c, 2, 64, 64
4, 125180, Note_off_c, 2, 64, 64
4, 125180, Note_off_c, 2, 57, 64
4, 125180, Note_off_c, 2, 61, 64
4, 125184, Note_on_c, 2, 61, 64
4, 125184, Note_on_c, 2, 64, 64
4, 125184, Note_on_c, 2, 57, 64
4, 125564, Note_off_c, 2, 57, 64
4, 125564, Note_off_c, 2, 64, 64
4, 125564, Note_off_c, 2, 61, 64
4, 125568, Note_on_c, 2, 67, 64
4, 125568, Note_on_c, 2, 62, 64
4, 125568, Note_on_c, 2, 59, 64
4, 125948, Note_off_c, 2, 59, 64
4, 125948, Note_off_c, 2, 62, 64
4, 125948, Note_off_c, 2, 67, 64
4, 125952, Note_on_c, 2, 61, 64
4, 125952, Note_on_c, 2, 64, 64
4, 125952, Note_on_c, 2, 57, 64
4, 126332, Note_off_c, 2, 57, 64
4, 126332, Note_off_c, 2, 64, 64
4, 126332, Note_off_c, 2, 61, 64
4, 126336, Note_on_c, 2, 61, 64
4, 126336, Note_on_c, 2, 57, 64
4, 126336, Note_on_c, 2, 64, 64
4, 126716, Note_off_c, 2, 64, 64
4, 126716, Note_off_c, 2, 57, 64
4, 126716, Note_off_c, 2, 61, 64
4, 126720, Note_on_c, 2, 61, 64
4, 126720, Note_on_c, 2, 57, 64
4, 126720, Note_on_c, 2, 64, 64
4, 127100, Note_off_c, 2, 64, 64
4, 127100, Note_off_c, 2, 57, 64
4, 127100, Note_off_c, 2, 61, 64
4, 127104, Note_on_c, 2, 61, 64
4, 127104, Note_on_c, 2, 57, 64
4, 127104, Note_on_c, 2, 64, 64
4, 127484, Note_off_c, 2, 64, 64
4, 127484, Note_off_c, 2, 57, 64
4, 127484, Note_off_c, 2, 61, 64
4, 127488, Note_on_c, 2, 61, 64
4, 127488, Note_on_c, 2, 64, 64
4, 127488, Note_on_c, 2, 57, 64
4, 127868, Note_off_c, 2, 57, 64
4, 127868, Note_off_c, 2, 64, 64
4, 127868, Note_off_c, 2, 61, 64
4, 127872, Note_on_c, 2, 61, 64
4, 127872, Note_on_c, 2, 64, 64
4, 127872, Note_on_c, 2, 57, 64
4, 128252, Note_off_c, 2, 57, 64
4, 128252, Note_off_c, 2, 64, 64
4, 128252, Note_off_c, 2, 61, 64
4, 128256, Note_on_c, 2, 61, 64
4, 128256, Note_on_c, 2, 57, 64
4, 128256, Note_on_c, 2, 64, 64
4, 128636, Note_off_c, 2, 64, 64
4, 128636, Note_off_c, 2, 57, 64
4, 128636, Note_off_c, 2, 61, 64
4, 128640, Note_on_c, 2, 67, 64
4, 128640, Note_on_c, 2, 62, 64
4, 128640, Note_on_c, 2, 59, 64
4, 129020, Note_off_c, 2, 59, 64
4, 129020, Note_off_c, 2, 62, 64
4, 129020, Note_off_c, 2, 67, 64
4, 129024, Note_on_c, 2, 64, 64
4, 129024, Note_on_c, 2, 61, 64
4, 129024, Note_on_c, 2, 57, 64
4, 129404, Note_off_c, 2, 57, 64
4, 129404, Note_off_c, 2, 61, 64
4, 129404, Note_off_c, 2, 64, 64
4, 129408, Note_on_c, 2, 61, 64
4, 129408, Note_on_c, 2, 64, 64
4, 129408, Note_on_c, 2, 57, 64
4, 129788, Note_off_c, 2, 57, 64
4, 129788, Note_off_c, 2, 64, 64
4, 129788, Note_off_c, 2, 61, 64
4, 129792, Note_on_c, 2, 61, 64
4, 129792, Note_on_c, 2, 64, 64
4, 129792, Note_on_c, 2, 57, 64
4, 130172, Note_off_c, 2, 57, 64
4, 130172, Note_off_c, 2, 64, 64
4, 130172, Note_off_c, 2, 61, 64
4, 130176, Note_on_c, 2, 61, 64
4, 130176, Note_on_c, 2, 64, 64
4, 130176, Note_on_c, 2, 57, 64
4, 130556, Note_off_c, 2, 57, 64
4, 130556, Note_off_c, 2, 64, 64
4, 130556, Note_off_c, 2, 61, 64
4, 130560, Note_on_c, 2, 61, 64
4, 130560, Note_on_c, 2, 64, 64
4, 130560, Note_on_c, 2, 57, 64
4, 130940, Note_off_c, 2, 57, 64
4, 130940, Note_off_c, 2, 64, 64
4, 130940, Note_off_c, 2, 61, 64
4, 130944, Note_on_c, 2, 61, 64
4, 130944, Note_on_c, 2, 57, 64
4, 130944, Note_on_c, 2, 64, 64
4, 131324, Note_off_c, 2, 64, 64
4, 131324, Note_off_c, 2, 57, 64
4, 131324, Note_off_c, 2, 61, 64
4, 131328, Note_on_c, 2, 61, 64
4, 131328, Note_on_c, 2, 57, 64
4, 131328, Note_on_c, 2, 64, 64
4, 131708, Note_off_c, 2, 64, 64
4, 131708, Note_off_c, 2, 57, 64
4, 131708, Note_off_c, 2, 61, 64
4, 131712, Note_on_c, 2, 67, 64
4, 131712, Note_on_c, 2, 62, 64
4, 131712, Note_on_c, 2, 59, 64
4, 132092, Note_off_c, 2, 59, 64
4, 132092, Note_off_c, 2, 62, 64
4, 132092, Note_off_c, 2, 67, 64
4, 132096, Note_on_c, 2, 67, 64
4, 132096, Note_on_c, 2, 62, 64
4, 132096, Note_on_c, 2, 59, 64
4, 133628, Note_off_c, 2, 59, 64
4, 133628, Note_off_c, 2, 62, 64
4, 133628, Note_off_c, 2, 67, 64
4, 133632, Note_on_c, 2, 64, 64
4, 133632, Note_on_c, 2, 69, 64
4, 133820, Note_off_c, 2, 69, 64
4, 133820, Note_off_c, 2, 64, 64
4, 133824, Note_on_c, 2, 64, 64
4, 133824, Note_on_c, 2, 69, 64
4, 134012, Note_off_c, 2, 69, 64
4, 134012, Note_off_c, 2, 64, 64
4, 134016, Note_on_c, 2, 64, 64
4, 134016, Note_on_c, 2, 69, 64
4, 134204, Note_off_c, 2, 69, 64
4, 134204, Note_off_c, 2, 64, 64
4, 134208, Note_on_c, 2, 64, 64
4, 134208, Note_on_c, 2, 69, 64
4, 134396, Note_off_c, 2, 69, 64
4, 134396, Note_off_c, 2, 64, 64
4, 134400, Note_on_c, 2, 64, 64
4, 134400, Note_on_c, 2, 69, 64
4, 134588, Note_off_c, 2, 69, 64
4, 134588, Note_off_c, 2, 64, 64
4, 134592, Note_on_c, 2, 64, 64
4, 134592, Note_on_c, 2, 69, 64
4, 134780, Note_off_c, 2, 69, 64
4, 134780, Note_off_c, 2, 64, 64
4, 134784, Note_on_c, 2, 64, 64
4, 134784, Note_on_c, 2, 69, 64
4, 134972, Note_off_c, 2, 69, 64
4, 134972, Note_off_c, 2, 64, 64
4, 134976, Note_on_c, 2, 69, 64
4, 134976, Note_on_c, 2, 64, 64
4, 135164, Note_off_c, 2, 64, 64
4, 135164, Note_off_c, 2, 69, 64
4, 135168, Note_on_c, 2, 64, 64
4, 135168, Note_on_c, 2, 69, 64
4, 135356, Note_off_c, 2, 69, 64
4, 135356, Note_off_c, 2, 64, 64
4, 135360, Note_on_c, 2, 64, 64
4, 135360, Note_on_c, 2, 69, 64
4, 135548, Note_off_c, 2, 69, 64
4, 135548, Note_off_c, 2, 64, 64
4, 135552, Note_on_c, 2, 64, 64
4, 135552, Note_on_c, 2, 69, 64
4, 135740, Note_off_c, 2, 69, 64
4, 135740, Note_off_c, 2, 64, 64
4, 135744, Note_on_c, 2, 64, 64
4, 135744, Note_on_c, 2, 69, 64
4, 135932, Note_off_c, 2, 69, 64
4, 135932, Note_off_c, 2, 64, 64
4, 135936, Note_on_c, 2, 64, 64
4, 135936, Note_on_c, 2, 69, 64
4, 136124, Note_off_c, 2, 69, 64
4, 136124, Note_off_c, 2, 64, 64
4, 136128, Note_on_c, 2, 72, 64
4, 136128, Note_on_c, 2, 66, 64
4, 136128, Note_on_c, 2, 63, 64
4, 136700, Note_off_c, 2, 63, 64
4, 136700, Note_off_c, 2, 66, 64
4, 136700, Note_off_c, 2, 72, 64
4, 136704, Note_on_c, 2, 64, 64
4, 136704, Note_on_c, 2, 69, 64
4, 136892, Note_off_c, 2, 69, 64
4, 136892, Note_off_c, 2, 64, 64
4, 136896, Note_on_c, 2, 64, 64
4, 136896, Note_on_c, 2, 69, 64
4, 137084, Note_off_c, 2, 69, 64
4, 137084, Note_off_c, 2, 64, 64
4, 137088, Note_on_c, 2, 64, 64
4, 137088, Note_on_c, 2, 69, 64
4, 137276, Note_off_c, 2, 69, 64
4, 137276, Note_off_c, 2, 64, 64
4, 137280, Note_on_c, 2, 64, 64
4, 137280, Note_on_c, 2, 69, 64
4, 137468, Note_off_c, 2, 69, 64
4, 137468, Note_off_c, 2, 64, 64
4, 137472, Note_on_c, 2, 64, 64
4, 137472, Note_on_c, 2, 69, 64
4, 137660, Note_off_c, 2, 69, 64
4, 137660, Note_off_c, 2, 64, 64
4, 137664, Note_on_c, 2, 64, 64
4, 137664, Note_on_c, 2, 69, 64
4, 137852, Note_off_c, 2, 69, 64
4, 137852, Note_off_c, 2, 64, 64
4, 137856, Note_on_c, 2, 64, 64
4, 137856, Note_on_c, 2, 69, 64
4, 138044, Note_off_c, 2, 69, 64
4, 138044, Note_off_c, 2, 64, 64
4, 138048, Note_on_c, 2, 69, 64
4, 138048, Note_on_c, 2, 64, 64
4, 138236, Note_off_c, 2, 64, 64
4, 138236, Note_off_c, 2, 69, 64
4, 138240, Note_on_c, 2, 64, 64
4, 138240, Note_on_c, 2, 69, 64
4, 138428, Note_off_c, 2, 69, 64
4, 138428, Note_off_c, 2, 64, 64
4, 138432, Note_on_c, 2, 64, 64
4, 138432, Note_on_c, 2, 69, 64
4, 138620, Note_off_c, 2, 69, 64
4, 138620, Note_off_c, 2, 64, 64
4, 138624, Note_on_c, 2, 64, 64
4, 138624, Note_on_c, 2, 69, 64
4, 138812, Note_off_c, 2, 69, 64
4, 138812, Note_off_c, 2, 64, 64
4, 138816, Note_on_c, 2, 64, 64
4, 138816, Note_on_c, 2, 69, 64
4, 139004, Note_off_c, 2, 69, 64
4, 139004, Note_off_c, 2, 64, 64
4, 139008, Note_on_c, 2, 64, 64
4, 139008, Note_on_c, 2, 69, 64
4, 139196, Note_off_c, 2, 69, 64
4, 139196, Note_off_c, 2, 64, 64
4, 139200, Note_on_c, 2, 72, 64
4, 139200, Note_on_c, 2, 66, 64
4, 139200, Note_on_c, 2, 63, 64
4, 139772, Note_off_c, 2, 63, 64
4, 139772, Note_off_c, 2, 66, 64
4, 139772, Note_off_c, 2, 72, 64
4, 139776, Note_on_c, 2, 64, 64
4, 139776, Note_on_c, 2, 69, 64
4, 139964, Note_off_c, 2, 69, 64
4, 139964, Note_off_c, 2, 64, 64
4, 139968, Note_on_c, 2, 64, 64
4, 139968, Note_on_c, 2, 69, 64
4, 140156, Note_off_c, 2, 69, 64
4, 140156, Note_off_c, 2, 64, 64
4, 140160, Note_on_c, 2, 64, 64
4, 140160, Note_on_c, 2, 69, 64
4, 140348, Note_off_c, 2, 69, 64
4, 140348, Note_off_c, 2, 64, 64
4, 140352, Note_on_c, 2, 64, 64
4, 140352, Note_on_c, 2, 69, 64
4, 140540, Note_off_c, 2, 69, 64
4, 140540, Note_off_c, 2, 64, 64
4, 140544, Note_on_c, 2, 64, 64
4, 140544, Note_on_c, 2, 69, 64
4, 140732, Note_off_c, 2, 69, 64
4, 140732, Note_off_c, 2, 64, 64
4, 140736, Note_on_c, 2, 64, 64
4, 140736, Note_on_c, 2, 69, 64
4, 140924, Note_off_c, 2, 69, 64
4, 140924, Note_off_c, 2, 64, 64
4, 140928, Note_on_c, 2, 64, 64
4, 140928, Note_on_c, 2, 69, 64
4, 141116, Note_off_c, 2, 69, 64
4, 141116, Note_off_c, 2, 64, 64
4, 141120, Note_on_c, 2, 69, 64
4, 141120, Note_on_c, 2, 64, 64
4, 141308, Note_off_c, 2, 64, 64
4, 141308, Note_off_c, 2, 69, 64
4, 141312, Note_on_c, 2, 64, 64
4, 141312, Note_on_c, 2, 69, 64
4, 141500, Note_off_c, 2, 69, 64
4, 141500, Note_off_c, 2, 64, 64
4, 141504, Note_on_c, 2, 64, 64
4, 141504, Note_on_c, 2, 69, 64
4, 141692, Note_off_c, 2, 69, 64
4, 141692, Note_off_c, 2, 64, 64
4, 141696, Note_on_c, 2, 64, 64
4, 141696, Note_on_c, 2, 69, 64
4, 141884, Note_off_c, 2, 69, 64
4, 141884, Note_off_c, 2, 64, 64
4, 141888, Note_on_c, 2, 64, 64
4, 141888, Note_on_c, 2, 69, 64
4, 142076, Note_off_c, 2, 69, 64
4, 142076, Note_off_c, 2, 64, 64
4, 142080, Note_on_c, 2, 64, 64
4, 142080, Note_on_c, 2, 69, 64
4, 142268, Note_off_c, 2, 69, 64
4, 142268, Note_off_c, 2, 64, 64
4, 142272, Note_on_c, 2, 72, 64
4, 142272, Note_on_c, 2, 66, 64
4, 142272, Note_on_c, 2, 63, 64
4, 142844, Note_off_c, 2, 63, 64
4, 142844, Note_off_c, 2, 66, 64
4, 142844, Note_off_c, 2, 72, 64
4, 142848, Note_on_c, 2, 64, 64
4, 142848, Note_on_c, 2, 69, 64
4, 143036, Note_off_c, 2, 69, 64
4, 143036, Note_off_c, 2, 64, 64
4, 143040, Note_on_c, 2, 64, 64
4, 143040, Note_on_c, 2, 69, 64
4, 143228, Note_off_c, 2, 69, 64
4, 143228, Note_off_c, 2, 64, 64
4, 143232, Note_on_c, 2, 64, 64
4, 143232, Note_on_c, 2, 69, 64
4, 143420, Note_off_c, 2, 69, 64
4, 143420, Note_off_c, 2, 64, 64
4, 143424, Note_on_c, 2, 64, 64
4, 143424, Note_on_c, 2, 69, 64
4, 143612, Note_off_c, 2, 69, 64
4, 143612, Note_off_c, 2, 64, 64
4, 143616, Note_on_c, 2, 64, 64
4, 143616, Note_on_c, 2, 69, 64
4, 143804, Note_off_c, 2, 69, 64
4, 143804, Note_off_c, 2, 64, 64
4, 143808, Note_on_c, 2, 64, 64
4, 143808, Note_on_c, 2, 69, 64
4, 143996, Note_off_c, 2, 69, 64
4, 143996, Note_off_c, 2, 64, 64
4, 144000, Note_on_c, 2, 64, 64
4, 144000, Note_on_c, 2, 69, 64
4, 144188, Note_off_c, 2, 69, 64
4, 144188, Note_off_c, 2, 64, 64
4, 144192, Note_on_c, 2, 69, 64
4, 144192, Note_on_c, 2, 64, 64
4, 144380, Note_off_c, 2, 64, 64
4, 144380, Note_off_c, 2, 69, 64
4, 144384, Note_on_c, 2, 64, 64
4, 144384, Note_on_c, 2, 69, 64
4, 144572, Note_off_c, 2, 69, 64
4, 144572, Note_off_c, 2, 64, 64
4, 144576, Note_on_c, 2, 64, 64
4, 144576, Note_on_c, 2, 69, 64
4, 144764, Note_off_c, 2, 69, 64
4, 144764, Note_off_c, 2, 64, 64
4, 144768, Note_on_c, 2, 64, 64
4, 144768, Note_on_c, 2, 69, 64
4, 144956, Note_off_c, 2, 69, 64
4, 144956, Note_off_c, 2, 64, 64
4, 144960, Note_on_c, 2, 64, 64
4, 144960, Note_on_c, 2, 69, 64
4, 145148, Note_off_c, 2, 69, 64
4, 145148, Note_off_c, 2, 64, 64
4, 145152, Note_on_c, 2, 64, 64
4, 145152, Note_on_c, 2, 69, 64
4, 145340, Note_off_c, 2, 69, 64
4, 145340, Note_off_c, 2, 64, 64
4, 145344, Note_on_c, 2, 72, 64
4, 145344, Note_on_c, 2, 66, 64
4, 145344, Note_on_c, 2, 63, 64
4, 145916, Note_off_c, 2, 63, 64
4, 145916, Note_off_c, 2, 66, 64
4, 145916, Note_off_c, 2, 72, 64
4, 145920, Note_on_c, 2, 64, 64
4, 145920, Note_on_c, 2, 69, 64
4, 146108, Note_off_c, 2, 69, 64
4, 146108, Note_off_c, 2, 64, 64
4, 146112, Note_on_c, 2, 64, 64
4, 146112, Note_on_c, 2, 69, 64
4, 146300, Note_off_c, 2, 69, 64
4, 146300, Note_off_c, 2, 64, 64
4, 146304, Note_on_c, 2, 64, 64
4, 146304, Note_on_c, 2, 69, 64
4, 146492, Note_off_c, 2, 69, 64
4, 146492, Note_off_c, 2, 64, 64
4, 146496, Note_on_c, 2, 64, 64
4, 146496, Note_on_c, 2, 69, 64
4, 146684, Note_off_c, 2, 69, 64
4, 146684, Note_off_c, 2, 64, 64
4, 146688, Note_on_c, 2, 64, 64
4, 146688, Note_on_c, 2, 69, 64
4, 146876, Note_off_c, 2, 69, 64
4, 146876, Note_off_c, 2, 64, 64
4, 146880, Note_on_c, 2, 64, 64
4, 146880, Note_on_c, 2, 69, 64
4, 147068, Note_off_c, 2, 69, 64
4, 147068, Note_off_c, 2, 64, 64
4, 147072, Note_on_c, 2, 64, 64
4, 147072, Note_on_c, 2, 69, 64
4, 147260, Note_off_c, 2, 69, 64
4, 147260, Note_off_c, 2, 64, 64
4, 147264, Note_on_c, 2, 69, 64
4, 147264, Note_on_c, 2, 64, 64
4, 147452, Note_off_c, 2, 64, 64
4, 147452, Note_off_c, 2, 69, 64
4, 147456, Note_on_c, 2, 64, 64
4, 147456, Note_on_c, 2, 69, 64
4, 147644, Note_off_c, 2, 69, 64
4, 147644, Note_off_c, 2, 64, 64
4, 147648, Note_on_c, 2, 64, 64
4, 147648, Note_on_c, 2, 69, 64
4, 147836, Note_off_c, 2, 69, 64
4, 147836, Note_off_c, 2, 64, 64
4, 147840, Note_on_c, 2, 64, 64
4, 147840, Note_on_c, 2, 69, 64
4, 148028, Note_off_c, 2, 69, 64
4, 148028, Note_off_c, 2, 64, 64
4, 148032, Note_on_c, 2, 64, 64
4, 148032, Note_on_c, 2, 69, 64
4, 148220, Note_off_c, 2, 69, 64
4, 148220, Note_off_c, 2, 64, 64
4, 148224, Note_on_c, 2, 64, 64
4, 148224, Note_on_c, 2, 69, 64
4, 148412, Note_off_c, 2, 69, 64
4, 148412, Note_off_c, 2, 64, 64
4, 148416, Note_on_c, 2, 72, 64
4, 148416, Note_on_c, 2, 66, 64
4, 148416, Note_on_c, 2, 63, 64
4, 148988, Note_off_c, 2, 63, 64
4, 148988, Note_off_c, 2, 66, 64
4, 148988, Note_off_c, 2, 72, 64
4, 148992, Note_on_c, 2, 64, 64
4, 148992, Note_on_c, 2, 69, 64
4, 149180, Note_off_c, 2, 69, 64
4, 149180, Note_off_c, 2, 64, 64
4, 149184, Note_on_c, 2, 64, 64
4, 149184, Note_on_c, 2, 69, 64
4, 149372, Note_off_c, 2, 69, 64
4, 149372, Note_off_c, 2, 64, 64
4, 149376, Note_on_c, 2, 64, 64
4, 149376, Note_on_c, 2, 69, 64
4, 149564, Note_off_c, 2, 69, 64
4, 149564, Note_off_c, 2, 64, 64
4, 149568, Note_on_c, 2, 64, 64
4, 149568, Note_on_c, 2, 69, 64
4, 149756, Note_off_c, 2, 69, 64
4, 149756, Note_off_c, 2, 64, 64
4, 149760, Note_on_c, 2, 64, 64
4, 149760, Note_on_c, 2, 69, 64
4, 149948, Note_off_c, 2, 69, 64
4, 149948, Note_off_c, 2, 64, 64
4, 149952, Note_on_c, 2, 64, 64
4, 149952, Note_on_c, 2, 69, 64
4, 150140, Note_off_c, 2, 69, 64
4, 150140, Note_off_c, 2, 64, 64
4, 150144, Note_on_c, 2, 64, 64
4, 150144, Note_on_c, 2, 69, 64
4, 150332, Note_off_c, 2, 69, 64
4, 150332, Note_off_c, 2, 64, 64
4, 150336, Note_on_c, 2, 69, 64
4, 150336, Note_on_c, 2, 64, 64
4, 150524, Note_off_c, 2, 64, 64
4, 150524, Note_off_c, 2, 69, 64
4, 150528, Note_on_c, 2, 64, 64
4, 150528, Note_on_c, 2, 69, 64
4, 150716, Note_off_c, 2, 69, 64
4, 150716, Note_off_c, 2, 64, 64
4, 150720, Note_on_c, 2, 64, 64
4, 150720, Note_on_c, 2, 69, 64
4, 150908, Note_off_c, 2, 69, 64
4, 150908, Note_off_c, 2, 64, 64
4, 150912, Note_on_c, 2, 64, 64
4, 150912, Note_on_c, 2, 69, 64
4, 151100, Note_off_c, 2, 69, 64
4, 151100, Note_off_c, 2, 64, 64
4, 151104, Note_on_c, 2, 64, 64
4, 151104, Note_on_c, 2, 69, 64
4, 151292, Note_off_c, 2, 69, 64
4, 151292, Note_off_c, 2, 64, 64
4, 151296, Note_on_c, 2, 64, 64
4, 151296, Note_on_c, 2, 69, 64
4, 151484, Note_off_c, 2, 69, 64
4, 151484, Note_off_c, 2, 64, 64
4, 151488, Note_on_c, 2, 72, 64
4, 151488, Note_on_c, 2, 66, 64
4, 151488, Note_on_c, 2, 63, 64
4, 152060, Note_off_c, 2, 63, 64
4, 152060, Note_off_c, 2, 66, 64
4, 152060, Note_off_c, 2, 72, 64
4, 152064, Note_on_c, 2, 64, 64
4, 152064, Note_on_c, 2, 69, 64
4, 152252, Note_off_c, 2, 69, 64
4, 152252, Note_off_c, 2, 64, 64
4, 152256, Note_on_c, 2, 64, 64
4, 152256, Note_on_c, 2, 69, 64
4, 152444, Note_off_c, 2, 69, 64
4, 152444, Note_off_c, 2, 64, 64
4, 152448, Note_on_c, 2, 64, 64
4, 152448, Note_on_c, 2, 69, 64
4, 152636, Note_off_c, 2, 69, 64
4, 152636, Note_off_c, 2, 64, 64
4, 152640, Note_on_c, 2, 64, 64
4, 152640, Note_on_c, 2, 69, 64
4, 152828, Note_off_c, 2, 69, 64
4, 152828, Note_off_c, 2, 64, 64
4, 152832, Note_on_c, 2, 64, 64
4, 152832, Note_on_c, 2, 69, 64
4, 153020, Note_off_c, 2, 69, 64
4, 153020, Note_off_c, 2, 64, 64
4, 153024, Note_on_c, 2, 64, 64
4, 153024, Note_on_c, 2, 69, 64
4, 153212, Note_off_c, 2, 69, 64
4, 153212, Note_off_c, 2, 64, 64
4, 153216, Note_on_c, 2, 64, 64
4, 153216, Note_on_c, 2, 69, 64
4, 153404, Note_off_c, 2, 69, 64
4, 153404, Note_off_c, 2, 64, 64
4, 153408, Note_on_c, 2, 69, 64
4, 153408, Note_on_c, 2, 64, 64
4, 153596, Note_off_c, 2, 64, 64
4, 153596, Note_off_c, 2, 69, 64
4, 153600, Note_on_c, 2, 64, 64
4, 153600, Note_on_c, 2, 69, 64
4, 153788, Note_off_c, 2, 69, 64
4, 153788, Note_off_c, 2, 64, 64
4, 153792, Note_on_c, 2, 64, 64
4, 153792, Note_on_c, 2, 69, 64
4, 153980, Note_off_c, 2, 69, 64
4, 153980, Note_off_c, 2, 64, 64
4, 153984, Note_on_c, 2, 64, 64
4, 153984, Note_on_c, 2, 69, 64
4, 154172, Note_off_c, 2, 69, 64
4, 154172, Note_off_c, 2, 64, 64
4, 154176, Note_on_c, 2, 64, 64
4, 154176, Note_on_c, 2, 69, 64
4, 154364, Note_off_c, 2, 69, 64
4, 154364, Note_off_c, 2, 64, 64
4, 154368, Note_on_c, 2, 64, 64
4, 154368, Note_on_c, 2, 69, 64
4, 154556, Note_off_c, 2, 69, 64
4, 154556, Note_off_c, 2, 64, 64
4, 154560, Note_on_c, 2, 72, 64
4, 154560, Note_on_c, 2, 66, 64
4, 154560, Note_on_c, 2, 63, 64
4, 155132, Note_off_c, 2, 63, 64
4, 155132, Note_off_c, 2, 66, 64
4, 155132, Note_off_c, 2, 72, 64
4, 155136, Note_on_c, 2, 64, 64
4, 155136, Note_on_c, 2, 69, 64
4, 155324, Note_off_c, 2, 69, 64
4, 155324, Note_off_c, 2, 64, 64
4, 155328, Note_on_c, 2, 64, 64
4, 155328, Note_on_c, 2, 69, 64
4, 155516, Note_off_c, 2, 69, 64
4, 155516, Note_off_c, 2, 64, 64
4, 155520, Note_on_c, 2, 64, 64
4, 155520, Note_on_c, 2, 69, 64
4, 155708, Note_off_c, 2, 69, 64
4, 155708, Note_off_c, 2, 64, 64
4, 155712, Note_on_c, 2, 64, 64
4, 155712, Note_on_c, 2, 69, 64
4, 155900, Note_off_c, 2, 69, 64
4, 155900, Note_off_c, 2, 64, 64
4, 155904, Note_on_c, 2, 64, 64
4, 155904, Note_on_c, 2, 69, 64
4, 156092, Note_off_c, 2, 69, 64
4, 156092, Note_off_c, 2, 64, 64
4, 156096, Note_on_c, 2, 64, 64
4, 156096, Note_on_c, 2, 69, 64
4, 156284, Note_off_c, 2, 69, 64
4, 156284, Note_off_c, 2, 64, 64
4, 156288, Note_on_c, 2, 64, 64
4, 156288, Note_on_c, 2, 69, 64
4, 156476, Note_off_c, 2, 69, 64
4, 156476, Note_off_c, 2, 64, 64
4, 156480, Note_on_c, 2, 69, 64
4, 156480, Note_on_c, 2, 64, 64
4, 156668, Note_off_c, 2, 64, 64
4, 156668, Note_off_c, 2, 69, 64
4, 156672, Note_on_c, 2, 64, 64
4, 156672, Note_on_c, 2, 69, 64
4, 156860, Note_off_c, 2, 69, 64
4, 156860, Note_off_c, 2, 64, 64
4, 156864, Note_on_c, 2, 64, 64
4, 156864, Note_on_c, 2, 69, 64
4, 157052, Note_off_c, 2, 69, 64
4, 157052, Note_off_c, 2, 64, 64
4, 157056, Note_on_c, 2, 64, 64
4, 157056, Note_on_c, 2, 69, 64
4, 157244, Note_off_c, 2, 69, 64
4, 157244, Note_off_c, 2, 64, 64
4, 157248, Note_on_c, 2, 64, 64
4, 157248, Note_on_c, 2, 69, 64
4, 157436, Note_off_c, 2, 69, 64
4, 157436, Note_off_c, 2, 64, 64
4, 157440, Note_on_c, 2, 64, 64
4, 157440, Note_on_c, 2, 69, 64
4, 157628, Note_off_c, 2, 69, 64
4, 157628, Note_off_c, 2, 64, 64
4, 157632, Note_on_c, 2, 72, 64
4, 157632, Note_on_c, 2, 66, 64
4, 157632, Note_on_c, 2, 63, 64
4, 158204, Note_off_c, 2, 63, 64
4, 158204, Note_off_c, 2, 66, 64
4, 158204, Note_off_c, 2, 72, 64
4, 158208, Note_on_c, 2, 64, 64
4, 158208, Note_on_c, 2, 69, 64
4, 158396, Note_off_c, 2, 69, 64
4, 158396, Note_off_c, 2, 64, 64
4, 158400, Note_on_c, 2, 64, 64
4, 158400, Note_on_c, 2, 69, 64
4, 158588, Note_off_c, 2, 69, 64
4, 158588, Note_off_c, 2, 64, 64
4, 158592, Note_on_c, 2, 64, 64
4, 158592, Note_on_c, 2, 69, 64
4, 158780, Note_off_c, 2, 69, 64
4, 158780, Note_off_c, 2, 64, 64
4, 158784, Note_on_c, 2, 64, 64
4, 158784, Note_on_c, 2, 69, 64
4, 158972, Note_off_c, 2, 69, 64
4, 158972, Note_off_c, 2, 64, 64
4, 158976, Note_on_c, 2, 64, 64
4, 158976, Note_on_c, 2, 69, 64
4, 159164, Note_off_c, 2, 69, 64
4, 159164, Note_off_c, 2, 64, 64
4, 159168, Note_on_c, 2, 64, 64
4, 159168, Note_on_c, 2, 69, 64
4, 159356, Note_off_c, 2, 69, 64
4, 159356, Note_off_c, 2, 64, 64
4, 159360, Note_on_c, 2, 64, 64
4, 159360, Note_on_c, 2, 69, 64
4, 159548, Note_off_c, 2, 69, 64
4, 159548, Note_off_c, 2, 64, 64
4, 159552, Note_on_c, 2, 69, 64
4, 159552, Note_on_c, 2, 64, 64
4, 159740, Note_off_c, 2, 64, 64
4, 159740, Note_off_c, 2, 69, 64
4, 159744, Note_on_c, 2, 64, 64
4, 159744, Note_on_c, 2, 69, 64
4, 159932, Note_off_c, 2, 69, 64
4, 159932, Note_off_c, 2, 64, 64
4, 159936, Note_on_c, 2, 64, 64
4, 159936, Note_on_c, 2, 69, 64
4, 160124, Note_off_c, 2, 69, 64
4, 160124, Note_off_c, 2, 64, 64
4, 160128, Note_on_c, 2, 64, 64
4, 160128, Note_on_c, 2, 69, 64
4, 160316, Note_off_c, 2, 69, 64
4, 160316, Note_off_c, 2, 64, 64
4, 160320, Note_on_c, 2, 64, 64
4, 160320, Note_on_c, 2, 69, 64
4, 160508, Note_off_c, 2, 69, 64
4, 160508, Note_off_c, 2, 64, 64
4, 160512, Note_on_c, 2, 64, 64
4, 160512, Note_on_c, 2, 69, 64
4, 160700, Note_off_c, 2, 69, 64
4, 160700, Note_off_c, 2, 64, 64
4, 160704, Note_on_c, 2, 72, 64
4, 160704, Note_on_c, 2, 66, 64
4, 160704, Note_on_c, 2, 63, 64
4, 161276, Note_off_c, 2, 63, 64
4, 161276, Note_off_c, 2, 66, 64
4, 161276, Note_off_c, 2, 72, 64
4, 161280, Note_on_c, 2, 64, 64
4, 161280, Note_on_c, 2, 69, 64
4, 161468, Note_off_c, 2, 69, 64
4, 161468, Note_off_c, 2, 64, 64
4, 161472, Note_on_c, 2, 64, 64
4, 161472, Note_on_c, 2, 69, 64
4, 161660, Note_off_c, 2, 69, 64
4, 161660, Note_off_c, 2, 64, 64
4, 161664, Note_on_c, 2, 64, 64
4, 161664, Note_on_c, 2, 69, 64
4, 161852, Note_off_c, 2, 69, 64
4, 161852, Note_off_c, 2, 64, 64
4, 161856, Note_on_c, 2, 64, 64
4, 161856, Note_on_c, 2, 69, 64
4, 162044, Note_off_c, 2, 69, 64
4, 162044, Note_off_c, 2, 64, 64
4, 162048, Note_on_c, 2, 64, 64
4, 162048, Note_on_c, 2, 69, 64
4, 162236, Note_off_c, 2, 69, 64
4, 162236, Note_off_c, 2, 64, 64
4, 162240, Note_on_c, 2, 64, 64
4, 162240, Note_on_c, 2, 69, 64
4, 162428, Note_off_c, 2, 69, 64
4, 162428, Note_off_c, 2, 64, 64
4, 162432, Note_on_c, 2, 64, 64
4, 162432, Note_on_c, 2, 69, 64
4, 162620, Note_off_c, 2, 69, 64
4, 162620, Note_off_c, 2, 64, 64
4, 162624, Note_on_c, 2, 69, 64
4, 162624, Note_on_c, 2, 64, 64
4, 162812, Note_off_c, 2, 64, 64
4, 162812, Note_off_c, 2, 69, 64
4, 162816, Note_on_c, 2, 64, 64
4, 162816, Note_on_c, 2, 69, 64
4, 163004, Note_off_c, 2, 69, 64
4, 163004, Note_off_c, 2, 64, 64
4, 163008, Note_on_c, 2, 64, 64
4, 163008, Note_on_c, 2, 69, 64
4, 163196, Note_off_c, 2, 69, 64
4, 163196, Note_off_c, 2, 64, 64
4, 163200, Note_on_c, 2, 64, 64
4, 163200, Note_on_c, 2, 69, 64
4, 163388, Note_off_c, 2, 69, 64
4, 163388, Note_off_c, 2, 64, 64
4, 163392, Note_on_c, 2, 64, 64
4, 163392, Note_on_c, 2, 69, 64
4, 163580, Note_off_c, 2, 69, 64
4, 163580, Note_off_c, 2, 64, 64
4, 163584, Note_on_c, 2, 64, 64
4, 163584, Note_on_c, 2, 69, 64
4, 163772, Note_off_c, 2, 69, 64
4, 163772, Note_off_c, 2, 64, 64
4, 163776, Note_on_c, 2, 72, 64
4, 163776, Note_on_c, 2, 66, 64
4, 163776, Note_on_c, 2, 63, 64
4, 164348, Note_off_c, 2, 63, 64
4, 164348, Note_off_c, 2, 66, 64
4, 164348, Note_off_c, 2, 72, 64
4, 164352, Note_on_c, 2, 64, 64
4, 164352, Note_on_c, 2, 69, 64
4, 164540, Note_off_c, 2, 69, 64
4, 164540, Note_off_c, 2, 64, 64
4, 164544, Note_on_c, 2, 64, 64
4, 164544, Note_on_c, 2, 69, 64
4, 164732, Note_off_c, 2, 69, 64
4, 164732, Note_off_c, 2, 64, 64
4, 164736, Note_on_c, 2, 64, 64
4, 164736, Note_on_c, 2, 69, 64
4, 164924, Note_off_c, 2, 69, 64
4, 164924, Note_off_c, 2, 64, 64
4, 164928, Note_on_c, 2, 64, 64
4, 164928, Note_on_c, 2, 69, 64
4, 165116, Note_off_c, 2, 69, 64
4, 165116, Note_off_c, 2, 64, 64
4, 165120, Note_on_c, 2, 64, 64
4, 165120, Note_on_c, 2, 69, 64
4, 165308, Note_off_c, 2, 69, 64
4, 165308, Note_off_c, 2, 64, 64
4, 165312, Note_on_c, 2, 64, 64
4, 165312, Note_on_c, 2, 69, 64
4, 165500, Note_off_c, 2, 69, 64
4, 165500, Note_off_c, 2, 64, 64
4, 165504, Note_on_c, 2, 64, 64
4, 165504, Note_on_c, 2, 69, 64
4, 165692, Note_off_c, 2, 69, 64
4, 165692, Note_off_c, 2, 64, 64
4, 165696, Note_on_c, 2, 69, 64
4, 165696, Note_on_c, 2, 64, 64
4, 165884, Note_off_c, 2, 64, 64
4, 165884, Note_off_c, 2, 69, 64
4, 165888, Note_on_c, 2, 64, 64
4, 165888, Note_on_c, 2, 69, 64
4, 166076, Note_off_c, 2, 69, 64
4, 166076, Note_off_c, 2, 64, 64
4, 166080, Note_on_c, 2, 64, 64
4, 166080, Note_on_c, 2, 69, 64
4, 166268, Note_off_c, 2, 69, 64
4, 166268, Note_off_c, 2, 64, 64
4, 166272, Note_on_c, 2, 64, 64
4, 166272, Note_on_c, 2, 69, 64
4, 166460, Note_off_c, 2, 69, 64
4, 166460, Note_off_c, 2, 64, 64
4, 166464, Note_on_c, 2, 64, 64
4, 166464, Note_on_c, 2, 69, 64
4, 166652, Note_off_c, 2, 69, 64
4, 166652, Note_off_c, 2, 64, 64
4, 166656, Note_on_c, 2, 64, 64
4, 166656, Note_on_c, 2, 69, 64
4, 166844, Note_off_c, 2, 69, 64
4, 166844, Note_off_c, 2, 64, 64
4, 166848, Note_on_c, 2, 72, 64
4, 166848, Note_on_c, 2, 66, 64
4, 166848, Note_on_c, 2, 63, 64
4, 167420, Note_off_c, 2, 63, 64
4, 167420, Note_off_c, 2, 66, 64
4, 167420, Note_off_c, 2, 72, 64
4, 167420, End_track
5, 0, Start_track
5, 0, Title_t, "bass"
5, 0, Control_c, 1, 7, 127
5, 3072, Control_c, 1, 7, 127
5, 3072, Note_on_c, 1, 45, 64
5, 3452, Note_off_c, 1, 45, 64
5, 3456, Note_on_c, 1, 45, 64
5, 3836, Note_off_c, 1, 45, 64
5, 3840, Note_on_c, 1, 45, 64
5, 4220, Note_off_c, 1, 45, 64
5, 4224, Note_on_c, 1, 45, 64
5, 4604, Note_off_c, 1, 45, 64
5, 4608, Note_on_c, 1, 45, 64
5, 4988, Note_off_c, 1, 45, 64
5, 4992, Note_on_c, 1, 45, 64
5, 5372, Note_off_c, 1, 45, 64
5, 5376, Note_on_c, 1, 45, 64
5, 5564, Note_off_c, 1, 45, 64
5, 5568, Note_on_c, 1, 40, 64
5, 5756, Note_off_c, 1, 40, 64
5, 5760, Note_on_c, 1, 43, 64
5, 6140, Note_off_c, 1, 43, 64
5, 6144, Note_on_c, 1, 45, 64
5, 6524, Note_off_c, 1, 45, 64
5, 6528, Note_on_c, 1, 45, 64
5, 6908, Note_off_c, 1, 45, 64
5, 6912, Note_on_c, 1, 45, 64
5, 7292, Note_off_c, 1, 45, 64
5, 7296, Note_on_c, 1, 45, 64
5, 7676, Note_off_c, 1, 45, 64
5, 7680, Note_on_c, 1, 45, 64
5, 8060, Note_off_c, 1, 45, 64
5, 8064, Note_on_c, 1, 45, 64
5, 8444, Note_off_c, 1, 45, 64
5, 8448, Note_on_c, 1, 45, 64
5, 8636, Note_off_c, 1, 45, 64
5, 8640, Note_on_c, 1, 40, 64
5, 8828, Note_off_c, 1, 40, 64
5, 8832, Note_on_c, 1, 43, 64
5, 9212, Note_off_c, 1, 43, 64
5, 9216, Note_on_c, 1, 45, 64
5, 9596, Note_off_c, 1, 45, 64
5, 9600, Note_on_c, 1, 45, 64
5, 9980, Note_off_c, 1, 45, 64
5, 9984, Note_on_c, 1, 45, 64
5, 10364, Note_off_c, 1, 45, 64
5, 10368, Note_on_c, 1, 45, 64
5, 10748, Note_off_c, 1, 45, 64
5, 10752, Note_on_c, 1, 45, 64
5, 11132, Note_off_c, 1, 45, 64
5, 11136, Note_on_c, 1, 45, 64
5, 11516, Note_off_c, 1, 45, 64
5, 11520, Note_on_c, 1, 45, 64
5, 11708, Note_off_c, 1, 45, 64
5, 11712, Note_on_c, 1, 40, 64
5, 11900, Note_off_c, 1, 40, 64
5, 11904, Note_on_c, 1, 43, 64
5, 12284, Note_off_c, 1, 43, 64
5, 12288, Note_on_c, 1, 45, 64
5, 12668, Note_off_c, 1, 45, 64
5, 12672, Note_on_c, 1, 45, 64
5, 13052, Note_off_c, 1, 45, 64
5, 13056, Note_on_c, 1, 45, 64
5, 13436, Note_off_c, 1, 45, 64
5, 13440, Note_on_c, 1, 45, 64
5, 13820, Note_off_c, 1, 45, 64
5, 13824, Note_on_c, 1, 45, 64
5, 14204, Note_off_c, 1, 45, 64
5, 14208, Note_on_c, 1, 45, 64
5, 14588, Note_off_c, 1, 45, 64
5, 14592, Note_on_c, 1, 45, 64
5, 14780, Note_off_c, 1, 45, 64
5, 14784, Note_on_c, 1, 41, 64
5, 14972, Note_off_c, 1, 41, 64
5, 14976, Note_on_c, 1, 43, 64
5, 15356, Note_off_c, 1, 43, 64
5, 15360, Note_on_c, 1, 45, 64
5, 15740, Note_off_c, 1, 45, 64
5, 15744, Note_on_c, 1, 45, 64
5, 16124, Note_off_c, 1, 45, 64
5, 16128, Note_on_c, 1, 45, 64
5, 16508, Note_off_c, 1, 45, 64
5, 16512, Note_on_c, 1, 45, 64
5, 16892, Note_off_c, 1, 45, 64
5, 16896, Note_on_c, 1, 45, 64
5, 17276, Note_off_c, 1, 45, 64
5, 17280, Note_on_c, 1, 45, 64
5, 17660, Note_off_c, 1, 45, 64
5, 17664, Note_on_c, 1, 45, 64
5, 17852, Note_off_c, 1, 45, 64
5, 17856, Note_on_c, 1, 40, 64
5, 18044, Note_off_c, 1, 40, 64
5, 18048, Note_on_c, 1, 44, 64
5, 18428, Note_off_c, 1, 44, 64
5, 18432, Note_on_c, 1, 45, 64
5, 18812, Note_off_c, 1, 45, 64
5, 18816, Note_on_c, 1, 45, 64
5, 19196, Note_off_c, 1, 45, 64
5, 19200, Note_on_c, 1, 45, 64
5, 19580, Note_off_c, 1, 45, 64
5, 19584, Note_on_c, 1, 45, 64
5, 19964, Note_off_c, 1, 45, 64
5, 19968, Note_on_c, 1, 45, 64
5, 20348, Note_off_c, 1, 45, 64
5, 20352, Note_on_c, 1, 45, 64
5, 20732, Note_off_c, 1, 45, 64
5, 20736, Note_on_c, 1, 45, 64
5, 20924, Note_off_c, 1, 45, 64
5, 20928, Note_on_c, 1, 40, 64
5, 21116, Note_off_c, 1, 40, 64
5, 21120, Note_on_c, 1, 44, 64
5, 21500, Note_off_c, 1, 44, 64
5, 21504, Note_on_c, 1, 45, 64
5, 21884, Note_off_c, 1, 45, 64
5, 21888, Note_on_c, 1, 45, 64
5, 22268, Note_off_c, 1, 45, 64
5, 22272, Note_on_c, 1, 45, 64
5, 22652, Note_off_c, 1, 45, 64
5, 22656, Note_on_c, 1, 45, 64
5, 23036, Note_off_c, 1, 45, 64
5, 23040, Note_on_c, 1, 45, 64
5, 23420, Note_off_c, 1, 45, 64
5, 23424, Note_on_c, 1, 45, 64
5, 23804, Note_off_c, 1, 45, 64
5, 23808, Note_on_c, 1, 45, 64
5, 23996, Note_off_c, 1, 45, 64
5, 24000, Note_on_c, 1, 40, 64
5, 24188, Note_off_c, 1, 40, 64
5, 24192, Note_on_c, 1, 44, 64
5, 24572, Note_off_c, 1, 44, 64
5, 24576, Note_on_c, 1, 45, 64
5, 24956, Note_off_c, 1, 45, 64
5, 24960, Note_on_c, 1, 45, 64
5, 25340, Note_off_c, 1, 45, 64
5, 25344, Note_on_c, 1, 45, 64
5, 25724, Note_off_c, 1, 45, 64
5, 25728, Note_on_c, 1, 45, 64
5, 26108, Note_off_c, 1, 45, 64
5, 26112, Note_on_c, 1, 45, 64
5, 26492, Note_off_c, 1, 45, 64
5, 26496, Note_on_c, 1, 45, 64
5, 26876, Note_off_c, 1, 45, 64
5, 26880, Note_on_c, 1, 45, 64
5, 27068, Note_off_c, 1, 45, 64
5, 27072, Note_on_c, 1, 40, 64
5, 27260, Note_off_c, 1, 40, 64
5, 27264, Note_on_c, 1, 44, 64
5, 27644, Note_off_c, 1, 44, 64
5, 27648, Note_on_c, 1, 41, 64
5, 28028, Note_off_c, 1, 41, 64
5, 28032, Note_on_c, 1, 38, 64
5, 28220, Note_off_c, 1, 38, 64
5, 28224, Note_on_c, 1, 36, 64
5, 28412, Note_off_c, 1, 36, 64
5, 28416, Note_on_c, 1, 41, 64
5, 28796, Note_off_c, 1, 41, 64
5, 28800, Note_on_c, 1, 38, 64
5, 28988, Note_off_c, 1, 38, 64
5, 28992, Note_on_c, 1, 36, 64
5, 29180, Note_off_c, 1, 36, 64
5, 29184, Note_on_c, 1, 43, 64
5, 29564, Note_off_c, 1, 43, 64
5, 29568, Note_on_c, 1, 40, 64
5, 29756, Note_off_c, 1, 40, 64
5, 29760, Note_on_c, 1, 38, 64
5, 29948, Note_off_c, 1, 38, 64
5, 29952, Note_on_c, 1, 43, 64
5, 30332, Note_off_c, 1, 43, 64
5, 30336, Note_on_c, 1, 40, 64
5, 30524, Note_off_c, 1, 40, 64
5, 30528, Note_on_c, 1, 38, 64
5, 30716, Note_off_c, 1, 38, 64
5, 30720, Note_on_c, 1, 45, 64
5, 31100, Note_off_c, 1, 45, 64
5, 31104, Note_on_c, 1, 45, 64
5, 31292, Note_off_c, 1, 45, 64
5, 31296, Note_on_c, 1, 43, 64
5, 31484, Note_off_c, 1, 43, 64
5, 31488, Note_on_c, 1, 45, 64
5, 31868, Note_off_c, 1, 45, 64
5, 31872, Note_on_c, 1, 45, 64
5, 32060, Note_off_c, 1, 45, 64
5, 32064, Note_on_c, 1, 43, 64
5, 32252, Note_off_c, 1, 43, 64
5, 32256, Note_on_c, 1, 45, 64
5, 32636, Note_off_c, 1, 45, 64
5, 32640, Note_on_c, 1, 45, 64
5, 32828, Note_off_c, 1, 45, 64
5, 32832, Note_on_c, 1, 43, 64
5, 33020, Note_off_c, 1, 43, 64
5, 33024, Note_on_c, 1, 45, 64
5, 33404, Note_off_c, 1, 45, 64
5, 33408, Note_on_c, 1, 45, 64
5, 33788, Note_off_c, 1, 45, 64
5, 33792, Note_on_c, 1, 41, 64
5, 34172, Note_off_c, 1, 41, 64
5, 34176, Note_on_c, 1, 38, 64
5, 34364, Note_off_c, 1, 38, 64
5, 34368, Note_on_c, 1, 36, 64
5, 34556, Note_off_c, 1, 36, 64
5, 34560, Note_on_c, 1, 41, 64
5, 34940, Note_off_c, 1, 41, 64
5, 34944, Note_on_c, 1, 38, 64
5, 35132, Note_off_c, 1, 38, 64
5, 35136, Note_on_c, 1, 36, 64
5, 35324, Note_off_c, 1, 36, 64
5, 35328, Note_on_c, 1, 43, 64
5, 35708, Note_off_c, 1, 43, 64
5, 35712, Note_on_c, 1, 40, 64
5, 35900, Note_off_c, 1, 40, 64
5, 35904, Note_on_c, 1, 38, 64
5, 36092, Note_off_c, 1, 38, 64
5, 36096, Note_on_c, 1, 43, 64
5, 36476, Note_off_c, 1, 43, 64
5, 36480, Note_on_c, 1, 40, 64
5, 36668, Note_off_c, 1, 40, 64
5, 36672, Note_on_c, 1, 38, 64
5, 36860, Note_off_c, 1, 38, 64
5, 36864, Note_on_c, 1, 36, 64
5, 37244, Note_off_c, 1, 36, 64
5, 37248, Note_on_c, 1, 36, 64
5, 37436, Note_off_c, 1, 36, 64
5, 37440, Note_on_c, 1, 35, 64
5, 37628, Note_off_c, 1, 35, 64
5, 37632, Note_on_c, 1, 36, 64
5, 38012, Note_off_c, 1, 36, 64
5, 38016, Note_on_c, 1, 36, 64
5, 38204, Note_off_c, 1, 36, 64
5, 38208, Note_on_c, 1, 35, 64
5, 38396, Note_off_c, 1, 35, 64
5, 38400, Note_on_c, 1, 36, 64
5, 38780, Note_off_c, 1, 36, 64
5, 38784, Note_on_c, 1, 36, 64
5, 38972, Note_off_c, 1, 36, 64
5, 38976, Note_on_c, 1, 35, 64
5, 39164, Note_off_c, 1, 35, 64
5, 39168, Note_on_c, 1, 36, 64
5, 39548, Note_off_c, 1, 36, 64
5, 39552, Note_on_c, 1, 36, 64
5, 39932, Note_off_c, 1, 36, 64
5, 39936, Note_on_c, 1, 41, 64
5, 40316, Note_off_c, 1, 41, 64
5, 40320, Note_on_c, 1, 38, 64
5, 40508, Note_off_c, 1, 38, 64
5, 40512, Note_on_c, 1, 36, 64
5, 40700, Note_off_c, 1, 36, 64
5, 40704, Note_on_c, 1, 41, 64
5, 41084, Note_off_c, 1, 41, 64
5, 41088, Note_on_c, 1, 38, 64
5, 41276, Note_off_c, 1, 38, 64
5, 41280, Note_on_c, 1, 36, 64
5, 41468, Note_off_c, 1, 36, 64
5, 41472, Note_on_c, 1, 43, 64
5, 41852, Note_off_c, 1, 43, 64
5, 41856, Note_on_c, 1, 40, 64
5, 42044, Note_off_c, 1, 40, 64
5, 42048, Note_on_c, 1, 38, 64
5, 42236, Note_off_c, 1, 38, 64
5, 42240, Note_on_c, 1, 43, 64
5, 42620, Note_off_c, 1, 43, 64
5, 42624, Note_on_c, 1, 40, 64
5, 42812, Note_off_c, 1, 40, 64
5, 42816, Note_on_c, 1, 38, 64
5, 43004, Note_off_c, 1, 38, 64
5, 43008, Note_on_c, 1, 45, 64
5, 43388, Note_off_c, 1, 45, 64
5, 43392, Note_on_c, 1, 45, 64
5, 43580, Note_off_c, 1, 45, 64
5, 43584, Note_on_c, 1, 43, 64
5, 43772, Note_off_c, 1, 43, 64
5, 43776, Note_on_c, 1, 45, 64
5, 44156, Note_off_c, 1, 45, 64
5, 44160, Note_on_c, 1, 45, 64
5, 44348, Note_off_c, 1, 45, 64
5, 44352, Note_on_c, 1, 43, 64
5, 44540, Note_off_c, 1, 43, 64
5, 44544, Note_on_c, 1, 45, 64
5, 44924, Note_off_c, 1, 45, 64
5, 44928, Note_on_c, 1, 45, 64
5, 45116, Note_off_c, 1, 45, 64
5, 45120, Note_on_c, 1, 43, 64
5, 45308, Note_off_c, 1, 43, 64
5, 45312, Note_on_c, 1, 45, 64
5, 45692, Note_off_c, 1, 45, 64
5, 45696, Note_on_c, 1, 45, 64
5, 46076, Note_off_c, 1, 45, 64
5, 46080, Note_on_c, 1, 41, 64
5, 46460, Note_off_c, 1, 41, 64
5, 46464, Note_on_c, 1, 38, 64
5, 46652, Note_off_c, 1, 38, 64
5, 46656, Note_on_c, 1, 36, 64
5, 46844, Note_off_c, 1, 36, 64
5, 46848, Note_on_c, 1, 41, 64
5, 47228, Note_off_c, 1, 41, 64
5, 47232, Note_on_c, 1, 38, 64
5, 47420, Note_off_c, 1, 38, 64
5, 47424, Note_on_c, 1, 36, 64
5, 47612, Note_off_c, 1, 36, 64
5, 47616, Note_on_c, 1, 43, 64
5, 47996, Note_off_c, 1, 43, 64
5, 48000, Note_on_c, 1, 40, 64
5, 48188, Note_off_c, 1, 40, 64
5, 48192, Note_on_c, 1, 38, 64
5, 48380, Note_off_c, 1, 38, 64
5, 48384, Note_on_c, 1, 43, 64
5, 48764, Note_off_c, 1, 43, 64
5, 48768, Note_on_c, 1, 40, 64
5, 48956, Note_off_c, 1, 40, 64
5, 48960, Note_on_c, 1, 38, 64
5, 49148, Note_off_c, 1, 38, 64
5, 49152, Note_on_c, 1, 36, 64
5, 49532, Note_off_c, 1, 36, 64
5, 49536, Note_on_c, 1, 36, 64
5, 49724, Note_off_c, 1, 36, 64
5, 49728, Note_on_c, 1, 35, 64
5, 49916, Note_off_c, 1, 35, 64
5, 49920, Note_on_c, 1, 36, 64
5, 50300, Note_off_c, 1, 36, 64
5, 50304, Note_on_c, 1, 36, 64
5, 50492, Note_off_c, 1, 36, 64
5, 50496, Note_on_c, 1, 35, 64
5, 50684, Note_off_c, 1, 35, 64
5, 50688, Note_on_c, 1, 36, 64
5, 51068, Note_off_c, 1, 36, 64
5, 51072, Note_on_c, 1, 36, 64
5, 51260, Note_off_c, 1, 36, 64
5, 51264, Note_on_c, 1, 35, 64
5, 51452, Note_off_c, 1, 35, 64
5, 51456, Note_on_c, 1, 36, 64
5, 51836, Note_off_c, 1, 36, 64
5, 51840, Note_on_c, 1, 36, 64
5, 52220, Note_off_c, 1, 36, 64
5, 52224, Note_on_c, 1, 41, 64
5, 52604, Note_off_c, 1, 41, 64
5, 52608, Note_on_c, 1, 38, 64
5, 52796, Note_off_c, 1, 38, 64
5, 52800, Note_on_c, 1, 36, 64
5, 52988, Note_off_c, 1, 36, 64
5, 52992, Note_on_c, 1, 41, 64
5, 53372, Note_off_c, 1, 41, 64
5, 53376, Note_on_c, 1, 38, 64
5, 53564, Note_off_c, 1, 38, 64
5, 53568, Note_on_c, 1, 36, 64
5, 53756, Note_off_c, 1, 36, 64
5, 53760, Note_on_c, 1, 43, 64
5, 54140, Note_off_c, 1, 43, 64
5, 54144, Note_on_c, 1, 40, 64
5, 54332, Note_off_c, 1, 40, 64
5, 54336, Note_on_c, 1, 38, 64
5, 54524, Note_off_c, 1, 38, 64
5, 54528, Note_on_c, 1, 43, 64
5, 54908, Note_off_c, 1, 43, 64
5, 54912, Note_on_c, 1, 40, 64
5, 55100, Note_off_c, 1, 40, 64
5, 55104, Note_on_c, 1, 38, 64
5, 55292, Note_off_c, 1, 38, 64
5, 55296, Note_on_c, 1, 45, 64
5, 55676, Note_off_c, 1, 45, 64
5, 55680, Note_on_c, 1, 45, 64
5, 56060, Note_off_c, 1, 45, 64
5, 56064, Note_on_c, 1, 45, 64
5, 56444, Note_off_c, 1, 45, 64
5, 56448, Note_on_c, 1, 45, 64
5, 56828, Note_off_c, 1, 45, 64
5, 56832, Note_on_c, 1, 45, 64
5, 57212, Note_off_c, 1, 45, 64
5, 57216, Note_on_c, 1, 45, 64
5, 57596, Note_off_c, 1, 45, 64
5, 57600, Note_on_c, 1, 45, 64
5, 57788, Note_off_c, 1, 45, 64
5, 57792, Note_on_c, 1, 40, 64
5, 57980, Note_off_c, 1, 40, 64
5, 57984, Note_on_c, 1, 43, 64
5, 58364, Note_off_c, 1, 43, 64
5, 58368, Note_on_c, 1, 45, 64
5, 58748, Note_off_c, 1, 45, 64
5, 58752, Note_on_c, 1, 45, 64
5, 59132, Note_off_c, 1, 45, 64
5, 59136, Note_on_c, 1, 45, 64
5, 59516, Note_off_c, 1, 45, 64
5, 59520, Note_on_c, 1, 45, 64
5, 59900, Note_off_c, 1, 45, 64
5, 59904, Note_on_c, 1, 45, 64
5, 60284, Note_off_c, 1, 45, 64
5, 60288, Note_on_c, 1, 45, 64
5, 60668, Note_off_c, 1, 45, 64
5, 60672, Note_on_c, 1, 45, 64
5, 60860, Note_off_c, 1, 45, 64
5, 60864, Note_on_c, 1, 40, 64
5, 61052, Note_off_c, 1, 40, 64
5, 61056, Note_on_c, 1, 43, 64
5, 61436, Note_off_c, 1, 43, 64
5, 61440, Note_on_c, 1, 45, 64
5, 61820, Note_off_c, 1, 45, 64
5, 61824, Note_on_c, 1, 45, 64
5, 62204, Note_off_c, 1, 45, 64
5, 62208, Note_on_c, 1, 45, 64
5, 62588, Note_off_c, 1, 45, 64
5, 62592, Note_on_c, 1, 45, 64
5, 62972, Note_off_c, 1, 45, 64
5, 62976, Note_on_c, 1, 45, 64
5, 63356, Note_off_c, 1, 45, 64
5, 63360, Note_on_c, 1, 45, 64
5, 63740, Note_off_c, 1, 45, 64
5, 63744, Note_on_c, 1, 45, 64
5, 63932, Note_off_c, 1, 45, 64
5, 63936, Note_on_c, 1, 40, 64
5, 64124, Note_off_c, 1, 40, 64
5, 64128, Note_on_c, 1, 43, 64
5, 64508, Note_off_c, 1, 43, 64
5, 64512, Note_on_c, 1, 45, 64
5, 64892, Note_off_c, 1, 45, 64
5, 64896, Note_on_c, 1, 45, 64
5, 65276, Note_off_c, 1, 45, 64
5, 65280, Note_on_c, 1, 45, 64
5, 65660, Note_off_c, 1, 45, 64
5, 65664, Note_on_c, 1, 45, 64
5, 66044, Note_off_c, 1, 45, 64
5, 66048, Note_on_c, 1, 45, 64
5, 66428, Note_off_c, 1, 45, 64
5, 66432, Note_on_c, 1, 45, 64
5, 66812, Note_off_c, 1, 45, 64
5, 66816, Note_on_c, 1, 45, 64
5, 67004, Note_off_c, 1, 45, 64
5, 67008, Note_on_c, 1, 40, 64
5, 67196, Note_off_c, 1, 40, 64
5, 67200, Note_on_c, 1, 43, 64
5, 67580, Note_off_c, 1, 43, 64
5, 67584, Note_on_c, 1, 45, 64
5, 67964, Note_off_c, 1, 45, 64
5, 67968, Note_on_c, 1, 45, 64
5, 68348, Note_off_c, 1, 45, 64
5, 68352, Note_on_c, 1, 45, 64
5, 68732, Note_off_c, 1, 45, 64
5, 68736, Note_on_c, 1, 45, 64
5, 69116, Note_off_c, 1, 45, 64
5, 69120, Note_on_c, 1, 45, 64
5, 69500, Note_off_c, 1, 45, 64
5, 69504, Note_on_c, 1, 45, 64
5, 69884, Note_off_c, 1, 45, 64
5, 69888, Note_on_c, 1, 45, 64
5, 70076, Note_off_c, 1, 45, 64
5, 70080, Note_on_c, 1, 40, 64
5, 70268, Note_off_c, 1, 40, 64
5, 70272, Note_on_c, 1, 43, 64
5, 70652, Note_off_c, 1, 43, 64
5, 70656, Note_on_c, 1, 45, 64
5, 71036, Note_off_c, 1, 45, 64
5, 71040, Note_on_c, 1, 45, 64
5, 71420, Note_off_c, 1, 45, 64
5, 71424, Note_on_c, 1, 45, 64
5, 71804, Note_off_c, 1, 45, 64
5, 71808, Note_on_c, 1, 45, 64
5, 72188, Note_off_c, 1, 45, 64
5, 72192, Note_on_c, 1, 45, 64
5, 72572, Note_off_c, 1, 45, 64
5, 72576, Note_on_c, 1, 45, 64
5, 72956, Note_off_c, 1, 45, 64
5, 72960, Note_on_c, 1, 45, 64
5, 73148, Note_off_c, 1, 45, 64
5, 73152, Note_on_c, 1, 40, 64
5, 73340, Note_off_c, 1, 40, 64
5, 73344, Note_on_c, 1, 43, 64
5, 73724, Note_off_c, 1, 43, 64
5, 73728, Note_on_c, 1, 41, 64
5, 74108, Note_off_c, 1, 41, 64
5, 74112, Note_on_c, 1, 38, 64
5, 74300, Note_off_c, 1, 38, 64
5, 74304, Note_on_c, 1, 36, 64
5, 74492, Note_off_c, 1, 36, 64
5, 74496, Note_on_c, 1, 41, 64
5, 74876, Note_off_c, 1, 41, 64
5, 74880, Note_on_c, 1, 38, 64
5, 75068, Note_off_c, 1, 38, 64
5, 75072, Note_on_c, 1, 36, 64
5, 75260, Note_off_c, 1, 36, 64
5, 75264, Note_on_c, 1, 43, 64
5, 75644, Note_off_c, 1, 43, 64
5, 75648, Note_on_c, 1, 40, 64
5, 75836, Note_off_c, 1, 40, 64
5, 75840, Note_on_c, 1, 38, 64
5, 76028, Note_off_c, 1, 38, 64
5, 76032, Note_on_c, 1, 43, 64
5, 76412, Note_off_c, 1, 43, 64
5, 76416, Note_on_c, 1, 40, 64
5, 76604, Note_off_c, 1, 40, 64
5, 76608, Note_on_c, 1, 38, 64
5, 76796, Note_off_c, 1, 38, 64
5, 76800, Note_on_c, 1, 45, 64
5, 77180, Note_off_c, 1, 45, 64
5, 77184, Note_on_c, 1, 45, 64
5, 77372, Note_off_c, 1, 45, 64
5, 77376, Note_on_c, 1, 43, 64
5, 77564, Note_off_c, 1, 43, 64
5, 77568, Note_on_c, 1, 45, 64
5, 77948, Note_off_c, 1, 45, 64
5, 77952, Note_on_c, 1, 45, 64
5, 78140, Note_off_c, 1, 45, 64
5, 78144, Note_on_c, 1, 43, 64
5, 78332, Note_off_c, 1, 43, 64
5, 78336, Note_on_c, 1, 45, 64
5, 78716, Note_off_c, 1, 45, 64
5, 78720, Note_on_c, 1, 45, 64
5, 78908, Note_off_c, 1, 45, 64
5, 78912, Note_on_c, 1, 43, 64
5, 79100, Note_off_c, 1, 43, 64
5, 79104, Note_on_c, 1, 45, 64
5, 79484, Note_off_c, 1, 45, 64
5, 79488, Note_on_c, 1, 45, 64
5, 79868, Note_off_c, 1, 45, 64
5, 79872, Note_on_c, 1, 41, 64
5, 80252, Note_off_c, 1, 41, 64
5, 80256, Note_on_c, 1, 38, 64
5, 80444, Note_off_c, 1, 38, 64
5, 80448, Note_on_c, 1, 36, 64
5, 80636, Note_off_c, 1, 36, 64
5, 80640, Note_on_c, 1, 41, 64
5, 81020, Note_off_c, 1, 41, 64
5, 81024, Note_on_c, 1, 38, 64
5, 81212, Note_off_c, 1, 38, 64
5, 81216, Note_on_c, 1, 36, 64
5, 81404, Note_off_c, 1, 36, 64
5, 81408, Note_on_c, 1, 43, 64
5, 81788, Note_off_c, 1, 43, 64
5, 81792, Note_on_c, 1, 40, 64
5, 81980, Note_off_c, 1, 40, 64
5, 81984, Note_on_c, 1, 38, 64
5, 82172, Note_off_c, 1, 38, 64
5, 82176, Note_on_c, 1, 43, 64
5, 82556, Note_off_c, 1, 43, 64
5, 82560, Note_on_c, 1, 40, 64
5, 82748, Note_off_c, 1, 40, 64
5, 82752, Note_on_c, 1, 38, 64
5, 82940, Note_off_c, 1, 38, 64
5, 82944, Note_on_c, 1, 36, 64
5, 83324, Note_off_c, 1, 36, 64
5, 83328, Note_on_c, 1, 36, 64
5, 83516, Note_off_c, 1, 36, 64
5, 83520, Note_on_c, 1, 35, 64
5, 83708, Note_off_c, 1, 35, 64
5, 83712, Note_on_c, 1, 36, 64
5, 84092, Note_off_c, 1, 36, 64
5, 84096, Note_on_c, 1, 36, 64
5, 84284, Note_off_c, 1, 36, 64
5, 84288, Note_on_c, 1, 35, 64
5, 84476, Note_off_c, 1, 35, 64
5, 84480, Note_on_c, 1, 36, 64
5, 84860, Note_off_c, 1, 36, 64
5, 84864, Note_on_c, 1, 36, 64
5, 85052, Note_off_c, 1, 36, 64
5, 85056, Note_on_c, 1, 35, 64
5, 85244, Note_off_c, 1, 35, 64
5, 85248, Note_on_c, 1, 36, 64
5, 85628, Note_off_c, 1, 36, 64
5, 85632, Note_on_c, 1, 36, 64
5, 86012, Note_off_c, 1, 36, 64
5, 86016, Note_on_c, 1, 41, 64
5, 86396, Note_off_c, 1, 41, 64
5, 86400, Note_on_c, 1, 38, 64
5, 86588, Note_off_c, 1, 38, 64
5, 86592, Note_on_c, 1, 36, 64
5, 86780, Note_off_c, 1, 36, 64
5, 86784, Note_on_c, 1, 41, 64
5, 87164, Note_off_c, 1, 41, 64
5, 87168, Note_on_c, 1, 38, 64
5, 87356, Note_off_c, 1, 38, 64
5, 87360, Note_on_c, 1, 36, 64
5, 87548, Note_off_c, 1, 36, 64
5, 87552, Note_on_c, 1, 43, 64
5, 87932, Note_off_c, 1, 43, 64
5, 87936, Note_on_c, 1, 40, 64
5, 88124, Note_off_c, 1, 40, 64
5, 88128, Note_on_c, 1, 38, 64
5, 88316, Note_off_c, 1, 38, 64
5, 88320, Note_on_c, 1, 43, 64
5, 88700, Note_off_c, 1, 43, 64
5, 88704, Note_on_c, 1, 40, 64
5, 88892, Note_off_c, 1, 40, 64
5, 88896, Note_on_c, 1, 38, 64
5, 89084, Note_off_c, 1, 38, 64
5, 89088, Note_on_c, 1, 45, 64
5, 89468, Note_off_c, 1, 45, 64
5, 89472, Note_on_c, 1, 45, 64
5, 89660, Note_off_c, 1, 45, 64
5, 89664, Note_on_c, 1, 43, 64
5, 89852, Note_off_c, 1, 43, 64
5, 89856, Note_on_c, 1, 45, 64
5, 90236, Note_off_c, 1, 45, 64
5, 90240, Note_on_c, 1, 45, 64
5, 90428, Note_off_c, 1, 45, 64
5, 90432, Note_on_c, 1, 43, 64
5, 90620, Note_off_c, 1, 43, 64
5, 90624, Note_on_c, 1, 45, 64
5, 91004, Note_off_c, 1, 45, 64
5, 91008, Note_on_c, 1, 45, 64
5, 91196, Note_off_c, 1, 45, 64
5, 91200, Note_on_c, 1, 43, 64
5, 91388, Note_off_c, 1, 43, 64
5, 91392, Note_on_c, 1, 45, 64
5, 91772, Note_off_c, 1, 45, 64
5, 91776, Note_on_c, 1, 45, 64
5, 92156, Note_off_c, 1, 45, 64
5, 92160, Note_on_c, 1, 41, 64
5, 92540, Note_off_c, 1, 41, 64
5, 92544, Note_on_c, 1, 38, 64
5, 92732, Note_off_c, 1, 38, 64
5, 92736, Note_on_c, 1, 36, 64
5, 92924, Note_off_c, 1, 36, 64
5, 92928, Note_on_c, 1, 41, 64
5, 93308, Note_off_c, 1, 41, 64
5, 93312, Note_on_c, 1, 38, 64
5, 93500, Note_off_c, 1, 38, 64
5, 93504, Note_on_c, 1, 36, 64
5, 93692, Note_off_c, 1, 36, 64
5, 93696, Note_on_c, 1, 43, 64
5, 94076, Note_off_c, 1, 43, 64
5, 94080, Note_on_c, 1, 40, 64
5, 94268, Note_off_c, 1, 40, 64
5, 94272, Note_on_c, 1, 38, 64
5, 94460, Note_off_c, 1, 38, 64
5, 94464, Note_on_c, 1, 43, 64
5, 94844, Note_off_c, 1, 43, 64
5, 94848, Note_on_c, 1, 40, 64
5, 95036, Note_off_c, 1, 40, 64
5, 95040, Note_on_c, 1, 38, 64
5, 95228, Note_off_c, 1, 38, 64
5, 95232, Note_on_c, 1, 36, 64
5, 95612, Note_off_c, 1, 36, 64
5, 95616, Note_on_c, 1, 36, 64
5, 95804, Note_off_c, 1, 36, 64
5, 95808, Note_on_c, 1, 35, 64
5, 95996, Note_off_c, 1, 35, 64
5, 96000, Note_on_c, 1, 36, 64
5, 96380, Note_off_c, 1, 36, 64
5, 96384, Note_on_c, 1, 36, 64
5, 96572, Note_off_c, 1, 36, 64
5, 96576, Note_on_c, 1, 35, 64
5, 96764, Note_off_c, 1, 35, 64
5, 96768, Note_on_c, 1, 36, 64
5, 97148, Note_off_c, 1, 36, 64
5, 97152, Note_on_c, 1, 36, 64
5, 97340, Note_off_c, 1, 36, 64
5, 97344, Note_on_c, 1, 35, 64
5, 97532, Note_off_c, 1, 35, 64
5, 97536, Note_on_c, 1, 36, 64
5, 97916, Note_off_c, 1, 36, 64
5, 97920, Note_on_c, 1, 36, 64
5, 98300, Note_off_c, 1, 36, 64
5, 98304, Note_on_c, 1, 41, 64
5, 98684, Note_off_c, 1, 41, 64
5, 98688, Note_on_c, 1, 38, 64
5, 98876, Note_off_c, 1, 38, 64
5, 98880, Note_on_c, 1, 36, 64
5, 99068, Note_off_c, 1, 36, 64
5, 99072, Note_on_c, 1, 41, 64
5, 99452, Note_off_c, 1, 41, 64
5, 99456, Note_on_c, 1, 38, 64
5, 99644, Note_off_c, 1, 38, 64
5, 99648, Note_on_c, 1, 36, 64
5, 99836, Note_off_c, 1, 36, 64
5, 99840, Note_on_c, 1, 43, 64
5, 100220, Note_off_c, 1, 43, 64
5, 100224, Note_on_c, 1, 40, 64
5, 100412, Note_off_c, 1, 40, 64
5, 100416, Note_on_c, 1, 38, 64
5, 100604, Note_off_c, 1, 38, 64
5, 100608, Note_on_c, 1, 43, 64
5, 100988, Note_off_c, 1, 43, 64
5, 100992, Note_on_c, 1, 40, 64
5, 101180, Note_off_c, 1, 40, 64
5, 101184, Note_on_c, 1, 38, 64
5, 101372, Note_off_c, 1, 38, 64
5, 101376, Note_on_c, 1, 41, 64
5, 101756, Note_off_c, 1, 41, 64
5, 101760, Note_on_c, 1, 40, 64
5, 102140, Note_off_c, 1, 40, 64
5, 102144, Note_on_c, 1, 38, 64
5, 102524, Note_off_c, 1, 38, 64
5, 102528, Note_on_c, 1, 38, 64
5, 102908, Note_off_c, 1, 38, 64
5, 102912, Note_on_c, 1, 35, 64
5, 103292, Note_off_c, 1, 35, 64
5, 103296, Note_on_c, 1, 33, 64
5, 103676, Note_off_c, 1, 33, 64
5, 103680, Note_on_c, 1, 35, 64
5, 104060, Note_off_c, 1, 35, 64
5, 104064, Note_on_c, 1, 38, 64
5, 104444, Note_off_c, 1, 38, 64
5, 104448, Note_on_c, 1, 43, 64
5, 104828, Note_off_c, 1, 43, 64
5, 104832, Note_on_c, 1, 41, 64
5, 105212, Note_off_c, 1, 41, 64
5, 105216, Note_on_c, 1, 40, 64
5, 105596, Note_off_c, 1, 40, 64
5, 105600, Note_on_c, 1, 38, 64
5, 105980, Note_off_c, 1, 38, 64
5, 105984, Note_on_c, 1, 43, 64
5, 106364, Note_off_c, 1, 43, 64
5, 106368, Note_on_c, 1, 41, 64
5, 106748, Note_off_c, 1, 41, 64
5, 106752, Note_on_c, 1, 40, 64
5, 107132, Note_off_c, 1, 40, 64
5, 107136, Note_on_c, 1, 38, 64
5, 107516, Note_off_c, 1, 38, 64
5, 107520, Note_on_c, 1, 41, 64
5, 107900, Note_off_c, 1, 41, 64
5, 107904, Note_on_c, 1, 40, 64
5, 108284, Note_off_c, 1, 40, 64
5, 108288, Note_on_c, 1, 38, 64
5, 108668, Note_off_c, 1, 38, 64
5, 108672, Note_on_c, 1, 38, 64
5, 109052, Note_off_c, 1, 38, 64
5, 109056, Note_on_c, 1, 35, 64
5, 109436, Note_off_c, 1, 35, 64
5, 109440, Note_on_c, 1, 33, 64
5, 109820, Note_off_c, 1, 33, 64
5, 109824, Note_on_c, 1, 35, 64
5, 110204, Note_off_c, 1, 35, 64
5, 110208, Note_on_c, 1, 38, 64
5, 110588, Note_off_c, 1, 38, 64
5, 110592, Note_on_c, 1, 43, 64
5, 110972, Note_off_c, 1, 43, 64
5, 110976, Note_on_c, 1, 41, 64
5, 111356, Note_off_c, 1, 41, 64
5, 111360, Note_on_c, 1, 40, 64
5, 111740, Note_off_c, 1, 40, 64
5, 111744, Note_on_c, 1, 38, 64
5, 112124, Note_off_c, 1, 38, 64
5, 112128, Note_on_c, 1, 43, 64
5, 112508, Note_off_c, 1, 43, 64
5, 112512, Note_on_c, 1, 41, 64
5, 112892, Note_off_c, 1, 41, 64
5, 112896, Note_on_c, 1, 40, 64
5, 113276, Note_off_c, 1, 40, 64
5, 113280, Note_on_c, 1, 38, 64
5, 113660, Note_off_c, 1, 38, 64
5, 114048, Note_on_c, 1, 41, 64
5, 114236, Note_off_c, 1, 41, 64
5, 114240, Note_on_c, 1, 40, 64
5, 114428, Note_off_c, 1, 40, 64
5, 114432, Note_on_c, 1, 38, 64
5, 114620, Note_off_c, 1, 38, 64
5, 114624, Note_on_c, 1, 33, 64
5, 115196, Note_off_c, 1, 33, 64
5, 115200, Note_on_c, 1, 41, 64
5, 115388, Note_off_c, 1, 41, 64
5, 115392, Note_on_c, 1, 40, 64
5, 115580, Note_off_c, 1, 40, 64
5, 115584, Note_on_c, 1, 38, 64
5, 115772, Note_off_c, 1, 38, 64
5, 115776, Note_on_c, 1, 33, 64
5, 115964, Note_off_c, 1, 33, 64
5, 115968, Note_on_c, 1, 33, 64
5, 116732, Note_off_c, 1, 33, 64
5, 116736, Note_on_c, 1, 33, 64
5, 117116, Note_off_c, 1, 33, 64
5, 117120, Note_on_c, 1, 47, 64
5, 117308, Note_off_c, 1, 47, 64
5, 117312, Note_on_c, 1, 45, 64
5, 117500, Note_off_c, 1, 45, 64
5, 117504, Note_on_c, 1, 43, 64
5, 117692, Note_off_c, 1, 43, 64
5, 117696, Note_on_c, 1, 38, 64
5, 118268, Note_off_c, 1, 38, 64
5, 118272, Note_on_c, 1, 47, 64
5, 118460, Note_off_c, 1, 47, 64
5, 118464, Note_on_c, 1, 45, 64
5, 118652, Note_off_c, 1, 45, 64
5, 118656, Note_on_c, 1, 43, 64
5, 118844, Note_off_c, 1, 43, 64
5, 118848, Note_on_c, 1, 38, 64
5, 119036, Note_off_c, 1, 38, 64
5, 119040, Note_on_c, 1, 38, 64
5, 119804, Note_off_c, 1, 38, 64
5, 119808, Note_on_c, 1, 45, 64
5, 120188, Note_off_c, 1, 45, 64
5, 120192, Note_on_c, 1, 45, 64
5, 120572, Note_off_c, 1, 45, 64
5, 120576, Note_on_c, 1, 45, 64
5, 120956, Note_off_c, 1, 45, 64
5, 120960, Note_on_c, 1, 45, 64
5, 121340, Note_off_c, 1, 45, 64
5, 121344, Note_on_c, 1, 45, 64
5, 121724, Note_off_c, 1, 45, 64
5, 121728, Note_on_c, 1, 45, 64
5, 122108, Note_off_c, 1, 45, 64
5, 122112, Note_on_c, 1, 45, 64
5, 122300, Note_off_c, 1, 45, 64
5, 122304, Note_on_c, 1, 40, 64
5, 122492, Note_off_c, 1, 40, 64
5, 122496, Note_on_c, 1, 43, 64
5, 122876, Note_off_c, 1, 43, 64
5, 122880, Note_on_c, 1, 45, 64
5, 123260, Note_off_c, 1, 45, 64
5, 123264, Note_on_c, 1, 45, 64
5, 123644, Note_off_c, 1, 45, 64
5, 123648, Note_on_c, 1, 45, 64
5, 124028, Note_off_c, 1, 45, 64
5, 124032, Note_on_c, 1, 45, 64
5, 124412, Note_off_c, 1, 45, 64
5, 124416, Note_on_c, 1, 45, 64
5, 124796, Note_off_c, 1, 45, 64
5, 124800, Note_on_c, 1, 45, 64
5, 125180, Note_off_c, 1, 45, 64
5, 125184, Note_on_c, 1, 45, 64
5, 125372, Note_off_c, 1, 45, 64
5, 125376, Note_on_c, 1, 40, 64
5, 125564, Note_off_c, 1, 40, 64
5, 125568, Note_on_c, 1, 43, 64
5, 125948, Note_off_c, 1, 43, 64
5, 125952, Note_on_c, 1, 45, 64
5, 126332, Note_off_c, 1, 45, 64
5, 126336, Note_on_c, 1, 45, 64
5, 126716, Note_off_c, 1, 45, 64
5, 126720, Note_on_c, 1, 45, 64
5, 127100, Note_off_c, 1, 45, 64
5, 127104, Note_on_c, 1, 45, 64
5, 127484, Note_off_c, 1, 45, 64
5, 127488, Note_on_c, 1, 45, 64
5, 127868, Note_off_c, 1, 45, 64
5, 127872, Note_on_c, 1, 45, 64
5, 128252, Note_off_c, 1, 45, 64
5, 128256, Note_on_c, 1, 45, 64
5, 128444, Note_off_c, 1, 45, 64
5, 128448, Note_on_c, 1, 40, 64
5, 128636, Note_off_c, 1, 40, 64
5, 128640, Note_on_c, 1, 43, 64
5, 129020, Note_off_c, 1, 43, 64
5, 129024, Note_on_c, 1, 45, 64
5, 129404, Note_off_c, 1, 45, 64
5, 129408, Note_on_c, 1, 45, 64
5, 129788, Note_off_c, 1, 45, 64
5, 129792, Note_on_c, 1, 45, 64
5, 130172, Note_off_c, 1, 45, 64
5, 130176, Note_on_c, 1, 45, 64
5, 130556, Note_off_c, 1, 45, 64
5, 130560, Note_on_c, 1, 45, 64
5, 130940, Note_off_c, 1, 45, 64
5, 130944, Note_on_c, 1, 45, 64
5, 131324, Note_off_c, 1, 45, 64
5, 131328, Note_on_c, 1, 45, 64
5, 131516, Note_off_c, 1, 45, 64
5, 131520, Note_on_c, 1, 40, 64
5, 131708, Note_off_c, 1, 40, 64
5, 131712, Note_on_c, 1, 43, 64
5, 132092, Note_off_c, 1, 43, 64
5, 132096, Note_on_c, 1, 43, 64
5, 132476, Note_off_c, 1, 43, 64
5, 132480, Note_on_c, 1, 40, 64
5, 132668, Note_off_c, 1, 40, 64
5, 132672, Note_on_c, 1, 38, 64
5, 132860, Note_off_c, 1, 38, 64
5, 132864, Note_on_c, 1, 43, 64
5, 133244, Note_off_c, 1, 43, 64
5, 133248, Note_on_c, 1, 40, 64
5, 133436, Note_off_c, 1, 40, 64
5, 133440, Note_on_c, 1, 38, 64
5, 133628, Note_off_c, 1, 38, 64
5, 133632, Note_on_c, 1, 45, 64
5, 134012, Note_off_c, 1, 45, 64
5, 134016, Note_on_c, 1, 45, 64
5, 134396, Note_off_c, 1, 45, 64
5, 134400, Note_on_c, 1, 45, 64
5, 134780, Note_off_c, 1, 45, 64
5, 134784, Note_on_c, 1, 45, 64
5, 135164, Note_off_c, 1, 45, 64
5, 135168, Note_on_c, 1, 45, 64
5, 135548, Note_off_c, 1, 45, 64
5, 135552, Note_on_c, 1, 45, 64
5, 135932, Note_off_c, 1, 45, 64
5, 135936, Note_on_c, 1, 45, 64
5, 136124, Note_off_c, 1, 45, 64
5, 136128, Note_on_c, 1, 40, 64
5, 136316, Note_off_c, 1, 40, 64
5, 136320, Note_on_c, 1, 43, 64
5, 136700, Note_off_c, 1, 43, 64
5, 136704, Note_on_c, 1, 45, 64
5, 137084, Note_off_c, 1, 45, 64
5, 137088, Note_on_c, 1, 45, 64
5, 137468, Note_off_c, 1, 45, 64
5, 137472, Note_on_c, 1, 45, 64
5, 137852, Note_off_c, 1, 45, 64
5, 137856, Note_on_c, 1, 45, 64
5, 138236, Note_off_c, 1, 45, 64
5, 138240, Note_on_c, 1, 45, 64
5, 138620, Note_off_c, 1, 45, 64
5, 138624, Note_on_c, 1, 45, 64
5, 139004, Note_off_c, 1, 45, 64
5, 139008, Note_on_c, 1, 45, 64
5, 139196, Note_off_c, 1, 45, 64
5, 139200, Note_on_c, 1, 40, 64
5, 139388, Note_off_c, 1, 40, 64
5, 139392, Note_on_c, 1, 43, 64
5, 139772, Note_off_c, 1, 43, 64
5, 139776, Note_on_c, 1, 45, 64
5, 140156, Note_off_c, 1, 45, 64
5, 140160, Note_on_c, 1, 45, 64
5, 140540, Note_off_c, 1, 45, 64
5, 140544, Note_on_c, 1, 45, 64
5, 140924, Note_off_c, 1, 45, 64
5, 140928, Note_on_c, 1, 45, 64
5, 141308, Note_off_c, 1, 45, 64
5, 141312, Note_on_c, 1, 45, 64
5, 141692, Note_off_c, 1, 45, 64
5, 141696, Note_on_c, 1, 45, 64
5, 142076, Note_off_c, 1, 45, 64
5, 142080, Note_on_c, 1, 45, 64
5, 142268, Note_off_c, 1, 45, 64
5, 142272, Note_on_c, 1, 40, 64
5, 142460, Note_off_c, 1, 40, 64
5, 142464, Note_on_c, 1, 43, 64
5, 142844, Note_off_c, 1, 43, 64
5, 142848, Note_on_c, 1, 45, 64
5, 143228, Note_off_c, 1, 45, 64
5, 143232, Note_on_c, 1, 45, 64
5, 143612, Note_off_c, 1, 45, 64
5, 143616, Note_on_c, 1, 45, 64
5, 143996, Note_off_c, 1, 45, 64
5, 144000, Note_on_c, 1, 45, 64
5, 144380, Note_off_c, 1, 45, 64
5, 144384, Note_on_c, 1, 45, 64
5, 144764, Note_off_c, 1, 45, 64
5, 144768, Note_on_c, 1, 45, 64
5, 145148, Note_off_c, 1, 45, 64
5, 145152, Note_on_c, 1, 45, 64
5, 145340, Note_off_c, 1, 45, 64
5, 145344, Note_on_c, 1, 40, 64
5, 145532, Note_off_c, 1, 40, 64
5, 145536, Note_on_c, 1, 43, 64
5, 145916, Note_off_c, 1, 43, 64
5, 145920, Note_on_c, 1, 45, 64
5, 146300, Note_off_c, 1, 45, 64
5, 146304, Note_on_c, 1, 45, 64
5, 146684, Note_off_c, 1, 45, 64
5, 146688, Note_on_c, 1, 45, 64
5, 147068, Note_off_c, 1, 45, 64
5, 147072, Note_on_c, 1, 45, 64
5, 147452, Note_off_c, 1, 45, 64
5, 147456, Note_on_c, 1, 45, 64
5, 147836, Note_off_c, 1, 45, 64
5, 147840, Note_on_c, 1, 45, 64
5, 148220, Note_off_c, 1, 45, 64
5, 148224, Note_on_c, 1, 45, 64
5, 148412, Note_off_c, 1, 45, 64
5, 148416, Note_on_c, 1, 40, 64
5, 148604, Note_off_c, 1, 40, 64
5, 148608, Note_on_c, 1, 43, 64
5, 148988, Note_off_c, 1, 43, 64
5, 148992, Note_on_c, 1, 45, 64
5, 149372, Note_off_c, 1, 45, 64
5, 149376, Note_on_c, 1, 45, 64
5, 149756, Note_off_c, 1, 45, 64
5, 149760, Note_on_c, 1, 45, 64
5, 150140, Note_off_c, 1, 45, 64
5, 150144, Note_on_c, 1, 45, 64
5, 150524, Note_off_c, 1, 45, 64
5, 150528, Note_on_c, 1, 45, 64
5, 150908, Note_off_c, 1, 45, 64
5, 150912, Note_on_c, 1, 45, 64
5, 151292, Note_off_c, 1, 45, 64
5, 151296, Note_on_c, 1, 45, 64
5, 151484, Note_off_c, 1, 45, 64
5, 151488, Note_on_c, 1, 40, 64
5, 151676, Note_off_c, 1, 40, 64
5, 151680, Note_on_c, 1, 43, 64
5, 152060, Note_off_c, 1, 43, 64
5, 152064, Note_on_c, 1, 45, 64
5, 152444, Note_off_c, 1, 45, 64
5, 152448, Note_on_c, 1, 45, 64
5, 152828, Note_off_c, 1, 45, 64
5, 152832, Note_on_c, 1, 45, 64
5, 153212, Note_off_c, 1, 45, 64
5, 153216, Note_on_c, 1, 45, 64
5, 153596, Note_off_c, 1, 45, 64
5, 153600, Note_on_c, 1, 45, 64
5, 153980, Note_off_c, 1, 45, 64
5, 153984, Note_on_c, 1, 45, 64
5, 154364, Note_off_c, 1, 45, 64
5, 154368, Note_on_c, 1, 45, 64
5, 154556, Note_off_c, 1, 45, 64
5, 154560, Note_on_c, 1, 40, 64
5, 154748, Note_off_c, 1, 40, 64
5, 154752, Note_on_c, 1, 43, 64
5, 155132, Note_off_c, 1, 43, 64
5, 155136, Note_on_c, 1, 45, 64
5, 155516, Note_off_c, 1, 45, 64
5, 155520, Note_on_c, 1, 45, 64
5, 155900, Note_off_c, 1, 45, 64
5, 155904, Note_on_c, 1, 45, 64
5, 156284, Note_off_c, 1, 45, 64
5, 156288, Note_on_c, 1, 45, 64
5, 156668, Note_off_c, 1, 45, 64
5, 156672, Note_on_c, 1, 45, 64
5, 157052, Note_off_c, 1, 45, 64
5, 157056, Note_on_c, 1, 45, 64
5, 157436, Note_off_c, 1, 45, 64
5, 157440, Note_on_c, 1, 45, 64
5, 157628, Note_off_c, 1, 45, 64
5, 157632, Note_on_c, 1, 40, 64
5, 157820, Note_off_c, 1, 40, 64
5, 157824, Note_on_c, 1, 43, 64
5, 158204, Note_off_c, 1, 43, 64
5, 158208, Note_on_c, 1, 45, 64
5, 158588, Note_off_c, 1, 45, 64
5, 158592, Note_on_c, 1, 45, 64
5, 158972, Note_off_c, 1, 45, 64
5, 158976, Note_on_c, 1, 45, 64
5, 159356, Note_off_c, 1, 45, 64
5, 159360, Note_on_c, 1, 45, 64
5, 159740, Note_off_c, 1, 45, 64
5, 159744, Note_on_c, 1, 45, 64
5, 160124, Note_off_c, 1, 45, 64
5, 160128, Note_on_c, 1, 45, 64
5, 160508, Note_off_c, 1, 45, 64
5, 160512, Note_on_c, 1, 45, 64
5, 160700, Note_off_c, 1, 45, 64
5, 160704, Note_on_c, 1, 40, 64
5, 160892, Note_off_c, 1, 40, 64
5, 160896, Note_on_c, 1, 43, 64
5, 161276, Note_off_c, 1, 43, 64
5, 161280, Note_on_c, 1, 45, 64
5, 161660, Note_off_c, 1, 45, 64
5, 161664, Note_on_c, 1, 45, 64
5, 162044, Note_off_c, 1, 45, 64
5, 162048, Note_on_c, 1, 45, 64
5, 162428, Note_off_c, 1, 45, 64
5, 162432, Note_on_c, 1, 45, 64
5, 162812, Note_off_c, 1, 45, 64
5, 162816, Note_on_c, 1, 45, 64
5, 163196, Note_off_c, 1, 45, 64
5, 163200, Note_on_c, 1, 45, 64
5, 163580, Note_off_c, 1, 45, 64
5, 163584, Note_on_c, 1, 45, 64
5, 163772, Note_off_c, 1, 45, 64
5, 163776, Note_on_c, 1, 40, 64
5, 163964, Note_off_c, 1, 40, 64
5, 163968, Note_on_c, 1, 43, 64
5, 164348, Note_off_c, 1, 43, 64
5, 164352, Note_on_c, 1, 45, 64
5, 164732, Note_off_c, 1, 45, 64
5, 164736, Note_on_c, 1, 45, 64
5, 165116, Note_off_c, 1, 45, 64
5, 165120, Note_on_c, 1, 45, 64
5, 165500, Note_off_c, 1, 45, 64
5, 165504, Note_on_c, 1, 45, 64
5, 165884, Note_off_c, 1, 45, 64
5, 165888, Note_on_c, 1, 45, 64
5, 166268, Note_off_c, 1, 45, 64
5, 166272, Note_on_c, 1, 45, 64
5, 166652, Note_off_c, 1, 45, 64
5, 166656, Note_on_c, 1, 45, 64
5, 166844, Note_off_c, 1, 45, 64
5, 166848, Note_on_c, 1, 40, 64
5, 167036, Note_off_c, 1, 40, 64
5, 167040, Note_on_c, 1, 43, 64
5, 167420, Note_off_c, 1, 43, 64
5, 167420, End_track
6, 0, Start_track
6, 0, Title_t, "drums"
6, 3072, Note_on_c, 9, 35, 100
6, 3452, Note_off_c, 9, 35, 100
6, 3456, Note_on_c, 9, 35, 100
6, 3836, Note_off_c, 9, 35, 100
6, 3840, Note_on_c, 9, 35, 100
6, 4220, Note_off_c, 9, 35, 100
6, 4224, Note_on_c, 9, 35, 100
6, 4604, Note_off_c, 9, 35, 100
6, 4608, Note_on_c, 9, 35, 100
6, 4988, Note_off_c, 9, 35, 100
6, 4992, Note_on_c, 9, 35, 100
6, 5372, Note_off_c, 9, 35, 100
6, 5376, Note_on_c, 9, 35, 100
6, 5564, Note_off_c, 9, 35, 100
6, 5568, Note_on_c, 9, 35, 100
6, 5756, Note_off_c, 9, 35, 100
6, 5760, Note_on_c, 9, 35, 100
6, 6140, Note_off_c, 9, 35, 100
6, 6144, Note_on_c, 9, 35, 100
6, 6524, Note_off_c, 9, 35, 100
6, 6528, Note_on_c, 9, 35, 100
6, 6908, Note_off_c, 9, 35, 100
6, 6912, Note_on_c, 9, 35, 100
6, 7292, Note_off_c, 9, 35, 100
6, 7296, Note_on_c, 9, 35, 100
6, 7676, Note_off_c, 9, 35, 100
6, 7680, Note_on_c, 9, 35, 100
6, 8060, Note_off_c, 9, 35, 100
6, 8064, Note_on_c, 9, 35, 100
6, 8444, Note_off_c, 9, 35, 100
6, 8448, Note_on_c, 9, 35, 100
6, 8636, Note_off_c, 9, 35, 100
6, 8640, Note_on_c, 9, 35, 100
6, 8828, Note_off_c, 9, 35, 100
6, 8832, Note_on_c, 9, 35, 100
6, 9212, Note_off_c, 9, 35, 100
6, 9216, Note_on_c, 9, 35, 100
6, 9596, Note_off_c, 9, 35, 100
6, 9600, Note_on_c, 9, 35, 100
6, 9980, Note_off_c, 9, 35, 100
6, 9984, Note_on_c, 9, 35, 100
6, 10364, Note_off_c, 9, 35, 100
6, 10368, Note_on_c, 9, 35, 100
6, 10748, Note_off_c, 9, 35, 100
6, 10752, Note_on_c, 9, 35, 100
6, 11132, Note_off_c, 9, 35, 100
6, 11136, Note_on_c, 9, 35, 100
6, 11516, Note_off_c, 9, 35, 100
6, 11520, Note_on_c, 9, 35, 100
6, 11708, Note_off_c, 9, 35, 100
6, 11712, Note_on_c, 9, 35, 100
6, 11900, Note_off_c, 9, 35, 100
6, 11904, Note_on_c, 9, 35, 100
6, 12284, Note_off_c, 9, 35, 100
6, 12288, Note_on_c, 9, 35, 100
6, 12668, Note_off_c, 9, 35, 100
6, 12672, Note_on_c, 9, 35, 100
6, 13052, Note_off_c, 9, 35, 100
6, 13056, Note_on_c, 9, 35, 100
6, 13436, Note_off_c, 9, 35, 100
6, 13440, Note_on_c, 9, 35, 100
6, 13820, Note_off_c, 9, 35, 100
6, 13824, Note_on_c, 9, 35, 100
6, 14204, Note_off_c, 9, 35, 100
6, 14208, Note_on_c, 9, 35, 100
6, 14588, Note_off_c, 9, 35, 100
6, 14592, Note_on_c, 9, 35, 100
6, 14780, Note_off_c, 9, 35, 100
6, 14784, Note_on_c, 9, 35, 100
6, 14972, Note_off_c, 9, 35, 100
6, 14976, Note_on_c, 9, 35, 100
6, 15356, Note_off_c, 9, 35, 100
6, 15360, Note_on_c, 9, 35, 100
6, 15740, Note_off_c, 9, 35, 100
6, 15744, Note_on_c, 9, 35, 100
6, 16124, Note_off_c, 9, 35, 100
6, 16128, Note_on_c, 9, 35, 100
6, 16508, Note_off_c, 9, 35, 100
6, 16512, Note_on_c, 9, 35, 100
6, 16892, Note_off_c, 9, 35, 100
6, 16896, Note_on_c, 9, 35, 100
6, 17276, Note_off_c, 9, 35, 100
6, 17280, Note_on_c, 9, 35, 100
6, 17660, Note_off_c, 9, 35, 100
6, 17664, Note_on_c, 9, 35, 100
6, 17852, Note_off_c, 9, 35, 100
6, 17856, Note_on_c, 9, 35, 100
6, 18044, Note_off_c, 9, 35, 100
6, 18048, Note_on_c, 9, 35, 100
6, 18428, Note_off_c, 9, 35, 100
6, 18432, Note_on_c, 9, 35, 100
6, 18812, Note_off_c, 9, 35, 100
6, 18816, Note_on_c, 9, 35, 100
6, 19196, Note_off_c, 9, 35, 100
6, 19200, Note_on_c, 9, 35, 100
6, 19580, Note_off_c, 9, 35, 100
6, 19584, Note_on_c, 9, 35, 100
6, 19964, Note_off_c, 9, 35, 100
6, 19968, Note_on_c, 9, 35, 100
6, 20348, Note_off_c, 9, 35, 100
6, 20352, Note_on_c, 9, 35, 100
6, 20732, Note_off_c, 9, 35, 100
6, 20736, Note_on_c, 9, 35, 100
6, 20924, Note_off_c, 9, 35, 100
6, 20928, Note_on_c, 9, 35, 100
6, 21116, Note_off_c, 9, 35, 100
6, 21120, Note_on_c, 9, 35, 100
6, 21500, Note_off_c, 9, 35, 100
6, 21504, Note_on_c, 9, 35, 100
6, 21884, Note_off_c, 9, 35, 100
6, 21888, Note_on_c, 9, 35, 100
6, 22268, Note_off_c, 9, 35, 100
6, 22272, Note_on_c, 9, 35, 100
6, 22652, Note_off_c, 9, 35, 100
6, 22656, Note_on_c, 9, 35, 100
6, 23036, Note_off_c, 9, 35, 100
6, 23040, Note_on_c, 9, 35, 100
6, 23420, Note_off_c, 9, 35, 100
6, 23424, Note_on_c, 9, 35, 100
6, 23804, Note_off_c, 9, 35, 100
6, 23808, Note_on_c, 9, 35, 100
6, 23996, Note_off_c, 9, 35, 100
6, 24000, Note_on_c, 9, 35, 100
6, 24188, Note_off_c, 9, 35, 100
6, 24192, Note_on_c, 9, 35, 100
6, 24572, Note_off_c, 9, 35, 100
6, 24576, Note_on_c, 9, 35, 100
6, 24956, Note_off_c, 9, 35, 100
6, 24960, Note_on_c, 9, 35, 100
6, 25340, Note_off_c, 9, 35, 100
6, 25344, Note_on_c, 9, 35, 100
6, 25724, Note_off_c, 9, 35, 100
6, 25728, Note_on_c, 9, 35, 100
6, 26108, Note_off_c, 9, 35, 100
6, 26112, Note_on_c, 9, 35, 100
6, 26492, Note_off_c, 9, 35, 100
6, 26496, Note_on_c, 9, 35, 100
6, 26876, Note_off_c, 9, 35, 100
6, 26880, Note_on_c, 9, 35, 100
6, 27068, Note_off_c, 9, 35, 100
6, 27072, Note_on_c, 9, 35, 100
6, 27260, Note_off_c, 9, 35, 100
6, 27264, Note_on_c, 9, 35, 100
6, 27644, Note_off_c, 9, 35, 100
6, 27648, Note_on_c, 9, 38, 100
6, 28028, Note_off_c, 9, 38, 100
6, 28032, Note_on_c, 9, 35, 100
6, 28220, Note_off_c, 9, 35, 100
6, 28224, Note_on_c, 9, 35, 100
6, 28412, Note_off_c, 9, 35, 100
6, 28416, Note_on_c, 9, 38, 100
6, 28796, Note_off_c, 9, 38, 100
6, 28800, Note_on_c, 9, 35, 100
6, 28988, Note_off_c, 9, 35, 100
6, 28992, Note_on_c, 9, 35, 100
6, 29180, Note_off_c, 9, 35, 100
6, 29184, Note_on_c, 9, 38, 100
6, 29564, Note_off_c, 9, 38, 100
6, 29568, Note_on_c, 9, 35, 100
6, 29756, Note_off_c, 9, 35, 100
6, 29760, Note_on_c, 9, 35, 100
6, 29948, Note_off_c, 9, 35, 100
6, 29952, Note_on_c, 9, 38, 100
6, 30332, Note_off_c, 9, 38, 100
6, 30336, Note_on_c, 9, 35, 100
6, 30524, Note_off_c, 9, 35, 100
6, 30528, Note_on_c, 9, 35, 100
6, 30716, Note_off_c, 9, 35, 100
6, 30720, Note_on_c, 9, 38, 100
6, 31100, Note_off_c, 9, 38, 100
6, 31104, Note_on_c, 9, 35, 100
6, 31292, Note_off_c, 9, 35, 100
6, 31296, Note_on_c, 9, 35, 100
6, 31484, Note_off_c, 9, 35, 100
6, 31488, Note_on_c, 9, 38, 100
6, 31868, Note_off_c, 9, 38, 100
6, 31872, Note_on_c, 9, 35, 100
6, 32060, Note_off_c, 9, 35, 100
6, 32064, Note_on_c, 9, 35, 100
6, 32252, Note_off_c, 9, 35, 100
6, 32256, Note_on_c, 9, 38, 100
6, 32636, Note_off_c, 9, 38, 100
6, 32640, Note_on_c, 9, 35, 100
6, 32828, Note_off_c, 9, 35, 100
6, 32832, Note_on_c, 9, 35, 100
6, 33020, Note_off_c, 9, 35, 100
6, 33024, Note_on_c, 9, 38, 100
6, 33404, Note_off_c, 9, 38, 100
6, 33408, Note_on_c, 9, 35, 100
6, 33596, Note_off_c, 9, 35, 100
6, 33600, Note_on_c, 9, 35, 100
6, 33788, Note_off_c, 9, 35, 100
6, 33792, Note_on_c, 9, 38, 100
6, 34172, Note_off_c, 9, 38, 100
6, 34176, Note_on_c, 9, 35, 100
6, 34364, Note_off_c, 9, 35, 100
6, 34368, Note_on_c, 9, 35, 100
6, 34556, Note_off_c, 9, 35, 100
6, 34560, Note_on_c, 9, 38, 100
6, 34940, Note_off_c, 9, 38, 100
6, 34944, Note_on_c, 9, 35, 100
6, 35132, Note_off_c, 9, 35, 100
6, 35136, Note_on_c, 9, 35, 100
6, 35324, Note_off_c, 9, 35, 100
6, 35328, Note_on_c, 9, 38, 100
6, 35708, Note_off_c, 9, 38, 100
6, 35712, Note_on_c, 9, 35, 100
6, 35900, Note_off_c, 9, 35, 100
6, 35904, Note_on_c, 9, 35, 100
6, 36092, Note_off_c, 9, 35, 100
6, 36096, Note_on_c, 9, 38, 100
6, 36476, Note_off_c, 9, 38, 100
6, 36480, Note_on_c, 9, 35, 100
6, 36668, Note_off_c, 9, 35, 100
6, 36672, Note_on_c, 9, 35, 100
6, 36860, Note_off_c, 9, 35, 100
6, 36864, Note_on_c, 9, 38, 100
6, 37244, Note_off_c, 9, 38, 100
6, 37248, Note_on_c, 9, 35, 100
6, 37436, Note_off_c, 9, 35, 100
6, 37440, Note_on_c, 9, 35, 100
6, 37628, Note_off_c, 9, 35, 100
6, 37632, Note_on_c, 9, 38, 100
6, 38012, Note_off_c, 9, 38, 100
6, 38016, Note_on_c, 9, 35, 100
6, 38204, Note_off_c, 9, 35, 100
6, 38208, Note_on_c, 9, 35, 100
6, 38396, Note_off_c, 9, 35, 100
6, 38400, Note_on_c, 9, 38, 100
6, 38780, Note_off_c, 9, 38, 100
6, 38784, Note_on_c, 9, 35, 100
6, 38972, Note_off_c, 9, 35, 100
6, 38976, Note_on_c, 9, 35, 100
6, 39164, Note_off_c, 9, 35, 100
6, 39168, Note_on_c, 9, 38, 100
6, 39548, Note_off_c, 9, 38, 100
6, 39552, Note_on_c, 9, 35, 100
6, 39932, Note_off_c, 9, 35, 100
6, 39936, Note_on_c, 9, 38, 100
6, 40316, Note_off_c, 9, 38, 100
6, 40320, Note_on_c, 9, 35, 100
6, 40508, Note_off_c, 9, 35, 100
6, 40512, Note_on_c, 9, 35, 100
6, 40700, Note_off_c, 9, 35, 100
6, 40704, Note_on_c, 9, 38, 100
6, 41084, Note_off_c, 9, 38, 100
6, 41088, Note_on_c, 9, 35, 100
6, 41276, Note_off_c, 9, 35, 100
6, 41280, Note_on_c, 9, 35, 100
6, 41468, Note_off_c, 9, 35, 100
6, 41472, Note_on_c, 9, 38, 100
6, 41852, Note_off_c, 9, 38, 100
6, 41856, Note_on_c, 9, 35, 100
6, 42044, Note_off_c, 9, 35, 100
6, 42048, Note_on_c, 9, 35, 100
6, 42236, Note_off_c, 9, 35, 100
6, 42240, Note_on_c, 9, 38, 100
6, 42620, Note_off_c, 9, 38, 100
6, 42624, Note_on_c, 9, 35, 100
6, 42812, Note_off_c, 9, 35, 100
6, 42816, Note_on_c, 9, 35, 100
6, 43004, Note_off_c, 9, 35, 100
6, 43008, Note_on_c, 9, 38, 100
6, 43388, Note_off_c, 9, 38, 100
6, 43392, Note_on_c, 9, 35, 100
6, 43580, Note_off_c, 9, 35, 100
6, 43584, Note_on_c, 9, 35, 100
6, 43772, Note_off_c, 9, 35, 100
6, 43776, Note_on_c, 9, 38, 100
6, 44156, Note_off_c, 9, 38, 100
6, 44160, Note_on_c, 9, 35, 100
6, 44348, Note_off_c, 9, 35, 100
6, 44352, Note_on_c, 9, 35, 100
6, 44540, Note_off_c, 9, 35, 100
6, 44544, Note_on_c, 9, 38, 100
6, 44924, Note_off_c, 9, 38, 100
6, 44928, Note_on_c, 9, 35, 100
6, 45116, Note_off_c, 9, 35, 100
6, 45120, Note_on_c, 9, 35, 100
6, 45308, Note_off_c, 9, 35, 100
6, 45312, Note_on_c, 9, 38, 100
6, 45692, Note_off_c, 9, 38, 100
6, 45696, Note_on_c, 9, 35, 100
6, 46076, Note_off_c, 9, 35, 100
6, 46080, Note_on_c, 9, 38, 100
6, 46460, Note_off_c, 9, 38, 100
6, 46464, Note_on_c, 9, 35, 100
6, 46652, Note_off_c, 9, 35, 100
6, 46656, Note_on_c, 9, 35, 100
6, 46844, Note_off_c, 9, 35, 100
6, 46848, Note_on_c, 9, 38, 100
6, 47228, Note_off_c, 9, 38, 100
6, 47232, Note_on_c, 9, 35, 100
6, 47420, Note_off_c, 9, 35, 100
6, 47424, Note_on_c, 9, 35, 100
6, 47612, Note_off_c, 9, 35, 100
6, 47616, Note_on_c, 9, 38, 100
6, 47996, Note_off_c, 9, 38, 100
6, 48000, Note_on_c, 9, 35, 100
6, 48188, Note_off_c, 9, 35, 100
6, 48192, Note_on_c, 9, 35, 100
6, 48380, Note_off_c, 9, 35, 100
6, 48384, Note_on_c, 9, 38, 100
6, 48764, Note_off_c, 9, 38, 100
6, 48768, Note_on_c, 9, 35, 100
6, 48956, Note_off_c, 9, 35, 100
6, 48960, Note_on_c, 9, 35, 100
6, 49148, Note_off_c, 9, 35, 100
6, 49152, Note_on_c, 9, 38, 100
6, 49532, Note_off_c, 9, 38, 100
6, 49536, Note_on_c, 9, 35, 100
6, 49724, Note_off_c, 9, 35, 100
6, 49728, Note_on_c, 9, 35, 100
6, 49916, Note_off_c, 9, 35, 100
6, 49920, Note_on_c, 9, 38, 100
6, 50300, Note_off_c, 9, 38, 100
6, 50304, Note_on_c, 9, 35, 100
6, 50492, Note_off_c, 9, 35, 100
6, 50496, Note_on_c, 9, 35, 100
6, 50684, Note_off_c, 9, 35, 100
6, 50688, Note_on_c, 9, 38, 100
6, 51068, Note_off_c, 9, 38, 100
6, 51072, Note_on_c, 9, 35, 100
6, 51260, Note_off_c, 9, 35, 100
6, 51264, Note_on_c, 9, 35, 100
6, 51452, Note_off_c, 9, 35, 100
6, 51456, Note_on_c, 9, 38, 100
6, 51836, Note_off_c, 9, 38, 100
6, 51840, Note_on_c, 9, 35, 100
6, 52220, Note_off_c, 9, 35, 100
6, 52224, Note_on_c, 9, 38, 100
6, 52604, Note_off_c, 9, 38, 100
6, 52608, Note_on_c, 9, 35, 100
6, 52796, Note_off_c, 9, 35, 100
6, 52800, Note_on_c, 9, 35, 100
6, 52988, Note_off_c, 9, 35, 100
6, 52992, Note_on_c, 9, 38, 100
6, 53372, Note_off_c, 9, 38, 100
6, 53376, Note_on_c, 9, 35, 100
6, 53564, Note_off_c, 9, 35, 100
6, 53568, Note_on_c, 9, 35, 100
6, 53756, Note_off_c, 9, 35, 100
6, 53760, Note_on_c, 9, 38, 100
6, 54140, Note_off_c, 9, 38, 100
6, 54144, Note_on_c, 9, 35, 100
6, 54332, Note_off_c, 9, 35, 100
6, 54336, Note_on_c, 9, 35, 100
6, 54524, Note_off_c, 9, 35, 100
6, 54528, Note_on_c, 9, 38, 100
6, 54908, Note_off_c, 9, 38, 100
6, 54912, Note_on_c, 9, 35, 100
6, 55100, Note_off_c, 9, 35, 100
6, 55104, Note_on_c, 9, 35, 100
6, 55292, Note_off_c, 9, 35, 100
6, 55296, Note_on_c, 9, 35, 100
6, 55676, Note_off_c, 9, 35, 100
6, 55680, Note_on_c, 9, 35, 100
6, 56060, Note_off_c, 9, 35, 100
6, 56064, Note_on_c, 9, 35, 100
6, 56444, Note_off_c, 9, 35, 100
6, 56448, Note_on_c, 9, 35, 100
6, 56828, Note_off_c, 9, 35, 100
6, 56832, Note_on_c, 9, 35, 100
6, 57212, Note_off_c, 9, 35, 100
6, 57216, Note_on_c, 9, 35, 100
6, 57596, Note_off_c, 9, 35, 100
6, 57600, Note_on_c, 9, 35, 100
6, 57788, Note_off_c, 9, 35, 100
6, 57792, Note_on_c, 9, 35, 100
6, 57980, Note_off_c, 9, 35, 100
6, 57984, Note_on_c, 9, 35, 100
6, 58364, Note_off_c, 9, 35, 100
6, 58368, Note_on_c, 9, 35, 100
6, 58748, Note_off_c, 9, 35, 100
6, 58752, Note_on_c, 9, 35, 100
6, 59132, Note_off_c, 9, 35, 100
6, 59136, Note_on_c, 9, 35, 100
6, 59516, Note_off_c, 9, 35, 100
6, 59520, Note_on_c, 9, 35, 100
6, 59900, Note_off_c, 9, 35, 100
6, 59904, Note_on_c, 9, 35, 100
6, 60284, Note_off_c, 9, 35, 100
6, 60288, Note_on_c, 9, 35, 100
6, 60668, Note_off_c, 9, 35, 100
6, 60672, Note_on_c, 9, 35, 100
6, 60860, Note_off_c, 9, 35, 100
6, 60864, Note_on_c, 9, 35, 100
6, 61052, Note_off_c, 9, 35, 100
6, 61056, Note_on_c, 9, 35, 100
6, 61436, Note_off_c, 9, 35, 100
6, 61440, Note_on_c, 9, 35, 100
6, 61820, Note_off_c, 9, 35, 100
6, 61824, Note_on_c, 9, 35, 100
6, 62204, Note_off_c, 9, 35, 100
6, 62208, Note_on_c, 9, 35, 100
6, 62588, Note_off_c, 9, 35, 100
6, 62592, Note_on_c, 9, 35, 100
6, 62972, Note_off_c, 9, 35, 100
6, 62976, Note_on_c, 9, 35, 100
6, 63356, Note_off_c, 9, 35, 100
6, 63360, Note_on_c, 9, 35, 100
6, 63740, Note_off_c, 9, 35, 100
6, 63744, Note_on_c, 9, 35, 100
6, 63932, Note_off_c, 9, 35, 100
6, 63936, Note_on_c, 9, 35, 100
6, 64124, Note_off_c, 9, 35, 100
6, 64128, Note_on_c, 9, 35, 100
6, 64508, Note_off_c, 9, 35, 100
6, 64512, Note_on_c, 9, 35, 100
6, 64892, Note_off_c, 9, 35, 100
6, 64896, Note_on_c, 9, 35, 100
6, 65276, Note_off_c, 9, 35, 100
6, 65280, Note_on_c, 9, 35, 100
6, 65660, Note_off_c, 9, 35, 100
6, 65664, Note_on_c, 9, 35, 100
6, 66044, Note_off_c, 9, 35, 100
6, 66048, Note_on_c, 9, 35, 100
6, 66428, Note_off_c, 9, 35, 100
6, 66432, Note_on_c, 9, 35, 100
6, 66812, Note_off_c, 9, 35, 100
6, 66816, Note_on_c, 9, 35, 100
6, 67004, Note_off_c, 9, 35, 100
6, 67008, Note_on_c, 9, 35, 100
6, 67196, Note_off_c, 9, 35, 100
6, 67200, Note_on_c, 9, 35, 100
6, 67580, Note_off_c, 9, 35, 100
6, 67584, Note_on_c, 9, 35, 100
6, 67964, Note_off_c, 9, 35, 100
6, 67968, Note_on_c, 9, 35, 100
6, 68348, Note_off_c, 9, 35, 100
6, 68352, Note_on_c, 9, 35, 100
6, 68732, Note_off_c, 9, 35, 100
6, 68736, Note_on_c, 9, 35, 100
6, 69116, Note_off_c, 9, 35, 100
6, 69120, Note_on_c, 9, 35, 100
6, 69500, Note_off_c, 9, 35, 100
6, 69504, Note_on_c, 9, 35, 100
6, 69884, Note_off_c, 9, 35, 100
6, 69888, Note_on_c, 9, 35, 100
6, 70076, Note_off_c, 9, 35, 100
6, 70080, Note_on_c, 9, 35, 100
6, 70268, Note_off_c, 9, 35, 100
6, 70272, Note_on_c, 9, 35, 100
6, 70652, Note_off_c, 9, 35, 100
6, 70656, Note_on_c, 9, 35, 100
6, 71036, Note_off_c, 9, 35, 100
6, 71040, Note_on_c, 9, 35, 100
6, 71420, Note_off_c, 9, 35, 100
6, 71424, Note_on_c, 9, 35, 100
6, 71804, Note_off_c, 9, 35, 100
6, 71808, Note_on_c, 9, 35, 100
6, 72188, Note_off_c, 9, 35, 100
6, 72192, Note_on_c, 9, 35, 100
6, 72572, Note_off_c, 9, 35, 100
6, 72576, Note_on_c, 9, 35, 100
6, 72956, Note_off_c, 9, 35, 100
6, 72960, Note_on_c, 9, 35, 100
6, 73148, Note_off_c, 9, 35, 100
6, 73152, Note_on_c, 9, 35, 100
6, 73340, Note_off_c, 9, 35, 100
6, 73344, Note_on_c, 9, 35, 100
6, 73724, Note_off_c, 9, 35, 100
6, 73728, Note_on_c, 9, 38, 100
6, 74108, Note_off_c, 9, 38, 100
6, 74112, Note_on_c, 9, 35, 100
6, 74300, Note_off_c, 9, 35, 100
6, 74304, Note_on_c, 9, 35, 100
6, 74492, Note_off_c, 9, 35, 100
6, 74496, Note_on_c, 9, 38, 100
6, 74876, Note_off_c, 9, 38, 100
6, 74880, Note_on_c, 9, 35, 100
6, 75068, Note_off_c, 9, 35, 100
6, 75072, Note_on_c, 9, 35, 100
6, 75260, Note_off_c, 9, 35, 100
6, 75264, Note_on_c, 9, 38, 100
6, 75644, Note_off_c, 9, 38, 100
6, 75648, Note_on_c, 9, 35, 100
6, 75836, Note_off_c, 9, 35, 100
6, 75840, Note_on_c, 9, 35, 100
6, 76028, Note_off_c, 9, 35, 100
6, 76032, Note_on_c, 9, 38, 100
6, 76412, Note_off_c, 9, 38, 100
6, 76416, Note_on_c, 9, 35, 100
6, 76604, Note_off_c, 9, 35, 100
6, 76608, Note_on_c, 9, 35, 100
6, 76796, Note_off_c, 9, 35, 100
6, 76800, Note_on_c, 9, 38, 100
6, 77180, Note_off_c, 9, 38, 100
6, 77184, Note_on_c, 9, 35, 100
6, 77372, Note_off_c, 9, 35, 100
6, 77376, Note_on_c, 9, 35, 100
6, 77564, Note_off_c, 9, 35, 100
6, 77568, Note_on_c, 9, 38, 100
6, 77948, Note_off_c, 9, 38, 100
6, 77952, Note_on_c, 9, 35, 100
6, 78140, Note_off_c, 9, 35, 100
6, 78144, Note_on_c, 9, 35, 100
6, 78332, Note_off_c, 9, 35, 100
6, 78336, Note_on_c, 9, 38, 100
6, 78716, Note_off_c, 9, 38, 100
6, 78720, Note_on_c, 9, 35, 100
6, 78908, Note_off_c, 9, 35, 100
6, 78912, Note_on_c, 9, 35, 100
6, 79100, Note_off_c, 9, 35, 100
6, 79104, Note_on_c, 9, 38, 100
6, 79484, Note_off_c, 9, 38, 100
6, 79488, Note_on_c, 9, 35, 100
6, 79676, Note_off_c, 9, 35, 100
6, 79680, Note_on_c, 9, 35, 100
6, 79868, Note_off_c, 9, 35, 100
6, 79872, Note_on_c, 9, 38, 100
6, 80252, Note_off_c, 9, 38, 100
6, 80256, Note_on_c, 9, 35, 100
6, 80444, Note_off_c, 9, 35, 100
6, 80448, Note_on_c, 9, 35, 100
6, 80636, Note_off_c, 9, 35, 100
6, 80640, Note_on_c, 9, 38, 100
6, 81020, Note_off_c, 9, 38, 100
6, 81024, Note_on_c, 9, 35, 100
6, 81212, Note_off_c, 9, 35, 100
6, 81216, Note_on_c, 9, 35, 100
6, 81404, Note_off_c, 9, 35, 100
6, 81408, Note_on_c, 9, 38, 100
6, 81788, Note_off_c, 9, 38, 100
6, 81792, Note_on_c, 9, 35, 100
6, 81980, Note_off_c, 9, 35, 100
6, 81984, Note_on_c, 9, 35, 100
6, 82172, Note_off_c, 9, 35, 100
6, 82176, Note_on_c, 9, 38, 100
6, 82556, Note_off_c, 9, 38, 100
6, 82560, Note_on_c, 9, 35, 100
6, 82748, Note_off_c, 9, 35, 100
6, 82752, Note_on_c, 9, 35, 100
6, 82940, Note_off_c, 9, 35, 100
6, 82944, Note_on_c, 9, 38, 100
6, 83324, Note_off_c, 9, 38, 100
6, 83328, Note_on_c, 9, 35, 100
6, 83516, Note_off_c, 9, 35, 100
6, 83520, Note_on_c, 9, 35, 100
6, 83708, Note_off_c, 9, 35, 100
6, 83712, Note_on_c, 9, 38, 100
6, 84092, Note_off_c, 9, 38, 100
6, 84096, Note_on_c, 9, 35, 100
6, 84476, Note_off_c, 9, 35, 100
6, 84480, Note_on_c, 9, 38, 100
6, 84860, Note_off_c, 9, 38, 100
6, 84864, Note_on_c, 9, 35, 100
6, 85052, Note_off_c, 9, 35, 100
6, 85056, Note_on_c, 9, 35, 100
6, 85244, Note_off_c, 9, 35, 100
6, 85248, Note_on_c, 9, 38, 100
6, 85628, Note_off_c, 9, 38, 100
6, 85632, Note_on_c, 9, 35, 100
6, 85820, Note_off_c, 9, 35, 100
6, 85824, Note_on_c, 9, 35, 100
6, 86012, Note_off_c, 9, 35, 100
6, 86016, Note_on_c, 9, 38, 100
6, 86396, Note_off_c, 9, 38, 100
6, 86400, Note_on_c, 9, 35, 100
6, 86588, Note_off_c, 9, 35, 100
6, 86592, Note_on_c, 9, 35, 100
6, 86780, Note_off_c, 9, 35, 100
6, 86784, Note_on_c, 9, 38, 100
6, 87164, Note_off_c, 9, 38, 100
6, 87168, Note_on_c, 9, 35, 100
6, 87356, Note_off_c, 9, 35, 100
6, 87360, Note_on_c, 9, 35, 100
6, 87548, Note_off_c, 9, 35, 100
6, 87552, Note_on_c, 9, 38, 100
6, 87932, Note_off_c, 9, 38, 100
6, 87936, Note_on_c, 9, 35, 100
6, 88124, Note_off_c, 9, 35, 100
6, 88128, Note_on_c, 9, 35, 100
6, 88316, Note_off_c, 9, 35, 100
6, 88320, Note_on_c, 9, 38, 100
6, 88700, Note_off_c, 9, 38, 100
6, 88704, Note_on_c, 9, 35, 100
6, 88892, Note_off_c, 9, 35, 100
6, 88896, Note_on_c, 9, 35, 100
6, 89084, Note_off_c, 9, 35, 100
6, 89088, Note_on_c, 9, 38, 100
6, 89468, Note_off_c, 9, 38, 100
6, 89472, Note_on_c, 9, 35, 100
6, 89660, Note_off_c, 9, 35, 100
6, 89664, Note_on_c, 9, 35, 100
6, 89852, Note_off_c, 9, 35, 100
6, 89856, Note_on_c, 9, 38, 100
6, 90236, Note_off_c, 9, 38, 100
6, 90240, Note_on_c, 9, 35, 100
6, 90620, Note_off_c, 9, 35, 100
6, 90624, Note_on_c, 9, 38, 100
6, 91004, Note_off_c, 9, 38, 100
6, 91008, Note_on_c, 9, 35, 100
6, 91196, Note_off_c, 9, 35, 100
6, 91200, Note_on_c, 9, 35, 100
6, 91388, Note_off_c, 9, 35, 100
6, 91392, Note_on_c, 9, 38, 100
6, 91772, Note_off_c, 9, 38, 100
6, 91776, Note_on_c, 9, 35, 100
6, 91964, Note_off_c, 9, 35, 100
6, 91968, Note_on_c, 9, 35, 100
6, 92156, Note_off_c, 9, 35, 100
6, 92160, Note_on_c, 9, 38, 100
6, 92540, Note_off_c, 9, 38, 100
6, 92544, Note_on_c, 9, 35, 100
6, 92732, Note_off_c, 9, 35, 100
6, 92736, Note_on_c, 9, 35, 100
6, 92924, Note_off_c, 9, 35, 100
6, 92928, Note_on_c, 9, 38, 100
6, 93308, Note_off_c, 9, 38, 100
6, 93312, Note_on_c, 9, 35, 100
6, 93500, Note_off_c, 9, 35, 100
6, 93504, Note_on_c, 9, 35, 100
6, 93692, Note_off_c, 9, 35, 100
6, 93696, Note_on_c, 9, 38, 100
6, 94076, Note_off_c, 9, 38, 100
6, 94080, Note_on_c, 9, 35, 100
6, 94268, Note_off_c, 9, 35, 100
6, 94272, Note_on_c, 9, 35, 100
6, 94460, Note_off_c, 9, 35, 100
6, 94464, Note_on_c, 9, 38, 100
6, 94844, Note_off_c, 9, 38, 100
6, 94848, Note_on_c, 9, 35, 100
6, 95036, Note_off_c, 9, 35, 100
6, 95040, Note_on_c, 9, 35, 100
6, 95228, Note_off_c, 9, 35, 100
6, 95232, Note_on_c, 9, 38, 100
6, 95612, Note_off_c, 9, 38, 100
6, 95616, Note_on_c, 9, 35, 100
6, 95804, Note_off_c, 9, 35, 100
6, 95808, Note_on_c, 9, 35, 100
6, 95996, Note_off_c, 9, 35, 100
6, 96000, Note_on_c, 9, 38, 100
6, 96380, Note_off_c, 9, 38, 100
6, 96384, Note_on_c, 9, 35, 100
6, 96764, Note_off_c, 9, 35, 100
6, 96768, Note_on_c, 9, 38, 100
6, 97148, Note_off_c, 9, 38, 100
6, 97152, Note_on_c, 9, 35, 100
6, 97340, Note_off_c, 9, 35, 100
6, 97344, Note_on_c, 9, 35, 100
6, 97532, Note_off_c, 9, 35, 100
6, 97536, Note_on_c, 9, 38, 100
6, 97916, Note_off_c, 9, 38, 100
6, 97920, Note_on_c, 9, 35, 100
6, 98108, Note_off_c, 9, 35, 100
6, 98112, Note_on_c, 9, 35, 100
6, 98300, Note_off_c, 9, 35, 100
6, 98304, Note_on_c, 9, 38, 100
6, 98684, Note_off_c, 9, 38, 100
6, 98688, Note_on_c, 9, 35, 100
6, 98876, Note_off_c, 9, 35, 100
6, 98880, Note_on_c, 9, 35, 100
6, 99068, Note_off_c, 9, 35, 100
6, 99072, Note_on_c, 9, 38, 100
6, 99452, Note_off_c, 9, 38, 100
6, 99456, Note_on_c, 9, 35, 100
6, 99644, Note_off_c, 9, 35, 100
6, 99648, Note_on_c, 9, 35, 100
6, 99836, Note_off_c, 9, 35, 100
6, 99840, Note_on_c, 9, 38, 100
6, 100220, Note_off_c, 9, 38, 100
6, 100224, Note_on_c, 9, 35, 100
6, 100412, Note_off_c, 9, 35, 100
6, 100416, Note_on_c, 9, 35, 100
6, 100604, Note_off_c, 9, 35, 100
6, 100608, Note_on_c, 9, 38, 100
6, 100988, Note_off_c, 9, 38, 100
6, 100992, Note_on_c, 9, 35, 100
6, 101180, Note_off_c, 9, 35, 100
6, 101184, Note_on_c, 9, 35, 100
6, 101372, Note_off_c, 9, 35, 100
6, 101376, Note_on_c, 9, 35, 100
6, 101756, Note_off_c, 9, 35, 100
6, 101760, Note_on_c, 9, 35, 100
6, 102140, Note_off_c, 9, 35, 100
6, 102144, Note_on_c, 9, 35, 100
6, 102524, Note_off_c, 9, 35, 100
6, 102528, Note_on_c, 9, 35, 100
6, 102908, Note_off_c, 9, 35, 100
6, 102912, Note_on_c, 9, 35, 100
6, 103292, Note_off_c, 9, 35, 100
6, 103296, Note_on_c, 9, 35, 100
6, 103676, Note_off_c, 9, 35, 100
6, 103680, Note_on_c, 9, 35, 100
6, 103868, Note_off_c, 9, 35, 100
6, 103872, Note_on_c, 9, 35, 100
6, 104060, Note_off_c, 9, 35, 100
6, 104064, Note_on_c, 9, 35, 100
6, 104444, Note_off_c, 9, 35, 100
6, 104448, Note_on_c, 9, 35, 100
6, 104828, Note_off_c, 9, 35, 100
6, 104832, Note_on_c, 9, 35, 100
6, 105212, Note_off_c, 9, 35, 100
6, 105216, Note_on_c, 9, 35, 100
6, 105596, Note_off_c, 9, 35, 100
6, 105600, Note_on_c, 9, 35, 100
6, 105980, Note_off_c, 9, 35, 100
6, 105984, Note_on_c, 9, 35, 100
6, 106364, Note_off_c, 9, 35, 100
6, 106368, Note_on_c, 9, 35, 100
6, 106748, Note_off_c, 9, 35, 100
6, 106752, Note_on_c, 9, 35, 100
6, 106940, Note_off_c, 9, 35, 100
6, 106944, Note_on_c, 9, 35, 100
6, 107132, Note_off_c, 9, 35, 100
6, 107136, Note_on_c, 9, 35, 100
6, 107516, Note_off_c, 9, 35, 100
6, 107520, Note_on_c, 9, 35, 100
6, 107900, Note_off_c, 9, 35, 100
6, 107904, Note_on_c, 9, 35, 100
6, 108284, Note_off_c, 9, 35, 100
6, 108288, Note_on_c, 9, 35, 100
6, 108668, Note_off_c, 9, 35, 100
6, 108672, Note_on_c, 9, 35, 100
6, 109052, Note_off_c, 9, 35, 100
6, 109056, Note_on_c, 9, 35, 100
6, 109436, Note_off_c, 9, 35, 100
6, 109440, Note_on_c, 9, 35, 100
6, 109820, Note_off_c, 9, 35, 100
6, 109824, Note_on_c, 9, 35, 100
6, 110012, Note_off_c, 9, 35, 100
6, 110016, Note_on_c, 9, 35, 100
6, 110204, Note_off_c, 9, 35, 100
6, 110208, Note_on_c, 9, 35, 100
6, 110588, Note_off_c, 9, 35, 100
6, 110592, Note_on_c, 9, 35, 100
6, 110972, Note_off_c, 9, 35, 100
6, 110976, Note_on_c, 9, 35, 100
6, 111356, Note_off_c, 9, 35, 100
6, 111360, Note_on_c, 9, 35, 100
6, 111740, Note_off_c, 9, 35, 100
6, 111744, Note_on_c, 9, 35, 100
6, 112124, Note_off_c, 9, 35, 100
6, 112128, Note_on_c, 9, 35, 100
6, 112508, Note_off_c, 9, 35, 100
6, 112512, Note_on_c, 9, 35, 100
6, 112892, Note_off_c, 9, 35, 100
6, 112896, Note_on_c, 9, 35, 100
6, 113084, Note_off_c, 9, 35, 100
6, 113088, Note_on_c, 9, 35, 100
6, 113276, Note_off_c, 9, 35, 100
6, 113280, Note_on_c, 9, 35, 100
6, 113660, Note_off_c, 9, 35, 100
6, 113664, Note_on_c, 9, 35, 100
6, 114044, Note_off_c, 9, 35, 100
6, 114048, Note_on_c, 9, 35, 100
6, 114428, Note_off_c, 9, 35, 100
6, 114432, Note_on_c, 9, 35, 100
6, 114812, Note_off_c, 9, 35, 100
6, 114816, Note_on_c, 9, 35, 100
6, 115196, Note_off_c, 9, 35, 100
6, 115200, Note_on_c, 9, 35, 100
6, 115580, Note_off_c, 9, 35, 100
6, 115584, Note_on_c, 9, 35, 100
6, 115964, Note_off_c, 9, 35, 100
6, 115968, Note_on_c, 9, 35, 100
6, 116156, Note_off_c, 9, 35, 100
6, 116160, Note_on_c, 9, 35, 100
6, 116348, Note_off_c, 9, 35, 100
6, 116352, Note_on_c, 9, 35, 100
6, 116732, Note_off_c, 9, 35, 100
6, 116736, Note_on_c, 9, 35, 100
6, 117116, Note_off_c, 9, 35, 100
6, 117120, Note_on_c, 9, 35, 100
6, 117500, Note_off_c, 9, 35, 100
6, 117504, Note_on_c, 9, 35, 100
6, 117884, Note_off_c, 9, 35, 100
6, 117888, Note_on_c, 9, 35, 100
6, 118268, Note_off_c, 9, 35, 100
6, 118272, Note_on_c, 9, 35, 100
6, 118652, Note_off_c, 9, 35, 100
6, 118656, Note_on_c, 9, 35, 100
6, 119036, Note_off_c, 9, 35, 100
6, 119040, Note_on_c, 9, 35, 100
6, 119228, Note_off_c, 9, 35, 100
6, 119232, Note_on_c, 9, 35, 100
6, 119420, Note_off_c, 9, 35, 100
6, 119424, Note_on_c, 9, 35, 100
6, 119804, Note_off_c, 9, 35, 100
6, 119808, Note_on_c, 9, 35, 100
6, 120188, Note_off_c, 9, 35, 100
6, 120192, Note_on_c, 9, 35, 100
6, 120572, Note_off_c, 9, 35, 100
6, 120576, Note_on_c, 9, 35, 100
6, 120956, Note_off_c, 9, 35, 100
6, 120960, Note_on_c, 9, 35, 100
6, 121340, Note_off_c, 9, 35, 100
6, 121344, Note_on_c, 9, 35, 100
6, 121724, Note_off_c, 9, 35, 100
6, 121728, Note_on_c, 9, 35, 100
6, 122108, Note_off_c, 9, 35, 100
6, 122112, Note_on_c, 9, 35, 100
6, 122300, Note_off_c, 9, 35, 100
6, 122304, Note_on_c, 9, 35, 100
6, 122492, Note_off_c, 9, 35, 100
6, 122496, Note_on_c, 9, 35, 100
6, 122876, Note_off_c, 9, 35, 100
6, 122880, Note_on_c, 9, 35, 100
6, 123260, Note_off_c, 9, 35, 100
6, 123264, Note_on_c, 9, 35, 100
6, 123644, Note_off_c, 9, 35, 100
6, 123648, Note_on_c, 9, 35, 100
6, 124028, Note_off_c, 9, 35, 100
6, 124032, Note_on_c, 9, 35, 100
6, 124412, Note_off_c, 9, 35, 100
6, 124416, Note_on_c, 9, 35, 100
6, 124796, Note_off_c, 9, 35, 100
6, 124800, Note_on_c, 9, 35, 100
6, 125180, Note_off_c, 9, 35, 100
6, 125184, Note_on_c, 9, 35, 100
6, 125372, Note_off_c, 9, 35, 100
6, 125376, Note_on_c, 9, 35, 100
6, 125564, Note_off_c, 9, 35, 100
6, 125568, Note_on_c, 9, 35, 100
6, 125948, Note_off_c, 9, 35, 100
6, 125952, Note_on_c, 9, 35, 100
6, 126332, Note_off_c, 9, 35, 100
6, 126336, Note_on_c, 9, 35, 100
6, 126716, Note_off_c, 9, 35, 100
6, 126720, Note_on_c, 9, 35, 100
6, 127100, Note_off_c, 9, 35, 100
6, 127104, Note_on_c, 9, 35, 100
6, 127484, Note_off_c, 9, 35, 100
6, 127488, Note_on_c, 9, 35, 100
6, 127868, Note_off_c, 9, 35, 100
6, 127872, Note_on_c, 9, 35, 100
6, 128252, Note_off_c, 9, 35, 100
6, 128256, Note_on_c, 9, 35, 100
6, 128444, Note_off_c, 9, 35, 100
6, 128448, Note_on_c, 9, 35, 100
6, 128636, Note_off_c, 9, 35, 100
6, 128640, Note_on_c, 9, 35, 100
6, 129020, Note_off_c, 9, 35, 100
6, 129024, Note_on_c, 9, 35, 100
6, 129404, Note_off_c, 9, 35, 100
6, 129408, Note_on_c, 9, 35, 100
6, 129788, Note_off_c, 9, 35, 100
6, 129792, Note_on_c, 9, 35, 100
6, 130172, Note_off_c, 9, 35, 100
6, 130176, Note_on_c, 9, 35, 100
6, 130556, Note_off_c, 9, 35, 100
6, 130560, Note_on_c, 9, 35, 100
6, 130940, Note_off_c, 9, 35, 100
6, 130944, Note_on_c, 9, 35, 100
6, 131324, Note_off_c, 9, 35, 100
6, 131328, Note_on_c, 9, 35, 100
6, 131516, Note_off_c, 9, 35, 100
6, 131520, Note_on_c, 9, 35, 100
6, 131708, Note_off_c, 9, 35, 100
6, 131712, Note_on_c, 9, 35, 100
6, 132092, Note_off_c, 9, 35, 100
6, 132096, Note_on_c, 9, 35, 100
6, 132476, Note_off_c, 9, 35, 100
6, 132480, Note_on_c, 9, 35, 100
6, 132860, Note_off_c, 9, 35, 100
6, 132864, Note_on_c, 9, 35, 100
6, 133244, Note_off_c, 9, 35, 100
6, 133248, Note_on_c, 9, 35, 100
6, 133628, Note_off_c, 9, 35, 100
6, 133632, Note_on_c, 9, 35, 100
6, 134012, Note_off_c, 9, 35, 100
6, 134016, Note_on_c, 9, 35, 100
6, 134396, Note_off_c, 9, 35, 100
6, 134400, Note_on_c, 9, 35, 100
6, 134588, Note_off_c, 9, 35, 100
6, 134592, Note_on_c, 9, 35, 100
6, 134780, Note_off_c, 9, 35, 100
6, 134784, Note_on_c, 9, 35, 100
6, 135164, Note_off_c, 9, 35, 100
6, 135168, Note_on_c, 9, 35, 100
6, 135548, Note_off_c, 9, 35, 100
6, 135552, Note_on_c, 9, 35, 100
6, 135932, Note_off_c, 9, 35, 100
6, 135936, Note_on_c, 9, 35, 100
6, 136316, Note_off_c, 9, 35, 100
6, 136320, Note_on_c, 9, 35, 100
6, 136700, Note_off_c, 9, 35, 100
6, 136704, Note_on_c, 9, 35, 100
6, 137084, Note_off_c, 9, 35, 100
6, 137088, Note_on_c, 9, 35, 100
6, 137468, Note_off_c, 9, 35, 100
6, 137472, Note_on_c, 9, 35, 100
6, 137660, Note_off_c, 9, 35, 100
6, 137664, Note_on_c, 9, 35, 100
6, 137852, Note_off_c, 9, 35, 100
6, 137856, Note_on_c, 9, 35, 100
6, 138236, Note_off_c, 9, 35, 100
6, 138240, Note_on_c, 9, 35, 100
6, 138620, Note_off_c, 9, 35, 100
6, 138624, Note_on_c, 9, 35, 100
6, 139004, Note_off_c, 9, 35, 100
6, 139008, Note_on_c, 9, 35, 100
6, 139388, Note_off_c, 9, 35, 100
6, 139392, Note_on_c, 9, 35, 100
6, 139772, Note_off_c, 9, 35, 100
6, 139776, Note_on_c, 9, 35, 100
6, 140156, Note_off_c, 9, 35, 100
6, 140160, Note_on_c, 9, 35, 100
6, 140540, Note_off_c, 9, 35, 100
6, 140544, Note_on_c, 9, 35, 100
6, 140732, Note_off_c, 9, 35, 100
6, 140736, Note_on_c, 9, 35, 100
6, 140924, Note_off_c, 9, 35, 100
6, 140928, Note_on_c, 9, 35, 100
6, 141308, Note_off_c, 9, 35, 100
6, 141312, Note_on_c, 9, 35, 100
6, 141692, Note_off_c, 9, 35, 100
6, 141696, Note_on_c, 9, 35, 100
6, 142076, Note_off_c, 9, 35, 100
6, 142080, Note_on_c, 9, 35, 100
6, 142460, Note_off_c, 9, 35, 100
6, 142464, Note_on_c, 9, 35, 100
6, 142844, Note_off_c, 9, 35, 100
6, 142848, Note_on_c, 9, 35, 100
6, 143228, Note_off_c, 9, 35, 100
6, 143232, Note_on_c, 9, 35, 100
6, 143612, Note_off_c, 9, 35, 100
6, 143616, Note_on_c, 9, 35, 100
6, 143804, Note_off_c, 9, 35, 100
6, 143808, Note_on_c, 9, 35, 100
6, 143996, Note_off_c, 9, 35, 100
6, 144000, Note_on_c, 9, 35, 100
6, 144380, Note_off_c, 9, 35, 100
6, 144384, Note_on_c, 9, 35, 100
6, 144764, Note_off_c, 9, 35, 100
6, 144768, Note_on_c, 9, 35, 100
6, 145148, Note_off_c, 9, 35, 100
6, 145152, Note_on_c, 9, 35, 100
6, 145532, Note_off_c, 9, 35, 100
6, 145536, Note_on_c, 9, 35, 100
6, 145916, Note_off_c, 9, 35, 100
6, 145920, Note_on_c, 9, 35, 100
6, 146300, Note_off_c, 9, 35, 100
6, 146304, Note_on_c, 9, 35, 100
6, 146684, Note_off_c, 9, 35, 100
6, 146688, Note_on_c, 9, 35, 100
6, 146876, Note_off_c, 9, 35, 100
6, 146880, Note_on_c, 9, 35, 100
6, 147068, Note_off_c, 9, 35, 100
6, 147072, Note_on_c, 9, 35, 100
6, 147452, Note_off_c, 9, 35, 100
6, 147456, Note_on_c, 9, 35, 100
6, 147836, Note_off_c, 9, 35, 100
6, 147840, Note_on_c, 9, 35, 100
6, 148220, Note_off_c, 9, 35, 100
6, 148224, Note_on_c, 9, 35, 100
6, 148604, Note_off_c, 9, 35, 100
6, 148608, Note_on_c, 9, 35, 100
6, 148988, Note_off_c, 9, 35, 100
6, 148992, Note_on_c, 9, 35, 100
6, 149372, Note_off_c, 9, 35, 100
6, 149376, Note_on_c, 9, 35, 100
6, 149756, Note_off_c, 9, 35, 100
6, 149760, Note_on_c, 9, 35, 100
6, 149948, Note_off_c, 9, 35, 100
6, 149952, Note_on_c, 9, 35, 100
6, 150140, Note_off_c, 9, 35, 100
6, 150144, Note_on_c, 9, 35, 100
6, 150524, Note_off_c, 9, 35, 100
6, 150528, Note_on_c, 9, 35, 100
6, 150908, Note_off_c, 9, 35, 100
6, 150912, Note_on_c, 9, 35, 100
6, 151292, Note_off_c, 9, 35, 100
6, 151296, Note_on_c, 9, 35, 100
6, 151676, Note_off_c, 9, 35, 100
6, 151680, Note_on_c, 9, 35, 100
6, 152060, Note_off_c, 9, 35, 100
6, 152064, Note_on_c, 9, 35, 100
6, 152444, Note_off_c, 9, 35, 100
6, 152448, Note_on_c, 9, 35, 100
6, 152828, Note_off_c, 9, 35, 100
6, 152832, Note_on_c, 9, 35, 100
6, 153020, Note_off_c, 9, 35, 100
6, 153024, Note_on_c, 9, 35, 100
6, 153212, Note_off_c, 9, 35, 100
6, 153216, Note_on_c, 9, 35, 100
6, 153596, Note_off_c, 9, 35, 100
6, 153600, Note_on_c, 9, 35, 100
6, 153980, Note_off_c, 9, 35, 100
6, 153984, Note_on_c, 9, 35, 100
6, 154364, Note_off_c, 9, 35, 100
6, 154368, Note_on_c, 9, 35, 100
6, 154748, Note_off_c, 9, 35, 100
6, 154752, Note_on_c, 9, 35, 100
6, 155132, Note_off_c, 9, 35, 100
6, 155136, Note_on_c, 9, 35, 100
6, 155516, Note_off_c, 9, 35, 100
6, 155520, Note_on_c, 9, 35, 100
6, 155900, Note_off_c, 9, 35, 100
6, 155904, Note_on_c, 9, 35, 100
6, 156092, Note_off_c, 9, 35, 100
6, 156096, Note_on_c, 9, 35, 100
6, 156284, Note_off_c, 9, 35, 100
6, 156288, Note_on_c, 9, 35, 100
6, 156668, Note_off_c, 9, 35, 100
6, 156672, Note_on_c, 9, 35, 100
6, 157052, Note_off_c, 9, 35, 100
6, 157056, Note_on_c, 9, 35, 100
6, 157436, Note_off_c, 9, 35, 100
6, 157440, Note_on_c, 9, 35, 100
6, 157820, Note_off_c, 9, 35, 100
6, 157824, Note_on_c, 9, 35, 100
6, 158204, Note_off_c, 9, 35, 100
6, 158208, Note_on_c, 9, 35, 100
6, 158588, Note_off_c, 9, 35, 100
6, 158592, Note_on_c, 9, 35, 100
6, 158972, Note_off_c, 9, 35, 100
6, 158976, Note_on_c, 9, 35, 100
6, 159164, Note_off_c, 9, 35, 100
6, 159168, Note_on_c, 9, 35, 100
6, 159356, Note_off_c, 9, 35, 100
6, 159360, Note_on_c, 9, 35, 100
6, 159740, Note_off_c, 9, 35, 100
6, 159744, Note_on_c, 9, 35, 100
6, 160124, Note_off_c, 9, 35, 100
6, 160128, Note_on_c, 9, 35, 100
6, 160508, Note_off_c, 9, 35, 100
6, 160512, Note_on_c, 9, 35, 100
6, 160892, Note_off_c, 9, 35, 100
6, 160896, Note_on_c, 9, 35, 100
6, 161276, Note_off_c, 9, 35, 100
6, 161280, Note_on_c, 9, 35, 100
6, 161660, Note_off_c, 9, 35, 100
6, 161664, Note_on_c, 9, 35, 100
6, 162044, Note_off_c, 9, 35, 100
6, 162048, Note_on_c, 9, 35, 100
6, 162236, Note_off_c, 9, 35, 100
6, 162240, Note_on_c, 9, 35, 100
6, 162428, Note_off_c, 9, 35, 100
6, 162432, Note_on_c, 9, 35, 100
6, 162812, Note_off_c, 9, 35, 100
6, 162816, Note_on_c, 9, 35, 100
6, 163196, Note_off_c, 9, 35, 100
6, 163200, Note_on_c, 9, 35, 100
6, 163580, Note_off_c, 9, 35, 100
6, 163584, Note_on_c, 9, 35, 100
6, 163964, Note_off_c, 9, 35, 100
6, 163968, Note_on_c, 9, 35, 100
6, 164348, Note_off_c, 9, 35, 100
6, 164352, Note_on_c, 9, 35, 100
6, 164732, Note_off_c, 9, 35, 100
6, 164736, Note_on_c, 9, 35, 100
6, 165116, Note_off_c, 9, 35, 100
6, 165120, Note_on_c, 9, 35, 100
6, 165308, Note_off_c, 9, 35, 100
6, 165312, Note_on_c, 9, 35, 100
6, 165500, Note_off_c, 9, 35, 100
6, 165504, Note_on_c, 9, 35, 100
6, 165884, Note_off_c, 9, 35, 100
6, 165888, Note_on_c, 9, 35, 100
6, 166268, Note_off_c, 9, 35, 100
6, 166272, Note_on_c, 9, 35, 100
6, 166652, Note_off_c, 9, 35, 100
6, 166656, Note_on_c, 9, 35, 100
6, 167036, Note_off_c, 9, 35, 100
6, 167040, Note_on_c, 9, 35, 100
6, 167420, Note_off_c, 9, 35, 100
6, 167420, End_track
7, 0, Start_track
7, 0, Title_t, "drums"
7, 5568, Note_on_c, 9, 38, 100
7, 5756, Note_off_c, 9, 38, 100
7, 5760, Note_on_c, 9, 46, 100
7, 6140, Note_off_c, 9, 46, 100
7, 8640, Note_on_c, 9, 38, 100
7, 8828, Note_off_c, 9, 38, 100
7, 8832, Note_on_c, 9, 46, 100
7, 9212, Note_off_c, 9, 46, 100
7, 11712, Note_on_c, 9, 38, 100
7, 11900, Note_off_c, 9, 38, 100
7, 11904, Note_on_c, 9, 46, 100
7, 12284, Note_off_c, 9, 46, 100
7, 14784, Note_on_c, 9, 38, 100
7, 14972, Note_off_c, 9, 38, 100
7, 14976, Note_on_c, 9, 46, 100
7, 15356, Note_off_c, 9, 46, 100
7, 17856, Note_on_c, 9, 38, 100
7, 18044, Note_off_c, 9, 38, 100
7, 18048, Note_on_c, 9, 46, 100
7, 18428, Note_off_c, 9, 46, 100
7, 20928, Note_on_c, 9, 38, 100
7, 21116, Note_off_c, 9, 38, 100
7, 21120, Note_on_c, 9, 46, 100
7, 21500, Note_off_c, 9, 46, 100
7, 24000, Note_on_c, 9, 38, 100
7, 24188, Note_off_c, 9, 38, 100
7, 24192, Note_on_c, 9, 46, 100
7, 24572, Note_off_c, 9, 46, 100
7, 27072, Note_on_c, 9, 38, 100
7, 27260, Note_off_c, 9, 38, 100
7, 27264, Note_on_c, 9, 46, 100
7, 27644, Note_off_c, 9, 46, 100
7, 28800, Note_on_c, 9, 42, 100
7, 28806, Note_off_c, 9, 42, 100
7, 28992, Note_on_c, 9, 42, 100
7, 28998, Note_off_c, 9, 42, 100
7, 30336, Note_on_c, 9, 42, 100
7, 30339, Note_off_c, 9, 42, 100
7, 30528, Note_on_c, 9, 42, 100
7, 30531, Note_off_c, 9, 42, 100
7, 33408, Note_on_c, 9, 42, 100
7, 33411, Note_off_c, 9, 42, 100
7, 33603, Note_on_c, 9, 46, 100
7, 33606, Note_off_c, 9, 46, 100
7, 34944, Note_on_c, 9, 42, 100
7, 34947, Note_off_c, 9, 42, 100
7, 35136, Note_on_c, 9, 46, 100
7, 35142, Note_off_c, 9, 46, 100
7, 36480, Note_on_c, 9, 42, 100
7, 36486, Note_off_c, 9, 42, 100
7, 36672, Note_on_c, 9, 46, 100
7, 36678, Note_off_c, 9, 46, 100
7, 36864, Note_on_c, 9, 49, 100
7, 36870, Note_off_c, 9, 49, 100
7, 39552, Note_on_c, 9, 42, 100
7, 39558, Note_off_c, 9, 42, 100
7, 39744, Note_on_c, 9, 46, 100
7, 39750, Note_off_c, 9, 46, 100
7, 41088, Note_on_c, 9, 42, 100
7, 41097, Note_off_c, 9, 42, 100
7, 41280, Note_on_c, 9, 46, 100
7, 41286, Note_off_c, 9, 46, 100
7, 42624, Note_on_c, 9, 42, 100
7, 42627, Note_off_c, 9, 42, 100
7, 42816, Note_on_c, 9, 46, 100
7, 42819, Note_off_c, 9, 46, 100
7, 44160, Note_on_c, 9, 42, 100
7, 44166, Note_off_c, 9, 42, 100
7, 44352, Note_on_c, 9, 46, 100
7, 44358, Note_off_c, 9, 46, 100
7, 45696, Note_on_c, 9, 42, 100
7, 45699, Note_off_c, 9, 42, 100
7, 45888, Note_on_c, 9, 46, 100
7, 45894, Note_off_c, 9, 46, 100
7, 47232, Note_on_c, 9, 42, 100
7, 47235, Note_off_c, 9, 42, 100
7, 47424, Note_on_c, 9, 46, 100
7, 47430, Note_off_c, 9, 46, 100
7, 48768, Note_on_c, 9, 42, 100
7, 48771, Note_off_c, 9, 42, 100
7, 48960, Note_on_c, 9, 46, 100
7, 48966, Note_off_c, 9, 46, 100
7, 49168, Note_on_c, 9, 49, 100
7, 49174, Note_off_c, 9, 49, 100
7, 52608, Note_on_c, 9, 42, 100
7, 52611, Note_off_c, 9, 42, 100
7, 53027, Note_on_c, 9, 46, 100
7, 53030, Note_off_c, 9, 46, 100
7, 54144, Note_on_c, 9, 42, 100
7, 54150, Note_off_c, 9, 42, 100
7, 54531, Note_on_c, 9, 46, 100
7, 54534, Note_off_c, 9, 46, 100
7, 57792, Note_on_c, 9, 38, 100
7, 57980, Note_off_c, 9, 38, 100
7, 57984, Note_on_c, 9, 46, 100
7, 58364, Note_off_c, 9, 46, 100
7, 60864, Note_on_c, 9, 38, 100
7, 61052, Note_off_c, 9, 38, 100
7, 61056, Note_on_c, 9, 46, 100
7, 61436, Note_off_c, 9, 46, 100
7, 63936, Note_on_c, 9, 38, 100
7, 64124, Note_off_c, 9, 38, 100
7, 64128, Note_on_c, 9, 46, 100
7, 64508, Note_off_c, 9, 46, 100
7, 67008, Note_on_c, 9, 38, 100
7, 67196, Note_off_c, 9, 38, 100
7, 67200, Note_on_c, 9, 46, 100
7, 67580, Note_off_c, 9, 46, 100
7, 70080, Note_on_c, 9, 38, 100
7, 70268, Note_off_c, 9, 38, 100
7, 70272, Note_on_c, 9, 46, 100
7, 70652, Note_off_c, 9, 46, 100
7, 73152, Note_on_c, 9, 38, 100
7, 73340, Note_off_c, 9, 38, 100
7, 73344, Note_on_c, 9, 46, 100
7, 73724, Note_off_c, 9, 46, 100
7, 103872, Note_on_c, 9, 38, 100
7, 104060, Note_off_c, 9, 38, 100
7, 104064, Note_on_c, 9, 46, 100
7, 104444, Note_off_c, 9, 46, 100
7, 106944, Note_on_c, 9, 38, 100
7, 107132, Note_off_c, 9, 38, 100
7, 107136, Note_on_c, 9, 46, 100
7, 107516, Note_off_c, 9, 46, 100
7, 110016, Note_on_c, 9, 38, 100
7, 110204, Note_off_c, 9, 38, 100
7, 110208, Note_on_c, 9, 46, 100
7, 110588, Note_off_c, 9, 46, 100
7, 113088, Note_on_c, 9, 38, 100
7, 113276, Note_off_c, 9, 38, 100
7, 113280, Note_on_c, 9, 46, 100
7, 113660, Note_off_c, 9, 46, 100
7, 116160, Note_on_c, 9, 38, 100
7, 116348, Note_off_c, 9, 38, 100
7, 116352, Note_on_c, 9, 46, 100
7, 116732, Note_off_c, 9, 46, 100
7, 119232, Note_on_c, 9, 38, 100
7, 119420, Note_off_c, 9, 38, 100
7, 119424, Note_on_c, 9, 46, 100
7, 119804, Note_off_c, 9, 46, 100
7, 122304, Note_on_c, 9, 38, 100
7, 122492, Note_off_c, 9, 38, 100
7, 122496, Note_on_c, 9, 46, 100
7, 122876, Note_off_c, 9, 46, 100
7, 125376, Note_on_c, 9, 38, 100
7, 125564, Note_off_c, 9, 38, 100
7, 125568, Note_on_c, 9, 46, 100
7, 125948, Note_off_c, 9, 46, 100
7, 128448, Note_on_c, 9, 38, 100
7, 128636, Note_off_c, 9, 38, 100
7, 128640, Note_on_c, 9, 46, 100
7, 129020, Note_off_c, 9, 46, 100
7, 131520, Note_on_c, 9, 38, 100
7, 131708, Note_off_c, 9, 38, 100
7, 131712, Note_on_c, 9, 46, 100
7, 132092, Note_off_c, 9, 46, 100
7, 134592, Note_on_c, 9, 38, 100
7, 134780, Note_off_c, 9, 38, 100
7, 134784, Note_on_c, 9, 46, 100
7, 135164, Note_off_c, 9, 46, 100
7, 137664, Note_on_c, 9, 38, 100
7, 137852, Note_off_c, 9, 38, 100
7, 137856, Note_on_c, 9, 46, 100
7, 138236, Note_off_c, 9, 46, 100
7, 140736, Note_on_c, 9, 38, 100
7, 140924, Note_off_c, 9, 38, 100
7, 140928, Note_on_c, 9, 46, 100
7, 141308, Note_off_c, 9, 46, 100
7, 143808, Note_on_c, 9, 38, 100
7, 143996, Note_off_c, 9, 38, 100
7, 144000, Note_on_c, 9, 46, 100
7, 144380, Note_off_c, 9, 46, 100
7, 146880, Note_on_c, 9, 38, 100
7, 147068, Note_off_c, 9, 38, 100
7, 147072, Note_on_c, 9, 46, 100
7, 147452, Note_off_c, 9, 46, 100
7, 149952, Note_on_c, 9, 38, 100
7, 150140, Note_off_c, 9, 38, 100
7, 150144, Note_on_c, 9, 46, 100
7, 150524, Note_off_c, 9, 46, 100
7, 153024, Note_on_c, 9, 38, 100
7, 153212, Note_off_c, 9, 38, 100
7, 153216, Note_on_c, 9, 46, 100
7, 153596, Note_off_c, 9, 46, 100
7, 156096, Note_on_c, 9, 38, 100
7, 156284, Note_off_c, 9, 38, 100
7, 156288, Note_on_c, 9, 46, 100
7, 156668, Note_off_c, 9, 46, 100
7, 159168, Note_on_c, 9, 38, 100
7, 159356, Note_off_c, 9, 38, 100
7, 159360, Note_on_c, 9, 46, 100
7, 159740, Note_off_c, 9, 46, 100
7, 162240, Note_on_c, 9, 38, 100
7, 162428, Note_off_c, 9, 38, 100
7, 162432, Note_on_c, 9, 46, 100
7, 162812, Note_off_c, 9, 46, 100
7, 165312, Note_on_c, 9, 38, 100
7, 165500, Note_off_c, 9, 38, 100
7, 165504, Note_on_c, 9, 46, 100
7, 165884, Note_off_c, 9, 46, 100
7, 165884, End_track
0, 0, End_of_file
