0, 0, Header, 1, 16, 192
1, 0, Start_track
1, 0, Time_signature, 4, 2, 24, 8
1, 0, Key_signature, 0, "major"
1, 0, Tempo, 631579
1, 32256, Tempo, 631579
1, 33792, Tempo, 521739
1, 33792, End_track
2, 0, Start_track
2, 0, MIDI_port, 0
2, 0, Title_t, "Bass guitar     "
2, 0, Program_c, 1, 33
2, 0, Control_c, 1, 7, 127
2, 0, Control_c, 1, 10, 64
2, 0, Control_c, 1, 91, 94
2, 0, Note_on_c, 1, 33, 90
2, 48, Note_on_c, 1, 33, 0
2, 96, Note_on_c, 1, 33, 90
2, 144, Note_on_c, 1, 33, 0
2, 192, Note_on_c, 1, 33, 90
2, 240, Note_on_c, 1, 33, 0
2, 288, Note_on_c, 1, 33, 90
2, 336, Note_on_c, 1, 33, 0
2, 384, Note_on_c, 1, 33, 90
2, 432, Note_on_c, 1, 33, 0
2, 480, Note_on_c, 1, 33, 90
2, 528, Note_on_c, 1, 33, 0
2, 576, Note_on_c, 1, 33, 90
2, 624, Note_on_c, 1, 33, 0
2, 672, Note_on_c, 1, 33, 90
2, 720, Note_on_c, 1, 33, 0
2, 768, Note_on_c, 1, 33, 90
2, 816, Note_on_c, 1, 33, 0
2, 864, Note_on_c, 1, 33, 90
2, 912, Note_on_c, 1, 33, 0
2, 960, Note_on_c, 1, 33, 90
2, 1008, Note_on_c, 1, 33, 0
2, 1056, Note_on_c, 1, 33, 90
2, 1104, Note_on_c, 1, 33, 0
2, 1152, Note_on_c, 1, 33, 90
2, 1200, Note_on_c, 1, 33, 0
2, 1248, Note_on_c, 1, 33, 90
2, 1296, Note_on_c, 1, 33, 0
2, 1344, Note_on_c, 1, 33, 90
2, 1392, Note_on_c, 1, 33, 0
2, 1440, Note_on_c, 1, 33, 90
2, 1488, Note_on_c, 1, 33, 0
2, 1536, Note_on_c, 1, 36, 90
2, 1584, Note_on_c, 1, 36, 0
2, 1632, Note_on_c, 1, 36, 90
2, 1680, Note_on_c, 1, 36, 0
2, 1728, Note_on_c, 1, 36, 90
2, 1776, Note_on_c, 1, 36, 0
2, 1824, Note_on_c, 1, 36, 90
2, 1872, Note_on_c, 1, 36, 0
2, 1920, Note_on_c, 1, 36, 90
2, 1968, Note_on_c, 1, 36, 0
2, 2016, Note_on_c, 1, 36, 90
2, 2064, Note_on_c, 1, 36, 0
2, 2064, Note_on_c, 1, 36, 90
2, 2112, Note_on_c, 1, 36, 0
2, 2160, Note_on_c, 1, 36, 90
2, 2208, Note_on_c, 1, 36, 0
2, 2208, Note_on_c, 1, 36, 90
2, 2256, Note_on_c, 1, 36, 0
2, 2304, Note_on_c, 1, 31, 90
2, 2928, Note_on_c, 1, 31, 0
2, 2976, Note_on_c, 1, 31, 90
2, 3024, Note_on_c, 1, 31, 0
2, 3072, Note_on_c, 1, 31, 127
2, 3120, Note_on_c, 1, 31, 0
2, 3168, Note_on_c, 1, 31, 127
2, 3456, Note_on_c, 1, 31, 0
2, 3456, Note_on_c, 1, 33, 127
2, 3504, Note_on_c, 1, 33, 0
2, 3552, Note_on_c, 1, 33, 127
2, 3840, Note_on_c, 1, 33, 0
2, 3840, Note_on_c, 1, 36, 127
2, 3888, Note_on_c, 1, 36, 0
2, 3936, Note_on_c, 1, 36, 127
2, 4224, Note_on_c, 1, 36, 0
2, 4224, Note_on_c, 1, 31, 127
2, 4272, Note_on_c, 1, 31, 0
2, 4320, Note_on_c, 1, 31, 127
2, 4560, Note_on_c, 1, 31, 0
2, 4608, Note_on_c, 1, 31, 127
2, 4704, Note_on_c, 1, 31, 0
2, 4704, Note_on_c, 1, 31, 127
2, 4992, Note_on_c, 1, 31, 0
2, 4992, Note_on_c, 1, 33, 127
2, 5040, Note_on_c, 1, 33, 0
2, 5088, Note_on_c, 1, 33, 127
2, 5376, Note_on_c, 1, 33, 0
2, 5376, Note_on_c, 1, 36, 127
2, 5424, Note_on_c, 1, 36, 0
2, 5472, Note_on_c, 1, 36, 127
2, 5760, Note_on_c, 1, 36, 0
2, 5760, Note_on_c, 1, 31, 127
2, 5808, Note_on_c, 1, 31, 0
2, 5856, Note_on_c, 1, 31, 127
2, 6096, Note_on_c, 1, 31, 0
2, 6144, Note_on_c, 1, 33, 127
2, 6192, Note_on_c, 1, 33, 0
2, 6240, Note_on_c, 1, 33, 127
2, 6480, Note_on_c, 1, 33, 0
2, 6528, Note_on_c, 1, 33, 127
2, 6576, Note_on_c, 1, 33, 0
2, 6624, Note_on_c, 1, 33, 127
2, 6864, Note_on_c, 1, 33, 0
2, 6912, Note_on_c, 1, 36, 127
2, 6960, Note_on_c, 1, 36, 0
2, 7008, Note_on_c, 1, 36, 127
2, 7248, Note_on_c, 1, 36, 0
2, 7296, Note_on_c, 1, 36, 127
2, 7344, Note_on_c, 1, 36, 0
2, 7392, Note_on_c, 1, 36, 127
2, 7680, Note_on_c, 1, 36, 0
2, 7680, Note_on_c, 1, 31, 127
2, 7728, Note_on_c, 1, 31, 0
2, 7776, Note_on_c, 1, 31, 127
2, 7968, Note_on_c, 1, 31, 0
2, 7968, Note_on_c, 1, 34, 127
2, 8064, Note_on_c, 1, 34, 0
2, 8064, Note_on_c, 1, 36, 127
2, 8256, Note_on_c, 1, 36, 0
2, 8256, Note_on_c, 1, 37, 127
2, 8352, Note_on_c, 1, 37, 0
2, 8352, Note_on_c, 1, 38, 127
2, 8448, Note_on_c, 1, 38, 0
2, 8448, Note_on_c, 1, 31, 127
2, 8544, Note_on_c, 1, 31, 0
2, 8544, Note_on_c, 1, 31, 127
2, 8736, Note_on_c, 1, 31, 0
2, 8736, Note_on_c, 1, 34, 127
2, 8832, Note_on_c, 1, 34, 0
2, 8832, Note_on_c, 1, 36, 127
2, 9024, Note_on_c, 1, 36, 0
2, 9024, Note_on_c, 1, 37, 127
2, 9120, Note_on_c, 1, 37, 0
2, 9120, Note_on_c, 1, 38, 127
2, 9216, Note_on_c, 1, 38, 0
2, 9216, Note_on_c, 1, 36, 127
2, 9264, Note_on_c, 1, 36, 0
2, 9312, Note_on_c, 1, 36, 127
2, 9360, Note_on_c, 1, 36, 0
2, 9408, Note_on_c, 1, 36, 127
2, 9456, Note_on_c, 1, 36, 0
2, 9504, Note_on_c, 1, 36, 127
2, 9552, Note_on_c, 1, 36, 0
2, 9600, Note_on_c, 1, 36, 127
2, 9648, Note_on_c, 1, 36, 0
2, 9696, Note_on_c, 1, 36, 127
2, 9744, Note_on_c, 1, 36, 0
2, 9792, Note_on_c, 1, 36, 127
2, 9840, Note_on_c, 1, 36, 0
2, 9888, Note_on_c, 1, 36, 127
2, 9936, Note_on_c, 1, 36, 0
2, 9984, Note_on_c, 1, 41, 127
2, 10032, Note_on_c, 1, 41, 0
2, 10080, Note_on_c, 1, 41, 127
2, 10128, Note_on_c, 1, 41, 0
2, 10176, Note_on_c, 1, 40, 127
2, 10224, Note_on_c, 1, 40, 0
2, 10272, Note_on_c, 1, 40, 127
2, 10320, Note_on_c, 1, 40, 0
2, 10368, Note_on_c, 1, 38, 127
2, 10416, Note_on_c, 1, 38, 0
2, 10464, Note_on_c, 1, 38, 127
2, 10512, Note_on_c, 1, 38, 0
2, 10560, Note_on_c, 1, 36, 127
2, 10608, Note_on_c, 1, 36, 0
2, 10656, Note_on_c, 1, 36, 127
2, 10704, Note_on_c, 1, 36, 0
2, 10752, Note_on_c, 1, 36, 127
2, 10800, Note_on_c, 1, 36, 0
2, 10848, Note_on_c, 1, 36, 127
2, 10896, Note_on_c, 1, 36, 0
2, 10944, Note_on_c, 1, 36, 127
2, 10992, Note_on_c, 1, 36, 0
2, 11040, Note_on_c, 1, 36, 127
2, 11088, Note_on_c, 1, 36, 0
2, 11136, Note_on_c, 1, 36, 127
2, 11184, Note_on_c, 1, 36, 0
2, 11232, Note_on_c, 1, 36, 127
2, 11280, Note_on_c, 1, 36, 0
2, 11328, Note_on_c, 1, 36, 127
2, 11376, Note_on_c, 1, 36, 0
2, 11424, Note_on_c, 1, 36, 127
2, 11472, Note_on_c, 1, 36, 0
2, 11520, Note_on_c, 1, 38, 127
2, 11568, Note_on_c, 1, 38, 0
2, 11616, Note_on_c, 1, 38, 127
2, 11664, Note_on_c, 1, 38, 0
2, 11712, Note_on_c, 1, 33, 127
2, 11760, Note_on_c, 1, 33, 0
2, 11808, Note_on_c, 1, 33, 127
2, 11856, Note_on_c, 1, 33, 0
2, 11904, Note_on_c, 1, 38, 127
2, 11952, Note_on_c, 1, 38, 0
2, 12000, Note_on_c, 1, 38, 127
2, 12048, Note_on_c, 1, 38, 0
2, 12096, Note_on_c, 1, 33, 127
2, 12144, Note_on_c, 1, 33, 0
2, 12192, Note_on_c, 1, 33, 127
2, 12240, Note_on_c, 1, 33, 0
2, 12288, Note_on_c, 1, 38, 127
2, 12336, Note_on_c, 1, 38, 0
2, 12384, Note_on_c, 1, 38, 127
2, 12432, Note_on_c, 1, 38, 0
2, 12480, Note_on_c, 1, 33, 127
2, 12528, Note_on_c, 1, 33, 0
2, 12576, Note_on_c, 1, 33, 127
2, 12624, Note_on_c, 1, 33, 0
2, 12672, Note_on_c, 1, 38, 127
2, 12960, Note_on_c, 1, 38, 0
2, 13056, Note_on_c, 1, 31, 127
2, 13152, Note_on_c, 1, 31, 0
2, 13152, Note_on_c, 1, 31, 127
2, 13248, Note_on_c, 1, 31, 0
2, 13440, Note_on_c, 1, 34, 127
2, 13488, Note_on_c, 1, 34, 0
2, 13536, Note_on_c, 1, 34, 127
2, 13632, Note_on_c, 1, 34, 0
2, 13824, Note_on_c, 1, 36, 127
2, 13920, Note_on_c, 1, 36, 0
2, 13920, Note_on_c, 1, 36, 127
2, 14016, Note_on_c, 1, 36, 0
2, 14208, Note_on_c, 1, 31, 127
2, 14256, Note_on_c, 1, 31, 0
2, 14304, Note_on_c, 1, 31, 127
2, 14400, Note_on_c, 1, 31, 0
2, 14592, Note_on_c, 1, 36, 127
2, 14640, Note_on_c, 1, 36, 0
2, 14688, Note_on_c, 1, 36, 127
2, 14784, Note_on_c, 1, 36, 0
2, 14976, Note_on_c, 1, 36, 127
2, 15024, Note_on_c, 1, 36, 0
2, 15072, Note_on_c, 1, 36, 127
2, 15168, Note_on_c, 1, 36, 0
2, 15360, Note_on_c, 1, 31, 127
2, 15408, Note_on_c, 1, 31, 0
2, 15456, Note_on_c, 1, 31, 127
2, 15504, Note_on_c, 1, 31, 0
2, 15552, Note_on_c, 1, 31, 127
2, 15648, Note_on_c, 1, 31, 0
2, 15696, Note_on_c, 1, 31, 127
2, 15744, Note_on_c, 1, 31, 0
2, 15744, Note_on_c, 1, 31, 127
2, 15792, Note_on_c, 1, 31, 0
2, 15840, Note_on_c, 1, 31, 127
2, 15936, Note_on_c, 1, 31, 0
2, 15984, Note_on_c, 1, 31, 127
2, 16032, Note_on_c, 1, 31, 0
2, 16032, Note_on_c, 1, 31, 127
2, 16080, Note_on_c, 1, 31, 0
2, 16128, Note_on_c, 1, 31, 127
2, 16176, Note_on_c, 1, 31, 0
2, 16224, Note_on_c, 1, 31, 127
2, 16320, Note_on_c, 1, 31, 0
2, 16512, Note_on_c, 1, 34, 127
2, 16560, Note_on_c, 1, 34, 0
2, 16608, Note_on_c, 1, 34, 127
2, 16704, Note_on_c, 1, 34, 0
2, 16896, Note_on_c, 1, 36, 127
2, 16992, Note_on_c, 1, 36, 0
2, 16992, Note_on_c, 1, 36, 127
2, 17088, Note_on_c, 1, 36, 0
2, 17280, Note_on_c, 1, 31, 127
2, 17328, Note_on_c, 1, 31, 0
2, 17376, Note_on_c, 1, 31, 127
2, 17520, Note_on_c, 1, 31, 0
2, 17664, Note_on_c, 1, 33, 127
2, 17712, Note_on_c, 1, 33, 0
2, 17760, Note_on_c, 1, 33, 127
2, 17904, Note_on_c, 1, 33, 0
2, 18048, Note_on_c, 1, 33, 127
2, 18144, Note_on_c, 1, 33, 0
2, 18240, Note_on_c, 1, 33, 127
2, 18288, Note_on_c, 1, 33, 0
2, 18336, Note_on_c, 1, 33, 127
2, 18384, Note_on_c, 1, 33, 0
2, 18432, Note_on_c, 1, 38, 127
2, 19104, Note_on_c, 1, 38, 0
2, 19200, Note_on_c, 1, 36, 127
2, 19248, Note_on_c, 1, 36, 0
2, 19296, Note_on_c, 1, 36, 127
2, 19392, Note_on_c, 1, 36, 0
2, 19488, Note_on_c, 1, 36, 127
2, 19536, Note_on_c, 1, 36, 0
2, 19584, Note_on_c, 1, 36, 127
2, 19728, Note_on_c, 1, 36, 0
2, 19776, Note_on_c, 1, 36, 127
2, 19872, Note_on_c, 1, 36, 0
2, 19872, Note_on_c, 1, 31, 127
2, 20160, Note_on_c, 1, 31, 0
2, 20256, Note_on_c, 1, 31, 127
2, 20304, Note_on_c, 1, 31, 0
2, 20352, Note_on_c, 1, 31, 127
2, 20448, Note_on_c, 1, 31, 0
2, 20544, Note_on_c, 1, 31, 127
2, 20640, Note_on_c, 1, 31, 0
2, 20736, Note_on_c, 1, 33, 127
2, 20784, Note_on_c, 1, 33, 0
2, 20832, Note_on_c, 1, 33, 127
2, 20928, Note_on_c, 1, 33, 0
2, 21024, Note_on_c, 1, 33, 127
2, 21072, Note_on_c, 1, 33, 0
2, 21120, Note_on_c, 1, 33, 127
2, 21216, Note_on_c, 1, 33, 0
2, 21312, Note_on_c, 1, 33, 127
2, 21360, Note_on_c, 1, 33, 0
2, 21408, Note_on_c, 1, 36, 127
2, 21552, Note_on_c, 1, 36, 0
2, 21600, Note_on_c, 1, 33, 127
2, 21696, Note_on_c, 1, 33, 0
2, 21792, Note_on_c, 1, 31, 127
2, 21888, Note_on_c, 1, 31, 0
2, 21984, Note_on_c, 1, 31, 127
2, 22032, Note_on_c, 1, 31, 0
2, 22080, Note_on_c, 1, 31, 127
2, 22128, Note_on_c, 1, 31, 0
2, 22272, Note_on_c, 1, 36, 127
2, 22320, Note_on_c, 1, 36, 0
2, 22368, Note_on_c, 1, 36, 127
2, 22416, Note_on_c, 1, 36, 0
2, 22464, Note_on_c, 1, 36, 127
2, 22512, Note_on_c, 1, 36, 0
2, 22560, Note_on_c, 1, 36, 127
2, 22608, Note_on_c, 1, 36, 0
2, 22656, Note_on_c, 1, 36, 127
2, 22704, Note_on_c, 1, 36, 0
2, 22752, Note_on_c, 1, 36, 127
2, 22800, Note_on_c, 1, 36, 0
2, 22848, Note_on_c, 1, 36, 127
2, 22896, Note_on_c, 1, 36, 0
2, 22944, Note_on_c, 1, 36, 127
2, 22992, Note_on_c, 1, 36, 0
2, 23040, Note_on_c, 1, 41, 127
2, 23088, Note_on_c, 1, 41, 0
2, 23136, Note_on_c, 1, 41, 127
2, 23184, Note_on_c, 1, 41, 0
2, 23232, Note_on_c, 1, 40, 127
2, 23280, Note_on_c, 1, 40, 0
2, 23328, Note_on_c, 1, 40, 127
2, 23376, Note_on_c, 1, 40, 0
2, 23424, Note_on_c, 1, 38, 127
2, 23472, Note_on_c, 1, 38, 0
2, 23520, Note_on_c, 1, 38, 127
2, 23568, Note_on_c, 1, 38, 0
2, 23616, Note_on_c, 1, 36, 127
2, 23664, Note_on_c, 1, 36, 0
2, 23712, Note_on_c, 1, 36, 127
2, 23760, Note_on_c, 1, 36, 0
2, 23808, Note_on_c, 1, 36, 127
2, 23856, Note_on_c, 1, 36, 0
2, 23904, Note_on_c, 1, 36, 127
2, 23952, Note_on_c, 1, 36, 0
2, 24000, Note_on_c, 1, 36, 127
2, 24048, Note_on_c, 1, 36, 0
2, 24096, Note_on_c, 1, 36, 127
2, 24144, Note_on_c, 1, 36, 0
2, 24192, Note_on_c, 1, 36, 127
2, 24240, Note_on_c, 1, 36, 0
2, 24288, Note_on_c, 1, 36, 127
2, 24336, Note_on_c, 1, 36, 0
2, 24384, Note_on_c, 1, 36, 127
2, 24432, Note_on_c, 1, 36, 0
2, 24480, Note_on_c, 1, 36, 127
2, 24528, Note_on_c, 1, 36, 0
2, 24576, Note_on_c, 1, 38, 127
2, 24624, Note_on_c, 1, 38, 0
2, 24672, Note_on_c, 1, 38, 127
2, 24720, Note_on_c, 1, 38, 0
2, 24768, Note_on_c, 1, 33, 127
2, 24816, Note_on_c, 1, 33, 0
2, 24864, Note_on_c, 1, 33, 127
2, 24912, Note_on_c, 1, 33, 0
2, 24960, Note_on_c, 1, 38, 127
2, 25008, Note_on_c, 1, 38, 0
2, 25056, Note_on_c, 1, 38, 127
2, 25104, Note_on_c, 1, 38, 0
2, 25152, Note_on_c, 1, 33, 127
2, 25200, Note_on_c, 1, 33, 0
2, 25248, Note_on_c, 1, 33, 127
2, 25296, Note_on_c, 1, 33, 0
2, 25344, Note_on_c, 1, 38, 127
2, 25392, Note_on_c, 1, 38, 0
2, 25440, Note_on_c, 1, 38, 127
2, 25488, Note_on_c, 1, 38, 0
2, 25536, Note_on_c, 1, 33, 127
2, 25584, Note_on_c, 1, 33, 0
2, 25632, Note_on_c, 1, 33, 127
2, 25680, Note_on_c, 1, 33, 0
2, 25728, Note_on_c, 1, 38, 127
2, 26016, Note_on_c, 1, 38, 0
2, 26112, Note_on_c, 1, 31, 127
2, 26160, Note_on_c, 1, 31, 0
2, 26208, Note_on_c, 1, 31, 127
2, 26496, Note_on_c, 1, 31, 0
2, 26496, Note_on_c, 1, 33, 127
2, 26544, Note_on_c, 1, 33, 0
2, 26592, Note_on_c, 1, 33, 127
2, 26880, Note_on_c, 1, 33, 0
2, 26880, Note_on_c, 1, 36, 127
2, 26928, Note_on_c, 1, 36, 0
2, 26976, Note_on_c, 1, 36, 127
2, 27264, Note_on_c, 1, 36, 0
2, 27264, Note_on_c, 1, 31, 127
2, 27312, Note_on_c, 1, 31, 0
2, 27360, Note_on_c, 1, 31, 127
2, 27600, Note_on_c, 1, 31, 0
2, 27648, Note_on_c, 1, 31, 127
2, 27744, Note_on_c, 1, 31, 0
2, 27744, Note_on_c, 1, 31, 127
2, 28032, Note_on_c, 1, 31, 0
2, 28032, Note_on_c, 1, 33, 127
2, 28080, Note_on_c, 1, 33, 0
2, 28128, Note_on_c, 1, 33, 127
2, 28416, Note_on_c, 1, 33, 0
2, 28416, Note_on_c, 1, 36, 127
2, 28464, Note_on_c, 1, 36, 0
2, 28512, Note_on_c, 1, 36, 127
2, 28800, Note_on_c, 1, 36, 0
2, 28800, Note_on_c, 1, 31, 127
2, 28848, Note_on_c, 1, 31, 0
2, 28896, Note_on_c, 1, 31, 127
2, 29136, Note_on_c, 1, 31, 0
2, 29184, Note_on_c, 1, 33, 127
2, 29232, Note_on_c, 1, 33, 0
2, 29280, Note_on_c, 1, 33, 127
2, 29520, Note_on_c, 1, 33, 0
2, 29568, Note_on_c, 1, 33, 127
2, 29616, Note_on_c, 1, 33, 0
2, 29664, Note_on_c, 1, 33, 127
2, 29904, Note_on_c, 1, 33, 0
2, 29952, Note_on_c, 1, 36, 127
2, 30000, Note_on_c, 1, 36, 0
2, 30048, Note_on_c, 1, 36, 127
2, 30288, Note_on_c, 1, 36, 0
2, 30336, Note_on_c, 1, 36, 127
2, 30384, Note_on_c, 1, 36, 0
2, 30432, Note_on_c, 1, 36, 127
2, 30720, Note_on_c, 1, 36, 0
2, 30720, Note_on_c, 1, 31, 127
2, 30768, Note_on_c, 1, 31, 0
2, 30816, Note_on_c, 1, 31, 127
2, 31008, Note_on_c, 1, 31, 0
2, 31008, Note_on_c, 1, 34, 127
2, 31104, Note_on_c, 1, 34, 0
2, 31104, Note_on_c, 1, 36, 127
2, 31296, Note_on_c, 1, 36, 0
2, 31296, Note_on_c, 1, 37, 127
2, 31392, Note_on_c, 1, 37, 0
2, 31392, Note_on_c, 1, 38, 127
2, 31488, Note_on_c, 1, 38, 0
2, 31488, Note_on_c, 1, 31, 127
2, 31584, Note_on_c, 1, 31, 0
2, 31584, Note_on_c, 1, 31, 127
2, 31776, Note_on_c, 1, 31, 0
2, 31776, Note_on_c, 1, 34, 127
2, 31872, Note_on_c, 1, 34, 0
2, 31872, Note_on_c, 1, 36, 127
2, 32064, Note_on_c, 1, 36, 0
2, 32064, Note_on_c, 1, 37, 127
2, 32160, Note_on_c, 1, 37, 0
2, 32160, Note_on_c, 1, 38, 127
2, 32256, Note_on_c, 1, 38, 0
2, 32256, Note_on_c, 1, 36, 127
2, 32304, Note_on_c, 1, 36, 0
2, 32352, Note_on_c, 1, 36, 127
2, 32400, Note_on_c, 1, 36, 0
2, 32448, Note_on_c, 1, 34, 127
2, 32496, Note_on_c, 1, 34, 0
2, 32544, Note_on_c, 1, 34, 127
2, 32592, Note_on_c, 1, 34, 0
2, 32640, Note_on_c, 1, 33, 127
2, 32688, Note_on_c, 1, 33, 0
2, 32736, Note_on_c, 1, 33, 127
2, 32784, Note_on_c, 1, 33, 0
2, 32832, Note_on_c, 1, 31, 127
2, 32880, Note_on_c, 1, 31, 0
2, 32928, Note_on_c, 1, 31, 127
2, 32976, Note_on_c, 1, 31, 0
2, 33024, Note_on_c, 1, 36, 127
2, 33072, Note_on_c, 1, 36, 0
2, 33120, Note_on_c, 1, 36, 127
2, 33168, Note_on_c, 1, 36, 0
2, 33216, Note_on_c, 1, 34, 127
2, 33264, Note_on_c, 1, 34, 0
2, 33312, Note_on_c, 1, 34, 127
2, 33360, Note_on_c, 1, 34, 0
2, 33408, Note_on_c, 1, 33, 127
2, 33456, Note_on_c, 1, 33, 0
2, 33504, Note_on_c, 1, 33, 127
2, 33552, Note_on_c, 1, 33, 0
2, 33600, Note_on_c, 1, 31, 127
2, 33648, Note_on_c, 1, 31, 0
2, 33696, Note_on_c, 1, 31, 127
2, 33744, Note_on_c, 1, 31, 0
2, 33792, Note_on_c, 1, 36, 127
2, 33936, Note_on_c, 1, 36, 0
2, 33984, Note_on_c, 1, 36, 127
2, 34128, Note_on_c, 1, 36, 0
2, 34176, Note_on_c, 1, 36, 127
2, 34320, Note_on_c, 1, 36, 0
2, 34368, Note_on_c, 1, 36, 127
2, 34512, Note_on_c, 1, 36, 0
2, 34560, Note_on_c, 1, 38, 127
2, 34704, Note_on_c, 1, 38, 0
2, 34752, Note_on_c, 1, 38, 127
2, 34896, Note_on_c, 1, 38, 0
2, 34944, Note_on_c, 1, 38, 127
2, 35088, Note_on_c, 1, 38, 0
2, 35136, Note_on_c, 1, 38, 127
2, 35280, Note_on_c, 1, 38, 0
2, 35328, Note_on_c, 1, 40, 127
2, 36336, Note_on_c, 1, 40, 0
2, 36336, End_track
3, 0, Start_track
3, 0, MIDI_port, 0
3, 0, Title_t, "Brass 1         "
3, 0, Program_c, 2, 27
3, 0, Control_c, 2, 7, 104
3, 0, Control_c, 2, 10, 46
3, 0, Control_c, 2, 91, 93
3, 0, Note_on_c, 2, 45, 90
3, 0, Note_on_c, 2, 64, 90
3, 0, Note_on_c, 2, 61, 90
3, 0, Note_on_c, 2, 57, 90
3, 48, Note_on_c, 2, 45, 0
3, 96, Note_on_c, 2, 45, 90
3, 144, Note_on_c, 2, 64, 0
3, 144, Note_on_c, 2, 57, 0
3, 144, Note_on_c, 2, 61, 0
3, 192, Note_on_c, 2, 64, 90
3, 192, Note_on_c, 2, 61, 90
3, 192, Note_on_c, 2, 57, 90
3, 240, Note_on_c, 2, 45, 0
3, 288, Note_on_c, 2, 45, 90
3, 336, Note_on_c, 2, 64, 0
3, 336, Note_on_c, 2, 57, 0
3, 336, Note_on_c, 2, 61, 0
3, 384, Note_on_c, 2, 45, 0
3, 384, Note_on_c, 2, 61, 90
3, 384, Note_on_c, 2, 64, 90
3, 384, Note_on_c, 2, 57, 90
3, 480, Note_on_c, 2, 57, 0
3, 480, Note_on_c, 2, 64, 0
3, 480, Note_on_c, 2, 61, 0
3, 480, Note_on_c, 2, 45, 90
3, 576, Note_on_c, 2, 45, 0
3, 576, Note_on_c, 2, 57, 90
3, 576, Note_on_c, 2, 64, 90
3, 576, Note_on_c, 2, 61, 90
3, 672, Note_on_c, 2, 45, 90
3, 720, Note_on_c, 2, 61, 0
3, 720, Note_on_c, 2, 57, 0
3, 720, Note_on_c, 2, 64, 0
3, 768, Note_on_c, 2, 45, 0
3, 768, Note_on_c, 2, 57, 90
3, 768, Note_on_c, 2, 64, 90
3, 768, Note_on_c, 2, 61, 90
3, 864, Note_on_c, 2, 61, 0
3, 864, Note_on_c, 2, 64, 0
3, 864, Note_on_c, 2, 57, 0
3, 864, Note_on_c, 2, 45, 90
3, 960, Note_on_c, 2, 45, 0
3, 960, Note_on_c, 2, 61, 90
3, 960, Note_on_c, 2, 57, 90
3, 960, Note_on_c, 2, 64, 90
3, 1056, Note_on_c, 2, 64, 0
3, 1056, Note_on_c, 2, 57, 0
3, 1056, Note_on_c, 2, 61, 0
3, 1056, Note_on_c, 2, 45, 90
3, 1152, Note_on_c, 2, 45, 0
3, 1152, Note_on_c, 2, 61, 90
3, 1152, Note_on_c, 2, 57, 90
3, 1152, Note_on_c, 2, 64, 90
3, 1248, Note_on_c, 2, 64, 0
3, 1248, Note_on_c, 2, 57, 0
3, 1248, Note_on_c, 2, 61, 0
3, 1248, Note_on_c, 2, 45, 90
3, 1344, Note_on_c, 2, 45, 0
3, 1344, Note_on_c, 2, 61, 90
3, 1344, Note_on_c, 2, 57, 90
3, 1344, Note_on_c, 2, 64, 90
3, 1440, Note_on_c, 2, 45, 90
3, 1488, Note_on_c, 2, 64, 0
3, 1488, Note_on_c, 2, 61, 0
3, 1488, Note_on_c, 2, 57, 0
3, 1536, Note_on_c, 2, 61, 90
3, 1536, Note_on_c, 2, 57, 90
3, 1536, Note_on_c, 2, 64, 90
3, 1584, Note_on_c, 2, 64, 0
3, 1584, Note_on_c, 2, 45, 0
3, 1584, Note_on_c, 2, 61, 0
3, 1584, Note_on_c, 2, 57, 0
3, 1632, Note_on_c, 2, 48, 90
3, 1632, Note_on_c, 2, 64, 90
3, 1632, Note_on_c, 2, 60, 90
3, 1632, Note_on_c, 2, 67, 90
3, 1680, Note_on_c, 2, 67, 0
3, 1680, Note_on_c, 2, 60, 0
3, 1680, Note_on_c, 2, 64, 0
3, 1728, Note_on_c, 2, 67, 90
3, 1728, Note_on_c, 2, 64, 90
3, 1728, Note_on_c, 2, 60, 90
3, 1824, Note_on_c, 2, 48, 0
3, 1872, Note_on_c, 2, 67, 0
3, 1872, Note_on_c, 2, 64, 0
3, 1872, Note_on_c, 2, 60, 0
3, 1872, Note_on_c, 2, 48, 90
3, 1920, Note_on_c, 2, 64, 90
3, 1920, Note_on_c, 2, 67, 90
3, 1920, Note_on_c, 2, 60, 90
3, 1968, Note_on_c, 2, 48, 0
3, 2016, Note_on_c, 2, 64, 0
3, 2016, Note_on_c, 2, 67, 0
3, 2016, Note_on_c, 2, 60, 0
3, 2016, Note_on_c, 2, 48, 90
3, 2064, Note_on_c, 2, 60, 90
3, 2064, Note_on_c, 2, 67, 90
3, 2064, Note_on_c, 2, 64, 90
3, 2112, Note_on_c, 2, 48, 0
3, 2160, Note_on_c, 2, 60, 0
3, 2160, Note_on_c, 2, 67, 0
3, 2160, Note_on_c, 2, 64, 0
3, 2160, Note_on_c, 2, 48, 90
3, 2208, Note_on_c, 2, 67, 90
3, 2208, Note_on_c, 2, 60, 90
3, 2208, Note_on_c, 2, 64, 90
3, 2256, Note_on_c, 2, 64, 0
3, 2256, Note_on_c, 2, 60, 0
3, 2256, Note_on_c, 2, 67, 0
3, 2304, Note_on_c, 2, 48, 0
3, 2304, Note_on_c, 2, 43, 90
3, 2304, Note_on_c, 2, 59, 90
3, 2304, Note_on_c, 2, 62, 90
3, 2304, Note_on_c, 2, 55, 90
3, 2304, Note_on_c, 2, 44, 90
3, 2352, Note_on_c, 2, 44, 0
3, 2880, Note_on_c, 2, 43, 0
3, 2928, Note_on_c, 2, 59, 0
3, 2928, Note_on_c, 2, 62, 0
3, 2928, Note_on_c, 2, 55, 0
3, 2928, Note_on_c, 2, 43, 90
3, 2928, Note_on_c, 2, 55, 90
3, 2928, Note_on_c, 2, 62, 90
3, 2928, Note_on_c, 2, 59, 90
3, 2976, Note_on_c, 2, 59, 0
3, 2976, Note_on_c, 2, 43, 0
3, 2976, Note_on_c, 2, 55, 0
3, 2976, Note_on_c, 2, 62, 0
3, 3072, Note_on_c, 2, 43, 127
3, 3120, Note_on_c, 2, 43, 0
3, 3168, Note_on_c, 2, 43, 127
3, 3264, Note_on_c, 2, 47, 127
3, 3264, Note_on_c, 2, 50, 127
3, 3408, Note_on_c, 2, 43, 0
3, 3456, Note_on_c, 2, 50, 0
3, 3456, Note_on_c, 2, 47, 0
3, 3456, Note_on_c, 2, 45, 127
3, 3552, Note_on_c, 2, 45, 0
3, 3552, Note_on_c, 2, 45, 127
3, 3648, Note_on_c, 2, 52, 127
3, 3648, Note_on_c, 2, 49, 127
3, 3744, Note_on_c, 2, 45, 0
3, 3840, Note_on_c, 2, 49, 0
3, 3840, Note_on_c, 2, 52, 0
3, 3840, Note_on_c, 2, 48, 127
3, 3936, Note_on_c, 2, 48, 0
3, 3936, Note_on_c, 2, 48, 127
3, 4032, Note_on_c, 2, 48, 0
3, 4032, Note_on_c, 2, 52, 127
3, 4032, Note_on_c, 2, 55, 127
3, 4224, Note_on_c, 2, 43, 127
3, 4272, Note_on_c, 2, 43, 0
3, 4320, Note_on_c, 2, 43, 127
3, 4368, Note_on_c, 2, 55, 0
3, 4368, Note_on_c, 2, 52, 0
3, 4416, Note_on_c, 2, 47, 127
3, 4416, Note_on_c, 2, 50, 127
3, 4512, Note_on_c, 2, 43, 0
3, 4608, Note_on_c, 2, 43, 127
3, 4656, Note_on_c, 2, 43, 0
3, 4704, Note_on_c, 2, 43, 127
3, 4752, Note_on_c, 2, 50, 0
3, 4752, Note_on_c, 2, 47, 0
3, 4800, Note_on_c, 2, 50, 127
3, 4800, Note_on_c, 2, 47, 127
3, 4896, Note_on_c, 2, 43, 0
3, 4992, Note_on_c, 2, 45, 127
3, 5040, Note_on_c, 2, 45, 0
3, 5040, Note_on_c, 2, 47, 0
3, 5040, Note_on_c, 2, 50, 0
3, 5088, Note_on_c, 2, 45, 127
3, 5184, Note_on_c, 2, 52, 127
3, 5184, Note_on_c, 2, 49, 127
3, 5280, Note_on_c, 2, 45, 0
3, 5376, Note_on_c, 2, 48, 127
3, 5424, Note_on_c, 2, 49, 0
3, 5424, Note_on_c, 2, 52, 0
3, 5472, Note_on_c, 2, 48, 0
3, 5472, Note_on_c, 2, 48, 127
3, 5568, Note_on_c, 2, 52, 127
3, 5568, Note_on_c, 2, 55, 127
3, 5664, Note_on_c, 2, 48, 0
3, 5760, Note_on_c, 2, 43, 127
3, 5808, Note_on_c, 2, 43, 0
3, 5856, Note_on_c, 2, 55, 0
3, 5856, Note_on_c, 2, 52, 0
3, 5856, Note_on_c, 2, 43, 127
3, 5952, Note_on_c, 2, 50, 127
3, 5952, Note_on_c, 2, 47, 127
3, 6048, Note_on_c, 2, 43, 0
3, 6144, Note_on_c, 2, 45, 127
3, 6192, Note_on_c, 2, 45, 0
3, 6240, Note_on_c, 2, 47, 0
3, 6240, Note_on_c, 2, 50, 0
3, 6240, Note_on_c, 2, 45, 127
3, 6336, Note_on_c, 2, 52, 127
3, 6336, Note_on_c, 2, 49, 127
3, 6480, Note_on_c, 2, 49, 0
3, 6480, Note_on_c, 2, 52, 0
3, 6528, Note_on_c, 2, 52, 127
3, 6528, Note_on_c, 2, 49, 127
3, 6624, Note_on_c, 2, 45, 0
3, 6672, Note_on_c, 2, 49, 0
3, 6672, Note_on_c, 2, 52, 0
3, 6672, Note_on_c, 2, 45, 127
3, 6720, Note_on_c, 2, 52, 127
3, 6720, Note_on_c, 2, 49, 127
3, 6768, Note_on_c, 2, 45, 0
3, 6816, Note_on_c, 2, 49, 0
3, 6816, Note_on_c, 2, 52, 0
3, 6816, Note_on_c, 2, 45, 127
3, 6912, Note_on_c, 2, 45, 0
3, 6912, Note_on_c, 2, 48, 127
3, 7008, Note_on_c, 2, 52, 127
3, 7008, Note_on_c, 2, 55, 127
3, 7104, Note_on_c, 2, 55, 0
3, 7104, Note_on_c, 2, 52, 0
3, 7152, Note_on_c, 2, 55, 127
3, 7152, Note_on_c, 2, 52, 127
3, 7200, Note_on_c, 2, 48, 0
3, 7248, Note_on_c, 2, 52, 0
3, 7248, Note_on_c, 2, 55, 0
3, 7248, Note_on_c, 2, 48, 127
3, 7296, Note_on_c, 2, 55, 127
3, 7296, Note_on_c, 2, 52, 127
3, 7344, Note_on_c, 2, 48, 0
3, 7392, Note_on_c, 2, 52, 0
3, 7392, Note_on_c, 2, 55, 0
3, 7392, Note_on_c, 2, 48, 127
3, 7440, Note_on_c, 2, 52, 127
3, 7440, Note_on_c, 2, 57, 127
3, 7488, Note_on_c, 2, 48, 0
3, 7536, Note_on_c, 2, 57, 0
3, 7536, Note_on_c, 2, 52, 0
3, 7536, Note_on_c, 2, 48, 127
3, 7584, Note_on_c, 2, 48, 0
3, 7584, Note_on_c, 2, 52, 127
3, 7584, Note_on_c, 2, 55, 127
3, 7680, Note_on_c, 2, 55, 0
3, 7680, Note_on_c, 2, 52, 0
3, 7680, Note_on_c, 2, 43, 127
3, 7728, Note_on_c, 2, 43, 0
3, 7776, Note_on_c, 2, 43, 127
3, 7872, Note_on_c, 2, 50, 127
3, 7872, Note_on_c, 2, 47, 127
3, 7920, Note_on_c, 2, 43, 0
3, 7968, Note_on_c, 2, 47, 0
3, 7968, Note_on_c, 2, 43, 127
3, 7968, Note_on_c, 2, 42, 127
3, 8016, Note_on_c, 2, 42, 0
3, 8016, Note_on_c, 2, 43, 0
3, 8016, Note_on_c, 2, 50, 0
3, 8064, Note_on_c, 2, 48, 127
3, 8160, Note_on_c, 2, 55, 127
3, 8160, Note_on_c, 2, 52, 127
3, 8208, Note_on_c, 2, 48, 0
3, 8256, Note_on_c, 2, 52, 0
3, 8256, Note_on_c, 2, 55, 0
3, 8256, Note_on_c, 2, 48, 127
3, 8304, Note_on_c, 2, 48, 0
3, 8304, Note_on_c, 2, 55, 127
3, 8304, Note_on_c, 2, 52, 127
3, 8448, Note_on_c, 2, 52, 0
3, 8448, Note_on_c, 2, 55, 0
3, 8448, Note_on_c, 2, 43, 127
3, 8640, Note_on_c, 2, 50, 127
3, 8640, Note_on_c, 2, 47, 127
3, 8688, Note_on_c, 2, 43, 0
3, 8784, Note_on_c, 2, 47, 0
3, 8784, Note_on_c, 2, 50, 0
3, 8832, Note_on_c, 2, 50, 127
3, 8880, Note_on_c, 2, 47, 127
3, 8976, Note_on_c, 2, 43, 127
3, 9024, Note_on_c, 2, 47, 0
3, 9072, Note_on_c, 2, 50, 0
3, 9072, Note_on_c, 2, 47, 127
3, 9120, Note_on_c, 2, 50, 127
3, 9216, Note_on_c, 2, 50, 0
3, 9216, Note_on_c, 2, 47, 0
3, 9216, Note_on_c, 2, 43, 0
3, 9216, Note_on_c, 2, 64, 127
3, 9216, Note_on_c, 2, 60, 127
3, 9216, Note_on_c, 2, 67, 127
3, 9840, Note_on_c, 2, 67, 0
3, 9840, Note_on_c, 2, 60, 0
3, 9840, Note_on_c, 2, 64, 0
3, 13056, Note_on_c, 2, 43, 127
3, 13056, Note_on_c, 2, 50, 127
3, 13056, Note_on_c, 2, 47, 127
3, 13104, Note_on_c, 2, 47, 0
3, 13104, Note_on_c, 2, 50, 0
3, 13104, Note_on_c, 2, 43, 0
3, 13152, Note_on_c, 2, 43, 127
3, 13152, Note_on_c, 2, 50, 127
3, 13152, Note_on_c, 2, 47, 127
3, 13248, Note_on_c, 2, 47, 0
3, 13248, Note_on_c, 2, 50, 0
3, 13248, Note_on_c, 2, 43, 0
3, 13440, Note_on_c, 2, 53, 127
3, 13440, Note_on_c, 2, 50, 127
3, 13440, Note_on_c, 2, 46, 127
3, 13488, Note_on_c, 2, 46, 0
3, 13488, Note_on_c, 2, 50, 0
3, 13488, Note_on_c, 2, 53, 0
3, 13536, Note_on_c, 2, 53, 127
3, 13536, Note_on_c, 2, 50, 127
3, 13536, Note_on_c, 2, 46, 127
3, 13632, Note_on_c, 2, 46, 0
3, 13632, Note_on_c, 2, 50, 0
3, 13632, Note_on_c, 2, 53, 0
3, 13824, Note_on_c, 2, 55, 127
3, 13824, Note_on_c, 2, 48, 127
3, 13824, Note_on_c, 2, 52, 127
3, 13872, Note_on_c, 2, 52, 0
3, 13872, Note_on_c, 2, 48, 0
3, 13920, Note_on_c, 2, 55, 0
3, 13920, Note_on_c, 2, 55, 127
3, 13920, Note_on_c, 2, 52, 127
3, 13920, Note_on_c, 2, 48, 127
3, 14016, Note_on_c, 2, 48, 0
3, 14016, Note_on_c, 2, 52, 0
3, 14016, Note_on_c, 2, 55, 0
3, 14208, Note_on_c, 2, 47, 127
3, 14208, Note_on_c, 2, 50, 127
3, 14208, Note_on_c, 2, 43, 127
3, 14256, Note_on_c, 2, 43, 0
3, 14256, Note_on_c, 2, 50, 0
3, 14256, Note_on_c, 2, 47, 0
3, 14304, Note_on_c, 2, 43, 127
3, 14304, Note_on_c, 2, 50, 127
3, 14304, Note_on_c, 2, 47, 127
3, 14400, Note_on_c, 2, 47, 0
3, 14400, Note_on_c, 2, 50, 0
3, 14400, Note_on_c, 2, 43, 0
3, 14592, Note_on_c, 2, 52, 127
3, 14592, Note_on_c, 2, 55, 127
3, 14592, Note_on_c, 2, 48, 127
3, 14640, Note_on_c, 2, 48, 0
3, 14640, Note_on_c, 2, 55, 0
3, 14640, Note_on_c, 2, 52, 0
3, 14688, Note_on_c, 2, 52, 127
3, 14688, Note_on_c, 2, 48, 127
3, 14688, Note_on_c, 2, 55, 127
3, 14736, Note_on_c, 2, 55, 0
3, 14736, Note_on_c, 2, 48, 0
3, 14736, Note_on_c, 2, 52, 0
3, 14784, Note_on_c, 2, 55, 127
3, 14784, Note_on_c, 2, 52, 127
3, 14784, Note_on_c, 2, 48, 127
3, 14928, Note_on_c, 2, 48, 0
3, 14928, Note_on_c, 2, 52, 0
3, 14928, Note_on_c, 2, 55, 0
3, 14976, Note_on_c, 2, 55, 127
3, 14976, Note_on_c, 2, 52, 127
3, 14976, Note_on_c, 2, 48, 127
3, 15072, Note_on_c, 2, 48, 0
3, 15168, Note_on_c, 2, 48, 127
3, 15216, Note_on_c, 2, 48, 0
3, 15216, Note_on_c, 2, 52, 0
3, 15216, Note_on_c, 2, 55, 0
3, 15264, Note_on_c, 2, 47, 127
3, 15264, Note_on_c, 2, 50, 127
3, 15264, Note_on_c, 2, 43, 127
3, 15408, Note_on_c, 2, 43, 0
3, 15408, Note_on_c, 2, 50, 0
3, 15456, Note_on_c, 2, 47, 0
3, 15456, Note_on_c, 2, 50, 127
3, 15456, Note_on_c, 2, 47, 127
3, 15456, Note_on_c, 2, 43, 127
3, 15504, Note_on_c, 2, 43, 0
3, 15504, Note_on_c, 2, 47, 0
3, 15504, Note_on_c, 2, 50, 0
3, 15552, Note_on_c, 2, 47, 127
3, 15552, Note_on_c, 2, 50, 127
3, 15552, Note_on_c, 2, 43, 127
3, 15648, Note_on_c, 2, 43, 0
3, 15696, Note_on_c, 2, 50, 0
3, 15696, Note_on_c, 2, 47, 0
3, 15696, Note_on_c, 2, 43, 127
3, 15744, Note_on_c, 2, 43, 0
3, 15744, Note_on_c, 2, 47, 127
3, 15744, Note_on_c, 2, 50, 127
3, 15840, Note_on_c, 2, 50, 0
3, 15840, Note_on_c, 2, 47, 0
3, 15840, Note_on_c, 2, 43, 127
3, 15888, Note_on_c, 2, 43, 0
3, 15888, Note_on_c, 2, 47, 127
3, 15888, Note_on_c, 2, 50, 127
3, 15984, Note_on_c, 2, 50, 0
3, 15984, Note_on_c, 2, 47, 0
3, 15984, Note_on_c, 2, 43, 127
3, 16032, Note_on_c, 2, 50, 127
3, 16032, Note_on_c, 2, 47, 127
3, 16128, Note_on_c, 2, 47, 0
3, 16128, Note_on_c, 2, 50, 0
3, 16128, Note_on_c, 2, 43, 0
3, 16128, Note_on_c, 2, 50, 127
3, 16128, Note_on_c, 2, 47, 127
3, 16128, Note_on_c, 2, 43, 127
3, 16176, Note_on_c, 2, 47, 0
3, 16176, Note_on_c, 2, 50, 0
3, 16224, Note_on_c, 2, 43, 0
3, 16224, Note_on_c, 2, 43, 127
3, 16224, Note_on_c, 2, 50, 127
3, 16224, Note_on_c, 2, 47, 127
3, 16320, Note_on_c, 2, 47, 0
3, 16320, Note_on_c, 2, 50, 0
3, 16320, Note_on_c, 2, 43, 0
3, 16512, Note_on_c, 2, 46, 127
3, 16512, Note_on_c, 2, 53, 127
3, 16512, Note_on_c, 2, 50, 127
3, 16560, Note_on_c, 2, 50, 0
3, 16560, Note_on_c, 2, 53, 0
3, 16560, Note_on_c, 2, 46, 0
3, 16608, Note_on_c, 2, 53, 127
3, 16608, Note_on_c, 2, 50, 127
3, 16608, Note_on_c, 2, 46, 127
3, 16656, Note_on_c, 2, 50, 0
3, 16704, Note_on_c, 2, 46, 0
3, 16704, Note_on_c, 2, 53, 0
3, 16896, Note_on_c, 2, 48, 127
3, 16896, Note_on_c, 2, 55, 127
3, 16896, Note_on_c, 2, 52, 127
3, 16944, Note_on_c, 2, 52, 0
3, 16944, Note_on_c, 2, 55, 0
3, 16944, Note_on_c, 2, 48, 0
3, 16992, Note_on_c, 2, 48, 127
3, 16992, Note_on_c, 2, 55, 127
3, 16992, Note_on_c, 2, 52, 127
3, 17088, Note_on_c, 2, 52, 0
3, 17088, Note_on_c, 2, 55, 0
3, 17088, Note_on_c, 2, 48, 0
3, 17280, Note_on_c, 2, 43, 127
3, 17280, Note_on_c, 2, 50, 127
3, 17280, Note_on_c, 2, 47, 127
3, 17328, Note_on_c, 2, 47, 0
3, 17328, Note_on_c, 2, 50, 0
3, 17328, Note_on_c, 2, 43, 0
3, 17376, Note_on_c, 2, 50, 127
3, 17376, Note_on_c, 2, 47, 127
3, 17376, Note_on_c, 2, 43, 127
3, 17472, Note_on_c, 2, 43, 0
3, 17472, Note_on_c, 2, 47, 0
3, 17472, Note_on_c, 2, 50, 0
3, 17664, Note_on_c, 2, 52, 127
3, 17664, Note_on_c, 2, 49, 127
3, 17664, Note_on_c, 2, 45, 127
3, 17808, Note_on_c, 2, 45, 0
3, 17808, Note_on_c, 2, 49, 0
3, 17808, Note_on_c, 2, 52, 0
3, 17856, Note_on_c, 2, 52, 127
3, 17856, Note_on_c, 2, 49, 127
3, 17856, Note_on_c, 2, 45, 127
3, 17904, Note_on_c, 2, 45, 0
3, 18000, Note_on_c, 2, 49, 0
3, 18000, Note_on_c, 2, 52, 0
3, 18048, Note_on_c, 2, 52, 127
3, 18048, Note_on_c, 2, 49, 127
3, 18048, Note_on_c, 2, 45, 127
3, 18096, Note_on_c, 2, 45, 0
3, 18240, Note_on_c, 2, 45, 127
3, 18288, Note_on_c, 2, 45, 0
3, 18288, Note_on_c, 2, 49, 0
3, 18288, Note_on_c, 2, 52, 0
3, 18336, Note_on_c, 2, 54, 127
3, 18336, Note_on_c, 2, 50, 127
3, 18336, Note_on_c, 2, 57, 127
3, 19008, Note_on_c, 2, 57, 0
3, 19008, Note_on_c, 2, 50, 0
3, 19008, Note_on_c, 2, 54, 0
3, 19200, Note_on_c, 2, 48, 127
3, 19200, Note_on_c, 2, 55, 127
3, 19200, Note_on_c, 2, 52, 127
3, 19344, Note_on_c, 2, 52, 0
3, 19344, Note_on_c, 2, 55, 0
3, 19344, Note_on_c, 2, 48, 0
3, 19392, Note_on_c, 2, 55, 127
3, 19392, Note_on_c, 2, 52, 127
3, 19392, Note_on_c, 2, 48, 127
3, 19536, Note_on_c, 2, 48, 0
3, 19536, Note_on_c, 2, 52, 0
3, 19536, Note_on_c, 2, 55, 0
3, 19584, Note_on_c, 2, 52, 127
3, 19584, Note_on_c, 2, 55, 127
3, 19584, Note_on_c, 2, 48, 127
3, 19632, Note_on_c, 2, 48, 0
3, 19776, Note_on_c, 2, 48, 127
3, 19824, Note_on_c, 2, 48, 0
3, 19824, Note_on_c, 2, 55, 0
3, 19824, Note_on_c, 2, 52, 0
3, 19872, Note_on_c, 2, 47, 127
3, 19872, Note_on_c, 2, 50, 127
3, 19872, Note_on_c, 2, 43, 127
3, 20016, Note_on_c, 2, 43, 0
3, 20016, Note_on_c, 2, 50, 0
3, 20016, Note_on_c, 2, 47, 0
3, 20064, Note_on_c, 2, 50, 127
3, 20064, Note_on_c, 2, 47, 127
3, 20064, Note_on_c, 2, 43, 127
3, 20112, Note_on_c, 2, 43, 0
3, 20112, Note_on_c, 2, 47, 0
3, 20112, Note_on_c, 2, 50, 0
3, 20160, Note_on_c, 2, 47, 127
3, 20160, Note_on_c, 2, 50, 127
3, 20160, Note_on_c, 2, 43, 127
3, 20208, Note_on_c, 2, 43, 0
3, 20304, Note_on_c, 2, 50, 0
3, 20304, Note_on_c, 2, 47, 0
3, 20352, Note_on_c, 2, 50, 127
3, 20352, Note_on_c, 2, 47, 127
3, 20352, Note_on_c, 2, 43, 127
3, 20400, Note_on_c, 2, 43, 0
3, 20544, Note_on_c, 2, 43, 127
3, 20592, Note_on_c, 2, 43, 0
3, 20592, Note_on_c, 2, 47, 0
3, 20592, Note_on_c, 2, 50, 0
3, 20736, Note_on_c, 2, 52, 127
3, 20736, Note_on_c, 2, 49, 127
3, 20736, Note_on_c, 2, 45, 127
3, 20880, Note_on_c, 2, 45, 0
3, 20880, Note_on_c, 2, 49, 0
3, 20880, Note_on_c, 2, 52, 0
3, 20928, Note_on_c, 2, 52, 127
3, 20928, Note_on_c, 2, 49, 127
3, 20928, Note_on_c, 2, 45, 127
3, 21072, Note_on_c, 2, 45, 0
3, 21072, Note_on_c, 2, 49, 0
3, 21072, Note_on_c, 2, 52, 0
3, 21120, Note_on_c, 2, 52, 127
3, 21120, Note_on_c, 2, 49, 127
3, 21120, Note_on_c, 2, 45, 127
3, 21168, Note_on_c, 2, 45, 0
3, 21312, Note_on_c, 2, 45, 127
3, 21360, Note_on_c, 2, 45, 0
3, 21360, Note_on_c, 2, 49, 0
3, 21360, Note_on_c, 2, 52, 0
3, 21408, Note_on_c, 2, 52, 127
3, 21408, Note_on_c, 2, 48, 127
3, 21408, Note_on_c, 2, 55, 127
3, 21552, Note_on_c, 2, 55, 0
3, 21552, Note_on_c, 2, 48, 0
3, 21552, Note_on_c, 2, 52, 0
3, 21600, Note_on_c, 2, 52, 127
3, 21600, Note_on_c, 2, 49, 127
3, 21600, Note_on_c, 2, 45, 127
3, 21744, Note_on_c, 2, 45, 0
3, 21744, Note_on_c, 2, 49, 0
3, 21744, Note_on_c, 2, 52, 0
3, 21792, Note_on_c, 2, 50, 127
3, 21792, Note_on_c, 2, 47, 127
3, 21792, Note_on_c, 2, 43, 127
3, 22128, Note_on_c, 2, 43, 0
3, 22128, Note_on_c, 2, 47, 0
3, 22128, Note_on_c, 2, 50, 0
3, 22272, Note_on_c, 2, 64, 127
3, 22272, Note_on_c, 2, 60, 127
3, 22272, Note_on_c, 2, 67, 127
3, 22896, Note_on_c, 2, 67, 0
3, 22896, Note_on_c, 2, 60, 0
3, 22896, Note_on_c, 2, 64, 0
3, 26112, Note_on_c, 2, 43, 127
3, 26160, Note_on_c, 2, 43, 0
3, 26208, Note_on_c, 2, 43, 127
3, 26304, Note_on_c, 2, 47, 127
3, 26304, Note_on_c, 2, 50, 127
3, 26448, Note_on_c, 2, 43, 0
3, 26496, Note_on_c, 2, 50, 0
3, 26496, Note_on_c, 2, 47, 0
3, 26496, Note_on_c, 2, 45, 127
3, 26592, Note_on_c, 2, 45, 0
3, 26592, Note_on_c, 2, 45, 127
3, 26688, Note_on_c, 2, 52, 127
3, 26688, Note_on_c, 2, 49, 127
3, 26784, Note_on_c, 2, 45, 0
3, 26880, Note_on_c, 2, 49, 0
3, 26880, Note_on_c, 2, 52, 0
3, 26880, Note_on_c, 2, 48, 127
3, 26976, Note_on_c, 2, 48, 0
3, 26976, Note_on_c, 2, 48, 127
3, 27072, Note_on_c, 2, 48, 0
3, 27072, Note_on_c, 2, 52, 127
3, 27072, Note_on_c, 2, 55, 127
3, 27264, Note_on_c, 2, 43, 127
3, 27312, Note_on_c, 2, 43, 0
3, 27360, Note_on_c, 2, 43, 127
3, 27408, Note_on_c, 2, 55, 0
3, 27408, Note_on_c, 2, 52, 0
3, 27456, Note_on_c, 2, 47, 127
3, 27456, Note_on_c, 2, 50, 127
3, 27552, Note_on_c, 2, 43, 0
3, 27648, Note_on_c, 2, 43, 127
3, 27696, Note_on_c, 2, 43, 0
3, 27744, Note_on_c, 2, 43, 127
3, 27792, Note_on_c, 2, 50, 0
3, 27792, Note_on_c, 2, 47, 0
3, 27840, Note_on_c, 2, 50, 127
3, 27840, Note_on_c, 2, 47, 127
3, 27936, Note_on_c, 2, 43, 0
3, 28032, Note_on_c, 2, 45, 127
3, 28080, Note_on_c, 2, 45, 0
3, 28080, Note_on_c, 2, 47, 0
3, 28080, Note_on_c, 2, 50, 0
3, 28128, Note_on_c, 2, 45, 127
3, 28224, Note_on_c, 2, 52, 127
3, 28224, Note_on_c, 2, 49, 127
3, 28320, Note_on_c, 2, 45, 0
3, 28416, Note_on_c, 2, 48, 127
3, 28464, Note_on_c, 2, 49, 0
3, 28464, Note_on_c, 2, 52, 0
3, 28512, Note_on_c, 2, 48, 0
3, 28512, Note_on_c, 2, 48, 127
3, 28608, Note_on_c, 2, 52, 127
3, 28608, Note_on_c, 2, 55, 127
3, 28704, Note_on_c, 2, 48, 0
3, 28800, Note_on_c, 2, 43, 127
3, 28848, Note_on_c, 2, 43, 0
3, 28896, Note_on_c, 2, 55, 0
3, 28896, Note_on_c, 2, 52, 0
3, 28896, Note_on_c, 2, 43, 127
3, 28992, Note_on_c, 2, 50, 127
3, 28992, Note_on_c, 2, 47, 127
3, 29088, Note_on_c, 2, 43, 0
3, 29184, Note_on_c, 2, 45, 127
3, 29232, Note_on_c, 2, 45, 0
3, 29280, Note_on_c, 2, 47, 0
3, 29280, Note_on_c, 2, 50, 0
3, 29280, Note_on_c, 2, 45, 127
3, 29376, Note_on_c, 2, 52, 127
3, 29376, Note_on_c, 2, 49, 127
3, 29520, Note_on_c, 2, 49, 0
3, 29520, Note_on_c, 2, 52, 0
3, 29568, Note_on_c, 2, 52, 127
3, 29568, Note_on_c, 2, 49, 127
3, 29664, Note_on_c, 2, 45, 0
3, 29712, Note_on_c, 2, 49, 0
3, 29712, Note_on_c, 2, 52, 0
3, 29712, Note_on_c, 2, 45, 127
3, 29760, Note_on_c, 2, 52, 127
3, 29760, Note_on_c, 2, 49, 127
3, 29808, Note_on_c, 2, 45, 0
3, 29856, Note_on_c, 2, 49, 0
3, 29856, Note_on_c, 2, 52, 0
3, 29856, Note_on_c, 2, 45, 127
3, 29952, Note_on_c, 2, 45, 0
3, 29952, Note_on_c, 2, 48, 127
3, 30048, Note_on_c, 2, 52, 127
3, 30048, Note_on_c, 2, 55, 127
3, 30144, Note_on_c, 2, 55, 0
3, 30144, Note_on_c, 2, 52, 0
3, 30192, Note_on_c, 2, 55, 127
3, 30192, Note_on_c, 2, 52, 127
3, 30240, Note_on_c, 2, 48, 0
3, 30288, Note_on_c, 2, 52, 0
3, 30288, Note_on_c, 2, 55, 0
3, 30288, Note_on_c, 2, 48, 127
3, 30336, Note_on_c, 2, 55, 127
3, 30336, Note_on_c, 2, 52, 127
3, 30384, Note_on_c, 2, 48, 0
3, 30432, Note_on_c, 2, 52, 0
3, 30432, Note_on_c, 2, 55, 0
3, 30432, Note_on_c, 2, 48, 127
3, 30480, Note_on_c, 2, 52, 127
3, 30480, Note_on_c, 2, 57, 127
3, 30528, Note_on_c, 2, 48, 0
3, 30576, Note_on_c, 2, 57, 0
3, 30576, Note_on_c, 2, 52, 0
3, 30576, Note_on_c, 2, 48, 127
3, 30624, Note_on_c, 2, 48, 0
3, 30624, Note_on_c, 2, 52, 127
3, 30624, Note_on_c, 2, 55, 127
3, 30720, Note_on_c, 2, 55, 0
3, 30720, Note_on_c, 2, 52, 0
3, 30720, Note_on_c, 2, 43, 127
3, 30768, Note_on_c, 2, 43, 0
3, 30816, Note_on_c, 2, 43, 127
3, 30912, Note_on_c, 2, 50, 127
3, 30912, Note_on_c, 2, 47, 127
3, 30960, Note_on_c, 2, 43, 0
3, 31008, Note_on_c, 2, 47, 0
3, 31008, Note_on_c, 2, 43, 127
3, 31008, Note_on_c, 2, 42, 127
3, 31056, Note_on_c, 2, 42, 0
3, 31056, Note_on_c, 2, 43, 0
3, 31056, Note_on_c, 2, 50, 0
3, 31104, Note_on_c, 2, 48, 127
3, 31200, Note_on_c, 2, 55, 127
3, 31200, Note_on_c, 2, 52, 127
3, 31248, Note_on_c, 2, 48, 0
3, 31296, Note_on_c, 2, 52, 0
3, 31296, Note_on_c, 2, 55, 0
3, 31296, Note_on_c, 2, 48, 127
3, 31344, Note_on_c, 2, 48, 0
3, 31344, Note_on_c, 2, 55, 127
3, 31344, Note_on_c, 2, 52, 127
3, 31488, Note_on_c, 2, 52, 0
3, 31488, Note_on_c, 2, 55, 0
3, 31488, Note_on_c, 2, 43, 127
3, 31680, Note_on_c, 2, 50, 127
3, 31680, Note_on_c, 2, 47, 127
3, 31728, Note_on_c, 2, 43, 0
3, 31824, Note_on_c, 2, 47, 0
3, 31824, Note_on_c, 2, 50, 0
3, 31872, Note_on_c, 2, 50, 127
3, 31920, Note_on_c, 2, 47, 127
3, 32016, Note_on_c, 2, 43, 127
3, 32064, Note_on_c, 2, 47, 0
3, 32112, Note_on_c, 2, 50, 0
3, 32112, Note_on_c, 2, 47, 127
3, 32160, Note_on_c, 2, 50, 127
3, 32256, Note_on_c, 2, 50, 0
3, 32256, Note_on_c, 2, 47, 0
3, 32256, Note_on_c, 2, 43, 0
3, 32256, Note_on_c, 2, 64, 82
3, 32256, Note_on_c, 2, 67, 82
3, 32256, Note_on_c, 2, 60, 82
3, 33696, Note_on_c, 2, 60, 0
3, 33696, Note_on_c, 2, 67, 0
3, 33696, Note_on_c, 2, 64, 0
3, 33792, Note_on_c, 2, 60, 82
3, 33792, Note_on_c, 2, 67, 82
3, 33792, Note_on_c, 2, 64, 82
3, 33792, Note_on_c, 2, 55, 105
3, 33856, Note_on_c, 2, 55, 0
3, 33856, Note_on_c, 2, 52, 105
3, 33920, Note_on_c, 2, 52, 0
3, 33920, Note_on_c, 2, 48, 105
3, 33984, Note_on_c, 2, 48, 0
3, 33984, Note_on_c, 2, 55, 105
3, 34048, Note_on_c, 2, 55, 0
3, 34048, Note_on_c, 2, 52, 105
3, 34112, Note_on_c, 2, 52, 0
3, 34112, Note_on_c, 2, 48, 105
3, 34176, Note_on_c, 2, 48, 0
3, 34176, Note_on_c, 2, 55, 105
3, 34240, Note_on_c, 2, 55, 0
3, 34240, Note_on_c, 2, 52, 105
3, 34304, Note_on_c, 2, 52, 0
3, 34304, Note_on_c, 2, 48, 105
3, 34368, Note_on_c, 2, 48, 0
3, 34368, Note_on_c, 2, 55, 105
3, 34432, Note_on_c, 2, 55, 0
3, 34432, Note_on_c, 2, 52, 105
3, 34464, Note_on_c, 2, 64, 0
3, 34464, Note_on_c, 2, 60, 0
3, 34464, Note_on_c, 2, 67, 0
3, 34496, Note_on_c, 2, 52, 0
3, 34496, Note_on_c, 2, 48, 105
3, 34560, Note_on_c, 2, 48, 0
3, 34560, Note_on_c, 2, 66, 82
3, 34560, Note_on_c, 2, 62, 82
3, 34560, Note_on_c, 2, 69, 82
3, 34560, Note_on_c, 2, 57, 105
3, 34624, Note_on_c, 2, 57, 0
3, 34624, Note_on_c, 2, 54, 105
3, 34688, Note_on_c, 2, 54, 0
3, 34688, Note_on_c, 2, 50, 105
3, 34752, Note_on_c, 2, 50, 0
3, 34752, Note_on_c, 2, 57, 105
3, 34816, Note_on_c, 2, 57, 0
3, 34816, Note_on_c, 2, 54, 105
3, 34880, Note_on_c, 2, 54, 0
3, 34880, Note_on_c, 2, 50, 105
3, 34944, Note_on_c, 2, 50, 0
3, 34944, Note_on_c, 2, 57, 105
3, 35008, Note_on_c, 2, 57, 0
3, 35008, Note_on_c, 2, 54, 105
3, 35072, Note_on_c, 2, 54, 0
3, 35072, Note_on_c, 2, 50, 105
3, 35136, Note_on_c, 2, 50, 0
3, 35136, Note_on_c, 2, 57, 105
3, 35200, Note_on_c, 2, 54, 105
3, 35232, Note_on_c, 2, 66, 0
3, 35232, Note_on_c, 2, 69, 0
3, 35232, Note_on_c, 2, 62, 0
3, 35264, Note_on_c, 2, 57, 0
3, 35264, Note_on_c, 2, 54, 0
3, 35264, Note_on_c, 2, 50, 105
3, 35328, Note_on_c, 2, 50, 0
3, 35328, Note_on_c, 2, 71, 82
3, 35328, Note_on_c, 2, 68, 82
3, 35328, Note_on_c, 2, 64, 82
3, 35328, Note_on_c, 2, 59, 105
3, 35328, Note_on_c, 2, 56, 105
3, 35328, Note_on_c, 2, 52, 105
3, 36096, Note_on_c, 2, 52, 0
3, 36096, Note_on_c, 2, 59, 0
3, 36096, Note_on_c, 2, 56, 0
3, 36368, Note_on_c, 2, 71, 0
3, 36368, Note_on_c, 2, 64, 0
3, 36368, Note_on_c, 2, 68, 0
3, 36368, End_track
4, 0, Start_track
4, 0, MIDI_port, 0
4, 0, Title_t, "Lead Line       "
4, 0, Program_c, 3, 71
4, 0, Control_c, 3, 7, 127
4, 0, Control_c, 3, 10, 64
4, 0, Control_c, 3, 91, 63
4, 2976, Note_on_c, 3, 67, 127
4, 3024, Note_on_c, 3, 67, 0
4, 3024, Note_on_c, 3, 65, 127
4, 3072, Note_on_c, 3, 65, 0
4, 3072, Note_on_c, 3, 67, 127
4, 3120, Note_on_c, 3, 67, 0
4, 3120, Note_on_c, 3, 67, 127
4, 3168, Note_on_c, 3, 67, 0
4, 3168, Note_on_c, 3, 67, 127
4, 3216, Note_on_c, 3, 67, 0
4, 3216, Note_on_c, 3, 67, 127
4, 3264, Note_on_c, 3, 67, 0
4, 3264, Note_on_c, 3, 67, 127
4, 3312, Note_on_c, 3, 67, 0
4, 3360, Note_on_c, 3, 65, 127
4, 3408, Note_on_c, 3, 65, 0
4, 3408, Note_on_c, 3, 67, 127
4, 3456, Note_on_c, 3, 67, 0
4, 3744, Note_on_c, 3, 67, 127
4, 3792, Note_on_c, 3, 67, 0
4, 3792, Note_on_c, 3, 67, 127
4, 3840, Note_on_c, 3, 67, 0
4, 3840, Note_on_c, 3, 67, 127
4, 3888, Note_on_c, 3, 67, 0
4, 3888, Note_on_c, 3, 67, 127
4, 3936, Note_on_c, 3, 67, 0
4, 3936, Note_on_c, 3, 67, 127
4, 3984, Note_on_c, 3, 67, 0
4, 3984, Note_on_c, 3, 67, 127
4, 4032, Note_on_c, 3, 67, 0
4, 4032, Note_on_c, 3, 67, 127
4, 4080, Note_on_c, 3, 67, 0
4, 4128, Note_on_c, 3, 65, 127
4, 4176, Note_on_c, 3, 65, 0
4, 4176, Note_on_c, 3, 67, 127
4, 4224, Note_on_c, 3, 67, 0
4, 4512, Note_on_c, 3, 67, 127
4, 4560, Note_on_c, 3, 67, 0
4, 4560, Note_on_c, 3, 67, 127
4, 4608, Note_on_c, 3, 67, 0
4, 4608, Note_on_c, 3, 67, 127
4, 4656, Note_on_c, 3, 67, 0
4, 4656, Note_on_c, 3, 67, 127
4, 4704, Note_on_c, 3, 67, 0
4, 4704, Note_on_c, 3, 67, 127
4, 4752, Note_on_c, 3, 67, 0
4, 4752, Note_on_c, 3, 67, 127
4, 4800, Note_on_c, 3, 67, 0
4, 4800, Note_on_c, 3, 67, 127
4, 4848, Note_on_c, 3, 67, 0
4, 4896, Note_on_c, 3, 65, 127
4, 4944, Note_on_c, 3, 65, 0
4, 4944, Note_on_c, 3, 67, 127
4, 4992, Note_on_c, 3, 67, 0
4, 5280, Note_on_c, 3, 67, 127
4, 5328, Note_on_c, 3, 67, 0
4, 5328, Note_on_c, 3, 67, 127
4, 5376, Note_on_c, 3, 67, 0
4, 5376, Note_on_c, 3, 67, 127
4, 5424, Note_on_c, 3, 67, 0
4, 5424, Note_on_c, 3, 67, 127
4, 5472, Note_on_c, 3, 67, 0
4, 5472, Note_on_c, 3, 67, 127
4, 5520, Note_on_c, 3, 67, 0
4, 5520, Note_on_c, 3, 67, 127
4, 5568, Note_on_c, 3, 67, 0
4, 5568, Note_on_c, 3, 67, 127
4, 5616, Note_on_c, 3, 67, 0
4, 5664, Note_on_c, 3, 65, 127
4, 5712, Note_on_c, 3, 65, 0
4, 5712, Note_on_c, 3, 67, 127
4, 5760, Note_on_c, 3, 67, 0
4, 6096, Note_on_c, 3, 67, 127
4, 6144, Note_on_c, 3, 67, 0
4, 6144, Note_on_c, 3, 69, 127
4, 6192, Note_on_c, 3, 69, 0
4, 6192, Note_on_c, 3, 69, 127
4, 6240, Note_on_c, 3, 69, 0
4, 6240, Note_on_c, 3, 69, 127
4, 6288, Note_on_c, 3, 69, 0
4, 6336, Note_on_c, 3, 69, 127
4, 6384, Note_on_c, 3, 69, 0
4, 6432, Note_on_c, 3, 67, 127
4, 6480, Note_on_c, 3, 67, 0
4, 6480, Note_on_c, 3, 69, 127
4, 6528, Note_on_c, 3, 69, 0
4, 6864, Note_on_c, 3, 69, 127
4, 6912, Note_on_c, 3, 69, 0
4, 6912, Note_on_c, 3, 70, 127
4, 6960, Note_on_c, 3, 70, 0
4, 6960, Note_on_c, 3, 70, 127
4, 7008, Note_on_c, 3, 70, 0
4, 7008, Note_on_c, 3, 70, 127
4, 7056, Note_on_c, 3, 70, 0
4, 7056, Note_on_c, 3, 70, 127
4, 7104, Note_on_c, 3, 70, 0
4, 7104, Note_on_c, 3, 70, 127
4, 7152, Note_on_c, 3, 70, 0
4, 7152, Note_on_c, 3, 70, 127
4, 7200, Note_on_c, 3, 70, 0
4, 7248, Note_on_c, 3, 70, 127
4, 7344, Note_on_c, 3, 70, 0
4, 7680, Note_on_c, 3, 70, 127
4, 7728, Note_on_c, 3, 70, 0
4, 7776, Note_on_c, 3, 70, 127
4, 7824, Note_on_c, 3, 70, 0
4, 7872, Note_on_c, 3, 70, 127
4, 7920, Note_on_c, 3, 70, 0
4, 7920, Note_on_c, 3, 70, 127
4, 7968, Note_on_c, 3, 70, 0
4, 8064, Note_on_c, 3, 70, 127
4, 8112, Note_on_c, 3, 70, 0
4, 8160, Note_on_c, 3, 70, 127
4, 8208, Note_on_c, 3, 70, 0
4, 8208, Note_on_c, 3, 70, 127
4, 8256, Note_on_c, 3, 70, 0
4, 8304, Note_on_c, 3, 70, 127
4, 8352, Note_on_c, 3, 70, 0
4, 8400, Note_on_c, 3, 70, 127
4, 8736, Note_on_c, 3, 70, 0
4, 8736, Note_on_c, 3, 65, 127
4, 8880, Note_on_c, 3, 65, 0
4, 8928, Note_on_c, 3, 67, 127
4, 9168, Note_on_c, 3, 67, 0
4, 12960, Note_on_c, 3, 59, 127
4, 13008, Note_on_c, 3, 59, 0
4, 13056, Note_on_c, 3, 62, 115
4, 13056, Note_on_c, 3, 67, 107
4, 13056, Note_on_c, 3, 74, 108
4, 13104, Note_on_c, 3, 74, 0
4, 13104, Note_on_c, 3, 67, 0
4, 13104, Note_on_c, 3, 62, 0
4, 13152, Note_on_c, 3, 62, 115
4, 13152, Note_on_c, 3, 67, 107
4, 13152, Note_on_c, 3, 74, 108
4, 13200, Note_on_c, 3, 74, 0
4, 13200, Note_on_c, 3, 67, 0
4, 13200, Note_on_c, 3, 62, 0
4, 13248, Note_on_c, 3, 62, 115
4, 13248, Note_on_c, 3, 67, 107
4, 13248, Note_on_c, 3, 74, 108
4, 13296, Note_on_c, 3, 74, 0
4, 13296, Note_on_c, 3, 67, 0
4, 13296, Note_on_c, 3, 62, 0
4, 13344, Note_on_c, 3, 62, 115
4, 13344, Note_on_c, 3, 67, 107
4, 13344, Note_on_c, 3, 74, 108
4, 13392, Note_on_c, 3, 74, 0
4, 13392, Note_on_c, 3, 67, 0
4, 13392, Note_on_c, 3, 62, 0
4, 13440, Note_on_c, 3, 67, 115
4, 13440, Note_on_c, 3, 72, 107
4, 13440, Note_on_c, 3, 79, 108
4, 13584, Note_on_c, 3, 79, 0
4, 13584, Note_on_c, 3, 72, 0
4, 13584, Note_on_c, 3, 67, 0
4, 13632, Note_on_c, 3, 67, 115
4, 13632, Note_on_c, 3, 72, 107
4, 13632, Note_on_c, 3, 79, 108
4, 13728, Note_on_c, 3, 79, 0
4, 13728, Note_on_c, 3, 72, 0
4, 13728, Note_on_c, 3, 67, 0
4, 13728, Note_on_c, 3, 65, 115
4, 13728, Note_on_c, 3, 70, 107
4, 13728, Note_on_c, 3, 77, 108
4, 13920, Note_on_c, 3, 77, 0
4, 13920, Note_on_c, 3, 70, 0
4, 13920, Note_on_c, 3, 65, 0
4, 13920, Note_on_c, 3, 64, 115
4, 13920, Note_on_c, 3, 69, 107
4, 13920, Note_on_c, 3, 76, 108
4, 14112, Note_on_c, 3, 76, 0
4, 14112, Note_on_c, 3, 69, 0
4, 14112, Note_on_c, 3, 64, 0
4, 14112, Note_on_c, 3, 62, 115
4, 14112, Note_on_c, 3, 67, 107
4, 14112, Note_on_c, 3, 74, 108
4, 14400, Note_on_c, 3, 74, 0
4, 14400, Note_on_c, 3, 67, 0
4, 14400, Note_on_c, 3, 62, 0
4, 14496, Note_on_c, 3, 62, 115
4, 14496, Note_on_c, 3, 67, 107
4, 14496, Note_on_c, 3, 74, 108
4, 14544, Note_on_c, 3, 74, 0
4, 14544, Note_on_c, 3, 67, 0
4, 14544, Note_on_c, 3, 62, 0
4, 14592, Note_on_c, 3, 64, 115
4, 14592, Note_on_c, 3, 67, 107
4, 14592, Note_on_c, 3, 76, 108
4, 14640, Note_on_c, 3, 76, 0
4, 14640, Note_on_c, 3, 67, 0
4, 14640, Note_on_c, 3, 64, 0
4, 14688, Note_on_c, 3, 64, 115
4, 14688, Note_on_c, 3, 67, 107
4, 14688, Note_on_c, 3, 76, 108
4, 14736, Note_on_c, 3, 76, 0
4, 14736, Note_on_c, 3, 67, 0
4, 14736, Note_on_c, 3, 64, 0
4, 14784, Note_on_c, 3, 64, 115
4, 14784, Note_on_c, 3, 67, 107
4, 14784, Note_on_c, 3, 76, 108
4, 14832, Note_on_c, 3, 76, 0
4, 14832, Note_on_c, 3, 67, 0
4, 14832, Note_on_c, 3, 64, 0
4, 14880, Note_on_c, 3, 64, 115
4, 14880, Note_on_c, 3, 67, 107
4, 14880, Note_on_c, 3, 76, 108
4, 14928, Note_on_c, 3, 76, 0
4, 14928, Note_on_c, 3, 67, 0
4, 14928, Note_on_c, 3, 64, 0
4, 14976, Note_on_c, 3, 64, 115
4, 14976, Note_on_c, 3, 67, 107
4, 14976, Note_on_c, 3, 76, 108
4, 15120, Note_on_c, 3, 76, 0
4, 15120, Note_on_c, 3, 67, 0
4, 15120, Note_on_c, 3, 64, 0
4, 15168, Note_on_c, 3, 64, 115
4, 15168, Note_on_c, 3, 67, 107
4, 15168, Note_on_c, 3, 76, 108
4, 15216, Note_on_c, 3, 76, 0
4, 15216, Note_on_c, 3, 67, 0
4, 15216, Note_on_c, 3, 64, 0
4, 15264, Note_on_c, 3, 62, 115
4, 15264, Note_on_c, 3, 67, 107
4, 15264, Note_on_c, 3, 74, 108
4, 15648, Note_on_c, 3, 74, 0
4, 15648, Note_on_c, 3, 67, 0
4, 15648, Note_on_c, 3, 62, 0
4, 16128, Note_on_c, 3, 62, 115
4, 16128, Note_on_c, 3, 67, 107
4, 16128, Note_on_c, 3, 74, 108
4, 16176, Note_on_c, 3, 74, 0
4, 16176, Note_on_c, 3, 67, 0
4, 16176, Note_on_c, 3, 62, 0
4, 16224, Note_on_c, 3, 62, 115
4, 16224, Note_on_c, 3, 67, 107
4, 16224, Note_on_c, 3, 74, 108
4, 16272, Note_on_c, 3, 74, 0
4, 16272, Note_on_c, 3, 67, 0
4, 16272, Note_on_c, 3, 62, 0
4, 16320, Note_on_c, 3, 62, 115
4, 16320, Note_on_c, 3, 67, 107
4, 16320, Note_on_c, 3, 74, 108
4, 16368, Note_on_c, 3, 74, 0
4, 16368, Note_on_c, 3, 67, 0
4, 16368, Note_on_c, 3, 62, 0
4, 16416, Note_on_c, 3, 62, 115
4, 16416, Note_on_c, 3, 67, 107
4, 16416, Note_on_c, 3, 74, 108
4, 16464, Note_on_c, 3, 74, 0
4, 16464, Note_on_c, 3, 67, 0
4, 16464, Note_on_c, 3, 62, 0
4, 16512, Note_on_c, 3, 67, 115
4, 16512, Note_on_c, 3, 72, 107
4, 16512, Note_on_c, 3, 79, 108
4, 16656, Note_on_c, 3, 79, 0
4, 16656, Note_on_c, 3, 72, 0
4, 16656, Note_on_c, 3, 67, 0
4, 16704, Note_on_c, 3, 67, 115
4, 16704, Note_on_c, 3, 72, 107
4, 16704, Note_on_c, 3, 79, 108
4, 16752, Note_on_c, 3, 79, 0
4, 16752, Note_on_c, 3, 72, 0
4, 16752, Note_on_c, 3, 67, 0
4, 16800, Note_on_c, 3, 65, 115
4, 16800, Note_on_c, 3, 70, 107
4, 16800, Note_on_c, 3, 77, 108
4, 16992, Note_on_c, 3, 77, 0
4, 16992, Note_on_c, 3, 70, 0
4, 16992, Note_on_c, 3, 65, 0
4, 16992, Note_on_c, 3, 64, 115
4, 16992, Note_on_c, 3, 69, 107
4, 16992, Note_on_c, 3, 76, 108
4, 17136, Note_on_c, 3, 76, 0
4, 17136, Note_on_c, 3, 69, 0
4, 17136, Note_on_c, 3, 64, 0
4, 17184, Note_on_c, 3, 62, 115
4, 17184, Note_on_c, 3, 67, 107
4, 17184, Note_on_c, 3, 74, 108
4, 17520, Note_on_c, 3, 74, 0
4, 17520, Note_on_c, 3, 67, 0
4, 17520, Note_on_c, 3, 62, 0
4, 17568, Note_on_c, 3, 62, 115
4, 17568, Note_on_c, 3, 67, 107
4, 17568, Note_on_c, 3, 74, 108
4, 17616, Note_on_c, 3, 74, 0
4, 17616, Note_on_c, 3, 67, 0
4, 17616, Note_on_c, 3, 62, 0
4, 17664, Note_on_c, 3, 64, 115
4, 17664, Note_on_c, 3, 69, 107
4, 17664, Note_on_c, 3, 76, 108
4, 17712, Note_on_c, 3, 76, 0
4, 17712, Note_on_c, 3, 69, 0
4, 17712, Note_on_c, 3, 64, 0
4, 17760, Note_on_c, 3, 64, 115
4, 17760, Note_on_c, 3, 69, 107
4, 17760, Note_on_c, 3, 76, 108
4, 17808, Note_on_c, 3, 76, 0
4, 17808, Note_on_c, 3, 69, 0
4, 17808, Note_on_c, 3, 64, 0
4, 17856, Note_on_c, 3, 64, 115
4, 17856, Note_on_c, 3, 69, 107
4, 17856, Note_on_c, 3, 76, 108
4, 17904, Note_on_c, 3, 76, 0
4, 17904, Note_on_c, 3, 69, 0
4, 17904, Note_on_c, 3, 64, 0
4, 17952, Note_on_c, 3, 64, 115
4, 17952, Note_on_c, 3, 69, 107
4, 17952, Note_on_c, 3, 76, 108
4, 18000, Note_on_c, 3, 76, 0
4, 18000, Note_on_c, 3, 69, 0
4, 18000, Note_on_c, 3, 64, 0
4, 18048, Note_on_c, 3, 64, 115
4, 18048, Note_on_c, 3, 69, 107
4, 18048, Note_on_c, 3, 76, 108
4, 18192, Note_on_c, 3, 76, 0
4, 18192, Note_on_c, 3, 69, 0
4, 18192, Note_on_c, 3, 64, 0
4, 18240, Note_on_c, 3, 64, 115
4, 18240, Note_on_c, 3, 69, 107
4, 18240, Note_on_c, 3, 76, 108
4, 18288, Note_on_c, 3, 76, 0
4, 18288, Note_on_c, 3, 69, 0
4, 18288, Note_on_c, 3, 64, 0
4, 18336, Note_on_c, 3, 66, 115
4, 18336, Note_on_c, 3, 69, 107
4, 18336, Note_on_c, 3, 78, 108
4, 18624, Note_on_c, 3, 78, 0
4, 18624, Note_on_c, 3, 69, 0
4, 18624, Note_on_c, 3, 66, 0
4, 19176, Note_on_c, 3, 76, 108
4, 19184, Note_on_c, 3, 64, 115
4, 19184, Note_on_c, 3, 67, 107
4, 19248, Note_on_c, 3, 67, 0
4, 19248, Note_on_c, 3, 64, 0
4, 19248, Note_on_c, 3, 76, 0
4, 19296, Note_on_c, 3, 64, 115
4, 19296, Note_on_c, 3, 67, 107
4, 19296, Note_on_c, 3, 76, 108
4, 19344, Note_on_c, 3, 76, 0
4, 19344, Note_on_c, 3, 67, 0
4, 19344, Note_on_c, 3, 64, 0
4, 19392, Note_on_c, 3, 64, 115
4, 19392, Note_on_c, 3, 67, 107
4, 19392, Note_on_c, 3, 76, 108
4, 19440, Note_on_c, 3, 76, 0
4, 19440, Note_on_c, 3, 67, 0
4, 19440, Note_on_c, 3, 64, 0
4, 19488, Note_on_c, 3, 64, 115
4, 19488, Note_on_c, 3, 67, 107
4, 19488, Note_on_c, 3, 76, 108
4, 19536, Note_on_c, 3, 76, 0
4, 19536, Note_on_c, 3, 67, 0
4, 19536, Note_on_c, 3, 64, 0
4, 19584, Note_on_c, 3, 64, 115
4, 19584, Note_on_c, 3, 67, 107
4, 19584, Note_on_c, 3, 76, 108
4, 19728, Note_on_c, 3, 76, 0
4, 19728, Note_on_c, 3, 67, 0
4, 19728, Note_on_c, 3, 64, 0
4, 19776, Note_on_c, 3, 64, 115
4, 19776, Note_on_c, 3, 67, 107
4, 19776, Note_on_c, 3, 76, 108
4, 19824, Note_on_c, 3, 76, 0
4, 19824, Note_on_c, 3, 67, 0
4, 19824, Note_on_c, 3, 64, 0
4, 19872, Note_on_c, 3, 62, 115
4, 19872, Note_on_c, 3, 67, 107
4, 19872, Note_on_c, 3, 74, 108
4, 20016, Note_on_c, 3, 74, 0
4, 20016, Note_on_c, 3, 67, 0
4, 20016, Note_on_c, 3, 62, 0
4, 20064, Note_on_c, 3, 62, 115
4, 20064, Note_on_c, 3, 67, 107
4, 20064, Note_on_c, 3, 74, 108
4, 20112, Note_on_c, 3, 74, 0
4, 20112, Note_on_c, 3, 67, 0
4, 20112, Note_on_c, 3, 62, 0
4, 20160, Note_on_c, 3, 62, 115
4, 20160, Note_on_c, 3, 67, 107
4, 20160, Note_on_c, 3, 74, 108
4, 20208, Note_on_c, 3, 74, 0
4, 20208, Note_on_c, 3, 67, 0
4, 20208, Note_on_c, 3, 62, 0
4, 20256, Note_on_c, 3, 62, 115
4, 20256, Note_on_c, 3, 67, 107
4, 20256, Note_on_c, 3, 74, 108
4, 20304, Note_on_c, 3, 74, 0
4, 20304, Note_on_c, 3, 67, 0
4, 20304, Note_on_c, 3, 62, 0
4, 20352, Note_on_c, 3, 62, 115
4, 20352, Note_on_c, 3, 67, 107
4, 20352, Note_on_c, 3, 74, 108
4, 20496, Note_on_c, 3, 74, 0
4, 20496, Note_on_c, 3, 67, 0
4, 20496, Note_on_c, 3, 62, 0
4, 20544, Note_on_c, 3, 62, 115
4, 20544, Note_on_c, 3, 67, 107
4, 20544, Note_on_c, 3, 74, 108
4, 20592, Note_on_c, 3, 74, 0
4, 20592, Note_on_c, 3, 67, 0
4, 20592, Note_on_c, 3, 62, 0
4, 20640, Note_on_c, 3, 64, 115
4, 20640, Note_on_c, 3, 67, 107
4, 20640, Note_on_c, 3, 76, 108
4, 20784, Note_on_c, 3, 76, 0
4, 20784, Note_on_c, 3, 67, 0
4, 20784, Note_on_c, 3, 64, 0
4, 20832, Note_on_c, 3, 64, 115
4, 20832, Note_on_c, 3, 67, 107
4, 20832, Note_on_c, 3, 76, 108
4, 20880, Note_on_c, 3, 76, 0
4, 20880, Note_on_c, 3, 67, 0
4, 20880, Note_on_c, 3, 64, 0
4, 20928, Note_on_c, 3, 64, 115
4, 20928, Note_on_c, 3, 67, 107
4, 20928, Note_on_c, 3, 76, 108
4, 20976, Note_on_c, 3, 76, 0
4, 20976, Note_on_c, 3, 67, 0
4, 20976, Note_on_c, 3, 64, 0
4, 21024, Note_on_c, 3, 64, 115
4, 21024, Note_on_c, 3, 67, 107
4, 21024, Note_on_c, 3, 76, 108
4, 21072, Note_on_c, 3, 76, 0
4, 21072, Note_on_c, 3, 67, 0
4, 21072, Note_on_c, 3, 64, 0
4, 21120, Note_on_c, 3, 64, 115
4, 21120, Note_on_c, 3, 67, 107
4, 21120, Note_on_c, 3, 76, 108
4, 21264, Note_on_c, 3, 76, 0
4, 21264, Note_on_c, 3, 67, 0
4, 21264, Note_on_c, 3, 64, 0
4, 21312, Note_on_c, 3, 64, 115
4, 21312, Note_on_c, 3, 67, 107
4, 21312, Note_on_c, 3, 76, 108
4, 21360, Note_on_c, 3, 76, 0
4, 21360, Note_on_c, 3, 67, 0
4, 21360, Note_on_c, 3, 64, 0
4, 21408, Note_on_c, 3, 65, 115
4, 21408, Note_on_c, 3, 67, 107
4, 21408, Note_on_c, 3, 77, 108
4, 21504, Note_on_c, 3, 77, 0
4, 21504, Note_on_c, 3, 67, 0
4, 21504, Note_on_c, 3, 65, 0
4, 21600, Note_on_c, 3, 64, 115
4, 21600, Note_on_c, 3, 67, 107
4, 21600, Note_on_c, 3, 76, 108
4, 21744, Note_on_c, 3, 76, 0
4, 21744, Note_on_c, 3, 67, 0
4, 21744, Note_on_c, 3, 64, 0
4, 21792, Note_on_c, 3, 62, 115
4, 21792, Note_on_c, 3, 67, 107
4, 21792, Note_on_c, 3, 74, 108
4, 22080, Note_on_c, 3, 74, 0
4, 22080, Note_on_c, 3, 67, 0
4, 22080, Note_on_c, 3, 62, 0
4, 22176, Note_on_c, 3, 62, 127
4, 22272, Note_on_c, 3, 62, 0
4, 22272, Note_on_c, 3, 64, 127
4, 22272, Note_on_c, 3, 60, 72
4, 22312, Note_on_c, 3, 60, 0
4, 22320, Note_on_c, 3, 64, 0
4, 22368, Note_on_c, 3, 64, 127
4, 22368, Note_on_c, 3, 60, 72
4, 22400, Note_on_c, 3, 60, 0
4, 22416, Note_on_c, 3, 64, 0
4, 22464, Note_on_c, 3, 64, 127
4, 22464, Note_on_c, 3, 60, 72
4, 22496, Note_on_c, 3, 60, 0
4, 22512, Note_on_c, 3, 64, 0
4, 22552, Note_on_c, 3, 60, 72
4, 22560, Note_on_c, 3, 64, 127
4, 22592, Note_on_c, 3, 60, 0
4, 22608, Note_on_c, 3, 64, 0
4, 22648, Note_on_c, 3, 60, 72
4, 22656, Note_on_c, 3, 64, 127
4, 22696, Note_on_c, 3, 60, 0
4, 22704, Note_on_c, 3, 64, 0
4, 22744, Note_on_c, 3, 60, 72
4, 22752, Note_on_c, 3, 64, 127
4, 22896, Note_on_c, 3, 64, 0
4, 22912, Note_on_c, 3, 60, 0
4, 22944, Note_on_c, 3, 64, 127
4, 22952, Note_on_c, 3, 60, 72
4, 22992, Note_on_c, 3, 64, 0
4, 23000, Note_on_c, 3, 60, 0
4, 23040, Note_on_c, 3, 63, 127
4, 23040, Note_on_c, 3, 57, 72
4, 23088, Note_on_c, 3, 63, 0
4, 23104, Note_on_c, 3, 57, 0
4, 23136, Note_on_c, 3, 63, 127
4, 23136, Note_on_c, 3, 57, 72
4, 23184, Note_on_c, 3, 63, 0
4, 23192, Note_on_c, 3, 57, 0
4, 23232, Note_on_c, 3, 63, 127
4, 23232, Note_on_c, 3, 57, 72
4, 23280, Note_on_c, 3, 57, 0
4, 23280, Note_on_c, 3, 63, 0
4, 23320, Note_on_c, 3, 57, 72
4, 23328, Note_on_c, 3, 63, 127
4, 23376, Note_on_c, 3, 63, 0
4, 23384, Note_on_c, 3, 57, 0
4, 23424, Note_on_c, 3, 63, 127
4, 23424, Note_on_c, 3, 57, 72
4, 23632, Note_on_c, 3, 57, 0
4, 23664, Note_on_c, 3, 63, 0
4, 23712, Note_on_c, 3, 63, 127
4, 23712, Note_on_c, 3, 57, 72
4, 23760, Note_on_c, 3, 57, 0
4, 23760, Note_on_c, 3, 63, 0
4, 23800, Note_on_c, 3, 60, 72
4, 23808, Note_on_c, 3, 64, 127
4, 23856, Note_on_c, 3, 64, 0
4, 23856, Note_on_c, 3, 60, 0
4, 23896, Note_on_c, 3, 60, 72
4, 23904, Note_on_c, 3, 64, 127
4, 23952, Note_on_c, 3, 64, 0
4, 23952, Note_on_c, 3, 60, 0
4, 24000, Note_on_c, 3, 64, 127
4, 24000, Note_on_c, 3, 60, 72
4, 24040, Note_on_c, 3, 60, 0
4, 24048, Note_on_c, 3, 64, 0
4, 24088, Note_on_c, 3, 60, 72
4, 24096, Note_on_c, 3, 64, 127
4, 24128, Note_on_c, 3, 60, 0
4, 24144, Note_on_c, 3, 64, 0
4, 24184, Note_on_c, 3, 60, 72
4, 24192, Note_on_c, 3, 64, 127
4, 24232, Note_on_c, 3, 60, 0
4, 24240, Note_on_c, 3, 64, 0
4, 24280, Note_on_c, 3, 60, 72
4, 24288, Note_on_c, 3, 64, 127
4, 24328, Note_on_c, 3, 60, 0
4, 24336, Note_on_c, 3, 64, 0
4, 24376, Note_on_c, 3, 60, 72
4, 24384, Note_on_c, 3, 64, 127
4, 24432, Note_on_c, 3, 64, 0
4, 24432, Note_on_c, 3, 60, 0
4, 24480, Note_on_c, 3, 64, 127
4, 24480, Note_on_c, 3, 60, 72
4, 24520, Note_on_c, 3, 60, 0
4, 24528, Note_on_c, 3, 64, 0
4, 24576, Note_on_c, 3, 66, 127
4, 24584, Note_on_c, 3, 60, 72
4, 24616, Note_on_c, 3, 60, 0
4, 24624, Note_on_c, 3, 66, 0
4, 24672, Note_on_c, 3, 66, 127
4, 24672, Note_on_c, 3, 57, 72
4, 24720, Note_on_c, 3, 57, 0
4, 24720, Note_on_c, 3, 66, 0
4, 24768, Note_on_c, 3, 66, 127
4, 24768, Note_on_c, 3, 54, 72
4, 24800, Note_on_c, 3, 54, 0
4, 24816, Note_on_c, 3, 66, 0
4, 24864, Note_on_c, 3, 66, 127
4, 24864, Note_on_c, 3, 57, 72
4, 24912, Note_on_c, 3, 57, 0
4, 24912, Note_on_c, 3, 66, 0
4, 24960, Note_on_c, 3, 66, 127
4, 24960, Note_on_c, 3, 60, 72
4, 25008, Note_on_c, 3, 60, 0
4, 25008, Note_on_c, 3, 66, 0
4, 25056, Note_on_c, 3, 66, 127
4, 25056, Note_on_c, 3, 50, 72
4, 25104, Note_on_c, 3, 50, 0
4, 25104, Note_on_c, 3, 66, 0
4, 25144, Note_on_c, 3, 54, 72
4, 25152, Note_on_c, 3, 66, 127
4, 25184, Note_on_c, 3, 54, 0
4, 25200, Note_on_c, 3, 66, 0
4, 25240, Note_on_c, 3, 57, 72
4, 25248, Note_on_c, 3, 66, 127
4, 25288, Note_on_c, 3, 57, 0
4, 25296, Note_on_c, 3, 66, 0
4, 25344, Note_on_c, 3, 66, 127
4, 25344, Note_on_c, 3, 60, 72
4, 25392, Note_on_c, 3, 60, 0
4, 25392, Note_on_c, 3, 66, 0
4, 25440, Note_on_c, 3, 66, 127
4, 25440, Note_on_c, 3, 50, 72
4, 25488, Note_on_c, 3, 50, 0
4, 25488, Note_on_c, 3, 66, 0
4, 25536, Note_on_c, 3, 66, 127
4, 25536, Note_on_c, 3, 54, 72
4, 25568, Note_on_c, 3, 54, 0
4, 25584, Note_on_c, 3, 66, 0
4, 25632, Note_on_c, 3, 66, 127
4, 25632, Note_on_c, 3, 57, 72
4, 25680, Note_on_c, 3, 57, 0
4, 25680, Note_on_c, 3, 66, 0
4, 25728, Note_on_c, 3, 66, 127
4, 25736, Note_on_c, 3, 60, 72
4, 25912, Note_on_c, 3, 60, 0
4, 25920, Note_on_c, 3, 66, 0
4, 25968, Note_on_c, 3, 67, 127
4, 26016, Note_on_c, 3, 67, 0
4, 26016, Note_on_c, 3, 67, 127
4, 26064, Note_on_c, 3, 67, 0
4, 26112, Note_on_c, 3, 67, 127
4, 26160, Note_on_c, 3, 67, 0
4, 26160, Note_on_c, 3, 67, 127
4, 26208, Note_on_c, 3, 67, 0
4, 26208, Note_on_c, 3, 67, 127
4, 26256, Note_on_c, 3, 67, 0
4, 26256, Note_on_c, 3, 67, 127
4, 26304, Note_on_c, 3, 67, 0
4, 26304, Note_on_c, 3, 67, 127
4, 26352, Note_on_c, 3, 67, 0
4, 26400, Note_on_c, 3, 65, 127
4, 26448, Note_on_c, 3, 65, 0
4, 26448, Note_on_c, 3, 67, 127
4, 26544, Note_on_c, 3, 67, 0
4, 26784, Note_on_c, 3, 67, 127
4, 26832, Note_on_c, 3, 67, 0
4, 26832, Note_on_c, 3, 67, 127
4, 26880, Note_on_c, 3, 67, 0
4, 26880, Note_on_c, 3, 67, 127
4, 26928, Note_on_c, 3, 67, 0
4, 26928, Note_on_c, 3, 67, 127
4, 26976, Note_on_c, 3, 67, 0
4, 26976, Note_on_c, 3, 67, 127
4, 27024, Note_on_c, 3, 67, 0
4, 27072, Note_on_c, 3, 67, 127
4, 27120, Note_on_c, 3, 67, 0
4, 27168, Note_on_c, 3, 65, 127
4, 27216, Note_on_c, 3, 65, 0
4, 27216, Note_on_c, 3, 67, 127
4, 27264, Note_on_c, 3, 67, 0
4, 27552, Note_on_c, 3, 67, 127
4, 27600, Note_on_c, 3, 67, 0
4, 27600, Note_on_c, 3, 67, 127
4, 27648, Note_on_c, 3, 67, 0
4, 27648, Note_on_c, 3, 67, 127
4, 27696, Note_on_c, 3, 67, 0
4, 27696, Note_on_c, 3, 67, 127
4, 27744, Note_on_c, 3, 67, 0
4, 27744, Note_on_c, 3, 67, 127
4, 27792, Note_on_c, 3, 67, 0
4, 27792, Note_on_c, 3, 67, 127
4, 27840, Note_on_c, 3, 67, 0
4, 27840, Note_on_c, 3, 67, 127
4, 27888, Note_on_c, 3, 67, 0
4, 27936, Note_on_c, 3, 65, 127
4, 27984, Note_on_c, 3, 65, 0
4, 27984, Note_on_c, 3, 67, 127
4, 28080, Note_on_c, 3, 67, 0
4, 28320, Note_on_c, 3, 67, 127
4, 28368, Note_on_c, 3, 67, 0
4, 28368, Note_on_c, 3, 67, 127
4, 28416, Note_on_c, 3, 67, 0
4, 28416, Note_on_c, 3, 67, 127
4, 28464, Note_on_c, 3, 67, 0
4, 28464, Note_on_c, 3, 67, 127
4, 28512, Note_on_c, 3, 67, 0
4, 28512, Note_on_c, 3, 67, 127
4, 28560, Note_on_c, 3, 67, 0
4, 28560, Note_on_c, 3, 67, 127
4, 28608, Note_on_c, 3, 67, 0
4, 28608, Note_on_c, 3, 67, 127
4, 28656, Note_on_c, 3, 67, 0
4, 28704, Note_on_c, 3, 65, 127
4, 28752, Note_on_c, 3, 65, 0
4, 28752, Note_on_c, 3, 67, 127
4, 28848, Note_on_c, 3, 67, 0
4, 29136, Note_on_c, 3, 67, 127
4, 29184, Note_on_c, 3, 67, 0
4, 29184, Note_on_c, 3, 69, 127
4, 29232, Note_on_c, 3, 69, 0
4, 29232, Note_on_c, 3, 69, 127
4, 29280, Note_on_c, 3, 69, 0
4, 29280, Note_on_c, 3, 69, 127
4, 29328, Note_on_c, 3, 69, 0
4, 29376, Note_on_c, 3, 69, 127
4, 29424, Note_on_c, 3, 69, 0
4, 29472, Note_on_c, 3, 67, 127
4, 29520, Note_on_c, 3, 67, 0
4, 29520, Note_on_c, 3, 69, 127
4, 29568, Note_on_c, 3, 69, 0
4, 29904, Note_on_c, 3, 69, 127
4, 29952, Note_on_c, 3, 69, 0
4, 29952, Note_on_c, 3, 70, 127
4, 30000, Note_on_c, 3, 70, 0
4, 30000, Note_on_c, 3, 70, 127
4, 30048, Note_on_c, 3, 70, 0
4, 30048, Note_on_c, 3, 70, 127
4, 30096, Note_on_c, 3, 70, 0
4, 30144, Note_on_c, 3, 70, 127
4, 30192, Note_on_c, 3, 70, 0
4, 30192, Note_on_c, 3, 70, 127
4, 30240, Note_on_c, 3, 70, 0
4, 30288, Note_on_c, 3, 70, 127
4, 30384, Note_on_c, 3, 70, 0
4, 30384, Note_on_c, 3, 69, 127
4, 30432, Note_on_c, 3, 69, 0
4, 30432, Note_on_c, 3, 67, 127
4, 30480, Note_on_c, 3, 67, 0
4, 30624, Note_on_c, 3, 69, 127
4, 30672, Note_on_c, 3, 69, 0
4, 30720, Note_on_c, 3, 70, 127
4, 30768, Note_on_c, 3, 70, 0
4, 30816, Note_on_c, 3, 70, 127
4, 30864, Note_on_c, 3, 70, 0
4, 30912, Note_on_c, 3, 70, 127
4, 30960, Note_on_c, 3, 70, 0
4, 30960, Note_on_c, 3, 70, 127
4, 31008, Note_on_c, 3, 70, 0
4, 31104, Note_on_c, 3, 70, 127
4, 31152, Note_on_c, 3, 70, 0
4, 31200, Note_on_c, 3, 70, 127
4, 31248, Note_on_c, 3, 70, 0
4, 31248, Note_on_c, 3, 70, 127
4, 31296, Note_on_c, 3, 70, 0
4, 31344, Note_on_c, 3, 70, 127
4, 31392, Note_on_c, 3, 70, 0
4, 31440, Note_on_c, 3, 70, 127
4, 31728, Note_on_c, 3, 70, 0
4, 31776, Note_on_c, 3, 65, 127
4, 31824, Note_on_c, 3, 65, 0
4, 31872, Note_on_c, 3, 67, 127
4, 31920, Note_on_c, 3, 67, 0
4, 31920, Note_on_c, 3, 69, 127
4, 31968, Note_on_c, 3, 69, 0
4, 31968, Note_on_c, 3, 67, 127
4, 32208, Note_on_c, 3, 67, 0
4, 33792, Note_on_c, 3, 67, 127
4, 34512, Note_on_c, 3, 67, 0
4, 34560, Note_on_c, 3, 69, 127
4, 35280, Note_on_c, 3, 69, 0
4, 35328, Note_on_c, 3, 71, 127
4, 36576, Note_on_c, 3, 71, 0
4, 36576, End_track
5, 0, Start_track
5, 0, MIDI_port, 0
5, 0, Title_t, "Brass 2         "
5, 0, Program_c, 4, 63
5, 0, Control_c, 4, 7, 88
5, 0, Control_c, 4, 10, 74
5, 0, Control_c, 4, 91, 89
5, 0, Note_on_c, 4, 45, 90
5, 96, Note_on_c, 4, 45, 0
5, 96, Note_on_c, 4, 40, 90
5, 192, Note_on_c, 4, 40, 0
5, 192, Note_on_c, 4, 45, 90
5, 288, Note_on_c, 4, 45, 0
5, 288, Note_on_c, 4, 40, 90
5, 384, Note_on_c, 4, 40, 0
5, 384, Note_on_c, 4, 45, 90
5, 432, Note_on_c, 4, 45, 0
5, 432, Note_on_c, 4, 40, 90
5, 576, Note_on_c, 4, 40, 0
5, 576, Note_on_c, 4, 33, 90
5, 672, Note_on_c, 4, 33, 0
5, 672, Note_on_c, 4, 36, 90
5, 720, Note_on_c, 4, 36, 0
5, 720, Note_on_c, 4, 40, 90
5, 768, Note_on_c, 4, 40, 0
5, 768, Note_on_c, 4, 45, 90
5, 864, Note_on_c, 4, 45, 0
5, 864, Note_on_c, 4, 40, 90
5, 960, Note_on_c, 4, 40, 0
5, 960, Note_on_c, 4, 45, 90
5, 1056, Note_on_c, 4, 45, 0
5, 1056, Note_on_c, 4, 40, 90
5, 1152, Note_on_c, 4, 40, 0
5, 1152, Note_on_c, 4, 45, 90
5, 1200, Note_on_c, 4, 45, 0
5, 1200, Note_on_c, 4, 40, 90
5, 1344, Note_on_c, 4, 40, 0
5, 1344, Note_on_c, 4, 33, 90
5, 1344, Note_on_c, 4, 35, 90
5, 1392, Note_on_c, 4, 35, 0
5, 1440, Note_on_c, 4, 33, 0
5, 1440, Note_on_c, 4, 36, 90
5, 1440, Note_on_c, 4, 35, 90
5, 1488, Note_on_c, 4, 35, 0
5, 1488, Note_on_c, 4, 36, 0
5, 1488, Note_on_c, 4, 40, 90
5, 1536, Note_on_c, 4, 40, 0
5, 1536, Note_on_c, 4, 48, 90
5, 1680, Note_on_c, 4, 48, 0
5, 1728, Note_on_c, 4, 48, 90
5, 1776, Note_on_c, 4, 48, 0
5, 1776, Note_on_c, 4, 47, 90
5, 1824, Note_on_c, 4, 47, 0
5, 1824, Note_on_c, 4, 45, 90
5, 2064, Note_on_c, 4, 45, 0
5, 2112, Note_on_c, 4, 45, 90
5, 2160, Note_on_c, 4, 45, 0
5, 2160, Note_on_c, 4, 47, 90
5, 2304, Note_on_c, 4, 47, 0
5, 2304, Note_on_c, 4, 43, 90
5, 2976, Note_on_c, 4, 43, 0
5, 2976, Note_on_c, 4, 43, 90
5, 3024, Note_on_c, 4, 43, 0
5, 3072, Note_on_c, 4, 55, 127
5, 3168, Note_on_c, 4, 55, 0
5, 3168, Note_on_c, 4, 59, 127
5, 3264, Note_on_c, 4, 59, 0
5, 3264, Note_on_c, 4, 62, 127
5, 3456, Note_on_c, 4, 62, 0
5, 3456, Note_on_c, 4, 57, 127
5, 3552, Note_on_c, 4, 57, 0
5, 3552, Note_on_c, 4, 61, 127
5, 3648, Note_on_c, 4, 61, 0
5, 3648, Note_on_c, 4, 64, 127
5, 3840, Note_on_c, 4, 64, 0
5, 3840, Note_on_c, 4, 60, 127
5, 3936, Note_on_c, 4, 60, 0
5, 3936, Note_on_c, 4, 64, 127
5, 4032, Note_on_c, 4, 64, 0
5, 4032, Note_on_c, 4, 67, 127
5, 4224, Note_on_c, 4, 67, 0
5, 4224, Note_on_c, 4, 55, 127
5, 4320, Note_on_c, 4, 55, 0
5, 4320, Note_on_c, 4, 59, 127
5, 4416, Note_on_c, 4, 59, 0
5, 4416, Note_on_c, 4, 62, 127
5, 4608, Note_on_c, 4, 62, 0
5, 4608, Note_on_c, 4, 55, 127
5, 4704, Note_on_c, 4, 55, 0
5, 4704, Note_on_c, 4, 59, 127
5, 4800, Note_on_c, 4, 59, 0
5, 4800, Note_on_c, 4, 62, 127
5, 4992, Note_on_c, 4, 62, 0
5, 4992, Note_on_c, 4, 57, 127
5, 5088, Note_on_c, 4, 57, 0
5, 5088, Note_on_c, 4, 61, 127
5, 5184, Note_on_c, 4, 61, 0
5, 5184, Note_on_c, 4, 64, 127
5, 5376, Note_on_c, 4, 64, 0
5, 5376, Note_on_c, 4, 60, 127
5, 5472, Note_on_c, 4, 60, 0
5, 5472, Note_on_c, 4, 64, 127
5, 5568, Note_on_c, 4, 64, 0
5, 5568, Note_on_c, 4, 67, 127
5, 5760, Note_on_c, 4, 67, 0
5, 5760, Note_on_c, 4, 55, 127
5, 5856, Note_on_c, 4, 55, 0
5, 5856, Note_on_c, 4, 59, 127
5, 5952, Note_on_c, 4, 59, 0
5, 5952, Note_on_c, 4, 62, 127
5, 6144, Note_on_c, 4, 62, 0
5, 6144, Note_on_c, 4, 57, 127
5, 6240, Note_on_c, 4, 57, 0
5, 6240, Note_on_c, 4, 61, 127
5, 6336, Note_on_c, 4, 61, 0
5, 6336, Note_on_c, 4, 64, 127
5, 6528, Note_on_c, 4, 64, 0
5, 6528, Note_on_c, 4, 57, 127
5, 6720, Note_on_c, 4, 57, 0
5, 6720, Note_on_c, 4, 64, 127
5, 6768, Note_on_c, 4, 64, 0
5, 6768, Note_on_c, 4, 61, 127
5, 6864, Note_on_c, 4, 57, 127
5, 6912, Note_on_c, 4, 57, 0
5, 6912, Note_on_c, 4, 61, 0
5, 6912, Note_on_c, 4, 60, 127
5, 7200, Note_on_c, 4, 60, 0
5, 7200, Note_on_c, 4, 64, 127
5, 7392, Note_on_c, 4, 64, 0
5, 7392, Note_on_c, 4, 67, 127
5, 7584, Note_on_c, 4, 64, 127
5, 7680, Note_on_c, 4, 64, 0
5, 7680, Note_on_c, 4, 67, 0
5, 7680, Note_on_c, 4, 55, 127
5, 7776, Note_on_c, 4, 55, 0
5, 7776, Note_on_c, 4, 59, 127
5, 7872, Note_on_c, 4, 59, 0
5, 7872, Note_on_c, 4, 62, 127
5, 8064, Note_on_c, 4, 62, 0
5, 8064, Note_on_c, 4, 60, 127
5, 8160, Note_on_c, 4, 60, 0
5, 8160, Note_on_c, 4, 64, 127
5, 8256, Note_on_c, 4, 64, 0
5, 8256, Note_on_c, 4, 67, 127
5, 8448, Note_on_c, 4, 67, 0
5, 8448, Note_on_c, 4, 55, 127
5, 8544, Note_on_c, 4, 55, 0
5, 8544, Note_on_c, 4, 59, 127
5, 8640, Note_on_c, 4, 59, 0
5, 8640, Note_on_c, 4, 62, 127
5, 8832, Note_on_c, 4, 62, 0
5, 8832, Note_on_c, 4, 59, 127
5, 9024, Note_on_c, 4, 59, 0
5, 9024, Note_on_c, 4, 55, 127
5, 9168, Note_on_c, 4, 55, 0
5, 26112, Note_on_c, 4, 55, 127
5, 26208, Note_on_c, 4, 55, 0
5, 26208, Note_on_c, 4, 59, 127
5, 26304, Note_on_c, 4, 59, 0
5, 26304, Note_on_c, 4, 62, 127
5, 26496, Note_on_c, 4, 62, 0
5, 26496, Note_on_c, 4, 57, 127
5, 26592, Note_on_c, 4, 57, 0
5, 26592, Note_on_c, 4, 61, 127
5, 26688, Note_on_c, 4, 61, 0
5, 26688, Note_on_c, 4, 64, 127
5, 26880, Note_on_c, 4, 64, 0
5, 26880, Note_on_c, 4, 60, 127
5, 26976, Note_on_c, 4, 60, 0
5, 26976, Note_on_c, 4, 64, 127
5, 27072, Note_on_c, 4, 64, 0
5, 27072, Note_on_c, 4, 67, 127
5, 27264, Note_on_c, 4, 67, 0
5, 27264, Note_on_c, 4, 55, 127
5, 27360, Note_on_c, 4, 55, 0
5, 27360, Note_on_c, 4, 59, 127
5, 27456, Note_on_c, 4, 59, 0
5, 27456, Note_on_c, 4, 62, 127
5, 27648, Note_on_c, 4, 62, 0
5, 27648, Note_on_c, 4, 55, 127
5, 27744, Note_on_c, 4, 55, 0
5, 27744, Note_on_c, 4, 59, 127
5, 27840, Note_on_c, 4, 59, 0
5, 27840, Note_on_c, 4, 62, 127
5, 28032, Note_on_c, 4, 62, 0
5, 28032, Note_on_c, 4, 57, 127
5, 28128, Note_on_c, 4, 57, 0
5, 28128, Note_on_c, 4, 61, 127
5, 28224, Note_on_c, 4, 61, 0
5, 28224, Note_on_c, 4, 64, 127
5, 28416, Note_on_c, 4, 64, 0
5, 28416, Note_on_c, 4, 60, 127
5, 28512, Note_on_c, 4, 60, 0
5, 28512, Note_on_c, 4, 64, 127
5, 28608, Note_on_c, 4, 64, 0
5, 28608, Note_on_c, 4, 67, 127
5, 28800, Note_on_c, 4, 67, 0
5, 28800, Note_on_c, 4, 55, 127
5, 28896, Note_on_c, 4, 55, 0
5, 28896, Note_on_c, 4, 59, 127
5, 28992, Note_on_c, 4, 59, 0
5, 28992, Note_on_c, 4, 62, 127
5, 29184, Note_on_c, 4, 62, 0
5, 29184, Note_on_c, 4, 57, 127
5, 29280, Note_on_c, 4, 57, 0
5, 29280, Note_on_c, 4, 61, 127
5, 29376, Note_on_c, 4, 61, 0
5, 29376, Note_on_c, 4, 64, 127
5, 29568, Note_on_c, 4, 64, 0
5, 29568, Note_on_c, 4, 57, 127
5, 29760, Note_on_c, 4, 57, 0
5, 29760, Note_on_c, 4, 64, 127
5, 29808, Note_on_c, 4, 64, 0
5, 29808, Note_on_c, 4, 61, 127
5, 29904, Note_on_c, 4, 57, 127
5, 29952, Note_on_c, 4, 57, 0
5, 29952, Note_on_c, 4, 61, 0
5, 29952, Note_on_c, 4, 60, 127
5, 30240, Note_on_c, 4, 60, 0
5, 30240, Note_on_c, 4, 64, 127
5, 30432, Note_on_c, 4, 64, 0
5, 30432, Note_on_c, 4, 67, 127
5, 30624, Note_on_c, 4, 64, 127
5, 30720, Note_on_c, 4, 64, 0
5, 30720, Note_on_c, 4, 67, 0
5, 30720, Note_on_c, 4, 55, 127
5, 30816, Note_on_c, 4, 55, 0
5, 30816, Note_on_c, 4, 59, 127
5, 30912, Note_on_c, 4, 59, 0
5, 30912, Note_on_c, 4, 62, 127
5, 31104, Note_on_c, 4, 62, 0
5, 31104, Note_on_c, 4, 60, 127
5, 31200, Note_on_c, 4, 60, 0
5, 31200, Note_on_c, 4, 64, 127
5, 31296, Note_on_c, 4, 64, 0
5, 31296, Note_on_c, 4, 67, 127
5, 31488, Note_on_c, 4, 67, 0
5, 31488, Note_on_c, 4, 55, 127
5, 31584, Note_on_c, 4, 55, 0
5, 31584, Note_on_c, 4, 59, 127
5, 31680, Note_on_c, 4, 59, 0
5, 31680, Note_on_c, 4, 62, 127
5, 31872, Note_on_c, 4, 62, 0
5, 31872, Note_on_c, 4, 59, 127
5, 32064, Note_on_c, 4, 59, 0
5, 32064, Note_on_c, 4, 55, 127
5, 32208, Note_on_c, 4, 55, 0
5, 32208, End_track
6, 0, Start_track
6, 0, MIDI_port, 0
6, 0, Title_t, "Guitar          "
6, 0, Program_c, 5, 30
6, 0, Control_c, 5, 7, 127
6, 0, Control_c, 5, 10, 64
6, 0, Control_c, 5, 91, 127
6, 384, Note_on_c, 5, 64, 90
6, 432, Note_on_c, 5, 64, 0
6, 432, Note_on_c, 5, 67, 90
6, 480, Note_on_c, 5, 67, 0
6, 480, Note_on_c, 5, 69, 90
6, 528, Note_on_c, 5, 69, 0
6, 528, Note_on_c, 5, 69, 90
6, 768, Note_on_c, 5, 69, 0
6, 1152, Note_on_c, 5, 64, 90
6, 1200, Note_on_c, 5, 64, 0
6, 1200, Note_on_c, 5, 67, 90
6, 1248, Note_on_c, 5, 67, 0
6, 1248, Note_on_c, 5, 69, 90
6, 1296, Note_on_c, 5, 69, 0
6, 1296, Note_on_c, 5, 69, 90
6, 1536, Note_on_c, 5, 69, 0
6, 1728, Note_on_c, 5, 64, 90
6, 1776, Note_on_c, 5, 64, 0
6, 1776, Note_on_c, 5, 67, 90
6, 1824, Note_on_c, 5, 67, 0
6, 1824, Note_on_c, 5, 69, 90
6, 1872, Note_on_c, 5, 69, 0
6, 1872, Note_on_c, 5, 72, 90
6, 2016, Note_on_c, 5, 72, 0
6, 2016, Note_on_c, 5, 74, 90
6, 2112, Note_on_c, 5, 74, 0
6, 2112, Note_on_c, 5, 72, 90
6, 2136, Note_on_c, 5, 69, 90
6, 2160, Note_on_c, 5, 69, 0
6, 2160, Note_on_c, 5, 72, 0
6, 2160, Note_on_c, 5, 67, 90
6, 2208, Note_on_c, 5, 67, 0
6, 2208, Note_on_c, 5, 69, 90
6, 2304, Note_on_c, 5, 69, 0
6, 2304, Note_on_c, 5, 62, 90
6, 2736, Note_on_c, 5, 62, 0
6, 2736, End_track
7, 0, Start_track
7, 0, MIDI_port, 0
7, 0, Title_t, "Trombones       "
7, 0, Program_c, 6, 57
7, 0, Control_c, 6, 7, 125
7, 0, Control_c, 6, 10, 78
7, 0, Control_c, 6, 91, 127
7, 9216, Note_on_c, 6, 60, 124
7, 9216, Note_on_c, 6, 64, 88
7, 9408, Note_on_c, 6, 70, 127
7, 9456, Note_on_c, 6, 70, 0
7, 9504, Note_on_c, 6, 69, 127
7, 9552, Note_on_c, 6, 69, 0
7, 9600, Note_on_c, 6, 67, 127
7, 9648, Note_on_c, 6, 67, 0
7, 9696, Note_on_c, 6, 64, 127
7, 9744, Note_on_c, 6, 64, 0
7, 9792, Note_on_c, 6, 64, 0
7, 9792, Note_on_c, 6, 60, 127
7, 9840, Note_on_c, 6, 60, 0
7, 9840, Note_on_c, 6, 60, 0
7, 9888, Note_on_c, 6, 58, 127
7, 9888, Note_on_c, 6, 64, 124
7, 9936, Note_on_c, 6, 64, 0
7, 9936, Note_on_c, 6, 58, 0
7, 9984, Note_on_c, 6, 57, 127
7, 9984, Note_on_c, 6, 65, 124
7, 10032, Note_on_c, 6, 65, 0
7, 10032, Note_on_c, 6, 57, 0
7, 10080, Note_on_c, 6, 60, 127
7, 10080, Note_on_c, 6, 60, 124
7, 10128, Note_on_c, 6, 60, 0
7, 10128, Note_on_c, 6, 60, 0
7, 10176, Note_on_c, 6, 65, 127
7, 10176, Note_on_c, 6, 57, 124
7, 10224, Note_on_c, 6, 57, 0
7, 10272, Note_on_c, 6, 58, 124
7, 10320, Note_on_c, 6, 58, 0
7, 10320, Note_on_c, 6, 65, 0
7, 10368, Note_on_c, 6, 65, 127
7, 10368, Note_on_c, 6, 60, 124
7, 10416, Note_on_c, 6, 60, 0
7, 10464, Note_on_c, 6, 57, 124
7, 10512, Note_on_c, 6, 57, 0
7, 10560, Note_on_c, 6, 53, 124
7, 10608, Note_on_c, 6, 53, 0
7, 10656, Note_on_c, 6, 65, 0
7, 10656, Note_on_c, 6, 57, 124
7, 10704, Note_on_c, 6, 57, 0
7, 10752, Note_on_c, 6, 55, 124
7, 10752, Note_on_c, 6, 60, 88
7, 10944, Note_on_c, 6, 72, 127
7, 10992, Note_on_c, 6, 72, 0
7, 11040, Note_on_c, 6, 60, 0
7, 11040, Note_on_c, 6, 70, 127
7, 11088, Note_on_c, 6, 70, 0
7, 11088, Note_on_c, 6, 55, 0
7, 11136, Note_on_c, 6, 69, 127
7, 11136, Note_on_c, 6, 60, 124
7, 11184, Note_on_c, 6, 69, 0
7, 11232, Note_on_c, 6, 67, 127
7, 11280, Note_on_c, 6, 67, 0
7, 11328, Note_on_c, 6, 65, 127
7, 11376, Note_on_c, 6, 65, 0
7, 11424, Note_on_c, 6, 64, 127
7, 11472, Note_on_c, 6, 64, 0
7, 11472, Note_on_c, 6, 60, 0
7, 11520, Note_on_c, 6, 62, 127
7, 11520, Note_on_c, 6, 62, 124
7, 11552, Note_on_c, 6, 62, 0
7, 11568, Note_on_c, 6, 62, 0
7, 11568, Note_on_c, 6, 61, 124
7, 11600, Note_on_c, 6, 61, 0
7, 11616, Note_on_c, 6, 64, 127
7, 11616, Note_on_c, 6, 62, 124
7, 11648, Note_on_c, 6, 62, 0
7, 11664, Note_on_c, 6, 64, 0
7, 11664, Note_on_c, 6, 64, 124
7, 11696, Note_on_c, 6, 64, 0
7, 11712, Note_on_c, 6, 66, 127
7, 11712, Note_on_c, 6, 66, 124
7, 11744, Note_on_c, 6, 66, 0
7, 11760, Note_on_c, 6, 66, 0
7, 11760, Note_on_c, 6, 64, 124
7, 11792, Note_on_c, 6, 64, 0
7, 11808, Note_on_c, 6, 69, 127
7, 11808, Note_on_c, 6, 66, 124
7, 11840, Note_on_c, 6, 66, 0
7, 11856, Note_on_c, 6, 69, 0
7, 11856, Note_on_c, 6, 69, 124
7, 11888, Note_on_c, 6, 69, 0
7, 11904, Note_on_c, 6, 72, 127
7, 11904, Note_on_c, 6, 72, 124
7, 12016, Note_on_c, 6, 72, 0
7, 12096, Note_on_c, 6, 72, 0
7, 12288, Note_on_c, 6, 62, 127
7, 12328, Note_on_c, 6, 62, 0
7, 12336, Note_on_c, 6, 61, 127
7, 12376, Note_on_c, 6, 61, 0
7, 12384, Note_on_c, 6, 62, 127
7, 12424, Note_on_c, 6, 62, 0
7, 12432, Note_on_c, 6, 64, 127
7, 12472, Note_on_c, 6, 64, 0
7, 12480, Note_on_c, 6, 66, 127
7, 12504, Note_on_c, 6, 66, 0
7, 12528, Note_on_c, 6, 64, 127
7, 12552, Note_on_c, 6, 64, 0
7, 12576, Note_on_c, 6, 66, 127
7, 12600, Note_on_c, 6, 66, 0
7, 12624, Note_on_c, 6, 69, 127
7, 12648, Note_on_c, 6, 69, 0
7, 12672, Note_on_c, 6, 74, 127
7, 12864, Note_on_c, 6, 74, 0
7, 18528, Note_on_c, 6, 60, 127
7, 18576, Note_on_c, 6, 60, 0
7, 18624, Note_on_c, 6, 57, 127
7, 18672, Note_on_c, 6, 57, 0
7, 18720, Note_on_c, 6, 54, 127
7, 18768, Note_on_c, 6, 54, 0
7, 18816, Note_on_c, 6, 50, 127
7, 19152, Note_on_c, 6, 50, 0
7, 22272, Note_on_c, 6, 64, 105
7, 22272, Note_on_c, 6, 60, 105
7, 22272, Note_on_c, 6, 55, 105
7, 22944, Note_on_c, 6, 55, 0
7, 22944, Note_on_c, 6, 60, 0
7, 22944, Note_on_c, 6, 64, 0
7, 23040, Note_on_c, 6, 60, 105
7, 23040, Note_on_c, 6, 57, 105
7, 23040, Note_on_c, 6, 53, 105
7, 23040, Note_on_c, 6, 61, 105
7, 23040, Note_on_c, 6, 63, 96
7, 23088, Note_on_c, 6, 61, 0
7, 23712, Note_on_c, 6, 53, 0
7, 23712, Note_on_c, 6, 60, 0
7, 23712, Note_on_c, 6, 57, 0
7, 23760, Note_on_c, 6, 63, 0
7, 23808, Note_on_c, 6, 55, 105
7, 23808, Note_on_c, 6, 64, 105
7, 23808, Note_on_c, 6, 60, 105
7, 24528, Note_on_c, 6, 60, 0
7, 24528, Note_on_c, 6, 64, 0
7, 24528, Note_on_c, 6, 55, 0
7, 24576, Note_on_c, 6, 66, 105
7, 24576, Note_on_c, 6, 62, 96
7, 24624, Note_on_c, 6, 62, 0
7, 24624, Note_on_c, 6, 66, 0
7, 24672, Note_on_c, 6, 62, 105
7, 24672, Note_on_c, 6, 57, 96
7, 24720, Note_on_c, 6, 57, 0
7, 24720, Note_on_c, 6, 62, 0
7, 24768, Note_on_c, 6, 66, 105
7, 24768, Note_on_c, 6, 62, 96
7, 24816, Note_on_c, 6, 62, 0
7, 24816, Note_on_c, 6, 66, 0
7, 24864, Note_on_c, 6, 62, 105
7, 24864, Note_on_c, 6, 57, 96
7, 24912, Note_on_c, 6, 57, 0
7, 24912, Note_on_c, 6, 62, 0
7, 24960, Note_on_c, 6, 66, 105
7, 24960, Note_on_c, 6, 62, 96
7, 25008, Note_on_c, 6, 62, 0
7, 25008, Note_on_c, 6, 66, 0
7, 25056, Note_on_c, 6, 62, 105
7, 25056, Note_on_c, 6, 57, 96
7, 25104, Note_on_c, 6, 57, 0
7, 25104, Note_on_c, 6, 62, 0
7, 25152, Note_on_c, 6, 66, 105
7, 25152, Note_on_c, 6, 62, 96
7, 25200, Note_on_c, 6, 62, 0
7, 25200, Note_on_c, 6, 66, 0
7, 25248, Note_on_c, 6, 62, 105
7, 25248, Note_on_c, 6, 57, 96
7, 25296, Note_on_c, 6, 57, 0
7, 25296, Note_on_c, 6, 62, 0
7, 25344, Note_on_c, 6, 66, 105
7, 25344, Note_on_c, 6, 62, 96
7, 25392, Note_on_c, 6, 62, 0
7, 25392, Note_on_c, 6, 66, 0
7, 25440, Note_on_c, 6, 62, 105
7, 25440, Note_on_c, 6, 50, 96
7, 25488, Note_on_c, 6, 50, 0
7, 25488, Note_on_c, 6, 62, 0
7, 25536, Note_on_c, 6, 66, 105
7, 25536, Note_on_c, 6, 54, 96
7, 25584, Note_on_c, 6, 54, 0
7, 25584, Note_on_c, 6, 66, 0
7, 25632, Note_on_c, 6, 62, 105
7, 25632, Note_on_c, 6, 57, 96
7, 25680, Note_on_c, 6, 57, 0
7, 25680, Note_on_c, 6, 62, 0
7, 25728, Note_on_c, 6, 66, 105
7, 25728, Note_on_c, 6, 62, 96
7, 25920, Note_on_c, 6, 62, 0
7, 25920, Note_on_c, 6, 66, 0
7, 25920, End_track
8, 0, Start_track
8, 0, MIDI_port, 0
8, 0, Title_t, "Bass Drum       "
8, 0, Program_c, 9, 0
8, 0, Control_c, 9, 7, 107
8, 0, Control_c, 9, 10, 64
8, 0, Control_c, 9, 91, 64
8, 0, Note_on_c, 9, 36, 90
8, 96, Note_on_c, 9, 36, 0
8, 192, Note_on_c, 9, 36, 90
8, 288, Note_on_c, 9, 36, 0
8, 384, Note_on_c, 9, 36, 90
8, 432, Note_on_c, 9, 36, 0
8, 480, Note_on_c, 9, 36, 90
8, 528, Note_on_c, 9, 36, 0
8, 576, Note_on_c, 9, 36, 90
8, 672, Note_on_c, 9, 36, 0
8, 768, Note_on_c, 9, 36, 90
8, 864, Note_on_c, 9, 36, 0
8, 960, Note_on_c, 9, 36, 90
8, 1056, Note_on_c, 9, 36, 0
8, 1152, Note_on_c, 9, 36, 90
8, 1200, Note_on_c, 9, 36, 0
8, 1248, Note_on_c, 9, 36, 90
8, 1296, Note_on_c, 9, 36, 0
8, 1344, Note_on_c, 9, 36, 90
8, 1392, Note_on_c, 9, 36, 0
8, 1536, Note_on_c, 9, 36, 90
8, 1584, Note_on_c, 9, 36, 0
8, 1728, Note_on_c, 9, 36, 90
8, 1824, Note_on_c, 9, 36, 0
8, 1920, Note_on_c, 9, 36, 90
8, 1968, Note_on_c, 9, 36, 0
8, 2016, Note_on_c, 9, 36, 90
8, 2064, Note_on_c, 9, 36, 0
8, 2112, Note_on_c, 9, 36, 90
8, 2208, Note_on_c, 9, 36, 0
8, 2304, Note_on_c, 9, 36, 90
8, 2352, Note_on_c, 9, 36, 0
8, 2784, Note_on_c, 9, 36, 90
8, 2832, Note_on_c, 9, 36, 0
8, 2928, Note_on_c, 9, 36, 90
8, 2976, Note_on_c, 9, 36, 0
8, 2976, Note_on_c, 9, 36, 90
8, 3024, Note_on_c, 9, 36, 0
8, 3072, Note_on_c, 9, 36, 127
8, 3168, Note_on_c, 9, 36, 0
8, 3264, Note_on_c, 9, 36, 127
8, 3360, Note_on_c, 9, 36, 0
8, 3456, Note_on_c, 9, 36, 127
8, 3504, Note_on_c, 9, 36, 0
8, 3552, Note_on_c, 9, 36, 127
8, 3600, Note_on_c, 9, 36, 0
8, 3648, Note_on_c, 9, 36, 127
8, 3744, Note_on_c, 9, 36, 0
8, 3840, Note_on_c, 9, 36, 127
8, 3888, Note_on_c, 9, 36, 0
8, 4032, Note_on_c, 9, 36, 127
8, 4080, Note_on_c, 9, 36, 0
8, 4224, Note_on_c, 9, 36, 127
8, 4272, Note_on_c, 9, 36, 0
8, 4320, Note_on_c, 9, 36, 127
8, 4368, Note_on_c, 9, 36, 0
8, 4416, Note_on_c, 9, 36, 127
8, 4512, Note_on_c, 9, 36, 0
8, 4608, Note_on_c, 9, 36, 127
8, 4656, Note_on_c, 9, 36, 0
8, 4800, Note_on_c, 9, 36, 127
8, 4848, Note_on_c, 9, 36, 0
8, 4992, Note_on_c, 9, 36, 127
8, 5040, Note_on_c, 9, 36, 0
8, 5088, Note_on_c, 9, 36, 127
8, 5136, Note_on_c, 9, 36, 0
8, 5184, Note_on_c, 9, 36, 127
8, 5280, Note_on_c, 9, 36, 0
8, 5376, Note_on_c, 9, 36, 127
8, 5424, Note_on_c, 9, 36, 0
8, 5568, Note_on_c, 9, 36, 127
8, 5616, Note_on_c, 9, 36, 0
8, 5760, Note_on_c, 9, 36, 127
8, 5808, Note_on_c, 9, 36, 0
8, 5856, Note_on_c, 9, 36, 127
8, 5904, Note_on_c, 9, 36, 0
8, 5952, Note_on_c, 9, 36, 127
8, 6000, Note_on_c, 9, 36, 0
8, 6048, Note_on_c, 9, 36, 127
8, 6096, Note_on_c, 9, 36, 0
8, 6144, Note_on_c, 9, 36, 127
8, 6192, Note_on_c, 9, 36, 0
8, 6336, Note_on_c, 9, 36, 127
8, 6384, Note_on_c, 9, 36, 0
8, 6528, Note_on_c, 9, 36, 127
8, 6576, Note_on_c, 9, 36, 0
8, 6624, Note_on_c, 9, 36, 127
8, 6672, Note_on_c, 9, 36, 0
8, 6720, Note_on_c, 9, 36, 127
8, 6768, Note_on_c, 9, 36, 0
8, 6912, Note_on_c, 9, 36, 127
8, 6960, Note_on_c, 9, 36, 0
8, 7104, Note_on_c, 9, 36, 127
8, 7152, Note_on_c, 9, 36, 0
8, 7296, Note_on_c, 9, 36, 127
8, 7344, Note_on_c, 9, 36, 0
8, 7392, Note_on_c, 9, 36, 127
8, 7440, Note_on_c, 9, 36, 0
8, 7488, Note_on_c, 9, 36, 127
8, 7536, Note_on_c, 9, 36, 0
8, 7680, Note_on_c, 9, 36, 127
8, 7728, Note_on_c, 9, 36, 0
8, 7872, Note_on_c, 9, 36, 127
8, 7920, Note_on_c, 9, 36, 0
8, 8064, Note_on_c, 9, 36, 127
8, 8112, Note_on_c, 9, 36, 0
8, 8160, Note_on_c, 9, 36, 127
8, 8208, Note_on_c, 9, 36, 0
8, 8256, Note_on_c, 9, 36, 127
8, 8304, Note_on_c, 9, 36, 0
8, 8448, Note_on_c, 9, 36, 127
8, 8496, Note_on_c, 9, 36, 0
8, 8640, Note_on_c, 9, 36, 127
8, 8688, Note_on_c, 9, 36, 0
8, 8832, Note_on_c, 9, 36, 127
8, 8880, Note_on_c, 9, 36, 0
8, 8928, Note_on_c, 9, 36, 127
8, 8976, Note_on_c, 9, 36, 0
8, 9024, Note_on_c, 9, 36, 127
8, 9072, Note_on_c, 9, 36, 0
8, 9120, Note_on_c, 9, 36, 127
8, 9168, Note_on_c, 9, 36, 0
8, 9216, Note_on_c, 9, 36, 127
8, 9264, Note_on_c, 9, 36, 0
8, 9408, Note_on_c, 9, 36, 127
8, 9456, Note_on_c, 9, 36, 0
8, 9504, Note_on_c, 9, 36, 127
8, 9552, Note_on_c, 9, 36, 0
8, 9600, Note_on_c, 9, 36, 127
8, 9648, Note_on_c, 9, 36, 0
8, 9792, Note_on_c, 9, 36, 127
8, 9840, Note_on_c, 9, 36, 0
8, 9888, Note_on_c, 9, 36, 127
8, 9936, Note_on_c, 9, 36, 0
8, 9984, Note_on_c, 9, 36, 127
8, 10032, Note_on_c, 9, 36, 0
8, 10176, Note_on_c, 9, 36, 127
8, 10224, Note_on_c, 9, 36, 0
8, 10272, Note_on_c, 9, 36, 127
8, 10320, Note_on_c, 9, 36, 0
8, 10368, Note_on_c, 9, 36, 127
8, 10416, Note_on_c, 9, 36, 0
8, 10560, Note_on_c, 9, 36, 127
8, 10608, Note_on_c, 9, 36, 0
8, 10656, Note_on_c, 9, 36, 127
8, 10704, Note_on_c, 9, 36, 0
8, 10752, Note_on_c, 9, 36, 127
8, 10800, Note_on_c, 9, 36, 0
8, 10944, Note_on_c, 9, 36, 127
8, 10992, Note_on_c, 9, 36, 0
8, 11040, Note_on_c, 9, 36, 127
8, 11088, Note_on_c, 9, 36, 0
8, 11136, Note_on_c, 9, 36, 127
8, 11184, Note_on_c, 9, 36, 0
8, 11328, Note_on_c, 9, 36, 127
8, 11376, Note_on_c, 9, 36, 0
8, 11424, Note_on_c, 9, 36, 127
8, 11472, Note_on_c, 9, 36, 0
8, 11520, Note_on_c, 9, 36, 127
8, 11568, Note_on_c, 9, 36, 0
8, 11712, Note_on_c, 9, 36, 127
8, 11760, Note_on_c, 9, 36, 0
8, 11808, Note_on_c, 9, 36, 127
8, 11856, Note_on_c, 9, 36, 0
8, 11904, Note_on_c, 9, 36, 127
8, 11952, Note_on_c, 9, 36, 0
8, 12096, Note_on_c, 9, 36, 127
8, 12144, Note_on_c, 9, 36, 0
8, 12192, Note_on_c, 9, 36, 127
8, 12240, Note_on_c, 9, 36, 0
8, 12288, Note_on_c, 9, 36, 127
8, 12336, Note_on_c, 9, 36, 0
8, 12480, Note_on_c, 9, 36, 127
8, 12528, Note_on_c, 9, 36, 0
8, 12576, Note_on_c, 9, 36, 127
8, 12624, Note_on_c, 9, 36, 0
8, 12672, Note_on_c, 9, 36, 127
8, 12720, Note_on_c, 9, 36, 0
8, 13056, Note_on_c, 9, 36, 127
8, 13104, Note_on_c, 9, 36, 0
8, 13152, Note_on_c, 9, 36, 127
8, 13200, Note_on_c, 9, 36, 0
8, 13248, Note_on_c, 9, 36, 127
8, 13296, Note_on_c, 9, 36, 0
8, 13440, Note_on_c, 9, 36, 127
8, 13488, Note_on_c, 9, 36, 0
8, 13536, Note_on_c, 9, 36, 127
8, 13584, Note_on_c, 9, 36, 0
8, 13632, Note_on_c, 9, 36, 127
8, 13680, Note_on_c, 9, 36, 0
8, 13824, Note_on_c, 9, 36, 127
8, 13872, Note_on_c, 9, 36, 0
8, 13920, Note_on_c, 9, 36, 127
8, 13968, Note_on_c, 9, 36, 0
8, 14016, Note_on_c, 9, 36, 127
8, 14064, Note_on_c, 9, 36, 0
8, 14208, Note_on_c, 9, 36, 127
8, 14256, Note_on_c, 9, 36, 0
8, 14304, Note_on_c, 9, 36, 127
8, 14352, Note_on_c, 9, 36, 0
8, 14400, Note_on_c, 9, 36, 127
8, 14448, Note_on_c, 9, 36, 0
8, 14592, Note_on_c, 9, 36, 127
8, 14640, Note_on_c, 9, 36, 0
8, 14688, Note_on_c, 9, 36, 127
8, 14736, Note_on_c, 9, 36, 0
8, 14784, Note_on_c, 9, 36, 127
8, 14832, Note_on_c, 9, 36, 0
8, 14976, Note_on_c, 9, 36, 127
8, 15024, Note_on_c, 9, 36, 0
8, 15072, Note_on_c, 9, 36, 127
8, 15120, Note_on_c, 9, 36, 0
8, 15168, Note_on_c, 9, 36, 127
8, 15216, Note_on_c, 9, 36, 0
8, 15360, Note_on_c, 9, 36, 127
8, 15408, Note_on_c, 9, 36, 0
8, 15456, Note_on_c, 9, 36, 127
8, 15504, Note_on_c, 9, 36, 0
8, 15552, Note_on_c, 9, 36, 127
8, 15600, Note_on_c, 9, 36, 0
8, 15744, Note_on_c, 9, 36, 127
8, 15792, Note_on_c, 9, 36, 0
8, 15840, Note_on_c, 9, 36, 127
8, 15888, Note_on_c, 9, 36, 0
8, 15936, Note_on_c, 9, 36, 127
8, 15984, Note_on_c, 9, 36, 0
8, 16128, Note_on_c, 9, 36, 127
8, 16176, Note_on_c, 9, 36, 0
8, 16224, Note_on_c, 9, 36, 127
8, 16272, Note_on_c, 9, 36, 0
8, 16320, Note_on_c, 9, 36, 127
8, 16368, Note_on_c, 9, 36, 0
8, 16512, Note_on_c, 9, 36, 127
8, 16560, Note_on_c, 9, 36, 0
8, 16608, Note_on_c, 9, 36, 127
8, 16656, Note_on_c, 9, 36, 0
8, 16704, Note_on_c, 9, 36, 127
8, 16752, Note_on_c, 9, 36, 0
8, 16896, Note_on_c, 9, 36, 127
8, 16944, Note_on_c, 9, 36, 0
8, 16992, Note_on_c, 9, 36, 127
8, 17040, Note_on_c, 9, 36, 0
8, 17088, Note_on_c, 9, 36, 127
8, 17136, Note_on_c, 9, 36, 0
8, 17280, Note_on_c, 9, 36, 127
8, 17328, Note_on_c, 9, 36, 0
8, 17376, Note_on_c, 9, 36, 127
8, 17424, Note_on_c, 9, 36, 0
8, 17472, Note_on_c, 9, 36, 127
8, 17520, Note_on_c, 9, 36, 0
8, 17664, Note_on_c, 9, 36, 127
8, 17712, Note_on_c, 9, 36, 0
8, 17760, Note_on_c, 9, 36, 127
8, 17808, Note_on_c, 9, 36, 0
8, 17856, Note_on_c, 9, 36, 127
8, 17904, Note_on_c, 9, 36, 0
8, 18048, Note_on_c, 9, 36, 127
8, 18096, Note_on_c, 9, 36, 0
8, 18144, Note_on_c, 9, 36, 127
8, 18192, Note_on_c, 9, 36, 0
8, 18240, Note_on_c, 9, 36, 127
8, 18288, Note_on_c, 9, 36, 0
8, 18336, Note_on_c, 9, 36, 127
8, 18384, Note_on_c, 9, 36, 0
8, 18432, Note_on_c, 9, 36, 127
8, 18480, Note_on_c, 9, 36, 0
8, 19200, Note_on_c, 9, 36, 127
8, 19248, Note_on_c, 9, 36, 0
8, 19296, Note_on_c, 9, 36, 127
8, 19344, Note_on_c, 9, 36, 0
8, 19392, Note_on_c, 9, 36, 127
8, 19440, Note_on_c, 9, 36, 0
8, 19584, Note_on_c, 9, 36, 127
8, 19632, Note_on_c, 9, 36, 0
8, 19680, Note_on_c, 9, 36, 127
8, 19728, Note_on_c, 9, 36, 0
8, 19776, Note_on_c, 9, 36, 127
8, 19824, Note_on_c, 9, 36, 0
8, 19968, Note_on_c, 9, 36, 127
8, 20016, Note_on_c, 9, 36, 0
8, 20064, Note_on_c, 9, 36, 127
8, 20112, Note_on_c, 9, 36, 0
8, 20160, Note_on_c, 9, 36, 127
8, 20208, Note_on_c, 9, 36, 0
8, 20352, Note_on_c, 9, 36, 127
8, 20400, Note_on_c, 9, 36, 0
8, 20448, Note_on_c, 9, 36, 127
8, 20496, Note_on_c, 9, 36, 0
8, 20544, Note_on_c, 9, 36, 127
8, 20592, Note_on_c, 9, 36, 0
8, 20736, Note_on_c, 9, 36, 127
8, 20784, Note_on_c, 9, 36, 0
8, 20832, Note_on_c, 9, 36, 127
8, 20880, Note_on_c, 9, 36, 0
8, 20928, Note_on_c, 9, 36, 127
8, 20976, Note_on_c, 9, 36, 0
8, 21120, Note_on_c, 9, 36, 127
8, 21168, Note_on_c, 9, 36, 0
8, 21216, Note_on_c, 9, 36, 127
8, 21264, Note_on_c, 9, 36, 0
8, 21312, Note_on_c, 9, 36, 127
8, 21360, Note_on_c, 9, 36, 0
8, 21408, Note_on_c, 9, 36, 127
8, 21456, Note_on_c, 9, 36, 0
8, 21600, Note_on_c, 9, 36, 127
8, 21648, Note_on_c, 9, 36, 0
8, 21792, Note_on_c, 9, 36, 127
8, 21840, Note_on_c, 9, 36, 0
8, 21888, Note_on_c, 9, 36, 127
8, 21936, Note_on_c, 9, 36, 0
8, 21984, Note_on_c, 9, 36, 127
8, 22032, Note_on_c, 9, 36, 0
8, 22080, Note_on_c, 9, 36, 127
8, 22128, Note_on_c, 9, 36, 0
8, 22176, Note_on_c, 9, 36, 127
8, 22224, Note_on_c, 9, 36, 0
8, 22272, Note_on_c, 9, 36, 127
8, 22320, Note_on_c, 9, 36, 0
8, 22464, Note_on_c, 9, 36, 127
8, 22512, Note_on_c, 9, 36, 0
8, 22560, Note_on_c, 9, 36, 127
8, 22608, Note_on_c, 9, 36, 0
8, 22656, Note_on_c, 9, 36, 127
8, 22704, Note_on_c, 9, 36, 0
8, 22848, Note_on_c, 9, 36, 127
8, 22896, Note_on_c, 9, 36, 0
8, 22944, Note_on_c, 9, 36, 127
8, 22992, Note_on_c, 9, 36, 0
8, 23040, Note_on_c, 9, 36, 127
8, 23088, Note_on_c, 9, 36, 0
8, 23232, Note_on_c, 9, 36, 127
8, 23280, Note_on_c, 9, 36, 0
8, 23328, Note_on_c, 9, 36, 127
8, 23376, Note_on_c, 9, 36, 0
8, 23424, Note_on_c, 9, 36, 127
8, 23472, Note_on_c, 9, 36, 0
8, 23616, Note_on_c, 9, 36, 127
8, 23664, Note_on_c, 9, 36, 0
8, 23712, Note_on_c, 9, 36, 127
8, 23760, Note_on_c, 9, 36, 0
8, 23808, Note_on_c, 9, 36, 127
8, 23856, Note_on_c, 9, 36, 0
8, 24000, Note_on_c, 9, 36, 127
8, 24048, Note_on_c, 9, 36, 0
8, 24096, Note_on_c, 9, 36, 127
8, 24144, Note_on_c, 9, 36, 0
8, 24192, Note_on_c, 9, 36, 127
8, 24240, Note_on_c, 9, 36, 0
8, 24384, Note_on_c, 9, 36, 127
8, 24432, Note_on_c, 9, 36, 0
8, 24480, Note_on_c, 9, 36, 127
8, 24528, Note_on_c, 9, 36, 0
8, 24576, Note_on_c, 9, 36, 127
8, 24624, Note_on_c, 9, 36, 0
8, 24768, Note_on_c, 9, 36, 127
8, 24816, Note_on_c, 9, 36, 0
8, 24864, Note_on_c, 9, 36, 127
8, 24912, Note_on_c, 9, 36, 0
8, 24960, Note_on_c, 9, 36, 127
8, 25008, Note_on_c, 9, 36, 0
8, 25152, Note_on_c, 9, 36, 127
8, 25200, Note_on_c, 9, 36, 0
8, 25248, Note_on_c, 9, 36, 127
8, 25296, Note_on_c, 9, 36, 0
8, 25344, Note_on_c, 9, 36, 127
8, 25392, Note_on_c, 9, 36, 0
8, 25536, Note_on_c, 9, 36, 127
8, 25584, Note_on_c, 9, 36, 0
8, 25632, Note_on_c, 9, 36, 127
8, 25680, Note_on_c, 9, 36, 0
8, 25728, Note_on_c, 9, 36, 127
8, 25776, Note_on_c, 9, 36, 0
8, 26112, Note_on_c, 9, 36, 127
8, 26208, Note_on_c, 9, 36, 0
8, 26304, Note_on_c, 9, 36, 127
8, 26400, Note_on_c, 9, 36, 0
8, 26496, Note_on_c, 9, 36, 127
8, 26544, Note_on_c, 9, 36, 0
8, 26592, Note_on_c, 9, 36, 127
8, 26640, Note_on_c, 9, 36, 0
8, 26688, Note_on_c, 9, 36, 127
8, 26784, Note_on_c, 9, 36, 0
8, 26880, Note_on_c, 9, 36, 127
8, 26928, Note_on_c, 9, 36, 0
8, 27072, Note_on_c, 9, 36, 127
8, 27120, Note_on_c, 9, 36, 0
8, 27264, Note_on_c, 9, 36, 127
8, 27312, Note_on_c, 9, 36, 0
8, 27360, Note_on_c, 9, 36, 127
8, 27408, Note_on_c, 9, 36, 0
8, 27456, Note_on_c, 9, 36, 127
8, 27552, Note_on_c, 9, 36, 0
8, 27648, Note_on_c, 9, 36, 127
8, 27696, Note_on_c, 9, 36, 0
8, 27840, Note_on_c, 9, 36, 127
8, 27888, Note_on_c, 9, 36, 0
8, 28032, Note_on_c, 9, 36, 127
8, 28080, Note_on_c, 9, 36, 0
8, 28128, Note_on_c, 9, 36, 127
8, 28176, Note_on_c, 9, 36, 0
8, 28224, Note_on_c, 9, 36, 127
8, 28320, Note_on_c, 9, 36, 0
8, 28416, Note_on_c, 9, 36, 127
8, 28464, Note_on_c, 9, 36, 0
8, 28608, Note_on_c, 9, 36, 127
8, 28656, Note_on_c, 9, 36, 0
8, 28800, Note_on_c, 9, 36, 127
8, 28848, Note_on_c, 9, 36, 0
8, 28896, Note_on_c, 9, 36, 127
8, 28944, Note_on_c, 9, 36, 0
8, 28992, Note_on_c, 9, 36, 127
8, 29040, Note_on_c, 9, 36, 0
8, 29088, Note_on_c, 9, 36, 127
8, 29136, Note_on_c, 9, 36, 0
8, 29184, Note_on_c, 9, 36, 127
8, 29232, Note_on_c, 9, 36, 0
8, 29376, Note_on_c, 9, 36, 127
8, 29424, Note_on_c, 9, 36, 0
8, 29568, Note_on_c, 9, 36, 127
8, 29616, Note_on_c, 9, 36, 0
8, 29664, Note_on_c, 9, 36, 127
8, 29712, Note_on_c, 9, 36, 0
8, 29760, Note_on_c, 9, 36, 127
8, 29808, Note_on_c, 9, 36, 0
8, 29952, Note_on_c, 9, 36, 127
8, 30000, Note_on_c, 9, 36, 0
8, 30144, Note_on_c, 9, 36, 127
8, 30192, Note_on_c, 9, 36, 0
8, 30336, Note_on_c, 9, 36, 127
8, 30384, Note_on_c, 9, 36, 0
8, 30432, Note_on_c, 9, 36, 127
8, 30480, Note_on_c, 9, 36, 0
8, 30528, Note_on_c, 9, 36, 127
8, 30576, Note_on_c, 9, 36, 0
8, 30720, Note_on_c, 9, 36, 127
8, 30768, Note_on_c, 9, 36, 0
8, 30912, Note_on_c, 9, 36, 127
8, 30960, Note_on_c, 9, 36, 0
8, 31104, Note_on_c, 9, 36, 127
8, 31152, Note_on_c, 9, 36, 0
8, 31200, Note_on_c, 9, 36, 127
8, 31248, Note_on_c, 9, 36, 0
8, 31296, Note_on_c, 9, 36, 127
8, 31344, Note_on_c, 9, 36, 0
8, 31488, Note_on_c, 9, 36, 127
8, 31536, Note_on_c, 9, 36, 0
8, 31680, Note_on_c, 9, 36, 127
8, 31728, Note_on_c, 9, 36, 0
8, 31872, Note_on_c, 9, 36, 127
8, 31920, Note_on_c, 9, 36, 0
8, 31968, Note_on_c, 9, 36, 127
8, 32016, Note_on_c, 9, 36, 0
8, 32064, Note_on_c, 9, 36, 127
8, 32112, Note_on_c, 9, 36, 0
8, 32160, Note_on_c, 9, 36, 127
8, 32208, Note_on_c, 9, 36, 0
8, 32256, Note_on_c, 9, 36, 127
8, 32352, Note_on_c, 9, 36, 0
8, 32448, Note_on_c, 9, 36, 127
8, 32496, Note_on_c, 9, 36, 0
8, 32544, Note_on_c, 9, 36, 127
8, 32592, Note_on_c, 9, 36, 0
8, 32640, Note_on_c, 9, 36, 127
8, 32736, Note_on_c, 9, 36, 0
8, 32832, Note_on_c, 9, 36, 127
8, 32928, Note_on_c, 9, 36, 0
8, 33024, Note_on_c, 9, 36, 127
8, 33072, Note_on_c, 9, 36, 0
8, 33216, Note_on_c, 9, 36, 127
8, 33264, Note_on_c, 9, 36, 0
8, 33312, Note_on_c, 9, 36, 127
8, 33360, Note_on_c, 9, 36, 0
8, 33408, Note_on_c, 9, 36, 127
8, 33456, Note_on_c, 9, 36, 0
8, 33600, Note_on_c, 9, 36, 127
8, 33648, Note_on_c, 9, 36, 0
8, 33792, Note_on_c, 9, 36, 127
8, 33840, Note_on_c, 9, 36, 0
8, 33984, Note_on_c, 9, 36, 127
8, 34032, Note_on_c, 9, 36, 0
8, 34176, Note_on_c, 9, 36, 127
8, 34224, Note_on_c, 9, 36, 0
8, 34368, Note_on_c, 9, 36, 127
8, 34416, Note_on_c, 9, 36, 0
8, 34560, Note_on_c, 9, 36, 127
8, 34656, Note_on_c, 9, 36, 0
8, 34752, Note_on_c, 9, 36, 127
8, 34848, Note_on_c, 9, 36, 0
8, 34944, Note_on_c, 9, 36, 127
8, 35040, Note_on_c, 9, 36, 0
8, 35136, Note_on_c, 9, 36, 127
8, 35232, Note_on_c, 9, 36, 0
8, 35328, Note_on_c, 9, 36, 127
8, 35520, Note_on_c, 9, 36, 0
8, 35520, End_track
9, 0, Start_track
9, 0, MIDI_port, 0
9, 0, Title_t, "Snare Drum      "
9, 0, Control_c, 9, 7, 127
9, 0, Control_c, 9, 10, 64
9, 0, Control_c, 9, 91, 64
9, 192, Note_on_c, 9, 38, 90
9, 240, Note_on_c, 9, 38, 0
9, 576, Note_on_c, 9, 38, 90
9, 624, Note_on_c, 9, 38, 0
9, 960, Note_on_c, 9, 38, 90
9, 1008, Note_on_c, 9, 38, 0
9, 1344, Note_on_c, 9, 38, 90
9, 1392, Note_on_c, 9, 38, 0
9, 1728, Note_on_c, 9, 38, 90
9, 1776, Note_on_c, 9, 38, 0
9, 2112, Note_on_c, 9, 38, 90
9, 2160, Note_on_c, 9, 38, 0
9, 2400, Note_on_c, 9, 38, 90
9, 2448, Note_on_c, 9, 38, 0
9, 2496, Note_on_c, 9, 38, 90
9, 2544, Note_on_c, 9, 38, 0
9, 3264, Note_on_c, 9, 38, 127
9, 3312, Note_on_c, 9, 38, 0
9, 3648, Note_on_c, 9, 38, 127
9, 3696, Note_on_c, 9, 38, 0
9, 4032, Note_on_c, 9, 38, 127
9, 4080, Note_on_c, 9, 38, 0
9, 4416, Note_on_c, 9, 38, 127
9, 4464, Note_on_c, 9, 38, 0
9, 4800, Note_on_c, 9, 38, 127
9, 4848, Note_on_c, 9, 38, 0
9, 5184, Note_on_c, 9, 38, 127
9, 5232, Note_on_c, 9, 38, 0
9, 5568, Note_on_c, 9, 38, 127
9, 5616, Note_on_c, 9, 38, 0
9, 6336, Note_on_c, 9, 38, 127
9, 6384, Note_on_c, 9, 38, 0
9, 6720, Note_on_c, 9, 38, 127
9, 6768, Note_on_c, 9, 38, 0
9, 7104, Note_on_c, 9, 38, 127
9, 7152, Note_on_c, 9, 38, 0
9, 7872, Note_on_c, 9, 38, 127
9, 7920, Note_on_c, 9, 38, 0
9, 8256, Note_on_c, 9, 38, 127
9, 8304, Note_on_c, 9, 38, 0
9, 8640, Note_on_c, 9, 38, 127
9, 8688, Note_on_c, 9, 38, 0
9, 9024, Note_on_c, 9, 38, 127
9, 9072, Note_on_c, 9, 38, 0
9, 9408, Note_on_c, 9, 38, 127
9, 9456, Note_on_c, 9, 38, 0
9, 9792, Note_on_c, 9, 38, 127
9, 9840, Note_on_c, 9, 38, 0
9, 10176, Note_on_c, 9, 38, 127
9, 10224, Note_on_c, 9, 38, 0
9, 10560, Note_on_c, 9, 38, 127
9, 10608, Note_on_c, 9, 38, 0
9, 10944, Note_on_c, 9, 38, 127
9, 10992, Note_on_c, 9, 38, 0
9, 11328, Note_on_c, 9, 38, 127
9, 11376, Note_on_c, 9, 38, 0
9, 11712, Note_on_c, 9, 38, 127
9, 11760, Note_on_c, 9, 38, 0
9, 12096, Note_on_c, 9, 38, 127
9, 12144, Note_on_c, 9, 38, 0
9, 12480, Note_on_c, 9, 38, 127
9, 12528, Note_on_c, 9, 38, 0
9, 13248, Note_on_c, 9, 38, 127
9, 13296, Note_on_c, 9, 38, 0
9, 13632, Note_on_c, 9, 38, 127
9, 13680, Note_on_c, 9, 38, 0
9, 14016, Note_on_c, 9, 38, 127
9, 14064, Note_on_c, 9, 38, 0
9, 14400, Note_on_c, 9, 38, 127
9, 14448, Note_on_c, 9, 38, 0
9, 14784, Note_on_c, 9, 38, 127
9, 14832, Note_on_c, 9, 38, 0
9, 15168, Note_on_c, 9, 38, 127
9, 15216, Note_on_c, 9, 38, 0
9, 15552, Note_on_c, 9, 38, 127
9, 15600, Note_on_c, 9, 38, 0
9, 15936, Note_on_c, 9, 38, 127
9, 15984, Note_on_c, 9, 38, 0
9, 16320, Note_on_c, 9, 38, 127
9, 16368, Note_on_c, 9, 38, 0
9, 16704, Note_on_c, 9, 38, 127
9, 16752, Note_on_c, 9, 38, 0
9, 17088, Note_on_c, 9, 38, 127
9, 17136, Note_on_c, 9, 38, 0
9, 17472, Note_on_c, 9, 38, 127
9, 17520, Note_on_c, 9, 38, 0
9, 17856, Note_on_c, 9, 38, 127
9, 17904, Note_on_c, 9, 38, 0
9, 18240, Note_on_c, 9, 38, 127
9, 18288, Note_on_c, 9, 38, 0
9, 19392, Note_on_c, 9, 38, 127
9, 19440, Note_on_c, 9, 38, 0
9, 19776, Note_on_c, 9, 38, 127
9, 19824, Note_on_c, 9, 38, 0
9, 20160, Note_on_c, 9, 38, 127
9, 20208, Note_on_c, 9, 38, 0
9, 20544, Note_on_c, 9, 38, 127
9, 20592, Note_on_c, 9, 38, 0
9, 20928, Note_on_c, 9, 38, 127
9, 20976, Note_on_c, 9, 38, 0
9, 21312, Note_on_c, 9, 38, 127
9, 21360, Note_on_c, 9, 38, 0
9, 21600, Note_on_c, 9, 38, 127
9, 21648, Note_on_c, 9, 38, 0
9, 21792, Note_on_c, 9, 38, 127
9, 21840, Note_on_c, 9, 38, 0
9, 21984, Note_on_c, 9, 38, 127
9, 22032, Note_on_c, 9, 38, 0
9, 22080, Note_on_c, 9, 38, 127
9, 22128, Note_on_c, 9, 38, 0
9, 22464, Note_on_c, 9, 38, 127
9, 22512, Note_on_c, 9, 38, 0
9, 22848, Note_on_c, 9, 38, 127
9, 22896, Note_on_c, 9, 38, 0
9, 23232, Note_on_c, 9, 38, 127
9, 23280, Note_on_c, 9, 38, 0
9, 23616, Note_on_c, 9, 38, 127
9, 23664, Note_on_c, 9, 38, 0
9, 24000, Note_on_c, 9, 38, 127
9, 24048, Note_on_c, 9, 38, 0
9, 24384, Note_on_c, 9, 38, 127
9, 24432, Note_on_c, 9, 38, 0
9, 24768, Note_on_c, 9, 38, 127
9, 24816, Note_on_c, 9, 38, 0
9, 25152, Note_on_c, 9, 38, 127
9, 25200, Note_on_c, 9, 38, 0
9, 25536, Note_on_c, 9, 38, 127
9, 25584, Note_on_c, 9, 38, 0
9, 26304, Note_on_c, 9, 38, 127
9, 26352, Note_on_c, 9, 38, 0
9, 26688, Note_on_c, 9, 38, 127
9, 26736, Note_on_c, 9, 38, 0
9, 27072, Note_on_c, 9, 38, 127
9, 27120, Note_on_c, 9, 38, 0
9, 27456, Note_on_c, 9, 38, 127
9, 27504, Note_on_c, 9, 38, 0
9, 27840, Note_on_c, 9, 38, 127
9, 27888, Note_on_c, 9, 38, 0
9, 28224, Note_on_c, 9, 38, 127
9, 28272, Note_on_c, 9, 38, 0
9, 28608, Note_on_c, 9, 38, 127
9, 28656, Note_on_c, 9, 38, 0
9, 29376, Note_on_c, 9, 38, 127
9, 29424, Note_on_c, 9, 38, 0
9, 29760, Note_on_c, 9, 38, 127
9, 29808, Note_on_c, 9, 38, 0
9, 30144, Note_on_c, 9, 38, 127
9, 30192, Note_on_c, 9, 38, 0
9, 30912, Note_on_c, 9, 38, 127
9, 30960, Note_on_c, 9, 38, 0
9, 31296, Note_on_c, 9, 38, 127
9, 31344, Note_on_c, 9, 38, 0
9, 31680, Note_on_c, 9, 38, 127
9, 31728, Note_on_c, 9, 38, 0
9, 32064, Note_on_c, 9, 38, 127
9, 32112, Note_on_c, 9, 38, 0
9, 32448, Note_on_c, 9, 38, 127
9, 32496, Note_on_c, 9, 38, 0
9, 32832, Note_on_c, 9, 38, 127
9, 32880, Note_on_c, 9, 38, 0
9, 33216, Note_on_c, 9, 38, 127
9, 33264, Note_on_c, 9, 38, 0
9, 33600, Note_on_c, 9, 38, 127
9, 33648, Note_on_c, 9, 38, 0
9, 33792, Note_on_c, 9, 38, 127
9, 33840, Note_on_c, 9, 38, 0
9, 33984, Note_on_c, 9, 38, 127
9, 34032, Note_on_c, 9, 38, 0
9, 34176, Note_on_c, 9, 38, 127
9, 34224, Note_on_c, 9, 38, 0
9, 34368, Note_on_c, 9, 38, 127
9, 34416, Note_on_c, 9, 38, 0
9, 34560, Note_on_c, 9, 38, 127
9, 34608, Note_on_c, 9, 38, 0
9, 34752, Note_on_c, 9, 38, 127
9, 34800, Note_on_c, 9, 38, 0
9, 34944, Note_on_c, 9, 38, 127
9, 34992, Note_on_c, 9, 38, 0
9, 35136, Note_on_c, 9, 38, 127
9, 35184, Note_on_c, 9, 38, 0
9, 35328, Note_on_c, 9, 38, 127
9, 35424, Note_on_c, 9, 38, 0
9, 35424, End_track
10, 0, Start_track
10, 0, MIDI_port, 0
10, 0, Title_t, "Hihats          "
10, 0, Control_c, 9, 7, 127
10, 0, Control_c, 9, 10, 64
10, 0, Control_c, 9, 91, 64
10, 0, Note_on_c, 9, 42, 127
10, 48, Note_on_c, 9, 42, 0
10, 96, Note_on_c, 9, 42, 127
10, 144, Note_on_c, 9, 42, 0
10, 192, Note_on_c, 9, 42, 127
10, 240, Note_on_c, 9, 42, 0
10, 288, Note_on_c, 9, 42, 127
10, 336, Note_on_c, 9, 42, 0
10, 384, Note_on_c, 9, 42, 127
10, 432, Note_on_c, 9, 42, 0
10, 480, Note_on_c, 9, 42, 127
10, 528, Note_on_c, 9, 42, 0
10, 576, Note_on_c, 9, 42, 127
10, 624, Note_on_c, 9, 42, 0
10, 672, Note_on_c, 9, 42, 127
10, 720, Note_on_c, 9, 42, 0
10, 768, Note_on_c, 9, 42, 127
10, 816, Note_on_c, 9, 42, 0
10, 864, Note_on_c, 9, 42, 127
10, 912, Note_on_c, 9, 42, 0
10, 960, Note_on_c, 9, 42, 127
10, 1008, Note_on_c, 9, 42, 0
10, 1056, Note_on_c, 9, 42, 127
10, 1104, Note_on_c, 9, 42, 0
10, 1152, Note_on_c, 9, 42, 127
10, 1200, Note_on_c, 9, 42, 0
10, 1248, Note_on_c, 9, 42, 127
10, 1296, Note_on_c, 9, 42, 0
10, 1344, Note_on_c, 9, 42, 127
10, 1392, Note_on_c, 9, 42, 0
10, 1440, Note_on_c, 9, 42, 127
10, 1488, Note_on_c, 9, 42, 0
10, 1536, Note_on_c, 9, 42, 127
10, 1584, Note_on_c, 9, 42, 0
10, 1632, Note_on_c, 9, 42, 127
10, 1680, Note_on_c, 9, 42, 0
10, 1728, Note_on_c, 9, 42, 127
10, 1776, Note_on_c, 9, 42, 0
10, 1824, Note_on_c, 9, 42, 127
10, 1872, Note_on_c, 9, 42, 0
10, 1920, Note_on_c, 9, 42, 127
10, 1968, Note_on_c, 9, 42, 0
10, 2016, Note_on_c, 9, 42, 127
10, 2064, Note_on_c, 9, 42, 0
10, 2112, Note_on_c, 9, 42, 127
10, 2160, Note_on_c, 9, 42, 0
10, 2208, Note_on_c, 9, 42, 127
10, 2256, Note_on_c, 9, 42, 0
10, 2304, Note_on_c, 9, 42, 127
10, 2352, Note_on_c, 9, 42, 0
10, 2400, Note_on_c, 9, 42, 127
10, 2448, Note_on_c, 9, 42, 0
10, 2496, Note_on_c, 9, 44, 127
10, 2544, Note_on_c, 9, 44, 0
10, 9216, Note_on_c, 9, 42, 127
10, 9264, Note_on_c, 9, 42, 0
10, 9312, Note_on_c, 9, 42, 127
10, 9360, Note_on_c, 9, 42, 0
10, 9408, Note_on_c, 9, 42, 127
10, 9456, Note_on_c, 9, 42, 0
10, 9504, Note_on_c, 9, 42, 127
10, 9552, Note_on_c, 9, 42, 0
10, 9600, Note_on_c, 9, 42, 127
10, 9648, Note_on_c, 9, 42, 0
10, 9696, Note_on_c, 9, 42, 127
10, 9744, Note_on_c, 9, 42, 0
10, 9792, Note_on_c, 9, 42, 127
10, 9840, Note_on_c, 9, 42, 0
10, 9888, Note_on_c, 9, 42, 127
10, 9936, Note_on_c, 9, 42, 0
10, 9984, Note_on_c, 9, 42, 127
10, 10032, Note_on_c, 9, 42, 0
10, 10080, Note_on_c, 9, 42, 127
10, 10128, Note_on_c, 9, 42, 0
10, 10176, Note_on_c, 9, 42, 127
10, 10224, Note_on_c, 9, 42, 0
10, 10272, Note_on_c, 9, 42, 127
10, 10320, Note_on_c, 9, 42, 0
10, 10368, Note_on_c, 9, 42, 127
10, 10416, Note_on_c, 9, 42, 0
10, 10464, Note_on_c, 9, 42, 127
10, 10512, Note_on_c, 9, 42, 0
10, 10560, Note_on_c, 9, 42, 127
10, 10608, Note_on_c, 9, 42, 0
10, 10656, Note_on_c, 9, 42, 127
10, 10704, Note_on_c, 9, 42, 0
10, 10752, Note_on_c, 9, 42, 127
10, 10800, Note_on_c, 9, 42, 0
10, 10848, Note_on_c, 9, 42, 127
10, 10896, Note_on_c, 9, 42, 0
10, 10944, Note_on_c, 9, 42, 127
10, 10992, Note_on_c, 9, 42, 0
10, 11040, Note_on_c, 9, 42, 127
10, 11088, Note_on_c, 9, 42, 0
10, 11136, Note_on_c, 9, 42, 127
10, 11184, Note_on_c, 9, 42, 0
10, 11232, Note_on_c, 9, 42, 127
10, 11280, Note_on_c, 9, 42, 0
10, 11328, Note_on_c, 9, 42, 127
10, 11376, Note_on_c, 9, 42, 0
10, 11424, Note_on_c, 9, 42, 127
10, 11472, Note_on_c, 9, 42, 0
10, 11520, Note_on_c, 9, 42, 127
10, 11568, Note_on_c, 9, 42, 0
10, 11616, Note_on_c, 9, 42, 127
10, 11664, Note_on_c, 9, 42, 0
10, 11712, Note_on_c, 9, 42, 127
10, 11760, Note_on_c, 9, 42, 0
10, 11808, Note_on_c, 9, 42, 127
10, 11856, Note_on_c, 9, 42, 0
10, 11904, Note_on_c, 9, 42, 127
10, 11952, Note_on_c, 9, 42, 0
10, 12000, Note_on_c, 9, 42, 127
10, 12048, Note_on_c, 9, 42, 0
10, 12096, Note_on_c, 9, 42, 127
10, 12144, Note_on_c, 9, 42, 0
10, 12192, Note_on_c, 9, 42, 127
10, 12240, Note_on_c, 9, 42, 0
10, 12288, Note_on_c, 9, 42, 127
10, 12336, Note_on_c, 9, 42, 0
10, 12384, Note_on_c, 9, 42, 127
10, 12432, Note_on_c, 9, 42, 0
10, 12480, Note_on_c, 9, 42, 127
10, 12528, Note_on_c, 9, 42, 0
10, 12576, Note_on_c, 9, 42, 127
10, 12624, Note_on_c, 9, 42, 0
10, 12672, Note_on_c, 9, 44, 127
10, 12816, Note_on_c, 9, 44, 0
10, 13056, Note_on_c, 9, 46, 127
10, 13152, Note_on_c, 9, 46, 0
10, 13248, Note_on_c, 9, 46, 127
10, 13344, Note_on_c, 9, 46, 0
10, 13440, Note_on_c, 9, 46, 127
10, 13536, Note_on_c, 9, 46, 0
10, 13632, Note_on_c, 9, 46, 127
10, 13728, Note_on_c, 9, 46, 0
10, 13824, Note_on_c, 9, 46, 127
10, 13920, Note_on_c, 9, 46, 0
10, 14016, Note_on_c, 9, 46, 127
10, 14112, Note_on_c, 9, 46, 0
10, 14208, Note_on_c, 9, 46, 127
10, 14304, Note_on_c, 9, 46, 0
10, 14400, Note_on_c, 9, 46, 127
10, 14496, Note_on_c, 9, 46, 0
10, 14592, Note_on_c, 9, 46, 127
10, 14688, Note_on_c, 9, 46, 0
10, 14784, Note_on_c, 9, 46, 127
10, 14880, Note_on_c, 9, 46, 0
10, 14976, Note_on_c, 9, 46, 127
10, 15072, Note_on_c, 9, 46, 0
10, 15168, Note_on_c, 9, 46, 127
10, 15264, Note_on_c, 9, 46, 0
10, 15360, Note_on_c, 9, 46, 127
10, 15456, Note_on_c, 9, 46, 0
10, 15552, Note_on_c, 9, 46, 127
10, 15648, Note_on_c, 9, 46, 0
10, 15744, Note_on_c, 9, 46, 127
10, 15840, Note_on_c, 9, 46, 0
10, 15936, Note_on_c, 9, 46, 127
10, 15984, Note_on_c, 9, 46, 0
10, 16032, Note_on_c, 9, 44, 127
10, 16080, Note_on_c, 9, 44, 0
10, 16128, Note_on_c, 9, 46, 127
10, 16224, Note_on_c, 9, 46, 0
10, 16320, Note_on_c, 9, 46, 127
10, 16464, Note_on_c, 9, 46, 0
10, 16512, Note_on_c, 9, 46, 127
10, 16608, Note_on_c, 9, 46, 0
10, 16704, Note_on_c, 9, 46, 127
10, 16752, Note_on_c, 9, 46, 0
10, 16896, Note_on_c, 9, 46, 127
10, 16992, Note_on_c, 9, 46, 0
10, 17088, Note_on_c, 9, 46, 127
10, 17184, Note_on_c, 9, 46, 0
10, 17280, Note_on_c, 9, 46, 127
10, 17376, Note_on_c, 9, 46, 0
10, 17472, Note_on_c, 9, 46, 127
10, 17568, Note_on_c, 9, 46, 0
10, 17664, Note_on_c, 9, 46, 127
10, 17760, Note_on_c, 9, 46, 0
10, 17856, Note_on_c, 9, 46, 127
10, 17952, Note_on_c, 9, 46, 0
10, 18048, Note_on_c, 9, 46, 127
10, 18144, Note_on_c, 9, 46, 0
10, 18240, Note_on_c, 9, 46, 127
10, 18336, Note_on_c, 9, 46, 0
10, 18432, Note_on_c, 9, 46, 127
10, 18480, Note_on_c, 9, 46, 0
10, 19200, Note_on_c, 9, 46, 127
10, 19296, Note_on_c, 9, 46, 0
10, 19392, Note_on_c, 9, 46, 127
10, 19488, Note_on_c, 9, 46, 0
10, 19584, Note_on_c, 9, 46, 127
10, 19680, Note_on_c, 9, 46, 0
10, 19776, Note_on_c, 9, 46, 127
10, 19872, Note_on_c, 9, 46, 0
10, 19968, Note_on_c, 9, 46, 127
10, 20064, Note_on_c, 9, 46, 0
10, 20160, Note_on_c, 9, 46, 127
10, 20256, Note_on_c, 9, 46, 0
10, 20352, Note_on_c, 9, 46, 127
10, 20448, Note_on_c, 9, 46, 0
10, 20544, Note_on_c, 9, 46, 127
10, 20640, Note_on_c, 9, 46, 0
10, 20736, Note_on_c, 9, 46, 127
10, 20832, Note_on_c, 9, 46, 0
10, 20928, Note_on_c, 9, 46, 127
10, 21024, Note_on_c, 9, 46, 0
10, 21120, Note_on_c, 9, 46, 127
10, 21216, Note_on_c, 9, 46, 0
10, 21312, Note_on_c, 9, 46, 127
10, 21360, Note_on_c, 9, 46, 0
10, 21408, Note_on_c, 9, 46, 127
10, 21504, Note_on_c, 9, 46, 0
10, 22272, Note_on_c, 9, 42, 127
10, 22320, Note_on_c, 9, 42, 0
10, 22368, Note_on_c, 9, 42, 127
10, 22416, Note_on_c, 9, 42, 0
10, 22464, Note_on_c, 9, 42, 127
10, 22512, Note_on_c, 9, 42, 0
10, 22560, Note_on_c, 9, 42, 127
10, 22608, Note_on_c, 9, 42, 0
10, 22656, Note_on_c, 9, 42, 127
10, 22704, Note_on_c, 9, 42, 0
10, 22752, Note_on_c, 9, 42, 127
10, 22800, Note_on_c, 9, 42, 0
10, 22848, Note_on_c, 9, 42, 127
10, 22896, Note_on_c, 9, 42, 0
10, 22944, Note_on_c, 9, 42, 127
10, 22992, Note_on_c, 9, 42, 0
10, 23040, Note_on_c, 9, 42, 127
10, 23088, Note_on_c, 9, 42, 0
10, 23136, Note_on_c, 9, 42, 127
10, 23184, Note_on_c, 9, 42, 0
10, 23232, Note_on_c, 9, 42, 127
10, 23280, Note_on_c, 9, 42, 0
10, 23328, Note_on_c, 9, 42, 127
10, 23376, Note_on_c, 9, 42, 0
10, 23424, Note_on_c, 9, 42, 127
10, 23472, Note_on_c, 9, 42, 0
10, 23520, Note_on_c, 9, 42, 127
10, 23568, Note_on_c, 9, 42, 0
10, 23616, Note_on_c, 9, 42, 127
10, 23664, Note_on_c, 9, 42, 0
10, 23712, Note_on_c, 9, 42, 127
10, 23760, Note_on_c, 9, 42, 0
10, 23808, Note_on_c, 9, 42, 127
10, 23856, Note_on_c, 9, 42, 0
10, 23904, Note_on_c, 9, 42, 127
10, 23952, Note_on_c, 9, 42, 0
10, 24000, Note_on_c, 9, 42, 127
10, 24048, Note_on_c, 9, 42, 0
10, 24096, Note_on_c, 9, 42, 127
10, 24144, Note_on_c, 9, 42, 0
10, 24192, Note_on_c, 9, 42, 127
10, 24240, Note_on_c, 9, 42, 0
10, 24288, Note_on_c, 9, 42, 127
10, 24336, Note_on_c, 9, 42, 0
10, 24384, Note_on_c, 9, 42, 127
10, 24432, Note_on_c, 9, 42, 0
10, 24480, Note_on_c, 9, 42, 127
10, 24528, Note_on_c, 9, 42, 0
10, 24576, Note_on_c, 9, 42, 127
10, 24624, Note_on_c, 9, 42, 0
10, 24672, Note_on_c, 9, 42, 127
10, 24720, Note_on_c, 9, 42, 0
10, 24768, Note_on_c, 9, 42, 127
10, 24816, Note_on_c, 9, 42, 0
10, 24864, Note_on_c, 9, 42, 127
10, 24912, Note_on_c, 9, 42, 0
10, 24960, Note_on_c, 9, 42, 127
10, 25008, Note_on_c, 9, 42, 0
10, 25056, Note_on_c, 9, 42, 127
10, 25104, Note_on_c, 9, 42, 0
10, 25152, Note_on_c, 9, 42, 127
10, 25200, Note_on_c, 9, 42, 0
10, 25248, Note_on_c, 9, 42, 127
10, 25296, Note_on_c, 9, 42, 0
10, 25344, Note_on_c, 9, 42, 127
10, 25392, Note_on_c, 9, 42, 0
10, 25440, Note_on_c, 9, 42, 127
10, 25488, Note_on_c, 9, 42, 0
10, 25536, Note_on_c, 9, 42, 127
10, 25584, Note_on_c, 9, 42, 0
10, 25632, Note_on_c, 9, 42, 127
10, 25680, Note_on_c, 9, 42, 0
10, 25728, Note_on_c, 9, 44, 127
10, 25872, Note_on_c, 9, 44, 0
10, 32256, Note_on_c, 9, 42, 127
10, 32304, Note_on_c, 9, 42, 0
10, 32352, Note_on_c, 9, 42, 127
10, 32400, Note_on_c, 9, 42, 0
10, 32448, Note_on_c, 9, 42, 127
10, 32496, Note_on_c, 9, 42, 0
10, 32544, Note_on_c, 9, 42, 127
10, 32592, Note_on_c, 9, 42, 0
10, 32640, Note_on_c, 9, 42, 127
10, 32688, Note_on_c, 9, 42, 0
10, 32736, Note_on_c, 9, 42, 127
10, 32784, Note_on_c, 9, 42, 0
10, 32832, Note_on_c, 9, 42, 127
10, 32880, Note_on_c, 9, 42, 0
10, 32928, Note_on_c, 9, 42, 127
10, 32976, Note_on_c, 9, 42, 0
10, 33024, Note_on_c, 9, 42, 127
10, 33072, Note_on_c, 9, 42, 0
10, 33120, Note_on_c, 9, 42, 127
10, 33168, Note_on_c, 9, 42, 0
10, 33216, Note_on_c, 9, 42, 127
10, 33264, Note_on_c, 9, 42, 0
10, 33312, Note_on_c, 9, 42, 127
10, 33360, Note_on_c, 9, 42, 0
10, 33408, Note_on_c, 9, 42, 127
10, 33456, Note_on_c, 9, 42, 0
10, 33504, Note_on_c, 9, 42, 127
10, 33552, Note_on_c, 9, 42, 0
10, 33600, Note_on_c, 9, 42, 127
10, 33648, Note_on_c, 9, 42, 0
10, 33696, Note_on_c, 9, 42, 127
10, 33744, Note_on_c, 9, 42, 0
10, 33792, Note_on_c, 9, 46, 127
10, 33888, Note_on_c, 9, 46, 0
10, 33984, Note_on_c, 9, 46, 127
10, 34080, Note_on_c, 9, 46, 0
10, 34176, Note_on_c, 9, 46, 127
10, 34272, Note_on_c, 9, 46, 0
10, 34368, Note_on_c, 9, 46, 127
10, 34416, Note_on_c, 9, 46, 0
10, 34560, Note_on_c, 9, 46, 127
10, 34656, Note_on_c, 9, 46, 0
10, 34752, Note_on_c, 9, 46, 127
10, 34848, Note_on_c, 9, 46, 0
10, 34944, Note_on_c, 9, 46, 127
10, 34992, Note_on_c, 9, 46, 0
10, 35136, Note_on_c, 9, 46, 127
10, 35184, Note_on_c, 9, 46, 0
10, 35328, Note_on_c, 9, 46, 127
10, 35376, Note_on_c, 9, 46, 0
10, 35376, End_track
11, 0, Start_track
11, 0, MIDI_port, 0
11, 0, Title_t, "Toms            "
11, 0, Control_c, 9, 7, 127
11, 0, Control_c, 9, 10, 64
11, 0, Control_c, 9, 91, 64
11, 0, Note_on_c, 9, 41, 127
11, 48, Note_on_c, 9, 41, 0
11, 96, Note_on_c, 9, 41, 127
11, 144, Note_on_c, 9, 41, 0
11, 192, Note_on_c, 9, 41, 127
11, 240, Note_on_c, 9, 41, 0
11, 288, Note_on_c, 9, 41, 127
11, 336, Note_on_c, 9, 41, 0
11, 384, Note_on_c, 9, 41, 127
11, 432, Note_on_c, 9, 41, 0
11, 480, Note_on_c, 9, 41, 127
11, 528, Note_on_c, 9, 41, 0
11, 576, Note_on_c, 9, 41, 127
11, 624, Note_on_c, 9, 41, 0
11, 672, Note_on_c, 9, 41, 127
11, 720, Note_on_c, 9, 41, 0
11, 768, Note_on_c, 9, 41, 127
11, 816, Note_on_c, 9, 41, 0
11, 864, Note_on_c, 9, 41, 127
11, 912, Note_on_c, 9, 41, 0
11, 960, Note_on_c, 9, 41, 127
11, 1008, Note_on_c, 9, 41, 0
11, 1056, Note_on_c, 9, 41, 127
11, 1104, Note_on_c, 9, 41, 0
11, 1152, Note_on_c, 9, 41, 127
11, 1200, Note_on_c, 9, 41, 0
11, 1248, Note_on_c, 9, 41, 127
11, 1296, Note_on_c, 9, 41, 0
11, 1344, Note_on_c, 9, 41, 127
11, 1392, Note_on_c, 9, 41, 0
11, 1440, Note_on_c, 9, 41, 127
11, 1488, Note_on_c, 9, 41, 0
11, 1536, Note_on_c, 9, 41, 127
11, 1584, Note_on_c, 9, 41, 0
11, 1632, Note_on_c, 9, 41, 127
11, 1680, Note_on_c, 9, 41, 0
11, 1728, Note_on_c, 9, 41, 127
11, 1776, Note_on_c, 9, 41, 0
11, 1824, Note_on_c, 9, 41, 127
11, 1872, Note_on_c, 9, 41, 0
11, 1920, Note_on_c, 9, 41, 127
11, 1968, Note_on_c, 9, 41, 0
11, 2016, Note_on_c, 9, 41, 127
11, 2064, Note_on_c, 9, 41, 0
11, 2112, Note_on_c, 9, 41, 127
11, 2160, Note_on_c, 9, 41, 0
11, 2208, Note_on_c, 9, 41, 127
11, 2256, Note_on_c, 9, 41, 0
11, 2304, Note_on_c, 9, 41, 127
11, 2352, Note_on_c, 9, 41, 0
11, 2640, Note_on_c, 9, 45, 127
11, 2688, Note_on_c, 9, 45, 0
11, 2688, Note_on_c, 9, 45, 127
11, 2736, Note_on_c, 9, 45, 0
11, 2784, Note_on_c, 9, 45, 127
11, 2832, Note_on_c, 9, 45, 0
11, 2832, Note_on_c, 9, 45, 127
11, 2880, Note_on_c, 9, 45, 0
11, 2928, Note_on_c, 9, 41, 127
11, 2976, Note_on_c, 9, 41, 0
11, 2976, Note_on_c, 9, 41, 127
11, 3024, Note_on_c, 9, 41, 0
11, 5760, Note_on_c, 9, 48, 127
11, 5808, Note_on_c, 9, 48, 0
11, 5856, Note_on_c, 9, 45, 127
11, 5904, Note_on_c, 9, 45, 0
11, 5904, Note_on_c, 9, 45, 127
11, 5952, Note_on_c, 9, 45, 0
11, 6000, Note_on_c, 9, 45, 127
11, 6048, Note_on_c, 9, 45, 0
11, 6048, Note_on_c, 9, 41, 127
11, 6096, Note_on_c, 9, 41, 0
11, 6096, Note_on_c, 9, 41, 127
11, 6144, Note_on_c, 9, 41, 0
11, 7296, Note_on_c, 9, 48, 127
11, 7344, Note_on_c, 9, 48, 0
11, 7440, Note_on_c, 9, 45, 127
11, 7488, Note_on_c, 9, 45, 0
11, 7488, Note_on_c, 9, 45, 127
11, 7536, Note_on_c, 9, 45, 0
11, 7536, Note_on_c, 9, 45, 127
11, 7584, Note_on_c, 9, 45, 0
11, 7584, Note_on_c, 9, 41, 127
11, 7632, Note_on_c, 9, 41, 0
11, 7680, Note_on_c, 9, 41, 127
11, 7728, Note_on_c, 9, 41, 0
11, 7776, Note_on_c, 9, 41, 127
11, 7824, Note_on_c, 9, 41, 0
11, 7872, Note_on_c, 9, 41, 127
11, 7920, Note_on_c, 9, 41, 0
11, 7968, Note_on_c, 9, 41, 127
11, 8016, Note_on_c, 9, 41, 0
11, 8064, Note_on_c, 9, 41, 127
11, 8112, Note_on_c, 9, 41, 0
11, 8160, Note_on_c, 9, 41, 127
11, 8208, Note_on_c, 9, 41, 0
11, 8256, Note_on_c, 9, 41, 127
11, 8304, Note_on_c, 9, 41, 0
11, 8352, Note_on_c, 9, 41, 127
11, 8400, Note_on_c, 9, 41, 0
11, 8448, Note_on_c, 9, 41, 127
11, 8496, Note_on_c, 9, 41, 0
11, 8544, Note_on_c, 9, 41, 127
11, 8592, Note_on_c, 9, 41, 0
11, 8640, Note_on_c, 9, 41, 127
11, 8688, Note_on_c, 9, 41, 0
11, 8736, Note_on_c, 9, 41, 127
11, 8784, Note_on_c, 9, 41, 0
11, 8832, Note_on_c, 9, 41, 127
11, 8880, Note_on_c, 9, 41, 0
11, 8928, Note_on_c, 9, 45, 127
11, 8976, Note_on_c, 9, 45, 0
11, 8976, Note_on_c, 9, 45, 127
11, 9024, Note_on_c, 9, 45, 0
11, 9072, Note_on_c, 9, 45, 127
11, 9120, Note_on_c, 9, 45, 0
11, 9120, Note_on_c, 9, 41, 127
11, 9168, Note_on_c, 9, 41, 0
11, 9168, Note_on_c, 9, 41, 127
11, 9216, Note_on_c, 9, 41, 0
11, 28800, Note_on_c, 9, 48, 127
11, 28848, Note_on_c, 9, 48, 0
11, 28896, Note_on_c, 9, 45, 127
11, 28944, Note_on_c, 9, 45, 0
11, 28944, Note_on_c, 9, 45, 127
11, 28992, Note_on_c, 9, 45, 0
11, 29040, Note_on_c, 9, 45, 127
11, 29088, Note_on_c, 9, 45, 0
11, 29088, Note_on_c, 9, 41, 127
11, 29136, Note_on_c, 9, 41, 0
11, 29136, Note_on_c, 9, 41, 127
11, 29184, Note_on_c, 9, 41, 0
11, 30336, Note_on_c, 9, 48, 127
11, 30384, Note_on_c, 9, 48, 0
11, 30480, Note_on_c, 9, 45, 127
11, 30528, Note_on_c, 9, 45, 0
11, 30528, Note_on_c, 9, 45, 127
11, 30576, Note_on_c, 9, 45, 0
11, 30576, Note_on_c, 9, 45, 127
11, 30624, Note_on_c, 9, 45, 0
11, 30624, Note_on_c, 9, 41, 127
11, 30672, Note_on_c, 9, 41, 0
11, 30720, Note_on_c, 9, 41, 127
11, 30768, Note_on_c, 9, 41, 0
11, 30816, Note_on_c, 9, 41, 127
11, 30864, Note_on_c, 9, 41, 0
11, 30912, Note_on_c, 9, 41, 127
11, 30960, Note_on_c, 9, 41, 0
11, 31008, Note_on_c, 9, 41, 127
11, 31056, Note_on_c, 9, 41, 0
11, 31104, Note_on_c, 9, 41, 127
11, 31152, Note_on_c, 9, 41, 0
11, 31200, Note_on_c, 9, 41, 127
11, 31248, Note_on_c, 9, 41, 0
11, 31296, Note_on_c, 9, 41, 127
11, 31344, Note_on_c, 9, 41, 0
11, 31392, Note_on_c, 9, 41, 127
11, 31440, Note_on_c, 9, 41, 0
11, 31488, Note_on_c, 9, 41, 127
11, 31536, Note_on_c, 9, 41, 0
11, 31584, Note_on_c, 9, 41, 127
11, 31632, Note_on_c, 9, 41, 0
11, 31680, Note_on_c, 9, 41, 127
11, 31728, Note_on_c, 9, 41, 0
11, 31776, Note_on_c, 9, 41, 127
11, 31824, Note_on_c, 9, 41, 0
11, 31872, Note_on_c, 9, 41, 127
11, 31920, Note_on_c, 9, 41, 0
11, 31968, Note_on_c, 9, 45, 127
11, 32016, Note_on_c, 9, 45, 0
11, 32016, Note_on_c, 9, 45, 127
11, 32064, Note_on_c, 9, 45, 0
11, 32112, Note_on_c, 9, 45, 127
11, 32160, Note_on_c, 9, 45, 0
11, 32160, Note_on_c, 9, 41, 127
11, 32208, Note_on_c, 9, 41, 0
11, 32208, Note_on_c, 9, 41, 127
11, 32256, Note_on_c, 9, 41, 0
11, 32256, End_track
12, 0, Start_track
12, 0, MIDI_port, 0
12, 0, Title_t, "Sgt Pepper's Lonely"
12, 0, End_track
13, 0, Start_track
13, 0, MIDI_port, 0
13, 0, Title_t, "Hearts Club Band"
13, 0, End_track
14, 0, Start_track
14, 0, MIDI_port, 0
14, 0, Title_t, "By The Beatles"
14, 0, End_track
15, 0, Start_track
15, 0, MIDI_port, 0
15, 0, Title_t, "Played By"
15, 0, End_track
16, 0, Start_track
16, 0, MIDI_port, 0
16, 0, Title_t, "Anne Wallace"
16, 0, End_track
0, 0, End_of_file
