0, 0, Header, 0, 1, 96
1, 0, Start_track
1, 0, SMPTE_offset, 96, 0, 3, 0, 0
1, 0, MIDI_port, 0
1, 0, System_exclusive, 10, 65, 16, 66, 18, 64, 0, 127, 0, 65, 247
1, 0, MIDI_port, 0
1, 0, Time_signature, 4, 2, 24, 8
1, 0, Key_signature, 0, "major"
1, 0, Tempo, 521739
1, 80, Control_c, 0, 121, 0
1, 81, Control_c, 1, 121, 0
1, 82, Control_c, 2, 121, 0
1, 83, Control_c, 3, 121, 0
1, 84, Control_c, 4, 121, 0
1, 85, Control_c, 5, 121, 0
1, 86, Control_c, 6, 121, 0
1, 89, Control_c, 9, 121, 0
1, 96, Control_c, 0, 0, 0
1, 97, Control_c, 0, 32, 0
1, 98, Program_c, 0, 2
1, 99, Control_c, 0, 7, 110
1, 99, Control_c, 0, 10, 34
1, 99, Control_c, 0, 11, 90
1, 100, Control_c, 0, 91, 127
1, 100, Control_c, 0, 93, 0
1, 101, Control_c, 1, 0, 0
1, 102, Control_c, 1, 32, 0
1, 103, Program_c, 1, 33
1, 104, Control_c, 1, 7, 110
1, 104, Control_c, 1, 10, 64
1, 104, Control_c, 1, 11, 110
1, 105, Control_c, 1, 91, 0
1, 105, Control_c, 1, 93, 60
1, 106, Control_c, 2, 0, 0
1, 107, Control_c, 2, 32, 0
1, 108, Program_c, 2, 29
1, 109, Control_c, 2, 7, 110
1, 109, Control_c, 2, 10, 64
1, 109, Control_c, 2, 11, 80
1, 110, Control_c, 2, 91, 127
1, 110, Control_c, 2, 93, 127
1, 111, Control_c, 3, 0, 0
1, 112, Control_c, 3, 32, 0
1, 113, Program_c, 3, 83
1, 114, Control_c, 3, 7, 110
1, 114, Control_c, 3, 10, 64
1, 114, Control_c, 3, 11, 105
1, 115, Control_c, 3, 91, 127
1, 115, Control_c, 3, 93, 70
1, 116, Control_c, 4, 0, 0
1, 117, Control_c, 4, 32, 0
1, 118, Program_c, 4, 27
1, 119, Control_c, 4, 7, 110
1, 119, Control_c, 4, 10, 94
1, 119, Control_c, 4, 11, 100
1, 120, Control_c, 4, 91, 127
1, 120, Control_c, 4, 93, 100
1, 121, Control_c, 5, 0, 0
1, 122, Control_c, 5, 32, 0
1, 123, Program_c, 5, 61
1, 124, Control_c, 5, 7, 110
1, 124, Control_c, 5, 10, 64
1, 124, Control_c, 5, 11, 110
1, 125, Control_c, 5, 91, 127
1, 125, Control_c, 5, 93, 60
1, 126, Control_c, 6, 0, 0
1, 127, Control_c, 6, 32, 0
1, 128, Program_c, 6, 27
1, 129, Control_c, 6, 7, 110
1, 129, Control_c, 6, 10, 0
1, 129, Control_c, 6, 11, 127
1, 130, Control_c, 6, 91, 0
1, 130, Control_c, 6, 93, 0
1, 141, Control_c, 9, 0, 0
1, 142, Control_c, 9, 32, 0
1, 143, Program_c, 9, 0
1, 144, Control_c, 9, 7, 110
1, 144, Control_c, 9, 10, 64
1, 144, Control_c, 9, 11, 110
1, 145, Control_c, 9, 91, 127
1, 145, Control_c, 9, 93, 70
1, 168, Pitch_bend_c, 9, 5760
1, 816, Note_on_c, 2, 50, 99
1, 816, Note_on_c, 2, 57, 99
1, 816, Note_on_c, 2, 62, 99
1, 816, Note_on_c, 2, 66, 97
1, 857, Note_on_c, 2, 57, 0
1, 858, Note_on_c, 2, 66, 0
1, 860, Note_on_c, 2, 62, 0
1, 860, Note_on_c, 2, 50, 0
1, 864, Note_on_c, 2, 50, 99
1, 864, Note_on_c, 2, 57, 98
1, 864, Note_on_c, 2, 62, 99
1, 864, Note_on_c, 2, 66, 98
1, 897, Note_on_c, 2, 50, 0
1, 898, Note_on_c, 2, 57, 0
1, 900, Note_on_c, 2, 66, 0
1, 902, Note_on_c, 2, 62, 0
1, 912, Note_on_c, 2, 50, 99
1, 912, Note_on_c, 2, 57, 99
1, 912, Note_on_c, 2, 62, 99
1, 912, Note_on_c, 2, 66, 99
1, 946, Note_on_c, 2, 57, 0
1, 951, Note_on_c, 2, 66, 0
1, 951, Note_on_c, 2, 62, 0
1, 954, Note_on_c, 2, 50, 0
1, 960, Note_on_c, 2, 55, 99
1, 960, Note_on_c, 2, 59, 99
1, 960, Note_on_c, 2, 62, 98
1, 960, Note_on_c, 2, 67, 98
1, 991, Note_on_c, 2, 59, 0
1, 994, Note_on_c, 2, 62, 0
1, 997, Note_on_c, 2, 55, 0
1, 1000, Note_on_c, 2, 67, 0
1, 1008, Note_on_c, 2, 55, 99
1, 1008, Note_on_c, 2, 59, 96
1, 1008, Note_on_c, 2, 62, 98
1, 1008, Note_on_c, 2, 67, 94
1, 1046, Note_on_c, 2, 62, 0
1, 1047, Note_on_c, 2, 55, 0
1, 1047, Note_on_c, 2, 59, 0
1, 1048, Note_on_c, 2, 67, 0
1, 1056, Note_on_c, 2, 55, 97
1, 1056, Note_on_c, 2, 59, 96
1, 1056, Note_on_c, 2, 62, 97
1, 1056, Note_on_c, 2, 67, 97
1, 1082, Note_on_c, 2, 62, 0
1, 1085, Note_on_c, 2, 59, 0
1, 1090, Note_on_c, 2, 55, 0
1, 1090, Note_on_c, 2, 67, 0
1, 1104, Note_on_c, 2, 55, 98
1, 1104, Note_on_c, 2, 59, 99
1, 1104, Note_on_c, 2, 62, 99
1, 1104, Note_on_c, 2, 67, 99
1, 1135, Note_on_c, 2, 59, 0
1, 1146, Note_on_c, 2, 67, 0
1, 1146, Note_on_c, 2, 62, 0
1, 1152, Note_on_c, 2, 50, 99
1, 1152, Note_on_c, 2, 57, 99
1, 1152, Note_on_c, 2, 62, 97
1, 1152, Note_on_c, 2, 66, 97
1, 1155, Note_on_c, 2, 55, 0
1, 1213, Note_on_c, 2, 57, 0
1, 1214, Note_on_c, 2, 66, 0
1, 1215, Note_on_c, 2, 62, 0
1, 1224, Note_on_c, 2, 50, 0
1, 1248, Note_on_c, 2, 58, 99
1, 1250, Note_on_c, 2, 58, 0
1, 1260, Note_on_c, 2, 60, 99
1, 1262, Note_on_c, 2, 60, 0
1, 1272, Note_on_c, 2, 63, 99
1, 1274, Note_on_c, 2, 63, 0
1, 1344, Note_on_c, 2, 58, 99
1, 1346, Note_on_c, 2, 58, 0
1, 1355, Note_on_c, 2, 60, 99
1, 1357, Note_on_c, 2, 60, 0
1, 1368, Note_on_c, 2, 63, 99
1, 1370, Note_on_c, 2, 63, 0
1, 1440, Note_on_c, 2, 58, 99
1, 1442, Note_on_c, 2, 58, 0
1, 1451, Note_on_c, 2, 60, 99
1, 1453, Note_on_c, 2, 60, 0
1, 1464, Note_on_c, 2, 63, 99
1, 1467, Note_on_c, 2, 63, 0
1, 1584, Note_on_c, 2, 50, 99
1, 1584, Note_on_c, 2, 57, 98
1, 1584, Note_on_c, 2, 62, 99
1, 1584, Note_on_c, 2, 66, 97
1, 1627, Note_on_c, 2, 57, 0
1, 1628, Note_on_c, 2, 50, 0
1, 1629, Note_on_c, 2, 66, 0
1, 1631, Note_on_c, 2, 62, 0
1, 1632, Note_on_c, 2, 50, 98
1, 1632, Note_on_c, 2, 57, 99
1, 1632, Note_on_c, 2, 62, 99
1, 1632, Note_on_c, 2, 66, 97
1, 1663, Note_on_c, 2, 57, 0
1, 1666, Note_on_c, 2, 50, 0
1, 1667, Note_on_c, 2, 62, 0
1, 1667, Note_on_c, 2, 66, 0
1, 1680, Note_on_c, 2, 50, 97
1, 1680, Note_on_c, 2, 57, 98
1, 1680, Note_on_c, 2, 62, 99
1, 1680, Note_on_c, 2, 66, 95
1, 1720, Note_on_c, 2, 57, 0
1, 1728, Note_on_c, 2, 55, 95
1, 1728, Note_on_c, 2, 59, 98
1, 1728, Note_on_c, 2, 67, 97
1, 1730, Note_on_c, 2, 50, 0
1, 1740, Note_on_c, 2, 66, 0
1, 1760, Note_on_c, 2, 59, 0
1, 1767, Note_on_c, 2, 67, 0
1, 1768, Note_on_c, 2, 55, 0
1, 1770, Note_on_c, 2, 62, 0
1, 1776, Note_on_c, 2, 55, 98
1, 1776, Note_on_c, 2, 59, 96
1, 1776, Note_on_c, 2, 62, 99
1, 1776, Note_on_c, 2, 67, 99
1, 1818, Note_on_c, 2, 67, 0
1, 1824, Note_on_c, 2, 67, 97
1, 1859, Note_on_c, 2, 67, 0
1, 1860, Note_on_c, 2, 59, 0
1, 1861, Note_on_c, 2, 62, 0
1, 1861, Note_on_c, 2, 55, 0
1, 1872, Note_on_c, 2, 55, 99
1, 1872, Note_on_c, 2, 59, 98
1, 1872, Note_on_c, 2, 62, 97
1, 1872, Note_on_c, 2, 67, 99
1, 1912, Note_on_c, 2, 59, 0
1, 1920, Note_on_c, 2, 55, 0
1, 1920, Note_on_c, 2, 62, 0
1, 1920, Note_on_c, 2, 50, 99
1, 1920, Note_on_c, 2, 57, 99
1, 1920, Note_on_c, 2, 62, 91
1, 1920, Note_on_c, 2, 66, 95
1, 1926, Note_on_c, 2, 67, 0
1, 1982, Note_on_c, 2, 57, 0
1, 1985, Note_on_c, 2, 66, 0
1, 1985, Note_on_c, 2, 62, 0
1, 1992, Note_on_c, 2, 50, 0
1, 2112, Note_on_c, 2, 69, 99
1, 2136, Note_on_c, 2, 72, 99
1, 2139, Note_on_c, 2, 69, 0
1, 2154, Note_on_c, 2, 72, 0
1, 2352, Note_on_c, 1, 38, 112
1, 2352, Note_on_c, 2, 50, 99
1, 2352, Note_on_c, 2, 57, 99
1, 2352, Note_on_c, 2, 62, 99
1, 2352, Note_on_c, 2, 66, 97
1, 2393, Note_on_c, 2, 57, 0
1, 2394, Note_on_c, 2, 66, 0
1, 2394, Pitch_bend_c, 3, 9123
1, 2396, Note_on_c, 2, 62, 0
1, 2396, Note_on_c, 2, 50, 0
1, 2397, Pitch_bend_c, 3, 16383
1, 2399, Note_on_c, 1, 38, 0
1, 2400, Note_on_c, 1, 38, 54
1, 2400, Note_on_c, 2, 50, 99
1, 2400, Note_on_c, 2, 57, 98
1, 2400, Note_on_c, 2, 62, 99
1, 2400, Note_on_c, 2, 66, 98
1, 2406, Note_on_c, 1, 38, 0
1, 2430, Pitch_bend_c, 3, 12239
1, 2433, Note_on_c, 2, 50, 0
1, 2434, Note_on_c, 2, 57, 0
1, 2434, Pitch_bend_c, 3, 8192
1, 2436, Note_on_c, 2, 66, 0
1, 2438, Note_on_c, 2, 62, 0
1, 2438, Pitch_bend_c, 3, 7228
1, 2442, Pitch_bend_c, 3, 6874
1, 2447, Pitch_bend_c, 3, 8192
1, 2448, Note_on_c, 1, 38, 112
1, 2448, Note_on_c, 2, 50, 99
1, 2448, Note_on_c, 2, 57, 99
1, 2448, Note_on_c, 2, 62, 99
1, 2448, Note_on_c, 2, 66, 99
1, 2482, Note_on_c, 2, 57, 0
1, 2487, Note_on_c, 2, 62, 0
1, 2487, Note_on_c, 2, 66, 0
1, 2489, Note_on_c, 1, 38, 0
1, 2490, Note_on_c, 2, 50, 0
1, 2496, Note_on_c, 1, 31, 112
1, 2496, Note_on_c, 2, 55, 99
1, 2496, Note_on_c, 2, 59, 99
1, 2496, Note_on_c, 2, 62, 98
1, 2496, Note_on_c, 2, 67, 98
1, 2527, Note_on_c, 2, 59, 0
1, 2527, Note_on_c, 1, 31, 0
1, 2530, Note_on_c, 2, 62, 0
1, 2533, Note_on_c, 2, 55, 0
1, 2536, Note_on_c, 2, 67, 0
1, 2544, Note_on_c, 1, 31, 112
1, 2544, Note_on_c, 2, 55, 99
1, 2544, Note_on_c, 2, 59, 96
1, 2544, Note_on_c, 2, 62, 98
1, 2544, Note_on_c, 2, 67, 94
1, 2582, Note_on_c, 2, 62, 0
1, 2583, Note_on_c, 2, 59, 0
1, 2583, Note_on_c, 2, 55, 0
1, 2584, Note_on_c, 2, 67, 0
1, 2591, Note_on_c, 1, 31, 0
1, 2592, Note_on_c, 1, 33, 112
1, 2592, Note_on_c, 2, 55, 97
1, 2592, Note_on_c, 2, 59, 96
1, 2592, Note_on_c, 2, 62, 97
1, 2592, Note_on_c, 2, 67, 97
1, 2592, Note_on_c, 9, 38, 117
1, 2618, Note_on_c, 2, 62, 0
1, 2621, Note_on_c, 2, 59, 0
1, 2626, Note_on_c, 2, 67, 0
1, 2626, Note_on_c, 2, 55, 0
1, 2639, Note_on_c, 1, 33, 0
1, 2640, Note_on_c, 1, 35, 112
1, 2640, Note_on_c, 2, 55, 98
1, 2640, Note_on_c, 2, 59, 99
1, 2640, Note_on_c, 2, 62, 99
1, 2640, Note_on_c, 2, 67, 99
1, 2671, Note_on_c, 2, 59, 0
1, 2682, Note_on_c, 2, 62, 0
1, 2682, Note_on_c, 2, 67, 0
1, 2688, Note_on_c, 1, 38, 112
1, 2688, Note_on_c, 2, 50, 99
1, 2688, Note_on_c, 2, 57, 99
1, 2688, Note_on_c, 2, 62, 99
1, 2688, Note_on_c, 2, 66, 98
1, 2688, Note_on_c, 9, 35, 127
1, 2688, Note_on_c, 9, 49, 117
1, 2689, Note_on_c, 1, 35, 0
1, 2691, Note_on_c, 2, 55, 0
1, 2730, Note_on_c, 9, 38, 0
1, 2739, Note_on_c, 2, 50, 0
1, 2739, Note_on_c, 2, 57, 0
1, 2743, Note_on_c, 2, 62, 0
1, 2744, Note_on_c, 2, 66, 0
1, 2748, Note_on_c, 1, 38, 0
1, 2783, Note_on_c, 9, 49, 0
1, 2784, Note_on_c, 9, 38, 117
1, 2784, Note_on_c, 9, 42, 117
1, 2796, Note_on_c, 9, 35, 0
1, 2810, Note_on_c, 9, 42, 0
1, 2832, Note_on_c, 9, 35, 126
1, 2832, Note_on_c, 9, 42, 75
1, 2846, Note_on_c, 9, 42, 0
1, 2857, Note_on_c, 9, 35, 0
1, 2880, Note_on_c, 9, 35, 127
1, 2880, Note_on_c, 9, 42, 117
1, 2902, Note_on_c, 9, 42, 0
1, 2928, Note_on_c, 9, 42, 51
1, 2934, Note_on_c, 9, 38, 0
1, 2943, Note_on_c, 9, 42, 0
1, 2976, Note_on_c, 9, 38, 117
1, 2976, Note_on_c, 9, 42, 117
1, 3002, Note_on_c, 9, 42, 0
1, 3024, Note_on_c, 9, 42, 51
1, 3041, Note_on_c, 9, 42, 0
1, 3043, Note_on_c, 9, 35, 0
1, 3072, Note_on_c, 9, 35, 127
1, 3072, Note_on_c, 9, 42, 117
1, 3095, Note_on_c, 9, 42, 0
1, 3120, Note_on_c, 1, 38, 112
1, 3120, Note_on_c, 2, 50, 99
1, 3120, Note_on_c, 2, 57, 99
1, 3120, Note_on_c, 2, 62, 99
1, 3120, Note_on_c, 2, 66, 95
1, 3120, Note_on_c, 9, 42, 64
1, 3121, Note_on_c, 9, 38, 0
1, 3135, Note_on_c, 9, 42, 0
1, 3152, Note_on_c, 2, 57, 0
1, 3156, Note_on_c, 2, 50, 0
1, 3158, Note_on_c, 1, 38, 0
1, 3159, Note_on_c, 2, 66, 0
1, 3160, Note_on_c, 2, 62, 0
1, 3168, Note_on_c, 1, 38, 112
1, 3168, Note_on_c, 2, 50, 99
1, 3168, Note_on_c, 2, 57, 98
1, 3168, Note_on_c, 2, 62, 99
1, 3168, Note_on_c, 2, 66, 97
1, 3168, Note_on_c, 9, 38, 117
1, 3168, Note_on_c, 9, 42, 117
1, 3187, Note_on_c, 9, 35, 0
1, 3192, Note_on_c, 9, 42, 0
1, 3198, Note_on_c, 2, 57, 0
1, 3199, Note_on_c, 2, 50, 0
1, 3201, Note_on_c, 1, 38, 0
1, 3203, Note_on_c, 2, 66, 0
1, 3205, Note_on_c, 2, 62, 0
1, 3216, Note_on_c, 1, 33, 112
1, 3216, Note_on_c, 2, 50, 93
1, 3216, Note_on_c, 2, 57, 97
1, 3216, Note_on_c, 2, 62, 97
1, 3216, Note_on_c, 2, 66, 95
1, 3216, Note_on_c, 9, 35, 125
1, 3216, Note_on_c, 9, 42, 72
1, 3233, Note_on_c, 9, 42, 0
1, 3237, Note_on_c, 9, 35, 0
1, 3245, Note_on_c, 2, 57, 0
1, 3251, Note_on_c, 2, 62, 0
1, 3259, Note_on_c, 2, 66, 0
1, 3261, Note_on_c, 2, 50, 0
1, 3264, Note_on_c, 1, 31, 112
1, 3264, Note_on_c, 2, 55, 99
1, 3264, Note_on_c, 2, 59, 99
1, 3264, Note_on_c, 2, 62, 99
1, 3264, Note_on_c, 2, 67, 98
1, 3264, Note_on_c, 9, 35, 127
1, 3264, Note_on_c, 9, 42, 117
1, 3274, Note_on_c, 1, 33, 0
1, 3285, Note_on_c, 9, 42, 0
1, 3291, Note_on_c, 1, 31, 0
1, 3301, Note_on_c, 2, 62, 0
1, 3302, Note_on_c, 2, 55, 0
1, 3303, Note_on_c, 2, 67, 0
1, 3305, Note_on_c, 2, 59, 0
1, 3312, Note_on_c, 1, 31, 110
1, 3312, Note_on_c, 2, 55, 99
1, 3312, Note_on_c, 2, 59, 92
1, 3312, Note_on_c, 2, 62, 97
1, 3312, Note_on_c, 2, 67, 96
1, 3312, Note_on_c, 9, 42, 71
1, 3318, Note_on_c, 9, 38, 0
1, 3328, Note_on_c, 9, 42, 0
1, 3348, Note_on_c, 2, 59, 0
1, 3349, Note_on_c, 2, 67, 0
1, 3351, Note_on_c, 2, 62, 0
1, 3352, Note_on_c, 2, 55, 0
1, 3360, Note_on_c, 1, 33, 111
1, 3360, Note_on_c, 2, 55, 99
1, 3360, Note_on_c, 2, 59, 97
1, 3360, Note_on_c, 2, 62, 98
1, 3360, Note_on_c, 2, 67, 98
1, 3360, Note_on_c, 9, 38, 117
1, 3360, Note_on_c, 9, 42, 117
1, 3361, Note_on_c, 1, 31, 0
1, 3384, Note_on_c, 9, 42, 0
1, 3388, Note_on_c, 2, 59, 0
1, 3391, Note_on_c, 2, 62, 0
1, 3394, Note_on_c, 2, 67, 0
1, 3408, Note_on_c, 1, 35, 112
1, 3408, Note_on_c, 2, 59, 94
1, 3408, Note_on_c, 2, 62, 98
1, 3408, Note_on_c, 2, 67, 98
1, 3408, Note_on_c, 9, 42, 66
1, 3412, Note_on_c, 1, 33, 0
1, 3416, Note_on_c, 9, 35, 0
1, 3424, Note_on_c, 9, 42, 0
1, 3438, Note_on_c, 2, 59, 0
1, 3445, Note_on_c, 2, 62, 0
1, 3448, Note_on_c, 2, 55, 0
1, 3456, Note_on_c, 1, 38, 112
1, 3456, Note_on_c, 2, 50, 99
1, 3456, Note_on_c, 2, 57, 99
1, 3456, Note_on_c, 2, 62, 99
1, 3456, Note_on_c, 2, 66, 96
1, 3456, Note_on_c, 9, 35, 127
1, 3456, Note_on_c, 9, 42, 117
1, 3457, Note_on_c, 2, 67, 0
1, 3458, Note_on_c, 1, 35, 0
1, 3477, Note_on_c, 9, 42, 0
1, 3500, Note_on_c, 9, 38, 0
1, 3504, Note_on_c, 3, 62, 122
1, 3504, Note_on_c, 9, 42, 70
1, 3515, Note_on_c, 2, 62, 0
1, 3515, Note_on_c, 2, 57, 0
1, 3516, Note_on_c, 2, 66, 0
1, 3518, Note_on_c, 2, 50, 0
1, 3523, Note_on_c, 9, 42, 0
1, 3530, Note_on_c, 1, 38, 0
1, 3533, Note_on_c, 3, 62, 0
1, 3552, Note_on_c, 3, 62, 122
1, 3552, Note_on_c, 9, 38, 117
1, 3552, Note_on_c, 9, 42, 117
1, 3569, Note_on_c, 9, 35, 0
1, 3573, Note_on_c, 9, 42, 0
1, 3576, Note_on_c, 3, 62, 0
1, 3600, Note_on_c, 3, 62, 104
1, 3600, Note_on_c, 9, 35, 127
1, 3600, Note_on_c, 9, 42, 72
1, 3619, Note_on_c, 9, 42, 0
1, 3621, Note_on_c, 9, 35, 0
1, 3643, Note_on_c, 3, 62, 0
1, 3648, Note_on_c, 3, 65, 122
1, 3648, Note_on_c, 9, 35, 127
1, 3648, Note_on_c, 9, 42, 117
1, 3671, Note_on_c, 9, 42, 0
1, 3695, Note_on_c, 3, 65, 0
1, 3696, Note_on_c, 9, 38, 0
1, 3696, Note_on_c, 3, 62, 113
1, 3696, Note_on_c, 9, 42, 50
1, 3713, Note_on_c, 9, 42, 0
1, 3718, Note_on_c, 3, 62, 0
1, 3744, Note_on_c, 3, 62, 122
1, 3744, Note_on_c, 9, 38, 117
1, 3744, Note_on_c, 9, 42, 117
1, 3768, Note_on_c, 9, 42, 0
1, 3786, Note_on_c, 3, 62, 0
1, 3792, Note_on_c, 3, 60, 111
1, 3792, Note_on_c, 9, 42, 59
1, 3808, Note_on_c, 9, 35, 0
1, 3809, Note_on_c, 9, 42, 0
1, 3812, Note_on_c, 3, 60, 0
1, 3840, Note_on_c, 3, 62, 122
1, 3840, Note_on_c, 9, 35, 127
1, 3840, Note_on_c, 9, 42, 117
1, 3863, Note_on_c, 9, 42, 0
1, 3888, Note_on_c, 1, 38, 112
1, 3888, Note_on_c, 2, 50, 99
1, 3888, Note_on_c, 2, 57, 99
1, 3888, Note_on_c, 2, 62, 99
1, 3888, Note_on_c, 2, 66, 95
1, 3888, Note_on_c, 9, 42, 64
1, 3893, Note_on_c, 9, 38, 0
1, 3898, Control_c, 3, 1, 1
1, 3903, Note_on_c, 9, 42, 0
1, 3906, Control_c, 3, 1, 0
1, 3915, Control_c, 3, 1, 1
1, 3920, Note_on_c, 2, 57, 0
1, 3924, Note_on_c, 2, 50, 0
1, 3924, Control_c, 3, 1, 54
1, 3926, Note_on_c, 1, 38, 0
1, 3927, Note_on_c, 2, 66, 0
1, 3928, Note_on_c, 2, 62, 0
1, 3934, Control_c, 3, 1, 122
1, 3936, Note_on_c, 1, 38, 112
1, 3936, Note_on_c, 2, 50, 99
1, 3936, Note_on_c, 2, 57, 98
1, 3936, Note_on_c, 2, 62, 99
1, 3936, Note_on_c, 2, 66, 97
1, 3936, Note_on_c, 9, 38, 117
1, 3936, Note_on_c, 9, 42, 117
1, 3942, Control_c, 3, 1, 127
1, 3953, Note_on_c, 3, 62, 0
1, 3955, Note_on_c, 9, 35, 0
1, 3958, Control_c, 3, 1, 112
1, 3960, Note_on_c, 9, 42, 0
1, 3966, Note_on_c, 2, 57, 0
1, 3966, Control_c, 3, 1, 0
1, 3967, Note_on_c, 2, 50, 0
1, 3969, Note_on_c, 1, 38, 0
1, 3971, Note_on_c, 2, 66, 0
1, 3973, Note_on_c, 2, 62, 0
1, 3984, Note_on_c, 1, 33, 112
1, 3984, Note_on_c, 2, 50, 93
1, 3984, Note_on_c, 2, 57, 97
1, 3984, Note_on_c, 2, 62, 97
1, 3984, Note_on_c, 2, 66, 95
1, 3984, Note_on_c, 9, 35, 125
1, 3984, Note_on_c, 9, 42, 72
1, 4001, Note_on_c, 9, 42, 0
1, 4005, Note_on_c, 9, 35, 0
1, 4013, Note_on_c, 2, 57, 0
1, 4019, Note_on_c, 2, 62, 0
1, 4027, Note_on_c, 2, 66, 0
1, 4029, Note_on_c, 2, 50, 0
1, 4032, Note_on_c, 1, 31, 112
1, 4032, Note_on_c, 2, 55, 99
1, 4032, Note_on_c, 2, 59, 99
1, 4032, Note_on_c, 2, 62, 99
1, 4032, Note_on_c, 2, 67, 98
1, 4032, Note_on_c, 9, 35, 127
1, 4032, Note_on_c, 9, 42, 117
1, 4042, Note_on_c, 1, 33, 0
1, 4053, Note_on_c, 9, 42, 0
1, 4059, Note_on_c, 1, 31, 0
1, 4069, Note_on_c, 2, 62, 0
1, 4070, Note_on_c, 2, 55, 0
1, 4071, Note_on_c, 2, 67, 0
1, 4073, Note_on_c, 2, 59, 0
1, 4080, Note_on_c, 1, 31, 110
1, 4080, Note_on_c, 2, 55, 99
1, 4080, Note_on_c, 2, 59, 92
1, 4080, Note_on_c, 2, 62, 97
1, 4080, Note_on_c, 2, 67, 96
1, 4080, Note_on_c, 9, 42, 71
1, 4086, Note_on_c, 9, 38, 0
1, 4096, Note_on_c, 9, 42, 0
1, 4116, Note_on_c, 2, 59, 0
1, 4117, Note_on_c, 2, 67, 0
1, 4119, Note_on_c, 2, 62, 0
1, 4120, Note_on_c, 2, 55, 0
1, 4128, Note_on_c, 1, 33, 111
1, 4128, Note_on_c, 2, 55, 99
1, 4128, Note_on_c, 2, 59, 97
1, 4128, Note_on_c, 2, 62, 98
1, 4128, Note_on_c, 2, 67, 98
1, 4128, Note_on_c, 9, 38, 117
1, 4128, Note_on_c, 9, 42, 117
1, 4129, Note_on_c, 1, 31, 0
1, 4152, Note_on_c, 9, 42, 0
1, 4156, Note_on_c, 2, 59, 0
1, 4159, Note_on_c, 2, 62, 0
1, 4162, Note_on_c, 2, 67, 0
1, 4176, Note_on_c, 1, 35, 112
1, 4176, Note_on_c, 2, 59, 94
1, 4176, Note_on_c, 2, 62, 98
1, 4176, Note_on_c, 2, 67, 98
1, 4176, Note_on_c, 9, 42, 66
1, 4180, Note_on_c, 1, 33, 0
1, 4184, Note_on_c, 9, 35, 0
1, 4192, Note_on_c, 9, 42, 0
1, 4206, Note_on_c, 2, 59, 0
1, 4213, Note_on_c, 2, 62, 0
1, 4216, Note_on_c, 2, 55, 0
1, 4224, Note_on_c, 1, 38, 112
1, 4224, Note_on_c, 2, 50, 99
1, 4224, Note_on_c, 2, 57, 99
1, 4224, Note_on_c, 2, 62, 99
1, 4224, Note_on_c, 2, 66, 96
1, 4224, Note_on_c, 9, 35, 127
1, 4224, Note_on_c, 9, 42, 117
1, 4225, Note_on_c, 2, 67, 0
1, 4226, Note_on_c, 1, 35, 0
1, 4245, Note_on_c, 9, 42, 0
1, 4268, Note_on_c, 9, 38, 0
1, 4272, Note_on_c, 9, 42, 70
1, 4283, Note_on_c, 2, 62, 0
1, 4283, Note_on_c, 2, 57, 0
1, 4284, Note_on_c, 2, 66, 0
1, 4286, Note_on_c, 2, 50, 0
1, 4291, Note_on_c, 9, 42, 0
1, 4298, Note_on_c, 1, 38, 0
1, 4320, Note_on_c, 3, 62, 122
1, 4320, Note_on_c, 9, 38, 117
1, 4320, Note_on_c, 9, 42, 117
1, 4337, Note_on_c, 9, 35, 0
1, 4341, Note_on_c, 9, 42, 0
1, 4348, Note_on_c, 3, 62, 0
1, 4368, Note_on_c, 3, 62, 113
1, 4368, Note_on_c, 9, 35, 127
1, 4368, Note_on_c, 9, 42, 72
1, 4387, Note_on_c, 9, 42, 0
1, 4389, Note_on_c, 9, 35, 0
1, 4404, Note_on_c, 3, 62, 0
1, 4416, Note_on_c, 3, 65, 122
1, 4416, Note_on_c, 9, 35, 127
1, 4416, Note_on_c, 9, 42, 117
1, 4439, Note_on_c, 9, 42, 0
1, 4459, Note_on_c, 3, 65, 0
1, 4464, Note_on_c, 9, 38, 0
1, 4464, Note_on_c, 3, 62, 118
1, 4464, Note_on_c, 9, 42, 50
1, 4481, Note_on_c, 9, 42, 0
1, 4491, Note_on_c, 3, 62, 0
1, 4512, Note_on_c, 3, 65, 122
1, 4512, Note_on_c, 9, 38, 117
1, 4512, Note_on_c, 9, 42, 117
1, 4536, Note_on_c, 9, 42, 0
1, 4539, Note_on_c, 3, 65, 0
1, 4560, Note_on_c, 3, 65, 122
1, 4560, Note_on_c, 9, 42, 59
1, 4576, Note_on_c, 9, 35, 0
1, 4577, Note_on_c, 9, 42, 0
1, 4603, Note_on_c, 3, 65, 0
1, 4608, Note_on_c, 3, 62, 122
1, 4608, Note_on_c, 9, 35, 127
1, 4608, Note_on_c, 9, 42, 117
1, 4631, Note_on_c, 9, 42, 0
1, 4656, Note_on_c, 1, 38, 112
1, 4656, Note_on_c, 2, 50, 99
1, 4656, Note_on_c, 2, 57, 99
1, 4656, Note_on_c, 2, 62, 99
1, 4656, Note_on_c, 2, 66, 95
1, 4656, Note_on_c, 9, 42, 64
1, 4659, Control_c, 3, 1, 4
1, 4661, Note_on_c, 9, 38, 0
1, 4667, Control_c, 3, 1, 20
1, 4671, Note_on_c, 9, 42, 0
1, 4677, Control_c, 3, 1, 100
1, 4684, Control_c, 3, 1, 126
1, 4688, Note_on_c, 2, 57, 0
1, 4692, Note_on_c, 2, 50, 0
1, 4692, Control_c, 3, 1, 127
1, 4694, Note_on_c, 1, 38, 0
1, 4695, Note_on_c, 2, 66, 0
1, 4696, Note_on_c, 2, 62, 0
1, 4704, Note_on_c, 1, 38, 112
1, 4704, Note_on_c, 2, 50, 99
1, 4704, Note_on_c, 2, 57, 98
1, 4704, Note_on_c, 2, 62, 99
1, 4704, Note_on_c, 2, 66, 97
1, 4704, Note_on_c, 9, 38, 117
1, 4704, Note_on_c, 9, 42, 117
1, 4705, Note_on_c, 3, 62, 0
1, 4723, Note_on_c, 9, 35, 0
1, 4728, Note_on_c, 9, 42, 0
1, 4732, Control_c, 3, 1, 0
1, 4734, Note_on_c, 2, 57, 0
1, 4735, Note_on_c, 2, 50, 0
1, 4737, Note_on_c, 1, 38, 0
1, 4739, Note_on_c, 2, 66, 0
1, 4741, Note_on_c, 2, 62, 0
1, 4752, Note_on_c, 1, 33, 112
1, 4752, Note_on_c, 2, 50, 93
1, 4752, Note_on_c, 2, 57, 97
1, 4752, Note_on_c, 2, 62, 97
1, 4752, Note_on_c, 2, 66, 95
1, 4752, Note_on_c, 9, 35, 125
1, 4752, Note_on_c, 9, 42, 72
1, 4769, Note_on_c, 9, 42, 0
1, 4773, Note_on_c, 9, 35, 0
1, 4781, Note_on_c, 2, 57, 0
1, 4787, Note_on_c, 2, 62, 0
1, 4795, Note_on_c, 2, 66, 0
1, 4797, Note_on_c, 2, 50, 0
1, 4800, Note_on_c, 1, 31, 112
1, 4800, Note_on_c, 2, 55, 99
1, 4800, Note_on_c, 2, 59, 99
1, 4800, Note_on_c, 2, 62, 99
1, 4800, Note_on_c, 2, 67, 98
1, 4800, Note_on_c, 9, 35, 127
1, 4800, Note_on_c, 9, 42, 117
1, 4810, Note_on_c, 1, 33, 0
1, 4821, Note_on_c, 9, 42, 0
1, 4827, Note_on_c, 1, 31, 0
1, 4837, Note_on_c, 2, 62, 0
1, 4838, Note_on_c, 2, 55, 0
1, 4839, Note_on_c, 2, 67, 0
1, 4841, Note_on_c, 2, 59, 0
1, 4848, Note_on_c, 1, 31, 110
1, 4848, Note_on_c, 2, 55, 99
1, 4848, Note_on_c, 2, 59, 92
1, 4848, Note_on_c, 2, 62, 97
1, 4848, Note_on_c, 2, 67, 96
1, 4848, Note_on_c, 9, 42, 71
1, 4854, Note_on_c, 9, 38, 0
1, 4864, Note_on_c, 9, 42, 0
1, 4884, Note_on_c, 2, 59, 0
1, 4885, Note_on_c, 2, 67, 0
1, 4887, Note_on_c, 2, 62, 0
1, 4888, Note_on_c, 2, 55, 0
1, 4896, Note_on_c, 1, 33, 111
1, 4896, Note_on_c, 2, 55, 99
1, 4896, Note_on_c, 2, 59, 97
1, 4896, Note_on_c, 2, 62, 98
1, 4896, Note_on_c, 2, 67, 98
1, 4896, Note_on_c, 9, 38, 117
1, 4896, Note_on_c, 9, 42, 117
1, 4897, Note_on_c, 1, 31, 0
1, 4920, Note_on_c, 9, 42, 0
1, 4924, Note_on_c, 2, 59, 0
1, 4927, Note_on_c, 2, 62, 0
1, 4930, Note_on_c, 2, 67, 0
1, 4944, Note_on_c, 1, 35, 112
1, 4944, Note_on_c, 2, 59, 94
1, 4944, Note_on_c, 2, 62, 98
1, 4944, Note_on_c, 2, 67, 98
1, 4944, Note_on_c, 9, 42, 66
1, 4948, Note_on_c, 1, 33, 0
1, 4952, Note_on_c, 9, 35, 0
1, 4960, Note_on_c, 9, 42, 0
1, 4974, Note_on_c, 2, 59, 0
1, 4981, Note_on_c, 2, 62, 0
1, 4984, Note_on_c, 2, 55, 0
1, 4992, Note_on_c, 1, 38, 112
1, 4992, Note_on_c, 2, 50, 99
1, 4992, Note_on_c, 2, 57, 99
1, 4992, Note_on_c, 2, 62, 99
1, 4992, Note_on_c, 2, 66, 96
1, 4992, Note_on_c, 9, 35, 127
1, 4992, Note_on_c, 9, 42, 117
1, 4993, Note_on_c, 2, 67, 0
1, 4994, Note_on_c, 1, 35, 0
1, 5013, Note_on_c, 9, 42, 0
1, 5036, Note_on_c, 9, 38, 0
1, 5040, Note_on_c, 9, 42, 70
1, 5051, Note_on_c, 2, 62, 0
1, 5051, Note_on_c, 2, 57, 0
1, 5052, Note_on_c, 2, 66, 0
1, 5054, Note_on_c, 2, 50, 0
1, 5059, Note_on_c, 9, 42, 0
1, 5066, Note_on_c, 1, 38, 0
1, 5088, Note_on_c, 3, 69, 122
1, 5088, Note_on_c, 9, 38, 117
1, 5088, Note_on_c, 9, 42, 117
1, 5105, Note_on_c, 9, 35, 0
1, 5109, Note_on_c, 9, 42, 0
1, 5120, Note_on_c, 3, 69, 0
1, 5136, Note_on_c, 3, 69, 120
1, 5136, Note_on_c, 9, 35, 127
1, 5136, Note_on_c, 9, 42, 72
1, 5155, Note_on_c, 9, 42, 0
1, 5157, Note_on_c, 9, 35, 0
1, 5175, Note_on_c, 3, 69, 0
1, 5184, Note_on_c, 3, 72, 121
1, 5184, Note_on_c, 9, 35, 127
1, 5184, Note_on_c, 9, 42, 117
1, 5207, Note_on_c, 9, 42, 0
1, 5228, Note_on_c, 3, 72, 0
1, 5232, Note_on_c, 9, 38, 0
1, 5232, Note_on_c, 3, 69, 116
1, 5232, Note_on_c, 9, 42, 50
1, 5249, Note_on_c, 9, 42, 0
1, 5257, Note_on_c, 3, 69, 0
1, 5280, Note_on_c, 3, 69, 122
1, 5280, Note_on_c, 9, 38, 117
1, 5280, Note_on_c, 9, 42, 117
1, 5304, Note_on_c, 9, 42, 0
1, 5315, Note_on_c, 3, 69, 0
1, 5328, Note_on_c, 3, 69, 111
1, 5328, Note_on_c, 9, 42, 59
1, 5344, Note_on_c, 9, 35, 0
1, 5345, Note_on_c, 9, 42, 0
1, 5347, Note_on_c, 3, 69, 0
1, 5376, Note_on_c, 3, 69, 122
1, 5376, Note_on_c, 9, 35, 127
1, 5376, Note_on_c, 9, 42, 117
1, 5399, Note_on_c, 9, 42, 0
1, 5420, Note_on_c, 3, 69, 0
1, 5424, Note_on_c, 1, 31, 110
1, 5424, Note_on_c, 2, 55, 99
1, 5424, Note_on_c, 2, 62, 97
1, 5424, Note_on_c, 2, 67, 94
1, 5424, Note_on_c, 3, 67, 122
1, 5424, Note_on_c, 9, 42, 64
1, 5429, Note_on_c, 9, 38, 0
1, 5439, Note_on_c, 9, 42, 0
1, 5458, Note_on_c, 1, 31, 0
1, 5464, Note_on_c, 2, 67, 0
1, 5465, Note_on_c, 2, 55, 0
1, 5467, Note_on_c, 2, 62, 0
1, 5472, Note_on_c, 1, 31, 107
1, 5472, Note_on_c, 2, 55, 98
1, 5472, Note_on_c, 2, 62, 97
1, 5472, Note_on_c, 2, 67, 95
1, 5472, Note_on_c, 9, 38, 117
1, 5472, Note_on_c, 9, 42, 117
1, 5482, Control_c, 3, 1, 1
1, 5489, Control_c, 3, 1, 27
1, 5491, Note_on_c, 9, 35, 0
1, 5496, Note_on_c, 9, 42, 0
1, 5498, Control_c, 3, 1, 58
1, 5503, Note_on_c, 1, 31, 0
1, 5506, Control_c, 3, 1, 112
1, 5508, Note_on_c, 2, 62, 0
1, 5508, Note_on_c, 2, 55, 0
1, 5509, Note_on_c, 2, 67, 0
1, 5517, Control_c, 3, 1, 127
1, 5520, Note_on_c, 1, 31, 105
1, 5520, Note_on_c, 2, 55, 97
1, 5520, Note_on_c, 2, 62, 89
1, 5520, Note_on_c, 2, 67, 92
1, 5520, Note_on_c, 9, 35, 125
1, 5520, Note_on_c, 9, 42, 72
1, 5537, Note_on_c, 9, 42, 0
1, 5541, Note_on_c, 9, 35, 0
1, 5551, Control_c, 3, 1, 97
1, 5556, Note_on_c, 3, 67, 0
1, 5559, Control_c, 3, 1, 0
1, 5561, Note_on_c, 2, 62, 0
1, 5561, Note_on_c, 2, 55, 0
1, 5565, Note_on_c, 1, 31, 0
1, 5568, Note_on_c, 2, 67, 0
1, 5568, Note_on_c, 1, 29, 104
1, 5568, Note_on_c, 2, 53, 99
1, 5568, Note_on_c, 2, 60, 99
1, 5568, Note_on_c, 2, 65, 99
1, 5568, Note_on_c, 2, 67, 99
1, 5568, Note_on_c, 9, 35, 127
1, 5568, Note_on_c, 9, 42, 117
1, 5589, Note_on_c, 9, 42, 0
1, 5592, Note_on_c, 2, 67, 0
1, 5602, Note_on_c, 2, 53, 0
1, 5603, Note_on_c, 2, 65, 0
1, 5604, Note_on_c, 1, 29, 0
1, 5607, Note_on_c, 2, 60, 0
1, 5616, Note_on_c, 1, 29, 102
1, 5616, Note_on_c, 2, 53, 99
1, 5616, Note_on_c, 2, 60, 99
1, 5616, Note_on_c, 2, 65, 99
1, 5616, Note_on_c, 2, 67, 99
1, 5616, Note_on_c, 9, 42, 71
1, 5622, Note_on_c, 9, 38, 0
1, 5632, Note_on_c, 9, 42, 0
1, 5644, Note_on_c, 2, 67, 0
1, 5649, Note_on_c, 1, 29, 0
1, 5652, Note_on_c, 2, 53, 0
1, 5655, Note_on_c, 2, 60, 0
1, 5656, Note_on_c, 2, 65, 0
1, 5664, Note_on_c, 1, 29, 101
1, 5664, Note_on_c, 2, 53, 99
1, 5664, Note_on_c, 2, 60, 96
1, 5664, Note_on_c, 2, 65, 97
1, 5664, Note_on_c, 2, 67, 94
1, 5664, Note_on_c, 9, 38, 117
1, 5664, Note_on_c, 9, 42, 117
1, 5688, Note_on_c, 9, 42, 0
1, 5694, Note_on_c, 2, 53, 0
1, 5697, Note_on_c, 2, 65, 0
1, 5698, Note_on_c, 2, 60, 0
1, 5701, Note_on_c, 1, 29, 0
1, 5701, Note_on_c, 2, 67, 0
1, 5712, Note_on_c, 1, 29, 101
1, 5712, Note_on_c, 2, 53, 98
1, 5712, Note_on_c, 2, 60, 95
1, 5712, Note_on_c, 2, 65, 96
1, 5712, Note_on_c, 2, 67, 93
1, 5712, Note_on_c, 9, 42, 66
1, 5720, Note_on_c, 9, 35, 0
1, 5728, Note_on_c, 9, 42, 0
1, 5746, Note_on_c, 2, 67, 0
1, 5748, Note_on_c, 2, 65, 0
1, 5752, Note_on_c, 1, 29, 0
1, 5753, Note_on_c, 2, 60, 0
1, 5757, Note_on_c, 2, 53, 0
1, 5760, Note_on_c, 1, 31, 110
1, 5760, Note_on_c, 2, 55, 99
1, 5760, Note_on_c, 2, 62, 98
1, 5760, Note_on_c, 2, 67, 93
1, 5760, Note_on_c, 9, 35, 127
1, 5760, Note_on_c, 9, 42, 117
1, 5781, Note_on_c, 9, 42, 0
1, 5804, Note_on_c, 9, 38, 0
1, 5808, Note_on_c, 9, 42, 70
1, 5812, Note_on_c, 2, 67, 0
1, 5815, Note_on_c, 2, 62, 0
1, 5820, Note_on_c, 2, 55, 0
1, 5823, Note_on_c, 1, 31, 0
1, 5827, Note_on_c, 9, 42, 0
1, 5856, Note_on_c, 3, 62, 122
1, 5856, Note_on_c, 9, 38, 117
1, 5856, Note_on_c, 9, 42, 117
1, 5873, Note_on_c, 9, 35, 0
1, 5877, Note_on_c, 9, 42, 0
1, 5888, Note_on_c, 3, 62, 0
1, 5904, Note_on_c, 3, 62, 118
1, 5904, Note_on_c, 9, 35, 127
1, 5904, Note_on_c, 9, 42, 72
1, 5923, Note_on_c, 9, 42, 0
1, 5925, Note_on_c, 9, 35, 0
1, 5936, Note_on_c, 3, 62, 0
1, 5952, Note_on_c, 3, 65, 122
1, 5952, Note_on_c, 9, 35, 127
1, 5952, Note_on_c, 9, 42, 117
1, 5975, Note_on_c, 9, 42, 0
1, 5998, Note_on_c, 3, 65, 0
1, 6000, Note_on_c, 9, 38, 0
1, 6000, Note_on_c, 3, 62, 122
1, 6000, Note_on_c, 9, 42, 50
1, 6017, Note_on_c, 9, 42, 0
1, 6026, Note_on_c, 3, 62, 0
1, 6048, Note_on_c, 3, 65, 122
1, 6048, Note_on_c, 9, 38, 117
1, 6048, Note_on_c, 9, 42, 117
1, 6071, Note_on_c, 3, 65, 0
1, 6072, Note_on_c, 9, 42, 0
1, 6096, Note_on_c, 3, 65, 122
1, 6096, Note_on_c, 9, 42, 59
1, 6112, Note_on_c, 9, 35, 0
1, 6113, Note_on_c, 9, 42, 0
1, 6126, Pitch_bend_c, 3, 10425
1, 6132, Pitch_bend_c, 3, 11542
1, 6144, Note_on_c, 3, 65, 0
1, 6144, Pitch_bend_c, 3, 8192
1, 6144, Note_on_c, 3, 62, 122
1, 6144, Note_on_c, 9, 35, 127
1, 6144, Note_on_c, 9, 42, 117
1, 6156, Pitch_bend_c, 3, 8192
1, 6167, Note_on_c, 9, 42, 0
1, 6192, Note_on_c, 1, 38, 112
1, 6192, Note_on_c, 2, 50, 96
1, 6192, Note_on_c, 2, 57, 96
1, 6192, Note_on_c, 2, 62, 96
1, 6192, Note_on_c, 2, 66, 96
1, 6192, Note_on_c, 9, 42, 64
1, 6197, Note_on_c, 9, 38, 0
1, 6207, Note_on_c, 9, 42, 0
1, 6230, Note_on_c, 1, 38, 0
1, 6230, Note_on_c, 2, 57, 0
1, 6231, Note_on_c, 2, 50, 0
1, 6233, Note_on_c, 2, 66, 0
1, 6235, Note_on_c, 2, 62, 0
1, 6240, Note_on_c, 1, 38, 108
1, 6240, Note_on_c, 2, 50, 96
1, 6240, Note_on_c, 2, 57, 97
1, 6240, Note_on_c, 2, 62, 96
1, 6240, Note_on_c, 2, 66, 94
1, 6240, Note_on_c, 9, 38, 117
1, 6240, Note_on_c, 9, 42, 117
1, 6251, Control_c, 3, 1, 1
1, 6259, Note_on_c, 9, 35, 0
1, 6261, Control_c, 3, 1, 53
1, 6264, Note_on_c, 9, 42, 0
1, 6268, Note_on_c, 2, 50, 0
1, 6270, Note_on_c, 2, 57, 0
1, 6270, Control_c, 3, 1, 98
1, 6273, Note_on_c, 1, 38, 0
1, 6275, Note_on_c, 2, 66, 0
1, 6275, Note_on_c, 3, 62, 0
1, 6278, Note_on_c, 2, 62, 0
1, 6278, Control_c, 3, 1, 104
1, 6286, Control_c, 3, 1, 88
1, 6288, Note_on_c, 1, 38, 111
1, 6288, Note_on_c, 2, 50, 90
1, 6288, Note_on_c, 2, 57, 94
1, 6288, Note_on_c, 2, 62, 92
1, 6288, Note_on_c, 2, 66, 93
1, 6288, Note_on_c, 9, 35, 125
1, 6288, Note_on_c, 9, 42, 72
1, 6294, Control_c, 3, 1, 0
1, 6305, Note_on_c, 9, 42, 0
1, 6309, Note_on_c, 9, 35, 0
1, 6319, Note_on_c, 2, 57, 0
1, 6328, Note_on_c, 2, 62, 0
1, 6329, Note_on_c, 1, 38, 0
1, 6329, Note_on_c, 2, 66, 0
1, 6332, Note_on_c, 2, 50, 0
1, 6336, Note_on_c, 1, 31, 103
1, 6336, Note_on_c, 2, 55, 98
1, 6336, Note_on_c, 2, 59, 97
1, 6336, Note_on_c, 2, 62, 97
1, 6336, Note_on_c, 2, 67, 95
1, 6336, Note_on_c, 9, 35, 127
1, 6336, Note_on_c, 9, 42, 117
1, 6357, Note_on_c, 9, 42, 0
1, 6368, Note_on_c, 1, 31, 0
1, 6374, Note_on_c, 2, 55, 0
1, 6375, Note_on_c, 2, 62, 0
1, 6375, Note_on_c, 2, 59, 0
1, 6375, Note_on_c, 2, 67, 0
1, 6384, Note_on_c, 1, 31, 108
1, 6384, Note_on_c, 2, 55, 95
1, 6384, Note_on_c, 2, 59, 87
1, 6384, Note_on_c, 2, 62, 92
1, 6384, Note_on_c, 2, 67, 97
1, 6384, Note_on_c, 9, 42, 71
1, 6390, Note_on_c, 9, 38, 0
1, 6400, Note_on_c, 9, 42, 0
1, 6421, Note_on_c, 2, 55, 0
1, 6421, Note_on_c, 2, 67, 0
1, 6425, Note_on_c, 2, 59, 0
1, 6427, Note_on_c, 2, 62, 0
1, 6432, Note_on_c, 1, 31, 0
1, 6432, Note_on_c, 1, 33, 108
1, 6432, Note_on_c, 2, 55, 95
1, 6432, Note_on_c, 2, 59, 87
1, 6432, Note_on_c, 2, 62, 97
1, 6432, Note_on_c, 2, 67, 96
1, 6432, Note_on_c, 9, 38, 117
1, 6432, Note_on_c, 9, 42, 117
1, 6456, Note_on_c, 9, 42, 0
1, 6462, Note_on_c, 2, 59, 0
1, 6464, Note_on_c, 2, 62, 0
1, 6466, Note_on_c, 2, 55, 0
1, 6466, Note_on_c, 2, 67, 0
1, 6477, Note_on_c, 1, 33, 0
1, 6480, Note_on_c, 1, 35, 112
1, 6480, Note_on_c, 2, 55, 97
1, 6480, Note_on_c, 2, 59, 94
1, 6480, Note_on_c, 2, 62, 94
1, 6480, Note_on_c, 2, 67, 98
1, 6480, Note_on_c, 9, 42, 66
1, 6488, Note_on_c, 9, 35, 0
1, 6496, Note_on_c, 9, 42, 0
1, 6513, Note_on_c, 2, 59, 0
1, 6522, Note_on_c, 2, 62, 0
1, 6524, Note_on_c, 1, 35, 0
1, 6528, Note_on_c, 1, 38, 112
1, 6528, Note_on_c, 2, 50, 98
1, 6528, Note_on_c, 2, 57, 99
1, 6528, Note_on_c, 2, 62, 98
1, 6528, Note_on_c, 2, 66, 97
1, 6528, Note_on_c, 9, 35, 127
1, 6528, Note_on_c, 9, 42, 117
1, 6529, Note_on_c, 2, 55, 0
1, 6539, Note_on_c, 2, 67, 0
1, 6549, Note_on_c, 9, 42, 0
1, 6572, Note_on_c, 9, 38, 0
1, 6576, Note_on_c, 3, 69, 122
1, 6576, Note_on_c, 9, 42, 70
1, 6583, Note_on_c, 2, 57, 0
1, 6587, Note_on_c, 1, 38, 0
1, 6592, Note_on_c, 2, 66, 0
1, 6593, Note_on_c, 2, 50, 0
1, 6595, Note_on_c, 9, 42, 0
1, 6602, Note_on_c, 2, 62, 0
1, 6605, Note_on_c, 3, 69, 0
1, 6624, Note_on_c, 3, 69, 122
1, 6624, Note_on_c, 9, 38, 117
1, 6624, Note_on_c, 9, 42, 117
1, 6641, Note_on_c, 9, 35, 0
1, 6645, Note_on_c, 9, 42, 0
1, 6650, Note_on_c, 3, 69, 0
1, 6672, Note_on_c, 3, 69, 108
1, 6672, Note_on_c, 9, 35, 127
1, 6672, Note_on_c, 9, 42, 72
1, 6691, Note_on_c, 9, 42, 0
1, 6693, Note_on_c, 9, 35, 0
1, 6712, Note_on_c, 3, 69, 0
1, 6720, Note_on_c, 3, 72, 120
1, 6720, Note_on_c, 9, 35, 127
1, 6720, Note_on_c, 9, 42, 117
1, 6743, Note_on_c, 9, 42, 0
1, 6766, Note_on_c, 3, 72, 0
1, 6768, Note_on_c, 9, 38, 0
1, 6768, Note_on_c, 3, 69, 93
1, 6768, Note_on_c, 9, 42, 50
1, 6785, Note_on_c, 9, 42, 0
1, 6792, Note_on_c, 3, 69, 0
1, 6816, Note_on_c, 3, 69, 122
1, 6816, Note_on_c, 9, 38, 117
1, 6816, Note_on_c, 9, 42, 117
1, 6840, Note_on_c, 9, 42, 0
1, 6854, Note_on_c, 3, 69, 0
1, 6864, Note_on_c, 3, 67, 122
1, 6864, Note_on_c, 9, 42, 59
1, 6880, Note_on_c, 9, 35, 0
1, 6881, Note_on_c, 9, 42, 0
1, 6894, Note_on_c, 3, 67, 0
1, 6912, Note_on_c, 3, 69, 122
1, 6912, Note_on_c, 9, 35, 127
1, 6912, Note_on_c, 9, 42, 117
1, 6935, Note_on_c, 9, 42, 0
1, 6955, Note_on_c, 3, 69, 0
1, 6960, Note_on_c, 1, 33, 112
1, 6960, Note_on_c, 2, 57, 99
1, 6960, Note_on_c, 2, 64, 98
1, 6960, Note_on_c, 2, 69, 94
1, 6960, Note_on_c, 3, 67, 122
1, 6960, Note_on_c, 9, 42, 64
1, 6965, Note_on_c, 9, 38, 0
1, 6975, Note_on_c, 9, 42, 0
1, 6994, Note_on_c, 2, 57, 0
1, 6996, Note_on_c, 2, 64, 0
1, 6996, Note_on_c, 1, 33, 0
1, 7000, Note_on_c, 2, 69, 0
1, 7008, Note_on_c, 1, 33, 111
1, 7008, Note_on_c, 2, 57, 98
1, 7008, Note_on_c, 2, 64, 95
1, 7008, Note_on_c, 2, 69, 92
1, 7008, Note_on_c, 9, 38, 117
1, 7008, Note_on_c, 9, 42, 117
1, 7017, Control_c, 3, 1, 3
1, 7027, Note_on_c, 9, 35, 0
1, 7027, Control_c, 3, 1, 22
1, 7032, Note_on_c, 9, 42, 0
1, 7036, Control_c, 3, 1, 74
1, 7043, Note_on_c, 2, 57, 0
1, 7044, Note_on_c, 2, 64, 0
1, 7044, Note_on_c, 1, 33, 0
1, 7045, Note_on_c, 2, 69, 0
1, 7045, Control_c, 3, 1, 111
1, 7052, Control_c, 3, 1, 126
1, 7056, Note_on_c, 1, 33, 111
1, 7056, Note_on_c, 2, 57, 98
1, 7056, Note_on_c, 2, 64, 98
1, 7056, Note_on_c, 2, 69, 98
1, 7056, Note_on_c, 9, 35, 125
1, 7056, Note_on_c, 9, 42, 72
1, 7061, Control_c, 3, 1, 127
1, 7073, Note_on_c, 9, 42, 0
1, 7077, Note_on_c, 9, 35, 0
1, 7086, Note_on_c, 1, 33, 0
1, 7091, Note_on_c, 2, 57, 0
1, 7091, Note_on_c, 3, 67, 0
1, 7095, Note_on_c, 2, 69, 0
1, 7096, Note_on_c, 2, 64, 0
1, 7100, Control_c, 3, 1, 0
1, 7104, Note_on_c, 1, 33, 112
1, 7104, Note_on_c, 2, 57, 98
1, 7104, Note_on_c, 2, 64, 98
1, 7104, Note_on_c, 2, 69, 98
1, 7104, Note_on_c, 9, 35, 127
1, 7104, Note_on_c, 9, 42, 117
1, 7125, Note_on_c, 9, 42, 0
1, 7128, Note_on_c, 2, 69, 0
1, 7131, Note_on_c, 2, 64, 0
1, 7131, Note_on_c, 2, 57, 0
1, 7140, Note_on_c, 1, 33, 0
1, 7152, Note_on_c, 1, 33, 103
1, 7152, Note_on_c, 2, 57, 99
1, 7152, Note_on_c, 2, 64, 99
1, 7152, Note_on_c, 2, 69, 99
1, 7152, Note_on_c, 9, 42, 71
1, 7158, Note_on_c, 9, 38, 0
1, 7168, Note_on_c, 9, 42, 0
1, 7176, Note_on_c, 2, 57, 0
1, 7185, Note_on_c, 2, 69, 0
1, 7187, Note_on_c, 2, 64, 0
1, 7188, Note_on_c, 1, 33, 0
1, 7200, Note_on_c, 1, 33, 110
1, 7200, Note_on_c, 2, 57, 97
1, 7200, Note_on_c, 2, 64, 97
1, 7200, Note_on_c, 2, 69, 97
1, 7200, Note_on_c, 9, 38, 117
1, 7200, Note_on_c, 9, 42, 117
1, 7224, Note_on_c, 9, 42, 0
1, 7231, Note_on_c, 2, 64, 0
1, 7234, Note_on_c, 2, 57, 0
1, 7236, Note_on_c, 2, 69, 0
1, 7236, Note_on_c, 1, 33, 0
1, 7248, Note_on_c, 1, 33, 112
1, 7248, Note_on_c, 2, 57, 97
1, 7248, Note_on_c, 2, 64, 97
1, 7248, Note_on_c, 2, 69, 97
1, 7248, Note_on_c, 9, 42, 66
1, 7256, Note_on_c, 9, 35, 0
1, 7264, Note_on_c, 9, 42, 0
1, 7284, Note_on_c, 1, 33, 0
1, 7288, Note_on_c, 2, 57, 0
1, 7289, Note_on_c, 2, 64, 0
1, 7295, Note_on_c, 2, 69, 0
1, 7296, Note_on_c, 1, 33, 112
1, 7296, Note_on_c, 2, 57, 99
1, 7296, Note_on_c, 2, 64, 99
1, 7296, Note_on_c, 2, 67, 97
1, 7296, Note_on_c, 9, 35, 127
1, 7296, Note_on_c, 9, 42, 117
1, 7317, Note_on_c, 9, 42, 0
1, 7340, Note_on_c, 9, 38, 0
1, 7344, Note_on_c, 9, 42, 70
1, 7346, Note_on_c, 2, 64, 0
1, 7346, Note_on_c, 1, 33, 0
1, 7347, Note_on_c, 2, 57, 0
1, 7352, Note_on_c, 2, 67, 0
1, 7363, Note_on_c, 9, 42, 0
1, 7392, Note_on_c, 3, 62, 122
1, 7392, Note_on_c, 9, 38, 117
1, 7392, Note_on_c, 9, 42, 117
1, 7409, Note_on_c, 9, 35, 0
1, 7413, Note_on_c, 9, 42, 0
1, 7417, Note_on_c, 3, 62, 0
1, 7440, Note_on_c, 3, 62, 113
1, 7440, Note_on_c, 9, 35, 127
1, 7440, Note_on_c, 9, 42, 72
1, 7459, Note_on_c, 9, 42, 0
1, 7461, Note_on_c, 9, 35, 0
1, 7477, Note_on_c, 3, 62, 0
1, 7488, Note_on_c, 3, 65, 122
1, 7488, Note_on_c, 9, 35, 127
1, 7488, Note_on_c, 9, 42, 117
1, 7511, Note_on_c, 9, 42, 0
1, 7529, Note_on_c, 3, 65, 0
1, 7536, Note_on_c, 9, 38, 0
1, 7536, Note_on_c, 3, 62, 118
1, 7536, Note_on_c, 9, 42, 50
1, 7553, Note_on_c, 9, 42, 0
1, 7574, Note_on_c, 3, 62, 0
1, 7584, Note_on_c, 3, 65, 122
1, 7584, Note_on_c, 9, 38, 117
1, 7584, Note_on_c, 9, 42, 117
1, 7608, Note_on_c, 9, 42, 0
1, 7613, Note_on_c, 3, 65, 0
1, 7632, Note_on_c, 3, 65, 122
1, 7632, Note_on_c, 9, 42, 59
1, 7648, Note_on_c, 9, 35, 0
1, 7649, Note_on_c, 9, 42, 0
1, 7656, Pitch_bend_c, 3, 8936
1, 7662, Pitch_bend_c, 3, 9308
1, 7668, Pitch_bend_c, 3, 10053
1, 7674, Pitch_bend_c, 3, 11542
1, 7675, Control_c, 3, 1, 76
1, 7680, Note_on_c, 3, 65, 0
1, 7680, Note_on_c, 3, 62, 111
1, 7680, Pitch_bend_c, 3, 8192
1, 7680, Note_on_c, 9, 35, 127
1, 7680, Note_on_c, 9, 42, 117
1, 7683, Control_c, 3, 1, 88
1, 7686, Pitch_bend_c, 3, 8415
1, 7690, Control_c, 3, 1, 84
1, 7690, Pitch_bend_c, 3, 8564
1, 7699, Control_c, 3, 1, 0
1, 7703, Note_on_c, 9, 42, 0
1, 7711, Pitch_bend_c, 3, 8192
1, 7728, Note_on_c, 1, 38, 112
1, 7728, Note_on_c, 2, 50, 99
1, 7728, Note_on_c, 2, 57, 99
1, 7728, Note_on_c, 2, 62, 99
1, 7728, Note_on_c, 2, 66, 95
1, 7728, Note_on_c, 9, 42, 64
1, 7733, Note_on_c, 9, 38, 0
1, 7743, Note_on_c, 9, 42, 0
1, 7760, Note_on_c, 2, 57, 0
1, 7764, Note_on_c, 2, 50, 0
1, 7766, Note_on_c, 1, 38, 0
1, 7767, Note_on_c, 2, 66, 0
1, 7768, Note_on_c, 2, 62, 0
1, 7776, Note_on_c, 1, 38, 112
1, 7776, Note_on_c, 2, 50, 99
1, 7776, Note_on_c, 2, 57, 98
1, 7776, Note_on_c, 2, 62, 99
1, 7776, Note_on_c, 2, 66, 97
1, 7776, Note_on_c, 9, 38, 117
1, 7776, Note_on_c, 9, 42, 117
1, 7795, Note_on_c, 9, 35, 0
1, 7800, Note_on_c, 9, 42, 0
1, 7802, Note_on_c, 3, 62, 0
1, 7806, Note_on_c, 2, 57, 0
1, 7807, Note_on_c, 2, 50, 0
1, 7809, Note_on_c, 1, 38, 0
1, 7811, Note_on_c, 2, 66, 0
1, 7813, Note_on_c, 2, 62, 0
1, 7824, Note_on_c, 1, 33, 112
1, 7824, Note_on_c, 2, 50, 93
1, 7824, Note_on_c, 2, 57, 97
1, 7824, Note_on_c, 2, 62, 97
1, 7824, Note_on_c, 2, 66, 95
1, 7824, Note_on_c, 9, 35, 125
1, 7824, Note_on_c, 9, 42, 72
1, 7841, Note_on_c, 9, 42, 0
1, 7845, Note_on_c, 9, 35, 0
1, 7853, Note_on_c, 2, 57, 0
1, 7859, Note_on_c, 2, 62, 0
1, 7867, Note_on_c, 2, 66, 0
1, 7869, Note_on_c, 2, 50, 0
1, 7872, Note_on_c, 1, 31, 112
1, 7872, Note_on_c, 2, 55, 99
1, 7872, Note_on_c, 2, 59, 99
1, 7872, Note_on_c, 2, 62, 99
1, 7872, Note_on_c, 2, 67, 98
1, 7872, Note_on_c, 9, 35, 127
1, 7872, Note_on_c, 9, 42, 117
1, 7882, Note_on_c, 1, 33, 0
1, 7893, Note_on_c, 9, 42, 0
1, 7899, Note_on_c, 1, 31, 0
1, 7909, Note_on_c, 2, 62, 0
1, 7910, Note_on_c, 2, 55, 0
1, 7911, Note_on_c, 2, 67, 0
1, 7913, Note_on_c, 2, 59, 0
1, 7920, Note_on_c, 1, 31, 110
1, 7920, Note_on_c, 2, 55, 99
1, 7920, Note_on_c, 2, 59, 92
1, 7920, Note_on_c, 2, 62, 97
1, 7920, Note_on_c, 2, 67, 96
1, 7920, Note_on_c, 9, 42, 71
1, 7926, Note_on_c, 9, 38, 0
1, 7936, Note_on_c, 9, 42, 0
1, 7956, Note_on_c, 2, 59, 0
1, 7957, Note_on_c, 2, 67, 0
1, 7959, Note_on_c, 2, 62, 0
1, 7960, Note_on_c, 2, 55, 0
1, 7968, Note_on_c, 1, 33, 111
1, 7968, Note_on_c, 2, 55, 99
1, 7968, Note_on_c, 2, 59, 97
1, 7968, Note_on_c, 2, 62, 98
1, 7968, Note_on_c, 2, 67, 98
1, 7968, Note_on_c, 9, 38, 117
1, 7968, Note_on_c, 9, 42, 117
1, 7969, Note_on_c, 1, 31, 0
1, 7992, Note_on_c, 9, 42, 0
1, 7996, Note_on_c, 2, 59, 0
1, 7999, Note_on_c, 2, 62, 0
1, 8002, Note_on_c, 2, 67, 0
1, 8016, Note_on_c, 1, 35, 112
1, 8016, Note_on_c, 2, 59, 94
1, 8016, Note_on_c, 2, 62, 98
1, 8016, Note_on_c, 2, 67, 98
1, 8016, Note_on_c, 9, 42, 66
1, 8020, Note_on_c, 1, 33, 0
1, 8024, Note_on_c, 9, 35, 0
1, 8032, Note_on_c, 9, 42, 0
1, 8046, Note_on_c, 2, 59, 0
1, 8053, Note_on_c, 2, 62, 0
1, 8056, Note_on_c, 2, 55, 0
1, 8064, Note_on_c, 1, 38, 112
1, 8064, Note_on_c, 2, 50, 99
1, 8064, Note_on_c, 2, 57, 99
1, 8064, Note_on_c, 2, 62, 99
1, 8064, Note_on_c, 2, 66, 96
1, 8064, Note_on_c, 9, 35, 127
1, 8064, Note_on_c, 9, 42, 117
1, 8065, Note_on_c, 2, 67, 0
1, 8066, Note_on_c, 1, 35, 0
1, 8085, Note_on_c, 9, 42, 0
1, 8108, Note_on_c, 9, 38, 0
1, 8112, Note_on_c, 3, 62, 122
1, 8112, Note_on_c, 9, 42, 70
1, 8123, Note_on_c, 2, 62, 0
1, 8123, Note_on_c, 2, 57, 0
1, 8124, Note_on_c, 2, 66, 0
1, 8126, Note_on_c, 2, 50, 0
1, 8131, Note_on_c, 9, 42, 0
1, 8138, Note_on_c, 1, 38, 0
1, 8140, Note_on_c, 3, 62, 0
1, 8160, Note_on_c, 3, 62, 122
1, 8160, Note_on_c, 9, 38, 117
1, 8160, Note_on_c, 9, 42, 117
1, 8177, Note_on_c, 9, 35, 0
1, 8181, Note_on_c, 9, 42, 0
1, 8186, Note_on_c, 3, 62, 0
1, 8208, Note_on_c, 3, 62, 118
1, 8208, Note_on_c, 9, 35, 127
1, 8208, Note_on_c, 9, 42, 72
1, 8227, Note_on_c, 9, 42, 0
1, 8229, Note_on_c, 9, 35, 0
1, 8232, Note_on_c, 3, 62, 0
1, 8256, Note_on_c, 3, 65, 122
1, 8256, Note_on_c, 9, 35, 127
1, 8256, Note_on_c, 9, 42, 117
1, 8279, Note_on_c, 9, 42, 0
1, 8304, Note_on_c, 9, 38, 0
1, 8304, Note_on_c, 9, 42, 50
1, 8307, Pitch_bend_c, 3, 8449
1, 8311, Pitch_bend_c, 3, 9894
1, 8316, Pitch_bend_c, 3, 10440
1, 8320, Pitch_bend_c, 3, 10344
1, 8321, Note_on_c, 9, 42, 0
1, 8324, Note_on_c, 3, 65, 0
1, 8325, Pitch_bend_c, 3, 9830
1, 8329, Pitch_bend_c, 3, 9509
1, 8333, Pitch_bend_c, 3, 9380
1, 8343, Pitch_bend_c, 3, 8770
1, 8346, Pitch_bend_c, 3, 8192
1, 8352, Note_on_c, 3, 65, 122
1, 8352, Note_on_c, 9, 38, 117
1, 8352, Note_on_c, 9, 42, 117
1, 8376, Note_on_c, 9, 42, 0
1, 8400, Note_on_c, 9, 42, 59
1, 8404, Pitch_bend_c, 3, 8256
1, 8408, Pitch_bend_c, 3, 8898
1, 8411, Pitch_bend_c, 3, 9701
1, 8416, Note_on_c, 9, 35, 0
1, 8416, Note_on_c, 3, 65, 0
1, 8416, Pitch_bend_c, 3, 11179
1, 8417, Note_on_c, 9, 42, 0
1, 8419, Pitch_bend_c, 3, 14424
1, 8423, Pitch_bend_c, 3, 14874
1, 8428, Pitch_bend_c, 3, 14970
1, 8432, Pitch_bend_c, 3, 12657
1, 8436, Pitch_bend_c, 3, 10215
1, 8440, Pitch_bend_c, 3, 8192
1, 8448, Note_on_c, 3, 62, 122
1, 8448, Note_on_c, 9, 35, 127
1, 8448, Note_on_c, 9, 42, 117
1, 8471, Note_on_c, 9, 42, 0
1, 8496, Note_on_c, 1, 38, 112
1, 8496, Note_on_c, 2, 50, 99
1, 8496, Note_on_c, 2, 57, 99
1, 8496, Note_on_c, 2, 62, 99
1, 8496, Note_on_c, 2, 66, 95
1, 8496, Note_on_c, 9, 42, 64
1, 8501, Note_on_c, 9, 38, 0
1, 8511, Note_on_c, 9, 42, 0
1, 8528, Note_on_c, 2, 57, 0
1, 8532, Note_on_c, 2, 50, 0
1, 8532, Control_c, 3, 1, 21
1, 8534, Note_on_c, 1, 38, 0
1, 8535, Note_on_c, 2, 66, 0
1, 8536, Note_on_c, 2, 62, 0
1, 8540, Control_c, 3, 1, 66
1, 8544, Note_on_c, 1, 38, 112
1, 8544, Note_on_c, 2, 50, 99
1, 8544, Note_on_c, 2, 57, 98
1, 8544, Note_on_c, 2, 62, 99
1, 8544, Note_on_c, 2, 66, 97
1, 8544, Note_on_c, 9, 38, 117
1, 8544, Note_on_c, 9, 42, 117
1, 8544, Note_on_c, 9, 54, 127
1, 8548, Control_c, 3, 1, 111
1, 8556, Control_c, 3, 1, 126
1, 8563, Note_on_c, 9, 35, 0
1, 8566, Control_c, 3, 1, 127
1, 8568, Note_on_c, 9, 42, 0
1, 8574, Note_on_c, 2, 57, 0
1, 8575, Note_on_c, 2, 50, 0
1, 8577, Note_on_c, 1, 38, 0
1, 8579, Note_on_c, 2, 66, 0
1, 8580, Note_on_c, 3, 62, 0
1, 8580, Control_c, 3, 1, 105
1, 8581, Note_on_c, 2, 62, 0
1, 8588, Control_c, 3, 1, 0
1, 8592, Note_on_c, 1, 33, 112
1, 8592, Note_on_c, 2, 50, 93
1, 8592, Note_on_c, 2, 57, 97
1, 8592, Note_on_c, 2, 62, 97
1, 8592, Note_on_c, 2, 66, 95
1, 8592, Note_on_c, 9, 35, 125
1, 8592, Note_on_c, 9, 42, 72
1, 8609, Note_on_c, 9, 42, 0
1, 8613, Note_on_c, 9, 35, 0
1, 8621, Note_on_c, 2, 57, 0
1, 8627, Note_on_c, 2, 62, 0
1, 8635, Note_on_c, 2, 66, 0
1, 8637, Note_on_c, 2, 50, 0
1, 8640, Note_on_c, 1, 31, 112
1, 8640, Note_on_c, 2, 55, 99
1, 8640, Note_on_c, 2, 59, 99
1, 8640, Note_on_c, 2, 62, 99
1, 8640, Note_on_c, 2, 67, 98
1, 8640, Note_on_c, 9, 35, 127
1, 8640, Note_on_c, 9, 42, 117
1, 8650, Note_on_c, 1, 33, 0
1, 8661, Note_on_c, 9, 42, 0
1, 8667, Note_on_c, 1, 31, 0
1, 8677, Note_on_c, 2, 62, 0
1, 8678, Note_on_c, 2, 55, 0
1, 8679, Note_on_c, 2, 67, 0
1, 8681, Note_on_c, 2, 59, 0
1, 8682, Note_on_c, 9, 54, 0
1, 8688, Note_on_c, 1, 31, 110
1, 8688, Note_on_c, 2, 55, 99
1, 8688, Note_on_c, 2, 59, 92
1, 8688, Note_on_c, 2, 62, 97
1, 8688, Note_on_c, 2, 67, 96
1, 8688, Note_on_c, 9, 42, 71
1, 8694, Note_on_c, 9, 38, 0
1, 8704, Note_on_c, 9, 42, 0
1, 8724, Note_on_c, 2, 59, 0
1, 8725, Note_on_c, 2, 67, 0
1, 8727, Note_on_c, 2, 62, 0
1, 8728, Note_on_c, 2, 55, 0
1, 8736, Note_on_c, 1, 33, 111
1, 8736, Note_on_c, 2, 55, 99
1, 8736, Note_on_c, 2, 59, 97
1, 8736, Note_on_c, 2, 62, 98
1, 8736, Note_on_c, 2, 67, 98
1, 8736, Note_on_c, 9, 38, 117
1, 8736, Note_on_c, 9, 42, 117
1, 8736, Note_on_c, 9, 54, 127
1, 8737, Note_on_c, 1, 31, 0
1, 8760, Note_on_c, 9, 42, 0
1, 8764, Note_on_c, 2, 59, 0
1, 8767, Note_on_c, 2, 62, 0
1, 8770, Note_on_c, 2, 67, 0
1, 8784, Note_on_c, 1, 35, 112
1, 8784, Note_on_c, 2, 59, 94
1, 8784, Note_on_c, 2, 62, 98
1, 8784, Note_on_c, 2, 67, 98
1, 8784, Note_on_c, 9, 42, 66
1, 8788, Note_on_c, 1, 33, 0
1, 8792, Note_on_c, 9, 35, 0
1, 8800, Note_on_c, 9, 42, 0
1, 8814, Note_on_c, 2, 59, 0
1, 8821, Note_on_c, 2, 62, 0
1, 8824, Note_on_c, 2, 55, 0
1, 8832, Note_on_c, 1, 38, 112
1, 8832, Note_on_c, 2, 50, 99
1, 8832, Note_on_c, 2, 57, 99
1, 8832, Note_on_c, 2, 62, 99
1, 8832, Note_on_c, 2, 66, 96
1, 8832, Note_on_c, 9, 35, 127
1, 8832, Note_on_c, 9, 42, 117
1, 8833, Note_on_c, 2, 67, 0
1, 8834, Note_on_c, 1, 35, 0
1, 8853, Note_on_c, 9, 42, 0
1, 8876, Note_on_c, 9, 38, 0
1, 8879, Note_on_c, 9, 54, 0
1, 8880, Note_on_c, 3, 62, 120
1, 8880, Note_on_c, 9, 42, 70
1, 8891, Note_on_c, 2, 62, 0
1, 8891, Note_on_c, 2, 57, 0
1, 8892, Note_on_c, 2, 66, 0
1, 8894, Note_on_c, 2, 50, 0
1, 8899, Note_on_c, 9, 42, 0
1, 8906, Note_on_c, 3, 62, 0
1, 8906, Note_on_c, 1, 38, 0
1, 8928, Note_on_c, 3, 62, 121
1, 8928, Note_on_c, 9, 38, 117
1, 8928, Note_on_c, 9, 42, 117
1, 8928, Note_on_c, 9, 54, 127
1, 8945, Note_on_c, 9, 35, 0
1, 8949, Note_on_c, 9, 42, 0
1, 8950, Note_on_c, 3, 62, 0
1, 8976, Note_on_c, 3, 62, 108
1, 8976, Note_on_c, 9, 35, 127
1, 8976, Note_on_c, 9, 42, 72
1, 8995, Note_on_c, 9, 42, 0
1, 8997, Note_on_c, 9, 35, 0
1, 9021, Note_on_c, 3, 62, 0
1, 9024, Note_on_c, 3, 65, 108
1, 9024, Note_on_c, 9, 35, 127
1, 9024, Note_on_c, 9, 42, 117
1, 9047, Note_on_c, 9, 42, 0
1, 9057, Note_on_c, 3, 65, 0
1, 9065, Note_on_c, 9, 54, 0
1, 9072, Note_on_c, 9, 38, 0
1, 9072, Note_on_c, 3, 62, 102
1, 9072, Note_on_c, 9, 42, 50
1, 9089, Note_on_c, 9, 42, 0
1, 9104, Note_on_c, 3, 62, 0
1, 9120, Note_on_c, 3, 62, 122
1, 9120, Note_on_c, 9, 38, 117
1, 9120, Note_on_c, 9, 42, 117
1, 9120, Note_on_c, 9, 54, 127
1, 9144, Note_on_c, 9, 42, 0
1, 9161, Note_on_c, 3, 62, 0
1, 9168, Note_on_c, 3, 60, 118
1, 9168, Note_on_c, 9, 42, 59
1, 9184, Note_on_c, 9, 35, 0
1, 9185, Note_on_c, 9, 42, 0
1, 9189, Note_on_c, 3, 60, 0
1, 9216, Note_on_c, 3, 62, 122
1, 9216, Note_on_c, 9, 35, 127
1, 9216, Note_on_c, 9, 42, 117
1, 9239, Note_on_c, 9, 42, 0
1, 9261, Note_on_c, 9, 54, 0
1, 9264, Note_on_c, 1, 38, 112
1, 9264, Note_on_c, 2, 50, 99
1, 9264, Note_on_c, 2, 57, 99
1, 9264, Note_on_c, 2, 62, 99
1, 9264, Note_on_c, 2, 66, 95
1, 9264, Note_on_c, 9, 42, 64
1, 9269, Note_on_c, 9, 38, 0
1, 9279, Note_on_c, 9, 42, 0
1, 9279, Control_c, 3, 1, 32
1, 9286, Control_c, 3, 1, 76
1, 9294, Control_c, 3, 1, 110
1, 9296, Note_on_c, 2, 57, 0
1, 9300, Note_on_c, 2, 50, 0
1, 9302, Note_on_c, 1, 38, 0
1, 9303, Note_on_c, 2, 66, 0
1, 9303, Control_c, 3, 1, 126
1, 9304, Note_on_c, 2, 62, 0
1, 9311, Control_c, 3, 1, 127
1, 9312, Note_on_c, 1, 38, 112
1, 9312, Note_on_c, 2, 50, 99
1, 9312, Note_on_c, 2, 57, 98
1, 9312, Note_on_c, 2, 62, 99
1, 9312, Note_on_c, 2, 66, 97
1, 9312, Note_on_c, 9, 38, 117
1, 9312, Note_on_c, 9, 42, 117
1, 9312, Note_on_c, 9, 54, 127
1, 9331, Note_on_c, 9, 35, 0
1, 9336, Note_on_c, 9, 42, 0
1, 9342, Note_on_c, 2, 57, 0
1, 9342, Note_on_c, 3, 62, 0
1, 9342, Control_c, 3, 1, 120
1, 9343, Note_on_c, 2, 50, 0
1, 9345, Note_on_c, 1, 38, 0
1, 9347, Note_on_c, 2, 66, 0
1, 9349, Note_on_c, 2, 62, 0
1, 9352, Control_c, 3, 1, 0
1, 9360, Note_on_c, 1, 33, 112
1, 9360, Note_on_c, 2, 50, 93
1, 9360, Note_on_c, 2, 57, 97
1, 9360, Note_on_c, 2, 62, 97
1, 9360, Note_on_c, 2, 66, 95
1, 9360, Note_on_c, 9, 35, 125
1, 9360, Note_on_c, 9, 42, 72
1, 9377, Note_on_c, 9, 42, 0
1, 9381, Note_on_c, 9, 35, 0
1, 9389, Note_on_c, 2, 57, 0
1, 9395, Note_on_c, 2, 62, 0
1, 9403, Note_on_c, 2, 66, 0
1, 9405, Note_on_c, 2, 50, 0
1, 9408, Note_on_c, 1, 31, 112
1, 9408, Note_on_c, 2, 55, 99
1, 9408, Note_on_c, 2, 59, 99
1, 9408, Note_on_c, 2, 62, 99
1, 9408, Note_on_c, 2, 67, 98
1, 9408, Note_on_c, 9, 35, 127
1, 9408, Note_on_c, 9, 42, 117
1, 9418, Note_on_c, 1, 33, 0
1, 9429, Note_on_c, 9, 42, 0
1, 9435, Note_on_c, 1, 31, 0
1, 9438, Note_on_c, 9, 54, 0
1, 9445, Note_on_c, 2, 62, 0
1, 9446, Note_on_c, 2, 55, 0
1, 9447, Note_on_c, 2, 67, 0
1, 9449, Note_on_c, 2, 59, 0
1, 9456, Note_on_c, 1, 31, 110
1, 9456, Note_on_c, 2, 55, 99
1, 9456, Note_on_c, 2, 59, 92
1, 9456, Note_on_c, 2, 62, 97
1, 9456, Note_on_c, 2, 67, 96
1, 9456, Note_on_c, 9, 42, 71
1, 9462, Note_on_c, 9, 38, 0
1, 9472, Note_on_c, 9, 42, 0
1, 9492, Note_on_c, 2, 59, 0
1, 9493, Note_on_c, 2, 67, 0
1, 9495, Note_on_c, 2, 62, 0
1, 9496, Note_on_c, 2, 55, 0
1, 9504, Note_on_c, 1, 33, 111
1, 9504, Note_on_c, 2, 55, 99
1, 9504, Note_on_c, 2, 59, 97
1, 9504, Note_on_c, 2, 62, 98
1, 9504, Note_on_c, 2, 67, 98
1, 9504, Note_on_c, 9, 38, 117
1, 9504, Note_on_c, 9, 42, 117
1, 9504, Note_on_c, 9, 54, 127
1, 9505, Note_on_c, 1, 31, 0
1, 9528, Note_on_c, 9, 42, 0
1, 9532, Note_on_c, 2, 59, 0
1, 9535, Note_on_c, 2, 62, 0
1, 9538, Note_on_c, 2, 67, 0
1, 9552, Note_on_c, 1, 35, 112
1, 9552, Note_on_c, 2, 59, 94
1, 9552, Note_on_c, 2, 62, 98
1, 9552, Note_on_c, 2, 67, 98
1, 9552, Note_on_c, 9, 42, 66
1, 9556, Note_on_c, 1, 33, 0
1, 9560, Note_on_c, 9, 35, 0
1, 9568, Note_on_c, 9, 42, 0
1, 9582, Note_on_c, 2, 59, 0
1, 9589, Note_on_c, 2, 62, 0
1, 9592, Note_on_c, 2, 55, 0
1, 9600, Note_on_c, 1, 38, 112
1, 9600, Note_on_c, 2, 50, 99
1, 9600, Note_on_c, 2, 57, 99
1, 9600, Note_on_c, 2, 62, 99
1, 9600, Note_on_c, 2, 66, 96
1, 9600, Note_on_c, 9, 35, 127
1, 9600, Note_on_c, 9, 42, 117
1, 9601, Note_on_c, 2, 67, 0
1, 9602, Note_on_c, 1, 35, 0
1, 9621, Note_on_c, 9, 42, 0
1, 9629, Note_on_c, 9, 54, 0
1, 9644, Note_on_c, 9, 38, 0
1, 9648, Note_on_c, 3, 69, 122
1, 9648, Note_on_c, 9, 42, 70
1, 9659, Note_on_c, 2, 62, 0
1, 9659, Note_on_c, 2, 57, 0
1, 9660, Note_on_c, 2, 66, 0
1, 9662, Note_on_c, 2, 50, 0
1, 9667, Note_on_c, 9, 42, 0
1, 9674, Note_on_c, 1, 38, 0
1, 9678, Note_on_c, 3, 69, 0
1, 9696, Note_on_c, 3, 69, 122
1, 9696, Note_on_c, 9, 38, 117
1, 9696, Note_on_c, 9, 42, 117
1, 9696, Note_on_c, 9, 54, 127
1, 9713, Note_on_c, 9, 35, 0
1, 9717, Note_on_c, 9, 42, 0
1, 9720, Note_on_c, 3, 69, 0
1, 9744, Note_on_c, 3, 69, 118
1, 9744, Note_on_c, 9, 35, 127
1, 9744, Note_on_c, 9, 42, 72
1, 9763, Note_on_c, 9, 42, 0
1, 9765, Note_on_c, 9, 35, 0
1, 9768, Note_on_c, 3, 69, 0
1, 9792, Note_on_c, 3, 72, 120
1, 9792, Note_on_c, 9, 35, 127
1, 9792, Note_on_c, 9, 42, 117
1, 9815, Note_on_c, 9, 42, 0
1, 9826, Note_on_c, 9, 54, 0
1, 9840, Note_on_c, 9, 38, 0
1, 9840, Note_on_c, 3, 69, 120
1, 9840, Note_on_c, 9, 42, 50
1, 9843, Note_on_c, 3, 72, 0
1, 9857, Note_on_c, 9, 42, 0
1, 9867, Note_on_c, 3, 69, 0
1, 9888, Note_on_c, 3, 69, 122
1, 9888, Note_on_c, 9, 38, 117
1, 9888, Note_on_c, 9, 42, 117
1, 9888, Note_on_c, 9, 54, 127
1, 9912, Note_on_c, 9, 42, 0
1, 9935, Note_on_c, 3, 69, 0
1, 9936, Note_on_c, 3, 67, 121
1, 9936, Note_on_c, 9, 42, 59
1, 9952, Note_on_c, 9, 35, 0
1, 9953, Note_on_c, 9, 42, 0
1, 9954, Note_on_c, 3, 67, 0
1, 9984, Note_on_c, 3, 69, 122
1, 9984, Note_on_c, 9, 35, 127
1, 9984, Note_on_c, 9, 42, 117
1, 10007, Note_on_c, 9, 42, 0
1, 10011, Note_on_c, 9, 54, 0
1, 10027, Note_on_c, 3, 69, 0
1, 10032, Note_on_c, 1, 31, 110
1, 10032, Note_on_c, 2, 55, 99
1, 10032, Note_on_c, 2, 62, 97
1, 10032, Note_on_c, 2, 67, 94
1, 10032, Note_on_c, 3, 67, 121
1, 10032, Note_on_c, 9, 42, 64
1, 10037, Note_on_c, 9, 38, 0
1, 10047, Note_on_c, 9, 42, 0
1, 10066, Note_on_c, 1, 31, 0
1, 10072, Note_on_c, 2, 67, 0
1, 10073, Note_on_c, 2, 55, 0
1, 10075, Note_on_c, 2, 62, 0
1, 10080, Note_on_c, 1, 31, 107
1, 10080, Note_on_c, 2, 55, 98
1, 10080, Note_on_c, 2, 62, 97
1, 10080, Note_on_c, 2, 67, 95
1, 10080, Note_on_c, 9, 38, 117
1, 10080, Note_on_c, 9, 42, 117
1, 10080, Note_on_c, 9, 54, 127
1, 10094, Control_c, 3, 1, 37
1, 10099, Note_on_c, 9, 35, 0
1, 10103, Control_c, 3, 1, 78
1, 10104, Note_on_c, 9, 42, 0
1, 10111, Note_on_c, 1, 31, 0
1, 10111, Control_c, 3, 1, 100
1, 10116, Note_on_c, 2, 62, 0
1, 10116, Note_on_c, 2, 55, 0
1, 10117, Note_on_c, 2, 67, 0
1, 10118, Control_c, 3, 1, 124
1, 10126, Control_c, 3, 1, 127
1, 10128, Note_on_c, 1, 31, 105
1, 10128, Note_on_c, 2, 55, 97
1, 10128, Note_on_c, 2, 62, 89
1, 10128, Note_on_c, 2, 67, 92
1, 10128, Note_on_c, 9, 35, 125
1, 10128, Note_on_c, 9, 42, 72
1, 10145, Note_on_c, 9, 42, 0
1, 10149, Note_on_c, 9, 35, 0
1, 10169, Note_on_c, 2, 62, 0
1, 10169, Note_on_c, 2, 55, 0
1, 10173, Note_on_c, 1, 31, 0
1, 10173, Control_c, 3, 1, 0
1, 10175, Note_on_c, 3, 67, 0
1, 10176, Note_on_c, 2, 67, 0
1, 10176, Note_on_c, 1, 29, 104
1, 10176, Note_on_c, 2, 53, 99
1, 10176, Note_on_c, 2, 60, 99
1, 10176, Note_on_c, 2, 65, 99
1, 10176, Note_on_c, 2, 67, 99
1, 10176, Note_on_c, 9, 35, 127
1, 10176, Note_on_c, 9, 42, 117
1, 10197, Note_on_c, 9, 42, 0
1, 10200, Note_on_c, 2, 67, 0
1, 10210, Note_on_c, 2, 53, 0
1, 10211, Note_on_c, 2, 65, 0
1, 10212, Note_on_c, 1, 29, 0
1, 10215, Note_on_c, 2, 60, 0
1, 10216, Note_on_c, 9, 54, 0
1, 10224, Note_on_c, 1, 29, 102
1, 10224, Note_on_c, 2, 53, 99
1, 10224, Note_on_c, 2, 60, 99
1, 10224, Note_on_c, 2, 65, 99
1, 10224, Note_on_c, 2, 67, 99
1, 10224, Note_on_c, 9, 42, 71
1, 10230, Note_on_c, 9, 38, 0
1, 10240, Note_on_c, 9, 42, 0
1, 10252, Note_on_c, 2, 67, 0
1, 10257, Note_on_c, 1, 29, 0
1, 10260, Note_on_c, 2, 53, 0
1, 10263, Note_on_c, 2, 60, 0
1, 10264, Note_on_c, 2, 65, 0
1, 10272, Note_on_c, 1, 29, 101
1, 10272, Note_on_c, 2, 53, 99
1, 10272, Note_on_c, 2, 60, 96
1, 10272, Note_on_c, 2, 65, 97
1, 10272, Note_on_c, 2, 67, 94
1, 10272, Note_on_c, 9, 38, 117
1, 10272, Note_on_c, 9, 42, 117
1, 10272, Note_on_c, 9, 54, 127
1, 10296, Note_on_c, 9, 42, 0
1, 10302, Note_on_c, 2, 53, 0
1, 10305, Note_on_c, 2, 65, 0
1, 10306, Note_on_c, 2, 60, 0
1, 10309, Note_on_c, 1, 29, 0
1, 10309, Note_on_c, 2, 67, 0
1, 10320, Note_on_c, 1, 29, 101
1, 10320, Note_on_c, 2, 53, 98
1, 10320, Note_on_c, 2, 60, 95
1, 10320, Note_on_c, 2, 65, 96
1, 10320, Note_on_c, 2, 67, 93
1, 10320, Note_on_c, 9, 42, 66
1, 10328, Note_on_c, 9, 35, 0
1, 10336, Note_on_c, 9, 42, 0
1, 10354, Note_on_c, 2, 67, 0
1, 10356, Note_on_c, 2, 65, 0
1, 10360, Note_on_c, 1, 29, 0
1, 10361, Note_on_c, 2, 60, 0
1, 10365, Note_on_c, 2, 53, 0
1, 10368, Note_on_c, 1, 31, 110
1, 10368, Note_on_c, 2, 55, 99
1, 10368, Note_on_c, 2, 62, 98
1, 10368, Note_on_c, 2, 67, 93
1, 10368, Note_on_c, 9, 35, 127
1, 10368, Note_on_c, 9, 42, 117
1, 10389, Note_on_c, 9, 42, 0
1, 10400, Note_on_c, 9, 54, 0
1, 10412, Note_on_c, 9, 38, 0
1, 10416, Note_on_c, 3, 62, 116
1, 10416, Note_on_c, 9, 42, 70
1, 10420, Note_on_c, 2, 67, 0
1, 10423, Note_on_c, 2, 62, 0
1, 10428, Note_on_c, 2, 55, 0
1, 10431, Note_on_c, 1, 31, 0
1, 10435, Note_on_c, 9, 42, 0
1, 10437, Note_on_c, 3, 62, 0
1, 10464, Note_on_c, 3, 62, 122
1, 10464, Note_on_c, 9, 38, 117
1, 10464, Note_on_c, 9, 42, 117
1, 10464, Note_on_c, 9, 54, 127
1, 10481, Note_on_c, 9, 35, 0
1, 10484, Note_on_c, 3, 62, 0
1, 10485, Note_on_c, 9, 42, 0
1, 10512, Note_on_c, 3, 62, 120
1, 10512, Note_on_c, 9, 35, 127
1, 10512, Note_on_c, 9, 42, 72
1, 10531, Note_on_c, 9, 42, 0
1, 10532, Note_on_c, 3, 62, 0
1, 10533, Note_on_c, 9, 35, 0
1, 10560, Note_on_c, 3, 65, 122
1, 10560, Note_on_c, 9, 35, 127
1, 10560, Note_on_c, 9, 42, 117
1, 10583, Note_on_c, 9, 42, 0
1, 10588, Pitch_bend_c, 3, 8288
1, 10592, Pitch_bend_c, 3, 10183
1, 10597, Pitch_bend_c, 3, 12850
1, 10599, Note_on_c, 9, 54, 0
1, 10601, Pitch_bend_c, 3, 14327
1, 10605, Pitch_bend_c, 3, 13396
1, 10608, Note_on_c, 9, 38, 0
1, 10608, Note_on_c, 3, 62, 122
1, 10608, Note_on_c, 9, 42, 50
1, 10610, Note_on_c, 3, 65, 0
1, 10610, Pitch_bend_c, 3, 11276
1, 10613, Pitch_bend_c, 3, 8192
1, 10625, Note_on_c, 9, 42, 0
1, 10645, Note_on_c, 3, 62, 0
1, 10656, Note_on_c, 3, 65, 122
1, 10656, Note_on_c, 9, 38, 117
1, 10656, Note_on_c, 9, 42, 117
1, 10656, Note_on_c, 9, 54, 127
1, 10680, Note_on_c, 9, 42, 0
1, 10686, Note_on_c, 3, 65, 0
1, 10704, Note_on_c, 3, 65, 118
1, 10704, Note_on_c, 9, 42, 59
1, 10707, Pitch_bend_c, 3, 8449
1, 10712, Pitch_bend_c, 3, 8545
1, 10716, Pitch_bend_c, 3, 8192
1, 10720, Note_on_c, 9, 35, 0
1, 10721, Note_on_c, 9, 42, 0
1, 10736, Pitch_bend_c, 3, 8995
1, 10740, Pitch_bend_c, 3, 11854
1, 10744, Pitch_bend_c, 3, 11533
1, 10748, Note_on_c, 3, 65, 0
1, 10750, Pitch_bend_c, 3, 8564
1, 10752, Note_on_c, 3, 62, 122
1, 10752, Note_on_c, 9, 35, 127
1, 10752, Note_on_c, 9, 42, 117
1, 10775, Note_on_c, 9, 42, 0
1, 10795, Note_on_c, 9, 54, 0
1, 10800, Note_on_c, 1, 38, 112
1, 10800, Note_on_c, 2, 50, 96
1, 10800, Note_on_c, 2, 57, 96
1, 10800, Note_on_c, 2, 62, 96
1, 10800, Note_on_c, 2, 66, 96
1, 10800, Note_on_c, 9, 42, 64
1, 10805, Note_on_c, 9, 38, 0
1, 10815, Note_on_c, 9, 42, 0
1, 10827, Control_c, 3, 1, 21
1, 10835, Control_c, 3, 1, 70
1, 10838, Note_on_c, 1, 38, 0
1, 10838, Note_on_c, 2, 57, 0
1, 10839, Note_on_c, 2, 50, 0
1, 10841, Note_on_c, 2, 66, 0
1, 10843, Note_on_c, 2, 62, 0
1, 10843, Control_c, 3, 1, 122
1, 10848, Note_on_c, 1, 38, 108
1, 10848, Note_on_c, 2, 50, 96
1, 10848, Note_on_c, 2, 57, 97
1, 10848, Note_on_c, 2, 62, 96
1, 10848, Note_on_c, 2, 66, 94
1, 10848, Note_on_c, 9, 38, 117
1, 10848, Note_on_c, 9, 42, 117
1, 10848, Note_on_c, 9, 54, 127
1, 10852, Control_c, 3, 1, 126
1, 10867, Note_on_c, 9, 35, 0
1, 10868, Control_c, 3, 1, 66
1, 10872, Note_on_c, 9, 42, 0
1, 10876, Note_on_c, 2, 50, 0
1, 10876, Note_on_c, 3, 62, 0
1, 10877, Control_c, 3, 1, 0
1, 10878, Note_on_c, 2, 57, 0
1, 10881, Note_on_c, 1, 38, 0
1, 10883, Note_on_c, 2, 66, 0
1, 10886, Note_on_c, 2, 62, 0
1, 10896, Note_on_c, 1, 38, 111
1, 10896, Note_on_c, 2, 50, 90
1, 10896, Note_on_c, 2, 57, 94
1, 10896, Note_on_c, 2, 62, 92
1, 10896, Note_on_c, 2, 66, 93
1, 10896, Note_on_c, 9, 35, 125
1, 10896, Note_on_c, 9, 42, 72
1, 10913, Note_on_c, 9, 42, 0
1, 10917, Note_on_c, 9, 35, 0
1, 10927, Note_on_c, 2, 57, 0
1, 10936, Note_on_c, 2, 62, 0
1, 10937, Note_on_c, 1, 38, 0
1, 10937, Note_on_c, 2, 66, 0
1, 10940, Note_on_c, 2, 50, 0
1, 10944, Note_on_c, 1, 31, 103
1, 10944, Note_on_c, 2, 55, 98
1, 10944, Note_on_c, 2, 59, 97
1, 10944, Note_on_c, 2, 62, 97
1, 10944, Note_on_c, 2, 67, 95
1, 10944, Note_on_c, 9, 35, 127
1, 10944, Note_on_c, 9, 42, 117
1, 10965, Note_on_c, 9, 42, 0
1, 10976, Note_on_c, 1, 31, 0
1, 10982, Note_on_c, 2, 55, 0
1, 10983, Note_on_c, 2, 62, 0
1, 10983, Note_on_c, 2, 59, 0
1, 10983, Note_on_c, 2, 67, 0
1, 10984, Note_on_c, 9, 54, 0
1, 10992, Note_on_c, 1, 31, 108
1, 10992, Note_on_c, 2, 55, 95
1, 10992, Note_on_c, 2, 59, 87
1, 10992, Note_on_c, 2, 62, 92
1, 10992, Note_on_c, 2, 67, 97
1, 10992, Note_on_c, 9, 42, 71
1, 10998, Note_on_c, 9, 38, 0
1, 11008, Note_on_c, 9, 42, 0
1, 11029, Note_on_c, 2, 55, 0
1, 11029, Note_on_c, 2, 67, 0
1, 11033, Note_on_c, 2, 59, 0
1, 11035, Note_on_c, 2, 62, 0
1, 11040, Note_on_c, 1, 31, 0
1, 11040, Note_on_c, 1, 33, 108
1, 11040, Note_on_c, 2, 55, 95
1, 11040, Note_on_c, 2, 59, 87
1, 11040, Note_on_c, 2, 62, 97
1, 11040, Note_on_c, 2, 67, 96
1, 11040, Note_on_c, 9, 38, 117
1, 11040, Note_on_c, 9, 42, 117
1, 11040, Note_on_c, 9, 54, 127
1, 11064, Note_on_c, 9, 42, 0
1, 11070, Note_on_c, 2, 59, 0
1, 11072, Note_on_c, 2, 62, 0
1, 11074, Note_on_c, 2, 55, 0
1, 11074, Note_on_c, 2, 67, 0
1, 11085, Note_on_c, 1, 33, 0
1, 11088, Note_on_c, 1, 35, 112
1, 11088, Note_on_c, 2, 55, 97
1, 11088, Note_on_c, 2, 59, 94
1, 11088, Note_on_c, 2, 62, 94
1, 11088, Note_on_c, 2, 67, 98
1, 11088, Note_on_c, 9, 42, 66
1, 11096, Note_on_c, 9, 35, 0
1, 11104, Note_on_c, 9, 42, 0
1, 11121, Note_on_c, 2, 59, 0
1, 11130, Note_on_c, 2, 62, 0
1, 11132, Note_on_c, 1, 35, 0
1, 11136, Note_on_c, 1, 38, 112
1, 11136, Note_on_c, 2, 50, 98
1, 11136, Note_on_c, 2, 57, 99
1, 11136, Note_on_c, 2, 62, 98
1, 11136, Note_on_c, 2, 66, 97
1, 11136, Note_on_c, 9, 35, 127
1, 11136, Note_on_c, 9, 42, 117
1, 11137, Note_on_c, 2, 55, 0
1, 11147, Note_on_c, 2, 67, 0
1, 11157, Note_on_c, 9, 42, 0
1, 11174, Note_on_c, 9, 54, 0
1, 11180, Note_on_c, 9, 38, 0
1, 11184, Note_on_c, 3, 69, 113
1, 11184, Note_on_c, 9, 42, 70
1, 11191, Note_on_c, 2, 57, 0
1, 11195, Note_on_c, 1, 38, 0
1, 11200, Note_on_c, 2, 66, 0
1, 11201, Note_on_c, 2, 50, 0
1, 11203, Note_on_c, 3, 69, 0
1, 11203, Note_on_c, 9, 42, 0
1, 11210, Note_on_c, 2, 62, 0
1, 11232, Note_on_c, 3, 69, 122
1, 11232, Note_on_c, 9, 38, 117
1, 11232, Note_on_c, 9, 42, 117
1, 11232, Note_on_c, 9, 54, 127
1, 11249, Note_on_c, 9, 35, 0
1, 11253, Note_on_c, 9, 42, 0
1, 11256, Note_on_c, 3, 69, 0
1, 11280, Note_on_c, 3, 69, 118
1, 11280, Note_on_c, 9, 35, 127
1, 11280, Note_on_c, 9, 42, 72
1, 11299, Note_on_c, 9, 42, 0
1, 11301, Note_on_c, 9, 35, 0
1, 11327, Note_on_c, 3, 69, 0
1, 11328, Note_on_c, 3, 72, 118
1, 11328, Note_on_c, 9, 35, 127
1, 11328, Note_on_c, 9, 42, 117
1, 11351, Note_on_c, 9, 42, 0
1, 11367, Note_on_c, 3, 72, 0
1, 11373, Note_on_c, 9, 54, 0
1, 11376, Note_on_c, 9, 38, 0
1, 11376, Note_on_c, 3, 69, 118
1, 11376, Note_on_c, 9, 42, 50
1, 11393, Note_on_c, 9, 42, 0
1, 11412, Note_on_c, 3, 69, 0
1, 11424, Note_on_c, 3, 72, 121
1, 11424, Note_on_c, 9, 38, 117
1, 11424, Note_on_c, 9, 42, 117
1, 11424, Note_on_c, 9, 54, 127
1, 11448, Note_on_c, 9, 42, 0
1, 11448, Note_on_c, 3, 72, 0
1, 11472, Note_on_c, 3, 72, 121
1, 11472, Note_on_c, 9, 42, 59
1, 11488, Note_on_c, 9, 35, 0
1, 11489, Note_on_c, 9, 42, 0
1, 11497, Pitch_bend_c, 3, 9308
1, 11509, Pitch_bend_c, 3, 9432
1, 11514, Pitch_bend_c, 3, 11170
1, 11520, Note_on_c, 3, 72, 0
1, 11520, Note_on_c, 3, 69, 113
1, 11520, Pitch_bend_c, 3, 12287
1, 11520, Note_on_c, 9, 35, 127
1, 11520, Note_on_c, 9, 42, 117
1, 11523, Pitch_bend_c, 3, 8787
1, 11527, Pitch_bend_c, 3, 8192
1, 11543, Note_on_c, 9, 42, 0
1, 11555, Note_on_c, 9, 54, 0
1, 11568, Note_on_c, 1, 33, 112
1, 11568, Note_on_c, 2, 57, 99
1, 11568, Note_on_c, 2, 64, 98
1, 11568, Note_on_c, 2, 69, 94
1, 11568, Note_on_c, 9, 42, 64
1, 11573, Note_on_c, 9, 38, 0
1, 11583, Note_on_c, 9, 42, 0
1, 11602, Note_on_c, 2, 57, 0
1, 11604, Note_on_c, 1, 33, 0
1, 11604, Note_on_c, 2, 64, 0
1, 11608, Note_on_c, 2, 69, 0
1, 11616, Note_on_c, 1, 33, 111
1, 11616, Note_on_c, 2, 57, 98
1, 11616, Note_on_c, 2, 64, 95
1, 11616, Note_on_c, 2, 69, 92
1, 11616, Note_on_c, 9, 38, 117
1, 11616, Note_on_c, 9, 42, 117
1, 11616, Note_on_c, 9, 54, 127
1, 11627, Control_c, 3, 1, 47
1, 11635, Note_on_c, 9, 35, 0
1, 11637, Control_c, 3, 1, 97
1, 11640, Note_on_c, 9, 42, 0
1, 11645, Control_c, 3, 1, 126
1, 11651, Note_on_c, 2, 57, 0
1, 11652, Note_on_c, 2, 64, 0
1, 11652, Note_on_c, 1, 33, 0
1, 11653, Note_on_c, 2, 69, 0
1, 11654, Control_c, 3, 1, 127
1, 11664, Note_on_c, 1, 33, 111
1, 11664, Note_on_c, 2, 57, 98
1, 11664, Note_on_c, 2, 64, 98
1, 11664, Note_on_c, 2, 69, 98
1, 11664, Note_on_c, 9, 35, 125
1, 11664, Note_on_c, 9, 42, 72
1, 11681, Note_on_c, 9, 42, 0
1, 11685, Note_on_c, 9, 35, 0
1, 11694, Note_on_c, 1, 33, 0
1, 11699, Note_on_c, 2, 57, 0
1, 11700, Control_c, 3, 1, 95
1, 11703, Note_on_c, 2, 69, 0
1, 11704, Note_on_c, 2, 64, 0
1, 11709, Control_c, 3, 1, 0
1, 11712, Note_on_c, 1, 33, 112
1, 11712, Note_on_c, 2, 57, 98
1, 11712, Note_on_c, 2, 64, 98
1, 11712, Note_on_c, 2, 69, 98
1, 11712, Note_on_c, 9, 35, 127
1, 11712, Note_on_c, 9, 42, 117
1, 11733, Note_on_c, 9, 42, 0
1, 11736, Note_on_c, 2, 69, 0
1, 11737, Note_on_c, 3, 69, 0
1, 11739, Note_on_c, 2, 57, 0
1, 11739, Note_on_c, 2, 64, 0
1, 11748, Note_on_c, 1, 33, 0
1, 11749, Note_on_c, 9, 54, 0
1, 11760, Note_on_c, 1, 33, 103
1, 11760, Note_on_c, 2, 57, 99
1, 11760, Note_on_c, 2, 64, 99
1, 11760, Note_on_c, 2, 69, 99
1, 11760, Note_on_c, 9, 42, 71
1, 11766, Note_on_c, 9, 38, 0
1, 11776, Note_on_c, 9, 42, 0
1, 11784, Note_on_c, 2, 57, 0
1, 11793, Note_on_c, 2, 69, 0
1, 11795, Note_on_c, 2, 64, 0
1, 11796, Note_on_c, 1, 33, 0
1, 11808, Note_on_c, 1, 33, 110
1, 11808, Note_on_c, 2, 57, 97
1, 11808, Note_on_c, 2, 64, 97
1, 11808, Note_on_c, 2, 69, 97
1, 11808, Note_on_c, 9, 38, 117
1, 11808, Note_on_c, 9, 42, 117
1, 11808, Note_on_c, 9, 54, 127
1, 11832, Note_on_c, 9, 42, 0
1, 11839, Note_on_c, 2, 64, 0
1, 11842, Note_on_c, 2, 57, 0
1, 11844, Note_on_c, 2, 69, 0
1, 11844, Note_on_c, 1, 33, 0
1, 11856, Note_on_c, 1, 33, 112
1, 11856, Note_on_c, 2, 57, 97
1, 11856, Note_on_c, 2, 64, 97
1, 11856, Note_on_c, 2, 69, 97
1, 11856, Note_on_c, 9, 42, 66
1, 11864, Note_on_c, 9, 35, 0
1, 11872, Note_on_c, 9, 42, 0
1, 11892, Note_on_c, 1, 33, 0
1, 11896, Note_on_c, 2, 57, 0
1, 11897, Note_on_c, 2, 64, 0
1, 11903, Note_on_c, 2, 69, 0
1, 11904, Note_on_c, 1, 33, 112
1, 11904, Note_on_c, 2, 57, 99
1, 11904, Note_on_c, 2, 64, 99
1, 11904, Note_on_c, 2, 67, 97
1, 11904, Note_on_c, 9, 35, 127
1, 11904, Note_on_c, 9, 42, 117
1, 11922, Note_on_c, 9, 54, 0
1, 11925, Note_on_c, 9, 42, 0
1, 11948, Note_on_c, 9, 38, 0
1, 11952, Note_on_c, 9, 42, 70
1, 11954, Note_on_c, 2, 64, 0
1, 11954, Note_on_c, 1, 33, 0
1, 11955, Note_on_c, 2, 57, 0
1, 11960, Note_on_c, 2, 67, 0
1, 11971, Note_on_c, 9, 42, 0
1, 12000, Note_on_c, 3, 62, 122
1, 12000, Note_on_c, 9, 38, 117
1, 12000, Note_on_c, 9, 42, 117
1, 12000, Note_on_c, 9, 54, 127
1, 12017, Note_on_c, 9, 35, 0
1, 12021, Note_on_c, 9, 42, 0
1, 12030, Note_on_c, 3, 62, 0
1, 12048, Note_on_c, 3, 62, 121
1, 12048, Note_on_c, 9, 35, 127
1, 12048, Note_on_c, 9, 42, 72
1, 12067, Note_on_c, 9, 42, 0
1, 12069, Note_on_c, 9, 35, 0
1, 12084, Note_on_c, 3, 62, 0
1, 12096, Note_on_c, 3, 65, 122
1, 12096, Note_on_c, 9, 35, 127
1, 12096, Note_on_c, 9, 42, 117
1, 12117, Note_on_c, 9, 54, 0
1, 12119, Note_on_c, 9, 42, 0
1, 12144, Note_on_c, 9, 38, 0
1, 12144, Note_on_c, 3, 65, 0
1, 12144, Note_on_c, 3, 62, 121
1, 12144, Note_on_c, 9, 42, 50
1, 12161, Note_on_c, 9, 42, 0
1, 12186, Note_on_c, 3, 62, 0
1, 12192, Note_on_c, 3, 65, 122
1, 12192, Note_on_c, 9, 38, 117
1, 12192, Note_on_c, 9, 42, 117
1, 12192, Note_on_c, 9, 54, 127
1, 12216, Note_on_c, 9, 42, 0
1, 12222, Note_on_c, 3, 65, 0
1, 12240, Note_on_c, 3, 65, 118
1, 12240, Note_on_c, 9, 42, 59
1, 12256, Note_on_c, 9, 35, 0
1, 12257, Note_on_c, 9, 42, 0
1, 12287, Note_on_c, 3, 65, 0
1, 12288, Note_on_c, 9, 54, 0
1, 12288, Note_on_c, 3, 62, 122
1, 12288, Note_on_c, 9, 35, 127
1, 12288, Note_on_c, 9, 42, 117
1, 12311, Note_on_c, 9, 42, 0
1, 12336, Note_on_c, 3, 62, 0
1, 12336, Note_on_c, 1, 38, 112
1, 12336, Note_on_c, 2, 50, 99
1, 12336, Note_on_c, 2, 57, 99
1, 12336, Note_on_c, 2, 62, 99
1, 12336, Note_on_c, 2, 66, 95
1, 12336, Note_on_c, 9, 42, 64
1, 12341, Note_on_c, 9, 38, 0
1, 12351, Note_on_c, 9, 42, 0
1, 12368, Note_on_c, 2, 57, 0
1, 12372, Note_on_c, 2, 50, 0
1, 12374, Note_on_c, 1, 38, 0
1, 12375, Note_on_c, 2, 66, 0
1, 12376, Note_on_c, 2, 62, 0
1, 12384, Note_on_c, 1, 38, 112
1, 12384, Note_on_c, 2, 50, 99
1, 12384, Note_on_c, 2, 57, 98
1, 12384, Note_on_c, 2, 62, 99
1, 12384, Note_on_c, 2, 66, 97
1, 12384, Note_on_c, 9, 38, 117
1, 12384, Note_on_c, 9, 42, 117
1, 12384, Note_on_c, 9, 54, 127
1, 12403, Note_on_c, 9, 35, 0
1, 12408, Note_on_c, 9, 42, 0
1, 12414, Note_on_c, 2, 57, 0
1, 12415, Note_on_c, 2, 50, 0
1, 12417, Note_on_c, 1, 38, 0
1, 12419, Note_on_c, 2, 66, 0
1, 12421, Note_on_c, 2, 62, 0
1, 12432, Note_on_c, 1, 33, 112
1, 12432, Note_on_c, 2, 50, 93
1, 12432, Note_on_c, 2, 57, 97
1, 12432, Note_on_c, 2, 62, 97
1, 12432, Note_on_c, 2, 66, 95
1, 12432, Note_on_c, 9, 35, 125
1, 12432, Note_on_c, 9, 42, 72
1, 12449, Note_on_c, 9, 42, 0
1, 12453, Note_on_c, 9, 35, 0
1, 12461, Note_on_c, 2, 57, 0
1, 12467, Note_on_c, 2, 62, 0
1, 12475, Note_on_c, 2, 66, 0
1, 12477, Note_on_c, 2, 50, 0
1, 12480, Note_on_c, 1, 31, 112
1, 12480, Note_on_c, 2, 55, 99
1, 12480, Note_on_c, 2, 59, 99
1, 12480, Note_on_c, 2, 62, 99
1, 12480, Note_on_c, 2, 67, 98
1, 12480, Note_on_c, 9, 35, 127
1, 12480, Note_on_c, 9, 42, 117
1, 12480, Note_on_c, 9, 45, 117
1, 12490, Note_on_c, 1, 33, 0
1, 12498, Note_on_c, 9, 54, 0
1, 12501, Note_on_c, 9, 42, 0
1, 12507, Note_on_c, 1, 31, 0
1, 12517, Note_on_c, 2, 62, 0
1, 12518, Note_on_c, 2, 55, 0
1, 12519, Note_on_c, 2, 67, 0
1, 12521, Note_on_c, 2, 59, 0
1, 12528, Note_on_c, 9, 45, 0
1, 12528, Note_on_c, 9, 35, 0
1, 12528, Note_on_c, 1, 31, 110
1, 12528, Note_on_c, 2, 55, 99
1, 12528, Note_on_c, 2, 59, 92
1, 12528, Note_on_c, 2, 62, 97
1, 12528, Note_on_c, 2, 67, 96
1, 12528, Note_on_c, 9, 35, 122
1, 12528, Note_on_c, 9, 42, 71
1, 12528, Note_on_c, 9, 43, 112
1, 12534, Note_on_c, 9, 38, 0
1, 12544, Note_on_c, 9, 42, 0
1, 12564, Note_on_c, 2, 59, 0
1, 12565, Note_on_c, 2, 67, 0
1, 12567, Note_on_c, 2, 62, 0
1, 12568, Note_on_c, 2, 55, 0
1, 12576, Note_on_c, 9, 43, 0
1, 12576, Note_on_c, 9, 35, 0
1, 12576, Note_on_c, 1, 33, 111
1, 12576, Note_on_c, 2, 55, 99
1, 12576, Note_on_c, 2, 59, 97
1, 12576, Note_on_c, 2, 62, 98
1, 12576, Note_on_c, 2, 67, 98
1, 12576, Note_on_c, 9, 38, 117
1, 12576, Note_on_c, 9, 42, 117
1, 12576, Note_on_c, 9, 54, 127
1, 12577, Note_on_c, 1, 31, 0
1, 12600, Note_on_c, 9, 42, 0
1, 12604, Note_on_c, 2, 59, 0
1, 12607, Note_on_c, 2, 62, 0
1, 12610, Note_on_c, 2, 67, 0
1, 12624, Note_on_c, 1, 35, 112
1, 12624, Note_on_c, 2, 59, 94
1, 12624, Note_on_c, 2, 62, 98
1, 12624, Note_on_c, 2, 67, 98
1, 12624, Note_on_c, 9, 35, 127
1, 12624, Note_on_c, 9, 42, 66
1, 12628, Note_on_c, 1, 33, 0
1, 12640, Note_on_c, 9, 42, 0
1, 12654, Note_on_c, 2, 59, 0
1, 12661, Note_on_c, 2, 62, 0
1, 12664, Note_on_c, 2, 55, 0
1, 12672, Note_on_c, 9, 38, 0
1, 12672, Note_on_c, 9, 35, 0
1, 12672, Note_on_c, 1, 38, 112
1, 12672, Note_on_c, 2, 50, 99
1, 12672, Note_on_c, 2, 57, 99
1, 12672, Note_on_c, 2, 62, 99
1, 12672, Note_on_c, 2, 66, 96
1, 12672, Program_c, 3, 81
1, 12672, Note_on_c, 9, 38, 117
1, 12673, Note_on_c, 2, 67, 0
1, 12674, Note_on_c, 1, 35, 0
1, 12678, Note_on_c, 9, 38, 0
1, 12678, Note_on_c, 9, 54, 0
1, 12681, Note_on_c, 9, 38, 117
1, 12699, Note_on_c, 9, 38, 0
1, 12731, Note_on_c, 2, 57, 0
1, 12731, Note_on_c, 2, 62, 0
1, 12732, Note_on_c, 2, 66, 0
1, 12734, Note_on_c, 2, 50, 0
1, 12746, Note_on_c, 1, 38, 0
1, 12768, Note_on_c, 3, 74, 122
1, 12793, Note_on_c, 3, 74, 0
1, 12816, Note_on_c, 3, 74, 120
1, 12852, Note_on_c, 3, 74, 0
1, 12864, Note_on_c, 3, 78, 122
1, 12893, Note_on_c, 3, 78, 0
1, 12912, Note_on_c, 3, 78, 122
1, 12944, Note_on_c, 3, 78, 0
1, 12960, Note_on_c, 3, 79, 122
1, 12998, Note_on_c, 3, 79, 0
1, 13008, Note_on_c, 3, 78, 122
1, 13008, Note_on_c, 9, 38, 113
1, 13032, Note_on_c, 3, 78, 0
1, 13054, Note_on_c, 9, 38, 0
1, 13056, Note_on_c, 0, 38, 117
1, 13056, Note_on_c, 0, 57, 117
1, 13056, Note_on_c, 1, 38, 101
1, 13056, Note_on_c, 2, 50, 85
1, 13056, Note_on_c, 2, 57, 83
1, 13056, Note_on_c, 3, 79, 120
1, 13056, Note_on_c, 3, 81, 90
1, 13056, Note_on_c, 9, 35, 111
1, 13056, Note_on_c, 9, 49, 113
1, 13073, Note_on_c, 3, 79, 0
1, 13089, Note_on_c, 3, 81, 0
1, 13090, Note_on_c, 1, 38, 0
1, 13096, Note_on_c, 9, 35, 0
1, 13100, Note_on_c, 0, 38, 0
1, 13103, Note_on_c, 9, 49, 0
1, 13104, Note_on_c, 0, 50, 117
1, 13104, Note_on_c, 0, 66, 117
1, 13104, Note_on_c, 1, 38, 90
1, 13104, Note_on_c, 3, 74, 122
1, 13104, Note_on_c, 3, 76, 68
1, 13104, Note_on_c, 4, 45, 92
1, 13104, Note_on_c, 4, 50, 106
1, 13104, Note_on_c, 4, 54, 108
1, 13104, Note_on_c, 9, 38, 115
1, 13104, Note_on_c, 9, 42, 104
1, 13104, Note_on_c, 9, 54, 127
1, 13107, Note_on_c, 3, 76, 0
1, 13128, Note_on_c, 0, 38, 112
1, 13128, Note_on_c, 0, 62, 113
1, 13128, Note_on_c, 9, 35, 126
1, 13129, Note_on_c, 9, 38, 0
1, 13133, Note_on_c, 9, 42, 0
1, 13141, Note_on_c, 0, 57, 0
1, 13150, Note_on_c, 9, 54, 0
1, 13152, Note_on_c, 0, 57, 117
1, 13152, Note_on_c, 9, 42, 117
1, 13153, Note_on_c, 9, 35, 0
1, 13158, Note_on_c, 0, 66, 0
1, 13166, Note_on_c, 4, 45, 0
1, 13168, Note_on_c, 0, 62, 0
1, 13170, Note_on_c, 9, 42, 0
1, 13171, Note_on_c, 1, 38, 0
1, 13174, Note_on_c, 4, 50, 0
1, 13176, Note_on_c, 4, 54, 0
1, 13176, Note_on_c, 0, 66, 117
1, 13176, Note_on_c, 1, 38, 94
1, 13176, Note_on_c, 4, 38, 88
1, 13176, Note_on_c, 9, 35, 126
1, 13182, Note_on_c, 0, 38, 0
1, 13191, Note_on_c, 1, 38, 0
1, 13197, Note_on_c, 9, 35, 0
1, 13197, Control_c, 3, 1, 26
1, 13199, Note_on_c, 0, 50, 0
1, 13200, Note_on_c, 0, 50, 117
1, 13200, Note_on_c, 0, 62, 117
1, 13200, Note_on_c, 1, 38, 92
1, 13200, Note_on_c, 4, 45, 85
1, 13200, Note_on_c, 4, 50, 94
1, 13200, Note_on_c, 4, 54, 110
1, 13200, Note_on_c, 9, 38, 116
1, 13200, Note_on_c, 9, 42, 117
1, 13200, Note_on_c, 9, 54, 127
1, 13204, Note_on_c, 0, 50, 0
1, 13207, Control_c, 3, 1, 92
1, 13210, Note_on_c, 0, 57, 0
1, 13215, Control_c, 3, 1, 123
1, 13224, Control_c, 3, 1, 127
1, 13226, Note_on_c, 9, 42, 0
1, 13235, Note_on_c, 1, 38, 0
1, 13241, Note_on_c, 4, 54, 0
1, 13241, Note_on_c, 9, 54, 0
1, 13242, Note_on_c, 4, 50, 0
1, 13242, Note_on_c, 4, 45, 0
1, 13247, Note_on_c, 9, 38, 0
1, 13248, Note_on_c, 0, 43, 117
1, 13248, Note_on_c, 0, 57, 92
1, 13248, Note_on_c, 1, 31, 110
1, 13248, Note_on_c, 2, 43, 90
1, 13248, Note_on_c, 4, 31, 94
1, 13248, Note_on_c, 9, 35, 127
1, 13248, Note_on_c, 9, 42, 92
1, 13251, Note_on_c, 4, 38, 0
1, 13261, Note_on_c, 2, 57, 0
1, 13265, Note_on_c, 9, 42, 0
1, 13266, Note_on_c, 0, 62, 0
1, 13269, Note_on_c, 0, 57, 0
1, 13284, Note_on_c, 1, 31, 0
1, 13287, Note_on_c, 9, 35, 0
1, 13290, Note_on_c, 0, 66, 0
1, 13295, Note_on_c, 3, 74, 0
1, 13296, Note_on_c, 0, 55, 117
1, 13296, Note_on_c, 0, 59, 111
1, 13296, Note_on_c, 0, 67, 117
1, 13296, Note_on_c, 1, 31, 111
1, 13296, Note_on_c, 4, 47, 110
1, 13296, Note_on_c, 4, 50, 112
1, 13296, Note_on_c, 4, 55, 106
1, 13296, Note_on_c, 9, 38, 116
1, 13296, Note_on_c, 9, 42, 117
1, 13296, Note_on_c, 9, 54, 127
1, 13305, Note_on_c, 0, 43, 0
1, 13307, Control_c, 3, 1, 19
1, 13316, Control_c, 3, 1, 0
1, 13318, Note_on_c, 9, 42, 0
1, 13320, Note_on_c, 0, 62, 117
1, 13320, Note_on_c, 9, 35, 118
1, 13323, Note_on_c, 9, 38, 0
1, 13330, Note_on_c, 9, 54, 0
1, 13332, Note_on_c, 0, 59, 0
1, 13342, Note_on_c, 0, 55, 0
1, 13344, Note_on_c, 0, 43, 117
1, 13344, Note_on_c, 0, 59, 117
1, 13344, Note_on_c, 9, 42, 96
1, 13347, Note_on_c, 9, 35, 0
1, 13351, Note_on_c, 4, 31, 0
1, 13351, Note_on_c, 0, 62, 0
1, 13356, Note_on_c, 0, 67, 0
1, 13361, Note_on_c, 9, 42, 0
1, 13364, Note_on_c, 4, 47, 0
1, 13367, Note_on_c, 1, 31, 0
1, 13368, Note_on_c, 0, 67, 117
1, 13368, Note_on_c, 1, 33, 92
1, 13368, Note_on_c, 4, 31, 83
1, 13368, Note_on_c, 9, 35, 127
1, 13370, Note_on_c, 4, 50, 0
1, 13378, Note_on_c, 4, 55, 0
1, 13389, Note_on_c, 1, 33, 0
1, 13392, Note_on_c, 0, 55, 117
1, 13392, Note_on_c, 0, 62, 117
1, 13392, Note_on_c, 1, 35, 90
1, 13392, Note_on_c, 4, 47, 92
1, 13392, Note_on_c, 4, 50, 90
1, 13392, Note_on_c, 4, 55, 101
1, 13392, Note_on_c, 9, 38, 117
1, 13392, Note_on_c, 9, 42, 117
1, 13392, Note_on_c, 9, 54, 127
1, 13394, Note_on_c, 9, 35, 0
1, 13399, Note_on_c, 0, 59, 0
1, 13414, Note_on_c, 0, 55, 0
1, 13416, Note_on_c, 0, 59, 117
1, 13417, Note_on_c, 9, 42, 0
1, 13419, Note_on_c, 0, 43, 0
1, 13422, Note_on_c, 9, 54, 0
1, 13425, Note_on_c, 4, 47, 0
1, 13428, Note_on_c, 0, 62, 0
1, 13429, Note_on_c, 4, 50, 0
1, 13435, Note_on_c, 4, 55, 0
1, 13438, Note_on_c, 1, 35, 0
1, 13438, Note_on_c, 9, 38, 0
1, 13439, Note_on_c, 0, 59, 0
1, 13440, Note_on_c, 0, 38, 117
1, 13440, Note_on_c, 1, 38, 78
1, 13440, Note_on_c, 2, 57, 93
1, 13440, Note_on_c, 4, 38, 112
1, 13440, Note_on_c, 9, 35, 125
1, 13440, Note_on_c, 9, 42, 93
1, 13444, Note_on_c, 0, 67, 0
1, 13447, Note_on_c, 4, 31, 0
1, 13456, Note_on_c, 2, 43, 0
1, 13457, Note_on_c, 9, 42, 0
1, 13474, Note_on_c, 1, 38, 0
1, 13482, Note_on_c, 9, 35, 0
1, 13488, Note_on_c, 0, 50, 117
1, 13488, Note_on_c, 0, 57, 117
1, 13488, Note_on_c, 0, 66, 117
1, 13488, Note_on_c, 1, 38, 92
1, 13488, Note_on_c, 4, 45, 106
1, 13488, Note_on_c, 4, 50, 111
1, 13488, Note_on_c, 4, 54, 112
1, 13488, Note_on_c, 9, 38, 97
1, 13488, Note_on_c, 9, 42, 117
1, 13488, Note_on_c, 9, 54, 127
1, 13501, Note_on_c, 0, 38, 0
1, 13512, Note_on_c, 0, 62, 113
1, 13512, Note_on_c, 9, 35, 127
1, 13513, Note_on_c, 9, 38, 0
1, 13515, Note_on_c, 9, 42, 0
1, 13522, Note_on_c, 0, 57, 0
1, 13524, Note_on_c, 9, 54, 0
1, 13529, Note_on_c, 4, 38, 0
1, 13536, Note_on_c, 9, 35, 0
1, 13536, Note_on_c, 0, 38, 117
1, 13536, Note_on_c, 0, 57, 117
1, 13536, Note_on_c, 3, 74, 122
1, 13536, Note_on_c, 9, 42, 93
1, 13541, Note_on_c, 0, 66, 0
1, 13548, Note_on_c, 1, 38, 0
1, 13549, Note_on_c, 4, 45, 0
1, 13551, Note_on_c, 0, 38, 0
1, 13551, Note_on_c, 0, 62, 0
1, 13553, Note_on_c, 9, 42, 0
1, 13555, Note_on_c, 4, 50, 0
1, 13557, Note_on_c, 4, 54, 0
1, 13560, Note_on_c, 0, 66, 117
1, 13560, Note_on_c, 1, 38, 94
1, 13560, Note_on_c, 4, 38, 96
1, 13560, Note_on_c, 9, 35, 127
1, 13562, Note_on_c, 3, 74, 0
1, 13583, Note_on_c, 0, 50, 0
1, 13584, Note_on_c, 0, 50, 117
1, 13584, Note_on_c, 3, 74, 122
1, 13584, Note_on_c, 4, 45, 77
1, 13584, Note_on_c, 4, 50, 84
1, 13584, Note_on_c, 4, 54, 108
1, 13584, Note_on_c, 9, 38, 117
1, 13584, Note_on_c, 9, 42, 117
1, 13584, Note_on_c, 9, 54, 127
1, 13589, Note_on_c, 0, 50, 0
1, 13591, Note_on_c, 9, 35, 0
1, 13595, Note_on_c, 4, 38, 0
1, 13599, Note_on_c, 0, 57, 0
1, 13607, Note_on_c, 9, 42, 0
1, 13611, Note_on_c, 3, 74, 0
1, 13622, Note_on_c, 1, 38, 0
1, 13622, Note_on_c, 9, 54, 0
1, 13624, Note_on_c, 0, 66, 0
1, 13626, Note_on_c, 9, 38, 0
1, 13632, Note_on_c, 0, 38, 117
1, 13632, Note_on_c, 0, 57, 117
1, 13632, Note_on_c, 1, 38, 103
1, 13632, Note_on_c, 3, 78, 122
1, 13632, Note_on_c, 4, 38, 112
1, 13632, Note_on_c, 9, 35, 125
1, 13632, Note_on_c, 9, 42, 88
1, 13640, Note_on_c, 0, 38, 0
1, 13646, Note_on_c, 9, 42, 0
1, 13651, Note_on_c, 4, 45, 0
1, 13656, Note_on_c, 3, 78, 0
1, 13667, Note_on_c, 1, 38, 0
1, 13671, Note_on_c, 4, 38, 0
1, 13674, Note_on_c, 9, 35, 0
1, 13680, Note_on_c, 0, 50, 117
1, 13680, Note_on_c, 0, 66, 117
1, 13680, Note_on_c, 1, 38, 96
1, 13680, Note_on_c, 3, 78, 122
1, 13680, Note_on_c, 4, 45, 112
1, 13680, Note_on_c, 9, 38, 117
1, 13680, Note_on_c, 9, 42, 117
1, 13680, Note_on_c, 9, 54, 127
1, 13683, Note_on_c, 0, 50, 0
1, 13684, Note_on_c, 4, 50, 0
1, 13697, Note_on_c, 0, 57, 0
1, 13701, Note_on_c, 9, 42, 0
1, 13704, Note_on_c, 0, 62, 113
1, 13704, Note_on_c, 4, 38, 106
1, 13704, Note_on_c, 9, 35, 118
1, 13705, Note_on_c, 4, 54, 0
1, 13706, Note_on_c, 9, 38, 0
1, 13710, Note_on_c, 3, 78, 0
1, 13716, Note_on_c, 9, 54, 0
1, 13728, Note_on_c, 0, 38, 117
1, 13728, Note_on_c, 0, 57, 117
1, 13728, Note_on_c, 3, 79, 122
1, 13728, Note_on_c, 4, 55, 98
1, 13728, Note_on_c, 9, 42, 85
1, 13730, Note_on_c, 9, 35, 0
1, 13732, Note_on_c, 0, 66, 0
1, 13736, Note_on_c, 0, 38, 0
1, 13742, Note_on_c, 0, 62, 0
1, 13744, Note_on_c, 9, 42, 0
1, 13751, Note_on_c, 1, 38, 0
1, 13752, Note_on_c, 0, 66, 117
1, 13752, Note_on_c, 1, 33, 90
1, 13752, Note_on_c, 4, 50, 85
1, 13752, Note_on_c, 9, 35, 127
1, 13757, Note_on_c, 4, 45, 0
1, 13765, Note_on_c, 3, 79, 0
1, 13774, Note_on_c, 0, 57, 0
1, 13774, Note_on_c, 4, 55, 0
1, 13775, Note_on_c, 1, 33, 0
1, 13776, Note_on_c, 0, 50, 117
1, 13776, Note_on_c, 0, 62, 117
1, 13776, Note_on_c, 1, 35, 94
1, 13776, Note_on_c, 3, 78, 121
1, 13776, Note_on_c, 4, 45, 101
1, 13776, Note_on_c, 9, 38, 117
1, 13776, Note_on_c, 9, 42, 117
1, 13776, Note_on_c, 9, 54, 127
1, 13779, Note_on_c, 0, 66, 0
1, 13780, Note_on_c, 9, 35, 0
1, 13784, Note_on_c, 4, 38, 0
1, 13788, Note_on_c, 4, 50, 0
1, 13796, Note_on_c, 3, 78, 0
1, 13796, Note_on_c, 9, 42, 0
1, 13800, Note_on_c, 0, 57, 117
1, 13800, Note_on_c, 3, 79, 116
1, 13800, Note_on_c, 4, 50, 75
1, 13803, Note_on_c, 0, 62, 0
1, 13809, Note_on_c, 9, 54, 0
1, 13812, Note_on_c, 2, 57, 0
1, 13816, Note_on_c, 4, 50, 0
1, 13816, Note_on_c, 4, 45, 0
1, 13819, Note_on_c, 3, 79, 0
1, 13819, Note_on_c, 9, 38, 0
1, 13820, Note_on_c, 0, 57, 0
1, 13822, Note_on_c, 1, 35, 0
1, 13824, Note_on_c, 0, 38, 117
1, 13824, Note_on_c, 1, 38, 98
1, 13824, Note_on_c, 2, 57, 93
1, 13824, Note_on_c, 3, 81, 111
1, 13824, Note_on_c, 4, 38, 112
1, 13824, Note_on_c, 9, 35, 126
1, 13824, Note_on_c, 9, 42, 100
1, 13838, Note_on_c, 9, 42, 0
1, 13855, Note_on_c, 0, 38, 0
1, 13858, Note_on_c, 1, 38, 0
1, 13863, Note_on_c, 9, 35, 0
1, 13870, Note_on_c, 3, 81, 0
1, 13871, Note_on_c, 0, 50, 0
1, 13872, Note_on_c, 0, 50, 117
1, 13872, Note_on_c, 0, 57, 117
1, 13872, Note_on_c, 0, 66, 117
1, 13872, Note_on_c, 1, 38, 106
1, 13872, Note_on_c, 3, 74, 122
1, 13872, Note_on_c, 4, 45, 101
1, 13872, Note_on_c, 4, 50, 108
1, 13872, Note_on_c, 4, 54, 112
1, 13872, Note_on_c, 9, 38, 116
1, 13872, Note_on_c, 9, 42, 117
1, 13872, Note_on_c, 9, 54, 127
1, 13876, Note_on_c, 0, 50, 0
1, 13896, Note_on_c, 9, 42, 0
1, 13896, Note_on_c, 0, 62, 117
1, 13896, Note_on_c, 9, 35, 126
1, 13903, Note_on_c, 0, 57, 0
1, 13903, Note_on_c, 9, 38, 0
1, 13904, Note_on_c, 9, 54, 0
1, 13908, Note_on_c, 0, 66, 0
1, 13920, Note_on_c, 0, 38, 117
1, 13920, Note_on_c, 9, 42, 83
1, 13921, Note_on_c, 9, 35, 0
1, 13925, Note_on_c, 0, 38, 0
1, 13931, Note_on_c, 4, 38, 0
1, 13936, Note_on_c, 4, 45, 0
1, 13937, Note_on_c, 9, 42, 0
1, 13944, Note_on_c, 0, 57, 117
1, 13944, Note_on_c, 0, 66, 117
1, 13944, Note_on_c, 1, 35, 84
1, 13944, Note_on_c, 4, 38, 110
1, 13944, Note_on_c, 4, 45, 84
1, 13944, Note_on_c, 9, 35, 127
1, 13945, Note_on_c, 4, 38, 0
1, 13947, Note_on_c, 4, 54, 0
1, 13947, Control_c, 3, 1, 10
1, 13955, Note_on_c, 1, 38, 0
1, 13955, Control_c, 3, 1, 26
1, 13957, Note_on_c, 0, 62, 0
1, 13962, Control_c, 3, 1, 32
1, 13966, Note_on_c, 1, 35, 0
1, 13967, Note_on_c, 4, 50, 0
1, 13968, Note_on_c, 0, 50, 117
1, 13968, Note_on_c, 1, 33, 71
1, 13968, Note_on_c, 4, 50, 84
1, 13968, Note_on_c, 4, 54, 110
1, 13968, Note_on_c, 9, 38, 117
1, 13968, Note_on_c, 9, 42, 117
1, 13968, Note_on_c, 9, 54, 127
1, 13970, Control_c, 3, 1, 47
1, 13971, Note_on_c, 9, 35, 0
1, 13974, Note_on_c, 0, 50, 0
1, 13979, Note_on_c, 4, 45, 0
1, 13980, Control_c, 3, 1, 91
1, 13988, Control_c, 3, 1, 123
1, 13991, Note_on_c, 0, 57, 0
1, 13991, Note_on_c, 9, 42, 0
1, 13992, Note_on_c, 0, 62, 117
1, 13995, Note_on_c, 9, 54, 0
1, 13998, Control_c, 3, 1, 127
1, 14008, Note_on_c, 1, 33, 0
1, 14009, Note_on_c, 4, 50, 0
1, 14010, Note_on_c, 4, 54, 0
1, 14014, Note_on_c, 9, 38, 0
1, 14016, Note_on_c, 0, 43, 117
1, 14016, Note_on_c, 0, 57, 117
1, 14016, Note_on_c, 1, 31, 110
1, 14016, Note_on_c, 2, 43, 90
1, 14016, Note_on_c, 4, 31, 110
1, 14016, Note_on_c, 9, 35, 116
1, 14016, Note_on_c, 9, 42, 88
1, 14027, Note_on_c, 2, 57, 0
1, 14027, Note_on_c, 0, 62, 0
1, 14028, Note_on_c, 9, 42, 0
1, 14042, Note_on_c, 0, 57, 0
1, 14042, Note_on_c, 0, 66, 0
1, 14054, Note_on_c, 1, 31, 0
1, 14057, Note_on_c, 9, 35, 0
1, 14064, Note_on_c, 0, 55, 117
1, 14064, Note_on_c, 0, 59, 117
1, 14064, Note_on_c, 0, 67, 117
1, 14064, Note_on_c, 1, 31, 101
1, 14064, Note_on_c, 4, 47, 101
1, 14064, Note_on_c, 4, 50, 110
1, 14064, Note_on_c, 4, 55, 108
1, 14064, Note_on_c, 9, 38, 117
1, 14064, Note_on_c, 9, 42, 117
1, 14064, Note_on_c, 9, 54, 127
1, 14069, Note_on_c, 3, 74, 0
1, 14080, Note_on_c, 0, 43, 0
1, 14084, Note_on_c, 9, 42, 0
1, 14085, Control_c, 3, 1, 109
1, 14088, Note_on_c, 9, 54, 0
1, 14088, Note_on_c, 0, 62, 117
1, 14088, Note_on_c, 9, 35, 123
1, 14093, Control_c, 3, 1, 0
1, 14095, Note_on_c, 9, 38, 0
1, 14097, Note_on_c, 0, 59, 0
1, 14107, Note_on_c, 4, 31, 0
1, 14112, Note_on_c, 0, 43, 117
1, 14112, Note_on_c, 0, 59, 117
1, 14112, Note_on_c, 9, 42, 82
1, 14115, Note_on_c, 0, 67, 0
1, 14116, Note_on_c, 9, 35, 0
1, 14120, Note_on_c, 0, 62, 0
1, 14121, Note_on_c, 0, 43, 0
1, 14124, Note_on_c, 9, 42, 0
1, 14128, Note_on_c, 4, 47, 0
1, 14136, Note_on_c, 0, 67, 117
1, 14136, Note_on_c, 1, 33, 88
1, 14136, Note_on_c, 4, 31, 94
1, 14136, Note_on_c, 4, 47, 101
1, 14136, Note_on_c, 9, 35, 126
1, 14137, Note_on_c, 4, 50, 0
1, 14144, Note_on_c, 1, 31, 0
1, 14144, Note_on_c, 4, 55, 0
1, 14158, Note_on_c, 1, 33, 0
1, 14159, Note_on_c, 0, 55, 0
1, 14160, Note_on_c, 0, 55, 117
1, 14160, Note_on_c, 0, 62, 116
1, 14160, Note_on_c, 1, 35, 92
1, 14160, Note_on_c, 4, 50, 88
1, 14160, Note_on_c, 4, 55, 108
1, 14160, Note_on_c, 9, 38, 116
1, 14160, Note_on_c, 9, 42, 117
1, 14160, Note_on_c, 9, 54, 127
1, 14161, Note_on_c, 9, 35, 0
1, 14164, Note_on_c, 0, 55, 0
1, 14165, Note_on_c, 0, 59, 0
1, 14180, Note_on_c, 9, 42, 0
1, 14184, Note_on_c, 0, 59, 117
1, 14185, Note_on_c, 9, 54, 0
1, 14189, Note_on_c, 4, 47, 0
1, 14192, Note_on_c, 0, 62, 0
1, 14203, Note_on_c, 4, 55, 0
1, 14204, Note_on_c, 4, 50, 0
1, 14207, Note_on_c, 2, 50, 0
1, 14207, Note_on_c, 0, 67, 0
1, 14207, Note_on_c, 0, 59, 0
1, 14208, Note_on_c, 0, 38, 117
1, 14208, Note_on_c, 1, 38, 103
1, 14208, Note_on_c, 2, 50, 85
1, 14208, Note_on_c, 2, 57, 88
1, 14208, Note_on_c, 4, 38, 112
1, 14208, Note_on_c, 9, 35, 118
1, 14208, Note_on_c, 9, 42, 96
1, 14209, Note_on_c, 9, 38, 0
1, 14210, Note_on_c, 4, 31, 0
1, 14212, Note_on_c, 1, 35, 0
1, 14217, Note_on_c, 2, 43, 0
1, 14218, Note_on_c, 2, 50, 0
1, 14223, Note_on_c, 9, 42, 0
1, 14242, Note_on_c, 1, 38, 0
1, 14248, Note_on_c, 9, 35, 0
1, 14256, Note_on_c, 0, 50, 117
1, 14256, Note_on_c, 0, 57, 117
1, 14256, Note_on_c, 0, 66, 117
1, 14256, Note_on_c, 1, 38, 98
1, 14256, Note_on_c, 4, 45, 98
1, 14256, Note_on_c, 4, 50, 108
1, 14256, Note_on_c, 4, 54, 110
1, 14256, Note_on_c, 9, 38, 113
1, 14256, Note_on_c, 9, 42, 117
1, 14256, Note_on_c, 9, 54, 127
1, 14263, Note_on_c, 0, 38, 0
1, 14278, Note_on_c, 9, 42, 0
1, 14280, Note_on_c, 9, 54, 0
1, 14280, Note_on_c, 0, 62, 112
1, 14280, Note_on_c, 9, 35, 113
1, 14285, Note_on_c, 9, 38, 0
1, 14288, Note_on_c, 0, 57, 0
1, 14293, Note_on_c, 0, 66, 0
1, 14304, Note_on_c, 0, 38, 117
1, 14304, Note_on_c, 0, 57, 117
1, 14304, Note_on_c, 3, 74, 122
1, 14304, Note_on_c, 9, 42, 82
1, 14307, Note_on_c, 9, 35, 0
1, 14314, Note_on_c, 1, 38, 0
1, 14319, Note_on_c, 4, 38, 0
1, 14320, Note_on_c, 9, 42, 0
1, 14327, Note_on_c, 0, 38, 0
1, 14328, Note_on_c, 0, 38, 113
1, 14328, Note_on_c, 0, 66, 117
1, 14328, Note_on_c, 1, 38, 88
1, 14328, Note_on_c, 4, 38, 112
1, 14328, Note_on_c, 9, 35, 127
1, 14330, Note_on_c, 3, 74, 0
1, 14331, Note_on_c, 0, 38, 0
1, 14331, Note_on_c, 0, 62, 0
1, 14334, Note_on_c, 4, 54, 0
1, 14335, Note_on_c, 0, 50, 0
1, 14335, Note_on_c, 4, 45, 0
1, 14337, Note_on_c, 4, 38, 0
1, 14351, Note_on_c, 4, 50, 0
1, 14352, Note_on_c, 0, 50, 117
1, 14352, Note_on_c, 3, 74, 122
1, 14352, Note_on_c, 4, 45, 81
1, 14352, Note_on_c, 4, 50, 96
1, 14352, Note_on_c, 4, 54, 108
1, 14352, Note_on_c, 9, 38, 117
1, 14352, Note_on_c, 9, 42, 117
1, 14352, Note_on_c, 9, 54, 127
1, 14359, Note_on_c, 9, 35, 0
1, 14374, Note_on_c, 9, 42, 0
1, 14375, Note_on_c, 9, 54, 0
1, 14378, Note_on_c, 4, 50, 0
1, 14381, Note_on_c, 3, 74, 0
1, 14393, Note_on_c, 1, 38, 0
1, 14400, Note_on_c, 9, 38, 0
1, 14400, Note_on_c, 0, 38, 117
1, 14400, Note_on_c, 1, 38, 92
1, 14400, Note_on_c, 3, 78, 122
1, 14400, Note_on_c, 4, 38, 112
1, 14400, Note_on_c, 9, 35, 121
1, 14400, Note_on_c, 9, 42, 94
1, 14402, Note_on_c, 4, 45, 0
1, 14402, Note_on_c, 0, 66, 0
1, 14404, Note_on_c, 4, 54, 0
1, 14405, Note_on_c, 4, 38, 0
1, 14412, Note_on_c, 9, 42, 0
1, 14413, Note_on_c, 0, 38, 0
1, 14426, Note_on_c, 3, 78, 0
1, 14437, Note_on_c, 1, 38, 0
1, 14442, Note_on_c, 9, 35, 0
1, 14447, Note_on_c, 0, 50, 0
1, 14448, Note_on_c, 0, 50, 117
1, 14448, Note_on_c, 0, 66, 117
1, 14448, Note_on_c, 1, 38, 88
1, 14448, Note_on_c, 3, 78, 122
1, 14448, Note_on_c, 4, 45, 110
1, 14448, Note_on_c, 9, 38, 117
1, 14448, Note_on_c, 9, 42, 117
1, 14448, Note_on_c, 9, 54, 127
1, 14460, Note_on_c, 0, 50, 0
1, 14461, Note_on_c, 0, 57, 0
1, 14467, Note_on_c, 1, 38, 0
1, 14471, Note_on_c, 9, 54, 0
1, 14472, Note_on_c, 0, 62, 117
1, 14472, Note_on_c, 1, 38, 74
1, 14472, Note_on_c, 4, 50, 88
1, 14472, Note_on_c, 9, 35, 109
1, 14474, Note_on_c, 9, 42, 0
1, 14476, Note_on_c, 9, 38, 0
1, 14482, Note_on_c, 3, 78, 0
1, 14484, Note_on_c, 0, 66, 0
1, 14496, Note_on_c, 0, 38, 117
1, 14496, Note_on_c, 0, 57, 109
1, 14496, Note_on_c, 3, 79, 122
1, 14496, Note_on_c, 4, 54, 111
1, 14496, Note_on_c, 9, 42, 113
1, 14500, Note_on_c, 0, 38, 0
1, 14500, Note_on_c, 9, 35, 0
1, 14508, Note_on_c, 9, 42, 0
1, 14508, Note_on_c, 4, 50, 0
1, 14509, Note_on_c, 0, 62, 0
1, 14513, Note_on_c, 4, 45, 0
1, 14516, Note_on_c, 1, 38, 0
1, 14520, Note_on_c, 0, 66, 117
1, 14520, Note_on_c, 1, 38, 88
1, 14520, Note_on_c, 4, 38, 90
1, 14520, Note_on_c, 9, 35, 127
1, 14541, Note_on_c, 4, 38, 0
1, 14541, Note_on_c, 0, 57, 0
1, 14544, Note_on_c, 0, 50, 117
1, 14544, Note_on_c, 0, 50, 0
1, 14544, Note_on_c, 0, 62, 117
1, 14544, Note_on_c, 3, 78, 121
1, 14544, Note_on_c, 4, 45, 106
1, 14544, Note_on_c, 9, 38, 117
1, 14544, Note_on_c, 9, 42, 117
1, 14546, Note_on_c, 3, 79, 0
1, 14546, Note_on_c, 9, 35, 0
1, 14550, Note_on_c, 4, 54, 0
1, 14552, Note_on_c, 0, 66, 0
1, 14568, Note_on_c, 3, 78, 0
1, 14568, Note_on_c, 0, 57, 113
1, 14568, Note_on_c, 0, 66, 78
1, 14568, Note_on_c, 4, 50, 80
1, 14568, Note_on_c, 4, 54, 81
1, 14575, Note_on_c, 9, 42, 0
1, 14577, Note_on_c, 0, 62, 0
1, 14580, Note_on_c, 1, 38, 0
1, 14582, Note_on_c, 4, 45, 0
1, 14583, Note_on_c, 0, 66, 0
1, 14589, Note_on_c, 9, 38, 0
1, 14590, Note_on_c, 2, 57, 0
1, 14592, Note_on_c, 0, 57, 0
1, 14592, Note_on_c, 0, 43, 117
1, 14592, Note_on_c, 1, 31, 112
1, 14592, Note_on_c, 2, 43, 88
1, 14592, Note_on_c, 3, 79, 122
1, 14592, Note_on_c, 4, 31, 112
1, 14592, Note_on_c, 9, 35, 116
1, 14592, Note_on_c, 9, 45, 117
1, 14592, Note_on_c, 9, 54, 90
1, 14593, Note_on_c, 4, 50, 0
1, 14600, Pitch_bend_c, 3, 9830
1, 14601, Note_on_c, 4, 54, 0
1, 14604, Pitch_bend_c, 3, 12271
1, 14608, Note_on_c, 9, 54, 0
1, 14610, Pitch_bend_c, 3, 16383
1, 14616, Note_on_c, 9, 54, 110
1, 14621, Pitch_bend_c, 3, 16094
1, 14624, Note_on_c, 3, 79, 0
1, 14626, Pitch_bend_c, 3, 11757
1, 14630, Note_on_c, 1, 31, 0
1, 14630, Pitch_bend_c, 3, 9830
1, 14634, Note_on_c, 9, 35, 0
1, 14634, Pitch_bend_c, 3, 8192
1, 14638, Note_on_c, 9, 54, 0
1, 14640, Note_on_c, 0, 55, 117
1, 14640, Note_on_c, 0, 59, 117
1, 14640, Note_on_c, 0, 67, 117
1, 14640, Note_on_c, 1, 31, 103
1, 14640, Note_on_c, 3, 79, 122
1, 14640, Note_on_c, 4, 43, 90
1, 14640, Note_on_c, 4, 47, 103
1, 14640, Note_on_c, 4, 50, 108
1, 14640, Note_on_c, 4, 55, 110
1, 14640, Note_on_c, 9, 38, 117
1, 14640, Note_on_c, 9, 42, 117
1, 14640, Note_on_c, 9, 54, 126
1, 14645, Pitch_bend_c, 3, 8673
1, 14651, Note_on_c, 0, 43, 0
1, 14653, Pitch_bend_c, 3, 16383
1, 14657, Note_on_c, 9, 54, 0
1, 14658, Note_on_c, 9, 45, 0
1, 14660, Note_on_c, 9, 38, 0
1, 14660, Note_on_c, 0, 59, 0
1, 14664, Note_on_c, 0, 62, 116
1, 14664, Note_on_c, 9, 35, 99
1, 14664, Note_on_c, 9, 43, 116
1, 14664, Note_on_c, 9, 54, 107
1, 14674, Note_on_c, 9, 42, 0
1, 14681, Note_on_c, 9, 54, 0
1, 14684, Note_on_c, 0, 55, 0
1, 14686, Note_on_c, 9, 35, 0
1, 14687, Note_on_c, 0, 67, 0
1, 14688, Note_on_c, 0, 43, 117
1, 14688, Note_on_c, 0, 59, 117
1, 14688, Note_on_c, 9, 54, 87
1, 14693, Note_on_c, 0, 62, 0
1, 14700, Note_on_c, 1, 31, 0
1, 14700, Note_on_c, 4, 47, 0
1, 14706, Note_on_c, 9, 54, 0
1, 14712, Note_on_c, 0, 55, 117
1, 14712, Note_on_c, 0, 67, 117
1, 14712, Note_on_c, 9, 35, 127
1, 14712, Note_on_c, 9, 54, 102
1, 14716, Control_c, 3, 1, 9
1, 14718, Note_on_c, 4, 55, 0
1, 14718, Note_on_c, 4, 50, 0
1, 14725, Control_c, 3, 1, 14
1, 14729, Note_on_c, 9, 54, 0
1, 14735, Control_c, 3, 1, 20
1, 14736, Note_on_c, 0, 62, 117
1, 14736, Note_on_c, 1, 31, 112
1, 14736, Note_on_c, 4, 47, 92
1, 14736, Note_on_c, 4, 50, 81
1, 14736, Note_on_c, 4, 55, 106
1, 14736, Note_on_c, 9, 38, 113
1, 14736, Note_on_c, 9, 42, 117
1, 14736, Note_on_c, 9, 54, 127
1, 14738, Note_on_c, 4, 43, 0
1, 14740, Note_on_c, 9, 35, 0
1, 14741, Note_on_c, 0, 59, 0
1, 14743, Control_c, 3, 1, 29
1, 14749, Note_on_c, 0, 43, 0
1, 14751, Control_c, 3, 1, 33
1, 14755, Note_on_c, 0, 55, 0
1, 14756, Note_on_c, 9, 54, 0
1, 14756, Note_on_c, 0, 67, 0
1, 14760, Note_on_c, 0, 59, 117
1, 14760, Control_c, 3, 1, 41
1, 14760, Note_on_c, 9, 54, 107
1, 14765, Note_on_c, 0, 62, 0
1, 14768, Note_on_c, 4, 31, 0
1, 14771, Control_c, 3, 1, 57
1, 14772, Note_on_c, 9, 42, 0
1, 14778, Note_on_c, 9, 54, 0
1, 14778, Note_on_c, 1, 31, 0
1, 14780, Note_on_c, 9, 43, 0
1, 14780, Control_c, 3, 1, 85
1, 14782, Note_on_c, 0, 59, 0
1, 14784, Note_on_c, 2, 43, 0
1, 14784, Note_on_c, 0, 41, 117
1, 14784, Note_on_c, 1, 29, 112
1, 14784, Note_on_c, 2, 41, 90
1, 14784, Note_on_c, 2, 48, 90
1, 14784, Note_on_c, 4, 29, 110
1, 14784, Note_on_c, 9, 35, 118
1, 14784, Note_on_c, 9, 45, 117
1, 14784, Note_on_c, 9, 54, 82
1, 14786, Note_on_c, 9, 38, 0
1, 14788, Control_c, 3, 1, 125
1, 14793, Note_on_c, 4, 55, 0
1, 14794, Note_on_c, 4, 50, 0
1, 14796, Control_c, 3, 1, 127
1, 14800, Note_on_c, 4, 47, 0
1, 14802, Note_on_c, 9, 54, 0
1, 14808, Note_on_c, 9, 54, 105
1, 14826, Note_on_c, 9, 54, 0
1, 14829, Note_on_c, 9, 35, 0
1, 14832, Note_on_c, 0, 53, 117
1, 14832, Note_on_c, 0, 57, 117
1, 14832, Note_on_c, 0, 65, 117
1, 14832, Note_on_c, 4, 45, 98
1, 14832, Note_on_c, 4, 48, 101
1, 14832, Note_on_c, 4, 53, 108
1, 14832, Note_on_c, 9, 38, 117
1, 14832, Note_on_c, 9, 42, 117
1, 14832, Note_on_c, 9, 54, 127
1, 14843, Note_on_c, 1, 29, 0
1, 14845, Note_on_c, 0, 41, 0
1, 14852, Note_on_c, 9, 54, 0
1, 14853, Note_on_c, 0, 57, 0
1, 14853, Note_on_c, 9, 45, 0
1, 14856, Note_on_c, 0, 60, 117
1, 14856, Note_on_c, 1, 29, 111
1, 14856, Note_on_c, 9, 35, 123
1, 14856, Note_on_c, 9, 43, 117
1, 14856, Note_on_c, 9, 54, 108
1, 14861, Note_on_c, 9, 38, 0
1, 14868, Note_on_c, 9, 42, 0
1, 14870, Note_on_c, 0, 65, 0
1, 14873, Note_on_c, 9, 54, 0
1, 14880, Note_on_c, 0, 41, 117
1, 14880, Note_on_c, 9, 54, 87
1, 14885, Note_on_c, 0, 41, 0
1, 14888, Note_on_c, 9, 35, 0
1, 14892, Note_on_c, 9, 54, 0
1, 14899, Note_on_c, 4, 45, 0
1, 14900, Note_on_c, 4, 53, 0
1, 14900, Note_on_c, 0, 60, 0
1, 14902, Note_on_c, 4, 48, 0
1, 14904, Note_on_c, 3, 79, 0
1, 14904, Note_on_c, 0, 57, 117
1, 14904, Note_on_c, 0, 65, 117
1, 14904, Note_on_c, 4, 41, 98
1, 14904, Note_on_c, 9, 35, 127
1, 14904, Note_on_c, 9, 54, 107
1, 14906, Control_c, 3, 1, 111
1, 14915, Control_c, 3, 1, 0
1, 14916, Note_on_c, 1, 29, 0
1, 14919, Pitch_bend_c, 3, 13749
1, 14925, Pitch_bend_c, 3, 8192
1, 14927, Note_on_c, 0, 53, 0
1, 14928, Note_on_c, 9, 54, 0
1, 14928, Note_on_c, 0, 53, 117
1, 14928, Note_on_c, 1, 29, 112
1, 14928, Note_on_c, 4, 45, 88
1, 14928, Note_on_c, 4, 48, 106
1, 14928, Note_on_c, 4, 53, 112
1, 14928, Note_on_c, 9, 38, 117
1, 14928, Note_on_c, 9, 42, 117
1, 14928, Note_on_c, 9, 54, 127
1, 14937, Note_on_c, 9, 35, 0
1, 14941, Note_on_c, 4, 29, 0
1, 14948, Note_on_c, 0, 57, 0
1, 14950, Note_on_c, 0, 53, 0
1, 14952, Note_on_c, 9, 54, 0
1, 14952, Note_on_c, 0, 60, 111
1, 14952, Note_on_c, 9, 54, 105
1, 14961, Note_on_c, 0, 65, 0
1, 14964, Note_on_c, 1, 29, 0
1, 14964, Note_on_c, 4, 41, 0
1, 14967, Note_on_c, 4, 45, 0
1, 14968, Note_on_c, 9, 54, 0
1, 14968, Note_on_c, 4, 48, 0
1, 14969, Note_on_c, 4, 53, 0
1, 14969, Note_on_c, 9, 42, 0
1, 14971, Note_on_c, 2, 48, 0
1, 14976, Note_on_c, 9, 38, 0
1, 14976, Note_on_c, 0, 43, 117
1, 14976, Note_on_c, 0, 57, 117
1, 14976, Note_on_c, 1, 31, 112
1, 14976, Note_on_c, 2, 43, 90
1, 14976, Note_on_c, 2, 50, 88
1, 14976, Note_on_c, 4, 31, 112
1, 14976, Note_on_c, 9, 35, 127
1, 14976, Note_on_c, 9, 45, 117
1, 14976, Note_on_c, 9, 54, 85
1, 14979, Note_on_c, 9, 43, 0
1, 14981, Note_on_c, 2, 41, 0
1, 14982, Note_on_c, 0, 60, 0
1, 14991, Note_on_c, 0, 57, 0
1, 14992, Note_on_c, 9, 54, 0
1, 15000, Note_on_c, 9, 54, 106
1, 15016, Note_on_c, 9, 54, 0
1, 15021, Note_on_c, 9, 35, 0
1, 15024, Note_on_c, 0, 55, 117
1, 15024, Note_on_c, 0, 59, 117
1, 15024, Note_on_c, 0, 67, 117
1, 15024, Note_on_c, 4, 43, 92
1, 15024, Note_on_c, 4, 47, 108
1, 15024, Note_on_c, 4, 50, 112
1, 15024, Note_on_c, 4, 55, 110
1, 15024, Note_on_c, 9, 38, 117
1, 15024, Note_on_c, 9, 42, 117
1, 15024, Note_on_c, 9, 54, 126
1, 15035, Note_on_c, 1, 31, 0
1, 15036, Note_on_c, 0, 43, 0
1, 15045, Note_on_c, 9, 54, 0
1, 15048, Note_on_c, 0, 62, 117
1, 15048, Note_on_c, 1, 31, 110
1, 15048, Note_on_c, 9, 35, 126
1, 15048, Note_on_c, 9, 43, 117
1, 15048, Note_on_c, 9, 54, 114
1, 15049, Note_on_c, 9, 38, 0
1, 15054, Note_on_c, 9, 45, 0
1, 15059, Note_on_c, 9, 42, 0
1, 15060, Note_on_c, 0, 59, 0
1, 15065, Note_on_c, 9, 54, 0
1, 15072, Note_on_c, 0, 43, 117
1, 15072, Note_on_c, 3, 74, 122
1, 15072, Note_on_c, 9, 54, 87
1, 15078, Note_on_c, 9, 35, 0
1, 15084, Note_on_c, 0, 67, 0
1, 15084, Note_on_c, 4, 47, 0
1, 15084, Note_on_c, 0, 62, 0
1, 15088, Note_on_c, 4, 55, 0
1, 15089, Note_on_c, 9, 54, 0
1, 15093, Note_on_c, 4, 50, 0
1, 15094, Note_on_c, 9, 43, 0
1, 15096, Note_on_c, 0, 59, 117
1, 15096, Note_on_c, 0, 67, 117
1, 15096, Note_on_c, 9, 35, 127
1, 15096, Note_on_c, 9, 54, 105
1, 15099, Note_on_c, 0, 43, 0
1, 15100, Note_on_c, 3, 74, 0
1, 15103, Note_on_c, 1, 31, 0
1, 15108, Note_on_c, 4, 43, 0
1, 15113, Note_on_c, 9, 54, 0
1, 15119, Note_on_c, 0, 55, 0
1, 15120, Note_on_c, 0, 55, 117
1, 15120, Note_on_c, 1, 31, 110
1, 15120, Note_on_c, 3, 74, 122
1, 15120, Note_on_c, 4, 47, 58
1, 15120, Note_on_c, 4, 50, 103
1, 15120, Note_on_c, 4, 55, 111
1, 15120, Note_on_c, 9, 38, 117
1, 15120, Note_on_c, 9, 42, 117
1, 15120, Note_on_c, 9, 43, 108
1, 15120, Note_on_c, 9, 54, 127
1, 15124, Note_on_c, 9, 35, 0
1, 15128, Note_on_c, 0, 55, 0
1, 15135, Note_on_c, 0, 59, 0
1, 15140, Note_on_c, 9, 54, 0
1, 15144, Note_on_c, 4, 43, 106
1, 15144, Note_on_c, 9, 54, 110
1, 15157, Note_on_c, 3, 74, 0
1, 15161, Note_on_c, 1, 31, 0
1, 15161, Note_on_c, 9, 54, 0
1, 15161, Note_on_c, 9, 42, 0
1, 15162, Note_on_c, 4, 31, 0
1, 15162, Note_on_c, 9, 43, 0
1, 15165, Note_on_c, 9, 38, 0
1, 15167, Note_on_c, 4, 43, 0
1, 15168, Note_on_c, 0, 43, 117
1, 15168, Note_on_c, 0, 59, 117
1, 15168, Note_on_c, 1, 31, 112
1, 15168, Note_on_c, 3, 78, 121
1, 15168, Note_on_c, 4, 31, 103
1, 15168, Note_on_c, 9, 35, 127
1, 15168, Note_on_c, 9, 45, 117
1, 15168, Note_on_c, 9, 54, 85
1, 15169, Note_on_c, 4, 50, 0
1, 15173, Note_on_c, 4, 47, 0
1, 15179, Note_on_c, 0, 67, 0
1, 15186, Note_on_c, 9, 54, 0
1, 15192, Note_on_c, 9, 54, 105
1, 15193, Note_on_c, 3, 78, 0
1, 15205, Note_on_c, 9, 35, 0
1, 15208, Note_on_c, 9, 54, 0
1, 15215, Note_on_c, 4, 55, 0
1, 15216, Note_on_c, 0, 43, 0
1, 15216, Note_on_c, 0, 55, 117
1, 15216, Note_on_c, 0, 67, 117
1, 15216, Note_on_c, 3, 78, 121
1, 15216, Note_on_c, 4, 47, 108
1, 15216, Note_on_c, 4, 50, 112
1, 15216, Note_on_c, 4, 55, 111
1, 15216, Note_on_c, 9, 38, 117
1, 15216, Note_on_c, 9, 42, 117
1, 15216, Note_on_c, 9, 54, 127
1, 15220, Note_on_c, 1, 31, 0
1, 15236, Note_on_c, 9, 54, 0
1, 15240, Note_on_c, 9, 45, 0
1, 15240, Note_on_c, 0, 62, 117
1, 15240, Note_on_c, 1, 31, 98
1, 15240, Note_on_c, 9, 35, 127
1, 15240, Note_on_c, 9, 43, 116
1, 15240, Note_on_c, 9, 54, 107
1, 15241, Note_on_c, 0, 59, 0
1, 15243, Note_on_c, 9, 38, 0
1, 15249, Note_on_c, 3, 78, 0
1, 15253, Note_on_c, 9, 42, 0
1, 15261, Note_on_c, 9, 54, 0
1, 15262, Note_on_c, 9, 35, 0
1, 15264, Note_on_c, 4, 55, 0
1, 15264, Note_on_c, 0, 43, 117
1, 15264, Note_on_c, 3, 79, 122
1, 15264, Note_on_c, 9, 54, 77
1, 15269, Note_on_c, 0, 43, 0
1, 15277, Note_on_c, 0, 67, 0
1, 15279, Note_on_c, 0, 62, 0
1, 15281, Note_on_c, 4, 47, 0
1, 15283, Note_on_c, 9, 54, 0
1, 15288, Note_on_c, 0, 59, 111
1, 15288, Note_on_c, 0, 67, 117
1, 15288, Note_on_c, 4, 43, 106
1, 15288, Note_on_c, 9, 35, 127
1, 15288, Note_on_c, 9, 54, 105
1, 15293, Note_on_c, 9, 43, 0
1, 15297, Note_on_c, 4, 43, 0
1, 15297, Note_on_c, 4, 50, 0
1, 15302, Note_on_c, 3, 79, 0
1, 15304, Note_on_c, 9, 54, 0
1, 15311, Note_on_c, 0, 55, 0
1, 15312, Note_on_c, 0, 55, 117
1, 15312, Note_on_c, 0, 62, 117
1, 15312, Note_on_c, 1, 33, 112
1, 15312, Note_on_c, 2, 45, 89
1, 15312, Note_on_c, 3, 78, 120
1, 15312, Note_on_c, 4, 47, 88
1, 15312, Note_on_c, 4, 50, 103
1, 15312, Note_on_c, 4, 55, 110
1, 15312, Note_on_c, 9, 38, 117
1, 15312, Note_on_c, 9, 42, 117
1, 15312, Note_on_c, 9, 43, 117
1, 15312, Note_on_c, 9, 54, 127
1, 15316, Note_on_c, 9, 35, 0
1, 15317, Note_on_c, 2, 50, 0
1, 15317, Note_on_c, 1, 31, 0
1, 15326, Note_on_c, 2, 43, 0
1, 15327, Note_on_c, 0, 55, 0
1, 15329, Note_on_c, 0, 59, 0
1, 15332, Note_on_c, 9, 54, 0
1, 15336, Note_on_c, 0, 59, 117
1, 15336, Note_on_c, 1, 35, 108
1, 15336, Note_on_c, 9, 54, 100
1, 15337, Note_on_c, 3, 78, 0
1, 15338, Note_on_c, 1, 33, 0
1, 15343, Note_on_c, 0, 62, 0
1, 15349, Note_on_c, 9, 43, 0
1, 15352, Note_on_c, 4, 50, 0
1, 15353, Note_on_c, 2, 45, 0
1, 15353, Note_on_c, 4, 55, 0
1, 15354, Note_on_c, 4, 47, 0
1, 15354, Note_on_c, 9, 42, 0
1, 15354, Note_on_c, 4, 31, 0
1, 15354, Note_on_c, 9, 54, 0
1, 15356, Note_on_c, 0, 67, 0
1, 15360, Note_on_c, 0, 59, 0
1, 15360, Note_on_c, 0, 38, 117
1, 15360, Note_on_c, 0, 50, 117
1, 15360, Note_on_c, 1, 38, 110
1, 15360, Note_on_c, 2, 47, 81
1, 15360, Note_on_c, 2, 50, 91
1, 15360, Note_on_c, 2, 55, 87
1, 15360, Note_on_c, 2, 57, 84
1, 15360, Note_on_c, 3, 79, 122
1, 15360, Note_on_c, 4, 38, 112
1, 15360, Note_on_c, 9, 35, 127
1, 15360, Note_on_c, 9, 49, 110
1, 15363, Note_on_c, 1, 35, 0
1, 15366, Pitch_bend_c, 3, 8352
1, 15370, Note_on_c, 9, 38, 0
1, 15371, Note_on_c, 2, 55, 0
1, 15371, Pitch_bend_c, 3, 11982
1, 15375, Pitch_bend_c, 3, 16383
1, 15387, Note_on_c, 2, 47, 0
1, 15400, Note_on_c, 0, 50, 0
1, 15406, Note_on_c, 9, 35, 0
1, 15407, Note_on_c, 9, 49, 0
1, 15408, Note_on_c, 0, 50, 117
1, 15408, Note_on_c, 0, 66, 117
1, 15408, Note_on_c, 3, 74, 121
1, 15408, Pitch_bend_c, 3, 8192
1, 15408, Note_on_c, 4, 45, 96
1, 15408, Note_on_c, 4, 50, 108
1, 15408, Note_on_c, 4, 54, 112
1, 15408, Note_on_c, 9, 38, 117
1, 15408, Note_on_c, 9, 42, 110
1, 15408, Note_on_c, 9, 54, 127
1, 15411, Note_on_c, 1, 38, 0
1, 15412, Note_on_c, 3, 79, 0
1, 15416, Note_on_c, 0, 38, 0
1, 15432, Note_on_c, 0, 62, 117
1, 15432, Note_on_c, 1, 38, 103
1, 15432, Note_on_c, 9, 35, 125
1, 15434, Note_on_c, 9, 42, 0
1, 15438, Note_on_c, 9, 38, 0
1, 15445, Note_on_c, 9, 54, 0
1, 15453, Note_on_c, 0, 66, 0
1, 15456, Note_on_c, 0, 38, 117
1, 15456, Note_on_c, 0, 57, 117
1, 15456, Note_on_c, 9, 42, 113
1, 15457, Note_on_c, 4, 38, 0
1, 15459, Note_on_c, 0, 38, 0
1, 15461, Note_on_c, 9, 35, 0
1, 15467, Note_on_c, 0, 62, 0
1, 15470, Note_on_c, 4, 45, 0
1, 15475, Note_on_c, 4, 50, 0
1, 15476, Note_on_c, 4, 54, 0
1, 15476, Note_on_c, 9, 42, 0
1, 15480, Note_on_c, 0, 66, 117
1, 15480, Note_on_c, 4, 38, 106
1, 15480, Note_on_c, 9, 35, 127
1, 15493, Note_on_c, 1, 38, 0
1, 15500, Control_c, 3, 1, 6
1, 15501, Note_on_c, 0, 57, 0
1, 15503, Note_on_c, 0, 50, 0
1, 15504, Note_on_c, 0, 50, 117
1, 15504, Note_on_c, 0, 62, 117
1, 15504, Note_on_c, 1, 38, 111
1, 15504, Note_on_c, 4, 45, 85
1, 15504, Note_on_c, 4, 50, 85
1, 15504, Note_on_c, 4, 54, 110
1, 15504, Note_on_c, 9, 38, 103
1, 15504, Note_on_c, 9, 42, 117
1, 15504, Note_on_c, 9, 54, 127
1, 15507, Note_on_c, 9, 35, 0
1, 15508, Control_c, 3, 1, 57
1, 15510, Note_on_c, 0, 50, 0
1, 15517, Control_c, 3, 1, 124
1, 15526, Control_c, 3, 1, 127
1, 15528, Note_on_c, 2, 57, 0
1, 15528, Note_on_c, 0, 57, 117
1, 15530, Note_on_c, 9, 42, 0
1, 15537, Note_on_c, 0, 62, 0
1, 15549, Note_on_c, 2, 50, 0
1, 15550, Note_on_c, 9, 54, 0
1, 15552, Note_on_c, 1, 38, 0
1, 15552, Note_on_c, 4, 45, 0
1, 15552, Note_on_c, 9, 38, 0
1, 15552, Note_on_c, 4, 54, 0
1, 15552, Note_on_c, 0, 43, 117
1, 15552, Note_on_c, 0, 55, 117
1, 15552, Note_on_c, 1, 31, 110
1, 15552, Note_on_c, 2, 45, 85
1, 15552, Note_on_c, 4, 31, 112
1, 15552, Note_on_c, 9, 35, 126
1, 15552, Note_on_c, 9, 42, 98
1, 15553, Note_on_c, 4, 50, 0
1, 15554, Note_on_c, 0, 66, 0
1, 15556, Note_on_c, 0, 57, 0
1, 15556, Note_on_c, 4, 38, 0
1, 15569, Note_on_c, 9, 42, 0
1, 15570, Note_on_c, 3, 74, 0
1, 15573, Note_on_c, 2, 45, 0
1, 15576, Note_on_c, 2, 43, 92
1, 15580, Control_c, 3, 1, 118
1, 15589, Control_c, 3, 1, 0
1, 15592, Note_on_c, 9, 35, 0
1, 15599, Note_on_c, 0, 55, 0
1, 15600, Note_on_c, 0, 59, 117
1, 15600, Note_on_c, 0, 67, 117
1, 15600, Note_on_c, 4, 47, 110
1, 15600, Note_on_c, 4, 50, 111
1, 15600, Note_on_c, 4, 55, 88
1, 15600, Note_on_c, 9, 38, 117
1, 15600, Note_on_c, 9, 42, 117
1, 15600, Note_on_c, 9, 54, 127
1, 15609, Note_on_c, 1, 31, 0
1, 15624, Note_on_c, 0, 43, 0
1, 15624, Note_on_c, 0, 55, 117
1, 15624, Note_on_c, 0, 62, 117
1, 15624, Note_on_c, 1, 31, 112
1, 15624, Note_on_c, 9, 35, 118
1, 15626, Note_on_c, 9, 42, 0
1, 15631, Note_on_c, 9, 38, 0
1, 15633, Note_on_c, 0, 59, 0
1, 15635, Note_on_c, 9, 54, 0
1, 15637, Note_on_c, 0, 55, 0
1, 15648, Note_on_c, 0, 43, 117
1, 15648, Note_on_c, 9, 42, 86
1, 15651, Note_on_c, 9, 35, 0
1, 15654, Note_on_c, 0, 67, 0
1, 15660, Note_on_c, 4, 47, 0
1, 15660, Note_on_c, 0, 62, 0
1, 15662, Note_on_c, 9, 42, 0
1, 15665, Note_on_c, 4, 55, 0
1, 15668, Note_on_c, 4, 50, 0
1, 15672, Note_on_c, 0, 67, 117
1, 15672, Note_on_c, 9, 35, 123
1, 15691, Note_on_c, 1, 31, 0
1, 15696, Note_on_c, 0, 55, 117
1, 15696, Note_on_c, 0, 62, 117
1, 15696, Note_on_c, 1, 33, 98
1, 15696, Note_on_c, 4, 47, 101
1, 15696, Note_on_c, 4, 50, 103
1, 15696, Note_on_c, 4, 55, 111
1, 15696, Note_on_c, 9, 38, 117
1, 15696, Note_on_c, 9, 42, 117
1, 15696, Note_on_c, 9, 54, 127
1, 15699, Note_on_c, 9, 35, 0
1, 15709, Note_on_c, 0, 43, 0
1, 15710, Note_on_c, 0, 55, 0
1, 15716, Note_on_c, 0, 67, 0
1, 15720, Note_on_c, 9, 42, 0
1, 15720, Note_on_c, 0, 59, 117
1, 15720, Note_on_c, 1, 35, 77
1, 15725, Note_on_c, 1, 33, 0
1, 15728, Note_on_c, 0, 62, 0
1, 15734, Note_on_c, 4, 31, 0
1, 15734, Note_on_c, 9, 54, 0
1, 15738, Note_on_c, 4, 50, 0
1, 15740, Note_on_c, 4, 55, 0
1, 15740, Note_on_c, 9, 38, 0
1, 15742, Note_on_c, 0, 59, 0
1, 15743, Note_on_c, 4, 47, 0
1, 15744, Note_on_c, 0, 38, 117
1, 15744, Note_on_c, 0, 50, 117
1, 15744, Note_on_c, 1, 38, 103
1, 15744, Note_on_c, 2, 50, 89
1, 15744, Note_on_c, 2, 57, 88
1, 15744, Note_on_c, 4, 38, 112
1, 15744, Note_on_c, 9, 35, 127
1, 15744, Note_on_c, 9, 42, 88
1, 15746, Note_on_c, 1, 35, 0
1, 15759, Note_on_c, 9, 42, 0
1, 15764, Note_on_c, 2, 43, 0
1, 15786, Note_on_c, 9, 35, 0
1, 15789, Note_on_c, 0, 50, 0
1, 15792, Note_on_c, 0, 50, 117
1, 15792, Note_on_c, 0, 57, 117
1, 15792, Note_on_c, 0, 66, 117
1, 15792, Note_on_c, 3, 81, 122
1, 15792, Note_on_c, 4, 45, 103
1, 15792, Note_on_c, 4, 50, 103
1, 15792, Note_on_c, 4, 54, 110
1, 15792, Note_on_c, 9, 38, 117
1, 15792, Note_on_c, 9, 42, 117
1, 15792, Note_on_c, 9, 54, 127
1, 15798, Note_on_c, 1, 38, 0
1, 15802, Note_on_c, 0, 38, 0
1, 15814, Note_on_c, 9, 42, 0
1, 15815, Note_on_c, 3, 81, 0
1, 15816, Note_on_c, 0, 62, 117
1, 15816, Note_on_c, 1, 38, 110
1, 15816, Note_on_c, 9, 35, 125
1, 15822, Note_on_c, 9, 38, 0
1, 15825, Note_on_c, 9, 54, 0
1, 15826, Note_on_c, 0, 57, 0
1, 15840, Note_on_c, 0, 38, 117
1, 15840, Note_on_c, 0, 57, 111
1, 15840, Note_on_c, 3, 81, 122
1, 15840, Note_on_c, 9, 42, 93
1, 15845, Note_on_c, 9, 35, 0
1, 15848, Note_on_c, 0, 66, 0
1, 15848, Note_on_c, 0, 38, 0
1, 15850, Note_on_c, 4, 38, 0
1, 15853, Note_on_c, 9, 42, 0
1, 15855, Note_on_c, 0, 62, 0
1, 15862, Note_on_c, 4, 45, 0
1, 15864, Note_on_c, 0, 66, 117
1, 15864, Note_on_c, 4, 38, 111
1, 15864, Note_on_c, 9, 35, 127
1, 15865, Note_on_c, 4, 54, 0
1, 15866, Note_on_c, 4, 38, 0
1, 15866, Note_on_c, 3, 81, 0
1, 15878, Note_on_c, 1, 38, 0
1, 15884, Note_on_c, 9, 35, 0
1, 15887, Note_on_c, 4, 50, 0
1, 15887, Note_on_c, 0, 50, 0
1, 15888, Note_on_c, 0, 50, 117
1, 15888, Note_on_c, 0, 62, 117
1, 15888, Note_on_c, 1, 38, 103
1, 15888, Note_on_c, 3, 81, 122
1, 15888, Note_on_c, 4, 45, 74
1, 15888, Note_on_c, 4, 50, 98
1, 15888, Note_on_c, 4, 54, 111
1, 15888, Note_on_c, 9, 38, 111
1, 15888, Note_on_c, 9, 42, 117
1, 15888, Note_on_c, 9, 54, 127
1, 15889, Note_on_c, 0, 50, 0
1, 15892, Note_on_c, 0, 57, 0
1, 15893, Note_on_c, 0, 66, 0
1, 15910, Note_on_c, 9, 42, 0
1, 15912, Note_on_c, 0, 57, 117
1, 15917, Note_on_c, 9, 54, 0
1, 15918, Note_on_c, 4, 50, 0
1, 15922, Note_on_c, 3, 81, 0
1, 15923, Note_on_c, 0, 62, 0
1, 15929, Note_on_c, 1, 38, 0
1, 15929, Note_on_c, 9, 38, 0
1, 15936, Note_on_c, 0, 38, 117
1, 15936, Note_on_c, 1, 38, 111
1, 15936, Note_on_c, 3, 84, 122
1, 15936, Note_on_c, 4, 38, 112
1, 15936, Note_on_c, 9, 35, 123
1, 15936, Note_on_c, 9, 42, 94
1, 15938, Note_on_c, 4, 54, 0
1, 15939, Note_on_c, 4, 45, 0
1, 15940, Note_on_c, 4, 38, 0
1, 15940, Note_on_c, 0, 57, 0
1, 15950, Note_on_c, 9, 42, 0
1, 15963, Pitch_bend_c, 3, 8738
1, 15967, Pitch_bend_c, 3, 10023
1, 15973, Note_on_c, 0, 38, 0
1, 15974, Pitch_bend_c, 3, 8192
1, 15976, Note_on_c, 9, 35, 0
1, 15980, Note_on_c, 3, 84, 0
1, 15984, Note_on_c, 0, 50, 117
1, 15984, Note_on_c, 0, 57, 117
1, 15984, Note_on_c, 0, 66, 117
1, 15984, Note_on_c, 3, 81, 122
1, 15984, Note_on_c, 4, 45, 98
1, 15984, Note_on_c, 4, 50, 81
1, 15984, Note_on_c, 4, 54, 108
1, 15984, Note_on_c, 9, 38, 117
1, 15984, Note_on_c, 9, 42, 117
1, 15984, Note_on_c, 9, 54, 127
1, 15992, Note_on_c, 0, 50, 0
1, 15993, Note_on_c, 1, 38, 0
1, 16006, Note_on_c, 9, 38, 0
1, 16006, Note_on_c, 9, 42, 0
1, 16008, Note_on_c, 0, 62, 117
1, 16008, Note_on_c, 1, 38, 106
1, 16008, Note_on_c, 9, 35, 118
1, 16014, Note_on_c, 3, 81, 0
1, 16016, Note_on_c, 0, 57, 0
1, 16016, Note_on_c, 0, 66, 0
1, 16017, Note_on_c, 9, 54, 0
1, 16032, Note_on_c, 9, 35, 0
1, 16032, Note_on_c, 0, 38, 117
1, 16032, Note_on_c, 3, 84, 122
1, 16032, Note_on_c, 9, 42, 100
1, 16039, Note_on_c, 4, 50, 0
1, 16049, Note_on_c, 4, 45, 0
1, 16049, Note_on_c, 0, 62, 0
1, 16056, Note_on_c, 9, 42, 0
1, 16056, Note_on_c, 0, 57, 82
1, 16056, Note_on_c, 0, 66, 117
1, 16056, Note_on_c, 4, 38, 103
1, 16056, Note_on_c, 9, 35, 127
1, 16059, Note_on_c, 4, 38, 0
1, 16060, Note_on_c, 3, 84, 0
1, 16061, Note_on_c, 1, 38, 0
1, 16063, Note_on_c, 4, 54, 0
1, 16076, Note_on_c, 9, 35, 0
1, 16080, Note_on_c, 0, 50, 117
1, 16080, Note_on_c, 0, 62, 117
1, 16080, Note_on_c, 1, 38, 98
1, 16080, Note_on_c, 3, 84, 122
1, 16080, Note_on_c, 4, 45, 96
1, 16080, Note_on_c, 4, 50, 96
1, 16080, Note_on_c, 4, 54, 112
1, 16080, Note_on_c, 9, 38, 108
1, 16080, Note_on_c, 9, 42, 117
1, 16080, Note_on_c, 9, 54, 127
1, 16081, Note_on_c, 0, 38, 0
1, 16083, Note_on_c, 0, 66, 0
1, 16092, Note_on_c, 0, 57, 0
1, 16099, Note_on_c, 0, 50, 0
1, 16101, Note_on_c, 9, 54, 0
1, 16104, Note_on_c, 0, 57, 117
1, 16106, Note_on_c, 9, 42, 0
1, 16112, Note_on_c, 0, 62, 0
1, 16112, Pitch_bend_c, 3, 9412
1, 16117, Pitch_bend_c, 3, 12978
1, 16118, Note_on_c, 4, 50, 0
1, 16121, Pitch_bend_c, 3, 14327
1, 16124, Note_on_c, 4, 54, 0
1, 16124, Note_on_c, 9, 38, 0
1, 16125, Pitch_bend_c, 3, 13524
1, 16126, Note_on_c, 4, 45, 0
1, 16127, Note_on_c, 2, 50, 0
1, 16128, Note_on_c, 0, 33, 117
1, 16128, Note_on_c, 0, 45, 117
1, 16128, Note_on_c, 1, 33, 112
1, 16128, Note_on_c, 2, 45, 92
1, 16128, Note_on_c, 2, 52, 91
1, 16128, Note_on_c, 3, 81, 122
1, 16128, Note_on_c, 4, 33, 112
1, 16128, Note_on_c, 9, 35, 125
1, 16128, Note_on_c, 9, 45, 117
1, 16128, Note_on_c, 9, 54, 97
1, 16129, Note_on_c, 1, 38, 0
1, 16130, Note_on_c, 3, 84, 0
1, 16130, Pitch_bend_c, 3, 8192
1, 16135, Note_on_c, 0, 45, 0
1, 16145, Note_on_c, 9, 54, 0
1, 16152, Note_on_c, 9, 54, 112
1, 16163, Note_on_c, 1, 33, 0
1, 16166, Note_on_c, 9, 35, 0
1, 16168, Note_on_c, 0, 57, 0
1, 16172, Note_on_c, 9, 54, 0
1, 16176, Note_on_c, 0, 45, 117
1, 16176, Note_on_c, 0, 57, 117
1, 16176, Note_on_c, 0, 69, 117
1, 16176, Note_on_c, 1, 33, 108
1, 16176, Note_on_c, 4, 45, 96
1, 16176, Note_on_c, 4, 52, 111
1, 16176, Note_on_c, 4, 57, 106
1, 16176, Note_on_c, 9, 38, 117
1, 16176, Note_on_c, 9, 42, 117
1, 16176, Note_on_c, 9, 54, 127
1, 16184, Note_on_c, 0, 33, 0
1, 16189, Note_on_c, 9, 54, 0
1, 16189, Note_on_c, 4, 33, 0
1, 16194, Note_on_c, 9, 45, 0
1, 16199, Note_on_c, 9, 38, 0
1, 16200, Note_on_c, 0, 64, 117
1, 16200, Note_on_c, 4, 33, 112
1, 16200, Note_on_c, 9, 35, 127
1, 16200, Note_on_c, 9, 43, 117
1, 16200, Note_on_c, 9, 54, 110
1, 16210, Note_on_c, 9, 42, 0
1, 16210, Note_on_c, 1, 33, 0
1, 16219, Note_on_c, 9, 54, 0
1, 16219, Note_on_c, 4, 33, 0
1, 16223, Note_on_c, 4, 45, 0
1, 16224, Note_on_c, 0, 33, 117
1, 16224, Note_on_c, 0, 61, 103
1, 16224, Note_on_c, 1, 33, 112
1, 16224, Note_on_c, 4, 45, 101
1, 16224, Note_on_c, 9, 54, 94
1, 16226, Note_on_c, 9, 35, 0
1, 16232, Note_on_c, 0, 64, 0
1, 16233, Note_on_c, 0, 33, 0
1, 16236, Note_on_c, 0, 69, 0
1, 16237, Note_on_c, 9, 54, 0
1, 16244, Note_on_c, 4, 45, 0
1, 16248, Note_on_c, 0, 69, 117
1, 16248, Note_on_c, 9, 35, 127
1, 16248, Note_on_c, 9, 54, 115
1, 16249, Note_on_c, 4, 52, 0
1, 16254, Note_on_c, 1, 33, 0
1, 16262, Note_on_c, 0, 61, 0
1, 16263, Note_on_c, 9, 54, 0
1, 16271, Note_on_c, 0, 45, 0
1, 16271, Note_on_c, 9, 35, 0
1, 16272, Note_on_c, 0, 35, 105
1, 16272, Note_on_c, 0, 45, 117
1, 16272, Note_on_c, 0, 64, 116
1, 16272, Note_on_c, 1, 33, 112
1, 16272, Note_on_c, 4, 33, 112
1, 16272, Note_on_c, 4, 52, 5
1, 16272, Note_on_c, 9, 38, 116
1, 16272, Note_on_c, 9, 42, 117
1, 16272, Note_on_c, 9, 54, 127
1, 16273, Note_on_c, 4, 57, 0
1, 16274, Note_on_c, 0, 45, 0
1, 16278, Note_on_c, 0, 35, 0
1, 16287, Note_on_c, 0, 69, 0
1, 16291, Note_on_c, 4, 52, 0
1, 16292, Note_on_c, 9, 54, 0
1, 16295, Note_on_c, 0, 57, 0
1, 16296, Note_on_c, 0, 57, 117
1, 16296, Note_on_c, 4, 52, 85
1, 16296, Note_on_c, 4, 57, 94
1, 16296, Note_on_c, 9, 54, 107
1, 16297, Note_on_c, 0, 64, 0
1, 16298, Note_on_c, 9, 43, 0
1, 16301, Control_c, 3, 1, 14
1, 16305, Note_on_c, 9, 42, 0
1, 16311, Control_c, 3, 1, 45
1, 16313, Note_on_c, 1, 33, 0
1, 16314, Note_on_c, 4, 33, 0
1, 16314, Note_on_c, 9, 38, 0
1, 16315, Note_on_c, 9, 54, 0
1, 16320, Note_on_c, 0, 33, 117
1, 16320, Note_on_c, 0, 69, 117
1, 16320, Note_on_c, 1, 33, 112
1, 16320, Note_on_c, 4, 33, 112
1, 16320, Note_on_c, 4, 45, 59
1, 16320, Note_on_c, 9, 35, 127
1, 16320, Note_on_c, 9, 45, 117
1, 16320, Note_on_c, 9, 54, 92
1, 16321, Control_c, 3, 1, 72
1, 16328, Note_on_c, 0, 57, 0
1, 16329, Control_c, 3, 1, 84
1, 16331, Note_on_c, 4, 45, 0
1, 16335, Note_on_c, 1, 33, 0
1, 16336, Note_on_c, 4, 52, 0
1, 16337, Control_c, 3, 1, 93
1, 16338, Note_on_c, 9, 54, 0
1, 16344, Note_on_c, 0, 64, 117
1, 16344, Note_on_c, 1, 33, 103
1, 16344, Note_on_c, 4, 45, 112
1, 16344, Note_on_c, 9, 54, 105
1, 16347, Control_c, 3, 1, 102
1, 16350, Note_on_c, 4, 45, 0
1, 16355, Control_c, 3, 1, 107
1, 16356, Note_on_c, 0, 69, 0
1, 16359, Note_on_c, 9, 35, 0
1, 16363, Note_on_c, 9, 54, 0
1, 16364, Note_on_c, 4, 33, 0
1, 16364, Control_c, 3, 1, 70
1, 16367, Note_on_c, 0, 33, 0
1, 16367, Note_on_c, 4, 57, 0
1, 16368, Note_on_c, 0, 45, 117
1, 16368, Note_on_c, 0, 57, 117
1, 16368, Note_on_c, 3, 79, 118
1, 16368, Note_on_c, 4, 52, 71
1, 16368, Note_on_c, 4, 57, 85
1, 16368, Note_on_c, 9, 38, 117
1, 16368, Note_on_c, 9, 42, 117
1, 16368, Note_on_c, 9, 54, 126
1, 16371, Note_on_c, 0, 64, 0
1, 16372, Control_c, 3, 1, 0
1, 16377, Note_on_c, 3, 81, 0
1, 16384, Note_on_c, 9, 54, 0
1, 16385, Note_on_c, 3, 79, 0
1, 16392, Note_on_c, 9, 45, 0
1, 16392, Note_on_c, 0, 69, 117
1, 16392, Note_on_c, 3, 76, 76
1, 16392, Note_on_c, 4, 33, 111
1, 16392, Note_on_c, 9, 35, 113
1, 16392, Note_on_c, 9, 43, 117
1, 16392, Note_on_c, 9, 54, 102
1, 16396, Note_on_c, 4, 57, 0
1, 16397, Note_on_c, 9, 38, 0
1, 16397, Note_on_c, 1, 33, 0
1, 16401, Note_on_c, 9, 42, 0
1, 16407, Note_on_c, 0, 57, 0
1, 16410, Note_on_c, 9, 54, 0
1, 16416, Note_on_c, 0, 33, 117
1, 16416, Note_on_c, 0, 64, 117
1, 16416, Note_on_c, 1, 33, 112
1, 16416, Note_on_c, 3, 75, 122
1, 16416, Note_on_c, 4, 45, 112
1, 16416, Note_on_c, 9, 54, 82
1, 16417, Note_on_c, 3, 76, 0
1, 16419, Note_on_c, 9, 35, 0
1, 16421, Note_on_c, 0, 33, 0
1, 16422, Note_on_c, 4, 52, 0
1, 16425, Note_on_c, 0, 69, 0
1, 16431, Note_on_c, 4, 33, 0
1, 16431, Note_on_c, 4, 45, 0
1, 16434, Note_on_c, 9, 54, 0
1, 16439, Note_on_c, 2, 45, 0
1, 16440, Note_on_c, 3, 75, 0
1, 16440, Note_on_c, 0, 57, 117
1, 16440, Note_on_c, 2, 45, 95
1, 16440, Note_on_c, 3, 74, 113
1, 16440, Note_on_c, 4, 33, 112
1, 16440, Note_on_c, 9, 35, 127
1, 16440, Note_on_c, 9, 54, 100
1, 16443, Note_on_c, 0, 64, 0
1, 16451, Note_on_c, 1, 33, 0
1, 16453, Note_on_c, 2, 45, 0
1, 16456, Note_on_c, 3, 74, 0
1, 16458, Note_on_c, 9, 54, 0
1, 16462, Note_on_c, 0, 45, 0
1, 16463, Note_on_c, 2, 57, 0
1, 16463, Note_on_c, 9, 43, 0
1, 16464, Note_on_c, 0, 45, 117
1, 16464, Note_on_c, 0, 64, 117
1, 16464, Note_on_c, 0, 67, 117
1, 16464, Note_on_c, 0, 69, 117
1, 16464, Note_on_c, 1, 33, 111
1, 16464, Note_on_c, 2, 57, 92
1, 16464, Note_on_c, 3, 72, 85
1, 16464, Note_on_c, 4, 52, 108
1, 16464, Note_on_c, 4, 57, 110
1, 16464, Note_on_c, 9, 42, 117
1, 16464, Note_on_c, 9, 45, 117
1, 16464, Note_on_c, 9, 54, 127
1, 16472, Note_on_c, 2, 57, 0
1, 16474, Note_on_c, 4, 57, 0
1, 16476, Note_on_c, 0, 45, 0
1, 16478, Note_on_c, 9, 35, 0
1, 16481, Note_on_c, 9, 54, 0
1, 16483, Note_on_c, 0, 67, 0
1, 16485, Note_on_c, 0, 69, 0
1, 16485, Note_on_c, 9, 45, 0
1, 16486, Note_on_c, 0, 64, 0
1, 16488, Note_on_c, 2, 45, 86
1, 16488, Note_on_c, 4, 45, 77
1, 16488, Note_on_c, 9, 35, 123
1, 16488, Note_on_c, 9, 54, 102
1, 16489, Note_on_c, 0, 57, 0
1, 16493, Note_on_c, 9, 42, 0
1, 16493, Note_on_c, 4, 33, 0
1, 16493, Note_on_c, 4, 52, 0
1, 16494, Note_on_c, 4, 45, 0
1, 16494, Note_on_c, 1, 33, 0
1, 16495, Note_on_c, 2, 45, 0
1, 16502, Note_on_c, 9, 54, 0
1, 16512, Note_on_c, 0, 45, 117
1, 16512, Note_on_c, 0, 57, 117
1, 16512, Note_on_c, 0, 64, 117
1, 16512, Note_on_c, 0, 69, 117
1, 16512, Note_on_c, 1, 33, 112
1, 16512, Note_on_c, 2, 45, 92
1, 16512, Note_on_c, 2, 57, 95
1, 16512, Note_on_c, 3, 69, 122
1, 16512, Note_on_c, 4, 33, 112
1, 16512, Note_on_c, 4, 52, 112
1, 16512, Note_on_c, 4, 57, 108
1, 16512, Note_on_c, 9, 38, 117
1, 16514, Note_on_c, 9, 35, 0
1, 16518, Note_on_c, 9, 38, 0
1, 16521, Note_on_c, 9, 38, 117
1, 16522, Note_on_c, 2, 52, 0
1, 16526, Note_on_c, 3, 72, 0
1, 16543, Note_on_c, 0, 64, 0
1, 16544, Note_on_c, 0, 57, 0
1, 16545, Note_on_c, 9, 38, 0
1, 16547, Note_on_c, 3, 69, 0
1, 16548, Note_on_c, 0, 69, 0
1, 16550, Note_on_c, 4, 57, 0
1, 16551, Note_on_c, 0, 45, 0
1, 16553, Note_on_c, 2, 57, 0
1, 16554, Note_on_c, 4, 52, 0
1, 16555, Note_on_c, 1, 33, 0
1, 16558, Note_on_c, 2, 45, 0
1, 16560, Note_on_c, 1, 38, 112
1, 16560, Note_on_c, 2, 50, 95
1, 16560, Note_on_c, 2, 57, 95
1, 16560, Note_on_c, 2, 62, 95
1, 16560, Note_on_c, 2, 66, 94
1, 16560, Note_on_c, 9, 38, 117
1, 16565, Note_on_c, 4, 33, 0
1, 16600, Note_on_c, 1, 38, 0
1, 16607, Note_on_c, 2, 50, 0
1, 16607, Note_on_c, 2, 62, 0
1, 16607, Note_on_c, 2, 57, 0
1, 16607, Note_on_c, 2, 66, 0
1, 16608, Note_on_c, 1, 38, 112
1, 16608, Note_on_c, 2, 50, 92
1, 16608, Note_on_c, 2, 57, 94
1, 16608, Note_on_c, 2, 62, 94
1, 16608, Note_on_c, 2, 66, 92
1, 16608, Note_on_c, 2, 66, 0
1, 16608, Note_on_c, 9, 35, 127
1, 16609, Note_on_c, 2, 57, 0
1, 16610, Note_on_c, 2, 50, 0
1, 16611, Note_on_c, 2, 62, 0
1, 16615, Note_on_c, 9, 38, 0
1, 16632, Note_on_c, 9, 35, 0
1, 16639, Note_on_c, 1, 38, 0
1, 16656, Note_on_c, 1, 38, 110
1, 16656, Note_on_c, 2, 50, 92
1, 16656, Note_on_c, 2, 57, 94
1, 16656, Note_on_c, 2, 62, 94
1, 16656, Note_on_c, 2, 66, 92
1, 16656, Note_on_c, 9, 43, 117
1, 16677, Note_on_c, 9, 43, 0
1, 16694, Note_on_c, 2, 57, 0
1, 16701, Note_on_c, 2, 50, 0
1, 16703, Note_on_c, 1, 38, 0
1, 16703, Note_on_c, 2, 62, 0
1, 16704, Note_on_c, 1, 31, 112
1, 16704, Note_on_c, 2, 55, 95
1, 16704, Note_on_c, 2, 59, 95
1, 16704, Note_on_c, 2, 62, 94
1, 16704, Note_on_c, 2, 67, 94
1, 16704, Note_on_c, 9, 45, 117
1, 16708, Note_on_c, 2, 66, 0
1, 16709, Note_on_c, 2, 62, 0
1, 16728, Note_on_c, 9, 45, 0
1, 16739, Note_on_c, 1, 31, 0
1, 16743, Note_on_c, 2, 59, 0
1, 16745, Note_on_c, 2, 55, 0
1, 16749, Note_on_c, 2, 67, 0
1, 16752, Note_on_c, 1, 31, 110
1, 16752, Note_on_c, 2, 55, 84
1, 16752, Note_on_c, 2, 59, 94
1, 16752, Note_on_c, 2, 62, 95
1, 16752, Note_on_c, 2, 67, 91
1, 16752, Note_on_c, 9, 38, 107
1, 16785, Note_on_c, 9, 38, 0
1, 16792, Note_on_c, 2, 62, 0
1, 16793, Note_on_c, 2, 59, 0
1, 16793, Note_on_c, 2, 55, 0
1, 16796, Note_on_c, 2, 67, 0
1, 16798, Note_on_c, 1, 31, 0
1, 16800, Note_on_c, 1, 33, 112
1, 16800, Note_on_c, 2, 55, 95
1, 16800, Note_on_c, 2, 59, 95
1, 16800, Note_on_c, 2, 62, 95
1, 16800, Note_on_c, 2, 67, 94
1, 16800, Note_on_c, 9, 35, 120
1, 16800, Note_on_c, 9, 43, 110
1, 16824, Note_on_c, 9, 43, 0
1, 16836, Note_on_c, 2, 67, 0
1, 16836, Note_on_c, 2, 55, 0
1, 16836, Note_on_c, 9, 35, 0
1, 16837, Note_on_c, 2, 59, 0
1, 16839, Note_on_c, 2, 62, 0
1, 16846, Note_on_c, 1, 33, 0
1, 16848, Note_on_c, 1, 35, 112
1, 16848, Note_on_c, 2, 55, 95
1, 16848, Note_on_c, 2, 59, 94
1, 16848, Note_on_c, 2, 62, 95
1, 16848, Note_on_c, 2, 67, 94
1, 16848, Note_on_c, 9, 38, 105
1, 16854, Note_on_c, 9, 38, 0
1, 16857, Note_on_c, 9, 38, 117
1, 16887, Note_on_c, 9, 38, 0
1, 16889, Note_on_c, 1, 35, 0
1, 16890, Note_on_c, 2, 62, 0
1, 16891, Note_on_c, 2, 59, 0
1, 16894, Note_on_c, 2, 67, 0
1, 16895, Note_on_c, 2, 55, 0
1, 16896, Note_on_c, 1, 38, 112
1, 16896, Note_on_c, 2, 50, 99
1, 16896, Note_on_c, 2, 57, 99
1, 16896, Note_on_c, 2, 62, 99
1, 16896, Note_on_c, 2, 66, 96
1, 16896, Program_c, 3, 65
1, 16896, Note_on_c, 9, 35, 127
1, 16944, Note_on_c, 3, 62, 122
1, 16955, Note_on_c, 2, 57, 0
1, 16955, Note_on_c, 2, 50, 0
1, 16956, Note_on_c, 2, 66, 0
1, 16958, Note_on_c, 2, 62, 0
1, 16966, Note_on_c, 3, 62, 0
1, 16970, Note_on_c, 1, 38, 0
1, 16992, Note_on_c, 3, 62, 121
1, 17009, Note_on_c, 9, 35, 0
1, 17014, Note_on_c, 3, 62, 0
1, 17040, Note_on_c, 3, 62, 118
1, 17085, Note_on_c, 3, 62, 0
1, 17088, Note_on_c, 3, 65, 116
1, 17132, Note_on_c, 3, 65, 0
1, 17136, Note_on_c, 3, 62, 121
1, 17153, Note_on_c, 3, 62, 0
1, 17184, Note_on_c, 3, 62, 122
1, 17184, Note_on_c, 9, 38, 107
1, 17190, Note_on_c, 9, 38, 0
1, 17193, Note_on_c, 9, 38, 117
1, 17217, Note_on_c, 9, 38, 0
1, 17227, Note_on_c, 3, 62, 0
1, 17232, Note_on_c, 3, 60, 113
1, 17250, Note_on_c, 3, 60, 0
1, 17280, Note_on_c, 3, 62, 122
1, 17280, Note_on_c, 9, 35, 127
1, 17280, Note_on_c, 9, 42, 117
1, 17303, Note_on_c, 9, 42, 0
1, 17328, Note_on_c, 1, 38, 112
1, 17328, Note_on_c, 2, 50, 99
1, 17328, Note_on_c, 2, 57, 99
1, 17328, Note_on_c, 2, 62, 99
1, 17328, Note_on_c, 2, 66, 95
1, 17328, Note_on_c, 5, 50, 85
1, 17328, Note_on_c, 5, 62, 87
1, 17328, Note_on_c, 5, 74, 98
1, 17328, Note_on_c, 9, 42, 64
1, 17343, Note_on_c, 9, 42, 0
1, 17354, Note_on_c, 5, 50, 0
1, 17360, Note_on_c, 2, 57, 0
1, 17362, Note_on_c, 5, 62, 0
1, 17362, Note_on_c, 5, 74, 0
1, 17364, Note_on_c, 2, 50, 0
1, 17366, Note_on_c, 1, 38, 0
1, 17367, Note_on_c, 2, 66, 0
1, 17368, Note_on_c, 2, 62, 0
1, 17376, Note_on_c, 1, 38, 112
1, 17376, Note_on_c, 2, 50, 99
1, 17376, Note_on_c, 2, 57, 98
1, 17376, Note_on_c, 2, 62, 99
1, 17376, Note_on_c, 2, 66, 97
1, 17376, Note_on_c, 5, 50, 96
1, 17376, Note_on_c, 5, 62, 100
1, 17376, Note_on_c, 5, 74, 92
1, 17376, Note_on_c, 9, 38, 117
1, 17376, Note_on_c, 9, 42, 117
1, 17381, Note_on_c, 3, 62, 0
1, 17395, Note_on_c, 9, 35, 0
1, 17400, Note_on_c, 9, 42, 0
1, 17402, Note_on_c, 5, 50, 0
1, 17406, Note_on_c, 2, 57, 0
1, 17407, Note_on_c, 2, 50, 0
1, 17409, Note_on_c, 1, 38, 0
1, 17411, Note_on_c, 5, 74, 0
1, 17411, Note_on_c, 2, 66, 0
1, 17412, Note_on_c, 5, 62, 0
1, 17413, Note_on_c, 2, 62, 0
1, 17424, Note_on_c, 1, 33, 112
1, 17424, Note_on_c, 2, 50, 93
1, 17424, Note_on_c, 2, 57, 97
1, 17424, Note_on_c, 2, 62, 97
1, 17424, Note_on_c, 2, 66, 95
1, 17424, Note_on_c, 5, 50, 90
1, 17424, Note_on_c, 5, 62, 105
1, 17424, Note_on_c, 5, 74, 107
1, 17424, Note_on_c, 9, 35, 125
1, 17424, Note_on_c, 9, 42, 72
1, 17441, Note_on_c, 9, 42, 0
1, 17445, Note_on_c, 9, 35, 0
1, 17453, Note_on_c, 5, 50, 0
1, 17453, Note_on_c, 2, 57, 0
1, 17459, Note_on_c, 2, 62, 0
1, 17460, Note_on_c, 5, 62, 0
1, 17467, Note_on_c, 2, 66, 0
1, 17469, Note_on_c, 2, 50, 0
1, 17469, Note_on_c, 5, 74, 0
1, 17472, Note_on_c, 1, 31, 112
1, 17472, Note_on_c, 2, 55, 99
1, 17472, Note_on_c, 2, 59, 99
1, 17472, Note_on_c, 2, 62, 99
1, 17472, Note_on_c, 2, 67, 98
1, 17472, Note_on_c, 5, 53, 105
1, 17472, Note_on_c, 5, 65, 98
1, 17472, Note_on_c, 5, 77, 107
1, 17472, Note_on_c, 9, 35, 127
1, 17472, Note_on_c, 9, 42, 117
1, 17482, Note_on_c, 1, 33, 0
1, 17493, Note_on_c, 9, 42, 0
1, 17499, Note_on_c, 1, 31, 0
1, 17509, Note_on_c, 2, 62, 0
1, 17510, Note_on_c, 2, 55, 0
1, 17511, Note_on_c, 2, 67, 0
1, 17512, Note_on_c, 5, 53, 0
1, 17513, Note_on_c, 2, 59, 0
1, 17520, Note_on_c, 1, 31, 110
1, 17520, Note_on_c, 2, 55, 99
1, 17520, Note_on_c, 2, 59, 92
1, 17520, Note_on_c, 2, 62, 97
1, 17520, Note_on_c, 2, 67, 96
1, 17520, Note_on_c, 5, 50, 87
1, 17520, Note_on_c, 5, 62, 92
1, 17520, Note_on_c, 5, 74, 85
1, 17520, Note_on_c, 9, 42, 71
1, 17524, Note_on_c, 5, 77, 0
1, 17526, Note_on_c, 9, 38, 0
1, 17536, Note_on_c, 9, 42, 0
1, 17538, Note_on_c, 5, 65, 0
1, 17543, Note_on_c, 5, 50, 0
1, 17549, Note_on_c, 5, 74, 0
1, 17551, Note_on_c, 5, 62, 0
1, 17556, Note_on_c, 2, 59, 0
1, 17557, Note_on_c, 2, 67, 0
1, 17559, Note_on_c, 2, 62, 0
1, 17560, Note_on_c, 2, 55, 0
1, 17568, Note_on_c, 1, 33, 111
1, 17568, Note_on_c, 2, 55, 99
1, 17568, Note_on_c, 2, 59, 97
1, 17568, Note_on_c, 2, 62, 98
1, 17568, Note_on_c, 2, 67, 98
1, 17568, Note_on_c, 5, 50, 98
1, 17568, Note_on_c, 5, 62, 107
1, 17568, Note_on_c, 5, 74, 107
1, 17568, Note_on_c, 9, 38, 117
1, 17568, Note_on_c, 9, 42, 117
1, 17569, Note_on_c, 1, 31, 0
1, 17592, Note_on_c, 9, 42, 0
1, 17596, Note_on_c, 2, 59, 0
1, 17599, Note_on_c, 2, 62, 0
1, 17602, Note_on_c, 5, 50, 0
1, 17602, Note_on_c, 2, 67, 0
1, 17607, Note_on_c, 5, 62, 0
1, 17615, Note_on_c, 5, 74, 0
1, 17616, Note_on_c, 1, 35, 112
1, 17616, Note_on_c, 2, 59, 94
1, 17616, Note_on_c, 2, 62, 98
1, 17616, Note_on_c, 2, 67, 98
1, 17616, Note_on_c, 5, 53, 90
1, 17616, Note_on_c, 5, 72, 95
1, 17616, Note_on_c, 9, 42, 66
1, 17620, Note_on_c, 1, 33, 0
1, 17624, Note_on_c, 9, 35, 0
1, 17632, Note_on_c, 9, 42, 0
1, 17646, Note_on_c, 2, 59, 0
1, 17653, Note_on_c, 2, 62, 0
1, 17656, Note_on_c, 2, 55, 0
1, 17660, Note_on_c, 5, 72, 0
1, 17662, Note_on_c, 5, 53, 0
1, 17664, Note_on_c, 1, 38, 112
1, 17664, Note_on_c, 2, 50, 99
1, 17664, Note_on_c, 2, 57, 99
1, 17664, Note_on_c, 2, 62, 99
1, 17664, Note_on_c, 2, 66, 96
1, 17664, Note_on_c, 5, 50, 111
1, 17664, Note_on_c, 5, 62, 113
1, 17664, Note_on_c, 5, 74, 113
1, 17664, Note_on_c, 9, 35, 127
1, 17664, Note_on_c, 9, 42, 117
1, 17665, Note_on_c, 2, 67, 0
1, 17666, Note_on_c, 1, 35, 0
1, 17685, Note_on_c, 9, 42, 0
1, 17708, Note_on_c, 9, 38, 0
1, 17709, Note_on_c, 5, 74, 0
1, 17711, Note_on_c, 5, 50, 0
1, 17712, Note_on_c, 9, 42, 70
1, 17716, Note_on_c, 5, 62, 0
1, 17723, Note_on_c, 2, 57, 0
1, 17723, Note_on_c, 2, 62, 0
1, 17724, Note_on_c, 2, 66, 0
1, 17726, Note_on_c, 2, 50, 0
1, 17731, Note_on_c, 9, 42, 0
1, 17738, Note_on_c, 1, 38, 0
1, 17760, Note_on_c, 3, 62, 122
1, 17760, Note_on_c, 9, 38, 117
1, 17760, Note_on_c, 9, 42, 117
1, 17777, Note_on_c, 9, 35, 0
1, 17781, Note_on_c, 9, 42, 0
1, 17784, Note_on_c, 3, 62, 0
1, 17808, Note_on_c, 3, 62, 122
1, 17808, Note_on_c, 9, 35, 127
1, 17808, Note_on_c, 9, 42, 72
1, 17827, Note_on_c, 9, 42, 0
1, 17829, Note_on_c, 9, 35, 0
1, 17832, Note_on_c, 3, 62, 0
1, 17856, Note_on_c, 3, 65, 122
1, 17856, Note_on_c, 9, 35, 127
1, 17856, Note_on_c, 9, 42, 117
1, 17879, Note_on_c, 9, 42, 0
1, 17884, Pitch_bend_c, 3, 8866
1, 17888, Pitch_bend_c, 3, 10729
1, 17891, Pitch_bend_c, 3, 10569
1, 17898, Pitch_bend_c, 3, 9348
1, 17902, Pitch_bend_c, 3, 8192
1, 17904, Note_on_c, 9, 38, 0
1, 17904, Note_on_c, 3, 62, 122
1, 17904, Note_on_c, 9, 42, 50
1, 17909, Note_on_c, 3, 65, 0
1, 17921, Note_on_c, 9, 42, 0
1, 17923, Note_on_c, 3, 62, 0
1, 17952, Note_on_c, 3, 65, 122
1, 17952, Note_on_c, 9, 38, 117
1, 17952, Note_on_c, 9, 42, 117
1, 17974, Note_on_c, 3, 65, 0
1, 17976, Note_on_c, 9, 42, 0
1, 18000, Note_on_c, 3, 65, 122
1, 18000, Note_on_c, 9, 42, 59
1, 18016, Note_on_c, 9, 35, 0
1, 18017, Note_on_c, 9, 42, 0
1, 18040, Note_on_c, 3, 65, 0
1, 18048, Note_on_c, 3, 62, 122
1, 18048, Note_on_c, 9, 35, 127
1, 18048, Note_on_c, 9, 42, 117
1, 18071, Note_on_c, 9, 42, 0
1, 18096, Note_on_c, 1, 38, 112
1, 18096, Note_on_c, 2, 50, 99
1, 18096, Note_on_c, 2, 57, 99
1, 18096, Note_on_c, 2, 62, 99
1, 18096, Note_on_c, 2, 66, 95
1, 18096, Note_on_c, 5, 50, 96
1, 18096, Note_on_c, 5, 62, 99
1, 18096, Note_on_c, 5, 74, 109
1, 18096, Note_on_c, 9, 42, 64
1, 18101, Note_on_c, 9, 38, 0
1, 18111, Note_on_c, 9, 42, 0
1, 18120, Note_on_c, 5, 50, 0
1, 18121, Note_on_c, 5, 74, 0
1, 18128, Note_on_c, 2, 57, 0
1, 18130, Note_on_c, 5, 62, 0
1, 18132, Note_on_c, 2, 50, 0
1, 18134, Note_on_c, 1, 38, 0
1, 18135, Note_on_c, 2, 66, 0
1, 18136, Note_on_c, 2, 62, 0
1, 18138, Note_on_c, 3, 62, 0
1, 18144, Note_on_c, 1, 38, 112
1, 18144, Note_on_c, 2, 50, 99
1, 18144, Note_on_c, 2, 57, 98
1, 18144, Note_on_c, 2, 62, 99
1, 18144, Note_on_c, 2, 66, 97
1, 18144, Note_on_c, 5, 50, 99
1, 18144, Note_on_c, 5, 62, 98
1, 18144, Note_on_c, 5, 74, 95
1, 18144, Note_on_c, 9, 38, 117
1, 18144, Note_on_c, 9, 42, 117
1, 18163, Note_on_c, 9, 35, 0
1, 18168, Note_on_c, 9, 42, 0
1, 18173, Note_on_c, 5, 74, 0
1, 18174, Note_on_c, 2, 57, 0
1, 18175, Note_on_c, 5, 62, 0
1, 18175, Note_on_c, 2, 50, 0
1, 18177, Note_on_c, 1, 38, 0
1, 18179, Note_on_c, 2, 66, 0
1, 18181, Note_on_c, 2, 62, 0
1, 18192, Note_on_c, 1, 33, 112
1, 18192, Note_on_c, 2, 50, 93
1, 18192, Note_on_c, 2, 57, 97
1, 18192, Note_on_c, 2, 62, 97
1, 18192, Note_on_c, 2, 66, 95
1, 18192, Note_on_c, 5, 62, 105
1, 18192, Note_on_c, 5, 74, 103
1, 18192, Note_on_c, 9, 35, 125
1, 18192, Note_on_c, 9, 42, 72
1, 18207, Note_on_c, 5, 50, 0
1, 18209, Note_on_c, 9, 42, 0
1, 18213, Note_on_c, 9, 35, 0
1, 18221, Note_on_c, 2, 57, 0
1, 18227, Note_on_c, 2, 62, 0
1, 18230, Note_on_c, 5, 62, 0
1, 18235, Note_on_c, 2, 66, 0
1, 18237, Note_on_c, 2, 50, 0
1, 18240, Note_on_c, 1, 31, 112
1, 18240, Note_on_c, 2, 55, 99
1, 18240, Note_on_c, 2, 59, 99
1, 18240, Note_on_c, 2, 62, 99
1, 18240, Note_on_c, 2, 67, 98
1, 18240, Note_on_c, 5, 53, 121
1, 18240, Note_on_c, 5, 65, 107
1, 18240, Note_on_c, 5, 77, 118
1, 18240, Note_on_c, 9, 35, 127
1, 18240, Note_on_c, 9, 42, 117
1, 18250, Note_on_c, 1, 33, 0
1, 18252, Note_on_c, 5, 74, 0
1, 18261, Note_on_c, 9, 42, 0
1, 18267, Note_on_c, 1, 31, 0
1, 18277, Note_on_c, 2, 62, 0
1, 18278, Note_on_c, 2, 55, 0
1, 18279, Note_on_c, 2, 67, 0
1, 18281, Note_on_c, 2, 59, 0
1, 18282, Note_on_c, 5, 65, 0
1, 18285, Note_on_c, 5, 53, 0
1, 18287, Note_on_c, 5, 77, 0
1, 18288, Note_on_c, 1, 31, 110
1, 18288, Note_on_c, 2, 55, 99
1, 18288, Note_on_c, 2, 59, 92
1, 18288, Note_on_c, 2, 62, 97
1, 18288, Note_on_c, 2, 67, 96
1, 18288, Note_on_c, 5, 50, 107
1, 18288, Note_on_c, 5, 74, 89
1, 18288, Note_on_c, 9, 42, 71
1, 18294, Note_on_c, 9, 38, 0
1, 18304, Note_on_c, 9, 42, 0
1, 18324, Note_on_c, 2, 59, 0
1, 18325, Note_on_c, 2, 67, 0
1, 18327, Note_on_c, 2, 62, 0
1, 18328, Note_on_c, 2, 55, 0
1, 18336, Note_on_c, 1, 33, 111
1, 18336, Note_on_c, 2, 55, 99
1, 18336, Note_on_c, 2, 59, 97
1, 18336, Note_on_c, 2, 62, 98
1, 18336, Note_on_c, 2, 67, 98
1, 18336, Note_on_c, 5, 53, 109
1, 18336, Note_on_c, 5, 65, 107
1, 18336, Note_on_c, 5, 77, 116
1, 18336, Note_on_c, 9, 38, 117
1, 18336, Note_on_c, 9, 42, 117
1, 18337, Note_on_c, 1, 31, 0
1, 18338, Note_on_c, 5, 74, 0
1, 18341, Note_on_c, 5, 50, 0
1, 18360, Note_on_c, 9, 42, 0
1, 18364, Note_on_c, 2, 59, 0
1, 18367, Note_on_c, 2, 62, 0
1, 18370, Note_on_c, 2, 67, 0
1, 18370, Note_on_c, 5, 53, 0
1, 18375, Note_on_c, 5, 65, 0
1, 18375, Note_on_c, 5, 77, 0
1, 18384, Note_on_c, 1, 35, 112
1, 18384, Note_on_c, 2, 59, 94
1, 18384, Note_on_c, 2, 62, 98
1, 18384, Note_on_c, 2, 67, 98
1, 18384, Note_on_c, 5, 53, 107
1, 18384, Note_on_c, 5, 65, 95
1, 18384, Note_on_c, 5, 77, 100
1, 18384, Note_on_c, 9, 42, 66
1, 18388, Note_on_c, 1, 33, 0
1, 18392, Note_on_c, 9, 35, 0
1, 18400, Note_on_c, 9, 42, 0
1, 18414, Note_on_c, 2, 59, 0
1, 18421, Note_on_c, 2, 62, 0
1, 18423, Note_on_c, 5, 65, 0
1, 18424, Note_on_c, 2, 55, 0
1, 18426, Note_on_c, 5, 53, 0
1, 18429, Note_on_c, 5, 77, 0
1, 18432, Note_on_c, 1, 38, 112
1, 18432, Note_on_c, 2, 50, 99
1, 18432, Note_on_c, 2, 57, 99
1, 18432, Note_on_c, 2, 62, 99
1, 18432, Note_on_c, 2, 66, 96
1, 18432, Note_on_c, 5, 50, 118
1, 18432, Note_on_c, 5, 65, 123
1, 18432, Note_on_c, 5, 74, 121
1, 18432, Note_on_c, 9, 35, 127
1, 18432, Note_on_c, 9, 42, 117
1, 18433, Note_on_c, 2, 67, 0
1, 18434, Note_on_c, 1, 35, 0
1, 18453, Note_on_c, 9, 42, 0
1, 18463, Note_on_c, 5, 65, 0
1, 18473, Note_on_c, 5, 74, 0
1, 18476, Note_on_c, 9, 38, 0
1, 18480, Note_on_c, 3, 69, 122
1, 18480, Note_on_c, 9, 42, 70
1, 18488, Note_on_c, 5, 50, 0
1, 18491, Note_on_c, 2, 57, 0
1, 18491, Note_on_c, 2, 62, 0
1, 18492, Note_on_c, 2, 66, 0
1, 18494, Note_on_c, 2, 50, 0
1, 18499, Note_on_c, 9, 42, 0
1, 18500, Note_on_c, 3, 69, 0
1, 18506, Note_on_c, 1, 38, 0
1, 18528, Note_on_c, 3, 69, 77
1, 18528, Note_on_c, 9, 38, 117
1, 18528, Note_on_c, 9, 42, 117
1, 18540, Note_on_c, 3, 69, 0
1, 18545, Note_on_c, 9, 35, 0
1, 18549, Note_on_c, 9, 42, 0
1, 18576, Note_on_c, 3, 69, 113
1, 18576, Note_on_c, 9, 35, 127
1, 18576, Note_on_c, 9, 42, 72
1, 18595, Note_on_c, 9, 42, 0
1, 18597, Note_on_c, 9, 35, 0
1, 18603, Note_on_c, 3, 69, 0
1, 18624, Note_on_c, 3, 72, 122
1, 18624, Note_on_c, 9, 35, 127
1, 18624, Note_on_c, 9, 42, 117
1, 18647, Note_on_c, 9, 42, 0
1, 18664, Note_on_c, 3, 72, 0
1, 18672, Note_on_c, 9, 38, 0
1, 18672, Note_on_c, 3, 69, 120
1, 18672, Note_on_c, 9, 42, 50
1, 18689, Note_on_c, 9, 42, 0
1, 18689, Note_on_c, 3, 69, 0
1, 18720, Note_on_c, 3, 69, 122
1, 18720, Note_on_c, 9, 38, 117
1, 18720, Note_on_c, 9, 42, 117
1, 18741, Note_on_c, 3, 69, 0
1, 18744, Note_on_c, 9, 42, 0
1, 18768, Note_on_c, 3, 69, 121
1, 18768, Note_on_c, 9, 42, 59
1, 18784, Note_on_c, 3, 69, 0
1, 18784, Note_on_c, 9, 35, 0
1, 18785, Note_on_c, 9, 42, 0
1, 18816, Note_on_c, 3, 69, 122
1, 18816, Note_on_c, 9, 35, 127
1, 18816, Note_on_c, 9, 42, 117
1, 18839, Note_on_c, 9, 42, 0
1, 18855, Note_on_c, 3, 69, 0
1, 18864, Note_on_c, 1, 31, 110
1, 18864, Note_on_c, 2, 55, 99
1, 18864, Note_on_c, 2, 62, 97
1, 18864, Note_on_c, 2, 67, 94
1, 18864, Note_on_c, 3, 67, 116
1, 18864, Note_on_c, 5, 55, 105
1, 18864, Note_on_c, 5, 67, 96
1, 18864, Note_on_c, 5, 79, 113
1, 18864, Note_on_c, 9, 42, 64
1, 18869, Note_on_c, 9, 38, 0
1, 18879, Note_on_c, 9, 42, 0
1, 18888, Note_on_c, 5, 67, 0
1, 18888, Note_on_c, 5, 55, 0
1, 18888, Note_on_c, 5, 79, 0
1, 18898, Note_on_c, 1, 31, 0
1, 18904, Note_on_c, 2, 67, 0
1, 18905, Note_on_c, 2, 55, 0
1, 18907, Note_on_c, 2, 62, 0
1, 18912, Note_on_c, 1, 31, 107
1, 18912, Note_on_c, 2, 55, 98
1, 18912, Note_on_c, 2, 62, 97
1, 18912, Note_on_c, 2, 67, 95
1, 18912, Note_on_c, 5, 55, 99
1, 18912, Note_on_c, 5, 67, 85
1, 18912, Note_on_c, 5, 79, 80
1, 18912, Note_on_c, 9, 38, 117
1, 18912, Note_on_c, 9, 42, 117
1, 18931, Note_on_c, 9, 35, 0
1, 18936, Note_on_c, 9, 42, 0
1, 18936, Note_on_c, 5, 67, 0
1, 18936, Note_on_c, 5, 79, 0
1, 18936, Note_on_c, 5, 55, 0
1, 18943, Note_on_c, 1, 31, 0
1, 18948, Note_on_c, 2, 62, 0
1, 18948, Note_on_c, 2, 55, 0
1, 18949, Note_on_c, 2, 67, 0
1, 18960, Note_on_c, 1, 31, 105
1, 18960, Note_on_c, 2, 55, 97
1, 18960, Note_on_c, 2, 62, 89
1, 18960, Note_on_c, 2, 67, 92
1, 18960, Note_on_c, 5, 55, 89
1, 18960, Note_on_c, 5, 67, 113
1, 18960, Note_on_c, 5, 79, 111
1, 18960, Note_on_c, 9, 35, 125
1, 18960, Note_on_c, 9, 42, 72
1, 18964, Note_on_c, 3, 67, 0
1, 18977, Note_on_c, 9, 42, 0
1, 18980, Note_on_c, 5, 67, 0
1, 18981, Note_on_c, 9, 35, 0
1, 18987, Note_on_c, 5, 55, 0
1, 18989, Note_on_c, 5, 79, 0
1, 19001, Note_on_c, 2, 62, 0
1, 19001, Note_on_c, 2, 55, 0
1, 19005, Note_on_c, 1, 31, 0
1, 19008, Note_on_c, 2, 67, 0
1, 19008, Note_on_c, 1, 29, 104
1, 19008, Note_on_c, 2, 53, 99
1, 19008, Note_on_c, 2, 60, 99
1, 19008, Note_on_c, 2, 65, 99
1, 19008, Note_on_c, 2, 67, 99
1, 19008, Note_on_c, 5, 53, 118
1, 19008, Note_on_c, 5, 65, 109
1, 19008, Note_on_c, 5, 77, 100
1, 19008, Note_on_c, 9, 35, 127
1, 19008, Note_on_c, 9, 42, 117
1, 19028, Note_on_c, 5, 65, 0
1, 19029, Note_on_c, 9, 42, 0
1, 19032, Note_on_c, 2, 67, 0
1, 19035, Note_on_c, 5, 53, 0
1, 19042, Note_on_c, 5, 77, 0
1, 19042, Note_on_c, 2, 53, 0
1, 19043, Note_on_c, 2, 65, 0
1, 19044, Note_on_c, 1, 29, 0
1, 19047, Note_on_c, 2, 60, 0
1, 19056, Note_on_c, 1, 29, 102
1, 19056, Note_on_c, 2, 53, 99
1, 19056, Note_on_c, 2, 60, 99
1, 19056, Note_on_c, 2, 65, 99
1, 19056, Note_on_c, 2, 67, 99
1, 19056, Note_on_c, 5, 53, 121
1, 19056, Note_on_c, 5, 65, 100
1, 19056, Note_on_c, 5, 77, 96
1, 19056, Note_on_c, 9, 42, 71
1, 19062, Note_on_c, 9, 38, 0
1, 19072, Note_on_c, 9, 42, 0
1, 19080, Note_on_c, 5, 65, 0
1, 19084, Note_on_c, 2, 67, 0
1, 19086, Note_on_c, 5, 53, 0
1, 19088, Note_on_c, 5, 77, 0
1, 19089, Note_on_c, 1, 29, 0
1, 19092, Note_on_c, 2, 53, 0
1, 19095, Note_on_c, 2, 60, 0
1, 19096, Note_on_c, 2, 65, 0
1, 19104, Note_on_c, 1, 29, 101
1, 19104, Note_on_c, 2, 53, 99
1, 19104, Note_on_c, 2, 60, 96
1, 19104, Note_on_c, 2, 65, 97
1, 19104, Note_on_c, 2, 67, 94
1, 19104, Note_on_c, 5, 53, 118
1, 19104, Note_on_c, 5, 65, 113
1, 19104, Note_on_c, 5, 77, 100
1, 19104, Note_on_c, 9, 38, 117
1, 19104, Note_on_c, 9, 42, 117
1, 19128, Note_on_c, 9, 42, 0
1, 19130, Note_on_c, 5, 65, 0
1, 19134, Note_on_c, 2, 53, 0
1, 19137, Note_on_c, 2, 65, 0
1, 19138, Note_on_c, 2, 60, 0
1, 19141, Note_on_c, 2, 67, 0
1, 19141, Note_on_c, 1, 29, 0
1, 19143, Note_on_c, 5, 53, 0
1, 19152, Note_on_c, 1, 29, 101
1, 19152, Note_on_c, 2, 53, 98
1, 19152, Note_on_c, 2, 60, 95
1, 19152, Note_on_c, 2, 65, 96
1, 19152, Note_on_c, 2, 67, 93
1, 19152, Note_on_c, 5, 53, 121
1, 19152, Note_on_c, 5, 65, 93
1, 19152, Note_on_c, 9, 42, 66
1, 19160, Note_on_c, 9, 35, 0
1, 19168, Note_on_c, 9, 42, 0
1, 19180, Note_on_c, 5, 65, 0
1, 19186, Note_on_c, 2, 67, 0
1, 19188, Note_on_c, 2, 65, 0
1, 19192, Note_on_c, 1, 29, 0
1, 19193, Note_on_c, 2, 60, 0
1, 19193, Note_on_c, 5, 53, 0
1, 19193, Note_on_c, 5, 77, 0
1, 19197, Note_on_c, 2, 53, 0
1, 19200, Note_on_c, 1, 31, 110
1, 19200, Note_on_c, 2, 55, 99
1, 19200, Note_on_c, 2, 62, 98
1, 19200, Note_on_c, 2, 67, 93
1, 19200, Note_on_c, 5, 55, 125
1, 19200, Note_on_c, 5, 67, 123
1, 19200, Note_on_c, 5, 79, 105
1, 19200, Note_on_c, 9, 35, 127
1, 19200, Note_on_c, 9, 42, 117
1, 19221, Note_on_c, 9, 42, 0
1, 19238, Note_on_c, 5, 55, 0
1, 19242, Note_on_c, 5, 67, 0
1, 19244, Note_on_c, 9, 38, 0
1, 19248, Note_on_c, 9, 42, 70
1, 19251, Note_on_c, 5, 79, 0
1, 19252, Note_on_c, 2, 67, 0
1, 19255, Note_on_c, 2, 62, 0
1, 19260, Note_on_c, 2, 55, 0
1, 19263, Note_on_c, 1, 31, 0
1, 19267, Note_on_c, 9, 42, 0
1, 19296, Note_on_c, 3, 62, 122
1, 19296, Note_on_c, 9, 38, 117
1, 19296, Note_on_c, 9, 42, 117
1, 19313, Note_on_c, 9, 35, 0
1, 19317, Note_on_c, 9, 42, 0
1, 19321, Note_on_c, 3, 62, 0
1, 19344, Note_on_c, 3, 62, 122
1, 19344, Note_on_c, 9, 35, 127
1, 19344, Note_on_c, 9, 42, 72
1, 19363, Note_on_c, 9, 42, 0
1, 19365, Note_on_c, 9, 35, 0
1, 19373, Note_on_c, 3, 62, 0
1, 19392, Note_on_c, 3, 65, 122
1, 19392, Note_on_c, 9, 35, 127
1, 19392, Note_on_c, 9, 42, 117
1, 19415, Note_on_c, 9, 42, 0
1, 19415, Note_on_c, 3, 65, 0
1, 19416, Note_on_c, 3, 66, 97
1, 19433, Note_on_c, 3, 66, 0
1, 19440, Note_on_c, 9, 38, 0
1, 19440, Note_on_c, 3, 62, 102
1, 19440, Note_on_c, 9, 42, 50
1, 19457, Note_on_c, 9, 42, 0
1, 19470, Note_on_c, 3, 62, 0
1, 19488, Note_on_c, 3, 65, 122
1, 19488, Note_on_c, 9, 38, 117
1, 19488, Note_on_c, 9, 42, 117
1, 19512, Note_on_c, 9, 42, 0
1, 19513, Note_on_c, 3, 65, 0
1, 19536, Note_on_c, 3, 65, 122
1, 19536, Note_on_c, 9, 42, 59
1, 19552, Note_on_c, 9, 35, 0
1, 19553, Note_on_c, 9, 42, 0
1, 19578, Note_on_c, 3, 65, 0
1, 19584, Note_on_c, 3, 62, 122
1, 19584, Note_on_c, 9, 35, 127
1, 19584, Note_on_c, 9, 42, 117
1, 19607, Note_on_c, 9, 42, 0
1, 19632, Note_on_c, 1, 38, 112
1, 19632, Note_on_c, 2, 50, 96
1, 19632, Note_on_c, 2, 57, 96
1, 19632, Note_on_c, 2, 62, 96
1, 19632, Note_on_c, 2, 66, 96
1, 19632, Note_on_c, 5, 50, 98
1, 19632, Note_on_c, 5, 62, 90
1, 19632, Note_on_c, 5, 74, 113
1, 19632, Note_on_c, 9, 42, 64
1, 19637, Note_on_c, 9, 38, 0
1, 19647, Note_on_c, 9, 42, 0
1, 19651, Note_on_c, 5, 50, 0
1, 19654, Note_on_c, 5, 62, 0
1, 19660, Note_on_c, 5, 74, 0
1, 19670, Note_on_c, 1, 38, 0
1, 19670, Note_on_c, 2, 57, 0
1, 19671, Note_on_c, 2, 50, 0
1, 19673, Note_on_c, 2, 66, 0
1, 19675, Note_on_c, 2, 62, 0
1, 19680, Note_on_c, 1, 38, 108
1, 19680, Note_on_c, 2, 50, 96
1, 19680, Note_on_c, 2, 57, 97
1, 19680, Note_on_c, 2, 62, 96
1, 19680, Note_on_c, 2, 66, 94
1, 19680, Note_on_c, 5, 50, 99
1, 19680, Note_on_c, 5, 62, 105
1, 19680, Note_on_c, 5, 74, 100
1, 19680, Note_on_c, 9, 38, 117
1, 19680, Note_on_c, 9, 42, 117
1, 19682, Note_on_c, 3, 62, 0
1, 19699, Note_on_c, 9, 35, 0
1, 19704, Note_on_c, 5, 62, 0
1, 19704, Note_on_c, 5, 50, 0
1, 19704, Note_on_c, 9, 42, 0
1, 19708, Note_on_c, 2, 50, 0
1, 19710, Note_on_c, 2, 57, 0
1, 19712, Note_on_c, 5, 74, 0
1, 19713, Note_on_c, 1, 38, 0
1, 19715, Note_on_c, 2, 66, 0
1, 19718, Note_on_c, 2, 62, 0
1, 19728, Note_on_c, 1, 38, 111
1, 19728, Note_on_c, 2, 50, 90
1, 19728, Note_on_c, 2, 57, 94
1, 19728, Note_on_c, 2, 62, 92
1, 19728, Note_on_c, 2, 66, 93
1, 19728, Note_on_c, 5, 50, 58
1, 19728, Note_on_c, 5, 62, 99
1, 19728, Note_on_c, 5, 74, 98
1, 19728, Note_on_c, 9, 35, 125
1, 19728, Note_on_c, 9, 42, 72
1, 19739, Note_on_c, 5, 50, 0
1, 19745, Note_on_c, 9, 42, 0
1, 19749, Note_on_c, 9, 35, 0
1, 19759, Note_on_c, 2, 57, 0
1, 19768, Note_on_c, 2, 62, 0
1, 19769, Note_on_c, 5, 62, 0
1, 19769, Note_on_c, 1, 38, 0
1, 19769, Note_on_c, 2, 66, 0
1, 19772, Note_on_c, 2, 50, 0
1, 19776, Note_on_c, 1, 31, 103
1, 19776, Note_on_c, 2, 55, 98
1, 19776, Note_on_c, 2, 59, 97
1, 19776, Note_on_c, 2, 62, 97
1, 19776, Note_on_c, 2, 67, 95
1, 19776, Note_on_c, 5, 53, 95
1, 19776, Note_on_c, 5, 65, 100
1, 19776, Note_on_c, 5, 77, 111
1, 19776, Note_on_c, 9, 35, 127
1, 19776, Note_on_c, 9, 42, 117
1, 19780, Note_on_c, 5, 74, 0
1, 19797, Note_on_c, 9, 42, 0
1, 19808, Note_on_c, 1, 31, 0
1, 19814, Note_on_c, 2, 55, 0
1, 19815, Note_on_c, 2, 59, 0
1, 19815, Note_on_c, 2, 62, 0
1, 19815, Note_on_c, 2, 67, 0
1, 19820, Note_on_c, 5, 53, 0
1, 19823, Note_on_c, 5, 77, 0
1, 19824, Note_on_c, 1, 31, 108
1, 19824, Note_on_c, 2, 55, 95
1, 19824, Note_on_c, 2, 59, 87
1, 19824, Note_on_c, 2, 62, 92
1, 19824, Note_on_c, 2, 67, 97
1, 19824, Note_on_c, 5, 50, 93
1, 19824, Note_on_c, 5, 62, 90
1, 19824, Note_on_c, 5, 74, 96
1, 19824, Note_on_c, 9, 42, 71
1, 19830, Note_on_c, 9, 38, 0
1, 19834, Note_on_c, 5, 65, 0
1, 19840, Note_on_c, 9, 42, 0
1, 19848, Note_on_c, 5, 50, 0
1, 19852, Note_on_c, 5, 74, 0
1, 19858, Note_on_c, 5, 62, 0
1, 19861, Note_on_c, 2, 55, 0
1, 19861, Note_on_c, 2, 67, 0
1, 19865, Note_on_c, 2, 59, 0
1, 19867, Note_on_c, 2, 62, 0
1, 19872, Note_on_c, 1, 31, 0
1, 19872, Note_on_c, 1, 33, 108
1, 19872, Note_on_c, 2, 55, 95
1, 19872, Note_on_c, 2, 59, 87
1, 19872, Note_on_c, 2, 62, 97
1, 19872, Note_on_c, 2, 67, 96
1, 19872, Note_on_c, 5, 50, 93
1, 19872, Note_on_c, 5, 62, 109
1, 19872, Note_on_c, 5, 74, 109
1, 19872, Note_on_c, 9, 38, 117
1, 19872, Note_on_c, 9, 42, 117
1, 19896, Note_on_c, 9, 42, 0
1, 19896, Note_on_c, 5, 50, 0
1, 19902, Note_on_c, 2, 59, 0
1, 19904, Note_on_c, 2, 62, 0
1, 19906, Note_on_c, 2, 55, 0
1, 19906, Note_on_c, 2, 67, 0
1, 19911, Note_on_c, 5, 62, 0
1, 19917, Note_on_c, 1, 33, 0
1, 19920, Note_on_c, 5, 74, 0
1, 19920, Note_on_c, 1, 35, 112
1, 19920, Note_on_c, 2, 55, 97
1, 19920, Note_on_c, 2, 59, 94
1, 19920, Note_on_c, 2, 62, 94
1, 19920, Note_on_c, 2, 67, 98
1, 19920, Note_on_c, 5, 53, 107
1, 19920, Note_on_c, 5, 72, 96
1, 19920, Note_on_c, 9, 42, 66
1, 19928, Note_on_c, 9, 35, 0
1, 19936, Note_on_c, 9, 42, 0
1, 19953, Note_on_c, 2, 59, 0
1, 19960, Note_on_c, 5, 72, 0
1, 19962, Note_on_c, 5, 53, 0
1, 19962, Note_on_c, 2, 62, 0
1, 19964, Note_on_c, 1, 35, 0
1, 19968, Note_on_c, 1, 38, 112
1, 19968, Note_on_c, 2, 50, 98
1, 19968, Note_on_c, 2, 57, 99
1, 19968, Note_on_c, 2, 62, 98
1, 19968, Note_on_c, 2, 66, 97
1, 19968, Note_on_c, 5, 50, 109
1, 19968, Note_on_c, 5, 62, 105
1, 19968, Note_on_c, 5, 74, 116
1, 19968, Note_on_c, 9, 35, 127
1, 19968, Note_on_c, 9, 42, 117
1, 19969, Note_on_c, 2, 55, 0
1, 19979, Note_on_c, 2, 67, 0
1, 19989, Note_on_c, 9, 42, 0
1, 20006, Pitch_bend_c, 3, 7774
1, 20009, Note_on_c, 5, 74, 0
1, 20009, Note_on_c, 5, 50, 0
1, 20010, Pitch_bend_c, 3, 6264
1, 20011, Note_on_c, 5, 62, 0
1, 20012, Note_on_c, 9, 38, 0
1, 20016, Note_on_c, 3, 67, 95
1, 20016, Note_on_c, 3, 68, 122
1, 20016, Note_on_c, 3, 69, 118
1, 20016, Pitch_bend_c, 3, 2570
1, 20016, Note_on_c, 9, 42, 70
1, 20020, Note_on_c, 3, 67, 0
1, 20021, Pitch_bend_c, 3, 3116
1, 20023, Note_on_c, 2, 57, 0
1, 20024, Pitch_bend_c, 3, 6714
1, 20027, Note_on_c, 1, 38, 0
1, 20028, Note_on_c, 3, 68, 0
1, 20029, Pitch_bend_c, 3, 8192
1, 20032, Note_on_c, 2, 66, 0
1, 20033, Note_on_c, 2, 50, 0
1, 20035, Note_on_c, 9, 42, 0
1, 20042, Note_on_c, 2, 62, 0
1, 20064, Note_on_c, 3, 72, 122
1, 20064, Note_on_c, 9, 38, 117
1, 20064, Note_on_c, 9, 42, 117
1, 20073, Note_on_c, 3, 69, 0
1, 20081, Note_on_c, 9, 35, 0
1, 20085, Note_on_c, 9, 42, 0
1, 20085, Note_on_c, 3, 72, 0
1, 20112, Note_on_c, 3, 69, 31
1, 20112, Note_on_c, 9, 35, 127
1, 20112, Note_on_c, 9, 42, 72
1, 20131, Note_on_c, 9, 42, 0
1, 20133, Note_on_c, 9, 35, 0
1, 20149, Note_on_c, 3, 69, 0
1, 20160, Note_on_c, 3, 72, 122
1, 20160, Note_on_c, 9, 35, 127
1, 20160, Note_on_c, 9, 42, 117
1, 20183, Note_on_c, 9, 42, 0
1, 20207, Note_on_c, 3, 72, 0
1, 20208, Note_on_c, 9, 38, 0
1, 20208, Note_on_c, 3, 69, 108
1, 20208, Note_on_c, 9, 42, 50
1, 20225, Note_on_c, 9, 42, 0
1, 20227, Note_on_c, 3, 69, 0
1, 20256, Note_on_c, 3, 72, 122
1, 20256, Note_on_c, 9, 38, 117
1, 20256, Note_on_c, 9, 42, 117
1, 20280, Note_on_c, 9, 42, 0
1, 20281, Note_on_c, 3, 72, 0
1, 20304, Note_on_c, 3, 72, 122
1, 20304, Pitch_bend_c, 3, 8564
1, 20304, Note_on_c, 9, 42, 59
1, 20320, Note_on_c, 9, 35, 0
1, 20321, Note_on_c, 9, 42, 0
1, 20350, Note_on_c, 3, 72, 0
1, 20352, Note_on_c, 3, 69, 122
1, 20352, Note_on_c, 9, 35, 127
1, 20352, Note_on_c, 9, 42, 117
1, 20375, Note_on_c, 9, 42, 0
1, 20400, Note_on_c, 1, 33, 112
1, 20400, Note_on_c, 2, 57, 99
1, 20400, Note_on_c, 2, 64, 98
1, 20400, Note_on_c, 2, 69, 94
1, 20400, Note_on_c, 5, 57, 95
1, 20400, Note_on_c, 5, 69, 109
1, 20400, Note_on_c, 9, 42, 64
1, 20405, Note_on_c, 9, 38, 0
1, 20415, Note_on_c, 9, 42, 0
1, 20426, Note_on_c, 5, 57, 0
1, 20430, Note_on_c, 5, 69, 0
1, 20434, Note_on_c, 2, 57, 0
1, 20436, Note_on_c, 1, 33, 0
1, 20436, Note_on_c, 2, 64, 0
1, 20440, Note_on_c, 2, 69, 0
1, 20443, Control_c, 3, 1, 12
1, 20448, Note_on_c, 1, 33, 111
1, 20448, Note_on_c, 2, 57, 98
1, 20448, Note_on_c, 2, 64, 95
1, 20448, Note_on_c, 2, 69, 92
1, 20448, Note_on_c, 5, 57, 107
1, 20448, Note_on_c, 5, 69, 111
1, 20448, Note_on_c, 9, 38, 117
1, 20448, Note_on_c, 9, 42, 117
1, 20451, Control_c, 3, 1, 28
1, 20460, Control_c, 3, 1, 66
1, 20467, Note_on_c, 9, 35, 0
1, 20470, Control_c, 3, 1, 90
1, 20472, Note_on_c, 9, 42, 0
1, 20475, Note_on_c, 5, 57, 0
1, 20477, Note_on_c, 5, 69, 0
1, 20479, Control_c, 3, 1, 107
1, 20483, Note_on_c, 2, 57, 0
1, 20484, Note_on_c, 2, 64, 0
1, 20484, Note_on_c, 1, 33, 0
1, 20485, Note_on_c, 2, 69, 0
1, 20486, Control_c, 3, 1, 123
1, 20494, Control_c, 3, 1, 126
1, 20496, Note_on_c, 1, 33, 111
1, 20496, Note_on_c, 2, 57, 98
1, 20496, Note_on_c, 2, 64, 98
1, 20496, Note_on_c, 2, 69, 98
1, 20496, Note_on_c, 5, 57, 109
1, 20496, Note_on_c, 5, 69, 111
1, 20496, Note_on_c, 9, 35, 125
1, 20496, Note_on_c, 9, 42, 72
1, 20513, Note_on_c, 9, 42, 0
1, 20517, Note_on_c, 9, 35, 0
1, 20519, Note_on_c, 3, 69, 0
1, 20519, Control_c, 3, 1, 91
1, 20522, Note_on_c, 5, 57, 0
1, 20526, Note_on_c, 1, 33, 0
1, 20527, Note_on_c, 5, 69, 0
1, 20529, Control_c, 3, 1, 0
1, 20531, Note_on_c, 2, 57, 0
1, 20535, Note_on_c, 2, 69, 0
1, 20536, Note_on_c, 2, 64, 0
1, 20544, Note_on_c, 1, 33, 112
1, 20544, Note_on_c, 2, 57, 98
1, 20544, Note_on_c, 2, 64, 98
1, 20544, Note_on_c, 2, 69, 98
1, 20544, Note_on_c, 5, 57, 118
1, 20544, Note_on_c, 5, 69, 111
1, 20544, Note_on_c, 9, 35, 127
1, 20544, Note_on_c, 9, 42, 117
1, 20565, Note_on_c, 9, 42, 0
1, 20568, Note_on_c, 2, 69, 0
1, 20571, Note_on_c, 2, 64, 0
1, 20571, Note_on_c, 2, 57, 0
1, 20572, Note_on_c, 5, 57, 0
1, 20576, Note_on_c, 5, 69, 0
1, 20580, Note_on_c, 1, 33, 0
1, 20592, Note_on_c, 1, 33, 103
1, 20592, Note_on_c, 2, 57, 99
1, 20592, Note_on_c, 2, 64, 99
1, 20592, Note_on_c, 2, 69, 99
1, 20592, Note_on_c, 5, 57, 126
1, 20592, Note_on_c, 5, 69, 121
1, 20592, Note_on_c, 9, 42, 71
1, 20598, Note_on_c, 9, 38, 0
1, 20608, Note_on_c, 9, 42, 0
1, 20616, Note_on_c, 2, 57, 0
1, 20620, Note_on_c, 5, 57, 0
1, 20624, Note_on_c, 5, 69, 0
1, 20625, Note_on_c, 2, 69, 0
1, 20627, Note_on_c, 2, 64, 0
1, 20628, Note_on_c, 1, 33, 0
1, 20640, Note_on_c, 1, 33, 110
1, 20640, Note_on_c, 2, 57, 97
1, 20640, Note_on_c, 2, 64, 97
1, 20640, Note_on_c, 2, 69, 97
1, 20640, Note_on_c, 5, 57, 126
1, 20640, Note_on_c, 5, 69, 121
1, 20640, Note_on_c, 9, 38, 117
1, 20640, Note_on_c, 9, 42, 117
1, 20664, Note_on_c, 9, 42, 0
1, 20665, Note_on_c, 5, 69, 0
1, 20666, Note_on_c, 5, 57, 0
1, 20671, Note_on_c, 2, 64, 0
1, 20674, Note_on_c, 2, 57, 0
1, 20676, Note_on_c, 2, 69, 0
1, 20676, Note_on_c, 1, 33, 0
1, 20688, Note_on_c, 1, 33, 112
1, 20688, Note_on_c, 2, 57, 97
1, 20688, Note_on_c, 2, 64, 97
1, 20688, Note_on_c, 2, 69, 97
1, 20688, Note_on_c, 5, 57, 127
1, 20688, Note_on_c, 5, 69, 113
1, 20688, Note_on_c, 9, 42, 66
1, 20696, Note_on_c, 9, 35, 0
1, 20704, Note_on_c, 9, 42, 0
1, 20713, Note_on_c, 5, 69, 0
1, 20713, Note_on_c, 5, 57, 0
1, 20724, Note_on_c, 1, 33, 0
1, 20728, Note_on_c, 2, 57, 0
1, 20729, Note_on_c, 2, 64, 0
1, 20735, Note_on_c, 2, 69, 0
1, 20736, Note_on_c, 1, 33, 112
1, 20736, Note_on_c, 2, 57, 99
1, 20736, Note_on_c, 2, 64, 99
1, 20736, Note_on_c, 2, 67, 97
1, 20736, Note_on_c, 5, 57, 127
1, 20736, Note_on_c, 5, 69, 125
1, 20736, Note_on_c, 5, 81, 126
1, 20736, Note_on_c, 9, 35, 127
1, 20736, Note_on_c, 9, 42, 117
1, 20757, Note_on_c, 9, 42, 0
1, 20771, Note_on_c, 5, 57, 0
1, 20776, Note_on_c, 5, 81, 0
1, 20780, Note_on_c, 9, 38, 0
1, 20784, Note_on_c, 3, 62, 120
1, 20784, Note_on_c, 9, 42, 70
1, 20786, Note_on_c, 2, 64, 0
1, 20786, Note_on_c, 1, 33, 0
1, 20787, Note_on_c, 2, 57, 0
1, 20788, Note_on_c, 5, 69, 0
1, 20792, Note_on_c, 2, 67, 0
1, 20803, Note_on_c, 9, 42, 0
1, 20805, Note_on_c, 3, 62, 0
1, 20832, Note_on_c, 3, 62, 122
1, 20832, Note_on_c, 9, 38, 117
1, 20832, Note_on_c, 9, 42, 117
1, 20849, Note_on_c, 3, 62, 0
1, 20849, Note_on_c, 9, 35, 0
1, 20853, Note_on_c, 9, 42, 0
1, 20880, Note_on_c, 3, 62, 121
1, 20880, Note_on_c, 9, 35, 127
1, 20880, Note_on_c, 9, 42, 72
1, 20899, Note_on_c, 9, 42, 0
1, 20901, Note_on_c, 9, 35, 0
1, 20905, Note_on_c, 3, 62, 0
1, 20928, Note_on_c, 3, 65, 122
1, 20928, Note_on_c, 9, 35, 127
1, 20928, Note_on_c, 9, 42, 117
1, 20951, Note_on_c, 9, 42, 0
1, 20972, Note_on_c, 3, 65, 0
1, 20976, Note_on_c, 9, 38, 0
1, 20976, Note_on_c, 3, 62, 121
1, 20976, Note_on_c, 9, 42, 50
1, 20993, Note_on_c, 9, 42, 0
1, 20995, Note_on_c, 3, 62, 0
1, 21024, Note_on_c, 3, 65, 122
1, 21024, Note_on_c, 9, 38, 117
1, 21024, Note_on_c, 9, 42, 117
1, 21048, Note_on_c, 9, 42, 0
1, 21051, Note_on_c, 3, 65, 0
1, 21072, Note_on_c, 3, 65, 122
1, 21072, Note_on_c, 9, 42, 59
1, 21088, Note_on_c, 9, 35, 0
1, 21089, Note_on_c, 9, 42, 0
1, 21111, Note_on_c, 3, 65, 0
1, 21120, Note_on_c, 3, 62, 122
1, 21120, Note_on_c, 9, 35, 127
1, 21120, Note_on_c, 9, 42, 117
1, 21143, Note_on_c, 9, 42, 0
1, 21168, Note_on_c, 1, 38, 112
1, 21168, Note_on_c, 2, 50, 99
1, 21168, Note_on_c, 2, 57, 99
1, 21168, Note_on_c, 2, 62, 99
1, 21168, Note_on_c, 2, 66, 95
1, 21168, Note_on_c, 9, 42, 64
1, 21173, Note_on_c, 9, 38, 0
1, 21183, Note_on_c, 9, 42, 0
1, 21196, Control_c, 3, 1, 22
1, 21200, Note_on_c, 2, 57, 0
1, 21204, Note_on_c, 2, 50, 0
1, 21206, Note_on_c, 1, 38, 0
1, 21206, Control_c, 3, 1, 44
1, 21207, Note_on_c, 2, 66, 0
1, 21208, Note_on_c, 2, 62, 0
1, 21214, Control_c, 3, 1, 95
1, 21216, Note_on_c, 1, 38, 112
1, 21216, Note_on_c, 2, 50, 99
1, 21216, Note_on_c, 2, 57, 98
1, 21216, Note_on_c, 2, 62, 99
1, 21216, Note_on_c, 2, 66, 97
1, 21216, Note_on_c, 5, 50, 107
1, 21216, Note_on_c, 5, 62, 98
1, 21216, Note_on_c, 5, 74, 121
1, 21216, Note_on_c, 5, 78, 70
1, 21216, Note_on_c, 9, 38, 117
1, 21216, Note_on_c, 9, 42, 117
1, 21222, Control_c, 3, 1, 124
1, 21231, Control_c, 3, 1, 127
1, 21235, Note_on_c, 5, 50, 0
1, 21235, Note_on_c, 9, 35, 0
1, 21237, Note_on_c, 3, 62, 0
1, 21239, Note_on_c, 5, 62, 0
1, 21239, Control_c, 3, 1, 113
1, 21240, Note_on_c, 5, 78, 0
1, 21240, Note_on_c, 9, 42, 0
1, 21243, Note_on_c, 5, 74, 0
1, 21246, Note_on_c, 2, 57, 0
1, 21247, Note_on_c, 2, 50, 0
1, 21248, Control_c, 3, 1, 0
1, 21249, Note_on_c, 1, 38, 0
1, 21251, Note_on_c, 2, 66, 0
1, 21253, Note_on_c, 2, 62, 0
1, 21264, Note_on_c, 1, 33, 112
1, 21264, Note_on_c, 2, 50, 93
1, 21264, Note_on_c, 2, 57, 97
1, 21264, Note_on_c, 2, 62, 97
1, 21264, Note_on_c, 2, 66, 95
1, 21264, Note_on_c, 5, 50, 111
1, 21264, Note_on_c, 5, 62, 113
1, 21264, Note_on_c, 5, 74, 113
1, 21264, Note_on_c, 5, 78, 114
1, 21264, Note_on_c, 9, 35, 125
1, 21264, Note_on_c, 9, 42, 72
1, 21281, Note_on_c, 9, 42, 0
1, 21285, Note_on_c, 9, 35, 0
1, 21293, Note_on_c, 2, 57, 0
1, 21294, Note_on_c, 5, 50, 0
1, 21295, Note_on_c, 5, 74, 0
1, 21298, Note_on_c, 5, 62, 0
1, 21298, Note_on_c, 5, 78, 0
1, 21299, Note_on_c, 2, 62, 0
1, 21307, Note_on_c, 2, 66, 0
1, 21309, Note_on_c, 2, 50, 0
1, 21312, Note_on_c, 1, 31, 112
1, 21312, Note_on_c, 2, 55, 99
1, 21312, Note_on_c, 2, 59, 99
1, 21312, Note_on_c, 2, 62, 99
1, 21312, Note_on_c, 2, 67, 98
1, 21312, Note_on_c, 5, 55, 96
1, 21312, Note_on_c, 5, 74, 111
1, 21312, Note_on_c, 5, 79, 111
1, 21312, Note_on_c, 9, 35, 127
1, 21312, Note_on_c, 9, 42, 117
1, 21322, Note_on_c, 1, 33, 0
1, 21333, Note_on_c, 9, 42, 0
1, 21337, Note_on_c, 5, 55, 0
1, 21339, Note_on_c, 1, 31, 0
1, 21341, Note_on_c, 5, 74, 0
1, 21347, Note_on_c, 5, 79, 0
1, 21349, Note_on_c, 2, 62, 0
1, 21350, Note_on_c, 2, 55, 0
1, 21351, Note_on_c, 2, 67, 0
1, 21353, Note_on_c, 2, 59, 0
1, 21360, Note_on_c, 1, 31, 110
1, 21360, Note_on_c, 2, 55, 99
1, 21360, Note_on_c, 2, 59, 92
1, 21360, Note_on_c, 2, 62, 97
1, 21360, Note_on_c, 2, 67, 96
1, 21360, Note_on_c, 5, 55, 109
1, 21360, Note_on_c, 5, 74, 123
1, 21360, Note_on_c, 5, 79, 116
1, 21360, Note_on_c, 9, 42, 71
1, 21366, Note_on_c, 9, 38, 0
1, 21376, Note_on_c, 9, 42, 0
1, 21392, Note_on_c, 5, 55, 0
1, 21393, Note_on_c, 5, 74, 0
1, 21394, Note_on_c, 5, 79, 0
1, 21396, Note_on_c, 2, 59, 0
1, 21397, Note_on_c, 2, 67, 0
1, 21399, Note_on_c, 2, 62, 0
1, 21400, Note_on_c, 2, 55, 0
1, 21408, Note_on_c, 1, 33, 111
1, 21408, Note_on_c, 2, 55, 99
1, 21408, Note_on_c, 2, 59, 97
1, 21408, Note_on_c, 2, 62, 98
1, 21408, Note_on_c, 2, 67, 98
1, 21408, Note_on_c, 5, 55, 103
1, 21408, Note_on_c, 5, 74, 123
1, 21408, Note_on_c, 5, 79, 121
1, 21408, Note_on_c, 9, 38, 117
1, 21408, Note_on_c, 9, 42, 117
1, 21409, Note_on_c, 1, 31, 0
1, 21432, Note_on_c, 9, 42, 0
1, 21436, Note_on_c, 2, 59, 0
1, 21438, Note_on_c, 5, 55, 0
1, 21439, Note_on_c, 2, 62, 0
1, 21440, Note_on_c, 5, 74, 0
1, 21441, Note_on_c, 5, 79, 0
1, 21442, Note_on_c, 2, 67, 0
1, 21456, Note_on_c, 1, 35, 112
1, 21456, Note_on_c, 2, 59, 94
1, 21456, Note_on_c, 2, 62, 98
1, 21456, Note_on_c, 2, 67, 98
1, 21456, Note_on_c, 5, 55, 95
1, 21456, Note_on_c, 5, 74, 126
1, 21456, Note_on_c, 5, 79, 121
1, 21456, Note_on_c, 9, 42, 66
1, 21460, Note_on_c, 1, 33, 0
1, 21464, Note_on_c, 9, 35, 0
1, 21472, Note_on_c, 9, 42, 0
1, 21486, Note_on_c, 2, 59, 0
1, 21493, Note_on_c, 2, 62, 0
1, 21495, Note_on_c, 5, 74, 0
1, 21496, Note_on_c, 2, 55, 0
1, 21498, Note_on_c, 5, 79, 0
1, 21504, Note_on_c, 1, 38, 112
1, 21504, Note_on_c, 2, 50, 99
1, 21504, Note_on_c, 2, 57, 99
1, 21504, Note_on_c, 2, 62, 99
1, 21504, Note_on_c, 2, 66, 96
1, 21504, Note_on_c, 5, 50, 121
1, 21504, Note_on_c, 5, 62, 123
1, 21504, Note_on_c, 5, 74, 127
1, 21504, Note_on_c, 5, 78, 127
1, 21504, Note_on_c, 9, 35, 127
1, 21504, Note_on_c, 9, 42, 117
1, 21505, Note_on_c, 2, 67, 0
1, 21506, Note_on_c, 1, 35, 0
1, 21506, Note_on_c, 5, 55, 0
1, 21525, Note_on_c, 9, 42, 0
1, 21543, Note_on_c, 5, 78, 0
1, 21544, Note_on_c, 5, 50, 0
1, 21546, Note_on_c, 5, 74, 0
1, 21547, Note_on_c, 5, 62, 0
1, 21548, Note_on_c, 9, 38, 0
1, 21552, Note_on_c, 9, 42, 70
1, 21563, Note_on_c, 2, 62, 0
1, 21563, Note_on_c, 2, 57, 0
1, 21564, Note_on_c, 2, 66, 0
1, 21566, Note_on_c, 2, 50, 0
1, 21571, Note_on_c, 9, 42, 0
1, 21578, Note_on_c, 1, 38, 0
1, 21600, Note_on_c, 9, 38, 117
1, 21600, Note_on_c, 9, 42, 117
1, 21617, Note_on_c, 9, 35, 0
1, 21621, Note_on_c, 9, 42, 0
1, 21648, Note_on_c, 9, 35, 127
1, 21648, Note_on_c, 9, 42, 72
1, 21667, Note_on_c, 9, 42, 0
1, 21669, Note_on_c, 9, 35, 0
1, 21696, Note_on_c, 9, 35, 127
1, 21696, Note_on_c, 9, 42, 117
1, 21719, Note_on_c, 9, 42, 0
1, 21744, Note_on_c, 9, 38, 0
1, 21744, Note_on_c, 9, 42, 50
1, 21761, Note_on_c, 9, 42, 0
1, 21792, Note_on_c, 9, 38, 117
1, 21792, Note_on_c, 9, 42, 117
1, 21816, Note_on_c, 9, 42, 0
1, 21840, Note_on_c, 9, 42, 59
1, 21856, Note_on_c, 9, 35, 0
1, 21857, Note_on_c, 9, 42, 0
1, 21881, Pitch_bend_c, 5, 7453
1, 21885, Pitch_bend_c, 5, 3790
1, 21888, Note_on_c, 5, 74, 127
1, 21888, Note_on_c, 5, 76, 127
1, 21888, Note_on_c, 5, 81, 116
1, 21888, Note_on_c, 9, 35, 127
1, 21888, Note_on_c, 9, 42, 117
1, 21891, Pitch_bend_c, 5, 706
1, 21896, Pitch_bend_c, 5, 8192
1, 21911, Note_on_c, 9, 42, 0
1, 21936, Note_on_c, 1, 38, 112
1, 21936, Note_on_c, 2, 50, 99
1, 21936, Note_on_c, 2, 57, 99
1, 21936, Note_on_c, 2, 62, 99
1, 21936, Note_on_c, 2, 66, 95
1, 21936, Note_on_c, 9, 42, 64
1, 21941, Note_on_c, 9, 38, 0
1, 21951, Note_on_c, 9, 42, 0
1, 21968, Note_on_c, 2, 57, 0
1, 21972, Note_on_c, 2, 50, 0
1, 21974, Note_on_c, 1, 38, 0
1, 21975, Note_on_c, 2, 66, 0
1, 21976, Note_on_c, 2, 62, 0
1, 21984, Note_on_c, 1, 38, 112
1, 21984, Note_on_c, 2, 50, 99
1, 21984, Note_on_c, 2, 57, 98
1, 21984, Note_on_c, 2, 62, 99
1, 21984, Note_on_c, 2, 66, 97
1, 21984, Note_on_c, 9, 38, 117
1, 21984, Note_on_c, 9, 42, 117
1, 21984, Note_on_c, 9, 54, 127
1, 22003, Note_on_c, 9, 35, 0
1, 22008, Note_on_c, 9, 42, 0
1, 22014, Note_on_c, 2, 57, 0
1, 22015, Note_on_c, 2, 50, 0
1, 22017, Note_on_c, 1, 38, 0
1, 22019, Note_on_c, 2, 66, 0
1, 22021, Note_on_c, 2, 62, 0
1, 22032, Note_on_c, 1, 33, 112
1, 22032, Note_on_c, 2, 50, 93
1, 22032, Note_on_c, 2, 57, 97
1, 22032, Note_on_c, 2, 62, 97
1, 22032, Note_on_c, 2, 66, 95
1, 22032, Note_on_c, 9, 35, 125
1, 22032, Note_on_c, 9, 42, 72
1, 22049, Note_on_c, 9, 42, 0
1, 22053, Note_on_c, 9, 35, 0
1, 22061, Note_on_c, 2, 57, 0
1, 22067, Note_on_c, 2, 62, 0
1, 22075, Note_on_c, 2, 66, 0
1, 22077, Note_on_c, 2, 50, 0
1, 22080, Note_on_c, 1, 31, 112
1, 22080, Note_on_c, 2, 55, 99
1, 22080, Note_on_c, 2, 59, 99
1, 22080, Note_on_c, 2, 62, 99
1, 22080, Note_on_c, 2, 67, 98
1, 22080, Note_on_c, 9, 35, 127
1, 22080, Note_on_c, 9, 42, 117
1, 22090, Note_on_c, 1, 33, 0
1, 22101, Note_on_c, 9, 42, 0
1, 22107, Note_on_c, 1, 31, 0
1, 22117, Note_on_c, 2, 62, 0
1, 22118, Note_on_c, 2, 55, 0
1, 22119, Note_on_c, 2, 67, 0
1, 22121, Note_on_c, 2, 59, 0
1, 22122, Note_on_c, 9, 54, 0
1, 22128, Note_on_c, 1, 31, 110
1, 22128, Note_on_c, 2, 55, 99
1, 22128, Note_on_c, 2, 59, 92
1, 22128, Note_on_c, 2, 62, 97
1, 22128, Note_on_c, 2, 67, 96
1, 22128, Note_on_c, 9, 42, 71
1, 22134, Note_on_c, 9, 38, 0
1, 22144, Note_on_c, 9, 42, 0
1, 22156, Control_c, 5, 1, 4
1, 22164, Note_on_c, 2, 59, 0
1, 22165, Note_on_c, 2, 67, 0
1, 22165, Control_c, 5, 1, 8
1, 22167, Note_on_c, 2, 62, 0
1, 22168, Note_on_c, 2, 55, 0
1, 22176, Note_on_c, 1, 33, 111
1, 22176, Note_on_c, 2, 55, 99
1, 22176, Note_on_c, 2, 59, 97
1, 22176, Note_on_c, 2, 62, 98
1, 22176, Note_on_c, 2, 67, 98
1, 22176, Note_on_c, 9, 38, 117
1, 22176, Note_on_c, 9, 42, 117
1, 22176, Note_on_c, 9, 54, 127
1, 22177, Note_on_c, 1, 31, 0
1, 22178, Control_c, 5, 1, 11
1, 22183, Pitch_bend_c, 5, 8127
1, 22191, Control_c, 5, 1, 13
1, 22193, Pitch_bend_c, 5, 8063
1, 22199, Control_c, 5, 1, 16
1, 22199, Pitch_bend_c, 5, 7999
1, 22200, Note_on_c, 9, 42, 0
1, 22203, Pitch_bend_c, 5, 7934
1, 22204, Note_on_c, 2, 59, 0
1, 22207, Note_on_c, 2, 62, 0
1, 22209, Control_c, 5, 1, 19
1, 22209, Pitch_bend_c, 5, 7838
1, 22210, Note_on_c, 2, 67, 0
1, 22214, Pitch_bend_c, 5, 7774
1, 22218, Control_c, 5, 1, 23
1, 22218, Pitch_bend_c, 5, 7677
1, 22224, Note_on_c, 1, 35, 112
1, 22224, Note_on_c, 2, 59, 94
1, 22224, Note_on_c, 2, 62, 98
1, 22224, Note_on_c, 2, 67, 98
1, 22224, Note_on_c, 9, 42, 66
1, 22225, Pitch_bend_c, 5, 7613
1, 22227, Control_c, 5, 1, 25
1, 22228, Note_on_c, 1, 33, 0
1, 22229, Pitch_bend_c, 5, 7581
1, 22232, Note_on_c, 9, 35, 0
1, 22236, Control_c, 5, 1, 28
1, 22237, Pitch_bend_c, 5, 7581
1, 22240, Note_on_c, 9, 42, 0
1, 22242, Pitch_bend_c, 5, 7549
1, 22244, Control_c, 5, 1, 31
1, 22246, Pitch_bend_c, 5, 7485
1, 22252, Control_c, 5, 1, 33
1, 22254, Note_on_c, 2, 59, 0
1, 22254, Pitch_bend_c, 5, 7388
1, 22258, Pitch_bend_c, 5, 7292
1, 22259, Control_c, 5, 1, 36
1, 22261, Note_on_c, 2, 62, 0
1, 22263, Pitch_bend_c, 5, 7292
1, 22264, Note_on_c, 2, 55, 0
1, 22267, Control_c, 5, 1, 38
1, 22269, Pitch_bend_c, 5, 7196
1, 22272, Note_on_c, 1, 38, 112
1, 22272, Note_on_c, 2, 50, 99
1, 22272, Note_on_c, 2, 57, 99
1, 22272, Note_on_c, 2, 62, 99
1, 22272, Note_on_c, 2, 66, 96
1, 22272, Note_on_c, 9, 35, 127
1, 22272, Note_on_c, 9, 42, 117
1, 22273, Note_on_c, 2, 67, 0
1, 22273, Pitch_bend_c, 5, 7163
1, 22274, Note_on_c, 1, 35, 0
1, 22275, Control_c, 5, 1, 40
1, 22277, Pitch_bend_c, 5, 7163
1, 22287, Control_c, 5, 1, 44
1, 22289, Pitch_bend_c, 5, 7099
1, 22293, Note_on_c, 9, 42, 0
1, 22295, Pitch_bend_c, 5, 7035
1, 22298, Control_c, 5, 1, 48
1, 22305, Control_c, 5, 1, 51
1, 22305, Pitch_bend_c, 5, 6971
1, 22314, Control_c, 5, 1, 55
1, 22314, Pitch_bend_c, 5, 6939
1, 22316, Note_on_c, 9, 38, 0
1, 22317, Pitch_bend_c, 5, 6842
1, 22319, Note_on_c, 9, 54, 0
1, 22320, Note_on_c, 9, 42, 70
1, 22321, Control_c, 5, 1, 58
1, 22324, Pitch_bend_c, 5, 6778
1, 22330, Control_c, 5, 1, 63
1, 22331, Note_on_c, 2, 62, 0
1, 22331, Note_on_c, 2, 57, 0
1, 22331, Pitch_bend_c, 5, 6714
1, 22332, Note_on_c, 2, 66, 0
1, 22334, Note_on_c, 2, 50, 0
1, 22335, Pitch_bend_c, 5, 6714
1, 22339, Note_on_c, 9, 42, 0
1, 22340, Control_c, 5, 1, 71
1, 22342, Pitch_bend_c, 5, 6585
1, 22346, Note_on_c, 1, 38, 0
1, 22349, Control_c, 5, 1, 78
1, 22353, Pitch_bend_c, 5, 6489
1, 22358, Control_c, 5, 1, 84
1, 22358, Pitch_bend_c, 5, 6489
1, 22366, Pitch_bend_c, 5, 6392
1, 22368, Control_c, 5, 1, 88
1, 22368, Note_on_c, 9, 38, 117
1, 22368, Note_on_c, 9, 42, 117
1, 22368, Note_on_c, 9, 54, 127
1, 22372, Pitch_bend_c, 5, 6328
1, 22377, Control_c, 5, 1, 91
1, 22380, Pitch_bend_c, 5, 6264
1, 22385, Note_on_c, 9, 35, 0
1, 22385, Control_c, 5, 1, 94
1, 22389, Note_on_c, 9, 42, 0
1, 22391, Pitch_bend_c, 5, 6264
1, 22397, Control_c, 5, 1, 97
1, 22400, Pitch_bend_c, 5, 6232
1, 22404, Pitch_bend_c, 5, 6135
1, 22408, Control_c, 5, 1, 99
1, 22411, Pitch_bend_c, 5, 6135
1, 22416, Note_on_c, 9, 35, 127
1, 22416, Note_on_c, 9, 42, 72
1, 22419, Control_c, 5, 1, 102
1, 22421, Pitch_bend_c, 5, 6039
1, 22427, Control_c, 5, 1, 103
1, 22427, Pitch_bend_c, 5, 5943
1, 22431, Pitch_bend_c, 5, 5911
1, 22435, Note_on_c, 9, 42, 0
1, 22436, Control_c, 5, 1, 104
1, 22436, Pitch_bend_c, 5, 5878
1, 22437, Note_on_c, 9, 35, 0
1, 22441, Pitch_bend_c, 5, 5846
1, 22446, Pitch_bend_c, 5, 5814
1, 22451, Pitch_bend_c, 5, 5782
1, 22452, Control_c, 5, 1, 106
1, 22455, Pitch_bend_c, 5, 5782
1, 22459, Pitch_bend_c, 5, 5718
1, 22464, Note_on_c, 9, 35, 127
1, 22464, Note_on_c, 9, 42, 117
1, 22465, Pitch_bend_c, 5, 5654
1, 22470, Control_c, 5, 1, 107
1, 22470, Pitch_bend_c, 5, 5557
1, 22475, Pitch_bend_c, 5, 5493
1, 22478, Control_c, 5, 1, 108
1, 22483, Pitch_bend_c, 5, 5429
1, 22487, Note_on_c, 9, 42, 0
1, 22487, Pitch_bend_c, 5, 5397
1, 22490, Control_c, 5, 1, 109
1, 22499, Control_c, 5, 1, 110
1, 22501, Pitch_bend_c, 5, 5364
1, 22505, Note_on_c, 9, 54, 0
1, 22507, Pitch_bend_c, 5, 5300
1, 22509, Control_c, 5, 1, 111
1, 22512, Note_on_c, 9, 38, 0
1, 22512, Note_on_c, 9, 42, 50
1, 22520, Control_c, 5, 1, 113
1, 22523, Pitch_bend_c, 5, 5172
1, 22527, Pitch_bend_c, 5, 5075
1, 22529, Note_on_c, 9, 42, 0
1, 22529, Control_c, 5, 1, 114
1, 22531, Pitch_bend_c, 5, 5043
1, 22538, Control_c, 5, 1, 117
1, 22538, Pitch_bend_c, 5, 5011
1, 22542, Pitch_bend_c, 5, 5043
1, 22546, Pitch_bend_c, 5, 5011
1, 22548, Control_c, 5, 1, 120
1, 22550, Pitch_bend_c, 5, 4979
1, 22555, Pitch_bend_c, 5, 4883
1, 22560, Control_c, 5, 1, 122
1, 22560, Pitch_bend_c, 5, 4915
1, 22560, Note_on_c, 9, 38, 117
1, 22560, Note_on_c, 9, 42, 117
1, 22560, Note_on_c, 9, 54, 127
1, 22564, Pitch_bend_c, 5, 4850
1, 22568, Control_c, 5, 1, 124
1, 22571, Pitch_bend_c, 5, 4754
1, 22578, Pitch_bend_c, 5, 4658
1, 22579, Control_c, 5, 1, 125
1, 22584, Note_on_c, 9, 42, 0
1, 22584, Pitch_bend_c, 5, 4593
1, 22588, Pitch_bend_c, 5, 4529
1, 22592, Pitch_bend_c, 5, 4433
1, 22599, Pitch_bend_c, 5, 4401
1, 22606, Pitch_bend_c, 5, 4336
1, 22608, Note_on_c, 9, 42, 59
1, 22610, Pitch_bend_c, 5, 4272
1, 22617, Pitch_bend_c, 5, 4240
1, 22621, Pitch_bend_c, 5, 4176
1, 22624, Note_on_c, 9, 35, 0
1, 22625, Note_on_c, 9, 42, 0
1, 22630, Pitch_bend_c, 5, 4144
1, 22639, Pitch_bend_c, 5, 4112
1, 22643, Pitch_bend_c, 5, 4079
1, 22649, Pitch_bend_c, 5, 4015
1, 22654, Pitch_bend_c, 5, 3919
1, 22656, Note_on_c, 9, 35, 127
1, 22656, Note_on_c, 9, 42, 117
1, 22658, Pitch_bend_c, 5, 3758
1, 22672, Pitch_bend_c, 5, 3726
1, 22679, Note_on_c, 9, 42, 0
1, 22685, Pitch_bend_c, 5, 3758
1, 22690, Pitch_bend_c, 5, 3694
1, 22696, Pitch_bend_c, 5, 3662
1, 22701, Note_on_c, 9, 54, 0
1, 22704, Note_on_c, 1, 38, 112
1, 22704, Note_on_c, 2, 50, 99
1, 22704, Note_on_c, 2, 57, 99
1, 22704, Note_on_c, 2, 62, 99
1, 22704, Note_on_c, 2, 66, 95
1, 22704, Note_on_c, 9, 42, 64
1, 22705, Control_c, 5, 1, 126
1, 22705, Pitch_bend_c, 5, 3630
1, 22709, Note_on_c, 9, 38, 0
1, 22710, Pitch_bend_c, 5, 3565
1, 22715, Pitch_bend_c, 5, 3533
1, 22719, Note_on_c, 9, 42, 0
1, 22719, Pitch_bend_c, 5, 3469
1, 22725, Pitch_bend_c, 5, 3276
1, 22729, Pitch_bend_c, 5, 3212
1, 22733, Pitch_bend_c, 5, 3019
1, 22736, Note_on_c, 2, 57, 0
1, 22739, Pitch_bend_c, 5, 2859
1, 22740, Note_on_c, 2, 50, 0
1, 22742, Note_on_c, 1, 38, 0
1, 22743, Note_on_c, 2, 66, 0
1, 22744, Note_on_c, 2, 62, 0
1, 22747, Pitch_bend_c, 5, 2762
1, 22752, Note_on_c, 1, 38, 112
1, 22752, Note_on_c, 2, 50, 99
1, 22752, Note_on_c, 2, 57, 98
1, 22752, Note_on_c, 2, 62, 99
1, 22752, Note_on_c, 2, 66, 97
1, 22752, Pitch_bend_c, 5, 2730
1, 22752, Note_on_c, 9, 38, 117
1, 22752, Note_on_c, 9, 42, 117
1, 22752, Note_on_c, 9, 54, 127
1, 22763, Pitch_bend_c, 5, 2634
1, 22769, Pitch_bend_c, 5, 2570
1, 22771, Note_on_c, 9, 35, 0
1, 22773, Pitch_bend_c, 5, 2473
1, 22776, Note_on_c, 9, 42, 0
1, 22777, Pitch_bend_c, 5, 2377
1, 22781, Pitch_bend_c, 5, 2280
1, 22782, Note_on_c, 2, 57, 0
1, 22783, Note_on_c, 2, 50, 0
1, 22785, Note_on_c, 1, 38, 0
1, 22786, Pitch_bend_c, 5, 2216
1, 22787, Note_on_c, 2, 66, 0
1, 22789, Note_on_c, 2, 62, 0
1, 22790, Pitch_bend_c, 5, 2088
1, 22794, Pitch_bend_c, 5, 2023
1, 22798, Pitch_bend_c, 5, 1895
1, 22800, Note_on_c, 1, 33, 112
1, 22800, Note_on_c, 2, 50, 93
1, 22800, Note_on_c, 2, 57, 97
1, 22800, Note_on_c, 2, 62, 97
1, 22800, Note_on_c, 2, 66, 95
1, 22800, Note_on_c, 9, 35, 125
1, 22800, Note_on_c, 9, 42, 72
1, 22802, Pitch_bend_c, 5, 1734
1, 22807, Pitch_bend_c, 5, 1574
1, 22811, Control_c, 5, 1, 121
1, 22811, Pitch_bend_c, 5, 1445
1, 22815, Pitch_bend_c, 5, 771
1, 22817, Note_on_c, 9, 42, 0
1, 22820, Control_c, 5, 1, 104
1, 22820, Pitch_bend_c, 5, 321
1, 22821, Note_on_c, 9, 35, 0
1, 22824, Pitch_bend_c, 5, 0
1, 22827, Control_c, 5, 1, 81
1, 22829, Note_on_c, 2, 57, 0
1, 22835, Note_on_c, 2, 62, 0
1, 22838, Control_c, 5, 1, 61
1, 22843, Note_on_c, 2, 66, 0
1, 22845, Note_on_c, 2, 50, 0
1, 22846, Control_c, 5, 1, 36
1, 22848, Note_on_c, 1, 31, 112
1, 22848, Note_on_c, 2, 55, 99
1, 22848, Note_on_c, 2, 59, 99
1, 22848, Note_on_c, 2, 62, 99
1, 22848, Note_on_c, 2, 67, 98
1, 22848, Note_on_c, 9, 35, 127
1, 22848, Note_on_c, 9, 42, 117
1, 22855, Control_c, 5, 1, 8
1, 22858, Note_on_c, 1, 33, 0
1, 22866, Control_c, 5, 1, 0
1, 22869, Note_on_c, 9, 42, 0
1, 22875, Note_on_c, 1, 31, 0
1, 22878, Note_on_c, 9, 54, 0
1, 22883, Note_on_c, 5, 81, 0
1, 22885, Note_on_c, 2, 62, 0
1, 22886, Note_on_c, 2, 55, 0
1, 22887, Note_on_c, 2, 67, 0
1, 22889, Note_on_c, 2, 59, 0
1, 22896, Note_on_c, 1, 31, 110
1, 22896, Note_on_c, 2, 55, 99
1, 22896, Note_on_c, 2, 59, 92
1, 22896, Note_on_c, 2, 62, 97
1, 22896, Note_on_c, 2, 67, 96
1, 22896, Note_on_c, 5, 72, 95
1, 22896, Note_on_c, 9, 42, 71
1, 22898, Note_on_c, 5, 76, 0
1, 22900, Note_on_c, 5, 71, 107
1, 22902, Note_on_c, 5, 74, 0
1, 22902, Note_on_c, 9, 38, 0
1, 22903, Note_on_c, 5, 72, 0
1, 22905, Note_on_c, 5, 69, 116
1, 22909, Note_on_c, 5, 67, 111
1, 22912, Note_on_c, 9, 42, 0
1, 22914, Note_on_c, 5, 65, 105
1, 22915, Note_on_c, 5, 71, 0
1, 22918, Note_on_c, 5, 64, 109
1, 22918, Pitch_bend_c, 5, 546
1, 22920, Note_on_c, 5, 69, 0
1, 22922, Pitch_bend_c, 5, 4369
1, 22923, Note_on_c, 5, 62, 109
1, 22924, Note_on_c, 5, 67, 0
1, 22926, Pitch_bend_c, 5, 8192
1, 22927, Note_on_c, 5, 60, 109
1, 22928, Note_on_c, 5, 65, 0
1, 22930, Note_on_c, 5, 64, 0
1, 22930, Pitch_bend_c, 5, 12079
1, 22930, Note_on_c, 5, 59, 121
1, 22931, Note_on_c, 5, 62, 0
1, 22932, Note_on_c, 2, 59, 0
1, 22933, Note_on_c, 2, 67, 0
1, 22934, Note_on_c, 5, 60, 0
1, 22934, Note_on_c, 5, 57, 116
1, 22934, Pitch_bend_c, 5, 16383
1, 22935, Note_on_c, 2, 62, 0
1, 22936, Note_on_c, 2, 55, 0
1, 22938, Note_on_c, 5, 59, 0
1, 22938, Note_on_c, 5, 55, 111
1, 22939, Note_on_c, 5, 57, 0
1, 22941, Note_on_c, 5, 55, 0
1, 22941, Note_on_c, 5, 53, 103
1, 22944, Note_on_c, 1, 33, 111
1, 22944, Note_on_c, 2, 55, 99
1, 22944, Note_on_c, 2, 59, 97
1, 22944, Note_on_c, 2, 62, 98
1, 22944, Note_on_c, 2, 67, 98
1, 22944, Note_on_c, 9, 38, 117
1, 22944, Note_on_c, 9, 42, 117
1, 22944, Note_on_c, 9, 54, 127
1, 22945, Note_on_c, 1, 31, 0
1, 22947, Note_on_c, 5, 53, 0
1, 22947, Note_on_c, 5, 52, 99
1, 22949, Note_on_c, 5, 52, 0
1, 22968, Note_on_c, 9, 42, 0
1, 22972, Note_on_c, 2, 59, 0
1, 22974, Pitch_bend_c, 5, 16094
1, 22975, Note_on_c, 2, 62, 0
1, 22978, Note_on_c, 2, 67, 0
1, 22981, Pitch_bend_c, 5, 8192
1, 22992, Note_on_c, 1, 35, 112
1, 22992, Note_on_c, 2, 59, 94
1, 22992, Note_on_c, 2, 62, 98
1, 22992, Note_on_c, 2, 67, 98
1, 22992, Note_on_c, 9, 42, 66
1, 22996, Note_on_c, 1, 33, 0
1, 23000, Note_on_c, 9, 35, 0
1, 23008, Note_on_c, 9, 42, 0
1, 23022, Note_on_c, 2, 59, 0
1, 23029, Note_on_c, 2, 62, 0
1, 23032, Note_on_c, 2, 55, 0
1, 23040, Note_on_c, 1, 38, 112
1, 23040, Note_on_c, 2, 50, 99
1, 23040, Note_on_c, 2, 57, 99
1, 23040, Note_on_c, 2, 62, 99
1, 23040, Note_on_c, 2, 66, 96
1, 23040, Note_on_c, 9, 35, 127
1, 23040, Note_on_c, 9, 42, 117
1, 23041, Note_on_c, 2, 67, 0
1, 23042, Note_on_c, 1, 35, 0
1, 23061, Note_on_c, 9, 42, 0
1, 23069, Note_on_c, 9, 54, 0
1, 23084, Note_on_c, 9, 38, 0
1, 23088, Note_on_c, 9, 42, 70
1, 23099, Note_on_c, 2, 62, 0
1, 23099, Note_on_c, 2, 57, 0
1, 23100, Note_on_c, 2, 66, 0
1, 23102, Note_on_c, 2, 50, 0
1, 23105, Note_on_c, 4, 53, 112
1, 23107, Note_on_c, 9, 42, 0
1, 23114, Note_on_c, 1, 38, 0
1, 23129, Note_on_c, 6, 53, 72
1, 23136, Note_on_c, 9, 38, 117
1, 23136, Note_on_c, 9, 42, 117
1, 23136, Note_on_c, 9, 54, 127
1, 23153, Note_on_c, 9, 35, 0
1, 23157, Note_on_c, 9, 42, 0
1, 23160, Note_on_c, 4, 53, 0
1, 23170, Pitch_bend_c, 4, 8545
1, 23174, Pitch_bend_c, 4, 8866
1, 23179, Pitch_bend_c, 4, 9830
1, 23183, Pitch_bend_c, 4, 10087
1, 23184, Note_on_c, 6, 53, 0
1, 23184, Note_on_c, 9, 35, 127
1, 23184, Note_on_c, 9, 42, 72
1, 23186, Note_on_c, 4, 53, 112
1, 23189, Pitch_bend_c, 4, 10248
1, 23194, Pitch_bend_c, 6, 8545
1, 23195, Pitch_bend_c, 4, 10215
1, 23198, Pitch_bend_c, 6, 8866
1, 23199, Pitch_bend_c, 4, 10183
1, 23203, Note_on_c, 9, 42, 0
1, 23203, Pitch_bend_c, 4, 10151
1, 23203, Pitch_bend_c, 6, 9830
1, 23205, Note_on_c, 9, 35, 0
1, 23207, Pitch_bend_c, 6, 10087
1, 23209, Note_on_c, 4, 53, 0
1, 23210, Pitch_bend_c, 4, 10119
1, 23210, Note_on_c, 6, 53, 72
1, 23213, Pitch_bend_c, 6, 10248
1, 23219, Pitch_bend_c, 6, 10215
1, 23223, Pitch_bend_c, 6, 10183
1, 23227, Pitch_bend_c, 6, 10151
1, 23231, Pitch_bend_c, 4, 10151
1, 23232, Note_on_c, 9, 35, 127
1, 23232, Note_on_c, 9, 42, 117
1, 23233, Note_on_c, 6, 53, 0
1, 23234, Pitch_bend_c, 6, 10119
1, 23241, Note_on_c, 4, 53, 112
1, 23246, Pitch_bend_c, 4, 10215
1, 23250, Pitch_bend_c, 4, 10248
1, 23255, Note_on_c, 9, 42, 0
1, 23255, Pitch_bend_c, 6, 10151
1, 23256, Pitch_bend_c, 4, 10215
1, 23259, Pitch_bend_c, 4, 10183
1, 23262, Note_on_c, 4, 53, 0
1, 23265, Note_on_c, 6, 53, 72
1, 23266, Note_on_c, 9, 54, 0
1, 23270, Pitch_bend_c, 4, 10119
1, 23270, Pitch_bend_c, 6, 10215
1, 23274, Pitch_bend_c, 6, 10248
1, 23277, Pitch_bend_c, 4, 10055
1, 23280, Note_on_c, 9, 38, 0
1, 23280, Pitch_bend_c, 6, 10215
1, 23280, Note_on_c, 9, 42, 50
1, 23283, Pitch_bend_c, 6, 10183
1, 23286, Note_on_c, 6, 53, 0
1, 23288, Pitch_bend_c, 4, 10023
1, 23294, Pitch_bend_c, 6, 10119
1, 23297, Note_on_c, 9, 42, 0
1, 23297, Note_on_c, 4, 53, 112
1, 23301, Pitch_bend_c, 6, 10055
1, 23312, Pitch_bend_c, 6, 10023
1, 23321, Note_on_c, 6, 53, 72
1, 23322, Note_on_c, 4, 53, 0
1, 23328, Note_on_c, 9, 38, 117
1, 23328, Note_on_c, 9, 42, 117
1, 23328, Note_on_c, 9, 54, 127
1, 23330, Pitch_bend_c, 4, 9991
1, 23343, Pitch_bend_c, 4, 9894
1, 23346, Note_on_c, 6, 53, 0
1, 23347, Pitch_bend_c, 4, 9830
1, 23352, Note_on_c, 9, 42, 0
1, 23354, Pitch_bend_c, 6, 9991
1, 23355, Note_on_c, 4, 53, 112
1, 23357, Pitch_bend_c, 4, 9734
1, 23361, Pitch_bend_c, 4, 9766
1, 23365, Pitch_bend_c, 4, 9798
1, 23367, Pitch_bend_c, 6, 9894
1, 23371, Pitch_bend_c, 6, 9830
1, 23372, Pitch_bend_c, 4, 9830
1, 23376, Note_on_c, 9, 42, 59
1, 23377, Note_on_c, 4, 53, 0
1, 23377, Pitch_bend_c, 4, 9798
1, 23379, Note_on_c, 6, 53, 72
1, 23381, Pitch_bend_c, 6, 9734
1, 23384, Pitch_bend_c, 4, 9669
1, 23385, Pitch_bend_c, 6, 9766
1, 23389, Pitch_bend_c, 6, 9798
1, 23392, Note_on_c, 9, 35, 0
1, 23393, Note_on_c, 9, 42, 0
1, 23396, Pitch_bend_c, 6, 9830
1, 23398, Pitch_bend_c, 4, 9637
1, 23401, Note_on_c, 6, 53, 0
1, 23401, Pitch_bend_c, 6, 9798
1, 23408, Pitch_bend_c, 6, 9669
1, 23412, Pitch_bend_c, 4, 9605
1, 23413, Note_on_c, 4, 53, 112
1, 23416, Pitch_bend_c, 4, 9573
1, 23420, Pitch_bend_c, 4, 9509
1, 23422, Pitch_bend_c, 6, 9637
1, 23424, Note_on_c, 9, 35, 127
1, 23424, Note_on_c, 9, 42, 117
1, 23436, Pitch_bend_c, 6, 9605
1, 23437, Note_on_c, 6, 53, 72
1, 23438, Pitch_bend_c, 4, 9444
1, 23440, Pitch_bend_c, 6, 9573
1, 23444, Pitch_bend_c, 6, 9509
1, 23445, Pitch_bend_c, 4, 9284
1, 23447, Note_on_c, 9, 42, 0
1, 23450, Pitch_bend_c, 4, 8609
1, 23451, Note_on_c, 9, 54, 0
1, 23456, Pitch_bend_c, 4, 8192
1, 23461, Note_on_c, 4, 53, 0
1, 23462, Pitch_bend_c, 6, 9444
1, 23469, Pitch_bend_c, 6, 9284
1, 23472, Note_on_c, 1, 31, 110
1, 23472, Note_on_c, 2, 55, 99
1, 23472, Note_on_c, 2, 62, 97
1, 23472, Note_on_c, 2, 67, 94
1, 23472, Note_on_c, 9, 42, 64
1, 23474, Pitch_bend_c, 6, 8609
1, 23477, Note_on_c, 9, 38, 0
1, 23480, Pitch_bend_c, 6, 8192
1, 23485, Note_on_c, 6, 53, 0
1, 23487, Note_on_c, 9, 42, 0
1, 23506, Note_on_c, 1, 31, 0
1, 23512, Note_on_c, 2, 67, 0
1, 23513, Note_on_c, 2, 55, 0
1, 23515, Note_on_c, 2, 62, 0
1, 23520, Note_on_c, 1, 31, 107
1, 23520, Note_on_c, 2, 55, 98
1, 23520, Note_on_c, 2, 62, 97
1, 23520, Note_on_c, 2, 67, 95
1, 23520, Note_on_c, 9, 38, 117
1, 23520, Note_on_c, 9, 42, 117
1, 23520, Note_on_c, 9, 54, 127
1, 23539, Note_on_c, 9, 35, 0
1, 23544, Note_on_c, 9, 42, 0
1, 23551, Note_on_c, 1, 31, 0
1, 23556, Note_on_c, 2, 62, 0
1, 23556, Note_on_c, 2, 55, 0
1, 23557, Note_on_c, 2, 67, 0
1, 23568, Note_on_c, 1, 31, 105
1, 23568, Note_on_c, 2, 55, 97
1, 23568, Note_on_c, 2, 62, 89
1, 23568, Note_on_c, 2, 67, 92
1, 23568, Note_on_c, 9, 35, 125
1, 23568, Note_on_c, 9, 42, 72
1, 23585, Note_on_c, 9, 42, 0
1, 23589, Note_on_c, 9, 35, 0
1, 23609, Note_on_c, 2, 55, 0
1, 23609, Note_on_c, 2, 62, 0
1, 23613, Note_on_c, 1, 31, 0
1, 23616, Note_on_c, 2, 67, 0
1, 23616, Note_on_c, 1, 29, 104
1, 23616, Note_on_c, 2, 53, 99
1, 23616, Note_on_c, 2, 60, 99
1, 23616, Note_on_c, 2, 65, 99
1, 23616, Note_on_c, 2, 67, 99
1, 23616, Note_on_c, 9, 35, 127
1, 23616, Note_on_c, 9, 42, 117
1, 23637, Note_on_c, 9, 42, 0
1, 23640, Note_on_c, 2, 67, 0
1, 23650, Note_on_c, 2, 53, 0
1, 23651, Note_on_c, 2, 65, 0
1, 23652, Note_on_c, 1, 29, 0
1, 23655, Note_on_c, 2, 60, 0
1, 23656, Note_on_c, 9, 54, 0
1, 23664, Note_on_c, 1, 29, 102
1, 23664, Note_on_c, 2, 53, 99
1, 23664, Note_on_c, 2, 60, 99
1, 23664, Note_on_c, 2, 65, 99
1, 23664, Note_on_c, 2, 67, 99
1, 23664, Note_on_c, 9, 42, 71
1, 23670, Note_on_c, 9, 38, 0
1, 23680, Note_on_c, 9, 42, 0
1, 23692, Note_on_c, 2, 67, 0
1, 23697, Note_on_c, 1, 29, 0
1, 23700, Note_on_c, 2, 53, 0
1, 23703, Note_on_c, 2, 60, 0
1, 23704, Note_on_c, 2, 65, 0
1, 23712, Note_on_c, 1, 29, 101
1, 23712, Note_on_c, 2, 53, 99
1, 23712, Note_on_c, 2, 60, 96
1, 23712, Note_on_c, 2, 65, 97
1, 23712, Note_on_c, 2, 67, 94
1, 23712, Note_on_c, 9, 38, 117
1, 23712, Note_on_c, 9, 42, 117
1, 23712, Note_on_c, 9, 54, 127
1, 23736, Note_on_c, 9, 42, 0
1, 23742, Note_on_c, 2, 53, 0
1, 23745, Note_on_c, 2, 65, 0
1, 23746, Note_on_c, 2, 60, 0
1, 23749, Note_on_c, 1, 29, 0
1, 23749, Note_on_c, 2, 67, 0
1, 23760, Note_on_c, 1, 29, 101
1, 23760, Note_on_c, 2, 53, 98
1, 23760, Note_on_c, 2, 60, 95
1, 23760, Note_on_c, 2, 65, 96
1, 23760, Note_on_c, 2, 67, 93
1, 23760, Note_on_c, 9, 42, 66
1, 23768, Note_on_c, 9, 35, 0
1, 23776, Note_on_c, 9, 42, 0
1, 23794, Note_on_c, 2, 67, 0
1, 23796, Note_on_c, 2, 65, 0
1, 23800, Note_on_c, 1, 29, 0
1, 23801, Note_on_c, 2, 60, 0
1, 23805, Note_on_c, 2, 53, 0
1, 23808, Note_on_c, 1, 31, 110
1, 23808, Note_on_c, 2, 55, 99
1, 23808, Note_on_c, 2, 62, 98
1, 23808, Note_on_c, 2, 67, 93
1, 23808, Note_on_c, 9, 35, 127
1, 23808, Note_on_c, 9, 42, 117
1, 23829, Note_on_c, 9, 42, 0
1, 23840, Note_on_c, 9, 54, 0
1, 23852, Note_on_c, 9, 38, 0
1, 23856, Note_on_c, 9, 42, 70
1, 23860, Note_on_c, 2, 67, 0
1, 23863, Note_on_c, 2, 62, 0
1, 23868, Note_on_c, 2, 55, 0
1, 23871, Note_on_c, 1, 31, 0
1, 23875, Note_on_c, 9, 42, 0
1, 23904, Note_on_c, 9, 38, 117
1, 23904, Note_on_c, 9, 42, 117
1, 23904, Note_on_c, 9, 54, 127
1, 23921, Note_on_c, 9, 35, 0
1, 23925, Note_on_c, 9, 42, 0
1, 23952, Note_on_c, 9, 35, 127
1, 23952, Note_on_c, 9, 42, 72
1, 23971, Note_on_c, 9, 42, 0
1, 23973, Note_on_c, 9, 35, 0
1, 24000, Note_on_c, 9, 35, 127
1, 24000, Note_on_c, 9, 42, 117
1, 24023, Note_on_c, 9, 42, 0
1, 24039, Note_on_c, 9, 54, 0
1, 24048, Note_on_c, 9, 38, 0
1, 24048, Note_on_c, 9, 42, 50
1, 24065, Note_on_c, 9, 42, 0
1, 24096, Note_on_c, 9, 38, 117
1, 24096, Note_on_c, 9, 42, 117
1, 24096, Note_on_c, 9, 54, 127
1, 24120, Note_on_c, 9, 42, 0
1, 24144, Note_on_c, 9, 42, 59
1, 24160, Note_on_c, 9, 35, 0
1, 24161, Note_on_c, 9, 42, 0
1, 24192, Note_on_c, 9, 35, 127
1, 24192, Note_on_c, 9, 42, 117
1, 24215, Note_on_c, 9, 42, 0
1, 24235, Note_on_c, 9, 54, 0
1, 24240, Note_on_c, 1, 38, 112
1, 24240, Note_on_c, 2, 50, 96
1, 24240, Note_on_c, 2, 57, 96
1, 24240, Note_on_c, 2, 62, 96
1, 24240, Note_on_c, 2, 66, 96
1, 24240, Note_on_c, 9, 42, 64
1, 24245, Note_on_c, 9, 38, 0
1, 24255, Note_on_c, 9, 42, 0
1, 24278, Note_on_c, 2, 57, 0
1, 24278, Note_on_c, 1, 38, 0
1, 24279, Note_on_c, 2, 50, 0
1, 24281, Note_on_c, 2, 66, 0
1, 24283, Note_on_c, 2, 62, 0
1, 24288, Note_on_c, 1, 38, 108
1, 24288, Note_on_c, 2, 50, 96
1, 24288, Note_on_c, 2, 57, 97
1, 24288, Note_on_c, 2, 62, 96
1, 24288, Note_on_c, 2, 66, 94
1, 24288, Note_on_c, 9, 38, 117
1, 24288, Note_on_c, 9, 42, 117
1, 24288, Note_on_c, 9, 54, 127
1, 24307, Note_on_c, 9, 35, 0
1, 24312, Note_on_c, 9, 42, 0
1, 24316, Note_on_c, 2, 50, 0
1, 24318, Note_on_c, 2, 57, 0
1, 24321, Note_on_c, 1, 38, 0
1, 24323, Note_on_c, 2, 66, 0
1, 24326, Note_on_c, 2, 62, 0
1, 24336, Note_on_c, 1, 38, 111
1, 24336, Note_on_c, 2, 50, 90
1, 24336, Note_on_c, 2, 57, 94
1, 24336, Note_on_c, 2, 62, 92
1, 24336, Note_on_c, 2, 66, 93
1, 24336, Note_on_c, 9, 35, 125
1, 24336, Note_on_c, 9, 42, 72
1, 24353, Note_on_c, 9, 42, 0
1, 24357, Note_on_c, 9, 35, 0
1, 24367, Note_on_c, 2, 57, 0
1, 24376, Note_on_c, 2, 62, 0
1, 24377, Note_on_c, 1, 38, 0
1, 24377, Note_on_c, 2, 66, 0
1, 24380, Note_on_c, 2, 50, 0
1, 24384, Note_on_c, 1, 31, 103
1, 24384, Note_on_c, 2, 55, 98
1, 24384, Note_on_c, 2, 59, 97
1, 24384, Note_on_c, 2, 62, 97
1, 24384, Note_on_c, 2, 67, 95
1, 24384, Note_on_c, 9, 35, 127
1, 24384, Note_on_c, 9, 42, 117
1, 24405, Note_on_c, 9, 42, 0
1, 24416, Note_on_c, 1, 31, 0
1, 24422, Note_on_c, 2, 55, 0
1, 24423, Note_on_c, 2, 62, 0
1, 24423, Note_on_c, 2, 59, 0
1, 24423, Note_on_c, 2, 67, 0
1, 24424, Note_on_c, 9, 54, 0
1, 24432, Note_on_c, 1, 31, 108
1, 24432, Note_on_c, 2, 55, 95
1, 24432, Note_on_c, 2, 59, 87
1, 24432, Note_on_c, 2, 62, 92
1, 24432, Note_on_c, 2, 67, 97
1, 24432, Note_on_c, 9, 42, 71
1, 24438, Note_on_c, 9, 38, 0
1, 24448, Note_on_c, 9, 42, 0
1, 24469, Note_on_c, 2, 55, 0
1, 24469, Note_on_c, 2, 67, 0
1, 24473, Note_on_c, 2, 59, 0
1, 24475, Note_on_c, 2, 62, 0
1, 24480, Note_on_c, 1, 31, 0
1, 24480, Note_on_c, 1, 33, 108
1, 24480, Note_on_c, 2, 55, 95
1, 24480, Note_on_c, 2, 59, 87
1, 24480, Note_on_c, 2, 62, 97
1, 24480, Note_on_c, 2, 67, 96
1, 24480, Note_on_c, 9, 38, 117
1, 24480, Note_on_c, 9, 42, 117
1, 24480, Note_on_c, 9, 54, 127
1, 24504, Note_on_c, 9, 42, 0
1, 24510, Note_on_c, 2, 59, 0
1, 24512, Note_on_c, 2, 62, 0
1, 24514, Note_on_c, 2, 55, 0
1, 24514, Note_on_c, 2, 67, 0
1, 24525, Note_on_c, 1, 33, 0
1, 24528, Note_on_c, 1, 35, 112
1, 24528, Note_on_c, 2, 55, 97
1, 24528, Note_on_c, 2, 59, 94
1, 24528, Note_on_c, 2, 62, 94
1, 24528, Note_on_c, 2, 67, 98
1, 24528, Note_on_c, 9, 42, 66
1, 24536, Note_on_c, 9, 35, 0
1, 24544, Note_on_c, 9, 42, 0
1, 24561, Note_on_c, 2, 59, 0
1, 24570, Note_on_c, 2, 62, 0
1, 24572, Note_on_c, 1, 35, 0
1, 24576, Note_on_c, 1, 38, 112
1, 24576, Note_on_c, 2, 50, 98
1, 24576, Note_on_c, 2, 57, 99
1, 24576, Note_on_c, 2, 62, 98
1, 24576, Note_on_c, 2, 66, 97
1, 24576, Note_on_c, 9, 35, 127
1, 24576, Note_on_c, 9, 42, 117
1, 24577, Note_on_c, 2, 55, 0
1, 24587, Note_on_c, 2, 67, 0
1, 24597, Note_on_c, 9, 42, 0
1, 24614, Note_on_c, 9, 54, 0
1, 24620, Note_on_c, 9, 38, 0
1, 24624, Note_on_c, 9, 42, 70
1, 24631, Note_on_c, 2, 57, 0
1, 24631, Note_on_c, 4, 50, 86
1, 24635, Note_on_c, 1, 38, 0
1, 24640, Note_on_c, 2, 66, 0
1, 24641, Note_on_c, 2, 50, 0
1, 24641, Note_on_c, 4, 50, 0
1, 24643, Note_on_c, 9, 42, 0
1, 24650, Note_on_c, 2, 62, 0
1, 24651, Note_on_c, 4, 50, 104
1, 24655, Note_on_c, 6, 50, 46
1, 24661, Note_on_c, 4, 50, 0
1, 24665, Note_on_c, 6, 50, 0
1, 24672, Note_on_c, 4, 50, 112
1, 24672, Note_on_c, 9, 38, 117
1, 24672, Note_on_c, 9, 42, 117
1, 24672, Note_on_c, 9, 54, 127
1, 24675, Note_on_c, 6, 50, 64
1, 24684, Note_on_c, 4, 50, 0
1, 24685, Note_on_c, 6, 50, 0
1, 24689, Note_on_c, 9, 35, 0
1, 24693, Note_on_c, 9, 42, 0
1, 24696, Note_on_c, 6, 50, 72
1, 24708, Note_on_c, 6, 50, 0
1, 24720, Note_on_c, 9, 35, 127
1, 24720, Note_on_c, 9, 42, 72
1, 24739, Note_on_c, 9, 42, 0
1, 24741, Note_on_c, 9, 35, 0
1, 24750, Note_on_c, 4, 50, 60
1, 24763, Note_on_c, 4, 50, 0
1, 24768, Note_on_c, 4, 50, 78
1, 24768, Note_on_c, 9, 35, 127
1, 24768, Note_on_c, 9, 42, 117
1, 24774, Note_on_c, 6, 50, 20
1, 24787, Note_on_c, 6, 50, 0
1, 24789, Note_on_c, 4, 50, 0
1, 24791, Note_on_c, 9, 42, 0
1, 24792, Note_on_c, 4, 53, 101
1, 24792, Note_on_c, 6, 50, 38
1, 24798, Pitch_bend_c, 4, 9681
1, 24804, Pitch_bend_c, 4, 10798
1, 24810, Pitch_bend_c, 4, 11170
1, 24813, Note_on_c, 6, 50, 0
1, 24813, Note_on_c, 9, 54, 0
1, 24814, Note_on_c, 4, 53, 0
1, 24816, Note_on_c, 9, 38, 0
1, 24816, Note_on_c, 4, 50, 110
1, 24816, Pitch_bend_c, 4, 8936
1, 24816, Note_on_c, 6, 53, 61
1, 24816, Note_on_c, 9, 42, 50
1, 24822, Pitch_bend_c, 4, 8192
1, 24822, Pitch_bend_c, 6, 9681
1, 24828, Pitch_bend_c, 6, 10798
1, 24829, Note_on_c, 4, 50, 0
1, 24833, Note_on_c, 9, 42, 0
1, 24834, Pitch_bend_c, 6, 11170
1, 24838, Note_on_c, 6, 53, 0
1, 24840, Note_on_c, 6, 50, 70
1, 24840, Pitch_bend_c, 6, 8936
1, 24846, Pitch_bend_c, 6, 8192
1, 24853, Note_on_c, 6, 50, 0
1, 24864, Note_on_c, 9, 38, 117
1, 24864, Note_on_c, 9, 42, 117
1, 24864, Note_on_c, 9, 54, 127
1, 24888, Note_on_c, 9, 42, 0
1, 24912, Note_on_c, 9, 42, 59
1, 24928, Note_on_c, 9, 35, 0
1, 24929, Note_on_c, 9, 42, 0
1, 24960, Note_on_c, 9, 35, 127
1, 24960, Note_on_c, 9, 42, 117
1, 24983, Note_on_c, 9, 42, 0
1, 24995, Note_on_c, 9, 54, 0
1, 25008, Note_on_c, 1, 33, 112
1, 25008, Note_on_c, 2, 57, 99
1, 25008, Note_on_c, 2, 64, 98
1, 25008, Note_on_c, 2, 69, 94
1, 25008, Note_on_c, 9, 42, 64
1, 25013, Note_on_c, 9, 38, 0
1, 25023, Note_on_c, 9, 42, 0
1, 25042, Note_on_c, 2, 57, 0
1, 25044, Note_on_c, 2, 64, 0
1, 25044, Note_on_c, 1, 33, 0
1, 25048, Note_on_c, 2, 69, 0
1, 25056, Note_on_c, 1, 33, 111
1, 25056, Note_on_c, 2, 57, 98
1, 25056, Note_on_c, 2, 64, 95
1, 25056, Note_on_c, 2, 69, 92
1, 25056, Note_on_c, 9, 38, 117
1, 25056, Note_on_c, 9, 42, 117
1, 25056, Note_on_c, 9, 54, 127
1, 25075, Note_on_c, 9, 35, 0
1, 25080, Note_on_c, 9, 42, 0
1, 25091, Note_on_c, 2, 57, 0
1, 25092, Note_on_c, 2, 64, 0
1, 25092, Note_on_c, 1, 33, 0
1, 25093, Note_on_c, 2, 69, 0
1, 25104, Note_on_c, 1, 33, 111
1, 25104, Note_on_c, 2, 57, 98
1, 25104, Note_on_c, 2, 64, 98
1, 25104, Note_on_c, 2, 69, 98
1, 25104, Note_on_c, 9, 35, 125
1, 25104, Note_on_c, 9, 42, 72
1, 25121, Note_on_c, 9, 42, 0
1, 25125, Note_on_c, 9, 35, 0
1, 25134, Note_on_c, 1, 33, 0
1, 25139, Note_on_c, 2, 57, 0
1, 25143, Note_on_c, 2, 69, 0
1, 25144, Note_on_c, 2, 64, 0
1, 25152, Note_on_c, 1, 33, 112
1, 25152, Note_on_c, 2, 57, 98
1, 25152, Note_on_c, 2, 64, 98
1, 25152, Note_on_c, 2, 69, 98
1, 25152, Note_on_c, 9, 35, 127
1, 25152, Note_on_c, 9, 42, 117
1, 25173, Note_on_c, 9, 42, 0
1, 25176, Note_on_c, 2, 69, 0
1, 25179, Note_on_c, 2, 57, 0
1, 25179, Note_on_c, 2, 64, 0
1, 25188, Note_on_c, 1, 33, 0
1, 25189, Note_on_c, 9, 54, 0
1, 25200, Note_on_c, 1, 33, 103
1, 25200, Note_on_c, 2, 57, 99
1, 25200, Note_on_c, 2, 64, 99
1, 25200, Note_on_c, 2, 69, 99
1, 25200, Note_on_c, 9, 42, 71
1, 25206, Note_on_c, 9, 38, 0
1, 25216, Note_on_c, 9, 42, 0
1, 25224, Note_on_c, 2, 57, 0
1, 25233, Note_on_c, 2, 69, 0
1, 25235, Note_on_c, 2, 64, 0
1, 25236, Note_on_c, 1, 33, 0
1, 25248, Note_on_c, 1, 33, 110
1, 25248, Note_on_c, 2, 57, 97
1, 25248, Note_on_c, 2, 64, 97
1, 25248, Note_on_c, 2, 69, 97
1, 25248, Note_on_c, 9, 38, 117
1, 25248, Note_on_c, 9, 42, 117
1, 25248, Note_on_c, 9, 54, 127
1, 25272, Note_on_c, 9, 42, 0
1, 25279, Note_on_c, 2, 64, 0
1, 25282, Note_on_c, 2, 57, 0
1, 25284, Note_on_c, 2, 69, 0
1, 25284, Note_on_c, 1, 33, 0
1, 25296, Note_on_c, 1, 33, 112
1, 25296, Note_on_c, 2, 57, 97
1, 25296, Note_on_c, 2, 64, 97
1, 25296, Note_on_c, 2, 69, 97
1, 25296, Note_on_c, 9, 42, 66
1, 25304, Note_on_c, 9, 35, 0
1, 25312, Note_on_c, 9, 42, 0
1, 25332, Note_on_c, 1, 33, 0
1, 25336, Note_on_c, 2, 57, 0
1, 25337, Note_on_c, 2, 64, 0
1, 25343, Note_on_c, 2, 69, 0
1, 25344, Note_on_c, 1, 33, 112
1, 25344, Note_on_c, 2, 57, 99
1, 25344, Note_on_c, 2, 64, 99
1, 25344, Note_on_c, 2, 67, 97
1, 25344, Note_on_c, 9, 35, 127
1, 25344, Note_on_c, 9, 42, 117
1, 25362, Note_on_c, 9, 54, 0
1, 25365, Note_on_c, 9, 42, 0
1, 25388, Note_on_c, 9, 38, 0
1, 25392, Note_on_c, 9, 42, 70
1, 25394, Note_on_c, 2, 64, 0
1, 25394, Note_on_c, 1, 33, 0
1, 25395, Note_on_c, 2, 57, 0
1, 25400, Note_on_c, 2, 67, 0
1, 25411, Note_on_c, 9, 42, 0
1, 25440, Note_on_c, 9, 38, 117
1, 25440, Note_on_c, 9, 42, 117
1, 25440, Note_on_c, 9, 54, 127
1, 25457, Note_on_c, 9, 35, 0
1, 25461, Note_on_c, 9, 42, 0
1, 25488, Note_on_c, 9, 35, 127
1, 25488, Note_on_c, 9, 42, 72
1, 25507, Note_on_c, 9, 42, 0
1, 25509, Note_on_c, 9, 35, 0
1, 25536, Note_on_c, 9, 35, 127
1, 25536, Note_on_c, 9, 42, 117
1, 25557, Note_on_c, 9, 54, 0
1, 25559, Note_on_c, 9, 42, 0
1, 25584, Note_on_c, 9, 38, 0
1, 25584, Note_on_c, 9, 42, 50
1, 25601, Note_on_c, 9, 42, 0
1, 25632, Note_on_c, 9, 38, 117
1, 25632, Note_on_c, 9, 42, 117
1, 25632, Note_on_c, 9, 54, 127
1, 25656, Note_on_c, 9, 42, 0
1, 25680, Note_on_c, 9, 42, 59
1, 25696, Note_on_c, 9, 35, 0
1, 25697, Note_on_c, 9, 42, 0
1, 25728, Note_on_c, 9, 54, 0
1, 25728, Note_on_c, 9, 35, 127
1, 25728, Note_on_c, 9, 42, 117
1, 25751, Note_on_c, 9, 42, 0
1, 25776, Note_on_c, 1, 38, 112
1, 25776, Note_on_c, 2, 50, 99
1, 25776, Note_on_c, 2, 57, 99
1, 25776, Note_on_c, 2, 62, 99
1, 25776, Note_on_c, 2, 66, 95
1, 25776, Note_on_c, 9, 42, 64
1, 25781, Note_on_c, 9, 38, 0
1, 25791, Note_on_c, 9, 42, 0
1, 25808, Note_on_c, 2, 57, 0
1, 25812, Note_on_c, 2, 50, 0
1, 25814, Note_on_c, 1, 38, 0
1, 25815, Note_on_c, 2, 66, 0
1, 25816, Note_on_c, 2, 62, 0
1, 25824, Note_on_c, 1, 38, 112
1, 25824, Note_on_c, 2, 50, 99
1, 25824, Note_on_c, 2, 57, 98
1, 25824, Note_on_c, 2, 62, 99
1, 25824, Note_on_c, 2, 66, 97
1, 25824, Note_on_c, 9, 38, 117
1, 25824, Note_on_c, 9, 42, 117
1, 25824, Note_on_c, 9, 54, 127
1, 25843, Note_on_c, 9, 35, 0
1, 25848, Note_on_c, 9, 42, 0
1, 25854, Note_on_c, 2, 57, 0
1, 25855, Note_on_c, 2, 50, 0
1, 25857, Note_on_c, 1, 38, 0
1, 25859, Note_on_c, 2, 66, 0
1, 25861, Note_on_c, 2, 62, 0
1, 25872, Note_on_c, 1, 33, 112
1, 25872, Note_on_c, 2, 50, 93
1, 25872, Note_on_c, 2, 57, 97
1, 25872, Note_on_c, 2, 62, 97
1, 25872, Note_on_c, 2, 66, 95
1, 25872, Note_on_c, 9, 35, 125
1, 25872, Note_on_c, 9, 42, 72
1, 25889, Note_on_c, 9, 42, 0
1, 25893, Note_on_c, 9, 35, 0
1, 25901, Note_on_c, 2, 57, 0
1, 25907, Note_on_c, 2, 62, 0
1, 25915, Note_on_c, 2, 66, 0
1, 25917, Note_on_c, 2, 50, 0
1, 25920, Note_on_c, 1, 31, 112
1, 25920, Note_on_c, 2, 55, 99
1, 25920, Note_on_c, 2, 59, 99
1, 25920, Note_on_c, 2, 62, 99
1, 25920, Note_on_c, 2, 67, 98
1, 25920, Note_on_c, 9, 35, 127
1, 25920, Note_on_c, 9, 42, 117
1, 25920, Note_on_c, 9, 45, 117
1, 25930, Note_on_c, 1, 33, 0
1, 25938, Note_on_c, 9, 54, 0
1, 25941, Note_on_c, 9, 42, 0
1, 25947, Note_on_c, 1, 31, 0
1, 25957, Note_on_c, 2, 62, 0
1, 25958, Note_on_c, 2, 55, 0
1, 25959, Note_on_c, 2, 67, 0
1, 25961, Note_on_c, 2, 59, 0
1, 25968, Note_on_c, 9, 45, 0
1, 25968, Note_on_c, 9, 35, 0
1, 25968, Note_on_c, 1, 31, 110
1, 25968, Note_on_c, 2, 55, 99
1, 25968, Note_on_c, 2, 59, 92
1, 25968, Note_on_c, 2, 62, 97
1, 25968, Note_on_c, 2, 67, 96
1, 25968, Note_on_c, 9, 35, 122
1, 25968, Note_on_c, 9, 42, 71
1, 25968, Note_on_c, 9, 43, 112
1, 25974, Note_on_c, 9, 38, 0
1, 25984, Note_on_c, 9, 42, 0
1, 26004, Note_on_c, 2, 59, 0
1, 26005, Note_on_c, 2, 67, 0
1, 26007, Note_on_c, 2, 62, 0
1, 26008, Note_on_c, 2, 55, 0
1, 26016, Note_on_c, 9, 43, 0
1, 26016, Note_on_c, 9, 35, 0
1, 26016, Note_on_c, 1, 33, 111
1, 26016, Note_on_c, 2, 55, 99
1, 26016, Note_on_c, 2, 59, 97
1, 26016, Note_on_c, 2, 62, 98
1, 26016, Note_on_c, 2, 67, 98
1, 26016, Note_on_c, 9, 38, 117
1, 26016, Note_on_c, 9, 42, 117
1, 26016, Note_on_c, 9, 54, 127
1, 26017, Note_on_c, 1, 31, 0
1, 26040, Note_on_c, 9, 42, 0
1, 26044, Note_on_c, 2, 59, 0
1, 26047, Note_on_c, 2, 62, 0
1, 26050, Note_on_c, 2, 67, 0
1, 26064, Note_on_c, 1, 35, 112
1, 26064, Note_on_c, 2, 59, 94
1, 26064, Note_on_c, 2, 62, 98
1, 26064, Note_on_c, 2, 67, 98
1, 26064, Note_on_c, 9, 35, 127
1, 26064, Note_on_c, 9, 42, 66
1, 26068, Note_on_c, 1, 33, 0
1, 26080, Note_on_c, 9, 42, 0
1, 26094, Note_on_c, 2, 59, 0
1, 26101, Note_on_c, 2, 62, 0
1, 26104, Note_on_c, 2, 55, 0
1, 26112, Note_on_c, 9, 38, 0
1, 26112, Note_on_c, 9, 35, 0
1, 26112, Note_on_c, 1, 38, 112
1, 26112, Note_on_c, 2, 50, 99
1, 26112, Note_on_c, 2, 57, 99
1, 26112, Note_on_c, 2, 62, 99
1, 26112, Note_on_c, 2, 66, 96
1, 26112, Program_c, 3, 81
1, 26112, Note_on_c, 9, 38, 117
1, 26113, Note_on_c, 2, 67, 0
1, 26114, Note_on_c, 1, 35, 0
1, 26118, Note_on_c, 9, 38, 0
1, 26118, Note_on_c, 9, 54, 0
1, 26121, Note_on_c, 9, 38, 117
1, 26139, Note_on_c, 9, 38, 0
1, 26171, Note_on_c, 2, 57, 0
1, 26171, Note_on_c, 2, 62, 0
1, 26172, Note_on_c, 2, 66, 0
1, 26174, Note_on_c, 2, 50, 0
1, 26186, Note_on_c, 1, 38, 0
1, 26208, Note_on_c, 3, 74, 122
1, 26233, Note_on_c, 3, 74, 0
1, 26256, Note_on_c, 3, 74, 120
1, 26292, Note_on_c, 3, 74, 0
1, 26304, Note_on_c, 3, 78, 122
1, 26333, Note_on_c, 3, 78, 0
1, 26352, Note_on_c, 3, 78, 122
1, 26384, Note_on_c, 3, 78, 0
1, 26400, Note_on_c, 3, 79, 122
1, 26438, Note_on_c, 3, 79, 0
1, 26448, Note_on_c, 3, 78, 122
1, 26448, Note_on_c, 9, 38, 113
1, 26472, Note_on_c, 3, 78, 0
1, 26494, Note_on_c, 9, 38, 0
1, 26496, Note_on_c, 0, 38, 117
1, 26496, Note_on_c, 0, 57, 117
1, 26496, Note_on_c, 1, 38, 101
1, 26496, Note_on_c, 2, 50, 85
1, 26496, Note_on_c, 2, 57, 83
1, 26496, Note_on_c, 3, 79, 120
1, 26496, Note_on_c, 3, 81, 90
1, 26496, Note_on_c, 9, 35, 111
1, 26496, Note_on_c, 9, 49, 113
1, 26513, Note_on_c, 3, 79, 0
1, 26529, Note_on_c, 3, 81, 0
1, 26530, Note_on_c, 1, 38, 0
1, 26536, Note_on_c, 9, 35, 0
1, 26540, Note_on_c, 0, 38, 0
1, 26543, Note_on_c, 9, 49, 0
1, 26544, Note_on_c, 0, 50, 117
1, 26544, Note_on_c, 0, 66, 117
1, 26544, Note_on_c, 1, 38, 90
1, 26544, Note_on_c, 3, 74, 122
1, 26544, Note_on_c, 3, 76, 68
1, 26544, Note_on_c, 4, 45, 92
1, 26544, Note_on_c, 4, 50, 106
1, 26544, Note_on_c, 4, 54, 108
1, 26544, Note_on_c, 5, 62, 109
1, 26544, Note_on_c, 5, 74, 118
1, 26544, Note_on_c, 9, 38, 115
1, 26544, Note_on_c, 9, 42, 104
1, 26544, Note_on_c, 9, 54, 127
1, 26547, Note_on_c, 3, 76, 0
1, 26562, Note_on_c, 5, 74, 0
1, 26566, Note_on_c, 5, 62, 0
1, 26568, Note_on_c, 0, 38, 112
1, 26568, Note_on_c, 0, 62, 113
1, 26568, Note_on_c, 9, 35, 126
1, 26569, Note_on_c, 9, 38, 0
1, 26573, Note_on_c, 9, 42, 0
1, 26581, Note_on_c, 0, 57, 0
1, 26590, Note_on_c, 9, 54, 0
1, 26592, Note_on_c, 0, 57, 117
1, 26592, Note_on_c, 5, 62, 118
1, 26592, Note_on_c, 5, 74, 127
1, 26592, Note_on_c, 9, 42, 117
1, 26593, Note_on_c, 9, 35, 0
1, 26598, Note_on_c, 0, 66, 0
1, 26606, Note_on_c, 4, 45, 0
1, 26608, Note_on_c, 0, 62, 0
1, 26610, Note_on_c, 9, 42, 0
1, 26611, Note_on_c, 1, 38, 0
1, 26612, Note_on_c, 5, 74, 0
1, 26613, Note_on_c, 5, 62, 0
1, 26614, Note_on_c, 4, 50, 0
1, 26616, Note_on_c, 4, 54, 0
1, 26616, Note_on_c, 0, 66, 117
1, 26616, Note_on_c, 1, 38, 94
1, 26616, Note_on_c, 4, 38, 88
1, 26616, Note_on_c, 9, 35, 126
1, 26622, Note_on_c, 0, 38, 0
1, 26631, Note_on_c, 1, 38, 0
1, 26637, Note_on_c, 9, 35, 0
1, 26637, Control_c, 3, 1, 26
1, 26639, Note_on_c, 0, 50, 0
1, 26640, Note_on_c, 0, 50, 117
1, 26640, Note_on_c, 0, 62, 117
1, 26640, Note_on_c, 1, 38, 92
1, 26640, Note_on_c, 4, 45, 85
1, 26640, Note_on_c, 4, 50, 94
1, 26640, Note_on_c, 4, 54, 110
1, 26640, Note_on_c, 5, 62, 123
1, 26640, Note_on_c, 5, 74, 127
1, 26640, Note_on_c, 9, 38, 116
1, 26640, Note_on_c, 9, 42, 117
1, 26640, Note_on_c, 9, 54, 127
1, 26644, Note_on_c, 0, 50, 0
1, 26647, Control_c, 3, 1, 92
1, 26650, Note_on_c, 0, 57, 0
1, 26655, Control_c, 3, 1, 123
1, 26661, Note_on_c, 5, 74, 0
1, 26664, Control_c, 3, 1, 127
1, 26666, Note_on_c, 9, 42, 0
1, 26666, Note_on_c, 5, 62, 0
1, 26675, Note_on_c, 1, 38, 0
1, 26681, Note_on_c, 9, 54, 0
1, 26681, Note_on_c, 4, 54, 0
1, 26682, Note_on_c, 4, 50, 0
1, 26682, Note_on_c, 4, 45, 0
1, 26687, Note_on_c, 9, 38, 0
1, 26688, Note_on_c, 0, 43, 117
1, 26688, Note_on_c, 0, 57, 92
1, 26688, Note_on_c, 1, 31, 110
1, 26688, Note_on_c, 2, 43, 90
1, 26688, Note_on_c, 4, 31, 94
1, 26688, Note_on_c, 5, 65, 127
1, 26688, Note_on_c, 5, 77, 121
1, 26688, Note_on_c, 9, 35, 127
1, 26688, Note_on_c, 9, 42, 92
1, 26691, Note_on_c, 4, 38, 0
1, 26701, Note_on_c, 2, 57, 0
1, 26705, Note_on_c, 9, 42, 0
1, 26706, Note_on_c, 0, 62, 0
1, 26709, Note_on_c, 0, 57, 0
1, 26719, Note_on_c, 5, 65, 0
1, 26724, Note_on_c, 1, 31, 0
1, 26727, Note_on_c, 9, 35, 0
1, 26730, Note_on_c, 0, 66, 0
1, 26730, Note_on_c, 5, 77, 0
1, 26735, Note_on_c, 3, 74, 0
1, 26736, Note_on_c, 0, 55, 117
1, 26736, Note_on_c, 0, 59, 111
1, 26736, Note_on_c, 0, 67, 117
1, 26736, Note_on_c, 1, 31, 111
1, 26736, Note_on_c, 4, 47, 110
1, 26736, Note_on_c, 4, 50, 112
1, 26736, Note_on_c, 4, 55, 106
1, 26736, Note_on_c, 5, 62, 121
1, 26736, Note_on_c, 5, 74, 118
1, 26736, Note_on_c, 9, 38, 116
1, 26736, Note_on_c, 9, 42, 117
1, 26736, Note_on_c, 9, 54, 127
1, 26745, Note_on_c, 0, 43, 0
1, 26747, Control_c, 3, 1, 19
1, 26756, Note_on_c, 5, 74, 0
1, 26756, Control_c, 3, 1, 0
1, 26758, Note_on_c, 9, 42, 0
1, 26759, Note_on_c, 5, 62, 0
1, 26760, Note_on_c, 0, 62, 117
1, 26760, Note_on_c, 9, 35, 118
1, 26763, Note_on_c, 9, 38, 0
1, 26770, Note_on_c, 9, 54, 0
1, 26772, Note_on_c, 0, 59, 0
1, 26782, Note_on_c, 0, 55, 0
1, 26784, Note_on_c, 0, 43, 117
1, 26784, Note_on_c, 0, 59, 117
1, 26784, Note_on_c, 5, 62, 105
1, 26784, Note_on_c, 5, 74, 127
1, 26784, Note_on_c, 9, 42, 96
1, 26787, Note_on_c, 9, 35, 0
1, 26791, Note_on_c, 4, 31, 0
1, 26791, Note_on_c, 0, 62, 0
1, 26796, Note_on_c, 0, 67, 0
1, 26801, Note_on_c, 9, 42, 0
1, 26804, Note_on_c, 4, 47, 0
1, 26807, Note_on_c, 1, 31, 0
1, 26808, Note_on_c, 5, 62, 0
1, 26808, Note_on_c, 0, 67, 117
1, 26808, Note_on_c, 1, 33, 92
1, 26808, Note_on_c, 4, 31, 83
1, 26808, Note_on_c, 9, 35, 127
1, 26810, Note_on_c, 4, 50, 0
1, 26818, Note_on_c, 4, 55, 0
1, 26829, Note_on_c, 1, 33, 0
1, 26830, Note_on_c, 5, 74, 0
1, 26832, Note_on_c, 0, 55, 117
1, 26832, Note_on_c, 0, 62, 117
1, 26832, Note_on_c, 1, 35, 90
1, 26832, Note_on_c, 4, 47, 92
1, 26832, Note_on_c, 4, 50, 90
1, 26832, Note_on_c, 4, 55, 101
1, 26832, Note_on_c, 5, 60, 121
1, 26832, Note_on_c, 5, 72, 127
1, 26832, Note_on_c, 9, 38, 117
1, 26832, Note_on_c, 9, 42, 117
1, 26832, Note_on_c, 9, 54, 127
1, 26834, Note_on_c, 9, 35, 0
1, 26839, Note_on_c, 0, 59, 0
1, 26854, Note_on_c, 0, 55, 0
1, 26855, Note_on_c, 5, 72, 0
1, 26856, Note_on_c, 0, 59, 117
1, 26857, Note_on_c, 9, 42, 0
1, 26859, Note_on_c, 0, 43, 0
1, 26862, Note_on_c, 9, 54, 0
1, 26865, Note_on_c, 4, 47, 0
1, 26868, Note_on_c, 0, 62, 0
1, 26869, Note_on_c, 4, 50, 0
1, 26871, Note_on_c, 5, 60, 0
1, 26875, Note_on_c, 4, 55, 0
1, 26878, Note_on_c, 9, 38, 0
1, 26878, Note_on_c, 1, 35, 0
1, 26879, Note_on_c, 0, 59, 0
1, 26880, Note_on_c, 0, 38, 117
1, 26880, Note_on_c, 1, 38, 78
1, 26880, Note_on_c, 2, 57, 93
1, 26880, Note_on_c, 4, 38, 112
1, 26880, Note_on_c, 5, 62, 127
1, 26880, Note_on_c, 5, 74, 127
1, 26880, Note_on_c, 9, 35, 125
1, 26880, Note_on_c, 9, 42, 93
1, 26884, Note_on_c, 0, 67, 0
1, 26887, Note_on_c, 4, 31, 0
1, 26896, Note_on_c, 2, 43, 0
1, 26897, Note_on_c, 9, 42, 0
1, 26914, Note_on_c, 1, 38, 0
1, 26922, Note_on_c, 9, 35, 0
1, 26928, Note_on_c, 0, 50, 117
1, 26928, Note_on_c, 0, 57, 117
1, 26928, Note_on_c, 0, 66, 117
1, 26928, Note_on_c, 1, 38, 92
1, 26928, Note_on_c, 4, 45, 106
1, 26928, Note_on_c, 4, 50, 111
1, 26928, Note_on_c, 4, 54, 112
1, 26928, Note_on_c, 9, 38, 97
1, 26928, Note_on_c, 9, 42, 117
1, 26928, Note_on_c, 9, 54, 127
1, 26941, Note_on_c, 0, 38, 0
1, 26952, Note_on_c, 0, 62, 113
1, 26952, Note_on_c, 9, 35, 127
1, 26953, Note_on_c, 9, 38, 0
1, 26955, Note_on_c, 9, 42, 0
1, 26962, Note_on_c, 0, 57, 0
1, 26962, Note_on_c, 5, 74, 0
1, 26964, Note_on_c, 9, 54, 0
1, 26966, Note_on_c, 5, 62, 0
1, 26969, Note_on_c, 4, 38, 0
1, 26976, Note_on_c, 9, 35, 0
1, 26976, Note_on_c, 0, 38, 117
1, 26976, Note_on_c, 0, 57, 117
1, 26976, Note_on_c, 3, 74, 122
1, 26976, Note_on_c, 9, 42, 93
1, 26981, Note_on_c, 0, 66, 0
1, 26988, Note_on_c, 1, 38, 0
1, 26989, Note_on_c, 4, 45, 0
1, 26991, Note_on_c, 0, 62, 0
1, 26991, Note_on_c, 0, 38, 0
1, 26993, Note_on_c, 9, 42, 0
1, 26995, Note_on_c, 4, 50, 0
1, 26997, Note_on_c, 4, 54, 0
1, 27000, Note_on_c, 0, 66, 117
1, 27000, Note_on_c, 1, 38, 94
1, 27000, Note_on_c, 4, 38, 96
1, 27000, Note_on_c, 9, 35, 127
1, 27002, Note_on_c, 3, 74, 0
1, 27023, Note_on_c, 0, 50, 0
1, 27024, Note_on_c, 0, 50, 117
1, 27024, Note_on_c, 3, 74, 122
1, 27024, Note_on_c, 4, 45, 77
1, 27024, Note_on_c, 4, 50, 84
1, 27024, Note_on_c, 4, 54, 108
1, 27024, Note_on_c, 9, 38, 117
1, 27024, Note_on_c, 9, 42, 117
1, 27024, Note_on_c, 9, 54, 127
1, 27029, Note_on_c, 0, 50, 0
1, 27031, Note_on_c, 9, 35, 0
1, 27035, Note_on_c, 4, 38, 0
1, 27039, Note_on_c, 0, 57, 0
1, 27047, Note_on_c, 9, 42, 0
1, 27051, Note_on_c, 3, 74, 0
1, 27062, Note_on_c, 1, 38, 0
1, 27062, Note_on_c, 9, 54, 0
1, 27064, Note_on_c, 0, 66, 0
1, 27066, Note_on_c, 9, 38, 0
1, 27072, Note_on_c, 0, 38, 117
1, 27072, Note_on_c, 0, 57, 117
1, 27072, Note_on_c, 1, 38, 103
1, 27072, Note_on_c, 3, 78, 122
1, 27072, Note_on_c, 4, 38, 112
1, 27072, Note_on_c, 9, 35, 125
1, 27072, Note_on_c, 9, 42, 88
1, 27080, Note_on_c, 0, 38, 0
1, 27086, Note_on_c, 9, 42, 0
1, 27091, Note_on_c, 4, 45, 0
1, 27096, Note_on_c, 3, 78, 0
1, 27107, Note_on_c, 1, 38, 0
1, 27111, Note_on_c, 4, 38, 0
1, 27114, Note_on_c, 9, 35, 0
1, 27120, Note_on_c, 0, 50, 117
1, 27120, Note_on_c, 0, 66, 117
1, 27120, Note_on_c, 1, 38, 96
1, 27120, Note_on_c, 3, 78, 122
1, 27120, Note_on_c, 4, 45, 112
1, 27120, Note_on_c, 9, 38, 117
1, 27120, Note_on_c, 9, 42, 117
1, 27120, Note_on_c, 9, 54, 127
1, 27123, Note_on_c, 0, 50, 0
1, 27124, Note_on_c, 4, 50, 0
1, 27137, Note_on_c, 0, 57, 0
1, 27141, Note_on_c, 9, 42, 0
1, 27144, Note_on_c, 0, 62, 113
1, 27144, Note_on_c, 4, 38, 106
1, 27144, Note_on_c, 9, 35, 118
1, 27145, Note_on_c, 4, 54, 0
1, 27146, Note_on_c, 9, 38, 0
1, 27150, Note_on_c, 3, 78, 0
1, 27156, Note_on_c, 9, 54, 0
1, 27168, Note_on_c, 0, 38, 117
1, 27168, Note_on_c, 0, 57, 117
1, 27168, Note_on_c, 3, 79, 122
1, 27168, Note_on_c, 4, 55, 98
1, 27168, Note_on_c, 9, 42, 85
1, 27170, Note_on_c, 9, 35, 0
1, 27172, Note_on_c, 0, 66, 0
1, 27176, Note_on_c, 0, 38, 0
1, 27182, Note_on_c, 0, 62, 0
1, 27184, Note_on_c, 9, 42, 0
1, 27191, Note_on_c, 1, 38, 0
1, 27192, Note_on_c, 0, 66, 117
1, 27192, Note_on_c, 1, 33, 90
1, 27192, Note_on_c, 4, 50, 85
1, 27192, Note_on_c, 9, 35, 127
1, 27197, Note_on_c, 4, 45, 0
1, 27205, Note_on_c, 3, 79, 0
1, 27214, Note_on_c, 0, 57, 0
1, 27214, Note_on_c, 4, 55, 0
1, 27215, Note_on_c, 1, 33, 0
1, 27216, Note_on_c, 0, 50, 117
1, 27216, Note_on_c, 0, 62, 117
1, 27216, Note_on_c, 1, 35, 94
1, 27216, Note_on_c, 3, 78, 121
1, 27216, Note_on_c, 4, 45, 101
1, 27216, Note_on_c, 9, 38, 117
1, 27216, Note_on_c, 9, 42, 117
1, 27216, Note_on_c, 9, 54, 127
1, 27219, Note_on_c, 0, 66, 0
1, 27220, Note_on_c, 9, 35, 0
1, 27224, Note_on_c, 4, 38, 0
1, 27228, Note_on_c, 4, 50, 0
1, 27236, Note_on_c, 3, 78, 0
1, 27236, Note_on_c, 9, 42, 0
1, 27240, Note_on_c, 0, 57, 117
1, 27240, Note_on_c, 3, 79, 116
1, 27240, Note_on_c, 3, 81, 111
1, 27240, Note_on_c, 4, 50, 75
1, 27243, Note_on_c, 0, 62, 0
1, 27249, Note_on_c, 9, 54, 0
1, 27252, Note_on_c, 2, 57, 0
1, 27256, Note_on_c, 4, 45, 0
1, 27256, Note_on_c, 4, 50, 0
1, 27259, Note_on_c, 3, 79, 0
1, 27259, Note_on_c, 9, 38, 0
1, 27260, Note_on_c, 0, 57, 0
1, 27262, Note_on_c, 1, 35, 0
1, 27264, Note_on_c, 0, 38, 117
1, 27264, Note_on_c, 1, 38, 98
1, 27264, Note_on_c, 2, 57, 93
1, 27264, Note_on_c, 4, 38, 112
1, 27264, Note_on_c, 9, 35, 126
1, 27264, Note_on_c, 9, 42, 100
1, 27278, Note_on_c, 9, 42, 0
1, 27286, Note_on_c, 3, 81, 0
1, 27295, Note_on_c, 0, 38, 0
1, 27298, Note_on_c, 1, 38, 0
1, 27303, Note_on_c, 9, 35, 0
1, 27311, Note_on_c, 0, 50, 0
1, 27312, Note_on_c, 0, 50, 117
1, 27312, Note_on_c, 0, 57, 117
1, 27312, Note_on_c, 0, 66, 117
1, 27312, Note_on_c, 1, 38, 106
1, 27312, Note_on_c, 3, 74, 122
1, 27312, Note_on_c, 4, 45, 101
1, 27312, Note_on_c, 4, 50, 108
1, 27312, Note_on_c, 4, 54, 112
1, 27312, Note_on_c, 5, 62, 127
1, 27312, Note_on_c, 5, 74, 127
1, 27312, Note_on_c, 9, 38, 116
1, 27312, Note_on_c, 9, 42, 117
1, 27312, Note_on_c, 9, 54, 127
1, 27316, Note_on_c, 0, 50, 0
1, 27336, Note_on_c, 9, 42, 0
1, 27336, Note_on_c, 0, 62, 117
1, 27336, Note_on_c, 9, 35, 126
1, 27339, Note_on_c, 5, 74, 0
1, 27342, Note_on_c, 5, 62, 0
1, 27343, Note_on_c, 0, 57, 0
1, 27343, Note_on_c, 9, 38, 0
1, 27344, Note_on_c, 9, 54, 0
1, 27348, Note_on_c, 0, 66, 0
1, 27360, Note_on_c, 0, 38, 117
1, 27360, Note_on_c, 5, 62, 127
1, 27360, Note_on_c, 5, 74, 127
1, 27360, Note_on_c, 9, 42, 83
1, 27361, Note_on_c, 9, 35, 0
1, 27365, Note_on_c, 0, 38, 0
1, 27371, Note_on_c, 4, 38, 0
1, 27376, Note_on_c, 4, 45, 0
1, 27377, Note_on_c, 9, 42, 0
1, 27382, Note_on_c, 5, 62, 0
1, 27382, Note_on_c, 5, 74, 0
1, 27384, Note_on_c, 0, 57, 117
1, 27384, Note_on_c, 0, 66, 117
1, 27384, Note_on_c, 1, 35, 84
1, 27384, Note_on_c, 4, 38, 110
1, 27384, Note_on_c, 4, 45, 84
1, 27384, Note_on_c, 9, 35, 127
1, 27385, Note_on_c, 4, 38, 0
1, 27387, Note_on_c, 4, 54, 0
1, 27387, Control_c, 3, 1, 10
1, 27395, Note_on_c, 1, 38, 0
1, 27395, Control_c, 3, 1, 26
1, 27397, Note_on_c, 0, 62, 0
1, 27402, Control_c, 3, 1, 32
1, 27406, Note_on_c, 1, 35, 0
1, 27407, Note_on_c, 4, 50, 0
1, 27408, Note_on_c, 0, 50, 117
1, 27408, Note_on_c, 1, 33, 71
1, 27408, Note_on_c, 4, 50, 84
1, 27408, Note_on_c, 4, 54, 110
1, 27408, Note_on_c, 5, 62, 127
1, 27408, Note_on_c, 5, 74, 127
1, 27408, Note_on_c, 9, 38, 117
1, 27408, Note_on_c, 9, 42, 117
1, 27408, Note_on_c, 9, 54, 127
1, 27410, Control_c, 3, 1, 47
1, 27411, Note_on_c, 9, 35, 0
1, 27414, Note_on_c, 0, 50, 0
1, 27419, Note_on_c, 4, 45, 0
1, 27420, Control_c, 3, 1, 91
1, 27428, Control_c, 3, 1, 123
1, 27431, Note_on_c, 0, 57, 0
1, 27431, Note_on_c, 9, 42, 0
1, 27432, Note_on_c, 0, 62, 117
1, 27433, Note_on_c, 5, 74, 0
1, 27435, Note_on_c, 9, 54, 0
1, 27438, Note_on_c, 5, 62, 0
1, 27438, Control_c, 3, 1, 127
1, 27448, Note_on_c, 1, 33, 0
1, 27449, Note_on_c, 4, 50, 0
1, 27450, Note_on_c, 4, 54, 0
1, 27454, Note_on_c, 9, 38, 0
1, 27456, Note_on_c, 0, 43, 117
1, 27456, Note_on_c, 0, 57, 117
1, 27456, Note_on_c, 1, 31, 110
1, 27456, Note_on_c, 2, 43, 90
1, 27456, Note_on_c, 4, 31, 110
1, 27456, Note_on_c, 5, 65, 127
1, 27456, Note_on_c, 5, 77, 127
1, 27456, Note_on_c, 9, 35, 116
1, 27456, Note_on_c, 9, 42, 88
1, 27467, Note_on_c, 2, 57, 0
1, 27467, Note_on_c, 0, 62, 0
1, 27468, Note_on_c, 9, 42, 0
1, 27482, Note_on_c, 0, 66, 0
1, 27482, Note_on_c, 0, 57, 0
1, 27493, Note_on_c, 5, 65, 0
1, 27494, Note_on_c, 1, 31, 0
1, 27497, Note_on_c, 9, 35, 0
1, 27500, Note_on_c, 5, 77, 0
1, 27504, Note_on_c, 0, 55, 117
1, 27504, Note_on_c, 0, 59, 117
1, 27504, Note_on_c, 0, 67, 117
1, 27504, Note_on_c, 1, 31, 101
1, 27504, Note_on_c, 4, 47, 101
1, 27504, Note_on_c, 4, 50, 110
1, 27504, Note_on_c, 4, 55, 108
1, 27504, Note_on_c, 5, 62, 123
1, 27504, Note_on_c, 5, 74, 127
1, 27504, Note_on_c, 9, 38, 117
1, 27504, Note_on_c, 9, 42, 117
1, 27504, Note_on_c, 9, 54, 127
1, 27509, Note_on_c, 3, 74, 0
1, 27520, Note_on_c, 0, 43, 0
1, 27522, Note_on_c, 5, 74, 0
1, 27524, Note_on_c, 9, 42, 0
1, 27524, Note_on_c, 5, 62, 0
1, 27525, Control_c, 3, 1, 109
1, 27528, Note_on_c, 9, 54, 0
1, 27528, Note_on_c, 0, 62, 117
1, 27528, Note_on_c, 9, 35, 123
1, 27533, Control_c, 3, 1, 0
1, 27535, Note_on_c, 9, 38, 0
1, 27537, Note_on_c, 0, 59, 0
1, 27547, Note_on_c, 4, 31, 0
1, 27552, Note_on_c, 0, 43, 117
1, 27552, Note_on_c, 0, 59, 117
1, 27552, Note_on_c, 5, 62, 127
1, 27552, Note_on_c, 5, 74, 127
1, 27552, Note_on_c, 9, 42, 82
1, 27555, Note_on_c, 0, 67, 0
1, 27556, Note_on_c, 9, 35, 0
1, 27560, Note_on_c, 0, 62, 0
1, 27561, Note_on_c, 0, 43, 0
1, 27564, Note_on_c, 9, 42, 0
1, 27568, Note_on_c, 4, 47, 0
1, 27576, Note_on_c, 0, 67, 117
1, 27576, Note_on_c, 1, 33, 88
1, 27576, Note_on_c, 4, 31, 94
1, 27576, Note_on_c, 4, 47, 101
1, 27576, Note_on_c, 9, 35, 126
1, 27577, Note_on_c, 4, 50, 0
1, 27584, Note_on_c, 4, 55, 0
1, 27584, Note_on_c, 1, 31, 0
1, 27593, Note_on_c, 5, 62, 0
1, 27597, Note_on_c, 5, 74, 0
1, 27598, Note_on_c, 1, 33, 0
1, 27599, Note_on_c, 0, 55, 0
1, 27600, Note_on_c, 0, 55, 117
1, 27600, Note_on_c, 0, 62, 116
1, 27600, Note_on_c, 1, 35, 92
1, 27600, Note_on_c, 4, 50, 88
1, 27600, Note_on_c, 4, 55, 108
1, 27600, Note_on_c, 5, 60, 126
1, 27600, Note_on_c, 5, 72, 127
1, 27600, Note_on_c, 9, 38, 116
1, 27600, Note_on_c, 9, 42, 117
1, 27600, Note_on_c, 9, 54, 127
1, 27601, Note_on_c, 9, 35, 0
1, 27604, Note_on_c, 0, 55, 0
1, 27605, Note_on_c, 0, 59, 0
1, 27617, Note_on_c, 5, 72, 0
1, 27620, Note_on_c, 9, 42, 0
1, 27622, Note_on_c, 5, 60, 0
1, 27624, Note_on_c, 0, 59, 117
1, 27625, Note_on_c, 9, 54, 0
1, 27629, Note_on_c, 4, 47, 0
1, 27632, Note_on_c, 0, 62, 0
1, 27643, Note_on_c, 4, 55, 0
1, 27644, Note_on_c, 4, 50, 0
1, 27647, Note_on_c, 2, 50, 0
1, 27647, Note_on_c, 0, 67, 0
1, 27647, Note_on_c, 0, 59, 0
1, 27648, Note_on_c, 0, 38, 117
1, 27648, Note_on_c, 1, 38, 103
1, 27648, Note_on_c, 2, 50, 85
1, 27648, Note_on_c, 2, 57, 88
1, 27648, Note_on_c, 4, 38, 112
1, 27648, Note_on_c, 5, 62, 127
1, 27648, Note_on_c, 5, 74, 127
1, 27648, Note_on_c, 9, 35, 118
1, 27648, Note_on_c, 9, 42, 96
1, 27649, Note_on_c, 9, 38, 0
1, 27650, Note_on_c, 4, 31, 0
1, 27652, Note_on_c, 1, 35, 0
1, 27657, Note_on_c, 2, 43, 0
1, 27658, Note_on_c, 2, 50, 0
1, 27663, Note_on_c, 9, 42, 0
1, 27682, Note_on_c, 1, 38, 0
1, 27688, Note_on_c, 9, 35, 0
1, 27696, Note_on_c, 0, 50, 117
1, 27696, Note_on_c, 0, 57, 117
1, 27696, Note_on_c, 0, 66, 117
1, 27696, Note_on_c, 1, 38, 98
1, 27696, Note_on_c, 4, 45, 98
1, 27696, Note_on_c, 4, 50, 108
1, 27696, Note_on_c, 4, 54, 110
1, 27696, Note_on_c, 9, 38, 113
1, 27696, Note_on_c, 9, 42, 117
1, 27696, Note_on_c, 9, 54, 127
1, 27703, Note_on_c, 0, 38, 0
1, 27711, Note_on_c, 5, 62, 0
1, 27713, Note_on_c, 5, 74, 0
1, 27718, Note_on_c, 9, 42, 0
1, 27720, Note_on_c, 9, 54, 0
1, 27720, Note_on_c, 0, 62, 112
1, 27720, Note_on_c, 9, 35, 113
1, 27725, Note_on_c, 9, 38, 0
1, 27728, Note_on_c, 0, 57, 0
1, 27733, Note_on_c, 0, 66, 0
1, 27744, Note_on_c, 0, 38, 117
1, 27744, Note_on_c, 0, 57, 117
1, 27744, Note_on_c, 3, 74, 122
1, 27744, Note_on_c, 9, 42, 82
1, 27747, Note_on_c, 9, 35, 0
1, 27754, Note_on_c, 1, 38, 0
1, 27759, Note_on_c, 4, 38, 0
1, 27760, Note_on_c, 9, 42, 0
1, 27767, Note_on_c, 0, 38, 0
1, 27768, Note_on_c, 0, 38, 113
1, 27768, Note_on_c, 0, 66, 117
1, 27768, Note_on_c, 1, 38, 88
1, 27768, Note_on_c, 4, 38, 112
1, 27768, Note_on_c, 9, 35, 127
1, 27770, Note_on_c, 3, 74, 0
1, 27771, Note_on_c, 0, 38, 0
1, 27771, Note_on_c, 0, 62, 0
1, 27774, Note_on_c, 4, 54, 0
1, 27775, Note_on_c, 4, 45, 0
1, 27775, Note_on_c, 0, 50, 0
1, 27777, Note_on_c, 4, 38, 0
1, 27791, Note_on_c, 4, 50, 0
1, 27792, Note_on_c, 0, 50, 117
1, 27792, Note_on_c, 3, 74, 122
1, 27792, Note_on_c, 4, 45, 81
1, 27792, Note_on_c, 4, 50, 96
1, 27792, Note_on_c, 4, 54, 108
1, 27792, Note_on_c, 9, 38, 117
1, 27792, Note_on_c, 9, 42, 117
1, 27792, Note_on_c, 9, 54, 127
1, 27799, Note_on_c, 9, 35, 0
1, 27814, Note_on_c, 9, 42, 0
1, 27815, Note_on_c, 9, 54, 0
1, 27818, Note_on_c, 4, 50, 0
1, 27821, Note_on_c, 3, 74, 0
1, 27833, Note_on_c, 1, 38, 0
1, 27840, Note_on_c, 9, 38, 0
1, 27840, Note_on_c, 0, 38, 117
1, 27840, Note_on_c, 1, 38, 92
1, 27840, Note_on_c, 3, 78, 122
1, 27840, Note_on_c, 4, 38, 112
1, 27840, Note_on_c, 9, 35, 121
1, 27840, Note_on_c, 9, 42, 94
1, 27842, Note_on_c, 0, 66, 0
1, 27842, Note_on_c, 4, 45, 0
1, 27844, Note_on_c, 4, 54, 0
1, 27845, Note_on_c, 4, 38, 0
1, 27852, Note_on_c, 9, 42, 0
1, 27853, Note_on_c, 0, 38, 0
1, 27866, Note_on_c, 3, 78, 0
1, 27877, Note_on_c, 1, 38, 0
1, 27882, Note_on_c, 9, 35, 0
1, 27887, Note_on_c, 0, 50, 0
1, 27888, Note_on_c, 0, 50, 117
1, 27888, Note_on_c, 0, 66, 117
1, 27888, Note_on_c, 1, 38, 88
1, 27888, Note_on_c, 3, 78, 122
1, 27888, Note_on_c, 4, 45, 110
1, 27888, Note_on_c, 9, 38, 117
1, 27888, Note_on_c, 9, 42, 117
1, 27888, Note_on_c, 9, 54, 127
1, 27900, Note_on_c, 0, 50, 0
1, 27901, Note_on_c, 0, 57, 0
1, 27907, Note_on_c, 1, 38, 0
1, 27911, Note_on_c, 9, 54, 0
1, 27912, Note_on_c, 0, 62, 117
1, 27912, Note_on_c, 1, 38, 74
1, 27912, Note_on_c, 4, 50, 88
1, 27912, Note_on_c, 9, 35, 109
1, 27914, Note_on_c, 9, 42, 0
1, 27916, Note_on_c, 9, 38, 0
1, 27922, Note_on_c, 3, 78, 0
1, 27924, Note_on_c, 0, 66, 0
1, 27936, Note_on_c, 0, 38, 117
1, 27936, Note_on_c, 0, 57, 109
1, 27936, Note_on_c, 3, 79, 122
1, 27936, Note_on_c, 4, 54, 111
1, 27936, Note_on_c, 9, 42, 113
1, 27940, Note_on_c, 0, 38, 0
1, 27940, Note_on_c, 9, 35, 0
1, 27948, Note_on_c, 9, 42, 0
1, 27948, Note_on_c, 4, 50, 0
1, 27949, Note_on_c, 0, 62, 0
1, 27953, Note_on_c, 4, 45, 0
1, 27956, Note_on_c, 1, 38, 0
1, 27960, Note_on_c, 0, 66, 117
1, 27960, Note_on_c, 1, 38, 88
1, 27960, Note_on_c, 4, 38, 90
1, 27960, Note_on_c, 9, 35, 127
1, 27981, Note_on_c, 4, 38, 0
1, 27981, Note_on_c, 0, 57, 0
1, 27984, Note_on_c, 0, 50, 117
1, 27984, Note_on_c, 0, 50, 0
1, 27984, Note_on_c, 0, 62, 117
1, 27984, Note_on_c, 3, 78, 121
1, 27984, Note_on_c, 4, 45, 106
1, 27984, Note_on_c, 9, 38, 117
1, 27984, Note_on_c, 9, 42, 117
1, 27986, Note_on_c, 3, 79, 0
1, 27986, Note_on_c, 9, 35, 0
1, 27990, Note_on_c, 4, 54, 0
1, 27992, Note_on_c, 0, 66, 0
1, 28008, Note_on_c, 3, 78, 0
1, 28008, Note_on_c, 0, 57, 113
1, 28008, Note_on_c, 0, 66, 78
1, 28008, Note_on_c, 4, 50, 80
1, 28008, Note_on_c, 4, 54, 81
1, 28015, Note_on_c, 9, 42, 0
1, 28017, Note_on_c, 0, 62, 0
1, 28020, Note_on_c, 1, 38, 0
1, 28022, Note_on_c, 4, 45, 0
1, 28023, Note_on_c, 0, 66, 0
1, 28029, Note_on_c, 9, 38, 0
1, 28030, Note_on_c, 2, 57, 0
1, 28032, Note_on_c, 0, 57, 0
1, 28032, Note_on_c, 0, 43, 117
1, 28032, Note_on_c, 1, 31, 112
1, 28032, Note_on_c, 2, 43, 88
1, 28032, Note_on_c, 3, 79, 122
1, 28032, Note_on_c, 4, 31, 112
1, 28032, Note_on_c, 9, 35, 116
1, 28032, Note_on_c, 9, 45, 117
1, 28032, Note_on_c, 9, 54, 90
1, 28033, Note_on_c, 4, 50, 0
1, 28040, Pitch_bend_c, 3, 9830
1, 28041, Note_on_c, 4, 54, 0
1, 28044, Pitch_bend_c, 3, 12271
1, 28048, Note_on_c, 9, 54, 0
1, 28050, Pitch_bend_c, 3, 16383
1, 28056, Note_on_c, 9, 54, 110
1, 28061, Pitch_bend_c, 3, 16094
1, 28064, Note_on_c, 3, 79, 0
1, 28066, Pitch_bend_c, 3, 11757
1, 28070, Note_on_c, 1, 31, 0
1, 28070, Pitch_bend_c, 3, 9830
1, 28074, Note_on_c, 9, 35, 0
1, 28074, Pitch_bend_c, 3, 8192
1, 28078, Note_on_c, 9, 54, 0
1, 28080, Note_on_c, 0, 55, 117
1, 28080, Note_on_c, 0, 59, 117
1, 28080, Note_on_c, 0, 67, 117
1, 28080, Note_on_c, 1, 31, 103
1, 28080, Note_on_c, 3, 79, 122
1, 28080, Note_on_c, 4, 43, 90
1, 28080, Note_on_c, 4, 47, 103
1, 28080, Note_on_c, 4, 50, 108
1, 28080, Note_on_c, 4, 55, 110
1, 28080, Note_on_c, 5, 67, 126
1, 28080, Note_on_c, 5, 79, 127
1, 28080, Note_on_c, 9, 38, 117
1, 28080, Note_on_c, 9, 42, 117
1, 28080, Note_on_c, 9, 54, 126
1, 28085, Pitch_bend_c, 3, 8673
1, 28091, Note_on_c, 0, 43, 0
1, 28093, Pitch_bend_c, 3, 16383
1, 28097, Note_on_c, 9, 54, 0
1, 28097, Note_on_c, 5, 67, 0
1, 28098, Note_on_c, 9, 45, 0
1, 28100, Note_on_c, 9, 38, 0
1, 28100, Note_on_c, 0, 59, 0
1, 28104, Note_on_c, 0, 62, 116
1, 28104, Note_on_c, 9, 35, 99
1, 28104, Note_on_c, 9, 43, 116
1, 28104, Note_on_c, 9, 54, 107
1, 28105, Note_on_c, 5, 79, 0
1, 28114, Note_on_c, 9, 42, 0
1, 28121, Note_on_c, 9, 54, 0
1, 28124, Note_on_c, 0, 55, 0
1, 28126, Note_on_c, 9, 35, 0
1, 28127, Note_on_c, 0, 67, 0
1, 28128, Note_on_c, 0, 43, 117
1, 28128, Note_on_c, 0, 59, 117
1, 28128, Note_on_c, 5, 67, 127
1, 28128, Note_on_c, 5, 79, 127
1, 28128, Note_on_c, 9, 54, 87
1, 28133, Note_on_c, 0, 62, 0
1, 28140, Note_on_c, 1, 31, 0
1, 28140, Note_on_c, 4, 47, 0
1, 28146, Note_on_c, 9, 54, 0
1, 28149, Note_on_c, 5, 67, 0
1, 28152, Note_on_c, 0, 55, 117
1, 28152, Note_on_c, 0, 67, 117
1, 28152, Note_on_c, 9, 35, 127
1, 28152, Note_on_c, 9, 54, 102
1, 28155, Note_on_c, 5, 79, 0
1, 28156, Control_c, 3, 1, 9
1, 28158, Note_on_c, 4, 50, 0
1, 28158, Note_on_c, 4, 55, 0
1, 28165, Control_c, 3, 1, 14
1, 28169, Note_on_c, 9, 54, 0
1, 28175, Control_c, 3, 1, 20
1, 28176, Note_on_c, 0, 62, 117
1, 28176, Note_on_c, 1, 31, 112
1, 28176, Note_on_c, 4, 47, 92
1, 28176, Note_on_c, 4, 50, 81
1, 28176, Note_on_c, 4, 55, 106
1, 28176, Note_on_c, 5, 67, 127
1, 28176, Note_on_c, 5, 79, 127
1, 28176, Note_on_c, 9, 38, 113
1, 28176, Note_on_c, 9, 42, 117
1, 28176, Note_on_c, 9, 54, 127
1, 28178, Note_on_c, 4, 43, 0
1, 28180, Note_on_c, 9, 35, 0
1, 28181, Note_on_c, 0, 59, 0
1, 28183, Control_c, 3, 1, 29
1, 28189, Note_on_c, 0, 43, 0
1, 28191, Control_c, 3, 1, 33
1, 28195, Note_on_c, 0, 55, 0
1, 28196, Note_on_c, 9, 54, 0
1, 28196, Note_on_c, 0, 67, 0
1, 28200, Note_on_c, 5, 67, 0
1, 28200, Note_on_c, 0, 59, 117
1, 28200, Control_c, 3, 1, 41
1, 28200, Note_on_c, 9, 54, 107
1, 28205, Note_on_c, 0, 62, 0
1, 28208, Note_on_c, 4, 31, 0
1, 28211, Note_on_c, 5, 79, 0
1, 28211, Control_c, 3, 1, 57
1, 28212, Note_on_c, 9, 42, 0
1, 28218, Note_on_c, 9, 54, 0
1, 28218, Note_on_c, 1, 31, 0
1, 28220, Note_on_c, 9, 43, 0
1, 28220, Control_c, 3, 1, 85
1, 28222, Note_on_c, 0, 59, 0
1, 28224, Note_on_c, 2, 43, 0
1, 28224, Note_on_c, 0, 41, 117
1, 28224, Note_on_c, 1, 29, 112
1, 28224, Note_on_c, 2, 41, 90
1, 28224, Note_on_c, 2, 48, 90
1, 28224, Note_on_c, 4, 29, 110
1, 28224, Note_on_c, 5, 65, 127
1, 28224, Note_on_c, 5, 77, 127
1, 28224, Note_on_c, 9, 35, 118
1, 28224, Note_on_c, 9, 45, 117
1, 28224, Note_on_c, 9, 54, 82
1, 28226, Note_on_c, 9, 38, 0
1, 28228, Control_c, 3, 1, 125
1, 28233, Note_on_c, 4, 55, 0
1, 28234, Note_on_c, 4, 50, 0
1, 28236, Control_c, 3, 1, 127
1, 28240, Note_on_c, 4, 47, 0
1, 28242, Note_on_c, 9, 54, 0
1, 28245, Note_on_c, 5, 65, 0
1, 28247, Note_on_c, 5, 77, 0
1, 28248, Note_on_c, 9, 54, 105
1, 28266, Note_on_c, 9, 54, 0
1, 28269, Note_on_c, 9, 35, 0
1, 28272, Note_on_c, 0, 53, 117
1, 28272, Note_on_c, 0, 57, 117
1, 28272, Note_on_c, 0, 65, 117
1, 28272, Note_on_c, 4, 45, 98
1, 28272, Note_on_c, 4, 48, 101
1, 28272, Note_on_c, 4, 53, 108
1, 28272, Note_on_c, 5, 65, 127
1, 28272, Note_on_c, 5, 77, 127
1, 28272, Note_on_c, 9, 38, 117
1, 28272, Note_on_c, 9, 42, 117
1, 28272, Note_on_c, 9, 54, 127
1, 28283, Note_on_c, 1, 29, 0
1, 28285, Note_on_c, 0, 41, 0
1, 28292, Note_on_c, 9, 54, 0
1, 28292, Note_on_c, 5, 65, 0
1, 28293, Note_on_c, 0, 57, 0
1, 28293, Note_on_c, 9, 45, 0
1, 28294, Note_on_c, 5, 77, 0
1, 28296, Note_on_c, 0, 60, 117
1, 28296, Note_on_c, 1, 29, 111
1, 28296, Note_on_c, 9, 35, 123
1, 28296, Note_on_c, 9, 43, 117
1, 28296, Note_on_c, 9, 54, 108
1, 28301, Note_on_c, 9, 38, 0
1, 28308, Note_on_c, 9, 42, 0
1, 28310, Note_on_c, 0, 65, 0
1, 28313, Note_on_c, 9, 54, 0
1, 28320, Note_on_c, 0, 41, 117
1, 28320, Note_on_c, 5, 65, 127
1, 28320, Note_on_c, 5, 77, 127
1, 28320, Note_on_c, 9, 54, 87
1, 28325, Note_on_c, 0, 41, 0
1, 28328, Note_on_c, 9, 35, 0
1, 28332, Note_on_c, 9, 54, 0
1, 28339, Note_on_c, 4, 45, 0
1, 28340, Note_on_c, 4, 53, 0
1, 28340, Note_on_c, 0, 60, 0
1, 28342, Note_on_c, 4, 48, 0
1, 28343, Note_on_c, 5, 65, 0
1, 28343, Note_on_c, 5, 77, 0
1, 28344, Note_on_c, 3, 79, 0
1, 28344, Note_on_c, 0, 57, 117
1, 28344, Note_on_c, 0, 65, 117
1, 28344, Note_on_c, 4, 41, 98
1, 28344, Note_on_c, 9, 35, 127
1, 28344, Note_on_c, 9, 54, 107
1, 28346, Control_c, 3, 1, 111
1, 28355, Control_c, 3, 1, 0
1, 28356, Note_on_c, 1, 29, 0
1, 28359, Pitch_bend_c, 3, 13749
1, 28365, Pitch_bend_c, 3, 8192
1, 28367, Note_on_c, 0, 53, 0
1, 28368, Note_on_c, 9, 54, 0
1, 28368, Note_on_c, 0, 53, 117
1, 28368, Note_on_c, 1, 29, 112
1, 28368, Note_on_c, 4, 45, 88
1, 28368, Note_on_c, 4, 48, 106
1, 28368, Note_on_c, 4, 53, 112
1, 28368, Note_on_c, 5, 65, 127
1, 28368, Note_on_c, 5, 77, 127
1, 28368, Note_on_c, 9, 38, 117
1, 28368, Note_on_c, 9, 42, 117
1, 28368, Note_on_c, 9, 54, 127
1, 28377, Note_on_c, 9, 35, 0
1, 28381, Note_on_c, 4, 29, 0
1, 28388, Note_on_c, 0, 57, 0
1, 28390, Note_on_c, 0, 53, 0
1, 28392, Note_on_c, 9, 54, 0
1, 28392, Note_on_c, 0, 60, 111
1, 28392, Note_on_c, 9, 54, 105
1, 28396, Note_on_c, 5, 77, 0
1, 28401, Note_on_c, 0, 65, 0
1, 28404, Note_on_c, 4, 41, 0
1, 28404, Note_on_c, 1, 29, 0
1, 28405, Note_on_c, 5, 65, 0
1, 28407, Note_on_c, 4, 45, 0
1, 28408, Note_on_c, 4, 48, 0
1, 28408, Note_on_c, 9, 54, 0
1, 28409, Note_on_c, 9, 42, 0
1, 28409, Note_on_c, 4, 53, 0
1, 28411, Note_on_c, 2, 48, 0
1, 28416, Note_on_c, 9, 38, 0
1, 28416, Note_on_c, 0, 43, 117
1, 28416, Note_on_c, 0, 57, 117
1, 28416, Note_on_c, 1, 31, 112
1, 28416, Note_on_c, 2, 43, 90
1, 28416, Note_on_c, 2, 50, 88
1, 28416, Note_on_c, 4, 31, 112
1, 28416, Note_on_c, 5, 67, 127
1, 28416, Note_on_c, 5, 79, 127
1, 28416, Note_on_c, 9, 35, 127
1, 28416, Note_on_c, 9, 45, 117
1, 28416, Note_on_c, 9, 54, 85
1, 28419, Note_on_c, 9, 43, 0
1, 28421, Note_on_c, 2, 41, 0
1, 28422, Note_on_c, 0, 60, 0
1, 28431, Note_on_c, 0, 57, 0
1, 28432, Note_on_c, 9, 54, 0
1, 28440, Note_on_c, 9, 54, 106
1, 28444, Note_on_c, 5, 79, 0
1, 28446, Note_on_c, 5, 67, 0
1, 28456, Note_on_c, 9, 54, 0
1, 28461, Note_on_c, 9, 35, 0
1, 28464, Note_on_c, 0, 55, 117
1, 28464, Note_on_c, 0, 59, 117
1, 28464, Note_on_c, 0, 67, 117
1, 28464, Note_on_c, 4, 43, 92
1, 28464, Note_on_c, 4, 47, 108
1, 28464, Note_on_c, 4, 50, 112
1, 28464, Note_on_c, 4, 55, 110
1, 28464, Note_on_c, 5, 67, 127
1, 28464, Note_on_c, 5, 79, 127
1, 28464, Note_on_c, 9, 38, 117
1, 28464, Note_on_c, 9, 42, 117
1, 28464, Note_on_c, 9, 54, 126
1, 28475, Note_on_c, 1, 31, 0
1, 28476, Note_on_c, 0, 43, 0
1, 28485, Note_on_c, 9, 54, 0
1, 28488, Note_on_c, 0, 62, 117
1, 28488, Note_on_c, 1, 31, 110
1, 28488, Note_on_c, 9, 35, 126
1, 28488, Note_on_c, 9, 43, 117
1, 28488, Note_on_c, 9, 54, 114
1, 28489, Note_on_c, 9, 38, 0
1, 28494, Note_on_c, 9, 45, 0
1, 28499, Note_on_c, 9, 42, 0
1, 28500, Note_on_c, 0, 59, 0
1, 28505, Note_on_c, 9, 54, 0
1, 28510, Note_on_c, 5, 67, 0
1, 28512, Note_on_c, 0, 43, 117
1, 28512, Note_on_c, 3, 74, 122
1, 28512, Note_on_c, 9, 54, 87
1, 28518, Note_on_c, 9, 35, 0
1, 28518, Note_on_c, 5, 79, 0
1, 28524, Note_on_c, 0, 62, 0
1, 28524, Note_on_c, 0, 67, 0
1, 28524, Note_on_c, 4, 47, 0
1, 28528, Note_on_c, 4, 55, 0
1, 28529, Note_on_c, 9, 54, 0
1, 28533, Note_on_c, 4, 50, 0
1, 28534, Note_on_c, 9, 43, 0
1, 28536, Note_on_c, 0, 59, 117
1, 28536, Note_on_c, 0, 67, 117
1, 28536, Note_on_c, 9, 35, 127
1, 28536, Note_on_c, 9, 54, 105
1, 28539, Note_on_c, 0, 43, 0
1, 28540, Note_on_c, 3, 74, 0
1, 28543, Note_on_c, 1, 31, 0
1, 28548, Note_on_c, 4, 43, 0
1, 28553, Note_on_c, 9, 54, 0
1, 28559, Note_on_c, 0, 55, 0
1, 28560, Note_on_c, 0, 55, 117
1, 28560, Note_on_c, 1, 31, 110
1, 28560, Note_on_c, 3, 74, 122
1, 28560, Note_on_c, 4, 47, 58
1, 28560, Note_on_c, 4, 50, 103
1, 28560, Note_on_c, 4, 55, 111
1, 28560, Note_on_c, 9, 38, 117
1, 28560, Note_on_c, 9, 42, 117
1, 28560, Note_on_c, 9, 43, 108
1, 28560, Note_on_c, 9, 54, 127
1, 28564, Note_on_c, 9, 35, 0
1, 28568, Note_on_c, 0, 55, 0
1, 28575, Note_on_c, 0, 59, 0
1, 28580, Note_on_c, 9, 54, 0
1, 28584, Note_on_c, 4, 43, 106
1, 28584, Note_on_c, 9, 54, 110
1, 28597, Note_on_c, 3, 74, 0
1, 28601, Note_on_c, 1, 31, 0
1, 28601, Note_on_c, 9, 54, 0
1, 28601, Note_on_c, 9, 42, 0
1, 28602, Note_on_c, 4, 31, 0
1, 28602, Note_on_c, 9, 43, 0
1, 28605, Note_on_c, 9, 38, 0
1, 28607, Note_on_c, 4, 43, 0
1, 28608, Note_on_c, 0, 43, 117
1, 28608, Note_on_c, 0, 59, 117
1, 28608, Note_on_c, 1, 31, 112
1, 28608, Note_on_c, 3, 78, 121
1, 28608, Note_on_c, 4, 31, 103
1, 28608, Note_on_c, 9, 35, 127
1, 28608, Note_on_c, 9, 45, 117
1, 28608, Note_on_c, 9, 54, 85
1, 28609, Note_on_c, 4, 50, 0
1, 28613, Note_on_c, 4, 47, 0
1, 28619, Note_on_c, 0, 67, 0
1, 28626, Note_on_c, 9, 54, 0
1, 28632, Note_on_c, 9, 54, 105
1, 28633, Note_on_c, 3, 78, 0
1, 28645, Note_on_c, 9, 35, 0
1, 28648, Note_on_c, 9, 54, 0
1, 28655, Note_on_c, 4, 55, 0
1, 28656, Note_on_c, 0, 43, 0
1, 28656, Note_on_c, 0, 55, 117
1, 28656, Note_on_c, 0, 67, 117
1, 28656, Note_on_c, 3, 78, 121
1, 28656, Note_on_c, 4, 47, 108
1, 28656, Note_on_c, 4, 50, 112
1, 28656, Note_on_c, 4, 55, 111
1, 28656, Note_on_c, 9, 38, 117
1, 28656, Note_on_c, 9, 42, 117
1, 28656, Note_on_c, 9, 54, 127
1, 28660, Note_on_c, 1, 31, 0
1, 28676, Note_on_c, 9, 54, 0
1, 28680, Note_on_c, 9, 45, 0
1, 28680, Note_on_c, 0, 62, 117
1, 28680, Note_on_c, 1, 31, 98
1, 28680, Note_on_c, 9, 35, 127
1, 28680, Note_on_c, 9, 43, 116
1, 28680, Note_on_c, 9, 54, 107
1, 28681, Note_on_c, 0, 59, 0
1, 28683, Note_on_c, 9, 38, 0
1, 28689, Note_on_c, 3, 78, 0
1, 28693, Note_on_c, 9, 42, 0
1, 28701, Note_on_c, 9, 54, 0
1, 28702, Note_on_c, 9, 35, 0
1, 28704, Note_on_c, 4, 55, 0
1, 28704, Note_on_c, 0, 43, 117
1, 28704, Note_on_c, 3, 79, 122
1, 28704, Note_on_c, 9, 54, 77
1, 28709, Note_on_c, 0, 43, 0
1, 28717, Note_on_c, 0, 67, 0
1, 28719, Note_on_c, 0, 62, 0
1, 28721, Note_on_c, 4, 47, 0
1, 28723, Note_on_c, 9, 54, 0
1, 28728, Note_on_c, 0, 59, 111
1, 28728, Note_on_c, 0, 67, 117
1, 28728, Note_on_c, 4, 43, 106
1, 28728, Note_on_c, 9, 35, 127
1, 28728, Note_on_c, 9, 54, 105
1, 28733, Note_on_c, 9, 43, 0
1, 28737, Note_on_c, 4, 43, 0
1, 28737, Note_on_c, 4, 50, 0
1, 28742, Note_on_c, 3, 79, 0
1, 28744, Note_on_c, 9, 54, 0
1, 28751, Note_on_c, 0, 55, 0
1, 28752, Note_on_c, 0, 55, 117
1, 28752, Note_on_c, 0, 62, 117
1, 28752, Note_on_c, 1, 33, 112
1, 28752, Note_on_c, 2, 45, 89
1, 28752, Note_on_c, 3, 78, 120
1, 28752, Note_on_c, 4, 47, 88
1, 28752, Note_on_c, 4, 50, 103
1, 28752, Note_on_c, 4, 55, 110
1, 28752, Note_on_c, 9, 38, 117
1, 28752, Note_on_c, 9, 42, 117
1, 28752, Note_on_c, 9, 43, 117
1, 28752, Note_on_c, 9, 54, 127
1, 28756, Note_on_c, 9, 35, 0
1, 28757, Note_on_c, 1, 31, 0
1, 28757, Note_on_c, 2, 50, 0
1, 28766, Note_on_c, 2, 43, 0
1, 28767, Note_on_c, 0, 55, 0
1, 28769, Note_on_c, 0, 59, 0
1, 28772, Note_on_c, 9, 54, 0
1, 28776, Note_on_c, 0, 59, 117
1, 28776, Note_on_c, 1, 35, 108
1, 28776, Note_on_c, 9, 54, 100
1, 28777, Note_on_c, 3, 78, 0
1, 28778, Note_on_c, 1, 33, 0
1, 28783, Note_on_c, 0, 62, 0
1, 28789, Note_on_c, 9, 43, 0
1, 28792, Note_on_c, 4, 50, 0
1, 28793, Note_on_c, 2, 45, 0
1, 28793, Note_on_c, 4, 55, 0
1, 28794, Note_on_c, 4, 47, 0
1, 28794, Note_on_c, 9, 42, 0
1, 28794, Note_on_c, 4, 31, 0
1, 28794, Note_on_c, 9, 54, 0
1, 28796, Note_on_c, 0, 67, 0
1, 28800, Note_on_c, 0, 59, 0
1, 28800, Note_on_c, 0, 38, 117
1, 28800, Note_on_c, 0, 50, 117
1, 28800, Note_on_c, 1, 38, 110
1, 28800, Note_on_c, 2, 47, 81
1, 28800, Note_on_c, 2, 50, 91
1, 28800, Note_on_c, 2, 55, 87
1, 28800, Note_on_c, 2, 57, 84
1, 28800, Note_on_c, 3, 79, 122
1, 28800, Note_on_c, 4, 38, 112
1, 28800, Note_on_c, 9, 35, 127
1, 28800, Note_on_c, 9, 49, 110
1, 28803, Note_on_c, 1, 35, 0
1, 28806, Pitch_bend_c, 3, 8352
1, 28810, Note_on_c, 9, 38, 0
1, 28811, Note_on_c, 2, 55, 0
1, 28811, Pitch_bend_c, 3, 11982
1, 28815, Pitch_bend_c, 3, 16383
1, 28827, Note_on_c, 2, 47, 0
1, 28840, Note_on_c, 0, 50, 0
1, 28846, Note_on_c, 9, 35, 0
1, 28847, Note_on_c, 9, 49, 0
1, 28848, Note_on_c, 0, 50, 117
1, 28848, Note_on_c, 0, 66, 117
1, 28848, Note_on_c, 3, 74, 121
1, 28848, Pitch_bend_c, 3, 8192
1, 28848, Note_on_c, 4, 45, 96
1, 28848, Note_on_c, 4, 50, 108
1, 28848, Note_on_c, 4, 54, 112
1, 28848, Note_on_c, 5, 62, 127
1, 28848, Note_on_c, 5, 74, 127
1, 28848, Note_on_c, 9, 38, 117
1, 28848, Note_on_c, 9, 42, 110
1, 28848, Note_on_c, 9, 54, 127
1, 28851, Note_on_c, 1, 38, 0
1, 28852, Note_on_c, 3, 79, 0
1, 28856, Note_on_c, 0, 38, 0
1, 28872, Note_on_c, 0, 62, 117
1, 28872, Note_on_c, 1, 38, 103
1, 28872, Note_on_c, 9, 35, 125
1, 28873, Note_on_c, 5, 74, 0
1, 28873, Note_on_c, 5, 62, 0
1, 28874, Note_on_c, 9, 42, 0
1, 28878, Note_on_c, 9, 38, 0
1, 28885, Note_on_c, 9, 54, 0
1, 28893, Note_on_c, 0, 66, 0
1, 28896, Note_on_c, 0, 38, 117
1, 28896, Note_on_c, 0, 57, 117
1, 28896, Note_on_c, 5, 62, 127
1, 28896, Note_on_c, 5, 74, 127
1, 28896, Note_on_c, 9, 42, 113
1, 28897, Note_on_c, 4, 38, 0
1, 28899, Note_on_c, 0, 38, 0
1, 28901, Note_on_c, 9, 35, 0
1, 28907, Note_on_c, 0, 62, 0
1, 28910, Note_on_c, 4, 45, 0
1, 28915, Note_on_c, 4, 50, 0
1, 28915, Note_on_c, 5, 62, 0
1, 28916, Note_on_c, 9, 42, 0
1, 28916, Note_on_c, 4, 54, 0
1, 28917, Note_on_c, 5, 74, 0
1, 28920, Note_on_c, 0, 66, 117
1, 28920, Note_on_c, 4, 38, 106
1, 28920, Note_on_c, 9, 35, 127
1, 28933, Note_on_c, 1, 38, 0
1, 28940, Control_c, 3, 1, 6
1, 28941, Note_on_c, 0, 57, 0
1, 28943, Note_on_c, 0, 50, 0
1, 28944, Note_on_c, 0, 50, 117
1, 28944, Note_on_c, 0, 62, 117
1, 28944, Note_on_c, 1, 38, 111
1, 28944, Note_on_c, 4, 45, 85
1, 28944, Note_on_c, 4, 50, 85
1, 28944, Note_on_c, 4, 54, 110
1, 28944, Note_on_c, 5, 62, 125
1, 28944, Note_on_c, 5, 74, 127
1, 28944, Note_on_c, 9, 38, 103
1, 28944, Note_on_c, 9, 42, 117
1, 28944, Note_on_c, 9, 54, 127
1, 28947, Note_on_c, 9, 35, 0
1, 28948, Control_c, 3, 1, 57
1, 28950, Note_on_c, 0, 50, 0
1, 28957, Control_c, 3, 1, 124
1, 28966, Control_c, 3, 1, 127
1, 28968, Note_on_c, 2, 57, 0
1, 28968, Note_on_c, 0, 57, 117
1, 28970, Note_on_c, 9, 42, 0
1, 28970, Note_on_c, 5, 74, 0
1, 28973, Note_on_c, 5, 62, 0
1, 28977, Note_on_c, 0, 62, 0
1, 28989, Note_on_c, 2, 50, 0
1, 28990, Note_on_c, 9, 54, 0
1, 28992, Note_on_c, 9, 38, 0
1, 28992, Note_on_c, 1, 38, 0
1, 28992, Note_on_c, 4, 45, 0
1, 28992, Note_on_c, 4, 54, 0
1, 28992, Note_on_c, 0, 43, 117
1, 28992, Note_on_c, 0, 55, 117
1, 28992, Note_on_c, 1, 31, 110
1, 28992, Note_on_c, 2, 45, 85
1, 28992, Note_on_c, 4, 31, 112
1, 28992, Note_on_c, 5, 65, 127
1, 28992, Note_on_c, 5, 77, 127
1, 28992, Note_on_c, 9, 35, 126
1, 28992, Note_on_c, 9, 42, 98
1, 28993, Note_on_c, 4, 50, 0
1, 28994, Note_on_c, 0, 66, 0
1, 28996, Note_on_c, 4, 38, 0
1, 28996, Note_on_c, 0, 57, 0
1, 29009, Note_on_c, 9, 42, 0
1, 29010, Note_on_c, 3, 74, 0
1, 29013, Note_on_c, 2, 45, 0
1, 29016, Note_on_c, 2, 43, 92
1, 29020, Control_c, 3, 1, 118
1, 29024, Note_on_c, 5, 65, 0
1, 29029, Control_c, 3, 1, 0
1, 29031, Note_on_c, 5, 77, 0
1, 29032, Note_on_c, 9, 35, 0
1, 29039, Note_on_c, 0, 55, 0
1, 29040, Note_on_c, 0, 59, 117
1, 29040, Note_on_c, 0, 67, 117
1, 29040, Note_on_c, 4, 47, 110
1, 29040, Note_on_c, 4, 50, 111
1, 29040, Note_on_c, 4, 55, 88
1, 29040, Note_on_c, 5, 62, 125
1, 29040, Note_on_c, 5, 74, 127
1, 29040, Note_on_c, 9, 38, 117
1, 29040, Note_on_c, 9, 42, 117
1, 29040, Note_on_c, 9, 54, 127
1, 29049, Note_on_c, 1, 31, 0
1, 29060, Note_on_c, 5, 74, 0
1, 29062, Note_on_c, 5, 62, 0
1, 29064, Note_on_c, 0, 43, 0
1, 29064, Note_on_c, 0, 55, 117
1, 29064, Note_on_c, 0, 62, 117
1, 29064, Note_on_c, 1, 31, 112
1, 29064, Note_on_c, 9, 35, 118
1, 29066, Note_on_c, 9, 42, 0
1, 29071, Note_on_c, 9, 38, 0
1, 29073, Note_on_c, 0, 59, 0
1, 29075, Note_on_c, 9, 54, 0
1, 29077, Note_on_c, 0, 55, 0
1, 29088, Note_on_c, 0, 43, 117
1, 29088, Note_on_c, 5, 62, 127
1, 29088, Note_on_c, 5, 74, 127
1, 29088, Note_on_c, 9, 42, 86
1, 29091, Note_on_c, 9, 35, 0
1, 29094, Note_on_c, 0, 67, 0
1, 29100, Note_on_c, 0, 62, 0
1, 29100, Note_on_c, 4, 47, 0
1, 29102, Note_on_c, 9, 42, 0
1, 29105, Note_on_c, 4, 55, 0
1, 29108, Note_on_c, 4, 50, 0
1, 29112, Note_on_c, 0, 67, 117
1, 29112, Note_on_c, 9, 35, 123
1, 29130, Note_on_c, 5, 62, 0
1, 29131, Note_on_c, 1, 31, 0
1, 29135, Note_on_c, 5, 74, 0
1, 29136, Note_on_c, 0, 55, 117
1, 29136, Note_on_c, 0, 62, 117
1, 29136, Note_on_c, 1, 33, 98
1, 29136, Note_on_c, 4, 47, 101
1, 29136, Note_on_c, 4, 50, 103
1, 29136, Note_on_c, 4, 55, 111
1, 29136, Note_on_c, 5, 60, 118
1, 29136, Note_on_c, 5, 72, 121
1, 29136, Note_on_c, 9, 38, 117
1, 29136, Note_on_c, 9, 42, 117
1, 29136, Note_on_c, 9, 54, 127
1, 29139, Note_on_c, 9, 35, 0
1, 29149, Note_on_c, 0, 43, 0
1, 29150, Note_on_c, 0, 55, 0
1, 29156, Note_on_c, 0, 67, 0
1, 29156, Note_on_c, 5, 72, 0
1, 29160, Note_on_c, 9, 42, 0
1, 29160, Note_on_c, 0, 59, 117
1, 29160, Note_on_c, 1, 35, 77
1, 29165, Note_on_c, 1, 33, 0
1, 29168, Note_on_c, 0, 62, 0
1, 29174, Note_on_c, 9, 54, 0
1, 29174, Note_on_c, 4, 31, 0
1, 29178, Note_on_c, 4, 50, 0
1, 29180, Note_on_c, 4, 55, 0
1, 29180, Note_on_c, 9, 38, 0
1, 29182, Note_on_c, 0, 59, 0
1, 29183, Note_on_c, 4, 47, 0
1, 29184, Note_on_c, 5, 60, 0
1, 29184, Note_on_c, 0, 38, 117
1, 29184, Note_on_c, 0, 50, 117
1, 29184, Note_on_c, 1, 38, 103
1, 29184, Note_on_c, 2, 50, 89
1, 29184, Note_on_c, 2, 57, 88
1, 29184, Note_on_c, 4, 38, 112
1, 29184, Note_on_c, 5, 62, 127
1, 29184, Note_on_c, 5, 74, 127
1, 29184, Note_on_c, 9, 35, 127
1, 29184, Note_on_c, 9, 42, 88
1, 29186, Note_on_c, 1, 35, 0
1, 29199, Note_on_c, 9, 42, 0
1, 29204, Note_on_c, 2, 43, 0
1, 29226, Note_on_c, 9, 35, 0
1, 29229, Note_on_c, 0, 50, 0
1, 29232, Note_on_c, 0, 50, 117
1, 29232, Note_on_c, 0, 57, 117
1, 29232, Note_on_c, 0, 66, 117
1, 29232, Note_on_c, 3, 81, 122
1, 29232, Note_on_c, 4, 45, 103
1, 29232, Note_on_c, 4, 50, 103
1, 29232, Note_on_c, 4, 54, 110
1, 29232, Note_on_c, 9, 38, 117
1, 29232, Note_on_c, 9, 42, 117
1, 29232, Note_on_c, 9, 54, 127
1, 29238, Note_on_c, 1, 38, 0
1, 29242, Note_on_c, 0, 38, 0
1, 29246, Note_on_c, 5, 62, 0
1, 29254, Note_on_c, 9, 42, 0
1, 29255, Note_on_c, 3, 81, 0
1, 29256, Note_on_c, 0, 62, 117
1, 29256, Note_on_c, 1, 38, 110
1, 29256, Note_on_c, 9, 35, 125
1, 29258, Note_on_c, 5, 74, 0
1, 29262, Note_on_c, 9, 38, 0
1, 29265, Note_on_c, 9, 54, 0
1, 29266, Note_on_c, 0, 57, 0
1, 29280, Note_on_c, 0, 38, 117
1, 29280, Note_on_c, 0, 57, 111
1, 29280, Note_on_c, 3, 81, 122
1, 29280, Note_on_c, 9, 42, 93
1, 29285, Note_on_c, 9, 35, 0
1, 29288, Note_on_c, 0, 66, 0
1, 29288, Note_on_c, 0, 38, 0
1, 29290, Note_on_c, 4, 38, 0
1, 29293, Note_on_c, 9, 42, 0
1, 29295, Note_on_c, 0, 62, 0
1, 29302, Note_on_c, 4, 45, 0
1, 29304, Note_on_c, 0, 66, 117
1, 29304, Note_on_c, 4, 38, 111
1, 29304, Note_on_c, 9, 35, 127
1, 29305, Note_on_c, 4, 54, 0
1, 29306, Note_on_c, 4, 38, 0
1, 29306, Note_on_c, 3, 81, 0
1, 29318, Note_on_c, 1, 38, 0
1, 29324, Note_on_c, 9, 35, 0
1, 29327, Note_on_c, 0, 50, 0
1, 29327, Note_on_c, 4, 50, 0
1, 29328, Note_on_c, 0, 50, 117
1, 29328, Note_on_c, 0, 62, 117
1, 29328, Note_on_c, 1, 38, 103
1, 29328, Note_on_c, 3, 81, 122
1, 29328, Note_on_c, 4, 45, 74
1, 29328, Note_on_c, 4, 50, 98
1, 29328, Note_on_c, 4, 54, 111
1, 29328, Note_on_c, 9, 38, 111
1, 29328, Note_on_c, 9, 42, 117
1, 29328, Note_on_c, 9, 54, 127
1, 29329, Note_on_c, 0, 50, 0
1, 29332, Note_on_c, 0, 57, 0
1, 29333, Note_on_c, 0, 66, 0
1, 29350, Note_on_c, 9, 42, 0
1, 29352, Note_on_c, 0, 57, 117
1, 29357, Note_on_c, 9, 54, 0
1, 29358, Note_on_c, 4, 50, 0
1, 29362, Note_on_c, 3, 81, 0
1, 29363, Note_on_c, 0, 62, 0
1, 29369, Note_on_c, 1, 38, 0
1, 29369, Note_on_c, 9, 38, 0
1, 29376, Note_on_c, 0, 38, 117
1, 29376, Note_on_c, 1, 38, 111
1, 29376, Note_on_c, 3, 84, 122
1, 29376, Note_on_c, 4, 38, 112
1, 29376, Note_on_c, 9, 35, 123
1, 29376, Note_on_c, 9, 42, 94
1, 29378, Note_on_c, 4, 54, 0
1, 29379, Note_on_c, 4, 45, 0
1, 29380, Note_on_c, 4, 38, 0
1, 29380, Note_on_c, 0, 57, 0
1, 29390, Note_on_c, 9, 42, 0
1, 29403, Pitch_bend_c, 3, 8738
1, 29407, Pitch_bend_c, 3, 10023
1, 29413, Note_on_c, 0, 38, 0
1, 29414, Pitch_bend_c, 3, 8192
1, 29416, Note_on_c, 9, 35, 0
1, 29420, Note_on_c, 3, 84, 0
1, 29424, Note_on_c, 0, 50, 117
1, 29424, Note_on_c, 0, 57, 117
1, 29424, Note_on_c, 0, 66, 117
1, 29424, Note_on_c, 3, 81, 122
1, 29424, Note_on_c, 4, 45, 98
1, 29424, Note_on_c, 4, 50, 81
1, 29424, Note_on_c, 4, 54, 108
1, 29424, Note_on_c, 9, 38, 117
1, 29424, Note_on_c, 9, 42, 117
1, 29424, Note_on_c, 9, 54, 127
1, 29432, Note_on_c, 0, 50, 0
1, 29433, Note_on_c, 1, 38, 0
1, 29446, Note_on_c, 9, 38, 0
1, 29446, Note_on_c, 9, 42, 0
1, 29448, Note_on_c, 0, 62, 117
1, 29448, Note_on_c, 1, 38, 106
1, 29448, Note_on_c, 9, 35, 118
1, 29454, Note_on_c, 3, 81, 0
1, 29456, Note_on_c, 0, 57, 0
1, 29456, Note_on_c, 0, 66, 0
1, 29457, Note_on_c, 9, 54, 0
1, 29472, Note_on_c, 9, 35, 0
1, 29472, Note_on_c, 0, 38, 117
1, 29472, Note_on_c, 3, 84, 122
1, 29472, Note_on_c, 9, 42, 100
1, 29479, Note_on_c, 4, 50, 0
1, 29489, Note_on_c, 4, 45, 0
1, 29489, Note_on_c, 0, 62, 0
1, 29496, Note_on_c, 9, 42, 0
1, 29496, Note_on_c, 0, 57, 82
1, 29496, Note_on_c, 0, 66, 117
1, 29496, Note_on_c, 4, 38, 103
1, 29496, Note_on_c, 9, 35, 127
1, 29499, Note_on_c, 4, 38, 0
1, 29500, Note_on_c, 3, 84, 0
1, 29501, Note_on_c, 1, 38, 0
1, 29503, Note_on_c, 4, 54, 0
1, 29516, Note_on_c, 9, 35, 0
1, 29520, Note_on_c, 0, 50, 117
1, 29520, Note_on_c, 0, 62, 117
1, 29520, Note_on_c, 1, 38, 98
1, 29520, Note_on_c, 3, 84, 122
1, 29520, Note_on_c, 4, 45, 96
1, 29520, Note_on_c, 4, 50, 96
1, 29520, Note_on_c, 4, 54, 112
1, 29520, Note_on_c, 9, 38, 108
1, 29520, Note_on_c, 9, 42, 117
1, 29520, Note_on_c, 9, 54, 127
1, 29521, Note_on_c, 0, 38, 0
1, 29523, Note_on_c, 0, 66, 0
1, 29532, Note_on_c, 0, 57, 0
1, 29539, Note_on_c, 0, 50, 0
1, 29541, Note_on_c, 9, 54, 0
1, 29544, Note_on_c, 0, 57, 117
1, 29546, Note_on_c, 9, 42, 0
1, 29552, Note_on_c, 0, 62, 0
1, 29552, Pitch_bend_c, 3, 9412
1, 29557, Pitch_bend_c, 3, 12978
1, 29558, Note_on_c, 4, 50, 0
1, 29561, Pitch_bend_c, 3, 14327
1, 29564, Note_on_c, 4, 54, 0
1, 29564, Note_on_c, 9, 38, 0
1, 29565, Pitch_bend_c, 3, 13524
1, 29566, Note_on_c, 4, 45, 0
1, 29567, Note_on_c, 2, 50, 0
1, 29568, Note_on_c, 0, 33, 117
1, 29568, Note_on_c, 0, 45, 117
1, 29568, Note_on_c, 1, 33, 112
1, 29568, Note_on_c, 2, 45, 92
1, 29568, Note_on_c, 2, 52, 91
1, 29568, Note_on_c, 3, 81, 122
1, 29568, Note_on_c, 4, 33, 112
1, 29568, Note_on_c, 9, 35, 125
1, 29568, Note_on_c, 9, 45, 117
1, 29568, Note_on_c, 9, 54, 97
1, 29569, Note_on_c, 1, 38, 0
1, 29570, Note_on_c, 3, 84, 0
1, 29570, Pitch_bend_c, 3, 8192
1, 29575, Note_on_c, 0, 45, 0
1, 29585, Note_on_c, 9, 54, 0
1, 29592, Note_on_c, 9, 54, 112
1, 29603, Note_on_c, 1, 33, 0
1, 29606, Note_on_c, 9, 35, 0
1, 29608, Note_on_c, 0, 57, 0
1, 29612, Note_on_c, 9, 54, 0
1, 29616, Note_on_c, 0, 45, 117
1, 29616, Note_on_c, 0, 57, 117
1, 29616, Note_on_c, 0, 69, 117
1, 29616, Note_on_c, 1, 33, 108
1, 29616, Note_on_c, 4, 45, 96
1, 29616, Note_on_c, 4, 52, 111
1, 29616, Note_on_c, 4, 57, 106
1, 29616, Note_on_c, 5, 81, 127
1, 29616, Note_on_c, 9, 38, 117
1, 29616, Note_on_c, 9, 42, 117
1, 29616, Note_on_c, 9, 54, 127
1, 29624, Note_on_c, 0, 33, 0
1, 29629, Note_on_c, 9, 54, 0
1, 29629, Note_on_c, 4, 33, 0
1, 29634, Note_on_c, 9, 45, 0
1, 29637, Note_on_c, 5, 81, 0
1, 29639, Note_on_c, 9, 38, 0
1, 29640, Note_on_c, 0, 64, 117
1, 29640, Note_on_c, 4, 33, 112
1, 29640, Note_on_c, 9, 35, 127
1, 29640, Note_on_c, 9, 43, 117
1, 29640, Note_on_c, 9, 54, 110
1, 29650, Note_on_c, 1, 33, 0
1, 29650, Note_on_c, 9, 42, 0
1, 29659, Note_on_c, 9, 54, 0
1, 29659, Note_on_c, 4, 33, 0
1, 29663, Note_on_c, 4, 45, 0
1, 29664, Note_on_c, 0, 33, 117
1, 29664, Note_on_c, 0, 61, 103
1, 29664, Note_on_c, 1, 33, 112
1, 29664, Note_on_c, 4, 45, 101
1, 29664, Note_on_c, 5, 69, 109
1, 29664, Note_on_c, 5, 81, 127
1, 29664, Note_on_c, 9, 54, 94
1, 29666, Note_on_c, 9, 35, 0
1, 29672, Note_on_c, 0, 64, 0
1, 29673, Note_on_c, 0, 33, 0
1, 29676, Note_on_c, 0, 69, 0
1, 29677, Note_on_c, 9, 54, 0
1, 29679, Note_on_c, 5, 69, 0
1, 29683, Note_on_c, 5, 81, 0
1, 29684, Note_on_c, 4, 45, 0
1, 29688, Note_on_c, 0, 69, 117
1, 29688, Note_on_c, 9, 35, 127
1, 29688, Note_on_c, 9, 54, 115
1, 29689, Note_on_c, 4, 52, 0
1, 29694, Note_on_c, 1, 33, 0
1, 29702, Note_on_c, 0, 61, 0
1, 29703, Note_on_c, 9, 54, 0
1, 29711, Note_on_c, 0, 45, 0
1, 29711, Note_on_c, 9, 35, 0
1, 29712, Note_on_c, 0, 35, 105
1, 29712, Note_on_c, 0, 45, 117
1, 29712, Note_on_c, 0, 64, 116
1, 29712, Note_on_c, 1, 33, 112
1, 29712, Note_on_c, 4, 33, 112
1, 29712, Note_on_c, 4, 52, 5
1, 29712, Note_on_c, 5, 69, 109
1, 29712, Note_on_c, 5, 81, 127
1, 29712, Note_on_c, 9, 38, 116
1, 29712, Note_on_c, 9, 42, 117
1, 29712, Note_on_c, 9, 54, 127
1, 29713, Note_on_c, 4, 57, 0
1, 29714, Note_on_c, 0, 45, 0
1, 29718, Note_on_c, 0, 35, 0
1, 29727, Note_on_c, 0, 69, 0
1, 29731, Note_on_c, 4, 52, 0
1, 29732, Note_on_c, 9, 54, 0
1, 29735, Note_on_c, 0, 57, 0
1, 29736, Note_on_c, 0, 57, 117
1, 29736, Note_on_c, 4, 52, 85
1, 29736, Note_on_c, 4, 57, 94
1, 29736, Note_on_c, 9, 54, 107
1, 29737, Note_on_c, 0, 64, 0
1, 29738, Note_on_c, 9, 43, 0
1, 29739, Note_on_c, 5, 69, 0
1, 29741, Control_c, 3, 1, 14
1, 29742, Note_on_c, 5, 81, 0
1, 29745, Note_on_c, 9, 42, 0
1, 29751, Control_c, 3, 1, 45
1, 29753, Note_on_c, 1, 33, 0
1, 29754, Note_on_c, 4, 33, 0
1, 29754, Note_on_c, 9, 38, 0
1, 29755, Note_on_c, 9, 54, 0
1, 29760, Note_on_c, 0, 33, 117
1, 29760, Note_on_c, 0, 69, 117
1, 29760, Note_on_c, 1, 33, 112
1, 29760, Note_on_c, 4, 33, 112
1, 29760, Note_on_c, 4, 45, 59
1, 29760, Note_on_c, 5, 72, 109
1, 29760, Note_on_c, 5, 84, 121
1, 29760, Note_on_c, 9, 35, 127
1, 29760, Note_on_c, 9, 45, 117
1, 29760, Note_on_c, 9, 54, 92
1, 29761, Control_c, 3, 1, 72
1, 29768, Note_on_c, 0, 57, 0
1, 29769, Control_c, 3, 1, 84
1, 29771, Note_on_c, 4, 45, 0
1, 29775, Note_on_c, 1, 33, 0
1, 29776, Note_on_c, 4, 52, 0
1, 29777, Control_c, 3, 1, 93
1, 29778, Note_on_c, 9, 54, 0
1, 29784, Note_on_c, 0, 64, 117
1, 29784, Note_on_c, 1, 33, 103
1, 29784, Note_on_c, 4, 45, 112
1, 29784, Note_on_c, 9, 54, 105
1, 29787, Control_c, 3, 1, 102
1, 29788, Note_on_c, 5, 72, 0
1, 29790, Note_on_c, 4, 45, 0
1, 29795, Control_c, 3, 1, 107
1, 29796, Note_on_c, 0, 69, 0
1, 29799, Note_on_c, 9, 35, 0
1, 29802, Note_on_c, 5, 84, 0
1, 29803, Note_on_c, 9, 54, 0
1, 29804, Note_on_c, 4, 33, 0
1, 29804, Control_c, 3, 1, 70
1, 29807, Note_on_c, 0, 33, 0
1, 29807, Note_on_c, 4, 57, 0
1, 29808, Note_on_c, 0, 45, 117
1, 29808, Note_on_c, 0, 57, 117
1, 29808, Note_on_c, 3, 79, 118
1, 29808, Note_on_c, 4, 52, 71
1, 29808, Note_on_c, 4, 57, 85
1, 29808, Note_on_c, 5, 69, 116
1, 29808, Note_on_c, 5, 81, 125
1, 29808, Note_on_c, 9, 38, 117
1, 29808, Note_on_c, 9, 42, 117
1, 29808, Note_on_c, 9, 54, 126
1, 29811, Note_on_c, 0, 64, 0
1, 29812, Control_c, 3, 1, 0
1, 29817, Note_on_c, 3, 81, 0
1, 29824, Note_on_c, 9, 54, 0
1, 29825, Note_on_c, 3, 79, 0
1, 29831, Note_on_c, 5, 81, 0
1, 29832, Note_on_c, 9, 45, 0
1, 29832, Note_on_c, 0, 69, 117
1, 29832, Note_on_c, 3, 76, 76
1, 29832, Note_on_c, 4, 33, 111
1, 29832, Note_on_c, 9, 35, 113
1, 29832, Note_on_c, 9, 43, 117
1, 29832, Note_on_c, 9, 54, 102
1, 29834, Note_on_c, 5, 69, 0
1, 29836, Note_on_c, 4, 57, 0
1, 29837, Note_on_c, 9, 38, 0
1, 29837, Note_on_c, 1, 33, 0
1, 29841, Note_on_c, 9, 42, 0
1, 29847, Note_on_c, 0, 57, 0
1, 29850, Note_on_c, 9, 54, 0
1, 29856, Note_on_c, 0, 33, 117
1, 29856, Note_on_c, 0, 64, 117
1, 29856, Note_on_c, 1, 33, 112
1, 29856, Note_on_c, 3, 75, 122
1, 29856, Note_on_c, 4, 45, 112
1, 29856, Note_on_c, 5, 69, 127
1, 29856, Note_on_c, 5, 81, 127
1, 29856, Note_on_c, 9, 54, 82
1, 29857, Note_on_c, 3, 76, 0
1, 29859, Note_on_c, 9, 35, 0
1, 29861, Note_on_c, 0, 33, 0
1, 29862, Note_on_c, 4, 52, 0
1, 29865, Note_on_c, 0, 69, 0
1, 29871, Note_on_c, 4, 33, 0
1, 29871, Note_on_c, 4, 45, 0
1, 29874, Note_on_c, 9, 54, 0
1, 29879, Note_on_c, 2, 45, 0
1, 29880, Note_on_c, 3, 75, 0
1, 29880, Note_on_c, 0, 57, 117
1, 29880, Note_on_c, 2, 45, 95
1, 29880, Note_on_c, 3, 74, 113
1, 29880, Note_on_c, 4, 33, 112
1, 29880, Note_on_c, 9, 35, 127
1, 29880, Note_on_c, 9, 54, 100
1, 29883, Note_on_c, 0, 64, 0
1, 29891, Note_on_c, 1, 33, 0
1, 29893, Note_on_c, 2, 45, 0
1, 29894, Note_on_c, 5, 69, 0
1, 29896, Note_on_c, 3, 74, 0
1, 29898, Note_on_c, 5, 81, 0
1, 29898, Note_on_c, 9, 54, 0
1, 29902, Note_on_c, 0, 45, 0
1, 29903, Note_on_c, 9, 43, 0
1, 29903, Note_on_c, 2, 57, 0
1, 29904, Note_on_c, 0, 45, 117
1, 29904, Note_on_c, 0, 64, 117
1, 29904, Note_on_c, 0, 67, 117
1, 29904, Note_on_c, 0, 69, 117
1, 29904, Note_on_c, 1, 33, 111
1, 29904, Note_on_c, 2, 57, 92
1, 29904, Note_on_c, 4, 52, 108
1, 29904, Note_on_c, 4, 57, 110
1, 29904, Note_on_c, 5, 67, 123
1, 29904, Note_on_c, 5, 79, 127
1, 29904, Note_on_c, 9, 42, 117
1, 29904, Note_on_c, 9, 45, 117
1, 29904, Note_on_c, 9, 54, 127
1, 29912, Note_on_c, 2, 57, 0
1, 29914, Note_on_c, 4, 57, 0
1, 29916, Note_on_c, 0, 45, 0
1, 29918, Note_on_c, 9, 35, 0
1, 29921, Note_on_c, 9, 54, 0
1, 29923, Note_on_c, 0, 67, 0
1, 29925, Note_on_c, 9, 45, 0
1, 29925, Note_on_c, 0, 69, 0
1, 29926, Note_on_c, 0, 64, 0
1, 29928, Note_on_c, 2, 45, 86
1, 29928, Note_on_c, 4, 45, 77
1, 29928, Note_on_c, 9, 35, 123
1, 29928, Note_on_c, 9, 54, 102
1, 29929, Note_on_c, 0, 57, 0
1, 29933, Note_on_c, 9, 42, 0
1, 29933, Note_on_c, 4, 33, 0
1, 29933, Note_on_c, 4, 52, 0
1, 29934, Note_on_c, 1, 33, 0
1, 29934, Note_on_c, 4, 45, 0
1, 29935, Note_on_c, 2, 45, 0
1, 29936, Note_on_c, 5, 79, 0
1, 29942, Note_on_c, 9, 54, 0
1, 29952, Note_on_c, 0, 45, 117
1, 29952, Note_on_c, 0, 57, 117
1, 29952, Note_on_c, 0, 64, 117
1, 29952, Note_on_c, 0, 69, 117
1, 29952, Note_on_c, 3, 69, 122
1, 29952, Note_on_c, 4, 33, 112
1, 29952, Note_on_c, 4, 52, 112
1, 29952, Note_on_c, 4, 57, 108
1, 29952, Note_on_c, 5, 69, 127
1, 29952, Note_on_c, 5, 81, 127
1, 29952, Note_on_c, 9, 38, 117
1, 29954, Note_on_c, 5, 67, 0
1, 29954, Note_on_c, 9, 35, 0
1, 29958, Note_on_c, 9, 38, 0
1, 29961, Note_on_c, 9, 38, 117
1, 29962, Note_on_c, 2, 52, 0
1, 29983, Note_on_c, 0, 64, 0
1, 29984, Note_on_c, 0, 57, 0
1, 29985, Note_on_c, 9, 38, 0
1, 29987, Note_on_c, 3, 69, 0
1, 29988, Note_on_c, 0, 69, 0
1, 29990, Note_on_c, 4, 57, 0
1, 29991, Note_on_c, 0, 45, 0
1, 29992, Note_on_c, 5, 69, 0
1, 29994, Note_on_c, 4, 52, 0
1, 30000, Note_on_c, 5, 81, 0
1, 30000, Note_on_c, 1, 38, 112
1, 30000, Note_on_c, 2, 50, 95
1, 30000, Note_on_c, 2, 54, 95
1, 30000, Note_on_c, 2, 57, 98
1, 30000, Note_on_c, 2, 62, 98
1, 30000, Note_on_c, 2, 66, 95
1, 30000, Note_on_c, 3, 62, 122
1, 30000, Note_on_c, 5, 62, 126
1, 30000, Note_on_c, 5, 74, 127
1, 30000, Note_on_c, 9, 38, 117
1, 30005, Note_on_c, 4, 33, 0
1, 30005, Note_on_c, 9, 41, 117
1, 30024, Note_on_c, 2, 53, 94
1, 30031, Note_on_c, 5, 62, 0
1, 30031, Note_on_c, 2, 54, 0
1, 30034, Note_on_c, 2, 57, 0
1, 30034, Note_on_c, 2, 50, 0
1, 30035, Note_on_c, 1, 38, 0
1, 30036, Note_on_c, 3, 62, 0
1, 30036, Note_on_c, 5, 74, 0
1, 30037, Note_on_c, 2, 66, 0
1, 30037, Note_on_c, 2, 53, 0
1, 30039, Note_on_c, 2, 62, 0
1, 30048, Note_on_c, 1, 38, 112
1, 30048, Note_on_c, 2, 50, 91
1, 30048, Note_on_c, 2, 54, 99
1, 30048, Note_on_c, 2, 57, 99
1, 30048, Note_on_c, 2, 62, 99
1, 30048, Note_on_c, 2, 66, 99
1, 30048, Note_on_c, 3, 62, 122
1, 30048, Note_on_c, 5, 62, 123
1, 30048, Note_on_c, 5, 74, 127
1, 30065, Note_on_c, 9, 38, 0
1, 30073, Note_on_c, 9, 41, 0
1, 30077, Note_on_c, 2, 57, 0
1, 30078, Note_on_c, 3, 62, 0
1, 30078, Note_on_c, 2, 50, 0
1, 30080, Note_on_c, 5, 74, 0
1, 30080, Note_on_c, 1, 38, 0
1, 30082, Note_on_c, 2, 54, 0
1, 30083, Note_on_c, 2, 62, 0
1, 30083, Note_on_c, 2, 66, 0
1, 30096, Note_on_c, 1, 38, 112
1, 30096, Note_on_c, 2, 50, 93
1, 30096, Note_on_c, 2, 54, 94
1, 30096, Note_on_c, 2, 57, 98
1, 30096, Note_on_c, 2, 62, 96
1, 30096, Note_on_c, 2, 66, 95
1, 30096, Note_on_c, 3, 62, 122
1, 30096, Note_on_c, 5, 74, 127
1, 30096, Note_on_c, 9, 38, 117
1, 30096, Note_on_c, 9, 41, 117
1, 30119, Note_on_c, 9, 41, 0
1, 30119, Note_on_c, 9, 38, 0
1, 30124, Note_on_c, 2, 57, 0
1, 30131, Note_on_c, 2, 62, 0
1, 30133, Note_on_c, 2, 50, 0
1, 30135, Note_on_c, 5, 74, 0
1, 30137, Note_on_c, 2, 54, 0
1, 30137, Note_on_c, 2, 66, 0
1, 30139, Note_on_c, 1, 38, 0
1, 30139, Note_on_c, 5, 62, 0
1, 30144, Note_on_c, 3, 62, 0
1, 30144, Note_on_c, 1, 31, 112
1, 30144, Note_on_c, 2, 50, 94
1, 30144, Note_on_c, 2, 55, 99
1, 30144, Note_on_c, 2, 59, 99
1, 30144, Note_on_c, 2, 62, 99
1, 30144, Note_on_c, 2, 66, 89
1, 30144, Note_on_c, 2, 67, 97
1, 30144, Note_on_c, 3, 65, 122
1, 30144, Note_on_c, 5, 65, 127
1, 30144, Note_on_c, 5, 77, 127
1, 30144, Note_on_c, 9, 38, 117
1, 30144, Note_on_c, 9, 43, 117
1, 30147, Note_on_c, 2, 66, 0
1, 30150, Pitch_bend_c, 3, 7645
1, 30154, Pitch_bend_c, 3, 6328
1, 30159, Pitch_bend_c, 3, 3662
1, 30163, Pitch_bend_c, 3, 2602
1, 30166, Note_on_c, 9, 38, 0
1, 30166, Note_on_c, 9, 43, 0
1, 30168, Pitch_bend_c, 3, 4722
1, 30172, Pitch_bend_c, 3, 8192
1, 30175, Note_on_c, 1, 31, 0
1, 30176, Note_on_c, 2, 59, 0
1, 30179, Note_on_c, 2, 50, 0
1, 30180, Note_on_c, 2, 55, 0
1, 30180, Note_on_c, 2, 62, 0
1, 30182, Note_on_c, 2, 67, 0
1, 30184, Note_on_c, 5, 65, 0
1, 30184, Note_on_c, 5, 77, 0
1, 30185, Note_on_c, 3, 65, 0
1, 30192, Note_on_c, 1, 31, 112
1, 30192, Note_on_c, 2, 50, 94
1, 30192, Note_on_c, 2, 55, 98
1, 30192, Note_on_c, 2, 59, 94
1, 30192, Note_on_c, 2, 62, 97
1, 30192, Note_on_c, 2, 66, 90
1, 30192, Note_on_c, 2, 67, 98
1, 30192, Note_on_c, 3, 62, 122
1, 30192, Note_on_c, 5, 62, 121
1, 30192, Note_on_c, 5, 74, 126
1, 30192, Note_on_c, 9, 38, 117
1, 30192, Note_on_c, 9, 45, 117
1, 30196, Note_on_c, 2, 66, 0
1, 30211, Note_on_c, 9, 38, 0
1, 30211, Note_on_c, 9, 45, 0
1, 30221, Note_on_c, 2, 59, 0
1, 30223, Note_on_c, 2, 50, 0
1, 30224, Note_on_c, 2, 62, 0
1, 30225, Note_on_c, 2, 67, 0
1, 30226, Note_on_c, 2, 55, 0
1, 30228, Note_on_c, 5, 74, 0
1, 30232, Note_on_c, 1, 31, 0
1, 30233, Note_on_c, 3, 62, 0
1, 30240, Note_on_c, 1, 33, 112
1, 30240, Note_on_c, 2, 50, 91
1, 30240, Note_on_c, 2, 55, 97
1, 30240, Note_on_c, 2, 59, 99
1, 30240, Note_on_c, 2, 62, 99
1, 30240, Note_on_c, 2, 66, 93
1, 30240, Note_on_c, 2, 67, 98
1, 30240, Note_on_c, 3, 65, 122
1, 30240, Note_on_c, 5, 65, 127
1, 30240, Note_on_c, 5, 77, 126
1, 30240, Note_on_c, 9, 38, 117
1, 30240, Note_on_c, 9, 43, 117
1, 30244, Note_on_c, 2, 66, 0
1, 30246, Note_on_c, 5, 62, 0
1, 30259, Note_on_c, 9, 43, 0
1, 30260, Note_on_c, 9, 38, 0
1, 30265, Note_on_c, 2, 50, 0
1, 30270, Note_on_c, 5, 65, 0
1, 30270, Note_on_c, 2, 59, 0
1, 30272, Note_on_c, 3, 65, 0
1, 30272, Note_on_c, 2, 67, 0
1, 30272, Note_on_c, 2, 62, 0
1, 30273, Note_on_c, 2, 55, 0
1, 30273, Note_on_c, 5, 77, 0
1, 30282, Note_on_c, 1, 33, 0
1, 30288, Note_on_c, 1, 35, 112
1, 30288, Note_on_c, 2, 50, 95
1, 30288, Note_on_c, 2, 55, 95
1, 30288, Note_on_c, 2, 59, 97
1, 30288, Note_on_c, 2, 62, 97
1, 30288, Note_on_c, 2, 67, 99
1, 30288, Note_on_c, 3, 65, 122
1, 30288, Note_on_c, 5, 65, 127
1, 30288, Note_on_c, 5, 77, 127
1, 30288, Note_on_c, 9, 38, 117
1, 30304, Note_on_c, 9, 38, 0
1, 30313, Note_on_c, 2, 59, 0
1, 30321, Note_on_c, 2, 50, 0
1, 30321, Note_on_c, 2, 62, 0
1, 30327, Note_on_c, 2, 55, 0
1, 30330, Note_on_c, 3, 65, 0
1, 30334, Note_on_c, 1, 35, 0
1, 30336, Note_on_c, 1, 38, 112
1, 30336, Note_on_c, 2, 50, 94
1, 30336, Note_on_c, 2, 54, 99
1, 30336, Note_on_c, 2, 55, 91
1, 30336, Note_on_c, 2, 57, 99
1, 30336, Note_on_c, 2, 62, 99
1, 30336, Note_on_c, 2, 66, 99
1, 30336, Note_on_c, 3, 62, 122
1, 30336, Note_on_c, 5, 62, 127
1, 30336, Note_on_c, 5, 74, 127
1, 30336, Note_on_c, 9, 38, 117
1, 30337, Note_on_c, 5, 77, 0
1, 30342, Note_on_c, 9, 38, 0
1, 30343, Note_on_c, 2, 55, 0
1, 30345, Note_on_c, 2, 67, 0
1, 30345, Note_on_c, 9, 38, 115
1, 30346, Note_on_c, 5, 65, 0
1, 30384, Note_on_c, 2, 50, 0
1, 30385, Note_on_c, 2, 54, 0
1, 30385, Note_on_c, 5, 62, 0
1, 30386, Note_on_c, 5, 74, 0
1, 30387, Note_on_c, 2, 62, 0
1, 30387, Note_on_c, 2, 57, 0
1, 30387, Note_on_c, 2, 66, 0
1, 30389, Note_on_c, 1, 38, 0
1, 30393, Note_on_c, 3, 62, 0
1, 30405, Note_on_c, 9, 38, 0
1, 30720, Control_c, 0, 120, 0
1, 30721, Control_c, 0, 123, 0
1, 30722, Control_c, 1, 120, 0
1, 30723, Control_c, 1, 123, 0
1, 30724, Control_c, 2, 120, 0
1, 30725, Control_c, 2, 123, 0
1, 30726, Control_c, 3, 120, 0
1, 30727, Control_c, 3, 123, 0
1, 30728, Control_c, 4, 120, 0
1, 30729, Control_c, 4, 123, 0
1, 30730, Control_c, 5, 120, 0
1, 30731, Control_c, 5, 123, 0
1, 30732, Control_c, 6, 120, 0
1, 30733, Control_c, 6, 123, 0
1, 30738, Control_c, 9, 120, 0
1, 30739, Control_c, 9, 123, 0
1, 30739, End_track
0, 0, End_of_file
