0, 0, Header, 1, 19, 192
1, 0, Start_track
1, 0, Time_signature, 4, 2, 24, 8
1, 0, Tempo, 750000
1, 0, Key_signature, 0, "major"
1, 57600, Tempo, 759493
1, 58080, Tempo, 769230
1, 58536, Tempo, 779220
1, 58992, Tempo, 789473
1, 59448, Tempo, 800000
1, 59448, End_track
2, 0, Start_track
2, 0, MIDI_port, 0
2, 0, Title_t, "George Harrison     "
2, 0, End_track
3, 0, Start_track
3, 0, MIDI_port, 0
3, 0, Title_t, "Sequenced GM by     "
3, 0, End_track
4, 0, Start_track
4, 0, MIDI_port, 0
4, 0, Title_t, "John Signorelli     "
4, 0, End_track
5, 0, Start_track
5, 0, MIDI_port, 0
5, 0, Title_t, "bass                "
5, 0, Program_c, 1, 35
5, 0, Control_c, 1, 7, 125
5, 1536, Note_on_c, 1, 41, 127
5, 1780, Note_off_c, 1, 41, 64
5, 1824, Note_on_c, 1, 41, 127
5, 1888, Note_off_c, 1, 41, 64
5, 1920, Note_on_c, 1, 39, 127
5, 2112, Note_off_c, 1, 39, 64
5, 2112, Note_on_c, 1, 38, 127
5, 2304, Note_off_c, 1, 38, 64
5, 2304, Note_on_c, 1, 36, 127
5, 2560, Note_off_c, 1, 36, 64
5, 2592, Note_on_c, 1, 36, 127
5, 2689, Note_off_c, 1, 36, 64
5, 2689, Note_on_c, 1, 43, 127
5, 2934, Note_off_c, 1, 43, 64
5, 2976, Note_on_c, 1, 43, 127
5, 3072, Note_off_c, 1, 43, 64
5, 3072, Note_on_c, 1, 36, 127
5, 3328, Note_off_c, 1, 36, 64
5, 3360, Note_on_c, 1, 36, 127
5, 3457, Note_off_c, 1, 36, 64
5, 3457, Note_on_c, 1, 43, 127
5, 3702, Note_off_c, 1, 43, 64
5, 3744, Note_on_c, 1, 43, 127
5, 3840, Note_off_c, 1, 43, 64
5, 3840, Note_on_c, 1, 36, 127
5, 4094, Note_off_c, 1, 36, 64
5, 4128, Note_on_c, 1, 36, 127
5, 4224, Note_off_c, 1, 36, 64
5, 4224, Note_on_c, 1, 43, 127
5, 4484, Note_off_c, 1, 43, 64
5, 4512, Note_on_c, 1, 43, 127
5, 4579, Note_off_c, 1, 43, 64
5, 4608, Note_on_c, 1, 41, 127
5, 4859, Note_off_c, 1, 41, 64
5, 4896, Note_on_c, 1, 41, 127
5, 4971, Note_off_c, 1, 41, 64
5, 4992, Note_on_c, 1, 41, 127
5, 5166, Note_off_c, 1, 41, 64
5, 5184, Note_on_c, 1, 40, 127
5, 5358, Note_off_c, 1, 40, 64
5, 5376, Note_on_c, 1, 38, 127
5, 5617, Note_off_c, 1, 38, 64
5, 5664, Note_on_c, 1, 38, 127
5, 5726, Note_off_c, 1, 38, 64
5, 5760, Note_on_c, 1, 33, 127
5, 5947, Note_off_c, 1, 33, 64
5, 5952, Note_on_c, 1, 38, 127
5, 6083, Note_off_c, 1, 38, 64
5, 6144, Note_on_c, 1, 43, 127
5, 6318, Note_off_c, 1, 43, 64
5, 6336, Note_on_c, 1, 33, 127
5, 6510, Note_off_c, 1, 33, 64
5, 6528, Note_on_c, 1, 35, 127
5, 6780, Note_off_c, 1, 35, 64
5, 6816, Note_on_c, 1, 35, 127
5, 6912, Note_off_c, 1, 35, 64
5, 6912, Note_on_c, 1, 33, 127
5, 7156, Note_off_c, 1, 33, 64
5, 7200, Note_on_c, 1, 33, 127
5, 7264, Note_off_c, 1, 33, 64
5, 7296, Note_on_c, 1, 44, 127
5, 7449, Note_off_c, 1, 44, 64
5, 7488, Note_on_c, 1, 44, 127
5, 7611, Note_off_c, 1, 44, 64
5, 7680, Note_on_c, 1, 43, 127
5, 7929, Note_off_c, 1, 43, 64
5, 7968, Note_on_c, 1, 43, 127
5, 8025, Note_off_c, 1, 43, 64
5, 8064, Note_on_c, 1, 38, 127
5, 8313, Note_off_c, 1, 38, 64
5, 8352, Note_on_c, 1, 38, 127
5, 8409, Note_off_c, 1, 38, 64
5, 8448, Note_on_c, 1, 41, 127
5, 8736, Note_on_c, 1, 36, 127
5, 8750, Note_off_c, 1, 41, 64
5, 8796, Note_off_c, 1, 36, 64
5, 8832, Note_on_c, 1, 39, 127
5, 9006, Note_off_c, 1, 39, 64
5, 9024, Note_on_c, 1, 38, 127
5, 9198, Note_off_c, 1, 38, 64
5, 9216, Note_on_c, 1, 36, 127
5, 9472, Note_off_c, 1, 36, 64
5, 9504, Note_on_c, 1, 36, 127
5, 9601, Note_off_c, 1, 36, 64
5, 9601, Note_on_c, 1, 43, 127
5, 9846, Note_off_c, 1, 43, 64
5, 9888, Note_on_c, 1, 43, 127
5, 9984, Note_off_c, 1, 43, 64
5, 9984, Note_on_c, 1, 36, 127
5, 10240, Note_off_c, 1, 36, 64
5, 10272, Note_on_c, 1, 36, 127
5, 10369, Note_off_c, 1, 36, 64
5, 10369, Note_on_c, 1, 43, 127
5, 10614, Note_off_c, 1, 43, 64
5, 10656, Note_on_c, 1, 43, 127
5, 10752, Note_off_c, 1, 43, 64
5, 10752, Note_on_c, 1, 36, 127
5, 11006, Note_off_c, 1, 36, 64
5, 11040, Note_on_c, 1, 36, 127
5, 11136, Note_off_c, 1, 36, 64
5, 11136, Note_on_c, 1, 43, 127
5, 11396, Note_off_c, 1, 43, 64
5, 11424, Note_on_c, 1, 43, 127
5, 11491, Note_off_c, 1, 43, 64
5, 11520, Note_on_c, 1, 41, 127
5, 11772, Note_off_c, 1, 41, 64
5, 11808, Note_on_c, 1, 41, 127
5, 11904, Note_off_c, 1, 41, 64
5, 11904, Note_on_c, 1, 41, 127
5, 12078, Note_off_c, 1, 41, 64
5, 12096, Note_on_c, 1, 40, 127
5, 12270, Note_off_c, 1, 40, 64
5, 12288, Note_on_c, 1, 38, 127
5, 12576, Note_on_c, 1, 33, 127
5, 12582, Note_off_c, 1, 38, 64
5, 12672, Note_off_c, 1, 33, 64
5, 12672, Note_on_c, 1, 38, 127
5, 12713, Note_off_c, 1, 38, 64
5, 12768, Note_on_c, 1, 38, 127
5, 12822, Note_off_c, 1, 38, 64
5, 12864, Note_on_c, 1, 38, 127
5, 12947, Note_off_c, 1, 38, 64
5, 12960, Note_on_c, 1, 33, 127
5, 13044, Note_off_c, 1, 33, 64
5, 13056, Note_on_c, 1, 43, 127
5, 13230, Note_off_c, 1, 43, 64
5, 13248, Note_on_c, 1, 33, 127
5, 13422, Note_off_c, 1, 33, 64
5, 13440, Note_on_c, 1, 35, 127
5, 13728, Note_on_c, 1, 38, 127
5, 13742, Note_off_c, 1, 35, 64
5, 13788, Note_off_c, 1, 38, 64
5, 13824, Note_on_c, 1, 33, 127
5, 14073, Note_off_c, 1, 33, 64
5, 14112, Note_on_c, 1, 33, 127
5, 14169, Note_off_c, 1, 33, 64
5, 14208, Note_on_c, 1, 44, 127
5, 14452, Note_off_c, 1, 44, 64
5, 14496, Note_on_c, 1, 44, 127
5, 14560, Note_off_c, 1, 44, 64
5, 14592, Note_on_c, 1, 43, 127
5, 14745, Note_off_c, 1, 43, 64
5, 14784, Note_on_c, 1, 43, 127
5, 14907, Note_off_c, 1, 43, 64
5, 14976, Note_on_c, 1, 38, 127
5, 15129, Note_off_c, 1, 38, 64
5, 15168, Note_on_c, 1, 38, 127
5, 15291, Note_off_c, 1, 38, 64
5, 15360, Note_on_c, 1, 41, 127
5, 15612, Note_off_c, 1, 41, 64
5, 15648, Note_on_c, 1, 41, 127
5, 15744, Note_off_c, 1, 41, 64
5, 15744, Note_on_c, 1, 39, 127
5, 15918, Note_off_c, 1, 39, 64
5, 15936, Note_on_c, 1, 38, 127
5, 16110, Note_off_c, 1, 38, 64
5, 16128, Note_on_c, 1, 33, 127
5, 16416, Note_on_c, 1, 40, 127
5, 16425, Note_off_c, 1, 33, 64
5, 16502, Note_off_c, 1, 40, 64
5, 16512, Note_on_c, 1, 33, 127
5, 16697, Note_off_c, 1, 33, 64
5, 16704, Note_on_c, 1, 33, 127
5, 16792, Note_off_c, 1, 33, 64
5, 16896, Note_on_c, 1, 33, 127
5, 17147, Note_off_c, 1, 33, 64
5, 17184, Note_on_c, 1, 33, 127
5, 17259, Note_off_c, 1, 33, 64
5, 17280, Note_on_c, 1, 44, 127
5, 17531, Note_off_c, 1, 44, 64
5, 17568, Note_on_c, 1, 44, 127
5, 17643, Note_off_c, 1, 44, 64
5, 17664, Note_on_c, 1, 42, 127
5, 17952, Note_on_c, 1, 37, 127
5, 17966, Note_off_c, 1, 42, 64
5, 18012, Note_off_c, 1, 37, 64
5, 18048, Note_on_c, 1, 40, 127
5, 18299, Note_off_c, 1, 40, 64
5, 18336, Note_on_c, 1, 40, 127
5, 18411, Note_off_c, 1, 40, 64
5, 18432, Note_on_c, 1, 38, 127
5, 18684, Note_off_c, 1, 38, 64
5, 18720, Note_on_c, 1, 38, 127
5, 18816, Note_off_c, 1, 38, 64
5, 18816, Note_on_c, 1, 43, 127
5, 19068, Note_off_c, 1, 43, 64
5, 19104, Note_on_c, 1, 43, 127
5, 19200, Note_off_c, 1, 43, 64
5, 19200, Note_on_c, 1, 33, 127
5, 19456, Note_off_c, 1, 33, 64
5, 19488, Note_on_c, 1, 33, 127
5, 19585, Note_off_c, 1, 33, 64
5, 19585, Note_on_c, 1, 40, 127
5, 19830, Note_off_c, 1, 40, 64
5, 19872, Note_on_c, 1, 40, 127
5, 19968, Note_off_c, 1, 40, 64
5, 19968, Note_on_c, 1, 33, 127
5, 20220, Note_off_c, 1, 33, 64
5, 20256, Note_on_c, 1, 33, 127
5, 20352, Note_off_c, 1, 33, 64
5, 20352, Note_on_c, 1, 44, 127
5, 20604, Note_off_c, 1, 44, 64
5, 20640, Note_on_c, 1, 44, 127
5, 20736, Note_off_c, 1, 44, 64
5, 20736, Note_on_c, 1, 42, 127
5, 21024, Note_on_c, 1, 37, 127
5, 21038, Note_off_c, 1, 42, 64
5, 21084, Note_off_c, 1, 37, 64
5, 21120, Note_on_c, 1, 40, 127
5, 21372, Note_off_c, 1, 40, 64
5, 21408, Note_on_c, 1, 40, 127
5, 21504, Note_off_c, 1, 40, 64
5, 21504, Note_on_c, 1, 38, 127
5, 21755, Note_off_c, 1, 38, 64
5, 21792, Note_on_c, 1, 38, 127
5, 21867, Note_off_c, 1, 38, 64
5, 21888, Note_on_c, 1, 43, 127
5, 22176, Note_on_c, 1, 38, 127
5, 22190, Note_off_c, 1, 43, 64
5, 22236, Note_off_c, 1, 38, 64
5, 22272, Note_on_c, 1, 36, 127
5, 22539, Note_off_c, 1, 36, 64
5, 22560, Note_on_c, 1, 36, 127
5, 22593, Note_off_c, 1, 36, 64
5, 22656, Note_on_c, 1, 36, 127
5, 22902, Note_off_c, 1, 36, 64
5, 22944, Note_on_c, 1, 36, 127
5, 22987, Note_off_c, 1, 36, 64
5, 23040, Note_on_c, 1, 36, 127
5, 23296, Note_off_c, 1, 36, 64
5, 23328, Note_on_c, 1, 36, 127
5, 23360, Note_off_c, 1, 36, 64
5, 23424, Note_on_c, 1, 36, 127
5, 23691, Note_off_c, 1, 36, 64
5, 23712, Note_on_c, 1, 36, 127
5, 23740, Note_off_c, 1, 36, 64
5, 23808, Note_on_c, 1, 36, 127
5, 24067, Note_off_c, 1, 36, 64
5, 24096, Note_on_c, 1, 36, 127
5, 24145, Note_off_c, 1, 36, 64
5, 24192, Note_on_c, 1, 36, 127
5, 24454, Note_off_c, 1, 36, 64
5, 24480, Note_on_c, 1, 36, 127
5, 24544, Note_off_c, 1, 36, 64
5, 24576, Note_on_c, 1, 36, 127
5, 24830, Note_off_c, 1, 36, 64
5, 24864, Note_on_c, 1, 36, 127
5, 24912, Note_off_c, 1, 36, 64
5, 24960, Note_on_c, 1, 36, 127
5, 25012, Note_off_c, 1, 36, 64
5, 25056, Note_on_c, 1, 36, 127
5, 25201, Note_off_c, 1, 36, 64
5, 25248, Note_on_c, 1, 36, 127
5, 25312, Note_off_c, 1, 36, 64
5, 25344, Note_on_c, 1, 41, 127
5, 25593, Note_off_c, 1, 41, 64
5, 25632, Note_on_c, 1, 41, 127
5, 25689, Note_off_c, 1, 41, 64
5, 25728, Note_on_c, 1, 41, 127
5, 25920, Note_off_c, 1, 41, 64
5, 25920, Note_on_c, 1, 40, 127
5, 26112, Note_off_c, 1, 40, 64
5, 26112, Note_on_c, 1, 38, 127
5, 26400, Note_on_c, 1, 45, 127
5, 26409, Note_off_c, 1, 38, 64
5, 26486, Note_off_c, 1, 45, 64
5, 26496, Note_on_c, 1, 38, 127
5, 26681, Note_off_c, 1, 38, 64
5, 26688, Note_on_c, 1, 38, 127
5, 26776, Note_off_c, 1, 38, 64
5, 26880, Note_on_c, 1, 43, 127
5, 27054, Note_off_c, 1, 43, 64
5, 27072, Note_on_c, 1, 33, 127
5, 27246, Note_off_c, 1, 33, 64
5, 27264, Note_on_c, 1, 35, 127
5, 27552, Note_on_c, 1, 38, 127
5, 27566, Note_off_c, 1, 35, 64
5, 27612, Note_off_c, 1, 38, 64
5, 27648, Note_on_c, 1, 33, 127
5, 27897, Note_off_c, 1, 33, 64
5, 27936, Note_on_c, 1, 33, 127
5, 27993, Note_off_c, 1, 33, 64
5, 28032, Note_on_c, 1, 44, 127
5, 28281, Note_off_c, 1, 44, 64
5, 28320, Note_on_c, 1, 44, 127
5, 28377, Note_off_c, 1, 44, 64
5, 28416, Note_on_c, 1, 33, 127
5, 28665, Note_off_c, 1, 33, 64
5, 28704, Note_on_c, 1, 33, 127
5, 28761, Note_off_c, 1, 33, 64
5, 28800, Note_on_c, 1, 38, 127
5, 29049, Note_off_c, 1, 38, 64
5, 29088, Note_on_c, 1, 38, 127
5, 29145, Note_off_c, 1, 38, 64
5, 29184, Note_on_c, 1, 41, 127
5, 29337, Note_off_c, 1, 41, 64
5, 29376, Note_on_c, 1, 41, 127
5, 29499, Note_off_c, 1, 41, 64
5, 29568, Note_on_c, 1, 39, 127
5, 29760, Note_off_c, 1, 39, 64
5, 29760, Note_on_c, 1, 38, 127
5, 29952, Note_off_c, 1, 38, 64
5, 29952, Note_on_c, 1, 36, 127
5, 30193, Note_off_c, 1, 36, 64
5, 30240, Note_on_c, 1, 36, 127
5, 30302, Note_off_c, 1, 36, 64
5, 30336, Note_on_c, 1, 31, 127
5, 30523, Note_off_c, 1, 31, 64
5, 30528, Note_on_c, 1, 36, 127
5, 30659, Note_off_c, 1, 36, 64
5, 30720, Note_on_c, 1, 36, 127
5, 30976, Note_off_c, 1, 36, 64
5, 31008, Note_on_c, 1, 36, 127
5, 31105, Note_off_c, 1, 36, 64
5, 31105, Note_on_c, 1, 43, 127
5, 31350, Note_off_c, 1, 43, 64
5, 31392, Note_on_c, 1, 43, 127
5, 31488, Note_off_c, 1, 43, 64
5, 31488, Note_on_c, 1, 36, 127
5, 31744, Note_off_c, 1, 36, 64
5, 31776, Note_on_c, 1, 36, 127
5, 31873, Note_off_c, 1, 36, 64
5, 31873, Note_on_c, 1, 43, 127
5, 32118, Note_off_c, 1, 43, 64
5, 32160, Note_on_c, 1, 43, 127
5, 32256, Note_off_c, 1, 43, 64
5, 32256, Note_on_c, 1, 41, 127
5, 32507, Note_off_c, 1, 41, 64
5, 32544, Note_on_c, 1, 41, 127
5, 32619, Note_off_c, 1, 41, 64
5, 32640, Note_on_c, 1, 41, 127
5, 32814, Note_off_c, 1, 41, 64
5, 32832, Note_on_c, 1, 40, 127
5, 33006, Note_off_c, 1, 40, 64
5, 33024, Note_on_c, 1, 38, 127
5, 33265, Note_off_c, 1, 38, 64
5, 33312, Note_on_c, 1, 38, 127
5, 33374, Note_off_c, 1, 38, 64
5, 33408, Note_on_c, 1, 33, 127
5, 33595, Note_off_c, 1, 33, 64
5, 33600, Note_on_c, 1, 38, 127
5, 33731, Note_off_c, 1, 38, 64
5, 33792, Note_on_c, 1, 43, 127
5, 33966, Note_off_c, 1, 43, 64
5, 33984, Note_on_c, 1, 33, 127
5, 34158, Note_off_c, 1, 33, 64
5, 34176, Note_on_c, 1, 35, 127
5, 34427, Note_off_c, 1, 35, 64
5, 34464, Note_on_c, 1, 35, 127
5, 34539, Note_off_c, 1, 35, 64
5, 34560, Note_on_c, 1, 33, 127
5, 34809, Note_off_c, 1, 33, 64
5, 34848, Note_on_c, 1, 33, 127
5, 34905, Note_off_c, 1, 33, 64
5, 34944, Note_on_c, 1, 44, 127
5, 35097, Note_off_c, 1, 44, 64
5, 35136, Note_on_c, 1, 44, 127
5, 35259, Note_off_c, 1, 44, 64
5, 35328, Note_on_c, 1, 43, 127
5, 35481, Note_off_c, 1, 43, 64
5, 35520, Note_on_c, 1, 43, 127
5, 35643, Note_off_c, 1, 43, 64
5, 35712, Note_on_c, 1, 38, 127
5, 35961, Note_off_c, 1, 38, 64
5, 36000, Note_on_c, 1, 38, 127
5, 36057, Note_off_c, 1, 38, 64
5, 36096, Note_on_c, 1, 41, 127
5, 36384, Note_on_c, 1, 36, 127
5, 36398, Note_off_c, 1, 41, 64
5, 36444, Note_off_c, 1, 36, 64
5, 36480, Note_on_c, 1, 39, 127
5, 36654, Note_off_c, 1, 39, 64
5, 36672, Note_on_c, 1, 38, 127
5, 36846, Note_off_c, 1, 38, 64
5, 36864, Note_on_c, 1, 36, 127
5, 37120, Note_off_c, 1, 36, 64
5, 37152, Note_on_c, 1, 36, 127
5, 37249, Note_off_c, 1, 36, 64
5, 37249, Note_on_c, 1, 43, 127
5, 37494, Note_off_c, 1, 43, 64
5, 37536, Note_on_c, 1, 43, 127
5, 37632, Note_off_c, 1, 43, 64
5, 37632, Note_on_c, 1, 36, 127
5, 37886, Note_off_c, 1, 36, 64
5, 37920, Note_on_c, 1, 36, 127
5, 38016, Note_off_c, 1, 36, 64
5, 38016, Note_on_c, 1, 43, 127
5, 38276, Note_off_c, 1, 43, 64
5, 38304, Note_on_c, 1, 43, 127
5, 38371, Note_off_c, 1, 43, 64
5, 38400, Note_on_c, 1, 36, 127
5, 38654, Note_off_c, 1, 36, 64
5, 38688, Note_on_c, 1, 36, 127
5, 38784, Note_off_c, 1, 36, 64
5, 38784, Note_on_c, 1, 43, 127
5, 39044, Note_off_c, 1, 43, 64
5, 39072, Note_on_c, 1, 43, 127
5, 39139, Note_off_c, 1, 43, 64
5, 39168, Note_on_c, 1, 41, 127
5, 39419, Note_off_c, 1, 41, 64
5, 39456, Note_on_c, 1, 41, 127
5, 39531, Note_off_c, 1, 41, 64
5, 39552, Note_on_c, 1, 41, 127
5, 39726, Note_off_c, 1, 41, 64
5, 39744, Note_on_c, 1, 40, 127
5, 39918, Note_off_c, 1, 40, 64
5, 39936, Note_on_c, 1, 38, 127
5, 40224, Note_on_c, 1, 33, 127
5, 40230, Note_off_c, 1, 38, 64
5, 40320, Note_off_c, 1, 33, 64
5, 40320, Note_on_c, 1, 38, 127
5, 40361, Note_off_c, 1, 38, 64
5, 40416, Note_on_c, 1, 38, 127
5, 40470, Note_off_c, 1, 38, 64
5, 40512, Note_on_c, 1, 38, 127
5, 40595, Note_off_c, 1, 38, 64
5, 40608, Note_on_c, 1, 33, 127
5, 40692, Note_off_c, 1, 33, 64
5, 40704, Note_on_c, 1, 43, 127
5, 40878, Note_off_c, 1, 43, 64
5, 40896, Note_on_c, 1, 33, 127
5, 41070, Note_off_c, 1, 33, 64
5, 41088, Note_on_c, 1, 35, 127
5, 41376, Note_on_c, 1, 38, 127
5, 41390, Note_off_c, 1, 35, 64
5, 41436, Note_off_c, 1, 38, 64
5, 41472, Note_on_c, 1, 33, 127
5, 41716, Note_off_c, 1, 33, 64
5, 41760, Note_on_c, 1, 33, 127
5, 41824, Note_off_c, 1, 33, 64
5, 41856, Note_on_c, 1, 44, 127
5, 42100, Note_off_c, 1, 44, 64
5, 42144, Note_on_c, 1, 44, 127
5, 42208, Note_off_c, 1, 44, 64
5, 42240, Note_on_c, 1, 43, 127
5, 42393, Note_off_c, 1, 43, 64
5, 42432, Note_on_c, 1, 43, 127
5, 42555, Note_off_c, 1, 43, 64
5, 42624, Note_on_c, 1, 38, 127
5, 42873, Note_off_c, 1, 38, 64
5, 42912, Note_on_c, 1, 38, 127
5, 42969, Note_off_c, 1, 38, 64
5, 43008, Note_on_c, 1, 41, 127
5, 43296, Note_on_c, 1, 36, 127
5, 43310, Note_off_c, 1, 41, 64
5, 43356, Note_off_c, 1, 36, 64
5, 43392, Note_on_c, 1, 39, 127
5, 43566, Note_off_c, 1, 39, 64
5, 43584, Note_on_c, 1, 38, 127
5, 43758, Note_off_c, 1, 38, 64
5, 43776, Note_on_c, 1, 33, 127
5, 44030, Note_off_c, 1, 33, 64
5, 44064, Note_on_c, 1, 33, 127
5, 44160, Note_off_c, 1, 33, 64
5, 44160, Note_on_c, 1, 40, 127
5, 44420, Note_off_c, 1, 40, 64
5, 44448, Note_on_c, 1, 40, 127
5, 44515, Note_off_c, 1, 40, 64
5, 44544, Note_on_c, 1, 33, 127
5, 44795, Note_off_c, 1, 33, 64
5, 44832, Note_on_c, 1, 33, 127
5, 44907, Note_off_c, 1, 33, 64
5, 44928, Note_on_c, 1, 44, 127
5, 45179, Note_off_c, 1, 44, 64
5, 45216, Note_on_c, 1, 44, 127
5, 45291, Note_off_c, 1, 44, 64
5, 45312, Note_on_c, 1, 42, 127
5, 45563, Note_off_c, 1, 42, 64
5, 45600, Note_on_c, 1, 42, 127
5, 45675, Note_off_c, 1, 42, 64
5, 45696, Note_on_c, 1, 40, 127
5, 45948, Note_off_c, 1, 40, 64
5, 45984, Note_on_c, 1, 40, 127
5, 46080, Note_off_c, 1, 40, 64
5, 46080, Note_on_c, 1, 38, 127
5, 46332, Note_off_c, 1, 38, 64
5, 46368, Note_on_c, 1, 38, 127
5, 46464, Note_off_c, 1, 38, 64
5, 46464, Note_on_c, 1, 43, 127
5, 46715, Note_off_c, 1, 43, 64
5, 46752, Note_on_c, 1, 43, 127
5, 46827, Note_off_c, 1, 43, 64
5, 46848, Note_on_c, 1, 33, 127
5, 47104, Note_off_c, 1, 33, 64
5, 47136, Note_on_c, 1, 33, 127
5, 47233, Note_off_c, 1, 33, 64
5, 47233, Note_on_c, 1, 40, 127
5, 47478, Note_off_c, 1, 40, 64
5, 47520, Note_on_c, 1, 40, 127
5, 47616, Note_off_c, 1, 40, 64
5, 47616, Note_on_c, 1, 33, 127
5, 47904, Note_on_c, 1, 28, 127
5, 47918, Note_off_c, 1, 33, 64
5, 47964, Note_off_c, 1, 28, 64
5, 48000, Note_on_c, 1, 44, 127
5, 48251, Note_off_c, 1, 44, 64
5, 48288, Note_on_c, 1, 44, 127
5, 48363, Note_off_c, 1, 44, 64
5, 48384, Note_on_c, 1, 42, 127
5, 48672, Note_on_c, 1, 37, 127
5, 48686, Note_off_c, 1, 42, 64
5, 48732, Note_off_c, 1, 37, 64
5, 48768, Note_on_c, 1, 40, 127
5, 49020, Note_off_c, 1, 40, 64
5, 49056, Note_on_c, 1, 40, 127
5, 49152, Note_off_c, 1, 40, 64
5, 49152, Note_on_c, 1, 38, 127
5, 49440, Note_on_c, 1, 33, 127
5, 49454, Note_off_c, 1, 38, 64
5, 49500, Note_off_c, 1, 33, 64
5, 49536, Note_on_c, 1, 43, 127
5, 49788, Note_off_c, 1, 43, 64
5, 49824, Note_on_c, 1, 43, 127
5, 49920, Note_off_c, 1, 43, 64
5, 49920, Note_on_c, 1, 36, 127
5, 50161, Note_off_c, 1, 36, 64
5, 50208, Note_on_c, 1, 36, 127
5, 50270, Note_off_c, 1, 36, 64
5, 50304, Note_on_c, 1, 31, 127
5, 50491, Note_off_c, 1, 31, 64
5, 50496, Note_on_c, 1, 36, 127
5, 50627, Note_off_c, 1, 36, 64
5, 50688, Note_on_c, 1, 36, 127
5, 50942, Note_off_c, 1, 36, 64
5, 50976, Note_on_c, 1, 36, 127
5, 51072, Note_off_c, 1, 36, 64
5, 51072, Note_on_c, 1, 43, 127
5, 51332, Note_off_c, 1, 43, 64
5, 51360, Note_on_c, 1, 43, 127
5, 51427, Note_off_c, 1, 43, 64
5, 51456, Note_on_c, 1, 36, 127
5, 51712, Note_off_c, 1, 36, 64
5, 51744, Note_on_c, 1, 36, 127
5, 51841, Note_off_c, 1, 36, 64
5, 51841, Note_on_c, 1, 43, 127
5, 52086, Note_off_c, 1, 43, 64
5, 52128, Note_on_c, 1, 43, 127
5, 52224, Note_off_c, 1, 43, 64
5, 52224, Note_on_c, 1, 36, 127
5, 52480, Note_off_c, 1, 36, 64
5, 52512, Note_on_c, 1, 36, 127
5, 52609, Note_off_c, 1, 36, 64
5, 52609, Note_on_c, 1, 43, 127
5, 52854, Note_off_c, 1, 43, 64
5, 52896, Note_on_c, 1, 43, 127
5, 52992, Note_off_c, 1, 43, 64
5, 52992, Note_on_c, 1, 41, 127
5, 53244, Note_off_c, 1, 41, 64
5, 53280, Note_on_c, 1, 41, 127
5, 53376, Note_off_c, 1, 41, 64
5, 53376, Note_on_c, 1, 41, 127
5, 53550, Note_off_c, 1, 41, 64
5, 53568, Note_on_c, 1, 40, 127
5, 53742, Note_off_c, 1, 40, 64
5, 53760, Note_on_c, 1, 38, 127
5, 54016, Note_off_c, 1, 38, 64
5, 54048, Note_on_c, 1, 38, 127
5, 54145, Note_off_c, 1, 38, 64
5, 54145, Note_on_c, 1, 45, 127
5, 54390, Note_off_c, 1, 45, 64
5, 54432, Note_on_c, 1, 45, 127
5, 54528, Note_off_c, 1, 45, 64
5, 54528, Note_on_c, 1, 43, 127
5, 54702, Note_off_c, 1, 43, 64
5, 54720, Note_on_c, 1, 33, 127
5, 54894, Note_off_c, 1, 33, 64
5, 54912, Note_on_c, 1, 35, 127
5, 55164, Note_off_c, 1, 35, 64
5, 55200, Note_on_c, 1, 35, 127
5, 55296, Note_off_c, 1, 35, 64
5, 55296, Note_on_c, 1, 33, 127
5, 55548, Note_off_c, 1, 33, 64
5, 55584, Note_on_c, 1, 33, 127
5, 55680, Note_off_c, 1, 33, 64
5, 55680, Note_on_c, 1, 44, 127
5, 55932, Note_off_c, 1, 44, 64
5, 55968, Note_on_c, 1, 44, 127
5, 56064, Note_off_c, 1, 44, 64
5, 56064, Note_on_c, 1, 33, 127
5, 56316, Note_off_c, 1, 33, 64
5, 56352, Note_on_c, 1, 33, 127
5, 56448, Note_off_c, 1, 33, 64
5, 56448, Note_on_c, 1, 38, 127
5, 56699, Note_off_c, 1, 38, 64
5, 56736, Note_on_c, 1, 38, 127
5, 56811, Note_off_c, 1, 38, 64
5, 56832, Note_on_c, 1, 41, 127
5, 57120, Note_on_c, 1, 36, 127
5, 57134, Note_off_c, 1, 41, 64
5, 57180, Note_off_c, 1, 36, 64
5, 57216, Note_on_c, 1, 39, 127
5, 57390, Note_off_c, 1, 39, 64
5, 57408, Note_on_c, 1, 38, 127
5, 57582, Note_off_c, 1, 38, 64
5, 57600, Note_on_c, 1, 33, 127
5, 57854, Note_off_c, 1, 33, 64
5, 57888, Note_on_c, 1, 33, 127
5, 57984, Note_off_c, 1, 33, 64
5, 57984, Note_on_c, 1, 40, 127
5, 58244, Note_off_c, 1, 40, 64
5, 58272, Note_on_c, 1, 40, 127
5, 58339, Note_off_c, 1, 40, 64
5, 58368, Note_on_c, 1, 41, 127
5, 58656, Note_on_c, 1, 36, 127
5, 58670, Note_off_c, 1, 41, 64
5, 58716, Note_off_c, 1, 36, 64
5, 58752, Note_on_c, 1, 39, 127
5, 58926, Note_off_c, 1, 39, 64
5, 58944, Note_on_c, 1, 38, 127
5, 59118, Note_off_c, 1, 38, 64
5, 59136, Note_on_c, 1, 36, 127
5, 59902, Note_off_c, 1, 36, 64
5, 59902, End_track
6, 0, Start_track
6, 0, MIDI_port, 0
6, 0, Title_t, "drums               "
6, 0, Program_c, 9, 0
6, 0, Control_c, 9, 7, 120
6, 0, Note_on_c, 9, 37, 127
6, 192, Note_off_c, 9, 37, 64
6, 384, Note_on_c, 9, 37, 127
6, 576, Note_off_c, 9, 37, 64
6, 768, Note_on_c, 9, 37, 127
6, 960, Note_off_c, 9, 37, 64
6, 960, Note_on_c, 9, 37, 127
6, 1152, Note_off_c, 9, 37, 64
6, 1152, Note_on_c, 9, 37, 127
6, 1344, Note_off_c, 9, 37, 64
6, 1344, Note_on_c, 9, 37, 127
6, 1536, Note_off_c, 9, 37, 64
6, 1536, Note_on_c, 9, 36, 127
6, 1536, Note_on_c, 9, 42, 127
6, 1584, Note_off_c, 9, 36, 64
6, 1584, Note_off_c, 9, 42, 64
6, 1632, Note_on_c, 9, 42, 127
6, 1680, Note_off_c, 9, 42, 64
6, 1728, Note_on_c, 9, 38, 127
6, 1728, Note_on_c, 9, 42, 127
6, 1776, Note_off_c, 9, 38, 64
6, 1776, Note_off_c, 9, 42, 64
6, 1824, Note_on_c, 9, 36, 127
6, 1824, Note_on_c, 9, 42, 127
6, 1872, Note_off_c, 9, 36, 64
6, 1872, Note_off_c, 9, 42, 64
6, 1920, Note_on_c, 9, 36, 127
6, 1920, Note_on_c, 9, 42, 127
6, 1968, Note_off_c, 9, 36, 64
6, 1968, Note_off_c, 9, 42, 64
6, 2016, Note_on_c, 9, 38, 127
6, 2064, Note_off_c, 9, 38, 64
6, 2064, Note_on_c, 9, 38, 127
6, 2112, Note_off_c, 9, 38, 64
6, 2112, Note_on_c, 9, 38, 127
6, 2160, Note_off_c, 9, 38, 64
6, 2208, Note_on_c, 9, 38, 127
6, 2208, Note_on_c, 9, 42, 127
6, 2256, Note_off_c, 9, 38, 64
6, 2256, Note_off_c, 9, 42, 64
6, 2304, Note_on_c, 9, 36, 127
6, 2304, Note_on_c, 9, 42, 127
6, 2304, Note_on_c, 9, 49, 127
6, 2352, Note_off_c, 9, 36, 64
6, 2352, Note_off_c, 9, 42, 64
6, 2352, Note_off_c, 9, 49, 64
6, 2400, Note_on_c, 9, 42, 127
6, 2448, Note_off_c, 9, 42, 64
6, 2496, Note_on_c, 9, 38, 127
6, 2496, Note_on_c, 9, 42, 127
6, 2544, Note_off_c, 9, 38, 64
6, 2544, Note_off_c, 9, 42, 64
6, 2592, Note_on_c, 9, 36, 127
6, 2592, Note_on_c, 9, 42, 127
6, 2640, Note_off_c, 9, 36, 64
6, 2640, Note_off_c, 9, 42, 64
6, 2688, Note_on_c, 9, 36, 127
6, 2688, Note_on_c, 9, 42, 127
6, 2736, Note_off_c, 9, 36, 64
6, 2736, Note_off_c, 9, 42, 64
6, 2784, Note_on_c, 9, 42, 127
6, 2832, Note_off_c, 9, 42, 64
6, 2880, Note_on_c, 9, 38, 127
6, 2880, Note_on_c, 9, 42, 127
6, 2928, Note_off_c, 9, 38, 64
6, 2928, Note_off_c, 9, 42, 64
6, 2976, Note_on_c, 9, 36, 127
6, 2976, Note_on_c, 9, 42, 127
6, 3024, Note_off_c, 9, 36, 64
6, 3024, Note_off_c, 9, 42, 64
6, 3072, Note_on_c, 9, 36, 127
6, 3072, Note_on_c, 9, 42, 127
6, 3120, Note_off_c, 9, 36, 64
6, 3120, Note_off_c, 9, 42, 64
6, 3168, Note_on_c, 9, 42, 127
6, 3216, Note_off_c, 9, 42, 64
6, 3264, Note_on_c, 9, 38, 127
6, 3264, Note_on_c, 9, 42, 127
6, 3312, Note_off_c, 9, 38, 64
6, 3312, Note_off_c, 9, 42, 64
6, 3360, Note_on_c, 9, 36, 127
6, 3360, Note_on_c, 9, 42, 127
6, 3408, Note_off_c, 9, 36, 64
6, 3408, Note_off_c, 9, 42, 64
6, 3456, Note_on_c, 9, 36, 127
6, 3456, Note_on_c, 9, 42, 127
6, 3504, Note_off_c, 9, 36, 64
6, 3504, Note_off_c, 9, 42, 64
6, 3552, Note_on_c, 9, 36, 127
6, 3552, Note_on_c, 9, 42, 127
6, 3600, Note_off_c, 9, 36, 64
6, 3600, Note_off_c, 9, 42, 64
6, 3648, Note_on_c, 9, 38, 127
6, 3648, Note_on_c, 9, 42, 127
6, 3696, Note_off_c, 9, 38, 64
6, 3696, Note_off_c, 9, 42, 64
6, 3744, Note_on_c, 9, 36, 127
6, 3744, Note_on_c, 9, 46, 127
6, 3792, Note_off_c, 9, 36, 64
6, 3792, Note_off_c, 9, 46, 64
6, 3840, Note_on_c, 9, 36, 127
6, 3840, Note_on_c, 9, 42, 127
6, 3888, Note_off_c, 9, 36, 64
6, 3888, Note_off_c, 9, 42, 64
6, 3936, Note_on_c, 9, 42, 127
6, 3984, Note_off_c, 9, 42, 64
6, 4032, Note_on_c, 9, 38, 127
6, 4032, Note_on_c, 9, 42, 127
6, 4080, Note_off_c, 9, 38, 64
6, 4080, Note_off_c, 9, 42, 64
6, 4128, Note_on_c, 9, 36, 127
6, 4128, Note_on_c, 9, 42, 127
6, 4176, Note_off_c, 9, 36, 64
6, 4176, Note_off_c, 9, 42, 64
6, 4224, Note_on_c, 9, 36, 127
6, 4224, Note_on_c, 9, 42, 127
6, 4272, Note_off_c, 9, 36, 64
6, 4272, Note_off_c, 9, 42, 64
6, 4320, Note_on_c, 9, 42, 127
6, 4368, Note_off_c, 9, 42, 64
6, 4416, Note_on_c, 9, 38, 127
6, 4416, Note_on_c, 9, 42, 127
6, 4464, Note_off_c, 9, 38, 64
6, 4464, Note_off_c, 9, 42, 64
6, 4512, Note_on_c, 9, 36, 127
6, 4512, Note_on_c, 9, 42, 127
6, 4560, Note_off_c, 9, 36, 64
6, 4560, Note_off_c, 9, 42, 64
6, 4608, Note_on_c, 9, 36, 127
6, 4608, Note_on_c, 9, 42, 127
6, 4656, Note_off_c, 9, 36, 64
6, 4656, Note_off_c, 9, 42, 64
6, 4704, Note_on_c, 9, 42, 127
6, 4752, Note_off_c, 9, 42, 64
6, 4800, Note_on_c, 9, 38, 127
6, 4800, Note_on_c, 9, 42, 127
6, 4848, Note_off_c, 9, 38, 64
6, 4848, Note_off_c, 9, 42, 64
6, 4896, Note_on_c, 9, 36, 127
6, 4896, Note_on_c, 9, 42, 127
6, 4944, Note_off_c, 9, 36, 64
6, 4944, Note_off_c, 9, 42, 64
6, 4992, Note_on_c, 9, 36, 127
6, 4992, Note_on_c, 9, 42, 127
6, 5040, Note_off_c, 9, 36, 64
6, 5040, Note_off_c, 9, 42, 64
6, 5088, Note_on_c, 9, 36, 127
6, 5088, Note_on_c, 9, 42, 127
6, 5136, Note_off_c, 9, 36, 64
6, 5136, Note_off_c, 9, 42, 64
6, 5184, Note_on_c, 9, 38, 127
6, 5184, Note_on_c, 9, 42, 127
6, 5232, Note_off_c, 9, 38, 64
6, 5232, Note_off_c, 9, 42, 64
6, 5280, Note_on_c, 9, 36, 127
6, 5280, Note_on_c, 9, 46, 127
6, 5328, Note_off_c, 9, 36, 64
6, 5328, Note_off_c, 9, 46, 64
6, 5376, Note_on_c, 9, 36, 127
6, 5376, Note_on_c, 9, 42, 127
6, 5424, Note_off_c, 9, 36, 64
6, 5424, Note_off_c, 9, 42, 64
6, 5472, Note_on_c, 9, 42, 127
6, 5520, Note_off_c, 9, 42, 64
6, 5568, Note_on_c, 9, 38, 127
6, 5568, Note_on_c, 9, 42, 127
6, 5616, Note_off_c, 9, 38, 64
6, 5616, Note_off_c, 9, 42, 64
6, 5664, Note_on_c, 9, 36, 127
6, 5664, Note_on_c, 9, 42, 127
6, 5712, Note_off_c, 9, 36, 64
6, 5712, Note_off_c, 9, 42, 64
6, 5760, Note_on_c, 9, 36, 127
6, 5760, Note_on_c, 9, 42, 127
6, 5808, Note_off_c, 9, 36, 64
6, 5808, Note_off_c, 9, 42, 64
6, 5856, Note_on_c, 9, 42, 127
6, 5904, Note_off_c, 9, 42, 64
6, 5952, Note_on_c, 9, 38, 127
6, 5952, Note_on_c, 9, 42, 127
6, 6000, Note_off_c, 9, 38, 64
6, 6000, Note_off_c, 9, 42, 64
6, 6048, Note_on_c, 9, 36, 127
6, 6048, Note_on_c, 9, 42, 127
6, 6096, Note_off_c, 9, 36, 64
6, 6096, Note_off_c, 9, 42, 64
6, 6144, Note_on_c, 9, 36, 127
6, 6144, Note_on_c, 9, 42, 127
6, 6192, Note_off_c, 9, 36, 64
6, 6192, Note_off_c, 9, 42, 64
6, 6240, Note_on_c, 9, 42, 127
6, 6288, Note_off_c, 9, 42, 64
6, 6288, Note_on_c, 9, 42, 127
6, 6336, Note_off_c, 9, 42, 64
6, 6336, Note_on_c, 9, 38, 127
6, 6336, Note_on_c, 9, 46, 127
6, 6384, Note_off_c, 9, 38, 64
6, 6384, Note_off_c, 9, 46, 64
6, 6432, Note_on_c, 9, 36, 127
6, 6432, Note_on_c, 9, 47, 127
6, 6480, Note_off_c, 9, 36, 64
6, 6480, Note_off_c, 9, 47, 64
6, 6528, Note_on_c, 9, 36, 127
6, 6528, Note_on_c, 9, 50, 127
6, 6576, Note_off_c, 9, 36, 64
6, 6576, Note_off_c, 9, 50, 64
6, 6624, Note_on_c, 9, 47, 127
6, 6672, Note_off_c, 9, 47, 64
6, 6720, Note_on_c, 9, 42, 127
6, 6720, Note_on_c, 9, 47, 127
6, 6768, Note_off_c, 9, 42, 64
6, 6768, Note_off_c, 9, 47, 64
6, 6816, Note_on_c, 9, 46, 127
6, 6816, Note_on_c, 9, 41, 127
6, 6864, Note_off_c, 9, 46, 64
6, 6864, Note_off_c, 9, 41, 64
6, 6912, Note_on_c, 9, 36, 127
6, 6912, Note_on_c, 9, 42, 127
6, 6912, Note_on_c, 9, 49, 127
6, 6960, Note_off_c, 9, 36, 64
6, 6960, Note_off_c, 9, 42, 64
6, 6960, Note_off_c, 9, 49, 64
6, 7008, Note_on_c, 9, 42, 127
6, 7056, Note_off_c, 9, 42, 64
6, 7104, Note_on_c, 9, 38, 127
6, 7104, Note_on_c, 9, 42, 127
6, 7152, Note_off_c, 9, 38, 64
6, 7152, Note_off_c, 9, 42, 64
6, 7200, Note_on_c, 9, 36, 127
6, 7200, Note_on_c, 9, 42, 127
6, 7248, Note_off_c, 9, 36, 64
6, 7248, Note_off_c, 9, 42, 64
6, 7296, Note_on_c, 9, 36, 127
6, 7296, Note_on_c, 9, 42, 127
6, 7344, Note_off_c, 9, 36, 64
6, 7344, Note_off_c, 9, 42, 64
6, 7392, Note_on_c, 9, 42, 127
6, 7440, Note_off_c, 9, 42, 64
6, 7488, Note_on_c, 9, 38, 127
6, 7488, Note_on_c, 9, 42, 127
6, 7536, Note_off_c, 9, 38, 64
6, 7536, Note_off_c, 9, 42, 64
6, 7584, Note_on_c, 9, 42, 127
6, 7632, Note_off_c, 9, 42, 64
6, 7680, Note_on_c, 9, 36, 127
6, 7680, Note_on_c, 9, 42, 127
6, 7728, Note_off_c, 9, 36, 64
6, 7728, Note_off_c, 9, 42, 64
6, 7776, Note_on_c, 9, 42, 127
6, 7824, Note_off_c, 9, 42, 64
6, 7872, Note_on_c, 9, 38, 127
6, 7872, Note_on_c, 9, 46, 127
6, 7920, Note_off_c, 9, 38, 64
6, 7920, Note_off_c, 9, 46, 64
6, 7968, Note_on_c, 9, 36, 127
6, 8016, Note_off_c, 9, 36, 64
6, 8064, Note_on_c, 9, 50, 127
6, 8112, Note_off_c, 9, 50, 64
6, 8208, Note_on_c, 9, 47, 127
6, 8256, Note_off_c, 9, 47, 64
6, 8256, Note_on_c, 9, 47, 127
6, 8304, Note_off_c, 9, 47, 64
6, 8304, Note_on_c, 9, 41, 127
6, 8352, Note_off_c, 9, 41, 64
6, 8352, Note_on_c, 9, 41, 127
6, 8400, Note_off_c, 9, 41, 64
6, 8448, Note_on_c, 9, 36, 127
6, 8448, Note_on_c, 9, 42, 127
6, 8448, Note_on_c, 9, 49, 127
6, 8496, Note_off_c, 9, 36, 64
6, 8496, Note_off_c, 9, 42, 64
6, 8496, Note_off_c, 9, 49, 64
6, 8544, Note_on_c, 9, 42, 127
6, 8592, Note_off_c, 9, 42, 64
6, 8640, Note_on_c, 9, 38, 127
6, 8640, Note_on_c, 9, 42, 127
6, 8688, Note_off_c, 9, 38, 64
6, 8688, Note_off_c, 9, 42, 64
6, 8736, Note_on_c, 9, 36, 127
6, 8736, Note_on_c, 9, 42, 127
6, 8784, Note_off_c, 9, 36, 64
6, 8784, Note_off_c, 9, 42, 64
6, 8832, Note_on_c, 9, 36, 127
6, 8832, Note_on_c, 9, 42, 127
6, 8880, Note_off_c, 9, 36, 64
6, 8880, Note_off_c, 9, 42, 64
6, 8928, Note_on_c, 9, 42, 127
6, 8976, Note_off_c, 9, 42, 64
6, 9024, Note_on_c, 9, 38, 127
6, 9024, Note_on_c, 9, 42, 127
6, 9072, Note_off_c, 9, 38, 64
6, 9072, Note_off_c, 9, 42, 64
6, 9120, Note_on_c, 9, 36, 127
6, 9120, Note_on_c, 9, 42, 127
6, 9168, Note_off_c, 9, 36, 64
6, 9168, Note_off_c, 9, 42, 64
6, 9216, Note_on_c, 9, 36, 127
6, 9216, Note_on_c, 9, 42, 127
6, 9264, Note_off_c, 9, 36, 64
6, 9264, Note_off_c, 9, 42, 64
6, 9312, Note_on_c, 9, 42, 127
6, 9360, Note_off_c, 9, 42, 64
6, 9408, Note_on_c, 9, 38, 127
6, 9408, Note_on_c, 9, 42, 127
6, 9456, Note_off_c, 9, 38, 64
6, 9456, Note_off_c, 9, 42, 64
6, 9504, Note_on_c, 9, 36, 127
6, 9504, Note_on_c, 9, 42, 127
6, 9552, Note_off_c, 9, 36, 64
6, 9552, Note_off_c, 9, 42, 64
6, 9600, Note_on_c, 9, 36, 127
6, 9600, Note_on_c, 9, 42, 127
6, 9648, Note_off_c, 9, 36, 64
6, 9648, Note_off_c, 9, 42, 64
6, 9696, Note_on_c, 9, 38, 127
6, 9744, Note_off_c, 9, 38, 64
6, 9744, Note_on_c, 9, 38, 127
6, 9792, Note_off_c, 9, 38, 64
6, 9792, Note_on_c, 9, 38, 127
6, 9840, Note_off_c, 9, 38, 64
6, 9840, Note_on_c, 9, 38, 127
6, 9888, Note_off_c, 9, 38, 64
6, 9888, Note_on_c, 9, 38, 127
6, 9936, Note_off_c, 9, 38, 64
6, 9936, Note_on_c, 9, 38, 127
6, 9984, Note_off_c, 9, 38, 64
6, 9984, Note_on_c, 9, 36, 127
6, 9984, Note_on_c, 9, 42, 127
6, 9984, Note_on_c, 9, 49, 127
6, 10032, Note_off_c, 9, 36, 64
6, 10032, Note_off_c, 9, 42, 64
6, 10032, Note_off_c, 9, 49, 64
6, 10080, Note_on_c, 9, 42, 127
6, 10128, Note_off_c, 9, 42, 64
6, 10176, Note_on_c, 9, 38, 127
6, 10176, Note_on_c, 9, 42, 127
6, 10224, Note_off_c, 9, 38, 64
6, 10224, Note_off_c, 9, 42, 64
6, 10272, Note_on_c, 9, 36, 127
6, 10272, Note_on_c, 9, 42, 127
6, 10320, Note_off_c, 9, 36, 64
6, 10320, Note_off_c, 9, 42, 64
6, 10368, Note_on_c, 9, 36, 127
6, 10368, Note_on_c, 9, 42, 127
6, 10416, Note_off_c, 9, 36, 64
6, 10416, Note_off_c, 9, 42, 64
6, 10464, Note_on_c, 9, 42, 127
6, 10512, Note_off_c, 9, 42, 64
6, 10560, Note_on_c, 9, 38, 127
6, 10560, Note_on_c, 9, 42, 127
6, 10608, Note_off_c, 9, 38, 64
6, 10608, Note_off_c, 9, 42, 64
6, 10656, Note_on_c, 9, 36, 127
6, 10656, Note_on_c, 9, 42, 127
6, 10704, Note_off_c, 9, 36, 64
6, 10704, Note_off_c, 9, 42, 64
6, 10752, Note_on_c, 9, 36, 127
6, 10752, Note_on_c, 9, 42, 127
6, 10800, Note_off_c, 9, 36, 64
6, 10800, Note_off_c, 9, 42, 64
6, 10848, Note_on_c, 9, 42, 127
6, 10896, Note_off_c, 9, 42, 64
6, 10944, Note_on_c, 9, 38, 127
6, 10944, Note_on_c, 9, 42, 127
6, 10992, Note_off_c, 9, 38, 64
6, 10992, Note_off_c, 9, 42, 64
6, 11040, Note_on_c, 9, 36, 127
6, 11040, Note_on_c, 9, 42, 127
6, 11088, Note_off_c, 9, 36, 64
6, 11088, Note_off_c, 9, 42, 64
6, 11136, Note_on_c, 9, 36, 127
6, 11136, Note_on_c, 9, 42, 127
6, 11184, Note_off_c, 9, 36, 64
6, 11184, Note_off_c, 9, 42, 64
6, 11232, Note_on_c, 9, 36, 127
6, 11232, Note_on_c, 9, 42, 127
6, 11280, Note_off_c, 9, 36, 64
6, 11280, Note_off_c, 9, 42, 64
6, 11328, Note_on_c, 9, 38, 127
6, 11328, Note_on_c, 9, 42, 127
6, 11376, Note_off_c, 9, 38, 64
6, 11376, Note_off_c, 9, 42, 64
6, 11424, Note_on_c, 9, 36, 127
6, 11424, Note_on_c, 9, 42, 127
6, 11472, Note_off_c, 9, 36, 64
6, 11472, Note_off_c, 9, 42, 64
6, 11520, Note_on_c, 9, 36, 127
6, 11520, Note_on_c, 9, 42, 127
6, 11568, Note_off_c, 9, 36, 64
6, 11568, Note_off_c, 9, 42, 64
6, 11616, Note_on_c, 9, 42, 127
6, 11664, Note_off_c, 9, 42, 64
6, 11712, Note_on_c, 9, 38, 127
6, 11712, Note_on_c, 9, 42, 127
6, 11760, Note_off_c, 9, 38, 64
6, 11760, Note_off_c, 9, 42, 64
6, 11808, Note_on_c, 9, 36, 127
6, 11808, Note_on_c, 9, 42, 127
6, 11856, Note_off_c, 9, 36, 64
6, 11856, Note_off_c, 9, 42, 64
6, 11904, Note_on_c, 9, 36, 127
6, 11904, Note_on_c, 9, 42, 127
6, 11952, Note_off_c, 9, 36, 64
6, 11952, Note_off_c, 9, 42, 64
6, 12000, Note_on_c, 9, 42, 127
6, 12048, Note_off_c, 9, 42, 64
6, 12096, Note_on_c, 9, 38, 127
6, 12096, Note_on_c, 9, 42, 127
6, 12144, Note_off_c, 9, 38, 64
6, 12144, Note_off_c, 9, 42, 64
6, 12192, Note_on_c, 9, 36, 127
6, 12192, Note_on_c, 9, 42, 127
6, 12240, Note_off_c, 9, 36, 64
6, 12240, Note_off_c, 9, 42, 64
6, 12288, Note_on_c, 9, 36, 127
6, 12288, Note_on_c, 9, 42, 127
6, 12336, Note_off_c, 9, 36, 64
6, 12336, Note_off_c, 9, 42, 64
6, 12384, Note_on_c, 9, 42, 127
6, 12432, Note_off_c, 9, 42, 64
6, 12480, Note_on_c, 9, 38, 127
6, 12480, Note_on_c, 9, 42, 127
6, 12528, Note_off_c, 9, 38, 64
6, 12528, Note_off_c, 9, 42, 64
6, 12576, Note_on_c, 9, 36, 127
6, 12576, Note_on_c, 9, 42, 127
6, 12624, Note_off_c, 9, 36, 64
6, 12624, Note_off_c, 9, 42, 64
6, 12672, Note_on_c, 9, 36, 127
6, 12672, Note_on_c, 9, 42, 127
6, 12720, Note_off_c, 9, 36, 64
6, 12720, Note_off_c, 9, 42, 64
6, 12768, Note_on_c, 9, 36, 127
6, 12768, Note_on_c, 9, 42, 127
6, 12816, Note_off_c, 9, 36, 64
6, 12816, Note_off_c, 9, 42, 64
6, 12864, Note_on_c, 9, 38, 127
6, 12864, Note_on_c, 9, 42, 127
6, 12912, Note_off_c, 9, 38, 64
6, 12912, Note_off_c, 9, 42, 64
6, 12960, Note_on_c, 9, 36, 127
6, 12960, Note_on_c, 9, 42, 127
6, 13008, Note_off_c, 9, 36, 64
6, 13008, Note_off_c, 9, 42, 64
6, 13056, Note_on_c, 9, 36, 127
6, 13056, Note_on_c, 9, 42, 127
6, 13104, Note_off_c, 9, 36, 64
6, 13104, Note_off_c, 9, 42, 64
6, 13152, Note_on_c, 9, 42, 127
6, 13200, Note_off_c, 9, 42, 64
6, 13200, Note_on_c, 9, 42, 127
6, 13248, Note_off_c, 9, 42, 64
6, 13248, Note_on_c, 9, 38, 127
6, 13248, Note_on_c, 9, 46, 127
6, 13296, Note_off_c, 9, 38, 64
6, 13296, Note_off_c, 9, 46, 64
6, 13344, Note_on_c, 9, 36, 127
6, 13344, Note_on_c, 9, 47, 127
6, 13392, Note_off_c, 9, 36, 64
6, 13392, Note_off_c, 9, 47, 64
6, 13440, Note_on_c, 9, 36, 127
6, 13440, Note_on_c, 9, 50, 127
6, 13488, Note_off_c, 9, 36, 64
6, 13488, Note_off_c, 9, 50, 64
6, 13536, Note_on_c, 9, 47, 127
6, 13584, Note_off_c, 9, 47, 64
6, 13632, Note_on_c, 9, 42, 127
6, 13632, Note_on_c, 9, 47, 127
6, 13680, Note_off_c, 9, 42, 64
6, 13680, Note_off_c, 9, 47, 64
6, 13728, Note_on_c, 9, 42, 127
6, 13728, Note_on_c, 9, 41, 127
6, 13776, Note_off_c, 9, 42, 64
6, 13776, Note_off_c, 9, 41, 64
6, 13824, Note_on_c, 9, 36, 127
6, 13824, Note_on_c, 9, 42, 127
6, 13824, Note_on_c, 9, 49, 127
6, 13872, Note_off_c, 9, 36, 64
6, 13872, Note_off_c, 9, 42, 64
6, 13872, Note_off_c, 9, 49, 64
6, 13920, Note_on_c, 9, 42, 127
6, 13968, Note_off_c, 9, 42, 64
6, 14016, Note_on_c, 9, 38, 127
6, 14016, Note_on_c, 9, 42, 127
6, 14064, Note_off_c, 9, 38, 64
6, 14064, Note_off_c, 9, 42, 64
6, 14112, Note_on_c, 9, 36, 127
6, 14112, Note_on_c, 9, 42, 127
6, 14160, Note_off_c, 9, 36, 64
6, 14160, Note_off_c, 9, 42, 64
6, 14208, Note_on_c, 9, 36, 127
6, 14208, Note_on_c, 9, 42, 127
6, 14256, Note_off_c, 9, 36, 64
6, 14256, Note_off_c, 9, 42, 64
6, 14304, Note_on_c, 9, 42, 127
6, 14352, Note_off_c, 9, 42, 64
6, 14400, Note_on_c, 9, 38, 127
6, 14400, Note_on_c, 9, 42, 127
6, 14448, Note_off_c, 9, 38, 64
6, 14448, Note_off_c, 9, 42, 64
6, 14496, Note_on_c, 9, 42, 127
6, 14544, Note_off_c, 9, 42, 64
6, 14592, Note_on_c, 9, 38, 127
6, 14640, Note_off_c, 9, 38, 64
6, 14640, Note_on_c, 9, 38, 127
6, 14688, Note_off_c, 9, 38, 64
6, 14688, Note_on_c, 9, 38, 127
6, 14736, Note_off_c, 9, 38, 64
6, 14784, Note_on_c, 9, 38, 127
6, 14832, Note_off_c, 9, 38, 64
6, 14880, Note_on_c, 9, 38, 127
6, 14928, Note_off_c, 9, 38, 64
6, 14976, Note_on_c, 9, 36, 127
6, 15024, Note_off_c, 9, 36, 64
6, 15072, Note_on_c, 9, 36, 127
6, 15120, Note_off_c, 9, 36, 64
6, 15168, Note_on_c, 9, 38, 127
6, 15216, Note_off_c, 9, 38, 64
6, 15360, Note_on_c, 9, 36, 127
6, 15360, Note_on_c, 9, 42, 127
6, 15408, Note_off_c, 9, 36, 64
6, 15408, Note_off_c, 9, 42, 64
6, 15456, Note_on_c, 9, 42, 127
6, 15504, Note_off_c, 9, 42, 64
6, 15552, Note_on_c, 9, 38, 127
6, 15552, Note_on_c, 9, 42, 127
6, 15600, Note_off_c, 9, 38, 64
6, 15600, Note_off_c, 9, 42, 64
6, 15648, Note_on_c, 9, 36, 127
6, 15648, Note_on_c, 9, 42, 127
6, 15696, Note_off_c, 9, 36, 64
6, 15696, Note_off_c, 9, 42, 64
6, 15744, Note_on_c, 9, 36, 127
6, 15744, Note_on_c, 9, 42, 127
6, 15792, Note_off_c, 9, 36, 64
6, 15792, Note_off_c, 9, 42, 64
6, 15840, Note_on_c, 9, 38, 127
6, 15888, Note_off_c, 9, 38, 64
6, 15888, Note_on_c, 9, 38, 127
6, 15936, Note_off_c, 9, 38, 64
6, 15936, Note_on_c, 9, 38, 127
6, 15984, Note_off_c, 9, 38, 64
6, 15984, Note_on_c, 9, 38, 127
6, 16032, Note_off_c, 9, 38, 64
6, 16032, Note_on_c, 9, 38, 127
6, 16080, Note_off_c, 9, 38, 64
6, 16080, Note_on_c, 9, 38, 127
6, 16128, Note_off_c, 9, 38, 64
6, 16128, Note_on_c, 9, 36, 127
6, 16128, Note_on_c, 9, 42, 127
6, 16176, Note_off_c, 9, 36, 64
6, 16176, Note_off_c, 9, 42, 64
6, 16224, Note_on_c, 9, 42, 127
6, 16272, Note_off_c, 9, 42, 64
6, 16320, Note_on_c, 9, 38, 127
6, 16320, Note_on_c, 9, 46, 127
6, 16368, Note_off_c, 9, 38, 64
6, 16368, Note_off_c, 9, 46, 64
6, 16416, Note_on_c, 9, 36, 127
6, 16464, Note_off_c, 9, 36, 64
6, 16512, Note_on_c, 9, 50, 127
6, 16560, Note_off_c, 9, 50, 64
6, 16656, Note_on_c, 9, 47, 127
6, 16704, Note_off_c, 9, 47, 64
6, 16704, Note_on_c, 9, 47, 127
6, 16752, Note_off_c, 9, 47, 64
6, 16752, Note_on_c, 9, 41, 127
6, 16800, Note_off_c, 9, 41, 64
6, 16800, Note_on_c, 9, 41, 127
6, 16848, Note_off_c, 9, 41, 64
6, 16896, Note_on_c, 9, 36, 127
6, 16896, Note_on_c, 9, 42, 127
6, 16896, Note_on_c, 9, 49, 127
6, 16944, Note_off_c, 9, 36, 64
6, 16944, Note_off_c, 9, 42, 64
6, 16944, Note_off_c, 9, 49, 64
6, 16992, Note_on_c, 9, 42, 127
6, 17040, Note_off_c, 9, 42, 64
6, 17088, Note_on_c, 9, 38, 127
6, 17088, Note_on_c, 9, 42, 127
6, 17136, Note_off_c, 9, 38, 64
6, 17136, Note_off_c, 9, 42, 64
6, 17184, Note_on_c, 9, 36, 127
6, 17184, Note_on_c, 9, 42, 127
6, 17232, Note_off_c, 9, 36, 64
6, 17232, Note_off_c, 9, 42, 64
6, 17280, Note_on_c, 9, 36, 127
6, 17280, Note_on_c, 9, 42, 127
6, 17328, Note_off_c, 9, 36, 64
6, 17328, Note_off_c, 9, 42, 64
6, 17376, Note_on_c, 9, 42, 127
6, 17424, Note_off_c, 9, 42, 64
6, 17472, Note_on_c, 9, 38, 127
6, 17472, Note_on_c, 9, 42, 127
6, 17520, Note_off_c, 9, 38, 64
6, 17520, Note_off_c, 9, 42, 64
6, 17568, Note_on_c, 9, 36, 127
6, 17568, Note_on_c, 9, 42, 127
6, 17616, Note_off_c, 9, 36, 64
6, 17616, Note_off_c, 9, 42, 64
6, 17664, Note_on_c, 9, 36, 127
6, 17664, Note_on_c, 9, 42, 127
6, 17712, Note_off_c, 9, 36, 64
6, 17712, Note_off_c, 9, 42, 64
6, 17760, Note_on_c, 9, 42, 127
6, 17808, Note_off_c, 9, 42, 64
6, 17856, Note_on_c, 9, 38, 127
6, 17856, Note_on_c, 9, 42, 127
6, 17904, Note_off_c, 9, 38, 64
6, 17904, Note_off_c, 9, 42, 64
6, 17952, Note_on_c, 9, 36, 127
6, 17952, Note_on_c, 9, 42, 127
6, 18000, Note_off_c, 9, 36, 64
6, 18000, Note_off_c, 9, 42, 64
6, 18048, Note_on_c, 9, 36, 127
6, 18048, Note_on_c, 9, 42, 127
6, 18096, Note_off_c, 9, 36, 64
6, 18096, Note_off_c, 9, 42, 64
6, 18144, Note_on_c, 9, 36, 127
6, 18144, Note_on_c, 9, 42, 127
6, 18192, Note_off_c, 9, 36, 64
6, 18192, Note_off_c, 9, 42, 64
6, 18240, Note_on_c, 9, 38, 127
6, 18240, Note_on_c, 9, 42, 127
6, 18288, Note_off_c, 9, 38, 64
6, 18288, Note_off_c, 9, 42, 64
6, 18336, Note_on_c, 9, 36, 127
6, 18336, Note_on_c, 9, 42, 127
6, 18384, Note_off_c, 9, 36, 64
6, 18384, Note_off_c, 9, 42, 64
6, 18432, Note_on_c, 9, 36, 127
6, 18432, Note_on_c, 9, 42, 127
6, 18480, Note_off_c, 9, 36, 64
6, 18480, Note_off_c, 9, 42, 64
6, 18528, Note_on_c, 9, 42, 127
6, 18576, Note_off_c, 9, 42, 64
6, 18624, Note_on_c, 9, 38, 127
6, 18624, Note_on_c, 9, 46, 127
6, 18672, Note_off_c, 9, 38, 64
6, 18672, Note_off_c, 9, 46, 64
6, 18720, Note_on_c, 9, 36, 127
6, 18768, Note_off_c, 9, 36, 64
6, 18816, Note_on_c, 9, 50, 127
6, 18864, Note_off_c, 9, 50, 64
6, 18960, Note_on_c, 9, 47, 127
6, 19008, Note_off_c, 9, 47, 64
6, 19008, Note_on_c, 9, 47, 127
6, 19056, Note_off_c, 9, 47, 64
6, 19056, Note_on_c, 9, 41, 127
6, 19104, Note_off_c, 9, 41, 64
6, 19104, Note_on_c, 9, 41, 127
6, 19152, Note_off_c, 9, 41, 64
6, 19200, Note_on_c, 9, 36, 127
6, 19200, Note_on_c, 9, 42, 127
6, 19200, Note_on_c, 9, 49, 127
6, 19248, Note_off_c, 9, 36, 64
6, 19248, Note_off_c, 9, 42, 64
6, 19248, Note_off_c, 9, 49, 64
6, 19296, Note_on_c, 9, 42, 127
6, 19344, Note_off_c, 9, 42, 64
6, 19392, Note_on_c, 9, 38, 127
6, 19392, Note_on_c, 9, 42, 127
6, 19440, Note_off_c, 9, 38, 64
6, 19440, Note_off_c, 9, 42, 64
6, 19488, Note_on_c, 9, 36, 127
6, 19488, Note_on_c, 9, 42, 127
6, 19536, Note_off_c, 9, 36, 64
6, 19536, Note_off_c, 9, 42, 64
6, 19584, Note_on_c, 9, 36, 127
6, 19584, Note_on_c, 9, 42, 127
6, 19632, Note_off_c, 9, 36, 64
6, 19632, Note_off_c, 9, 42, 64
6, 19680, Note_on_c, 9, 42, 127
6, 19728, Note_off_c, 9, 42, 64
6, 19776, Note_on_c, 9, 38, 127
6, 19776, Note_on_c, 9, 42, 127
6, 19824, Note_off_c, 9, 38, 64
6, 19824, Note_off_c, 9, 42, 64
6, 19872, Note_on_c, 9, 36, 127
6, 19872, Note_on_c, 9, 42, 127
6, 19920, Note_off_c, 9, 36, 64
6, 19920, Note_off_c, 9, 42, 64
6, 19968, Note_on_c, 9, 36, 127
6, 19968, Note_on_c, 9, 42, 127
6, 20016, Note_off_c, 9, 36, 64
6, 20016, Note_off_c, 9, 42, 64
6, 20064, Note_on_c, 9, 42, 127
6, 20112, Note_off_c, 9, 42, 64
6, 20160, Note_on_c, 9, 38, 127
6, 20160, Note_on_c, 9, 42, 127
6, 20208, Note_off_c, 9, 38, 64
6, 20208, Note_off_c, 9, 42, 64
6, 20256, Note_on_c, 9, 36, 127
6, 20256, Note_on_c, 9, 42, 127
6, 20304, Note_off_c, 9, 36, 64
6, 20304, Note_off_c, 9, 42, 64
6, 20352, Note_on_c, 9, 36, 127
6, 20352, Note_on_c, 9, 42, 127
6, 20400, Note_off_c, 9, 36, 64
6, 20400, Note_off_c, 9, 42, 64
6, 20448, Note_on_c, 9, 36, 127
6, 20448, Note_on_c, 9, 42, 127
6, 20496, Note_off_c, 9, 36, 64
6, 20496, Note_off_c, 9, 42, 64
6, 20544, Note_on_c, 9, 38, 127
6, 20544, Note_on_c, 9, 42, 127
6, 20592, Note_off_c, 9, 38, 64
6, 20592, Note_off_c, 9, 42, 64
6, 20640, Note_on_c, 9, 36, 127
6, 20640, Note_on_c, 9, 46, 127
6, 20688, Note_off_c, 9, 36, 64
6, 20688, Note_off_c, 9, 46, 64
6, 20736, Note_on_c, 9, 36, 127
6, 20736, Note_on_c, 9, 42, 127
6, 20784, Note_off_c, 9, 36, 64
6, 20784, Note_off_c, 9, 42, 64
6, 20832, Note_on_c, 9, 42, 127
6, 20880, Note_off_c, 9, 42, 64
6, 20928, Note_on_c, 9, 38, 127
6, 20928, Note_on_c, 9, 42, 127
6, 20976, Note_off_c, 9, 38, 64
6, 20976, Note_off_c, 9, 42, 64
6, 21024, Note_on_c, 9, 36, 127
6, 21024, Note_on_c, 9, 42, 127
6, 21072, Note_off_c, 9, 36, 64
6, 21072, Note_off_c, 9, 42, 64
6, 21120, Note_on_c, 9, 36, 127
6, 21120, Note_on_c, 9, 42, 127
6, 21168, Note_off_c, 9, 36, 64
6, 21168, Note_off_c, 9, 42, 64
6, 21216, Note_on_c, 9, 42, 127
6, 21264, Note_off_c, 9, 42, 64
6, 21312, Note_on_c, 9, 38, 127
6, 21312, Note_on_c, 9, 42, 127
6, 21360, Note_off_c, 9, 38, 64
6, 21360, Note_off_c, 9, 42, 64
6, 21408, Note_on_c, 9, 36, 127
6, 21408, Note_on_c, 9, 42, 127
6, 21456, Note_off_c, 9, 36, 64
6, 21456, Note_off_c, 9, 42, 64
6, 21504, Note_on_c, 9, 36, 127
6, 21504, Note_on_c, 9, 42, 127
6, 21552, Note_off_c, 9, 36, 64
6, 21552, Note_off_c, 9, 42, 64
6, 21600, Note_on_c, 9, 42, 127
6, 21648, Note_off_c, 9, 42, 64
6, 21696, Note_on_c, 9, 38, 127
6, 21696, Note_on_c, 9, 42, 127
6, 21744, Note_off_c, 9, 38, 64
6, 21744, Note_off_c, 9, 42, 64
6, 21792, Note_on_c, 9, 36, 127
6, 21792, Note_on_c, 9, 42, 127
6, 21840, Note_off_c, 9, 36, 64
6, 21840, Note_off_c, 9, 42, 64
6, 21888, Note_on_c, 9, 36, 127
6, 21888, Note_on_c, 9, 42, 127
6, 21936, Note_off_c, 9, 36, 64
6, 21936, Note_off_c, 9, 42, 64
6, 21984, Note_on_c, 9, 38, 127
6, 22032, Note_off_c, 9, 38, 64
6, 22032, Note_on_c, 9, 38, 127
6, 22080, Note_off_c, 9, 38, 64
6, 22080, Note_on_c, 9, 38, 127
6, 22128, Note_off_c, 9, 38, 64
6, 22128, Note_on_c, 9, 38, 127
6, 22176, Note_off_c, 9, 38, 64
6, 22176, Note_on_c, 9, 38, 127
6, 22224, Note_off_c, 9, 38, 64
6, 22224, Note_on_c, 9, 38, 127
6, 22272, Note_off_c, 9, 38, 64
6, 22272, Note_on_c, 9, 36, 127
6, 22272, Note_on_c, 9, 42, 127
6, 22272, Note_on_c, 9, 49, 127
6, 22320, Note_off_c, 9, 36, 64
6, 22320, Note_off_c, 9, 42, 64
6, 22320, Note_off_c, 9, 49, 64
6, 22368, Note_on_c, 9, 42, 127
6, 22416, Note_off_c, 9, 42, 64
6, 22464, Note_on_c, 9, 38, 127
6, 22464, Note_on_c, 9, 42, 127
6, 22512, Note_off_c, 9, 38, 64
6, 22512, Note_off_c, 9, 42, 64
6, 22560, Note_on_c, 9, 36, 127
6, 22560, Note_on_c, 9, 42, 127
6, 22608, Note_off_c, 9, 36, 64
6, 22608, Note_off_c, 9, 42, 64
6, 22656, Note_on_c, 9, 36, 127
6, 22656, Note_on_c, 9, 42, 127
6, 22704, Note_off_c, 9, 36, 64
6, 22704, Note_off_c, 9, 42, 64
6, 22752, Note_on_c, 9, 42, 127
6, 22800, Note_off_c, 9, 42, 64
6, 22848, Note_on_c, 9, 38, 127
6, 22848, Note_on_c, 9, 42, 127
6, 22896, Note_off_c, 9, 38, 64
6, 22896, Note_off_c, 9, 42, 64
6, 22944, Note_on_c, 9, 42, 127
6, 22992, Note_off_c, 9, 42, 64
6, 23040, Note_on_c, 9, 36, 127
6, 23040, Note_on_c, 9, 42, 127
6, 23088, Note_off_c, 9, 36, 64
6, 23088, Note_off_c, 9, 42, 64
6, 23136, Note_on_c, 9, 42, 127
6, 23184, Note_off_c, 9, 42, 64
6, 23232, Note_on_c, 9, 38, 127
6, 23232, Note_on_c, 9, 42, 127
6, 23280, Note_off_c, 9, 38, 64
6, 23280, Note_off_c, 9, 42, 64
6, 23328, Note_on_c, 9, 36, 127
6, 23328, Note_on_c, 9, 42, 127
6, 23376, Note_off_c, 9, 36, 64
6, 23376, Note_off_c, 9, 42, 64
6, 23424, Note_on_c, 9, 36, 127
6, 23424, Note_on_c, 9, 42, 127
6, 23472, Note_off_c, 9, 36, 64
6, 23472, Note_off_c, 9, 42, 64
6, 23520, Note_on_c, 9, 42, 127
6, 23568, Note_off_c, 9, 42, 64
6, 23616, Note_on_c, 9, 38, 127
6, 23616, Note_on_c, 9, 42, 127
6, 23616, Note_on_c, 9, 54, 127
6, 23664, Note_off_c, 9, 38, 64
6, 23664, Note_off_c, 9, 42, 64
6, 23664, Note_off_c, 9, 54, 64
6, 23712, Note_on_c, 9, 36, 127
6, 23712, Note_on_c, 9, 46, 127
6, 23760, Note_off_c, 9, 36, 64
6, 23760, Note_off_c, 9, 46, 64
6, 23808, Note_on_c, 9, 36, 127
6, 23808, Note_on_c, 9, 42, 127
6, 23856, Note_off_c, 9, 36, 64
6, 23856, Note_off_c, 9, 42, 64
6, 23904, Note_on_c, 9, 42, 127
6, 23952, Note_off_c, 9, 42, 64
6, 24000, Note_on_c, 9, 38, 127
6, 24000, Note_on_c, 9, 42, 127
6, 24048, Note_off_c, 9, 38, 64
6, 24048, Note_off_c, 9, 42, 64
6, 24096, Note_on_c, 9, 36, 127
6, 24096, Note_on_c, 9, 42, 127
6, 24144, Note_off_c, 9, 36, 64
6, 24144, Note_off_c, 9, 42, 64
6, 24192, Note_on_c, 9, 36, 127
6, 24192, Note_on_c, 9, 42, 127
6, 24240, Note_off_c, 9, 36, 64
6, 24240, Note_off_c, 9, 42, 64
6, 24288, Note_on_c, 9, 42, 127
6, 24336, Note_off_c, 9, 42, 64
6, 24384, Note_on_c, 9, 38, 127
6, 24384, Note_on_c, 9, 42, 127
6, 24432, Note_off_c, 9, 38, 64
6, 24432, Note_off_c, 9, 42, 64
6, 24480, Note_on_c, 9, 42, 127
6, 24528, Note_off_c, 9, 42, 64
6, 24576, Note_on_c, 9, 36, 127
6, 24576, Note_on_c, 9, 42, 127
6, 24624, Note_off_c, 9, 36, 64
6, 24624, Note_off_c, 9, 42, 64
6, 24672, Note_on_c, 9, 42, 127
6, 24720, Note_off_c, 9, 42, 64
6, 24768, Note_on_c, 9, 38, 127
6, 24768, Note_on_c, 9, 42, 127
6, 24816, Note_off_c, 9, 38, 64
6, 24816, Note_off_c, 9, 42, 64
6, 24864, Note_on_c, 9, 36, 127
6, 24864, Note_on_c, 9, 42, 127
6, 24912, Note_off_c, 9, 36, 64
6, 24912, Note_off_c, 9, 42, 64
6, 24960, Note_on_c, 9, 36, 127
6, 24960, Note_on_c, 9, 42, 127
6, 25008, Note_off_c, 9, 36, 64
6, 25008, Note_off_c, 9, 42, 64
6, 25056, Note_on_c, 9, 42, 127
6, 25104, Note_off_c, 9, 42, 64
6, 25152, Note_on_c, 9, 38, 127
6, 25152, Note_on_c, 9, 42, 127
6, 25152, Note_on_c, 9, 54, 127
6, 25200, Note_off_c, 9, 38, 64
6, 25200, Note_off_c, 9, 42, 64
6, 25200, Note_off_c, 9, 54, 64
6, 25248, Note_on_c, 9, 36, 127
6, 25248, Note_on_c, 9, 42, 127
6, 25296, Note_off_c, 9, 36, 64
6, 25296, Note_off_c, 9, 42, 64
6, 25344, Note_on_c, 9, 36, 127
6, 25344, Note_on_c, 9, 42, 127
6, 25392, Note_off_c, 9, 36, 64
6, 25392, Note_off_c, 9, 42, 64
6, 25440, Note_on_c, 9, 42, 127
6, 25488, Note_off_c, 9, 42, 64
6, 25536, Note_on_c, 9, 38, 127
6, 25536, Note_on_c, 9, 42, 127
6, 25584, Note_off_c, 9, 38, 64
6, 25584, Note_off_c, 9, 42, 64
6, 25632, Note_on_c, 9, 36, 127
6, 25632, Note_on_c, 9, 42, 127
6, 25680, Note_off_c, 9, 36, 64
6, 25680, Note_off_c, 9, 42, 64
6, 25728, Note_on_c, 9, 36, 127
6, 25728, Note_on_c, 9, 38, 127
6, 25728, Note_on_c, 9, 42, 127
6, 25776, Note_off_c, 9, 36, 64
6, 25776, Note_off_c, 9, 38, 64
6, 25776, Note_off_c, 9, 42, 64
6, 25776, Note_on_c, 9, 38, 127
6, 25824, Note_off_c, 9, 38, 64
6, 25824, Note_on_c, 9, 38, 127
6, 25872, Note_off_c, 9, 38, 64
6, 25872, Note_on_c, 9, 38, 127
6, 25920, Note_off_c, 9, 38, 64
6, 25920, Note_on_c, 9, 47, 127
6, 25968, Note_off_c, 9, 47, 64
6, 25968, Note_on_c, 9, 47, 127
6, 26016, Note_off_c, 9, 47, 64
6, 26016, Note_on_c, 9, 47, 127
6, 26064, Note_off_c, 9, 47, 64
6, 26064, Note_on_c, 9, 47, 127
6, 26112, Note_off_c, 9, 47, 64
6, 26112, Note_on_c, 9, 36, 127
6, 26112, Note_on_c, 9, 42, 127
6, 26112, Note_on_c, 9, 49, 127
6, 26160, Note_off_c, 9, 36, 64
6, 26160, Note_off_c, 9, 42, 64
6, 26160, Note_off_c, 9, 49, 64
6, 26208, Note_on_c, 9, 42, 127
6, 26256, Note_off_c, 9, 42, 64
6, 26304, Note_on_c, 9, 38, 127
6, 26304, Note_on_c, 9, 42, 127
6, 26352, Note_off_c, 9, 38, 64
6, 26352, Note_off_c, 9, 42, 64
6, 26400, Note_on_c, 9, 36, 127
6, 26400, Note_on_c, 9, 42, 127
6, 26448, Note_off_c, 9, 36, 64
6, 26448, Note_off_c, 9, 42, 64
6, 26496, Note_on_c, 9, 36, 127
6, 26496, Note_on_c, 9, 42, 127
6, 26544, Note_off_c, 9, 36, 64
6, 26544, Note_off_c, 9, 42, 64
6, 26592, Note_on_c, 9, 42, 127
6, 26640, Note_off_c, 9, 42, 64
6, 26688, Note_on_c, 9, 38, 127
6, 26688, Note_on_c, 9, 42, 127
6, 26736, Note_off_c, 9, 38, 64
6, 26736, Note_off_c, 9, 42, 64
6, 26784, Note_on_c, 9, 36, 127
6, 26784, Note_on_c, 9, 42, 127
6, 26832, Note_off_c, 9, 36, 64
6, 26832, Note_off_c, 9, 42, 64
6, 26880, Note_on_c, 9, 36, 127
6, 26880, Note_on_c, 9, 42, 127
6, 26928, Note_off_c, 9, 36, 64
6, 26928, Note_off_c, 9, 42, 64
6, 26976, Note_on_c, 9, 42, 127
6, 27024, Note_off_c, 9, 42, 64
6, 27072, Note_on_c, 9, 38, 127
6, 27072, Note_on_c, 9, 42, 127
6, 27120, Note_off_c, 9, 38, 64
6, 27120, Note_off_c, 9, 42, 64
6, 27168, Note_on_c, 9, 36, 127
6, 27168, Note_on_c, 9, 42, 127
6, 27216, Note_off_c, 9, 36, 64
6, 27216, Note_off_c, 9, 42, 64
6, 27264, Note_on_c, 9, 36, 127
6, 27264, Note_on_c, 9, 38, 127
6, 27264, Note_on_c, 9, 42, 127
6, 27312, Note_off_c, 9, 36, 64
6, 27312, Note_off_c, 9, 38, 64
6, 27312, Note_off_c, 9, 42, 64
6, 27312, Note_on_c, 9, 38, 127
6, 27360, Note_off_c, 9, 38, 64
6, 27360, Note_on_c, 9, 38, 127
6, 27408, Note_off_c, 9, 38, 64
6, 27408, Note_on_c, 9, 38, 127
6, 27456, Note_off_c, 9, 38, 64
6, 27456, Note_on_c, 9, 47, 127
6, 27504, Note_off_c, 9, 47, 64
6, 27504, Note_on_c, 9, 47, 127
6, 27552, Note_off_c, 9, 47, 64
6, 27552, Note_on_c, 9, 47, 127
6, 27600, Note_off_c, 9, 47, 64
6, 27600, Note_on_c, 9, 47, 127
6, 27648, Note_off_c, 9, 47, 64
6, 27648, Note_on_c, 9, 36, 127
6, 27648, Note_on_c, 9, 42, 127
6, 27648, Note_on_c, 9, 49, 127
6, 27696, Note_off_c, 9, 36, 64
6, 27696, Note_off_c, 9, 42, 64
6, 27696, Note_off_c, 9, 49, 64
6, 27744, Note_on_c, 9, 42, 127
6, 27792, Note_off_c, 9, 42, 64
6, 27840, Note_on_c, 9, 38, 127
6, 27840, Note_on_c, 9, 42, 127
6, 27888, Note_off_c, 9, 38, 64
6, 27888, Note_off_c, 9, 42, 64
6, 27936, Note_on_c, 9, 36, 127
6, 27936, Note_on_c, 9, 42, 127
6, 27984, Note_off_c, 9, 36, 64
6, 27984, Note_off_c, 9, 42, 64
6, 28032, Note_on_c, 9, 36, 127
6, 28032, Note_on_c, 9, 42, 127
6, 28080, Note_off_c, 9, 36, 64
6, 28080, Note_off_c, 9, 42, 64
6, 28128, Note_on_c, 9, 42, 127
6, 28176, Note_off_c, 9, 42, 64
6, 28224, Note_on_c, 9, 38, 127
6, 28224, Note_on_c, 9, 42, 127
6, 28272, Note_off_c, 9, 38, 64
6, 28272, Note_off_c, 9, 42, 64
6, 28320, Note_on_c, 9, 42, 127
6, 28368, Note_off_c, 9, 42, 64
6, 28416, Note_on_c, 9, 36, 127
6, 28416, Note_on_c, 9, 42, 127
6, 28464, Note_off_c, 9, 36, 64
6, 28464, Note_off_c, 9, 42, 64
6, 28512, Note_on_c, 9, 42, 127
6, 28560, Note_off_c, 9, 42, 64
6, 28608, Note_on_c, 9, 38, 127
6, 28608, Note_on_c, 9, 42, 127
6, 28656, Note_off_c, 9, 38, 64
6, 28656, Note_off_c, 9, 42, 64
6, 28704, Note_on_c, 9, 36, 127
6, 28704, Note_on_c, 9, 42, 127
6, 28752, Note_off_c, 9, 36, 64
6, 28752, Note_off_c, 9, 42, 64
6, 28800, Note_on_c, 9, 36, 127
6, 28800, Note_on_c, 9, 42, 127
6, 28848, Note_off_c, 9, 36, 64
6, 28848, Note_off_c, 9, 42, 64
6, 28896, Note_on_c, 9, 42, 127
6, 28944, Note_off_c, 9, 42, 64
6, 28992, Note_on_c, 9, 38, 127
6, 28992, Note_on_c, 9, 42, 127
6, 28992, Note_on_c, 9, 54, 127
6, 29040, Note_off_c, 9, 38, 64
6, 29040, Note_off_c, 9, 42, 64
6, 29040, Note_off_c, 9, 54, 64
6, 29088, Note_on_c, 9, 36, 127
6, 29088, Note_on_c, 9, 42, 127
6, 29136, Note_off_c, 9, 36, 64
6, 29136, Note_off_c, 9, 42, 64
6, 29184, Note_on_c, 9, 36, 127
6, 29184, Note_on_c, 9, 42, 127
6, 29232, Note_off_c, 9, 36, 64
6, 29232, Note_off_c, 9, 42, 64
6, 29280, Note_on_c, 9, 42, 127
6, 29328, Note_off_c, 9, 42, 64
6, 29376, Note_on_c, 9, 38, 127
6, 29376, Note_on_c, 9, 46, 127
6, 29424, Note_off_c, 9, 38, 64
6, 29424, Note_off_c, 9, 46, 64
6, 29472, Note_on_c, 9, 36, 127
6, 29520, Note_off_c, 9, 36, 64
6, 29568, Note_on_c, 9, 50, 127
6, 29616, Note_off_c, 9, 50, 64
6, 29712, Note_on_c, 9, 47, 127
6, 29760, Note_off_c, 9, 47, 64
6, 29760, Note_on_c, 9, 47, 127
6, 29808, Note_off_c, 9, 47, 64
6, 29808, Note_on_c, 9, 41, 127
6, 29856, Note_off_c, 9, 41, 64
6, 29856, Note_on_c, 9, 41, 127
6, 29904, Note_off_c, 9, 41, 64
6, 29952, Note_on_c, 9, 36, 127
6, 29952, Note_on_c, 9, 42, 127
6, 29952, Note_on_c, 9, 49, 127
6, 30000, Note_off_c, 9, 36, 64
6, 30000, Note_off_c, 9, 42, 64
6, 30000, Note_off_c, 9, 49, 64
6, 30048, Note_on_c, 9, 42, 127
6, 30096, Note_off_c, 9, 42, 64
6, 30144, Note_on_c, 9, 38, 127
6, 30144, Note_on_c, 9, 42, 127
6, 30192, Note_off_c, 9, 38, 64
6, 30192, Note_off_c, 9, 42, 64
6, 30240, Note_on_c, 9, 36, 127
6, 30240, Note_on_c, 9, 42, 127
6, 30288, Note_off_c, 9, 36, 64
6, 30288, Note_off_c, 9, 42, 64
6, 30336, Note_on_c, 9, 36, 127
6, 30336, Note_on_c, 9, 42, 127
6, 30384, Note_off_c, 9, 36, 64
6, 30384, Note_off_c, 9, 42, 64
6, 30432, Note_on_c, 9, 42, 127
6, 30480, Note_off_c, 9, 42, 64
6, 30528, Note_on_c, 9, 38, 127
6, 30528, Note_on_c, 9, 42, 127
6, 30576, Note_off_c, 9, 38, 64
6, 30576, Note_off_c, 9, 42, 64
6, 30624, Note_on_c, 9, 36, 127
6, 30624, Note_on_c, 9, 42, 127
6, 30672, Note_off_c, 9, 36, 64
6, 30672, Note_off_c, 9, 42, 64
6, 30720, Note_on_c, 9, 36, 127
6, 30720, Note_on_c, 9, 42, 127
6, 30768, Note_off_c, 9, 36, 64
6, 30768, Note_off_c, 9, 42, 64
6, 30816, Note_on_c, 9, 42, 127
6, 30864, Note_off_c, 9, 42, 64
6, 30912, Note_on_c, 9, 38, 127
6, 30912, Note_on_c, 9, 42, 127
6, 30960, Note_off_c, 9, 38, 64
6, 30960, Note_off_c, 9, 42, 64
6, 31008, Note_on_c, 9, 36, 127
6, 31008, Note_on_c, 9, 42, 127
6, 31056, Note_off_c, 9, 36, 64
6, 31056, Note_off_c, 9, 42, 64
6, 31104, Note_on_c, 9, 36, 127
6, 31104, Note_on_c, 9, 42, 127
6, 31152, Note_off_c, 9, 36, 64
6, 31152, Note_off_c, 9, 42, 64
6, 31200, Note_on_c, 9, 36, 127
6, 31200, Note_on_c, 9, 42, 127
6, 31248, Note_off_c, 9, 36, 64
6, 31248, Note_off_c, 9, 42, 64
6, 31296, Note_on_c, 9, 38, 127
6, 31296, Note_on_c, 9, 42, 127
6, 31344, Note_off_c, 9, 38, 64
6, 31344, Note_off_c, 9, 42, 64
6, 31392, Note_on_c, 9, 36, 127
6, 31392, Note_on_c, 9, 46, 127
6, 31440, Note_off_c, 9, 36, 64
6, 31440, Note_off_c, 9, 46, 64
6, 31488, Note_on_c, 9, 36, 127
6, 31488, Note_on_c, 9, 42, 127
6, 31536, Note_off_c, 9, 36, 64
6, 31536, Note_off_c, 9, 42, 64
6, 31584, Note_on_c, 9, 42, 127
6, 31632, Note_off_c, 9, 42, 64
6, 31680, Note_on_c, 9, 38, 127
6, 31680, Note_on_c, 9, 42, 127
6, 31728, Note_off_c, 9, 38, 64
6, 31728, Note_off_c, 9, 42, 64
6, 31776, Note_on_c, 9, 36, 127
6, 31776, Note_on_c, 9, 42, 127
6, 31824, Note_off_c, 9, 36, 64
6, 31824, Note_off_c, 9, 42, 64
6, 31824, Note_on_c, 9, 42, 127
6, 31872, Note_off_c, 9, 42, 64
6, 31872, Note_on_c, 9, 36, 127
6, 31872, Note_on_c, 9, 42, 127
6, 31920, Note_off_c, 9, 36, 64
6, 31920, Note_off_c, 9, 42, 64
6, 31968, Note_on_c, 9, 42, 127
6, 32016, Note_off_c, 9, 42, 64
6, 32064, Note_on_c, 9, 38, 127
6, 32064, Note_on_c, 9, 42, 127
6, 32112, Note_off_c, 9, 38, 64
6, 32112, Note_off_c, 9, 42, 64
6, 32160, Note_on_c, 9, 36, 127
6, 32160, Note_on_c, 9, 42, 127
6, 32208, Note_off_c, 9, 36, 64
6, 32208, Note_off_c, 9, 42, 64
6, 32256, Note_on_c, 9, 36, 127
6, 32256, Note_on_c, 9, 42, 127
6, 32304, Note_off_c, 9, 36, 64
6, 32304, Note_off_c, 9, 42, 64
6, 32352, Note_on_c, 9, 42, 127
6, 32400, Note_off_c, 9, 42, 64
6, 32448, Note_on_c, 9, 38, 127
6, 32448, Note_on_c, 9, 42, 127
6, 32496, Note_off_c, 9, 38, 64
6, 32496, Note_off_c, 9, 42, 64
6, 32544, Note_on_c, 9, 36, 127
6, 32544, Note_on_c, 9, 42, 127
6, 32592, Note_off_c, 9, 36, 64
6, 32592, Note_off_c, 9, 42, 64
6, 32640, Note_on_c, 9, 36, 127
6, 32640, Note_on_c, 9, 42, 127
6, 32688, Note_off_c, 9, 36, 64
6, 32688, Note_off_c, 9, 42, 64
6, 32736, Note_on_c, 9, 36, 127
6, 32736, Note_on_c, 9, 42, 127
6, 32784, Note_off_c, 9, 36, 64
6, 32784, Note_off_c, 9, 42, 64
6, 32832, Note_on_c, 9, 38, 127
6, 32832, Note_on_c, 9, 42, 127
6, 32880, Note_off_c, 9, 38, 64
6, 32880, Note_off_c, 9, 42, 64
6, 32928, Note_on_c, 9, 36, 127
6, 32928, Note_on_c, 9, 46, 127
6, 32976, Note_off_c, 9, 36, 64
6, 32976, Note_off_c, 9, 46, 64
6, 33024, Note_on_c, 9, 36, 127
6, 33024, Note_on_c, 9, 42, 127
6, 33072, Note_off_c, 9, 36, 64
6, 33072, Note_off_c, 9, 42, 64
6, 33120, Note_on_c, 9, 42, 127
6, 33168, Note_off_c, 9, 42, 64
6, 33216, Note_on_c, 9, 38, 127
6, 33216, Note_on_c, 9, 42, 127
6, 33264, Note_off_c, 9, 38, 64
6, 33264, Note_off_c, 9, 42, 64
6, 33312, Note_on_c, 9, 36, 127
6, 33312, Note_on_c, 9, 42, 127
6, 33360, Note_off_c, 9, 36, 64
6, 33360, Note_off_c, 9, 42, 64
6, 33408, Note_on_c, 9, 36, 127
6, 33408, Note_on_c, 9, 42, 127
6, 33456, Note_off_c, 9, 36, 64
6, 33456, Note_off_c, 9, 42, 64
6, 33504, Note_on_c, 9, 42, 127
6, 33552, Note_off_c, 9, 42, 64
6, 33600, Note_on_c, 9, 38, 127
6, 33600, Note_on_c, 9, 42, 127
6, 33648, Note_off_c, 9, 38, 64
6, 33648, Note_off_c, 9, 42, 64
6, 33696, Note_on_c, 9, 36, 127
6, 33696, Note_on_c, 9, 42, 127
6, 33744, Note_off_c, 9, 36, 64
6, 33744, Note_off_c, 9, 42, 64
6, 33792, Note_on_c, 9, 36, 127
6, 33792, Note_on_c, 9, 42, 127
6, 33840, Note_off_c, 9, 36, 64
6, 33840, Note_off_c, 9, 42, 64
6, 33888, Note_on_c, 9, 42, 127
6, 33936, Note_off_c, 9, 42, 64
6, 33984, Note_on_c, 9, 38, 127
6, 33984, Note_on_c, 9, 42, 127
6, 34032, Note_off_c, 9, 38, 64
6, 34032, Note_off_c, 9, 42, 64
6, 34080, Note_on_c, 9, 36, 127
6, 34080, Note_on_c, 9, 42, 127
6, 34128, Note_off_c, 9, 36, 64
6, 34128, Note_off_c, 9, 42, 64
6, 34176, Note_on_c, 9, 36, 127
6, 34176, Note_on_c, 9, 38, 127
6, 34176, Note_on_c, 9, 42, 127
6, 34224, Note_off_c, 9, 36, 64
6, 34224, Note_off_c, 9, 38, 64
6, 34224, Note_off_c, 9, 42, 64
6, 34224, Note_on_c, 9, 38, 127
6, 34272, Note_off_c, 9, 38, 64
6, 34272, Note_on_c, 9, 38, 127
6, 34320, Note_off_c, 9, 38, 64
6, 34320, Note_on_c, 9, 38, 127
6, 34368, Note_off_c, 9, 38, 64
6, 34368, Note_on_c, 9, 47, 127
6, 34416, Note_off_c, 9, 47, 64
6, 34416, Note_on_c, 9, 47, 127
6, 34464, Note_off_c, 9, 47, 64
6, 34464, Note_on_c, 9, 47, 127
6, 34512, Note_off_c, 9, 47, 64
6, 34512, Note_on_c, 9, 47, 127
6, 34560, Note_off_c, 9, 47, 64
6, 34560, Note_on_c, 9, 36, 127
6, 34560, Note_on_c, 9, 42, 127
6, 34560, Note_on_c, 9, 49, 127
6, 34608, Note_off_c, 9, 36, 64
6, 34608, Note_off_c, 9, 42, 64
6, 34608, Note_off_c, 9, 49, 64
6, 34656, Note_on_c, 9, 42, 127
6, 34704, Note_off_c, 9, 42, 64
6, 34752, Note_on_c, 9, 38, 127
6, 34752, Note_on_c, 9, 42, 127
6, 34800, Note_off_c, 9, 38, 64
6, 34800, Note_off_c, 9, 42, 64
6, 34848, Note_on_c, 9, 36, 127
6, 34848, Note_on_c, 9, 42, 127
6, 34896, Note_off_c, 9, 36, 64
6, 34896, Note_off_c, 9, 42, 64
6, 34944, Note_on_c, 9, 36, 127
6, 34944, Note_on_c, 9, 42, 127
6, 34992, Note_off_c, 9, 36, 64
6, 34992, Note_off_c, 9, 42, 64
6, 35040, Note_on_c, 9, 42, 127
6, 35088, Note_off_c, 9, 42, 64
6, 35136, Note_on_c, 9, 38, 127
6, 35136, Note_on_c, 9, 42, 127
6, 35184, Note_off_c, 9, 38, 64
6, 35184, Note_off_c, 9, 42, 64
6, 35232, Note_on_c, 9, 42, 127
6, 35280, Note_off_c, 9, 42, 64
6, 35328, Note_on_c, 9, 36, 127
6, 35328, Note_on_c, 9, 42, 127
6, 35376, Note_off_c, 9, 36, 64
6, 35376, Note_off_c, 9, 42, 64
6, 35424, Note_on_c, 9, 42, 127
6, 35472, Note_off_c, 9, 42, 64
6, 35520, Note_on_c, 9, 38, 127
6, 35520, Note_on_c, 9, 42, 127
6, 35568, Note_off_c, 9, 38, 64
6, 35568, Note_off_c, 9, 42, 64
6, 35616, Note_on_c, 9, 36, 127
6, 35616, Note_on_c, 9, 42, 127
6, 35664, Note_off_c, 9, 36, 64
6, 35664, Note_off_c, 9, 42, 64
6, 35712, Note_on_c, 9, 36, 127
6, 35712, Note_on_c, 9, 42, 127
6, 35760, Note_off_c, 9, 36, 64
6, 35760, Note_off_c, 9, 42, 64
6, 35808, Note_on_c, 9, 38, 127
6, 35856, Note_off_c, 9, 38, 64
6, 35856, Note_on_c, 9, 38, 127
6, 35904, Note_off_c, 9, 38, 64
6, 35904, Note_on_c, 9, 38, 127
6, 35952, Note_off_c, 9, 38, 64
6, 35952, Note_on_c, 9, 38, 127
6, 36000, Note_off_c, 9, 38, 64
6, 36000, Note_on_c, 9, 38, 127
6, 36048, Note_off_c, 9, 38, 64
6, 36048, Note_on_c, 9, 38, 127
6, 36096, Note_off_c, 9, 38, 64
6, 36096, Note_on_c, 9, 36, 127
6, 36096, Note_on_c, 9, 42, 127
6, 36144, Note_off_c, 9, 36, 64
6, 36144, Note_off_c, 9, 42, 64
6, 36192, Note_on_c, 9, 42, 127
6, 36240, Note_off_c, 9, 42, 64
6, 36288, Note_on_c, 9, 38, 127
6, 36288, Note_on_c, 9, 42, 127
6, 36336, Note_off_c, 9, 38, 64
6, 36336, Note_off_c, 9, 42, 64
6, 36384, Note_on_c, 9, 36, 127
6, 36384, Note_on_c, 9, 42, 127
6, 36432, Note_off_c, 9, 36, 64
6, 36432, Note_off_c, 9, 42, 64
6, 36480, Note_on_c, 9, 36, 127
6, 36480, Note_on_c, 9, 38, 127
6, 36480, Note_on_c, 9, 42, 127
6, 36528, Note_off_c, 9, 36, 64
6, 36528, Note_off_c, 9, 38, 64
6, 36528, Note_off_c, 9, 42, 64
6, 36528, Note_on_c, 9, 38, 127
6, 36576, Note_off_c, 9, 38, 64
6, 36576, Note_on_c, 9, 38, 127
6, 36624, Note_off_c, 9, 38, 64
6, 36624, Note_on_c, 9, 38, 127
6, 36672, Note_off_c, 9, 38, 64
6, 36672, Note_on_c, 9, 47, 127
6, 36720, Note_off_c, 9, 47, 64
6, 36720, Note_on_c, 9, 47, 127
6, 36768, Note_off_c, 9, 47, 64
6, 36768, Note_on_c, 9, 47, 127
6, 36816, Note_off_c, 9, 47, 64
6, 36816, Note_on_c, 9, 47, 127
6, 36864, Note_off_c, 9, 47, 64
6, 36864, Note_on_c, 9, 36, 127
6, 36864, Note_on_c, 9, 42, 127
6, 36864, Note_on_c, 9, 49, 127
6, 36912, Note_off_c, 9, 36, 64
6, 36912, Note_off_c, 9, 42, 64
6, 36912, Note_off_c, 9, 49, 64
6, 36960, Note_on_c, 9, 42, 127
6, 37008, Note_off_c, 9, 42, 64
6, 37056, Note_on_c, 9, 38, 127
6, 37056, Note_on_c, 9, 42, 127
6, 37104, Note_off_c, 9, 38, 64
6, 37104, Note_off_c, 9, 42, 64
6, 37152, Note_on_c, 9, 36, 127
6, 37152, Note_on_c, 9, 42, 127
6, 37200, Note_off_c, 9, 36, 64
6, 37200, Note_off_c, 9, 42, 64
6, 37248, Note_on_c, 9, 36, 127
6, 37248, Note_on_c, 9, 42, 127
6, 37296, Note_off_c, 9, 36, 64
6, 37296, Note_off_c, 9, 42, 64
6, 37344, Note_on_c, 9, 42, 127
6, 37392, Note_off_c, 9, 42, 64
6, 37440, Note_on_c, 9, 38, 127
6, 37440, Note_on_c, 9, 42, 127
6, 37488, Note_off_c, 9, 38, 64
6, 37488, Note_off_c, 9, 42, 64
6, 37536, Note_on_c, 9, 36, 127
6, 37536, Note_on_c, 9, 42, 127
6, 37584, Note_off_c, 9, 36, 64
6, 37584, Note_off_c, 9, 42, 64
6, 37632, Note_on_c, 9, 36, 127
6, 37632, Note_on_c, 9, 42, 127
6, 37680, Note_off_c, 9, 36, 64
6, 37680, Note_off_c, 9, 42, 64
6, 37728, Note_on_c, 9, 42, 127
6, 37776, Note_off_c, 9, 42, 64
6, 37824, Note_on_c, 9, 38, 127
6, 37824, Note_on_c, 9, 42, 127
6, 37872, Note_off_c, 9, 38, 64
6, 37872, Note_off_c, 9, 42, 64
6, 37920, Note_on_c, 9, 36, 127
6, 37920, Note_on_c, 9, 42, 127
6, 37968, Note_off_c, 9, 36, 64
6, 37968, Note_off_c, 9, 42, 64
6, 38016, Note_on_c, 9, 36, 127
6, 38016, Note_on_c, 9, 42, 127
6, 38064, Note_off_c, 9, 36, 64
6, 38064, Note_off_c, 9, 42, 64
6, 38112, Note_on_c, 9, 36, 127
6, 38112, Note_on_c, 9, 42, 127
6, 38160, Note_off_c, 9, 36, 64
6, 38160, Note_off_c, 9, 42, 64
6, 38208, Note_on_c, 9, 38, 127
6, 38208, Note_on_c, 9, 42, 127
6, 38256, Note_off_c, 9, 38, 64
6, 38256, Note_off_c, 9, 42, 64
6, 38304, Note_on_c, 9, 36, 127
6, 38304, Note_on_c, 9, 46, 127
6, 38352, Note_off_c, 9, 36, 64
6, 38352, Note_off_c, 9, 46, 64
6, 38400, Note_on_c, 9, 36, 127
6, 38400, Note_on_c, 9, 42, 127
6, 38448, Note_off_c, 9, 36, 64
6, 38448, Note_off_c, 9, 42, 64
6, 38496, Note_on_c, 9, 42, 127
6, 38544, Note_off_c, 9, 42, 64
6, 38592, Note_on_c, 9, 38, 127
6, 38592, Note_on_c, 9, 42, 127
6, 38640, Note_off_c, 9, 38, 64
6, 38640, Note_off_c, 9, 42, 64
6, 38688, Note_on_c, 9, 36, 127
6, 38688, Note_on_c, 9, 42, 127
6, 38736, Note_off_c, 9, 36, 64
6, 38736, Note_off_c, 9, 42, 64
6, 38784, Note_on_c, 9, 36, 127
6, 38784, Note_on_c, 9, 42, 127
6, 38832, Note_off_c, 9, 36, 64
6, 38832, Note_off_c, 9, 42, 64
6, 38880, Note_on_c, 9, 42, 127
6, 38928, Note_off_c, 9, 42, 64
6, 38976, Note_on_c, 9, 38, 127
6, 38976, Note_on_c, 9, 42, 127
6, 39024, Note_off_c, 9, 38, 64
6, 39024, Note_off_c, 9, 42, 64
6, 39072, Note_on_c, 9, 36, 127
6, 39072, Note_on_c, 9, 42, 127
6, 39120, Note_off_c, 9, 36, 64
6, 39120, Note_off_c, 9, 42, 64
6, 39168, Note_on_c, 9, 36, 127
6, 39168, Note_on_c, 9, 42, 127
6, 39216, Note_off_c, 9, 36, 64
6, 39216, Note_off_c, 9, 42, 64
6, 39264, Note_on_c, 9, 42, 127
6, 39312, Note_off_c, 9, 42, 64
6, 39360, Note_on_c, 9, 38, 127
6, 39360, Note_on_c, 9, 42, 127
6, 39408, Note_off_c, 9, 38, 64
6, 39408, Note_off_c, 9, 42, 64
6, 39456, Note_on_c, 9, 36, 127
6, 39456, Note_on_c, 9, 42, 127
6, 39504, Note_off_c, 9, 36, 64
6, 39504, Note_off_c, 9, 42, 64
6, 39552, Note_on_c, 9, 36, 127
6, 39552, Note_on_c, 9, 42, 127
6, 39600, Note_off_c, 9, 36, 64
6, 39600, Note_off_c, 9, 42, 64
6, 39648, Note_on_c, 9, 36, 127
6, 39648, Note_on_c, 9, 42, 127
6, 39696, Note_off_c, 9, 36, 64
6, 39696, Note_off_c, 9, 42, 64
6, 39744, Note_on_c, 9, 38, 127
6, 39744, Note_on_c, 9, 42, 127
6, 39792, Note_off_c, 9, 38, 64
6, 39792, Note_off_c, 9, 42, 64
6, 39840, Note_on_c, 9, 36, 127
6, 39840, Note_on_c, 9, 42, 127
6, 39888, Note_off_c, 9, 36, 64
6, 39888, Note_off_c, 9, 42, 64
6, 39936, Note_on_c, 9, 36, 127
6, 39936, Note_on_c, 9, 42, 127
6, 39984, Note_off_c, 9, 36, 64
6, 39984, Note_off_c, 9, 42, 64
6, 39984, Note_on_c, 9, 42, 127
6, 40032, Note_off_c, 9, 42, 64
6, 40032, Note_on_c, 9, 42, 127
6, 40080, Note_off_c, 9, 42, 64
6, 40128, Note_on_c, 9, 38, 127
6, 40128, Note_on_c, 9, 42, 127
6, 40176, Note_off_c, 9, 38, 64
6, 40176, Note_off_c, 9, 42, 64
6, 40224, Note_on_c, 9, 36, 127
6, 40224, Note_on_c, 9, 42, 127
6, 40272, Note_off_c, 9, 36, 64
6, 40272, Note_off_c, 9, 42, 64
6, 40320, Note_on_c, 9, 36, 127
6, 40320, Note_on_c, 9, 42, 127
6, 40368, Note_off_c, 9, 36, 64
6, 40368, Note_off_c, 9, 42, 64
6, 40416, Note_on_c, 9, 41, 127
6, 40464, Note_off_c, 9, 41, 64
6, 40512, Note_on_c, 9, 38, 127
6, 40512, Note_on_c, 9, 42, 127
6, 40560, Note_off_c, 9, 38, 64
6, 40560, Note_off_c, 9, 42, 64
6, 40608, Note_on_c, 9, 36, 127
6, 40608, Note_on_c, 9, 42, 127
6, 40656, Note_off_c, 9, 36, 64
6, 40656, Note_off_c, 9, 42, 64
6, 40704, Note_on_c, 9, 36, 127
6, 40704, Note_on_c, 9, 42, 127
6, 40752, Note_off_c, 9, 36, 64
6, 40752, Note_off_c, 9, 42, 64
6, 40800, Note_on_c, 9, 42, 127
6, 40848, Note_off_c, 9, 42, 64
6, 40896, Note_on_c, 9, 38, 127
6, 40896, Note_on_c, 9, 42, 127
6, 40944, Note_off_c, 9, 38, 64
6, 40944, Note_off_c, 9, 42, 64
6, 40992, Note_on_c, 9, 36, 127
6, 40992, Note_on_c, 9, 42, 127
6, 41040, Note_off_c, 9, 36, 64
6, 41040, Note_off_c, 9, 42, 64
6, 41088, Note_on_c, 9, 36, 127
6, 41088, Note_on_c, 9, 42, 127
6, 41136, Note_off_c, 9, 36, 64
6, 41136, Note_off_c, 9, 42, 64
6, 41184, Note_on_c, 9, 38, 127
6, 41232, Note_off_c, 9, 38, 64
6, 41232, Note_on_c, 9, 38, 127
6, 41280, Note_off_c, 9, 38, 64
6, 41280, Note_on_c, 9, 38, 127
6, 41328, Note_off_c, 9, 38, 64
6, 41328, Note_on_c, 9, 38, 127
6, 41376, Note_off_c, 9, 38, 64
6, 41376, Note_on_c, 9, 38, 127
6, 41424, Note_off_c, 9, 38, 64
6, 41424, Note_on_c, 9, 38, 127
6, 41472, Note_off_c, 9, 38, 64
6, 41472, Note_on_c, 9, 36, 127
6, 41472, Note_on_c, 9, 42, 127
6, 41472, Note_on_c, 9, 49, 127
6, 41520, Note_off_c, 9, 36, 64
6, 41520, Note_off_c, 9, 42, 64
6, 41520, Note_off_c, 9, 49, 64
6, 41568, Note_on_c, 9, 42, 127
6, 41616, Note_off_c, 9, 42, 64
6, 41664, Note_on_c, 9, 38, 127
6, 41664, Note_on_c, 9, 42, 127
6, 41712, Note_off_c, 9, 38, 64
6, 41712, Note_off_c, 9, 42, 64
6, 41760, Note_on_c, 9, 36, 127
6, 41760, Note_on_c, 9, 42, 127
6, 41808, Note_off_c, 9, 36, 64
6, 41808, Note_off_c, 9, 42, 64
6, 41856, Note_on_c, 9, 36, 127
6, 41856, Note_on_c, 9, 42, 127
6, 41904, Note_off_c, 9, 36, 64
6, 41904, Note_off_c, 9, 42, 64
6, 41952, Note_on_c, 9, 42, 127
6, 42000, Note_off_c, 9, 42, 64
6, 42048, Note_on_c, 9, 38, 127
6, 42048, Note_on_c, 9, 42, 127
6, 42096, Note_off_c, 9, 38, 64
6, 42096, Note_off_c, 9, 42, 64
6, 42144, Note_on_c, 9, 42, 127
6, 42192, Note_off_c, 9, 42, 64
6, 42240, Note_on_c, 9, 38, 127
6, 42240, Note_on_c, 9, 49, 127
6, 42288, Note_off_c, 9, 38, 64
6, 42288, Note_off_c, 9, 49, 64
6, 42336, Note_on_c, 9, 38, 127
6, 42336, Note_on_c, 9, 41, 127
6, 42384, Note_off_c, 9, 38, 64
6, 42384, Note_off_c, 9, 41, 64
6, 42432, Note_on_c, 9, 38, 127
6, 42432, Note_on_c, 9, 41, 127
6, 42480, Note_off_c, 9, 38, 64
6, 42480, Note_off_c, 9, 41, 64
6, 42528, Note_on_c, 9, 38, 127
6, 42528, Note_on_c, 9, 41, 127
6, 42576, Note_off_c, 9, 38, 64
6, 42576, Note_off_c, 9, 41, 64
6, 42624, Note_on_c, 9, 38, 127
6, 42624, Note_on_c, 9, 41, 127
6, 42672, Note_off_c, 9, 38, 64
6, 42672, Note_off_c, 9, 41, 64
6, 42720, Note_on_c, 9, 36, 127
6, 42768, Note_off_c, 9, 36, 64
6, 42816, Note_on_c, 9, 38, 127
6, 42816, Note_on_c, 9, 41, 127
6, 42864, Note_off_c, 9, 38, 64
6, 42864, Note_off_c, 9, 41, 64
6, 42912, Note_on_c, 9, 36, 127
6, 42960, Note_off_c, 9, 36, 64
6, 43008, Note_on_c, 9, 36, 127
6, 43008, Note_on_c, 9, 42, 127
6, 43008, Note_on_c, 9, 49, 127
6, 43056, Note_off_c, 9, 36, 64
6, 43056, Note_off_c, 9, 42, 64
6, 43056, Note_off_c, 9, 49, 64
6, 43104, Note_on_c, 9, 42, 127
6, 43152, Note_off_c, 9, 42, 64
6, 43200, Note_on_c, 9, 38, 127
6, 43200, Note_on_c, 9, 42, 127
6, 43248, Note_off_c, 9, 38, 64
6, 43248, Note_off_c, 9, 42, 64
6, 43296, Note_on_c, 9, 36, 127
6, 43296, Note_on_c, 9, 42, 127
6, 43344, Note_off_c, 9, 36, 64
6, 43344, Note_off_c, 9, 42, 64
6, 43392, Note_on_c, 9, 36, 127
6, 43392, Note_on_c, 9, 42, 127
6, 43440, Note_off_c, 9, 36, 64
6, 43440, Note_off_c, 9, 42, 64
6, 43488, Note_on_c, 9, 42, 127
6, 43536, Note_off_c, 9, 42, 64
6, 43584, Note_on_c, 9, 38, 127
6, 43584, Note_on_c, 9, 42, 127
6, 43632, Note_off_c, 9, 38, 64
6, 43632, Note_off_c, 9, 42, 64
6, 43680, Note_on_c, 9, 36, 127
6, 43680, Note_on_c, 9, 42, 127
6, 43728, Note_off_c, 9, 36, 64
6, 43728, Note_off_c, 9, 42, 64
6, 43776, Note_on_c, 9, 36, 127
6, 43776, Note_on_c, 9, 42, 127
6, 43824, Note_off_c, 9, 36, 64
6, 43824, Note_off_c, 9, 42, 64
6, 43872, Note_on_c, 9, 42, 127
6, 43920, Note_off_c, 9, 42, 64
6, 43968, Note_on_c, 9, 38, 127
6, 43968, Note_on_c, 9, 42, 127
6, 44016, Note_off_c, 9, 38, 64
6, 44016, Note_off_c, 9, 42, 64
6, 44064, Note_on_c, 9, 36, 127
6, 44064, Note_on_c, 9, 42, 127
6, 44112, Note_off_c, 9, 36, 64
6, 44112, Note_off_c, 9, 42, 64
6, 44160, Note_on_c, 9, 36, 127
6, 44160, Note_on_c, 9, 42, 127
6, 44208, Note_off_c, 9, 36, 64
6, 44208, Note_off_c, 9, 42, 64
6, 44256, Note_on_c, 9, 38, 127
6, 44304, Note_off_c, 9, 38, 64
6, 44304, Note_on_c, 9, 38, 127
6, 44352, Note_off_c, 9, 38, 64
6, 44352, Note_on_c, 9, 38, 127
6, 44400, Note_off_c, 9, 38, 64
6, 44400, Note_on_c, 9, 38, 127
6, 44448, Note_off_c, 9, 38, 64
6, 44448, Note_on_c, 9, 38, 127
6, 44496, Note_off_c, 9, 38, 64
6, 44496, Note_on_c, 9, 38, 127
6, 44544, Note_off_c, 9, 38, 64
6, 44544, Note_on_c, 9, 36, 127
6, 44544, Note_on_c, 9, 42, 127
6, 44544, Note_on_c, 9, 49, 127
6, 44592, Note_off_c, 9, 36, 64
6, 44592, Note_off_c, 9, 42, 64
6, 44592, Note_off_c, 9, 49, 64
6, 44640, Note_on_c, 9, 42, 127
6, 44688, Note_off_c, 9, 42, 64
6, 44736, Note_on_c, 9, 38, 127
6, 44736, Note_on_c, 9, 42, 127
6, 44784, Note_off_c, 9, 38, 64
6, 44784, Note_off_c, 9, 42, 64
6, 44832, Note_on_c, 9, 36, 127
6, 44832, Note_on_c, 9, 42, 127
6, 44880, Note_off_c, 9, 36, 64
6, 44880, Note_off_c, 9, 42, 64
6, 44928, Note_on_c, 9, 36, 127
6, 44928, Note_on_c, 9, 42, 127
6, 44976, Note_off_c, 9, 36, 64
6, 44976, Note_off_c, 9, 42, 64
6, 45024, Note_on_c, 9, 42, 127
6, 45072, Note_off_c, 9, 42, 64
6, 45120, Note_on_c, 9, 38, 127
6, 45120, Note_on_c, 9, 42, 127
6, 45168, Note_off_c, 9, 38, 64
6, 45168, Note_off_c, 9, 42, 64
6, 45216, Note_on_c, 9, 36, 127
6, 45216, Note_on_c, 9, 42, 127
6, 45264, Note_off_c, 9, 36, 64
6, 45264, Note_off_c, 9, 42, 64
6, 45312, Note_on_c, 9, 36, 127
6, 45312, Note_on_c, 9, 42, 127
6, 45360, Note_off_c, 9, 36, 64
6, 45360, Note_off_c, 9, 42, 64
6, 45408, Note_on_c, 9, 42, 127
6, 45456, Note_off_c, 9, 42, 64
6, 45504, Note_on_c, 9, 38, 127
6, 45504, Note_on_c, 9, 42, 127
6, 45552, Note_off_c, 9, 38, 64
6, 45552, Note_off_c, 9, 42, 64
6, 45600, Note_on_c, 9, 36, 127
6, 45600, Note_on_c, 9, 42, 127
6, 45648, Note_off_c, 9, 36, 64
6, 45648, Note_off_c, 9, 42, 64
6, 45696, Note_on_c, 9, 36, 127
6, 45696, Note_on_c, 9, 42, 127
6, 45744, Note_off_c, 9, 36, 64
6, 45744, Note_off_c, 9, 42, 64
6, 45792, Note_on_c, 9, 36, 127
6, 45792, Note_on_c, 9, 42, 127
6, 45840, Note_off_c, 9, 36, 64
6, 45840, Note_off_c, 9, 42, 64
6, 45888, Note_on_c, 9, 38, 127
6, 45888, Note_on_c, 9, 42, 127
6, 45936, Note_off_c, 9, 38, 64
6, 45936, Note_off_c, 9, 42, 64
6, 45984, Note_on_c, 9, 36, 127
6, 45984, Note_on_c, 9, 42, 127
6, 46032, Note_off_c, 9, 36, 64
6, 46032, Note_off_c, 9, 42, 64
6, 46080, Note_on_c, 9, 36, 127
6, 46080, Note_on_c, 9, 42, 127
6, 46128, Note_off_c, 9, 36, 64
6, 46128, Note_off_c, 9, 42, 64
6, 46176, Note_on_c, 9, 42, 127
6, 46224, Note_off_c, 9, 42, 64
6, 46272, Note_on_c, 9, 38, 127
6, 46272, Note_on_c, 9, 42, 127
6, 46320, Note_off_c, 9, 38, 64
6, 46320, Note_off_c, 9, 42, 64
6, 46368, Note_on_c, 9, 36, 127
6, 46368, Note_on_c, 9, 42, 127
6, 46416, Note_off_c, 9, 36, 64
6, 46416, Note_off_c, 9, 42, 64
6, 46464, Note_on_c, 9, 36, 127
6, 46464, Note_on_c, 9, 42, 127
6, 46512, Note_off_c, 9, 36, 64
6, 46512, Note_off_c, 9, 42, 64
6, 46560, Note_on_c, 9, 42, 127
6, 46608, Note_off_c, 9, 42, 64
6, 46656, Note_on_c, 9, 38, 127
6, 46656, Note_on_c, 9, 42, 127
6, 46704, Note_off_c, 9, 38, 64
6, 46704, Note_off_c, 9, 42, 64
6, 46752, Note_on_c, 9, 36, 127
6, 46752, Note_on_c, 9, 42, 127
6, 46800, Note_off_c, 9, 36, 64
6, 46800, Note_off_c, 9, 42, 64
6, 46848, Note_on_c, 9, 36, 127
6, 46848, Note_on_c, 9, 42, 127
6, 46896, Note_off_c, 9, 36, 64
6, 46896, Note_off_c, 9, 42, 64
6, 46944, Note_on_c, 9, 42, 127
6, 46992, Note_off_c, 9, 42, 64
6, 47040, Note_on_c, 9, 38, 127
6, 47040, Note_on_c, 9, 42, 127
6, 47088, Note_off_c, 9, 38, 64
6, 47088, Note_off_c, 9, 42, 64
6, 47136, Note_on_c, 9, 36, 127
6, 47136, Note_on_c, 9, 42, 127
6, 47184, Note_off_c, 9, 36, 64
6, 47184, Note_off_c, 9, 42, 64
6, 47232, Note_on_c, 9, 36, 127
6, 47232, Note_on_c, 9, 42, 127
6, 47280, Note_off_c, 9, 36, 64
6, 47280, Note_off_c, 9, 42, 64
6, 47328, Note_on_c, 9, 36, 127
6, 47328, Note_on_c, 9, 42, 127
6, 47376, Note_off_c, 9, 36, 64
6, 47376, Note_off_c, 9, 42, 64
6, 47424, Note_on_c, 9, 38, 127
6, 47424, Note_on_c, 9, 42, 127
6, 47472, Note_off_c, 9, 38, 64
6, 47472, Note_off_c, 9, 42, 64
6, 47520, Note_on_c, 9, 36, 127
6, 47520, Note_on_c, 9, 42, 127
6, 47568, Note_off_c, 9, 36, 64
6, 47568, Note_off_c, 9, 42, 64
6, 47616, Note_on_c, 9, 36, 127
6, 47616, Note_on_c, 9, 42, 127
6, 47664, Note_off_c, 9, 36, 64
6, 47664, Note_off_c, 9, 42, 64
6, 47664, Note_on_c, 9, 42, 127
6, 47712, Note_off_c, 9, 42, 64
6, 47712, Note_on_c, 9, 42, 127
6, 47760, Note_off_c, 9, 42, 64
6, 47808, Note_on_c, 9, 38, 127
6, 47808, Note_on_c, 9, 42, 127
6, 47856, Note_off_c, 9, 38, 64
6, 47856, Note_off_c, 9, 42, 64
6, 47904, Note_on_c, 9, 36, 127
6, 47904, Note_on_c, 9, 42, 127
6, 47952, Note_off_c, 9, 36, 64
6, 47952, Note_off_c, 9, 42, 64
6, 48000, Note_on_c, 9, 36, 127
6, 48000, Note_on_c, 9, 42, 127
6, 48048, Note_off_c, 9, 36, 64
6, 48048, Note_off_c, 9, 42, 64
6, 48096, Note_on_c, 9, 42, 127
6, 48144, Note_off_c, 9, 42, 64
6, 48192, Note_on_c, 9, 38, 127
6, 48192, Note_on_c, 9, 42, 127
6, 48240, Note_off_c, 9, 38, 64
6, 48240, Note_off_c, 9, 42, 64
6, 48288, Note_on_c, 9, 36, 127
6, 48288, Note_on_c, 9, 42, 127
6, 48336, Note_off_c, 9, 36, 64
6, 48336, Note_off_c, 9, 42, 64
6, 48384, Note_on_c, 9, 36, 127
6, 48384, Note_on_c, 9, 42, 127
6, 48432, Note_off_c, 9, 36, 64
6, 48432, Note_off_c, 9, 42, 64
6, 48480, Note_on_c, 9, 42, 127
6, 48528, Note_off_c, 9, 42, 64
6, 48576, Note_on_c, 9, 38, 127
6, 48576, Note_on_c, 9, 42, 127
6, 48624, Note_off_c, 9, 38, 64
6, 48624, Note_off_c, 9, 42, 64
6, 48672, Note_on_c, 9, 36, 127
6, 48672, Note_on_c, 9, 42, 127
6, 48720, Note_off_c, 9, 36, 64
6, 48720, Note_off_c, 9, 42, 64
6, 48768, Note_on_c, 9, 36, 127
6, 48768, Note_on_c, 9, 42, 127
6, 48816, Note_off_c, 9, 36, 64
6, 48816, Note_off_c, 9, 42, 64
6, 48864, Note_on_c, 9, 36, 127
6, 48864, Note_on_c, 9, 42, 127
6, 48912, Note_off_c, 9, 36, 64
6, 48912, Note_off_c, 9, 42, 64
6, 48960, Note_on_c, 9, 38, 127
6, 48960, Note_on_c, 9, 42, 127
6, 49008, Note_off_c, 9, 38, 64
6, 49008, Note_off_c, 9, 42, 64
6, 49056, Note_on_c, 9, 36, 127
6, 49056, Note_on_c, 9, 42, 127
6, 49104, Note_off_c, 9, 36, 64
6, 49104, Note_off_c, 9, 42, 64
6, 49152, Note_on_c, 9, 36, 127
6, 49152, Note_on_c, 9, 42, 127
6, 49200, Note_off_c, 9, 36, 64
6, 49200, Note_off_c, 9, 42, 64
6, 49200, Note_on_c, 9, 42, 127
6, 49248, Note_off_c, 9, 42, 64
6, 49248, Note_on_c, 9, 42, 127
6, 49296, Note_off_c, 9, 42, 64
6, 49344, Note_on_c, 9, 38, 127
6, 49344, Note_on_c, 9, 42, 127
6, 49392, Note_off_c, 9, 38, 64
6, 49392, Note_off_c, 9, 42, 64
6, 49440, Note_on_c, 9, 36, 127
6, 49440, Note_on_c, 9, 42, 127
6, 49488, Note_off_c, 9, 36, 64
6, 49488, Note_off_c, 9, 42, 64
6, 49536, Note_on_c, 9, 36, 127
6, 49536, Note_on_c, 9, 42, 127
6, 49584, Note_off_c, 9, 36, 64
6, 49584, Note_off_c, 9, 42, 64
6, 49632, Note_on_c, 9, 42, 127
6, 49680, Note_off_c, 9, 42, 64
6, 49728, Note_on_c, 9, 38, 127
6, 49728, Note_on_c, 9, 42, 127
6, 49776, Note_off_c, 9, 38, 64
6, 49776, Note_off_c, 9, 42, 64
6, 49824, Note_on_c, 9, 36, 127
6, 49824, Note_on_c, 9, 42, 127
6, 49872, Note_off_c, 9, 36, 64
6, 49872, Note_off_c, 9, 42, 64
6, 49920, Note_on_c, 9, 36, 127
6, 49920, Note_on_c, 9, 42, 127
6, 49968, Note_off_c, 9, 36, 64
6, 49968, Note_off_c, 9, 42, 64
6, 50016, Note_on_c, 9, 42, 127
6, 50064, Note_off_c, 9, 42, 64
6, 50112, Note_on_c, 9, 38, 127
6, 50112, Note_on_c, 9, 42, 127
6, 50160, Note_off_c, 9, 38, 64
6, 50160, Note_off_c, 9, 42, 64
6, 50208, Note_on_c, 9, 36, 127
6, 50208, Note_on_c, 9, 42, 127
6, 50256, Note_off_c, 9, 36, 64
6, 50256, Note_off_c, 9, 42, 64
6, 50304, Note_on_c, 9, 36, 127
6, 50304, Note_on_c, 9, 42, 127
6, 50352, Note_off_c, 9, 36, 64
6, 50352, Note_off_c, 9, 42, 64
6, 50400, Note_on_c, 9, 36, 127
6, 50400, Note_on_c, 9, 42, 127
6, 50448, Note_off_c, 9, 36, 64
6, 50448, Note_off_c, 9, 42, 64
6, 50496, Note_on_c, 9, 38, 127
6, 50496, Note_on_c, 9, 42, 127
6, 50544, Note_off_c, 9, 38, 64
6, 50544, Note_off_c, 9, 42, 64
6, 50592, Note_on_c, 9, 36, 127
6, 50592, Note_on_c, 9, 46, 127
6, 50640, Note_off_c, 9, 36, 64
6, 50640, Note_off_c, 9, 46, 64
6, 50688, Note_on_c, 9, 36, 127
6, 50688, Note_on_c, 9, 42, 127
6, 50736, Note_off_c, 9, 36, 64
6, 50736, Note_off_c, 9, 42, 64
6, 50784, Note_on_c, 9, 42, 127
6, 50832, Note_off_c, 9, 42, 64
6, 50880, Note_on_c, 9, 38, 127
6, 50880, Note_on_c, 9, 42, 127
6, 50928, Note_off_c, 9, 38, 64
6, 50928, Note_off_c, 9, 42, 64
6, 50976, Note_on_c, 9, 36, 127
6, 50976, Note_on_c, 9, 42, 127
6, 51024, Note_off_c, 9, 36, 64
6, 51024, Note_off_c, 9, 42, 64
6, 51072, Note_on_c, 9, 36, 127
6, 51072, Note_on_c, 9, 42, 127
6, 51120, Note_off_c, 9, 36, 64
6, 51120, Note_off_c, 9, 42, 64
6, 51168, Note_on_c, 9, 42, 127
6, 51216, Note_off_c, 9, 42, 64
6, 51264, Note_on_c, 9, 38, 127
6, 51264, Note_on_c, 9, 42, 127
6, 51312, Note_off_c, 9, 38, 64
6, 51312, Note_off_c, 9, 42, 64
6, 51360, Note_on_c, 9, 36, 127
6, 51360, Note_on_c, 9, 42, 127
6, 51408, Note_off_c, 9, 36, 64
6, 51408, Note_off_c, 9, 42, 64
6, 51456, Note_on_c, 9, 36, 127
6, 51456, Note_on_c, 9, 42, 127
6, 51504, Note_off_c, 9, 36, 64
6, 51504, Note_off_c, 9, 42, 64
6, 51552, Note_on_c, 9, 42, 127
6, 51600, Note_off_c, 9, 42, 64
6, 51648, Note_on_c, 9, 38, 127
6, 51648, Note_on_c, 9, 42, 127
6, 51696, Note_off_c, 9, 38, 64
6, 51696, Note_off_c, 9, 42, 64
6, 51744, Note_on_c, 9, 36, 127
6, 51744, Note_on_c, 9, 42, 127
6, 51792, Note_off_c, 9, 36, 64
6, 51792, Note_off_c, 9, 42, 64
6, 51840, Note_on_c, 9, 36, 127
6, 51840, Note_on_c, 9, 42, 127
6, 51888, Note_off_c, 9, 36, 64
6, 51888, Note_off_c, 9, 42, 64
6, 51936, Note_on_c, 9, 36, 127
6, 51936, Note_on_c, 9, 42, 127
6, 51984, Note_off_c, 9, 36, 64
6, 51984, Note_off_c, 9, 42, 64
6, 52032, Note_on_c, 9, 38, 127
6, 52032, Note_on_c, 9, 42, 127
6, 52080, Note_off_c, 9, 38, 64
6, 52080, Note_off_c, 9, 42, 64
6, 52128, Note_on_c, 9, 36, 127
6, 52128, Note_on_c, 9, 46, 127
6, 52176, Note_off_c, 9, 36, 64
6, 52176, Note_off_c, 9, 46, 64
6, 52224, Note_on_c, 9, 36, 127
6, 52224, Note_on_c, 9, 42, 127
6, 52272, Note_off_c, 9, 36, 64
6, 52272, Note_off_c, 9, 42, 64
6, 52320, Note_on_c, 9, 42, 127
6, 52368, Note_off_c, 9, 42, 64
6, 52416, Note_on_c, 9, 38, 127
6, 52416, Note_on_c, 9, 42, 127
6, 52464, Note_off_c, 9, 38, 64
6, 52464, Note_off_c, 9, 42, 64
6, 52512, Note_on_c, 9, 36, 127
6, 52512, Note_on_c, 9, 42, 127
6, 52560, Note_off_c, 9, 36, 64
6, 52560, Note_off_c, 9, 42, 64
6, 52608, Note_on_c, 9, 36, 127
6, 52608, Note_on_c, 9, 42, 127
6, 52656, Note_off_c, 9, 36, 64
6, 52656, Note_off_c, 9, 42, 64
6, 52704, Note_on_c, 9, 42, 127
6, 52752, Note_off_c, 9, 42, 64
6, 52800, Note_on_c, 9, 38, 127
6, 52800, Note_on_c, 9, 42, 127
6, 52848, Note_off_c, 9, 38, 64
6, 52848, Note_off_c, 9, 42, 64
6, 52896, Note_on_c, 9, 36, 127
6, 52896, Note_on_c, 9, 42, 127
6, 52944, Note_off_c, 9, 36, 64
6, 52944, Note_off_c, 9, 42, 64
6, 52992, Note_on_c, 9, 36, 127
6, 52992, Note_on_c, 9, 42, 127
6, 53040, Note_off_c, 9, 36, 64
6, 53040, Note_off_c, 9, 42, 64
6, 53088, Note_on_c, 9, 42, 127
6, 53136, Note_off_c, 9, 42, 64
6, 53136, Note_on_c, 9, 42, 127
6, 53184, Note_off_c, 9, 42, 64
6, 53184, Note_on_c, 9, 38, 127
6, 53184, Note_on_c, 9, 46, 127
6, 53232, Note_off_c, 9, 38, 64
6, 53232, Note_off_c, 9, 46, 64
6, 53280, Note_on_c, 9, 36, 127
6, 53280, Note_on_c, 9, 47, 127
6, 53328, Note_off_c, 9, 36, 64
6, 53328, Note_off_c, 9, 47, 64
6, 53376, Note_on_c, 9, 36, 127
6, 53376, Note_on_c, 9, 50, 127
6, 53424, Note_off_c, 9, 36, 64
6, 53424, Note_off_c, 9, 50, 64
6, 53472, Note_on_c, 9, 47, 127
6, 53520, Note_off_c, 9, 47, 64
6, 53568, Note_on_c, 9, 42, 127
6, 53568, Note_on_c, 9, 47, 127
6, 53616, Note_off_c, 9, 42, 64
6, 53616, Note_off_c, 9, 47, 64
6, 53664, Note_on_c, 9, 46, 127
6, 53664, Note_on_c, 9, 41, 127
6, 53712, Note_off_c, 9, 46, 64
6, 53712, Note_off_c, 9, 41, 64
6, 53760, Note_on_c, 9, 36, 127
6, 53760, Note_on_c, 9, 42, 127
6, 53760, Note_on_c, 9, 49, 127
6, 53808, Note_off_c, 9, 36, 64
6, 53808, Note_off_c, 9, 42, 64
6, 53808, Note_off_c, 9, 49, 64
6, 53856, Note_on_c, 9, 42, 127
6, 53904, Note_off_c, 9, 42, 64
6, 53952, Note_on_c, 9, 38, 127
6, 53952, Note_on_c, 9, 42, 127
6, 54000, Note_off_c, 9, 38, 64
6, 54000, Note_off_c, 9, 42, 64
6, 54048, Note_on_c, 9, 36, 127
6, 54048, Note_on_c, 9, 42, 127
6, 54096, Note_off_c, 9, 36, 64
6, 54096, Note_off_c, 9, 42, 64
6, 54144, Note_on_c, 9, 36, 127
6, 54144, Note_on_c, 9, 42, 127
6, 54192, Note_off_c, 9, 36, 64
6, 54192, Note_off_c, 9, 42, 64
6, 54240, Note_on_c, 9, 42, 127
6, 54288, Note_off_c, 9, 42, 64
6, 54336, Note_on_c, 9, 38, 127
6, 54336, Note_on_c, 9, 42, 127
6, 54384, Note_off_c, 9, 38, 64
6, 54384, Note_off_c, 9, 42, 64
6, 54432, Note_on_c, 9, 36, 127
6, 54432, Note_on_c, 9, 42, 127
6, 54480, Note_off_c, 9, 36, 64
6, 54480, Note_off_c, 9, 42, 64
6, 54528, Note_on_c, 9, 36, 127
6, 54528, Note_on_c, 9, 42, 127
6, 54576, Note_off_c, 9, 36, 64
6, 54576, Note_off_c, 9, 42, 64
6, 54624, Note_on_c, 9, 42, 127
6, 54672, Note_off_c, 9, 42, 64
6, 54720, Note_on_c, 9, 38, 127
6, 54720, Note_on_c, 9, 42, 127
6, 54768, Note_off_c, 9, 38, 64
6, 54768, Note_off_c, 9, 42, 64
6, 54816, Note_on_c, 9, 36, 127
6, 54816, Note_on_c, 9, 42, 127
6, 54864, Note_off_c, 9, 36, 64
6, 54864, Note_off_c, 9, 42, 64
6, 54912, Note_on_c, 9, 36, 127
6, 54912, Note_on_c, 9, 42, 127
6, 54960, Note_off_c, 9, 36, 64
6, 54960, Note_off_c, 9, 42, 64
6, 55008, Note_on_c, 9, 36, 127
6, 55008, Note_on_c, 9, 42, 127
6, 55056, Note_off_c, 9, 36, 64
6, 55056, Note_off_c, 9, 42, 64
6, 55104, Note_on_c, 9, 38, 127
6, 55104, Note_on_c, 9, 42, 127
6, 55152, Note_off_c, 9, 38, 64
6, 55152, Note_off_c, 9, 42, 64
6, 55200, Note_on_c, 9, 36, 127
6, 55200, Note_on_c, 9, 42, 127
6, 55248, Note_off_c, 9, 36, 64
6, 55248, Note_off_c, 9, 42, 64
6, 55296, Note_on_c, 9, 36, 127
6, 55296, Note_on_c, 9, 42, 127
6, 55344, Note_off_c, 9, 36, 64
6, 55344, Note_off_c, 9, 42, 64
6, 55392, Note_on_c, 9, 42, 127
6, 55440, Note_off_c, 9, 42, 64
6, 55488, Note_on_c, 9, 38, 127
6, 55488, Note_on_c, 9, 42, 127
6, 55536, Note_off_c, 9, 38, 64
6, 55536, Note_off_c, 9, 42, 64
6, 55584, Note_on_c, 9, 36, 127
6, 55584, Note_on_c, 9, 42, 127
6, 55632, Note_off_c, 9, 36, 64
6, 55632, Note_off_c, 9, 42, 64
6, 55680, Note_on_c, 9, 36, 127
6, 55680, Note_on_c, 9, 42, 127
6, 55728, Note_off_c, 9, 36, 64
6, 55728, Note_off_c, 9, 42, 64
6, 55776, Note_on_c, 9, 42, 127
6, 55824, Note_off_c, 9, 42, 64
6, 55872, Note_on_c, 9, 38, 127
6, 55872, Note_on_c, 9, 42, 127
6, 55920, Note_off_c, 9, 38, 64
6, 55920, Note_off_c, 9, 42, 64
6, 55968, Note_on_c, 9, 36, 127
6, 55968, Note_on_c, 9, 42, 127
6, 56016, Note_off_c, 9, 36, 64
6, 56016, Note_off_c, 9, 42, 64
6, 56064, Note_on_c, 9, 36, 127
6, 56064, Note_on_c, 9, 42, 127
6, 56112, Note_off_c, 9, 36, 64
6, 56112, Note_off_c, 9, 42, 64
6, 56160, Note_on_c, 9, 42, 127
6, 56208, Note_off_c, 9, 42, 64
6, 56256, Note_on_c, 9, 38, 127
6, 56256, Note_on_c, 9, 42, 127
6, 56304, Note_off_c, 9, 38, 64
6, 56304, Note_off_c, 9, 42, 64
6, 56352, Note_on_c, 9, 36, 127
6, 56352, Note_on_c, 9, 42, 127
6, 56400, Note_off_c, 9, 36, 64
6, 56400, Note_off_c, 9, 42, 64
6, 56448, Note_on_c, 9, 36, 127
6, 56448, Note_on_c, 9, 42, 127
6, 56496, Note_off_c, 9, 36, 64
6, 56496, Note_off_c, 9, 42, 64
6, 56544, Note_on_c, 9, 36, 127
6, 56544, Note_on_c, 9, 42, 127
6, 56592, Note_off_c, 9, 36, 64
6, 56592, Note_off_c, 9, 42, 64
6, 56640, Note_on_c, 9, 38, 127
6, 56640, Note_on_c, 9, 42, 127
6, 56688, Note_off_c, 9, 38, 64
6, 56688, Note_off_c, 9, 42, 64
6, 56736, Note_on_c, 9, 36, 127
6, 56736, Note_on_c, 9, 42, 127
6, 56784, Note_off_c, 9, 36, 64
6, 56784, Note_off_c, 9, 42, 64
6, 56832, Note_on_c, 9, 36, 127
6, 56832, Note_on_c, 9, 42, 127
6, 56880, Note_off_c, 9, 36, 64
6, 56880, Note_off_c, 9, 42, 64
6, 56880, Note_on_c, 9, 42, 127
6, 56928, Note_off_c, 9, 42, 64
6, 56928, Note_on_c, 9, 42, 127
6, 56976, Note_off_c, 9, 42, 64
6, 57024, Note_on_c, 9, 38, 127
6, 57024, Note_on_c, 9, 42, 127
6, 57072, Note_off_c, 9, 38, 64
6, 57072, Note_off_c, 9, 42, 64
6, 57120, Note_on_c, 9, 36, 127
6, 57120, Note_on_c, 9, 42, 127
6, 57168, Note_off_c, 9, 36, 64
6, 57168, Note_off_c, 9, 42, 64
6, 57216, Note_on_c, 9, 36, 127
6, 57216, Note_on_c, 9, 42, 127
6, 57264, Note_off_c, 9, 36, 64
6, 57264, Note_off_c, 9, 42, 64
6, 57312, Note_on_c, 9, 42, 127
6, 57360, Note_off_c, 9, 42, 64
6, 57408, Note_on_c, 9, 38, 127
6, 57408, Note_on_c, 9, 42, 127
6, 57456, Note_off_c, 9, 38, 64
6, 57456, Note_off_c, 9, 42, 64
6, 57504, Note_on_c, 9, 36, 127
6, 57504, Note_on_c, 9, 42, 127
6, 57552, Note_off_c, 9, 36, 64
6, 57552, Note_off_c, 9, 42, 64
6, 57600, Note_on_c, 9, 36, 127
6, 57600, Note_on_c, 9, 42, 127
6, 57648, Note_off_c, 9, 36, 64
6, 57648, Note_off_c, 9, 42, 64
6, 57696, Note_on_c, 9, 42, 127
6, 57744, Note_off_c, 9, 42, 64
6, 57792, Note_on_c, 9, 38, 127
6, 57792, Note_on_c, 9, 42, 127
6, 57840, Note_off_c, 9, 38, 64
6, 57840, Note_off_c, 9, 42, 64
6, 57888, Note_on_c, 9, 36, 127
6, 57888, Note_on_c, 9, 42, 127
6, 57936, Note_off_c, 9, 36, 64
6, 57936, Note_off_c, 9, 42, 64
6, 57984, Note_on_c, 9, 36, 127
6, 57984, Note_on_c, 9, 42, 127
6, 58032, Note_off_c, 9, 36, 64
6, 58032, Note_off_c, 9, 42, 64
6, 58080, Note_on_c, 9, 36, 127
6, 58080, Note_on_c, 9, 42, 127
6, 58128, Note_off_c, 9, 36, 64
6, 58128, Note_off_c, 9, 42, 64
6, 58176, Note_on_c, 9, 38, 127
6, 58176, Note_on_c, 9, 42, 127
6, 58224, Note_off_c, 9, 38, 64
6, 58224, Note_off_c, 9, 42, 64
6, 58272, Note_on_c, 9, 36, 127
6, 58272, Note_on_c, 9, 46, 127
6, 58320, Note_off_c, 9, 36, 64
6, 58320, Note_off_c, 9, 46, 64
6, 58368, Note_on_c, 9, 36, 127
6, 58368, Note_on_c, 9, 42, 127
6, 58416, Note_off_c, 9, 36, 64
6, 58416, Note_off_c, 9, 42, 64
6, 58464, Note_on_c, 9, 42, 127
6, 58512, Note_off_c, 9, 42, 64
6, 58560, Note_on_c, 9, 38, 127
6, 58560, Note_on_c, 9, 42, 127
6, 58608, Note_off_c, 9, 38, 64
6, 58608, Note_off_c, 9, 42, 64
6, 58656, Note_on_c, 9, 36, 127
6, 58656, Note_on_c, 9, 42, 127
6, 58704, Note_off_c, 9, 36, 64
6, 58704, Note_off_c, 9, 42, 64
6, 58752, Note_on_c, 9, 42, 127
6, 58752, Note_on_c, 9, 36, 127
6, 58800, Note_off_c, 9, 42, 64
6, 58800, Note_off_c, 9, 36, 64
6, 58848, Note_on_c, 9, 42, 127
6, 58896, Note_off_c, 9, 42, 64
6, 58944, Note_on_c, 9, 42, 127
6, 58944, Note_on_c, 9, 38, 127
6, 58992, Note_off_c, 9, 42, 64
6, 58992, Note_off_c, 9, 38, 64
6, 59040, Note_on_c, 9, 42, 127
6, 59040, Note_on_c, 9, 36, 127
6, 59088, Note_off_c, 9, 42, 64
6, 59088, Note_off_c, 9, 36, 64
6, 59136, Note_on_c, 9, 36, 127
6, 59136, Note_on_c, 9, 42, 127
6, 59184, Note_off_c, 9, 36, 64
6, 59184, Note_off_c, 9, 42, 64
6, 59232, Note_on_c, 9, 42, 127
6, 59280, Note_off_c, 9, 42, 64
6, 59616, Note_on_c, 9, 43, 106
6, 59662, Note_off_c, 9, 43, 64
6, 59664, Note_on_c, 9, 41, 113
6, 59702, Note_off_c, 9, 41, 64
6, 59712, Note_on_c, 9, 36, 123
6, 59902, Note_off_c, 9, 36, 64
6, 59902, End_track
7, 0, Start_track
7, 0, MIDI_port, 0
7, 0, Title_t, "rhodes piano        "
7, 0, Program_c, 2, 4
7, 0, Control_c, 2, 7, 100
7, 1632, Note_on_c, 2, 65, 127
7, 1632, Note_on_c, 2, 60, 127
7, 1632, Note_on_c, 2, 57, 127
7, 1840, Note_off_c, 2, 65, 64
7, 1840, Note_off_c, 2, 60, 64
7, 1840, Note_off_c, 2, 57, 64
7, 1920, Note_on_c, 2, 63, 127
7, 1920, Note_on_c, 2, 58, 127
7, 1920, Note_on_c, 2, 55, 127
7, 2112, Note_off_c, 2, 63, 64
7, 2112, Note_off_c, 2, 58, 64
7, 2112, Note_off_c, 2, 55, 64
7, 2112, Note_on_c, 2, 65, 127
7, 2112, Note_on_c, 2, 62, 127
7, 2112, Note_on_c, 2, 59, 127
7, 2112, Note_on_c, 2, 67, 127
7, 2304, Note_off_c, 2, 65, 64
7, 2304, Note_off_c, 2, 62, 64
7, 2304, Note_off_c, 2, 59, 64
7, 2304, Note_off_c, 2, 67, 64
7, 2400, Note_on_c, 2, 64, 127
7, 2400, Note_on_c, 2, 60, 127
7, 2400, Note_on_c, 2, 55, 127
7, 2473, Note_off_c, 2, 64, 64
7, 2473, Note_off_c, 2, 60, 64
7, 2473, Note_off_c, 2, 55, 64
7, 2592, Note_on_c, 2, 48, 127
7, 2688, Note_on_c, 2, 64, 127
7, 2688, Note_on_c, 2, 60, 127
7, 2688, Note_on_c, 2, 55, 127
7, 2704, Note_off_c, 2, 48, 64
7, 2800, Note_off_c, 2, 64, 64
7, 2800, Note_off_c, 2, 60, 64
7, 2800, Note_off_c, 2, 55, 64
7, 2880, Note_on_c, 2, 64, 127
7, 2880, Note_on_c, 2, 60, 127
7, 2880, Note_on_c, 2, 55, 127
7, 2940, Note_off_c, 2, 64, 64
7, 2940, Note_off_c, 2, 60, 64
7, 2940, Note_off_c, 2, 55, 64
7, 3072, Note_on_c, 2, 64, 127
7, 3072, Note_on_c, 2, 62, 127
7, 3072, Note_on_c, 2, 59, 127
7, 3072, Note_on_c, 2, 67, 127
7, 3139, Note_off_c, 2, 64, 64
7, 3139, Note_off_c, 2, 62, 64
7, 3139, Note_off_c, 2, 59, 64
7, 3139, Note_off_c, 2, 67, 64
7, 3168, Note_on_c, 2, 64, 127
7, 3168, Note_on_c, 2, 62, 127
7, 3168, Note_on_c, 2, 59, 127
7, 3168, Note_on_c, 2, 67, 127
7, 3222, Note_off_c, 2, 64, 64
7, 3222, Note_off_c, 2, 62, 64
7, 3222, Note_off_c, 2, 59, 64
7, 3222, Note_off_c, 2, 67, 64
7, 3360, Note_on_c, 2, 64, 127
7, 3360, Note_on_c, 2, 62, 127
7, 3360, Note_on_c, 2, 59, 127
7, 3360, Note_on_c, 2, 67, 127
7, 3662, Note_off_c, 2, 64, 64
7, 3662, Note_off_c, 2, 62, 64
7, 3662, Note_off_c, 2, 59, 64
7, 3662, Note_off_c, 2, 67, 64
7, 3840, Note_on_c, 2, 64, 127
7, 3840, Note_on_c, 2, 60, 127
7, 3840, Note_on_c, 2, 58, 127
7, 3840, Note_on_c, 2, 67, 127
7, 4574, Note_off_c, 2, 64, 64
7, 4574, Note_off_c, 2, 60, 64
7, 4574, Note_off_c, 2, 58, 64
7, 4574, Note_off_c, 2, 67, 64
7, 4704, Note_on_c, 2, 65, 127
7, 4704, Note_on_c, 2, 60, 127
7, 4704, Note_on_c, 2, 57, 127
7, 4912, Note_off_c, 2, 65, 64
7, 4912, Note_off_c, 2, 60, 64
7, 4912, Note_off_c, 2, 57, 64
7, 4992, Note_on_c, 2, 65, 127
7, 4992, Note_on_c, 2, 60, 127
7, 4992, Note_on_c, 2, 57, 127
7, 5184, Note_off_c, 2, 65, 64
7, 5184, Note_off_c, 2, 60, 64
7, 5184, Note_off_c, 2, 57, 64
7, 5184, Note_on_c, 2, 64, 127
7, 5184, Note_on_c, 2, 60, 127
7, 5184, Note_on_c, 2, 55, 127
7, 5376, Note_off_c, 2, 64, 64
7, 5376, Note_off_c, 2, 60, 64
7, 5376, Note_off_c, 2, 55, 64
7, 5376, Note_on_c, 2, 66, 127
7, 5376, Note_on_c, 2, 62, 127
7, 5376, Note_on_c, 2, 60, 127
7, 5376, Note_on_c, 2, 69, 127
7, 5377, Note_off_c, 2, 60, 64
7, 5760, Note_off_c, 2, 62, 64
7, 5760, Note_on_c, 2, 62, 127
7, 5856, Note_off_c, 2, 66, 64
7, 5856, Note_on_c, 2, 66, 127
7, 5867, Note_off_c, 2, 69, 64
7, 5867, Note_off_c, 2, 62, 64
7, 5952, Note_on_c, 2, 69, 127
7, 5955, Note_off_c, 2, 66, 64
7, 6046, Note_off_c, 2, 69, 64
7, 6048, Note_on_c, 2, 74, 127
7, 6081, Note_off_c, 2, 74, 64
7, 6144, Note_on_c, 2, 62, 127
7, 6144, Note_on_c, 2, 59, 127
7, 6144, Note_on_c, 2, 55, 127
7, 6336, Note_off_c, 2, 62, 64
7, 6336, Note_off_c, 2, 59, 64
7, 6336, Note_off_c, 2, 55, 64
7, 6336, Note_on_c, 2, 67, 127
7, 6336, Note_on_c, 2, 64, 127
7, 6336, Note_on_c, 2, 60, 127
7, 6336, Note_on_c, 2, 69, 127
7, 6528, Note_off_c, 2, 67, 64
7, 6528, Note_off_c, 2, 64, 64
7, 6528, Note_off_c, 2, 60, 64
7, 6528, Note_off_c, 2, 69, 64
7, 6528, Note_on_c, 2, 65, 127
7, 6528, Note_on_c, 2, 62, 127
7, 6528, Note_on_c, 2, 59, 127
7, 6528, Note_on_c, 2, 67, 127
7, 6876, Note_off_c, 2, 65, 64
7, 6876, Note_off_c, 2, 62, 64
7, 6876, Note_off_c, 2, 59, 64
7, 6876, Note_off_c, 2, 67, 64
7, 7008, Note_on_c, 2, 64, 127
7, 7008, Note_on_c, 2, 60, 127
7, 7008, Note_on_c, 2, 57, 127
7, 7216, Note_off_c, 2, 64, 64
7, 7216, Note_off_c, 2, 60, 64
7, 7216, Note_off_c, 2, 57, 64
7, 7296, Note_on_c, 2, 64, 127
7, 7296, Note_on_c, 2, 60, 127
7, 7296, Note_on_c, 2, 57, 127
7, 7644, Note_off_c, 2, 64, 64
7, 7644, Note_off_c, 2, 60, 64
7, 7644, Note_off_c, 2, 57, 64
7, 7680, Note_on_c, 2, 64, 127
7, 7680, Note_on_c, 2, 60, 127
7, 7680, Note_on_c, 2, 57, 127
7, 8028, Note_off_c, 2, 64, 64
7, 8028, Note_off_c, 2, 60, 64
7, 8028, Note_off_c, 2, 57, 64
7, 8064, Note_on_c, 2, 66, 127
7, 8064, Note_on_c, 2, 62, 127
7, 8064, Note_on_c, 2, 60, 127
7, 8064, Note_on_c, 2, 69, 127
7, 8412, Note_off_c, 2, 66, 64
7, 8412, Note_off_c, 2, 62, 64
7, 8412, Note_off_c, 2, 60, 64
7, 8412, Note_off_c, 2, 69, 64
7, 8544, Note_on_c, 2, 65, 127
7, 8544, Note_on_c, 2, 60, 127
7, 8544, Note_on_c, 2, 57, 127
7, 8752, Note_off_c, 2, 65, 64
7, 8752, Note_off_c, 2, 60, 64
7, 8752, Note_off_c, 2, 57, 64
7, 8832, Note_on_c, 2, 63, 127
7, 8832, Note_on_c, 2, 58, 127
7, 8832, Note_on_c, 2, 55, 127
7, 9024, Note_off_c, 2, 63, 64
7, 9024, Note_off_c, 2, 58, 64
7, 9024, Note_off_c, 2, 55, 64
7, 9024, Note_on_c, 2, 65, 127
7, 9024, Note_on_c, 2, 62, 127
7, 9024, Note_on_c, 2, 59, 127
7, 9024, Note_on_c, 2, 67, 127
7, 9216, Note_off_c, 2, 65, 64
7, 9216, Note_off_c, 2, 62, 64
7, 9216, Note_off_c, 2, 59, 64
7, 9216, Note_off_c, 2, 67, 64
7, 9312, Note_on_c, 2, 64, 127
7, 9312, Note_on_c, 2, 60, 127
7, 9312, Note_on_c, 2, 55, 127
7, 9385, Note_off_c, 2, 64, 64
7, 9385, Note_off_c, 2, 60, 64
7, 9385, Note_off_c, 2, 55, 64
7, 9504, Note_on_c, 2, 48, 127
7, 9600, Note_on_c, 2, 64, 127
7, 9600, Note_on_c, 2, 60, 127
7, 9600, Note_on_c, 2, 55, 127
7, 9616, Note_off_c, 2, 48, 64
7, 9712, Note_off_c, 2, 64, 64
7, 9712, Note_off_c, 2, 60, 64
7, 9712, Note_off_c, 2, 55, 64
7, 9792, Note_on_c, 2, 64, 127
7, 9792, Note_on_c, 2, 60, 127
7, 9792, Note_on_c, 2, 55, 127
7, 9852, Note_off_c, 2, 64, 64
7, 9852, Note_off_c, 2, 60, 64
7, 9852, Note_off_c, 2, 55, 64
7, 9984, Note_on_c, 2, 64, 127
7, 9984, Note_on_c, 2, 62, 127
7, 9984, Note_on_c, 2, 59, 127
7, 9984, Note_on_c, 2, 67, 127
7, 10368, Note_on_c, 2, 60, 127
7, 10464, Note_off_c, 2, 64, 64
7, 10464, Note_off_c, 2, 60, 64
7, 10464, Note_on_c, 2, 64, 127
7, 10475, Note_off_c, 2, 62, 64
7, 10475, Note_off_c, 2, 59, 64
7, 10475, Note_off_c, 2, 67, 64
7, 10560, Note_on_c, 2, 67, 127
7, 10563, Note_off_c, 2, 64, 64
7, 10654, Note_off_c, 2, 67, 64
7, 10656, Note_on_c, 2, 74, 127
7, 10689, Note_off_c, 2, 74, 64
7, 10752, Note_on_c, 2, 64, 127
7, 10752, Note_on_c, 2, 60, 127
7, 10752, Note_on_c, 2, 58, 127
7, 10752, Note_on_c, 2, 67, 127
7, 11136, Note_off_c, 2, 60, 64
7, 11136, Note_on_c, 2, 60, 127
7, 11232, Note_off_c, 2, 64, 64
7, 11232, Note_on_c, 2, 64, 127
7, 11243, Note_off_c, 2, 58, 64
7, 11243, Note_off_c, 2, 67, 64
7, 11243, Note_off_c, 2, 60, 64
7, 11328, Note_on_c, 2, 67, 127
7, 11331, Note_off_c, 2, 64, 64
7, 11422, Note_off_c, 2, 67, 64
7, 11424, Note_on_c, 2, 72, 127
7, 11457, Note_off_c, 2, 72, 64
7, 11616, Note_on_c, 2, 65, 127
7, 11616, Note_on_c, 2, 60, 127
7, 11616, Note_on_c, 2, 57, 127
7, 11824, Note_off_c, 2, 65, 64
7, 11824, Note_off_c, 2, 60, 64
7, 11824, Note_off_c, 2, 57, 64
7, 11904, Note_on_c, 2, 65, 127
7, 11904, Note_on_c, 2, 60, 127
7, 11904, Note_on_c, 2, 57, 127
7, 12096, Note_off_c, 2, 65, 64
7, 12096, Note_off_c, 2, 60, 64
7, 12096, Note_off_c, 2, 57, 64
7, 12096, Note_on_c, 2, 64, 127
7, 12096, Note_on_c, 2, 60, 127
7, 12096, Note_on_c, 2, 55, 127
7, 12288, Note_off_c, 2, 64, 64
7, 12288, Note_off_c, 2, 60, 64
7, 12288, Note_off_c, 2, 55, 64
7, 12288, Note_on_c, 2, 66, 127
7, 12288, Note_on_c, 2, 62, 127
7, 12288, Note_on_c, 2, 60, 127
7, 12288, Note_on_c, 2, 69, 127
7, 12289, Note_off_c, 2, 60, 64
7, 13022, Note_off_c, 2, 66, 64
7, 13022, Note_off_c, 2, 62, 64
7, 13022, Note_off_c, 2, 69, 64
7, 13056, Note_on_c, 2, 62, 127
7, 13056, Note_on_c, 2, 59, 127
7, 13056, Note_on_c, 2, 55, 127
7, 13248, Note_off_c, 2, 62, 64
7, 13248, Note_off_c, 2, 59, 64
7, 13248, Note_off_c, 2, 55, 64
7, 13248, Note_on_c, 2, 67, 127
7, 13248, Note_on_c, 2, 64, 127
7, 13248, Note_on_c, 2, 60, 127
7, 13248, Note_on_c, 2, 69, 127
7, 13440, Note_off_c, 2, 67, 64
7, 13440, Note_off_c, 2, 64, 64
7, 13440, Note_off_c, 2, 60, 64
7, 13440, Note_off_c, 2, 69, 64
7, 13440, Note_on_c, 2, 65, 127
7, 13440, Note_on_c, 2, 62, 127
7, 13440, Note_on_c, 2, 59, 127
7, 13440, Note_on_c, 2, 67, 127
7, 13788, Note_off_c, 2, 65, 64
7, 13788, Note_off_c, 2, 62, 64
7, 13788, Note_off_c, 2, 59, 64
7, 13788, Note_off_c, 2, 67, 64
7, 13824, Note_on_c, 2, 64, 127
7, 13824, Note_on_c, 2, 60, 127
7, 13824, Note_on_c, 2, 57, 127
7, 14172, Note_off_c, 2, 64, 64
7, 14172, Note_off_c, 2, 60, 64
7, 14172, Note_off_c, 2, 57, 64
7, 14208, Note_on_c, 2, 64, 127
7, 14208, Note_on_c, 2, 60, 127
7, 14208, Note_on_c, 2, 57, 127
7, 14556, Note_off_c, 2, 64, 64
7, 14556, Note_off_c, 2, 60, 64
7, 14556, Note_off_c, 2, 57, 64
7, 14688, Note_on_c, 2, 64, 127
7, 14688, Note_on_c, 2, 60, 127
7, 14688, Note_on_c, 2, 57, 127
7, 14896, Note_off_c, 2, 64, 64
7, 14896, Note_off_c, 2, 60, 64
7, 14896, Note_off_c, 2, 57, 64
7, 14976, Note_on_c, 2, 66, 127
7, 14976, Note_on_c, 2, 62, 127
7, 14976, Note_on_c, 2, 60, 127
7, 14976, Note_on_c, 2, 69, 127
7, 15324, Note_off_c, 2, 66, 64
7, 15324, Note_off_c, 2, 62, 64
7, 15324, Note_off_c, 2, 60, 64
7, 15324, Note_off_c, 2, 69, 64
7, 15360, Note_on_c, 2, 65, 127
7, 15360, Note_on_c, 2, 60, 127
7, 15360, Note_on_c, 2, 57, 127
7, 15708, Note_off_c, 2, 65, 64
7, 15708, Note_off_c, 2, 60, 64
7, 15708, Note_off_c, 2, 57, 64
7, 15744, Note_on_c, 2, 67, 127
7, 15744, Note_on_c, 2, 63, 127
7, 15744, Note_on_c, 2, 58, 127
7, 15936, Note_off_c, 2, 67, 64
7, 15936, Note_off_c, 2, 63, 64
7, 15936, Note_off_c, 2, 58, 64
7, 15936, Note_on_c, 2, 65, 127
7, 15936, Note_on_c, 2, 62, 127
7, 15936, Note_on_c, 2, 59, 127
7, 15936, Note_on_c, 2, 67, 127
7, 16128, Note_off_c, 2, 65, 64
7, 16128, Note_off_c, 2, 62, 64
7, 16128, Note_off_c, 2, 59, 64
7, 16128, Note_off_c, 2, 67, 64
7, 16128, Note_on_c, 2, 64, 127
7, 16128, Note_on_c, 2, 61, 127
7, 16128, Note_on_c, 2, 57, 127
7, 16862, Note_off_c, 2, 64, 64
7, 16862, Note_off_c, 2, 61, 64
7, 16862, Note_off_c, 2, 57, 64
7, 16896, Note_on_c, 2, 64, 127
7, 16896, Note_on_c, 2, 61, 127
7, 16896, Note_on_c, 2, 57, 127
7, 17244, Note_off_c, 2, 64, 64
7, 17244, Note_off_c, 2, 61, 64
7, 17244, Note_off_c, 2, 57, 64
7, 17376, Note_on_c, 2, 64, 127
7, 17376, Note_on_c, 2, 61, 127
7, 17376, Note_on_c, 2, 56, 127
7, 17584, Note_off_c, 2, 64, 64
7, 17584, Note_off_c, 2, 61, 64
7, 17584, Note_off_c, 2, 56, 64
7, 17664, Note_on_c, 2, 66, 127
7, 17664, Note_on_c, 2, 61, 127
7, 17664, Note_on_c, 2, 57, 127
7, 18012, Note_off_c, 2, 66, 64
7, 18012, Note_off_c, 2, 61, 64
7, 18012, Note_off_c, 2, 57, 64
7, 18048, Note_on_c, 2, 66, 127
7, 18048, Note_on_c, 2, 61, 127
7, 18048, Note_on_c, 2, 57, 127
7, 18396, Note_off_c, 2, 66, 64
7, 18396, Note_off_c, 2, 61, 64
7, 18396, Note_off_c, 2, 57, 64
7, 18432, Note_on_c, 2, 66, 127
7, 18432, Note_on_c, 2, 62, 127
7, 18432, Note_on_c, 2, 57, 127
7, 18780, Note_off_c, 2, 66, 64
7, 18780, Note_off_c, 2, 62, 64
7, 18780, Note_off_c, 2, 57, 64
7, 18816, Note_on_c, 2, 62, 127
7, 18816, Note_on_c, 2, 59, 127
7, 18816, Note_on_c, 2, 55, 127
7, 19164, Note_off_c, 2, 62, 64
7, 19164, Note_off_c, 2, 59, 64
7, 19164, Note_off_c, 2, 55, 64
7, 19200, Note_on_c, 2, 64, 127
7, 19200, Note_on_c, 2, 61, 127
7, 19200, Note_on_c, 2, 57, 127
7, 19267, Note_off_c, 2, 64, 64
7, 19267, Note_off_c, 2, 61, 64
7, 19267, Note_off_c, 2, 57, 64
7, 19296, Note_on_c, 2, 64, 127
7, 19296, Note_on_c, 2, 61, 127
7, 19296, Note_on_c, 2, 57, 127
7, 19350, Note_off_c, 2, 64, 64
7, 19350, Note_off_c, 2, 61, 64
7, 19350, Note_off_c, 2, 57, 64
7, 19488, Note_on_c, 2, 64, 127
7, 19488, Note_on_c, 2, 61, 127
7, 19488, Note_on_c, 2, 57, 127
7, 19790, Note_off_c, 2, 64, 64
7, 19790, Note_off_c, 2, 61, 64
7, 19790, Note_off_c, 2, 57, 64
7, 20064, Note_on_c, 2, 64, 127
7, 20064, Note_on_c, 2, 61, 127
7, 20064, Note_on_c, 2, 57, 127
7, 20272, Note_off_c, 2, 64, 64
7, 20272, Note_off_c, 2, 61, 64
7, 20272, Note_off_c, 2, 57, 64
7, 20352, Note_on_c, 2, 64, 127
7, 20352, Note_on_c, 2, 61, 127
7, 20352, Note_on_c, 2, 56, 127
7, 20700, Note_off_c, 2, 64, 64
7, 20700, Note_off_c, 2, 61, 64
7, 20700, Note_off_c, 2, 56, 64
7, 20736, Note_on_c, 2, 66, 127
7, 20736, Note_on_c, 2, 61, 127
7, 20736, Note_on_c, 2, 57, 127
7, 21084, Note_off_c, 2, 66, 64
7, 21084, Note_off_c, 2, 61, 64
7, 21084, Note_off_c, 2, 57, 64
7, 21120, Note_on_c, 2, 66, 127
7, 21120, Note_on_c, 2, 61, 127
7, 21120, Note_on_c, 2, 57, 127
7, 21468, Note_off_c, 2, 66, 64
7, 21468, Note_off_c, 2, 61, 64
7, 21468, Note_off_c, 2, 57, 64
7, 21600, Note_on_c, 2, 66, 127
7, 21600, Note_on_c, 2, 62, 127
7, 21600, Note_on_c, 2, 57, 127
7, 21808, Note_off_c, 2, 66, 64
7, 21808, Note_off_c, 2, 62, 64
7, 21808, Note_off_c, 2, 57, 64
7, 21984, Note_on_c, 2, 62, 127
7, 21984, Note_on_c, 2, 59, 127
7, 21984, Note_on_c, 2, 55, 127
7, 22192, Note_off_c, 2, 62, 64
7, 22192, Note_off_c, 2, 59, 64
7, 22192, Note_off_c, 2, 55, 64
7, 22272, Note_on_c, 2, 64, 127
7, 22272, Note_on_c, 2, 60, 127
7, 22272, Note_on_c, 2, 55, 127
7, 23488, Note_off_c, 2, 64, 64
7, 23488, Note_off_c, 2, 60, 64
7, 23488, Note_off_c, 2, 55, 64
7, 23520, Note_on_c, 2, 60, 127
7, 23616, Note_on_c, 2, 64, 127
7, 23712, Note_on_c, 2, 67, 127
7, 23734, Note_off_c, 2, 64, 64
7, 23795, Note_off_c, 2, 60, 64
7, 23796, Note_off_c, 2, 67, 64
7, 23808, Note_on_c, 2, 64, 127
7, 23808, Note_on_c, 2, 62, 127
7, 23808, Note_on_c, 2, 59, 127
7, 23808, Note_on_c, 2, 67, 127
7, 24542, Note_off_c, 2, 64, 64
7, 24542, Note_off_c, 2, 62, 64
7, 24542, Note_off_c, 2, 59, 64
7, 24542, Note_off_c, 2, 67, 64
7, 24672, Note_on_c, 2, 64, 127
7, 24672, Note_on_c, 2, 60, 127
7, 24672, Note_on_c, 2, 58, 127
7, 24672, Note_on_c, 2, 67, 127
7, 24745, Note_off_c, 2, 64, 64
7, 24745, Note_off_c, 2, 60, 64
7, 24745, Note_off_c, 2, 58, 64
7, 24745, Note_off_c, 2, 67, 64
7, 24864, Note_on_c, 2, 48, 127
7, 24960, Note_on_c, 2, 64, 127
7, 24960, Note_on_c, 2, 60, 127
7, 24960, Note_on_c, 2, 58, 127
7, 24960, Note_on_c, 2, 67, 127
7, 24976, Note_off_c, 2, 48, 64
7, 25072, Note_off_c, 2, 64, 64
7, 25072, Note_off_c, 2, 60, 64
7, 25072, Note_off_c, 2, 58, 64
7, 25072, Note_off_c, 2, 67, 64
7, 25152, Note_on_c, 2, 64, 127
7, 25152, Note_on_c, 2, 60, 127
7, 25152, Note_on_c, 2, 58, 127
7, 25152, Note_on_c, 2, 67, 127
7, 25212, Note_off_c, 2, 64, 64
7, 25212, Note_off_c, 2, 60, 64
7, 25212, Note_off_c, 2, 58, 64
7, 25212, Note_off_c, 2, 67, 64
7, 25344, Note_on_c, 2, 65, 127
7, 25344, Note_on_c, 2, 60, 127
7, 25344, Note_on_c, 2, 57, 127
7, 25692, Note_off_c, 2, 65, 64
7, 25692, Note_off_c, 2, 60, 64
7, 25692, Note_off_c, 2, 57, 64
7, 25728, Note_on_c, 2, 65, 127
7, 25728, Note_on_c, 2, 60, 127
7, 25728, Note_on_c, 2, 57, 127
7, 25920, Note_off_c, 2, 65, 64
7, 25920, Note_off_c, 2, 60, 64
7, 25920, Note_off_c, 2, 57, 64
7, 25920, Note_on_c, 2, 64, 127
7, 25920, Note_on_c, 2, 60, 127
7, 25920, Note_on_c, 2, 55, 127
7, 26112, Note_off_c, 2, 64, 64
7, 26112, Note_off_c, 2, 60, 64
7, 26112, Note_off_c, 2, 55, 64
7, 26112, Note_on_c, 2, 66, 127
7, 26112, Note_on_c, 2, 62, 127
7, 26112, Note_on_c, 2, 60, 127
7, 26112, Note_on_c, 2, 69, 127
7, 26113, Note_off_c, 2, 60, 64
7, 26179, Note_off_c, 2, 66, 64
7, 26179, Note_off_c, 2, 62, 64
7, 26179, Note_off_c, 2, 69, 64
7, 26208, Note_on_c, 2, 66, 127
7, 26208, Note_on_c, 2, 62, 127
7, 26208, Note_on_c, 2, 60, 127
7, 26208, Note_on_c, 2, 69, 127
7, 26262, Note_off_c, 2, 66, 64
7, 26262, Note_off_c, 2, 62, 64
7, 26262, Note_off_c, 2, 60, 64
7, 26262, Note_off_c, 2, 69, 64
7, 26400, Note_on_c, 2, 66, 127
7, 26400, Note_on_c, 2, 62, 127
7, 26400, Note_on_c, 2, 60, 127
7, 26400, Note_on_c, 2, 69, 127
7, 26702, Note_off_c, 2, 66, 64
7, 26702, Note_off_c, 2, 62, 64
7, 26702, Note_off_c, 2, 60, 64
7, 26702, Note_off_c, 2, 69, 64
7, 26880, Note_on_c, 2, 62, 127
7, 26880, Note_on_c, 2, 59, 127
7, 26880, Note_on_c, 2, 55, 127
7, 27072, Note_off_c, 2, 62, 64
7, 27072, Note_off_c, 2, 59, 64
7, 27072, Note_off_c, 2, 55, 64
7, 27072, Note_on_c, 2, 67, 127
7, 27072, Note_on_c, 2, 64, 127
7, 27072, Note_on_c, 2, 60, 127
7, 27072, Note_on_c, 2, 69, 127
7, 27264, Note_off_c, 2, 67, 64
7, 27264, Note_off_c, 2, 64, 64
7, 27264, Note_off_c, 2, 60, 64
7, 27264, Note_off_c, 2, 69, 64
7, 27264, Note_on_c, 2, 62, 127
7, 27264, Note_on_c, 2, 59, 127
7, 27264, Note_on_c, 2, 55, 127
7, 27612, Note_off_c, 2, 62, 64
7, 27612, Note_off_c, 2, 59, 64
7, 27612, Note_off_c, 2, 55, 64
7, 27648, Note_on_c, 2, 64, 127
7, 27648, Note_on_c, 2, 60, 127
7, 27648, Note_on_c, 2, 57, 127
7, 27996, Note_off_c, 2, 64, 64
7, 27996, Note_off_c, 2, 60, 64
7, 27996, Note_off_c, 2, 57, 64
7, 28032, Note_on_c, 2, 64, 127
7, 28032, Note_on_c, 2, 60, 127
7, 28032, Note_on_c, 2, 57, 127
7, 28380, Note_off_c, 2, 64, 64
7, 28380, Note_off_c, 2, 60, 64
7, 28380, Note_off_c, 2, 57, 64
7, 28416, Note_on_c, 2, 67, 127
7, 28416, Note_on_c, 2, 64, 127
7, 28416, Note_on_c, 2, 60, 127
7, 28416, Note_on_c, 2, 69, 127
7, 28764, Note_off_c, 2, 67, 64
7, 28764, Note_off_c, 2, 64, 64
7, 28764, Note_off_c, 2, 60, 64
7, 28764, Note_off_c, 2, 69, 64
7, 28896, Note_on_c, 2, 66, 127
7, 28896, Note_on_c, 2, 64, 127
7, 28896, Note_on_c, 2, 60, 127
7, 28896, Note_on_c, 2, 69, 127
7, 29104, Note_off_c, 2, 66, 64
7, 29104, Note_off_c, 2, 64, 64
7, 29104, Note_off_c, 2, 60, 64
7, 29104, Note_off_c, 2, 69, 64
7, 29184, Note_on_c, 2, 65, 127
7, 29184, Note_on_c, 2, 60, 127
7, 29184, Note_on_c, 2, 57, 127
7, 29532, Note_off_c, 2, 65, 64
7, 29532, Note_off_c, 2, 60, 64
7, 29532, Note_off_c, 2, 57, 64
7, 29568, Note_on_c, 2, 67, 127
7, 29568, Note_on_c, 2, 63, 127
7, 29568, Note_on_c, 2, 58, 127
7, 29760, Note_off_c, 2, 67, 64
7, 29760, Note_off_c, 2, 63, 64
7, 29760, Note_off_c, 2, 58, 64
7, 29760, Note_on_c, 2, 65, 127
7, 29760, Note_on_c, 2, 62, 127
7, 29760, Note_on_c, 2, 59, 127
7, 29760, Note_on_c, 2, 67, 127
7, 29952, Note_off_c, 2, 65, 64
7, 29952, Note_off_c, 2, 62, 64
7, 29952, Note_off_c, 2, 59, 64
7, 29952, Note_off_c, 2, 67, 64
7, 30048, Note_on_c, 2, 64, 127
7, 30048, Note_on_c, 2, 60, 127
7, 30048, Note_on_c, 2, 55, 127
7, 30121, Note_off_c, 2, 64, 64
7, 30121, Note_off_c, 2, 60, 64
7, 30121, Note_off_c, 2, 55, 64
7, 30240, Note_on_c, 2, 48, 127
7, 30336, Note_on_c, 2, 64, 127
7, 30336, Note_on_c, 2, 60, 127
7, 30336, Note_on_c, 2, 55, 127
7, 30352, Note_off_c, 2, 48, 64
7, 30448, Note_off_c, 2, 64, 64
7, 30448, Note_off_c, 2, 60, 64
7, 30448, Note_off_c, 2, 55, 64
7, 30528, Note_on_c, 2, 64, 127
7, 30528, Note_on_c, 2, 60, 127
7, 30528, Note_on_c, 2, 55, 127
7, 30588, Note_off_c, 2, 64, 64
7, 30588, Note_off_c, 2, 60, 64
7, 30588, Note_off_c, 2, 55, 64
7, 30720, Note_on_c, 2, 64, 127
7, 30720, Note_on_c, 2, 62, 127
7, 30720, Note_on_c, 2, 59, 127
7, 30720, Note_on_c, 2, 67, 127
7, 30787, Note_off_c, 2, 64, 64
7, 30787, Note_off_c, 2, 62, 64
7, 30787, Note_off_c, 2, 59, 64
7, 30787, Note_off_c, 2, 67, 64
7, 30816, Note_on_c, 2, 64, 127
7, 30816, Note_on_c, 2, 62, 127
7, 30816, Note_on_c, 2, 59, 127
7, 30816, Note_on_c, 2, 67, 127
7, 30870, Note_off_c, 2, 64, 64
7, 30870, Note_off_c, 2, 62, 64
7, 30870, Note_off_c, 2, 59, 64
7, 30870, Note_off_c, 2, 67, 64
7, 31008, Note_on_c, 2, 64, 127
7, 31008, Note_on_c, 2, 62, 127
7, 31008, Note_on_c, 2, 59, 127
7, 31008, Note_on_c, 2, 67, 127
7, 31310, Note_off_c, 2, 64, 64
7, 31310, Note_off_c, 2, 62, 64
7, 31310, Note_off_c, 2, 59, 64
7, 31310, Note_off_c, 2, 67, 64
7, 31584, Note_on_c, 2, 64, 127
7, 31584, Note_on_c, 2, 60, 127
7, 31584, Note_on_c, 2, 58, 127
7, 31584, Note_on_c, 2, 67, 127
7, 31657, Note_off_c, 2, 64, 64
7, 31657, Note_off_c, 2, 60, 64
7, 31657, Note_off_c, 2, 58, 64
7, 31657, Note_off_c, 2, 67, 64
7, 31776, Note_on_c, 2, 48, 127
7, 31872, Note_on_c, 2, 64, 127
7, 31872, Note_on_c, 2, 60, 127
7, 31872, Note_on_c, 2, 58, 127
7, 31872, Note_on_c, 2, 67, 127
7, 31888, Note_off_c, 2, 48, 64
7, 31984, Note_off_c, 2, 64, 64
7, 31984, Note_off_c, 2, 60, 64
7, 31984, Note_off_c, 2, 58, 64
7, 31984, Note_off_c, 2, 67, 64
7, 32064, Note_on_c, 2, 64, 127
7, 32064, Note_on_c, 2, 60, 127
7, 32064, Note_on_c, 2, 58, 127
7, 32064, Note_on_c, 2, 67, 127
7, 32124, Note_off_c, 2, 64, 64
7, 32124, Note_off_c, 2, 60, 64
7, 32124, Note_off_c, 2, 58, 64
7, 32124, Note_off_c, 2, 67, 64
7, 32352, Note_on_c, 2, 65, 127
7, 32352, Note_on_c, 2, 60, 127
7, 32352, Note_on_c, 2, 57, 127
7, 32560, Note_off_c, 2, 65, 64
7, 32560, Note_off_c, 2, 60, 64
7, 32560, Note_off_c, 2, 57, 64
7, 32640, Note_on_c, 2, 65, 127
7, 32640, Note_on_c, 2, 60, 127
7, 32640, Note_on_c, 2, 57, 127
7, 32832, Note_off_c, 2, 65, 64
7, 32832, Note_off_c, 2, 60, 64
7, 32832, Note_off_c, 2, 57, 64
7, 32832, Note_on_c, 2, 64, 127
7, 32832, Note_on_c, 2, 60, 127
7, 32832, Note_on_c, 2, 55, 127
7, 33024, Note_off_c, 2, 64, 64
7, 33024, Note_off_c, 2, 60, 64
7, 33024, Note_off_c, 2, 55, 64
7, 33024, Note_on_c, 2, 66, 127
7, 33024, Note_on_c, 2, 62, 127
7, 33024, Note_on_c, 2, 60, 127
7, 33024, Note_on_c, 2, 69, 127
7, 33025, Note_off_c, 2, 60, 64
7, 33312, Note_on_c, 2, 50, 127
7, 33324, Note_off_c, 2, 66, 64
7, 33324, Note_off_c, 2, 62, 64
7, 33324, Note_off_c, 2, 69, 64
7, 33408, Note_on_c, 2, 66, 127
7, 33408, Note_on_c, 2, 62, 127
7, 33408, Note_on_c, 2, 60, 127
7, 33408, Note_on_c, 2, 69, 127
7, 33419, Note_off_c, 2, 50, 64
7, 33537, Note_off_c, 2, 66, 64
7, 33537, Note_off_c, 2, 62, 64
7, 33537, Note_off_c, 2, 60, 64
7, 33537, Note_off_c, 2, 69, 64
7, 33600, Note_on_c, 2, 66, 127
7, 33600, Note_on_c, 2, 62, 127
7, 33600, Note_on_c, 2, 60, 127
7, 33600, Note_on_c, 2, 69, 127
7, 33665, Note_off_c, 2, 66, 64
7, 33665, Note_off_c, 2, 62, 64
7, 33665, Note_off_c, 2, 60, 64
7, 33665, Note_off_c, 2, 69, 64
7, 33792, Note_on_c, 2, 62, 127
7, 33792, Note_on_c, 2, 59, 127
7, 33792, Note_on_c, 2, 55, 127
7, 33984, Note_off_c, 2, 62, 64
7, 33984, Note_off_c, 2, 59, 64
7, 33984, Note_off_c, 2, 55, 64
7, 33984, Note_on_c, 2, 67, 127
7, 33984, Note_on_c, 2, 64, 127
7, 33984, Note_on_c, 2, 60, 127
7, 33984, Note_on_c, 2, 69, 127
7, 34176, Note_off_c, 2, 67, 64
7, 34176, Note_off_c, 2, 64, 64
7, 34176, Note_off_c, 2, 60, 64
7, 34176, Note_off_c, 2, 69, 64
7, 34272, Note_on_c, 2, 65, 127
7, 34272, Note_on_c, 2, 62, 127
7, 34272, Note_on_c, 2, 59, 127
7, 34272, Note_on_c, 2, 67, 127
7, 34480, Note_off_c, 2, 65, 64
7, 34480, Note_off_c, 2, 62, 64
7, 34480, Note_off_c, 2, 59, 64
7, 34480, Note_off_c, 2, 67, 64
7, 34560, Note_on_c, 2, 64, 127
7, 34560, Note_on_c, 2, 60, 127
7, 34560, Note_on_c, 2, 57, 127
7, 34908, Note_off_c, 2, 64, 64
7, 34908, Note_off_c, 2, 60, 64
7, 34908, Note_off_c, 2, 57, 64
7, 34944, Note_on_c, 2, 64, 127
7, 34944, Note_on_c, 2, 60, 127
7, 34944, Note_on_c, 2, 57, 127
7, 35292, Note_off_c, 2, 64, 64
7, 35292, Note_off_c, 2, 60, 64
7, 35292, Note_off_c, 2, 57, 64
7, 35424, Note_on_c, 2, 64, 127
7, 35424, Note_on_c, 2, 60, 127
7, 35424, Note_on_c, 2, 57, 127
7, 35632, Note_off_c, 2, 64, 64
7, 35632, Note_off_c, 2, 60, 64
7, 35632, Note_off_c, 2, 57, 64
7, 35808, Note_on_c, 2, 62, 127
7, 35808, Note_on_c, 2, 60, 127
7, 35808, Note_on_c, 2, 57, 127
7, 35808, Note_on_c, 2, 66, 127
7, 36016, Note_off_c, 2, 62, 64
7, 36016, Note_off_c, 2, 60, 64
7, 36016, Note_off_c, 2, 57, 64
7, 36016, Note_off_c, 2, 66, 64
7, 36192, Note_on_c, 2, 65, 127
7, 36192, Note_on_c, 2, 60, 127
7, 36192, Note_on_c, 2, 57, 127
7, 36400, Note_off_c, 2, 65, 64
7, 36400, Note_off_c, 2, 60, 64
7, 36400, Note_off_c, 2, 57, 64
7, 36480, Note_on_c, 2, 67, 127
7, 36480, Note_on_c, 2, 63, 127
7, 36480, Note_on_c, 2, 58, 127
7, 36672, Note_off_c, 2, 67, 64
7, 36672, Note_off_c, 2, 63, 64
7, 36672, Note_off_c, 2, 58, 64
7, 36672, Note_on_c, 2, 65, 127
7, 36672, Note_on_c, 2, 62, 127
7, 36672, Note_on_c, 2, 59, 127
7, 36672, Note_on_c, 2, 67, 127
7, 36864, Note_off_c, 2, 65, 64
7, 36864, Note_off_c, 2, 62, 64
7, 36864, Note_off_c, 2, 59, 64
7, 36864, Note_off_c, 2, 67, 64
7, 36960, Note_on_c, 2, 64, 127
7, 36960, Note_on_c, 2, 60, 127
7, 36960, Note_on_c, 2, 55, 127
7, 37033, Note_off_c, 2, 64, 64
7, 37033, Note_off_c, 2, 60, 64
7, 37033, Note_off_c, 2, 55, 64
7, 37152, Note_on_c, 2, 48, 127
7, 37248, Note_on_c, 2, 64, 127
7, 37248, Note_on_c, 2, 60, 127
7, 37248, Note_on_c, 2, 55, 127
7, 37264, Note_off_c, 2, 48, 64
7, 37360, Note_off_c, 2, 64, 64
7, 37360, Note_off_c, 2, 60, 64
7, 37360, Note_off_c, 2, 55, 64
7, 37440, Note_on_c, 2, 64, 127
7, 37440, Note_on_c, 2, 60, 127
7, 37440, Note_on_c, 2, 55, 127
7, 37500, Note_off_c, 2, 64, 64
7, 37500, Note_off_c, 2, 60, 64
7, 37500, Note_off_c, 2, 55, 64
7, 37632, Note_on_c, 2, 64, 127
7, 37632, Note_on_c, 2, 62, 127
7, 37632, Note_on_c, 2, 59, 127
7, 37632, Note_on_c, 2, 67, 127
7, 37699, Note_off_c, 2, 64, 64
7, 37699, Note_off_c, 2, 62, 64
7, 37699, Note_off_c, 2, 59, 64
7, 37699, Note_off_c, 2, 67, 64
7, 37728, Note_on_c, 2, 64, 127
7, 37728, Note_on_c, 2, 62, 127
7, 37728, Note_on_c, 2, 59, 127
7, 37728, Note_on_c, 2, 67, 127
7, 37782, Note_off_c, 2, 64, 64
7, 37782, Note_off_c, 2, 62, 64
7, 37782, Note_off_c, 2, 59, 64
7, 37782, Note_off_c, 2, 67, 64
7, 37920, Note_on_c, 2, 64, 127
7, 37920, Note_on_c, 2, 62, 127
7, 37920, Note_on_c, 2, 59, 127
7, 37920, Note_on_c, 2, 67, 127
7, 38222, Note_off_c, 2, 64, 64
7, 38222, Note_off_c, 2, 62, 64
7, 38222, Note_off_c, 2, 59, 64
7, 38222, Note_off_c, 2, 67, 64
7, 38400, Note_on_c, 2, 64, 127
7, 38400, Note_on_c, 2, 60, 127
7, 38400, Note_on_c, 2, 58, 127
7, 38400, Note_on_c, 2, 67, 127
7, 38467, Note_off_c, 2, 64, 64
7, 38467, Note_off_c, 2, 60, 64
7, 38467, Note_off_c, 2, 58, 64
7, 38467, Note_off_c, 2, 67, 64
7, 38496, Note_on_c, 2, 64, 127
7, 38496, Note_on_c, 2, 60, 127
7, 38496, Note_on_c, 2, 58, 127
7, 38496, Note_on_c, 2, 67, 127
7, 38550, Note_off_c, 2, 64, 64
7, 38550, Note_off_c, 2, 60, 64
7, 38550, Note_off_c, 2, 58, 64
7, 38550, Note_off_c, 2, 67, 64
7, 38688, Note_on_c, 2, 64, 127
7, 38688, Note_on_c, 2, 60, 127
7, 38688, Note_on_c, 2, 58, 127
7, 38688, Note_on_c, 2, 67, 127
7, 38990, Note_off_c, 2, 64, 64
7, 38990, Note_off_c, 2, 60, 64
7, 38990, Note_off_c, 2, 58, 64
7, 38990, Note_off_c, 2, 67, 64
7, 39168, Note_on_c, 2, 65, 127
7, 39168, Note_on_c, 2, 60, 127
7, 39168, Note_on_c, 2, 57, 127
7, 39516, Note_off_c, 2, 65, 64
7, 39516, Note_off_c, 2, 60, 64
7, 39516, Note_off_c, 2, 57, 64
7, 39552, Note_on_c, 2, 65, 127
7, 39552, Note_on_c, 2, 60, 127
7, 39552, Note_on_c, 2, 57, 127
7, 39744, Note_off_c, 2, 65, 64
7, 39744, Note_off_c, 2, 60, 64
7, 39744, Note_off_c, 2, 57, 64
7, 39744, Note_on_c, 2, 64, 127
7, 39744, Note_on_c, 2, 60, 127
7, 39744, Note_on_c, 2, 55, 127
7, 39936, Note_off_c, 2, 64, 64
7, 39936, Note_off_c, 2, 60, 64
7, 39936, Note_off_c, 2, 55, 64
7, 39936, Note_on_c, 2, 66, 127
7, 39936, Note_on_c, 2, 62, 127
7, 39936, Note_on_c, 2, 60, 127
7, 39936, Note_on_c, 2, 69, 127
7, 39937, Note_off_c, 2, 60, 64
7, 40224, Note_on_c, 2, 50, 127
7, 40236, Note_off_c, 2, 66, 64
7, 40236, Note_off_c, 2, 62, 64
7, 40236, Note_off_c, 2, 69, 64
7, 40320, Note_on_c, 2, 66, 127
7, 40320, Note_on_c, 2, 62, 127
7, 40320, Note_on_c, 2, 60, 127
7, 40320, Note_on_c, 2, 69, 127
7, 40331, Note_off_c, 2, 50, 64
7, 40449, Note_off_c, 2, 66, 64
7, 40449, Note_off_c, 2, 62, 64
7, 40449, Note_off_c, 2, 60, 64
7, 40449, Note_off_c, 2, 69, 64
7, 40512, Note_on_c, 2, 66, 127
7, 40512, Note_on_c, 2, 62, 127
7, 40512, Note_on_c, 2, 60, 127
7, 40512, Note_on_c, 2, 69, 127
7, 40577, Note_off_c, 2, 66, 64
7, 40577, Note_off_c, 2, 62, 64
7, 40577, Note_off_c, 2, 60, 64
7, 40577, Note_off_c, 2, 69, 64
7, 40704, Note_on_c, 2, 62, 127
7, 40704, Note_on_c, 2, 59, 127
7, 40704, Note_on_c, 2, 55, 127
7, 40896, Note_off_c, 2, 62, 64
7, 40896, Note_off_c, 2, 59, 64
7, 40896, Note_off_c, 2, 55, 64
7, 40896, Note_on_c, 2, 67, 127
7, 40896, Note_on_c, 2, 64, 127
7, 40896, Note_on_c, 2, 60, 127
7, 40896, Note_on_c, 2, 69, 127
7, 41088, Note_off_c, 2, 67, 64
7, 41088, Note_off_c, 2, 64, 64
7, 41088, Note_off_c, 2, 60, 64
7, 41088, Note_off_c, 2, 69, 64
7, 41184, Note_on_c, 2, 65, 127
7, 41184, Note_on_c, 2, 62, 127
7, 41184, Note_on_c, 2, 59, 127
7, 41184, Note_on_c, 2, 67, 127
7, 41392, Note_off_c, 2, 65, 64
7, 41392, Note_off_c, 2, 62, 64
7, 41392, Note_off_c, 2, 59, 64
7, 41392, Note_off_c, 2, 67, 64
7, 41472, Note_on_c, 2, 64, 127
7, 41472, Note_on_c, 2, 60, 127
7, 41472, Note_on_c, 2, 57, 127
7, 41820, Note_off_c, 2, 64, 64
7, 41820, Note_off_c, 2, 60, 64
7, 41820, Note_off_c, 2, 57, 64
7, 41856, Note_on_c, 2, 64, 127
7, 41856, Note_on_c, 2, 60, 127
7, 41856, Note_on_c, 2, 57, 127
7, 42204, Note_off_c, 2, 64, 64
7, 42204, Note_off_c, 2, 60, 64
7, 42204, Note_off_c, 2, 57, 64
7, 42240, Note_on_c, 2, 64, 127
7, 42240, Note_on_c, 2, 60, 127
7, 42240, Note_on_c, 2, 57, 127
7, 42588, Note_off_c, 2, 64, 64
7, 42588, Note_off_c, 2, 60, 64
7, 42588, Note_off_c, 2, 57, 64
7, 42624, Note_on_c, 2, 66, 127
7, 42624, Note_on_c, 2, 62, 127
7, 42624, Note_on_c, 2, 60, 127
7, 42624, Note_on_c, 2, 69, 127
7, 42972, Note_off_c, 2, 66, 64
7, 42972, Note_off_c, 2, 62, 64
7, 42972, Note_off_c, 2, 60, 64
7, 42972, Note_off_c, 2, 69, 64
7, 43104, Note_on_c, 2, 65, 127
7, 43104, Note_on_c, 2, 60, 127
7, 43104, Note_on_c, 2, 57, 127
7, 43312, Note_off_c, 2, 65, 64
7, 43312, Note_off_c, 2, 60, 64
7, 43312, Note_off_c, 2, 57, 64
7, 43392, Note_on_c, 2, 63, 127
7, 43392, Note_on_c, 2, 58, 127
7, 43392, Note_on_c, 2, 55, 127
7, 43584, Note_off_c, 2, 63, 64
7, 43584, Note_off_c, 2, 58, 64
7, 43584, Note_off_c, 2, 55, 64
7, 43584, Note_on_c, 2, 65, 127
7, 43584, Note_on_c, 2, 62, 127
7, 43584, Note_on_c, 2, 59, 127
7, 43584, Note_on_c, 2, 67, 127
7, 43776, Note_off_c, 2, 65, 64
7, 43776, Note_off_c, 2, 62, 64
7, 43776, Note_off_c, 2, 59, 64
7, 43776, Note_off_c, 2, 67, 64
7, 43776, Note_on_c, 2, 64, 127
7, 43776, Note_on_c, 2, 61, 127
7, 43776, Note_on_c, 2, 57, 127
7, 43843, Note_off_c, 2, 64, 64
7, 43843, Note_off_c, 2, 61, 64
7, 43843, Note_off_c, 2, 57, 64
7, 43872, Note_on_c, 2, 64, 127
7, 43872, Note_on_c, 2, 61, 127
7, 43872, Note_on_c, 2, 57, 127
7, 43926, Note_off_c, 2, 64, 64
7, 43926, Note_off_c, 2, 61, 64
7, 43926, Note_off_c, 2, 57, 64
7, 44064, Note_on_c, 2, 64, 127
7, 44064, Note_on_c, 2, 61, 127
7, 44064, Note_on_c, 2, 57, 127
7, 44366, Note_off_c, 2, 64, 64
7, 44366, Note_off_c, 2, 61, 64
7, 44366, Note_off_c, 2, 57, 64
7, 44544, Note_on_c, 2, 64, 127
7, 44544, Note_on_c, 2, 61, 127
7, 44544, Note_on_c, 2, 57, 127
7, 44892, Note_off_c, 2, 64, 64
7, 44892, Note_off_c, 2, 61, 64
7, 44892, Note_off_c, 2, 57, 64
7, 44928, Note_on_c, 2, 64, 127
7, 44928, Note_on_c, 2, 61, 127
7, 44928, Note_on_c, 2, 56, 127
7, 45276, Note_off_c, 2, 64, 64
7, 45276, Note_off_c, 2, 61, 64
7, 45276, Note_off_c, 2, 56, 64
7, 45408, Note_on_c, 2, 66, 127
7, 45408, Note_on_c, 2, 61, 127
7, 45408, Note_on_c, 2, 57, 127
7, 45616, Note_off_c, 2, 66, 64
7, 45616, Note_off_c, 2, 61, 64
7, 45616, Note_off_c, 2, 57, 64
7, 45792, Note_on_c, 2, 66, 127
7, 45792, Note_on_c, 2, 61, 127
7, 45792, Note_on_c, 2, 57, 127
7, 46000, Note_off_c, 2, 66, 64
7, 46000, Note_off_c, 2, 61, 64
7, 46000, Note_off_c, 2, 57, 64
7, 46176, Note_on_c, 2, 62, 127
7, 46176, Note_on_c, 2, 57, 127
7, 46176, Note_on_c, 2, 54, 127
7, 46384, Note_off_c, 2, 62, 64
7, 46384, Note_off_c, 2, 57, 64
7, 46384, Note_off_c, 2, 54, 64
7, 46464, Note_on_c, 2, 62, 127
7, 46464, Note_on_c, 2, 59, 127
7, 46464, Note_on_c, 2, 55, 127
7, 46812, Note_off_c, 2, 62, 64
7, 46812, Note_off_c, 2, 59, 64
7, 46812, Note_off_c, 2, 55, 64
7, 46848, Note_on_c, 2, 64, 127
7, 46848, Note_on_c, 2, 61, 127
7, 46848, Note_on_c, 2, 57, 127
7, 47232, Note_off_c, 2, 57, 64
7, 47232, Note_on_c, 2, 57, 127
7, 47328, Note_off_c, 2, 61, 64
7, 47328, Note_on_c, 2, 61, 127
7, 47339, Note_off_c, 2, 64, 64
7, 47339, Note_off_c, 2, 57, 64
7, 47424, Note_on_c, 2, 64, 127
7, 47427, Note_off_c, 2, 61, 64
7, 47518, Note_off_c, 2, 64, 64
7, 47520, Note_on_c, 2, 69, 127
7, 47553, Note_off_c, 2, 69, 64
7, 47712, Note_on_c, 2, 64, 127
7, 47712, Note_on_c, 2, 61, 127
7, 47712, Note_on_c, 2, 57, 127
7, 47920, Note_off_c, 2, 64, 64
7, 47920, Note_off_c, 2, 61, 64
7, 47920, Note_off_c, 2, 57, 64
7, 48096, Note_on_c, 2, 64, 127
7, 48096, Note_on_c, 2, 61, 127
7, 48096, Note_on_c, 2, 56, 127
7, 48304, Note_off_c, 2, 64, 64
7, 48304, Note_off_c, 2, 61, 64
7, 48304, Note_off_c, 2, 56, 64
7, 48480, Note_on_c, 2, 66, 127
7, 48480, Note_on_c, 2, 61, 127
7, 48480, Note_on_c, 2, 57, 127
7, 48688, Note_off_c, 2, 66, 64
7, 48688, Note_off_c, 2, 61, 64
7, 48688, Note_off_c, 2, 57, 64
7, 48864, Note_on_c, 2, 69, 127
7, 48864, Note_on_c, 2, 66, 127
7, 48864, Note_on_c, 2, 61, 127
7, 49072, Note_off_c, 2, 69, 64
7, 49072, Note_off_c, 2, 66, 64
7, 49072, Note_off_c, 2, 61, 64
7, 49248, Note_on_c, 2, 66, 127
7, 49248, Note_on_c, 2, 62, 127
7, 49248, Note_on_c, 2, 57, 127
7, 49456, Note_off_c, 2, 66, 64
7, 49456, Note_off_c, 2, 62, 64
7, 49456, Note_off_c, 2, 57, 64
7, 49632, Note_on_c, 2, 62, 127
7, 49632, Note_on_c, 2, 59, 127
7, 49632, Note_on_c, 2, 55, 127
7, 49840, Note_off_c, 2, 62, 64
7, 49840, Note_off_c, 2, 59, 64
7, 49840, Note_off_c, 2, 55, 64
7, 50016, Note_on_c, 2, 64, 127
7, 50016, Note_on_c, 2, 60, 127
7, 50016, Note_on_c, 2, 55, 127
7, 50089, Note_off_c, 2, 64, 64
7, 50089, Note_off_c, 2, 60, 64
7, 50089, Note_off_c, 2, 55, 64
7, 50208, Note_on_c, 2, 48, 127
7, 50304, Note_on_c, 2, 64, 127
7, 50304, Note_on_c, 2, 60, 127
7, 50304, Note_on_c, 2, 55, 127
7, 50320, Note_off_c, 2, 48, 64
7, 50416, Note_off_c, 2, 64, 64
7, 50416, Note_off_c, 2, 60, 64
7, 50416, Note_off_c, 2, 55, 64
7, 50496, Note_on_c, 2, 64, 127
7, 50496, Note_on_c, 2, 60, 127
7, 50496, Note_on_c, 2, 55, 127
7, 50556, Note_off_c, 2, 64, 64
7, 50556, Note_off_c, 2, 60, 64
7, 50556, Note_off_c, 2, 55, 64
7, 50688, Note_on_c, 2, 64, 127
7, 50688, Note_on_c, 2, 60, 127
7, 50688, Note_on_c, 2, 55, 127
7, 50755, Note_off_c, 2, 64, 64
7, 50755, Note_off_c, 2, 60, 64
7, 50755, Note_off_c, 2, 55, 64
7, 50784, Note_on_c, 2, 64, 127
7, 50784, Note_on_c, 2, 60, 127
7, 50784, Note_on_c, 2, 55, 127
7, 50838, Note_off_c, 2, 64, 64
7, 50838, Note_off_c, 2, 60, 64
7, 50838, Note_off_c, 2, 55, 64
7, 50976, Note_on_c, 2, 64, 127
7, 50976, Note_on_c, 2, 60, 127
7, 50976, Note_on_c, 2, 55, 127
7, 51278, Note_off_c, 2, 64, 64
7, 51278, Note_off_c, 2, 60, 64
7, 51278, Note_off_c, 2, 55, 64
7, 51456, Note_on_c, 2, 64, 127
7, 51456, Note_on_c, 2, 62, 127
7, 51456, Note_on_c, 2, 59, 127
7, 51456, Note_on_c, 2, 67, 127
7, 51840, Note_on_c, 2, 60, 127
7, 51936, Note_off_c, 2, 64, 64
7, 51936, Note_off_c, 2, 60, 64
7, 51936, Note_on_c, 2, 64, 127
7, 51947, Note_off_c, 2, 62, 64
7, 51947, Note_off_c, 2, 59, 64
7, 51947, Note_off_c, 2, 67, 64
7, 52032, Note_on_c, 2, 67, 127
7, 52035, Note_off_c, 2, 64, 64
7, 52126, Note_off_c, 2, 67, 64
7, 52128, Note_on_c, 2, 74, 127
7, 52161, Note_off_c, 2, 74, 64
7, 52224, Note_on_c, 2, 64, 127
7, 52224, Note_on_c, 2, 60, 127
7, 52224, Note_on_c, 2, 58, 127
7, 52224, Note_on_c, 2, 67, 127
7, 52291, Note_off_c, 2, 64, 64
7, 52291, Note_off_c, 2, 60, 64
7, 52291, Note_off_c, 2, 58, 64
7, 52291, Note_off_c, 2, 67, 64
7, 52320, Note_on_c, 2, 64, 127
7, 52320, Note_on_c, 2, 60, 127
7, 52320, Note_on_c, 2, 58, 127
7, 52320, Note_on_c, 2, 67, 127
7, 52374, Note_off_c, 2, 64, 64
7, 52374, Note_off_c, 2, 60, 64
7, 52374, Note_off_c, 2, 58, 64
7, 52374, Note_off_c, 2, 67, 64
7, 52512, Note_on_c, 2, 64, 127
7, 52512, Note_on_c, 2, 60, 127
7, 52512, Note_on_c, 2, 58, 127
7, 52512, Note_on_c, 2, 67, 127
7, 52814, Note_off_c, 2, 64, 64
7, 52814, Note_off_c, 2, 60, 64
7, 52814, Note_off_c, 2, 58, 64
7, 52814, Note_off_c, 2, 67, 64
7, 52992, Note_on_c, 2, 65, 127
7, 52992, Note_on_c, 2, 60, 127
7, 52992, Note_on_c, 2, 57, 127
7, 53340, Note_off_c, 2, 65, 64
7, 53340, Note_off_c, 2, 60, 64
7, 53340, Note_off_c, 2, 57, 64
7, 53376, Note_on_c, 2, 65, 127
7, 53376, Note_on_c, 2, 60, 127
7, 53376, Note_on_c, 2, 57, 127
7, 53568, Note_off_c, 2, 65, 64
7, 53568, Note_off_c, 2, 60, 64
7, 53568, Note_off_c, 2, 57, 64
7, 53568, Note_on_c, 2, 64, 127
7, 53568, Note_on_c, 2, 60, 127
7, 53568, Note_on_c, 2, 55, 127
7, 53760, Note_off_c, 2, 64, 64
7, 53760, Note_off_c, 2, 60, 64
7, 53760, Note_off_c, 2, 55, 64
7, 53760, Note_on_c, 2, 66, 127
7, 53760, Note_on_c, 2, 62, 127
7, 53760, Note_on_c, 2, 60, 127
7, 53760, Note_on_c, 2, 69, 127
7, 53761, Note_off_c, 2, 60, 64
7, 53827, Note_off_c, 2, 66, 64
7, 53827, Note_off_c, 2, 62, 64
7, 53827, Note_off_c, 2, 69, 64
7, 53856, Note_on_c, 2, 66, 127
7, 53856, Note_on_c, 2, 62, 127
7, 53856, Note_on_c, 2, 60, 127
7, 53856, Note_on_c, 2, 69, 127
7, 53910, Note_off_c, 2, 66, 64
7, 53910, Note_off_c, 2, 62, 64
7, 53910, Note_off_c, 2, 60, 64
7, 53910, Note_off_c, 2, 69, 64
7, 54048, Note_on_c, 2, 66, 127
7, 54048, Note_on_c, 2, 62, 127
7, 54048, Note_on_c, 2, 60, 127
7, 54048, Note_on_c, 2, 69, 127
7, 54350, Note_off_c, 2, 66, 64
7, 54350, Note_off_c, 2, 62, 64
7, 54350, Note_off_c, 2, 60, 64
7, 54350, Note_off_c, 2, 69, 64
7, 54528, Note_on_c, 2, 62, 127
7, 54528, Note_on_c, 2, 59, 127
7, 54528, Note_on_c, 2, 55, 127
7, 54720, Note_off_c, 2, 62, 64
7, 54720, Note_off_c, 2, 59, 64
7, 54720, Note_off_c, 2, 55, 64
7, 54720, Note_on_c, 2, 67, 127
7, 54720, Note_on_c, 2, 64, 127
7, 54720, Note_on_c, 2, 60, 127
7, 54720, Note_on_c, 2, 69, 127
7, 54912, Note_off_c, 2, 67, 64
7, 54912, Note_off_c, 2, 64, 64
7, 54912, Note_off_c, 2, 60, 64
7, 54912, Note_off_c, 2, 69, 64
7, 54912, Note_on_c, 2, 62, 127
7, 54912, Note_on_c, 2, 59, 127
7, 54912, Note_on_c, 2, 55, 127
7, 55260, Note_off_c, 2, 62, 64
7, 55260, Note_off_c, 2, 59, 64
7, 55260, Note_off_c, 2, 55, 64
7, 55392, Note_on_c, 2, 64, 127
7, 55392, Note_on_c, 2, 60, 127
7, 55392, Note_on_c, 2, 57, 127
7, 55600, Note_off_c, 2, 64, 64
7, 55600, Note_off_c, 2, 60, 64
7, 55600, Note_off_c, 2, 57, 64
7, 55776, Note_on_c, 2, 64, 127
7, 55776, Note_on_c, 2, 60, 127
7, 55776, Note_on_c, 2, 57, 127
7, 55984, Note_off_c, 2, 64, 64
7, 55984, Note_off_c, 2, 60, 64
7, 55984, Note_off_c, 2, 57, 64
7, 56160, Note_on_c, 2, 67, 127
7, 56160, Note_on_c, 2, 64, 127
7, 56160, Note_on_c, 2, 60, 127
7, 56160, Note_on_c, 2, 69, 127
7, 56368, Note_off_c, 2, 67, 64
7, 56368, Note_off_c, 2, 64, 64
7, 56368, Note_off_c, 2, 60, 64
7, 56368, Note_off_c, 2, 69, 64
7, 56448, Note_on_c, 2, 66, 127
7, 56448, Note_on_c, 2, 64, 127
7, 56448, Note_on_c, 2, 60, 127
7, 56448, Note_on_c, 2, 69, 127
7, 56796, Note_off_c, 2, 66, 64
7, 56796, Note_off_c, 2, 64, 64
7, 56796, Note_off_c, 2, 60, 64
7, 56796, Note_off_c, 2, 69, 64
7, 56832, Note_on_c, 2, 65, 127
7, 56832, Note_on_c, 2, 60, 127
7, 56832, Note_on_c, 2, 57, 127
7, 57180, Note_off_c, 2, 65, 64
7, 57180, Note_off_c, 2, 60, 64
7, 57180, Note_off_c, 2, 57, 64
7, 57216, Note_on_c, 2, 63, 127
7, 57216, Note_on_c, 2, 58, 127
7, 57216, Note_on_c, 2, 55, 127
7, 57408, Note_off_c, 2, 63, 64
7, 57408, Note_off_c, 2, 58, 64
7, 57408, Note_off_c, 2, 55, 64
7, 57408, Note_on_c, 2, 65, 127
7, 57408, Note_on_c, 2, 62, 127
7, 57408, Note_on_c, 2, 59, 127
7, 57408, Note_on_c, 2, 67, 127
7, 57600, Note_off_c, 2, 65, 64
7, 57600, Note_off_c, 2, 62, 64
7, 57600, Note_off_c, 2, 59, 64
7, 57600, Note_off_c, 2, 67, 64
7, 57600, Note_on_c, 2, 64, 127
7, 57600, Note_on_c, 2, 61, 127
7, 57600, Note_on_c, 2, 57, 127
7, 58334, Note_off_c, 2, 64, 64
7, 58334, Note_off_c, 2, 61, 64
7, 58334, Note_off_c, 2, 57, 64
7, 58464, Note_on_c, 2, 65, 127
7, 58464, Note_on_c, 2, 60, 127
7, 58464, Note_on_c, 2, 57, 127
7, 58672, Note_off_c, 2, 65, 64
7, 58672, Note_off_c, 2, 60, 64
7, 58672, Note_off_c, 2, 57, 64
7, 58752, Note_on_c, 2, 63, 127
7, 58752, Note_on_c, 2, 58, 127
7, 58752, Note_on_c, 2, 55, 127
7, 58944, Note_off_c, 2, 63, 64
7, 58944, Note_off_c, 2, 58, 64
7, 58944, Note_off_c, 2, 55, 64
7, 58944, Note_on_c, 2, 65, 127
7, 58944, Note_on_c, 2, 62, 127
7, 58944, Note_on_c, 2, 59, 127
7, 58944, Note_on_c, 2, 67, 127
7, 59136, Note_off_c, 2, 65, 64
7, 59136, Note_off_c, 2, 62, 64
7, 59136, Note_off_c, 2, 59, 64
7, 59136, Note_off_c, 2, 67, 64
7, 59136, Note_on_c, 2, 64, 127
7, 59136, Note_on_c, 2, 60, 127
7, 59136, Note_on_c, 2, 55, 127
7, 59436, Note_off_c, 2, 64, 64
7, 59436, Note_off_c, 2, 60, 64
7, 59436, Note_off_c, 2, 55, 64
7, 59436, End_track
8, 0, Start_track
8, 0, MIDI_port, 0
8, 0, Title_t, "strings             "
8, 0, Program_c, 5, 48
8, 0, Control_c, 5, 7, 70
8, 0, Control_c, 5, 64, 0
8, 1536, Note_on_c, 5, 60, 97
8, 1536, Note_on_c, 5, 57, 106
8, 1536, Note_on_c, 5, 53, 89
8, 1920, Note_off_c, 5, 60, 64
8, 1920, Note_off_c, 5, 57, 64
8, 1920, Note_off_c, 5, 53, 64
8, 1920, Note_on_c, 5, 58, 97
8, 1920, Note_on_c, 5, 55, 106
8, 1920, Note_on_c, 5, 51, 89
8, 2112, Note_off_c, 5, 58, 64
8, 2112, Note_off_c, 5, 55, 64
8, 2112, Note_off_c, 5, 51, 64
8, 2112, Note_on_c, 5, 50, 97
8, 2112, Note_on_c, 5, 47, 106
8, 2112, Note_on_c, 5, 38, 89
8, 2304, Note_off_c, 5, 50, 64
8, 2304, Note_off_c, 5, 47, 64
8, 2304, Note_off_c, 5, 38, 64
8, 2304, Note_on_c, 5, 67, 98
8, 2304, Note_on_c, 5, 60, 97
8, 2304, Note_on_c, 5, 64, 107
8, 3072, Note_off_c, 5, 67, 64
8, 3072, Note_off_c, 5, 60, 64
8, 3072, Note_off_c, 5, 64, 64
8, 3072, Note_on_c, 5, 67, 98
8, 3072, Note_on_c, 5, 60, 97
8, 3072, Note_on_c, 5, 64, 107
8, 3073, Note_off_c, 5, 67, 64
8, 3073, Note_off_c, 5, 60, 64
8, 3073, Note_off_c, 5, 64, 64
8, 3840, Note_on_c, 5, 67, 98
8, 3840, Note_on_c, 5, 60, 97
8, 3840, Note_on_c, 5, 64, 107
8, 3841, Note_off_c, 5, 67, 64
8, 3841, Note_off_c, 5, 60, 64
8, 3841, Note_off_c, 5, 64, 64
8, 4608, Note_on_c, 5, 72, 98
8, 4608, Note_on_c, 5, 65, 97
8, 4608, Note_on_c, 5, 69, 107
8, 4992, Note_off_c, 5, 72, 64
8, 4992, Note_off_c, 5, 65, 64
8, 4992, Note_off_c, 5, 69, 64
8, 4992, Note_on_c, 5, 72, 98
8, 4992, Note_on_c, 5, 65, 97
8, 4992, Note_on_c, 5, 69, 107
8, 5184, Note_off_c, 5, 72, 64
8, 5184, Note_off_c, 5, 65, 64
8, 5184, Note_off_c, 5, 69, 64
8, 5184, Note_on_c, 5, 67, 98
8, 5184, Note_on_c, 5, 60, 97
8, 5184, Note_on_c, 5, 64, 107
8, 5376, Note_off_c, 5, 67, 64
8, 5376, Note_off_c, 5, 60, 64
8, 5376, Note_off_c, 5, 64, 64
8, 5376, Note_on_c, 5, 69, 98
8, 5376, Note_on_c, 5, 62, 97
8, 5376, Note_on_c, 5, 66, 107
8, 6144, Note_off_c, 5, 69, 64
8, 6144, Note_off_c, 5, 62, 64
8, 6144, Note_off_c, 5, 66, 64
8, 6144, Note_on_c, 5, 62, 98
8, 6144, Note_on_c, 5, 55, 97
8, 6144, Note_on_c, 5, 59, 107
8, 6145, Note_off_c, 5, 62, 64
8, 6336, Note_off_c, 5, 55, 64
8, 6336, Note_off_c, 5, 59, 64
8, 6336, Note_on_c, 5, 64, 98
8, 6336, Note_on_c, 5, 57, 97
8, 6336, Note_on_c, 5, 60, 107
8, 6528, Note_off_c, 5, 64, 64
8, 6528, Note_off_c, 5, 57, 64
8, 6528, Note_off_c, 5, 60, 64
8, 6528, Note_on_c, 5, 62, 98
8, 6528, Note_on_c, 5, 55, 97
8, 6528, Note_on_c, 5, 59, 107
8, 6912, Note_off_c, 5, 62, 64
8, 6912, Note_off_c, 5, 55, 64
8, 6912, Note_off_c, 5, 59, 64
8, 6912, Note_on_c, 5, 52, 97
8, 6912, Note_on_c, 5, 48, 106
8, 6912, Note_on_c, 5, 45, 89
8, 7296, Note_off_c, 5, 52, 64
8, 7296, Note_off_c, 5, 48, 64
8, 7296, Note_off_c, 5, 45, 64
8, 7296, Note_on_c, 5, 52, 97
8, 7296, Note_on_c, 5, 48, 106
8, 7296, Note_on_c, 5, 44, 89
8, 7680, Note_off_c, 5, 52, 64
8, 7680, Note_off_c, 5, 48, 64
8, 7680, Note_off_c, 5, 44, 64
8, 7680, Note_on_c, 5, 52, 97
8, 7680, Note_on_c, 5, 48, 106
8, 7680, Note_on_c, 5, 43, 89
8, 7681, Note_off_c, 5, 52, 64
8, 7681, Note_off_c, 5, 48, 64
8, 8064, Note_off_c, 5, 43, 64
8, 8064, Note_on_c, 5, 57, 97
8, 8064, Note_on_c, 5, 54, 106
8, 8064, Note_on_c, 5, 50, 89
8, 8448, Note_off_c, 5, 57, 64
8, 8448, Note_off_c, 5, 54, 64
8, 8448, Note_off_c, 5, 50, 64
8, 8448, Note_on_c, 5, 72, 98
8, 8448, Note_on_c, 5, 65, 97
8, 8448, Note_on_c, 5, 69, 107
8, 8832, Note_off_c, 5, 72, 64
8, 8832, Note_off_c, 5, 65, 64
8, 8832, Note_off_c, 5, 69, 64
8, 8832, Note_on_c, 5, 70, 98
8, 8832, Note_on_c, 5, 63, 97
8, 8832, Note_on_c, 5, 67, 107
8, 9024, Note_off_c, 5, 70, 64
8, 9024, Note_off_c, 5, 63, 64
8, 9024, Note_off_c, 5, 67, 64
8, 9024, Note_on_c, 5, 62, 98
8, 9024, Note_on_c, 5, 55, 97
8, 9024, Note_on_c, 5, 59, 107
8, 9216, Note_off_c, 5, 62, 64
8, 9216, Note_off_c, 5, 55, 64
8, 9216, Note_off_c, 5, 59, 64
8, 9216, Note_on_c, 5, 67, 98
8, 9216, Note_on_c, 5, 60, 97
8, 9216, Note_on_c, 5, 64, 107
8, 9984, Note_off_c, 5, 67, 64
8, 9984, Note_off_c, 5, 60, 64
8, 9984, Note_off_c, 5, 64, 64
8, 9984, Note_on_c, 5, 67, 98
8, 9984, Note_on_c, 5, 60, 97
8, 9984, Note_on_c, 5, 64, 107
8, 9985, Note_off_c, 5, 67, 64
8, 9985, Note_off_c, 5, 60, 64
8, 9985, Note_off_c, 5, 64, 64
8, 10752, Note_on_c, 5, 67, 98
8, 10752, Note_on_c, 5, 60, 97
8, 10752, Note_on_c, 5, 64, 107
8, 10753, Note_off_c, 5, 67, 64
8, 10753, Note_off_c, 5, 60, 64
8, 10753, Note_off_c, 5, 64, 64
8, 11520, Note_on_c, 5, 72, 98
8, 11520, Note_on_c, 5, 65, 97
8, 11520, Note_on_c, 5, 69, 107
8, 11904, Note_off_c, 5, 72, 64
8, 11904, Note_off_c, 5, 65, 64
8, 11904, Note_off_c, 5, 69, 64
8, 11904, Note_on_c, 5, 72, 98
8, 11904, Note_on_c, 5, 65, 97
8, 11904, Note_on_c, 5, 69, 107
8, 12096, Note_off_c, 5, 72, 64
8, 12096, Note_off_c, 5, 65, 64
8, 12096, Note_off_c, 5, 69, 64
8, 12096, Note_on_c, 5, 67, 98
8, 12096, Note_on_c, 5, 60, 97
8, 12096, Note_on_c, 5, 64, 107
8, 12288, Note_off_c, 5, 67, 64
8, 12288, Note_off_c, 5, 60, 64
8, 12288, Note_off_c, 5, 64, 64
8, 12288, Note_on_c, 5, 69, 98
8, 12288, Note_on_c, 5, 62, 97
8, 12288, Note_on_c, 5, 66, 107
8, 13056, Note_off_c, 5, 69, 64
8, 13056, Note_off_c, 5, 62, 64
8, 13056, Note_off_c, 5, 66, 64
8, 13056, Note_on_c, 5, 62, 98
8, 13056, Note_on_c, 5, 55, 97
8, 13056, Note_on_c, 5, 59, 107
8, 13057, Note_off_c, 5, 62, 64
8, 13248, Note_off_c, 5, 55, 64
8, 13248, Note_off_c, 5, 59, 64
8, 13248, Note_on_c, 5, 64, 98
8, 13248, Note_on_c, 5, 57, 97
8, 13248, Note_on_c, 5, 60, 107
8, 13440, Note_off_c, 5, 64, 64
8, 13440, Note_off_c, 5, 57, 64
8, 13440, Note_off_c, 5, 60, 64
8, 13440, Note_on_c, 5, 62, 98
8, 13440, Note_on_c, 5, 55, 97
8, 13440, Note_on_c, 5, 59, 107
8, 13824, Note_off_c, 5, 62, 64
8, 13824, Note_off_c, 5, 55, 64
8, 13824, Note_off_c, 5, 59, 64
8, 13824, Note_on_c, 5, 52, 97
8, 13824, Note_on_c, 5, 48, 106
8, 13824, Note_on_c, 5, 45, 89
8, 14208, Note_off_c, 5, 52, 64
8, 14208, Note_off_c, 5, 48, 64
8, 14208, Note_off_c, 5, 45, 64
8, 14208, Note_on_c, 5, 52, 97
8, 14208, Note_on_c, 5, 48, 106
8, 14208, Note_on_c, 5, 44, 89
8, 14592, Note_off_c, 5, 52, 64
8, 14592, Note_off_c, 5, 48, 64
8, 14592, Note_off_c, 5, 44, 64
8, 14592, Note_on_c, 5, 52, 97
8, 14592, Note_on_c, 5, 48, 106
8, 14592, Note_on_c, 5, 43, 89
8, 14593, Note_off_c, 5, 52, 64
8, 14593, Note_off_c, 5, 48, 64
8, 14976, Note_off_c, 5, 43, 64
8, 14976, Note_on_c, 5, 57, 97
8, 14976, Note_on_c, 5, 54, 106
8, 14976, Note_on_c, 5, 50, 89
8, 15360, Note_off_c, 5, 57, 64
8, 15360, Note_off_c, 5, 54, 64
8, 15360, Note_off_c, 5, 50, 64
8, 15360, Note_on_c, 5, 72, 98
8, 15360, Note_on_c, 5, 65, 97
8, 15360, Note_on_c, 5, 69, 107
8, 15744, Note_off_c, 5, 72, 64
8, 15744, Note_off_c, 5, 65, 64
8, 15744, Note_off_c, 5, 69, 64
8, 15744, Note_on_c, 5, 70, 98
8, 15744, Note_on_c, 5, 63, 97
8, 15744, Note_on_c, 5, 67, 107
8, 15936, Note_off_c, 5, 70, 64
8, 15936, Note_off_c, 5, 63, 64
8, 15936, Note_off_c, 5, 67, 64
8, 15936, Note_on_c, 5, 62, 98
8, 15936, Note_on_c, 5, 55, 97
8, 15936, Note_on_c, 5, 59, 107
8, 16128, Note_off_c, 5, 62, 64
8, 16128, Note_off_c, 5, 55, 64
8, 16128, Note_off_c, 5, 59, 64
8, 16128, Note_on_c, 5, 64, 98
8, 16128, Note_on_c, 5, 57, 97
8, 16128, Note_on_c, 5, 61, 107
8, 16896, Note_off_c, 5, 64, 64
8, 16896, Note_off_c, 5, 57, 64
8, 16896, Note_off_c, 5, 61, 64
8, 16896, Note_on_c, 5, 64, 98
8, 16896, Note_on_c, 5, 57, 97
8, 16896, Note_on_c, 5, 61, 107
8, 16897, Note_off_c, 5, 64, 64
8, 16897, Note_off_c, 5, 57, 64
8, 16897, Note_off_c, 5, 61, 64
8, 17280, Note_on_c, 5, 68, 98
8, 17280, Note_on_c, 5, 61, 97
8, 17280, Note_on_c, 5, 64, 107
8, 17281, Note_off_c, 5, 61, 64
8, 17281, Note_off_c, 5, 64, 64
8, 17664, Note_off_c, 5, 68, 64
8, 17664, Note_on_c, 5, 61, 98
8, 17664, Note_on_c, 5, 54, 97
8, 17664, Note_on_c, 5, 57, 107
8, 17665, Note_off_c, 5, 61, 64
8, 18048, Note_off_c, 5, 54, 64
8, 18048, Note_off_c, 5, 57, 64
8, 18048, Note_on_c, 5, 61, 98
8, 18048, Note_on_c, 5, 54, 97
8, 18048, Note_on_c, 5, 57, 107
8, 18049, Note_off_c, 5, 61, 64
8, 18432, Note_off_c, 5, 54, 64
8, 18432, Note_off_c, 5, 57, 64
8, 18432, Note_on_c, 5, 69, 98
8, 18432, Note_on_c, 5, 62, 97
8, 18432, Note_on_c, 5, 66, 107
8, 18816, Note_off_c, 5, 69, 64
8, 18816, Note_off_c, 5, 62, 64
8, 18816, Note_off_c, 5, 66, 64
8, 18816, Note_on_c, 5, 62, 98
8, 18816, Note_on_c, 5, 55, 97
8, 18816, Note_on_c, 5, 59, 107
8, 19200, Note_off_c, 5, 62, 64
8, 19200, Note_off_c, 5, 55, 64
8, 19200, Note_off_c, 5, 59, 64
8, 19200, Note_on_c, 5, 64, 98
8, 19200, Note_on_c, 5, 57, 97
8, 19200, Note_on_c, 5, 61, 107
8, 19968, Note_off_c, 5, 64, 64
8, 19968, Note_off_c, 5, 57, 64
8, 19968, Note_off_c, 5, 61, 64
8, 19968, Note_on_c, 5, 64, 98
8, 19968, Note_on_c, 5, 57, 97
8, 19968, Note_on_c, 5, 61, 107
8, 19969, Note_off_c, 5, 64, 64
8, 19969, Note_off_c, 5, 57, 64
8, 19969, Note_off_c, 5, 61, 64
8, 20352, Note_on_c, 5, 68, 98
8, 20352, Note_on_c, 5, 61, 97
8, 20352, Note_on_c, 5, 64, 107
8, 20353, Note_off_c, 5, 61, 64
8, 20353, Note_off_c, 5, 64, 64
8, 20736, Note_off_c, 5, 68, 64
8, 20736, Note_on_c, 5, 61, 98
8, 20736, Note_on_c, 5, 54, 97
8, 20736, Note_on_c, 5, 57, 107
8, 20737, Note_off_c, 5, 61, 64
8, 21120, Note_off_c, 5, 54, 64
8, 21120, Note_off_c, 5, 57, 64
8, 21120, Note_on_c, 5, 61, 98
8, 21120, Note_on_c, 5, 54, 97
8, 21120, Note_on_c, 5, 57, 107
8, 21121, Note_off_c, 5, 61, 64
8, 21504, Note_off_c, 5, 54, 64
8, 21504, Note_off_c, 5, 57, 64
8, 21504, Note_on_c, 5, 69, 98
8, 21504, Note_on_c, 5, 62, 97
8, 21504, Note_on_c, 5, 66, 107
8, 21888, Note_off_c, 5, 69, 64
8, 21888, Note_off_c, 5, 62, 64
8, 21888, Note_off_c, 5, 66, 64
8, 21888, Note_on_c, 5, 62, 98
8, 21888, Note_on_c, 5, 55, 97
8, 21888, Note_on_c, 5, 59, 107
8, 22272, Note_off_c, 5, 62, 64
8, 22272, Note_off_c, 5, 55, 64
8, 22272, Note_off_c, 5, 59, 64
8, 22272, Note_on_c, 5, 55, 97
8, 22272, Note_on_c, 5, 52, 106
8, 22272, Note_on_c, 5, 48, 89
8, 22273, Note_off_c, 5, 55, 64
8, 23808, Note_off_c, 5, 52, 64
8, 23808, Note_off_c, 5, 48, 64
8, 23808, Note_on_c, 5, 55, 97
8, 23808, Note_on_c, 5, 52, 106
8, 23808, Note_on_c, 5, 48, 89
8, 23809, Note_off_c, 5, 55, 64
8, 23809, Note_off_c, 5, 52, 64
8, 23809, Note_off_c, 5, 48, 64
8, 24576, Note_on_c, 5, 55, 97
8, 24576, Note_on_c, 5, 52, 106
8, 24576, Note_on_c, 5, 48, 89
8, 24577, Note_off_c, 5, 55, 64
8, 24577, Note_off_c, 5, 52, 64
8, 24577, Note_off_c, 5, 48, 64
8, 25344, Note_on_c, 5, 60, 97
8, 25344, Note_on_c, 5, 57, 106
8, 25344, Note_on_c, 5, 53, 89
8, 25728, Note_off_c, 5, 60, 64
8, 25728, Note_off_c, 5, 57, 64
8, 25728, Note_off_c, 5, 53, 64
8, 25728, Note_on_c, 5, 60, 97
8, 25728, Note_on_c, 5, 57, 106
8, 25728, Note_on_c, 5, 53, 89
8, 25920, Note_off_c, 5, 60, 64
8, 25920, Note_off_c, 5, 57, 64
8, 25920, Note_off_c, 5, 53, 64
8, 25920, Note_on_c, 5, 55, 97
8, 25920, Note_on_c, 5, 52, 106
8, 26112, Note_off_c, 5, 55, 64
8, 26112, Note_off_c, 5, 52, 64
8, 26112, Note_on_c, 5, 69, 98
8, 26112, Note_on_c, 5, 62, 97
8, 26112, Note_on_c, 5, 66, 107
8, 26880, Note_off_c, 5, 69, 64
8, 26880, Note_off_c, 5, 62, 64
8, 26880, Note_off_c, 5, 66, 64
8, 26880, Note_on_c, 5, 62, 98
8, 26880, Note_on_c, 5, 55, 97
8, 26880, Note_on_c, 5, 59, 107
8, 26881, Note_off_c, 5, 62, 64
8, 27072, Note_off_c, 5, 55, 64
8, 27072, Note_off_c, 5, 59, 64
8, 27072, Note_on_c, 5, 64, 98
8, 27072, Note_on_c, 5, 57, 97
8, 27072, Note_on_c, 5, 60, 107
8, 27264, Note_off_c, 5, 64, 64
8, 27264, Note_off_c, 5, 57, 64
8, 27264, Note_off_c, 5, 60, 64
8, 27264, Note_on_c, 5, 62, 98
8, 27264, Note_on_c, 5, 55, 97
8, 27264, Note_on_c, 5, 59, 107
8, 27648, Note_off_c, 5, 62, 64
8, 27648, Note_off_c, 5, 55, 64
8, 27648, Note_off_c, 5, 59, 64
8, 27648, Note_on_c, 5, 52, 97
8, 27648, Note_on_c, 5, 48, 106
8, 27648, Note_on_c, 5, 45, 89
8, 28032, Note_off_c, 5, 52, 64
8, 28032, Note_off_c, 5, 48, 64
8, 28032, Note_off_c, 5, 45, 64
8, 28032, Note_on_c, 5, 52, 97
8, 28032, Note_on_c, 5, 48, 106
8, 28032, Note_on_c, 5, 44, 89
8, 28416, Note_off_c, 5, 52, 64
8, 28416, Note_off_c, 5, 48, 64
8, 28416, Note_off_c, 5, 44, 64
8, 28416, Note_on_c, 5, 52, 97
8, 28416, Note_on_c, 5, 48, 106
8, 28416, Note_on_c, 5, 45, 89
8, 28417, Note_off_c, 5, 52, 64
8, 28417, Note_off_c, 5, 48, 64
8, 28800, Note_off_c, 5, 45, 64
8, 28800, Note_on_c, 5, 57, 97
8, 28800, Note_on_c, 5, 54, 106
8, 28800, Note_on_c, 5, 50, 89
8, 29184, Note_off_c, 5, 57, 64
8, 29184, Note_off_c, 5, 54, 64
8, 29184, Note_off_c, 5, 50, 64
8, 29184, Note_on_c, 5, 60, 97
8, 29184, Note_on_c, 5, 57, 106
8, 29184, Note_on_c, 5, 53, 89
8, 29185, Note_off_c, 5, 57, 64
8, 29568, Note_off_c, 5, 60, 64
8, 29568, Note_off_c, 5, 53, 64
8, 29568, Note_on_c, 5, 58, 97
8, 29568, Note_on_c, 5, 55, 106
8, 29568, Note_on_c, 5, 51, 89
8, 29760, Note_off_c, 5, 58, 64
8, 29760, Note_off_c, 5, 55, 64
8, 29760, Note_off_c, 5, 51, 64
8, 29760, Note_on_c, 5, 50, 97
8, 29760, Note_on_c, 5, 47, 106
8, 29760, Note_on_c, 5, 38, 89
8, 29952, Note_off_c, 5, 50, 64
8, 29952, Note_off_c, 5, 47, 64
8, 29952, Note_off_c, 5, 38, 64
8, 29952, Note_on_c, 5, 67, 98
8, 29952, Note_on_c, 5, 60, 97
8, 29952, Note_on_c, 5, 64, 107
8, 30720, Note_off_c, 5, 67, 64
8, 30720, Note_off_c, 5, 60, 64
8, 30720, Note_off_c, 5, 64, 64
8, 30720, Note_on_c, 5, 67, 98
8, 30720, Note_on_c, 5, 60, 97
8, 30720, Note_on_c, 5, 64, 107
8, 30721, Note_off_c, 5, 67, 64
8, 30721, Note_off_c, 5, 60, 64
8, 30721, Note_off_c, 5, 64, 64
8, 31488, Note_on_c, 5, 67, 98
8, 31488, Note_on_c, 5, 60, 97
8, 31488, Note_on_c, 5, 64, 107
8, 31489, Note_off_c, 5, 67, 64
8, 31489, Note_off_c, 5, 60, 64
8, 31489, Note_off_c, 5, 64, 64
8, 32256, Note_on_c, 5, 72, 98
8, 32256, Note_on_c, 5, 65, 97
8, 32256, Note_on_c, 5, 69, 107
8, 32640, Note_off_c, 5, 72, 64
8, 32640, Note_off_c, 5, 65, 64
8, 32640, Note_off_c, 5, 69, 64
8, 32640, Note_on_c, 5, 72, 98
8, 32640, Note_on_c, 5, 65, 97
8, 32640, Note_on_c, 5, 69, 107
8, 32832, Note_off_c, 5, 72, 64
8, 32832, Note_off_c, 5, 65, 64
8, 32832, Note_off_c, 5, 69, 64
8, 32832, Note_on_c, 5, 67, 98
8, 32832, Note_on_c, 5, 60, 97
8, 32832, Note_on_c, 5, 64, 107
8, 33024, Note_off_c, 5, 67, 64
8, 33024, Note_off_c, 5, 60, 64
8, 33024, Note_off_c, 5, 64, 64
8, 33024, Note_on_c, 5, 69, 98
8, 33024, Note_on_c, 5, 62, 97
8, 33024, Note_on_c, 5, 66, 107
8, 33792, Note_off_c, 5, 69, 64
8, 33792, Note_off_c, 5, 62, 64
8, 33792, Note_off_c, 5, 66, 64
8, 33792, Note_on_c, 5, 62, 98
8, 33792, Note_on_c, 5, 55, 97
8, 33792, Note_on_c, 5, 59, 107
8, 33793, Note_off_c, 5, 62, 64
8, 33984, Note_off_c, 5, 55, 64
8, 33984, Note_off_c, 5, 59, 64
8, 33984, Note_on_c, 5, 64, 98
8, 33984, Note_on_c, 5, 57, 97
8, 33984, Note_on_c, 5, 60, 107
8, 34176, Note_off_c, 5, 64, 64
8, 34176, Note_off_c, 5, 57, 64
8, 34176, Note_off_c, 5, 60, 64
8, 34176, Note_on_c, 5, 62, 98
8, 34176, Note_on_c, 5, 55, 97
8, 34176, Note_on_c, 5, 59, 107
8, 34560, Note_off_c, 5, 62, 64
8, 34560, Note_off_c, 5, 55, 64
8, 34560, Note_off_c, 5, 59, 64
8, 34560, Note_on_c, 5, 52, 97
8, 34560, Note_on_c, 5, 48, 106
8, 34560, Note_on_c, 5, 45, 89
8, 34944, Note_off_c, 5, 52, 64
8, 34944, Note_off_c, 5, 48, 64
8, 34944, Note_off_c, 5, 45, 64
8, 34944, Note_on_c, 5, 52, 97
8, 34944, Note_on_c, 5, 48, 106
8, 34944, Note_on_c, 5, 44, 89
8, 35328, Note_off_c, 5, 52, 64
8, 35328, Note_off_c, 5, 48, 64
8, 35328, Note_off_c, 5, 44, 64
8, 35328, Note_on_c, 5, 52, 97
8, 35328, Note_on_c, 5, 48, 106
8, 35328, Note_on_c, 5, 43, 89
8, 35329, Note_off_c, 5, 52, 64
8, 35329, Note_off_c, 5, 48, 64
8, 35712, Note_off_c, 5, 43, 64
8, 35712, Note_on_c, 5, 57, 97
8, 35712, Note_on_c, 5, 54, 106
8, 35712, Note_on_c, 5, 50, 89
8, 36096, Note_off_c, 5, 57, 64
8, 36096, Note_off_c, 5, 54, 64
8, 36096, Note_off_c, 5, 50, 64
8, 36096, Note_on_c, 5, 72, 98
8, 36096, Note_on_c, 5, 65, 97
8, 36096, Note_on_c, 5, 69, 107
8, 36480, Note_off_c, 5, 72, 64
8, 36480, Note_off_c, 5, 65, 64
8, 36480, Note_off_c, 5, 69, 64
8, 36480, Note_on_c, 5, 70, 98
8, 36480, Note_on_c, 5, 63, 97
8, 36480, Note_on_c, 5, 67, 107
8, 36672, Note_off_c, 5, 70, 64
8, 36672, Note_off_c, 5, 63, 64
8, 36672, Note_off_c, 5, 67, 64
8, 36672, Note_on_c, 5, 62, 98
8, 36672, Note_on_c, 5, 55, 97
8, 36672, Note_on_c, 5, 59, 107
8, 36864, Note_off_c, 5, 62, 64
8, 36864, Note_off_c, 5, 55, 64
8, 36864, Note_off_c, 5, 59, 64
8, 36864, Note_on_c, 5, 67, 98
8, 36864, Note_on_c, 5, 60, 97
8, 36864, Note_on_c, 5, 64, 107
8, 37632, Note_off_c, 5, 67, 64
8, 37632, Note_off_c, 5, 60, 64
8, 37632, Note_off_c, 5, 64, 64
8, 37632, Note_on_c, 5, 67, 98
8, 37632, Note_on_c, 5, 60, 97
8, 37632, Note_on_c, 5, 64, 107
8, 37633, Note_off_c, 5, 67, 64
8, 37633, Note_off_c, 5, 60, 64
8, 37633, Note_off_c, 5, 64, 64
8, 38400, Note_on_c, 5, 67, 98
8, 38400, Note_on_c, 5, 60, 97
8, 38400, Note_on_c, 5, 64, 107
8, 38401, Note_off_c, 5, 67, 64
8, 38401, Note_off_c, 5, 60, 64
8, 38401, Note_off_c, 5, 64, 64
8, 39168, Note_on_c, 5, 72, 98
8, 39168, Note_on_c, 5, 65, 97
8, 39168, Note_on_c, 5, 69, 107
8, 39552, Note_off_c, 5, 72, 64
8, 39552, Note_off_c, 5, 65, 64
8, 39552, Note_off_c, 5, 69, 64
8, 39552, Note_on_c, 5, 72, 98
8, 39552, Note_on_c, 5, 65, 97
8, 39552, Note_on_c, 5, 69, 107
8, 39744, Note_off_c, 5, 72, 64
8, 39744, Note_off_c, 5, 65, 64
8, 39744, Note_off_c, 5, 69, 64
8, 39744, Note_on_c, 5, 67, 98
8, 39744, Note_on_c, 5, 60, 97
8, 39744, Note_on_c, 5, 64, 107
8, 39936, Note_off_c, 5, 67, 64
8, 39936, Note_off_c, 5, 60, 64
8, 39936, Note_off_c, 5, 64, 64
8, 39936, Note_on_c, 5, 69, 98
8, 39936, Note_on_c, 5, 62, 97
8, 39936, Note_on_c, 5, 66, 107
8, 40704, Note_off_c, 5, 69, 64
8, 40704, Note_off_c, 5, 62, 64
8, 40704, Note_off_c, 5, 66, 64
8, 40704, Note_on_c, 5, 62, 98
8, 40704, Note_on_c, 5, 55, 97
8, 40704, Note_on_c, 5, 59, 107
8, 40705, Note_off_c, 5, 62, 64
8, 40896, Note_off_c, 5, 55, 64
8, 40896, Note_off_c, 5, 59, 64
8, 40896, Note_on_c, 5, 64, 98
8, 40896, Note_on_c, 5, 57, 97
8, 40896, Note_on_c, 5, 60, 107
8, 41088, Note_off_c, 5, 64, 64
8, 41088, Note_off_c, 5, 57, 64
8, 41088, Note_off_c, 5, 60, 64
8, 41088, Note_on_c, 5, 62, 98
8, 41088, Note_on_c, 5, 55, 97
8, 41088, Note_on_c, 5, 59, 107
8, 41472, Note_off_c, 5, 62, 64
8, 41472, Note_off_c, 5, 55, 64
8, 41472, Note_off_c, 5, 59, 64
8, 41472, Note_on_c, 5, 52, 97
8, 41472, Note_on_c, 5, 48, 106
8, 41472, Note_on_c, 5, 45, 89
8, 41856, Note_off_c, 5, 52, 64
8, 41856, Note_off_c, 5, 48, 64
8, 41856, Note_off_c, 5, 45, 64
8, 41856, Note_on_c, 5, 52, 97
8, 41856, Note_on_c, 5, 48, 106
8, 41856, Note_on_c, 5, 44, 89
8, 42240, Note_off_c, 5, 52, 64
8, 42240, Note_off_c, 5, 48, 64
8, 42240, Note_off_c, 5, 44, 64
8, 42240, Note_on_c, 5, 52, 97
8, 42240, Note_on_c, 5, 48, 106
8, 42240, Note_on_c, 5, 43, 89
8, 42241, Note_off_c, 5, 52, 64
8, 42241, Note_off_c, 5, 48, 64
8, 42624, Note_off_c, 5, 43, 64
8, 42624, Note_on_c, 5, 57, 97
8, 42624, Note_on_c, 5, 54, 106
8, 42624, Note_on_c, 5, 50, 89
8, 43008, Note_off_c, 5, 57, 64
8, 43008, Note_off_c, 5, 54, 64
8, 43008, Note_off_c, 5, 50, 64
8, 43008, Note_on_c, 5, 72, 98
8, 43008, Note_on_c, 5, 65, 97
8, 43008, Note_on_c, 5, 69, 107
8, 43392, Note_off_c, 5, 72, 64
8, 43392, Note_off_c, 5, 65, 64
8, 43392, Note_off_c, 5, 69, 64
8, 43392, Note_on_c, 5, 70, 98
8, 43392, Note_on_c, 5, 63, 97
8, 43392, Note_on_c, 5, 67, 107
8, 43584, Note_off_c, 5, 70, 64
8, 43584, Note_off_c, 5, 63, 64
8, 43584, Note_off_c, 5, 67, 64
8, 43584, Note_on_c, 5, 62, 98
8, 43584, Note_on_c, 5, 55, 97
8, 43584, Note_on_c, 5, 59, 107
8, 43776, Note_off_c, 5, 62, 64
8, 43776, Note_off_c, 5, 55, 64
8, 43776, Note_off_c, 5, 59, 64
8, 43776, Note_on_c, 5, 64, 98
8, 43776, Note_on_c, 5, 57, 97
8, 43776, Note_on_c, 5, 61, 107
8, 44544, Note_off_c, 5, 64, 64
8, 44544, Note_off_c, 5, 57, 64
8, 44544, Note_off_c, 5, 61, 64
8, 44544, Note_on_c, 5, 64, 98
8, 44544, Note_on_c, 5, 57, 97
8, 44544, Note_on_c, 5, 61, 107
8, 44545, Note_off_c, 5, 64, 64
8, 44545, Note_off_c, 5, 57, 64
8, 44545, Note_off_c, 5, 61, 64
8, 44928, Note_on_c, 5, 68, 98
8, 44928, Note_on_c, 5, 61, 97
8, 44928, Note_on_c, 5, 64, 107
8, 44929, Note_off_c, 5, 61, 64
8, 44929, Note_off_c, 5, 64, 64
8, 45312, Note_off_c, 5, 68, 64
8, 45312, Note_on_c, 5, 61, 98
8, 45312, Note_on_c, 5, 54, 97
8, 45312, Note_on_c, 5, 57, 107
8, 45313, Note_off_c, 5, 61, 64
8, 45696, Note_off_c, 5, 54, 64
8, 45696, Note_off_c, 5, 57, 64
8, 45696, Note_on_c, 5, 61, 98
8, 45696, Note_on_c, 5, 54, 97
8, 45696, Note_on_c, 5, 57, 107
8, 45697, Note_off_c, 5, 61, 64
8, 46080, Note_off_c, 5, 54, 64
8, 46080, Note_off_c, 5, 57, 64
8, 46080, Note_on_c, 5, 69, 98
8, 46080, Note_on_c, 5, 62, 97
8, 46080, Note_on_c, 5, 66, 107
8, 46464, Note_off_c, 5, 69, 64
8, 46464, Note_off_c, 5, 62, 64
8, 46464, Note_off_c, 5, 66, 64
8, 46464, Note_on_c, 5, 62, 98
8, 46464, Note_on_c, 5, 55, 97
8, 46464, Note_on_c, 5, 59, 107
8, 46848, Note_off_c, 5, 62, 64
8, 46848, Note_off_c, 5, 55, 64
8, 46848, Note_off_c, 5, 59, 64
8, 46848, Note_on_c, 5, 64, 98
8, 46848, Note_on_c, 5, 57, 97
8, 46848, Note_on_c, 5, 61, 107
8, 47616, Note_off_c, 5, 64, 64
8, 47616, Note_off_c, 5, 57, 64
8, 47616, Note_off_c, 5, 61, 64
8, 47616, Note_on_c, 5, 64, 98
8, 47616, Note_on_c, 5, 57, 97
8, 47616, Note_on_c, 5, 61, 107
8, 47617, Note_off_c, 5, 64, 64
8, 47617, Note_off_c, 5, 57, 64
8, 47617, Note_off_c, 5, 61, 64
8, 48000, Note_on_c, 5, 68, 98
8, 48000, Note_on_c, 5, 61, 97
8, 48000, Note_on_c, 5, 64, 107
8, 48001, Note_off_c, 5, 61, 64
8, 48001, Note_off_c, 5, 64, 64
8, 48384, Note_off_c, 5, 68, 64
8, 48384, Note_on_c, 5, 61, 98
8, 48384, Note_on_c, 5, 54, 97
8, 48384, Note_on_c, 5, 57, 107
8, 48385, Note_off_c, 5, 61, 64
8, 48768, Note_off_c, 5, 54, 64
8, 48768, Note_off_c, 5, 57, 64
8, 48768, Note_on_c, 5, 61, 98
8, 48768, Note_on_c, 5, 54, 97
8, 48768, Note_on_c, 5, 57, 107
8, 48769, Note_off_c, 5, 61, 64
8, 49152, Note_off_c, 5, 54, 64
8, 49152, Note_off_c, 5, 57, 64
8, 49152, Note_on_c, 5, 69, 98
8, 49152, Note_on_c, 5, 62, 97
8, 49152, Note_on_c, 5, 66, 107
8, 49536, Note_off_c, 5, 69, 64
8, 49536, Note_off_c, 5, 62, 64
8, 49536, Note_off_c, 5, 66, 64
8, 49536, Note_on_c, 5, 62, 98
8, 49536, Note_on_c, 5, 55, 97
8, 49536, Note_on_c, 5, 59, 107
8, 49920, Note_off_c, 5, 62, 64
8, 49920, Note_off_c, 5, 55, 64
8, 49920, Note_off_c, 5, 59, 64
8, 49920, Note_on_c, 5, 67, 98
8, 49920, Note_on_c, 5, 60, 97
8, 49920, Note_on_c, 5, 64, 107
8, 50688, Note_off_c, 5, 67, 64
8, 50688, Note_off_c, 5, 60, 64
8, 50688, Note_off_c, 5, 64, 64
8, 50688, Note_on_c, 5, 67, 98
8, 50688, Note_on_c, 5, 60, 97
8, 50688, Note_on_c, 5, 64, 107
8, 50689, Note_off_c, 5, 67, 64
8, 50689, Note_off_c, 5, 60, 64
8, 50689, Note_off_c, 5, 64, 64
8, 51456, Note_on_c, 5, 67, 98
8, 51456, Note_on_c, 5, 60, 97
8, 51456, Note_on_c, 5, 64, 107
8, 51457, Note_off_c, 5, 67, 64
8, 51457, Note_off_c, 5, 60, 64
8, 51457, Note_off_c, 5, 64, 64
8, 52224, Note_on_c, 5, 67, 98
8, 52224, Note_on_c, 5, 60, 97
8, 52224, Note_on_c, 5, 64, 107
8, 52225, Note_off_c, 5, 67, 64
8, 52225, Note_off_c, 5, 60, 64
8, 52225, Note_off_c, 5, 64, 64
8, 52992, Note_on_c, 5, 72, 98
8, 52992, Note_on_c, 5, 65, 97
8, 52992, Note_on_c, 5, 69, 107
8, 53376, Note_off_c, 5, 72, 64
8, 53376, Note_off_c, 5, 65, 64
8, 53376, Note_off_c, 5, 69, 64
8, 53376, Note_on_c, 5, 72, 98
8, 53376, Note_on_c, 5, 65, 97
8, 53376, Note_on_c, 5, 69, 107
8, 53568, Note_off_c, 5, 72, 64
8, 53568, Note_off_c, 5, 65, 64
8, 53568, Note_off_c, 5, 69, 64
8, 53568, Note_on_c, 5, 67, 98
8, 53568, Note_on_c, 5, 60, 97
8, 53568, Note_on_c, 5, 64, 107
8, 53760, Note_off_c, 5, 67, 64
8, 53760, Note_off_c, 5, 60, 64
8, 53760, Note_off_c, 5, 64, 64
8, 53760, Note_on_c, 5, 69, 98
8, 53760, Note_on_c, 5, 62, 97
8, 53760, Note_on_c, 5, 66, 107
8, 54528, Note_off_c, 5, 69, 64
8, 54528, Note_off_c, 5, 62, 64
8, 54528, Note_off_c, 5, 66, 64
8, 54528, Note_on_c, 5, 62, 98
8, 54528, Note_on_c, 5, 55, 97
8, 54528, Note_on_c, 5, 59, 107
8, 54529, Note_off_c, 5, 62, 64
8, 54720, Note_off_c, 5, 55, 64
8, 54720, Note_off_c, 5, 59, 64
8, 54720, Note_on_c, 5, 64, 98
8, 54720, Note_on_c, 5, 57, 97
8, 54720, Note_on_c, 5, 60, 107
8, 54912, Note_off_c, 5, 64, 64
8, 54912, Note_off_c, 5, 57, 64
8, 54912, Note_off_c, 5, 60, 64
8, 54912, Note_on_c, 5, 62, 98
8, 54912, Note_on_c, 5, 55, 97
8, 54912, Note_on_c, 5, 59, 107
8, 55296, Note_off_c, 5, 62, 64
8, 55296, Note_off_c, 5, 55, 64
8, 55296, Note_off_c, 5, 59, 64
8, 55296, Note_on_c, 5, 64, 98
8, 55296, Note_on_c, 5, 57, 97
8, 55296, Note_on_c, 5, 60, 107
8, 55680, Note_off_c, 5, 64, 64
8, 55680, Note_off_c, 5, 57, 64
8, 55680, Note_off_c, 5, 60, 64
8, 55680, Note_on_c, 5, 64, 98
8, 55680, Note_on_c, 5, 57, 97
8, 55680, Note_on_c, 5, 60, 107
8, 56064, Note_off_c, 5, 64, 64
8, 56064, Note_off_c, 5, 57, 64
8, 56064, Note_off_c, 5, 60, 64
8, 56064, Note_on_c, 5, 64, 98
8, 56064, Note_on_c, 5, 57, 97
8, 56064, Note_on_c, 5, 60, 107
8, 56065, Note_off_c, 5, 64, 64
8, 56065, Note_off_c, 5, 57, 64
8, 56065, Note_off_c, 5, 60, 64
8, 56448, Note_on_c, 5, 69, 98
8, 56448, Note_on_c, 5, 64, 97
8, 56448, Note_on_c, 5, 66, 107
8, 56449, Note_off_c, 5, 64, 64
8, 56832, Note_off_c, 5, 69, 64
8, 56832, Note_off_c, 5, 66, 64
8, 56832, Note_on_c, 5, 72, 98
8, 56832, Note_on_c, 5, 65, 97
8, 56832, Note_on_c, 5, 69, 107
8, 56833, Note_off_c, 5, 69, 64
8, 57216, Note_off_c, 5, 72, 64
8, 57216, Note_off_c, 5, 65, 64
8, 57216, Note_on_c, 5, 70, 98
8, 57216, Note_on_c, 5, 63, 97
8, 57216, Note_on_c, 5, 67, 107
8, 57408, Note_off_c, 5, 70, 64
8, 57408, Note_off_c, 5, 63, 64
8, 57408, Note_off_c, 5, 67, 64
8, 57408, Note_on_c, 5, 62, 98
8, 57408, Note_on_c, 5, 55, 97
8, 57408, Note_on_c, 5, 59, 107
8, 57600, Note_off_c, 5, 62, 64
8, 57600, Note_off_c, 5, 55, 64
8, 57600, Note_off_c, 5, 59, 64
8, 57600, Note_on_c, 5, 64, 98
8, 57600, Note_on_c, 5, 57, 97
8, 57600, Note_on_c, 5, 61, 107
8, 58368, Note_off_c, 5, 64, 64
8, 58368, Note_off_c, 5, 57, 64
8, 58368, Note_off_c, 5, 61, 64
8, 58368, Note_on_c, 5, 72, 100
8, 58368, Note_on_c, 5, 65, 100
8, 58368, Note_on_c, 5, 69, 100
8, 58752, Note_off_c, 5, 72, 64
8, 58752, Note_off_c, 5, 65, 64
8, 58752, Note_off_c, 5, 69, 64
8, 58752, Note_on_c, 5, 70, 52
8, 58752, Note_on_c, 5, 63, 52
8, 58752, Note_on_c, 5, 67, 52
8, 58944, Note_off_c, 5, 70, 64
8, 58944, Note_off_c, 5, 63, 64
8, 58944, Note_off_c, 5, 67, 64
8, 58944, Note_on_c, 5, 62, 28
8, 58944, Note_on_c, 5, 55, 28
8, 58944, Note_on_c, 5, 59, 28
8, 59136, Note_off_c, 5, 62, 64
8, 59136, Note_off_c, 5, 55, 64
8, 59136, Note_off_c, 5, 59, 64
8, 59136, End_track
9, 0, Start_track
9, 0, MIDI_port, 0
9, 0, Title_t, "melody-vibes        "
9, 0, Program_c, 0, 11
9, 0, Control_c, 0, 7, 125
9, 0, Control_c, 0, 10, 127
9, 1620, Note_on_c, 0, 67, 127
9, 1632, Note_on_c, 0, 69, 127
9, 1656, Note_off_c, 0, 67, 64
9, 1753, Note_off_c, 0, 69, 64
9, 1784, Note_on_c, 0, 72, 127
9, 1833, Note_off_c, 0, 72, 64
9, 1833, Note_on_c, 0, 69, 127
9, 1881, Note_off_c, 0, 69, 64
9, 1907, Note_on_c, 0, 70, 127
9, 2072, Note_off_c, 0, 70, 64
9, 2100, Note_on_c, 0, 71, 127
9, 2256, Note_off_c, 0, 71, 64
9, 2297, Note_on_c, 0, 72, 127
9, 2409, Note_off_c, 0, 72, 64
9, 2419, Note_on_c, 0, 72, 127
9, 2496, Note_off_c, 0, 72, 64
9, 2512, Note_on_c, 0, 72, 127
9, 2588, Note_off_c, 0, 72, 64
9, 2601, Note_on_c, 0, 72, 127
9, 2673, Note_off_c, 0, 72, 64
9, 2688, Note_on_c, 0, 72, 127
9, 2928, Note_off_c, 0, 72, 64
9, 2980, Note_on_c, 0, 76, 127
9, 3011, Note_off_c, 0, 76, 64
9, 3027, Note_on_c, 0, 72, 127
9, 3065, Note_off_c, 0, 72, 64
9, 3088, Note_on_c, 0, 71, 127
9, 3780, Note_off_c, 0, 71, 64
9, 4134, Note_on_c, 0, 70, 127
9, 4180, Note_on_c, 0, 72, 127
9, 4193, Note_off_c, 0, 70, 64
9, 4214, Note_off_c, 0, 72, 64
9, 4228, Note_on_c, 0, 74, 127
9, 4337, Note_on_c, 0, 72, 127
9, 4348, Note_off_c, 0, 74, 64
9, 4464, Note_off_c, 0, 72, 64
9, 4488, Note_on_c, 0, 74, 127
9, 4529, Note_off_c, 0, 74, 64
9, 4537, Note_on_c, 0, 72, 127
9, 4569, Note_off_c, 0, 72, 64
9, 4628, Note_on_c, 0, 74, 127
9, 4688, Note_on_c, 0, 72, 127
9, 4696, Note_off_c, 0, 74, 64
9, 4723, Note_off_c, 0, 72, 64
9, 4742, Note_on_c, 0, 69, 127
9, 4774, Note_off_c, 0, 69, 64
9, 4817, Note_on_c, 0, 65, 127
9, 4851, Note_off_c, 0, 65, 64
9, 4867, Note_on_c, 0, 62, 127
9, 4896, Note_off_c, 0, 62, 64
9, 4912, Note_on_c, 0, 60, 127
9, 5148, Note_off_c, 0, 60, 64
9, 5395, Note_on_c, 0, 74, 127
9, 5484, Note_off_c, 0, 74, 64
9, 5500, Note_on_c, 0, 74, 127
9, 5641, Note_off_c, 0, 74, 64
9, 5660, Note_on_c, 0, 74, 127
9, 5688, Note_off_c, 0, 74, 64
9, 5710, Note_on_c, 0, 74, 127
9, 5747, Note_off_c, 0, 74, 64
9, 5768, Note_on_c, 0, 72, 127
9, 5939, Note_off_c, 0, 72, 64
9, 5955, Note_on_c, 0, 74, 127
9, 6097, Note_off_c, 0, 74, 64
9, 6144, Note_on_c, 0, 69, 127
9, 6169, Note_on_c, 0, 71, 127
9, 6177, Note_off_c, 0, 69, 64
9, 6219, Note_off_c, 0, 71, 64
9, 6220, Note_on_c, 0, 70, 127
9, 6259, Note_on_c, 0, 69, 127
9, 6267, Note_off_c, 0, 70, 64
9, 6318, Note_off_c, 0, 69, 64
9, 6329, Note_on_c, 0, 67, 127
9, 6590, Note_off_c, 0, 67, 64
9, 6912, Note_on_c, 0, 69, 127
9, 6977, Note_off_c, 0, 69, 64
9, 6982, Note_on_c, 0, 72, 127
9, 7012, Note_off_c, 0, 72, 64
9, 7020, Note_on_c, 0, 69, 127
9, 7059, Note_off_c, 0, 69, 64
9, 7070, Note_on_c, 0, 76, 127
9, 7184, Note_off_c, 0, 76, 64
9, 7187, Note_on_c, 0, 69, 127
9, 7235, Note_off_c, 0, 69, 64
9, 7248, Note_on_c, 0, 72, 127
9, 7606, Note_off_c, 0, 72, 64
9, 7667, Note_on_c, 0, 74, 127
9, 7680, Note_on_c, 0, 76, 127
9, 7704, Note_off_c, 0, 74, 64
9, 7756, Note_on_c, 0, 74, 127
9, 7769, Note_off_c, 0, 76, 64
9, 7795, Note_off_c, 0, 74, 64
9, 7801, Note_on_c, 0, 72, 127
9, 7844, Note_off_c, 0, 72, 64
9, 7851, Note_on_c, 0, 74, 127
9, 7902, Note_off_c, 0, 74, 64
9, 7916, Note_on_c, 0, 76, 127
9, 7956, Note_off_c, 0, 76, 64
9, 7971, Note_on_c, 0, 72, 127
9, 8017, Note_off_c, 0, 72, 64
9, 8038, Note_on_c, 0, 69, 127
9, 8361, Note_off_c, 0, 69, 64
9, 8534, Note_on_c, 0, 67, 127
9, 8544, Note_on_c, 0, 68, 127
9, 8548, Note_on_c, 0, 69, 127
9, 8560, Note_off_c, 0, 68, 64
9, 8569, Note_off_c, 0, 67, 64
9, 8611, Note_off_c, 0, 69, 64
9, 8641, Note_on_c, 0, 72, 127
9, 8720, Note_off_c, 0, 72, 64
9, 8740, Note_on_c, 0, 69, 127
9, 8804, Note_off_c, 0, 69, 64
9, 8832, Note_on_c, 0, 70, 127
9, 9004, Note_off_c, 0, 70, 64
9, 9043, Note_on_c, 0, 71, 127
9, 9184, Note_off_c, 0, 71, 64
9, 9233, Note_on_c, 0, 72, 127
9, 9312, Note_off_c, 0, 72, 64
9, 9329, Note_on_c, 0, 72, 127
9, 9433, Note_off_c, 0, 72, 64
9, 9454, Note_on_c, 0, 72, 127
9, 9484, Note_off_c, 0, 72, 64
9, 9513, Note_on_c, 0, 72, 127
9, 9612, Note_on_c, 0, 79, 127
9, 9620, Note_off_c, 0, 72, 64
9, 9820, Note_off_c, 0, 79, 64
9, 9910, Note_on_c, 0, 72, 127
9, 9984, Note_off_c, 0, 72, 64
9, 10004, Note_on_c, 0, 71, 127
9, 10638, Note_off_c, 0, 71, 64
9, 11024, Note_on_c, 0, 70, 127
9, 11054, Note_on_c, 0, 72, 127
9, 11062, Note_off_c, 0, 70, 64
9, 11120, Note_off_c, 0, 72, 64
9, 11148, Note_on_c, 0, 74, 127
9, 11340, Note_on_c, 0, 72, 127
9, 11348, Note_off_c, 0, 74, 64
9, 11432, Note_off_c, 0, 72, 64
9, 11440, Note_on_c, 0, 74, 127
9, 11512, Note_off_c, 0, 74, 64
9, 11532, Note_on_c, 0, 72, 127
9, 11566, Note_off_c, 0, 72, 64
9, 11603, Note_on_c, 0, 67, 127
9, 11616, Note_on_c, 0, 68, 127
9, 11620, Note_on_c, 0, 69, 127
9, 11632, Note_off_c, 0, 67, 64
9, 11632, Note_off_c, 0, 68, 64
9, 11654, Note_off_c, 0, 69, 64
9, 11664, Note_on_c, 0, 65, 127
9, 11700, Note_off_c, 0, 65, 64
9, 11718, Note_on_c, 0, 62, 127
9, 11744, Note_off_c, 0, 62, 64
9, 11776, Note_on_c, 0, 60, 127
9, 12140, Note_off_c, 0, 60, 64
9, 12163, Note_on_c, 0, 60, 127
9, 12192, Note_off_c, 0, 60, 64
9, 12214, Note_on_c, 0, 61, 127
9, 12265, Note_off_c, 0, 61, 64
9, 12304, Note_on_c, 0, 62, 127
9, 12392, Note_off_c, 0, 62, 64
9, 12408, Note_on_c, 0, 62, 127
9, 12467, Note_off_c, 0, 62, 64
9, 12499, Note_on_c, 0, 66, 127
9, 12536, Note_off_c, 0, 66, 64
9, 12560, Note_on_c, 0, 69, 127
9, 12595, Note_off_c, 0, 69, 64
9, 12617, Note_on_c, 0, 74, 127
9, 12681, Note_off_c, 0, 74, 64
9, 12692, Note_on_c, 0, 72, 127
9, 12942, Note_off_c, 0, 72, 64
9, 12969, Note_on_c, 0, 74, 127
9, 13017, Note_off_c, 0, 74, 64
9, 13065, Note_on_c, 0, 70, 127
9, 13075, Note_on_c, 0, 69, 127
9, 13083, Note_off_c, 0, 69, 64
9, 13086, Note_on_c, 0, 71, 127
9, 13094, Note_off_c, 0, 70, 64
9, 13120, Note_off_c, 0, 71, 64
9, 13132, Note_on_c, 0, 69, 127
9, 13185, Note_off_c, 0, 69, 64
9, 13185, Note_on_c, 0, 68, 127
9, 13225, Note_on_c, 0, 67, 127
9, 13228, Note_off_c, 0, 68, 64
9, 13604, Note_off_c, 0, 67, 64
9, 13824, Note_on_c, 0, 69, 127
9, 13888, Note_off_c, 0, 69, 64
9, 13899, Note_on_c, 0, 72, 127
9, 13940, Note_off_c, 0, 72, 64
9, 13956, Note_on_c, 0, 69, 127
9, 13979, Note_off_c, 0, 69, 64
9, 14022, Note_on_c, 0, 74, 127
9, 14033, Note_on_c, 0, 76, 127
9, 14044, Note_off_c, 0, 74, 64
9, 14075, Note_off_c, 0, 76, 64
9, 14089, Note_on_c, 0, 69, 127
9, 14134, Note_on_c, 0, 72, 127
9, 14137, Note_off_c, 0, 69, 64
9, 14451, Note_off_c, 0, 72, 64
9, 14499, Note_on_c, 0, 72, 127
9, 14524, Note_off_c, 0, 72, 64
9, 14552, Note_on_c, 0, 74, 127
9, 14580, Note_off_c, 0, 74, 64
9, 14608, Note_on_c, 0, 74, 127
9, 14622, Note_on_c, 0, 75, 127
9, 14633, Note_on_c, 0, 76, 127
9, 14644, Note_off_c, 0, 75, 64
9, 14648, Note_off_c, 0, 74, 64
9, 14672, Note_off_c, 0, 76, 64
9, 14700, Note_on_c, 0, 79, 127
9, 14726, Note_off_c, 0, 79, 64
9, 14771, Note_on_c, 0, 75, 127
9, 14784, Note_on_c, 0, 74, 127
9, 14790, Note_on_c, 0, 76, 127
9, 14803, Note_off_c, 0, 75, 64
9, 14803, Note_off_c, 0, 74, 64
9, 14840, Note_off_c, 0, 76, 64
9, 14856, Note_on_c, 0, 74, 127
9, 14904, Note_off_c, 0, 74, 64
9, 14912, Note_on_c, 0, 72, 127
9, 14950, Note_off_c, 0, 72, 64
9, 14960, Note_on_c, 0, 69, 127
9, 15387, Note_off_c, 0, 69, 64
9, 15456, Note_on_c, 0, 67, 127
9, 15465, Note_on_c, 0, 69, 127
9, 15468, Note_on_c, 0, 68, 127
9, 15484, Note_off_c, 0, 68, 64
9, 15496, Note_off_c, 0, 67, 64
9, 15540, Note_off_c, 0, 69, 64
9, 15564, Note_on_c, 0, 72, 127
9, 15648, Note_off_c, 0, 72, 64
9, 15657, Note_on_c, 0, 69, 127
9, 15726, Note_off_c, 0, 69, 64
9, 15758, Note_on_c, 0, 70, 127
9, 15908, Note_off_c, 0, 70, 64
9, 15953, Note_on_c, 0, 71, 127
9, 16072, Note_off_c, 0, 71, 64
9, 16110, Note_on_c, 0, 71, 127
9, 16121, Note_on_c, 0, 72, 127
9, 16140, Note_off_c, 0, 71, 64
9, 16140, Note_on_c, 0, 73, 127
9, 16153, Note_off_c, 0, 72, 64
9, 16825, Note_off_c, 0, 73, 64
9, 23043, Note_on_c, 0, 72, 127
9, 23140, Note_off_c, 0, 72, 64
9, 23161, Note_on_c, 0, 72, 127
9, 23286, Note_off_c, 0, 72, 64
9, 23299, Note_on_c, 0, 72, 127
9, 23340, Note_off_c, 0, 72, 64
9, 23353, Note_on_c, 0, 72, 127
9, 23419, Note_off_c, 0, 72, 64
9, 23435, Note_on_c, 0, 72, 127
9, 23712, Note_off_c, 0, 72, 64
9, 23737, Note_on_c, 0, 72, 127
9, 23827, Note_off_c, 0, 72, 64
9, 23835, Note_on_c, 0, 71, 127
9, 24462, Note_off_c, 0, 71, 64
9, 24478, Note_on_c, 0, 71, 127
9, 24579, Note_off_c, 0, 71, 64
9, 24592, Note_on_c, 0, 70, 127
9, 24843, Note_on_c, 0, 72, 127
9, 24856, Note_off_c, 0, 70, 64
9, 24889, Note_off_c, 0, 72, 64
9, 24908, Note_on_c, 0, 72, 127
9, 24924, Note_on_c, 0, 74, 127
9, 24952, Note_off_c, 0, 72, 64
9, 25219, Note_on_c, 0, 72, 127
9, 25228, Note_off_c, 0, 74, 64
9, 25259, Note_off_c, 0, 72, 64
9, 25273, Note_on_c, 0, 74, 127
9, 25324, Note_on_c, 0, 72, 127
9, 25329, Note_off_c, 0, 74, 64
9, 25372, Note_off_c, 0, 72, 64
9, 25392, Note_on_c, 0, 74, 127
9, 25444, Note_off_c, 0, 74, 64
9, 25444, Note_on_c, 0, 72, 127
9, 25470, Note_off_c, 0, 72, 64
9, 25494, Note_on_c, 0, 69, 127
9, 25544, Note_off_c, 0, 69, 64
9, 25558, Note_on_c, 0, 67, 127
9, 25579, Note_on_c, 0, 69, 127
9, 25588, Note_off_c, 0, 67, 64
9, 25617, Note_off_c, 0, 69, 64
9, 25632, Note_on_c, 0, 65, 127
9, 25665, Note_off_c, 0, 65, 64
9, 25678, Note_on_c, 0, 62, 127
9, 25708, Note_off_c, 0, 62, 64
9, 25736, Note_on_c, 0, 60, 127
9, 25945, Note_off_c, 0, 60, 64
9, 25996, Note_on_c, 0, 61, 127
9, 26081, Note_off_c, 0, 61, 64
9, 26112, Note_on_c, 0, 62, 127
9, 26193, Note_off_c, 0, 62, 64
9, 26220, Note_on_c, 0, 66, 127
9, 26243, Note_off_c, 0, 66, 64
9, 26272, Note_on_c, 0, 69, 127
9, 26300, Note_off_c, 0, 69, 64
9, 26332, Note_on_c, 0, 74, 127
9, 26390, Note_off_c, 0, 74, 64
9, 26409, Note_on_c, 0, 74, 127
9, 26433, Note_off_c, 0, 74, 64
9, 26452, Note_on_c, 0, 74, 127
9, 26494, Note_off_c, 0, 74, 64
9, 26504, Note_on_c, 0, 72, 127
9, 26745, Note_off_c, 0, 72, 64
9, 26785, Note_on_c, 0, 72, 127
9, 26793, Note_on_c, 0, 74, 127
9, 26832, Note_off_c, 0, 72, 64
9, 26840, Note_off_c, 0, 74, 64
9, 26899, Note_on_c, 0, 67, 127
9, 26908, Note_on_c, 0, 68, 127
9, 26912, Note_on_c, 0, 69, 127
9, 26921, Note_off_c, 0, 68, 64
9, 26924, Note_off_c, 0, 67, 64
9, 26955, Note_off_c, 0, 69, 64
9, 26969, Note_on_c, 0, 66, 127
9, 26969, Note_on_c, 0, 68, 127
9, 26998, Note_off_c, 0, 66, 64
9, 27008, Note_off_c, 0, 68, 64
9, 27009, Note_on_c, 0, 67, 127
9, 27323, Note_off_c, 0, 67, 64
9, 27648, Note_on_c, 0, 69, 127
9, 27721, Note_off_c, 0, 69, 64
9, 27726, Note_on_c, 0, 72, 127
9, 27782, Note_on_c, 0, 69, 127
9, 27803, Note_off_c, 0, 69, 64
9, 27806, Note_off_c, 0, 72, 64
9, 27846, Note_on_c, 0, 74, 127
9, 27859, Note_on_c, 0, 76, 127
9, 27868, Note_off_c, 0, 74, 64
9, 27896, Note_off_c, 0, 76, 64
9, 27912, Note_on_c, 0, 69, 127
9, 27963, Note_off_c, 0, 69, 64
9, 27972, Note_on_c, 0, 72, 127
9, 28296, Note_off_c, 0, 72, 64
9, 28324, Note_on_c, 0, 72, 127
9, 28352, Note_off_c, 0, 72, 64
9, 28376, Note_on_c, 0, 74, 127
9, 28404, Note_off_c, 0, 74, 64
9, 28435, Note_on_c, 0, 74, 127
9, 28451, Note_on_c, 0, 76, 127
9, 28460, Note_off_c, 0, 74, 64
9, 28502, Note_off_c, 0, 76, 64
9, 28510, Note_on_c, 0, 74, 127
9, 28542, Note_off_c, 0, 74, 64
9, 28553, Note_on_c, 0, 72, 127
9, 28587, Note_off_c, 0, 72, 64
9, 28627, Note_on_c, 0, 74, 127
9, 28680, Note_off_c, 0, 74, 64
9, 28688, Note_on_c, 0, 76, 127
9, 28723, Note_off_c, 0, 76, 64
9, 28731, Note_on_c, 0, 74, 127
9, 28760, Note_off_c, 0, 74, 64
9, 28760, Note_on_c, 0, 72, 127
9, 28790, Note_off_c, 0, 72, 64
9, 28812, Note_on_c, 0, 69, 127
9, 29179, Note_off_c, 0, 69, 64
9, 29276, Note_on_c, 0, 67, 127
9, 29286, Note_on_c, 0, 69, 127
9, 29289, Note_on_c, 0, 68, 127
9, 29297, Note_off_c, 0, 68, 64
9, 29307, Note_off_c, 0, 67, 64
9, 29414, Note_off_c, 0, 69, 64
9, 29438, Note_on_c, 0, 72, 127
9, 29483, Note_off_c, 0, 72, 64
9, 29491, Note_on_c, 0, 69, 127
9, 29532, Note_off_c, 0, 69, 64
9, 29582, Note_on_c, 0, 70, 127
9, 29740, Note_off_c, 0, 70, 64
9, 29779, Note_on_c, 0, 71, 127
9, 29932, Note_off_c, 0, 71, 64
9, 50702, Note_on_c, 0, 72, 115
9, 50808, Note_off_c, 0, 72, 64
9, 50830, Note_on_c, 0, 72, 115
9, 50944, Note_off_c, 0, 72, 64
9, 50990, Note_on_c, 0, 72, 120
9, 51014, Note_off_c, 0, 72, 64
9, 51038, Note_on_c, 0, 72, 115
9, 51065, Note_off_c, 0, 72, 64
9, 51094, Note_on_c, 0, 72, 115
9, 51344, Note_off_c, 0, 72, 64
9, 51371, Note_on_c, 0, 72, 117
9, 51441, Note_off_c, 0, 72, 64
9, 51470, Note_on_c, 0, 71, 108
9, 52011, Note_off_c, 0, 71, 64
9, 52033, Note_on_c, 0, 71, 113
9, 52070, Note_off_c, 0, 71, 64
9, 52105, Note_on_c, 0, 76, 117
9, 52150, Note_off_c, 0, 76, 64
9, 52166, Note_on_c, 0, 71, 113
9, 52196, Note_off_c, 0, 71, 64
9, 52241, Note_on_c, 0, 70, 117
9, 52481, Note_off_c, 0, 70, 64
9, 52524, Note_on_c, 0, 72, 115
9, 52572, Note_off_c, 0, 72, 64
9, 52603, Note_on_c, 0, 72, 86
9, 52620, Note_on_c, 0, 74, 110
9, 52633, Note_off_c, 0, 72, 64
9, 52728, Note_on_c, 0, 72, 106
9, 52736, Note_off_c, 0, 74, 64
9, 52841, Note_off_c, 0, 72, 64
9, 52865, Note_on_c, 0, 74, 118
9, 52908, Note_off_c, 0, 74, 64
9, 52918, Note_on_c, 0, 72, 118
9, 52948, Note_off_c, 0, 72, 64
9, 52992, Note_on_c, 0, 74, 117
9, 53048, Note_on_c, 0, 72, 113
9, 53056, Note_off_c, 0, 74, 64
9, 53065, Note_off_c, 0, 72, 64
9, 53097, Note_on_c, 0, 69, 110
9, 53139, Note_off_c, 0, 69, 64
9, 53150, Note_on_c, 0, 65, 105
9, 53198, Note_off_c, 0, 65, 64
9, 53203, Note_on_c, 0, 62, 103
9, 53356, Note_off_c, 0, 62, 64
9, 53376, Note_on_c, 0, 60, 108
9, 53588, Note_off_c, 0, 60, 64
9, 53670, Note_on_c, 0, 61, 117
9, 53737, Note_off_c, 0, 61, 64
9, 53760, Note_on_c, 0, 62, 118
9, 53832, Note_off_c, 0, 62, 64
9, 53868, Note_on_c, 0, 66, 115
9, 53934, Note_off_c, 0, 66, 64
9, 53963, Note_on_c, 0, 69, 117
9, 54028, Note_off_c, 0, 69, 64
9, 54059, Note_on_c, 0, 74, 113
9, 54120, Note_off_c, 0, 74, 64
9, 54144, Note_on_c, 0, 72, 108
9, 54320, Note_off_c, 0, 72, 64
9, 54339, Note_on_c, 0, 74, 117
9, 54473, Note_off_c, 0, 74, 64
9, 54528, Note_on_c, 0, 71, 115
9, 54572, Note_off_c, 0, 71, 64
9, 54587, Note_on_c, 0, 70, 105
9, 54611, Note_off_c, 0, 70, 64
9, 54636, Note_on_c, 0, 69, 103
9, 54688, Note_off_c, 0, 69, 64
9, 54739, Note_on_c, 0, 67, 120
9, 55123, Note_off_c, 0, 67, 64
9, 55256, Note_on_c, 0, 68, 110
9, 55284, Note_off_c, 0, 68, 64
9, 55292, Note_on_c, 0, 69, 118
9, 55334, Note_off_c, 0, 69, 64
9, 55350, Note_on_c, 0, 72, 108
9, 55382, Note_off_c, 0, 72, 64
9, 55390, Note_on_c, 0, 69, 118
9, 55414, Note_off_c, 0, 69, 64
9, 55486, Note_on_c, 0, 76, 118
9, 55568, Note_off_c, 0, 76, 64
9, 55584, Note_on_c, 0, 69, 103
9, 55616, Note_off_c, 0, 69, 64
9, 55641, Note_on_c, 0, 72, 115
9, 55910, Note_off_c, 0, 72, 64
9, 55956, Note_on_c, 0, 72, 120
9, 55980, Note_off_c, 0, 72, 64
9, 56011, Note_on_c, 0, 74, 117
9, 56043, Note_off_c, 0, 74, 64
9, 56064, Note_on_c, 0, 74, 94
9, 56091, Note_on_c, 0, 76, 103
9, 56105, Note_off_c, 0, 74, 64
9, 56128, Note_off_c, 0, 76, 64
9, 56147, Note_on_c, 0, 74, 102
9, 56185, Note_off_c, 0, 74, 64
9, 56192, Note_on_c, 0, 72, 110
9, 56228, Note_off_c, 0, 72, 64
9, 56262, Note_on_c, 0, 74, 106
9, 56304, Note_off_c, 0, 74, 64
9, 56315, Note_on_c, 0, 76, 103
9, 56348, Note_off_c, 0, 76, 64
9, 56358, Note_on_c, 0, 74, 110
9, 56393, Note_off_c, 0, 74, 64
9, 56395, Note_on_c, 0, 72, 110
9, 56425, Note_off_c, 0, 72, 64
9, 56444, Note_on_c, 0, 69, 105
9, 56755, Note_off_c, 0, 69, 64
9, 56934, Note_on_c, 0, 69, 120
9, 57016, Note_off_c, 0, 69, 64
9, 57032, Note_on_c, 0, 72, 117
9, 57108, Note_off_c, 0, 72, 64
9, 57128, Note_on_c, 0, 69, 110
9, 57176, Note_off_c, 0, 69, 64
9, 57230, Note_on_c, 0, 70, 115
9, 57388, Note_off_c, 0, 70, 64
9, 57408, Note_on_c, 0, 71, 120
9, 57577, Note_off_c, 0, 71, 64
9, 57617, Note_on_c, 0, 73, 115
9, 58212, Note_off_c, 0, 73, 64
9, 58483, Note_on_c, 0, 69, 117
9, 58555, Note_off_c, 0, 69, 64
9, 58579, Note_on_c, 0, 72, 115
9, 58652, Note_off_c, 0, 72, 64
9, 58668, Note_on_c, 0, 69, 108
9, 58713, Note_off_c, 0, 69, 64
9, 58764, Note_on_c, 0, 70, 118
9, 58936, Note_off_c, 0, 70, 64
9, 58964, Note_on_c, 0, 71, 117
9, 59123, Note_off_c, 0, 71, 64
9, 59123, End_track
10, 0, Start_track
10, 0, MIDI_port, 0
10, 0, Title_t, "melody-piano        "
10, 0, Program_c, 3, 0
10, 0, Control_c, 3, 7, 125
10, 0, Control_c, 3, 10, 0
10, 17052, Note_on_c, 3, 73, 127
10, 17073, Note_off_c, 3, 73, 64
10, 17097, Note_on_c, 3, 73, 127
10, 17198, Note_off_c, 3, 73, 64
10, 17254, Note_on_c, 3, 73, 127
10, 17273, Note_off_c, 3, 73, 64
10, 17291, Note_on_c, 3, 73, 127
10, 17396, Note_off_c, 3, 73, 64
10, 17433, Note_on_c, 3, 73, 127
10, 17468, Note_on_c, 3, 76, 127
10, 17484, Note_off_c, 3, 73, 64
10, 17500, Note_off_c, 3, 76, 64
10, 17536, Note_on_c, 3, 78, 127
10, 17595, Note_off_c, 3, 78, 64
10, 17612, Note_on_c, 3, 73, 127
10, 18107, Note_off_c, 3, 73, 64
10, 18252, Note_on_c, 3, 73, 127
10, 18299, Note_off_c, 3, 73, 64
10, 18307, Note_on_c, 3, 76, 127
10, 18368, Note_off_c, 3, 76, 64
10, 18404, Note_on_c, 3, 78, 127
10, 18715, Note_off_c, 3, 78, 64
10, 18816, Note_on_c, 3, 79, 127
10, 18998, Note_off_c, 3, 79, 64
10, 19020, Note_on_c, 3, 78, 127
10, 19128, Note_off_c, 3, 78, 64
10, 19182, Note_on_c, 3, 74, 127
10, 19193, Note_on_c, 3, 76, 127
10, 19211, Note_off_c, 3, 74, 64
10, 19612, Note_off_c, 3, 76, 64
10, 20123, Note_on_c, 3, 73, 127
10, 20176, Note_off_c, 3, 73, 64
10, 20214, Note_on_c, 3, 73, 127
10, 20254, Note_off_c, 3, 73, 64
10, 20275, Note_on_c, 3, 73, 127
10, 20326, Note_off_c, 3, 73, 64
10, 20369, Note_on_c, 3, 73, 127
10, 20441, Note_off_c, 3, 73, 64
10, 20457, Note_on_c, 3, 73, 127
10, 20536, Note_off_c, 3, 73, 64
10, 20540, Note_on_c, 3, 76, 127
10, 20582, Note_off_c, 3, 76, 64
10, 20601, Note_on_c, 3, 78, 127
10, 20676, Note_off_c, 3, 78, 64
10, 20696, Note_on_c, 3, 73, 127
10, 21281, Note_off_c, 3, 73, 64
10, 21324, Note_on_c, 3, 73, 127
10, 21382, Note_on_c, 3, 76, 127
10, 21395, Note_off_c, 3, 73, 64
10, 21497, Note_off_c, 3, 76, 64
10, 21523, Note_on_c, 3, 78, 127
10, 21857, Note_off_c, 3, 78, 64
10, 21894, Note_on_c, 3, 79, 127
10, 22052, Note_off_c, 3, 79, 64
10, 22084, Note_on_c, 3, 78, 127
10, 22144, Note_off_c, 3, 78, 64
10, 22182, Note_on_c, 3, 74, 127
10, 22195, Note_on_c, 3, 75, 127
10, 22200, Note_on_c, 3, 76, 127
10, 22208, Note_off_c, 3, 74, 64
10, 22209, Note_off_c, 3, 75, 64
10, 22880, Note_off_c, 3, 76, 64
10, 29969, Note_on_c, 3, 72, 127
10, 29992, Note_off_c, 3, 72, 64
10, 30088, Note_on_c, 3, 72, 127
10, 30152, Note_off_c, 3, 72, 64
10, 30188, Note_on_c, 3, 72, 127
10, 30225, Note_off_c, 3, 72, 64
10, 30251, Note_on_c, 3, 72, 127
10, 30297, Note_off_c, 3, 72, 64
10, 30348, Note_on_c, 3, 84, 127
10, 30598, Note_off_c, 3, 84, 64
10, 30632, Note_on_c, 3, 79, 127
10, 30716, Note_off_c, 3, 79, 64
10, 30752, Note_on_c, 3, 83, 127
10, 31163, Note_off_c, 3, 83, 64
10, 31294, Note_on_c, 3, 88, 127
10, 31316, Note_off_c, 3, 88, 64
10, 31347, Note_on_c, 3, 87, 127
10, 31363, Note_off_c, 3, 87, 64
10, 31387, Note_on_c, 3, 86, 127
10, 31417, Note_off_c, 3, 86, 64
10, 31422, Note_on_c, 3, 85, 127
10, 31449, Note_on_c, 3, 84, 127
10, 31454, Note_off_c, 3, 85, 64
10, 31483, Note_on_c, 3, 82, 127
10, 31486, Note_off_c, 3, 84, 64
10, 31747, Note_off_c, 3, 82, 64
10, 31793, Note_on_c, 3, 82, 127
10, 31828, Note_off_c, 3, 82, 64
10, 31835, Note_on_c, 3, 84, 127
10, 31865, Note_off_c, 3, 84, 64
10, 31888, Note_on_c, 3, 86, 127
10, 31955, Note_off_c, 3, 86, 64
10, 31976, Note_on_c, 3, 84, 127
10, 32011, Note_off_c, 3, 84, 64
10, 32025, Note_on_c, 3, 82, 127
10, 32059, Note_off_c, 3, 82, 64
10, 32080, Note_on_c, 3, 81, 127
10, 32115, Note_off_c, 3, 81, 64
10, 32128, Note_on_c, 3, 79, 127
10, 32152, Note_off_c, 3, 79, 64
10, 32177, Note_on_c, 3, 76, 127
10, 32201, Note_off_c, 3, 76, 64
10, 32270, Note_on_c, 3, 77, 127
10, 32292, Note_off_c, 3, 77, 64
10, 32324, Note_on_c, 3, 81, 127
10, 32355, Note_off_c, 3, 81, 64
10, 32366, Note_on_c, 3, 77, 127
10, 32390, Note_off_c, 3, 77, 64
10, 32406, Note_on_c, 3, 74, 127
10, 32430, Note_off_c, 3, 74, 64
10, 32459, Note_on_c, 3, 72, 127
10, 32518, Note_off_c, 3, 72, 64
10, 32536, Note_on_c, 3, 69, 127
10, 32590, Note_off_c, 3, 69, 64
10, 32596, Note_on_c, 3, 65, 127
10, 32646, Note_off_c, 3, 65, 64
10, 32659, Note_on_c, 3, 62, 127
10, 32713, Note_off_c, 3, 62, 64
10, 32723, Note_on_c, 3, 60, 127
10, 32824, Note_off_c, 3, 60, 64
10, 32902, Note_on_c, 3, 60, 127
10, 32924, Note_off_c, 3, 60, 64
10, 32955, Note_on_c, 3, 61, 127
10, 33008, Note_off_c, 3, 61, 64
10, 33035, Note_on_c, 3, 62, 127
10, 33126, Note_off_c, 3, 62, 64
10, 33137, Note_on_c, 3, 62, 127
10, 33171, Note_off_c, 3, 62, 64
10, 33187, Note_on_c, 3, 62, 127
10, 33216, Note_off_c, 3, 62, 64
10, 33241, Note_on_c, 3, 66, 127
10, 33312, Note_off_c, 3, 66, 64
10, 33334, Note_on_c, 3, 66, 127
10, 33363, Note_off_c, 3, 66, 64
10, 33382, Note_on_c, 3, 66, 127
10, 33420, Note_on_c, 3, 69, 127
10, 33428, Note_off_c, 3, 66, 64
10, 33504, Note_off_c, 3, 69, 64
10, 33520, Note_on_c, 3, 74, 127
10, 33600, Note_off_c, 3, 74, 64
10, 33614, Note_on_c, 3, 72, 127
10, 33696, Note_off_c, 3, 72, 64
10, 33720, Note_on_c, 3, 69, 127
10, 33769, Note_off_c, 3, 69, 64
10, 33792, Note_on_c, 3, 67, 127
10, 33814, Note_on_c, 3, 69, 127
10, 33824, Note_off_c, 3, 67, 64
10, 33849, Note_off_c, 3, 69, 64
10, 33862, Note_on_c, 3, 68, 127
10, 33900, Note_off_c, 3, 68, 64
10, 33904, Note_on_c, 3, 67, 127
10, 34220, Note_off_c, 3, 67, 64
10, 34428, Note_on_c, 3, 67, 127
10, 34456, Note_off_c, 3, 67, 64
10, 34470, Note_on_c, 3, 68, 127
10, 34491, Note_off_c, 3, 68, 64
10, 34572, Note_on_c, 3, 69, 127
10, 34622, Note_off_c, 3, 69, 64
10, 34630, Note_on_c, 3, 72, 127
10, 34710, Note_on_c, 3, 69, 127
10, 34720, Note_off_c, 3, 72, 64
10, 34731, Note_off_c, 3, 69, 64
10, 34766, Note_on_c, 3, 74, 127
10, 34779, Note_on_c, 3, 76, 127
10, 34790, Note_off_c, 3, 74, 64
10, 34824, Note_off_c, 3, 76, 64
10, 34854, Note_on_c, 3, 69, 127
10, 34886, Note_off_c, 3, 69, 64
10, 34904, Note_on_c, 3, 72, 127
10, 35171, Note_off_c, 3, 72, 64
10, 35228, Note_on_c, 3, 72, 127
10, 35251, Note_off_c, 3, 72, 64
10, 35289, Note_on_c, 3, 74, 127
10, 35313, Note_off_c, 3, 74, 64
10, 35387, Note_on_c, 3, 74, 127
10, 35395, Note_on_c, 3, 75, 127
10, 35404, Note_on_c, 3, 76, 127
10, 35412, Note_off_c, 3, 74, 64
10, 35416, Note_off_c, 3, 75, 64
10, 35457, Note_off_c, 3, 76, 64
10, 35465, Note_on_c, 3, 74, 127
10, 35468, Note_on_c, 3, 76, 127
10, 35475, Note_off_c, 3, 76, 64
10, 35500, Note_off_c, 3, 74, 64
10, 35505, Note_on_c, 3, 72, 127
10, 35536, Note_off_c, 3, 72, 64
10, 35558, Note_on_c, 3, 74, 127
10, 35604, Note_off_c, 3, 74, 64
10, 35620, Note_on_c, 3, 76, 127
10, 35654, Note_on_c, 3, 74, 127
10, 35660, Note_off_c, 3, 76, 64
10, 35686, Note_off_c, 3, 74, 64
10, 35688, Note_on_c, 3, 72, 127
10, 35720, Note_off_c, 3, 72, 64
10, 35729, Note_on_c, 3, 69, 127
10, 36011, Note_off_c, 3, 69, 64
10, 36179, Note_on_c, 3, 67, 127
10, 36190, Note_on_c, 3, 69, 127
10, 36192, Note_on_c, 3, 68, 127
10, 36204, Note_off_c, 3, 68, 64
10, 36211, Note_off_c, 3, 67, 64
10, 36259, Note_off_c, 3, 69, 64
10, 36288, Note_on_c, 3, 72, 127
10, 36360, Note_off_c, 3, 72, 64
10, 36377, Note_on_c, 3, 69, 127
10, 36428, Note_off_c, 3, 69, 64
10, 36480, Note_on_c, 3, 70, 127
10, 36630, Note_off_c, 3, 70, 64
10, 36678, Note_on_c, 3, 71, 127
10, 36820, Note_off_c, 3, 71, 64
10, 36860, Note_on_c, 3, 72, 127
10, 36966, Note_off_c, 3, 72, 64
10, 36980, Note_on_c, 3, 72, 127
10, 37054, Note_off_c, 3, 72, 64
10, 37067, Note_on_c, 3, 72, 127
10, 37152, Note_off_c, 3, 72, 64
10, 37164, Note_on_c, 3, 72, 127
10, 37236, Note_off_c, 3, 72, 64
10, 37254, Note_on_c, 3, 72, 127
10, 37432, Note_off_c, 3, 72, 64
10, 37452, Note_on_c, 3, 72, 127
10, 37555, Note_off_c, 3, 72, 64
10, 37632, Note_on_c, 3, 71, 127
10, 38188, Note_off_c, 3, 71, 64
10, 38203, Note_on_c, 3, 76, 127
10, 38320, Note_off_c, 3, 76, 64
10, 38363, Note_on_c, 3, 76, 127
10, 38390, Note_off_c, 3, 76, 64
10, 38393, Note_on_c, 3, 71, 127
10, 38422, Note_off_c, 3, 71, 64
10, 38472, Note_on_c, 3, 70, 127
10, 38668, Note_off_c, 3, 70, 64
10, 38688, Note_on_c, 3, 70, 127
10, 38740, Note_on_c, 3, 72, 127
10, 38750, Note_off_c, 3, 70, 64
10, 38772, Note_off_c, 3, 72, 64
10, 38790, Note_on_c, 3, 74, 127
10, 38942, Note_off_c, 3, 74, 64
10, 38976, Note_on_c, 3, 74, 127
10, 39022, Note_off_c, 3, 74, 64
10, 39084, Note_on_c, 3, 72, 127
10, 39142, Note_off_c, 3, 72, 64
10, 39184, Note_on_c, 3, 74, 127
10, 39232, Note_on_c, 3, 72, 127
10, 39240, Note_off_c, 3, 74, 64
10, 39251, Note_off_c, 3, 72, 64
10, 39283, Note_on_c, 3, 69, 127
10, 39304, Note_off_c, 3, 69, 64
10, 39329, Note_on_c, 3, 65, 127
10, 39360, Note_off_c, 3, 65, 64
10, 39379, Note_on_c, 3, 62, 127
10, 39417, Note_off_c, 3, 62, 64
10, 39427, Note_on_c, 3, 60, 127
10, 39814, Note_off_c, 3, 60, 64
10, 39843, Note_on_c, 3, 60, 127
10, 39873, Note_off_c, 3, 60, 64
10, 39892, Note_on_c, 3, 59, 127
10, 39892, Note_on_c, 3, 61, 127
10, 39923, Note_off_c, 3, 59, 64
10, 39923, Note_off_c, 3, 61, 64
10, 39947, Note_on_c, 3, 62, 127
10, 40044, Note_off_c, 3, 62, 64
10, 40056, Note_on_c, 3, 62, 127
10, 40198, Note_off_c, 3, 62, 64
10, 40224, Note_on_c, 3, 66, 127
10, 40252, Note_off_c, 3, 66, 64
10, 40278, Note_on_c, 3, 69, 127
10, 40316, Note_off_c, 3, 69, 64
10, 40361, Note_on_c, 3, 74, 127
10, 40584, Note_off_c, 3, 74, 64
10, 40616, Note_on_c, 3, 72, 127
10, 40684, Note_off_c, 3, 72, 64
10, 40715, Note_on_c, 3, 67, 127
10, 40732, Note_on_c, 3, 69, 127
10, 40745, Note_off_c, 3, 67, 64
10, 40761, Note_off_c, 3, 69, 64
10, 40780, Note_on_c, 3, 68, 127
10, 40819, Note_off_c, 3, 68, 64
10, 40827, Note_on_c, 3, 67, 127
10, 41260, Note_off_c, 3, 67, 64
10, 41472, Note_on_c, 3, 69, 127
10, 41528, Note_off_c, 3, 69, 64
10, 41537, Note_on_c, 3, 72, 127
10, 41598, Note_on_c, 3, 69, 127
10, 41612, Note_off_c, 3, 72, 64
10, 41620, Note_off_c, 3, 69, 64
10, 41670, Note_on_c, 3, 74, 127
10, 41684, Note_on_c, 3, 76, 127
10, 41696, Note_off_c, 3, 74, 64
10, 41734, Note_off_c, 3, 76, 64
10, 41748, Note_on_c, 3, 69, 127
10, 41785, Note_off_c, 3, 69, 64
10, 41808, Note_on_c, 3, 72, 127
10, 42107, Note_off_c, 3, 72, 64
10, 42156, Note_on_c, 3, 72, 127
10, 42174, Note_off_c, 3, 72, 64
10, 42195, Note_on_c, 3, 74, 127
10, 42220, Note_off_c, 3, 74, 64
10, 42240, Note_on_c, 3, 75, 127
10, 42260, Note_off_c, 3, 75, 64
10, 42288, Note_on_c, 3, 76, 127
10, 42318, Note_off_c, 3, 76, 64
10, 42368, Note_on_c, 3, 74, 127
10, 42400, Note_off_c, 3, 74, 64
10, 42412, Note_on_c, 3, 72, 127
10, 42441, Note_off_c, 3, 72, 64
10, 42460, Note_on_c, 3, 74, 127
10, 42508, Note_off_c, 3, 74, 64
10, 42523, Note_on_c, 3, 72, 127
10, 42584, Note_off_c, 3, 72, 64
10, 42624, Note_on_c, 3, 69, 127
10, 42968, Note_off_c, 3, 69, 64
10, 43092, Note_on_c, 3, 67, 127
10, 43115, Note_on_c, 3, 68, 127
10, 43115, Note_on_c, 3, 69, 127
10, 43124, Note_off_c, 3, 68, 64
10, 43129, Note_off_c, 3, 67, 64
10, 43158, Note_off_c, 3, 69, 64
10, 43206, Note_on_c, 3, 72, 127
10, 43289, Note_off_c, 3, 72, 64
10, 43296, Note_on_c, 3, 69, 127
10, 43374, Note_off_c, 3, 69, 64
10, 43392, Note_on_c, 3, 69, 127
10, 43396, Note_on_c, 3, 70, 127
10, 43404, Note_off_c, 3, 69, 64
10, 43539, Note_off_c, 3, 70, 64
10, 43593, Note_on_c, 3, 71, 127
10, 43723, Note_off_c, 3, 71, 64
10, 43796, Note_on_c, 3, 73, 127
10, 44563, Note_off_c, 3, 73, 64
10, 44563, End_track
11, 0, Start_track
11, 0, MIDI_port, 0
11, 0, Title_t, "melody-harmonica    "
11, 0, Program_c, 4, 22
11, 0, Control_c, 4, 7, 120
11, 44697, Note_on_c, 4, 73, 127
11, 44755, Note_off_c, 4, 73, 64
11, 44772, Note_on_c, 4, 73, 127
11, 44832, Note_off_c, 4, 73, 64
11, 44854, Note_on_c, 4, 73, 127
11, 44923, Note_off_c, 4, 73, 64
11, 44952, Note_on_c, 4, 73, 127
11, 45049, Note_off_c, 4, 73, 64
11, 45068, Note_on_c, 4, 73, 127
11, 45137, Note_off_c, 4, 73, 64
11, 45140, Note_on_c, 4, 76, 127
11, 45177, Note_off_c, 4, 76, 64
11, 45192, Note_on_c, 4, 78, 127
11, 45235, Note_off_c, 4, 78, 64
11, 45238, Note_on_c, 4, 73, 127
11, 45840, Note_off_c, 4, 73, 64
11, 45902, Note_on_c, 4, 73, 127
11, 45958, Note_on_c, 4, 76, 127
11, 45972, Note_off_c, 4, 73, 64
11, 46080, Note_off_c, 4, 76, 64
11, 46091, Note_on_c, 4, 78, 127
11, 46412, Note_off_c, 4, 78, 64
11, 46464, Note_on_c, 4, 79, 127
11, 46656, Note_off_c, 4, 79, 64
11, 46723, Note_on_c, 4, 78, 127
11, 46800, Note_off_c, 4, 78, 64
11, 46833, Note_on_c, 4, 74, 127
11, 46856, Note_on_c, 4, 76, 127
11, 46873, Note_off_c, 4, 74, 64
11, 47632, Note_off_c, 4, 76, 64
11, 47768, Note_on_c, 4, 73, 127
11, 47784, Note_off_c, 4, 73, 64
11, 47803, Note_on_c, 4, 73, 127
11, 47844, Note_off_c, 4, 73, 64
11, 47961, Note_on_c, 4, 73, 127
11, 47977, Note_off_c, 4, 73, 64
11, 47995, Note_on_c, 4, 73, 127
11, 48110, Note_off_c, 4, 73, 64
11, 48153, Note_on_c, 4, 73, 127
11, 48172, Note_off_c, 4, 73, 64
11, 48198, Note_on_c, 4, 76, 127
11, 48241, Note_off_c, 4, 76, 64
11, 48260, Note_on_c, 4, 78, 127
11, 48324, Note_off_c, 4, 78, 64
11, 48353, Note_on_c, 4, 73, 127
11, 48716, Note_off_c, 4, 73, 64
11, 48974, Note_on_c, 4, 73, 127
11, 49028, Note_off_c, 4, 73, 64
11, 49036, Note_on_c, 4, 78, 127
11, 49097, Note_off_c, 4, 78, 64
11, 49120, Note_on_c, 4, 78, 127
11, 49443, Note_off_c, 4, 78, 64
11, 49465, Note_on_c, 4, 78, 127
11, 49488, Note_off_c, 4, 78, 64
11, 49536, Note_on_c, 4, 76, 127
11, 49560, Note_on_c, 4, 78, 127
11, 49568, Note_on_c, 4, 79, 127
11, 49569, Note_off_c, 4, 76, 64
11, 49580, Note_off_c, 4, 78, 64
11, 49683, Note_off_c, 4, 79, 64
11, 49728, Note_on_c, 4, 79, 127
11, 49800, Note_on_c, 4, 78, 127
11, 49806, Note_off_c, 4, 79, 64
11, 49868, Note_off_c, 4, 78, 64
11, 49880, Note_on_c, 4, 76, 127
11, 50624, Note_off_c, 4, 76, 64
11, 50624, End_track
12, 0, Start_track
12, 0, MIDI_port, 1
12, 0, Title_t, "bass2               "
12, 0, Program_c, 12, 35
12, 1536, Note_on_c, 12, 41, 98
12, 1780, Note_off_c, 12, 41, 64
12, 1824, Note_on_c, 12, 41, 87
12, 1888, Note_off_c, 12, 41, 64
12, 1920, Note_on_c, 12, 39, 85
12, 2112, Note_off_c, 12, 39, 64
12, 2112, Note_on_c, 12, 38, 85
12, 2304, Note_off_c, 12, 38, 64
12, 2304, Note_on_c, 12, 36, 100
12, 2560, Note_off_c, 12, 36, 64
12, 2592, Note_on_c, 12, 36, 89
12, 2689, Note_off_c, 12, 36, 64
12, 2689, Note_on_c, 12, 43, 85
12, 2934, Note_off_c, 12, 43, 64
12, 2976, Note_on_c, 12, 43, 82
12, 3072, Note_off_c, 12, 43, 64
12, 3072, Note_on_c, 12, 36, 100
12, 3328, Note_off_c, 12, 36, 64
12, 3360, Note_on_c, 12, 36, 89
12, 3457, Note_off_c, 12, 36, 64
12, 3457, Note_on_c, 12, 43, 85
12, 3702, Note_off_c, 12, 43, 64
12, 3744, Note_on_c, 12, 43, 82
12, 3840, Note_off_c, 12, 43, 64
12, 3840, Note_on_c, 12, 36, 100
12, 4094, Note_off_c, 12, 36, 64
12, 4128, Note_on_c, 12, 36, 102
12, 4224, Note_off_c, 12, 36, 64
12, 4224, Note_on_c, 12, 43, 89
12, 4484, Note_off_c, 12, 43, 64
12, 4512, Note_on_c, 12, 43, 85
12, 4579, Note_off_c, 12, 43, 64
12, 4608, Note_on_c, 12, 41, 102
12, 4859, Note_off_c, 12, 41, 64
12, 4896, Note_on_c, 12, 41, 87
12, 4971, Note_off_c, 12, 41, 64
12, 4992, Note_on_c, 12, 41, 98
12, 5166, Note_off_c, 12, 41, 64
12, 5184, Note_on_c, 12, 40, 98
12, 5358, Note_off_c, 12, 40, 64
12, 5376, Note_on_c, 12, 38, 105
12, 5617, Note_off_c, 12, 38, 64
12, 5664, Note_on_c, 12, 38, 98
12, 5726, Note_off_c, 12, 38, 64
12, 5760, Note_on_c, 12, 33, 85
12, 5947, Note_off_c, 12, 33, 64
12, 5952, Note_on_c, 12, 38, 85
12, 6083, Note_off_c, 12, 38, 64
12, 6144, Note_on_c, 12, 43, 98
12, 6318, Note_off_c, 12, 43, 64
12, 6336, Note_on_c, 12, 33, 98
12, 6510, Note_off_c, 12, 33, 64
12, 6528, Note_on_c, 12, 35, 95
12, 6780, Note_off_c, 12, 35, 64
12, 6816, Note_on_c, 12, 35, 98
12, 6912, Note_off_c, 12, 35, 64
12, 6912, Note_on_c, 12, 33, 98
12, 7156, Note_off_c, 12, 33, 64
12, 7200, Note_on_c, 12, 33, 87
12, 7264, Note_off_c, 12, 33, 64
12, 7296, Note_on_c, 12, 44, 82
12, 7449, Note_off_c, 12, 44, 64
12, 7488, Note_on_c, 12, 44, 87
12, 7611, Note_off_c, 12, 44, 64
12, 7680, Note_on_c, 12, 43, 76
12, 7929, Note_off_c, 12, 43, 64
12, 7968, Note_on_c, 12, 43, 100
12, 8025, Note_off_c, 12, 43, 64
12, 8064, Note_on_c, 12, 38, 76
12, 8313, Note_off_c, 12, 38, 64
12, 8352, Note_on_c, 12, 38, 100
12, 8409, Note_off_c, 12, 38, 64
12, 8448, Note_on_c, 12, 41, 82
12, 8736, Note_on_c, 12, 36, 98
12, 8750, Note_off_c, 12, 41, 64
12, 8796, Note_off_c, 12, 36, 64
12, 8832, Note_on_c, 12, 39, 98
12, 9006, Note_off_c, 12, 39, 64
12, 9024, Note_on_c, 12, 38, 98
12, 9198, Note_off_c, 12, 38, 64
12, 9216, Note_on_c, 12, 36, 100
12, 9472, Note_off_c, 12, 36, 64
12, 9504, Note_on_c, 12, 36, 89
12, 9601, Note_off_c, 12, 36, 64
12, 9601, Note_on_c, 12, 43, 85
12, 9846, Note_off_c, 12, 43, 64
12, 9888, Note_on_c, 12, 43, 82
12, 9984, Note_off_c, 12, 43, 64
12, 9984, Note_on_c, 12, 36, 100
12, 10240, Note_off_c, 12, 36, 64
12, 10272, Note_on_c, 12, 36, 89
12, 10369, Note_off_c, 12, 36, 64
12, 10369, Note_on_c, 12, 43, 85
12, 10614, Note_off_c, 12, 43, 64
12, 10656, Note_on_c, 12, 43, 82
12, 10752, Note_off_c, 12, 43, 64
12, 10752, Note_on_c, 12, 36, 100
12, 11006, Note_off_c, 12, 36, 64
12, 11040, Note_on_c, 12, 36, 102
12, 11136, Note_off_c, 12, 36, 64
12, 11136, Note_on_c, 12, 43, 89
12, 11396, Note_off_c, 12, 43, 64
12, 11424, Note_on_c, 12, 43, 85
12, 11491, Note_off_c, 12, 43, 64
12, 11520, Note_on_c, 12, 41, 95
12, 11772, Note_off_c, 12, 41, 64
12, 11808, Note_on_c, 12, 41, 98
12, 11904, Note_off_c, 12, 41, 64
12, 11904, Note_on_c, 12, 41, 98
12, 12078, Note_off_c, 12, 41, 64
12, 12096, Note_on_c, 12, 40, 98
12, 12270, Note_off_c, 12, 40, 64
12, 12288, Note_on_c, 12, 38, 102
12, 12576, Note_on_c, 12, 33, 91
12, 12582, Note_off_c, 12, 38, 64
12, 12672, Note_off_c, 12, 33, 64
12, 12672, Note_on_c, 12, 38, 87
12, 12713, Note_off_c, 12, 38, 64
12, 12768, Note_on_c, 12, 38, 98
12, 12822, Note_off_c, 12, 38, 64
12, 12864, Note_on_c, 12, 38, 102
12, 12947, Note_off_c, 12, 38, 64
12, 12960, Note_on_c, 12, 33, 70
12, 13044, Note_off_c, 12, 33, 64
12, 13056, Note_on_c, 12, 43, 98
12, 13230, Note_off_c, 12, 43, 64
12, 13248, Note_on_c, 12, 33, 98
12, 13422, Note_off_c, 12, 33, 64
12, 13440, Note_on_c, 12, 35, 82
12, 13728, Note_on_c, 12, 38, 98
12, 13742, Note_off_c, 12, 35, 64
12, 13788, Note_off_c, 12, 38, 64
12, 13824, Note_on_c, 12, 33, 76
12, 14073, Note_off_c, 12, 33, 64
12, 14112, Note_on_c, 12, 33, 100
12, 14169, Note_off_c, 12, 33, 64
12, 14208, Note_on_c, 12, 44, 98
12, 14452, Note_off_c, 12, 44, 64
12, 14496, Note_on_c, 12, 44, 87
12, 14560, Note_off_c, 12, 44, 64
12, 14592, Note_on_c, 12, 43, 82
12, 14745, Note_off_c, 12, 43, 64
12, 14784, Note_on_c, 12, 43, 87
12, 14907, Note_off_c, 12, 43, 64
12, 14976, Note_on_c, 12, 38, 82
12, 15129, Note_off_c, 12, 38, 64
12, 15168, Note_on_c, 12, 38, 87
12, 15291, Note_off_c, 12, 38, 64
12, 15360, Note_on_c, 12, 41, 95
12, 15612, Note_off_c, 12, 41, 64
12, 15648, Note_on_c, 12, 41, 98
12, 15744, Note_off_c, 12, 41, 64
12, 15744, Note_on_c, 12, 39, 98
12, 15918, Note_off_c, 12, 39, 64
12, 15936, Note_on_c, 12, 38, 98
12, 16110, Note_off_c, 12, 38, 64
12, 16128, Note_on_c, 12, 33, 98
12, 16416, Note_on_c, 12, 40, 95
12, 16425, Note_off_c, 12, 33, 64
12, 16502, Note_off_c, 12, 40, 64
12, 16512, Note_on_c, 12, 33, 82
12, 16697, Note_off_c, 12, 33, 64
12, 16704, Note_on_c, 12, 33, 87
12, 16792, Note_off_c, 12, 33, 64
12, 16896, Note_on_c, 12, 33, 102
12, 17147, Note_off_c, 12, 33, 64
12, 17184, Note_on_c, 12, 33, 87
12, 17259, Note_off_c, 12, 33, 64
12, 17280, Note_on_c, 12, 44, 102
12, 17531, Note_off_c, 12, 44, 64
12, 17568, Note_on_c, 12, 44, 87
12, 17643, Note_off_c, 12, 44, 64
12, 17664, Note_on_c, 12, 42, 82
12, 17952, Note_on_c, 12, 37, 98
12, 17966, Note_off_c, 12, 42, 64
12, 18012, Note_off_c, 12, 37, 64
12, 18048, Note_on_c, 12, 40, 102
12, 18299, Note_off_c, 12, 40, 64
12, 18336, Note_on_c, 12, 40, 87
12, 18411, Note_off_c, 12, 40, 64
12, 18432, Note_on_c, 12, 38, 95
12, 18684, Note_off_c, 12, 38, 64
12, 18720, Note_on_c, 12, 38, 98
12, 18816, Note_off_c, 12, 38, 64
12, 18816, Note_on_c, 12, 43, 95
12, 19068, Note_off_c, 12, 43, 64
12, 19104, Note_on_c, 12, 43, 98
12, 19200, Note_off_c, 12, 43, 64
12, 19200, Note_on_c, 12, 33, 100
12, 19456, Note_off_c, 12, 33, 64
12, 19488, Note_on_c, 12, 33, 89
12, 19585, Note_off_c, 12, 33, 64
12, 19585, Note_on_c, 12, 40, 85
12, 19830, Note_off_c, 12, 40, 64
12, 19872, Note_on_c, 12, 40, 82
12, 19968, Note_off_c, 12, 40, 64
12, 19968, Note_on_c, 12, 33, 95
12, 20220, Note_off_c, 12, 33, 64
12, 20256, Note_on_c, 12, 33, 98
12, 20352, Note_off_c, 12, 33, 64
12, 20352, Note_on_c, 12, 44, 95
12, 20604, Note_off_c, 12, 44, 64
12, 20640, Note_on_c, 12, 44, 98
12, 20736, Note_off_c, 12, 44, 64
12, 20736, Note_on_c, 12, 42, 82
12, 21024, Note_on_c, 12, 37, 98
12, 21038, Note_off_c, 12, 42, 64
12, 21084, Note_off_c, 12, 37, 64
12, 21120, Note_on_c, 12, 40, 95
12, 21372, Note_off_c, 12, 40, 64
12, 21408, Note_on_c, 12, 40, 98
12, 21504, Note_off_c, 12, 40, 64
12, 21504, Note_on_c, 12, 38, 102
12, 21755, Note_off_c, 12, 38, 64
12, 21792, Note_on_c, 12, 38, 87
12, 21867, Note_off_c, 12, 38, 64
12, 21888, Note_on_c, 12, 43, 82
12, 22176, Note_on_c, 12, 38, 98
12, 22190, Note_off_c, 12, 43, 64
12, 22236, Note_off_c, 12, 38, 64
12, 22272, Note_on_c, 12, 36, 98
12, 22539, Note_off_c, 12, 36, 64
12, 22560, Note_on_c, 12, 36, 82
12, 22593, Note_off_c, 12, 36, 64
12, 22656, Note_on_c, 12, 36, 93
12, 22902, Note_off_c, 12, 36, 64
12, 22944, Note_on_c, 12, 36, 82
12, 22987, Note_off_c, 12, 36, 64
12, 23040, Note_on_c, 12, 36, 102
12, 23296, Note_off_c, 12, 36, 64
12, 23328, Note_on_c, 12, 36, 87
12, 23360, Note_off_c, 12, 36, 64
12, 23424, Note_on_c, 12, 36, 102
12, 23691, Note_off_c, 12, 36, 64
12, 23712, Note_on_c, 12, 36, 87
12, 23740, Note_off_c, 12, 36, 64
12, 23808, Note_on_c, 12, 36, 95
12, 24067, Note_off_c, 12, 36, 64
12, 24096, Note_on_c, 12, 36, 85
12, 24145, Note_off_c, 12, 36, 64
12, 24192, Note_on_c, 12, 36, 89
12, 24454, Note_off_c, 12, 36, 64
12, 24480, Note_on_c, 12, 36, 87
12, 24544, Note_off_c, 12, 36, 64
12, 24576, Note_on_c, 12, 36, 98
12, 24830, Note_off_c, 12, 36, 64
12, 24864, Note_on_c, 12, 36, 82
12, 24912, Note_off_c, 12, 36, 64
12, 24960, Note_on_c, 12, 36, 72
12, 25012, Note_off_c, 12, 36, 64
12, 25056, Note_on_c, 12, 36, 93
12, 25201, Note_off_c, 12, 36, 64
12, 25248, Note_on_c, 12, 36, 87
12, 25312, Note_off_c, 12, 36, 64
12, 25344, Note_on_c, 12, 41, 76
12, 25593, Note_off_c, 12, 41, 64
12, 25632, Note_on_c, 12, 41, 100
12, 25689, Note_off_c, 12, 41, 64
12, 25728, Note_on_c, 12, 41, 85
12, 25920, Note_off_c, 12, 41, 64
12, 25920, Note_on_c, 12, 40, 85
12, 26112, Note_off_c, 12, 40, 64
12, 26112, Note_on_c, 12, 38, 98
12, 26400, Note_on_c, 12, 45, 95
12, 26409, Note_off_c, 12, 38, 64
12, 26486, Note_off_c, 12, 45, 64
12, 26496, Note_on_c, 12, 38, 82
12, 26681, Note_off_c, 12, 38, 64
12, 26688, Note_on_c, 12, 38, 87
12, 26776, Note_off_c, 12, 38, 64
12, 26880, Note_on_c, 12, 43, 98
12, 27054, Note_off_c, 12, 43, 64
12, 27072, Note_on_c, 12, 33, 98
12, 27246, Note_off_c, 12, 33, 64
12, 27264, Note_on_c, 12, 35, 82
12, 27552, Note_on_c, 12, 38, 98
12, 27566, Note_off_c, 12, 35, 64
12, 27612, Note_off_c, 12, 38, 64
12, 27648, Note_on_c, 12, 33, 76
12, 27897, Note_off_c, 12, 33, 64
12, 27936, Note_on_c, 12, 33, 100
12, 27993, Note_off_c, 12, 33, 64
12, 28032, Note_on_c, 12, 44, 76
12, 28281, Note_off_c, 12, 44, 64
12, 28320, Note_on_c, 12, 44, 100
12, 28377, Note_off_c, 12, 44, 64
12, 28416, Note_on_c, 12, 33, 76
12, 28665, Note_off_c, 12, 33, 64
12, 28704, Note_on_c, 12, 33, 100
12, 28761, Note_off_c, 12, 33, 64
12, 28800, Note_on_c, 12, 38, 76
12, 29049, Note_off_c, 12, 38, 64
12, 29088, Note_on_c, 12, 38, 100
12, 29145, Note_off_c, 12, 38, 64
12, 29184, Note_on_c, 12, 41, 82
12, 29337, Note_off_c, 12, 41, 64
12, 29376, Note_on_c, 12, 41, 87
12, 29499, Note_off_c, 12, 41, 64
12, 29568, Note_on_c, 12, 39, 85
12, 29760, Note_off_c, 12, 39, 64
12, 29760, Note_on_c, 12, 38, 85
12, 29952, Note_off_c, 12, 38, 64
12, 29952, Note_on_c, 12, 36, 105
12, 30193, Note_off_c, 12, 36, 64
12, 30240, Note_on_c, 12, 36, 98
12, 30302, Note_off_c, 12, 36, 64
12, 30336, Note_on_c, 12, 31, 85
12, 30523, Note_off_c, 12, 31, 64
12, 30528, Note_on_c, 12, 36, 85
12, 30659, Note_off_c, 12, 36, 64
12, 30720, Note_on_c, 12, 36, 100
12, 30976, Note_off_c, 12, 36, 64
12, 31008, Note_on_c, 12, 36, 89
12, 31105, Note_off_c, 12, 36, 64
12, 31105, Note_on_c, 12, 43, 85
12, 31350, Note_off_c, 12, 43, 64
12, 31392, Note_on_c, 12, 43, 82
12, 31488, Note_off_c, 12, 43, 64
12, 31488, Note_on_c, 12, 36, 100
12, 31744, Note_off_c, 12, 36, 64
12, 31776, Note_on_c, 12, 36, 89
12, 31873, Note_off_c, 12, 36, 64
12, 31873, Note_on_c, 12, 43, 85
12, 32118, Note_off_c, 12, 43, 64
12, 32160, Note_on_c, 12, 43, 82
12, 32256, Note_off_c, 12, 43, 64
12, 32256, Note_on_c, 12, 41, 102
12, 32507, Note_off_c, 12, 41, 64
12, 32544, Note_on_c, 12, 41, 87
12, 32619, Note_off_c, 12, 41, 64
12, 32640, Note_on_c, 12, 41, 98
12, 32814, Note_off_c, 12, 41, 64
12, 32832, Note_on_c, 12, 40, 98
12, 33006, Note_off_c, 12, 40, 64
12, 33024, Note_on_c, 12, 38, 105
12, 33265, Note_off_c, 12, 38, 64
12, 33312, Note_on_c, 12, 38, 98
12, 33374, Note_off_c, 12, 38, 64
12, 33408, Note_on_c, 12, 33, 85
12, 33595, Note_off_c, 12, 33, 64
12, 33600, Note_on_c, 12, 38, 85
12, 33731, Note_off_c, 12, 38, 64
12, 33792, Note_on_c, 12, 43, 98
12, 33966, Note_off_c, 12, 43, 64
12, 33984, Note_on_c, 12, 33, 98
12, 34158, Note_off_c, 12, 33, 64
12, 34176, Note_on_c, 12, 35, 102
12, 34427, Note_off_c, 12, 35, 64
12, 34464, Note_on_c, 12, 35, 87
12, 34539, Note_off_c, 12, 35, 64
12, 34560, Note_on_c, 12, 33, 76
12, 34809, Note_off_c, 12, 33, 64
12, 34848, Note_on_c, 12, 33, 100
12, 34905, Note_off_c, 12, 33, 64
12, 34944, Note_on_c, 12, 44, 82
12, 35097, Note_off_c, 12, 44, 64
12, 35136, Note_on_c, 12, 44, 87
12, 35259, Note_off_c, 12, 44, 64
12, 35328, Note_on_c, 12, 43, 82
12, 35481, Note_off_c, 12, 43, 64
12, 35520, Note_on_c, 12, 43, 87
12, 35643, Note_off_c, 12, 43, 64
12, 35712, Note_on_c, 12, 38, 76
12, 35961, Note_off_c, 12, 38, 64
12, 36000, Note_on_c, 12, 38, 100
12, 36057, Note_off_c, 12, 38, 64
12, 36096, Note_on_c, 12, 41, 82
12, 36384, Note_on_c, 12, 36, 98
12, 36398, Note_off_c, 12, 41, 64
12, 36444, Note_off_c, 12, 36, 64
12, 36480, Note_on_c, 12, 39, 98
12, 36654, Note_off_c, 12, 39, 64
12, 36672, Note_on_c, 12, 38, 98
12, 36846, Note_off_c, 12, 38, 64
12, 36864, Note_on_c, 12, 36, 100
12, 37120, Note_off_c, 12, 36, 64
12, 37152, Note_on_c, 12, 36, 89
12, 37249, Note_off_c, 12, 36, 64
12, 37249, Note_on_c, 12, 43, 85
12, 37494, Note_off_c, 12, 43, 64
12, 37536, Note_on_c, 12, 43, 82
12, 37632, Note_off_c, 12, 43, 64
12, 37632, Note_on_c, 12, 36, 100
12, 37886, Note_off_c, 12, 36, 64
12, 37920, Note_on_c, 12, 36, 102
12, 38016, Note_off_c, 12, 36, 64
12, 38016, Note_on_c, 12, 43, 89
12, 38276, Note_off_c, 12, 43, 64
12, 38304, Note_on_c, 12, 43, 85
12, 38371, Note_off_c, 12, 43, 64
12, 38400, Note_on_c, 12, 36, 100
12, 38654, Note_off_c, 12, 36, 64
12, 38688, Note_on_c, 12, 36, 102
12, 38784, Note_off_c, 12, 36, 64
12, 38784, Note_on_c, 12, 43, 89
12, 39044, Note_off_c, 12, 43, 64
12, 39072, Note_on_c, 12, 43, 85
12, 39139, Note_off_c, 12, 43, 64
12, 39168, Note_on_c, 12, 41, 102
12, 39419, Note_off_c, 12, 41, 64
12, 39456, Note_on_c, 12, 41, 87
12, 39531, Note_off_c, 12, 41, 64
12, 39552, Note_on_c, 12, 41, 98
12, 39726, Note_off_c, 12, 41, 64
12, 39744, Note_on_c, 12, 40, 98
12, 39918, Note_off_c, 12, 40, 64
12, 39936, Note_on_c, 12, 38, 102
12, 40224, Note_on_c, 12, 33, 91
12, 40230, Note_off_c, 12, 38, 64
12, 40320, Note_off_c, 12, 33, 64
12, 40320, Note_on_c, 12, 38, 87
12, 40361, Note_off_c, 12, 38, 64
12, 40416, Note_on_c, 12, 38, 98
12, 40470, Note_off_c, 12, 38, 64
12, 40512, Note_on_c, 12, 38, 102
12, 40595, Note_off_c, 12, 38, 64
12, 40608, Note_on_c, 12, 33, 70
12, 40692, Note_off_c, 12, 33, 64
12, 40704, Note_on_c, 12, 43, 98
12, 40878, Note_off_c, 12, 43, 64
12, 40896, Note_on_c, 12, 33, 98
12, 41070, Note_off_c, 12, 33, 64
12, 41088, Note_on_c, 12, 35, 82
12, 41376, Note_on_c, 12, 38, 98
12, 41390, Note_off_c, 12, 35, 64
12, 41436, Note_off_c, 12, 38, 64
12, 41472, Note_on_c, 12, 33, 98
12, 41716, Note_off_c, 12, 33, 64
12, 41760, Note_on_c, 12, 33, 87
12, 41824, Note_off_c, 12, 33, 64
12, 41856, Note_on_c, 12, 44, 98
12, 42100, Note_off_c, 12, 44, 64
12, 42144, Note_on_c, 12, 44, 87
12, 42208, Note_off_c, 12, 44, 64
12, 42240, Note_on_c, 12, 43, 82
12, 42393, Note_off_c, 12, 43, 64
12, 42432, Note_on_c, 12, 43, 87
12, 42555, Note_off_c, 12, 43, 64
12, 42624, Note_on_c, 12, 38, 76
12, 42873, Note_off_c, 12, 38, 64
12, 42912, Note_on_c, 12, 38, 100
12, 42969, Note_off_c, 12, 38, 64
12, 43008, Note_on_c, 12, 41, 82
12, 43296, Note_on_c, 12, 36, 98
12, 43310, Note_off_c, 12, 41, 64
12, 43356, Note_off_c, 12, 36, 64
12, 43392, Note_on_c, 12, 39, 98
12, 43566, Note_off_c, 12, 39, 64
12, 43584, Note_on_c, 12, 38, 98
12, 43758, Note_off_c, 12, 38, 64
12, 43776, Note_on_c, 12, 33, 100
12, 44030, Note_off_c, 12, 33, 64
12, 44064, Note_on_c, 12, 33, 102
12, 44160, Note_off_c, 12, 33, 64
12, 44160, Note_on_c, 12, 40, 89
12, 44420, Note_off_c, 12, 40, 64
12, 44448, Note_on_c, 12, 40, 85
12, 44515, Note_off_c, 12, 40, 64
12, 44544, Note_on_c, 12, 33, 102
12, 44795, Note_off_c, 12, 33, 64
12, 44832, Note_on_c, 12, 33, 87
12, 44907, Note_off_c, 12, 33, 64
12, 44928, Note_on_c, 12, 44, 102
12, 45179, Note_off_c, 12, 44, 64
12, 45216, Note_on_c, 12, 44, 87
12, 45291, Note_off_c, 12, 44, 64
12, 45312, Note_on_c, 12, 42, 102
12, 45563, Note_off_c, 12, 42, 64
12, 45600, Note_on_c, 12, 42, 87
12, 45675, Note_off_c, 12, 42, 64
12, 45696, Note_on_c, 12, 40, 95
12, 45948, Note_off_c, 12, 40, 64
12, 45984, Note_on_c, 12, 40, 98
12, 46080, Note_off_c, 12, 40, 64
12, 46080, Note_on_c, 12, 38, 95
12, 46332, Note_off_c, 12, 38, 64
12, 46368, Note_on_c, 12, 38, 98
12, 46464, Note_off_c, 12, 38, 64
12, 46464, Note_on_c, 12, 43, 102
12, 46715, Note_off_c, 12, 43, 64
12, 46752, Note_on_c, 12, 43, 87
12, 46827, Note_off_c, 12, 43, 64
12, 46848, Note_on_c, 12, 33, 100
12, 47104, Note_off_c, 12, 33, 64
12, 47136, Note_on_c, 12, 33, 89
12, 47233, Note_off_c, 12, 33, 64
12, 47233, Note_on_c, 12, 40, 85
12, 47478, Note_off_c, 12, 40, 64
12, 47520, Note_on_c, 12, 40, 82
12, 47616, Note_off_c, 12, 40, 64
12, 47616, Note_on_c, 12, 33, 82
12, 47904, Note_on_c, 12, 28, 98
12, 47918, Note_off_c, 12, 33, 64
12, 47964, Note_off_c, 12, 28, 64
12, 48000, Note_on_c, 12, 44, 102
12, 48251, Note_off_c, 12, 44, 64
12, 48288, Note_on_c, 12, 44, 87
12, 48363, Note_off_c, 12, 44, 64
12, 48384, Note_on_c, 12, 42, 82
12, 48672, Note_on_c, 12, 37, 98
12, 48686, Note_off_c, 12, 42, 64
12, 48732, Note_off_c, 12, 37, 64
12, 48768, Note_on_c, 12, 40, 95
12, 49020, Note_off_c, 12, 40, 64
12, 49056, Note_on_c, 12, 40, 98
12, 49152, Note_off_c, 12, 40, 64
12, 49152, Note_on_c, 12, 38, 82
12, 49440, Note_on_c, 12, 33, 98
12, 49454, Note_off_c, 12, 38, 64
12, 49500, Note_off_c, 12, 33, 64
12, 49536, Note_on_c, 12, 43, 95
12, 49788, Note_off_c, 12, 43, 64
12, 49824, Note_on_c, 12, 43, 98
12, 49920, Note_off_c, 12, 43, 64
12, 49920, Note_on_c, 12, 36, 105
12, 50161, Note_off_c, 12, 36, 64
12, 50208, Note_on_c, 12, 36, 98
12, 50270, Note_off_c, 12, 36, 64
12, 50304, Note_on_c, 12, 31, 85
12, 50491, Note_off_c, 12, 31, 64
12, 50496, Note_on_c, 12, 36, 85
12, 50627, Note_off_c, 12, 36, 64
12, 50688, Note_on_c, 12, 36, 100
12, 50942, Note_off_c, 12, 36, 64
12, 50976, Note_on_c, 12, 36, 102
12, 51072, Note_off_c, 12, 36, 64
12, 51072, Note_on_c, 12, 43, 89
12, 51332, Note_off_c, 12, 43, 64
12, 51360, Note_on_c, 12, 43, 85
12, 51427, Note_off_c, 12, 43, 64
12, 51456, Note_on_c, 12, 36, 100
12, 51712, Note_off_c, 12, 36, 64
12, 51744, Note_on_c, 12, 36, 89
12, 51841, Note_off_c, 12, 36, 64
12, 51841, Note_on_c, 12, 43, 85
12, 52086, Note_off_c, 12, 43, 64
12, 52128, Note_on_c, 12, 43, 82
12, 52224, Note_off_c, 12, 43, 64
12, 52224, Note_on_c, 12, 36, 100
12, 52480, Note_off_c, 12, 36, 64
12, 52512, Note_on_c, 12, 36, 89
12, 52609, Note_off_c, 12, 36, 64
12, 52609, Note_on_c, 12, 43, 85
12, 52854, Note_off_c, 12, 43, 64
12, 52896, Note_on_c, 12, 43, 82
12, 52992, Note_off_c, 12, 43, 64
12, 52992, Note_on_c, 12, 41, 95
12, 53244, Note_off_c, 12, 41, 64
12, 53280, Note_on_c, 12, 41, 98
12, 53376, Note_off_c, 12, 41, 64
12, 53376, Note_on_c, 12, 41, 98
12, 53550, Note_off_c, 12, 41, 64
12, 53568, Note_on_c, 12, 40, 98
12, 53742, Note_off_c, 12, 40, 64
12, 53760, Note_on_c, 12, 38, 100
12, 54016, Note_off_c, 12, 38, 64
12, 54048, Note_on_c, 12, 38, 89
12, 54145, Note_off_c, 12, 38, 64
12, 54145, Note_on_c, 12, 45, 85
12, 54390, Note_off_c, 12, 45, 64
12, 54432, Note_on_c, 12, 45, 82
12, 54528, Note_off_c, 12, 45, 64
12, 54528, Note_on_c, 12, 43, 98
12, 54702, Note_off_c, 12, 43, 64
12, 54720, Note_on_c, 12, 33, 98
12, 54894, Note_off_c, 12, 33, 64
12, 54912, Note_on_c, 12, 35, 95
12, 55164, Note_off_c, 12, 35, 64
12, 55200, Note_on_c, 12, 35, 98
12, 55296, Note_off_c, 12, 35, 64
12, 55296, Note_on_c, 12, 33, 95
12, 55548, Note_off_c, 12, 33, 64
12, 55584, Note_on_c, 12, 33, 98
12, 55680, Note_off_c, 12, 33, 64
12, 55680, Note_on_c, 12, 44, 95
12, 55932, Note_off_c, 12, 44, 64
12, 55968, Note_on_c, 12, 44, 98
12, 56064, Note_off_c, 12, 44, 64
12, 56064, Note_on_c, 12, 33, 95
12, 56316, Note_off_c, 12, 33, 64
12, 56352, Note_on_c, 12, 33, 98
12, 56448, Note_off_c, 12, 33, 64
12, 56448, Note_on_c, 12, 38, 102
12, 56699, Note_off_c, 12, 38, 64
12, 56736, Note_on_c, 12, 38, 87
12, 56811, Note_off_c, 12, 38, 64
12, 56832, Note_on_c, 12, 41, 82
12, 57120, Note_on_c, 12, 36, 98
12, 57134, Note_off_c, 12, 41, 64
12, 57180, Note_off_c, 12, 36, 64
12, 57216, Note_on_c, 12, 39, 98
12, 57390, Note_off_c, 12, 39, 64
12, 57408, Note_on_c, 12, 38, 98
12, 57582, Note_off_c, 12, 38, 64
12, 57600, Note_on_c, 12, 33, 100
12, 57854, Note_off_c, 12, 33, 64
12, 57888, Note_on_c, 12, 33, 102
12, 57984, Note_off_c, 12, 33, 64
12, 57984, Note_on_c, 12, 40, 89
12, 58244, Note_off_c, 12, 40, 64
12, 58272, Note_on_c, 12, 40, 85
12, 58339, Note_off_c, 12, 40, 64
12, 58368, Note_on_c, 12, 41, 82
12, 58656, Note_on_c, 12, 36, 98
12, 58670, Note_off_c, 12, 41, 64
12, 58716, Note_off_c, 12, 36, 64
12, 58752, Note_on_c, 12, 39, 98
12, 58926, Note_off_c, 12, 39, 64
12, 58944, Note_on_c, 12, 38, 98
12, 59118, Note_off_c, 12, 38, 64
12, 59136, Note_on_c, 12, 36, 127
12, 59902, Note_off_c, 12, 36, 64
12, 59902, End_track
13, 0, Start_track
13, 0, MIDI_port, 1
13, 0, Title_t, "drums2              "
13, 0, Program_c, 9, 0
13, 0, Control_c, 9, 7, 120
13, 0, Note_on_c, 9, 37, 127
13, 192, Note_off_c, 9, 37, 64
13, 384, Note_on_c, 9, 37, 127
13, 576, Note_off_c, 9, 37, 64
13, 768, Note_on_c, 9, 37, 127
13, 960, Note_off_c, 9, 37, 64
13, 960, Note_on_c, 9, 37, 127
13, 1152, Note_off_c, 9, 37, 64
13, 1152, Note_on_c, 9, 37, 127
13, 1344, Note_off_c, 9, 37, 64
13, 1344, Note_on_c, 9, 37, 127
13, 1536, Note_off_c, 9, 37, 64
13, 1536, Note_on_c, 9, 36, 127
13, 1536, Note_on_c, 9, 42, 127
13, 1584, Note_off_c, 9, 36, 64
13, 1584, Note_off_c, 9, 42, 64
13, 1632, Note_on_c, 9, 42, 127
13, 1680, Note_off_c, 9, 42, 64
13, 1728, Note_on_c, 9, 38, 127
13, 1728, Note_on_c, 9, 42, 127
13, 1776, Note_off_c, 9, 38, 64
13, 1776, Note_off_c, 9, 42, 64
13, 1824, Note_on_c, 9, 36, 127
13, 1824, Note_on_c, 9, 42, 127
13, 1872, Note_off_c, 9, 36, 64
13, 1872, Note_off_c, 9, 42, 64
13, 1920, Note_on_c, 9, 36, 127
13, 1920, Note_on_c, 9, 42, 127
13, 1968, Note_off_c, 9, 36, 64
13, 1968, Note_off_c, 9, 42, 64
13, 2016, Note_on_c, 9, 38, 127
13, 2064, Note_off_c, 9, 38, 64
13, 2064, Note_on_c, 9, 38, 127
13, 2112, Note_off_c, 9, 38, 64
13, 2112, Note_on_c, 9, 38, 127
13, 2160, Note_off_c, 9, 38, 64
13, 2208, Note_on_c, 9, 38, 127
13, 2208, Note_on_c, 9, 42, 127
13, 2256, Note_off_c, 9, 38, 64
13, 2256, Note_off_c, 9, 42, 64
13, 2304, Note_on_c, 9, 36, 127
13, 2304, Note_on_c, 9, 42, 127
13, 2304, Note_on_c, 9, 49, 127
13, 2352, Note_off_c, 9, 36, 64
13, 2352, Note_off_c, 9, 42, 64
13, 2352, Note_off_c, 9, 49, 64
13, 2400, Note_on_c, 9, 42, 127
13, 2448, Note_off_c, 9, 42, 64
13, 2496, Note_on_c, 9, 38, 127
13, 2496, Note_on_c, 9, 42, 127
13, 2544, Note_off_c, 9, 38, 64
13, 2544, Note_off_c, 9, 42, 64
13, 2592, Note_on_c, 9, 36, 127
13, 2592, Note_on_c, 9, 42, 127
13, 2640, Note_off_c, 9, 36, 64
13, 2640, Note_off_c, 9, 42, 64
13, 2688, Note_on_c, 9, 36, 127
13, 2688, Note_on_c, 9, 42, 127
13, 2736, Note_off_c, 9, 36, 64
13, 2736, Note_off_c, 9, 42, 64
13, 2784, Note_on_c, 9, 42, 127
13, 2832, Note_off_c, 9, 42, 64
13, 2880, Note_on_c, 9, 38, 127
13, 2880, Note_on_c, 9, 42, 127
13, 2928, Note_off_c, 9, 38, 64
13, 2928, Note_off_c, 9, 42, 64
13, 2976, Note_on_c, 9, 36, 127
13, 2976, Note_on_c, 9, 42, 127
13, 3024, Note_off_c, 9, 36, 64
13, 3024, Note_off_c, 9, 42, 64
13, 3072, Note_on_c, 9, 36, 127
13, 3072, Note_on_c, 9, 42, 127
13, 3120, Note_off_c, 9, 36, 64
13, 3120, Note_off_c, 9, 42, 64
13, 3168, Note_on_c, 9, 42, 127
13, 3216, Note_off_c, 9, 42, 64
13, 3264, Note_on_c, 9, 38, 127
13, 3264, Note_on_c, 9, 42, 127
13, 3312, Note_off_c, 9, 38, 64
13, 3312, Note_off_c, 9, 42, 64
13, 3360, Note_on_c, 9, 36, 127
13, 3360, Note_on_c, 9, 42, 127
13, 3408, Note_off_c, 9, 36, 64
13, 3408, Note_off_c, 9, 42, 64
13, 3456, Note_on_c, 9, 36, 127
13, 3456, Note_on_c, 9, 42, 127
13, 3504, Note_off_c, 9, 36, 64
13, 3504, Note_off_c, 9, 42, 64
13, 3552, Note_on_c, 9, 36, 127
13, 3552, Note_on_c, 9, 42, 127
13, 3600, Note_off_c, 9, 36, 64
13, 3600, Note_off_c, 9, 42, 64
13, 3648, Note_on_c, 9, 38, 127
13, 3648, Note_on_c, 9, 42, 127
13, 3696, Note_off_c, 9, 38, 64
13, 3696, Note_off_c, 9, 42, 64
13, 3744, Note_on_c, 9, 36, 127
13, 3744, Note_on_c, 9, 46, 127
13, 3792, Note_off_c, 9, 36, 64
13, 3792, Note_off_c, 9, 46, 64
13, 3840, Note_on_c, 9, 36, 127
13, 3840, Note_on_c, 9, 42, 127
13, 3888, Note_off_c, 9, 36, 64
13, 3888, Note_off_c, 9, 42, 64
13, 3936, Note_on_c, 9, 42, 127
13, 3984, Note_off_c, 9, 42, 64
13, 4032, Note_on_c, 9, 38, 127
13, 4032, Note_on_c, 9, 42, 127
13, 4080, Note_off_c, 9, 38, 64
13, 4080, Note_off_c, 9, 42, 64
13, 4128, Note_on_c, 9, 36, 127
13, 4128, Note_on_c, 9, 42, 127
13, 4176, Note_off_c, 9, 36, 64
13, 4176, Note_off_c, 9, 42, 64
13, 4224, Note_on_c, 9, 36, 127
13, 4224, Note_on_c, 9, 42, 127
13, 4272, Note_off_c, 9, 36, 64
13, 4272, Note_off_c, 9, 42, 64
13, 4320, Note_on_c, 9, 42, 127
13, 4368, Note_off_c, 9, 42, 64
13, 4416, Note_on_c, 9, 38, 127
13, 4416, Note_on_c, 9, 42, 127
13, 4464, Note_off_c, 9, 38, 64
13, 4464, Note_off_c, 9, 42, 64
13, 4512, Note_on_c, 9, 36, 127
13, 4512, Note_on_c, 9, 42, 127
13, 4560, Note_off_c, 9, 36, 64
13, 4560, Note_off_c, 9, 42, 64
13, 4608, Note_on_c, 9, 36, 127
13, 4608, Note_on_c, 9, 42, 127
13, 4656, Note_off_c, 9, 36, 64
13, 4656, Note_off_c, 9, 42, 64
13, 4704, Note_on_c, 9, 42, 127
13, 4752, Note_off_c, 9, 42, 64
13, 4800, Note_on_c, 9, 38, 127
13, 4800, Note_on_c, 9, 42, 127
13, 4848, Note_off_c, 9, 38, 64
13, 4848, Note_off_c, 9, 42, 64
13, 4896, Note_on_c, 9, 36, 127
13, 4896, Note_on_c, 9, 42, 127
13, 4944, Note_off_c, 9, 36, 64
13, 4944, Note_off_c, 9, 42, 64
13, 4992, Note_on_c, 9, 36, 127
13, 4992, Note_on_c, 9, 42, 127
13, 5040, Note_off_c, 9, 36, 64
13, 5040, Note_off_c, 9, 42, 64
13, 5088, Note_on_c, 9, 36, 127
13, 5088, Note_on_c, 9, 42, 127
13, 5136, Note_off_c, 9, 36, 64
13, 5136, Note_off_c, 9, 42, 64
13, 5184, Note_on_c, 9, 38, 127
13, 5184, Note_on_c, 9, 42, 127
13, 5232, Note_off_c, 9, 38, 64
13, 5232, Note_off_c, 9, 42, 64
13, 5280, Note_on_c, 9, 36, 127
13, 5280, Note_on_c, 9, 46, 127
13, 5328, Note_off_c, 9, 36, 64
13, 5328, Note_off_c, 9, 46, 64
13, 5376, Note_on_c, 9, 36, 127
13, 5376, Note_on_c, 9, 42, 127
13, 5424, Note_off_c, 9, 36, 64
13, 5424, Note_off_c, 9, 42, 64
13, 5472, Note_on_c, 9, 42, 127
13, 5520, Note_off_c, 9, 42, 64
13, 5568, Note_on_c, 9, 38, 127
13, 5568, Note_on_c, 9, 42, 127
13, 5616, Note_off_c, 9, 38, 64
13, 5616, Note_off_c, 9, 42, 64
13, 5664, Note_on_c, 9, 36, 127
13, 5664, Note_on_c, 9, 42, 127
13, 5712, Note_off_c, 9, 36, 64
13, 5712, Note_off_c, 9, 42, 64
13, 5760, Note_on_c, 9, 36, 127
13, 5760, Note_on_c, 9, 42, 127
13, 5808, Note_off_c, 9, 36, 64
13, 5808, Note_off_c, 9, 42, 64
13, 5856, Note_on_c, 9, 42, 127
13, 5904, Note_off_c, 9, 42, 64
13, 5952, Note_on_c, 9, 38, 127
13, 5952, Note_on_c, 9, 42, 127
13, 6000, Note_off_c, 9, 38, 64
13, 6000, Note_off_c, 9, 42, 64
13, 6048, Note_on_c, 9, 36, 127
13, 6048, Note_on_c, 9, 42, 127
13, 6096, Note_off_c, 9, 36, 64
13, 6096, Note_off_c, 9, 42, 64
13, 6144, Note_on_c, 9, 36, 127
13, 6144, Note_on_c, 9, 42, 127
13, 6192, Note_off_c, 9, 36, 64
13, 6192, Note_off_c, 9, 42, 64
13, 6240, Note_on_c, 9, 42, 127
13, 6288, Note_off_c, 9, 42, 64
13, 6288, Note_on_c, 9, 42, 127
13, 6336, Note_off_c, 9, 42, 64
13, 6336, Note_on_c, 9, 38, 127
13, 6336, Note_on_c, 9, 46, 127
13, 6384, Note_off_c, 9, 38, 64
13, 6384, Note_off_c, 9, 46, 64
13, 6432, Note_on_c, 9, 36, 127
13, 6432, Note_on_c, 9, 47, 127
13, 6480, Note_off_c, 9, 36, 64
13, 6480, Note_off_c, 9, 47, 64
13, 6528, Note_on_c, 9, 36, 127
13, 6528, Note_on_c, 9, 50, 127
13, 6576, Note_off_c, 9, 36, 64
13, 6576, Note_off_c, 9, 50, 64
13, 6624, Note_on_c, 9, 47, 127
13, 6672, Note_off_c, 9, 47, 64
13, 6720, Note_on_c, 9, 42, 127
13, 6720, Note_on_c, 9, 47, 127
13, 6768, Note_off_c, 9, 42, 64
13, 6768, Note_off_c, 9, 47, 64
13, 6816, Note_on_c, 9, 46, 127
13, 6816, Note_on_c, 9, 41, 127
13, 6864, Note_off_c, 9, 46, 64
13, 6864, Note_off_c, 9, 41, 64
13, 6912, Note_on_c, 9, 36, 127
13, 6912, Note_on_c, 9, 42, 127
13, 6912, Note_on_c, 9, 49, 127
13, 6960, Note_off_c, 9, 36, 64
13, 6960, Note_off_c, 9, 42, 64
13, 6960, Note_off_c, 9, 49, 64
13, 7008, Note_on_c, 9, 42, 127
13, 7056, Note_off_c, 9, 42, 64
13, 7104, Note_on_c, 9, 38, 127
13, 7104, Note_on_c, 9, 42, 127
13, 7152, Note_off_c, 9, 38, 64
13, 7152, Note_off_c, 9, 42, 64
13, 7200, Note_on_c, 9, 36, 127
13, 7200, Note_on_c, 9, 42, 127
13, 7248, Note_off_c, 9, 36, 64
13, 7248, Note_off_c, 9, 42, 64
13, 7296, Note_on_c, 9, 36, 127
13, 7296, Note_on_c, 9, 42, 127
13, 7344, Note_off_c, 9, 36, 64
13, 7344, Note_off_c, 9, 42, 64
13, 7392, Note_on_c, 9, 42, 127
13, 7440, Note_off_c, 9, 42, 64
13, 7488, Note_on_c, 9, 38, 127
13, 7488, Note_on_c, 9, 42, 127
13, 7536, Note_off_c, 9, 38, 64
13, 7536, Note_off_c, 9, 42, 64
13, 7584, Note_on_c, 9, 42, 127
13, 7632, Note_off_c, 9, 42, 64
13, 7680, Note_on_c, 9, 36, 127
13, 7680, Note_on_c, 9, 42, 127
13, 7728, Note_off_c, 9, 36, 64
13, 7728, Note_off_c, 9, 42, 64
13, 7776, Note_on_c, 9, 42, 127
13, 7824, Note_off_c, 9, 42, 64
13, 7872, Note_on_c, 9, 38, 127
13, 7872, Note_on_c, 9, 46, 127
13, 7920, Note_off_c, 9, 38, 64
13, 7920, Note_off_c, 9, 46, 64
13, 7968, Note_on_c, 9, 36, 127
13, 8016, Note_off_c, 9, 36, 64
13, 8064, Note_on_c, 9, 50, 127
13, 8112, Note_off_c, 9, 50, 64
13, 8208, Note_on_c, 9, 47, 127
13, 8256, Note_off_c, 9, 47, 64
13, 8256, Note_on_c, 9, 47, 127
13, 8304, Note_off_c, 9, 47, 64
13, 8304, Note_on_c, 9, 41, 127
13, 8352, Note_off_c, 9, 41, 64
13, 8352, Note_on_c, 9, 41, 127
13, 8400, Note_off_c, 9, 41, 64
13, 8448, Note_on_c, 9, 36, 127
13, 8448, Note_on_c, 9, 42, 127
13, 8448, Note_on_c, 9, 49, 127
13, 8496, Note_off_c, 9, 36, 64
13, 8496, Note_off_c, 9, 42, 64
13, 8496, Note_off_c, 9, 49, 64
13, 8544, Note_on_c, 9, 42, 127
13, 8592, Note_off_c, 9, 42, 64
13, 8640, Note_on_c, 9, 38, 127
13, 8640, Note_on_c, 9, 42, 127
13, 8688, Note_off_c, 9, 38, 64
13, 8688, Note_off_c, 9, 42, 64
13, 8736, Note_on_c, 9, 36, 127
13, 8736, Note_on_c, 9, 42, 127
13, 8784, Note_off_c, 9, 36, 64
13, 8784, Note_off_c, 9, 42, 64
13, 8832, Note_on_c, 9, 36, 127
13, 8832, Note_on_c, 9, 42, 127
13, 8880, Note_off_c, 9, 36, 64
13, 8880, Note_off_c, 9, 42, 64
13, 8928, Note_on_c, 9, 42, 127
13, 8976, Note_off_c, 9, 42, 64
13, 9024, Note_on_c, 9, 38, 127
13, 9024, Note_on_c, 9, 42, 127
13, 9072, Note_off_c, 9, 38, 64
13, 9072, Note_off_c, 9, 42, 64
13, 9120, Note_on_c, 9, 36, 127
13, 9120, Note_on_c, 9, 42, 127
13, 9168, Note_off_c, 9, 36, 64
13, 9168, Note_off_c, 9, 42, 64
13, 9216, Note_on_c, 9, 36, 127
13, 9216, Note_on_c, 9, 42, 127
13, 9264, Note_off_c, 9, 36, 64
13, 9264, Note_off_c, 9, 42, 64
13, 9312, Note_on_c, 9, 42, 127
13, 9360, Note_off_c, 9, 42, 64
13, 9408, Note_on_c, 9, 38, 127
13, 9408, Note_on_c, 9, 42, 127
13, 9456, Note_off_c, 9, 38, 64
13, 9456, Note_off_c, 9, 42, 64
13, 9504, Note_on_c, 9, 36, 127
13, 9504, Note_on_c, 9, 42, 127
13, 9552, Note_off_c, 9, 36, 64
13, 9552, Note_off_c, 9, 42, 64
13, 9600, Note_on_c, 9, 36, 127
13, 9600, Note_on_c, 9, 42, 127
13, 9648, Note_off_c, 9, 36, 64
13, 9648, Note_off_c, 9, 42, 64
13, 9696, Note_on_c, 9, 38, 127
13, 9744, Note_off_c, 9, 38, 64
13, 9744, Note_on_c, 9, 38, 127
13, 9792, Note_off_c, 9, 38, 64
13, 9792, Note_on_c, 9, 38, 127
13, 9840, Note_off_c, 9, 38, 64
13, 9840, Note_on_c, 9, 38, 127
13, 9888, Note_off_c, 9, 38, 64
13, 9888, Note_on_c, 9, 38, 127
13, 9936, Note_off_c, 9, 38, 64
13, 9936, Note_on_c, 9, 38, 127
13, 9984, Note_off_c, 9, 38, 64
13, 9984, Note_on_c, 9, 36, 127
13, 9984, Note_on_c, 9, 42, 127
13, 9984, Note_on_c, 9, 49, 127
13, 10032, Note_off_c, 9, 36, 64
13, 10032, Note_off_c, 9, 42, 64
13, 10032, Note_off_c, 9, 49, 64
13, 10080, Note_on_c, 9, 42, 127
13, 10128, Note_off_c, 9, 42, 64
13, 10176, Note_on_c, 9, 38, 127
13, 10176, Note_on_c, 9, 42, 127
13, 10224, Note_off_c, 9, 38, 64
13, 10224, Note_off_c, 9, 42, 64
13, 10272, Note_on_c, 9, 36, 127
13, 10272, Note_on_c, 9, 42, 127
13, 10320, Note_off_c, 9, 36, 64
13, 10320, Note_off_c, 9, 42, 64
13, 10368, Note_on_c, 9, 36, 127
13, 10368, Note_on_c, 9, 42, 127
13, 10416, Note_off_c, 9, 36, 64
13, 10416, Note_off_c, 9, 42, 64
13, 10464, Note_on_c, 9, 42, 127
13, 10512, Note_off_c, 9, 42, 64
13, 10560, Note_on_c, 9, 38, 127
13, 10560, Note_on_c, 9, 42, 127
13, 10608, Note_off_c, 9, 38, 64
13, 10608, Note_off_c, 9, 42, 64
13, 10656, Note_on_c, 9, 36, 127
13, 10656, Note_on_c, 9, 42, 127
13, 10704, Note_off_c, 9, 36, 64
13, 10704, Note_off_c, 9, 42, 64
13, 10752, Note_on_c, 9, 36, 127
13, 10752, Note_on_c, 9, 42, 127
13, 10800, Note_off_c, 9, 36, 64
13, 10800, Note_off_c, 9, 42, 64
13, 10848, Note_on_c, 9, 42, 127
13, 10896, Note_off_c, 9, 42, 64
13, 10944, Note_on_c, 9, 38, 127
13, 10944, Note_on_c, 9, 42, 127
13, 10992, Note_off_c, 9, 38, 64
13, 10992, Note_off_c, 9, 42, 64
13, 11040, Note_on_c, 9, 36, 127
13, 11040, Note_on_c, 9, 42, 127
13, 11088, Note_off_c, 9, 36, 64
13, 11088, Note_off_c, 9, 42, 64
13, 11136, Note_on_c, 9, 36, 127
13, 11136, Note_on_c, 9, 42, 127
13, 11184, Note_off_c, 9, 36, 64
13, 11184, Note_off_c, 9, 42, 64
13, 11232, Note_on_c, 9, 36, 127
13, 11232, Note_on_c, 9, 42, 127
13, 11280, Note_off_c, 9, 36, 64
13, 11280, Note_off_c, 9, 42, 64
13, 11328, Note_on_c, 9, 38, 127
13, 11328, Note_on_c, 9, 42, 127
13, 11376, Note_off_c, 9, 38, 64
13, 11376, Note_off_c, 9, 42, 64
13, 11424, Note_on_c, 9, 36, 127
13, 11424, Note_on_c, 9, 42, 127
13, 11472, Note_off_c, 9, 36, 64
13, 11472, Note_off_c, 9, 42, 64
13, 11520, Note_on_c, 9, 36, 127
13, 11520, Note_on_c, 9, 42, 127
13, 11568, Note_off_c, 9, 36, 64
13, 11568, Note_off_c, 9, 42, 64
13, 11616, Note_on_c, 9, 42, 127
13, 11664, Note_off_c, 9, 42, 64
13, 11712, Note_on_c, 9, 38, 127
13, 11712, Note_on_c, 9, 42, 127
13, 11760, Note_off_c, 9, 38, 64
13, 11760, Note_off_c, 9, 42, 64
13, 11808, Note_on_c, 9, 36, 127
13, 11808, Note_on_c, 9, 42, 127
13, 11856, Note_off_c, 9, 36, 64
13, 11856, Note_off_c, 9, 42, 64
13, 11904, Note_on_c, 9, 36, 127
13, 11904, Note_on_c, 9, 42, 127
13, 11952, Note_off_c, 9, 36, 64
13, 11952, Note_off_c, 9, 42, 64
13, 12000, Note_on_c, 9, 42, 127
13, 12048, Note_off_c, 9, 42, 64
13, 12096, Note_on_c, 9, 38, 127
13, 12096, Note_on_c, 9, 42, 127
13, 12144, Note_off_c, 9, 38, 64
13, 12144, Note_off_c, 9, 42, 64
13, 12192, Note_on_c, 9, 36, 127
13, 12192, Note_on_c, 9, 42, 127
13, 12240, Note_off_c, 9, 36, 64
13, 12240, Note_off_c, 9, 42, 64
13, 12288, Note_on_c, 9, 36, 127
13, 12288, Note_on_c, 9, 42, 127
13, 12336, Note_off_c, 9, 36, 64
13, 12336, Note_off_c, 9, 42, 64
13, 12384, Note_on_c, 9, 42, 127
13, 12432, Note_off_c, 9, 42, 64
13, 12480, Note_on_c, 9, 38, 127
13, 12480, Note_on_c, 9, 42, 127
13, 12528, Note_off_c, 9, 38, 64
13, 12528, Note_off_c, 9, 42, 64
13, 12576, Note_on_c, 9, 36, 127
13, 12576, Note_on_c, 9, 42, 127
13, 12624, Note_off_c, 9, 36, 64
13, 12624, Note_off_c, 9, 42, 64
13, 12672, Note_on_c, 9, 36, 127
13, 12672, Note_on_c, 9, 42, 127
13, 12720, Note_off_c, 9, 36, 64
13, 12720, Note_off_c, 9, 42, 64
13, 12768, Note_on_c, 9, 36, 127
13, 12768, Note_on_c, 9, 42, 127
13, 12816, Note_off_c, 9, 36, 64
13, 12816, Note_off_c, 9, 42, 64
13, 12864, Note_on_c, 9, 38, 127
13, 12864, Note_on_c, 9, 42, 127
13, 12912, Note_off_c, 9, 38, 64
13, 12912, Note_off_c, 9, 42, 64
13, 12960, Note_on_c, 9, 36, 127
13, 12960, Note_on_c, 9, 42, 127
13, 13008, Note_off_c, 9, 36, 64
13, 13008, Note_off_c, 9, 42, 64
13, 13056, Note_on_c, 9, 36, 127
13, 13056, Note_on_c, 9, 42, 127
13, 13104, Note_off_c, 9, 36, 64
13, 13104, Note_off_c, 9, 42, 64
13, 13152, Note_on_c, 9, 42, 127
13, 13200, Note_off_c, 9, 42, 64
13, 13200, Note_on_c, 9, 42, 127
13, 13248, Note_off_c, 9, 42, 64
13, 13248, Note_on_c, 9, 38, 127
13, 13248, Note_on_c, 9, 46, 127
13, 13296, Note_off_c, 9, 38, 64
13, 13296, Note_off_c, 9, 46, 64
13, 13344, Note_on_c, 9, 36, 127
13, 13344, Note_on_c, 9, 47, 127
13, 13392, Note_off_c, 9, 36, 64
13, 13392, Note_off_c, 9, 47, 64
13, 13440, Note_on_c, 9, 36, 127
13, 13440, Note_on_c, 9, 50, 127
13, 13488, Note_off_c, 9, 36, 64
13, 13488, Note_off_c, 9, 50, 64
13, 13536, Note_on_c, 9, 47, 127
13, 13584, Note_off_c, 9, 47, 64
13, 13632, Note_on_c, 9, 42, 127
13, 13632, Note_on_c, 9, 47, 127
13, 13680, Note_off_c, 9, 42, 64
13, 13680, Note_off_c, 9, 47, 64
13, 13728, Note_on_c, 9, 42, 127
13, 13728, Note_on_c, 9, 41, 127
13, 13776, Note_off_c, 9, 42, 64
13, 13776, Note_off_c, 9, 41, 64
13, 13824, Note_on_c, 9, 36, 127
13, 13824, Note_on_c, 9, 42, 127
13, 13824, Note_on_c, 9, 49, 127
13, 13872, Note_off_c, 9, 36, 64
13, 13872, Note_off_c, 9, 42, 64
13, 13872, Note_off_c, 9, 49, 64
13, 13920, Note_on_c, 9, 42, 127
13, 13968, Note_off_c, 9, 42, 64
13, 14016, Note_on_c, 9, 38, 127
13, 14016, Note_on_c, 9, 42, 127
13, 14064, Note_off_c, 9, 38, 64
13, 14064, Note_off_c, 9, 42, 64
13, 14112, Note_on_c, 9, 36, 127
13, 14112, Note_on_c, 9, 42, 127
13, 14160, Note_off_c, 9, 36, 64
13, 14160, Note_off_c, 9, 42, 64
13, 14208, Note_on_c, 9, 36, 127
13, 14208, Note_on_c, 9, 42, 127
13, 14256, Note_off_c, 9, 36, 64
13, 14256, Note_off_c, 9, 42, 64
13, 14304, Note_on_c, 9, 42, 127
13, 14352, Note_off_c, 9, 42, 64
13, 14400, Note_on_c, 9, 38, 127
13, 14400, Note_on_c, 9, 42, 127
13, 14448, Note_off_c, 9, 38, 64
13, 14448, Note_off_c, 9, 42, 64
13, 14496, Note_on_c, 9, 42, 127
13, 14544, Note_off_c, 9, 42, 64
13, 14592, Note_on_c, 9, 38, 127
13, 14640, Note_off_c, 9, 38, 64
13, 14640, Note_on_c, 9, 38, 127
13, 14688, Note_off_c, 9, 38, 64
13, 14688, Note_on_c, 9, 38, 127
13, 14736, Note_off_c, 9, 38, 64
13, 14784, Note_on_c, 9, 38, 127
13, 14832, Note_off_c, 9, 38, 64
13, 14880, Note_on_c, 9, 38, 127
13, 14928, Note_off_c, 9, 38, 64
13, 14976, Note_on_c, 9, 36, 127
13, 15024, Note_off_c, 9, 36, 64
13, 15072, Note_on_c, 9, 36, 127
13, 15120, Note_off_c, 9, 36, 64
13, 15168, Note_on_c, 9, 38, 127
13, 15216, Note_off_c, 9, 38, 64
13, 15360, Note_on_c, 9, 36, 127
13, 15360, Note_on_c, 9, 42, 127
13, 15408, Note_off_c, 9, 36, 64
13, 15408, Note_off_c, 9, 42, 64
13, 15456, Note_on_c, 9, 42, 127
13, 15504, Note_off_c, 9, 42, 64
13, 15552, Note_on_c, 9, 38, 127
13, 15552, Note_on_c, 9, 42, 127
13, 15600, Note_off_c, 9, 38, 64
13, 15600, Note_off_c, 9, 42, 64
13, 15648, Note_on_c, 9, 36, 127
13, 15648, Note_on_c, 9, 42, 127
13, 15696, Note_off_c, 9, 36, 64
13, 15696, Note_off_c, 9, 42, 64
13, 15744, Note_on_c, 9, 36, 127
13, 15744, Note_on_c, 9, 42, 127
13, 15792, Note_off_c, 9, 36, 64
13, 15792, Note_off_c, 9, 42, 64
13, 15840, Note_on_c, 9, 38, 127
13, 15888, Note_off_c, 9, 38, 64
13, 15888, Note_on_c, 9, 38, 127
13, 15936, Note_off_c, 9, 38, 64
13, 15936, Note_on_c, 9, 38, 127
13, 15984, Note_off_c, 9, 38, 64
13, 15984, Note_on_c, 9, 38, 127
13, 16032, Note_off_c, 9, 38, 64
13, 16032, Note_on_c, 9, 38, 127
13, 16080, Note_off_c, 9, 38, 64
13, 16080, Note_on_c, 9, 38, 127
13, 16128, Note_off_c, 9, 38, 64
13, 16128, Note_on_c, 9, 36, 127
13, 16128, Note_on_c, 9, 42, 127
13, 16176, Note_off_c, 9, 36, 64
13, 16176, Note_off_c, 9, 42, 64
13, 16224, Note_on_c, 9, 42, 127
13, 16272, Note_off_c, 9, 42, 64
13, 16320, Note_on_c, 9, 38, 127
13, 16320, Note_on_c, 9, 46, 127
13, 16368, Note_off_c, 9, 38, 64
13, 16368, Note_off_c, 9, 46, 64
13, 16416, Note_on_c, 9, 36, 127
13, 16464, Note_off_c, 9, 36, 64
13, 16512, Note_on_c, 9, 50, 127
13, 16560, Note_off_c, 9, 50, 64
13, 16656, Note_on_c, 9, 47, 127
13, 16704, Note_off_c, 9, 47, 64
13, 16704, Note_on_c, 9, 47, 127
13, 16752, Note_off_c, 9, 47, 64
13, 16752, Note_on_c, 9, 41, 127
13, 16800, Note_off_c, 9, 41, 64
13, 16800, Note_on_c, 9, 41, 127
13, 16848, Note_off_c, 9, 41, 64
13, 16896, Note_on_c, 9, 36, 127
13, 16896, Note_on_c, 9, 42, 127
13, 16896, Note_on_c, 9, 49, 127
13, 16944, Note_off_c, 9, 36, 64
13, 16944, Note_off_c, 9, 42, 64
13, 16944, Note_off_c, 9, 49, 64
13, 16992, Note_on_c, 9, 42, 127
13, 17040, Note_off_c, 9, 42, 64
13, 17088, Note_on_c, 9, 38, 127
13, 17088, Note_on_c, 9, 42, 127
13, 17136, Note_off_c, 9, 38, 64
13, 17136, Note_off_c, 9, 42, 64
13, 17184, Note_on_c, 9, 36, 127
13, 17184, Note_on_c, 9, 42, 127
13, 17232, Note_off_c, 9, 36, 64
13, 17232, Note_off_c, 9, 42, 64
13, 17280, Note_on_c, 9, 36, 127
13, 17280, Note_on_c, 9, 42, 127
13, 17328, Note_off_c, 9, 36, 64
13, 17328, Note_off_c, 9, 42, 64
13, 17376, Note_on_c, 9, 42, 127
13, 17424, Note_off_c, 9, 42, 64
13, 17472, Note_on_c, 9, 38, 127
13, 17472, Note_on_c, 9, 42, 127
13, 17520, Note_off_c, 9, 38, 64
13, 17520, Note_off_c, 9, 42, 64
13, 17568, Note_on_c, 9, 36, 127
13, 17568, Note_on_c, 9, 42, 127
13, 17616, Note_off_c, 9, 36, 64
13, 17616, Note_off_c, 9, 42, 64
13, 17664, Note_on_c, 9, 36, 127
13, 17664, Note_on_c, 9, 42, 127
13, 17712, Note_off_c, 9, 36, 64
13, 17712, Note_off_c, 9, 42, 64
13, 17760, Note_on_c, 9, 42, 127
13, 17808, Note_off_c, 9, 42, 64
13, 17856, Note_on_c, 9, 38, 127
13, 17856, Note_on_c, 9, 42, 127
13, 17904, Note_off_c, 9, 38, 64
13, 17904, Note_off_c, 9, 42, 64
13, 17952, Note_on_c, 9, 36, 127
13, 17952, Note_on_c, 9, 42, 127
13, 18000, Note_off_c, 9, 36, 64
13, 18000, Note_off_c, 9, 42, 64
13, 18048, Note_on_c, 9, 36, 127
13, 18048, Note_on_c, 9, 42, 127
13, 18096, Note_off_c, 9, 36, 64
13, 18096, Note_off_c, 9, 42, 64
13, 18144, Note_on_c, 9, 36, 127
13, 18144, Note_on_c, 9, 42, 127
13, 18192, Note_off_c, 9, 36, 64
13, 18192, Note_off_c, 9, 42, 64
13, 18240, Note_on_c, 9, 38, 127
13, 18240, Note_on_c, 9, 42, 127
13, 18288, Note_off_c, 9, 38, 64
13, 18288, Note_off_c, 9, 42, 64
13, 18336, Note_on_c, 9, 36, 127
13, 18336, Note_on_c, 9, 42, 127
13, 18384, Note_off_c, 9, 36, 64
13, 18384, Note_off_c, 9, 42, 64
13, 18432, Note_on_c, 9, 36, 127
13, 18432, Note_on_c, 9, 42, 127
13, 18480, Note_off_c, 9, 36, 64
13, 18480, Note_off_c, 9, 42, 64
13, 18528, Note_on_c, 9, 42, 127
13, 18576, Note_off_c, 9, 42, 64
13, 18624, Note_on_c, 9, 38, 127
13, 18624, Note_on_c, 9, 46, 127
13, 18672, Note_off_c, 9, 38, 64
13, 18672, Note_off_c, 9, 46, 64
13, 18720, Note_on_c, 9, 36, 127
13, 18768, Note_off_c, 9, 36, 64
13, 18816, Note_on_c, 9, 50, 127
13, 18864, Note_off_c, 9, 50, 64
13, 18960, Note_on_c, 9, 47, 127
13, 19008, Note_off_c, 9, 47, 64
13, 19008, Note_on_c, 9, 47, 127
13, 19056, Note_off_c, 9, 47, 64
13, 19056, Note_on_c, 9, 41, 127
13, 19104, Note_off_c, 9, 41, 64
13, 19104, Note_on_c, 9, 41, 127
13, 19152, Note_off_c, 9, 41, 64
13, 19200, Note_on_c, 9, 36, 127
13, 19200, Note_on_c, 9, 42, 127
13, 19200, Note_on_c, 9, 49, 127
13, 19248, Note_off_c, 9, 36, 64
13, 19248, Note_off_c, 9, 42, 64
13, 19248, Note_off_c, 9, 49, 64
13, 19296, Note_on_c, 9, 42, 127
13, 19344, Note_off_c, 9, 42, 64
13, 19392, Note_on_c, 9, 38, 127
13, 19392, Note_on_c, 9, 42, 127
13, 19440, Note_off_c, 9, 38, 64
13, 19440, Note_off_c, 9, 42, 64
13, 19488, Note_on_c, 9, 36, 127
13, 19488, Note_on_c, 9, 42, 127
13, 19536, Note_off_c, 9, 36, 64
13, 19536, Note_off_c, 9, 42, 64
13, 19584, Note_on_c, 9, 36, 127
13, 19584, Note_on_c, 9, 42, 127
13, 19632, Note_off_c, 9, 36, 64
13, 19632, Note_off_c, 9, 42, 64
13, 19680, Note_on_c, 9, 42, 127
13, 19728, Note_off_c, 9, 42, 64
13, 19776, Note_on_c, 9, 38, 127
13, 19776, Note_on_c, 9, 42, 127
13, 19824, Note_off_c, 9, 38, 64
13, 19824, Note_off_c, 9, 42, 64
13, 19872, Note_on_c, 9, 36, 127
13, 19872, Note_on_c, 9, 42, 127
13, 19920, Note_off_c, 9, 36, 64
13, 19920, Note_off_c, 9, 42, 64
13, 19968, Note_on_c, 9, 36, 127
13, 19968, Note_on_c, 9, 42, 127
13, 20016, Note_off_c, 9, 36, 64
13, 20016, Note_off_c, 9, 42, 64
13, 20064, Note_on_c, 9, 42, 127
13, 20112, Note_off_c, 9, 42, 64
13, 20160, Note_on_c, 9, 38, 127
13, 20160, Note_on_c, 9, 42, 127
13, 20208, Note_off_c, 9, 38, 64
13, 20208, Note_off_c, 9, 42, 64
13, 20256, Note_on_c, 9, 36, 127
13, 20256, Note_on_c, 9, 42, 127
13, 20304, Note_off_c, 9, 36, 64
13, 20304, Note_off_c, 9, 42, 64
13, 20352, Note_on_c, 9, 36, 127
13, 20352, Note_on_c, 9, 42, 127
13, 20400, Note_off_c, 9, 36, 64
13, 20400, Note_off_c, 9, 42, 64
13, 20448, Note_on_c, 9, 36, 127
13, 20448, Note_on_c, 9, 42, 127
13, 20496, Note_off_c, 9, 36, 64
13, 20496, Note_off_c, 9, 42, 64
13, 20544, Note_on_c, 9, 38, 127
13, 20544, Note_on_c, 9, 42, 127
13, 20592, Note_off_c, 9, 38, 64
13, 20592, Note_off_c, 9, 42, 64
13, 20640, Note_on_c, 9, 36, 127
13, 20640, Note_on_c, 9, 46, 127
13, 20688, Note_off_c, 9, 36, 64
13, 20688, Note_off_c, 9, 46, 64
13, 20736, Note_on_c, 9, 36, 127
13, 20736, Note_on_c, 9, 42, 127
13, 20784, Note_off_c, 9, 36, 64
13, 20784, Note_off_c, 9, 42, 64
13, 20832, Note_on_c, 9, 42, 127
13, 20880, Note_off_c, 9, 42, 64
13, 20928, Note_on_c, 9, 38, 127
13, 20928, Note_on_c, 9, 42, 127
13, 20976, Note_off_c, 9, 38, 64
13, 20976, Note_off_c, 9, 42, 64
13, 21024, Note_on_c, 9, 36, 127
13, 21024, Note_on_c, 9, 42, 127
13, 21072, Note_off_c, 9, 36, 64
13, 21072, Note_off_c, 9, 42, 64
13, 21120, Note_on_c, 9, 36, 127
13, 21120, Note_on_c, 9, 42, 127
13, 21168, Note_off_c, 9, 36, 64
13, 21168, Note_off_c, 9, 42, 64
13, 21216, Note_on_c, 9, 42, 127
13, 21264, Note_off_c, 9, 42, 64
13, 21312, Note_on_c, 9, 38, 127
13, 21312, Note_on_c, 9, 42, 127
13, 21360, Note_off_c, 9, 38, 64
13, 21360, Note_off_c, 9, 42, 64
13, 21408, Note_on_c, 9, 36, 127
13, 21408, Note_on_c, 9, 42, 127
13, 21456, Note_off_c, 9, 36, 64
13, 21456, Note_off_c, 9, 42, 64
13, 21504, Note_on_c, 9, 36, 127
13, 21504, Note_on_c, 9, 42, 127
13, 21552, Note_off_c, 9, 36, 64
13, 21552, Note_off_c, 9, 42, 64
13, 21600, Note_on_c, 9, 42, 127
13, 21648, Note_off_c, 9, 42, 64
13, 21696, Note_on_c, 9, 38, 127
13, 21696, Note_on_c, 9, 42, 127
13, 21744, Note_off_c, 9, 38, 64
13, 21744, Note_off_c, 9, 42, 64
13, 21792, Note_on_c, 9, 36, 127
13, 21792, Note_on_c, 9, 42, 127
13, 21840, Note_off_c, 9, 36, 64
13, 21840, Note_off_c, 9, 42, 64
13, 21888, Note_on_c, 9, 36, 127
13, 21888, Note_on_c, 9, 42, 127
13, 21936, Note_off_c, 9, 36, 64
13, 21936, Note_off_c, 9, 42, 64
13, 21984, Note_on_c, 9, 38, 127
13, 22032, Note_off_c, 9, 38, 64
13, 22032, Note_on_c, 9, 38, 127
13, 22080, Note_off_c, 9, 38, 64
13, 22080, Note_on_c, 9, 38, 127
13, 22128, Note_off_c, 9, 38, 64
13, 22128, Note_on_c, 9, 38, 127
13, 22176, Note_off_c, 9, 38, 64
13, 22176, Note_on_c, 9, 38, 127
13, 22224, Note_off_c, 9, 38, 64
13, 22224, Note_on_c, 9, 38, 127
13, 22272, Note_off_c, 9, 38, 64
13, 22272, Note_on_c, 9, 36, 127
13, 22272, Note_on_c, 9, 42, 127
13, 22272, Note_on_c, 9, 49, 127
13, 22320, Note_off_c, 9, 36, 64
13, 22320, Note_off_c, 9, 42, 64
13, 22320, Note_off_c, 9, 49, 64
13, 22368, Note_on_c, 9, 42, 127
13, 22416, Note_off_c, 9, 42, 64
13, 22464, Note_on_c, 9, 38, 127
13, 22464, Note_on_c, 9, 42, 127
13, 22512, Note_off_c, 9, 38, 64
13, 22512, Note_off_c, 9, 42, 64
13, 22560, Note_on_c, 9, 36, 127
13, 22560, Note_on_c, 9, 42, 127
13, 22608, Note_off_c, 9, 36, 64
13, 22608, Note_off_c, 9, 42, 64
13, 22656, Note_on_c, 9, 36, 127
13, 22656, Note_on_c, 9, 42, 127
13, 22704, Note_off_c, 9, 36, 64
13, 22704, Note_off_c, 9, 42, 64
13, 22752, Note_on_c, 9, 42, 127
13, 22800, Note_off_c, 9, 42, 64
13, 22848, Note_on_c, 9, 38, 127
13, 22848, Note_on_c, 9, 42, 127
13, 22896, Note_off_c, 9, 38, 64
13, 22896, Note_off_c, 9, 42, 64
13, 22944, Note_on_c, 9, 42, 127
13, 22992, Note_off_c, 9, 42, 64
13, 23040, Note_on_c, 9, 36, 127
13, 23040, Note_on_c, 9, 42, 127
13, 23088, Note_off_c, 9, 36, 64
13, 23088, Note_off_c, 9, 42, 64
13, 23136, Note_on_c, 9, 42, 127
13, 23184, Note_off_c, 9, 42, 64
13, 23232, Note_on_c, 9, 38, 127
13, 23232, Note_on_c, 9, 42, 127
13, 23280, Note_off_c, 9, 38, 64
13, 23280, Note_off_c, 9, 42, 64
13, 23328, Note_on_c, 9, 36, 127
13, 23328, Note_on_c, 9, 42, 127
13, 23376, Note_off_c, 9, 36, 64
13, 23376, Note_off_c, 9, 42, 64
13, 23424, Note_on_c, 9, 36, 127
13, 23424, Note_on_c, 9, 42, 127
13, 23472, Note_off_c, 9, 36, 64
13, 23472, Note_off_c, 9, 42, 64
13, 23520, Note_on_c, 9, 42, 127
13, 23568, Note_off_c, 9, 42, 64
13, 23616, Note_on_c, 9, 38, 127
13, 23616, Note_on_c, 9, 42, 127
13, 23616, Note_on_c, 9, 54, 127
13, 23664, Note_off_c, 9, 38, 64
13, 23664, Note_off_c, 9, 42, 64
13, 23664, Note_off_c, 9, 54, 64
13, 23712, Note_on_c, 9, 36, 127
13, 23712, Note_on_c, 9, 46, 127
13, 23760, Note_off_c, 9, 36, 64
13, 23760, Note_off_c, 9, 46, 64
13, 23808, Note_on_c, 9, 36, 127
13, 23808, Note_on_c, 9, 42, 127
13, 23856, Note_off_c, 9, 36, 64
13, 23856, Note_off_c, 9, 42, 64
13, 23904, Note_on_c, 9, 42, 127
13, 23952, Note_off_c, 9, 42, 64
13, 24000, Note_on_c, 9, 38, 127
13, 24000, Note_on_c, 9, 42, 127
13, 24048, Note_off_c, 9, 38, 64
13, 24048, Note_off_c, 9, 42, 64
13, 24096, Note_on_c, 9, 36, 127
13, 24096, Note_on_c, 9, 42, 127
13, 24144, Note_off_c, 9, 36, 64
13, 24144, Note_off_c, 9, 42, 64
13, 24192, Note_on_c, 9, 36, 127
13, 24192, Note_on_c, 9, 42, 127
13, 24240, Note_off_c, 9, 36, 64
13, 24240, Note_off_c, 9, 42, 64
13, 24288, Note_on_c, 9, 42, 127
13, 24336, Note_off_c, 9, 42, 64
13, 24384, Note_on_c, 9, 38, 127
13, 24384, Note_on_c, 9, 42, 127
13, 24432, Note_off_c, 9, 38, 64
13, 24432, Note_off_c, 9, 42, 64
13, 24480, Note_on_c, 9, 42, 127
13, 24528, Note_off_c, 9, 42, 64
13, 24576, Note_on_c, 9, 36, 127
13, 24576, Note_on_c, 9, 42, 127
13, 24624, Note_off_c, 9, 36, 64
13, 24624, Note_off_c, 9, 42, 64
13, 24672, Note_on_c, 9, 42, 127
13, 24720, Note_off_c, 9, 42, 64
13, 24768, Note_on_c, 9, 38, 127
13, 24768, Note_on_c, 9, 42, 127
13, 24816, Note_off_c, 9, 38, 64
13, 24816, Note_off_c, 9, 42, 64
13, 24864, Note_on_c, 9, 36, 127
13, 24864, Note_on_c, 9, 42, 127
13, 24912, Note_off_c, 9, 36, 64
13, 24912, Note_off_c, 9, 42, 64
13, 24960, Note_on_c, 9, 36, 127
13, 24960, Note_on_c, 9, 42, 127
13, 25008, Note_off_c, 9, 36, 64
13, 25008, Note_off_c, 9, 42, 64
13, 25056, Note_on_c, 9, 42, 127
13, 25104, Note_off_c, 9, 42, 64
13, 25152, Note_on_c, 9, 38, 127
13, 25152, Note_on_c, 9, 42, 127
13, 25152, Note_on_c, 9, 54, 127
13, 25200, Note_off_c, 9, 38, 64
13, 25200, Note_off_c, 9, 42, 64
13, 25200, Note_off_c, 9, 54, 64
13, 25248, Note_on_c, 9, 36, 127
13, 25248, Note_on_c, 9, 42, 127
13, 25296, Note_off_c, 9, 36, 64
13, 25296, Note_off_c, 9, 42, 64
13, 25344, Note_on_c, 9, 36, 127
13, 25344, Note_on_c, 9, 42, 127
13, 25392, Note_off_c, 9, 36, 64
13, 25392, Note_off_c, 9, 42, 64
13, 25440, Note_on_c, 9, 42, 127
13, 25488, Note_off_c, 9, 42, 64
13, 25536, Note_on_c, 9, 38, 127
13, 25536, Note_on_c, 9, 42, 127
13, 25584, Note_off_c, 9, 38, 64
13, 25584, Note_off_c, 9, 42, 64
13, 25632, Note_on_c, 9, 36, 127
13, 25632, Note_on_c, 9, 42, 127
13, 25680, Note_off_c, 9, 36, 64
13, 25680, Note_off_c, 9, 42, 64
13, 25728, Note_on_c, 9, 36, 127
13, 25728, Note_on_c, 9, 38, 127
13, 25728, Note_on_c, 9, 42, 127
13, 25776, Note_off_c, 9, 36, 64
13, 25776, Note_off_c, 9, 38, 64
13, 25776, Note_off_c, 9, 42, 64
13, 25776, Note_on_c, 9, 38, 127
13, 25824, Note_off_c, 9, 38, 64
13, 25824, Note_on_c, 9, 38, 127
13, 25872, Note_off_c, 9, 38, 64
13, 25872, Note_on_c, 9, 38, 127
13, 25920, Note_off_c, 9, 38, 64
13, 25920, Note_on_c, 9, 47, 127
13, 25968, Note_off_c, 9, 47, 64
13, 25968, Note_on_c, 9, 47, 127
13, 26016, Note_off_c, 9, 47, 64
13, 26016, Note_on_c, 9, 47, 127
13, 26064, Note_off_c, 9, 47, 64
13, 26064, Note_on_c, 9, 47, 127
13, 26112, Note_off_c, 9, 47, 64
13, 26112, Note_on_c, 9, 36, 127
13, 26112, Note_on_c, 9, 42, 127
13, 26112, Note_on_c, 9, 49, 127
13, 26160, Note_off_c, 9, 36, 64
13, 26160, Note_off_c, 9, 42, 64
13, 26160, Note_off_c, 9, 49, 64
13, 26208, Note_on_c, 9, 42, 127
13, 26256, Note_off_c, 9, 42, 64
13, 26304, Note_on_c, 9, 38, 127
13, 26304, Note_on_c, 9, 42, 127
13, 26352, Note_off_c, 9, 38, 64
13, 26352, Note_off_c, 9, 42, 64
13, 26400, Note_on_c, 9, 36, 127
13, 26400, Note_on_c, 9, 42, 127
13, 26448, Note_off_c, 9, 36, 64
13, 26448, Note_off_c, 9, 42, 64
13, 26496, Note_on_c, 9, 36, 127
13, 26496, Note_on_c, 9, 42, 127
13, 26544, Note_off_c, 9, 36, 64
13, 26544, Note_off_c, 9, 42, 64
13, 26592, Note_on_c, 9, 42, 127
13, 26640, Note_off_c, 9, 42, 64
13, 26688, Note_on_c, 9, 38, 127
13, 26688, Note_on_c, 9, 42, 127
13, 26736, Note_off_c, 9, 38, 64
13, 26736, Note_off_c, 9, 42, 64
13, 26784, Note_on_c, 9, 36, 127
13, 26784, Note_on_c, 9, 42, 127
13, 26832, Note_off_c, 9, 36, 64
13, 26832, Note_off_c, 9, 42, 64
13, 26880, Note_on_c, 9, 36, 127
13, 26880, Note_on_c, 9, 42, 127
13, 26928, Note_off_c, 9, 36, 64
13, 26928, Note_off_c, 9, 42, 64
13, 26976, Note_on_c, 9, 42, 127
13, 27024, Note_off_c, 9, 42, 64
13, 27072, Note_on_c, 9, 38, 127
13, 27072, Note_on_c, 9, 42, 127
13, 27120, Note_off_c, 9, 38, 64
13, 27120, Note_off_c, 9, 42, 64
13, 27168, Note_on_c, 9, 36, 127
13, 27168, Note_on_c, 9, 42, 127
13, 27216, Note_off_c, 9, 36, 64
13, 27216, Note_off_c, 9, 42, 64
13, 27264, Note_on_c, 9, 36, 127
13, 27264, Note_on_c, 9, 38, 127
13, 27264, Note_on_c, 9, 42, 127
13, 27312, Note_off_c, 9, 36, 64
13, 27312, Note_off_c, 9, 38, 64
13, 27312, Note_off_c, 9, 42, 64
13, 27312, Note_on_c, 9, 38, 127
13, 27360, Note_off_c, 9, 38, 64
13, 27360, Note_on_c, 9, 38, 127
13, 27408, Note_off_c, 9, 38, 64
13, 27408, Note_on_c, 9, 38, 127
13, 27456, Note_off_c, 9, 38, 64
13, 27456, Note_on_c, 9, 47, 127
13, 27504, Note_off_c, 9, 47, 64
13, 27504, Note_on_c, 9, 47, 127
13, 27552, Note_off_c, 9, 47, 64
13, 27552, Note_on_c, 9, 47, 127
13, 27600, Note_off_c, 9, 47, 64
13, 27600, Note_on_c, 9, 47, 127
13, 27648, Note_off_c, 9, 47, 64
13, 27648, Note_on_c, 9, 36, 127
13, 27648, Note_on_c, 9, 42, 127
13, 27648, Note_on_c, 9, 49, 127
13, 27696, Note_off_c, 9, 36, 64
13, 27696, Note_off_c, 9, 42, 64
13, 27696, Note_off_c, 9, 49, 64
13, 27744, Note_on_c, 9, 42, 127
13, 27792, Note_off_c, 9, 42, 64
13, 27840, Note_on_c, 9, 38, 127
13, 27840, Note_on_c, 9, 42, 127
13, 27888, Note_off_c, 9, 38, 64
13, 27888, Note_off_c, 9, 42, 64
13, 27936, Note_on_c, 9, 36, 127
13, 27936, Note_on_c, 9, 42, 127
13, 27984, Note_off_c, 9, 36, 64
13, 27984, Note_off_c, 9, 42, 64
13, 28032, Note_on_c, 9, 36, 127
13, 28032, Note_on_c, 9, 42, 127
13, 28080, Note_off_c, 9, 36, 64
13, 28080, Note_off_c, 9, 42, 64
13, 28128, Note_on_c, 9, 42, 127
13, 28176, Note_off_c, 9, 42, 64
13, 28224, Note_on_c, 9, 38, 127
13, 28224, Note_on_c, 9, 42, 127
13, 28272, Note_off_c, 9, 38, 64
13, 28272, Note_off_c, 9, 42, 64
13, 28320, Note_on_c, 9, 42, 127
13, 28368, Note_off_c, 9, 42, 64
13, 28416, Note_on_c, 9, 36, 127
13, 28416, Note_on_c, 9, 42, 127
13, 28464, Note_off_c, 9, 36, 64
13, 28464, Note_off_c, 9, 42, 64
13, 28512, Note_on_c, 9, 42, 127
13, 28560, Note_off_c, 9, 42, 64
13, 28608, Note_on_c, 9, 38, 127
13, 28608, Note_on_c, 9, 42, 127
13, 28656, Note_off_c, 9, 38, 64
13, 28656, Note_off_c, 9, 42, 64
13, 28704, Note_on_c, 9, 36, 127
13, 28704, Note_on_c, 9, 42, 127
13, 28752, Note_off_c, 9, 36, 64
13, 28752, Note_off_c, 9, 42, 64
13, 28800, Note_on_c, 9, 36, 127
13, 28800, Note_on_c, 9, 42, 127
13, 28848, Note_off_c, 9, 36, 64
13, 28848, Note_off_c, 9, 42, 64
13, 28896, Note_on_c, 9, 42, 127
13, 28944, Note_off_c, 9, 42, 64
13, 28992, Note_on_c, 9, 38, 127
13, 28992, Note_on_c, 9, 42, 127
13, 28992, Note_on_c, 9, 54, 127
13, 29040, Note_off_c, 9, 38, 64
13, 29040, Note_off_c, 9, 42, 64
13, 29040, Note_off_c, 9, 54, 64
13, 29088, Note_on_c, 9, 36, 127
13, 29088, Note_on_c, 9, 42, 127
13, 29136, Note_off_c, 9, 36, 64
13, 29136, Note_off_c, 9, 42, 64
13, 29184, Note_on_c, 9, 36, 127
13, 29184, Note_on_c, 9, 42, 127
13, 29232, Note_off_c, 9, 36, 64
13, 29232, Note_off_c, 9, 42, 64
13, 29280, Note_on_c, 9, 42, 127
13, 29328, Note_off_c, 9, 42, 64
13, 29376, Note_on_c, 9, 38, 127
13, 29376, Note_on_c, 9, 46, 127
13, 29424, Note_off_c, 9, 38, 64
13, 29424, Note_off_c, 9, 46, 64
13, 29472, Note_on_c, 9, 36, 127
13, 29520, Note_off_c, 9, 36, 64
13, 29568, Note_on_c, 9, 50, 127
13, 29616, Note_off_c, 9, 50, 64
13, 29712, Note_on_c, 9, 47, 127
13, 29760, Note_off_c, 9, 47, 64
13, 29760, Note_on_c, 9, 47, 127
13, 29808, Note_off_c, 9, 47, 64
13, 29808, Note_on_c, 9, 41, 127
13, 29856, Note_off_c, 9, 41, 64
13, 29856, Note_on_c, 9, 41, 127
13, 29904, Note_off_c, 9, 41, 64
13, 29952, Note_on_c, 9, 36, 127
13, 29952, Note_on_c, 9, 42, 127
13, 29952, Note_on_c, 9, 49, 127
13, 30000, Note_off_c, 9, 36, 64
13, 30000, Note_off_c, 9, 42, 64
13, 30000, Note_off_c, 9, 49, 64
13, 30048, Note_on_c, 9, 42, 127
13, 30096, Note_off_c, 9, 42, 64
13, 30144, Note_on_c, 9, 38, 127
13, 30144, Note_on_c, 9, 42, 127
13, 30192, Note_off_c, 9, 38, 64
13, 30192, Note_off_c, 9, 42, 64
13, 30240, Note_on_c, 9, 36, 127
13, 30240, Note_on_c, 9, 42, 127
13, 30288, Note_off_c, 9, 36, 64
13, 30288, Note_off_c, 9, 42, 64
13, 30336, Note_on_c, 9, 36, 127
13, 30336, Note_on_c, 9, 42, 127
13, 30384, Note_off_c, 9, 36, 64
13, 30384, Note_off_c, 9, 42, 64
13, 30432, Note_on_c, 9, 42, 127
13, 30480, Note_off_c, 9, 42, 64
13, 30528, Note_on_c, 9, 38, 127
13, 30528, Note_on_c, 9, 42, 127
13, 30576, Note_off_c, 9, 38, 64
13, 30576, Note_off_c, 9, 42, 64
13, 30624, Note_on_c, 9, 36, 127
13, 30624, Note_on_c, 9, 42, 127
13, 30672, Note_off_c, 9, 36, 64
13, 30672, Note_off_c, 9, 42, 64
13, 30720, Note_on_c, 9, 36, 127
13, 30720, Note_on_c, 9, 42, 127
13, 30768, Note_off_c, 9, 36, 64
13, 30768, Note_off_c, 9, 42, 64
13, 30816, Note_on_c, 9, 42, 127
13, 30864, Note_off_c, 9, 42, 64
13, 30912, Note_on_c, 9, 38, 127
13, 30912, Note_on_c, 9, 42, 127
13, 30960, Note_off_c, 9, 38, 64
13, 30960, Note_off_c, 9, 42, 64
13, 31008, Note_on_c, 9, 36, 127
13, 31008, Note_on_c, 9, 42, 127
13, 31056, Note_off_c, 9, 36, 64
13, 31056, Note_off_c, 9, 42, 64
13, 31104, Note_on_c, 9, 36, 127
13, 31104, Note_on_c, 9, 42, 127
13, 31152, Note_off_c, 9, 36, 64
13, 31152, Note_off_c, 9, 42, 64
13, 31200, Note_on_c, 9, 36, 127
13, 31200, Note_on_c, 9, 42, 127
13, 31248, Note_off_c, 9, 36, 64
13, 31248, Note_off_c, 9, 42, 64
13, 31296, Note_on_c, 9, 38, 127
13, 31296, Note_on_c, 9, 42, 127
13, 31344, Note_off_c, 9, 38, 64
13, 31344, Note_off_c, 9, 42, 64
13, 31392, Note_on_c, 9, 36, 127
13, 31392, Note_on_c, 9, 46, 127
13, 31440, Note_off_c, 9, 36, 64
13, 31440, Note_off_c, 9, 46, 64
13, 31488, Note_on_c, 9, 36, 127
13, 31488, Note_on_c, 9, 42, 127
13, 31536, Note_off_c, 9, 36, 64
13, 31536, Note_off_c, 9, 42, 64
13, 31584, Note_on_c, 9, 42, 127
13, 31632, Note_off_c, 9, 42, 64
13, 31680, Note_on_c, 9, 38, 127
13, 31680, Note_on_c, 9, 42, 127
13, 31728, Note_off_c, 9, 38, 64
13, 31728, Note_off_c, 9, 42, 64
13, 31776, Note_on_c, 9, 36, 127
13, 31776, Note_on_c, 9, 42, 127
13, 31824, Note_off_c, 9, 36, 64
13, 31824, Note_off_c, 9, 42, 64
13, 31824, Note_on_c, 9, 42, 127
13, 31872, Note_off_c, 9, 42, 64
13, 31872, Note_on_c, 9, 36, 127
13, 31872, Note_on_c, 9, 42, 127
13, 31920, Note_off_c, 9, 36, 64
13, 31920, Note_off_c, 9, 42, 64
13, 31968, Note_on_c, 9, 42, 127
13, 32016, Note_off_c, 9, 42, 64
13, 32064, Note_on_c, 9, 38, 127
13, 32064, Note_on_c, 9, 42, 127
13, 32112, Note_off_c, 9, 38, 64
13, 32112, Note_off_c, 9, 42, 64
13, 32160, Note_on_c, 9, 36, 127
13, 32160, Note_on_c, 9, 42, 127
13, 32208, Note_off_c, 9, 36, 64
13, 32208, Note_off_c, 9, 42, 64
13, 32256, Note_on_c, 9, 36, 127
13, 32256, Note_on_c, 9, 42, 127
13, 32304, Note_off_c, 9, 36, 64
13, 32304, Note_off_c, 9, 42, 64
13, 32352, Note_on_c, 9, 42, 127
13, 32400, Note_off_c, 9, 42, 64
13, 32448, Note_on_c, 9, 38, 127
13, 32448, Note_on_c, 9, 42, 127
13, 32496, Note_off_c, 9, 38, 64
13, 32496, Note_off_c, 9, 42, 64
13, 32544, Note_on_c, 9, 36, 127
13, 32544, Note_on_c, 9, 42, 127
13, 32592, Note_off_c, 9, 36, 64
13, 32592, Note_off_c, 9, 42, 64
13, 32640, Note_on_c, 9, 36, 127
13, 32640, Note_on_c, 9, 42, 127
13, 32688, Note_off_c, 9, 36, 64
13, 32688, Note_off_c, 9, 42, 64
13, 32736, Note_on_c, 9, 36, 127
13, 32736, Note_on_c, 9, 42, 127
13, 32784, Note_off_c, 9, 36, 64
13, 32784, Note_off_c, 9, 42, 64
13, 32832, Note_on_c, 9, 38, 127
13, 32832, Note_on_c, 9, 42, 127
13, 32880, Note_off_c, 9, 38, 64
13, 32880, Note_off_c, 9, 42, 64
13, 32928, Note_on_c, 9, 36, 127
13, 32928, Note_on_c, 9, 46, 127
13, 32976, Note_off_c, 9, 36, 64
13, 32976, Note_off_c, 9, 46, 64
13, 33024, Note_on_c, 9, 36, 127
13, 33024, Note_on_c, 9, 42, 127
13, 33072, Note_off_c, 9, 36, 64
13, 33072, Note_off_c, 9, 42, 64
13, 33120, Note_on_c, 9, 42, 127
13, 33168, Note_off_c, 9, 42, 64
13, 33216, Note_on_c, 9, 38, 127
13, 33216, Note_on_c, 9, 42, 127
13, 33264, Note_off_c, 9, 38, 64
13, 33264, Note_off_c, 9, 42, 64
13, 33312, Note_on_c, 9, 36, 127
13, 33312, Note_on_c, 9, 42, 127
13, 33360, Note_off_c, 9, 36, 64
13, 33360, Note_off_c, 9, 42, 64
13, 33408, Note_on_c, 9, 36, 127
13, 33408, Note_on_c, 9, 42, 127
13, 33456, Note_off_c, 9, 36, 64
13, 33456, Note_off_c, 9, 42, 64
13, 33504, Note_on_c, 9, 42, 127
13, 33552, Note_off_c, 9, 42, 64
13, 33600, Note_on_c, 9, 38, 127
13, 33600, Note_on_c, 9, 42, 127
13, 33648, Note_off_c, 9, 38, 64
13, 33648, Note_off_c, 9, 42, 64
13, 33696, Note_on_c, 9, 36, 127
13, 33696, Note_on_c, 9, 42, 127
13, 33744, Note_off_c, 9, 36, 64
13, 33744, Note_off_c, 9, 42, 64
13, 33792, Note_on_c, 9, 36, 127
13, 33792, Note_on_c, 9, 42, 127
13, 33840, Note_off_c, 9, 36, 64
13, 33840, Note_off_c, 9, 42, 64
13, 33888, Note_on_c, 9, 42, 127
13, 33936, Note_off_c, 9, 42, 64
13, 33984, Note_on_c, 9, 38, 127
13, 33984, Note_on_c, 9, 42, 127
13, 34032, Note_off_c, 9, 38, 64
13, 34032, Note_off_c, 9, 42, 64
13, 34080, Note_on_c, 9, 36, 127
13, 34080, Note_on_c, 9, 42, 127
13, 34128, Note_off_c, 9, 36, 64
13, 34128, Note_off_c, 9, 42, 64
13, 34176, Note_on_c, 9, 36, 127
13, 34176, Note_on_c, 9, 38, 127
13, 34176, Note_on_c, 9, 42, 127
13, 34224, Note_off_c, 9, 36, 64
13, 34224, Note_off_c, 9, 38, 64
13, 34224, Note_off_c, 9, 42, 64
13, 34224, Note_on_c, 9, 38, 127
13, 34272, Note_off_c, 9, 38, 64
13, 34272, Note_on_c, 9, 38, 127
13, 34320, Note_off_c, 9, 38, 64
13, 34320, Note_on_c, 9, 38, 127
13, 34368, Note_off_c, 9, 38, 64
13, 34368, Note_on_c, 9, 47, 127
13, 34416, Note_off_c, 9, 47, 64
13, 34416, Note_on_c, 9, 47, 127
13, 34464, Note_off_c, 9, 47, 64
13, 34464, Note_on_c, 9, 47, 127
13, 34512, Note_off_c, 9, 47, 64
13, 34512, Note_on_c, 9, 47, 127
13, 34560, Note_off_c, 9, 47, 64
13, 34560, Note_on_c, 9, 36, 127
13, 34560, Note_on_c, 9, 42, 127
13, 34560, Note_on_c, 9, 49, 127
13, 34608, Note_off_c, 9, 36, 64
13, 34608, Note_off_c, 9, 42, 64
13, 34608, Note_off_c, 9, 49, 64
13, 34656, Note_on_c, 9, 42, 127
13, 34704, Note_off_c, 9, 42, 64
13, 34752, Note_on_c, 9, 38, 127
13, 34752, Note_on_c, 9, 42, 127
13, 34800, Note_off_c, 9, 38, 64
13, 34800, Note_off_c, 9, 42, 64
13, 34848, Note_on_c, 9, 36, 127
13, 34848, Note_on_c, 9, 42, 127
13, 34896, Note_off_c, 9, 36, 64
13, 34896, Note_off_c, 9, 42, 64
13, 34944, Note_on_c, 9, 36, 127
13, 34944, Note_on_c, 9, 42, 127
13, 34992, Note_off_c, 9, 36, 64
13, 34992, Note_off_c, 9, 42, 64
13, 35040, Note_on_c, 9, 42, 127
13, 35088, Note_off_c, 9, 42, 64
13, 35136, Note_on_c, 9, 38, 127
13, 35136, Note_on_c, 9, 42, 127
13, 35184, Note_off_c, 9, 38, 64
13, 35184, Note_off_c, 9, 42, 64
13, 35232, Note_on_c, 9, 42, 127
13, 35280, Note_off_c, 9, 42, 64
13, 35328, Note_on_c, 9, 36, 127
13, 35328, Note_on_c, 9, 42, 127
13, 35376, Note_off_c, 9, 36, 64
13, 35376, Note_off_c, 9, 42, 64
13, 35424, Note_on_c, 9, 42, 127
13, 35472, Note_off_c, 9, 42, 64
13, 35520, Note_on_c, 9, 38, 127
13, 35520, Note_on_c, 9, 42, 127
13, 35568, Note_off_c, 9, 38, 64
13, 35568, Note_off_c, 9, 42, 64
13, 35616, Note_on_c, 9, 36, 127
13, 35616, Note_on_c, 9, 42, 127
13, 35664, Note_off_c, 9, 36, 64
13, 35664, Note_off_c, 9, 42, 64
13, 35712, Note_on_c, 9, 36, 127
13, 35712, Note_on_c, 9, 42, 127
13, 35760, Note_off_c, 9, 36, 64
13, 35760, Note_off_c, 9, 42, 64
13, 35808, Note_on_c, 9, 38, 127
13, 35856, Note_off_c, 9, 38, 64
13, 35856, Note_on_c, 9, 38, 127
13, 35904, Note_off_c, 9, 38, 64
13, 35904, Note_on_c, 9, 38, 127
13, 35952, Note_off_c, 9, 38, 64
13, 35952, Note_on_c, 9, 38, 127
13, 36000, Note_off_c, 9, 38, 64
13, 36000, Note_on_c, 9, 38, 127
13, 36048, Note_off_c, 9, 38, 64
13, 36048, Note_on_c, 9, 38, 127
13, 36096, Note_off_c, 9, 38, 64
13, 36096, Note_on_c, 9, 36, 127
13, 36096, Note_on_c, 9, 42, 127
13, 36144, Note_off_c, 9, 36, 64
13, 36144, Note_off_c, 9, 42, 64
13, 36192, Note_on_c, 9, 42, 127
13, 36240, Note_off_c, 9, 42, 64
13, 36288, Note_on_c, 9, 38, 127
13, 36288, Note_on_c, 9, 42, 127
13, 36336, Note_off_c, 9, 38, 64
13, 36336, Note_off_c, 9, 42, 64
13, 36384, Note_on_c, 9, 36, 127
13, 36384, Note_on_c, 9, 42, 127
13, 36432, Note_off_c, 9, 36, 64
13, 36432, Note_off_c, 9, 42, 64
13, 36480, Note_on_c, 9, 36, 127
13, 36480, Note_on_c, 9, 38, 127
13, 36480, Note_on_c, 9, 42, 127
13, 36528, Note_off_c, 9, 36, 64
13, 36528, Note_off_c, 9, 38, 64
13, 36528, Note_off_c, 9, 42, 64
13, 36528, Note_on_c, 9, 38, 127
13, 36576, Note_off_c, 9, 38, 64
13, 36576, Note_on_c, 9, 38, 127
13, 36624, Note_off_c, 9, 38, 64
13, 36624, Note_on_c, 9, 38, 127
13, 36672, Note_off_c, 9, 38, 64
13, 36672, Note_on_c, 9, 47, 127
13, 36720, Note_off_c, 9, 47, 64
13, 36720, Note_on_c, 9, 47, 127
13, 36768, Note_off_c, 9, 47, 64
13, 36768, Note_on_c, 9, 47, 127
13, 36816, Note_off_c, 9, 47, 64
13, 36816, Note_on_c, 9, 47, 127
13, 36864, Note_off_c, 9, 47, 64
13, 36864, Note_on_c, 9, 36, 127
13, 36864, Note_on_c, 9, 42, 127
13, 36864, Note_on_c, 9, 49, 127
13, 36912, Note_off_c, 9, 36, 64
13, 36912, Note_off_c, 9, 42, 64
13, 36912, Note_off_c, 9, 49, 64
13, 36960, Note_on_c, 9, 42, 127
13, 37008, Note_off_c, 9, 42, 64
13, 37056, Note_on_c, 9, 38, 127
13, 37056, Note_on_c, 9, 42, 127
13, 37104, Note_off_c, 9, 38, 64
13, 37104, Note_off_c, 9, 42, 64
13, 37152, Note_on_c, 9, 36, 127
13, 37152, Note_on_c, 9, 42, 127
13, 37200, Note_off_c, 9, 36, 64
13, 37200, Note_off_c, 9, 42, 64
13, 37248, Note_on_c, 9, 36, 127
13, 37248, Note_on_c, 9, 42, 127
13, 37296, Note_off_c, 9, 36, 64
13, 37296, Note_off_c, 9, 42, 64
13, 37344, Note_on_c, 9, 42, 127
13, 37392, Note_off_c, 9, 42, 64
13, 37440, Note_on_c, 9, 38, 127
13, 37440, Note_on_c, 9, 42, 127
13, 37488, Note_off_c, 9, 38, 64
13, 37488, Note_off_c, 9, 42, 64
13, 37536, Note_on_c, 9, 36, 127
13, 37536, Note_on_c, 9, 42, 127
13, 37584, Note_off_c, 9, 36, 64
13, 37584, Note_off_c, 9, 42, 64
13, 37632, Note_on_c, 9, 36, 127
13, 37632, Note_on_c, 9, 42, 127
13, 37680, Note_off_c, 9, 36, 64
13, 37680, Note_off_c, 9, 42, 64
13, 37728, Note_on_c, 9, 42, 127
13, 37776, Note_off_c, 9, 42, 64
13, 37824, Note_on_c, 9, 38, 127
13, 37824, Note_on_c, 9, 42, 127
13, 37872, Note_off_c, 9, 38, 64
13, 37872, Note_off_c, 9, 42, 64
13, 37920, Note_on_c, 9, 36, 127
13, 37920, Note_on_c, 9, 42, 127
13, 37968, Note_off_c, 9, 36, 64
13, 37968, Note_off_c, 9, 42, 64
13, 38016, Note_on_c, 9, 36, 127
13, 38016, Note_on_c, 9, 42, 127
13, 38064, Note_off_c, 9, 36, 64
13, 38064, Note_off_c, 9, 42, 64
13, 38112, Note_on_c, 9, 36, 127
13, 38112, Note_on_c, 9, 42, 127
13, 38160, Note_off_c, 9, 36, 64
13, 38160, Note_off_c, 9, 42, 64
13, 38208, Note_on_c, 9, 38, 127
13, 38208, Note_on_c, 9, 42, 127
13, 38256, Note_off_c, 9, 38, 64
13, 38256, Note_off_c, 9, 42, 64
13, 38304, Note_on_c, 9, 36, 127
13, 38304, Note_on_c, 9, 46, 127
13, 38352, Note_off_c, 9, 36, 64
13, 38352, Note_off_c, 9, 46, 64
13, 38400, Note_on_c, 9, 36, 127
13, 38400, Note_on_c, 9, 42, 127
13, 38448, Note_off_c, 9, 36, 64
13, 38448, Note_off_c, 9, 42, 64
13, 38496, Note_on_c, 9, 42, 127
13, 38544, Note_off_c, 9, 42, 64
13, 38592, Note_on_c, 9, 38, 127
13, 38592, Note_on_c, 9, 42, 127
13, 38640, Note_off_c, 9, 38, 64
13, 38640, Note_off_c, 9, 42, 64
13, 38688, Note_on_c, 9, 36, 127
13, 38688, Note_on_c, 9, 42, 127
13, 38736, Note_off_c, 9, 36, 64
13, 38736, Note_off_c, 9, 42, 64
13, 38784, Note_on_c, 9, 36, 127
13, 38784, Note_on_c, 9, 42, 127
13, 38832, Note_off_c, 9, 36, 64
13, 38832, Note_off_c, 9, 42, 64
13, 38880, Note_on_c, 9, 42, 127
13, 38928, Note_off_c, 9, 42, 64
13, 38976, Note_on_c, 9, 38, 127
13, 38976, Note_on_c, 9, 42, 127
13, 39024, Note_off_c, 9, 38, 64
13, 39024, Note_off_c, 9, 42, 64
13, 39072, Note_on_c, 9, 36, 127
13, 39072, Note_on_c, 9, 42, 127
13, 39120, Note_off_c, 9, 36, 64
13, 39120, Note_off_c, 9, 42, 64
13, 39168, Note_on_c, 9, 36, 127
13, 39168, Note_on_c, 9, 42, 127
13, 39216, Note_off_c, 9, 36, 64
13, 39216, Note_off_c, 9, 42, 64
13, 39264, Note_on_c, 9, 42, 127
13, 39312, Note_off_c, 9, 42, 64
13, 39360, Note_on_c, 9, 38, 127
13, 39360, Note_on_c, 9, 42, 127
13, 39408, Note_off_c, 9, 38, 64
13, 39408, Note_off_c, 9, 42, 64
13, 39456, Note_on_c, 9, 36, 127
13, 39456, Note_on_c, 9, 42, 127
13, 39504, Note_off_c, 9, 36, 64
13, 39504, Note_off_c, 9, 42, 64
13, 39552, Note_on_c, 9, 36, 127
13, 39552, Note_on_c, 9, 42, 127
13, 39600, Note_off_c, 9, 36, 64
13, 39600, Note_off_c, 9, 42, 64
13, 39648, Note_on_c, 9, 36, 127
13, 39648, Note_on_c, 9, 42, 127
13, 39696, Note_off_c, 9, 36, 64
13, 39696, Note_off_c, 9, 42, 64
13, 39744, Note_on_c, 9, 38, 127
13, 39744, Note_on_c, 9, 42, 127
13, 39792, Note_off_c, 9, 38, 64
13, 39792, Note_off_c, 9, 42, 64
13, 39840, Note_on_c, 9, 36, 127
13, 39840, Note_on_c, 9, 42, 127
13, 39888, Note_off_c, 9, 36, 64
13, 39888, Note_off_c, 9, 42, 64
13, 39936, Note_on_c, 9, 36, 127
13, 39936, Note_on_c, 9, 42, 127
13, 39984, Note_off_c, 9, 36, 64
13, 39984, Note_off_c, 9, 42, 64
13, 39984, Note_on_c, 9, 42, 127
13, 40032, Note_off_c, 9, 42, 64
13, 40032, Note_on_c, 9, 42, 127
13, 40080, Note_off_c, 9, 42, 64
13, 40128, Note_on_c, 9, 38, 127
13, 40128, Note_on_c, 9, 42, 127
13, 40176, Note_off_c, 9, 38, 64
13, 40176, Note_off_c, 9, 42, 64
13, 40224, Note_on_c, 9, 36, 127
13, 40224, Note_on_c, 9, 42, 127
13, 40272, Note_off_c, 9, 36, 64
13, 40272, Note_off_c, 9, 42, 64
13, 40320, Note_on_c, 9, 36, 127
13, 40320, Note_on_c, 9, 42, 127
13, 40368, Note_off_c, 9, 36, 64
13, 40368, Note_off_c, 9, 42, 64
13, 40416, Note_on_c, 9, 41, 127
13, 40464, Note_off_c, 9, 41, 64
13, 40512, Note_on_c, 9, 38, 127
13, 40512, Note_on_c, 9, 42, 127
13, 40560, Note_off_c, 9, 38, 64
13, 40560, Note_off_c, 9, 42, 64
13, 40608, Note_on_c, 9, 36, 127
13, 40608, Note_on_c, 9, 42, 127
13, 40656, Note_off_c, 9, 36, 64
13, 40656, Note_off_c, 9, 42, 64
13, 40704, Note_on_c, 9, 36, 127
13, 40704, Note_on_c, 9, 42, 127
13, 40752, Note_off_c, 9, 36, 64
13, 40752, Note_off_c, 9, 42, 64
13, 40800, Note_on_c, 9, 42, 127
13, 40848, Note_off_c, 9, 42, 64
13, 40896, Note_on_c, 9, 38, 127
13, 40896, Note_on_c, 9, 42, 127
13, 40944, Note_off_c, 9, 38, 64
13, 40944, Note_off_c, 9, 42, 64
13, 40992, Note_on_c, 9, 36, 127
13, 40992, Note_on_c, 9, 42, 127
13, 41040, Note_off_c, 9, 36, 64
13, 41040, Note_off_c, 9, 42, 64
13, 41088, Note_on_c, 9, 36, 127
13, 41088, Note_on_c, 9, 42, 127
13, 41136, Note_off_c, 9, 36, 64
13, 41136, Note_off_c, 9, 42, 64
13, 41184, Note_on_c, 9, 38, 127
13, 41232, Note_off_c, 9, 38, 64
13, 41232, Note_on_c, 9, 38, 127
13, 41280, Note_off_c, 9, 38, 64
13, 41280, Note_on_c, 9, 38, 127
13, 41328, Note_off_c, 9, 38, 64
13, 41328, Note_on_c, 9, 38, 127
13, 41376, Note_off_c, 9, 38, 64
13, 41376, Note_on_c, 9, 38, 127
13, 41424, Note_off_c, 9, 38, 64
13, 41424, Note_on_c, 9, 38, 127
13, 41472, Note_off_c, 9, 38, 64
13, 41472, Note_on_c, 9, 36, 127
13, 41472, Note_on_c, 9, 42, 127
13, 41472, Note_on_c, 9, 49, 127
13, 41520, Note_off_c, 9, 36, 64
13, 41520, Note_off_c, 9, 42, 64
13, 41520, Note_off_c, 9, 49, 64
13, 41568, Note_on_c, 9, 42, 127
13, 41616, Note_off_c, 9, 42, 64
13, 41664, Note_on_c, 9, 38, 127
13, 41664, Note_on_c, 9, 42, 127
13, 41712, Note_off_c, 9, 38, 64
13, 41712, Note_off_c, 9, 42, 64
13, 41760, Note_on_c, 9, 36, 127
13, 41760, Note_on_c, 9, 42, 127
13, 41808, Note_off_c, 9, 36, 64
13, 41808, Note_off_c, 9, 42, 64
13, 41856, Note_on_c, 9, 36, 127
13, 41856, Note_on_c, 9, 42, 127
13, 41904, Note_off_c, 9, 36, 64
13, 41904, Note_off_c, 9, 42, 64
13, 41952, Note_on_c, 9, 42, 127
13, 42000, Note_off_c, 9, 42, 64
13, 42048, Note_on_c, 9, 38, 127
13, 42048, Note_on_c, 9, 42, 127
13, 42096, Note_off_c, 9, 38, 64
13, 42096, Note_off_c, 9, 42, 64
13, 42144, Note_on_c, 9, 42, 127
13, 42192, Note_off_c, 9, 42, 64
13, 42240, Note_on_c, 9, 38, 127
13, 42240, Note_on_c, 9, 49, 127
13, 42288, Note_off_c, 9, 38, 64
13, 42288, Note_off_c, 9, 49, 64
13, 42336, Note_on_c, 9, 38, 127
13, 42336, Note_on_c, 9, 41, 127
13, 42384, Note_off_c, 9, 38, 64
13, 42384, Note_off_c, 9, 41, 64
13, 42432, Note_on_c, 9, 38, 127
13, 42432, Note_on_c, 9, 41, 127
13, 42480, Note_off_c, 9, 38, 64
13, 42480, Note_off_c, 9, 41, 64
13, 42528, Note_on_c, 9, 38, 127
13, 42528, Note_on_c, 9, 41, 127
13, 42576, Note_off_c, 9, 38, 64
13, 42576, Note_off_c, 9, 41, 64
13, 42624, Note_on_c, 9, 38, 127
13, 42624, Note_on_c, 9, 41, 127
13, 42672, Note_off_c, 9, 38, 64
13, 42672, Note_off_c, 9, 41, 64
13, 42720, Note_on_c, 9, 36, 127
13, 42768, Note_off_c, 9, 36, 64
13, 42816, Note_on_c, 9, 38, 127
13, 42816, Note_on_c, 9, 41, 127
13, 42864, Note_off_c, 9, 38, 64
13, 42864, Note_off_c, 9, 41, 64
13, 42912, Note_on_c, 9, 36, 127
13, 42960, Note_off_c, 9, 36, 64
13, 43008, Note_on_c, 9, 36, 127
13, 43008, Note_on_c, 9, 42, 127
13, 43008, Note_on_c, 9, 49, 127
13, 43056, Note_off_c, 9, 36, 64
13, 43056, Note_off_c, 9, 42, 64
13, 43056, Note_off_c, 9, 49, 64
13, 43104, Note_on_c, 9, 42, 127
13, 43152, Note_off_c, 9, 42, 64
13, 43200, Note_on_c, 9, 38, 127
13, 43200, Note_on_c, 9, 42, 127
13, 43248, Note_off_c, 9, 38, 64
13, 43248, Note_off_c, 9, 42, 64
13, 43296, Note_on_c, 9, 36, 127
13, 43296, Note_on_c, 9, 42, 127
13, 43344, Note_off_c, 9, 36, 64
13, 43344, Note_off_c, 9, 42, 64
13, 43392, Note_on_c, 9, 36, 127
13, 43392, Note_on_c, 9, 42, 127
13, 43440, Note_off_c, 9, 36, 64
13, 43440, Note_off_c, 9, 42, 64
13, 43488, Note_on_c, 9, 42, 127
13, 43536, Note_off_c, 9, 42, 64
13, 43584, Note_on_c, 9, 38, 127
13, 43584, Note_on_c, 9, 42, 127
13, 43632, Note_off_c, 9, 38, 64
13, 43632, Note_off_c, 9, 42, 64
13, 43680, Note_on_c, 9, 36, 127
13, 43680, Note_on_c, 9, 42, 127
13, 43728, Note_off_c, 9, 36, 64
13, 43728, Note_off_c, 9, 42, 64
13, 43776, Note_on_c, 9, 36, 127
13, 43776, Note_on_c, 9, 42, 127
13, 43824, Note_off_c, 9, 36, 64
13, 43824, Note_off_c, 9, 42, 64
13, 43872, Note_on_c, 9, 42, 127
13, 43920, Note_off_c, 9, 42, 64
13, 43968, Note_on_c, 9, 38, 127
13, 43968, Note_on_c, 9, 42, 127
13, 44016, Note_off_c, 9, 38, 64
13, 44016, Note_off_c, 9, 42, 64
13, 44064, Note_on_c, 9, 36, 127
13, 44064, Note_on_c, 9, 42, 127
13, 44112, Note_off_c, 9, 36, 64
13, 44112, Note_off_c, 9, 42, 64
13, 44160, Note_on_c, 9, 36, 127
13, 44160, Note_on_c, 9, 42, 127
13, 44208, Note_off_c, 9, 36, 64
13, 44208, Note_off_c, 9, 42, 64
13, 44256, Note_on_c, 9, 38, 127
13, 44304, Note_off_c, 9, 38, 64
13, 44304, Note_on_c, 9, 38, 127
13, 44352, Note_off_c, 9, 38, 64
13, 44352, Note_on_c, 9, 38, 127
13, 44400, Note_off_c, 9, 38, 64
13, 44400, Note_on_c, 9, 38, 127
13, 44448, Note_off_c, 9, 38, 64
13, 44448, Note_on_c, 9, 38, 127
13, 44496, Note_off_c, 9, 38, 64
13, 44496, Note_on_c, 9, 38, 127
13, 44544, Note_off_c, 9, 38, 64
13, 44544, Note_on_c, 9, 36, 127
13, 44544, Note_on_c, 9, 42, 127
13, 44544, Note_on_c, 9, 49, 127
13, 44592, Note_off_c, 9, 36, 64
13, 44592, Note_off_c, 9, 42, 64
13, 44592, Note_off_c, 9, 49, 64
13, 44640, Note_on_c, 9, 42, 127
13, 44688, Note_off_c, 9, 42, 64
13, 44736, Note_on_c, 9, 38, 127
13, 44736, Note_on_c, 9, 42, 127
13, 44784, Note_off_c, 9, 38, 64
13, 44784, Note_off_c, 9, 42, 64
13, 44832, Note_on_c, 9, 36, 127
13, 44832, Note_on_c, 9, 42, 127
13, 44880, Note_off_c, 9, 36, 64
13, 44880, Note_off_c, 9, 42, 64
13, 44928, Note_on_c, 9, 36, 127
13, 44928, Note_on_c, 9, 42, 127
13, 44976, Note_off_c, 9, 36, 64
13, 44976, Note_off_c, 9, 42, 64
13, 45024, Note_on_c, 9, 42, 127
13, 45072, Note_off_c, 9, 42, 64
13, 45120, Note_on_c, 9, 38, 127
13, 45120, Note_on_c, 9, 42, 127
13, 45168, Note_off_c, 9, 38, 64
13, 45168, Note_off_c, 9, 42, 64
13, 45216, Note_on_c, 9, 36, 127
13, 45216, Note_on_c, 9, 42, 127
13, 45264, Note_off_c, 9, 36, 64
13, 45264, Note_off_c, 9, 42, 64
13, 45312, Note_on_c, 9, 36, 127
13, 45312, Note_on_c, 9, 42, 127
13, 45360, Note_off_c, 9, 36, 64
13, 45360, Note_off_c, 9, 42, 64
13, 45408, Note_on_c, 9, 42, 127
13, 45456, Note_off_c, 9, 42, 64
13, 45504, Note_on_c, 9, 38, 127
13, 45504, Note_on_c, 9, 42, 127
13, 45552, Note_off_c, 9, 38, 64
13, 45552, Note_off_c, 9, 42, 64
13, 45600, Note_on_c, 9, 36, 127
13, 45600, Note_on_c, 9, 42, 127
13, 45648, Note_off_c, 9, 36, 64
13, 45648, Note_off_c, 9, 42, 64
13, 45696, Note_on_c, 9, 36, 127
13, 45696, Note_on_c, 9, 42, 127
13, 45744, Note_off_c, 9, 36, 64
13, 45744, Note_off_c, 9, 42, 64
13, 45792, Note_on_c, 9, 36, 127
13, 45792, Note_on_c, 9, 42, 127
13, 45840, Note_off_c, 9, 36, 64
13, 45840, Note_off_c, 9, 42, 64
13, 45888, Note_on_c, 9, 38, 127
13, 45888, Note_on_c, 9, 42, 127
13, 45936, Note_off_c, 9, 38, 64
13, 45936, Note_off_c, 9, 42, 64
13, 45984, Note_on_c, 9, 36, 127
13, 45984, Note_on_c, 9, 42, 127
13, 46032, Note_off_c, 9, 36, 64
13, 46032, Note_off_c, 9, 42, 64
13, 46080, Note_on_c, 9, 36, 127
13, 46080, Note_on_c, 9, 42, 127
13, 46128, Note_off_c, 9, 36, 64
13, 46128, Note_off_c, 9, 42, 64
13, 46176, Note_on_c, 9, 42, 127
13, 46224, Note_off_c, 9, 42, 64
13, 46272, Note_on_c, 9, 38, 127
13, 46272, Note_on_c, 9, 42, 127
13, 46320, Note_off_c, 9, 38, 64
13, 46320, Note_off_c, 9, 42, 64
13, 46368, Note_on_c, 9, 36, 127
13, 46368, Note_on_c, 9, 42, 127
13, 46416, Note_off_c, 9, 36, 64
13, 46416, Note_off_c, 9, 42, 64
13, 46464, Note_on_c, 9, 36, 127
13, 46464, Note_on_c, 9, 42, 127
13, 46512, Note_off_c, 9, 36, 64
13, 46512, Note_off_c, 9, 42, 64
13, 46560, Note_on_c, 9, 42, 127
13, 46608, Note_off_c, 9, 42, 64
13, 46656, Note_on_c, 9, 38, 127
13, 46656, Note_on_c, 9, 42, 127
13, 46704, Note_off_c, 9, 38, 64
13, 46704, Note_off_c, 9, 42, 64
13, 46752, Note_on_c, 9, 36, 127
13, 46752, Note_on_c, 9, 42, 127
13, 46800, Note_off_c, 9, 36, 64
13, 46800, Note_off_c, 9, 42, 64
13, 46848, Note_on_c, 9, 36, 127
13, 46848, Note_on_c, 9, 42, 127
13, 46896, Note_off_c, 9, 36, 64
13, 46896, Note_off_c, 9, 42, 64
13, 46944, Note_on_c, 9, 42, 127
13, 46992, Note_off_c, 9, 42, 64
13, 47040, Note_on_c, 9, 38, 127
13, 47040, Note_on_c, 9, 42, 127
13, 47088, Note_off_c, 9, 38, 64
13, 47088, Note_off_c, 9, 42, 64
13, 47136, Note_on_c, 9, 36, 127
13, 47136, Note_on_c, 9, 42, 127
13, 47184, Note_off_c, 9, 36, 64
13, 47184, Note_off_c, 9, 42, 64
13, 47232, Note_on_c, 9, 36, 127
13, 47232, Note_on_c, 9, 42, 127
13, 47280, Note_off_c, 9, 36, 64
13, 47280, Note_off_c, 9, 42, 64
13, 47328, Note_on_c, 9, 36, 127
13, 47328, Note_on_c, 9, 42, 127
13, 47376, Note_off_c, 9, 36, 64
13, 47376, Note_off_c, 9, 42, 64
13, 47424, Note_on_c, 9, 38, 127
13, 47424, Note_on_c, 9, 42, 127
13, 47472, Note_off_c, 9, 38, 64
13, 47472, Note_off_c, 9, 42, 64
13, 47520, Note_on_c, 9, 36, 127
13, 47520, Note_on_c, 9, 42, 127
13, 47568, Note_off_c, 9, 36, 64
13, 47568, Note_off_c, 9, 42, 64
13, 47616, Note_on_c, 9, 36, 127
13, 47616, Note_on_c, 9, 42, 127
13, 47664, Note_off_c, 9, 36, 64
13, 47664, Note_off_c, 9, 42, 64
13, 47664, Note_on_c, 9, 42, 127
13, 47712, Note_off_c, 9, 42, 64
13, 47712, Note_on_c, 9, 42, 127
13, 47760, Note_off_c, 9, 42, 64
13, 47808, Note_on_c, 9, 38, 127
13, 47808, Note_on_c, 9, 42, 127
13, 47856, Note_off_c, 9, 38, 64
13, 47856, Note_off_c, 9, 42, 64
13, 47904, Note_on_c, 9, 36, 127
13, 47904, Note_on_c, 9, 42, 127
13, 47952, Note_off_c, 9, 36, 64
13, 47952, Note_off_c, 9, 42, 64
13, 48000, Note_on_c, 9, 36, 127
13, 48000, Note_on_c, 9, 42, 127
13, 48048, Note_off_c, 9, 36, 64
13, 48048, Note_off_c, 9, 42, 64
13, 48096, Note_on_c, 9, 42, 127
13, 48144, Note_off_c, 9, 42, 64
13, 48192, Note_on_c, 9, 38, 127
13, 48192, Note_on_c, 9, 42, 127
13, 48240, Note_off_c, 9, 38, 64
13, 48240, Note_off_c, 9, 42, 64
13, 48288, Note_on_c, 9, 36, 127
13, 48288, Note_on_c, 9, 42, 127
13, 48336, Note_off_c, 9, 36, 64
13, 48336, Note_off_c, 9, 42, 64
13, 48384, Note_on_c, 9, 36, 127
13, 48384, Note_on_c, 9, 42, 127
13, 48432, Note_off_c, 9, 36, 64
13, 48432, Note_off_c, 9, 42, 64
13, 48480, Note_on_c, 9, 42, 127
13, 48528, Note_off_c, 9, 42, 64
13, 48576, Note_on_c, 9, 38, 127
13, 48576, Note_on_c, 9, 42, 127
13, 48624, Note_off_c, 9, 38, 64
13, 48624, Note_off_c, 9, 42, 64
13, 48672, Note_on_c, 9, 36, 127
13, 48672, Note_on_c, 9, 42, 127
13, 48720, Note_off_c, 9, 36, 64
13, 48720, Note_off_c, 9, 42, 64
13, 48768, Note_on_c, 9, 36, 127
13, 48768, Note_on_c, 9, 42, 127
13, 48816, Note_off_c, 9, 36, 64
13, 48816, Note_off_c, 9, 42, 64
13, 48864, Note_on_c, 9, 36, 127
13, 48864, Note_on_c, 9, 42, 127
13, 48912, Note_off_c, 9, 36, 64
13, 48912, Note_off_c, 9, 42, 64
13, 48960, Note_on_c, 9, 38, 127
13, 48960, Note_on_c, 9, 42, 127
13, 49008, Note_off_c, 9, 38, 64
13, 49008, Note_off_c, 9, 42, 64
13, 49056, Note_on_c, 9, 36, 127
13, 49056, Note_on_c, 9, 42, 127
13, 49104, Note_off_c, 9, 36, 64
13, 49104, Note_off_c, 9, 42, 64
13, 49152, Note_on_c, 9, 36, 127
13, 49152, Note_on_c, 9, 42, 127
13, 49200, Note_off_c, 9, 36, 64
13, 49200, Note_off_c, 9, 42, 64
13, 49200, Note_on_c, 9, 42, 127
13, 49248, Note_off_c, 9, 42, 64
13, 49248, Note_on_c, 9, 42, 127
13, 49296, Note_off_c, 9, 42, 64
13, 49344, Note_on_c, 9, 38, 127
13, 49344, Note_on_c, 9, 42, 127
13, 49392, Note_off_c, 9, 38, 64
13, 49392, Note_off_c, 9, 42, 64
13, 49440, Note_on_c, 9, 36, 127
13, 49440, Note_on_c, 9, 42, 127
13, 49488, Note_off_c, 9, 36, 64
13, 49488, Note_off_c, 9, 42, 64
13, 49536, Note_on_c, 9, 36, 127
13, 49536, Note_on_c, 9, 42, 127
13, 49584, Note_off_c, 9, 36, 64
13, 49584, Note_off_c, 9, 42, 64
13, 49632, Note_on_c, 9, 42, 127
13, 49680, Note_off_c, 9, 42, 64
13, 49728, Note_on_c, 9, 38, 127
13, 49728, Note_on_c, 9, 42, 127
13, 49776, Note_off_c, 9, 38, 64
13, 49776, Note_off_c, 9, 42, 64
13, 49824, Note_on_c, 9, 36, 127
13, 49824, Note_on_c, 9, 42, 127
13, 49872, Note_off_c, 9, 36, 64
13, 49872, Note_off_c, 9, 42, 64
13, 49920, Note_on_c, 9, 36, 127
13, 49920, Note_on_c, 9, 42, 127
13, 49968, Note_off_c, 9, 36, 64
13, 49968, Note_off_c, 9, 42, 64
13, 50016, Note_on_c, 9, 42, 127
13, 50064, Note_off_c, 9, 42, 64
13, 50112, Note_on_c, 9, 38, 127
13, 50112, Note_on_c, 9, 42, 127
13, 50160, Note_off_c, 9, 38, 64
13, 50160, Note_off_c, 9, 42, 64
13, 50208, Note_on_c, 9, 36, 127
13, 50208, Note_on_c, 9, 42, 127
13, 50256, Note_off_c, 9, 36, 64
13, 50256, Note_off_c, 9, 42, 64
13, 50304, Note_on_c, 9, 36, 127
13, 50304, Note_on_c, 9, 42, 127
13, 50352, Note_off_c, 9, 36, 64
13, 50352, Note_off_c, 9, 42, 64
13, 50400, Note_on_c, 9, 36, 127
13, 50400, Note_on_c, 9, 42, 127
13, 50448, Note_off_c, 9, 36, 64
13, 50448, Note_off_c, 9, 42, 64
13, 50496, Note_on_c, 9, 38, 127
13, 50496, Note_on_c, 9, 42, 127
13, 50544, Note_off_c, 9, 38, 64
13, 50544, Note_off_c, 9, 42, 64
13, 50592, Note_on_c, 9, 36, 127
13, 50592, Note_on_c, 9, 46, 127
13, 50640, Note_off_c, 9, 36, 64
13, 50640, Note_off_c, 9, 46, 64
13, 50688, Note_on_c, 9, 36, 127
13, 50688, Note_on_c, 9, 42, 127
13, 50736, Note_off_c, 9, 36, 64
13, 50736, Note_off_c, 9, 42, 64
13, 50784, Note_on_c, 9, 42, 127
13, 50832, Note_off_c, 9, 42, 64
13, 50880, Note_on_c, 9, 38, 127
13, 50880, Note_on_c, 9, 42, 127
13, 50928, Note_off_c, 9, 38, 64
13, 50928, Note_off_c, 9, 42, 64
13, 50976, Note_on_c, 9, 36, 127
13, 50976, Note_on_c, 9, 42, 127
13, 51024, Note_off_c, 9, 36, 64
13, 51024, Note_off_c, 9, 42, 64
13, 51072, Note_on_c, 9, 36, 127
13, 51072, Note_on_c, 9, 42, 127
13, 51120, Note_off_c, 9, 36, 64
13, 51120, Note_off_c, 9, 42, 64
13, 51168, Note_on_c, 9, 42, 127
13, 51216, Note_off_c, 9, 42, 64
13, 51264, Note_on_c, 9, 38, 127
13, 51264, Note_on_c, 9, 42, 127
13, 51312, Note_off_c, 9, 38, 64
13, 51312, Note_off_c, 9, 42, 64
13, 51360, Note_on_c, 9, 36, 127
13, 51360, Note_on_c, 9, 42, 127
13, 51408, Note_off_c, 9, 36, 64
13, 51408, Note_off_c, 9, 42, 64
13, 51456, Note_on_c, 9, 36, 127
13, 51456, Note_on_c, 9, 42, 127
13, 51504, Note_off_c, 9, 36, 64
13, 51504, Note_off_c, 9, 42, 64
13, 51552, Note_on_c, 9, 42, 127
13, 51600, Note_off_c, 9, 42, 64
13, 51648, Note_on_c, 9, 38, 127
13, 51648, Note_on_c, 9, 42, 127
13, 51696, Note_off_c, 9, 38, 64
13, 51696, Note_off_c, 9, 42, 64
13, 51744, Note_on_c, 9, 36, 127
13, 51744, Note_on_c, 9, 42, 127
13, 51792, Note_off_c, 9, 36, 64
13, 51792, Note_off_c, 9, 42, 64
13, 51840, Note_on_c, 9, 36, 127
13, 51840, Note_on_c, 9, 42, 127
13, 51888, Note_off_c, 9, 36, 64
13, 51888, Note_off_c, 9, 42, 64
13, 51936, Note_on_c, 9, 36, 127
13, 51936, Note_on_c, 9, 42, 127
13, 51984, Note_off_c, 9, 36, 64
13, 51984, Note_off_c, 9, 42, 64
13, 52032, Note_on_c, 9, 38, 127
13, 52032, Note_on_c, 9, 42, 127
13, 52080, Note_off_c, 9, 38, 64
13, 52080, Note_off_c, 9, 42, 64
13, 52128, Note_on_c, 9, 36, 127
13, 52128, Note_on_c, 9, 46, 127
13, 52176, Note_off_c, 9, 36, 64
13, 52176, Note_off_c, 9, 46, 64
13, 52224, Note_on_c, 9, 36, 127
13, 52224, Note_on_c, 9, 42, 127
13, 52272, Note_off_c, 9, 36, 64
13, 52272, Note_off_c, 9, 42, 64
13, 52320, Note_on_c, 9, 42, 127
13, 52368, Note_off_c, 9, 42, 64
13, 52416, Note_on_c, 9, 38, 127
13, 52416, Note_on_c, 9, 42, 127
13, 52464, Note_off_c, 9, 38, 64
13, 52464, Note_off_c, 9, 42, 64
13, 52512, Note_on_c, 9, 36, 127
13, 52512, Note_on_c, 9, 42, 127
13, 52560, Note_off_c, 9, 36, 64
13, 52560, Note_off_c, 9, 42, 64
13, 52608, Note_on_c, 9, 36, 127
13, 52608, Note_on_c, 9, 42, 127
13, 52656, Note_off_c, 9, 36, 64
13, 52656, Note_off_c, 9, 42, 64
13, 52704, Note_on_c, 9, 42, 127
13, 52752, Note_off_c, 9, 42, 64
13, 52800, Note_on_c, 9, 38, 127
13, 52800, Note_on_c, 9, 42, 127
13, 52848, Note_off_c, 9, 38, 64
13, 52848, Note_off_c, 9, 42, 64
13, 52896, Note_on_c, 9, 36, 127
13, 52896, Note_on_c, 9, 42, 127
13, 52944, Note_off_c, 9, 36, 64
13, 52944, Note_off_c, 9, 42, 64
13, 52992, Note_on_c, 9, 36, 127
13, 52992, Note_on_c, 9, 42, 127
13, 53040, Note_off_c, 9, 36, 64
13, 53040, Note_off_c, 9, 42, 64
13, 53088, Note_on_c, 9, 42, 127
13, 53136, Note_off_c, 9, 42, 64
13, 53136, Note_on_c, 9, 42, 127
13, 53184, Note_off_c, 9, 42, 64
13, 53184, Note_on_c, 9, 38, 127
13, 53184, Note_on_c, 9, 46, 127
13, 53232, Note_off_c, 9, 38, 64
13, 53232, Note_off_c, 9, 46, 64
13, 53280, Note_on_c, 9, 36, 127
13, 53280, Note_on_c, 9, 47, 127
13, 53328, Note_off_c, 9, 36, 64
13, 53328, Note_off_c, 9, 47, 64
13, 53376, Note_on_c, 9, 36, 127
13, 53376, Note_on_c, 9, 50, 127
13, 53424, Note_off_c, 9, 36, 64
13, 53424, Note_off_c, 9, 50, 64
13, 53472, Note_on_c, 9, 47, 127
13, 53520, Note_off_c, 9, 47, 64
13, 53568, Note_on_c, 9, 42, 127
13, 53568, Note_on_c, 9, 47, 127
13, 53616, Note_off_c, 9, 42, 64
13, 53616, Note_off_c, 9, 47, 64
13, 53664, Note_on_c, 9, 46, 127
13, 53664, Note_on_c, 9, 41, 127
13, 53712, Note_off_c, 9, 46, 64
13, 53712, Note_off_c, 9, 41, 64
13, 53760, Note_on_c, 9, 36, 127
13, 53760, Note_on_c, 9, 42, 127
13, 53760, Note_on_c, 9, 49, 127
13, 53808, Note_off_c, 9, 36, 64
13, 53808, Note_off_c, 9, 42, 64
13, 53808, Note_off_c, 9, 49, 64
13, 53856, Note_on_c, 9, 42, 127
13, 53904, Note_off_c, 9, 42, 64
13, 53952, Note_on_c, 9, 38, 127
13, 53952, Note_on_c, 9, 42, 127
13, 54000, Note_off_c, 9, 38, 64
13, 54000, Note_off_c, 9, 42, 64
13, 54048, Note_on_c, 9, 36, 127
13, 54048, Note_on_c, 9, 42, 127
13, 54096, Note_off_c, 9, 36, 64
13, 54096, Note_off_c, 9, 42, 64
13, 54144, Note_on_c, 9, 36, 127
13, 54144, Note_on_c, 9, 42, 127
13, 54192, Note_off_c, 9, 36, 64
13, 54192, Note_off_c, 9, 42, 64
13, 54240, Note_on_c, 9, 42, 127
13, 54288, Note_off_c, 9, 42, 64
13, 54336, Note_on_c, 9, 38, 127
13, 54336, Note_on_c, 9, 42, 127
13, 54384, Note_off_c, 9, 38, 64
13, 54384, Note_off_c, 9, 42, 64
13, 54432, Note_on_c, 9, 36, 127
13, 54432, Note_on_c, 9, 42, 127
13, 54480, Note_off_c, 9, 36, 64
13, 54480, Note_off_c, 9, 42, 64
13, 54528, Note_on_c, 9, 36, 127
13, 54528, Note_on_c, 9, 42, 127
13, 54576, Note_off_c, 9, 36, 64
13, 54576, Note_off_c, 9, 42, 64
13, 54624, Note_on_c, 9, 42, 127
13, 54672, Note_off_c, 9, 42, 64
13, 54720, Note_on_c, 9, 38, 127
13, 54720, Note_on_c, 9, 42, 127
13, 54768, Note_off_c, 9, 38, 64
13, 54768, Note_off_c, 9, 42, 64
13, 54816, Note_on_c, 9, 36, 127
13, 54816, Note_on_c, 9, 42, 127
13, 54864, Note_off_c, 9, 36, 64
13, 54864, Note_off_c, 9, 42, 64
13, 54912, Note_on_c, 9, 36, 127
13, 54912, Note_on_c, 9, 42, 127
13, 54960, Note_off_c, 9, 36, 64
13, 54960, Note_off_c, 9, 42, 64
13, 55008, Note_on_c, 9, 36, 127
13, 55008, Note_on_c, 9, 42, 127
13, 55056, Note_off_c, 9, 36, 64
13, 55056, Note_off_c, 9, 42, 64
13, 55104, Note_on_c, 9, 38, 127
13, 55104, Note_on_c, 9, 42, 127
13, 55152, Note_off_c, 9, 38, 64
13, 55152, Note_off_c, 9, 42, 64
13, 55200, Note_on_c, 9, 36, 127
13, 55200, Note_on_c, 9, 42, 127
13, 55248, Note_off_c, 9, 36, 64
13, 55248, Note_off_c, 9, 42, 64
13, 55296, Note_on_c, 9, 36, 127
13, 55296, Note_on_c, 9, 42, 127
13, 55344, Note_off_c, 9, 36, 64
13, 55344, Note_off_c, 9, 42, 64
13, 55392, Note_on_c, 9, 42, 127
13, 55440, Note_off_c, 9, 42, 64
13, 55488, Note_on_c, 9, 38, 127
13, 55488, Note_on_c, 9, 42, 127
13, 55536, Note_off_c, 9, 38, 64
13, 55536, Note_off_c, 9, 42, 64
13, 55584, Note_on_c, 9, 36, 127
13, 55584, Note_on_c, 9, 42, 127
13, 55632, Note_off_c, 9, 36, 64
13, 55632, Note_off_c, 9, 42, 64
13, 55680, Note_on_c, 9, 36, 127
13, 55680, Note_on_c, 9, 42, 127
13, 55728, Note_off_c, 9, 36, 64
13, 55728, Note_off_c, 9, 42, 64
13, 55776, Note_on_c, 9, 42, 127
13, 55824, Note_off_c, 9, 42, 64
13, 55872, Note_on_c, 9, 38, 127
13, 55872, Note_on_c, 9, 42, 127
13, 55920, Note_off_c, 9, 38, 64
13, 55920, Note_off_c, 9, 42, 64
13, 55968, Note_on_c, 9, 36, 127
13, 55968, Note_on_c, 9, 42, 127
13, 56016, Note_off_c, 9, 36, 64
13, 56016, Note_off_c, 9, 42, 64
13, 56064, Note_on_c, 9, 36, 127
13, 56064, Note_on_c, 9, 42, 127
13, 56112, Note_off_c, 9, 36, 64
13, 56112, Note_off_c, 9, 42, 64
13, 56160, Note_on_c, 9, 42, 127
13, 56208, Note_off_c, 9, 42, 64
13, 56256, Note_on_c, 9, 38, 127
13, 56256, Note_on_c, 9, 42, 127
13, 56304, Note_off_c, 9, 38, 64
13, 56304, Note_off_c, 9, 42, 64
13, 56352, Note_on_c, 9, 36, 127
13, 56352, Note_on_c, 9, 42, 127
13, 56400, Note_off_c, 9, 36, 64
13, 56400, Note_off_c, 9, 42, 64
13, 56448, Note_on_c, 9, 36, 127
13, 56448, Note_on_c, 9, 42, 127
13, 56496, Note_off_c, 9, 36, 64
13, 56496, Note_off_c, 9, 42, 64
13, 56544, Note_on_c, 9, 36, 127
13, 56544, Note_on_c, 9, 42, 127
13, 56592, Note_off_c, 9, 36, 64
13, 56592, Note_off_c, 9, 42, 64
13, 56640, Note_on_c, 9, 38, 127
13, 56640, Note_on_c, 9, 42, 127
13, 56688, Note_off_c, 9, 38, 64
13, 56688, Note_off_c, 9, 42, 64
13, 56736, Note_on_c, 9, 36, 127
13, 56736, Note_on_c, 9, 42, 127
13, 56784, Note_off_c, 9, 36, 64
13, 56784, Note_off_c, 9, 42, 64
13, 56832, Note_on_c, 9, 36, 127
13, 56832, Note_on_c, 9, 42, 127
13, 56880, Note_off_c, 9, 36, 64
13, 56880, Note_off_c, 9, 42, 64
13, 56880, Note_on_c, 9, 42, 127
13, 56928, Note_off_c, 9, 42, 64
13, 56928, Note_on_c, 9, 42, 127
13, 56976, Note_off_c, 9, 42, 64
13, 57024, Note_on_c, 9, 38, 127
13, 57024, Note_on_c, 9, 42, 127
13, 57072, Note_off_c, 9, 38, 64
13, 57072, Note_off_c, 9, 42, 64
13, 57120, Note_on_c, 9, 36, 127
13, 57120, Note_on_c, 9, 42, 127
13, 57168, Note_off_c, 9, 36, 64
13, 57168, Note_off_c, 9, 42, 64
13, 57216, Note_on_c, 9, 36, 127
13, 57216, Note_on_c, 9, 42, 127
13, 57264, Note_off_c, 9, 36, 64
13, 57264, Note_off_c, 9, 42, 64
13, 57312, Note_on_c, 9, 42, 127
13, 57360, Note_off_c, 9, 42, 64
13, 57408, Note_on_c, 9, 38, 127
13, 57408, Note_on_c, 9, 42, 127
13, 57456, Note_off_c, 9, 38, 64
13, 57456, Note_off_c, 9, 42, 64
13, 57504, Note_on_c, 9, 36, 127
13, 57504, Note_on_c, 9, 42, 127
13, 57552, Note_off_c, 9, 36, 64
13, 57552, Note_off_c, 9, 42, 64
13, 57600, Note_on_c, 9, 36, 127
13, 57600, Note_on_c, 9, 42, 127
13, 57648, Note_off_c, 9, 36, 64
13, 57648, Note_off_c, 9, 42, 64
13, 57696, Note_on_c, 9, 42, 127
13, 57744, Note_off_c, 9, 42, 64
13, 57792, Note_on_c, 9, 38, 127
13, 57792, Note_on_c, 9, 42, 127
13, 57840, Note_off_c, 9, 38, 64
13, 57840, Note_off_c, 9, 42, 64
13, 57888, Note_on_c, 9, 36, 127
13, 57888, Note_on_c, 9, 42, 127
13, 57936, Note_off_c, 9, 36, 64
13, 57936, Note_off_c, 9, 42, 64
13, 57984, Note_on_c, 9, 36, 127
13, 57984, Note_on_c, 9, 42, 127
13, 58032, Note_off_c, 9, 36, 64
13, 58032, Note_off_c, 9, 42, 64
13, 58080, Note_on_c, 9, 36, 127
13, 58080, Note_on_c, 9, 42, 127
13, 58128, Note_off_c, 9, 36, 64
13, 58128, Note_off_c, 9, 42, 64
13, 58176, Note_on_c, 9, 38, 127
13, 58176, Note_on_c, 9, 42, 127
13, 58224, Note_off_c, 9, 38, 64
13, 58224, Note_off_c, 9, 42, 64
13, 58272, Note_on_c, 9, 36, 127
13, 58272, Note_on_c, 9, 46, 127
13, 58320, Note_off_c, 9, 36, 64
13, 58320, Note_off_c, 9, 46, 64
13, 58368, Note_on_c, 9, 36, 127
13, 58368, Note_on_c, 9, 42, 127
13, 58416, Note_off_c, 9, 36, 64
13, 58416, Note_off_c, 9, 42, 64
13, 58464, Note_on_c, 9, 42, 127
13, 58512, Note_off_c, 9, 42, 64
13, 58560, Note_on_c, 9, 38, 127
13, 58560, Note_on_c, 9, 42, 127
13, 58608, Note_off_c, 9, 38, 64
13, 58608, Note_off_c, 9, 42, 64
13, 58656, Note_on_c, 9, 36, 127
13, 58656, Note_on_c, 9, 42, 127
13, 58704, Note_off_c, 9, 36, 64
13, 58704, Note_off_c, 9, 42, 64
13, 58752, Note_on_c, 9, 42, 127
13, 58752, Note_on_c, 9, 36, 127
13, 58800, Note_off_c, 9, 42, 64
13, 58800, Note_off_c, 9, 36, 64
13, 58848, Note_on_c, 9, 42, 127
13, 58896, Note_off_c, 9, 42, 64
13, 58944, Note_on_c, 9, 42, 127
13, 58944, Note_on_c, 9, 38, 127
13, 58992, Note_off_c, 9, 42, 64
13, 58992, Note_off_c, 9, 38, 64
13, 59040, Note_on_c, 9, 42, 127
13, 59040, Note_on_c, 9, 36, 127
13, 59088, Note_off_c, 9, 42, 64
13, 59088, Note_off_c, 9, 36, 64
13, 59136, Note_on_c, 9, 36, 127
13, 59136, Note_on_c, 9, 42, 127
13, 59184, Note_off_c, 9, 36, 64
13, 59184, Note_off_c, 9, 42, 64
13, 59232, Note_on_c, 9, 42, 127
13, 59280, Note_off_c, 9, 42, 64
13, 59616, Note_on_c, 9, 43, 106
13, 59662, Note_off_c, 9, 43, 64
13, 59664, Note_on_c, 9, 41, 113
13, 59702, Note_off_c, 9, 41, 64
13, 59712, Note_on_c, 9, 36, 123
13, 59902, Note_off_c, 9, 36, 64
13, 59902, End_track
14, 0, Start_track
14, 0, MIDI_port, 1
14, 0, Title_t, "chorused piano2     "
14, 0, Program_c, 13, 4
14, 0, Control_c, 13, 7, 120
14, 0, Control_c, 13, 64, 0
14, 1632, Note_on_c, 13, 65, 95
14, 1632, Note_on_c, 13, 60, 95
14, 1632, Note_on_c, 13, 57, 95
14, 1840, Note_off_c, 13, 65, 64
14, 1840, Note_off_c, 13, 60, 64
14, 1840, Note_off_c, 13, 57, 64
14, 1920, Note_on_c, 13, 63, 82
14, 1920, Note_on_c, 13, 58, 82
14, 1920, Note_on_c, 13, 55, 82
14, 2112, Note_off_c, 13, 63, 64
14, 2112, Note_off_c, 13, 58, 64
14, 2112, Note_off_c, 13, 55, 64
14, 2112, Note_on_c, 13, 65, 82
14, 2112, Note_on_c, 13, 62, 82
14, 2112, Note_on_c, 13, 59, 82
14, 2112, Note_on_c, 13, 67, 82
14, 2304, Note_off_c, 13, 65, 64
14, 2304, Note_off_c, 13, 62, 64
14, 2304, Note_off_c, 13, 59, 64
14, 2304, Note_off_c, 13, 67, 64
14, 2400, Note_on_c, 13, 64, 82
14, 2400, Note_on_c, 13, 60, 82
14, 2400, Note_on_c, 13, 55, 82
14, 2473, Note_off_c, 13, 64, 64
14, 2473, Note_off_c, 13, 60, 64
14, 2473, Note_off_c, 13, 55, 64
14, 2592, Note_on_c, 13, 48, 68
14, 2688, Note_on_c, 13, 64, 80
14, 2688, Note_on_c, 13, 60, 80
14, 2688, Note_on_c, 13, 55, 80
14, 2704, Note_off_c, 13, 48, 64
14, 2800, Note_off_c, 13, 64, 64
14, 2800, Note_off_c, 13, 60, 64
14, 2800, Note_off_c, 13, 55, 64
14, 2880, Note_on_c, 13, 64, 82
14, 2880, Note_on_c, 13, 60, 82
14, 2880, Note_on_c, 13, 55, 82
14, 2940, Note_off_c, 13, 64, 64
14, 2940, Note_off_c, 13, 60, 64
14, 2940, Note_off_c, 13, 55, 64
14, 3072, Note_on_c, 13, 64, 87
14, 3072, Note_on_c, 13, 62, 87
14, 3072, Note_on_c, 13, 59, 87
14, 3072, Note_on_c, 13, 67, 87
14, 3139, Note_off_c, 13, 64, 64
14, 3139, Note_off_c, 13, 62, 64
14, 3139, Note_off_c, 13, 59, 64
14, 3139, Note_off_c, 13, 67, 64
14, 3168, Note_on_c, 13, 64, 82
14, 3168, Note_on_c, 13, 62, 82
14, 3168, Note_on_c, 13, 59, 82
14, 3168, Note_on_c, 13, 67, 82
14, 3222, Note_off_c, 13, 64, 64
14, 3222, Note_off_c, 13, 62, 64
14, 3222, Note_off_c, 13, 59, 64
14, 3222, Note_off_c, 13, 67, 64
14, 3360, Note_on_c, 13, 64, 82
14, 3360, Note_on_c, 13, 62, 82
14, 3360, Note_on_c, 13, 59, 82
14, 3360, Note_on_c, 13, 67, 82
14, 3662, Note_off_c, 13, 64, 64
14, 3662, Note_off_c, 13, 62, 64
14, 3662, Note_off_c, 13, 59, 64
14, 3662, Note_off_c, 13, 67, 64
14, 3840, Note_on_c, 13, 64, 89
14, 3840, Note_on_c, 13, 60, 89
14, 3840, Note_on_c, 13, 58, 89
14, 3840, Note_on_c, 13, 67, 89
14, 4574, Note_off_c, 13, 64, 64
14, 4574, Note_off_c, 13, 60, 64
14, 4574, Note_off_c, 13, 58, 64
14, 4574, Note_off_c, 13, 67, 64
14, 4704, Note_on_c, 13, 65, 95
14, 4704, Note_on_c, 13, 60, 95
14, 4704, Note_on_c, 13, 57, 95
14, 4912, Note_off_c, 13, 65, 64
14, 4912, Note_off_c, 13, 60, 64
14, 4912, Note_off_c, 13, 57, 64
14, 4992, Note_on_c, 13, 65, 82
14, 4992, Note_on_c, 13, 60, 82
14, 4992, Note_on_c, 13, 57, 82
14, 5184, Note_off_c, 13, 65, 64
14, 5184, Note_off_c, 13, 60, 64
14, 5184, Note_off_c, 13, 57, 64
14, 5184, Note_on_c, 13, 64, 82
14, 5184, Note_on_c, 13, 60, 82
14, 5184, Note_on_c, 13, 55, 82
14, 5376, Note_off_c, 13, 64, 64
14, 5376, Note_off_c, 13, 60, 64
14, 5376, Note_off_c, 13, 55, 64
14, 5376, Note_on_c, 13, 66, 85
14, 5376, Note_on_c, 13, 62, 85
14, 5376, Note_on_c, 13, 60, 85
14, 5376, Note_on_c, 13, 69, 85
14, 5377, Note_off_c, 13, 60, 64
14, 5760, Note_off_c, 13, 62, 64
14, 5760, Note_on_c, 13, 62, 74
14, 5856, Note_off_c, 13, 66, 64
14, 5856, Note_on_c, 13, 66, 70
14, 5867, Note_off_c, 13, 69, 64
14, 5867, Note_off_c, 13, 62, 64
14, 5952, Note_on_c, 13, 69, 80
14, 5955, Note_off_c, 13, 66, 64
14, 6046, Note_off_c, 13, 69, 64
14, 6048, Note_on_c, 13, 74, 100
14, 6081, Note_off_c, 13, 74, 64
14, 6144, Note_on_c, 13, 62, 82
14, 6144, Note_on_c, 13, 59, 82
14, 6144, Note_on_c, 13, 55, 82
14, 6336, Note_off_c, 13, 62, 64
14, 6336, Note_off_c, 13, 59, 64
14, 6336, Note_off_c, 13, 55, 64
14, 6336, Note_on_c, 13, 67, 82
14, 6336, Note_on_c, 13, 64, 82
14, 6336, Note_on_c, 13, 60, 82
14, 6336, Note_on_c, 13, 69, 82
14, 6528, Note_off_c, 13, 67, 64
14, 6528, Note_off_c, 13, 64, 64
14, 6528, Note_off_c, 13, 60, 64
14, 6528, Note_off_c, 13, 69, 64
14, 6528, Note_on_c, 13, 65, 82
14, 6528, Note_on_c, 13, 62, 82
14, 6528, Note_on_c, 13, 59, 82
14, 6528, Note_on_c, 13, 67, 82
14, 6876, Note_off_c, 13, 65, 64
14, 6876, Note_off_c, 13, 62, 64
14, 6876, Note_off_c, 13, 59, 64
14, 6876, Note_off_c, 13, 67, 64
14, 7008, Note_on_c, 13, 64, 95
14, 7008, Note_on_c, 13, 60, 95
14, 7008, Note_on_c, 13, 57, 95
14, 7216, Note_off_c, 13, 64, 64
14, 7216, Note_off_c, 13, 60, 64
14, 7216, Note_off_c, 13, 57, 64
14, 7296, Note_on_c, 13, 64, 82
14, 7296, Note_on_c, 13, 60, 82
14, 7296, Note_on_c, 13, 57, 82
14, 7644, Note_off_c, 13, 64, 64
14, 7644, Note_off_c, 13, 60, 64
14, 7644, Note_off_c, 13, 57, 64
14, 7680, Note_on_c, 13, 64, 82
14, 7680, Note_on_c, 13, 60, 82
14, 7680, Note_on_c, 13, 57, 82
14, 8028, Note_off_c, 13, 64, 64
14, 8028, Note_off_c, 13, 60, 64
14, 8028, Note_off_c, 13, 57, 64
14, 8064, Note_on_c, 13, 66, 82
14, 8064, Note_on_c, 13, 62, 82
14, 8064, Note_on_c, 13, 60, 82
14, 8064, Note_on_c, 13, 69, 82
14, 8412, Note_off_c, 13, 66, 64
14, 8412, Note_off_c, 13, 62, 64
14, 8412, Note_off_c, 13, 60, 64
14, 8412, Note_off_c, 13, 69, 64
14, 8544, Note_on_c, 13, 65, 95
14, 8544, Note_on_c, 13, 60, 95
14, 8544, Note_on_c, 13, 57, 95
14, 8752, Note_off_c, 13, 65, 64
14, 8752, Note_off_c, 13, 60, 64
14, 8752, Note_off_c, 13, 57, 64
14, 8832, Note_on_c, 13, 63, 82
14, 8832, Note_on_c, 13, 58, 82
14, 8832, Note_on_c, 13, 55, 82
14, 9024, Note_off_c, 13, 63, 64
14, 9024, Note_off_c, 13, 58, 64
14, 9024, Note_off_c, 13, 55, 64
14, 9024, Note_on_c, 13, 65, 82
14, 9024, Note_on_c, 13, 62, 82
14, 9024, Note_on_c, 13, 59, 82
14, 9024, Note_on_c, 13, 67, 82
14, 9216, Note_off_c, 13, 65, 64
14, 9216, Note_off_c, 13, 62, 64
14, 9216, Note_off_c, 13, 59, 64
14, 9216, Note_off_c, 13, 67, 64
14, 9312, Note_on_c, 13, 64, 82
14, 9312, Note_on_c, 13, 60, 82
14, 9312, Note_on_c, 13, 55, 82
14, 9385, Note_off_c, 13, 64, 64
14, 9385, Note_off_c, 13, 60, 64
14, 9385, Note_off_c, 13, 55, 64
14, 9504, Note_on_c, 13, 48, 68
14, 9600, Note_on_c, 13, 64, 80
14, 9600, Note_on_c, 13, 60, 80
14, 9600, Note_on_c, 13, 55, 80
14, 9616, Note_off_c, 13, 48, 64
14, 9712, Note_off_c, 13, 64, 64
14, 9712, Note_off_c, 13, 60, 64
14, 9712, Note_off_c, 13, 55, 64
14, 9792, Note_on_c, 13, 64, 82
14, 9792, Note_on_c, 13, 60, 82
14, 9792, Note_on_c, 13, 55, 82
14, 9852, Note_off_c, 13, 64, 64
14, 9852, Note_off_c, 13, 60, 64
14, 9852, Note_off_c, 13, 55, 64
14, 9984, Note_on_c, 13, 64, 85
14, 9984, Note_on_c, 13, 62, 85
14, 9984, Note_on_c, 13, 59, 85
14, 9984, Note_on_c, 13, 67, 85
14, 10368, Note_on_c, 13, 60, 74
14, 10464, Note_off_c, 13, 64, 64
14, 10464, Note_off_c, 13, 60, 64
14, 10464, Note_on_c, 13, 64, 70
14, 10475, Note_off_c, 13, 62, 64
14, 10475, Note_off_c, 13, 59, 64
14, 10475, Note_off_c, 13, 67, 64
14, 10560, Note_on_c, 13, 67, 80
14, 10563, Note_off_c, 13, 64, 64
14, 10654, Note_off_c, 13, 67, 64
14, 10656, Note_on_c, 13, 74, 100
14, 10689, Note_off_c, 13, 74, 64
14, 10752, Note_on_c, 13, 64, 85
14, 10752, Note_on_c, 13, 60, 85
14, 10752, Note_on_c, 13, 58, 85
14, 10752, Note_on_c, 13, 67, 85
14, 11136, Note_off_c, 13, 60, 64
14, 11136, Note_on_c, 13, 60, 74
14, 11232, Note_off_c, 13, 64, 64
14, 11232, Note_on_c, 13, 64, 70
14, 11243, Note_off_c, 13, 58, 64
14, 11243, Note_off_c, 13, 67, 64
14, 11243, Note_off_c, 13, 60, 64
14, 11328, Note_on_c, 13, 67, 80
14, 11331, Note_off_c, 13, 64, 64
14, 11422, Note_off_c, 13, 67, 64
14, 11424, Note_on_c, 13, 72, 100
14, 11457, Note_off_c, 13, 72, 64
14, 11616, Note_on_c, 13, 65, 95
14, 11616, Note_on_c, 13, 60, 95
14, 11616, Note_on_c, 13, 57, 95
14, 11824, Note_off_c, 13, 65, 64
14, 11824, Note_off_c, 13, 60, 64
14, 11824, Note_off_c, 13, 57, 64
14, 11904, Note_on_c, 13, 65, 82
14, 11904, Note_on_c, 13, 60, 82
14, 11904, Note_on_c, 13, 57, 82
14, 12096, Note_off_c, 13, 65, 64
14, 12096, Note_off_c, 13, 60, 64
14, 12096, Note_off_c, 13, 57, 64
14, 12096, Note_on_c, 13, 64, 82
14, 12096, Note_on_c, 13, 60, 82
14, 12096, Note_on_c, 13, 55, 82
14, 12288, Note_off_c, 13, 64, 64
14, 12288, Note_off_c, 13, 60, 64
14, 12288, Note_off_c, 13, 55, 64
14, 12288, Note_on_c, 13, 66, 89
14, 12288, Note_on_c, 13, 62, 89
14, 12288, Note_on_c, 13, 60, 89
14, 12288, Note_on_c, 13, 69, 89
14, 12289, Note_off_c, 13, 60, 64
14, 13022, Note_off_c, 13, 66, 64
14, 13022, Note_off_c, 13, 62, 64
14, 13022, Note_off_c, 13, 69, 64
14, 13056, Note_on_c, 13, 62, 82
14, 13056, Note_on_c, 13, 59, 82
14, 13056, Note_on_c, 13, 55, 82
14, 13248, Note_off_c, 13, 62, 64
14, 13248, Note_off_c, 13, 59, 64
14, 13248, Note_off_c, 13, 55, 64
14, 13248, Note_on_c, 13, 67, 82
14, 13248, Note_on_c, 13, 64, 82
14, 13248, Note_on_c, 13, 60, 82
14, 13248, Note_on_c, 13, 69, 82
14, 13440, Note_off_c, 13, 67, 64
14, 13440, Note_off_c, 13, 64, 64
14, 13440, Note_off_c, 13, 60, 64
14, 13440, Note_off_c, 13, 69, 64
14, 13440, Note_on_c, 13, 65, 82
14, 13440, Note_on_c, 13, 62, 82
14, 13440, Note_on_c, 13, 59, 82
14, 13440, Note_on_c, 13, 67, 82
14, 13788, Note_off_c, 13, 65, 64
14, 13788, Note_off_c, 13, 62, 64
14, 13788, Note_off_c, 13, 59, 64
14, 13788, Note_off_c, 13, 67, 64
14, 13824, Note_on_c, 13, 64, 82
14, 13824, Note_on_c, 13, 60, 82
14, 13824, Note_on_c, 13, 57, 82
14, 14172, Note_off_c, 13, 64, 64
14, 14172, Note_off_c, 13, 60, 64
14, 14172, Note_off_c, 13, 57, 64
14, 14208, Note_on_c, 13, 64, 82
14, 14208, Note_on_c, 13, 60, 82
14, 14208, Note_on_c, 13, 57, 82
14, 14556, Note_off_c, 13, 64, 64
14, 14556, Note_off_c, 13, 60, 64
14, 14556, Note_off_c, 13, 57, 64
14, 14688, Note_on_c, 13, 64, 95
14, 14688, Note_on_c, 13, 60, 95
14, 14688, Note_on_c, 13, 57, 95
14, 14896, Note_off_c, 13, 64, 64
14, 14896, Note_off_c, 13, 60, 64
14, 14896, Note_off_c, 13, 57, 64
14, 14976, Note_on_c, 13, 66, 82
14, 14976, Note_on_c, 13, 62, 82
14, 14976, Note_on_c, 13, 60, 82
14, 14976, Note_on_c, 13, 69, 82
14, 15324, Note_off_c, 13, 66, 64
14, 15324, Note_off_c, 13, 62, 64
14, 15324, Note_off_c, 13, 60, 64
14, 15324, Note_off_c, 13, 69, 64
14, 15360, Note_on_c, 13, 65, 82
14, 15360, Note_on_c, 13, 60, 82
14, 15360, Note_on_c, 13, 57, 82
14, 15708, Note_off_c, 13, 65, 64
14, 15708, Note_off_c, 13, 60, 64
14, 15708, Note_off_c, 13, 57, 64
14, 15744, Note_on_c, 13, 67, 82
14, 15744, Note_on_c, 13, 63, 82
14, 15744, Note_on_c, 13, 58, 82
14, 15936, Note_off_c, 13, 67, 64
14, 15936, Note_off_c, 13, 63, 64
14, 15936, Note_off_c, 13, 58, 64
14, 15936, Note_on_c, 13, 65, 82
14, 15936, Note_on_c, 13, 62, 82
14, 15936, Note_on_c, 13, 59, 82
14, 15936, Note_on_c, 13, 67, 82
14, 16128, Note_off_c, 13, 65, 64
14, 16128, Note_off_c, 13, 62, 64
14, 16128, Note_off_c, 13, 59, 64
14, 16128, Note_off_c, 13, 67, 64
14, 16128, Note_on_c, 13, 64, 89
14, 16128, Note_on_c, 13, 61, 89
14, 16128, Note_on_c, 13, 57, 89
14, 16862, Note_off_c, 13, 64, 64
14, 16862, Note_off_c, 13, 61, 64
14, 16862, Note_off_c, 13, 57, 64
14, 16896, Note_on_c, 13, 64, 82
14, 16896, Note_on_c, 13, 61, 82
14, 16896, Note_on_c, 13, 57, 82
14, 17244, Note_off_c, 13, 64, 64
14, 17244, Note_off_c, 13, 61, 64
14, 17244, Note_off_c, 13, 57, 64
14, 17376, Note_on_c, 13, 64, 95
14, 17376, Note_on_c, 13, 61, 95
14, 17376, Note_on_c, 13, 56, 95
14, 17584, Note_off_c, 13, 64, 64
14, 17584, Note_off_c, 13, 61, 64
14, 17584, Note_off_c, 13, 56, 64
14, 17664, Note_on_c, 13, 66, 82
14, 17664, Note_on_c, 13, 61, 82
14, 17664, Note_on_c, 13, 57, 82
14, 18012, Note_off_c, 13, 66, 64
14, 18012, Note_off_c, 13, 61, 64
14, 18012, Note_off_c, 13, 57, 64
14, 18048, Note_on_c, 13, 66, 82
14, 18048, Note_on_c, 13, 61, 82
14, 18048, Note_on_c, 13, 57, 82
14, 18396, Note_off_c, 13, 66, 64
14, 18396, Note_off_c, 13, 61, 64
14, 18396, Note_off_c, 13, 57, 64
14, 18432, Note_on_c, 13, 66, 82
14, 18432, Note_on_c, 13, 62, 82
14, 18432, Note_on_c, 13, 57, 82
14, 18780, Note_off_c, 13, 66, 64
14, 18780, Note_off_c, 13, 62, 64
14, 18780, Note_off_c, 13, 57, 64
14, 18816, Note_on_c, 13, 62, 82
14, 18816, Note_on_c, 13, 59, 82
14, 18816, Note_on_c, 13, 55, 82
14, 19164, Note_off_c, 13, 62, 64
14, 19164, Note_off_c, 13, 59, 64
14, 19164, Note_off_c, 13, 55, 64
14, 19200, Note_on_c, 13, 64, 87
14, 19200, Note_on_c, 13, 61, 87
14, 19200, Note_on_c, 13, 57, 87
14, 19267, Note_off_c, 13, 64, 64
14, 19267, Note_off_c, 13, 61, 64
14, 19267, Note_off_c, 13, 57, 64
14, 19296, Note_on_c, 13, 64, 82
14, 19296, Note_on_c, 13, 61, 82
14, 19296, Note_on_c, 13, 57, 82
14, 19350, Note_off_c, 13, 64, 64
14, 19350, Note_off_c, 13, 61, 64
14, 19350, Note_off_c, 13, 57, 64
14, 19488, Note_on_c, 13, 64, 82
14, 19488, Note_on_c, 13, 61, 82
14, 19488, Note_on_c, 13, 57, 82
14, 19790, Note_off_c, 13, 64, 64
14, 19790, Note_off_c, 13, 61, 64
14, 19790, Note_off_c, 13, 57, 64
14, 20064, Note_on_c, 13, 64, 95
14, 20064, Note_on_c, 13, 61, 95
14, 20064, Note_on_c, 13, 57, 95
14, 20272, Note_off_c, 13, 64, 64
14, 20272, Note_off_c, 13, 61, 64
14, 20272, Note_off_c, 13, 57, 64
14, 20352, Note_on_c, 13, 64, 82
14, 20352, Note_on_c, 13, 61, 82
14, 20352, Note_on_c, 13, 56, 82
14, 20700, Note_off_c, 13, 64, 64
14, 20700, Note_off_c, 13, 61, 64
14, 20700, Note_off_c, 13, 56, 64
14, 20736, Note_on_c, 13, 66, 82
14, 20736, Note_on_c, 13, 61, 82
14, 20736, Note_on_c, 13, 57, 82
14, 21084, Note_off_c, 13, 66, 64
14, 21084, Note_off_c, 13, 61, 64
14, 21084, Note_off_c, 13, 57, 64
14, 21120, Note_on_c, 13, 66, 82
14, 21120, Note_on_c, 13, 61, 82
14, 21120, Note_on_c, 13, 57, 82
14, 21468, Note_off_c, 13, 66, 64
14, 21468, Note_off_c, 13, 61, 64
14, 21468, Note_off_c, 13, 57, 64
14, 21600, Note_on_c, 13, 66, 95
14, 21600, Note_on_c, 13, 62, 95
14, 21600, Note_on_c, 13, 57, 95
14, 21808, Note_off_c, 13, 66, 64
14, 21808, Note_off_c, 13, 62, 64
14, 21808, Note_off_c, 13, 57, 64
14, 21984, Note_on_c, 13, 62, 95
14, 21984, Note_on_c, 13, 59, 95
14, 21984, Note_on_c, 13, 55, 95
14, 22192, Note_off_c, 13, 62, 64
14, 22192, Note_off_c, 13, 59, 64
14, 22192, Note_off_c, 13, 55, 64
14, 22272, Note_on_c, 13, 64, 91
14, 22272, Note_on_c, 13, 60, 91
14, 22272, Note_on_c, 13, 55, 91
14, 23488, Note_off_c, 13, 64, 64
14, 23488, Note_off_c, 13, 60, 64
14, 23488, Note_off_c, 13, 55, 64
14, 23520, Note_on_c, 13, 60, 78
14, 23616, Note_on_c, 13, 64, 70
14, 23712, Note_on_c, 13, 67, 82
14, 23734, Note_off_c, 13, 64, 64
14, 23795, Note_off_c, 13, 60, 64
14, 23796, Note_off_c, 13, 67, 64
14, 23808, Note_on_c, 13, 64, 89
14, 23808, Note_on_c, 13, 62, 89
14, 23808, Note_on_c, 13, 59, 89
14, 23808, Note_on_c, 13, 67, 89
14, 24542, Note_off_c, 13, 64, 64
14, 24542, Note_off_c, 13, 62, 64
14, 24542, Note_off_c, 13, 59, 64
14, 24542, Note_off_c, 13, 67, 64
14, 24672, Note_on_c, 13, 64, 82
14, 24672, Note_on_c, 13, 60, 82
14, 24672, Note_on_c, 13, 58, 82
14, 24672, Note_on_c, 13, 67, 82
14, 24745, Note_off_c, 13, 64, 64
14, 24745, Note_off_c, 13, 60, 64
14, 24745, Note_off_c, 13, 58, 64
14, 24745, Note_off_c, 13, 67, 64
14, 24864, Note_on_c, 13, 48, 68
14, 24960, Note_on_c, 13, 64, 80
14, 24960, Note_on_c, 13, 60, 80
14, 24960, Note_on_c, 13, 58, 80
14, 24960, Note_on_c, 13, 67, 80
14, 24976, Note_off_c, 13, 48, 64
14, 25072, Note_off_c, 13, 64, 64
14, 25072, Note_off_c, 13, 60, 64
14, 25072, Note_off_c, 13, 58, 64
14, 25072, Note_off_c, 13, 67, 64
14, 25152, Note_on_c, 13, 64, 82
14, 25152, Note_on_c, 13, 60, 82
14, 25152, Note_on_c, 13, 58, 82
14, 25152, Note_on_c, 13, 67, 82
14, 25212, Note_off_c, 13, 64, 64
14, 25212, Note_off_c, 13, 60, 64
14, 25212, Note_off_c, 13, 58, 64
14, 25212, Note_off_c, 13, 67, 64
14, 25344, Note_on_c, 13, 65, 82
14, 25344, Note_on_c, 13, 60, 82
14, 25344, Note_on_c, 13, 57, 82
14, 25692, Note_off_c, 13, 65, 64
14, 25692, Note_off_c, 13, 60, 64
14, 25692, Note_off_c, 13, 57, 64
14, 25728, Note_on_c, 13, 65, 82
14, 25728, Note_on_c, 13, 60, 82
14, 25728, Note_on_c, 13, 57, 82
14, 25920, Note_off_c, 13, 65, 64
14, 25920, Note_off_c, 13, 60, 64
14, 25920, Note_off_c, 13, 57, 64
14, 25920, Note_on_c, 13, 64, 82
14, 25920, Note_on_c, 13, 60, 82
14, 25920, Note_on_c, 13, 55, 82
14, 26112, Note_off_c, 13, 64, 64
14, 26112, Note_off_c, 13, 60, 64
14, 26112, Note_off_c, 13, 55, 64
14, 26112, Note_on_c, 13, 66, 87
14, 26112, Note_on_c, 13, 62, 87
14, 26112, Note_on_c, 13, 60, 87
14, 26112, Note_on_c, 13, 69, 87
14, 26113, Note_off_c, 13, 60, 64
14, 26179, Note_off_c, 13, 66, 64
14, 26179, Note_off_c, 13, 62, 64
14, 26179, Note_off_c, 13, 69, 64
14, 26208, Note_on_c, 13, 66, 82
14, 26208, Note_on_c, 13, 62, 82
14, 26208, Note_on_c, 13, 60, 82
14, 26208, Note_on_c, 13, 69, 82
14, 26262, Note_off_c, 13, 66, 64
14, 26262, Note_off_c, 13, 62, 64
14, 26262, Note_off_c, 13, 60, 64
14, 26262, Note_off_c, 13, 69, 64
14, 26400, Note_on_c, 13, 66, 82
14, 26400, Note_on_c, 13, 62, 82
14, 26400, Note_on_c, 13, 60, 82
14, 26400, Note_on_c, 13, 69, 82
14, 26702, Note_off_c, 13, 66, 64
14, 26702, Note_off_c, 13, 62, 64
14, 26702, Note_off_c, 13, 60, 64
14, 26702, Note_off_c, 13, 69, 64
14, 26880, Note_on_c, 13, 62, 82
14, 26880, Note_on_c, 13, 59, 82
14, 26880, Note_on_c, 13, 55, 82
14, 27072, Note_off_c, 13, 62, 64
14, 27072, Note_off_c, 13, 59, 64
14, 27072, Note_off_c, 13, 55, 64
14, 27072, Note_on_c, 13, 67, 82
14, 27072, Note_on_c, 13, 64, 82
14, 27072, Note_on_c, 13, 60, 82
14, 27072, Note_on_c, 13, 69, 82
14, 27264, Note_off_c, 13, 67, 64
14, 27264, Note_off_c, 13, 64, 64
14, 27264, Note_off_c, 13, 60, 64
14, 27264, Note_off_c, 13, 69, 64
14, 27264, Note_on_c, 13, 62, 82
14, 27264, Note_on_c, 13, 59, 82
14, 27264, Note_on_c, 13, 55, 82
14, 27612, Note_off_c, 13, 62, 64
14, 27612, Note_off_c, 13, 59, 64
14, 27612, Note_off_c, 13, 55, 64
14, 27648, Note_on_c, 13, 64, 82
14, 27648, Note_on_c, 13, 60, 82
14, 27648, Note_on_c, 13, 57, 82
14, 27996, Note_off_c, 13, 64, 64
14, 27996, Note_off_c, 13, 60, 64
14, 27996, Note_off_c, 13, 57, 64
14, 28032, Note_on_c, 13, 64, 82
14, 28032, Note_on_c, 13, 60, 82
14, 28032, Note_on_c, 13, 57, 82
14, 28380, Note_off_c, 13, 64, 64
14, 28380, Note_off_c, 13, 60, 64
14, 28380, Note_off_c, 13, 57, 64
14, 28416, Note_on_c, 13, 67, 82
14, 28416, Note_on_c, 13, 64, 82
14, 28416, Note_on_c, 13, 60, 82
14, 28416, Note_on_c, 13, 69, 82
14, 28764, Note_off_c, 13, 67, 64
14, 28764, Note_off_c, 13, 64, 64
14, 28764, Note_off_c, 13, 60, 64
14, 28764, Note_off_c, 13, 69, 64
14, 28896, Note_on_c, 13, 66, 95
14, 28896, Note_on_c, 13, 64, 95
14, 28896, Note_on_c, 13, 60, 95
14, 28896, Note_on_c, 13, 69, 95
14, 29104, Note_off_c, 13, 66, 64
14, 29104, Note_off_c, 13, 64, 64
14, 29104, Note_off_c, 13, 60, 64
14, 29104, Note_off_c, 13, 69, 64
14, 29184, Note_on_c, 13, 65, 82
14, 29184, Note_on_c, 13, 60, 82
14, 29184, Note_on_c, 13, 57, 82
14, 29532, Note_off_c, 13, 65, 64
14, 29532, Note_off_c, 13, 60, 64
14, 29532, Note_off_c, 13, 57, 64
14, 29568, Note_on_c, 13, 67, 82
14, 29568, Note_on_c, 13, 63, 82
14, 29568, Note_on_c, 13, 58, 82
14, 29760, Note_off_c, 13, 67, 64
14, 29760, Note_off_c, 13, 63, 64
14, 29760, Note_off_c, 13, 58, 64
14, 29760, Note_on_c, 13, 65, 82
14, 29760, Note_on_c, 13, 62, 82
14, 29760, Note_on_c, 13, 59, 82
14, 29760, Note_on_c, 13, 67, 82
14, 29952, Note_off_c, 13, 65, 64
14, 29952, Note_off_c, 13, 62, 64
14, 29952, Note_off_c, 13, 59, 64
14, 29952, Note_off_c, 13, 67, 64
14, 30048, Note_on_c, 13, 64, 82
14, 30048, Note_on_c, 13, 60, 82
14, 30048, Note_on_c, 13, 55, 82
14, 30121, Note_off_c, 13, 64, 64
14, 30121, Note_off_c, 13, 60, 64
14, 30121, Note_off_c, 13, 55, 64
14, 30240, Note_on_c, 13, 48, 68
14, 30336, Note_on_c, 13, 64, 80
14, 30336, Note_on_c, 13, 60, 80
14, 30336, Note_on_c, 13, 55, 80
14, 30352, Note_off_c, 13, 48, 64
14, 30448, Note_off_c, 13, 64, 64
14, 30448, Note_off_c, 13, 60, 64
14, 30448, Note_off_c, 13, 55, 64
14, 30528, Note_on_c, 13, 64, 82
14, 30528, Note_on_c, 13, 60, 82
14, 30528, Note_on_c, 13, 55, 82
14, 30588, Note_off_c, 13, 64, 64
14, 30588, Note_off_c, 13, 60, 64
14, 30588, Note_off_c, 13, 55, 64
14, 30720, Note_on_c, 13, 64, 87
14, 30720, Note_on_c, 13, 62, 87
14, 30720, Note_on_c, 13, 59, 87
14, 30720, Note_on_c, 13, 67, 87
14, 30787, Note_off_c, 13, 64, 64
14, 30787, Note_off_c, 13, 62, 64
14, 30787, Note_off_c, 13, 59, 64
14, 30787, Note_off_c, 13, 67, 64
14, 30816, Note_on_c, 13, 64, 82
14, 30816, Note_on_c, 13, 62, 82
14, 30816, Note_on_c, 13, 59, 82
14, 30816, Note_on_c, 13, 67, 82
14, 30870, Note_off_c, 13, 64, 64
14, 30870, Note_off_c, 13, 62, 64
14, 30870, Note_off_c, 13, 59, 64
14, 30870, Note_off_c, 13, 67, 64
14, 31008, Note_on_c, 13, 64, 82
14, 31008, Note_on_c, 13, 62, 82
14, 31008, Note_on_c, 13, 59, 82
14, 31008, Note_on_c, 13, 67, 82
14, 31310, Note_off_c, 13, 64, 64
14, 31310, Note_off_c, 13, 62, 64
14, 31310, Note_off_c, 13, 59, 64
14, 31310, Note_off_c, 13, 67, 64
14, 31584, Note_on_c, 13, 64, 82
14, 31584, Note_on_c, 13, 60, 82
14, 31584, Note_on_c, 13, 58, 82
14, 31584, Note_on_c, 13, 67, 82
14, 31657, Note_off_c, 13, 64, 64
14, 31657, Note_off_c, 13, 60, 64
14, 31657, Note_off_c, 13, 58, 64
14, 31657, Note_off_c, 13, 67, 64
14, 31776, Note_on_c, 13, 48, 68
14, 31872, Note_on_c, 13, 64, 80
14, 31872, Note_on_c, 13, 60, 80
14, 31872, Note_on_c, 13, 58, 80
14, 31872, Note_on_c, 13, 67, 80
14, 31888, Note_off_c, 13, 48, 64
14, 31984, Note_off_c, 13, 64, 64
14, 31984, Note_off_c, 13, 60, 64
14, 31984, Note_off_c, 13, 58, 64
14, 31984, Note_off_c, 13, 67, 64
14, 32064, Note_on_c, 13, 64, 82
14, 32064, Note_on_c, 13, 60, 82
14, 32064, Note_on_c, 13, 58, 82
14, 32064, Note_on_c, 13, 67, 82
14, 32124, Note_off_c, 13, 64, 64
14, 32124, Note_off_c, 13, 60, 64
14, 32124, Note_off_c, 13, 58, 64
14, 32124, Note_off_c, 13, 67, 64
14, 32352, Note_on_c, 13, 65, 95
14, 32352, Note_on_c, 13, 60, 95
14, 32352, Note_on_c, 13, 57, 95
14, 32560, Note_off_c, 13, 65, 64
14, 32560, Note_off_c, 13, 60, 64
14, 32560, Note_off_c, 13, 57, 64
14, 32640, Note_on_c, 13, 65, 82
14, 32640, Note_on_c, 13, 60, 82
14, 32640, Note_on_c, 13, 57, 82
14, 32832, Note_off_c, 13, 65, 64
14, 32832, Note_off_c, 13, 60, 64
14, 32832, Note_off_c, 13, 57, 64
14, 32832, Note_on_c, 13, 64, 82
14, 32832, Note_on_c, 13, 60, 82
14, 32832, Note_on_c, 13, 55, 82
14, 33024, Note_off_c, 13, 64, 64
14, 33024, Note_off_c, 13, 60, 64
14, 33024, Note_off_c, 13, 55, 64
14, 33024, Note_on_c, 13, 66, 87
14, 33024, Note_on_c, 13, 62, 87
14, 33024, Note_on_c, 13, 60, 87
14, 33024, Note_on_c, 13, 69, 87
14, 33025, Note_off_c, 13, 60, 64
14, 33312, Note_on_c, 13, 50, 80
14, 33324, Note_off_c, 13, 66, 64
14, 33324, Note_off_c, 13, 62, 64
14, 33324, Note_off_c, 13, 69, 64
14, 33408, Note_on_c, 13, 66, 85
14, 33408, Note_on_c, 13, 62, 85
14, 33408, Note_on_c, 13, 60, 85
14, 33408, Note_on_c, 13, 69, 85
14, 33419, Note_off_c, 13, 50, 64
14, 33537, Note_off_c, 13, 66, 64
14, 33537, Note_off_c, 13, 62, 64
14, 33537, Note_off_c, 13, 60, 64
14, 33537, Note_off_c, 13, 69, 64
14, 33600, Note_on_c, 13, 66, 100
14, 33600, Note_on_c, 13, 62, 100
14, 33600, Note_on_c, 13, 60, 100
14, 33600, Note_on_c, 13, 69, 100
14, 33665, Note_off_c, 13, 66, 64
14, 33665, Note_off_c, 13, 62, 64
14, 33665, Note_off_c, 13, 60, 64
14, 33665, Note_off_c, 13, 69, 64
14, 33792, Note_on_c, 13, 62, 82
14, 33792, Note_on_c, 13, 59, 82
14, 33792, Note_on_c, 13, 55, 82
14, 33984, Note_off_c, 13, 62, 64
14, 33984, Note_off_c, 13, 59, 64
14, 33984, Note_off_c, 13, 55, 64
14, 33984, Note_on_c, 13, 67, 82
14, 33984, Note_on_c, 13, 64, 82
14, 33984, Note_on_c, 13, 60, 82
14, 33984, Note_on_c, 13, 69, 82
14, 34176, Note_off_c, 13, 67, 64
14, 34176, Note_off_c, 13, 64, 64
14, 34176, Note_off_c, 13, 60, 64
14, 34176, Note_off_c, 13, 69, 64
14, 34272, Note_on_c, 13, 65, 95
14, 34272, Note_on_c, 13, 62, 95
14, 34272, Note_on_c, 13, 59, 95
14, 34272, Note_on_c, 13, 67, 95
14, 34480, Note_off_c, 13, 65, 64
14, 34480, Note_off_c, 13, 62, 64
14, 34480, Note_off_c, 13, 59, 64
14, 34480, Note_off_c, 13, 67, 64
14, 34560, Note_on_c, 13, 64, 82
14, 34560, Note_on_c, 13, 60, 82
14, 34560, Note_on_c, 13, 57, 82
14, 34908, Note_off_c, 13, 64, 64
14, 34908, Note_off_c, 13, 60, 64
14, 34908, Note_off_c, 13, 57, 64
14, 34944, Note_on_c, 13, 64, 82
14, 34944, Note_on_c, 13, 60, 82
14, 34944, Note_on_c, 13, 57, 82
14, 35292, Note_off_c, 13, 64, 64
14, 35292, Note_off_c, 13, 60, 64
14, 35292, Note_off_c, 13, 57, 64
14, 35424, Note_on_c, 13, 64, 95
14, 35424, Note_on_c, 13, 60, 95
14, 35424, Note_on_c, 13, 57, 95
14, 35632, Note_off_c, 13, 64, 64
14, 35632, Note_off_c, 13, 60, 64
14, 35632, Note_off_c, 13, 57, 64
14, 35808, Note_on_c, 13, 62, 95
14, 35808, Note_on_c, 13, 60, 95
14, 35808, Note_on_c, 13, 57, 95
14, 35808, Note_on_c, 13, 66, 95
14, 36016, Note_off_c, 13, 62, 64
14, 36016, Note_off_c, 13, 60, 64
14, 36016, Note_off_c, 13, 57, 64
14, 36016, Note_off_c, 13, 66, 64
14, 36192, Note_on_c, 13, 65, 95
14, 36192, Note_on_c, 13, 60, 95
14, 36192, Note_on_c, 13, 57, 95
14, 36400, Note_off_c, 13, 65, 64
14, 36400, Note_off_c, 13, 60, 64
14, 36400, Note_off_c, 13, 57, 64
14, 36480, Note_on_c, 13, 67, 82
14, 36480, Note_on_c, 13, 63, 82
14, 36480, Note_on_c, 13, 58, 82
14, 36672, Note_off_c, 13, 67, 64
14, 36672, Note_off_c, 13, 63, 64
14, 36672, Note_off_c, 13, 58, 64
14, 36672, Note_on_c, 13, 65, 82
14, 36672, Note_on_c, 13, 62, 82
14, 36672, Note_on_c, 13, 59, 82
14, 36672, Note_on_c, 13, 67, 82
14, 36864, Note_off_c, 13, 65, 64
14, 36864, Note_off_c, 13, 62, 64
14, 36864, Note_off_c, 13, 59, 64
14, 36864, Note_off_c, 13, 67, 64
14, 36960, Note_on_c, 13, 64, 82
14, 36960, Note_on_c, 13, 60, 82
14, 36960, Note_on_c, 13, 55, 82
14, 37033, Note_off_c, 13, 64, 64
14, 37033, Note_off_c, 13, 60, 64
14, 37033, Note_off_c, 13, 55, 64
14, 37152, Note_on_c, 13, 48, 68
14, 37248, Note_on_c, 13, 64, 80
14, 37248, Note_on_c, 13, 60, 80
14, 37248, Note_on_c, 13, 55, 80
14, 37264, Note_off_c, 13, 48, 64
14, 37360, Note_off_c, 13, 64, 64
14, 37360, Note_off_c, 13, 60, 64
14, 37360, Note_off_c, 13, 55, 64
14, 37440, Note_on_c, 13, 64, 82
14, 37440, Note_on_c, 13, 60, 82
14, 37440, Note_on_c, 13, 55, 82
14, 37500, Note_off_c, 13, 64, 64
14, 37500, Note_off_c, 13, 60, 64
14, 37500, Note_off_c, 13, 55, 64
14, 37632, Note_on_c, 13, 64, 87
14, 37632, Note_on_c, 13, 62, 87
14, 37632, Note_on_c, 13, 59, 87
14, 37632, Note_on_c, 13, 67, 87
14, 37699, Note_off_c, 13, 64, 64
14, 37699, Note_off_c, 13, 62, 64
14, 37699, Note_off_c, 13, 59, 64
14, 37699, Note_off_c, 13, 67, 64
14, 37728, Note_on_c, 13, 64, 82
14, 37728, Note_on_c, 13, 62, 82
14, 37728, Note_on_c, 13, 59, 82
14, 37728, Note_on_c, 13, 67, 82
14, 37782, Note_off_c, 13, 64, 64
14, 37782, Note_off_c, 13, 62, 64
14, 37782, Note_off_c, 13, 59, 64
14, 37782, Note_off_c, 13, 67, 64
14, 37920, Note_on_c, 13, 64, 82
14, 37920, Note_on_c, 13, 62, 82
14, 37920, Note_on_c, 13, 59, 82
14, 37920, Note_on_c, 13, 67, 82
14, 38222, Note_off_c, 13, 64, 64
14, 38222, Note_off_c, 13, 62, 64
14, 38222, Note_off_c, 13, 59, 64
14, 38222, Note_off_c, 13, 67, 64
14, 38400, Note_on_c, 13, 64, 87
14, 38400, Note_on_c, 13, 60, 87
14, 38400, Note_on_c, 13, 58, 87
14, 38400, Note_on_c, 13, 67, 87
14, 38467, Note_off_c, 13, 64, 64
14, 38467, Note_off_c, 13, 60, 64
14, 38467, Note_off_c, 13, 58, 64
14, 38467, Note_off_c, 13, 67, 64
14, 38496, Note_on_c, 13, 64, 82
14, 38496, Note_on_c, 13, 60, 82
14, 38496, Note_on_c, 13, 58, 82
14, 38496, Note_on_c, 13, 67, 82
14, 38550, Note_off_c, 13, 64, 64
14, 38550, Note_off_c, 13, 60, 64
14, 38550, Note_off_c, 13, 58, 64
14, 38550, Note_off_c, 13, 67, 64
14, 38688, Note_on_c, 13, 64, 82
14, 38688, Note_on_c, 13, 60, 82
14, 38688, Note_on_c, 13, 58, 82
14, 38688, Note_on_c, 13, 67, 82
14, 38990, Note_off_c, 13, 64, 64
14, 38990, Note_off_c, 13, 60, 64
14, 38990, Note_off_c, 13, 58, 64
14, 38990, Note_off_c, 13, 67, 64
14, 39168, Note_on_c, 13, 65, 82
14, 39168, Note_on_c, 13, 60, 82
14, 39168, Note_on_c, 13, 57, 82
14, 39516, Note_off_c, 13, 65, 64
14, 39516, Note_off_c, 13, 60, 64
14, 39516, Note_off_c, 13, 57, 64
14, 39552, Note_on_c, 13, 65, 82
14, 39552, Note_on_c, 13, 60, 82
14, 39552, Note_on_c, 13, 57, 82
14, 39744, Note_off_c, 13, 65, 64
14, 39744, Note_off_c, 13, 60, 64
14, 39744, Note_off_c, 13, 57, 64
14, 39744, Note_on_c, 13, 64, 82
14, 39744, Note_on_c, 13, 60, 82
14, 39744, Note_on_c, 13, 55, 82
14, 39936, Note_off_c, 13, 64, 64
14, 39936, Note_off_c, 13, 60, 64
14, 39936, Note_off_c, 13, 55, 64
14, 39936, Note_on_c, 13, 66, 87
14, 39936, Note_on_c, 13, 62, 87
14, 39936, Note_on_c, 13, 60, 87
14, 39936, Note_on_c, 13, 69, 87
14, 39937, Note_off_c, 13, 60, 64
14, 40224, Note_on_c, 13, 50, 80
14, 40236, Note_off_c, 13, 66, 64
14, 40236, Note_off_c, 13, 62, 64
14, 40236, Note_off_c, 13, 69, 64
14, 40320, Note_on_c, 13, 66, 85
14, 40320, Note_on_c, 13, 62, 85
14, 40320, Note_on_c, 13, 60, 85
14, 40320, Note_on_c, 13, 69, 85
14, 40331, Note_off_c, 13, 50, 64
14, 40449, Note_off_c, 13, 66, 64
14, 40449, Note_off_c, 13, 62, 64
14, 40449, Note_off_c, 13, 60, 64
14, 40449, Note_off_c, 13, 69, 64
14, 40512, Note_on_c, 13, 66, 100
14, 40512, Note_on_c, 13, 62, 100
14, 40512, Note_on_c, 13, 60, 100
14, 40512, Note_on_c, 13, 69, 100
14, 40577, Note_off_c, 13, 66, 64
14, 40577, Note_off_c, 13, 62, 64
14, 40577, Note_off_c, 13, 60, 64
14, 40577, Note_off_c, 13, 69, 64
14, 40704, Note_on_c, 13, 62, 82
14, 40704, Note_on_c, 13, 59, 82
14, 40704, Note_on_c, 13, 55, 82
14, 40896, Note_off_c, 13, 62, 64
14, 40896, Note_off_c, 13, 59, 64
14, 40896, Note_off_c, 13, 55, 64
14, 40896, Note_on_c, 13, 67, 82
14, 40896, Note_on_c, 13, 64, 82
14, 40896, Note_on_c, 13, 60, 82
14, 40896, Note_on_c, 13, 69, 82
14, 41088, Note_off_c, 13, 67, 64
14, 41088, Note_off_c, 13, 64, 64
14, 41088, Note_off_c, 13, 60, 64
14, 41088, Note_off_c, 13, 69, 64
14, 41184, Note_on_c, 13, 65, 95
14, 41184, Note_on_c, 13, 62, 95
14, 41184, Note_on_c, 13, 59, 95
14, 41184, Note_on_c, 13, 67, 95
14, 41392, Note_off_c, 13, 65, 64
14, 41392, Note_off_c, 13, 62, 64
14, 41392, Note_off_c, 13, 59, 64
14, 41392, Note_off_c, 13, 67, 64
14, 41472, Note_on_c, 13, 64, 82
14, 41472, Note_on_c, 13, 60, 82
14, 41472, Note_on_c, 13, 57, 82
14, 41820, Note_off_c, 13, 64, 64
14, 41820, Note_off_c, 13, 60, 64
14, 41820, Note_off_c, 13, 57, 64
14, 41856, Note_on_c, 13, 64, 82
14, 41856, Note_on_c, 13, 60, 82
14, 41856, Note_on_c, 13, 57, 82
14, 42204, Note_off_c, 13, 64, 64
14, 42204, Note_off_c, 13, 60, 64
14, 42204, Note_off_c, 13, 57, 64
14, 42240, Note_on_c, 13, 64, 82
14, 42240, Note_on_c, 13, 60, 82
14, 42240, Note_on_c, 13, 57, 82
14, 42588, Note_off_c, 13, 64, 64
14, 42588, Note_off_c, 13, 60, 64
14, 42588, Note_off_c, 13, 57, 64
14, 42624, Note_on_c, 13, 66, 82
14, 42624, Note_on_c, 13, 62, 82
14, 42624, Note_on_c, 13, 60, 82
14, 42624, Note_on_c, 13, 69, 82
14, 42972, Note_off_c, 13, 66, 64
14, 42972, Note_off_c, 13, 62, 64
14, 42972, Note_off_c, 13, 60, 64
14, 42972, Note_off_c, 13, 69, 64
14, 43104, Note_on_c, 13, 65, 95
14, 43104, Note_on_c, 13, 60, 95
14, 43104, Note_on_c, 13, 57, 95
14, 43312, Note_off_c, 13, 65, 64
14, 43312, Note_off_c, 13, 60, 64
14, 43312, Note_off_c, 13, 57, 64
14, 43392, Note_on_c, 13, 63, 82
14, 43392, Note_on_c, 13, 58, 82
14, 43392, Note_on_c, 13, 55, 82
14, 43584, Note_off_c, 13, 63, 64
14, 43584, Note_off_c, 13, 58, 64
14, 43584, Note_off_c, 13, 55, 64
14, 43584, Note_on_c, 13, 65, 82
14, 43584, Note_on_c, 13, 62, 82
14, 43584, Note_on_c, 13, 59, 82
14, 43584, Note_on_c, 13, 67, 82
14, 43776, Note_off_c, 13, 65, 64
14, 43776, Note_off_c, 13, 62, 64
14, 43776, Note_off_c, 13, 59, 64
14, 43776, Note_off_c, 13, 67, 64
14, 43776, Note_on_c, 13, 64, 87
14, 43776, Note_on_c, 13, 61, 87
14, 43776, Note_on_c, 13, 57, 87
14, 43843, Note_off_c, 13, 64, 64
14, 43843, Note_off_c, 13, 61, 64
14, 43843, Note_off_c, 13, 57, 64
14, 43872, Note_on_c, 13, 64, 82
14, 43872, Note_on_c, 13, 61, 82
14, 43872, Note_on_c, 13, 57, 82
14, 43926, Note_off_c, 13, 64, 64
14, 43926, Note_off_c, 13, 61, 64
14, 43926, Note_off_c, 13, 57, 64
14, 44064, Note_on_c, 13, 64, 82
14, 44064, Note_on_c, 13, 61, 82
14, 44064, Note_on_c, 13, 57, 82
14, 44366, Note_off_c, 13, 64, 64
14, 44366, Note_off_c, 13, 61, 64
14, 44366, Note_off_c, 13, 57, 64
14, 44544, Note_on_c, 13, 64, 82
14, 44544, Note_on_c, 13, 61, 82
14, 44544, Note_on_c, 13, 57, 82
14, 44892, Note_off_c, 13, 64, 64
14, 44892, Note_off_c, 13, 61, 64
14, 44892, Note_off_c, 13, 57, 64
14, 44928, Note_on_c, 13, 64, 82
14, 44928, Note_on_c, 13, 61, 82
14, 44928, Note_on_c, 13, 56, 82
14, 45276, Note_off_c, 13, 64, 64
14, 45276, Note_off_c, 13, 61, 64
14, 45276, Note_off_c, 13, 56, 64
14, 45408, Note_on_c, 13, 66, 95
14, 45408, Note_on_c, 13, 61, 95
14, 45408, Note_on_c, 13, 57, 95
14, 45616, Note_off_c, 13, 66, 64
14, 45616, Note_off_c, 13, 61, 64
14, 45616, Note_off_c, 13, 57, 64
14, 45792, Note_on_c, 13, 66, 95
14, 45792, Note_on_c, 13, 61, 95
14, 45792, Note_on_c, 13, 57, 95
14, 46000, Note_off_c, 13, 66, 64
14, 46000, Note_off_c, 13, 61, 64
14, 46000, Note_off_c, 13, 57, 64
14, 46176, Note_on_c, 13, 62, 95
14, 46176, Note_on_c, 13, 57, 95
14, 46176, Note_on_c, 13, 54, 95
14, 46384, Note_off_c, 13, 62, 64
14, 46384, Note_off_c, 13, 57, 64
14, 46384, Note_off_c, 13, 54, 64
14, 46464, Note_on_c, 13, 62, 82
14, 46464, Note_on_c, 13, 59, 82
14, 46464, Note_on_c, 13, 55, 82
14, 46812, Note_off_c, 13, 62, 64
14, 46812, Note_off_c, 13, 59, 64
14, 46812, Note_off_c, 13, 55, 64
14, 46848, Note_on_c, 13, 64, 85
14, 46848, Note_on_c, 13, 61, 85
14, 46848, Note_on_c, 13, 57, 85
14, 47232, Note_off_c, 13, 57, 64
14, 47232, Note_on_c, 13, 57, 74
14, 47328, Note_off_c, 13, 61, 64
14, 47328, Note_on_c, 13, 61, 70
14, 47339, Note_off_c, 13, 64, 64
14, 47339, Note_off_c, 13, 57, 64
14, 47424, Note_on_c, 13, 64, 80
14, 47427, Note_off_c, 13, 61, 64
14, 47518, Note_off_c, 13, 64, 64
14, 47520, Note_on_c, 13, 69, 100
14, 47553, Note_off_c, 13, 69, 64
14, 47712, Note_on_c, 13, 64, 95
14, 47712, Note_on_c, 13, 61, 95
14, 47712, Note_on_c, 13, 57, 95
14, 47920, Note_off_c, 13, 64, 64
14, 47920, Note_off_c, 13, 61, 64
14, 47920, Note_off_c, 13, 57, 64
14, 48096, Note_on_c, 13, 64, 95
14, 48096, Note_on_c, 13, 61, 95
14, 48096, Note_on_c, 13, 56, 95
14, 48304, Note_off_c, 13, 64, 64
14, 48304, Note_off_c, 13, 61, 64
14, 48304, Note_off_c, 13, 56, 64
14, 48480, Note_on_c, 13, 66, 95
14, 48480, Note_on_c, 13, 61, 95
14, 48480, Note_on_c, 13, 57, 95
14, 48688, Note_off_c, 13, 66, 64
14, 48688, Note_off_c, 13, 61, 64
14, 48688, Note_off_c, 13, 57, 64
14, 48864, Note_on_c, 13, 69, 95
14, 48864, Note_on_c, 13, 66, 95
14, 48864, Note_on_c, 13, 61, 95
14, 49072, Note_off_c, 13, 69, 64
14, 49072, Note_off_c, 13, 66, 64
14, 49072, Note_off_c, 13, 61, 64
14, 49248, Note_on_c, 13, 66, 95
14, 49248, Note_on_c, 13, 62, 95
14, 49248, Note_on_c, 13, 57, 95
14, 49456, Note_off_c, 13, 66, 64
14, 49456, Note_off_c, 13, 62, 64
14, 49456, Note_off_c, 13, 57, 64
14, 49632, Note_on_c, 13, 62, 95
14, 49632, Note_on_c, 13, 59, 95
14, 49632, Note_on_c, 13, 55, 95
14, 49840, Note_off_c, 13, 62, 64
14, 49840, Note_off_c, 13, 59, 64
14, 49840, Note_off_c, 13, 55, 64
14, 50016, Note_on_c, 13, 64, 82
14, 50016, Note_on_c, 13, 60, 82
14, 50016, Note_on_c, 13, 55, 82
14, 50089, Note_off_c, 13, 64, 64
14, 50089, Note_off_c, 13, 60, 64
14, 50089, Note_off_c, 13, 55, 64
14, 50208, Note_on_c, 13, 48, 68
14, 50304, Note_on_c, 13, 64, 80
14, 50304, Note_on_c, 13, 60, 80
14, 50304, Note_on_c, 13, 55, 80
14, 50320, Note_off_c, 13, 48, 64
14, 50416, Note_off_c, 13, 64, 64
14, 50416, Note_off_c, 13, 60, 64
14, 50416, Note_off_c, 13, 55, 64
14, 50496, Note_on_c, 13, 64, 82
14, 50496, Note_on_c, 13, 60, 82
14, 50496, Note_on_c, 13, 55, 82
14, 50556, Note_off_c, 13, 64, 64
14, 50556, Note_off_c, 13, 60, 64
14, 50556, Note_off_c, 13, 55, 64
14, 50688, Note_on_c, 13, 64, 87
14, 50688, Note_on_c, 13, 60, 87
14, 50688, Note_on_c, 13, 55, 87
14, 50755, Note_off_c, 13, 64, 64
14, 50755, Note_off_c, 13, 60, 64
14, 50755, Note_off_c, 13, 55, 64
14, 50784, Note_on_c, 13, 64, 82
14, 50784, Note_on_c, 13, 60, 82
14, 50784, Note_on_c, 13, 55, 82
14, 50838, Note_off_c, 13, 64, 64
14, 50838, Note_off_c, 13, 60, 64
14, 50838, Note_off_c, 13, 55, 64
14, 50976, Note_on_c, 13, 64, 82
14, 50976, Note_on_c, 13, 60, 82
14, 50976, Note_on_c, 13, 55, 82
14, 51278, Note_off_c, 13, 64, 64
14, 51278, Note_off_c, 13, 60, 64
14, 51278, Note_off_c, 13, 55, 64
14, 51456, Note_on_c, 13, 64, 85
14, 51456, Note_on_c, 13, 62, 85
14, 51456, Note_on_c, 13, 59, 85
14, 51456, Note_on_c, 13, 67, 85
14, 51840, Note_on_c, 13, 60, 74
14, 51936, Note_off_c, 13, 64, 64
14, 51936, Note_off_c, 13, 60, 64
14, 51936, Note_on_c, 13, 64, 70
14, 51947, Note_off_c, 13, 62, 64
14, 51947, Note_off_c, 13, 59, 64
14, 51947, Note_off_c, 13, 67, 64
14, 52032, Note_on_c, 13, 67, 80
14, 52035, Note_off_c, 13, 64, 64
14, 52126, Note_off_c, 13, 67, 64
14, 52128, Note_on_c, 13, 74, 100
14, 52161, Note_off_c, 13, 74, 64
14, 52224, Note_on_c, 13, 64, 87
14, 52224, Note_on_c, 13, 60, 87
14, 52224, Note_on_c, 13, 58, 87
14, 52224, Note_on_c, 13, 67, 87
14, 52291, Note_off_c, 13, 64, 64
14, 52291, Note_off_c, 13, 60, 64
14, 52291, Note_off_c, 13, 58, 64
14, 52291, Note_off_c, 13, 67, 64
14, 52320, Note_on_c, 13, 64, 82
14, 52320, Note_on_c, 13, 60, 82
14, 52320, Note_on_c, 13, 58, 82
14, 52320, Note_on_c, 13, 67, 82
14, 52374, Note_off_c, 13, 64, 64
14, 52374, Note_off_c, 13, 60, 64
14, 52374, Note_off_c, 13, 58, 64
14, 52374, Note_off_c, 13, 67, 64
14, 52512, Note_on_c, 13, 64, 82
14, 52512, Note_on_c, 13, 60, 82
14, 52512, Note_on_c, 13, 58, 82
14, 52512, Note_on_c, 13, 67, 82
14, 52814, Note_off_c, 13, 64, 64
14, 52814, Note_off_c, 13, 60, 64
14, 52814, Note_off_c, 13, 58, 64
14, 52814, Note_off_c, 13, 67, 64
14, 52992, Note_on_c, 13, 65, 82
14, 52992, Note_on_c, 13, 60, 82
14, 52992, Note_on_c, 13, 57, 82
14, 53340, Note_off_c, 13, 65, 64
14, 53340, Note_off_c, 13, 60, 64
14, 53340, Note_off_c, 13, 57, 64
14, 53376, Note_on_c, 13, 65, 82
14, 53376, Note_on_c, 13, 60, 82
14, 53376, Note_on_c, 13, 57, 82
14, 53568, Note_off_c, 13, 65, 64
14, 53568, Note_off_c, 13, 60, 64
14, 53568, Note_off_c, 13, 57, 64
14, 53568, Note_on_c, 13, 64, 82
14, 53568, Note_on_c, 13, 60, 82
14, 53568, Note_on_c, 13, 55, 82
14, 53760, Note_off_c, 13, 64, 64
14, 53760, Note_off_c, 13, 60, 64
14, 53760, Note_off_c, 13, 55, 64
14, 53760, Note_on_c, 13, 66, 87
14, 53760, Note_on_c, 13, 62, 87
14, 53760, Note_on_c, 13, 60, 87
14, 53760, Note_on_c, 13, 69, 87
14, 53761, Note_off_c, 13, 60, 64
14, 53827, Note_off_c, 13, 66, 64
14, 53827, Note_off_c, 13, 62, 64
14, 53827, Note_off_c, 13, 69, 64
14, 53856, Note_on_c, 13, 66, 82
14, 53856, Note_on_c, 13, 62, 82
14, 53856, Note_on_c, 13, 60, 82
14, 53856, Note_on_c, 13, 69, 82
14, 53910, Note_off_c, 13, 66, 64
14, 53910, Note_off_c, 13, 62, 64
14, 53910, Note_off_c, 13, 60, 64
14, 53910, Note_off_c, 13, 69, 64
14, 54048, Note_on_c, 13, 66, 82
14, 54048, Note_on_c, 13, 62, 82
14, 54048, Note_on_c, 13, 60, 82
14, 54048, Note_on_c, 13, 69, 82
14, 54350, Note_off_c, 13, 66, 64
14, 54350, Note_off_c, 13, 62, 64
14, 54350, Note_off_c, 13, 60, 64
14, 54350, Note_off_c, 13, 69, 64
14, 54528, Note_on_c, 13, 62, 82
14, 54528, Note_on_c, 13, 59, 82
14, 54528, Note_on_c, 13, 55, 82
14, 54720, Note_off_c, 13, 62, 64
14, 54720, Note_off_c, 13, 59, 64
14, 54720, Note_off_c, 13, 55, 64
14, 54720, Note_on_c, 13, 67, 82
14, 54720, Note_on_c, 13, 64, 82
14, 54720, Note_on_c, 13, 60, 82
14, 54720, Note_on_c, 13, 69, 82
14, 54912, Note_off_c, 13, 67, 64
14, 54912, Note_off_c, 13, 64, 64
14, 54912, Note_off_c, 13, 60, 64
14, 54912, Note_off_c, 13, 69, 64
14, 54912, Note_on_c, 13, 62, 82
14, 54912, Note_on_c, 13, 59, 82
14, 54912, Note_on_c, 13, 55, 82
14, 55260, Note_off_c, 13, 62, 64
14, 55260, Note_off_c, 13, 59, 64
14, 55260, Note_off_c, 13, 55, 64
14, 55392, Note_on_c, 13, 64, 95
14, 55392, Note_on_c, 13, 60, 95
14, 55392, Note_on_c, 13, 57, 95
14, 55600, Note_off_c, 13, 64, 64
14, 55600, Note_off_c, 13, 60, 64
14, 55600, Note_off_c, 13, 57, 64
14, 55776, Note_on_c, 13, 64, 95
14, 55776, Note_on_c, 13, 60, 95
14, 55776, Note_on_c, 13, 57, 95
14, 55984, Note_off_c, 13, 64, 64
14, 55984, Note_off_c, 13, 60, 64
14, 55984, Note_off_c, 13, 57, 64
14, 56160, Note_on_c, 13, 67, 95
14, 56160, Note_on_c, 13, 64, 95
14, 56160, Note_on_c, 13, 60, 95
14, 56160, Note_on_c, 13, 69, 95
14, 56368, Note_off_c, 13, 67, 64
14, 56368, Note_off_c, 13, 64, 64
14, 56368, Note_off_c, 13, 60, 64
14, 56368, Note_off_c, 13, 69, 64
14, 56448, Note_on_c, 13, 66, 82
14, 56448, Note_on_c, 13, 64, 82
14, 56448, Note_on_c, 13, 60, 82
14, 56448, Note_on_c, 13, 69, 82
14, 56796, Note_off_c, 13, 66, 64
14, 56796, Note_off_c, 13, 64, 64
14, 56796, Note_off_c, 13, 60, 64
14, 56796, Note_off_c, 13, 69, 64
14, 56832, Note_on_c, 13, 65, 82
14, 56832, Note_on_c, 13, 60, 82
14, 56832, Note_on_c, 13, 57, 82
14, 57180, Note_off_c, 13, 65, 64
14, 57180, Note_off_c, 13, 60, 64
14, 57180, Note_off_c, 13, 57, 64
14, 57216, Note_on_c, 13, 63, 82
14, 57216, Note_on_c, 13, 58, 82
14, 57216, Note_on_c, 13, 55, 82
14, 57408, Note_off_c, 13, 63, 64
14, 57408, Note_off_c, 13, 58, 64
14, 57408, Note_off_c, 13, 55, 64
14, 57408, Note_on_c, 13, 65, 82
14, 57408, Note_on_c, 13, 62, 82
14, 57408, Note_on_c, 13, 59, 82
14, 57408, Note_on_c, 13, 67, 82
14, 57600, Note_off_c, 13, 65, 64
14, 57600, Note_off_c, 13, 62, 64
14, 57600, Note_off_c, 13, 59, 64
14, 57600, Note_off_c, 13, 67, 64
14, 57600, Note_on_c, 13, 64, 89
14, 57600, Note_on_c, 13, 61, 89
14, 57600, Note_on_c, 13, 57, 89
14, 58334, Note_off_c, 13, 64, 64
14, 58334, Note_off_c, 13, 61, 64
14, 58334, Note_off_c, 13, 57, 64
14, 58464, Note_on_c, 13, 65, 95
14, 58464, Note_on_c, 13, 60, 95
14, 58464, Note_on_c, 13, 57, 95
14, 58672, Note_off_c, 13, 65, 64
14, 58672, Note_off_c, 13, 60, 64
14, 58672, Note_off_c, 13, 57, 64
14, 58752, Note_on_c, 13, 63, 82
14, 58752, Note_on_c, 13, 58, 82
14, 58752, Note_on_c, 13, 55, 82
14, 58944, Note_off_c, 13, 63, 64
14, 58944, Note_off_c, 13, 58, 64
14, 58944, Note_off_c, 13, 55, 64
14, 58944, Note_on_c, 13, 65, 82
14, 58944, Note_on_c, 13, 62, 82
14, 58944, Note_on_c, 13, 59, 82
14, 58944, Note_on_c, 13, 67, 82
14, 59136, Note_off_c, 13, 65, 64
14, 59136, Note_off_c, 13, 62, 64
14, 59136, Note_off_c, 13, 59, 64
14, 59136, Note_off_c, 13, 67, 64
14, 59136, Note_on_c, 13, 64, 127
14, 59136, Note_on_c, 13, 60, 127
14, 59136, Note_on_c, 13, 55, 127
14, 59436, Note_off_c, 13, 64, 64
14, 59436, Note_off_c, 13, 60, 64
14, 59436, Note_off_c, 13, 55, 64
14, 59436, End_track
15, 0, Start_track
15, 0, MIDI_port, 1
15, 0, Title_t, "strings2            "
15, 0, Program_c, 14, 48
15, 0, Control_c, 14, 7, 70
15, 0, Control_c, 14, 64, 0
15, 1536, Note_on_c, 14, 60, 117
15, 1536, Note_on_c, 14, 57, 126
15, 1536, Note_on_c, 14, 53, 109
15, 1920, Note_off_c, 14, 60, 64
15, 1920, Note_off_c, 14, 57, 64
15, 1920, Note_off_c, 14, 53, 64
15, 1920, Note_on_c, 14, 58, 117
15, 1920, Note_on_c, 14, 55, 126
15, 1920, Note_on_c, 14, 51, 109
15, 2112, Note_off_c, 14, 58, 64
15, 2112, Note_off_c, 14, 55, 64
15, 2112, Note_off_c, 14, 51, 64
15, 2112, Note_on_c, 14, 50, 117
15, 2112, Note_on_c, 14, 47, 126
15, 2112, Note_on_c, 14, 38, 109
15, 2304, Note_off_c, 14, 50, 64
15, 2304, Note_off_c, 14, 47, 64
15, 2304, Note_off_c, 14, 38, 64
15, 2304, Note_on_c, 14, 67, 118
15, 2304, Note_on_c, 14, 60, 117
15, 2304, Note_on_c, 14, 64, 127
15, 3072, Note_off_c, 14, 67, 64
15, 3072, Note_off_c, 14, 60, 64
15, 3072, Note_off_c, 14, 64, 64
15, 3072, Note_on_c, 14, 67, 118
15, 3072, Note_on_c, 14, 60, 117
15, 3072, Note_on_c, 14, 64, 127
15, 3073, Note_off_c, 14, 67, 64
15, 3073, Note_off_c, 14, 60, 64
15, 3073, Note_off_c, 14, 64, 64
15, 3840, Note_on_c, 14, 67, 118
15, 3840, Note_on_c, 14, 60, 117
15, 3840, Note_on_c, 14, 64, 127
15, 3841, Note_off_c, 14, 67, 64
15, 3841, Note_off_c, 14, 60, 64
15, 3841, Note_off_c, 14, 64, 64
15, 4608, Note_on_c, 14, 72, 118
15, 4608, Note_on_c, 14, 65, 117
15, 4608, Note_on_c, 14, 69, 127
15, 4992, Note_off_c, 14, 72, 64
15, 4992, Note_off_c, 14, 65, 64
15, 4992, Note_off_c, 14, 69, 64
15, 4992, Note_on_c, 14, 72, 118
15, 4992, Note_on_c, 14, 65, 117
15, 4992, Note_on_c, 14, 69, 127
15, 5184, Note_off_c, 14, 72, 64
15, 5184, Note_off_c, 14, 65, 64
15, 5184, Note_off_c, 14, 69, 64
15, 5184, Note_on_c, 14, 67, 118
15, 5184, Note_on_c, 14, 60, 117
15, 5184, Note_on_c, 14, 64, 127
15, 5376, Note_off_c, 14, 67, 64
15, 5376, Note_off_c, 14, 60, 64
15, 5376, Note_off_c, 14, 64, 64
15, 5376, Note_on_c, 14, 69, 118
15, 5376, Note_on_c, 14, 62, 117
15, 5376, Note_on_c, 14, 66, 127
15, 6144, Note_off_c, 14, 69, 64
15, 6144, Note_off_c, 14, 62, 64
15, 6144, Note_off_c, 14, 66, 64
15, 6144, Note_on_c, 14, 62, 118
15, 6144, Note_on_c, 14, 55, 117
15, 6144, Note_on_c, 14, 59, 127
15, 6145, Note_off_c, 14, 62, 64
15, 6336, Note_off_c, 14, 55, 64
15, 6336, Note_off_c, 14, 59, 64
15, 6336, Note_on_c, 14, 64, 118
15, 6336, Note_on_c, 14, 57, 117
15, 6336, Note_on_c, 14, 60, 127
15, 6528, Note_off_c, 14, 64, 64
15, 6528, Note_off_c, 14, 57, 64
15, 6528, Note_off_c, 14, 60, 64
15, 6528, Note_on_c, 14, 62, 118
15, 6528, Note_on_c, 14, 55, 117
15, 6528, Note_on_c, 14, 59, 127
15, 6912, Note_off_c, 14, 62, 64
15, 6912, Note_off_c, 14, 55, 64
15, 6912, Note_off_c, 14, 59, 64
15, 6912, Note_on_c, 14, 52, 117
15, 6912, Note_on_c, 14, 48, 126
15, 6912, Note_on_c, 14, 45, 109
15, 7296, Note_off_c, 14, 52, 64
15, 7296, Note_off_c, 14, 48, 64
15, 7296, Note_off_c, 14, 45, 64
15, 7296, Note_on_c, 14, 52, 117
15, 7296, Note_on_c, 14, 48, 126
15, 7296, Note_on_c, 14, 44, 109
15, 7680, Note_off_c, 14, 52, 64
15, 7680, Note_off_c, 14, 48, 64
15, 7680, Note_off_c, 14, 44, 64
15, 7680, Note_on_c, 14, 52, 117
15, 7680, Note_on_c, 14, 48, 126
15, 7680, Note_on_c, 14, 43, 109
15, 7681, Note_off_c, 14, 52, 64
15, 7681, Note_off_c, 14, 48, 64
15, 8064, Note_off_c, 14, 43, 64
15, 8064, Note_on_c, 14, 57, 117
15, 8064, Note_on_c, 14, 54, 126
15, 8064, Note_on_c, 14, 50, 109
15, 8448, Note_off_c, 14, 57, 64
15, 8448, Note_off_c, 14, 54, 64
15, 8448, Note_off_c, 14, 50, 64
15, 8448, Note_on_c, 14, 72, 118
15, 8448, Note_on_c, 14, 65, 117
15, 8448, Note_on_c, 14, 69, 127
15, 8832, Note_off_c, 14, 72, 64
15, 8832, Note_off_c, 14, 65, 64
15, 8832, Note_off_c, 14, 69, 64
15, 8832, Note_on_c, 14, 70, 118
15, 8832, Note_on_c, 14, 63, 117
15, 8832, Note_on_c, 14, 67, 127
15, 9024, Note_off_c, 14, 70, 64
15, 9024, Note_off_c, 14, 63, 64
15, 9024, Note_off_c, 14, 67, 64
15, 9024, Note_on_c, 14, 62, 118
15, 9024, Note_on_c, 14, 55, 117
15, 9024, Note_on_c, 14, 59, 127
15, 9216, Note_off_c, 14, 62, 64
15, 9216, Note_off_c, 14, 55, 64
15, 9216, Note_off_c, 14, 59, 64
15, 9216, Note_on_c, 14, 67, 118
15, 9216, Note_on_c, 14, 60, 117
15, 9216, Note_on_c, 14, 64, 127
15, 9984, Note_off_c, 14, 67, 64
15, 9984, Note_off_c, 14, 60, 64
15, 9984, Note_off_c, 14, 64, 64
15, 9984, Note_on_c, 14, 67, 118
15, 9984, Note_on_c, 14, 60, 117
15, 9984, Note_on_c, 14, 64, 127
15, 9985, Note_off_c, 14, 67, 64
15, 9985, Note_off_c, 14, 60, 64
15, 9985, Note_off_c, 14, 64, 64
15, 10752, Note_on_c, 14, 67, 118
15, 10752, Note_on_c, 14, 60, 117
15, 10752, Note_on_c, 14, 64, 127
15, 10753, Note_off_c, 14, 67, 64
15, 10753, Note_off_c, 14, 60, 64
15, 10753, Note_off_c, 14, 64, 64
15, 11520, Note_on_c, 14, 72, 118
15, 11520, Note_on_c, 14, 65, 117
15, 11520, Note_on_c, 14, 69, 127
15, 11904, Note_off_c, 14, 72, 64
15, 11904, Note_off_c, 14, 65, 64
15, 11904, Note_off_c, 14, 69, 64
15, 11904, Note_on_c, 14, 72, 118
15, 11904, Note_on_c, 14, 65, 117
15, 11904, Note_on_c, 14, 69, 127
15, 12096, Note_off_c, 14, 72, 64
15, 12096, Note_off_c, 14, 65, 64
15, 12096, Note_off_c, 14, 69, 64
15, 12096, Note_on_c, 14, 67, 118
15, 12096, Note_on_c, 14, 60, 117
15, 12096, Note_on_c, 14, 64, 127
15, 12288, Note_off_c, 14, 67, 64
15, 12288, Note_off_c, 14, 60, 64
15, 12288, Note_off_c, 14, 64, 64
15, 12288, Note_on_c, 14, 69, 118
15, 12288, Note_on_c, 14, 62, 117
15, 12288, Note_on_c, 14, 66, 127
15, 13056, Note_off_c, 14, 69, 64
15, 13056, Note_off_c, 14, 62, 64
15, 13056, Note_off_c, 14, 66, 64
15, 13056, Note_on_c, 14, 62, 118
15, 13056, Note_on_c, 14, 55, 117
15, 13056, Note_on_c, 14, 59, 127
15, 13057, Note_off_c, 14, 62, 64
15, 13248, Note_off_c, 14, 55, 64
15, 13248, Note_off_c, 14, 59, 64
15, 13248, Note_on_c, 14, 64, 118
15, 13248, Note_on_c, 14, 57, 117
15, 13248, Note_on_c, 14, 60, 127
15, 13440, Note_off_c, 14, 64, 64
15, 13440, Note_off_c, 14, 57, 64
15, 13440, Note_off_c, 14, 60, 64
15, 13440, Note_on_c, 14, 62, 118
15, 13440, Note_on_c, 14, 55, 117
15, 13440, Note_on_c, 14, 59, 127
15, 13824, Note_off_c, 14, 62, 64
15, 13824, Note_off_c, 14, 55, 64
15, 13824, Note_off_c, 14, 59, 64
15, 13824, Note_on_c, 14, 52, 117
15, 13824, Note_on_c, 14, 48, 126
15, 13824, Note_on_c, 14, 45, 109
15, 14208, Note_off_c, 14, 52, 64
15, 14208, Note_off_c, 14, 48, 64
15, 14208, Note_off_c, 14, 45, 64
15, 14208, Note_on_c, 14, 52, 117
15, 14208, Note_on_c, 14, 48, 126
15, 14208, Note_on_c, 14, 44, 109
15, 14592, Note_off_c, 14, 52, 64
15, 14592, Note_off_c, 14, 48, 64
15, 14592, Note_off_c, 14, 44, 64
15, 14592, Note_on_c, 14, 52, 117
15, 14592, Note_on_c, 14, 48, 126
15, 14592, Note_on_c, 14, 43, 109
15, 14593, Note_off_c, 14, 52, 64
15, 14593, Note_off_c, 14, 48, 64
15, 14976, Note_off_c, 14, 43, 64
15, 14976, Note_on_c, 14, 57, 117
15, 14976, Note_on_c, 14, 54, 126
15, 14976, Note_on_c, 14, 50, 109
15, 15360, Note_off_c, 14, 57, 64
15, 15360, Note_off_c, 14, 54, 64
15, 15360, Note_off_c, 14, 50, 64
15, 15360, Note_on_c, 14, 72, 118
15, 15360, Note_on_c, 14, 65, 117
15, 15360, Note_on_c, 14, 69, 127
15, 15744, Note_off_c, 14, 72, 64
15, 15744, Note_off_c, 14, 65, 64
15, 15744, Note_off_c, 14, 69, 64
15, 15744, Note_on_c, 14, 70, 118
15, 15744, Note_on_c, 14, 63, 117
15, 15744, Note_on_c, 14, 67, 127
15, 15936, Note_off_c, 14, 70, 64
15, 15936, Note_off_c, 14, 63, 64
15, 15936, Note_off_c, 14, 67, 64
15, 15936, Note_on_c, 14, 62, 118
15, 15936, Note_on_c, 14, 55, 117
15, 15936, Note_on_c, 14, 59, 127
15, 16128, Note_off_c, 14, 62, 64
15, 16128, Note_off_c, 14, 55, 64
15, 16128, Note_off_c, 14, 59, 64
15, 16128, Note_on_c, 14, 64, 118
15, 16128, Note_on_c, 14, 57, 117
15, 16128, Note_on_c, 14, 61, 127
15, 16896, Note_off_c, 14, 64, 64
15, 16896, Note_off_c, 14, 57, 64
15, 16896, Note_off_c, 14, 61, 64
15, 16896, Note_on_c, 14, 64, 118
15, 16896, Note_on_c, 14, 57, 117
15, 16896, Note_on_c, 14, 61, 127
15, 16897, Note_off_c, 14, 64, 64
15, 16897, Note_off_c, 14, 57, 64
15, 16897, Note_off_c, 14, 61, 64
15, 17280, Note_on_c, 14, 68, 118
15, 17280, Note_on_c, 14, 61, 117
15, 17280, Note_on_c, 14, 64, 127
15, 17281, Note_off_c, 14, 61, 64
15, 17281, Note_off_c, 14, 64, 64
15, 17664, Note_off_c, 14, 68, 64
15, 17664, Note_on_c, 14, 61, 118
15, 17664, Note_on_c, 14, 54, 117
15, 17664, Note_on_c, 14, 57, 127
15, 17665, Note_off_c, 14, 61, 64
15, 18048, Note_off_c, 14, 54, 64
15, 18048, Note_off_c, 14, 57, 64
15, 18048, Note_on_c, 14, 61, 118
15, 18048, Note_on_c, 14, 54, 117
15, 18048, Note_on_c, 14, 57, 127
15, 18049, Note_off_c, 14, 61, 64
15, 18432, Note_off_c, 14, 54, 64
15, 18432, Note_off_c, 14, 57, 64
15, 18432, Note_on_c, 14, 69, 118
15, 18432, Note_on_c, 14, 62, 117
15, 18432, Note_on_c, 14, 66, 127
15, 18816, Note_off_c, 14, 69, 64
15, 18816, Note_off_c, 14, 62, 64
15, 18816, Note_off_c, 14, 66, 64
15, 18816, Note_on_c, 14, 62, 118
15, 18816, Note_on_c, 14, 55, 117
15, 18816, Note_on_c, 14, 59, 127
15, 19200, Note_off_c, 14, 62, 64
15, 19200, Note_off_c, 14, 55, 64
15, 19200, Note_off_c, 14, 59, 64
15, 19200, Note_on_c, 14, 64, 118
15, 19200, Note_on_c, 14, 57, 117
15, 19200, Note_on_c, 14, 61, 127
15, 19968, Note_off_c, 14, 64, 64
15, 19968, Note_off_c, 14, 57, 64
15, 19968, Note_off_c, 14, 61, 64
15, 19968, Note_on_c, 14, 64, 118
15, 19968, Note_on_c, 14, 57, 117
15, 19968, Note_on_c, 14, 61, 127
15, 19969, Note_off_c, 14, 64, 64
15, 19969, Note_off_c, 14, 57, 64
15, 19969, Note_off_c, 14, 61, 64
15, 20352, Note_on_c, 14, 68, 118
15, 20352, Note_on_c, 14, 61, 117
15, 20352, Note_on_c, 14, 64, 127
15, 20353, Note_off_c, 14, 61, 64
15, 20353, Note_off_c, 14, 64, 64
15, 20736, Note_off_c, 14, 68, 64
15, 20736, Note_on_c, 14, 61, 118
15, 20736, Note_on_c, 14, 54, 117
15, 20736, Note_on_c, 14, 57, 127
15, 20737, Note_off_c, 14, 61, 64
15, 21120, Note_off_c, 14, 54, 64
15, 21120, Note_off_c, 14, 57, 64
15, 21120, Note_on_c, 14, 61, 118
15, 21120, Note_on_c, 14, 54, 117
15, 21120, Note_on_c, 14, 57, 127
15, 21121, Note_off_c, 14, 61, 64
15, 21504, Note_off_c, 14, 54, 64
15, 21504, Note_off_c, 14, 57, 64
15, 21504, Note_on_c, 14, 69, 118
15, 21504, Note_on_c, 14, 62, 117
15, 21504, Note_on_c, 14, 66, 127
15, 21888, Note_off_c, 14, 69, 64
15, 21888, Note_off_c, 14, 62, 64
15, 21888, Note_off_c, 14, 66, 64
15, 21888, Note_on_c, 14, 62, 118
15, 21888, Note_on_c, 14, 55, 117
15, 21888, Note_on_c, 14, 59, 127
15, 22272, Note_off_c, 14, 62, 64
15, 22272, Note_off_c, 14, 55, 64
15, 22272, Note_off_c, 14, 59, 64
15, 22272, Note_on_c, 14, 55, 117
15, 22272, Note_on_c, 14, 52, 126
15, 22272, Note_on_c, 14, 48, 109
15, 22273, Note_off_c, 14, 55, 64
15, 23808, Note_off_c, 14, 52, 64
15, 23808, Note_off_c, 14, 48, 64
15, 23808, Note_on_c, 14, 55, 117
15, 23808, Note_on_c, 14, 52, 126
15, 23808, Note_on_c, 14, 48, 109
15, 23809, Note_off_c, 14, 55, 64
15, 23809, Note_off_c, 14, 52, 64
15, 23809, Note_off_c, 14, 48, 64
15, 24576, Note_on_c, 14, 55, 117
15, 24576, Note_on_c, 14, 52, 126
15, 24576, Note_on_c, 14, 48, 109
15, 24577, Note_off_c, 14, 55, 64
15, 24577, Note_off_c, 14, 52, 64
15, 24577, Note_off_c, 14, 48, 64
15, 25344, Note_on_c, 14, 60, 117
15, 25344, Note_on_c, 14, 57, 126
15, 25344, Note_on_c, 14, 53, 109
15, 25728, Note_off_c, 14, 60, 64
15, 25728, Note_off_c, 14, 57, 64
15, 25728, Note_off_c, 14, 53, 64
15, 25728, Note_on_c, 14, 60, 117
15, 25728, Note_on_c, 14, 57, 126
15, 25728, Note_on_c, 14, 53, 109
15, 25920, Note_off_c, 14, 60, 64
15, 25920, Note_off_c, 14, 57, 64
15, 25920, Note_off_c, 14, 53, 64
15, 25920, Note_on_c, 14, 55, 117
15, 25920, Note_on_c, 14, 52, 126
15, 26112, Note_off_c, 14, 55, 64
15, 26112, Note_off_c, 14, 52, 64
15, 26112, Note_on_c, 14, 69, 118
15, 26112, Note_on_c, 14, 62, 117
15, 26112, Note_on_c, 14, 66, 127
15, 26880, Note_off_c, 14, 69, 64
15, 26880, Note_off_c, 14, 62, 64
15, 26880, Note_off_c, 14, 66, 64
15, 26880, Note_on_c, 14, 62, 118
15, 26880, Note_on_c, 14, 55, 117
15, 26880, Note_on_c, 14, 59, 127
15, 26881, Note_off_c, 14, 62, 64
15, 27072, Note_off_c, 14, 55, 64
15, 27072, Note_off_c, 14, 59, 64
15, 27072, Note_on_c, 14, 64, 118
15, 27072, Note_on_c, 14, 57, 117
15, 27072, Note_on_c, 14, 60, 127
15, 27264, Note_off_c, 14, 64, 64
15, 27264, Note_off_c, 14, 57, 64
15, 27264, Note_off_c, 14, 60, 64
15, 27264, Note_on_c, 14, 62, 118
15, 27264, Note_on_c, 14, 55, 117
15, 27264, Note_on_c, 14, 59, 127
15, 27648, Note_off_c, 14, 62, 64
15, 27648, Note_off_c, 14, 55, 64
15, 27648, Note_off_c, 14, 59, 64
15, 27648, Note_on_c, 14, 52, 117
15, 27648, Note_on_c, 14, 48, 126
15, 27648, Note_on_c, 14, 45, 109
15, 28032, Note_off_c, 14, 52, 64
15, 28032, Note_off_c, 14, 48, 64
15, 28032, Note_off_c, 14, 45, 64
15, 28032, Note_on_c, 14, 52, 117
15, 28032, Note_on_c, 14, 48, 126
15, 28032, Note_on_c, 14, 44, 109
15, 28416, Note_off_c, 14, 52, 64
15, 28416, Note_off_c, 14, 48, 64
15, 28416, Note_off_c, 14, 44, 64
15, 28416, Note_on_c, 14, 52, 117
15, 28416, Note_on_c, 14, 48, 126
15, 28416, Note_on_c, 14, 45, 109
15, 28417, Note_off_c, 14, 52, 64
15, 28417, Note_off_c, 14, 48, 64
15, 28800, Note_off_c, 14, 45, 64
15, 28800, Note_on_c, 14, 57, 117
15, 28800, Note_on_c, 14, 54, 126
15, 28800, Note_on_c, 14, 50, 109
15, 29184, Note_off_c, 14, 57, 64
15, 29184, Note_off_c, 14, 54, 64
15, 29184, Note_off_c, 14, 50, 64
15, 29184, Note_on_c, 14, 60, 117
15, 29184, Note_on_c, 14, 57, 126
15, 29184, Note_on_c, 14, 53, 109
15, 29185, Note_off_c, 14, 57, 64
15, 29568, Note_off_c, 14, 60, 64
15, 29568, Note_off_c, 14, 53, 64
15, 29568, Note_on_c, 14, 58, 117
15, 29568, Note_on_c, 14, 55, 126
15, 29568, Note_on_c, 14, 51, 109
15, 29760, Note_off_c, 14, 58, 64
15, 29760, Note_off_c, 14, 55, 64
15, 29760, Note_off_c, 14, 51, 64
15, 29760, Note_on_c, 14, 50, 117
15, 29760, Note_on_c, 14, 47, 126
15, 29760, Note_on_c, 14, 38, 109
15, 29952, Note_off_c, 14, 50, 64
15, 29952, Note_off_c, 14, 47, 64
15, 29952, Note_off_c, 14, 38, 64
15, 29952, Note_on_c, 14, 67, 118
15, 29952, Note_on_c, 14, 60, 117
15, 29952, Note_on_c, 14, 64, 127
15, 30720, Note_off_c, 14, 67, 64
15, 30720, Note_off_c, 14, 60, 64
15, 30720, Note_off_c, 14, 64, 64
15, 30720, Note_on_c, 14, 67, 118
15, 30720, Note_on_c, 14, 60, 117
15, 30720, Note_on_c, 14, 64, 127
15, 30721, Note_off_c, 14, 67, 64
15, 30721, Note_off_c, 14, 60, 64
15, 30721, Note_off_c, 14, 64, 64
15, 31488, Note_on_c, 14, 67, 118
15, 31488, Note_on_c, 14, 60, 117
15, 31488, Note_on_c, 14, 64, 127
15, 31489, Note_off_c, 14, 67, 64
15, 31489, Note_off_c, 14, 60, 64
15, 31489, Note_off_c, 14, 64, 64
15, 32256, Note_on_c, 14, 72, 118
15, 32256, Note_on_c, 14, 65, 117
15, 32256, Note_on_c, 14, 69, 127
15, 32640, Note_off_c, 14, 72, 64
15, 32640, Note_off_c, 14, 65, 64
15, 32640, Note_off_c, 14, 69, 64
15, 32640, Note_on_c, 14, 72, 118
15, 32640, Note_on_c, 14, 65, 117
15, 32640, Note_on_c, 14, 69, 127
15, 32832, Note_off_c, 14, 72, 64
15, 32832, Note_off_c, 14, 65, 64
15, 32832, Note_off_c, 14, 69, 64
15, 32832, Note_on_c, 14, 67, 118
15, 32832, Note_on_c, 14, 60, 117
15, 32832, Note_on_c, 14, 64, 127
15, 33024, Note_off_c, 14, 67, 64
15, 33024, Note_off_c, 14, 60, 64
15, 33024, Note_off_c, 14, 64, 64
15, 33024, Note_on_c, 14, 69, 118
15, 33024, Note_on_c, 14, 62, 117
15, 33024, Note_on_c, 14, 66, 127
15, 33792, Note_off_c, 14, 69, 64
15, 33792, Note_off_c, 14, 62, 64
15, 33792, Note_off_c, 14, 66, 64
15, 33792, Note_on_c, 14, 62, 118
15, 33792, Note_on_c, 14, 55, 117
15, 33792, Note_on_c, 14, 59, 127
15, 33793, Note_off_c, 14, 62, 64
15, 33984, Note_off_c, 14, 55, 64
15, 33984, Note_off_c, 14, 59, 64
15, 33984, Note_on_c, 14, 64, 118
15, 33984, Note_on_c, 14, 57, 117
15, 33984, Note_on_c, 14, 60, 127
15, 34176, Note_off_c, 14, 64, 64
15, 34176, Note_off_c, 14, 57, 64
15, 34176, Note_off_c, 14, 60, 64
15, 34176, Note_on_c, 14, 62, 118
15, 34176, Note_on_c, 14, 55, 117
15, 34176, Note_on_c, 14, 59, 127
15, 34560, Note_off_c, 14, 62, 64
15, 34560, Note_off_c, 14, 55, 64
15, 34560, Note_off_c, 14, 59, 64
15, 34560, Note_on_c, 14, 52, 117
15, 34560, Note_on_c, 14, 48, 126
15, 34560, Note_on_c, 14, 45, 109
15, 34944, Note_off_c, 14, 52, 64
15, 34944, Note_off_c, 14, 48, 64
15, 34944, Note_off_c, 14, 45, 64
15, 34944, Note_on_c, 14, 52, 117
15, 34944, Note_on_c, 14, 48, 126
15, 34944, Note_on_c, 14, 44, 109
15, 35328, Note_off_c, 14, 52, 64
15, 35328, Note_off_c, 14, 48, 64
15, 35328, Note_off_c, 14, 44, 64
15, 35328, Note_on_c, 14, 52, 117
15, 35328, Note_on_c, 14, 48, 126
15, 35328, Note_on_c, 14, 43, 109
15, 35329, Note_off_c, 14, 52, 64
15, 35329, Note_off_c, 14, 48, 64
15, 35712, Note_off_c, 14, 43, 64
15, 35712, Note_on_c, 14, 57, 117
15, 35712, Note_on_c, 14, 54, 126
15, 35712, Note_on_c, 14, 50, 109
15, 36096, Note_off_c, 14, 57, 64
15, 36096, Note_off_c, 14, 54, 64
15, 36096, Note_off_c, 14, 50, 64
15, 36096, Note_on_c, 14, 72, 118
15, 36096, Note_on_c, 14, 65, 117
15, 36096, Note_on_c, 14, 69, 127
15, 36480, Note_off_c, 14, 72, 64
15, 36480, Note_off_c, 14, 65, 64
15, 36480, Note_off_c, 14, 69, 64
15, 36480, Note_on_c, 14, 70, 118
15, 36480, Note_on_c, 14, 63, 117
15, 36480, Note_on_c, 14, 67, 127
15, 36672, Note_off_c, 14, 70, 64
15, 36672, Note_off_c, 14, 63, 64
15, 36672, Note_off_c, 14, 67, 64
15, 36672, Note_on_c, 14, 62, 118
15, 36672, Note_on_c, 14, 55, 117
15, 36672, Note_on_c, 14, 59, 127
15, 36864, Note_off_c, 14, 62, 64
15, 36864, Note_off_c, 14, 55, 64
15, 36864, Note_off_c, 14, 59, 64
15, 36864, Note_on_c, 14, 67, 118
15, 36864, Note_on_c, 14, 60, 117
15, 36864, Note_on_c, 14, 64, 127
15, 37632, Note_off_c, 14, 67, 64
15, 37632, Note_off_c, 14, 60, 64
15, 37632, Note_off_c, 14, 64, 64
15, 37632, Note_on_c, 14, 67, 118
15, 37632, Note_on_c, 14, 60, 117
15, 37632, Note_on_c, 14, 64, 127
15, 37633, Note_off_c, 14, 67, 64
15, 37633, Note_off_c, 14, 60, 64
15, 37633, Note_off_c, 14, 64, 64
15, 38400, Note_on_c, 14, 67, 118
15, 38400, Note_on_c, 14, 60, 117
15, 38400, Note_on_c, 14, 64, 127
15, 38401, Note_off_c, 14, 67, 64
15, 38401, Note_off_c, 14, 60, 64
15, 38401, Note_off_c, 14, 64, 64
15, 39168, Note_on_c, 14, 72, 118
15, 39168, Note_on_c, 14, 65, 117
15, 39168, Note_on_c, 14, 69, 127
15, 39552, Note_off_c, 14, 72, 64
15, 39552, Note_off_c, 14, 65, 64
15, 39552, Note_off_c, 14, 69, 64
15, 39552, Note_on_c, 14, 72, 118
15, 39552, Note_on_c, 14, 65, 117
15, 39552, Note_on_c, 14, 69, 127
15, 39744, Note_off_c, 14, 72, 64
15, 39744, Note_off_c, 14, 65, 64
15, 39744, Note_off_c, 14, 69, 64
15, 39744, Note_on_c, 14, 67, 118
15, 39744, Note_on_c, 14, 60, 117
15, 39744, Note_on_c, 14, 64, 127
15, 39936, Note_off_c, 14, 67, 64
15, 39936, Note_off_c, 14, 60, 64
15, 39936, Note_off_c, 14, 64, 64
15, 39936, Note_on_c, 14, 69, 118
15, 39936, Note_on_c, 14, 62, 117
15, 39936, Note_on_c, 14, 66, 127
15, 40704, Note_off_c, 14, 69, 64
15, 40704, Note_off_c, 14, 62, 64
15, 40704, Note_off_c, 14, 66, 64
15, 40704, Note_on_c, 14, 62, 118
15, 40704, Note_on_c, 14, 55, 117
15, 40704, Note_on_c, 14, 59, 127
15, 40705, Note_off_c, 14, 62, 64
15, 40896, Note_off_c, 14, 55, 64
15, 40896, Note_off_c, 14, 59, 64
15, 40896, Note_on_c, 14, 64, 118
15, 40896, Note_on_c, 14, 57, 117
15, 40896, Note_on_c, 14, 60, 127
15, 41088, Note_off_c, 14, 64, 64
15, 41088, Note_off_c, 14, 57, 64
15, 41088, Note_off_c, 14, 60, 64
15, 41088, Note_on_c, 14, 62, 118
15, 41088, Note_on_c, 14, 55, 117
15, 41088, Note_on_c, 14, 59, 127
15, 41472, Note_off_c, 14, 62, 64
15, 41472, Note_off_c, 14, 55, 64
15, 41472, Note_off_c, 14, 59, 64
15, 41472, Note_on_c, 14, 52, 117
15, 41472, Note_on_c, 14, 48, 126
15, 41472, Note_on_c, 14, 45, 109
15, 41856, Note_off_c, 14, 52, 64
15, 41856, Note_off_c, 14, 48, 64
15, 41856, Note_off_c, 14, 45, 64
15, 41856, Note_on_c, 14, 52, 117
15, 41856, Note_on_c, 14, 48, 126
15, 41856, Note_on_c, 14, 44, 109
15, 42240, Note_off_c, 14, 52, 64
15, 42240, Note_off_c, 14, 48, 64
15, 42240, Note_off_c, 14, 44, 64
15, 42240, Note_on_c, 14, 52, 117
15, 42240, Note_on_c, 14, 48, 126
15, 42240, Note_on_c, 14, 43, 109
15, 42241, Note_off_c, 14, 52, 64
15, 42241, Note_off_c, 14, 48, 64
15, 42624, Note_off_c, 14, 43, 64
15, 42624, Note_on_c, 14, 57, 117
15, 42624, Note_on_c, 14, 54, 126
15, 42624, Note_on_c, 14, 50, 109
15, 43008, Note_off_c, 14, 57, 64
15, 43008, Note_off_c, 14, 54, 64
15, 43008, Note_off_c, 14, 50, 64
15, 43008, Note_on_c, 14, 72, 118
15, 43008, Note_on_c, 14, 65, 117
15, 43008, Note_on_c, 14, 69, 127
15, 43392, Note_off_c, 14, 72, 64
15, 43392, Note_off_c, 14, 65, 64
15, 43392, Note_off_c, 14, 69, 64
15, 43392, Note_on_c, 14, 70, 118
15, 43392, Note_on_c, 14, 63, 117
15, 43392, Note_on_c, 14, 67, 127
15, 43584, Note_off_c, 14, 70, 64
15, 43584, Note_off_c, 14, 63, 64
15, 43584, Note_off_c, 14, 67, 64
15, 43584, Note_on_c, 14, 62, 118
15, 43584, Note_on_c, 14, 55, 117
15, 43584, Note_on_c, 14, 59, 127
15, 43776, Note_off_c, 14, 62, 64
15, 43776, Note_off_c, 14, 55, 64
15, 43776, Note_off_c, 14, 59, 64
15, 43776, Note_on_c, 14, 64, 118
15, 43776, Note_on_c, 14, 57, 117
15, 43776, Note_on_c, 14, 61, 127
15, 44544, Note_off_c, 14, 64, 64
15, 44544, Note_off_c, 14, 57, 64
15, 44544, Note_off_c, 14, 61, 64
15, 44544, Note_on_c, 14, 64, 118
15, 44544, Note_on_c, 14, 57, 117
15, 44544, Note_on_c, 14, 61, 127
15, 44545, Note_off_c, 14, 64, 64
15, 44545, Note_off_c, 14, 57, 64
15, 44545, Note_off_c, 14, 61, 64
15, 44928, Note_on_c, 14, 68, 118
15, 44928, Note_on_c, 14, 61, 117
15, 44928, Note_on_c, 14, 64, 127
15, 44929, Note_off_c, 14, 61, 64
15, 44929, Note_off_c, 14, 64, 64
15, 45312, Note_off_c, 14, 68, 64
15, 45312, Note_on_c, 14, 61, 118
15, 45312, Note_on_c, 14, 54, 117
15, 45312, Note_on_c, 14, 57, 127
15, 45313, Note_off_c, 14, 61, 64
15, 45696, Note_off_c, 14, 54, 64
15, 45696, Note_off_c, 14, 57, 64
15, 45696, Note_on_c, 14, 61, 118
15, 45696, Note_on_c, 14, 54, 117
15, 45696, Note_on_c, 14, 57, 127
15, 45697, Note_off_c, 14, 61, 64
15, 46080, Note_off_c, 14, 54, 64
15, 46080, Note_off_c, 14, 57, 64
15, 46080, Note_on_c, 14, 69, 118
15, 46080, Note_on_c, 14, 62, 117
15, 46080, Note_on_c, 14, 66, 127
15, 46464, Note_off_c, 14, 69, 64
15, 46464, Note_off_c, 14, 62, 64
15, 46464, Note_off_c, 14, 66, 64
15, 46464, Note_on_c, 14, 62, 118
15, 46464, Note_on_c, 14, 55, 117
15, 46464, Note_on_c, 14, 59, 127
15, 46848, Note_off_c, 14, 62, 64
15, 46848, Note_off_c, 14, 55, 64
15, 46848, Note_off_c, 14, 59, 64
15, 46848, Note_on_c, 14, 64, 118
15, 46848, Note_on_c, 14, 57, 117
15, 46848, Note_on_c, 14, 61, 127
15, 47616, Note_off_c, 14, 64, 64
15, 47616, Note_off_c, 14, 57, 64
15, 47616, Note_off_c, 14, 61, 64
15, 47616, Note_on_c, 14, 64, 118
15, 47616, Note_on_c, 14, 57, 117
15, 47616, Note_on_c, 14, 61, 127
15, 47617, Note_off_c, 14, 64, 64
15, 47617, Note_off_c, 14, 57, 64
15, 47617, Note_off_c, 14, 61, 64
15, 48000, Note_on_c, 14, 68, 118
15, 48000, Note_on_c, 14, 61, 117
15, 48000, Note_on_c, 14, 64, 127
15, 48001, Note_off_c, 14, 61, 64
15, 48001, Note_off_c, 14, 64, 64
15, 48384, Note_off_c, 14, 68, 64
15, 48384, Note_on_c, 14, 61, 118
15, 48384, Note_on_c, 14, 54, 117
15, 48384, Note_on_c, 14, 57, 127
15, 48385, Note_off_c, 14, 61, 64
15, 48768, Note_off_c, 14, 54, 64
15, 48768, Note_off_c, 14, 57, 64
15, 48768, Note_on_c, 14, 61, 118
15, 48768, Note_on_c, 14, 54, 117
15, 48768, Note_on_c, 14, 57, 127
15, 48769, Note_off_c, 14, 61, 64
15, 49152, Note_off_c, 14, 54, 64
15, 49152, Note_off_c, 14, 57, 64
15, 49152, Note_on_c, 14, 69, 118
15, 49152, Note_on_c, 14, 62, 117
15, 49152, Note_on_c, 14, 66, 127
15, 49536, Note_off_c, 14, 69, 64
15, 49536, Note_off_c, 14, 62, 64
15, 49536, Note_off_c, 14, 66, 64
15, 49536, Note_on_c, 14, 62, 118
15, 49536, Note_on_c, 14, 55, 117
15, 49536, Note_on_c, 14, 59, 127
15, 49920, Note_off_c, 14, 62, 64
15, 49920, Note_off_c, 14, 55, 64
15, 49920, Note_off_c, 14, 59, 64
15, 49920, Note_on_c, 14, 67, 118
15, 49920, Note_on_c, 14, 60, 117
15, 49920, Note_on_c, 14, 64, 127
15, 50688, Note_off_c, 14, 67, 64
15, 50688, Note_off_c, 14, 60, 64
15, 50688, Note_off_c, 14, 64, 64
15, 50688, Note_on_c, 14, 67, 118
15, 50688, Note_on_c, 14, 60, 117
15, 50688, Note_on_c, 14, 64, 127
15, 50689, Note_off_c, 14, 67, 64
15, 50689, Note_off_c, 14, 60, 64
15, 50689, Note_off_c, 14, 64, 64
15, 51456, Note_on_c, 14, 67, 118
15, 51456, Note_on_c, 14, 60, 117
15, 51456, Note_on_c, 14, 64, 127
15, 51457, Note_off_c, 14, 67, 64
15, 51457, Note_off_c, 14, 60, 64
15, 51457, Note_off_c, 14, 64, 64
15, 52224, Note_on_c, 14, 67, 118
15, 52224, Note_on_c, 14, 60, 117
15, 52224, Note_on_c, 14, 64, 127
15, 52225, Note_off_c, 14, 67, 64
15, 52225, Note_off_c, 14, 60, 64
15, 52225, Note_off_c, 14, 64, 64
15, 52992, Note_on_c, 14, 72, 118
15, 52992, Note_on_c, 14, 65, 117
15, 52992, Note_on_c, 14, 69, 127
15, 53376, Note_off_c, 14, 72, 64
15, 53376, Note_off_c, 14, 65, 64
15, 53376, Note_off_c, 14, 69, 64
15, 53376, Note_on_c, 14, 72, 118
15, 53376, Note_on_c, 14, 65, 117
15, 53376, Note_on_c, 14, 69, 127
15, 53568, Note_off_c, 14, 72, 64
15, 53568, Note_off_c, 14, 65, 64
15, 53568, Note_off_c, 14, 69, 64
15, 53568, Note_on_c, 14, 67, 118
15, 53568, Note_on_c, 14, 60, 117
15, 53568, Note_on_c, 14, 64, 127
15, 53760, Note_off_c, 14, 67, 64
15, 53760, Note_off_c, 14, 60, 64
15, 53760, Note_off_c, 14, 64, 64
15, 53760, Note_on_c, 14, 69, 118
15, 53760, Note_on_c, 14, 62, 117
15, 53760, Note_on_c, 14, 66, 127
15, 54528, Note_off_c, 14, 69, 64
15, 54528, Note_off_c, 14, 62, 64
15, 54528, Note_off_c, 14, 66, 64
15, 54528, Note_on_c, 14, 62, 118
15, 54528, Note_on_c, 14, 55, 117
15, 54528, Note_on_c, 14, 59, 127
15, 54529, Note_off_c, 14, 62, 64
15, 54720, Note_off_c, 14, 55, 64
15, 54720, Note_off_c, 14, 59, 64
15, 54720, Note_on_c, 14, 64, 118
15, 54720, Note_on_c, 14, 57, 117
15, 54720, Note_on_c, 14, 60, 127
15, 54912, Note_off_c, 14, 64, 64
15, 54912, Note_off_c, 14, 57, 64
15, 54912, Note_off_c, 14, 60, 64
15, 54912, Note_on_c, 14, 62, 118
15, 54912, Note_on_c, 14, 55, 117
15, 54912, Note_on_c, 14, 59, 127
15, 55296, Note_off_c, 14, 62, 64
15, 55296, Note_off_c, 14, 55, 64
15, 55296, Note_off_c, 14, 59, 64
15, 55296, Note_on_c, 14, 64, 118
15, 55296, Note_on_c, 14, 57, 117
15, 55296, Note_on_c, 14, 60, 127
15, 55680, Note_off_c, 14, 64, 64
15, 55680, Note_off_c, 14, 57, 64
15, 55680, Note_off_c, 14, 60, 64
15, 55680, Note_on_c, 14, 64, 118
15, 55680, Note_on_c, 14, 57, 117
15, 55680, Note_on_c, 14, 60, 127
15, 56064, Note_off_c, 14, 64, 64
15, 56064, Note_off_c, 14, 57, 64
15, 56064, Note_off_c, 14, 60, 64
15, 56064, Note_on_c, 14, 64, 118
15, 56064, Note_on_c, 14, 57, 117
15, 56064, Note_on_c, 14, 60, 127
15, 56065, Note_off_c, 14, 64, 64
15, 56065, Note_off_c, 14, 57, 64
15, 56065, Note_off_c, 14, 60, 64
15, 56448, Note_on_c, 14, 69, 118
15, 56448, Note_on_c, 14, 64, 117
15, 56448, Note_on_c, 14, 66, 127
15, 56449, Note_off_c, 14, 64, 64
15, 56832, Note_off_c, 14, 69, 64
15, 56832, Note_off_c, 14, 66, 64
15, 56832, Note_on_c, 14, 72, 118
15, 56832, Note_on_c, 14, 65, 117
15, 56832, Note_on_c, 14, 69, 127
15, 56833, Note_off_c, 14, 69, 64
15, 57216, Note_off_c, 14, 72, 64
15, 57216, Note_off_c, 14, 65, 64
15, 57216, Note_on_c, 14, 70, 118
15, 57216, Note_on_c, 14, 63, 117
15, 57216, Note_on_c, 14, 67, 127
15, 57408, Note_off_c, 14, 70, 64
15, 57408, Note_off_c, 14, 63, 64
15, 57408, Note_off_c, 14, 67, 64
15, 57408, Note_on_c, 14, 62, 118
15, 57408, Note_on_c, 14, 55, 117
15, 57408, Note_on_c, 14, 59, 127
15, 57600, Note_off_c, 14, 62, 64
15, 57600, Note_off_c, 14, 55, 64
15, 57600, Note_off_c, 14, 59, 64
15, 57600, Note_on_c, 14, 64, 118
15, 57600, Note_on_c, 14, 57, 117
15, 57600, Note_on_c, 14, 61, 127
15, 58368, Note_off_c, 14, 64, 64
15, 58368, Note_off_c, 14, 57, 64
15, 58368, Note_off_c, 14, 61, 64
15, 58368, Note_on_c, 14, 72, 118
15, 58368, Note_on_c, 14, 65, 117
15, 58368, Note_on_c, 14, 69, 127
15, 58752, Note_off_c, 14, 72, 64
15, 58752, Note_off_c, 14, 65, 64
15, 58752, Note_off_c, 14, 69, 64
15, 58752, Note_on_c, 14, 70, 118
15, 58752, Note_on_c, 14, 63, 117
15, 58752, Note_on_c, 14, 67, 127
15, 58944, Note_off_c, 14, 70, 64
15, 58944, Note_off_c, 14, 63, 64
15, 58944, Note_off_c, 14, 67, 64
15, 58944, Note_on_c, 14, 62, 118
15, 58944, Note_on_c, 14, 55, 117
15, 58944, Note_on_c, 14, 59, 127
15, 59136, Note_off_c, 14, 62, 64
15, 59136, Note_off_c, 14, 55, 64
15, 59136, Note_off_c, 14, 59, 64
15, 59136, End_track
16, 0, Start_track
16, 0, MIDI_port, 1
16, 0, Title_t, "melody-vibes2       "
16, 0, Program_c, 0, 11
16, 0, Control_c, 0, 7, 125
16, 0, Control_c, 0, 10, 127
16, 1620, Note_on_c, 0, 67, 127
16, 1632, Note_on_c, 0, 69, 127
16, 1656, Note_off_c, 0, 67, 64
16, 1753, Note_off_c, 0, 69, 64
16, 1784, Note_on_c, 0, 72, 127
16, 1833, Note_off_c, 0, 72, 64
16, 1833, Note_on_c, 0, 69, 127
16, 1881, Note_off_c, 0, 69, 64
16, 1907, Note_on_c, 0, 70, 127
16, 2072, Note_off_c, 0, 70, 64
16, 2100, Note_on_c, 0, 71, 127
16, 2256, Note_off_c, 0, 71, 64
16, 2297, Note_on_c, 0, 72, 127
16, 2409, Note_off_c, 0, 72, 64
16, 2419, Note_on_c, 0, 72, 127
16, 2496, Note_off_c, 0, 72, 64
16, 2512, Note_on_c, 0, 72, 127
16, 2588, Note_off_c, 0, 72, 64
16, 2601, Note_on_c, 0, 72, 127
16, 2673, Note_off_c, 0, 72, 64
16, 2688, Note_on_c, 0, 72, 127
16, 2928, Note_off_c, 0, 72, 64
16, 2980, Note_on_c, 0, 76, 127
16, 3011, Note_off_c, 0, 76, 64
16, 3027, Note_on_c, 0, 72, 127
16, 3065, Note_off_c, 0, 72, 64
16, 3088, Note_on_c, 0, 71, 127
16, 3780, Note_off_c, 0, 71, 64
16, 4134, Note_on_c, 0, 70, 127
16, 4180, Note_on_c, 0, 72, 127
16, 4193, Note_off_c, 0, 70, 64
16, 4214, Note_off_c, 0, 72, 64
16, 4228, Note_on_c, 0, 74, 127
16, 4337, Note_on_c, 0, 72, 127
16, 4348, Note_off_c, 0, 74, 64
16, 4464, Note_off_c, 0, 72, 64
16, 4488, Note_on_c, 0, 74, 127
16, 4529, Note_off_c, 0, 74, 64
16, 4537, Note_on_c, 0, 72, 127
16, 4569, Note_off_c, 0, 72, 64
16, 4628, Note_on_c, 0, 74, 127
16, 4688, Note_on_c, 0, 72, 127
16, 4696, Note_off_c, 0, 74, 64
16, 4723, Note_off_c, 0, 72, 64
16, 4742, Note_on_c, 0, 69, 127
16, 4774, Note_off_c, 0, 69, 64
16, 4817, Note_on_c, 0, 65, 127
16, 4851, Note_off_c, 0, 65, 64
16, 4867, Note_on_c, 0, 62, 127
16, 4896, Note_off_c, 0, 62, 64
16, 4912, Note_on_c, 0, 60, 127
16, 5148, Note_off_c, 0, 60, 64
16, 5395, Note_on_c, 0, 74, 127
16, 5484, Note_off_c, 0, 74, 64
16, 5500, Note_on_c, 0, 74, 127
16, 5641, Note_off_c, 0, 74, 64
16, 5660, Note_on_c, 0, 74, 127
16, 5688, Note_off_c, 0, 74, 64
16, 5710, Note_on_c, 0, 74, 127
16, 5747, Note_off_c, 0, 74, 64
16, 5768, Note_on_c, 0, 72, 127
16, 5939, Note_off_c, 0, 72, 64
16, 5955, Note_on_c, 0, 74, 127
16, 6097, Note_off_c, 0, 74, 64
16, 6144, Note_on_c, 0, 69, 127
16, 6169, Note_on_c, 0, 71, 127
16, 6177, Note_off_c, 0, 69, 64
16, 6219, Note_off_c, 0, 71, 64
16, 6220, Note_on_c, 0, 70, 127
16, 6259, Note_on_c, 0, 69, 127
16, 6267, Note_off_c, 0, 70, 64
16, 6318, Note_off_c, 0, 69, 64
16, 6329, Note_on_c, 0, 67, 127
16, 6590, Note_off_c, 0, 67, 64
16, 6912, Note_on_c, 0, 69, 127
16, 6977, Note_off_c, 0, 69, 64
16, 6982, Note_on_c, 0, 72, 127
16, 7012, Note_off_c, 0, 72, 64
16, 7020, Note_on_c, 0, 69, 127
16, 7059, Note_off_c, 0, 69, 64
16, 7070, Note_on_c, 0, 76, 127
16, 7184, Note_off_c, 0, 76, 64
16, 7187, Note_on_c, 0, 69, 127
16, 7235, Note_off_c, 0, 69, 64
16, 7248, Note_on_c, 0, 72, 127
16, 7606, Note_off_c, 0, 72, 64
16, 7667, Note_on_c, 0, 74, 127
16, 7680, Note_on_c, 0, 76, 127
16, 7704, Note_off_c, 0, 74, 64
16, 7756, Note_on_c, 0, 74, 127
16, 7769, Note_off_c, 0, 76, 64
16, 7795, Note_off_c, 0, 74, 64
16, 7801, Note_on_c, 0, 72, 127
16, 7844, Note_off_c, 0, 72, 64
16, 7851, Note_on_c, 0, 74, 127
16, 7902, Note_off_c, 0, 74, 64
16, 7916, Note_on_c, 0, 76, 127
16, 7956, Note_off_c, 0, 76, 64
16, 7971, Note_on_c, 0, 72, 127
16, 8017, Note_off_c, 0, 72, 64
16, 8038, Note_on_c, 0, 69, 127
16, 8361, Note_off_c, 0, 69, 64
16, 8534, Note_on_c, 0, 67, 127
16, 8544, Note_on_c, 0, 68, 127
16, 8548, Note_on_c, 0, 69, 127
16, 8560, Note_off_c, 0, 68, 64
16, 8569, Note_off_c, 0, 67, 64
16, 8611, Note_off_c, 0, 69, 64
16, 8641, Note_on_c, 0, 72, 127
16, 8720, Note_off_c, 0, 72, 64
16, 8740, Note_on_c, 0, 69, 127
16, 8804, Note_off_c, 0, 69, 64
16, 8832, Note_on_c, 0, 70, 127
16, 9004, Note_off_c, 0, 70, 64
16, 9043, Note_on_c, 0, 71, 127
16, 9184, Note_off_c, 0, 71, 64
16, 9233, Note_on_c, 0, 72, 127
16, 9312, Note_off_c, 0, 72, 64
16, 9329, Note_on_c, 0, 72, 127
16, 9433, Note_off_c, 0, 72, 64
16, 9454, Note_on_c, 0, 72, 127
16, 9484, Note_off_c, 0, 72, 64
16, 9513, Note_on_c, 0, 72, 127
16, 9612, Note_on_c, 0, 79, 127
16, 9620, Note_off_c, 0, 72, 64
16, 9820, Note_off_c, 0, 79, 64
16, 9910, Note_on_c, 0, 72, 127
16, 9984, Note_off_c, 0, 72, 64
16, 10004, Note_on_c, 0, 71, 127
16, 10638, Note_off_c, 0, 71, 64
16, 11024, Note_on_c, 0, 70, 127
16, 11054, Note_on_c, 0, 72, 127
16, 11062, Note_off_c, 0, 70, 64
16, 11120, Note_off_c, 0, 72, 64
16, 11148, Note_on_c, 0, 74, 127
16, 11340, Note_on_c, 0, 72, 127
16, 11348, Note_off_c, 0, 74, 64
16, 11432, Note_off_c, 0, 72, 64
16, 11440, Note_on_c, 0, 74, 127
16, 11512, Note_off_c, 0, 74, 64
16, 11532, Note_on_c, 0, 72, 127
16, 11566, Note_off_c, 0, 72, 64
16, 11603, Note_on_c, 0, 67, 127
16, 11616, Note_on_c, 0, 68, 127
16, 11620, Note_on_c, 0, 69, 127
16, 11632, Note_off_c, 0, 67, 64
16, 11632, Note_off_c, 0, 68, 64
16, 11654, Note_off_c, 0, 69, 64
16, 11664, Note_on_c, 0, 65, 127
16, 11700, Note_off_c, 0, 65, 64
16, 11718, Note_on_c, 0, 62, 127
16, 11744, Note_off_c, 0, 62, 64
16, 11776, Note_on_c, 0, 60, 127
16, 12140, Note_off_c, 0, 60, 64
16, 12163, Note_on_c, 0, 60, 127
16, 12192, Note_off_c, 0, 60, 64
16, 12214, Note_on_c, 0, 61, 127
16, 12265, Note_off_c, 0, 61, 64
16, 12304, Note_on_c, 0, 62, 127
16, 12392, Note_off_c, 0, 62, 64
16, 12408, Note_on_c, 0, 62, 127
16, 12467, Note_off_c, 0, 62, 64
16, 12499, Note_on_c, 0, 66, 127
16, 12536, Note_off_c, 0, 66, 64
16, 12560, Note_on_c, 0, 69, 127
16, 12595, Note_off_c, 0, 69, 64
16, 12617, Note_on_c, 0, 74, 127
16, 12681, Note_off_c, 0, 74, 64
16, 12692, Note_on_c, 0, 72, 127
16, 12942, Note_off_c, 0, 72, 64
16, 12969, Note_on_c, 0, 74, 127
16, 13017, Note_off_c, 0, 74, 64
16, 13065, Note_on_c, 0, 70, 127
16, 13075, Note_on_c, 0, 69, 127
16, 13083, Note_off_c, 0, 69, 64
16, 13086, Note_on_c, 0, 71, 127
16, 13094, Note_off_c, 0, 70, 64
16, 13120, Note_off_c, 0, 71, 64
16, 13132, Note_on_c, 0, 69, 127
16, 13185, Note_off_c, 0, 69, 64
16, 13185, Note_on_c, 0, 68, 127
16, 13225, Note_on_c, 0, 67, 127
16, 13228, Note_off_c, 0, 68, 64
16, 13604, Note_off_c, 0, 67, 64
16, 13824, Note_on_c, 0, 69, 127
16, 13888, Note_off_c, 0, 69, 64
16, 13899, Note_on_c, 0, 72, 127
16, 13940, Note_off_c, 0, 72, 64
16, 13956, Note_on_c, 0, 69, 127
16, 13979, Note_off_c, 0, 69, 64
16, 14022, Note_on_c, 0, 74, 127
16, 14033, Note_on_c, 0, 76, 127
16, 14044, Note_off_c, 0, 74, 64
16, 14075, Note_off_c, 0, 76, 64
16, 14089, Note_on_c, 0, 69, 127
16, 14134, Note_on_c, 0, 72, 127
16, 14137, Note_off_c, 0, 69, 64
16, 14451, Note_off_c, 0, 72, 64
16, 14499, Note_on_c, 0, 72, 127
16, 14524, Note_off_c, 0, 72, 64
16, 14552, Note_on_c, 0, 74, 127
16, 14580, Note_off_c, 0, 74, 64
16, 14608, Note_on_c, 0, 74, 127
16, 14622, Note_on_c, 0, 75, 127
16, 14633, Note_on_c, 0, 76, 127
16, 14644, Note_off_c, 0, 75, 64
16, 14648, Note_off_c, 0, 74, 64
16, 14672, Note_off_c, 0, 76, 64
16, 14700, Note_on_c, 0, 79, 127
16, 14726, Note_off_c, 0, 79, 64
16, 14771, Note_on_c, 0, 75, 127
16, 14784, Note_on_c, 0, 74, 127
16, 14790, Note_on_c, 0, 76, 127
16, 14803, Note_off_c, 0, 75, 64
16, 14803, Note_off_c, 0, 74, 64
16, 14840, Note_off_c, 0, 76, 64
16, 14856, Note_on_c, 0, 74, 127
16, 14904, Note_off_c, 0, 74, 64
16, 14912, Note_on_c, 0, 72, 127
16, 14950, Note_off_c, 0, 72, 64
16, 14960, Note_on_c, 0, 69, 127
16, 15387, Note_off_c, 0, 69, 64
16, 15456, Note_on_c, 0, 67, 127
16, 15465, Note_on_c, 0, 69, 127
16, 15468, Note_on_c, 0, 68, 127
16, 15484, Note_off_c, 0, 68, 64
16, 15496, Note_off_c, 0, 67, 64
16, 15540, Note_off_c, 0, 69, 64
16, 15564, Note_on_c, 0, 72, 127
16, 15648, Note_off_c, 0, 72, 64
16, 15657, Note_on_c, 0, 69, 127
16, 15726, Note_off_c, 0, 69, 64
16, 15758, Note_on_c, 0, 70, 127
16, 15908, Note_off_c, 0, 70, 64
16, 15953, Note_on_c, 0, 71, 127
16, 16072, Note_off_c, 0, 71, 64
16, 16110, Note_on_c, 0, 71, 127
16, 16121, Note_on_c, 0, 72, 127
16, 16140, Note_off_c, 0, 71, 64
16, 16140, Note_on_c, 0, 73, 127
16, 16153, Note_off_c, 0, 72, 64
16, 16825, Note_off_c, 0, 73, 64
16, 23043, Note_on_c, 0, 72, 127
16, 23140, Note_off_c, 0, 72, 64
16, 23161, Note_on_c, 0, 72, 127
16, 23286, Note_off_c, 0, 72, 64
16, 23299, Note_on_c, 0, 72, 127
16, 23340, Note_off_c, 0, 72, 64
16, 23353, Note_on_c, 0, 72, 127
16, 23419, Note_off_c, 0, 72, 64
16, 23435, Note_on_c, 0, 72, 127
16, 23712, Note_off_c, 0, 72, 64
16, 23737, Note_on_c, 0, 72, 127
16, 23827, Note_off_c, 0, 72, 64
16, 23835, Note_on_c, 0, 71, 127
16, 24462, Note_off_c, 0, 71, 64
16, 24478, Note_on_c, 0, 71, 127
16, 24579, Note_off_c, 0, 71, 64
16, 24592, Note_on_c, 0, 70, 127
16, 24843, Note_on_c, 0, 72, 127
16, 24856, Note_off_c, 0, 70, 64
16, 24889, Note_off_c, 0, 72, 64
16, 24908, Note_on_c, 0, 72, 127
16, 24924, Note_on_c, 0, 74, 127
16, 24952, Note_off_c, 0, 72, 64
16, 25219, Note_on_c, 0, 72, 127
16, 25228, Note_off_c, 0, 74, 64
16, 25259, Note_off_c, 0, 72, 64
16, 25273, Note_on_c, 0, 74, 127
16, 25324, Note_on_c, 0, 72, 127
16, 25329, Note_off_c, 0, 74, 64
16, 25372, Note_off_c, 0, 72, 64
16, 25392, Note_on_c, 0, 74, 127
16, 25444, Note_off_c, 0, 74, 64
16, 25444, Note_on_c, 0, 72, 127
16, 25470, Note_off_c, 0, 72, 64
16, 25494, Note_on_c, 0, 69, 127
16, 25544, Note_off_c, 0, 69, 64
16, 25558, Note_on_c, 0, 67, 127
16, 25579, Note_on_c, 0, 69, 127
16, 25588, Note_off_c, 0, 67, 64
16, 25617, Note_off_c, 0, 69, 64
16, 25632, Note_on_c, 0, 65, 127
16, 25665, Note_off_c, 0, 65, 64
16, 25678, Note_on_c, 0, 62, 127
16, 25708, Note_off_c, 0, 62, 64
16, 25736, Note_on_c, 0, 60, 127
16, 25945, Note_off_c, 0, 60, 64
16, 25996, Note_on_c, 0, 61, 127
16, 26081, Note_off_c, 0, 61, 64
16, 26112, Note_on_c, 0, 62, 127
16, 26193, Note_off_c, 0, 62, 64
16, 26220, Note_on_c, 0, 66, 127
16, 26243, Note_off_c, 0, 66, 64
16, 26272, Note_on_c, 0, 69, 127
16, 26300, Note_off_c, 0, 69, 64
16, 26332, Note_on_c, 0, 74, 127
16, 26390, Note_off_c, 0, 74, 64
16, 26409, Note_on_c, 0, 74, 127
16, 26433, Note_off_c, 0, 74, 64
16, 26452, Note_on_c, 0, 74, 127
16, 26494, Note_off_c, 0, 74, 64
16, 26504, Note_on_c, 0, 72, 127
16, 26745, Note_off_c, 0, 72, 64
16, 26785, Note_on_c, 0, 72, 127
16, 26793, Note_on_c, 0, 74, 127
16, 26832, Note_off_c, 0, 72, 64
16, 26840, Note_off_c, 0, 74, 64
16, 26899, Note_on_c, 0, 67, 127
16, 26908, Note_on_c, 0, 68, 127
16, 26912, Note_on_c, 0, 69, 127
16, 26921, Note_off_c, 0, 68, 64
16, 26924, Note_off_c, 0, 67, 64
16, 26955, Note_off_c, 0, 69, 64
16, 26969, Note_on_c, 0, 66, 127
16, 26969, Note_on_c, 0, 68, 127
16, 26998, Note_off_c, 0, 66, 64
16, 27008, Note_off_c, 0, 68, 64
16, 27009, Note_on_c, 0, 67, 127
16, 27323, Note_off_c, 0, 67, 64
16, 27648, Note_on_c, 0, 69, 127
16, 27721, Note_off_c, 0, 69, 64
16, 27726, Note_on_c, 0, 72, 127
16, 27782, Note_on_c, 0, 69, 127
16, 27803, Note_off_c, 0, 69, 64
16, 27806, Note_off_c, 0, 72, 64
16, 27846, Note_on_c, 0, 74, 127
16, 27859, Note_on_c, 0, 76, 127
16, 27868, Note_off_c, 0, 74, 64
16, 27896, Note_off_c, 0, 76, 64
16, 27912, Note_on_c, 0, 69, 127
16, 27963, Note_off_c, 0, 69, 64
16, 27972, Note_on_c, 0, 72, 127
16, 28296, Note_off_c, 0, 72, 64
16, 28324, Note_on_c, 0, 72, 127
16, 28352, Note_off_c, 0, 72, 64
16, 28376, Note_on_c, 0, 74, 127
16, 28404, Note_off_c, 0, 74, 64
16, 28435, Note_on_c, 0, 74, 127
16, 28451, Note_on_c, 0, 76, 127
16, 28460, Note_off_c, 0, 74, 64
16, 28502, Note_off_c, 0, 76, 64
16, 28510, Note_on_c, 0, 74, 127
16, 28542, Note_off_c, 0, 74, 64
16, 28553, Note_on_c, 0, 72, 127
16, 28587, Note_off_c, 0, 72, 64
16, 28627, Note_on_c, 0, 74, 127
16, 28680, Note_off_c, 0, 74, 64
16, 28688, Note_on_c, 0, 76, 127
16, 28723, Note_off_c, 0, 76, 64
16, 28731, Note_on_c, 0, 74, 127
16, 28760, Note_off_c, 0, 74, 64
16, 28760, Note_on_c, 0, 72, 127
16, 28790, Note_off_c, 0, 72, 64
16, 28812, Note_on_c, 0, 69, 127
16, 29179, Note_off_c, 0, 69, 64
16, 29276, Note_on_c, 0, 67, 127
16, 29286, Note_on_c, 0, 69, 127
16, 29289, Note_on_c, 0, 68, 127
16, 29297, Note_off_c, 0, 68, 64
16, 29307, Note_off_c, 0, 67, 64
16, 29414, Note_off_c, 0, 69, 64
16, 29438, Note_on_c, 0, 72, 127
16, 29483, Note_off_c, 0, 72, 64
16, 29491, Note_on_c, 0, 69, 127
16, 29532, Note_off_c, 0, 69, 64
16, 29582, Note_on_c, 0, 70, 127
16, 29740, Note_off_c, 0, 70, 64
16, 29779, Note_on_c, 0, 71, 127
16, 29932, Note_off_c, 0, 71, 64
16, 50702, Note_on_c, 0, 72, 115
16, 50808, Note_off_c, 0, 72, 64
16, 50830, Note_on_c, 0, 72, 115
16, 50944, Note_off_c, 0, 72, 64
16, 50990, Note_on_c, 0, 72, 120
16, 51014, Note_off_c, 0, 72, 64
16, 51038, Note_on_c, 0, 72, 115
16, 51065, Note_off_c, 0, 72, 64
16, 51094, Note_on_c, 0, 72, 115
16, 51344, Note_off_c, 0, 72, 64
16, 51371, Note_on_c, 0, 72, 117
16, 51441, Note_off_c, 0, 72, 64
16, 51470, Note_on_c, 0, 71, 108
16, 52011, Note_off_c, 0, 71, 64
16, 52033, Note_on_c, 0, 71, 113
16, 52070, Note_off_c, 0, 71, 64
16, 52105, Note_on_c, 0, 76, 117
16, 52150, Note_off_c, 0, 76, 64
16, 52166, Note_on_c, 0, 71, 113
16, 52196, Note_off_c, 0, 71, 64
16, 52241, Note_on_c, 0, 70, 117
16, 52481, Note_off_c, 0, 70, 64
16, 52524, Note_on_c, 0, 72, 115
16, 52572, Note_off_c, 0, 72, 64
16, 52603, Note_on_c, 0, 72, 86
16, 52620, Note_on_c, 0, 74, 110
16, 52633, Note_off_c, 0, 72, 64
16, 52728, Note_on_c, 0, 72, 106
16, 52736, Note_off_c, 0, 74, 64
16, 52841, Note_off_c, 0, 72, 64
16, 52865, Note_on_c, 0, 74, 118
16, 52908, Note_off_c, 0, 74, 64
16, 52918, Note_on_c, 0, 72, 118
16, 52948, Note_off_c, 0, 72, 64
16, 52992, Note_on_c, 0, 74, 117
16, 53048, Note_on_c, 0, 72, 113
16, 53056, Note_off_c, 0, 74, 64
16, 53065, Note_off_c, 0, 72, 64
16, 53097, Note_on_c, 0, 69, 110
16, 53139, Note_off_c, 0, 69, 64
16, 53150, Note_on_c, 0, 65, 105
16, 53198, Note_off_c, 0, 65, 64
16, 53203, Note_on_c, 0, 62, 103
16, 53356, Note_off_c, 0, 62, 64
16, 53376, Note_on_c, 0, 60, 108
16, 53588, Note_off_c, 0, 60, 64
16, 53670, Note_on_c, 0, 61, 117
16, 53737, Note_off_c, 0, 61, 64
16, 53760, Note_on_c, 0, 62, 118
16, 53832, Note_off_c, 0, 62, 64
16, 53868, Note_on_c, 0, 66, 115
16, 53934, Note_off_c, 0, 66, 64
16, 53963, Note_on_c, 0, 69, 117
16, 54028, Note_off_c, 0, 69, 64
16, 54059, Note_on_c, 0, 74, 113
16, 54120, Note_off_c, 0, 74, 64
16, 54144, Note_on_c, 0, 72, 108
16, 54320, Note_off_c, 0, 72, 64
16, 54339, Note_on_c, 0, 74, 117
16, 54473, Note_off_c, 0, 74, 64
16, 54528, Note_on_c, 0, 71, 115
16, 54572, Note_off_c, 0, 71, 64
16, 54587, Note_on_c, 0, 70, 105
16, 54611, Note_off_c, 0, 70, 64
16, 54636, Note_on_c, 0, 69, 103
16, 54688, Note_off_c, 0, 69, 64
16, 54739, Note_on_c, 0, 67, 120
16, 55123, Note_off_c, 0, 67, 64
16, 55256, Note_on_c, 0, 68, 110
16, 55284, Note_off_c, 0, 68, 64
16, 55292, Note_on_c, 0, 69, 118
16, 55334, Note_off_c, 0, 69, 64
16, 55350, Note_on_c, 0, 72, 108
16, 55382, Note_off_c, 0, 72, 64
16, 55390, Note_on_c, 0, 69, 118
16, 55414, Note_off_c, 0, 69, 64
16, 55486, Note_on_c, 0, 76, 118
16, 55568, Note_off_c, 0, 76, 64
16, 55584, Note_on_c, 0, 69, 103
16, 55616, Note_off_c, 0, 69, 64
16, 55641, Note_on_c, 0, 72, 115
16, 55910, Note_off_c, 0, 72, 64
16, 55956, Note_on_c, 0, 72, 120
16, 55980, Note_off_c, 0, 72, 64
16, 56011, Note_on_c, 0, 74, 117
16, 56043, Note_off_c, 0, 74, 64
16, 56064, Note_on_c, 0, 74, 94
16, 56091, Note_on_c, 0, 76, 103
16, 56105, Note_off_c, 0, 74, 64
16, 56128, Note_off_c, 0, 76, 64
16, 56147, Note_on_c, 0, 74, 102
16, 56185, Note_off_c, 0, 74, 64
16, 56192, Note_on_c, 0, 72, 110
16, 56228, Note_off_c, 0, 72, 64
16, 56262, Note_on_c, 0, 74, 106
16, 56304, Note_off_c, 0, 74, 64
16, 56315, Note_on_c, 0, 76, 103
16, 56348, Note_off_c, 0, 76, 64
16, 56358, Note_on_c, 0, 74, 110
16, 56393, Note_off_c, 0, 74, 64
16, 56395, Note_on_c, 0, 72, 110
16, 56425, Note_off_c, 0, 72, 64
16, 56444, Note_on_c, 0, 69, 105
16, 56755, Note_off_c, 0, 69, 64
16, 56934, Note_on_c, 0, 69, 120
16, 57016, Note_off_c, 0, 69, 64
16, 57032, Note_on_c, 0, 72, 117
16, 57108, Note_off_c, 0, 72, 64
16, 57128, Note_on_c, 0, 69, 110
16, 57176, Note_off_c, 0, 69, 64
16, 57230, Note_on_c, 0, 70, 115
16, 57388, Note_off_c, 0, 70, 64
16, 57408, Note_on_c, 0, 71, 120
16, 57577, Note_off_c, 0, 71, 64
16, 57617, Note_on_c, 0, 73, 115
16, 58212, Note_off_c, 0, 73, 64
16, 58483, Note_on_c, 0, 69, 117
16, 58555, Note_off_c, 0, 69, 64
16, 58579, Note_on_c, 0, 72, 115
16, 58652, Note_off_c, 0, 72, 64
16, 58668, Note_on_c, 0, 69, 108
16, 58713, Note_off_c, 0, 69, 64
16, 58764, Note_on_c, 0, 70, 118
16, 58936, Note_off_c, 0, 70, 64
16, 58964, Note_on_c, 0, 71, 117
16, 59123, Note_off_c, 0, 71, 64
16, 59164, Note_on_c, 0, 72, 110
16, 59904, Note_off_c, 0, 72, 64
16, 59904, End_track
17, 0, Start_track
17, 0, MIDI_port, 1
17, 0, Title_t, "melody-piano2       "
17, 0, Program_c, 3, 0
17, 0, Control_c, 3, 7, 125
17, 17052, Note_on_c, 3, 73, 127
17, 17073, Note_off_c, 3, 73, 64
17, 17097, Note_on_c, 3, 73, 127
17, 17198, Note_off_c, 3, 73, 64
17, 17254, Note_on_c, 3, 73, 127
17, 17273, Note_off_c, 3, 73, 64
17, 17291, Note_on_c, 3, 73, 127
17, 17396, Note_off_c, 3, 73, 64
17, 17433, Note_on_c, 3, 73, 127
17, 17468, Note_on_c, 3, 76, 127
17, 17484, Note_off_c, 3, 73, 64
17, 17500, Note_off_c, 3, 76, 64
17, 17536, Note_on_c, 3, 78, 127
17, 17595, Note_off_c, 3, 78, 64
17, 17612, Note_on_c, 3, 73, 127
17, 18107, Note_off_c, 3, 73, 64
17, 18252, Note_on_c, 3, 73, 127
17, 18299, Note_off_c, 3, 73, 64
17, 18307, Note_on_c, 3, 76, 127
17, 18368, Note_off_c, 3, 76, 64
17, 18404, Note_on_c, 3, 78, 127
17, 18715, Note_off_c, 3, 78, 64
17, 18816, Note_on_c, 3, 79, 127
17, 18998, Note_off_c, 3, 79, 64
17, 19020, Note_on_c, 3, 78, 127
17, 19128, Note_off_c, 3, 78, 64
17, 19182, Note_on_c, 3, 74, 127
17, 19193, Note_on_c, 3, 76, 127
17, 19211, Note_off_c, 3, 74, 64
17, 19612, Note_off_c, 3, 76, 64
17, 20123, Note_on_c, 3, 73, 127
17, 20176, Note_off_c, 3, 73, 64
17, 20214, Note_on_c, 3, 73, 127
17, 20254, Note_off_c, 3, 73, 64
17, 20275, Note_on_c, 3, 73, 127
17, 20326, Note_off_c, 3, 73, 64
17, 20369, Note_on_c, 3, 73, 127
17, 20441, Note_off_c, 3, 73, 64
17, 20457, Note_on_c, 3, 73, 127
17, 20536, Note_off_c, 3, 73, 64
17, 20540, Note_on_c, 3, 76, 127
17, 20582, Note_off_c, 3, 76, 64
17, 20601, Note_on_c, 3, 78, 127
17, 20676, Note_off_c, 3, 78, 64
17, 20696, Note_on_c, 3, 73, 127
17, 21281, Note_off_c, 3, 73, 64
17, 21324, Note_on_c, 3, 73, 127
17, 21382, Note_on_c, 3, 76, 127
17, 21395, Note_off_c, 3, 73, 64
17, 21497, Note_off_c, 3, 76, 64
17, 21523, Note_on_c, 3, 78, 127
17, 21857, Note_off_c, 3, 78, 64
17, 21894, Note_on_c, 3, 79, 127
17, 22052, Note_off_c, 3, 79, 64
17, 22084, Note_on_c, 3, 78, 127
17, 22144, Note_off_c, 3, 78, 64
17, 22182, Note_on_c, 3, 74, 127
17, 22195, Note_on_c, 3, 75, 127
17, 22200, Note_on_c, 3, 76, 127
17, 22208, Note_off_c, 3, 74, 64
17, 22209, Note_off_c, 3, 75, 64
17, 22880, Note_off_c, 3, 76, 64
17, 29969, Note_on_c, 3, 72, 127
17, 29992, Note_off_c, 3, 72, 64
17, 30088, Note_on_c, 3, 72, 127
17, 30152, Note_off_c, 3, 72, 64
17, 30188, Note_on_c, 3, 72, 127
17, 30225, Note_off_c, 3, 72, 64
17, 30251, Note_on_c, 3, 72, 127
17, 30297, Note_off_c, 3, 72, 64
17, 30348, Note_on_c, 3, 84, 127
17, 30598, Note_off_c, 3, 84, 64
17, 30632, Note_on_c, 3, 79, 127
17, 30716, Note_off_c, 3, 79, 64
17, 30752, Note_on_c, 3, 83, 127
17, 31163, Note_off_c, 3, 83, 64
17, 31294, Note_on_c, 3, 88, 127
17, 31316, Note_off_c, 3, 88, 64
17, 31347, Note_on_c, 3, 87, 127
17, 31363, Note_off_c, 3, 87, 64
17, 31387, Note_on_c, 3, 86, 127
17, 31417, Note_off_c, 3, 86, 64
17, 31422, Note_on_c, 3, 85, 127
17, 31449, Note_on_c, 3, 84, 127
17, 31454, Note_off_c, 3, 85, 64
17, 31483, Note_on_c, 3, 82, 127
17, 31486, Note_off_c, 3, 84, 64
17, 31747, Note_off_c, 3, 82, 64
17, 31793, Note_on_c, 3, 82, 127
17, 31828, Note_off_c, 3, 82, 64
17, 31835, Note_on_c, 3, 84, 127
17, 31865, Note_off_c, 3, 84, 64
17, 31888, Note_on_c, 3, 86, 127
17, 31955, Note_off_c, 3, 86, 64
17, 31976, Note_on_c, 3, 84, 127
17, 32011, Note_off_c, 3, 84, 64
17, 32025, Note_on_c, 3, 82, 127
17, 32059, Note_off_c, 3, 82, 64
17, 32080, Note_on_c, 3, 81, 127
17, 32115, Note_off_c, 3, 81, 64
17, 32128, Note_on_c, 3, 79, 127
17, 32152, Note_off_c, 3, 79, 64
17, 32177, Note_on_c, 3, 76, 127
17, 32201, Note_off_c, 3, 76, 64
17, 32270, Note_on_c, 3, 77, 127
17, 32292, Note_off_c, 3, 77, 64
17, 32324, Note_on_c, 3, 81, 127
17, 32355, Note_off_c, 3, 81, 64
17, 32366, Note_on_c, 3, 77, 127
17, 32390, Note_off_c, 3, 77, 64
17, 32406, Note_on_c, 3, 74, 127
17, 32430, Note_off_c, 3, 74, 64
17, 32459, Note_on_c, 3, 72, 127
17, 32518, Note_off_c, 3, 72, 64
17, 32536, Note_on_c, 3, 69, 127
17, 32590, Note_off_c, 3, 69, 64
17, 32596, Note_on_c, 3, 65, 127
17, 32646, Note_off_c, 3, 65, 64
17, 32659, Note_on_c, 3, 62, 127
17, 32713, Note_off_c, 3, 62, 64
17, 32723, Note_on_c, 3, 60, 127
17, 32824, Note_off_c, 3, 60, 64
17, 32902, Note_on_c, 3, 60, 127
17, 32924, Note_off_c, 3, 60, 64
17, 32955, Note_on_c, 3, 61, 127
17, 33008, Note_off_c, 3, 61, 64
17, 33035, Note_on_c, 3, 62, 127
17, 33126, Note_off_c, 3, 62, 64
17, 33137, Note_on_c, 3, 62, 127
17, 33171, Note_off_c, 3, 62, 64
17, 33187, Note_on_c, 3, 62, 127
17, 33216, Note_off_c, 3, 62, 64
17, 33241, Note_on_c, 3, 66, 127
17, 33312, Note_off_c, 3, 66, 64
17, 33334, Note_on_c, 3, 66, 127
17, 33363, Note_off_c, 3, 66, 64
17, 33382, Note_on_c, 3, 66, 127
17, 33420, Note_on_c, 3, 69, 127
17, 33428, Note_off_c, 3, 66, 64
17, 33504, Note_off_c, 3, 69, 64
17, 33520, Note_on_c, 3, 74, 127
17, 33600, Note_off_c, 3, 74, 64
17, 33614, Note_on_c, 3, 72, 127
17, 33696, Note_off_c, 3, 72, 64
17, 33720, Note_on_c, 3, 69, 127
17, 33769, Note_off_c, 3, 69, 64
17, 33792, Note_on_c, 3, 67, 127
17, 33814, Note_on_c, 3, 69, 127
17, 33824, Note_off_c, 3, 67, 64
17, 33849, Note_off_c, 3, 69, 64
17, 33862, Note_on_c, 3, 68, 127
17, 33900, Note_off_c, 3, 68, 64
17, 33904, Note_on_c, 3, 67, 127
17, 34220, Note_off_c, 3, 67, 64
17, 34428, Note_on_c, 3, 67, 127
17, 34456, Note_off_c, 3, 67, 64
17, 34470, Note_on_c, 3, 68, 127
17, 34491, Note_off_c, 3, 68, 64
17, 34572, Note_on_c, 3, 69, 127
17, 34622, Note_off_c, 3, 69, 64
17, 34630, Note_on_c, 3, 72, 127
17, 34710, Note_on_c, 3, 69, 127
17, 34720, Note_off_c, 3, 72, 64
17, 34731, Note_off_c, 3, 69, 64
17, 34766, Note_on_c, 3, 74, 127
17, 34779, Note_on_c, 3, 76, 127
17, 34790, Note_off_c, 3, 74, 64
17, 34824, Note_off_c, 3, 76, 64
17, 34854, Note_on_c, 3, 69, 127
17, 34886, Note_off_c, 3, 69, 64
17, 34904, Note_on_c, 3, 72, 127
17, 35171, Note_off_c, 3, 72, 64
17, 35228, Note_on_c, 3, 72, 127
17, 35251, Note_off_c, 3, 72, 64
17, 35289, Note_on_c, 3, 74, 127
17, 35313, Note_off_c, 3, 74, 64
17, 35387, Note_on_c, 3, 74, 127
17, 35395, Note_on_c, 3, 75, 127
17, 35404, Note_on_c, 3, 76, 127
17, 35412, Note_off_c, 3, 74, 64
17, 35416, Note_off_c, 3, 75, 64
17, 35457, Note_off_c, 3, 76, 64
17, 35465, Note_on_c, 3, 74, 127
17, 35468, Note_on_c, 3, 76, 127
17, 35475, Note_off_c, 3, 76, 64
17, 35500, Note_off_c, 3, 74, 64
17, 35505, Note_on_c, 3, 72, 127
17, 35536, Note_off_c, 3, 72, 64
17, 35558, Note_on_c, 3, 74, 127
17, 35604, Note_off_c, 3, 74, 64
17, 35620, Note_on_c, 3, 76, 127
17, 35654, Note_on_c, 3, 74, 127
17, 35660, Note_off_c, 3, 76, 64
17, 35686, Note_off_c, 3, 74, 64
17, 35688, Note_on_c, 3, 72, 127
17, 35720, Note_off_c, 3, 72, 64
17, 35729, Note_on_c, 3, 69, 127
17, 36011, Note_off_c, 3, 69, 64
17, 36179, Note_on_c, 3, 67, 127
17, 36190, Note_on_c, 3, 69, 127
17, 36192, Note_on_c, 3, 68, 127
17, 36204, Note_off_c, 3, 68, 64
17, 36211, Note_off_c, 3, 67, 64
17, 36259, Note_off_c, 3, 69, 64
17, 36288, Note_on_c, 3, 72, 127
17, 36360, Note_off_c, 3, 72, 64
17, 36377, Note_on_c, 3, 69, 127
17, 36428, Note_off_c, 3, 69, 64
17, 36480, Note_on_c, 3, 70, 127
17, 36630, Note_off_c, 3, 70, 64
17, 36678, Note_on_c, 3, 71, 127
17, 36820, Note_off_c, 3, 71, 64
17, 36860, Note_on_c, 3, 72, 127
17, 36966, Note_off_c, 3, 72, 64
17, 36980, Note_on_c, 3, 72, 127
17, 37054, Note_off_c, 3, 72, 64
17, 37067, Note_on_c, 3, 72, 127
17, 37152, Note_off_c, 3, 72, 64
17, 37164, Note_on_c, 3, 72, 127
17, 37236, Note_off_c, 3, 72, 64
17, 37254, Note_on_c, 3, 72, 127
17, 37432, Note_off_c, 3, 72, 64
17, 37452, Note_on_c, 3, 72, 127
17, 37555, Note_off_c, 3, 72, 64
17, 37632, Note_on_c, 3, 71, 127
17, 38188, Note_off_c, 3, 71, 64
17, 38203, Note_on_c, 3, 76, 127
17, 38320, Note_off_c, 3, 76, 64
17, 38363, Note_on_c, 3, 76, 127
17, 38390, Note_off_c, 3, 76, 64
17, 38393, Note_on_c, 3, 71, 127
17, 38422, Note_off_c, 3, 71, 64
17, 38472, Note_on_c, 3, 70, 127
17, 38668, Note_off_c, 3, 70, 64
17, 38688, Note_on_c, 3, 70, 127
17, 38740, Note_on_c, 3, 72, 127
17, 38750, Note_off_c, 3, 70, 64
17, 38772, Note_off_c, 3, 72, 64
17, 38790, Note_on_c, 3, 74, 127
17, 38942, Note_off_c, 3, 74, 64
17, 38976, Note_on_c, 3, 74, 127
17, 39022, Note_off_c, 3, 74, 64
17, 39084, Note_on_c, 3, 72, 127
17, 39142, Note_off_c, 3, 72, 64
17, 39184, Note_on_c, 3, 74, 127
17, 39232, Note_on_c, 3, 72, 127
17, 39240, Note_off_c, 3, 74, 64
17, 39251, Note_off_c, 3, 72, 64
17, 39283, Note_on_c, 3, 69, 127
17, 39304, Note_off_c, 3, 69, 64
17, 39329, Note_on_c, 3, 65, 127
17, 39360, Note_off_c, 3, 65, 64
17, 39379, Note_on_c, 3, 62, 127
17, 39417, Note_off_c, 3, 62, 64
17, 39427, Note_on_c, 3, 60, 127
17, 39814, Note_off_c, 3, 60, 64
17, 39843, Note_on_c, 3, 60, 127
17, 39873, Note_off_c, 3, 60, 64
17, 39892, Note_on_c, 3, 59, 127
17, 39892, Note_on_c, 3, 61, 127
17, 39923, Note_off_c, 3, 59, 64
17, 39923, Note_off_c, 3, 61, 64
17, 39947, Note_on_c, 3, 62, 127
17, 40044, Note_off_c, 3, 62, 64
17, 40056, Note_on_c, 3, 62, 127
17, 40198, Note_off_c, 3, 62, 64
17, 40224, Note_on_c, 3, 66, 127
17, 40252, Note_off_c, 3, 66, 64
17, 40278, Note_on_c, 3, 69, 127
17, 40316, Note_off_c, 3, 69, 64
17, 40361, Note_on_c, 3, 74, 127
17, 40584, Note_off_c, 3, 74, 64
17, 40616, Note_on_c, 3, 72, 127
17, 40684, Note_off_c, 3, 72, 64
17, 40715, Note_on_c, 3, 67, 127
17, 40732, Note_on_c, 3, 69, 127
17, 40745, Note_off_c, 3, 67, 64
17, 40761, Note_off_c, 3, 69, 64
17, 40780, Note_on_c, 3, 68, 127
17, 40819, Note_off_c, 3, 68, 64
17, 40827, Note_on_c, 3, 67, 127
17, 41260, Note_off_c, 3, 67, 64
17, 41472, Note_on_c, 3, 69, 127
17, 41528, Note_off_c, 3, 69, 64
17, 41537, Note_on_c, 3, 72, 127
17, 41598, Note_on_c, 3, 69, 127
17, 41612, Note_off_c, 3, 72, 64
17, 41620, Note_off_c, 3, 69, 64
17, 41670, Note_on_c, 3, 74, 127
17, 41684, Note_on_c, 3, 76, 127
17, 41696, Note_off_c, 3, 74, 64
17, 41734, Note_off_c, 3, 76, 64
17, 41748, Note_on_c, 3, 69, 127
17, 41785, Note_off_c, 3, 69, 64
17, 41808, Note_on_c, 3, 72, 127
17, 42107, Note_off_c, 3, 72, 64
17, 42156, Note_on_c, 3, 72, 127
17, 42174, Note_off_c, 3, 72, 64
17, 42195, Note_on_c, 3, 74, 127
17, 42220, Note_off_c, 3, 74, 64
17, 42240, Note_on_c, 3, 75, 127
17, 42260, Note_off_c, 3, 75, 64
17, 42288, Note_on_c, 3, 76, 127
17, 42318, Note_off_c, 3, 76, 64
17, 42368, Note_on_c, 3, 74, 127
17, 42400, Note_off_c, 3, 74, 64
17, 42412, Note_on_c, 3, 72, 127
17, 42441, Note_off_c, 3, 72, 64
17, 42460, Note_on_c, 3, 74, 127
17, 42508, Note_off_c, 3, 74, 64
17, 42523, Note_on_c, 3, 72, 127
17, 42584, Note_off_c, 3, 72, 64
17, 42624, Note_on_c, 3, 69, 127
17, 42968, Note_off_c, 3, 69, 64
17, 43092, Note_on_c, 3, 67, 127
17, 43115, Note_on_c, 3, 68, 127
17, 43115, Note_on_c, 3, 69, 127
17, 43124, Note_off_c, 3, 68, 64
17, 43129, Note_off_c, 3, 67, 64
17, 43158, Note_off_c, 3, 69, 64
17, 43206, Note_on_c, 3, 72, 127
17, 43289, Note_off_c, 3, 72, 64
17, 43296, Note_on_c, 3, 69, 127
17, 43374, Note_off_c, 3, 69, 64
17, 43392, Note_on_c, 3, 69, 127
17, 43396, Note_on_c, 3, 70, 127
17, 43404, Note_off_c, 3, 69, 64
17, 43539, Note_off_c, 3, 70, 64
17, 43593, Note_on_c, 3, 71, 127
17, 43723, Note_off_c, 3, 71, 64
17, 43796, Note_on_c, 3, 73, 127
17, 44563, Note_off_c, 3, 73, 64
17, 44563, End_track
18, 0, Start_track
18, 0, MIDI_port, 1
18, 0, Title_t, "melody-harmonica2   "
18, 0, Program_c, 4, 22
18, 0, Control_c, 4, 7, 120
18, 44697, Note_on_c, 4, 73, 127
18, 44755, Note_off_c, 4, 73, 64
18, 44772, Note_on_c, 4, 73, 127
18, 44832, Note_off_c, 4, 73, 64
18, 44854, Note_on_c, 4, 73, 127
18, 44923, Note_off_c, 4, 73, 64
18, 44952, Note_on_c, 4, 73, 127
18, 45049, Note_off_c, 4, 73, 64
18, 45068, Note_on_c, 4, 73, 127
18, 45137, Note_off_c, 4, 73, 64
18, 45140, Note_on_c, 4, 76, 127
18, 45177, Note_off_c, 4, 76, 64
18, 45192, Note_on_c, 4, 78, 127
18, 45235, Note_off_c, 4, 78, 64
18, 45238, Note_on_c, 4, 73, 127
18, 45840, Note_off_c, 4, 73, 64
18, 45902, Note_on_c, 4, 73, 127
18, 45958, Note_on_c, 4, 76, 127
18, 45972, Note_off_c, 4, 73, 64
18, 46080, Note_off_c, 4, 76, 64
18, 46091, Note_on_c, 4, 78, 127
18, 46412, Note_off_c, 4, 78, 64
18, 46464, Note_on_c, 4, 79, 127
18, 46656, Note_off_c, 4, 79, 64
18, 46723, Note_on_c, 4, 78, 127
18, 46800, Note_off_c, 4, 78, 64
18, 46833, Note_on_c, 4, 74, 127
18, 46856, Note_on_c, 4, 76, 127
18, 46873, Note_off_c, 4, 74, 64
18, 47632, Note_off_c, 4, 76, 64
18, 47768, Note_on_c, 4, 73, 127
18, 47784, Note_off_c, 4, 73, 64
18, 47803, Note_on_c, 4, 73, 127
18, 47844, Note_off_c, 4, 73, 64
18, 47961, Note_on_c, 4, 73, 127
18, 47977, Note_off_c, 4, 73, 64
18, 47995, Note_on_c, 4, 73, 127
18, 48110, Note_off_c, 4, 73, 64
18, 48153, Note_on_c, 4, 73, 127
18, 48172, Note_off_c, 4, 73, 64
18, 48198, Note_on_c, 4, 76, 127
18, 48241, Note_off_c, 4, 76, 64
18, 48260, Note_on_c, 4, 78, 127
18, 48324, Note_off_c, 4, 78, 64
18, 48353, Note_on_c, 4, 73, 127
18, 48716, Note_off_c, 4, 73, 64
18, 48974, Note_on_c, 4, 73, 127
18, 49028, Note_off_c, 4, 73, 64
18, 49036, Note_on_c, 4, 78, 127
18, 49097, Note_off_c, 4, 78, 64
18, 49120, Note_on_c, 4, 78, 127
18, 49443, Note_off_c, 4, 78, 64
18, 49465, Note_on_c, 4, 78, 127
18, 49488, Note_off_c, 4, 78, 64
18, 49536, Note_on_c, 4, 76, 127
18, 49560, Note_on_c, 4, 78, 127
18, 49568, Note_on_c, 4, 79, 127
18, 49569, Note_off_c, 4, 76, 64
18, 49580, Note_off_c, 4, 78, 64
18, 49683, Note_off_c, 4, 79, 64
18, 49728, Note_on_c, 4, 79, 127
18, 49800, Note_on_c, 4, 78, 127
18, 49806, Note_off_c, 4, 79, 64
18, 49868, Note_off_c, 4, 78, 64
18, 49880, Note_on_c, 4, 76, 127
18, 50624, Note_off_c, 4, 76, 64
18, 50624, End_track
19, 0, Start_track
19, 0, MIDI_port, 1
19, 0, Title_t, "voice oohs2         "
19, 0, Program_c, 8, 53
19, 0, Control_c, 8, 7, 115
19, 0, Control_c, 8, 10, 65
19, 0, Control_c, 8, 64, 0
19, 1536, Note_on_c, 8, 60, 127
19, 1536, Note_on_c, 8, 57, 127
19, 1536, Note_on_c, 8, 53, 127
19, 1920, Note_off_c, 8, 60, 64
19, 1920, Note_off_c, 8, 57, 64
19, 1920, Note_off_c, 8, 53, 64
19, 1920, Note_on_c, 8, 58, 127
19, 1920, Note_on_c, 8, 55, 127
19, 1920, Note_on_c, 8, 51, 127
19, 2112, Note_off_c, 8, 58, 64
19, 2112, Note_off_c, 8, 55, 64
19, 2112, Note_off_c, 8, 51, 64
19, 2112, Note_on_c, 8, 50, 127
19, 2112, Note_on_c, 8, 47, 127
19, 2112, Note_on_c, 8, 38, 127
19, 2304, Note_off_c, 8, 50, 64
19, 2304, Note_off_c, 8, 47, 64
19, 2304, Note_off_c, 8, 38, 64
19, 2304, Note_on_c, 8, 67, 127
19, 2304, Note_on_c, 8, 60, 127
19, 2304, Note_on_c, 8, 64, 127
19, 3072, Note_off_c, 8, 67, 64
19, 3072, Note_off_c, 8, 60, 64
19, 3072, Note_off_c, 8, 64, 64
19, 3072, Note_on_c, 8, 67, 127
19, 3072, Note_on_c, 8, 60, 127
19, 3072, Note_on_c, 8, 64, 127
19, 3073, Note_off_c, 8, 67, 64
19, 3073, Note_off_c, 8, 60, 64
19, 3073, Note_off_c, 8, 64, 64
19, 3840, Note_on_c, 8, 67, 127
19, 3840, Note_on_c, 8, 60, 127
19, 3840, Note_on_c, 8, 64, 127
19, 3841, Note_off_c, 8, 67, 64
19, 3841, Note_off_c, 8, 60, 64
19, 3841, Note_off_c, 8, 64, 64
19, 4608, Note_on_c, 8, 72, 127
19, 4608, Note_on_c, 8, 65, 127
19, 4608, Note_on_c, 8, 69, 127
19, 4992, Note_off_c, 8, 72, 64
19, 4992, Note_off_c, 8, 65, 64
19, 4992, Note_off_c, 8, 69, 64
19, 4992, Note_on_c, 8, 72, 127
19, 4992, Note_on_c, 8, 65, 127
19, 4992, Note_on_c, 8, 69, 127
19, 5184, Note_off_c, 8, 72, 64
19, 5184, Note_off_c, 8, 65, 64
19, 5184, Note_off_c, 8, 69, 64
19, 5184, Note_on_c, 8, 67, 127
19, 5184, Note_on_c, 8, 60, 127
19, 5184, Note_on_c, 8, 64, 127
19, 5376, Note_off_c, 8, 67, 64
19, 5376, Note_off_c, 8, 60, 64
19, 5376, Note_off_c, 8, 64, 64
19, 5376, Note_on_c, 8, 69, 127
19, 5376, Note_on_c, 8, 62, 127
19, 5376, Note_on_c, 8, 66, 127
19, 6144, Note_off_c, 8, 69, 64
19, 6144, Note_off_c, 8, 62, 64
19, 6144, Note_off_c, 8, 66, 64
19, 6144, Note_on_c, 8, 62, 127
19, 6144, Note_on_c, 8, 55, 127
19, 6144, Note_on_c, 8, 59, 127
19, 6145, Note_off_c, 8, 62, 64
19, 6336, Note_off_c, 8, 55, 64
19, 6336, Note_off_c, 8, 59, 64
19, 6336, Note_on_c, 8, 64, 127
19, 6336, Note_on_c, 8, 57, 127
19, 6336, Note_on_c, 8, 60, 127
19, 6528, Note_off_c, 8, 64, 64
19, 6528, Note_off_c, 8, 57, 64
19, 6528, Note_off_c, 8, 60, 64
19, 6528, Note_on_c, 8, 62, 127
19, 6528, Note_on_c, 8, 55, 127
19, 6528, Note_on_c, 8, 59, 127
19, 6912, Note_off_c, 8, 62, 64
19, 6912, Note_off_c, 8, 55, 64
19, 6912, Note_off_c, 8, 59, 64
19, 6912, Note_on_c, 8, 52, 127
19, 6912, Note_on_c, 8, 48, 127
19, 6912, Note_on_c, 8, 45, 127
19, 7296, Note_off_c, 8, 52, 64
19, 7296, Note_off_c, 8, 48, 64
19, 7296, Note_off_c, 8, 45, 64
19, 7296, Note_on_c, 8, 52, 127
19, 7296, Note_on_c, 8, 48, 127
19, 7296, Note_on_c, 8, 44, 127
19, 7680, Note_off_c, 8, 52, 64
19, 7680, Note_off_c, 8, 48, 64
19, 7680, Note_off_c, 8, 44, 64
19, 7680, Note_on_c, 8, 52, 127
19, 7680, Note_on_c, 8, 48, 127
19, 7680, Note_on_c, 8, 43, 127
19, 7681, Note_off_c, 8, 52, 64
19, 7681, Note_off_c, 8, 48, 64
19, 8064, Note_off_c, 8, 43, 64
19, 8064, Note_on_c, 8, 57, 127
19, 8064, Note_on_c, 8, 54, 127
19, 8064, Note_on_c, 8, 50, 127
19, 8448, Note_off_c, 8, 57, 64
19, 8448, Note_off_c, 8, 54, 64
19, 8448, Note_off_c, 8, 50, 64
19, 8448, Note_on_c, 8, 72, 127
19, 8448, Note_on_c, 8, 65, 127
19, 8448, Note_on_c, 8, 69, 127
19, 8832, Note_off_c, 8, 72, 64
19, 8832, Note_off_c, 8, 65, 64
19, 8832, Note_off_c, 8, 69, 64
19, 8832, Note_on_c, 8, 70, 127
19, 8832, Note_on_c, 8, 63, 127
19, 8832, Note_on_c, 8, 67, 127
19, 9024, Note_off_c, 8, 70, 64
19, 9024, Note_off_c, 8, 63, 64
19, 9024, Note_off_c, 8, 67, 64
19, 9024, Note_on_c, 8, 62, 127
19, 9024, Note_on_c, 8, 55, 127
19, 9024, Note_on_c, 8, 59, 127
19, 9216, Note_off_c, 8, 62, 64
19, 9216, Note_off_c, 8, 55, 64
19, 9216, Note_off_c, 8, 59, 64
19, 9216, Note_on_c, 8, 67, 127
19, 9216, Note_on_c, 8, 60, 127
19, 9216, Note_on_c, 8, 64, 127
19, 9984, Note_off_c, 8, 67, 64
19, 9984, Note_off_c, 8, 60, 64
19, 9984, Note_off_c, 8, 64, 64
19, 9984, Note_on_c, 8, 67, 127
19, 9984, Note_on_c, 8, 60, 127
19, 9984, Note_on_c, 8, 64, 127
19, 9985, Note_off_c, 8, 67, 64
19, 9985, Note_off_c, 8, 60, 64
19, 9985, Note_off_c, 8, 64, 64
19, 10752, Note_on_c, 8, 67, 127
19, 10752, Note_on_c, 8, 60, 127
19, 10752, Note_on_c, 8, 64, 127
19, 10753, Note_off_c, 8, 67, 64
19, 10753, Note_off_c, 8, 60, 64
19, 10753, Note_off_c, 8, 64, 64
19, 11520, Note_on_c, 8, 72, 127
19, 11520, Note_on_c, 8, 65, 127
19, 11520, Note_on_c, 8, 69, 127
19, 11904, Note_off_c, 8, 72, 64
19, 11904, Note_off_c, 8, 65, 64
19, 11904, Note_off_c, 8, 69, 64
19, 11904, Note_on_c, 8, 72, 127
19, 11904, Note_on_c, 8, 65, 127
19, 11904, Note_on_c, 8, 69, 127
19, 12096, Note_off_c, 8, 72, 64
19, 12096, Note_off_c, 8, 65, 64
19, 12096, Note_off_c, 8, 69, 64
19, 12096, Note_on_c, 8, 67, 127
19, 12096, Note_on_c, 8, 60, 127
19, 12096, Note_on_c, 8, 64, 127
19, 12288, Note_off_c, 8, 67, 64
19, 12288, Note_off_c, 8, 60, 64
19, 12288, Note_off_c, 8, 64, 64
19, 12288, Note_on_c, 8, 69, 127
19, 12288, Note_on_c, 8, 62, 127
19, 12288, Note_on_c, 8, 66, 127
19, 13056, Note_off_c, 8, 69, 64
19, 13056, Note_off_c, 8, 62, 64
19, 13056, Note_off_c, 8, 66, 64
19, 13056, Note_on_c, 8, 62, 127
19, 13056, Note_on_c, 8, 55, 127
19, 13056, Note_on_c, 8, 59, 127
19, 13057, Note_off_c, 8, 62, 64
19, 13248, Note_off_c, 8, 55, 64
19, 13248, Note_off_c, 8, 59, 64
19, 13248, Note_on_c, 8, 64, 127
19, 13248, Note_on_c, 8, 57, 127
19, 13248, Note_on_c, 8, 60, 127
19, 13440, Note_off_c, 8, 64, 64
19, 13440, Note_off_c, 8, 57, 64
19, 13440, Note_off_c, 8, 60, 64
19, 13440, Note_on_c, 8, 62, 127
19, 13440, Note_on_c, 8, 55, 127
19, 13440, Note_on_c, 8, 59, 127
19, 13824, Note_off_c, 8, 62, 64
19, 13824, Note_off_c, 8, 55, 64
19, 13824, Note_off_c, 8, 59, 64
19, 13824, Note_on_c, 8, 52, 127
19, 13824, Note_on_c, 8, 48, 127
19, 13824, Note_on_c, 8, 45, 127
19, 14208, Note_off_c, 8, 52, 64
19, 14208, Note_off_c, 8, 48, 64
19, 14208, Note_off_c, 8, 45, 64
19, 14208, Note_on_c, 8, 52, 127
19, 14208, Note_on_c, 8, 48, 127
19, 14208, Note_on_c, 8, 44, 127
19, 14592, Note_off_c, 8, 52, 64
19, 14592, Note_off_c, 8, 48, 64
19, 14592, Note_off_c, 8, 44, 64
19, 14592, Note_on_c, 8, 52, 127
19, 14592, Note_on_c, 8, 48, 127
19, 14592, Note_on_c, 8, 43, 127
19, 14593, Note_off_c, 8, 52, 64
19, 14593, Note_off_c, 8, 48, 64
19, 14976, Note_off_c, 8, 43, 64
19, 14976, Note_on_c, 8, 57, 127
19, 14976, Note_on_c, 8, 54, 127
19, 14976, Note_on_c, 8, 50, 127
19, 15360, Note_off_c, 8, 57, 64
19, 15360, Note_off_c, 8, 54, 64
19, 15360, Note_off_c, 8, 50, 64
19, 15360, Note_on_c, 8, 72, 127
19, 15360, Note_on_c, 8, 65, 127
19, 15360, Note_on_c, 8, 69, 127
19, 15744, Note_off_c, 8, 72, 64
19, 15744, Note_off_c, 8, 65, 64
19, 15744, Note_off_c, 8, 69, 64
19, 15744, Note_on_c, 8, 70, 127
19, 15744, Note_on_c, 8, 63, 127
19, 15744, Note_on_c, 8, 67, 127
19, 15936, Note_off_c, 8, 70, 64
19, 15936, Note_off_c, 8, 63, 64
19, 15936, Note_off_c, 8, 67, 64
19, 15936, Note_on_c, 8, 62, 127
19, 15936, Note_on_c, 8, 55, 127
19, 15936, Note_on_c, 8, 59, 127
19, 16128, Note_off_c, 8, 62, 64
19, 16128, Note_off_c, 8, 55, 64
19, 16128, Note_off_c, 8, 59, 64
19, 16128, Note_on_c, 8, 64, 127
19, 16128, Note_on_c, 8, 57, 127
19, 16128, Note_on_c, 8, 61, 127
19, 16896, Note_off_c, 8, 64, 64
19, 16896, Note_off_c, 8, 57, 64
19, 16896, Note_off_c, 8, 61, 64
19, 16896, Note_on_c, 8, 64, 127
19, 16896, Note_on_c, 8, 57, 127
19, 16896, Note_on_c, 8, 61, 127
19, 16897, Note_off_c, 8, 64, 64
19, 16897, Note_off_c, 8, 57, 64
19, 16897, Note_off_c, 8, 61, 64
19, 17280, Note_on_c, 8, 68, 127
19, 17280, Note_on_c, 8, 61, 127
19, 17280, Note_on_c, 8, 64, 127
19, 17281, Note_off_c, 8, 61, 64
19, 17281, Note_off_c, 8, 64, 64
19, 17664, Note_off_c, 8, 68, 64
19, 17664, Note_on_c, 8, 61, 127
19, 17664, Note_on_c, 8, 54, 127
19, 17664, Note_on_c, 8, 57, 127
19, 17665, Note_off_c, 8, 61, 64
19, 18048, Note_off_c, 8, 54, 64
19, 18048, Note_off_c, 8, 57, 64
19, 18048, Note_on_c, 8, 61, 127
19, 18048, Note_on_c, 8, 54, 127
19, 18048, Note_on_c, 8, 57, 127
19, 18049, Note_off_c, 8, 61, 64
19, 18432, Note_off_c, 8, 54, 64
19, 18432, Note_off_c, 8, 57, 64
19, 18432, Note_on_c, 8, 69, 127
19, 18432, Note_on_c, 8, 62, 127
19, 18432, Note_on_c, 8, 66, 127
19, 18816, Note_off_c, 8, 69, 64
19, 18816, Note_off_c, 8, 62, 64
19, 18816, Note_off_c, 8, 66, 64
19, 18816, Note_on_c, 8, 62, 127
19, 18816, Note_on_c, 8, 55, 127
19, 18816, Note_on_c, 8, 59, 127
19, 19200, Note_off_c, 8, 62, 64
19, 19200, Note_off_c, 8, 55, 64
19, 19200, Note_off_c, 8, 59, 64
19, 19200, Note_on_c, 8, 64, 127
19, 19200, Note_on_c, 8, 57, 127
19, 19200, Note_on_c, 8, 61, 127
19, 19968, Note_off_c, 8, 64, 64
19, 19968, Note_off_c, 8, 57, 64
19, 19968, Note_off_c, 8, 61, 64
19, 19968, Note_on_c, 8, 64, 127
19, 19968, Note_on_c, 8, 57, 127
19, 19968, Note_on_c, 8, 61, 127
19, 19969, Note_off_c, 8, 64, 64
19, 19969, Note_off_c, 8, 57, 64
19, 19969, Note_off_c, 8, 61, 64
19, 20352, Note_on_c, 8, 68, 127
19, 20352, Note_on_c, 8, 61, 127
19, 20352, Note_on_c, 8, 64, 127
19, 20353, Note_off_c, 8, 61, 64
19, 20353, Note_off_c, 8, 64, 64
19, 20736, Note_off_c, 8, 68, 64
19, 20736, Note_on_c, 8, 61, 127
19, 20736, Note_on_c, 8, 54, 127
19, 20736, Note_on_c, 8, 57, 127
19, 20737, Note_off_c, 8, 61, 64
19, 21120, Note_off_c, 8, 54, 64
19, 21120, Note_off_c, 8, 57, 64
19, 21120, Note_on_c, 8, 61, 127
19, 21120, Note_on_c, 8, 54, 127
19, 21120, Note_on_c, 8, 57, 127
19, 21121, Note_off_c, 8, 61, 64
19, 21504, Note_off_c, 8, 54, 64
19, 21504, Note_off_c, 8, 57, 64
19, 21504, Note_on_c, 8, 69, 127
19, 21504, Note_on_c, 8, 62, 127
19, 21504, Note_on_c, 8, 66, 127
19, 21888, Note_off_c, 8, 69, 64
19, 21888, Note_off_c, 8, 62, 64
19, 21888, Note_off_c, 8, 66, 64
19, 21888, Note_on_c, 8, 62, 127
19, 21888, Note_on_c, 8, 55, 127
19, 21888, Note_on_c, 8, 59, 127
19, 22272, Note_off_c, 8, 62, 64
19, 22272, Note_off_c, 8, 55, 64
19, 22272, Note_off_c, 8, 59, 64
19, 22272, Note_on_c, 8, 55, 127
19, 22272, Note_on_c, 8, 52, 127
19, 22272, Note_on_c, 8, 48, 127
19, 22273, Note_off_c, 8, 55, 64
19, 23808, Note_off_c, 8, 52, 64
19, 23808, Note_off_c, 8, 48, 64
19, 23808, Note_on_c, 8, 55, 127
19, 23808, Note_on_c, 8, 52, 127
19, 23808, Note_on_c, 8, 48, 127
19, 23809, Note_off_c, 8, 55, 64
19, 23809, Note_off_c, 8, 52, 64
19, 23809, Note_off_c, 8, 48, 64
19, 24576, Note_on_c, 8, 55, 127
19, 24576, Note_on_c, 8, 52, 127
19, 24576, Note_on_c, 8, 48, 127
19, 24577, Note_off_c, 8, 55, 64
19, 24577, Note_off_c, 8, 52, 64
19, 24577, Note_off_c, 8, 48, 64
19, 25344, Note_on_c, 8, 60, 127
19, 25344, Note_on_c, 8, 57, 127
19, 25344, Note_on_c, 8, 53, 127
19, 25728, Note_off_c, 8, 60, 64
19, 25728, Note_off_c, 8, 57, 64
19, 25728, Note_off_c, 8, 53, 64
19, 25728, Note_on_c, 8, 60, 127
19, 25728, Note_on_c, 8, 57, 127
19, 25728, Note_on_c, 8, 53, 127
19, 25920, Note_off_c, 8, 60, 64
19, 25920, Note_off_c, 8, 57, 64
19, 25920, Note_off_c, 8, 53, 64
19, 25920, Note_on_c, 8, 55, 127
19, 25920, Note_on_c, 8, 52, 127
19, 26112, Note_off_c, 8, 55, 64
19, 26112, Note_off_c, 8, 52, 64
19, 26112, Note_on_c, 8, 69, 127
19, 26112, Note_on_c, 8, 62, 127
19, 26112, Note_on_c, 8, 66, 127
19, 26880, Note_off_c, 8, 69, 64
19, 26880, Note_off_c, 8, 62, 64
19, 26880, Note_off_c, 8, 66, 64
19, 26880, Note_on_c, 8, 62, 127
19, 26880, Note_on_c, 8, 55, 127
19, 26880, Note_on_c, 8, 59, 127
19, 26881, Note_off_c, 8, 62, 64
19, 27072, Note_off_c, 8, 55, 64
19, 27072, Note_off_c, 8, 59, 64
19, 27072, Note_on_c, 8, 64, 127
19, 27072, Note_on_c, 8, 57, 127
19, 27072, Note_on_c, 8, 60, 127
19, 27264, Note_off_c, 8, 64, 64
19, 27264, Note_off_c, 8, 57, 64
19, 27264, Note_off_c, 8, 60, 64
19, 27264, Note_on_c, 8, 62, 127
19, 27264, Note_on_c, 8, 55, 127
19, 27264, Note_on_c, 8, 59, 127
19, 27648, Note_off_c, 8, 62, 64
19, 27648, Note_off_c, 8, 55, 64
19, 27648, Note_off_c, 8, 59, 64
19, 27648, Note_on_c, 8, 52, 127
19, 27648, Note_on_c, 8, 48, 127
19, 27648, Note_on_c, 8, 45, 127
19, 28032, Note_off_c, 8, 52, 64
19, 28032, Note_off_c, 8, 48, 64
19, 28032, Note_off_c, 8, 45, 64
19, 28032, Note_on_c, 8, 52, 127
19, 28032, Note_on_c, 8, 48, 127
19, 28032, Note_on_c, 8, 44, 127
19, 28416, Note_off_c, 8, 52, 64
19, 28416, Note_off_c, 8, 48, 64
19, 28416, Note_off_c, 8, 44, 64
19, 28416, Note_on_c, 8, 52, 127
19, 28416, Note_on_c, 8, 48, 127
19, 28416, Note_on_c, 8, 45, 127
19, 28417, Note_off_c, 8, 52, 64
19, 28417, Note_off_c, 8, 48, 64
19, 28800, Note_off_c, 8, 45, 64
19, 28800, Note_on_c, 8, 57, 127
19, 28800, Note_on_c, 8, 54, 127
19, 28800, Note_on_c, 8, 50, 127
19, 29184, Note_off_c, 8, 57, 64
19, 29184, Note_off_c, 8, 54, 64
19, 29184, Note_off_c, 8, 50, 64
19, 29184, Note_on_c, 8, 60, 127
19, 29184, Note_on_c, 8, 57, 127
19, 29184, Note_on_c, 8, 53, 127
19, 29185, Note_off_c, 8, 57, 64
19, 29568, Note_off_c, 8, 60, 64
19, 29568, Note_off_c, 8, 53, 64
19, 29568, Note_on_c, 8, 58, 127
19, 29568, Note_on_c, 8, 55, 127
19, 29568, Note_on_c, 8, 51, 127
19, 29760, Note_off_c, 8, 58, 64
19, 29760, Note_off_c, 8, 55, 64
19, 29760, Note_off_c, 8, 51, 64
19, 29760, Note_on_c, 8, 50, 127
19, 29760, Note_on_c, 8, 47, 127
19, 29760, Note_on_c, 8, 38, 127
19, 29952, Note_off_c, 8, 50, 64
19, 29952, Note_off_c, 8, 47, 64
19, 29952, Note_off_c, 8, 38, 64
19, 29952, Note_on_c, 8, 67, 127
19, 29952, Note_on_c, 8, 60, 127
19, 29952, Note_on_c, 8, 64, 127
19, 30720, Note_off_c, 8, 67, 64
19, 30720, Note_off_c, 8, 60, 64
19, 30720, Note_off_c, 8, 64, 64
19, 30720, Note_on_c, 8, 67, 127
19, 30720, Note_on_c, 8, 60, 127
19, 30720, Note_on_c, 8, 64, 127
19, 30721, Note_off_c, 8, 67, 64
19, 30721, Note_off_c, 8, 60, 64
19, 30721, Note_off_c, 8, 64, 64
19, 31488, Note_on_c, 8, 67, 127
19, 31488, Note_on_c, 8, 60, 127
19, 31488, Note_on_c, 8, 64, 127
19, 31489, Note_off_c, 8, 67, 64
19, 31489, Note_off_c, 8, 60, 64
19, 31489, Note_off_c, 8, 64, 64
19, 32256, Note_on_c, 8, 72, 127
19, 32256, Note_on_c, 8, 65, 127
19, 32256, Note_on_c, 8, 69, 127
19, 32640, Note_off_c, 8, 72, 64
19, 32640, Note_off_c, 8, 65, 64
19, 32640, Note_off_c, 8, 69, 64
19, 32640, Note_on_c, 8, 72, 127
19, 32640, Note_on_c, 8, 65, 127
19, 32640, Note_on_c, 8, 69, 127
19, 32832, Note_off_c, 8, 72, 64
19, 32832, Note_off_c, 8, 65, 64
19, 32832, Note_off_c, 8, 69, 64
19, 32832, Note_on_c, 8, 67, 127
19, 32832, Note_on_c, 8, 60, 127
19, 32832, Note_on_c, 8, 64, 127
19, 33024, Note_off_c, 8, 67, 64
19, 33024, Note_off_c, 8, 60, 64
19, 33024, Note_off_c, 8, 64, 64
19, 33024, Note_on_c, 8, 69, 127
19, 33024, Note_on_c, 8, 62, 127
19, 33024, Note_on_c, 8, 66, 127
19, 33792, Note_off_c, 8, 69, 64
19, 33792, Note_off_c, 8, 62, 64
19, 33792, Note_off_c, 8, 66, 64
19, 33792, Note_on_c, 8, 62, 127
19, 33792, Note_on_c, 8, 55, 127
19, 33792, Note_on_c, 8, 59, 127
19, 33793, Note_off_c, 8, 62, 64
19, 33984, Note_off_c, 8, 55, 64
19, 33984, Note_off_c, 8, 59, 64
19, 33984, Note_on_c, 8, 64, 127
19, 33984, Note_on_c, 8, 57, 127
19, 33984, Note_on_c, 8, 60, 127
19, 34176, Note_off_c, 8, 64, 64
19, 34176, Note_off_c, 8, 57, 64
19, 34176, Note_off_c, 8, 60, 64
19, 34176, Note_on_c, 8, 62, 127
19, 34176, Note_on_c, 8, 55, 127
19, 34176, Note_on_c, 8, 59, 127
19, 34560, Note_off_c, 8, 62, 64
19, 34560, Note_off_c, 8, 55, 64
19, 34560, Note_off_c, 8, 59, 64
19, 34560, Note_on_c, 8, 52, 127
19, 34560, Note_on_c, 8, 48, 127
19, 34560, Note_on_c, 8, 45, 127
19, 34944, Note_off_c, 8, 52, 64
19, 34944, Note_off_c, 8, 48, 64
19, 34944, Note_off_c, 8, 45, 64
19, 34944, Note_on_c, 8, 52, 127
19, 34944, Note_on_c, 8, 48, 127
19, 34944, Note_on_c, 8, 44, 127
19, 35328, Note_off_c, 8, 52, 64
19, 35328, Note_off_c, 8, 48, 64
19, 35328, Note_off_c, 8, 44, 64
19, 35328, Note_on_c, 8, 52, 127
19, 35328, Note_on_c, 8, 48, 127
19, 35328, Note_on_c, 8, 43, 127
19, 35329, Note_off_c, 8, 52, 64
19, 35329, Note_off_c, 8, 48, 64
19, 35712, Note_off_c, 8, 43, 64
19, 35712, Note_on_c, 8, 57, 127
19, 35712, Note_on_c, 8, 54, 127
19, 35712, Note_on_c, 8, 50, 127
19, 36096, Note_off_c, 8, 57, 64
19, 36096, Note_off_c, 8, 54, 64
19, 36096, Note_off_c, 8, 50, 64
19, 36096, Note_on_c, 8, 72, 127
19, 36096, Note_on_c, 8, 65, 127
19, 36096, Note_on_c, 8, 69, 127
19, 36480, Note_off_c, 8, 72, 64
19, 36480, Note_off_c, 8, 65, 64
19, 36480, Note_off_c, 8, 69, 64
19, 36480, Note_on_c, 8, 70, 127
19, 36480, Note_on_c, 8, 63, 127
19, 36480, Note_on_c, 8, 67, 127
19, 36672, Note_off_c, 8, 70, 64
19, 36672, Note_off_c, 8, 63, 64
19, 36672, Note_off_c, 8, 67, 64
19, 36672, Note_on_c, 8, 62, 127
19, 36672, Note_on_c, 8, 55, 127
19, 36672, Note_on_c, 8, 59, 127
19, 36864, Note_off_c, 8, 62, 64
19, 36864, Note_off_c, 8, 55, 64
19, 36864, Note_off_c, 8, 59, 64
19, 36864, Note_on_c, 8, 67, 127
19, 36864, Note_on_c, 8, 60, 127
19, 36864, Note_on_c, 8, 64, 127
19, 37632, Note_off_c, 8, 67, 64
19, 37632, Note_off_c, 8, 60, 64
19, 37632, Note_off_c, 8, 64, 64
19, 37632, Note_on_c, 8, 67, 127
19, 37632, Note_on_c, 8, 60, 127
19, 37632, Note_on_c, 8, 64, 127
19, 37633, Note_off_c, 8, 67, 64
19, 37633, Note_off_c, 8, 60, 64
19, 37633, Note_off_c, 8, 64, 64
19, 38400, Note_on_c, 8, 67, 127
19, 38400, Note_on_c, 8, 60, 127
19, 38400, Note_on_c, 8, 64, 127
19, 38401, Note_off_c, 8, 67, 64
19, 38401, Note_off_c, 8, 60, 64
19, 38401, Note_off_c, 8, 64, 64
19, 39168, Note_on_c, 8, 72, 127
19, 39168, Note_on_c, 8, 65, 127
19, 39168, Note_on_c, 8, 69, 127
19, 39552, Note_off_c, 8, 72, 64
19, 39552, Note_off_c, 8, 65, 64
19, 39552, Note_off_c, 8, 69, 64
19, 39552, Note_on_c, 8, 72, 127
19, 39552, Note_on_c, 8, 65, 127
19, 39552, Note_on_c, 8, 69, 127
19, 39744, Note_off_c, 8, 72, 64
19, 39744, Note_off_c, 8, 65, 64
19, 39744, Note_off_c, 8, 69, 64
19, 39744, Note_on_c, 8, 67, 127
19, 39744, Note_on_c, 8, 60, 127
19, 39744, Note_on_c, 8, 64, 127
19, 39936, Note_off_c, 8, 67, 64
19, 39936, Note_off_c, 8, 60, 64
19, 39936, Note_off_c, 8, 64, 64
19, 39936, Note_on_c, 8, 69, 127
19, 39936, Note_on_c, 8, 62, 127
19, 39936, Note_on_c, 8, 66, 127
19, 40704, Note_off_c, 8, 69, 64
19, 40704, Note_off_c, 8, 62, 64
19, 40704, Note_off_c, 8, 66, 64
19, 40704, Note_on_c, 8, 62, 127
19, 40704, Note_on_c, 8, 55, 127
19, 40704, Note_on_c, 8, 59, 127
19, 40705, Note_off_c, 8, 62, 64
19, 40896, Note_off_c, 8, 55, 64
19, 40896, Note_off_c, 8, 59, 64
19, 40896, Note_on_c, 8, 64, 127
19, 40896, Note_on_c, 8, 57, 127
19, 40896, Note_on_c, 8, 60, 127
19, 41088, Note_off_c, 8, 64, 64
19, 41088, Note_off_c, 8, 57, 64
19, 41088, Note_off_c, 8, 60, 64
19, 41088, Note_on_c, 8, 62, 127
19, 41088, Note_on_c, 8, 55, 127
19, 41088, Note_on_c, 8, 59, 127
19, 41472, Note_off_c, 8, 62, 64
19, 41472, Note_off_c, 8, 55, 64
19, 41472, Note_off_c, 8, 59, 64
19, 41472, Note_on_c, 8, 52, 127
19, 41472, Note_on_c, 8, 48, 127
19, 41472, Note_on_c, 8, 45, 127
19, 41856, Note_off_c, 8, 52, 64
19, 41856, Note_off_c, 8, 48, 64
19, 41856, Note_off_c, 8, 45, 64
19, 41856, Note_on_c, 8, 52, 127
19, 41856, Note_on_c, 8, 48, 127
19, 41856, Note_on_c, 8, 44, 127
19, 42240, Note_off_c, 8, 52, 64
19, 42240, Note_off_c, 8, 48, 64
19, 42240, Note_off_c, 8, 44, 64
19, 42240, Note_on_c, 8, 52, 127
19, 42240, Note_on_c, 8, 48, 127
19, 42240, Note_on_c, 8, 43, 127
19, 42241, Note_off_c, 8, 52, 64
19, 42241, Note_off_c, 8, 48, 64
19, 42624, Note_off_c, 8, 43, 64
19, 42624, Note_on_c, 8, 57, 127
19, 42624, Note_on_c, 8, 54, 127
19, 42624, Note_on_c, 8, 50, 127
19, 43008, Note_off_c, 8, 57, 64
19, 43008, Note_off_c, 8, 54, 64
19, 43008, Note_off_c, 8, 50, 64
19, 43008, Note_on_c, 8, 72, 127
19, 43008, Note_on_c, 8, 65, 127
19, 43008, Note_on_c, 8, 69, 127
19, 43392, Note_off_c, 8, 72, 64
19, 43392, Note_off_c, 8, 65, 64
19, 43392, Note_off_c, 8, 69, 64
19, 43392, Note_on_c, 8, 70, 127
19, 43392, Note_on_c, 8, 63, 127
19, 43392, Note_on_c, 8, 67, 127
19, 43584, Note_off_c, 8, 70, 64
19, 43584, Note_off_c, 8, 63, 64
19, 43584, Note_off_c, 8, 67, 64
19, 43584, Note_on_c, 8, 62, 127
19, 43584, Note_on_c, 8, 55, 127
19, 43584, Note_on_c, 8, 59, 127
19, 43776, Note_off_c, 8, 62, 64
19, 43776, Note_off_c, 8, 55, 64
19, 43776, Note_off_c, 8, 59, 64
19, 43776, Note_on_c, 8, 64, 127
19, 43776, Note_on_c, 8, 57, 127
19, 43776, Note_on_c, 8, 61, 127
19, 44544, Note_off_c, 8, 64, 64
19, 44544, Note_off_c, 8, 57, 64
19, 44544, Note_off_c, 8, 61, 64
19, 44544, Note_on_c, 8, 64, 127
19, 44544, Note_on_c, 8, 57, 127
19, 44544, Note_on_c, 8, 61, 127
19, 44545, Note_off_c, 8, 64, 64
19, 44545, Note_off_c, 8, 57, 64
19, 44545, Note_off_c, 8, 61, 64
19, 44928, Note_on_c, 8, 68, 127
19, 44928, Note_on_c, 8, 61, 127
19, 44928, Note_on_c, 8, 64, 127
19, 44929, Note_off_c, 8, 61, 64
19, 44929, Note_off_c, 8, 64, 64
19, 45312, Note_off_c, 8, 68, 64
19, 45312, Note_on_c, 8, 61, 127
19, 45312, Note_on_c, 8, 54, 127
19, 45312, Note_on_c, 8, 57, 127
19, 45313, Note_off_c, 8, 61, 64
19, 45696, Note_off_c, 8, 54, 64
19, 45696, Note_off_c, 8, 57, 64
19, 45696, Note_on_c, 8, 61, 127
19, 45696, Note_on_c, 8, 54, 127
19, 45696, Note_on_c, 8, 57, 127
19, 45697, Note_off_c, 8, 61, 64
19, 46080, Note_off_c, 8, 54, 64
19, 46080, Note_off_c, 8, 57, 64
19, 46080, Note_on_c, 8, 69, 127
19, 46080, Note_on_c, 8, 62, 127
19, 46080, Note_on_c, 8, 66, 127
19, 46464, Note_off_c, 8, 69, 64
19, 46464, Note_off_c, 8, 62, 64
19, 46464, Note_off_c, 8, 66, 64
19, 46464, Note_on_c, 8, 62, 127
19, 46464, Note_on_c, 8, 55, 127
19, 46464, Note_on_c, 8, 59, 127
19, 46848, Note_off_c, 8, 62, 64
19, 46848, Note_off_c, 8, 55, 64
19, 46848, Note_off_c, 8, 59, 64
19, 46848, Note_on_c, 8, 64, 127
19, 46848, Note_on_c, 8, 57, 127
19, 46848, Note_on_c, 8, 61, 127
19, 47616, Note_off_c, 8, 64, 64
19, 47616, Note_off_c, 8, 57, 64
19, 47616, Note_off_c, 8, 61, 64
19, 47616, Note_on_c, 8, 64, 127
19, 47616, Note_on_c, 8, 57, 127
19, 47616, Note_on_c, 8, 61, 127
19, 47617, Note_off_c, 8, 64, 64
19, 47617, Note_off_c, 8, 57, 64
19, 47617, Note_off_c, 8, 61, 64
19, 48000, Note_on_c, 8, 68, 127
19, 48000, Note_on_c, 8, 61, 127
19, 48000, Note_on_c, 8, 64, 127
19, 48001, Note_off_c, 8, 61, 64
19, 48001, Note_off_c, 8, 64, 64
19, 48384, Note_off_c, 8, 68, 64
19, 48384, Note_on_c, 8, 61, 127
19, 48384, Note_on_c, 8, 54, 127
19, 48384, Note_on_c, 8, 57, 127
19, 48385, Note_off_c, 8, 61, 64
19, 48768, Note_off_c, 8, 54, 64
19, 48768, Note_off_c, 8, 57, 64
19, 48768, Note_on_c, 8, 61, 127
19, 48768, Note_on_c, 8, 54, 127
19, 48768, Note_on_c, 8, 57, 127
19, 48769, Note_off_c, 8, 61, 64
19, 49152, Note_off_c, 8, 54, 64
19, 49152, Note_off_c, 8, 57, 64
19, 49152, Note_on_c, 8, 69, 127
19, 49152, Note_on_c, 8, 62, 127
19, 49152, Note_on_c, 8, 66, 127
19, 49536, Note_off_c, 8, 69, 64
19, 49536, Note_off_c, 8, 62, 64
19, 49536, Note_off_c, 8, 66, 64
19, 49536, Note_on_c, 8, 62, 127
19, 49536, Note_on_c, 8, 55, 127
19, 49536, Note_on_c, 8, 59, 127
19, 49920, Note_off_c, 8, 62, 64
19, 49920, Note_off_c, 8, 55, 64
19, 49920, Note_off_c, 8, 59, 64
19, 49920, Note_on_c, 8, 67, 127
19, 49920, Note_on_c, 8, 60, 127
19, 49920, Note_on_c, 8, 64, 127
19, 50688, Note_off_c, 8, 67, 64
19, 50688, Note_off_c, 8, 60, 64
19, 50688, Note_off_c, 8, 64, 64
19, 50688, Note_on_c, 8, 67, 127
19, 50688, Note_on_c, 8, 60, 127
19, 50688, Note_on_c, 8, 64, 127
19, 50689, Note_off_c, 8, 67, 64
19, 50689, Note_off_c, 8, 60, 64
19, 50689, Note_off_c, 8, 64, 64
19, 51456, Note_on_c, 8, 67, 127
19, 51456, Note_on_c, 8, 60, 127
19, 51456, Note_on_c, 8, 64, 127
19, 51457, Note_off_c, 8, 67, 64
19, 51457, Note_off_c, 8, 60, 64
19, 51457, Note_off_c, 8, 64, 64
19, 52224, Note_on_c, 8, 67, 127
19, 52224, Note_on_c, 8, 60, 127
19, 52224, Note_on_c, 8, 64, 127
19, 52225, Note_off_c, 8, 67, 64
19, 52225, Note_off_c, 8, 60, 64
19, 52225, Note_off_c, 8, 64, 64
19, 52992, Note_on_c, 8, 72, 127
19, 52992, Note_on_c, 8, 65, 127
19, 52992, Note_on_c, 8, 69, 127
19, 53376, Note_off_c, 8, 72, 64
19, 53376, Note_off_c, 8, 65, 64
19, 53376, Note_off_c, 8, 69, 64
19, 53376, Note_on_c, 8, 72, 127
19, 53376, Note_on_c, 8, 65, 127
19, 53376, Note_on_c, 8, 69, 127
19, 53568, Note_off_c, 8, 72, 64
19, 53568, Note_off_c, 8, 65, 64
19, 53568, Note_off_c, 8, 69, 64
19, 53568, Note_on_c, 8, 67, 127
19, 53568, Note_on_c, 8, 60, 127
19, 53568, Note_on_c, 8, 64, 127
19, 53760, Note_off_c, 8, 67, 64
19, 53760, Note_off_c, 8, 60, 64
19, 53760, Note_off_c, 8, 64, 64
19, 53760, Note_on_c, 8, 69, 127
19, 53760, Note_on_c, 8, 62, 127
19, 53760, Note_on_c, 8, 66, 127
19, 54528, Note_off_c, 8, 69, 64
19, 54528, Note_off_c, 8, 62, 64
19, 54528, Note_off_c, 8, 66, 64
19, 54528, Note_on_c, 8, 62, 127
19, 54528, Note_on_c, 8, 55, 127
19, 54528, Note_on_c, 8, 59, 127
19, 54529, Note_off_c, 8, 62, 64
19, 54720, Note_off_c, 8, 55, 64
19, 54720, Note_off_c, 8, 59, 64
19, 54720, Note_on_c, 8, 64, 127
19, 54720, Note_on_c, 8, 57, 127
19, 54720, Note_on_c, 8, 60, 127
19, 54912, Note_off_c, 8, 64, 64
19, 54912, Note_off_c, 8, 57, 64
19, 54912, Note_off_c, 8, 60, 64
19, 54912, Note_on_c, 8, 62, 127
19, 54912, Note_on_c, 8, 55, 127
19, 54912, Note_on_c, 8, 59, 127
19, 55296, Note_off_c, 8, 62, 64
19, 55296, Note_off_c, 8, 55, 64
19, 55296, Note_off_c, 8, 59, 64
19, 55296, Note_on_c, 8, 64, 127
19, 55296, Note_on_c, 8, 57, 127
19, 55296, Note_on_c, 8, 60, 127
19, 55680, Note_off_c, 8, 64, 64
19, 55680, Note_off_c, 8, 57, 64
19, 55680, Note_off_c, 8, 60, 64
19, 55680, Note_on_c, 8, 64, 127
19, 55680, Note_on_c, 8, 57, 127
19, 55680, Note_on_c, 8, 60, 127
19, 56064, Note_off_c, 8, 64, 64
19, 56064, Note_off_c, 8, 57, 64
19, 56064, Note_off_c, 8, 60, 64
19, 56064, Note_on_c, 8, 64, 127
19, 56064, Note_on_c, 8, 57, 127
19, 56064, Note_on_c, 8, 60, 127
19, 56065, Note_off_c, 8, 64, 64
19, 56065, Note_off_c, 8, 57, 64
19, 56065, Note_off_c, 8, 60, 64
19, 56448, Note_on_c, 8, 69, 127
19, 56448, Note_on_c, 8, 64, 127
19, 56448, Note_on_c, 8, 66, 127
19, 56449, Note_off_c, 8, 64, 64
19, 56832, Note_off_c, 8, 69, 64
19, 56832, Note_off_c, 8, 66, 64
19, 56832, Note_on_c, 8, 72, 127
19, 56832, Note_on_c, 8, 65, 127
19, 56832, Note_on_c, 8, 69, 127
19, 56833, Note_off_c, 8, 69, 64
19, 57216, Note_off_c, 8, 72, 64
19, 57216, Note_off_c, 8, 65, 64
19, 57216, Note_on_c, 8, 70, 127
19, 57216, Note_on_c, 8, 63, 127
19, 57216, Note_on_c, 8, 67, 127
19, 57408, Note_off_c, 8, 70, 64
19, 57408, Note_off_c, 8, 63, 64
19, 57408, Note_off_c, 8, 67, 64
19, 57408, Note_on_c, 8, 62, 127
19, 57408, Note_on_c, 8, 55, 127
19, 57408, Note_on_c, 8, 59, 127
19, 57600, Note_off_c, 8, 62, 64
19, 57600, Note_off_c, 8, 55, 64
19, 57600, Note_off_c, 8, 59, 64
19, 57600, Note_on_c, 8, 64, 127
19, 57600, Note_on_c, 8, 57, 127
19, 57600, Note_on_c, 8, 61, 127
19, 58368, Note_off_c, 8, 64, 64
19, 58368, Note_off_c, 8, 57, 64
19, 58368, Note_off_c, 8, 61, 64
19, 58368, Note_on_c, 8, 72, 127
19, 58368, Note_on_c, 8, 65, 127
19, 58368, Note_on_c, 8, 69, 127
19, 58752, Note_off_c, 8, 72, 64
19, 58752, Note_off_c, 8, 65, 64
19, 58752, Note_off_c, 8, 69, 64
19, 58752, Note_on_c, 8, 70, 127
19, 58752, Note_on_c, 8, 63, 127
19, 58752, Note_on_c, 8, 67, 127
19, 58944, Note_off_c, 8, 70, 64
19, 58944, Note_off_c, 8, 63, 64
19, 58944, Note_off_c, 8, 67, 64
19, 58944, Note_on_c, 8, 62, 127
19, 58944, Note_on_c, 8, 55, 127
19, 58944, Note_on_c, 8, 59, 127
19, 59136, Note_off_c, 8, 62, 64
19, 59136, Note_off_c, 8, 55, 64
19, 59136, Note_off_c, 8, 59, 64
19, 59136, End_track
0, 0, End_of_file
