0, 0, Header, 1, 17, 120
1, 0, Start_track
1, 0, Title_t, "untitled"
1, 0, Text_t, ".\012"
1, 0, Time_signature, 4, 2, 24, 8
1, 0, Key_signature, 0, "major"
1, 0, Tempo, 571429
1, 480, Marker_t, "1"
1, 4320, Marker_t, "2"
1, 8160, Marker_t, "3"
1, 11040, Marker_t, "4"
1, 13920, Marker_t, "5"
1, 17760, Marker_t, "6"
1, 19200, Marker_t, "7"
1, 23040, Marker_t, "8 (Vocals)"
1, 28680, Marker_t, "9"
1, 32520, Marker_t, "10"
1, 34090, Marker_t, "11"
1, 37923, Marker_t, "12"
1, 37923, End_track
2, 0, Start_track
2, 0, Title_t, "Beat"
2, 480, Note_on_c, 1, 31, 106
2, 480, Control_c, 0, 0, 0
2, 480, Control_c, 0, 32, 3
2, 480, Control_c, 0, 0, 0
2, 480, Control_c, 0, 32, 3
2, 480, Control_c, 0, 0, 0
2, 480, Control_c, 0, 32, 3
2, 480, Control_c, 0, 0, 0
2, 480, Control_c, 0, 32, 3
2, 480, Control_c, 0, 0, 0
2, 480, Control_c, 0, 32, 3
2, 480, Program_c, 0, 25
2, 480, Note_on_c, 0, 62, 72
2, 480, Note_on_c, 0, 67, 69
2, 480, Note_on_c, 0, 71, 72
2, 480, Note_on_c, 0, 74, 72
2, 480, Control_c, 4, 0, 9
2, 480, Control_c, 4, 32, 2
2, 480, Control_c, 4, 0, 9
2, 480, Control_c, 4, 32, 2
2, 480, Control_c, 4, 0, 9
2, 480, Control_c, 4, 32, 2
2, 480, Control_c, 4, 0, 9
2, 480, Control_c, 4, 32, 2
2, 480, Control_c, 4, 0, 9
2, 480, Control_c, 4, 32, 2
2, 480, Program_c, 4, 27
2, 480, Note_on_c, 4, 55, 86
2, 480, Control_c, 6, 0, 32
2, 480, Control_c, 6, 32, 1
2, 480, Control_c, 6, 0, 32
2, 480, Control_c, 6, 32, 1
2, 480, Control_c, 6, 0, 32
2, 480, Control_c, 6, 32, 1
2, 480, Control_c, 6, 0, 32
2, 480, Control_c, 6, 32, 1
2, 480, Control_c, 6, 0, 32
2, 480, Control_c, 6, 32, 1
2, 480, Program_c, 6, 52
2, 480, Note_on_c, 6, 62, 59
2, 480, Note_on_c, 6, 67, 55
2, 480, Note_on_c, 6, 71, 51
2, 480, Note_on_c, 9, 36, 127
2, 480, Note_on_c, 9, 42, 127
2, 481, Note_on_c, 9, 42, 0
2, 481, Note_on_c, 9, 36, 0
2, 481, Note_on_c, 9, 54, 85
2, 481, Note_on_c, 9, 54, 0
2, 490, Note_on_c, 0, 67, 0
2, 490, Note_on_c, 0, 74, 0
2, 495, Note_on_c, 0, 62, 0
2, 506, Note_on_c, 0, 62, 69
2, 506, Note_on_c, 0, 67, 79
2, 506, Note_on_c, 0, 74, 79
2, 511, Note_on_c, 1, 31, 0
2, 511, Note_on_c, 9, 54, 75
2, 511, Note_on_c, 9, 54, 0
2, 525, Note_on_c, 0, 71, 0
2, 535, Note_on_c, 0, 74, 0
2, 535, Note_on_c, 0, 67, 0
2, 535, Note_on_c, 1, 31, 110
2, 535, Note_on_c, 0, 67, 82
2, 535, Note_on_c, 0, 71, 76
2, 536, Note_on_c, 0, 74, 79
2, 536, Note_on_c, 4, 67, 86
2, 540, Note_on_c, 9, 36, 86
2, 540, Note_on_c, 9, 53, 86
2, 540, Note_on_c, 9, 54, 72
2, 540, Note_on_c, 9, 42, 66
2, 541, Note_on_c, 9, 42, 0
2, 541, Note_on_c, 9, 54, 0
2, 541, Note_on_c, 9, 36, 0
2, 541, Note_on_c, 9, 53, 0
2, 541, Note_on_c, 9, 82, 53
2, 541, Note_on_c, 9, 82, 0
2, 550, Note_on_c, 4, 55, 0
2, 560, Note_on_c, 0, 62, 0
2, 561, Note_on_c, 0, 74, 0
2, 561, Note_on_c, 0, 67, 0
2, 566, Note_on_c, 0, 62, 72
2, 566, Note_on_c, 0, 67, 79
2, 566, Note_on_c, 0, 74, 79
2, 570, Note_on_c, 9, 54, 72
2, 570, Note_on_c, 9, 82, 75
2, 571, Note_on_c, 9, 82, 0
2, 571, Note_on_c, 9, 54, 0
2, 571, Note_on_c, 1, 31, 0
2, 590, Note_on_c, 0, 71, 0
2, 595, Note_on_c, 0, 62, 0
2, 596, Note_on_c, 0, 74, 0
2, 596, Note_on_c, 1, 31, 106
2, 596, Note_on_c, 0, 62, 82
2, 596, Note_on_c, 0, 71, 96
2, 596, Note_on_c, 0, 74, 96
2, 596, Note_on_c, 4, 62, 76
2, 600, Note_on_c, 9, 38, 114
2, 600, Note_on_c, 9, 38, 0
2, 600, Note_on_c, 9, 42, 123
2, 600, Note_on_c, 9, 42, 0
2, 600, Note_on_c, 9, 123, 99
2, 600, Note_on_c, 9, 123, 0
2, 600, Note_on_c, 9, 54, 85
2, 600, Note_on_c, 9, 54, 0
2, 626, Note_on_c, 4, 69, 90
2, 630, Note_on_c, 9, 54, 69
2, 631, Note_on_c, 9, 54, 0
2, 645, Note_on_c, 4, 62, 0
2, 650, Note_on_c, 0, 74, 0
2, 655, Note_on_c, 0, 62, 0
2, 655, Note_on_c, 0, 71, 0
2, 655, Note_on_c, 0, 67, 0
2, 660, Note_on_c, 9, 53, 82
2, 660, Note_on_c, 9, 42, 51
2, 661, Note_on_c, 9, 42, 0
2, 661, Note_on_c, 9, 53, 0
2, 661, Note_on_c, 1, 31, 0
2, 661, Note_on_c, 9, 54, 58
2, 661, Note_on_c, 9, 54, 0
2, 661, Note_on_c, 9, 82, 58
2, 661, Note_on_c, 9, 82, 0
2, 675, Note_on_c, 4, 69, 0
2, 680, Note_on_c, 4, 67, 0
2, 685, Note_on_c, 1, 31, 110
2, 685, Note_on_c, 0, 62, 76
2, 685, Note_on_c, 0, 67, 79
2, 686, Note_on_c, 0, 71, 74
2, 686, Note_on_c, 0, 74, 89
2, 686, Note_on_c, 4, 55, 90
2, 691, Note_on_c, 9, 36, 114
2, 691, Note_on_c, 9, 36, 0
2, 691, Note_on_c, 9, 54, 53
2, 691, Note_on_c, 9, 54, 0
2, 691, Note_on_c, 9, 82, 56
2, 691, Note_on_c, 9, 82, 0
2, 705, Note_on_c, 0, 67, 0
2, 711, Note_on_c, 0, 71, 0
2, 711, Note_on_c, 0, 62, 0
2, 715, Note_on_c, 1, 31, 0
2, 715, Note_on_c, 0, 74, 0
2, 715, Note_on_c, 4, 67, 76
2, 720, Note_on_c, 9, 42, 123
2, 721, Note_on_c, 9, 42, 0
2, 721, Note_on_c, 9, 54, 75
2, 721, Note_on_c, 9, 54, 0
2, 745, Note_on_c, 1, 31, 79
2, 745, Note_on_c, 0, 62, 62
2, 746, Note_on_c, 0, 67, 59
2, 746, Note_on_c, 0, 71, 64
2, 746, Note_on_c, 0, 74, 82
2, 746, Note_on_c, 4, 62, 51
2, 750, Note_on_c, 9, 36, 45
2, 750, Note_on_c, 9, 54, 58
2, 751, Note_on_c, 9, 54, 0
2, 751, Note_on_c, 9, 36, 0
2, 760, Note_on_c, 1, 31, 0
2, 776, Note_on_c, 0, 71, 0
2, 776, Note_on_c, 0, 67, 0
2, 776, Note_on_c, 0, 62, 0
2, 776, Note_on_c, 1, 31, 110
2, 776, Note_on_c, 0, 62, 74
2, 776, Note_on_c, 0, 67, 76
2, 776, Note_on_c, 0, 71, 76
2, 780, Note_on_c, 9, 36, 123
2, 780, Note_on_c, 9, 36, 0
2, 780, Note_on_c, 9, 53, 86
2, 780, Note_on_c, 9, 53, 0
2, 780, Note_on_c, 9, 42, 49
2, 780, Note_on_c, 9, 42, 0
2, 780, Note_on_c, 9, 54, 51
2, 780, Note_on_c, 9, 54, 0
2, 780, Note_on_c, 9, 82, 63
2, 780, Note_on_c, 9, 82, 0
2, 800, Note_on_c, 0, 62, 0
2, 801, Note_on_c, 0, 67, 0
2, 805, Note_on_c, 0, 74, 0
2, 805, Note_on_c, 0, 62, 79
2, 806, Note_on_c, 0, 67, 82
2, 806, Note_on_c, 0, 74, 79
2, 806, Note_on_c, 4, 69, 82
2, 810, Note_on_c, 1, 31, 0
2, 810, Note_on_c, 9, 54, 56
2, 810, Note_on_c, 9, 82, 51
2, 811, Note_on_c, 9, 82, 0
2, 811, Note_on_c, 9, 54, 0
2, 815, Note_on_c, 4, 62, 0
2, 830, Note_on_c, 0, 71, 0
2, 836, Note_on_c, 0, 74, 0
2, 836, Note_on_c, 0, 62, 0
2, 836, Note_on_c, 0, 67, 0
2, 836, Note_on_c, 1, 31, 110
2, 836, Note_on_c, 0, 62, 91
2, 836, Note_on_c, 0, 67, 91
2, 836, Note_on_c, 0, 71, 86
2, 836, Note_on_c, 0, 74, 82
2, 841, Note_on_c, 9, 38, 114
2, 841, Note_on_c, 9, 38, 0
2, 841, Note_on_c, 9, 42, 123
2, 841, Note_on_c, 9, 42, 0
2, 841, Note_on_c, 9, 123, 91
2, 841, Note_on_c, 9, 123, 0
2, 841, Note_on_c, 9, 54, 85
2, 841, Note_on_c, 9, 54, 0
2, 865, Note_on_c, 4, 62, 64
2, 870, Note_on_c, 4, 67, 0
2, 870, Note_on_c, 9, 54, 28
2, 870, Note_on_c, 9, 54, 0
2, 881, Note_on_c, 1, 31, 0
2, 890, Note_on_c, 0, 67, 0
2, 891, Note_on_c, 0, 71, 0
2, 891, Note_on_c, 0, 74, 0
2, 896, Note_on_c, 0, 62, 0
2, 896, Note_on_c, 1, 31, 79
2, 896, Note_on_c, 4, 67, 79
2, 901, Note_on_c, 9, 53, 82
2, 901, Note_on_c, 9, 53, 0
2, 901, Note_on_c, 9, 42, 41
2, 901, Note_on_c, 9, 42, 0
2, 901, Note_on_c, 9, 54, 51
2, 901, Note_on_c, 9, 54, 0
2, 901, Note_on_c, 9, 82, 58
2, 901, Note_on_c, 9, 82, 0
2, 905, Note_on_c, 4, 62, 0
2, 910, Note_on_c, 1, 31, 0
2, 920, Note_on_c, 4, 55, 0
2, 925, Note_on_c, 1, 31, 86
2, 925, Note_on_c, 4, 62, 67
2, 930, Note_on_c, 9, 25, 72
2, 931, Note_on_c, 9, 25, 0
2, 931, Note_on_c, 9, 54, 49
2, 931, Note_on_c, 9, 54, 0
2, 931, Note_on_c, 9, 82, 58
2, 931, Note_on_c, 9, 82, 0
2, 945, Note_on_c, 1, 31, 0
2, 945, Note_on_c, 4, 67, 0
2, 951, Note_on_c, 4, 69, 0
2, 951, Note_on_c, 4, 62, 0
2, 955, Note_on_c, 1, 31, 110
2, 955, Note_on_c, 0, 62, 72
2, 956, Note_on_c, 0, 67, 69
2, 956, Note_on_c, 0, 71, 72
2, 956, Note_on_c, 0, 74, 72
2, 956, Note_on_c, 4, 55, 90
2, 960, Note_on_c, 9, 36, 110
2, 960, Note_on_c, 9, 42, 123
2, 961, Note_on_c, 9, 42, 0
2, 961, Note_on_c, 9, 36, 0
2, 961, Note_on_c, 9, 54, 91
2, 961, Note_on_c, 9, 54, 0
2, 980, Note_on_c, 0, 67, 0
2, 980, Note_on_c, 0, 74, 0
2, 980, Note_on_c, 0, 62, 0
2, 985, Note_on_c, 1, 31, 0
2, 985, Note_on_c, 0, 62, 69
2, 985, Note_on_c, 0, 67, 79
2, 985, Note_on_c, 0, 74, 79
2, 990, Note_on_c, 9, 54, 49
2, 991, Note_on_c, 9, 54, 0
2, 1010, Note_on_c, 0, 71, 0
2, 1015, Note_on_c, 0, 67, 0
2, 1016, Note_on_c, 0, 74, 0
2, 1016, Note_on_c, 1, 31, 106
2, 1016, Note_on_c, 0, 67, 82
2, 1016, Note_on_c, 0, 71, 76
2, 1016, Note_on_c, 0, 74, 79
2, 1016, Note_on_c, 4, 71, 90
2, 1020, Note_on_c, 9, 36, 114
2, 1021, Note_on_c, 9, 36, 0
2, 1021, Note_on_c, 9, 53, 79
2, 1021, Note_on_c, 9, 53, 0
2, 1021, Note_on_c, 9, 42, 61
2, 1021, Note_on_c, 9, 42, 0
2, 1021, Note_on_c, 9, 54, 53
2, 1021, Note_on_c, 9, 54, 0
2, 1021, Note_on_c, 9, 82, 56
2, 1021, Note_on_c, 9, 82, 0
2, 1040, Note_on_c, 0, 62, 0
2, 1041, Note_on_c, 0, 74, 0
2, 1041, Note_on_c, 0, 67, 0
2, 1045, Note_on_c, 1, 31, 0
2, 1045, Note_on_c, 0, 62, 72
2, 1045, Note_on_c, 0, 67, 79
2, 1045, Note_on_c, 0, 74, 79
2, 1050, Note_on_c, 9, 54, 53
2, 1050, Note_on_c, 9, 54, 0
2, 1050, Note_on_c, 9, 82, 58
2, 1050, Note_on_c, 9, 82, 0
2, 1070, Note_on_c, 0, 71, 0
2, 1075, Note_on_c, 0, 62, 0
2, 1076, Note_on_c, 0, 74, 0
2, 1076, Note_on_c, 1, 31, 110
2, 1076, Note_on_c, 0, 62, 82
2, 1076, Note_on_c, 0, 71, 96
2, 1076, Note_on_c, 0, 74, 96
2, 1076, Note_on_c, 4, 67, 76
2, 1080, Note_on_c, 9, 38, 114
2, 1081, Note_on_c, 9, 38, 0
2, 1081, Note_on_c, 9, 42, 127
2, 1081, Note_on_c, 9, 42, 0
2, 1081, Note_on_c, 9, 123, 99
2, 1081, Note_on_c, 9, 123, 0
2, 1081, Note_on_c, 9, 54, 106
2, 1081, Note_on_c, 9, 54, 0
2, 1105, Note_on_c, 4, 62, 90
2, 1110, Note_on_c, 9, 54, 58
2, 1110, Note_on_c, 9, 54, 0
2, 1135, Note_on_c, 0, 67, 0
2, 1136, Note_on_c, 0, 74, 0
2, 1136, Note_on_c, 0, 62, 0
2, 1136, Note_on_c, 0, 71, 0
2, 1140, Note_on_c, 9, 53, 76
2, 1140, Note_on_c, 9, 42, 56
2, 1141, Note_on_c, 9, 42, 0
2, 1141, Note_on_c, 9, 53, 0
2, 1141, Note_on_c, 9, 54, 51
2, 1141, Note_on_c, 9, 54, 0
2, 1141, Note_on_c, 9, 82, 53
2, 1141, Note_on_c, 9, 82, 0
2, 1145, Note_on_c, 1, 31, 0
2, 1145, Note_on_c, 4, 55, 0
2, 1156, Note_on_c, 4, 62, 0
2, 1165, Note_on_c, 4, 71, 0
2, 1165, Note_on_c, 1, 31, 106
2, 1166, Note_on_c, 0, 62, 76
2, 1166, Note_on_c, 0, 67, 79
2, 1166, Note_on_c, 0, 71, 74
2, 1166, Note_on_c, 0, 74, 89
2, 1166, Note_on_c, 4, 55, 86
2, 1170, Note_on_c, 9, 36, 114
2, 1171, Note_on_c, 9, 36, 0
2, 1171, Note_on_c, 4, 67, 0
2, 1171, Note_on_c, 9, 54, 49
2, 1171, Note_on_c, 9, 54, 0
2, 1171, Note_on_c, 9, 82, 56
2, 1171, Note_on_c, 9, 82, 0
2, 1185, Note_on_c, 0, 71, 0
2, 1185, Note_on_c, 0, 67, 0
2, 1191, Note_on_c, 0, 62, 0
2, 1195, Note_on_c, 0, 74, 0
2, 1195, Note_on_c, 4, 71, 82
2, 1200, Note_on_c, 1, 31, 0
2, 1200, Note_on_c, 9, 42, 127
2, 1200, Note_on_c, 9, 54, 99
2, 1201, Note_on_c, 9, 54, 0
2, 1201, Note_on_c, 9, 42, 0
2, 1225, Note_on_c, 1, 31, 102
2, 1225, Note_on_c, 0, 62, 62
2, 1225, Note_on_c, 0, 67, 59
2, 1226, Note_on_c, 0, 71, 64
2, 1226, Note_on_c, 0, 74, 82
2, 1231, Note_on_c, 9, 36, 35
2, 1231, Note_on_c, 9, 36, 0
2, 1231, Note_on_c, 9, 54, 45
2, 1231, Note_on_c, 9, 54, 0
2, 1245, Note_on_c, 1, 31, 0
2, 1250, Note_on_c, 0, 71, 0
2, 1250, Note_on_c, 0, 67, 0
2, 1250, Note_on_c, 0, 62, 0
2, 1255, Note_on_c, 1, 31, 106
2, 1255, Note_on_c, 0, 62, 74
2, 1256, Note_on_c, 0, 67, 76
2, 1256, Note_on_c, 0, 71, 76
2, 1256, Note_on_c, 4, 67, 74
2, 1260, Note_on_c, 9, 36, 127
2, 1260, Note_on_c, 9, 53, 82
2, 1260, Note_on_c, 9, 42, 51
2, 1260, Note_on_c, 9, 54, 45
2, 1261, Note_on_c, 9, 54, 0
2, 1261, Note_on_c, 9, 36, 0
2, 1261, Note_on_c, 9, 42, 0
2, 1261, Note_on_c, 9, 53, 0
2, 1261, Note_on_c, 9, 82, 56
2, 1261, Note_on_c, 9, 82, 0
2, 1286, Note_on_c, 0, 74, 0
2, 1286, Note_on_c, 0, 62, 0
2, 1286, Note_on_c, 0, 67, 0
2, 1286, Note_on_c, 0, 62, 79
2, 1286, Note_on_c, 0, 67, 82
2, 1286, Note_on_c, 0, 74, 79
2, 1286, Note_on_c, 4, 62, 82
2, 1291, Note_on_c, 1, 31, 0
2, 1291, Note_on_c, 9, 54, 53
2, 1291, Note_on_c, 9, 54, 0
2, 1291, Note_on_c, 9, 82, 58
2, 1291, Note_on_c, 9, 82, 0
2, 1310, Note_on_c, 0, 67, 0
2, 1310, Note_on_c, 0, 74, 0
2, 1315, Note_on_c, 0, 71, 0
2, 1315, Note_on_c, 0, 62, 0
2, 1315, Note_on_c, 1, 31, 114
2, 1315, Note_on_c, 0, 62, 91
2, 1315, Note_on_c, 0, 67, 91
2, 1315, Note_on_c, 0, 71, 86
2, 1315, Note_on_c, 0, 74, 82
2, 1320, Note_on_c, 9, 38, 114
2, 1320, Note_on_c, 9, 38, 0
2, 1320, Note_on_c, 9, 42, 123
2, 1320, Note_on_c, 9, 123, 85
2, 1320, Note_on_c, 9, 54, 99
2, 1321, Note_on_c, 9, 54, 0
2, 1321, Note_on_c, 9, 123, 0
2, 1321, Note_on_c, 9, 42, 0
2, 1325, Note_on_c, 4, 67, 0
2, 1346, Note_on_c, 4, 67, 67
2, 1350, Note_on_c, 4, 71, 0
2, 1350, Note_on_c, 9, 54, 56
2, 1350, Note_on_c, 9, 54, 0
2, 1355, Note_on_c, 1, 31, 0
2, 1361, Note_on_c, 4, 62, 0
2, 1371, Note_on_c, 0, 67, 0
2, 1371, Note_on_c, 0, 71, 0
2, 1371, Note_on_c, 0, 74, 0
2, 1375, Note_on_c, 0, 62, 0
2, 1375, Note_on_c, 1, 31, 79
2, 1375, Note_on_c, 4, 71, 86
2, 1380, Note_on_c, 4, 67, 0
2, 1380, Note_on_c, 9, 53, 86
2, 1380, Note_on_c, 9, 42, 75
2, 1380, Note_on_c, 9, 54, 38
2, 1381, Note_on_c, 9, 54, 0
2, 1381, Note_on_c, 9, 42, 0
2, 1381, Note_on_c, 9, 53, 0
2, 1381, Note_on_c, 9, 82, 49
2, 1381, Note_on_c, 9, 82, 0
2, 1390, Note_on_c, 1, 31, 0
2, 1405, Note_on_c, 1, 31, 106
2, 1405, Note_on_c, 4, 67, 76
2, 1410, Note_on_c, 9, 54, 45
2, 1411, Note_on_c, 9, 54, 0
2, 1411, Note_on_c, 9, 82, 56
2, 1411, Note_on_c, 9, 82, 0
2, 1415, Note_on_c, 4, 55, 0
2, 1431, Note_on_c, 4, 71, 0
2, 1435, Note_on_c, 1, 31, 0
2, 1436, Note_on_c, 6, 67, 0
2, 1436, Note_on_c, 6, 62, 0
2, 1436, Note_on_c, 4, 67, 0
2, 1436, Note_on_c, 6, 71, 0
2, 1436, Note_on_c, 1, 33, 106
2, 1436, Note_on_c, 0, 60, 72
2, 1436, Note_on_c, 0, 48, 72
2, 1436, Note_on_c, 0, 52, 72
2, 1436, Note_on_c, 0, 57, 69
2, 1436, Note_on_c, 4, 45, 86
2, 1436, Note_on_c, 6, 60, 61
2, 1436, Note_on_c, 6, 52, 57
2, 1436, Note_on_c, 6, 57, 64
2, 1440, Note_on_c, 9, 36, 127
2, 1440, Note_on_c, 9, 42, 127
2, 1441, Note_on_c, 9, 42, 0
2, 1441, Note_on_c, 9, 36, 0
2, 1441, Note_on_c, 9, 54, 85
2, 1441, Note_on_c, 9, 54, 0
2, 1455, Note_on_c, 0, 57, 0
2, 1455, Note_on_c, 0, 60, 0
2, 1455, Note_on_c, 0, 52, 0
2, 1465, Note_on_c, 0, 60, 79
2, 1466, Note_on_c, 0, 52, 69
2, 1466, Note_on_c, 0, 57, 79
2, 1470, Note_on_c, 1, 33, 0
2, 1470, Note_on_c, 9, 54, 75
2, 1470, Note_on_c, 9, 54, 0
2, 1485, Note_on_c, 0, 48, 0
2, 1491, Note_on_c, 0, 57, 0
2, 1491, Note_on_c, 0, 60, 0
2, 1495, Note_on_c, 1, 33, 110
2, 1495, Note_on_c, 0, 60, 79
2, 1495, Note_on_c, 0, 48, 76
2, 1496, Note_on_c, 0, 57, 82
2, 1496, Note_on_c, 4, 60, 90
2, 1501, Note_on_c, 9, 36, 86
2, 1501, Note_on_c, 9, 36, 0
2, 1501, Note_on_c, 9, 53, 86
2, 1501, Note_on_c, 9, 53, 0
2, 1501, Note_on_c, 9, 54, 72
2, 1501, Note_on_c, 9, 54, 0
2, 1501, Note_on_c, 9, 42, 66
2, 1501, Note_on_c, 9, 42, 0
2, 1501, Note_on_c, 9, 82, 53
2, 1501, Note_on_c, 9, 82, 0
2, 1520, Note_on_c, 0, 52, 0
2, 1526, Note_on_c, 0, 57, 0
2, 1526, Note_on_c, 0, 60, 0
2, 1526, Note_on_c, 0, 60, 79
2, 1526, Note_on_c, 0, 52, 72
2, 1526, Note_on_c, 0, 57, 79
2, 1530, Note_on_c, 1, 33, 0
2, 1530, Note_on_c, 9, 54, 72
2, 1530, Note_on_c, 9, 54, 0
2, 1530, Note_on_c, 9, 82, 75
2, 1530, Note_on_c, 9, 82, 0
2, 1551, Note_on_c, 0, 60, 0
2, 1551, Note_on_c, 0, 52, 0
2, 1551, Note_on_c, 0, 48, 0
2, 1555, Note_on_c, 1, 33, 106
2, 1556, Note_on_c, 0, 60, 96
2, 1556, Note_on_c, 0, 48, 96
2, 1556, Note_on_c, 0, 52, 82
2, 1556, Note_on_c, 4, 57, 69
2, 1560, Note_on_c, 9, 38, 114
2, 1560, Note_on_c, 9, 42, 123
2, 1561, Note_on_c, 9, 42, 0
2, 1561, Note_on_c, 9, 38, 0
2, 1561, Note_on_c, 9, 123, 99
2, 1561, Note_on_c, 9, 123, 0
2, 1561, Note_on_c, 9, 54, 85
2, 1561, Note_on_c, 9, 54, 0
2, 1585, Note_on_c, 4, 64, 86
2, 1590, Note_on_c, 9, 54, 69
2, 1591, Note_on_c, 9, 54, 0
2, 1595, Note_on_c, 4, 45, 0
2, 1610, Note_on_c, 0, 57, 0
2, 1616, Note_on_c, 0, 48, 0
2, 1616, Note_on_c, 0, 60, 0
2, 1616, Note_on_c, 0, 52, 0
2, 1620, Note_on_c, 9, 53, 82
2, 1621, Note_on_c, 9, 53, 0
2, 1621, Note_on_c, 1, 33, 0
2, 1621, Note_on_c, 9, 42, 51
2, 1621, Note_on_c, 9, 42, 0
2, 1621, Note_on_c, 9, 54, 58
2, 1621, Note_on_c, 9, 54, 0
2, 1621, Note_on_c, 9, 82, 58
2, 1621, Note_on_c, 9, 82, 0
2, 1626, Note_on_c, 4, 64, 0
2, 1640, Note_on_c, 4, 60, 0
2, 1645, Note_on_c, 4, 57, 0
2, 1645, Note_on_c, 1, 33, 110
2, 1645, Note_on_c, 0, 60, 89
2, 1646, Note_on_c, 0, 48, 74
2, 1646, Note_on_c, 0, 52, 76
2, 1646, Note_on_c, 0, 57, 79
2, 1646, Note_on_c, 4, 45, 86
2, 1650, Note_on_c, 9, 36, 114
2, 1651, Note_on_c, 9, 36, 0
2, 1651, Note_on_c, 9, 54, 53
2, 1651, Note_on_c, 9, 54, 0
2, 1651, Note_on_c, 9, 82, 56
2, 1651, Note_on_c, 9, 82, 0
2, 1665, Note_on_c, 0, 52, 0
2, 1665, Note_on_c, 0, 48, 0
2, 1666, Note_on_c, 0, 57, 0
2, 1670, Note_on_c, 0, 60, 0
2, 1675, Note_on_c, 1, 33, 0
2, 1675, Note_on_c, 4, 60, 80
2, 1681, Note_on_c, 9, 42, 123
2, 1681, Note_on_c, 9, 42, 0
2, 1681, Note_on_c, 9, 54, 75
2, 1681, Note_on_c, 9, 54, 0
2, 1705, Note_on_c, 1, 33, 79
2, 1705, Note_on_c, 0, 60, 82
2, 1705, Note_on_c, 0, 48, 64
2, 1706, Note_on_c, 0, 52, 62
2, 1706, Note_on_c, 0, 57, 59
2, 1710, Note_on_c, 9, 36, 45
2, 1711, Note_on_c, 9, 36, 0
2, 1711, Note_on_c, 9, 54, 58
2, 1711, Note_on_c, 9, 54, 0
2, 1720, Note_on_c, 1, 33, 0
2, 1730, Note_on_c, 0, 48, 0
2, 1731, Note_on_c, 0, 52, 0
2, 1731, Note_on_c, 0, 57, 0
2, 1735, Note_on_c, 1, 33, 110
2, 1735, Note_on_c, 0, 48, 76
2, 1736, Note_on_c, 0, 52, 74
2, 1736, Note_on_c, 0, 57, 76
2, 1736, Note_on_c, 4, 57, 74
2, 1740, Note_on_c, 9, 36, 123
2, 1740, Note_on_c, 9, 53, 86
2, 1741, Note_on_c, 9, 53, 0
2, 1741, Note_on_c, 9, 36, 0
2, 1741, Note_on_c, 9, 42, 49
2, 1741, Note_on_c, 9, 42, 0
2, 1741, Note_on_c, 9, 54, 51
2, 1741, Note_on_c, 9, 54, 0
2, 1741, Note_on_c, 9, 82, 63
2, 1741, Note_on_c, 9, 82, 0
2, 1766, Note_on_c, 0, 52, 0
2, 1766, Note_on_c, 0, 57, 0
2, 1766, Note_on_c, 0, 60, 0
2, 1766, Note_on_c, 0, 60, 79
2, 1766, Note_on_c, 0, 52, 79
2, 1766, Note_on_c, 0, 57, 82
2, 1766, Note_on_c, 4, 64, 86
2, 1770, Note_on_c, 1, 33, 0
2, 1770, Note_on_c, 9, 54, 56
2, 1770, Note_on_c, 9, 54, 0
2, 1770, Note_on_c, 9, 82, 51
2, 1770, Note_on_c, 9, 82, 0
2, 1790, Note_on_c, 0, 60, 0
2, 1790, Note_on_c, 0, 52, 0
2, 1790, Note_on_c, 0, 57, 0
2, 1795, Note_on_c, 0, 48, 0
2, 1795, Note_on_c, 1, 33, 110
2, 1795, Note_on_c, 0, 60, 82
2, 1795, Note_on_c, 0, 48, 86
2, 1796, Note_on_c, 0, 52, 91
2, 1796, Note_on_c, 0, 57, 91
2, 1800, Note_on_c, 9, 38, 114
2, 1801, Note_on_c, 9, 38, 0
2, 1801, Note_on_c, 4, 57, 0
2, 1801, Note_on_c, 9, 42, 123
2, 1801, Note_on_c, 9, 42, 0
2, 1801, Note_on_c, 9, 123, 91
2, 1801, Note_on_c, 9, 123, 0
2, 1801, Note_on_c, 9, 54, 85
2, 1801, Note_on_c, 9, 54, 0
2, 1825, Note_on_c, 4, 57, 64
2, 1831, Note_on_c, 9, 54, 28
2, 1831, Note_on_c, 9, 54, 0
2, 1840, Note_on_c, 1, 33, 0
2, 1845, Note_on_c, 4, 60, 0
2, 1850, Note_on_c, 0, 52, 0
2, 1850, Note_on_c, 0, 57, 0
2, 1855, Note_on_c, 0, 60, 0
2, 1856, Note_on_c, 0, 48, 0
2, 1856, Note_on_c, 1, 33, 79
2, 1856, Note_on_c, 4, 60, 80
2, 1860, Note_on_c, 4, 57, 0
2, 1860, Note_on_c, 9, 53, 82
2, 1860, Note_on_c, 9, 42, 41
2, 1861, Note_on_c, 9, 42, 0
2, 1861, Note_on_c, 9, 53, 0
2, 1861, Note_on_c, 9, 54, 51
2, 1861, Note_on_c, 9, 54, 0
2, 1861, Note_on_c, 9, 82, 58
2, 1861, Note_on_c, 9, 82, 0
2, 1870, Note_on_c, 1, 33, 0
2, 1886, Note_on_c, 1, 33, 86
2, 1886, Note_on_c, 4, 57, 86
2, 1891, Note_on_c, 4, 45, 0
2, 1891, Note_on_c, 9, 25, 72
2, 1891, Note_on_c, 9, 25, 0
2, 1891, Note_on_c, 9, 54, 49
2, 1891, Note_on_c, 9, 54, 0
2, 1891, Note_on_c, 9, 82, 58
2, 1891, Note_on_c, 9, 82, 0
2, 1905, Note_on_c, 1, 33, 0
2, 1915, Note_on_c, 1, 33, 110
2, 1915, Note_on_c, 0, 60, 72
2, 1916, Note_on_c, 0, 48, 72
2, 1916, Note_on_c, 0, 52, 72
2, 1916, Note_on_c, 0, 57, 69
2, 1916, Note_on_c, 4, 45, 90
2, 1920, Note_on_c, 9, 36, 110
2, 1920, Note_on_c, 9, 42, 123
2, 1921, Note_on_c, 9, 42, 0
2, 1921, Note_on_c, 4, 57, 0
2, 1921, Note_on_c, 9, 36, 0
2, 1921, Note_on_c, 4, 60, 0
2, 1921, Note_on_c, 4, 64, 0
2, 1921, Note_on_c, 9, 54, 91
2, 1921, Note_on_c, 9, 54, 0
2, 1945, Note_on_c, 0, 52, 0
2, 1945, Note_on_c, 1, 33, 0
2, 1945, Note_on_c, 0, 60, 0
2, 1946, Note_on_c, 0, 57, 0
2, 1946, Note_on_c, 0, 60, 79
2, 1946, Note_on_c, 0, 52, 69
2, 1946, Note_on_c, 0, 57, 79
2, 1950, Note_on_c, 9, 54, 49
2, 1951, Note_on_c, 9, 54, 0
2, 1970, Note_on_c, 0, 57, 0
2, 1970, Note_on_c, 0, 60, 0
2, 1975, Note_on_c, 0, 48, 0
2, 1975, Note_on_c, 1, 33, 106
2, 1975, Note_on_c, 0, 60, 79
2, 1975, Note_on_c, 0, 48, 76
2, 1976, Note_on_c, 0, 57, 82
2, 1976, Note_on_c, 4, 60, 90
2, 1980, Note_on_c, 9, 36, 114
2, 1980, Note_on_c, 9, 53, 79
2, 1981, Note_on_c, 9, 53, 0
2, 1981, Note_on_c, 9, 36, 0
2, 1981, Note_on_c, 9, 42, 61
2, 1981, Note_on_c, 9, 42, 0
2, 1981, Note_on_c, 9, 54, 53
2, 1981, Note_on_c, 9, 54, 0
2, 1981, Note_on_c, 9, 82, 56
2, 1981, Note_on_c, 9, 82, 0
2, 2000, Note_on_c, 0, 60, 0
2, 2000, Note_on_c, 0, 52, 0
2, 2001, Note_on_c, 0, 57, 0
2, 2005, Note_on_c, 1, 33, 0
2, 2005, Note_on_c, 0, 60, 79
2, 2006, Note_on_c, 0, 52, 72
2, 2006, Note_on_c, 0, 57, 79
2, 2010, Note_on_c, 9, 54, 53
2, 2011, Note_on_c, 9, 54, 0
2, 2011, Note_on_c, 9, 82, 58
2, 2011, Note_on_c, 9, 82, 0
2, 2035, Note_on_c, 0, 52, 0
2, 2035, Note_on_c, 0, 60, 0
2, 2036, Note_on_c, 0, 48, 0
2, 2036, Note_on_c, 1, 33, 110
2, 2036, Note_on_c, 0, 60, 96
2, 2036, Note_on_c, 0, 48, 96
2, 2036, Note_on_c, 0, 52, 82
2, 2036, Note_on_c, 4, 57, 74
2, 2040, Note_on_c, 9, 38, 114
2, 2040, Note_on_c, 9, 38, 0
2, 2040, Note_on_c, 9, 42, 127
2, 2040, Note_on_c, 9, 42, 0
2, 2040, Note_on_c, 9, 123, 99
2, 2040, Note_on_c, 9, 54, 106
2, 2041, Note_on_c, 9, 54, 0
2, 2041, Note_on_c, 9, 123, 0
2, 2065, Note_on_c, 4, 64, 82
2, 2071, Note_on_c, 9, 54, 58
2, 2071, Note_on_c, 9, 54, 0
2, 2085, Note_on_c, 4, 57, 0
2, 2086, Note_on_c, 4, 45, 0
2, 2096, Note_on_c, 0, 48, 0
2, 2096, Note_on_c, 0, 60, 0
2, 2096, Note_on_c, 0, 57, 0
2, 2096, Note_on_c, 0, 52, 0
2, 2096, Note_on_c, 4, 64, 0
2, 2096, Note_on_c, 4, 57, 67
2, 2100, Note_on_c, 9, 53, 76
2, 2100, Note_on_c, 9, 53, 0
2, 2100, Note_on_c, 9, 42, 56
2, 2100, Note_on_c, 9, 42, 0
2, 2100, Note_on_c, 9, 54, 51
2, 2100, Note_on_c, 9, 54, 0
2, 2100, Note_on_c, 9, 82, 53
2, 2100, Note_on_c, 9, 82, 0
2, 2105, Note_on_c, 1, 33, 0
2, 2110, Note_on_c, 4, 60, 0
2, 2110, Note_on_c, 4, 57, 0
2, 2125, Note_on_c, 1, 33, 106
2, 2125, Note_on_c, 0, 60, 89
2, 2126, Note_on_c, 0, 48, 74
2, 2126, Note_on_c, 0, 52, 76
2, 2126, Note_on_c, 0, 57, 79
2, 2126, Note_on_c, 4, 45, 86
2, 2130, Note_on_c, 9, 36, 114
2, 2130, Note_on_c, 9, 54, 49
2, 2131, Note_on_c, 9, 54, 0
2, 2131, Note_on_c, 9, 36, 0
2, 2131, Note_on_c, 9, 82, 56
2, 2131, Note_on_c, 9, 82, 0
2, 2146, Note_on_c, 0, 57, 0
2, 2150, Note_on_c, 0, 48, 0
2, 2151, Note_on_c, 0, 52, 0
2, 2155, Note_on_c, 0, 60, 0
2, 2155, Note_on_c, 4, 60, 90
2, 2160, Note_on_c, 9, 42, 127
2, 2161, Note_on_c, 9, 42, 0
2, 2161, Note_on_c, 1, 33, 0
2, 2161, Note_on_c, 9, 54, 99
2, 2161, Note_on_c, 9, 54, 0
2, 2185, Note_on_c, 1, 33, 102
2, 2185, Note_on_c, 0, 60, 82
2, 2185, Note_on_c, 0, 48, 64
2, 2185, Note_on_c, 0, 52, 62
2, 2186, Note_on_c, 0, 57, 59
2, 2190, Note_on_c, 9, 36, 35
2, 2191, Note_on_c, 9, 36, 0
2, 2191, Note_on_c, 9, 54, 45
2, 2191, Note_on_c, 9, 54, 0
2, 2205, Note_on_c, 1, 33, 0
2, 2215, Note_on_c, 0, 48, 0
2, 2216, Note_on_c, 0, 52, 0
2, 2216, Note_on_c, 0, 57, 0
2, 2216, Note_on_c, 1, 33, 106
2, 2216, Note_on_c, 0, 48, 76
2, 2216, Note_on_c, 0, 52, 74
2, 2216, Note_on_c, 0, 57, 76
2, 2216, Note_on_c, 4, 57, 74
2, 2221, Note_on_c, 9, 36, 127
2, 2221, Note_on_c, 9, 36, 0
2, 2221, Note_on_c, 9, 53, 82
2, 2221, Note_on_c, 9, 53, 0
2, 2221, Note_on_c, 9, 42, 51
2, 2221, Note_on_c, 9, 42, 0
2, 2221, Note_on_c, 9, 54, 45
2, 2221, Note_on_c, 9, 54, 0
2, 2221, Note_on_c, 9, 82, 56
2, 2221, Note_on_c, 9, 82, 0
2, 2240, Note_on_c, 0, 52, 0
2, 2240, Note_on_c, 0, 57, 0
2, 2245, Note_on_c, 0, 60, 0
2, 2246, Note_on_c, 0, 60, 79
2, 2246, Note_on_c, 0, 52, 79
2, 2246, Note_on_c, 0, 57, 82
2, 2246, Note_on_c, 4, 64, 82
2, 2250, Note_on_c, 9, 54, 53
2, 2251, Note_on_c, 9, 54, 0
2, 2251, Note_on_c, 1, 33, 0
2, 2251, Note_on_c, 9, 82, 58
2, 2251, Note_on_c, 9, 82, 0
2, 2275, Note_on_c, 0, 60, 0
2, 2276, Note_on_c, 0, 52, 0
2, 2276, Note_on_c, 0, 48, 0
2, 2276, Note_on_c, 0, 57, 0
2, 2276, Note_on_c, 1, 33, 114
2, 2276, Note_on_c, 0, 60, 82
2, 2276, Note_on_c, 0, 48, 86
2, 2276, Note_on_c, 0, 52, 91
2, 2276, Note_on_c, 0, 57, 91
2, 2280, Note_on_c, 9, 38, 114
2, 2280, Note_on_c, 9, 42, 123
2, 2281, Note_on_c, 9, 42, 0
2, 2281, Note_on_c, 9, 38, 0
2, 2281, Note_on_c, 4, 57, 0
2, 2281, Note_on_c, 9, 123, 85
2, 2281, Note_on_c, 9, 123, 0
2, 2281, Note_on_c, 9, 54, 99
2, 2281, Note_on_c, 9, 54, 0
2, 2305, Note_on_c, 4, 57, 69
2, 2310, Note_on_c, 9, 54, 56
2, 2310, Note_on_c, 9, 54, 0
2, 2315, Note_on_c, 1, 33, 0
2, 2315, Note_on_c, 4, 60, 0
2, 2331, Note_on_c, 0, 52, 0
2, 2331, Note_on_c, 0, 48, 0
2, 2331, Note_on_c, 0, 57, 0
2, 2335, Note_on_c, 0, 60, 0
2, 2335, Note_on_c, 4, 57, 0
2, 2335, Note_on_c, 1, 33, 79
2, 2335, Note_on_c, 4, 60, 85
2, 2340, Note_on_c, 9, 53, 86
2, 2341, Note_on_c, 9, 53, 0
2, 2341, Note_on_c, 9, 42, 75
2, 2341, Note_on_c, 9, 42, 0
2, 2341, Note_on_c, 9, 54, 38
2, 2341, Note_on_c, 9, 54, 0
2, 2341, Note_on_c, 9, 82, 49
2, 2341, Note_on_c, 9, 82, 0
2, 2351, Note_on_c, 1, 33, 0
2, 2365, Note_on_c, 1, 33, 106
2, 2365, Note_on_c, 4, 57, 90
2, 2370, Note_on_c, 9, 54, 45
2, 2370, Note_on_c, 9, 54, 0
2, 2370, Note_on_c, 9, 82, 56
2, 2370, Note_on_c, 9, 82, 0
2, 2385, Note_on_c, 4, 57, 0
2, 2386, Note_on_c, 4, 64, 0
2, 2390, Note_on_c, 6, 52, 0
2, 2390, Note_on_c, 4, 60, 0
2, 2391, Note_on_c, 6, 57, 0
2, 2395, Note_on_c, 6, 60, 0
2, 2395, Note_on_c, 4, 45, 0
2, 2395, Note_on_c, 1, 33, 0
2, 2395, Note_on_c, 1, 33, 106
2, 2395, Note_on_c, 0, 60, 72
2, 2395, Note_on_c, 0, 48, 72
2, 2396, Note_on_c, 0, 52, 72
2, 2396, Note_on_c, 0, 57, 69
2, 2396, Note_on_c, 4, 45, 86
2, 2396, Note_on_c, 6, 60, 61
2, 2396, Note_on_c, 6, 52, 57
2, 2396, Note_on_c, 6, 57, 64
2, 2400, Note_on_c, 9, 36, 127
2, 2401, Note_on_c, 9, 36, 0
2, 2401, Note_on_c, 0, 48, 0
2, 2401, Note_on_c, 0, 52, 0
2, 2401, Note_on_c, 1, 33, 0
2, 2401, Note_on_c, 0, 57, 0
2, 2401, Note_on_c, 0, 60, 0
2, 2401, Note_on_c, 6, 52, 0
2, 2401, Note_on_c, 6, 60, 0
2, 2401, Note_on_c, 4, 45, 0
2, 2401, Note_on_c, 6, 57, 0
2, 2401, Note_on_c, 9, 42, 127
2, 2401, Note_on_c, 9, 42, 0
2, 2401, Note_on_c, 9, 54, 85
2, 2401, Note_on_c, 9, 54, 0
2, 2401, Control_c, 1, 84, 33
2, 2401, Note_on_c, 1, 38, 106
2, 2401, Control_c, 0, 84, 60
2, 2401, Note_on_c, 0, 57, 72
2, 2401, Note_on_c, 0, 57, 0
2, 2401, Control_c, 0, 84, 48
2, 2401, Note_on_c, 0, 62, 69
2, 2401, Control_c, 0, 84, 52
2, 2401, Note_on_c, 0, 66, 72
2, 2401, Control_c, 0, 84, 57
2, 2401, Note_on_c, 0, 69, 72
2, 2401, Control_c, 4, 84, 45
2, 2401, Note_on_c, 4, 50, 86
2, 2401, Control_c, 6, 84, 60
2, 2401, Note_on_c, 6, 57, 59
2, 2401, Note_on_c, 6, 57, 0
2, 2401, Control_c, 6, 84, 52
2, 2401, Note_on_c, 6, 62, 55
2, 2401, Control_c, 6, 84, 57
2, 2401, Note_on_c, 6, 66, 51
2, 2411, Note_on_c, 0, 62, 0
2, 2411, Note_on_c, 0, 69, 0
2, 2426, Note_on_c, 0, 57, 69
2, 2426, Note_on_c, 0, 62, 79
2, 2426, Note_on_c, 0, 69, 79
2, 2430, Note_on_c, 1, 38, 0
2, 2430, Note_on_c, 9, 54, 75
2, 2430, Note_on_c, 9, 54, 0
2, 2445, Note_on_c, 0, 66, 0
2, 2456, Note_on_c, 0, 69, 0
2, 2456, Note_on_c, 0, 62, 0
2, 2456, Note_on_c, 1, 38, 110
2, 2456, Note_on_c, 0, 62, 82
2, 2456, Note_on_c, 0, 66, 76
2, 2456, Note_on_c, 0, 69, 79
2, 2456, Note_on_c, 4, 62, 86
2, 2461, Note_on_c, 9, 36, 86
2, 2461, Note_on_c, 9, 36, 0
2, 2461, Note_on_c, 9, 53, 86
2, 2461, Note_on_c, 9, 53, 0
2, 2461, Note_on_c, 9, 54, 72
2, 2461, Note_on_c, 9, 54, 0
2, 2461, Note_on_c, 9, 42, 66
2, 2461, Note_on_c, 9, 42, 0
2, 2461, Note_on_c, 9, 82, 53
2, 2461, Note_on_c, 9, 82, 0
2, 2470, Note_on_c, 4, 50, 0
2, 2481, Note_on_c, 0, 57, 0
2, 2481, Note_on_c, 0, 69, 0
2, 2481, Note_on_c, 0, 62, 0
2, 2486, Note_on_c, 0, 57, 72
2, 2486, Note_on_c, 0, 62, 79
2, 2486, Note_on_c, 0, 69, 79
2, 2490, Note_on_c, 9, 54, 72
2, 2491, Note_on_c, 9, 54, 0
2, 2491, Note_on_c, 1, 38, 0
2, 2491, Note_on_c, 9, 82, 75
2, 2491, Note_on_c, 9, 82, 0
2, 2510, Note_on_c, 0, 66, 0
2, 2515, Note_on_c, 0, 57, 0
2, 2516, Note_on_c, 0, 69, 0
2, 2516, Note_on_c, 1, 38, 106
2, 2516, Note_on_c, 0, 57, 82
2, 2516, Note_on_c, 0, 66, 96
2, 2516, Note_on_c, 0, 69, 96
2, 2516, Note_on_c, 4, 57, 76
2, 2520, Note_on_c, 9, 38, 114
2, 2520, Note_on_c, 9, 42, 123
2, 2521, Note_on_c, 9, 42, 0
2, 2521, Note_on_c, 9, 38, 0
2, 2521, Note_on_c, 9, 123, 99
2, 2521, Note_on_c, 9, 123, 0
2, 2521, Note_on_c, 9, 54, 85
2, 2521, Note_on_c, 9, 54, 0
2, 2546, Note_on_c, 4, 64, 90
2, 2550, Note_on_c, 9, 54, 69
2, 2551, Note_on_c, 9, 54, 0
2, 2565, Note_on_c, 4, 57, 0
2, 2570, Note_on_c, 0, 69, 0
2, 2575, Note_on_c, 0, 66, 0
2, 2575, Note_on_c, 0, 57, 0
2, 2575, Note_on_c, 0, 62, 0
2, 2580, Note_on_c, 9, 53, 82
2, 2580, Note_on_c, 9, 42, 51
2, 2581, Note_on_c, 9, 42, 0
2, 2581, Note_on_c, 1, 38, 0
2, 2581, Note_on_c, 9, 53, 0
2, 2581, Note_on_c, 9, 54, 58
2, 2581, Note_on_c, 9, 54, 0
2, 2581, Note_on_c, 9, 82, 58
2, 2581, Note_on_c, 9, 82, 0
2, 2595, Note_on_c, 4, 64, 0
2, 2601, Note_on_c, 4, 62, 0
2, 2605, Note_on_c, 1, 38, 110
2, 2605, Note_on_c, 0, 57, 76
2, 2606, Note_on_c, 0, 62, 79
2, 2606, Note_on_c, 0, 66, 74
2, 2606, Note_on_c, 0, 69, 89
2, 2606, Note_on_c, 4, 50, 90
2, 2611, Note_on_c, 9, 36, 114
2, 2611, Note_on_c, 9, 36, 0
2, 2611, Note_on_c, 9, 54, 53
2, 2611, Note_on_c, 9, 54, 0
2, 2611, Note_on_c, 9, 82, 56
2, 2611, Note_on_c, 9, 82, 0
2, 2625, Note_on_c, 0, 62, 0
2, 2630, Note_on_c, 0, 57, 0
2, 2630, Note_on_c, 0, 66, 0
2, 2635, Note_on_c, 1, 38, 0
2, 2635, Note_on_c, 0, 69, 0
2, 2635, Note_on_c, 4, 62, 76
2, 2640, Note_on_c, 9, 42, 123
2, 2641, Note_on_c, 9, 42, 0
2, 2641, Note_on_c, 9, 54, 75
2, 2641, Note_on_c, 9, 54, 0
2, 2665, Note_on_c, 1, 38, 79
2, 2666, Note_on_c, 0, 57, 62
2, 2666, Note_on_c, 0, 62, 59
2, 2666, Note_on_c, 0, 66, 64
2, 2666, Note_on_c, 0, 69, 82
2, 2666, Note_on_c, 4, 57, 51
2, 2670, Note_on_c, 9, 36, 45
2, 2670, Note_on_c, 9, 54, 58
2, 2671, Note_on_c, 9, 54, 0
2, 2671, Note_on_c, 9, 36, 0
2, 2680, Note_on_c, 1, 38, 0
2, 2695, Note_on_c, 0, 66, 0
2, 2695, Note_on_c, 0, 62, 0
2, 2695, Note_on_c, 0, 57, 0
2, 2695, Note_on_c, 1, 38, 110
2, 2695, Note_on_c, 0, 57, 74
2, 2695, Note_on_c, 0, 62, 76
2, 2695, Note_on_c, 0, 66, 76
2, 2700, Note_on_c, 9, 36, 123
2, 2700, Note_on_c, 9, 36, 0
2, 2700, Note_on_c, 9, 53, 86
2, 2700, Note_on_c, 9, 53, 0
2, 2700, Note_on_c, 9, 42, 49
2, 2700, Note_on_c, 9, 42, 0
2, 2700, Note_on_c, 9, 54, 51
2, 2700, Note_on_c, 9, 82, 63
2, 2701, Note_on_c, 9, 82, 0
2, 2701, Note_on_c, 9, 54, 0
2, 2720, Note_on_c, 0, 62, 0
2, 2720, Note_on_c, 0, 57, 0
2, 2725, Note_on_c, 0, 69, 0
2, 2726, Note_on_c, 0, 57, 79
2, 2726, Note_on_c, 0, 62, 82
2, 2726, Note_on_c, 0, 69, 79
2, 2726, Note_on_c, 4, 64, 82
2, 2730, Note_on_c, 9, 54, 56
2, 2730, Note_on_c, 9, 82, 51
2, 2731, Note_on_c, 9, 82, 0
2, 2731, Note_on_c, 9, 54, 0
2, 2731, Note_on_c, 1, 38, 0
2, 2735, Note_on_c, 4, 57, 0
2, 2750, Note_on_c, 0, 66, 0
2, 2755, Note_on_c, 0, 57, 0
2, 2756, Note_on_c, 0, 62, 0
2, 2756, Note_on_c, 0, 69, 0
2, 2756, Note_on_c, 1, 38, 110
2, 2756, Note_on_c, 0, 57, 91
2, 2756, Note_on_c, 0, 62, 91
2, 2756, Note_on_c, 0, 66, 86
2, 2756, Note_on_c, 0, 69, 82
2, 2760, Note_on_c, 9, 38, 114
2, 2760, Note_on_c, 9, 42, 123
2, 2761, Note_on_c, 9, 42, 0
2, 2761, Note_on_c, 9, 38, 0
2, 2761, Note_on_c, 9, 123, 91
2, 2761, Note_on_c, 9, 123, 0
2, 2761, Note_on_c, 9, 54, 85
2, 2761, Note_on_c, 9, 54, 0
2, 2785, Note_on_c, 4, 57, 64
2, 2790, Note_on_c, 4, 62, 0
2, 2790, Note_on_c, 9, 54, 28
2, 2790, Note_on_c, 9, 54, 0
2, 2800, Note_on_c, 1, 38, 0
2, 2810, Note_on_c, 0, 62, 0
2, 2811, Note_on_c, 0, 66, 0
2, 2811, Note_on_c, 0, 69, 0
2, 2816, Note_on_c, 0, 57, 0
2, 2816, Note_on_c, 1, 38, 79
2, 2816, Note_on_c, 4, 62, 79
2, 2821, Note_on_c, 9, 53, 82
2, 2821, Note_on_c, 9, 53, 0
2, 2821, Note_on_c, 9, 42, 41
2, 2821, Note_on_c, 9, 42, 0
2, 2821, Note_on_c, 9, 54, 51
2, 2821, Note_on_c, 9, 54, 0
2, 2821, Note_on_c, 9, 82, 58
2, 2821, Note_on_c, 9, 82, 0
2, 2825, Note_on_c, 4, 57, 0
2, 2830, Note_on_c, 1, 38, 0
2, 2840, Note_on_c, 4, 50, 0
2, 2845, Note_on_c, 1, 38, 86
2, 2845, Note_on_c, 4, 57, 67
2, 2851, Note_on_c, 9, 25, 72
2, 2851, Note_on_c, 9, 25, 0
2, 2851, Note_on_c, 9, 54, 49
2, 2851, Note_on_c, 9, 54, 0
2, 2851, Note_on_c, 9, 82, 58
2, 2851, Note_on_c, 9, 82, 0
2, 2865, Note_on_c, 4, 62, 0
2, 2865, Note_on_c, 1, 38, 0
2, 2871, Note_on_c, 4, 64, 0
2, 2871, Note_on_c, 4, 57, 0
2, 2876, Note_on_c, 1, 38, 110
2, 2876, Note_on_c, 0, 57, 72
2, 2876, Note_on_c, 0, 62, 69
2, 2876, Note_on_c, 0, 66, 72
2, 2876, Note_on_c, 0, 69, 72
2, 2876, Note_on_c, 4, 50, 90
2, 2880, Note_on_c, 9, 36, 110
2, 2881, Note_on_c, 9, 36, 0
2, 2881, Note_on_c, 9, 42, 123
2, 2881, Note_on_c, 9, 42, 0
2, 2881, Note_on_c, 9, 54, 91
2, 2881, Note_on_c, 9, 54, 0
2, 2900, Note_on_c, 0, 57, 0
2, 2901, Note_on_c, 0, 62, 0
2, 2901, Note_on_c, 0, 69, 0
2, 2905, Note_on_c, 1, 38, 0
2, 2905, Note_on_c, 0, 57, 69
2, 2905, Note_on_c, 0, 62, 79
2, 2905, Note_on_c, 0, 69, 79
2, 2910, Note_on_c, 9, 54, 49
2, 2911, Note_on_c, 9, 54, 0
2, 2930, Note_on_c, 0, 66, 0
2, 2935, Note_on_c, 0, 62, 0
2, 2936, Note_on_c, 0, 69, 0
2, 2936, Note_on_c, 1, 38, 106
2, 2936, Note_on_c, 0, 62, 82
2, 2936, Note_on_c, 0, 66, 76
2, 2936, Note_on_c, 0, 69, 79
2, 2936, Note_on_c, 4, 66, 90
2, 2940, Note_on_c, 9, 36, 114
2, 2941, Note_on_c, 9, 36, 0
2, 2941, Note_on_c, 9, 53, 79
2, 2941, Note_on_c, 9, 53, 0
2, 2941, Note_on_c, 9, 42, 61
2, 2941, Note_on_c, 9, 42, 0
2, 2941, Note_on_c, 9, 54, 53
2, 2941, Note_on_c, 9, 54, 0
2, 2941, Note_on_c, 9, 82, 56
2, 2941, Note_on_c, 9, 82, 0
2, 2960, Note_on_c, 0, 69, 0
2, 2960, Note_on_c, 0, 62, 0
2, 2960, Note_on_c, 0, 57, 0
2, 2965, Note_on_c, 1, 38, 0
2, 2965, Note_on_c, 0, 57, 72
2, 2965, Note_on_c, 0, 62, 79
2, 2966, Note_on_c, 0, 69, 79
2, 2970, Note_on_c, 9, 54, 53
2, 2970, Note_on_c, 9, 54, 0
2, 2970, Note_on_c, 9, 82, 58
2, 2970, Note_on_c, 9, 82, 0
2, 2990, Note_on_c, 0, 66, 0
2, 2995, Note_on_c, 0, 57, 0
2, 2996, Note_on_c, 0, 69, 0
2, 2996, Note_on_c, 1, 38, 110
2, 2996, Note_on_c, 0, 57, 82
2, 2996, Note_on_c, 0, 66, 96
2, 2996, Note_on_c, 0, 69, 96
2, 2996, Note_on_c, 4, 62, 76
2, 3001, Note_on_c, 9, 38, 114
2, 3001, Note_on_c, 9, 38, 0
2, 3001, Note_on_c, 9, 42, 127
2, 3001, Note_on_c, 9, 42, 0
2, 3001, Note_on_c, 9, 123, 99
2, 3001, Note_on_c, 9, 123, 0
2, 3001, Note_on_c, 9, 54, 106
2, 3001, Note_on_c, 9, 54, 0
2, 3025, Note_on_c, 4, 69, 90
2, 3030, Note_on_c, 9, 54, 58
2, 3030, Note_on_c, 9, 54, 0
2, 3055, Note_on_c, 0, 62, 0
2, 3056, Note_on_c, 0, 69, 0
2, 3056, Note_on_c, 0, 66, 0
2, 3056, Note_on_c, 0, 57, 0
2, 3060, Note_on_c, 9, 53, 76
2, 3060, Note_on_c, 9, 42, 56
2, 3061, Note_on_c, 9, 42, 0
2, 3061, Note_on_c, 9, 53, 0
2, 3061, Note_on_c, 9, 54, 51
2, 3061, Note_on_c, 9, 54, 0
2, 3061, Note_on_c, 9, 82, 53
2, 3061, Note_on_c, 9, 82, 0
2, 3065, Note_on_c, 4, 50, 0
2, 3065, Note_on_c, 1, 38, 0
2, 3076, Note_on_c, 4, 69, 0
2, 3085, Note_on_c, 4, 66, 0
2, 3085, Note_on_c, 1, 38, 106
2, 3085, Note_on_c, 0, 57, 76
2, 3085, Note_on_c, 0, 62, 79
2, 3085, Note_on_c, 0, 66, 74
2, 3085, Note_on_c, 0, 69, 89
2, 3085, Note_on_c, 4, 50, 86
2, 3090, Note_on_c, 4, 62, 0
2, 3090, Note_on_c, 9, 36, 114
2, 3090, Note_on_c, 9, 36, 0
2, 3090, Note_on_c, 9, 54, 49
2, 3090, Note_on_c, 9, 54, 0
2, 3090, Note_on_c, 9, 82, 56
2, 3090, Note_on_c, 9, 82, 0
2, 3105, Note_on_c, 0, 62, 0
2, 3106, Note_on_c, 0, 66, 0
2, 3111, Note_on_c, 0, 57, 0
2, 3115, Note_on_c, 0, 69, 0
2, 3115, Note_on_c, 4, 66, 82
2, 3120, Note_on_c, 9, 42, 127
2, 3120, Note_on_c, 9, 54, 99
2, 3121, Note_on_c, 9, 54, 0
2, 3121, Note_on_c, 1, 38, 0
2, 3121, Note_on_c, 9, 42, 0
2, 3145, Note_on_c, 1, 38, 102
2, 3145, Note_on_c, 0, 57, 62
2, 3146, Note_on_c, 0, 62, 59
2, 3146, Note_on_c, 0, 66, 64
2, 3146, Note_on_c, 0, 69, 82
2, 3150, Note_on_c, 9, 36, 35
2, 3150, Note_on_c, 9, 36, 0
2, 3150, Note_on_c, 9, 54, 45
2, 3150, Note_on_c, 9, 54, 0
2, 3165, Note_on_c, 1, 38, 0
2, 3170, Note_on_c, 0, 62, 0
2, 3170, Note_on_c, 0, 57, 0
2, 3171, Note_on_c, 0, 66, 0
2, 3175, Note_on_c, 1, 38, 106
2, 3175, Note_on_c, 0, 57, 74
2, 3176, Note_on_c, 0, 62, 76
2, 3176, Note_on_c, 0, 66, 76
2, 3176, Note_on_c, 4, 62, 74
2, 3180, Note_on_c, 9, 36, 127
2, 3181, Note_on_c, 9, 36, 0
2, 3181, Note_on_c, 9, 53, 82
2, 3181, Note_on_c, 9, 53, 0
2, 3181, Note_on_c, 9, 42, 51
2, 3181, Note_on_c, 9, 42, 0
2, 3181, Note_on_c, 9, 54, 45
2, 3181, Note_on_c, 9, 54, 0
2, 3181, Note_on_c, 9, 82, 56
2, 3181, Note_on_c, 9, 82, 0
2, 3206, Note_on_c, 0, 62, 0
2, 3206, Note_on_c, 0, 57, 0
2, 3206, Note_on_c, 0, 69, 0
2, 3206, Note_on_c, 0, 57, 79
2, 3206, Note_on_c, 0, 62, 82
2, 3206, Note_on_c, 0, 69, 79
2, 3206, Note_on_c, 4, 69, 82
2, 3211, Note_on_c, 1, 38, 0
2, 3211, Note_on_c, 9, 54, 53
2, 3211, Note_on_c, 9, 54, 0
2, 3211, Note_on_c, 9, 82, 58
2, 3211, Note_on_c, 9, 82, 0
2, 3230, Note_on_c, 0, 69, 0
2, 3230, Note_on_c, 0, 62, 0
2, 3235, Note_on_c, 0, 57, 0
2, 3236, Note_on_c, 0, 66, 0
2, 3236, Note_on_c, 1, 38, 114
2, 3236, Note_on_c, 0, 57, 91
2, 3236, Note_on_c, 0, 62, 91
2, 3236, Note_on_c, 0, 66, 86
2, 3236, Note_on_c, 0, 69, 82
2, 3240, Note_on_c, 9, 38, 114
2, 3241, Note_on_c, 9, 38, 0
2, 3241, Note_on_c, 9, 42, 123
2, 3241, Note_on_c, 9, 42, 0
2, 3241, Note_on_c, 9, 123, 85
2, 3241, Note_on_c, 9, 123, 0
2, 3241, Note_on_c, 9, 54, 99
2, 3241, Note_on_c, 9, 54, 0
2, 3245, Note_on_c, 4, 62, 0
2, 3266, Note_on_c, 4, 62, 67
2, 3270, Note_on_c, 4, 66, 0
2, 3270, Note_on_c, 9, 54, 56
2, 3271, Note_on_c, 9, 54, 0
2, 3275, Note_on_c, 1, 38, 0
2, 3281, Note_on_c, 4, 69, 0
2, 3290, Note_on_c, 0, 62, 0
2, 3290, Note_on_c, 0, 69, 0
2, 3290, Note_on_c, 0, 66, 0
2, 3295, Note_on_c, 0, 57, 0
2, 3295, Note_on_c, 1, 38, 79
2, 3295, Note_on_c, 4, 66, 86
2, 3300, Note_on_c, 4, 62, 0
2, 3300, Note_on_c, 9, 53, 86
2, 3300, Note_on_c, 9, 42, 75
2, 3300, Note_on_c, 9, 54, 38
2, 3301, Note_on_c, 9, 54, 0
2, 3301, Note_on_c, 9, 42, 0
2, 3301, Note_on_c, 9, 53, 0
2, 3301, Note_on_c, 9, 82, 49
2, 3301, Note_on_c, 9, 82, 0
2, 3310, Note_on_c, 1, 38, 0
2, 3325, Note_on_c, 1, 38, 106
2, 3325, Note_on_c, 4, 62, 76
2, 3330, Note_on_c, 9, 54, 45
2, 3331, Note_on_c, 9, 54, 0
2, 3331, Note_on_c, 9, 82, 56
2, 3331, Note_on_c, 9, 82, 0
2, 3336, Note_on_c, 4, 50, 0
2, 3350, Note_on_c, 4, 66, 0
2, 3355, Note_on_c, 6, 66, 0
2, 3355, Note_on_c, 6, 62, 0
2, 3355, Note_on_c, 4, 62, 0
2, 3355, Note_on_c, 1, 38, 0
2, 3355, Note_on_c, 1, 31, 106
2, 3355, Note_on_c, 0, 62, 72
2, 3356, Note_on_c, 0, 67, 69
2, 3356, Note_on_c, 0, 71, 72
2, 3356, Note_on_c, 0, 74, 72
2, 3356, Note_on_c, 4, 55, 86
2, 3356, Note_on_c, 6, 62, 59
2, 3356, Note_on_c, 6, 67, 55
2, 3356, Note_on_c, 6, 71, 51
2, 3360, Note_on_c, 9, 36, 127
2, 3360, Note_on_c, 9, 42, 127
2, 3361, Note_on_c, 9, 42, 0
2, 3361, Note_on_c, 9, 36, 0
2, 3361, Note_on_c, 9, 54, 85
2, 3361, Note_on_c, 9, 54, 0
2, 3370, Note_on_c, 0, 67, 0
2, 3371, Note_on_c, 0, 74, 0
2, 3375, Note_on_c, 0, 62, 0
2, 3385, Note_on_c, 0, 62, 69
2, 3386, Note_on_c, 0, 67, 79
2, 3386, Note_on_c, 0, 74, 79
2, 3390, Note_on_c, 1, 31, 0
2, 3390, Note_on_c, 9, 54, 75
2, 3390, Note_on_c, 9, 54, 0
2, 3405, Note_on_c, 0, 71, 0
2, 3415, Note_on_c, 0, 74, 0
2, 3415, Note_on_c, 0, 67, 0
2, 3415, Note_on_c, 1, 31, 110
2, 3415, Note_on_c, 0, 67, 82
2, 3415, Note_on_c, 0, 71, 76
2, 3415, Note_on_c, 0, 74, 79
2, 3415, Note_on_c, 4, 67, 86
2, 3420, Note_on_c, 9, 36, 86
2, 3420, Note_on_c, 9, 36, 0
2, 3420, Note_on_c, 9, 53, 86
2, 3420, Note_on_c, 9, 53, 0
2, 3420, Note_on_c, 9, 54, 72
2, 3420, Note_on_c, 9, 54, 0
2, 3420, Note_on_c, 9, 42, 66
2, 3420, Note_on_c, 9, 82, 53
2, 3421, Note_on_c, 9, 82, 0
2, 3421, Note_on_c, 9, 42, 0
2, 3430, Note_on_c, 4, 55, 0
2, 3440, Note_on_c, 0, 62, 0
2, 3441, Note_on_c, 0, 74, 0
2, 3441, Note_on_c, 0, 67, 0
2, 3446, Note_on_c, 0, 62, 72
2, 3446, Note_on_c, 0, 67, 79
2, 3446, Note_on_c, 0, 74, 79
2, 3450, Note_on_c, 1, 31, 0
2, 3450, Note_on_c, 9, 54, 72
2, 3450, Note_on_c, 9, 54, 0
2, 3450, Note_on_c, 9, 82, 75
2, 3451, Note_on_c, 9, 82, 0
2, 3471, Note_on_c, 0, 71, 0
2, 3476, Note_on_c, 0, 74, 0
2, 3476, Note_on_c, 0, 62, 0
2, 3476, Note_on_c, 1, 31, 106
2, 3476, Note_on_c, 0, 62, 82
2, 3476, Note_on_c, 0, 71, 96
2, 3476, Note_on_c, 0, 74, 96
2, 3476, Note_on_c, 4, 62, 76
2, 3480, Note_on_c, 9, 38, 114
2, 3480, Note_on_c, 9, 38, 0
2, 3480, Note_on_c, 9, 42, 123
2, 3480, Note_on_c, 9, 42, 0
2, 3480, Note_on_c, 9, 123, 99
2, 3480, Note_on_c, 9, 123, 0
2, 3480, Note_on_c, 9, 54, 85
2, 3480, Note_on_c, 9, 54, 0
2, 3505, Note_on_c, 4, 69, 90
2, 3510, Note_on_c, 9, 54, 69
2, 3511, Note_on_c, 9, 54, 0
2, 3525, Note_on_c, 4, 62, 0
2, 3530, Note_on_c, 0, 74, 0
2, 3536, Note_on_c, 0, 62, 0
2, 3536, Note_on_c, 0, 71, 0
2, 3536, Note_on_c, 0, 67, 0
2, 3540, Note_on_c, 9, 53, 82
2, 3541, Note_on_c, 9, 53, 0
2, 3541, Note_on_c, 1, 31, 0
2, 3541, Note_on_c, 9, 42, 51
2, 3541, Note_on_c, 9, 42, 0
2, 3541, Note_on_c, 9, 54, 58
2, 3541, Note_on_c, 9, 54, 0
2, 3541, Note_on_c, 9, 82, 58
2, 3541, Note_on_c, 9, 82, 0
2, 3555, Note_on_c, 4, 69, 0
2, 3560, Note_on_c, 4, 67, 0
2, 3565, Note_on_c, 1, 31, 110
2, 3565, Note_on_c, 0, 62, 76
2, 3565, Note_on_c, 0, 67, 79
2, 3565, Note_on_c, 0, 71, 74
2, 3565, Note_on_c, 0, 74, 89
2, 3565, Note_on_c, 4, 55, 90
2, 3570, Note_on_c, 9, 36, 114
2, 3571, Note_on_c, 9, 36, 0
2, 3571, Note_on_c, 9, 54, 53
2, 3571, Note_on_c, 9, 54, 0
2, 3571, Note_on_c, 9, 82, 56
2, 3571, Note_on_c, 9, 82, 0
2, 3585, Note_on_c, 0, 67, 0
2, 3591, Note_on_c, 0, 71, 0
2, 3591, Note_on_c, 0, 62, 0
2, 3595, Note_on_c, 1, 31, 0
2, 3596, Note_on_c, 0, 74, 0
2, 3596, Note_on_c, 4, 67, 76
2, 3601, Note_on_c, 9, 42, 123
2, 3601, Note_on_c, 9, 42, 0
2, 3601, Note_on_c, 9, 54, 75
2, 3601, Note_on_c, 9, 54, 0
2, 3625, Note_on_c, 1, 31, 79
2, 3625, Note_on_c, 0, 62, 62
2, 3626, Note_on_c, 0, 67, 59
2, 3626, Note_on_c, 0, 71, 64
2, 3626, Note_on_c, 0, 74, 82
2, 3626, Note_on_c, 4, 62, 51
2, 3630, Note_on_c, 9, 36, 45
2, 3630, Note_on_c, 9, 36, 0
2, 3630, Note_on_c, 9, 54, 58
2, 3631, Note_on_c, 9, 54, 0
2, 3640, Note_on_c, 1, 31, 0
2, 3656, Note_on_c, 0, 71, 0
2, 3656, Note_on_c, 0, 67, 0
2, 3656, Note_on_c, 0, 62, 0
2, 3656, Note_on_c, 1, 31, 110
2, 3656, Note_on_c, 0, 62, 74
2, 3656, Note_on_c, 0, 67, 76
2, 3656, Note_on_c, 0, 71, 76
2, 3660, Note_on_c, 9, 36, 123
2, 3660, Note_on_c, 9, 53, 86
2, 3661, Note_on_c, 9, 53, 0
2, 3661, Note_on_c, 9, 36, 0
2, 3661, Note_on_c, 9, 42, 49
2, 3661, Note_on_c, 9, 42, 0
2, 3661, Note_on_c, 9, 54, 51
2, 3661, Note_on_c, 9, 54, 0
2, 3661, Note_on_c, 9, 82, 63
2, 3661, Note_on_c, 9, 82, 0
2, 3680, Note_on_c, 0, 62, 0
2, 3680, Note_on_c, 0, 67, 0
2, 3685, Note_on_c, 0, 74, 0
2, 3685, Note_on_c, 0, 62, 79
2, 3685, Note_on_c, 0, 67, 82
2, 3685, Note_on_c, 0, 74, 79
2, 3685, Note_on_c, 4, 69, 82
2, 3690, Note_on_c, 1, 31, 0
2, 3690, Note_on_c, 9, 54, 56
2, 3690, Note_on_c, 9, 54, 0
2, 3690, Note_on_c, 9, 82, 51
2, 3691, Note_on_c, 9, 82, 0
2, 3695, Note_on_c, 4, 62, 0
2, 3710, Note_on_c, 0, 71, 0
2, 3715, Note_on_c, 0, 62, 0
2, 3715, Note_on_c, 0, 67, 0
2, 3716, Note_on_c, 0, 74, 0
2, 3716, Note_on_c, 1, 31, 110
2, 3716, Note_on_c, 0, 62, 91
2, 3716, Note_on_c, 0, 67, 91
2, 3716, Note_on_c, 0, 71, 86
2, 3716, Note_on_c, 0, 74, 82
2, 3720, Note_on_c, 9, 38, 114
2, 3721, Note_on_c, 9, 38, 0
2, 3721, Note_on_c, 9, 42, 123
2, 3721, Note_on_c, 9, 42, 0
2, 3721, Note_on_c, 9, 123, 91
2, 3721, Note_on_c, 9, 123, 0
2, 3721, Note_on_c, 9, 54, 85
2, 3721, Note_on_c, 9, 54, 0
2, 3745, Note_on_c, 4, 62, 64
2, 3750, Note_on_c, 4, 67, 0
2, 3750, Note_on_c, 9, 54, 28
2, 3750, Note_on_c, 9, 54, 0
2, 3760, Note_on_c, 1, 31, 0
2, 3770, Note_on_c, 0, 67, 0
2, 3770, Note_on_c, 0, 74, 0
2, 3770, Note_on_c, 0, 71, 0
2, 3776, Note_on_c, 0, 62, 0
2, 3776, Note_on_c, 1, 31, 79
2, 3776, Note_on_c, 4, 67, 79
2, 3781, Note_on_c, 9, 53, 82
2, 3781, Note_on_c, 9, 53, 0
2, 3781, Note_on_c, 9, 42, 41
2, 3781, Note_on_c, 9, 42, 0
2, 3781, Note_on_c, 9, 54, 51
2, 3781, Note_on_c, 9, 54, 0
2, 3781, Note_on_c, 9, 82, 58
2, 3781, Note_on_c, 9, 82, 0
2, 3786, Note_on_c, 4, 62, 0
2, 3790, Note_on_c, 1, 31, 0
2, 3801, Note_on_c, 4, 55, 0
2, 3806, Note_on_c, 1, 31, 86
2, 3806, Note_on_c, 4, 62, 67
2, 3810, Note_on_c, 9, 25, 72
2, 3810, Note_on_c, 9, 25, 0
2, 3810, Note_on_c, 9, 54, 49
2, 3810, Note_on_c, 9, 54, 0
2, 3810, Note_on_c, 9, 82, 58
2, 3810, Note_on_c, 9, 82, 0
2, 3825, Note_on_c, 1, 31, 0
2, 3825, Note_on_c, 4, 67, 0
2, 3831, Note_on_c, 4, 69, 0
2, 3831, Note_on_c, 4, 62, 0
2, 3835, Note_on_c, 1, 31, 110
2, 3835, Note_on_c, 0, 62, 72
2, 3835, Note_on_c, 0, 67, 69
2, 3836, Note_on_c, 0, 71, 72
2, 3836, Note_on_c, 0, 74, 72
2, 3836, Note_on_c, 4, 55, 90
2, 3840, Note_on_c, 9, 36, 110
2, 3841, Note_on_c, 9, 36, 0
2, 3841, Note_on_c, 9, 42, 123
2, 3841, Note_on_c, 9, 42, 0
2, 3841, Note_on_c, 9, 54, 91
2, 3841, Note_on_c, 9, 54, 0
2, 3861, Note_on_c, 0, 74, 0
2, 3861, Note_on_c, 0, 67, 0
2, 3861, Note_on_c, 0, 62, 0
2, 3866, Note_on_c, 1, 31, 0
2, 3866, Note_on_c, 0, 62, 69
2, 3866, Note_on_c, 0, 67, 79
2, 3866, Note_on_c, 0, 74, 79
2, 3870, Note_on_c, 9, 54, 49
2, 3871, Note_on_c, 9, 54, 0
2, 3890, Note_on_c, 0, 71, 0
2, 3895, Note_on_c, 0, 74, 0
2, 3895, Note_on_c, 0, 67, 0
2, 3895, Note_on_c, 1, 31, 106
2, 3895, Note_on_c, 0, 67, 82
2, 3895, Note_on_c, 0, 71, 76
2, 3895, Note_on_c, 0, 74, 79
2, 3895, Note_on_c, 4, 71, 90
2, 3900, Note_on_c, 9, 36, 114
2, 3900, Note_on_c, 9, 36, 0
2, 3900, Note_on_c, 9, 53, 79
2, 3900, Note_on_c, 9, 53, 0
2, 3900, Note_on_c, 9, 42, 61
2, 3900, Note_on_c, 9, 54, 53
2, 3900, Note_on_c, 9, 82, 56
2, 3901, Note_on_c, 9, 82, 0
2, 3901, Note_on_c, 9, 54, 0
2, 3901, Note_on_c, 9, 42, 0
2, 3920, Note_on_c, 0, 67, 0
2, 3920, Note_on_c, 0, 62, 0
2, 3921, Note_on_c, 0, 74, 0
2, 3925, Note_on_c, 1, 31, 0
2, 3925, Note_on_c, 0, 62, 72
2, 3926, Note_on_c, 0, 67, 79
2, 3926, Note_on_c, 0, 74, 79
2, 3931, Note_on_c, 9, 54, 53
2, 3931, Note_on_c, 9, 54, 0
2, 3931, Note_on_c, 9, 82, 58
2, 3931, Note_on_c, 9, 82, 0
2, 3950, Note_on_c, 0, 71, 0
2, 3955, Note_on_c, 0, 74, 0
2, 3955, Note_on_c, 0, 62, 0
2, 3955, Note_on_c, 1, 31, 110
2, 3955, Note_on_c, 0, 62, 82
2, 3956, Note_on_c, 0, 71, 96
2, 3956, Note_on_c, 0, 74, 96
2, 3956, Note_on_c, 4, 67, 76
2, 3960, Note_on_c, 9, 38, 114
2, 3961, Note_on_c, 9, 38, 0
2, 3961, Note_on_c, 9, 42, 127
2, 3961, Note_on_c, 9, 42, 0
2, 3961, Note_on_c, 9, 123, 99
2, 3961, Note_on_c, 9, 123, 0
2, 3961, Note_on_c, 9, 54, 106
2, 3961, Note_on_c, 9, 54, 0
2, 3985, Note_on_c, 4, 62, 90
2, 3991, Note_on_c, 9, 54, 58
2, 3991, Note_on_c, 9, 54, 0
2, 4015, Note_on_c, 0, 67, 0
2, 4016, Note_on_c, 0, 74, 0
2, 4016, Note_on_c, 0, 62, 0
2, 4016, Note_on_c, 0, 71, 0
2, 4020, Note_on_c, 9, 53, 76
2, 4021, Note_on_c, 9, 53, 0
2, 4021, Note_on_c, 9, 42, 56
2, 4021, Note_on_c, 9, 42, 0
2, 4021, Note_on_c, 9, 54, 51
2, 4021, Note_on_c, 9, 54, 0
2, 4021, Note_on_c, 9, 82, 53
2, 4021, Note_on_c, 9, 82, 0
2, 4025, Note_on_c, 4, 55, 0
2, 4025, Note_on_c, 1, 31, 0
2, 4036, Note_on_c, 4, 62, 0
2, 4045, Note_on_c, 4, 71, 0
2, 4045, Note_on_c, 1, 31, 106
2, 4045, Note_on_c, 0, 62, 76
2, 4046, Note_on_c, 0, 67, 79
2, 4046, Note_on_c, 0, 71, 74
2, 4046, Note_on_c, 0, 74, 89
2, 4046, Note_on_c, 4, 55, 86
2, 4050, Note_on_c, 9, 36, 114
2, 4050, Note_on_c, 9, 54, 49
2, 4051, Note_on_c, 9, 54, 0
2, 4051, Note_on_c, 4, 67, 0
2, 4051, Note_on_c, 9, 36, 0
2, 4051, Note_on_c, 9, 82, 56
2, 4051, Note_on_c, 9, 82, 0
2, 4066, Note_on_c, 0, 71, 0
2, 4066, Note_on_c, 0, 67, 0
2, 4070, Note_on_c, 0, 62, 0
2, 4075, Note_on_c, 0, 74, 0
2, 4075, Note_on_c, 4, 71, 82
2, 4080, Note_on_c, 1, 31, 0
2, 4080, Note_on_c, 9, 42, 127
2, 4080, Note_on_c, 9, 42, 0
2, 4080, Note_on_c, 9, 54, 99
2, 4080, Note_on_c, 9, 54, 0
2, 4105, Note_on_c, 1, 31, 102
2, 4105, Note_on_c, 0, 62, 62
2, 4105, Note_on_c, 0, 67, 59
2, 4106, Note_on_c, 0, 71, 64
2, 4106, Note_on_c, 0, 74, 82
2, 4110, Note_on_c, 9, 36, 35
2, 4111, Note_on_c, 9, 36, 0
2, 4111, Note_on_c, 9, 54, 45
2, 4111, Note_on_c, 9, 54, 0
2, 4125, Note_on_c, 1, 31, 0
2, 4130, Note_on_c, 0, 62, 0
2, 4131, Note_on_c, 0, 71, 0
2, 4131, Note_on_c, 0, 67, 0
2, 4136, Note_on_c, 1, 31, 106
2, 4136, Note_on_c, 0, 62, 74
2, 4136, Note_on_c, 0, 67, 76
2, 4136, Note_on_c, 0, 71, 76
2, 4136, Note_on_c, 4, 67, 74
2, 4140, Note_on_c, 9, 36, 127
2, 4140, Note_on_c, 9, 36, 0
2, 4140, Note_on_c, 9, 53, 82
2, 4140, Note_on_c, 9, 53, 0
2, 4140, Note_on_c, 9, 42, 51
2, 4140, Note_on_c, 9, 54, 45
2, 4140, Note_on_c, 9, 82, 56
2, 4141, Note_on_c, 9, 82, 0
2, 4141, Note_on_c, 9, 54, 0
2, 4141, Note_on_c, 9, 42, 0
2, 4165, Note_on_c, 0, 74, 0
2, 4166, Note_on_c, 0, 67, 0
2, 4166, Note_on_c, 0, 62, 0
2, 4166, Note_on_c, 0, 62, 79
2, 4166, Note_on_c, 0, 67, 82
2, 4166, Note_on_c, 0, 74, 79
2, 4166, Note_on_c, 4, 62, 82
2, 4170, Note_on_c, 9, 54, 53
2, 4171, Note_on_c, 9, 54, 0
2, 4171, Note_on_c, 1, 31, 0
2, 4171, Note_on_c, 9, 82, 58
2, 4171, Note_on_c, 9, 82, 0
2, 4191, Note_on_c, 0, 67, 0
2, 4191, Note_on_c, 0, 74, 0
2, 4196, Note_on_c, 0, 71, 0
2, 4196, Note_on_c, 0, 62, 0
2, 4196, Note_on_c, 1, 31, 114
2, 4196, Note_on_c, 0, 62, 91
2, 4196, Note_on_c, 0, 67, 91
2, 4196, Note_on_c, 0, 71, 86
2, 4196, Note_on_c, 0, 74, 82
2, 4201, Note_on_c, 9, 38, 114
2, 4201, Note_on_c, 9, 38, 0
2, 4201, Note_on_c, 9, 42, 123
2, 4201, Note_on_c, 9, 42, 0
2, 4201, Note_on_c, 9, 123, 85
2, 4201, Note_on_c, 9, 123, 0
2, 4201, Note_on_c, 9, 54, 99
2, 4201, Note_on_c, 9, 54, 0
2, 4205, Note_on_c, 4, 67, 0
2, 4226, Note_on_c, 4, 67, 67
2, 4230, Note_on_c, 4, 71, 0
2, 4230, Note_on_c, 9, 54, 56
2, 4230, Note_on_c, 9, 54, 0
2, 4235, Note_on_c, 1, 31, 0
2, 4240, Note_on_c, 4, 62, 0
2, 4251, Note_on_c, 0, 67, 0
2, 4251, Note_on_c, 0, 71, 0
2, 4251, Note_on_c, 0, 74, 0
2, 4255, Note_on_c, 0, 62, 0
2, 4255, Note_on_c, 1, 31, 79
2, 4255, Note_on_c, 4, 71, 86
2, 4260, Note_on_c, 4, 67, 0
2, 4260, Note_on_c, 9, 53, 86
2, 4260, Note_on_c, 9, 42, 75
2, 4261, Note_on_c, 9, 42, 0
2, 4261, Note_on_c, 9, 53, 0
2, 4261, Note_on_c, 9, 54, 38
2, 4261, Note_on_c, 9, 54, 0
2, 4261, Note_on_c, 9, 82, 49
2, 4261, Note_on_c, 9, 82, 0
2, 4270, Note_on_c, 1, 31, 0
2, 4285, Note_on_c, 1, 31, 106
2, 4285, Note_on_c, 4, 67, 76
2, 4290, Note_on_c, 9, 54, 45
2, 4290, Note_on_c, 9, 82, 56
2, 4291, Note_on_c, 9, 82, 0
2, 4291, Note_on_c, 9, 54, 0
2, 4295, Note_on_c, 4, 55, 0
2, 4310, Note_on_c, 4, 71, 0
2, 4315, Note_on_c, 1, 31, 0
2, 4315, Note_on_c, 4, 67, 0
2, 4316, Note_on_c, 6, 62, 0
2, 4316, Note_on_c, 6, 67, 0
2, 4316, Note_on_c, 6, 71, 0
2, 4318, Control_c, 9, 0, 7
2, 4319, Control_c, 9, 32, 51
2, 4320, Program_c, 9, 9
2, 4320, Control_c, 9, 0, 0
2, 4320, Control_c, 9, 32, 3
2, 4320, Program_c, 9, 8
2, 4320, Control_c, 1, 0, 0
2, 4320, Control_c, 1, 32, 1
2, 4320, Program_c, 1, 33
2, 4320, Note_on_c, 1, 31, 106
2, 4320, Control_c, 0, 0, 0
2, 4320, Control_c, 0, 32, 3
2, 4320, Control_c, 0, 0, 0
2, 4320, Control_c, 0, 32, 3
2, 4320, Control_c, 0, 0, 0
2, 4320, Control_c, 0, 32, 3
2, 4320, Control_c, 0, 0, 0
2, 4320, Control_c, 0, 32, 3
2, 4320, Control_c, 0, 0, 0
2, 4320, Control_c, 0, 32, 3
2, 4320, Program_c, 0, 25
2, 4320, Note_on_c, 0, 62, 72
2, 4320, Note_on_c, 0, 67, 69
2, 4320, Note_on_c, 0, 71, 72
2, 4320, Note_on_c, 0, 74, 72
2, 4320, Control_c, 4, 0, 9
2, 4320, Control_c, 4, 32, 2
2, 4320, Control_c, 4, 0, 9
2, 4320, Control_c, 4, 32, 2
2, 4320, Control_c, 4, 0, 9
2, 4320, Control_c, 4, 32, 2
2, 4320, Control_c, 4, 0, 9
2, 4320, Control_c, 4, 32, 2
2, 4320, Control_c, 4, 0, 9
2, 4320, Control_c, 4, 32, 2
2, 4320, Program_c, 4, 27
2, 4320, Note_on_c, 4, 55, 86
2, 4320, Control_c, 6, 0, 32
2, 4320, Control_c, 6, 32, 1
2, 4320, Control_c, 6, 0, 32
2, 4320, Control_c, 6, 32, 1
2, 4320, Control_c, 6, 0, 32
2, 4320, Control_c, 6, 32, 1
2, 4320, Control_c, 6, 0, 32
2, 4320, Control_c, 6, 32, 1
2, 4320, Control_c, 6, 0, 32
2, 4320, Control_c, 6, 32, 1
2, 4320, Program_c, 6, 52
2, 4320, Note_on_c, 6, 62, 59
2, 4320, Note_on_c, 6, 67, 55
2, 4320, Note_on_c, 6, 71, 51
2, 4320, Note_on_c, 9, 36, 127
2, 4320, Note_on_c, 9, 42, 127
2, 4321, Note_on_c, 9, 42, 0
2, 4321, Note_on_c, 9, 36, 0
2, 4321, Note_on_c, 9, 54, 85
2, 4321, Note_on_c, 9, 54, 0
2, 4330, Note_on_c, 0, 67, 0
2, 4330, Note_on_c, 0, 74, 0
2, 4335, Note_on_c, 0, 62, 0
2, 4346, Note_on_c, 0, 62, 69
2, 4346, Note_on_c, 0, 67, 79
2, 4346, Note_on_c, 0, 74, 79
2, 4351, Note_on_c, 1, 31, 0
2, 4351, Note_on_c, 9, 54, 75
2, 4351, Note_on_c, 9, 54, 0
2, 4365, Note_on_c, 0, 71, 0
2, 4375, Note_on_c, 0, 74, 0
2, 4375, Note_on_c, 0, 67, 0
2, 4375, Note_on_c, 1, 31, 110
2, 4375, Note_on_c, 0, 67, 82
2, 4375, Note_on_c, 0, 71, 76
2, 4376, Note_on_c, 0, 74, 79
2, 4376, Note_on_c, 4, 67, 86
2, 4380, Note_on_c, 9, 36, 86
2, 4380, Note_on_c, 9, 53, 86
2, 4380, Note_on_c, 9, 54, 72
2, 4380, Note_on_c, 9, 42, 66
2, 4381, Note_on_c, 9, 42, 0
2, 4381, Note_on_c, 9, 54, 0
2, 4381, Note_on_c, 9, 36, 0
2, 4381, Note_on_c, 9, 53, 0
2, 4381, Note_on_c, 9, 82, 53
2, 4381, Note_on_c, 9, 82, 0
2, 4390, Note_on_c, 4, 55, 0
2, 4400, Note_on_c, 0, 62, 0
2, 4401, Note_on_c, 0, 74, 0
2, 4401, Note_on_c, 0, 67, 0
2, 4406, Note_on_c, 0, 62, 72
2, 4406, Note_on_c, 0, 67, 79
2, 4406, Note_on_c, 0, 74, 79
2, 4410, Note_on_c, 9, 54, 72
2, 4410, Note_on_c, 9, 82, 75
2, 4411, Note_on_c, 9, 82, 0
2, 4411, Note_on_c, 9, 54, 0
2, 4411, Note_on_c, 1, 31, 0
2, 4430, Note_on_c, 0, 71, 0
2, 4435, Note_on_c, 0, 62, 0
2, 4436, Note_on_c, 0, 74, 0
2, 4436, Note_on_c, 1, 31, 106
2, 4436, Note_on_c, 0, 62, 82
2, 4436, Note_on_c, 0, 71, 96
2, 4436, Note_on_c, 0, 74, 96
2, 4436, Note_on_c, 4, 62, 76
2, 4440, Note_on_c, 9, 38, 114
2, 4440, Note_on_c, 9, 38, 0
2, 4440, Note_on_c, 9, 42, 123
2, 4440, Note_on_c, 9, 42, 0
2, 4440, Note_on_c, 9, 123, 99
2, 4440, Note_on_c, 9, 123, 0
2, 4440, Note_on_c, 9, 54, 85
2, 4440, Note_on_c, 9, 54, 0
2, 4466, Note_on_c, 4, 69, 90
2, 4470, Note_on_c, 9, 54, 69
2, 4471, Note_on_c, 9, 54, 0
2, 4485, Note_on_c, 4, 62, 0
2, 4490, Note_on_c, 0, 74, 0
2, 4495, Note_on_c, 0, 62, 0
2, 4495, Note_on_c, 0, 71, 0
2, 4495, Note_on_c, 0, 67, 0
2, 4500, Note_on_c, 9, 53, 82
2, 4500, Note_on_c, 9, 42, 51
2, 4501, Note_on_c, 9, 42, 0
2, 4501, Note_on_c, 9, 53, 0
2, 4501, Note_on_c, 1, 31, 0
2, 4501, Note_on_c, 9, 54, 58
2, 4501, Note_on_c, 9, 54, 0
2, 4501, Note_on_c, 9, 82, 58
2, 4501, Note_on_c, 9, 82, 0
2, 4515, Note_on_c, 4, 69, 0
2, 4520, Note_on_c, 4, 67, 0
2, 4525, Note_on_c, 1, 31, 110
2, 4525, Note_on_c, 0, 62, 76
2, 4525, Note_on_c, 0, 67, 79
2, 4526, Note_on_c, 0, 71, 74
2, 4526, Note_on_c, 0, 74, 89
2, 4526, Note_on_c, 4, 55, 90
2, 4531, Note_on_c, 9, 36, 114
2, 4531, Note_on_c, 9, 36, 0
2, 4531, Note_on_c, 9, 54, 53
2, 4531, Note_on_c, 9, 54, 0
2, 4531, Note_on_c, 9, 82, 56
2, 4531, Note_on_c, 9, 82, 0
2, 4545, Note_on_c, 0, 67, 0
2, 4551, Note_on_c, 0, 71, 0
2, 4551, Note_on_c, 0, 62, 0
2, 4555, Note_on_c, 1, 31, 0
2, 4555, Note_on_c, 0, 74, 0
2, 4555, Note_on_c, 4, 67, 76
2, 4560, Note_on_c, 9, 42, 123
2, 4561, Note_on_c, 9, 42, 0
2, 4561, Note_on_c, 9, 54, 75
2, 4561, Note_on_c, 9, 54, 0
2, 4585, Note_on_c, 1, 31, 79
2, 4585, Note_on_c, 0, 62, 62
2, 4586, Note_on_c, 0, 67, 59
2, 4586, Note_on_c, 0, 71, 64
2, 4586, Note_on_c, 0, 74, 82
2, 4586, Note_on_c, 4, 62, 51
2, 4590, Note_on_c, 9, 36, 45
2, 4590, Note_on_c, 9, 54, 58
2, 4591, Note_on_c, 9, 54, 0
2, 4591, Note_on_c, 9, 36, 0
2, 4600, Note_on_c, 1, 31, 0
2, 4616, Note_on_c, 0, 71, 0
2, 4616, Note_on_c, 0, 67, 0
2, 4616, Note_on_c, 0, 62, 0
2, 4616, Note_on_c, 1, 31, 110
2, 4616, Note_on_c, 0, 62, 74
2, 4616, Note_on_c, 0, 67, 76
2, 4616, Note_on_c, 0, 71, 76
2, 4620, Note_on_c, 9, 36, 123
2, 4620, Note_on_c, 9, 36, 0
2, 4620, Note_on_c, 9, 53, 86
2, 4620, Note_on_c, 9, 53, 0
2, 4620, Note_on_c, 9, 42, 49
2, 4620, Note_on_c, 9, 42, 0
2, 4620, Note_on_c, 9, 54, 51
2, 4620, Note_on_c, 9, 54, 0
2, 4620, Note_on_c, 9, 82, 63
2, 4620, Note_on_c, 9, 82, 0
2, 4640, Note_on_c, 0, 62, 0
2, 4641, Note_on_c, 0, 67, 0
2, 4645, Note_on_c, 0, 74, 0
2, 4645, Note_on_c, 0, 62, 79
2, 4646, Note_on_c, 0, 67, 82
2, 4646, Note_on_c, 0, 74, 79
2, 4646, Note_on_c, 4, 69, 82
2, 4650, Note_on_c, 1, 31, 0
2, 4650, Note_on_c, 9, 54, 56
2, 4650, Note_on_c, 9, 82, 51
2, 4651, Note_on_c, 9, 82, 0
2, 4651, Note_on_c, 9, 54, 0
2, 4655, Note_on_c, 4, 62, 0
2, 4670, Note_on_c, 0, 71, 0
2, 4676, Note_on_c, 0, 74, 0
2, 4676, Note_on_c, 0, 62, 0
2, 4676, Note_on_c, 0, 67, 0
2, 4676, Note_on_c, 1, 31, 110
2, 4676, Note_on_c, 0, 62, 91
2, 4676, Note_on_c, 0, 67, 91
2, 4676, Note_on_c, 0, 71, 86
2, 4676, Note_on_c, 0, 74, 82
2, 4681, Note_on_c, 9, 38, 114
2, 4681, Note_on_c, 9, 38, 0
2, 4681, Note_on_c, 9, 42, 123
2, 4681, Note_on_c, 9, 42, 0
2, 4681, Note_on_c, 9, 123, 91
2, 4681, Note_on_c, 9, 123, 0
2, 4681, Note_on_c, 9, 54, 85
2, 4681, Note_on_c, 9, 54, 0
2, 4705, Note_on_c, 4, 62, 64
2, 4710, Note_on_c, 4, 67, 0
2, 4710, Note_on_c, 9, 54, 28
2, 4710, Note_on_c, 9, 54, 0
2, 4721, Note_on_c, 1, 31, 0
2, 4730, Note_on_c, 0, 67, 0
2, 4731, Note_on_c, 0, 71, 0
2, 4731, Note_on_c, 0, 74, 0
2, 4736, Note_on_c, 0, 62, 0
2, 4736, Note_on_c, 1, 31, 79
2, 4736, Note_on_c, 4, 67, 79
2, 4741, Note_on_c, 9, 53, 82
2, 4741, Note_on_c, 9, 53, 0
2, 4741, Note_on_c, 9, 42, 41
2, 4741, Note_on_c, 9, 42, 0
2, 4741, Note_on_c, 9, 54, 51
2, 4741, Note_on_c, 9, 54, 0
2, 4741, Note_on_c, 9, 82, 58
2, 4741, Note_on_c, 9, 82, 0
2, 4745, Note_on_c, 4, 62, 0
2, 4750, Note_on_c, 1, 31, 0
2, 4760, Note_on_c, 4, 55, 0
2, 4765, Note_on_c, 1, 31, 86
2, 4765, Note_on_c, 4, 62, 67
2, 4770, Note_on_c, 9, 25, 72
2, 4771, Note_on_c, 9, 25, 0
2, 4771, Note_on_c, 9, 54, 49
2, 4771, Note_on_c, 9, 54, 0
2, 4771, Note_on_c, 9, 82, 58
2, 4771, Note_on_c, 9, 82, 0
2, 4785, Note_on_c, 1, 31, 0
2, 4785, Note_on_c, 4, 67, 0
2, 4791, Note_on_c, 4, 69, 0
2, 4791, Note_on_c, 4, 62, 0
2, 4795, Note_on_c, 1, 31, 110
2, 4795, Note_on_c, 0, 62, 72
2, 4796, Note_on_c, 0, 67, 69
2, 4796, Note_on_c, 0, 71, 72
2, 4796, Note_on_c, 0, 74, 72
2, 4796, Note_on_c, 4, 55, 90
2, 4800, Note_on_c, 9, 36, 110
2, 4800, Note_on_c, 9, 42, 123
2, 4801, Note_on_c, 9, 42, 0
2, 4801, Note_on_c, 9, 36, 0
2, 4801, Note_on_c, 9, 54, 91
2, 4801, Note_on_c, 9, 54, 0
2, 4820, Note_on_c, 0, 67, 0
2, 4820, Note_on_c, 0, 74, 0
2, 4820, Note_on_c, 0, 62, 0
2, 4825, Note_on_c, 1, 31, 0
2, 4825, Note_on_c, 0, 62, 69
2, 4825, Note_on_c, 0, 67, 79
2, 4825, Note_on_c, 0, 74, 79
2, 4830, Note_on_c, 9, 54, 49
2, 4831, Note_on_c, 9, 54, 0
2, 4850, Note_on_c, 0, 71, 0
2, 4855, Note_on_c, 0, 67, 0
2, 4856, Note_on_c, 0, 74, 0
2, 4856, Note_on_c, 1, 31, 106
2, 4856, Note_on_c, 0, 67, 82
2, 4856, Note_on_c, 0, 71, 76
2, 4856, Note_on_c, 0, 74, 79
2, 4856, Note_on_c, 4, 71, 90
2, 4860, Note_on_c, 9, 36, 114
2, 4861, Note_on_c, 9, 36, 0
2, 4861, Note_on_c, 9, 53, 79
2, 4861, Note_on_c, 9, 53, 0
2, 4861, Note_on_c, 9, 42, 61
2, 4861, Note_on_c, 9, 42, 0
2, 4861, Note_on_c, 9, 54, 53
2, 4861, Note_on_c, 9, 54, 0
2, 4861, Note_on_c, 9, 82, 56
2, 4861, Note_on_c, 9, 82, 0
2, 4880, Note_on_c, 0, 62, 0
2, 4881, Note_on_c, 0, 74, 0
2, 4881, Note_on_c, 0, 67, 0
2, 4885, Note_on_c, 1, 31, 0
2, 4885, Note_on_c, 0, 62, 72
2, 4885, Note_on_c, 0, 67, 79
2, 4885, Note_on_c, 0, 74, 79
2, 4890, Note_on_c, 9, 54, 53
2, 4890, Note_on_c, 9, 54, 0
2, 4890, Note_on_c, 9, 82, 58
2, 4890, Note_on_c, 9, 82, 0
2, 4910, Note_on_c, 0, 71, 0
2, 4915, Note_on_c, 0, 62, 0
2, 4916, Note_on_c, 0, 74, 0
2, 4916, Note_on_c, 1, 31, 110
2, 4916, Note_on_c, 0, 62, 82
2, 4916, Note_on_c, 0, 71, 96
2, 4916, Note_on_c, 0, 74, 96
2, 4916, Note_on_c, 4, 67, 76
2, 4920, Note_on_c, 9, 38, 114
2, 4921, Note_on_c, 9, 38, 0
2, 4921, Note_on_c, 9, 42, 127
2, 4921, Note_on_c, 9, 42, 0
2, 4921, Note_on_c, 9, 123, 99
2, 4921, Note_on_c, 9, 123, 0
2, 4921, Note_on_c, 9, 54, 106
2, 4921, Note_on_c, 9, 54, 0
2, 4945, Note_on_c, 4, 62, 90
2, 4950, Note_on_c, 9, 54, 58
2, 4950, Note_on_c, 9, 54, 0
2, 4975, Note_on_c, 0, 67, 0
2, 4976, Note_on_c, 0, 74, 0
2, 4976, Note_on_c, 0, 62, 0
2, 4976, Note_on_c, 0, 71, 0
2, 4980, Note_on_c, 9, 53, 76
2, 4980, Note_on_c, 9, 42, 56
2, 4981, Note_on_c, 9, 42, 0
2, 4981, Note_on_c, 9, 53, 0
2, 4981, Note_on_c, 9, 54, 51
2, 4981, Note_on_c, 9, 54, 0
2, 4981, Note_on_c, 9, 82, 53
2, 4981, Note_on_c, 9, 82, 0
2, 4985, Note_on_c, 1, 31, 0
2, 4985, Note_on_c, 4, 55, 0
2, 4996, Note_on_c, 4, 62, 0
2, 5005, Note_on_c, 4, 71, 0
2, 5005, Note_on_c, 1, 31, 106
2, 5006, Note_on_c, 0, 62, 76
2, 5006, Note_on_c, 0, 67, 79
2, 5006, Note_on_c, 0, 71, 74
2, 5006, Note_on_c, 0, 74, 89
2, 5006, Note_on_c, 4, 55, 86
2, 5010, Note_on_c, 9, 36, 114
2, 5011, Note_on_c, 9, 36, 0
2, 5011, Note_on_c, 4, 67, 0
2, 5011, Note_on_c, 9, 54, 49
2, 5011, Note_on_c, 9, 54, 0
2, 5011, Note_on_c, 9, 82, 56
2, 5011, Note_on_c, 9, 82, 0
2, 5025, Note_on_c, 0, 71, 0
2, 5025, Note_on_c, 0, 67, 0
2, 5031, Note_on_c, 0, 62, 0
2, 5035, Note_on_c, 0, 74, 0
2, 5035, Note_on_c, 4, 71, 82
2, 5040, Note_on_c, 1, 31, 0
2, 5040, Note_on_c, 9, 42, 127
2, 5040, Note_on_c, 9, 54, 99
2, 5041, Note_on_c, 9, 54, 0
2, 5041, Note_on_c, 9, 42, 0
2, 5065, Note_on_c, 1, 31, 102
2, 5065, Note_on_c, 0, 62, 62
2, 5065, Note_on_c, 0, 67, 59
2, 5066, Note_on_c, 0, 71, 64
2, 5066, Note_on_c, 0, 74, 82
2, 5071, Note_on_c, 9, 36, 35
2, 5071, Note_on_c, 9, 36, 0
2, 5071, Note_on_c, 9, 54, 45
2, 5071, Note_on_c, 9, 54, 0
2, 5085, Note_on_c, 1, 31, 0
2, 5090, Note_on_c, 0, 71, 0
2, 5090, Note_on_c, 0, 67, 0
2, 5090, Note_on_c, 0, 62, 0
2, 5095, Note_on_c, 1, 31, 106
2, 5095, Note_on_c, 0, 62, 74
2, 5096, Note_on_c, 0, 67, 76
2, 5096, Note_on_c, 0, 71, 76
2, 5096, Note_on_c, 4, 67, 74
2, 5100, Note_on_c, 9, 36, 127
2, 5100, Note_on_c, 9, 53, 82
2, 5100, Note_on_c, 9, 42, 51
2, 5100, Note_on_c, 9, 54, 45
2, 5101, Note_on_c, 9, 54, 0
2, 5101, Note_on_c, 9, 36, 0
2, 5101, Note_on_c, 9, 42, 0
2, 5101, Note_on_c, 9, 53, 0
2, 5101, Note_on_c, 9, 82, 56
2, 5101, Note_on_c, 9, 82, 0
2, 5126, Note_on_c, 0, 74, 0
2, 5126, Note_on_c, 0, 62, 0
2, 5126, Note_on_c, 0, 67, 0
2, 5126, Note_on_c, 0, 62, 79
2, 5126, Note_on_c, 0, 67, 82
2, 5126, Note_on_c, 0, 74, 79
2, 5126, Note_on_c, 4, 62, 82
2, 5131, Note_on_c, 1, 31, 0
2, 5131, Note_on_c, 9, 54, 53
2, 5131, Note_on_c, 9, 54, 0
2, 5131, Note_on_c, 9, 82, 58
2, 5131, Note_on_c, 9, 82, 0
2, 5150, Note_on_c, 0, 67, 0
2, 5150, Note_on_c, 0, 74, 0
2, 5155, Note_on_c, 0, 71, 0
2, 5155, Note_on_c, 0, 62, 0
2, 5155, Note_on_c, 1, 31, 114
2, 5155, Note_on_c, 0, 62, 91
2, 5155, Note_on_c, 0, 67, 91
2, 5155, Note_on_c, 0, 71, 86
2, 5155, Note_on_c, 0, 74, 82
2, 5160, Note_on_c, 9, 38, 114
2, 5160, Note_on_c, 9, 38, 0
2, 5160, Note_on_c, 9, 42, 123
2, 5160, Note_on_c, 9, 123, 85
2, 5160, Note_on_c, 9, 54, 99
2, 5161, Note_on_c, 9, 54, 0
2, 5161, Note_on_c, 9, 123, 0
2, 5161, Note_on_c, 9, 42, 0
2, 5165, Note_on_c, 4, 67, 0
2, 5186, Note_on_c, 4, 67, 67
2, 5190, Note_on_c, 4, 71, 0
2, 5190, Note_on_c, 9, 54, 56
2, 5190, Note_on_c, 9, 54, 0
2, 5195, Note_on_c, 1, 31, 0
2, 5201, Note_on_c, 4, 62, 0
2, 5211, Note_on_c, 0, 67, 0
2, 5211, Note_on_c, 0, 71, 0
2, 5211, Note_on_c, 0, 74, 0
2, 5215, Note_on_c, 0, 62, 0
2, 5215, Note_on_c, 1, 31, 79
2, 5215, Note_on_c, 4, 71, 86
2, 5220, Note_on_c, 4, 67, 0
2, 5220, Note_on_c, 9, 53, 86
2, 5220, Note_on_c, 9, 42, 75
2, 5220, Note_on_c, 9, 54, 38
2, 5221, Note_on_c, 9, 54, 0
2, 5221, Note_on_c, 9, 42, 0
2, 5221, Note_on_c, 9, 53, 0
2, 5221, Note_on_c, 9, 82, 49
2, 5221, Note_on_c, 9, 82, 0
2, 5230, Note_on_c, 1, 31, 0
2, 5245, Note_on_c, 1, 31, 106
2, 5245, Note_on_c, 4, 67, 76
2, 5250, Note_on_c, 9, 54, 45
2, 5251, Note_on_c, 9, 54, 0
2, 5251, Note_on_c, 9, 82, 56
2, 5251, Note_on_c, 9, 82, 0
2, 5255, Note_on_c, 4, 55, 0
2, 5271, Note_on_c, 4, 71, 0
2, 5275, Note_on_c, 1, 31, 0
2, 5276, Note_on_c, 6, 67, 0
2, 5276, Note_on_c, 6, 62, 0
2, 5276, Note_on_c, 4, 67, 0
2, 5276, Note_on_c, 6, 71, 0
2, 5276, Note_on_c, 1, 33, 106
2, 5276, Note_on_c, 0, 60, 72
2, 5276, Note_on_c, 0, 48, 72
2, 5276, Note_on_c, 0, 52, 72
2, 5276, Note_on_c, 0, 57, 69
2, 5276, Note_on_c, 4, 45, 86
2, 5276, Note_on_c, 6, 60, 61
2, 5276, Note_on_c, 6, 52, 57
2, 5276, Note_on_c, 6, 57, 64
2, 5280, Note_on_c, 9, 36, 127
2, 5280, Note_on_c, 9, 42, 127
2, 5281, Note_on_c, 9, 42, 0
2, 5281, Note_on_c, 9, 36, 0
2, 5281, Note_on_c, 9, 54, 85
2, 5281, Note_on_c, 9, 54, 0
2, 5295, Note_on_c, 0, 57, 0
2, 5295, Note_on_c, 0, 60, 0
2, 5295, Note_on_c, 0, 52, 0
2, 5305, Note_on_c, 0, 60, 79
2, 5306, Note_on_c, 0, 52, 69
2, 5306, Note_on_c, 0, 57, 79
2, 5310, Note_on_c, 1, 33, 0
2, 5310, Note_on_c, 9, 54, 75
2, 5310, Note_on_c, 9, 54, 0
2, 5325, Note_on_c, 0, 48, 0
2, 5331, Note_on_c, 0, 57, 0
2, 5331, Note_on_c, 0, 60, 0
2, 5335, Note_on_c, 1, 33, 110
2, 5335, Note_on_c, 0, 60, 79
2, 5335, Note_on_c, 0, 48, 76
2, 5336, Note_on_c, 0, 57, 82
2, 5336, Note_on_c, 4, 60, 90
2, 5341, Note_on_c, 9, 36, 86
2, 5341, Note_on_c, 9, 36, 0
2, 5341, Note_on_c, 9, 53, 86
2, 5341, Note_on_c, 9, 53, 0
2, 5341, Note_on_c, 9, 54, 72
2, 5341, Note_on_c, 9, 54, 0
2, 5341, Note_on_c, 9, 42, 66
2, 5341, Note_on_c, 9, 42, 0
2, 5341, Note_on_c, 9, 82, 53
2, 5341, Note_on_c, 9, 82, 0
2, 5360, Note_on_c, 0, 52, 0
2, 5366, Note_on_c, 0, 57, 0
2, 5366, Note_on_c, 0, 60, 0
2, 5366, Note_on_c, 0, 60, 79
2, 5366, Note_on_c, 0, 52, 72
2, 5366, Note_on_c, 0, 57, 79
2, 5370, Note_on_c, 1, 33, 0
2, 5370, Note_on_c, 9, 54, 72
2, 5370, Note_on_c, 9, 54, 0
2, 5370, Note_on_c, 9, 82, 75
2, 5370, Note_on_c, 9, 82, 0
2, 5391, Note_on_c, 0, 60, 0
2, 5391, Note_on_c, 0, 52, 0
2, 5391, Note_on_c, 0, 48, 0
2, 5395, Note_on_c, 1, 33, 106
2, 5396, Note_on_c, 0, 60, 96
2, 5396, Note_on_c, 0, 48, 96
2, 5396, Note_on_c, 0, 52, 82
2, 5396, Note_on_c, 4, 57, 69
2, 5400, Note_on_c, 9, 38, 114
2, 5400, Note_on_c, 9, 42, 123
2, 5401, Note_on_c, 9, 42, 0
2, 5401, Note_on_c, 9, 38, 0
2, 5401, Note_on_c, 9, 123, 99
2, 5401, Note_on_c, 9, 123, 0
2, 5401, Note_on_c, 9, 54, 85
2, 5401, Note_on_c, 9, 54, 0
2, 5425, Note_on_c, 4, 64, 86
2, 5430, Note_on_c, 9, 54, 69
2, 5431, Note_on_c, 9, 54, 0
2, 5435, Note_on_c, 4, 45, 0
2, 5450, Note_on_c, 0, 57, 0
2, 5456, Note_on_c, 0, 48, 0
2, 5456, Note_on_c, 0, 60, 0
2, 5456, Note_on_c, 0, 52, 0
2, 5460, Note_on_c, 9, 53, 82
2, 5461, Note_on_c, 9, 53, 0
2, 5461, Note_on_c, 1, 33, 0
2, 5461, Note_on_c, 9, 42, 51
2, 5461, Note_on_c, 9, 42, 0
2, 5461, Note_on_c, 9, 54, 58
2, 5461, Note_on_c, 9, 54, 0
2, 5461, Note_on_c, 9, 82, 58
2, 5461, Note_on_c, 9, 82, 0
2, 5466, Note_on_c, 4, 64, 0
2, 5480, Note_on_c, 4, 60, 0
2, 5485, Note_on_c, 4, 57, 0
2, 5485, Note_on_c, 1, 33, 110
2, 5485, Note_on_c, 0, 60, 89
2, 5486, Note_on_c, 0, 48, 74
2, 5486, Note_on_c, 0, 52, 76
2, 5486, Note_on_c, 0, 57, 79
2, 5486, Note_on_c, 4, 45, 86
2, 5490, Note_on_c, 9, 36, 114
2, 5491, Note_on_c, 9, 36, 0
2, 5491, Note_on_c, 9, 54, 53
2, 5491, Note_on_c, 9, 54, 0
2, 5491, Note_on_c, 9, 82, 56
2, 5491, Note_on_c, 9, 82, 0
2, 5505, Note_on_c, 0, 52, 0
2, 5505, Note_on_c, 0, 48, 0
2, 5506, Note_on_c, 0, 57, 0
2, 5510, Note_on_c, 0, 60, 0
2, 5515, Note_on_c, 1, 33, 0
2, 5515, Note_on_c, 4, 60, 80
2, 5521, Note_on_c, 9, 42, 123
2, 5521, Note_on_c, 9, 42, 0
2, 5521, Note_on_c, 9, 54, 75
2, 5521, Note_on_c, 9, 54, 0
2, 5545, Note_on_c, 1, 33, 79
2, 5545, Note_on_c, 0, 60, 82
2, 5545, Note_on_c, 0, 48, 64
2, 5546, Note_on_c, 0, 52, 62
2, 5546, Note_on_c, 0, 57, 59
2, 5550, Note_on_c, 9, 36, 45
2, 5551, Note_on_c, 9, 36, 0
2, 5551, Note_on_c, 9, 54, 58
2, 5551, Note_on_c, 9, 54, 0
2, 5560, Note_on_c, 1, 33, 0
2, 5570, Note_on_c, 0, 48, 0
2, 5571, Note_on_c, 0, 52, 0
2, 5571, Note_on_c, 0, 57, 0
2, 5575, Note_on_c, 1, 33, 110
2, 5575, Note_on_c, 0, 48, 76
2, 5576, Note_on_c, 0, 52, 74
2, 5576, Note_on_c, 0, 57, 76
2, 5576, Note_on_c, 4, 57, 74
2, 5580, Note_on_c, 9, 36, 123
2, 5580, Note_on_c, 9, 53, 86
2, 5581, Note_on_c, 9, 53, 0
2, 5581, Note_on_c, 9, 36, 0
2, 5581, Note_on_c, 9, 42, 49
2, 5581, Note_on_c, 9, 42, 0
2, 5581, Note_on_c, 9, 54, 51
2, 5581, Note_on_c, 9, 54, 0
2, 5581, Note_on_c, 9, 82, 63
2, 5581, Note_on_c, 9, 82, 0
2, 5606, Note_on_c, 0, 52, 0
2, 5606, Note_on_c, 0, 57, 0
2, 5606, Note_on_c, 0, 60, 0
2, 5606, Note_on_c, 0, 60, 79
2, 5606, Note_on_c, 0, 52, 79
2, 5606, Note_on_c, 0, 57, 82
2, 5606, Note_on_c, 4, 64, 86
2, 5610, Note_on_c, 1, 33, 0
2, 5610, Note_on_c, 9, 54, 56
2, 5610, Note_on_c, 9, 54, 0
2, 5610, Note_on_c, 9, 82, 51
2, 5610, Note_on_c, 9, 82, 0
2, 5630, Note_on_c, 0, 60, 0
2, 5630, Note_on_c, 0, 52, 0
2, 5630, Note_on_c, 0, 57, 0
2, 5635, Note_on_c, 0, 48, 0
2, 5635, Note_on_c, 1, 33, 110
2, 5635, Note_on_c, 0, 60, 82
2, 5635, Note_on_c, 0, 48, 86
2, 5636, Note_on_c, 0, 52, 91
2, 5636, Note_on_c, 0, 57, 91
2, 5640, Note_on_c, 9, 38, 114
2, 5641, Note_on_c, 9, 38, 0
2, 5641, Note_on_c, 4, 57, 0
2, 5641, Note_on_c, 9, 42, 123
2, 5641, Note_on_c, 9, 42, 0
2, 5641, Note_on_c, 9, 123, 91
2, 5641, Note_on_c, 9, 123, 0
2, 5641, Note_on_c, 9, 54, 85
2, 5641, Note_on_c, 9, 54, 0
2, 5665, Note_on_c, 4, 57, 64
2, 5671, Note_on_c, 9, 54, 28
2, 5671, Note_on_c, 9, 54, 0
2, 5680, Note_on_c, 1, 33, 0
2, 5685, Note_on_c, 4, 60, 0
2, 5690, Note_on_c, 0, 52, 0
2, 5690, Note_on_c, 0, 57, 0
2, 5695, Note_on_c, 0, 60, 0
2, 5696, Note_on_c, 0, 48, 0
2, 5696, Note_on_c, 1, 33, 79
2, 5696, Note_on_c, 4, 60, 80
2, 5700, Note_on_c, 4, 57, 0
2, 5700, Note_on_c, 9, 53, 82
2, 5700, Note_on_c, 9, 42, 41
2, 5701, Note_on_c, 9, 42, 0
2, 5701, Note_on_c, 9, 53, 0
2, 5701, Note_on_c, 9, 54, 51
2, 5701, Note_on_c, 9, 54, 0
2, 5701, Note_on_c, 9, 82, 58
2, 5701, Note_on_c, 9, 82, 0
2, 5710, Note_on_c, 1, 33, 0
2, 5726, Note_on_c, 1, 33, 86
2, 5726, Note_on_c, 4, 57, 86
2, 5731, Note_on_c, 4, 45, 0
2, 5731, Note_on_c, 9, 25, 72
2, 5731, Note_on_c, 9, 25, 0
2, 5731, Note_on_c, 9, 54, 49
2, 5731, Note_on_c, 9, 54, 0
2, 5731, Note_on_c, 9, 82, 58
2, 5731, Note_on_c, 9, 82, 0
2, 5745, Note_on_c, 1, 33, 0
2, 5755, Note_on_c, 1, 33, 110
2, 5755, Note_on_c, 0, 60, 72
2, 5756, Note_on_c, 0, 48, 72
2, 5756, Note_on_c, 0, 52, 72
2, 5756, Note_on_c, 0, 57, 69
2, 5756, Note_on_c, 4, 45, 90
2, 5760, Note_on_c, 9, 36, 110
2, 5760, Note_on_c, 9, 42, 123
2, 5761, Note_on_c, 9, 42, 0
2, 5761, Note_on_c, 4, 57, 0
2, 5761, Note_on_c, 9, 36, 0
2, 5761, Note_on_c, 4, 60, 0
2, 5761, Note_on_c, 4, 64, 0
2, 5761, Note_on_c, 9, 54, 91
2, 5761, Note_on_c, 9, 54, 0
2, 5785, Note_on_c, 0, 52, 0
2, 5785, Note_on_c, 1, 33, 0
2, 5785, Note_on_c, 0, 60, 0
2, 5786, Note_on_c, 0, 57, 0
2, 5786, Note_on_c, 0, 60, 79
2, 5786, Note_on_c, 0, 52, 69
2, 5786, Note_on_c, 0, 57, 79
2, 5790, Note_on_c, 9, 54, 49
2, 5791, Note_on_c, 9, 54, 0
2, 5810, Note_on_c, 0, 57, 0
2, 5810, Note_on_c, 0, 60, 0
2, 5815, Note_on_c, 0, 48, 0
2, 5815, Note_on_c, 1, 33, 106
2, 5815, Note_on_c, 0, 60, 79
2, 5815, Note_on_c, 0, 48, 76
2, 5816, Note_on_c, 0, 57, 82
2, 5816, Note_on_c, 4, 60, 90
2, 5820, Note_on_c, 9, 36, 114
2, 5820, Note_on_c, 9, 53, 79
2, 5821, Note_on_c, 9, 53, 0
2, 5821, Note_on_c, 9, 36, 0
2, 5821, Note_on_c, 9, 42, 61
2, 5821, Note_on_c, 9, 42, 0
2, 5821, Note_on_c, 9, 54, 53
2, 5821, Note_on_c, 9, 54, 0
2, 5821, Note_on_c, 9, 82, 56
2, 5821, Note_on_c, 9, 82, 0
2, 5840, Note_on_c, 0, 60, 0
2, 5840, Note_on_c, 0, 52, 0
2, 5841, Note_on_c, 0, 57, 0
2, 5845, Note_on_c, 1, 33, 0
2, 5845, Note_on_c, 0, 60, 79
2, 5846, Note_on_c, 0, 52, 72
2, 5846, Note_on_c, 0, 57, 79
2, 5850, Note_on_c, 9, 54, 53
2, 5851, Note_on_c, 9, 54, 0
2, 5851, Note_on_c, 9, 82, 58
2, 5851, Note_on_c, 9, 82, 0
2, 5875, Note_on_c, 0, 52, 0
2, 5875, Note_on_c, 0, 60, 0
2, 5876, Note_on_c, 0, 48, 0
2, 5876, Note_on_c, 1, 33, 110
2, 5876, Note_on_c, 0, 60, 96
2, 5876, Note_on_c, 0, 48, 96
2, 5876, Note_on_c, 0, 52, 82
2, 5876, Note_on_c, 4, 57, 74
2, 5880, Note_on_c, 9, 38, 114
2, 5880, Note_on_c, 9, 38, 0
2, 5880, Note_on_c, 9, 42, 127
2, 5880, Note_on_c, 9, 42, 0
2, 5880, Note_on_c, 9, 123, 99
2, 5880, Note_on_c, 9, 54, 106
2, 5881, Note_on_c, 9, 54, 0
2, 5881, Note_on_c, 9, 123, 0
2, 5905, Note_on_c, 4, 64, 82
2, 5911, Note_on_c, 9, 54, 58
2, 5911, Note_on_c, 9, 54, 0
2, 5925, Note_on_c, 4, 57, 0
2, 5926, Note_on_c, 4, 45, 0
2, 5936, Note_on_c, 0, 48, 0
2, 5936, Note_on_c, 0, 60, 0
2, 5936, Note_on_c, 0, 57, 0
2, 5936, Note_on_c, 0, 52, 0
2, 5936, Note_on_c, 4, 64, 0
2, 5936, Note_on_c, 4, 57, 67
2, 5940, Note_on_c, 9, 53, 76
2, 5940, Note_on_c, 9, 53, 0
2, 5940, Note_on_c, 9, 42, 56
2, 5940, Note_on_c, 9, 42, 0
2, 5940, Note_on_c, 9, 54, 51
2, 5940, Note_on_c, 9, 54, 0
2, 5940, Note_on_c, 9, 82, 53
2, 5940, Note_on_c, 9, 82, 0
2, 5945, Note_on_c, 1, 33, 0
2, 5950, Note_on_c, 4, 60, 0
2, 5950, Note_on_c, 4, 57, 0
2, 5965, Note_on_c, 1, 33, 106
2, 5965, Note_on_c, 0, 60, 89
2, 5966, Note_on_c, 0, 48, 74
2, 5966, Note_on_c, 0, 52, 76
2, 5966, Note_on_c, 0, 57, 79
2, 5966, Note_on_c, 4, 45, 86
2, 5970, Note_on_c, 9, 36, 114
2, 5970, Note_on_c, 9, 54, 49
2, 5971, Note_on_c, 9, 54, 0
2, 5971, Note_on_c, 9, 36, 0
2, 5971, Note_on_c, 9, 82, 56
2, 5971, Note_on_c, 9, 82, 0
2, 5986, Note_on_c, 0, 57, 0
2, 5990, Note_on_c, 0, 48, 0
2, 5991, Note_on_c, 0, 52, 0
2, 5995, Note_on_c, 0, 60, 0
2, 5995, Note_on_c, 4, 60, 90
2, 6000, Note_on_c, 9, 42, 127
2, 6001, Note_on_c, 9, 42, 0
2, 6001, Note_on_c, 1, 33, 0
2, 6001, Note_on_c, 9, 54, 99
2, 6001, Note_on_c, 9, 54, 0
2, 6025, Note_on_c, 1, 33, 102
2, 6025, Note_on_c, 0, 60, 82
2, 6025, Note_on_c, 0, 48, 64
2, 6025, Note_on_c, 0, 52, 62
2, 6026, Note_on_c, 0, 57, 59
2, 6030, Note_on_c, 9, 36, 35
2, 6031, Note_on_c, 9, 36, 0
2, 6031, Note_on_c, 9, 54, 45
2, 6031, Note_on_c, 9, 54, 0
2, 6045, Note_on_c, 1, 33, 0
2, 6055, Note_on_c, 0, 48, 0
2, 6056, Note_on_c, 0, 52, 0
2, 6056, Note_on_c, 0, 57, 0
2, 6056, Note_on_c, 1, 33, 106
2, 6056, Note_on_c, 0, 48, 76
2, 6056, Note_on_c, 0, 52, 74
2, 6056, Note_on_c, 0, 57, 76
2, 6056, Note_on_c, 4, 57, 74
2, 6061, Note_on_c, 9, 36, 127
2, 6061, Note_on_c, 9, 36, 0
2, 6061, Note_on_c, 9, 53, 82
2, 6061, Note_on_c, 9, 53, 0
2, 6061, Note_on_c, 9, 42, 51
2, 6061, Note_on_c, 9, 42, 0
2, 6061, Note_on_c, 9, 54, 45
2, 6061, Note_on_c, 9, 54, 0
2, 6061, Note_on_c, 9, 82, 56
2, 6061, Note_on_c, 9, 82, 0
2, 6080, Note_on_c, 0, 52, 0
2, 6080, Note_on_c, 0, 57, 0
2, 6085, Note_on_c, 0, 60, 0
2, 6086, Note_on_c, 0, 60, 79
2, 6086, Note_on_c, 0, 52, 79
2, 6086, Note_on_c, 0, 57, 82
2, 6086, Note_on_c, 4, 64, 82
2, 6090, Note_on_c, 9, 54, 53
2, 6091, Note_on_c, 9, 54, 0
2, 6091, Note_on_c, 1, 33, 0
2, 6091, Note_on_c, 9, 82, 58
2, 6091, Note_on_c, 9, 82, 0
2, 6115, Note_on_c, 0, 60, 0
2, 6116, Note_on_c, 0, 52, 0
2, 6116, Note_on_c, 0, 48, 0
2, 6116, Note_on_c, 0, 57, 0
2, 6116, Note_on_c, 1, 33, 114
2, 6116, Note_on_c, 0, 60, 82
2, 6116, Note_on_c, 0, 48, 86
2, 6116, Note_on_c, 0, 52, 91
2, 6116, Note_on_c, 0, 57, 91
2, 6120, Note_on_c, 9, 38, 114
2, 6120, Note_on_c, 9, 42, 123
2, 6121, Note_on_c, 9, 42, 0
2, 6121, Note_on_c, 9, 38, 0
2, 6121, Note_on_c, 4, 57, 0
2, 6121, Note_on_c, 9, 123, 85
2, 6121, Note_on_c, 9, 123, 0
2, 6121, Note_on_c, 9, 54, 99
2, 6121, Note_on_c, 9, 54, 0
2, 6145, Note_on_c, 4, 57, 69
2, 6150, Note_on_c, 9, 54, 56
2, 6150, Note_on_c, 9, 54, 0
2, 6155, Note_on_c, 1, 33, 0
2, 6155, Note_on_c, 4, 60, 0
2, 6171, Note_on_c, 0, 52, 0
2, 6171, Note_on_c, 0, 48, 0
2, 6171, Note_on_c, 0, 57, 0
2, 6175, Note_on_c, 0, 60, 0
2, 6175, Note_on_c, 4, 57, 0
2, 6175, Note_on_c, 1, 33, 79
2, 6175, Note_on_c, 4, 60, 85
2, 6180, Note_on_c, 9, 53, 86
2, 6181, Note_on_c, 9, 53, 0
2, 6181, Note_on_c, 9, 42, 75
2, 6181, Note_on_c, 9, 42, 0
2, 6181, Note_on_c, 9, 54, 38
2, 6181, Note_on_c, 9, 54, 0
2, 6181, Note_on_c, 9, 82, 49
2, 6181, Note_on_c, 9, 82, 0
2, 6191, Note_on_c, 1, 33, 0
2, 6205, Note_on_c, 1, 33, 106
2, 6205, Note_on_c, 4, 57, 90
2, 6210, Note_on_c, 9, 54, 45
2, 6210, Note_on_c, 9, 54, 0
2, 6210, Note_on_c, 9, 82, 56
2, 6210, Note_on_c, 9, 82, 0
2, 6225, Note_on_c, 4, 57, 0
2, 6226, Note_on_c, 4, 64, 0
2, 6230, Note_on_c, 6, 52, 0
2, 6230, Note_on_c, 4, 60, 0
2, 6231, Note_on_c, 6, 57, 0
2, 6235, Note_on_c, 6, 60, 0
2, 6235, Note_on_c, 4, 45, 0
2, 6235, Note_on_c, 1, 33, 0
2, 6235, Note_on_c, 1, 33, 106
2, 6235, Note_on_c, 0, 60, 72
2, 6235, Note_on_c, 0, 48, 72
2, 6236, Note_on_c, 0, 52, 72
2, 6236, Note_on_c, 0, 57, 69
2, 6236, Note_on_c, 4, 45, 86
2, 6236, Note_on_c, 6, 60, 61
2, 6236, Note_on_c, 6, 52, 57
2, 6236, Note_on_c, 6, 57, 64
2, 6240, Note_on_c, 9, 36, 127
2, 6241, Note_on_c, 9, 36, 0
2, 6241, Note_on_c, 0, 48, 0
2, 6241, Note_on_c, 0, 52, 0
2, 6241, Note_on_c, 1, 33, 0
2, 6241, Note_on_c, 0, 57, 0
2, 6241, Note_on_c, 0, 60, 0
2, 6241, Note_on_c, 6, 52, 0
2, 6241, Note_on_c, 6, 60, 0
2, 6241, Note_on_c, 4, 45, 0
2, 6241, Note_on_c, 6, 57, 0
2, 6241, Note_on_c, 9, 42, 127
2, 6241, Note_on_c, 9, 42, 0
2, 6241, Note_on_c, 9, 54, 85
2, 6241, Note_on_c, 9, 54, 0
2, 6241, Control_c, 1, 84, 33
2, 6241, Note_on_c, 1, 38, 106
2, 6241, Control_c, 0, 84, 60
2, 6241, Note_on_c, 0, 57, 72
2, 6241, Note_on_c, 0, 57, 0
2, 6241, Control_c, 0, 84, 48
2, 6241, Note_on_c, 0, 62, 69
2, 6241, Control_c, 0, 84, 52
2, 6241, Note_on_c, 0, 66, 72
2, 6241, Control_c, 0, 84, 57
2, 6241, Note_on_c, 0, 69, 72
2, 6241, Control_c, 4, 84, 45
2, 6241, Note_on_c, 4, 50, 86
2, 6241, Control_c, 6, 84, 60
2, 6241, Note_on_c, 6, 57, 59
2, 6241, Note_on_c, 6, 57, 0
2, 6241, Control_c, 6, 84, 52
2, 6241, Note_on_c, 6, 62, 55
2, 6241, Control_c, 6, 84, 57
2, 6241, Note_on_c, 6, 66, 51
2, 6251, Note_on_c, 0, 62, 0
2, 6251, Note_on_c, 0, 69, 0
2, 6266, Note_on_c, 0, 57, 69
2, 6266, Note_on_c, 0, 62, 79
2, 6266, Note_on_c, 0, 69, 79
2, 6270, Note_on_c, 1, 38, 0
2, 6270, Note_on_c, 9, 54, 75
2, 6270, Note_on_c, 9, 54, 0
2, 6285, Note_on_c, 0, 66, 0
2, 6296, Note_on_c, 0, 69, 0
2, 6296, Note_on_c, 0, 62, 0
2, 6296, Note_on_c, 1, 38, 110
2, 6296, Note_on_c, 0, 62, 82
2, 6296, Note_on_c, 0, 66, 76
2, 6296, Note_on_c, 0, 69, 79
2, 6296, Note_on_c, 4, 62, 86
2, 6301, Note_on_c, 9, 36, 86
2, 6301, Note_on_c, 9, 36, 0
2, 6301, Note_on_c, 9, 53, 86
2, 6301, Note_on_c, 9, 53, 0
2, 6301, Note_on_c, 9, 54, 72
2, 6301, Note_on_c, 9, 54, 0
2, 6301, Note_on_c, 9, 42, 66
2, 6301, Note_on_c, 9, 42, 0
2, 6301, Note_on_c, 9, 82, 53
2, 6301, Note_on_c, 9, 82, 0
2, 6310, Note_on_c, 4, 50, 0
2, 6321, Note_on_c, 0, 57, 0
2, 6321, Note_on_c, 0, 69, 0
2, 6321, Note_on_c, 0, 62, 0
2, 6326, Note_on_c, 0, 57, 72
2, 6326, Note_on_c, 0, 62, 79
2, 6326, Note_on_c, 0, 69, 79
2, 6330, Note_on_c, 9, 54, 72
2, 6331, Note_on_c, 9, 54, 0
2, 6331, Note_on_c, 1, 38, 0
2, 6331, Note_on_c, 9, 82, 75
2, 6331, Note_on_c, 9, 82, 0
2, 6350, Note_on_c, 0, 66, 0
2, 6355, Note_on_c, 0, 57, 0
2, 6356, Note_on_c, 0, 69, 0
2, 6356, Note_on_c, 1, 38, 106
2, 6356, Note_on_c, 0, 57, 82
2, 6356, Note_on_c, 0, 66, 96
2, 6356, Note_on_c, 0, 69, 96
2, 6356, Note_on_c, 4, 57, 76
2, 6360, Note_on_c, 9, 38, 114
2, 6360, Note_on_c, 9, 42, 123
2, 6361, Note_on_c, 9, 42, 0
2, 6361, Note_on_c, 9, 38, 0
2, 6361, Note_on_c, 9, 123, 99
2, 6361, Note_on_c, 9, 123, 0
2, 6361, Note_on_c, 9, 54, 85
2, 6361, Note_on_c, 9, 54, 0
2, 6386, Note_on_c, 4, 64, 90
2, 6390, Note_on_c, 9, 54, 69
2, 6391, Note_on_c, 9, 54, 0
2, 6405, Note_on_c, 4, 57, 0
2, 6410, Note_on_c, 0, 69, 0
2, 6415, Note_on_c, 0, 66, 0
2, 6415, Note_on_c, 0, 57, 0
2, 6415, Note_on_c, 0, 62, 0
2, 6420, Note_on_c, 9, 53, 82
2, 6420, Note_on_c, 9, 42, 51
2, 6421, Note_on_c, 9, 42, 0
2, 6421, Note_on_c, 1, 38, 0
2, 6421, Note_on_c, 9, 53, 0
2, 6421, Note_on_c, 9, 54, 58
2, 6421, Note_on_c, 9, 54, 0
2, 6421, Note_on_c, 9, 82, 58
2, 6421, Note_on_c, 9, 82, 0
2, 6435, Note_on_c, 4, 64, 0
2, 6441, Note_on_c, 4, 62, 0
2, 6445, Note_on_c, 1, 38, 110
2, 6445, Note_on_c, 0, 57, 76
2, 6446, Note_on_c, 0, 62, 79
2, 6446, Note_on_c, 0, 66, 74
2, 6446, Note_on_c, 0, 69, 89
2, 6446, Note_on_c, 4, 50, 90
2, 6451, Note_on_c, 9, 36, 114
2, 6451, Note_on_c, 9, 36, 0
2, 6451, Note_on_c, 9, 54, 53
2, 6451, Note_on_c, 9, 54, 0
2, 6451, Note_on_c, 9, 82, 56
2, 6451, Note_on_c, 9, 82, 0
2, 6465, Note_on_c, 0, 62, 0
2, 6470, Note_on_c, 0, 57, 0
2, 6470, Note_on_c, 0, 66, 0
2, 6475, Note_on_c, 1, 38, 0
2, 6475, Note_on_c, 0, 69, 0
2, 6475, Note_on_c, 4, 62, 76
2, 6480, Note_on_c, 9, 42, 123
2, 6481, Note_on_c, 9, 42, 0
2, 6481, Note_on_c, 9, 54, 75
2, 6481, Note_on_c, 9, 54, 0
2, 6505, Note_on_c, 1, 38, 79
2, 6506, Note_on_c, 0, 57, 62
2, 6506, Note_on_c, 0, 62, 59
2, 6506, Note_on_c, 0, 66, 64
2, 6506, Note_on_c, 0, 69, 82
2, 6506, Note_on_c, 4, 57, 51
2, 6510, Note_on_c, 9, 36, 45
2, 6510, Note_on_c, 9, 54, 58
2, 6511, Note_on_c, 9, 54, 0
2, 6511, Note_on_c, 9, 36, 0
2, 6520, Note_on_c, 1, 38, 0
2, 6535, Note_on_c, 0, 66, 0
2, 6535, Note_on_c, 0, 62, 0
2, 6535, Note_on_c, 0, 57, 0
2, 6535, Note_on_c, 1, 38, 110
2, 6535, Note_on_c, 0, 57, 74
2, 6535, Note_on_c, 0, 62, 76
2, 6535, Note_on_c, 0, 66, 76
2, 6540, Note_on_c, 9, 36, 123
2, 6540, Note_on_c, 9, 36, 0
2, 6540, Note_on_c, 9, 53, 86
2, 6540, Note_on_c, 9, 53, 0
2, 6540, Note_on_c, 9, 42, 49
2, 6540, Note_on_c, 9, 42, 0
2, 6540, Note_on_c, 9, 54, 51
2, 6540, Note_on_c, 9, 82, 63
2, 6541, Note_on_c, 9, 82, 0
2, 6541, Note_on_c, 9, 54, 0
2, 6560, Note_on_c, 0, 62, 0
2, 6560, Note_on_c, 0, 57, 0
2, 6565, Note_on_c, 0, 69, 0
2, 6566, Note_on_c, 0, 57, 79
2, 6566, Note_on_c, 0, 62, 82
2, 6566, Note_on_c, 0, 69, 79
2, 6566, Note_on_c, 4, 64, 82
2, 6570, Note_on_c, 9, 54, 56
2, 6570, Note_on_c, 9, 82, 51
2, 6571, Note_on_c, 9, 82, 0
2, 6571, Note_on_c, 9, 54, 0
2, 6571, Note_on_c, 1, 38, 0
2, 6575, Note_on_c, 4, 57, 0
2, 6590, Note_on_c, 0, 66, 0
2, 6595, Note_on_c, 0, 57, 0
2, 6596, Note_on_c, 0, 62, 0
2, 6596, Note_on_c, 0, 69, 0
2, 6596, Note_on_c, 1, 38, 110
2, 6596, Note_on_c, 0, 57, 91
2, 6596, Note_on_c, 0, 62, 91
2, 6596, Note_on_c, 0, 66, 86
2, 6596, Note_on_c, 0, 69, 82
2, 6600, Note_on_c, 9, 38, 114
2, 6600, Note_on_c, 9, 42, 123
2, 6601, Note_on_c, 9, 42, 0
2, 6601, Note_on_c, 9, 38, 0
2, 6601, Note_on_c, 9, 123, 91
2, 6601, Note_on_c, 9, 123, 0
2, 6601, Note_on_c, 9, 54, 85
2, 6601, Note_on_c, 9, 54, 0
2, 6625, Note_on_c, 4, 57, 64
2, 6630, Note_on_c, 4, 62, 0
2, 6630, Note_on_c, 9, 54, 28
2, 6630, Note_on_c, 9, 54, 0
2, 6640, Note_on_c, 1, 38, 0
2, 6650, Note_on_c, 0, 62, 0
2, 6651, Note_on_c, 0, 66, 0
2, 6651, Note_on_c, 0, 69, 0
2, 6656, Note_on_c, 0, 57, 0
2, 6656, Note_on_c, 1, 38, 79
2, 6656, Note_on_c, 4, 62, 79
2, 6661, Note_on_c, 9, 53, 82
2, 6661, Note_on_c, 9, 53, 0
2, 6661, Note_on_c, 9, 42, 41
2, 6661, Note_on_c, 9, 42, 0
2, 6661, Note_on_c, 9, 54, 51
2, 6661, Note_on_c, 9, 54, 0
2, 6661, Note_on_c, 9, 82, 58
2, 6661, Note_on_c, 9, 82, 0
2, 6665, Note_on_c, 4, 57, 0
2, 6670, Note_on_c, 1, 38, 0
2, 6680, Note_on_c, 4, 50, 0
2, 6685, Note_on_c, 1, 38, 86
2, 6685, Note_on_c, 4, 57, 67
2, 6691, Note_on_c, 9, 25, 72
2, 6691, Note_on_c, 9, 25, 0
2, 6691, Note_on_c, 9, 54, 49
2, 6691, Note_on_c, 9, 54, 0
2, 6691, Note_on_c, 9, 82, 58
2, 6691, Note_on_c, 9, 82, 0
2, 6705, Note_on_c, 4, 62, 0
2, 6705, Note_on_c, 1, 38, 0
2, 6711, Note_on_c, 4, 64, 0
2, 6711, Note_on_c, 4, 57, 0
2, 6716, Note_on_c, 1, 38, 110
2, 6716, Note_on_c, 0, 57, 72
2, 6716, Note_on_c, 0, 62, 69
2, 6716, Note_on_c, 0, 66, 72
2, 6716, Note_on_c, 0, 69, 72
2, 6716, Note_on_c, 4, 50, 90
2, 6720, Note_on_c, 9, 36, 110
2, 6721, Note_on_c, 9, 36, 0
2, 6721, Note_on_c, 9, 42, 123
2, 6721, Note_on_c, 9, 42, 0
2, 6721, Note_on_c, 9, 54, 91
2, 6721, Note_on_c, 9, 54, 0
2, 6740, Note_on_c, 0, 57, 0
2, 6741, Note_on_c, 0, 62, 0
2, 6741, Note_on_c, 0, 69, 0
2, 6745, Note_on_c, 1, 38, 0
2, 6745, Note_on_c, 0, 57, 69
2, 6745, Note_on_c, 0, 62, 79
2, 6745, Note_on_c, 0, 69, 79
2, 6750, Note_on_c, 9, 54, 49
2, 6751, Note_on_c, 9, 54, 0
2, 6770, Note_on_c, 0, 66, 0
2, 6775, Note_on_c, 0, 62, 0
2, 6776, Note_on_c, 0, 69, 0
2, 6776, Note_on_c, 1, 38, 106
2, 6776, Note_on_c, 0, 62, 82
2, 6776, Note_on_c, 0, 66, 76
2, 6776, Note_on_c, 0, 69, 79
2, 6776, Note_on_c, 4, 66, 90
2, 6780, Note_on_c, 9, 36, 114
2, 6781, Note_on_c, 9, 36, 0
2, 6781, Note_on_c, 9, 53, 79
2, 6781, Note_on_c, 9, 53, 0
2, 6781, Note_on_c, 9, 42, 61
2, 6781, Note_on_c, 9, 42, 0
2, 6781, Note_on_c, 9, 54, 53
2, 6781, Note_on_c, 9, 54, 0
2, 6781, Note_on_c, 9, 82, 56
2, 6781, Note_on_c, 9, 82, 0
2, 6800, Note_on_c, 0, 69, 0
2, 6800, Note_on_c, 0, 62, 0
2, 6800, Note_on_c, 0, 57, 0
2, 6805, Note_on_c, 1, 38, 0
2, 6805, Note_on_c, 0, 57, 72
2, 6805, Note_on_c, 0, 62, 79
2, 6806, Note_on_c, 0, 69, 79
2, 6810, Note_on_c, 9, 54, 53
2, 6810, Note_on_c, 9, 54, 0
2, 6810, Note_on_c, 9, 82, 58
2, 6810, Note_on_c, 9, 82, 0
2, 6830, Note_on_c, 0, 66, 0
2, 6835, Note_on_c, 0, 57, 0
2, 6836, Note_on_c, 0, 69, 0
2, 6836, Note_on_c, 1, 38, 110
2, 6836, Note_on_c, 0, 57, 82
2, 6836, Note_on_c, 0, 66, 96
2, 6836, Note_on_c, 0, 69, 96
2, 6836, Note_on_c, 4, 62, 76
2, 6841, Note_on_c, 9, 38, 114
2, 6841, Note_on_c, 9, 38, 0
2, 6841, Note_on_c, 9, 42, 127
2, 6841, Note_on_c, 9, 42, 0
2, 6841, Note_on_c, 9, 123, 99
2, 6841, Note_on_c, 9, 123, 0
2, 6841, Note_on_c, 9, 54, 106
2, 6841, Note_on_c, 9, 54, 0
2, 6865, Note_on_c, 4, 69, 90
2, 6870, Note_on_c, 9, 54, 58
2, 6870, Note_on_c, 9, 54, 0
2, 6895, Note_on_c, 0, 62, 0
2, 6896, Note_on_c, 0, 69, 0
2, 6896, Note_on_c, 0, 66, 0
2, 6896, Note_on_c, 0, 57, 0
2, 6900, Note_on_c, 9, 53, 76
2, 6900, Note_on_c, 9, 42, 56
2, 6901, Note_on_c, 9, 42, 0
2, 6901, Note_on_c, 9, 53, 0
2, 6901, Note_on_c, 9, 54, 51
2, 6901, Note_on_c, 9, 54, 0
2, 6901, Note_on_c, 9, 82, 53
2, 6901, Note_on_c, 9, 82, 0
2, 6905, Note_on_c, 4, 50, 0
2, 6905, Note_on_c, 1, 38, 0
2, 6916, Note_on_c, 4, 69, 0
2, 6925, Note_on_c, 4, 66, 0
2, 6925, Note_on_c, 1, 38, 106
2, 6925, Note_on_c, 0, 57, 76
2, 6925, Note_on_c, 0, 62, 79
2, 6925, Note_on_c, 0, 66, 74
2, 6925, Note_on_c, 0, 69, 89
2, 6925, Note_on_c, 4, 50, 86
2, 6930, Note_on_c, 4, 62, 0
2, 6930, Note_on_c, 9, 36, 114
2, 6930, Note_on_c, 9, 36, 0
2, 6930, Note_on_c, 9, 54, 49
2, 6930, Note_on_c, 9, 54, 0
2, 6930, Note_on_c, 9, 82, 56
2, 6930, Note_on_c, 9, 82, 0
2, 6945, Note_on_c, 0, 62, 0
2, 6946, Note_on_c, 0, 66, 0
2, 6951, Note_on_c, 0, 57, 0
2, 6955, Note_on_c, 0, 69, 0
2, 6955, Note_on_c, 4, 66, 82
2, 6960, Note_on_c, 9, 42, 127
2, 6960, Note_on_c, 9, 54, 99
2, 6961, Note_on_c, 9, 54, 0
2, 6961, Note_on_c, 1, 38, 0
2, 6961, Note_on_c, 9, 42, 0
2, 6985, Note_on_c, 1, 38, 102
2, 6985, Note_on_c, 0, 57, 62
2, 6986, Note_on_c, 0, 62, 59
2, 6986, Note_on_c, 0, 66, 64
2, 6986, Note_on_c, 0, 69, 82
2, 6990, Note_on_c, 9, 36, 35
2, 6990, Note_on_c, 9, 36, 0
2, 6990, Note_on_c, 9, 54, 45
2, 6990, Note_on_c, 9, 54, 0
2, 7005, Note_on_c, 1, 38, 0
2, 7010, Note_on_c, 0, 62, 0
2, 7010, Note_on_c, 0, 57, 0
2, 7011, Note_on_c, 0, 66, 0
2, 7015, Note_on_c, 1, 38, 106
2, 7015, Note_on_c, 0, 57, 74
2, 7016, Note_on_c, 0, 62, 76
2, 7016, Note_on_c, 0, 66, 76
2, 7016, Note_on_c, 4, 62, 74
2, 7020, Note_on_c, 9, 36, 127
2, 7021, Note_on_c, 9, 36, 0
2, 7021, Note_on_c, 9, 53, 82
2, 7021, Note_on_c, 9, 53, 0
2, 7021, Note_on_c, 9, 42, 51
2, 7021, Note_on_c, 9, 42, 0
2, 7021, Note_on_c, 9, 54, 45
2, 7021, Note_on_c, 9, 54, 0
2, 7021, Note_on_c, 9, 82, 56
2, 7021, Note_on_c, 9, 82, 0
2, 7046, Note_on_c, 0, 62, 0
2, 7046, Note_on_c, 0, 57, 0
2, 7046, Note_on_c, 0, 69, 0
2, 7046, Note_on_c, 0, 57, 79
2, 7046, Note_on_c, 0, 62, 82
2, 7046, Note_on_c, 0, 69, 79
2, 7046, Note_on_c, 4, 69, 82
2, 7051, Note_on_c, 1, 38, 0
2, 7051, Note_on_c, 9, 54, 53
2, 7051, Note_on_c, 9, 54, 0
2, 7051, Note_on_c, 9, 82, 58
2, 7051, Note_on_c, 9, 82, 0
2, 7070, Note_on_c, 0, 69, 0
2, 7070, Note_on_c, 0, 62, 0
2, 7075, Note_on_c, 0, 57, 0
2, 7076, Note_on_c, 0, 66, 0
2, 7076, Note_on_c, 1, 38, 114
2, 7076, Note_on_c, 0, 57, 91
2, 7076, Note_on_c, 0, 62, 91
2, 7076, Note_on_c, 0, 66, 86
2, 7076, Note_on_c, 0, 69, 82
2, 7080, Note_on_c, 9, 38, 114
2, 7081, Note_on_c, 9, 38, 0
2, 7081, Note_on_c, 9, 42, 123
2, 7081, Note_on_c, 9, 42, 0
2, 7081, Note_on_c, 9, 123, 85
2, 7081, Note_on_c, 9, 123, 0
2, 7081, Note_on_c, 9, 54, 99
2, 7081, Note_on_c, 9, 54, 0
2, 7085, Note_on_c, 4, 62, 0
2, 7106, Note_on_c, 4, 62, 67
2, 7110, Note_on_c, 4, 66, 0
2, 7110, Note_on_c, 9, 54, 56
2, 7111, Note_on_c, 9, 54, 0
2, 7115, Note_on_c, 1, 38, 0
2, 7121, Note_on_c, 4, 69, 0
2, 7130, Note_on_c, 0, 62, 0
2, 7130, Note_on_c, 0, 69, 0
2, 7130, Note_on_c, 0, 66, 0
2, 7135, Note_on_c, 0, 57, 0
2, 7135, Note_on_c, 1, 38, 79
2, 7135, Note_on_c, 4, 66, 86
2, 7140, Note_on_c, 4, 62, 0
2, 7140, Note_on_c, 9, 53, 86
2, 7140, Note_on_c, 9, 42, 75
2, 7140, Note_on_c, 9, 54, 38
2, 7141, Note_on_c, 9, 54, 0
2, 7141, Note_on_c, 9, 42, 0
2, 7141, Note_on_c, 9, 53, 0
2, 7141, Note_on_c, 9, 82, 49
2, 7141, Note_on_c, 9, 82, 0
2, 7150, Note_on_c, 1, 38, 0
2, 7165, Note_on_c, 1, 38, 106
2, 7165, Note_on_c, 4, 62, 76
2, 7170, Note_on_c, 9, 54, 45
2, 7171, Note_on_c, 9, 54, 0
2, 7171, Note_on_c, 9, 82, 56
2, 7171, Note_on_c, 9, 82, 0
2, 7176, Note_on_c, 4, 50, 0
2, 7190, Note_on_c, 4, 66, 0
2, 7195, Note_on_c, 6, 66, 0
2, 7195, Note_on_c, 6, 62, 0
2, 7195, Note_on_c, 4, 62, 0
2, 7195, Note_on_c, 1, 38, 0
2, 7195, Note_on_c, 1, 31, 106
2, 7195, Note_on_c, 0, 62, 72
2, 7196, Note_on_c, 0, 67, 69
2, 7196, Note_on_c, 0, 71, 72
2, 7196, Note_on_c, 0, 74, 72
2, 7196, Note_on_c, 4, 55, 86
2, 7196, Note_on_c, 6, 62, 59
2, 7196, Note_on_c, 6, 67, 55
2, 7196, Note_on_c, 6, 71, 51
2, 7200, Note_on_c, 9, 36, 127
2, 7200, Note_on_c, 9, 42, 127
2, 7201, Note_on_c, 9, 42, 0
2, 7201, Note_on_c, 9, 36, 0
2, 7201, Note_on_c, 9, 54, 85
2, 7201, Note_on_c, 9, 54, 0
2, 7210, Note_on_c, 0, 67, 0
2, 7211, Note_on_c, 0, 74, 0
2, 7215, Note_on_c, 0, 62, 0
2, 7225, Note_on_c, 0, 62, 69
2, 7226, Note_on_c, 0, 67, 79
2, 7226, Note_on_c, 0, 74, 79
2, 7230, Note_on_c, 1, 31, 0
2, 7230, Note_on_c, 9, 54, 75
2, 7230, Note_on_c, 9, 54, 0
2, 7245, Note_on_c, 0, 71, 0
2, 7255, Note_on_c, 0, 74, 0
2, 7255, Note_on_c, 0, 67, 0
2, 7255, Note_on_c, 1, 31, 110
2, 7255, Note_on_c, 0, 67, 82
2, 7255, Note_on_c, 0, 71, 76
2, 7255, Note_on_c, 0, 74, 79
2, 7255, Note_on_c, 4, 67, 86
2, 7260, Note_on_c, 9, 36, 86
2, 7260, Note_on_c, 9, 36, 0
2, 7260, Note_on_c, 9, 53, 86
2, 7260, Note_on_c, 9, 53, 0
2, 7260, Note_on_c, 9, 54, 72
2, 7260, Note_on_c, 9, 54, 0
2, 7260, Note_on_c, 9, 42, 66
2, 7260, Note_on_c, 9, 82, 53
2, 7261, Note_on_c, 9, 82, 0
2, 7261, Note_on_c, 9, 42, 0
2, 7270, Note_on_c, 4, 55, 0
2, 7280, Note_on_c, 0, 62, 0
2, 7281, Note_on_c, 0, 74, 0
2, 7281, Note_on_c, 0, 67, 0
2, 7286, Note_on_c, 0, 62, 72
2, 7286, Note_on_c, 0, 67, 79
2, 7286, Note_on_c, 0, 74, 79
2, 7290, Note_on_c, 1, 31, 0
2, 7290, Note_on_c, 9, 54, 72
2, 7290, Note_on_c, 9, 54, 0
2, 7290, Note_on_c, 9, 82, 75
2, 7291, Note_on_c, 9, 82, 0
2, 7311, Note_on_c, 0, 71, 0
2, 7316, Note_on_c, 0, 74, 0
2, 7316, Note_on_c, 0, 62, 0
2, 7316, Note_on_c, 1, 31, 106
2, 7316, Note_on_c, 0, 62, 82
2, 7316, Note_on_c, 0, 71, 96
2, 7316, Note_on_c, 0, 74, 96
2, 7316, Note_on_c, 4, 62, 76
2, 7320, Note_on_c, 9, 38, 114
2, 7320, Note_on_c, 9, 38, 0
2, 7320, Note_on_c, 9, 42, 123
2, 7320, Note_on_c, 9, 42, 0
2, 7320, Note_on_c, 9, 123, 99
2, 7320, Note_on_c, 9, 123, 0
2, 7320, Note_on_c, 9, 54, 85
2, 7320, Note_on_c, 9, 54, 0
2, 7345, Note_on_c, 4, 69, 90
2, 7350, Note_on_c, 9, 54, 69
2, 7351, Note_on_c, 9, 54, 0
2, 7365, Note_on_c, 4, 62, 0
2, 7370, Note_on_c, 0, 74, 0
2, 7376, Note_on_c, 0, 62, 0
2, 7376, Note_on_c, 0, 71, 0
2, 7376, Note_on_c, 0, 67, 0
2, 7380, Note_on_c, 9, 53, 82
2, 7381, Note_on_c, 9, 53, 0
2, 7381, Note_on_c, 1, 31, 0
2, 7381, Note_on_c, 9, 42, 51
2, 7381, Note_on_c, 9, 42, 0
2, 7381, Note_on_c, 9, 54, 58
2, 7381, Note_on_c, 9, 54, 0
2, 7381, Note_on_c, 9, 82, 58
2, 7381, Note_on_c, 9, 82, 0
2, 7395, Note_on_c, 4, 69, 0
2, 7400, Note_on_c, 4, 67, 0
2, 7405, Note_on_c, 1, 31, 110
2, 7405, Note_on_c, 0, 62, 76
2, 7405, Note_on_c, 0, 67, 79
2, 7405, Note_on_c, 0, 71, 74
2, 7405, Note_on_c, 0, 74, 89
2, 7405, Note_on_c, 4, 55, 90
2, 7410, Note_on_c, 9, 36, 114
2, 7411, Note_on_c, 9, 36, 0
2, 7411, Note_on_c, 9, 54, 53
2, 7411, Note_on_c, 9, 54, 0
2, 7411, Note_on_c, 9, 82, 56
2, 7411, Note_on_c, 9, 82, 0
2, 7425, Note_on_c, 0, 67, 0
2, 7431, Note_on_c, 0, 71, 0
2, 7431, Note_on_c, 0, 62, 0
2, 7435, Note_on_c, 1, 31, 0
2, 7436, Note_on_c, 0, 74, 0
2, 7436, Note_on_c, 4, 67, 76
2, 7441, Note_on_c, 9, 42, 123
2, 7441, Note_on_c, 9, 42, 0
2, 7441, Note_on_c, 9, 54, 75
2, 7441, Note_on_c, 9, 54, 0
2, 7465, Note_on_c, 1, 31, 79
2, 7465, Note_on_c, 0, 62, 62
2, 7466, Note_on_c, 0, 67, 59
2, 7466, Note_on_c, 0, 71, 64
2, 7466, Note_on_c, 0, 74, 82
2, 7466, Note_on_c, 4, 62, 51
2, 7470, Note_on_c, 9, 36, 45
2, 7470, Note_on_c, 9, 36, 0
2, 7470, Note_on_c, 9, 54, 58
2, 7471, Note_on_c, 9, 54, 0
2, 7480, Note_on_c, 1, 31, 0
2, 7496, Note_on_c, 0, 71, 0
2, 7496, Note_on_c, 0, 67, 0
2, 7496, Note_on_c, 0, 62, 0
2, 7496, Note_on_c, 1, 31, 110
2, 7496, Note_on_c, 0, 62, 74
2, 7496, Note_on_c, 0, 67, 76
2, 7496, Note_on_c, 0, 71, 76
2, 7500, Note_on_c, 9, 36, 123
2, 7500, Note_on_c, 9, 53, 86
2, 7501, Note_on_c, 9, 53, 0
2, 7501, Note_on_c, 9, 36, 0
2, 7501, Note_on_c, 9, 42, 49
2, 7501, Note_on_c, 9, 42, 0
2, 7501, Note_on_c, 9, 54, 51
2, 7501, Note_on_c, 9, 54, 0
2, 7501, Note_on_c, 9, 82, 63
2, 7501, Note_on_c, 9, 82, 0
2, 7520, Note_on_c, 0, 62, 0
2, 7520, Note_on_c, 0, 67, 0
2, 7525, Note_on_c, 0, 74, 0
2, 7525, Note_on_c, 0, 62, 79
2, 7525, Note_on_c, 0, 67, 82
2, 7525, Note_on_c, 0, 74, 79
2, 7525, Note_on_c, 4, 69, 82
2, 7530, Note_on_c, 1, 31, 0
2, 7530, Note_on_c, 9, 54, 56
2, 7530, Note_on_c, 9, 54, 0
2, 7530, Note_on_c, 9, 82, 51
2, 7531, Note_on_c, 9, 82, 0
2, 7535, Note_on_c, 4, 62, 0
2, 7550, Note_on_c, 0, 71, 0
2, 7555, Note_on_c, 0, 62, 0
2, 7555, Note_on_c, 0, 67, 0
2, 7556, Note_on_c, 0, 74, 0
2, 7556, Note_on_c, 1, 31, 110
2, 7556, Note_on_c, 0, 62, 91
2, 7556, Note_on_c, 0, 67, 91
2, 7556, Note_on_c, 0, 71, 86
2, 7556, Note_on_c, 0, 74, 82
2, 7560, Note_on_c, 9, 38, 114
2, 7561, Note_on_c, 9, 38, 0
2, 7561, Note_on_c, 9, 42, 123
2, 7561, Note_on_c, 9, 42, 0
2, 7561, Note_on_c, 9, 123, 91
2, 7561, Note_on_c, 9, 123, 0
2, 7561, Note_on_c, 9, 54, 85
2, 7561, Note_on_c, 9, 54, 0
2, 7585, Note_on_c, 4, 62, 64
2, 7590, Note_on_c, 4, 67, 0
2, 7590, Note_on_c, 9, 54, 28
2, 7590, Note_on_c, 9, 54, 0
2, 7600, Note_on_c, 1, 31, 0
2, 7610, Note_on_c, 0, 67, 0
2, 7610, Note_on_c, 0, 74, 0
2, 7610, Note_on_c, 0, 71, 0
2, 7616, Note_on_c, 0, 62, 0
2, 7616, Note_on_c, 1, 31, 79
2, 7616, Note_on_c, 4, 67, 79
2, 7621, Note_on_c, 9, 53, 82
2, 7621, Note_on_c, 9, 53, 0
2, 7621, Note_on_c, 9, 42, 41
2, 7621, Note_on_c, 9, 42, 0
2, 7621, Note_on_c, 9, 54, 51
2, 7621, Note_on_c, 9, 54, 0
2, 7621, Note_on_c, 9, 82, 58
2, 7621, Note_on_c, 9, 82, 0
2, 7626, Note_on_c, 4, 62, 0
2, 7630, Note_on_c, 1, 31, 0
2, 7641, Note_on_c, 4, 55, 0
2, 7646, Note_on_c, 1, 31, 86
2, 7646, Note_on_c, 4, 62, 67
2, 7650, Note_on_c, 9, 25, 72
2, 7650, Note_on_c, 9, 25, 0
2, 7650, Note_on_c, 9, 54, 49
2, 7650, Note_on_c, 9, 54, 0
2, 7650, Note_on_c, 9, 82, 58
2, 7650, Note_on_c, 9, 82, 0
2, 7665, Note_on_c, 1, 31, 0
2, 7665, Note_on_c, 4, 67, 0
2, 7671, Note_on_c, 4, 69, 0
2, 7671, Note_on_c, 4, 62, 0
2, 7675, Note_on_c, 1, 31, 110
2, 7675, Note_on_c, 0, 62, 72
2, 7675, Note_on_c, 0, 67, 69
2, 7676, Note_on_c, 0, 71, 72
2, 7676, Note_on_c, 0, 74, 72
2, 7676, Note_on_c, 4, 55, 90
2, 7680, Note_on_c, 9, 36, 110
2, 7681, Note_on_c, 9, 36, 0
2, 7681, Note_on_c, 9, 42, 123
2, 7681, Note_on_c, 9, 42, 0
2, 7681, Note_on_c, 9, 54, 91
2, 7681, Note_on_c, 9, 54, 0
2, 7701, Note_on_c, 0, 74, 0
2, 7701, Note_on_c, 0, 67, 0
2, 7701, Note_on_c, 0, 62, 0
2, 7706, Note_on_c, 1, 31, 0
2, 7706, Note_on_c, 0, 62, 69
2, 7706, Note_on_c, 0, 67, 79
2, 7706, Note_on_c, 0, 74, 79
2, 7710, Note_on_c, 9, 54, 49
2, 7711, Note_on_c, 9, 54, 0
2, 7730, Note_on_c, 0, 71, 0
2, 7735, Note_on_c, 0, 74, 0
2, 7735, Note_on_c, 0, 67, 0
2, 7735, Note_on_c, 1, 31, 106
2, 7735, Note_on_c, 0, 67, 82
2, 7735, Note_on_c, 0, 71, 76
2, 7735, Note_on_c, 0, 74, 79
2, 7735, Note_on_c, 4, 71, 90
2, 7740, Note_on_c, 9, 36, 114
2, 7740, Note_on_c, 9, 36, 0
2, 7740, Note_on_c, 9, 53, 79
2, 7740, Note_on_c, 9, 53, 0
2, 7740, Note_on_c, 9, 42, 61
2, 7740, Note_on_c, 9, 54, 53
2, 7740, Note_on_c, 9, 82, 56
2, 7741, Note_on_c, 9, 82, 0
2, 7741, Note_on_c, 9, 54, 0
2, 7741, Note_on_c, 9, 42, 0
2, 7760, Note_on_c, 0, 67, 0
2, 7760, Note_on_c, 0, 62, 0
2, 7761, Note_on_c, 0, 74, 0
2, 7765, Note_on_c, 1, 31, 0
2, 7765, Note_on_c, 0, 62, 72
2, 7766, Note_on_c, 0, 67, 79
2, 7766, Note_on_c, 0, 74, 79
2, 7771, Note_on_c, 9, 54, 53
2, 7771, Note_on_c, 9, 54, 0
2, 7771, Note_on_c, 9, 82, 58
2, 7771, Note_on_c, 9, 82, 0
2, 7790, Note_on_c, 0, 71, 0
2, 7795, Note_on_c, 0, 74, 0
2, 7795, Note_on_c, 0, 62, 0
2, 7795, Note_on_c, 1, 31, 110
2, 7795, Note_on_c, 0, 62, 82
2, 7796, Note_on_c, 0, 71, 96
2, 7796, Note_on_c, 0, 74, 96
2, 7796, Note_on_c, 4, 67, 76
2, 7800, Note_on_c, 9, 38, 114
2, 7801, Note_on_c, 9, 38, 0
2, 7801, Note_on_c, 9, 42, 127
2, 7801, Note_on_c, 9, 42, 0
2, 7801, Note_on_c, 9, 123, 99
2, 7801, Note_on_c, 9, 123, 0
2, 7801, Note_on_c, 9, 54, 106
2, 7801, Note_on_c, 9, 54, 0
2, 7825, Note_on_c, 4, 62, 90
2, 7831, Note_on_c, 9, 54, 58
2, 7831, Note_on_c, 9, 54, 0
2, 7855, Note_on_c, 0, 67, 0
2, 7856, Note_on_c, 0, 74, 0
2, 7856, Note_on_c, 0, 62, 0
2, 7856, Note_on_c, 0, 71, 0
2, 7860, Note_on_c, 9, 53, 76
2, 7861, Note_on_c, 9, 53, 0
2, 7861, Note_on_c, 9, 42, 56
2, 7861, Note_on_c, 9, 42, 0
2, 7861, Note_on_c, 9, 54, 51
2, 7861, Note_on_c, 9, 54, 0
2, 7861, Note_on_c, 9, 82, 53
2, 7861, Note_on_c, 9, 82, 0
2, 7865, Note_on_c, 4, 55, 0
2, 7865, Note_on_c, 1, 31, 0
2, 7876, Note_on_c, 4, 62, 0
2, 7885, Note_on_c, 4, 71, 0
2, 7885, Note_on_c, 1, 31, 106
2, 7885, Note_on_c, 0, 62, 76
2, 7886, Note_on_c, 0, 67, 79
2, 7886, Note_on_c, 0, 71, 74
2, 7886, Note_on_c, 0, 74, 89
2, 7886, Note_on_c, 4, 55, 86
2, 7890, Note_on_c, 9, 36, 114
2, 7890, Note_on_c, 9, 54, 49
2, 7891, Note_on_c, 9, 54, 0
2, 7891, Note_on_c, 4, 67, 0
2, 7891, Note_on_c, 9, 36, 0
2, 7891, Note_on_c, 9, 82, 56
2, 7891, Note_on_c, 9, 82, 0
2, 7906, Note_on_c, 0, 71, 0
2, 7906, Note_on_c, 0, 67, 0
2, 7910, Note_on_c, 0, 62, 0
2, 7915, Note_on_c, 0, 74, 0
2, 7915, Note_on_c, 4, 71, 82
2, 7920, Note_on_c, 1, 31, 0
2, 7920, Note_on_c, 9, 42, 127
2, 7920, Note_on_c, 9, 42, 0
2, 7920, Note_on_c, 9, 54, 99
2, 7920, Note_on_c, 9, 54, 0
2, 7945, Note_on_c, 1, 31, 102
2, 7945, Note_on_c, 0, 62, 62
2, 7945, Note_on_c, 0, 67, 59
2, 7946, Note_on_c, 0, 71, 64
2, 7946, Note_on_c, 0, 74, 82
2, 7950, Note_on_c, 9, 36, 35
2, 7951, Note_on_c, 9, 36, 0
2, 7951, Note_on_c, 9, 54, 45
2, 7951, Note_on_c, 9, 54, 0
2, 7965, Note_on_c, 1, 31, 0
2, 7970, Note_on_c, 0, 62, 0
2, 7971, Note_on_c, 0, 71, 0
2, 7971, Note_on_c, 0, 67, 0
2, 7976, Note_on_c, 1, 31, 106
2, 7976, Note_on_c, 0, 62, 74
2, 7976, Note_on_c, 0, 67, 76
2, 7976, Note_on_c, 0, 71, 76
2, 7976, Note_on_c, 4, 67, 74
2, 7980, Note_on_c, 9, 36, 127
2, 7980, Note_on_c, 9, 36, 0
2, 7980, Note_on_c, 9, 53, 82
2, 7980, Note_on_c, 9, 53, 0
2, 7980, Note_on_c, 9, 42, 51
2, 7980, Note_on_c, 9, 54, 45
2, 7980, Note_on_c, 9, 82, 56
2, 7981, Note_on_c, 9, 82, 0
2, 7981, Note_on_c, 9, 54, 0
2, 7981, Note_on_c, 9, 42, 0
2, 8005, Note_on_c, 0, 74, 0
2, 8006, Note_on_c, 0, 67, 0
2, 8006, Note_on_c, 0, 62, 0
2, 8006, Note_on_c, 0, 62, 79
2, 8006, Note_on_c, 0, 67, 82
2, 8006, Note_on_c, 0, 74, 79
2, 8006, Note_on_c, 4, 62, 82
2, 8010, Note_on_c, 9, 54, 53
2, 8011, Note_on_c, 9, 54, 0
2, 8011, Note_on_c, 1, 31, 0
2, 8011, Note_on_c, 9, 82, 58
2, 8011, Note_on_c, 9, 82, 0
2, 8031, Note_on_c, 0, 67, 0
2, 8031, Note_on_c, 0, 74, 0
2, 8036, Note_on_c, 0, 71, 0
2, 8036, Note_on_c, 0, 62, 0
2, 8036, Note_on_c, 1, 31, 114
2, 8036, Note_on_c, 0, 62, 91
2, 8036, Note_on_c, 0, 67, 91
2, 8036, Note_on_c, 0, 71, 86
2, 8036, Note_on_c, 0, 74, 82
2, 8041, Note_on_c, 9, 38, 114
2, 8041, Note_on_c, 9, 38, 0
2, 8041, Note_on_c, 9, 42, 123
2, 8041, Note_on_c, 9, 42, 0
2, 8041, Note_on_c, 9, 123, 85
2, 8041, Note_on_c, 9, 123, 0
2, 8041, Note_on_c, 9, 54, 99
2, 8041, Note_on_c, 9, 54, 0
2, 8045, Note_on_c, 4, 67, 0
2, 8066, Note_on_c, 4, 67, 67
2, 8070, Note_on_c, 4, 71, 0
2, 8070, Note_on_c, 9, 54, 56
2, 8070, Note_on_c, 9, 54, 0
2, 8075, Note_on_c, 1, 31, 0
2, 8080, Note_on_c, 4, 62, 0
2, 8091, Note_on_c, 0, 67, 0
2, 8091, Note_on_c, 0, 71, 0
2, 8091, Note_on_c, 0, 74, 0
2, 8095, Note_on_c, 0, 62, 0
2, 8095, Note_on_c, 1, 31, 79
2, 8095, Note_on_c, 4, 71, 86
2, 8100, Note_on_c, 4, 67, 0
2, 8100, Note_on_c, 9, 53, 86
2, 8100, Note_on_c, 9, 42, 75
2, 8101, Note_on_c, 9, 42, 0
2, 8101, Note_on_c, 9, 53, 0
2, 8101, Note_on_c, 9, 54, 38
2, 8101, Note_on_c, 9, 54, 0
2, 8101, Note_on_c, 9, 82, 49
2, 8101, Note_on_c, 9, 82, 0
2, 8110, Note_on_c, 1, 31, 0
2, 8125, Note_on_c, 1, 31, 106
2, 8125, Note_on_c, 4, 67, 76
2, 8130, Note_on_c, 9, 54, 45
2, 8130, Note_on_c, 9, 82, 56
2, 8131, Note_on_c, 9, 82, 0
2, 8131, Note_on_c, 9, 54, 0
2, 8135, Note_on_c, 4, 55, 0
2, 8150, Note_on_c, 4, 71, 0
2, 8155, Note_on_c, 1, 31, 0
2, 8155, Note_on_c, 4, 67, 0
2, 8156, Note_on_c, 6, 62, 0
2, 8156, Note_on_c, 6, 67, 0
2, 8156, Note_on_c, 6, 71, 0
2, 8156, Control_c, 9, 0, 7
2, 8157, Control_c, 9, 32, 51
2, 8158, Program_c, 9, 9
2, 8158, Control_c, 9, 0, 0
2, 8158, Control_c, 9, 32, 3
2, 8159, Program_c, 9, 8
2, 8159, Control_c, 1, 0, 0
2, 8159, Control_c, 1, 32, 1
2, 8159, Program_c, 1, 33
2, 8159, Note_on_c, 1, 31, 106
2, 8159, Control_c, 0, 0, 0
2, 8159, Control_c, 0, 32, 3
2, 8159, Control_c, 0, 0, 0
2, 8159, Control_c, 0, 32, 3
2, 8159, Control_c, 0, 0, 0
2, 8159, Control_c, 0, 32, 3
2, 8159, Control_c, 0, 0, 0
2, 8159, Control_c, 0, 32, 3
2, 8159, Control_c, 0, 0, 0
2, 8159, Control_c, 0, 32, 3
2, 8160, Program_c, 0, 25
2, 8160, Note_on_c, 0, 62, 72
2, 8161, Note_on_c, 0, 67, 69
2, 8161, Note_on_c, 0, 71, 72
2, 8161, Note_on_c, 0, 74, 72
2, 8161, Control_c, 4, 0, 9
2, 8161, Control_c, 4, 32, 2
2, 8161, Control_c, 4, 0, 9
2, 8161, Control_c, 4, 32, 2
2, 8161, Control_c, 4, 0, 9
2, 8161, Control_c, 4, 32, 2
2, 8161, Control_c, 4, 0, 9
2, 8161, Control_c, 4, 32, 2
2, 8161, Control_c, 4, 0, 9
2, 8161, Control_c, 4, 32, 2
2, 8161, Program_c, 4, 27
2, 8161, Note_on_c, 4, 55, 86
2, 8161, Control_c, 6, 0, 32
2, 8161, Control_c, 6, 32, 1
2, 8161, Control_c, 6, 0, 32
2, 8161, Control_c, 6, 32, 1
2, 8161, Control_c, 6, 0, 32
2, 8161, Control_c, 6, 32, 1
2, 8161, Control_c, 6, 0, 32
2, 8161, Control_c, 6, 32, 1
2, 8161, Control_c, 6, 0, 32
2, 8161, Control_c, 6, 32, 1
2, 8162, Program_c, 6, 52
2, 8162, Note_on_c, 6, 62, 59
2, 8162, Note_on_c, 6, 67, 55
2, 8162, Note_on_c, 6, 71, 51
2, 8163, Note_on_c, 9, 36, 127
2, 8163, Note_on_c, 9, 36, 0
2, 8163, Note_on_c, 9, 42, 127
2, 8163, Note_on_c, 9, 42, 0
2, 8163, Note_on_c, 9, 54, 85
2, 8163, Note_on_c, 9, 54, 0
2, 8172, Note_on_c, 0, 74, 0
2, 8172, Note_on_c, 0, 67, 0
2, 8177, Note_on_c, 0, 62, 0
2, 8187, Note_on_c, 0, 62, 69
2, 8187, Note_on_c, 0, 67, 79
2, 8188, Note_on_c, 0, 74, 79
2, 8192, Note_on_c, 1, 31, 0
2, 8192, Note_on_c, 9, 54, 75
2, 8193, Note_on_c, 9, 54, 0
2, 8207, Note_on_c, 0, 71, 0
2, 8217, Note_on_c, 0, 74, 0
2, 8217, Note_on_c, 0, 67, 0
2, 8217, Note_on_c, 1, 31, 110
2, 8218, Note_on_c, 0, 67, 82
2, 8218, Note_on_c, 0, 71, 76
2, 8218, Note_on_c, 0, 74, 79
2, 8218, Note_on_c, 4, 67, 86
2, 8222, Note_on_c, 9, 36, 86
2, 8222, Note_on_c, 9, 53, 86
2, 8222, Note_on_c, 9, 54, 72
2, 8223, Note_on_c, 9, 53, 0
2, 8223, Note_on_c, 9, 36, 0
2, 8223, Note_on_c, 9, 42, 66
2, 8223, Note_on_c, 9, 82, 53
2, 8224, Note_on_c, 9, 82, 0
2, 8224, Note_on_c, 9, 42, 0
2, 8224, Note_on_c, 9, 54, 0
2, 8232, Note_on_c, 4, 55, 0
2, 8242, Note_on_c, 0, 62, 0
2, 8242, Note_on_c, 0, 74, 0
2, 8242, Note_on_c, 0, 67, 0
2, 8247, Note_on_c, 0, 62, 72
2, 8247, Note_on_c, 0, 67, 79
2, 8247, Note_on_c, 0, 74, 79
2, 8252, Note_on_c, 9, 54, 72
2, 8252, Note_on_c, 9, 82, 75
2, 8253, Note_on_c, 9, 82, 0
2, 8253, Note_on_c, 9, 54, 0
2, 8253, Note_on_c, 1, 31, 0
2, 8272, Note_on_c, 0, 71, 0
2, 8277, Note_on_c, 0, 74, 0
2, 8277, Note_on_c, 0, 62, 0
2, 8277, Note_on_c, 1, 31, 106
2, 8278, Note_on_c, 0, 62, 82
2, 8278, Note_on_c, 0, 71, 96
2, 8278, Note_on_c, 0, 74, 96
2, 8278, Note_on_c, 4, 62, 76
2, 8282, Note_on_c, 9, 38, 114
2, 8282, Note_on_c, 9, 42, 123
2, 8283, Note_on_c, 9, 42, 0
2, 8283, Note_on_c, 9, 38, 0
2, 8283, Note_on_c, 9, 123, 99
2, 8283, Note_on_c, 9, 54, 85
2, 8284, Note_on_c, 9, 54, 0
2, 8284, Note_on_c, 9, 123, 0
2, 8307, Note_on_c, 4, 69, 90
2, 8312, Note_on_c, 9, 54, 69
2, 8313, Note_on_c, 9, 54, 0
2, 8327, Note_on_c, 4, 62, 0
2, 8332, Note_on_c, 0, 74, 0
2, 8337, Note_on_c, 0, 62, 0
2, 8337, Note_on_c, 0, 71, 0
2, 8337, Note_on_c, 0, 67, 0
2, 8342, Note_on_c, 9, 53, 82
2, 8342, Note_on_c, 9, 42, 51
2, 8343, Note_on_c, 9, 42, 0
2, 8343, Note_on_c, 9, 53, 0
2, 8343, Note_on_c, 1, 31, 0
2, 8343, Note_on_c, 9, 54, 58
2, 8343, Note_on_c, 9, 54, 0
2, 8343, Note_on_c, 9, 82, 58
2, 8344, Note_on_c, 9, 82, 0
2, 8357, Note_on_c, 4, 69, 0
2, 8362, Note_on_c, 4, 67, 0
2, 8367, Note_on_c, 1, 31, 110
2, 8367, Note_on_c, 0, 62, 76
2, 8368, Note_on_c, 0, 67, 79
2, 8368, Note_on_c, 0, 71, 74
2, 8368, Note_on_c, 0, 74, 89
2, 8368, Note_on_c, 4, 55, 90
2, 8372, Note_on_c, 9, 36, 114
2, 8372, Note_on_c, 9, 54, 53
2, 8372, Note_on_c, 9, 82, 56
2, 8373, Note_on_c, 9, 82, 0
2, 8373, Note_on_c, 9, 36, 0
2, 8373, Note_on_c, 9, 54, 0
2, 8387, Note_on_c, 0, 67, 0
2, 8392, Note_on_c, 0, 71, 0
2, 8392, Note_on_c, 0, 62, 0
2, 8397, Note_on_c, 1, 31, 0
2, 8397, Note_on_c, 0, 74, 0
2, 8398, Note_on_c, 4, 67, 76
2, 8402, Note_on_c, 9, 42, 123
2, 8402, Note_on_c, 9, 54, 75
2, 8403, Note_on_c, 9, 54, 0
2, 8403, Note_on_c, 9, 42, 0
2, 8427, Note_on_c, 1, 31, 79
2, 8427, Note_on_c, 0, 62, 62
2, 8428, Note_on_c, 0, 67, 59
2, 8428, Note_on_c, 0, 71, 64
2, 8428, Note_on_c, 0, 74, 82
2, 8428, Note_on_c, 4, 62, 51
2, 8432, Note_on_c, 9, 36, 45
2, 8432, Note_on_c, 9, 54, 58
2, 8433, Note_on_c, 9, 54, 0
2, 8433, Note_on_c, 9, 36, 0
2, 8442, Note_on_c, 1, 31, 0
2, 8457, Note_on_c, 0, 71, 0
2, 8457, Note_on_c, 0, 67, 0
2, 8457, Note_on_c, 0, 62, 0
2, 8458, Note_on_c, 1, 31, 110
2, 8458, Note_on_c, 0, 62, 74
2, 8458, Note_on_c, 0, 67, 76
2, 8458, Note_on_c, 0, 71, 76
2, 8462, Note_on_c, 9, 36, 123
2, 8462, Note_on_c, 9, 53, 86
2, 8463, Note_on_c, 9, 36, 0
2, 8463, Note_on_c, 9, 42, 49
2, 8463, Note_on_c, 9, 54, 51
2, 8463, Note_on_c, 9, 82, 63
2, 8464, Note_on_c, 9, 82, 0
2, 8464, Note_on_c, 9, 53, 0
2, 8464, Note_on_c, 9, 54, 0
2, 8464, Note_on_c, 9, 42, 0
2, 8482, Note_on_c, 0, 62, 0
2, 8482, Note_on_c, 0, 67, 0
2, 8487, Note_on_c, 0, 74, 0
2, 8487, Note_on_c, 0, 62, 79
2, 8487, Note_on_c, 0, 67, 82
2, 8487, Note_on_c, 0, 74, 79
2, 8488, Note_on_c, 4, 69, 82
2, 8492, Note_on_c, 9, 54, 56
2, 8492, Note_on_c, 9, 82, 51
2, 8493, Note_on_c, 9, 82, 0
2, 8493, Note_on_c, 9, 54, 0
2, 8493, Note_on_c, 1, 31, 0
2, 8497, Note_on_c, 4, 62, 0
2, 8512, Note_on_c, 0, 71, 0
2, 8517, Note_on_c, 0, 62, 0
2, 8517, Note_on_c, 0, 67, 0
2, 8518, Note_on_c, 0, 74, 0
2, 8518, Note_on_c, 1, 31, 110
2, 8518, Note_on_c, 0, 62, 91
2, 8518, Note_on_c, 0, 67, 91
2, 8518, Note_on_c, 0, 71, 86
2, 8518, Note_on_c, 0, 74, 82
2, 8522, Note_on_c, 9, 38, 114
2, 8522, Note_on_c, 9, 42, 123
2, 8523, Note_on_c, 9, 42, 0
2, 8523, Note_on_c, 9, 38, 0
2, 8523, Note_on_c, 9, 123, 91
2, 8523, Note_on_c, 9, 123, 0
2, 8523, Note_on_c, 9, 54, 85
2, 8523, Note_on_c, 9, 54, 0
2, 8547, Note_on_c, 4, 62, 64
2, 8552, Note_on_c, 4, 67, 0
2, 8552, Note_on_c, 9, 54, 28
2, 8553, Note_on_c, 9, 54, 0
2, 8562, Note_on_c, 1, 31, 0
2, 8572, Note_on_c, 0, 71, 0
2, 8572, Note_on_c, 0, 67, 0
2, 8573, Note_on_c, 0, 74, 0
2, 8577, Note_on_c, 0, 62, 0
2, 8577, Note_on_c, 1, 31, 79
2, 8578, Note_on_c, 4, 67, 79
2, 8582, Note_on_c, 9, 53, 82
2, 8582, Note_on_c, 9, 42, 41
2, 8582, Note_on_c, 9, 54, 51
2, 8583, Note_on_c, 9, 54, 0
2, 8583, Note_on_c, 9, 42, 0
2, 8583, Note_on_c, 9, 53, 0
2, 8583, Note_on_c, 9, 82, 58
2, 8584, Note_on_c, 9, 82, 0
2, 8587, Note_on_c, 4, 62, 0
2, 8592, Note_on_c, 1, 31, 0
2, 8602, Note_on_c, 4, 55, 0
2, 8607, Note_on_c, 1, 31, 86
2, 8607, Note_on_c, 4, 62, 67
2, 8612, Note_on_c, 9, 25, 72
2, 8612, Note_on_c, 9, 54, 49
2, 8613, Note_on_c, 9, 54, 0
2, 8613, Note_on_c, 9, 25, 0
2, 8613, Note_on_c, 9, 82, 58
2, 8613, Note_on_c, 9, 82, 0
2, 8627, Note_on_c, 1, 31, 0
2, 8627, Note_on_c, 4, 67, 0
2, 8632, Note_on_c, 4, 69, 0
2, 8632, Note_on_c, 4, 62, 0
2, 8637, Note_on_c, 1, 31, 110
2, 8638, Note_on_c, 0, 62, 72
2, 8638, Note_on_c, 0, 67, 69
2, 8638, Note_on_c, 0, 71, 72
2, 8638, Note_on_c, 0, 74, 72
2, 8638, Note_on_c, 4, 55, 90
2, 8642, Note_on_c, 9, 36, 110
2, 8642, Note_on_c, 9, 42, 123
2, 8642, Note_on_c, 9, 54, 91
2, 8643, Note_on_c, 9, 54, 0
2, 8643, Note_on_c, 9, 36, 0
2, 8643, Note_on_c, 9, 42, 0
2, 8662, Note_on_c, 0, 67, 0
2, 8662, Note_on_c, 0, 62, 0
2, 8663, Note_on_c, 0, 74, 0
2, 8667, Note_on_c, 1, 31, 0
2, 8667, Note_on_c, 0, 62, 69
2, 8668, Note_on_c, 0, 67, 79
2, 8668, Note_on_c, 0, 74, 79
2, 8672, Note_on_c, 9, 54, 49
2, 8673, Note_on_c, 9, 54, 0
2, 8692, Note_on_c, 0, 71, 0
2, 8697, Note_on_c, 0, 74, 0
2, 8697, Note_on_c, 0, 67, 0
2, 8697, Note_on_c, 1, 31, 106
2, 8697, Note_on_c, 0, 67, 82
2, 8698, Note_on_c, 0, 71, 76
2, 8698, Note_on_c, 0, 74, 79
2, 8698, Note_on_c, 4, 71, 90
2, 8702, Note_on_c, 9, 36, 114
2, 8702, Note_on_c, 9, 53, 79
2, 8703, Note_on_c, 9, 53, 0
2, 8703, Note_on_c, 9, 36, 0
2, 8703, Note_on_c, 9, 42, 61
2, 8703, Note_on_c, 9, 54, 53
2, 8703, Note_on_c, 9, 82, 56
2, 8704, Note_on_c, 9, 82, 0
2, 8704, Note_on_c, 9, 54, 0
2, 8704, Note_on_c, 9, 42, 0
2, 8722, Note_on_c, 0, 74, 0
2, 8722, Note_on_c, 0, 67, 0
2, 8722, Note_on_c, 0, 62, 0
2, 8727, Note_on_c, 1, 31, 0
2, 8727, Note_on_c, 0, 62, 72
2, 8728, Note_on_c, 0, 67, 79
2, 8728, Note_on_c, 0, 74, 79
2, 8732, Note_on_c, 9, 54, 53
2, 8732, Note_on_c, 9, 82, 58
2, 8733, Note_on_c, 9, 82, 0
2, 8733, Note_on_c, 9, 54, 0
2, 8752, Note_on_c, 0, 71, 0
2, 8757, Note_on_c, 0, 74, 0
2, 8757, Note_on_c, 0, 62, 0
2, 8758, Note_on_c, 1, 31, 110
2, 8758, Note_on_c, 0, 62, 82
2, 8758, Note_on_c, 0, 71, 96
2, 8758, Note_on_c, 0, 74, 96
2, 8758, Note_on_c, 4, 67, 76
2, 8762, Note_on_c, 9, 38, 114
2, 8762, Note_on_c, 9, 42, 127
2, 8762, Note_on_c, 9, 123, 99
2, 8763, Note_on_c, 9, 123, 0
2, 8763, Note_on_c, 9, 42, 0
2, 8763, Note_on_c, 9, 38, 0
2, 8763, Note_on_c, 9, 54, 106
2, 8763, Note_on_c, 9, 54, 0
2, 8787, Note_on_c, 4, 62, 90
2, 8792, Note_on_c, 9, 54, 58
2, 8793, Note_on_c, 9, 54, 0
2, 8817, Note_on_c, 0, 67, 0
2, 8817, Note_on_c, 0, 62, 0
2, 8818, Note_on_c, 0, 71, 0
2, 8818, Note_on_c, 0, 74, 0
2, 8822, Note_on_c, 9, 53, 76
2, 8822, Note_on_c, 9, 42, 56
2, 8822, Note_on_c, 9, 54, 51
2, 8823, Note_on_c, 9, 54, 0
2, 8823, Note_on_c, 9, 42, 0
2, 8823, Note_on_c, 9, 53, 0
2, 8823, Note_on_c, 9, 82, 53
2, 8823, Note_on_c, 9, 82, 0
2, 8827, Note_on_c, 4, 55, 0
2, 8827, Note_on_c, 1, 31, 0
2, 8837, Note_on_c, 4, 62, 0
2, 8847, Note_on_c, 4, 71, 0
2, 8847, Note_on_c, 1, 31, 106
2, 8848, Note_on_c, 0, 62, 76
2, 8848, Note_on_c, 0, 67, 79
2, 8848, Note_on_c, 0, 71, 74
2, 8848, Note_on_c, 0, 74, 89
2, 8848, Note_on_c, 4, 55, 86
2, 8852, Note_on_c, 4, 67, 0
2, 8852, Note_on_c, 9, 36, 114
2, 8852, Note_on_c, 9, 54, 49
2, 8852, Note_on_c, 9, 82, 56
2, 8853, Note_on_c, 9, 82, 0
2, 8853, Note_on_c, 9, 36, 0
2, 8853, Note_on_c, 9, 54, 0
2, 8867, Note_on_c, 0, 71, 0
2, 8867, Note_on_c, 0, 67, 0
2, 8872, Note_on_c, 0, 62, 0
2, 8877, Note_on_c, 0, 74, 0
2, 8877, Note_on_c, 4, 71, 82
2, 8882, Note_on_c, 9, 42, 127
2, 8882, Note_on_c, 9, 54, 99
2, 8883, Note_on_c, 9, 54, 0
2, 8883, Note_on_c, 9, 42, 0
2, 8883, Note_on_c, 1, 31, 0
2, 8907, Note_on_c, 1, 31, 102
2, 8907, Note_on_c, 0, 62, 62
2, 8907, Note_on_c, 0, 67, 59
2, 8908, Note_on_c, 0, 71, 64
2, 8908, Note_on_c, 0, 74, 82
2, 8912, Note_on_c, 9, 36, 35
2, 8912, Note_on_c, 9, 54, 45
2, 8913, Note_on_c, 9, 54, 0
2, 8913, Note_on_c, 9, 36, 0
2, 8927, Note_on_c, 1, 31, 0
2, 8932, Note_on_c, 0, 67, 0
2, 8932, Note_on_c, 0, 71, 0
2, 8932, Note_on_c, 0, 62, 0
2, 8937, Note_on_c, 1, 31, 106
2, 8938, Note_on_c, 0, 62, 74
2, 8938, Note_on_c, 0, 67, 76
2, 8938, Note_on_c, 0, 71, 76
2, 8938, Note_on_c, 4, 67, 74
2, 8942, Note_on_c, 9, 36, 127
2, 8942, Note_on_c, 9, 53, 82
2, 8942, Note_on_c, 9, 42, 51
2, 8943, Note_on_c, 9, 53, 0
2, 8943, Note_on_c, 9, 36, 0
2, 8943, Note_on_c, 9, 54, 45
2, 8943, Note_on_c, 9, 82, 56
2, 8944, Note_on_c, 9, 82, 0
2, 8944, Note_on_c, 9, 54, 0
2, 8944, Note_on_c, 9, 42, 0
2, 8967, Note_on_c, 0, 62, 0
2, 8967, Note_on_c, 0, 74, 0
2, 8967, Note_on_c, 0, 67, 0
2, 8968, Note_on_c, 0, 62, 79
2, 8968, Note_on_c, 0, 67, 82
2, 8968, Note_on_c, 0, 74, 79
2, 8968, Note_on_c, 4, 62, 82
2, 8972, Note_on_c, 1, 31, 0
2, 8972, Note_on_c, 9, 54, 53
2, 8972, Note_on_c, 9, 82, 58
2, 8973, Note_on_c, 9, 82, 0
2, 8973, Note_on_c, 9, 54, 0
2, 8992, Note_on_c, 0, 67, 0
2, 8992, Note_on_c, 0, 74, 0
2, 8997, Note_on_c, 0, 71, 0
2, 8997, Note_on_c, 0, 62, 0
2, 8998, Note_on_c, 1, 31, 114
2, 8998, Note_on_c, 0, 62, 91
2, 8998, Note_on_c, 0, 67, 91
2, 8998, Note_on_c, 0, 71, 86
2, 8998, Note_on_c, 0, 74, 82
2, 9002, Note_on_c, 9, 38, 114
2, 9002, Note_on_c, 9, 42, 123
2, 9002, Note_on_c, 9, 123, 85
2, 9003, Note_on_c, 9, 123, 0
2, 9003, Note_on_c, 9, 42, 0
2, 9003, Note_on_c, 9, 38, 0
2, 9003, Note_on_c, 9, 54, 99
2, 9003, Note_on_c, 9, 54, 0
2, 9007, Note_on_c, 4, 67, 0
2, 9027, Note_on_c, 4, 67, 67
2, 9032, Note_on_c, 4, 71, 0
2, 9032, Note_on_c, 9, 54, 56
2, 9033, Note_on_c, 9, 54, 0
2, 9037, Note_on_c, 1, 31, 0
2, 9042, Note_on_c, 4, 62, 0
2, 9052, Note_on_c, 0, 67, 0
2, 9052, Note_on_c, 0, 71, 0
2, 9052, Note_on_c, 0, 74, 0
2, 9057, Note_on_c, 0, 62, 0
2, 9057, Note_on_c, 1, 31, 79
2, 9058, Note_on_c, 4, 71, 86
2, 9062, Note_on_c, 4, 67, 0
2, 9062, Note_on_c, 9, 53, 86
2, 9062, Note_on_c, 9, 42, 75
2, 9063, Note_on_c, 9, 53, 0
2, 9063, Note_on_c, 9, 54, 38
2, 9063, Note_on_c, 9, 82, 49
2, 9064, Note_on_c, 9, 82, 0
2, 9064, Note_on_c, 9, 54, 0
2, 9064, Note_on_c, 9, 42, 0
2, 9072, Note_on_c, 1, 31, 0
2, 9087, Note_on_c, 1, 31, 106
2, 9087, Note_on_c, 4, 67, 76
2, 9092, Note_on_c, 9, 54, 45
2, 9092, Note_on_c, 9, 82, 56
2, 9093, Note_on_c, 9, 82, 0
2, 9093, Note_on_c, 9, 54, 0
2, 9097, Note_on_c, 4, 55, 0
2, 9112, Note_on_c, 4, 71, 0
2, 9112, Control_c, 1, 84, 31
2, 9112, Note_on_c, 1, 33, 106
2, 9113, Note_on_c, 1, 31, 0
2, 9114, Note_on_c, 4, 67, 0
2, 9114, Control_c, 4, 84, 67
2, 9114, Note_on_c, 4, 45, 86
2, 9114, Control_c, 6, 84, 62
2, 9114, Note_on_c, 6, 57, 64
2, 9115, Note_on_c, 6, 62, 0
2, 9115, Note_on_c, 6, 67, 0
2, 9115, Control_c, 6, 84, 67
2, 9115, Note_on_c, 6, 52, 57
2, 9115, Control_c, 6, 84, 71
2, 9115, Note_on_c, 6, 60, 61
2, 9116, Note_on_c, 6, 52, 0
2, 9116, Note_on_c, 6, 71, 0
2, 9116, Note_on_c, 6, 57, 0
2, 9117, Note_on_c, 1, 33, 0
2, 9117, Note_on_c, 4, 45, 0
2, 9117, Note_on_c, 6, 60, 0
2, 9118, Note_on_c, 1, 33, 106
2, 9118, Note_on_c, 0, 60, 72
2, 9118, Note_on_c, 0, 48, 72
2, 9118, Note_on_c, 0, 52, 72
2, 9118, Note_on_c, 0, 57, 69
2, 9119, Note_on_c, 4, 45, 86
2, 9119, Note_on_c, 6, 60, 61
2, 9119, Note_on_c, 6, 52, 57
2, 9119, Note_on_c, 6, 57, 64
2, 9122, Note_on_c, 9, 36, 127
2, 9122, Note_on_c, 9, 42, 127
2, 9122, Note_on_c, 9, 54, 85
2, 9123, Note_on_c, 9, 42, 0
2, 9123, Note_on_c, 9, 36, 0
2, 9124, Note_on_c, 9, 54, 0
2, 9137, Note_on_c, 0, 57, 0
2, 9137, Note_on_c, 0, 60, 0
2, 9137, Note_on_c, 0, 52, 0
2, 9147, Note_on_c, 0, 60, 79
2, 9147, Note_on_c, 0, 52, 69
2, 9148, Note_on_c, 0, 57, 79
2, 9152, Note_on_c, 1, 33, 0
2, 9152, Note_on_c, 9, 54, 75
2, 9153, Note_on_c, 9, 54, 0
2, 9167, Note_on_c, 0, 48, 0
2, 9172, Note_on_c, 0, 57, 0
2, 9172, Note_on_c, 0, 60, 0
2, 9177, Note_on_c, 1, 33, 110
2, 9177, Note_on_c, 0, 60, 79
2, 9178, Note_on_c, 0, 48, 76
2, 9178, Note_on_c, 0, 57, 82
2, 9178, Note_on_c, 4, 60, 90
2, 9182, Note_on_c, 9, 36, 86
2, 9182, Note_on_c, 9, 53, 86
2, 9182, Note_on_c, 9, 54, 72
2, 9183, Note_on_c, 9, 54, 0
2, 9183, Note_on_c, 9, 53, 0
2, 9183, Note_on_c, 9, 36, 0
2, 9183, Note_on_c, 9, 42, 66
2, 9183, Note_on_c, 9, 42, 0
2, 9183, Note_on_c, 9, 82, 53
2, 9184, Note_on_c, 9, 82, 0
2, 9202, Note_on_c, 0, 52, 0
2, 9207, Note_on_c, 0, 57, 0
2, 9207, Note_on_c, 0, 60, 0
2, 9207, Note_on_c, 0, 60, 79
2, 9207, Note_on_c, 0, 52, 72
2, 9208, Note_on_c, 0, 57, 79
2, 9212, Note_on_c, 1, 33, 0
2, 9212, Note_on_c, 9, 54, 72
2, 9212, Note_on_c, 9, 82, 75
2, 9213, Note_on_c, 9, 82, 0
2, 9213, Note_on_c, 9, 54, 0
2, 9232, Note_on_c, 0, 60, 0
2, 9232, Note_on_c, 0, 48, 0
2, 9232, Note_on_c, 0, 52, 0
2, 9237, Note_on_c, 1, 33, 106
2, 9237, Note_on_c, 0, 60, 96
2, 9238, Note_on_c, 0, 48, 96
2, 9238, Note_on_c, 0, 52, 82
2, 9238, Note_on_c, 4, 57, 69
2, 9242, Note_on_c, 9, 38, 114
2, 9242, Note_on_c, 9, 42, 123
2, 9242, Note_on_c, 9, 123, 99
2, 9243, Note_on_c, 9, 123, 0
2, 9243, Note_on_c, 9, 42, 0
2, 9243, Note_on_c, 9, 38, 0
2, 9243, Note_on_c, 9, 54, 85
2, 9243, Note_on_c, 9, 54, 0
2, 9267, Note_on_c, 4, 64, 86
2, 9272, Note_on_c, 9, 54, 69
2, 9273, Note_on_c, 9, 54, 0
2, 9277, Note_on_c, 4, 45, 0
2, 9292, Note_on_c, 0, 57, 0
2, 9297, Note_on_c, 0, 48, 0
2, 9297, Note_on_c, 0, 60, 0
2, 9297, Note_on_c, 0, 52, 0
2, 9302, Note_on_c, 9, 53, 82
2, 9302, Note_on_c, 9, 42, 51
2, 9302, Note_on_c, 9, 54, 58
2, 9303, Note_on_c, 9, 54, 0
2, 9303, Note_on_c, 9, 42, 0
2, 9303, Note_on_c, 1, 33, 0
2, 9303, Note_on_c, 9, 53, 0
2, 9303, Note_on_c, 9, 82, 58
2, 9304, Note_on_c, 9, 82, 0
2, 9307, Note_on_c, 4, 64, 0
2, 9322, Note_on_c, 4, 60, 0
2, 9327, Note_on_c, 4, 57, 0
2, 9327, Note_on_c, 1, 33, 110
2, 9327, Note_on_c, 0, 60, 89
2, 9328, Note_on_c, 0, 48, 74
2, 9328, Note_on_c, 0, 52, 76
2, 9328, Note_on_c, 0, 57, 79
2, 9328, Note_on_c, 4, 45, 86
2, 9332, Note_on_c, 9, 36, 114
2, 9332, Note_on_c, 9, 54, 53
2, 9333, Note_on_c, 9, 54, 0
2, 9333, Note_on_c, 9, 36, 0
2, 9333, Note_on_c, 9, 82, 56
2, 9333, Note_on_c, 9, 82, 0
2, 9347, Note_on_c, 0, 52, 0
2, 9347, Note_on_c, 0, 57, 0
2, 9347, Note_on_c, 0, 48, 0
2, 9352, Note_on_c, 0, 60, 0
2, 9357, Note_on_c, 1, 33, 0
2, 9357, Note_on_c, 4, 60, 80
2, 9362, Note_on_c, 9, 42, 123
2, 9362, Note_on_c, 9, 54, 75
2, 9363, Note_on_c, 9, 54, 0
2, 9363, Note_on_c, 9, 42, 0
2, 9387, Note_on_c, 1, 33, 79
2, 9387, Note_on_c, 0, 60, 82
2, 9388, Note_on_c, 0, 48, 64
2, 9388, Note_on_c, 0, 52, 62
2, 9388, Note_on_c, 0, 57, 59
2, 9392, Note_on_c, 9, 36, 45
2, 9392, Note_on_c, 9, 54, 58
2, 9393, Note_on_c, 9, 54, 0
2, 9393, Note_on_c, 9, 36, 0
2, 9402, Note_on_c, 1, 33, 0
2, 9412, Note_on_c, 0, 52, 0
2, 9412, Note_on_c, 0, 48, 0
2, 9412, Note_on_c, 0, 57, 0
2, 9417, Note_on_c, 1, 33, 110
2, 9417, Note_on_c, 0, 48, 76
2, 9418, Note_on_c, 0, 52, 74
2, 9418, Note_on_c, 0, 57, 76
2, 9418, Note_on_c, 4, 57, 74
2, 9422, Note_on_c, 9, 36, 123
2, 9422, Note_on_c, 9, 53, 86
2, 9422, Note_on_c, 9, 42, 49
2, 9423, Note_on_c, 9, 42, 0
2, 9423, Note_on_c, 9, 53, 0
2, 9423, Note_on_c, 9, 36, 0
2, 9423, Note_on_c, 9, 54, 51
2, 9423, Note_on_c, 9, 54, 0
2, 9423, Note_on_c, 9, 82, 63
2, 9423, Note_on_c, 9, 82, 0
2, 9447, Note_on_c, 0, 57, 0
2, 9447, Note_on_c, 0, 60, 0
2, 9447, Note_on_c, 0, 52, 0
2, 9448, Note_on_c, 0, 60, 79
2, 9448, Note_on_c, 0, 52, 79
2, 9448, Note_on_c, 0, 57, 82
2, 9448, Note_on_c, 4, 64, 86
2, 9452, Note_on_c, 1, 33, 0
2, 9452, Note_on_c, 9, 54, 56
2, 9452, Note_on_c, 9, 82, 51
2, 9453, Note_on_c, 9, 82, 0
2, 9453, Note_on_c, 9, 54, 0
2, 9472, Note_on_c, 0, 52, 0
2, 9472, Note_on_c, 0, 60, 0
2, 9472, Note_on_c, 0, 57, 0
2, 9477, Note_on_c, 0, 48, 0
2, 9477, Note_on_c, 1, 33, 110
2, 9477, Note_on_c, 0, 60, 82
2, 9478, Note_on_c, 0, 48, 86
2, 9478, Note_on_c, 0, 52, 91
2, 9478, Note_on_c, 0, 57, 91
2, 9482, Note_on_c, 9, 38, 114
2, 9482, Note_on_c, 9, 42, 123
2, 9482, Note_on_c, 9, 123, 91
2, 9482, Note_on_c, 9, 54, 85
2, 9483, Note_on_c, 9, 123, 0
2, 9483, Note_on_c, 9, 42, 0
2, 9483, Note_on_c, 9, 38, 0
2, 9483, Note_on_c, 4, 57, 0
2, 9484, Note_on_c, 9, 54, 0
2, 9507, Note_on_c, 4, 57, 64
2, 9512, Note_on_c, 9, 54, 28
2, 9513, Note_on_c, 9, 54, 0
2, 9522, Note_on_c, 1, 33, 0
2, 9527, Note_on_c, 4, 60, 0
2, 9532, Note_on_c, 0, 52, 0
2, 9532, Note_on_c, 0, 57, 0
2, 9537, Note_on_c, 0, 60, 0
2, 9537, Note_on_c, 0, 48, 0
2, 9537, Note_on_c, 1, 33, 79
2, 9537, Note_on_c, 4, 60, 80
2, 9542, Note_on_c, 4, 57, 0
2, 9542, Note_on_c, 9, 53, 82
2, 9543, Note_on_c, 9, 53, 0
2, 9543, Note_on_c, 9, 42, 41
2, 9543, Note_on_c, 9, 42, 0
2, 9543, Note_on_c, 9, 54, 51
2, 9543, Note_on_c, 9, 54, 0
2, 9543, Note_on_c, 9, 82, 58
2, 9544, Note_on_c, 9, 82, 0
2, 9552, Note_on_c, 1, 33, 0
2, 9567, Note_on_c, 1, 33, 86
2, 9567, Note_on_c, 4, 57, 86
2, 9572, Note_on_c, 9, 25, 72
2, 9572, Note_on_c, 9, 54, 49
2, 9572, Note_on_c, 9, 82, 58
2, 9573, Note_on_c, 9, 82, 0
2, 9573, Note_on_c, 4, 45, 0
2, 9573, Note_on_c, 9, 54, 0
2, 9573, Note_on_c, 9, 25, 0
2, 9587, Note_on_c, 1, 33, 0
2, 9597, Note_on_c, 1, 33, 110
2, 9597, Note_on_c, 0, 60, 72
2, 9598, Note_on_c, 0, 48, 72
2, 9598, Note_on_c, 0, 52, 72
2, 9598, Note_on_c, 0, 57, 69
2, 9598, Note_on_c, 4, 45, 90
2, 9602, Note_on_c, 9, 36, 110
2, 9602, Note_on_c, 9, 42, 123
2, 9602, Note_on_c, 9, 54, 91
2, 9603, Note_on_c, 9, 54, 0
2, 9603, Note_on_c, 4, 60, 0
2, 9603, Note_on_c, 4, 57, 0
2, 9603, Note_on_c, 4, 64, 0
2, 9603, Note_on_c, 9, 42, 0
2, 9603, Note_on_c, 9, 36, 0
2, 9627, Note_on_c, 0, 60, 0
2, 9627, Note_on_c, 0, 52, 0
2, 9627, Note_on_c, 1, 33, 0
2, 9628, Note_on_c, 0, 57, 0
2, 9628, Note_on_c, 0, 60, 79
2, 9628, Note_on_c, 0, 52, 69
2, 9628, Note_on_c, 0, 57, 79
2, 9632, Note_on_c, 9, 54, 49
2, 9633, Note_on_c, 9, 54, 0
2, 9652, Note_on_c, 0, 57, 0
2, 9652, Note_on_c, 0, 60, 0
2, 9657, Note_on_c, 0, 48, 0
2, 9657, Note_on_c, 1, 33, 106
2, 9657, Note_on_c, 0, 60, 79
2, 9658, Note_on_c, 0, 48, 76
2, 9658, Note_on_c, 0, 57, 82
2, 9658, Note_on_c, 4, 60, 90
2, 9662, Note_on_c, 9, 36, 114
2, 9662, Note_on_c, 9, 53, 79
2, 9662, Note_on_c, 9, 42, 61
2, 9663, Note_on_c, 9, 42, 0
2, 9663, Note_on_c, 9, 53, 0
2, 9663, Note_on_c, 9, 36, 0
2, 9663, Note_on_c, 9, 54, 53
2, 9663, Note_on_c, 9, 54, 0
2, 9663, Note_on_c, 9, 82, 56
2, 9663, Note_on_c, 9, 82, 0
2, 9682, Note_on_c, 0, 57, 0
2, 9682, Note_on_c, 0, 60, 0
2, 9682, Note_on_c, 0, 52, 0
2, 9687, Note_on_c, 1, 33, 0
2, 9687, Note_on_c, 0, 60, 79
2, 9687, Note_on_c, 0, 52, 72
2, 9688, Note_on_c, 0, 57, 79
2, 9692, Note_on_c, 9, 54, 53
2, 9692, Note_on_c, 9, 82, 58
2, 9693, Note_on_c, 9, 82, 0
2, 9693, Note_on_c, 9, 54, 0
2, 9717, Note_on_c, 0, 60, 0
2, 9717, Note_on_c, 0, 52, 0
2, 9717, Note_on_c, 0, 48, 0
2, 9717, Note_on_c, 1, 33, 110
2, 9718, Note_on_c, 0, 60, 96
2, 9718, Note_on_c, 0, 48, 96
2, 9718, Note_on_c, 0, 52, 82
2, 9718, Note_on_c, 4, 57, 74
2, 9722, Note_on_c, 9, 38, 114
2, 9722, Note_on_c, 9, 42, 127
2, 9723, Note_on_c, 9, 42, 0
2, 9723, Note_on_c, 9, 38, 0
2, 9723, Note_on_c, 9, 123, 99
2, 9723, Note_on_c, 9, 123, 0
2, 9723, Note_on_c, 9, 54, 106
2, 9723, Note_on_c, 9, 54, 0
2, 9747, Note_on_c, 4, 64, 82
2, 9752, Note_on_c, 9, 54, 58
2, 9753, Note_on_c, 9, 54, 0
2, 9767, Note_on_c, 4, 45, 0
2, 9767, Note_on_c, 4, 57, 0
2, 9777, Note_on_c, 0, 57, 0
2, 9777, Note_on_c, 0, 60, 0
2, 9777, Note_on_c, 4, 64, 0
2, 9778, Note_on_c, 0, 48, 0
2, 9778, Note_on_c, 0, 52, 0
2, 9778, Note_on_c, 4, 57, 67
2, 9782, Note_on_c, 9, 53, 76
2, 9782, Note_on_c, 9, 42, 56
2, 9783, Note_on_c, 9, 42, 0
2, 9783, Note_on_c, 9, 53, 0
2, 9783, Note_on_c, 9, 54, 51
2, 9783, Note_on_c, 9, 54, 0
2, 9783, Note_on_c, 9, 82, 53
2, 9783, Note_on_c, 9, 82, 0
2, 9787, Note_on_c, 1, 33, 0
2, 9792, Note_on_c, 4, 60, 0
2, 9792, Note_on_c, 4, 57, 0
2, 9807, Note_on_c, 1, 33, 106
2, 9807, Note_on_c, 0, 60, 89
2, 9808, Note_on_c, 0, 48, 74
2, 9808, Note_on_c, 0, 52, 76
2, 9808, Note_on_c, 0, 57, 79
2, 9808, Note_on_c, 4, 45, 86
2, 9812, Note_on_c, 9, 36, 114
2, 9812, Note_on_c, 9, 54, 49
2, 9812, Note_on_c, 9, 82, 56
2, 9813, Note_on_c, 9, 82, 0
2, 9813, Note_on_c, 9, 36, 0
2, 9813, Note_on_c, 9, 54, 0
2, 9827, Note_on_c, 0, 57, 0
2, 9832, Note_on_c, 0, 52, 0
2, 9832, Note_on_c, 0, 48, 0
2, 9837, Note_on_c, 0, 60, 0
2, 9837, Note_on_c, 4, 60, 90
2, 9842, Note_on_c, 1, 33, 0
2, 9842, Note_on_c, 9, 42, 127
2, 9842, Note_on_c, 9, 54, 99
2, 9843, Note_on_c, 9, 54, 0
2, 9843, Note_on_c, 9, 42, 0
2, 9867, Note_on_c, 1, 33, 102
2, 9867, Note_on_c, 0, 60, 82
2, 9867, Note_on_c, 0, 48, 64
2, 9868, Note_on_c, 0, 52, 62
2, 9868, Note_on_c, 0, 57, 59
2, 9872, Note_on_c, 9, 36, 35
2, 9872, Note_on_c, 9, 54, 45
2, 9873, Note_on_c, 9, 54, 0
2, 9873, Note_on_c, 9, 36, 0
2, 9887, Note_on_c, 1, 33, 0
2, 9897, Note_on_c, 0, 52, 0
2, 9897, Note_on_c, 0, 48, 0
2, 9897, Note_on_c, 0, 57, 0
2, 9897, Note_on_c, 1, 33, 106
2, 9898, Note_on_c, 0, 48, 76
2, 9898, Note_on_c, 0, 52, 74
2, 9898, Note_on_c, 0, 57, 76
2, 9898, Note_on_c, 4, 57, 74
2, 9902, Note_on_c, 9, 36, 127
2, 9902, Note_on_c, 9, 53, 82
2, 9902, Note_on_c, 9, 42, 51
2, 9902, Note_on_c, 9, 54, 45
2, 9903, Note_on_c, 9, 42, 0
2, 9903, Note_on_c, 9, 53, 0
2, 9903, Note_on_c, 9, 36, 0
2, 9903, Note_on_c, 9, 82, 56
2, 9904, Note_on_c, 9, 82, 0
2, 9904, Note_on_c, 9, 54, 0
2, 9922, Note_on_c, 0, 52, 0
2, 9922, Note_on_c, 0, 57, 0
2, 9927, Note_on_c, 0, 60, 0
2, 9927, Note_on_c, 0, 60, 79
2, 9927, Note_on_c, 0, 52, 79
2, 9928, Note_on_c, 0, 57, 82
2, 9928, Note_on_c, 4, 64, 82
2, 9932, Note_on_c, 1, 33, 0
2, 9932, Note_on_c, 9, 54, 53
2, 9932, Note_on_c, 9, 82, 58
2, 9933, Note_on_c, 9, 82, 0
2, 9933, Note_on_c, 9, 54, 0
2, 9957, Note_on_c, 0, 48, 0
2, 9957, Note_on_c, 0, 52, 0
2, 9957, Note_on_c, 0, 60, 0
2, 9957, Note_on_c, 0, 57, 0
2, 9958, Note_on_c, 1, 33, 114
2, 9958, Note_on_c, 0, 60, 82
2, 9958, Note_on_c, 0, 48, 86
2, 9958, Note_on_c, 0, 52, 91
2, 9958, Note_on_c, 0, 57, 91
2, 9962, Note_on_c, 9, 38, 114
2, 9962, Note_on_c, 9, 42, 123
2, 9962, Note_on_c, 9, 123, 85
2, 9963, Note_on_c, 9, 123, 0
2, 9963, Note_on_c, 4, 57, 0
2, 9963, Note_on_c, 9, 42, 0
2, 9963, Note_on_c, 9, 38, 0
2, 9963, Note_on_c, 9, 54, 99
2, 9963, Note_on_c, 9, 54, 0
2, 9987, Note_on_c, 4, 57, 69
2, 9992, Note_on_c, 9, 54, 56
2, 9993, Note_on_c, 9, 54, 0
2, 9997, Note_on_c, 1, 33, 0
2, 9997, Note_on_c, 4, 60, 0
2, 10012, Note_on_c, 0, 52, 0
2, 10012, Note_on_c, 0, 48, 0
2, 10012, Note_on_c, 0, 57, 0
2, 10017, Note_on_c, 0, 60, 0
2, 10017, Note_on_c, 4, 57, 0
2, 10017, Note_on_c, 1, 33, 79
2, 10018, Note_on_c, 4, 60, 85
2, 10022, Note_on_c, 9, 53, 86
2, 10022, Note_on_c, 9, 42, 75
2, 10022, Note_on_c, 9, 54, 38
2, 10022, Note_on_c, 9, 82, 49
2, 10023, Note_on_c, 9, 82, 0
2, 10023, Note_on_c, 9, 53, 0
2, 10023, Note_on_c, 9, 54, 0
2, 10023, Note_on_c, 9, 42, 0
2, 10032, Note_on_c, 1, 33, 0
2, 10047, Note_on_c, 1, 33, 106
2, 10047, Note_on_c, 4, 57, 90
2, 10052, Note_on_c, 9, 54, 45
2, 10052, Note_on_c, 9, 82, 56
2, 10053, Note_on_c, 9, 82, 0
2, 10053, Note_on_c, 9, 54, 0
2, 10067, Note_on_c, 4, 64, 0
2, 10067, Note_on_c, 4, 57, 0
2, 10072, Note_on_c, 6, 57, 0
2, 10072, Note_on_c, 6, 52, 0
2, 10072, Note_on_c, 4, 60, 0
2, 10077, Note_on_c, 4, 45, 0
2, 10077, Note_on_c, 1, 33, 0
2, 10077, Note_on_c, 6, 60, 0
2, 10078, Note_on_c, 1, 31, 106
2, 10078, Note_on_c, 0, 62, 72
2, 10078, Note_on_c, 0, 67, 69
2, 10078, Note_on_c, 0, 71, 72
2, 10078, Note_on_c, 0, 74, 72
2, 10079, Note_on_c, 4, 55, 86
2, 10079, Note_on_c, 6, 62, 59
2, 10079, Note_on_c, 6, 67, 55
2, 10079, Note_on_c, 6, 71, 51
2, 10082, Note_on_c, 9, 36, 127
2, 10082, Note_on_c, 9, 42, 127
2, 10082, Note_on_c, 9, 54, 85
2, 10083, Note_on_c, 9, 54, 0
2, 10083, Note_on_c, 9, 36, 0
2, 10083, Note_on_c, 9, 42, 0
2, 10092, Note_on_c, 0, 74, 0
2, 10092, Note_on_c, 0, 67, 0
2, 10097, Note_on_c, 0, 62, 0
2, 10107, Note_on_c, 0, 62, 69
2, 10107, Note_on_c, 0, 67, 79
2, 10107, Note_on_c, 0, 74, 79
2, 10112, Note_on_c, 1, 31, 0
2, 10112, Note_on_c, 9, 54, 75
2, 10113, Note_on_c, 9, 54, 0
2, 10127, Note_on_c, 0, 71, 0
2, 10137, Note_on_c, 0, 74, 0
2, 10137, Note_on_c, 0, 67, 0
2, 10137, Note_on_c, 1, 31, 110
2, 10137, Note_on_c, 0, 67, 82
2, 10138, Note_on_c, 0, 71, 76
2, 10138, Note_on_c, 0, 74, 79
2, 10138, Note_on_c, 4, 67, 86
2, 10142, Note_on_c, 9, 36, 86
2, 10142, Note_on_c, 9, 53, 86
2, 10142, Note_on_c, 9, 54, 72
2, 10143, Note_on_c, 9, 53, 0
2, 10143, Note_on_c, 9, 36, 0
2, 10143, Note_on_c, 9, 42, 66
2, 10143, Note_on_c, 9, 82, 53
2, 10144, Note_on_c, 9, 82, 0
2, 10144, Note_on_c, 9, 42, 0
2, 10144, Note_on_c, 9, 54, 0
2, 10152, Note_on_c, 4, 55, 0
2, 10162, Note_on_c, 0, 62, 0
2, 10162, Note_on_c, 0, 74, 0
2, 10162, Note_on_c, 0, 67, 0
2, 10167, Note_on_c, 0, 62, 72
2, 10167, Note_on_c, 0, 67, 79
2, 10167, Note_on_c, 0, 74, 79
2, 10172, Note_on_c, 1, 31, 0
2, 10172, Note_on_c, 9, 54, 72
2, 10172, Note_on_c, 9, 82, 75
2, 10173, Note_on_c, 9, 82, 0
2, 10173, Note_on_c, 9, 54, 0
2, 10192, Note_on_c, 0, 71, 0
2, 10197, Note_on_c, 0, 74, 0
2, 10197, Note_on_c, 0, 62, 0
2, 10197, Note_on_c, 1, 31, 106
2, 10198, Note_on_c, 0, 62, 82
2, 10198, Note_on_c, 0, 71, 96
2, 10198, Note_on_c, 0, 74, 96
2, 10198, Note_on_c, 4, 62, 76
2, 10202, Note_on_c, 9, 38, 114
2, 10202, Note_on_c, 9, 42, 123
2, 10202, Note_on_c, 9, 123, 99
2, 10202, Note_on_c, 9, 54, 85
2, 10203, Note_on_c, 9, 54, 0
2, 10203, Note_on_c, 9, 123, 0
2, 10203, Note_on_c, 9, 38, 0
2, 10203, Note_on_c, 9, 42, 0
2, 10227, Note_on_c, 4, 69, 90
2, 10232, Note_on_c, 9, 54, 69
2, 10233, Note_on_c, 9, 54, 0
2, 10247, Note_on_c, 4, 62, 0
2, 10252, Note_on_c, 0, 74, 0
2, 10257, Note_on_c, 0, 62, 0
2, 10257, Note_on_c, 0, 71, 0
2, 10257, Note_on_c, 0, 67, 0
2, 10262, Note_on_c, 9, 53, 82
2, 10262, Note_on_c, 9, 42, 51
2, 10262, Note_on_c, 9, 54, 58
2, 10262, Note_on_c, 9, 82, 58
2, 10263, Note_on_c, 9, 82, 0
2, 10263, Note_on_c, 9, 54, 0
2, 10263, Note_on_c, 9, 53, 0
2, 10263, Note_on_c, 9, 42, 0
2, 10263, Note_on_c, 1, 31, 0
2, 10277, Note_on_c, 4, 69, 0
2, 10282, Note_on_c, 4, 67, 0
2, 10287, Note_on_c, 1, 31, 110
2, 10287, Note_on_c, 0, 62, 76
2, 10287, Note_on_c, 0, 67, 79
2, 10288, Note_on_c, 0, 71, 74
2, 10288, Note_on_c, 0, 74, 89
2, 10288, Note_on_c, 4, 55, 90
2, 10292, Note_on_c, 9, 36, 114
2, 10292, Note_on_c, 9, 54, 53
2, 10292, Note_on_c, 9, 82, 56
2, 10293, Note_on_c, 9, 82, 0
2, 10293, Note_on_c, 9, 36, 0
2, 10293, Note_on_c, 9, 54, 0
2, 10307, Note_on_c, 0, 67, 0
2, 10312, Note_on_c, 0, 71, 0
2, 10312, Note_on_c, 0, 62, 0
2, 10317, Note_on_c, 1, 31, 0
2, 10317, Note_on_c, 0, 74, 0
2, 10317, Note_on_c, 4, 67, 76
2, 10322, Note_on_c, 9, 42, 123
2, 10322, Note_on_c, 9, 54, 75
2, 10323, Note_on_c, 9, 54, 0
2, 10323, Note_on_c, 9, 42, 0
2, 10347, Note_on_c, 1, 31, 79
2, 10347, Note_on_c, 0, 62, 62
2, 10347, Note_on_c, 0, 67, 59
2, 10347, Note_on_c, 0, 71, 64
2, 10348, Note_on_c, 0, 74, 82
2, 10348, Note_on_c, 4, 62, 51
2, 10352, Note_on_c, 9, 36, 45
2, 10352, Note_on_c, 9, 54, 58
2, 10353, Note_on_c, 9, 54, 0
2, 10353, Note_on_c, 9, 36, 0
2, 10362, Note_on_c, 1, 31, 0
2, 10377, Note_on_c, 0, 71, 0
2, 10377, Note_on_c, 0, 67, 0
2, 10377, Note_on_c, 0, 62, 0
2, 10377, Note_on_c, 1, 31, 110
2, 10378, Note_on_c, 0, 62, 74
2, 10378, Note_on_c, 0, 67, 76
2, 10378, Note_on_c, 0, 71, 76
2, 10382, Note_on_c, 9, 36, 123
2, 10382, Note_on_c, 9, 53, 86
2, 10382, Note_on_c, 9, 42, 49
2, 10382, Note_on_c, 9, 54, 51
2, 10383, Note_on_c, 9, 53, 0
2, 10383, Note_on_c, 9, 36, 0
2, 10383, Note_on_c, 9, 82, 63
2, 10384, Note_on_c, 9, 82, 0
2, 10384, Note_on_c, 9, 42, 0
2, 10384, Note_on_c, 9, 54, 0
2, 10402, Note_on_c, 0, 62, 0
2, 10402, Note_on_c, 0, 67, 0
2, 10407, Note_on_c, 0, 74, 0
2, 10407, Note_on_c, 0, 62, 79
2, 10407, Note_on_c, 0, 67, 82
2, 10408, Note_on_c, 0, 74, 79
2, 10408, Note_on_c, 4, 69, 82
2, 10412, Note_on_c, 1, 31, 0
2, 10412, Note_on_c, 9, 54, 56
2, 10412, Note_on_c, 9, 82, 51
2, 10413, Note_on_c, 9, 82, 0
2, 10413, Note_on_c, 9, 54, 0
2, 10417, Note_on_c, 4, 62, 0
2, 10432, Note_on_c, 0, 71, 0
2, 10437, Note_on_c, 0, 74, 0
2, 10437, Note_on_c, 0, 62, 0
2, 10437, Note_on_c, 0, 67, 0
2, 10437, Note_on_c, 1, 31, 110
2, 10438, Note_on_c, 0, 62, 91
2, 10438, Note_on_c, 0, 67, 91
2, 10438, Note_on_c, 0, 71, 86
2, 10438, Note_on_c, 0, 74, 82
2, 10442, Note_on_c, 9, 38, 114
2, 10442, Note_on_c, 9, 42, 123
2, 10442, Note_on_c, 9, 123, 91
2, 10442, Note_on_c, 9, 54, 85
2, 10443, Note_on_c, 9, 54, 0
2, 10443, Note_on_c, 9, 38, 0
2, 10443, Note_on_c, 9, 123, 0
2, 10443, Note_on_c, 9, 42, 0
2, 10467, Note_on_c, 4, 62, 64
2, 10472, Note_on_c, 4, 67, 0
2, 10472, Note_on_c, 9, 54, 28
2, 10473, Note_on_c, 9, 54, 0
2, 10482, Note_on_c, 1, 31, 0
2, 10492, Note_on_c, 0, 67, 0
2, 10492, Note_on_c, 0, 74, 0
2, 10492, Note_on_c, 0, 71, 0
2, 10497, Note_on_c, 0, 62, 0
2, 10497, Note_on_c, 1, 31, 79
2, 10497, Note_on_c, 4, 67, 79
2, 10502, Note_on_c, 9, 53, 82
2, 10502, Note_on_c, 9, 42, 41
2, 10502, Note_on_c, 9, 54, 51
2, 10502, Note_on_c, 9, 82, 58
2, 10503, Note_on_c, 9, 82, 0
2, 10503, Note_on_c, 9, 42, 0
2, 10503, Note_on_c, 9, 53, 0
2, 10503, Note_on_c, 9, 54, 0
2, 10507, Note_on_c, 4, 62, 0
2, 10512, Note_on_c, 1, 31, 0
2, 10522, Note_on_c, 4, 55, 0
2, 10527, Note_on_c, 1, 31, 86
2, 10527, Note_on_c, 4, 62, 67
2, 10532, Note_on_c, 9, 25, 72
2, 10532, Note_on_c, 9, 54, 49
2, 10532, Note_on_c, 9, 82, 58
2, 10533, Note_on_c, 9, 82, 0
2, 10533, Note_on_c, 9, 54, 0
2, 10533, Note_on_c, 9, 25, 0
2, 10547, Note_on_c, 1, 31, 0
2, 10547, Note_on_c, 4, 67, 0
2, 10552, Note_on_c, 4, 69, 0
2, 10552, Note_on_c, 4, 62, 0
2, 10557, Note_on_c, 1, 31, 110
2, 10557, Note_on_c, 0, 62, 72
2, 10557, Note_on_c, 0, 67, 69
2, 10557, Note_on_c, 0, 71, 72
2, 10558, Note_on_c, 0, 74, 72
2, 10558, Note_on_c, 4, 55, 90
2, 10562, Note_on_c, 9, 36, 110
2, 10562, Note_on_c, 9, 42, 123
2, 10562, Note_on_c, 9, 54, 91
2, 10563, Note_on_c, 9, 54, 0
2, 10563, Note_on_c, 9, 36, 0
2, 10563, Note_on_c, 9, 42, 0
2, 10582, Note_on_c, 0, 74, 0
2, 10582, Note_on_c, 0, 67, 0
2, 10582, Note_on_c, 0, 62, 0
2, 10587, Note_on_c, 1, 31, 0
2, 10587, Note_on_c, 0, 62, 69
2, 10587, Note_on_c, 0, 67, 79
2, 10587, Note_on_c, 0, 74, 79
2, 10592, Note_on_c, 9, 54, 49
2, 10593, Note_on_c, 9, 54, 0
2, 10612, Note_on_c, 0, 71, 0
2, 10617, Note_on_c, 0, 74, 0
2, 10617, Note_on_c, 0, 67, 0
2, 10617, Note_on_c, 1, 31, 106
2, 10617, Note_on_c, 0, 67, 82
2, 10618, Note_on_c, 0, 71, 76
2, 10618, Note_on_c, 0, 74, 79
2, 10618, Note_on_c, 4, 71, 90
2, 10622, Note_on_c, 9, 36, 114
2, 10622, Note_on_c, 9, 53, 79
2, 10622, Note_on_c, 9, 42, 61
2, 10622, Note_on_c, 9, 54, 53
2, 10623, Note_on_c, 9, 54, 0
2, 10623, Note_on_c, 9, 42, 0
2, 10623, Note_on_c, 9, 36, 0
2, 10623, Note_on_c, 9, 53, 0
2, 10623, Note_on_c, 9, 82, 56
2, 10623, Note_on_c, 9, 82, 0
2, 10642, Note_on_c, 0, 74, 0
2, 10642, Note_on_c, 0, 67, 0
2, 10642, Note_on_c, 0, 62, 0
2, 10647, Note_on_c, 1, 31, 0
2, 10647, Note_on_c, 0, 62, 72
2, 10647, Note_on_c, 0, 67, 79
2, 10648, Note_on_c, 0, 74, 79
2, 10652, Note_on_c, 9, 54, 53
2, 10652, Note_on_c, 9, 82, 58
2, 10653, Note_on_c, 9, 82, 0
2, 10653, Note_on_c, 9, 54, 0
2, 10672, Note_on_c, 0, 71, 0
2, 10677, Note_on_c, 0, 74, 0
2, 10677, Note_on_c, 0, 62, 0
2, 10677, Note_on_c, 1, 31, 110
2, 10678, Note_on_c, 0, 62, 82
2, 10678, Note_on_c, 0, 71, 96
2, 10678, Note_on_c, 0, 74, 96
2, 10678, Note_on_c, 4, 67, 76
2, 10682, Note_on_c, 9, 38, 114
2, 10682, Note_on_c, 9, 42, 127
2, 10682, Note_on_c, 9, 123, 99
2, 10682, Note_on_c, 9, 54, 106
2, 10683, Note_on_c, 9, 54, 0
2, 10683, Note_on_c, 9, 38, 0
2, 10683, Note_on_c, 9, 123, 0
2, 10683, Note_on_c, 9, 42, 0
2, 10707, Note_on_c, 4, 62, 90
2, 10712, Note_on_c, 9, 54, 58
2, 10713, Note_on_c, 9, 54, 0
2, 10737, Note_on_c, 0, 67, 0
2, 10737, Note_on_c, 0, 62, 0
2, 10737, Note_on_c, 0, 71, 0
2, 10737, Note_on_c, 0, 74, 0
2, 10742, Note_on_c, 9, 53, 76
2, 10742, Note_on_c, 9, 42, 56
2, 10742, Note_on_c, 9, 54, 51
2, 10742, Note_on_c, 9, 82, 53
2, 10743, Note_on_c, 9, 82, 0
2, 10743, Note_on_c, 9, 42, 0
2, 10743, Note_on_c, 9, 53, 0
2, 10743, Note_on_c, 9, 54, 0
2, 10747, Note_on_c, 1, 31, 0
2, 10747, Note_on_c, 4, 55, 0
2, 10757, Note_on_c, 4, 62, 0
2, 10767, Note_on_c, 4, 71, 0
2, 10767, Note_on_c, 1, 31, 106
2, 10767, Note_on_c, 0, 62, 76
2, 10767, Note_on_c, 0, 67, 79
2, 10768, Note_on_c, 0, 71, 74
2, 10768, Note_on_c, 0, 74, 89
2, 10768, Note_on_c, 4, 55, 86
2, 10772, Note_on_c, 9, 36, 114
2, 10772, Note_on_c, 9, 54, 49
2, 10772, Note_on_c, 9, 82, 56
2, 10773, Note_on_c, 9, 82, 0
2, 10773, Note_on_c, 4, 67, 0
2, 10773, Note_on_c, 9, 54, 0
2, 10773, Note_on_c, 9, 36, 0
2, 10787, Note_on_c, 0, 67, 0
2, 10787, Note_on_c, 0, 71, 0
2, 10792, Note_on_c, 0, 62, 0
2, 10797, Note_on_c, 0, 74, 0
2, 10797, Note_on_c, 4, 71, 82
2, 10802, Note_on_c, 1, 31, 0
2, 10802, Note_on_c, 9, 42, 127
2, 10802, Note_on_c, 9, 54, 99
2, 10803, Note_on_c, 9, 54, 0
2, 10803, Note_on_c, 9, 42, 0
2, 10827, Note_on_c, 1, 31, 102
2, 10827, Note_on_c, 0, 62, 62
2, 10828, Note_on_c, 0, 67, 59
2, 10828, Note_on_c, 0, 71, 64
2, 10828, Note_on_c, 0, 74, 82
2, 10832, Note_on_c, 9, 36, 35
2, 10832, Note_on_c, 9, 54, 45
2, 10833, Note_on_c, 9, 54, 0
2, 10833, Note_on_c, 9, 36, 0
2, 10847, Note_on_c, 1, 31, 0
2, 10852, Note_on_c, 0, 67, 0
2, 10852, Note_on_c, 0, 71, 0
2, 10852, Note_on_c, 0, 62, 0
2, 10857, Note_on_c, 1, 31, 106
2, 10857, Note_on_c, 0, 62, 74
2, 10858, Note_on_c, 0, 67, 76
2, 10858, Note_on_c, 0, 71, 76
2, 10858, Note_on_c, 4, 67, 74
2, 10862, Note_on_c, 9, 36, 127
2, 10862, Note_on_c, 9, 53, 82
2, 10862, Note_on_c, 9, 42, 51
2, 10862, Note_on_c, 9, 54, 45
2, 10863, Note_on_c, 9, 54, 0
2, 10863, Note_on_c, 9, 36, 0
2, 10863, Note_on_c, 9, 42, 0
2, 10863, Note_on_c, 9, 53, 0
2, 10863, Note_on_c, 9, 82, 56
2, 10863, Note_on_c, 9, 82, 0
2, 10887, Note_on_c, 0, 74, 0
2, 10887, Note_on_c, 0, 62, 0
2, 10887, Note_on_c, 0, 67, 0
2, 10887, Note_on_c, 0, 62, 79
2, 10888, Note_on_c, 0, 67, 82
2, 10888, Note_on_c, 0, 74, 79
2, 10888, Note_on_c, 4, 62, 82
2, 10892, Note_on_c, 1, 31, 0
2, 10892, Note_on_c, 9, 54, 53
2, 10892, Note_on_c, 9, 82, 58
2, 10893, Note_on_c, 9, 82, 0
2, 10893, Note_on_c, 9, 54, 0
2, 10912, Note_on_c, 0, 67, 0
2, 10912, Note_on_c, 0, 74, 0
2, 10917, Note_on_c, 0, 71, 0
2, 10917, Note_on_c, 0, 62, 0
2, 10917, Note_on_c, 1, 31, 114
2, 10918, Note_on_c, 0, 62, 91
2, 10918, Note_on_c, 0, 67, 91
2, 10918, Note_on_c, 0, 71, 86
2, 10918, Note_on_c, 0, 74, 82
2, 10922, Note_on_c, 9, 38, 114
2, 10922, Note_on_c, 9, 42, 123
2, 10922, Note_on_c, 9, 123, 85
2, 10922, Note_on_c, 9, 54, 99
2, 10923, Note_on_c, 9, 54, 0
2, 10923, Note_on_c, 9, 123, 0
2, 10923, Note_on_c, 9, 42, 0
2, 10923, Note_on_c, 9, 38, 0
2, 10927, Note_on_c, 4, 67, 0
2, 10947, Note_on_c, 4, 67, 67
2, 10952, Note_on_c, 4, 71, 0
2, 10952, Note_on_c, 9, 54, 56
2, 10953, Note_on_c, 9, 54, 0
2, 10957, Note_on_c, 1, 31, 0
2, 10962, Note_on_c, 4, 62, 0
2, 10972, Note_on_c, 0, 67, 0
2, 10972, Note_on_c, 0, 71, 0
2, 10972, Note_on_c, 0, 74, 0
2, 10977, Note_on_c, 0, 62, 0
2, 10977, Note_on_c, 1, 31, 79
2, 10977, Note_on_c, 4, 71, 86
2, 10982, Note_on_c, 4, 67, 0
2, 10982, Note_on_c, 9, 53, 86
2, 10982, Note_on_c, 9, 42, 75
2, 10983, Note_on_c, 9, 42, 0
2, 10983, Note_on_c, 9, 53, 0
2, 10983, Note_on_c, 9, 54, 38
2, 10983, Note_on_c, 9, 54, 0
2, 10983, Note_on_c, 9, 82, 49
2, 10983, Note_on_c, 9, 82, 0
2, 10992, Note_on_c, 1, 31, 0
2, 11007, Note_on_c, 1, 31, 106
2, 11007, Note_on_c, 4, 67, 76
2, 11012, Note_on_c, 9, 54, 45
2, 11012, Note_on_c, 9, 82, 56
2, 11013, Note_on_c, 9, 82, 0
2, 11013, Note_on_c, 9, 54, 0
2, 11017, Note_on_c, 4, 55, 0
2, 11032, Note_on_c, 4, 71, 0
2, 11037, Note_on_c, 1, 31, 0
2, 11037, Note_on_c, 6, 62, 0
2, 11037, Note_on_c, 4, 67, 0
2, 11038, Note_on_c, 6, 67, 0
2, 11038, Note_on_c, 6, 71, 0
2, 11038, Note_on_c, 1, 31, 106
2, 11038, Note_on_c, 0, 62, 72
2, 11038, Note_on_c, 0, 67, 69
2, 11038, Note_on_c, 0, 71, 72
2, 11039, Note_on_c, 0, 74, 72
2, 11039, Note_on_c, 4, 55, 86
2, 11039, Note_on_c, 6, 62, 59
2, 11039, Note_on_c, 6, 67, 55
2, 11039, Note_on_c, 6, 71, 51
2, 11042, Note_on_c, 9, 36, 127
2, 11042, Note_on_c, 9, 42, 127
2, 11042, Note_on_c, 9, 54, 85
2, 11043, Note_on_c, 9, 54, 0
2, 11043, Note_on_c, 9, 36, 0
2, 11043, Note_on_c, 9, 42, 0
2, 11052, Note_on_c, 0, 74, 0
2, 11052, Note_on_c, 0, 67, 0
2, 11057, Note_on_c, 0, 62, 0
2, 11067, Note_on_c, 0, 62, 69
2, 11067, Note_on_c, 0, 67, 79
2, 11067, Note_on_c, 0, 74, 79
2, 11072, Note_on_c, 1, 31, 0
2, 11072, Note_on_c, 9, 54, 75
2, 11073, Note_on_c, 9, 54, 0
2, 11087, Note_on_c, 0, 71, 0
2, 11097, Note_on_c, 0, 74, 0
2, 11097, Note_on_c, 0, 67, 0
2, 11097, Note_on_c, 1, 31, 110
2, 11097, Note_on_c, 0, 67, 82
2, 11098, Note_on_c, 0, 71, 76
2, 11098, Note_on_c, 0, 74, 79
2, 11098, Note_on_c, 4, 67, 86
2, 11102, Note_on_c, 9, 36, 86
2, 11102, Note_on_c, 9, 53, 86
2, 11102, Note_on_c, 9, 54, 72
2, 11102, Note_on_c, 9, 42, 66
2, 11102, Note_on_c, 9, 82, 53
2, 11103, Note_on_c, 9, 42, 0
2, 11103, Note_on_c, 9, 54, 0
2, 11103, Note_on_c, 9, 36, 0
2, 11103, Note_on_c, 9, 53, 0
2, 11104, Note_on_c, 9, 82, 0
2, 11112, Note_on_c, 4, 55, 0
2, 11122, Note_on_c, 0, 62, 0
2, 11122, Note_on_c, 0, 74, 0
2, 11122, Note_on_c, 0, 67, 0
2, 11127, Note_on_c, 0, 62, 72
2, 11127, Note_on_c, 0, 67, 79
2, 11127, Note_on_c, 0, 74, 79
2, 11132, Note_on_c, 1, 31, 0
2, 11132, Note_on_c, 9, 54, 72
2, 11132, Note_on_c, 9, 82, 75
2, 11133, Note_on_c, 9, 82, 0
2, 11133, Note_on_c, 9, 54, 0
2, 11152, Note_on_c, 0, 71, 0
2, 11157, Note_on_c, 0, 74, 0
2, 11157, Note_on_c, 0, 62, 0
2, 11157, Note_on_c, 1, 31, 106
2, 11158, Note_on_c, 0, 62, 82
2, 11158, Note_on_c, 0, 71, 96
2, 11158, Note_on_c, 0, 74, 96
2, 11158, Note_on_c, 4, 62, 76
2, 11162, Note_on_c, 9, 38, 114
2, 11162, Note_on_c, 9, 42, 123
2, 11162, Note_on_c, 9, 123, 99
2, 11162, Note_on_c, 9, 54, 85
2, 11163, Note_on_c, 9, 54, 0
2, 11163, Note_on_c, 9, 123, 0
2, 11163, Note_on_c, 9, 38, 0
2, 11163, Note_on_c, 9, 42, 0
2, 11187, Note_on_c, 4, 69, 90
2, 11192, Note_on_c, 9, 54, 69
2, 11193, Note_on_c, 9, 54, 0
2, 11207, Note_on_c, 4, 62, 0
2, 11212, Note_on_c, 0, 74, 0
2, 11217, Note_on_c, 0, 62, 0
2, 11217, Note_on_c, 0, 71, 0
2, 11217, Note_on_c, 0, 67, 0
2, 11222, Note_on_c, 9, 53, 82
2, 11222, Note_on_c, 9, 42, 51
2, 11222, Note_on_c, 9, 54, 58
2, 11222, Note_on_c, 9, 82, 58
2, 11223, Note_on_c, 9, 82, 0
2, 11223, Note_on_c, 9, 54, 0
2, 11223, Note_on_c, 9, 53, 0
2, 11223, Note_on_c, 9, 42, 0
2, 11223, Note_on_c, 1, 31, 0
2, 11237, Note_on_c, 4, 69, 0
2, 11242, Note_on_c, 4, 67, 0
2, 11247, Note_on_c, 1, 31, 110
2, 11247, Note_on_c, 0, 62, 76
2, 11247, Note_on_c, 0, 67, 79
2, 11248, Note_on_c, 0, 71, 74
2, 11248, Note_on_c, 0, 74, 89
2, 11248, Note_on_c, 4, 55, 90
2, 11252, Note_on_c, 9, 36, 114
2, 11252, Note_on_c, 9, 54, 53
2, 11252, Note_on_c, 9, 82, 56
2, 11253, Note_on_c, 9, 82, 0
2, 11253, Note_on_c, 9, 36, 0
2, 11253, Note_on_c, 9, 54, 0
2, 11267, Note_on_c, 0, 67, 0
2, 11272, Note_on_c, 0, 71, 0
2, 11272, Note_on_c, 0, 62, 0
2, 11277, Note_on_c, 1, 31, 0
2, 11277, Note_on_c, 0, 74, 0
2, 11277, Note_on_c, 4, 67, 76
2, 11282, Note_on_c, 9, 42, 123
2, 11282, Note_on_c, 9, 54, 75
2, 11283, Note_on_c, 9, 54, 0
2, 11283, Note_on_c, 9, 42, 0
2, 11307, Note_on_c, 1, 31, 79
2, 11307, Note_on_c, 0, 62, 62
2, 11307, Note_on_c, 0, 67, 59
2, 11308, Note_on_c, 0, 71, 64
2, 11308, Note_on_c, 0, 74, 82
2, 11308, Note_on_c, 4, 62, 51
2, 11312, Note_on_c, 9, 36, 45
2, 11312, Note_on_c, 9, 54, 58
2, 11313, Note_on_c, 9, 54, 0
2, 11313, Note_on_c, 9, 36, 0
2, 11322, Note_on_c, 1, 31, 0
2, 11337, Note_on_c, 0, 71, 0
2, 11337, Note_on_c, 0, 67, 0
2, 11337, Note_on_c, 0, 62, 0
2, 11337, Note_on_c, 1, 31, 110
2, 11338, Note_on_c, 0, 62, 74
2, 11338, Note_on_c, 0, 67, 76
2, 11338, Note_on_c, 0, 71, 76
2, 11342, Note_on_c, 9, 36, 123
2, 11342, Note_on_c, 9, 53, 86
2, 11342, Note_on_c, 9, 42, 49
2, 11342, Note_on_c, 9, 54, 51
2, 11342, Note_on_c, 9, 82, 63
2, 11343, Note_on_c, 9, 82, 0
2, 11343, Note_on_c, 9, 54, 0
2, 11343, Note_on_c, 9, 36, 0
2, 11343, Note_on_c, 9, 42, 0
2, 11343, Note_on_c, 9, 53, 0
2, 11362, Note_on_c, 0, 62, 0
2, 11362, Note_on_c, 0, 67, 0
2, 11367, Note_on_c, 0, 74, 0
2, 11367, Note_on_c, 0, 62, 79
2, 11367, Note_on_c, 0, 67, 82
2, 11367, Note_on_c, 0, 74, 79
2, 11368, Note_on_c, 4, 69, 82
2, 11372, Note_on_c, 1, 31, 0
2, 11372, Note_on_c, 9, 54, 56
2, 11372, Note_on_c, 9, 82, 51
2, 11373, Note_on_c, 9, 82, 0
2, 11373, Note_on_c, 9, 54, 0
2, 11377, Note_on_c, 4, 62, 0
2, 11392, Note_on_c, 0, 71, 0
2, 11397, Note_on_c, 0, 74, 0
2, 11397, Note_on_c, 0, 62, 0
2, 11397, Note_on_c, 0, 67, 0
2, 11397, Note_on_c, 1, 31, 110
2, 11398, Note_on_c, 0, 62, 91
2, 11398, Note_on_c, 0, 67, 91
2, 11398, Note_on_c, 0, 71, 86
2, 11398, Note_on_c, 0, 74, 82
2, 11402, Note_on_c, 9, 38, 114
2, 11402, Note_on_c, 9, 42, 123
2, 11402, Note_on_c, 9, 123, 91
2, 11402, Note_on_c, 9, 54, 85
2, 11403, Note_on_c, 9, 54, 0
2, 11403, Note_on_c, 9, 38, 0
2, 11403, Note_on_c, 9, 123, 0
2, 11403, Note_on_c, 9, 42, 0
2, 11427, Note_on_c, 4, 62, 64
2, 11432, Note_on_c, 4, 67, 0
2, 11432, Note_on_c, 9, 54, 28
2, 11433, Note_on_c, 9, 54, 0
2, 11442, Note_on_c, 1, 31, 0
2, 11452, Note_on_c, 0, 67, 0
2, 11452, Note_on_c, 0, 74, 0
2, 11452, Note_on_c, 0, 71, 0
2, 11457, Note_on_c, 0, 62, 0
2, 11457, Note_on_c, 1, 31, 79
2, 11457, Note_on_c, 4, 67, 79
2, 11462, Note_on_c, 9, 53, 82
2, 11462, Note_on_c, 9, 42, 41
2, 11462, Note_on_c, 9, 54, 51
2, 11462, Note_on_c, 9, 82, 58
2, 11463, Note_on_c, 9, 82, 0
2, 11463, Note_on_c, 9, 42, 0
2, 11463, Note_on_c, 9, 53, 0
2, 11463, Note_on_c, 9, 54, 0
2, 11467, Note_on_c, 4, 62, 0
2, 11472, Note_on_c, 1, 31, 0
2, 11482, Note_on_c, 4, 55, 0
2, 11487, Note_on_c, 1, 31, 86
2, 11487, Note_on_c, 4, 62, 67
2, 11492, Note_on_c, 9, 25, 72
2, 11492, Note_on_c, 9, 54, 49
2, 11492, Note_on_c, 9, 82, 58
2, 11493, Note_on_c, 9, 82, 0
2, 11493, Note_on_c, 9, 54, 0
2, 11493, Note_on_c, 9, 25, 0
2, 11507, Note_on_c, 1, 31, 0
2, 11507, Note_on_c, 4, 67, 0
2, 11512, Note_on_c, 4, 69, 0
2, 11512, Note_on_c, 4, 62, 0
2, 11517, Note_on_c, 1, 31, 110
2, 11517, Note_on_c, 0, 62, 72
2, 11517, Note_on_c, 0, 67, 69
2, 11518, Note_on_c, 0, 71, 72
2, 11518, Note_on_c, 0, 74, 72
2, 11518, Note_on_c, 4, 55, 90
2, 11522, Note_on_c, 9, 36, 110
2, 11522, Note_on_c, 9, 42, 123
2, 11522, Note_on_c, 9, 54, 91
2, 11523, Note_on_c, 9, 54, 0
2, 11523, Note_on_c, 9, 36, 0
2, 11523, Note_on_c, 9, 42, 0
2, 11542, Note_on_c, 0, 74, 0
2, 11542, Note_on_c, 0, 67, 0
2, 11542, Note_on_c, 0, 62, 0
2, 11547, Note_on_c, 1, 31, 0
2, 11547, Note_on_c, 0, 62, 69
2, 11547, Note_on_c, 0, 67, 79
2, 11547, Note_on_c, 0, 74, 79
2, 11552, Note_on_c, 9, 54, 49
2, 11553, Note_on_c, 9, 54, 0
2, 11572, Note_on_c, 0, 71, 0
2, 11577, Note_on_c, 0, 74, 0
2, 11577, Note_on_c, 0, 67, 0
2, 11577, Note_on_c, 1, 31, 106
2, 11577, Note_on_c, 0, 67, 82
2, 11578, Note_on_c, 0, 71, 76
2, 11578, Note_on_c, 0, 74, 79
2, 11578, Note_on_c, 4, 71, 90
2, 11582, Note_on_c, 9, 36, 114
2, 11582, Note_on_c, 9, 53, 79
2, 11582, Note_on_c, 9, 42, 61
2, 11582, Note_on_c, 9, 54, 53
2, 11582, Note_on_c, 9, 82, 56
2, 11583, Note_on_c, 9, 82, 0
2, 11583, Note_on_c, 9, 53, 0
2, 11583, Note_on_c, 9, 54, 0
2, 11583, Note_on_c, 9, 36, 0
2, 11583, Note_on_c, 9, 42, 0
2, 11602, Note_on_c, 0, 74, 0
2, 11602, Note_on_c, 0, 67, 0
2, 11602, Note_on_c, 0, 62, 0
2, 11607, Note_on_c, 1, 31, 0
2, 11607, Note_on_c, 0, 62, 72
2, 11607, Note_on_c, 0, 67, 79
2, 11607, Note_on_c, 0, 74, 79
2, 11612, Note_on_c, 9, 54, 53
2, 11612, Note_on_c, 9, 82, 58
2, 11613, Note_on_c, 9, 82, 0
2, 11613, Note_on_c, 9, 54, 0
2, 11632, Note_on_c, 0, 71, 0
2, 11637, Note_on_c, 0, 74, 0
2, 11637, Note_on_c, 0, 62, 0
2, 11637, Note_on_c, 1, 31, 110
2, 11637, Note_on_c, 0, 62, 82
2, 11638, Note_on_c, 0, 71, 96
2, 11638, Note_on_c, 0, 74, 96
2, 11638, Note_on_c, 4, 67, 76
2, 11642, Note_on_c, 9, 38, 114
2, 11642, Note_on_c, 9, 42, 127
2, 11642, Note_on_c, 9, 123, 99
2, 11642, Note_on_c, 9, 54, 106
2, 11643, Note_on_c, 9, 54, 0
2, 11643, Note_on_c, 9, 38, 0
2, 11643, Note_on_c, 9, 123, 0
2, 11643, Note_on_c, 9, 42, 0
2, 11667, Note_on_c, 4, 62, 90
2, 11672, Note_on_c, 9, 54, 58
2, 11673, Note_on_c, 9, 54, 0
2, 11697, Note_on_c, 0, 67, 0
2, 11697, Note_on_c, 0, 62, 0
2, 11697, Note_on_c, 0, 71, 0
2, 11697, Note_on_c, 0, 74, 0
2, 11702, Note_on_c, 9, 53, 76
2, 11702, Note_on_c, 9, 42, 56
2, 11702, Note_on_c, 9, 54, 51
2, 11702, Note_on_c, 9, 82, 53
2, 11703, Note_on_c, 9, 82, 0
2, 11703, Note_on_c, 9, 42, 0
2, 11703, Note_on_c, 9, 53, 0
2, 11703, Note_on_c, 9, 54, 0
2, 11707, Note_on_c, 1, 31, 0
2, 11707, Note_on_c, 4, 55, 0
2, 11717, Note_on_c, 4, 62, 0
2, 11727, Note_on_c, 4, 71, 0
2, 11727, Note_on_c, 1, 31, 106
2, 11727, Note_on_c, 0, 62, 76
2, 11727, Note_on_c, 0, 67, 79
2, 11728, Note_on_c, 0, 71, 74
2, 11728, Note_on_c, 0, 74, 89
2, 11728, Note_on_c, 4, 55, 86
2, 11732, Note_on_c, 4, 67, 0
2, 11732, Note_on_c, 9, 36, 114
2, 11732, Note_on_c, 9, 54, 49
2, 11732, Note_on_c, 9, 82, 56
2, 11733, Note_on_c, 9, 82, 0
2, 11733, Note_on_c, 9, 36, 0
2, 11733, Note_on_c, 9, 54, 0
2, 11747, Note_on_c, 0, 71, 0
2, 11747, Note_on_c, 0, 67, 0
2, 11752, Note_on_c, 0, 62, 0
2, 11757, Note_on_c, 0, 74, 0
2, 11757, Note_on_c, 4, 71, 82
2, 11762, Note_on_c, 1, 31, 0
2, 11762, Note_on_c, 9, 42, 127
2, 11762, Note_on_c, 9, 54, 99
2, 11763, Note_on_c, 9, 54, 0
2, 11763, Note_on_c, 9, 42, 0
2, 11787, Note_on_c, 1, 31, 102
2, 11787, Note_on_c, 0, 62, 62
2, 11787, Note_on_c, 0, 67, 59
2, 11787, Note_on_c, 0, 71, 64
2, 11788, Note_on_c, 0, 74, 82
2, 11792, Note_on_c, 9, 36, 35
2, 11792, Note_on_c, 9, 54, 45
2, 11793, Note_on_c, 9, 54, 0
2, 11793, Note_on_c, 9, 36, 0
2, 11807, Note_on_c, 1, 31, 0
2, 11812, Note_on_c, 0, 67, 0
2, 11812, Note_on_c, 0, 71, 0
2, 11812, Note_on_c, 0, 62, 0
2, 11817, Note_on_c, 1, 31, 106
2, 11817, Note_on_c, 0, 62, 74
2, 11817, Note_on_c, 0, 67, 76
2, 11817, Note_on_c, 0, 71, 76
2, 11818, Note_on_c, 4, 67, 74
2, 11822, Note_on_c, 9, 36, 127
2, 11822, Note_on_c, 9, 53, 82
2, 11822, Note_on_c, 9, 42, 51
2, 11822, Note_on_c, 9, 54, 45
2, 11823, Note_on_c, 9, 54, 0
2, 11823, Note_on_c, 9, 36, 0
2, 11823, Note_on_c, 9, 42, 0
2, 11823, Note_on_c, 9, 53, 0
2, 11823, Note_on_c, 9, 82, 56
2, 11823, Note_on_c, 9, 82, 0
2, 11847, Note_on_c, 0, 74, 0
2, 11847, Note_on_c, 0, 62, 0
2, 11847, Note_on_c, 0, 67, 0
2, 11847, Note_on_c, 0, 62, 79
2, 11847, Note_on_c, 0, 67, 82
2, 11847, Note_on_c, 0, 74, 79
2, 11848, Note_on_c, 4, 62, 82
2, 11852, Note_on_c, 1, 31, 0
2, 11852, Note_on_c, 9, 54, 53
2, 11852, Note_on_c, 9, 82, 58
2, 11853, Note_on_c, 9, 82, 0
2, 11853, Note_on_c, 9, 54, 0
2, 11872, Note_on_c, 0, 67, 0
2, 11872, Note_on_c, 0, 74, 0
2, 11877, Note_on_c, 0, 71, 0
2, 11877, Note_on_c, 0, 62, 0
2, 11877, Note_on_c, 1, 31, 114
2, 11878, Note_on_c, 0, 62, 91
2, 11878, Note_on_c, 0, 67, 91
2, 11878, Note_on_c, 0, 71, 86
2, 11878, Note_on_c, 0, 74, 82
2, 11882, Note_on_c, 9, 38, 114
2, 11882, Note_on_c, 9, 42, 123
2, 11882, Note_on_c, 9, 123, 85
2, 11882, Note_on_c, 9, 54, 99
2, 11883, Note_on_c, 9, 54, 0
2, 11883, Note_on_c, 9, 123, 0
2, 11883, Note_on_c, 9, 42, 0
2, 11883, Note_on_c, 9, 38, 0
2, 11887, Note_on_c, 4, 67, 0
2, 11907, Note_on_c, 4, 67, 67
2, 11912, Note_on_c, 4, 71, 0
2, 11912, Note_on_c, 9, 54, 56
2, 11913, Note_on_c, 9, 54, 0
2, 11917, Note_on_c, 1, 31, 0
2, 11922, Note_on_c, 4, 62, 0
2, 11932, Note_on_c, 0, 67, 0
2, 11932, Note_on_c, 0, 71, 0
2, 11932, Note_on_c, 0, 74, 0
2, 11937, Note_on_c, 0, 62, 0
2, 11937, Note_on_c, 1, 31, 79
2, 11937, Note_on_c, 4, 71, 86
2, 11942, Note_on_c, 4, 67, 0
2, 11942, Note_on_c, 9, 53, 86
2, 11942, Note_on_c, 9, 42, 75
2, 11942, Note_on_c, 9, 54, 38
2, 11943, Note_on_c, 9, 54, 0
2, 11943, Note_on_c, 9, 42, 0
2, 11943, Note_on_c, 9, 53, 0
2, 11943, Note_on_c, 9, 82, 49
2, 11943, Note_on_c, 9, 82, 0
2, 11952, Note_on_c, 1, 31, 0
2, 11967, Note_on_c, 1, 31, 106
2, 11967, Note_on_c, 4, 67, 76
2, 11972, Note_on_c, 9, 54, 45
2, 11972, Note_on_c, 9, 82, 56
2, 11973, Note_on_c, 9, 82, 0
2, 11973, Note_on_c, 9, 54, 0
2, 11977, Note_on_c, 4, 55, 0
2, 11992, Note_on_c, 4, 71, 0
2, 11997, Note_on_c, 1, 31, 0
2, 11997, Note_on_c, 6, 62, 0
2, 11997, Note_on_c, 6, 67, 0
2, 11997, Note_on_c, 4, 67, 0
2, 11998, Note_on_c, 6, 71, 0
2, 11998, Note_on_c, 1, 31, 106
2, 11998, Note_on_c, 0, 62, 72
2, 11998, Note_on_c, 0, 67, 69
2, 11998, Note_on_c, 0, 71, 72
2, 11999, Note_on_c, 0, 74, 72
2, 11999, Note_on_c, 4, 55, 86
2, 11999, Note_on_c, 6, 62, 59
2, 11999, Note_on_c, 6, 67, 55
2, 11999, Note_on_c, 6, 71, 51
2, 12002, Note_on_c, 9, 36, 127
2, 12002, Note_on_c, 9, 42, 127
2, 12002, Note_on_c, 9, 54, 85
2, 12002, Control_c, 1, 84, 31
2, 12002, Note_on_c, 1, 33, 106
2, 12003, Note_on_c, 0, 62, 0
2, 12003, Note_on_c, 1, 31, 0
2, 12003, Control_c, 0, 84, 62
2, 12003, Note_on_c, 0, 60, 72
2, 12004, Note_on_c, 0, 71, 0
2, 12004, Note_on_c, 0, 67, 0
2, 12004, Control_c, 0, 84, 67
2, 12004, Note_on_c, 0, 48, 72
2, 12004, Control_c, 0, 84, 71
2, 12004, Note_on_c, 0, 52, 72
2, 12005, Note_on_c, 0, 74, 0
2, 12005, Note_on_c, 4, 55, 0
2, 12005, Control_c, 0, 84, 74
2, 12005, Note_on_c, 0, 57, 69
2, 12005, Control_c, 4, 84, 55
2, 12005, Note_on_c, 4, 45, 86
2, 12006, Note_on_c, 6, 67, 0
2, 12006, Note_on_c, 6, 62, 0
2, 12006, Control_c, 6, 84, 62
2, 12006, Note_on_c, 6, 60, 61
2, 12006, Control_c, 6, 84, 67
2, 12006, Note_on_c, 6, 52, 57
2, 12007, Note_on_c, 6, 71, 0
2, 12007, Note_on_c, 9, 36, 0
2, 12007, Control_c, 6, 84, 71
2, 12007, Note_on_c, 6, 57, 64
2, 12008, Note_on_c, 9, 42, 0
2, 12008, Note_on_c, 9, 54, 0
2, 12017, Note_on_c, 0, 57, 0
2, 12017, Note_on_c, 0, 52, 0
2, 12017, Note_on_c, 0, 60, 0
2, 12027, Note_on_c, 0, 60, 79
2, 12027, Note_on_c, 0, 52, 69
2, 12027, Note_on_c, 0, 57, 79
2, 12032, Note_on_c, 1, 33, 0
2, 12032, Note_on_c, 9, 54, 75
2, 12033, Note_on_c, 9, 54, 0
2, 12047, Note_on_c, 0, 48, 0
2, 12052, Note_on_c, 0, 57, 0
2, 12052, Note_on_c, 0, 60, 0
2, 12057, Note_on_c, 1, 33, 110
2, 12057, Note_on_c, 0, 60, 79
2, 12057, Note_on_c, 0, 48, 76
2, 12057, Note_on_c, 0, 57, 82
2, 12058, Note_on_c, 4, 60, 90
2, 12062, Note_on_c, 9, 36, 86
2, 12062, Note_on_c, 9, 53, 86
2, 12062, Note_on_c, 9, 54, 72
2, 12062, Note_on_c, 9, 42, 66
2, 12062, Note_on_c, 9, 82, 53
2, 12063, Note_on_c, 9, 82, 0
2, 12063, Note_on_c, 9, 53, 0
2, 12063, Note_on_c, 9, 42, 0
2, 12063, Note_on_c, 9, 36, 0
2, 12063, Note_on_c, 9, 54, 0
2, 12082, Note_on_c, 0, 52, 0
2, 12087, Note_on_c, 0, 57, 0
2, 12087, Note_on_c, 0, 60, 0
2, 12087, Note_on_c, 0, 60, 79
2, 12087, Note_on_c, 0, 52, 72
2, 12088, Note_on_c, 0, 57, 79
2, 12092, Note_on_c, 1, 33, 0
2, 12092, Note_on_c, 9, 54, 72
2, 12092, Note_on_c, 9, 82, 75
2, 12093, Note_on_c, 9, 82, 0
2, 12093, Note_on_c, 9, 54, 0
2, 12112, Note_on_c, 0, 60, 0
2, 12112, Note_on_c, 0, 48, 0
2, 12112, Note_on_c, 0, 52, 0
2, 12117, Note_on_c, 1, 33, 106
2, 12117, Note_on_c, 0, 60, 96
2, 12117, Note_on_c, 0, 48, 96
2, 12118, Note_on_c, 0, 52, 82
2, 12118, Note_on_c, 4, 57, 69
2, 12122, Note_on_c, 9, 38, 114
2, 12122, Note_on_c, 9, 42, 123
2, 12122, Note_on_c, 9, 123, 99
2, 12122, Note_on_c, 9, 54, 85
2, 12123, Note_on_c, 9, 54, 0
2, 12123, Note_on_c, 9, 38, 0
2, 12123, Note_on_c, 9, 123, 0
2, 12123, Note_on_c, 9, 42, 0
2, 12147, Note_on_c, 4, 64, 86
2, 12152, Note_on_c, 9, 54, 69
2, 12153, Note_on_c, 9, 54, 0
2, 12157, Note_on_c, 4, 45, 0
2, 12172, Note_on_c, 0, 57, 0
2, 12177, Note_on_c, 0, 48, 0
2, 12177, Note_on_c, 0, 60, 0
2, 12177, Note_on_c, 0, 52, 0
2, 12182, Note_on_c, 9, 53, 82
2, 12182, Note_on_c, 9, 42, 51
2, 12182, Note_on_c, 9, 54, 58
2, 12182, Note_on_c, 9, 82, 58
2, 12183, Note_on_c, 9, 82, 0
2, 12183, Note_on_c, 9, 53, 0
2, 12183, Note_on_c, 9, 54, 0
2, 12183, Note_on_c, 1, 33, 0
2, 12183, Note_on_c, 9, 42, 0
2, 12187, Note_on_c, 4, 64, 0
2, 12202, Note_on_c, 4, 60, 0
2, 12207, Note_on_c, 4, 57, 0
2, 12207, Note_on_c, 1, 33, 110
2, 12207, Note_on_c, 0, 60, 89
2, 12207, Note_on_c, 0, 48, 74
2, 12207, Note_on_c, 0, 52, 76
2, 12208, Note_on_c, 0, 57, 79
2, 12208, Note_on_c, 4, 45, 86
2, 12212, Note_on_c, 9, 36, 114
2, 12212, Note_on_c, 9, 54, 53
2, 12212, Note_on_c, 9, 82, 56
2, 12213, Note_on_c, 9, 82, 0
2, 12213, Note_on_c, 9, 36, 0
2, 12213, Note_on_c, 9, 54, 0
2, 12227, Note_on_c, 0, 57, 0
2, 12227, Note_on_c, 0, 52, 0
2, 12227, Note_on_c, 0, 48, 0
2, 12232, Note_on_c, 0, 60, 0
2, 12237, Note_on_c, 1, 33, 0
2, 12237, Note_on_c, 4, 60, 80
2, 12242, Note_on_c, 9, 42, 123
2, 12242, Note_on_c, 9, 54, 75
2, 12243, Note_on_c, 9, 54, 0
2, 12243, Note_on_c, 9, 42, 0
2, 12267, Note_on_c, 1, 33, 79
2, 12267, Note_on_c, 0, 60, 82
2, 12267, Note_on_c, 0, 48, 64
2, 12267, Note_on_c, 0, 52, 62
2, 12267, Note_on_c, 0, 57, 59
2, 12272, Note_on_c, 9, 36, 45
2, 12272, Note_on_c, 9, 54, 58
2, 12273, Note_on_c, 9, 54, 0
2, 12273, Note_on_c, 9, 36, 0
2, 12282, Note_on_c, 1, 33, 0
2, 12292, Note_on_c, 0, 52, 0
2, 12292, Note_on_c, 0, 48, 0
2, 12292, Note_on_c, 0, 57, 0
2, 12297, Note_on_c, 1, 33, 110
2, 12297, Note_on_c, 0, 48, 76
2, 12297, Note_on_c, 0, 52, 74
2, 12298, Note_on_c, 0, 57, 76
2, 12298, Note_on_c, 4, 57, 74
2, 12302, Note_on_c, 9, 36, 123
2, 12302, Note_on_c, 9, 53, 86
2, 12302, Note_on_c, 9, 42, 49
2, 12302, Note_on_c, 9, 54, 51
2, 12302, Note_on_c, 9, 82, 63
2, 12303, Note_on_c, 9, 82, 0
2, 12303, Note_on_c, 9, 54, 0
2, 12303, Note_on_c, 9, 36, 0
2, 12303, Note_on_c, 9, 42, 0
2, 12303, Note_on_c, 9, 53, 0
2, 12327, Note_on_c, 0, 52, 0
2, 12327, Note_on_c, 0, 60, 0
2, 12327, Note_on_c, 0, 57, 0
2, 12327, Note_on_c, 0, 60, 79
2, 12327, Note_on_c, 0, 52, 79
2, 12328, Note_on_c, 0, 57, 82
2, 12328, Note_on_c, 4, 64, 86
2, 12332, Note_on_c, 1, 33, 0
2, 12332, Note_on_c, 9, 54, 56
2, 12332, Note_on_c, 9, 82, 51
2, 12333, Note_on_c, 9, 82, 0
2, 12333, Note_on_c, 9, 54, 0
2, 12352, Note_on_c, 0, 52, 0
2, 12352, Note_on_c, 0, 60, 0
2, 12352, Note_on_c, 0, 57, 0
2, 12357, Note_on_c, 0, 48, 0
2, 12357, Note_on_c, 1, 33, 110
2, 12357, Note_on_c, 0, 60, 82
2, 12357, Note_on_c, 0, 48, 86
2, 12358, Note_on_c, 0, 52, 91
2, 12358, Note_on_c, 0, 57, 91
2, 12362, Note_on_c, 4, 57, 0
2, 12362, Note_on_c, 9, 38, 114
2, 12362, Note_on_c, 9, 42, 123
2, 12362, Note_on_c, 9, 123, 91
2, 12362, Note_on_c, 9, 54, 85
2, 12363, Note_on_c, 9, 54, 0
2, 12363, Note_on_c, 9, 38, 0
2, 12363, Note_on_c, 9, 123, 0
2, 12363, Note_on_c, 9, 42, 0
2, 12387, Note_on_c, 4, 57, 64
2, 12392, Note_on_c, 9, 54, 28
2, 12393, Note_on_c, 9, 54, 0
2, 12402, Note_on_c, 1, 33, 0
2, 12407, Note_on_c, 4, 60, 0
2, 12412, Note_on_c, 0, 52, 0
2, 12412, Note_on_c, 0, 57, 0
2, 12417, Note_on_c, 0, 60, 0
2, 12417, Note_on_c, 0, 48, 0
2, 12417, Note_on_c, 1, 33, 79
2, 12417, Note_on_c, 4, 60, 80
2, 12422, Note_on_c, 4, 57, 0
2, 12422, Note_on_c, 9, 53, 82
2, 12422, Note_on_c, 9, 42, 41
2, 12422, Note_on_c, 9, 54, 51
2, 12423, Note_on_c, 9, 54, 0
2, 12423, Note_on_c, 9, 42, 0
2, 12423, Note_on_c, 9, 53, 0
2, 12423, Note_on_c, 9, 82, 58
2, 12423, Note_on_c, 9, 82, 0
2, 12432, Note_on_c, 1, 33, 0
2, 12447, Note_on_c, 1, 33, 86
2, 12447, Note_on_c, 4, 57, 86
2, 12452, Note_on_c, 4, 45, 0
2, 12452, Note_on_c, 9, 25, 72
2, 12452, Note_on_c, 9, 54, 49
2, 12452, Note_on_c, 9, 82, 58
2, 12453, Note_on_c, 9, 82, 0
2, 12453, Note_on_c, 9, 54, 0
2, 12453, Note_on_c, 9, 25, 0
2, 12467, Note_on_c, 1, 33, 0
2, 12477, Note_on_c, 1, 33, 110
2, 12477, Note_on_c, 0, 60, 72
2, 12477, Note_on_c, 0, 48, 72
2, 12477, Note_on_c, 0, 52, 72
2, 12477, Note_on_c, 0, 57, 69
2, 12478, Note_on_c, 4, 45, 90
2, 12482, Note_on_c, 4, 64, 0
2, 12482, Note_on_c, 4, 57, 0
2, 12482, Note_on_c, 9, 36, 110
2, 12482, Note_on_c, 9, 42, 123
2, 12482, Note_on_c, 9, 54, 91
2, 12483, Note_on_c, 9, 54, 0
2, 12483, Note_on_c, 4, 60, 0
2, 12483, Note_on_c, 9, 42, 0
2, 12483, Note_on_c, 9, 36, 0
2, 12507, Note_on_c, 0, 52, 0
2, 12507, Note_on_c, 0, 60, 0
2, 12507, Note_on_c, 0, 57, 0
2, 12507, Note_on_c, 1, 33, 0
2, 12508, Note_on_c, 0, 60, 79
2, 12508, Note_on_c, 0, 52, 69
2, 12508, Note_on_c, 0, 57, 79
2, 12512, Note_on_c, 9, 54, 49
2, 12513, Note_on_c, 9, 54, 0
2, 12532, Note_on_c, 0, 57, 0
2, 12532, Note_on_c, 0, 60, 0
2, 12537, Note_on_c, 0, 48, 0
2, 12537, Note_on_c, 1, 33, 106
2, 12537, Note_on_c, 0, 60, 79
2, 12537, Note_on_c, 0, 48, 76
2, 12538, Note_on_c, 0, 57, 82
2, 12538, Note_on_c, 4, 60, 90
2, 12542, Note_on_c, 9, 36, 114
2, 12542, Note_on_c, 9, 53, 79
2, 12542, Note_on_c, 9, 42, 61
2, 12542, Note_on_c, 9, 54, 53
2, 12542, Note_on_c, 9, 82, 56
2, 12543, Note_on_c, 9, 82, 0
2, 12543, Note_on_c, 9, 53, 0
2, 12543, Note_on_c, 9, 54, 0
2, 12543, Note_on_c, 9, 36, 0
2, 12543, Note_on_c, 9, 42, 0
2, 12562, Note_on_c, 0, 57, 0
2, 12562, Note_on_c, 0, 60, 0
2, 12562, Note_on_c, 0, 52, 0
2, 12567, Note_on_c, 1, 33, 0
2, 12567, Note_on_c, 0, 60, 79
2, 12567, Note_on_c, 0, 52, 72
2, 12567, Note_on_c, 0, 57, 79
2, 12572, Note_on_c, 9, 54, 53
2, 12572, Note_on_c, 9, 82, 58
2, 12573, Note_on_c, 9, 82, 0
2, 12573, Note_on_c, 9, 54, 0
2, 12597, Note_on_c, 0, 60, 0
2, 12597, Note_on_c, 0, 52, 0
2, 12597, Note_on_c, 0, 48, 0
2, 12597, Note_on_c, 1, 33, 110
2, 12598, Note_on_c, 0, 60, 96
2, 12598, Note_on_c, 0, 48, 96
2, 12598, Note_on_c, 0, 52, 82
2, 12598, Note_on_c, 4, 57, 74
2, 12602, Note_on_c, 9, 38, 114
2, 12602, Note_on_c, 9, 42, 127
2, 12602, Note_on_c, 9, 123, 99
2, 12602, Note_on_c, 9, 54, 106
2, 12603, Note_on_c, 9, 54, 0
2, 12603, Note_on_c, 9, 38, 0
2, 12603, Note_on_c, 9, 123, 0
2, 12603, Note_on_c, 9, 42, 0
2, 12627, Note_on_c, 4, 64, 82
2, 12632, Note_on_c, 9, 54, 58
2, 12633, Note_on_c, 9, 54, 0
2, 12647, Note_on_c, 4, 45, 0
2, 12647, Note_on_c, 4, 57, 0
2, 12657, Note_on_c, 0, 48, 0
2, 12657, Note_on_c, 0, 60, 0
2, 12657, Note_on_c, 0, 57, 0
2, 12657, Note_on_c, 0, 52, 0
2, 12657, Note_on_c, 4, 64, 0
2, 12657, Note_on_c, 4, 57, 67
2, 12662, Note_on_c, 9, 53, 76
2, 12662, Note_on_c, 9, 42, 56
2, 12662, Note_on_c, 9, 54, 51
2, 12662, Note_on_c, 9, 82, 53
2, 12663, Note_on_c, 9, 82, 0
2, 12663, Note_on_c, 9, 54, 0
2, 12663, Note_on_c, 9, 53, 0
2, 12663, Note_on_c, 9, 42, 0
2, 12667, Note_on_c, 1, 33, 0
2, 12672, Note_on_c, 4, 60, 0
2, 12672, Note_on_c, 4, 57, 0
2, 12687, Note_on_c, 1, 33, 106
2, 12687, Note_on_c, 0, 60, 89
2, 12687, Note_on_c, 0, 48, 74
2, 12687, Note_on_c, 0, 52, 76
2, 12687, Note_on_c, 0, 57, 79
2, 12688, Note_on_c, 4, 45, 86
2, 12692, Note_on_c, 9, 36, 114
2, 12692, Note_on_c, 9, 54, 49
2, 12692, Note_on_c, 9, 82, 56
2, 12693, Note_on_c, 9, 82, 0
2, 12693, Note_on_c, 9, 36, 0
2, 12693, Note_on_c, 9, 54, 0
2, 12707, Note_on_c, 0, 57, 0
2, 12712, Note_on_c, 0, 52, 0
2, 12712, Note_on_c, 0, 48, 0
2, 12717, Note_on_c, 0, 60, 0
2, 12717, Note_on_c, 4, 60, 90
2, 12722, Note_on_c, 1, 33, 0
2, 12722, Note_on_c, 9, 42, 127
2, 12722, Note_on_c, 9, 54, 99
2, 12723, Note_on_c, 9, 54, 0
2, 12723, Note_on_c, 9, 42, 0
2, 12747, Note_on_c, 1, 33, 102
2, 12747, Note_on_c, 0, 60, 82
2, 12748, Note_on_c, 0, 48, 64
2, 12748, Note_on_c, 0, 52, 62
2, 12748, Note_on_c, 0, 57, 59
2, 12752, Note_on_c, 9, 36, 35
2, 12752, Note_on_c, 9, 54, 45
2, 12753, Note_on_c, 9, 54, 0
2, 12753, Note_on_c, 9, 36, 0
2, 12767, Note_on_c, 1, 33, 0
2, 12777, Note_on_c, 0, 52, 0
2, 12777, Note_on_c, 0, 48, 0
2, 12777, Note_on_c, 0, 57, 0
2, 12777, Note_on_c, 1, 33, 106
2, 12778, Note_on_c, 0, 48, 76
2, 12778, Note_on_c, 0, 52, 74
2, 12778, Note_on_c, 0, 57, 76
2, 12778, Note_on_c, 4, 57, 74
2, 12782, Note_on_c, 9, 36, 127
2, 12782, Note_on_c, 9, 53, 82
2, 12782, Note_on_c, 9, 42, 51
2, 12782, Note_on_c, 9, 54, 45
2, 12783, Note_on_c, 9, 54, 0
2, 12783, Note_on_c, 9, 36, 0
2, 12783, Note_on_c, 9, 42, 0
2, 12783, Note_on_c, 9, 53, 0
2, 12783, Note_on_c, 9, 82, 56
2, 12783, Note_on_c, 9, 82, 0
2, 12802, Note_on_c, 0, 52, 0
2, 12802, Note_on_c, 0, 57, 0
2, 12807, Note_on_c, 0, 60, 0
2, 12807, Note_on_c, 0, 60, 79
2, 12807, Note_on_c, 0, 52, 79
2, 12807, Note_on_c, 0, 57, 82
2, 12808, Note_on_c, 4, 64, 82
2, 12812, Note_on_c, 1, 33, 0
2, 12812, Note_on_c, 9, 54, 53
2, 12812, Note_on_c, 9, 82, 58
2, 12813, Note_on_c, 9, 82, 0
2, 12813, Note_on_c, 9, 54, 0
2, 12837, Note_on_c, 0, 48, 0
2, 12837, Note_on_c, 0, 52, 0
2, 12837, Note_on_c, 0, 60, 0
2, 12837, Note_on_c, 0, 57, 0
2, 12837, Note_on_c, 1, 33, 114
2, 12838, Note_on_c, 0, 60, 82
2, 12838, Note_on_c, 0, 48, 86
2, 12838, Note_on_c, 0, 52, 91
2, 12838, Note_on_c, 0, 57, 91
2, 12842, Note_on_c, 4, 57, 0
2, 12842, Note_on_c, 9, 38, 114
2, 12842, Note_on_c, 9, 42, 123
2, 12842, Note_on_c, 9, 123, 85
2, 12842, Note_on_c, 9, 54, 99
2, 12843, Note_on_c, 9, 54, 0
2, 12843, Note_on_c, 9, 38, 0
2, 12843, Note_on_c, 9, 123, 0
2, 12843, Note_on_c, 9, 42, 0
2, 12867, Note_on_c, 4, 57, 69
2, 12872, Note_on_c, 9, 54, 56
2, 12873, Note_on_c, 9, 54, 0
2, 12877, Note_on_c, 4, 60, 0
2, 12877, Note_on_c, 1, 33, 0
2, 12892, Note_on_c, 0, 52, 0
2, 12892, Note_on_c, 0, 48, 0
2, 12892, Note_on_c, 0, 57, 0
2, 12897, Note_on_c, 0, 60, 0
2, 12897, Note_on_c, 4, 57, 0
2, 12897, Note_on_c, 1, 33, 79
2, 12897, Note_on_c, 4, 60, 85
2, 12902, Note_on_c, 9, 53, 86
2, 12902, Note_on_c, 9, 42, 75
2, 12902, Note_on_c, 9, 54, 38
2, 12902, Note_on_c, 9, 82, 49
2, 12903, Note_on_c, 9, 82, 0
2, 12903, Note_on_c, 9, 53, 0
2, 12903, Note_on_c, 9, 54, 0
2, 12903, Note_on_c, 9, 42, 0
2, 12912, Note_on_c, 1, 33, 0
2, 12927, Note_on_c, 1, 33, 106
2, 12927, Note_on_c, 4, 57, 90
2, 12932, Note_on_c, 9, 54, 45
2, 12932, Note_on_c, 9, 82, 56
2, 12933, Note_on_c, 9, 82, 0
2, 12933, Note_on_c, 9, 54, 0
2, 12947, Note_on_c, 4, 64, 0
2, 12947, Note_on_c, 4, 57, 0
2, 12952, Note_on_c, 6, 52, 0
2, 12952, Note_on_c, 6, 57, 0
2, 12952, Note_on_c, 4, 60, 0
2, 12957, Note_on_c, 6, 60, 0
2, 12957, Note_on_c, 4, 45, 0
2, 12957, Note_on_c, 1, 33, 0
2, 12957, Note_on_c, 1, 31, 106
2, 12958, Note_on_c, 0, 62, 72
2, 12958, Note_on_c, 0, 67, 69
2, 12958, Note_on_c, 0, 71, 72
2, 12958, Note_on_c, 0, 74, 72
2, 12958, Note_on_c, 4, 55, 86
2, 12958, Note_on_c, 6, 62, 59
2, 12959, Note_on_c, 6, 67, 55
2, 12959, Note_on_c, 6, 71, 51
2, 12962, Note_on_c, 9, 36, 127
2, 12962, Note_on_c, 9, 42, 127
2, 12962, Note_on_c, 9, 54, 85
2, 12963, Note_on_c, 9, 54, 0
2, 12963, Note_on_c, 9, 36, 0
2, 12963, Note_on_c, 9, 42, 0
2, 12972, Note_on_c, 0, 74, 0
2, 12972, Note_on_c, 0, 67, 0
2, 12977, Note_on_c, 0, 62, 0
2, 12987, Note_on_c, 0, 62, 69
2, 12987, Note_on_c, 0, 67, 79
2, 12987, Note_on_c, 0, 74, 79
2, 12992, Note_on_c, 1, 31, 0
2, 12992, Note_on_c, 9, 54, 75
2, 12993, Note_on_c, 9, 54, 0
2, 13007, Note_on_c, 0, 71, 0
2, 13017, Note_on_c, 0, 74, 0
2, 13017, Note_on_c, 0, 67, 0
2, 13017, Note_on_c, 1, 31, 110
2, 13017, Note_on_c, 0, 67, 82
2, 13017, Note_on_c, 0, 71, 76
2, 13018, Note_on_c, 0, 74, 79
2, 13018, Note_on_c, 4, 67, 86
2, 13022, Note_on_c, 9, 36, 86
2, 13022, Note_on_c, 9, 53, 86
2, 13022, Note_on_c, 9, 54, 72
2, 13022, Note_on_c, 9, 42, 66
2, 13022, Note_on_c, 9, 82, 53
2, 13023, Note_on_c, 9, 82, 0
2, 13023, Note_on_c, 9, 53, 0
2, 13023, Note_on_c, 9, 42, 0
2, 13023, Note_on_c, 9, 36, 0
2, 13023, Note_on_c, 9, 54, 0
2, 13032, Note_on_c, 4, 55, 0
2, 13042, Note_on_c, 0, 62, 0
2, 13042, Note_on_c, 0, 74, 0
2, 13042, Note_on_c, 0, 67, 0
2, 13047, Note_on_c, 0, 62, 72
2, 13047, Note_on_c, 0, 67, 79
2, 13047, Note_on_c, 0, 74, 79
2, 13052, Note_on_c, 1, 31, 0
2, 13052, Note_on_c, 9, 54, 72
2, 13052, Note_on_c, 9, 82, 75
2, 13053, Note_on_c, 9, 82, 0
2, 13053, Note_on_c, 9, 54, 0
2, 13072, Note_on_c, 0, 71, 0
2, 13077, Note_on_c, 0, 74, 0
2, 13077, Note_on_c, 0, 62, 0
2, 13077, Note_on_c, 1, 31, 106
2, 13077, Note_on_c, 0, 62, 82
2, 13077, Note_on_c, 0, 71, 96
2, 13078, Note_on_c, 0, 74, 96
2, 13078, Note_on_c, 4, 62, 76
2, 13082, Note_on_c, 9, 38, 114
2, 13082, Note_on_c, 9, 42, 123
2, 13082, Note_on_c, 9, 123, 99
2, 13082, Note_on_c, 9, 54, 85
2, 13083, Note_on_c, 9, 54, 0
2, 13083, Note_on_c, 9, 123, 0
2, 13083, Note_on_c, 9, 38, 0
2, 13083, Note_on_c, 9, 42, 0
2, 13107, Note_on_c, 4, 69, 90
2, 13112, Note_on_c, 9, 54, 69
2, 13113, Note_on_c, 9, 54, 0
2, 13127, Note_on_c, 4, 62, 0
2, 13132, Note_on_c, 0, 74, 0
2, 13137, Note_on_c, 0, 62, 0
2, 13137, Note_on_c, 0, 71, 0
2, 13137, Note_on_c, 0, 67, 0
2, 13142, Note_on_c, 9, 53, 82
2, 13142, Note_on_c, 9, 42, 51
2, 13142, Note_on_c, 9, 54, 58
2, 13142, Note_on_c, 9, 82, 58
2, 13143, Note_on_c, 9, 82, 0
2, 13143, Note_on_c, 9, 54, 0
2, 13143, Note_on_c, 9, 53, 0
2, 13143, Note_on_c, 9, 42, 0
2, 13143, Note_on_c, 1, 31, 0
2, 13157, Note_on_c, 4, 69, 0
2, 13162, Note_on_c, 4, 67, 0
2, 13167, Note_on_c, 1, 31, 110
2, 13167, Note_on_c, 0, 62, 76
2, 13167, Note_on_c, 0, 67, 79
2, 13167, Note_on_c, 0, 71, 74
2, 13167, Note_on_c, 0, 74, 89
2, 13168, Note_on_c, 4, 55, 90
2, 13172, Note_on_c, 9, 36, 114
2, 13172, Note_on_c, 9, 54, 53
2, 13172, Note_on_c, 9, 82, 56
2, 13173, Note_on_c, 9, 82, 0
2, 13173, Note_on_c, 9, 36, 0
2, 13173, Note_on_c, 9, 54, 0
2, 13187, Note_on_c, 0, 67, 0
2, 13192, Note_on_c, 0, 71, 0
2, 13192, Note_on_c, 0, 62, 0
2, 13197, Note_on_c, 1, 31, 0
2, 13197, Note_on_c, 0, 74, 0
2, 13197, Note_on_c, 4, 67, 76
2, 13202, Note_on_c, 9, 42, 123
2, 13202, Note_on_c, 9, 54, 75
2, 13203, Note_on_c, 9, 54, 0
2, 13203, Note_on_c, 9, 42, 0
2, 13227, Note_on_c, 1, 31, 79
2, 13227, Note_on_c, 0, 62, 62
2, 13227, Note_on_c, 0, 67, 59
2, 13227, Note_on_c, 0, 71, 64
2, 13228, Note_on_c, 0, 74, 82
2, 13228, Note_on_c, 4, 62, 51
2, 13232, Note_on_c, 9, 36, 45
2, 13232, Note_on_c, 9, 54, 58
2, 13233, Note_on_c, 9, 54, 0
2, 13233, Note_on_c, 9, 36, 0
2, 13242, Note_on_c, 1, 31, 0
2, 13257, Note_on_c, 0, 71, 0
2, 13257, Note_on_c, 0, 67, 0
2, 13257, Note_on_c, 0, 62, 0
2, 13257, Note_on_c, 1, 31, 110
2, 13257, Note_on_c, 0, 62, 74
2, 13258, Note_on_c, 0, 67, 76
2, 13258, Note_on_c, 0, 71, 76
2, 13262, Note_on_c, 9, 36, 123
2, 13262, Note_on_c, 9, 53, 86
2, 13262, Note_on_c, 9, 42, 49
2, 13262, Note_on_c, 9, 54, 51
2, 13262, Note_on_c, 9, 82, 63
2, 13263, Note_on_c, 9, 82, 0
2, 13263, Note_on_c, 9, 54, 0
2, 13263, Note_on_c, 9, 36, 0
2, 13263, Note_on_c, 9, 42, 0
2, 13263, Note_on_c, 9, 53, 0
2, 13282, Note_on_c, 0, 62, 0
2, 13282, Note_on_c, 0, 67, 0
2, 13287, Note_on_c, 0, 74, 0
2, 13287, Note_on_c, 0, 62, 79
2, 13287, Note_on_c, 0, 67, 82
2, 13287, Note_on_c, 0, 74, 79
2, 13287, Note_on_c, 4, 69, 82
2, 13292, Note_on_c, 1, 31, 0
2, 13292, Note_on_c, 9, 54, 56
2, 13292, Note_on_c, 9, 82, 51
2, 13293, Note_on_c, 9, 82, 0
2, 13293, Note_on_c, 9, 54, 0
2, 13297, Note_on_c, 4, 62, 0
2, 13312, Note_on_c, 0, 71, 0
2, 13317, Note_on_c, 0, 74, 0
2, 13317, Note_on_c, 0, 62, 0
2, 13317, Note_on_c, 0, 67, 0
2, 13317, Note_on_c, 1, 31, 110
2, 13317, Note_on_c, 0, 62, 91
2, 13318, Note_on_c, 0, 67, 91
2, 13318, Note_on_c, 0, 71, 86
2, 13318, Note_on_c, 0, 74, 82
2, 13322, Note_on_c, 9, 38, 114
2, 13322, Note_on_c, 9, 42, 123
2, 13322, Note_on_c, 9, 123, 91
2, 13322, Note_on_c, 9, 54, 85
2, 13323, Note_on_c, 9, 54, 0
2, 13323, Note_on_c, 9, 38, 0
2, 13323, Note_on_c, 9, 123, 0
2, 13323, Note_on_c, 9, 42, 0
2, 13347, Note_on_c, 4, 62, 64
2, 13352, Note_on_c, 4, 67, 0
2, 13352, Note_on_c, 9, 54, 28
2, 13353, Note_on_c, 9, 54, 0
2, 13362, Note_on_c, 1, 31, 0
2, 13372, Note_on_c, 0, 67, 0
2, 13372, Note_on_c, 0, 74, 0
2, 13372, Note_on_c, 0, 71, 0
2, 13377, Note_on_c, 0, 62, 0
2, 13377, Note_on_c, 1, 31, 79
2, 13377, Note_on_c, 4, 67, 79
2, 13382, Note_on_c, 9, 53, 82
2, 13382, Note_on_c, 9, 42, 41
2, 13382, Note_on_c, 9, 54, 51
2, 13382, Note_on_c, 9, 82, 58
2, 13383, Note_on_c, 9, 82, 0
2, 13383, Note_on_c, 9, 42, 0
2, 13383, Note_on_c, 9, 53, 0
2, 13383, Note_on_c, 9, 54, 0
2, 13387, Note_on_c, 4, 62, 0
2, 13392, Note_on_c, 1, 31, 0
2, 13402, Note_on_c, 4, 55, 0
2, 13407, Note_on_c, 1, 31, 86
2, 13407, Note_on_c, 4, 62, 67
2, 13412, Note_on_c, 9, 25, 72
2, 13412, Note_on_c, 9, 54, 49
2, 13412, Note_on_c, 9, 82, 58
2, 13413, Note_on_c, 9, 82, 0
2, 13413, Note_on_c, 9, 54, 0
2, 13413, Note_on_c, 9, 25, 0
2, 13427, Note_on_c, 1, 31, 0
2, 13427, Note_on_c, 4, 67, 0
2, 13432, Note_on_c, 4, 69, 0
2, 13432, Note_on_c, 4, 62, 0
2, 13437, Note_on_c, 1, 31, 110
2, 13437, Note_on_c, 0, 62, 72
2, 13437, Note_on_c, 0, 67, 69
2, 13437, Note_on_c, 0, 71, 72
2, 13437, Note_on_c, 0, 74, 72
2, 13438, Note_on_c, 4, 55, 90
2, 13442, Note_on_c, 9, 36, 110
2, 13442, Note_on_c, 9, 42, 123
2, 13442, Note_on_c, 9, 54, 91
2, 13443, Note_on_c, 9, 54, 0
2, 13443, Note_on_c, 9, 36, 0
2, 13443, Note_on_c, 9, 42, 0
2, 13462, Note_on_c, 0, 74, 0
2, 13462, Note_on_c, 0, 67, 0
2, 13462, Note_on_c, 0, 62, 0
2, 13467, Note_on_c, 1, 31, 0
2, 13467, Note_on_c, 0, 62, 69
2, 13467, Note_on_c, 0, 67, 79
2, 13467, Note_on_c, 0, 74, 79
2, 13472, Note_on_c, 9, 54, 49
2, 13473, Note_on_c, 9, 54, 0
2, 13492, Note_on_c, 0, 71, 0
2, 13497, Note_on_c, 0, 74, 0
2, 13497, Note_on_c, 0, 67, 0
2, 13497, Note_on_c, 1, 31, 106
2, 13497, Note_on_c, 0, 67, 82
2, 13497, Note_on_c, 0, 71, 76
2, 13498, Note_on_c, 0, 74, 79
2, 13498, Note_on_c, 4, 71, 90
2, 13502, Note_on_c, 9, 36, 114
2, 13502, Note_on_c, 9, 53, 79
2, 13502, Note_on_c, 9, 42, 61
2, 13502, Note_on_c, 9, 54, 53
2, 13503, Note_on_c, 9, 54, 0
2, 13503, Note_on_c, 9, 42, 0
2, 13503, Note_on_c, 9, 36, 0
2, 13503, Note_on_c, 9, 53, 0
2, 13503, Note_on_c, 9, 82, 56
2, 13503, Note_on_c, 9, 82, 0
2, 13522, Note_on_c, 0, 74, 0
2, 13522, Note_on_c, 0, 67, 0
2, 13522, Note_on_c, 0, 62, 0
2, 13527, Note_on_c, 1, 31, 0
2, 13527, Note_on_c, 0, 62, 72
2, 13527, Note_on_c, 0, 67, 79
2, 13527, Note_on_c, 0, 74, 79
2, 13532, Note_on_c, 9, 54, 53
2, 13532, Note_on_c, 9, 82, 58
2, 13533, Note_on_c, 9, 82, 0
2, 13533, Note_on_c, 9, 54, 0
2, 13552, Note_on_c, 0, 71, 0
2, 13557, Note_on_c, 0, 74, 0
2, 13557, Note_on_c, 0, 62, 0
2, 13557, Note_on_c, 1, 31, 110
2, 13557, Note_on_c, 0, 62, 82
2, 13558, Note_on_c, 0, 71, 96
2, 13558, Note_on_c, 0, 74, 96
2, 13558, Note_on_c, 4, 67, 76
2, 13562, Note_on_c, 9, 38, 114
2, 13562, Note_on_c, 9, 42, 127
2, 13562, Note_on_c, 9, 123, 99
2, 13562, Note_on_c, 9, 54, 106
2, 13563, Note_on_c, 9, 54, 0
2, 13563, Note_on_c, 9, 38, 0
2, 13563, Note_on_c, 9, 123, 0
2, 13563, Note_on_c, 9, 42, 0
2, 13587, Note_on_c, 4, 62, 90
2, 13592, Note_on_c, 9, 54, 58
2, 13593, Note_on_c, 9, 54, 0
2, 13617, Note_on_c, 0, 67, 0
2, 13617, Note_on_c, 0, 62, 0
2, 13617, Note_on_c, 0, 71, 0
2, 13617, Note_on_c, 0, 74, 0
2, 13622, Note_on_c, 9, 53, 76
2, 13622, Note_on_c, 9, 42, 56
2, 13622, Note_on_c, 9, 54, 51
2, 13622, Note_on_c, 9, 82, 53
2, 13623, Note_on_c, 9, 82, 0
2, 13623, Note_on_c, 9, 42, 0
2, 13623, Note_on_c, 9, 53, 0
2, 13623, Note_on_c, 9, 54, 0
2, 13627, Note_on_c, 1, 31, 0
2, 13627, Note_on_c, 4, 55, 0
2, 13637, Note_on_c, 4, 62, 0
2, 13647, Note_on_c, 4, 71, 0
2, 13647, Note_on_c, 1, 31, 106
2, 13647, Note_on_c, 0, 62, 76
2, 13647, Note_on_c, 0, 67, 79
2, 13647, Note_on_c, 0, 71, 74
2, 13647, Note_on_c, 0, 74, 89
2, 13648, Note_on_c, 4, 55, 86
2, 13652, Note_on_c, 4, 67, 0
2, 13652, Note_on_c, 9, 36, 114
2, 13652, Note_on_c, 9, 54, 49
2, 13652, Note_on_c, 9, 82, 56
2, 13653, Note_on_c, 9, 82, 0
2, 13653, Note_on_c, 9, 36, 0
2, 13653, Note_on_c, 9, 54, 0
2, 13667, Note_on_c, 0, 71, 0
2, 13667, Note_on_c, 0, 67, 0
2, 13672, Note_on_c, 0, 62, 0
2, 13677, Note_on_c, 0, 74, 0
2, 13677, Note_on_c, 4, 71, 82
2, 13682, Note_on_c, 1, 31, 0
2, 13682, Note_on_c, 9, 42, 127
2, 13682, Note_on_c, 9, 54, 99
2, 13683, Note_on_c, 9, 54, 0
2, 13683, Note_on_c, 9, 42, 0
2, 13707, Note_on_c, 1, 31, 102
2, 13707, Note_on_c, 0, 62, 62
2, 13707, Note_on_c, 0, 67, 59
2, 13707, Note_on_c, 0, 71, 64
2, 13707, Note_on_c, 0, 74, 82
2, 13712, Note_on_c, 9, 36, 35
2, 13712, Note_on_c, 9, 54, 45
2, 13713, Note_on_c, 9, 54, 0
2, 13713, Note_on_c, 9, 36, 0
2, 13727, Note_on_c, 1, 31, 0
2, 13732, Note_on_c, 0, 67, 0
2, 13732, Note_on_c, 0, 71, 0
2, 13732, Note_on_c, 0, 62, 0
2, 13737, Note_on_c, 1, 31, 106
2, 13737, Note_on_c, 0, 62, 74
2, 13737, Note_on_c, 0, 67, 76
2, 13737, Note_on_c, 0, 71, 76
2, 13738, Note_on_c, 4, 67, 74
2, 13742, Note_on_c, 9, 36, 127
2, 13742, Note_on_c, 9, 53, 82
2, 13742, Note_on_c, 9, 42, 51
2, 13742, Note_on_c, 9, 54, 45
2, 13742, Note_on_c, 9, 82, 56
2, 13743, Note_on_c, 9, 82, 0
2, 13743, Note_on_c, 9, 54, 0
2, 13743, Note_on_c, 9, 36, 0
2, 13743, Note_on_c, 9, 42, 0
2, 13743, Note_on_c, 9, 53, 0
2, 13767, Note_on_c, 0, 62, 0
2, 13767, Note_on_c, 0, 74, 0
2, 13767, Note_on_c, 0, 67, 0
2, 13767, Note_on_c, 0, 62, 79
2, 13767, Note_on_c, 0, 67, 82
2, 13767, Note_on_c, 0, 74, 79
2, 13768, Note_on_c, 4, 62, 82
2, 13772, Note_on_c, 1, 31, 0
2, 13772, Note_on_c, 9, 54, 53
2, 13772, Note_on_c, 9, 82, 58
2, 13773, Note_on_c, 9, 82, 0
2, 13773, Note_on_c, 9, 54, 0
2, 13792, Note_on_c, 0, 67, 0
2, 13792, Note_on_c, 0, 74, 0
2, 13797, Note_on_c, 0, 71, 0
2, 13797, Note_on_c, 0, 62, 0
2, 13797, Note_on_c, 1, 31, 114
2, 13797, Note_on_c, 0, 62, 91
2, 13797, Note_on_c, 0, 67, 91
2, 13798, Note_on_c, 0, 71, 86
2, 13798, Note_on_c, 0, 74, 82
2, 13802, Note_on_c, 9, 38, 114
2, 13802, Note_on_c, 9, 42, 123
2, 13802, Note_on_c, 9, 123, 85
2, 13802, Note_on_c, 9, 54, 99
2, 13803, Note_on_c, 9, 54, 0
2, 13803, Note_on_c, 9, 123, 0
2, 13803, Note_on_c, 9, 42, 0
2, 13803, Note_on_c, 9, 38, 0
2, 13807, Note_on_c, 4, 67, 0
2, 13827, Note_on_c, 4, 67, 67
2, 13832, Note_on_c, 4, 71, 0
2, 13832, Note_on_c, 9, 54, 56
2, 13833, Note_on_c, 9, 54, 0
2, 13837, Note_on_c, 1, 31, 0
2, 13842, Note_on_c, 4, 62, 0
2, 13852, Note_on_c, 0, 67, 0
2, 13852, Note_on_c, 0, 71, 0
2, 13852, Note_on_c, 0, 74, 0
2, 13857, Note_on_c, 0, 62, 0
2, 13857, Note_on_c, 1, 31, 79
2, 13857, Note_on_c, 4, 71, 86
2, 13862, Note_on_c, 4, 67, 0
2, 13862, Note_on_c, 9, 53, 86
2, 13862, Note_on_c, 9, 42, 75
2, 13862, Note_on_c, 9, 54, 38
2, 13862, Note_on_c, 9, 82, 49
2, 13863, Note_on_c, 9, 82, 0
2, 13863, Note_on_c, 9, 54, 0
2, 13863, Note_on_c, 9, 53, 0
2, 13863, Note_on_c, 9, 42, 0
2, 13872, Note_on_c, 1, 31, 0
2, 13886, Note_on_c, 1, 31, 106
2, 13887, Note_on_c, 4, 67, 76
2, 13887, Note_on_c, 1, 31, 106
2, 13892, Note_on_c, 9, 54, 45
2, 13892, Note_on_c, 9, 54, 0
2, 13892, Note_on_c, 9, 82, 56
2, 13893, Note_on_c, 9, 82, 0
2, 13897, Note_on_c, 4, 55, 0
2, 13912, Note_on_c, 4, 71, 0
2, 13916, Note_on_c, 1, 31, 0
2, 13917, Note_on_c, 6, 62, 0
2, 13917, Note_on_c, 6, 67, 0
2, 13917, Note_on_c, 6, 71, 0
2, 13917, Note_on_c, 4, 67, 0
2, 13917, Note_on_c, 1, 31, 0
2, 13917, Note_on_c, 0, 74, 72
2, 13917, Note_on_c, 4, 55, 86
2, 13917, Note_on_c, 1, 31, 106
2, 13917, Note_on_c, 0, 62, 72
2, 13917, Note_on_c, 0, 67, 69
2, 13917, Note_on_c, 0, 71, 72
2, 13918, Note_on_c, 6, 71, 51
2, 13918, Note_on_c, 6, 62, 59
2, 13918, Note_on_c, 6, 67, 55
2, 13921, Note_on_c, 9, 54, 85
2, 13921, Note_on_c, 9, 36, 127
2, 13921, Note_on_c, 9, 42, 127
2, 13921, Control_c, 9, 64, 0
2, 13921, Control_c, 1, 64, 0
2, 13921, Control_c, 0, 64, 0
2, 13922, Note_on_c, 9, 42, 0
2, 13922, Note_on_c, 9, 54, 0
2, 13922, Note_on_c, 9, 36, 0
2, 13922, Control_c, 2, 64, 0
2, 13922, Control_c, 4, 64, 0
2, 13922, Control_c, 7, 64, 0
2, 13922, Control_c, 8, 64, 0
2, 13922, Control_c, 6, 64, 0
2, 13925, Control_c, 9, 0, 0
2, 13926, Control_c, 9, 32, 3
2, 13926, Control_c, 9, 0, 0
2, 13926, Control_c, 9, 32, 3
2, 13926, Control_c, 9, 0, 0
2, 13926, Control_c, 9, 32, 3
2, 13926, Control_c, 9, 0, 0
2, 13926, Control_c, 9, 32, 3
2, 13926, Control_c, 9, 0, 0
2, 13926, Control_c, 9, 32, 3
2, 13927, Program_c, 9, 8
2, 13927, Control_c, 1, 0, 0
2, 13927, Control_c, 1, 32, 1
2, 13927, Control_c, 1, 0, 0
2, 13927, Control_c, 1, 32, 1
2, 13927, Control_c, 1, 0, 0
2, 13927, Control_c, 1, 32, 1
2, 13927, Control_c, 1, 0, 0
2, 13927, Control_c, 1, 32, 1
2, 13927, Control_c, 1, 0, 0
2, 13927, Control_c, 1, 32, 1
2, 13927, Program_c, 1, 33
2, 13927, Control_c, 0, 0, 0
2, 13927, Control_c, 0, 32, 3
2, 13927, Control_c, 0, 0, 0
2, 13927, Control_c, 0, 32, 3
2, 13927, Control_c, 0, 0, 0
2, 13927, Control_c, 0, 32, 3
2, 13927, Control_c, 0, 0, 0
2, 13927, Control_c, 0, 32, 3
2, 13927, Control_c, 0, 0, 0
2, 13927, Control_c, 0, 32, 3
2, 13928, Program_c, 0, 25
2, 13928, Control_c, 4, 0, 9
2, 13928, Control_c, 4, 32, 2
2, 13928, Control_c, 4, 0, 9
2, 13928, Control_c, 4, 32, 2
2, 13928, Control_c, 4, 0, 9
2, 13928, Control_c, 4, 32, 2
2, 13928, Control_c, 4, 0, 9
2, 13928, Control_c, 4, 32, 2
2, 13928, Control_c, 4, 0, 9
2, 13928, Control_c, 4, 32, 2
2, 13929, Program_c, 4, 27
2, 13929, Control_c, 6, 0, 32
2, 13929, Control_c, 6, 32, 1
2, 13929, Control_c, 6, 0, 32
2, 13929, Control_c, 6, 32, 1
2, 13929, Control_c, 6, 0, 32
2, 13929, Control_c, 6, 32, 1
2, 13929, Control_c, 6, 0, 32
2, 13929, Control_c, 6, 32, 1
2, 13929, Control_c, 6, 0, 32
2, 13929, Control_c, 6, 32, 1
2, 13929, Program_c, 6, 52
2, 13931, Note_on_c, 0, 67, 0
2, 13931, Note_on_c, 1, 31, 0
2, 13931, Note_on_c, 0, 74, 0
2, 13931, Note_on_c, 1, 33, 106
2, 13932, Note_on_c, 0, 62, 0
2, 13932, Note_on_c, 0, 60, 72
2, 13932, Note_on_c, 0, 48, 72
2, 13933, Note_on_c, 4, 55, 0
2, 13933, Note_on_c, 0, 71, 0
2, 13933, Note_on_c, 4, 45, 86
2, 13933, Note_on_c, 6, 60, 61
2, 13934, Note_on_c, 6, 67, 0
2, 13934, Note_on_c, 6, 62, 0
2, 13934, Note_on_c, 6, 52, 57
2, 13934, Note_on_c, 6, 57, 64
2, 13935, Note_on_c, 6, 71, 0
2, 13936, Note_on_c, 0, 60, 0
2, 13946, Note_on_c, 0, 60, 79
2, 13946, Note_on_c, 0, 52, 69
2, 13946, Note_on_c, 0, 57, 79
2, 13951, Note_on_c, 1, 33, 0
2, 13951, Note_on_c, 9, 54, 75
2, 13952, Note_on_c, 9, 54, 0
2, 13966, Note_on_c, 0, 48, 0
2, 13971, Note_on_c, 0, 57, 0
2, 13971, Note_on_c, 0, 60, 0
2, 13976, Note_on_c, 1, 33, 110
2, 13976, Note_on_c, 0, 60, 79
2, 13976, Note_on_c, 0, 48, 76
2, 13976, Note_on_c, 0, 57, 82
2, 13976, Note_on_c, 4, 60, 90
2, 13981, Note_on_c, 9, 82, 53
2, 13981, Note_on_c, 9, 36, 86
2, 13981, Note_on_c, 9, 53, 86
2, 13981, Note_on_c, 9, 54, 72
2, 13981, Note_on_c, 9, 42, 66
2, 13982, Note_on_c, 9, 42, 0
2, 13982, Note_on_c, 9, 36, 0
2, 13982, Note_on_c, 9, 54, 0
2, 13982, Note_on_c, 9, 82, 0
2, 13982, Note_on_c, 9, 53, 0
2, 14001, Note_on_c, 0, 52, 0
2, 14006, Note_on_c, 0, 57, 0
2, 14006, Note_on_c, 0, 60, 0
2, 14006, Note_on_c, 0, 60, 79
2, 14006, Note_on_c, 0, 52, 72
2, 14006, Note_on_c, 0, 57, 79
2, 14011, Note_on_c, 1, 33, 0
2, 14011, Note_on_c, 9, 54, 72
2, 14011, Note_on_c, 9, 54, 0
2, 14011, Note_on_c, 9, 82, 75
2, 14012, Note_on_c, 9, 82, 0
2, 14031, Note_on_c, 0, 60, 0
2, 14031, Note_on_c, 0, 52, 0
2, 14031, Note_on_c, 0, 48, 0
2, 14036, Note_on_c, 1, 33, 106
2, 14036, Note_on_c, 0, 52, 82
2, 14036, Note_on_c, 4, 57, 69
2, 14036, Note_on_c, 0, 60, 96
2, 14036, Note_on_c, 0, 48, 96
2, 14041, Note_on_c, 9, 38, 114
2, 14041, Note_on_c, 9, 42, 123
2, 14041, Note_on_c, 9, 54, 85
2, 14041, Note_on_c, 9, 123, 99
2, 14042, Note_on_c, 9, 123, 0
2, 14042, Note_on_c, 9, 38, 0
2, 14042, Note_on_c, 9, 54, 0
2, 14042, Note_on_c, 9, 42, 0
2, 14066, Note_on_c, 4, 64, 86
2, 14070, Note_on_c, 9, 54, 69
2, 14072, Note_on_c, 9, 54, 0
2, 14076, Note_on_c, 4, 45, 0
2, 14091, Note_on_c, 0, 57, 0
2, 14096, Note_on_c, 0, 60, 0
2, 14096, Note_on_c, 0, 52, 0
2, 14096, Note_on_c, 0, 48, 0
2, 14101, Note_on_c, 1, 33, 0
2, 14101, Note_on_c, 9, 54, 58
2, 14101, Note_on_c, 9, 82, 58
2, 14101, Note_on_c, 9, 53, 82
2, 14101, Note_on_c, 9, 42, 51
2, 14102, Note_on_c, 9, 42, 0
2, 14102, Note_on_c, 9, 53, 0
2, 14102, Note_on_c, 9, 54, 0
2, 14102, Note_on_c, 9, 82, 0
2, 14106, Note_on_c, 4, 64, 0
2, 14121, Note_on_c, 4, 60, 0
2, 14126, Note_on_c, 4, 57, 0
2, 14126, Note_on_c, 0, 60, 89
2, 14126, Note_on_c, 0, 48, 74
2, 14126, Note_on_c, 0, 52, 76
2, 14126, Note_on_c, 0, 57, 79
2, 14126, Note_on_c, 1, 33, 110
2, 14127, Note_on_c, 4, 45, 86
2, 14131, Note_on_c, 9, 36, 114
2, 14131, Note_on_c, 9, 54, 53
2, 14131, Note_on_c, 9, 82, 56
2, 14132, Note_on_c, 9, 82, 0
2, 14132, Note_on_c, 9, 36, 0
2, 14132, Note_on_c, 9, 54, 0
2, 14146, Note_on_c, 0, 57, 0
2, 14146, Note_on_c, 0, 52, 0
2, 14146, Note_on_c, 0, 48, 0
2, 14151, Note_on_c, 0, 60, 0
2, 14156, Note_on_c, 1, 33, 0
2, 14156, Note_on_c, 4, 60, 80
2, 14161, Note_on_c, 9, 42, 123
2, 14161, Note_on_c, 9, 54, 75
2, 14162, Note_on_c, 9, 54, 0
2, 14162, Note_on_c, 9, 42, 0
2, 14186, Note_on_c, 0, 52, 62
2, 14186, Note_on_c, 0, 60, 82
2, 14186, Note_on_c, 0, 48, 64
2, 14186, Note_on_c, 0, 57, 59
2, 14186, Note_on_c, 1, 33, 79
2, 14191, Note_on_c, 9, 36, 45
2, 14191, Note_on_c, 9, 36, 0
2, 14191, Note_on_c, 9, 54, 58
2, 14192, Note_on_c, 9, 54, 0
2, 14200, Note_on_c, 1, 33, 0
2, 14211, Note_on_c, 0, 57, 0
2, 14211, Note_on_c, 0, 52, 0
2, 14211, Note_on_c, 0, 48, 0
2, 14216, Note_on_c, 0, 60, 0
2, 14216, Note_on_c, 0, 62, 62
2, 14217, Note_on_c, 4, 60, 0
2, 14217, Note_on_c, 4, 55, 90
2, 14217, Note_on_c, 4, 67, 76
2, 14218, Note_on_c, 6, 60, 0
2, 14218, Note_on_c, 4, 45, 0
2, 14218, Note_on_c, 6, 62, 59
2, 14219, Note_on_c, 6, 52, 0
2, 14219, Note_on_c, 6, 57, 0
2, 14219, Note_on_c, 6, 67, 55
2, 14219, Note_on_c, 6, 71, 51
2, 14219, Note_on_c, 1, 31, 110
2, 14220, Note_on_c, 0, 62, 0
2, 14221, Note_on_c, 9, 36, 123
2, 14221, Note_on_c, 9, 36, 0
2, 14221, Note_on_c, 9, 53, 86
2, 14221, Note_on_c, 9, 54, 51
2, 14221, Control_c, 0, 84, 60
2, 14221, Note_on_c, 9, 82, 63
2, 14221, Note_on_c, 9, 42, 49
2, 14222, Note_on_c, 9, 42, 0
2, 14222, Note_on_c, 9, 82, 0
2, 14222, Note_on_c, 9, 53, 0
2, 14222, Note_on_c, 9, 54, 0
2, 14222, Control_c, 4, 84, 60
2, 14222, Control_c, 4, 84, 45
2, 14223, Control_c, 6, 84, 60
2, 14224, Control_c, 6, 84, 52
2, 14224, Control_c, 6, 84, 57
2, 14246, Note_on_c, 0, 67, 82
2, 14246, Note_on_c, 0, 62, 79
2, 14246, Note_on_c, 4, 69, 82
2, 14246, Note_on_c, 0, 74, 79
2, 14251, Note_on_c, 1, 31, 0
2, 14251, Note_on_c, 9, 54, 56
2, 14251, Note_on_c, 9, 82, 51
2, 14252, Note_on_c, 9, 82, 0
2, 14252, Note_on_c, 9, 54, 0
2, 14276, Note_on_c, 0, 62, 0
2, 14276, Note_on_c, 0, 74, 0
2, 14276, Note_on_c, 0, 67, 0
2, 14276, Note_on_c, 1, 31, 110
2, 14276, Note_on_c, 0, 62, 91
2, 14277, Note_on_c, 0, 67, 91
2, 14277, Note_on_c, 0, 71, 86
2, 14277, Note_on_c, 0, 74, 82
2, 14280, Note_on_c, 9, 38, 114
2, 14281, Note_on_c, 9, 42, 123
2, 14281, Note_on_c, 9, 54, 85
2, 14281, Note_on_c, 9, 123, 91
2, 14282, Note_on_c, 9, 123, 0
2, 14282, Note_on_c, 9, 38, 0
2, 14282, Note_on_c, 9, 54, 0
2, 14282, Note_on_c, 9, 42, 0
2, 14306, Note_on_c, 4, 62, 64
2, 14311, Note_on_c, 4, 67, 0
2, 14311, Note_on_c, 9, 54, 28
2, 14312, Note_on_c, 9, 54, 0
2, 14321, Note_on_c, 1, 31, 0
2, 14331, Note_on_c, 0, 67, 0
2, 14331, Note_on_c, 0, 74, 0
2, 14331, Note_on_c, 0, 71, 0
2, 14336, Note_on_c, 0, 62, 0
2, 14336, Note_on_c, 1, 31, 79
2, 14336, Note_on_c, 4, 67, 79
2, 14341, Note_on_c, 9, 53, 82
2, 14341, Note_on_c, 9, 42, 41
2, 14341, Note_on_c, 9, 54, 51
2, 14341, Note_on_c, 9, 82, 58
2, 14342, Note_on_c, 9, 82, 0
2, 14342, Note_on_c, 9, 42, 0
2, 14342, Note_on_c, 9, 53, 0
2, 14342, Note_on_c, 9, 54, 0
2, 14346, Note_on_c, 4, 62, 0
2, 14351, Note_on_c, 1, 31, 0
2, 14361, Note_on_c, 4, 55, 0
2, 14366, Note_on_c, 1, 31, 86
2, 14366, Note_on_c, 4, 62, 67
2, 14371, Note_on_c, 9, 54, 49
2, 14371, Note_on_c, 9, 82, 58
2, 14372, Note_on_c, 9, 82, 0
2, 14372, Note_on_c, 9, 54, 0
2, 14381, Note_on_c, 9, 25, 72
2, 14382, Note_on_c, 9, 25, 0
2, 14385, Note_on_c, 1, 31, 0
2, 14386, Note_on_c, 4, 67, 0
2, 14391, Note_on_c, 4, 69, 0
2, 14391, Note_on_c, 4, 62, 0
2, 14396, Note_on_c, 6, 57, 64
2, 14397, Note_on_c, 6, 62, 0
2, 14397, Note_on_c, 6, 67, 0
2, 14397, Note_on_c, 6, 52, 57
2, 14397, Note_on_c, 6, 60, 61
2, 14398, Note_on_c, 6, 71, 0
2, 14398, Note_on_c, 0, 48, 72
2, 14398, Note_on_c, 1, 33, 110
2, 14398, Note_on_c, 0, 60, 72
2, 14399, Note_on_c, 0, 52, 72
2, 14399, Note_on_c, 0, 57, 69
2, 14399, Note_on_c, 4, 45, 90
2, 14401, Note_on_c, 9, 54, 91
2, 14401, Note_on_c, 9, 36, 110
2, 14401, Note_on_c, 9, 36, 0
2, 14401, Note_on_c, 9, 42, 123
2, 14402, Note_on_c, 9, 42, 0
2, 14402, Note_on_c, 9, 54, 0
2, 14411, Control_c, 1, 84, 31
2, 14412, Control_c, 0, 84, 62
2, 14412, Control_c, 0, 84, 67
2, 14413, Control_c, 0, 84, 71
2, 14413, Control_c, 0, 84, 74
2, 14414, Control_c, 4, 84, 55
2, 14414, Control_c, 6, 84, 62
2, 14415, Control_c, 6, 84, 67
2, 14416, Control_c, 6, 84, 71
2, 14426, Note_on_c, 0, 57, 0
2, 14426, Note_on_c, 0, 52, 0
2, 14426, Note_on_c, 0, 60, 0
2, 14426, Note_on_c, 1, 33, 0
2, 14426, Note_on_c, 0, 60, 79
2, 14426, Note_on_c, 0, 52, 69
2, 14426, Note_on_c, 0, 57, 79
2, 14431, Note_on_c, 9, 54, 49
2, 14431, Note_on_c, 9, 54, 0
2, 14451, Note_on_c, 0, 57, 0
2, 14451, Note_on_c, 0, 60, 0
2, 14456, Note_on_c, 0, 48, 0
2, 14456, Note_on_c, 0, 48, 76
2, 14456, Note_on_c, 0, 60, 79
2, 14456, Note_on_c, 1, 33, 106
2, 14456, Note_on_c, 4, 60, 90
2, 14456, Note_on_c, 0, 57, 82
2, 14460, Note_on_c, 9, 36, 114
2, 14461, Note_on_c, 9, 53, 79
2, 14461, Note_on_c, 9, 42, 61
2, 14461, Note_on_c, 9, 54, 53
2, 14461, Note_on_c, 9, 82, 56
2, 14462, Note_on_c, 9, 82, 0
2, 14462, Note_on_c, 9, 53, 0
2, 14462, Note_on_c, 9, 54, 0
2, 14462, Note_on_c, 9, 36, 0
2, 14462, Note_on_c, 9, 42, 0
2, 14481, Note_on_c, 0, 57, 0
2, 14481, Note_on_c, 0, 60, 0
2, 14481, Note_on_c, 0, 52, 0
2, 14486, Note_on_c, 1, 33, 0
2, 14486, Note_on_c, 0, 57, 79
2, 14486, Note_on_c, 0, 60, 79
2, 14486, Note_on_c, 0, 52, 72
2, 14490, Note_on_c, 9, 54, 53
2, 14491, Note_on_c, 9, 82, 58
2, 14492, Note_on_c, 9, 82, 0
2, 14492, Note_on_c, 9, 54, 0
2, 14515, Note_on_c, 0, 60, 0
2, 14516, Note_on_c, 0, 48, 0
2, 14516, Note_on_c, 0, 52, 0
2, 14516, Note_on_c, 1, 33, 110
2, 14516, Note_on_c, 0, 60, 96
2, 14517, Note_on_c, 0, 48, 96
2, 14517, Note_on_c, 0, 52, 82
2, 14517, Note_on_c, 4, 57, 74
2, 14521, Note_on_c, 9, 38, 114
2, 14521, Note_on_c, 9, 42, 127
2, 14521, Note_on_c, 9, 123, 99
2, 14521, Note_on_c, 9, 54, 106
2, 14522, Note_on_c, 9, 54, 0
2, 14522, Note_on_c, 9, 38, 0
2, 14522, Note_on_c, 9, 123, 0
2, 14522, Note_on_c, 9, 42, 0
2, 14546, Note_on_c, 4, 64, 82
2, 14551, Note_on_c, 9, 54, 58
2, 14552, Note_on_c, 9, 54, 0
2, 14565, Note_on_c, 4, 57, 0
2, 14566, Note_on_c, 4, 45, 0
2, 14576, Note_on_c, 0, 48, 0
2, 14576, Note_on_c, 0, 60, 0
2, 14576, Note_on_c, 0, 52, 0
2, 14576, Note_on_c, 0, 57, 0
2, 14576, Note_on_c, 4, 64, 0
2, 14576, Note_on_c, 4, 57, 67
2, 14581, Note_on_c, 9, 54, 51
2, 14581, Note_on_c, 9, 82, 53
2, 14581, Note_on_c, 9, 53, 76
2, 14581, Note_on_c, 9, 53, 0
2, 14581, Note_on_c, 9, 42, 56
2, 14582, Note_on_c, 9, 42, 0
2, 14582, Note_on_c, 9, 82, 0
2, 14582, Note_on_c, 9, 54, 0
2, 14586, Note_on_c, 1, 33, 0
2, 14590, Note_on_c, 4, 57, 0
2, 14591, Note_on_c, 4, 60, 0
2, 14606, Note_on_c, 4, 45, 86
2, 14606, Note_on_c, 0, 60, 89
2, 14606, Note_on_c, 1, 33, 106
2, 14606, Note_on_c, 0, 57, 79
2, 14606, Note_on_c, 0, 48, 74
2, 14606, Note_on_c, 0, 52, 76
2, 14611, Note_on_c, 9, 54, 49
2, 14611, Note_on_c, 9, 82, 56
2, 14611, Note_on_c, 9, 36, 114
2, 14611, Note_on_c, 9, 36, 0
2, 14612, Note_on_c, 9, 54, 0
2, 14612, Note_on_c, 9, 82, 0
2, 14626, Note_on_c, 0, 57, 0
2, 14631, Note_on_c, 0, 48, 0
2, 14631, Note_on_c, 0, 52, 0
2, 14636, Note_on_c, 0, 60, 0
2, 14636, Note_on_c, 4, 60, 90
2, 14641, Note_on_c, 1, 33, 0
2, 14641, Note_on_c, 9, 42, 127
2, 14641, Note_on_c, 9, 42, 0
2, 14641, Note_on_c, 9, 54, 99
2, 14642, Note_on_c, 9, 54, 0
2, 14666, Note_on_c, 0, 60, 82
2, 14666, Note_on_c, 0, 48, 64
2, 14666, Note_on_c, 0, 52, 62
2, 14666, Note_on_c, 0, 57, 59
2, 14666, Note_on_c, 1, 33, 102
2, 14670, Note_on_c, 9, 36, 35
2, 14671, Note_on_c, 9, 54, 45
2, 14672, Note_on_c, 9, 54, 0
2, 14672, Note_on_c, 9, 36, 0
2, 14681, Note_on_c, 1, 33, 0
2, 14681, Note_on_c, 1, 31, 102
2, 14681, Note_on_c, 0, 62, 62
2, 14682, Note_on_c, 0, 48, 0
2, 14682, Note_on_c, 0, 60, 0
2, 14682, Note_on_c, 0, 67, 59
2, 14683, Note_on_c, 0, 52, 0
2, 14683, Note_on_c, 0, 57, 0
2, 14683, Note_on_c, 0, 71, 64
2, 14683, Note_on_c, 0, 74, 82
2, 14684, Note_on_c, 4, 60, 0
2, 14684, Note_on_c, 4, 45, 0
2, 14684, Note_on_c, 4, 55, 86
2, 14684, Note_on_c, 4, 71, 82
2, 14685, Note_on_c, 6, 52, 0
2, 14685, Note_on_c, 6, 57, 0
2, 14685, Note_on_c, 6, 71, 51
2, 14685, Note_on_c, 6, 67, 55
2, 14686, Note_on_c, 6, 60, 0
2, 14686, Note_on_c, 1, 31, 0
2, 14686, Note_on_c, 6, 62, 59
2, 14691, Note_on_c, 0, 71, 0
2, 14691, Note_on_c, 0, 62, 0
2, 14691, Note_on_c, 0, 67, 0
2, 14696, Note_on_c, 4, 67, 74
2, 14696, Note_on_c, 1, 31, 106
2, 14696, Note_on_c, 0, 62, 74
2, 14696, Note_on_c, 0, 67, 76
2, 14696, Note_on_c, 0, 71, 76
2, 14700, Note_on_c, 9, 36, 127
2, 14701, Note_on_c, 9, 54, 45
2, 14701, Note_on_c, 9, 42, 51
2, 14701, Note_on_c, 9, 82, 56
2, 14701, Note_on_c, 9, 53, 82
2, 14702, Note_on_c, 9, 53, 0
2, 14702, Note_on_c, 9, 82, 0
2, 14702, Note_on_c, 9, 36, 0
2, 14702, Note_on_c, 9, 42, 0
2, 14702, Note_on_c, 9, 54, 0
2, 14721, Control_c, 1, 84, 33
2, 14721, Control_c, 0, 84, 60
2, 14722, Control_c, 0, 84, 48
2, 14722, Control_c, 0, 84, 52
2, 14723, Control_c, 0, 84, 57
2, 14723, Control_c, 4, 84, 60
2, 14724, Control_c, 4, 84, 45
2, 14725, Note_on_c, 0, 74, 0
2, 14725, Control_c, 4, 84, 57
2, 14725, Control_c, 6, 84, 57
2, 14726, Note_on_c, 0, 67, 0
2, 14726, Note_on_c, 0, 62, 0
2, 14726, Note_on_c, 4, 62, 82
2, 14726, Control_c, 6, 84, 60
2, 14726, Note_on_c, 0, 62, 79
2, 14726, Note_on_c, 0, 67, 82
2, 14726, Control_c, 6, 84, 52
2, 14726, Note_on_c, 0, 74, 79
2, 14731, Note_on_c, 1, 31, 0
2, 14731, Note_on_c, 9, 54, 53
2, 14731, Note_on_c, 9, 82, 58
2, 14732, Note_on_c, 9, 82, 0
2, 14732, Note_on_c, 9, 54, 0
2, 14750, Note_on_c, 0, 67, 0
2, 14751, Note_on_c, 0, 74, 0
2, 14756, Note_on_c, 0, 62, 0
2, 14756, Note_on_c, 0, 71, 0
2, 14756, Note_on_c, 0, 62, 91
2, 14756, Note_on_c, 0, 67, 91
2, 14756, Note_on_c, 1, 31, 114
2, 14756, Note_on_c, 0, 71, 86
2, 14757, Note_on_c, 0, 74, 82
2, 14761, Note_on_c, 9, 38, 114
2, 14761, Note_on_c, 9, 38, 0
2, 14761, Note_on_c, 9, 42, 123
2, 14761, Note_on_c, 9, 123, 85
2, 14761, Note_on_c, 9, 54, 99
2, 14762, Note_on_c, 9, 54, 0
2, 14762, Note_on_c, 9, 123, 0
2, 14762, Note_on_c, 9, 42, 0
2, 14766, Note_on_c, 4, 67, 0
2, 14786, Note_on_c, 4, 67, 67
2, 14791, Note_on_c, 4, 71, 0
2, 14791, Note_on_c, 9, 54, 56
2, 14791, Note_on_c, 9, 54, 0
2, 14796, Note_on_c, 1, 31, 0
2, 14800, Note_on_c, 4, 62, 0
2, 14811, Note_on_c, 0, 67, 0
2, 14811, Note_on_c, 0, 71, 0
2, 14811, Note_on_c, 0, 74, 0
2, 14816, Note_on_c, 0, 62, 0
2, 14816, Note_on_c, 1, 31, 79
2, 14816, Note_on_c, 4, 71, 86
2, 14821, Note_on_c, 4, 67, 0
2, 14821, Note_on_c, 9, 53, 86
2, 14821, Note_on_c, 9, 53, 0
2, 14821, Note_on_c, 9, 42, 75
2, 14821, Note_on_c, 9, 54, 38
2, 14821, Note_on_c, 9, 82, 49
2, 14822, Note_on_c, 9, 82, 0
2, 14822, Note_on_c, 9, 54, 0
2, 14822, Note_on_c, 9, 42, 0
2, 14830, Note_on_c, 1, 31, 0
2, 14846, Note_on_c, 1, 31, 106
2, 14846, Note_on_c, 4, 67, 76
2, 14851, Note_on_c, 9, 54, 45
2, 14851, Note_on_c, 9, 54, 0
2, 14851, Note_on_c, 9, 82, 56
2, 14852, Note_on_c, 9, 82, 0
2, 14855, Note_on_c, 4, 55, 0
2, 14871, Note_on_c, 4, 71, 0
2, 14876, Note_on_c, 1, 31, 0
2, 14876, Note_on_c, 6, 71, 0
2, 14876, Note_on_c, 6, 62, 0
2, 14876, Note_on_c, 4, 67, 0
2, 14876, Note_on_c, 6, 67, 0
2, 14876, Note_on_c, 1, 31, 106
2, 14877, Note_on_c, 0, 67, 69
2, 14877, Note_on_c, 0, 62, 72
2, 14877, Note_on_c, 4, 55, 86
2, 14877, Note_on_c, 6, 62, 59
2, 14877, Note_on_c, 0, 74, 72
2, 14877, Note_on_c, 0, 71, 72
2, 14878, Note_on_c, 6, 67, 55
2, 14878, Note_on_c, 6, 71, 51
2, 14880, Note_on_c, 9, 36, 127
2, 14881, Note_on_c, 9, 42, 127
2, 14881, Note_on_c, 9, 54, 85
2, 14882, Note_on_c, 9, 54, 0
2, 14882, Note_on_c, 9, 36, 0
2, 14882, Note_on_c, 9, 42, 0
2, 14891, Note_on_c, 0, 74, 0
2, 14891, Note_on_c, 0, 67, 0
2, 14896, Note_on_c, 0, 62, 0
2, 14906, Note_on_c, 0, 62, 69
2, 14906, Note_on_c, 0, 67, 79
2, 14906, Note_on_c, 0, 74, 79
2, 14910, Note_on_c, 9, 54, 75
2, 14911, Note_on_c, 1, 31, 0
2, 14912, Note_on_c, 9, 54, 0
2, 14926, Note_on_c, 0, 71, 0
2, 14935, Note_on_c, 0, 67, 0
2, 14936, Note_on_c, 0, 74, 0
2, 14936, Note_on_c, 1, 31, 110
2, 14936, Note_on_c, 0, 67, 82
2, 14936, Note_on_c, 0, 71, 76
2, 14936, Note_on_c, 0, 74, 79
2, 14937, Note_on_c, 4, 67, 86
2, 14941, Note_on_c, 9, 54, 72
2, 14941, Note_on_c, 9, 53, 86
2, 14941, Note_on_c, 9, 82, 53
2, 14941, Note_on_c, 9, 42, 66
2, 14941, Note_on_c, 9, 36, 86
2, 14942, Note_on_c, 9, 36, 0
2, 14942, Note_on_c, 9, 53, 0
2, 14942, Note_on_c, 9, 42, 0
2, 14942, Note_on_c, 9, 54, 0
2, 14942, Note_on_c, 9, 82, 0
2, 14951, Note_on_c, 4, 55, 0
2, 14960, Note_on_c, 0, 62, 0
2, 14961, Note_on_c, 0, 74, 0
2, 14961, Note_on_c, 0, 67, 0
2, 14966, Note_on_c, 0, 62, 72
2, 14966, Note_on_c, 0, 67, 79
2, 14966, Note_on_c, 0, 74, 79
2, 14971, Note_on_c, 1, 31, 0
2, 14971, Note_on_c, 9, 54, 72
2, 14971, Note_on_c, 9, 54, 0
2, 14971, Note_on_c, 9, 82, 75
2, 14972, Note_on_c, 9, 82, 0
2, 14991, Note_on_c, 0, 71, 0
2, 14996, Note_on_c, 0, 74, 0
2, 14996, Note_on_c, 0, 62, 0
2, 14996, Note_on_c, 1, 31, 106
2, 14996, Note_on_c, 0, 62, 82
2, 14996, Note_on_c, 0, 71, 96
2, 14996, Note_on_c, 0, 74, 96
2, 14997, Note_on_c, 4, 62, 76
2, 15001, Note_on_c, 9, 123, 99
2, 15001, Note_on_c, 9, 42, 123
2, 15001, Note_on_c, 9, 54, 85
2, 15001, Note_on_c, 9, 38, 114
2, 15001, Note_on_c, 9, 38, 0
2, 15002, Note_on_c, 9, 54, 0
2, 15002, Note_on_c, 9, 123, 0
2, 15002, Note_on_c, 9, 42, 0
2, 15026, Note_on_c, 4, 69, 90
2, 15031, Note_on_c, 9, 54, 69
2, 15031, Note_on_c, 9, 54, 0
2, 15046, Note_on_c, 4, 62, 0
2, 15051, Note_on_c, 0, 74, 0
2, 15056, Note_on_c, 0, 62, 0
2, 15056, Note_on_c, 0, 71, 0
2, 15056, Note_on_c, 0, 67, 0
2, 15060, Note_on_c, 9, 53, 82
2, 15061, Note_on_c, 9, 53, 0
2, 15061, Note_on_c, 1, 31, 0
2, 15061, Note_on_c, 9, 42, 51
2, 15061, Note_on_c, 9, 54, 58
2, 15061, Note_on_c, 9, 82, 58
2, 15062, Note_on_c, 9, 82, 0
2, 15062, Note_on_c, 9, 54, 0
2, 15062, Note_on_c, 9, 42, 0
2, 15076, Note_on_c, 4, 69, 0
2, 15081, Note_on_c, 4, 67, 0
2, 15086, Note_on_c, 1, 31, 110
2, 15086, Note_on_c, 0, 62, 76
2, 15086, Note_on_c, 0, 67, 79
2, 15086, Note_on_c, 0, 74, 89
2, 15086, Note_on_c, 4, 55, 90
2, 15086, Note_on_c, 0, 71, 74
2, 15090, Note_on_c, 9, 36, 114
2, 15091, Note_on_c, 9, 54, 53
2, 15091, Note_on_c, 9, 82, 56
2, 15092, Note_on_c, 9, 82, 0
2, 15092, Note_on_c, 9, 36, 0
2, 15092, Note_on_c, 9, 54, 0
2, 15106, Note_on_c, 0, 67, 0
2, 15110, Note_on_c, 0, 62, 0
2, 15111, Note_on_c, 0, 71, 0
2, 15116, Note_on_c, 1, 31, 0
2, 15116, Note_on_c, 0, 74, 0
2, 15116, Note_on_c, 4, 67, 76
2, 15120, Note_on_c, 9, 42, 123
2, 15121, Note_on_c, 9, 54, 75
2, 15122, Note_on_c, 9, 54, 0
2, 15122, Note_on_c, 9, 42, 0
2, 15145, Note_on_c, 1, 31, 79
2, 15146, Note_on_c, 0, 62, 62
2, 15146, Note_on_c, 0, 67, 59
2, 15146, Note_on_c, 0, 71, 64
2, 15146, Note_on_c, 0, 74, 82
2, 15146, Note_on_c, 4, 62, 51
2, 15151, Note_on_c, 9, 36, 45
2, 15151, Note_on_c, 9, 36, 0
2, 15151, Note_on_c, 9, 54, 58
2, 15152, Note_on_c, 9, 54, 0
2, 15161, Note_on_c, 1, 31, 0
2, 15176, Note_on_c, 0, 71, 0
2, 15176, Note_on_c, 0, 67, 0
2, 15176, Note_on_c, 0, 62, 0
2, 15176, Note_on_c, 1, 31, 110
2, 15176, Note_on_c, 0, 62, 74
2, 15176, Note_on_c, 0, 67, 76
2, 15177, Note_on_c, 0, 71, 76
2, 15181, Note_on_c, 9, 82, 63
2, 15181, Note_on_c, 9, 53, 86
2, 15181, Note_on_c, 9, 54, 51
2, 15181, Note_on_c, 9, 42, 49
2, 15181, Note_on_c, 9, 36, 123
2, 15181, Note_on_c, 9, 36, 0
2, 15182, Note_on_c, 9, 42, 0
2, 15182, Note_on_c, 9, 82, 0
2, 15182, Note_on_c, 9, 54, 0
2, 15182, Note_on_c, 9, 53, 0
2, 15201, Note_on_c, 0, 62, 0
2, 15201, Note_on_c, 0, 67, 0
2, 15206, Note_on_c, 0, 74, 0
2, 15206, Note_on_c, 0, 74, 79
2, 15206, Note_on_c, 4, 69, 82
2, 15206, Note_on_c, 0, 62, 79
2, 15206, Note_on_c, 0, 67, 82
2, 15211, Note_on_c, 1, 31, 0
2, 15211, Note_on_c, 9, 54, 56
2, 15211, Note_on_c, 9, 54, 0
2, 15211, Note_on_c, 9, 82, 51
2, 15212, Note_on_c, 9, 82, 0
2, 15215, Note_on_c, 4, 62, 0
2, 15231, Note_on_c, 0, 71, 0
2, 15236, Note_on_c, 0, 74, 0
2, 15236, Note_on_c, 0, 62, 0
2, 15236, Note_on_c, 0, 67, 0
2, 15236, Note_on_c, 1, 31, 110
2, 15236, Note_on_c, 0, 62, 91
2, 15236, Note_on_c, 0, 67, 91
2, 15236, Note_on_c, 0, 71, 86
2, 15237, Note_on_c, 0, 74, 82
2, 15240, Note_on_c, 9, 38, 114
2, 15241, Note_on_c, 9, 38, 0
2, 15241, Note_on_c, 9, 42, 123
2, 15241, Note_on_c, 9, 123, 91
2, 15241, Note_on_c, 9, 54, 85
2, 15242, Note_on_c, 9, 54, 0
2, 15242, Note_on_c, 9, 123, 0
2, 15242, Note_on_c, 9, 42, 0
2, 15266, Note_on_c, 4, 62, 64
2, 15270, Note_on_c, 9, 54, 28
2, 15271, Note_on_c, 9, 54, 0
2, 15271, Note_on_c, 4, 67, 0
2, 15281, Note_on_c, 1, 31, 0
2, 15291, Note_on_c, 0, 67, 0
2, 15291, Note_on_c, 0, 74, 0
2, 15291, Note_on_c, 0, 71, 0
2, 15295, Note_on_c, 0, 62, 0
2, 15296, Note_on_c, 1, 31, 79
2, 15296, Note_on_c, 4, 67, 79
2, 15300, Note_on_c, 9, 53, 82
2, 15301, Note_on_c, 9, 42, 41
2, 15301, Note_on_c, 9, 54, 51
2, 15301, Note_on_c, 9, 82, 58
2, 15302, Note_on_c, 9, 82, 0
2, 15302, Note_on_c, 9, 42, 0
2, 15302, Note_on_c, 9, 53, 0
2, 15302, Note_on_c, 9, 54, 0
2, 15306, Note_on_c, 4, 62, 0
2, 15311, Note_on_c, 1, 31, 0
2, 15320, Note_on_c, 4, 55, 0
2, 15325, Note_on_c, 1, 31, 86
2, 15326, Note_on_c, 4, 62, 67
2, 15331, Note_on_c, 9, 54, 49
2, 15331, Note_on_c, 9, 82, 58
2, 15332, Note_on_c, 9, 82, 0
2, 15332, Note_on_c, 9, 54, 0
2, 15341, Note_on_c, 9, 25, 72
2, 15342, Note_on_c, 9, 25, 0
2, 15345, Note_on_c, 1, 31, 0
2, 15346, Note_on_c, 4, 67, 0
2, 15350, Note_on_c, 4, 62, 0
2, 15351, Note_on_c, 4, 69, 0
2, 15355, Note_on_c, 1, 31, 110
2, 15356, Note_on_c, 4, 55, 90
2, 15356, Note_on_c, 0, 74, 72
2, 15356, Note_on_c, 0, 71, 72
2, 15356, Note_on_c, 0, 67, 69
2, 15356, Note_on_c, 0, 62, 72
2, 15361, Note_on_c, 9, 36, 110
2, 15361, Note_on_c, 9, 36, 0
2, 15361, Note_on_c, 9, 42, 123
2, 15361, Note_on_c, 9, 54, 91
2, 15362, Note_on_c, 9, 54, 0
2, 15362, Note_on_c, 9, 42, 0
2, 15380, Note_on_c, 0, 62, 0
2, 15381, Note_on_c, 0, 67, 0
2, 15381, Note_on_c, 0, 74, 0
2, 15386, Note_on_c, 1, 31, 0
2, 15386, Note_on_c, 0, 62, 69
2, 15386, Note_on_c, 0, 67, 79
2, 15386, Note_on_c, 0, 74, 79
2, 15391, Note_on_c, 9, 54, 49
2, 15391, Note_on_c, 9, 54, 0
2, 15411, Note_on_c, 0, 71, 0
2, 15416, Note_on_c, 0, 74, 0
2, 15416, Note_on_c, 0, 67, 0
2, 15416, Note_on_c, 0, 71, 76
2, 15416, Note_on_c, 0, 74, 79
2, 15416, Note_on_c, 4, 71, 90
2, 15416, Note_on_c, 1, 31, 106
2, 15416, Note_on_c, 0, 67, 82
2, 15420, Note_on_c, 9, 36, 114
2, 15421, Note_on_c, 9, 36, 0
2, 15421, Note_on_c, 9, 42, 61
2, 15421, Note_on_c, 9, 53, 79
2, 15421, Note_on_c, 9, 82, 56
2, 15421, Note_on_c, 9, 54, 53
2, 15422, Note_on_c, 9, 54, 0
2, 15422, Note_on_c, 9, 82, 0
2, 15422, Note_on_c, 9, 42, 0
2, 15422, Note_on_c, 9, 53, 0
2, 15441, Note_on_c, 0, 67, 0
2, 15441, Note_on_c, 0, 74, 0
2, 15441, Note_on_c, 0, 62, 0
2, 15446, Note_on_c, 1, 31, 0
2, 15446, Note_on_c, 0, 62, 72
2, 15446, Note_on_c, 0, 67, 79
2, 15446, Note_on_c, 0, 74, 79
2, 15450, Note_on_c, 9, 54, 53
2, 15451, Note_on_c, 9, 54, 0
2, 15451, Note_on_c, 9, 82, 58
2, 15452, Note_on_c, 9, 82, 0
2, 15471, Note_on_c, 0, 71, 0
2, 15476, Note_on_c, 0, 74, 0
2, 15476, Note_on_c, 0, 62, 0
2, 15476, Note_on_c, 1, 31, 110
2, 15476, Note_on_c, 0, 62, 82
2, 15476, Note_on_c, 0, 74, 96
2, 15476, Note_on_c, 4, 67, 76
2, 15476, Note_on_c, 0, 71, 96
2, 15480, Note_on_c, 9, 38, 114
2, 15481, Note_on_c, 9, 38, 0
2, 15481, Note_on_c, 9, 123, 99
2, 15481, Note_on_c, 9, 54, 106
2, 15481, Note_on_c, 9, 42, 127
2, 15481, Note_on_c, 9, 42, 0
2, 15482, Note_on_c, 9, 54, 0
2, 15482, Note_on_c, 9, 123, 0
2, 15505, Note_on_c, 4, 62, 90
2, 15510, Note_on_c, 9, 54, 58
2, 15511, Note_on_c, 9, 54, 0
2, 15535, Note_on_c, 0, 67, 0
2, 15536, Note_on_c, 0, 71, 0
2, 15536, Note_on_c, 0, 62, 0
2, 15536, Note_on_c, 0, 74, 0
2, 15540, Note_on_c, 9, 53, 76
2, 15541, Note_on_c, 9, 53, 0
2, 15541, Note_on_c, 9, 42, 56
2, 15541, Note_on_c, 9, 54, 51
2, 15541, Note_on_c, 9, 82, 53
2, 15542, Note_on_c, 9, 82, 0
2, 15542, Note_on_c, 9, 54, 0
2, 15542, Note_on_c, 9, 42, 0
2, 15546, Note_on_c, 4, 55, 0
2, 15546, Note_on_c, 1, 31, 0
2, 15555, Note_on_c, 4, 62, 0
2, 15565, Note_on_c, 4, 71, 0
2, 15566, Note_on_c, 4, 55, 86
2, 15566, Note_on_c, 0, 67, 79
2, 15566, Note_on_c, 0, 74, 89
2, 15566, Note_on_c, 0, 71, 74
2, 15566, Note_on_c, 1, 31, 106
2, 15566, Note_on_c, 0, 62, 76
2, 15571, Note_on_c, 4, 67, 0
2, 15571, Note_on_c, 9, 82, 56
2, 15571, Note_on_c, 9, 36, 114
2, 15571, Note_on_c, 9, 36, 0
2, 15571, Note_on_c, 9, 54, 49
2, 15572, Note_on_c, 9, 54, 0
2, 15572, Note_on_c, 9, 82, 0
2, 15585, Note_on_c, 0, 67, 0
2, 15586, Note_on_c, 0, 71, 0
2, 15590, Note_on_c, 0, 62, 0
2, 15596, Note_on_c, 0, 74, 0
2, 15596, Note_on_c, 4, 71, 82
2, 15601, Note_on_c, 1, 31, 0
2, 15601, Note_on_c, 9, 42, 127
2, 15601, Note_on_c, 9, 42, 0
2, 15601, Note_on_c, 9, 54, 99
2, 15602, Note_on_c, 9, 54, 0
2, 15626, Note_on_c, 0, 62, 62
2, 15626, Note_on_c, 1, 31, 102
2, 15626, Note_on_c, 0, 74, 82
2, 15626, Note_on_c, 0, 71, 64
2, 15626, Note_on_c, 0, 67, 59
2, 15630, Note_on_c, 9, 36, 35
2, 15631, Note_on_c, 9, 36, 0
2, 15631, Note_on_c, 9, 54, 45
2, 15632, Note_on_c, 9, 54, 0
2, 15645, Note_on_c, 1, 31, 0
2, 15651, Note_on_c, 0, 67, 0
2, 15651, Note_on_c, 0, 71, 0
2, 15651, Note_on_c, 0, 62, 0
2, 15656, Note_on_c, 0, 67, 76
2, 15656, Note_on_c, 0, 71, 76
2, 15656, Note_on_c, 1, 31, 106
2, 15656, Note_on_c, 0, 62, 74
2, 15656, Note_on_c, 4, 67, 74
2, 15660, Note_on_c, 9, 36, 127
2, 15661, Note_on_c, 9, 36, 0
2, 15661, Note_on_c, 9, 54, 45
2, 15661, Note_on_c, 9, 82, 56
2, 15661, Note_on_c, 9, 53, 82
2, 15661, Note_on_c, 9, 53, 0
2, 15661, Note_on_c, 9, 42, 51
2, 15662, Note_on_c, 9, 42, 0
2, 15662, Note_on_c, 9, 82, 0
2, 15662, Note_on_c, 9, 54, 0
2, 15685, Note_on_c, 0, 74, 0
2, 15686, Note_on_c, 0, 62, 0
2, 15686, Note_on_c, 0, 67, 0
2, 15686, Note_on_c, 0, 74, 79
2, 15686, Note_on_c, 4, 62, 82
2, 15686, Note_on_c, 0, 62, 79
2, 15686, Note_on_c, 0, 67, 82
2, 15690, Note_on_c, 9, 54, 53
2, 15691, Note_on_c, 9, 54, 0
2, 15691, Note_on_c, 1, 31, 0
2, 15691, Note_on_c, 9, 82, 58
2, 15692, Note_on_c, 9, 82, 0
2, 15710, Note_on_c, 0, 67, 0
2, 15711, Note_on_c, 0, 74, 0
2, 15715, Note_on_c, 0, 62, 0
2, 15716, Note_on_c, 0, 71, 0
2, 15716, Note_on_c, 0, 62, 91
2, 15716, Note_on_c, 0, 71, 86
2, 15716, Note_on_c, 1, 31, 114
2, 15716, Note_on_c, 0, 74, 82
2, 15716, Note_on_c, 0, 67, 91
2, 15720, Note_on_c, 9, 38, 114
2, 15721, Note_on_c, 9, 38, 0
2, 15721, Note_on_c, 9, 42, 123
2, 15721, Note_on_c, 9, 123, 85
2, 15721, Note_on_c, 9, 54, 99
2, 15722, Note_on_c, 9, 54, 0
2, 15722, Note_on_c, 9, 123, 0
2, 15722, Note_on_c, 9, 42, 0
2, 15726, Note_on_c, 4, 67, 0
2, 15745, Note_on_c, 4, 67, 67
2, 15750, Note_on_c, 9, 54, 56
2, 15751, Note_on_c, 9, 54, 0
2, 15751, Note_on_c, 4, 71, 0
2, 15756, Note_on_c, 1, 31, 0
2, 15761, Note_on_c, 4, 62, 0
2, 15770, Note_on_c, 0, 67, 0
2, 15771, Note_on_c, 0, 71, 0
2, 15771, Note_on_c, 0, 74, 0
2, 15775, Note_on_c, 0, 62, 0
2, 15775, Note_on_c, 1, 31, 79
2, 15776, Note_on_c, 4, 71, 86
2, 15781, Note_on_c, 4, 67, 0
2, 15781, Note_on_c, 9, 42, 75
2, 15781, Note_on_c, 9, 53, 86
2, 15781, Note_on_c, 9, 53, 0
2, 15781, Note_on_c, 9, 82, 49
2, 15781, Note_on_c, 9, 54, 38
2, 15782, Note_on_c, 9, 54, 0
2, 15782, Note_on_c, 9, 82, 0
2, 15782, Note_on_c, 9, 42, 0
2, 15790, Note_on_c, 1, 31, 0
2, 15806, Note_on_c, 1, 31, 106
2, 15806, Note_on_c, 4, 67, 76
2, 15810, Note_on_c, 9, 54, 45
2, 15811, Note_on_c, 9, 54, 0
2, 15811, Note_on_c, 9, 82, 56
2, 15812, Note_on_c, 9, 82, 0
2, 15815, Note_on_c, 4, 55, 0
2, 15816, Note_on_c, 1, 31, 106
2, 15827, Note_on_c, 1, 31, 106
2, 15831, Note_on_c, 4, 71, 0
2, 15836, Note_on_c, 6, 71, 0
2, 15836, Note_on_c, 6, 67, 0
2, 15836, Note_on_c, 1, 31, 0
2, 15836, Note_on_c, 6, 62, 0
2, 15836, Note_on_c, 4, 67, 0
2, 15838, Note_on_c, 0, 74, 72
2, 15838, Note_on_c, 0, 67, 69
2, 15838, Note_on_c, 0, 71, 72
2, 15838, Note_on_c, 1, 31, 106
2, 15838, Note_on_c, 0, 62, 72
2, 15838, Note_on_c, 4, 55, 86
2, 15839, Note_on_c, 6, 62, 59
2, 15839, Note_on_c, 6, 71, 51
2, 15839, Note_on_c, 6, 67, 55
2, 15842, Note_on_c, 1, 31, 0
2, 15842, Note_on_c, 9, 42, 127
2, 15842, Note_on_c, 9, 36, 127
2, 15842, Note_on_c, 9, 54, 85
2, 15843, Note_on_c, 9, 54, 0
2, 15843, Note_on_c, 9, 36, 0
2, 15843, Note_on_c, 9, 42, 0
2, 15846, Note_on_c, 1, 31, 0
2, 15852, Note_on_c, 0, 67, 0
2, 15852, Note_on_c, 0, 74, 0
2, 15852, Note_on_c, 1, 31, 0
2, 15852, Note_on_c, 1, 33, 106
2, 15853, Note_on_c, 0, 62, 0
2, 15853, Note_on_c, 0, 60, 72
2, 15853, Note_on_c, 0, 48, 72
2, 15854, Note_on_c, 4, 55, 0
2, 15854, Note_on_c, 0, 71, 0
2, 15854, Note_on_c, 6, 60, 61
2, 15854, Note_on_c, 4, 45, 86
2, 15855, Note_on_c, 6, 67, 0
2, 15855, Note_on_c, 6, 62, 0
2, 15855, Note_on_c, 6, 57, 64
2, 15855, Note_on_c, 6, 52, 57
2, 15856, Note_on_c, 6, 71, 0
2, 15857, Note_on_c, 0, 60, 0
2, 15861, Control_c, 1, 84, 31
2, 15861, Control_c, 0, 84, 62
2, 15862, Control_c, 0, 84, 71
2, 15863, Control_c, 4, 84, 55
2, 15863, Control_c, 6, 84, 62
2, 15864, Control_c, 6, 84, 71
2, 15864, Control_c, 6, 84, 67
2, 15867, Note_on_c, 0, 52, 69
2, 15867, Note_on_c, 0, 60, 79
2, 15867, Note_on_c, 0, 57, 79
2, 15872, Note_on_c, 1, 33, 0
2, 15872, Note_on_c, 9, 54, 75
2, 15873, Note_on_c, 9, 54, 0
2, 15887, Note_on_c, 0, 48, 0
2, 15892, Note_on_c, 0, 57, 0
2, 15892, Note_on_c, 0, 60, 0
2, 15897, Note_on_c, 1, 33, 110
2, 15897, Note_on_c, 0, 57, 82
2, 15897, Note_on_c, 4, 60, 90
2, 15897, Note_on_c, 0, 60, 79
2, 15897, Note_on_c, 0, 48, 76
2, 15902, Note_on_c, 9, 36, 86
2, 15902, Note_on_c, 9, 42, 66
2, 15902, Note_on_c, 9, 54, 72
2, 15902, Note_on_c, 9, 53, 86
2, 15902, Note_on_c, 9, 82, 53
2, 15903, Note_on_c, 9, 82, 0
2, 15903, Note_on_c, 9, 42, 0
2, 15903, Note_on_c, 9, 53, 0
2, 15903, Note_on_c, 9, 36, 0
2, 15903, Note_on_c, 9, 54, 0
2, 15922, Note_on_c, 0, 52, 0
2, 15927, Note_on_c, 0, 60, 0
2, 15927, Note_on_c, 0, 57, 0
2, 15927, Note_on_c, 0, 57, 79
2, 15927, Note_on_c, 0, 52, 72
2, 15927, Note_on_c, 0, 60, 79
2, 15932, Note_on_c, 1, 33, 0
2, 15932, Note_on_c, 9, 82, 75
2, 15932, Note_on_c, 9, 54, 72
2, 15932, Note_on_c, 9, 54, 0
2, 15933, Note_on_c, 9, 82, 0
2, 15952, Note_on_c, 0, 52, 0
2, 15952, Note_on_c, 0, 48, 0
2, 15952, Note_on_c, 0, 60, 0
2, 15957, Note_on_c, 0, 48, 96
2, 15957, Note_on_c, 4, 57, 69
2, 15957, Note_on_c, 0, 60, 96
2, 15957, Note_on_c, 1, 33, 106
2, 15957, Note_on_c, 0, 52, 82
2, 15961, Note_on_c, 9, 123, 99
2, 15962, Note_on_c, 9, 123, 0
2, 15962, Note_on_c, 9, 54, 85
2, 15962, Note_on_c, 9, 42, 123
2, 15962, Note_on_c, 9, 38, 114
2, 15963, Note_on_c, 9, 38, 0
2, 15963, Note_on_c, 9, 42, 0
2, 15963, Note_on_c, 9, 54, 0
2, 15987, Note_on_c, 4, 64, 86
2, 15991, Note_on_c, 9, 54, 69
2, 15993, Note_on_c, 9, 54, 0
2, 15997, Note_on_c, 4, 45, 0
2, 16012, Note_on_c, 0, 57, 0
2, 16017, Note_on_c, 0, 60, 0
2, 16017, Note_on_c, 0, 52, 0
2, 16017, Note_on_c, 0, 48, 0
2, 16022, Note_on_c, 1, 33, 0
2, 16022, Note_on_c, 9, 82, 58
2, 16022, Note_on_c, 9, 53, 82
2, 16022, Note_on_c, 9, 54, 58
2, 16022, Note_on_c, 9, 42, 51
2, 16023, Note_on_c, 9, 42, 0
2, 16023, Note_on_c, 9, 54, 0
2, 16023, Note_on_c, 9, 82, 0
2, 16023, Note_on_c, 9, 53, 0
2, 16027, Note_on_c, 4, 64, 0
2, 16042, Note_on_c, 4, 60, 0
2, 16047, Note_on_c, 4, 57, 0
2, 16047, Note_on_c, 0, 48, 74
2, 16047, Note_on_c, 0, 57, 79
2, 16047, Note_on_c, 0, 52, 76
2, 16047, Note_on_c, 1, 33, 110
2, 16047, Note_on_c, 0, 60, 89
2, 16048, Note_on_c, 4, 45, 86
2, 16052, Note_on_c, 9, 82, 56
2, 16052, Note_on_c, 9, 36, 114
2, 16052, Note_on_c, 9, 54, 53
2, 16053, Note_on_c, 9, 54, 0
2, 16053, Note_on_c, 9, 82, 0
2, 16053, Note_on_c, 9, 36, 0
2, 16067, Note_on_c, 0, 52, 0
2, 16067, Note_on_c, 0, 48, 0
2, 16067, Note_on_c, 0, 57, 0
2, 16072, Note_on_c, 0, 60, 0
2, 16077, Note_on_c, 1, 33, 0
2, 16077, Note_on_c, 4, 60, 80
2, 16082, Note_on_c, 9, 42, 123
2, 16082, Note_on_c, 9, 54, 75
2, 16083, Note_on_c, 9, 54, 0
2, 16083, Note_on_c, 9, 42, 0
2, 16107, Note_on_c, 0, 48, 64
2, 16107, Note_on_c, 0, 57, 59
2, 16107, Note_on_c, 0, 60, 82
2, 16107, Note_on_c, 1, 33, 79
2, 16107, Note_on_c, 0, 52, 62
2, 16112, Note_on_c, 9, 54, 58
2, 16112, Note_on_c, 9, 36, 45
2, 16112, Note_on_c, 9, 36, 0
2, 16113, Note_on_c, 9, 54, 0
2, 16121, Note_on_c, 1, 33, 0
2, 16132, Note_on_c, 0, 57, 0
2, 16132, Note_on_c, 0, 52, 0
2, 16132, Note_on_c, 0, 48, 0
2, 16137, Note_on_c, 0, 60, 0
2, 16137, Note_on_c, 0, 62, 62
2, 16138, Note_on_c, 4, 60, 0
2, 16138, Note_on_c, 4, 55, 90
2, 16138, Note_on_c, 4, 67, 76
2, 16139, Note_on_c, 6, 60, 0
2, 16139, Note_on_c, 4, 45, 0
2, 16139, Note_on_c, 6, 62, 59
2, 16140, Note_on_c, 6, 52, 0
2, 16140, Note_on_c, 6, 57, 0
2, 16140, Note_on_c, 6, 71, 51
2, 16140, Note_on_c, 6, 67, 55
2, 16140, Note_on_c, 1, 31, 110
2, 16141, Note_on_c, 0, 62, 0
2, 16142, Note_on_c, 9, 53, 86
2, 16142, Note_on_c, 9, 54, 51
2, 16142, Note_on_c, 9, 82, 63
2, 16142, Note_on_c, 9, 36, 123
2, 16142, Note_on_c, 9, 36, 0
2, 16142, Note_on_c, 9, 42, 49
2, 16143, Note_on_c, 9, 42, 0
2, 16143, Note_on_c, 9, 54, 0
2, 16143, Note_on_c, 9, 82, 0
2, 16143, Note_on_c, 9, 53, 0
2, 16146, Control_c, 0, 84, 60
2, 16147, Control_c, 4, 84, 45
2, 16147, Control_c, 4, 84, 60
2, 16148, Control_c, 6, 84, 52
2, 16148, Control_c, 6, 84, 60
2, 16149, Control_c, 6, 84, 57
2, 16167, Note_on_c, 0, 67, 82
2, 16167, Note_on_c, 0, 74, 79
2, 16167, Note_on_c, 4, 69, 82
2, 16167, Note_on_c, 0, 62, 79
2, 16172, Note_on_c, 1, 31, 0
2, 16172, Note_on_c, 9, 54, 56
2, 16172, Note_on_c, 9, 82, 51
2, 16173, Note_on_c, 9, 82, 0
2, 16173, Note_on_c, 9, 54, 0
2, 16197, Note_on_c, 0, 74, 0
2, 16197, Note_on_c, 0, 62, 0
2, 16197, Note_on_c, 0, 67, 0
2, 16197, Note_on_c, 1, 31, 110
2, 16197, Note_on_c, 0, 62, 91
2, 16198, Note_on_c, 0, 67, 91
2, 16198, Note_on_c, 0, 74, 82
2, 16198, Note_on_c, 0, 71, 86
2, 16201, Note_on_c, 9, 123, 91
2, 16201, Note_on_c, 9, 38, 114
2, 16202, Note_on_c, 9, 123, 0
2, 16202, Note_on_c, 9, 42, 123
2, 16202, Note_on_c, 9, 54, 85
2, 16203, Note_on_c, 9, 54, 0
2, 16203, Note_on_c, 9, 42, 0
2, 16203, Note_on_c, 9, 38, 0
2, 16227, Note_on_c, 4, 62, 64
2, 16232, Note_on_c, 4, 67, 0
2, 16232, Note_on_c, 9, 54, 28
2, 16233, Note_on_c, 9, 54, 0
2, 16242, Note_on_c, 1, 31, 0
2, 16252, Note_on_c, 0, 67, 0
2, 16252, Note_on_c, 0, 71, 0
2, 16252, Note_on_c, 0, 74, 0
2, 16257, Note_on_c, 0, 62, 0
2, 16257, Note_on_c, 4, 67, 79
2, 16257, Note_on_c, 1, 31, 79
2, 16262, Note_on_c, 9, 54, 51
2, 16262, Note_on_c, 9, 82, 58
2, 16262, Note_on_c, 9, 42, 41
2, 16262, Note_on_c, 9, 53, 82
2, 16263, Note_on_c, 9, 53, 0
2, 16263, Note_on_c, 9, 82, 0
2, 16263, Note_on_c, 9, 54, 0
2, 16263, Note_on_c, 9, 42, 0
2, 16267, Note_on_c, 4, 62, 0
2, 16272, Note_on_c, 1, 31, 0
2, 16282, Note_on_c, 4, 55, 0
2, 16287, Note_on_c, 4, 62, 67
2, 16287, Note_on_c, 1, 31, 86
2, 16292, Note_on_c, 9, 82, 58
2, 16292, Note_on_c, 9, 54, 49
2, 16292, Note_on_c, 9, 25, 72
2, 16293, Note_on_c, 9, 25, 0
2, 16293, Note_on_c, 9, 54, 0
2, 16293, Note_on_c, 9, 82, 0
2, 16306, Note_on_c, 1, 31, 0
2, 16307, Note_on_c, 4, 67, 0
2, 16312, Note_on_c, 4, 69, 0
2, 16312, Note_on_c, 4, 62, 0
2, 16317, Note_on_c, 6, 57, 64
2, 16318, Note_on_c, 6, 67, 0
2, 16318, Note_on_c, 6, 62, 0
2, 16318, Note_on_c, 6, 52, 57
2, 16318, Note_on_c, 6, 60, 61
2, 16319, Note_on_c, 6, 71, 0
2, 16319, Note_on_c, 1, 33, 110
2, 16319, Note_on_c, 0, 60, 72
2, 16319, Note_on_c, 0, 48, 72
2, 16320, Note_on_c, 4, 45, 90
2, 16320, Note_on_c, 0, 57, 69
2, 16320, Note_on_c, 0, 52, 72
2, 16322, Note_on_c, 9, 42, 123
2, 16322, Note_on_c, 9, 54, 91
2, 16322, Note_on_c, 9, 36, 110
2, 16322, Note_on_c, 9, 36, 0
2, 16323, Note_on_c, 9, 42, 0
2, 16323, Note_on_c, 9, 54, 0
2, 16326, Control_c, 6, 84, 62
2, 16327, Control_c, 6, 84, 67
2, 16327, Control_c, 6, 84, 71
2, 16347, Note_on_c, 0, 60, 0
2, 16347, Note_on_c, 1, 33, 0
2, 16347, Note_on_c, 0, 52, 0
2, 16347, Note_on_c, 0, 57, 0
2, 16347, Note_on_c, 0, 52, 69
2, 16347, Note_on_c, 0, 60, 79
2, 16347, Note_on_c, 0, 57, 79
2, 16352, Note_on_c, 9, 54, 49
2, 16352, Note_on_c, 9, 54, 0
2, 16372, Note_on_c, 0, 57, 0
2, 16372, Note_on_c, 0, 60, 0
2, 16377, Note_on_c, 0, 48, 0
2, 16377, Note_on_c, 4, 60, 90
2, 16377, Note_on_c, 0, 48, 76
2, 16377, Note_on_c, 0, 57, 82
2, 16377, Note_on_c, 1, 33, 106
2, 16377, Note_on_c, 0, 60, 79
2, 16381, Note_on_c, 9, 36, 114
2, 16382, Note_on_c, 9, 82, 56
2, 16382, Note_on_c, 9, 54, 53
2, 16382, Note_on_c, 9, 42, 61
2, 16382, Note_on_c, 9, 53, 79
2, 16383, Note_on_c, 9, 53, 0
2, 16383, Note_on_c, 9, 82, 0
2, 16383, Note_on_c, 9, 42, 0
2, 16383, Note_on_c, 9, 36, 0
2, 16383, Note_on_c, 9, 54, 0
2, 16402, Note_on_c, 0, 52, 0
2, 16402, Note_on_c, 0, 60, 0
2, 16402, Note_on_c, 0, 57, 0
2, 16407, Note_on_c, 1, 33, 0
2, 16407, Note_on_c, 0, 52, 72
2, 16407, Note_on_c, 0, 57, 79
2, 16407, Note_on_c, 0, 60, 79
2, 16411, Note_on_c, 9, 54, 53
2, 16412, Note_on_c, 9, 82, 58
2, 16413, Note_on_c, 9, 82, 0
2, 16413, Note_on_c, 9, 54, 0
2, 16436, Note_on_c, 0, 60, 0
2, 16437, Note_on_c, 0, 52, 0
2, 16437, Note_on_c, 0, 48, 0
2, 16437, Note_on_c, 1, 33, 110
2, 16437, Note_on_c, 0, 60, 96
2, 16438, Note_on_c, 0, 52, 82
2, 16438, Note_on_c, 4, 57, 74
2, 16438, Note_on_c, 0, 48, 96
2, 16441, Note_on_c, 9, 123, 99
2, 16442, Note_on_c, 9, 123, 0
2, 16442, Note_on_c, 9, 42, 127
2, 16442, Note_on_c, 9, 38, 114
2, 16442, Note_on_c, 9, 54, 106
2, 16443, Note_on_c, 9, 54, 0
2, 16443, Note_on_c, 9, 38, 0
2, 16443, Note_on_c, 9, 42, 0
2, 16467, Note_on_c, 4, 64, 82
2, 16472, Note_on_c, 9, 54, 58
2, 16473, Note_on_c, 9, 54, 0
2, 16486, Note_on_c, 4, 57, 0
2, 16487, Note_on_c, 4, 45, 0
2, 16497, Note_on_c, 0, 52, 0
2, 16497, Note_on_c, 0, 60, 0
2, 16497, Note_on_c, 0, 57, 0
2, 16497, Note_on_c, 0, 48, 0
2, 16497, Note_on_c, 4, 64, 0
2, 16497, Note_on_c, 4, 57, 67
2, 16502, Note_on_c, 9, 54, 51
2, 16502, Note_on_c, 9, 42, 56
2, 16502, Note_on_c, 9, 53, 76
2, 16502, Note_on_c, 9, 53, 0
2, 16502, Note_on_c, 9, 82, 53
2, 16503, Note_on_c, 9, 82, 0
2, 16503, Note_on_c, 9, 42, 0
2, 16503, Note_on_c, 9, 54, 0
2, 16507, Note_on_c, 1, 33, 0
2, 16511, Note_on_c, 4, 57, 0
2, 16512, Note_on_c, 4, 60, 0
2, 16527, Note_on_c, 0, 60, 89
2, 16527, Note_on_c, 0, 52, 76
2, 16527, Note_on_c, 0, 48, 74
2, 16527, Note_on_c, 1, 33, 106
2, 16527, Note_on_c, 0, 57, 79
2, 16527, Note_on_c, 4, 45, 86
2, 16532, Note_on_c, 9, 82, 56
2, 16532, Note_on_c, 9, 36, 114
2, 16532, Note_on_c, 9, 36, 0
2, 16532, Note_on_c, 9, 54, 49
2, 16533, Note_on_c, 9, 54, 0
2, 16533, Note_on_c, 9, 82, 0
2, 16547, Note_on_c, 0, 57, 0
2, 16552, Note_on_c, 0, 48, 0
2, 16552, Note_on_c, 0, 52, 0
2, 16557, Note_on_c, 0, 60, 0
2, 16557, Note_on_c, 4, 60, 90
2, 16562, Note_on_c, 1, 33, 0
2, 16562, Note_on_c, 9, 42, 127
2, 16562, Note_on_c, 9, 42, 0
2, 16562, Note_on_c, 9, 54, 99
2, 16563, Note_on_c, 9, 54, 0
2, 16587, Note_on_c, 1, 33, 102
2, 16587, Note_on_c, 0, 60, 82
2, 16587, Note_on_c, 0, 48, 64
2, 16587, Note_on_c, 0, 57, 59
2, 16587, Note_on_c, 0, 52, 62
2, 16591, Note_on_c, 9, 36, 35
2, 16592, Note_on_c, 9, 54, 45
2, 16593, Note_on_c, 9, 54, 0
2, 16593, Note_on_c, 9, 36, 0
2, 16602, Note_on_c, 1, 33, 0
2, 16602, Note_on_c, 0, 62, 62
2, 16602, Note_on_c, 1, 31, 102
2, 16603, Note_on_c, 0, 48, 0
2, 16603, Note_on_c, 0, 60, 0
2, 16603, Note_on_c, 0, 67, 59
2, 16604, Note_on_c, 0, 57, 0
2, 16604, Note_on_c, 0, 52, 0
2, 16604, Note_on_c, 0, 71, 64
2, 16604, Note_on_c, 0, 74, 82
2, 16605, Note_on_c, 4, 60, 0
2, 16605, Note_on_c, 4, 45, 0
2, 16605, Note_on_c, 4, 55, 86
2, 16605, Note_on_c, 4, 71, 82
2, 16606, Note_on_c, 6, 57, 0
2, 16606, Note_on_c, 6, 52, 0
2, 16606, Note_on_c, 6, 67, 55
2, 16606, Note_on_c, 6, 71, 51
2, 16607, Note_on_c, 6, 60, 0
2, 16607, Note_on_c, 1, 31, 0
2, 16607, Note_on_c, 6, 62, 59
2, 16611, Control_c, 0, 84, 60
2, 16611, Control_c, 1, 84, 33
2, 16612, Note_on_c, 0, 71, 0
2, 16612, Note_on_c, 0, 67, 0
2, 16612, Note_on_c, 0, 62, 0
2, 16612, Control_c, 0, 84, 48
2, 16612, Control_c, 0, 84, 52
2, 16613, Control_c, 0, 84, 57
2, 16613, Control_c, 4, 84, 60
2, 16614, Control_c, 4, 84, 45
2, 16615, Control_c, 6, 84, 52
2, 16615, Control_c, 6, 84, 57
2, 16616, Control_c, 6, 84, 60
2, 16617, Note_on_c, 0, 71, 76
2, 16617, Note_on_c, 1, 31, 106
2, 16617, Note_on_c, 0, 62, 74
2, 16617, Note_on_c, 0, 67, 76
2, 16617, Note_on_c, 4, 67, 74
2, 16621, Note_on_c, 9, 36, 127
2, 16622, Note_on_c, 9, 54, 45
2, 16622, Note_on_c, 9, 42, 51
2, 16622, Note_on_c, 9, 53, 82
2, 16622, Note_on_c, 9, 82, 56
2, 16623, Note_on_c, 9, 82, 0
2, 16623, Note_on_c, 9, 53, 0
2, 16623, Note_on_c, 9, 36, 0
2, 16623, Note_on_c, 9, 42, 0
2, 16623, Note_on_c, 9, 54, 0
2, 16646, Note_on_c, 0, 74, 0
2, 16647, Note_on_c, 0, 67, 0
2, 16647, Note_on_c, 0, 62, 0
2, 16647, Note_on_c, 0, 67, 82
2, 16647, Note_on_c, 0, 62, 79
2, 16647, Note_on_c, 0, 74, 79
2, 16647, Note_on_c, 4, 62, 82
2, 16652, Note_on_c, 1, 31, 0
2, 16652, Note_on_c, 9, 82, 58
2, 16652, Note_on_c, 9, 54, 53
2, 16653, Note_on_c, 9, 54, 0
2, 16653, Note_on_c, 9, 82, 0
2, 16671, Note_on_c, 0, 67, 0
2, 16672, Note_on_c, 0, 74, 0
2, 16677, Note_on_c, 0, 62, 0
2, 16677, Note_on_c, 0, 71, 0
2, 16677, Note_on_c, 0, 71, 86
2, 16677, Note_on_c, 1, 31, 114
2, 16677, Note_on_c, 0, 62, 91
2, 16677, Note_on_c, 0, 67, 91
2, 16678, Note_on_c, 0, 74, 82
2, 16681, Note_on_c, 9, 123, 85
2, 16682, Note_on_c, 9, 123, 0
2, 16682, Note_on_c, 9, 54, 99
2, 16682, Note_on_c, 9, 38, 114
2, 16682, Note_on_c, 9, 38, 0
2, 16682, Note_on_c, 9, 42, 123
2, 16683, Note_on_c, 9, 42, 0
2, 16683, Note_on_c, 9, 54, 0
2, 16687, Note_on_c, 4, 67, 0
2, 16707, Note_on_c, 4, 67, 67
2, 16712, Note_on_c, 4, 71, 0
2, 16712, Note_on_c, 9, 54, 56
2, 16712, Note_on_c, 9, 54, 0
2, 16717, Note_on_c, 1, 31, 0
2, 16721, Note_on_c, 4, 62, 0
2, 16732, Note_on_c, 0, 71, 0
2, 16732, Note_on_c, 0, 67, 0
2, 16732, Note_on_c, 0, 74, 0
2, 16737, Note_on_c, 0, 62, 0
2, 16737, Note_on_c, 1, 31, 79
2, 16737, Note_on_c, 4, 71, 86
2, 16742, Note_on_c, 4, 67, 0
2, 16742, Note_on_c, 9, 53, 86
2, 16742, Note_on_c, 9, 53, 0
2, 16742, Note_on_c, 9, 42, 75
2, 16742, Note_on_c, 9, 82, 49
2, 16742, Note_on_c, 9, 54, 38
2, 16743, Note_on_c, 9, 54, 0
2, 16743, Note_on_c, 9, 82, 0
2, 16743, Note_on_c, 9, 42, 0
2, 16751, Note_on_c, 1, 31, 0
2, 16767, Note_on_c, 1, 31, 106
2, 16767, Note_on_c, 4, 67, 76
2, 16772, Note_on_c, 9, 54, 45
2, 16772, Note_on_c, 9, 54, 0
2, 16772, Note_on_c, 9, 82, 56
2, 16773, Note_on_c, 9, 82, 0
2, 16776, Note_on_c, 4, 55, 0
2, 16792, Note_on_c, 4, 71, 0
2, 16797, Note_on_c, 1, 31, 0
2, 16797, Note_on_c, 6, 62, 0
2, 16797, Note_on_c, 6, 67, 0
2, 16797, Note_on_c, 4, 67, 0
2, 16797, Note_on_c, 6, 71, 0
2, 16797, Note_on_c, 1, 31, 106
2, 16798, Note_on_c, 0, 71, 72
2, 16798, Note_on_c, 0, 67, 69
2, 16798, Note_on_c, 0, 74, 72
2, 16798, Note_on_c, 0, 62, 72
2, 16798, Note_on_c, 4, 55, 86
2, 16798, Note_on_c, 6, 62, 59
2, 16799, Note_on_c, 6, 67, 55
2, 16799, Note_on_c, 6, 71, 51
2, 16801, Note_on_c, 9, 36, 127
2, 16802, Note_on_c, 9, 42, 127
2, 16802, Note_on_c, 9, 54, 85
2, 16803, Note_on_c, 9, 54, 0
2, 16803, Note_on_c, 9, 36, 0
2, 16803, Note_on_c, 9, 42, 0
2, 16812, Note_on_c, 0, 74, 0
2, 16812, Note_on_c, 0, 67, 0
2, 16817, Note_on_c, 0, 62, 0
2, 16827, Note_on_c, 0, 62, 69
2, 16827, Note_on_c, 0, 67, 79
2, 16827, Note_on_c, 0, 74, 79
2, 16831, Note_on_c, 9, 54, 75
2, 16832, Note_on_c, 1, 31, 0
2, 16833, Note_on_c, 9, 54, 0
2, 16847, Note_on_c, 0, 71, 0
2, 16856, Note_on_c, 0, 67, 0
2, 16857, Note_on_c, 0, 74, 0
2, 16857, Note_on_c, 0, 71, 76
2, 16857, Note_on_c, 0, 67, 82
2, 16857, Note_on_c, 0, 74, 79
2, 16857, Note_on_c, 1, 31, 110
2, 16858, Note_on_c, 4, 67, 86
2, 16862, Note_on_c, 9, 82, 53
2, 16862, Note_on_c, 9, 53, 86
2, 16862, Note_on_c, 9, 54, 72
2, 16862, Note_on_c, 9, 42, 66
2, 16862, Note_on_c, 9, 36, 86
2, 16863, Note_on_c, 9, 36, 0
2, 16863, Note_on_c, 9, 53, 0
2, 16863, Note_on_c, 9, 42, 0
2, 16863, Note_on_c, 9, 82, 0
2, 16863, Note_on_c, 9, 54, 0
2, 16872, Note_on_c, 4, 55, 0
2, 16881, Note_on_c, 0, 62, 0
2, 16882, Note_on_c, 0, 74, 0
2, 16882, Note_on_c, 0, 67, 0
2, 16887, Note_on_c, 0, 62, 72
2, 16887, Note_on_c, 0, 74, 79
2, 16887, Note_on_c, 0, 67, 79
2, 16892, Note_on_c, 1, 31, 0
2, 16892, Note_on_c, 9, 54, 72
2, 16892, Note_on_c, 9, 54, 0
2, 16892, Note_on_c, 9, 82, 75
2, 16893, Note_on_c, 9, 82, 0
2, 16912, Note_on_c, 0, 71, 0
2, 16917, Note_on_c, 0, 74, 0
2, 16917, Note_on_c, 0, 62, 0
2, 16917, Note_on_c, 0, 74, 96
2, 16917, Note_on_c, 1, 31, 106
2, 16917, Note_on_c, 0, 71, 96
2, 16917, Note_on_c, 0, 62, 82
2, 16918, Note_on_c, 4, 62, 76
2, 16921, Note_on_c, 9, 123, 99
2, 16922, Note_on_c, 9, 123, 0
2, 16922, Note_on_c, 9, 42, 123
2, 16922, Note_on_c, 9, 54, 85
2, 16922, Note_on_c, 9, 38, 114
2, 16922, Note_on_c, 9, 38, 0
2, 16923, Note_on_c, 9, 54, 0
2, 16923, Note_on_c, 9, 42, 0
2, 16947, Note_on_c, 4, 69, 90
2, 16952, Note_on_c, 9, 54, 69
2, 16952, Note_on_c, 9, 54, 0
2, 16967, Note_on_c, 4, 62, 0
2, 16972, Note_on_c, 0, 74, 0
2, 16977, Note_on_c, 0, 71, 0
2, 16977, Note_on_c, 0, 62, 0
2, 16977, Note_on_c, 0, 67, 0
2, 16981, Note_on_c, 9, 53, 82
2, 16982, Note_on_c, 9, 53, 0
2, 16982, Note_on_c, 1, 31, 0
2, 16982, Note_on_c, 9, 54, 58
2, 16982, Note_on_c, 9, 82, 58
2, 16982, Note_on_c, 9, 42, 51
2, 16983, Note_on_c, 9, 42, 0
2, 16983, Note_on_c, 9, 82, 0
2, 16983, Note_on_c, 9, 54, 0
2, 16997, Note_on_c, 4, 69, 0
2, 17002, Note_on_c, 4, 67, 0
2, 17007, Note_on_c, 0, 67, 79
2, 17007, Note_on_c, 0, 74, 89
2, 17007, Note_on_c, 4, 55, 90
2, 17007, Note_on_c, 0, 62, 76
2, 17007, Note_on_c, 0, 71, 74
2, 17007, Note_on_c, 1, 31, 110
2, 17011, Note_on_c, 9, 36, 114
2, 17012, Note_on_c, 9, 82, 56
2, 17012, Note_on_c, 9, 54, 53
2, 17013, Note_on_c, 9, 54, 0
2, 17013, Note_on_c, 9, 36, 0
2, 17013, Note_on_c, 9, 82, 0
2, 17027, Note_on_c, 0, 67, 0
2, 17031, Note_on_c, 0, 62, 0
2, 17032, Note_on_c, 0, 71, 0
2, 17037, Note_on_c, 1, 31, 0
2, 17037, Note_on_c, 0, 74, 0
2, 17037, Note_on_c, 4, 67, 76
2, 17041, Note_on_c, 9, 42, 123
2, 17042, Note_on_c, 9, 54, 75
2, 17043, Note_on_c, 9, 54, 0
2, 17043, Note_on_c, 9, 42, 0
2, 17066, Note_on_c, 1, 31, 79
2, 17067, Note_on_c, 0, 74, 82
2, 17067, Note_on_c, 0, 71, 64
2, 17067, Note_on_c, 0, 62, 62
2, 17067, Note_on_c, 0, 67, 59
2, 17067, Note_on_c, 4, 62, 51
2, 17072, Note_on_c, 9, 36, 45
2, 17072, Note_on_c, 9, 36, 0
2, 17072, Note_on_c, 9, 54, 58
2, 17073, Note_on_c, 9, 54, 0
2, 17082, Note_on_c, 1, 31, 0
2, 17097, Note_on_c, 0, 67, 0
2, 17097, Note_on_c, 0, 71, 0
2, 17097, Note_on_c, 0, 62, 0
2, 17097, Note_on_c, 1, 31, 110
2, 17097, Note_on_c, 0, 67, 76
2, 17097, Note_on_c, 0, 62, 74
2, 17098, Note_on_c, 0, 71, 76
2, 17102, Note_on_c, 9, 42, 49
2, 17102, Note_on_c, 9, 54, 51
2, 17102, Note_on_c, 9, 53, 86
2, 17102, Note_on_c, 9, 36, 123
2, 17102, Note_on_c, 9, 36, 0
2, 17102, Note_on_c, 9, 82, 63
2, 17103, Note_on_c, 9, 82, 0
2, 17103, Note_on_c, 9, 54, 0
2, 17103, Note_on_c, 9, 42, 0
2, 17103, Note_on_c, 9, 53, 0
2, 17122, Note_on_c, 0, 67, 0
2, 17122, Note_on_c, 0, 62, 0
2, 17127, Note_on_c, 0, 74, 0
2, 17127, Note_on_c, 4, 69, 82
2, 17127, Note_on_c, 0, 62, 79
2, 17127, Note_on_c, 0, 67, 82
2, 17127, Note_on_c, 0, 74, 79
2, 17132, Note_on_c, 1, 31, 0
2, 17132, Note_on_c, 9, 54, 56
2, 17132, Note_on_c, 9, 54, 0
2, 17132, Note_on_c, 9, 82, 51
2, 17133, Note_on_c, 9, 82, 0
2, 17136, Note_on_c, 4, 62, 0
2, 17152, Note_on_c, 0, 71, 0
2, 17157, Note_on_c, 0, 67, 0
2, 17157, Note_on_c, 0, 62, 0
2, 17157, Note_on_c, 0, 74, 0
2, 17157, Note_on_c, 0, 62, 91
2, 17157, Note_on_c, 0, 71, 86
2, 17157, Note_on_c, 1, 31, 110
2, 17157, Note_on_c, 0, 67, 91
2, 17158, Note_on_c, 0, 74, 82
2, 17161, Note_on_c, 9, 123, 91
2, 17161, Note_on_c, 9, 38, 114
2, 17162, Note_on_c, 9, 38, 0
2, 17162, Note_on_c, 9, 123, 0
2, 17162, Note_on_c, 9, 54, 85
2, 17162, Note_on_c, 9, 42, 123
2, 17163, Note_on_c, 9, 42, 0
2, 17163, Note_on_c, 9, 54, 0
2, 17187, Note_on_c, 4, 62, 64
2, 17191, Note_on_c, 9, 54, 28
2, 17192, Note_on_c, 9, 54, 0
2, 17192, Note_on_c, 4, 67, 0
2, 17202, Note_on_c, 1, 31, 0
2, 17212, Note_on_c, 0, 67, 0
2, 17212, Note_on_c, 0, 71, 0
2, 17212, Note_on_c, 0, 74, 0
2, 17216, Note_on_c, 0, 62, 0
2, 17217, Note_on_c, 1, 31, 79
2, 17217, Note_on_c, 4, 67, 79
2, 17221, Note_on_c, 9, 53, 82
2, 17222, Note_on_c, 9, 42, 41
2, 17222, Note_on_c, 9, 54, 51
2, 17222, Note_on_c, 9, 82, 58
2, 17223, Note_on_c, 9, 82, 0
2, 17223, Note_on_c, 9, 42, 0
2, 17223, Note_on_c, 9, 53, 0
2, 17223, Note_on_c, 9, 54, 0
2, 17227, Note_on_c, 4, 62, 0
2, 17232, Note_on_c, 1, 31, 0
2, 17241, Note_on_c, 4, 55, 0
2, 17246, Note_on_c, 1, 31, 86
2, 17247, Note_on_c, 4, 62, 67
2, 17251, Note_on_c, 9, 25, 72
2, 17252, Note_on_c, 9, 25, 0
2, 17252, Note_on_c, 9, 54, 49
2, 17252, Note_on_c, 9, 82, 58
2, 17253, Note_on_c, 9, 82, 0
2, 17253, Note_on_c, 9, 54, 0
2, 17266, Note_on_c, 1, 31, 0
2, 17267, Note_on_c, 4, 67, 0
2, 17271, Note_on_c, 4, 62, 0
2, 17272, Note_on_c, 4, 69, 0
2, 17276, Note_on_c, 1, 31, 110
2, 17277, Note_on_c, 0, 62, 72
2, 17277, Note_on_c, 0, 67, 69
2, 17277, Note_on_c, 4, 55, 90
2, 17277, Note_on_c, 0, 71, 72
2, 17277, Note_on_c, 0, 74, 72
2, 17282, Note_on_c, 9, 42, 123
2, 17282, Note_on_c, 9, 54, 91
2, 17282, Note_on_c, 9, 36, 110
2, 17282, Note_on_c, 9, 36, 0
2, 17283, Note_on_c, 9, 42, 0
2, 17283, Note_on_c, 9, 54, 0
2, 17301, Note_on_c, 0, 62, 0
2, 17302, Note_on_c, 0, 74, 0
2, 17302, Note_on_c, 0, 67, 0
2, 17307, Note_on_c, 1, 31, 0
2, 17307, Note_on_c, 0, 62, 69
2, 17307, Note_on_c, 0, 67, 79
2, 17307, Note_on_c, 0, 74, 79
2, 17312, Note_on_c, 9, 54, 49
2, 17312, Note_on_c, 9, 54, 0
2, 17332, Note_on_c, 0, 71, 0
2, 17337, Note_on_c, 0, 74, 0
2, 17337, Note_on_c, 0, 67, 0
2, 17337, Note_on_c, 0, 71, 76
2, 17337, Note_on_c, 0, 74, 79
2, 17337, Note_on_c, 4, 71, 90
2, 17337, Note_on_c, 0, 67, 82
2, 17337, Note_on_c, 1, 31, 106
2, 17341, Note_on_c, 9, 36, 114
2, 17342, Note_on_c, 9, 36, 0
2, 17342, Note_on_c, 9, 42, 61
2, 17342, Note_on_c, 9, 54, 53
2, 17342, Note_on_c, 9, 82, 56
2, 17342, Note_on_c, 9, 53, 79
2, 17343, Note_on_c, 9, 53, 0
2, 17343, Note_on_c, 9, 82, 0
2, 17343, Note_on_c, 9, 42, 0
2, 17343, Note_on_c, 9, 54, 0
2, 17362, Note_on_c, 0, 67, 0
2, 17362, Note_on_c, 0, 74, 0
2, 17362, Note_on_c, 0, 62, 0
2, 17367, Note_on_c, 1, 31, 0
2, 17367, Note_on_c, 0, 62, 72
2, 17367, Note_on_c, 0, 67, 79
2, 17367, Note_on_c, 0, 74, 79
2, 17371, Note_on_c, 9, 54, 53
2, 17372, Note_on_c, 9, 54, 0
2, 17372, Note_on_c, 9, 82, 58
2, 17373, Note_on_c, 9, 82, 0
2, 17392, Note_on_c, 0, 71, 0
2, 17397, Note_on_c, 0, 74, 0
2, 17397, Note_on_c, 0, 62, 0
2, 17397, Note_on_c, 0, 71, 96
2, 17397, Note_on_c, 0, 74, 96
2, 17397, Note_on_c, 1, 31, 110
2, 17397, Note_on_c, 0, 62, 82
2, 17397, Note_on_c, 4, 67, 76
2, 17401, Note_on_c, 9, 123, 99
2, 17401, Note_on_c, 9, 38, 114
2, 17402, Note_on_c, 9, 38, 0
2, 17402, Note_on_c, 9, 123, 0
2, 17402, Note_on_c, 9, 42, 127
2, 17402, Note_on_c, 9, 42, 0
2, 17402, Note_on_c, 9, 54, 106
2, 17403, Note_on_c, 9, 54, 0
2, 17426, Note_on_c, 4, 62, 90
2, 17431, Note_on_c, 9, 54, 58
2, 17432, Note_on_c, 9, 54, 0
2, 17456, Note_on_c, 0, 67, 0
2, 17457, Note_on_c, 0, 62, 0
2, 17457, Note_on_c, 0, 74, 0
2, 17457, Note_on_c, 0, 71, 0
2, 17461, Note_on_c, 9, 53, 76
2, 17462, Note_on_c, 9, 53, 0
2, 17462, Note_on_c, 9, 82, 53
2, 17462, Note_on_c, 9, 42, 56
2, 17462, Note_on_c, 9, 54, 51
2, 17463, Note_on_c, 9, 54, 0
2, 17463, Note_on_c, 9, 42, 0
2, 17463, Note_on_c, 9, 82, 0
2, 17467, Note_on_c, 1, 31, 0
2, 17467, Note_on_c, 4, 55, 0
2, 17476, Note_on_c, 4, 62, 0
2, 17486, Note_on_c, 4, 71, 0
2, 17487, Note_on_c, 4, 55, 86
2, 17487, Note_on_c, 0, 62, 76
2, 17487, Note_on_c, 0, 71, 74
2, 17487, Note_on_c, 0, 67, 79
2, 17487, Note_on_c, 0, 74, 89
2, 17487, Note_on_c, 1, 31, 106
2, 17492, Note_on_c, 4, 67, 0
2, 17492, Note_on_c, 9, 82, 56
2, 17492, Note_on_c, 9, 54, 49
2, 17492, Note_on_c, 9, 36, 114
2, 17492, Note_on_c, 9, 36, 0
2, 17493, Note_on_c, 9, 82, 0
2, 17493, Note_on_c, 9, 54, 0
2, 17506, Note_on_c, 0, 67, 0
2, 17507, Note_on_c, 0, 71, 0
2, 17511, Note_on_c, 0, 62, 0
2, 17517, Note_on_c, 0, 74, 0
2, 17517, Note_on_c, 4, 71, 82
2, 17522, Note_on_c, 1, 31, 0
2, 17522, Note_on_c, 9, 54, 99
2, 17522, Note_on_c, 9, 42, 127
2, 17522, Note_on_c, 9, 42, 0
2, 17523, Note_on_c, 9, 54, 0
2, 17547, Note_on_c, 1, 31, 102
2, 17547, Note_on_c, 0, 71, 64
2, 17547, Note_on_c, 0, 62, 62
2, 17547, Note_on_c, 0, 67, 59
2, 17547, Note_on_c, 0, 74, 82
2, 17551, Note_on_c, 9, 36, 35
2, 17552, Note_on_c, 9, 36, 0
2, 17552, Note_on_c, 9, 54, 45
2, 17553, Note_on_c, 9, 54, 0
2, 17566, Note_on_c, 1, 31, 0
2, 17572, Note_on_c, 0, 67, 0
2, 17572, Note_on_c, 0, 62, 0
2, 17572, Note_on_c, 0, 71, 0
2, 17577, Note_on_c, 0, 71, 76
2, 17577, Note_on_c, 0, 67, 76
2, 17577, Note_on_c, 4, 67, 74
2, 17577, Note_on_c, 1, 31, 106
2, 17577, Note_on_c, 0, 62, 74
2, 17581, Note_on_c, 9, 36, 127
2, 17582, Note_on_c, 9, 36, 0
2, 17582, Note_on_c, 9, 54, 45
2, 17582, Note_on_c, 9, 53, 82
2, 17582, Note_on_c, 9, 53, 0
2, 17582, Note_on_c, 9, 82, 56
2, 17582, Note_on_c, 9, 42, 51
2, 17583, Note_on_c, 9, 42, 0
2, 17583, Note_on_c, 9, 82, 0
2, 17583, Note_on_c, 9, 54, 0
2, 17606, Note_on_c, 0, 74, 0
2, 17607, Note_on_c, 0, 62, 0
2, 17607, Note_on_c, 0, 67, 0
2, 17607, Note_on_c, 0, 67, 82
2, 17607, Note_on_c, 0, 74, 79
2, 17607, Note_on_c, 4, 62, 82
2, 17607, Note_on_c, 0, 62, 79
2, 17611, Note_on_c, 9, 54, 53
2, 17612, Note_on_c, 9, 54, 0
2, 17612, Note_on_c, 1, 31, 0
2, 17612, Note_on_c, 9, 82, 58
2, 17613, Note_on_c, 9, 82, 0
2, 17631, Note_on_c, 0, 67, 0
2, 17632, Note_on_c, 0, 74, 0
2, 17636, Note_on_c, 0, 62, 0
2, 17637, Note_on_c, 0, 71, 0
2, 17637, Note_on_c, 0, 71, 86
2, 17637, Note_on_c, 1, 31, 114
2, 17637, Note_on_c, 0, 62, 91
2, 17637, Note_on_c, 0, 67, 91
2, 17637, Note_on_c, 0, 74, 82
2, 17641, Note_on_c, 9, 38, 114
2, 17641, Note_on_c, 9, 123, 85
2, 17642, Note_on_c, 9, 123, 0
2, 17642, Note_on_c, 9, 38, 0
2, 17642, Note_on_c, 9, 54, 99
2, 17642, Note_on_c, 9, 42, 123
2, 17643, Note_on_c, 9, 42, 0
2, 17643, Note_on_c, 9, 54, 0
2, 17647, Note_on_c, 4, 67, 0
2, 17666, Note_on_c, 4, 67, 67
2, 17671, Note_on_c, 9, 54, 56
2, 17672, Note_on_c, 9, 54, 0
2, 17672, Note_on_c, 4, 71, 0
2, 17677, Note_on_c, 1, 31, 0
2, 17682, Note_on_c, 4, 62, 0
2, 17691, Note_on_c, 0, 67, 0
2, 17692, Note_on_c, 0, 71, 0
2, 17692, Note_on_c, 0, 74, 0
2, 17696, Note_on_c, 0, 62, 0
2, 17696, Note_on_c, 1, 31, 79
2, 17697, Note_on_c, 4, 71, 86
2, 17702, Note_on_c, 4, 67, 0
2, 17702, Note_on_c, 9, 53, 86
2, 17702, Note_on_c, 9, 53, 0
2, 17702, Note_on_c, 9, 42, 75
2, 17702, Note_on_c, 9, 82, 49
2, 17702, Note_on_c, 9, 54, 38
2, 17703, Note_on_c, 9, 54, 0
2, 17703, Note_on_c, 9, 82, 0
2, 17703, Note_on_c, 9, 42, 0
2, 17711, Note_on_c, 1, 31, 0
2, 17727, Note_on_c, 1, 31, 106
2, 17727, Note_on_c, 4, 67, 76
2, 17731, Note_on_c, 9, 54, 45
2, 17732, Note_on_c, 9, 54, 0
2, 17732, Note_on_c, 9, 82, 56
2, 17733, Note_on_c, 9, 82, 0
2, 17736, Note_on_c, 4, 55, 0
2, 17752, Note_on_c, 4, 71, 0
2, 17757, Note_on_c, 1, 31, 0
2, 17757, Note_on_c, 6, 71, 0
2, 17757, Note_on_c, 6, 67, 0
2, 17757, Note_on_c, 4, 67, 0
2, 17757, Note_on_c, 6, 62, 0
2, 17757, Note_on_c, 1, 31, 106
2, 17758, Note_on_c, 6, 62, 59
2, 17758, Note_on_c, 0, 67, 69
2, 17758, Note_on_c, 0, 71, 72
2, 17758, Note_on_c, 0, 74, 72
2, 17758, Note_on_c, 0, 62, 72
2, 17758, Note_on_c, 4, 55, 86
2, 17759, Note_on_c, 6, 67, 55
2, 17759, Note_on_c, 6, 71, 51
2, 17761, Note_on_c, 9, 36, 127
2, 17762, Note_on_c, 9, 36, 0
2, 17762, Note_on_c, 9, 42, 127
2, 17762, Note_on_c, 9, 54, 85
2, 17763, Note_on_c, 9, 54, 0
2, 17763, Note_on_c, 9, 42, 0
2, 17771, Note_on_c, 0, 67, 0
2, 17772, Note_on_c, 0, 74, 0
2, 17772, Note_on_c, 1, 31, 0
2, 17772, Note_on_c, 1, 33, 106
2, 17773, Note_on_c, 0, 71, 0
2, 17773, Note_on_c, 0, 62, 0
2, 17773, Note_on_c, 0, 60, 72
2, 17773, Note_on_c, 0, 48, 72
2, 17774, Note_on_c, 4, 55, 0
2, 17774, Note_on_c, 6, 62, 0
2, 17774, Note_on_c, 6, 60, 61
2, 17774, Note_on_c, 4, 45, 86
2, 17775, Note_on_c, 6, 71, 0
2, 17775, Note_on_c, 6, 67, 0
2, 17775, Note_on_c, 6, 52, 57
2, 17775, Note_on_c, 6, 57, 64
2, 17776, Note_on_c, 0, 60, 0
2, 17781, Control_c, 1, 84, 31
2, 17781, Control_c, 0, 84, 62
2, 17782, Control_c, 0, 84, 71
2, 17782, Control_c, 4, 84, 55
2, 17783, Control_c, 6, 84, 62
2, 17783, Control_c, 6, 84, 67
2, 17784, Control_c, 6, 84, 71
2, 17787, Note_on_c, 0, 52, 69
2, 17787, Note_on_c, 0, 60, 79
2, 17787, Note_on_c, 0, 57, 79
2, 17791, Note_on_c, 1, 33, 0
2, 17792, Note_on_c, 9, 54, 75
2, 17792, Note_on_c, 9, 54, 0
2, 17807, Note_on_c, 0, 48, 0
2, 17811, Note_on_c, 0, 60, 0
2, 17812, Note_on_c, 0, 57, 0
2, 17817, Note_on_c, 0, 57, 82
2, 17817, Note_on_c, 0, 60, 79
2, 17817, Note_on_c, 0, 48, 76
2, 17817, Note_on_c, 1, 33, 110
2, 17817, Note_on_c, 4, 60, 90
2, 17821, Note_on_c, 9, 36, 86
2, 17822, Note_on_c, 9, 36, 0
2, 17822, Note_on_c, 9, 53, 86
2, 17822, Note_on_c, 9, 53, 0
2, 17822, Note_on_c, 9, 82, 53
2, 17822, Note_on_c, 9, 42, 66
2, 17822, Note_on_c, 9, 54, 72
2, 17823, Note_on_c, 9, 54, 0
2, 17823, Note_on_c, 9, 42, 0
2, 17823, Note_on_c, 9, 82, 0
2, 17841, Note_on_c, 0, 52, 0
2, 17846, Note_on_c, 0, 60, 0
2, 17847, Note_on_c, 0, 57, 0
2, 17847, Note_on_c, 0, 57, 79
2, 17847, Note_on_c, 0, 60, 79
2, 17847, Note_on_c, 0, 52, 72
2, 17851, Note_on_c, 9, 54, 72
2, 17852, Note_on_c, 9, 54, 0
2, 17852, Note_on_c, 1, 33, 0
2, 17852, Note_on_c, 9, 82, 75
2, 17853, Note_on_c, 9, 82, 0
2, 17871, Note_on_c, 0, 60, 0
2, 17872, Note_on_c, 0, 52, 0
2, 17872, Note_on_c, 0, 48, 0
2, 17876, Note_on_c, 1, 33, 106
2, 17877, Note_on_c, 4, 57, 69
2, 17877, Note_on_c, 0, 52, 82
2, 17877, Note_on_c, 0, 48, 96
2, 17877, Note_on_c, 0, 60, 96
2, 17881, Note_on_c, 9, 123, 99
2, 17881, Note_on_c, 9, 38, 114
2, 17882, Note_on_c, 9, 38, 0
2, 17882, Note_on_c, 9, 123, 0
2, 17882, Note_on_c, 9, 42, 123
2, 17882, Note_on_c, 9, 54, 85
2, 17883, Note_on_c, 9, 54, 0
2, 17883, Note_on_c, 9, 42, 0
2, 17906, Note_on_c, 4, 64, 86
2, 17912, Note_on_c, 9, 54, 69
2, 17912, Note_on_c, 9, 54, 0
2, 17916, Note_on_c, 4, 45, 0
2, 17931, Note_on_c, 0, 57, 0
2, 17937, Note_on_c, 0, 48, 0
2, 17937, Note_on_c, 0, 52, 0
2, 17937, Note_on_c, 0, 60, 0
2, 17941, Note_on_c, 9, 53, 82
2, 17942, Note_on_c, 9, 53, 0
2, 17942, Note_on_c, 1, 33, 0
2, 17942, Note_on_c, 9, 54, 58
2, 17942, Note_on_c, 9, 42, 51
2, 17942, Note_on_c, 9, 82, 58
2, 17943, Note_on_c, 9, 82, 0
2, 17943, Note_on_c, 9, 42, 0
2, 17943, Note_on_c, 9, 54, 0
2, 17946, Note_on_c, 4, 64, 0
2, 17962, Note_on_c, 4, 60, 0
2, 17967, Note_on_c, 4, 57, 0
2, 17967, Note_on_c, 0, 57, 79
2, 17967, Note_on_c, 0, 60, 89
2, 17967, Note_on_c, 1, 33, 110
2, 17967, Note_on_c, 4, 45, 86
2, 17967, Note_on_c, 0, 48, 74
2, 17967, Note_on_c, 0, 52, 76
2, 17971, Note_on_c, 9, 36, 114
2, 17972, Note_on_c, 9, 36, 0
2, 17972, Note_on_c, 9, 54, 53
2, 17972, Note_on_c, 9, 54, 0
2, 17972, Note_on_c, 9, 82, 56
2, 17973, Note_on_c, 9, 82, 0
2, 17986, Note_on_c, 0, 48, 0
2, 17987, Note_on_c, 0, 57, 0
2, 17987, Note_on_c, 0, 52, 0
2, 17991, Note_on_c, 0, 60, 0
2, 17996, Note_on_c, 1, 33, 0
2, 17997, Note_on_c, 4, 60, 80
2, 18001, Note_on_c, 9, 42, 123
2, 18002, Note_on_c, 9, 42, 0
2, 18002, Note_on_c, 9, 54, 75
2, 18002, Note_on_c, 9, 54, 0
2, 18026, Note_on_c, 1, 33, 79
2, 18027, Note_on_c, 0, 60, 82
2, 18027, Note_on_c, 0, 48, 64
2, 18027, Note_on_c, 0, 57, 59
2, 18027, Note_on_c, 0, 52, 62
2, 18031, Note_on_c, 9, 36, 45
2, 18032, Note_on_c, 9, 36, 0
2, 18032, Note_on_c, 9, 54, 58
2, 18032, Note_on_c, 9, 54, 0
2, 18041, Note_on_c, 1, 33, 0
2, 18051, Note_on_c, 0, 48, 0
2, 18052, Note_on_c, 0, 57, 0
2, 18052, Note_on_c, 0, 52, 0
2, 18056, Note_on_c, 1, 33, 110
2, 18057, Note_on_c, 0, 48, 76
2, 18057, Note_on_c, 4, 57, 74
2, 18057, Note_on_c, 0, 57, 76
2, 18057, Note_on_c, 0, 52, 74
2, 18061, Note_on_c, 9, 36, 123
2, 18062, Note_on_c, 9, 36, 0
2, 18062, Note_on_c, 9, 42, 49
2, 18062, Note_on_c, 9, 53, 86
2, 18062, Note_on_c, 9, 54, 51
2, 18062, Note_on_c, 9, 82, 63
2, 18063, Note_on_c, 9, 82, 0
2, 18063, Note_on_c, 9, 42, 0
2, 18063, Note_on_c, 9, 54, 0
2, 18063, Note_on_c, 9, 53, 0
2, 18086, Note_on_c, 0, 60, 0
2, 18087, Note_on_c, 0, 52, 0
2, 18087, Note_on_c, 0, 57, 0
2, 18087, Note_on_c, 0, 60, 79
2, 18087, Note_on_c, 0, 57, 82
2, 18087, Note_on_c, 0, 52, 79
2, 18087, Note_on_c, 4, 64, 86
2, 18091, Note_on_c, 9, 54, 56
2, 18092, Note_on_c, 9, 54, 0
2, 18092, Note_on_c, 1, 33, 0
2, 18092, Note_on_c, 9, 82, 51
2, 18093, Note_on_c, 9, 82, 0
2, 18111, Note_on_c, 0, 60, 0
2, 18112, Note_on_c, 0, 52, 0
2, 18112, Note_on_c, 0, 57, 0
2, 18116, Note_on_c, 0, 48, 0
2, 18117, Note_on_c, 0, 60, 82
2, 18117, Note_on_c, 1, 33, 110
2, 18117, Note_on_c, 0, 48, 86
2, 18117, Note_on_c, 0, 57, 91
2, 18117, Note_on_c, 0, 52, 91
2, 18121, Note_on_c, 9, 123, 91
2, 18121, Note_on_c, 9, 38, 114
2, 18122, Note_on_c, 9, 38, 0
2, 18122, Note_on_c, 9, 123, 0
2, 18122, Note_on_c, 4, 57, 0
2, 18122, Note_on_c, 9, 54, 85
2, 18122, Note_on_c, 9, 42, 123
2, 18123, Note_on_c, 9, 42, 0
2, 18123, Note_on_c, 9, 54, 0
2, 18147, Note_on_c, 4, 57, 64
2, 18151, Note_on_c, 9, 54, 28
2, 18152, Note_on_c, 9, 54, 0
2, 18161, Note_on_c, 1, 33, 0
2, 18166, Note_on_c, 4, 60, 0
2, 18171, Note_on_c, 0, 52, 0
2, 18172, Note_on_c, 0, 57, 0
2, 18177, Note_on_c, 0, 60, 0
2, 18177, Note_on_c, 0, 48, 0
2, 18177, Note_on_c, 4, 60, 80
2, 18177, Note_on_c, 1, 33, 79
2, 18181, Note_on_c, 9, 53, 82
2, 18182, Note_on_c, 9, 53, 0
2, 18182, Note_on_c, 4, 57, 0
2, 18182, Note_on_c, 9, 42, 41
2, 18182, Note_on_c, 9, 42, 0
2, 18182, Note_on_c, 9, 54, 51
2, 18182, Note_on_c, 9, 82, 58
2, 18183, Note_on_c, 9, 82, 0
2, 18183, Note_on_c, 9, 54, 0
2, 18191, Note_on_c, 1, 33, 0
2, 18206, Note_on_c, 1, 33, 86
2, 18207, Note_on_c, 4, 57, 86
2, 18211, Note_on_c, 9, 25, 72
2, 18212, Note_on_c, 9, 25, 0
2, 18212, Note_on_c, 4, 45, 0
2, 18212, Note_on_c, 9, 82, 58
2, 18212, Note_on_c, 9, 54, 49
2, 18212, Note_on_c, 9, 54, 0
2, 18213, Note_on_c, 9, 82, 0
2, 18226, Note_on_c, 1, 33, 0
2, 18236, Note_on_c, 1, 33, 110
2, 18237, Note_on_c, 4, 45, 90
2, 18237, Note_on_c, 0, 48, 72
2, 18237, Note_on_c, 0, 52, 72
2, 18237, Note_on_c, 0, 57, 69
2, 18237, Note_on_c, 0, 60, 72
2, 18241, Note_on_c, 9, 36, 110
2, 18242, Note_on_c, 9, 36, 0
2, 18242, Note_on_c, 4, 57, 0
2, 18242, Note_on_c, 4, 60, 0
2, 18242, Note_on_c, 4, 64, 0
2, 18242, Note_on_c, 9, 54, 91
2, 18242, Note_on_c, 9, 42, 123
2, 18242, Note_on_c, 9, 42, 0
2, 18243, Note_on_c, 9, 54, 0
2, 18257, Note_on_c, 0, 57, 0
2, 18257, Note_on_c, 0, 60, 0
2, 18257, Note_on_c, 1, 33, 0
2, 18257, Note_on_c, 0, 57, 72
2, 18257, Note_on_c, 1, 38, 110
2, 18258, Note_on_c, 0, 48, 0
2, 18258, Note_on_c, 0, 52, 0
2, 18258, Note_on_c, 0, 66, 72
2, 18258, Note_on_c, 0, 62, 69
2, 18259, Note_on_c, 4, 45, 0
2, 18259, Note_on_c, 0, 57, 0
2, 18259, Note_on_c, 4, 50, 90
2, 18259, Note_on_c, 0, 69, 72
2, 18260, Note_on_c, 6, 60, 0
2, 18260, Note_on_c, 6, 66, 51
2, 18261, Note_on_c, 6, 52, 0
2, 18261, Note_on_c, 6, 62, 55
2, 18262, Note_on_c, 0, 69, 0
2, 18262, Note_on_c, 0, 62, 0
2, 18266, Note_on_c, 1, 38, 0
2, 18266, Control_c, 1, 84, 33
2, 18266, Control_c, 0, 84, 60
2, 18267, Note_on_c, 0, 57, 69
2, 18267, Control_c, 0, 84, 48
2, 18267, Note_on_c, 0, 62, 79
2, 18267, Note_on_c, 0, 69, 79
2, 18267, Control_c, 0, 84, 52
2, 18268, Control_c, 4, 84, 45
2, 18268, Control_c, 0, 84, 57
2, 18269, Control_c, 6, 84, 60
2, 18269, Control_c, 6, 84, 52
2, 18271, Note_on_c, 9, 54, 49
2, 18272, Note_on_c, 9, 54, 0
2, 18291, Note_on_c, 0, 66, 0
2, 18296, Note_on_c, 0, 69, 0
2, 18296, Note_on_c, 0, 62, 0
2, 18297, Note_on_c, 0, 66, 76
2, 18297, Note_on_c, 0, 69, 79
2, 18297, Note_on_c, 4, 66, 90
2, 18297, Note_on_c, 1, 38, 106
2, 18297, Note_on_c, 0, 62, 82
2, 18301, Note_on_c, 9, 36, 114
2, 18302, Note_on_c, 9, 36, 0
2, 18302, Note_on_c, 9, 53, 79
2, 18302, Note_on_c, 9, 54, 53
2, 18302, Note_on_c, 9, 42, 61
2, 18302, Note_on_c, 9, 82, 56
2, 18303, Note_on_c, 9, 82, 0
2, 18303, Note_on_c, 9, 42, 0
2, 18303, Note_on_c, 9, 53, 0
2, 18303, Note_on_c, 9, 54, 0
2, 18321, Note_on_c, 0, 57, 0
2, 18322, Note_on_c, 0, 62, 0
2, 18322, Note_on_c, 0, 69, 0
2, 18326, Note_on_c, 1, 38, 0
2, 18326, Note_on_c, 0, 57, 72
2, 18327, Note_on_c, 0, 69, 79
2, 18327, Note_on_c, 0, 62, 79
2, 18331, Note_on_c, 9, 54, 53
2, 18332, Note_on_c, 9, 54, 0
2, 18332, Note_on_c, 9, 82, 58
2, 18333, Note_on_c, 9, 82, 0
2, 18351, Note_on_c, 0, 66, 0
2, 18356, Note_on_c, 0, 57, 0
2, 18357, Note_on_c, 0, 69, 0
2, 18357, Note_on_c, 0, 57, 82
2, 18357, Note_on_c, 4, 62, 76
2, 18357, Note_on_c, 1, 38, 110
2, 18357, Note_on_c, 0, 69, 96
2, 18357, Note_on_c, 0, 66, 96
2, 18361, Note_on_c, 9, 38, 114
2, 18361, Note_on_c, 9, 123, 99
2, 18362, Note_on_c, 9, 123, 0
2, 18362, Note_on_c, 9, 38, 0
2, 18362, Note_on_c, 9, 54, 106
2, 18362, Note_on_c, 9, 42, 127
2, 18362, Note_on_c, 9, 42, 0
2, 18363, Note_on_c, 9, 54, 0
2, 18387, Note_on_c, 4, 69, 90
2, 18391, Note_on_c, 9, 54, 58
2, 18392, Note_on_c, 9, 54, 0
2, 18416, Note_on_c, 0, 62, 0
2, 18417, Note_on_c, 0, 66, 0
2, 18417, Note_on_c, 0, 69, 0
2, 18417, Note_on_c, 0, 57, 0
2, 18421, Note_on_c, 9, 53, 76
2, 18422, Note_on_c, 9, 53, 0
2, 18422, Note_on_c, 9, 54, 51
2, 18422, Note_on_c, 9, 42, 56
2, 18422, Note_on_c, 9, 42, 0
2, 18422, Note_on_c, 9, 82, 53
2, 18423, Note_on_c, 9, 82, 0
2, 18423, Note_on_c, 9, 54, 0
2, 18426, Note_on_c, 4, 50, 0
2, 18427, Note_on_c, 1, 38, 0
2, 18436, Note_on_c, 4, 69, 0
2, 18446, Note_on_c, 4, 66, 0
2, 18447, Note_on_c, 1, 38, 106
2, 18447, Note_on_c, 0, 57, 76
2, 18447, Note_on_c, 0, 69, 89
2, 18447, Note_on_c, 0, 66, 74
2, 18447, Note_on_c, 0, 62, 79
2, 18447, Note_on_c, 4, 50, 86
2, 18451, Note_on_c, 9, 36, 114
2, 18452, Note_on_c, 9, 36, 0
2, 18452, Note_on_c, 4, 62, 0
2, 18452, Note_on_c, 9, 54, 49
2, 18452, Note_on_c, 9, 54, 0
2, 18452, Note_on_c, 9, 82, 56
2, 18453, Note_on_c, 9, 82, 0
2, 18466, Note_on_c, 0, 62, 0
2, 18467, Note_on_c, 0, 66, 0
2, 18471, Note_on_c, 0, 57, 0
2, 18476, Note_on_c, 0, 69, 0
2, 18477, Note_on_c, 4, 66, 82
2, 18481, Note_on_c, 9, 42, 127
2, 18482, Note_on_c, 9, 42, 0
2, 18482, Note_on_c, 1, 38, 0
2, 18482, Note_on_c, 9, 54, 99
2, 18483, Note_on_c, 9, 54, 0
2, 18506, Note_on_c, 1, 38, 102
2, 18507, Note_on_c, 0, 57, 62
2, 18507, Note_on_c, 0, 69, 82
2, 18507, Note_on_c, 0, 66, 64
2, 18507, Note_on_c, 0, 62, 59
2, 18511, Note_on_c, 9, 36, 35
2, 18511, Note_on_c, 9, 54, 45
2, 18512, Note_on_c, 9, 36, 0
2, 18513, Note_on_c, 9, 54, 0
2, 18526, Note_on_c, 1, 38, 0
2, 18531, Note_on_c, 0, 57, 0
2, 18532, Note_on_c, 0, 66, 0
2, 18532, Note_on_c, 0, 62, 0
2, 18536, Note_on_c, 1, 38, 106
2, 18537, Note_on_c, 0, 62, 76
2, 18537, Note_on_c, 0, 57, 74
2, 18537, Note_on_c, 0, 66, 76
2, 18537, Note_on_c, 4, 62, 74
2, 18541, Note_on_c, 9, 36, 127
2, 18542, Note_on_c, 9, 36, 0
2, 18542, Note_on_c, 9, 42, 51
2, 18542, Note_on_c, 9, 82, 56
2, 18542, Note_on_c, 9, 53, 82
2, 18542, Note_on_c, 9, 53, 0
2, 18542, Note_on_c, 9, 54, 45
2, 18543, Note_on_c, 9, 54, 0
2, 18543, Note_on_c, 9, 82, 0
2, 18543, Note_on_c, 9, 42, 0
2, 18567, Note_on_c, 0, 69, 0
2, 18567, Note_on_c, 0, 57, 0
2, 18567, Note_on_c, 0, 62, 0
2, 18567, Note_on_c, 4, 69, 82
2, 18567, Note_on_c, 0, 62, 82
2, 18567, Note_on_c, 0, 69, 79
2, 18567, Note_on_c, 0, 57, 79
2, 18571, Note_on_c, 9, 54, 53
2, 18572, Note_on_c, 9, 54, 0
2, 18572, Note_on_c, 1, 38, 0
2, 18572, Note_on_c, 9, 82, 58
2, 18573, Note_on_c, 9, 82, 0
2, 18591, Note_on_c, 0, 62, 0
2, 18592, Note_on_c, 0, 69, 0
2, 18596, Note_on_c, 0, 57, 0
2, 18597, Note_on_c, 0, 66, 0
2, 18597, Note_on_c, 0, 66, 86
2, 18597, Note_on_c, 1, 38, 114
2, 18597, Note_on_c, 0, 62, 91
2, 18597, Note_on_c, 0, 57, 91
2, 18597, Note_on_c, 0, 69, 82
2, 18601, Note_on_c, 9, 123, 85
2, 18601, Note_on_c, 9, 38, 114
2, 18602, Note_on_c, 9, 38, 0
2, 18602, Note_on_c, 9, 123, 0
2, 18602, Note_on_c, 9, 42, 123
2, 18602, Note_on_c, 9, 42, 0
2, 18602, Note_on_c, 9, 54, 99
2, 18603, Note_on_c, 9, 54, 0
2, 18606, Note_on_c, 4, 62, 0
2, 18626, Note_on_c, 4, 62, 67
2, 18631, Note_on_c, 9, 54, 56
2, 18632, Note_on_c, 9, 54, 0
2, 18632, Note_on_c, 4, 66, 0
2, 18636, Note_on_c, 1, 38, 0
2, 18641, Note_on_c, 4, 69, 0
2, 18651, Note_on_c, 0, 62, 0
2, 18652, Note_on_c, 0, 66, 0
2, 18652, Note_on_c, 0, 69, 0
2, 18656, Note_on_c, 0, 57, 0
2, 18656, Note_on_c, 1, 38, 79
2, 18657, Note_on_c, 4, 66, 86
2, 18661, Note_on_c, 9, 53, 86
2, 18662, Note_on_c, 9, 53, 0
2, 18662, Note_on_c, 4, 62, 0
2, 18662, Note_on_c, 9, 54, 38
2, 18662, Note_on_c, 9, 54, 0
2, 18662, Note_on_c, 9, 42, 75
2, 18662, Note_on_c, 9, 42, 0
2, 18662, Note_on_c, 9, 82, 49
2, 18663, Note_on_c, 9, 82, 0
2, 18671, Note_on_c, 1, 38, 0
2, 18686, Note_on_c, 4, 62, 76
2, 18686, Note_on_c, 1, 38, 106
2, 18691, Note_on_c, 9, 82, 56
2, 18691, Note_on_c, 9, 54, 45
2, 18692, Note_on_c, 9, 54, 0
2, 18693, Note_on_c, 9, 82, 0
2, 18696, Note_on_c, 4, 50, 0
2, 18711, Note_on_c, 4, 66, 0
2, 18716, Note_on_c, 1, 38, 0
2, 18717, Note_on_c, 6, 66, 0
2, 18717, Note_on_c, 6, 62, 0
2, 18717, Note_on_c, 4, 62, 0
2, 18717, Note_on_c, 6, 57, 0
2, 18717, Note_on_c, 1, 38, 106
2, 18718, Note_on_c, 0, 57, 72
2, 18718, Note_on_c, 4, 50, 86
2, 18718, Note_on_c, 6, 57, 59
2, 18718, Note_on_c, 0, 66, 72
2, 18718, Note_on_c, 0, 69, 72
2, 18718, Note_on_c, 0, 62, 69
2, 18719, Note_on_c, 6, 62, 55
2, 18719, Note_on_c, 6, 66, 51
2, 18721, Note_on_c, 9, 42, 127
2, 18721, Note_on_c, 9, 36, 127
2, 18722, Note_on_c, 9, 36, 0
2, 18722, Note_on_c, 9, 54, 85
2, 18723, Note_on_c, 9, 54, 0
2, 18723, Note_on_c, 9, 42, 0
2, 18731, Note_on_c, 0, 62, 0
2, 18732, Note_on_c, 0, 69, 0
2, 18736, Note_on_c, 0, 57, 0
2, 18737, Note_on_c, 1, 38, 0
2, 18737, Note_on_c, 0, 66, 0
2, 18737, Note_on_c, 1, 28, 106
2, 18738, Note_on_c, 4, 50, 0
2, 18739, Note_on_c, 6, 57, 0
2, 18739, Note_on_c, 6, 62, 0
2, 18740, Note_on_c, 6, 66, 0
2, 18746, Control_c, 1, 84, 38
2, 18746, Control_c, 0, 84, 66
2, 18747, Control_c, 4, 84, 50
2, 18747, Control_c, 6, 84, 57
2, 18748, Control_c, 6, 84, 62
2, 18748, Control_c, 6, 84, 66
2, 18751, Note_on_c, 1, 28, 0
2, 18777, Note_on_c, 1, 28, 110
2, 18781, Note_on_c, 9, 36, 86
2, 18782, Note_on_c, 9, 36, 0
2, 18782, Note_on_c, 9, 42, 66
2, 18783, Note_on_c, 9, 42, 0
2, 18812, Note_on_c, 1, 28, 0
2, 18836, Note_on_c, 1, 28, 106
2, 18841, Note_on_c, 9, 123, 99
2, 18841, Note_on_c, 9, 123, 0
2, 18841, Note_on_c, 9, 38, 114
2, 18842, Note_on_c, 9, 38, 0
2, 18842, Note_on_c, 9, 42, 123
2, 18842, Note_on_c, 9, 42, 0
2, 18901, Note_on_c, 9, 42, 51
2, 18902, Note_on_c, 1, 28, 0
2, 18903, Note_on_c, 9, 42, 0
2, 18926, Note_on_c, 1, 28, 110
2, 18931, Note_on_c, 9, 36, 114
2, 18932, Note_on_c, 9, 36, 0
2, 18956, Note_on_c, 1, 28, 0
2, 18961, Note_on_c, 9, 42, 123
2, 18962, Note_on_c, 9, 42, 0
2, 18986, Note_on_c, 1, 28, 79
2, 18991, Note_on_c, 9, 36, 45
2, 18992, Note_on_c, 9, 36, 0
2, 19001, Note_on_c, 1, 28, 0
2, 19017, Note_on_c, 1, 28, 110
2, 19021, Note_on_c, 9, 36, 123
2, 19022, Note_on_c, 9, 36, 0
2, 19022, Note_on_c, 9, 42, 49
2, 19022, Note_on_c, 9, 42, 0
2, 19052, Note_on_c, 1, 28, 0
2, 19077, Note_on_c, 1, 28, 110
2, 19081, Note_on_c, 9, 38, 114
2, 19081, Note_on_c, 9, 123, 91
2, 19081, Note_on_c, 9, 42, 123
2, 19082, Note_on_c, 9, 42, 0
2, 19082, Note_on_c, 9, 123, 0
2, 19082, Note_on_c, 9, 38, 0
2, 19121, Note_on_c, 1, 28, 0
2, 19137, Note_on_c, 1, 28, 79
2, 19142, Note_on_c, 9, 42, 41
2, 19142, Note_on_c, 9, 42, 0
2, 19151, Note_on_c, 1, 28, 0
2, 19166, Note_on_c, 1, 28, 86
2, 19171, Note_on_c, 9, 25, 72
2, 19172, Note_on_c, 9, 25, 0
2, 19177, Note_on_c, 1, 28, 0
2, 19177, Note_on_c, 1, 31, 86
2, 19179, Note_on_c, 6, 62, 59
2, 19180, Note_on_c, 6, 67, 55
2, 19180, Note_on_c, 6, 71, 51
2, 19185, Control_c, 1, 84, 28
2, 19186, Note_on_c, 1, 31, 0
2, 19186, Control_c, 4, 84, 64
2, 19187, Control_c, 4, 84, 71
2, 19188, Control_c, 6, 84, 67
2, 19188, Control_c, 4, 84, 67
2, 19189, Control_c, 6, 84, 64
2, 19189, Control_c, 6, 84, 59
2, 19198, Control_c, 9, 0, 7
2, 19199, Control_c, 9, 32, 51
2, 19199, Control_c, 9, 0, 7
2, 19199, Control_c, 9, 32, 51
2, 19199, Control_c, 9, 0, 7
2, 19199, Control_c, 9, 32, 51
2, 19199, Control_c, 9, 0, 7
2, 19199, Control_c, 9, 32, 51
2, 19200, Program_c, 9, 9
2, 19200, Control_c, 9, 0, 0
2, 19200, Control_c, 9, 32, 3
2, 19200, Control_c, 9, 0, 0
2, 19200, Control_c, 9, 32, 3
2, 19200, Control_c, 9, 0, 0
2, 19200, Control_c, 9, 32, 3
2, 19200, Control_c, 9, 0, 0
2, 19200, Control_c, 9, 32, 3
2, 19200, Program_c, 9, 8
2, 19200, Control_c, 1, 0, 0
2, 19200, Control_c, 1, 32, 1
2, 19200, Control_c, 1, 0, 0
2, 19200, Control_c, 1, 32, 1
2, 19200, Control_c, 1, 0, 0
2, 19200, Control_c, 1, 32, 1
2, 19200, Control_c, 1, 0, 0
2, 19200, Control_c, 1, 32, 1
2, 19200, Program_c, 1, 33
2, 19200, Note_on_c, 1, 31, 106
2, 19200, Control_c, 0, 0, 0
2, 19200, Control_c, 0, 32, 3
2, 19200, Control_c, 0, 0, 0
2, 19200, Control_c, 0, 32, 3
2, 19200, Control_c, 0, 0, 0
2, 19200, Control_c, 0, 32, 3
2, 19200, Control_c, 0, 0, 0
2, 19200, Control_c, 0, 32, 3
2, 19200, Control_c, 0, 0, 0
2, 19200, Control_c, 0, 32, 3
2, 19200, Program_c, 0, 25
2, 19200, Note_on_c, 0, 62, 72
2, 19200, Note_on_c, 0, 67, 69
2, 19200, Note_on_c, 0, 71, 72
2, 19200, Note_on_c, 0, 74, 72
2, 19200, Control_c, 4, 0, 9
2, 19200, Control_c, 4, 32, 2
2, 19200, Control_c, 4, 0, 9
2, 19200, Control_c, 4, 32, 2
2, 19200, Control_c, 4, 0, 9
2, 19200, Control_c, 4, 32, 2
2, 19200, Control_c, 4, 0, 9
2, 19200, Control_c, 4, 32, 2
2, 19200, Control_c, 4, 0, 9
2, 19200, Control_c, 4, 32, 2
2, 19200, Program_c, 4, 27
2, 19200, Note_on_c, 4, 55, 86
2, 19200, Control_c, 6, 0, 32
2, 19200, Control_c, 6, 32, 1
2, 19200, Control_c, 6, 0, 32
2, 19200, Control_c, 6, 32, 1
2, 19200, Control_c, 6, 0, 32
2, 19200, Control_c, 6, 32, 1
2, 19200, Control_c, 6, 0, 32
2, 19200, Control_c, 6, 32, 1
2, 19200, Control_c, 6, 0, 32
2, 19200, Control_c, 6, 32, 1
2, 19200, Program_c, 6, 52
2, 19200, Note_on_c, 6, 62, 59
2, 19200, Note_on_c, 6, 67, 55
2, 19200, Note_on_c, 6, 71, 51
2, 19200, Note_on_c, 9, 36, 127
2, 19200, Note_on_c, 9, 42, 127
2, 19201, Note_on_c, 9, 42, 0
2, 19201, Note_on_c, 9, 36, 0
2, 19201, Note_on_c, 9, 54, 85
2, 19201, Note_on_c, 9, 54, 0
2, 19210, Note_on_c, 0, 67, 0
2, 19210, Note_on_c, 0, 74, 0
2, 19215, Note_on_c, 0, 62, 0
2, 19226, Note_on_c, 0, 62, 69
2, 19226, Note_on_c, 0, 67, 79
2, 19226, Note_on_c, 0, 74, 79
2, 19231, Note_on_c, 1, 31, 0
2, 19231, Note_on_c, 9, 54, 75
2, 19231, Note_on_c, 9, 54, 0
2, 19245, Note_on_c, 0, 71, 0
2, 19255, Note_on_c, 0, 67, 0
2, 19255, Note_on_c, 0, 74, 0
2, 19255, Note_on_c, 1, 31, 110
2, 19255, Note_on_c, 0, 67, 82
2, 19255, Note_on_c, 0, 71, 76
2, 19256, Note_on_c, 0, 74, 79
2, 19256, Note_on_c, 4, 67, 86
2, 19260, Note_on_c, 9, 36, 86
2, 19260, Note_on_c, 9, 53, 86
2, 19260, Note_on_c, 9, 54, 72
2, 19260, Note_on_c, 9, 42, 66
2, 19261, Note_on_c, 9, 42, 0
2, 19261, Note_on_c, 9, 54, 0
2, 19261, Note_on_c, 9, 53, 0
2, 19261, Note_on_c, 9, 36, 0
2, 19261, Note_on_c, 9, 82, 53
2, 19261, Note_on_c, 9, 82, 0
2, 19270, Note_on_c, 4, 55, 0
2, 19280, Note_on_c, 0, 62, 0
2, 19281, Note_on_c, 0, 67, 0
2, 19281, Note_on_c, 0, 74, 0
2, 19286, Note_on_c, 0, 62, 72
2, 19286, Note_on_c, 0, 67, 79
2, 19286, Note_on_c, 0, 74, 79
2, 19290, Note_on_c, 9, 54, 72
2, 19290, Note_on_c, 9, 82, 75
2, 19291, Note_on_c, 9, 82, 0
2, 19291, Note_on_c, 9, 54, 0
2, 19291, Note_on_c, 1, 31, 0
2, 19310, Note_on_c, 0, 71, 0
2, 19315, Note_on_c, 0, 62, 0
2, 19316, Note_on_c, 0, 74, 0
2, 19316, Note_on_c, 1, 31, 106
2, 19316, Note_on_c, 0, 62, 82
2, 19316, Note_on_c, 0, 71, 96
2, 19316, Note_on_c, 0, 74, 96
2, 19316, Note_on_c, 4, 62, 76
2, 19320, Note_on_c, 9, 38, 114
2, 19320, Note_on_c, 9, 38, 0
2, 19320, Note_on_c, 9, 42, 123
2, 19320, Note_on_c, 9, 42, 0
2, 19320, Note_on_c, 9, 123, 99
2, 19320, Note_on_c, 9, 123, 0
2, 19320, Note_on_c, 9, 54, 85
2, 19320, Note_on_c, 9, 54, 0
2, 19346, Note_on_c, 4, 69, 90
2, 19350, Note_on_c, 9, 54, 69
2, 19351, Note_on_c, 9, 54, 0
2, 19365, Note_on_c, 4, 62, 0
2, 19370, Note_on_c, 0, 74, 0
2, 19375, Note_on_c, 0, 62, 0
2, 19375, Note_on_c, 0, 67, 0
2, 19375, Note_on_c, 0, 71, 0
2, 19380, Note_on_c, 9, 53, 82
2, 19380, Note_on_c, 9, 42, 51
2, 19381, Note_on_c, 9, 42, 0
2, 19381, Note_on_c, 9, 53, 0
2, 19381, Note_on_c, 1, 31, 0
2, 19381, Note_on_c, 9, 54, 58
2, 19381, Note_on_c, 9, 54, 0
2, 19381, Note_on_c, 9, 82, 58
2, 19381, Note_on_c, 9, 82, 0
2, 19395, Note_on_c, 4, 69, 0
2, 19400, Note_on_c, 4, 67, 0
2, 19405, Note_on_c, 1, 31, 110
2, 19405, Note_on_c, 0, 62, 76
2, 19405, Note_on_c, 0, 67, 79
2, 19406, Note_on_c, 0, 71, 74
2, 19406, Note_on_c, 0, 74, 89
2, 19406, Note_on_c, 4, 55, 90
2, 19411, Note_on_c, 9, 36, 114
2, 19411, Note_on_c, 9, 36, 0
2, 19411, Note_on_c, 9, 54, 53
2, 19411, Note_on_c, 9, 54, 0
2, 19411, Note_on_c, 9, 82, 56
2, 19411, Note_on_c, 9, 82, 0
2, 19425, Note_on_c, 0, 67, 0
2, 19431, Note_on_c, 0, 71, 0
2, 19431, Note_on_c, 0, 62, 0
2, 19435, Note_on_c, 1, 31, 0
2, 19435, Note_on_c, 0, 74, 0
2, 19435, Note_on_c, 4, 67, 76
2, 19440, Note_on_c, 9, 42, 123
2, 19441, Note_on_c, 9, 42, 0
2, 19441, Note_on_c, 9, 54, 75
2, 19441, Note_on_c, 9, 54, 0
2, 19465, Note_on_c, 1, 31, 79
2, 19465, Note_on_c, 0, 62, 62
2, 19466, Note_on_c, 0, 67, 59
2, 19466, Note_on_c, 0, 71, 64
2, 19466, Note_on_c, 0, 74, 82
2, 19466, Note_on_c, 4, 62, 51
2, 19470, Note_on_c, 9, 36, 45
2, 19470, Note_on_c, 9, 54, 58
2, 19471, Note_on_c, 9, 54, 0
2, 19471, Note_on_c, 9, 36, 0
2, 19480, Note_on_c, 1, 31, 0
2, 19496, Note_on_c, 0, 67, 0
2, 19496, Note_on_c, 0, 62, 0
2, 19496, Note_on_c, 0, 71, 0
2, 19496, Note_on_c, 1, 31, 110
2, 19496, Note_on_c, 0, 62, 74
2, 19496, Note_on_c, 0, 67, 76
2, 19496, Note_on_c, 0, 71, 76
2, 19500, Note_on_c, 9, 36, 123
2, 19500, Note_on_c, 9, 36, 0
2, 19500, Note_on_c, 9, 53, 86
2, 19500, Note_on_c, 9, 53, 0
2, 19500, Note_on_c, 9, 42, 49
2, 19500, Note_on_c, 9, 42, 0
2, 19500, Note_on_c, 9, 54, 51
2, 19500, Note_on_c, 9, 54, 0
2, 19500, Note_on_c, 9, 82, 63
2, 19500, Note_on_c, 9, 82, 0
2, 19520, Note_on_c, 0, 62, 0
2, 19521, Note_on_c, 0, 67, 0
2, 19525, Note_on_c, 0, 74, 0
2, 19525, Note_on_c, 0, 62, 79
2, 19526, Note_on_c, 0, 67, 82
2, 19526, Note_on_c, 0, 74, 79
2, 19526, Note_on_c, 4, 69, 82
2, 19530, Note_on_c, 1, 31, 0
2, 19530, Note_on_c, 9, 54, 56
2, 19530, Note_on_c, 9, 82, 51
2, 19531, Note_on_c, 9, 82, 0
2, 19531, Note_on_c, 9, 54, 0
2, 19535, Note_on_c, 4, 62, 0
2, 19550, Note_on_c, 0, 71, 0
2, 19556, Note_on_c, 0, 67, 0
2, 19556, Note_on_c, 0, 62, 0
2, 19556, Note_on_c, 0, 74, 0
2, 19556, Note_on_c, 1, 31, 110
2, 19556, Note_on_c, 0, 62, 91
2, 19556, Note_on_c, 0, 67, 91
2, 19556, Note_on_c, 0, 71, 86
2, 19556, Note_on_c, 0, 74, 82
2, 19561, Note_on_c, 9, 38, 114
2, 19561, Note_on_c, 9, 38, 0
2, 19561, Note_on_c, 9, 42, 123
2, 19561, Note_on_c, 9, 42, 0
2, 19561, Note_on_c, 9, 123, 91
2, 19561, Note_on_c, 9, 123, 0
2, 19561, Note_on_c, 9, 54, 85
2, 19561, Note_on_c, 9, 54, 0
2, 19585, Note_on_c, 4, 62, 64
2, 19590, Note_on_c, 4, 67, 0
2, 19590, Note_on_c, 9, 54, 28
2, 19590, Note_on_c, 9, 54, 0
2, 19601, Note_on_c, 1, 31, 0
2, 19610, Note_on_c, 0, 67, 0
2, 19611, Note_on_c, 0, 71, 0
2, 19611, Note_on_c, 0, 74, 0
2, 19616, Note_on_c, 0, 62, 0
2, 19616, Note_on_c, 1, 31, 79
2, 19616, Note_on_c, 4, 67, 79
2, 19621, Note_on_c, 9, 53, 82
2, 19621, Note_on_c, 9, 53, 0
2, 19621, Note_on_c, 9, 42, 41
2, 19621, Note_on_c, 9, 42, 0
2, 19621, Note_on_c, 9, 54, 51
2, 19621, Note_on_c, 9, 54, 0
2, 19621, Note_on_c, 9, 82, 58
2, 19621, Note_on_c, 9, 82, 0
2, 19625, Note_on_c, 4, 62, 0
2, 19630, Note_on_c, 1, 31, 0
2, 19640, Note_on_c, 4, 55, 0
2, 19645, Note_on_c, 1, 31, 86
2, 19645, Note_on_c, 4, 62, 67
2, 19650, Note_on_c, 9, 25, 72
2, 19651, Note_on_c, 9, 25, 0
2, 19651, Note_on_c, 9, 54, 49
2, 19651, Note_on_c, 9, 54, 0
2, 19651, Note_on_c, 9, 82, 58
2, 19651, Note_on_c, 9, 82, 0
2, 19665, Note_on_c, 1, 31, 0
2, 19665, Note_on_c, 4, 67, 0
2, 19671, Note_on_c, 4, 62, 0
2, 19671, Note_on_c, 4, 69, 0
2, 19675, Note_on_c, 1, 31, 110
2, 19675, Note_on_c, 0, 62, 72
2, 19676, Note_on_c, 0, 67, 69
2, 19676, Note_on_c, 0, 71, 72
2, 19676, Note_on_c, 0, 74, 72
2, 19676, Note_on_c, 4, 55, 90
2, 19677, Note_on_c, 6, 71, 0
2, 19677, Note_on_c, 6, 62, 0
2, 19677, Note_on_c, 6, 67, 0
2, 19680, Note_on_c, 9, 36, 110
2, 19680, Note_on_c, 9, 42, 123
2, 19681, Note_on_c, 9, 42, 0
2, 19681, Note_on_c, 9, 36, 0
2, 19681, Note_on_c, 9, 54, 91
2, 19681, Note_on_c, 9, 54, 0
2, 19700, Note_on_c, 0, 67, 0
2, 19700, Note_on_c, 0, 74, 0
2, 19700, Note_on_c, 0, 62, 0
2, 19705, Note_on_c, 1, 31, 0
2, 19705, Note_on_c, 0, 62, 69
2, 19705, Note_on_c, 0, 67, 79
2, 19705, Note_on_c, 0, 74, 79
2, 19710, Note_on_c, 9, 54, 49
2, 19711, Note_on_c, 9, 54, 0
2, 19730, Note_on_c, 0, 71, 0
2, 19735, Note_on_c, 0, 67, 0
2, 19736, Note_on_c, 0, 74, 0
2, 19736, Note_on_c, 1, 31, 106
2, 19736, Note_on_c, 0, 67, 82
2, 19736, Note_on_c, 0, 71, 76
2, 19736, Note_on_c, 0, 74, 79
2, 19736, Note_on_c, 4, 71, 90
2, 19740, Note_on_c, 9, 36, 114
2, 19741, Note_on_c, 9, 36, 0
2, 19741, Note_on_c, 9, 53, 79
2, 19741, Note_on_c, 9, 53, 0
2, 19741, Note_on_c, 9, 42, 61
2, 19741, Note_on_c, 9, 42, 0
2, 19741, Note_on_c, 9, 54, 53
2, 19741, Note_on_c, 9, 54, 0
2, 19741, Note_on_c, 9, 82, 56
2, 19741, Note_on_c, 9, 82, 0
2, 19760, Note_on_c, 0, 62, 0
2, 19761, Note_on_c, 0, 74, 0
2, 19761, Note_on_c, 0, 67, 0
2, 19765, Note_on_c, 1, 31, 0
2, 19765, Note_on_c, 0, 62, 72
2, 19765, Note_on_c, 0, 67, 79
2, 19765, Note_on_c, 0, 74, 79
2, 19770, Note_on_c, 9, 54, 53
2, 19770, Note_on_c, 9, 54, 0
2, 19770, Note_on_c, 9, 82, 58
2, 19770, Note_on_c, 9, 82, 0
2, 19790, Note_on_c, 0, 71, 0
2, 19795, Note_on_c, 0, 62, 0
2, 19796, Note_on_c, 0, 74, 0
2, 19796, Note_on_c, 1, 31, 110
2, 19796, Note_on_c, 0, 62, 82
2, 19796, Note_on_c, 0, 71, 96
2, 19796, Note_on_c, 0, 74, 96
2, 19796, Note_on_c, 4, 67, 76
2, 19800, Note_on_c, 9, 38, 114
2, 19801, Note_on_c, 9, 38, 0
2, 19801, Note_on_c, 9, 42, 127
2, 19801, Note_on_c, 9, 42, 0
2, 19801, Note_on_c, 9, 123, 99
2, 19801, Note_on_c, 9, 123, 0
2, 19801, Note_on_c, 9, 54, 106
2, 19801, Note_on_c, 9, 54, 0
2, 19825, Note_on_c, 4, 62, 90
2, 19830, Note_on_c, 9, 54, 58
2, 19830, Note_on_c, 9, 54, 0
2, 19855, Note_on_c, 0, 67, 0
2, 19856, Note_on_c, 0, 74, 0
2, 19856, Note_on_c, 0, 62, 0
2, 19856, Note_on_c, 0, 71, 0
2, 19860, Note_on_c, 9, 53, 76
2, 19860, Note_on_c, 9, 42, 56
2, 19861, Note_on_c, 9, 42, 0
2, 19861, Note_on_c, 9, 53, 0
2, 19861, Note_on_c, 9, 54, 51
2, 19861, Note_on_c, 9, 54, 0
2, 19861, Note_on_c, 9, 82, 53
2, 19861, Note_on_c, 9, 82, 0
2, 19865, Note_on_c, 1, 31, 0
2, 19865, Note_on_c, 4, 55, 0
2, 19876, Note_on_c, 4, 62, 0
2, 19885, Note_on_c, 4, 71, 0
2, 19885, Note_on_c, 1, 31, 106
2, 19886, Note_on_c, 0, 62, 76
2, 19886, Note_on_c, 0, 67, 79
2, 19886, Note_on_c, 0, 71, 74
2, 19886, Note_on_c, 0, 74, 89
2, 19886, Note_on_c, 4, 55, 86
2, 19890, Note_on_c, 9, 36, 114
2, 19891, Note_on_c, 9, 36, 0
2, 19891, Note_on_c, 4, 67, 0
2, 19891, Note_on_c, 9, 54, 49
2, 19891, Note_on_c, 9, 54, 0
2, 19891, Note_on_c, 9, 82, 56
2, 19891, Note_on_c, 9, 82, 0
2, 19905, Note_on_c, 0, 71, 0
2, 19905, Note_on_c, 0, 67, 0
2, 19911, Note_on_c, 0, 62, 0
2, 19915, Note_on_c, 0, 74, 0
2, 19915, Note_on_c, 4, 71, 82
2, 19920, Note_on_c, 1, 31, 0
2, 19920, Note_on_c, 9, 42, 127
2, 19920, Note_on_c, 9, 54, 99
2, 19921, Note_on_c, 9, 54, 0
2, 19921, Note_on_c, 9, 42, 0
2, 19945, Note_on_c, 1, 31, 102
2, 19945, Note_on_c, 0, 62, 62
2, 19945, Note_on_c, 0, 67, 59
2, 19946, Note_on_c, 0, 71, 64
2, 19946, Note_on_c, 0, 74, 82
2, 19951, Note_on_c, 9, 36, 35
2, 19951, Note_on_c, 9, 36, 0
2, 19951, Note_on_c, 9, 54, 45
2, 19951, Note_on_c, 9, 54, 0
2, 19965, Note_on_c, 1, 31, 0
2, 19970, Note_on_c, 0, 71, 0
2, 19970, Note_on_c, 0, 67, 0
2, 19970, Note_on_c, 0, 62, 0
2, 19975, Note_on_c, 1, 31, 106
2, 19975, Note_on_c, 0, 62, 74
2, 19976, Note_on_c, 0, 67, 76
2, 19976, Note_on_c, 0, 71, 76
2, 19976, Note_on_c, 4, 67, 74
2, 19980, Note_on_c, 9, 36, 127
2, 19980, Note_on_c, 9, 53, 82
2, 19980, Note_on_c, 9, 42, 51
2, 19980, Note_on_c, 9, 54, 45
2, 19981, Note_on_c, 9, 54, 0
2, 19981, Note_on_c, 9, 36, 0
2, 19981, Note_on_c, 9, 42, 0
2, 19981, Note_on_c, 9, 53, 0
2, 19981, Note_on_c, 9, 82, 56
2, 19981, Note_on_c, 9, 82, 0
2, 20006, Note_on_c, 0, 74, 0
2, 20006, Note_on_c, 0, 62, 0
2, 20006, Note_on_c, 0, 67, 0
2, 20006, Note_on_c, 0, 62, 79
2, 20006, Note_on_c, 0, 67, 82
2, 20006, Note_on_c, 0, 74, 79
2, 20006, Note_on_c, 4, 62, 82
2, 20011, Note_on_c, 1, 31, 0
2, 20011, Note_on_c, 9, 54, 53
2, 20011, Note_on_c, 9, 54, 0
2, 20011, Note_on_c, 9, 82, 58
2, 20011, Note_on_c, 9, 82, 0
2, 20030, Note_on_c, 0, 67, 0
2, 20030, Note_on_c, 0, 74, 0
2, 20035, Note_on_c, 0, 71, 0
2, 20035, Note_on_c, 0, 62, 0
2, 20035, Note_on_c, 1, 31, 114
2, 20035, Note_on_c, 0, 62, 91
2, 20035, Note_on_c, 0, 67, 91
2, 20035, Note_on_c, 0, 71, 86
2, 20035, Note_on_c, 0, 74, 82
2, 20040, Note_on_c, 9, 38, 114
2, 20040, Note_on_c, 9, 38, 0
2, 20040, Note_on_c, 9, 42, 123
2, 20040, Note_on_c, 9, 123, 85
2, 20040, Note_on_c, 9, 54, 99
2, 20041, Note_on_c, 9, 54, 0
2, 20041, Note_on_c, 9, 123, 0
2, 20041, Note_on_c, 9, 42, 0
2, 20045, Note_on_c, 4, 67, 0
2, 20066, Note_on_c, 4, 67, 67
2, 20070, Note_on_c, 4, 71, 0
2, 20070, Note_on_c, 9, 54, 56
2, 20070, Note_on_c, 9, 54, 0
2, 20075, Note_on_c, 1, 31, 0
2, 20081, Note_on_c, 4, 62, 0
2, 20091, Note_on_c, 0, 67, 0
2, 20091, Note_on_c, 0, 71, 0
2, 20091, Note_on_c, 0, 74, 0
2, 20095, Note_on_c, 0, 62, 0
2, 20095, Note_on_c, 1, 31, 79
2, 20095, Note_on_c, 4, 71, 86
2, 20100, Note_on_c, 4, 67, 0
2, 20100, Note_on_c, 9, 53, 86
2, 20100, Note_on_c, 9, 42, 75
2, 20100, Note_on_c, 9, 54, 38
2, 20101, Note_on_c, 9, 54, 0
2, 20101, Note_on_c, 9, 42, 0
2, 20101, Note_on_c, 9, 53, 0
2, 20101, Note_on_c, 9, 82, 49
2, 20101, Note_on_c, 9, 82, 0
2, 20110, Note_on_c, 1, 31, 0
2, 20125, Note_on_c, 1, 31, 106
2, 20125, Note_on_c, 4, 67, 76
2, 20130, Note_on_c, 9, 54, 45
2, 20131, Note_on_c, 9, 54, 0
2, 20131, Note_on_c, 9, 82, 56
2, 20131, Note_on_c, 9, 82, 0
2, 20135, Note_on_c, 4, 55, 0
2, 20151, Note_on_c, 4, 71, 0
2, 20155, Note_on_c, 1, 31, 0
2, 20156, Note_on_c, 6, 62, 0
2, 20156, Note_on_c, 6, 71, 0
2, 20156, Note_on_c, 4, 67, 0
2, 20156, Note_on_c, 6, 67, 0
2, 20156, Note_on_c, 1, 33, 106
2, 20156, Note_on_c, 0, 60, 72
2, 20156, Note_on_c, 0, 48, 72
2, 20156, Note_on_c, 0, 52, 72
2, 20156, Note_on_c, 0, 57, 69
2, 20156, Note_on_c, 4, 45, 86
2, 20156, Note_on_c, 6, 60, 61
2, 20156, Note_on_c, 6, 52, 57
2, 20156, Note_on_c, 6, 57, 64
2, 20160, Note_on_c, 9, 36, 127
2, 20160, Note_on_c, 9, 42, 127
2, 20161, Note_on_c, 9, 42, 0
2, 20161, Note_on_c, 9, 36, 0
2, 20161, Note_on_c, 9, 54, 85
2, 20161, Note_on_c, 9, 54, 0
2, 20175, Note_on_c, 0, 57, 0
2, 20175, Note_on_c, 0, 60, 0
2, 20175, Note_on_c, 0, 52, 0
2, 20185, Note_on_c, 0, 60, 79
2, 20186, Note_on_c, 0, 52, 69
2, 20186, Note_on_c, 0, 57, 79
2, 20190, Note_on_c, 1, 33, 0
2, 20190, Note_on_c, 9, 54, 75
2, 20190, Note_on_c, 9, 54, 0
2, 20205, Note_on_c, 0, 48, 0
2, 20211, Note_on_c, 0, 57, 0
2, 20211, Note_on_c, 0, 60, 0
2, 20215, Note_on_c, 1, 33, 110
2, 20215, Note_on_c, 0, 60, 79
2, 20215, Note_on_c, 0, 48, 76
2, 20216, Note_on_c, 0, 57, 82
2, 20216, Note_on_c, 4, 60, 90
2, 20221, Note_on_c, 9, 36, 86
2, 20221, Note_on_c, 9, 36, 0
2, 20221, Note_on_c, 9, 53, 86
2, 20221, Note_on_c, 9, 53, 0
2, 20221, Note_on_c, 9, 54, 72
2, 20221, Note_on_c, 9, 54, 0
2, 20221, Note_on_c, 9, 42, 66
2, 20221, Note_on_c, 9, 42, 0
2, 20221, Note_on_c, 9, 82, 53
2, 20221, Note_on_c, 9, 82, 0
2, 20240, Note_on_c, 0, 52, 0
2, 20246, Note_on_c, 0, 57, 0
2, 20246, Note_on_c, 0, 60, 0
2, 20246, Note_on_c, 0, 60, 79
2, 20246, Note_on_c, 0, 52, 72
2, 20246, Note_on_c, 0, 57, 79
2, 20250, Note_on_c, 1, 33, 0
2, 20250, Note_on_c, 9, 54, 72
2, 20250, Note_on_c, 9, 54, 0
2, 20250, Note_on_c, 9, 82, 75
2, 20250, Note_on_c, 9, 82, 0
2, 20271, Note_on_c, 0, 60, 0
2, 20271, Note_on_c, 0, 52, 0
2, 20271, Note_on_c, 0, 48, 0
2, 20275, Note_on_c, 1, 33, 106
2, 20276, Note_on_c, 0, 60, 96
2, 20276, Note_on_c, 0, 48, 96
2, 20276, Note_on_c, 0, 52, 82
2, 20276, Note_on_c, 4, 57, 69
2, 20280, Note_on_c, 9, 38, 114
2, 20280, Note_on_c, 9, 42, 123
2, 20281, Note_on_c, 9, 42, 0
2, 20281, Note_on_c, 9, 38, 0
2, 20281, Note_on_c, 9, 123, 99
2, 20281, Note_on_c, 9, 123, 0
2, 20281, Note_on_c, 9, 54, 85
2, 20281, Note_on_c, 9, 54, 0
2, 20305, Note_on_c, 4, 64, 86
2, 20310, Note_on_c, 9, 54, 69
2, 20311, Note_on_c, 9, 54, 0
2, 20315, Note_on_c, 4, 45, 0
2, 20330, Note_on_c, 0, 57, 0
2, 20336, Note_on_c, 0, 48, 0
2, 20336, Note_on_c, 0, 60, 0
2, 20336, Note_on_c, 0, 52, 0
2, 20340, Note_on_c, 9, 53, 82
2, 20341, Note_on_c, 9, 53, 0
2, 20341, Note_on_c, 1, 33, 0
2, 20341, Note_on_c, 9, 42, 51
2, 20341, Note_on_c, 9, 42, 0
2, 20341, Note_on_c, 9, 54, 58
2, 20341, Note_on_c, 9, 54, 0
2, 20341, Note_on_c, 9, 82, 58
2, 20341, Note_on_c, 9, 82, 0
2, 20346, Note_on_c, 4, 64, 0
2, 20360, Note_on_c, 4, 60, 0
2, 20365, Note_on_c, 4, 57, 0
2, 20365, Note_on_c, 1, 33, 110
2, 20365, Note_on_c, 0, 60, 89
2, 20366, Note_on_c, 0, 48, 74
2, 20366, Note_on_c, 0, 52, 76
2, 20366, Note_on_c, 0, 57, 79
2, 20366, Note_on_c, 4, 45, 86
2, 20370, Note_on_c, 9, 36, 114
2, 20371, Note_on_c, 9, 36, 0
2, 20371, Note_on_c, 9, 54, 53
2, 20371, Note_on_c, 9, 54, 0
2, 20371, Note_on_c, 9, 82, 56
2, 20371, Note_on_c, 9, 82, 0
2, 20385, Note_on_c, 0, 52, 0
2, 20385, Note_on_c, 0, 48, 0
2, 20386, Note_on_c, 0, 57, 0
2, 20390, Note_on_c, 0, 60, 0
2, 20395, Note_on_c, 1, 33, 0
2, 20395, Note_on_c, 4, 60, 80
2, 20401, Note_on_c, 9, 42, 123
2, 20401, Note_on_c, 9, 42, 0
2, 20401, Note_on_c, 9, 54, 75
2, 20401, Note_on_c, 9, 54, 0
2, 20425, Note_on_c, 1, 33, 79
2, 20425, Note_on_c, 0, 60, 82
2, 20425, Note_on_c, 0, 48, 64
2, 20426, Note_on_c, 0, 52, 62
2, 20426, Note_on_c, 0, 57, 59
2, 20430, Note_on_c, 9, 36, 45
2, 20431, Note_on_c, 9, 36, 0
2, 20431, Note_on_c, 9, 54, 58
2, 20431, Note_on_c, 9, 54, 0
2, 20440, Note_on_c, 1, 33, 0
2, 20450, Note_on_c, 0, 48, 0
2, 20451, Note_on_c, 0, 52, 0
2, 20451, Note_on_c, 0, 57, 0
2, 20455, Note_on_c, 1, 33, 110
2, 20455, Note_on_c, 0, 48, 76
2, 20456, Note_on_c, 0, 52, 74
2, 20456, Note_on_c, 0, 57, 76
2, 20456, Note_on_c, 4, 57, 74
2, 20460, Note_on_c, 9, 36, 123
2, 20460, Note_on_c, 9, 53, 86
2, 20461, Note_on_c, 9, 53, 0
2, 20461, Note_on_c, 9, 36, 0
2, 20461, Note_on_c, 9, 42, 49
2, 20461, Note_on_c, 9, 42, 0
2, 20461, Note_on_c, 9, 54, 51
2, 20461, Note_on_c, 9, 54, 0
2, 20461, Note_on_c, 9, 82, 63
2, 20461, Note_on_c, 9, 82, 0
2, 20486, Note_on_c, 0, 52, 0
2, 20486, Note_on_c, 0, 57, 0
2, 20486, Note_on_c, 0, 60, 0
2, 20486, Note_on_c, 0, 60, 79
2, 20486, Note_on_c, 0, 52, 79
2, 20486, Note_on_c, 0, 57, 82
2, 20486, Note_on_c, 4, 64, 86
2, 20490, Note_on_c, 1, 33, 0
2, 20490, Note_on_c, 9, 54, 56
2, 20490, Note_on_c, 9, 54, 0
2, 20490, Note_on_c, 9, 82, 51
2, 20490, Note_on_c, 9, 82, 0
2, 20510, Note_on_c, 0, 60, 0
2, 20510, Note_on_c, 0, 52, 0
2, 20510, Note_on_c, 0, 57, 0
2, 20515, Note_on_c, 0, 48, 0
2, 20515, Note_on_c, 1, 33, 110
2, 20515, Note_on_c, 0, 60, 82
2, 20515, Note_on_c, 0, 48, 86
2, 20516, Note_on_c, 0, 52, 91
2, 20516, Note_on_c, 0, 57, 91
2, 20520, Note_on_c, 9, 38, 114
2, 20521, Note_on_c, 9, 38, 0
2, 20521, Note_on_c, 4, 57, 0
2, 20521, Note_on_c, 9, 42, 123
2, 20521, Note_on_c, 9, 42, 0
2, 20521, Note_on_c, 9, 123, 91
2, 20521, Note_on_c, 9, 123, 0
2, 20521, Note_on_c, 9, 54, 85
2, 20521, Note_on_c, 9, 54, 0
2, 20545, Note_on_c, 4, 57, 64
2, 20551, Note_on_c, 9, 54, 28
2, 20551, Note_on_c, 9, 54, 0
2, 20560, Note_on_c, 1, 33, 0
2, 20565, Note_on_c, 4, 60, 0
2, 20570, Note_on_c, 0, 52, 0
2, 20570, Note_on_c, 0, 57, 0
2, 20575, Note_on_c, 0, 60, 0
2, 20576, Note_on_c, 0, 48, 0
2, 20576, Note_on_c, 1, 33, 79
2, 20576, Note_on_c, 4, 60, 80
2, 20580, Note_on_c, 4, 57, 0
2, 20580, Note_on_c, 9, 53, 82
2, 20580, Note_on_c, 9, 42, 41
2, 20581, Note_on_c, 9, 42, 0
2, 20581, Note_on_c, 9, 53, 0
2, 20581, Note_on_c, 9, 54, 51
2, 20581, Note_on_c, 9, 54, 0
2, 20581, Note_on_c, 9, 82, 58
2, 20581, Note_on_c, 9, 82, 0
2, 20590, Note_on_c, 1, 33, 0
2, 20606, Note_on_c, 1, 33, 86
2, 20606, Note_on_c, 4, 57, 86
2, 20611, Note_on_c, 4, 45, 0
2, 20611, Note_on_c, 9, 25, 72
2, 20611, Note_on_c, 9, 25, 0
2, 20611, Note_on_c, 9, 54, 49
2, 20611, Note_on_c, 9, 54, 0
2, 20611, Note_on_c, 9, 82, 58
2, 20611, Note_on_c, 9, 82, 0
2, 20625, Note_on_c, 1, 33, 0
2, 20635, Note_on_c, 1, 33, 110
2, 20635, Note_on_c, 0, 60, 72
2, 20636, Note_on_c, 0, 48, 72
2, 20636, Note_on_c, 0, 52, 72
2, 20636, Note_on_c, 0, 57, 69
2, 20636, Note_on_c, 4, 45, 90
2, 20640, Note_on_c, 9, 36, 110
2, 20640, Note_on_c, 9, 42, 123
2, 20641, Note_on_c, 9, 42, 0
2, 20641, Note_on_c, 4, 57, 0
2, 20641, Note_on_c, 9, 36, 0
2, 20641, Note_on_c, 4, 60, 0
2, 20641, Note_on_c, 4, 64, 0
2, 20641, Note_on_c, 9, 54, 91
2, 20641, Note_on_c, 9, 54, 0
2, 20665, Note_on_c, 0, 52, 0
2, 20665, Note_on_c, 1, 33, 0
2, 20665, Note_on_c, 0, 60, 0
2, 20666, Note_on_c, 0, 57, 0
2, 20666, Note_on_c, 0, 60, 79
2, 20666, Note_on_c, 0, 52, 69
2, 20666, Note_on_c, 0, 57, 79
2, 20670, Note_on_c, 9, 54, 49
2, 20671, Note_on_c, 9, 54, 0
2, 20690, Note_on_c, 0, 57, 0
2, 20690, Note_on_c, 0, 60, 0
2, 20695, Note_on_c, 0, 48, 0
2, 20695, Note_on_c, 1, 33, 106
2, 20695, Note_on_c, 0, 60, 79
2, 20695, Note_on_c, 0, 48, 76
2, 20696, Note_on_c, 0, 57, 82
2, 20696, Note_on_c, 4, 60, 90
2, 20700, Note_on_c, 9, 36, 114
2, 20700, Note_on_c, 9, 53, 79
2, 20701, Note_on_c, 9, 53, 0
2, 20701, Note_on_c, 9, 36, 0
2, 20701, Note_on_c, 9, 42, 61
2, 20701, Note_on_c, 9, 42, 0
2, 20701, Note_on_c, 9, 54, 53
2, 20701, Note_on_c, 9, 54, 0
2, 20701, Note_on_c, 9, 82, 56
2, 20701, Note_on_c, 9, 82, 0
2, 20720, Note_on_c, 0, 60, 0
2, 20720, Note_on_c, 0, 52, 0
2, 20721, Note_on_c, 0, 57, 0
2, 20725, Note_on_c, 1, 33, 0
2, 20725, Note_on_c, 0, 60, 79
2, 20726, Note_on_c, 0, 52, 72
2, 20726, Note_on_c, 0, 57, 79
2, 20730, Note_on_c, 9, 54, 53
2, 20731, Note_on_c, 9, 54, 0
2, 20731, Note_on_c, 9, 82, 58
2, 20731, Note_on_c, 9, 82, 0
2, 20755, Note_on_c, 0, 52, 0
2, 20755, Note_on_c, 0, 60, 0
2, 20756, Note_on_c, 0, 48, 0
2, 20756, Note_on_c, 1, 33, 110
2, 20756, Note_on_c, 0, 60, 96
2, 20756, Note_on_c, 0, 48, 96
2, 20756, Note_on_c, 0, 52, 82
2, 20756, Note_on_c, 4, 57, 74
2, 20760, Note_on_c, 9, 38, 114
2, 20760, Note_on_c, 9, 38, 0
2, 20760, Note_on_c, 9, 42, 127
2, 20760, Note_on_c, 9, 42, 0
2, 20760, Note_on_c, 9, 123, 99
2, 20760, Note_on_c, 9, 54, 106
2, 20761, Note_on_c, 9, 54, 0
2, 20761, Note_on_c, 9, 123, 0
2, 20785, Note_on_c, 4, 64, 82
2, 20791, Note_on_c, 9, 54, 58
2, 20791, Note_on_c, 9, 54, 0
2, 20805, Note_on_c, 4, 57, 0
2, 20806, Note_on_c, 4, 45, 0
2, 20816, Note_on_c, 0, 48, 0
2, 20816, Note_on_c, 0, 60, 0
2, 20816, Note_on_c, 0, 57, 0
2, 20816, Note_on_c, 0, 52, 0
2, 20816, Note_on_c, 4, 64, 0
2, 20816, Note_on_c, 4, 57, 67
2, 20820, Note_on_c, 9, 53, 76
2, 20820, Note_on_c, 9, 53, 0
2, 20820, Note_on_c, 9, 42, 56
2, 20820, Note_on_c, 9, 42, 0
2, 20820, Note_on_c, 9, 54, 51
2, 20820, Note_on_c, 9, 54, 0
2, 20820, Note_on_c, 9, 82, 53
2, 20820, Note_on_c, 9, 82, 0
2, 20825, Note_on_c, 1, 33, 0
2, 20830, Note_on_c, 4, 60, 0
2, 20830, Note_on_c, 4, 57, 0
2, 20845, Note_on_c, 1, 33, 106
2, 20845, Note_on_c, 0, 60, 89
2, 20846, Note_on_c, 0, 48, 74
2, 20846, Note_on_c, 0, 52, 76
2, 20846, Note_on_c, 0, 57, 79
2, 20846, Note_on_c, 4, 45, 86
2, 20850, Note_on_c, 9, 36, 114
2, 20850, Note_on_c, 9, 54, 49
2, 20851, Note_on_c, 9, 54, 0
2, 20851, Note_on_c, 9, 36, 0
2, 20851, Note_on_c, 9, 82, 56
2, 20851, Note_on_c, 9, 82, 0
2, 20866, Note_on_c, 0, 57, 0
2, 20870, Note_on_c, 0, 48, 0
2, 20871, Note_on_c, 0, 52, 0
2, 20875, Note_on_c, 0, 60, 0
2, 20875, Note_on_c, 4, 60, 90
2, 20880, Note_on_c, 9, 42, 127
2, 20881, Note_on_c, 9, 42, 0
2, 20881, Note_on_c, 1, 33, 0
2, 20881, Note_on_c, 9, 54, 99
2, 20881, Note_on_c, 9, 54, 0
2, 20905, Note_on_c, 1, 33, 102
2, 20905, Note_on_c, 0, 60, 82
2, 20905, Note_on_c, 0, 48, 64
2, 20905, Note_on_c, 0, 52, 62
2, 20906, Note_on_c, 0, 57, 59
2, 20910, Note_on_c, 9, 36, 35
2, 20911, Note_on_c, 9, 36, 0
2, 20911, Note_on_c, 9, 54, 45
2, 20911, Note_on_c, 9, 54, 0
2, 20925, Note_on_c, 1, 33, 0
2, 20935, Note_on_c, 0, 48, 0
2, 20936, Note_on_c, 0, 52, 0
2, 20936, Note_on_c, 0, 57, 0
2, 20936, Note_on_c, 1, 33, 106
2, 20936, Note_on_c, 0, 48, 76
2, 20936, Note_on_c, 0, 52, 74
2, 20936, Note_on_c, 0, 57, 76
2, 20936, Note_on_c, 4, 57, 74
2, 20941, Note_on_c, 9, 36, 127
2, 20941, Note_on_c, 9, 36, 0
2, 20941, Note_on_c, 9, 53, 82
2, 20941, Note_on_c, 9, 53, 0
2, 20941, Note_on_c, 9, 42, 51
2, 20941, Note_on_c, 9, 42, 0
2, 20941, Note_on_c, 9, 54, 45
2, 20941, Note_on_c, 9, 54, 0
2, 20941, Note_on_c, 9, 82, 56
2, 20941, Note_on_c, 9, 82, 0
2, 20960, Note_on_c, 0, 52, 0
2, 20960, Note_on_c, 0, 57, 0
2, 20965, Note_on_c, 0, 60, 0
2, 20966, Note_on_c, 0, 60, 79
2, 20966, Note_on_c, 0, 52, 79
2, 20966, Note_on_c, 0, 57, 82
2, 20966, Note_on_c, 4, 64, 82
2, 20970, Note_on_c, 9, 54, 53
2, 20971, Note_on_c, 9, 54, 0
2, 20971, Note_on_c, 1, 33, 0
2, 20971, Note_on_c, 9, 82, 58
2, 20971, Note_on_c, 9, 82, 0
2, 20995, Note_on_c, 0, 60, 0
2, 20996, Note_on_c, 0, 52, 0
2, 20996, Note_on_c, 0, 48, 0
2, 20996, Note_on_c, 0, 57, 0
2, 20996, Note_on_c, 1, 33, 114
2, 20996, Note_on_c, 0, 60, 82
2, 20996, Note_on_c, 0, 48, 86
2, 20996, Note_on_c, 0, 52, 91
2, 20996, Note_on_c, 0, 57, 91
2, 21000, Note_on_c, 9, 38, 114
2, 21000, Note_on_c, 9, 42, 123
2, 21001, Note_on_c, 9, 42, 0
2, 21001, Note_on_c, 9, 38, 0
2, 21001, Note_on_c, 4, 57, 0
2, 21001, Note_on_c, 9, 123, 85
2, 21001, Note_on_c, 9, 123, 0
2, 21001, Note_on_c, 9, 54, 99
2, 21001, Note_on_c, 9, 54, 0
2, 21025, Note_on_c, 4, 57, 69
2, 21030, Note_on_c, 9, 54, 56
2, 21030, Note_on_c, 9, 54, 0
2, 21035, Note_on_c, 1, 33, 0
2, 21035, Note_on_c, 4, 60, 0
2, 21051, Note_on_c, 0, 52, 0
2, 21051, Note_on_c, 0, 48, 0
2, 21051, Note_on_c, 0, 57, 0
2, 21055, Note_on_c, 0, 60, 0
2, 21055, Note_on_c, 4, 57, 0
2, 21055, Note_on_c, 1, 33, 79
2, 21055, Note_on_c, 4, 60, 85
2, 21060, Note_on_c, 9, 53, 86
2, 21061, Note_on_c, 9, 53, 0
2, 21061, Note_on_c, 9, 42, 75
2, 21061, Note_on_c, 9, 42, 0
2, 21061, Note_on_c, 9, 54, 38
2, 21061, Note_on_c, 9, 54, 0
2, 21061, Note_on_c, 9, 82, 49
2, 21061, Note_on_c, 9, 82, 0
2, 21071, Note_on_c, 1, 33, 0
2, 21085, Note_on_c, 1, 33, 106
2, 21085, Note_on_c, 4, 57, 90
2, 21090, Note_on_c, 9, 54, 45
2, 21090, Note_on_c, 9, 54, 0
2, 21090, Note_on_c, 9, 82, 56
2, 21090, Note_on_c, 9, 82, 0
2, 21105, Note_on_c, 4, 57, 0
2, 21106, Note_on_c, 4, 64, 0
2, 21110, Note_on_c, 6, 52, 0
2, 21110, Note_on_c, 4, 60, 0
2, 21111, Note_on_c, 6, 57, 0
2, 21115, Note_on_c, 6, 60, 0
2, 21115, Note_on_c, 4, 45, 0
2, 21115, Note_on_c, 1, 33, 0
2, 21115, Note_on_c, 1, 33, 106
2, 21115, Note_on_c, 0, 60, 72
2, 21115, Note_on_c, 0, 48, 72
2, 21116, Note_on_c, 0, 52, 72
2, 21116, Note_on_c, 0, 57, 69
2, 21116, Note_on_c, 4, 45, 86
2, 21116, Note_on_c, 6, 60, 61
2, 21116, Note_on_c, 6, 52, 57
2, 21116, Note_on_c, 6, 57, 64
2, 21120, Note_on_c, 9, 36, 127
2, 21121, Note_on_c, 9, 36, 0
2, 21121, Note_on_c, 0, 48, 0
2, 21121, Note_on_c, 0, 52, 0
2, 21121, Note_on_c, 1, 33, 0
2, 21121, Note_on_c, 0, 57, 0
2, 21121, Note_on_c, 0, 60, 0
2, 21121, Note_on_c, 6, 52, 0
2, 21121, Note_on_c, 6, 60, 0
2, 21121, Note_on_c, 4, 45, 0
2, 21121, Note_on_c, 6, 57, 0
2, 21121, Note_on_c, 9, 42, 127
2, 21121, Note_on_c, 9, 42, 0
2, 21121, Note_on_c, 9, 54, 85
2, 21121, Note_on_c, 9, 54, 0
2, 21121, Control_c, 1, 84, 33
2, 21121, Note_on_c, 1, 38, 106
2, 21121, Control_c, 0, 84, 60
2, 21121, Note_on_c, 0, 57, 72
2, 21121, Note_on_c, 0, 57, 0
2, 21121, Control_c, 0, 84, 48
2, 21121, Note_on_c, 0, 62, 69
2, 21121, Control_c, 0, 84, 52
2, 21121, Note_on_c, 0, 66, 72
2, 21121, Control_c, 0, 84, 57
2, 21121, Note_on_c, 0, 69, 72
2, 21121, Control_c, 4, 84, 45
2, 21121, Note_on_c, 4, 50, 86
2, 21121, Control_c, 6, 84, 60
2, 21121, Note_on_c, 6, 57, 59
2, 21121, Note_on_c, 6, 57, 0
2, 21121, Control_c, 6, 84, 52
2, 21121, Note_on_c, 6, 62, 55
2, 21121, Control_c, 6, 84, 57
2, 21121, Note_on_c, 6, 66, 51
2, 21131, Note_on_c, 0, 62, 0
2, 21131, Note_on_c, 0, 69, 0
2, 21146, Note_on_c, 0, 57, 69
2, 21146, Note_on_c, 0, 62, 79
2, 21146, Note_on_c, 0, 69, 79
2, 21150, Note_on_c, 1, 38, 0
2, 21150, Note_on_c, 9, 54, 75
2, 21150, Note_on_c, 9, 54, 0
2, 21165, Note_on_c, 0, 66, 0
2, 21176, Note_on_c, 0, 69, 0
2, 21176, Note_on_c, 0, 62, 0
2, 21176, Note_on_c, 1, 38, 110
2, 21176, Note_on_c, 0, 62, 82
2, 21176, Note_on_c, 0, 66, 76
2, 21176, Note_on_c, 0, 69, 79
2, 21176, Note_on_c, 4, 62, 86
2, 21181, Note_on_c, 9, 36, 86
2, 21181, Note_on_c, 9, 36, 0
2, 21181, Note_on_c, 9, 53, 86
2, 21181, Note_on_c, 9, 53, 0
2, 21181, Note_on_c, 9, 54, 72
2, 21181, Note_on_c, 9, 54, 0
2, 21181, Note_on_c, 9, 42, 66
2, 21181, Note_on_c, 9, 42, 0
2, 21181, Note_on_c, 9, 82, 53
2, 21181, Note_on_c, 9, 82, 0
2, 21190, Note_on_c, 4, 50, 0
2, 21201, Note_on_c, 0, 57, 0
2, 21201, Note_on_c, 0, 69, 0
2, 21201, Note_on_c, 0, 62, 0
2, 21206, Note_on_c, 0, 57, 72
2, 21206, Note_on_c, 0, 62, 79
2, 21206, Note_on_c, 0, 69, 79
2, 21210, Note_on_c, 9, 54, 72
2, 21211, Note_on_c, 9, 54, 0
2, 21211, Note_on_c, 1, 38, 0
2, 21211, Note_on_c, 9, 82, 75
2, 21211, Note_on_c, 9, 82, 0
2, 21230, Note_on_c, 0, 66, 0
2, 21235, Note_on_c, 0, 57, 0
2, 21236, Note_on_c, 0, 69, 0
2, 21236, Note_on_c, 1, 38, 106
2, 21236, Note_on_c, 0, 57, 82
2, 21236, Note_on_c, 0, 66, 96
2, 21236, Note_on_c, 0, 69, 96
2, 21236, Note_on_c, 4, 57, 76
2, 21240, Note_on_c, 9, 38, 114
2, 21240, Note_on_c, 9, 42, 123
2, 21241, Note_on_c, 9, 42, 0
2, 21241, Note_on_c, 9, 38, 0
2, 21241, Note_on_c, 9, 123, 99
2, 21241, Note_on_c, 9, 123, 0
2, 21241, Note_on_c, 9, 54, 85
2, 21241, Note_on_c, 9, 54, 0
2, 21266, Note_on_c, 4, 64, 90
2, 21270, Note_on_c, 9, 54, 69
2, 21271, Note_on_c, 9, 54, 0
2, 21285, Note_on_c, 4, 57, 0
2, 21290, Note_on_c, 0, 69, 0
2, 21295, Note_on_c, 0, 66, 0
2, 21295, Note_on_c, 0, 57, 0
2, 21295, Note_on_c, 0, 62, 0
2, 21300, Note_on_c, 9, 53, 82
2, 21300, Note_on_c, 9, 42, 51
2, 21301, Note_on_c, 9, 42, 0
2, 21301, Note_on_c, 1, 38, 0
2, 21301, Note_on_c, 9, 53, 0
2, 21301, Note_on_c, 9, 54, 58
2, 21301, Note_on_c, 9, 54, 0
2, 21301, Note_on_c, 9, 82, 58
2, 21301, Note_on_c, 9, 82, 0
2, 21315, Note_on_c, 4, 64, 0
2, 21321, Note_on_c, 4, 62, 0
2, 21325, Note_on_c, 1, 38, 110
2, 21325, Note_on_c, 0, 57, 76
2, 21326, Note_on_c, 0, 62, 79
2, 21326, Note_on_c, 0, 66, 74
2, 21326, Note_on_c, 0, 69, 89
2, 21326, Note_on_c, 4, 50, 90
2, 21331, Note_on_c, 9, 36, 114
2, 21331, Note_on_c, 9, 36, 0
2, 21331, Note_on_c, 9, 54, 53
2, 21331, Note_on_c, 9, 54, 0
2, 21331, Note_on_c, 9, 82, 56
2, 21331, Note_on_c, 9, 82, 0
2, 21345, Note_on_c, 0, 62, 0
2, 21350, Note_on_c, 0, 57, 0
2, 21350, Note_on_c, 0, 66, 0
2, 21355, Note_on_c, 1, 38, 0
2, 21355, Note_on_c, 0, 69, 0
2, 21355, Note_on_c, 4, 62, 76
2, 21360, Note_on_c, 9, 42, 123
2, 21361, Note_on_c, 9, 42, 0
2, 21361, Note_on_c, 9, 54, 75
2, 21361, Note_on_c, 9, 54, 0
2, 21385, Note_on_c, 1, 38, 79
2, 21386, Note_on_c, 0, 57, 62
2, 21386, Note_on_c, 0, 62, 59
2, 21386, Note_on_c, 0, 66, 64
2, 21386, Note_on_c, 0, 69, 82
2, 21386, Note_on_c, 4, 57, 51
2, 21390, Note_on_c, 9, 36, 45
2, 21390, Note_on_c, 9, 54, 58
2, 21391, Note_on_c, 9, 54, 0
2, 21391, Note_on_c, 9, 36, 0
2, 21400, Note_on_c, 1, 38, 0
2, 21415, Note_on_c, 0, 66, 0
2, 21415, Note_on_c, 0, 62, 0
2, 21415, Note_on_c, 0, 57, 0
2, 21415, Note_on_c, 1, 38, 110
2, 21415, Note_on_c, 0, 57, 74
2, 21415, Note_on_c, 0, 62, 76
2, 21415, Note_on_c, 0, 66, 76
2, 21420, Note_on_c, 9, 36, 123
2, 21420, Note_on_c, 9, 36, 0
2, 21420, Note_on_c, 9, 53, 86
2, 21420, Note_on_c, 9, 53, 0
2, 21420, Note_on_c, 9, 42, 49
2, 21420, Note_on_c, 9, 42, 0
2, 21420, Note_on_c, 9, 54, 51
2, 21420, Note_on_c, 9, 82, 63
2, 21421, Note_on_c, 9, 82, 0
2, 21421, Note_on_c, 9, 54, 0
2, 21440, Note_on_c, 0, 62, 0
2, 21440, Note_on_c, 0, 57, 0
2, 21445, Note_on_c, 0, 69, 0
2, 21446, Note_on_c, 0, 57, 79
2, 21446, Note_on_c, 0, 62, 82
2, 21446, Note_on_c, 0, 69, 79
2, 21446, Note_on_c, 4, 64, 82
2, 21450, Note_on_c, 9, 54, 56
2, 21450, Note_on_c, 9, 82, 51
2, 21451, Note_on_c, 9, 82, 0
2, 21451, Note_on_c, 9, 54, 0
2, 21451, Note_on_c, 1, 38, 0
2, 21455, Note_on_c, 4, 57, 0
2, 21470, Note_on_c, 0, 66, 0
2, 21475, Note_on_c, 0, 57, 0
2, 21476, Note_on_c, 0, 62, 0
2, 21476, Note_on_c, 0, 69, 0
2, 21476, Note_on_c, 1, 38, 110
2, 21476, Note_on_c, 0, 57, 91
2, 21476, Note_on_c, 0, 62, 91
2, 21476, Note_on_c, 0, 66, 86
2, 21476, Note_on_c, 0, 69, 82
2, 21480, Note_on_c, 9, 38, 114
2, 21480, Note_on_c, 9, 42, 123
2, 21481, Note_on_c, 9, 42, 0
2, 21481, Note_on_c, 9, 38, 0
2, 21481, Note_on_c, 9, 123, 91
2, 21481, Note_on_c, 9, 123, 0
2, 21481, Note_on_c, 9, 54, 85
2, 21481, Note_on_c, 9, 54, 0
2, 21505, Note_on_c, 4, 57, 64
2, 21510, Note_on_c, 4, 62, 0
2, 21510, Note_on_c, 9, 54, 28
2, 21510, Note_on_c, 9, 54, 0
2, 21520, Note_on_c, 1, 38, 0
2, 21530, Note_on_c, 0, 62, 0
2, 21531, Note_on_c, 0, 66, 0
2, 21531, Note_on_c, 0, 69, 0
2, 21536, Note_on_c, 0, 57, 0
2, 21536, Note_on_c, 1, 38, 79
2, 21536, Note_on_c, 4, 62, 79
2, 21541, Note_on_c, 9, 53, 82
2, 21541, Note_on_c, 9, 53, 0
2, 21541, Note_on_c, 9, 42, 41
2, 21541, Note_on_c, 9, 42, 0
2, 21541, Note_on_c, 9, 54, 51
2, 21541, Note_on_c, 9, 54, 0
2, 21541, Note_on_c, 9, 82, 58
2, 21541, Note_on_c, 9, 82, 0
2, 21545, Note_on_c, 4, 57, 0
2, 21550, Note_on_c, 1, 38, 0
2, 21560, Note_on_c, 4, 50, 0
2, 21565, Note_on_c, 1, 38, 86
2, 21565, Note_on_c, 4, 57, 67
2, 21571, Note_on_c, 9, 25, 72
2, 21571, Note_on_c, 9, 25, 0
2, 21571, Note_on_c, 9, 54, 49
2, 21571, Note_on_c, 9, 54, 0
2, 21571, Note_on_c, 9, 82, 58
2, 21571, Note_on_c, 9, 82, 0
2, 21585, Note_on_c, 4, 62, 0
2, 21585, Note_on_c, 1, 38, 0
2, 21591, Note_on_c, 4, 64, 0
2, 21591, Note_on_c, 4, 57, 0
2, 21596, Note_on_c, 1, 38, 110
2, 21596, Note_on_c, 0, 57, 72
2, 21596, Note_on_c, 0, 62, 69
2, 21596, Note_on_c, 0, 66, 72
2, 21596, Note_on_c, 0, 69, 72
2, 21596, Note_on_c, 4, 50, 90
2, 21600, Note_on_c, 9, 36, 110
2, 21601, Note_on_c, 9, 36, 0
2, 21601, Note_on_c, 9, 42, 123
2, 21601, Note_on_c, 9, 42, 0
2, 21601, Note_on_c, 9, 54, 91
2, 21601, Note_on_c, 9, 54, 0
2, 21620, Note_on_c, 0, 57, 0
2, 21621, Note_on_c, 0, 62, 0
2, 21621, Note_on_c, 0, 69, 0
2, 21625, Note_on_c, 1, 38, 0
2, 21625, Note_on_c, 0, 57, 69
2, 21625, Note_on_c, 0, 62, 79
2, 21625, Note_on_c, 0, 69, 79
2, 21630, Note_on_c, 9, 54, 49
2, 21631, Note_on_c, 9, 54, 0
2, 21650, Note_on_c, 0, 66, 0
2, 21655, Note_on_c, 0, 62, 0
2, 21656, Note_on_c, 0, 69, 0
2, 21656, Note_on_c, 1, 38, 106
2, 21656, Note_on_c, 0, 62, 82
2, 21656, Note_on_c, 0, 66, 76
2, 21656, Note_on_c, 0, 69, 79
2, 21656, Note_on_c, 4, 66, 90
2, 21660, Note_on_c, 9, 36, 114
2, 21661, Note_on_c, 9, 36, 0
2, 21661, Note_on_c, 9, 53, 79
2, 21661, Note_on_c, 9, 53, 0
2, 21661, Note_on_c, 9, 42, 61
2, 21661, Note_on_c, 9, 42, 0
2, 21661, Note_on_c, 9, 54, 53
2, 21661, Note_on_c, 9, 54, 0
2, 21661, Note_on_c, 9, 82, 56
2, 21661, Note_on_c, 9, 82, 0
2, 21680, Note_on_c, 0, 69, 0
2, 21680, Note_on_c, 0, 62, 0
2, 21680, Note_on_c, 0, 57, 0
2, 21685, Note_on_c, 1, 38, 0
2, 21685, Note_on_c, 0, 57, 72
2, 21685, Note_on_c, 0, 62, 79
2, 21686, Note_on_c, 0, 69, 79
2, 21690, Note_on_c, 9, 54, 53
2, 21690, Note_on_c, 9, 54, 0
2, 21690, Note_on_c, 9, 82, 58
2, 21690, Note_on_c, 9, 82, 0
2, 21710, Note_on_c, 0, 66, 0
2, 21715, Note_on_c, 0, 57, 0
2, 21716, Note_on_c, 0, 69, 0
2, 21716, Note_on_c, 1, 38, 110
2, 21716, Note_on_c, 0, 57, 82
2, 21716, Note_on_c, 0, 66, 96
2, 21716, Note_on_c, 0, 69, 96
2, 21716, Note_on_c, 4, 62, 76
2, 21721, Note_on_c, 9, 38, 114
2, 21721, Note_on_c, 9, 38, 0
2, 21721, Note_on_c, 9, 42, 127
2, 21721, Note_on_c, 9, 42, 0
2, 21721, Note_on_c, 9, 123, 99
2, 21721, Note_on_c, 9, 123, 0
2, 21721, Note_on_c, 9, 54, 106
2, 21721, Note_on_c, 9, 54, 0
2, 21745, Note_on_c, 4, 69, 90
2, 21750, Note_on_c, 9, 54, 58
2, 21750, Note_on_c, 9, 54, 0
2, 21775, Note_on_c, 0, 62, 0
2, 21776, Note_on_c, 0, 69, 0
2, 21776, Note_on_c, 0, 66, 0
2, 21776, Note_on_c, 0, 57, 0
2, 21780, Note_on_c, 9, 53, 76
2, 21780, Note_on_c, 9, 42, 56
2, 21781, Note_on_c, 9, 42, 0
2, 21781, Note_on_c, 9, 53, 0
2, 21781, Note_on_c, 9, 54, 51
2, 21781, Note_on_c, 9, 54, 0
2, 21781, Note_on_c, 9, 82, 53
2, 21781, Note_on_c, 9, 82, 0
2, 21785, Note_on_c, 4, 50, 0
2, 21785, Note_on_c, 1, 38, 0
2, 21796, Note_on_c, 4, 69, 0
2, 21805, Note_on_c, 4, 66, 0
2, 21805, Note_on_c, 1, 38, 106
2, 21805, Note_on_c, 0, 57, 76
2, 21805, Note_on_c, 0, 62, 79
2, 21805, Note_on_c, 0, 66, 74
2, 21805, Note_on_c, 0, 69, 89
2, 21805, Note_on_c, 4, 50, 86
2, 21810, Note_on_c, 4, 62, 0
2, 21810, Note_on_c, 9, 36, 114
2, 21810, Note_on_c, 9, 36, 0
2, 21810, Note_on_c, 9, 54, 49
2, 21810, Note_on_c, 9, 54, 0
2, 21810, Note_on_c, 9, 82, 56
2, 21810, Note_on_c, 9, 82, 0
2, 21825, Note_on_c, 0, 62, 0
2, 21826, Note_on_c, 0, 66, 0
2, 21831, Note_on_c, 0, 57, 0
2, 21835, Note_on_c, 0, 69, 0
2, 21835, Note_on_c, 4, 66, 82
2, 21840, Note_on_c, 9, 42, 127
2, 21840, Note_on_c, 9, 54, 99
2, 21841, Note_on_c, 9, 54, 0
2, 21841, Note_on_c, 1, 38, 0
2, 21841, Note_on_c, 9, 42, 0
2, 21865, Note_on_c, 1, 38, 102
2, 21865, Note_on_c, 0, 57, 62
2, 21866, Note_on_c, 0, 62, 59
2, 21866, Note_on_c, 0, 66, 64
2, 21866, Note_on_c, 0, 69, 82
2, 21870, Note_on_c, 9, 36, 35
2, 21870, Note_on_c, 9, 36, 0
2, 21870, Note_on_c, 9, 54, 45
2, 21870, Note_on_c, 9, 54, 0
2, 21885, Note_on_c, 1, 38, 0
2, 21890, Note_on_c, 0, 62, 0
2, 21890, Note_on_c, 0, 57, 0
2, 21891, Note_on_c, 0, 66, 0
2, 21895, Note_on_c, 1, 38, 106
2, 21895, Note_on_c, 0, 57, 74
2, 21896, Note_on_c, 0, 62, 76
2, 21896, Note_on_c, 0, 66, 76
2, 21896, Note_on_c, 4, 62, 74
2, 21900, Note_on_c, 9, 36, 127
2, 21901, Note_on_c, 9, 36, 0
2, 21901, Note_on_c, 9, 53, 82
2, 21901, Note_on_c, 9, 53, 0
2, 21901, Note_on_c, 9, 42, 51
2, 21901, Note_on_c, 9, 42, 0
2, 21901, Note_on_c, 9, 54, 45
2, 21901, Note_on_c, 9, 54, 0
2, 21901, Note_on_c, 9, 82, 56
2, 21901, Note_on_c, 9, 82, 0
2, 21926, Note_on_c, 0, 62, 0
2, 21926, Note_on_c, 0, 57, 0
2, 21926, Note_on_c, 0, 69, 0
2, 21926, Note_on_c, 0, 57, 79
2, 21926, Note_on_c, 0, 62, 82
2, 21926, Note_on_c, 0, 69, 79
2, 21926, Note_on_c, 4, 69, 82
2, 21931, Note_on_c, 1, 38, 0
2, 21931, Note_on_c, 9, 54, 53
2, 21931, Note_on_c, 9, 54, 0
2, 21931, Note_on_c, 9, 82, 58
2, 21931, Note_on_c, 9, 82, 0
2, 21950, Note_on_c, 0, 69, 0
2, 21950, Note_on_c, 0, 62, 0
2, 21955, Note_on_c, 0, 57, 0
2, 21956, Note_on_c, 0, 66, 0
2, 21956, Note_on_c, 1, 38, 114
2, 21956, Note_on_c, 0, 57, 91
2, 21956, Note_on_c, 0, 62, 91
2, 21956, Note_on_c, 0, 66, 86
2, 21956, Note_on_c, 0, 69, 82
2, 21960, Note_on_c, 9, 38, 114
2, 21961, Note_on_c, 9, 38, 0
2, 21961, Note_on_c, 9, 42, 123
2, 21961, Note_on_c, 9, 42, 0
2, 21961, Note_on_c, 9, 123, 85
2, 21961, Note_on_c, 9, 123, 0
2, 21961, Note_on_c, 9, 54, 99
2, 21961, Note_on_c, 9, 54, 0
2, 21965, Note_on_c, 4, 62, 0
2, 21986, Note_on_c, 4, 62, 67
2, 21990, Note_on_c, 4, 66, 0
2, 21990, Note_on_c, 9, 54, 56
2, 21991, Note_on_c, 9, 54, 0
2, 21995, Note_on_c, 1, 38, 0
2, 22001, Note_on_c, 4, 69, 0
2, 22010, Note_on_c, 0, 62, 0
2, 22010, Note_on_c, 0, 69, 0
2, 22010, Note_on_c, 0, 66, 0
2, 22015, Note_on_c, 0, 57, 0
2, 22015, Note_on_c, 1, 38, 79
2, 22015, Note_on_c, 4, 66, 86
2, 22020, Note_on_c, 4, 62, 0
2, 22020, Note_on_c, 9, 53, 86
2, 22020, Note_on_c, 9, 42, 75
2, 22020, Note_on_c, 9, 54, 38
2, 22021, Note_on_c, 9, 54, 0
2, 22021, Note_on_c, 9, 42, 0
2, 22021, Note_on_c, 9, 53, 0
2, 22021, Note_on_c, 9, 82, 49
2, 22021, Note_on_c, 9, 82, 0
2, 22030, Note_on_c, 1, 38, 0
2, 22045, Note_on_c, 1, 38, 106
2, 22045, Note_on_c, 4, 62, 76
2, 22050, Note_on_c, 9, 54, 45
2, 22051, Note_on_c, 9, 54, 0
2, 22051, Note_on_c, 9, 82, 56
2, 22051, Note_on_c, 9, 82, 0
2, 22056, Note_on_c, 4, 50, 0
2, 22070, Note_on_c, 4, 66, 0
2, 22075, Note_on_c, 6, 66, 0
2, 22075, Note_on_c, 6, 62, 0
2, 22075, Note_on_c, 4, 62, 0
2, 22075, Note_on_c, 1, 38, 0
2, 22075, Note_on_c, 1, 31, 106
2, 22075, Note_on_c, 0, 62, 72
2, 22076, Note_on_c, 0, 67, 69
2, 22076, Note_on_c, 0, 71, 72
2, 22076, Note_on_c, 0, 74, 72
2, 22076, Note_on_c, 4, 55, 86
2, 22076, Note_on_c, 6, 62, 59
2, 22076, Note_on_c, 6, 67, 55
2, 22076, Note_on_c, 6, 71, 51
2, 22080, Note_on_c, 9, 36, 127
2, 22080, Note_on_c, 9, 42, 127
2, 22081, Note_on_c, 9, 42, 0
2, 22081, Note_on_c, 9, 36, 0
2, 22081, Note_on_c, 9, 54, 85
2, 22081, Note_on_c, 9, 54, 0
2, 22090, Note_on_c, 0, 67, 0
2, 22091, Note_on_c, 0, 74, 0
2, 22095, Note_on_c, 0, 62, 0
2, 22105, Note_on_c, 0, 62, 69
2, 22106, Note_on_c, 0, 67, 79
2, 22106, Note_on_c, 0, 74, 79
2, 22110, Note_on_c, 1, 31, 0
2, 22110, Note_on_c, 9, 54, 75
2, 22110, Note_on_c, 9, 54, 0
2, 22125, Note_on_c, 0, 71, 0
2, 22135, Note_on_c, 0, 74, 0
2, 22135, Note_on_c, 0, 67, 0
2, 22135, Note_on_c, 1, 31, 110
2, 22135, Note_on_c, 0, 67, 82
2, 22135, Note_on_c, 0, 71, 76
2, 22135, Note_on_c, 0, 74, 79
2, 22135, Note_on_c, 4, 67, 86
2, 22140, Note_on_c, 9, 36, 86
2, 22140, Note_on_c, 9, 36, 0
2, 22140, Note_on_c, 9, 53, 86
2, 22140, Note_on_c, 9, 53, 0
2, 22140, Note_on_c, 9, 54, 72
2, 22140, Note_on_c, 9, 54, 0
2, 22140, Note_on_c, 9, 42, 66
2, 22140, Note_on_c, 9, 82, 53
2, 22141, Note_on_c, 9, 82, 0
2, 22141, Note_on_c, 9, 42, 0
2, 22150, Note_on_c, 4, 55, 0
2, 22160, Note_on_c, 0, 62, 0
2, 22161, Note_on_c, 0, 74, 0
2, 22161, Note_on_c, 0, 67, 0
2, 22166, Note_on_c, 0, 62, 72
2, 22166, Note_on_c, 0, 67, 79
2, 22166, Note_on_c, 0, 74, 79
2, 22170, Note_on_c, 1, 31, 0
2, 22170, Note_on_c, 9, 54, 72
2, 22170, Note_on_c, 9, 54, 0
2, 22170, Note_on_c, 9, 82, 75
2, 22171, Note_on_c, 9, 82, 0
2, 22191, Note_on_c, 0, 71, 0
2, 22196, Note_on_c, 0, 74, 0
2, 22196, Note_on_c, 0, 62, 0
2, 22196, Note_on_c, 1, 31, 106
2, 22196, Note_on_c, 0, 62, 82
2, 22196, Note_on_c, 0, 71, 96
2, 22196, Note_on_c, 0, 74, 96
2, 22196, Note_on_c, 4, 62, 76
2, 22200, Note_on_c, 9, 38, 114
2, 22200, Note_on_c, 9, 38, 0
2, 22200, Note_on_c, 9, 42, 123
2, 22200, Note_on_c, 9, 42, 0
2, 22200, Note_on_c, 9, 123, 99
2, 22200, Note_on_c, 9, 123, 0
2, 22200, Note_on_c, 9, 54, 85
2, 22200, Note_on_c, 9, 54, 0
2, 22225, Note_on_c, 4, 69, 90
2, 22230, Note_on_c, 9, 54, 69
2, 22231, Note_on_c, 9, 54, 0
2, 22245, Note_on_c, 4, 62, 0
2, 22250, Note_on_c, 0, 74, 0
2, 22256, Note_on_c, 0, 62, 0
2, 22256, Note_on_c, 0, 71, 0
2, 22256, Note_on_c, 0, 67, 0
2, 22260, Note_on_c, 9, 53, 82
2, 22261, Note_on_c, 9, 53, 0
2, 22261, Note_on_c, 1, 31, 0
2, 22261, Note_on_c, 9, 42, 51
2, 22261, Note_on_c, 9, 42, 0
2, 22261, Note_on_c, 9, 54, 58
2, 22261, Note_on_c, 9, 54, 0
2, 22261, Note_on_c, 9, 82, 58
2, 22261, Note_on_c, 9, 82, 0
2, 22275, Note_on_c, 4, 69, 0
2, 22280, Note_on_c, 4, 67, 0
2, 22285, Note_on_c, 1, 31, 110
2, 22285, Note_on_c, 0, 62, 76
2, 22285, Note_on_c, 0, 67, 79
2, 22285, Note_on_c, 0, 71, 74
2, 22285, Note_on_c, 0, 74, 89
2, 22285, Note_on_c, 4, 55, 90
2, 22290, Note_on_c, 9, 36, 114
2, 22291, Note_on_c, 9, 36, 0
2, 22291, Note_on_c, 9, 54, 53
2, 22291, Note_on_c, 9, 54, 0
2, 22291, Note_on_c, 9, 82, 56
2, 22291, Note_on_c, 9, 82, 0
2, 22305, Note_on_c, 0, 67, 0
2, 22311, Note_on_c, 0, 71, 0
2, 22311, Note_on_c, 0, 62, 0
2, 22315, Note_on_c, 1, 31, 0
2, 22316, Note_on_c, 0, 74, 0
2, 22316, Note_on_c, 4, 67, 76
2, 22321, Note_on_c, 9, 42, 123
2, 22321, Note_on_c, 9, 42, 0
2, 22321, Note_on_c, 9, 54, 75
2, 22321, Note_on_c, 9, 54, 0
2, 22345, Note_on_c, 1, 31, 79
2, 22345, Note_on_c, 0, 62, 62
2, 22346, Note_on_c, 0, 67, 59
2, 22346, Note_on_c, 0, 71, 64
2, 22346, Note_on_c, 0, 74, 82
2, 22346, Note_on_c, 4, 62, 51
2, 22350, Note_on_c, 9, 36, 45
2, 22350, Note_on_c, 9, 36, 0
2, 22350, Note_on_c, 9, 54, 58
2, 22351, Note_on_c, 9, 54, 0
2, 22360, Note_on_c, 1, 31, 0
2, 22376, Note_on_c, 0, 71, 0
2, 22376, Note_on_c, 0, 67, 0
2, 22376, Note_on_c, 0, 62, 0
2, 22376, Note_on_c, 1, 31, 110
2, 22376, Note_on_c, 0, 62, 74
2, 22376, Note_on_c, 0, 67, 76
2, 22376, Note_on_c, 0, 71, 76
2, 22380, Note_on_c, 9, 36, 123
2, 22380, Note_on_c, 9, 53, 86
2, 22381, Note_on_c, 9, 53, 0
2, 22381, Note_on_c, 9, 36, 0
2, 22381, Note_on_c, 9, 42, 49
2, 22381, Note_on_c, 9, 42, 0
2, 22381, Note_on_c, 9, 54, 51
2, 22381, Note_on_c, 9, 54, 0
2, 22381, Note_on_c, 9, 82, 63
2, 22381, Note_on_c, 9, 82, 0
2, 22400, Note_on_c, 0, 62, 0
2, 22400, Note_on_c, 0, 67, 0
2, 22405, Note_on_c, 0, 74, 0
2, 22405, Note_on_c, 0, 62, 79
2, 22405, Note_on_c, 0, 67, 82
2, 22405, Note_on_c, 0, 74, 79
2, 22405, Note_on_c, 4, 69, 82
2, 22410, Note_on_c, 1, 31, 0
2, 22410, Note_on_c, 9, 54, 56
2, 22410, Note_on_c, 9, 54, 0
2, 22410, Note_on_c, 9, 82, 51
2, 22411, Note_on_c, 9, 82, 0
2, 22415, Note_on_c, 4, 62, 0
2, 22430, Note_on_c, 0, 71, 0
2, 22435, Note_on_c, 0, 62, 0
2, 22435, Note_on_c, 0, 67, 0
2, 22436, Note_on_c, 0, 74, 0
2, 22436, Note_on_c, 1, 31, 110
2, 22436, Note_on_c, 0, 62, 91
2, 22436, Note_on_c, 0, 67, 91
2, 22436, Note_on_c, 0, 71, 86
2, 22436, Note_on_c, 0, 74, 82
2, 22440, Note_on_c, 9, 38, 114
2, 22441, Note_on_c, 9, 38, 0
2, 22441, Note_on_c, 9, 42, 123
2, 22441, Note_on_c, 9, 42, 0
2, 22441, Note_on_c, 9, 123, 91
2, 22441, Note_on_c, 9, 123, 0
2, 22441, Note_on_c, 9, 54, 85
2, 22441, Note_on_c, 9, 54, 0
2, 22465, Note_on_c, 4, 62, 64
2, 22470, Note_on_c, 4, 67, 0
2, 22470, Note_on_c, 9, 54, 28
2, 22470, Note_on_c, 9, 54, 0
2, 22480, Note_on_c, 1, 31, 0
2, 22490, Note_on_c, 0, 67, 0
2, 22490, Note_on_c, 0, 74, 0
2, 22490, Note_on_c, 0, 71, 0
2, 22496, Note_on_c, 0, 62, 0
2, 22496, Note_on_c, 1, 31, 79
2, 22496, Note_on_c, 4, 67, 79
2, 22501, Note_on_c, 9, 53, 82
2, 22501, Note_on_c, 9, 53, 0
2, 22501, Note_on_c, 9, 42, 41
2, 22501, Note_on_c, 9, 42, 0
2, 22501, Note_on_c, 9, 54, 51
2, 22501, Note_on_c, 9, 54, 0
2, 22501, Note_on_c, 9, 82, 58
2, 22501, Note_on_c, 9, 82, 0
2, 22506, Note_on_c, 4, 62, 0
2, 22510, Note_on_c, 1, 31, 0
2, 22521, Note_on_c, 4, 55, 0
2, 22526, Note_on_c, 1, 31, 86
2, 22526, Note_on_c, 4, 62, 67
2, 22530, Note_on_c, 9, 25, 72
2, 22530, Note_on_c, 9, 25, 0
2, 22530, Note_on_c, 9, 54, 49
2, 22530, Note_on_c, 9, 54, 0
2, 22530, Note_on_c, 9, 82, 58
2, 22530, Note_on_c, 9, 82, 0
2, 22545, Note_on_c, 1, 31, 0
2, 22545, Note_on_c, 4, 67, 0
2, 22551, Note_on_c, 4, 69, 0
2, 22551, Note_on_c, 4, 62, 0
2, 22555, Note_on_c, 1, 31, 110
2, 22555, Note_on_c, 0, 62, 72
2, 22555, Note_on_c, 0, 67, 69
2, 22556, Note_on_c, 0, 71, 72
2, 22556, Note_on_c, 0, 74, 72
2, 22556, Note_on_c, 4, 55, 90
2, 22560, Note_on_c, 9, 36, 110
2, 22561, Note_on_c, 9, 36, 0
2, 22561, Note_on_c, 9, 42, 123
2, 22561, Note_on_c, 9, 42, 0
2, 22561, Note_on_c, 9, 54, 91
2, 22561, Note_on_c, 9, 54, 0
2, 22581, Note_on_c, 0, 74, 0
2, 22581, Note_on_c, 0, 67, 0
2, 22581, Note_on_c, 0, 62, 0
2, 22586, Note_on_c, 1, 31, 0
2, 22586, Note_on_c, 0, 62, 69
2, 22586, Note_on_c, 0, 67, 79
2, 22586, Note_on_c, 0, 74, 79
2, 22590, Note_on_c, 9, 54, 49
2, 22591, Note_on_c, 9, 54, 0
2, 22610, Note_on_c, 0, 71, 0
2, 22615, Note_on_c, 0, 74, 0
2, 22615, Note_on_c, 0, 67, 0
2, 22615, Note_on_c, 1, 31, 106
2, 22615, Note_on_c, 0, 67, 82
2, 22615, Note_on_c, 0, 71, 76
2, 22615, Note_on_c, 0, 74, 79
2, 22615, Note_on_c, 4, 71, 90
2, 22620, Note_on_c, 9, 36, 114
2, 22620, Note_on_c, 9, 36, 0
2, 22620, Note_on_c, 9, 53, 79
2, 22620, Note_on_c, 9, 53, 0
2, 22620, Note_on_c, 9, 42, 61
2, 22620, Note_on_c, 9, 54, 53
2, 22620, Note_on_c, 9, 82, 56
2, 22621, Note_on_c, 9, 82, 0
2, 22621, Note_on_c, 9, 54, 0
2, 22621, Note_on_c, 9, 42, 0
2, 22640, Note_on_c, 0, 67, 0
2, 22640, Note_on_c, 0, 62, 0
2, 22641, Note_on_c, 0, 74, 0
2, 22645, Note_on_c, 1, 31, 0
2, 22645, Note_on_c, 0, 62, 72
2, 22646, Note_on_c, 0, 67, 79
2, 22646, Note_on_c, 0, 74, 79
2, 22651, Note_on_c, 9, 54, 53
2, 22651, Note_on_c, 9, 54, 0
2, 22651, Note_on_c, 9, 82, 58
2, 22651, Note_on_c, 9, 82, 0
2, 22670, Note_on_c, 0, 71, 0
2, 22675, Note_on_c, 0, 74, 0
2, 22675, Note_on_c, 0, 62, 0
2, 22675, Note_on_c, 1, 31, 110
2, 22675, Note_on_c, 0, 62, 82
2, 22676, Note_on_c, 0, 71, 96
2, 22676, Note_on_c, 0, 74, 96
2, 22676, Note_on_c, 4, 67, 76
2, 22680, Note_on_c, 9, 38, 114
2, 22681, Note_on_c, 9, 38, 0
2, 22681, Note_on_c, 9, 42, 127
2, 22681, Note_on_c, 9, 42, 0
2, 22681, Note_on_c, 9, 123, 99
2, 22681, Note_on_c, 9, 123, 0
2, 22681, Note_on_c, 9, 54, 106
2, 22681, Note_on_c, 9, 54, 0
2, 22705, Note_on_c, 4, 62, 90
2, 22711, Note_on_c, 9, 54, 58
2, 22711, Note_on_c, 9, 54, 0
2, 22735, Note_on_c, 0, 67, 0
2, 22736, Note_on_c, 0, 74, 0
2, 22736, Note_on_c, 0, 62, 0
2, 22736, Note_on_c, 0, 71, 0
2, 22740, Note_on_c, 9, 53, 76
2, 22741, Note_on_c, 9, 53, 0
2, 22741, Note_on_c, 9, 42, 56
2, 22741, Note_on_c, 9, 42, 0
2, 22741, Note_on_c, 9, 54, 51
2, 22741, Note_on_c, 9, 54, 0
2, 22741, Note_on_c, 9, 82, 53
2, 22741, Note_on_c, 9, 82, 0
2, 22745, Note_on_c, 4, 55, 0
2, 22745, Note_on_c, 1, 31, 0
2, 22756, Note_on_c, 4, 62, 0
2, 22765, Note_on_c, 4, 71, 0
2, 22765, Note_on_c, 1, 31, 106
2, 22765, Note_on_c, 0, 62, 76
2, 22766, Note_on_c, 0, 67, 79
2, 22766, Note_on_c, 0, 71, 74
2, 22766, Note_on_c, 0, 74, 89
2, 22766, Note_on_c, 4, 55, 86
2, 22770, Note_on_c, 9, 36, 114
2, 22770, Note_on_c, 9, 54, 49
2, 22771, Note_on_c, 9, 54, 0
2, 22771, Note_on_c, 4, 67, 0
2, 22771, Note_on_c, 9, 36, 0
2, 22771, Note_on_c, 9, 82, 56
2, 22771, Note_on_c, 9, 82, 0
2, 22786, Note_on_c, 0, 71, 0
2, 22786, Note_on_c, 0, 67, 0
2, 22790, Note_on_c, 0, 62, 0
2, 22795, Note_on_c, 0, 74, 0
2, 22795, Note_on_c, 4, 71, 82
2, 22800, Note_on_c, 1, 31, 0
2, 22800, Note_on_c, 9, 42, 127
2, 22800, Note_on_c, 9, 42, 0
2, 22800, Note_on_c, 9, 54, 99
2, 22800, Note_on_c, 9, 54, 0
2, 22825, Note_on_c, 1, 31, 102
2, 22825, Note_on_c, 0, 62, 62
2, 22825, Note_on_c, 0, 67, 59
2, 22826, Note_on_c, 0, 71, 64
2, 22826, Note_on_c, 0, 74, 82
2, 22830, Note_on_c, 9, 36, 35
2, 22831, Note_on_c, 9, 36, 0
2, 22831, Note_on_c, 9, 54, 45
2, 22831, Note_on_c, 9, 54, 0
2, 22845, Note_on_c, 1, 31, 0
2, 22850, Note_on_c, 0, 62, 0
2, 22851, Note_on_c, 0, 71, 0
2, 22851, Note_on_c, 0, 67, 0
2, 22856, Note_on_c, 1, 31, 106
2, 22856, Note_on_c, 0, 62, 74
2, 22856, Note_on_c, 0, 67, 76
2, 22856, Note_on_c, 0, 71, 76
2, 22856, Note_on_c, 4, 67, 74
2, 22860, Note_on_c, 9, 36, 127
2, 22860, Note_on_c, 9, 36, 0
2, 22860, Note_on_c, 9, 53, 82
2, 22860, Note_on_c, 9, 53, 0
2, 22860, Note_on_c, 9, 42, 51
2, 22860, Note_on_c, 9, 54, 45
2, 22860, Note_on_c, 9, 82, 56
2, 22861, Note_on_c, 9, 82, 0
2, 22861, Note_on_c, 9, 54, 0
2, 22861, Note_on_c, 9, 42, 0
2, 22885, Note_on_c, 0, 74, 0
2, 22886, Note_on_c, 0, 67, 0
2, 22886, Note_on_c, 0, 62, 0
2, 22886, Note_on_c, 0, 62, 79
2, 22886, Note_on_c, 0, 67, 82
2, 22886, Note_on_c, 0, 74, 79
2, 22886, Note_on_c, 4, 62, 82
2, 22890, Note_on_c, 9, 54, 53
2, 22891, Note_on_c, 9, 54, 0
2, 22891, Note_on_c, 1, 31, 0
2, 22891, Note_on_c, 9, 82, 58
2, 22891, Note_on_c, 9, 82, 0
2, 22911, Note_on_c, 0, 67, 0
2, 22911, Note_on_c, 0, 74, 0
2, 22916, Note_on_c, 0, 71, 0
2, 22916, Note_on_c, 0, 62, 0
2, 22916, Note_on_c, 1, 31, 114
2, 22916, Note_on_c, 0, 62, 91
2, 22916, Note_on_c, 0, 67, 91
2, 22916, Note_on_c, 0, 71, 86
2, 22916, Note_on_c, 0, 74, 82
2, 22921, Note_on_c, 9, 38, 114
2, 22921, Note_on_c, 9, 38, 0
2, 22921, Note_on_c, 9, 42, 123
2, 22921, Note_on_c, 9, 42, 0
2, 22921, Note_on_c, 9, 123, 85
2, 22921, Note_on_c, 9, 123, 0
2, 22921, Note_on_c, 9, 54, 99
2, 22921, Note_on_c, 9, 54, 0
2, 22925, Note_on_c, 4, 67, 0
2, 22946, Note_on_c, 4, 67, 67
2, 22950, Note_on_c, 4, 71, 0
2, 22950, Note_on_c, 9, 54, 56
2, 22950, Note_on_c, 9, 54, 0
2, 22955, Note_on_c, 1, 31, 0
2, 22960, Note_on_c, 4, 62, 0
2, 22971, Note_on_c, 0, 67, 0
2, 22971, Note_on_c, 0, 71, 0
2, 22971, Note_on_c, 0, 74, 0
2, 22975, Note_on_c, 0, 62, 0
2, 22975, Note_on_c, 1, 31, 79
2, 22975, Note_on_c, 4, 71, 86
2, 22980, Note_on_c, 4, 67, 0
2, 22980, Note_on_c, 9, 53, 86
2, 22980, Note_on_c, 9, 42, 75
2, 22981, Note_on_c, 9, 42, 0
2, 22981, Note_on_c, 9, 53, 0
2, 22981, Note_on_c, 9, 54, 38
2, 22981, Note_on_c, 9, 54, 0
2, 22981, Note_on_c, 9, 82, 49
2, 22981, Note_on_c, 9, 82, 0
2, 22990, Note_on_c, 1, 31, 0
2, 23005, Note_on_c, 1, 31, 106
2, 23005, Note_on_c, 4, 67, 76
2, 23010, Note_on_c, 9, 54, 45
2, 23010, Note_on_c, 9, 82, 56
2, 23011, Note_on_c, 9, 82, 0
2, 23011, Note_on_c, 9, 54, 0
2, 23015, Note_on_c, 4, 55, 0
2, 23030, Note_on_c, 4, 71, 0
2, 23035, Note_on_c, 1, 31, 0
2, 23035, Note_on_c, 4, 67, 0
2, 23036, Note_on_c, 6, 62, 0
2, 23036, Note_on_c, 6, 67, 0
2, 23036, Note_on_c, 6, 71, 0
2, 23036, Control_c, 9, 0, 7
2, 23037, Control_c, 9, 32, 51
2, 23038, Program_c, 9, 9
2, 23038, Control_c, 9, 0, 0
2, 23038, Control_c, 9, 32, 3
2, 23039, Program_c, 9, 8
2, 23039, Control_c, 1, 0, 0
2, 23039, Control_c, 1, 32, 1
2, 23039, Program_c, 1, 33
2, 23039, Note_on_c, 1, 31, 106
2, 23039, Control_c, 0, 0, 0
2, 23039, Control_c, 0, 32, 3
2, 23039, Control_c, 0, 0, 0
2, 23039, Control_c, 0, 32, 3
2, 23039, Control_c, 0, 0, 0
2, 23039, Control_c, 0, 32, 3
2, 23039, Control_c, 0, 0, 0
2, 23039, Control_c, 0, 32, 3
2, 23039, Control_c, 0, 0, 0
2, 23039, Control_c, 0, 32, 3
2, 23040, Program_c, 0, 25
2, 23040, Note_on_c, 0, 62, 72
2, 23041, Note_on_c, 0, 67, 69
2, 23041, Note_on_c, 0, 71, 72
2, 23041, Note_on_c, 0, 74, 72
2, 23041, Control_c, 4, 0, 9
2, 23041, Control_c, 4, 32, 2
2, 23041, Control_c, 4, 0, 9
2, 23041, Control_c, 4, 32, 2
2, 23041, Control_c, 4, 0, 9
2, 23041, Control_c, 4, 32, 2
2, 23041, Control_c, 4, 0, 9
2, 23041, Control_c, 4, 32, 2
2, 23041, Control_c, 4, 0, 9
2, 23041, Control_c, 4, 32, 2
2, 23041, Program_c, 4, 27
2, 23041, Note_on_c, 4, 55, 86
2, 23041, Control_c, 6, 0, 32
2, 23041, Control_c, 6, 32, 1
2, 23041, Control_c, 6, 0, 32
2, 23041, Control_c, 6, 32, 1
2, 23041, Control_c, 6, 0, 32
2, 23041, Control_c, 6, 32, 1
2, 23041, Control_c, 6, 0, 32
2, 23041, Control_c, 6, 32, 1
2, 23041, Control_c, 6, 0, 32
2, 23041, Control_c, 6, 32, 1
2, 23042, Program_c, 6, 52
2, 23042, Note_on_c, 6, 62, 59
2, 23042, Note_on_c, 6, 67, 55
2, 23042, Note_on_c, 6, 71, 51
2, 23043, Note_on_c, 9, 36, 127
2, 23043, Note_on_c, 9, 36, 0
2, 23043, Note_on_c, 9, 42, 127
2, 23043, Note_on_c, 9, 42, 0
2, 23043, Note_on_c, 9, 54, 85
2, 23043, Note_on_c, 9, 54, 0
2, 23052, Note_on_c, 0, 74, 0
2, 23052, Note_on_c, 0, 67, 0
2, 23057, Note_on_c, 0, 62, 0
2, 23067, Note_on_c, 0, 62, 69
2, 23067, Note_on_c, 0, 67, 79
2, 23068, Note_on_c, 0, 74, 79
2, 23072, Note_on_c, 1, 31, 0
2, 23072, Note_on_c, 9, 54, 75
2, 23073, Note_on_c, 9, 54, 0
2, 23087, Note_on_c, 0, 71, 0
2, 23097, Note_on_c, 0, 74, 0
2, 23097, Note_on_c, 0, 67, 0
2, 23097, Note_on_c, 1, 31, 110
2, 23098, Note_on_c, 0, 67, 82
2, 23098, Note_on_c, 0, 71, 76
2, 23098, Note_on_c, 0, 74, 79
2, 23098, Note_on_c, 4, 67, 86
2, 23102, Note_on_c, 9, 36, 86
2, 23102, Note_on_c, 9, 53, 86
2, 23102, Note_on_c, 9, 54, 72
2, 23103, Note_on_c, 9, 53, 0
2, 23103, Note_on_c, 9, 36, 0
2, 23103, Note_on_c, 9, 42, 66
2, 23103, Note_on_c, 9, 82, 53
2, 23104, Note_on_c, 9, 82, 0
2, 23104, Note_on_c, 9, 42, 0
2, 23104, Note_on_c, 9, 54, 0
2, 23112, Note_on_c, 4, 55, 0
2, 23122, Note_on_c, 0, 62, 0
2, 23122, Note_on_c, 0, 74, 0
2, 23122, Note_on_c, 0, 67, 0
2, 23127, Note_on_c, 0, 62, 72
2, 23127, Note_on_c, 0, 67, 79
2, 23127, Note_on_c, 0, 74, 79
2, 23132, Note_on_c, 9, 54, 72
2, 23132, Note_on_c, 9, 82, 75
2, 23133, Note_on_c, 9, 82, 0
2, 23133, Note_on_c, 9, 54, 0
2, 23133, Note_on_c, 1, 31, 0
2, 23152, Note_on_c, 0, 71, 0
2, 23157, Note_on_c, 0, 74, 0
2, 23157, Note_on_c, 0, 62, 0
2, 23157, Note_on_c, 1, 31, 106
2, 23158, Note_on_c, 0, 62, 82
2, 23158, Note_on_c, 0, 71, 96
2, 23158, Note_on_c, 0, 74, 96
2, 23158, Note_on_c, 4, 62, 76
2, 23162, Note_on_c, 9, 38, 114
2, 23162, Note_on_c, 9, 42, 123
2, 23163, Note_on_c, 9, 42, 0
2, 23163, Note_on_c, 9, 38, 0
2, 23163, Note_on_c, 9, 123, 99
2, 23163, Note_on_c, 9, 54, 85
2, 23164, Note_on_c, 9, 54, 0
2, 23164, Note_on_c, 9, 123, 0
2, 23187, Note_on_c, 4, 69, 90
2, 23192, Note_on_c, 9, 54, 69
2, 23193, Note_on_c, 9, 54, 0
2, 23207, Note_on_c, 4, 62, 0
2, 23212, Note_on_c, 0, 74, 0
2, 23217, Note_on_c, 0, 62, 0
2, 23217, Note_on_c, 0, 71, 0
2, 23217, Note_on_c, 0, 67, 0
2, 23222, Note_on_c, 9, 53, 82
2, 23222, Note_on_c, 9, 42, 51
2, 23223, Note_on_c, 9, 42, 0
2, 23223, Note_on_c, 9, 53, 0
2, 23223, Note_on_c, 1, 31, 0
2, 23223, Note_on_c, 9, 54, 58
2, 23223, Note_on_c, 9, 54, 0
2, 23223, Note_on_c, 9, 82, 58
2, 23224, Note_on_c, 9, 82, 0
2, 23237, Note_on_c, 4, 69, 0
2, 23242, Note_on_c, 4, 67, 0
2, 23247, Note_on_c, 1, 31, 110
2, 23247, Note_on_c, 0, 62, 76
2, 23248, Note_on_c, 0, 67, 79
2, 23248, Note_on_c, 0, 71, 74
2, 23248, Note_on_c, 0, 74, 89
2, 23248, Note_on_c, 4, 55, 90
2, 23252, Note_on_c, 9, 36, 114
2, 23252, Note_on_c, 9, 54, 53
2, 23252, Note_on_c, 9, 82, 56
2, 23253, Note_on_c, 9, 82, 0
2, 23253, Note_on_c, 9, 36, 0
2, 23253, Note_on_c, 9, 54, 0
2, 23267, Note_on_c, 0, 67, 0
2, 23272, Note_on_c, 0, 71, 0
2, 23272, Note_on_c, 0, 62, 0
2, 23277, Note_on_c, 1, 31, 0
2, 23277, Note_on_c, 0, 74, 0
2, 23278, Note_on_c, 4, 67, 76
2, 23282, Note_on_c, 9, 42, 123
2, 23282, Note_on_c, 9, 54, 75
2, 23283, Note_on_c, 9, 54, 0
2, 23283, Note_on_c, 9, 42, 0
2, 23307, Note_on_c, 1, 31, 79
2, 23307, Note_on_c, 0, 62, 62
2, 23308, Note_on_c, 0, 67, 59
2, 23308, Note_on_c, 0, 71, 64
2, 23308, Note_on_c, 0, 74, 82
2, 23308, Note_on_c, 4, 62, 51
2, 23312, Note_on_c, 9, 36, 45
2, 23312, Note_on_c, 9, 54, 58
2, 23313, Note_on_c, 9, 54, 0
2, 23313, Note_on_c, 9, 36, 0
2, 23322, Note_on_c, 1, 31, 0
2, 23337, Note_on_c, 0, 71, 0
2, 23337, Note_on_c, 0, 67, 0
2, 23337, Note_on_c, 0, 62, 0
2, 23338, Note_on_c, 1, 31, 110
2, 23338, Note_on_c, 0, 62, 74
2, 23338, Note_on_c, 0, 67, 76
2, 23338, Note_on_c, 0, 71, 76
2, 23342, Note_on_c, 9, 36, 123
2, 23342, Note_on_c, 9, 53, 86
2, 23343, Note_on_c, 9, 36, 0
2, 23343, Note_on_c, 9, 42, 49
2, 23343, Note_on_c, 9, 54, 51
2, 23343, Note_on_c, 9, 82, 63
2, 23344, Note_on_c, 9, 82, 0
2, 23344, Note_on_c, 9, 53, 0
2, 23344, Note_on_c, 9, 54, 0
2, 23344, Note_on_c, 9, 42, 0
2, 23362, Note_on_c, 0, 62, 0
2, 23362, Note_on_c, 0, 67, 0
2, 23367, Note_on_c, 0, 74, 0
2, 23367, Note_on_c, 0, 62, 79
2, 23367, Note_on_c, 0, 67, 82
2, 23367, Note_on_c, 0, 74, 79
2, 23368, Note_on_c, 4, 69, 82
2, 23372, Note_on_c, 9, 54, 56
2, 23372, Note_on_c, 9, 82, 51
2, 23373, Note_on_c, 9, 82, 0
2, 23373, Note_on_c, 9, 54, 0
2, 23373, Note_on_c, 1, 31, 0
2, 23377, Note_on_c, 4, 62, 0
2, 23392, Note_on_c, 0, 71, 0
2, 23397, Note_on_c, 0, 62, 0
2, 23397, Note_on_c, 0, 67, 0
2, 23398, Note_on_c, 0, 74, 0
2, 23398, Note_on_c, 1, 31, 110
2, 23398, Note_on_c, 0, 62, 91
2, 23398, Note_on_c, 0, 67, 91
2, 23398, Note_on_c, 0, 71, 86
2, 23398, Note_on_c, 0, 74, 82
2, 23402, Note_on_c, 9, 38, 114
2, 23402, Note_on_c, 9, 42, 123
2, 23403, Note_on_c, 9, 42, 0
2, 23403, Note_on_c, 9, 38, 0
2, 23403, Note_on_c, 9, 123, 91
2, 23403, Note_on_c, 9, 123, 0
2, 23403, Note_on_c, 9, 54, 85
2, 23403, Note_on_c, 9, 54, 0
2, 23427, Note_on_c, 4, 62, 64
2, 23432, Note_on_c, 4, 67, 0
2, 23432, Note_on_c, 9, 54, 28
2, 23433, Note_on_c, 9, 54, 0
2, 23442, Note_on_c, 1, 31, 0
2, 23452, Note_on_c, 0, 71, 0
2, 23452, Note_on_c, 0, 67, 0
2, 23453, Note_on_c, 0, 74, 0
2, 23457, Note_on_c, 0, 62, 0
2, 23457, Note_on_c, 1, 31, 79
2, 23458, Note_on_c, 4, 67, 79
2, 23462, Note_on_c, 9, 53, 82
2, 23462, Note_on_c, 9, 42, 41
2, 23462, Note_on_c, 9, 54, 51
2, 23463, Note_on_c, 9, 54, 0
2, 23463, Note_on_c, 9, 42, 0
2, 23463, Note_on_c, 9, 53, 0
2, 23463, Note_on_c, 9, 82, 58
2, 23464, Note_on_c, 9, 82, 0
2, 23467, Note_on_c, 4, 62, 0
2, 23472, Note_on_c, 1, 31, 0
2, 23482, Note_on_c, 4, 55, 0
2, 23487, Note_on_c, 1, 31, 86
2, 23487, Note_on_c, 4, 62, 67
2, 23492, Note_on_c, 9, 25, 72
2, 23492, Note_on_c, 9, 54, 49
2, 23493, Note_on_c, 9, 54, 0
2, 23493, Note_on_c, 9, 25, 0
2, 23493, Note_on_c, 9, 82, 58
2, 23493, Note_on_c, 9, 82, 0
2, 23507, Note_on_c, 1, 31, 0
2, 23507, Note_on_c, 4, 67, 0
2, 23512, Note_on_c, 4, 69, 0
2, 23512, Note_on_c, 4, 62, 0
2, 23517, Note_on_c, 1, 31, 110
2, 23518, Note_on_c, 0, 62, 72
2, 23518, Note_on_c, 0, 67, 69
2, 23518, Note_on_c, 0, 71, 72
2, 23518, Note_on_c, 0, 74, 72
2, 23518, Note_on_c, 4, 55, 90
2, 23522, Note_on_c, 9, 36, 110
2, 23522, Note_on_c, 9, 42, 123
2, 23522, Note_on_c, 9, 54, 91
2, 23523, Note_on_c, 9, 54, 0
2, 23523, Note_on_c, 9, 36, 0
2, 23523, Note_on_c, 9, 42, 0
2, 23542, Note_on_c, 0, 67, 0
2, 23542, Note_on_c, 0, 62, 0
2, 23543, Note_on_c, 0, 74, 0
2, 23547, Note_on_c, 1, 31, 0
2, 23547, Note_on_c, 0, 62, 69
2, 23548, Note_on_c, 0, 67, 79
2, 23548, Note_on_c, 0, 74, 79
2, 23552, Note_on_c, 9, 54, 49
2, 23553, Note_on_c, 9, 54, 0
2, 23572, Note_on_c, 0, 71, 0
2, 23577, Note_on_c, 0, 74, 0
2, 23577, Note_on_c, 0, 67, 0
2, 23577, Note_on_c, 1, 31, 106
2, 23577, Note_on_c, 0, 67, 82
2, 23578, Note_on_c, 0, 71, 76
2, 23578, Note_on_c, 0, 74, 79
2, 23578, Note_on_c, 4, 71, 90
2, 23582, Note_on_c, 9, 36, 114
2, 23582, Note_on_c, 9, 53, 79
2, 23583, Note_on_c, 9, 53, 0
2, 23583, Note_on_c, 9, 36, 0
2, 23583, Note_on_c, 9, 42, 61
2, 23583, Note_on_c, 9, 54, 53
2, 23583, Note_on_c, 9, 82, 56
2, 23584, Note_on_c, 9, 82, 0
2, 23584, Note_on_c, 9, 54, 0
2, 23584, Note_on_c, 9, 42, 0
2, 23602, Note_on_c, 0, 74, 0
2, 23602, Note_on_c, 0, 67, 0
2, 23602, Note_on_c, 0, 62, 0
2, 23607, Note_on_c, 1, 31, 0
2, 23607, Note_on_c, 0, 62, 72
2, 23608, Note_on_c, 0, 67, 79
2, 23608, Note_on_c, 0, 74, 79
2, 23612, Note_on_c, 9, 54, 53
2, 23612, Note_on_c, 9, 82, 58
2, 23613, Note_on_c, 9, 82, 0
2, 23613, Note_on_c, 9, 54, 0
2, 23632, Note_on_c, 0, 71, 0
2, 23637, Note_on_c, 0, 74, 0
2, 23637, Note_on_c, 0, 62, 0
2, 23638, Note_on_c, 1, 31, 110
2, 23638, Note_on_c, 0, 62, 82
2, 23638, Note_on_c, 0, 71, 96
2, 23638, Note_on_c, 0, 74, 96
2, 23638, Note_on_c, 4, 67, 76
2, 23642, Note_on_c, 9, 38, 114
2, 23642, Note_on_c, 9, 42, 127
2, 23642, Note_on_c, 9, 123, 99
2, 23643, Note_on_c, 9, 123, 0
2, 23643, Note_on_c, 9, 42, 0
2, 23643, Note_on_c, 9, 38, 0
2, 23643, Note_on_c, 9, 54, 106
2, 23643, Note_on_c, 9, 54, 0
2, 23667, Note_on_c, 4, 62, 90
2, 23672, Note_on_c, 9, 54, 58
2, 23673, Note_on_c, 9, 54, 0
2, 23697, Note_on_c, 0, 67, 0
2, 23697, Note_on_c, 0, 62, 0
2, 23698, Note_on_c, 0, 71, 0
2, 23698, Note_on_c, 0, 74, 0
2, 23702, Note_on_c, 9, 53, 76
2, 23702, Note_on_c, 9, 42, 56
2, 23702, Note_on_c, 9, 54, 51
2, 23703, Note_on_c, 9, 54, 0
2, 23703, Note_on_c, 9, 42, 0
2, 23703, Note_on_c, 9, 53, 0
2, 23703, Note_on_c, 9, 82, 53
2, 23703, Note_on_c, 9, 82, 0
2, 23707, Note_on_c, 4, 55, 0
2, 23707, Note_on_c, 1, 31, 0
2, 23717, Note_on_c, 4, 62, 0
2, 23727, Note_on_c, 4, 71, 0
2, 23727, Note_on_c, 1, 31, 106
2, 23728, Note_on_c, 0, 62, 76
2, 23728, Note_on_c, 0, 67, 79
2, 23728, Note_on_c, 0, 71, 74
2, 23728, Note_on_c, 0, 74, 89
2, 23728, Note_on_c, 4, 55, 86
2, 23732, Note_on_c, 4, 67, 0
2, 23732, Note_on_c, 9, 36, 114
2, 23732, Note_on_c, 9, 54, 49
2, 23732, Note_on_c, 9, 82, 56
2, 23733, Note_on_c, 9, 82, 0
2, 23733, Note_on_c, 9, 36, 0
2, 23733, Note_on_c, 9, 54, 0
2, 23747, Note_on_c, 0, 71, 0
2, 23747, Note_on_c, 0, 67, 0
2, 23752, Note_on_c, 0, 62, 0
2, 23757, Note_on_c, 0, 74, 0
2, 23757, Note_on_c, 4, 71, 82
2, 23762, Note_on_c, 9, 42, 127
2, 23762, Note_on_c, 9, 54, 99
2, 23763, Note_on_c, 9, 54, 0
2, 23763, Note_on_c, 9, 42, 0
2, 23763, Note_on_c, 1, 31, 0
2, 23787, Note_on_c, 1, 31, 102
2, 23787, Note_on_c, 0, 62, 62
2, 23787, Note_on_c, 0, 67, 59
2, 23788, Note_on_c, 0, 71, 64
2, 23788, Note_on_c, 0, 74, 82
2, 23792, Note_on_c, 9, 36, 35
2, 23792, Note_on_c, 9, 54, 45
2, 23793, Note_on_c, 9, 54, 0
2, 23793, Note_on_c, 9, 36, 0
2, 23807, Note_on_c, 1, 31, 0
2, 23812, Note_on_c, 0, 67, 0
2, 23812, Note_on_c, 0, 71, 0
2, 23812, Note_on_c, 0, 62, 0
2, 23817, Note_on_c, 1, 31, 106
2, 23818, Note_on_c, 0, 62, 74
2, 23818, Note_on_c, 0, 67, 76
2, 23818, Note_on_c, 0, 71, 76
2, 23818, Note_on_c, 4, 67, 74
2, 23822, Note_on_c, 9, 36, 127
2, 23822, Note_on_c, 9, 53, 82
2, 23822, Note_on_c, 9, 42, 51
2, 23823, Note_on_c, 9, 53, 0
2, 23823, Note_on_c, 9, 36, 0
2, 23823, Note_on_c, 9, 54, 45
2, 23823, Note_on_c, 9, 82, 56
2, 23824, Note_on_c, 9, 82, 0
2, 23824, Note_on_c, 9, 54, 0
2, 23824, Note_on_c, 9, 42, 0
2, 23847, Note_on_c, 0, 62, 0
2, 23847, Note_on_c, 0, 74, 0
2, 23847, Note_on_c, 0, 67, 0
2, 23848, Note_on_c, 0, 62, 79
2, 23848, Note_on_c, 0, 67, 82
2, 23848, Note_on_c, 0, 74, 79
2, 23848, Note_on_c, 4, 62, 82
2, 23852, Note_on_c, 1, 31, 0
2, 23852, Note_on_c, 9, 54, 53
2, 23852, Note_on_c, 9, 82, 58
2, 23853, Note_on_c, 9, 82, 0
2, 23853, Note_on_c, 9, 54, 0
2, 23872, Note_on_c, 0, 67, 0
2, 23872, Note_on_c, 0, 74, 0
2, 23877, Note_on_c, 0, 71, 0
2, 23877, Note_on_c, 0, 62, 0
2, 23878, Note_on_c, 1, 31, 114
2, 23878, Note_on_c, 0, 62, 91
2, 23878, Note_on_c, 0, 67, 91
2, 23878, Note_on_c, 0, 71, 86
2, 23878, Note_on_c, 0, 74, 82
2, 23882, Note_on_c, 9, 38, 114
2, 23882, Note_on_c, 9, 42, 123
2, 23882, Note_on_c, 9, 123, 85
2, 23883, Note_on_c, 9, 123, 0
2, 23883, Note_on_c, 9, 42, 0
2, 23883, Note_on_c, 9, 38, 0
2, 23883, Note_on_c, 9, 54, 99
2, 23883, Note_on_c, 9, 54, 0
2, 23887, Note_on_c, 4, 67, 0
2, 23907, Note_on_c, 4, 67, 67
2, 23912, Note_on_c, 4, 71, 0
2, 23912, Note_on_c, 9, 54, 56
2, 23913, Note_on_c, 9, 54, 0
2, 23917, Note_on_c, 1, 31, 0
2, 23922, Note_on_c, 4, 62, 0
2, 23932, Note_on_c, 0, 67, 0
2, 23932, Note_on_c, 0, 71, 0
2, 23932, Note_on_c, 0, 74, 0
2, 23937, Note_on_c, 0, 62, 0
2, 23937, Note_on_c, 1, 31, 79
2, 23938, Note_on_c, 4, 71, 86
2, 23942, Note_on_c, 4, 67, 0
2, 23942, Note_on_c, 9, 53, 86
2, 23942, Note_on_c, 9, 42, 75
2, 23943, Note_on_c, 9, 53, 0
2, 23943, Note_on_c, 9, 54, 38
2, 23943, Note_on_c, 9, 82, 49
2, 23944, Note_on_c, 9, 82, 0
2, 23944, Note_on_c, 9, 54, 0
2, 23944, Note_on_c, 9, 42, 0
2, 23952, Note_on_c, 1, 31, 0
2, 23967, Note_on_c, 1, 31, 106
2, 23967, Note_on_c, 4, 67, 76
2, 23972, Note_on_c, 9, 54, 45
2, 23972, Note_on_c, 9, 82, 56
2, 23973, Note_on_c, 9, 82, 0
2, 23973, Note_on_c, 9, 54, 0
2, 23977, Note_on_c, 4, 55, 0
2, 23992, Note_on_c, 4, 71, 0
2, 23992, Control_c, 1, 84, 31
2, 23992, Note_on_c, 1, 33, 106
2, 23993, Note_on_c, 1, 31, 0
2, 23994, Note_on_c, 4, 67, 0
2, 23994, Control_c, 4, 84, 67
2, 23994, Note_on_c, 4, 45, 86
2, 23994, Control_c, 6, 84, 62
2, 23994, Note_on_c, 6, 57, 64
2, 23995, Note_on_c, 6, 62, 0
2, 23995, Note_on_c, 6, 67, 0
2, 23995, Control_c, 6, 84, 67
2, 23995, Note_on_c, 6, 52, 57
2, 23995, Control_c, 6, 84, 71
2, 23995, Note_on_c, 6, 60, 61
2, 23996, Note_on_c, 6, 52, 0
2, 23996, Note_on_c, 6, 71, 0
2, 23996, Note_on_c, 6, 57, 0
2, 23997, Note_on_c, 1, 33, 0
2, 23997, Note_on_c, 4, 45, 0
2, 23997, Note_on_c, 6, 60, 0
2, 23998, Note_on_c, 1, 33, 106
2, 23998, Note_on_c, 0, 60, 72
2, 23998, Note_on_c, 0, 48, 72
2, 23998, Note_on_c, 0, 52, 72
2, 23998, Note_on_c, 0, 57, 69
2, 23999, Note_on_c, 4, 45, 86
2, 23999, Note_on_c, 6, 60, 61
2, 23999, Note_on_c, 6, 52, 57
2, 23999, Note_on_c, 6, 57, 64
2, 24002, Note_on_c, 9, 36, 127
2, 24002, Note_on_c, 9, 42, 127
2, 24002, Note_on_c, 9, 54, 85
2, 24003, Note_on_c, 9, 42, 0
2, 24003, Note_on_c, 9, 36, 0
2, 24004, Note_on_c, 9, 54, 0
2, 24017, Note_on_c, 0, 57, 0
2, 24017, Note_on_c, 0, 60, 0
2, 24017, Note_on_c, 0, 52, 0
2, 24027, Note_on_c, 0, 60, 79
2, 24027, Note_on_c, 0, 52, 69
2, 24028, Note_on_c, 0, 57, 79
2, 24032, Note_on_c, 1, 33, 0
2, 24032, Note_on_c, 9, 54, 75
2, 24033, Note_on_c, 9, 54, 0
2, 24047, Note_on_c, 0, 48, 0
2, 24052, Note_on_c, 0, 57, 0
2, 24052, Note_on_c, 0, 60, 0
2, 24057, Note_on_c, 1, 33, 110
2, 24057, Note_on_c, 0, 60, 79
2, 24058, Note_on_c, 0, 48, 76
2, 24058, Note_on_c, 0, 57, 82
2, 24058, Note_on_c, 4, 60, 90
2, 24062, Note_on_c, 9, 36, 86
2, 24062, Note_on_c, 9, 53, 86
2, 24062, Note_on_c, 9, 54, 72
2, 24063, Note_on_c, 9, 54, 0
2, 24063, Note_on_c, 9, 53, 0
2, 24063, Note_on_c, 9, 36, 0
2, 24063, Note_on_c, 9, 42, 66
2, 24063, Note_on_c, 9, 42, 0
2, 24063, Note_on_c, 9, 82, 53
2, 24064, Note_on_c, 9, 82, 0
2, 24082, Note_on_c, 0, 52, 0
2, 24087, Note_on_c, 0, 57, 0
2, 24087, Note_on_c, 0, 60, 0
2, 24087, Note_on_c, 0, 60, 79
2, 24087, Note_on_c, 0, 52, 72
2, 24088, Note_on_c, 0, 57, 79
2, 24092, Note_on_c, 1, 33, 0
2, 24092, Note_on_c, 9, 54, 72
2, 24092, Note_on_c, 9, 82, 75
2, 24093, Note_on_c, 9, 82, 0
2, 24093, Note_on_c, 9, 54, 0
2, 24112, Note_on_c, 0, 60, 0
2, 24112, Note_on_c, 0, 48, 0
2, 24112, Note_on_c, 0, 52, 0
2, 24117, Note_on_c, 1, 33, 106
2, 24117, Note_on_c, 0, 60, 96
2, 24118, Note_on_c, 0, 48, 96
2, 24118, Note_on_c, 0, 52, 82
2, 24118, Note_on_c, 4, 57, 69
2, 24122, Note_on_c, 9, 38, 114
2, 24122, Note_on_c, 9, 42, 123
2, 24122, Note_on_c, 9, 123, 99
2, 24123, Note_on_c, 9, 123, 0
2, 24123, Note_on_c, 9, 42, 0
2, 24123, Note_on_c, 9, 38, 0
2, 24123, Note_on_c, 9, 54, 85
2, 24123, Note_on_c, 9, 54, 0
2, 24147, Note_on_c, 4, 64, 86
2, 24152, Note_on_c, 9, 54, 69
2, 24153, Note_on_c, 9, 54, 0
2, 24157, Note_on_c, 4, 45, 0
2, 24172, Note_on_c, 0, 57, 0
2, 24177, Note_on_c, 0, 48, 0
2, 24177, Note_on_c, 0, 60, 0
2, 24177, Note_on_c, 0, 52, 0
2, 24182, Note_on_c, 9, 53, 82
2, 24182, Note_on_c, 9, 42, 51
2, 24182, Note_on_c, 9, 54, 58
2, 24183, Note_on_c, 9, 54, 0
2, 24183, Note_on_c, 9, 42, 0
2, 24183, Note_on_c, 1, 33, 0
2, 24183, Note_on_c, 9, 53, 0
2, 24183, Note_on_c, 9, 82, 58
2, 24184, Note_on_c, 9, 82, 0
2, 24187, Note_on_c, 4, 64, 0
2, 24202, Note_on_c, 4, 60, 0
2, 24207, Note_on_c, 4, 57, 0
2, 24207, Note_on_c, 1, 33, 110
2, 24207, Note_on_c, 0, 60, 89
2, 24208, Note_on_c, 0, 48, 74
2, 24208, Note_on_c, 0, 52, 76
2, 24208, Note_on_c, 0, 57, 79
2, 24208, Note_on_c, 4, 45, 86
2, 24212, Note_on_c, 9, 36, 114
2, 24212, Note_on_c, 9, 54, 53
2, 24213, Note_on_c, 9, 54, 0
2, 24213, Note_on_c, 9, 36, 0
2, 24213, Note_on_c, 9, 82, 56
2, 24213, Note_on_c, 9, 82, 0
2, 24227, Note_on_c, 0, 52, 0
2, 24227, Note_on_c, 0, 57, 0
2, 24227, Note_on_c, 0, 48, 0
2, 24232, Note_on_c, 0, 60, 0
2, 24237, Note_on_c, 1, 33, 0
2, 24237, Note_on_c, 4, 60, 80
2, 24242, Note_on_c, 9, 42, 123
2, 24242, Note_on_c, 9, 54, 75
2, 24243, Note_on_c, 9, 54, 0
2, 24243, Note_on_c, 9, 42, 0
2, 24267, Note_on_c, 1, 33, 79
2, 24267, Note_on_c, 0, 60, 82
2, 24268, Note_on_c, 0, 48, 64
2, 24268, Note_on_c, 0, 52, 62
2, 24268, Note_on_c, 0, 57, 59
2, 24272, Note_on_c, 9, 36, 45
2, 24272, Note_on_c, 9, 54, 58
2, 24273, Note_on_c, 9, 54, 0
2, 24273, Note_on_c, 9, 36, 0
2, 24282, Note_on_c, 1, 33, 0
2, 24292, Note_on_c, 0, 52, 0
2, 24292, Note_on_c, 0, 48, 0
2, 24292, Note_on_c, 0, 57, 0
2, 24297, Note_on_c, 1, 33, 110
2, 24297, Note_on_c, 0, 48, 76
2, 24298, Note_on_c, 0, 52, 74
2, 24298, Note_on_c, 0, 57, 76
2, 24298, Note_on_c, 4, 57, 74
2, 24302, Note_on_c, 9, 36, 123
2, 24302, Note_on_c, 9, 53, 86
2, 24302, Note_on_c, 9, 42, 49
2, 24303, Note_on_c, 9, 42, 0
2, 24303, Note_on_c, 9, 53, 0
2, 24303, Note_on_c, 9, 36, 0
2, 24303, Note_on_c, 9, 54, 51
2, 24303, Note_on_c, 9, 54, 0
2, 24303, Note_on_c, 9, 82, 63
2, 24303, Note_on_c, 9, 82, 0
2, 24327, Note_on_c, 0, 57, 0
2, 24327, Note_on_c, 0, 60, 0
2, 24327, Note_on_c, 0, 52, 0
2, 24328, Note_on_c, 0, 60, 79
2, 24328, Note_on_c, 0, 52, 79
2, 24328, Note_on_c, 0, 57, 82
2, 24328, Note_on_c, 4, 64, 86
2, 24332, Note_on_c, 1, 33, 0
2, 24332, Note_on_c, 9, 54, 56
2, 24332, Note_on_c, 9, 82, 51
2, 24333, Note_on_c, 9, 82, 0
2, 24333, Note_on_c, 9, 54, 0
2, 24352, Note_on_c, 0, 52, 0
2, 24352, Note_on_c, 0, 60, 0
2, 24352, Note_on_c, 0, 57, 0
2, 24357, Note_on_c, 0, 48, 0
2, 24357, Note_on_c, 1, 33, 110
2, 24357, Note_on_c, 0, 60, 82
2, 24358, Note_on_c, 0, 48, 86
2, 24358, Note_on_c, 0, 52, 91
2, 24358, Note_on_c, 0, 57, 91
2, 24362, Note_on_c, 9, 38, 114
2, 24362, Note_on_c, 9, 42, 123
2, 24362, Note_on_c, 9, 123, 91
2, 24362, Note_on_c, 9, 54, 85
2, 24363, Note_on_c, 9, 123, 0
2, 24363, Note_on_c, 9, 42, 0
2, 24363, Note_on_c, 9, 38, 0
2, 24363, Note_on_c, 4, 57, 0
2, 24364, Note_on_c, 9, 54, 0
2, 24387, Note_on_c, 4, 57, 64
2, 24392, Note_on_c, 9, 54, 28
2, 24393, Note_on_c, 9, 54, 0
2, 24402, Note_on_c, 1, 33, 0
2, 24407, Note_on_c, 4, 60, 0
2, 24412, Note_on_c, 0, 52, 0
2, 24412, Note_on_c, 0, 57, 0
2, 24417, Note_on_c, 0, 60, 0
2, 24417, Note_on_c, 0, 48, 0
2, 24417, Note_on_c, 1, 33, 79
2, 24417, Note_on_c, 4, 60, 80
2, 24422, Note_on_c, 4, 57, 0
2, 24422, Note_on_c, 9, 53, 82
2, 24423, Note_on_c, 9, 53, 0
2, 24423, Note_on_c, 9, 42, 41
2, 24423, Note_on_c, 9, 42, 0
2, 24423, Note_on_c, 9, 54, 51
2, 24423, Note_on_c, 9, 54, 0
2, 24423, Note_on_c, 9, 82, 58
2, 24424, Note_on_c, 9, 82, 0
2, 24432, Note_on_c, 1, 33, 0
2, 24447, Note_on_c, 1, 33, 86
2, 24447, Note_on_c, 4, 57, 86
2, 24452, Note_on_c, 9, 25, 72
2, 24452, Note_on_c, 9, 54, 49
2, 24452, Note_on_c, 9, 82, 58
2, 24453, Note_on_c, 9, 82, 0
2, 24453, Note_on_c, 4, 45, 0
2, 24453, Note_on_c, 9, 54, 0
2, 24453, Note_on_c, 9, 25, 0
2, 24467, Note_on_c, 1, 33, 0
2, 24477, Note_on_c, 1, 33, 110
2, 24477, Note_on_c, 0, 60, 72
2, 24478, Note_on_c, 0, 48, 72
2, 24478, Note_on_c, 0, 52, 72
2, 24478, Note_on_c, 0, 57, 69
2, 24478, Note_on_c, 4, 45, 90
2, 24482, Note_on_c, 9, 36, 110
2, 24482, Note_on_c, 9, 42, 123
2, 24482, Note_on_c, 9, 54, 91
2, 24483, Note_on_c, 9, 54, 0
2, 24483, Note_on_c, 4, 60, 0
2, 24483, Note_on_c, 4, 57, 0
2, 24483, Note_on_c, 4, 64, 0
2, 24483, Note_on_c, 9, 42, 0
2, 24483, Note_on_c, 9, 36, 0
2, 24507, Note_on_c, 0, 60, 0
2, 24507, Note_on_c, 0, 52, 0
2, 24507, Note_on_c, 1, 33, 0
2, 24508, Note_on_c, 0, 57, 0
2, 24508, Note_on_c, 0, 60, 79
2, 24508, Note_on_c, 0, 52, 69
2, 24508, Note_on_c, 0, 57, 79
2, 24512, Note_on_c, 9, 54, 49
2, 24513, Note_on_c, 9, 54, 0
2, 24532, Note_on_c, 0, 57, 0
2, 24532, Note_on_c, 0, 60, 0
2, 24537, Note_on_c, 0, 48, 0
2, 24537, Note_on_c, 1, 33, 106
2, 24537, Note_on_c, 0, 60, 79
2, 24538, Note_on_c, 0, 48, 76
2, 24538, Note_on_c, 0, 57, 82
2, 24538, Note_on_c, 4, 60, 90
2, 24542, Note_on_c, 9, 36, 114
2, 24542, Note_on_c, 9, 53, 79
2, 24542, Note_on_c, 9, 42, 61
2, 24543, Note_on_c, 9, 42, 0
2, 24543, Note_on_c, 9, 53, 0
2, 24543, Note_on_c, 9, 36, 0
2, 24543, Note_on_c, 9, 54, 53
2, 24543, Note_on_c, 9, 54, 0
2, 24543, Note_on_c, 9, 82, 56
2, 24543, Note_on_c, 9, 82, 0
2, 24562, Note_on_c, 0, 57, 0
2, 24562, Note_on_c, 0, 60, 0
2, 24562, Note_on_c, 0, 52, 0
2, 24567, Note_on_c, 1, 33, 0
2, 24567, Note_on_c, 0, 60, 79
2, 24567, Note_on_c, 0, 52, 72
2, 24568, Note_on_c, 0, 57, 79
2, 24572, Note_on_c, 9, 54, 53
2, 24572, Note_on_c, 9, 82, 58
2, 24573, Note_on_c, 9, 82, 0
2, 24573, Note_on_c, 9, 54, 0
2, 24597, Note_on_c, 0, 60, 0
2, 24597, Note_on_c, 0, 52, 0
2, 24597, Note_on_c, 0, 48, 0
2, 24597, Note_on_c, 1, 33, 110
2, 24598, Note_on_c, 0, 60, 96
2, 24598, Note_on_c, 0, 48, 96
2, 24598, Note_on_c, 0, 52, 82
2, 24598, Note_on_c, 4, 57, 74
2, 24602, Note_on_c, 9, 38, 114
2, 24602, Note_on_c, 9, 42, 127
2, 24603, Note_on_c, 9, 42, 0
2, 24603, Note_on_c, 9, 38, 0
2, 24603, Note_on_c, 9, 123, 99
2, 24603, Note_on_c, 9, 123, 0
2, 24603, Note_on_c, 9, 54, 106
2, 24603, Note_on_c, 9, 54, 0
2, 24627, Note_on_c, 4, 64, 82
2, 24632, Note_on_c, 9, 54, 58
2, 24633, Note_on_c, 9, 54, 0
2, 24647, Note_on_c, 4, 45, 0
2, 24647, Note_on_c, 4, 57, 0
2, 24657, Note_on_c, 0, 57, 0
2, 24657, Note_on_c, 0, 60, 0
2, 24657, Note_on_c, 4, 64, 0
2, 24658, Note_on_c, 0, 48, 0
2, 24658, Note_on_c, 0, 52, 0
2, 24658, Note_on_c, 4, 57, 67
2, 24662, Note_on_c, 9, 53, 76
2, 24662, Note_on_c, 9, 42, 56
2, 24663, Note_on_c, 9, 42, 0
2, 24663, Note_on_c, 9, 53, 0
2, 24663, Note_on_c, 9, 54, 51
2, 24663, Note_on_c, 9, 54, 0
2, 24663, Note_on_c, 9, 82, 53
2, 24663, Note_on_c, 9, 82, 0
2, 24667, Note_on_c, 1, 33, 0
2, 24672, Note_on_c, 4, 60, 0
2, 24672, Note_on_c, 4, 57, 0
2, 24687, Note_on_c, 1, 33, 106
2, 24687, Note_on_c, 0, 60, 89
2, 24688, Note_on_c, 0, 48, 74
2, 24688, Note_on_c, 0, 52, 76
2, 24688, Note_on_c, 0, 57, 79
2, 24688, Note_on_c, 4, 45, 86
2, 24692, Note_on_c, 9, 36, 114
2, 24692, Note_on_c, 9, 54, 49
2, 24692, Note_on_c, 9, 82, 56
2, 24693, Note_on_c, 9, 82, 0
2, 24693, Note_on_c, 9, 36, 0
2, 24693, Note_on_c, 9, 54, 0
2, 24707, Note_on_c, 0, 57, 0
2, 24712, Note_on_c, 0, 52, 0
2, 24712, Note_on_c, 0, 48, 0
2, 24717, Note_on_c, 0, 60, 0
2, 24717, Note_on_c, 4, 60, 90
2, 24722, Note_on_c, 1, 33, 0
2, 24722, Note_on_c, 9, 42, 127
2, 24722, Note_on_c, 9, 54, 99
2, 24723, Note_on_c, 9, 54, 0
2, 24723, Note_on_c, 9, 42, 0
2, 24747, Note_on_c, 1, 33, 102
2, 24747, Note_on_c, 0, 60, 82
2, 24747, Note_on_c, 0, 48, 64
2, 24748, Note_on_c, 0, 52, 62
2, 24748, Note_on_c, 0, 57, 59
2, 24752, Note_on_c, 9, 36, 35
2, 24752, Note_on_c, 9, 54, 45
2, 24753, Note_on_c, 9, 54, 0
2, 24753, Note_on_c, 9, 36, 0
2, 24767, Note_on_c, 1, 33, 0
2, 24777, Note_on_c, 0, 52, 0
2, 24777, Note_on_c, 0, 48, 0
2, 24777, Note_on_c, 0, 57, 0
2, 24777, Note_on_c, 1, 33, 106
2, 24778, Note_on_c, 0, 48, 76
2, 24778, Note_on_c, 0, 52, 74
2, 24778, Note_on_c, 0, 57, 76
2, 24778, Note_on_c, 4, 57, 74
2, 24782, Note_on_c, 9, 36, 127
2, 24782, Note_on_c, 9, 53, 82
2, 24782, Note_on_c, 9, 42, 51
2, 24782, Note_on_c, 9, 54, 45
2, 24783, Note_on_c, 9, 42, 0
2, 24783, Note_on_c, 9, 53, 0
2, 24783, Note_on_c, 9, 36, 0
2, 24783, Note_on_c, 9, 82, 56
2, 24784, Note_on_c, 9, 82, 0
2, 24784, Note_on_c, 9, 54, 0
2, 24802, Note_on_c, 0, 52, 0
2, 24802, Note_on_c, 0, 57, 0
2, 24807, Note_on_c, 0, 60, 0
2, 24807, Note_on_c, 0, 60, 79
2, 24807, Note_on_c, 0, 52, 79
2, 24808, Note_on_c, 0, 57, 82
2, 24808, Note_on_c, 4, 64, 82
2, 24812, Note_on_c, 1, 33, 0
2, 24812, Note_on_c, 9, 54, 53
2, 24812, Note_on_c, 9, 82, 58
2, 24813, Note_on_c, 9, 82, 0
2, 24813, Note_on_c, 9, 54, 0
2, 24837, Note_on_c, 0, 48, 0
2, 24837, Note_on_c, 0, 52, 0
2, 24837, Note_on_c, 0, 60, 0
2, 24837, Note_on_c, 0, 57, 0
2, 24838, Note_on_c, 1, 33, 114
2, 24838, Note_on_c, 0, 60, 82
2, 24838, Note_on_c, 0, 48, 86
2, 24838, Note_on_c, 0, 52, 91
2, 24838, Note_on_c, 0, 57, 91
2, 24842, Note_on_c, 9, 38, 114
2, 24842, Note_on_c, 9, 42, 123
2, 24842, Note_on_c, 9, 123, 85
2, 24843, Note_on_c, 9, 123, 0
2, 24843, Note_on_c, 4, 57, 0
2, 24843, Note_on_c, 9, 42, 0
2, 24843, Note_on_c, 9, 38, 0
2, 24843, Note_on_c, 9, 54, 99
2, 24843, Note_on_c, 9, 54, 0
2, 24867, Note_on_c, 4, 57, 69
2, 24872, Note_on_c, 9, 54, 56
2, 24873, Note_on_c, 9, 54, 0
2, 24877, Note_on_c, 1, 33, 0
2, 24877, Note_on_c, 4, 60, 0
2, 24892, Note_on_c, 0, 52, 0
2, 24892, Note_on_c, 0, 48, 0
2, 24892, Note_on_c, 0, 57, 0
2, 24897, Note_on_c, 0, 60, 0
2, 24897, Note_on_c, 4, 57, 0
2, 24897, Note_on_c, 1, 33, 79
2, 24898, Note_on_c, 4, 60, 85
2, 24902, Note_on_c, 9, 53, 86
2, 24902, Note_on_c, 9, 42, 75
2, 24902, Note_on_c, 9, 54, 38
2, 24902, Note_on_c, 9, 82, 49
2, 24903, Note_on_c, 9, 82, 0
2, 24903, Note_on_c, 9, 53, 0
2, 24903, Note_on_c, 9, 54, 0
2, 24903, Note_on_c, 9, 42, 0
2, 24912, Note_on_c, 1, 33, 0
2, 24927, Note_on_c, 1, 33, 106
2, 24927, Note_on_c, 4, 57, 90
2, 24932, Note_on_c, 9, 54, 45
2, 24932, Note_on_c, 9, 82, 56
2, 24933, Note_on_c, 9, 82, 0
2, 24933, Note_on_c, 9, 54, 0
2, 24947, Note_on_c, 4, 64, 0
2, 24947, Note_on_c, 4, 57, 0
2, 24952, Note_on_c, 6, 57, 0
2, 24952, Note_on_c, 6, 52, 0
2, 24952, Note_on_c, 4, 60, 0
2, 24957, Note_on_c, 4, 45, 0
2, 24957, Note_on_c, 1, 33, 0
2, 24957, Note_on_c, 6, 60, 0
2, 24958, Note_on_c, 1, 31, 106
2, 24958, Note_on_c, 0, 62, 72
2, 24958, Note_on_c, 0, 67, 69
2, 24958, Note_on_c, 0, 71, 72
2, 24958, Note_on_c, 0, 74, 72
2, 24959, Note_on_c, 4, 55, 86
2, 24959, Note_on_c, 6, 62, 59
2, 24959, Note_on_c, 6, 67, 55
2, 24959, Note_on_c, 6, 71, 51
2, 24962, Note_on_c, 9, 36, 127
2, 24962, Note_on_c, 9, 42, 127
2, 24962, Note_on_c, 9, 54, 85
2, 24963, Note_on_c, 9, 54, 0
2, 24963, Note_on_c, 9, 36, 0
2, 24963, Note_on_c, 9, 42, 0
2, 24972, Note_on_c, 0, 74, 0
2, 24972, Note_on_c, 0, 67, 0
2, 24977, Note_on_c, 0, 62, 0
2, 24987, Note_on_c, 0, 62, 69
2, 24987, Note_on_c, 0, 67, 79
2, 24987, Note_on_c, 0, 74, 79
2, 24992, Note_on_c, 1, 31, 0
2, 24992, Note_on_c, 9, 54, 75
2, 24993, Note_on_c, 9, 54, 0
2, 25007, Note_on_c, 0, 71, 0
2, 25017, Note_on_c, 0, 74, 0
2, 25017, Note_on_c, 0, 67, 0
2, 25017, Note_on_c, 1, 31, 110
2, 25017, Note_on_c, 0, 67, 82
2, 25018, Note_on_c, 0, 71, 76
2, 25018, Note_on_c, 0, 74, 79
2, 25018, Note_on_c, 4, 67, 86
2, 25022, Note_on_c, 9, 36, 86
2, 25022, Note_on_c, 9, 53, 86
2, 25022, Note_on_c, 9, 54, 72
2, 25023, Note_on_c, 9, 53, 0
2, 25023, Note_on_c, 9, 36, 0
2, 25023, Note_on_c, 9, 42, 66
2, 25023, Note_on_c, 9, 82, 53
2, 25024, Note_on_c, 9, 82, 0
2, 25024, Note_on_c, 9, 42, 0
2, 25024, Note_on_c, 9, 54, 0
2, 25032, Note_on_c, 4, 55, 0
2, 25042, Note_on_c, 0, 62, 0
2, 25042, Note_on_c, 0, 74, 0
2, 25042, Note_on_c, 0, 67, 0
2, 25047, Note_on_c, 0, 62, 72
2, 25047, Note_on_c, 0, 67, 79
2, 25047, Note_on_c, 0, 74, 79
2, 25052, Note_on_c, 1, 31, 0
2, 25052, Note_on_c, 9, 54, 72
2, 25052, Note_on_c, 9, 82, 75
2, 25053, Note_on_c, 9, 82, 0
2, 25053, Note_on_c, 9, 54, 0
2, 25072, Note_on_c, 0, 71, 0
2, 25077, Note_on_c, 0, 74, 0
2, 25077, Note_on_c, 0, 62, 0
2, 25077, Note_on_c, 1, 31, 106
2, 25078, Note_on_c, 0, 62, 82
2, 25078, Note_on_c, 0, 71, 96
2, 25078, Note_on_c, 0, 74, 96
2, 25078, Note_on_c, 4, 62, 76
2, 25082, Note_on_c, 9, 38, 114
2, 25082, Note_on_c, 9, 42, 123
2, 25082, Note_on_c, 9, 123, 99
2, 25082, Note_on_c, 9, 54, 85
2, 25083, Note_on_c, 9, 54, 0
2, 25083, Note_on_c, 9, 123, 0
2, 25083, Note_on_c, 9, 38, 0
2, 25083, Note_on_c, 9, 42, 0
2, 25107, Note_on_c, 4, 69, 90
2, 25112, Note_on_c, 9, 54, 69
2, 25113, Note_on_c, 9, 54, 0
2, 25127, Note_on_c, 4, 62, 0
2, 25132, Note_on_c, 0, 74, 0
2, 25137, Note_on_c, 0, 62, 0
2, 25137, Note_on_c, 0, 71, 0
2, 25137, Note_on_c, 0, 67, 0
2, 25142, Note_on_c, 9, 53, 82
2, 25142, Note_on_c, 9, 42, 51
2, 25142, Note_on_c, 9, 54, 58
2, 25142, Note_on_c, 9, 82, 58
2, 25143, Note_on_c, 9, 82, 0
2, 25143, Note_on_c, 9, 54, 0
2, 25143, Note_on_c, 9, 53, 0
2, 25143, Note_on_c, 9, 42, 0
2, 25143, Note_on_c, 1, 31, 0
2, 25157, Note_on_c, 4, 69, 0
2, 25162, Note_on_c, 4, 67, 0
2, 25167, Note_on_c, 1, 31, 110
2, 25167, Note_on_c, 0, 62, 76
2, 25167, Note_on_c, 0, 67, 79
2, 25168, Note_on_c, 0, 71, 74
2, 25168, Note_on_c, 0, 74, 89
2, 25168, Note_on_c, 4, 55, 90
2, 25172, Note_on_c, 9, 36, 114
2, 25172, Note_on_c, 9, 54, 53
2, 25172, Note_on_c, 9, 82, 56
2, 25173, Note_on_c, 9, 82, 0
2, 25173, Note_on_c, 9, 36, 0
2, 25173, Note_on_c, 9, 54, 0
2, 25187, Note_on_c, 0, 67, 0
2, 25192, Note_on_c, 0, 71, 0
2, 25192, Note_on_c, 0, 62, 0
2, 25197, Note_on_c, 1, 31, 0
2, 25197, Note_on_c, 0, 74, 0
2, 25197, Note_on_c, 4, 67, 76
2, 25202, Note_on_c, 9, 42, 123
2, 25202, Note_on_c, 9, 54, 75
2, 25203, Note_on_c, 9, 54, 0
2, 25203, Note_on_c, 9, 42, 0
2, 25227, Note_on_c, 1, 31, 79
2, 25227, Note_on_c, 0, 62, 62
2, 25227, Note_on_c, 0, 67, 59
2, 25227, Note_on_c, 0, 71, 64
2, 25228, Note_on_c, 0, 74, 82
2, 25228, Note_on_c, 4, 62, 51
2, 25232, Note_on_c, 9, 36, 45
2, 25232, Note_on_c, 9, 54, 58
2, 25233, Note_on_c, 9, 54, 0
2, 25233, Note_on_c, 9, 36, 0
2, 25242, Note_on_c, 1, 31, 0
2, 25257, Note_on_c, 0, 71, 0
2, 25257, Note_on_c, 0, 67, 0
2, 25257, Note_on_c, 0, 62, 0
2, 25257, Note_on_c, 1, 31, 110
2, 25258, Note_on_c, 0, 62, 74
2, 25258, Note_on_c, 0, 67, 76
2, 25258, Note_on_c, 0, 71, 76
2, 25262, Note_on_c, 9, 36, 123
2, 25262, Note_on_c, 9, 53, 86
2, 25262, Note_on_c, 9, 42, 49
2, 25262, Note_on_c, 9, 54, 51
2, 25263, Note_on_c, 9, 53, 0
2, 25263, Note_on_c, 9, 36, 0
2, 25263, Note_on_c, 9, 82, 63
2, 25264, Note_on_c, 9, 82, 0
2, 25264, Note_on_c, 9, 42, 0
2, 25264, Note_on_c, 9, 54, 0
2, 25282, Note_on_c, 0, 62, 0
2, 25282, Note_on_c, 0, 67, 0
2, 25287, Note_on_c, 0, 74, 0
2, 25287, Note_on_c, 0, 62, 79
2, 25287, Note_on_c, 0, 67, 82
2, 25288, Note_on_c, 0, 74, 79
2, 25288, Note_on_c, 4, 69, 82
2, 25292, Note_on_c, 1, 31, 0
2, 25292, Note_on_c, 9, 54, 56
2, 25292, Note_on_c, 9, 82, 51
2, 25293, Note_on_c, 9, 82, 0
2, 25293, Note_on_c, 9, 54, 0
2, 25297, Note_on_c, 4, 62, 0
2, 25312, Note_on_c, 0, 71, 0
2, 25317, Note_on_c, 0, 74, 0
2, 25317, Note_on_c, 0, 62, 0
2, 25317, Note_on_c, 0, 67, 0
2, 25317, Note_on_c, 1, 31, 110
2, 25318, Note_on_c, 0, 62, 91
2, 25318, Note_on_c, 0, 67, 91
2, 25318, Note_on_c, 0, 71, 86
2, 25318, Note_on_c, 0, 74, 82
2, 25322, Note_on_c, 9, 38, 114
2, 25322, Note_on_c, 9, 42, 123
2, 25322, Note_on_c, 9, 123, 91
2, 25322, Note_on_c, 9, 54, 85
2, 25323, Note_on_c, 9, 54, 0
2, 25323, Note_on_c, 9, 38, 0
2, 25323, Note_on_c, 9, 123, 0
2, 25323, Note_on_c, 9, 42, 0
2, 25347, Note_on_c, 4, 62, 64
2, 25352, Note_on_c, 4, 67, 0
2, 25352, Note_on_c, 9, 54, 28
2, 25353, Note_on_c, 9, 54, 0
2, 25362, Note_on_c, 1, 31, 0
2, 25372, Note_on_c, 0, 67, 0
2, 25372, Note_on_c, 0, 74, 0
2, 25372, Note_on_c, 0, 71, 0
2, 25377, Note_on_c, 0, 62, 0
2, 25377, Note_on_c, 1, 31, 79
2, 25377, Note_on_c, 4, 67, 79
2, 25382, Note_on_c, 9, 53, 82
2, 25382, Note_on_c, 9, 42, 41
2, 25382, Note_on_c, 9, 54, 51
2, 25382, Note_on_c, 9, 82, 58
2, 25383, Note_on_c, 9, 82, 0
2, 25383, Note_on_c, 9, 42, 0
2, 25383, Note_on_c, 9, 53, 0
2, 25383, Note_on_c, 9, 54, 0
2, 25387, Note_on_c, 4, 62, 0
2, 25392, Note_on_c, 1, 31, 0
2, 25402, Note_on_c, 4, 55, 0
2, 25407, Note_on_c, 1, 31, 86
2, 25407, Note_on_c, 4, 62, 67
2, 25412, Note_on_c, 9, 25, 72
2, 25412, Note_on_c, 9, 54, 49
2, 25412, Note_on_c, 9, 82, 58
2, 25413, Note_on_c, 9, 82, 0
2, 25413, Note_on_c, 9, 54, 0
2, 25413, Note_on_c, 9, 25, 0
2, 25427, Note_on_c, 1, 31, 0
2, 25427, Note_on_c, 4, 67, 0
2, 25432, Note_on_c, 4, 69, 0
2, 25432, Note_on_c, 4, 62, 0
2, 25437, Note_on_c, 1, 31, 110
2, 25437, Note_on_c, 0, 62, 72
2, 25437, Note_on_c, 0, 67, 69
2, 25437, Note_on_c, 0, 71, 72
2, 25438, Note_on_c, 0, 74, 72
2, 25438, Note_on_c, 4, 55, 90
2, 25442, Note_on_c, 9, 36, 110
2, 25442, Note_on_c, 9, 42, 123
2, 25442, Note_on_c, 9, 54, 91
2, 25443, Note_on_c, 9, 54, 0
2, 25443, Note_on_c, 9, 36, 0
2, 25443, Note_on_c, 9, 42, 0
2, 25462, Note_on_c, 0, 74, 0
2, 25462, Note_on_c, 0, 67, 0
2, 25462, Note_on_c, 0, 62, 0
2, 25467, Note_on_c, 1, 31, 0
2, 25467, Note_on_c, 0, 62, 69
2, 25467, Note_on_c, 0, 67, 79
2, 25467, Note_on_c, 0, 74, 79
2, 25472, Note_on_c, 9, 54, 49
2, 25473, Note_on_c, 9, 54, 0
2, 25492, Note_on_c, 0, 71, 0
2, 25497, Note_on_c, 0, 74, 0
2, 25497, Note_on_c, 0, 67, 0
2, 25497, Note_on_c, 1, 31, 106
2, 25497, Note_on_c, 0, 67, 82
2, 25498, Note_on_c, 0, 71, 76
2, 25498, Note_on_c, 0, 74, 79
2, 25498, Note_on_c, 4, 71, 90
2, 25502, Note_on_c, 9, 36, 114
2, 25502, Note_on_c, 9, 53, 79
2, 25502, Note_on_c, 9, 42, 61
2, 25502, Note_on_c, 9, 54, 53
2, 25503, Note_on_c, 9, 54, 0
2, 25503, Note_on_c, 9, 42, 0
2, 25503, Note_on_c, 9, 36, 0
2, 25503, Note_on_c, 9, 53, 0
2, 25503, Note_on_c, 9, 82, 56
2, 25503, Note_on_c, 9, 82, 0
2, 25522, Note_on_c, 0, 74, 0
2, 25522, Note_on_c, 0, 67, 0
2, 25522, Note_on_c, 0, 62, 0
2, 25527, Note_on_c, 1, 31, 0
2, 25527, Note_on_c, 0, 62, 72
2, 25527, Note_on_c, 0, 67, 79
2, 25528, Note_on_c, 0, 74, 79
2, 25532, Note_on_c, 9, 54, 53
2, 25532, Note_on_c, 9, 82, 58
2, 25533, Note_on_c, 9, 82, 0
2, 25533, Note_on_c, 9, 54, 0
2, 25552, Note_on_c, 0, 71, 0
2, 25557, Note_on_c, 0, 74, 0
2, 25557, Note_on_c, 0, 62, 0
2, 25557, Note_on_c, 1, 31, 110
2, 25558, Note_on_c, 0, 62, 82
2, 25558, Note_on_c, 0, 71, 96
2, 25558, Note_on_c, 0, 74, 96
2, 25558, Note_on_c, 4, 67, 76
2, 25562, Note_on_c, 9, 38, 114
2, 25562, Note_on_c, 9, 42, 127
2, 25562, Note_on_c, 9, 123, 99
2, 25562, Note_on_c, 9, 54, 106
2, 25563, Note_on_c, 9, 54, 0
2, 25563, Note_on_c, 9, 38, 0
2, 25563, Note_on_c, 9, 123, 0
2, 25563, Note_on_c, 9, 42, 0
2, 25587, Note_on_c, 4, 62, 90
2, 25592, Note_on_c, 9, 54, 58
2, 25593, Note_on_c, 9, 54, 0
2, 25617, Note_on_c, 0, 67, 0
2, 25617, Note_on_c, 0, 62, 0
2, 25617, Note_on_c, 0, 71, 0
2, 25617, Note_on_c, 0, 74, 0
2, 25622, Note_on_c, 9, 53, 76
2, 25622, Note_on_c, 9, 42, 56
2, 25622, Note_on_c, 9, 54, 51
2, 25622, Note_on_c, 9, 82, 53
2, 25623, Note_on_c, 9, 82, 0
2, 25623, Note_on_c, 9, 42, 0
2, 25623, Note_on_c, 9, 53, 0
2, 25623, Note_on_c, 9, 54, 0
2, 25627, Note_on_c, 1, 31, 0
2, 25627, Note_on_c, 4, 55, 0
2, 25637, Note_on_c, 4, 62, 0
2, 25647, Note_on_c, 4, 71, 0
2, 25647, Note_on_c, 1, 31, 106
2, 25647, Note_on_c, 0, 62, 76
2, 25647, Note_on_c, 0, 67, 79
2, 25648, Note_on_c, 0, 71, 74
2, 25648, Note_on_c, 0, 74, 89
2, 25648, Note_on_c, 4, 55, 86
2, 25652, Note_on_c, 9, 36, 114
2, 25652, Note_on_c, 9, 54, 49
2, 25652, Note_on_c, 9, 82, 56
2, 25653, Note_on_c, 9, 82, 0
2, 25653, Note_on_c, 4, 67, 0
2, 25653, Note_on_c, 9, 54, 0
2, 25653, Note_on_c, 9, 36, 0
2, 25667, Note_on_c, 0, 67, 0
2, 25667, Note_on_c, 0, 71, 0
2, 25672, Note_on_c, 0, 62, 0
2, 25677, Note_on_c, 0, 74, 0
2, 25677, Note_on_c, 4, 71, 82
2, 25682, Note_on_c, 1, 31, 0
2, 25682, Note_on_c, 9, 42, 127
2, 25682, Note_on_c, 9, 54, 99
2, 25683, Note_on_c, 9, 54, 0
2, 25683, Note_on_c, 9, 42, 0
2, 25707, Note_on_c, 1, 31, 102
2, 25707, Note_on_c, 0, 62, 62
2, 25708, Note_on_c, 0, 67, 59
2, 25708, Note_on_c, 0, 71, 64
2, 25708, Note_on_c, 0, 74, 82
2, 25712, Note_on_c, 9, 36, 35
2, 25712, Note_on_c, 9, 54, 45
2, 25713, Note_on_c, 9, 54, 0
2, 25713, Note_on_c, 9, 36, 0
2, 25727, Note_on_c, 1, 31, 0
2, 25732, Note_on_c, 0, 67, 0
2, 25732, Note_on_c, 0, 71, 0
2, 25732, Note_on_c, 0, 62, 0
2, 25737, Note_on_c, 1, 31, 106
2, 25737, Note_on_c, 0, 62, 74
2, 25738, Note_on_c, 0, 67, 76
2, 25738, Note_on_c, 0, 71, 76
2, 25738, Note_on_c, 4, 67, 74
2, 25742, Note_on_c, 9, 36, 127
2, 25742, Note_on_c, 9, 53, 82
2, 25742, Note_on_c, 9, 42, 51
2, 25742, Note_on_c, 9, 54, 45
2, 25743, Note_on_c, 9, 54, 0
2, 25743, Note_on_c, 9, 36, 0
2, 25743, Note_on_c, 9, 42, 0
2, 25743, Note_on_c, 9, 53, 0
2, 25743, Note_on_c, 9, 82, 56
2, 25743, Note_on_c, 9, 82, 0
2, 25767, Note_on_c, 0, 74, 0
2, 25767, Note_on_c, 0, 62, 0
2, 25767, Note_on_c, 0, 67, 0
2, 25767, Note_on_c, 0, 62, 79
2, 25768, Note_on_c, 0, 67, 82
2, 25768, Note_on_c, 0, 74, 79
2, 25768, Note_on_c, 4, 62, 82
2, 25772, Note_on_c, 1, 31, 0
2, 25772, Note_on_c, 9, 54, 53
2, 25772, Note_on_c, 9, 82, 58
2, 25773, Note_on_c, 9, 82, 0
2, 25773, Note_on_c, 9, 54, 0
2, 25792, Note_on_c, 0, 67, 0
2, 25792, Note_on_c, 0, 74, 0
2, 25797, Note_on_c, 0, 71, 0
2, 25797, Note_on_c, 0, 62, 0
2, 25797, Note_on_c, 1, 31, 114
2, 25798, Note_on_c, 0, 62, 91
2, 25798, Note_on_c, 0, 67, 91
2, 25798, Note_on_c, 0, 71, 86
2, 25798, Note_on_c, 0, 74, 82
2, 25802, Note_on_c, 9, 38, 114
2, 25802, Note_on_c, 9, 42, 123
2, 25802, Note_on_c, 9, 123, 85
2, 25802, Note_on_c, 9, 54, 99
2, 25803, Note_on_c, 9, 54, 0
2, 25803, Note_on_c, 9, 123, 0
2, 25803, Note_on_c, 9, 42, 0
2, 25803, Note_on_c, 9, 38, 0
2, 25807, Note_on_c, 4, 67, 0
2, 25827, Note_on_c, 4, 67, 67
2, 25832, Note_on_c, 4, 71, 0
2, 25832, Note_on_c, 9, 54, 56
2, 25833, Note_on_c, 9, 54, 0
2, 25837, Note_on_c, 1, 31, 0
2, 25842, Note_on_c, 4, 62, 0
2, 25852, Note_on_c, 0, 67, 0
2, 25852, Note_on_c, 0, 71, 0
2, 25852, Note_on_c, 0, 74, 0
2, 25857, Note_on_c, 0, 62, 0
2, 25857, Note_on_c, 1, 31, 79
2, 25857, Note_on_c, 4, 71, 86
2, 25862, Note_on_c, 4, 67, 0
2, 25862, Note_on_c, 9, 53, 86
2, 25862, Note_on_c, 9, 42, 75
2, 25863, Note_on_c, 9, 42, 0
2, 25863, Note_on_c, 9, 53, 0
2, 25863, Note_on_c, 9, 54, 38
2, 25863, Note_on_c, 9, 54, 0
2, 25863, Note_on_c, 9, 82, 49
2, 25863, Note_on_c, 9, 82, 0
2, 25872, Note_on_c, 1, 31, 0
2, 25887, Note_on_c, 1, 31, 106
2, 25887, Note_on_c, 4, 67, 76
2, 25892, Note_on_c, 9, 54, 45
2, 25892, Note_on_c, 9, 82, 56
2, 25893, Note_on_c, 9, 82, 0
2, 25893, Note_on_c, 9, 54, 0
2, 25897, Note_on_c, 4, 55, 0
2, 25912, Note_on_c, 4, 71, 0
2, 25917, Note_on_c, 1, 31, 0
2, 25917, Note_on_c, 6, 62, 0
2, 25917, Note_on_c, 4, 67, 0
2, 25918, Note_on_c, 6, 67, 0
2, 25918, Note_on_c, 6, 71, 0
2, 25918, Note_on_c, 1, 31, 106
2, 25918, Note_on_c, 0, 62, 72
2, 25918, Note_on_c, 0, 67, 69
2, 25918, Note_on_c, 0, 71, 72
2, 25919, Note_on_c, 0, 74, 72
2, 25919, Note_on_c, 4, 55, 86
2, 25919, Note_on_c, 6, 62, 59
2, 25919, Note_on_c, 6, 67, 55
2, 25919, Note_on_c, 6, 71, 51
2, 25922, Note_on_c, 9, 36, 127
2, 25922, Note_on_c, 9, 42, 127
2, 25922, Note_on_c, 9, 54, 85
2, 25923, Note_on_c, 9, 54, 0
2, 25923, Note_on_c, 9, 36, 0
2, 25923, Note_on_c, 9, 42, 0
2, 25932, Note_on_c, 0, 74, 0
2, 25932, Note_on_c, 0, 67, 0
2, 25937, Note_on_c, 0, 62, 0
2, 25947, Note_on_c, 0, 62, 69
2, 25947, Note_on_c, 0, 67, 79
2, 25947, Note_on_c, 0, 74, 79
2, 25952, Note_on_c, 1, 31, 0
2, 25952, Note_on_c, 9, 54, 75
2, 25953, Note_on_c, 9, 54, 0
2, 25967, Note_on_c, 0, 71, 0
2, 25977, Note_on_c, 0, 74, 0
2, 25977, Note_on_c, 0, 67, 0
2, 25977, Note_on_c, 1, 31, 110
2, 25977, Note_on_c, 0, 67, 82
2, 25978, Note_on_c, 0, 71, 76
2, 25978, Note_on_c, 0, 74, 79
2, 25978, Note_on_c, 4, 67, 86
2, 25982, Note_on_c, 9, 36, 86
2, 25982, Note_on_c, 9, 53, 86
2, 25982, Note_on_c, 9, 54, 72
2, 25982, Note_on_c, 9, 42, 66
2, 25982, Note_on_c, 9, 82, 53
2, 25983, Note_on_c, 9, 42, 0
2, 25983, Note_on_c, 9, 54, 0
2, 25983, Note_on_c, 9, 36, 0
2, 25983, Note_on_c, 9, 53, 0
2, 25984, Note_on_c, 9, 82, 0
2, 25992, Note_on_c, 4, 55, 0
2, 26002, Note_on_c, 0, 62, 0
2, 26002, Note_on_c, 0, 74, 0
2, 26002, Note_on_c, 0, 67, 0
2, 26007, Note_on_c, 0, 62, 72
2, 26007, Note_on_c, 0, 67, 79
2, 26007, Note_on_c, 0, 74, 79
2, 26012, Note_on_c, 1, 31, 0
2, 26012, Note_on_c, 9, 54, 72
2, 26012, Note_on_c, 9, 82, 75
2, 26013, Note_on_c, 9, 82, 0
2, 26013, Note_on_c, 9, 54, 0
2, 26032, Note_on_c, 0, 71, 0
2, 26037, Note_on_c, 0, 74, 0
2, 26037, Note_on_c, 0, 62, 0
2, 26037, Note_on_c, 1, 31, 106
2, 26038, Note_on_c, 0, 62, 82
2, 26038, Note_on_c, 0, 71, 96
2, 26038, Note_on_c, 0, 74, 96
2, 26038, Note_on_c, 4, 62, 76
2, 26042, Note_on_c, 9, 38, 114
2, 26042, Note_on_c, 9, 42, 123
2, 26042, Note_on_c, 9, 123, 99
2, 26042, Note_on_c, 9, 54, 85
2, 26043, Note_on_c, 9, 54, 0
2, 26043, Note_on_c, 9, 123, 0
2, 26043, Note_on_c, 9, 38, 0
2, 26043, Note_on_c, 9, 42, 0
2, 26067, Note_on_c, 4, 69, 90
2, 26072, Note_on_c, 9, 54, 69
2, 26073, Note_on_c, 9, 54, 0
2, 26087, Note_on_c, 4, 62, 0
2, 26092, Note_on_c, 0, 74, 0
2, 26097, Note_on_c, 0, 62, 0
2, 26097, Note_on_c, 0, 71, 0
2, 26097, Note_on_c, 0, 67, 0
2, 26102, Note_on_c, 9, 53, 82
2, 26102, Note_on_c, 9, 42, 51
2, 26102, Note_on_c, 9, 54, 58
2, 26102, Note_on_c, 9, 82, 58
2, 26103, Note_on_c, 9, 82, 0
2, 26103, Note_on_c, 9, 54, 0
2, 26103, Note_on_c, 9, 53, 0
2, 26103, Note_on_c, 9, 42, 0
2, 26103, Note_on_c, 1, 31, 0
2, 26117, Note_on_c, 4, 69, 0
2, 26122, Note_on_c, 4, 67, 0
2, 26127, Note_on_c, 1, 31, 110
2, 26127, Note_on_c, 0, 62, 76
2, 26127, Note_on_c, 0, 67, 79
2, 26128, Note_on_c, 0, 71, 74
2, 26128, Note_on_c, 0, 74, 89
2, 26128, Note_on_c, 4, 55, 90
2, 26132, Note_on_c, 9, 36, 114
2, 26132, Note_on_c, 9, 54, 53
2, 26132, Note_on_c, 9, 82, 56
2, 26133, Note_on_c, 9, 82, 0
2, 26133, Note_on_c, 9, 36, 0
2, 26133, Note_on_c, 9, 54, 0
2, 26147, Note_on_c, 0, 67, 0
2, 26152, Note_on_c, 0, 71, 0
2, 26152, Note_on_c, 0, 62, 0
2, 26157, Note_on_c, 1, 31, 0
2, 26157, Note_on_c, 0, 74, 0
2, 26157, Note_on_c, 4, 67, 76
2, 26162, Note_on_c, 9, 42, 123
2, 26162, Note_on_c, 9, 54, 75
2, 26163, Note_on_c, 9, 54, 0
2, 26163, Note_on_c, 9, 42, 0
2, 26187, Note_on_c, 1, 31, 79
2, 26187, Note_on_c, 0, 62, 62
2, 26187, Note_on_c, 0, 67, 59
2, 26188, Note_on_c, 0, 71, 64
2, 26188, Note_on_c, 0, 74, 82
2, 26188, Note_on_c, 4, 62, 51
2, 26192, Note_on_c, 9, 36, 45
2, 26192, Note_on_c, 9, 54, 58
2, 26193, Note_on_c, 9, 54, 0
2, 26193, Note_on_c, 9, 36, 0
2, 26202, Note_on_c, 1, 31, 0
2, 26217, Note_on_c, 0, 71, 0
2, 26217, Note_on_c, 0, 67, 0
2, 26217, Note_on_c, 0, 62, 0
2, 26217, Note_on_c, 1, 31, 110
2, 26218, Note_on_c, 0, 62, 74
2, 26218, Note_on_c, 0, 67, 76
2, 26218, Note_on_c, 0, 71, 76
2, 26222, Note_on_c, 9, 36, 123
2, 26222, Note_on_c, 9, 53, 86
2, 26222, Note_on_c, 9, 42, 49
2, 26222, Note_on_c, 9, 54, 51
2, 26222, Note_on_c, 9, 82, 63
2, 26223, Note_on_c, 9, 82, 0
2, 26223, Note_on_c, 9, 54, 0
2, 26223, Note_on_c, 9, 36, 0
2, 26223, Note_on_c, 9, 42, 0
2, 26223, Note_on_c, 9, 53, 0
2, 26242, Note_on_c, 0, 62, 0
2, 26242, Note_on_c, 0, 67, 0
2, 26247, Note_on_c, 0, 74, 0
2, 26247, Note_on_c, 0, 62, 79
2, 26247, Note_on_c, 0, 67, 82
2, 26247, Note_on_c, 0, 74, 79
2, 26248, Note_on_c, 4, 69, 82
2, 26252, Note_on_c, 1, 31, 0
2, 26252, Note_on_c, 9, 54, 56
2, 26252, Note_on_c, 9, 82, 51
2, 26253, Note_on_c, 9, 82, 0
2, 26253, Note_on_c, 9, 54, 0
2, 26257, Note_on_c, 4, 62, 0
2, 26272, Note_on_c, 0, 71, 0
2, 26277, Note_on_c, 0, 74, 0
2, 26277, Note_on_c, 0, 62, 0
2, 26277, Note_on_c, 0, 67, 0
2, 26277, Note_on_c, 1, 31, 110
2, 26278, Note_on_c, 0, 62, 91
2, 26278, Note_on_c, 0, 67, 91
2, 26278, Note_on_c, 0, 71, 86
2, 26278, Note_on_c, 0, 74, 82
2, 26282, Note_on_c, 9, 38, 114
2, 26282, Note_on_c, 9, 42, 123
2, 26282, Note_on_c, 9, 123, 91
2, 26282, Note_on_c, 9, 54, 85
2, 26283, Note_on_c, 9, 54, 0
2, 26283, Note_on_c, 9, 38, 0
2, 26283, Note_on_c, 9, 123, 0
2, 26283, Note_on_c, 9, 42, 0
2, 26307, Note_on_c, 4, 62, 64
2, 26312, Note_on_c, 4, 67, 0
2, 26312, Note_on_c, 9, 54, 28
2, 26313, Note_on_c, 9, 54, 0
2, 26322, Note_on_c, 1, 31, 0
2, 26332, Note_on_c, 0, 67, 0
2, 26332, Note_on_c, 0, 74, 0
2, 26332, Note_on_c, 0, 71, 0
2, 26337, Note_on_c, 0, 62, 0
2, 26337, Note_on_c, 1, 31, 79
2, 26337, Note_on_c, 4, 67, 79
2, 26342, Note_on_c, 9, 53, 82
2, 26342, Note_on_c, 9, 42, 41
2, 26342, Note_on_c, 9, 54, 51
2, 26342, Note_on_c, 9, 82, 58
2, 26343, Note_on_c, 9, 82, 0
2, 26343, Note_on_c, 9, 42, 0
2, 26343, Note_on_c, 9, 53, 0
2, 26343, Note_on_c, 9, 54, 0
2, 26347, Note_on_c, 4, 62, 0
2, 26352, Note_on_c, 1, 31, 0
2, 26362, Note_on_c, 4, 55, 0
2, 26367, Note_on_c, 1, 31, 86
2, 26367, Note_on_c, 4, 62, 67
2, 26372, Note_on_c, 9, 25, 72
2, 26372, Note_on_c, 9, 54, 49
2, 26372, Note_on_c, 9, 82, 58
2, 26373, Note_on_c, 9, 82, 0
2, 26373, Note_on_c, 9, 54, 0
2, 26373, Note_on_c, 9, 25, 0
2, 26387, Note_on_c, 1, 31, 0
2, 26387, Note_on_c, 4, 67, 0
2, 26392, Note_on_c, 4, 69, 0
2, 26392, Note_on_c, 4, 62, 0
2, 26397, Note_on_c, 1, 31, 110
2, 26397, Note_on_c, 0, 62, 72
2, 26397, Note_on_c, 0, 67, 69
2, 26398, Note_on_c, 0, 71, 72
2, 26398, Note_on_c, 0, 74, 72
2, 26398, Note_on_c, 4, 55, 90
2, 26402, Note_on_c, 9, 36, 110
2, 26402, Note_on_c, 9, 42, 123
2, 26402, Note_on_c, 9, 54, 91
2, 26403, Note_on_c, 9, 54, 0
2, 26403, Note_on_c, 9, 36, 0
2, 26403, Note_on_c, 9, 42, 0
2, 26422, Note_on_c, 0, 74, 0
2, 26422, Note_on_c, 0, 67, 0
2, 26422, Note_on_c, 0, 62, 0
2, 26427, Note_on_c, 1, 31, 0
2, 26427, Note_on_c, 0, 62, 69
2, 26427, Note_on_c, 0, 67, 79
2, 26427, Note_on_c, 0, 74, 79
2, 26432, Note_on_c, 9, 54, 49
2, 26433, Note_on_c, 9, 54, 0
2, 26452, Note_on_c, 0, 71, 0
2, 26457, Note_on_c, 0, 74, 0
2, 26457, Note_on_c, 0, 67, 0
2, 26457, Note_on_c, 1, 31, 106
2, 26457, Note_on_c, 0, 67, 82
2, 26458, Note_on_c, 0, 71, 76
2, 26458, Note_on_c, 0, 74, 79
2, 26458, Note_on_c, 4, 71, 90
2, 26462, Note_on_c, 9, 36, 114
2, 26462, Note_on_c, 9, 53, 79
2, 26462, Note_on_c, 9, 42, 61
2, 26462, Note_on_c, 9, 54, 53
2, 26462, Note_on_c, 9, 82, 56
2, 26463, Note_on_c, 9, 82, 0
2, 26463, Note_on_c, 9, 53, 0
2, 26463, Note_on_c, 9, 54, 0
2, 26463, Note_on_c, 9, 36, 0
2, 26463, Note_on_c, 9, 42, 0
2, 26482, Note_on_c, 0, 74, 0
2, 26482, Note_on_c, 0, 67, 0
2, 26482, Note_on_c, 0, 62, 0
2, 26487, Note_on_c, 1, 31, 0
2, 26487, Note_on_c, 0, 62, 72
2, 26487, Note_on_c, 0, 67, 79
2, 26487, Note_on_c, 0, 74, 79
2, 26492, Note_on_c, 9, 54, 53
2, 26492, Note_on_c, 9, 82, 58
2, 26493, Note_on_c, 9, 82, 0
2, 26493, Note_on_c, 9, 54, 0
2, 26512, Note_on_c, 0, 71, 0
2, 26517, Note_on_c, 0, 74, 0
2, 26517, Note_on_c, 0, 62, 0
2, 26517, Note_on_c, 1, 31, 110
2, 26517, Note_on_c, 0, 62, 82
2, 26518, Note_on_c, 0, 71, 96
2, 26518, Note_on_c, 0, 74, 96
2, 26518, Note_on_c, 4, 67, 76
2, 26522, Note_on_c, 9, 38, 114
2, 26522, Note_on_c, 9, 42, 127
2, 26522, Note_on_c, 9, 123, 99
2, 26522, Note_on_c, 9, 54, 106
2, 26523, Note_on_c, 9, 54, 0
2, 26523, Note_on_c, 9, 38, 0
2, 26523, Note_on_c, 9, 123, 0
2, 26523, Note_on_c, 9, 42, 0
2, 26547, Note_on_c, 4, 62, 90
2, 26552, Note_on_c, 9, 54, 58
2, 26553, Note_on_c, 9, 54, 0
2, 26577, Note_on_c, 0, 67, 0
2, 26577, Note_on_c, 0, 62, 0
2, 26577, Note_on_c, 0, 71, 0
2, 26577, Note_on_c, 0, 74, 0
2, 26582, Note_on_c, 9, 53, 76
2, 26582, Note_on_c, 9, 42, 56
2, 26582, Note_on_c, 9, 54, 51
2, 26582, Note_on_c, 9, 82, 53
2, 26583, Note_on_c, 9, 82, 0
2, 26583, Note_on_c, 9, 42, 0
2, 26583, Note_on_c, 9, 53, 0
2, 26583, Note_on_c, 9, 54, 0
2, 26587, Note_on_c, 1, 31, 0
2, 26587, Note_on_c, 4, 55, 0
2, 26597, Note_on_c, 4, 62, 0
2, 26607, Note_on_c, 4, 71, 0
2, 26607, Note_on_c, 1, 31, 106
2, 26607, Note_on_c, 0, 62, 76
2, 26607, Note_on_c, 0, 67, 79
2, 26608, Note_on_c, 0, 71, 74
2, 26608, Note_on_c, 0, 74, 89
2, 26608, Note_on_c, 4, 55, 86
2, 26612, Note_on_c, 4, 67, 0
2, 26612, Note_on_c, 9, 36, 114
2, 26612, Note_on_c, 9, 54, 49
2, 26612, Note_on_c, 9, 82, 56
2, 26613, Note_on_c, 9, 82, 0
2, 26613, Note_on_c, 9, 36, 0
2, 26613, Note_on_c, 9, 54, 0
2, 26627, Note_on_c, 0, 71, 0
2, 26627, Note_on_c, 0, 67, 0
2, 26632, Note_on_c, 0, 62, 0
2, 26637, Note_on_c, 0, 74, 0
2, 26637, Note_on_c, 4, 71, 82
2, 26642, Note_on_c, 1, 31, 0
2, 26642, Note_on_c, 9, 42, 127
2, 26642, Note_on_c, 9, 54, 99
2, 26643, Note_on_c, 9, 54, 0
2, 26643, Note_on_c, 9, 42, 0
2, 26667, Note_on_c, 1, 31, 102
2, 26667, Note_on_c, 0, 62, 62
2, 26667, Note_on_c, 0, 67, 59
2, 26667, Note_on_c, 0, 71, 64
2, 26668, Note_on_c, 0, 74, 82
2, 26672, Note_on_c, 9, 36, 35
2, 26672, Note_on_c, 9, 54, 45
2, 26673, Note_on_c, 9, 54, 0
2, 26673, Note_on_c, 9, 36, 0
2, 26687, Note_on_c, 1, 31, 0
2, 26692, Note_on_c, 0, 67, 0
2, 26692, Note_on_c, 0, 71, 0
2, 26692, Note_on_c, 0, 62, 0
2, 26697, Note_on_c, 1, 31, 106
2, 26697, Note_on_c, 0, 62, 74
2, 26697, Note_on_c, 0, 67, 76
2, 26697, Note_on_c, 0, 71, 76
2, 26698, Note_on_c, 4, 67, 74
2, 26702, Note_on_c, 9, 36, 127
2, 26702, Note_on_c, 9, 53, 82
2, 26702, Note_on_c, 9, 42, 51
2, 26702, Note_on_c, 9, 54, 45
2, 26703, Note_on_c, 9, 54, 0
2, 26703, Note_on_c, 9, 36, 0
2, 26703, Note_on_c, 9, 42, 0
2, 26703, Note_on_c, 9, 53, 0
2, 26703, Note_on_c, 9, 82, 56
2, 26703, Note_on_c, 9, 82, 0
2, 26727, Note_on_c, 0, 74, 0
2, 26727, Note_on_c, 0, 62, 0
2, 26727, Note_on_c, 0, 67, 0
2, 26727, Note_on_c, 0, 62, 79
2, 26727, Note_on_c, 0, 67, 82
2, 26727, Note_on_c, 0, 74, 79
2, 26728, Note_on_c, 4, 62, 82
2, 26732, Note_on_c, 1, 31, 0
2, 26732, Note_on_c, 9, 54, 53
2, 26732, Note_on_c, 9, 82, 58
2, 26733, Note_on_c, 9, 82, 0
2, 26733, Note_on_c, 9, 54, 0
2, 26752, Note_on_c, 0, 67, 0
2, 26752, Note_on_c, 0, 74, 0
2, 26757, Note_on_c, 0, 71, 0
2, 26757, Note_on_c, 0, 62, 0
2, 26757, Note_on_c, 1, 31, 114
2, 26758, Note_on_c, 0, 62, 91
2, 26758, Note_on_c, 0, 67, 91
2, 26758, Note_on_c, 0, 71, 86
2, 26758, Note_on_c, 0, 74, 82
2, 26762, Note_on_c, 9, 38, 114
2, 26762, Note_on_c, 9, 42, 123
2, 26762, Note_on_c, 9, 123, 85
2, 26762, Note_on_c, 9, 54, 99
2, 26763, Note_on_c, 9, 54, 0
2, 26763, Note_on_c, 9, 123, 0
2, 26763, Note_on_c, 9, 42, 0
2, 26763, Note_on_c, 9, 38, 0
2, 26767, Note_on_c, 4, 67, 0
2, 26787, Note_on_c, 4, 67, 67
2, 26792, Note_on_c, 4, 71, 0
2, 26792, Note_on_c, 9, 54, 56
2, 26793, Note_on_c, 9, 54, 0
2, 26797, Note_on_c, 1, 31, 0
2, 26802, Note_on_c, 4, 62, 0
2, 26812, Note_on_c, 0, 67, 0
2, 26812, Note_on_c, 0, 71, 0
2, 26812, Note_on_c, 0, 74, 0
2, 26817, Note_on_c, 0, 62, 0
2, 26817, Note_on_c, 1, 31, 79
2, 26817, Note_on_c, 4, 71, 86
2, 26822, Note_on_c, 4, 67, 0
2, 26822, Note_on_c, 9, 53, 86
2, 26822, Note_on_c, 9, 42, 75
2, 26822, Note_on_c, 9, 54, 38
2, 26823, Note_on_c, 9, 54, 0
2, 26823, Note_on_c, 9, 42, 0
2, 26823, Note_on_c, 9, 53, 0
2, 26823, Note_on_c, 9, 82, 49
2, 26823, Note_on_c, 9, 82, 0
2, 26832, Note_on_c, 1, 31, 0
2, 26847, Note_on_c, 1, 31, 106
2, 26847, Note_on_c, 4, 67, 76
2, 26852, Note_on_c, 9, 54, 45
2, 26852, Note_on_c, 9, 82, 56
2, 26853, Note_on_c, 9, 82, 0
2, 26853, Note_on_c, 9, 54, 0
2, 26857, Note_on_c, 4, 55, 0
2, 26872, Note_on_c, 4, 71, 0
2, 26877, Note_on_c, 1, 31, 0
2, 26877, Note_on_c, 6, 62, 0
2, 26877, Note_on_c, 6, 67, 0
2, 26877, Note_on_c, 4, 67, 0
2, 26878, Note_on_c, 6, 71, 0
2, 26878, Note_on_c, 1, 31, 106
2, 26878, Note_on_c, 0, 62, 72
2, 26878, Note_on_c, 0, 67, 69
2, 26878, Note_on_c, 0, 71, 72
2, 26879, Note_on_c, 0, 74, 72
2, 26879, Note_on_c, 4, 55, 86
2, 26879, Note_on_c, 6, 62, 59
2, 26879, Note_on_c, 6, 67, 55
2, 26879, Note_on_c, 6, 71, 51
2, 26882, Note_on_c, 9, 36, 127
2, 26882, Note_on_c, 9, 42, 127
2, 26882, Note_on_c, 9, 54, 85
2, 26882, Control_c, 1, 84, 31
2, 26882, Note_on_c, 1, 33, 106
2, 26883, Note_on_c, 0, 62, 0
2, 26883, Note_on_c, 1, 31, 0
2, 26883, Control_c, 0, 84, 62
2, 26883, Note_on_c, 0, 60, 72
2, 26884, Note_on_c, 0, 71, 0
2, 26884, Note_on_c, 0, 67, 0
2, 26884, Control_c, 0, 84, 67
2, 26884, Note_on_c, 0, 48, 72
2, 26884, Control_c, 0, 84, 71
2, 26884, Note_on_c, 0, 52, 72
2, 26885, Note_on_c, 0, 74, 0
2, 26885, Note_on_c, 4, 55, 0
2, 26885, Control_c, 0, 84, 74
2, 26885, Note_on_c, 0, 57, 69
2, 26885, Control_c, 4, 84, 55
2, 26885, Note_on_c, 4, 45, 86
2, 26886, Note_on_c, 6, 67, 0
2, 26886, Note_on_c, 6, 62, 0
2, 26886, Control_c, 6, 84, 62
2, 26886, Note_on_c, 6, 60, 61
2, 26886, Control_c, 6, 84, 67
2, 26886, Note_on_c, 6, 52, 57
2, 26887, Note_on_c, 6, 71, 0
2, 26887, Note_on_c, 9, 36, 0
2, 26887, Control_c, 6, 84, 71
2, 26887, Note_on_c, 6, 57, 64
2, 26888, Note_on_c, 9, 42, 0
2, 26888, Note_on_c, 9, 54, 0
2, 26897, Note_on_c, 0, 57, 0
2, 26897, Note_on_c, 0, 52, 0
2, 26897, Note_on_c, 0, 60, 0
2, 26907, Note_on_c, 0, 60, 79
2, 26907, Note_on_c, 0, 52, 69
2, 26907, Note_on_c, 0, 57, 79
2, 26912, Note_on_c, 1, 33, 0
2, 26912, Note_on_c, 9, 54, 75
2, 26913, Note_on_c, 9, 54, 0
2, 26927, Note_on_c, 0, 48, 0
2, 26932, Note_on_c, 0, 57, 0
2, 26932, Note_on_c, 0, 60, 0
2, 26937, Note_on_c, 1, 33, 110
2, 26937, Note_on_c, 0, 60, 79
2, 26937, Note_on_c, 0, 48, 76
2, 26937, Note_on_c, 0, 57, 82
2, 26938, Note_on_c, 4, 60, 90
2, 26942, Note_on_c, 9, 36, 86
2, 26942, Note_on_c, 9, 53, 86
2, 26942, Note_on_c, 9, 54, 72
2, 26942, Note_on_c, 9, 42, 66
2, 26942, Note_on_c, 9, 82, 53
2, 26943, Note_on_c, 9, 82, 0
2, 26943, Note_on_c, 9, 53, 0
2, 26943, Note_on_c, 9, 42, 0
2, 26943, Note_on_c, 9, 36, 0
2, 26943, Note_on_c, 9, 54, 0
2, 26962, Note_on_c, 0, 52, 0
2, 26967, Note_on_c, 0, 57, 0
2, 26967, Note_on_c, 0, 60, 0
2, 26967, Note_on_c, 0, 60, 79
2, 26967, Note_on_c, 0, 52, 72
2, 26968, Note_on_c, 0, 57, 79
2, 26972, Note_on_c, 1, 33, 0
2, 26972, Note_on_c, 9, 54, 72
2, 26972, Note_on_c, 9, 82, 75
2, 26973, Note_on_c, 9, 82, 0
2, 26973, Note_on_c, 9, 54, 0
2, 26992, Note_on_c, 0, 60, 0
2, 26992, Note_on_c, 0, 48, 0
2, 26992, Note_on_c, 0, 52, 0
2, 26997, Note_on_c, 1, 33, 106
2, 26997, Note_on_c, 0, 60, 96
2, 26997, Note_on_c, 0, 48, 96
2, 26998, Note_on_c, 0, 52, 82
2, 26998, Note_on_c, 4, 57, 69
2, 27002, Note_on_c, 9, 38, 114
2, 27002, Note_on_c, 9, 42, 123
2, 27002, Note_on_c, 9, 123, 99
2, 27002, Note_on_c, 9, 54, 85
2, 27003, Note_on_c, 9, 54, 0
2, 27003, Note_on_c, 9, 38, 0
2, 27003, Note_on_c, 9, 123, 0
2, 27003, Note_on_c, 9, 42, 0
2, 27027, Note_on_c, 4, 64, 86
2, 27032, Note_on_c, 9, 54, 69
2, 27033, Note_on_c, 9, 54, 0
2, 27037, Note_on_c, 4, 45, 0
2, 27052, Note_on_c, 0, 57, 0
2, 27057, Note_on_c, 0, 48, 0
2, 27057, Note_on_c, 0, 60, 0
2, 27057, Note_on_c, 0, 52, 0
2, 27062, Note_on_c, 9, 53, 82
2, 27062, Note_on_c, 9, 42, 51
2, 27062, Note_on_c, 9, 54, 58
2, 27062, Note_on_c, 9, 82, 58
2, 27063, Note_on_c, 9, 82, 0
2, 27063, Note_on_c, 9, 53, 0
2, 27063, Note_on_c, 9, 54, 0
2, 27063, Note_on_c, 1, 33, 0
2, 27063, Note_on_c, 9, 42, 0
2, 27067, Note_on_c, 4, 64, 0
2, 27082, Note_on_c, 4, 60, 0
2, 27087, Note_on_c, 4, 57, 0
2, 27087, Note_on_c, 1, 33, 110
2, 27087, Note_on_c, 0, 60, 89
2, 27087, Note_on_c, 0, 48, 74
2, 27087, Note_on_c, 0, 52, 76
2, 27088, Note_on_c, 0, 57, 79
2, 27088, Note_on_c, 4, 45, 86
2, 27092, Note_on_c, 9, 36, 114
2, 27092, Note_on_c, 9, 54, 53
2, 27092, Note_on_c, 9, 82, 56
2, 27093, Note_on_c, 9, 82, 0
2, 27093, Note_on_c, 9, 36, 0
2, 27093, Note_on_c, 9, 54, 0
2, 27107, Note_on_c, 0, 57, 0
2, 27107, Note_on_c, 0, 52, 0
2, 27107, Note_on_c, 0, 48, 0
2, 27112, Note_on_c, 0, 60, 0
2, 27117, Note_on_c, 1, 33, 0
2, 27117, Note_on_c, 4, 60, 80
2, 27122, Note_on_c, 9, 42, 123
2, 27122, Note_on_c, 9, 54, 75
2, 27123, Note_on_c, 9, 54, 0
2, 27123, Note_on_c, 9, 42, 0
2, 27147, Note_on_c, 1, 33, 79
2, 27147, Note_on_c, 0, 60, 82
2, 27147, Note_on_c, 0, 48, 64
2, 27147, Note_on_c, 0, 52, 62
2, 27147, Note_on_c, 0, 57, 59
2, 27152, Note_on_c, 9, 36, 45
2, 27152, Note_on_c, 9, 54, 58
2, 27153, Note_on_c, 9, 54, 0
2, 27153, Note_on_c, 9, 36, 0
2, 27162, Note_on_c, 1, 33, 0
2, 27172, Note_on_c, 0, 52, 0
2, 27172, Note_on_c, 0, 48, 0
2, 27172, Note_on_c, 0, 57, 0
2, 27177, Note_on_c, 1, 33, 110
2, 27177, Note_on_c, 0, 48, 76
2, 27177, Note_on_c, 0, 52, 74
2, 27178, Note_on_c, 0, 57, 76
2, 27178, Note_on_c, 4, 57, 74
2, 27182, Note_on_c, 9, 36, 123
2, 27182, Note_on_c, 9, 53, 86
2, 27182, Note_on_c, 9, 42, 49
2, 27182, Note_on_c, 9, 54, 51
2, 27182, Note_on_c, 9, 82, 63
2, 27183, Note_on_c, 9, 82, 0
2, 27183, Note_on_c, 9, 54, 0
2, 27183, Note_on_c, 9, 36, 0
2, 27183, Note_on_c, 9, 42, 0
2, 27183, Note_on_c, 9, 53, 0
2, 27207, Note_on_c, 0, 52, 0
2, 27207, Note_on_c, 0, 60, 0
2, 27207, Note_on_c, 0, 57, 0
2, 27207, Note_on_c, 0, 60, 79
2, 27207, Note_on_c, 0, 52, 79
2, 27208, Note_on_c, 0, 57, 82
2, 27208, Note_on_c, 4, 64, 86
2, 27212, Note_on_c, 1, 33, 0
2, 27212, Note_on_c, 9, 54, 56
2, 27212, Note_on_c, 9, 82, 51
2, 27213, Note_on_c, 9, 82, 0
2, 27213, Note_on_c, 9, 54, 0
2, 27232, Note_on_c, 0, 52, 0
2, 27232, Note_on_c, 0, 60, 0
2, 27232, Note_on_c, 0, 57, 0
2, 27237, Note_on_c, 0, 48, 0
2, 27237, Note_on_c, 1, 33, 110
2, 27237, Note_on_c, 0, 60, 82
2, 27237, Note_on_c, 0, 48, 86
2, 27238, Note_on_c, 0, 52, 91
2, 27238, Note_on_c, 0, 57, 91
2, 27242, Note_on_c, 4, 57, 0
2, 27242, Note_on_c, 9, 38, 114
2, 27242, Note_on_c, 9, 42, 123
2, 27242, Note_on_c, 9, 123, 91
2, 27242, Note_on_c, 9, 54, 85
2, 27243, Note_on_c, 9, 54, 0
2, 27243, Note_on_c, 9, 38, 0
2, 27243, Note_on_c, 9, 123, 0
2, 27243, Note_on_c, 9, 42, 0
2, 27267, Note_on_c, 4, 57, 64
2, 27272, Note_on_c, 9, 54, 28
2, 27273, Note_on_c, 9, 54, 0
2, 27282, Note_on_c, 1, 33, 0
2, 27287, Note_on_c, 4, 60, 0
2, 27292, Note_on_c, 0, 52, 0
2, 27292, Note_on_c, 0, 57, 0
2, 27297, Note_on_c, 0, 60, 0
2, 27297, Note_on_c, 0, 48, 0
2, 27297, Note_on_c, 1, 33, 79
2, 27297, Note_on_c, 4, 60, 80
2, 27302, Note_on_c, 4, 57, 0
2, 27302, Note_on_c, 9, 53, 82
2, 27302, Note_on_c, 9, 42, 41
2, 27302, Note_on_c, 9, 54, 51
2, 27303, Note_on_c, 9, 54, 0
2, 27303, Note_on_c, 9, 42, 0
2, 27303, Note_on_c, 9, 53, 0
2, 27303, Note_on_c, 9, 82, 58
2, 27303, Note_on_c, 9, 82, 0
2, 27312, Note_on_c, 1, 33, 0
2, 27327, Note_on_c, 1, 33, 86
2, 27327, Note_on_c, 4, 57, 86
2, 27332, Note_on_c, 4, 45, 0
2, 27332, Note_on_c, 9, 25, 72
2, 27332, Note_on_c, 9, 54, 49
2, 27332, Note_on_c, 9, 82, 58
2, 27333, Note_on_c, 9, 82, 0
2, 27333, Note_on_c, 9, 54, 0
2, 27333, Note_on_c, 9, 25, 0
2, 27347, Note_on_c, 1, 33, 0
2, 27357, Note_on_c, 1, 33, 110
2, 27357, Note_on_c, 0, 60, 72
2, 27357, Note_on_c, 0, 48, 72
2, 27357, Note_on_c, 0, 52, 72
2, 27357, Note_on_c, 0, 57, 69
2, 27358, Note_on_c, 4, 45, 90
2, 27362, Note_on_c, 4, 64, 0
2, 27362, Note_on_c, 4, 57, 0
2, 27362, Note_on_c, 9, 36, 110
2, 27362, Note_on_c, 9, 42, 123
2, 27362, Note_on_c, 9, 54, 91
2, 27363, Note_on_c, 9, 54, 0
2, 27363, Note_on_c, 4, 60, 0
2, 27363, Note_on_c, 9, 42, 0
2, 27363, Note_on_c, 9, 36, 0
2, 27387, Note_on_c, 0, 52, 0
2, 27387, Note_on_c, 0, 60, 0
2, 27387, Note_on_c, 0, 57, 0
2, 27387, Note_on_c, 1, 33, 0
2, 27388, Note_on_c, 0, 60, 79
2, 27388, Note_on_c, 0, 52, 69
2, 27388, Note_on_c, 0, 57, 79
2, 27392, Note_on_c, 9, 54, 49
2, 27393, Note_on_c, 9, 54, 0
2, 27412, Note_on_c, 0, 57, 0
2, 27412, Note_on_c, 0, 60, 0
2, 27417, Note_on_c, 0, 48, 0
2, 27417, Note_on_c, 1, 33, 106
2, 27417, Note_on_c, 0, 60, 79
2, 27417, Note_on_c, 0, 48, 76
2, 27418, Note_on_c, 0, 57, 82
2, 27418, Note_on_c, 4, 60, 90
2, 27422, Note_on_c, 9, 36, 114
2, 27422, Note_on_c, 9, 53, 79
2, 27422, Note_on_c, 9, 42, 61
2, 27422, Note_on_c, 9, 54, 53
2, 27422, Note_on_c, 9, 82, 56
2, 27423, Note_on_c, 9, 82, 0
2, 27423, Note_on_c, 9, 53, 0
2, 27423, Note_on_c, 9, 54, 0
2, 27423, Note_on_c, 9, 36, 0
2, 27423, Note_on_c, 9, 42, 0
2, 27442, Note_on_c, 0, 57, 0
2, 27442, Note_on_c, 0, 60, 0
2, 27442, Note_on_c, 0, 52, 0
2, 27447, Note_on_c, 1, 33, 0
2, 27447, Note_on_c, 0, 60, 79
2, 27447, Note_on_c, 0, 52, 72
2, 27447, Note_on_c, 0, 57, 79
2, 27452, Note_on_c, 9, 54, 53
2, 27452, Note_on_c, 9, 82, 58
2, 27453, Note_on_c, 9, 82, 0
2, 27453, Note_on_c, 9, 54, 0
2, 27477, Note_on_c, 0, 60, 0
2, 27477, Note_on_c, 0, 52, 0
2, 27477, Note_on_c, 0, 48, 0
2, 27477, Note_on_c, 1, 33, 110
2, 27478, Note_on_c, 0, 60, 96
2, 27478, Note_on_c, 0, 48, 96
2, 27478, Note_on_c, 0, 52, 82
2, 27478, Note_on_c, 4, 57, 74
2, 27482, Note_on_c, 9, 38, 114
2, 27482, Note_on_c, 9, 42, 127
2, 27482, Note_on_c, 9, 123, 99
2, 27482, Note_on_c, 9, 54, 106
2, 27483, Note_on_c, 9, 54, 0
2, 27483, Note_on_c, 9, 38, 0
2, 27483, Note_on_c, 9, 123, 0
2, 27483, Note_on_c, 9, 42, 0
2, 27507, Note_on_c, 4, 64, 82
2, 27512, Note_on_c, 9, 54, 58
2, 27513, Note_on_c, 9, 54, 0
2, 27527, Note_on_c, 4, 45, 0
2, 27527, Note_on_c, 4, 57, 0
2, 27537, Note_on_c, 0, 48, 0
2, 27537, Note_on_c, 0, 60, 0
2, 27537, Note_on_c, 0, 57, 0
2, 27537, Note_on_c, 0, 52, 0
2, 27537, Note_on_c, 4, 64, 0
2, 27537, Note_on_c, 4, 57, 67
2, 27542, Note_on_c, 9, 53, 76
2, 27542, Note_on_c, 9, 42, 56
2, 27542, Note_on_c, 9, 54, 51
2, 27542, Note_on_c, 9, 82, 53
2, 27543, Note_on_c, 9, 82, 0
2, 27543, Note_on_c, 9, 54, 0
2, 27543, Note_on_c, 9, 53, 0
2, 27543, Note_on_c, 9, 42, 0
2, 27547, Note_on_c, 1, 33, 0
2, 27552, Note_on_c, 4, 60, 0
2, 27552, Note_on_c, 4, 57, 0
2, 27567, Note_on_c, 1, 33, 106
2, 27567, Note_on_c, 0, 60, 89
2, 27567, Note_on_c, 0, 48, 74
2, 27567, Note_on_c, 0, 52, 76
2, 27567, Note_on_c, 0, 57, 79
2, 27568, Note_on_c, 4, 45, 86
2, 27572, Note_on_c, 9, 36, 114
2, 27572, Note_on_c, 9, 54, 49
2, 27572, Note_on_c, 9, 82, 56
2, 27573, Note_on_c, 9, 82, 0
2, 27573, Note_on_c, 9, 36, 0
2, 27573, Note_on_c, 9, 54, 0
2, 27587, Note_on_c, 0, 57, 0
2, 27592, Note_on_c, 0, 52, 0
2, 27592, Note_on_c, 0, 48, 0
2, 27597, Note_on_c, 0, 60, 0
2, 27597, Note_on_c, 4, 60, 90
2, 27602, Note_on_c, 1, 33, 0
2, 27602, Note_on_c, 9, 42, 127
2, 27602, Note_on_c, 9, 54, 99
2, 27603, Note_on_c, 9, 54, 0
2, 27603, Note_on_c, 9, 42, 0
2, 27627, Note_on_c, 1, 33, 102
2, 27627, Note_on_c, 0, 60, 82
2, 27628, Note_on_c, 0, 48, 64
2, 27628, Note_on_c, 0, 52, 62
2, 27628, Note_on_c, 0, 57, 59
2, 27632, Note_on_c, 9, 36, 35
2, 27632, Note_on_c, 9, 54, 45
2, 27633, Note_on_c, 9, 54, 0
2, 27633, Note_on_c, 9, 36, 0
2, 27647, Note_on_c, 1, 33, 0
2, 27657, Note_on_c, 0, 52, 0
2, 27657, Note_on_c, 0, 48, 0
2, 27657, Note_on_c, 0, 57, 0
2, 27657, Note_on_c, 1, 33, 106
2, 27658, Note_on_c, 0, 48, 76
2, 27658, Note_on_c, 0, 52, 74
2, 27658, Note_on_c, 0, 57, 76
2, 27658, Note_on_c, 4, 57, 74
2, 27662, Note_on_c, 9, 36, 127
2, 27662, Note_on_c, 9, 53, 82
2, 27662, Note_on_c, 9, 42, 51
2, 27662, Note_on_c, 9, 54, 45
2, 27663, Note_on_c, 9, 54, 0
2, 27663, Note_on_c, 9, 36, 0
2, 27663, Note_on_c, 9, 42, 0
2, 27663, Note_on_c, 9, 53, 0
2, 27663, Note_on_c, 9, 82, 56
2, 27663, Note_on_c, 9, 82, 0
2, 27682, Note_on_c, 0, 52, 0
2, 27682, Note_on_c, 0, 57, 0
2, 27687, Note_on_c, 0, 60, 0
2, 27687, Note_on_c, 0, 60, 79
2, 27687, Note_on_c, 0, 52, 79
2, 27687, Note_on_c, 0, 57, 82
2, 27688, Note_on_c, 4, 64, 82
2, 27692, Note_on_c, 1, 33, 0
2, 27692, Note_on_c, 9, 54, 53
2, 27692, Note_on_c, 9, 82, 58
2, 27693, Note_on_c, 9, 82, 0
2, 27693, Note_on_c, 9, 54, 0
2, 27717, Note_on_c, 0, 48, 0
2, 27717, Note_on_c, 0, 52, 0
2, 27717, Note_on_c, 0, 60, 0
2, 27717, Note_on_c, 0, 57, 0
2, 27717, Note_on_c, 1, 33, 114
2, 27718, Note_on_c, 0, 60, 82
2, 27718, Note_on_c, 0, 48, 86
2, 27718, Note_on_c, 0, 52, 91
2, 27718, Note_on_c, 0, 57, 91
2, 27722, Note_on_c, 4, 57, 0
2, 27722, Note_on_c, 9, 38, 114
2, 27722, Note_on_c, 9, 42, 123
2, 27722, Note_on_c, 9, 123, 85
2, 27722, Note_on_c, 9, 54, 99
2, 27723, Note_on_c, 9, 54, 0
2, 27723, Note_on_c, 9, 38, 0
2, 27723, Note_on_c, 9, 123, 0
2, 27723, Note_on_c, 9, 42, 0
2, 27747, Note_on_c, 4, 57, 69
2, 27752, Note_on_c, 9, 54, 56
2, 27753, Note_on_c, 9, 54, 0
2, 27757, Note_on_c, 4, 60, 0
2, 27757, Note_on_c, 1, 33, 0
2, 27772, Note_on_c, 0, 52, 0
2, 27772, Note_on_c, 0, 48, 0
2, 27772, Note_on_c, 0, 57, 0
2, 27777, Note_on_c, 0, 60, 0
2, 27777, Note_on_c, 4, 57, 0
2, 27777, Note_on_c, 1, 33, 79
2, 27777, Note_on_c, 4, 60, 85
2, 27782, Note_on_c, 9, 53, 86
2, 27782, Note_on_c, 9, 42, 75
2, 27782, Note_on_c, 9, 54, 38
2, 27782, Note_on_c, 9, 82, 49
2, 27783, Note_on_c, 9, 82, 0
2, 27783, Note_on_c, 9, 53, 0
2, 27783, Note_on_c, 9, 54, 0
2, 27783, Note_on_c, 9, 42, 0
2, 27792, Note_on_c, 1, 33, 0
2, 27807, Note_on_c, 1, 33, 106
2, 27807, Note_on_c, 4, 57, 90
2, 27812, Note_on_c, 9, 54, 45
2, 27812, Note_on_c, 9, 82, 56
2, 27813, Note_on_c, 9, 82, 0
2, 27813, Note_on_c, 9, 54, 0
2, 27827, Note_on_c, 4, 64, 0
2, 27827, Note_on_c, 4, 57, 0
2, 27832, Note_on_c, 6, 52, 0
2, 27832, Note_on_c, 6, 57, 0
2, 27832, Note_on_c, 4, 60, 0
2, 27837, Note_on_c, 6, 60, 0
2, 27837, Note_on_c, 4, 45, 0
2, 27837, Note_on_c, 1, 33, 0
2, 27837, Note_on_c, 1, 31, 106
2, 27838, Note_on_c, 0, 62, 72
2, 27838, Note_on_c, 0, 67, 69
2, 27838, Note_on_c, 0, 71, 72
2, 27838, Note_on_c, 0, 74, 72
2, 27838, Note_on_c, 4, 55, 86
2, 27838, Note_on_c, 6, 62, 59
2, 27839, Note_on_c, 6, 67, 55
2, 27839, Note_on_c, 6, 71, 51
2, 27842, Note_on_c, 9, 36, 127
2, 27842, Note_on_c, 9, 42, 127
2, 27842, Note_on_c, 9, 54, 85
2, 27843, Note_on_c, 9, 54, 0
2, 27843, Note_on_c, 9, 36, 0
2, 27843, Note_on_c, 9, 42, 0
2, 27852, Note_on_c, 0, 74, 0
2, 27852, Note_on_c, 0, 67, 0
2, 27857, Note_on_c, 0, 62, 0
2, 27867, Note_on_c, 0, 62, 69
2, 27867, Note_on_c, 0, 67, 79
2, 27867, Note_on_c, 0, 74, 79
2, 27872, Note_on_c, 1, 31, 0
2, 27872, Note_on_c, 9, 54, 75
2, 27873, Note_on_c, 9, 54, 0
2, 27887, Note_on_c, 0, 71, 0
2, 27897, Note_on_c, 0, 74, 0
2, 27897, Note_on_c, 0, 67, 0
2, 27897, Note_on_c, 1, 31, 110
2, 27897, Note_on_c, 0, 67, 82
2, 27897, Note_on_c, 0, 71, 76
2, 27898, Note_on_c, 0, 74, 79
2, 27898, Note_on_c, 4, 67, 86
2, 27902, Note_on_c, 9, 36, 86
2, 27902, Note_on_c, 9, 53, 86
2, 27902, Note_on_c, 9, 54, 72
2, 27902, Note_on_c, 9, 42, 66
2, 27902, Note_on_c, 9, 82, 53
2, 27903, Note_on_c, 9, 82, 0
2, 27903, Note_on_c, 9, 53, 0
2, 27903, Note_on_c, 9, 42, 0
2, 27903, Note_on_c, 9, 36, 0
2, 27903, Note_on_c, 9, 54, 0
2, 27912, Note_on_c, 4, 55, 0
2, 27922, Note_on_c, 0, 62, 0
2, 27922, Note_on_c, 0, 74, 0
2, 27922, Note_on_c, 0, 67, 0
2, 27927, Note_on_c, 0, 62, 72
2, 27927, Note_on_c, 0, 67, 79
2, 27927, Note_on_c, 0, 74, 79
2, 27932, Note_on_c, 1, 31, 0
2, 27932, Note_on_c, 9, 54, 72
2, 27932, Note_on_c, 9, 82, 75
2, 27933, Note_on_c, 9, 82, 0
2, 27933, Note_on_c, 9, 54, 0
2, 27952, Note_on_c, 0, 71, 0
2, 27957, Note_on_c, 0, 74, 0
2, 27957, Note_on_c, 0, 62, 0
2, 27957, Note_on_c, 1, 31, 106
2, 27957, Note_on_c, 0, 62, 82
2, 27957, Note_on_c, 0, 71, 96
2, 27958, Note_on_c, 0, 74, 96
2, 27958, Note_on_c, 4, 62, 76
2, 27962, Note_on_c, 9, 38, 114
2, 27962, Note_on_c, 9, 42, 123
2, 27962, Note_on_c, 9, 123, 99
2, 27962, Note_on_c, 9, 54, 85
2, 27963, Note_on_c, 9, 54, 0
2, 27963, Note_on_c, 9, 123, 0
2, 27963, Note_on_c, 9, 38, 0
2, 27963, Note_on_c, 9, 42, 0
2, 27987, Note_on_c, 4, 69, 90
2, 27992, Note_on_c, 9, 54, 69
2, 27993, Note_on_c, 9, 54, 0
2, 28007, Note_on_c, 4, 62, 0
2, 28012, Note_on_c, 0, 74, 0
2, 28017, Note_on_c, 0, 62, 0
2, 28017, Note_on_c, 0, 71, 0
2, 28017, Note_on_c, 0, 67, 0
2, 28022, Note_on_c, 9, 53, 82
2, 28022, Note_on_c, 9, 42, 51
2, 28022, Note_on_c, 9, 54, 58
2, 28022, Note_on_c, 9, 82, 58
2, 28023, Note_on_c, 9, 82, 0
2, 28023, Note_on_c, 9, 54, 0
2, 28023, Note_on_c, 9, 53, 0
2, 28023, Note_on_c, 9, 42, 0
2, 28023, Note_on_c, 1, 31, 0
2, 28037, Note_on_c, 4, 69, 0
2, 28042, Note_on_c, 4, 67, 0
2, 28047, Note_on_c, 1, 31, 110
2, 28047, Note_on_c, 0, 62, 76
2, 28047, Note_on_c, 0, 67, 79
2, 28047, Note_on_c, 0, 71, 74
2, 28047, Note_on_c, 0, 74, 89
2, 28048, Note_on_c, 4, 55, 90
2, 28052, Note_on_c, 9, 36, 114
2, 28052, Note_on_c, 9, 54, 53
2, 28052, Note_on_c, 9, 82, 56
2, 28053, Note_on_c, 9, 82, 0
2, 28053, Note_on_c, 9, 36, 0
2, 28053, Note_on_c, 9, 54, 0
2, 28067, Note_on_c, 0, 67, 0
2, 28072, Note_on_c, 0, 71, 0
2, 28072, Note_on_c, 0, 62, 0
2, 28077, Note_on_c, 1, 31, 0
2, 28077, Note_on_c, 0, 74, 0
2, 28077, Note_on_c, 4, 67, 76
2, 28082, Note_on_c, 9, 42, 123
2, 28082, Note_on_c, 9, 54, 75
2, 28083, Note_on_c, 9, 54, 0
2, 28083, Note_on_c, 9, 42, 0
2, 28107, Note_on_c, 1, 31, 79
2, 28107, Note_on_c, 0, 62, 62
2, 28107, Note_on_c, 0, 67, 59
2, 28107, Note_on_c, 0, 71, 64
2, 28108, Note_on_c, 0, 74, 82
2, 28108, Note_on_c, 4, 62, 51
2, 28112, Note_on_c, 9, 36, 45
2, 28112, Note_on_c, 9, 54, 58
2, 28113, Note_on_c, 9, 54, 0
2, 28113, Note_on_c, 9, 36, 0
2, 28122, Note_on_c, 1, 31, 0
2, 28137, Note_on_c, 0, 71, 0
2, 28137, Note_on_c, 0, 67, 0
2, 28137, Note_on_c, 0, 62, 0
2, 28137, Note_on_c, 1, 31, 110
2, 28137, Note_on_c, 0, 62, 74
2, 28138, Note_on_c, 0, 67, 76
2, 28138, Note_on_c, 0, 71, 76
2, 28142, Note_on_c, 9, 36, 123
2, 28142, Note_on_c, 9, 53, 86
2, 28142, Note_on_c, 9, 42, 49
2, 28142, Note_on_c, 9, 54, 51
2, 28142, Note_on_c, 9, 82, 63
2, 28143, Note_on_c, 9, 82, 0
2, 28143, Note_on_c, 9, 54, 0
2, 28143, Note_on_c, 9, 36, 0
2, 28143, Note_on_c, 9, 42, 0
2, 28143, Note_on_c, 9, 53, 0
2, 28162, Note_on_c, 0, 62, 0
2, 28162, Note_on_c, 0, 67, 0
2, 28167, Note_on_c, 0, 74, 0
2, 28167, Note_on_c, 0, 62, 79
2, 28167, Note_on_c, 0, 67, 82
2, 28167, Note_on_c, 0, 74, 79
2, 28167, Note_on_c, 4, 69, 82
2, 28172, Note_on_c, 1, 31, 0
2, 28172, Note_on_c, 9, 54, 56
2, 28172, Note_on_c, 9, 82, 51
2, 28173, Note_on_c, 9, 82, 0
2, 28173, Note_on_c, 9, 54, 0
2, 28177, Note_on_c, 4, 62, 0
2, 28192, Note_on_c, 0, 71, 0
2, 28197, Note_on_c, 0, 74, 0
2, 28197, Note_on_c, 0, 62, 0
2, 28197, Note_on_c, 0, 67, 0
2, 28197, Note_on_c, 1, 31, 110
2, 28197, Note_on_c, 0, 62, 91
2, 28198, Note_on_c, 0, 67, 91
2, 28198, Note_on_c, 0, 71, 86
2, 28198, Note_on_c, 0, 74, 82
2, 28202, Note_on_c, 9, 38, 114
2, 28202, Note_on_c, 9, 42, 123
2, 28202, Note_on_c, 9, 123, 91
2, 28202, Note_on_c, 9, 54, 85
2, 28203, Note_on_c, 9, 54, 0
2, 28203, Note_on_c, 9, 38, 0
2, 28203, Note_on_c, 9, 123, 0
2, 28203, Note_on_c, 9, 42, 0
2, 28227, Note_on_c, 4, 62, 64
2, 28232, Note_on_c, 4, 67, 0
2, 28232, Note_on_c, 9, 54, 28
2, 28233, Note_on_c, 9, 54, 0
2, 28242, Note_on_c, 1, 31, 0
2, 28252, Note_on_c, 0, 67, 0
2, 28252, Note_on_c, 0, 74, 0
2, 28252, Note_on_c, 0, 71, 0
2, 28257, Note_on_c, 0, 62, 0
2, 28257, Note_on_c, 1, 31, 79
2, 28257, Note_on_c, 4, 67, 79
2, 28262, Note_on_c, 9, 53, 82
2, 28262, Note_on_c, 9, 42, 41
2, 28262, Note_on_c, 9, 54, 51
2, 28262, Note_on_c, 9, 82, 58
2, 28263, Note_on_c, 9, 82, 0
2, 28263, Note_on_c, 9, 42, 0
2, 28263, Note_on_c, 9, 53, 0
2, 28263, Note_on_c, 9, 54, 0
2, 28267, Note_on_c, 4, 62, 0
2, 28272, Note_on_c, 1, 31, 0
2, 28282, Note_on_c, 4, 55, 0
2, 28287, Note_on_c, 1, 31, 86
2, 28287, Note_on_c, 4, 62, 67
2, 28292, Note_on_c, 9, 25, 72
2, 28292, Note_on_c, 9, 54, 49
2, 28292, Note_on_c, 9, 82, 58
2, 28293, Note_on_c, 9, 82, 0
2, 28293, Note_on_c, 9, 54, 0
2, 28293, Note_on_c, 9, 25, 0
2, 28307, Note_on_c, 1, 31, 0
2, 28307, Note_on_c, 4, 67, 0
2, 28312, Note_on_c, 4, 69, 0
2, 28312, Note_on_c, 4, 62, 0
2, 28317, Note_on_c, 1, 31, 110
2, 28317, Note_on_c, 0, 62, 72
2, 28317, Note_on_c, 0, 67, 69
2, 28317, Note_on_c, 0, 71, 72
2, 28317, Note_on_c, 0, 74, 72
2, 28318, Note_on_c, 4, 55, 90
2, 28322, Note_on_c, 9, 36, 110
2, 28322, Note_on_c, 9, 42, 123
2, 28322, Note_on_c, 9, 54, 91
2, 28323, Note_on_c, 9, 54, 0
2, 28323, Note_on_c, 9, 36, 0
2, 28323, Note_on_c, 9, 42, 0
2, 28342, Note_on_c, 0, 74, 0
2, 28342, Note_on_c, 0, 67, 0
2, 28342, Note_on_c, 0, 62, 0
2, 28347, Note_on_c, 1, 31, 0
2, 28347, Note_on_c, 0, 62, 69
2, 28347, Note_on_c, 0, 67, 79
2, 28347, Note_on_c, 0, 74, 79
2, 28352, Note_on_c, 9, 54, 49
2, 28353, Note_on_c, 9, 54, 0
2, 28372, Note_on_c, 0, 71, 0
2, 28377, Note_on_c, 0, 74, 0
2, 28377, Note_on_c, 0, 67, 0
2, 28377, Note_on_c, 1, 31, 106
2, 28377, Note_on_c, 0, 67, 82
2, 28377, Note_on_c, 0, 71, 76
2, 28378, Note_on_c, 0, 74, 79
2, 28378, Note_on_c, 4, 71, 90
2, 28382, Note_on_c, 9, 36, 114
2, 28382, Note_on_c, 9, 53, 79
2, 28382, Note_on_c, 9, 42, 61
2, 28382, Note_on_c, 9, 54, 53
2, 28383, Note_on_c, 9, 54, 0
2, 28383, Note_on_c, 9, 42, 0
2, 28383, Note_on_c, 9, 36, 0
2, 28383, Note_on_c, 9, 53, 0
2, 28383, Note_on_c, 9, 82, 56
2, 28383, Note_on_c, 9, 82, 0
2, 28402, Note_on_c, 0, 74, 0
2, 28402, Note_on_c, 0, 67, 0
2, 28402, Note_on_c, 0, 62, 0
2, 28407, Note_on_c, 1, 31, 0
2, 28407, Note_on_c, 0, 62, 72
2, 28407, Note_on_c, 0, 67, 79
2, 28407, Note_on_c, 0, 74, 79
2, 28412, Note_on_c, 9, 54, 53
2, 28412, Note_on_c, 9, 82, 58
2, 28413, Note_on_c, 9, 82, 0
2, 28413, Note_on_c, 9, 54, 0
2, 28432, Note_on_c, 0, 71, 0
2, 28437, Note_on_c, 0, 74, 0
2, 28437, Note_on_c, 0, 62, 0
2, 28437, Note_on_c, 1, 31, 110
2, 28437, Note_on_c, 0, 62, 82
2, 28438, Note_on_c, 0, 71, 96
2, 28438, Note_on_c, 0, 74, 96
2, 28438, Note_on_c, 4, 67, 76
2, 28442, Note_on_c, 9, 38, 114
2, 28442, Note_on_c, 9, 42, 127
2, 28442, Note_on_c, 9, 123, 99
2, 28442, Note_on_c, 9, 54, 106
2, 28443, Note_on_c, 9, 54, 0
2, 28443, Note_on_c, 9, 38, 0
2, 28443, Note_on_c, 9, 123, 0
2, 28443, Note_on_c, 9, 42, 0
2, 28467, Note_on_c, 4, 62, 90
2, 28472, Note_on_c, 9, 54, 58
2, 28473, Note_on_c, 9, 54, 0
2, 28497, Note_on_c, 0, 67, 0
2, 28497, Note_on_c, 0, 62, 0
2, 28497, Note_on_c, 0, 71, 0
2, 28497, Note_on_c, 0, 74, 0
2, 28502, Note_on_c, 9, 53, 76
2, 28502, Note_on_c, 9, 42, 56
2, 28502, Note_on_c, 9, 54, 51
2, 28502, Note_on_c, 9, 82, 53
2, 28503, Note_on_c, 9, 82, 0
2, 28503, Note_on_c, 9, 42, 0
2, 28503, Note_on_c, 9, 53, 0
2, 28503, Note_on_c, 9, 54, 0
2, 28507, Note_on_c, 1, 31, 0
2, 28507, Note_on_c, 4, 55, 0
2, 28517, Note_on_c, 4, 62, 0
2, 28527, Note_on_c, 4, 71, 0
2, 28527, Note_on_c, 1, 31, 106
2, 28527, Note_on_c, 0, 62, 76
2, 28527, Note_on_c, 0, 67, 79
2, 28527, Note_on_c, 0, 71, 74
2, 28527, Note_on_c, 0, 74, 89
2, 28528, Note_on_c, 4, 55, 86
2, 28532, Note_on_c, 4, 67, 0
2, 28532, Note_on_c, 9, 36, 114
2, 28532, Note_on_c, 9, 54, 49
2, 28532, Note_on_c, 9, 82, 56
2, 28533, Note_on_c, 9, 82, 0
2, 28533, Note_on_c, 9, 36, 0
2, 28533, Note_on_c, 9, 54, 0
2, 28547, Note_on_c, 0, 71, 0
2, 28547, Note_on_c, 0, 67, 0
2, 28552, Note_on_c, 0, 62, 0
2, 28557, Note_on_c, 0, 74, 0
2, 28557, Note_on_c, 4, 71, 82
2, 28562, Note_on_c, 1, 31, 0
2, 28562, Note_on_c, 9, 42, 127
2, 28562, Note_on_c, 9, 54, 99
2, 28563, Note_on_c, 9, 54, 0
2, 28563, Note_on_c, 9, 42, 0
2, 28587, Note_on_c, 1, 31, 102
2, 28587, Note_on_c, 0, 62, 62
2, 28587, Note_on_c, 0, 67, 59
2, 28587, Note_on_c, 0, 71, 64
2, 28587, Note_on_c, 0, 74, 82
2, 28592, Note_on_c, 9, 36, 35
2, 28592, Note_on_c, 9, 54, 45
2, 28593, Note_on_c, 9, 54, 0
2, 28593, Note_on_c, 9, 36, 0
2, 28607, Note_on_c, 1, 31, 0
2, 28612, Note_on_c, 0, 67, 0
2, 28612, Note_on_c, 0, 71, 0
2, 28612, Note_on_c, 0, 62, 0
2, 28617, Note_on_c, 1, 31, 106
2, 28617, Note_on_c, 0, 62, 74
2, 28617, Note_on_c, 0, 67, 76
2, 28617, Note_on_c, 0, 71, 76
2, 28618, Note_on_c, 4, 67, 74
2, 28622, Note_on_c, 9, 36, 127
2, 28622, Note_on_c, 9, 53, 82
2, 28622, Note_on_c, 9, 42, 51
2, 28622, Note_on_c, 9, 54, 45
2, 28622, Note_on_c, 9, 82, 56
2, 28623, Note_on_c, 9, 82, 0
2, 28623, Note_on_c, 9, 54, 0
2, 28623, Note_on_c, 9, 36, 0
2, 28623, Note_on_c, 9, 42, 0
2, 28623, Note_on_c, 9, 53, 0
2, 28647, Note_on_c, 0, 62, 0
2, 28647, Note_on_c, 0, 74, 0
2, 28647, Note_on_c, 0, 67, 0
2, 28647, Note_on_c, 0, 62, 79
2, 28647, Note_on_c, 0, 67, 82
2, 28647, Note_on_c, 0, 74, 79
2, 28648, Note_on_c, 4, 62, 82
2, 28652, Note_on_c, 1, 31, 0
2, 28652, Note_on_c, 9, 54, 53
2, 28652, Note_on_c, 9, 82, 58
2, 28653, Note_on_c, 9, 82, 0
2, 28653, Note_on_c, 9, 54, 0
2, 28672, Note_on_c, 0, 67, 0
2, 28672, Note_on_c, 0, 74, 0
2, 28677, Note_on_c, 0, 71, 0
2, 28677, Note_on_c, 0, 62, 0
2, 28677, Note_on_c, 1, 31, 114
2, 28677, Note_on_c, 0, 62, 91
2, 28677, Note_on_c, 0, 67, 91
2, 28678, Note_on_c, 0, 71, 86
2, 28678, Note_on_c, 0, 74, 82
2, 28682, Note_on_c, 9, 38, 114
2, 28682, Note_on_c, 9, 42, 123
2, 28682, Note_on_c, 9, 123, 85
2, 28682, Note_on_c, 9, 54, 99
2, 28683, Note_on_c, 9, 54, 0
2, 28683, Note_on_c, 9, 123, 0
2, 28683, Note_on_c, 9, 42, 0
2, 28683, Note_on_c, 9, 38, 0
2, 28687, Note_on_c, 4, 67, 0
2, 28707, Note_on_c, 4, 67, 67
2, 28712, Note_on_c, 4, 71, 0
2, 28712, Note_on_c, 9, 54, 56
2, 28713, Note_on_c, 9, 54, 0
2, 28717, Note_on_c, 1, 31, 0
2, 28722, Note_on_c, 4, 62, 0
2, 28732, Note_on_c, 0, 67, 0
2, 28732, Note_on_c, 0, 71, 0
2, 28732, Note_on_c, 0, 74, 0
2, 28737, Note_on_c, 0, 62, 0
2, 28737, Note_on_c, 1, 31, 79
2, 28737, Note_on_c, 4, 71, 86
2, 28742, Note_on_c, 4, 67, 0
2, 28742, Note_on_c, 9, 53, 86
2, 28742, Note_on_c, 9, 42, 75
2, 28742, Note_on_c, 9, 54, 38
2, 28742, Note_on_c, 9, 82, 49
2, 28743, Note_on_c, 9, 82, 0
2, 28743, Note_on_c, 9, 54, 0
2, 28743, Note_on_c, 9, 53, 0
2, 28743, Note_on_c, 9, 42, 0
2, 28752, Note_on_c, 1, 31, 0
2, 28766, Note_on_c, 1, 31, 106
2, 28767, Note_on_c, 4, 67, 76
2, 28767, Note_on_c, 1, 31, 106
2, 28772, Note_on_c, 9, 54, 45
2, 28772, Note_on_c, 9, 54, 0
2, 28772, Note_on_c, 9, 82, 56
2, 28773, Note_on_c, 9, 82, 0
2, 28777, Note_on_c, 4, 55, 0
2, 28792, Note_on_c, 4, 71, 0
2, 28796, Note_on_c, 1, 31, 0
2, 28797, Note_on_c, 6, 62, 0
2, 28797, Note_on_c, 6, 67, 0
2, 28797, Note_on_c, 6, 71, 0
2, 28797, Note_on_c, 4, 67, 0
2, 28797, Note_on_c, 1, 31, 0
2, 28797, Note_on_c, 0, 74, 72
2, 28797, Note_on_c, 4, 55, 86
2, 28797, Note_on_c, 1, 31, 106
2, 28797, Note_on_c, 0, 62, 72
2, 28797, Note_on_c, 0, 67, 69
2, 28797, Note_on_c, 0, 71, 72
2, 28798, Note_on_c, 6, 71, 51
2, 28798, Note_on_c, 6, 62, 59
2, 28798, Note_on_c, 6, 67, 55
2, 28801, Note_on_c, 9, 54, 85
2, 28801, Note_on_c, 9, 36, 127
2, 28801, Note_on_c, 9, 42, 127
2, 28801, Control_c, 9, 64, 0
2, 28801, Control_c, 1, 64, 0
2, 28801, Control_c, 0, 64, 0
2, 28802, Note_on_c, 9, 42, 0
2, 28802, Note_on_c, 9, 54, 0
2, 28802, Note_on_c, 9, 36, 0
2, 28802, Control_c, 2, 64, 0
2, 28802, Control_c, 4, 64, 0
2, 28802, Control_c, 7, 64, 0
2, 28802, Control_c, 8, 64, 0
2, 28802, Control_c, 6, 64, 0
2, 28805, Control_c, 9, 0, 0
2, 28806, Control_c, 9, 32, 3
2, 28806, Control_c, 9, 0, 0
2, 28806, Control_c, 9, 32, 3
2, 28806, Control_c, 9, 0, 0
2, 28806, Control_c, 9, 32, 3
2, 28806, Control_c, 9, 0, 0
2, 28806, Control_c, 9, 32, 3
2, 28806, Control_c, 9, 0, 0
2, 28806, Control_c, 9, 32, 3
2, 28807, Program_c, 9, 8
2, 28807, Control_c, 1, 0, 0
2, 28807, Control_c, 1, 32, 1
2, 28807, Control_c, 1, 0, 0
2, 28807, Control_c, 1, 32, 1
2, 28807, Control_c, 1, 0, 0
2, 28807, Control_c, 1, 32, 1
2, 28807, Control_c, 1, 0, 0
2, 28807, Control_c, 1, 32, 1
2, 28807, Control_c, 1, 0, 0
2, 28807, Control_c, 1, 32, 1
2, 28807, Program_c, 1, 33
2, 28807, Control_c, 0, 0, 0
2, 28807, Control_c, 0, 32, 3
2, 28807, Control_c, 0, 0, 0
2, 28807, Control_c, 0, 32, 3
2, 28807, Control_c, 0, 0, 0
2, 28807, Control_c, 0, 32, 3
2, 28807, Control_c, 0, 0, 0
2, 28807, Control_c, 0, 32, 3
2, 28807, Control_c, 0, 0, 0
2, 28807, Control_c, 0, 32, 3
2, 28808, Program_c, 0, 25
2, 28808, Control_c, 4, 0, 9
2, 28808, Control_c, 4, 32, 2
2, 28808, Control_c, 4, 0, 9
2, 28808, Control_c, 4, 32, 2
2, 28808, Control_c, 4, 0, 9
2, 28808, Control_c, 4, 32, 2
2, 28808, Control_c, 4, 0, 9
2, 28808, Control_c, 4, 32, 2
2, 28808, Control_c, 4, 0, 9
2, 28808, Control_c, 4, 32, 2
2, 28809, Program_c, 4, 27
2, 28809, Control_c, 6, 0, 32
2, 28809, Control_c, 6, 32, 1
2, 28809, Control_c, 6, 0, 32
2, 28809, Control_c, 6, 32, 1
2, 28809, Control_c, 6, 0, 32
2, 28809, Control_c, 6, 32, 1
2, 28809, Control_c, 6, 0, 32
2, 28809, Control_c, 6, 32, 1
2, 28809, Control_c, 6, 0, 32
2, 28809, Control_c, 6, 32, 1
2, 28809, Program_c, 6, 52
2, 28811, Note_on_c, 0, 67, 0
2, 28811, Note_on_c, 1, 31, 0
2, 28811, Note_on_c, 0, 74, 0
2, 28811, Note_on_c, 1, 33, 106
2, 28812, Note_on_c, 0, 62, 0
2, 28812, Note_on_c, 0, 60, 72
2, 28812, Note_on_c, 0, 48, 72
2, 28813, Note_on_c, 4, 55, 0
2, 28813, Note_on_c, 0, 71, 0
2, 28813, Note_on_c, 4, 45, 86
2, 28813, Note_on_c, 6, 60, 61
2, 28814, Note_on_c, 6, 67, 0
2, 28814, Note_on_c, 6, 62, 0
2, 28814, Note_on_c, 6, 52, 57
2, 28814, Note_on_c, 6, 57, 64
2, 28815, Note_on_c, 6, 71, 0
2, 28816, Note_on_c, 0, 60, 0
2, 28826, Note_on_c, 0, 60, 79
2, 28826, Note_on_c, 0, 52, 69
2, 28826, Note_on_c, 0, 57, 79
2, 28831, Note_on_c, 1, 33, 0
2, 28831, Note_on_c, 9, 54, 75
2, 28832, Note_on_c, 9, 54, 0
2, 28846, Note_on_c, 0, 48, 0
2, 28851, Note_on_c, 0, 57, 0
2, 28851, Note_on_c, 0, 60, 0
2, 28856, Note_on_c, 1, 33, 110
2, 28856, Note_on_c, 0, 60, 79
2, 28856, Note_on_c, 0, 48, 76
2, 28856, Note_on_c, 0, 57, 82
2, 28856, Note_on_c, 4, 60, 90
2, 28861, Note_on_c, 9, 82, 53
2, 28861, Note_on_c, 9, 36, 86
2, 28861, Note_on_c, 9, 53, 86
2, 28861, Note_on_c, 9, 54, 72
2, 28861, Note_on_c, 9, 42, 66
2, 28862, Note_on_c, 9, 42, 0
2, 28862, Note_on_c, 9, 36, 0
2, 28862, Note_on_c, 9, 54, 0
2, 28862, Note_on_c, 9, 82, 0
2, 28862, Note_on_c, 9, 53, 0
2, 28881, Note_on_c, 0, 52, 0
2, 28886, Note_on_c, 0, 57, 0
2, 28886, Note_on_c, 0, 60, 0
2, 28886, Note_on_c, 0, 60, 79
2, 28886, Note_on_c, 0, 52, 72
2, 28886, Note_on_c, 0, 57, 79
2, 28891, Note_on_c, 1, 33, 0
2, 28891, Note_on_c, 9, 54, 72
2, 28891, Note_on_c, 9, 54, 0
2, 28891, Note_on_c, 9, 82, 75
2, 28892, Note_on_c, 9, 82, 0
2, 28911, Note_on_c, 0, 60, 0
2, 28911, Note_on_c, 0, 52, 0
2, 28911, Note_on_c, 0, 48, 0
2, 28916, Note_on_c, 1, 33, 106
2, 28916, Note_on_c, 0, 52, 82
2, 28916, Note_on_c, 4, 57, 69
2, 28916, Note_on_c, 0, 60, 96
2, 28916, Note_on_c, 0, 48, 96
2, 28921, Note_on_c, 9, 38, 114
2, 28921, Note_on_c, 9, 42, 123
2, 28921, Note_on_c, 9, 54, 85
2, 28921, Note_on_c, 9, 123, 99
2, 28922, Note_on_c, 9, 123, 0
2, 28922, Note_on_c, 9, 38, 0
2, 28922, Note_on_c, 9, 54, 0
2, 28922, Note_on_c, 9, 42, 0
2, 28946, Note_on_c, 4, 64, 86
2, 28950, Note_on_c, 9, 54, 69
2, 28952, Note_on_c, 9, 54, 0
2, 28956, Note_on_c, 4, 45, 0
2, 28971, Note_on_c, 0, 57, 0
2, 28976, Note_on_c, 0, 60, 0
2, 28976, Note_on_c, 0, 52, 0
2, 28976, Note_on_c, 0, 48, 0
2, 28981, Note_on_c, 1, 33, 0
2, 28981, Note_on_c, 9, 54, 58
2, 28981, Note_on_c, 9, 82, 58
2, 28981, Note_on_c, 9, 53, 82
2, 28981, Note_on_c, 9, 42, 51
2, 28982, Note_on_c, 9, 42, 0
2, 28982, Note_on_c, 9, 53, 0
2, 28982, Note_on_c, 9, 54, 0
2, 28982, Note_on_c, 9, 82, 0
2, 28986, Note_on_c, 4, 64, 0
2, 29001, Note_on_c, 4, 60, 0
2, 29006, Note_on_c, 4, 57, 0
2, 29006, Note_on_c, 0, 60, 89
2, 29006, Note_on_c, 0, 48, 74
2, 29006, Note_on_c, 0, 52, 76
2, 29006, Note_on_c, 0, 57, 79
2, 29006, Note_on_c, 1, 33, 110
2, 29007, Note_on_c, 4, 45, 86
2, 29011, Note_on_c, 9, 36, 114
2, 29011, Note_on_c, 9, 54, 53
2, 29011, Note_on_c, 9, 82, 56
2, 29012, Note_on_c, 9, 82, 0
2, 29012, Note_on_c, 9, 36, 0
2, 29012, Note_on_c, 9, 54, 0
2, 29026, Note_on_c, 0, 57, 0
2, 29026, Note_on_c, 0, 52, 0
2, 29026, Note_on_c, 0, 48, 0
2, 29031, Note_on_c, 0, 60, 0
2, 29036, Note_on_c, 1, 33, 0
2, 29036, Note_on_c, 4, 60, 80
2, 29041, Note_on_c, 9, 42, 123
2, 29041, Note_on_c, 9, 54, 75
2, 29042, Note_on_c, 9, 54, 0
2, 29042, Note_on_c, 9, 42, 0
2, 29066, Note_on_c, 0, 52, 62
2, 29066, Note_on_c, 0, 60, 82
2, 29066, Note_on_c, 0, 48, 64
2, 29066, Note_on_c, 0, 57, 59
2, 29066, Note_on_c, 1, 33, 79
2, 29071, Note_on_c, 9, 36, 45
2, 29071, Note_on_c, 9, 36, 0
2, 29071, Note_on_c, 9, 54, 58
2, 29072, Note_on_c, 9, 54, 0
2, 29080, Note_on_c, 1, 33, 0
2, 29091, Note_on_c, 0, 57, 0
2, 29091, Note_on_c, 0, 52, 0
2, 29091, Note_on_c, 0, 48, 0
2, 29096, Note_on_c, 0, 60, 0
2, 29096, Note_on_c, 0, 62, 62
2, 29097, Note_on_c, 4, 60, 0
2, 29097, Note_on_c, 4, 55, 90
2, 29097, Note_on_c, 4, 67, 76
2, 29098, Note_on_c, 6, 60, 0
2, 29098, Note_on_c, 4, 45, 0
2, 29098, Note_on_c, 6, 62, 59
2, 29099, Note_on_c, 6, 52, 0
2, 29099, Note_on_c, 6, 57, 0
2, 29099, Note_on_c, 6, 67, 55
2, 29099, Note_on_c, 6, 71, 51
2, 29099, Note_on_c, 1, 31, 110
2, 29100, Note_on_c, 0, 62, 0
2, 29101, Note_on_c, 9, 36, 123
2, 29101, Note_on_c, 9, 36, 0
2, 29101, Note_on_c, 9, 53, 86
2, 29101, Note_on_c, 9, 54, 51
2, 29101, Control_c, 0, 84, 60
2, 29101, Note_on_c, 9, 82, 63
2, 29101, Note_on_c, 9, 42, 49
2, 29102, Note_on_c, 9, 42, 0
2, 29102, Note_on_c, 9, 82, 0
2, 29102, Note_on_c, 9, 53, 0
2, 29102, Note_on_c, 9, 54, 0
2, 29102, Control_c, 4, 84, 60
2, 29102, Control_c, 4, 84, 45
2, 29103, Control_c, 6, 84, 60
2, 29104, Control_c, 6, 84, 52
2, 29104, Control_c, 6, 84, 57
2, 29126, Note_on_c, 0, 67, 82
2, 29126, Note_on_c, 0, 62, 79
2, 29126, Note_on_c, 4, 69, 82
2, 29126, Note_on_c, 0, 74, 79
2, 29131, Note_on_c, 1, 31, 0
2, 29131, Note_on_c, 9, 54, 56
2, 29131, Note_on_c, 9, 82, 51
2, 29132, Note_on_c, 9, 82, 0
2, 29132, Note_on_c, 9, 54, 0
2, 29156, Note_on_c, 0, 62, 0
2, 29156, Note_on_c, 0, 74, 0
2, 29156, Note_on_c, 0, 67, 0
2, 29156, Note_on_c, 1, 31, 110
2, 29156, Note_on_c, 0, 62, 91
2, 29157, Note_on_c, 0, 67, 91
2, 29157, Note_on_c, 0, 71, 86
2, 29157, Note_on_c, 0, 74, 82
2, 29160, Note_on_c, 9, 38, 114
2, 29161, Note_on_c, 9, 42, 123
2, 29161, Note_on_c, 9, 54, 85
2, 29161, Note_on_c, 9, 123, 91
2, 29162, Note_on_c, 9, 123, 0
2, 29162, Note_on_c, 9, 38, 0
2, 29162, Note_on_c, 9, 54, 0
2, 29162, Note_on_c, 9, 42, 0
2, 29186, Note_on_c, 4, 62, 64
2, 29191, Note_on_c, 4, 67, 0
2, 29191, Note_on_c, 9, 54, 28
2, 29192, Note_on_c, 9, 54, 0
2, 29201, Note_on_c, 1, 31, 0
2, 29211, Note_on_c, 0, 67, 0
2, 29211, Note_on_c, 0, 74, 0
2, 29211, Note_on_c, 0, 71, 0
2, 29216, Note_on_c, 0, 62, 0
2, 29216, Note_on_c, 1, 31, 79
2, 29216, Note_on_c, 4, 67, 79
2, 29221, Note_on_c, 9, 53, 82
2, 29221, Note_on_c, 9, 42, 41
2, 29221, Note_on_c, 9, 54, 51
2, 29221, Note_on_c, 9, 82, 58
2, 29222, Note_on_c, 9, 82, 0
2, 29222, Note_on_c, 9, 42, 0
2, 29222, Note_on_c, 9, 53, 0
2, 29222, Note_on_c, 9, 54, 0
2, 29226, Note_on_c, 4, 62, 0
2, 29231, Note_on_c, 1, 31, 0
2, 29241, Note_on_c, 4, 55, 0
2, 29246, Note_on_c, 1, 31, 86
2, 29246, Note_on_c, 4, 62, 67
2, 29251, Note_on_c, 9, 54, 49
2, 29251, Note_on_c, 9, 82, 58
2, 29252, Note_on_c, 9, 82, 0
2, 29252, Note_on_c, 9, 54, 0
2, 29261, Note_on_c, 9, 25, 72
2, 29262, Note_on_c, 9, 25, 0
2, 29265, Note_on_c, 1, 31, 0
2, 29266, Note_on_c, 4, 67, 0
2, 29271, Note_on_c, 4, 69, 0
2, 29271, Note_on_c, 4, 62, 0
2, 29276, Note_on_c, 6, 57, 64
2, 29277, Note_on_c, 6, 62, 0
2, 29277, Note_on_c, 6, 67, 0
2, 29277, Note_on_c, 6, 52, 57
2, 29277, Note_on_c, 6, 60, 61
2, 29278, Note_on_c, 6, 71, 0
2, 29278, Note_on_c, 0, 48, 72
2, 29278, Note_on_c, 1, 33, 110
2, 29278, Note_on_c, 0, 60, 72
2, 29279, Note_on_c, 0, 52, 72
2, 29279, Note_on_c, 0, 57, 69
2, 29279, Note_on_c, 4, 45, 90
2, 29281, Note_on_c, 9, 54, 91
2, 29281, Note_on_c, 9, 36, 110
2, 29281, Note_on_c, 9, 36, 0
2, 29281, Note_on_c, 9, 42, 123
2, 29282, Note_on_c, 9, 42, 0
2, 29282, Note_on_c, 9, 54, 0
2, 29291, Control_c, 1, 84, 31
2, 29292, Control_c, 0, 84, 62
2, 29292, Control_c, 0, 84, 67
2, 29293, Control_c, 0, 84, 71
2, 29293, Control_c, 0, 84, 74
2, 29294, Control_c, 4, 84, 55
2, 29294, Control_c, 6, 84, 62
2, 29295, Control_c, 6, 84, 67
2, 29296, Control_c, 6, 84, 71
2, 29306, Note_on_c, 0, 57, 0
2, 29306, Note_on_c, 0, 52, 0
2, 29306, Note_on_c, 0, 60, 0
2, 29306, Note_on_c, 1, 33, 0
2, 29306, Note_on_c, 0, 60, 79
2, 29306, Note_on_c, 0, 52, 69
2, 29306, Note_on_c, 0, 57, 79
2, 29311, Note_on_c, 9, 54, 49
2, 29311, Note_on_c, 9, 54, 0
2, 29331, Note_on_c, 0, 57, 0
2, 29331, Note_on_c, 0, 60, 0
2, 29336, Note_on_c, 0, 48, 0
2, 29336, Note_on_c, 0, 48, 76
2, 29336, Note_on_c, 0, 60, 79
2, 29336, Note_on_c, 1, 33, 106
2, 29336, Note_on_c, 4, 60, 90
2, 29336, Note_on_c, 0, 57, 82
2, 29340, Note_on_c, 9, 36, 114
2, 29341, Note_on_c, 9, 53, 79
2, 29341, Note_on_c, 9, 42, 61
2, 29341, Note_on_c, 9, 54, 53
2, 29341, Note_on_c, 9, 82, 56
2, 29342, Note_on_c, 9, 82, 0
2, 29342, Note_on_c, 9, 53, 0
2, 29342, Note_on_c, 9, 54, 0
2, 29342, Note_on_c, 9, 36, 0
2, 29342, Note_on_c, 9, 42, 0
2, 29361, Note_on_c, 0, 57, 0
2, 29361, Note_on_c, 0, 60, 0
2, 29361, Note_on_c, 0, 52, 0
2, 29366, Note_on_c, 1, 33, 0
2, 29366, Note_on_c, 0, 57, 79
2, 29366, Note_on_c, 0, 60, 79
2, 29366, Note_on_c, 0, 52, 72
2, 29370, Note_on_c, 9, 54, 53
2, 29371, Note_on_c, 9, 82, 58
2, 29372, Note_on_c, 9, 82, 0
2, 29372, Note_on_c, 9, 54, 0
2, 29395, Note_on_c, 0, 60, 0
2, 29396, Note_on_c, 0, 48, 0
2, 29396, Note_on_c, 0, 52, 0
2, 29396, Note_on_c, 1, 33, 110
2, 29396, Note_on_c, 0, 60, 96
2, 29397, Note_on_c, 0, 48, 96
2, 29397, Note_on_c, 0, 52, 82
2, 29397, Note_on_c, 4, 57, 74
2, 29401, Note_on_c, 9, 38, 114
2, 29401, Note_on_c, 9, 42, 127
2, 29401, Note_on_c, 9, 123, 99
2, 29401, Note_on_c, 9, 54, 106
2, 29402, Note_on_c, 9, 54, 0
2, 29402, Note_on_c, 9, 38, 0
2, 29402, Note_on_c, 9, 123, 0
2, 29402, Note_on_c, 9, 42, 0
2, 29426, Note_on_c, 4, 64, 82
2, 29431, Note_on_c, 9, 54, 58
2, 29432, Note_on_c, 9, 54, 0
2, 29445, Note_on_c, 4, 57, 0
2, 29446, Note_on_c, 4, 45, 0
2, 29456, Note_on_c, 0, 48, 0
2, 29456, Note_on_c, 0, 60, 0
2, 29456, Note_on_c, 0, 52, 0
2, 29456, Note_on_c, 0, 57, 0
2, 29456, Note_on_c, 4, 64, 0
2, 29456, Note_on_c, 4, 57, 67
2, 29461, Note_on_c, 9, 54, 51
2, 29461, Note_on_c, 9, 82, 53
2, 29461, Note_on_c, 9, 53, 76
2, 29461, Note_on_c, 9, 53, 0
2, 29461, Note_on_c, 9, 42, 56
2, 29462, Note_on_c, 9, 42, 0
2, 29462, Note_on_c, 9, 82, 0
2, 29462, Note_on_c, 9, 54, 0
2, 29466, Note_on_c, 1, 33, 0
2, 29470, Note_on_c, 4, 57, 0
2, 29471, Note_on_c, 4, 60, 0
2, 29486, Note_on_c, 4, 45, 86
2, 29486, Note_on_c, 0, 60, 89
2, 29486, Note_on_c, 1, 33, 106
2, 29486, Note_on_c, 0, 57, 79
2, 29486, Note_on_c, 0, 48, 74
2, 29486, Note_on_c, 0, 52, 76
2, 29491, Note_on_c, 9, 54, 49
2, 29491, Note_on_c, 9, 82, 56
2, 29491, Note_on_c, 9, 36, 114
2, 29491, Note_on_c, 9, 36, 0
2, 29492, Note_on_c, 9, 54, 0
2, 29492, Note_on_c, 9, 82, 0
2, 29506, Note_on_c, 0, 57, 0
2, 29511, Note_on_c, 0, 48, 0
2, 29511, Note_on_c, 0, 52, 0
2, 29516, Note_on_c, 0, 60, 0
2, 29516, Note_on_c, 4, 60, 90
2, 29521, Note_on_c, 1, 33, 0
2, 29521, Note_on_c, 9, 42, 127
2, 29521, Note_on_c, 9, 42, 0
2, 29521, Note_on_c, 9, 54, 99
2, 29522, Note_on_c, 9, 54, 0
2, 29546, Note_on_c, 0, 60, 82
2, 29546, Note_on_c, 0, 48, 64
2, 29546, Note_on_c, 0, 52, 62
2, 29546, Note_on_c, 0, 57, 59
2, 29546, Note_on_c, 1, 33, 102
2, 29550, Note_on_c, 9, 36, 35
2, 29551, Note_on_c, 9, 54, 45
2, 29552, Note_on_c, 9, 54, 0
2, 29552, Note_on_c, 9, 36, 0
2, 29561, Note_on_c, 1, 33, 0
2, 29561, Note_on_c, 1, 31, 102
2, 29561, Note_on_c, 0, 62, 62
2, 29562, Note_on_c, 0, 48, 0
2, 29562, Note_on_c, 0, 60, 0
2, 29562, Note_on_c, 0, 67, 59
2, 29563, Note_on_c, 0, 52, 0
2, 29563, Note_on_c, 0, 57, 0
2, 29563, Note_on_c, 0, 71, 64
2, 29563, Note_on_c, 0, 74, 82
2, 29564, Note_on_c, 4, 60, 0
2, 29564, Note_on_c, 4, 45, 0
2, 29564, Note_on_c, 4, 55, 86
2, 29564, Note_on_c, 4, 71, 82
2, 29565, Note_on_c, 6, 52, 0
2, 29565, Note_on_c, 6, 57, 0
2, 29565, Note_on_c, 6, 71, 51
2, 29565, Note_on_c, 6, 67, 55
2, 29566, Note_on_c, 6, 60, 0
2, 29566, Note_on_c, 1, 31, 0
2, 29566, Note_on_c, 6, 62, 59
2, 29571, Note_on_c, 0, 71, 0
2, 29571, Note_on_c, 0, 62, 0
2, 29571, Note_on_c, 0, 67, 0
2, 29576, Note_on_c, 4, 67, 74
2, 29576, Note_on_c, 1, 31, 106
2, 29576, Note_on_c, 0, 62, 74
2, 29576, Note_on_c, 0, 67, 76
2, 29576, Note_on_c, 0, 71, 76
2, 29580, Note_on_c, 9, 36, 127
2, 29581, Note_on_c, 9, 54, 45
2, 29581, Note_on_c, 9, 42, 51
2, 29581, Note_on_c, 9, 82, 56
2, 29581, Note_on_c, 9, 53, 82
2, 29582, Note_on_c, 9, 53, 0
2, 29582, Note_on_c, 9, 82, 0
2, 29582, Note_on_c, 9, 36, 0
2, 29582, Note_on_c, 9, 42, 0
2, 29582, Note_on_c, 9, 54, 0
2, 29601, Control_c, 1, 84, 33
2, 29601, Control_c, 0, 84, 60
2, 29602, Control_c, 0, 84, 48
2, 29602, Control_c, 0, 84, 52
2, 29603, Control_c, 0, 84, 57
2, 29603, Control_c, 4, 84, 60
2, 29604, Control_c, 4, 84, 45
2, 29605, Note_on_c, 0, 74, 0
2, 29605, Control_c, 4, 84, 57
2, 29605, Control_c, 6, 84, 57
2, 29606, Note_on_c, 0, 67, 0
2, 29606, Note_on_c, 0, 62, 0
2, 29606, Note_on_c, 4, 62, 82
2, 29606, Control_c, 6, 84, 60
2, 29606, Note_on_c, 0, 62, 79
2, 29606, Note_on_c, 0, 67, 82
2, 29606, Control_c, 6, 84, 52
2, 29606, Note_on_c, 0, 74, 79
2, 29611, Note_on_c, 1, 31, 0
2, 29611, Note_on_c, 9, 54, 53
2, 29611, Note_on_c, 9, 82, 58
2, 29612, Note_on_c, 9, 82, 0
2, 29612, Note_on_c, 9, 54, 0
2, 29630, Note_on_c, 0, 67, 0
2, 29631, Note_on_c, 0, 74, 0
2, 29636, Note_on_c, 0, 62, 0
2, 29636, Note_on_c, 0, 71, 0
2, 29636, Note_on_c, 0, 62, 91
2, 29636, Note_on_c, 0, 67, 91
2, 29636, Note_on_c, 1, 31, 114
2, 29636, Note_on_c, 0, 71, 86
2, 29637, Note_on_c, 0, 74, 82
2, 29641, Note_on_c, 9, 38, 114
2, 29641, Note_on_c, 9, 38, 0
2, 29641, Note_on_c, 9, 42, 123
2, 29641, Note_on_c, 9, 123, 85
2, 29641, Note_on_c, 9, 54, 99
2, 29642, Note_on_c, 9, 54, 0
2, 29642, Note_on_c, 9, 123, 0
2, 29642, Note_on_c, 9, 42, 0
2, 29646, Note_on_c, 4, 67, 0
2, 29666, Note_on_c, 4, 67, 67
2, 29671, Note_on_c, 4, 71, 0
2, 29671, Note_on_c, 9, 54, 56
2, 29671, Note_on_c, 9, 54, 0
2, 29676, Note_on_c, 1, 31, 0
2, 29680, Note_on_c, 4, 62, 0
2, 29691, Note_on_c, 0, 67, 0
2, 29691, Note_on_c, 0, 71, 0
2, 29691, Note_on_c, 0, 74, 0
2, 29696, Note_on_c, 0, 62, 0
2, 29696, Note_on_c, 1, 31, 79
2, 29696, Note_on_c, 4, 71, 86
2, 29701, Note_on_c, 4, 67, 0
2, 29701, Note_on_c, 9, 53, 86
2, 29701, Note_on_c, 9, 53, 0
2, 29701, Note_on_c, 9, 42, 75
2, 29701, Note_on_c, 9, 54, 38
2, 29701, Note_on_c, 9, 82, 49
2, 29702, Note_on_c, 9, 82, 0
2, 29702, Note_on_c, 9, 54, 0
2, 29702, Note_on_c, 9, 42, 0
2, 29710, Note_on_c, 1, 31, 0
2, 29726, Note_on_c, 1, 31, 106
2, 29726, Note_on_c, 4, 67, 76
2, 29731, Note_on_c, 9, 54, 45
2, 29731, Note_on_c, 9, 54, 0
2, 29731, Note_on_c, 9, 82, 56
2, 29732, Note_on_c, 9, 82, 0
2, 29735, Note_on_c, 4, 55, 0
2, 29751, Note_on_c, 4, 71, 0
2, 29756, Note_on_c, 1, 31, 0
2, 29756, Note_on_c, 6, 71, 0
2, 29756, Note_on_c, 6, 62, 0
2, 29756, Note_on_c, 4, 67, 0
2, 29756, Note_on_c, 6, 67, 0
2, 29756, Note_on_c, 1, 31, 106
2, 29757, Note_on_c, 0, 67, 69
2, 29757, Note_on_c, 0, 62, 72
2, 29757, Note_on_c, 4, 55, 86
2, 29757, Note_on_c, 6, 62, 59
2, 29757, Note_on_c, 0, 74, 72
2, 29757, Note_on_c, 0, 71, 72
2, 29758, Note_on_c, 6, 67, 55
2, 29758, Note_on_c, 6, 71, 51
2, 29760, Note_on_c, 9, 36, 127
2, 29761, Note_on_c, 9, 42, 127
2, 29761, Note_on_c, 9, 54, 85
2, 29762, Note_on_c, 9, 54, 0
2, 29762, Note_on_c, 9, 36, 0
2, 29762, Note_on_c, 9, 42, 0
2, 29771, Note_on_c, 0, 74, 0
2, 29771, Note_on_c, 0, 67, 0
2, 29776, Note_on_c, 0, 62, 0
2, 29786, Note_on_c, 0, 62, 69
2, 29786, Note_on_c, 0, 67, 79
2, 29786, Note_on_c, 0, 74, 79
2, 29790, Note_on_c, 9, 54, 75
2, 29791, Note_on_c, 1, 31, 0
2, 29792, Note_on_c, 9, 54, 0
2, 29806, Note_on_c, 0, 71, 0
2, 29815, Note_on_c, 0, 67, 0
2, 29816, Note_on_c, 0, 74, 0
2, 29816, Note_on_c, 1, 31, 110
2, 29816, Note_on_c, 0, 67, 82
2, 29816, Note_on_c, 0, 71, 76
2, 29816, Note_on_c, 0, 74, 79
2, 29817, Note_on_c, 4, 67, 86
2, 29821, Note_on_c, 9, 54, 72
2, 29821, Note_on_c, 9, 53, 86
2, 29821, Note_on_c, 9, 82, 53
2, 29821, Note_on_c, 9, 42, 66
2, 29821, Note_on_c, 9, 36, 86
2, 29822, Note_on_c, 9, 36, 0
2, 29822, Note_on_c, 9, 53, 0
2, 29822, Note_on_c, 9, 42, 0
2, 29822, Note_on_c, 9, 54, 0
2, 29822, Note_on_c, 9, 82, 0
2, 29831, Note_on_c, 4, 55, 0
2, 29840, Note_on_c, 0, 62, 0
2, 29841, Note_on_c, 0, 74, 0
2, 29841, Note_on_c, 0, 67, 0
2, 29846, Note_on_c, 0, 62, 72
2, 29846, Note_on_c, 0, 67, 79
2, 29846, Note_on_c, 0, 74, 79
2, 29851, Note_on_c, 1, 31, 0
2, 29851, Note_on_c, 9, 54, 72
2, 29851, Note_on_c, 9, 54, 0
2, 29851, Note_on_c, 9, 82, 75
2, 29852, Note_on_c, 9, 82, 0
2, 29871, Note_on_c, 0, 71, 0
2, 29876, Note_on_c, 0, 74, 0
2, 29876, Note_on_c, 0, 62, 0
2, 29876, Note_on_c, 1, 31, 106
2, 29876, Note_on_c, 0, 62, 82
2, 29876, Note_on_c, 0, 71, 96
2, 29876, Note_on_c, 0, 74, 96
2, 29877, Note_on_c, 4, 62, 76
2, 29881, Note_on_c, 9, 123, 99
2, 29881, Note_on_c, 9, 42, 123
2, 29881, Note_on_c, 9, 54, 85
2, 29881, Note_on_c, 9, 38, 114
2, 29881, Note_on_c, 9, 38, 0
2, 29882, Note_on_c, 9, 54, 0
2, 29882, Note_on_c, 9, 123, 0
2, 29882, Note_on_c, 9, 42, 0
2, 29906, Note_on_c, 4, 69, 90
2, 29911, Note_on_c, 9, 54, 69
2, 29911, Note_on_c, 9, 54, 0
2, 29926, Note_on_c, 4, 62, 0
2, 29931, Note_on_c, 0, 74, 0
2, 29936, Note_on_c, 0, 62, 0
2, 29936, Note_on_c, 0, 71, 0
2, 29936, Note_on_c, 0, 67, 0
2, 29940, Note_on_c, 9, 53, 82
2, 29941, Note_on_c, 9, 53, 0
2, 29941, Note_on_c, 1, 31, 0
2, 29941, Note_on_c, 9, 42, 51
2, 29941, Note_on_c, 9, 54, 58
2, 29941, Note_on_c, 9, 82, 58
2, 29942, Note_on_c, 9, 82, 0
2, 29942, Note_on_c, 9, 54, 0
2, 29942, Note_on_c, 9, 42, 0
2, 29956, Note_on_c, 4, 69, 0
2, 29961, Note_on_c, 4, 67, 0
2, 29966, Note_on_c, 1, 31, 110
2, 29966, Note_on_c, 0, 62, 76
2, 29966, Note_on_c, 0, 67, 79
2, 29966, Note_on_c, 0, 74, 89
2, 29966, Note_on_c, 4, 55, 90
2, 29966, Note_on_c, 0, 71, 74
2, 29970, Note_on_c, 9, 36, 114
2, 29971, Note_on_c, 9, 54, 53
2, 29971, Note_on_c, 9, 82, 56
2, 29972, Note_on_c, 9, 82, 0
2, 29972, Note_on_c, 9, 36, 0
2, 29972, Note_on_c, 9, 54, 0
2, 29986, Note_on_c, 0, 67, 0
2, 29990, Note_on_c, 0, 62, 0
2, 29991, Note_on_c, 0, 71, 0
2, 29996, Note_on_c, 1, 31, 0
2, 29996, Note_on_c, 0, 74, 0
2, 29996, Note_on_c, 4, 67, 76
2, 30000, Note_on_c, 9, 42, 123
2, 30001, Note_on_c, 9, 54, 75
2, 30002, Note_on_c, 9, 54, 0
2, 30002, Note_on_c, 9, 42, 0
2, 30025, Note_on_c, 1, 31, 79
2, 30026, Note_on_c, 0, 62, 62
2, 30026, Note_on_c, 0, 67, 59
2, 30026, Note_on_c, 0, 71, 64
2, 30026, Note_on_c, 0, 74, 82
2, 30026, Note_on_c, 4, 62, 51
2, 30031, Note_on_c, 9, 36, 45
2, 30031, Note_on_c, 9, 36, 0
2, 30031, Note_on_c, 9, 54, 58
2, 30032, Note_on_c, 9, 54, 0
2, 30041, Note_on_c, 1, 31, 0
2, 30056, Note_on_c, 0, 71, 0
2, 30056, Note_on_c, 0, 67, 0
2, 30056, Note_on_c, 0, 62, 0
2, 30056, Note_on_c, 1, 31, 110
2, 30056, Note_on_c, 0, 62, 74
2, 30056, Note_on_c, 0, 67, 76
2, 30057, Note_on_c, 0, 71, 76
2, 30061, Note_on_c, 9, 82, 63
2, 30061, Note_on_c, 9, 53, 86
2, 30061, Note_on_c, 9, 54, 51
2, 30061, Note_on_c, 9, 42, 49
2, 30061, Note_on_c, 9, 36, 123
2, 30061, Note_on_c, 9, 36, 0
2, 30062, Note_on_c, 9, 42, 0
2, 30062, Note_on_c, 9, 82, 0
2, 30062, Note_on_c, 9, 54, 0
2, 30062, Note_on_c, 9, 53, 0
2, 30081, Note_on_c, 0, 62, 0
2, 30081, Note_on_c, 0, 67, 0
2, 30086, Note_on_c, 0, 74, 0
2, 30086, Note_on_c, 0, 74, 79
2, 30086, Note_on_c, 4, 69, 82
2, 30086, Note_on_c, 0, 62, 79
2, 30086, Note_on_c, 0, 67, 82
2, 30091, Note_on_c, 1, 31, 0
2, 30091, Note_on_c, 9, 54, 56
2, 30091, Note_on_c, 9, 54, 0
2, 30091, Note_on_c, 9, 82, 51
2, 30092, Note_on_c, 9, 82, 0
2, 30095, Note_on_c, 4, 62, 0
2, 30111, Note_on_c, 0, 71, 0
2, 30116, Note_on_c, 0, 74, 0
2, 30116, Note_on_c, 0, 62, 0
2, 30116, Note_on_c, 0, 67, 0
2, 30116, Note_on_c, 1, 31, 110
2, 30116, Note_on_c, 0, 62, 91
2, 30116, Note_on_c, 0, 67, 91
2, 30116, Note_on_c, 0, 71, 86
2, 30117, Note_on_c, 0, 74, 82
2, 30120, Note_on_c, 9, 38, 114
2, 30121, Note_on_c, 9, 38, 0
2, 30121, Note_on_c, 9, 42, 123
2, 30121, Note_on_c, 9, 123, 91
2, 30121, Note_on_c, 9, 54, 85
2, 30122, Note_on_c, 9, 54, 0
2, 30122, Note_on_c, 9, 123, 0
2, 30122, Note_on_c, 9, 42, 0
2, 30146, Note_on_c, 4, 62, 64
2, 30150, Note_on_c, 9, 54, 28
2, 30151, Note_on_c, 9, 54, 0
2, 30151, Note_on_c, 4, 67, 0
2, 30161, Note_on_c, 1, 31, 0
2, 30171, Note_on_c, 0, 67, 0
2, 30171, Note_on_c, 0, 74, 0
2, 30171, Note_on_c, 0, 71, 0
2, 30175, Note_on_c, 0, 62, 0
2, 30176, Note_on_c, 1, 31, 79
2, 30176, Note_on_c, 4, 67, 79
2, 30180, Note_on_c, 9, 53, 82
2, 30181, Note_on_c, 9, 42, 41
2, 30181, Note_on_c, 9, 54, 51
2, 30181, Note_on_c, 9, 82, 58
2, 30182, Note_on_c, 9, 82, 0
2, 30182, Note_on_c, 9, 42, 0
2, 30182, Note_on_c, 9, 53, 0
2, 30182, Note_on_c, 9, 54, 0
2, 30186, Note_on_c, 4, 62, 0
2, 30191, Note_on_c, 1, 31, 0
2, 30200, Note_on_c, 4, 55, 0
2, 30205, Note_on_c, 1, 31, 86
2, 30206, Note_on_c, 4, 62, 67
2, 30211, Note_on_c, 9, 54, 49
2, 30211, Note_on_c, 9, 82, 58
2, 30212, Note_on_c, 9, 82, 0
2, 30212, Note_on_c, 9, 54, 0
2, 30221, Note_on_c, 9, 25, 72
2, 30222, Note_on_c, 9, 25, 0
2, 30225, Note_on_c, 1, 31, 0
2, 30226, Note_on_c, 4, 67, 0
2, 30230, Note_on_c, 4, 62, 0
2, 30231, Note_on_c, 4, 69, 0
2, 30235, Note_on_c, 1, 31, 110
2, 30236, Note_on_c, 4, 55, 90
2, 30236, Note_on_c, 0, 74, 72
2, 30236, Note_on_c, 0, 71, 72
2, 30236, Note_on_c, 0, 67, 69
2, 30236, Note_on_c, 0, 62, 72
2, 30241, Note_on_c, 9, 36, 110
2, 30241, Note_on_c, 9, 36, 0
2, 30241, Note_on_c, 9, 42, 123
2, 30241, Note_on_c, 9, 54, 91
2, 30242, Note_on_c, 9, 54, 0
2, 30242, Note_on_c, 9, 42, 0
2, 30260, Note_on_c, 0, 62, 0
2, 30261, Note_on_c, 0, 67, 0
2, 30261, Note_on_c, 0, 74, 0
2, 30266, Note_on_c, 1, 31, 0
2, 30266, Note_on_c, 0, 62, 69
2, 30266, Note_on_c, 0, 67, 79
2, 30266, Note_on_c, 0, 74, 79
2, 30271, Note_on_c, 9, 54, 49
2, 30271, Note_on_c, 9, 54, 0
2, 30291, Note_on_c, 0, 71, 0
2, 30296, Note_on_c, 0, 74, 0
2, 30296, Note_on_c, 0, 67, 0
2, 30296, Note_on_c, 0, 71, 76
2, 30296, Note_on_c, 0, 74, 79
2, 30296, Note_on_c, 4, 71, 90
2, 30296, Note_on_c, 1, 31, 106
2, 30296, Note_on_c, 0, 67, 82
2, 30300, Note_on_c, 9, 36, 114
2, 30301, Note_on_c, 9, 36, 0
2, 30301, Note_on_c, 9, 42, 61
2, 30301, Note_on_c, 9, 53, 79
2, 30301, Note_on_c, 9, 82, 56
2, 30301, Note_on_c, 9, 54, 53
2, 30302, Note_on_c, 9, 54, 0
2, 30302, Note_on_c, 9, 82, 0
2, 30302, Note_on_c, 9, 42, 0
2, 30302, Note_on_c, 9, 53, 0
2, 30321, Note_on_c, 0, 67, 0
2, 30321, Note_on_c, 0, 74, 0
2, 30321, Note_on_c, 0, 62, 0
2, 30326, Note_on_c, 1, 31, 0
2, 30326, Note_on_c, 0, 62, 72
2, 30326, Note_on_c, 0, 67, 79
2, 30326, Note_on_c, 0, 74, 79
2, 30330, Note_on_c, 9, 54, 53
2, 30331, Note_on_c, 9, 54, 0
2, 30331, Note_on_c, 9, 82, 58
2, 30332, Note_on_c, 9, 82, 0
2, 30351, Note_on_c, 0, 71, 0
2, 30356, Note_on_c, 0, 74, 0
2, 30356, Note_on_c, 0, 62, 0
2, 30356, Note_on_c, 1, 31, 110
2, 30356, Note_on_c, 0, 62, 82
2, 30356, Note_on_c, 0, 74, 96
2, 30356, Note_on_c, 4, 67, 76
2, 30356, Note_on_c, 0, 71, 96
2, 30360, Note_on_c, 9, 38, 114
2, 30361, Note_on_c, 9, 38, 0
2, 30361, Note_on_c, 9, 123, 99
2, 30361, Note_on_c, 9, 54, 106
2, 30361, Note_on_c, 9, 42, 127
2, 30361, Note_on_c, 9, 42, 0
2, 30362, Note_on_c, 9, 54, 0
2, 30362, Note_on_c, 9, 123, 0
2, 30385, Note_on_c, 4, 62, 90
2, 30390, Note_on_c, 9, 54, 58
2, 30391, Note_on_c, 9, 54, 0
2, 30415, Note_on_c, 0, 67, 0
2, 30416, Note_on_c, 0, 71, 0
2, 30416, Note_on_c, 0, 62, 0
2, 30416, Note_on_c, 0, 74, 0
2, 30420, Note_on_c, 9, 53, 76
2, 30421, Note_on_c, 9, 53, 0
2, 30421, Note_on_c, 9, 42, 56
2, 30421, Note_on_c, 9, 54, 51
2, 30421, Note_on_c, 9, 82, 53
2, 30422, Note_on_c, 9, 82, 0
2, 30422, Note_on_c, 9, 54, 0
2, 30422, Note_on_c, 9, 42, 0
2, 30426, Note_on_c, 4, 55, 0
2, 30426, Note_on_c, 1, 31, 0
2, 30435, Note_on_c, 4, 62, 0
2, 30445, Note_on_c, 4, 71, 0
2, 30446, Note_on_c, 4, 55, 86
2, 30446, Note_on_c, 0, 67, 79
2, 30446, Note_on_c, 0, 74, 89
2, 30446, Note_on_c, 0, 71, 74
2, 30446, Note_on_c, 1, 31, 106
2, 30446, Note_on_c, 0, 62, 76
2, 30451, Note_on_c, 4, 67, 0
2, 30451, Note_on_c, 9, 82, 56
2, 30451, Note_on_c, 9, 36, 114
2, 30451, Note_on_c, 9, 36, 0
2, 30451, Note_on_c, 9, 54, 49
2, 30452, Note_on_c, 9, 54, 0
2, 30452, Note_on_c, 9, 82, 0
2, 30465, Note_on_c, 0, 67, 0
2, 30466, Note_on_c, 0, 71, 0
2, 30470, Note_on_c, 0, 62, 0
2, 30476, Note_on_c, 0, 74, 0
2, 30476, Note_on_c, 4, 71, 82
2, 30481, Note_on_c, 1, 31, 0
2, 30481, Note_on_c, 9, 42, 127
2, 30481, Note_on_c, 9, 42, 0
2, 30481, Note_on_c, 9, 54, 99
2, 30482, Note_on_c, 9, 54, 0
2, 30506, Note_on_c, 0, 62, 62
2, 30506, Note_on_c, 1, 31, 102
2, 30506, Note_on_c, 0, 74, 82
2, 30506, Note_on_c, 0, 71, 64
2, 30506, Note_on_c, 0, 67, 59
2, 30510, Note_on_c, 9, 36, 35
2, 30511, Note_on_c, 9, 36, 0
2, 30511, Note_on_c, 9, 54, 45
2, 30512, Note_on_c, 9, 54, 0
2, 30525, Note_on_c, 1, 31, 0
2, 30531, Note_on_c, 0, 67, 0
2, 30531, Note_on_c, 0, 71, 0
2, 30531, Note_on_c, 0, 62, 0
2, 30536, Note_on_c, 0, 67, 76
2, 30536, Note_on_c, 0, 71, 76
2, 30536, Note_on_c, 1, 31, 106
2, 30536, Note_on_c, 0, 62, 74
2, 30536, Note_on_c, 4, 67, 74
2, 30540, Note_on_c, 9, 36, 127
2, 30541, Note_on_c, 9, 36, 0
2, 30541, Note_on_c, 9, 54, 45
2, 30541, Note_on_c, 9, 82, 56
2, 30541, Note_on_c, 9, 53, 82
2, 30541, Note_on_c, 9, 53, 0
2, 30541, Note_on_c, 9, 42, 51
2, 30542, Note_on_c, 9, 42, 0
2, 30542, Note_on_c, 9, 82, 0
2, 30542, Note_on_c, 9, 54, 0
2, 30565, Note_on_c, 0, 74, 0
2, 30566, Note_on_c, 0, 62, 0
2, 30566, Note_on_c, 0, 67, 0
2, 30566, Note_on_c, 0, 74, 79
2, 30566, Note_on_c, 4, 62, 82
2, 30566, Note_on_c, 0, 62, 79
2, 30566, Note_on_c, 0, 67, 82
2, 30570, Note_on_c, 9, 54, 53
2, 30571, Note_on_c, 9, 54, 0
2, 30571, Note_on_c, 1, 31, 0
2, 30571, Note_on_c, 9, 82, 58
2, 30572, Note_on_c, 9, 82, 0
2, 30590, Note_on_c, 0, 67, 0
2, 30591, Note_on_c, 0, 74, 0
2, 30595, Note_on_c, 0, 62, 0
2, 30596, Note_on_c, 0, 71, 0
2, 30596, Note_on_c, 0, 62, 91
2, 30596, Note_on_c, 0, 71, 86
2, 30596, Note_on_c, 1, 31, 114
2, 30596, Note_on_c, 0, 74, 82
2, 30596, Note_on_c, 0, 67, 91
2, 30600, Note_on_c, 9, 38, 114
2, 30601, Note_on_c, 9, 38, 0
2, 30601, Note_on_c, 9, 42, 123
2, 30601, Note_on_c, 9, 123, 85
2, 30601, Note_on_c, 9, 54, 99
2, 30602, Note_on_c, 9, 54, 0
2, 30602, Note_on_c, 9, 123, 0
2, 30602, Note_on_c, 9, 42, 0
2, 30606, Note_on_c, 4, 67, 0
2, 30625, Note_on_c, 4, 67, 67
2, 30630, Note_on_c, 9, 54, 56
2, 30631, Note_on_c, 9, 54, 0
2, 30631, Note_on_c, 4, 71, 0
2, 30636, Note_on_c, 1, 31, 0
2, 30641, Note_on_c, 4, 62, 0
2, 30650, Note_on_c, 0, 67, 0
2, 30651, Note_on_c, 0, 71, 0
2, 30651, Note_on_c, 0, 74, 0
2, 30655, Note_on_c, 0, 62, 0
2, 30655, Note_on_c, 1, 31, 79
2, 30656, Note_on_c, 4, 71, 86
2, 30661, Note_on_c, 4, 67, 0
2, 30661, Note_on_c, 9, 42, 75
2, 30661, Note_on_c, 9, 53, 86
2, 30661, Note_on_c, 9, 53, 0
2, 30661, Note_on_c, 9, 82, 49
2, 30661, Note_on_c, 9, 54, 38
2, 30662, Note_on_c, 9, 54, 0
2, 30662, Note_on_c, 9, 82, 0
2, 30662, Note_on_c, 9, 42, 0
2, 30670, Note_on_c, 1, 31, 0
2, 30686, Note_on_c, 1, 31, 106
2, 30686, Note_on_c, 4, 67, 76
2, 30690, Note_on_c, 9, 54, 45
2, 30691, Note_on_c, 9, 54, 0
2, 30691, Note_on_c, 9, 82, 56
2, 30692, Note_on_c, 9, 82, 0
2, 30695, Note_on_c, 4, 55, 0
2, 30696, Note_on_c, 1, 31, 106
2, 30707, Note_on_c, 1, 31, 106
2, 30711, Note_on_c, 4, 71, 0
2, 30716, Note_on_c, 6, 71, 0
2, 30716, Note_on_c, 6, 67, 0
2, 30716, Note_on_c, 1, 31, 0
2, 30716, Note_on_c, 6, 62, 0
2, 30716, Note_on_c, 4, 67, 0
2, 30718, Note_on_c, 0, 74, 72
2, 30718, Note_on_c, 0, 67, 69
2, 30718, Note_on_c, 0, 71, 72
2, 30718, Note_on_c, 1, 31, 106
2, 30718, Note_on_c, 0, 62, 72
2, 30718, Note_on_c, 4, 55, 86
2, 30719, Note_on_c, 6, 62, 59
2, 30719, Note_on_c, 6, 71, 51
2, 30719, Note_on_c, 6, 67, 55
2, 30722, Note_on_c, 1, 31, 0
2, 30722, Note_on_c, 9, 42, 127
2, 30722, Note_on_c, 9, 36, 127
2, 30722, Note_on_c, 9, 54, 85
2, 30723, Note_on_c, 9, 54, 0
2, 30723, Note_on_c, 9, 36, 0
2, 30723, Note_on_c, 9, 42, 0
2, 30726, Note_on_c, 1, 31, 0
2, 30732, Note_on_c, 0, 67, 0
2, 30732, Note_on_c, 0, 74, 0
2, 30732, Note_on_c, 1, 31, 0
2, 30732, Note_on_c, 1, 33, 106
2, 30733, Note_on_c, 0, 62, 0
2, 30733, Note_on_c, 0, 60, 72
2, 30733, Note_on_c, 0, 48, 72
2, 30734, Note_on_c, 4, 55, 0
2, 30734, Note_on_c, 0, 71, 0
2, 30734, Note_on_c, 6, 60, 61
2, 30734, Note_on_c, 4, 45, 86
2, 30735, Note_on_c, 6, 67, 0
2, 30735, Note_on_c, 6, 62, 0
2, 30735, Note_on_c, 6, 57, 64
2, 30735, Note_on_c, 6, 52, 57
2, 30736, Note_on_c, 6, 71, 0
2, 30737, Note_on_c, 0, 60, 0
2, 30741, Control_c, 1, 84, 31
2, 30741, Control_c, 0, 84, 62
2, 30742, Control_c, 0, 84, 71
2, 30743, Control_c, 4, 84, 55
2, 30743, Control_c, 6, 84, 62
2, 30744, Control_c, 6, 84, 71
2, 30744, Control_c, 6, 84, 67
2, 30747, Note_on_c, 0, 52, 69
2, 30747, Note_on_c, 0, 60, 79
2, 30747, Note_on_c, 0, 57, 79
2, 30752, Note_on_c, 1, 33, 0
2, 30752, Note_on_c, 9, 54, 75
2, 30753, Note_on_c, 9, 54, 0
2, 30767, Note_on_c, 0, 48, 0
2, 30772, Note_on_c, 0, 57, 0
2, 30772, Note_on_c, 0, 60, 0
2, 30777, Note_on_c, 1, 33, 110
2, 30777, Note_on_c, 0, 57, 82
2, 30777, Note_on_c, 4, 60, 90
2, 30777, Note_on_c, 0, 60, 79
2, 30777, Note_on_c, 0, 48, 76
2, 30782, Note_on_c, 9, 36, 86
2, 30782, Note_on_c, 9, 42, 66
2, 30782, Note_on_c, 9, 54, 72
2, 30782, Note_on_c, 9, 53, 86
2, 30782, Note_on_c, 9, 82, 53
2, 30783, Note_on_c, 9, 82, 0
2, 30783, Note_on_c, 9, 42, 0
2, 30783, Note_on_c, 9, 53, 0
2, 30783, Note_on_c, 9, 36, 0
2, 30783, Note_on_c, 9, 54, 0
2, 30802, Note_on_c, 0, 52, 0
2, 30807, Note_on_c, 0, 60, 0
2, 30807, Note_on_c, 0, 57, 0
2, 30807, Note_on_c, 0, 57, 79
2, 30807, Note_on_c, 0, 52, 72
2, 30807, Note_on_c, 0, 60, 79
2, 30812, Note_on_c, 1, 33, 0
2, 30812, Note_on_c, 9, 82, 75
2, 30812, Note_on_c, 9, 54, 72
2, 30812, Note_on_c, 9, 54, 0
2, 30813, Note_on_c, 9, 82, 0
2, 30832, Note_on_c, 0, 52, 0
2, 30832, Note_on_c, 0, 48, 0
2, 30832, Note_on_c, 0, 60, 0
2, 30837, Note_on_c, 0, 48, 96
2, 30837, Note_on_c, 4, 57, 69
2, 30837, Note_on_c, 0, 60, 96
2, 30837, Note_on_c, 1, 33, 106
2, 30837, Note_on_c, 0, 52, 82
2, 30841, Note_on_c, 9, 123, 99
2, 30842, Note_on_c, 9, 123, 0
2, 30842, Note_on_c, 9, 54, 85
2, 30842, Note_on_c, 9, 42, 123
2, 30842, Note_on_c, 9, 38, 114
2, 30843, Note_on_c, 9, 38, 0
2, 30843, Note_on_c, 9, 42, 0
2, 30843, Note_on_c, 9, 54, 0
2, 30867, Note_on_c, 4, 64, 86
2, 30871, Note_on_c, 9, 54, 69
2, 30873, Note_on_c, 9, 54, 0
2, 30877, Note_on_c, 4, 45, 0
2, 30892, Note_on_c, 0, 57, 0
2, 30897, Note_on_c, 0, 60, 0
2, 30897, Note_on_c, 0, 52, 0
2, 30897, Note_on_c, 0, 48, 0
2, 30902, Note_on_c, 1, 33, 0
2, 30902, Note_on_c, 9, 82, 58
2, 30902, Note_on_c, 9, 53, 82
2, 30902, Note_on_c, 9, 54, 58
2, 30902, Note_on_c, 9, 42, 51
2, 30903, Note_on_c, 9, 42, 0
2, 30903, Note_on_c, 9, 54, 0
2, 30903, Note_on_c, 9, 82, 0
2, 30903, Note_on_c, 9, 53, 0
2, 30907, Note_on_c, 4, 64, 0
2, 30922, Note_on_c, 4, 60, 0
2, 30927, Note_on_c, 4, 57, 0
2, 30927, Note_on_c, 0, 48, 74
2, 30927, Note_on_c, 0, 57, 79
2, 30927, Note_on_c, 0, 52, 76
2, 30927, Note_on_c, 1, 33, 110
2, 30927, Note_on_c, 0, 60, 89
2, 30928, Note_on_c, 4, 45, 86
2, 30932, Note_on_c, 9, 82, 56
2, 30932, Note_on_c, 9, 36, 114
2, 30932, Note_on_c, 9, 54, 53
2, 30933, Note_on_c, 9, 54, 0
2, 30933, Note_on_c, 9, 82, 0
2, 30933, Note_on_c, 9, 36, 0
2, 30947, Note_on_c, 0, 52, 0
2, 30947, Note_on_c, 0, 48, 0
2, 30947, Note_on_c, 0, 57, 0
2, 30952, Note_on_c, 0, 60, 0
2, 30957, Note_on_c, 1, 33, 0
2, 30957, Note_on_c, 4, 60, 80
2, 30962, Note_on_c, 9, 42, 123
2, 30962, Note_on_c, 9, 54, 75
2, 30963, Note_on_c, 9, 54, 0
2, 30963, Note_on_c, 9, 42, 0
2, 30987, Note_on_c, 0, 48, 64
2, 30987, Note_on_c, 0, 57, 59
2, 30987, Note_on_c, 0, 60, 82
2, 30987, Note_on_c, 1, 33, 79
2, 30987, Note_on_c, 0, 52, 62
2, 30992, Note_on_c, 9, 54, 58
2, 30992, Note_on_c, 9, 36, 45
2, 30992, Note_on_c, 9, 36, 0
2, 30993, Note_on_c, 9, 54, 0
2, 31001, Note_on_c, 1, 33, 0
2, 31012, Note_on_c, 0, 57, 0
2, 31012, Note_on_c, 0, 52, 0
2, 31012, Note_on_c, 0, 48, 0
2, 31017, Note_on_c, 0, 60, 0
2, 31017, Note_on_c, 0, 62, 62
2, 31018, Note_on_c, 4, 60, 0
2, 31018, Note_on_c, 4, 55, 90
2, 31018, Note_on_c, 4, 67, 76
2, 31019, Note_on_c, 6, 60, 0
2, 31019, Note_on_c, 4, 45, 0
2, 31019, Note_on_c, 6, 62, 59
2, 31020, Note_on_c, 6, 52, 0
2, 31020, Note_on_c, 6, 57, 0
2, 31020, Note_on_c, 6, 71, 51
2, 31020, Note_on_c, 6, 67, 55
2, 31020, Note_on_c, 1, 31, 110
2, 31021, Note_on_c, 0, 62, 0
2, 31022, Note_on_c, 9, 53, 86
2, 31022, Note_on_c, 9, 54, 51
2, 31022, Note_on_c, 9, 82, 63
2, 31022, Note_on_c, 9, 36, 123
2, 31022, Note_on_c, 9, 36, 0
2, 31022, Note_on_c, 9, 42, 49
2, 31023, Note_on_c, 9, 42, 0
2, 31023, Note_on_c, 9, 54, 0
2, 31023, Note_on_c, 9, 82, 0
2, 31023, Note_on_c, 9, 53, 0
2, 31026, Control_c, 0, 84, 60
2, 31027, Control_c, 4, 84, 45
2, 31027, Control_c, 4, 84, 60
2, 31028, Control_c, 6, 84, 52
2, 31028, Control_c, 6, 84, 60
2, 31029, Control_c, 6, 84, 57
2, 31047, Note_on_c, 0, 67, 82
2, 31047, Note_on_c, 0, 74, 79
2, 31047, Note_on_c, 4, 69, 82
2, 31047, Note_on_c, 0, 62, 79
2, 31052, Note_on_c, 1, 31, 0
2, 31052, Note_on_c, 9, 54, 56
2, 31052, Note_on_c, 9, 82, 51
2, 31053, Note_on_c, 9, 82, 0
2, 31053, Note_on_c, 9, 54, 0
2, 31077, Note_on_c, 0, 74, 0
2, 31077, Note_on_c, 0, 62, 0
2, 31077, Note_on_c, 0, 67, 0
2, 31077, Note_on_c, 1, 31, 110
2, 31077, Note_on_c, 0, 62, 91
2, 31078, Note_on_c, 0, 67, 91
2, 31078, Note_on_c, 0, 74, 82
2, 31078, Note_on_c, 0, 71, 86
2, 31081, Note_on_c, 9, 123, 91
2, 31081, Note_on_c, 9, 38, 114
2, 31082, Note_on_c, 9, 123, 0
2, 31082, Note_on_c, 9, 42, 123
2, 31082, Note_on_c, 9, 54, 85
2, 31083, Note_on_c, 9, 54, 0
2, 31083, Note_on_c, 9, 42, 0
2, 31083, Note_on_c, 9, 38, 0
2, 31107, Note_on_c, 4, 62, 64
2, 31112, Note_on_c, 4, 67, 0
2, 31112, Note_on_c, 9, 54, 28
2, 31113, Note_on_c, 9, 54, 0
2, 31122, Note_on_c, 1, 31, 0
2, 31132, Note_on_c, 0, 67, 0
2, 31132, Note_on_c, 0, 71, 0
2, 31132, Note_on_c, 0, 74, 0
2, 31137, Note_on_c, 0, 62, 0
2, 31137, Note_on_c, 4, 67, 79
2, 31137, Note_on_c, 1, 31, 79
2, 31142, Note_on_c, 9, 54, 51
2, 31142, Note_on_c, 9, 82, 58
2, 31142, Note_on_c, 9, 42, 41
2, 31142, Note_on_c, 9, 53, 82
2, 31143, Note_on_c, 9, 53, 0
2, 31143, Note_on_c, 9, 82, 0
2, 31143, Note_on_c, 9, 54, 0
2, 31143, Note_on_c, 9, 42, 0
2, 31147, Note_on_c, 4, 62, 0
2, 31152, Note_on_c, 1, 31, 0
2, 31162, Note_on_c, 4, 55, 0
2, 31167, Note_on_c, 4, 62, 67
2, 31167, Note_on_c, 1, 31, 86
2, 31172, Note_on_c, 9, 82, 58
2, 31172, Note_on_c, 9, 54, 49
2, 31172, Note_on_c, 9, 25, 72
2, 31173, Note_on_c, 9, 25, 0
2, 31173, Note_on_c, 9, 54, 0
2, 31173, Note_on_c, 9, 82, 0
2, 31186, Note_on_c, 1, 31, 0
2, 31187, Note_on_c, 4, 67, 0
2, 31192, Note_on_c, 4, 69, 0
2, 31192, Note_on_c, 4, 62, 0
2, 31197, Note_on_c, 6, 57, 64
2, 31198, Note_on_c, 6, 67, 0
2, 31198, Note_on_c, 6, 62, 0
2, 31198, Note_on_c, 6, 52, 57
2, 31198, Note_on_c, 6, 60, 61
2, 31199, Note_on_c, 6, 71, 0
2, 31199, Note_on_c, 1, 33, 110
2, 31199, Note_on_c, 0, 60, 72
2, 31199, Note_on_c, 0, 48, 72
2, 31200, Note_on_c, 4, 45, 90
2, 31200, Note_on_c, 0, 57, 69
2, 31200, Note_on_c, 0, 52, 72
2, 31202, Note_on_c, 9, 42, 123
2, 31202, Note_on_c, 9, 54, 91
2, 31202, Note_on_c, 9, 36, 110
2, 31202, Note_on_c, 9, 36, 0
2, 31203, Note_on_c, 9, 42, 0
2, 31203, Note_on_c, 9, 54, 0
2, 31206, Control_c, 6, 84, 62
2, 31207, Control_c, 6, 84, 67
2, 31207, Control_c, 6, 84, 71
2, 31227, Note_on_c, 0, 60, 0
2, 31227, Note_on_c, 1, 33, 0
2, 31227, Note_on_c, 0, 52, 0
2, 31227, Note_on_c, 0, 57, 0
2, 31227, Note_on_c, 0, 52, 69
2, 31227, Note_on_c, 0, 60, 79
2, 31227, Note_on_c, 0, 57, 79
2, 31232, Note_on_c, 9, 54, 49
2, 31232, Note_on_c, 9, 54, 0
2, 31252, Note_on_c, 0, 57, 0
2, 31252, Note_on_c, 0, 60, 0
2, 31257, Note_on_c, 0, 48, 0
2, 31257, Note_on_c, 4, 60, 90
2, 31257, Note_on_c, 0, 48, 76
2, 31257, Note_on_c, 0, 57, 82
2, 31257, Note_on_c, 1, 33, 106
2, 31257, Note_on_c, 0, 60, 79
2, 31261, Note_on_c, 9, 36, 114
2, 31262, Note_on_c, 9, 82, 56
2, 31262, Note_on_c, 9, 54, 53
2, 31262, Note_on_c, 9, 42, 61
2, 31262, Note_on_c, 9, 53, 79
2, 31263, Note_on_c, 9, 53, 0
2, 31263, Note_on_c, 9, 82, 0
2, 31263, Note_on_c, 9, 42, 0
2, 31263, Note_on_c, 9, 36, 0
2, 31263, Note_on_c, 9, 54, 0
2, 31282, Note_on_c, 0, 52, 0
2, 31282, Note_on_c, 0, 60, 0
2, 31282, Note_on_c, 0, 57, 0
2, 31287, Note_on_c, 1, 33, 0
2, 31287, Note_on_c, 0, 52, 72
2, 31287, Note_on_c, 0, 57, 79
2, 31287, Note_on_c, 0, 60, 79
2, 31291, Note_on_c, 9, 54, 53
2, 31292, Note_on_c, 9, 82, 58
2, 31293, Note_on_c, 9, 82, 0
2, 31293, Note_on_c, 9, 54, 0
2, 31316, Note_on_c, 0, 60, 0
2, 31317, Note_on_c, 0, 52, 0
2, 31317, Note_on_c, 0, 48, 0
2, 31317, Note_on_c, 1, 33, 110
2, 31317, Note_on_c, 0, 60, 96
2, 31318, Note_on_c, 0, 52, 82
2, 31318, Note_on_c, 4, 57, 74
2, 31318, Note_on_c, 0, 48, 96
2, 31321, Note_on_c, 9, 123, 99
2, 31322, Note_on_c, 9, 123, 0
2, 31322, Note_on_c, 9, 42, 127
2, 31322, Note_on_c, 9, 38, 114
2, 31322, Note_on_c, 9, 54, 106
2, 31323, Note_on_c, 9, 54, 0
2, 31323, Note_on_c, 9, 38, 0
2, 31323, Note_on_c, 9, 42, 0
2, 31347, Note_on_c, 4, 64, 82
2, 31352, Note_on_c, 9, 54, 58
2, 31353, Note_on_c, 9, 54, 0
2, 31366, Note_on_c, 4, 57, 0
2, 31367, Note_on_c, 4, 45, 0
2, 31377, Note_on_c, 0, 52, 0
2, 31377, Note_on_c, 0, 60, 0
2, 31377, Note_on_c, 0, 57, 0
2, 31377, Note_on_c, 0, 48, 0
2, 31377, Note_on_c, 4, 64, 0
2, 31377, Note_on_c, 4, 57, 67
2, 31382, Note_on_c, 9, 54, 51
2, 31382, Note_on_c, 9, 42, 56
2, 31382, Note_on_c, 9, 53, 76
2, 31382, Note_on_c, 9, 53, 0
2, 31382, Note_on_c, 9, 82, 53
2, 31383, Note_on_c, 9, 82, 0
2, 31383, Note_on_c, 9, 42, 0
2, 31383, Note_on_c, 9, 54, 0
2, 31387, Note_on_c, 1, 33, 0
2, 31391, Note_on_c, 4, 57, 0
2, 31392, Note_on_c, 4, 60, 0
2, 31407, Note_on_c, 0, 60, 89
2, 31407, Note_on_c, 0, 52, 76
2, 31407, Note_on_c, 0, 48, 74
2, 31407, Note_on_c, 1, 33, 106
2, 31407, Note_on_c, 0, 57, 79
2, 31407, Note_on_c, 4, 45, 86
2, 31412, Note_on_c, 9, 82, 56
2, 31412, Note_on_c, 9, 36, 114
2, 31412, Note_on_c, 9, 36, 0
2, 31412, Note_on_c, 9, 54, 49
2, 31413, Note_on_c, 9, 54, 0
2, 31413, Note_on_c, 9, 82, 0
2, 31427, Note_on_c, 0, 57, 0
2, 31432, Note_on_c, 0, 48, 0
2, 31432, Note_on_c, 0, 52, 0
2, 31437, Note_on_c, 0, 60, 0
2, 31437, Note_on_c, 4, 60, 90
2, 31442, Note_on_c, 1, 33, 0
2, 31442, Note_on_c, 9, 42, 127
2, 31442, Note_on_c, 9, 42, 0
2, 31442, Note_on_c, 9, 54, 99
2, 31443, Note_on_c, 9, 54, 0
2, 31467, Note_on_c, 1, 33, 102
2, 31467, Note_on_c, 0, 60, 82
2, 31467, Note_on_c, 0, 48, 64
2, 31467, Note_on_c, 0, 57, 59
2, 31467, Note_on_c, 0, 52, 62
2, 31471, Note_on_c, 9, 36, 35
2, 31472, Note_on_c, 9, 54, 45
2, 31473, Note_on_c, 9, 54, 0
2, 31473, Note_on_c, 9, 36, 0
2, 31482, Note_on_c, 1, 33, 0
2, 31482, Note_on_c, 0, 62, 62
2, 31482, Note_on_c, 1, 31, 102
2, 31483, Note_on_c, 0, 48, 0
2, 31483, Note_on_c, 0, 60, 0
2, 31483, Note_on_c, 0, 67, 59
2, 31484, Note_on_c, 0, 57, 0
2, 31484, Note_on_c, 0, 52, 0
2, 31484, Note_on_c, 0, 71, 64
2, 31484, Note_on_c, 0, 74, 82
2, 31485, Note_on_c, 4, 60, 0
2, 31485, Note_on_c, 4, 45, 0
2, 31485, Note_on_c, 4, 55, 86
2, 31485, Note_on_c, 4, 71, 82
2, 31486, Note_on_c, 6, 57, 0
2, 31486, Note_on_c, 6, 52, 0
2, 31486, Note_on_c, 6, 67, 55
2, 31486, Note_on_c, 6, 71, 51
2, 31487, Note_on_c, 6, 60, 0
2, 31487, Note_on_c, 1, 31, 0
2, 31487, Note_on_c, 6, 62, 59
2, 31491, Control_c, 0, 84, 60
2, 31491, Control_c, 1, 84, 33
2, 31492, Note_on_c, 0, 71, 0
2, 31492, Note_on_c, 0, 67, 0
2, 31492, Note_on_c, 0, 62, 0
2, 31492, Control_c, 0, 84, 48
2, 31492, Control_c, 0, 84, 52
2, 31493, Control_c, 0, 84, 57
2, 31493, Control_c, 4, 84, 60
2, 31494, Control_c, 4, 84, 45
2, 31495, Control_c, 6, 84, 52
2, 31495, Control_c, 6, 84, 57
2, 31496, Control_c, 6, 84, 60
2, 31497, Note_on_c, 0, 71, 76
2, 31497, Note_on_c, 1, 31, 106
2, 31497, Note_on_c, 0, 62, 74
2, 31497, Note_on_c, 0, 67, 76
2, 31497, Note_on_c, 4, 67, 74
2, 31501, Note_on_c, 9, 36, 127
2, 31502, Note_on_c, 9, 54, 45
2, 31502, Note_on_c, 9, 42, 51
2, 31502, Note_on_c, 9, 53, 82
2, 31502, Note_on_c, 9, 82, 56
2, 31503, Note_on_c, 9, 82, 0
2, 31503, Note_on_c, 9, 53, 0
2, 31503, Note_on_c, 9, 36, 0
2, 31503, Note_on_c, 9, 42, 0
2, 31503, Note_on_c, 9, 54, 0
2, 31526, Note_on_c, 0, 74, 0
2, 31527, Note_on_c, 0, 67, 0
2, 31527, Note_on_c, 0, 62, 0
2, 31527, Note_on_c, 0, 67, 82
2, 31527, Note_on_c, 0, 62, 79
2, 31527, Note_on_c, 0, 74, 79
2, 31527, Note_on_c, 4, 62, 82
2, 31532, Note_on_c, 1, 31, 0
2, 31532, Note_on_c, 9, 82, 58
2, 31532, Note_on_c, 9, 54, 53
2, 31533, Note_on_c, 9, 54, 0
2, 31533, Note_on_c, 9, 82, 0
2, 31551, Note_on_c, 0, 67, 0
2, 31552, Note_on_c, 0, 74, 0
2, 31557, Note_on_c, 0, 62, 0
2, 31557, Note_on_c, 0, 71, 0
2, 31557, Note_on_c, 0, 71, 86
2, 31557, Note_on_c, 1, 31, 114
2, 31557, Note_on_c, 0, 62, 91
2, 31557, Note_on_c, 0, 67, 91
2, 31558, Note_on_c, 0, 74, 82
2, 31561, Note_on_c, 9, 123, 85
2, 31562, Note_on_c, 9, 123, 0
2, 31562, Note_on_c, 9, 54, 99
2, 31562, Note_on_c, 9, 38, 114
2, 31562, Note_on_c, 9, 38, 0
2, 31562, Note_on_c, 9, 42, 123
2, 31563, Note_on_c, 9, 42, 0
2, 31563, Note_on_c, 9, 54, 0
2, 31567, Note_on_c, 4, 67, 0
2, 31587, Note_on_c, 4, 67, 67
2, 31592, Note_on_c, 4, 71, 0
2, 31592, Note_on_c, 9, 54, 56
2, 31592, Note_on_c, 9, 54, 0
2, 31597, Note_on_c, 1, 31, 0
2, 31601, Note_on_c, 4, 62, 0
2, 31612, Note_on_c, 0, 71, 0
2, 31612, Note_on_c, 0, 67, 0
2, 31612, Note_on_c, 0, 74, 0
2, 31617, Note_on_c, 0, 62, 0
2, 31617, Note_on_c, 1, 31, 79
2, 31617, Note_on_c, 4, 71, 86
2, 31622, Note_on_c, 4, 67, 0
2, 31622, Note_on_c, 9, 53, 86
2, 31622, Note_on_c, 9, 53, 0
2, 31622, Note_on_c, 9, 42, 75
2, 31622, Note_on_c, 9, 82, 49
2, 31622, Note_on_c, 9, 54, 38
2, 31623, Note_on_c, 9, 54, 0
2, 31623, Note_on_c, 9, 82, 0
2, 31623, Note_on_c, 9, 42, 0
2, 31631, Note_on_c, 1, 31, 0
2, 31647, Note_on_c, 1, 31, 106
2, 31647, Note_on_c, 4, 67, 76
2, 31652, Note_on_c, 9, 54, 45
2, 31652, Note_on_c, 9, 54, 0
2, 31652, Note_on_c, 9, 82, 56
2, 31653, Note_on_c, 9, 82, 0
2, 31656, Note_on_c, 4, 55, 0
2, 31672, Note_on_c, 4, 71, 0
2, 31677, Note_on_c, 1, 31, 0
2, 31677, Note_on_c, 6, 62, 0
2, 31677, Note_on_c, 6, 67, 0
2, 31677, Note_on_c, 4, 67, 0
2, 31677, Note_on_c, 6, 71, 0
2, 31677, Note_on_c, 1, 31, 106
2, 31678, Note_on_c, 0, 71, 72
2, 31678, Note_on_c, 0, 67, 69
2, 31678, Note_on_c, 0, 74, 72
2, 31678, Note_on_c, 0, 62, 72
2, 31678, Note_on_c, 4, 55, 86
2, 31678, Note_on_c, 6, 62, 59
2, 31679, Note_on_c, 6, 67, 55
2, 31679, Note_on_c, 6, 71, 51
2, 31681, Note_on_c, 9, 36, 127
2, 31682, Note_on_c, 9, 42, 127
2, 31682, Note_on_c, 9, 54, 85
2, 31683, Note_on_c, 9, 54, 0
2, 31683, Note_on_c, 9, 36, 0
2, 31683, Note_on_c, 9, 42, 0
2, 31692, Note_on_c, 0, 74, 0
2, 31692, Note_on_c, 0, 67, 0
2, 31697, Note_on_c, 0, 62, 0
2, 31707, Note_on_c, 0, 62, 69
2, 31707, Note_on_c, 0, 67, 79
2, 31707, Note_on_c, 0, 74, 79
2, 31711, Note_on_c, 9, 54, 75
2, 31712, Note_on_c, 1, 31, 0
2, 31713, Note_on_c, 9, 54, 0
2, 31727, Note_on_c, 0, 71, 0
2, 31736, Note_on_c, 0, 67, 0
2, 31737, Note_on_c, 0, 74, 0
2, 31737, Note_on_c, 0, 71, 76
2, 31737, Note_on_c, 0, 67, 82
2, 31737, Note_on_c, 0, 74, 79
2, 31737, Note_on_c, 1, 31, 110
2, 31738, Note_on_c, 4, 67, 86
2, 31742, Note_on_c, 9, 82, 53
2, 31742, Note_on_c, 9, 53, 86
2, 31742, Note_on_c, 9, 54, 72
2, 31742, Note_on_c, 9, 42, 66
2, 31742, Note_on_c, 9, 36, 86
2, 31743, Note_on_c, 9, 36, 0
2, 31743, Note_on_c, 9, 53, 0
2, 31743, Note_on_c, 9, 42, 0
2, 31743, Note_on_c, 9, 82, 0
2, 31743, Note_on_c, 9, 54, 0
2, 31752, Note_on_c, 4, 55, 0
2, 31761, Note_on_c, 0, 62, 0
2, 31762, Note_on_c, 0, 74, 0
2, 31762, Note_on_c, 0, 67, 0
2, 31767, Note_on_c, 0, 62, 72
2, 31767, Note_on_c, 0, 74, 79
2, 31767, Note_on_c, 0, 67, 79
2, 31772, Note_on_c, 1, 31, 0
2, 31772, Note_on_c, 9, 54, 72
2, 31772, Note_on_c, 9, 54, 0
2, 31772, Note_on_c, 9, 82, 75
2, 31773, Note_on_c, 9, 82, 0
2, 31792, Note_on_c, 0, 71, 0
2, 31797, Note_on_c, 0, 74, 0
2, 31797, Note_on_c, 0, 62, 0
2, 31797, Note_on_c, 0, 74, 96
2, 31797, Note_on_c, 1, 31, 106
2, 31797, Note_on_c, 0, 71, 96
2, 31797, Note_on_c, 0, 62, 82
2, 31798, Note_on_c, 4, 62, 76
2, 31801, Note_on_c, 9, 123, 99
2, 31802, Note_on_c, 9, 123, 0
2, 31802, Note_on_c, 9, 42, 123
2, 31802, Note_on_c, 9, 54, 85
2, 31802, Note_on_c, 9, 38, 114
2, 31802, Note_on_c, 9, 38, 0
2, 31803, Note_on_c, 9, 54, 0
2, 31803, Note_on_c, 9, 42, 0
2, 31827, Note_on_c, 4, 69, 90
2, 31832, Note_on_c, 9, 54, 69
2, 31832, Note_on_c, 9, 54, 0
2, 31847, Note_on_c, 4, 62, 0
2, 31852, Note_on_c, 0, 74, 0
2, 31857, Note_on_c, 0, 71, 0
2, 31857, Note_on_c, 0, 62, 0
2, 31857, Note_on_c, 0, 67, 0
2, 31861, Note_on_c, 9, 53, 82
2, 31862, Note_on_c, 9, 53, 0
2, 31862, Note_on_c, 1, 31, 0
2, 31862, Note_on_c, 9, 54, 58
2, 31862, Note_on_c, 9, 82, 58
2, 31862, Note_on_c, 9, 42, 51
2, 31863, Note_on_c, 9, 42, 0
2, 31863, Note_on_c, 9, 82, 0
2, 31863, Note_on_c, 9, 54, 0
2, 31877, Note_on_c, 4, 69, 0
2, 31882, Note_on_c, 4, 67, 0
2, 31887, Note_on_c, 0, 67, 79
2, 31887, Note_on_c, 0, 74, 89
2, 31887, Note_on_c, 4, 55, 90
2, 31887, Note_on_c, 0, 62, 76
2, 31887, Note_on_c, 0, 71, 74
2, 31887, Note_on_c, 1, 31, 110
2, 31891, Note_on_c, 9, 36, 114
2, 31892, Note_on_c, 9, 82, 56
2, 31892, Note_on_c, 9, 54, 53
2, 31893, Note_on_c, 9, 54, 0
2, 31893, Note_on_c, 9, 36, 0
2, 31893, Note_on_c, 9, 82, 0
2, 31907, Note_on_c, 0, 67, 0
2, 31911, Note_on_c, 0, 62, 0
2, 31912, Note_on_c, 0, 71, 0
2, 31917, Note_on_c, 1, 31, 0
2, 31917, Note_on_c, 0, 74, 0
2, 31917, Note_on_c, 4, 67, 76
2, 31921, Note_on_c, 9, 42, 123
2, 31922, Note_on_c, 9, 54, 75
2, 31923, Note_on_c, 9, 54, 0
2, 31923, Note_on_c, 9, 42, 0
2, 31946, Note_on_c, 1, 31, 79
2, 31947, Note_on_c, 0, 74, 82
2, 31947, Note_on_c, 0, 71, 64
2, 31947, Note_on_c, 0, 62, 62
2, 31947, Note_on_c, 0, 67, 59
2, 31947, Note_on_c, 4, 62, 51
2, 31952, Note_on_c, 9, 36, 45
2, 31952, Note_on_c, 9, 36, 0
2, 31952, Note_on_c, 9, 54, 58
2, 31953, Note_on_c, 9, 54, 0
2, 31962, Note_on_c, 1, 31, 0
2, 31977, Note_on_c, 0, 67, 0
2, 31977, Note_on_c, 0, 71, 0
2, 31977, Note_on_c, 0, 62, 0
2, 31977, Note_on_c, 1, 31, 110
2, 31977, Note_on_c, 0, 67, 76
2, 31977, Note_on_c, 0, 62, 74
2, 31978, Note_on_c, 0, 71, 76
2, 31982, Note_on_c, 9, 42, 49
2, 31982, Note_on_c, 9, 54, 51
2, 31982, Note_on_c, 9, 53, 86
2, 31982, Note_on_c, 9, 36, 123
2, 31982, Note_on_c, 9, 36, 0
2, 31982, Note_on_c, 9, 82, 63
2, 31983, Note_on_c, 9, 82, 0
2, 31983, Note_on_c, 9, 54, 0
2, 31983, Note_on_c, 9, 42, 0
2, 31983, Note_on_c, 9, 53, 0
2, 32002, Note_on_c, 0, 67, 0
2, 32002, Note_on_c, 0, 62, 0
2, 32007, Note_on_c, 0, 74, 0
2, 32007, Note_on_c, 4, 69, 82
2, 32007, Note_on_c, 0, 62, 79
2, 32007, Note_on_c, 0, 67, 82
2, 32007, Note_on_c, 0, 74, 79
2, 32012, Note_on_c, 1, 31, 0
2, 32012, Note_on_c, 9, 54, 56
2, 32012, Note_on_c, 9, 54, 0
2, 32012, Note_on_c, 9, 82, 51
2, 32013, Note_on_c, 9, 82, 0
2, 32016, Note_on_c, 4, 62, 0
2, 32032, Note_on_c, 0, 71, 0
2, 32037, Note_on_c, 0, 67, 0
2, 32037, Note_on_c, 0, 62, 0
2, 32037, Note_on_c, 0, 74, 0
2, 32037, Note_on_c, 0, 62, 91
2, 32037, Note_on_c, 0, 71, 86
2, 32037, Note_on_c, 1, 31, 110
2, 32037, Note_on_c, 0, 67, 91
2, 32038, Note_on_c, 0, 74, 82
2, 32041, Note_on_c, 9, 123, 91
2, 32041, Note_on_c, 9, 38, 114
2, 32042, Note_on_c, 9, 38, 0
2, 32042, Note_on_c, 9, 123, 0
2, 32042, Note_on_c, 9, 54, 85
2, 32042, Note_on_c, 9, 42, 123
2, 32043, Note_on_c, 9, 42, 0
2, 32043, Note_on_c, 9, 54, 0
2, 32067, Note_on_c, 4, 62, 64
2, 32071, Note_on_c, 9, 54, 28
2, 32072, Note_on_c, 9, 54, 0
2, 32072, Note_on_c, 4, 67, 0
2, 32082, Note_on_c, 1, 31, 0
2, 32092, Note_on_c, 0, 67, 0
2, 32092, Note_on_c, 0, 71, 0
2, 32092, Note_on_c, 0, 74, 0
2, 32096, Note_on_c, 0, 62, 0
2, 32097, Note_on_c, 1, 31, 79
2, 32097, Note_on_c, 4, 67, 79
2, 32101, Note_on_c, 9, 53, 82
2, 32102, Note_on_c, 9, 42, 41
2, 32102, Note_on_c, 9, 54, 51
2, 32102, Note_on_c, 9, 82, 58
2, 32103, Note_on_c, 9, 82, 0
2, 32103, Note_on_c, 9, 42, 0
2, 32103, Note_on_c, 9, 53, 0
2, 32103, Note_on_c, 9, 54, 0
2, 32107, Note_on_c, 4, 62, 0
2, 32112, Note_on_c, 1, 31, 0
2, 32121, Note_on_c, 4, 55, 0
2, 32126, Note_on_c, 1, 31, 86
2, 32127, Note_on_c, 4, 62, 67
2, 32131, Note_on_c, 9, 25, 72
2, 32132, Note_on_c, 9, 25, 0
2, 32132, Note_on_c, 9, 54, 49
2, 32132, Note_on_c, 9, 82, 58
2, 32133, Note_on_c, 9, 82, 0
2, 32133, Note_on_c, 9, 54, 0
2, 32146, Note_on_c, 1, 31, 0
2, 32147, Note_on_c, 4, 67, 0
2, 32151, Note_on_c, 4, 62, 0
2, 32152, Note_on_c, 4, 69, 0
2, 32156, Note_on_c, 1, 31, 110
2, 32157, Note_on_c, 0, 62, 72
2, 32157, Note_on_c, 0, 67, 69
2, 32157, Note_on_c, 4, 55, 90
2, 32157, Note_on_c, 0, 71, 72
2, 32157, Note_on_c, 0, 74, 72
2, 32162, Note_on_c, 9, 42, 123
2, 32162, Note_on_c, 9, 54, 91
2, 32162, Note_on_c, 9, 36, 110
2, 32162, Note_on_c, 9, 36, 0
2, 32163, Note_on_c, 9, 42, 0
2, 32163, Note_on_c, 9, 54, 0
2, 32181, Note_on_c, 0, 62, 0
2, 32182, Note_on_c, 0, 74, 0
2, 32182, Note_on_c, 0, 67, 0
2, 32187, Note_on_c, 1, 31, 0
2, 32187, Note_on_c, 0, 62, 69
2, 32187, Note_on_c, 0, 67, 79
2, 32187, Note_on_c, 0, 74, 79
2, 32192, Note_on_c, 9, 54, 49
2, 32192, Note_on_c, 9, 54, 0
2, 32212, Note_on_c, 0, 71, 0
2, 32217, Note_on_c, 0, 74, 0
2, 32217, Note_on_c, 0, 67, 0
2, 32217, Note_on_c, 0, 71, 76
2, 32217, Note_on_c, 0, 74, 79
2, 32217, Note_on_c, 4, 71, 90
2, 32217, Note_on_c, 0, 67, 82
2, 32217, Note_on_c, 1, 31, 106
2, 32221, Note_on_c, 9, 36, 114
2, 32222, Note_on_c, 9, 36, 0
2, 32222, Note_on_c, 9, 42, 61
2, 32222, Note_on_c, 9, 54, 53
2, 32222, Note_on_c, 9, 82, 56
2, 32222, Note_on_c, 9, 53, 79
2, 32223, Note_on_c, 9, 53, 0
2, 32223, Note_on_c, 9, 82, 0
2, 32223, Note_on_c, 9, 42, 0
2, 32223, Note_on_c, 9, 54, 0
2, 32242, Note_on_c, 0, 67, 0
2, 32242, Note_on_c, 0, 74, 0
2, 32242, Note_on_c, 0, 62, 0
2, 32247, Note_on_c, 1, 31, 0
2, 32247, Note_on_c, 0, 62, 72
2, 32247, Note_on_c, 0, 67, 79
2, 32247, Note_on_c, 0, 74, 79
2, 32251, Note_on_c, 9, 54, 53
2, 32252, Note_on_c, 9, 54, 0
2, 32252, Note_on_c, 9, 82, 58
2, 32253, Note_on_c, 9, 82, 0
2, 32272, Note_on_c, 0, 71, 0
2, 32277, Note_on_c, 0, 74, 0
2, 32277, Note_on_c, 0, 62, 0
2, 32277, Note_on_c, 0, 71, 96
2, 32277, Note_on_c, 0, 74, 96
2, 32277, Note_on_c, 1, 31, 110
2, 32277, Note_on_c, 0, 62, 82
2, 32277, Note_on_c, 4, 67, 76
2, 32281, Note_on_c, 9, 123, 99
2, 32281, Note_on_c, 9, 38, 114
2, 32282, Note_on_c, 9, 38, 0
2, 32282, Note_on_c, 9, 123, 0
2, 32282, Note_on_c, 9, 42, 127
2, 32282, Note_on_c, 9, 42, 0
2, 32282, Note_on_c, 9, 54, 106
2, 32283, Note_on_c, 9, 54, 0
2, 32306, Note_on_c, 4, 62, 90
2, 32311, Note_on_c, 9, 54, 58
2, 32312, Note_on_c, 9, 54, 0
2, 32336, Note_on_c, 0, 67, 0
2, 32337, Note_on_c, 0, 62, 0
2, 32337, Note_on_c, 0, 74, 0
2, 32337, Note_on_c, 0, 71, 0
2, 32341, Note_on_c, 9, 53, 76
2, 32342, Note_on_c, 9, 53, 0
2, 32342, Note_on_c, 9, 82, 53
2, 32342, Note_on_c, 9, 42, 56
2, 32342, Note_on_c, 9, 54, 51
2, 32343, Note_on_c, 9, 54, 0
2, 32343, Note_on_c, 9, 42, 0
2, 32343, Note_on_c, 9, 82, 0
2, 32347, Note_on_c, 1, 31, 0
2, 32347, Note_on_c, 4, 55, 0
2, 32356, Note_on_c, 4, 62, 0
2, 32366, Note_on_c, 4, 71, 0
2, 32367, Note_on_c, 4, 55, 86
2, 32367, Note_on_c, 0, 62, 76
2, 32367, Note_on_c, 0, 71, 74
2, 32367, Note_on_c, 0, 67, 79
2, 32367, Note_on_c, 0, 74, 89
2, 32367, Note_on_c, 1, 31, 106
2, 32372, Note_on_c, 4, 67, 0
2, 32372, Note_on_c, 9, 82, 56
2, 32372, Note_on_c, 9, 54, 49
2, 32372, Note_on_c, 9, 36, 114
2, 32372, Note_on_c, 9, 36, 0
2, 32373, Note_on_c, 9, 82, 0
2, 32373, Note_on_c, 9, 54, 0
2, 32386, Note_on_c, 0, 67, 0
2, 32387, Note_on_c, 0, 71, 0
2, 32391, Note_on_c, 0, 62, 0
2, 32397, Note_on_c, 0, 74, 0
2, 32397, Note_on_c, 4, 71, 82
2, 32402, Note_on_c, 1, 31, 0
2, 32402, Note_on_c, 9, 54, 99
2, 32402, Note_on_c, 9, 42, 127
2, 32402, Note_on_c, 9, 42, 0
2, 32403, Note_on_c, 9, 54, 0
2, 32427, Note_on_c, 1, 31, 102
2, 32427, Note_on_c, 0, 71, 64
2, 32427, Note_on_c, 0, 62, 62
2, 32427, Note_on_c, 0, 67, 59
2, 32427, Note_on_c, 0, 74, 82
2, 32431, Note_on_c, 9, 36, 35
2, 32432, Note_on_c, 9, 36, 0
2, 32432, Note_on_c, 9, 54, 45
2, 32433, Note_on_c, 9, 54, 0
2, 32446, Note_on_c, 1, 31, 0
2, 32452, Note_on_c, 0, 67, 0
2, 32452, Note_on_c, 0, 62, 0
2, 32452, Note_on_c, 0, 71, 0
2, 32457, Note_on_c, 0, 71, 76
2, 32457, Note_on_c, 0, 67, 76
2, 32457, Note_on_c, 4, 67, 74
2, 32457, Note_on_c, 1, 31, 106
2, 32457, Note_on_c, 0, 62, 74
2, 32461, Note_on_c, 9, 36, 127
2, 32462, Note_on_c, 9, 36, 0
2, 32462, Note_on_c, 9, 54, 45
2, 32462, Note_on_c, 9, 53, 82
2, 32462, Note_on_c, 9, 53, 0
2, 32462, Note_on_c, 9, 82, 56
2, 32462, Note_on_c, 9, 42, 51
2, 32463, Note_on_c, 9, 42, 0
2, 32463, Note_on_c, 9, 82, 0
2, 32463, Note_on_c, 9, 54, 0
2, 32486, Note_on_c, 0, 74, 0
2, 32487, Note_on_c, 0, 62, 0
2, 32487, Note_on_c, 0, 67, 0
2, 32487, Note_on_c, 0, 67, 82
2, 32487, Note_on_c, 0, 74, 79
2, 32487, Note_on_c, 4, 62, 82
2, 32487, Note_on_c, 0, 62, 79
2, 32491, Note_on_c, 9, 54, 53
2, 32492, Note_on_c, 9, 54, 0
2, 32492, Note_on_c, 1, 31, 0
2, 32492, Note_on_c, 9, 82, 58
2, 32493, Note_on_c, 9, 82, 0
2, 32511, Note_on_c, 0, 67, 0
2, 32512, Note_on_c, 0, 74, 0
2, 32516, Note_on_c, 0, 62, 0
2, 32517, Note_on_c, 0, 71, 0
2, 32517, Note_on_c, 0, 71, 86
2, 32517, Note_on_c, 1, 31, 114
2, 32517, Note_on_c, 0, 62, 91
2, 32517, Note_on_c, 0, 67, 91
2, 32517, Note_on_c, 0, 74, 82
2, 32521, Note_on_c, 9, 38, 114
2, 32521, Note_on_c, 9, 123, 85
2, 32522, Note_on_c, 9, 123, 0
2, 32522, Note_on_c, 9, 38, 0
2, 32522, Note_on_c, 9, 54, 99
2, 32522, Note_on_c, 9, 42, 123
2, 32523, Note_on_c, 9, 42, 0
2, 32523, Note_on_c, 9, 54, 0
2, 32527, Note_on_c, 4, 67, 0
2, 32546, Note_on_c, 4, 67, 67
2, 32551, Note_on_c, 9, 54, 56
2, 32552, Note_on_c, 9, 54, 0
2, 32552, Note_on_c, 4, 71, 0
2, 32557, Note_on_c, 1, 31, 0
2, 32562, Note_on_c, 4, 62, 0
2, 32571, Note_on_c, 0, 67, 0
2, 32572, Note_on_c, 0, 71, 0
2, 32572, Note_on_c, 0, 74, 0
2, 32576, Note_on_c, 0, 62, 0
2, 32576, Note_on_c, 1, 31, 79
2, 32577, Note_on_c, 4, 71, 86
2, 32582, Note_on_c, 4, 67, 0
2, 32582, Note_on_c, 9, 53, 86
2, 32582, Note_on_c, 9, 53, 0
2, 32582, Note_on_c, 9, 42, 75
2, 32582, Note_on_c, 9, 82, 49
2, 32582, Note_on_c, 9, 54, 38
2, 32583, Note_on_c, 9, 54, 0
2, 32583, Note_on_c, 9, 82, 0
2, 32583, Note_on_c, 9, 42, 0
2, 32591, Note_on_c, 1, 31, 0
2, 32607, Note_on_c, 1, 31, 106
2, 32607, Note_on_c, 4, 67, 76
2, 32611, Note_on_c, 9, 54, 45
2, 32612, Note_on_c, 9, 54, 0
2, 32612, Note_on_c, 9, 82, 56
2, 32613, Note_on_c, 9, 82, 0
2, 32616, Note_on_c, 4, 55, 0
2, 32632, Note_on_c, 4, 71, 0
2, 32637, Note_on_c, 1, 31, 0
2, 32637, Note_on_c, 6, 71, 0
2, 32637, Note_on_c, 6, 67, 0
2, 32637, Note_on_c, 4, 67, 0
2, 32637, Note_on_c, 6, 62, 0
2, 32637, Note_on_c, 1, 31, 106
2, 32638, Note_on_c, 6, 62, 59
2, 32638, Note_on_c, 0, 67, 69
2, 32638, Note_on_c, 0, 71, 72
2, 32638, Note_on_c, 0, 74, 72
2, 32638, Note_on_c, 0, 62, 72
2, 32638, Note_on_c, 4, 55, 86
2, 32639, Note_on_c, 6, 67, 55
2, 32639, Note_on_c, 6, 71, 51
2, 32641, Note_on_c, 9, 36, 127
2, 32642, Note_on_c, 9, 36, 0
2, 32642, Note_on_c, 9, 42, 127
2, 32642, Note_on_c, 9, 54, 85
2, 32643, Note_on_c, 9, 54, 0
2, 32643, Note_on_c, 9, 42, 0
2, 32651, Note_on_c, 0, 67, 0
2, 32652, Note_on_c, 0, 74, 0
2, 32652, Note_on_c, 1, 31, 0
2, 32652, Note_on_c, 1, 33, 106
2, 32653, Note_on_c, 0, 71, 0
2, 32653, Note_on_c, 0, 62, 0
2, 32653, Note_on_c, 0, 60, 72
2, 32653, Note_on_c, 0, 48, 72
2, 32654, Note_on_c, 4, 55, 0
2, 32654, Note_on_c, 6, 62, 0
2, 32654, Note_on_c, 6, 60, 61
2, 32654, Note_on_c, 4, 45, 86
2, 32655, Note_on_c, 6, 71, 0
2, 32655, Note_on_c, 6, 67, 0
2, 32655, Note_on_c, 6, 52, 57
2, 32655, Note_on_c, 6, 57, 64
2, 32656, Note_on_c, 0, 60, 0
2, 32661, Control_c, 1, 84, 31
2, 32661, Control_c, 0, 84, 62
2, 32662, Control_c, 0, 84, 71
2, 32662, Control_c, 4, 84, 55
2, 32663, Control_c, 6, 84, 62
2, 32663, Control_c, 6, 84, 67
2, 32664, Control_c, 6, 84, 71
2, 32667, Note_on_c, 0, 52, 69
2, 32667, Note_on_c, 0, 60, 79
2, 32667, Note_on_c, 0, 57, 79
2, 32671, Note_on_c, 1, 33, 0
2, 32672, Note_on_c, 9, 54, 75
2, 32672, Note_on_c, 9, 54, 0
2, 32687, Note_on_c, 0, 48, 0
2, 32691, Note_on_c, 0, 60, 0
2, 32692, Note_on_c, 0, 57, 0
2, 32697, Note_on_c, 0, 57, 82
2, 32697, Note_on_c, 0, 60, 79
2, 32697, Note_on_c, 0, 48, 76
2, 32697, Note_on_c, 1, 33, 110
2, 32697, Note_on_c, 4, 60, 90
2, 32701, Note_on_c, 9, 36, 86
2, 32702, Note_on_c, 9, 36, 0
2, 32702, Note_on_c, 9, 53, 86
2, 32702, Note_on_c, 9, 53, 0
2, 32702, Note_on_c, 9, 82, 53
2, 32702, Note_on_c, 9, 42, 66
2, 32702, Note_on_c, 9, 54, 72
2, 32703, Note_on_c, 9, 54, 0
2, 32703, Note_on_c, 9, 42, 0
2, 32703, Note_on_c, 9, 82, 0
2, 32721, Note_on_c, 0, 52, 0
2, 32726, Note_on_c, 0, 60, 0
2, 32727, Note_on_c, 0, 57, 0
2, 32727, Note_on_c, 0, 57, 79
2, 32727, Note_on_c, 0, 60, 79
2, 32727, Note_on_c, 0, 52, 72
2, 32731, Note_on_c, 9, 54, 72
2, 32732, Note_on_c, 9, 54, 0
2, 32732, Note_on_c, 1, 33, 0
2, 32732, Note_on_c, 9, 82, 75
2, 32733, Note_on_c, 9, 82, 0
2, 32751, Note_on_c, 0, 60, 0
2, 32752, Note_on_c, 0, 52, 0
2, 32752, Note_on_c, 0, 48, 0
2, 32756, Note_on_c, 1, 33, 106
2, 32757, Note_on_c, 4, 57, 69
2, 32757, Note_on_c, 0, 52, 82
2, 32757, Note_on_c, 0, 48, 96
2, 32757, Note_on_c, 0, 60, 96
2, 32761, Note_on_c, 9, 123, 99
2, 32761, Note_on_c, 9, 38, 114
2, 32762, Note_on_c, 9, 38, 0
2, 32762, Note_on_c, 9, 123, 0
2, 32762, Note_on_c, 9, 42, 123
2, 32762, Note_on_c, 9, 54, 85
2, 32763, Note_on_c, 9, 54, 0
2, 32763, Note_on_c, 9, 42, 0
2, 32786, Note_on_c, 4, 64, 86
2, 32792, Note_on_c, 9, 54, 69
2, 32792, Note_on_c, 9, 54, 0
2, 32796, Note_on_c, 4, 45, 0
2, 32811, Note_on_c, 0, 57, 0
2, 32817, Note_on_c, 0, 48, 0
2, 32817, Note_on_c, 0, 52, 0
2, 32817, Note_on_c, 0, 60, 0
2, 32821, Note_on_c, 9, 53, 82
2, 32822, Note_on_c, 9, 53, 0
2, 32822, Note_on_c, 1, 33, 0
2, 32822, Note_on_c, 9, 54, 58
2, 32822, Note_on_c, 9, 42, 51
2, 32822, Note_on_c, 9, 82, 58
2, 32823, Note_on_c, 9, 82, 0
2, 32823, Note_on_c, 9, 42, 0
2, 32823, Note_on_c, 9, 54, 0
2, 32826, Note_on_c, 4, 64, 0
2, 32842, Note_on_c, 4, 60, 0
2, 32847, Note_on_c, 4, 57, 0
2, 32847, Note_on_c, 0, 57, 79
2, 32847, Note_on_c, 0, 60, 89
2, 32847, Note_on_c, 1, 33, 110
2, 32847, Note_on_c, 4, 45, 86
2, 32847, Note_on_c, 0, 48, 74
2, 32847, Note_on_c, 0, 52, 76
2, 32851, Note_on_c, 9, 36, 114
2, 32852, Note_on_c, 9, 36, 0
2, 32852, Note_on_c, 9, 54, 53
2, 32852, Note_on_c, 9, 54, 0
2, 32852, Note_on_c, 9, 82, 56
2, 32853, Note_on_c, 9, 82, 0
2, 32866, Note_on_c, 0, 48, 0
2, 32867, Note_on_c, 0, 57, 0
2, 32867, Note_on_c, 0, 52, 0
2, 32871, Note_on_c, 0, 60, 0
2, 32876, Note_on_c, 1, 33, 0
2, 32877, Note_on_c, 4, 60, 80
2, 32881, Note_on_c, 9, 42, 123
2, 32882, Note_on_c, 9, 42, 0
2, 32882, Note_on_c, 9, 54, 75
2, 32882, Note_on_c, 9, 54, 0
2, 32906, Note_on_c, 1, 33, 79
2, 32907, Note_on_c, 0, 60, 82
2, 32907, Note_on_c, 0, 48, 64
2, 32907, Note_on_c, 0, 57, 59
2, 32907, Note_on_c, 0, 52, 62
2, 32911, Note_on_c, 9, 36, 45
2, 32912, Note_on_c, 9, 36, 0
2, 32912, Note_on_c, 9, 54, 58
2, 32912, Note_on_c, 9, 54, 0
2, 32921, Note_on_c, 1, 33, 0
2, 32931, Note_on_c, 0, 48, 0
2, 32932, Note_on_c, 0, 57, 0
2, 32932, Note_on_c, 0, 52, 0
2, 32936, Note_on_c, 1, 33, 110
2, 32937, Note_on_c, 0, 48, 76
2, 32937, Note_on_c, 4, 57, 74
2, 32937, Note_on_c, 0, 57, 76
2, 32937, Note_on_c, 0, 52, 74
2, 32941, Note_on_c, 9, 36, 123
2, 32942, Note_on_c, 9, 36, 0
2, 32942, Note_on_c, 9, 42, 49
2, 32942, Note_on_c, 9, 53, 86
2, 32942, Note_on_c, 9, 54, 51
2, 32942, Note_on_c, 9, 82, 63
2, 32943, Note_on_c, 9, 82, 0
2, 32943, Note_on_c, 9, 42, 0
2, 32943, Note_on_c, 9, 54, 0
2, 32943, Note_on_c, 9, 53, 0
2, 32966, Note_on_c, 0, 60, 0
2, 32967, Note_on_c, 0, 52, 0
2, 32967, Note_on_c, 0, 57, 0
2, 32967, Note_on_c, 0, 60, 79
2, 32967, Note_on_c, 0, 57, 82
2, 32967, Note_on_c, 0, 52, 79
2, 32967, Note_on_c, 4, 64, 86
2, 32971, Note_on_c, 9, 54, 56
2, 32972, Note_on_c, 9, 54, 0
2, 32972, Note_on_c, 1, 33, 0
2, 32972, Note_on_c, 9, 82, 51
2, 32973, Note_on_c, 9, 82, 0
2, 32991, Note_on_c, 0, 60, 0
2, 32992, Note_on_c, 0, 52, 0
2, 32992, Note_on_c, 0, 57, 0
2, 32996, Note_on_c, 0, 48, 0
2, 32997, Note_on_c, 0, 60, 82
2, 32997, Note_on_c, 1, 33, 110
2, 32997, Note_on_c, 0, 48, 86
2, 32997, Note_on_c, 0, 57, 91
2, 32997, Note_on_c, 0, 52, 91
2, 33001, Note_on_c, 9, 123, 91
2, 33001, Note_on_c, 9, 38, 114
2, 33002, Note_on_c, 9, 38, 0
2, 33002, Note_on_c, 9, 123, 0
2, 33002, Note_on_c, 4, 57, 0
2, 33002, Note_on_c, 9, 54, 85
2, 33002, Note_on_c, 9, 42, 123
2, 33003, Note_on_c, 9, 42, 0
2, 33003, Note_on_c, 9, 54, 0
2, 33027, Note_on_c, 4, 57, 64
2, 33031, Note_on_c, 9, 54, 28
2, 33032, Note_on_c, 9, 54, 0
2, 33041, Note_on_c, 1, 33, 0
2, 33046, Note_on_c, 4, 60, 0
2, 33051, Note_on_c, 0, 52, 0
2, 33052, Note_on_c, 0, 57, 0
2, 33057, Note_on_c, 0, 60, 0
2, 33057, Note_on_c, 0, 48, 0
2, 33057, Note_on_c, 4, 60, 80
2, 33057, Note_on_c, 1, 33, 79
2, 33061, Note_on_c, 9, 53, 82
2, 33062, Note_on_c, 9, 53, 0
2, 33062, Note_on_c, 4, 57, 0
2, 33062, Note_on_c, 9, 42, 41
2, 33062, Note_on_c, 9, 42, 0
2, 33062, Note_on_c, 9, 54, 51
2, 33062, Note_on_c, 9, 82, 58
2, 33063, Note_on_c, 9, 82, 0
2, 33063, Note_on_c, 9, 54, 0
2, 33071, Note_on_c, 1, 33, 0
2, 33086, Note_on_c, 1, 33, 86
2, 33087, Note_on_c, 4, 57, 86
2, 33091, Note_on_c, 9, 25, 72
2, 33092, Note_on_c, 9, 25, 0
2, 33092, Note_on_c, 4, 45, 0
2, 33092, Note_on_c, 9, 82, 58
2, 33092, Note_on_c, 9, 54, 49
2, 33092, Note_on_c, 9, 54, 0
2, 33093, Note_on_c, 9, 82, 0
2, 33106, Note_on_c, 1, 33, 0
2, 33116, Note_on_c, 1, 33, 110
2, 33117, Note_on_c, 4, 45, 90
2, 33117, Note_on_c, 0, 48, 72
2, 33117, Note_on_c, 0, 52, 72
2, 33117, Note_on_c, 0, 57, 69
2, 33117, Note_on_c, 0, 60, 72
2, 33121, Note_on_c, 9, 36, 110
2, 33122, Note_on_c, 9, 36, 0
2, 33122, Note_on_c, 4, 57, 0
2, 33122, Note_on_c, 4, 60, 0
2, 33122, Note_on_c, 4, 64, 0
2, 33122, Note_on_c, 9, 54, 91
2, 33122, Note_on_c, 9, 42, 123
2, 33122, Note_on_c, 9, 42, 0
2, 33123, Note_on_c, 9, 54, 0
2, 33137, Note_on_c, 0, 57, 0
2, 33137, Note_on_c, 0, 60, 0
2, 33137, Note_on_c, 1, 33, 0
2, 33137, Note_on_c, 0, 57, 72
2, 33137, Note_on_c, 1, 38, 110
2, 33138, Note_on_c, 0, 48, 0
2, 33138, Note_on_c, 0, 52, 0
2, 33138, Note_on_c, 0, 66, 72
2, 33138, Note_on_c, 0, 62, 69
2, 33139, Note_on_c, 4, 45, 0
2, 33139, Note_on_c, 0, 57, 0
2, 33139, Note_on_c, 4, 50, 90
2, 33139, Note_on_c, 0, 69, 72
2, 33140, Note_on_c, 6, 60, 0
2, 33140, Note_on_c, 6, 66, 51
2, 33141, Note_on_c, 6, 52, 0
2, 33141, Note_on_c, 6, 62, 55
2, 33142, Note_on_c, 0, 69, 0
2, 33142, Note_on_c, 0, 62, 0
2, 33146, Note_on_c, 1, 38, 0
2, 33146, Control_c, 1, 84, 33
2, 33146, Control_c, 0, 84, 60
2, 33147, Note_on_c, 0, 57, 69
2, 33147, Control_c, 0, 84, 48
2, 33147, Note_on_c, 0, 62, 79
2, 33147, Note_on_c, 0, 69, 79
2, 33147, Control_c, 0, 84, 52
2, 33148, Control_c, 4, 84, 45
2, 33148, Control_c, 0, 84, 57
2, 33149, Control_c, 6, 84, 60
2, 33149, Control_c, 6, 84, 52
2, 33151, Note_on_c, 9, 54, 49
2, 33152, Note_on_c, 9, 54, 0
2, 33171, Note_on_c, 0, 66, 0
2, 33176, Note_on_c, 0, 69, 0
2, 33176, Note_on_c, 0, 62, 0
2, 33177, Note_on_c, 0, 66, 76
2, 33177, Note_on_c, 0, 69, 79
2, 33177, Note_on_c, 4, 66, 90
2, 33177, Note_on_c, 1, 38, 106
2, 33177, Note_on_c, 0, 62, 82
2, 33181, Note_on_c, 9, 36, 114
2, 33182, Note_on_c, 9, 36, 0
2, 33182, Note_on_c, 9, 53, 79
2, 33182, Note_on_c, 9, 54, 53
2, 33182, Note_on_c, 9, 42, 61
2, 33182, Note_on_c, 9, 82, 56
2, 33183, Note_on_c, 9, 82, 0
2, 33183, Note_on_c, 9, 42, 0
2, 33183, Note_on_c, 9, 53, 0
2, 33183, Note_on_c, 9, 54, 0
2, 33201, Note_on_c, 0, 57, 0
2, 33202, Note_on_c, 0, 62, 0
2, 33202, Note_on_c, 0, 69, 0
2, 33206, Note_on_c, 1, 38, 0
2, 33206, Note_on_c, 0, 57, 72
2, 33207, Note_on_c, 0, 69, 79
2, 33207, Note_on_c, 0, 62, 79
2, 33211, Note_on_c, 9, 54, 53
2, 33212, Note_on_c, 9, 54, 0
2, 33212, Note_on_c, 9, 82, 58
2, 33213, Note_on_c, 9, 82, 0
2, 33231, Note_on_c, 0, 66, 0
2, 33236, Note_on_c, 0, 57, 0
2, 33237, Note_on_c, 0, 69, 0
2, 33237, Note_on_c, 0, 57, 82
2, 33237, Note_on_c, 4, 62, 76
2, 33237, Note_on_c, 1, 38, 110
2, 33237, Note_on_c, 0, 69, 96
2, 33237, Note_on_c, 0, 66, 96
2, 33241, Note_on_c, 9, 38, 114
2, 33241, Note_on_c, 9, 123, 99
2, 33242, Note_on_c, 9, 123, 0
2, 33242, Note_on_c, 9, 38, 0
2, 33242, Note_on_c, 9, 54, 106
2, 33242, Note_on_c, 9, 42, 127
2, 33242, Note_on_c, 9, 42, 0
2, 33243, Note_on_c, 9, 54, 0
2, 33267, Note_on_c, 4, 69, 90
2, 33271, Note_on_c, 9, 54, 58
2, 33272, Note_on_c, 9, 54, 0
2, 33296, Note_on_c, 0, 62, 0
2, 33297, Note_on_c, 0, 66, 0
2, 33297, Note_on_c, 0, 69, 0
2, 33297, Note_on_c, 0, 57, 0
2, 33301, Note_on_c, 9, 53, 76
2, 33302, Note_on_c, 9, 53, 0
2, 33302, Note_on_c, 9, 54, 51
2, 33302, Note_on_c, 9, 42, 56
2, 33302, Note_on_c, 9, 42, 0
2, 33302, Note_on_c, 9, 82, 53
2, 33303, Note_on_c, 9, 82, 0
2, 33303, Note_on_c, 9, 54, 0
2, 33306, Note_on_c, 4, 50, 0
2, 33307, Note_on_c, 1, 38, 0
2, 33316, Note_on_c, 4, 69, 0
2, 33326, Note_on_c, 4, 66, 0
2, 33327, Note_on_c, 1, 38, 106
2, 33327, Note_on_c, 0, 57, 76
2, 33327, Note_on_c, 0, 69, 89
2, 33327, Note_on_c, 0, 66, 74
2, 33327, Note_on_c, 0, 62, 79
2, 33327, Note_on_c, 4, 50, 86
2, 33331, Note_on_c, 9, 36, 114
2, 33332, Note_on_c, 9, 36, 0
2, 33332, Note_on_c, 4, 62, 0
2, 33332, Note_on_c, 9, 54, 49
2, 33332, Note_on_c, 9, 54, 0
2, 33332, Note_on_c, 9, 82, 56
2, 33333, Note_on_c, 9, 82, 0
2, 33346, Note_on_c, 0, 62, 0
2, 33347, Note_on_c, 0, 66, 0
2, 33351, Note_on_c, 0, 57, 0
2, 33356, Note_on_c, 0, 69, 0
2, 33357, Note_on_c, 4, 66, 82
2, 33361, Note_on_c, 9, 42, 127
2, 33362, Note_on_c, 9, 42, 0
2, 33362, Note_on_c, 1, 38, 0
2, 33362, Note_on_c, 9, 54, 99
2, 33363, Note_on_c, 9, 54, 0
2, 33386, Note_on_c, 1, 38, 102
2, 33387, Note_on_c, 0, 57, 62
2, 33387, Note_on_c, 0, 69, 82
2, 33387, Note_on_c, 0, 66, 64
2, 33387, Note_on_c, 0, 62, 59
2, 33391, Note_on_c, 9, 36, 35
2, 33391, Note_on_c, 9, 54, 45
2, 33392, Note_on_c, 9, 36, 0
2, 33393, Note_on_c, 9, 54, 0
2, 33406, Note_on_c, 1, 38, 0
2, 33411, Note_on_c, 0, 57, 0
2, 33412, Note_on_c, 0, 66, 0
2, 33412, Note_on_c, 0, 62, 0
2, 33416, Note_on_c, 1, 38, 106
2, 33417, Note_on_c, 0, 62, 76
2, 33417, Note_on_c, 0, 57, 74
2, 33417, Note_on_c, 0, 66, 76
2, 33417, Note_on_c, 4, 62, 74
2, 33421, Note_on_c, 9, 36, 127
2, 33422, Note_on_c, 9, 36, 0
2, 33422, Note_on_c, 9, 42, 51
2, 33422, Note_on_c, 9, 82, 56
2, 33422, Note_on_c, 9, 53, 82
2, 33422, Note_on_c, 9, 53, 0
2, 33422, Note_on_c, 9, 54, 45
2, 33423, Note_on_c, 9, 54, 0
2, 33423, Note_on_c, 9, 82, 0
2, 33423, Note_on_c, 9, 42, 0
2, 33447, Note_on_c, 0, 69, 0
2, 33447, Note_on_c, 0, 57, 0
2, 33447, Note_on_c, 0, 62, 0
2, 33447, Note_on_c, 4, 69, 82
2, 33447, Note_on_c, 0, 62, 82
2, 33447, Note_on_c, 0, 69, 79
2, 33447, Note_on_c, 0, 57, 79
2, 33451, Note_on_c, 9, 54, 53
2, 33452, Note_on_c, 9, 54, 0
2, 33452, Note_on_c, 1, 38, 0
2, 33452, Note_on_c, 9, 82, 58
2, 33453, Note_on_c, 9, 82, 0
2, 33471, Note_on_c, 0, 62, 0
2, 33472, Note_on_c, 0, 69, 0
2, 33476, Note_on_c, 0, 57, 0
2, 33477, Note_on_c, 0, 66, 0
2, 33477, Note_on_c, 0, 66, 86
2, 33477, Note_on_c, 1, 38, 114
2, 33477, Note_on_c, 0, 62, 91
2, 33477, Note_on_c, 0, 57, 91
2, 33477, Note_on_c, 0, 69, 82
2, 33481, Note_on_c, 9, 123, 85
2, 33481, Note_on_c, 9, 38, 114
2, 33482, Note_on_c, 9, 38, 0
2, 33482, Note_on_c, 9, 123, 0
2, 33482, Note_on_c, 9, 42, 123
2, 33482, Note_on_c, 9, 42, 0
2, 33482, Note_on_c, 9, 54, 99
2, 33483, Note_on_c, 9, 54, 0
2, 33486, Note_on_c, 4, 62, 0
2, 33506, Note_on_c, 4, 62, 67
2, 33511, Note_on_c, 9, 54, 56
2, 33512, Note_on_c, 9, 54, 0
2, 33512, Note_on_c, 4, 66, 0
2, 33516, Note_on_c, 1, 38, 0
2, 33521, Note_on_c, 4, 69, 0
2, 33531, Note_on_c, 0, 62, 0
2, 33532, Note_on_c, 0, 66, 0
2, 33532, Note_on_c, 0, 69, 0
2, 33536, Note_on_c, 0, 57, 0
2, 33536, Note_on_c, 1, 38, 79
2, 33537, Note_on_c, 4, 66, 86
2, 33541, Note_on_c, 9, 53, 86
2, 33542, Note_on_c, 9, 53, 0
2, 33542, Note_on_c, 4, 62, 0
2, 33542, Note_on_c, 9, 54, 38
2, 33542, Note_on_c, 9, 54, 0
2, 33542, Note_on_c, 9, 42, 75
2, 33542, Note_on_c, 9, 42, 0
2, 33542, Note_on_c, 9, 82, 49
2, 33543, Note_on_c, 9, 82, 0
2, 33551, Note_on_c, 1, 38, 0
2, 33566, Note_on_c, 4, 62, 76
2, 33566, Note_on_c, 1, 38, 106
2, 33571, Note_on_c, 9, 82, 56
2, 33571, Note_on_c, 9, 54, 45
2, 33572, Note_on_c, 9, 54, 0
2, 33573, Note_on_c, 9, 82, 0
2, 33576, Note_on_c, 4, 50, 0
2, 33591, Note_on_c, 4, 66, 0
2, 33596, Note_on_c, 1, 38, 0
2, 33597, Note_on_c, 6, 66, 0
2, 33597, Note_on_c, 6, 62, 0
2, 33597, Note_on_c, 4, 62, 0
2, 33597, Note_on_c, 6, 57, 0
2, 33597, Note_on_c, 1, 38, 106
2, 33598, Note_on_c, 0, 57, 72
2, 33598, Note_on_c, 4, 50, 86
2, 33598, Note_on_c, 6, 57, 59
2, 33598, Note_on_c, 0, 66, 72
2, 33598, Note_on_c, 0, 69, 72
2, 33598, Note_on_c, 0, 62, 69
2, 33599, Note_on_c, 6, 62, 55
2, 33599, Note_on_c, 6, 66, 51
2, 33601, Note_on_c, 9, 42, 127
2, 33601, Note_on_c, 9, 36, 127
2, 33602, Note_on_c, 9, 36, 0
2, 33602, Note_on_c, 9, 54, 85
2, 33603, Note_on_c, 9, 54, 0
2, 33603, Note_on_c, 9, 42, 0
2, 33611, Note_on_c, 0, 62, 0
2, 33612, Note_on_c, 0, 69, 0
2, 33616, Note_on_c, 0, 57, 0
2, 33617, Note_on_c, 1, 38, 0
2, 33617, Note_on_c, 0, 66, 0
2, 33617, Note_on_c, 1, 28, 106
2, 33618, Note_on_c, 4, 50, 0
2, 33619, Note_on_c, 6, 57, 0
2, 33619, Note_on_c, 6, 62, 0
2, 33620, Note_on_c, 6, 66, 0
2, 33626, Control_c, 1, 84, 38
2, 33626, Control_c, 0, 84, 66
2, 33627, Control_c, 4, 84, 50
2, 33627, Control_c, 6, 84, 57
2, 33628, Control_c, 6, 84, 62
2, 33628, Control_c, 6, 84, 66
2, 33631, Note_on_c, 1, 28, 0
2, 33657, Note_on_c, 1, 28, 110
2, 33661, Note_on_c, 9, 36, 86
2, 33662, Note_on_c, 9, 36, 0
2, 33662, Note_on_c, 9, 42, 66
2, 33663, Note_on_c, 9, 42, 0
2, 33692, Note_on_c, 1, 28, 0
2, 33716, Note_on_c, 1, 28, 106
2, 33721, Note_on_c, 9, 123, 99
2, 33721, Note_on_c, 9, 123, 0
2, 33721, Note_on_c, 9, 38, 114
2, 33722, Note_on_c, 9, 38, 0
2, 33722, Note_on_c, 9, 42, 123
2, 33722, Note_on_c, 9, 42, 0
2, 33781, Note_on_c, 9, 42, 51
2, 33782, Note_on_c, 1, 28, 0
2, 33783, Note_on_c, 9, 42, 0
2, 33806, Note_on_c, 1, 28, 110
2, 33811, Note_on_c, 9, 36, 114
2, 33812, Note_on_c, 9, 36, 0
2, 33836, Note_on_c, 1, 28, 0
2, 33841, Note_on_c, 9, 42, 123
2, 33842, Note_on_c, 9, 42, 0
2, 33866, Note_on_c, 1, 28, 79
2, 33871, Note_on_c, 9, 36, 45
2, 33872, Note_on_c, 9, 36, 0
2, 33881, Note_on_c, 1, 28, 0
2, 33897, Note_on_c, 1, 28, 110
2, 33901, Note_on_c, 9, 36, 123
2, 33902, Note_on_c, 9, 36, 0
2, 33902, Note_on_c, 9, 42, 49
2, 33902, Note_on_c, 9, 42, 0
2, 33932, Note_on_c, 1, 28, 0
2, 33957, Note_on_c, 1, 28, 110
2, 33961, Note_on_c, 9, 38, 114
2, 33961, Note_on_c, 9, 123, 91
2, 33961, Note_on_c, 9, 42, 123
2, 33962, Note_on_c, 9, 42, 0
2, 33962, Note_on_c, 9, 123, 0
2, 33962, Note_on_c, 9, 38, 0
2, 34001, Note_on_c, 1, 28, 0
2, 34017, Note_on_c, 1, 28, 79
2, 34022, Note_on_c, 9, 42, 41
2, 34022, Note_on_c, 9, 42, 0
2, 34031, Note_on_c, 1, 28, 0
2, 34046, Note_on_c, 1, 28, 86
2, 34051, Note_on_c, 9, 25, 72
2, 34052, Note_on_c, 9, 25, 0
2, 34057, Note_on_c, 1, 28, 0
2, 34057, Note_on_c, 1, 31, 86
2, 34059, Note_on_c, 6, 62, 59
2, 34060, Note_on_c, 6, 67, 55
2, 34060, Note_on_c, 6, 71, 51
2, 34065, Control_c, 1, 84, 28
2, 34066, Note_on_c, 1, 31, 0
2, 34066, Control_c, 4, 84, 64
2, 34067, Control_c, 4, 84, 71
2, 34068, Control_c, 6, 84, 67
2, 34068, Control_c, 4, 84, 67
2, 34069, Control_c, 6, 84, 64
2, 34069, Control_c, 6, 84, 59
2, 34078, Control_c, 9, 0, 7
2, 34079, Control_c, 9, 32, 51
2, 34079, Control_c, 9, 0, 7
2, 34079, Control_c, 9, 32, 51
2, 34079, Control_c, 9, 0, 7
2, 34079, Control_c, 9, 32, 51
2, 34079, Control_c, 9, 0, 7
2, 34079, Control_c, 9, 32, 51
2, 34080, Program_c, 9, 9
2, 34080, Control_c, 9, 0, 0
2, 34080, Control_c, 9, 32, 3
2, 34080, Control_c, 9, 0, 0
2, 34080, Control_c, 9, 32, 3
2, 34080, Control_c, 9, 0, 0
2, 34080, Control_c, 9, 32, 3
2, 34080, Control_c, 9, 0, 0
2, 34080, Control_c, 9, 32, 3
2, 34080, Program_c, 9, 8
2, 34080, Control_c, 1, 0, 0
2, 34080, Control_c, 1, 32, 1
2, 34080, Control_c, 1, 0, 0
2, 34080, Control_c, 1, 32, 1
2, 34080, Control_c, 1, 0, 0
2, 34080, Control_c, 1, 32, 1
2, 34080, Control_c, 1, 0, 0
2, 34080, Control_c, 1, 32, 1
2, 34080, Program_c, 1, 33
2, 34080, Note_on_c, 1, 31, 106
2, 34080, Control_c, 0, 0, 0
2, 34080, Control_c, 0, 32, 3
2, 34080, Control_c, 0, 0, 0
2, 34080, Control_c, 0, 32, 3
2, 34080, Control_c, 0, 0, 0
2, 34080, Control_c, 0, 32, 3
2, 34080, Control_c, 0, 0, 0
2, 34080, Control_c, 0, 32, 3
2, 34080, Control_c, 0, 0, 0
2, 34080, Control_c, 0, 32, 3
2, 34080, Program_c, 0, 25
2, 34080, Note_on_c, 0, 62, 72
2, 34080, Note_on_c, 0, 67, 69
2, 34080, Note_on_c, 0, 71, 72
2, 34080, Note_on_c, 0, 74, 72
2, 34080, Control_c, 4, 0, 9
2, 34080, Control_c, 4, 32, 2
2, 34080, Control_c, 4, 0, 9
2, 34080, Control_c, 4, 32, 2
2, 34080, Control_c, 4, 0, 9
2, 34080, Control_c, 4, 32, 2
2, 34080, Control_c, 4, 0, 9
2, 34080, Control_c, 4, 32, 2
2, 34080, Control_c, 4, 0, 9
2, 34080, Control_c, 4, 32, 2
2, 34080, Program_c, 4, 27
2, 34080, Note_on_c, 4, 55, 86
2, 34080, Control_c, 6, 0, 32
2, 34080, Control_c, 6, 32, 1
2, 34080, Control_c, 6, 0, 32
2, 34080, Control_c, 6, 32, 1
2, 34080, Control_c, 6, 0, 32
2, 34080, Control_c, 6, 32, 1
2, 34080, Control_c, 6, 0, 32
2, 34080, Control_c, 6, 32, 1
2, 34080, Control_c, 6, 0, 32
2, 34080, Control_c, 6, 32, 1
2, 34080, Program_c, 6, 52
2, 34080, Note_on_c, 6, 62, 59
2, 34080, Note_on_c, 6, 67, 55
2, 34080, Note_on_c, 6, 71, 51
2, 34080, Note_on_c, 9, 36, 127
2, 34080, Note_on_c, 9, 42, 127
2, 34081, Note_on_c, 9, 42, 0
2, 34081, Note_on_c, 9, 36, 0
2, 34081, Note_on_c, 9, 54, 85
2, 34081, Note_on_c, 9, 54, 0
2, 34090, Note_on_c, 0, 67, 0
2, 34090, Note_on_c, 0, 74, 0
2, 34095, Note_on_c, 0, 62, 0
2, 34106, Note_on_c, 0, 62, 69
2, 34106, Note_on_c, 0, 67, 79
2, 34106, Note_on_c, 0, 74, 79
2, 34111, Note_on_c, 1, 31, 0
2, 34111, Note_on_c, 9, 54, 75
2, 34111, Note_on_c, 9, 54, 0
2, 34125, Note_on_c, 0, 71, 0
2, 34135, Note_on_c, 0, 67, 0
2, 34135, Note_on_c, 0, 74, 0
2, 34135, Note_on_c, 1, 31, 110
2, 34135, Note_on_c, 0, 67, 82
2, 34135, Note_on_c, 0, 71, 76
2, 34136, Note_on_c, 0, 74, 79
2, 34136, Note_on_c, 4, 67, 86
2, 34140, Note_on_c, 9, 36, 86
2, 34140, Note_on_c, 9, 53, 86
2, 34140, Note_on_c, 9, 54, 72
2, 34140, Note_on_c, 9, 42, 66
2, 34141, Note_on_c, 9, 42, 0
2, 34141, Note_on_c, 9, 54, 0
2, 34141, Note_on_c, 9, 53, 0
2, 34141, Note_on_c, 9, 36, 0
2, 34141, Note_on_c, 9, 82, 53
2, 34141, Note_on_c, 9, 82, 0
2, 34150, Note_on_c, 4, 55, 0
2, 34160, Note_on_c, 0, 62, 0
2, 34161, Note_on_c, 0, 67, 0
2, 34161, Note_on_c, 0, 74, 0
2, 34166, Note_on_c, 0, 62, 72
2, 34166, Note_on_c, 0, 67, 79
2, 34166, Note_on_c, 0, 74, 79
2, 34170, Note_on_c, 9, 54, 72
2, 34170, Note_on_c, 9, 82, 75
2, 34171, Note_on_c, 9, 82, 0
2, 34171, Note_on_c, 9, 54, 0
2, 34171, Note_on_c, 1, 31, 0
2, 34190, Note_on_c, 0, 71, 0
2, 34195, Note_on_c, 0, 62, 0
2, 34196, Note_on_c, 0, 74, 0
2, 34196, Note_on_c, 1, 31, 106
2, 34196, Note_on_c, 0, 62, 82
2, 34196, Note_on_c, 0, 71, 96
2, 34196, Note_on_c, 0, 74, 96
2, 34196, Note_on_c, 4, 62, 76
2, 34200, Note_on_c, 9, 38, 114
2, 34200, Note_on_c, 9, 38, 0
2, 34200, Note_on_c, 9, 42, 123
2, 34200, Note_on_c, 9, 42, 0
2, 34200, Note_on_c, 9, 123, 99
2, 34200, Note_on_c, 9, 123, 0
2, 34200, Note_on_c, 9, 54, 85
2, 34200, Note_on_c, 9, 54, 0
2, 34226, Note_on_c, 4, 69, 90
2, 34230, Note_on_c, 9, 54, 69
2, 34231, Note_on_c, 9, 54, 0
2, 34245, Note_on_c, 4, 62, 0
2, 34250, Note_on_c, 0, 74, 0
2, 34255, Note_on_c, 0, 62, 0
2, 34255, Note_on_c, 0, 67, 0
2, 34255, Note_on_c, 0, 71, 0
2, 34260, Note_on_c, 9, 53, 82
2, 34260, Note_on_c, 9, 42, 51
2, 34261, Note_on_c, 9, 42, 0
2, 34261, Note_on_c, 9, 53, 0
2, 34261, Note_on_c, 1, 31, 0
2, 34261, Note_on_c, 9, 54, 58
2, 34261, Note_on_c, 9, 54, 0
2, 34261, Note_on_c, 9, 82, 58
2, 34261, Note_on_c, 9, 82, 0
2, 34275, Note_on_c, 4, 69, 0
2, 34280, Note_on_c, 4, 67, 0
2, 34285, Note_on_c, 1, 31, 110
2, 34285, Note_on_c, 0, 62, 76
2, 34285, Note_on_c, 0, 67, 79
2, 34286, Note_on_c, 0, 71, 74
2, 34286, Note_on_c, 0, 74, 89
2, 34286, Note_on_c, 4, 55, 90
2, 34291, Note_on_c, 9, 36, 114
2, 34291, Note_on_c, 9, 36, 0
2, 34291, Note_on_c, 9, 54, 53
2, 34291, Note_on_c, 9, 54, 0
2, 34291, Note_on_c, 9, 82, 56
2, 34291, Note_on_c, 9, 82, 0
2, 34305, Note_on_c, 0, 67, 0
2, 34311, Note_on_c, 0, 71, 0
2, 34311, Note_on_c, 0, 62, 0
2, 34315, Note_on_c, 1, 31, 0
2, 34315, Note_on_c, 0, 74, 0
2, 34315, Note_on_c, 4, 67, 76
2, 34320, Note_on_c, 9, 42, 123
2, 34321, Note_on_c, 9, 42, 0
2, 34321, Note_on_c, 9, 54, 75
2, 34321, Note_on_c, 9, 54, 0
2, 34345, Note_on_c, 1, 31, 79
2, 34345, Note_on_c, 0, 62, 62
2, 34346, Note_on_c, 0, 67, 59
2, 34346, Note_on_c, 0, 71, 64
2, 34346, Note_on_c, 0, 74, 82
2, 34346, Note_on_c, 4, 62, 51
2, 34350, Note_on_c, 9, 36, 45
2, 34350, Note_on_c, 9, 54, 58
2, 34351, Note_on_c, 9, 54, 0
2, 34351, Note_on_c, 9, 36, 0
2, 34360, Note_on_c, 1, 31, 0
2, 34376, Note_on_c, 0, 67, 0
2, 34376, Note_on_c, 0, 62, 0
2, 34376, Note_on_c, 0, 71, 0
2, 34376, Note_on_c, 1, 31, 110
2, 34376, Note_on_c, 0, 62, 74
2, 34376, Note_on_c, 0, 67, 76
2, 34376, Note_on_c, 0, 71, 76
2, 34380, Note_on_c, 9, 36, 123
2, 34380, Note_on_c, 9, 36, 0
2, 34380, Note_on_c, 9, 53, 86
2, 34380, Note_on_c, 9, 53, 0
2, 34380, Note_on_c, 9, 42, 49
2, 34380, Note_on_c, 9, 42, 0
2, 34380, Note_on_c, 9, 54, 51
2, 34380, Note_on_c, 9, 54, 0
2, 34380, Note_on_c, 9, 82, 63
2, 34380, Note_on_c, 9, 82, 0
2, 34400, Note_on_c, 0, 62, 0
2, 34401, Note_on_c, 0, 67, 0
2, 34405, Note_on_c, 0, 74, 0
2, 34405, Note_on_c, 0, 62, 79
2, 34406, Note_on_c, 0, 67, 82
2, 34406, Note_on_c, 0, 74, 79
2, 34406, Note_on_c, 4, 69, 82
2, 34410, Note_on_c, 1, 31, 0
2, 34410, Note_on_c, 9, 54, 56
2, 34410, Note_on_c, 9, 82, 51
2, 34411, Note_on_c, 9, 82, 0
2, 34411, Note_on_c, 9, 54, 0
2, 34415, Note_on_c, 4, 62, 0
2, 34430, Note_on_c, 0, 71, 0
2, 34436, Note_on_c, 0, 67, 0
2, 34436, Note_on_c, 0, 62, 0
2, 34436, Note_on_c, 0, 74, 0
2, 34436, Note_on_c, 1, 31, 110
2, 34436, Note_on_c, 0, 62, 91
2, 34436, Note_on_c, 0, 67, 91
2, 34436, Note_on_c, 0, 71, 86
2, 34436, Note_on_c, 0, 74, 82
2, 34441, Note_on_c, 9, 38, 114
2, 34441, Note_on_c, 9, 38, 0
2, 34441, Note_on_c, 9, 42, 123
2, 34441, Note_on_c, 9, 42, 0
2, 34441, Note_on_c, 9, 123, 91
2, 34441, Note_on_c, 9, 123, 0
2, 34441, Note_on_c, 9, 54, 85
2, 34441, Note_on_c, 9, 54, 0
2, 34465, Note_on_c, 4, 62, 64
2, 34470, Note_on_c, 4, 67, 0
2, 34470, Note_on_c, 9, 54, 28
2, 34470, Note_on_c, 9, 54, 0
2, 34481, Note_on_c, 1, 31, 0
2, 34490, Note_on_c, 0, 67, 0
2, 34491, Note_on_c, 0, 71, 0
2, 34491, Note_on_c, 0, 74, 0
2, 34496, Note_on_c, 0, 62, 0
2, 34496, Note_on_c, 1, 31, 79
2, 34496, Note_on_c, 4, 67, 79
2, 34501, Note_on_c, 9, 53, 82
2, 34501, Note_on_c, 9, 53, 0
2, 34501, Note_on_c, 9, 42, 41
2, 34501, Note_on_c, 9, 42, 0
2, 34501, Note_on_c, 9, 54, 51
2, 34501, Note_on_c, 9, 54, 0
2, 34501, Note_on_c, 9, 82, 58
2, 34501, Note_on_c, 9, 82, 0
2, 34505, Note_on_c, 4, 62, 0
2, 34510, Note_on_c, 1, 31, 0
2, 34520, Note_on_c, 4, 55, 0
2, 34525, Note_on_c, 1, 31, 86
2, 34525, Note_on_c, 4, 62, 67
2, 34530, Note_on_c, 9, 25, 72
2, 34531, Note_on_c, 9, 25, 0
2, 34531, Note_on_c, 9, 54, 49
2, 34531, Note_on_c, 9, 54, 0
2, 34531, Note_on_c, 9, 82, 58
2, 34531, Note_on_c, 9, 82, 0
2, 34545, Note_on_c, 1, 31, 0
2, 34545, Note_on_c, 4, 67, 0
2, 34551, Note_on_c, 4, 62, 0
2, 34551, Note_on_c, 4, 69, 0
2, 34555, Note_on_c, 1, 31, 110
2, 34555, Note_on_c, 0, 62, 72
2, 34556, Note_on_c, 0, 67, 69
2, 34556, Note_on_c, 0, 71, 72
2, 34556, Note_on_c, 0, 74, 72
2, 34556, Note_on_c, 4, 55, 90
2, 34557, Note_on_c, 6, 71, 0
2, 34557, Note_on_c, 6, 62, 0
2, 34557, Note_on_c, 6, 67, 0
2, 34560, Note_on_c, 9, 36, 110
2, 34560, Note_on_c, 9, 42, 123
2, 34561, Note_on_c, 9, 42, 0
2, 34561, Note_on_c, 9, 36, 0
2, 34561, Note_on_c, 9, 54, 91
2, 34561, Note_on_c, 9, 54, 0
2, 34580, Note_on_c, 0, 67, 0
2, 34580, Note_on_c, 0, 74, 0
2, 34580, Note_on_c, 0, 62, 0
2, 34585, Note_on_c, 1, 31, 0
2, 34585, Note_on_c, 0, 62, 69
2, 34585, Note_on_c, 0, 67, 79
2, 34585, Note_on_c, 0, 74, 79
2, 34590, Note_on_c, 9, 54, 49
2, 34591, Note_on_c, 9, 54, 0
2, 34610, Note_on_c, 0, 71, 0
2, 34615, Note_on_c, 0, 67, 0
2, 34616, Note_on_c, 0, 74, 0
2, 34616, Note_on_c, 1, 31, 106
2, 34616, Note_on_c, 0, 67, 82
2, 34616, Note_on_c, 0, 71, 76
2, 34616, Note_on_c, 0, 74, 79
2, 34616, Note_on_c, 4, 71, 90
2, 34620, Note_on_c, 9, 36, 114
2, 34621, Note_on_c, 9, 36, 0
2, 34621, Note_on_c, 9, 53, 79
2, 34621, Note_on_c, 9, 53, 0
2, 34621, Note_on_c, 9, 42, 61
2, 34621, Note_on_c, 9, 42, 0
2, 34621, Note_on_c, 9, 54, 53
2, 34621, Note_on_c, 9, 54, 0
2, 34621, Note_on_c, 9, 82, 56
2, 34621, Note_on_c, 9, 82, 0
2, 34640, Note_on_c, 0, 62, 0
2, 34641, Note_on_c, 0, 74, 0
2, 34641, Note_on_c, 0, 67, 0
2, 34645, Note_on_c, 1, 31, 0
2, 34645, Note_on_c, 0, 62, 72
2, 34645, Note_on_c, 0, 67, 79
2, 34645, Note_on_c, 0, 74, 79
2, 34650, Note_on_c, 9, 54, 53
2, 34650, Note_on_c, 9, 54, 0
2, 34650, Note_on_c, 9, 82, 58
2, 34650, Note_on_c, 9, 82, 0
2, 34670, Note_on_c, 0, 71, 0
2, 34675, Note_on_c, 0, 62, 0
2, 34676, Note_on_c, 0, 74, 0
2, 34676, Note_on_c, 1, 31, 110
2, 34676, Note_on_c, 0, 62, 82
2, 34676, Note_on_c, 0, 71, 96
2, 34676, Note_on_c, 0, 74, 96
2, 34676, Note_on_c, 4, 67, 76
2, 34680, Note_on_c, 9, 38, 114
2, 34681, Note_on_c, 9, 38, 0
2, 34681, Note_on_c, 9, 42, 127
2, 34681, Note_on_c, 9, 42, 0
2, 34681, Note_on_c, 9, 123, 99
2, 34681, Note_on_c, 9, 123, 0
2, 34681, Note_on_c, 9, 54, 106
2, 34681, Note_on_c, 9, 54, 0
2, 34705, Note_on_c, 4, 62, 90
2, 34710, Note_on_c, 9, 54, 58
2, 34710, Note_on_c, 9, 54, 0
2, 34735, Note_on_c, 0, 67, 0
2, 34736, Note_on_c, 0, 74, 0
2, 34736, Note_on_c, 0, 62, 0
2, 34736, Note_on_c, 0, 71, 0
2, 34740, Note_on_c, 9, 53, 76
2, 34740, Note_on_c, 9, 42, 56
2, 34741, Note_on_c, 9, 42, 0
2, 34741, Note_on_c, 9, 53, 0
2, 34741, Note_on_c, 9, 54, 51
2, 34741, Note_on_c, 9, 54, 0
2, 34741, Note_on_c, 9, 82, 53
2, 34741, Note_on_c, 9, 82, 0
2, 34745, Note_on_c, 1, 31, 0
2, 34745, Note_on_c, 4, 55, 0
2, 34756, Note_on_c, 4, 62, 0
2, 34765, Note_on_c, 4, 71, 0
2, 34765, Note_on_c, 1, 31, 106
2, 34766, Note_on_c, 0, 62, 76
2, 34766, Note_on_c, 0, 67, 79
2, 34766, Note_on_c, 0, 71, 74
2, 34766, Note_on_c, 0, 74, 89
2, 34766, Note_on_c, 4, 55, 86
2, 34770, Note_on_c, 9, 36, 114
2, 34771, Note_on_c, 9, 36, 0
2, 34771, Note_on_c, 4, 67, 0
2, 34771, Note_on_c, 9, 54, 49
2, 34771, Note_on_c, 9, 54, 0
2, 34771, Note_on_c, 9, 82, 56
2, 34771, Note_on_c, 9, 82, 0
2, 34785, Note_on_c, 0, 71, 0
2, 34785, Note_on_c, 0, 67, 0
2, 34791, Note_on_c, 0, 62, 0
2, 34795, Note_on_c, 0, 74, 0
2, 34795, Note_on_c, 4, 71, 82
2, 34800, Note_on_c, 1, 31, 0
2, 34800, Note_on_c, 9, 42, 127
2, 34800, Note_on_c, 9, 54, 99
2, 34801, Note_on_c, 9, 54, 0
2, 34801, Note_on_c, 9, 42, 0
2, 34825, Note_on_c, 1, 31, 102
2, 34825, Note_on_c, 0, 62, 62
2, 34825, Note_on_c, 0, 67, 59
2, 34826, Note_on_c, 0, 71, 64
2, 34826, Note_on_c, 0, 74, 82
2, 34831, Note_on_c, 9, 36, 35
2, 34831, Note_on_c, 9, 36, 0
2, 34831, Note_on_c, 9, 54, 45
2, 34831, Note_on_c, 9, 54, 0
2, 34845, Note_on_c, 1, 31, 0
2, 34850, Note_on_c, 0, 71, 0
2, 34850, Note_on_c, 0, 67, 0
2, 34850, Note_on_c, 0, 62, 0
2, 34855, Note_on_c, 1, 31, 106
2, 34855, Note_on_c, 0, 62, 74
2, 34856, Note_on_c, 0, 67, 76
2, 34856, Note_on_c, 0, 71, 76
2, 34856, Note_on_c, 4, 67, 74
2, 34860, Note_on_c, 9, 36, 127
2, 34860, Note_on_c, 9, 53, 82
2, 34860, Note_on_c, 9, 42, 51
2, 34860, Note_on_c, 9, 54, 45
2, 34861, Note_on_c, 9, 54, 0
2, 34861, Note_on_c, 9, 36, 0
2, 34861, Note_on_c, 9, 42, 0
2, 34861, Note_on_c, 9, 53, 0
2, 34861, Note_on_c, 9, 82, 56
2, 34861, Note_on_c, 9, 82, 0
2, 34886, Note_on_c, 0, 74, 0
2, 34886, Note_on_c, 0, 62, 0
2, 34886, Note_on_c, 0, 67, 0
2, 34886, Note_on_c, 0, 62, 79
2, 34886, Note_on_c, 0, 67, 82
2, 34886, Note_on_c, 0, 74, 79
2, 34886, Note_on_c, 4, 62, 82
2, 34891, Note_on_c, 1, 31, 0
2, 34891, Note_on_c, 9, 54, 53
2, 34891, Note_on_c, 9, 54, 0
2, 34891, Note_on_c, 9, 82, 58
2, 34891, Note_on_c, 9, 82, 0
2, 34910, Note_on_c, 0, 67, 0
2, 34910, Note_on_c, 0, 74, 0
2, 34915, Note_on_c, 0, 71, 0
2, 34915, Note_on_c, 0, 62, 0
2, 34915, Note_on_c, 1, 31, 114
2, 34915, Note_on_c, 0, 62, 91
2, 34915, Note_on_c, 0, 67, 91
2, 34915, Note_on_c, 0, 71, 86
2, 34915, Note_on_c, 0, 74, 82
2, 34920, Note_on_c, 9, 38, 114
2, 34920, Note_on_c, 9, 38, 0
2, 34920, Note_on_c, 9, 42, 123
2, 34920, Note_on_c, 9, 123, 85
2, 34920, Note_on_c, 9, 54, 99
2, 34921, Note_on_c, 9, 54, 0
2, 34921, Note_on_c, 9, 123, 0
2, 34921, Note_on_c, 9, 42, 0
2, 34925, Note_on_c, 4, 67, 0
2, 34946, Note_on_c, 4, 67, 67
2, 34950, Note_on_c, 4, 71, 0
2, 34950, Note_on_c, 9, 54, 56
2, 34950, Note_on_c, 9, 54, 0
2, 34955, Note_on_c, 1, 31, 0
2, 34961, Note_on_c, 4, 62, 0
2, 34971, Note_on_c, 0, 67, 0
2, 34971, Note_on_c, 0, 71, 0
2, 34971, Note_on_c, 0, 74, 0
2, 34975, Note_on_c, 0, 62, 0
2, 34975, Note_on_c, 1, 31, 79
2, 34975, Note_on_c, 4, 71, 86
2, 34980, Note_on_c, 4, 67, 0
2, 34980, Note_on_c, 9, 53, 86
2, 34980, Note_on_c, 9, 42, 75
2, 34980, Note_on_c, 9, 54, 38
2, 34981, Note_on_c, 9, 54, 0
2, 34981, Note_on_c, 9, 42, 0
2, 34981, Note_on_c, 9, 53, 0
2, 34981, Note_on_c, 9, 82, 49
2, 34981, Note_on_c, 9, 82, 0
2, 34990, Note_on_c, 1, 31, 0
2, 35005, Note_on_c, 1, 31, 106
2, 35005, Note_on_c, 4, 67, 76
2, 35010, Note_on_c, 9, 54, 45
2, 35011, Note_on_c, 9, 54, 0
2, 35011, Note_on_c, 9, 82, 56
2, 35011, Note_on_c, 9, 82, 0
2, 35015, Note_on_c, 4, 55, 0
2, 35031, Note_on_c, 4, 71, 0
2, 35035, Note_on_c, 1, 31, 0
2, 35036, Note_on_c, 6, 62, 0
2, 35036, Note_on_c, 6, 71, 0
2, 35036, Note_on_c, 4, 67, 0
2, 35036, Note_on_c, 6, 67, 0
2, 35036, Note_on_c, 1, 33, 106
2, 35036, Note_on_c, 0, 60, 72
2, 35036, Note_on_c, 0, 48, 72
2, 35036, Note_on_c, 0, 52, 72
2, 35036, Note_on_c, 0, 57, 69
2, 35036, Note_on_c, 4, 45, 86
2, 35036, Note_on_c, 6, 60, 61
2, 35036, Note_on_c, 6, 52, 57
2, 35036, Note_on_c, 6, 57, 64
2, 35040, Note_on_c, 9, 36, 127
2, 35040, Note_on_c, 9, 42, 127
2, 35041, Note_on_c, 9, 42, 0
2, 35041, Note_on_c, 9, 36, 0
2, 35041, Note_on_c, 9, 54, 85
2, 35041, Note_on_c, 9, 54, 0
2, 35055, Note_on_c, 0, 57, 0
2, 35055, Note_on_c, 0, 60, 0
2, 35055, Note_on_c, 0, 52, 0
2, 35065, Note_on_c, 0, 60, 79
2, 35066, Note_on_c, 0, 52, 69
2, 35066, Note_on_c, 0, 57, 79
2, 35070, Note_on_c, 1, 33, 0
2, 35070, Note_on_c, 9, 54, 75
2, 35070, Note_on_c, 9, 54, 0
2, 35085, Note_on_c, 0, 48, 0
2, 35091, Note_on_c, 0, 57, 0
2, 35091, Note_on_c, 0, 60, 0
2, 35095, Note_on_c, 1, 33, 110
2, 35095, Note_on_c, 0, 60, 79
2, 35095, Note_on_c, 0, 48, 76
2, 35096, Note_on_c, 0, 57, 82
2, 35096, Note_on_c, 4, 60, 90
2, 35101, Note_on_c, 9, 36, 86
2, 35101, Note_on_c, 9, 36, 0
2, 35101, Note_on_c, 9, 53, 86
2, 35101, Note_on_c, 9, 53, 0
2, 35101, Note_on_c, 9, 54, 72
2, 35101, Note_on_c, 9, 54, 0
2, 35101, Note_on_c, 9, 42, 66
2, 35101, Note_on_c, 9, 42, 0
2, 35101, Note_on_c, 9, 82, 53
2, 35101, Note_on_c, 9, 82, 0
2, 35120, Note_on_c, 0, 52, 0
2, 35126, Note_on_c, 0, 57, 0
2, 35126, Note_on_c, 0, 60, 0
2, 35126, Note_on_c, 0, 60, 79
2, 35126, Note_on_c, 0, 52, 72
2, 35126, Note_on_c, 0, 57, 79
2, 35130, Note_on_c, 1, 33, 0
2, 35130, Note_on_c, 9, 54, 72
2, 35130, Note_on_c, 9, 54, 0
2, 35130, Note_on_c, 9, 82, 75
2, 35130, Note_on_c, 9, 82, 0
2, 35151, Note_on_c, 0, 60, 0
2, 35151, Note_on_c, 0, 52, 0
2, 35151, Note_on_c, 0, 48, 0
2, 35155, Note_on_c, 1, 33, 106
2, 35156, Note_on_c, 0, 60, 96
2, 35156, Note_on_c, 0, 48, 96
2, 35156, Note_on_c, 0, 52, 82
2, 35156, Note_on_c, 4, 57, 69
2, 35160, Note_on_c, 9, 38, 114
2, 35160, Note_on_c, 9, 42, 123
2, 35161, Note_on_c, 9, 42, 0
2, 35161, Note_on_c, 9, 38, 0
2, 35161, Note_on_c, 9, 123, 99
2, 35161, Note_on_c, 9, 123, 0
2, 35161, Note_on_c, 9, 54, 85
2, 35161, Note_on_c, 9, 54, 0
2, 35185, Note_on_c, 4, 64, 86
2, 35190, Note_on_c, 9, 54, 69
2, 35191, Note_on_c, 9, 54, 0
2, 35195, Note_on_c, 4, 45, 0
2, 35210, Note_on_c, 0, 57, 0
2, 35216, Note_on_c, 0, 48, 0
2, 35216, Note_on_c, 0, 60, 0
2, 35216, Note_on_c, 0, 52, 0
2, 35220, Note_on_c, 9, 53, 82
2, 35221, Note_on_c, 9, 53, 0
2, 35221, Note_on_c, 1, 33, 0
2, 35221, Note_on_c, 9, 42, 51
2, 35221, Note_on_c, 9, 42, 0
2, 35221, Note_on_c, 9, 54, 58
2, 35221, Note_on_c, 9, 54, 0
2, 35221, Note_on_c, 9, 82, 58
2, 35221, Note_on_c, 9, 82, 0
2, 35226, Note_on_c, 4, 64, 0
2, 35240, Note_on_c, 4, 60, 0
2, 35245, Note_on_c, 4, 57, 0
2, 35245, Note_on_c, 1, 33, 110
2, 35245, Note_on_c, 0, 60, 89
2, 35246, Note_on_c, 0, 48, 74
2, 35246, Note_on_c, 0, 52, 76
2, 35246, Note_on_c, 0, 57, 79
2, 35246, Note_on_c, 4, 45, 86
2, 35250, Note_on_c, 9, 36, 114
2, 35251, Note_on_c, 9, 36, 0
2, 35251, Note_on_c, 9, 54, 53
2, 35251, Note_on_c, 9, 54, 0
2, 35251, Note_on_c, 9, 82, 56
2, 35251, Note_on_c, 9, 82, 0
2, 35265, Note_on_c, 0, 52, 0
2, 35265, Note_on_c, 0, 48, 0
2, 35266, Note_on_c, 0, 57, 0
2, 35270, Note_on_c, 0, 60, 0
2, 35275, Note_on_c, 1, 33, 0
2, 35275, Note_on_c, 4, 60, 80
2, 35281, Note_on_c, 9, 42, 123
2, 35281, Note_on_c, 9, 42, 0
2, 35281, Note_on_c, 9, 54, 75
2, 35281, Note_on_c, 9, 54, 0
2, 35305, Note_on_c, 1, 33, 79
2, 35305, Note_on_c, 0, 60, 82
2, 35305, Note_on_c, 0, 48, 64
2, 35306, Note_on_c, 0, 52, 62
2, 35306, Note_on_c, 0, 57, 59
2, 35310, Note_on_c, 9, 36, 45
2, 35311, Note_on_c, 9, 36, 0
2, 35311, Note_on_c, 9, 54, 58
2, 35311, Note_on_c, 9, 54, 0
2, 35320, Note_on_c, 1, 33, 0
2, 35330, Note_on_c, 0, 48, 0
2, 35331, Note_on_c, 0, 52, 0
2, 35331, Note_on_c, 0, 57, 0
2, 35335, Note_on_c, 1, 33, 110
2, 35335, Note_on_c, 0, 48, 76
2, 35336, Note_on_c, 0, 52, 74
2, 35336, Note_on_c, 0, 57, 76
2, 35336, Note_on_c, 4, 57, 74
2, 35340, Note_on_c, 9, 36, 123
2, 35340, Note_on_c, 9, 53, 86
2, 35341, Note_on_c, 9, 53, 0
2, 35341, Note_on_c, 9, 36, 0
2, 35341, Note_on_c, 9, 42, 49
2, 35341, Note_on_c, 9, 42, 0
2, 35341, Note_on_c, 9, 54, 51
2, 35341, Note_on_c, 9, 54, 0
2, 35341, Note_on_c, 9, 82, 63
2, 35341, Note_on_c, 9, 82, 0
2, 35366, Note_on_c, 0, 52, 0
2, 35366, Note_on_c, 0, 57, 0
2, 35366, Note_on_c, 0, 60, 0
2, 35366, Note_on_c, 0, 60, 79
2, 35366, Note_on_c, 0, 52, 79
2, 35366, Note_on_c, 0, 57, 82
2, 35366, Note_on_c, 4, 64, 86
2, 35370, Note_on_c, 1, 33, 0
2, 35370, Note_on_c, 9, 54, 56
2, 35370, Note_on_c, 9, 54, 0
2, 35370, Note_on_c, 9, 82, 51
2, 35370, Note_on_c, 9, 82, 0
2, 35390, Note_on_c, 0, 60, 0
2, 35390, Note_on_c, 0, 52, 0
2, 35390, Note_on_c, 0, 57, 0
2, 35395, Note_on_c, 0, 48, 0
2, 35395, Note_on_c, 1, 33, 110
2, 35395, Note_on_c, 0, 60, 82
2, 35395, Note_on_c, 0, 48, 86
2, 35396, Note_on_c, 0, 52, 91
2, 35396, Note_on_c, 0, 57, 91
2, 35400, Note_on_c, 9, 38, 114
2, 35401, Note_on_c, 9, 38, 0
2, 35401, Note_on_c, 4, 57, 0
2, 35401, Note_on_c, 9, 42, 123
2, 35401, Note_on_c, 9, 42, 0
2, 35401, Note_on_c, 9, 123, 91
2, 35401, Note_on_c, 9, 123, 0
2, 35401, Note_on_c, 9, 54, 85
2, 35401, Note_on_c, 9, 54, 0
2, 35425, Note_on_c, 4, 57, 64
2, 35431, Note_on_c, 9, 54, 28
2, 35431, Note_on_c, 9, 54, 0
2, 35440, Note_on_c, 1, 33, 0
2, 35445, Note_on_c, 4, 60, 0
2, 35450, Note_on_c, 0, 52, 0
2, 35450, Note_on_c, 0, 57, 0
2, 35455, Note_on_c, 0, 60, 0
2, 35456, Note_on_c, 0, 48, 0
2, 35456, Note_on_c, 1, 33, 79
2, 35456, Note_on_c, 4, 60, 80
2, 35460, Note_on_c, 4, 57, 0
2, 35460, Note_on_c, 9, 53, 82
2, 35460, Note_on_c, 9, 42, 41
2, 35461, Note_on_c, 9, 42, 0
2, 35461, Note_on_c, 9, 53, 0
2, 35461, Note_on_c, 9, 54, 51
2, 35461, Note_on_c, 9, 54, 0
2, 35461, Note_on_c, 9, 82, 58
2, 35461, Note_on_c, 9, 82, 0
2, 35470, Note_on_c, 1, 33, 0
2, 35486, Note_on_c, 1, 33, 86
2, 35486, Note_on_c, 4, 57, 86
2, 35491, Note_on_c, 4, 45, 0
2, 35491, Note_on_c, 9, 25, 72
2, 35491, Note_on_c, 9, 25, 0
2, 35491, Note_on_c, 9, 54, 49
2, 35491, Note_on_c, 9, 54, 0
2, 35491, Note_on_c, 9, 82, 58
2, 35491, Note_on_c, 9, 82, 0
2, 35505, Note_on_c, 1, 33, 0
2, 35515, Note_on_c, 1, 33, 110
2, 35515, Note_on_c, 0, 60, 72
2, 35516, Note_on_c, 0, 48, 72
2, 35516, Note_on_c, 0, 52, 72
2, 35516, Note_on_c, 0, 57, 69
2, 35516, Note_on_c, 4, 45, 90
2, 35520, Note_on_c, 9, 36, 110
2, 35520, Note_on_c, 9, 42, 123
2, 35521, Note_on_c, 9, 42, 0
2, 35521, Note_on_c, 4, 57, 0
2, 35521, Note_on_c, 9, 36, 0
2, 35521, Note_on_c, 4, 60, 0
2, 35521, Note_on_c, 4, 64, 0
2, 35521, Note_on_c, 9, 54, 91
2, 35521, Note_on_c, 9, 54, 0
2, 35545, Note_on_c, 0, 52, 0
2, 35545, Note_on_c, 1, 33, 0
2, 35545, Note_on_c, 0, 60, 0
2, 35546, Note_on_c, 0, 57, 0
2, 35546, Note_on_c, 0, 60, 79
2, 35546, Note_on_c, 0, 52, 69
2, 35546, Note_on_c, 0, 57, 79
2, 35550, Note_on_c, 9, 54, 49
2, 35551, Note_on_c, 9, 54, 0
2, 35570, Note_on_c, 0, 57, 0
2, 35570, Note_on_c, 0, 60, 0
2, 35575, Note_on_c, 0, 48, 0
2, 35575, Note_on_c, 1, 33, 106
2, 35575, Note_on_c, 0, 60, 79
2, 35575, Note_on_c, 0, 48, 76
2, 35576, Note_on_c, 0, 57, 82
2, 35576, Note_on_c, 4, 60, 90
2, 35580, Note_on_c, 9, 36, 114
2, 35580, Note_on_c, 9, 53, 79
2, 35581, Note_on_c, 9, 53, 0
2, 35581, Note_on_c, 9, 36, 0
2, 35581, Note_on_c, 9, 42, 61
2, 35581, Note_on_c, 9, 42, 0
2, 35581, Note_on_c, 9, 54, 53
2, 35581, Note_on_c, 9, 54, 0
2, 35581, Note_on_c, 9, 82, 56
2, 35581, Note_on_c, 9, 82, 0
2, 35600, Note_on_c, 0, 60, 0
2, 35600, Note_on_c, 0, 52, 0
2, 35601, Note_on_c, 0, 57, 0
2, 35605, Note_on_c, 1, 33, 0
2, 35605, Note_on_c, 0, 60, 79
2, 35606, Note_on_c, 0, 52, 72
2, 35606, Note_on_c, 0, 57, 79
2, 35610, Note_on_c, 9, 54, 53
2, 35611, Note_on_c, 9, 54, 0
2, 35611, Note_on_c, 9, 82, 58
2, 35611, Note_on_c, 9, 82, 0
2, 35635, Note_on_c, 0, 52, 0
2, 35635, Note_on_c, 0, 60, 0
2, 35636, Note_on_c, 0, 48, 0
2, 35636, Note_on_c, 1, 33, 110
2, 35636, Note_on_c, 0, 60, 96
2, 35636, Note_on_c, 0, 48, 96
2, 35636, Note_on_c, 0, 52, 82
2, 35636, Note_on_c, 4, 57, 74
2, 35640, Note_on_c, 9, 38, 114
2, 35640, Note_on_c, 9, 38, 0
2, 35640, Note_on_c, 9, 42, 127
2, 35640, Note_on_c, 9, 42, 0
2, 35640, Note_on_c, 9, 123, 99
2, 35640, Note_on_c, 9, 54, 106
2, 35641, Note_on_c, 9, 54, 0
2, 35641, Note_on_c, 9, 123, 0
2, 35665, Note_on_c, 4, 64, 82
2, 35671, Note_on_c, 9, 54, 58
2, 35671, Note_on_c, 9, 54, 0
2, 35685, Note_on_c, 4, 57, 0
2, 35686, Note_on_c, 4, 45, 0
2, 35696, Note_on_c, 0, 48, 0
2, 35696, Note_on_c, 0, 60, 0
2, 35696, Note_on_c, 0, 57, 0
2, 35696, Note_on_c, 0, 52, 0
2, 35696, Note_on_c, 4, 64, 0
2, 35696, Note_on_c, 4, 57, 67
2, 35700, Note_on_c, 9, 53, 76
2, 35700, Note_on_c, 9, 53, 0
2, 35700, Note_on_c, 9, 42, 56
2, 35700, Note_on_c, 9, 42, 0
2, 35700, Note_on_c, 9, 54, 51
2, 35700, Note_on_c, 9, 54, 0
2, 35700, Note_on_c, 9, 82, 53
2, 35700, Note_on_c, 9, 82, 0
2, 35705, Note_on_c, 1, 33, 0
2, 35710, Note_on_c, 4, 60, 0
2, 35710, Note_on_c, 4, 57, 0
2, 35725, Note_on_c, 1, 33, 106
2, 35725, Note_on_c, 0, 60, 89
2, 35726, Note_on_c, 0, 48, 74
2, 35726, Note_on_c, 0, 52, 76
2, 35726, Note_on_c, 0, 57, 79
2, 35726, Note_on_c, 4, 45, 86
2, 35730, Note_on_c, 9, 36, 114
2, 35730, Note_on_c, 9, 54, 49
2, 35731, Note_on_c, 9, 54, 0
2, 35731, Note_on_c, 9, 36, 0
2, 35731, Note_on_c, 9, 82, 56
2, 35731, Note_on_c, 9, 82, 0
2, 35746, Note_on_c, 0, 57, 0
2, 35750, Note_on_c, 0, 48, 0
2, 35751, Note_on_c, 0, 52, 0
2, 35755, Note_on_c, 0, 60, 0
2, 35755, Note_on_c, 4, 60, 90
2, 35760, Note_on_c, 9, 42, 127
2, 35761, Note_on_c, 9, 42, 0
2, 35761, Note_on_c, 1, 33, 0
2, 35761, Note_on_c, 9, 54, 99
2, 35761, Note_on_c, 9, 54, 0
2, 35785, Note_on_c, 1, 33, 102
2, 35785, Note_on_c, 0, 60, 82
2, 35785, Note_on_c, 0, 48, 64
2, 35785, Note_on_c, 0, 52, 62
2, 35786, Note_on_c, 0, 57, 59
2, 35790, Note_on_c, 9, 36, 35
2, 35791, Note_on_c, 9, 36, 0
2, 35791, Note_on_c, 9, 54, 45
2, 35791, Note_on_c, 9, 54, 0
2, 35805, Note_on_c, 1, 33, 0
2, 35815, Note_on_c, 0, 48, 0
2, 35816, Note_on_c, 0, 52, 0
2, 35816, Note_on_c, 0, 57, 0
2, 35816, Note_on_c, 1, 33, 106
2, 35816, Note_on_c, 0, 48, 76
2, 35816, Note_on_c, 0, 52, 74
2, 35816, Note_on_c, 0, 57, 76
2, 35816, Note_on_c, 4, 57, 74
2, 35821, Note_on_c, 9, 36, 127
2, 35821, Note_on_c, 9, 36, 0
2, 35821, Note_on_c, 9, 53, 82
2, 35821, Note_on_c, 9, 53, 0
2, 35821, Note_on_c, 9, 42, 51
2, 35821, Note_on_c, 9, 42, 0
2, 35821, Note_on_c, 9, 54, 45
2, 35821, Note_on_c, 9, 54, 0
2, 35821, Note_on_c, 9, 82, 56
2, 35821, Note_on_c, 9, 82, 0
2, 35840, Note_on_c, 0, 52, 0
2, 35840, Note_on_c, 0, 57, 0
2, 35845, Note_on_c, 0, 60, 0
2, 35846, Note_on_c, 0, 60, 79
2, 35846, Note_on_c, 0, 52, 79
2, 35846, Note_on_c, 0, 57, 82
2, 35846, Note_on_c, 4, 64, 82
2, 35850, Note_on_c, 9, 54, 53
2, 35851, Note_on_c, 9, 54, 0
2, 35851, Note_on_c, 1, 33, 0
2, 35851, Note_on_c, 9, 82, 58
2, 35851, Note_on_c, 9, 82, 0
2, 35875, Note_on_c, 0, 60, 0
2, 35876, Note_on_c, 0, 52, 0
2, 35876, Note_on_c, 0, 48, 0
2, 35876, Note_on_c, 0, 57, 0
2, 35876, Note_on_c, 1, 33, 114
2, 35876, Note_on_c, 0, 60, 82
2, 35876, Note_on_c, 0, 48, 86
2, 35876, Note_on_c, 0, 52, 91
2, 35876, Note_on_c, 0, 57, 91
2, 35880, Note_on_c, 9, 38, 114
2, 35880, Note_on_c, 9, 42, 123
2, 35881, Note_on_c, 9, 42, 0
2, 35881, Note_on_c, 9, 38, 0
2, 35881, Note_on_c, 4, 57, 0
2, 35881, Note_on_c, 9, 123, 85
2, 35881, Note_on_c, 9, 123, 0
2, 35881, Note_on_c, 9, 54, 99
2, 35881, Note_on_c, 9, 54, 0
2, 35905, Note_on_c, 4, 57, 69
2, 35910, Note_on_c, 9, 54, 56
2, 35910, Note_on_c, 9, 54, 0
2, 35915, Note_on_c, 1, 33, 0
2, 35915, Note_on_c, 4, 60, 0
2, 35931, Note_on_c, 0, 52, 0
2, 35931, Note_on_c, 0, 48, 0
2, 35931, Note_on_c, 0, 57, 0
2, 35935, Note_on_c, 0, 60, 0
2, 35935, Note_on_c, 4, 57, 0
2, 35935, Note_on_c, 1, 33, 79
2, 35935, Note_on_c, 4, 60, 85
2, 35940, Note_on_c, 9, 53, 86
2, 35941, Note_on_c, 9, 53, 0
2, 35941, Note_on_c, 9, 42, 75
2, 35941, Note_on_c, 9, 42, 0
2, 35941, Note_on_c, 9, 54, 38
2, 35941, Note_on_c, 9, 54, 0
2, 35941, Note_on_c, 9, 82, 49
2, 35941, Note_on_c, 9, 82, 0
2, 35951, Note_on_c, 1, 33, 0
2, 35965, Note_on_c, 1, 33, 106
2, 35965, Note_on_c, 4, 57, 90
2, 35970, Note_on_c, 9, 54, 45
2, 35970, Note_on_c, 9, 54, 0
2, 35970, Note_on_c, 9, 82, 56
2, 35970, Note_on_c, 9, 82, 0
2, 35985, Note_on_c, 4, 57, 0
2, 35986, Note_on_c, 4, 64, 0
2, 35990, Note_on_c, 6, 52, 0
2, 35990, Note_on_c, 4, 60, 0
2, 35991, Note_on_c, 6, 57, 0
2, 35995, Note_on_c, 6, 60, 0
2, 35995, Note_on_c, 4, 45, 0
2, 35995, Note_on_c, 1, 33, 0
2, 35995, Note_on_c, 1, 33, 106
2, 35995, Note_on_c, 0, 60, 72
2, 35995, Note_on_c, 0, 48, 72
2, 35996, Note_on_c, 0, 52, 72
2, 35996, Note_on_c, 0, 57, 69
2, 35996, Note_on_c, 4, 45, 86
2, 35996, Note_on_c, 6, 60, 61
2, 35996, Note_on_c, 6, 52, 57
2, 35996, Note_on_c, 6, 57, 64
2, 36000, Note_on_c, 9, 36, 127
2, 36001, Note_on_c, 9, 36, 0
2, 36001, Note_on_c, 0, 48, 0
2, 36001, Note_on_c, 0, 52, 0
2, 36001, Note_on_c, 1, 33, 0
2, 36001, Note_on_c, 0, 57, 0
2, 36001, Note_on_c, 0, 60, 0
2, 36001, Note_on_c, 6, 52, 0
2, 36001, Note_on_c, 6, 60, 0
2, 36001, Note_on_c, 4, 45, 0
2, 36001, Note_on_c, 6, 57, 0
2, 36001, Note_on_c, 9, 42, 127
2, 36001, Note_on_c, 9, 42, 0
2, 36001, Note_on_c, 9, 54, 85
2, 36001, Note_on_c, 9, 54, 0
2, 36001, Control_c, 1, 84, 33
2, 36001, Note_on_c, 1, 38, 106
2, 36001, Control_c, 0, 84, 60
2, 36001, Note_on_c, 0, 57, 72
2, 36001, Note_on_c, 0, 57, 0
2, 36001, Control_c, 0, 84, 48
2, 36001, Note_on_c, 0, 62, 69
2, 36001, Control_c, 0, 84, 52
2, 36001, Note_on_c, 0, 66, 72
2, 36001, Control_c, 0, 84, 57
2, 36001, Note_on_c, 0, 69, 72
2, 36001, Control_c, 4, 84, 45
2, 36001, Note_on_c, 4, 50, 86
2, 36001, Control_c, 6, 84, 60
2, 36001, Note_on_c, 6, 57, 59
2, 36001, Note_on_c, 6, 57, 0
2, 36001, Control_c, 6, 84, 52
2, 36001, Note_on_c, 6, 62, 55
2, 36001, Control_c, 6, 84, 57
2, 36001, Note_on_c, 6, 66, 51
2, 36011, Note_on_c, 0, 62, 0
2, 36011, Note_on_c, 0, 69, 0
2, 36026, Note_on_c, 0, 57, 69
2, 36026, Note_on_c, 0, 62, 79
2, 36026, Note_on_c, 0, 69, 79
2, 36030, Note_on_c, 1, 38, 0
2, 36030, Note_on_c, 9, 54, 75
2, 36030, Note_on_c, 9, 54, 0
2, 36045, Note_on_c, 0, 66, 0
2, 36056, Note_on_c, 0, 69, 0
2, 36056, Note_on_c, 0, 62, 0
2, 36056, Note_on_c, 1, 38, 110
2, 36056, Note_on_c, 0, 62, 82
2, 36056, Note_on_c, 0, 66, 76
2, 36056, Note_on_c, 0, 69, 79
2, 36056, Note_on_c, 4, 62, 86
2, 36061, Note_on_c, 9, 36, 86
2, 36061, Note_on_c, 9, 36, 0
2, 36061, Note_on_c, 9, 53, 86
2, 36061, Note_on_c, 9, 53, 0
2, 36061, Note_on_c, 9, 54, 72
2, 36061, Note_on_c, 9, 54, 0
2, 36061, Note_on_c, 9, 42, 66
2, 36061, Note_on_c, 9, 42, 0
2, 36061, Note_on_c, 9, 82, 53
2, 36061, Note_on_c, 9, 82, 0
2, 36070, Note_on_c, 4, 50, 0
2, 36081, Note_on_c, 0, 57, 0
2, 36081, Note_on_c, 0, 69, 0
2, 36081, Note_on_c, 0, 62, 0
2, 36086, Note_on_c, 0, 57, 72
2, 36086, Note_on_c, 0, 62, 79
2, 36086, Note_on_c, 0, 69, 79
2, 36090, Note_on_c, 9, 54, 72
2, 36091, Note_on_c, 9, 54, 0
2, 36091, Note_on_c, 1, 38, 0
2, 36091, Note_on_c, 9, 82, 75
2, 36091, Note_on_c, 9, 82, 0
2, 36110, Note_on_c, 0, 66, 0
2, 36115, Note_on_c, 0, 57, 0
2, 36116, Note_on_c, 0, 69, 0
2, 36116, Note_on_c, 1, 38, 106
2, 36116, Note_on_c, 0, 57, 82
2, 36116, Note_on_c, 0, 66, 96
2, 36116, Note_on_c, 0, 69, 96
2, 36116, Note_on_c, 4, 57, 76
2, 36120, Note_on_c, 9, 38, 114
2, 36120, Note_on_c, 9, 42, 123
2, 36121, Note_on_c, 9, 42, 0
2, 36121, Note_on_c, 9, 38, 0
2, 36121, Note_on_c, 9, 123, 99
2, 36121, Note_on_c, 9, 123, 0
2, 36121, Note_on_c, 9, 54, 85
2, 36121, Note_on_c, 9, 54, 0
2, 36146, Note_on_c, 4, 64, 90
2, 36150, Note_on_c, 9, 54, 69
2, 36151, Note_on_c, 9, 54, 0
2, 36165, Note_on_c, 4, 57, 0
2, 36170, Note_on_c, 0, 69, 0
2, 36175, Note_on_c, 0, 66, 0
2, 36175, Note_on_c, 0, 57, 0
2, 36175, Note_on_c, 0, 62, 0
2, 36180, Note_on_c, 9, 53, 82
2, 36180, Note_on_c, 9, 42, 51
2, 36181, Note_on_c, 9, 42, 0
2, 36181, Note_on_c, 1, 38, 0
2, 36181, Note_on_c, 9, 53, 0
2, 36181, Note_on_c, 9, 54, 58
2, 36181, Note_on_c, 9, 54, 0
2, 36181, Note_on_c, 9, 82, 58
2, 36181, Note_on_c, 9, 82, 0
2, 36195, Note_on_c, 4, 64, 0
2, 36201, Note_on_c, 4, 62, 0
2, 36205, Note_on_c, 1, 38, 110
2, 36205, Note_on_c, 0, 57, 76
2, 36206, Note_on_c, 0, 62, 79
2, 36206, Note_on_c, 0, 66, 74
2, 36206, Note_on_c, 0, 69, 89
2, 36206, Note_on_c, 4, 50, 90
2, 36211, Note_on_c, 9, 36, 114
2, 36211, Note_on_c, 9, 36, 0
2, 36211, Note_on_c, 9, 54, 53
2, 36211, Note_on_c, 9, 54, 0
2, 36211, Note_on_c, 9, 82, 56
2, 36211, Note_on_c, 9, 82, 0
2, 36225, Note_on_c, 0, 62, 0
2, 36230, Note_on_c, 0, 57, 0
2, 36230, Note_on_c, 0, 66, 0
2, 36235, Note_on_c, 1, 38, 0
2, 36235, Note_on_c, 0, 69, 0
2, 36235, Note_on_c, 4, 62, 76
2, 36240, Note_on_c, 9, 42, 123
2, 36241, Note_on_c, 9, 42, 0
2, 36241, Note_on_c, 9, 54, 75
2, 36241, Note_on_c, 9, 54, 0
2, 36265, Note_on_c, 1, 38, 79
2, 36266, Note_on_c, 0, 57, 62
2, 36266, Note_on_c, 0, 62, 59
2, 36266, Note_on_c, 0, 66, 64
2, 36266, Note_on_c, 0, 69, 82
2, 36266, Note_on_c, 4, 57, 51
2, 36270, Note_on_c, 9, 36, 45
2, 36270, Note_on_c, 9, 54, 58
2, 36271, Note_on_c, 9, 54, 0
2, 36271, Note_on_c, 9, 36, 0
2, 36280, Note_on_c, 1, 38, 0
2, 36295, Note_on_c, 0, 66, 0
2, 36295, Note_on_c, 0, 62, 0
2, 36295, Note_on_c, 0, 57, 0
2, 36295, Note_on_c, 1, 38, 110
2, 36295, Note_on_c, 0, 57, 74
2, 36295, Note_on_c, 0, 62, 76
2, 36295, Note_on_c, 0, 66, 76
2, 36300, Note_on_c, 9, 36, 123
2, 36300, Note_on_c, 9, 36, 0
2, 36300, Note_on_c, 9, 53, 86
2, 36300, Note_on_c, 9, 53, 0
2, 36300, Note_on_c, 9, 42, 49
2, 36300, Note_on_c, 9, 42, 0
2, 36300, Note_on_c, 9, 54, 51
2, 36300, Note_on_c, 9, 82, 63
2, 36301, Note_on_c, 9, 82, 0
2, 36301, Note_on_c, 9, 54, 0
2, 36320, Note_on_c, 0, 62, 0
2, 36320, Note_on_c, 0, 57, 0
2, 36325, Note_on_c, 0, 69, 0
2, 36326, Note_on_c, 0, 57, 79
2, 36326, Note_on_c, 0, 62, 82
2, 36326, Note_on_c, 0, 69, 79
2, 36326, Note_on_c, 4, 64, 82
2, 36330, Note_on_c, 9, 54, 56
2, 36330, Note_on_c, 9, 82, 51
2, 36331, Note_on_c, 9, 82, 0
2, 36331, Note_on_c, 9, 54, 0
2, 36331, Note_on_c, 1, 38, 0
2, 36335, Note_on_c, 4, 57, 0
2, 36350, Note_on_c, 0, 66, 0
2, 36355, Note_on_c, 0, 57, 0
2, 36356, Note_on_c, 0, 62, 0
2, 36356, Note_on_c, 0, 69, 0
2, 36356, Note_on_c, 1, 38, 110
2, 36356, Note_on_c, 0, 57, 91
2, 36356, Note_on_c, 0, 62, 91
2, 36356, Note_on_c, 0, 66, 86
2, 36356, Note_on_c, 0, 69, 82
2, 36360, Note_on_c, 9, 38, 114
2, 36360, Note_on_c, 9, 42, 123
2, 36361, Note_on_c, 9, 42, 0
2, 36361, Note_on_c, 9, 38, 0
2, 36361, Note_on_c, 9, 123, 91
2, 36361, Note_on_c, 9, 123, 0
2, 36361, Note_on_c, 9, 54, 85
2, 36361, Note_on_c, 9, 54, 0
2, 36385, Note_on_c, 4, 57, 64
2, 36390, Note_on_c, 4, 62, 0
2, 36390, Note_on_c, 9, 54, 28
2, 36390, Note_on_c, 9, 54, 0
2, 36400, Note_on_c, 1, 38, 0
2, 36410, Note_on_c, 0, 62, 0
2, 36411, Note_on_c, 0, 66, 0
2, 36411, Note_on_c, 0, 69, 0
2, 36416, Note_on_c, 0, 57, 0
2, 36416, Note_on_c, 1, 38, 79
2, 36416, Note_on_c, 4, 62, 79
2, 36421, Note_on_c, 9, 53, 82
2, 36421, Note_on_c, 9, 53, 0
2, 36421, Note_on_c, 9, 42, 41
2, 36421, Note_on_c, 9, 42, 0
2, 36421, Note_on_c, 9, 54, 51
2, 36421, Note_on_c, 9, 54, 0
2, 36421, Note_on_c, 9, 82, 58
2, 36421, Note_on_c, 9, 82, 0
2, 36425, Note_on_c, 4, 57, 0
2, 36430, Note_on_c, 1, 38, 0
2, 36440, Note_on_c, 4, 50, 0
2, 36445, Note_on_c, 1, 38, 86
2, 36445, Note_on_c, 4, 57, 67
2, 36451, Note_on_c, 9, 25, 72
2, 36451, Note_on_c, 9, 25, 0
2, 36451, Note_on_c, 9, 54, 49
2, 36451, Note_on_c, 9, 54, 0
2, 36451, Note_on_c, 9, 82, 58
2, 36451, Note_on_c, 9, 82, 0
2, 36465, Note_on_c, 4, 62, 0
2, 36465, Note_on_c, 1, 38, 0
2, 36471, Note_on_c, 4, 64, 0
2, 36471, Note_on_c, 4, 57, 0
2, 36476, Note_on_c, 1, 38, 110
2, 36476, Note_on_c, 0, 57, 72
2, 36476, Note_on_c, 0, 62, 69
2, 36476, Note_on_c, 0, 66, 72
2, 36476, Note_on_c, 0, 69, 72
2, 36476, Note_on_c, 4, 50, 90
2, 36480, Note_on_c, 9, 36, 110
2, 36481, Note_on_c, 9, 36, 0
2, 36481, Note_on_c, 9, 42, 123
2, 36481, Note_on_c, 9, 42, 0
2, 36481, Note_on_c, 9, 54, 91
2, 36481, Note_on_c, 9, 54, 0
2, 36500, Note_on_c, 0, 57, 0
2, 36501, Note_on_c, 0, 62, 0
2, 36501, Note_on_c, 0, 69, 0
2, 36505, Note_on_c, 1, 38, 0
2, 36505, Note_on_c, 0, 57, 69
2, 36505, Note_on_c, 0, 62, 79
2, 36505, Note_on_c, 0, 69, 79
2, 36510, Note_on_c, 9, 54, 49
2, 36511, Note_on_c, 9, 54, 0
2, 36530, Note_on_c, 0, 66, 0
2, 36535, Note_on_c, 0, 62, 0
2, 36536, Note_on_c, 0, 69, 0
2, 36536, Note_on_c, 1, 38, 106
2, 36536, Note_on_c, 0, 62, 82
2, 36536, Note_on_c, 0, 66, 76
2, 36536, Note_on_c, 0, 69, 79
2, 36536, Note_on_c, 4, 66, 90
2, 36540, Note_on_c, 9, 36, 114
2, 36541, Note_on_c, 9, 36, 0
2, 36541, Note_on_c, 9, 53, 79
2, 36541, Note_on_c, 9, 53, 0
2, 36541, Note_on_c, 9, 42, 61
2, 36541, Note_on_c, 9, 42, 0
2, 36541, Note_on_c, 9, 54, 53
2, 36541, Note_on_c, 9, 54, 0
2, 36541, Note_on_c, 9, 82, 56
2, 36541, Note_on_c, 9, 82, 0
2, 36560, Note_on_c, 0, 69, 0
2, 36560, Note_on_c, 0, 62, 0
2, 36560, Note_on_c, 0, 57, 0
2, 36565, Note_on_c, 1, 38, 0
2, 36565, Note_on_c, 0, 57, 72
2, 36565, Note_on_c, 0, 62, 79
2, 36566, Note_on_c, 0, 69, 79
2, 36570, Note_on_c, 9, 54, 53
2, 36570, Note_on_c, 9, 54, 0
2, 36570, Note_on_c, 9, 82, 58
2, 36570, Note_on_c, 9, 82, 0
2, 36590, Note_on_c, 0, 66, 0
2, 36595, Note_on_c, 0, 57, 0
2, 36596, Note_on_c, 0, 69, 0
2, 36596, Note_on_c, 1, 38, 110
2, 36596, Note_on_c, 0, 57, 82
2, 36596, Note_on_c, 0, 66, 96
2, 36596, Note_on_c, 0, 69, 96
2, 36596, Note_on_c, 4, 62, 76
2, 36601, Note_on_c, 9, 38, 114
2, 36601, Note_on_c, 9, 38, 0
2, 36601, Note_on_c, 9, 42, 127
2, 36601, Note_on_c, 9, 42, 0
2, 36601, Note_on_c, 9, 123, 99
2, 36601, Note_on_c, 9, 123, 0
2, 36601, Note_on_c, 9, 54, 106
2, 36601, Note_on_c, 9, 54, 0
2, 36625, Note_on_c, 4, 69, 90
2, 36630, Note_on_c, 9, 54, 58
2, 36630, Note_on_c, 9, 54, 0
2, 36655, Note_on_c, 0, 62, 0
2, 36656, Note_on_c, 0, 69, 0
2, 36656, Note_on_c, 0, 66, 0
2, 36656, Note_on_c, 0, 57, 0
2, 36660, Note_on_c, 9, 53, 76
2, 36660, Note_on_c, 9, 42, 56
2, 36661, Note_on_c, 9, 42, 0
2, 36661, Note_on_c, 9, 53, 0
2, 36661, Note_on_c, 9, 54, 51
2, 36661, Note_on_c, 9, 54, 0
2, 36661, Note_on_c, 9, 82, 53
2, 36661, Note_on_c, 9, 82, 0
2, 36665, Note_on_c, 4, 50, 0
2, 36665, Note_on_c, 1, 38, 0
2, 36676, Note_on_c, 4, 69, 0
2, 36685, Note_on_c, 4, 66, 0
2, 36685, Note_on_c, 1, 38, 106
2, 36685, Note_on_c, 0, 57, 76
2, 36685, Note_on_c, 0, 62, 79
2, 36685, Note_on_c, 0, 66, 74
2, 36685, Note_on_c, 0, 69, 89
2, 36685, Note_on_c, 4, 50, 86
2, 36690, Note_on_c, 4, 62, 0
2, 36690, Note_on_c, 9, 36, 114
2, 36690, Note_on_c, 9, 36, 0
2, 36690, Note_on_c, 9, 54, 49
2, 36690, Note_on_c, 9, 54, 0
2, 36690, Note_on_c, 9, 82, 56
2, 36690, Note_on_c, 9, 82, 0
2, 36705, Note_on_c, 0, 62, 0
2, 36706, Note_on_c, 0, 66, 0
2, 36711, Note_on_c, 0, 57, 0
2, 36715, Note_on_c, 0, 69, 0
2, 36715, Note_on_c, 4, 66, 82
2, 36720, Note_on_c, 9, 42, 127
2, 36720, Note_on_c, 9, 54, 99
2, 36721, Note_on_c, 9, 54, 0
2, 36721, Note_on_c, 1, 38, 0
2, 36721, Note_on_c, 9, 42, 0
2, 36745, Note_on_c, 1, 38, 102
2, 36745, Note_on_c, 0, 57, 62
2, 36746, Note_on_c, 0, 62, 59
2, 36746, Note_on_c, 0, 66, 64
2, 36746, Note_on_c, 0, 69, 82
2, 36750, Note_on_c, 9, 36, 35
2, 36750, Note_on_c, 9, 36, 0
2, 36750, Note_on_c, 9, 54, 45
2, 36750, Note_on_c, 9, 54, 0
2, 36765, Note_on_c, 1, 38, 0
2, 36770, Note_on_c, 0, 62, 0
2, 36770, Note_on_c, 0, 57, 0
2, 36771, Note_on_c, 0, 66, 0
2, 36775, Note_on_c, 1, 38, 106
2, 36775, Note_on_c, 0, 57, 74
2, 36776, Note_on_c, 0, 62, 76
2, 36776, Note_on_c, 0, 66, 76
2, 36776, Note_on_c, 4, 62, 74
2, 36780, Note_on_c, 9, 36, 127
2, 36781, Note_on_c, 9, 36, 0
2, 36781, Note_on_c, 9, 53, 82
2, 36781, Note_on_c, 9, 53, 0
2, 36781, Note_on_c, 9, 42, 51
2, 36781, Note_on_c, 9, 42, 0
2, 36781, Note_on_c, 9, 54, 45
2, 36781, Note_on_c, 9, 54, 0
2, 36781, Note_on_c, 9, 82, 56
2, 36781, Note_on_c, 9, 82, 0
2, 36806, Note_on_c, 0, 62, 0
2, 36806, Note_on_c, 0, 57, 0
2, 36806, Note_on_c, 0, 69, 0
2, 36806, Note_on_c, 0, 57, 79
2, 36806, Note_on_c, 0, 62, 82
2, 36806, Note_on_c, 0, 69, 79
2, 36806, Note_on_c, 4, 69, 82
2, 36811, Note_on_c, 1, 38, 0
2, 36811, Note_on_c, 9, 54, 53
2, 36811, Note_on_c, 9, 54, 0
2, 36811, Note_on_c, 9, 82, 58
2, 36811, Note_on_c, 9, 82, 0
2, 36830, Note_on_c, 0, 69, 0
2, 36830, Note_on_c, 0, 62, 0
2, 36835, Note_on_c, 0, 57, 0
2, 36836, Note_on_c, 0, 66, 0
2, 36836, Note_on_c, 1, 38, 114
2, 36836, Note_on_c, 0, 57, 91
2, 36836, Note_on_c, 0, 62, 91
2, 36836, Note_on_c, 0, 66, 86
2, 36836, Note_on_c, 0, 69, 82
2, 36840, Note_on_c, 9, 38, 114
2, 36841, Note_on_c, 9, 38, 0
2, 36841, Note_on_c, 9, 42, 123
2, 36841, Note_on_c, 9, 42, 0
2, 36841, Note_on_c, 9, 123, 85
2, 36841, Note_on_c, 9, 123, 0
2, 36841, Note_on_c, 9, 54, 99
2, 36841, Note_on_c, 9, 54, 0
2, 36845, Note_on_c, 4, 62, 0
2, 36866, Note_on_c, 4, 62, 67
2, 36870, Note_on_c, 4, 66, 0
2, 36870, Note_on_c, 9, 54, 56
2, 36871, Note_on_c, 9, 54, 0
2, 36875, Note_on_c, 1, 38, 0
2, 36881, Note_on_c, 4, 69, 0
2, 36890, Note_on_c, 0, 62, 0
2, 36890, Note_on_c, 0, 69, 0
2, 36890, Note_on_c, 0, 66, 0
2, 36895, Note_on_c, 0, 57, 0
2, 36895, Note_on_c, 1, 38, 79
2, 36895, Note_on_c, 4, 66, 86
2, 36900, Note_on_c, 4, 62, 0
2, 36900, Note_on_c, 9, 53, 86
2, 36900, Note_on_c, 9, 42, 75
2, 36900, Note_on_c, 9, 54, 38
2, 36901, Note_on_c, 9, 54, 0
2, 36901, Note_on_c, 9, 42, 0
2, 36901, Note_on_c, 9, 53, 0
2, 36901, Note_on_c, 9, 82, 49
2, 36901, Note_on_c, 9, 82, 0
2, 36910, Note_on_c, 1, 38, 0
2, 36925, Note_on_c, 1, 38, 106
2, 36925, Note_on_c, 4, 62, 76
2, 36930, Note_on_c, 9, 54, 45
2, 36931, Note_on_c, 9, 54, 0
2, 36931, Note_on_c, 9, 82, 56
2, 36931, Note_on_c, 9, 82, 0
2, 36936, Note_on_c, 4, 50, 0
2, 36950, Note_on_c, 4, 66, 0
2, 36955, Note_on_c, 6, 66, 0
2, 36955, Note_on_c, 6, 62, 0
2, 36955, Note_on_c, 4, 62, 0
2, 36955, Note_on_c, 1, 38, 0
2, 36955, Note_on_c, 1, 31, 106
2, 36955, Note_on_c, 0, 62, 72
2, 36956, Note_on_c, 0, 67, 69
2, 36956, Note_on_c, 0, 71, 72
2, 36956, Note_on_c, 0, 74, 72
2, 36956, Note_on_c, 4, 55, 86
2, 36956, Note_on_c, 6, 62, 59
2, 36956, Note_on_c, 6, 67, 55
2, 36956, Note_on_c, 6, 71, 51
2, 36960, Note_on_c, 9, 36, 127
2, 36960, Note_on_c, 9, 42, 127
2, 36961, Note_on_c, 9, 42, 0
2, 36961, Note_on_c, 9, 36, 0
2, 36961, Note_on_c, 9, 54, 85
2, 36961, Note_on_c, 9, 54, 0
2, 36970, Note_on_c, 0, 67, 0
2, 36971, Note_on_c, 0, 74, 0
2, 36975, Note_on_c, 0, 62, 0
2, 36985, Note_on_c, 0, 62, 69
2, 36986, Note_on_c, 0, 67, 79
2, 36986, Note_on_c, 0, 74, 79
2, 36990, Note_on_c, 1, 31, 0
2, 36990, Note_on_c, 9, 54, 75
2, 36990, Note_on_c, 9, 54, 0
2, 37005, Note_on_c, 0, 71, 0
2, 37015, Note_on_c, 0, 74, 0
2, 37015, Note_on_c, 0, 67, 0
2, 37015, Note_on_c, 1, 31, 110
2, 37015, Note_on_c, 0, 67, 82
2, 37015, Note_on_c, 0, 71, 76
2, 37015, Note_on_c, 0, 74, 79
2, 37015, Note_on_c, 4, 67, 86
2, 37020, Note_on_c, 9, 36, 86
2, 37020, Note_on_c, 9, 36, 0
2, 37020, Note_on_c, 9, 53, 86
2, 37020, Note_on_c, 9, 53, 0
2, 37020, Note_on_c, 9, 54, 72
2, 37020, Note_on_c, 9, 54, 0
2, 37020, Note_on_c, 9, 42, 66
2, 37020, Note_on_c, 9, 82, 53
2, 37021, Note_on_c, 9, 82, 0
2, 37021, Note_on_c, 9, 42, 0
2, 37030, Note_on_c, 4, 55, 0
2, 37040, Note_on_c, 0, 62, 0
2, 37041, Note_on_c, 0, 74, 0
2, 37041, Note_on_c, 0, 67, 0
2, 37046, Note_on_c, 0, 62, 72
2, 37046, Note_on_c, 0, 67, 79
2, 37046, Note_on_c, 0, 74, 79
2, 37050, Note_on_c, 1, 31, 0
2, 37050, Note_on_c, 9, 54, 72
2, 37050, Note_on_c, 9, 54, 0
2, 37050, Note_on_c, 9, 82, 75
2, 37051, Note_on_c, 9, 82, 0
2, 37071, Note_on_c, 0, 71, 0
2, 37076, Note_on_c, 0, 74, 0
2, 37076, Note_on_c, 0, 62, 0
2, 37076, Note_on_c, 1, 31, 106
2, 37076, Note_on_c, 0, 62, 82
2, 37076, Note_on_c, 0, 71, 96
2, 37076, Note_on_c, 0, 74, 96
2, 37076, Note_on_c, 4, 62, 76
2, 37080, Note_on_c, 9, 38, 114
2, 37080, Note_on_c, 9, 38, 0
2, 37080, Note_on_c, 9, 42, 123
2, 37080, Note_on_c, 9, 42, 0
2, 37080, Note_on_c, 9, 123, 99
2, 37080, Note_on_c, 9, 123, 0
2, 37080, Note_on_c, 9, 54, 85
2, 37080, Note_on_c, 9, 54, 0
2, 37105, Note_on_c, 4, 69, 90
2, 37110, Note_on_c, 9, 54, 69
2, 37111, Note_on_c, 9, 54, 0
2, 37125, Note_on_c, 4, 62, 0
2, 37130, Note_on_c, 0, 74, 0
2, 37136, Note_on_c, 0, 62, 0
2, 37136, Note_on_c, 0, 71, 0
2, 37136, Note_on_c, 0, 67, 0
2, 37140, Note_on_c, 9, 53, 82
2, 37141, Note_on_c, 9, 53, 0
2, 37141, Note_on_c, 1, 31, 0
2, 37141, Note_on_c, 9, 42, 51
2, 37141, Note_on_c, 9, 42, 0
2, 37141, Note_on_c, 9, 54, 58
2, 37141, Note_on_c, 9, 54, 0
2, 37141, Note_on_c, 9, 82, 58
2, 37141, Note_on_c, 9, 82, 0
2, 37155, Note_on_c, 4, 69, 0
2, 37160, Note_on_c, 4, 67, 0
2, 37165, Note_on_c, 1, 31, 110
2, 37165, Note_on_c, 0, 62, 76
2, 37165, Note_on_c, 0, 67, 79
2, 37165, Note_on_c, 0, 71, 74
2, 37165, Note_on_c, 0, 74, 89
2, 37165, Note_on_c, 4, 55, 90
2, 37170, Note_on_c, 9, 36, 114
2, 37171, Note_on_c, 9, 36, 0
2, 37171, Note_on_c, 9, 54, 53
2, 37171, Note_on_c, 9, 54, 0
2, 37171, Note_on_c, 9, 82, 56
2, 37171, Note_on_c, 9, 82, 0
2, 37185, Note_on_c, 0, 67, 0
2, 37191, Note_on_c, 0, 71, 0
2, 37191, Note_on_c, 0, 62, 0
2, 37195, Note_on_c, 1, 31, 0
2, 37196, Note_on_c, 0, 74, 0
2, 37196, Note_on_c, 4, 67, 76
2, 37201, Note_on_c, 9, 42, 123
2, 37201, Note_on_c, 9, 42, 0
2, 37201, Note_on_c, 9, 54, 75
2, 37201, Note_on_c, 9, 54, 0
2, 37225, Note_on_c, 1, 31, 79
2, 37225, Note_on_c, 0, 62, 62
2, 37226, Note_on_c, 0, 67, 59
2, 37226, Note_on_c, 0, 71, 64
2, 37226, Note_on_c, 0, 74, 82
2, 37226, Note_on_c, 4, 62, 51
2, 37230, Note_on_c, 9, 36, 45
2, 37230, Note_on_c, 9, 36, 0
2, 37230, Note_on_c, 9, 54, 58
2, 37231, Note_on_c, 9, 54, 0
2, 37240, Note_on_c, 1, 31, 0
2, 37256, Note_on_c, 0, 71, 0
2, 37256, Note_on_c, 0, 67, 0
2, 37256, Note_on_c, 0, 62, 0
2, 37256, Note_on_c, 1, 31, 110
2, 37256, Note_on_c, 0, 62, 74
2, 37256, Note_on_c, 0, 67, 76
2, 37256, Note_on_c, 0, 71, 76
2, 37260, Note_on_c, 9, 36, 123
2, 37260, Note_on_c, 9, 53, 86
2, 37261, Note_on_c, 9, 53, 0
2, 37261, Note_on_c, 9, 36, 0
2, 37261, Note_on_c, 9, 42, 49
2, 37261, Note_on_c, 9, 42, 0
2, 37261, Note_on_c, 9, 54, 51
2, 37261, Note_on_c, 9, 54, 0
2, 37261, Note_on_c, 9, 82, 63
2, 37261, Note_on_c, 9, 82, 0
2, 37280, Note_on_c, 0, 62, 0
2, 37280, Note_on_c, 0, 67, 0
2, 37285, Note_on_c, 0, 74, 0
2, 37285, Note_on_c, 0, 62, 79
2, 37285, Note_on_c, 0, 67, 82
2, 37285, Note_on_c, 0, 74, 79
2, 37285, Note_on_c, 4, 69, 82
2, 37290, Note_on_c, 1, 31, 0
2, 37290, Note_on_c, 9, 54, 56
2, 37290, Note_on_c, 9, 54, 0
2, 37290, Note_on_c, 9, 82, 51
2, 37291, Note_on_c, 9, 82, 0
2, 37295, Note_on_c, 4, 62, 0
2, 37310, Note_on_c, 0, 71, 0
2, 37315, Note_on_c, 0, 62, 0
2, 37315, Note_on_c, 0, 67, 0
2, 37316, Note_on_c, 0, 74, 0
2, 37316, Note_on_c, 1, 31, 110
2, 37316, Note_on_c, 0, 62, 91
2, 37316, Note_on_c, 0, 67, 91
2, 37316, Note_on_c, 0, 71, 86
2, 37316, Note_on_c, 0, 74, 82
2, 37320, Note_on_c, 9, 38, 114
2, 37321, Note_on_c, 9, 38, 0
2, 37321, Note_on_c, 9, 42, 123
2, 37321, Note_on_c, 9, 42, 0
2, 37321, Note_on_c, 9, 123, 91
2, 37321, Note_on_c, 9, 123, 0
2, 37321, Note_on_c, 9, 54, 85
2, 37321, Note_on_c, 9, 54, 0
2, 37345, Note_on_c, 4, 62, 64
2, 37350, Note_on_c, 4, 67, 0
2, 37350, Note_on_c, 9, 54, 28
2, 37350, Note_on_c, 9, 54, 0
2, 37360, Note_on_c, 1, 31, 0
2, 37370, Note_on_c, 0, 67, 0
2, 37370, Note_on_c, 0, 74, 0
2, 37370, Note_on_c, 0, 71, 0
2, 37376, Note_on_c, 0, 62, 0
2, 37376, Note_on_c, 1, 31, 79
2, 37376, Note_on_c, 4, 67, 79
2, 37381, Note_on_c, 9, 53, 82
2, 37381, Note_on_c, 9, 53, 0
2, 37381, Note_on_c, 9, 42, 41
2, 37381, Note_on_c, 9, 42, 0
2, 37381, Note_on_c, 9, 54, 51
2, 37381, Note_on_c, 9, 54, 0
2, 37381, Note_on_c, 9, 82, 58
2, 37381, Note_on_c, 9, 82, 0
2, 37386, Note_on_c, 4, 62, 0
2, 37390, Note_on_c, 1, 31, 0
2, 37401, Note_on_c, 4, 55, 0
2, 37406, Note_on_c, 1, 31, 86
2, 37406, Note_on_c, 4, 62, 67
2, 37410, Note_on_c, 9, 25, 72
2, 37410, Note_on_c, 9, 25, 0
2, 37410, Note_on_c, 9, 54, 49
2, 37410, Note_on_c, 9, 54, 0
2, 37410, Note_on_c, 9, 82, 58
2, 37410, Note_on_c, 9, 82, 0
2, 37425, Note_on_c, 1, 31, 0
2, 37425, Note_on_c, 4, 67, 0
2, 37431, Note_on_c, 4, 69, 0
2, 37431, Note_on_c, 4, 62, 0
2, 37435, Note_on_c, 1, 31, 110
2, 37435, Note_on_c, 0, 62, 72
2, 37435, Note_on_c, 0, 67, 69
2, 37436, Note_on_c, 0, 71, 72
2, 37436, Note_on_c, 0, 74, 72
2, 37436, Note_on_c, 4, 55, 90
2, 37440, Note_on_c, 9, 36, 110
2, 37441, Note_on_c, 9, 36, 0
2, 37441, Note_on_c, 9, 42, 123
2, 37441, Note_on_c, 9, 42, 0
2, 37441, Note_on_c, 9, 54, 91
2, 37441, Note_on_c, 9, 54, 0
2, 37461, Note_on_c, 0, 74, 0
2, 37461, Note_on_c, 0, 67, 0
2, 37461, Note_on_c, 0, 62, 0
2, 37466, Note_on_c, 1, 31, 0
2, 37466, Note_on_c, 0, 62, 69
2, 37466, Note_on_c, 0, 67, 79
2, 37466, Note_on_c, 0, 74, 79
2, 37470, Note_on_c, 9, 54, 49
2, 37471, Note_on_c, 9, 54, 0
2, 37490, Note_on_c, 0, 71, 0
2, 37495, Note_on_c, 0, 74, 0
2, 37495, Note_on_c, 0, 67, 0
2, 37495, Note_on_c, 1, 31, 106
2, 37495, Note_on_c, 0, 67, 82
2, 37495, Note_on_c, 0, 71, 76
2, 37495, Note_on_c, 0, 74, 79
2, 37495, Note_on_c, 4, 71, 90
2, 37500, Note_on_c, 9, 36, 114
2, 37500, Note_on_c, 9, 36, 0
2, 37500, Note_on_c, 9, 53, 79
2, 37500, Note_on_c, 9, 53, 0
2, 37500, Note_on_c, 9, 42, 61
2, 37500, Note_on_c, 9, 54, 53
2, 37500, Note_on_c, 9, 82, 56
2, 37501, Note_on_c, 9, 82, 0
2, 37501, Note_on_c, 9, 54, 0
2, 37501, Note_on_c, 9, 42, 0
2, 37520, Note_on_c, 0, 67, 0
2, 37520, Note_on_c, 0, 62, 0
2, 37521, Note_on_c, 0, 74, 0
2, 37525, Note_on_c, 1, 31, 0
2, 37525, Note_on_c, 0, 62, 72
2, 37526, Note_on_c, 0, 67, 79
2, 37526, Note_on_c, 0, 74, 79
2, 37531, Note_on_c, 9, 54, 53
2, 37531, Note_on_c, 9, 54, 0
2, 37531, Note_on_c, 9, 82, 58
2, 37531, Note_on_c, 9, 82, 0
2, 37550, Note_on_c, 0, 71, 0
2, 37555, Note_on_c, 0, 74, 0
2, 37555, Note_on_c, 0, 62, 0
2, 37555, Note_on_c, 1, 31, 110
2, 37555, Note_on_c, 0, 62, 82
2, 37556, Note_on_c, 0, 71, 96
2, 37556, Note_on_c, 0, 74, 96
2, 37556, Note_on_c, 4, 67, 76
2, 37560, Note_on_c, 9, 38, 114
2, 37561, Note_on_c, 9, 38, 0
2, 37561, Note_on_c, 9, 42, 127
2, 37561, Note_on_c, 9, 42, 0
2, 37561, Note_on_c, 9, 123, 99
2, 37561, Note_on_c, 9, 123, 0
2, 37561, Note_on_c, 9, 54, 106
2, 37561, Note_on_c, 9, 54, 0
2, 37585, Note_on_c, 4, 62, 90
2, 37591, Note_on_c, 9, 54, 58
2, 37591, Note_on_c, 9, 54, 0
2, 37615, Note_on_c, 0, 67, 0
2, 37616, Note_on_c, 0, 74, 0
2, 37616, Note_on_c, 0, 62, 0
2, 37616, Note_on_c, 0, 71, 0
2, 37620, Note_on_c, 9, 53, 76
2, 37621, Note_on_c, 9, 53, 0
2, 37621, Note_on_c, 9, 42, 56
2, 37621, Note_on_c, 9, 42, 0
2, 37621, Note_on_c, 9, 54, 51
2, 37621, Note_on_c, 9, 54, 0
2, 37621, Note_on_c, 9, 82, 53
2, 37621, Note_on_c, 9, 82, 0
2, 37625, Note_on_c, 4, 55, 0
2, 37625, Note_on_c, 1, 31, 0
2, 37636, Note_on_c, 4, 62, 0
2, 37645, Note_on_c, 4, 71, 0
2, 37645, Note_on_c, 1, 31, 106
2, 37645, Note_on_c, 0, 62, 76
2, 37646, Note_on_c, 0, 67, 79
2, 37646, Note_on_c, 0, 71, 74
2, 37646, Note_on_c, 0, 74, 89
2, 37646, Note_on_c, 4, 55, 86
2, 37650, Note_on_c, 9, 36, 114
2, 37650, Note_on_c, 9, 54, 49
2, 37651, Note_on_c, 9, 54, 0
2, 37651, Note_on_c, 4, 67, 0
2, 37651, Note_on_c, 9, 36, 0
2, 37651, Note_on_c, 9, 82, 56
2, 37651, Note_on_c, 9, 82, 0
2, 37666, Note_on_c, 0, 71, 0
2, 37666, Note_on_c, 0, 67, 0
2, 37670, Note_on_c, 0, 62, 0
2, 37675, Note_on_c, 0, 74, 0
2, 37675, Note_on_c, 4, 71, 82
2, 37680, Note_on_c, 1, 31, 0
2, 37680, Note_on_c, 9, 42, 127
2, 37680, Note_on_c, 9, 42, 0
2, 37680, Note_on_c, 9, 54, 99
2, 37680, Note_on_c, 9, 54, 0
2, 37705, Note_on_c, 1, 31, 102
2, 37705, Note_on_c, 0, 62, 62
2, 37705, Note_on_c, 0, 67, 59
2, 37706, Note_on_c, 0, 71, 64
2, 37706, Note_on_c, 0, 74, 82
2, 37710, Note_on_c, 9, 36, 35
2, 37711, Note_on_c, 9, 36, 0
2, 37711, Note_on_c, 9, 54, 45
2, 37711, Note_on_c, 9, 54, 0
2, 37725, Note_on_c, 1, 31, 0
2, 37730, Note_on_c, 0, 62, 0
2, 37731, Note_on_c, 0, 71, 0
2, 37731, Note_on_c, 0, 67, 0
2, 37736, Note_on_c, 1, 31, 106
2, 37736, Note_on_c, 0, 62, 74
2, 37736, Note_on_c, 0, 67, 76
2, 37736, Note_on_c, 0, 71, 76
2, 37736, Note_on_c, 4, 67, 74
2, 37740, Note_on_c, 9, 36, 127
2, 37740, Note_on_c, 9, 36, 0
2, 37740, Note_on_c, 9, 53, 82
2, 37740, Note_on_c, 9, 53, 0
2, 37740, Note_on_c, 9, 42, 51
2, 37740, Note_on_c, 9, 54, 45
2, 37740, Note_on_c, 9, 82, 56
2, 37741, Note_on_c, 9, 82, 0
2, 37741, Note_on_c, 9, 54, 0
2, 37741, Note_on_c, 9, 42, 0
2, 37765, Note_on_c, 0, 74, 0
2, 37766, Note_on_c, 0, 67, 0
2, 37766, Note_on_c, 0, 62, 0
2, 37766, Note_on_c, 0, 62, 79
2, 37766, Note_on_c, 0, 67, 82
2, 37766, Note_on_c, 0, 74, 79
2, 37766, Note_on_c, 4, 62, 82
2, 37770, Note_on_c, 9, 54, 53
2, 37771, Note_on_c, 9, 54, 0
2, 37771, Note_on_c, 1, 31, 0
2, 37771, Note_on_c, 9, 82, 58
2, 37771, Note_on_c, 9, 82, 0
2, 37791, Note_on_c, 0, 67, 0
2, 37791, Note_on_c, 0, 74, 0
2, 37796, Note_on_c, 0, 71, 0
2, 37796, Note_on_c, 0, 62, 0
2, 37796, Note_on_c, 1, 31, 114
2, 37796, Note_on_c, 0, 62, 91
2, 37796, Note_on_c, 0, 67, 91
2, 37796, Note_on_c, 0, 71, 86
2, 37796, Note_on_c, 0, 74, 82
2, 37801, Note_on_c, 9, 38, 114
2, 37801, Note_on_c, 9, 38, 0
2, 37801, Note_on_c, 9, 42, 123
2, 37801, Note_on_c, 9, 42, 0
2, 37801, Note_on_c, 9, 123, 85
2, 37801, Note_on_c, 9, 123, 0
2, 37801, Note_on_c, 9, 54, 99
2, 37801, Note_on_c, 9, 54, 0
2, 37805, Note_on_c, 4, 67, 0
2, 37826, Note_on_c, 4, 67, 67
2, 37830, Note_on_c, 4, 71, 0
2, 37830, Note_on_c, 9, 54, 56
2, 37830, Note_on_c, 9, 54, 0
2, 37835, Note_on_c, 1, 31, 0
2, 37840, Note_on_c, 4, 62, 0
2, 37851, Note_on_c, 0, 67, 0
2, 37851, Note_on_c, 0, 71, 0
2, 37851, Note_on_c, 0, 74, 0
2, 37855, Note_on_c, 0, 62, 0
2, 37855, Note_on_c, 1, 31, 79
2, 37855, Note_on_c, 4, 71, 86
2, 37860, Note_on_c, 4, 67, 0
2, 37860, Note_on_c, 9, 53, 86
2, 37860, Note_on_c, 9, 42, 75
2, 37861, Note_on_c, 9, 42, 0
2, 37861, Note_on_c, 9, 53, 0
2, 37861, Note_on_c, 9, 54, 38
2, 37861, Note_on_c, 9, 54, 0
2, 37861, Note_on_c, 9, 82, 49
2, 37861, Note_on_c, 9, 82, 0
2, 37870, Note_on_c, 1, 31, 0
2, 37885, Note_on_c, 1, 31, 106
2, 37885, Note_on_c, 4, 67, 76
2, 37890, Note_on_c, 9, 54, 45
2, 37890, Note_on_c, 9, 82, 56
2, 37891, Note_on_c, 9, 82, 0
2, 37891, Note_on_c, 9, 54, 0
2, 37895, Note_on_c, 4, 55, 0
2, 37910, Note_on_c, 4, 71, 0
2, 37915, Note_on_c, 1, 31, 0
2, 37915, Note_on_c, 4, 67, 0
2, 37916, Note_on_c, 6, 62, 0
2, 37916, Note_on_c, 6, 67, 0
2, 37916, Note_on_c, 6, 71, 0
2, 37916, Control_c, 9, 0, 7
2, 37917, Control_c, 9, 32, 51
2, 37918, Program_c, 9, 9
2, 37918, Control_c, 9, 0, 0
2, 37918, Control_c, 9, 32, 3
2, 37919, Program_c, 9, 8
2, 37919, Control_c, 1, 0, 0
2, 37919, Control_c, 1, 32, 1
2, 37919, Program_c, 1, 33
2, 37919, Note_on_c, 1, 31, 106
2, 37919, Control_c, 0, 0, 0
2, 37919, Control_c, 0, 32, 3
2, 37919, Control_c, 9, 0, 7
2, 37919, Control_c, 9, 32, 51
2, 37919, Control_c, 9, 0, 7
2, 37919, Control_c, 9, 32, 51
2, 37919, Control_c, 9, 0, 7
2, 37919, Control_c, 9, 32, 51
2, 37919, Control_c, 9, 0, 7
2, 37919, Control_c, 9, 32, 51
2, 37920, Program_c, 9, 9
2, 37920, Control_c, 9, 0, 0
2, 37920, Control_c, 9, 32, 3
2, 37920, Control_c, 9, 0, 0
2, 37920, Control_c, 9, 32, 3
2, 37920, Control_c, 9, 0, 0
2, 37920, Control_c, 9, 32, 3
2, 37920, Control_c, 9, 0, 0
2, 37920, Control_c, 9, 32, 3
2, 37920, Program_c, 9, 8
2, 37920, Control_c, 1, 0, 0
2, 37920, Control_c, 1, 32, 1
2, 37920, Control_c, 1, 0, 0
2, 37920, Control_c, 1, 32, 1
2, 37920, Control_c, 1, 0, 0
2, 37920, Control_c, 1, 32, 1
2, 37920, Control_c, 1, 0, 0
2, 37920, Control_c, 1, 32, 1
2, 37920, Program_c, 1, 33
2, 37920, Note_on_c, 1, 31, 106
2, 37920, Control_c, 0, 0, 0
2, 37920, Control_c, 0, 32, 3
2, 37920, Control_c, 0, 0, 0
2, 37920, Control_c, 0, 32, 3
2, 37920, Control_c, 0, 0, 0
2, 37920, Control_c, 0, 32, 3
2, 37920, Control_c, 0, 0, 0
2, 37920, Control_c, 0, 32, 3
2, 37920, Control_c, 0, 0, 0
2, 37920, Control_c, 0, 32, 3
2, 37920, Program_c, 0, 25
2, 37920, Note_on_c, 0, 62, 72
2, 37920, Note_on_c, 0, 67, 69
2, 37920, Note_on_c, 0, 71, 72
2, 37920, Note_on_c, 0, 74, 72
2, 37920, Control_c, 4, 0, 9
2, 37920, Control_c, 4, 32, 2
2, 37920, Control_c, 4, 0, 9
2, 37920, Control_c, 4, 32, 2
2, 37920, Control_c, 4, 0, 9
2, 37920, Control_c, 4, 32, 2
2, 37920, Control_c, 4, 0, 9
2, 37920, Control_c, 4, 32, 2
2, 37920, Control_c, 4, 0, 9
2, 37920, Control_c, 4, 32, 2
2, 37920, Program_c, 4, 27
2, 37920, Note_on_c, 4, 55, 86
2, 37920, Control_c, 6, 0, 32
2, 37920, Control_c, 6, 32, 1
2, 37920, Control_c, 6, 0, 32
2, 37920, Control_c, 6, 32, 1
2, 37920, Control_c, 6, 0, 32
2, 37920, Control_c, 6, 32, 1
2, 37920, Control_c, 6, 0, 32
2, 37920, Control_c, 6, 32, 1
2, 37920, Control_c, 6, 0, 32
2, 37920, Control_c, 6, 32, 1
2, 37920, Program_c, 6, 52
2, 37920, Note_on_c, 6, 62, 59
2, 37920, Note_on_c, 6, 67, 55
2, 37920, Note_on_c, 6, 71, 51
2, 37920, Note_on_c, 9, 36, 127
2, 37920, Note_on_c, 9, 42, 127
2, 37921, Note_on_c, 9, 42, 0
2, 37921, Note_on_c, 9, 36, 0
2, 37921, Note_on_c, 9, 54, 85
2, 37921, Note_on_c, 9, 54, 0
2, 37930, Note_on_c, 0, 74, 0
2, 37930, Note_on_c, 0, 67, 0
2, 37935, Note_on_c, 0, 62, 0
2, 37946, Note_on_c, 0, 62, 69
2, 37946, Note_on_c, 0, 67, 79
2, 37946, Note_on_c, 0, 74, 79
2, 37951, Note_on_c, 1, 31, 0
2, 37951, Note_on_c, 9, 54, 75
2, 37951, Note_on_c, 9, 54, 0
2, 37952, Note_on_c, 1, 31, 0
2, 37965, Note_on_c, 0, 71, 0
2, 37975, Note_on_c, 0, 67, 0
2, 37975, Note_on_c, 0, 74, 0
2, 37975, Note_on_c, 1, 31, 108
2, 37975, Note_on_c, 0, 67, 81
2, 37975, Note_on_c, 0, 71, 75
2, 37976, Note_on_c, 0, 74, 78
2, 37976, Note_on_c, 4, 67, 85
2, 37980, Note_on_c, 9, 36, 85
2, 37980, Note_on_c, 9, 53, 85
2, 37980, Note_on_c, 9, 54, 71
2, 37980, Note_on_c, 9, 42, 65
2, 37981, Note_on_c, 9, 42, 0
2, 37981, Note_on_c, 9, 54, 0
2, 37981, Note_on_c, 9, 36, 0
2, 37981, Note_on_c, 9, 53, 0
2, 37981, Note_on_c, 9, 82, 52
2, 37981, Note_on_c, 9, 82, 0
2, 37990, Note_on_c, 4, 55, 0
2, 38000, Note_on_c, 0, 62, 0
2, 38001, Note_on_c, 0, 74, 0
2, 38001, Note_on_c, 0, 67, 0
2, 38006, Note_on_c, 0, 62, 70
2, 38006, Note_on_c, 0, 67, 77
2, 38006, Note_on_c, 0, 74, 77
2, 38010, Note_on_c, 9, 54, 70
2, 38010, Note_on_c, 9, 82, 73
2, 38011, Note_on_c, 9, 82, 0
2, 38011, Note_on_c, 9, 54, 0
2, 38011, Note_on_c, 1, 31, 0
2, 38030, Note_on_c, 0, 71, 0
2, 38035, Note_on_c, 0, 62, 0
2, 38036, Note_on_c, 0, 74, 0
2, 38036, Note_on_c, 1, 31, 103
2, 38036, Note_on_c, 0, 62, 80
2, 38036, Note_on_c, 0, 71, 94
2, 38036, Note_on_c, 0, 74, 94
2, 38036, Note_on_c, 4, 62, 74
2, 38040, Note_on_c, 9, 38, 110
2, 38040, Note_on_c, 9, 38, 0
2, 38040, Note_on_c, 9, 42, 119
2, 38040, Note_on_c, 9, 42, 0
2, 38040, Note_on_c, 9, 123, 96
2, 38040, Note_on_c, 9, 123, 0
2, 38040, Note_on_c, 9, 54, 82
2, 38040, Note_on_c, 9, 54, 0
2, 38066, Note_on_c, 4, 69, 87
2, 38070, Note_on_c, 9, 54, 66
2, 38071, Note_on_c, 9, 54, 0
2, 38085, Note_on_c, 4, 62, 0
2, 38090, Note_on_c, 0, 74, 0
2, 38095, Note_on_c, 0, 62, 0
2, 38095, Note_on_c, 0, 71, 0
2, 38095, Note_on_c, 0, 67, 0
2, 38100, Note_on_c, 9, 53, 78
2, 38100, Note_on_c, 9, 42, 48
2, 38101, Note_on_c, 9, 42, 0
2, 38101, Note_on_c, 9, 53, 0
2, 38101, Note_on_c, 1, 31, 0
2, 38101, Note_on_c, 9, 54, 55
2, 38101, Note_on_c, 9, 54, 0
2, 38101, Note_on_c, 9, 82, 55
2, 38101, Note_on_c, 9, 82, 0
2, 38115, Note_on_c, 4, 69, 0
2, 38120, Note_on_c, 4, 67, 0
2, 38125, Note_on_c, 1, 31, 104
2, 38125, Note_on_c, 0, 62, 72
2, 38125, Note_on_c, 0, 67, 75
2, 38126, Note_on_c, 0, 71, 70
2, 38126, Note_on_c, 0, 74, 84
2, 38126, Note_on_c, 4, 55, 85
2, 38131, Note_on_c, 9, 36, 108
2, 38131, Note_on_c, 9, 36, 0
2, 38131, Note_on_c, 9, 54, 50
2, 38131, Note_on_c, 9, 54, 0
2, 38131, Note_on_c, 9, 82, 53
2, 38131, Note_on_c, 9, 82, 0
2, 38145, Note_on_c, 0, 67, 0
2, 38151, Note_on_c, 0, 71, 0
2, 38151, Note_on_c, 0, 62, 0
2, 38155, Note_on_c, 1, 31, 0
2, 38155, Note_on_c, 0, 74, 0
2, 38155, Note_on_c, 4, 67, 71
2, 38160, Note_on_c, 9, 42, 115
2, 38161, Note_on_c, 9, 42, 0
2, 38161, Note_on_c, 9, 54, 70
2, 38161, Note_on_c, 9, 54, 0
2, 38185, Note_on_c, 1, 31, 74
2, 38185, Note_on_c, 0, 62, 58
2, 38186, Note_on_c, 0, 67, 55
2, 38186, Note_on_c, 0, 71, 60
2, 38186, Note_on_c, 0, 74, 77
2, 38186, Note_on_c, 4, 62, 47
2, 38190, Note_on_c, 9, 36, 42
2, 38190, Note_on_c, 9, 54, 54
2, 38191, Note_on_c, 9, 54, 0
2, 38191, Note_on_c, 9, 36, 0
2, 38200, Note_on_c, 1, 31, 0
2, 38216, Note_on_c, 0, 71, 0
2, 38216, Note_on_c, 0, 67, 0
2, 38216, Note_on_c, 0, 62, 0
2, 38216, Note_on_c, 1, 31, 102
2, 38216, Note_on_c, 0, 62, 68
2, 38216, Note_on_c, 0, 67, 70
2, 38216, Note_on_c, 0, 71, 70
2, 38220, Note_on_c, 9, 36, 114
2, 38220, Note_on_c, 9, 36, 0
2, 38220, Note_on_c, 9, 53, 79
2, 38220, Note_on_c, 9, 53, 0
2, 38220, Note_on_c, 9, 42, 45
2, 38220, Note_on_c, 9, 42, 0
2, 38220, Note_on_c, 9, 54, 47
2, 38220, Note_on_c, 9, 54, 0
2, 38220, Note_on_c, 9, 82, 58
2, 38220, Note_on_c, 9, 82, 0
2, 38240, Note_on_c, 0, 62, 0
2, 38241, Note_on_c, 0, 67, 0
2, 38245, Note_on_c, 0, 74, 0
2, 38245, Note_on_c, 0, 62, 72
2, 38246, Note_on_c, 0, 67, 75
2, 38246, Note_on_c, 0, 74, 72
2, 38246, Note_on_c, 4, 69, 75
2, 38250, Note_on_c, 1, 31, 0
2, 38250, Note_on_c, 9, 54, 51
2, 38250, Note_on_c, 9, 82, 46
2, 38251, Note_on_c, 9, 82, 0
2, 38251, Note_on_c, 9, 54, 0
2, 38255, Note_on_c, 4, 62, 0
2, 38270, Note_on_c, 0, 71, 0
2, 38276, Note_on_c, 0, 74, 0
2, 38276, Note_on_c, 0, 62, 0
2, 38276, Note_on_c, 0, 67, 0
2, 38276, Note_on_c, 1, 31, 100
2, 38276, Note_on_c, 0, 62, 82
2, 38276, Note_on_c, 0, 67, 82
2, 38276, Note_on_c, 0, 71, 78
2, 38276, Note_on_c, 0, 74, 74
2, 38281, Note_on_c, 9, 38, 103
2, 38281, Note_on_c, 9, 38, 0
2, 38281, Note_on_c, 9, 42, 111
2, 38281, Note_on_c, 9, 42, 0
2, 38281, Note_on_c, 9, 123, 82
2, 38281, Note_on_c, 9, 123, 0
2, 38281, Note_on_c, 9, 54, 77
2, 38281, Note_on_c, 9, 54, 0
2, 38305, Note_on_c, 4, 62, 58
2, 38310, Note_on_c, 4, 67, 0
2, 38310, Note_on_c, 9, 54, 25
2, 38310, Note_on_c, 9, 54, 0
2, 38321, Note_on_c, 1, 31, 0
2, 38330, Note_on_c, 0, 67, 0
2, 38331, Note_on_c, 0, 71, 0
2, 38331, Note_on_c, 0, 74, 0
2, 38336, Note_on_c, 0, 62, 0
2, 38336, Note_on_c, 1, 31, 71
2, 38336, Note_on_c, 4, 67, 71
2, 38341, Note_on_c, 9, 53, 73
2, 38341, Note_on_c, 9, 53, 0
2, 38341, Note_on_c, 9, 42, 36
2, 38341, Note_on_c, 9, 42, 0
2, 38341, Note_on_c, 9, 54, 45
2, 38341, Note_on_c, 9, 54, 0
2, 38341, Note_on_c, 9, 82, 52
2, 38341, Note_on_c, 9, 82, 0
2, 38345, Note_on_c, 4, 62, 0
2, 38350, Note_on_c, 1, 31, 0
2, 38360, Note_on_c, 4, 55, 0
2, 38365, Note_on_c, 1, 31, 76
2, 38365, Note_on_c, 4, 62, 59
2, 38370, Note_on_c, 9, 25, 64
2, 38371, Note_on_c, 9, 25, 0
2, 38371, Note_on_c, 9, 54, 43
2, 38371, Note_on_c, 9, 54, 0
2, 38371, Note_on_c, 9, 82, 51
2, 38371, Note_on_c, 9, 82, 0
2, 38385, Note_on_c, 1, 31, 0
2, 38385, Note_on_c, 4, 67, 0
2, 38391, Note_on_c, 4, 69, 0
2, 38391, Note_on_c, 4, 62, 0
2, 38395, Note_on_c, 1, 31, 96
2, 38395, Note_on_c, 0, 62, 63
2, 38396, Note_on_c, 0, 67, 60
2, 38396, Note_on_c, 0, 71, 63
2, 38396, Note_on_c, 0, 74, 63
2, 38396, Note_on_c, 4, 55, 79
2, 38400, Note_on_c, 9, 36, 96
2, 38400, Note_on_c, 9, 42, 108
2, 38401, Note_on_c, 9, 42, 0
2, 38401, Note_on_c, 9, 36, 0
2, 38401, Note_on_c, 9, 54, 80
2, 38401, Note_on_c, 9, 54, 0
2, 38420, Note_on_c, 0, 67, 0
2, 38420, Note_on_c, 0, 74, 0
2, 38420, Note_on_c, 0, 62, 0
2, 38425, Note_on_c, 1, 31, 0
2, 38425, Note_on_c, 0, 62, 60
2, 38425, Note_on_c, 0, 67, 68
2, 38425, Note_on_c, 0, 74, 68
2, 38430, Note_on_c, 9, 54, 42
2, 38431, Note_on_c, 9, 54, 0
2, 38450, Note_on_c, 0, 71, 0
2, 38455, Note_on_c, 0, 67, 0
2, 38456, Note_on_c, 0, 74, 0
2, 38456, Note_on_c, 1, 31, 92
2, 38456, Note_on_c, 0, 67, 71
2, 38456, Note_on_c, 0, 71, 66
2, 38456, Note_on_c, 0, 74, 68
2, 38456, Note_on_c, 4, 71, 78
2, 38460, Note_on_c, 9, 36, 99
2, 38461, Note_on_c, 9, 36, 0
2, 38461, Note_on_c, 9, 53, 68
2, 38461, Note_on_c, 9, 53, 0
2, 38461, Note_on_c, 9, 42, 53
2, 38461, Note_on_c, 9, 42, 0
2, 38461, Note_on_c, 9, 54, 46
2, 38461, Note_on_c, 9, 54, 0
2, 38461, Note_on_c, 9, 82, 48
2, 38461, Note_on_c, 9, 82, 0
2, 38480, Note_on_c, 0, 62, 0
2, 38481, Note_on_c, 0, 74, 0
2, 38481, Note_on_c, 0, 67, 0
2, 38485, Note_on_c, 1, 31, 0
2, 38485, Note_on_c, 0, 62, 61
2, 38485, Note_on_c, 0, 67, 67
2, 38485, Note_on_c, 0, 74, 67
2, 38490, Note_on_c, 9, 54, 45
2, 38490, Note_on_c, 9, 54, 0
2, 38490, Note_on_c, 9, 82, 49
2, 38490, Note_on_c, 9, 82, 0
2, 38510, Note_on_c, 0, 71, 0
2, 38515, Note_on_c, 0, 62, 0
2, 38516, Note_on_c, 0, 74, 0
2, 38516, Note_on_c, 1, 31, 93
2, 38516, Note_on_c, 0, 62, 69
2, 38516, Note_on_c, 0, 71, 81
2, 38516, Note_on_c, 0, 74, 81
2, 38516, Note_on_c, 4, 67, 64
2, 38520, Note_on_c, 9, 38, 96
2, 38521, Note_on_c, 9, 38, 0
2, 38521, Note_on_c, 9, 42, 107
2, 38521, Note_on_c, 9, 42, 0
2, 38521, Note_on_c, 9, 123, 84
2, 38521, Note_on_c, 9, 123, 0
2, 38521, Note_on_c, 9, 54, 90
2, 38521, Note_on_c, 9, 54, 0
2, 38545, Note_on_c, 4, 62, 75
2, 38550, Note_on_c, 9, 54, 48
2, 38550, Note_on_c, 9, 54, 0
2, 38575, Note_on_c, 0, 67, 0
2, 38576, Note_on_c, 0, 74, 0
2, 38576, Note_on_c, 0, 62, 0
2, 38576, Note_on_c, 0, 71, 0
2, 38580, Note_on_c, 9, 53, 63
2, 38580, Note_on_c, 9, 42, 46
2, 38581, Note_on_c, 9, 42, 0
2, 38581, Note_on_c, 9, 53, 0
2, 38581, Note_on_c, 9, 54, 42
2, 38581, Note_on_c, 9, 54, 0
2, 38581, Note_on_c, 9, 82, 43
2, 38581, Note_on_c, 9, 82, 0
2, 38585, Note_on_c, 1, 31, 0
2, 38585, Note_on_c, 4, 55, 0
2, 38596, Note_on_c, 4, 62, 0
2, 38605, Note_on_c, 4, 71, 0
2, 38605, Note_on_c, 1, 31, 87
2, 38606, Note_on_c, 0, 62, 63
2, 38606, Note_on_c, 0, 67, 65
2, 38606, Note_on_c, 0, 71, 61
2, 38606, Note_on_c, 0, 74, 73
2, 38606, Note_on_c, 4, 55, 71
2, 38610, Note_on_c, 9, 36, 94
2, 38611, Note_on_c, 9, 36, 0
2, 38611, Note_on_c, 4, 67, 0
2, 38611, Note_on_c, 9, 54, 40
2, 38611, Note_on_c, 9, 54, 0
2, 38611, Note_on_c, 9, 82, 46
2, 38611, Note_on_c, 9, 82, 0
2, 38625, Note_on_c, 0, 71, 0
2, 38625, Note_on_c, 0, 67, 0
2, 38631, Note_on_c, 0, 62, 0
2, 38635, Note_on_c, 0, 74, 0
2, 38635, Note_on_c, 4, 71, 67
2, 38640, Note_on_c, 1, 31, 0
2, 38640, Note_on_c, 9, 42, 104
2, 38640, Note_on_c, 9, 54, 81
2, 38641, Note_on_c, 9, 54, 0
2, 38641, Note_on_c, 9, 42, 0
2, 38665, Note_on_c, 1, 31, 82
2, 38665, Note_on_c, 0, 62, 50
2, 38665, Note_on_c, 0, 67, 47
2, 38666, Note_on_c, 0, 71, 51
2, 38666, Note_on_c, 0, 74, 66
2, 38671, Note_on_c, 9, 36, 28
2, 38671, Note_on_c, 9, 36, 0
2, 38671, Note_on_c, 9, 54, 36
2, 38671, Note_on_c, 9, 54, 0
2, 38685, Note_on_c, 1, 31, 0
2, 38690, Note_on_c, 0, 71, 0
2, 38690, Note_on_c, 0, 67, 0
2, 38690, Note_on_c, 0, 62, 0
2, 38695, Note_on_c, 1, 31, 84
2, 38695, Note_on_c, 0, 62, 59
2, 38696, Note_on_c, 0, 67, 60
2, 38696, Note_on_c, 0, 71, 60
2, 38696, Note_on_c, 4, 67, 59
2, 38700, Note_on_c, 9, 36, 101
2, 38700, Note_on_c, 9, 53, 65
2, 38700, Note_on_c, 9, 42, 40
2, 38700, Note_on_c, 9, 54, 36
2, 38701, Note_on_c, 9, 54, 0
2, 38701, Note_on_c, 9, 36, 0
2, 38701, Note_on_c, 9, 42, 0
2, 38701, Note_on_c, 9, 53, 0
2, 38701, Note_on_c, 9, 82, 44
2, 38701, Note_on_c, 9, 82, 0
2, 38726, Note_on_c, 0, 74, 0
2, 38726, Note_on_c, 0, 62, 0
2, 38726, Note_on_c, 0, 67, 0
2, 38726, Note_on_c, 0, 62, 63
2, 38726, Note_on_c, 0, 67, 65
2, 38726, Note_on_c, 0, 74, 63
2, 38726, Note_on_c, 4, 62, 65
2, 38731, Note_on_c, 1, 31, 0
2, 38731, Note_on_c, 9, 54, 42
2, 38731, Note_on_c, 9, 54, 0
2, 38731, Note_on_c, 9, 82, 46
2, 38731, Note_on_c, 9, 82, 0
2, 38750, Note_on_c, 0, 67, 0
2, 38750, Note_on_c, 0, 74, 0
2, 38755, Note_on_c, 0, 71, 0
2, 38755, Note_on_c, 0, 62, 0
2, 38755, Note_on_c, 1, 31, 90
2, 38755, Note_on_c, 0, 62, 71
2, 38755, Note_on_c, 0, 67, 71
2, 38755, Note_on_c, 0, 71, 67
2, 38755, Note_on_c, 0, 74, 64
2, 38760, Note_on_c, 9, 38, 90
2, 38760, Note_on_c, 9, 38, 0
2, 38760, Note_on_c, 9, 42, 97
2, 38760, Note_on_c, 9, 123, 67
2, 38760, Note_on_c, 9, 54, 78
2, 38761, Note_on_c, 9, 54, 0
2, 38761, Note_on_c, 9, 123, 0
2, 38761, Note_on_c, 9, 42, 0
2, 38765, Note_on_c, 4, 67, 0
2, 38786, Note_on_c, 4, 67, 52
2, 38790, Note_on_c, 4, 71, 0
2, 38790, Note_on_c, 9, 54, 43
2, 38790, Note_on_c, 9, 54, 0
2, 38795, Note_on_c, 1, 31, 0
2, 38801, Note_on_c, 4, 62, 0
2, 38811, Note_on_c, 0, 67, 0
2, 38811, Note_on_c, 0, 71, 0
2, 38811, Note_on_c, 0, 74, 0
2, 38815, Note_on_c, 0, 62, 0
2, 38815, Note_on_c, 1, 31, 60
2, 38815, Note_on_c, 4, 71, 66
2, 38820, Note_on_c, 4, 67, 0
2, 38820, Note_on_c, 9, 53, 66
2, 38820, Note_on_c, 9, 42, 57
2, 38820, Note_on_c, 9, 54, 29
2, 38821, Note_on_c, 9, 54, 0
2, 38821, Note_on_c, 9, 42, 0
2, 38821, Note_on_c, 9, 53, 0
2, 38821, Note_on_c, 9, 82, 37
2, 38821, Note_on_c, 9, 82, 0
2, 38830, Note_on_c, 1, 31, 0
2, 38845, Note_on_c, 1, 31, 81
2, 38845, Note_on_c, 4, 67, 58
2, 38850, Note_on_c, 9, 54, 34
2, 38851, Note_on_c, 9, 54, 0
2, 38851, Note_on_c, 9, 82, 42
2, 38851, Note_on_c, 9, 82, 0
2, 38855, Note_on_c, 4, 55, 0
2, 38871, Note_on_c, 4, 71, 0
2, 38875, Note_on_c, 1, 31, 0
2, 38876, Note_on_c, 6, 71, 0
2, 38876, Note_on_c, 6, 62, 0
2, 38876, Note_on_c, 4, 67, 0
2, 38876, Note_on_c, 6, 67, 0
2, 38876, Note_on_c, 1, 33, 80
2, 38876, Note_on_c, 0, 60, 54
2, 38876, Note_on_c, 0, 48, 54
2, 38876, Note_on_c, 0, 52, 54
2, 38876, Note_on_c, 0, 57, 52
2, 38876, Note_on_c, 4, 45, 65
2, 38876, Note_on_c, 6, 60, 46
2, 38876, Note_on_c, 6, 52, 43
2, 38876, Note_on_c, 6, 57, 48
2, 38880, Note_on_c, 9, 36, 96
2, 38880, Note_on_c, 9, 42, 96
2, 38881, Note_on_c, 9, 42, 0
2, 38881, Note_on_c, 9, 36, 0
2, 38881, Note_on_c, 9, 54, 64
2, 38881, Note_on_c, 9, 54, 0
2, 38895, Note_on_c, 0, 57, 0
2, 38895, Note_on_c, 0, 60, 0
2, 38895, Note_on_c, 0, 52, 0
2, 38905, Note_on_c, 0, 60, 59
2, 38906, Note_on_c, 0, 52, 51
2, 38906, Note_on_c, 0, 57, 59
2, 38910, Note_on_c, 1, 33, 0
2, 38910, Note_on_c, 9, 54, 56
2, 38910, Note_on_c, 9, 54, 0
2, 38925, Note_on_c, 0, 48, 0
2, 38931, Note_on_c, 0, 57, 0
2, 38931, Note_on_c, 0, 60, 0
2, 38935, Note_on_c, 1, 33, 81
2, 38935, Note_on_c, 0, 60, 58
2, 38935, Note_on_c, 0, 48, 56
2, 38936, Note_on_c, 0, 57, 60
2, 38936, Note_on_c, 4, 60, 66
2, 38941, Note_on_c, 9, 36, 63
2, 38941, Note_on_c, 9, 36, 0
2, 38941, Note_on_c, 9, 53, 63
2, 38941, Note_on_c, 9, 53, 0
2, 38941, Note_on_c, 9, 54, 53
2, 38941, Note_on_c, 9, 54, 0
2, 38941, Note_on_c, 9, 42, 48
2, 38941, Note_on_c, 9, 42, 0
2, 38941, Note_on_c, 9, 82, 39
2, 38941, Note_on_c, 9, 82, 0
2, 38960, Note_on_c, 0, 52, 0
2, 38966, Note_on_c, 0, 57, 0
2, 38966, Note_on_c, 0, 60, 0
2, 38966, Note_on_c, 0, 60, 57
2, 38966, Note_on_c, 0, 52, 52
2, 38966, Note_on_c, 0, 57, 57
2, 38970, Note_on_c, 1, 33, 0
2, 38970, Note_on_c, 9, 54, 52
2, 38970, Note_on_c, 9, 54, 0
2, 38970, Note_on_c, 9, 82, 54
2, 38970, Note_on_c, 9, 82, 0
2, 38991, Note_on_c, 0, 60, 0
2, 38991, Note_on_c, 0, 52, 0
2, 38991, Note_on_c, 0, 48, 0
2, 38995, Note_on_c, 1, 33, 77
2, 38996, Note_on_c, 0, 60, 70
2, 38996, Note_on_c, 0, 48, 70
2, 38996, Note_on_c, 0, 52, 59
2, 38996, Note_on_c, 4, 57, 50
2, 39000, Note_on_c, 9, 38, 83
2, 39000, Note_on_c, 9, 42, 89
2, 39001, Note_on_c, 9, 42, 0
2, 39001, Note_on_c, 9, 38, 0
2, 39001, Note_on_c, 9, 123, 72
2, 39001, Note_on_c, 9, 123, 0
2, 39001, Note_on_c, 9, 54, 62
2, 39001, Note_on_c, 9, 54, 0
2, 39025, Note_on_c, 4, 64, 61
2, 39030, Note_on_c, 9, 54, 49
2, 39031, Note_on_c, 9, 54, 0
2, 39035, Note_on_c, 4, 45, 0
2, 39050, Note_on_c, 0, 57, 0
2, 39056, Note_on_c, 0, 48, 0
2, 39056, Note_on_c, 0, 60, 0
2, 39056, Note_on_c, 0, 52, 0
2, 39060, Note_on_c, 9, 53, 58
2, 39061, Note_on_c, 9, 53, 0
2, 39061, Note_on_c, 1, 33, 0
2, 39061, Note_on_c, 9, 42, 36
2, 39061, Note_on_c, 9, 42, 0
2, 39061, Note_on_c, 9, 54, 41
2, 39061, Note_on_c, 9, 54, 0
2, 39061, Note_on_c, 9, 82, 41
2, 39061, Note_on_c, 9, 82, 0
2, 39066, Note_on_c, 4, 64, 0
2, 39080, Note_on_c, 4, 60, 0
2, 39085, Note_on_c, 4, 57, 0
2, 39085, Note_on_c, 1, 33, 77
2, 39085, Note_on_c, 0, 60, 62
2, 39086, Note_on_c, 0, 48, 51
2, 39086, Note_on_c, 0, 52, 53
2, 39086, Note_on_c, 0, 57, 55
2, 39086, Note_on_c, 4, 45, 60
2, 39090, Note_on_c, 9, 36, 79
2, 39091, Note_on_c, 9, 36, 0
2, 39091, Note_on_c, 9, 54, 37
2, 39091, Note_on_c, 9, 54, 0
2, 39091, Note_on_c, 9, 82, 39
2, 39091, Note_on_c, 9, 82, 0
2, 39105, Note_on_c, 0, 52, 0
2, 39105, Note_on_c, 0, 48, 0
2, 39106, Note_on_c, 0, 57, 0
2, 39110, Note_on_c, 0, 60, 0
2, 39115, Note_on_c, 1, 33, 0
2, 39115, Note_on_c, 4, 60, 56
2, 39121, Note_on_c, 9, 42, 84
2, 39121, Note_on_c, 9, 42, 0
2, 39121, Note_on_c, 9, 54, 51
2, 39121, Note_on_c, 9, 54, 0
2, 39145, Note_on_c, 1, 33, 54
2, 39145, Note_on_c, 0, 60, 56
2, 39145, Note_on_c, 0, 48, 44
2, 39146, Note_on_c, 0, 52, 42
2, 39146, Note_on_c, 0, 57, 40
2, 39150, Note_on_c, 9, 36, 31
2, 39151, Note_on_c, 9, 36, 0
2, 39151, Note_on_c, 9, 54, 40
2, 39151, Note_on_c, 9, 54, 0
2, 39160, Note_on_c, 1, 33, 0
2, 39170, Note_on_c, 0, 48, 0
2, 39171, Note_on_c, 0, 52, 0
2, 39171, Note_on_c, 0, 57, 0
2, 39175, Note_on_c, 1, 33, 74
2, 39175, Note_on_c, 0, 48, 51
2, 39176, Note_on_c, 0, 52, 50
2, 39176, Note_on_c, 0, 57, 51
2, 39176, Note_on_c, 4, 57, 50
2, 39180, Note_on_c, 9, 36, 83
2, 39180, Note_on_c, 9, 53, 58
2, 39181, Note_on_c, 9, 53, 0
2, 39181, Note_on_c, 9, 36, 0
2, 39181, Note_on_c, 9, 42, 33
2, 39181, Note_on_c, 9, 42, 0
2, 39181, Note_on_c, 9, 54, 34
2, 39181, Note_on_c, 9, 54, 0
2, 39181, Note_on_c, 9, 82, 42
2, 39181, Note_on_c, 9, 82, 0
2, 39206, Note_on_c, 0, 52, 0
2, 39206, Note_on_c, 0, 57, 0
2, 39206, Note_on_c, 0, 60, 0
2, 39206, Note_on_c, 0, 60, 52
2, 39206, Note_on_c, 0, 52, 52
2, 39206, Note_on_c, 0, 57, 54
2, 39206, Note_on_c, 4, 64, 57
2, 39210, Note_on_c, 1, 33, 0
2, 39210, Note_on_c, 9, 54, 37
2, 39210, Note_on_c, 9, 54, 0
2, 39210, Note_on_c, 9, 82, 34
2, 39210, Note_on_c, 9, 82, 0
2, 39230, Note_on_c, 0, 60, 0
2, 39230, Note_on_c, 0, 52, 0
2, 39230, Note_on_c, 0, 57, 0
2, 39235, Note_on_c, 0, 48, 0
2, 39235, Note_on_c, 1, 33, 73
2, 39235, Note_on_c, 0, 60, 54
2, 39235, Note_on_c, 0, 48, 57
2, 39236, Note_on_c, 0, 52, 60
2, 39236, Note_on_c, 0, 57, 60
2, 39240, Note_on_c, 9, 38, 75
2, 39241, Note_on_c, 9, 38, 0
2, 39241, Note_on_c, 4, 57, 0
2, 39241, Note_on_c, 9, 42, 81
2, 39241, Note_on_c, 9, 42, 0
2, 39241, Note_on_c, 9, 123, 60
2, 39241, Note_on_c, 9, 123, 0
2, 39241, Note_on_c, 9, 54, 56
2, 39241, Note_on_c, 9, 54, 0
2, 39265, Note_on_c, 4, 57, 42
2, 39271, Note_on_c, 9, 54, 18
2, 39271, Note_on_c, 9, 54, 0
2, 39280, Note_on_c, 1, 33, 0
2, 39285, Note_on_c, 4, 60, 0
2, 39290, Note_on_c, 0, 52, 0
2, 39290, Note_on_c, 0, 57, 0
2, 39295, Note_on_c, 0, 60, 0
2, 39296, Note_on_c, 0, 48, 0
2, 39296, Note_on_c, 1, 33, 51
2, 39296, Note_on_c, 4, 60, 52
2, 39300, Note_on_c, 4, 57, 0
2, 39300, Note_on_c, 9, 53, 53
2, 39300, Note_on_c, 9, 42, 26
2, 39301, Note_on_c, 9, 42, 0
2, 39301, Note_on_c, 9, 53, 0
2, 39301, Note_on_c, 9, 54, 33
2, 39301, Note_on_c, 9, 54, 0
2, 39301, Note_on_c, 9, 82, 37
2, 39301, Note_on_c, 9, 82, 0
2, 39310, Note_on_c, 1, 33, 0
2, 39326, Note_on_c, 1, 33, 55
2, 39326, Note_on_c, 4, 57, 55
2, 39331, Note_on_c, 4, 45, 0
2, 39331, Note_on_c, 9, 25, 46
2, 39331, Note_on_c, 9, 25, 0
2, 39331, Note_on_c, 9, 54, 31
2, 39331, Note_on_c, 9, 54, 0
2, 39331, Note_on_c, 9, 82, 37
2, 39331, Note_on_c, 9, 82, 0
2, 39345, Note_on_c, 1, 33, 0
2, 39355, Note_on_c, 1, 33, 69
2, 39355, Note_on_c, 0, 60, 45
2, 39356, Note_on_c, 0, 48, 45
2, 39356, Note_on_c, 0, 52, 45
2, 39356, Note_on_c, 0, 57, 43
2, 39356, Note_on_c, 4, 45, 56
2, 39360, Note_on_c, 9, 36, 69
2, 39360, Note_on_c, 9, 42, 77
2, 39361, Note_on_c, 9, 42, 0
2, 39361, Note_on_c, 4, 57, 0
2, 39361, Note_on_c, 9, 36, 0
2, 39361, Note_on_c, 4, 60, 0
2, 39361, Note_on_c, 4, 64, 0
2, 39361, Note_on_c, 9, 54, 57
2, 39361, Note_on_c, 9, 54, 0
2, 39385, Note_on_c, 0, 52, 0
2, 39385, Note_on_c, 1, 33, 0
2, 39385, Note_on_c, 0, 60, 0
2, 39386, Note_on_c, 0, 57, 0
2, 39386, Note_on_c, 0, 60, 49
2, 39386, Note_on_c, 0, 52, 43
2, 39386, Note_on_c, 0, 57, 49
2, 39390, Note_on_c, 9, 54, 30
2, 39391, Note_on_c, 9, 54, 0
2, 39410, Note_on_c, 0, 57, 0
2, 39410, Note_on_c, 0, 60, 0
2, 39415, Note_on_c, 0, 48, 0
2, 39415, Note_on_c, 1, 33, 65
2, 39415, Note_on_c, 0, 60, 48
2, 39415, Note_on_c, 0, 48, 47
2, 39416, Note_on_c, 0, 57, 50
2, 39416, Note_on_c, 4, 60, 55
2, 39420, Note_on_c, 9, 36, 70
2, 39420, Note_on_c, 9, 53, 48
2, 39421, Note_on_c, 9, 53, 0
2, 39421, Note_on_c, 9, 36, 0
2, 39421, Note_on_c, 9, 42, 37
2, 39421, Note_on_c, 9, 42, 0
2, 39421, Note_on_c, 9, 54, 32
2, 39421, Note_on_c, 9, 54, 0
2, 39421, Note_on_c, 9, 82, 34
2, 39421, Note_on_c, 9, 82, 0
2, 39440, Note_on_c, 0, 60, 0
2, 39440, Note_on_c, 0, 52, 0
2, 39441, Note_on_c, 0, 57, 0
2, 39445, Note_on_c, 1, 33, 0
2, 39445, Note_on_c, 0, 60, 48
2, 39446, Note_on_c, 0, 52, 43
2, 39446, Note_on_c, 0, 57, 48
2, 39450, Note_on_c, 9, 54, 32
2, 39451, Note_on_c, 9, 54, 0
2, 39451, Note_on_c, 9, 82, 35
2, 39451, Note_on_c, 9, 82, 0
2, 39475, Note_on_c, 0, 52, 0
2, 39475, Note_on_c, 0, 60, 0
2, 39476, Note_on_c, 0, 48, 0
2, 39476, Note_on_c, 1, 33, 66
2, 39476, Note_on_c, 0, 60, 57
2, 39476, Note_on_c, 0, 48, 57
2, 39476, Note_on_c, 0, 52, 49
2, 39476, Note_on_c, 4, 57, 44
2, 39480, Note_on_c, 9, 38, 68
2, 39480, Note_on_c, 9, 38, 0
2, 39480, Note_on_c, 9, 42, 76
2, 39480, Note_on_c, 9, 42, 0
2, 39480, Note_on_c, 9, 123, 59
2, 39480, Note_on_c, 9, 54, 63
2, 39481, Note_on_c, 9, 54, 0
2, 39481, Note_on_c, 9, 123, 0
2, 39505, Note_on_c, 4, 64, 49
2, 39511, Note_on_c, 9, 54, 34
2, 39511, Note_on_c, 9, 54, 0
2, 39525, Note_on_c, 4, 57, 0
2, 39526, Note_on_c, 4, 45, 0
2, 39536, Note_on_c, 0, 48, 0
2, 39536, Note_on_c, 0, 60, 0
2, 39536, Note_on_c, 0, 57, 0
2, 39536, Note_on_c, 0, 52, 0
2, 39536, Note_on_c, 4, 64, 0
2, 39536, Note_on_c, 4, 57, 39
2, 39540, Note_on_c, 9, 53, 44
2, 39540, Note_on_c, 9, 53, 0
2, 39540, Note_on_c, 9, 42, 33
2, 39540, Note_on_c, 9, 42, 0
2, 39540, Note_on_c, 9, 54, 30
2, 39540, Note_on_c, 9, 54, 0
2, 39540, Note_on_c, 9, 82, 31
2, 39540, Note_on_c, 9, 82, 0
2, 39545, Note_on_c, 1, 33, 0
2, 39550, Note_on_c, 4, 60, 0
2, 39550, Note_on_c, 4, 57, 0
2, 39565, Note_on_c, 1, 33, 61
2, 39565, Note_on_c, 0, 60, 51
2, 39566, Note_on_c, 0, 48, 42
2, 39566, Note_on_c, 0, 52, 44
2, 39566, Note_on_c, 0, 57, 45
2, 39566, Note_on_c, 4, 45, 49
2, 39570, Note_on_c, 9, 36, 66
2, 39570, Note_on_c, 9, 54, 28
2, 39571, Note_on_c, 9, 54, 0
2, 39571, Note_on_c, 9, 36, 0
2, 39571, Note_on_c, 9, 82, 32
2, 39571, Note_on_c, 9, 82, 0
2, 39586, Note_on_c, 0, 57, 0
2, 39590, Note_on_c, 0, 48, 0
2, 39591, Note_on_c, 0, 52, 0
2, 39595, Note_on_c, 0, 60, 0
2, 39595, Note_on_c, 4, 60, 51
2, 39600, Note_on_c, 9, 42, 72
2, 39601, Note_on_c, 9, 42, 0
2, 39601, Note_on_c, 1, 33, 0
2, 39601, Note_on_c, 9, 54, 56
2, 39601, Note_on_c, 9, 54, 0
2, 39625, Note_on_c, 1, 33, 57
2, 39625, Note_on_c, 0, 60, 45
2, 39625, Note_on_c, 0, 48, 35
2, 39625, Note_on_c, 0, 52, 34
2, 39626, Note_on_c, 0, 57, 33
2, 39630, Note_on_c, 9, 36, 19
2, 39631, Note_on_c, 9, 36, 0
2, 39631, Note_on_c, 9, 54, 25
2, 39631, Note_on_c, 9, 54, 0
2, 39645, Note_on_c, 1, 33, 0
2, 39655, Note_on_c, 0, 48, 0
2, 39656, Note_on_c, 0, 52, 0
2, 39656, Note_on_c, 0, 57, 0
2, 39656, Note_on_c, 1, 33, 59
2, 39656, Note_on_c, 0, 48, 42
2, 39656, Note_on_c, 0, 52, 41
2, 39656, Note_on_c, 0, 57, 42
2, 39656, Note_on_c, 4, 57, 41
2, 39661, Note_on_c, 9, 36, 71
2, 39661, Note_on_c, 9, 36, 0
2, 39661, Note_on_c, 9, 53, 45
2, 39661, Note_on_c, 9, 53, 0
2, 39661, Note_on_c, 9, 42, 28
2, 39661, Note_on_c, 9, 42, 0
2, 39661, Note_on_c, 9, 54, 25
2, 39661, Note_on_c, 9, 54, 0
2, 39661, Note_on_c, 9, 82, 31
2, 39661, Note_on_c, 9, 82, 0
2, 39680, Note_on_c, 0, 52, 0
2, 39680, Note_on_c, 0, 57, 0
2, 39685, Note_on_c, 0, 60, 0
2, 39686, Note_on_c, 0, 60, 43
2, 39686, Note_on_c, 0, 52, 43
2, 39686, Note_on_c, 0, 57, 45
2, 39686, Note_on_c, 4, 64, 45
2, 39690, Note_on_c, 9, 54, 29
2, 39691, Note_on_c, 9, 54, 0
2, 39691, Note_on_c, 1, 33, 0
2, 39691, Note_on_c, 9, 82, 31
2, 39691, Note_on_c, 9, 82, 0
2, 39715, Note_on_c, 0, 60, 0
2, 39716, Note_on_c, 0, 52, 0
2, 39716, Note_on_c, 0, 48, 0
2, 39716, Note_on_c, 0, 57, 0
2, 39716, Note_on_c, 1, 33, 61
2, 39716, Note_on_c, 0, 60, 44
2, 39716, Note_on_c, 0, 48, 46
2, 39716, Note_on_c, 0, 52, 49
2, 39716, Note_on_c, 0, 57, 49
2, 39720, Note_on_c, 9, 38, 61
2, 39720, Note_on_c, 9, 42, 66
2, 39721, Note_on_c, 9, 42, 0
2, 39721, Note_on_c, 9, 38, 0
2, 39721, Note_on_c, 4, 57, 0
2, 39721, Note_on_c, 9, 123, 45
2, 39721, Note_on_c, 9, 123, 0
2, 39721, Note_on_c, 9, 54, 53
2, 39721, Note_on_c, 9, 54, 0
2, 39745, Note_on_c, 4, 57, 36
2, 39750, Note_on_c, 9, 54, 29
2, 39750, Note_on_c, 9, 54, 0
2, 39755, Note_on_c, 1, 33, 0
2, 39755, Note_on_c, 4, 60, 0
2, 39771, Note_on_c, 0, 52, 0
2, 39771, Note_on_c, 0, 48, 0
2, 39771, Note_on_c, 0, 57, 0
2, 39775, Note_on_c, 0, 60, 0
2, 39775, Note_on_c, 4, 57, 0
2, 39775, Note_on_c, 1, 33, 41
2, 39775, Note_on_c, 4, 60, 45
2, 39780, Note_on_c, 9, 53, 44
2, 39781, Note_on_c, 9, 53, 0
2, 39781, Note_on_c, 9, 42, 39
2, 39781, Note_on_c, 9, 42, 0
2, 39781, Note_on_c, 9, 54, 19
2, 39781, Note_on_c, 9, 54, 0
2, 39781, Note_on_c, 9, 82, 25
2, 39781, Note_on_c, 9, 82, 0
2, 39791, Note_on_c, 1, 33, 0
2, 39805, Note_on_c, 1, 33, 55
2, 39805, Note_on_c, 4, 57, 46
2, 39810, Note_on_c, 9, 54, 23
2, 39810, Note_on_c, 9, 54, 0
2, 39810, Note_on_c, 9, 82, 29
2, 39810, Note_on_c, 9, 82, 0
2, 39825, Note_on_c, 4, 57, 0
2, 39826, Note_on_c, 4, 64, 0
2, 39830, Note_on_c, 6, 52, 0
2, 39830, Note_on_c, 4, 60, 0
2, 39831, Note_on_c, 6, 57, 0
2, 39835, Note_on_c, 6, 60, 0
2, 39835, Note_on_c, 4, 45, 0
2, 39835, Note_on_c, 1, 33, 0
2, 39835, Note_on_c, 1, 33, 54
2, 39835, Note_on_c, 0, 60, 36
2, 39835, Note_on_c, 0, 48, 36
2, 39836, Note_on_c, 0, 52, 36
2, 39836, Note_on_c, 0, 57, 35
2, 39836, Note_on_c, 4, 45, 43
2, 39836, Note_on_c, 6, 60, 31
2, 39836, Note_on_c, 6, 52, 29
2, 39836, Note_on_c, 6, 57, 32
2, 39840, Note_on_c, 9, 36, 64
2, 39841, Note_on_c, 9, 36, 0
2, 39841, Note_on_c, 0, 48, 0
2, 39841, Note_on_c, 0, 52, 0
2, 39841, Note_on_c, 1, 33, 0
2, 39841, Note_on_c, 0, 57, 0
2, 39841, Note_on_c, 0, 60, 0
2, 39841, Note_on_c, 6, 52, 0
2, 39841, Note_on_c, 6, 60, 0
2, 39841, Note_on_c, 4, 45, 0
2, 39841, Note_on_c, 6, 57, 0
2, 39841, Note_on_c, 9, 42, 64
2, 39841, Note_on_c, 9, 42, 0
2, 39841, Note_on_c, 9, 54, 43
2, 39841, Note_on_c, 9, 54, 0
2, 39841, Control_c, 1, 84, 33
2, 39841, Note_on_c, 1, 38, 54
2, 39841, Control_c, 0, 84, 60
2, 39841, Note_on_c, 0, 57, 36
2, 39841, Note_on_c, 0, 57, 0
2, 39841, Control_c, 0, 84, 48
2, 39841, Note_on_c, 0, 62, 35
2, 39841, Control_c, 0, 84, 52
2, 39841, Note_on_c, 0, 66, 36
2, 39841, Control_c, 0, 84, 57
2, 39841, Note_on_c, 0, 69, 36
2, 39841, Control_c, 4, 84, 45
2, 39841, Note_on_c, 4, 50, 43
2, 39841, Control_c, 6, 84, 60
2, 39841, Note_on_c, 6, 57, 30
2, 39841, Note_on_c, 6, 57, 0
2, 39841, Control_c, 6, 84, 52
2, 39841, Note_on_c, 6, 62, 28
2, 39841, Control_c, 6, 84, 57
2, 39841, Note_on_c, 6, 66, 26
2, 39851, Note_on_c, 0, 62, 0
2, 39851, Note_on_c, 0, 69, 0
2, 39866, Note_on_c, 0, 57, 34
2, 39866, Note_on_c, 0, 62, 39
2, 39866, Note_on_c, 0, 69, 39
2, 39870, Note_on_c, 1, 38, 0
2, 39870, Note_on_c, 9, 54, 37
2, 39870, Note_on_c, 9, 54, 0
2, 39885, Note_on_c, 0, 66, 0
2, 39896, Note_on_c, 0, 69, 0
2, 39896, Note_on_c, 0, 62, 0
2, 39896, Note_on_c, 1, 38, 53
2, 39896, Note_on_c, 0, 62, 40
2, 39896, Note_on_c, 0, 66, 37
2, 39896, Note_on_c, 0, 69, 38
2, 39896, Note_on_c, 4, 62, 42
2, 39901, Note_on_c, 9, 36, 42
2, 39901, Note_on_c, 9, 36, 0
2, 39901, Note_on_c, 9, 53, 42
2, 39901, Note_on_c, 9, 53, 0
2, 39901, Note_on_c, 9, 54, 35
2, 39901, Note_on_c, 9, 54, 0
2, 39901, Note_on_c, 9, 42, 32
2, 39901, Note_on_c, 9, 42, 0
2, 39901, Note_on_c, 9, 82, 25
2, 39901, Note_on_c, 9, 82, 0
2, 39910, Note_on_c, 4, 50, 0
2, 39921, Note_on_c, 0, 57, 0
2, 39921, Note_on_c, 0, 69, 0
2, 39921, Note_on_c, 0, 62, 0
2, 39926, Note_on_c, 0, 57, 35
2, 39926, Note_on_c, 0, 62, 38
2, 39926, Note_on_c, 0, 69, 38
2, 39930, Note_on_c, 9, 54, 35
2, 39931, Note_on_c, 9, 54, 0
2, 39931, Note_on_c, 1, 38, 0
2, 39931, Note_on_c, 9, 82, 36
2, 39931, Note_on_c, 9, 82, 0
2, 39950, Note_on_c, 0, 66, 0
2, 39955, Note_on_c, 0, 57, 0
2, 39956, Note_on_c, 0, 69, 0
2, 39956, Note_on_c, 1, 38, 50
2, 39956, Note_on_c, 0, 57, 39
2, 39956, Note_on_c, 0, 66, 46
2, 39956, Note_on_c, 0, 69, 46
2, 39956, Note_on_c, 4, 57, 36
2, 39960, Note_on_c, 9, 38, 54
2, 39960, Note_on_c, 9, 42, 59
2, 39961, Note_on_c, 9, 42, 0
2, 39961, Note_on_c, 9, 38, 0
2, 39961, Note_on_c, 9, 123, 47
2, 39961, Note_on_c, 9, 123, 0
2, 39961, Note_on_c, 9, 54, 40
2, 39961, Note_on_c, 9, 54, 0
2, 39986, Note_on_c, 4, 64, 42
2, 39990, Note_on_c, 9, 54, 32
2, 39991, Note_on_c, 9, 54, 0
2, 40005, Note_on_c, 4, 57, 0
2, 40010, Note_on_c, 0, 69, 0
2, 40015, Note_on_c, 0, 66, 0
2, 40015, Note_on_c, 0, 57, 0
2, 40015, Note_on_c, 0, 62, 0
2, 40020, Note_on_c, 9, 53, 37
2, 40020, Note_on_c, 9, 42, 23
2, 40021, Note_on_c, 9, 42, 0
2, 40021, Note_on_c, 1, 38, 0
2, 40021, Note_on_c, 9, 53, 0
2, 40021, Note_on_c, 9, 54, 26
2, 40021, Note_on_c, 9, 54, 0
2, 40021, Note_on_c, 9, 82, 26
2, 40021, Note_on_c, 9, 82, 0
2, 40035, Note_on_c, 4, 64, 0
2, 40041, Note_on_c, 4, 62, 0
2, 40045, Note_on_c, 1, 38, 50
2, 40045, Note_on_c, 0, 57, 34
2, 40046, Note_on_c, 0, 62, 36
2, 40046, Note_on_c, 0, 66, 34
2, 40046, Note_on_c, 0, 69, 40
2, 40046, Note_on_c, 4, 50, 41
2, 40051, Note_on_c, 9, 36, 51
2, 40051, Note_on_c, 9, 36, 0
2, 40051, Note_on_c, 9, 54, 23
2, 40051, Note_on_c, 9, 54, 0
2, 40051, Note_on_c, 9, 82, 25
2, 40051, Note_on_c, 9, 82, 0
2, 40065, Note_on_c, 0, 62, 0
2, 40070, Note_on_c, 0, 57, 0
2, 40070, Note_on_c, 0, 66, 0
2, 40075, Note_on_c, 1, 38, 0
2, 40075, Note_on_c, 0, 69, 0
2, 40075, Note_on_c, 4, 62, 34
2, 40080, Note_on_c, 9, 42, 55
2, 40081, Note_on_c, 9, 42, 0
2, 40081, Note_on_c, 9, 54, 33
2, 40081, Note_on_c, 9, 54, 0
2, 40105, Note_on_c, 1, 38, 34
2, 40106, Note_on_c, 0, 57, 27
2, 40106, Note_on_c, 0, 62, 25
2, 40106, Note_on_c, 0, 66, 28
2, 40106, Note_on_c, 0, 69, 36
2, 40106, Note_on_c, 4, 57, 22
2, 40110, Note_on_c, 9, 36, 19
2, 40110, Note_on_c, 9, 54, 25
2, 40111, Note_on_c, 9, 54, 0
2, 40111, Note_on_c, 9, 36, 0
2, 40120, Note_on_c, 1, 38, 0
2, 40135, Note_on_c, 0, 66, 0
2, 40135, Note_on_c, 0, 62, 0
2, 40135, Note_on_c, 0, 57, 0
2, 40135, Note_on_c, 1, 38, 47
2, 40135, Note_on_c, 0, 57, 31
2, 40135, Note_on_c, 0, 62, 32
2, 40135, Note_on_c, 0, 66, 32
2, 40140, Note_on_c, 9, 36, 52
2, 40140, Note_on_c, 9, 36, 0
2, 40140, Note_on_c, 9, 53, 36
2, 40140, Note_on_c, 9, 53, 0
2, 40140, Note_on_c, 9, 42, 21
2, 40140, Note_on_c, 9, 42, 0
2, 40140, Note_on_c, 9, 54, 21
2, 40140, Note_on_c, 9, 82, 27
2, 40141, Note_on_c, 9, 82, 0
2, 40141, Note_on_c, 9, 54, 0
2, 40160, Note_on_c, 0, 62, 0
2, 40160, Note_on_c, 0, 57, 0
2, 40165, Note_on_c, 0, 69, 0
2, 40166, Note_on_c, 0, 57, 33
2, 40166, Note_on_c, 0, 62, 34
2, 40166, Note_on_c, 0, 69, 33
2, 40166, Note_on_c, 4, 64, 34
2, 40170, Note_on_c, 9, 54, 23
2, 40170, Note_on_c, 9, 82, 21
2, 40171, Note_on_c, 9, 82, 0
2, 40171, Note_on_c, 9, 54, 0
2, 40171, Note_on_c, 1, 38, 0
2, 40175, Note_on_c, 4, 57, 0
2, 40190, Note_on_c, 0, 66, 0
2, 40195, Note_on_c, 0, 57, 0
2, 40196, Note_on_c, 0, 62, 0
2, 40196, Note_on_c, 0, 69, 0
2, 40196, Note_on_c, 1, 38, 46
2, 40196, Note_on_c, 0, 57, 38
2, 40196, Note_on_c, 0, 62, 38
2, 40196, Note_on_c, 0, 66, 36
2, 40196, Note_on_c, 0, 69, 34
2, 40200, Note_on_c, 9, 38, 47
2, 40200, Note_on_c, 9, 42, 51
2, 40201, Note_on_c, 9, 42, 0
2, 40201, Note_on_c, 9, 38, 0
2, 40201, Note_on_c, 9, 123, 38
2, 40201, Note_on_c, 9, 123, 0
2, 40201, Note_on_c, 9, 54, 35
2, 40201, Note_on_c, 9, 54, 0
2, 40225, Note_on_c, 4, 57, 26
2, 40230, Note_on_c, 4, 62, 0
2, 40230, Note_on_c, 9, 54, 11
2, 40230, Note_on_c, 9, 54, 0
2, 40240, Note_on_c, 1, 38, 0
2, 40250, Note_on_c, 0, 62, 0
2, 40251, Note_on_c, 0, 66, 0
2, 40251, Note_on_c, 0, 69, 0
2, 40256, Note_on_c, 0, 57, 0
2, 40256, Note_on_c, 1, 38, 31
2, 40256, Note_on_c, 4, 62, 31
2, 40261, Note_on_c, 9, 53, 32
2, 40261, Note_on_c, 9, 53, 0
2, 40261, Note_on_c, 9, 42, 16
2, 40261, Note_on_c, 9, 42, 0
2, 40261, Note_on_c, 9, 54, 20
2, 40261, Note_on_c, 9, 54, 0
2, 40261, Note_on_c, 9, 82, 23
2, 40261, Note_on_c, 9, 82, 0
2, 40265, Note_on_c, 4, 57, 0
2, 40270, Note_on_c, 1, 38, 0
2, 40280, Note_on_c, 4, 50, 0
2, 40285, Note_on_c, 1, 38, 33
2, 40285, Note_on_c, 4, 57, 26
2, 40291, Note_on_c, 9, 25, 28
2, 40291, Note_on_c, 9, 25, 0
2, 40291, Note_on_c, 9, 54, 19
2, 40291, Note_on_c, 9, 54, 0
2, 40291, Note_on_c, 9, 82, 22
2, 40291, Note_on_c, 9, 82, 0
2, 40305, Note_on_c, 4, 62, 0
2, 40305, Note_on_c, 1, 38, 0
2, 40311, Note_on_c, 4, 64, 0
2, 40311, Note_on_c, 4, 57, 0
2, 40316, Note_on_c, 1, 38, 42
2, 40316, Note_on_c, 0, 57, 28
2, 40316, Note_on_c, 0, 62, 26
2, 40316, Note_on_c, 0, 66, 28
2, 40316, Note_on_c, 0, 69, 28
2, 40316, Note_on_c, 4, 50, 35
2, 40320, Note_on_c, 9, 36, 42
2, 40321, Note_on_c, 9, 36, 0
2, 40321, Note_on_c, 9, 42, 46
2, 40321, Note_on_c, 9, 42, 0
2, 40321, Note_on_c, 9, 54, 34
2, 40321, Note_on_c, 9, 54, 0
2, 40340, Note_on_c, 0, 57, 0
2, 40341, Note_on_c, 0, 62, 0
2, 40341, Note_on_c, 0, 69, 0
2, 40345, Note_on_c, 1, 38, 0
2, 40345, Note_on_c, 0, 57, 26
2, 40345, Note_on_c, 0, 62, 30
2, 40345, Note_on_c, 0, 69, 30
2, 40350, Note_on_c, 9, 54, 18
2, 40351, Note_on_c, 9, 54, 0
2, 40370, Note_on_c, 0, 66, 0
2, 40375, Note_on_c, 0, 62, 0
2, 40376, Note_on_c, 0, 69, 0
2, 40376, Note_on_c, 1, 38, 39
2, 40376, Note_on_c, 0, 62, 30
2, 40376, Note_on_c, 0, 66, 28
2, 40376, Note_on_c, 0, 69, 29
2, 40376, Note_on_c, 4, 66, 33
2, 40380, Note_on_c, 9, 36, 42
2, 40381, Note_on_c, 9, 36, 0
2, 40381, Note_on_c, 9, 53, 29
2, 40381, Note_on_c, 9, 53, 0
2, 40381, Note_on_c, 9, 42, 22
2, 40381, Note_on_c, 9, 42, 0
2, 40381, Note_on_c, 9, 54, 19
2, 40381, Note_on_c, 9, 54, 0
2, 40381, Note_on_c, 9, 82, 20
2, 40381, Note_on_c, 9, 82, 0
2, 40400, Note_on_c, 0, 69, 0
2, 40400, Note_on_c, 0, 62, 0
2, 40400, Note_on_c, 0, 57, 0
2, 40405, Note_on_c, 1, 38, 0
2, 40405, Note_on_c, 0, 57, 25
2, 40405, Note_on_c, 0, 62, 28
2, 40406, Note_on_c, 0, 69, 28
2, 40410, Note_on_c, 9, 54, 19
2, 40410, Note_on_c, 9, 54, 0
2, 40410, Note_on_c, 9, 82, 20
2, 40410, Note_on_c, 9, 82, 0
2, 40430, Note_on_c, 0, 66, 0
2, 40435, Note_on_c, 0, 57, 0
2, 40436, Note_on_c, 0, 69, 0
2, 40436, Note_on_c, 1, 38, 39
2, 40436, Note_on_c, 0, 57, 29
2, 40436, Note_on_c, 0, 66, 34
2, 40436, Note_on_c, 0, 69, 34
2, 40436, Note_on_c, 4, 62, 27
2, 40441, Note_on_c, 9, 38, 39
2, 40441, Note_on_c, 9, 38, 0
2, 40441, Note_on_c, 9, 42, 44
2, 40441, Note_on_c, 9, 42, 0
2, 40441, Note_on_c, 9, 123, 34
2, 40441, Note_on_c, 9, 123, 0
2, 40441, Note_on_c, 9, 54, 37
2, 40441, Note_on_c, 9, 54, 0
2, 40465, Note_on_c, 4, 69, 31
2, 40470, Note_on_c, 9, 54, 20
2, 40470, Note_on_c, 9, 54, 0
2, 40495, Note_on_c, 0, 62, 0
2, 40496, Note_on_c, 0, 69, 0
2, 40496, Note_on_c, 0, 66, 0
2, 40496, Note_on_c, 0, 57, 0
2, 40500, Note_on_c, 9, 53, 25
2, 40500, Note_on_c, 9, 42, 19
2, 40501, Note_on_c, 9, 42, 0
2, 40501, Note_on_c, 9, 53, 0
2, 40501, Note_on_c, 9, 54, 17
2, 40501, Note_on_c, 9, 54, 0
2, 40501, Note_on_c, 9, 82, 18
2, 40501, Note_on_c, 9, 82, 0
2, 40505, Note_on_c, 4, 50, 0
2, 40505, Note_on_c, 1, 38, 0
2, 40516, Note_on_c, 4, 69, 0
2, 40525, Note_on_c, 4, 66, 0
2, 40525, Note_on_c, 1, 38, 34
2, 40525, Note_on_c, 0, 57, 25
2, 40525, Note_on_c, 0, 62, 26
2, 40525, Note_on_c, 0, 66, 24
2, 40525, Note_on_c, 0, 69, 29
2, 40525, Note_on_c, 4, 50, 28
2, 40530, Note_on_c, 4, 62, 0
2, 40530, Note_on_c, 9, 36, 37
2, 40530, Note_on_c, 9, 36, 0
2, 40530, Note_on_c, 9, 54, 16
2, 40530, Note_on_c, 9, 54, 0
2, 40530, Note_on_c, 9, 82, 18
2, 40530, Note_on_c, 9, 82, 0
2, 40545, Note_on_c, 0, 62, 0
2, 40546, Note_on_c, 0, 66, 0
2, 40551, Note_on_c, 0, 57, 0
2, 40555, Note_on_c, 0, 69, 0
2, 40555, Note_on_c, 4, 66, 26
2, 40560, Note_on_c, 9, 42, 40
2, 40560, Note_on_c, 9, 54, 31
2, 40561, Note_on_c, 9, 54, 0
2, 40561, Note_on_c, 1, 38, 0
2, 40561, Note_on_c, 9, 42, 0
2, 40585, Note_on_c, 1, 38, 32
2, 40585, Note_on_c, 0, 57, 19
2, 40586, Note_on_c, 0, 62, 18
2, 40586, Note_on_c, 0, 66, 20
2, 40586, Note_on_c, 0, 69, 26
2, 40590, Note_on_c, 9, 36, 11
2, 40590, Note_on_c, 9, 36, 0
2, 40590, Note_on_c, 9, 54, 14
2, 40590, Note_on_c, 9, 54, 0
2, 40605, Note_on_c, 1, 38, 0
2, 40610, Note_on_c, 0, 62, 0
2, 40610, Note_on_c, 0, 57, 0
2, 40611, Note_on_c, 0, 66, 0
2, 40615, Note_on_c, 1, 38, 32
2, 40615, Note_on_c, 0, 57, 22
2, 40616, Note_on_c, 0, 62, 23
2, 40616, Note_on_c, 0, 66, 23
2, 40616, Note_on_c, 4, 62, 22
2, 40620, Note_on_c, 9, 36, 39
2, 40621, Note_on_c, 9, 36, 0
2, 40621, Note_on_c, 9, 53, 25
2, 40621, Note_on_c, 9, 53, 0
2, 40621, Note_on_c, 9, 42, 15
2, 40621, Note_on_c, 9, 42, 0
2, 40621, Note_on_c, 9, 54, 13
2, 40621, Note_on_c, 9, 54, 0
2, 40621, Note_on_c, 9, 82, 17
2, 40621, Note_on_c, 9, 82, 0
2, 40646, Note_on_c, 0, 62, 0
2, 40646, Note_on_c, 0, 57, 0
2, 40646, Note_on_c, 0, 69, 0
2, 40646, Note_on_c, 0, 57, 23
2, 40646, Note_on_c, 0, 62, 24
2, 40646, Note_on_c, 0, 69, 23
2, 40646, Note_on_c, 4, 69, 24
2, 40651, Note_on_c, 1, 38, 0
2, 40651, Note_on_c, 9, 54, 15
2, 40651, Note_on_c, 9, 54, 0
2, 40651, Note_on_c, 9, 82, 17
2, 40651, Note_on_c, 9, 82, 0
2, 40670, Note_on_c, 0, 69, 0
2, 40670, Note_on_c, 0, 62, 0
2, 40675, Note_on_c, 0, 57, 0
2, 40676, Note_on_c, 0, 66, 0
2, 40676, Note_on_c, 1, 38, 33
2, 40676, Note_on_c, 0, 57, 26
2, 40676, Note_on_c, 0, 62, 26
2, 40676, Note_on_c, 0, 66, 24
2, 40676, Note_on_c, 0, 69, 23
2, 40680, Note_on_c, 9, 38, 33
2, 40681, Note_on_c, 9, 38, 0
2, 40681, Note_on_c, 9, 42, 35
2, 40681, Note_on_c, 9, 42, 0
2, 40681, Note_on_c, 9, 123, 24
2, 40681, Note_on_c, 9, 123, 0
2, 40681, Note_on_c, 9, 54, 28
2, 40681, Note_on_c, 9, 54, 0
2, 40685, Note_on_c, 4, 62, 0
2, 40706, Note_on_c, 4, 62, 19
2, 40710, Note_on_c, 4, 66, 0
2, 40710, Note_on_c, 9, 54, 15
2, 40711, Note_on_c, 9, 54, 0
2, 40715, Note_on_c, 1, 38, 0
2, 40721, Note_on_c, 4, 69, 0
2, 40730, Note_on_c, 0, 62, 0
2, 40730, Note_on_c, 0, 69, 0
2, 40730, Note_on_c, 0, 66, 0
2, 40735, Note_on_c, 0, 57, 0
2, 40735, Note_on_c, 1, 38, 22
2, 40735, Note_on_c, 4, 66, 24
2, 40740, Note_on_c, 4, 62, 0
2, 40740, Note_on_c, 9, 53, 24
2, 40740, Note_on_c, 9, 42, 21
2, 40740, Note_on_c, 9, 54, 10
2, 40741, Note_on_c, 9, 54, 0
2, 40741, Note_on_c, 9, 42, 0
2, 40741, Note_on_c, 9, 53, 0
2, 40741, Note_on_c, 9, 82, 13
2, 40741, Note_on_c, 9, 82, 0
2, 40750, Note_on_c, 1, 38, 0
2, 40765, Note_on_c, 1, 38, 28
2, 40765, Note_on_c, 4, 62, 20
2, 40770, Note_on_c, 9, 54, 12
2, 40771, Note_on_c, 9, 54, 0
2, 40771, Note_on_c, 9, 82, 15
2, 40771, Note_on_c, 9, 82, 0
2, 40776, Note_on_c, 4, 50, 0
2, 40790, Note_on_c, 4, 66, 0
2, 40795, Note_on_c, 6, 66, 0
2, 40795, Note_on_c, 6, 62, 0
2, 40795, Note_on_c, 4, 62, 0
2, 40795, Note_on_c, 1, 38, 0
2, 40795, Note_on_c, 1, 31, 27
2, 40795, Note_on_c, 0, 62, 18
2, 40796, Note_on_c, 0, 67, 17
2, 40796, Note_on_c, 0, 71, 18
2, 40796, Note_on_c, 0, 74, 18
2, 40796, Note_on_c, 4, 55, 22
2, 40796, Note_on_c, 6, 62, 15
2, 40796, Note_on_c, 6, 67, 14
2, 40796, Note_on_c, 6, 71, 13
2, 40800, Note_on_c, 9, 36, 33
2, 40800, Note_on_c, 9, 42, 33
2, 40801, Note_on_c, 9, 42, 0
2, 40801, Note_on_c, 9, 36, 0
2, 40801, Note_on_c, 9, 54, 22
2, 40801, Note_on_c, 9, 54, 0
2, 40810, Note_on_c, 0, 67, 0
2, 40811, Note_on_c, 0, 74, 0
2, 40815, Note_on_c, 0, 62, 0
2, 40825, Note_on_c, 0, 62, 17
2, 40826, Note_on_c, 0, 67, 19
2, 40826, Note_on_c, 0, 74, 19
2, 40830, Note_on_c, 1, 31, 0
2, 40830, Note_on_c, 9, 54, 18
2, 40830, Note_on_c, 9, 54, 0
2, 40845, Note_on_c, 0, 71, 0
2, 40855, Note_on_c, 0, 74, 0
2, 40855, Note_on_c, 0, 67, 0
2, 40855, Note_on_c, 1, 31, 27
2, 40855, Note_on_c, 0, 67, 20
2, 40855, Note_on_c, 0, 71, 19
2, 40855, Note_on_c, 0, 74, 19
2, 40855, Note_on_c, 4, 67, 21
2, 40860, Note_on_c, 9, 36, 21
2, 40860, Note_on_c, 9, 36, 0
2, 40860, Note_on_c, 9, 53, 21
2, 40860, Note_on_c, 9, 53, 0
2, 40860, Note_on_c, 9, 54, 18
2, 40860, Note_on_c, 9, 54, 0
2, 40860, Note_on_c, 9, 42, 16
2, 40860, Note_on_c, 9, 82, 13
2, 40861, Note_on_c, 9, 82, 0
2, 40861, Note_on_c, 9, 42, 0
2, 40870, Note_on_c, 4, 55, 0
2, 40880, Note_on_c, 0, 62, 0
2, 40881, Note_on_c, 0, 74, 0
2, 40881, Note_on_c, 0, 67, 0
2, 40886, Note_on_c, 0, 62, 17
2, 40886, Note_on_c, 0, 67, 18
2, 40886, Note_on_c, 0, 74, 18
2, 40890, Note_on_c, 1, 31, 0
2, 40890, Note_on_c, 9, 54, 17
2, 40890, Note_on_c, 9, 54, 0
2, 40890, Note_on_c, 9, 82, 18
2, 40891, Note_on_c, 9, 82, 0
2, 40911, Note_on_c, 0, 71, 0
2, 40916, Note_on_c, 0, 74, 0
2, 40916, Note_on_c, 0, 62, 0
2, 40916, Note_on_c, 1, 31, 24
2, 40916, Note_on_c, 0, 62, 18
2, 40916, Note_on_c, 0, 71, 22
2, 40916, Note_on_c, 0, 74, 22
2, 40916, Note_on_c, 4, 62, 17
2, 40920, Note_on_c, 9, 38, 26
2, 40920, Note_on_c, 9, 38, 0
2, 40920, Note_on_c, 9, 42, 28
2, 40920, Note_on_c, 9, 42, 0
2, 40920, Note_on_c, 9, 123, 22
2, 40920, Note_on_c, 9, 123, 0
2, 40920, Note_on_c, 9, 54, 19
2, 40920, Note_on_c, 9, 54, 0
2, 40945, Note_on_c, 4, 69, 19
2, 40950, Note_on_c, 9, 54, 15
2, 40951, Note_on_c, 9, 54, 0
2, 40965, Note_on_c, 4, 62, 0
2, 40970, Note_on_c, 0, 74, 0
2, 40976, Note_on_c, 0, 62, 0
2, 40976, Note_on_c, 0, 71, 0
2, 40976, Note_on_c, 0, 67, 0
2, 40980, Note_on_c, 9, 53, 17
2, 40981, Note_on_c, 9, 53, 0
2, 40981, Note_on_c, 1, 31, 0
2, 40981, Note_on_c, 9, 42, 10
2, 40981, Note_on_c, 9, 42, 0
2, 40981, Note_on_c, 9, 54, 12
2, 40981, Note_on_c, 9, 54, 0
2, 40981, Note_on_c, 9, 82, 12
2, 40981, Note_on_c, 9, 82, 0
2, 40995, Note_on_c, 4, 69, 0
2, 41000, Note_on_c, 4, 67, 0
2, 41005, Note_on_c, 1, 31, 23
2, 41005, Note_on_c, 0, 62, 15
2, 41005, Note_on_c, 0, 67, 16
2, 41005, Note_on_c, 0, 71, 15
2, 41005, Note_on_c, 0, 74, 18
2, 41005, Note_on_c, 4, 55, 18
2, 41010, Note_on_c, 9, 36, 23
2, 41011, Note_on_c, 9, 36, 0
2, 41011, Note_on_c, 9, 54, 11
2, 41011, Note_on_c, 9, 54, 0
2, 41011, Note_on_c, 9, 82, 11
2, 41011, Note_on_c, 9, 82, 0
2, 41025, Note_on_c, 0, 67, 0
2, 41031, Note_on_c, 0, 71, 0
2, 41031, Note_on_c, 0, 62, 0
2, 41035, Note_on_c, 1, 31, 0
2, 41036, Note_on_c, 0, 74, 0
2, 41036, Note_on_c, 4, 67, 15
2, 41041, Note_on_c, 9, 42, 24
2, 41041, Note_on_c, 9, 42, 0
2, 41041, Note_on_c, 9, 54, 15
2, 41041, Note_on_c, 9, 54, 0
2, 41065, Note_on_c, 1, 31, 15
2, 41065, Note_on_c, 0, 62, 11
2, 41066, Note_on_c, 0, 67, 11
2, 41066, Note_on_c, 0, 71, 12
2, 41066, Note_on_c, 0, 74, 15
2, 41066, Note_on_c, 4, 62, 9
2, 41070, Note_on_c, 9, 36, 8
2, 41070, Note_on_c, 9, 36, 0
2, 41070, Note_on_c, 9, 54, 11
2, 41071, Note_on_c, 9, 54, 0
2, 41080, Note_on_c, 1, 31, 0
2, 41096, Note_on_c, 0, 71, 0
2, 41096, Note_on_c, 0, 67, 0
2, 41096, Note_on_c, 0, 62, 0
2, 41096, Note_on_c, 1, 31, 19
2, 41096, Note_on_c, 0, 62, 13
2, 41096, Note_on_c, 0, 67, 13
2, 41096, Note_on_c, 0, 71, 13
2, 41100, Note_on_c, 9, 36, 22
2, 41100, Note_on_c, 9, 53, 15
2, 41101, Note_on_c, 9, 53, 0
2, 41101, Note_on_c, 9, 36, 0
2, 41101, Note_on_c, 9, 42, 8
2, 41101, Note_on_c, 9, 42, 0
2, 41101, Note_on_c, 9, 54, 9
2, 41101, Note_on_c, 9, 54, 0
2, 41101, Note_on_c, 9, 82, 11
2, 41101, Note_on_c, 9, 82, 0
2, 41120, Note_on_c, 0, 62, 0
2, 41120, Note_on_c, 0, 67, 0
2, 41125, Note_on_c, 0, 74, 0
2, 41125, Note_on_c, 0, 62, 14
2, 41125, Note_on_c, 0, 67, 14
2, 41125, Note_on_c, 0, 74, 14
2, 41125, Note_on_c, 4, 69, 14
2, 41130, Note_on_c, 1, 31, 0
2, 41130, Note_on_c, 9, 54, 10
2, 41130, Note_on_c, 9, 54, 0
2, 41130, Note_on_c, 9, 82, 9
2, 41131, Note_on_c, 9, 82, 0
2, 41135, Note_on_c, 4, 62, 0
2, 41150, Note_on_c, 0, 71, 0
2, 41155, Note_on_c, 0, 62, 0
2, 41155, Note_on_c, 0, 67, 0
2, 41156, Note_on_c, 0, 74, 0
2, 41156, Note_on_c, 1, 31, 18
2, 41156, Note_on_c, 0, 62, 15
2, 41156, Note_on_c, 0, 67, 15
2, 41156, Note_on_c, 0, 71, 14
2, 41156, Note_on_c, 0, 74, 13
2, 41160, Note_on_c, 9, 38, 19
2, 41161, Note_on_c, 9, 38, 0
2, 41161, Note_on_c, 9, 42, 20
2, 41161, Note_on_c, 9, 42, 0
2, 41161, Note_on_c, 9, 123, 15
2, 41161, Note_on_c, 9, 123, 0
2, 41161, Note_on_c, 9, 54, 14
2, 41161, Note_on_c, 9, 54, 0
2, 41185, Note_on_c, 4, 62, 10
2, 41190, Note_on_c, 4, 67, 0
2, 41190, Note_on_c, 9, 54, 4
2, 41190, Note_on_c, 9, 54, 0
2, 41200, Note_on_c, 1, 31, 0
2, 41210, Note_on_c, 0, 67, 0
2, 41210, Note_on_c, 0, 74, 0
2, 41210, Note_on_c, 0, 71, 0
2, 41216, Note_on_c, 0, 62, 0
2, 41216, Note_on_c, 1, 31, 11
2, 41216, Note_on_c, 4, 67, 11
2, 41221, Note_on_c, 9, 53, 12
2, 41221, Note_on_c, 9, 53, 0
2, 41221, Note_on_c, 9, 42, 6
2, 41221, Note_on_c, 9, 42, 0
2, 41221, Note_on_c, 9, 54, 7
2, 41221, Note_on_c, 9, 54, 0
2, 41221, Note_on_c, 9, 82, 8
2, 41221, Note_on_c, 9, 82, 0
2, 41226, Note_on_c, 4, 62, 0
2, 41230, Note_on_c, 1, 31, 0
2, 41241, Note_on_c, 4, 55, 0
2, 41246, Note_on_c, 1, 31, 12
2, 41246, Note_on_c, 4, 62, 10
2, 41250, Note_on_c, 9, 25, 10
2, 41250, Note_on_c, 9, 25, 0
2, 41250, Note_on_c, 9, 54, 6
2, 41250, Note_on_c, 9, 54, 0
2, 41250, Note_on_c, 9, 82, 8
2, 41250, Note_on_c, 9, 82, 0
2, 41265, Note_on_c, 1, 31, 0
2, 41265, Note_on_c, 4, 67, 0
2, 41271, Note_on_c, 4, 69, 0
2, 41271, Note_on_c, 4, 62, 0
2, 41275, Note_on_c, 1, 31, 15
2, 41275, Note_on_c, 0, 62, 10
2, 41275, Note_on_c, 0, 67, 9
2, 41276, Note_on_c, 0, 71, 10
2, 41276, Note_on_c, 0, 74, 10
2, 41276, Note_on_c, 4, 55, 12
2, 41280, Note_on_c, 9, 36, 15
2, 41281, Note_on_c, 9, 36, 0
2, 41281, Note_on_c, 9, 42, 17
2, 41281, Note_on_c, 9, 42, 0
2, 41281, Note_on_c, 9, 54, 12
2, 41281, Note_on_c, 9, 54, 0
2, 41301, Note_on_c, 0, 74, 0
2, 41301, Note_on_c, 0, 67, 0
2, 41301, Note_on_c, 0, 62, 0
2, 41306, Note_on_c, 1, 31, 0
2, 41306, Note_on_c, 0, 62, 8
2, 41306, Note_on_c, 0, 67, 10
2, 41306, Note_on_c, 0, 74, 10
2, 41310, Note_on_c, 9, 54, 6
2, 41311, Note_on_c, 9, 54, 0
2, 41330, Note_on_c, 0, 71, 0
2, 41335, Note_on_c, 0, 74, 0
2, 41335, Note_on_c, 0, 67, 0
2, 41335, Note_on_c, 1, 31, 12
2, 41335, Note_on_c, 0, 67, 9
2, 41335, Note_on_c, 0, 71, 9
2, 41335, Note_on_c, 0, 74, 9
2, 41335, Note_on_c, 4, 71, 10
2, 41340, Note_on_c, 9, 36, 13
2, 41340, Note_on_c, 9, 36, 0
2, 41340, Note_on_c, 9, 53, 9
2, 41340, Note_on_c, 9, 53, 0
2, 41340, Note_on_c, 9, 42, 7
2, 41340, Note_on_c, 9, 54, 6
2, 41340, Note_on_c, 9, 82, 6
2, 41341, Note_on_c, 9, 82, 0
2, 41341, Note_on_c, 9, 54, 0
2, 41341, Note_on_c, 9, 42, 0
2, 41360, Note_on_c, 0, 67, 0
2, 41360, Note_on_c, 0, 62, 0
2, 41361, Note_on_c, 0, 74, 0
2, 41365, Note_on_c, 1, 31, 0
2, 41365, Note_on_c, 0, 62, 8
2, 41366, Note_on_c, 0, 67, 9
2, 41366, Note_on_c, 0, 74, 9
2, 41371, Note_on_c, 9, 54, 5
2, 41371, Note_on_c, 9, 54, 0
2, 41371, Note_on_c, 9, 82, 6
2, 41371, Note_on_c, 9, 82, 0
2, 41390, Note_on_c, 0, 71, 0
2, 41395, Note_on_c, 0, 74, 0
2, 41395, Note_on_c, 0, 62, 0
2, 41395, Note_on_c, 1, 31, 12
2, 41395, Note_on_c, 0, 62, 9
2, 41396, Note_on_c, 0, 71, 10
2, 41396, Note_on_c, 0, 74, 10
2, 41396, Note_on_c, 4, 67, 8
2, 41400, Note_on_c, 9, 38, 12
2, 41401, Note_on_c, 9, 38, 0
2, 41401, Note_on_c, 9, 42, 13
2, 41401, Note_on_c, 9, 42, 0
2, 41401, Note_on_c, 9, 123, 10
2, 41401, Note_on_c, 9, 123, 0
2, 41401, Note_on_c, 9, 54, 11
2, 41401, Note_on_c, 9, 54, 0
2, 41425, Note_on_c, 4, 62, 9
2, 41431, Note_on_c, 9, 54, 5
2, 41431, Note_on_c, 9, 54, 0
2, 41455, Note_on_c, 0, 67, 0
2, 41456, Note_on_c, 0, 74, 0
2, 41456, Note_on_c, 0, 62, 0
2, 41456, Note_on_c, 0, 71, 0
2, 41460, Note_on_c, 9, 53, 6
2, 41461, Note_on_c, 9, 53, 0
2, 41461, Note_on_c, 9, 42, 5
2, 41461, Note_on_c, 9, 42, 0
2, 41461, Note_on_c, 9, 54, 4
2, 41461, Note_on_c, 9, 54, 0
2, 41461, Note_on_c, 9, 82, 4
2, 41461, Note_on_c, 9, 82, 0
2, 41465, Note_on_c, 4, 55, 0
2, 41465, Note_on_c, 1, 31, 0
2, 41476, Note_on_c, 4, 62, 0
2, 41485, Note_on_c, 4, 71, 0
2, 41485, Note_on_c, 1, 31, 8
2, 41485, Note_on_c, 0, 62, 6
2, 41486, Note_on_c, 0, 67, 6
2, 41486, Note_on_c, 0, 71, 5
2, 41486, Note_on_c, 0, 74, 7
2, 41486, Note_on_c, 4, 55, 6
2, 41490, Note_on_c, 9, 36, 9
2, 41490, Note_on_c, 9, 54, 3
2, 41491, Note_on_c, 9, 54, 0
2, 41491, Note_on_c, 4, 67, 0
2, 41491, Note_on_c, 9, 36, 0
2, 41491, Note_on_c, 9, 82, 4
2, 41491, Note_on_c, 9, 82, 0
2, 41506, Note_on_c, 0, 71, 0
2, 41506, Note_on_c, 0, 67, 0
2, 41510, Note_on_c, 0, 62, 0
2, 41515, Note_on_c, 0, 74, 0
2, 41515, Note_on_c, 4, 71, 6
2, 41520, Note_on_c, 1, 31, 0
2, 41520, Note_on_c, 9, 42, 10
2, 41520, Note_on_c, 9, 42, 0
2, 41520, Note_on_c, 9, 54, 7
2, 41520, Note_on_c, 9, 54, 0
2, 41545, Note_on_c, 1, 31, 7
2, 41545, Note_on_c, 0, 62, 4
2, 41545, Note_on_c, 0, 67, 4
2, 41546, Note_on_c, 0, 71, 4
2, 41546, Note_on_c, 0, 74, 5
2, 41550, Note_on_c, 9, 36, 2
2, 41551, Note_on_c, 9, 36, 0
2, 41551, Note_on_c, 9, 54, 3
2, 41551, Note_on_c, 9, 54, 0
2, 41565, Note_on_c, 1, 31, 0
2, 41570, Note_on_c, 0, 62, 0
2, 41571, Note_on_c, 0, 71, 0
2, 41571, Note_on_c, 0, 67, 0
2, 41576, Note_on_c, 1, 31, 6
2, 41576, Note_on_c, 0, 62, 4
2, 41576, Note_on_c, 0, 67, 4
2, 41576, Note_on_c, 0, 71, 4
2, 41576, Note_on_c, 4, 67, 4
2, 41580, Note_on_c, 9, 36, 7
2, 41580, Note_on_c, 9, 36, 0
2, 41580, Note_on_c, 9, 53, 4
2, 41580, Note_on_c, 9, 53, 0
2, 41580, Note_on_c, 9, 42, 3
2, 41580, Note_on_c, 9, 54, 2
2, 41580, Note_on_c, 9, 82, 3
2, 41581, Note_on_c, 9, 82, 0
2, 41581, Note_on_c, 9, 54, 0
2, 41581, Note_on_c, 9, 42, 0
2, 41605, Note_on_c, 0, 74, 0
2, 41606, Note_on_c, 0, 67, 0
2, 41606, Note_on_c, 0, 62, 0
2, 41606, Note_on_c, 0, 62, 3
2, 41606, Note_on_c, 0, 67, 4
2, 41606, Note_on_c, 0, 74, 3
2, 41606, Note_on_c, 4, 62, 4
2, 41610, Note_on_c, 9, 54, 2
2, 41611, Note_on_c, 9, 54, 0
2, 41611, Note_on_c, 1, 31, 0
2, 41611, Note_on_c, 9, 82, 2
2, 41611, Note_on_c, 9, 82, 0
2, 41631, Note_on_c, 0, 67, 0
2, 41631, Note_on_c, 0, 74, 0
2, 41636, Note_on_c, 0, 71, 0
2, 41636, Note_on_c, 0, 62, 0
2, 41636, Note_on_c, 1, 31, 5
2, 41636, Note_on_c, 0, 62, 4
2, 41636, Note_on_c, 0, 67, 4
2, 41636, Note_on_c, 0, 71, 4
2, 41636, Note_on_c, 0, 74, 4
2, 41641, Note_on_c, 9, 38, 4
2, 41641, Note_on_c, 9, 38, 0
2, 41641, Note_on_c, 9, 42, 4
2, 41641, Note_on_c, 9, 42, 0
2, 41641, Note_on_c, 9, 123, 3
2, 41641, Note_on_c, 9, 123, 0
2, 41641, Note_on_c, 9, 54, 3
2, 41641, Note_on_c, 9, 54, 0
2, 41645, Note_on_c, 4, 67, 0
2, 41666, Note_on_c, 4, 67, 2
2, 41670, Note_on_c, 4, 71, 0
2, 41670, Note_on_c, 9, 54, 2
2, 41670, Note_on_c, 9, 54, 0
2, 41675, Note_on_c, 1, 31, 0
2, 41680, Note_on_c, 4, 62, 0
2, 41691, Note_on_c, 0, 67, 0
2, 41691, Note_on_c, 0, 71, 0
2, 41691, Note_on_c, 0, 74, 0
2, 41695, Note_on_c, 0, 62, 0
2, 41695, Note_on_c, 1, 31, 2
2, 41695, Note_on_c, 4, 71, 2
2, 41700, Note_on_c, 4, 67, 0
2, 41700, Note_on_c, 9, 53, 2
2, 41700, Note_on_c, 9, 42, 2
2, 41701, Note_on_c, 9, 42, 0
2, 41701, Note_on_c, 9, 53, 0
2, 41701, Note_on_c, 9, 54, 1
2, 41701, Note_on_c, 9, 54, 0
2, 41701, Note_on_c, 9, 82, 1
2, 41701, Note_on_c, 9, 82, 0
2, 41710, Note_on_c, 1, 31, 0
2, 41725, Note_on_c, 1, 31, 2
2, 41725, Note_on_c, 4, 67, 1
2, 41730, Note_on_c, 9, 54, 0
2, 41730, Note_on_c, 9, 54, 0
2, 41730, Note_on_c, 9, 54, 0
2, 41730, Note_on_c, 9, 54, 0
2, 41730, Note_on_c, 9, 54, 0
2, 41730, Note_on_c, 9, 54, 0
2, 41730, Note_on_c, 9, 54, 0
2, 41730, Note_on_c, 9, 54, 0
2, 41730, Note_on_c, 9, 82, 1
2, 41731, Note_on_c, 9, 82, 0
2, 41731, Note_on_c, 9, 54, 0
2, 41731, Note_on_c, 9, 54, 0
2, 41731, Note_on_c, 9, 54, 0
2, 41731, Note_on_c, 9, 54, 0
2, 41731, Note_on_c, 9, 54, 0
2, 41731, Note_on_c, 9, 54, 0
2, 41731, Note_on_c, 9, 54, 0
2, 41731, Note_on_c, 9, 54, 0
2, 41735, Note_on_c, 4, 55, 0
2, 41750, Note_on_c, 4, 71, 0
2, 41755, Note_on_c, 1, 31, 0
2, 41755, Note_on_c, 4, 67, 0
2, 41756, Note_on_c, 6, 62, 0
2, 41756, Note_on_c, 6, 67, 0
2, 41756, Note_on_c, 6, 71, 0
2, 41756, Control_c, 9, 0, 7
2, 41757, Control_c, 9, 32, 51
2, 41758, Program_c, 9, 9
2, 41758, Control_c, 9, 0, 0
2, 41758, Control_c, 9, 32, 3
2, 41759, Program_c, 9, 8
2, 41759, Control_c, 1, 0, 0
2, 41759, Control_c, 1, 32, 1
2, 41759, Program_c, 1, 33
2, 41759, Note_on_c, 1, 31, 1
2, 41759, Control_c, 0, 0, 0
2, 41759, Control_c, 0, 32, 3
2, 41792, Note_on_c, 1, 31, 0
2, 41792, End_track
3, 0, Start_track
3, 0, Title_t, "Guitar Riff"
3, 0, Program_c, 15, 30
3, 0, Control_c, 15, 7, 120
3, 482, Note_on_c, 15, 67, 127
3, 482, Note_on_c, 15, 67, 70
3, 483, Note_on_c, 15, 74, 77
3, 483, Note_on_c, 15, 71, 73
3, 825, Note_on_c, 15, 67, 0
3, 832, Note_on_c, 15, 69, 118
3, 851, Note_on_c, 15, 69, 0
3, 861, Note_on_c, 15, 71, 127
3, 905, Note_on_c, 15, 67, 0
3, 910, Note_on_c, 15, 71, 0
3, 912, Note_on_c, 15, 74, 0
3, 955, Note_on_c, 15, 71, 0
3, 959, Note_on_c, 15, 67, 118
3, 960, Note_on_c, 15, 71, 83
3, 961, Note_on_c, 15, 74, 77
3, 961, Note_on_c, 15, 67, 77
3, 1314, Note_on_c, 15, 67, 0
3, 1316, Note_on_c, 15, 69, 118
3, 1335, Note_on_c, 15, 69, 0
3, 1381, Note_on_c, 15, 71, 127
3, 1401, Note_on_c, 15, 67, 0
3, 1402, Note_on_c, 15, 71, 0
3, 1404, Note_on_c, 15, 74, 0
3, 1404, Note_on_c, 15, 71, 0
3, 1442, Note_on_c, 15, 69, 127
3, 1449, Note_on_c, 15, 76, 83
3, 1449, Note_on_c, 15, 69, 77
3, 1450, Note_on_c, 15, 72, 92
3, 1779, Note_on_c, 15, 69, 0
3, 1799, Note_on_c, 15, 72, 127
3, 1823, Note_on_c, 15, 72, 0
3, 1861, Note_on_c, 15, 71, 127
3, 1881, Note_on_c, 15, 71, 0
3, 1888, Note_on_c, 15, 69, 0
3, 1889, Note_on_c, 15, 76, 0
3, 1890, Note_on_c, 15, 72, 0
3, 1921, Note_on_c, 15, 69, 127
3, 1930, Note_on_c, 15, 72, 92
3, 1931, Note_on_c, 15, 69, 77
3, 1931, Note_on_c, 15, 76, 83
3, 2233, Note_on_c, 15, 69, 0
3, 2274, Note_on_c, 15, 69, 127
3, 2294, Note_on_c, 15, 69, 0
3, 2304, Note_on_c, 15, 71, 127
3, 2341, Note_on_c, 15, 76, 0
3, 2342, Note_on_c, 15, 72, 0
3, 2346, Note_on_c, 15, 69, 0
3, 2364, Note_on_c, 15, 71, 0
3, 2401, Note_on_c, 15, 66, 91
3, 2401, Note_on_c, 15, 62, 77
3, 2403, Note_on_c, 15, 69, 73
3, 2409, Note_on_c, 15, 69, 118
3, 2710, Note_on_c, 15, 69, 0
3, 2756, Note_on_c, 15, 69, 127
3, 2776, Note_on_c, 15, 69, 0
3, 2786, Note_on_c, 15, 71, 127
3, 2815, Note_on_c, 15, 62, 0
3, 2817, Note_on_c, 15, 66, 0
3, 2820, Note_on_c, 15, 69, 0
3, 2846, Note_on_c, 15, 71, 0
3, 2876, Note_on_c, 15, 62, 77
3, 2877, Note_on_c, 15, 66, 91
3, 2878, Note_on_c, 15, 69, 73
3, 2880, Note_on_c, 15, 69, 127
3, 3198, Note_on_c, 15, 69, 0
3, 3236, Note_on_c, 15, 69, 118
3, 3257, Note_on_c, 15, 69, 0
3, 3266, Note_on_c, 15, 71, 127
3, 3304, Note_on_c, 15, 62, 0
3, 3311, Note_on_c, 15, 66, 0
3, 3315, Note_on_c, 15, 69, 0
3, 3356, Note_on_c, 15, 71, 0
3, 3362, Note_on_c, 15, 67, 118
3, 3367, Note_on_c, 15, 67, 73
3, 3367, Note_on_c, 15, 74, 77
3, 3368, Note_on_c, 15, 71, 83
3, 3691, Note_on_c, 15, 67, 0
3, 3720, Note_on_c, 15, 69, 127
3, 3738, Note_on_c, 15, 69, 0
3, 3749, Note_on_c, 15, 71, 118
3, 3798, Note_on_c, 15, 71, 0
3, 3798, Note_on_c, 15, 67, 0
3, 3800, Note_on_c, 15, 74, 0
3, 3808, Note_on_c, 15, 71, 0
3, 3835, Note_on_c, 15, 74, 73
3, 3835, Note_on_c, 15, 67, 77
3, 3836, Note_on_c, 15, 71, 83
3, 3843, Note_on_c, 15, 67, 127
3, 4103, Note_on_c, 15, 67, 0
3, 4204, Note_on_c, 15, 64, 118
3, 4256, Note_on_c, 15, 67, 0
3, 4256, Note_on_c, 15, 71, 0
3, 4257, Note_on_c, 15, 74, 0
3, 4262, Note_on_c, 15, 67, 118
3, 4264, Note_on_c, 15, 64, 0
3, 4274, Note_on_c, 15, 67, 0
3, 4313, Note_on_c, 15, 74, 77
3, 4314, Note_on_c, 15, 67, 77
3, 4314, Note_on_c, 15, 71, 92
3, 4325, Note_on_c, 15, 67, 127
3, 4669, Note_on_c, 15, 67, 0
3, 4685, Note_on_c, 15, 69, 118
3, 4704, Note_on_c, 15, 69, 0
3, 4710, Note_on_c, 15, 71, 127
3, 4749, Note_on_c, 15, 71, 0
3, 4750, Note_on_c, 15, 67, 0
3, 4750, Note_on_c, 15, 74, 0
3, 4796, Note_on_c, 15, 71, 0
3, 4801, Note_on_c, 15, 67, 127
3, 4802, Note_on_c, 15, 74, 77
3, 4802, Note_on_c, 15, 67, 77
3, 4802, Note_on_c, 15, 71, 83
3, 5149, Note_on_c, 15, 67, 0
3, 5165, Note_on_c, 15, 69, 127
3, 5184, Note_on_c, 15, 69, 0
3, 5192, Note_on_c, 15, 71, 127
3, 5234, Note_on_c, 15, 67, 0
3, 5235, Note_on_c, 15, 71, 0
3, 5238, Note_on_c, 15, 74, 0
3, 5265, Note_on_c, 15, 71, 0
3, 5278, Note_on_c, 15, 69, 127
3, 5285, Note_on_c, 15, 69, 77
3, 5285, Note_on_c, 15, 76, 77
3, 5286, Note_on_c, 15, 72, 83
3, 5631, Note_on_c, 15, 69, 0
3, 5643, Note_on_c, 15, 72, 118
3, 5672, Note_on_c, 15, 71, 127
3, 5675, Note_on_c, 15, 72, 0
3, 5728, Note_on_c, 15, 69, 0
3, 5729, Note_on_c, 15, 72, 0
3, 5729, Note_on_c, 15, 76, 0
3, 5736, Note_on_c, 15, 71, 0
3, 5762, Note_on_c, 15, 69, 118
3, 5767, Note_on_c, 15, 69, 77
3, 5767, Note_on_c, 15, 76, 73
3, 5768, Note_on_c, 15, 72, 83
3, 6089, Note_on_c, 15, 69, 0
3, 6121, Note_on_c, 15, 69, 127
3, 6141, Note_on_c, 15, 69, 0
3, 6152, Note_on_c, 15, 71, 118
3, 6179, Note_on_c, 15, 76, 0
3, 6180, Note_on_c, 15, 72, 0
3, 6186, Note_on_c, 15, 69, 0
3, 6220, Note_on_c, 15, 71, 0
3, 6238, Note_on_c, 15, 69, 118
3, 6248, Note_on_c, 15, 62, 70
3, 6248, Note_on_c, 15, 66, 79
3, 6250, Note_on_c, 15, 69, 73
3, 6550, Note_on_c, 15, 69, 0
3, 6603, Note_on_c, 15, 69, 127
3, 6623, Note_on_c, 15, 69, 0
3, 6628, Note_on_c, 15, 71, 118
3, 6664, Note_on_c, 15, 71, 0
3, 6665, Note_on_c, 15, 62, 0
3, 6666, Note_on_c, 15, 69, 0
3, 6667, Note_on_c, 15, 66, 0
3, 6721, Note_on_c, 15, 69, 127
3, 6723, Note_on_c, 15, 62, 70
3, 6724, Note_on_c, 15, 66, 91
3, 6725, Note_on_c, 15, 69, 73
3, 7049, Note_on_c, 15, 69, 0
3, 7084, Note_on_c, 15, 69, 118
3, 7107, Note_on_c, 15, 69, 0
3, 7112, Note_on_c, 15, 71, 118
3, 7141, Note_on_c, 15, 62, 0
3, 7142, Note_on_c, 15, 66, 0
3, 7148, Note_on_c, 15, 69, 0
3, 7188, Note_on_c, 15, 71, 0
3, 7195, Note_on_c, 15, 67, 118
3, 7199, Note_on_c, 15, 67, 67
3, 7200, Note_on_c, 15, 71, 77
3, 7201, Note_on_c, 15, 74, 70
3, 7516, Note_on_c, 15, 67, 0
3, 7558, Note_on_c, 15, 69, 118
3, 7578, Note_on_c, 15, 69, 0
3, 7618, Note_on_c, 15, 71, 127
3, 7628, Note_on_c, 15, 71, 0
3, 7629, Note_on_c, 15, 67, 0
3, 7632, Note_on_c, 15, 74, 0
3, 7641, Note_on_c, 15, 71, 0
3, 7682, Note_on_c, 15, 67, 118
3, 7684, Note_on_c, 15, 67, 70
3, 7684, Note_on_c, 15, 71, 77
3, 7685, Note_on_c, 15, 74, 73
3, 8041, Note_on_c, 15, 67, 0
3, 8043, Note_on_c, 15, 64, 118
3, 8104, Note_on_c, 15, 67, 118
3, 8111, Note_on_c, 15, 64, 0
3, 8114, Note_on_c, 15, 71, 0
3, 8117, Note_on_c, 15, 74, 0
3, 8119, Note_on_c, 15, 67, 0
3, 8123, Note_on_c, 15, 67, 0
3, 8164, Note_on_c, 15, 74, 58
3, 8165, Note_on_c, 15, 71, 66
3, 8165, Note_on_c, 15, 67, 56
3, 8169, Note_on_c, 15, 67, 101
3, 8526, Note_on_c, 15, 69, 82
3, 8527, Note_on_c, 15, 71, 61
3, 8530, Note_on_c, 15, 67, 0
3, 8531, Note_on_c, 15, 71, 0
3, 8548, Note_on_c, 15, 69, 0
3, 8549, Note_on_c, 15, 71, 82
3, 8584, Note_on_c, 15, 67, 0
3, 8584, Note_on_c, 15, 71, 0
3, 8586, Note_on_c, 15, 74, 0
3, 8641, Note_on_c, 15, 71, 0
3, 8644, Note_on_c, 15, 74, 61
3, 8644, Note_on_c, 15, 67, 61
3, 8644, Note_on_c, 15, 71, 73
3, 8645, Note_on_c, 15, 67, 101
3, 8983, Note_on_c, 15, 67, 0
3, 9002, Note_on_c, 15, 69, 101
3, 9022, Note_on_c, 15, 69, 0
3, 9029, Note_on_c, 15, 71, 94
3, 9072, Note_on_c, 15, 67, 0
3, 9074, Note_on_c, 15, 71, 0
3, 9077, Note_on_c, 15, 74, 0
3, 9114, Note_on_c, 15, 71, 0
3, 9122, Note_on_c, 15, 69, 94
3, 9123, Note_on_c, 15, 76, 61
3, 9123, Note_on_c, 15, 69, 61
3, 9124, Note_on_c, 15, 72, 73
3, 9445, Note_on_c, 15, 69, 0
3, 9483, Note_on_c, 15, 72, 94
3, 9510, Note_on_c, 15, 71, 82
3, 9518, Note_on_c, 15, 72, 0
3, 9561, Note_on_c, 15, 72, 0
3, 9561, Note_on_c, 15, 76, 0
3, 9562, Note_on_c, 15, 69, 0
3, 9573, Note_on_c, 15, 71, 0
3, 9573, Note_on_c, 15, 69, 82
3, 9602, Note_on_c, 15, 69, 61
3, 9602, Note_on_c, 15, 72, 66
3, 9602, Note_on_c, 15, 76, 58
3, 9932, Note_on_c, 15, 69, 0
3, 9963, Note_on_c, 15, 69, 101
3, 9995, Note_on_c, 15, 71, 73
3, 10005, Note_on_c, 15, 69, 0
3, 10039, Note_on_c, 15, 72, 0
3, 10040, Note_on_c, 15, 76, 0
3, 10041, Note_on_c, 15, 69, 0
3, 10082, Note_on_c, 15, 71, 0
3, 10083, Note_on_c, 15, 74, 56
3, 10083, Note_on_c, 15, 67, 61
3, 10083, Note_on_c, 15, 71, 61
3, 10085, Note_on_c, 15, 67, 94
3, 10445, Note_on_c, 15, 69, 94
3, 10451, Note_on_c, 15, 67, 0
3, 10470, Note_on_c, 15, 69, 0
3, 10471, Note_on_c, 15, 71, 94
3, 10517, Note_on_c, 15, 71, 0
3, 10519, Note_on_c, 15, 67, 0
3, 10519, Note_on_c, 15, 74, 0
3, 10564, Note_on_c, 15, 67, 61
3, 10564, Note_on_c, 15, 74, 58
3, 10565, Note_on_c, 15, 71, 73
3, 10566, Note_on_c, 15, 71, 0
3, 10567, Note_on_c, 15, 67, 101
3, 10918, Note_on_c, 15, 67, 0
3, 10922, Note_on_c, 15, 64, 94
3, 10978, Note_on_c, 15, 71, 0
3, 10979, Note_on_c, 15, 67, 0
3, 10979, Note_on_c, 15, 74, 0
3, 10984, Note_on_c, 15, 67, 82
3, 10986, Note_on_c, 15, 64, 0
3, 10999, Note_on_c, 15, 67, 0
3, 11038, Note_on_c, 15, 74, 58
3, 11038, Note_on_c, 15, 67, 58
3, 11039, Note_on_c, 15, 71, 66
3, 11048, Note_on_c, 15, 67, 94
3, 11394, Note_on_c, 15, 67, 0
3, 11397, Note_on_c, 15, 69, 94
3, 11417, Note_on_c, 15, 69, 0
3, 11461, Note_on_c, 15, 71, 101
3, 11463, Note_on_c, 15, 67, 0
3, 11463, Note_on_c, 15, 74, 0
3, 11463, Note_on_c, 15, 71, 0
3, 11482, Note_on_c, 15, 71, 0
3, 11523, Note_on_c, 15, 67, 101
3, 11524, Note_on_c, 15, 67, 61
3, 11524, Note_on_c, 15, 74, 61
3, 11525, Note_on_c, 15, 71, 66
3, 11884, Note_on_c, 15, 69, 101
3, 11888, Note_on_c, 15, 67, 0
3, 11907, Note_on_c, 15, 69, 0
3, 11916, Note_on_c, 15, 71, 101
3, 11954, Note_on_c, 15, 67, 0
3, 11956, Note_on_c, 15, 71, 0
3, 11957, Note_on_c, 15, 74, 0
3, 11992, Note_on_c, 15, 71, 0
3, 12000, Note_on_c, 15, 69, 101
3, 12004, Note_on_c, 15, 76, 61
3, 12004, Note_on_c, 15, 69, 58
3, 12005, Note_on_c, 15, 72, 66
3, 12348, Note_on_c, 15, 69, 0
3, 12365, Note_on_c, 15, 72, 101
3, 12392, Note_on_c, 15, 71, 94
3, 12399, Note_on_c, 15, 72, 0
3, 12445, Note_on_c, 15, 72, 0
3, 12445, Note_on_c, 15, 69, 0
3, 12446, Note_on_c, 15, 76, 0
3, 12485, Note_on_c, 15, 71, 0
3, 12485, Note_on_c, 15, 69, 94
3, 12489, Note_on_c, 15, 69, 61
3, 12489, Note_on_c, 15, 76, 58
3, 12490, Note_on_c, 15, 72, 66
3, 12808, Note_on_c, 15, 69, 0
3, 12840, Note_on_c, 15, 69, 82
3, 12865, Note_on_c, 15, 69, 0
3, 12869, Note_on_c, 15, 71, 94
3, 12918, Note_on_c, 15, 76, 0
3, 12919, Note_on_c, 15, 72, 0
3, 12920, Note_on_c, 15, 69, 0
3, 12955, Note_on_c, 15, 71, 0
3, 12963, Note_on_c, 15, 67, 94
3, 12965, Note_on_c, 15, 74, 58
3, 12965, Note_on_c, 15, 67, 58
3, 12966, Note_on_c, 15, 71, 66
3, 13267, Note_on_c, 15, 67, 0
3, 13322, Note_on_c, 15, 69, 94
3, 13340, Note_on_c, 15, 69, 0
3, 13352, Note_on_c, 15, 71, 94
3, 13395, Note_on_c, 15, 74, 0
3, 13395, Note_on_c, 15, 67, 0
3, 13396, Note_on_c, 15, 71, 0
3, 13404, Note_on_c, 15, 71, 0
3, 13433, Note_on_c, 15, 67, 101
3, 13446, Note_on_c, 15, 74, 58
3, 13447, Note_on_c, 15, 67, 58
3, 13448, Note_on_c, 15, 71, 61
3, 13800, Note_on_c, 15, 67, 0
3, 13802, Note_on_c, 15, 69, 94
3, 13822, Note_on_c, 15, 69, 0
3, 13859, Note_on_c, 15, 71, 101
3, 13864, Note_on_c, 15, 67, 0
3, 13866, Note_on_c, 15, 71, 0
3, 13867, Note_on_c, 15, 74, 0
3, 13878, Note_on_c, 15, 71, 0
3, 13925, Note_on_c, 15, 72, 83
3, 13925, Note_on_c, 15, 69, 73
3, 13925, Note_on_c, 15, 76, 73
3, 13926, Note_on_c, 15, 69, 127
3, 13994, Note_on_c, 15, 69, 0
3, 14017, Note_on_c, 15, 71, 118
3, 14081, Note_on_c, 15, 71, 0
3, 14105, Note_on_c, 15, 69, 127
3, 14176, Note_on_c, 15, 76, 0
3, 14179, Note_on_c, 15, 72, 0
3, 14180, Note_on_c, 15, 69, 0
3, 14194, Note_on_c, 15, 69, 0
3, 14224, Note_on_c, 15, 67, 77
3, 14224, Note_on_c, 15, 74, 73
3, 14225, Note_on_c, 15, 71, 77
3, 14226, Note_on_c, 15, 67, 118
3, 14247, Note_on_c, 15, 67, 0
3, 14249, Note_on_c, 15, 71, 0
3, 14250, Note_on_c, 15, 74, 0
3, 14251, Note_on_c, 15, 67, 0
3, 14287, Note_on_c, 15, 67, 83
3, 14288, Note_on_c, 15, 67, 118
3, 14288, Note_on_c, 15, 74, 83
3, 14289, Note_on_c, 15, 71, 92
3, 14345, Note_on_c, 15, 67, 0
3, 14352, Note_on_c, 15, 67, 0
3, 14354, Note_on_c, 15, 74, 0
3, 14354, Note_on_c, 15, 71, 0
3, 14402, Note_on_c, 15, 69, 118
3, 14406, Note_on_c, 15, 76, 83
3, 14406, Note_on_c, 15, 69, 83
3, 14406, Note_on_c, 15, 72, 103
3, 14475, Note_on_c, 15, 69, 0
3, 14496, Note_on_c, 15, 71, 127
3, 14560, Note_on_c, 15, 71, 0
3, 14586, Note_on_c, 15, 69, 127
3, 14659, Note_on_c, 15, 76, 0
3, 14660, Note_on_c, 15, 72, 0
3, 14662, Note_on_c, 15, 69, 0
3, 14667, Note_on_c, 15, 69, 0
3, 14700, Note_on_c, 15, 67, 127
3, 14702, Note_on_c, 15, 67, 73
3, 14702, Note_on_c, 15, 71, 77
3, 14703, Note_on_c, 15, 74, 70
3, 14724, Note_on_c, 15, 67, 0
3, 14728, Note_on_c, 15, 74, 0
3, 14728, Note_on_c, 15, 71, 0
3, 14731, Note_on_c, 15, 67, 0
3, 14764, Note_on_c, 15, 67, 127
3, 14764, Note_on_c, 15, 74, 83
3, 14764, Note_on_c, 15, 67, 92
3, 14765, Note_on_c, 15, 71, 92
3, 14798, Note_on_c, 15, 67, 0
3, 14809, Note_on_c, 15, 74, 0
3, 14809, Note_on_c, 15, 71, 0
3, 14810, Note_on_c, 15, 67, 0
3, 14820, Note_on_c, 15, 69, 127
3, 14838, Note_on_c, 15, 69, 0
3, 14850, Note_on_c, 15, 71, 127
3, 14871, Note_on_c, 15, 71, 0
3, 14886, Note_on_c, 15, 67, 118
3, 14886, Note_on_c, 15, 74, 83
3, 14886, Note_on_c, 15, 67, 83
3, 14887, Note_on_c, 15, 71, 103
3, 15266, Note_on_c, 15, 67, 0
3, 15300, Note_on_c, 15, 69, 127
3, 15306, Note_on_c, 15, 74, 0
3, 15309, Note_on_c, 15, 71, 0
3, 15310, Note_on_c, 15, 67, 0
3, 15318, Note_on_c, 15, 69, 0
3, 15330, Note_on_c, 15, 71, 127
3, 15351, Note_on_c, 15, 71, 0
3, 15361, Note_on_c, 15, 67, 118
3, 15363, Note_on_c, 15, 67, 83
3, 15364, Note_on_c, 15, 74, 83
3, 15364, Note_on_c, 15, 71, 83
3, 15690, Note_on_c, 15, 67, 0
3, 15713, Note_on_c, 15, 69, 127
3, 15739, Note_on_c, 15, 69, 0
3, 15775, Note_on_c, 15, 71, 127
3, 15797, Note_on_c, 15, 71, 0
3, 15799, Note_on_c, 15, 67, 0
3, 15799, Note_on_c, 15, 74, 0
3, 15799, Note_on_c, 15, 71, 0
3, 15842, Note_on_c, 15, 69, 127
3, 15842, Note_on_c, 15, 69, 83
3, 15842, Note_on_c, 15, 76, 77
3, 15843, Note_on_c, 15, 72, 92
3, 15912, Note_on_c, 15, 69, 0
3, 15937, Note_on_c, 15, 71, 127
3, 16002, Note_on_c, 15, 71, 0
3, 16026, Note_on_c, 15, 69, 118
3, 16078, Note_on_c, 15, 72, 0
3, 16079, Note_on_c, 15, 76, 0
3, 16081, Note_on_c, 15, 69, 0
3, 16120, Note_on_c, 15, 69, 0
3, 16140, Note_on_c, 15, 67, 73
3, 16141, Note_on_c, 15, 74, 77
3, 16141, Note_on_c, 15, 71, 83
3, 16146, Note_on_c, 15, 67, 118
3, 16165, Note_on_c, 15, 71, 0
3, 16166, Note_on_c, 15, 74, 0
3, 16167, Note_on_c, 15, 67, 0
3, 16169, Note_on_c, 15, 67, 0
3, 16204, Note_on_c, 15, 67, 118
3, 16207, Note_on_c, 15, 67, 83
3, 16208, Note_on_c, 15, 74, 83
3, 16209, Note_on_c, 15, 71, 83
3, 16257, Note_on_c, 15, 67, 0
3, 16258, Note_on_c, 15, 71, 0
3, 16258, Note_on_c, 15, 74, 0
3, 16266, Note_on_c, 15, 67, 0
3, 16321, Note_on_c, 15, 76, 92
3, 16321, Note_on_c, 15, 69, 83
3, 16322, Note_on_c, 15, 72, 103
3, 16323, Note_on_c, 15, 69, 118
3, 16401, Note_on_c, 15, 69, 0
3, 16420, Note_on_c, 15, 71, 127
3, 16477, Note_on_c, 15, 71, 0
3, 16503, Note_on_c, 15, 69, 127
3, 16580, Note_on_c, 15, 72, 0
3, 16581, Note_on_c, 15, 76, 0
3, 16584, Note_on_c, 15, 69, 0
3, 16597, Note_on_c, 15, 69, 0
3, 16620, Note_on_c, 15, 67, 118
3, 16626, Note_on_c, 15, 67, 83
3, 16626, Note_on_c, 15, 74, 77
3, 16627, Note_on_c, 15, 71, 92
3, 16645, Note_on_c, 15, 67, 0
3, 16646, Note_on_c, 15, 71, 0
3, 16648, Note_on_c, 15, 67, 0
3, 16649, Note_on_c, 15, 74, 0
3, 16679, Note_on_c, 15, 67, 118
3, 16686, Note_on_c, 15, 74, 92
3, 16686, Note_on_c, 15, 67, 83
3, 16686, Note_on_c, 15, 71, 103
3, 16719, Note_on_c, 15, 67, 0
3, 16731, Note_on_c, 15, 74, 0
3, 16731, Note_on_c, 15, 67, 0
3, 16731, Note_on_c, 15, 71, 0
3, 16751, Note_on_c, 15, 69, 118
3, 16777, Note_on_c, 15, 71, 103
3, 16785, Note_on_c, 15, 69, 0
3, 16804, Note_on_c, 15, 67, 83
3, 16804, Note_on_c, 15, 74, 92
3, 16804, Note_on_c, 15, 71, 103
3, 16807, Note_on_c, 15, 71, 0
3, 16810, Note_on_c, 15, 67, 103
3, 17116, Note_on_c, 15, 67, 0
3, 17152, Note_on_c, 15, 69, 118
3, 17171, Note_on_c, 15, 69, 0
3, 17185, Note_on_c, 15, 71, 118
3, 17239, Note_on_c, 15, 71, 0
3, 17241, Note_on_c, 15, 74, 0
3, 17242, Note_on_c, 15, 67, 0
3, 17242, Note_on_c, 15, 71, 0
3, 17282, Note_on_c, 15, 74, 77
3, 17282, Note_on_c, 15, 67, 83
3, 17283, Note_on_c, 15, 67, 118
3, 17283, Note_on_c, 15, 71, 92
3, 17692, Note_on_c, 15, 67, 0
3, 17704, Note_on_c, 15, 67, 0
3, 17705, Note_on_c, 15, 74, 0
3, 17705, Note_on_c, 15, 71, 0
3, 17758, Note_on_c, 15, 76, 73
3, 17760, Note_on_c, 15, 72, 70
3, 17760, Note_on_c, 15, 69, 77
3, 18190, Note_on_c, 15, 76, 0
3, 18197, Note_on_c, 15, 72, 0
3, 18198, Note_on_c, 15, 69, 0
3, 18246, Note_on_c, 15, 62, 92
3, 18247, Note_on_c, 15, 66, 91
3, 18248, Note_on_c, 15, 69, 77
3, 18686, Note_on_c, 15, 66, 0
3, 18692, Note_on_c, 15, 62, 0
3, 18697, Note_on_c, 15, 69, 0
3, 18722, Note_on_c, 15, 71, 92
3, 18723, Note_on_c, 15, 64, 83
3, 18723, Note_on_c, 15, 67, 77
3, 19199, Note_on_c, 15, 67, 0
3, 19202, Note_on_c, 15, 67, 73
3, 19203, Note_on_c, 15, 64, 0
3, 19203, Note_on_c, 15, 71, 0
3, 19203, Note_on_c, 15, 74, 77
3, 19203, Note_on_c, 15, 71, 83
3, 19205, Note_on_c, 15, 67, 127
3, 19549, Note_on_c, 15, 67, 0
3, 19565, Note_on_c, 15, 69, 118
3, 19584, Note_on_c, 15, 69, 0
3, 19590, Note_on_c, 15, 71, 127
3, 19628, Note_on_c, 15, 74, 0
3, 19629, Note_on_c, 15, 67, 0
3, 19631, Note_on_c, 15, 71, 0
3, 19676, Note_on_c, 15, 71, 0
3, 19678, Note_on_c, 15, 74, 70
3, 19678, Note_on_c, 15, 67, 77
3, 19678, Note_on_c, 15, 71, 83
3, 19681, Note_on_c, 15, 67, 127
3, 20029, Note_on_c, 15, 67, 0
3, 20045, Note_on_c, 15, 69, 127
3, 20064, Note_on_c, 15, 69, 0
3, 20072, Note_on_c, 15, 71, 127
3, 20109, Note_on_c, 15, 71, 0
3, 20110, Note_on_c, 15, 67, 0
3, 20112, Note_on_c, 15, 74, 0
3, 20145, Note_on_c, 15, 71, 0
3, 20158, Note_on_c, 15, 69, 77
3, 20158, Note_on_c, 15, 69, 127
3, 20159, Note_on_c, 15, 76, 73
3, 20159, Note_on_c, 15, 72, 92
3, 20511, Note_on_c, 15, 69, 0
3, 20523, Note_on_c, 15, 72, 118
3, 20552, Note_on_c, 15, 71, 127
3, 20555, Note_on_c, 15, 72, 0
3, 20582, Note_on_c, 15, 69, 0
3, 20583, Note_on_c, 15, 72, 0
3, 20584, Note_on_c, 15, 76, 0
3, 20616, Note_on_c, 15, 71, 0
3, 20639, Note_on_c, 15, 69, 77
3, 20639, Note_on_c, 15, 72, 92
3, 20640, Note_on_c, 15, 76, 77
3, 20642, Note_on_c, 15, 69, 118
3, 20969, Note_on_c, 15, 69, 0
3, 21001, Note_on_c, 15, 69, 127
3, 21021, Note_on_c, 15, 69, 0
3, 21032, Note_on_c, 15, 71, 118
3, 21040, Note_on_c, 15, 72, 0
3, 21040, Note_on_c, 15, 76, 0
3, 21044, Note_on_c, 15, 69, 0
3, 21100, Note_on_c, 15, 71, 0
3, 21118, Note_on_c, 15, 69, 118
3, 21124, Note_on_c, 15, 62, 70
3, 21124, Note_on_c, 15, 66, 79
3, 21126, Note_on_c, 15, 69, 73
3, 21430, Note_on_c, 15, 69, 0
3, 21483, Note_on_c, 15, 69, 127
3, 21503, Note_on_c, 15, 69, 0
3, 21508, Note_on_c, 15, 71, 118
3, 21526, Note_on_c, 15, 62, 0
3, 21534, Note_on_c, 15, 66, 0
3, 21535, Note_on_c, 15, 69, 0
3, 21544, Note_on_c, 15, 71, 0
3, 21601, Note_on_c, 15, 66, 91
3, 21601, Note_on_c, 15, 69, 127
3, 21602, Note_on_c, 15, 62, 73
3, 21602, Note_on_c, 15, 69, 73
3, 21929, Note_on_c, 15, 69, 0
3, 21964, Note_on_c, 15, 69, 118
3, 21987, Note_on_c, 15, 69, 0
3, 21992, Note_on_c, 15, 71, 118
3, 22010, Note_on_c, 15, 62, 0
3, 22014, Note_on_c, 15, 66, 0
3, 22017, Note_on_c, 15, 69, 0
3, 22068, Note_on_c, 15, 71, 0
3, 22075, Note_on_c, 15, 67, 118
3, 22083, Note_on_c, 15, 74, 70
3, 22083, Note_on_c, 15, 67, 67
3, 22083, Note_on_c, 15, 71, 77
3, 22396, Note_on_c, 15, 67, 0
3, 22438, Note_on_c, 15, 69, 118
3, 22458, Note_on_c, 15, 69, 0
3, 22498, Note_on_c, 15, 71, 127
3, 22506, Note_on_c, 15, 71, 0
3, 22506, Note_on_c, 15, 74, 0
3, 22506, Note_on_c, 15, 67, 0
3, 22521, Note_on_c, 15, 71, 0
3, 22561, Note_on_c, 15, 74, 83
3, 22561, Note_on_c, 15, 67, 77
3, 22562, Note_on_c, 15, 71, 92
3, 22562, Note_on_c, 15, 67, 118
3, 22921, Note_on_c, 15, 67, 0
3, 22923, Note_on_c, 15, 64, 118
3, 22969, Note_on_c, 15, 74, 0
3, 22969, Note_on_c, 15, 67, 0
3, 22970, Note_on_c, 15, 71, 0
3, 22984, Note_on_c, 15, 67, 118
3, 22991, Note_on_c, 15, 64, 0
3, 23003, Note_on_c, 15, 67, 0
3, 23044, Note_on_c, 15, 67, 66
3, 23045, Note_on_c, 15, 74, 61
3, 23045, Note_on_c, 15, 71, 73
3, 23049, Note_on_c, 15, 67, 101
3, 23406, Note_on_c, 15, 69, 82
3, 23407, Note_on_c, 15, 71, 61
3, 23410, Note_on_c, 15, 67, 0
3, 23411, Note_on_c, 15, 71, 0
3, 23428, Note_on_c, 15, 69, 0
3, 23429, Note_on_c, 15, 71, 82
3, 23458, Note_on_c, 15, 67, 0
3, 23460, Note_on_c, 15, 71, 0
3, 23461, Note_on_c, 15, 74, 0
3, 23521, Note_on_c, 15, 71, 0
3, 23525, Note_on_c, 15, 74, 58
3, 23525, Note_on_c, 15, 67, 101
3, 23526, Note_on_c, 15, 67, 56
3, 23526, Note_on_c, 15, 71, 66
3, 23863, Note_on_c, 15, 67, 0
3, 23882, Note_on_c, 15, 69, 101
3, 23902, Note_on_c, 15, 69, 0
3, 23909, Note_on_c, 15, 71, 94
3, 23938, Note_on_c, 15, 67, 0
3, 23943, Note_on_c, 15, 71, 0
3, 23945, Note_on_c, 15, 74, 0
3, 23994, Note_on_c, 15, 71, 0
3, 24002, Note_on_c, 15, 69, 94
3, 24005, Note_on_c, 15, 76, 61
3, 24006, Note_on_c, 15, 69, 61
3, 24006, Note_on_c, 15, 72, 73
3, 24325, Note_on_c, 15, 69, 0
3, 24363, Note_on_c, 15, 72, 94
3, 24390, Note_on_c, 15, 71, 82
3, 24398, Note_on_c, 15, 72, 0
3, 24407, Note_on_c, 15, 72, 0
3, 24407, Note_on_c, 15, 76, 0
3, 24408, Note_on_c, 15, 69, 0
3, 24453, Note_on_c, 15, 71, 0
3, 24453, Note_on_c, 15, 69, 82
3, 24482, Note_on_c, 15, 69, 56
3, 24483, Note_on_c, 15, 76, 58
3, 24483, Note_on_c, 15, 72, 66
3, 24812, Note_on_c, 15, 69, 0
3, 24843, Note_on_c, 15, 69, 101
3, 24875, Note_on_c, 15, 71, 73
3, 24885, Note_on_c, 15, 69, 0
3, 24895, Note_on_c, 15, 76, 0
3, 24896, Note_on_c, 15, 72, 0
3, 24899, Note_on_c, 15, 69, 0
3, 24962, Note_on_c, 15, 71, 0
3, 24964, Note_on_c, 15, 74, 58
3, 24965, Note_on_c, 15, 67, 56
3, 24965, Note_on_c, 15, 71, 61
3, 24965, Note_on_c, 15, 67, 94
3, 25325, Note_on_c, 15, 69, 94
3, 25331, Note_on_c, 15, 67, 0
3, 25350, Note_on_c, 15, 69, 0
3, 25351, Note_on_c, 15, 71, 94
3, 25386, Note_on_c, 15, 74, 0
3, 25386, Note_on_c, 15, 67, 0
3, 25386, Note_on_c, 15, 71, 0
3, 25446, Note_on_c, 15, 71, 0
3, 25447, Note_on_c, 15, 74, 58
3, 25447, Note_on_c, 15, 67, 101
3, 25448, Note_on_c, 15, 67, 58
3, 25448, Note_on_c, 15, 71, 66
3, 25798, Note_on_c, 15, 67, 0
3, 25802, Note_on_c, 15, 64, 94
3, 25864, Note_on_c, 15, 67, 82
3, 25866, Note_on_c, 15, 64, 0
3, 25872, Note_on_c, 15, 71, 0
3, 25872, Note_on_c, 15, 67, 0
3, 25873, Note_on_c, 15, 74, 0
3, 25879, Note_on_c, 15, 67, 0
3, 25928, Note_on_c, 15, 67, 94
3, 25929, Note_on_c, 15, 74, 61
3, 25930, Note_on_c, 15, 67, 61
3, 25930, Note_on_c, 15, 71, 66
3, 26274, Note_on_c, 15, 67, 0
3, 26277, Note_on_c, 15, 69, 94
3, 26297, Note_on_c, 15, 69, 0
3, 26341, Note_on_c, 15, 71, 101
3, 26351, Note_on_c, 15, 71, 0
3, 26352, Note_on_c, 15, 67, 0
3, 26353, Note_on_c, 15, 74, 0
3, 26362, Note_on_c, 15, 71, 0
3, 26403, Note_on_c, 15, 67, 101
3, 26406, Note_on_c, 15, 74, 56
3, 26407, Note_on_c, 15, 67, 61
3, 26407, Note_on_c, 15, 71, 61
3, 26764, Note_on_c, 15, 69, 101
3, 26768, Note_on_c, 15, 67, 0
3, 26787, Note_on_c, 15, 69, 0
3, 26796, Note_on_c, 15, 71, 101
3, 26818, Note_on_c, 15, 67, 0
3, 26819, Note_on_c, 15, 71, 0
3, 26821, Note_on_c, 15, 74, 0
3, 26872, Note_on_c, 15, 71, 0
3, 26880, Note_on_c, 15, 76, 61
3, 26880, Note_on_c, 15, 69, 101
3, 26881, Note_on_c, 15, 72, 73
3, 26881, Note_on_c, 15, 69, 56
3, 27228, Note_on_c, 15, 69, 0
3, 27245, Note_on_c, 15, 72, 101
3, 27272, Note_on_c, 15, 71, 94
3, 27279, Note_on_c, 15, 72, 0
3, 27320, Note_on_c, 15, 69, 0
3, 27321, Note_on_c, 15, 72, 0
3, 27323, Note_on_c, 15, 76, 0
3, 27365, Note_on_c, 15, 71, 0
3, 27365, Note_on_c, 15, 69, 58
3, 27365, Note_on_c, 15, 72, 66
3, 27365, Note_on_c, 15, 76, 58
3, 27365, Note_on_c, 15, 69, 94
3, 27688, Note_on_c, 15, 69, 0
3, 27720, Note_on_c, 15, 69, 82
3, 27745, Note_on_c, 15, 69, 0
3, 27749, Note_on_c, 15, 71, 94
3, 27796, Note_on_c, 15, 72, 0
3, 27797, Note_on_c, 15, 76, 0
3, 27799, Note_on_c, 15, 69, 0
3, 27835, Note_on_c, 15, 71, 0
3, 27843, Note_on_c, 15, 67, 94
3, 27844, Note_on_c, 15, 74, 56
3, 27844, Note_on_c, 15, 71, 66
3, 27844, Note_on_c, 15, 67, 58
3, 28147, Note_on_c, 15, 67, 0
3, 28202, Note_on_c, 15, 69, 94
3, 28220, Note_on_c, 15, 69, 0
3, 28232, Note_on_c, 15, 71, 94
3, 28272, Note_on_c, 15, 67, 0
3, 28275, Note_on_c, 15, 71, 0
3, 28276, Note_on_c, 15, 74, 0
3, 28284, Note_on_c, 15, 71, 0
3, 28313, Note_on_c, 15, 67, 101
3, 28325, Note_on_c, 15, 67, 61
3, 28326, Note_on_c, 15, 74, 58
3, 28326, Note_on_c, 15, 71, 66
3, 28680, Note_on_c, 15, 67, 0
3, 28682, Note_on_c, 15, 69, 94
3, 28702, Note_on_c, 15, 69, 0
3, 28737, Note_on_c, 15, 71, 0
3, 28739, Note_on_c, 15, 74, 0
3, 28739, Note_on_c, 15, 71, 101
3, 28740, Note_on_c, 15, 67, 0
3, 28758, Note_on_c, 15, 71, 0
3, 28801, Note_on_c, 15, 76, 66
3, 28802, Note_on_c, 15, 72, 82
3, 28802, Note_on_c, 15, 69, 66
3, 28806, Note_on_c, 15, 69, 101
3, 28874, Note_on_c, 15, 69, 0
3, 28897, Note_on_c, 15, 71, 94
3, 28961, Note_on_c, 15, 71, 0
3, 28985, Note_on_c, 15, 69, 101
3, 29060, Note_on_c, 15, 76, 0
3, 29061, Note_on_c, 15, 72, 0
3, 29063, Note_on_c, 15, 69, 0
3, 29074, Note_on_c, 15, 69, 0
3, 29106, Note_on_c, 15, 67, 94
3, 29107, Note_on_c, 15, 74, 61
3, 29108, Note_on_c, 15, 67, 61
3, 29108, Note_on_c, 15, 71, 66
3, 29127, Note_on_c, 15, 67, 0
3, 29132, Note_on_c, 15, 71, 0
3, 29134, Note_on_c, 15, 67, 0
3, 29134, Note_on_c, 15, 74, 0
3, 29166, Note_on_c, 15, 67, 61
3, 29166, Note_on_c, 15, 74, 73
3, 29167, Note_on_c, 15, 71, 73
3, 29168, Note_on_c, 15, 67, 94
3, 29207, Note_on_c, 15, 67, 0
3, 29209, Note_on_c, 15, 74, 0
3, 29209, Note_on_c, 15, 71, 0
3, 29225, Note_on_c, 15, 67, 0
3, 29280, Note_on_c, 15, 76, 73
3, 29281, Note_on_c, 15, 72, 73
3, 29281, Note_on_c, 15, 69, 66
3, 29282, Note_on_c, 15, 69, 94
3, 29355, Note_on_c, 15, 69, 0
3, 29376, Note_on_c, 15, 71, 101
3, 29440, Note_on_c, 15, 71, 0
3, 29466, Note_on_c, 15, 69, 101
3, 29539, Note_on_c, 15, 76, 0
3, 29540, Note_on_c, 15, 72, 0
3, 29541, Note_on_c, 15, 69, 0
3, 29547, Note_on_c, 15, 69, 0
3, 29580, Note_on_c, 15, 67, 101
3, 29584, Note_on_c, 15, 74, 66
3, 29584, Note_on_c, 15, 67, 61
3, 29585, Note_on_c, 15, 71, 73
3, 29603, Note_on_c, 15, 71, 0
3, 29604, Note_on_c, 15, 67, 0
3, 29605, Note_on_c, 15, 67, 0
3, 29606, Note_on_c, 15, 74, 0
3, 29640, Note_on_c, 15, 67, 66
3, 29641, Note_on_c, 15, 74, 66
3, 29642, Note_on_c, 15, 71, 82
3, 29644, Note_on_c, 15, 67, 101
3, 29678, Note_on_c, 15, 67, 0
3, 29689, Note_on_c, 15, 74, 0
3, 29691, Note_on_c, 15, 71, 0
3, 29691, Note_on_c, 15, 67, 0
3, 29700, Note_on_c, 15, 69, 101
3, 29718, Note_on_c, 15, 69, 0
3, 29730, Note_on_c, 15, 71, 101
3, 29751, Note_on_c, 15, 71, 0
3, 29761, Note_on_c, 15, 74, 61
3, 29762, Note_on_c, 15, 67, 66
3, 29762, Note_on_c, 15, 71, 73
3, 29766, Note_on_c, 15, 67, 94
3, 30146, Note_on_c, 15, 67, 0
3, 30180, Note_on_c, 15, 69, 101
3, 30198, Note_on_c, 15, 69, 0
3, 30205, Note_on_c, 15, 67, 0
3, 30206, Note_on_c, 15, 71, 0
3, 30206, Note_on_c, 15, 74, 0
3, 30210, Note_on_c, 15, 71, 101
3, 30231, Note_on_c, 15, 71, 0
3, 30241, Note_on_c, 15, 67, 94
3, 30248, Note_on_c, 15, 74, 61
3, 30249, Note_on_c, 15, 67, 58
3, 30249, Note_on_c, 15, 71, 66
3, 30570, Note_on_c, 15, 67, 0
3, 30593, Note_on_c, 15, 69, 101
3, 30619, Note_on_c, 15, 69, 0
3, 30655, Note_on_c, 15, 71, 101
3, 30677, Note_on_c, 15, 71, 0
3, 30680, Note_on_c, 15, 67, 0
3, 30681, Note_on_c, 15, 71, 0
3, 30682, Note_on_c, 15, 74, 0
3, 30719, Note_on_c, 15, 76, 66
3, 30720, Note_on_c, 15, 69, 66
3, 30721, Note_on_c, 15, 72, 73
3, 30722, Note_on_c, 15, 69, 101
3, 30792, Note_on_c, 15, 69, 0
3, 30817, Note_on_c, 15, 71, 101
3, 30882, Note_on_c, 15, 71, 0
3, 30906, Note_on_c, 15, 69, 94
3, 30977, Note_on_c, 15, 76, 0
3, 30978, Note_on_c, 15, 69, 0
3, 30978, Note_on_c, 15, 72, 0
3, 31000, Note_on_c, 15, 69, 0
3, 31020, Note_on_c, 15, 67, 53
3, 31020, Note_on_c, 15, 74, 52
3, 31021, Note_on_c, 15, 71, 53
3, 31026, Note_on_c, 15, 67, 94
3, 31049, Note_on_c, 15, 71, 0
3, 31049, Note_on_c, 15, 67, 0
3, 31053, Note_on_c, 15, 74, 0
3, 31053, Note_on_c, 15, 67, 0
3, 31082, Note_on_c, 15, 74, 61
3, 31083, Note_on_c, 15, 67, 61
3, 31083, Note_on_c, 15, 71, 66
3, 31084, Note_on_c, 15, 67, 94
3, 31128, Note_on_c, 15, 67, 0
3, 31129, Note_on_c, 15, 74, 0
3, 31129, Note_on_c, 15, 71, 0
3, 31146, Note_on_c, 15, 67, 0
3, 31195, Note_on_c, 15, 69, 61
3, 31195, Note_on_c, 15, 76, 61
3, 31196, Note_on_c, 15, 72, 73
3, 31203, Note_on_c, 15, 69, 94
3, 31281, Note_on_c, 15, 69, 0
3, 31300, Note_on_c, 15, 71, 101
3, 31357, Note_on_c, 15, 71, 0
3, 31383, Note_on_c, 15, 69, 101
3, 31458, Note_on_c, 15, 76, 0
3, 31458, Note_on_c, 15, 72, 0
3, 31459, Note_on_c, 15, 69, 0
3, 31477, Note_on_c, 15, 69, 0
3, 31500, Note_on_c, 15, 67, 94
3, 31505, Note_on_c, 15, 67, 58
3, 31506, Note_on_c, 15, 74, 58
3, 31506, Note_on_c, 15, 71, 66
3, 31525, Note_on_c, 15, 67, 0
3, 31527, Note_on_c, 15, 71, 0
3, 31528, Note_on_c, 15, 74, 0
3, 31530, Note_on_c, 15, 67, 0
3, 31559, Note_on_c, 15, 67, 94
3, 31564, Note_on_c, 15, 74, 61
3, 31564, Note_on_c, 15, 67, 66
3, 31565, Note_on_c, 15, 71, 73
3, 31599, Note_on_c, 15, 67, 0
3, 31613, Note_on_c, 15, 74, 0
3, 31613, Note_on_c, 15, 67, 0
3, 31613, Note_on_c, 15, 71, 0
3, 31631, Note_on_c, 15, 69, 94
3, 31657, Note_on_c, 15, 71, 82
3, 31665, Note_on_c, 15, 69, 0
3, 31679, Note_on_c, 15, 67, 61
3, 31679, Note_on_c, 15, 74, 66
3, 31680, Note_on_c, 15, 71, 73
3, 31687, Note_on_c, 15, 71, 0
3, 31690, Note_on_c, 15, 67, 82
3, 31996, Note_on_c, 15, 67, 0
3, 32032, Note_on_c, 15, 69, 94
3, 32051, Note_on_c, 15, 69, 0
3, 32065, Note_on_c, 15, 71, 94
3, 32114, Note_on_c, 15, 67, 0
3, 32115, Note_on_c, 15, 74, 0
3, 32116, Note_on_c, 15, 71, 0
3, 32119, Note_on_c, 15, 71, 0
3, 32163, Note_on_c, 15, 67, 118
3, 32166, Note_on_c, 15, 74, 77
3, 32166, Note_on_c, 15, 67, 77
3, 32167, Note_on_c, 15, 71, 83
3, 32564, Note_on_c, 15, 71, 0
3, 32565, Note_on_c, 15, 67, 0
3, 32565, Note_on_c, 15, 74, 0
3, 32572, Note_on_c, 15, 67, 0
3, 32638, Note_on_c, 15, 76, 73
3, 32640, Note_on_c, 15, 72, 70
3, 32640, Note_on_c, 15, 69, 77
3, 33070, Note_on_c, 15, 76, 0
3, 33077, Note_on_c, 15, 72, 0
3, 33078, Note_on_c, 15, 69, 0
3, 33126, Note_on_c, 15, 62, 92
3, 33127, Note_on_c, 15, 66, 91
3, 33128, Note_on_c, 15, 69, 77
3, 33566, Note_on_c, 15, 66, 0
3, 33572, Note_on_c, 15, 62, 0
3, 33577, Note_on_c, 15, 69, 0
3, 33602, Note_on_c, 15, 71, 92
3, 33603, Note_on_c, 15, 64, 83
3, 33603, Note_on_c, 15, 67, 77
3, 34079, Note_on_c, 15, 67, 0
3, 34082, Note_on_c, 15, 67, 83
3, 34082, Note_on_c, 15, 74, 73
3, 34082, Note_on_c, 15, 71, 92
3, 34083, Note_on_c, 15, 64, 0
3, 34083, Note_on_c, 15, 71, 0
3, 34085, Note_on_c, 15, 67, 127
3, 34429, Note_on_c, 15, 67, 0
3, 34445, Note_on_c, 15, 69, 118
3, 34464, Note_on_c, 15, 69, 0
3, 34470, Note_on_c, 15, 71, 127
3, 34504, Note_on_c, 15, 67, 0
3, 34508, Note_on_c, 15, 71, 0
3, 34509, Note_on_c, 15, 74, 0
3, 34556, Note_on_c, 15, 71, 0
3, 34558, Note_on_c, 15, 74, 70
3, 34558, Note_on_c, 15, 67, 77
3, 34558, Note_on_c, 15, 71, 92
3, 34561, Note_on_c, 15, 67, 127
3, 34909, Note_on_c, 15, 67, 0
3, 34925, Note_on_c, 15, 69, 127
3, 34944, Note_on_c, 15, 69, 0
3, 34952, Note_on_c, 15, 71, 127
3, 35005, Note_on_c, 15, 67, 0
3, 35006, Note_on_c, 15, 71, 0
3, 35007, Note_on_c, 15, 74, 0
3, 35025, Note_on_c, 15, 71, 0
3, 35038, Note_on_c, 15, 69, 127
3, 35049, Note_on_c, 15, 69, 83
3, 35050, Note_on_c, 15, 76, 83
3, 35050, Note_on_c, 15, 72, 92
3, 35391, Note_on_c, 15, 69, 0
3, 35403, Note_on_c, 15, 72, 118
3, 35432, Note_on_c, 15, 71, 127
3, 35435, Note_on_c, 15, 72, 0
3, 35474, Note_on_c, 15, 69, 0
3, 35475, Note_on_c, 15, 76, 0
3, 35476, Note_on_c, 15, 72, 0
3, 35496, Note_on_c, 15, 71, 0
3, 35521, Note_on_c, 15, 69, 77
3, 35521, Note_on_c, 15, 76, 77
3, 35522, Note_on_c, 15, 72, 83
3, 35522, Note_on_c, 15, 69, 118
3, 35849, Note_on_c, 15, 69, 0
3, 35881, Note_on_c, 15, 69, 127
3, 35901, Note_on_c, 15, 69, 0
3, 35912, Note_on_c, 15, 71, 118
3, 35931, Note_on_c, 15, 76, 0
3, 35933, Note_on_c, 15, 72, 0
3, 35941, Note_on_c, 15, 69, 0
3, 35980, Note_on_c, 15, 71, 0
3, 35998, Note_on_c, 15, 69, 118
3, 36000, Note_on_c, 15, 62, 73
3, 36001, Note_on_c, 15, 66, 79
3, 36002, Note_on_c, 15, 69, 73
3, 36310, Note_on_c, 15, 69, 0
3, 36363, Note_on_c, 15, 69, 127
3, 36383, Note_on_c, 15, 69, 0
3, 36388, Note_on_c, 15, 71, 118
3, 36423, Note_on_c, 15, 62, 0
3, 36424, Note_on_c, 15, 71, 0
3, 36427, Note_on_c, 15, 66, 0
3, 36428, Note_on_c, 15, 69, 0
3, 36481, Note_on_c, 15, 69, 127
3, 36486, Note_on_c, 15, 66, 108
3, 36486, Note_on_c, 15, 69, 77
3, 36486, Note_on_c, 15, 62, 77
3, 36809, Note_on_c, 15, 69, 0
3, 36844, Note_on_c, 15, 69, 118
3, 36867, Note_on_c, 15, 69, 0
3, 36872, Note_on_c, 15, 71, 118
3, 36896, Note_on_c, 15, 62, 0
3, 36902, Note_on_c, 15, 69, 0
3, 36902, Note_on_c, 15, 66, 0
3, 36948, Note_on_c, 15, 71, 0
3, 36955, Note_on_c, 15, 67, 118
3, 36964, Note_on_c, 15, 67, 73
3, 36965, Note_on_c, 15, 74, 70
3, 36966, Note_on_c, 15, 71, 77
3, 37276, Note_on_c, 15, 67, 0
3, 37318, Note_on_c, 15, 69, 118
3, 37338, Note_on_c, 15, 69, 0
3, 37378, Note_on_c, 15, 71, 127
3, 37384, Note_on_c, 15, 74, 0
3, 37385, Note_on_c, 15, 71, 0
3, 37385, Note_on_c, 15, 67, 0
3, 37401, Note_on_c, 15, 71, 0
3, 37442, Note_on_c, 15, 67, 77
3, 37442, Note_on_c, 15, 67, 118
3, 37443, Note_on_c, 15, 74, 73
3, 37443, Note_on_c, 15, 71, 92
3, 37801, Note_on_c, 15, 67, 0
3, 37803, Note_on_c, 15, 64, 118
3, 37857, Note_on_c, 15, 67, 0
3, 37859, Note_on_c, 15, 74, 0
3, 37861, Note_on_c, 15, 71, 0
3, 37864, Note_on_c, 15, 67, 118
3, 37871, Note_on_c, 15, 64, 0
3, 37883, Note_on_c, 15, 67, 0
3, 37920, Note_on_c, 15, 67, 83
3, 37920, Note_on_c, 15, 74, 73
3, 37920, Note_on_c, 15, 71, 92
3, 37923, Note_on_c, 15, 67, 127
3, 38267, Note_on_c, 15, 67, 0
3, 38283, Note_on_c, 15, 69, 107
3, 38302, Note_on_c, 15, 69, 0
3, 38308, Note_on_c, 15, 71, 114
3, 38342, Note_on_c, 15, 67, 0
3, 38346, Note_on_c, 15, 71, 0
3, 38347, Note_on_c, 15, 74, 0
3, 38394, Note_on_c, 15, 71, 0
3, 38396, Note_on_c, 15, 74, 61
3, 38396, Note_on_c, 15, 67, 67
3, 38396, Note_on_c, 15, 71, 80
3, 38399, Note_on_c, 15, 67, 111
3, 38747, Note_on_c, 15, 67, 0
3, 38763, Note_on_c, 15, 69, 99
3, 38782, Note_on_c, 15, 69, 0
3, 38790, Note_on_c, 15, 71, 99
3, 38843, Note_on_c, 15, 67, 0
3, 38844, Note_on_c, 15, 71, 0
3, 38845, Note_on_c, 15, 74, 0
3, 38863, Note_on_c, 15, 71, 0
3, 38876, Note_on_c, 15, 69, 95
3, 38887, Note_on_c, 15, 69, 62
3, 38888, Note_on_c, 15, 76, 62
3, 38888, Note_on_c, 15, 72, 69
3, 39229, Note_on_c, 15, 69, 0
3, 39241, Note_on_c, 15, 72, 77
3, 39270, Note_on_c, 15, 71, 82
3, 39273, Note_on_c, 15, 72, 0
3, 39312, Note_on_c, 15, 69, 0
3, 39313, Note_on_c, 15, 76, 0
3, 39314, Note_on_c, 15, 72, 0
3, 39334, Note_on_c, 15, 71, 0
3, 39359, Note_on_c, 15, 69, 48
3, 39359, Note_on_c, 15, 76, 48
3, 39360, Note_on_c, 15, 72, 52
3, 39360, Note_on_c, 15, 69, 74
3, 39687, Note_on_c, 15, 69, 0
3, 39719, Note_on_c, 15, 69, 67
3, 39739, Note_on_c, 15, 69, 0
3, 39750, Note_on_c, 15, 71, 61
3, 39769, Note_on_c, 15, 76, 0
3, 39771, Note_on_c, 15, 72, 0
3, 39779, Note_on_c, 15, 69, 0
3, 39818, Note_on_c, 15, 71, 0
3, 39836, Note_on_c, 15, 69, 59
3, 39838, Note_on_c, 15, 62, 36
3, 39839, Note_on_c, 15, 66, 39
3, 39840, Note_on_c, 15, 69, 36
3, 40148, Note_on_c, 15, 69, 0
3, 40201, Note_on_c, 15, 69, 50
3, 40221, Note_on_c, 15, 69, 0
3, 40226, Note_on_c, 15, 71, 47
3, 40261, Note_on_c, 15, 62, 0
3, 40262, Note_on_c, 15, 71, 0
3, 40265, Note_on_c, 15, 66, 0
3, 40266, Note_on_c, 15, 69, 0
3, 40319, Note_on_c, 15, 69, 46
3, 40324, Note_on_c, 15, 66, 39
3, 40324, Note_on_c, 15, 69, 28
3, 40324, Note_on_c, 15, 62, 28
3, 40647, Note_on_c, 15, 69, 0
3, 40682, Note_on_c, 15, 69, 33
3, 40705, Note_on_c, 15, 69, 0
3, 40710, Note_on_c, 15, 71, 31
3, 40734, Note_on_c, 15, 62, 0
3, 40740, Note_on_c, 15, 69, 0
3, 40740, Note_on_c, 15, 66, 0
3, 40786, Note_on_c, 15, 71, 0
3, 40793, Note_on_c, 15, 67, 29
3, 40802, Note_on_c, 15, 67, 18
3, 40803, Note_on_c, 15, 74, 17
3, 40804, Note_on_c, 15, 71, 19
3, 41114, Note_on_c, 15, 67, 0
3, 41156, Note_on_c, 15, 69, 17
3, 41176, Note_on_c, 15, 69, 0
3, 41216, Note_on_c, 15, 71, 17
3, 41222, Note_on_c, 15, 74, 0
3, 41223, Note_on_c, 15, 71, 0
3, 41223, Note_on_c, 15, 67, 0
3, 41239, Note_on_c, 15, 71, 0
3, 41280, Note_on_c, 15, 67, 9
3, 41280, Note_on_c, 15, 67, 14
3, 41281, Note_on_c, 15, 74, 8
3, 41281, Note_on_c, 15, 71, 11
3, 41639, Note_on_c, 15, 67, 0
3, 41641, Note_on_c, 15, 64, 3
3, 41695, Note_on_c, 15, 67, 0
3, 41697, Note_on_c, 15, 74, 0
3, 41699, Note_on_c, 15, 71, 0
3, 41702, Note_on_c, 15, 67, 1
3, 41709, Note_on_c, 15, 64, 0
3, 41721, Note_on_c, 15, 67, 0
3, 41721, End_track
4, 0, Start_track
4, 0, Title_t, "Strings"
4, 0, Program_c, 14, 48
4, 0, Control_c, 14, 10, 100
4, 8161, Note_on_c, 14, 91, 118
4, 8284, Note_on_c, 14, 90, 108
4, 8395, Note_on_c, 14, 88, 103
4, 8511, Note_on_c, 14, 86, 83
4, 8636, Note_on_c, 14, 84, 92
4, 8700, Note_on_c, 14, 91, 0
4, 8762, Note_on_c, 14, 83, 118
4, 8820, Note_on_c, 14, 90, 0
4, 8882, Note_on_c, 14, 81, 92
4, 8943, Note_on_c, 14, 88, 0
4, 8992, Note_on_c, 14, 79, 83
4, 9056, Note_on_c, 14, 86, 0
4, 9110, Note_on_c, 14, 81, 0
4, 9110, Note_on_c, 14, 84, 0
4, 9110, Note_on_c, 14, 83, 0
4, 9110, Note_on_c, 14, 79, 0
4, 9113, Note_on_c, 14, 81, 100
4, 9152, Note_on_c, 14, 84, 103
4, 9180, Note_on_c, 14, 88, 118
4, 10072, Note_on_c, 14, 81, 0
4, 10075, Note_on_c, 14, 88, 0
4, 10077, Note_on_c, 14, 84, 0
4, 11048, Note_on_c, 14, 91, 118
4, 11171, Note_on_c, 14, 90, 108
4, 11282, Note_on_c, 14, 88, 103
4, 11398, Note_on_c, 14, 86, 83
4, 11523, Note_on_c, 14, 84, 92
4, 11587, Note_on_c, 14, 91, 0
4, 11649, Note_on_c, 14, 83, 118
4, 11707, Note_on_c, 14, 90, 0
4, 11769, Note_on_c, 14, 81, 92
4, 11830, Note_on_c, 14, 88, 0
4, 11879, Note_on_c, 14, 79, 83
4, 11943, Note_on_c, 14, 86, 0
4, 11997, Note_on_c, 14, 81, 0
4, 11997, Note_on_c, 14, 84, 0
4, 11997, Note_on_c, 14, 83, 0
4, 11997, Note_on_c, 14, 79, 0
4, 12000, Note_on_c, 14, 81, 100
4, 12039, Note_on_c, 14, 84, 103
4, 12067, Note_on_c, 14, 88, 118
4, 12959, Note_on_c, 14, 81, 0
4, 12962, Note_on_c, 14, 88, 0
4, 12964, Note_on_c, 14, 84, 0
4, 12964, End_track
5, 0, Start_track
5, 0, Title_t, "Bass Guitar"
5, 0, Program_c, 13, 34
5, 0, Control_c, 13, 7, 120
5, 3119, Note_on_c, 13, 48, 127
5, 3140, Note_on_c, 13, 48, 0
5, 3176, Note_on_c, 13, 47, 118
5, 3196, Note_on_c, 13, 47, 0
5, 3237, Note_on_c, 13, 45, 103
5, 3257, Note_on_c, 13, 45, 0
5, 3296, Note_on_c, 13, 42, 108
5, 3342, Note_on_c, 13, 42, 0
5, 3357, Note_on_c, 13, 43, 118
5, 3660, Note_on_c, 13, 38, 103
5, 3713, Note_on_c, 13, 40, 118
5, 3721, Note_on_c, 13, 38, 0
5, 3725, Note_on_c, 13, 43, 0
5, 3776, Note_on_c, 13, 43, 118
5, 3778, Note_on_c, 13, 40, 0
5, 3797, Note_on_c, 13, 43, 0
5, 3839, Note_on_c, 13, 43, 103
5, 4152, Note_on_c, 13, 43, 0
5, 6955, Note_on_c, 13, 48, 118
5, 6981, Note_on_c, 13, 48, 0
5, 7016, Note_on_c, 13, 47, 103
5, 7037, Note_on_c, 13, 47, 0
5, 7077, Note_on_c, 13, 45, 118
5, 7099, Note_on_c, 13, 45, 0
5, 7138, Note_on_c, 13, 42, 108
5, 7180, Note_on_c, 13, 42, 0
5, 7204, Note_on_c, 13, 43, 103
5, 7486, Note_on_c, 13, 43, 0
5, 7501, Note_on_c, 13, 38, 103
5, 7558, Note_on_c, 13, 40, 118
5, 7565, Note_on_c, 13, 38, 0
5, 7617, Note_on_c, 13, 43, 118
5, 7619, Note_on_c, 13, 40, 0
5, 7633, Note_on_c, 13, 43, 0
5, 7679, Note_on_c, 13, 43, 118
5, 8030, Note_on_c, 13, 43, 0
5, 13743, Note_on_c, 13, 31, 118
5, 13805, Note_on_c, 13, 33, 118
5, 13814, Note_on_c, 13, 31, 0
5, 13861, Note_on_c, 13, 35, 103
5, 13869, Note_on_c, 13, 33, 0
5, 13901, Note_on_c, 13, 35, 0
5, 13923, Note_on_c, 13, 33, 127
5, 14214, Note_on_c, 13, 33, 0
5, 15665, Note_on_c, 13, 31, 127
5, 15722, Note_on_c, 13, 33, 103
5, 15724, Note_on_c, 13, 31, 0
5, 15781, Note_on_c, 13, 35, 92
5, 15785, Note_on_c, 13, 33, 0
5, 15814, Note_on_c, 13, 35, 0
5, 15840, Note_on_c, 13, 33, 118
5, 16108, Note_on_c, 13, 33, 0
5, 21802, Note_on_c, 13, 47, 127
5, 21835, Note_on_c, 13, 48, 118
5, 21837, Note_on_c, 13, 47, 0
5, 21861, Note_on_c, 13, 48, 0
5, 21896, Note_on_c, 13, 47, 103
5, 21917, Note_on_c, 13, 47, 0
5, 21957, Note_on_c, 13, 45, 118
5, 21979, Note_on_c, 13, 45, 0
5, 22018, Note_on_c, 13, 42, 108
5, 22060, Note_on_c, 13, 42, 0
5, 22084, Note_on_c, 13, 43, 103
5, 22366, Note_on_c, 13, 43, 0
5, 22383, Note_on_c, 13, 38, 118
5, 22438, Note_on_c, 13, 40, 92
5, 22445, Note_on_c, 13, 38, 0
5, 22499, Note_on_c, 13, 43, 118
5, 22503, Note_on_c, 13, 40, 0
5, 22517, Note_on_c, 13, 43, 0
5, 22562, Note_on_c, 13, 43, 118
5, 22813, Note_on_c, 13, 43, 0
5, 28622, Note_on_c, 13, 31, 118
5, 28682, Note_on_c, 13, 33, 103
5, 28691, Note_on_c, 13, 31, 0
5, 28723, Note_on_c, 13, 33, 0
5, 28740, Note_on_c, 13, 35, 118
5, 28758, Note_on_c, 13, 35, 0
5, 28801, Note_on_c, 13, 33, 118
5, 29324, Note_on_c, 13, 33, 0
5, 30540, Note_on_c, 13, 31, 118
5, 30599, Note_on_c, 13, 33, 118
5, 30608, Note_on_c, 13, 31, 0
5, 30653, Note_on_c, 13, 35, 92
5, 30657, Note_on_c, 13, 33, 0
5, 30672, Note_on_c, 13, 35, 0
5, 30716, Note_on_c, 13, 33, 118
5, 31262, Note_on_c, 13, 33, 0
5, 36685, Note_on_c, 13, 47, 103
5, 36715, Note_on_c, 13, 48, 118
5, 36728, Note_on_c, 13, 47, 0
5, 36741, Note_on_c, 13, 48, 0
5, 36776, Note_on_c, 13, 47, 103
5, 36797, Note_on_c, 13, 47, 0
5, 36837, Note_on_c, 13, 45, 118
5, 36859, Note_on_c, 13, 45, 0
5, 36898, Note_on_c, 13, 42, 108
5, 36940, Note_on_c, 13, 42, 0
5, 36964, Note_on_c, 13, 43, 103
5, 37246, Note_on_c, 13, 43, 0
5, 37267, Note_on_c, 13, 38, 92
5, 37321, Note_on_c, 13, 40, 103
5, 37330, Note_on_c, 13, 38, 0
5, 37383, Note_on_c, 13, 43, 103
5, 37387, Note_on_c, 13, 40, 0
5, 37401, Note_on_c, 13, 43, 0
5, 37443, Note_on_c, 13, 43, 118
5, 37796, Note_on_c, 13, 43, 0
5, 40555, Note_on_c, 13, 48, 37
5, 40581, Note_on_c, 13, 48, 0
5, 40616, Note_on_c, 13, 47, 31
5, 40637, Note_on_c, 13, 47, 0
5, 40677, Note_on_c, 13, 45, 34
5, 40699, Note_on_c, 13, 45, 0
5, 40738, Note_on_c, 13, 42, 30
5, 40780, Note_on_c, 13, 42, 0
5, 40804, Note_on_c, 13, 43, 26
5, 41086, Note_on_c, 13, 43, 0
5, 41086, End_track
6, 0, Start_track
6, 0, Title_t, "Drum"
6, 0, Control_c, 9, 7, 127
6, 242, Note_on_c, 9, 38, 127
6, 271, Note_on_c, 9, 38, 0
6, 335, Note_on_c, 9, 38, 127
6, 381, Note_on_c, 9, 38, 0
6, 418, Note_on_c, 9, 38, 127
6, 454, Note_on_c, 9, 38, 0
6, 720, Note_on_c, 9, 57, 127
6, 840, Note_on_c, 9, 57, 0
6, 1204, Note_on_c, 9, 57, 100
6, 1324, Note_on_c, 9, 57, 0
6, 1680, Note_on_c, 9, 57, 100
6, 1800, Note_on_c, 9, 57, 0
6, 2160, Note_on_c, 9, 57, 100
6, 2280, Note_on_c, 9, 57, 0
6, 2640, Note_on_c, 9, 57, 100
6, 2760, Note_on_c, 9, 57, 0
6, 3120, Note_on_c, 9, 57, 100
6, 3240, Note_on_c, 9, 57, 0
6, 3600, Note_on_c, 9, 57, 100
6, 3720, Note_on_c, 9, 57, 0
6, 3904, Note_on_c, 9, 38, 127
6, 3919, Note_on_c, 9, 38, 0
6, 3958, Note_on_c, 9, 38, 127
6, 3976, Note_on_c, 9, 38, 0
6, 4053, Note_on_c, 9, 38, 127
6, 4071, Note_on_c, 9, 38, 0
6, 4080, Note_on_c, 9, 57, 100
6, 4110, Note_on_c, 9, 38, 127
6, 4132, Note_on_c, 9, 38, 0
6, 4171, Note_on_c, 9, 38, 127
6, 4183, Note_on_c, 9, 38, 0
6, 4200, Note_on_c, 9, 57, 0
6, 4202, Note_on_c, 9, 38, 127
6, 4217, Note_on_c, 9, 38, 0
6, 4231, Note_on_c, 9, 38, 127
6, 4244, Note_on_c, 9, 38, 0
6, 4258, Note_on_c, 9, 38, 127
6, 4273, Note_on_c, 9, 38, 0
6, 4560, Note_on_c, 9, 57, 100
6, 4680, Note_on_c, 9, 57, 0
6, 5040, Note_on_c, 9, 57, 100
6, 5160, Note_on_c, 9, 57, 0
6, 5520, Note_on_c, 9, 57, 100
6, 5640, Note_on_c, 9, 57, 0
6, 6000, Note_on_c, 9, 57, 100
6, 6120, Note_on_c, 9, 57, 0
6, 6480, Note_on_c, 9, 57, 100
6, 6600, Note_on_c, 9, 57, 0
6, 6960, Note_on_c, 9, 57, 100
6, 7080, Note_on_c, 9, 57, 0
6, 7440, Note_on_c, 9, 57, 100
6, 7560, Note_on_c, 9, 57, 0
6, 7742, Note_on_c, 9, 38, 127
6, 7757, Note_on_c, 9, 38, 0
6, 7802, Note_on_c, 9, 38, 127
6, 7820, Note_on_c, 9, 38, 0
6, 7891, Note_on_c, 9, 38, 127
6, 7909, Note_on_c, 9, 38, 0
6, 7920, Note_on_c, 9, 57, 100
6, 7954, Note_on_c, 9, 38, 127
6, 7976, Note_on_c, 9, 38, 0
6, 8011, Note_on_c, 9, 38, 127
6, 8023, Note_on_c, 9, 38, 0
6, 8040, Note_on_c, 9, 57, 0
6, 8042, Note_on_c, 9, 38, 127
6, 8057, Note_on_c, 9, 38, 0
6, 8071, Note_on_c, 9, 38, 127
6, 8084, Note_on_c, 9, 38, 0
6, 8098, Note_on_c, 9, 38, 127
6, 8113, Note_on_c, 9, 38, 0
6, 8400, Note_on_c, 9, 57, 100
6, 8520, Note_on_c, 9, 57, 0
6, 8880, Note_on_c, 9, 57, 100
6, 9000, Note_on_c, 9, 57, 0
6, 9360, Note_on_c, 9, 57, 100
6, 9480, Note_on_c, 9, 57, 0
6, 9840, Note_on_c, 9, 57, 100
6, 9960, Note_on_c, 9, 57, 0
6, 10320, Note_on_c, 9, 57, 100
6, 10440, Note_on_c, 9, 57, 0
6, 10800, Note_on_c, 9, 57, 100
6, 10920, Note_on_c, 9, 57, 0
6, 11280, Note_on_c, 9, 57, 100
6, 11400, Note_on_c, 9, 57, 0
6, 11760, Note_on_c, 9, 57, 100
6, 11880, Note_on_c, 9, 57, 0
6, 12240, Note_on_c, 9, 57, 100
6, 12360, Note_on_c, 9, 57, 0
6, 12720, Note_on_c, 9, 57, 100
6, 12840, Note_on_c, 9, 57, 0
6, 13200, Note_on_c, 9, 57, 100
6, 13320, Note_on_c, 9, 57, 0
6, 13680, Note_on_c, 9, 57, 100
6, 13800, Note_on_c, 9, 57, 0
6, 13800, Note_on_c, 9, 38, 127
6, 13814, Note_on_c, 9, 38, 0
6, 13829, Note_on_c, 9, 38, 127
6, 13844, Note_on_c, 9, 38, 0
6, 13857, Note_on_c, 9, 38, 127
6, 13872, Note_on_c, 9, 38, 0
6, 13888, Note_on_c, 9, 38, 127
6, 13906, Note_on_c, 9, 38, 0
6, 14160, Note_on_c, 9, 57, 100
6, 14280, Note_on_c, 9, 57, 0
6, 14640, Note_on_c, 9, 57, 100
6, 14760, Note_on_c, 9, 57, 0
6, 15120, Note_on_c, 9, 57, 100
6, 15240, Note_on_c, 9, 57, 0
6, 15600, Note_on_c, 9, 57, 100
6, 15720, Note_on_c, 9, 57, 0
6, 16080, Note_on_c, 9, 57, 100
6, 16200, Note_on_c, 9, 57, 0
6, 16560, Note_on_c, 9, 57, 100
6, 16680, Note_on_c, 9, 57, 0
6, 17040, Note_on_c, 9, 57, 100
6, 17160, Note_on_c, 9, 57, 0
6, 17520, Note_on_c, 9, 57, 100
6, 17640, Note_on_c, 9, 57, 0
6, 18000, Note_on_c, 9, 57, 100
6, 18120, Note_on_c, 9, 57, 0
6, 18480, Note_on_c, 9, 57, 100
6, 18600, Note_on_c, 9, 57, 0
6, 19202, Note_on_c, 9, 49, 127
6, 19322, Note_on_c, 9, 49, 0
6, 19440, Note_on_c, 9, 57, 100
6, 19560, Note_on_c, 9, 57, 0
6, 19920, Note_on_c, 9, 57, 100
6, 20040, Note_on_c, 9, 57, 0
6, 20400, Note_on_c, 9, 57, 100
6, 20520, Note_on_c, 9, 57, 0
6, 20880, Note_on_c, 9, 57, 100
6, 21000, Note_on_c, 9, 57, 0
6, 21360, Note_on_c, 9, 57, 100
6, 21480, Note_on_c, 9, 57, 0
6, 21840, Note_on_c, 9, 57, 100
6, 21960, Note_on_c, 9, 57, 0
6, 22320, Note_on_c, 9, 57, 100
6, 22440, Note_on_c, 9, 57, 0
6, 22620, Note_on_c, 9, 38, 127
6, 22634, Note_on_c, 9, 38, 0
6, 22683, Note_on_c, 9, 38, 127
6, 22704, Note_on_c, 9, 38, 0
6, 22775, Note_on_c, 9, 38, 127
6, 22792, Note_on_c, 9, 38, 0
6, 22800, Note_on_c, 9, 57, 100
6, 22834, Note_on_c, 9, 38, 127
6, 22851, Note_on_c, 9, 38, 0
6, 22892, Note_on_c, 9, 38, 127
6, 22903, Note_on_c, 9, 38, 0
6, 22920, Note_on_c, 9, 57, 0
6, 22921, Note_on_c, 9, 38, 127
6, 22932, Note_on_c, 9, 38, 0
6, 22951, Note_on_c, 9, 38, 127
6, 22962, Note_on_c, 9, 38, 0
6, 22980, Note_on_c, 9, 38, 127
6, 22994, Note_on_c, 9, 38, 0
6, 23280, Note_on_c, 9, 57, 100
6, 23400, Note_on_c, 9, 57, 0
6, 23760, Note_on_c, 9, 57, 100
6, 23880, Note_on_c, 9, 57, 0
6, 24240, Note_on_c, 9, 57, 100
6, 24360, Note_on_c, 9, 57, 0
6, 24720, Note_on_c, 9, 57, 100
6, 24840, Note_on_c, 9, 57, 0
6, 25200, Note_on_c, 9, 57, 100
6, 25320, Note_on_c, 9, 57, 0
6, 25680, Note_on_c, 9, 57, 100
6, 25800, Note_on_c, 9, 57, 0
6, 26160, Note_on_c, 9, 57, 100
6, 26280, Note_on_c, 9, 57, 0
6, 26640, Note_on_c, 9, 57, 100
6, 26760, Note_on_c, 9, 57, 0
6, 27120, Note_on_c, 9, 57, 100
6, 27240, Note_on_c, 9, 57, 0
6, 27600, Note_on_c, 9, 57, 100
6, 27720, Note_on_c, 9, 57, 0
6, 28080, Note_on_c, 9, 57, 100
6, 28200, Note_on_c, 9, 57, 0
6, 28560, Note_on_c, 9, 57, 100
6, 28622, Note_on_c, 9, 38, 127
6, 28636, Note_on_c, 9, 38, 0
6, 28680, Note_on_c, 9, 57, 0
6, 28682, Note_on_c, 9, 38, 127
6, 28694, Note_on_c, 9, 38, 0
6, 28710, Note_on_c, 9, 38, 127
6, 28721, Note_on_c, 9, 38, 0
6, 28734, Note_on_c, 9, 38, 127
6, 28747, Note_on_c, 9, 38, 0
6, 29040, Note_on_c, 9, 57, 100
6, 29160, Note_on_c, 9, 57, 0
6, 29520, Note_on_c, 9, 57, 100
6, 29640, Note_on_c, 9, 57, 0
6, 30000, Note_on_c, 9, 57, 100
6, 30120, Note_on_c, 9, 57, 0
6, 30480, Note_on_c, 9, 57, 100
6, 30600, Note_on_c, 9, 57, 0
6, 30960, Note_on_c, 9, 57, 100
6, 31080, Note_on_c, 9, 57, 0
6, 31440, Note_on_c, 9, 57, 100
6, 31560, Note_on_c, 9, 57, 0
6, 31920, Note_on_c, 9, 57, 100
6, 32040, Note_on_c, 9, 57, 0
6, 32400, Note_on_c, 9, 57, 100
6, 32520, Note_on_c, 9, 57, 0
6, 32880, Note_on_c, 9, 57, 100
6, 33000, Note_on_c, 9, 57, 0
6, 33360, Note_on_c, 9, 57, 100
6, 33480, Note_on_c, 9, 57, 0
6, 34081, Note_on_c, 9, 49, 127
6, 34201, Note_on_c, 9, 49, 0
6, 34320, Note_on_c, 9, 57, 100
6, 34440, Note_on_c, 9, 57, 0
6, 34800, Note_on_c, 9, 57, 100
6, 34920, Note_on_c, 9, 57, 0
6, 35280, Note_on_c, 9, 57, 100
6, 35400, Note_on_c, 9, 57, 0
6, 35760, Note_on_c, 9, 57, 100
6, 35880, Note_on_c, 9, 57, 0
6, 36240, Note_on_c, 9, 57, 100
6, 36360, Note_on_c, 9, 57, 0
6, 36720, Note_on_c, 9, 57, 100
6, 36840, Note_on_c, 9, 57, 0
6, 37200, Note_on_c, 9, 57, 100
6, 37320, Note_on_c, 9, 57, 0
6, 37500, Note_on_c, 9, 38, 127
6, 37515, Note_on_c, 9, 38, 0
6, 37560, Note_on_c, 9, 38, 127
6, 37578, Note_on_c, 9, 38, 0
6, 37655, Note_on_c, 9, 38, 127
6, 37673, Note_on_c, 9, 38, 0
6, 37680, Note_on_c, 9, 57, 100
6, 37712, Note_on_c, 9, 38, 127
6, 37734, Note_on_c, 9, 38, 0
6, 37773, Note_on_c, 9, 38, 127
6, 37785, Note_on_c, 9, 38, 0
6, 37800, Note_on_c, 9, 57, 0
6, 37800, Note_on_c, 9, 38, 127
6, 37815, Note_on_c, 9, 38, 0
6, 37829, Note_on_c, 9, 38, 127
6, 37842, Note_on_c, 9, 38, 0
6, 37856, Note_on_c, 9, 38, 127
6, 37871, Note_on_c, 9, 38, 0
6, 38160, Note_on_c, 9, 57, 100
6, 38280, Note_on_c, 9, 57, 0
6, 38640, Note_on_c, 9, 57, 86
6, 38760, Note_on_c, 9, 57, 0
6, 39120, Note_on_c, 9, 57, 72
6, 39240, Note_on_c, 9, 57, 0
6, 39600, Note_on_c, 9, 57, 58
6, 39720, Note_on_c, 9, 57, 0
6, 40080, Note_on_c, 9, 57, 43
6, 40200, Note_on_c, 9, 57, 0
6, 40560, Note_on_c, 9, 57, 29
6, 40680, Note_on_c, 9, 57, 0
6, 41040, Note_on_c, 9, 57, 15
6, 41160, Note_on_c, 9, 57, 0
6, 41520, Note_on_c, 9, 57, 0
6, 41520, Note_on_c, 9, 57, 0
6, 41520, Note_on_c, 9, 57, 0
6, 41520, Note_on_c, 9, 57, 0
6, 41520, Note_on_c, 9, 57, 0
6, 41520, Note_on_c, 9, 57, 0
6, 41520, Note_on_c, 9, 57, 0
6, 41520, Note_on_c, 9, 57, 0
6, 41640, Note_on_c, 9, 57, 0
6, 41640, Note_on_c, 9, 57, 0
6, 41640, Note_on_c, 9, 57, 0
6, 41640, Note_on_c, 9, 57, 0
6, 41640, Note_on_c, 9, 57, 0
6, 41640, Note_on_c, 9, 57, 0
6, 41640, Note_on_c, 9, 57, 0
6, 41640, Note_on_c, 9, 57, 0
6, 41640, End_track
7, 0, Start_track
7, 0, Title_t, "Ahh-ahh"
7, 0, Program_c, 12, 52
7, 0, Control_c, 12, 7, 127
7, 0, Control_c, 12, 10, 117
7, 9964, Note_on_c, 12, 76, 127
7, 10088, Pitch_bend_c, 12, 7680
7, 10090, Pitch_bend_c, 12, 7168
7, 10092, Pitch_bend_c, 12, 6656
7, 10094, Pitch_bend_c, 12, 6144
7, 10096, Pitch_bend_c, 12, 5632
7, 10098, Pitch_bend_c, 12, 5120
7, 10101, Pitch_bend_c, 12, 4608
7, 10103, Pitch_bend_c, 12, 4096
7, 10105, Pitch_bend_c, 12, 3584
7, 10107, Pitch_bend_c, 12, 3072
7, 10109, Pitch_bend_c, 12, 2560
7, 10111, Pitch_bend_c, 12, 2048
7, 10113, Pitch_bend_c, 12, 1536
7, 10115, Pitch_bend_c, 12, 1024
7, 10118, Pitch_bend_c, 12, 512
7, 10120, Pitch_bend_c, 12, 0
7, 10444, Note_on_c, 12, 76, 0
7, 10963, Pitch_bend_c, 12, 512
7, 10965, Pitch_bend_c, 12, 1024
7, 10967, Pitch_bend_c, 12, 1536
7, 10970, Pitch_bend_c, 12, 2048
7, 10972, Pitch_bend_c, 12, 2560
7, 10974, Pitch_bend_c, 12, 3072
7, 10976, Pitch_bend_c, 12, 3584
7, 10978, Pitch_bend_c, 12, 4096
7, 10980, Pitch_bend_c, 12, 4608
7, 10982, Pitch_bend_c, 12, 5120
7, 10984, Pitch_bend_c, 12, 5632
7, 10987, Pitch_bend_c, 12, 6144
7, 10989, Pitch_bend_c, 12, 6656
7, 10991, Pitch_bend_c, 12, 7168
7, 10993, Pitch_bend_c, 12, 7680
7, 10995, Pitch_bend_c, 12, 8192
7, 12847, Note_on_c, 12, 76, 127
7, 12986, Pitch_bend_c, 12, 7680
7, 12988, Pitch_bend_c, 12, 7168
7, 12990, Pitch_bend_c, 12, 6656
7, 12992, Pitch_bend_c, 12, 6144
7, 12995, Pitch_bend_c, 12, 5632
7, 12997, Pitch_bend_c, 12, 5120
7, 12999, Pitch_bend_c, 12, 4608
7, 13001, Pitch_bend_c, 12, 4096
7, 13003, Pitch_bend_c, 12, 3584
7, 13005, Pitch_bend_c, 12, 3072
7, 13007, Pitch_bend_c, 12, 2560
7, 13010, Pitch_bend_c, 12, 2048
7, 13012, Pitch_bend_c, 12, 1536
7, 13014, Pitch_bend_c, 12, 1024
7, 13016, Pitch_bend_c, 12, 512
7, 13018, Pitch_bend_c, 12, 0
7, 13326, Note_on_c, 12, 76, 0
7, 13696, Pitch_bend_c, 12, 512
7, 13698, Pitch_bend_c, 12, 1024
7, 13700, Pitch_bend_c, 12, 1536
7, 13702, Pitch_bend_c, 12, 2048
7, 13704, Pitch_bend_c, 12, 2560
7, 13706, Pitch_bend_c, 12, 3072
7, 13709, Pitch_bend_c, 12, 3584
7, 13711, Pitch_bend_c, 12, 4096
7, 13713, Pitch_bend_c, 12, 4608
7, 13715, Pitch_bend_c, 12, 5120
7, 13717, Pitch_bend_c, 12, 5632
7, 13719, Pitch_bend_c, 12, 6144
7, 13721, Pitch_bend_c, 12, 6656
7, 13724, Pitch_bend_c, 12, 7168
7, 13726, Pitch_bend_c, 12, 7680
7, 13728, Pitch_bend_c, 12, 8192
7, 24844, Note_on_c, 12, 76, 95
7, 24968, Pitch_bend_c, 12, 7680
7, 24970, Pitch_bend_c, 12, 7168
7, 24972, Pitch_bend_c, 12, 6656
7, 24974, Pitch_bend_c, 12, 6144
7, 24976, Pitch_bend_c, 12, 5632
7, 24978, Pitch_bend_c, 12, 5120
7, 24981, Pitch_bend_c, 12, 4608
7, 24983, Pitch_bend_c, 12, 4096
7, 24985, Pitch_bend_c, 12, 3584
7, 24987, Pitch_bend_c, 12, 3072
7, 24989, Pitch_bend_c, 12, 2560
7, 24991, Pitch_bend_c, 12, 2048
7, 24993, Pitch_bend_c, 12, 1536
7, 24995, Pitch_bend_c, 12, 1024
7, 24998, Pitch_bend_c, 12, 512
7, 25000, Pitch_bend_c, 12, 0
7, 25324, Note_on_c, 12, 76, 0
7, 25843, Pitch_bend_c, 12, 512
7, 25845, Pitch_bend_c, 12, 1024
7, 25847, Pitch_bend_c, 12, 1536
7, 25850, Pitch_bend_c, 12, 2048
7, 25852, Pitch_bend_c, 12, 2560
7, 25854, Pitch_bend_c, 12, 3072
7, 25856, Pitch_bend_c, 12, 3584
7, 25858, Pitch_bend_c, 12, 4096
7, 25860, Pitch_bend_c, 12, 4608
7, 25862, Pitch_bend_c, 12, 5120
7, 25864, Pitch_bend_c, 12, 5632
7, 25867, Pitch_bend_c, 12, 6144
7, 25869, Pitch_bend_c, 12, 6656
7, 25871, Pitch_bend_c, 12, 7168
7, 25873, Pitch_bend_c, 12, 7680
7, 25875, Pitch_bend_c, 12, 8192
7, 27727, Note_on_c, 12, 76, 95
7, 27866, Pitch_bend_c, 12, 7680
7, 27868, Pitch_bend_c, 12, 7168
7, 27870, Pitch_bend_c, 12, 6656
7, 27872, Pitch_bend_c, 12, 6144
7, 27875, Pitch_bend_c, 12, 5632
7, 27877, Pitch_bend_c, 12, 5120
7, 27879, Pitch_bend_c, 12, 4608
7, 27881, Pitch_bend_c, 12, 4096
7, 27883, Pitch_bend_c, 12, 3584
7, 27885, Pitch_bend_c, 12, 3072
7, 27887, Pitch_bend_c, 12, 2560
7, 27890, Pitch_bend_c, 12, 2048
7, 27892, Pitch_bend_c, 12, 1536
7, 27894, Pitch_bend_c, 12, 1024
7, 27896, Pitch_bend_c, 12, 512
7, 27898, Pitch_bend_c, 12, 0
7, 28206, Note_on_c, 12, 76, 0
7, 28576, Pitch_bend_c, 12, 512
7, 28578, Pitch_bend_c, 12, 1024
7, 28580, Pitch_bend_c, 12, 1536
7, 28582, Pitch_bend_c, 12, 2048
7, 28584, Pitch_bend_c, 12, 2560
7, 28586, Pitch_bend_c, 12, 3072
7, 28589, Pitch_bend_c, 12, 3584
7, 28591, Pitch_bend_c, 12, 4096
7, 28593, Pitch_bend_c, 12, 4608
7, 28595, Pitch_bend_c, 12, 5120
7, 28597, Pitch_bend_c, 12, 5632
7, 28599, Pitch_bend_c, 12, 6144
7, 28601, Pitch_bend_c, 12, 6656
7, 28604, Pitch_bend_c, 12, 7168
7, 28606, Pitch_bend_c, 12, 7680
7, 28608, Pitch_bend_c, 12, 8192
7, 28608, End_track
8, 0, Start_track
8, 0, Title_t, "Ahh-Harmony"
8, 0, Program_c, 7, 52
8, 0, Control_c, 7, 10, 10
8, 9961, Note_on_c, 7, 72, 127
8, 10080, Note_on_c, 7, 72, 0
8, 10084, Note_on_c, 7, 71, 127
8, 10444, Note_on_c, 7, 71, 0
8, 12840, Note_on_c, 7, 72, 127
8, 12962, Note_on_c, 7, 72, 0
8, 12964, Note_on_c, 7, 71, 127
8, 13402, Note_on_c, 7, 71, 0
8, 24844, Note_on_c, 7, 72, 95
8, 24963, Note_on_c, 7, 72, 0
8, 24967, Note_on_c, 7, 71, 95
8, 25327, Note_on_c, 7, 71, 0
8, 27723, Note_on_c, 7, 72, 95
8, 27840, Note_on_c, 7, 71, 95
8, 27845, Note_on_c, 7, 72, 0
8, 28240, Note_on_c, 7, 71, 0
8, 28240, End_track
9, 0, Start_track
9, 0, Title_t, "Sax"
9, 0, Program_c, 11, 66
9, 0, Control_c, 11, 7, 127
9, 0, Control_c, 11, 10, 100
9, 17522, Note_on_c, 11, 59, 127
9, 17601, Note_on_c, 11, 60, 127
9, 17607, Note_on_c, 11, 59, 0
9, 17669, Note_on_c, 11, 62, 127
9, 17676, Note_on_c, 11, 60, 0
9, 17729, Note_on_c, 11, 62, 0
9, 17751, Note_on_c, 11, 62, 127
9, 17842, Note_on_c, 11, 60, 127
9, 17851, Note_on_c, 11, 62, 0
9, 17949, Note_on_c, 11, 60, 0
9, 17953, Note_on_c, 11, 59, 127
9, 17985, Note_on_c, 11, 59, 0
9, 17988, Note_on_c, 11, 60, 127
9, 18039, Note_on_c, 11, 57, 127
9, 18042, Note_on_c, 11, 60, 0
9, 18435, Note_on_c, 11, 57, 0
9, 18482, Note_on_c, 11, 62, 127
9, 18544, Note_on_c, 11, 60, 127
9, 18557, Note_on_c, 11, 62, 0
9, 18655, Note_on_c, 11, 60, 0
9, 18661, Note_on_c, 11, 59, 123
9, 18688, Note_on_c, 11, 60, 127
9, 18692, Note_on_c, 11, 59, 0
9, 18719, Note_on_c, 11, 60, 0
9, 18721, Note_on_c, 11, 59, 127
9, 19201, Note_on_c, 11, 59, 0
9, 32402, Note_on_c, 11, 59, 118
9, 32481, Note_on_c, 11, 60, 118
9, 32487, Note_on_c, 11, 59, 0
9, 32549, Note_on_c, 11, 62, 127
9, 32556, Note_on_c, 11, 60, 0
9, 32609, Note_on_c, 11, 62, 0
9, 32631, Note_on_c, 11, 62, 127
9, 32722, Note_on_c, 11, 60, 118
9, 32731, Note_on_c, 11, 62, 0
9, 32829, Note_on_c, 11, 60, 0
9, 32833, Note_on_c, 11, 59, 118
9, 32865, Note_on_c, 11, 59, 0
9, 32868, Note_on_c, 11, 60, 127
9, 32919, Note_on_c, 11, 57, 118
9, 32922, Note_on_c, 11, 60, 0
9, 33315, Note_on_c, 11, 57, 0
9, 33362, Note_on_c, 11, 62, 118
9, 33424, Note_on_c, 11, 60, 118
9, 33437, Note_on_c, 11, 62, 0
9, 33535, Note_on_c, 11, 60, 0
9, 33541, Note_on_c, 11, 59, 103
9, 33568, Note_on_c, 11, 60, 118
9, 33572, Note_on_c, 11, 59, 0
9, 33599, Note_on_c, 11, 60, 0
9, 33601, Note_on_c, 11, 59, 127
9, 34081, Note_on_c, 11, 59, 0
9, 34081, End_track
10, 0, Start_track
10, 0, Title_t, "David"
10, 0, Program_c, 10, 18
10, 0, Control_c, 10, 7, 127
10, 18840, Note_on_c, 10, 62, 103
10, 18900, Note_on_c, 10, 62, 0
10, 18900, Note_on_c, 10, 64, 118
10, 18960, Note_on_c, 10, 64, 0
10, 18960, Note_on_c, 10, 67, 103
10, 19020, Note_on_c, 10, 67, 0
10, 19020, Note_on_c, 10, 69, 83
10, 19080, Note_on_c, 10, 69, 0
10, 19080, Note_on_c, 10, 71, 83
10, 19140, Note_on_c, 10, 71, 0
10, 19147, Note_on_c, 10, 76, 118
10, 19237, Note_on_c, 10, 76, 0
10, 19244, Note_on_c, 10, 79, 92
10, 19263, Note_on_c, 10, 79, 0
10, 19271, Note_on_c, 10, 76, 92
10, 19329, Note_on_c, 10, 76, 0
10, 19330, Note_on_c, 10, 74, 103
10, 19457, Note_on_c, 10, 74, 0
10, 19470, Note_on_c, 10, 72, 103
10, 19500, Note_on_c, 10, 72, 0
10, 19500, Note_on_c, 10, 71, 103
10, 19560, Note_on_c, 10, 71, 0
10, 19560, Note_on_c, 10, 69, 83
10, 19590, Note_on_c, 10, 69, 0
10, 19590, Note_on_c, 10, 71, 103
10, 19680, Note_on_c, 10, 71, 0
10, 19680, Note_on_c, 10, 67, 118
10, 19920, Note_on_c, 10, 67, 0
10, 19971, Note_on_c, 10, 74, 118
10, 20007, Note_on_c, 10, 74, 0
10, 20033, Note_on_c, 10, 76, 118
10, 20066, Note_on_c, 10, 76, 0
10, 20090, Note_on_c, 10, 74, 103
10, 20121, Note_on_c, 10, 74, 0
10, 20158, Note_on_c, 10, 72, 118
10, 20181, Note_on_c, 10, 72, 0
10, 20184, Note_on_c, 10, 76, 118
10, 20648, Note_on_c, 10, 76, 0
10, 23043, Note_on_c, 10, 79, 127
10, 23132, Note_on_c, 10, 79, 0
10, 23165, Note_on_c, 10, 78, 123
10, 23250, Note_on_c, 10, 78, 0
10, 23274, Note_on_c, 10, 76, 118
10, 23297, Note_on_c, 10, 76, 0
10, 23331, Note_on_c, 10, 78, 123
10, 23353, Note_on_c, 10, 78, 0
10, 23399, Note_on_c, 10, 74, 127
10, 23486, Note_on_c, 10, 74, 0
10, 23516, Note_on_c, 10, 72, 127
10, 23541, Note_on_c, 10, 72, 0
10, 23576, Note_on_c, 10, 72, 127
10, 23604, Note_on_c, 10, 72, 0
10, 23639, Note_on_c, 10, 71, 118
10, 23652, Note_on_c, 10, 71, 0
10, 23669, Note_on_c, 10, 71, 118
10, 23713, Note_on_c, 10, 71, 0
10, 23756, Note_on_c, 10, 69, 127
10, 23782, Note_on_c, 10, 69, 0
10, 23815, Note_on_c, 10, 71, 118
10, 23840, Note_on_c, 10, 71, 0
10, 23879, Note_on_c, 10, 67, 127
10, 23960, Note_on_c, 10, 67, 0
10, 24000, Note_on_c, 10, 69, 127
10, 24020, Note_on_c, 10, 69, 0
10, 24060, Note_on_c, 10, 69, 127
10, 24086, Note_on_c, 10, 69, 0
10, 24118, Note_on_c, 10, 72, 127
10, 24140, Note_on_c, 10, 72, 0
10, 24178, Note_on_c, 10, 76, 118
10, 24745, Note_on_c, 10, 76, 0
10, 24829, Note_on_c, 10, 76, 127
10, 24960, Pitch_bend_c, 10, 7680
10, 24963, Pitch_bend_c, 10, 7168
10, 24965, Pitch_bend_c, 10, 6656
10, 24967, Pitch_bend_c, 10, 6144
10, 24969, Pitch_bend_c, 10, 5632
10, 24971, Pitch_bend_c, 10, 5120
10, 24973, Pitch_bend_c, 10, 4608
10, 24975, Pitch_bend_c, 10, 4096
10, 24977, Pitch_bend_c, 10, 3584
10, 24979, Pitch_bend_c, 10, 3072
10, 24982, Pitch_bend_c, 10, 2560
10, 24984, Pitch_bend_c, 10, 2048
10, 24987, Pitch_bend_c, 10, 1536
10, 24989, Pitch_bend_c, 10, 1024
10, 24991, Pitch_bend_c, 10, 512
10, 24993, Pitch_bend_c, 10, 0
10, 25367, Note_on_c, 10, 76, 0
10, 25657, Pitch_bend_c, 10, 512
10, 25660, Pitch_bend_c, 10, 1024
10, 25661, Pitch_bend_c, 10, 1536
10, 25663, Pitch_bend_c, 10, 2048
10, 25667, Pitch_bend_c, 10, 2560
10, 25669, Pitch_bend_c, 10, 3072
10, 25671, Pitch_bend_c, 10, 3584
10, 25673, Pitch_bend_c, 10, 4096
10, 25674, Pitch_bend_c, 10, 4608
10, 25676, Pitch_bend_c, 10, 5120
10, 25678, Pitch_bend_c, 10, 5632
10, 25680, Pitch_bend_c, 10, 6144
10, 25684, Pitch_bend_c, 10, 6656
10, 25686, Pitch_bend_c, 10, 7168
10, 25687, Pitch_bend_c, 10, 7680
10, 25689, Pitch_bend_c, 10, 8192
10, 25920, Note_on_c, 10, 79, 127
10, 26005, Note_on_c, 10, 79, 0
10, 26043, Note_on_c, 10, 78, 127
10, 26124, Note_on_c, 10, 78, 0
10, 26158, Note_on_c, 10, 76, 103
10, 26183, Note_on_c, 10, 76, 0
10, 26218, Note_on_c, 10, 78, 127
10, 26241, Note_on_c, 10, 78, 0
10, 26280, Note_on_c, 10, 74, 127
10, 26353, Note_on_c, 10, 74, 0
10, 26398, Note_on_c, 10, 72, 103
10, 26409, Note_on_c, 10, 72, 0
10, 26425, Note_on_c, 10, 72, 103
10, 26437, Note_on_c, 10, 72, 0
10, 26450, Note_on_c, 10, 72, 103
10, 26467, Note_on_c, 10, 72, 0
10, 26512, Note_on_c, 10, 71, 127
10, 26584, Note_on_c, 10, 71, 0
10, 26633, Note_on_c, 10, 69, 118
10, 26645, Note_on_c, 10, 69, 0
10, 26661, Note_on_c, 10, 69, 103
10, 26676, Note_on_c, 10, 69, 0
10, 26694, Note_on_c, 10, 71, 127
10, 26715, Note_on_c, 10, 71, 0
10, 26757, Note_on_c, 10, 67, 118
10, 26839, Note_on_c, 10, 67, 0
10, 26877, Note_on_c, 10, 69, 127
10, 26959, Note_on_c, 10, 69, 0
10, 26995, Note_on_c, 10, 72, 118
10, 27016, Note_on_c, 10, 72, 0
10, 27058, Note_on_c, 10, 76, 127
10, 27625, Note_on_c, 10, 76, 0
10, 27712, Note_on_c, 10, 76, 127
10, 27830, Pitch_bend_c, 10, 7680
10, 27832, Pitch_bend_c, 10, 7168
10, 27834, Pitch_bend_c, 10, 6656
10, 27836, Pitch_bend_c, 10, 6144
10, 27838, Pitch_bend_c, 10, 5632
10, 27840, Pitch_bend_c, 10, 5120
10, 27842, Pitch_bend_c, 10, 4608
10, 27844, Pitch_bend_c, 10, 4096
10, 27847, Pitch_bend_c, 10, 3584
10, 27848, Pitch_bend_c, 10, 3072
10, 27850, Pitch_bend_c, 10, 2560
10, 27852, Pitch_bend_c, 10, 2048
10, 27854, Pitch_bend_c, 10, 1536
10, 27856, Pitch_bend_c, 10, 1024
10, 27859, Pitch_bend_c, 10, 512
10, 27861, Pitch_bend_c, 10, 0
10, 28324, Note_on_c, 10, 76, 0
10, 28572, Pitch_bend_c, 10, 512
10, 28574, Pitch_bend_c, 10, 1024
10, 28577, Pitch_bend_c, 10, 1536
10, 28579, Pitch_bend_c, 10, 2048
10, 28582, Pitch_bend_c, 10, 2560
10, 28583, Pitch_bend_c, 10, 3072
10, 28585, Pitch_bend_c, 10, 3584
10, 28587, Pitch_bend_c, 10, 4096
10, 28589, Pitch_bend_c, 10, 4608
10, 28591, Pitch_bend_c, 10, 5120
10, 28594, Pitch_bend_c, 10, 5632
10, 28596, Pitch_bend_c, 10, 6144
10, 28599, Pitch_bend_c, 10, 6656
10, 28601, Pitch_bend_c, 10, 7168
10, 28603, Pitch_bend_c, 10, 7680
10, 28605, Pitch_bend_c, 10, 8192
10, 28794, Note_on_c, 10, 68, 91
10, 28805, Note_on_c, 10, 69, 103
10, 28812, Note_on_c, 10, 68, 0
10, 28899, Note_on_c, 10, 69, 0
10, 28899, Note_on_c, 10, 71, 118
10, 28904, Note_on_c, 10, 69, 73
10, 28911, Note_on_c, 10, 69, 0
10, 28984, Note_on_c, 10, 69, 127
10, 28992, Note_on_c, 10, 71, 0
10, 29091, Note_on_c, 10, 69, 0
10, 29101, Note_on_c, 10, 67, 118
10, 29120, Note_on_c, 10, 67, 0
10, 29160, Note_on_c, 10, 67, 127
10, 29262, Note_on_c, 10, 68, 108
10, 29268, Note_on_c, 10, 67, 0
10, 29272, Note_on_c, 10, 69, 77
10, 29280, Note_on_c, 10, 68, 0
10, 29309, Note_on_c, 10, 69, 0
10, 29342, Note_on_c, 10, 69, 118
10, 29362, Note_on_c, 10, 69, 0
10, 29401, Note_on_c, 10, 69, 118
10, 29450, Note_on_c, 10, 69, 0
10, 29461, Note_on_c, 10, 71, 77
10, 29487, Note_on_c, 10, 69, 127
10, 29510, Note_on_c, 10, 71, 0
10, 29578, Note_on_c, 10, 67, 118
10, 29593, Note_on_c, 10, 69, 0
10, 29633, Note_on_c, 10, 64, 103
10, 29639, Note_on_c, 10, 67, 0
10, 29695, Note_on_c, 10, 62, 103
10, 29706, Note_on_c, 10, 64, 0
10, 29755, Note_on_c, 10, 62, 0
10, 29757, Note_on_c, 10, 59, 103
10, 29758, Note_on_c, 10, 57, 83
10, 29760, Note_on_c, 10, 57, 0
10, 29785, Note_on_c, 10, 62, 118
10, 29790, Note_on_c, 10, 59, 0
10, 30560, Note_on_c, 10, 62, 0
10, 30698, Note_on_c, 10, 68, 123
10, 30699, Note_on_c, 10, 67, 63
10, 30704, Note_on_c, 10, 67, 0
10, 30715, Note_on_c, 10, 69, 83
10, 30721, Note_on_c, 10, 68, 0
10, 30810, Note_on_c, 10, 69, 0
10, 30810, Note_on_c, 10, 71, 118
10, 30816, Note_on_c, 10, 69, 70
10, 30822, Note_on_c, 10, 69, 0
10, 30893, Note_on_c, 10, 69, 118
10, 30901, Note_on_c, 10, 71, 0
10, 31007, Note_on_c, 10, 69, 0
10, 31015, Note_on_c, 10, 67, 127
10, 31037, Note_on_c, 10, 67, 0
10, 31075, Note_on_c, 10, 67, 127
10, 31176, Note_on_c, 10, 68, 108
10, 31183, Note_on_c, 10, 67, 0
10, 31188, Note_on_c, 10, 69, 77
10, 31196, Note_on_c, 10, 68, 0
10, 31221, Note_on_c, 10, 69, 0
10, 31253, Note_on_c, 10, 69, 127
10, 31273, Note_on_c, 10, 69, 0
10, 31314, Note_on_c, 10, 69, 127
10, 31359, Note_on_c, 10, 69, 0
10, 31373, Note_on_c, 10, 71, 70
10, 31400, Note_on_c, 10, 69, 127
10, 31408, Note_on_c, 10, 71, 0
10, 31496, Note_on_c, 10, 67, 118
10, 31510, Note_on_c, 10, 69, 0
10, 31558, Note_on_c, 10, 64, 103
10, 31561, Note_on_c, 10, 67, 0
10, 31615, Note_on_c, 10, 62, 118
10, 31624, Note_on_c, 10, 64, 0
10, 31677, Note_on_c, 10, 62, 0
10, 31682, Note_on_c, 10, 59, 103
10, 31707, Note_on_c, 10, 62, 118
10, 31712, Note_on_c, 10, 59, 0
10, 32379, Note_on_c, 10, 62, 0
10, 32403, Note_on_c, 10, 71, 118
10, 32482, Note_on_c, 10, 72, 118
10, 32488, Note_on_c, 10, 71, 0
10, 32550, Note_on_c, 10, 74, 127
10, 32557, Note_on_c, 10, 72, 0
10, 32610, Note_on_c, 10, 74, 0
10, 32632, Note_on_c, 10, 74, 127
10, 32723, Note_on_c, 10, 72, 118
10, 32732, Note_on_c, 10, 74, 0
10, 32830, Note_on_c, 10, 72, 0
10, 32834, Note_on_c, 10, 71, 118
10, 32866, Note_on_c, 10, 71, 0
10, 32869, Note_on_c, 10, 72, 127
10, 32920, Note_on_c, 10, 69, 118
10, 32923, Note_on_c, 10, 72, 0
10, 33316, Note_on_c, 10, 69, 0
10, 33363, Note_on_c, 10, 74, 118
10, 33425, Note_on_c, 10, 72, 118
10, 33438, Note_on_c, 10, 74, 0
10, 33536, Note_on_c, 10, 72, 0
10, 33542, Note_on_c, 10, 71, 103
10, 33569, Note_on_c, 10, 72, 118
10, 33573, Note_on_c, 10, 71, 0
10, 33600, Note_on_c, 10, 72, 0
10, 33602, Note_on_c, 10, 71, 127
10, 33723, Note_on_c, 10, 62, 103
10, 33783, Note_on_c, 10, 62, 0
10, 33783, Note_on_c, 10, 64, 118
10, 33843, Note_on_c, 10, 64, 0
10, 33843, Note_on_c, 10, 67, 103
10, 33903, Note_on_c, 10, 67, 0
10, 33903, Note_on_c, 10, 69, 83
10, 33963, Note_on_c, 10, 69, 0
10, 33963, Note_on_c, 10, 71, 83
10, 34023, Note_on_c, 10, 71, 0
10, 34030, Note_on_c, 10, 76, 118
10, 34037, Note_on_c, 10, 71, 0
10, 34113, Note_on_c, 10, 76, 0
10, 34116, Note_on_c, 10, 79, 92
10, 34147, Note_on_c, 10, 79, 0
10, 34150, Note_on_c, 10, 76, 92
10, 34208, Note_on_c, 10, 76, 0
10, 34213, Note_on_c, 10, 74, 103
10, 34340, Note_on_c, 10, 74, 0
10, 34353, Note_on_c, 10, 72, 103
10, 34383, Note_on_c, 10, 72, 0
10, 34383, Note_on_c, 10, 71, 103
10, 34443, Note_on_c, 10, 71, 0
10, 34443, Note_on_c, 10, 69, 83
10, 34473, Note_on_c, 10, 69, 0
10, 34473, Note_on_c, 10, 71, 103
10, 34563, Note_on_c, 10, 71, 0
10, 34563, Note_on_c, 10, 67, 118
10, 34803, Note_on_c, 10, 67, 0
10, 34863, Note_on_c, 10, 74, 118
10, 34899, Note_on_c, 10, 74, 0
10, 34925, Note_on_c, 10, 76, 118
10, 34958, Note_on_c, 10, 76, 0
10, 34982, Note_on_c, 10, 74, 103
10, 35013, Note_on_c, 10, 74, 0
10, 35050, Note_on_c, 10, 72, 118
10, 35073, Note_on_c, 10, 72, 0
10, 35076, Note_on_c, 10, 76, 118
10, 35883, Note_on_c, 10, 76, 0
10, 35883, End_track
11, 0, Start_track
11, 0, Title_t, "Ooo-ooo"
11, 0, Program_c, 8, 53
11, 0, Control_c, 8, 7, 110
11, 0, Control_c, 8, 10, 20
11, 15658, Note_on_c, 8, 71, 127
11, 15679, Note_on_c, 8, 71, 0
11, 15715, Note_on_c, 8, 69, 127
11, 15735, Note_on_c, 8, 69, 0
11, 15774, Note_on_c, 8, 67, 127
11, 15792, Note_on_c, 8, 67, 0
11, 15833, Note_on_c, 8, 69, 127
11, 15916, Pitch_bend_c, 8, 8704
11, 15918, Pitch_bend_c, 8, 9216
11, 15920, Pitch_bend_c, 8, 9728
11, 15922, Pitch_bend_c, 8, 10240
11, 15925, Pitch_bend_c, 8, 10752
11, 15926, Pitch_bend_c, 8, 11264
11, 15929, Pitch_bend_c, 8, 11776
11, 15931, Pitch_bend_c, 8, 12288
11, 15933, Pitch_bend_c, 8, 12800
11, 15935, Pitch_bend_c, 8, 13312
11, 15937, Pitch_bend_c, 8, 13824
11, 15939, Pitch_bend_c, 8, 14336
11, 15941, Pitch_bend_c, 8, 14848
11, 15944, Pitch_bend_c, 8, 15360
11, 15946, Pitch_bend_c, 8, 15872
11, 15948, Pitch_bend_c, 8, 16383
11, 16013, Pitch_bend_c, 8, 15808
11, 16016, Pitch_bend_c, 8, 15296
11, 16018, Pitch_bend_c, 8, 14784
11, 16020, Pitch_bend_c, 8, 14272
11, 16023, Pitch_bend_c, 8, 13760
11, 16025, Pitch_bend_c, 8, 13248
11, 16027, Pitch_bend_c, 8, 12736
11, 16029, Pitch_bend_c, 8, 12224
11, 16030, Pitch_bend_c, 8, 11712
11, 16033, Pitch_bend_c, 8, 11200
11, 16035, Pitch_bend_c, 8, 10688
11, 16037, Pitch_bend_c, 8, 10176
11, 16039, Pitch_bend_c, 8, 9664
11, 16041, Pitch_bend_c, 8, 9152
11, 16043, Pitch_bend_c, 8, 8640
11, 16045, Pitch_bend_c, 8, 8192
11, 16131, Note_on_c, 8, 67, 123
11, 16133, Note_on_c, 8, 69, 0
11, 16155, Note_on_c, 8, 67, 0
11, 16190, Note_on_c, 8, 67, 127
11, 16249, Note_on_c, 8, 67, 0
11, 16311, Note_on_c, 8, 69, 127
11, 16404, Pitch_bend_c, 8, 8704
11, 16406, Pitch_bend_c, 8, 9216
11, 16408, Pitch_bend_c, 8, 9728
11, 16412, Pitch_bend_c, 8, 10240
11, 16414, Pitch_bend_c, 8, 10752
11, 16416, Pitch_bend_c, 8, 11264
11, 16418, Pitch_bend_c, 8, 11776
11, 16419, Pitch_bend_c, 8, 12288
11, 16422, Pitch_bend_c, 8, 12800
11, 16424, Pitch_bend_c, 8, 13312
11, 16425, Pitch_bend_c, 8, 13824
11, 16428, Pitch_bend_c, 8, 14336
11, 16430, Pitch_bend_c, 8, 14848
11, 16432, Pitch_bend_c, 8, 15360
11, 16434, Pitch_bend_c, 8, 15872
11, 16436, Pitch_bend_c, 8, 16383
11, 16498, Pitch_bend_c, 8, 15808
11, 16500, Pitch_bend_c, 8, 15296
11, 16502, Pitch_bend_c, 8, 14784
11, 16504, Pitch_bend_c, 8, 14272
11, 16506, Pitch_bend_c, 8, 13760
11, 16508, Pitch_bend_c, 8, 13248
11, 16510, Pitch_bend_c, 8, 12736
11, 16513, Pitch_bend_c, 8, 12224
11, 16515, Pitch_bend_c, 8, 11712
11, 16517, Pitch_bend_c, 8, 11200
11, 16520, Pitch_bend_c, 8, 10688
11, 16522, Pitch_bend_c, 8, 10176
11, 16524, Pitch_bend_c, 8, 9664
11, 16525, Pitch_bend_c, 8, 9152
11, 16527, Pitch_bend_c, 8, 8640
11, 16530, Pitch_bend_c, 8, 8192
11, 16605, Note_on_c, 8, 69, 0
11, 16621, Note_on_c, 8, 67, 127
11, 16645, Note_on_c, 8, 67, 0
11, 16680, Note_on_c, 8, 67, 127
11, 16741, Note_on_c, 8, 69, 123
11, 16748, Note_on_c, 8, 67, 0
11, 16770, Note_on_c, 8, 71, 123
11, 16775, Note_on_c, 8, 69, 0
11, 16793, Note_on_c, 8, 67, 123
11, 16795, Note_on_c, 8, 71, 0
11, 17190, Note_on_c, 8, 67, 0
11, 17212, Note_on_c, 8, 69, 127
11, 17238, Note_on_c, 8, 69, 0
11, 17240, Note_on_c, 8, 71, 110
11, 17266, Note_on_c, 8, 71, 0
11, 17273, Note_on_c, 8, 67, 127
11, 17717, Note_on_c, 8, 67, 0
11, 30538, Note_on_c, 8, 71, 127
11, 30559, Note_on_c, 8, 71, 0
11, 30595, Note_on_c, 8, 69, 127
11, 30615, Note_on_c, 8, 69, 0
11, 30654, Note_on_c, 8, 67, 127
11, 30672, Note_on_c, 8, 67, 0
11, 30713, Note_on_c, 8, 69, 127
11, 30796, Pitch_bend_c, 8, 8704
11, 30798, Pitch_bend_c, 8, 9216
11, 30800, Pitch_bend_c, 8, 9728
11, 30802, Pitch_bend_c, 8, 10240
11, 30805, Pitch_bend_c, 8, 10752
11, 30806, Pitch_bend_c, 8, 11264
11, 30809, Pitch_bend_c, 8, 11776
11, 30811, Pitch_bend_c, 8, 12288
11, 30813, Pitch_bend_c, 8, 12800
11, 30815, Pitch_bend_c, 8, 13312
11, 30817, Pitch_bend_c, 8, 13824
11, 30819, Pitch_bend_c, 8, 14336
11, 30821, Pitch_bend_c, 8, 14848
11, 30824, Pitch_bend_c, 8, 15360
11, 30826, Pitch_bend_c, 8, 15872
11, 30828, Pitch_bend_c, 8, 16383
11, 30893, Pitch_bend_c, 8, 15808
11, 30896, Pitch_bend_c, 8, 15296
11, 30898, Pitch_bend_c, 8, 14784
11, 30900, Pitch_bend_c, 8, 14272
11, 30903, Pitch_bend_c, 8, 13760
11, 30905, Pitch_bend_c, 8, 13248
11, 30907, Pitch_bend_c, 8, 12736
11, 30909, Pitch_bend_c, 8, 12224
11, 30910, Pitch_bend_c, 8, 11712
11, 30913, Pitch_bend_c, 8, 11200
11, 30915, Pitch_bend_c, 8, 10688
11, 30917, Pitch_bend_c, 8, 10176
11, 30919, Pitch_bend_c, 8, 9664
11, 30921, Pitch_bend_c, 8, 9152
11, 30923, Pitch_bend_c, 8, 8640
11, 30925, Pitch_bend_c, 8, 8192
11, 31011, Note_on_c, 8, 67, 123
11, 31013, Note_on_c, 8, 69, 0
11, 31035, Note_on_c, 8, 67, 0
11, 31070, Note_on_c, 8, 67, 127
11, 31129, Note_on_c, 8, 67, 0
11, 31191, Note_on_c, 8, 69, 127
11, 31284, Pitch_bend_c, 8, 8704
11, 31286, Pitch_bend_c, 8, 9216
11, 31288, Pitch_bend_c, 8, 9728
11, 31292, Pitch_bend_c, 8, 10240
11, 31294, Pitch_bend_c, 8, 10752
11, 31296, Pitch_bend_c, 8, 11264
11, 31298, Pitch_bend_c, 8, 11776
11, 31299, Pitch_bend_c, 8, 12288
11, 31302, Pitch_bend_c, 8, 12800
11, 31304, Pitch_bend_c, 8, 13312
11, 31305, Pitch_bend_c, 8, 13824
11, 31308, Pitch_bend_c, 8, 14336
11, 31310, Pitch_bend_c, 8, 14848
11, 31312, Pitch_bend_c, 8, 15360
11, 31314, Pitch_bend_c, 8, 15872
11, 31316, Pitch_bend_c, 8, 16383
11, 31378, Pitch_bend_c, 8, 15808
11, 31380, Pitch_bend_c, 8, 15296
11, 31382, Pitch_bend_c, 8, 14784
11, 31384, Pitch_bend_c, 8, 14272
11, 31386, Pitch_bend_c, 8, 13760
11, 31388, Pitch_bend_c, 8, 13248
11, 31390, Pitch_bend_c, 8, 12736
11, 31393, Pitch_bend_c, 8, 12224
11, 31395, Pitch_bend_c, 8, 11712
11, 31397, Pitch_bend_c, 8, 11200
11, 31400, Pitch_bend_c, 8, 10688
11, 31402, Pitch_bend_c, 8, 10176
11, 31404, Pitch_bend_c, 8, 9664
11, 31405, Pitch_bend_c, 8, 9152
11, 31407, Pitch_bend_c, 8, 8640
11, 31410, Pitch_bend_c, 8, 8192
11, 31485, Note_on_c, 8, 69, 0
11, 31501, Note_on_c, 8, 67, 127
11, 31525, Note_on_c, 8, 67, 0
11, 31560, Note_on_c, 8, 67, 127
11, 31621, Note_on_c, 8, 69, 123
11, 31628, Note_on_c, 8, 67, 0
11, 31650, Note_on_c, 8, 71, 123
11, 31655, Note_on_c, 8, 69, 0
11, 31673, Note_on_c, 8, 67, 123
11, 31675, Note_on_c, 8, 71, 0
11, 32070, Note_on_c, 8, 67, 0
11, 32092, Note_on_c, 8, 69, 127
11, 32118, Note_on_c, 8, 69, 0
11, 32120, Note_on_c, 8, 71, 110
11, 32146, Note_on_c, 8, 71, 0
11, 32153, Note_on_c, 8, 67, 127
11, 32597, Note_on_c, 8, 67, 0
11, 32597, End_track
12, 0, Start_track
12, 0, Title_t, "Sound and Vision"
12, 0, End_track
13, 0, Start_track
13, 0, Title_t, "by"
13, 0, End_track
14, 0, Start_track
14, 0, Title_t, "David Bowie"
14, 0, End_track
15, 0, Start_track
15, 0, Title_t, "Sequenced"
15, 0, End_track
16, 0, Start_track
16, 0, Title_t, "by"
16, 0, End_track
17, 0, Start_track
17, 0, Title_t, "DaveP"
17, 0, End_track
0, 0, End_of_file
