0, 0, Header, 1, 17, 480
1, 0, Start_track
1, 0, Time_signature, 4, 2, 24, 8
1, 0, Title_t, "nameless"
1, 0, Tempo, 300000
1, 1920, Tempo, 300000
1, 3840, Tempo, 882352
1, 92160, Time_signature, 2, 2, 24, 8
1, 93120, Time_signature, 4, 2, 24, 8
1, 143040, Time_signature, 2, 2, 24, 8
1, 144000, Time_signature, 4, 2, 24, 8
1, 182400, Tempo, 1500000
1, 184320, End_track
2, 0, Start_track
2, 0, Key_signature, 0, "major"
2, 1, System_exclusive, 10, 65, 16, 66, 18, 64, 0, 127, 0, 65, 247
2, 1, System_exclusive, 25, 65, 16, 66, 18, 64, 1, 16, 2, 0, 1, 3, 2, 2, 2, 2, 2, 2, 1, 1, 1, 1, 1, 1, 23, 247
2, 1, System_exclusive, 10, 65, 16, 66, 18, 64, 1, 51, 90, 50, 247
2, 1, System_exclusive, 10, 65, 16, 66, 18, 64, 1, 58, 90, 43, 247
2, 2, Control_c, 0, 99, 1
2, 2, Control_c, 0, 98, 8
2, 2, Control_c, 0, 6, 64
2, 3, Control_c, 0, 99, 1
2, 3, Control_c, 0, 98, 9
2, 3, Control_c, 0, 6, 64
2, 4, Control_c, 0, 99, 1
2, 4, Control_c, 0, 98, 10
2, 4, Control_c, 0, 6, 64
2, 5, Control_c, 0, 99, 1
2, 5, Control_c, 0, 98, 32
2, 5, Control_c, 0, 6, 64
2, 6, Control_c, 0, 99, 1
2, 6, Control_c, 0, 98, 33
2, 6, Control_c, 0, 6, 64
2, 7, Control_c, 0, 99, 1
2, 7, Control_c, 0, 98, 99
2, 7, Control_c, 0, 6, 64
2, 8, Control_c, 0, 99, 1
2, 8, Control_c, 0, 98, 100
2, 8, Control_c, 0, 6, 64
2, 9, Control_c, 0, 99, 1
2, 9, Control_c, 0, 98, 102
2, 9, Control_c, 0, 6, 64
2, 10, Control_c, 0, 0, 0
2, 11, Program_c, 0, 0
2, 12, Control_c, 0, 101, 0
2, 12, Control_c, 0, 100, 0
2, 12, Control_c, 0, 6, 2
2, 12, Title_t, "M #1"
2, 12, Channel_prefix, 0
2, 12, Instrument_name_t, "M #1"
2, 2405, Control_c, 0, 32, 0
2, 184320, End_track
3, 0, Start_track
3, 0, Key_signature, 0, "major"
3, 1, Control_c, 1, 99, 1
3, 1, Control_c, 1, 98, 8
3, 1, Control_c, 1, 6, 64
3, 2, Control_c, 1, 99, 1
3, 2, Control_c, 1, 98, 9
3, 2, Control_c, 1, 6, 64
3, 3, Control_c, 1, 99, 1
3, 3, Control_c, 1, 98, 10
3, 3, Control_c, 1, 6, 64
3, 4, Control_c, 1, 99, 1
3, 4, Control_c, 1, 98, 32
3, 4, Control_c, 1, 6, 64
3, 5, Control_c, 1, 99, 1
3, 5, Control_c, 1, 98, 33
3, 5, Control_c, 1, 6, 64
3, 6, Control_c, 1, 99, 1
3, 6, Control_c, 1, 98, 99
3, 6, Control_c, 1, 6, 64
3, 7, Control_c, 1, 99, 1
3, 7, Control_c, 1, 98, 100
3, 7, Control_c, 1, 6, 64
3, 8, Control_c, 1, 99, 1
3, 8, Control_c, 1, 98, 102
3, 8, Control_c, 1, 6, 64
3, 9, Control_c, 1, 0, 0
3, 10, Program_c, 1, 33
3, 11, Control_c, 1, 7, 100
3, 12, Control_c, 1, 10, 64
3, 13, Control_c, 1, 91, 60
3, 14, Control_c, 1, 93, 50
3, 15, Control_c, 1, 101, 0
3, 15, Control_c, 1, 100, 0
3, 15, Control_c, 1, 6, 2
3, 15, Title_t, "M #2"
3, 15, Channel_prefix, 1
3, 15, Instrument_name_t, "M #2"
3, 2325, Control_c, 1, 121, 0
3, 2430, Control_c, 1, 32, 0
3, 2440, Control_c, 1, 11, 127
3, 2905, Control_c, 1, 101, 0
3, 2910, Control_c, 1, 100, 0
3, 2915, Control_c, 1, 6, 12
3, 2920, Control_c, 1, 101, 127
3, 2925, Control_c, 1, 100, 127
3, 21120, Note_on_c, 1, 28, 127
3, 22300, Note_off_c, 1, 28, 127
3, 22560, Note_on_c, 1, 40, 127
3, 22775, Pitch_bend_c, 1, 8109
3, 22780, Pitch_bend_c, 1, 7612
3, 22790, Pitch_bend_c, 1, 7033
3, 22795, Pitch_bend_c, 1, 6454
3, 22805, Pitch_bend_c, 1, 6040
3, 22815, Pitch_bend_c, 1, 5626
3, 22820, Pitch_bend_c, 1, 5295
3, 22830, Pitch_bend_c, 1, 5047
3, 22835, Pitch_bend_c, 1, 4882
3, 22845, Pitch_bend_c, 1, 4468
3, 22850, Pitch_bend_c, 1, 4137
3, 22860, Pitch_bend_c, 1, 3806
3, 22865, Pitch_bend_c, 1, 3558
3, 22875, Pitch_bend_c, 1, 3309
3, 22880, Pitch_bend_c, 1, 3061
3, 22890, Pitch_bend_c, 1, 2896
3, 22900, Pitch_bend_c, 1, 2647
3, 22905, Pitch_bend_c, 1, 2399
3, 22915, Pitch_bend_c, 1, 2316
3, 22920, Pitch_bend_c, 1, 2151
3, 22930, Pitch_bend_c, 1, 2068
3, 22935, Pitch_bend_c, 1, 1985
3, 22945, Pitch_bend_c, 1, 1903
3, 22960, Pitch_bend_c, 1, 1820
3, 23020, Note_off_c, 1, 40, 127
3, 23030, Pitch_bend_c, 1, 1903
3, 23035, Pitch_bend_c, 1, 2730
3, 23040, Note_on_c, 1, 29, 127
3, 23045, Pitch_bend_c, 1, 3806
3, 23050, Pitch_bend_c, 1, 5295
3, 23060, Pitch_bend_c, 1, 7033
3, 23065, Pitch_bend_c, 1, 8192
3, 24940, Note_off_c, 1, 29, 127
3, 24960, Note_on_c, 1, 28, 127
3, 26860, Note_off_c, 1, 28, 127
3, 26880, Note_on_c, 1, 36, 127
3, 27700, Note_off_c, 1, 36, 127
3, 27840, Note_on_c, 1, 36, 127
3, 28780, Note_off_c, 1, 36, 127
3, 28800, Note_on_c, 1, 35, 127
3, 29620, Note_off_c, 1, 35, 127
3, 29760, Note_on_c, 1, 35, 127
3, 30700, Note_off_c, 1, 35, 127
3, 30720, Note_on_c, 1, 36, 127
3, 31540, Note_off_c, 1, 36, 127
3, 31680, Note_on_c, 1, 36, 127
3, 32620, Note_off_c, 1, 36, 127
3, 32640, Note_on_c, 1, 35, 127
3, 33460, Note_off_c, 1, 35, 127
3, 33600, Note_on_c, 1, 35, 127
3, 34075, Pitch_bend_c, 1, 8357
3, 34080, Pitch_bend_c, 1, 8605
3, 34090, Pitch_bend_c, 1, 8853
3, 34095, Pitch_bend_c, 1, 8936
3, 34105, Pitch_bend_c, 1, 9184
3, 34110, Pitch_bend_c, 1, 9267
3, 34125, Pitch_bend_c, 1, 9350
3, 34135, Pitch_bend_c, 1, 9433
3, 34150, Pitch_bend_c, 1, 9515
3, 34155, Pitch_bend_c, 1, 9681
3, 34165, Pitch_bend_c, 1, 9846
3, 34175, Pitch_bend_c, 1, 10012
3, 34180, Pitch_bend_c, 1, 10177
3, 34185, Pitch_bend_c, 1, 10260
3, 34195, Pitch_bend_c, 1, 10343
3, 34205, Pitch_bend_c, 1, 10508
3, 34210, Pitch_bend_c, 1, 10591
3, 34220, Pitch_bend_c, 1, 10756
3, 34225, Pitch_bend_c, 1, 10922
3, 34235, Pitch_bend_c, 1, 11004
3, 34240, Pitch_bend_c, 1, 11170
3, 34250, Pitch_bend_c, 1, 11335
3, 34255, Pitch_bend_c, 1, 11418
3, 34265, Pitch_bend_c, 1, 11501
3, 34275, Pitch_bend_c, 1, 11584
3, 34280, Pitch_bend_c, 1, 11749
3, 34295, Pitch_bend_c, 1, 11832
3, 34310, Pitch_bend_c, 1, 11915
3, 34320, Pitch_bend_c, 1, 11997
3, 34325, Pitch_bend_c, 1, 12080
3, 34335, Pitch_bend_c, 1, 12163
3, 34350, Pitch_bend_c, 1, 12245
3, 34360, Pitch_bend_c, 1, 12411
3, 34365, Pitch_bend_c, 1, 12576
3, 34390, Pitch_bend_c, 1, 12659
3, 34395, Pitch_bend_c, 1, 12742
3, 34405, Pitch_bend_c, 1, 12907
3, 34420, Pitch_bend_c, 1, 12990
3, 34420, Note_off_c, 1, 35, 127
3, 34425, Pitch_bend_c, 1, 13156
3, 34470, Pitch_bend_c, 1, 12245
3, 34480, Pitch_bend_c, 1, 11087
3, 34490, Pitch_bend_c, 1, 9763
3, 34495, Pitch_bend_c, 1, 8605
3, 34505, Pitch_bend_c, 1, 8192
3, 34560, Note_on_c, 1, 33, 105
3, 35500, Note_off_c, 1, 33, 105
3, 35520, Note_on_c, 1, 31, 100
3, 36460, Note_off_c, 1, 31, 100
3, 36480, Note_on_c, 1, 30, 87
3, 38035, Pitch_bend_c, 1, 8274
3, 38045, Pitch_bend_c, 1, 8522
3, 38050, Pitch_bend_c, 1, 8688
3, 38060, Pitch_bend_c, 1, 8853
3, 38065, Pitch_bend_c, 1, 9019
3, 38075, Pitch_bend_c, 1, 9267
3, 38080, Pitch_bend_c, 1, 9350
3, 38090, Pitch_bend_c, 1, 9515
3, 38095, Pitch_bend_c, 1, 9681
3, 38105, Pitch_bend_c, 1, 9763
3, 38115, Pitch_bend_c, 1, 9929
3, 38120, Pitch_bend_c, 1, 10094
3, 38125, Pitch_bend_c, 1, 10260
3, 38135, Pitch_bend_c, 1, 10508
3, 38140, Pitch_bend_c, 1, 10756
3, 38150, Pitch_bend_c, 1, 11004
3, 38160, Pitch_bend_c, 1, 11170
3, 38165, Pitch_bend_c, 1, 11335
3, 38175, Pitch_bend_c, 1, 11584
3, 38180, Pitch_bend_c, 1, 11832
3, 38190, Pitch_bend_c, 1, 11997
3, 38195, Pitch_bend_c, 1, 12163
3, 38205, Pitch_bend_c, 1, 12328
3, 38210, Pitch_bend_c, 1, 12576
3, 38220, Pitch_bend_c, 1, 12659
3, 38225, Pitch_bend_c, 1, 12825
3, 38235, Pitch_bend_c, 1, 12990
3, 38245, Pitch_bend_c, 1, 13238
3, 38335, Pitch_bend_c, 1, 12990
3, 38340, Pitch_bend_c, 1, 12576
3, 38350, Pitch_bend_c, 1, 12163
3, 38355, Pitch_bend_c, 1, 10425
3, 38380, Note_off_c, 1, 30, 87
3, 38395, Pitch_bend_c, 1, 8192
3, 38400, Note_on_c, 1, 36, 127
3, 39220, Note_off_c, 1, 36, 127
3, 39360, Note_on_c, 1, 36, 127
3, 40300, Note_off_c, 1, 36, 127
3, 40320, Note_on_c, 1, 35, 127
3, 41140, Note_off_c, 1, 35, 127
3, 41280, Note_on_c, 1, 35, 127
3, 42220, Note_off_c, 1, 35, 127
3, 42240, Note_on_c, 1, 36, 127
3, 43060, Note_off_c, 1, 36, 127
3, 43200, Note_on_c, 1, 36, 127
3, 44140, Note_off_c, 1, 36, 127
3, 44160, Note_on_c, 1, 35, 127
3, 44980, Note_off_c, 1, 35, 127
3, 45120, Note_on_c, 1, 35, 127
3, 45595, Pitch_bend_c, 1, 8357
3, 45600, Pitch_bend_c, 1, 8605
3, 45610, Pitch_bend_c, 1, 8853
3, 45615, Pitch_bend_c, 1, 8936
3, 45625, Pitch_bend_c, 1, 9184
3, 45630, Pitch_bend_c, 1, 9267
3, 45645, Pitch_bend_c, 1, 9350
3, 45655, Pitch_bend_c, 1, 9433
3, 45670, Pitch_bend_c, 1, 9515
3, 45675, Pitch_bend_c, 1, 9681
3, 45685, Pitch_bend_c, 1, 9846
3, 45695, Pitch_bend_c, 1, 10012
3, 45700, Pitch_bend_c, 1, 10177
3, 45705, Pitch_bend_c, 1, 10260
3, 45715, Pitch_bend_c, 1, 10343
3, 45725, Pitch_bend_c, 1, 10508
3, 45730, Pitch_bend_c, 1, 10591
3, 45740, Pitch_bend_c, 1, 10756
3, 45745, Pitch_bend_c, 1, 10922
3, 45755, Pitch_bend_c, 1, 11004
3, 45760, Pitch_bend_c, 1, 11170
3, 45770, Pitch_bend_c, 1, 11335
3, 45775, Pitch_bend_c, 1, 11418
3, 45785, Pitch_bend_c, 1, 11501
3, 45795, Pitch_bend_c, 1, 11584
3, 45800, Pitch_bend_c, 1, 11749
3, 45815, Pitch_bend_c, 1, 11832
3, 45830, Pitch_bend_c, 1, 11915
3, 45840, Pitch_bend_c, 1, 11997
3, 45845, Pitch_bend_c, 1, 12080
3, 45855, Pitch_bend_c, 1, 12163
3, 45870, Pitch_bend_c, 1, 12245
3, 45880, Pitch_bend_c, 1, 12411
3, 45885, Pitch_bend_c, 1, 12576
3, 45910, Pitch_bend_c, 1, 12659
3, 45915, Pitch_bend_c, 1, 12742
3, 45925, Pitch_bend_c, 1, 12907
3, 45940, Pitch_bend_c, 1, 12990
3, 45940, Note_off_c, 1, 35, 127
3, 45945, Pitch_bend_c, 1, 13156
3, 45990, Pitch_bend_c, 1, 12245
3, 46000, Pitch_bend_c, 1, 11087
3, 46010, Pitch_bend_c, 1, 9763
3, 46015, Pitch_bend_c, 1, 8605
3, 46025, Pitch_bend_c, 1, 8192
3, 46080, Note_on_c, 1, 33, 105
3, 47020, Note_off_c, 1, 33, 105
3, 47040, Note_on_c, 1, 31, 100
3, 47980, Note_off_c, 1, 31, 100
3, 48000, Note_on_c, 1, 30, 110
3, 49900, Note_off_c, 1, 30, 110
3, 55680, Note_on_c, 1, 36, 127
3, 55900, Note_off_c, 1, 36, 127
3, 56040, Note_on_c, 1, 36, 127
3, 56150, Note_off_c, 1, 36, 127
3, 56160, Note_on_c, 1, 31, 127
3, 56270, Note_off_c, 1, 31, 127
3, 56280, Note_on_c, 1, 33, 127
3, 56390, Note_off_c, 1, 33, 127
3, 56400, Note_on_c, 1, 36, 127
3, 56620, Note_off_c, 1, 36, 127
3, 56760, Note_on_c, 1, 36, 127
3, 56870, Note_off_c, 1, 36, 127
3, 56880, Note_on_c, 1, 31, 127
3, 56990, Note_off_c, 1, 31, 127
3, 57000, Note_on_c, 1, 33, 127
3, 57110, Note_off_c, 1, 33, 127
3, 57120, Note_on_c, 1, 36, 127
3, 57230, Note_off_c, 1, 36, 127
3, 57360, Note_on_c, 1, 36, 127
3, 57580, Note_off_c, 1, 36, 127
3, 57600, Note_on_c, 1, 40, 127
3, 57940, Note_off_c, 1, 40, 127
3, 57960, Note_on_c, 1, 40, 127
3, 58070, Note_off_c, 1, 40, 127
3, 58080, Note_on_c, 1, 40, 127
3, 58190, Note_off_c, 1, 40, 127
3, 58200, Note_on_c, 1, 41, 127
3, 58310, Note_off_c, 1, 41, 127
3, 58320, Note_on_c, 1, 40, 127
3, 58660, Note_off_c, 1, 40, 127
3, 58680, Note_on_c, 1, 40, 127
3, 58790, Note_off_c, 1, 40, 127
3, 58800, Note_on_c, 1, 41, 127
3, 58910, Note_off_c, 1, 41, 127
3, 58920, Note_on_c, 1, 40, 127
3, 59030, Note_off_c, 1, 40, 127
3, 59040, Note_on_c, 1, 38, 127
3, 59150, Note_off_c, 1, 38, 127
3, 59160, Note_on_c, 1, 36, 127
3, 59270, Note_off_c, 1, 36, 127
3, 59280, Note_on_c, 1, 35, 127
3, 59390, Note_off_c, 1, 35, 127
3, 59400, Note_on_c, 1, 36, 127
3, 59510, Note_off_c, 1, 36, 127
3, 59520, Note_on_c, 1, 29, 127
3, 59740, Note_off_c, 1, 29, 127
3, 59880, Note_on_c, 1, 29, 127
3, 59990, Note_off_c, 1, 29, 127
3, 60000, Note_on_c, 1, 29, 127
3, 60340, Note_off_c, 1, 29, 127
3, 60360, Note_on_c, 1, 29, 127
3, 60470, Note_off_c, 1, 29, 127
3, 60600, Note_on_c, 1, 29, 127
3, 60710, Note_off_c, 1, 29, 127
3, 60720, Note_on_c, 1, 38, 127
3, 60940, Note_off_c, 1, 38, 127
3, 60960, Note_on_c, 1, 36, 127
3, 61180, Note_off_c, 1, 36, 127
3, 61200, Note_on_c, 1, 33, 127
3, 61420, Note_off_c, 1, 33, 127
3, 61440, Note_on_c, 1, 32, 127
3, 61780, Note_off_c, 1, 32, 127
3, 61800, Note_on_c, 1, 32, 127
3, 61910, Note_off_c, 1, 32, 127
3, 61920, Note_on_c, 1, 32, 127
3, 62260, Note_off_c, 1, 32, 127
3, 62280, Note_on_c, 1, 31, 127
3, 62390, Note_off_c, 1, 31, 127
3, 62520, Note_on_c, 1, 31, 127
3, 62630, Note_off_c, 1, 31, 127
3, 62640, Note_on_c, 1, 31, 127
3, 62860, Note_off_c, 1, 31, 127
3, 62880, Note_on_c, 1, 31, 127
3, 63220, Note_off_c, 1, 31, 127
3, 63240, Note_on_c, 1, 31, 127
3, 63350, Note_off_c, 1, 31, 127
3, 63360, Note_on_c, 1, 29, 127
3, 63580, Note_off_c, 1, 29, 127
3, 63720, Note_on_c, 1, 29, 127
3, 63830, Note_off_c, 1, 29, 127
3, 63840, Note_on_c, 1, 29, 127
3, 64060, Note_off_c, 1, 29, 127
3, 64200, Note_on_c, 1, 29, 127
3, 64420, Note_off_c, 1, 29, 127
3, 64440, Note_on_c, 1, 38, 127
3, 64550, Note_off_c, 1, 38, 127
3, 64560, Note_on_c, 1, 36, 127
3, 64670, Note_off_c, 1, 36, 127
3, 64680, Note_on_c, 1, 33, 127
3, 64790, Note_off_c, 1, 33, 127
3, 64800, Note_on_c, 1, 31, 127
3, 65020, Note_off_c, 1, 31, 127
3, 65040, Note_on_c, 1, 33, 127
3, 65260, Note_off_c, 1, 33, 127
3, 65280, Note_on_c, 1, 32, 127
3, 65620, Note_off_c, 1, 32, 127
3, 65640, Note_on_c, 1, 32, 127
3, 65750, Note_off_c, 1, 32, 127
3, 65760, Note_on_c, 1, 32, 127
3, 66100, Note_off_c, 1, 32, 127
3, 66120, Note_on_c, 1, 31, 127
3, 66230, Note_off_c, 1, 31, 127
3, 66360, Note_on_c, 1, 31, 127
3, 66470, Note_off_c, 1, 31, 127
3, 66480, Note_on_c, 1, 31, 127
3, 66700, Note_off_c, 1, 31, 127
3, 66720, Note_on_c, 1, 31, 127
3, 67060, Note_off_c, 1, 31, 127
3, 67080, Note_on_c, 1, 31, 127
3, 67190, Note_off_c, 1, 31, 127
3, 67200, Note_on_c, 1, 29, 127
3, 67420, Note_off_c, 1, 29, 127
3, 67560, Note_on_c, 1, 29, 127
3, 67670, Note_off_c, 1, 29, 127
3, 67680, Note_on_c, 1, 29, 127
3, 67900, Note_off_c, 1, 29, 127
3, 68040, Note_on_c, 1, 29, 127
3, 68260, Note_off_c, 1, 29, 127
3, 68280, Note_on_c, 1, 38, 127
3, 68390, Note_off_c, 1, 38, 127
3, 68400, Note_on_c, 1, 36, 127
3, 68510, Note_off_c, 1, 36, 127
3, 68520, Note_on_c, 1, 33, 127
3, 68630, Note_off_c, 1, 33, 127
3, 68640, Note_on_c, 1, 31, 127
3, 68860, Note_off_c, 1, 31, 127
3, 68880, Note_on_c, 1, 33, 127
3, 69100, Note_off_c, 1, 33, 127
3, 69120, Note_on_c, 1, 36, 127
3, 69340, Note_off_c, 1, 36, 127
3, 69480, Note_on_c, 1, 36, 127
3, 69590, Note_off_c, 1, 36, 127
3, 69600, Note_on_c, 1, 31, 127
3, 69710, Note_off_c, 1, 31, 127
3, 69720, Note_on_c, 1, 33, 127
3, 69830, Note_off_c, 1, 33, 127
3, 69840, Note_on_c, 1, 36, 127
3, 70060, Note_off_c, 1, 36, 127
3, 70200, Note_on_c, 1, 36, 127
3, 70310, Note_off_c, 1, 36, 127
3, 70320, Note_on_c, 1, 31, 127
3, 70430, Note_off_c, 1, 31, 127
3, 70440, Note_on_c, 1, 33, 127
3, 70550, Note_off_c, 1, 33, 127
3, 70560, Note_on_c, 1, 36, 127
3, 70670, Note_off_c, 1, 36, 127
3, 70800, Note_on_c, 1, 36, 127
3, 71020, Note_off_c, 1, 36, 127
3, 71040, Note_on_c, 1, 40, 127
3, 71380, Note_off_c, 1, 40, 127
3, 71400, Note_on_c, 1, 40, 127
3, 71510, Note_off_c, 1, 40, 127
3, 71520, Note_on_c, 1, 40, 127
3, 71630, Note_off_c, 1, 40, 127
3, 71640, Note_on_c, 1, 41, 127
3, 71750, Note_off_c, 1, 41, 127
3, 71760, Note_on_c, 1, 40, 127
3, 72100, Note_off_c, 1, 40, 127
3, 72120, Note_on_c, 1, 40, 127
3, 72230, Note_off_c, 1, 40, 127
3, 72240, Note_on_c, 1, 41, 127
3, 72350, Note_off_c, 1, 41, 127
3, 72360, Note_on_c, 1, 40, 127
3, 72470, Note_off_c, 1, 40, 127
3, 72480, Note_on_c, 1, 38, 127
3, 72590, Note_off_c, 1, 38, 127
3, 72600, Note_on_c, 1, 36, 127
3, 72710, Note_off_c, 1, 36, 127
3, 72720, Note_on_c, 1, 35, 127
3, 72830, Note_off_c, 1, 35, 127
3, 72840, Note_on_c, 1, 36, 127
3, 72950, Note_off_c, 1, 36, 127
3, 72960, Note_on_c, 1, 29, 127
3, 73180, Note_off_c, 1, 29, 127
3, 73320, Note_on_c, 1, 29, 127
3, 73430, Note_off_c, 1, 29, 127
3, 73440, Note_on_c, 1, 29, 127
3, 73780, Note_off_c, 1, 29, 127
3, 73800, Note_on_c, 1, 29, 127
3, 73910, Note_off_c, 1, 29, 127
3, 74040, Note_on_c, 1, 29, 127
3, 74150, Note_off_c, 1, 29, 127
3, 74160, Note_on_c, 1, 38, 127
3, 74380, Note_off_c, 1, 38, 127
3, 74400, Note_on_c, 1, 36, 127
3, 74620, Note_off_c, 1, 36, 127
3, 74640, Note_on_c, 1, 33, 127
3, 74860, Note_off_c, 1, 33, 127
3, 74880, Note_on_c, 1, 32, 127
3, 75220, Note_off_c, 1, 32, 127
3, 75240, Note_on_c, 1, 32, 127
3, 75350, Note_off_c, 1, 32, 127
3, 75360, Note_on_c, 1, 32, 127
3, 75700, Note_off_c, 1, 32, 127
3, 75720, Note_on_c, 1, 31, 127
3, 75830, Note_off_c, 1, 31, 127
3, 75960, Note_on_c, 1, 31, 127
3, 76070, Note_off_c, 1, 31, 127
3, 76080, Note_on_c, 1, 31, 127
3, 76300, Note_off_c, 1, 31, 127
3, 76320, Note_on_c, 1, 31, 127
3, 76660, Note_off_c, 1, 31, 127
3, 76680, Note_on_c, 1, 31, 127
3, 76790, Note_off_c, 1, 31, 127
3, 76800, Note_on_c, 1, 29, 127
3, 77020, Note_off_c, 1, 29, 127
3, 77160, Note_on_c, 1, 29, 127
3, 77270, Note_off_c, 1, 29, 127
3, 77280, Note_on_c, 1, 29, 127
3, 77500, Note_off_c, 1, 29, 127
3, 77640, Note_on_c, 1, 29, 127
3, 77860, Note_off_c, 1, 29, 127
3, 77880, Note_on_c, 1, 38, 127
3, 77990, Note_off_c, 1, 38, 127
3, 78000, Note_on_c, 1, 36, 127
3, 78110, Note_off_c, 1, 36, 127
3, 78120, Note_on_c, 1, 33, 127
3, 78230, Note_off_c, 1, 33, 127
3, 78240, Note_on_c, 1, 31, 127
3, 78460, Note_off_c, 1, 31, 127
3, 78480, Note_on_c, 1, 33, 127
3, 78700, Note_off_c, 1, 33, 127
3, 78720, Note_on_c, 1, 32, 127
3, 79060, Note_off_c, 1, 32, 127
3, 79080, Note_on_c, 1, 32, 127
3, 79190, Note_off_c, 1, 32, 127
3, 79200, Note_on_c, 1, 32, 127
3, 79540, Note_off_c, 1, 32, 127
3, 79560, Note_on_c, 1, 31, 127
3, 79670, Note_off_c, 1, 31, 127
3, 79800, Note_on_c, 1, 31, 127
3, 79910, Note_off_c, 1, 31, 127
3, 79920, Note_on_c, 1, 31, 127
3, 80140, Note_off_c, 1, 31, 127
3, 80160, Note_on_c, 1, 31, 127
3, 80500, Note_off_c, 1, 31, 127
3, 80520, Note_on_c, 1, 31, 127
3, 80630, Note_off_c, 1, 31, 127
3, 80640, Note_on_c, 1, 29, 127
3, 80860, Note_off_c, 1, 29, 127
3, 81000, Note_on_c, 1, 29, 127
3, 81110, Note_off_c, 1, 29, 127
3, 81120, Note_on_c, 1, 29, 127
3, 81340, Note_off_c, 1, 29, 127
3, 81480, Note_on_c, 1, 29, 127
3, 81700, Note_off_c, 1, 29, 127
3, 81720, Note_on_c, 1, 38, 127
3, 81830, Note_off_c, 1, 38, 127
3, 81840, Note_on_c, 1, 36, 127
3, 81950, Note_off_c, 1, 36, 127
3, 81960, Note_on_c, 1, 33, 127
3, 82070, Note_off_c, 1, 33, 127
3, 82080, Note_on_c, 1, 31, 127
3, 82300, Note_off_c, 1, 31, 127
3, 82320, Note_on_c, 1, 33, 127
3, 82540, Note_off_c, 1, 33, 127
3, 82560, Note_on_c, 1, 29, 127
3, 83500, Note_off_c, 1, 29, 127
3, 83640, Note_on_c, 1, 40, 127
3, 83750, Note_off_c, 1, 40, 127
3, 84000, Note_on_c, 1, 38, 127
3, 84220, Note_off_c, 1, 38, 127
3, 84240, Note_on_c, 1, 36, 127
3, 84460, Note_off_c, 1, 36, 127
3, 84480, Note_on_c, 1, 28, 127
3, 85420, Note_off_c, 1, 28, 127
3, 85560, Note_on_c, 1, 31, 127
3, 85670, Note_off_c, 1, 31, 127
3, 85920, Note_on_c, 1, 35, 127
3, 86140, Note_off_c, 1, 35, 127
3, 86160, Note_on_c, 1, 36, 127
3, 86380, Note_off_c, 1, 36, 127
3, 86400, Note_on_c, 1, 29, 127
3, 87340, Note_off_c, 1, 29, 127
3, 87480, Note_on_c, 1, 40, 127
3, 87700, Note_off_c, 1, 40, 127
3, 87840, Note_on_c, 1, 38, 127
3, 88060, Note_off_c, 1, 38, 127
3, 88080, Note_on_c, 1, 36, 127
3, 88300, Note_off_c, 1, 36, 127
3, 88320, Note_on_c, 1, 28, 127
3, 89380, Note_off_c, 1, 28, 127
3, 89400, Note_on_c, 1, 31, 127
3, 89510, Note_off_c, 1, 31, 127
3, 89760, Note_on_c, 1, 35, 127
3, 89980, Note_off_c, 1, 35, 127
3, 90000, Note_on_c, 1, 36, 127
3, 90220, Note_off_c, 1, 36, 127
3, 90240, Note_on_c, 1, 34, 127
3, 90460, Note_off_c, 1, 34, 127
3, 90600, Note_on_c, 1, 34, 127
3, 90710, Note_off_c, 1, 34, 127
3, 90720, Note_on_c, 1, 34, 127
3, 90830, Note_off_c, 1, 34, 127
3, 90840, Note_on_c, 1, 38, 127
3, 90950, Note_off_c, 1, 38, 127
3, 90960, Note_on_c, 1, 41, 127
3, 91180, Note_off_c, 1, 41, 127
3, 91200, Note_on_c, 1, 33, 127
3, 91420, Note_off_c, 1, 33, 127
3, 91560, Note_on_c, 1, 33, 127
3, 91670, Note_off_c, 1, 33, 127
3, 91680, Note_on_c, 1, 33, 127
3, 91790, Note_off_c, 1, 33, 127
3, 91800, Note_on_c, 1, 36, 127
3, 91910, Note_off_c, 1, 36, 127
3, 91920, Note_on_c, 1, 41, 127
3, 92030, Note_off_c, 1, 41, 127
3, 92040, Note_on_c, 1, 36, 127
3, 92150, Note_off_c, 1, 36, 127
3, 92160, Note_on_c, 1, 31, 127
3, 92380, Note_off_c, 1, 31, 127
3, 92520, Note_on_c, 1, 31, 127
3, 92630, Note_off_c, 1, 31, 127
3, 92640, Note_on_c, 1, 31, 127
3, 92750, Note_off_c, 1, 31, 127
3, 92760, Note_on_c, 1, 33, 127
3, 92870, Note_off_c, 1, 33, 127
3, 92880, Note_on_c, 1, 31, 127
3, 93100, Note_off_c, 1, 31, 127
3, 93120, Note_on_c, 1, 29, 127
3, 93460, Note_off_c, 1, 29, 127
3, 93480, Note_on_c, 1, 29, 127
3, 93590, Note_off_c, 1, 29, 127
3, 93600, Note_on_c, 1, 29, 127
3, 93820, Note_off_c, 1, 29, 127
3, 93960, Note_on_c, 1, 29, 127
3, 94180, Note_off_c, 1, 29, 127
3, 94200, Note_on_c, 1, 33, 127
3, 94310, Note_off_c, 1, 33, 127
3, 94320, Note_on_c, 1, 36, 127
3, 94660, Note_off_c, 1, 36, 127
3, 94680, Note_on_c, 1, 38, 127
3, 94790, Note_off_c, 1, 38, 127
3, 94800, Note_on_c, 1, 36, 127
3, 94910, Note_off_c, 1, 36, 127
3, 94920, Note_on_c, 1, 33, 127
3, 95030, Note_off_c, 1, 33, 127
3, 99360, Note_on_c, 1, 41, 102
3, 99470, Note_off_c, 1, 41, 102
3, 99480, Note_on_c, 1, 40, 102
3, 99590, Note_off_c, 1, 40, 102
3, 99720, Note_on_c, 1, 38, 102
3, 99830, Note_off_c, 1, 38, 102
3, 99960, Note_on_c, 1, 36, 102
3, 100070, Note_off_c, 1, 36, 102
3, 100200, Note_on_c, 1, 35, 102
3, 100310, Note_off_c, 1, 35, 102
3, 100440, Note_on_c, 1, 36, 102
3, 100550, Note_off_c, 1, 36, 102
3, 100560, Note_on_c, 1, 38, 102
3, 101140, Note_off_c, 1, 38, 102
3, 101280, Note_on_c, 1, 35, 102
3, 101390, Note_off_c, 1, 35, 102
3, 101400, Note_on_c, 1, 35, 102
3, 101510, Note_off_c, 1, 35, 102
3, 101520, Note_on_c, 1, 36, 102
3, 101630, Note_off_c, 1, 36, 102
3, 101640, Note_on_c, 1, 35, 102
3, 101750, Note_off_c, 1, 35, 102
3, 101880, Note_on_c, 1, 36, 102
3, 101990, Note_off_c, 1, 36, 102
3, 102120, Note_on_c, 1, 35, 102
3, 102230, Note_off_c, 1, 35, 102
3, 102360, Note_on_c, 1, 31, 102
3, 102940, Note_off_c, 1, 31, 102
3, 103080, Note_on_c, 1, 33, 102
3, 103190, Note_off_c, 1, 33, 102
3, 103200, Note_on_c, 1, 33, 102
3, 103310, Note_off_c, 1, 33, 102
3, 103440, Note_on_c, 1, 35, 102
3, 103550, Note_off_c, 1, 35, 102
3, 103560, Note_on_c, 1, 37, 102
3, 103670, Note_off_c, 1, 37, 102
3, 103800, Note_on_c, 1, 35, 102
3, 103910, Note_off_c, 1, 35, 102
3, 104040, Note_on_c, 1, 33, 102
3, 104150, Note_off_c, 1, 33, 102
3, 104280, Note_on_c, 1, 35, 102
3, 104390, Note_off_c, 1, 35, 102
3, 104400, Note_on_c, 1, 37, 102
3, 104510, Note_off_c, 1, 37, 102
3, 105120, Note_on_c, 1, 36, 102
3, 105230, Note_off_c, 1, 36, 102
3, 105240, Note_on_c, 1, 38, 102
3, 105350, Note_off_c, 1, 38, 102
3, 105480, Note_on_c, 1, 40, 102
3, 105590, Note_off_c, 1, 40, 102
3, 105720, Note_on_c, 1, 38, 102
3, 105830, Note_off_c, 1, 38, 102
3, 105960, Note_on_c, 1, 36, 102
3, 106070, Note_off_c, 1, 36, 102
3, 106200, Note_on_c, 1, 38, 102
3, 106310, Note_off_c, 1, 38, 102
3, 106320, Note_on_c, 1, 40, 102
3, 106780, Note_off_c, 1, 40, 102
3, 106920, Note_on_c, 1, 38, 102
3, 107030, Note_off_c, 1, 38, 102
3, 107040, Note_on_c, 1, 38, 102
3, 107150, Note_off_c, 1, 38, 102
3, 107160, Note_on_c, 1, 40, 102
3, 107270, Note_off_c, 1, 40, 102
3, 107400, Note_on_c, 1, 42, 102
3, 107510, Note_off_c, 1, 42, 102
3, 107640, Note_on_c, 1, 40, 102
3, 107750, Note_off_c, 1, 40, 102
3, 107880, Note_on_c, 1, 38, 102
3, 107990, Note_off_c, 1, 38, 102
3, 108120, Note_on_c, 1, 40, 102
3, 108230, Note_off_c, 1, 40, 102
3, 108240, Note_on_c, 1, 42, 102
3, 108460, Note_off_c, 1, 42, 102
3, 108960, Note_on_c, 1, 40, 127
3, 109070, Note_off_c, 1, 40, 127
3, 109080, Note_on_c, 1, 31, 127
3, 109190, Note_off_c, 1, 31, 127
3, 109200, Note_on_c, 1, 32, 127
3, 109310, Note_off_c, 1, 32, 127
3, 109320, Note_on_c, 1, 28, 127
3, 110260, Note_off_c, 1, 28, 127
3, 110400, Note_on_c, 1, 36, 127
3, 110620, Note_off_c, 1, 36, 127
3, 110760, Note_on_c, 1, 36, 127
3, 110870, Note_off_c, 1, 36, 127
3, 110880, Note_on_c, 1, 31, 127
3, 110990, Note_off_c, 1, 31, 127
3, 111000, Note_on_c, 1, 33, 127
3, 111110, Note_off_c, 1, 33, 127
3, 111120, Note_on_c, 1, 36, 127
3, 111340, Note_off_c, 1, 36, 127
3, 111480, Note_on_c, 1, 36, 127
3, 111590, Note_off_c, 1, 36, 127
3, 111600, Note_on_c, 1, 31, 127
3, 111710, Note_off_c, 1, 31, 127
3, 111720, Note_on_c, 1, 33, 127
3, 111830, Note_off_c, 1, 33, 127
3, 111840, Note_on_c, 1, 36, 127
3, 111950, Note_off_c, 1, 36, 127
3, 112080, Note_on_c, 1, 36, 127
3, 112300, Note_off_c, 1, 36, 127
3, 112320, Note_on_c, 1, 40, 127
3, 112660, Note_off_c, 1, 40, 127
3, 112680, Note_on_c, 1, 40, 127
3, 112790, Note_off_c, 1, 40, 127
3, 112800, Note_on_c, 1, 40, 127
3, 112910, Note_off_c, 1, 40, 127
3, 112920, Note_on_c, 1, 41, 127
3, 113030, Note_off_c, 1, 41, 127
3, 113040, Note_on_c, 1, 40, 127
3, 113380, Note_off_c, 1, 40, 127
3, 113400, Note_on_c, 1, 40, 127
3, 113510, Note_off_c, 1, 40, 127
3, 113520, Note_on_c, 1, 41, 127
3, 113630, Note_off_c, 1, 41, 127
3, 113640, Note_on_c, 1, 40, 127
3, 113750, Note_off_c, 1, 40, 127
3, 113760, Note_on_c, 1, 38, 127
3, 113870, Note_off_c, 1, 38, 127
3, 113880, Note_on_c, 1, 36, 127
3, 113990, Note_off_c, 1, 36, 127
3, 114000, Note_on_c, 1, 35, 127
3, 114110, Note_off_c, 1, 35, 127
3, 114120, Note_on_c, 1, 36, 127
3, 114230, Note_off_c, 1, 36, 127
3, 114240, Note_on_c, 1, 29, 127
3, 114460, Note_off_c, 1, 29, 127
3, 114600, Note_on_c, 1, 29, 127
3, 114710, Note_off_c, 1, 29, 127
3, 114720, Note_on_c, 1, 29, 127
3, 115060, Note_off_c, 1, 29, 127
3, 115080, Note_on_c, 1, 29, 127
3, 115190, Note_off_c, 1, 29, 127
3, 115320, Note_on_c, 1, 29, 127
3, 115430, Note_off_c, 1, 29, 127
3, 115440, Note_on_c, 1, 38, 127
3, 115660, Note_off_c, 1, 38, 127
3, 115680, Note_on_c, 1, 36, 127
3, 115900, Note_off_c, 1, 36, 127
3, 115920, Note_on_c, 1, 33, 127
3, 116140, Note_off_c, 1, 33, 127
3, 116160, Note_on_c, 1, 32, 127
3, 116500, Note_off_c, 1, 32, 127
3, 116520, Note_on_c, 1, 32, 127
3, 116630, Note_off_c, 1, 32, 127
3, 116640, Note_on_c, 1, 32, 127
3, 116980, Note_off_c, 1, 32, 127
3, 117000, Note_on_c, 1, 31, 127
3, 117110, Note_off_c, 1, 31, 127
3, 117240, Note_on_c, 1, 31, 127
3, 117350, Note_off_c, 1, 31, 127
3, 117360, Note_on_c, 1, 31, 127
3, 117580, Note_off_c, 1, 31, 127
3, 117600, Note_on_c, 1, 31, 127
3, 117940, Note_off_c, 1, 31, 127
3, 117960, Note_on_c, 1, 31, 127
3, 118070, Note_off_c, 1, 31, 127
3, 118080, Note_on_c, 1, 29, 127
3, 118300, Note_off_c, 1, 29, 127
3, 118440, Note_on_c, 1, 29, 127
3, 118550, Note_off_c, 1, 29, 127
3, 118560, Note_on_c, 1, 29, 127
3, 118780, Note_off_c, 1, 29, 127
3, 118920, Note_on_c, 1, 29, 127
3, 119140, Note_off_c, 1, 29, 127
3, 119160, Note_on_c, 1, 38, 127
3, 119270, Note_off_c, 1, 38, 127
3, 119280, Note_on_c, 1, 36, 127
3, 119390, Note_off_c, 1, 36, 127
3, 119400, Note_on_c, 1, 33, 127
3, 119510, Note_off_c, 1, 33, 127
3, 119520, Note_on_c, 1, 31, 127
3, 119740, Note_off_c, 1, 31, 127
3, 119760, Note_on_c, 1, 33, 127
3, 119980, Note_off_c, 1, 33, 127
3, 120000, Note_on_c, 1, 32, 127
3, 120340, Note_off_c, 1, 32, 127
3, 120360, Note_on_c, 1, 32, 127
3, 120470, Note_off_c, 1, 32, 127
3, 120480, Note_on_c, 1, 32, 127
3, 120820, Note_off_c, 1, 32, 127
3, 120840, Note_on_c, 1, 31, 127
3, 120950, Note_off_c, 1, 31, 127
3, 121080, Note_on_c, 1, 31, 127
3, 121190, Note_off_c, 1, 31, 127
3, 121200, Note_on_c, 1, 31, 127
3, 121420, Note_off_c, 1, 31, 127
3, 121440, Note_on_c, 1, 31, 127
3, 121780, Note_off_c, 1, 31, 127
3, 121800, Note_on_c, 1, 31, 127
3, 121910, Note_off_c, 1, 31, 127
3, 121920, Note_on_c, 1, 29, 127
3, 122140, Note_off_c, 1, 29, 127
3, 122280, Note_on_c, 1, 29, 127
3, 122390, Note_off_c, 1, 29, 127
3, 122400, Note_on_c, 1, 29, 127
3, 122620, Note_off_c, 1, 29, 127
3, 122760, Note_on_c, 1, 29, 127
3, 122980, Note_off_c, 1, 29, 127
3, 123000, Note_on_c, 1, 38, 127
3, 123110, Note_off_c, 1, 38, 127
3, 123120, Note_on_c, 1, 36, 127
3, 123230, Note_off_c, 1, 36, 127
3, 123240, Note_on_c, 1, 33, 127
3, 123350, Note_off_c, 1, 33, 127
3, 123360, Note_on_c, 1, 31, 127
3, 123580, Note_off_c, 1, 31, 127
3, 123600, Note_on_c, 1, 33, 127
3, 123820, Note_off_c, 1, 33, 127
3, 123840, Note_on_c, 1, 31, 127
3, 124540, Note_off_c, 1, 31, 127
3, 124560, Note_on_c, 1, 31, 127
3, 124780, Note_off_c, 1, 31, 127
3, 124800, Note_on_c, 1, 32, 127
3, 125380, Note_off_c, 1, 32, 127
3, 125520, Note_on_c, 1, 32, 127
3, 125740, Note_off_c, 1, 32, 127
3, 125760, Note_on_c, 1, 33, 127
3, 126340, Note_off_c, 1, 33, 127
3, 126360, Note_on_c, 1, 45, 127
3, 126470, Note_off_c, 1, 45, 127
3, 126480, Note_on_c, 1, 43, 127
3, 126590, Note_off_c, 1, 43, 127
3, 126600, Note_on_c, 1, 40, 127
3, 126710, Note_off_c, 1, 40, 127
3, 126720, Note_on_c, 1, 31, 127
3, 127300, Note_off_c, 1, 31, 127
3, 127440, Note_on_c, 1, 31, 127
3, 127660, Note_off_c, 1, 31, 127
3, 127680, Note_on_c, 1, 30, 127
3, 128260, Note_off_c, 1, 30, 127
3, 128400, Note_on_c, 1, 30, 127
3, 128510, Note_off_c, 1, 30, 127
3, 128520, Note_on_c, 1, 31, 127
3, 128630, Note_off_c, 1, 31, 127
3, 128640, Note_on_c, 1, 33, 127
3, 129340, Note_off_c, 1, 33, 127
3, 129360, Note_on_c, 1, 33, 127
3, 129580, Note_off_c, 1, 33, 127
3, 129600, Note_on_c, 1, 36, 127
3, 130300, Note_off_c, 1, 36, 127
3, 130320, Note_on_c, 1, 36, 127
3, 130430, Note_off_c, 1, 36, 127
3, 130440, Note_on_c, 1, 38, 127
3, 130550, Note_off_c, 1, 38, 127
3, 130560, Note_on_c, 1, 36, 127
3, 131260, Note_off_c, 1, 36, 127
3, 131280, Note_on_c, 1, 36, 127
3, 131500, Note_off_c, 1, 36, 127
3, 131520, Note_on_c, 1, 31, 127
3, 132220, Note_off_c, 1, 31, 127
3, 132240, Note_on_c, 1, 31, 127
3, 132460, Note_off_c, 1, 31, 127
3, 132480, Note_on_c, 1, 31, 127
3, 133060, Note_off_c, 1, 31, 127
3, 133200, Note_on_c, 1, 31, 127
3, 133420, Note_off_c, 1, 31, 127
3, 133440, Note_on_c, 1, 29, 127
3, 134380, Note_off_c, 1, 29, 127
3, 134520, Note_on_c, 1, 40, 127
3, 134630, Note_off_c, 1, 40, 127
3, 134880, Note_on_c, 1, 38, 127
3, 135100, Note_off_c, 1, 38, 127
3, 135120, Note_on_c, 1, 36, 127
3, 135340, Note_off_c, 1, 36, 127
3, 135360, Note_on_c, 1, 28, 127
3, 136300, Note_off_c, 1, 28, 127
3, 136440, Note_on_c, 1, 31, 127
3, 136550, Note_off_c, 1, 31, 127
3, 136800, Note_on_c, 1, 35, 127
3, 137020, Note_off_c, 1, 35, 127
3, 137040, Note_on_c, 1, 36, 127
3, 137260, Note_off_c, 1, 36, 127
3, 137280, Note_on_c, 1, 29, 127
3, 138220, Note_off_c, 1, 29, 127
3, 138360, Note_on_c, 1, 40, 127
3, 138580, Note_off_c, 1, 40, 127
3, 138720, Note_on_c, 1, 38, 127
3, 138940, Note_off_c, 1, 38, 127
3, 138960, Note_on_c, 1, 36, 127
3, 139180, Note_off_c, 1, 36, 127
3, 139200, Note_on_c, 1, 28, 127
3, 140260, Note_off_c, 1, 28, 127
3, 140280, Note_on_c, 1, 31, 127
3, 140390, Note_off_c, 1, 31, 127
3, 140640, Note_on_c, 1, 35, 127
3, 140860, Note_off_c, 1, 35, 127
3, 140880, Note_on_c, 1, 36, 127
3, 141100, Note_off_c, 1, 36, 127
3, 141120, Note_on_c, 1, 34, 127
3, 141340, Note_off_c, 1, 34, 127
3, 141480, Note_on_c, 1, 34, 127
3, 141590, Note_off_c, 1, 34, 127
3, 141600, Note_on_c, 1, 34, 127
3, 141710, Note_off_c, 1, 34, 127
3, 141720, Note_on_c, 1, 38, 127
3, 141830, Note_off_c, 1, 38, 127
3, 141840, Note_on_c, 1, 41, 127
3, 142060, Note_off_c, 1, 41, 127
3, 142080, Note_on_c, 1, 33, 127
3, 142300, Note_off_c, 1, 33, 127
3, 142440, Note_on_c, 1, 33, 127
3, 142550, Note_off_c, 1, 33, 127
3, 142560, Note_on_c, 1, 33, 127
3, 142670, Note_off_c, 1, 33, 127
3, 142680, Note_on_c, 1, 36, 127
3, 142790, Note_off_c, 1, 36, 127
3, 142800, Note_on_c, 1, 41, 127
3, 142910, Note_off_c, 1, 41, 127
3, 142920, Note_on_c, 1, 36, 127
3, 143030, Note_off_c, 1, 36, 127
3, 143040, Note_on_c, 1, 31, 127
3, 143260, Note_off_c, 1, 31, 127
3, 143400, Note_on_c, 1, 31, 127
3, 143510, Note_off_c, 1, 31, 127
3, 143520, Note_on_c, 1, 31, 127
3, 143630, Note_off_c, 1, 31, 127
3, 143640, Note_on_c, 1, 33, 127
3, 143750, Note_off_c, 1, 33, 127
3, 143760, Note_on_c, 1, 31, 127
3, 143980, Note_off_c, 1, 31, 127
3, 144000, Note_on_c, 1, 29, 127
3, 144340, Note_off_c, 1, 29, 127
3, 144360, Note_on_c, 1, 29, 127
3, 144470, Note_off_c, 1, 29, 127
3, 144480, Note_on_c, 1, 29, 127
3, 144700, Note_off_c, 1, 29, 127
3, 144840, Note_on_c, 1, 29, 127
3, 145060, Note_off_c, 1, 29, 127
3, 145080, Note_on_c, 1, 33, 127
3, 145190, Note_off_c, 1, 33, 127
3, 145200, Note_on_c, 1, 36, 127
3, 145540, Note_off_c, 1, 36, 127
3, 145560, Note_on_c, 1, 38, 127
3, 145670, Note_off_c, 1, 38, 127
3, 145680, Note_on_c, 1, 36, 127
3, 145790, Note_off_c, 1, 36, 127
3, 145800, Note_on_c, 1, 33, 127
3, 145910, Note_off_c, 1, 33, 127
3, 149760, Note_on_c, 1, 29, 127
3, 151180, Note_off_c, 1, 29, 127
3, 151200, Note_on_c, 1, 33, 127
3, 151660, Note_off_c, 1, 33, 127
3, 151680, Note_on_c, 1, 28, 127
3, 152860, Note_off_c, 1, 28, 127
3, 152880, Note_on_c, 1, 31, 127
3, 153100, Note_off_c, 1, 31, 127
3, 153120, Note_on_c, 1, 35, 127
3, 153340, Note_off_c, 1, 35, 127
3, 153360, Note_on_c, 1, 38, 127
3, 153580, Note_off_c, 1, 38, 127
3, 153600, Note_on_c, 1, 33, 127
3, 155260, Note_off_c, 1, 33, 127
3, 155280, Note_on_c, 1, 35, 127
3, 155500, Note_off_c, 1, 35, 127
3, 155520, Note_on_c, 1, 36, 127
3, 157180, Note_off_c, 1, 36, 127
3, 157200, Note_on_c, 1, 36, 127
3, 157420, Note_off_c, 1, 36, 127
3, 157440, Note_on_c, 1, 38, 127
3, 159100, Note_off_c, 1, 38, 127
3, 159120, Note_on_c, 1, 38, 127
3, 159340, Note_off_c, 1, 38, 127
3, 159360, Note_on_c, 1, 28, 127
3, 161140, Note_off_c, 1, 28, 127
3, 161280, Note_on_c, 1, 28, 127
3, 163300, Note_off_c, 1, 28, 127
3, 165120, Note_on_c, 1, 28, 127
3, 167020, Note_off_c, 1, 28, 127
3, 168960, Note_on_c, 1, 28, 127
3, 170740, Note_off_c, 1, 28, 127
3, 172800, Note_on_c, 1, 28, 127
3, 174700, Note_off_c, 1, 28, 127
3, 176640, Note_on_c, 1, 28, 127
3, 178660, Note_off_c, 1, 28, 127
3, 180480, Note_on_c, 1, 28, 127
3, 180920, Control_c, 1, 11, 123
3, 180960, Control_c, 1, 11, 122
3, 181000, Control_c, 1, 11, 121
3, 181040, Control_c, 1, 11, 120
3, 181080, Control_c, 1, 11, 119
3, 181120, Control_c, 1, 11, 118
3, 181160, Control_c, 1, 11, 117
3, 181240, Control_c, 1, 11, 116
3, 181280, Control_c, 1, 11, 115
3, 181320, Control_c, 1, 11, 114
3, 181360, Control_c, 1, 11, 113
3, 181400, Control_c, 1, 11, 112
3, 181440, Control_c, 1, 11, 111
3, 181480, Control_c, 1, 11, 110
3, 181520, Control_c, 1, 11, 109
3, 181560, Control_c, 1, 11, 108
3, 181600, Control_c, 1, 11, 107
3, 181640, Control_c, 1, 11, 106
3, 181680, Control_c, 1, 11, 105
3, 181720, Control_c, 1, 11, 104
3, 181760, Control_c, 1, 11, 103
3, 181800, Control_c, 1, 11, 102
3, 181840, Control_c, 1, 11, 101
3, 181880, Control_c, 1, 11, 100
3, 181920, Control_c, 1, 11, 99
3, 181960, Control_c, 1, 11, 98
3, 182000, Control_c, 1, 11, 97
3, 182040, Control_c, 1, 11, 96
3, 182080, Control_c, 1, 11, 95
3, 182120, Control_c, 1, 11, 94
3, 182160, Control_c, 1, 11, 93
3, 182200, Control_c, 1, 11, 92
3, 182240, Control_c, 1, 11, 91
3, 182280, Control_c, 1, 11, 90
3, 182360, Control_c, 1, 11, 89
3, 182400, Control_c, 1, 11, 88
3, 182440, Control_c, 1, 11, 87
3, 182480, Control_c, 1, 11, 86
3, 182520, Control_c, 1, 11, 85
3, 182560, Control_c, 1, 11, 84
3, 182600, Control_c, 1, 11, 83
3, 182640, Control_c, 1, 11, 82
3, 182680, Control_c, 1, 11, 81
3, 182720, Control_c, 1, 11, 80
3, 182760, Control_c, 1, 11, 79
3, 182800, Control_c, 1, 11, 78
3, 182840, Control_c, 1, 11, 77
3, 182880, Control_c, 1, 11, 76
3, 182920, Control_c, 1, 11, 75
3, 182960, Control_c, 1, 11, 74
3, 183000, Control_c, 1, 11, 73
3, 183040, Control_c, 1, 11, 72
3, 183080, Control_c, 1, 11, 71
3, 183120, Control_c, 1, 11, 70
3, 183160, Control_c, 1, 11, 69
3, 183200, Control_c, 1, 11, 68
3, 183240, Control_c, 1, 11, 67
3, 183280, Control_c, 1, 11, 66
3, 183320, Control_c, 1, 11, 65
3, 183360, Control_c, 1, 11, 64
3, 183400, Control_c, 1, 11, 63
3, 183440, Control_c, 1, 11, 62
3, 183520, Control_c, 1, 11, 61
3, 183560, Control_c, 1, 11, 60
3, 183600, Control_c, 1, 11, 59
3, 183640, Control_c, 1, 11, 58
3, 183680, Control_c, 1, 11, 57
3, 183720, Control_c, 1, 11, 56
3, 183760, Control_c, 1, 11, 55
3, 183800, Control_c, 1, 11, 54
3, 183840, Control_c, 1, 11, 53
3, 183880, Control_c, 1, 11, 52
3, 183920, Control_c, 1, 11, 51
3, 183960, Control_c, 1, 11, 50
3, 184000, Control_c, 1, 11, 49
3, 184040, Control_c, 1, 11, 48
3, 184080, Control_c, 1, 11, 47
3, 184120, Control_c, 1, 11, 46
3, 184160, Control_c, 1, 11, 45
3, 184200, Control_c, 1, 11, 44
3, 184240, Control_c, 1, 11, 43
3, 184280, Control_c, 1, 11, 42
3, 184300, Note_off_c, 1, 28, 127
3, 184320, End_track
4, 0, Start_track
4, 0, Key_signature, 0, "major"
4, 1, Control_c, 2, 99, 1
4, 1, Control_c, 2, 98, 8
4, 1, Control_c, 2, 6, 64
4, 2, Control_c, 2, 99, 1
4, 2, Control_c, 2, 98, 9
4, 2, Control_c, 2, 6, 64
4, 3, Control_c, 2, 99, 1
4, 3, Control_c, 2, 98, 10
4, 3, Control_c, 2, 6, 64
4, 4, Control_c, 2, 99, 1
4, 4, Control_c, 2, 98, 32
4, 4, Control_c, 2, 6, 64
4, 5, Control_c, 2, 99, 1
4, 5, Control_c, 2, 98, 33
4, 5, Control_c, 2, 6, 64
4, 6, Control_c, 2, 99, 1
4, 6, Control_c, 2, 98, 99
4, 6, Control_c, 2, 6, 64
4, 7, Control_c, 2, 99, 1
4, 7, Control_c, 2, 98, 100
4, 7, Control_c, 2, 6, 64
4, 8, Control_c, 2, 99, 1
4, 8, Control_c, 2, 98, 102
4, 8, Control_c, 2, 6, 64
4, 9, Control_c, 2, 0, 0
4, 10, Program_c, 2, 4
4, 11, Control_c, 2, 7, 100
4, 12, Control_c, 2, 10, 64
4, 13, Control_c, 2, 91, 60
4, 14, Control_c, 2, 93, 0
4, 15, Control_c, 2, 101, 0
4, 15, Control_c, 2, 100, 0
4, 15, Control_c, 2, 6, 2
4, 15, Title_t, "M #3"
4, 15, Channel_prefix, 2
4, 15, Instrument_name_t, "M #3"
4, 2330, Control_c, 2, 121, 0
4, 2455, Control_c, 2, 32, 0
4, 2465, Control_c, 2, 11, 127
4, 2930, Control_c, 2, 101, 0
4, 2935, Control_c, 2, 100, 0
4, 2940, Control_c, 2, 6, 12
4, 2945, Control_c, 2, 101, 127
4, 2950, Control_c, 2, 100, 127
4, 21120, Note_on_c, 2, 71, 100
4, 23025, Note_off_c, 2, 71, 100
4, 23040, Note_on_c, 2, 76, 85
4, 24960, Note_off_c, 2, 76, 85
4, 24960, Note_on_c, 2, 83, 100
4, 26860, Note_off_c, 2, 83, 100
4, 26880, Note_on_c, 2, 76, 82
4, 28770, Note_off_c, 2, 76, 82
4, 28800, Note_on_c, 2, 83, 82
4, 30690, Note_off_c, 2, 83, 82
4, 30720, Note_on_c, 2, 76, 76
4, 32605, Note_off_c, 2, 76, 76
4, 32640, Note_on_c, 2, 71, 91
4, 34380, Note_off_c, 2, 71, 91
4, 38400, Note_on_c, 2, 76, 82
4, 40290, Note_off_c, 2, 76, 82
4, 40320, Note_on_c, 2, 83, 82
4, 42240, Note_off_c, 2, 83, 82
4, 42240, Note_on_c, 2, 76, 76
4, 44115, Note_off_c, 2, 76, 76
4, 44160, Note_on_c, 2, 71, 91
4, 45900, Note_off_c, 2, 71, 91
4, 184320, End_track
5, 0, Start_track
5, 0, Key_signature, 0, "major"
5, 1, Control_c, 3, 99, 1
5, 1, Control_c, 3, 98, 8
5, 1, Control_c, 3, 6, 64
5, 2, Control_c, 3, 99, 1
5, 2, Control_c, 3, 98, 9
5, 2, Control_c, 3, 6, 64
5, 3, Control_c, 3, 99, 1
5, 3, Control_c, 3, 98, 10
5, 3, Control_c, 3, 6, 64
5, 4, Control_c, 3, 99, 1
5, 4, Control_c, 3, 98, 32
5, 4, Control_c, 3, 6, 64
5, 5, Control_c, 3, 99, 1
5, 5, Control_c, 3, 98, 33
5, 5, Control_c, 3, 6, 64
5, 6, Control_c, 3, 99, 1
5, 6, Control_c, 3, 98, 99
5, 6, Control_c, 3, 6, 64
5, 7, Control_c, 3, 99, 1
5, 7, Control_c, 3, 98, 100
5, 7, Control_c, 3, 6, 64
5, 8, Control_c, 3, 99, 1
5, 8, Control_c, 3, 98, 102
5, 8, Control_c, 3, 6, 64
5, 9, Control_c, 3, 0, 0
5, 10, Program_c, 3, 24
5, 11, Control_c, 3, 7, 100
5, 12, Control_c, 3, 10, 64
5, 13, Control_c, 3, 91, 120
5, 14, Control_c, 3, 93, 90
5, 15, Control_c, 3, 101, 0
5, 15, Control_c, 3, 100, 0
5, 15, Control_c, 3, 6, 2
5, 15, Title_t, "M #4"
5, 15, Channel_prefix, 3
5, 15, Instrument_name_t, "M #4"
5, 2335, Control_c, 3, 121, 0
5, 2480, Control_c, 3, 32, 0
5, 2490, Control_c, 3, 11, 127
5, 2955, Control_c, 3, 101, 0
5, 2960, Control_c, 3, 100, 0
5, 2965, Control_c, 3, 6, 12
5, 2970, Control_c, 3, 101, 127
5, 2975, Control_c, 3, 100, 127
5, 5760, Control_c, 3, 11, 22
5, 5760, Note_on_c, 3, 59, 67
5, 5760, Note_on_c, 3, 55, 67
5, 5760, Note_on_c, 3, 62, 67
5, 5760, Note_on_c, 3, 64, 67
5, 5760, Note_on_c, 3, 52, 67
5, 5790, Control_c, 3, 11, 23
5, 5850, Control_c, 3, 11, 24
5, 5880, Control_c, 3, 11, 25
5, 5940, Control_c, 3, 11, 26
5, 6000, Control_c, 3, 11, 27
5, 6030, Control_c, 3, 11, 28
5, 6060, Note_off_c, 3, 55, 67
5, 6060, Note_off_c, 3, 62, 67
5, 6060, Note_off_c, 3, 64, 67
5, 6060, Note_off_c, 3, 52, 67
5, 6090, Control_c, 3, 11, 29
5, 6090, Note_off_c, 3, 59, 67
5, 6120, Note_on_c, 3, 64, 67
5, 6120, Note_on_c, 3, 62, 67
5, 6120, Note_on_c, 3, 52, 67
5, 6120, Note_on_c, 3, 55, 67
5, 6120, Note_on_c, 3, 59, 67
5, 6150, Control_c, 3, 11, 30
5, 6180, Control_c, 3, 11, 31
5, 6200, Note_off_c, 3, 55, 67
5, 6200, Note_off_c, 3, 59, 67
5, 6210, Note_off_c, 3, 62, 67
5, 6210, Note_off_c, 3, 52, 67
5, 6215, Note_off_c, 3, 64, 67
5, 6240, Control_c, 3, 11, 32
5, 6240, Note_on_c, 3, 62, 67
5, 6240, Note_on_c, 3, 64, 67
5, 6240, Note_on_c, 3, 55, 67
5, 6240, Note_on_c, 3, 52, 67
5, 6240, Note_on_c, 3, 59, 67
5, 6270, Control_c, 3, 11, 33
5, 6330, Control_c, 3, 11, 34
5, 6390, Control_c, 3, 11, 35
5, 6420, Control_c, 3, 11, 36
5, 6480, Control_c, 3, 11, 37
5, 6540, Control_c, 3, 11, 38
5, 6540, Note_off_c, 3, 55, 67
5, 6540, Note_off_c, 3, 52, 67
5, 6540, Note_off_c, 3, 59, 67
5, 6545, Note_off_c, 3, 64, 67
5, 6550, Note_off_c, 3, 62, 67
5, 6570, Control_c, 3, 11, 39
5, 6600, Note_on_c, 3, 62, 67
5, 6600, Note_on_c, 3, 59, 67
5, 6600, Note_on_c, 3, 52, 67
5, 6600, Note_on_c, 3, 64, 67
5, 6600, Note_on_c, 3, 55, 67
5, 6630, Control_c, 3, 11, 40
5, 6660, Control_c, 3, 11, 41
5, 6720, Control_c, 3, 11, 42
5, 6780, Control_c, 3, 11, 43
5, 6795, Note_off_c, 3, 55, 67
5, 6800, Note_off_c, 3, 59, 67
5, 6800, Note_off_c, 3, 52, 67
5, 6800, Note_off_c, 3, 64, 67
5, 6810, Control_c, 3, 11, 44
5, 6810, Note_off_c, 3, 62, 67
5, 6840, Note_on_c, 3, 62, 67
5, 6840, Note_on_c, 3, 52, 67
5, 6840, Note_on_c, 3, 64, 67
5, 6840, Note_on_c, 3, 59, 67
5, 6840, Note_on_c, 3, 55, 67
5, 6870, Control_c, 3, 11, 45
5, 6910, Note_off_c, 3, 55, 67
5, 6920, Note_off_c, 3, 52, 67
5, 6920, Note_off_c, 3, 64, 67
5, 6920, Note_off_c, 3, 59, 67
5, 6925, Note_off_c, 3, 62, 67
5, 6930, Control_c, 3, 11, 46
5, 6960, Control_c, 3, 11, 47
5, 6960, Note_on_c, 3, 62, 67
5, 6960, Note_on_c, 3, 52, 67
5, 6960, Note_on_c, 3, 59, 67
5, 6960, Note_on_c, 3, 64, 67
5, 6960, Note_on_c, 3, 55, 67
5, 7020, Control_c, 3, 11, 48
5, 7050, Control_c, 3, 11, 49
5, 7110, Control_c, 3, 11, 50
5, 7170, Control_c, 3, 11, 51
5, 7200, Control_c, 3, 11, 52
5, 7260, Control_c, 3, 11, 53
5, 7275, Note_off_c, 3, 55, 67
5, 7280, Note_off_c, 3, 64, 67
5, 7285, Note_off_c, 3, 52, 67
5, 7285, Note_off_c, 3, 59, 67
5, 7295, Note_off_c, 3, 62, 67
5, 7320, Control_c, 3, 11, 54
5, 7320, Note_on_c, 3, 62, 67
5, 7320, Note_on_c, 3, 64, 67
5, 7320, Note_on_c, 3, 52, 67
5, 7320, Note_on_c, 3, 59, 67
5, 7320, Note_on_c, 3, 55, 67
5, 7350, Control_c, 3, 11, 55
5, 7385, Note_off_c, 3, 55, 67
5, 7395, Note_off_c, 3, 52, 67
5, 7395, Note_off_c, 3, 59, 67
5, 7400, Note_off_c, 3, 64, 67
5, 7405, Note_off_c, 3, 62, 67
5, 7410, Control_c, 3, 11, 56
5, 7440, Control_c, 3, 11, 57
5, 7440, Note_on_c, 3, 64, 67
5, 7440, Note_on_c, 3, 62, 67
5, 7440, Note_on_c, 3, 59, 67
5, 7440, Note_on_c, 3, 52, 67
5, 7440, Note_on_c, 3, 55, 67
5, 7500, Control_c, 3, 11, 58
5, 7560, Control_c, 3, 11, 59
5, 7590, Control_c, 3, 11, 60
5, 7605, Note_off_c, 3, 55, 67
5, 7610, Note_off_c, 3, 52, 67
5, 7615, Note_off_c, 3, 59, 67
5, 7630, Note_off_c, 3, 64, 67
5, 7630, Note_off_c, 3, 62, 67
5, 7650, Control_c, 3, 11, 61
5, 7680, Note_on_c, 3, 53, 67
5, 7680, Note_on_c, 3, 64, 67
5, 7680, Note_on_c, 3, 60, 67
5, 7680, Note_on_c, 3, 57, 67
5, 7710, Control_c, 3, 11, 62
5, 7740, Control_c, 3, 11, 63
5, 7800, Control_c, 3, 11, 64
5, 7830, Control_c, 3, 11, 65
5, 7890, Control_c, 3, 11, 66
5, 7950, Control_c, 3, 11, 67
5, 7980, Control_c, 3, 11, 68
5, 7985, Note_off_c, 3, 57, 67
5, 7990, Note_off_c, 3, 60, 67
5, 7995, Note_off_c, 3, 53, 67
5, 7995, Note_off_c, 3, 64, 67
5, 8040, Control_c, 3, 11, 69
5, 8040, Note_on_c, 3, 64, 67
5, 8040, Note_on_c, 3, 60, 67
5, 8040, Note_on_c, 3, 53, 67
5, 8040, Note_on_c, 3, 57, 67
5, 8100, Control_c, 3, 11, 70
5, 8125, Note_off_c, 3, 57, 67
5, 8130, Control_c, 3, 11, 71
5, 8130, Note_off_c, 3, 60, 67
5, 8130, Note_off_c, 3, 53, 67
5, 8135, Note_off_c, 3, 64, 67
5, 8160, Note_on_c, 3, 53, 67
5, 8160, Note_on_c, 3, 64, 67
5, 8160, Note_on_c, 3, 60, 67
5, 8160, Note_on_c, 3, 57, 67
5, 8190, Control_c, 3, 11, 72
5, 8220, Control_c, 3, 11, 73
5, 8280, Control_c, 3, 11, 74
5, 8340, Control_c, 3, 11, 75
5, 8370, Control_c, 3, 11, 76
5, 8430, Control_c, 3, 11, 77
5, 8460, Control_c, 3, 11, 78
5, 8475, Note_off_c, 3, 60, 67
5, 8475, Note_off_c, 3, 57, 67
5, 8480, Note_off_c, 3, 53, 67
5, 8480, Note_off_c, 3, 64, 67
5, 8520, Control_c, 3, 11, 79
5, 8520, Note_on_c, 3, 64, 67
5, 8520, Note_on_c, 3, 60, 67
5, 8520, Note_on_c, 3, 53, 67
5, 8520, Note_on_c, 3, 57, 67
5, 8580, Control_c, 3, 11, 80
5, 8610, Control_c, 3, 11, 81
5, 8670, Control_c, 3, 11, 82
5, 8710, Note_off_c, 3, 53, 67
5, 8710, Note_off_c, 3, 57, 67
5, 8715, Note_off_c, 3, 60, 67
5, 8720, Note_off_c, 3, 64, 67
5, 8730, Control_c, 3, 11, 83
5, 8760, Control_c, 3, 11, 84
5, 8760, Note_on_c, 3, 64, 67
5, 8760, Note_on_c, 3, 60, 67
5, 8760, Note_on_c, 3, 57, 67
5, 8760, Note_on_c, 3, 53, 67
5, 8820, Control_c, 3, 11, 85
5, 8835, Note_off_c, 3, 57, 67
5, 8835, Note_off_c, 3, 53, 67
5, 8845, Note_off_c, 3, 60, 67
5, 8850, Control_c, 3, 11, 86
5, 8860, Note_off_c, 3, 64, 67
5, 8880, Note_on_c, 3, 53, 67
5, 8880, Note_on_c, 3, 64, 67
5, 8880, Note_on_c, 3, 60, 67
5, 8880, Note_on_c, 3, 57, 67
5, 8910, Control_c, 3, 11, 87
5, 8970, Control_c, 3, 11, 88
5, 9000, Control_c, 3, 11, 89
5, 9060, Control_c, 3, 11, 90
5, 9120, Control_c, 3, 11, 91
5, 9150, Control_c, 3, 11, 92
5, 9210, Control_c, 3, 11, 93
5, 9210, Note_off_c, 3, 57, 67
5, 9215, Note_off_c, 3, 53, 67
5, 9215, Note_off_c, 3, 64, 67
5, 9215, Note_off_c, 3, 60, 67
5, 9240, Control_c, 3, 11, 94
5, 9240, Note_on_c, 3, 60, 67
5, 9240, Note_on_c, 3, 64, 67
5, 9240, Note_on_c, 3, 53, 67
5, 9240, Note_on_c, 3, 57, 67
5, 9270, Control_c, 3, 11, 89
5, 9320, Note_off_c, 3, 53, 67
5, 9320, Note_off_c, 3, 57, 67
5, 9325, Note_off_c, 3, 60, 67
5, 9325, Note_off_c, 3, 64, 67
5, 9360, Note_on_c, 3, 64, 67
5, 9360, Note_on_c, 3, 60, 67
5, 9360, Note_on_c, 3, 57, 67
5, 9360, Note_on_c, 3, 53, 67
5, 9450, Control_c, 3, 11, 90
5, 9530, Note_off_c, 3, 53, 67
5, 9550, Note_off_c, 3, 57, 67
5, 9560, Note_off_c, 3, 60, 67
5, 9570, Note_off_c, 3, 64, 67
5, 9600, Note_on_c, 3, 62, 67
5, 9600, Note_on_c, 3, 59, 67
5, 9600, Note_on_c, 3, 52, 67
5, 9600, Note_on_c, 3, 55, 67
5, 9600, Note_on_c, 3, 64, 67
5, 9750, Control_c, 3, 11, 91
5, 9840, Note_off_c, 3, 64, 67
5, 9875, Note_off_c, 3, 52, 67
5, 9875, Note_off_c, 3, 55, 67
5, 9880, Note_off_c, 3, 59, 67
5, 9885, Note_off_c, 3, 62, 67
5, 9960, Note_on_c, 3, 64, 67
5, 9960, Note_on_c, 3, 59, 67
5, 9960, Note_on_c, 3, 62, 67
5, 9960, Note_on_c, 3, 55, 67
5, 9960, Note_on_c, 3, 52, 67
5, 10040, Note_off_c, 3, 55, 67
5, 10040, Note_off_c, 3, 52, 67
5, 10050, Control_c, 3, 11, 92
5, 10055, Note_off_c, 3, 59, 67
5, 10055, Note_off_c, 3, 62, 67
5, 10060, Note_off_c, 3, 64, 67
5, 10080, Note_on_c, 3, 64, 67
5, 10080, Note_on_c, 3, 62, 67
5, 10080, Note_on_c, 3, 59, 67
5, 10080, Note_on_c, 3, 52, 67
5, 10080, Note_on_c, 3, 55, 67
5, 10350, Control_c, 3, 11, 93
5, 10375, Note_off_c, 3, 55, 67
5, 10380, Note_off_c, 3, 59, 67
5, 10380, Note_off_c, 3, 52, 67
5, 10385, Note_off_c, 3, 62, 67
5, 10390, Note_off_c, 3, 64, 67
5, 10440, Note_on_c, 3, 64, 67
5, 10440, Note_on_c, 3, 62, 67
5, 10440, Note_on_c, 3, 59, 67
5, 10440, Note_on_c, 3, 52, 67
5, 10440, Note_on_c, 3, 55, 67
5, 10635, Note_off_c, 3, 55, 67
5, 10640, Note_off_c, 3, 52, 67
5, 10645, Note_off_c, 3, 62, 67
5, 10645, Note_off_c, 3, 59, 67
5, 10650, Control_c, 3, 11, 94
5, 10650, Note_off_c, 3, 64, 67
5, 10680, Note_on_c, 3, 64, 67
5, 10680, Note_on_c, 3, 52, 67
5, 10680, Note_on_c, 3, 62, 67
5, 10680, Note_on_c, 3, 55, 67
5, 10680, Note_on_c, 3, 59, 67
5, 10755, Note_off_c, 3, 55, 67
5, 10755, Note_off_c, 3, 59, 67
5, 10760, Note_off_c, 3, 62, 67
5, 10765, Note_off_c, 3, 52, 67
5, 10770, Note_off_c, 3, 64, 67
5, 10800, Note_on_c, 3, 62, 67
5, 10800, Note_on_c, 3, 64, 67
5, 10800, Note_on_c, 3, 52, 67
5, 10800, Note_on_c, 3, 59, 67
5, 10800, Note_on_c, 3, 55, 67
5, 10950, Control_c, 3, 11, 95
5, 11110, Note_off_c, 3, 55, 67
5, 11115, Note_off_c, 3, 59, 67
5, 11120, Note_off_c, 3, 52, 67
5, 11125, Note_off_c, 3, 62, 67
5, 11125, Note_off_c, 3, 64, 67
5, 11160, Note_on_c, 3, 64, 67
5, 11160, Note_on_c, 3, 62, 67
5, 11160, Note_on_c, 3, 52, 67
5, 11160, Note_on_c, 3, 59, 67
5, 11160, Note_on_c, 3, 55, 67
5, 11230, Note_off_c, 3, 55, 67
5, 11240, Note_off_c, 3, 52, 67
5, 11240, Note_off_c, 3, 59, 67
5, 11245, Note_off_c, 3, 64, 67
5, 11245, Note_off_c, 3, 62, 67
5, 11250, Control_c, 3, 11, 96
5, 11280, Note_on_c, 3, 64, 67
5, 11280, Note_on_c, 3, 62, 67
5, 11280, Note_on_c, 3, 59, 67
5, 11280, Note_on_c, 3, 55, 67
5, 11280, Note_on_c, 3, 52, 67
5, 11465, Note_off_c, 3, 55, 67
5, 11465, Note_off_c, 3, 52, 67
5, 11470, Note_off_c, 3, 59, 67
5, 11480, Note_off_c, 3, 62, 67
5, 11485, Note_off_c, 3, 64, 67
5, 11520, Note_on_c, 3, 64, 67
5, 11520, Note_on_c, 3, 60, 67
5, 11520, Note_on_c, 3, 53, 67
5, 11520, Note_on_c, 3, 57, 67
5, 11550, Control_c, 3, 11, 97
5, 11825, Note_off_c, 3, 57, 67
5, 11830, Note_off_c, 3, 60, 67
5, 11830, Note_off_c, 3, 53, 67
5, 11840, Note_off_c, 3, 64, 67
5, 11850, Control_c, 3, 11, 98
5, 11880, Note_on_c, 3, 64, 67
5, 11880, Note_on_c, 3, 60, 67
5, 11880, Note_on_c, 3, 53, 67
5, 11880, Note_on_c, 3, 57, 67
5, 11955, Note_off_c, 3, 57, 67
5, 11960, Note_off_c, 3, 60, 67
5, 11960, Note_off_c, 3, 53, 67
5, 11975, Note_off_c, 3, 64, 67
5, 12000, Note_on_c, 3, 64, 67
5, 12000, Note_on_c, 3, 53, 67
5, 12000, Note_on_c, 3, 57, 67
5, 12000, Note_on_c, 3, 60, 67
5, 12150, Control_c, 3, 11, 99
5, 12305, Note_off_c, 3, 53, 67
5, 12305, Note_off_c, 3, 57, 67
5, 12305, Note_off_c, 3, 60, 67
5, 12315, Note_off_c, 3, 64, 67
5, 12360, Note_on_c, 3, 64, 67
5, 12360, Note_on_c, 3, 60, 67
5, 12360, Note_on_c, 3, 53, 67
5, 12360, Note_on_c, 3, 57, 67
5, 12450, Control_c, 3, 11, 100
5, 12555, Note_off_c, 3, 53, 67
5, 12555, Note_off_c, 3, 57, 67
5, 12560, Note_off_c, 3, 60, 67
5, 12575, Note_off_c, 3, 64, 67
5, 12600, Note_on_c, 3, 64, 67
5, 12600, Note_on_c, 3, 60, 67
5, 12600, Note_on_c, 3, 53, 67
5, 12600, Note_on_c, 3, 57, 67
5, 12670, Note_off_c, 3, 57, 67
5, 12675, Note_off_c, 3, 60, 67
5, 12675, Note_off_c, 3, 53, 67
5, 12690, Note_off_c, 3, 64, 67
5, 12720, Note_on_c, 3, 64, 67
5, 12720, Note_on_c, 3, 53, 67
5, 12720, Note_on_c, 3, 60, 67
5, 12720, Note_on_c, 3, 57, 67
5, 12750, Control_c, 3, 11, 101
5, 13030, Note_off_c, 3, 57, 67
5, 13035, Note_off_c, 3, 60, 67
5, 13040, Note_off_c, 3, 53, 67
5, 13045, Note_off_c, 3, 64, 67
5, 13050, Control_c, 3, 11, 102
5, 13080, Note_on_c, 3, 64, 67
5, 13080, Note_on_c, 3, 60, 67
5, 13080, Note_on_c, 3, 53, 67
5, 13080, Note_on_c, 3, 57, 67
5, 13155, Note_off_c, 3, 53, 67
5, 13155, Note_off_c, 3, 57, 67
5, 13160, Note_off_c, 3, 60, 67
5, 13170, Note_off_c, 3, 64, 67
5, 13200, Note_on_c, 3, 64, 67
5, 13200, Note_on_c, 3, 60, 67
5, 13200, Note_on_c, 3, 57, 67
5, 13200, Note_on_c, 3, 53, 67
5, 13350, Control_c, 3, 11, 103
5, 13370, Note_off_c, 3, 53, 67
5, 13380, Note_off_c, 3, 57, 67
5, 13390, Note_off_c, 3, 60, 67
5, 13410, Note_off_c, 3, 64, 67
5, 13440, Note_on_c, 3, 59, 67
5, 13440, Note_on_c, 3, 55, 67
5, 13440, Note_on_c, 3, 62, 67
5, 13440, Note_on_c, 3, 64, 67
5, 13440, Note_on_c, 3, 52, 67
5, 13650, Control_c, 3, 11, 104
5, 13740, Note_off_c, 3, 55, 67
5, 13740, Note_off_c, 3, 62, 67
5, 13740, Note_off_c, 3, 64, 67
5, 13740, Note_off_c, 3, 52, 67
5, 13770, Note_off_c, 3, 59, 67
5, 13800, Note_on_c, 3, 64, 67
5, 13800, Note_on_c, 3, 62, 67
5, 13800, Note_on_c, 3, 52, 67
5, 13800, Note_on_c, 3, 55, 67
5, 13800, Note_on_c, 3, 59, 67
5, 13880, Note_off_c, 3, 55, 67
5, 13880, Note_off_c, 3, 59, 67
5, 13890, Note_off_c, 3, 62, 67
5, 13890, Note_off_c, 3, 52, 67
5, 13895, Note_off_c, 3, 64, 67
5, 13920, Note_on_c, 3, 62, 67
5, 13920, Note_on_c, 3, 64, 67
5, 13920, Note_on_c, 3, 55, 67
5, 13920, Note_on_c, 3, 52, 67
5, 13920, Note_on_c, 3, 59, 67
5, 13950, Control_c, 3, 11, 105
5, 14220, Note_off_c, 3, 55, 67
5, 14220, Note_off_c, 3, 52, 67
5, 14220, Note_off_c, 3, 59, 67
5, 14225, Note_off_c, 3, 64, 67
5, 14230, Note_off_c, 3, 62, 67
5, 14250, Control_c, 3, 11, 106
5, 14280, Note_on_c, 3, 62, 67
5, 14280, Note_on_c, 3, 59, 67
5, 14280, Note_on_c, 3, 52, 67
5, 14280, Note_on_c, 3, 64, 67
5, 14280, Note_on_c, 3, 55, 67
5, 14475, Note_off_c, 3, 55, 67
5, 14480, Note_off_c, 3, 59, 67
5, 14480, Note_off_c, 3, 52, 67
5, 14480, Note_off_c, 3, 64, 67
5, 14490, Note_off_c, 3, 62, 67
5, 14520, Note_on_c, 3, 62, 67
5, 14520, Note_on_c, 3, 52, 67
5, 14520, Note_on_c, 3, 64, 67
5, 14520, Note_on_c, 3, 59, 67
5, 14520, Note_on_c, 3, 55, 67
5, 14550, Control_c, 3, 11, 107
5, 14590, Note_off_c, 3, 55, 67
5, 14600, Note_off_c, 3, 52, 67
5, 14600, Note_off_c, 3, 64, 67
5, 14600, Note_off_c, 3, 59, 67
5, 14605, Note_off_c, 3, 62, 67
5, 14640, Note_on_c, 3, 62, 67
5, 14640, Note_on_c, 3, 52, 67
5, 14640, Note_on_c, 3, 59, 67
5, 14640, Note_on_c, 3, 64, 67
5, 14640, Note_on_c, 3, 55, 67
5, 14850, Control_c, 3, 11, 108
5, 14955, Note_off_c, 3, 55, 67
5, 14960, Note_off_c, 3, 64, 67
5, 14965, Note_off_c, 3, 52, 67
5, 14965, Note_off_c, 3, 59, 67
5, 14975, Note_off_c, 3, 62, 67
5, 15000, Note_on_c, 3, 62, 67
5, 15000, Note_on_c, 3, 64, 67
5, 15000, Note_on_c, 3, 52, 67
5, 15000, Note_on_c, 3, 59, 67
5, 15000, Note_on_c, 3, 55, 67
5, 15065, Note_off_c, 3, 55, 67
5, 15075, Note_off_c, 3, 52, 67
5, 15075, Note_off_c, 3, 59, 67
5, 15080, Note_off_c, 3, 64, 67
5, 15085, Note_off_c, 3, 62, 67
5, 15120, Note_on_c, 3, 64, 67
5, 15120, Note_on_c, 3, 62, 67
5, 15120, Note_on_c, 3, 59, 67
5, 15120, Note_on_c, 3, 52, 67
5, 15120, Note_on_c, 3, 55, 67
5, 15150, Control_c, 3, 11, 109
5, 15285, Note_off_c, 3, 55, 67
5, 15290, Note_off_c, 3, 52, 67
5, 15295, Note_off_c, 3, 59, 67
5, 15310, Note_off_c, 3, 64, 67
5, 15310, Note_off_c, 3, 62, 67
5, 15360, Note_on_c, 3, 53, 67
5, 15360, Note_on_c, 3, 64, 67
5, 15360, Note_on_c, 3, 60, 67
5, 15360, Note_on_c, 3, 57, 67
5, 15450, Control_c, 3, 11, 110
5, 15665, Note_off_c, 3, 57, 67
5, 15670, Note_off_c, 3, 60, 67
5, 15675, Note_off_c, 3, 53, 67
5, 15675, Note_off_c, 3, 64, 67
5, 15720, Note_on_c, 3, 64, 67
5, 15720, Note_on_c, 3, 60, 67
5, 15720, Note_on_c, 3, 53, 67
5, 15720, Note_on_c, 3, 57, 67
5, 15750, Control_c, 3, 11, 111
5, 15805, Note_off_c, 3, 57, 67
5, 15810, Note_off_c, 3, 60, 67
5, 15810, Note_off_c, 3, 53, 67
5, 15815, Note_off_c, 3, 64, 67
5, 15840, Note_on_c, 3, 53, 67
5, 15840, Note_on_c, 3, 64, 67
5, 15840, Note_on_c, 3, 60, 67
5, 15840, Note_on_c, 3, 57, 67
5, 16050, Control_c, 3, 11, 112
5, 16155, Note_off_c, 3, 60, 67
5, 16155, Note_off_c, 3, 57, 67
5, 16160, Note_off_c, 3, 53, 67
5, 16160, Note_off_c, 3, 64, 67
5, 16200, Note_on_c, 3, 64, 67
5, 16200, Note_on_c, 3, 60, 67
5, 16200, Note_on_c, 3, 53, 67
5, 16200, Note_on_c, 3, 57, 67
5, 16350, Control_c, 3, 11, 113
5, 16390, Note_off_c, 3, 53, 67
5, 16390, Note_off_c, 3, 57, 67
5, 16395, Note_off_c, 3, 60, 67
5, 16400, Note_off_c, 3, 64, 67
5, 16440, Note_on_c, 3, 64, 67
5, 16440, Note_on_c, 3, 60, 67
5, 16440, Note_on_c, 3, 57, 67
5, 16440, Note_on_c, 3, 53, 67
5, 16515, Note_off_c, 3, 57, 67
5, 16515, Note_off_c, 3, 53, 67
5, 16525, Note_off_c, 3, 60, 67
5, 16540, Note_off_c, 3, 64, 67
5, 16560, Note_on_c, 3, 53, 67
5, 16560, Note_on_c, 3, 64, 67
5, 16560, Note_on_c, 3, 60, 67
5, 16560, Note_on_c, 3, 57, 67
5, 16650, Control_c, 3, 11, 114
5, 16890, Note_off_c, 3, 57, 67
5, 16895, Note_off_c, 3, 53, 67
5, 16895, Note_off_c, 3, 64, 67
5, 16895, Note_off_c, 3, 60, 67
5, 16920, Note_on_c, 3, 60, 67
5, 16920, Note_on_c, 3, 64, 67
5, 16920, Note_on_c, 3, 53, 67
5, 16920, Note_on_c, 3, 57, 67
5, 16950, Control_c, 3, 11, 115
5, 17000, Note_off_c, 3, 53, 67
5, 17000, Note_off_c, 3, 57, 67
5, 17005, Note_off_c, 3, 60, 67
5, 17005, Note_off_c, 3, 64, 67
5, 17040, Note_on_c, 3, 64, 67
5, 17040, Note_on_c, 3, 60, 67
5, 17040, Note_on_c, 3, 57, 67
5, 17040, Note_on_c, 3, 53, 67
5, 17210, Note_off_c, 3, 53, 67
5, 17230, Note_off_c, 3, 57, 67
5, 17240, Note_off_c, 3, 60, 67
5, 17250, Control_c, 3, 11, 116
5, 17250, Note_off_c, 3, 64, 67
5, 17280, Note_on_c, 3, 62, 67
5, 17280, Note_on_c, 3, 59, 67
5, 17280, Note_on_c, 3, 52, 67
5, 17280, Note_on_c, 3, 55, 67
5, 17280, Note_on_c, 3, 64, 67
5, 17520, Note_off_c, 3, 64, 67
5, 17550, Control_c, 3, 11, 117
5, 17555, Note_off_c, 3, 52, 67
5, 17555, Note_off_c, 3, 55, 67
5, 17560, Note_off_c, 3, 59, 67
5, 17565, Note_off_c, 3, 62, 67
5, 17640, Note_on_c, 3, 64, 67
5, 17640, Note_on_c, 3, 59, 67
5, 17640, Note_on_c, 3, 62, 67
5, 17640, Note_on_c, 3, 55, 67
5, 17640, Note_on_c, 3, 52, 67
5, 17720, Note_off_c, 3, 55, 67
5, 17720, Note_off_c, 3, 52, 67
5, 17735, Note_off_c, 3, 59, 67
5, 17735, Note_off_c, 3, 62, 67
5, 17740, Note_off_c, 3, 64, 67
5, 17760, Note_on_c, 3, 64, 67
5, 17760, Note_on_c, 3, 62, 67
5, 17760, Note_on_c, 3, 59, 67
5, 17760, Note_on_c, 3, 52, 67
5, 17760, Note_on_c, 3, 55, 67
5, 17850, Control_c, 3, 11, 118
5, 18055, Note_off_c, 3, 55, 67
5, 18060, Note_off_c, 3, 59, 67
5, 18060, Note_off_c, 3, 52, 67
5, 18065, Note_off_c, 3, 62, 67
5, 18070, Note_off_c, 3, 64, 67
5, 18120, Note_on_c, 3, 64, 67
5, 18120, Note_on_c, 3, 62, 67
5, 18120, Note_on_c, 3, 59, 67
5, 18120, Note_on_c, 3, 52, 67
5, 18120, Note_on_c, 3, 55, 67
5, 18150, Control_c, 3, 11, 119
5, 18315, Note_off_c, 3, 55, 67
5, 18320, Note_off_c, 3, 52, 67
5, 18325, Note_off_c, 3, 62, 67
5, 18325, Note_off_c, 3, 59, 67
5, 18330, Note_off_c, 3, 64, 67
5, 18360, Note_on_c, 3, 64, 67
5, 18360, Note_on_c, 3, 52, 67
5, 18360, Note_on_c, 3, 62, 67
5, 18360, Note_on_c, 3, 55, 67
5, 18360, Note_on_c, 3, 59, 67
5, 18435, Note_off_c, 3, 55, 67
5, 18435, Note_off_c, 3, 59, 67
5, 18440, Note_off_c, 3, 62, 67
5, 18445, Note_off_c, 3, 52, 67
5, 18450, Control_c, 3, 11, 120
5, 18450, Note_off_c, 3, 64, 67
5, 18480, Note_on_c, 3, 62, 67
5, 18480, Note_on_c, 3, 64, 67
5, 18480, Note_on_c, 3, 52, 67
5, 18480, Note_on_c, 3, 59, 67
5, 18480, Note_on_c, 3, 55, 67
5, 18750, Control_c, 3, 11, 121
5, 18790, Note_off_c, 3, 55, 67
5, 18795, Note_off_c, 3, 59, 67
5, 18800, Note_off_c, 3, 52, 67
5, 18805, Note_off_c, 3, 62, 67
5, 18805, Note_off_c, 3, 64, 67
5, 18840, Note_on_c, 3, 64, 67
5, 18840, Note_on_c, 3, 62, 67
5, 18840, Note_on_c, 3, 52, 67
5, 18840, Note_on_c, 3, 59, 67
5, 18840, Note_on_c, 3, 55, 67
5, 18910, Note_off_c, 3, 55, 67
5, 18920, Note_off_c, 3, 52, 67
5, 18920, Note_off_c, 3, 59, 67
5, 18925, Note_off_c, 3, 64, 67
5, 18925, Note_off_c, 3, 62, 67
5, 18960, Note_on_c, 3, 64, 67
5, 18960, Note_on_c, 3, 62, 67
5, 18960, Note_on_c, 3, 59, 67
5, 18960, Note_on_c, 3, 55, 67
5, 18960, Note_on_c, 3, 52, 67
5, 19050, Control_c, 3, 11, 122
5, 19145, Note_off_c, 3, 55, 67
5, 19145, Note_off_c, 3, 52, 67
5, 19150, Note_off_c, 3, 59, 67
5, 19160, Note_off_c, 3, 62, 67
5, 19165, Note_off_c, 3, 64, 67
5, 19200, Note_on_c, 3, 64, 67
5, 19200, Note_on_c, 3, 60, 67
5, 19200, Note_on_c, 3, 53, 67
5, 19200, Note_on_c, 3, 57, 67
5, 19350, Control_c, 3, 11, 123
5, 19505, Note_off_c, 3, 57, 67
5, 19510, Note_off_c, 3, 60, 67
5, 19510, Note_off_c, 3, 53, 67
5, 19520, Note_off_c, 3, 64, 67
5, 19560, Note_on_c, 3, 64, 67
5, 19560, Note_on_c, 3, 60, 67
5, 19560, Note_on_c, 3, 53, 67
5, 19560, Note_on_c, 3, 57, 67
5, 19635, Note_off_c, 3, 57, 67
5, 19640, Note_off_c, 3, 60, 67
5, 19640, Note_off_c, 3, 53, 67
5, 19650, Control_c, 3, 11, 124
5, 19655, Note_off_c, 3, 64, 67
5, 19680, Note_on_c, 3, 64, 67
5, 19680, Note_on_c, 3, 53, 67
5, 19680, Note_on_c, 3, 57, 67
5, 19680, Note_on_c, 3, 60, 67
5, 19950, Control_c, 3, 11, 125
5, 19985, Note_off_c, 3, 53, 67
5, 19985, Note_off_c, 3, 57, 67
5, 19985, Note_off_c, 3, 60, 67
5, 19995, Note_off_c, 3, 64, 67
5, 20040, Note_on_c, 3, 64, 67
5, 20040, Note_on_c, 3, 60, 67
5, 20040, Note_on_c, 3, 53, 67
5, 20040, Note_on_c, 3, 57, 67
5, 20235, Note_off_c, 3, 53, 67
5, 20235, Note_off_c, 3, 57, 67
5, 20240, Note_off_c, 3, 60, 67
5, 20250, Control_c, 3, 11, 126
5, 20255, Note_off_c, 3, 64, 67
5, 20280, Note_on_c, 3, 64, 67
5, 20280, Note_on_c, 3, 60, 67
5, 20280, Note_on_c, 3, 53, 67
5, 20280, Note_on_c, 3, 57, 67
5, 20350, Note_off_c, 3, 57, 67
5, 20355, Note_off_c, 3, 60, 67
5, 20355, Note_off_c, 3, 53, 67
5, 20370, Note_off_c, 3, 64, 67
5, 20400, Note_on_c, 3, 64, 67
5, 20400, Note_on_c, 3, 53, 67
5, 20400, Note_on_c, 3, 60, 67
5, 20400, Note_on_c, 3, 57, 67
5, 20550, Control_c, 3, 11, 127
5, 20710, Note_off_c, 3, 57, 67
5, 20715, Note_off_c, 3, 60, 67
5, 20720, Note_off_c, 3, 53, 67
5, 20725, Note_off_c, 3, 64, 67
5, 20760, Note_on_c, 3, 64, 67
5, 20760, Note_on_c, 3, 60, 67
5, 20760, Note_on_c, 3, 53, 67
5, 20760, Note_on_c, 3, 57, 67
5, 20835, Note_off_c, 3, 53, 67
5, 20835, Note_off_c, 3, 57, 67
5, 20840, Note_off_c, 3, 60, 67
5, 20850, Control_c, 3, 11, 127
5, 20850, Note_off_c, 3, 64, 67
5, 20880, Note_on_c, 3, 64, 67
5, 20880, Note_on_c, 3, 60, 67
5, 20880, Note_on_c, 3, 57, 67
5, 20880, Note_on_c, 3, 53, 67
5, 21050, Note_off_c, 3, 53, 67
5, 21060, Note_off_c, 3, 57, 67
5, 21070, Note_off_c, 3, 60, 67
5, 21090, Note_off_c, 3, 64, 67
5, 21120, Note_on_c, 3, 59, 67
5, 21120, Note_on_c, 3, 64, 67
5, 21120, Note_on_c, 3, 62, 67
5, 21120, Note_on_c, 3, 55, 67
5, 21120, Note_on_c, 3, 52, 67
5, 21420, Note_off_c, 3, 64, 67
5, 21420, Note_off_c, 3, 62, 67
5, 21420, Note_off_c, 3, 55, 67
5, 21420, Note_off_c, 3, 52, 67
5, 21450, Note_off_c, 3, 59, 67
5, 21480, Note_on_c, 3, 64, 67
5, 21480, Note_on_c, 3, 62, 67
5, 21480, Note_on_c, 3, 52, 67
5, 21480, Note_on_c, 3, 55, 67
5, 21480, Note_on_c, 3, 59, 67
5, 21560, Note_off_c, 3, 55, 67
5, 21560, Note_off_c, 3, 59, 67
5, 21570, Note_off_c, 3, 62, 67
5, 21570, Note_off_c, 3, 52, 67
5, 21575, Note_off_c, 3, 64, 67
5, 21600, Note_on_c, 3, 62, 67
5, 21600, Note_on_c, 3, 64, 67
5, 21600, Note_on_c, 3, 55, 67
5, 21600, Note_on_c, 3, 52, 67
5, 21600, Note_on_c, 3, 59, 67
5, 21900, Note_off_c, 3, 55, 67
5, 21900, Note_off_c, 3, 52, 67
5, 21900, Note_off_c, 3, 59, 67
5, 21905, Note_off_c, 3, 64, 67
5, 21910, Note_off_c, 3, 62, 67
5, 21960, Note_on_c, 3, 62, 67
5, 21960, Note_on_c, 3, 59, 67
5, 21960, Note_on_c, 3, 52, 67
5, 21960, Note_on_c, 3, 64, 67
5, 21960, Note_on_c, 3, 55, 67
5, 22155, Note_off_c, 3, 55, 67
5, 22160, Note_off_c, 3, 59, 67
5, 22160, Note_off_c, 3, 52, 67
5, 22160, Note_off_c, 3, 64, 67
5, 22170, Note_off_c, 3, 62, 67
5, 22200, Note_on_c, 3, 62, 67
5, 22200, Note_on_c, 3, 52, 67
5, 22200, Note_on_c, 3, 64, 67
5, 22200, Note_on_c, 3, 59, 67
5, 22200, Note_on_c, 3, 55, 67
5, 22270, Note_off_c, 3, 55, 67
5, 22280, Note_off_c, 3, 52, 67
5, 22280, Note_off_c, 3, 64, 67
5, 22280, Note_off_c, 3, 59, 67
5, 22285, Note_off_c, 3, 62, 67
5, 22320, Note_on_c, 3, 62, 67
5, 22320, Note_on_c, 3, 52, 67
5, 22320, Note_on_c, 3, 59, 67
5, 22320, Note_on_c, 3, 64, 67
5, 22320, Note_on_c, 3, 55, 67
5, 22635, Note_off_c, 3, 55, 67
5, 22640, Note_off_c, 3, 64, 67
5, 22645, Note_off_c, 3, 52, 67
5, 22645, Note_off_c, 3, 59, 67
5, 22655, Note_off_c, 3, 62, 67
5, 22680, Note_on_c, 3, 62, 67
5, 22680, Note_on_c, 3, 64, 67
5, 22680, Note_on_c, 3, 52, 67
5, 22680, Note_on_c, 3, 59, 67
5, 22680, Note_on_c, 3, 55, 67
5, 22745, Note_off_c, 3, 55, 67
5, 22755, Note_off_c, 3, 52, 67
5, 22755, Note_off_c, 3, 59, 67
5, 22760, Note_off_c, 3, 64, 67
5, 22765, Note_off_c, 3, 62, 67
5, 22800, Note_on_c, 3, 64, 67
5, 22800, Note_on_c, 3, 62, 67
5, 22800, Note_on_c, 3, 59, 67
5, 22800, Note_on_c, 3, 52, 67
5, 22800, Note_on_c, 3, 55, 67
5, 22965, Note_off_c, 3, 55, 67
5, 22970, Note_off_c, 3, 52, 67
5, 22975, Note_off_c, 3, 59, 67
5, 22990, Note_off_c, 3, 64, 67
5, 22990, Note_off_c, 3, 62, 67
5, 23040, Note_on_c, 3, 64, 67
5, 23040, Note_on_c, 3, 53, 67
5, 23040, Note_on_c, 3, 60, 67
5, 23040, Note_on_c, 3, 57, 67
5, 23345, Note_off_c, 3, 57, 67
5, 23350, Note_off_c, 3, 60, 67
5, 23355, Note_off_c, 3, 64, 67
5, 23355, Note_off_c, 3, 53, 67
5, 23400, Note_on_c, 3, 64, 67
5, 23400, Note_on_c, 3, 60, 67
5, 23400, Note_on_c, 3, 53, 67
5, 23400, Note_on_c, 3, 57, 67
5, 23485, Note_off_c, 3, 57, 67
5, 23490, Note_off_c, 3, 60, 67
5, 23490, Note_off_c, 3, 53, 67
5, 23495, Note_off_c, 3, 64, 67
5, 23520, Note_on_c, 3, 53, 67
5, 23520, Note_on_c, 3, 64, 67
5, 23520, Note_on_c, 3, 60, 67
5, 23520, Note_on_c, 3, 57, 67
5, 23835, Note_off_c, 3, 60, 67
5, 23835, Note_off_c, 3, 57, 67
5, 23840, Note_off_c, 3, 53, 67
5, 23840, Note_off_c, 3, 64, 67
5, 23880, Note_on_c, 3, 64, 67
5, 23880, Note_on_c, 3, 60, 67
5, 23880, Note_on_c, 3, 53, 67
5, 23880, Note_on_c, 3, 57, 67
5, 24070, Note_off_c, 3, 53, 67
5, 24070, Note_off_c, 3, 57, 67
5, 24075, Note_off_c, 3, 60, 67
5, 24080, Note_off_c, 3, 64, 67
5, 24120, Note_on_c, 3, 64, 67
5, 24120, Note_on_c, 3, 60, 67
5, 24120, Note_on_c, 3, 57, 67
5, 24120, Note_on_c, 3, 53, 67
5, 24195, Note_off_c, 3, 57, 67
5, 24195, Note_off_c, 3, 53, 67
5, 24205, Note_off_c, 3, 60, 67
5, 24220, Note_off_c, 3, 64, 67
5, 24240, Note_on_c, 3, 60, 67
5, 24240, Note_on_c, 3, 53, 67
5, 24240, Note_on_c, 3, 64, 67
5, 24240, Note_on_c, 3, 57, 67
5, 24570, Note_off_c, 3, 57, 67
5, 24575, Note_off_c, 3, 60, 67
5, 24575, Note_off_c, 3, 53, 67
5, 24575, Note_off_c, 3, 64, 67
5, 24600, Note_on_c, 3, 60, 67
5, 24600, Note_on_c, 3, 64, 67
5, 24600, Note_on_c, 3, 53, 67
5, 24600, Note_on_c, 3, 57, 67
5, 24680, Note_off_c, 3, 53, 67
5, 24680, Note_off_c, 3, 57, 67
5, 24685, Note_off_c, 3, 60, 67
5, 24685, Note_off_c, 3, 64, 67
5, 24720, Note_on_c, 3, 64, 67
5, 24720, Note_on_c, 3, 60, 67
5, 24720, Note_on_c, 3, 57, 67
5, 24720, Note_on_c, 3, 53, 67
5, 24890, Note_off_c, 3, 53, 67
5, 24910, Note_off_c, 3, 57, 67
5, 24920, Note_off_c, 3, 60, 67
5, 24930, Note_off_c, 3, 64, 67
5, 24960, Note_on_c, 3, 62, 67
5, 24960, Note_on_c, 3, 59, 67
5, 24960, Note_on_c, 3, 55, 67
5, 24960, Note_on_c, 3, 52, 67
5, 24960, Note_on_c, 3, 64, 67
5, 25200, Note_off_c, 3, 64, 67
5, 25235, Note_off_c, 3, 55, 67
5, 25235, Note_off_c, 3, 52, 67
5, 25240, Note_off_c, 3, 59, 67
5, 25245, Note_off_c, 3, 62, 67
5, 25320, Note_on_c, 3, 64, 67
5, 25320, Note_on_c, 3, 59, 67
5, 25320, Note_on_c, 3, 62, 67
5, 25320, Note_on_c, 3, 55, 67
5, 25320, Note_on_c, 3, 52, 67
5, 25350, Control_c, 3, 11, 127
5, 25400, Note_off_c, 3, 55, 67
5, 25400, Note_off_c, 3, 52, 67
5, 25415, Note_off_c, 3, 59, 67
5, 25415, Note_off_c, 3, 62, 67
5, 25420, Note_off_c, 3, 64, 67
5, 25440, Note_on_c, 3, 64, 67
5, 25440, Note_on_c, 3, 62, 67
5, 25440, Note_on_c, 3, 59, 67
5, 25440, Note_on_c, 3, 52, 67
5, 25440, Note_on_c, 3, 55, 67
5, 25735, Note_off_c, 3, 55, 67
5, 25740, Note_off_c, 3, 59, 67
5, 25740, Note_off_c, 3, 52, 67
5, 25745, Note_off_c, 3, 62, 67
5, 25750, Note_off_c, 3, 64, 67
5, 25800, Note_on_c, 3, 64, 67
5, 25800, Note_on_c, 3, 62, 67
5, 25800, Note_on_c, 3, 59, 67
5, 25800, Note_on_c, 3, 52, 67
5, 25800, Note_on_c, 3, 55, 67
5, 25995, Note_off_c, 3, 55, 67
5, 26000, Note_off_c, 3, 52, 67
5, 26005, Note_off_c, 3, 62, 67
5, 26005, Note_off_c, 3, 59, 67
5, 26010, Note_off_c, 3, 64, 67
5, 26040, Note_on_c, 3, 64, 67
5, 26040, Note_on_c, 3, 52, 67
5, 26040, Note_on_c, 3, 62, 67
5, 26040, Note_on_c, 3, 55, 67
5, 26040, Note_on_c, 3, 59, 67
5, 26115, Note_off_c, 3, 55, 67
5, 26115, Note_off_c, 3, 59, 67
5, 26120, Note_off_c, 3, 62, 67
5, 26125, Note_off_c, 3, 52, 67
5, 26130, Note_off_c, 3, 64, 67
5, 26160, Note_on_c, 3, 62, 67
5, 26160, Note_on_c, 3, 64, 67
5, 26160, Note_on_c, 3, 52, 67
5, 26160, Note_on_c, 3, 59, 67
5, 26160, Note_on_c, 3, 55, 67
5, 26470, Note_off_c, 3, 55, 67
5, 26475, Note_off_c, 3, 59, 67
5, 26480, Note_off_c, 3, 52, 67
5, 26485, Note_off_c, 3, 62, 67
5, 26485, Note_off_c, 3, 64, 67
5, 26520, Note_on_c, 3, 64, 67
5, 26520, Note_on_c, 3, 62, 67
5, 26520, Note_on_c, 3, 52, 67
5, 26520, Note_on_c, 3, 59, 67
5, 26520, Note_on_c, 3, 55, 67
5, 26590, Note_off_c, 3, 55, 67
5, 26600, Note_off_c, 3, 52, 67
5, 26600, Note_off_c, 3, 59, 67
5, 26605, Note_off_c, 3, 64, 67
5, 26605, Note_off_c, 3, 62, 67
5, 26640, Note_on_c, 3, 64, 67
5, 26640, Note_on_c, 3, 62, 67
5, 26640, Note_on_c, 3, 59, 67
5, 26640, Note_on_c, 3, 55, 67
5, 26640, Note_on_c, 3, 52, 67
5, 26825, Note_off_c, 3, 55, 67
5, 26825, Note_off_c, 3, 52, 67
5, 26830, Note_off_c, 3, 59, 67
5, 26840, Note_off_c, 3, 62, 67
5, 26845, Note_off_c, 3, 64, 67
5, 26880, Note_on_c, 3, 55, 82
5, 26880, Note_on_c, 3, 52, 78
5, 26880, Note_on_c, 3, 48, 78
5, 27185, Note_off_c, 3, 52, 78
5, 27185, Note_off_c, 3, 48, 78
5, 27190, Note_off_c, 3, 55, 82
5, 27240, Note_on_c, 3, 52, 60
5, 27240, Note_on_c, 3, 48, 58
5, 27240, Note_on_c, 3, 55, 60
5, 27320, Note_off_c, 3, 52, 60
5, 27320, Note_off_c, 3, 48, 58
5, 27320, Note_off_c, 3, 55, 60
5, 27360, Note_on_c, 3, 55, 78
5, 27360, Note_on_c, 3, 48, 62
5, 27360, Note_on_c, 3, 52, 68
5, 27645, Note_off_c, 3, 48, 62
5, 27645, Note_off_c, 3, 52, 68
5, 27650, Note_off_c, 3, 55, 78
5, 27720, Note_on_c, 3, 48, 66
5, 27720, Note_on_c, 3, 52, 80
5, 27720, Note_on_c, 3, 55, 74
5, 27895, Note_off_c, 3, 52, 80
5, 27895, Note_off_c, 3, 55, 74
5, 27900, Note_off_c, 3, 48, 66
5, 27960, Note_on_c, 3, 48, 59
5, 27960, Note_on_c, 3, 55, 60
5, 27960, Note_on_c, 3, 52, 63
5, 28030, Note_off_c, 3, 52, 63
5, 28040, Note_off_c, 3, 48, 59
5, 28040, Note_off_c, 3, 55, 60
5, 28080, Note_on_c, 3, 55, 74
5, 28080, Note_on_c, 3, 48, 68
5, 28080, Note_on_c, 3, 52, 78
5, 28405, Note_off_c, 3, 52, 78
5, 28410, Note_off_c, 3, 48, 68
5, 28415, Note_off_c, 3, 55, 74
5, 28440, Note_on_c, 3, 55, 74
5, 28440, Note_on_c, 3, 48, 63
5, 28440, Note_on_c, 3, 52, 66
5, 28515, Note_off_c, 3, 52, 66
5, 28520, Note_off_c, 3, 48, 63
5, 28530, Note_off_c, 3, 55, 74
5, 28560, Note_on_c, 3, 52, 80
5, 28560, Note_on_c, 3, 55, 68
5, 28560, Note_on_c, 3, 48, 62
5, 28745, Note_off_c, 3, 55, 68
5, 28745, Note_off_c, 3, 48, 62
5, 28750, Note_off_c, 3, 52, 80
5, 28800, Note_on_c, 3, 47, 76
5, 28800, Note_on_c, 3, 52, 72
5, 28800, Note_on_c, 3, 55, 74
5, 28800, Note_on_c, 3, 59, 70
5, 29085, Note_off_c, 3, 59, 70
5, 29090, Note_off_c, 3, 47, 76
5, 29090, Note_off_c, 3, 52, 72
5, 29090, Note_off_c, 3, 55, 74
5, 29160, Note_on_c, 3, 47, 64
5, 29160, Note_on_c, 3, 52, 59
5, 29160, Note_on_c, 3, 55, 55
5, 29160, Note_on_c, 3, 59, 57
5, 29235, Note_off_c, 3, 52, 59
5, 29235, Note_off_c, 3, 55, 55
5, 29235, Note_off_c, 3, 59, 57
5, 29240, Note_off_c, 3, 47, 64
5, 29280, Note_on_c, 3, 55, 62
5, 29280, Note_on_c, 3, 47, 66
5, 29280, Note_on_c, 3, 52, 64
5, 29280, Note_on_c, 3, 59, 58
5, 29555, Note_off_c, 3, 55, 62
5, 29555, Note_off_c, 3, 47, 66
5, 29555, Note_off_c, 3, 52, 64
5, 29555, Note_off_c, 3, 59, 58
5, 29640, Note_on_c, 3, 47, 68
5, 29640, Note_on_c, 3, 55, 60
5, 29640, Note_on_c, 3, 59, 60
5, 29640, Note_on_c, 3, 52, 58
5, 29820, Note_off_c, 3, 52, 58
5, 29825, Note_off_c, 3, 55, 60
5, 29825, Note_off_c, 3, 59, 60
5, 29835, Note_off_c, 3, 47, 68
5, 29880, Note_on_c, 3, 47, 63
5, 29880, Note_on_c, 3, 52, 60
5, 29880, Note_on_c, 3, 55, 58
5, 29880, Note_on_c, 3, 59, 54
5, 29950, Note_off_c, 3, 52, 60
5, 29950, Note_off_c, 3, 55, 58
5, 29950, Note_off_c, 3, 59, 54
5, 29960, Note_off_c, 3, 47, 63
5, 30000, Note_on_c, 3, 59, 64
5, 30000, Note_on_c, 3, 55, 68
5, 30000, Note_on_c, 3, 52, 63
5, 30000, Note_on_c, 3, 47, 64
5, 30300, Note_off_c, 3, 52, 63
5, 30300, Note_off_c, 3, 47, 64
5, 30305, Note_off_c, 3, 55, 68
5, 30310, Note_off_c, 3, 59, 64
5, 30360, Note_on_c, 3, 47, 64
5, 30360, Note_on_c, 3, 59, 57
5, 30360, Note_on_c, 3, 55, 63
5, 30360, Note_on_c, 3, 52, 64
5, 30430, Note_off_c, 3, 52, 64
5, 30435, Note_off_c, 3, 59, 57
5, 30435, Note_off_c, 3, 55, 63
5, 30440, Note_off_c, 3, 47, 64
5, 30480, Note_on_c, 3, 59, 70
5, 30480, Note_on_c, 3, 52, 66
5, 30480, Note_on_c, 3, 55, 64
5, 30480, Note_on_c, 3, 47, 74
5, 30635, Note_off_c, 3, 52, 66
5, 30635, Note_off_c, 3, 55, 64
5, 30635, Note_off_c, 3, 47, 74
5, 30640, Note_off_c, 3, 59, 70
5, 30720, Note_on_c, 3, 48, 78
5, 30720, Note_on_c, 3, 52, 80
5, 30720, Note_on_c, 3, 55, 85
5, 31025, Note_off_c, 3, 52, 80
5, 31025, Note_off_c, 3, 55, 85
5, 31030, Note_off_c, 3, 48, 78
5, 31080, Note_on_c, 3, 55, 66
5, 31080, Note_on_c, 3, 48, 63
5, 31080, Note_on_c, 3, 52, 68
5, 31160, Note_off_c, 3, 48, 63
5, 31160, Note_off_c, 3, 52, 68
5, 31165, Note_off_c, 3, 55, 66
5, 31200, Note_on_c, 3, 55, 72
5, 31200, Note_on_c, 3, 52, 74
5, 31200, Note_on_c, 3, 48, 63
5, 31500, Note_off_c, 3, 52, 74
5, 31500, Note_off_c, 3, 48, 63
5, 31505, Note_off_c, 3, 55, 72
5, 31560, Note_on_c, 3, 48, 66
5, 31560, Note_on_c, 3, 52, 72
5, 31560, Note_on_c, 3, 55, 70
5, 31740, Note_off_c, 3, 52, 72
5, 31740, Note_off_c, 3, 55, 70
5, 31745, Note_off_c, 3, 48, 66
5, 31800, Note_on_c, 3, 55, 64
5, 31800, Note_on_c, 3, 48, 58
5, 31800, Note_on_c, 3, 52, 70
5, 31870, Note_off_c, 3, 52, 70
5, 31880, Note_off_c, 3, 48, 58
5, 31885, Note_off_c, 3, 55, 64
5, 31920, Note_on_c, 3, 55, 78
5, 31920, Note_on_c, 3, 48, 61
5, 31920, Note_on_c, 3, 52, 74
5, 32225, Note_off_c, 3, 48, 61
5, 32225, Note_off_c, 3, 52, 74
5, 32235, Note_off_c, 3, 55, 78
5, 32280, Note_on_c, 3, 55, 63
5, 32280, Note_on_c, 3, 48, 63
5, 32280, Note_on_c, 3, 52, 70
5, 32350, Note_off_c, 3, 52, 70
5, 32355, Note_off_c, 3, 48, 63
5, 32365, Note_off_c, 3, 55, 63
5, 32400, Note_on_c, 3, 52, 72
5, 32400, Note_on_c, 3, 55, 80
5, 32400, Note_on_c, 3, 48, 63
5, 32565, Note_off_c, 3, 55, 80
5, 32565, Note_off_c, 3, 48, 63
5, 32575, Note_off_c, 3, 52, 72
5, 32640, Note_on_c, 3, 47, 66
5, 32640, Note_on_c, 3, 52, 68
5, 32640, Note_on_c, 3, 55, 62
5, 32640, Note_on_c, 3, 59, 63
5, 32925, Note_off_c, 3, 59, 63
5, 32930, Note_off_c, 3, 55, 62
5, 32935, Note_off_c, 3, 47, 66
5, 32935, Note_off_c, 3, 52, 68
5, 33000, Note_on_c, 3, 55, 60
5, 33000, Note_on_c, 3, 47, 68
5, 33000, Note_on_c, 3, 59, 57
5, 33000, Note_on_c, 3, 52, 59
5, 33065, Note_off_c, 3, 52, 59
5, 33070, Note_off_c, 3, 59, 57
5, 33075, Note_off_c, 3, 55, 60
5, 33075, Note_off_c, 3, 47, 68
5, 33120, Note_on_c, 3, 55, 64
5, 33120, Note_on_c, 3, 52, 70
5, 33120, Note_on_c, 3, 47, 76
5, 33120, Note_on_c, 3, 59, 66
5, 33425, Note_off_c, 3, 55, 64
5, 33425, Note_off_c, 3, 52, 70
5, 33425, Note_off_c, 3, 47, 76
5, 33425, Note_off_c, 3, 59, 66
5, 33480, Note_on_c, 3, 47, 72
5, 33480, Note_on_c, 3, 55, 63
5, 33480, Note_on_c, 3, 52, 66
5, 33480, Note_on_c, 3, 59, 66
5, 33670, Note_off_c, 3, 59, 66
5, 33675, Note_off_c, 3, 52, 66
5, 33680, Note_off_c, 3, 47, 72
5, 33680, Note_off_c, 3, 55, 63
5, 33720, Note_on_c, 3, 55, 57
5, 33720, Note_on_c, 3, 59, 59
5, 33720, Note_on_c, 3, 52, 59
5, 33720, Note_on_c, 3, 47, 59
5, 33795, Note_off_c, 3, 59, 59
5, 33795, Note_off_c, 3, 52, 59
5, 33795, Note_off_c, 3, 47, 59
5, 33800, Note_off_c, 3, 55, 57
5, 33840, Note_on_c, 3, 59, 64
5, 33840, Note_on_c, 3, 55, 57
5, 33840, Note_on_c, 3, 52, 66
5, 33840, Note_on_c, 3, 47, 63
5, 34170, Note_off_c, 3, 47, 63
5, 34175, Note_off_c, 3, 59, 64
5, 34175, Note_off_c, 3, 55, 57
5, 34175, Note_off_c, 3, 52, 66
5, 34200, Note_on_c, 3, 59, 62
5, 34200, Note_on_c, 3, 55, 62
5, 34200, Note_on_c, 3, 52, 64
5, 34200, Note_on_c, 3, 47, 64
5, 34270, Note_off_c, 3, 52, 64
5, 34270, Note_off_c, 3, 47, 64
5, 34275, Note_off_c, 3, 59, 62
5, 34275, Note_off_c, 3, 55, 62
5, 34320, Note_on_c, 3, 59, 76
5, 34320, Note_on_c, 3, 47, 70
5, 34320, Note_on_c, 3, 52, 66
5, 34320, Note_on_c, 3, 55, 68
5, 34445, Note_off_c, 3, 47, 70
5, 34445, Note_off_c, 3, 52, 66
5, 34445, Note_off_c, 3, 55, 68
5, 34450, Note_off_c, 3, 59, 76
5, 34560, Note_on_c, 3, 57, 74
5, 34560, Note_on_c, 3, 52, 80
5, 34560, Note_on_c, 3, 60, 70
5, 34835, Note_off_c, 3, 52, 80
5, 34835, Note_off_c, 3, 60, 70
5, 34845, Note_off_c, 3, 57, 74
5, 34920, Note_on_c, 3, 52, 63
5, 34920, Note_on_c, 3, 57, 58
5, 34920, Note_on_c, 3, 60, 60
5, 34995, Note_off_c, 3, 60, 60
5, 35000, Note_off_c, 3, 57, 58
5, 35005, Note_off_c, 3, 52, 63
5, 35040, Note_on_c, 3, 57, 82
5, 35040, Note_on_c, 3, 52, 85
5, 35040, Note_on_c, 3, 60, 78
5, 35330, Note_off_c, 3, 52, 85
5, 35330, Note_off_c, 3, 60, 78
5, 35340, Note_off_c, 3, 57, 82
5, 35400, Note_on_c, 3, 60, 82
5, 35400, Note_on_c, 3, 52, 82
5, 35400, Note_on_c, 3, 55, 87
5, 35610, Note_off_c, 3, 60, 82
5, 35610, Note_off_c, 3, 52, 82
5, 35610, Note_off_c, 3, 55, 87
5, 35640, Note_on_c, 3, 60, 87
5, 35640, Note_on_c, 3, 52, 70
5, 35640, Note_on_c, 3, 55, 78
5, 35835, Note_off_c, 3, 52, 70
5, 35835, Note_off_c, 3, 55, 78
5, 35840, Note_off_c, 3, 60, 87
5, 35880, Note_on_c, 3, 52, 56
5, 35880, Note_on_c, 3, 55, 62
5, 35880, Note_on_c, 3, 60, 62
5, 35960, Note_off_c, 3, 55, 62
5, 35960, Note_off_c, 3, 60, 62
5, 35965, Note_off_c, 3, 52, 56
5, 36000, Note_on_c, 3, 60, 78
5, 36000, Note_on_c, 3, 55, 78
5, 36000, Note_on_c, 3, 52, 74
5, 36315, Note_off_c, 3, 60, 78
5, 36315, Note_off_c, 3, 55, 78
5, 36315, Note_off_c, 3, 52, 74
5, 36360, Note_on_c, 3, 60, 68
5, 36360, Note_on_c, 3, 55, 64
5, 36360, Note_on_c, 3, 52, 63
5, 36420, Note_off_c, 3, 55, 64
5, 36420, Note_off_c, 3, 52, 63
5, 36430, Note_off_c, 3, 60, 68
5, 36480, Note_on_c, 3, 57, 72
5, 36480, Note_on_c, 3, 54, 68
5, 36480, Note_on_c, 3, 50, 80
5, 36480, Note_on_c, 3, 60, 62
5, 36760, Note_off_c, 3, 57, 72
5, 36760, Note_off_c, 3, 54, 68
5, 36760, Note_off_c, 3, 50, 80
5, 36760, Note_off_c, 3, 60, 62
5, 36840, Note_on_c, 3, 54, 55
5, 36840, Note_on_c, 3, 57, 60
5, 36840, Note_on_c, 3, 60, 57
5, 36840, Note_on_c, 3, 50, 59
5, 36915, Note_off_c, 3, 60, 57
5, 36915, Note_off_c, 3, 50, 59
5, 36920, Note_off_c, 3, 54, 55
5, 36920, Note_off_c, 3, 57, 60
5, 36960, Note_on_c, 3, 54, 64
5, 36960, Note_on_c, 3, 57, 68
5, 36960, Note_on_c, 3, 60, 74
5, 36960, Note_on_c, 3, 50, 70
5, 37255, Note_off_c, 3, 50, 70
5, 37260, Note_off_c, 3, 54, 64
5, 37260, Note_off_c, 3, 57, 68
5, 37260, Note_off_c, 3, 60, 74
5, 37320, Note_on_c, 3, 57, 66
5, 37320, Note_on_c, 3, 60, 72
5, 37320, Note_on_c, 3, 54, 62
5, 37320, Note_on_c, 3, 50, 74
5, 37500, Note_off_c, 3, 54, 62
5, 37500, Note_off_c, 3, 50, 74
5, 37505, Note_off_c, 3, 60, 72
5, 37510, Note_off_c, 3, 57, 66
5, 37560, Note_on_c, 3, 57, 64
5, 37560, Note_on_c, 3, 60, 72
5, 37560, Note_on_c, 3, 50, 70
5, 37560, Note_on_c, 3, 54, 64
5, 37730, Note_off_c, 3, 54, 64
5, 37735, Note_off_c, 3, 50, 70
5, 37740, Note_off_c, 3, 57, 64
5, 37740, Note_off_c, 3, 60, 72
5, 37800, Note_on_c, 3, 57, 59
5, 37800, Note_on_c, 3, 60, 66
5, 37800, Note_on_c, 3, 54, 55
5, 37800, Note_on_c, 3, 50, 59
5, 37870, Note_off_c, 3, 50, 59
5, 37875, Note_off_c, 3, 54, 55
5, 37880, Note_off_c, 3, 60, 66
5, 37885, Note_off_c, 3, 57, 59
5, 37920, Note_on_c, 3, 54, 66
5, 37920, Note_on_c, 3, 60, 78
5, 37920, Note_on_c, 3, 57, 66
5, 37920, Note_on_c, 3, 50, 76
5, 38205, Note_off_c, 3, 50, 76
5, 38210, Note_off_c, 3, 60, 78
5, 38210, Note_off_c, 3, 57, 66
5, 38215, Note_off_c, 3, 54, 66
5, 38280, Note_on_c, 3, 57, 62
5, 38280, Note_on_c, 3, 54, 58
5, 38280, Note_on_c, 3, 60, 68
5, 38280, Note_on_c, 3, 50, 70
5, 38365, Note_off_c, 3, 57, 62
5, 38365, Note_off_c, 3, 54, 58
5, 38365, Note_off_c, 3, 60, 68
5, 38365, Note_off_c, 3, 50, 70
5, 38400, Note_on_c, 3, 55, 82
5, 38400, Note_on_c, 3, 52, 78
5, 38400, Note_on_c, 3, 48, 78
5, 38705, Note_off_c, 3, 52, 78
5, 38705, Note_off_c, 3, 48, 78
5, 38710, Note_off_c, 3, 55, 82
5, 38760, Note_on_c, 3, 52, 60
5, 38760, Note_on_c, 3, 48, 58
5, 38760, Note_on_c, 3, 55, 60
5, 38840, Note_off_c, 3, 52, 60
5, 38840, Note_off_c, 3, 48, 58
5, 38840, Note_off_c, 3, 55, 60
5, 38880, Note_on_c, 3, 55, 78
5, 38880, Note_on_c, 3, 48, 62
5, 38880, Note_on_c, 3, 52, 68
5, 39165, Note_off_c, 3, 48, 62
5, 39165, Note_off_c, 3, 52, 68
5, 39170, Note_off_c, 3, 55, 78
5, 39240, Note_on_c, 3, 48, 66
5, 39240, Note_on_c, 3, 52, 80
5, 39240, Note_on_c, 3, 55, 74
5, 39415, Note_off_c, 3, 52, 80
5, 39415, Note_off_c, 3, 55, 74
5, 39420, Note_off_c, 3, 48, 66
5, 39480, Note_on_c, 3, 55, 60
5, 39480, Note_on_c, 3, 48, 59
5, 39480, Note_on_c, 3, 52, 63
5, 39550, Note_off_c, 3, 52, 63
5, 39560, Note_off_c, 3, 55, 60
5, 39560, Note_off_c, 3, 48, 59
5, 39600, Note_on_c, 3, 55, 74
5, 39600, Note_on_c, 3, 48, 68
5, 39600, Note_on_c, 3, 52, 78
5, 39925, Note_off_c, 3, 52, 78
5, 39930, Note_off_c, 3, 48, 68
5, 39935, Note_off_c, 3, 55, 74
5, 39960, Note_on_c, 3, 55, 74
5, 39960, Note_on_c, 3, 48, 63
5, 39960, Note_on_c, 3, 52, 66
5, 40035, Note_off_c, 3, 52, 66
5, 40040, Note_off_c, 3, 48, 63
5, 40050, Note_off_c, 3, 55, 74
5, 40080, Note_on_c, 3, 52, 80
5, 40080, Note_on_c, 3, 55, 68
5, 40080, Note_on_c, 3, 48, 62
5, 40265, Note_off_c, 3, 55, 68
5, 40265, Note_off_c, 3, 48, 62
5, 40270, Note_off_c, 3, 52, 80
5, 40320, Note_on_c, 3, 52, 72
5, 40320, Note_on_c, 3, 47, 76
5, 40320, Note_on_c, 3, 55, 74
5, 40320, Note_on_c, 3, 59, 70
5, 40605, Note_off_c, 3, 59, 70
5, 40610, Note_off_c, 3, 52, 72
5, 40610, Note_off_c, 3, 47, 76
5, 40610, Note_off_c, 3, 55, 74
5, 40680, Note_on_c, 3, 47, 64
5, 40680, Note_on_c, 3, 52, 59
5, 40680, Note_on_c, 3, 55, 55
5, 40680, Note_on_c, 3, 59, 57
5, 40755, Note_off_c, 3, 52, 59
5, 40755, Note_off_c, 3, 55, 55
5, 40755, Note_off_c, 3, 59, 57
5, 40760, Note_off_c, 3, 47, 64
5, 40800, Note_on_c, 3, 55, 62
5, 40800, Note_on_c, 3, 47, 66
5, 40800, Note_on_c, 3, 52, 64
5, 40800, Note_on_c, 3, 59, 58
5, 41075, Note_off_c, 3, 55, 62
5, 41075, Note_off_c, 3, 47, 66
5, 41075, Note_off_c, 3, 52, 64
5, 41075, Note_off_c, 3, 59, 58
5, 41160, Note_on_c, 3, 47, 68
5, 41160, Note_on_c, 3, 55, 60
5, 41160, Note_on_c, 3, 59, 60
5, 41160, Note_on_c, 3, 52, 58
5, 41340, Note_off_c, 3, 52, 58
5, 41345, Note_off_c, 3, 55, 60
5, 41345, Note_off_c, 3, 59, 60
5, 41355, Note_off_c, 3, 47, 68
5, 41400, Note_on_c, 3, 47, 63
5, 41400, Note_on_c, 3, 55, 58
5, 41400, Note_on_c, 3, 52, 60
5, 41400, Note_on_c, 3, 59, 54
5, 41470, Note_off_c, 3, 55, 58
5, 41470, Note_off_c, 3, 52, 60
5, 41470, Note_off_c, 3, 59, 54
5, 41480, Note_off_c, 3, 47, 63
5, 41520, Note_on_c, 3, 59, 64
5, 41520, Note_on_c, 3, 55, 68
5, 41520, Note_on_c, 3, 47, 64
5, 41520, Note_on_c, 3, 52, 63
5, 41820, Note_off_c, 3, 47, 64
5, 41820, Note_off_c, 3, 52, 63
5, 41825, Note_off_c, 3, 55, 68
5, 41830, Note_off_c, 3, 59, 64
5, 41880, Note_on_c, 3, 47, 64
5, 41880, Note_on_c, 3, 59, 57
5, 41880, Note_on_c, 3, 55, 63
5, 41880, Note_on_c, 3, 52, 64
5, 41950, Note_off_c, 3, 52, 64
5, 41955, Note_off_c, 3, 59, 57
5, 41955, Note_off_c, 3, 55, 63
5, 41960, Note_off_c, 3, 47, 64
5, 42000, Note_on_c, 3, 59, 70
5, 42000, Note_on_c, 3, 47, 74
5, 42000, Note_on_c, 3, 52, 66
5, 42000, Note_on_c, 3, 55, 64
5, 42155, Note_off_c, 3, 47, 74
5, 42155, Note_off_c, 3, 52, 66
5, 42155, Note_off_c, 3, 55, 64
5, 42160, Note_off_c, 3, 59, 70
5, 42240, Note_on_c, 3, 48, 78
5, 42240, Note_on_c, 3, 55, 85
5, 42240, Note_on_c, 3, 52, 80
5, 42545, Note_off_c, 3, 55, 85
5, 42545, Note_off_c, 3, 52, 80
5, 42550, Note_off_c, 3, 48, 78
5, 42600, Note_on_c, 3, 55, 66
5, 42600, Note_on_c, 3, 48, 63
5, 42600, Note_on_c, 3, 52, 68
5, 42680, Note_off_c, 3, 48, 63
5, 42680, Note_off_c, 3, 52, 68
5, 42685, Note_off_c, 3, 55, 66
5, 42720, Note_on_c, 3, 55, 72
5, 42720, Note_on_c, 3, 48, 63
5, 42720, Note_on_c, 3, 52, 74
5, 43020, Note_off_c, 3, 48, 63
5, 43020, Note_off_c, 3, 52, 74
5, 43025, Note_off_c, 3, 55, 72
5, 43080, Note_on_c, 3, 48, 66
5, 43080, Note_on_c, 3, 55, 70
5, 43080, Note_on_c, 3, 52, 72
5, 43260, Note_off_c, 3, 55, 70
5, 43260, Note_off_c, 3, 52, 72
5, 43265, Note_off_c, 3, 48, 66
5, 43320, Note_on_c, 3, 55, 64
5, 43320, Note_on_c, 3, 48, 58
5, 43320, Note_on_c, 3, 52, 70
5, 43390, Note_off_c, 3, 52, 70
5, 43400, Note_off_c, 3, 48, 58
5, 43405, Note_off_c, 3, 55, 64
5, 43440, Note_on_c, 3, 55, 78
5, 43440, Note_on_c, 3, 52, 74
5, 43440, Note_on_c, 3, 48, 61
5, 43745, Note_off_c, 3, 52, 74
5, 43745, Note_off_c, 3, 48, 61
5, 43755, Note_off_c, 3, 55, 78
5, 43800, Note_on_c, 3, 55, 63
5, 43800, Note_on_c, 3, 48, 63
5, 43800, Note_on_c, 3, 52, 70
5, 43870, Note_off_c, 3, 52, 70
5, 43875, Note_off_c, 3, 48, 63
5, 43885, Note_off_c, 3, 55, 63
5, 43920, Note_on_c, 3, 52, 72
5, 43920, Note_on_c, 3, 55, 80
5, 43920, Note_on_c, 3, 48, 63
5, 44085, Note_off_c, 3, 55, 80
5, 44085, Note_off_c, 3, 48, 63
5, 44095, Note_off_c, 3, 52, 72
5, 44160, Note_on_c, 3, 47, 66
5, 44160, Note_on_c, 3, 52, 68
5, 44160, Note_on_c, 3, 55, 62
5, 44160, Note_on_c, 3, 59, 63
5, 44445, Note_off_c, 3, 59, 63
5, 44450, Note_off_c, 3, 55, 62
5, 44455, Note_off_c, 3, 47, 66
5, 44455, Note_off_c, 3, 52, 68
5, 44520, Note_on_c, 3, 55, 60
5, 44520, Note_on_c, 3, 47, 68
5, 44520, Note_on_c, 3, 59, 57
5, 44520, Note_on_c, 3, 52, 59
5, 44585, Note_off_c, 3, 52, 59
5, 44590, Note_off_c, 3, 59, 57
5, 44595, Note_off_c, 3, 55, 60
5, 44595, Note_off_c, 3, 47, 68
5, 44640, Note_on_c, 3, 55, 64
5, 44640, Note_on_c, 3, 52, 70
5, 44640, Note_on_c, 3, 47, 76
5, 44640, Note_on_c, 3, 59, 66
5, 44945, Note_off_c, 3, 55, 64
5, 44945, Note_off_c, 3, 52, 70
5, 44945, Note_off_c, 3, 47, 76
5, 44945, Note_off_c, 3, 59, 66
5, 45000, Note_on_c, 3, 47, 72
5, 45000, Note_on_c, 3, 55, 63
5, 45000, Note_on_c, 3, 52, 66
5, 45000, Note_on_c, 3, 59, 66
5, 45190, Note_off_c, 3, 59, 66
5, 45195, Note_off_c, 3, 52, 66
5, 45200, Note_off_c, 3, 47, 72
5, 45200, Note_off_c, 3, 55, 63
5, 45240, Note_on_c, 3, 55, 57
5, 45240, Note_on_c, 3, 59, 59
5, 45240, Note_on_c, 3, 47, 59
5, 45240, Note_on_c, 3, 52, 59
5, 45315, Note_off_c, 3, 59, 59
5, 45315, Note_off_c, 3, 47, 59
5, 45315, Note_off_c, 3, 52, 59
5, 45320, Note_off_c, 3, 55, 57
5, 45360, Note_on_c, 3, 59, 64
5, 45360, Note_on_c, 3, 55, 57
5, 45360, Note_on_c, 3, 52, 66
5, 45360, Note_on_c, 3, 47, 63
5, 45690, Note_off_c, 3, 47, 63
5, 45695, Note_off_c, 3, 59, 64
5, 45695, Note_off_c, 3, 55, 57
5, 45695, Note_off_c, 3, 52, 66
5, 45720, Note_on_c, 3, 59, 62
5, 45720, Note_on_c, 3, 55, 62
5, 45720, Note_on_c, 3, 52, 64
5, 45720, Note_on_c, 3, 47, 64
5, 45790, Note_off_c, 3, 52, 64
5, 45790, Note_off_c, 3, 47, 64
5, 45795, Note_off_c, 3, 59, 62
5, 45795, Note_off_c, 3, 55, 62
5, 45840, Note_on_c, 3, 59, 76
5, 45840, Note_on_c, 3, 47, 70
5, 45840, Note_on_c, 3, 52, 66
5, 45840, Note_on_c, 3, 55, 68
5, 45965, Note_off_c, 3, 47, 70
5, 45965, Note_off_c, 3, 52, 66
5, 45965, Note_off_c, 3, 55, 68
5, 45970, Note_off_c, 3, 59, 76
5, 46080, Note_on_c, 3, 57, 74
5, 46080, Note_on_c, 3, 52, 80
5, 46080, Note_on_c, 3, 60, 70
5, 46355, Note_off_c, 3, 52, 80
5, 46355, Note_off_c, 3, 60, 70
5, 46365, Note_off_c, 3, 57, 74
5, 46440, Note_on_c, 3, 52, 63
5, 46440, Note_on_c, 3, 57, 58
5, 46440, Note_on_c, 3, 60, 60
5, 46515, Note_off_c, 3, 60, 60
5, 46520, Note_off_c, 3, 57, 58
5, 46525, Note_off_c, 3, 52, 63
5, 46560, Note_on_c, 3, 57, 82
5, 46560, Note_on_c, 3, 60, 78
5, 46560, Note_on_c, 3, 52, 85
5, 46850, Note_off_c, 3, 60, 78
5, 46850, Note_off_c, 3, 52, 85
5, 46860, Note_off_c, 3, 57, 82
5, 46920, Note_on_c, 3, 60, 82
5, 46920, Note_on_c, 3, 52, 82
5, 46920, Note_on_c, 3, 55, 87
5, 47130, Note_off_c, 3, 60, 82
5, 47130, Note_off_c, 3, 52, 82
5, 47130, Note_off_c, 3, 55, 87
5, 47160, Note_on_c, 3, 60, 87
5, 47160, Note_on_c, 3, 55, 78
5, 47160, Note_on_c, 3, 52, 70
5, 47355, Note_off_c, 3, 55, 78
5, 47355, Note_off_c, 3, 52, 70
5, 47360, Note_off_c, 3, 60, 87
5, 47400, Note_on_c, 3, 52, 56
5, 47400, Note_on_c, 3, 55, 62
5, 47400, Note_on_c, 3, 60, 62
5, 47480, Note_off_c, 3, 55, 62
5, 47480, Note_off_c, 3, 60, 62
5, 47485, Note_off_c, 3, 52, 56
5, 47520, Note_on_c, 3, 55, 78
5, 47520, Note_on_c, 3, 52, 74
5, 47520, Note_on_c, 3, 60, 78
5, 47835, Note_off_c, 3, 55, 78
5, 47835, Note_off_c, 3, 52, 74
5, 47835, Note_off_c, 3, 60, 78
5, 47880, Note_on_c, 3, 60, 68
5, 47880, Note_on_c, 3, 55, 64
5, 47880, Note_on_c, 3, 52, 63
5, 47940, Note_off_c, 3, 55, 64
5, 47940, Note_off_c, 3, 52, 63
5, 47950, Note_off_c, 3, 60, 68
5, 55680, Note_on_c, 3, 55, 91
5, 55680, Note_on_c, 3, 60, 93
5, 55680, Note_on_c, 3, 64, 85
5, 55840, Note_off_c, 3, 64, 85
5, 55850, Note_off_c, 3, 60, 93
5, 55855, Note_off_c, 3, 55, 91
5, 55920, Note_on_c, 3, 55, 63
5, 55920, Note_on_c, 3, 60, 74
5, 55920, Note_on_c, 3, 64, 70
5, 55995, Note_off_c, 3, 64, 70
5, 56005, Note_off_c, 3, 55, 63
5, 56005, Note_off_c, 3, 60, 74
5, 56040, Note_on_c, 3, 60, 62
5, 56040, Note_on_c, 3, 55, 59
5, 56040, Note_on_c, 3, 64, 68
5, 56115, Note_off_c, 3, 64, 68
5, 56120, Note_off_c, 3, 55, 59
5, 56125, Note_off_c, 3, 60, 62
5, 56160, Note_on_c, 3, 60, 85
5, 56160, Note_on_c, 3, 64, 89
5, 56160, Note_on_c, 3, 55, 85
5, 56335, Note_off_c, 3, 64, 89
5, 56335, Note_off_c, 3, 55, 85
5, 56340, Note_off_c, 3, 60, 85
5, 56400, Note_on_c, 3, 60, 82
5, 56400, Note_on_c, 3, 55, 76
5, 56400, Note_on_c, 3, 64, 70
5, 56480, Note_off_c, 3, 64, 70
5, 56485, Note_off_c, 3, 60, 82
5, 56485, Note_off_c, 3, 55, 76
5, 56520, Note_on_c, 3, 60, 87
5, 56520, Note_on_c, 3, 55, 82
5, 56520, Note_on_c, 3, 64, 82
5, 56735, Note_off_c, 3, 64, 82
5, 56740, Note_off_c, 3, 60, 87
5, 56740, Note_off_c, 3, 55, 82
5, 56760, Note_on_c, 3, 55, 74
5, 56760, Note_on_c, 3, 60, 85
5, 56760, Note_on_c, 3, 64, 89
5, 56835, Note_off_c, 3, 64, 89
5, 56840, Note_off_c, 3, 60, 85
5, 56845, Note_off_c, 3, 55, 74
5, 56880, Note_on_c, 3, 60, 87
5, 56880, Note_on_c, 3, 55, 80
5, 56880, Note_on_c, 3, 64, 85
5, 57060, Note_off_c, 3, 55, 80
5, 57060, Note_off_c, 3, 64, 85
5, 57065, Note_off_c, 3, 60, 87
5, 57120, Note_on_c, 3, 55, 78
5, 57120, Note_on_c, 3, 60, 82
5, 57120, Note_on_c, 3, 64, 82
5, 57290, Note_off_c, 3, 64, 82
5, 57305, Note_off_c, 3, 55, 78
5, 57305, Note_off_c, 3, 60, 82
5, 57360, Note_on_c, 3, 55, 66
5, 57360, Note_on_c, 3, 60, 82
5, 57360, Note_on_c, 3, 64, 78
5, 57420, Note_off_c, 3, 64, 78
5, 57430, Note_off_c, 3, 60, 82
5, 57435, Note_off_c, 3, 55, 66
5, 57480, Note_on_c, 3, 64, 66
5, 57480, Note_on_c, 3, 60, 62
5, 57480, Note_on_c, 3, 55, 57
5, 57535, Note_off_c, 3, 55, 57
5, 57540, Note_off_c, 3, 60, 62
5, 57545, Note_off_c, 3, 64, 66
5, 57600, Note_on_c, 3, 59, 80
5, 57600, Note_on_c, 3, 64, 55
5, 57600, Note_on_c, 3, 56, 82
5, 57775, Note_off_c, 3, 56, 82
5, 57785, Note_off_c, 3, 64, 55
5, 57790, Note_off_c, 3, 59, 80
5, 57840, Note_on_c, 3, 59, 89
5, 57840, Note_on_c, 3, 64, 82
5, 57840, Note_on_c, 3, 56, 76
5, 57905, Note_off_c, 3, 56, 76
5, 57910, Note_off_c, 3, 64, 82
5, 57925, Note_off_c, 3, 59, 89
5, 57960, Note_on_c, 3, 59, 80
5, 57960, Note_on_c, 3, 56, 74
5, 57960, Note_on_c, 3, 64, 80
5, 58030, Note_off_c, 3, 64, 80
5, 58040, Note_off_c, 3, 56, 74
5, 58045, Note_off_c, 3, 59, 80
5, 58080, Note_on_c, 3, 59, 82
5, 58080, Note_on_c, 3, 56, 76
5, 58080, Note_on_c, 3, 64, 82
5, 58260, Note_off_c, 3, 64, 82
5, 58265, Note_off_c, 3, 56, 76
5, 58275, Note_off_c, 3, 59, 82
5, 58320, Note_on_c, 3, 59, 70
5, 58320, Note_on_c, 3, 56, 66
5, 58320, Note_on_c, 3, 64, 82
5, 58385, Note_off_c, 3, 64, 82
5, 58390, Note_off_c, 3, 56, 66
5, 58400, Note_off_c, 3, 59, 70
5, 58440, Note_on_c, 3, 59, 89
5, 58440, Note_on_c, 3, 64, 80
5, 58440, Note_on_c, 3, 56, 78
5, 58625, Note_off_c, 3, 64, 80
5, 58625, Note_off_c, 3, 56, 78
5, 58645, Note_off_c, 3, 59, 89
5, 58680, Note_on_c, 3, 59, 80
5, 58680, Note_on_c, 3, 56, 70
5, 58680, Note_on_c, 3, 64, 82
5, 58745, Note_off_c, 3, 64, 82
5, 58755, Note_off_c, 3, 56, 70
5, 58760, Note_off_c, 3, 59, 80
5, 58800, Note_on_c, 3, 59, 78
5, 58800, Note_on_c, 3, 56, 66
5, 58800, Note_on_c, 3, 64, 85
5, 58990, Note_off_c, 3, 64, 85
5, 58995, Note_off_c, 3, 56, 66
5, 59005, Note_off_c, 3, 59, 78
5, 59040, Note_on_c, 3, 59, 80
5, 59040, Note_on_c, 3, 64, 85
5, 59040, Note_on_c, 3, 56, 70
5, 59225, Note_off_c, 3, 56, 70
5, 59230, Note_off_c, 3, 64, 85
5, 59240, Note_off_c, 3, 59, 80
5, 59280, Note_on_c, 3, 59, 63
5, 59280, Note_on_c, 3, 56, 68
5, 59280, Note_on_c, 3, 64, 64
5, 59345, Note_off_c, 3, 64, 64
5, 59355, Note_off_c, 3, 59, 63
5, 59355, Note_off_c, 3, 56, 68
5, 59400, Note_on_c, 3, 59, 60
5, 59400, Note_on_c, 3, 56, 62
5, 59400, Note_on_c, 3, 64, 64
5, 59465, Note_off_c, 3, 56, 62
5, 59465, Note_off_c, 3, 64, 64
5, 59470, Note_off_c, 3, 59, 60
5, 59520, Note_on_c, 3, 60, 89
5, 59520, Note_on_c, 3, 65, 87
5, 59520, Note_on_c, 3, 57, 82
5, 59695, Note_off_c, 3, 57, 82
5, 59700, Note_off_c, 3, 65, 87
5, 59705, Note_off_c, 3, 60, 89
5, 59760, Note_on_c, 3, 57, 57
5, 59760, Note_on_c, 3, 60, 61
5, 59760, Note_on_c, 3, 65, 64
5, 59830, Note_off_c, 3, 65, 64
5, 59845, Note_off_c, 3, 57, 57
5, 59845, Note_off_c, 3, 60, 61
5, 59880, Note_on_c, 3, 57, 55
5, 59880, Note_on_c, 3, 60, 63
5, 59880, Note_on_c, 3, 65, 63
5, 59955, Note_off_c, 3, 65, 63
5, 59965, Note_off_c, 3, 57, 55
5, 59965, Note_off_c, 3, 60, 63
5, 60000, Note_on_c, 3, 65, 82
5, 60000, Note_on_c, 3, 60, 80
5, 60000, Note_on_c, 3, 57, 64
5, 60190, Note_off_c, 3, 65, 82
5, 60190, Note_off_c, 3, 60, 80
5, 60190, Note_off_c, 3, 57, 64
5, 60240, Note_on_c, 3, 65, 70
5, 60240, Note_on_c, 3, 60, 64
5, 60240, Note_on_c, 3, 57, 57
5, 60325, Note_off_c, 3, 65, 70
5, 60325, Note_off_c, 3, 60, 64
5, 60325, Note_off_c, 3, 57, 57
5, 60360, Note_on_c, 3, 57, 82
5, 60360, Note_on_c, 3, 60, 89
5, 60360, Note_on_c, 3, 65, 87
5, 60555, Note_off_c, 3, 65, 87
5, 60560, Note_off_c, 3, 57, 82
5, 60560, Note_off_c, 3, 60, 89
5, 60600, Note_on_c, 3, 60, 63
5, 60600, Note_on_c, 3, 57, 60
5, 60600, Note_on_c, 3, 65, 70
5, 60680, Note_off_c, 3, 65, 70
5, 60685, Note_off_c, 3, 60, 63
5, 60685, Note_off_c, 3, 57, 60
5, 60720, Note_on_c, 3, 57, 80
5, 60720, Note_on_c, 3, 60, 87
5, 60720, Note_on_c, 3, 65, 87
5, 60900, Note_off_c, 3, 65, 87
5, 60905, Note_off_c, 3, 60, 87
5, 60910, Note_off_c, 3, 57, 80
5, 60960, Note_on_c, 3, 57, 66
5, 60960, Note_on_c, 3, 65, 85
5, 60960, Note_on_c, 3, 60, 85
5, 61140, Note_off_c, 3, 65, 85
5, 61140, Note_off_c, 3, 60, 85
5, 61145, Note_off_c, 3, 57, 66
5, 61200, Note_on_c, 3, 60, 78
5, 61200, Note_on_c, 3, 65, 78
5, 61200, Note_on_c, 3, 57, 68
5, 61280, Note_off_c, 3, 65, 78
5, 61280, Note_off_c, 3, 57, 68
5, 61285, Note_off_c, 3, 60, 78
5, 61320, Note_on_c, 3, 57, 64
5, 61320, Note_on_c, 3, 65, 85
5, 61320, Note_on_c, 3, 60, 82
5, 61415, Note_off_c, 3, 60, 82
5, 61420, Note_off_c, 3, 57, 64
5, 61420, Note_off_c, 3, 65, 85
5, 61440, Note_on_c, 3, 60, 100
5, 61440, Note_on_c, 3, 56, 98
5, 61440, Note_on_c, 3, 53, 98
5, 61730, Note_off_c, 3, 53, 98
5, 61740, Note_off_c, 3, 60, 100
5, 61740, Note_off_c, 3, 56, 98
5, 61800, Note_on_c, 3, 60, 70
5, 61800, Note_on_c, 3, 56, 64
5, 61800, Note_on_c, 3, 53, 62
5, 61865, Note_off_c, 3, 53, 62
5, 61870, Note_off_c, 3, 56, 64
5, 61880, Note_off_c, 3, 60, 70
5, 61920, Note_on_c, 3, 60, 89
5, 61920, Note_on_c, 3, 56, 85
5, 61920, Note_on_c, 3, 53, 85
5, 62205, Note_off_c, 3, 53, 85
5, 62220, Note_off_c, 3, 60, 89
5, 62220, Note_off_c, 3, 56, 85
5, 62280, Note_on_c, 3, 60, 91
5, 62280, Note_on_c, 3, 55, 100
5, 62280, Note_on_c, 3, 52, 95
5, 62460, Note_off_c, 3, 55, 100
5, 62460, Note_off_c, 3, 52, 95
5, 62470, Note_off_c, 3, 60, 91
5, 62520, Note_on_c, 3, 60, 82
5, 62520, Note_on_c, 3, 55, 87
5, 62520, Note_on_c, 3, 52, 80
5, 62595, Note_off_c, 3, 52, 80
5, 62600, Note_off_c, 3, 55, 87
5, 62605, Note_off_c, 3, 60, 82
5, 62640, Note_on_c, 3, 55, 87
5, 62640, Note_on_c, 3, 52, 85
5, 62640, Note_on_c, 3, 60, 85
5, 62850, Note_off_c, 3, 55, 87
5, 62850, Note_off_c, 3, 52, 85
5, 62850, Note_off_c, 3, 60, 85
5, 62880, Note_on_c, 3, 60, 87
5, 62880, Note_on_c, 3, 55, 93
5, 62880, Note_on_c, 3, 52, 85
5, 63175, Note_off_c, 3, 55, 93
5, 63175, Note_off_c, 3, 52, 85
5, 63185, Note_off_c, 3, 60, 87
5, 63240, Note_on_c, 3, 60, 63
5, 63240, Note_on_c, 3, 55, 76
5, 63240, Note_on_c, 3, 52, 70
5, 63315, Note_off_c, 3, 52, 70
5, 63325, Note_off_c, 3, 55, 76
5, 63330, Note_off_c, 3, 60, 63
5, 63360, Note_on_c, 3, 53, 93
5, 63360, Note_on_c, 3, 60, 98
5, 63360, Note_on_c, 3, 57, 100
5, 63670, Note_off_c, 3, 53, 93
5, 63670, Note_off_c, 3, 60, 98
5, 63670, Note_off_c, 3, 57, 100
5, 63720, Note_on_c, 3, 57, 70
5, 63720, Note_on_c, 3, 60, 78
5, 63720, Note_on_c, 3, 53, 63
5, 63805, Note_off_c, 3, 53, 63
5, 63810, Note_off_c, 3, 57, 70
5, 63810, Note_off_c, 3, 60, 78
5, 63840, Note_on_c, 3, 57, 87
5, 63840, Note_on_c, 3, 60, 85
5, 63840, Note_on_c, 3, 53, 87
5, 64145, Note_off_c, 3, 53, 87
5, 64150, Note_off_c, 3, 57, 87
5, 64150, Note_off_c, 3, 60, 85
5, 64200, Note_on_c, 3, 57, 85
5, 64200, Note_on_c, 3, 60, 85
5, 64200, Note_on_c, 3, 53, 78
5, 64390, Note_off_c, 3, 53, 78
5, 64395, Note_off_c, 3, 57, 85
5, 64395, Note_off_c, 3, 60, 85
5, 64440, Note_on_c, 3, 57, 82
5, 64440, Note_on_c, 3, 53, 76
5, 64440, Note_on_c, 3, 60, 80
5, 64530, Note_off_c, 3, 57, 82
5, 64530, Note_off_c, 3, 53, 76
5, 64530, Note_off_c, 3, 60, 80
5, 64560, Note_on_c, 3, 60, 80
5, 64560, Note_on_c, 3, 57, 85
5, 64560, Note_on_c, 3, 53, 76
5, 64755, Note_off_c, 3, 53, 76
5, 64760, Note_off_c, 3, 60, 80
5, 64760, Note_off_c, 3, 57, 85
5, 64800, Note_on_c, 3, 57, 89
5, 64800, Note_on_c, 3, 53, 82
5, 64800, Note_on_c, 3, 60, 87
5, 65115, Note_off_c, 3, 57, 89
5, 65115, Note_off_c, 3, 53, 82
5, 65115, Note_off_c, 3, 60, 87
5, 65160, Note_on_c, 3, 53, 72
5, 65160, Note_on_c, 3, 60, 80
5, 65160, Note_on_c, 3, 57, 82
5, 65260, Note_off_c, 3, 53, 72
5, 65260, Note_off_c, 3, 60, 80
5, 65260, Note_off_c, 3, 57, 82
5, 65280, Note_on_c, 3, 56, 98
5, 65280, Note_on_c, 3, 60, 100
5, 65280, Note_on_c, 3, 53, 98
5, 65570, Note_off_c, 3, 53, 98
5, 65580, Note_off_c, 3, 56, 98
5, 65580, Note_off_c, 3, 60, 100
5, 65640, Note_on_c, 3, 60, 70
5, 65640, Note_on_c, 3, 56, 64
5, 65640, Note_on_c, 3, 53, 62
5, 65705, Note_off_c, 3, 53, 62
5, 65710, Note_off_c, 3, 56, 64
5, 65720, Note_off_c, 3, 60, 70
5, 65760, Note_on_c, 3, 56, 85
5, 65760, Note_on_c, 3, 60, 89
5, 65760, Note_on_c, 3, 53, 85
5, 66045, Note_off_c, 3, 53, 85
5, 66060, Note_off_c, 3, 56, 85
5, 66060, Note_off_c, 3, 60, 89
5, 66120, Note_on_c, 3, 60, 91
5, 66120, Note_on_c, 3, 55, 100
5, 66120, Note_on_c, 3, 52, 95
5, 66300, Note_off_c, 3, 55, 100
5, 66300, Note_off_c, 3, 52, 95
5, 66310, Note_off_c, 3, 60, 91
5, 66360, Note_on_c, 3, 60, 82
5, 66360, Note_on_c, 3, 55, 87
5, 66360, Note_on_c, 3, 52, 80
5, 66435, Note_off_c, 3, 52, 80
5, 66440, Note_off_c, 3, 55, 87
5, 66445, Note_off_c, 3, 60, 82
5, 66480, Note_on_c, 3, 55, 87
5, 66480, Note_on_c, 3, 52, 85
5, 66480, Note_on_c, 3, 60, 85
5, 66690, Note_off_c, 3, 55, 87
5, 66690, Note_off_c, 3, 52, 85
5, 66690, Note_off_c, 3, 60, 85
5, 66720, Note_on_c, 3, 60, 87
5, 66720, Note_on_c, 3, 55, 93
5, 66720, Note_on_c, 3, 52, 85
5, 67015, Note_off_c, 3, 55, 93
5, 67015, Note_off_c, 3, 52, 85
5, 67025, Note_off_c, 3, 60, 87
5, 67080, Note_on_c, 3, 60, 63
5, 67080, Note_on_c, 3, 55, 76
5, 67080, Note_on_c, 3, 52, 70
5, 67155, Note_off_c, 3, 52, 70
5, 67165, Note_off_c, 3, 55, 76
5, 67170, Note_off_c, 3, 60, 63
5, 67200, Note_on_c, 3, 60, 98
5, 67200, Note_on_c, 3, 57, 100
5, 67200, Note_on_c, 3, 53, 93
5, 67510, Note_off_c, 3, 60, 98
5, 67510, Note_off_c, 3, 57, 100
5, 67510, Note_off_c, 3, 53, 93
5, 67560, Note_on_c, 3, 57, 70
5, 67560, Note_on_c, 3, 60, 78
5, 67560, Note_on_c, 3, 53, 63
5, 67645, Note_off_c, 3, 53, 63
5, 67650, Note_off_c, 3, 57, 70
5, 67650, Note_off_c, 3, 60, 78
5, 67680, Note_on_c, 3, 57, 87
5, 67680, Note_on_c, 3, 60, 85
5, 67680, Note_on_c, 3, 53, 87
5, 67985, Note_off_c, 3, 53, 87
5, 67990, Note_off_c, 3, 57, 87
5, 67990, Note_off_c, 3, 60, 85
5, 68040, Note_on_c, 3, 57, 85
5, 68040, Note_on_c, 3, 60, 85
5, 68040, Note_on_c, 3, 53, 78
5, 68230, Note_off_c, 3, 53, 78
5, 68235, Note_off_c, 3, 57, 85
5, 68235, Note_off_c, 3, 60, 85
5, 68280, Note_on_c, 3, 57, 82
5, 68280, Note_on_c, 3, 53, 76
5, 68280, Note_on_c, 3, 60, 80
5, 68370, Note_off_c, 3, 57, 82
5, 68370, Note_off_c, 3, 53, 76
5, 68370, Note_off_c, 3, 60, 80
5, 68400, Note_on_c, 3, 60, 80
5, 68400, Note_on_c, 3, 57, 85
5, 68400, Note_on_c, 3, 53, 76
5, 68595, Note_off_c, 3, 53, 76
5, 68600, Note_off_c, 3, 60, 80
5, 68600, Note_off_c, 3, 57, 85
5, 68640, Note_on_c, 3, 57, 89
5, 68640, Note_on_c, 3, 60, 87
5, 68640, Note_on_c, 3, 53, 82
5, 68955, Note_off_c, 3, 57, 89
5, 68955, Note_off_c, 3, 60, 87
5, 68955, Note_off_c, 3, 53, 82
5, 69000, Note_on_c, 3, 53, 72
5, 69000, Note_on_c, 3, 60, 80
5, 69000, Note_on_c, 3, 57, 82
5, 69100, Note_off_c, 3, 53, 72
5, 69100, Note_off_c, 3, 60, 80
5, 69100, Note_off_c, 3, 57, 82
5, 69120, Note_on_c, 3, 55, 91
5, 69120, Note_on_c, 3, 60, 93
5, 69120, Note_on_c, 3, 64, 85
5, 69280, Note_off_c, 3, 64, 85
5, 69290, Note_off_c, 3, 60, 93
5, 69295, Note_off_c, 3, 55, 91
5, 69360, Note_on_c, 3, 55, 63
5, 69360, Note_on_c, 3, 60, 74
5, 69360, Note_on_c, 3, 64, 70
5, 69435, Note_off_c, 3, 64, 70
5, 69445, Note_off_c, 3, 55, 63
5, 69445, Note_off_c, 3, 60, 74
5, 69480, Note_on_c, 3, 60, 62
5, 69480, Note_on_c, 3, 55, 59
5, 69480, Note_on_c, 3, 64, 68
5, 69555, Note_off_c, 3, 64, 68
5, 69560, Note_off_c, 3, 55, 59
5, 69565, Note_off_c, 3, 60, 62
5, 69600, Note_on_c, 3, 60, 85
5, 69600, Note_on_c, 3, 64, 89
5, 69600, Note_on_c, 3, 55, 85
5, 69775, Note_off_c, 3, 64, 89
5, 69775, Note_off_c, 3, 55, 85
5, 69780, Note_off_c, 3, 60, 85
5, 69840, Note_on_c, 3, 60, 82
5, 69840, Note_on_c, 3, 55, 76
5, 69840, Note_on_c, 3, 64, 70
5, 69920, Note_off_c, 3, 64, 70
5, 69925, Note_off_c, 3, 60, 82
5, 69925, Note_off_c, 3, 55, 76
5, 69960, Note_on_c, 3, 60, 87
5, 69960, Note_on_c, 3, 55, 82
5, 69960, Note_on_c, 3, 64, 82
5, 70175, Note_off_c, 3, 64, 82
5, 70180, Note_off_c, 3, 60, 87
5, 70180, Note_off_c, 3, 55, 82
5, 70200, Note_on_c, 3, 55, 74
5, 70200, Note_on_c, 3, 60, 85
5, 70200, Note_on_c, 3, 64, 89
5, 70275, Note_off_c, 3, 64, 89
5, 70280, Note_off_c, 3, 60, 85
5, 70285, Note_off_c, 3, 55, 74
5, 70320, Note_on_c, 3, 60, 87
5, 70320, Note_on_c, 3, 55, 80
5, 70320, Note_on_c, 3, 64, 85
5, 70500, Note_off_c, 3, 55, 80
5, 70500, Note_off_c, 3, 64, 85
5, 70505, Note_off_c, 3, 60, 87
5, 70560, Note_on_c, 3, 55, 78
5, 70560, Note_on_c, 3, 60, 82
5, 70560, Note_on_c, 3, 64, 82
5, 70730, Note_off_c, 3, 64, 82
5, 70745, Note_off_c, 3, 55, 78
5, 70745, Note_off_c, 3, 60, 82
5, 70800, Note_on_c, 3, 55, 66
5, 70800, Note_on_c, 3, 60, 82
5, 70800, Note_on_c, 3, 64, 78
5, 70860, Note_off_c, 3, 64, 78
5, 70870, Note_off_c, 3, 60, 82
5, 70875, Note_off_c, 3, 55, 66
5, 70920, Note_on_c, 3, 64, 66
5, 70920, Note_on_c, 3, 60, 62
5, 70920, Note_on_c, 3, 55, 57
5, 70975, Note_off_c, 3, 55, 57
5, 70980, Note_off_c, 3, 60, 62
5, 70985, Note_off_c, 3, 64, 66
5, 71040, Note_on_c, 3, 59, 80
5, 71040, Note_on_c, 3, 64, 55
5, 71040, Note_on_c, 3, 56, 82
5, 71215, Note_off_c, 3, 56, 82
5, 71225, Note_off_c, 3, 64, 55
5, 71230, Note_off_c, 3, 59, 80
5, 71280, Note_on_c, 3, 59, 89
5, 71280, Note_on_c, 3, 64, 82
5, 71280, Note_on_c, 3, 56, 76
5, 71345, Note_off_c, 3, 56, 76
5, 71350, Note_off_c, 3, 64, 82
5, 71365, Note_off_c, 3, 59, 89
5, 71400, Note_on_c, 3, 59, 80
5, 71400, Note_on_c, 3, 56, 74
5, 71400, Note_on_c, 3, 64, 80
5, 71470, Note_off_c, 3, 64, 80
5, 71480, Note_off_c, 3, 56, 74
5, 71485, Note_off_c, 3, 59, 80
5, 71520, Note_on_c, 3, 59, 82
5, 71520, Note_on_c, 3, 56, 76
5, 71520, Note_on_c, 3, 64, 82
5, 71700, Note_off_c, 3, 64, 82
5, 71705, Note_off_c, 3, 56, 76
5, 71715, Note_off_c, 3, 59, 82
5, 71760, Note_on_c, 3, 59, 70
5, 71760, Note_on_c, 3, 56, 66
5, 71760, Note_on_c, 3, 64, 82
5, 71825, Note_off_c, 3, 64, 82
5, 71830, Note_off_c, 3, 56, 66
5, 71840, Note_off_c, 3, 59, 70
5, 71880, Note_on_c, 3, 59, 89
5, 71880, Note_on_c, 3, 56, 78
5, 71880, Note_on_c, 3, 64, 80
5, 72065, Note_off_c, 3, 56, 78
5, 72065, Note_off_c, 3, 64, 80
5, 72085, Note_off_c, 3, 59, 89
5, 72120, Note_on_c, 3, 59, 80
5, 72120, Note_on_c, 3, 56, 70
5, 72120, Note_on_c, 3, 64, 82
5, 72185, Note_off_c, 3, 64, 82
5, 72195, Note_off_c, 3, 56, 70
5, 72200, Note_off_c, 3, 59, 80
5, 72240, Note_on_c, 3, 59, 78
5, 72240, Note_on_c, 3, 56, 66
5, 72240, Note_on_c, 3, 64, 85
5, 72430, Note_off_c, 3, 64, 85
5, 72435, Note_off_c, 3, 56, 66
5, 72445, Note_off_c, 3, 59, 78
5, 72480, Note_on_c, 3, 59, 80
5, 72480, Note_on_c, 3, 64, 85
5, 72480, Note_on_c, 3, 56, 70
5, 72665, Note_off_c, 3, 56, 70
5, 72670, Note_off_c, 3, 64, 85
5, 72680, Note_off_c, 3, 59, 80
5, 72720, Note_on_c, 3, 59, 63
5, 72720, Note_on_c, 3, 56, 68
5, 72720, Note_on_c, 3, 64, 64
5, 72785, Note_off_c, 3, 64, 64
5, 72795, Note_off_c, 3, 59, 63
5, 72795, Note_off_c, 3, 56, 68
5, 72840, Note_on_c, 3, 59, 60
5, 72840, Note_on_c, 3, 56, 62
5, 72840, Note_on_c, 3, 64, 64
5, 72905, Note_off_c, 3, 56, 62
5, 72905, Note_off_c, 3, 64, 64
5, 72910, Note_off_c, 3, 59, 60
5, 72960, Note_on_c, 3, 60, 89
5, 72960, Note_on_c, 3, 65, 87
5, 72960, Note_on_c, 3, 57, 82
5, 73135, Note_off_c, 3, 57, 82
5, 73140, Note_off_c, 3, 65, 87
5, 73145, Note_off_c, 3, 60, 89
5, 73200, Note_on_c, 3, 57, 57
5, 73200, Note_on_c, 3, 60, 61
5, 73200, Note_on_c, 3, 65, 64
5, 73270, Note_off_c, 3, 65, 64
5, 73285, Note_off_c, 3, 57, 57
5, 73285, Note_off_c, 3, 60, 61
5, 73320, Note_on_c, 3, 57, 55
5, 73320, Note_on_c, 3, 60, 63
5, 73320, Note_on_c, 3, 65, 63
5, 73395, Note_off_c, 3, 65, 63
5, 73405, Note_off_c, 3, 57, 55
5, 73405, Note_off_c, 3, 60, 63
5, 73440, Note_on_c, 3, 65, 82
5, 73440, Note_on_c, 3, 60, 80
5, 73440, Note_on_c, 3, 57, 64
5, 73630, Note_off_c, 3, 65, 82
5, 73630, Note_off_c, 3, 60, 80
5, 73630, Note_off_c, 3, 57, 64
5, 73680, Note_on_c, 3, 65, 70
5, 73680, Note_on_c, 3, 60, 64
5, 73680, Note_on_c, 3, 57, 57
5, 73765, Note_off_c, 3, 65, 70
5, 73765, Note_off_c, 3, 60, 64
5, 73765, Note_off_c, 3, 57, 57
5, 73800, Note_on_c, 3, 57, 82
5, 73800, Note_on_c, 3, 60, 89
5, 73800, Note_on_c, 3, 65, 87
5, 73995, Note_off_c, 3, 65, 87
5, 74000, Note_off_c, 3, 57, 82
5, 74000, Note_off_c, 3, 60, 89
5, 74040, Note_on_c, 3, 60, 63
5, 74040, Note_on_c, 3, 57, 60
5, 74040, Note_on_c, 3, 65, 70
5, 74120, Note_off_c, 3, 65, 70
5, 74125, Note_off_c, 3, 60, 63
5, 74125, Note_off_c, 3, 57, 60
5, 74160, Note_on_c, 3, 57, 80
5, 74160, Note_on_c, 3, 60, 87
5, 74160, Note_on_c, 3, 65, 87
5, 74340, Note_off_c, 3, 65, 87
5, 74345, Note_off_c, 3, 60, 87
5, 74350, Note_off_c, 3, 57, 80
5, 74400, Note_on_c, 3, 57, 66
5, 74400, Note_on_c, 3, 65, 85
5, 74400, Note_on_c, 3, 60, 85
5, 74580, Note_off_c, 3, 65, 85
5, 74580, Note_off_c, 3, 60, 85
5, 74585, Note_off_c, 3, 57, 66
5, 74640, Note_on_c, 3, 60, 78
5, 74640, Note_on_c, 3, 65, 78
5, 74640, Note_on_c, 3, 57, 68
5, 74720, Note_off_c, 3, 65, 78
5, 74720, Note_off_c, 3, 57, 68
5, 74725, Note_off_c, 3, 60, 78
5, 74760, Note_on_c, 3, 57, 64
5, 74760, Note_on_c, 3, 65, 85
5, 74760, Note_on_c, 3, 60, 82
5, 74855, Note_off_c, 3, 60, 82
5, 74860, Note_off_c, 3, 57, 64
5, 74860, Note_off_c, 3, 65, 85
5, 74880, Note_on_c, 3, 56, 98
5, 74880, Note_on_c, 3, 60, 100
5, 74880, Note_on_c, 3, 53, 98
5, 75170, Note_off_c, 3, 53, 98
5, 75180, Note_off_c, 3, 56, 98
5, 75180, Note_off_c, 3, 60, 100
5, 75240, Note_on_c, 3, 60, 70
5, 75240, Note_on_c, 3, 56, 64
5, 75240, Note_on_c, 3, 53, 62
5, 75305, Note_off_c, 3, 53, 62
5, 75310, Note_off_c, 3, 56, 64
5, 75320, Note_off_c, 3, 60, 70
5, 75360, Note_on_c, 3, 56, 85
5, 75360, Note_on_c, 3, 60, 89
5, 75360, Note_on_c, 3, 53, 85
5, 75645, Note_off_c, 3, 53, 85
5, 75660, Note_off_c, 3, 56, 85
5, 75660, Note_off_c, 3, 60, 89
5, 75720, Note_on_c, 3, 60, 91
5, 75720, Note_on_c, 3, 55, 100
5, 75720, Note_on_c, 3, 52, 95
5, 75900, Note_off_c, 3, 55, 100
5, 75900, Note_off_c, 3, 52, 95
5, 75910, Note_off_c, 3, 60, 91
5, 75960, Note_on_c, 3, 60, 82
5, 75960, Note_on_c, 3, 55, 87
5, 75960, Note_on_c, 3, 52, 80
5, 76035, Note_off_c, 3, 52, 80
5, 76040, Note_off_c, 3, 55, 87
5, 76045, Note_off_c, 3, 60, 82
5, 76080, Note_on_c, 3, 52, 85
5, 76080, Note_on_c, 3, 55, 87
5, 76080, Note_on_c, 3, 60, 85
5, 76290, Note_off_c, 3, 52, 85
5, 76290, Note_off_c, 3, 55, 87
5, 76290, Note_off_c, 3, 60, 85
5, 76320, Note_on_c, 3, 60, 87
5, 76320, Note_on_c, 3, 55, 93
5, 76320, Note_on_c, 3, 52, 85
5, 76615, Note_off_c, 3, 55, 93
5, 76615, Note_off_c, 3, 52, 85
5, 76625, Note_off_c, 3, 60, 87
5, 76680, Note_on_c, 3, 60, 63
5, 76680, Note_on_c, 3, 55, 76
5, 76680, Note_on_c, 3, 52, 70
5, 76755, Note_off_c, 3, 52, 70
5, 76765, Note_off_c, 3, 55, 76
5, 76770, Note_off_c, 3, 60, 63
5, 76800, Note_on_c, 3, 53, 93
5, 76800, Note_on_c, 3, 60, 98
5, 76800, Note_on_c, 3, 57, 100
5, 77110, Note_off_c, 3, 53, 93
5, 77110, Note_off_c, 3, 60, 98
5, 77110, Note_off_c, 3, 57, 100
5, 77160, Note_on_c, 3, 57, 70
5, 77160, Note_on_c, 3, 60, 78
5, 77160, Note_on_c, 3, 53, 63
5, 77245, Note_off_c, 3, 53, 63
5, 77250, Note_off_c, 3, 57, 70
5, 77250, Note_off_c, 3, 60, 78
5, 77280, Note_on_c, 3, 57, 87
5, 77280, Note_on_c, 3, 60, 85
5, 77280, Note_on_c, 3, 53, 87
5, 77585, Note_off_c, 3, 53, 87
5, 77590, Note_off_c, 3, 57, 87
5, 77590, Note_off_c, 3, 60, 85
5, 77640, Note_on_c, 3, 57, 85
5, 77640, Note_on_c, 3, 60, 85
5, 77640, Note_on_c, 3, 53, 78
5, 77830, Note_off_c, 3, 53, 78
5, 77835, Note_off_c, 3, 57, 85
5, 77835, Note_off_c, 3, 60, 85
5, 77880, Note_on_c, 3, 57, 82
5, 77880, Note_on_c, 3, 53, 76
5, 77880, Note_on_c, 3, 60, 80
5, 77970, Note_off_c, 3, 57, 82
5, 77970, Note_off_c, 3, 53, 76
5, 77970, Note_off_c, 3, 60, 80
5, 78000, Note_on_c, 3, 60, 80
5, 78000, Note_on_c, 3, 57, 85
5, 78000, Note_on_c, 3, 53, 76
5, 78195, Note_off_c, 3, 53, 76
5, 78200, Note_off_c, 3, 60, 80
5, 78200, Note_off_c, 3, 57, 85
5, 78240, Note_on_c, 3, 57, 89
5, 78240, Note_on_c, 3, 60, 87
5, 78240, Note_on_c, 3, 53, 82
5, 78555, Note_off_c, 3, 57, 89
5, 78555, Note_off_c, 3, 60, 87
5, 78555, Note_off_c, 3, 53, 82
5, 78600, Note_on_c, 3, 53, 72
5, 78600, Note_on_c, 3, 60, 80
5, 78600, Note_on_c, 3, 57, 82
5, 78700, Note_off_c, 3, 53, 72
5, 78700, Note_off_c, 3, 60, 80
5, 78700, Note_off_c, 3, 57, 82
5, 78720, Note_on_c, 3, 60, 100
5, 78720, Note_on_c, 3, 56, 98
5, 78720, Note_on_c, 3, 53, 98
5, 79010, Note_off_c, 3, 53, 98
5, 79020, Note_off_c, 3, 60, 100
5, 79020, Note_off_c, 3, 56, 98
5, 79080, Note_on_c, 3, 60, 70
5, 79080, Note_on_c, 3, 56, 64
5, 79080, Note_on_c, 3, 53, 62
5, 79145, Note_off_c, 3, 53, 62
5, 79150, Note_off_c, 3, 56, 64
5, 79160, Note_off_c, 3, 60, 70
5, 79200, Note_on_c, 3, 56, 85
5, 79200, Note_on_c, 3, 60, 89
5, 79200, Note_on_c, 3, 53, 85
5, 79485, Note_off_c, 3, 53, 85
5, 79500, Note_off_c, 3, 56, 85
5, 79500, Note_off_c, 3, 60, 89
5, 79560, Note_on_c, 3, 60, 91
5, 79560, Note_on_c, 3, 55, 100
5, 79560, Note_on_c, 3, 52, 95
5, 79740, Note_off_c, 3, 55, 100
5, 79740, Note_off_c, 3, 52, 95
5, 79750, Note_off_c, 3, 60, 91
5, 79800, Note_on_c, 3, 60, 82
5, 79800, Note_on_c, 3, 55, 87
5, 79800, Note_on_c, 3, 52, 80
5, 79875, Note_off_c, 3, 52, 80
5, 79880, Note_off_c, 3, 55, 87
5, 79885, Note_off_c, 3, 60, 82
5, 79920, Note_on_c, 3, 55, 87
5, 79920, Note_on_c, 3, 52, 85
5, 79920, Note_on_c, 3, 60, 85
5, 80130, Note_off_c, 3, 55, 87
5, 80130, Note_off_c, 3, 52, 85
5, 80130, Note_off_c, 3, 60, 85
5, 80160, Note_on_c, 3, 60, 87
5, 80160, Note_on_c, 3, 55, 93
5, 80160, Note_on_c, 3, 52, 85
5, 80455, Note_off_c, 3, 55, 93
5, 80455, Note_off_c, 3, 52, 85
5, 80465, Note_off_c, 3, 60, 87
5, 80520, Note_on_c, 3, 60, 63
5, 80520, Note_on_c, 3, 55, 76
5, 80520, Note_on_c, 3, 52, 70
5, 80595, Note_off_c, 3, 52, 70
5, 80605, Note_off_c, 3, 55, 76
5, 80610, Note_off_c, 3, 60, 63
5, 80640, Note_on_c, 3, 60, 98
5, 80640, Note_on_c, 3, 57, 100
5, 80640, Note_on_c, 3, 53, 93
5, 80950, Note_off_c, 3, 60, 98
5, 80950, Note_off_c, 3, 57, 100
5, 80950, Note_off_c, 3, 53, 93
5, 81000, Note_on_c, 3, 57, 70
5, 81000, Note_on_c, 3, 60, 78
5, 81000, Note_on_c, 3, 53, 63
5, 81085, Note_off_c, 3, 53, 63
5, 81090, Note_off_c, 3, 57, 70
5, 81090, Note_off_c, 3, 60, 78
5, 81120, Note_on_c, 3, 57, 87
5, 81120, Note_on_c, 3, 60, 85
5, 81120, Note_on_c, 3, 53, 87
5, 81425, Note_off_c, 3, 53, 87
5, 81430, Note_off_c, 3, 57, 87
5, 81430, Note_off_c, 3, 60, 85
5, 81480, Note_on_c, 3, 57, 85
5, 81480, Note_on_c, 3, 60, 85
5, 81480, Note_on_c, 3, 53, 78
5, 81670, Note_off_c, 3, 53, 78
5, 81675, Note_off_c, 3, 57, 85
5, 81675, Note_off_c, 3, 60, 85
5, 81720, Note_on_c, 3, 57, 82
5, 81720, Note_on_c, 3, 53, 76
5, 81720, Note_on_c, 3, 60, 80
5, 81810, Note_off_c, 3, 57, 82
5, 81810, Note_off_c, 3, 53, 76
5, 81810, Note_off_c, 3, 60, 80
5, 81840, Note_on_c, 3, 60, 80
5, 81840, Note_on_c, 3, 57, 85
5, 81840, Note_on_c, 3, 53, 76
5, 82035, Note_off_c, 3, 53, 76
5, 82040, Note_off_c, 3, 60, 80
5, 82040, Note_off_c, 3, 57, 85
5, 82080, Note_on_c, 3, 60, 87
5, 82080, Note_on_c, 3, 53, 82
5, 82080, Note_on_c, 3, 57, 89
5, 82395, Note_off_c, 3, 60, 87
5, 82395, Note_off_c, 3, 53, 82
5, 82395, Note_off_c, 3, 57, 89
5, 82440, Note_on_c, 3, 57, 82
5, 82440, Note_on_c, 3, 60, 80
5, 82440, Note_on_c, 3, 53, 72
5, 82540, Note_off_c, 3, 57, 82
5, 82540, Note_off_c, 3, 60, 80
5, 82540, Note_off_c, 3, 53, 72
5, 82560, Note_on_c, 3, 64, 82
5, 82560, Note_on_c, 3, 60, 89
5, 82560, Note_on_c, 3, 57, 80
5, 82560, Note_on_c, 3, 53, 82
5, 82840, Note_off_c, 3, 53, 82
5, 82845, Note_off_c, 3, 60, 89
5, 82845, Note_off_c, 3, 57, 80
5, 82850, Note_off_c, 3, 64, 82
5, 82920, Note_on_c, 3, 60, 76
5, 82920, Note_on_c, 3, 64, 64
5, 82920, Note_on_c, 3, 57, 62
5, 82920, Note_on_c, 3, 53, 66
5, 82995, Note_off_c, 3, 53, 66
5, 83000, Note_off_c, 3, 64, 64
5, 83000, Note_off_c, 3, 57, 62
5, 83010, Note_off_c, 3, 60, 76
5, 83040, Note_on_c, 3, 64, 78
5, 83040, Note_on_c, 3, 57, 78
5, 83040, Note_on_c, 3, 60, 82
5, 83040, Note_on_c, 3, 53, 80
5, 83320, Note_off_c, 3, 53, 80
5, 83330, Note_off_c, 3, 57, 78
5, 83330, Note_off_c, 3, 60, 82
5, 83335, Note_off_c, 3, 64, 78
5, 83400, Note_on_c, 3, 60, 78
5, 83400, Note_on_c, 3, 53, 78
5, 83400, Note_on_c, 3, 64, 74
5, 83400, Note_on_c, 3, 57, 78
5, 83600, Note_off_c, 3, 53, 78
5, 83600, Note_off_c, 3, 64, 74
5, 83600, Note_off_c, 3, 57, 78
5, 83605, Note_off_c, 3, 60, 78
5, 83640, Note_on_c, 3, 60, 76
5, 83640, Note_on_c, 3, 64, 66
5, 83640, Note_on_c, 3, 57, 64
5, 83640, Note_on_c, 3, 53, 68
5, 83725, Note_off_c, 3, 57, 64
5, 83725, Note_off_c, 3, 53, 68
5, 83730, Note_off_c, 3, 60, 76
5, 83730, Note_off_c, 3, 64, 66
5, 83760, Note_on_c, 3, 64, 80
5, 83760, Note_on_c, 3, 60, 80
5, 83760, Note_on_c, 3, 57, 74
5, 83760, Note_on_c, 3, 53, 68
5, 83970, Note_off_c, 3, 57, 74
5, 83970, Note_off_c, 3, 53, 68
5, 83975, Note_off_c, 3, 64, 80
5, 83975, Note_off_c, 3, 60, 80
5, 84000, Note_on_c, 3, 64, 82
5, 84000, Note_on_c, 3, 53, 72
5, 84000, Note_on_c, 3, 60, 76
5, 84000, Note_on_c, 3, 57, 76
5, 84305, Note_off_c, 3, 57, 76
5, 84310, Note_off_c, 3, 64, 82
5, 84310, Note_off_c, 3, 53, 72
5, 84310, Note_off_c, 3, 60, 76
5, 84360, Note_on_c, 3, 64, 64
5, 84360, Note_on_c, 3, 60, 72
5, 84360, Note_on_c, 3, 57, 63
5, 84360, Note_on_c, 3, 53, 58
5, 84425, Note_off_c, 3, 53, 58
5, 84430, Note_off_c, 3, 60, 72
5, 84430, Note_off_c, 3, 57, 63
5, 84435, Note_off_c, 3, 64, 64
5, 84480, Note_on_c, 3, 52, 91
5, 84480, Note_on_c, 3, 59, 78
5, 84480, Note_on_c, 3, 62, 82
5, 84480, Note_on_c, 3, 55, 93
5, 84775, Note_off_c, 3, 55, 93
5, 84780, Note_off_c, 3, 52, 91
5, 84780, Note_off_c, 3, 59, 78
5, 84780, Note_off_c, 3, 62, 82
5, 84840, Note_on_c, 3, 62, 76
5, 84840, Note_on_c, 3, 59, 68
5, 84840, Note_on_c, 3, 52, 60
5, 84840, Note_on_c, 3, 55, 70
5, 84915, Note_off_c, 3, 52, 60
5, 84915, Note_off_c, 3, 55, 70
5, 84930, Note_off_c, 3, 59, 68
5, 84935, Note_off_c, 3, 62, 76
5, 84960, Note_on_c, 3, 59, 82
5, 84960, Note_on_c, 3, 55, 87
5, 84960, Note_on_c, 3, 62, 89
5, 84960, Note_on_c, 3, 52, 82
5, 85265, Note_off_c, 3, 55, 87
5, 85265, Note_off_c, 3, 62, 89
5, 85265, Note_off_c, 3, 52, 82
5, 85275, Note_off_c, 3, 59, 82
5, 85320, Note_on_c, 3, 59, 68
5, 85320, Note_on_c, 3, 52, 66
5, 85320, Note_on_c, 3, 62, 68
5, 85320, Note_on_c, 3, 55, 64
5, 85500, Note_off_c, 3, 55, 64
5, 85505, Note_off_c, 3, 62, 68
5, 85510, Note_off_c, 3, 59, 68
5, 85510, Note_off_c, 3, 52, 66
5, 85560, Note_on_c, 3, 62, 76
5, 85560, Note_on_c, 3, 59, 64
5, 85560, Note_on_c, 3, 52, 70
5, 85560, Note_on_c, 3, 55, 66
5, 85635, Note_off_c, 3, 55, 66
5, 85650, Note_off_c, 3, 62, 76
5, 85650, Note_off_c, 3, 59, 64
5, 85650, Note_off_c, 3, 52, 70
5, 85680, Note_on_c, 3, 52, 70
5, 85680, Note_on_c, 3, 59, 68
5, 85680, Note_on_c, 3, 62, 78
5, 85680, Note_on_c, 3, 55, 76
5, 85880, Note_off_c, 3, 55, 76
5, 85885, Note_off_c, 3, 62, 78
5, 85890, Note_off_c, 3, 59, 68
5, 85895, Note_off_c, 3, 52, 70
5, 85920, Note_on_c, 3, 59, 78
5, 85920, Note_on_c, 3, 55, 78
5, 85920, Note_on_c, 3, 52, 76
5, 85920, Note_on_c, 3, 62, 80
5, 86240, Note_off_c, 3, 55, 78
5, 86240, Note_off_c, 3, 52, 76
5, 86240, Note_off_c, 3, 62, 80
5, 86245, Note_off_c, 3, 59, 78
5, 86280, Note_on_c, 3, 62, 82
5, 86280, Note_on_c, 3, 59, 66
5, 86280, Note_on_c, 3, 55, 70
5, 86280, Note_on_c, 3, 52, 66
5, 86350, Note_off_c, 3, 52, 66
5, 86355, Note_off_c, 3, 59, 66
5, 86355, Note_off_c, 3, 55, 70
5, 86360, Note_off_c, 3, 62, 82
5, 86400, Note_on_c, 3, 64, 93
5, 86400, Note_on_c, 3, 57, 100
5, 86400, Note_on_c, 3, 53, 85
5, 86400, Note_on_c, 3, 60, 93
5, 86685, Note_off_c, 3, 57, 100
5, 86685, Note_off_c, 3, 53, 85
5, 86685, Note_off_c, 3, 60, 93
5, 86690, Note_off_c, 3, 64, 93
5, 86760, Note_on_c, 3, 64, 64
5, 86760, Note_on_c, 3, 60, 68
5, 86760, Note_on_c, 3, 57, 59
5, 86760, Note_on_c, 3, 53, 60
5, 86835, Note_off_c, 3, 53, 60
5, 86840, Note_off_c, 3, 57, 59
5, 86850, Note_off_c, 3, 60, 68
5, 86855, Note_off_c, 3, 64, 64
5, 86880, Note_on_c, 3, 60, 82
5, 86880, Note_on_c, 3, 57, 72
5, 86880, Note_on_c, 3, 64, 80
5, 86880, Note_on_c, 3, 53, 78
5, 87185, Note_off_c, 3, 53, 78
5, 87190, Note_off_c, 3, 64, 80
5, 87195, Note_off_c, 3, 60, 82
5, 87195, Note_off_c, 3, 57, 72
5, 87240, Note_on_c, 3, 60, 76
5, 87240, Note_on_c, 3, 57, 72
5, 87240, Note_on_c, 3, 64, 76
5, 87240, Note_on_c, 3, 53, 74
5, 87420, Note_off_c, 3, 53, 74
5, 87430, Note_off_c, 3, 64, 76
5, 87435, Note_off_c, 3, 60, 76
5, 87435, Note_off_c, 3, 57, 72
5, 87480, Note_on_c, 3, 57, 66
5, 87480, Note_on_c, 3, 60, 66
5, 87480, Note_on_c, 3, 64, 64
5, 87480, Note_on_c, 3, 53, 72
5, 87565, Note_off_c, 3, 64, 64
5, 87565, Note_off_c, 3, 53, 72
5, 87570, Note_off_c, 3, 57, 66
5, 87570, Note_off_c, 3, 60, 66
5, 87600, Note_on_c, 3, 60, 76
5, 87600, Note_on_c, 3, 57, 72
5, 87600, Note_on_c, 3, 64, 80
5, 87600, Note_on_c, 3, 53, 70
5, 87785, Note_off_c, 3, 53, 70
5, 87790, Note_off_c, 3, 64, 80
5, 87795, Note_off_c, 3, 60, 76
5, 87795, Note_off_c, 3, 57, 72
5, 87840, Note_on_c, 3, 57, 85
5, 87840, Note_on_c, 3, 60, 82
5, 87840, Note_on_c, 3, 53, 87
5, 87840, Note_on_c, 3, 64, 80
5, 88140, Note_off_c, 3, 53, 87
5, 88140, Note_off_c, 3, 64, 80
5, 88150, Note_off_c, 3, 57, 85
5, 88150, Note_off_c, 3, 60, 82
5, 88200, Note_on_c, 3, 64, 66
5, 88200, Note_on_c, 3, 60, 70
5, 88200, Note_on_c, 3, 57, 64
5, 88200, Note_on_c, 3, 53, 62
5, 88280, Note_off_c, 3, 53, 62
5, 88285, Note_off_c, 3, 64, 66
5, 88285, Note_off_c, 3, 60, 70
5, 88285, Note_off_c, 3, 57, 64
5, 88320, Note_on_c, 3, 62, 78
5, 88320, Note_on_c, 3, 59, 72
5, 88320, Note_on_c, 3, 55, 87
5, 88320, Note_on_c, 3, 52, 85
5, 88605, Note_off_c, 3, 55, 87
5, 88605, Note_off_c, 3, 52, 85
5, 88610, Note_off_c, 3, 59, 72
5, 88615, Note_off_c, 3, 62, 78
5, 88680, Note_on_c, 3, 62, 66
5, 88680, Note_on_c, 3, 59, 63
5, 88680, Note_on_c, 3, 52, 58
5, 88680, Note_on_c, 3, 55, 62
5, 88760, Note_off_c, 3, 55, 62
5, 88765, Note_off_c, 3, 52, 58
5, 88770, Note_off_c, 3, 62, 66
5, 88770, Note_off_c, 3, 59, 63
5, 88800, Note_on_c, 3, 55, 82
5, 88800, Note_on_c, 3, 59, 78
5, 88800, Note_on_c, 3, 52, 70
5, 88800, Note_on_c, 3, 62, 87
5, 89085, Note_off_c, 3, 62, 87
5, 89090, Note_off_c, 3, 52, 70
5, 89095, Note_off_c, 3, 55, 82
5, 89095, Note_off_c, 3, 59, 78
5, 89160, Note_on_c, 3, 55, 68
5, 89160, Note_on_c, 3, 59, 72
5, 89160, Note_on_c, 3, 52, 70
5, 89160, Note_on_c, 3, 62, 76
5, 89355, Note_off_c, 3, 62, 76
5, 89360, Note_off_c, 3, 52, 70
5, 89365, Note_off_c, 3, 55, 68
5, 89365, Note_off_c, 3, 59, 72
5, 89400, Note_on_c, 3, 59, 74
5, 89400, Note_on_c, 3, 62, 74
5, 89400, Note_on_c, 3, 55, 66
5, 89400, Note_on_c, 3, 52, 60
5, 89485, Note_off_c, 3, 62, 74
5, 89485, Note_off_c, 3, 55, 66
5, 89485, Note_off_c, 3, 52, 60
5, 89490, Note_off_c, 3, 59, 74
5, 89520, Note_on_c, 3, 59, 78
5, 89520, Note_on_c, 3, 62, 87
5, 89520, Note_on_c, 3, 52, 80
5, 89520, Note_on_c, 3, 55, 82
5, 89720, Note_off_c, 3, 62, 87
5, 89720, Note_off_c, 3, 52, 80
5, 89720, Note_off_c, 3, 55, 82
5, 89730, Note_off_c, 3, 59, 78
5, 89760, Note_on_c, 3, 55, 78
5, 89760, Note_on_c, 3, 59, 82
5, 89760, Note_on_c, 3, 62, 82
5, 89760, Note_on_c, 3, 52, 76
5, 90070, Note_off_c, 3, 62, 82
5, 90070, Note_off_c, 3, 52, 76
5, 90075, Note_off_c, 3, 55, 78
5, 90075, Note_off_c, 3, 59, 82
5, 90120, Note_on_c, 3, 55, 64
5, 90120, Note_on_c, 3, 52, 70
5, 90120, Note_on_c, 3, 59, 61
5, 90120, Note_on_c, 3, 62, 82
5, 90210, Note_off_c, 3, 62, 82
5, 90215, Note_off_c, 3, 55, 64
5, 90215, Note_off_c, 3, 52, 70
5, 90215, Note_off_c, 3, 59, 61
5, 90240, Note_on_c, 3, 58, 100
5, 90240, Note_on_c, 3, 62, 105
5, 90240, Note_on_c, 3, 53, 107
5, 90510, Note_off_c, 3, 53, 107
5, 90515, Note_off_c, 3, 62, 105
5, 90520, Note_off_c, 3, 58, 100
5, 90600, Note_on_c, 3, 58, 82
5, 90600, Note_on_c, 3, 62, 82
5, 90600, Note_on_c, 3, 53, 78
5, 90660, Note_off_c, 3, 53, 78
5, 90670, Note_off_c, 3, 58, 82
5, 90670, Note_off_c, 3, 62, 82
5, 90720, Note_on_c, 3, 62, 93
5, 90720, Note_on_c, 3, 58, 91
5, 90720, Note_on_c, 3, 53, 80
5, 90975, Note_off_c, 3, 53, 80
5, 90980, Note_off_c, 3, 62, 93
5, 90980, Note_off_c, 3, 58, 91
5, 91080, Note_on_c, 3, 52, 91
5, 91080, Note_on_c, 3, 60, 85
5, 91080, Note_on_c, 3, 57, 98
5, 91255, Note_off_c, 3, 57, 98
5, 91260, Note_off_c, 3, 52, 91
5, 91260, Note_off_c, 3, 60, 85
5, 91320, Note_on_c, 3, 57, 80
5, 91320, Note_on_c, 3, 60, 85
5, 91320, Note_on_c, 3, 52, 80
5, 91395, Note_off_c, 3, 52, 80
5, 91405, Note_off_c, 3, 57, 80
5, 91405, Note_off_c, 3, 60, 85
5, 91440, Note_on_c, 3, 57, 93
5, 91440, Note_on_c, 3, 60, 87
5, 91440, Note_on_c, 3, 52, 85
5, 91615, Note_off_c, 3, 52, 85
5, 91620, Note_off_c, 3, 60, 87
5, 91630, Note_off_c, 3, 57, 93
5, 91680, Note_on_c, 3, 52, 91
5, 91680, Note_on_c, 3, 60, 95
5, 91680, Note_on_c, 3, 57, 98
5, 91945, Note_off_c, 3, 57, 98
5, 91950, Note_off_c, 3, 52, 91
5, 91950, Note_off_c, 3, 60, 95
5, 92040, Note_on_c, 3, 59, 85
5, 92040, Note_on_c, 3, 55, 89
5, 92040, Note_on_c, 3, 50, 78
5, 92120, Note_off_c, 3, 55, 89
5, 92120, Note_off_c, 3, 50, 78
5, 92125, Note_off_c, 3, 59, 85
5, 92160, Note_on_c, 3, 59, 85
5, 92160, Note_on_c, 3, 55, 93
5, 92160, Note_on_c, 3, 50, 85
5, 92445, Note_off_c, 3, 50, 85
5, 92450, Note_off_c, 3, 59, 85
5, 92450, Note_off_c, 3, 55, 93
5, 92520, Note_on_c, 3, 55, 78
5, 92520, Note_on_c, 3, 59, 76
5, 92520, Note_on_c, 3, 50, 66
5, 92595, Note_off_c, 3, 50, 66
5, 92600, Note_off_c, 3, 55, 78
5, 92600, Note_off_c, 3, 59, 76
5, 92640, Note_on_c, 3, 59, 80
5, 92640, Note_on_c, 3, 50, 85
5, 92640, Note_on_c, 3, 55, 87
5, 92880, Note_off_c, 3, 55, 87
5, 92885, Note_off_c, 3, 50, 85
5, 92910, Note_off_c, 3, 59, 80
5, 93000, Note_on_c, 3, 48, 66
5, 93000, Note_on_c, 3, 57, 80
5, 93000, Note_on_c, 3, 53, 95
5, 93205, Note_off_c, 3, 53, 95
5, 93210, Note_off_c, 3, 57, 80
5, 93215, Note_off_c, 3, 48, 66
5, 93240, Note_on_c, 3, 48, 55
5, 93240, Note_on_c, 3, 57, 57
5, 93240, Note_on_c, 3, 53, 66
5, 93315, Note_off_c, 3, 53, 66
5, 93325, Note_off_c, 3, 57, 57
5, 93335, Note_off_c, 3, 48, 55
5, 93360, Note_on_c, 3, 48, 57
5, 93360, Note_on_c, 3, 57, 70
5, 93360, Note_on_c, 3, 53, 78
5, 93545, Note_off_c, 3, 57, 70
5, 93545, Note_off_c, 3, 53, 78
5, 93560, Note_off_c, 3, 48, 57
5, 93600, Note_on_c, 3, 53, 80
5, 93600, Note_on_c, 3, 48, 63
5, 93600, Note_on_c, 3, 57, 82
5, 93875, Note_off_c, 3, 57, 82
5, 93880, Note_off_c, 3, 53, 80
5, 93880, Note_off_c, 3, 48, 63
5, 93960, Note_on_c, 3, 57, 64
5, 93960, Note_on_c, 3, 53, 63
5, 93960, Note_on_c, 3, 48, 55
5, 94040, Note_off_c, 3, 53, 63
5, 94040, Note_off_c, 3, 48, 55
5, 94050, Note_off_c, 3, 57, 64
5, 94080, Note_on_c, 3, 48, 60
5, 94080, Note_on_c, 3, 57, 78
5, 94080, Note_on_c, 3, 53, 78
5, 94375, Note_off_c, 3, 53, 78
5, 94380, Note_off_c, 3, 57, 78
5, 94385, Note_off_c, 3, 48, 60
5, 94440, Note_on_c, 3, 48, 51
5, 94440, Note_on_c, 3, 57, 64
5, 94440, Note_on_c, 3, 53, 64
5, 94525, Note_off_c, 3, 57, 64
5, 94525, Note_off_c, 3, 53, 64
5, 94535, Note_off_c, 3, 48, 51
5, 94560, Note_on_c, 3, 48, 58
5, 94560, Note_on_c, 3, 57, 76
5, 94560, Note_on_c, 3, 53, 70
5, 94950, Note_off_c, 3, 53, 70
5, 94955, Note_off_c, 3, 48, 58
5, 94955, Note_off_c, 3, 57, 76
5, 95040, Note_on_c, 3, 55, 102
5, 95040, Note_on_c, 3, 52, 100
5, 95040, Note_on_c, 3, 60, 102
5, 95210, Note_off_c, 3, 60, 102
5, 95215, Note_off_c, 3, 55, 102
5, 95215, Note_off_c, 3, 52, 100
5, 95280, Note_on_c, 3, 55, 100
5, 95280, Note_on_c, 3, 48, 98
5, 95280, Note_on_c, 3, 52, 102
5, 95360, Note_off_c, 3, 48, 98
5, 95360, Note_off_c, 3, 52, 102
5, 95365, Note_off_c, 3, 55, 100
5, 95400, Note_on_c, 3, 53, 110
5, 95400, Note_on_c, 3, 57, 107
5, 95400, Note_on_c, 3, 48, 91
5, 95595, Note_off_c, 3, 53, 110
5, 95595, Note_off_c, 3, 57, 107
5, 95595, Note_off_c, 3, 48, 91
5, 95640, Note_on_c, 3, 55, 98
5, 95640, Note_on_c, 3, 52, 100
5, 95640, Note_on_c, 3, 48, 95
5, 95700, Note_off_c, 3, 48, 95
5, 95710, Note_off_c, 3, 52, 100
5, 95715, Note_off_c, 3, 55, 98
5, 95760, Note_on_c, 3, 59, 110
5, 95760, Note_on_c, 3, 55, 110
5, 95760, Note_on_c, 3, 50, 100
5, 96030, Note_off_c, 3, 50, 100
5, 96045, Note_off_c, 3, 59, 110
5, 96045, Note_off_c, 3, 55, 110
5, 96120, Note_on_c, 3, 59, 89
5, 96120, Note_on_c, 3, 50, 82
5, 96120, Note_on_c, 3, 55, 100
5, 96210, Note_off_c, 3, 55, 100
5, 96220, Note_off_c, 3, 59, 89
5, 96220, Note_off_c, 3, 50, 82
5, 96240, Note_on_c, 3, 61, 82
5, 96240, Note_on_c, 3, 52, 89
5, 96240, Note_on_c, 3, 57, 91
5, 96440, Note_off_c, 3, 52, 89
5, 96440, Note_off_c, 3, 57, 91
5, 96445, Note_off_c, 3, 61, 82
5, 96480, Note_on_c, 3, 52, 100
5, 96480, Note_on_c, 3, 61, 100
5, 96480, Note_on_c, 3, 57, 105
5, 96675, Note_off_c, 3, 57, 105
5, 96680, Note_off_c, 3, 61, 100
5, 96685, Note_off_c, 3, 52, 100
5, 96960, Note_on_c, 3, 55, 105
5, 96960, Note_on_c, 3, 52, 93
5, 96960, Note_on_c, 3, 60, 105
5, 97120, Note_off_c, 3, 52, 93
5, 97120, Note_off_c, 3, 60, 105
5, 97125, Note_off_c, 3, 55, 105
5, 97200, Note_on_c, 3, 48, 85
5, 97200, Note_on_c, 3, 55, 91
5, 97200, Note_on_c, 3, 52, 93
5, 97275, Note_off_c, 3, 52, 93
5, 97280, Note_off_c, 3, 48, 85
5, 97280, Note_off_c, 3, 55, 91
5, 97320, Note_on_c, 3, 57, 102
5, 97320, Note_on_c, 3, 48, 98
5, 97320, Note_on_c, 3, 53, 100
5, 97500, Note_off_c, 3, 53, 100
5, 97510, Note_off_c, 3, 48, 98
5, 97525, Note_off_c, 3, 57, 102
5, 97560, Note_on_c, 3, 52, 100
5, 97560, Note_on_c, 3, 55, 85
5, 97560, Note_on_c, 3, 48, 82
5, 97615, Note_off_c, 3, 48, 82
5, 97625, Note_off_c, 3, 52, 100
5, 97625, Note_off_c, 3, 55, 85
5, 97680, Note_on_c, 3, 59, 110
5, 97680, Note_on_c, 3, 55, 110
5, 97680, Note_on_c, 3, 50, 102
5, 97955, Note_off_c, 3, 50, 102
5, 97965, Note_off_c, 3, 59, 110
5, 97965, Note_off_c, 3, 55, 110
5, 98040, Note_on_c, 3, 59, 85
5, 98040, Note_on_c, 3, 55, 98
5, 98040, Note_on_c, 3, 50, 91
5, 98115, Note_off_c, 3, 50, 91
5, 98120, Note_off_c, 3, 55, 98
5, 98125, Note_off_c, 3, 59, 85
5, 98160, Note_on_c, 3, 61, 91
5, 98160, Note_on_c, 3, 52, 85
5, 98160, Note_on_c, 3, 57, 98
5, 98345, Note_off_c, 3, 57, 98
5, 98350, Note_off_c, 3, 61, 91
5, 98350, Note_off_c, 3, 52, 85
5, 98400, Note_on_c, 3, 61, 95
5, 98400, Note_on_c, 3, 57, 102
5, 98400, Note_on_c, 3, 52, 100
5, 98590, Note_off_c, 3, 61, 95
5, 98590, Note_off_c, 3, 57, 102
5, 98590, Note_off_c, 3, 52, 100
5, 98880, Note_on_c, 3, 60, 82
5, 98880, Note_on_c, 3, 53, 68
5, 98880, Note_on_c, 3, 57, 70
5, 98880, Note_on_c, 3, 64, 52
5, 98950, Note_off_c, 3, 64, 52
5, 98955, Note_off_c, 3, 57, 70
5, 98960, Note_off_c, 3, 60, 82
5, 98960, Note_off_c, 3, 53, 68
5, 99000, Note_on_c, 3, 57, 70
5, 99000, Note_on_c, 3, 53, 62
5, 99000, Note_on_c, 3, 60, 64
5, 99000, Note_on_c, 3, 64, 66
5, 99130, Note_off_c, 3, 64, 66
5, 99140, Note_off_c, 3, 57, 70
5, 99140, Note_off_c, 3, 53, 62
5, 99140, Note_off_c, 3, 60, 64
5, 99240, Note_on_c, 3, 64, 78
5, 99240, Note_on_c, 3, 53, 72
5, 99240, Note_on_c, 3, 57, 72
5, 99240, Note_on_c, 3, 60, 82
5, 99390, Note_off_c, 3, 60, 82
5, 99395, Note_off_c, 3, 64, 78
5, 99395, Note_off_c, 3, 53, 72
5, 99395, Note_off_c, 3, 57, 72
5, 99480, Note_on_c, 3, 64, 68
5, 99480, Note_on_c, 3, 53, 70
5, 99480, Note_on_c, 3, 57, 68
5, 99480, Note_on_c, 3, 60, 87
5, 99640, Note_off_c, 3, 57, 68
5, 99640, Note_off_c, 3, 60, 87
5, 99645, Note_off_c, 3, 64, 68
5, 99645, Note_off_c, 3, 53, 70
5, 99720, Note_on_c, 3, 64, 68
5, 99720, Note_on_c, 3, 57, 74
5, 99720, Note_on_c, 3, 53, 78
5, 99720, Note_on_c, 3, 60, 80
5, 99900, Note_off_c, 3, 53, 78
5, 99900, Note_off_c, 3, 60, 80
5, 99905, Note_off_c, 3, 64, 68
5, 99905, Note_off_c, 3, 57, 74
5, 99960, Note_on_c, 3, 60, 72
5, 99960, Note_on_c, 3, 64, 64
5, 99960, Note_on_c, 3, 57, 70
5, 99960, Note_on_c, 3, 53, 78
5, 100140, Note_off_c, 3, 64, 64
5, 100140, Note_off_c, 3, 57, 70
5, 100140, Note_off_c, 3, 53, 78
5, 100145, Note_off_c, 3, 60, 72
5, 100200, Note_on_c, 3, 60, 78
5, 100200, Note_on_c, 3, 64, 68
5, 100200, Note_on_c, 3, 53, 74
5, 100200, Note_on_c, 3, 57, 72
5, 100375, Note_off_c, 3, 57, 72
5, 100380, Note_off_c, 3, 64, 68
5, 100380, Note_off_c, 3, 53, 74
5, 100385, Note_off_c, 3, 60, 78
5, 100440, Note_on_c, 3, 60, 66
5, 100440, Note_on_c, 3, 53, 63
5, 100440, Note_on_c, 3, 64, 60
5, 100440, Note_on_c, 3, 57, 68
5, 100505, Note_off_c, 3, 57, 68
5, 100510, Note_off_c, 3, 64, 60
5, 100515, Note_off_c, 3, 53, 63
5, 100530, Note_off_c, 3, 60, 66
5, 100560, Note_on_c, 3, 60, 76
5, 100560, Note_on_c, 3, 64, 70
5, 100560, Note_on_c, 3, 53, 64
5, 100560, Note_on_c, 3, 57, 78
5, 100730, Note_off_c, 3, 57, 78
5, 100740, Note_off_c, 3, 64, 70
5, 100740, Note_off_c, 3, 53, 64
5, 100770, Note_off_c, 3, 60, 76
5, 100800, Note_on_c, 3, 64, 80
5, 100800, Note_on_c, 3, 55, 85
5, 100800, Note_on_c, 3, 59, 74
5, 100875, Note_off_c, 3, 59, 74
5, 100880, Note_off_c, 3, 55, 85
5, 100895, Note_off_c, 3, 64, 80
5, 100920, Note_on_c, 3, 64, 68
5, 100920, Note_on_c, 3, 59, 76
5, 100920, Note_on_c, 3, 55, 66
5, 101100, Note_off_c, 3, 55, 66
5, 101105, Note_off_c, 3, 59, 76
5, 101110, Note_off_c, 3, 64, 68
5, 101160, Note_on_c, 3, 64, 78
5, 101160, Note_on_c, 3, 59, 72
5, 101160, Note_on_c, 3, 55, 64
5, 101340, Note_off_c, 3, 59, 72
5, 101340, Note_off_c, 3, 55, 64
5, 101345, Note_off_c, 3, 64, 78
5, 101400, Note_on_c, 3, 64, 82
5, 101400, Note_on_c, 3, 55, 74
5, 101400, Note_on_c, 3, 59, 82
5, 101585, Note_off_c, 3, 55, 74
5, 101585, Note_off_c, 3, 59, 82
5, 101595, Note_off_c, 3, 64, 82
5, 101640, Note_on_c, 3, 55, 82
5, 101640, Note_on_c, 3, 59, 85
5, 101640, Note_on_c, 3, 64, 70
5, 101810, Note_off_c, 3, 64, 70
5, 101815, Note_off_c, 3, 55, 82
5, 101815, Note_off_c, 3, 59, 85
5, 101880, Note_on_c, 3, 64, 82
5, 101880, Note_on_c, 3, 59, 87
5, 101880, Note_on_c, 3, 55, 82
5, 102070, Note_off_c, 3, 55, 82
5, 102075, Note_off_c, 3, 64, 82
5, 102075, Note_off_c, 3, 59, 87
5, 102120, Note_on_c, 3, 55, 78
5, 102120, Note_on_c, 3, 59, 85
5, 102120, Note_on_c, 3, 64, 82
5, 102305, Note_off_c, 3, 64, 82
5, 102310, Note_off_c, 3, 59, 85
5, 102315, Note_off_c, 3, 55, 78
5, 102360, Note_on_c, 3, 55, 52
5, 102360, Note_on_c, 3, 59, 66
5, 102360, Note_on_c, 3, 64, 61
5, 102440, Note_off_c, 3, 64, 61
5, 102445, Note_off_c, 3, 59, 66
5, 102450, Note_off_c, 3, 55, 52
5, 102480, Note_on_c, 3, 64, 64
5, 102480, Note_on_c, 3, 55, 63
5, 102480, Note_on_c, 3, 59, 78
5, 102635, Note_off_c, 3, 59, 78
5, 102655, Note_off_c, 3, 55, 63
5, 102660, Note_off_c, 3, 64, 64
5, 102720, Note_on_c, 3, 64, 82
5, 102720, Note_on_c, 3, 57, 82
5, 102720, Note_on_c, 3, 61, 82
5, 102800, Note_off_c, 3, 57, 82
5, 102800, Note_off_c, 3, 61, 82
5, 102805, Note_off_c, 3, 64, 82
5, 102840, Note_on_c, 3, 57, 74
5, 102840, Note_on_c, 3, 64, 66
5, 102840, Note_on_c, 3, 61, 66
5, 103030, Note_off_c, 3, 57, 74
5, 103030, Note_off_c, 3, 64, 66
5, 103030, Note_off_c, 3, 61, 66
5, 103080, Note_on_c, 3, 64, 64
5, 103080, Note_on_c, 3, 61, 66
5, 103080, Note_on_c, 3, 57, 72
5, 103270, Note_off_c, 3, 64, 64
5, 103270, Note_off_c, 3, 61, 66
5, 103270, Note_off_c, 3, 57, 72
5, 103320, Note_on_c, 3, 57, 68
5, 103320, Note_on_c, 3, 61, 66
5, 103320, Note_on_c, 3, 64, 72
5, 103495, Note_off_c, 3, 61, 66
5, 103495, Note_off_c, 3, 64, 72
5, 103500, Note_off_c, 3, 57, 68
5, 103560, Note_on_c, 3, 57, 74
5, 103560, Note_on_c, 3, 64, 64
5, 103560, Note_on_c, 3, 61, 74
5, 103740, Note_off_c, 3, 61, 74
5, 103745, Note_off_c, 3, 64, 64
5, 103750, Note_off_c, 3, 57, 74
5, 103800, Note_on_c, 3, 57, 70
5, 103800, Note_on_c, 3, 64, 68
5, 103800, Note_on_c, 3, 61, 74
5, 103995, Note_off_c, 3, 61, 74
5, 104000, Note_off_c, 3, 57, 70
5, 104000, Note_off_c, 3, 64, 68
5, 104040, Note_on_c, 3, 61, 66
5, 104040, Note_on_c, 3, 57, 70
5, 104040, Note_on_c, 3, 64, 66
5, 104230, Note_off_c, 3, 64, 66
5, 104235, Note_off_c, 3, 61, 66
5, 104235, Note_off_c, 3, 57, 70
5, 104280, Note_on_c, 3, 57, 68
5, 104280, Note_on_c, 3, 64, 72
5, 104280, Note_on_c, 3, 61, 70
5, 104355, Note_off_c, 3, 61, 70
5, 104360, Note_off_c, 3, 64, 72
5, 104365, Note_off_c, 3, 57, 68
5, 104400, Note_on_c, 3, 61, 74
5, 104400, Note_on_c, 3, 64, 64
5, 104400, Note_on_c, 3, 57, 66
5, 104575, Note_off_c, 3, 64, 64
5, 104575, Note_off_c, 3, 57, 66
5, 104585, Note_off_c, 3, 61, 74
5, 104640, Note_on_c, 3, 64, 82
5, 104640, Note_on_c, 3, 55, 85
5, 104640, Note_on_c, 3, 60, 85
5, 104715, Note_off_c, 3, 60, 85
5, 104725, Note_off_c, 3, 55, 85
5, 104735, Note_off_c, 3, 64, 82
5, 104760, Note_on_c, 3, 64, 72
5, 104760, Note_on_c, 3, 60, 78
5, 104760, Note_on_c, 3, 55, 68
5, 104955, Note_off_c, 3, 55, 68
5, 104960, Note_off_c, 3, 60, 78
5, 104965, Note_off_c, 3, 64, 72
5, 105000, Note_on_c, 3, 55, 64
5, 105000, Note_on_c, 3, 60, 76
5, 105000, Note_on_c, 3, 64, 70
5, 105175, Note_off_c, 3, 64, 70
5, 105180, Note_off_c, 3, 55, 64
5, 105180, Note_off_c, 3, 60, 76
5, 105240, Note_on_c, 3, 60, 85
5, 105240, Note_on_c, 3, 64, 80
5, 105240, Note_on_c, 3, 55, 76
5, 105425, Note_off_c, 3, 55, 76
5, 105435, Note_off_c, 3, 60, 85
5, 105435, Note_off_c, 3, 64, 80
5, 105480, Note_on_c, 3, 60, 85
5, 105480, Note_on_c, 3, 55, 85
5, 105480, Note_on_c, 3, 64, 74
5, 105670, Note_off_c, 3, 64, 74
5, 105675, Note_off_c, 3, 55, 85
5, 105685, Note_off_c, 3, 60, 85
5, 105720, Note_on_c, 3, 60, 82
5, 105720, Note_on_c, 3, 64, 68
5, 105720, Note_on_c, 3, 55, 76
5, 105905, Note_off_c, 3, 64, 68
5, 105905, Note_off_c, 3, 55, 76
5, 105915, Note_off_c, 3, 60, 82
5, 105960, Note_on_c, 3, 60, 82
5, 105960, Note_on_c, 3, 55, 82
5, 105960, Note_on_c, 3, 64, 70
5, 106135, Note_off_c, 3, 64, 70
5, 106150, Note_off_c, 3, 55, 82
5, 106155, Note_off_c, 3, 60, 82
5, 106200, Note_on_c, 3, 55, 78
5, 106200, Note_on_c, 3, 60, 82
5, 106200, Note_on_c, 3, 64, 60
5, 106255, Note_off_c, 3, 64, 60
5, 106285, Note_off_c, 3, 55, 78
5, 106285, Note_off_c, 3, 60, 82
5, 106320, Note_on_c, 3, 60, 82
5, 106320, Note_on_c, 3, 64, 64
5, 106320, Note_on_c, 3, 55, 82
5, 106440, Note_off_c, 3, 55, 82
5, 106450, Note_off_c, 3, 64, 64
5, 106485, Note_off_c, 3, 60, 82
5, 106560, Note_on_c, 3, 57, 66
5, 106560, Note_on_c, 3, 54, 72
5, 106560, Note_on_c, 3, 64, 66
5, 106640, Note_off_c, 3, 64, 66
5, 106645, Note_off_c, 3, 54, 72
5, 106650, Note_off_c, 3, 57, 66
5, 106680, Note_on_c, 3, 64, 80
5, 106680, Note_on_c, 3, 57, 82
5, 106680, Note_on_c, 3, 54, 82
5, 106860, Note_off_c, 3, 54, 82
5, 106875, Note_off_c, 3, 57, 82
5, 106880, Note_off_c, 3, 64, 80
5, 106920, Note_on_c, 3, 57, 82
5, 106920, Note_on_c, 3, 64, 78
5, 106920, Note_on_c, 3, 54, 72
5, 107085, Note_off_c, 3, 54, 72
5, 107095, Note_off_c, 3, 57, 82
5, 107095, Note_off_c, 3, 64, 78
5, 107160, Note_on_c, 3, 64, 63
5, 107160, Note_on_c, 3, 57, 78
5, 107160, Note_on_c, 3, 54, 66
5, 107340, Note_off_c, 3, 54, 66
5, 107345, Note_off_c, 3, 64, 63
5, 107345, Note_off_c, 3, 57, 78
5, 107400, Note_on_c, 3, 57, 82
5, 107400, Note_on_c, 3, 54, 76
5, 107400, Note_on_c, 3, 64, 70
5, 107580, Note_off_c, 3, 64, 70
5, 107585, Note_off_c, 3, 54, 76
5, 107590, Note_off_c, 3, 57, 82
5, 107640, Note_on_c, 3, 64, 70
5, 107640, Note_on_c, 3, 57, 78
5, 107640, Note_on_c, 3, 54, 68
5, 107825, Note_off_c, 3, 54, 68
5, 107835, Note_off_c, 3, 64, 70
5, 107835, Note_off_c, 3, 57, 78
5, 107880, Note_on_c, 3, 57, 80
5, 107880, Note_on_c, 3, 64, 68
5, 107880, Note_on_c, 3, 54, 78
5, 108075, Note_off_c, 3, 64, 68
5, 108075, Note_off_c, 3, 54, 78
5, 108080, Note_off_c, 3, 57, 80
5, 108120, Note_on_c, 3, 57, 64
5, 108120, Note_on_c, 3, 54, 64
5, 108120, Note_on_c, 3, 64, 57
5, 108195, Note_off_c, 3, 64, 57
5, 108200, Note_off_c, 3, 57, 64
5, 108200, Note_off_c, 3, 54, 64
5, 108240, Note_on_c, 3, 57, 80
5, 108240, Note_on_c, 3, 64, 66
5, 108240, Note_on_c, 3, 54, 68
5, 108365, Note_off_c, 3, 54, 68
5, 108380, Note_off_c, 3, 64, 66
5, 108385, Note_off_c, 3, 57, 80
5, 108480, Note_on_c, 3, 59, 82
5, 108480, Note_on_c, 3, 52, 78
5, 108480, Note_on_c, 3, 64, 64
5, 108480, Note_on_c, 3, 56, 74
5, 108555, Note_off_c, 3, 56, 74
5, 108560, Note_off_c, 3, 64, 64
5, 108565, Note_off_c, 3, 52, 78
5, 108570, Note_off_c, 3, 59, 82
5, 108600, Note_on_c, 3, 64, 68
5, 108600, Note_on_c, 3, 59, 80
5, 108600, Note_on_c, 3, 52, 68
5, 108600, Note_on_c, 3, 56, 64
5, 108775, Note_off_c, 3, 56, 64
5, 108780, Note_off_c, 3, 52, 68
5, 108785, Note_off_c, 3, 59, 80
5, 108790, Note_off_c, 3, 64, 68
5, 108840, Note_on_c, 3, 64, 74
5, 108840, Note_on_c, 3, 59, 85
5, 108840, Note_on_c, 3, 56, 66
5, 108840, Note_on_c, 3, 52, 80
5, 109005, Note_off_c, 3, 56, 66
5, 109005, Note_off_c, 3, 52, 80
5, 109010, Note_off_c, 3, 59, 85
5, 109015, Note_off_c, 3, 64, 74
5, 109080, Note_on_c, 3, 64, 68
5, 109080, Note_on_c, 3, 59, 85
5, 109080, Note_on_c, 3, 56, 66
5, 109080, Note_on_c, 3, 52, 80
5, 109240, Note_off_c, 3, 56, 66
5, 109240, Note_off_c, 3, 52, 80
5, 109245, Note_off_c, 3, 64, 68
5, 109245, Note_off_c, 3, 59, 85
5, 109320, Note_on_c, 3, 52, 78
5, 109320, Note_on_c, 3, 64, 72
5, 109320, Note_on_c, 3, 59, 80
5, 109320, Note_on_c, 3, 56, 63
5, 109485, Note_off_c, 3, 56, 63
5, 109490, Note_off_c, 3, 64, 72
5, 109490, Note_off_c, 3, 59, 80
5, 109495, Note_off_c, 3, 52, 78
5, 109560, Note_on_c, 3, 56, 74
5, 109560, Note_on_c, 3, 64, 74
5, 109560, Note_on_c, 3, 59, 80
5, 109560, Note_on_c, 3, 52, 78
5, 109740, Note_off_c, 3, 56, 74
5, 109740, Note_off_c, 3, 64, 74
5, 109740, Note_off_c, 3, 59, 80
5, 109740, Note_off_c, 3, 52, 78
5, 109800, Note_on_c, 3, 64, 72
5, 109800, Note_on_c, 3, 59, 85
5, 109800, Note_on_c, 3, 56, 80
5, 109800, Note_on_c, 3, 52, 85
5, 109980, Note_off_c, 3, 56, 80
5, 109980, Note_off_c, 3, 52, 85
5, 109985, Note_off_c, 3, 64, 72
5, 109985, Note_off_c, 3, 59, 85
5, 110040, Note_on_c, 3, 52, 64
5, 110040, Note_on_c, 3, 59, 68
5, 110040, Note_on_c, 3, 56, 64
5, 110040, Note_on_c, 3, 64, 59
5, 110115, Note_off_c, 3, 56, 64
5, 110115, Note_off_c, 3, 64, 59
5, 110120, Note_off_c, 3, 59, 68
5, 110125, Note_off_c, 3, 52, 64
5, 110160, Note_on_c, 3, 64, 68
5, 110160, Note_on_c, 3, 52, 70
5, 110160, Note_on_c, 3, 56, 66
5, 110160, Note_on_c, 3, 59, 78
5, 110330, Note_off_c, 3, 56, 66
5, 110330, Note_off_c, 3, 59, 78
5, 110335, Note_off_c, 3, 64, 68
5, 110335, Note_off_c, 3, 52, 70
5, 110400, Note_on_c, 3, 55, 91
5, 110400, Note_on_c, 3, 60, 93
5, 110400, Note_on_c, 3, 64, 85
5, 110560, Note_off_c, 3, 64, 85
5, 110570, Note_off_c, 3, 60, 93
5, 110575, Note_off_c, 3, 55, 91
5, 110640, Note_on_c, 3, 55, 63
5, 110640, Note_on_c, 3, 60, 74
5, 110640, Note_on_c, 3, 64, 70
5, 110715, Note_off_c, 3, 64, 70
5, 110725, Note_off_c, 3, 55, 63
5, 110725, Note_off_c, 3, 60, 74
5, 110760, Note_on_c, 3, 60, 62
5, 110760, Note_on_c, 3, 55, 59
5, 110760, Note_on_c, 3, 64, 68
5, 110835, Note_off_c, 3, 64, 68
5, 110840, Note_off_c, 3, 55, 59
5, 110845, Note_off_c, 3, 60, 62
5, 110880, Note_on_c, 3, 60, 85
5, 110880, Note_on_c, 3, 64, 89
5, 110880, Note_on_c, 3, 55, 85
5, 111055, Note_off_c, 3, 64, 89
5, 111055, Note_off_c, 3, 55, 85
5, 111060, Note_off_c, 3, 60, 85
5, 111120, Note_on_c, 3, 60, 82
5, 111120, Note_on_c, 3, 55, 76
5, 111120, Note_on_c, 3, 64, 70
5, 111200, Note_off_c, 3, 64, 70
5, 111205, Note_off_c, 3, 60, 82
5, 111205, Note_off_c, 3, 55, 76
5, 111240, Note_on_c, 3, 60, 87
5, 111240, Note_on_c, 3, 55, 82
5, 111240, Note_on_c, 3, 64, 82
5, 111455, Note_off_c, 3, 64, 82
5, 111460, Note_off_c, 3, 60, 87
5, 111460, Note_off_c, 3, 55, 82
5, 111480, Note_on_c, 3, 55, 74
5, 111480, Note_on_c, 3, 60, 85
5, 111480, Note_on_c, 3, 64, 89
5, 111555, Note_off_c, 3, 64, 89
5, 111560, Note_off_c, 3, 60, 85
5, 111565, Note_off_c, 3, 55, 74
5, 111600, Note_on_c, 3, 60, 87
5, 111600, Note_on_c, 3, 55, 80
5, 111600, Note_on_c, 3, 64, 85
5, 111780, Note_off_c, 3, 55, 80
5, 111780, Note_off_c, 3, 64, 85
5, 111785, Note_off_c, 3, 60, 87
5, 111840, Note_on_c, 3, 55, 78
5, 111840, Note_on_c, 3, 60, 82
5, 111840, Note_on_c, 3, 64, 82
5, 112010, Note_off_c, 3, 64, 82
5, 112025, Note_off_c, 3, 55, 78
5, 112025, Note_off_c, 3, 60, 82
5, 112080, Note_on_c, 3, 55, 66
5, 112080, Note_on_c, 3, 60, 82
5, 112080, Note_on_c, 3, 64, 78
5, 112140, Note_off_c, 3, 64, 78
5, 112150, Note_off_c, 3, 60, 82
5, 112155, Note_off_c, 3, 55, 66
5, 112200, Note_on_c, 3, 64, 66
5, 112200, Note_on_c, 3, 60, 62
5, 112200, Note_on_c, 3, 55, 57
5, 112255, Note_off_c, 3, 55, 57
5, 112260, Note_off_c, 3, 60, 62
5, 112265, Note_off_c, 3, 64, 66
5, 112320, Note_on_c, 3, 59, 80
5, 112320, Note_on_c, 3, 64, 55
5, 112320, Note_on_c, 3, 56, 82
5, 112495, Note_off_c, 3, 56, 82
5, 112505, Note_off_c, 3, 64, 55
5, 112510, Note_off_c, 3, 59, 80
5, 112560, Note_on_c, 3, 59, 89
5, 112560, Note_on_c, 3, 64, 82
5, 112560, Note_on_c, 3, 56, 76
5, 112625, Note_off_c, 3, 56, 76
5, 112630, Note_off_c, 3, 64, 82
5, 112645, Note_off_c, 3, 59, 89
5, 112680, Note_on_c, 3, 59, 80
5, 112680, Note_on_c, 3, 56, 74
5, 112680, Note_on_c, 3, 64, 80
5, 112750, Note_off_c, 3, 64, 80
5, 112760, Note_off_c, 3, 56, 74
5, 112765, Note_off_c, 3, 59, 80
5, 112800, Note_on_c, 3, 59, 82
5, 112800, Note_on_c, 3, 56, 76
5, 112800, Note_on_c, 3, 64, 82
5, 112980, Note_off_c, 3, 64, 82
5, 112985, Note_off_c, 3, 56, 76
5, 112995, Note_off_c, 3, 59, 82
5, 113040, Note_on_c, 3, 59, 70
5, 113040, Note_on_c, 3, 56, 66
5, 113040, Note_on_c, 3, 64, 82
5, 113105, Note_off_c, 3, 64, 82
5, 113110, Note_off_c, 3, 56, 66
5, 113120, Note_off_c, 3, 59, 70
5, 113160, Note_on_c, 3, 59, 89
5, 113160, Note_on_c, 3, 64, 80
5, 113160, Note_on_c, 3, 56, 78
5, 113345, Note_off_c, 3, 64, 80
5, 113345, Note_off_c, 3, 56, 78
5, 113365, Note_off_c, 3, 59, 89
5, 113400, Note_on_c, 3, 59, 80
5, 113400, Note_on_c, 3, 56, 70
5, 113400, Note_on_c, 3, 64, 82
5, 113465, Note_off_c, 3, 64, 82
5, 113475, Note_off_c, 3, 56, 70
5, 113480, Note_off_c, 3, 59, 80
5, 113520, Note_on_c, 3, 59, 78
5, 113520, Note_on_c, 3, 56, 66
5, 113520, Note_on_c, 3, 64, 85
5, 113710, Note_off_c, 3, 64, 85
5, 113715, Note_off_c, 3, 56, 66
5, 113725, Note_off_c, 3, 59, 78
5, 113760, Note_on_c, 3, 59, 80
5, 113760, Note_on_c, 3, 64, 85
5, 113760, Note_on_c, 3, 56, 70
5, 113945, Note_off_c, 3, 56, 70
5, 113950, Note_off_c, 3, 64, 85
5, 113960, Note_off_c, 3, 59, 80
5, 114000, Note_on_c, 3, 59, 63
5, 114000, Note_on_c, 3, 56, 68
5, 114000, Note_on_c, 3, 64, 64
5, 114065, Note_off_c, 3, 64, 64
5, 114075, Note_off_c, 3, 59, 63
5, 114075, Note_off_c, 3, 56, 68
5, 114120, Note_on_c, 3, 59, 60
5, 114120, Note_on_c, 3, 56, 62
5, 114120, Note_on_c, 3, 64, 64
5, 114185, Note_off_c, 3, 56, 62
5, 114185, Note_off_c, 3, 64, 64
5, 114190, Note_off_c, 3, 59, 60
5, 114240, Note_on_c, 3, 60, 89
5, 114240, Note_on_c, 3, 65, 87
5, 114240, Note_on_c, 3, 57, 82
5, 114415, Note_off_c, 3, 57, 82
5, 114420, Note_off_c, 3, 65, 87
5, 114425, Note_off_c, 3, 60, 89
5, 114480, Note_on_c, 3, 57, 57
5, 114480, Note_on_c, 3, 60, 61
5, 114480, Note_on_c, 3, 65, 64
5, 114550, Note_off_c, 3, 65, 64
5, 114565, Note_off_c, 3, 57, 57
5, 114565, Note_off_c, 3, 60, 61
5, 114600, Note_on_c, 3, 57, 55
5, 114600, Note_on_c, 3, 60, 63
5, 114600, Note_on_c, 3, 65, 63
5, 114675, Note_off_c, 3, 65, 63
5, 114685, Note_off_c, 3, 57, 55
5, 114685, Note_off_c, 3, 60, 63
5, 114720, Note_on_c, 3, 57, 64
5, 114720, Note_on_c, 3, 65, 82
5, 114720, Note_on_c, 3, 60, 80
5, 114910, Note_off_c, 3, 57, 64
5, 114910, Note_off_c, 3, 65, 82
5, 114910, Note_off_c, 3, 60, 80
5, 114960, Note_on_c, 3, 65, 70
5, 114960, Note_on_c, 3, 60, 64
5, 114960, Note_on_c, 3, 57, 57
5, 115045, Note_off_c, 3, 65, 70
5, 115045, Note_off_c, 3, 60, 64
5, 115045, Note_off_c, 3, 57, 57
5, 115080, Note_on_c, 3, 60, 89
5, 115080, Note_on_c, 3, 57, 82
5, 115080, Note_on_c, 3, 65, 87
5, 115275, Note_off_c, 3, 65, 87
5, 115280, Note_off_c, 3, 60, 89
5, 115280, Note_off_c, 3, 57, 82
5, 115320, Note_on_c, 3, 60, 63
5, 115320, Note_on_c, 3, 57, 60
5, 115320, Note_on_c, 3, 65, 70
5, 115400, Note_off_c, 3, 65, 70
5, 115405, Note_off_c, 3, 60, 63
5, 115405, Note_off_c, 3, 57, 60
5, 115440, Note_on_c, 3, 57, 80
5, 115440, Note_on_c, 3, 60, 87
5, 115440, Note_on_c, 3, 65, 87
5, 115620, Note_off_c, 3, 65, 87
5, 115625, Note_off_c, 3, 60, 87
5, 115630, Note_off_c, 3, 57, 80
5, 115680, Note_on_c, 3, 57, 66
5, 115680, Note_on_c, 3, 65, 85
5, 115680, Note_on_c, 3, 60, 85
5, 115860, Note_off_c, 3, 65, 85
5, 115860, Note_off_c, 3, 60, 85
5, 115865, Note_off_c, 3, 57, 66
5, 115920, Note_on_c, 3, 60, 78
5, 115920, Note_on_c, 3, 65, 78
5, 115920, Note_on_c, 3, 57, 68
5, 116000, Note_off_c, 3, 65, 78
5, 116000, Note_off_c, 3, 57, 68
5, 116005, Note_off_c, 3, 60, 78
5, 116040, Note_on_c, 3, 57, 64
5, 116040, Note_on_c, 3, 65, 85
5, 116040, Note_on_c, 3, 60, 82
5, 116135, Note_off_c, 3, 60, 82
5, 116140, Note_off_c, 3, 57, 64
5, 116140, Note_off_c, 3, 65, 85
5, 116160, Note_on_c, 3, 60, 100
5, 116160, Note_on_c, 3, 56, 98
5, 116160, Note_on_c, 3, 53, 98
5, 116450, Note_off_c, 3, 53, 98
5, 116460, Note_off_c, 3, 60, 100
5, 116460, Note_off_c, 3, 56, 98
5, 116520, Note_on_c, 3, 60, 70
5, 116520, Note_on_c, 3, 56, 64
5, 116520, Note_on_c, 3, 53, 62
5, 116585, Note_off_c, 3, 53, 62
5, 116590, Note_off_c, 3, 56, 64
5, 116600, Note_off_c, 3, 60, 70
5, 116640, Note_on_c, 3, 56, 85
5, 116640, Note_on_c, 3, 60, 89
5, 116640, Note_on_c, 3, 53, 85
5, 116925, Note_off_c, 3, 53, 85
5, 116940, Note_off_c, 3, 56, 85
5, 116940, Note_off_c, 3, 60, 89
5, 117000, Note_on_c, 3, 60, 91
5, 117000, Note_on_c, 3, 55, 100
5, 117000, Note_on_c, 3, 52, 95
5, 117180, Note_off_c, 3, 55, 100
5, 117180, Note_off_c, 3, 52, 95
5, 117190, Note_off_c, 3, 60, 91
5, 117240, Note_on_c, 3, 60, 82
5, 117240, Note_on_c, 3, 55, 87
5, 117240, Note_on_c, 3, 52, 80
5, 117315, Note_off_c, 3, 52, 80
5, 117320, Note_off_c, 3, 55, 87
5, 117325, Note_off_c, 3, 60, 82
5, 117360, Note_on_c, 3, 60, 85
5, 117360, Note_on_c, 3, 52, 85
5, 117360, Note_on_c, 3, 55, 87
5, 117570, Note_off_c, 3, 60, 85
5, 117570, Note_off_c, 3, 52, 85
5, 117570, Note_off_c, 3, 55, 87
5, 117600, Note_on_c, 3, 60, 87
5, 117600, Note_on_c, 3, 55, 93
5, 117600, Note_on_c, 3, 52, 85
5, 117895, Note_off_c, 3, 55, 93
5, 117895, Note_off_c, 3, 52, 85
5, 117905, Note_off_c, 3, 60, 87
5, 117960, Note_on_c, 3, 60, 63
5, 117960, Note_on_c, 3, 55, 76
5, 117960, Note_on_c, 3, 52, 70
5, 118035, Note_off_c, 3, 52, 70
5, 118045, Note_off_c, 3, 55, 76
5, 118050, Note_off_c, 3, 60, 63
5, 118080, Note_on_c, 3, 53, 93
5, 118080, Note_on_c, 3, 60, 98
5, 118080, Note_on_c, 3, 57, 100
5, 118390, Note_off_c, 3, 53, 93
5, 118390, Note_off_c, 3, 60, 98
5, 118390, Note_off_c, 3, 57, 100
5, 118440, Note_on_c, 3, 57, 70
5, 118440, Note_on_c, 3, 60, 78
5, 118440, Note_on_c, 3, 53, 63
5, 118525, Note_off_c, 3, 53, 63
5, 118530, Note_off_c, 3, 57, 70
5, 118530, Note_off_c, 3, 60, 78
5, 118560, Note_on_c, 3, 57, 87
5, 118560, Note_on_c, 3, 60, 85
5, 118560, Note_on_c, 3, 53, 87
5, 118865, Note_off_c, 3, 53, 87
5, 118870, Note_off_c, 3, 57, 87
5, 118870, Note_off_c, 3, 60, 85
5, 118920, Note_on_c, 3, 57, 85
5, 118920, Note_on_c, 3, 60, 85
5, 118920, Note_on_c, 3, 53, 78
5, 119110, Note_off_c, 3, 53, 78
5, 119115, Note_off_c, 3, 57, 85
5, 119115, Note_off_c, 3, 60, 85
5, 119160, Note_on_c, 3, 57, 82
5, 119160, Note_on_c, 3, 53, 76
5, 119160, Note_on_c, 3, 60, 80
5, 119250, Note_off_c, 3, 57, 82
5, 119250, Note_off_c, 3, 53, 76
5, 119250, Note_off_c, 3, 60, 80
5, 119280, Note_on_c, 3, 60, 80
5, 119280, Note_on_c, 3, 57, 85
5, 119280, Note_on_c, 3, 53, 76
5, 119475, Note_off_c, 3, 53, 76
5, 119480, Note_off_c, 3, 60, 80
5, 119480, Note_off_c, 3, 57, 85
5, 119520, Note_on_c, 3, 57, 89
5, 119520, Note_on_c, 3, 53, 82
5, 119520, Note_on_c, 3, 60, 87
5, 119835, Note_off_c, 3, 57, 89
5, 119835, Note_off_c, 3, 53, 82
5, 119835, Note_off_c, 3, 60, 87
5, 119880, Note_on_c, 3, 53, 72
5, 119880, Note_on_c, 3, 60, 80
5, 119880, Note_on_c, 3, 57, 82
5, 119980, Note_off_c, 3, 53, 72
5, 119980, Note_off_c, 3, 60, 80
5, 119980, Note_off_c, 3, 57, 82
5, 120000, Note_on_c, 3, 60, 100
5, 120000, Note_on_c, 3, 56, 98
5, 120000, Note_on_c, 3, 53, 98
5, 120290, Note_off_c, 3, 53, 98
5, 120300, Note_off_c, 3, 60, 100
5, 120300, Note_off_c, 3, 56, 98
5, 120360, Note_on_c, 3, 60, 70
5, 120360, Note_on_c, 3, 56, 64
5, 120360, Note_on_c, 3, 53, 62
5, 120425, Note_off_c, 3, 53, 62
5, 120430, Note_off_c, 3, 56, 64
5, 120440, Note_off_c, 3, 60, 70
5, 120480, Note_on_c, 3, 60, 89
5, 120480, Note_on_c, 3, 56, 85
5, 120480, Note_on_c, 3, 53, 85
5, 120765, Note_off_c, 3, 53, 85
5, 120780, Note_off_c, 3, 60, 89
5, 120780, Note_off_c, 3, 56, 85
5, 120840, Note_on_c, 3, 60, 91
5, 120840, Note_on_c, 3, 52, 95
5, 120840, Note_on_c, 3, 55, 100
5, 121020, Note_off_c, 3, 52, 95
5, 121020, Note_off_c, 3, 55, 100
5, 121030, Note_off_c, 3, 60, 91
5, 121080, Note_on_c, 3, 60, 82
5, 121080, Note_on_c, 3, 55, 87
5, 121080, Note_on_c, 3, 52, 80
5, 121155, Note_off_c, 3, 52, 80
5, 121160, Note_off_c, 3, 55, 87
5, 121165, Note_off_c, 3, 60, 82
5, 121200, Note_on_c, 3, 55, 87
5, 121200, Note_on_c, 3, 52, 85
5, 121200, Note_on_c, 3, 60, 85
5, 121410, Note_off_c, 3, 55, 87
5, 121410, Note_off_c, 3, 52, 85
5, 121410, Note_off_c, 3, 60, 85
5, 121440, Note_on_c, 3, 60, 87
5, 121440, Note_on_c, 3, 55, 93
5, 121440, Note_on_c, 3, 52, 85
5, 121735, Note_off_c, 3, 55, 93
5, 121735, Note_off_c, 3, 52, 85
5, 121745, Note_off_c, 3, 60, 87
5, 121800, Note_on_c, 3, 60, 63
5, 121800, Note_on_c, 3, 55, 76
5, 121800, Note_on_c, 3, 52, 70
5, 121875, Note_off_c, 3, 52, 70
5, 121885, Note_off_c, 3, 55, 76
5, 121890, Note_off_c, 3, 60, 63
5, 121920, Note_on_c, 3, 60, 98
5, 121920, Note_on_c, 3, 57, 100
5, 121920, Note_on_c, 3, 53, 93
5, 122230, Note_off_c, 3, 60, 98
5, 122230, Note_off_c, 3, 57, 100
5, 122230, Note_off_c, 3, 53, 93
5, 122280, Note_on_c, 3, 57, 70
5, 122280, Note_on_c, 3, 60, 78
5, 122280, Note_on_c, 3, 53, 63
5, 122365, Note_off_c, 3, 53, 63
5, 122370, Note_off_c, 3, 57, 70
5, 122370, Note_off_c, 3, 60, 78
5, 122400, Note_on_c, 3, 60, 85
5, 122400, Note_on_c, 3, 57, 87
5, 122400, Note_on_c, 3, 53, 87
5, 122705, Note_off_c, 3, 53, 87
5, 122710, Note_off_c, 3, 60, 85
5, 122710, Note_off_c, 3, 57, 87
5, 122760, Note_on_c, 3, 57, 85
5, 122760, Note_on_c, 3, 60, 85
5, 122760, Note_on_c, 3, 53, 78
5, 122950, Note_off_c, 3, 53, 78
5, 122955, Note_off_c, 3, 57, 85
5, 122955, Note_off_c, 3, 60, 85
5, 123000, Note_on_c, 3, 57, 82
5, 123000, Note_on_c, 3, 53, 76
5, 123000, Note_on_c, 3, 60, 80
5, 123090, Note_off_c, 3, 57, 82
5, 123090, Note_off_c, 3, 53, 76
5, 123090, Note_off_c, 3, 60, 80
5, 123120, Note_on_c, 3, 60, 80
5, 123120, Note_on_c, 3, 57, 85
5, 123120, Note_on_c, 3, 53, 76
5, 123315, Note_off_c, 3, 53, 76
5, 123320, Note_off_c, 3, 60, 80
5, 123320, Note_off_c, 3, 57, 85
5, 123360, Note_on_c, 3, 57, 89
5, 123360, Note_on_c, 3, 60, 87
5, 123360, Note_on_c, 3, 53, 82
5, 123675, Note_off_c, 3, 57, 89
5, 123675, Note_off_c, 3, 60, 87
5, 123675, Note_off_c, 3, 53, 82
5, 123720, Note_on_c, 3, 57, 82
5, 123720, Note_on_c, 3, 53, 72
5, 123720, Note_on_c, 3, 60, 80
5, 123820, Note_off_c, 3, 57, 82
5, 123820, Note_off_c, 3, 53, 72
5, 123820, Note_off_c, 3, 60, 80
5, 123840, Note_on_c, 3, 59, 87
5, 123840, Note_on_c, 3, 55, 87
5, 123840, Note_on_c, 3, 62, 87
5, 124000, Note_off_c, 3, 62, 87
5, 124005, Note_off_c, 3, 55, 87
5, 124010, Note_off_c, 3, 59, 87
5, 124080, Note_on_c, 3, 59, 87
5, 124080, Note_on_c, 3, 55, 87
5, 124080, Note_on_c, 3, 62, 87
5, 124240, Note_off_c, 3, 62, 87
5, 124245, Note_off_c, 3, 59, 87
5, 124245, Note_off_c, 3, 55, 87
5, 124320, Note_on_c, 3, 62, 87
5, 124320, Note_on_c, 3, 59, 87
5, 124320, Note_on_c, 3, 55, 87
5, 124620, Note_off_c, 3, 55, 87
5, 124630, Note_off_c, 3, 62, 87
5, 124630, Note_off_c, 3, 59, 87
5, 124680, Note_on_c, 3, 59, 87
5, 124680, Note_on_c, 3, 62, 87
5, 124680, Note_on_c, 3, 55, 87
5, 124740, Note_off_c, 3, 55, 87
5, 124745, Note_off_c, 3, 62, 87
5, 124750, Note_off_c, 3, 59, 87
5, 124800, Note_on_c, 3, 56, 87
5, 124800, Note_on_c, 3, 59, 87
5, 124800, Note_on_c, 3, 62, 87
5, 124880, Note_off_c, 3, 59, 87
5, 124880, Note_off_c, 3, 62, 87
5, 124885, Note_off_c, 3, 56, 87
5, 124920, Note_on_c, 3, 59, 87
5, 124920, Note_on_c, 3, 56, 87
5, 124920, Note_on_c, 3, 62, 87
5, 125105, Note_off_c, 3, 56, 87
5, 125105, Note_off_c, 3, 62, 87
5, 125110, Note_off_c, 3, 59, 87
5, 125160, Note_on_c, 3, 62, 87
5, 125160, Note_on_c, 3, 56, 87
5, 125160, Note_on_c, 3, 59, 87
5, 125250, Note_off_c, 3, 62, 87
5, 125250, Note_off_c, 3, 56, 87
5, 125250, Note_off_c, 3, 59, 87
5, 125280, Note_on_c, 3, 56, 87
5, 125280, Note_on_c, 3, 59, 87
5, 125280, Note_on_c, 3, 62, 87
5, 125605, Note_off_c, 3, 59, 87
5, 125605, Note_off_c, 3, 62, 87
5, 125610, Note_off_c, 3, 56, 87
5, 125640, Note_on_c, 3, 62, 87
5, 125640, Note_on_c, 3, 56, 87
5, 125640, Note_on_c, 3, 59, 87
5, 125695, Note_off_c, 3, 59, 87
5, 125700, Note_off_c, 3, 56, 87
5, 125725, Note_off_c, 3, 62, 87
5, 125760, Note_on_c, 3, 64, 87
5, 125760, Note_on_c, 3, 57, 87
5, 125760, Note_on_c, 3, 60, 87
5, 125970, Note_off_c, 3, 60, 87
5, 125975, Note_off_c, 3, 57, 87
5, 125980, Note_off_c, 3, 64, 87
5, 126000, Note_on_c, 3, 57, 87
5, 126000, Note_on_c, 3, 60, 87
5, 126000, Note_on_c, 3, 64, 87
5, 126195, Note_off_c, 3, 64, 87
5, 126200, Note_off_c, 3, 57, 87
5, 126200, Note_off_c, 3, 60, 87
5, 126240, Note_on_c, 3, 60, 87
5, 126240, Note_on_c, 3, 57, 87
5, 126240, Note_on_c, 3, 64, 87
5, 126555, Note_off_c, 3, 64, 87
5, 126565, Note_off_c, 3, 60, 87
5, 126565, Note_off_c, 3, 57, 87
5, 126600, Note_on_c, 3, 57, 87
5, 126600, Note_on_c, 3, 60, 87
5, 126600, Note_on_c, 3, 64, 87
5, 126680, Note_off_c, 3, 64, 87
5, 126685, Note_off_c, 3, 60, 87
5, 126690, Note_off_c, 3, 57, 87
5, 126720, Note_on_c, 3, 60, 87
5, 126720, Note_on_c, 3, 64, 87
5, 126720, Note_on_c, 3, 55, 87
5, 126795, Note_off_c, 3, 55, 87
5, 126805, Note_off_c, 3, 64, 87
5, 126810, Note_off_c, 3, 60, 87
5, 126840, Note_on_c, 3, 55, 87
5, 126840, Note_on_c, 3, 60, 87
5, 126840, Note_on_c, 3, 64, 87
5, 127035, Note_off_c, 3, 64, 87
5, 127040, Note_off_c, 3, 55, 87
5, 127040, Note_off_c, 3, 60, 87
5, 127080, Note_on_c, 3, 55, 87
5, 127080, Note_on_c, 3, 60, 87
5, 127080, Note_on_c, 3, 64, 87
5, 127130, Note_off_c, 3, 64, 87
5, 127155, Note_off_c, 3, 60, 87
5, 127165, Note_off_c, 3, 55, 87
5, 127200, Note_on_c, 3, 60, 87
5, 127200, Note_on_c, 3, 55, 87
5, 127200, Note_on_c, 3, 64, 87
5, 127510, Note_off_c, 3, 55, 87
5, 127510, Note_off_c, 3, 64, 87
5, 127515, Note_off_c, 3, 60, 87
5, 127560, Note_on_c, 3, 55, 87
5, 127560, Note_on_c, 3, 60, 87
5, 127560, Note_on_c, 3, 64, 87
5, 127605, Note_off_c, 3, 64, 87
5, 127615, Note_off_c, 3, 60, 87
5, 127635, Note_off_c, 3, 55, 87
5, 127680, Note_on_c, 3, 57, 87
5, 127680, Note_on_c, 3, 62, 87
5, 127680, Note_on_c, 3, 54, 87
5, 127830, Note_off_c, 3, 54, 87
5, 127875, Note_off_c, 3, 57, 87
5, 127875, Note_off_c, 3, 62, 87
5, 127920, Note_on_c, 3, 57, 87
5, 127920, Note_on_c, 3, 54, 87
5, 127920, Note_on_c, 3, 62, 87
5, 128080, Note_off_c, 3, 62, 87
5, 128095, Note_off_c, 3, 54, 87
5, 128100, Note_off_c, 3, 57, 87
5, 128160, Note_on_c, 3, 57, 87
5, 128160, Note_on_c, 3, 54, 87
5, 128160, Note_on_c, 3, 62, 87
5, 128450, Note_off_c, 3, 62, 87
5, 128465, Note_off_c, 3, 57, 87
5, 128465, Note_off_c, 3, 54, 87
5, 128520, Note_on_c, 3, 57, 87
5, 128520, Note_on_c, 3, 54, 87
5, 128520, Note_on_c, 3, 62, 87
5, 128565, Note_off_c, 3, 62, 87
5, 128590, Note_off_c, 3, 57, 87
5, 128590, Note_off_c, 3, 54, 87
5, 128640, Note_on_c, 3, 57, 87
5, 128640, Note_on_c, 3, 54, 87
5, 128640, Note_on_c, 3, 62, 87
5, 128700, Note_off_c, 3, 62, 87
5, 128715, Note_off_c, 3, 54, 87
5, 128725, Note_off_c, 3, 57, 87
5, 128760, Note_on_c, 3, 57, 87
5, 128760, Note_on_c, 3, 54, 87
5, 128760, Note_on_c, 3, 62, 87
5, 128945, Note_off_c, 3, 62, 87
5, 128955, Note_off_c, 3, 54, 87
5, 128965, Note_off_c, 3, 57, 87
5, 129000, Note_on_c, 3, 57, 87
5, 129000, Note_on_c, 3, 54, 87
5, 129000, Note_on_c, 3, 62, 87
5, 129055, Note_off_c, 3, 62, 87
5, 129080, Note_off_c, 3, 54, 87
5, 129085, Note_off_c, 3, 57, 87
5, 129120, Note_on_c, 3, 57, 87
5, 129120, Note_on_c, 3, 54, 87
5, 129120, Note_on_c, 3, 62, 87
5, 129435, Note_off_c, 3, 62, 87
5, 129440, Note_off_c, 3, 54, 87
5, 129455, Note_off_c, 3, 57, 87
5, 129480, Note_on_c, 3, 57, 87
5, 129480, Note_on_c, 3, 62, 87
5, 129480, Note_on_c, 3, 54, 87
5, 129545, Note_off_c, 3, 54, 87
5, 129550, Note_off_c, 3, 62, 87
5, 129555, Note_off_c, 3, 57, 87
5, 129600, Note_on_c, 3, 62, 87
5, 129600, Note_on_c, 3, 55, 87
5, 129600, Note_on_c, 3, 52, 87
5, 129780, Note_off_c, 3, 52, 87
5, 129790, Note_off_c, 3, 55, 87
5, 129795, Note_off_c, 3, 62, 87
5, 129840, Note_on_c, 3, 55, 87
5, 129840, Note_on_c, 3, 62, 87
5, 129840, Note_on_c, 3, 52, 87
5, 130020, Note_off_c, 3, 52, 87
5, 130025, Note_off_c, 3, 55, 87
5, 130025, Note_off_c, 3, 62, 87
5, 130080, Note_on_c, 3, 62, 87
5, 130080, Note_on_c, 3, 55, 87
5, 130080, Note_on_c, 3, 52, 87
5, 130400, Note_off_c, 3, 52, 87
5, 130415, Note_off_c, 3, 62, 87
5, 130415, Note_off_c, 3, 55, 87
5, 130440, Note_on_c, 3, 52, 87
5, 130440, Note_on_c, 3, 55, 87
5, 130440, Note_on_c, 3, 62, 87
5, 130505, Note_off_c, 3, 62, 87
5, 130510, Note_off_c, 3, 52, 87
5, 130510, Note_off_c, 3, 55, 87
5, 130560, Note_on_c, 3, 62, 87
5, 130560, Note_on_c, 3, 55, 87
5, 130560, Note_on_c, 3, 52, 87
5, 130640, Note_off_c, 3, 52, 87
5, 130645, Note_off_c, 3, 62, 87
5, 130645, Note_off_c, 3, 55, 87
5, 130680, Note_on_c, 3, 55, 87
5, 130680, Note_on_c, 3, 52, 87
5, 130680, Note_on_c, 3, 62, 87
5, 130865, Note_off_c, 3, 62, 87
5, 130875, Note_off_c, 3, 52, 87
5, 130885, Note_off_c, 3, 55, 87
5, 130920, Note_on_c, 3, 55, 87
5, 130920, Note_on_c, 3, 52, 87
5, 130920, Note_on_c, 3, 62, 87
5, 130980, Note_off_c, 3, 62, 87
5, 130985, Note_off_c, 3, 52, 87
5, 130990, Note_off_c, 3, 55, 87
5, 131040, Note_on_c, 3, 62, 87
5, 131040, Note_on_c, 3, 55, 87
5, 131040, Note_on_c, 3, 52, 87
5, 131335, Note_off_c, 3, 52, 87
5, 131350, Note_off_c, 3, 55, 87
5, 131360, Note_off_c, 3, 62, 87
5, 131400, Note_on_c, 3, 62, 87
5, 131400, Note_on_c, 3, 55, 87
5, 131400, Note_on_c, 3, 52, 87
5, 131470, Note_off_c, 3, 52, 87
5, 131485, Note_off_c, 3, 55, 87
5, 131490, Note_off_c, 3, 62, 87
5, 131520, Note_on_c, 3, 62, 87
5, 131520, Note_on_c, 3, 55, 87
5, 131520, Note_on_c, 3, 59, 87
5, 131520, Note_on_c, 3, 50, 87
5, 131710, Note_off_c, 3, 50, 87
5, 131720, Note_off_c, 3, 59, 87
5, 131725, Note_off_c, 3, 55, 87
5, 131730, Note_off_c, 3, 62, 87
5, 131760, Note_on_c, 3, 59, 87
5, 131760, Note_on_c, 3, 62, 87
5, 131760, Note_on_c, 3, 55, 87
5, 131760, Note_on_c, 3, 50, 87
5, 131950, Note_off_c, 3, 50, 87
5, 131955, Note_off_c, 3, 59, 87
5, 131955, Note_off_c, 3, 62, 87
5, 131955, Note_off_c, 3, 55, 87
5, 132000, Note_on_c, 3, 55, 87
5, 132000, Note_on_c, 3, 59, 87
5, 132000, Note_on_c, 3, 62, 87
5, 132000, Note_on_c, 3, 50, 87
5, 132310, Note_off_c, 3, 50, 87
5, 132315, Note_off_c, 3, 59, 87
5, 132315, Note_off_c, 3, 62, 87
5, 132320, Note_off_c, 3, 55, 87
5, 132360, Note_on_c, 3, 62, 87
5, 132360, Note_on_c, 3, 50, 87
5, 132360, Note_on_c, 3, 55, 87
5, 132360, Note_on_c, 3, 59, 87
5, 132430, Note_off_c, 3, 55, 87
5, 132430, Note_off_c, 3, 59, 87
5, 132435, Note_off_c, 3, 50, 87
5, 132440, Note_off_c, 3, 62, 87
5, 132480, Note_on_c, 3, 62, 87
5, 132480, Note_on_c, 3, 50, 87
5, 132480, Note_on_c, 3, 55, 87
5, 132480, Note_on_c, 3, 59, 87
5, 132555, Note_off_c, 3, 55, 87
5, 132555, Note_off_c, 3, 59, 87
5, 132560, Note_off_c, 3, 50, 87
5, 132570, Note_off_c, 3, 62, 87
5, 132600, Note_on_c, 3, 62, 87
5, 132600, Note_on_c, 3, 50, 87
5, 132600, Note_on_c, 3, 55, 87
5, 132600, Note_on_c, 3, 59, 87
5, 132775, Note_off_c, 3, 59, 87
5, 132780, Note_off_c, 3, 50, 87
5, 132780, Note_off_c, 3, 55, 87
5, 132795, Note_off_c, 3, 62, 87
5, 132840, Note_on_c, 3, 50, 87
5, 132840, Note_on_c, 3, 62, 87
5, 132840, Note_on_c, 3, 59, 87
5, 132840, Note_on_c, 3, 55, 87
5, 132915, Note_off_c, 3, 59, 87
5, 132915, Note_off_c, 3, 55, 87
5, 132920, Note_off_c, 3, 50, 87
5, 132920, Note_off_c, 3, 62, 87
5, 132960, Note_on_c, 3, 55, 87
5, 132960, Note_on_c, 3, 59, 87
5, 132960, Note_on_c, 3, 62, 87
5, 132960, Note_on_c, 3, 50, 87
5, 133275, Note_off_c, 3, 62, 87
5, 133275, Note_off_c, 3, 50, 87
5, 133280, Note_off_c, 3, 59, 87
5, 133285, Note_off_c, 3, 55, 87
5, 133320, Note_on_c, 3, 62, 87
5, 133320, Note_on_c, 3, 59, 87
5, 133320, Note_on_c, 3, 55, 87
5, 133320, Note_on_c, 3, 50, 87
5, 133410, Note_off_c, 3, 59, 87
5, 133410, Note_off_c, 3, 55, 87
5, 133410, Note_off_c, 3, 50, 87
5, 133415, Note_off_c, 3, 62, 87
5, 133440, Note_on_c, 3, 64, 82
5, 133440, Note_on_c, 3, 60, 89
5, 133440, Note_on_c, 3, 57, 80
5, 133440, Note_on_c, 3, 53, 82
5, 133720, Note_off_c, 3, 53, 82
5, 133725, Note_off_c, 3, 60, 89
5, 133725, Note_off_c, 3, 57, 80
5, 133730, Note_off_c, 3, 64, 82
5, 133800, Note_on_c, 3, 60, 76
5, 133800, Note_on_c, 3, 64, 64
5, 133800, Note_on_c, 3, 57, 62
5, 133800, Note_on_c, 3, 53, 66
5, 133875, Note_off_c, 3, 53, 66
5, 133880, Note_off_c, 3, 64, 64
5, 133880, Note_off_c, 3, 57, 62
5, 133890, Note_off_c, 3, 60, 76
5, 133920, Note_on_c, 3, 64, 78
5, 133920, Note_on_c, 3, 57, 78
5, 133920, Note_on_c, 3, 60, 82
5, 133920, Note_on_c, 3, 53, 80
5, 134200, Note_off_c, 3, 53, 80
5, 134210, Note_off_c, 3, 57, 78
5, 134210, Note_off_c, 3, 60, 82
5, 134215, Note_off_c, 3, 64, 78
5, 134280, Note_on_c, 3, 60, 78
5, 134280, Note_on_c, 3, 53, 78
5, 134280, Note_on_c, 3, 64, 74
5, 134280, Note_on_c, 3, 57, 78
5, 134480, Note_off_c, 3, 53, 78
5, 134480, Note_off_c, 3, 64, 74
5, 134480, Note_off_c, 3, 57, 78
5, 134485, Note_off_c, 3, 60, 78
5, 134520, Note_on_c, 3, 64, 66
5, 134520, Note_on_c, 3, 60, 76
5, 134520, Note_on_c, 3, 57, 64
5, 134520, Note_on_c, 3, 53, 68
5, 134605, Note_off_c, 3, 57, 64
5, 134605, Note_off_c, 3, 53, 68
5, 134610, Note_off_c, 3, 64, 66
5, 134610, Note_off_c, 3, 60, 76
5, 134640, Note_on_c, 3, 60, 80
5, 134640, Note_on_c, 3, 64, 80
5, 134640, Note_on_c, 3, 57, 74
5, 134640, Note_on_c, 3, 53, 68
5, 134850, Note_off_c, 3, 57, 74
5, 134850, Note_off_c, 3, 53, 68
5, 134855, Note_off_c, 3, 60, 80
5, 134855, Note_off_c, 3, 64, 80
5, 134880, Note_on_c, 3, 60, 76
5, 134880, Note_on_c, 3, 53, 72
5, 134880, Note_on_c, 3, 64, 82
5, 134880, Note_on_c, 3, 57, 76
5, 135185, Note_off_c, 3, 57, 76
5, 135190, Note_off_c, 3, 60, 76
5, 135190, Note_off_c, 3, 53, 72
5, 135190, Note_off_c, 3, 64, 82
5, 135240, Note_on_c, 3, 64, 64
5, 135240, Note_on_c, 3, 57, 63
5, 135240, Note_on_c, 3, 60, 72
5, 135240, Note_on_c, 3, 53, 58
5, 135305, Note_off_c, 3, 53, 58
5, 135310, Note_off_c, 3, 57, 63
5, 135310, Note_off_c, 3, 60, 72
5, 135315, Note_off_c, 3, 64, 64
5, 135360, Note_on_c, 3, 59, 78
5, 135360, Note_on_c, 3, 52, 91
5, 135360, Note_on_c, 3, 62, 82
5, 135360, Note_on_c, 3, 55, 93
5, 135655, Note_off_c, 3, 55, 93
5, 135660, Note_off_c, 3, 59, 78
5, 135660, Note_off_c, 3, 52, 91
5, 135660, Note_off_c, 3, 62, 82
5, 135720, Note_on_c, 3, 62, 76
5, 135720, Note_on_c, 3, 59, 68
5, 135720, Note_on_c, 3, 55, 70
5, 135720, Note_on_c, 3, 52, 60
5, 135795, Note_off_c, 3, 55, 70
5, 135795, Note_off_c, 3, 52, 60
5, 135810, Note_off_c, 3, 59, 68
5, 135815, Note_off_c, 3, 62, 76
5, 135840, Note_on_c, 3, 59, 82
5, 135840, Note_on_c, 3, 55, 87
5, 135840, Note_on_c, 3, 62, 89
5, 135840, Note_on_c, 3, 52, 82
5, 136145, Note_off_c, 3, 55, 87
5, 136145, Note_off_c, 3, 62, 89
5, 136145, Note_off_c, 3, 52, 82
5, 136155, Note_off_c, 3, 59, 82
5, 136200, Note_on_c, 3, 59, 68
5, 136200, Note_on_c, 3, 52, 66
5, 136200, Note_on_c, 3, 62, 68
5, 136200, Note_on_c, 3, 55, 64
5, 136380, Note_off_c, 3, 55, 64
5, 136385, Note_off_c, 3, 62, 68
5, 136390, Note_off_c, 3, 59, 68
5, 136390, Note_off_c, 3, 52, 66
5, 136440, Note_on_c, 3, 62, 76
5, 136440, Note_on_c, 3, 59, 64
5, 136440, Note_on_c, 3, 52, 70
5, 136440, Note_on_c, 3, 55, 66
5, 136515, Note_off_c, 3, 55, 66
5, 136530, Note_off_c, 3, 62, 76
5, 136530, Note_off_c, 3, 59, 64
5, 136530, Note_off_c, 3, 52, 70
5, 136560, Note_on_c, 3, 52, 70
5, 136560, Note_on_c, 3, 59, 68
5, 136560, Note_on_c, 3, 62, 78
5, 136560, Note_on_c, 3, 55, 76
5, 136760, Note_off_c, 3, 55, 76
5, 136765, Note_off_c, 3, 62, 78
5, 136770, Note_off_c, 3, 59, 68
5, 136775, Note_off_c, 3, 52, 70
5, 136800, Note_on_c, 3, 59, 78
5, 136800, Note_on_c, 3, 52, 76
5, 136800, Note_on_c, 3, 55, 78
5, 136800, Note_on_c, 3, 62, 80
5, 137120, Note_off_c, 3, 52, 76
5, 137120, Note_off_c, 3, 55, 78
5, 137120, Note_off_c, 3, 62, 80
5, 137125, Note_off_c, 3, 59, 78
5, 137160, Note_on_c, 3, 62, 82
5, 137160, Note_on_c, 3, 59, 66
5, 137160, Note_on_c, 3, 55, 70
5, 137160, Note_on_c, 3, 52, 66
5, 137230, Note_off_c, 3, 52, 66
5, 137235, Note_off_c, 3, 59, 66
5, 137235, Note_off_c, 3, 55, 70
5, 137240, Note_off_c, 3, 62, 82
5, 137280, Note_on_c, 3, 64, 93
5, 137280, Note_on_c, 3, 57, 100
5, 137280, Note_on_c, 3, 53, 85
5, 137280, Note_on_c, 3, 60, 93
5, 137565, Note_off_c, 3, 57, 100
5, 137565, Note_off_c, 3, 53, 85
5, 137565, Note_off_c, 3, 60, 93
5, 137570, Note_off_c, 3, 64, 93
5, 137640, Note_on_c, 3, 64, 64
5, 137640, Note_on_c, 3, 60, 68
5, 137640, Note_on_c, 3, 57, 59
5, 137640, Note_on_c, 3, 53, 60
5, 137715, Note_off_c, 3, 53, 60
5, 137720, Note_off_c, 3, 57, 59
5, 137730, Note_off_c, 3, 60, 68
5, 137735, Note_off_c, 3, 64, 64
5, 137760, Note_on_c, 3, 60, 82
5, 137760, Note_on_c, 3, 57, 72
5, 137760, Note_on_c, 3, 64, 80
5, 137760, Note_on_c, 3, 53, 78
5, 138065, Note_off_c, 3, 53, 78
5, 138070, Note_off_c, 3, 64, 80
5, 138075, Note_off_c, 3, 60, 82
5, 138075, Note_off_c, 3, 57, 72
5, 138120, Note_on_c, 3, 60, 76
5, 138120, Note_on_c, 3, 57, 72
5, 138120, Note_on_c, 3, 64, 76
5, 138120, Note_on_c, 3, 53, 74
5, 138300, Note_off_c, 3, 53, 74
5, 138310, Note_off_c, 3, 64, 76
5, 138315, Note_off_c, 3, 60, 76
5, 138315, Note_off_c, 3, 57, 72
5, 138360, Note_on_c, 3, 57, 66
5, 138360, Note_on_c, 3, 60, 66
5, 138360, Note_on_c, 3, 64, 64
5, 138360, Note_on_c, 3, 53, 72
5, 138445, Note_off_c, 3, 64, 64
5, 138445, Note_off_c, 3, 53, 72
5, 138450, Note_off_c, 3, 57, 66
5, 138450, Note_off_c, 3, 60, 66
5, 138480, Note_on_c, 3, 57, 72
5, 138480, Note_on_c, 3, 60, 76
5, 138480, Note_on_c, 3, 64, 80
5, 138480, Note_on_c, 3, 53, 70
5, 138665, Note_off_c, 3, 53, 70
5, 138670, Note_off_c, 3, 64, 80
5, 138675, Note_off_c, 3, 57, 72
5, 138675, Note_off_c, 3, 60, 76
5, 138720, Note_on_c, 3, 57, 85
5, 138720, Note_on_c, 3, 60, 82
5, 138720, Note_on_c, 3, 64, 80
5, 138720, Note_on_c, 3, 53, 87
5, 139020, Note_off_c, 3, 64, 80
5, 139020, Note_off_c, 3, 53, 87
5, 139030, Note_off_c, 3, 57, 85
5, 139030, Note_off_c, 3, 60, 82
5, 139080, Note_on_c, 3, 64, 66
5, 139080, Note_on_c, 3, 60, 70
5, 139080, Note_on_c, 3, 57, 64
5, 139080, Note_on_c, 3, 53, 62
5, 139160, Note_off_c, 3, 53, 62
5, 139165, Note_off_c, 3, 64, 66
5, 139165, Note_off_c, 3, 60, 70
5, 139165, Note_off_c, 3, 57, 64
5, 139200, Note_on_c, 3, 62, 78
5, 139200, Note_on_c, 3, 59, 72
5, 139200, Note_on_c, 3, 55, 87
5, 139200, Note_on_c, 3, 52, 85
5, 139485, Note_off_c, 3, 55, 87
5, 139485, Note_off_c, 3, 52, 85
5, 139490, Note_off_c, 3, 59, 72
5, 139495, Note_off_c, 3, 62, 78
5, 139560, Note_on_c, 3, 62, 66
5, 139560, Note_on_c, 3, 59, 63
5, 139560, Note_on_c, 3, 52, 58
5, 139560, Note_on_c, 3, 55, 62
5, 139640, Note_off_c, 3, 55, 62
5, 139645, Note_off_c, 3, 52, 58
5, 139650, Note_off_c, 3, 62, 66
5, 139650, Note_off_c, 3, 59, 63
5, 139680, Note_on_c, 3, 55, 82
5, 139680, Note_on_c, 3, 59, 78
5, 139680, Note_on_c, 3, 52, 70
5, 139680, Note_on_c, 3, 62, 87
5, 139965, Note_off_c, 3, 62, 87
5, 139970, Note_off_c, 3, 52, 70
5, 139975, Note_off_c, 3, 55, 82
5, 139975, Note_off_c, 3, 59, 78
5, 140040, Note_on_c, 3, 55, 68
5, 140040, Note_on_c, 3, 59, 72
5, 140040, Note_on_c, 3, 52, 70
5, 140040, Note_on_c, 3, 62, 76
5, 140235, Note_off_c, 3, 62, 76
5, 140240, Note_off_c, 3, 52, 70
5, 140245, Note_off_c, 3, 55, 68
5, 140245, Note_off_c, 3, 59, 72
5, 140280, Note_on_c, 3, 59, 74
5, 140280, Note_on_c, 3, 62, 74
5, 140280, Note_on_c, 3, 55, 66
5, 140280, Note_on_c, 3, 52, 60
5, 140365, Note_off_c, 3, 62, 74
5, 140365, Note_off_c, 3, 55, 66
5, 140365, Note_off_c, 3, 52, 60
5, 140370, Note_off_c, 3, 59, 74
5, 140400, Note_on_c, 3, 59, 78
5, 140400, Note_on_c, 3, 62, 87
5, 140400, Note_on_c, 3, 52, 80
5, 140400, Note_on_c, 3, 55, 82
5, 140600, Note_off_c, 3, 62, 87
5, 140600, Note_off_c, 3, 52, 80
5, 140600, Note_off_c, 3, 55, 82
5, 140610, Note_off_c, 3, 59, 78
5, 140640, Note_on_c, 3, 59, 82
5, 140640, Note_on_c, 3, 55, 78
5, 140640, Note_on_c, 3, 52, 76
5, 140640, Note_on_c, 3, 62, 82
5, 140950, Note_off_c, 3, 52, 76
5, 140950, Note_off_c, 3, 62, 82
5, 140955, Note_off_c, 3, 59, 82
5, 140955, Note_off_c, 3, 55, 78
5, 141000, Note_on_c, 3, 55, 64
5, 141000, Note_on_c, 3, 59, 61
5, 141000, Note_on_c, 3, 52, 70
5, 141000, Note_on_c, 3, 62, 82
5, 141090, Note_off_c, 3, 62, 82
5, 141095, Note_off_c, 3, 55, 64
5, 141095, Note_off_c, 3, 59, 61
5, 141095, Note_off_c, 3, 52, 70
5, 141120, Note_on_c, 3, 58, 100
5, 141120, Note_on_c, 3, 62, 105
5, 141120, Note_on_c, 3, 53, 107
5, 141390, Note_off_c, 3, 53, 107
5, 141395, Note_off_c, 3, 62, 105
5, 141400, Note_off_c, 3, 58, 100
5, 141480, Note_on_c, 3, 58, 82
5, 141480, Note_on_c, 3, 62, 82
5, 141480, Note_on_c, 3, 53, 78
5, 141540, Note_off_c, 3, 53, 78
5, 141550, Note_off_c, 3, 58, 82
5, 141550, Note_off_c, 3, 62, 82
5, 141600, Note_on_c, 3, 62, 93
5, 141600, Note_on_c, 3, 58, 91
5, 141600, Note_on_c, 3, 53, 80
5, 141855, Note_off_c, 3, 53, 80
5, 141860, Note_off_c, 3, 62, 93
5, 141860, Note_off_c, 3, 58, 91
5, 141960, Note_on_c, 3, 52, 91
5, 141960, Note_on_c, 3, 60, 85
5, 141960, Note_on_c, 3, 57, 98
5, 142135, Note_off_c, 3, 57, 98
5, 142140, Note_off_c, 3, 52, 91
5, 142140, Note_off_c, 3, 60, 85
5, 142200, Note_on_c, 3, 57, 80
5, 142200, Note_on_c, 3, 60, 85
5, 142200, Note_on_c, 3, 52, 80
5, 142275, Note_off_c, 3, 52, 80
5, 142285, Note_off_c, 3, 57, 80
5, 142285, Note_off_c, 3, 60, 85
5, 142320, Note_on_c, 3, 57, 93
5, 142320, Note_on_c, 3, 60, 87
5, 142320, Note_on_c, 3, 52, 85
5, 142495, Note_off_c, 3, 52, 85
5, 142500, Note_off_c, 3, 60, 87
5, 142510, Note_off_c, 3, 57, 93
5, 142560, Note_on_c, 3, 52, 91
5, 142560, Note_on_c, 3, 60, 95
5, 142560, Note_on_c, 3, 57, 98
5, 142825, Note_off_c, 3, 57, 98
5, 142830, Note_off_c, 3, 52, 91
5, 142830, Note_off_c, 3, 60, 95
5, 142920, Note_on_c, 3, 59, 85
5, 142920, Note_on_c, 3, 55, 89
5, 142920, Note_on_c, 3, 50, 78
5, 143000, Note_off_c, 3, 55, 89
5, 143000, Note_off_c, 3, 50, 78
5, 143005, Note_off_c, 3, 59, 85
5, 143040, Note_on_c, 3, 59, 85
5, 143040, Note_on_c, 3, 55, 93
5, 143040, Note_on_c, 3, 50, 85
5, 143325, Note_off_c, 3, 50, 85
5, 143330, Note_off_c, 3, 59, 85
5, 143330, Note_off_c, 3, 55, 93
5, 143400, Note_on_c, 3, 59, 76
5, 143400, Note_on_c, 3, 55, 78
5, 143400, Note_on_c, 3, 50, 66
5, 143475, Note_off_c, 3, 50, 66
5, 143480, Note_off_c, 3, 59, 76
5, 143480, Note_off_c, 3, 55, 78
5, 143520, Note_on_c, 3, 59, 80
5, 143520, Note_on_c, 3, 50, 85
5, 143520, Note_on_c, 3, 55, 87
5, 143760, Note_off_c, 3, 55, 87
5, 143765, Note_off_c, 3, 50, 85
5, 143790, Note_off_c, 3, 59, 80
5, 143880, Note_on_c, 3, 48, 66
5, 143880, Note_on_c, 3, 57, 80
5, 143880, Note_on_c, 3, 53, 95
5, 144085, Note_off_c, 3, 53, 95
5, 144090, Note_off_c, 3, 57, 80
5, 144095, Note_off_c, 3, 48, 66
5, 144120, Note_on_c, 3, 48, 55
5, 144120, Note_on_c, 3, 57, 57
5, 144120, Note_on_c, 3, 53, 66
5, 144195, Note_off_c, 3, 53, 66
5, 144205, Note_off_c, 3, 57, 57
5, 144215, Note_off_c, 3, 48, 55
5, 144240, Note_on_c, 3, 48, 57
5, 144240, Note_on_c, 3, 57, 70
5, 144240, Note_on_c, 3, 53, 78
5, 144425, Note_off_c, 3, 57, 70
5, 144425, Note_off_c, 3, 53, 78
5, 144440, Note_off_c, 3, 48, 57
5, 144480, Note_on_c, 3, 53, 80
5, 144480, Note_on_c, 3, 48, 63
5, 144480, Note_on_c, 3, 57, 82
5, 144755, Note_off_c, 3, 57, 82
5, 144760, Note_off_c, 3, 53, 80
5, 144760, Note_off_c, 3, 48, 63
5, 144840, Note_on_c, 3, 57, 64
5, 144840, Note_on_c, 3, 53, 63
5, 144840, Note_on_c, 3, 48, 55
5, 144920, Note_off_c, 3, 53, 63
5, 144920, Note_off_c, 3, 48, 55
5, 144930, Note_off_c, 3, 57, 64
5, 144960, Note_on_c, 3, 48, 60
5, 144960, Note_on_c, 3, 57, 78
5, 144960, Note_on_c, 3, 53, 78
5, 145255, Note_off_c, 3, 53, 78
5, 145260, Note_off_c, 3, 57, 78
5, 145265, Note_off_c, 3, 48, 60
5, 145320, Note_on_c, 3, 48, 51
5, 145320, Note_on_c, 3, 57, 64
5, 145320, Note_on_c, 3, 53, 64
5, 145405, Note_off_c, 3, 57, 64
5, 145405, Note_off_c, 3, 53, 64
5, 145415, Note_off_c, 3, 48, 51
5, 145440, Note_on_c, 3, 57, 76
5, 145440, Note_on_c, 3, 48, 58
5, 145440, Note_on_c, 3, 53, 70
5, 145830, Note_off_c, 3, 53, 70
5, 145835, Note_off_c, 3, 57, 76
5, 145835, Note_off_c, 3, 48, 58
5, 145920, Note_on_c, 3, 55, 102
5, 145920, Note_on_c, 3, 52, 100
5, 145920, Note_on_c, 3, 60, 102
5, 146090, Note_off_c, 3, 60, 102
5, 146095, Note_off_c, 3, 55, 102
5, 146095, Note_off_c, 3, 52, 100
5, 146160, Note_on_c, 3, 55, 100
5, 146160, Note_on_c, 3, 48, 98
5, 146160, Note_on_c, 3, 52, 102
5, 146240, Note_off_c, 3, 48, 98
5, 146240, Note_off_c, 3, 52, 102
5, 146245, Note_off_c, 3, 55, 100
5, 146280, Note_on_c, 3, 53, 110
5, 146280, Note_on_c, 3, 57, 107
5, 146280, Note_on_c, 3, 48, 91
5, 146475, Note_off_c, 3, 53, 110
5, 146475, Note_off_c, 3, 57, 107
5, 146475, Note_off_c, 3, 48, 91
5, 146520, Note_on_c, 3, 55, 98
5, 146520, Note_on_c, 3, 52, 100
5, 146520, Note_on_c, 3, 48, 95
5, 146580, Note_off_c, 3, 48, 95
5, 146590, Note_off_c, 3, 52, 100
5, 146595, Note_off_c, 3, 55, 98
5, 146640, Note_on_c, 3, 59, 110
5, 146640, Note_on_c, 3, 55, 110
5, 146640, Note_on_c, 3, 50, 100
5, 146910, Note_off_c, 3, 50, 100
5, 146925, Note_off_c, 3, 59, 110
5, 146925, Note_off_c, 3, 55, 110
5, 147000, Note_on_c, 3, 59, 89
5, 147000, Note_on_c, 3, 50, 82
5, 147000, Note_on_c, 3, 55, 100
5, 147090, Note_off_c, 3, 55, 100
5, 147100, Note_off_c, 3, 59, 89
5, 147100, Note_off_c, 3, 50, 82
5, 147120, Note_on_c, 3, 61, 82
5, 147120, Note_on_c, 3, 52, 89
5, 147120, Note_on_c, 3, 57, 91
5, 147320, Note_off_c, 3, 52, 89
5, 147320, Note_off_c, 3, 57, 91
5, 147325, Note_off_c, 3, 61, 82
5, 147360, Note_on_c, 3, 52, 100
5, 147360, Note_on_c, 3, 61, 100
5, 147360, Note_on_c, 3, 57, 105
5, 147555, Note_off_c, 3, 57, 105
5, 147560, Note_off_c, 3, 61, 100
5, 147565, Note_off_c, 3, 52, 100
5, 147840, Note_on_c, 3, 55, 105
5, 147840, Note_on_c, 3, 52, 93
5, 147840, Note_on_c, 3, 60, 105
5, 148000, Note_off_c, 3, 52, 93
5, 148000, Note_off_c, 3, 60, 105
5, 148005, Note_off_c, 3, 55, 105
5, 148080, Note_on_c, 3, 48, 85
5, 148080, Note_on_c, 3, 55, 91
5, 148080, Note_on_c, 3, 52, 93
5, 148155, Note_off_c, 3, 52, 93
5, 148160, Note_off_c, 3, 48, 85
5, 148160, Note_off_c, 3, 55, 91
5, 148200, Note_on_c, 3, 57, 102
5, 148200, Note_on_c, 3, 48, 98
5, 148200, Note_on_c, 3, 53, 100
5, 148380, Note_off_c, 3, 53, 100
5, 148390, Note_off_c, 3, 48, 98
5, 148405, Note_off_c, 3, 57, 102
5, 148440, Note_on_c, 3, 52, 100
5, 148440, Note_on_c, 3, 55, 85
5, 148440, Note_on_c, 3, 48, 82
5, 148495, Note_off_c, 3, 48, 82
5, 148505, Note_off_c, 3, 52, 100
5, 148505, Note_off_c, 3, 55, 85
5, 148560, Note_on_c, 3, 59, 110
5, 148560, Note_on_c, 3, 55, 110
5, 148560, Note_on_c, 3, 50, 102
5, 148835, Note_off_c, 3, 50, 102
5, 148845, Note_off_c, 3, 59, 110
5, 148845, Note_off_c, 3, 55, 110
5, 148920, Note_on_c, 3, 59, 85
5, 148920, Note_on_c, 3, 55, 98
5, 148920, Note_on_c, 3, 50, 91
5, 148995, Note_off_c, 3, 50, 91
5, 149000, Note_off_c, 3, 55, 98
5, 149005, Note_off_c, 3, 59, 85
5, 149040, Note_on_c, 3, 61, 91
5, 149040, Note_on_c, 3, 52, 85
5, 149040, Note_on_c, 3, 57, 98
5, 149225, Note_off_c, 3, 57, 98
5, 149230, Note_off_c, 3, 61, 91
5, 149230, Note_off_c, 3, 52, 85
5, 149280, Note_on_c, 3, 61, 95
5, 149280, Note_on_c, 3, 57, 102
5, 149280, Note_on_c, 3, 52, 100
5, 149470, Note_off_c, 3, 61, 95
5, 149470, Note_off_c, 3, 57, 102
5, 149470, Note_off_c, 3, 52, 100
5, 149760, Note_on_c, 3, 60, 82
5, 149760, Note_on_c, 3, 53, 68
5, 149760, Note_on_c, 3, 57, 70
5, 149760, Note_on_c, 3, 64, 52
5, 149830, Note_off_c, 3, 64, 52
5, 149835, Note_off_c, 3, 57, 70
5, 149840, Note_off_c, 3, 60, 82
5, 149840, Note_off_c, 3, 53, 68
5, 149880, Note_on_c, 3, 57, 70
5, 149880, Note_on_c, 3, 53, 62
5, 149880, Note_on_c, 3, 60, 64
5, 149880, Note_on_c, 3, 64, 66
5, 150010, Note_off_c, 3, 64, 66
5, 150020, Note_off_c, 3, 57, 70
5, 150020, Note_off_c, 3, 53, 62
5, 150020, Note_off_c, 3, 60, 64
5, 150120, Note_on_c, 3, 53, 72
5, 150120, Note_on_c, 3, 64, 78
5, 150120, Note_on_c, 3, 57, 72
5, 150120, Note_on_c, 3, 60, 82
5, 150270, Note_off_c, 3, 60, 82
5, 150275, Note_off_c, 3, 53, 72
5, 150275, Note_off_c, 3, 64, 78
5, 150275, Note_off_c, 3, 57, 72
5, 150360, Note_on_c, 3, 64, 68
5, 150360, Note_on_c, 3, 53, 70
5, 150360, Note_on_c, 3, 57, 68
5, 150360, Note_on_c, 3, 60, 87
5, 150520, Note_off_c, 3, 57, 68
5, 150520, Note_off_c, 3, 60, 87
5, 150525, Note_off_c, 3, 64, 68
5, 150525, Note_off_c, 3, 53, 70
5, 150600, Note_on_c, 3, 64, 68
5, 150600, Note_on_c, 3, 57, 74
5, 150600, Note_on_c, 3, 53, 78
5, 150600, Note_on_c, 3, 60, 80
5, 150780, Note_off_c, 3, 53, 78
5, 150780, Note_off_c, 3, 60, 80
5, 150785, Note_off_c, 3, 64, 68
5, 150785, Note_off_c, 3, 57, 74
5, 150840, Note_on_c, 3, 60, 72
5, 150840, Note_on_c, 3, 64, 64
5, 150840, Note_on_c, 3, 57, 70
5, 150840, Note_on_c, 3, 53, 78
5, 151020, Note_off_c, 3, 64, 64
5, 151020, Note_off_c, 3, 57, 70
5, 151020, Note_off_c, 3, 53, 78
5, 151025, Note_off_c, 3, 60, 72
5, 151080, Note_on_c, 3, 60, 78
5, 151080, Note_on_c, 3, 64, 68
5, 151080, Note_on_c, 3, 53, 74
5, 151080, Note_on_c, 3, 57, 72
5, 151255, Note_off_c, 3, 57, 72
5, 151260, Note_off_c, 3, 64, 68
5, 151260, Note_off_c, 3, 53, 74
5, 151265, Note_off_c, 3, 60, 78
5, 151320, Note_on_c, 3, 60, 66
5, 151320, Note_on_c, 3, 53, 63
5, 151320, Note_on_c, 3, 64, 60
5, 151320, Note_on_c, 3, 57, 68
5, 151385, Note_off_c, 3, 57, 68
5, 151390, Note_off_c, 3, 64, 60
5, 151395, Note_off_c, 3, 53, 63
5, 151410, Note_off_c, 3, 60, 66
5, 151440, Note_on_c, 3, 60, 76
5, 151440, Note_on_c, 3, 64, 70
5, 151440, Note_on_c, 3, 53, 64
5, 151440, Note_on_c, 3, 57, 78
5, 151610, Note_off_c, 3, 57, 78
5, 151620, Note_off_c, 3, 64, 70
5, 151620, Note_off_c, 3, 53, 64
5, 151650, Note_off_c, 3, 60, 76
5, 151680, Note_on_c, 3, 64, 80
5, 151680, Note_on_c, 3, 55, 85
5, 151680, Note_on_c, 3, 59, 74
5, 151755, Note_off_c, 3, 59, 74
5, 151760, Note_off_c, 3, 55, 85
5, 151775, Note_off_c, 3, 64, 80
5, 151800, Note_on_c, 3, 64, 68
5, 151800, Note_on_c, 3, 59, 76
5, 151800, Note_on_c, 3, 55, 66
5, 151980, Note_off_c, 3, 55, 66
5, 151985, Note_off_c, 3, 59, 76
5, 151990, Note_off_c, 3, 64, 68
5, 152040, Note_on_c, 3, 64, 78
5, 152040, Note_on_c, 3, 59, 72
5, 152040, Note_on_c, 3, 55, 64
5, 152220, Note_off_c, 3, 59, 72
5, 152220, Note_off_c, 3, 55, 64
5, 152225, Note_off_c, 3, 64, 78
5, 152280, Note_on_c, 3, 64, 82
5, 152280, Note_on_c, 3, 55, 74
5, 152280, Note_on_c, 3, 59, 82
5, 152465, Note_off_c, 3, 55, 74
5, 152465, Note_off_c, 3, 59, 82
5, 152475, Note_off_c, 3, 64, 82
5, 152520, Note_on_c, 3, 55, 82
5, 152520, Note_on_c, 3, 59, 85
5, 152520, Note_on_c, 3, 64, 70
5, 152690, Note_off_c, 3, 64, 70
5, 152695, Note_off_c, 3, 55, 82
5, 152695, Note_off_c, 3, 59, 85
5, 152760, Note_on_c, 3, 64, 82
5, 152760, Note_on_c, 3, 59, 87
5, 152760, Note_on_c, 3, 55, 82
5, 152950, Note_off_c, 3, 55, 82
5, 152955, Note_off_c, 3, 64, 82
5, 152955, Note_off_c, 3, 59, 87
5, 153000, Note_on_c, 3, 55, 78
5, 153000, Note_on_c, 3, 59, 85
5, 153000, Note_on_c, 3, 64, 82
5, 153185, Note_off_c, 3, 64, 82
5, 153190, Note_off_c, 3, 59, 85
5, 153195, Note_off_c, 3, 55, 78
5, 153240, Note_on_c, 3, 55, 52
5, 153240, Note_on_c, 3, 59, 66
5, 153240, Note_on_c, 3, 64, 61
5, 153320, Note_off_c, 3, 64, 61
5, 153325, Note_off_c, 3, 59, 66
5, 153330, Note_off_c, 3, 55, 52
5, 153360, Note_on_c, 3, 64, 64
5, 153360, Note_on_c, 3, 55, 63
5, 153360, Note_on_c, 3, 59, 78
5, 153515, Note_off_c, 3, 59, 78
5, 153535, Note_off_c, 3, 55, 63
5, 153540, Note_off_c, 3, 64, 64
5, 153600, Note_on_c, 3, 64, 82
5, 153600, Note_on_c, 3, 57, 82
5, 153600, Note_on_c, 3, 61, 82
5, 153680, Note_off_c, 3, 57, 82
5, 153680, Note_off_c, 3, 61, 82
5, 153685, Note_off_c, 3, 64, 82
5, 153720, Note_on_c, 3, 64, 66
5, 153720, Note_on_c, 3, 61, 66
5, 153720, Note_on_c, 3, 57, 74
5, 153910, Note_off_c, 3, 64, 66
5, 153910, Note_off_c, 3, 61, 66
5, 153910, Note_off_c, 3, 57, 74
5, 153960, Note_on_c, 3, 61, 66
5, 153960, Note_on_c, 3, 64, 64
5, 153960, Note_on_c, 3, 57, 72
5, 154150, Note_off_c, 3, 61, 66
5, 154150, Note_off_c, 3, 64, 64
5, 154150, Note_off_c, 3, 57, 72
5, 154200, Note_on_c, 3, 57, 68
5, 154200, Note_on_c, 3, 61, 66
5, 154200, Note_on_c, 3, 64, 72
5, 154375, Note_off_c, 3, 61, 66
5, 154375, Note_off_c, 3, 64, 72
5, 154380, Note_off_c, 3, 57, 68
5, 154440, Note_on_c, 3, 57, 74
5, 154440, Note_on_c, 3, 64, 64
5, 154440, Note_on_c, 3, 61, 74
5, 154620, Note_off_c, 3, 61, 74
5, 154625, Note_off_c, 3, 64, 64
5, 154630, Note_off_c, 3, 57, 74
5, 154680, Note_on_c, 3, 57, 70
5, 154680, Note_on_c, 3, 64, 68
5, 154680, Note_on_c, 3, 61, 74
5, 154875, Note_off_c, 3, 61, 74
5, 154880, Note_off_c, 3, 57, 70
5, 154880, Note_off_c, 3, 64, 68
5, 154920, Note_on_c, 3, 61, 66
5, 154920, Note_on_c, 3, 57, 70
5, 154920, Note_on_c, 3, 64, 66
5, 155110, Note_off_c, 3, 64, 66
5, 155115, Note_off_c, 3, 61, 66
5, 155115, Note_off_c, 3, 57, 70
5, 155160, Note_on_c, 3, 57, 68
5, 155160, Note_on_c, 3, 64, 72
5, 155160, Note_on_c, 3, 61, 70
5, 155235, Note_off_c, 3, 61, 70
5, 155240, Note_off_c, 3, 64, 72
5, 155245, Note_off_c, 3, 57, 68
5, 155280, Note_on_c, 3, 61, 74
5, 155280, Note_on_c, 3, 57, 66
5, 155280, Note_on_c, 3, 64, 64
5, 155455, Note_off_c, 3, 57, 66
5, 155455, Note_off_c, 3, 64, 64
5, 155465, Note_off_c, 3, 61, 74
5, 155520, Note_on_c, 3, 64, 82
5, 155520, Note_on_c, 3, 55, 85
5, 155520, Note_on_c, 3, 60, 85
5, 155595, Note_off_c, 3, 60, 85
5, 155605, Note_off_c, 3, 55, 85
5, 155615, Note_off_c, 3, 64, 82
5, 155640, Note_on_c, 3, 64, 72
5, 155640, Note_on_c, 3, 60, 78
5, 155640, Note_on_c, 3, 55, 68
5, 155835, Note_off_c, 3, 55, 68
5, 155840, Note_off_c, 3, 60, 78
5, 155845, Note_off_c, 3, 64, 72
5, 155880, Note_on_c, 3, 55, 64
5, 155880, Note_on_c, 3, 60, 76
5, 155880, Note_on_c, 3, 64, 70
5, 156055, Note_off_c, 3, 64, 70
5, 156060, Note_off_c, 3, 55, 64
5, 156060, Note_off_c, 3, 60, 76
5, 156120, Note_on_c, 3, 64, 80
5, 156120, Note_on_c, 3, 60, 85
5, 156120, Note_on_c, 3, 55, 76
5, 156305, Note_off_c, 3, 55, 76
5, 156315, Note_off_c, 3, 64, 80
5, 156315, Note_off_c, 3, 60, 85
5, 156360, Note_on_c, 3, 60, 85
5, 156360, Note_on_c, 3, 55, 85
5, 156360, Note_on_c, 3, 64, 74
5, 156550, Note_off_c, 3, 64, 74
5, 156555, Note_off_c, 3, 55, 85
5, 156565, Note_off_c, 3, 60, 85
5, 156600, Note_on_c, 3, 60, 82
5, 156600, Note_on_c, 3, 64, 68
5, 156600, Note_on_c, 3, 55, 76
5, 156785, Note_off_c, 3, 64, 68
5, 156785, Note_off_c, 3, 55, 76
5, 156795, Note_off_c, 3, 60, 82
5, 156840, Note_on_c, 3, 60, 82
5, 156840, Note_on_c, 3, 55, 82
5, 156840, Note_on_c, 3, 64, 70
5, 157015, Note_off_c, 3, 64, 70
5, 157030, Note_off_c, 3, 55, 82
5, 157035, Note_off_c, 3, 60, 82
5, 157080, Note_on_c, 3, 55, 78
5, 157080, Note_on_c, 3, 60, 82
5, 157080, Note_on_c, 3, 64, 60
5, 157135, Note_off_c, 3, 64, 60
5, 157165, Note_off_c, 3, 55, 78
5, 157165, Note_off_c, 3, 60, 82
5, 157200, Note_on_c, 3, 60, 82
5, 157200, Note_on_c, 3, 64, 64
5, 157200, Note_on_c, 3, 55, 82
5, 157320, Note_off_c, 3, 55, 82
5, 157330, Note_off_c, 3, 64, 64
5, 157365, Note_off_c, 3, 60, 82
5, 157440, Note_on_c, 3, 57, 66
5, 157440, Note_on_c, 3, 54, 72
5, 157440, Note_on_c, 3, 64, 66
5, 157520, Note_off_c, 3, 64, 66
5, 157525, Note_off_c, 3, 54, 72
5, 157530, Note_off_c, 3, 57, 66
5, 157560, Note_on_c, 3, 64, 80
5, 157560, Note_on_c, 3, 57, 82
5, 157560, Note_on_c, 3, 54, 82
5, 157740, Note_off_c, 3, 54, 82
5, 157755, Note_off_c, 3, 57, 82
5, 157760, Note_off_c, 3, 64, 80
5, 157800, Note_on_c, 3, 57, 82
5, 157800, Note_on_c, 3, 64, 78
5, 157800, Note_on_c, 3, 54, 72
5, 157965, Note_off_c, 3, 54, 72
5, 157975, Note_off_c, 3, 57, 82
5, 157975, Note_off_c, 3, 64, 78
5, 158040, Note_on_c, 3, 64, 63
5, 158040, Note_on_c, 3, 57, 78
5, 158040, Note_on_c, 3, 54, 66
5, 158220, Note_off_c, 3, 54, 66
5, 158225, Note_off_c, 3, 64, 63
5, 158225, Note_off_c, 3, 57, 78
5, 158280, Note_on_c, 3, 57, 82
5, 158280, Note_on_c, 3, 54, 76
5, 158280, Note_on_c, 3, 64, 70
5, 158460, Note_off_c, 3, 64, 70
5, 158465, Note_off_c, 3, 54, 76
5, 158470, Note_off_c, 3, 57, 82
5, 158520, Note_on_c, 3, 57, 78
5, 158520, Note_on_c, 3, 64, 70
5, 158520, Note_on_c, 3, 54, 68
5, 158705, Note_off_c, 3, 54, 68
5, 158715, Note_off_c, 3, 57, 78
5, 158715, Note_off_c, 3, 64, 70
5, 158760, Note_on_c, 3, 57, 80
5, 158760, Note_on_c, 3, 64, 68
5, 158760, Note_on_c, 3, 54, 78
5, 158955, Note_off_c, 3, 64, 68
5, 158955, Note_off_c, 3, 54, 78
5, 158960, Note_off_c, 3, 57, 80
5, 159000, Note_on_c, 3, 57, 64
5, 159000, Note_on_c, 3, 54, 64
5, 159000, Note_on_c, 3, 64, 57
5, 159075, Note_off_c, 3, 64, 57
5, 159080, Note_off_c, 3, 57, 64
5, 159080, Note_off_c, 3, 54, 64
5, 159120, Note_on_c, 3, 57, 80
5, 159120, Note_on_c, 3, 64, 66
5, 159120, Note_on_c, 3, 54, 68
5, 159245, Note_off_c, 3, 54, 68
5, 159260, Note_off_c, 3, 64, 66
5, 159265, Note_off_c, 3, 57, 80
5, 159360, Note_on_c, 3, 59, 82
5, 159360, Note_on_c, 3, 52, 78
5, 159360, Note_on_c, 3, 64, 64
5, 159360, Note_on_c, 3, 56, 74
5, 159435, Note_off_c, 3, 56, 74
5, 159440, Note_off_c, 3, 64, 64
5, 159445, Note_off_c, 3, 52, 78
5, 159450, Note_off_c, 3, 59, 82
5, 159480, Note_on_c, 3, 64, 68
5, 159480, Note_on_c, 3, 59, 80
5, 159480, Note_on_c, 3, 52, 68
5, 159480, Note_on_c, 3, 56, 64
5, 159655, Note_off_c, 3, 56, 64
5, 159660, Note_off_c, 3, 52, 68
5, 159665, Note_off_c, 3, 59, 80
5, 159670, Note_off_c, 3, 64, 68
5, 159720, Note_on_c, 3, 64, 74
5, 159720, Note_on_c, 3, 59, 85
5, 159720, Note_on_c, 3, 56, 66
5, 159720, Note_on_c, 3, 52, 80
5, 159885, Note_off_c, 3, 56, 66
5, 159885, Note_off_c, 3, 52, 80
5, 159890, Note_off_c, 3, 59, 85
5, 159895, Note_off_c, 3, 64, 74
5, 159960, Note_on_c, 3, 64, 68
5, 159960, Note_on_c, 3, 59, 85
5, 159960, Note_on_c, 3, 56, 66
5, 159960, Note_on_c, 3, 52, 80
5, 160120, Note_off_c, 3, 56, 66
5, 160120, Note_off_c, 3, 52, 80
5, 160125, Note_off_c, 3, 64, 68
5, 160125, Note_off_c, 3, 59, 85
5, 160200, Note_on_c, 3, 52, 78
5, 160200, Note_on_c, 3, 64, 72
5, 160200, Note_on_c, 3, 59, 80
5, 160200, Note_on_c, 3, 56, 63
5, 160365, Note_off_c, 3, 56, 63
5, 160370, Note_off_c, 3, 64, 72
5, 160370, Note_off_c, 3, 59, 80
5, 160375, Note_off_c, 3, 52, 78
5, 160440, Note_on_c, 3, 56, 74
5, 160440, Note_on_c, 3, 64, 74
5, 160440, Note_on_c, 3, 59, 80
5, 160440, Note_on_c, 3, 52, 78
5, 160620, Note_off_c, 3, 56, 74
5, 160620, Note_off_c, 3, 64, 74
5, 160620, Note_off_c, 3, 59, 80
5, 160620, Note_off_c, 3, 52, 78
5, 160680, Note_on_c, 3, 64, 72
5, 160680, Note_on_c, 3, 59, 85
5, 160680, Note_on_c, 3, 56, 80
5, 160680, Note_on_c, 3, 52, 85
5, 160860, Note_off_c, 3, 56, 80
5, 160860, Note_off_c, 3, 52, 85
5, 160865, Note_off_c, 3, 64, 72
5, 160865, Note_off_c, 3, 59, 85
5, 160920, Note_on_c, 3, 52, 64
5, 160920, Note_on_c, 3, 59, 68
5, 160920, Note_on_c, 3, 64, 59
5, 160920, Note_on_c, 3, 56, 64
5, 160995, Note_off_c, 3, 64, 59
5, 160995, Note_off_c, 3, 56, 64
5, 161000, Note_off_c, 3, 59, 68
5, 161005, Note_off_c, 3, 52, 64
5, 161040, Note_on_c, 3, 64, 68
5, 161040, Note_on_c, 3, 56, 66
5, 161040, Note_on_c, 3, 59, 78
5, 161040, Note_on_c, 3, 52, 70
5, 161200, Note_off_c, 3, 59, 78
5, 161200, Note_off_c, 3, 52, 70
5, 161210, Note_off_c, 3, 56, 66
5, 161230, Note_off_c, 3, 64, 68
5, 184320, End_track
6, 0, Start_track
6, 0, Key_signature, 0, "major"
6, 1, Control_c, 4, 99, 1
6, 1, Control_c, 4, 98, 8
6, 1, Control_c, 4, 6, 64
6, 2, Control_c, 4, 99, 1
6, 2, Control_c, 4, 98, 9
6, 2, Control_c, 4, 6, 64
6, 3, Control_c, 4, 99, 1
6, 3, Control_c, 4, 98, 10
6, 3, Control_c, 4, 6, 64
6, 4, Control_c, 4, 99, 1
6, 4, Control_c, 4, 98, 32
6, 4, Control_c, 4, 6, 64
6, 5, Control_c, 4, 99, 1
6, 5, Control_c, 4, 98, 33
6, 5, Control_c, 4, 6, 64
6, 6, Control_c, 4, 99, 1
6, 6, Control_c, 4, 98, 99
6, 6, Control_c, 4, 6, 64
6, 7, Control_c, 4, 99, 1
6, 7, Control_c, 4, 98, 100
6, 7, Control_c, 4, 6, 64
6, 8, Control_c, 4, 99, 1
6, 8, Control_c, 4, 98, 102
6, 8, Control_c, 4, 6, 64
6, 9, Control_c, 4, 0, 0
6, 10, Program_c, 4, 28
6, 11, Control_c, 4, 7, 100
6, 12, Control_c, 4, 10, 64
6, 13, Control_c, 4, 91, 110
6, 14, Control_c, 4, 93, 60
6, 15, Control_c, 4, 101, 0
6, 15, Control_c, 4, 100, 0
6, 15, Control_c, 4, 6, 2
6, 15, Title_t, "M #5"
6, 15, Channel_prefix, 4
6, 15, Instrument_name_t, "M #5"
6, 2340, Control_c, 4, 121, 0
6, 2505, Control_c, 4, 32, 0
6, 2515, Control_c, 4, 11, 127
6, 2980, Control_c, 4, 101, 0
6, 2985, Control_c, 4, 100, 0
6, 2990, Control_c, 4, 6, 12
6, 2995, Control_c, 4, 101, 127
6, 3000, Control_c, 4, 100, 127
6, 125760, Note_on_c, 4, 84, 107
6, 125760, Note_on_c, 4, 72, 107
6, 125835, Pitch_bend_c, 4, 8357
6, 125845, Pitch_bend_c, 4, 8853
6, 125850, Pitch_bend_c, 4, 9350
6, 125860, Pitch_bend_c, 4, 9929
6, 125865, Pitch_bend_c, 4, 10674
6, 125875, Pitch_bend_c, 4, 11087
6, 125880, Pitch_bend_c, 4, 11749
6, 125890, Pitch_bend_c, 4, 12328
6, 125895, Pitch_bend_c, 4, 12742
6, 125905, Pitch_bend_c, 4, 13156
6, 125915, Pitch_bend_c, 4, 13487
6, 125920, Pitch_bend_c, 4, 13735
6, 125930, Pitch_bend_c, 4, 14066
6, 125935, Pitch_bend_c, 4, 14314
6, 125945, Pitch_bend_c, 4, 14397
6, 125950, Pitch_bend_c, 4, 14479
6, 125960, Pitch_bend_c, 4, 14562
6, 125975, Pitch_bend_c, 4, 14645
6, 125980, Pitch_bend_c, 4, 14893
6, 125990, Pitch_bend_c, 4, 15058
6, 125995, Pitch_bend_c, 4, 15389
6, 126005, Pitch_bend_c, 4, 15638
6, 126010, Pitch_bend_c, 4, 15969
6, 126020, Pitch_bend_c, 4, 16382
6, 126030, Pitch_bend_c, 4, 16383
6, 126305, Pitch_bend_c, 4, 16382
6, 126310, Pitch_bend_c, 4, 16051
6, 126320, Pitch_bend_c, 4, 15638
6, 126325, Pitch_bend_c, 4, 15389
6, 126335, Pitch_bend_c, 4, 15307
6, 126345, Pitch_bend_c, 4, 15058
6, 126350, Pitch_bend_c, 4, 14810
6, 126360, Pitch_bend_c, 4, 14562
6, 126365, Pitch_bend_c, 4, 14314
6, 126375, Pitch_bend_c, 4, 13983
6, 126380, Pitch_bend_c, 4, 13735
6, 126390, Pitch_bend_c, 4, 13569
6, 126395, Pitch_bend_c, 4, 13321
6, 126405, Pitch_bend_c, 4, 13073
6, 126410, Pitch_bend_c, 4, 12742
6, 126420, Pitch_bend_c, 4, 12494
6, 126425, Pitch_bend_c, 4, 12245
6, 126435, Pitch_bend_c, 4, 11997
6, 126445, Pitch_bend_c, 4, 11749
6, 126450, Pitch_bend_c, 4, 11418
6, 126455, Pitch_bend_c, 4, 11253
6, 126465, Pitch_bend_c, 4, 11004
6, 126475, Pitch_bend_c, 4, 10839
6, 126480, Pitch_bend_c, 4, 10591
6, 126490, Pitch_bend_c, 4, 10425
6, 126495, Pitch_bend_c, 4, 10177
6, 126505, Pitch_bend_c, 4, 9929
6, 126510, Pitch_bend_c, 4, 9515
6, 126520, Pitch_bend_c, 4, 9267
6, 126525, Pitch_bend_c, 4, 8853
6, 126535, Pitch_bend_c, 4, 8440
6, 126540, Pitch_bend_c, 4, 8192
6, 126545, Note_off_c, 4, 84, 107
6, 126545, Note_off_c, 4, 72, 107
6, 133440, Note_on_c, 4, 72, 127
6, 133440, Note_on_c, 4, 84, 127
6, 133590, Pitch_bend_c, 4, 8191
6, 133595, Pitch_bend_c, 4, 8026
6, 133610, Pitch_bend_c, 4, 7943
6, 133635, Pitch_bend_c, 4, 7860
6, 133645, Pitch_bend_c, 4, 7778
6, 133880, Pitch_bend_c, 4, 5709
6, 134535, Pitch_bend_c, 4, 5792
6, 134545, Pitch_bend_c, 4, 5874
6, 134560, Pitch_bend_c, 4, 5957
6, 134575, Pitch_bend_c, 4, 6040
6, 134580, Pitch_bend_c, 4, 6205
6, 134590, Pitch_bend_c, 4, 6288
6, 134595, Pitch_bend_c, 4, 6371
6, 134605, Pitch_bend_c, 4, 6536
6, 134610, Note_off_c, 4, 84, 127
6, 134620, Pitch_bend_c, 4, 6619
6, 134625, Pitch_bend_c, 4, 6702
6, 134630, Note_off_c, 4, 72, 127
6, 134645, Pitch_bend_c, 4, 6785
6, 134650, Pitch_bend_c, 4, 6950
6, 134665, Pitch_bend_c, 4, 7033
6, 134675, Pitch_bend_c, 4, 7116
6, 134690, Pitch_bend_c, 4, 7198
6, 134715, Pitch_bend_c, 4, 7281
6, 134720, Pitch_bend_c, 4, 7364
6, 134730, Pitch_bend_c, 4, 7447
6, 134745, Pitch_bend_c, 4, 7529
6, 134760, Pitch_bend_c, 4, 7612
6, 134770, Pitch_bend_c, 4, 7695
6, 134775, Pitch_bend_c, 4, 7778
6, 134780, Pitch_bend_c, 4, 7860
6, 134790, Pitch_bend_c, 4, 8026
6, 134800, Pitch_bend_c, 4, 8109
6, 134805, Pitch_bend_c, 4, 8192
6, 184320, End_track
7, 0, Start_track
7, 0, Key_signature, 0, "major"
7, 1, Control_c, 5, 99, 1
7, 1, Control_c, 5, 98, 8
7, 1, Control_c, 5, 6, 64
7, 2, Control_c, 5, 99, 1
7, 2, Control_c, 5, 98, 9
7, 2, Control_c, 5, 6, 64
7, 3, Control_c, 5, 99, 1
7, 3, Control_c, 5, 98, 10
7, 3, Control_c, 5, 6, 64
7, 4, Control_c, 5, 99, 1
7, 4, Control_c, 5, 98, 32
7, 4, Control_c, 5, 6, 64
7, 5, Control_c, 5, 99, 1
7, 5, Control_c, 5, 98, 33
7, 5, Control_c, 5, 6, 64
7, 6, Control_c, 5, 99, 1
7, 6, Control_c, 5, 98, 99
7, 6, Control_c, 5, 6, 64
7, 7, Control_c, 5, 99, 1
7, 7, Control_c, 5, 98, 100
7, 7, Control_c, 5, 6, 64
7, 8, Control_c, 5, 99, 1
7, 8, Control_c, 5, 98, 102
7, 8, Control_c, 5, 6, 64
7, 9, Control_c, 5, 0, 0
7, 10, Program_c, 5, 29
7, 11, Control_c, 5, 7, 100
7, 12, Control_c, 5, 10, 64
7, 13, Control_c, 5, 91, 115
7, 14, Control_c, 5, 93, 80
7, 15, Control_c, 5, 101, 0
7, 15, Control_c, 5, 100, 0
7, 15, Control_c, 5, 6, 2
7, 15, Title_t, "M #6"
7, 15, Channel_prefix, 5
7, 15, Instrument_name_t, "M #6"
7, 2345, Control_c, 5, 121, 0
7, 2530, Control_c, 5, 32, 0
7, 2540, Control_c, 5, 11, 127
7, 3005, Control_c, 5, 101, 0
7, 3010, Control_c, 5, 100, 0
7, 3015, Control_c, 5, 6, 12
7, 3020, Control_c, 5, 101, 127
7, 3025, Control_c, 5, 100, 127
7, 51840, Note_on_c, 5, 70, 59
7, 51840, Note_on_c, 5, 82, 59
7, 51950, Note_off_c, 5, 70, 59
7, 51950, Note_off_c, 5, 82, 59
7, 51960, Note_on_c, 5, 82, 60
7, 51960, Note_on_c, 5, 70, 60
7, 52070, Note_off_c, 5, 82, 60
7, 52070, Note_off_c, 5, 70, 60
7, 52080, Note_on_c, 5, 70, 61
7, 52080, Note_on_c, 5, 82, 61
7, 52190, Note_off_c, 5, 70, 61
7, 52190, Note_off_c, 5, 82, 61
7, 52200, Note_on_c, 5, 70, 62
7, 52200, Note_on_c, 5, 82, 62
7, 52310, Note_off_c, 5, 70, 62
7, 52310, Note_off_c, 5, 82, 62
7, 52320, Note_on_c, 5, 77, 70
7, 52320, Note_on_c, 5, 82, 70
7, 52320, Note_on_c, 5, 70, 70
7, 52430, Note_off_c, 5, 82, 70
7, 52430, Note_off_c, 5, 70, 70
7, 52440, Note_on_c, 5, 82, 65
7, 52440, Note_on_c, 5, 70, 65
7, 52550, Note_off_c, 5, 82, 65
7, 52550, Note_off_c, 5, 70, 65
7, 52560, Note_on_c, 5, 70, 66
7, 52560, Note_on_c, 5, 82, 66
7, 52670, Note_off_c, 5, 70, 66
7, 52670, Note_off_c, 5, 82, 66
7, 52675, Pitch_bend_c, 5, 8274
7, 52680, Note_on_c, 5, 70, 67
7, 52680, Note_on_c, 5, 82, 67
7, 52690, Pitch_bend_c, 5, 8357
7, 52705, Pitch_bend_c, 5, 8440
7, 52730, Pitch_bend_c, 5, 8522
7, 52760, Pitch_bend_c, 5, 8605
7, 52785, Pitch_bend_c, 5, 8688
7, 52790, Note_off_c, 5, 70, 67
7, 52790, Note_off_c, 5, 82, 67
7, 52800, Pitch_bend_c, 5, 8771
7, 52800, Note_on_c, 5, 82, 68
7, 52800, Note_on_c, 5, 70, 68
7, 52810, Pitch_bend_c, 5, 8936
7, 52815, Pitch_bend_c, 5, 9019
7, 52825, Pitch_bend_c, 5, 9102
7, 52830, Pitch_bend_c, 5, 9184
7, 52840, Pitch_bend_c, 5, 9350
7, 52910, Note_off_c, 5, 82, 68
7, 52910, Note_off_c, 5, 70, 68
7, 52920, Note_on_c, 5, 82, 69
7, 52920, Note_on_c, 5, 70, 69
7, 52990, Pitch_bend_c, 5, 9433
7, 53005, Pitch_bend_c, 5, 9515
7, 53030, Pitch_bend_c, 5, 9598
7, 53030, Note_off_c, 5, 82, 69
7, 53030, Note_off_c, 5, 70, 69
7, 53040, Note_on_c, 5, 70, 70
7, 53040, Note_on_c, 5, 82, 70
7, 53045, Pitch_bend_c, 5, 9681
7, 53065, Pitch_bend_c, 5, 9763
7, 53075, Pitch_bend_c, 5, 9846
7, 53090, Pitch_bend_c, 5, 9929
7, 53115, Pitch_bend_c, 5, 10012
7, 53130, Pitch_bend_c, 5, 10094
7, 53135, Pitch_bend_c, 5, 10177
7, 53150, Note_off_c, 5, 70, 70
7, 53150, Note_off_c, 5, 82, 70
7, 53160, Note_on_c, 5, 82, 71
7, 53160, Note_on_c, 5, 70, 71
7, 53170, Pitch_bend_c, 5, 10260
7, 53175, Pitch_bend_c, 5, 10343
7, 53185, Pitch_bend_c, 5, 10425
7, 53190, Pitch_bend_c, 5, 10508
7, 53200, Pitch_bend_c, 5, 10674
7, 53205, Pitch_bend_c, 5, 10756
7, 53215, Pitch_bend_c, 5, 10839
7, 53260, Pitch_bend_c, 5, 10922
7, 53270, Pitch_bend_c, 5, 11004
7, 53270, Note_off_c, 5, 82, 71
7, 53270, Note_off_c, 5, 70, 71
7, 53275, Pitch_bend_c, 5, 11087
7, 53280, Note_on_c, 5, 70, 73
7, 53280, Note_on_c, 5, 82, 73
7, 53285, Pitch_bend_c, 5, 11170
7, 53300, Pitch_bend_c, 5, 11253
7, 53370, Pitch_bend_c, 5, 11335
7, 53390, Note_off_c, 5, 70, 73
7, 53390, Note_off_c, 5, 82, 73
7, 53400, Pitch_bend_c, 5, 11418
7, 53400, Note_on_c, 5, 70, 74
7, 53400, Note_on_c, 5, 82, 74
7, 53450, Pitch_bend_c, 5, 11501
7, 53455, Pitch_bend_c, 5, 11584
7, 53470, Pitch_bend_c, 5, 11666
7, 53480, Pitch_bend_c, 5, 11749
7, 53485, Pitch_bend_c, 5, 11832
7, 53510, Note_off_c, 5, 70, 74
7, 53510, Note_off_c, 5, 82, 74
7, 53520, Note_on_c, 5, 70, 75
7, 53520, Note_on_c, 5, 82, 75
7, 53525, Pitch_bend_c, 5, 11915
7, 53535, Pitch_bend_c, 5, 11997
7, 53550, Pitch_bend_c, 5, 12080
7, 53555, Pitch_bend_c, 5, 12163
7, 53595, Pitch_bend_c, 5, 12245
7, 53600, Pitch_bend_c, 5, 12328
7, 53610, Pitch_bend_c, 5, 12411
7, 53620, Pitch_bend_c, 5, 12494
7, 53630, Note_off_c, 5, 70, 75
7, 53630, Note_off_c, 5, 82, 75
7, 53640, Pitch_bend_c, 5, 12576
7, 53640, Note_on_c, 5, 82, 76
7, 53640, Note_on_c, 5, 70, 76
7, 53695, Pitch_bend_c, 5, 12659
7, 53705, Pitch_bend_c, 5, 12742
7, 53725, Pitch_bend_c, 5, 12825
7, 53740, Pitch_bend_c, 5, 12907
7, 53750, Pitch_bend_c, 5, 12990
7, 53750, Note_off_c, 5, 82, 76
7, 53750, Note_off_c, 5, 70, 76
7, 53760, Pitch_bend_c, 5, 13073
7, 53760, Note_on_c, 5, 70, 77
7, 53760, Note_on_c, 5, 82, 77
7, 53765, Pitch_bend_c, 5, 13156
7, 53865, Pitch_bend_c, 5, 13238
7, 53870, Note_off_c, 5, 70, 77
7, 53870, Note_off_c, 5, 82, 77
7, 53880, Note_on_c, 5, 70, 78
7, 53880, Note_on_c, 5, 82, 78
7, 53905, Pitch_bend_c, 5, 13321
7, 53915, Pitch_bend_c, 5, 13404
7, 53920, Pitch_bend_c, 5, 13487
7, 53930, Pitch_bend_c, 5, 13569
7, 53945, Pitch_bend_c, 5, 13652
7, 53960, Pitch_bend_c, 5, 13735
7, 53990, Note_off_c, 5, 70, 78
7, 53990, Note_off_c, 5, 82, 78
7, 54000, Note_on_c, 5, 82, 79
7, 54000, Note_on_c, 5, 70, 79
7, 54015, Pitch_bend_c, 5, 13817
7, 54025, Pitch_bend_c, 5, 13900
7, 54030, Pitch_bend_c, 5, 13983
7, 54040, Pitch_bend_c, 5, 14066
7, 54070, Pitch_bend_c, 5, 14148
7, 54110, Note_off_c, 5, 82, 79
7, 54110, Note_off_c, 5, 70, 79
7, 54115, Pitch_bend_c, 5, 14231
7, 54120, Note_on_c, 5, 82, 81
7, 54120, Note_on_c, 5, 70, 81
7, 54140, Pitch_bend_c, 5, 14314
7, 54155, Pitch_bend_c, 5, 14397
7, 54170, Pitch_bend_c, 5, 14479
7, 54180, Pitch_bend_c, 5, 14562
7, 54210, Pitch_bend_c, 5, 14645
7, 54225, Note_off_c, 5, 77, 70
7, 54230, Note_off_c, 5, 82, 81
7, 54230, Note_off_c, 5, 70, 81
7, 54240, Note_on_c, 5, 77, 84
7, 54240, Note_on_c, 5, 82, 84
7, 54240, Note_on_c, 5, 70, 84
7, 54255, Pitch_bend_c, 5, 14728
7, 54270, Pitch_bend_c, 5, 14810
7, 54285, Pitch_bend_c, 5, 14893
7, 54320, Pitch_bend_c, 5, 14976
7, 54325, Pitch_bend_c, 5, 15058
7, 54340, Pitch_bend_c, 5, 15141
7, 54350, Pitch_bend_c, 5, 15224
7, 54350, Note_off_c, 5, 82, 84
7, 54350, Note_off_c, 5, 70, 84
7, 54360, Note_on_c, 5, 70, 83
7, 54360, Note_on_c, 5, 82, 83
7, 54370, Pitch_bend_c, 5, 15307
7, 54420, Pitch_bend_c, 5, 15389
7, 54425, Pitch_bend_c, 5, 15472
7, 54440, Pitch_bend_c, 5, 15555
7, 54455, Pitch_bend_c, 5, 15638
7, 54465, Pitch_bend_c, 5, 15720
7, 54470, Pitch_bend_c, 5, 15803
7, 54470, Note_off_c, 5, 70, 83
7, 54470, Note_off_c, 5, 82, 83
7, 54480, Note_on_c, 5, 82, 84
7, 54480, Note_on_c, 5, 70, 84
7, 54540, Pitch_bend_c, 5, 15886
7, 54565, Pitch_bend_c, 5, 15969
7, 54580, Pitch_bend_c, 5, 16051
7, 54590, Pitch_bend_c, 5, 16134
7, 54590, Note_off_c, 5, 82, 84
7, 54590, Note_off_c, 5, 70, 84
7, 54600, Note_on_c, 5, 82, 85
7, 54600, Note_on_c, 5, 70, 85
7, 54620, Pitch_bend_c, 5, 16217
7, 54635, Pitch_bend_c, 5, 16299
7, 54665, Pitch_bend_c, 5, 16382
7, 54695, Pitch_bend_c, 5, 16383
7, 54710, Note_off_c, 5, 82, 85
7, 54710, Note_off_c, 5, 70, 85
7, 54720, Note_on_c, 5, 82, 86
7, 54720, Note_on_c, 5, 70, 86
7, 54830, Note_off_c, 5, 82, 86
7, 54830, Note_off_c, 5, 70, 86
7, 54840, Note_on_c, 5, 82, 87
7, 54840, Note_on_c, 5, 70, 87
7, 54950, Note_off_c, 5, 82, 87
7, 54950, Note_off_c, 5, 70, 87
7, 54960, Note_on_c, 5, 82, 89
7, 54960, Note_on_c, 5, 70, 89
7, 55070, Note_off_c, 5, 82, 89
7, 55070, Note_off_c, 5, 70, 89
7, 55080, Note_on_c, 5, 70, 90
7, 55080, Note_on_c, 5, 82, 90
7, 55190, Note_off_c, 5, 70, 90
7, 55190, Note_off_c, 5, 82, 90
7, 55200, Note_on_c, 5, 82, 91
7, 55200, Note_on_c, 5, 70, 91
7, 55310, Note_off_c, 5, 82, 91
7, 55310, Note_off_c, 5, 70, 91
7, 55320, Note_on_c, 5, 82, 92
7, 55320, Note_on_c, 5, 70, 92
7, 55430, Note_off_c, 5, 82, 92
7, 55430, Note_off_c, 5, 70, 92
7, 55440, Note_on_c, 5, 70, 93
7, 55440, Note_on_c, 5, 82, 93
7, 55550, Note_off_c, 5, 70, 93
7, 55550, Note_off_c, 5, 82, 93
7, 55560, Note_on_c, 5, 82, 94
7, 55560, Note_on_c, 5, 70, 94
7, 55670, Note_off_c, 5, 77, 84
7, 55670, Note_off_c, 5, 82, 94
7, 55670, Note_off_c, 5, 70, 94
7, 55675, Pitch_bend_c, 5, 8192
7, 99330, Note_on_c, 5, 59, 107
7, 99350, Note_off_c, 5, 59, 107
7, 99360, Note_on_c, 5, 60, 107
7, 99470, Note_off_c, 5, 60, 107
7, 99480, Note_on_c, 5, 62, 107
7, 99710, Note_off_c, 5, 62, 107
7, 99720, Note_on_c, 5, 60, 107
7, 99885, Control_c, 5, 1, 1
7, 99890, Control_c, 5, 1, 3
7, 99900, Control_c, 5, 1, 5
7, 99905, Control_c, 5, 1, 7
7, 99915, Control_c, 5, 1, 9
7, 99925, Control_c, 5, 1, 10
7, 99930, Control_c, 5, 1, 12
7, 99940, Control_c, 5, 1, 14
7, 99945, Control_c, 5, 1, 17
7, 99955, Control_c, 5, 1, 19
7, 99960, Control_c, 5, 1, 22
7, 99970, Control_c, 5, 1, 26
7, 99975, Control_c, 5, 1, 29
7, 99985, Control_c, 5, 1, 31
7, 99995, Control_c, 5, 1, 36
7, 100000, Control_c, 5, 1, 38
7, 100010, Control_c, 5, 1, 42
7, 100015, Control_c, 5, 1, 45
7, 100025, Control_c, 5, 1, 47
7, 100030, Control_c, 5, 1, 50
7, 100040, Control_c, 5, 1, 52
7, 100045, Control_c, 5, 1, 53
7, 100055, Control_c, 5, 1, 54
7, 100060, Control_c, 5, 1, 55
7, 100075, Control_c, 5, 1, 57
7, 100085, Control_c, 5, 1, 58
7, 100090, Control_c, 5, 1, 59
7, 100100, Control_c, 5, 1, 60
7, 100110, Control_c, 5, 1, 61
7, 100115, Control_c, 5, 1, 63
7, 100125, Control_c, 5, 1, 65
7, 100130, Control_c, 5, 1, 68
7, 100140, Control_c, 5, 1, 69
7, 100145, Control_c, 5, 1, 70
7, 100155, Control_c, 5, 1, 71
7, 100160, Control_c, 5, 1, 74
7, 100170, Control_c, 5, 1, 75
7, 100180, Control_c, 5, 1, 77
7, 100185, Control_c, 5, 1, 78
7, 100195, Control_c, 5, 1, 79
7, 100215, Control_c, 5, 1, 80
7, 100255, Control_c, 5, 1, 82
7, 100270, Control_c, 5, 1, 83
7, 100300, Control_c, 5, 1, 84
7, 100315, Control_c, 5, 1, 85
7, 100625, Control_c, 5, 1, 84
7, 100650, Control_c, 5, 1, 83
7, 100680, Control_c, 5, 1, 82
7, 100700, Control_c, 5, 1, 80
7, 100710, Control_c, 5, 1, 79
7, 100715, Control_c, 5, 1, 78
7, 100735, Control_c, 5, 1, 77
7, 100740, Control_c, 5, 1, 75
7, 100750, Control_c, 5, 1, 73
7, 100755, Control_c, 5, 1, 69
7, 100765, Control_c, 5, 1, 65
7, 100770, Control_c, 5, 1, 59
7, 100780, Control_c, 5, 1, 51
7, 100785, Control_c, 5, 1, 42
7, 100795, Control_c, 5, 1, 30
7, 100805, Control_c, 5, 1, 18
7, 100810, Control_c, 5, 1, 9
7, 100820, Control_c, 5, 1, 0
7, 101030, Note_off_c, 5, 60, 107
7, 101250, Note_on_c, 5, 54, 105
7, 101270, Note_off_c, 5, 54, 105
7, 101280, Note_on_c, 5, 55, 105
7, 101390, Note_off_c, 5, 55, 105
7, 101400, Note_on_c, 5, 57, 106
7, 101630, Note_off_c, 5, 57, 106
7, 101640, Note_on_c, 5, 55, 107
7, 102230, Note_off_c, 5, 55, 107
7, 102240, Note_on_c, 5, 43, 107
7, 102415, Pitch_bend_c, 5, 7860
7, 102420, Pitch_bend_c, 5, 7447
7, 102430, Pitch_bend_c, 5, 7116
7, 102435, Pitch_bend_c, 5, 6867
7, 102445, Pitch_bend_c, 5, 6702
7, 102450, Pitch_bend_c, 5, 6371
7, 102460, Pitch_bend_c, 5, 6040
7, 102465, Pitch_bend_c, 5, 5709
7, 102475, Pitch_bend_c, 5, 5295
7, 102485, Pitch_bend_c, 5, 5047
7, 102490, Pitch_bend_c, 5, 4799
7, 102500, Pitch_bend_c, 5, 4468
7, 102505, Pitch_bend_c, 5, 4220
7, 102515, Pitch_bend_c, 5, 4054
7, 102520, Pitch_bend_c, 5, 3806
7, 102530, Pitch_bend_c, 5, 3392
7, 102535, Pitch_bend_c, 5, 3144
7, 102545, Pitch_bend_c, 5, 2896
7, 102550, Pitch_bend_c, 5, 2647
7, 102560, Pitch_bend_c, 5, 2482
7, 102565, Pitch_bend_c, 5, 2316
7, 102575, Pitch_bend_c, 5, 2234
7, 102580, Pitch_bend_c, 5, 2068
7, 102590, Pitch_bend_c, 5, 1820
7, 102600, Pitch_bend_c, 5, 1572
7, 102605, Pitch_bend_c, 5, 1075
7, 102615, Pitch_bend_c, 5, 827
7, 102620, Pitch_bend_c, 5, 661
7, 102630, Pitch_bend_c, 5, 413
7, 102635, Pitch_bend_c, 5, 330
7, 102645, Pitch_bend_c, 5, 165
7, 102650, Pitch_bend_c, 5, 0
7, 102685, Pitch_bend_c, 5, 82
7, 102690, Pitch_bend_c, 5, 248
7, 102700, Pitch_bend_c, 5, 579
7, 102705, Pitch_bend_c, 5, 1075
7, 102710, Note_off_c, 5, 43, 107
7, 102715, Pitch_bend_c, 5, 2151
7, 102725, Pitch_bend_c, 5, 3475
7, 102730, Pitch_bend_c, 5, 6288
7, 102740, Pitch_bend_c, 5, 8192
7, 103290, Note_on_c, 5, 59, 100
7, 103310, Note_off_c, 5, 59, 100
7, 103320, Note_on_c, 5, 60, 106
7, 103430, Note_off_c, 5, 60, 106
7, 103440, Note_on_c, 5, 61, 107
7, 103560, Note_on_c, 5, 64, 107
7, 103565, Note_off_c, 5, 61, 107
7, 103610, Note_off_c, 5, 64, 107
7, 103680, Note_on_c, 5, 69, 107
7, 103775, Note_off_c, 5, 69, 107
7, 103800, Note_on_c, 5, 67, 107
7, 104030, Note_off_c, 5, 67, 107
7, 104040, Note_on_c, 5, 64, 107
7, 104270, Note_off_c, 5, 64, 107
7, 104280, Note_on_c, 5, 62, 107
7, 104390, Note_off_c, 5, 62, 107
7, 104400, Note_on_c, 5, 61, 98
7, 104435, Control_c, 5, 1, 9
7, 104440, Control_c, 5, 1, 18
7, 104450, Control_c, 5, 1, 26
7, 104455, Control_c, 5, 1, 36
7, 104465, Control_c, 5, 1, 43
7, 104470, Control_c, 5, 1, 50
7, 104480, Control_c, 5, 1, 58
7, 104490, Control_c, 5, 1, 65
7, 104495, Control_c, 5, 1, 70
7, 104505, Control_c, 5, 1, 75
7, 104510, Control_c, 5, 1, 79
7, 104520, Control_c, 5, 1, 82
7, 104525, Control_c, 5, 1, 84
7, 104535, Control_c, 5, 1, 87
7, 104640, Note_off_c, 5, 61, 98
7, 104710, Control_c, 5, 1, 84
7, 104720, Control_c, 5, 1, 78
7, 104725, Control_c, 5, 1, 71
7, 104735, Control_c, 5, 1, 60
7, 104740, Control_c, 5, 1, 47
7, 104750, Control_c, 5, 1, 35
7, 104755, Control_c, 5, 1, 14
7, 104765, Control_c, 5, 1, 0
7, 105060, Control_c, 5, 1, 7
7, 105065, Control_c, 5, 1, 17
7, 105075, Control_c, 5, 1, 27
7, 105080, Control_c, 5, 1, 38
7, 105090, Control_c, 5, 1, 49
7, 105090, Note_on_c, 5, 63, 104
7, 105095, Control_c, 5, 1, 58
7, 105105, Control_c, 5, 1, 66
7, 105110, Control_c, 5, 1, 73
7, 105110, Note_off_c, 5, 63, 104
7, 105120, Control_c, 5, 1, 78
7, 105120, Note_on_c, 5, 64, 107
7, 105125, Control_c, 5, 1, 82
7, 105135, Control_c, 5, 1, 83
7, 105210, Control_c, 5, 1, 80
7, 105220, Control_c, 5, 1, 75
7, 105230, Control_c, 5, 1, 59
7, 105230, Note_off_c, 5, 64, 107
7, 105235, Control_c, 5, 1, 31
7, 105240, Note_on_c, 5, 65, 107
7, 105245, Control_c, 5, 1, 0
7, 105470, Note_off_c, 5, 65, 107
7, 105480, Note_on_c, 5, 64, 107
7, 105840, Note_on_c, 5, 60, 107
7, 105850, Note_off_c, 5, 64, 107
7, 105960, Note_on_c, 5, 57, 107
7, 105965, Note_off_c, 5, 60, 107
7, 106070, Note_off_c, 5, 57, 107
7, 106080, Note_on_c, 5, 60, 107
7, 106305, Control_c, 5, 1, 3
7, 106315, Control_c, 5, 1, 15
7, 106315, Note_off_c, 5, 60, 107
7, 106320, Note_on_c, 5, 64, 107
7, 106325, Control_c, 5, 1, 29
7, 106330, Control_c, 5, 1, 45
7, 106340, Control_c, 5, 1, 58
7, 106345, Control_c, 5, 1, 68
7, 106355, Control_c, 5, 1, 77
7, 106360, Control_c, 5, 1, 86
7, 106370, Control_c, 5, 1, 91
7, 106375, Control_c, 5, 1, 94
7, 106385, Control_c, 5, 1, 96
7, 106415, Control_c, 5, 1, 98
7, 106430, Control_c, 5, 1, 99
7, 106455, Control_c, 5, 1, 100
7, 106475, Note_off_c, 5, 64, 107
7, 106515, Control_c, 5, 1, 95
7, 106525, Control_c, 5, 1, 86
7, 106530, Control_c, 5, 1, 76
7, 106540, Control_c, 5, 1, 51
7, 106550, Control_c, 5, 1, 10
7, 106555, Control_c, 5, 1, 0
7, 107010, Note_on_c, 5, 68, 99
7, 107015, Note_on_c, 5, 65, 99
7, 107030, Note_off_c, 5, 68, 99
7, 107035, Note_off_c, 5, 65, 99
7, 107040, Note_on_c, 5, 69, 99
7, 107040, Note_on_c, 5, 66, 99
7, 107150, Note_off_c, 5, 69, 99
7, 107150, Note_off_c, 5, 66, 99
7, 107160, Note_on_c, 5, 67, 100
7, 107160, Note_on_c, 5, 71, 100
7, 107390, Note_off_c, 5, 67, 100
7, 107390, Note_off_c, 5, 71, 100
7, 107400, Note_on_c, 5, 66, 101
7, 107400, Note_on_c, 5, 69, 101
7, 107470, Control_c, 5, 1, 4
7, 107480, Control_c, 5, 1, 12
7, 107485, Control_c, 5, 1, 19
7, 107495, Control_c, 5, 1, 27
7, 107500, Control_c, 5, 1, 34
7, 107510, Control_c, 5, 1, 38
7, 107515, Control_c, 5, 1, 43
7, 107525, Control_c, 5, 1, 46
7, 107535, Control_c, 5, 1, 47
7, 107540, Control_c, 5, 1, 50
7, 107595, Control_c, 5, 1, 51
7, 107600, Control_c, 5, 1, 52
7, 107610, Control_c, 5, 1, 53
7, 107620, Control_c, 5, 1, 57
7, 107625, Control_c, 5, 1, 59
7, 107635, Control_c, 5, 1, 62
7, 107640, Control_c, 5, 1, 67
7, 107650, Control_c, 5, 1, 69
7, 107655, Control_c, 5, 1, 73
7, 107665, Control_c, 5, 1, 76
7, 107670, Control_c, 5, 1, 80
7, 107680, Control_c, 5, 1, 83
7, 107690, Control_c, 5, 1, 87
7, 107695, Control_c, 5, 1, 91
7, 107705, Control_c, 5, 1, 94
7, 107710, Control_c, 5, 1, 96
7, 107720, Control_c, 5, 1, 100
7, 107725, Control_c, 5, 1, 103
7, 107735, Control_c, 5, 1, 106
7, 107740, Control_c, 5, 1, 108
7, 107750, Control_c, 5, 1, 111
7, 107755, Control_c, 5, 1, 114
7, 107765, Control_c, 5, 1, 116
7, 107780, Control_c, 5, 1, 118
7, 107785, Control_c, 5, 1, 119
7, 107795, Control_c, 5, 1, 120
7, 107805, Control_c, 5, 1, 123
7, 107810, Control_c, 5, 1, 124
7, 107820, Control_c, 5, 1, 126
7, 107835, Control_c, 5, 1, 127
7, 108410, Note_off_c, 5, 66, 101
7, 108410, Note_off_c, 5, 69, 101
7, 108445, Control_c, 5, 1, 115
7, 108450, Control_c, 5, 1, 93
7, 108460, Control_c, 5, 1, 60
7, 108465, Control_c, 5, 1, 0
7, 108960, Note_on_c, 5, 64, 107
7, 109080, Note_off_c, 5, 64, 107
7, 109080, Note_on_c, 5, 55, 107
7, 109165, Note_off_c, 5, 55, 107
7, 109200, Note_on_c, 5, 56, 107
7, 109320, Note_on_c, 5, 40, 107
7, 109320, Note_on_c, 5, 52, 107
7, 109335, Note_off_c, 5, 56, 107
7, 109570, Pitch_bend_c, 5, 8191
7, 109575, Pitch_bend_c, 5, 7943
7, 109585, Pitch_bend_c, 5, 7612
7, 109590, Pitch_bend_c, 5, 7364
7, 109600, Pitch_bend_c, 5, 7033
7, 109610, Pitch_bend_c, 5, 6785
7, 109615, Pitch_bend_c, 5, 6536
7, 109625, Pitch_bend_c, 5, 6288
7, 109630, Pitch_bend_c, 5, 6123
7, 109640, Pitch_bend_c, 5, 6040
7, 109645, Pitch_bend_c, 5, 5957
7, 109655, Pitch_bend_c, 5, 5792
7, 109660, Pitch_bend_c, 5, 5626
7, 109670, Pitch_bend_c, 5, 5461
7, 109675, Pitch_bend_c, 5, 5378
7, 109700, Pitch_bend_c, 5, 5295
7, 109705, Pitch_bend_c, 5, 5213
7, 109715, Pitch_bend_c, 5, 5130
7, 109725, Pitch_bend_c, 5, 5047
7, 109730, Pitch_bend_c, 5, 4964
7, 109740, Pitch_bend_c, 5, 4882
7, 109760, Pitch_bend_c, 5, 4799
7, 109770, Pitch_bend_c, 5, 4716
7, 109775, Pitch_bend_c, 5, 4633
7, 109790, Pitch_bend_c, 5, 4551
7, 109805, Pitch_bend_c, 5, 4468
7, 109835, Pitch_bend_c, 5, 4385
7, 109845, Pitch_bend_c, 5, 4302
7, 109855, Pitch_bend_c, 5, 4220
7, 109860, Pitch_bend_c, 5, 4137
7, 109870, Pitch_bend_c, 5, 4054
7, 109885, Pitch_bend_c, 5, 3971
7, 109890, Pitch_bend_c, 5, 3889
7, 109900, Pitch_bend_c, 5, 3806
7, 109910, Pitch_bend_c, 5, 3723
7, 109915, Pitch_bend_c, 5, 3640
7, 109920, Pitch_bend_c, 5, 3558
7, 109930, Pitch_bend_c, 5, 3392
7, 109940, Pitch_bend_c, 5, 3309
7, 109945, Pitch_bend_c, 5, 3227
7, 109955, Pitch_bend_c, 5, 3144
7, 109960, Pitch_bend_c, 5, 3061
7, 109975, Pitch_bend_c, 5, 2978
7, 109985, Pitch_bend_c, 5, 2896
7, 109990, Pitch_bend_c, 5, 2813
7, 110000, Pitch_bend_c, 5, 2730
7, 110005, Pitch_bend_c, 5, 2647
7, 110015, Pitch_bend_c, 5, 2482
7, 110020, Pitch_bend_c, 5, 2399
7, 110030, Pitch_bend_c, 5, 2316
7, 110035, Pitch_bend_c, 5, 2234
7, 110045, Pitch_bend_c, 5, 2151
7, 110055, Pitch_bend_c, 5, 2068
7, 110060, Pitch_bend_c, 5, 1985
7, 110070, Pitch_bend_c, 5, 1903
7, 110075, Pitch_bend_c, 5, 1737
7, 110085, Pitch_bend_c, 5, 1654
7, 110100, Pitch_bend_c, 5, 1572
7, 110115, Pitch_bend_c, 5, 1489
7, 110125, Pitch_bend_c, 5, 1406
7, 110130, Pitch_bend_c, 5, 1323
7, 110140, Pitch_bend_c, 5, 1241
7, 110145, Pitch_bend_c, 5, 1158
7, 110155, Pitch_bend_c, 5, 1075
7, 110160, Pitch_bend_c, 5, 992
7, 110170, Pitch_bend_c, 5, 827
7, 110190, Pitch_bend_c, 5, 744
7, 110190, Note_off_c, 5, 52, 107
7, 110200, Pitch_bend_c, 5, 661
7, 110200, Note_off_c, 5, 40, 107
7, 110210, Pitch_bend_c, 5, 579
7, 110215, Pitch_bend_c, 5, 413
7, 110225, Pitch_bend_c, 5, 330
7, 110240, Pitch_bend_c, 5, 248
7, 110275, Pitch_bend_c, 5, 413
7, 110285, Pitch_bend_c, 5, 2068
7, 110290, Pitch_bend_c, 5, 6702
7, 110300, Pitch_bend_c, 5, 8192
7, 127680, Note_on_c, 5, 74, 74
7, 127680, Note_on_c, 5, 86, 80
7, 128100, Control_c, 5, 1, 1
7, 128110, Control_c, 5, 1, 2
7, 128115, Control_c, 5, 1, 3
7, 128125, Control_c, 5, 1, 4
7, 128130, Control_c, 5, 1, 5
7, 128140, Control_c, 5, 1, 7
7, 128150, Control_c, 5, 1, 9
7, 128155, Control_c, 5, 1, 10
7, 128165, Control_c, 5, 1, 11
7, 128170, Control_c, 5, 1, 13
7, 128180, Control_c, 5, 1, 14
7, 128185, Control_c, 5, 1, 17
7, 128195, Control_c, 5, 1, 18
7, 128200, Control_c, 5, 1, 19
7, 128210, Control_c, 5, 1, 21
7, 128215, Control_c, 5, 1, 22
7, 128225, Control_c, 5, 1, 23
7, 128230, Control_c, 5, 1, 26
7, 128240, Control_c, 5, 1, 28
7, 128245, Control_c, 5, 1, 29
7, 128255, Control_c, 5, 1, 31
7, 128265, Control_c, 5, 1, 34
7, 128270, Control_c, 5, 1, 36
7, 128280, Control_c, 5, 1, 37
7, 128285, Control_c, 5, 1, 38
7, 128295, Control_c, 5, 1, 39
7, 128300, Control_c, 5, 1, 42
7, 128310, Control_c, 5, 1, 44
7, 128315, Control_c, 5, 1, 45
7, 128330, Control_c, 5, 1, 46
7, 128345, Control_c, 5, 1, 47
7, 128355, Control_c, 5, 1, 49
7, 128370, Control_c, 5, 1, 50
7, 128395, Control_c, 5, 1, 51
7, 128425, Control_c, 5, 1, 52
7, 128430, Control_c, 5, 1, 53
7, 128440, Control_c, 5, 1, 54
7, 128455, Control_c, 5, 1, 55
7, 128465, Control_c, 5, 1, 57
7, 128485, Control_c, 5, 1, 58
7, 128530, Control_c, 5, 1, 59
7, 129075, Control_c, 5, 1, 58
7, 129210, Control_c, 5, 1, 57
7, 129370, Control_c, 5, 1, 55
7, 129395, Control_c, 5, 1, 54
7, 129410, Note_off_c, 5, 86, 80
7, 129415, Control_c, 5, 1, 53
7, 129440, Control_c, 5, 1, 52
7, 129445, Control_c, 5, 1, 51
7, 129455, Control_c, 5, 1, 50
7, 129455, Note_off_c, 5, 74, 74
7, 129470, Control_c, 5, 1, 49
7, 129475, Control_c, 5, 1, 46
7, 129485, Control_c, 5, 1, 45
7, 129490, Control_c, 5, 1, 43
7, 129500, Control_c, 5, 1, 42
7, 129510, Control_c, 5, 1, 38
7, 129515, Control_c, 5, 1, 37
7, 129525, Control_c, 5, 1, 33
7, 129530, Control_c, 5, 1, 28
7, 129540, Control_c, 5, 1, 23
7, 129545, Control_c, 5, 1, 18
7, 129555, Control_c, 5, 1, 11
7, 129560, Control_c, 5, 1, 3
7, 129570, Control_c, 5, 1, 0
7, 129600, Note_on_c, 5, 86, 70
7, 129600, Note_on_c, 5, 74, 60
7, 129945, Control_c, 5, 1, 2
7, 129955, Control_c, 5, 1, 5
7, 129960, Control_c, 5, 1, 7
7, 129970, Control_c, 5, 1, 9
7, 129975, Control_c, 5, 1, 10
7, 129985, Control_c, 5, 1, 13
7, 129990, Control_c, 5, 1, 14
7, 130000, Control_c, 5, 1, 17
7, 130005, Control_c, 5, 1, 18
7, 130015, Control_c, 5, 1, 20
7, 130020, Control_c, 5, 1, 21
7, 130030, Control_c, 5, 1, 23
7, 130040, Control_c, 5, 1, 26
7, 130045, Control_c, 5, 1, 28
7, 130055, Control_c, 5, 1, 31
7, 130060, Control_c, 5, 1, 34
7, 130070, Control_c, 5, 1, 36
7, 130075, Control_c, 5, 1, 38
7, 130085, Control_c, 5, 1, 41
7, 130090, Control_c, 5, 1, 42
7, 130100, Control_c, 5, 1, 44
7, 130110, Control_c, 5, 1, 46
7, 130125, Control_c, 5, 1, 47
7, 130130, Control_c, 5, 1, 49
7, 130140, Control_c, 5, 1, 50
7, 130145, Control_c, 5, 1, 51
7, 130160, Control_c, 5, 1, 52
7, 130170, Control_c, 5, 1, 53
7, 130175, Control_c, 5, 1, 54
7, 130185, Control_c, 5, 1, 55
7, 130190, Control_c, 5, 1, 58
7, 130200, Control_c, 5, 1, 59
7, 130205, Control_c, 5, 1, 60
7, 130215, Control_c, 5, 1, 61
7, 130220, Control_c, 5, 1, 62
7, 130240, Control_c, 5, 1, 63
7, 130255, Control_c, 5, 1, 65
7, 130270, Control_c, 5, 1, 66
7, 130275, Control_c, 5, 1, 67
7, 130295, Control_c, 5, 1, 68
7, 130300, Control_c, 5, 1, 69
7, 130315, Control_c, 5, 1, 70
7, 130325, Control_c, 5, 1, 71
7, 130345, Control_c, 5, 1, 73
7, 130360, Control_c, 5, 1, 74
7, 130370, Control_c, 5, 1, 75
7, 130390, Control_c, 5, 1, 76
7, 130445, Control_c, 5, 1, 77
7, 130685, Control_c, 5, 1, 78
7, 131055, Control_c, 5, 1, 77
7, 131070, Control_c, 5, 1, 76
7, 131080, Control_c, 5, 1, 75
7, 131085, Control_c, 5, 1, 74
7, 131100, Control_c, 5, 1, 73
7, 131110, Control_c, 5, 1, 71
7, 131115, Control_c, 5, 1, 70
7, 131150, Control_c, 5, 1, 69
7, 131200, Control_c, 5, 1, 68
7, 131215, Control_c, 5, 1, 67
7, 131230, Control_c, 5, 1, 66
7, 131265, Control_c, 5, 1, 65
7, 131285, Control_c, 5, 1, 63
7, 131300, Control_c, 5, 1, 62
7, 131330, Control_c, 5, 1, 61
7, 131345, Control_c, 5, 1, 60
7, 131355, Control_c, 5, 1, 59
7, 131360, Control_c, 5, 1, 58
7, 131370, Control_c, 5, 1, 57
7, 131370, Note_off_c, 5, 74, 60
7, 131375, Note_off_c, 5, 86, 70
7, 131380, Control_c, 5, 1, 54
7, 131385, Control_c, 5, 1, 53
7, 131395, Control_c, 5, 1, 51
7, 131400, Control_c, 5, 1, 49
7, 131410, Control_c, 5, 1, 46
7, 131420, Control_c, 5, 1, 43
7, 131425, Control_c, 5, 1, 39
7, 131430, Control_c, 5, 1, 37
7, 131440, Control_c, 5, 1, 33
7, 131450, Control_c, 5, 1, 28
7, 131455, Control_c, 5, 1, 23
7, 131465, Control_c, 5, 1, 19
7, 131470, Control_c, 5, 1, 15
7, 131480, Control_c, 5, 1, 12
7, 131485, Control_c, 5, 1, 7
7, 131495, Control_c, 5, 1, 3
7, 131500, Control_c, 5, 1, 0
7, 131520, Note_on_c, 5, 74, 78
7, 131520, Note_on_c, 5, 86, 89
7, 132125, Pitch_bend_c, 5, 8274
7, 132140, Pitch_bend_c, 5, 8357
7, 132150, Pitch_bend_c, 5, 8440
7, 132155, Pitch_bend_c, 5, 8522
7, 132165, Pitch_bend_c, 5, 8605
7, 132170, Pitch_bend_c, 5, 8688
7, 132180, Pitch_bend_c, 5, 8771
7, 132195, Pitch_bend_c, 5, 8853
7, 132210, Pitch_bend_c, 5, 8936
7, 132215, Pitch_bend_c, 5, 9019
7, 132225, Pitch_bend_c, 5, 9102
7, 132235, Pitch_bend_c, 5, 9184
7, 132240, Pitch_bend_c, 5, 9267
7, 132255, Pitch_bend_c, 5, 9350
7, 132270, Pitch_bend_c, 5, 9433
7, 132285, Pitch_bend_c, 5, 9515
7, 132295, Pitch_bend_c, 5, 9598
7, 132300, Pitch_bend_c, 5, 9681
7, 132310, Pitch_bend_c, 5, 9763
7, 132355, Pitch_bend_c, 5, 9846
7, 132365, Pitch_bend_c, 5, 9929
7, 132405, Pitch_bend_c, 5, 10012
7, 132410, Pitch_bend_c, 5, 10094
7, 132420, Pitch_bend_c, 5, 10177
7, 132425, Pitch_bend_c, 5, 10260
7, 132460, Pitch_bend_c, 5, 10343
7, 132720, Pitch_bend_c, 5, 10260
7, 132780, Pitch_bend_c, 5, 10177
7, 132790, Pitch_bend_c, 5, 10094
7, 132805, Pitch_bend_c, 5, 10012
7, 132820, Pitch_bend_c, 5, 9929
7, 132850, Pitch_bend_c, 5, 9846
7, 132865, Pitch_bend_c, 5, 9763
7, 132875, Pitch_bend_c, 5, 9681
7, 132890, Pitch_bend_c, 5, 9598
7, 132920, Pitch_bend_c, 5, 9515
7, 132935, Pitch_bend_c, 5, 9433
7, 132950, Pitch_bend_c, 5, 9350
7, 132955, Pitch_bend_c, 5, 9267
7, 132980, Pitch_bend_c, 5, 9184
7, 132995, Pitch_bend_c, 5, 9102
7, 133010, Pitch_bend_c, 5, 9019
7, 133035, Pitch_bend_c, 5, 8936
7, 133040, Pitch_bend_c, 5, 8853
7, 133060, Pitch_bend_c, 5, 8771
7, 133075, Pitch_bend_c, 5, 8688
7, 133090, Pitch_bend_c, 5, 8605
7, 133105, Pitch_bend_c, 5, 8522
7, 133110, Pitch_bend_c, 5, 8440
7, 133120, Pitch_bend_c, 5, 8357
7, 133135, Pitch_bend_c, 5, 8274
7, 133150, Pitch_bend_c, 5, 8192
7, 133260, Note_off_c, 5, 74, 78
7, 133260, Note_off_c, 5, 86, 89
7, 150210, Note_on_c, 5, 59, 107
7, 150230, Note_off_c, 5, 59, 107
7, 150240, Note_on_c, 5, 60, 107
7, 150350, Note_off_c, 5, 60, 107
7, 150360, Note_on_c, 5, 62, 107
7, 150590, Note_off_c, 5, 62, 107
7, 150600, Note_on_c, 5, 60, 107
7, 150765, Control_c, 5, 1, 1
7, 150770, Control_c, 5, 1, 3
7, 150780, Control_c, 5, 1, 5
7, 150785, Control_c, 5, 1, 7
7, 150795, Control_c, 5, 1, 9
7, 150805, Control_c, 5, 1, 10
7, 150810, Control_c, 5, 1, 12
7, 150820, Control_c, 5, 1, 14
7, 150825, Control_c, 5, 1, 17
7, 150835, Control_c, 5, 1, 19
7, 150840, Control_c, 5, 1, 22
7, 150850, Control_c, 5, 1, 26
7, 150855, Control_c, 5, 1, 29
7, 150865, Control_c, 5, 1, 31
7, 150875, Control_c, 5, 1, 36
7, 150880, Control_c, 5, 1, 38
7, 150890, Control_c, 5, 1, 42
7, 150895, Control_c, 5, 1, 45
7, 150905, Control_c, 5, 1, 47
7, 150910, Control_c, 5, 1, 50
7, 150920, Control_c, 5, 1, 52
7, 150925, Control_c, 5, 1, 53
7, 150935, Control_c, 5, 1, 54
7, 150940, Control_c, 5, 1, 55
7, 150955, Control_c, 5, 1, 57
7, 150965, Control_c, 5, 1, 58
7, 150970, Control_c, 5, 1, 59
7, 150980, Control_c, 5, 1, 60
7, 150990, Control_c, 5, 1, 61
7, 150995, Control_c, 5, 1, 63
7, 151005, Control_c, 5, 1, 65
7, 151010, Control_c, 5, 1, 68
7, 151020, Control_c, 5, 1, 69
7, 151025, Control_c, 5, 1, 70
7, 151035, Control_c, 5, 1, 71
7, 151040, Control_c, 5, 1, 74
7, 151050, Control_c, 5, 1, 75
7, 151060, Control_c, 5, 1, 77
7, 151065, Control_c, 5, 1, 78
7, 151075, Control_c, 5, 1, 79
7, 151095, Control_c, 5, 1, 80
7, 151135, Control_c, 5, 1, 82
7, 151150, Control_c, 5, 1, 83
7, 151180, Control_c, 5, 1, 84
7, 151195, Control_c, 5, 1, 85
7, 151505, Control_c, 5, 1, 84
7, 151530, Control_c, 5, 1, 83
7, 151560, Control_c, 5, 1, 82
7, 151580, Control_c, 5, 1, 80
7, 151590, Control_c, 5, 1, 79
7, 151595, Control_c, 5, 1, 78
7, 151615, Control_c, 5, 1, 77
7, 151620, Control_c, 5, 1, 75
7, 151630, Control_c, 5, 1, 73
7, 151635, Control_c, 5, 1, 69
7, 151645, Control_c, 5, 1, 65
7, 151650, Control_c, 5, 1, 59
7, 151660, Control_c, 5, 1, 51
7, 151665, Control_c, 5, 1, 42
7, 151675, Control_c, 5, 1, 30
7, 151685, Control_c, 5, 1, 18
7, 151690, Control_c, 5, 1, 9
7, 151700, Control_c, 5, 1, 0
7, 151910, Note_off_c, 5, 60, 107
7, 152130, Note_on_c, 5, 54, 105
7, 152150, Note_off_c, 5, 54, 105
7, 152160, Note_on_c, 5, 55, 105
7, 152270, Note_off_c, 5, 55, 105
7, 152280, Note_on_c, 5, 57, 106
7, 152510, Note_off_c, 5, 57, 106
7, 152520, Note_on_c, 5, 55, 107
7, 153110, Note_off_c, 5, 55, 107
7, 153120, Note_on_c, 5, 43, 107
7, 153295, Pitch_bend_c, 5, 7860
7, 153300, Pitch_bend_c, 5, 7447
7, 153310, Pitch_bend_c, 5, 7116
7, 153315, Pitch_bend_c, 5, 6867
7, 153325, Pitch_bend_c, 5, 6702
7, 153330, Pitch_bend_c, 5, 6371
7, 153340, Pitch_bend_c, 5, 6040
7, 153345, Pitch_bend_c, 5, 5709
7, 153355, Pitch_bend_c, 5, 5295
7, 153365, Pitch_bend_c, 5, 5047
7, 153370, Pitch_bend_c, 5, 4799
7, 153380, Pitch_bend_c, 5, 4468
7, 153385, Pitch_bend_c, 5, 4220
7, 153395, Pitch_bend_c, 5, 4054
7, 153400, Pitch_bend_c, 5, 3806
7, 153410, Pitch_bend_c, 5, 3392
7, 153415, Pitch_bend_c, 5, 3144
7, 153425, Pitch_bend_c, 5, 2896
7, 153430, Pitch_bend_c, 5, 2647
7, 153440, Pitch_bend_c, 5, 2482
7, 153445, Pitch_bend_c, 5, 2316
7, 153455, Pitch_bend_c, 5, 2234
7, 153460, Pitch_bend_c, 5, 2068
7, 153470, Pitch_bend_c, 5, 1820
7, 153480, Pitch_bend_c, 5, 1572
7, 153485, Pitch_bend_c, 5, 1075
7, 153495, Pitch_bend_c, 5, 827
7, 153500, Pitch_bend_c, 5, 661
7, 153510, Pitch_bend_c, 5, 413
7, 153515, Pitch_bend_c, 5, 330
7, 153525, Pitch_bend_c, 5, 165
7, 153530, Pitch_bend_c, 5, 0
7, 153565, Pitch_bend_c, 5, 82
7, 153570, Pitch_bend_c, 5, 248
7, 153580, Pitch_bend_c, 5, 579
7, 153585, Pitch_bend_c, 5, 1075
7, 153590, Note_off_c, 5, 43, 107
7, 153595, Pitch_bend_c, 5, 2151
7, 153605, Pitch_bend_c, 5, 3475
7, 153610, Pitch_bend_c, 5, 6288
7, 153620, Pitch_bend_c, 5, 8192
7, 154170, Note_on_c, 5, 59, 100
7, 154190, Note_off_c, 5, 59, 100
7, 154200, Note_on_c, 5, 60, 106
7, 154310, Note_off_c, 5, 60, 106
7, 154320, Note_on_c, 5, 61, 107
7, 154440, Note_on_c, 5, 64, 107
7, 154445, Note_off_c, 5, 61, 107
7, 154490, Note_off_c, 5, 64, 107
7, 154560, Note_on_c, 5, 69, 107
7, 154655, Note_off_c, 5, 69, 107
7, 154680, Note_on_c, 5, 67, 107
7, 154910, Note_off_c, 5, 67, 107
7, 154920, Note_on_c, 5, 64, 107
7, 155150, Note_off_c, 5, 64, 107
7, 155160, Note_on_c, 5, 62, 107
7, 155270, Note_off_c, 5, 62, 107
7, 155280, Note_on_c, 5, 61, 98
7, 155315, Control_c, 5, 1, 9
7, 155320, Control_c, 5, 1, 18
7, 155330, Control_c, 5, 1, 26
7, 155335, Control_c, 5, 1, 36
7, 155345, Control_c, 5, 1, 43
7, 155350, Control_c, 5, 1, 50
7, 155360, Control_c, 5, 1, 58
7, 155370, Control_c, 5, 1, 65
7, 155375, Control_c, 5, 1, 70
7, 155385, Control_c, 5, 1, 75
7, 155390, Control_c, 5, 1, 79
7, 155400, Control_c, 5, 1, 82
7, 155405, Control_c, 5, 1, 84
7, 155415, Control_c, 5, 1, 87
7, 155520, Note_off_c, 5, 61, 98
7, 155590, Control_c, 5, 1, 84
7, 155600, Control_c, 5, 1, 78
7, 155605, Control_c, 5, 1, 71
7, 155615, Control_c, 5, 1, 60
7, 155620, Control_c, 5, 1, 47
7, 155630, Control_c, 5, 1, 35
7, 155635, Control_c, 5, 1, 14
7, 155645, Control_c, 5, 1, 0
7, 155940, Control_c, 5, 1, 7
7, 155945, Control_c, 5, 1, 17
7, 155955, Control_c, 5, 1, 27
7, 155960, Control_c, 5, 1, 38
7, 155970, Control_c, 5, 1, 49
7, 155970, Note_on_c, 5, 63, 104
7, 155975, Control_c, 5, 1, 58
7, 155985, Control_c, 5, 1, 66
7, 155990, Control_c, 5, 1, 73
7, 155990, Note_off_c, 5, 63, 104
7, 156000, Control_c, 5, 1, 78
7, 156000, Note_on_c, 5, 64, 107
7, 156005, Control_c, 5, 1, 82
7, 156015, Control_c, 5, 1, 83
7, 156090, Control_c, 5, 1, 80
7, 156100, Control_c, 5, 1, 75
7, 156110, Control_c, 5, 1, 59
7, 156110, Note_off_c, 5, 64, 107
7, 156115, Control_c, 5, 1, 31
7, 156120, Note_on_c, 5, 65, 107
7, 156125, Control_c, 5, 1, 0
7, 156350, Note_off_c, 5, 65, 107
7, 156360, Note_on_c, 5, 64, 107
7, 157185, Control_c, 5, 1, 3
7, 157195, Control_c, 5, 1, 15
7, 157205, Control_c, 5, 1, 29
7, 157210, Control_c, 5, 1, 45
7, 157220, Control_c, 5, 1, 58
7, 157225, Control_c, 5, 1, 68
7, 157235, Control_c, 5, 1, 77
7, 157240, Control_c, 5, 1, 86
7, 157250, Control_c, 5, 1, 91
7, 157255, Control_c, 5, 1, 94
7, 157265, Control_c, 5, 1, 96
7, 157295, Control_c, 5, 1, 98
7, 157310, Control_c, 5, 1, 99
7, 157335, Control_c, 5, 1, 100
7, 157395, Control_c, 5, 1, 95
7, 157405, Control_c, 5, 1, 86
7, 157410, Control_c, 5, 1, 76
7, 157420, Control_c, 5, 1, 51
7, 157430, Control_c, 5, 1, 10
7, 157430, Note_off_c, 5, 64, 107
7, 157435, Control_c, 5, 1, 0
7, 157890, Note_on_c, 5, 68, 99
7, 157895, Note_on_c, 5, 65, 99
7, 157910, Note_off_c, 5, 68, 99
7, 157915, Note_off_c, 5, 65, 99
7, 157920, Note_on_c, 5, 66, 99
7, 157920, Note_on_c, 5, 69, 99
7, 158030, Note_off_c, 5, 66, 99
7, 158030, Note_off_c, 5, 69, 99
7, 158040, Note_on_c, 5, 67, 100
7, 158040, Note_on_c, 5, 71, 100
7, 158270, Note_off_c, 5, 67, 100
7, 158270, Note_off_c, 5, 71, 100
7, 158280, Note_on_c, 5, 69, 101
7, 158280, Note_on_c, 5, 66, 101
7, 158350, Control_c, 5, 1, 4
7, 158360, Control_c, 5, 1, 12
7, 158365, Control_c, 5, 1, 19
7, 158375, Control_c, 5, 1, 27
7, 158380, Control_c, 5, 1, 34
7, 158390, Control_c, 5, 1, 38
7, 158395, Control_c, 5, 1, 43
7, 158405, Control_c, 5, 1, 46
7, 158415, Control_c, 5, 1, 47
7, 158420, Control_c, 5, 1, 50
7, 158475, Control_c, 5, 1, 51
7, 158480, Control_c, 5, 1, 52
7, 158490, Control_c, 5, 1, 53
7, 158500, Control_c, 5, 1, 57
7, 158505, Control_c, 5, 1, 59
7, 158515, Control_c, 5, 1, 62
7, 158520, Control_c, 5, 1, 67
7, 158530, Control_c, 5, 1, 69
7, 158535, Control_c, 5, 1, 73
7, 158545, Control_c, 5, 1, 76
7, 158550, Control_c, 5, 1, 80
7, 158560, Control_c, 5, 1, 83
7, 158570, Control_c, 5, 1, 87
7, 158575, Control_c, 5, 1, 91
7, 158585, Control_c, 5, 1, 94
7, 158590, Control_c, 5, 1, 96
7, 158600, Control_c, 5, 1, 100
7, 158605, Control_c, 5, 1, 103
7, 158615, Control_c, 5, 1, 106
7, 158620, Control_c, 5, 1, 108
7, 158630, Control_c, 5, 1, 111
7, 158635, Control_c, 5, 1, 114
7, 158645, Control_c, 5, 1, 116
7, 158660, Control_c, 5, 1, 118
7, 158665, Control_c, 5, 1, 119
7, 158675, Control_c, 5, 1, 120
7, 158685, Control_c, 5, 1, 123
7, 158690, Control_c, 5, 1, 124
7, 158700, Control_c, 5, 1, 126
7, 158715, Control_c, 5, 1, 127
7, 159290, Note_off_c, 5, 69, 101
7, 159290, Note_off_c, 5, 66, 101
7, 159325, Control_c, 5, 1, 115
7, 159330, Control_c, 5, 1, 93
7, 159340, Control_c, 5, 1, 60
7, 159345, Control_c, 5, 1, 0
7, 159360, Note_on_c, 5, 68, 95
7, 159360, Note_on_c, 5, 71, 95
7, 160450, Pitch_bend_c, 5, 8191
7, 160455, Pitch_bend_c, 5, 7943
7, 160465, Pitch_bend_c, 5, 7612
7, 160470, Pitch_bend_c, 5, 7364
7, 160480, Pitch_bend_c, 5, 7033
7, 160490, Pitch_bend_c, 5, 6785
7, 160495, Pitch_bend_c, 5, 6536
7, 160505, Pitch_bend_c, 5, 6288
7, 160510, Pitch_bend_c, 5, 6123
7, 160520, Pitch_bend_c, 5, 6040
7, 160525, Pitch_bend_c, 5, 5957
7, 160535, Pitch_bend_c, 5, 5792
7, 160540, Pitch_bend_c, 5, 5626
7, 160550, Pitch_bend_c, 5, 5461
7, 160555, Pitch_bend_c, 5, 5378
7, 160580, Pitch_bend_c, 5, 5295
7, 160585, Pitch_bend_c, 5, 5213
7, 160595, Pitch_bend_c, 5, 5130
7, 160605, Pitch_bend_c, 5, 5047
7, 160610, Pitch_bend_c, 5, 4964
7, 160620, Pitch_bend_c, 5, 4882
7, 160640, Pitch_bend_c, 5, 4799
7, 160650, Pitch_bend_c, 5, 4716
7, 160655, Pitch_bend_c, 5, 4633
7, 160670, Pitch_bend_c, 5, 4551
7, 160685, Pitch_bend_c, 5, 4468
7, 160715, Pitch_bend_c, 5, 4385
7, 160725, Pitch_bend_c, 5, 4302
7, 160735, Pitch_bend_c, 5, 4220
7, 160740, Pitch_bend_c, 5, 4137
7, 160750, Pitch_bend_c, 5, 4054
7, 160765, Pitch_bend_c, 5, 3971
7, 160770, Pitch_bend_c, 5, 3889
7, 160780, Pitch_bend_c, 5, 3806
7, 160790, Pitch_bend_c, 5, 3723
7, 160795, Pitch_bend_c, 5, 3640
7, 160800, Pitch_bend_c, 5, 3558
7, 160810, Pitch_bend_c, 5, 3392
7, 160820, Pitch_bend_c, 5, 3309
7, 160825, Pitch_bend_c, 5, 3227
7, 160835, Pitch_bend_c, 5, 3144
7, 160840, Pitch_bend_c, 5, 3061
7, 160855, Pitch_bend_c, 5, 2978
7, 160865, Pitch_bend_c, 5, 2896
7, 160870, Pitch_bend_c, 5, 2813
7, 160880, Pitch_bend_c, 5, 2730
7, 160885, Pitch_bend_c, 5, 2647
7, 160895, Pitch_bend_c, 5, 2482
7, 160900, Pitch_bend_c, 5, 2399
7, 160910, Pitch_bend_c, 5, 2316
7, 160915, Pitch_bend_c, 5, 2234
7, 160925, Pitch_bend_c, 5, 2151
7, 160935, Pitch_bend_c, 5, 2068
7, 160940, Pitch_bend_c, 5, 1985
7, 160950, Pitch_bend_c, 5, 1903
7, 160955, Pitch_bend_c, 5, 1737
7, 160965, Pitch_bend_c, 5, 1654
7, 160980, Pitch_bend_c, 5, 1572
7, 160995, Pitch_bend_c, 5, 1489
7, 161005, Pitch_bend_c, 5, 1406
7, 161010, Pitch_bend_c, 5, 1323
7, 161020, Pitch_bend_c, 5, 1241
7, 161025, Pitch_bend_c, 5, 1158
7, 161035, Pitch_bend_c, 5, 1075
7, 161040, Pitch_bend_c, 5, 992
7, 161050, Pitch_bend_c, 5, 827
7, 161060, Note_off_c, 5, 68, 95
7, 161060, Note_off_c, 5, 71, 95
7, 161070, Pitch_bend_c, 5, 744
7, 161080, Pitch_bend_c, 5, 661
7, 161090, Pitch_bend_c, 5, 579
7, 161095, Pitch_bend_c, 5, 413
7, 161105, Pitch_bend_c, 5, 330
7, 161120, Pitch_bend_c, 5, 248
7, 161155, Pitch_bend_c, 5, 413
7, 161165, Pitch_bend_c, 5, 2068
7, 161170, Pitch_bend_c, 5, 6702
7, 161180, Pitch_bend_c, 5, 8192
7, 161280, Note_on_c, 5, 76, 93
7, 161615, Control_c, 5, 1, 1
7, 161625, Control_c, 5, 1, 3
7, 161630, Control_c, 5, 1, 5
7, 161640, Control_c, 5, 1, 7
7, 161645, Control_c, 5, 1, 10
7, 161655, Control_c, 5, 1, 13
7, 161660, Control_c, 5, 1, 15
7, 161670, Control_c, 5, 1, 18
7, 161675, Control_c, 5, 1, 20
7, 161685, Control_c, 5, 1, 23
7, 161690, Control_c, 5, 1, 26
7, 161700, Control_c, 5, 1, 28
7, 161705, Control_c, 5, 1, 30
7, 161715, Control_c, 5, 1, 33
7, 161720, Control_c, 5, 1, 36
7, 161730, Control_c, 5, 1, 37
7, 161740, Control_c, 5, 1, 38
7, 161745, Control_c, 5, 1, 41
7, 161755, Control_c, 5, 1, 43
7, 161760, Control_c, 5, 1, 44
7, 161770, Control_c, 5, 1, 45
7, 161775, Control_c, 5, 1, 46
7, 161785, Control_c, 5, 1, 47
7, 161790, Control_c, 5, 1, 49
7, 161800, Control_c, 5, 1, 50
7, 161805, Control_c, 5, 1, 51
7, 161815, Control_c, 5, 1, 53
7, 161820, Control_c, 5, 1, 54
7, 161830, Control_c, 5, 1, 55
7, 161835, Control_c, 5, 1, 57
7, 161855, Control_c, 5, 1, 58
7, 161860, Control_c, 5, 1, 59
7, 161885, Control_c, 5, 1, 60
7, 161920, Control_c, 5, 1, 61
7, 162020, Control_c, 5, 1, 62
7, 162130, Control_c, 5, 1, 63
7, 162170, Control_c, 5, 1, 65
7, 162260, Control_c, 5, 1, 66
7, 162290, Control_c, 5, 1, 67
7, 162350, Control_c, 5, 1, 68
7, 162375, Control_c, 5, 1, 69
7, 162415, Control_c, 5, 1, 70
7, 162480, Control_c, 5, 1, 71
7, 163115, Note_off_c, 5, 76, 93
7, 163135, Control_c, 5, 1, 70
7, 163145, Control_c, 5, 1, 69
7, 163150, Control_c, 5, 1, 66
7, 163160, Control_c, 5, 1, 62
7, 163165, Control_c, 5, 1, 58
7, 163175, Control_c, 5, 1, 51
7, 163180, Control_c, 5, 1, 43
7, 163190, Control_c, 5, 1, 23
7, 163195, Control_c, 5, 1, 0
7, 163195, Note_on_c, 5, 76, 100
7, 163220, Note_off_c, 5, 76, 100
7, 163260, Note_on_c, 5, 76, 98
7, 163335, Note_off_c, 5, 76, 98
7, 163380, Note_on_c, 5, 76, 85
7, 163410, Note_off_c, 5, 76, 85
7, 163440, Note_on_c, 5, 76, 82
7, 163500, Note_off_c, 5, 76, 82
7, 163555, Note_on_c, 5, 76, 105
7, 163585, Note_off_c, 5, 76, 105
7, 163620, Note_on_c, 5, 76, 87
7, 163670, Note_off_c, 5, 76, 87
7, 163740, Note_on_c, 5, 76, 80
7, 163760, Note_off_c, 5, 76, 80
7, 163785, Note_on_c, 5, 76, 72
7, 163835, Note_off_c, 5, 76, 72
7, 163905, Note_on_c, 5, 76, 100
7, 163965, Note_off_c, 5, 76, 100
7, 164020, Note_on_c, 5, 76, 82
7, 164090, Note_off_c, 5, 76, 82
7, 164145, Note_on_c, 5, 76, 87
7, 164170, Note_off_c, 5, 76, 87
7, 164210, Note_on_c, 5, 76, 95
7, 164270, Note_off_c, 5, 76, 95
7, 164345, Note_on_c, 5, 76, 57
7, 164360, Note_off_c, 5, 76, 57
7, 164395, Note_on_c, 5, 76, 98
7, 164450, Note_off_c, 5, 76, 98
7, 164525, Note_on_c, 5, 76, 66
7, 164540, Note_off_c, 5, 76, 66
7, 164575, Note_on_c, 5, 76, 89
7, 164630, Note_off_c, 5, 76, 89
7, 164700, Note_on_c, 5, 76, 78
7, 164720, Note_off_c, 5, 76, 78
7, 164750, Note_on_c, 5, 76, 78
7, 164805, Note_off_c, 5, 76, 78
7, 164870, Note_on_c, 5, 76, 98
7, 164925, Note_off_c, 5, 76, 98
7, 164980, Note_on_c, 5, 76, 80
7, 165050, Note_off_c, 5, 76, 80
7, 165100, Note_on_c, 5, 76, 102
7, 165275, Control_c, 5, 1, 2
7, 165285, Control_c, 5, 1, 4
7, 165290, Control_c, 5, 1, 7
7, 165300, Control_c, 5, 1, 10
7, 165310, Control_c, 5, 1, 12
7, 165315, Control_c, 5, 1, 14
7, 165325, Control_c, 5, 1, 18
7, 165330, Control_c, 5, 1, 20
7, 165340, Control_c, 5, 1, 23
7, 165345, Control_c, 5, 1, 28
7, 165355, Control_c, 5, 1, 31
7, 165360, Control_c, 5, 1, 35
7, 165370, Control_c, 5, 1, 38
7, 165375, Control_c, 5, 1, 41
7, 165385, Control_c, 5, 1, 43
7, 165395, Control_c, 5, 1, 45
7, 165400, Control_c, 5, 1, 46
7, 165405, Control_c, 5, 1, 47
7, 165415, Control_c, 5, 1, 49
7, 165420, Control_c, 5, 1, 50
7, 165440, Control_c, 5, 1, 51
7, 165445, Control_c, 5, 1, 52
7, 165455, Control_c, 5, 1, 53
7, 165460, Control_c, 5, 1, 54
7, 165470, Control_c, 5, 1, 55
7, 165475, Control_c, 5, 1, 57
7, 165485, Control_c, 5, 1, 58
7, 165490, Control_c, 5, 1, 59
7, 165505, Control_c, 5, 1, 60
7, 165525, Control_c, 5, 1, 61
7, 165535, Control_c, 5, 1, 62
7, 165545, Control_c, 5, 1, 63
7, 165560, Control_c, 5, 1, 65
7, 165575, Control_c, 5, 1, 66
7, 165585, Control_c, 5, 1, 67
7, 165605, Control_c, 5, 1, 68
7, 165630, Control_c, 5, 1, 69
7, 165685, Control_c, 5, 1, 70
7, 165790, Control_c, 5, 1, 71
7, 165820, Control_c, 5, 1, 73
7, 165885, Control_c, 5, 1, 74
7, 165890, Control_c, 5, 1, 75
7, 165900, Control_c, 5, 1, 76
7, 165915, Control_c, 5, 1, 77
7, 165920, Control_c, 5, 1, 78
7, 165930, Control_c, 5, 1, 79
7, 165945, Control_c, 5, 1, 80
7, 165950, Control_c, 5, 1, 82
7, 165960, Control_c, 5, 1, 83
7, 165970, Control_c, 5, 1, 85
7, 165975, Control_c, 5, 1, 86
7, 165980, Control_c, 5, 1, 87
7, 165990, Control_c, 5, 1, 88
7, 165995, Control_c, 5, 1, 90
7, 166015, Control_c, 5, 1, 91
7, 166035, Control_c, 5, 1, 92
7, 166050, Control_c, 5, 1, 93
7, 166075, Control_c, 5, 1, 94
7, 166150, Control_c, 5, 1, 92
7, 166160, Control_c, 5, 1, 90
7, 166165, Control_c, 5, 1, 86
7, 166175, Control_c, 5, 1, 82
7, 166180, Control_c, 5, 1, 79
7, 166190, Control_c, 5, 1, 76
7, 166200, Control_c, 5, 1, 73
7, 166205, Control_c, 5, 1, 71
7, 166215, Control_c, 5, 1, 68
7, 166220, Control_c, 5, 1, 65
7, 166230, Control_c, 5, 1, 63
7, 166235, Control_c, 5, 1, 60
7, 166245, Control_c, 5, 1, 58
7, 166250, Control_c, 5, 1, 55
7, 166260, Control_c, 5, 1, 52
7, 166265, Control_c, 5, 1, 49
7, 166275, Control_c, 5, 1, 45
7, 166280, Control_c, 5, 1, 39
7, 166290, Control_c, 5, 1, 36
7, 166295, Control_c, 5, 1, 31
7, 166305, Control_c, 5, 1, 25
7, 166315, Control_c, 5, 1, 17
7, 166320, Control_c, 5, 1, 9
7, 166330, Control_c, 5, 1, 0
7, 166735, Pitch_bend_c, 5, 8191
7, 166745, Pitch_bend_c, 5, 8026
7, 166750, Pitch_bend_c, 5, 7943
7, 166760, Pitch_bend_c, 5, 7860
7, 166765, Pitch_bend_c, 5, 7695
7, 166775, Pitch_bend_c, 5, 7612
7, 166780, Pitch_bend_c, 5, 7529
7, 166790, Pitch_bend_c, 5, 7364
7, 166825, Pitch_bend_c, 5, 7281
7, 166840, Pitch_bend_c, 5, 7198
7, 166850, Pitch_bend_c, 5, 7033
7, 166855, Pitch_bend_c, 5, 6867
7, 166865, Pitch_bend_c, 5, 6785
7, 166875, Pitch_bend_c, 5, 6702
7, 166880, Pitch_bend_c, 5, 6454
7, 166890, Pitch_bend_c, 5, 6371
7, 166895, Pitch_bend_c, 5, 6205
7, 166910, Pitch_bend_c, 5, 6123
7, 166920, Pitch_bend_c, 5, 6040
7, 166925, Pitch_bend_c, 5, 5957
7, 166935, Pitch_bend_c, 5, 5874
7, 166940, Pitch_bend_c, 5, 5792
7, 166980, Pitch_bend_c, 5, 5709
7, 167355, Pitch_bend_c, 5, 5792
7, 167365, Pitch_bend_c, 5, 5874
7, 167380, Pitch_bend_c, 5, 5957
7, 167395, Pitch_bend_c, 5, 6040
7, 167405, Pitch_bend_c, 5, 6123
7, 167410, Pitch_bend_c, 5, 6205
7, 167420, Pitch_bend_c, 5, 6288
7, 167440, Pitch_bend_c, 5, 6371
7, 167450, Pitch_bend_c, 5, 6454
7, 167455, Pitch_bend_c, 5, 6536
7, 167465, Pitch_bend_c, 5, 6619
7, 167480, Pitch_bend_c, 5, 6702
7, 167485, Pitch_bend_c, 5, 6785
7, 167505, Pitch_bend_c, 5, 6867
7, 167535, Pitch_bend_c, 5, 6950
7, 167540, Pitch_bend_c, 5, 7033
7, 167550, Pitch_bend_c, 5, 7116
7, 167565, Pitch_bend_c, 5, 7198
7, 167595, Pitch_bend_c, 5, 7281
7, 167610, Pitch_bend_c, 5, 7364
7, 167620, Pitch_bend_c, 5, 7447
7, 167665, Pitch_bend_c, 5, 7529
7, 167680, Pitch_bend_c, 5, 7612
7, 167715, Pitch_bend_c, 5, 7695
7, 167735, Pitch_bend_c, 5, 7778
7, 167740, Pitch_bend_c, 5, 7860
7, 167750, Pitch_bend_c, 5, 7943
7, 167755, Pitch_bend_c, 5, 8026
7, 167765, Pitch_bend_c, 5, 8109
7, 167770, Pitch_bend_c, 5, 8191
7, 167780, Pitch_bend_c, 5, 8192
7, 168480, Control_c, 5, 1, 2
7, 168485, Control_c, 5, 1, 4
7, 168495, Control_c, 5, 1, 7
7, 168500, Control_c, 5, 1, 9
7, 168510, Control_c, 5, 1, 12
7, 168515, Control_c, 5, 1, 14
7, 168525, Control_c, 5, 1, 17
7, 168530, Control_c, 5, 1, 18
7, 168540, Control_c, 5, 1, 19
7, 168545, Control_c, 5, 1, 21
7, 168555, Control_c, 5, 1, 22
7, 168560, Control_c, 5, 1, 23
7, 168570, Control_c, 5, 1, 25
7, 168580, Control_c, 5, 1, 26
7, 168585, Control_c, 5, 1, 28
7, 168600, Control_c, 5, 1, 29
7, 168610, Control_c, 5, 1, 31
7, 168625, Control_c, 5, 1, 33
7, 168630, Control_c, 5, 1, 35
7, 168640, Control_c, 5, 1, 36
7, 168655, Control_c, 5, 1, 37
7, 168665, Control_c, 5, 1, 38
7, 168680, Control_c, 5, 1, 39
7, 168685, Control_c, 5, 1, 41
7, 168695, Control_c, 5, 1, 42
7, 168700, Control_c, 5, 1, 43
7, 168710, Control_c, 5, 1, 44
7, 168715, Control_c, 5, 1, 45
7, 168725, Control_c, 5, 1, 46
7, 168735, Control_c, 5, 1, 47
7, 168740, Control_c, 5, 1, 50
7, 168750, Control_c, 5, 1, 51
7, 168755, Control_c, 5, 1, 53
7, 168765, Control_c, 5, 1, 54
7, 168770, Control_c, 5, 1, 57
7, 168780, Control_c, 5, 1, 58
7, 168785, Control_c, 5, 1, 59
7, 168795, Control_c, 5, 1, 60
7, 168800, Control_c, 5, 1, 61
7, 168810, Control_c, 5, 1, 62
7, 168815, Control_c, 5, 1, 65
7, 168825, Control_c, 5, 1, 66
7, 168830, Control_c, 5, 1, 68
7, 168840, Control_c, 5, 1, 69
7, 168845, Control_c, 5, 1, 70
7, 168865, Control_c, 5, 1, 71
7, 168900, Note_off_c, 5, 76, 102
7, 168950, Control_c, 5, 1, 66
7, 168955, Control_c, 5, 1, 59
7, 168955, Note_on_c, 5, 76, 100
7, 168965, Control_c, 5, 1, 50
7, 168970, Control_c, 5, 1, 43
7, 168980, Control_c, 5, 1, 23
7, 168980, Note_off_c, 5, 76, 100
7, 168985, Control_c, 5, 1, 0
7, 169020, Note_on_c, 5, 76, 85
7, 169095, Note_off_c, 5, 76, 85
7, 169145, Note_on_c, 5, 76, 87
7, 169170, Note_off_c, 5, 76, 87
7, 169205, Note_on_c, 5, 76, 89
7, 169260, Note_off_c, 5, 76, 89
7, 169315, Note_on_c, 5, 76, 68
7, 169335, Note_off_c, 5, 76, 68
7, 169375, Note_on_c, 5, 76, 87
7, 169415, Note_off_c, 5, 76, 87
7, 169505, Note_on_c, 5, 76, 52
7, 169520, Note_off_c, 5, 76, 52
7, 169560, Note_on_c, 5, 76, 82
7, 169620, Note_off_c, 5, 76, 82
7, 169670, Note_on_c, 5, 76, 100
7, 169750, Note_off_c, 5, 76, 100
7, 169790, Note_on_c, 5, 76, 82
7, 169860, Note_off_c, 5, 76, 82
7, 169905, Note_on_c, 5, 76, 93
7, 169930, Note_off_c, 5, 76, 93
7, 169970, Note_on_c, 5, 76, 102
7, 170025, Note_off_c, 5, 76, 102
7, 170090, Note_on_c, 5, 76, 66
7, 170110, Note_off_c, 5, 76, 66
7, 170140, Note_on_c, 5, 76, 95
7, 170200, Note_off_c, 5, 76, 95
7, 170255, Note_on_c, 5, 76, 85
7, 170280, Note_off_c, 5, 76, 85
7, 170310, Note_on_c, 5, 76, 89
7, 170370, Note_off_c, 5, 76, 89
7, 170430, Note_on_c, 5, 76, 80
7, 170460, Note_off_c, 5, 76, 80
7, 170495, Note_on_c, 5, 76, 82
7, 170555, Note_off_c, 5, 76, 82
7, 170615, Note_on_c, 5, 76, 102
7, 170745, Note_on_c, 5, 74, 105
7, 170750, Note_off_c, 5, 76, 102
7, 170850, Note_off_c, 5, 74, 105
7, 170870, Note_on_c, 5, 75, 82
7, 170885, Note_on_c, 5, 76, 107
7, 170885, Note_off_c, 5, 75, 82
7, 171380, Control_c, 5, 1, 1
7, 171390, Control_c, 5, 1, 4
7, 171395, Control_c, 5, 1, 7
7, 171405, Control_c, 5, 1, 11
7, 171410, Control_c, 5, 1, 14
7, 171420, Control_c, 5, 1, 18
7, 171425, Control_c, 5, 1, 19
7, 171435, Control_c, 5, 1, 22
7, 171440, Control_c, 5, 1, 26
7, 171450, Control_c, 5, 1, 29
7, 171460, Control_c, 5, 1, 33
7, 171465, Control_c, 5, 1, 36
7, 171475, Control_c, 5, 1, 38
7, 171480, Control_c, 5, 1, 41
7, 171490, Control_c, 5, 1, 43
7, 171495, Control_c, 5, 1, 46
7, 171505, Control_c, 5, 1, 47
7, 171510, Control_c, 5, 1, 50
7, 171520, Control_c, 5, 1, 52
7, 171525, Control_c, 5, 1, 53
7, 171535, Control_c, 5, 1, 54
7, 171540, Control_c, 5, 1, 57
7, 171555, Control_c, 5, 1, 58
7, 171565, Control_c, 5, 1, 59
7, 171580, Control_c, 5, 1, 60
7, 171590, Control_c, 5, 1, 62
7, 171605, Control_c, 5, 1, 63
7, 171610, Control_c, 5, 1, 65
7, 171620, Control_c, 5, 1, 66
7, 171625, Control_c, 5, 1, 67
7, 171635, Control_c, 5, 1, 68
7, 171640, Control_c, 5, 1, 69
7, 171660, Control_c, 5, 1, 70
7, 171665, Control_c, 5, 1, 71
7, 171680, Control_c, 5, 1, 73
7, 171690, Control_c, 5, 1, 74
7, 171705, Control_c, 5, 1, 75
7, 171710, Control_c, 5, 1, 76
7, 171720, Control_c, 5, 1, 78
7, 171725, Control_c, 5, 1, 79
7, 171750, Control_c, 5, 1, 80
7, 171765, Control_c, 5, 1, 82
7, 171780, Control_c, 5, 1, 83
7, 171790, Control_c, 5, 1, 84
7, 171805, Control_c, 5, 1, 85
7, 171820, Control_c, 5, 1, 86
7, 171865, Control_c, 5, 1, 87
7, 171950, Control_c, 5, 1, 88
7, 172035, Control_c, 5, 1, 90
7, 172110, Control_c, 5, 1, 91
7, 172155, Control_c, 5, 1, 92
7, 172725, Control_c, 5, 1, 93
7, 172810, Control_c, 5, 1, 94
7, 172955, Control_c, 5, 1, 95
7, 173115, Control_c, 5, 1, 94
7, 173140, Control_c, 5, 1, 93
7, 173225, Control_c, 5, 1, 92
7, 173310, Control_c, 5, 1, 93
7, 173315, Control_c, 5, 1, 94
7, 173330, Control_c, 5, 1, 95
7, 173350, Control_c, 5, 1, 96
7, 173430, Control_c, 5, 1, 98
7, 173685, Control_c, 5, 1, 96
7, 173885, Control_c, 5, 1, 95
7, 173900, Control_c, 5, 1, 94
7, 173905, Control_c, 5, 1, 93
7, 173915, Control_c, 5, 1, 92
7, 173930, Control_c, 5, 1, 91
7, 173945, Control_c, 5, 1, 90
7, 173970, Control_c, 5, 1, 88
7, 173985, Control_c, 5, 1, 87
7, 174265, Control_c, 5, 1, 86
7, 174275, Control_c, 5, 1, 85
7, 174285, Control_c, 5, 1, 83
7, 174290, Control_c, 5, 1, 82
7, 174300, Control_c, 5, 1, 79
7, 174305, Control_c, 5, 1, 76
7, 174315, Control_c, 5, 1, 73
7, 174320, Control_c, 5, 1, 68
7, 174330, Control_c, 5, 1, 60
7, 174335, Control_c, 5, 1, 52
7, 174345, Control_c, 5, 1, 45
7, 174350, Note_off_c, 5, 76, 107
7, 174355, Control_c, 5, 1, 36
7, 174360, Control_c, 5, 1, 23
7, 174360, Note_on_c, 5, 74, 98
7, 174365, Control_c, 5, 1, 15
7, 174375, Control_c, 5, 1, 5
7, 174385, Control_c, 5, 1, 0
7, 174560, Note_off_c, 5, 74, 98
7, 174600, Note_on_c, 5, 71, 82
7, 174710, Note_off_c, 5, 71, 82
7, 174720, Note_on_c, 5, 76, 98
7, 174825, Control_c, 5, 1, 1
7, 174830, Control_c, 5, 1, 3
7, 174840, Control_c, 5, 1, 6
7, 174850, Control_c, 5, 1, 9
7, 174855, Control_c, 5, 1, 12
7, 174865, Control_c, 5, 1, 15
7, 174870, Control_c, 5, 1, 18
7, 174880, Control_c, 5, 1, 21
7, 174885, Control_c, 5, 1, 25
7, 174895, Control_c, 5, 1, 29
7, 174900, Control_c, 5, 1, 33
7, 174910, Control_c, 5, 1, 36
7, 174915, Control_c, 5, 1, 38
7, 174925, Control_c, 5, 1, 42
7, 174935, Control_c, 5, 1, 45
7, 174940, Control_c, 5, 1, 47
7, 174945, Control_c, 5, 1, 50
7, 174955, Control_c, 5, 1, 52
7, 174965, Control_c, 5, 1, 54
7, 174970, Control_c, 5, 1, 57
7, 174980, Control_c, 5, 1, 59
7, 174985, Control_c, 5, 1, 61
7, 174995, Control_c, 5, 1, 62
7, 175010, Control_c, 5, 1, 63
7, 175025, Control_c, 5, 1, 65
7, 175040, Control_c, 5, 1, 66
7, 175045, Control_c, 5, 1, 67
7, 175065, Control_c, 5, 1, 68
7, 175070, Control_c, 5, 1, 69
7, 175080, Control_c, 5, 1, 70
7, 175085, Control_c, 5, 1, 71
7, 175095, Control_c, 5, 1, 73
7, 175110, Control_c, 5, 1, 74
7, 175115, Control_c, 5, 1, 75
7, 175125, Control_c, 5, 1, 76
7, 175130, Control_c, 5, 1, 77
7, 175140, Control_c, 5, 1, 78
7, 175150, Control_c, 5, 1, 79
7, 176050, Control_c, 5, 1, 78
7, 176085, Control_c, 5, 1, 77
7, 176105, Control_c, 5, 1, 76
7, 176150, Control_c, 5, 1, 75
7, 176395, Control_c, 5, 1, 74
7, 176445, Control_c, 5, 1, 73
7, 176580, Control_c, 5, 1, 71
7, 176600, Control_c, 5, 1, 70
7, 176635, Control_c, 5, 1, 69
7, 176670, Control_c, 5, 1, 68
7, 176675, Control_c, 5, 1, 67
7, 176690, Control_c, 5, 1, 66
7, 176700, Control_c, 5, 1, 65
7, 176705, Control_c, 5, 1, 63
7, 176715, Control_c, 5, 1, 62
7, 176720, Control_c, 5, 1, 61
7, 176730, Control_c, 5, 1, 60
7, 176735, Control_c, 5, 1, 58
7, 176745, Control_c, 5, 1, 55
7, 176750, Control_c, 5, 1, 52
7, 176760, Control_c, 5, 1, 49
7, 176765, Control_c, 5, 1, 46
7, 176775, Control_c, 5, 1, 43
7, 176785, Control_c, 5, 1, 39
7, 176790, Control_c, 5, 1, 37
7, 176800, Control_c, 5, 1, 34
7, 176805, Control_c, 5, 1, 30
7, 176815, Control_c, 5, 1, 28
7, 176820, Control_c, 5, 1, 23
7, 176830, Control_c, 5, 1, 21
7, 176835, Control_c, 5, 1, 19
7, 176845, Control_c, 5, 1, 17
7, 176850, Control_c, 5, 1, 14
7, 176860, Control_c, 5, 1, 12
7, 176865, Control_c, 5, 1, 9
7, 176875, Control_c, 5, 1, 7
7, 176880, Control_c, 5, 1, 4
7, 176890, Control_c, 5, 1, 2
7, 176900, Control_c, 5, 1, 0
7, 178165, Note_off_c, 5, 76, 98
7, 184320, End_track
8, 0, Start_track
8, 0, Key_signature, 0, "major"
8, 1, Control_c, 6, 99, 1
8, 1, Control_c, 6, 98, 8
8, 1, Control_c, 6, 6, 64
8, 2, Control_c, 6, 99, 1
8, 2, Control_c, 6, 98, 9
8, 2, Control_c, 6, 6, 64
8, 3, Control_c, 6, 99, 1
8, 3, Control_c, 6, 98, 10
8, 3, Control_c, 6, 6, 64
8, 4, Control_c, 6, 99, 1
8, 4, Control_c, 6, 98, 32
8, 4, Control_c, 6, 6, 64
8, 5, Control_c, 6, 99, 1
8, 5, Control_c, 6, 98, 33
8, 5, Control_c, 6, 6, 64
8, 6, Control_c, 6, 99, 1
8, 6, Control_c, 6, 98, 99
8, 6, Control_c, 6, 6, 64
8, 7, Control_c, 6, 99, 1
8, 7, Control_c, 6, 98, 100
8, 7, Control_c, 6, 6, 64
8, 8, Control_c, 6, 99, 1
8, 8, Control_c, 6, 98, 102
8, 8, Control_c, 6, 6, 64
8, 9, Control_c, 6, 0, 0
8, 10, Program_c, 6, 21
8, 11, Control_c, 6, 7, 100
8, 12, Control_c, 6, 10, 64
8, 13, Control_c, 6, 91, 120
8, 14, Control_c, 6, 93, 120
8, 15, Control_c, 6, 101, 0
8, 15, Control_c, 6, 100, 0
8, 15, Control_c, 6, 6, 2
8, 15, Title_t, "M #7"
8, 15, Channel_prefix, 6
8, 15, Instrument_name_t, "M #7"
8, 2350, Control_c, 6, 121, 0
8, 2555, Control_c, 6, 32, 0
8, 2565, Control_c, 6, 11, 127
8, 3030, Control_c, 6, 101, 0
8, 3035, Control_c, 6, 100, 0
8, 3040, Control_c, 6, 6, 12
8, 3045, Control_c, 6, 101, 127
8, 3050, Control_c, 6, 100, 127
8, 55680, Note_on_c, 6, 64, 82
8, 55680, Note_on_c, 6, 60, 82
8, 55680, Note_on_c, 6, 55, 82
8, 57590, Note_off_c, 6, 60, 82
8, 57590, Note_off_c, 6, 55, 82
8, 57600, Note_on_c, 6, 56, 82
8, 57600, Note_on_c, 6, 59, 82
8, 59510, Note_off_c, 6, 56, 82
8, 59510, Note_off_c, 6, 59, 82
8, 59510, Note_off_c, 6, 64, 82
8, 59520, Note_on_c, 6, 57, 82
8, 59520, Note_on_c, 6, 65, 82
8, 59520, Note_on_c, 6, 60, 82
8, 60480, Note_on_c, 6, 62, 82
8, 60485, Note_off_c, 6, 60, 82
8, 60960, Note_on_c, 6, 60, 82
8, 60970, Note_off_c, 6, 62, 82
8, 61430, Note_off_c, 6, 57, 82
8, 61430, Note_off_c, 6, 65, 82
8, 61430, Note_off_c, 6, 60, 82
8, 61440, Note_on_c, 6, 60, 82
8, 61440, Note_on_c, 6, 56, 82
8, 61440, Note_on_c, 6, 53, 82
8, 62390, Note_off_c, 6, 56, 82
8, 62390, Note_off_c, 6, 53, 82
8, 62400, Note_on_c, 6, 52, 82
8, 62400, Note_on_c, 6, 55, 82
8, 63350, Note_off_c, 6, 60, 82
8, 63350, Note_off_c, 6, 52, 82
8, 63350, Note_off_c, 6, 55, 82
8, 63360, Note_on_c, 6, 57, 82
8, 63360, Note_on_c, 6, 53, 82
8, 63360, Note_on_c, 6, 62, 82
8, 63830, Note_off_c, 6, 62, 82
8, 63840, Note_on_c, 6, 60, 82
8, 64310, Note_off_c, 6, 60, 82
8, 64320, Note_on_c, 6, 62, 82
8, 64790, Note_off_c, 6, 62, 82
8, 64800, Note_on_c, 6, 60, 82
8, 65270, Note_off_c, 6, 57, 82
8, 65270, Note_off_c, 6, 53, 82
8, 65270, Note_off_c, 6, 60, 82
8, 65280, Note_on_c, 6, 60, 82
8, 65280, Note_on_c, 6, 53, 82
8, 65280, Note_on_c, 6, 56, 82
8, 66230, Note_off_c, 6, 53, 82
8, 66230, Note_off_c, 6, 56, 82
8, 66240, Note_on_c, 6, 55, 82
8, 66240, Note_on_c, 6, 52, 82
8, 67190, Note_off_c, 6, 60, 82
8, 67190, Note_off_c, 6, 55, 82
8, 67190, Note_off_c, 6, 52, 82
8, 67200, Note_on_c, 6, 53, 82
8, 67200, Note_on_c, 6, 57, 82
8, 67200, Note_on_c, 6, 62, 82
8, 67670, Note_off_c, 6, 62, 82
8, 67680, Note_on_c, 6, 60, 82
8, 69110, Note_off_c, 6, 53, 82
8, 69110, Note_off_c, 6, 57, 82
8, 69110, Note_off_c, 6, 60, 82
8, 69120, Note_on_c, 6, 64, 82
8, 69120, Note_on_c, 6, 60, 82
8, 69120, Note_on_c, 6, 55, 82
8, 71030, Note_off_c, 6, 60, 82
8, 71030, Note_off_c, 6, 55, 82
8, 71040, Note_on_c, 6, 59, 82
8, 71040, Note_on_c, 6, 56, 82
8, 72950, Note_off_c, 6, 59, 82
8, 72950, Note_off_c, 6, 56, 82
8, 72950, Note_off_c, 6, 64, 82
8, 72960, Note_on_c, 6, 57, 82
8, 72960, Note_on_c, 6, 65, 82
8, 72960, Note_on_c, 6, 60, 82
8, 73920, Note_on_c, 6, 62, 82
8, 73925, Note_off_c, 6, 60, 82
8, 74400, Note_on_c, 6, 60, 82
8, 74410, Note_off_c, 6, 62, 82
8, 74870, Note_off_c, 6, 57, 82
8, 74870, Note_off_c, 6, 65, 82
8, 74870, Note_off_c, 6, 60, 82
8, 74880, Note_on_c, 6, 60, 82
8, 74880, Note_on_c, 6, 56, 82
8, 74880, Note_on_c, 6, 53, 82
8, 75830, Note_off_c, 6, 56, 82
8, 75830, Note_off_c, 6, 53, 82
8, 75840, Note_on_c, 6, 55, 82
8, 75840, Note_on_c, 6, 52, 82
8, 76790, Note_off_c, 6, 60, 82
8, 76790, Note_off_c, 6, 55, 82
8, 76790, Note_off_c, 6, 52, 82
8, 76800, Note_on_c, 6, 57, 82
8, 76800, Note_on_c, 6, 53, 82
8, 76800, Note_on_c, 6, 62, 82
8, 77270, Note_off_c, 6, 62, 82
8, 77280, Note_on_c, 6, 60, 82
8, 77750, Note_off_c, 6, 60, 82
8, 77760, Note_on_c, 6, 62, 82
8, 78230, Note_off_c, 6, 62, 82
8, 78240, Note_on_c, 6, 60, 82
8, 78710, Note_off_c, 6, 57, 82
8, 78710, Note_off_c, 6, 53, 82
8, 78710, Note_off_c, 6, 60, 82
8, 78720, Note_on_c, 6, 60, 82
8, 78720, Note_on_c, 6, 56, 82
8, 78720, Note_on_c, 6, 53, 82
8, 79670, Note_off_c, 6, 56, 82
8, 79670, Note_off_c, 6, 53, 82
8, 79680, Note_on_c, 6, 55, 82
8, 79680, Note_on_c, 6, 52, 82
8, 80630, Note_off_c, 6, 60, 82
8, 80630, Note_off_c, 6, 55, 82
8, 80630, Note_off_c, 6, 52, 82
8, 80640, Note_on_c, 6, 53, 82
8, 80640, Note_on_c, 6, 57, 82
8, 80640, Note_on_c, 6, 62, 82
8, 81110, Note_off_c, 6, 62, 82
8, 81120, Note_on_c, 6, 60, 82
8, 82550, Note_off_c, 6, 53, 82
8, 82550, Note_off_c, 6, 57, 82
8, 82550, Note_off_c, 6, 60, 82
8, 110400, Note_on_c, 6, 64, 82
8, 110400, Note_on_c, 6, 60, 82
8, 110400, Note_on_c, 6, 55, 82
8, 112310, Note_off_c, 6, 60, 82
8, 112310, Note_off_c, 6, 55, 82
8, 112320, Note_on_c, 6, 59, 82
8, 112320, Note_on_c, 6, 56, 82
8, 114230, Note_off_c, 6, 59, 82
8, 114230, Note_off_c, 6, 56, 82
8, 114230, Note_off_c, 6, 64, 82
8, 114240, Note_on_c, 6, 57, 82
8, 114240, Note_on_c, 6, 65, 82
8, 114240, Note_on_c, 6, 60, 82
8, 115200, Note_on_c, 6, 62, 82
8, 115205, Note_off_c, 6, 60, 82
8, 115680, Note_on_c, 6, 60, 82
8, 115690, Note_off_c, 6, 62, 82
8, 116150, Note_off_c, 6, 57, 82
8, 116150, Note_off_c, 6, 65, 82
8, 116150, Note_off_c, 6, 60, 82
8, 116160, Note_on_c, 6, 60, 82
8, 116160, Note_on_c, 6, 56, 82
8, 116160, Note_on_c, 6, 53, 82
8, 117110, Note_off_c, 6, 56, 82
8, 117110, Note_off_c, 6, 53, 82
8, 117120, Note_on_c, 6, 55, 82
8, 117120, Note_on_c, 6, 52, 82
8, 118070, Note_off_c, 6, 60, 82
8, 118070, Note_off_c, 6, 55, 82
8, 118070, Note_off_c, 6, 52, 82
8, 118080, Note_on_c, 6, 57, 82
8, 118080, Note_on_c, 6, 53, 82
8, 118080, Note_on_c, 6, 62, 82
8, 118550, Note_off_c, 6, 62, 82
8, 118560, Note_on_c, 6, 60, 82
8, 119990, Note_off_c, 6, 57, 82
8, 119990, Note_off_c, 6, 53, 82
8, 119990, Note_off_c, 6, 60, 82
8, 120000, Note_on_c, 6, 60, 82
8, 120000, Note_on_c, 6, 56, 82
8, 120000, Note_on_c, 6, 53, 82
8, 120950, Note_off_c, 6, 56, 82
8, 120950, Note_off_c, 6, 53, 82
8, 120960, Note_on_c, 6, 55, 82
8, 120960, Note_on_c, 6, 52, 82
8, 121910, Note_off_c, 6, 60, 82
8, 121910, Note_off_c, 6, 55, 82
8, 121910, Note_off_c, 6, 52, 82
8, 121920, Note_on_c, 6, 53, 82
8, 121920, Note_on_c, 6, 57, 82
8, 121920, Note_on_c, 6, 62, 82
8, 122390, Note_off_c, 6, 62, 82
8, 122400, Note_on_c, 6, 60, 82
8, 123830, Note_off_c, 6, 53, 82
8, 123830, Note_off_c, 6, 57, 82
8, 123830, Note_off_c, 6, 60, 82
8, 184320, End_track
9, 0, Start_track
9, 0, Key_signature, 0, "major"
9, 1, Control_c, 7, 99, 1
9, 1, Control_c, 7, 98, 8
9, 1, Control_c, 7, 6, 64
9, 2, Control_c, 7, 99, 1
9, 2, Control_c, 7, 98, 9
9, 2, Control_c, 7, 6, 64
9, 3, Control_c, 7, 99, 1
9, 3, Control_c, 7, 98, 10
9, 3, Control_c, 7, 6, 64
9, 4, Control_c, 7, 99, 1
9, 4, Control_c, 7, 98, 32
9, 4, Control_c, 7, 6, 64
9, 5, Control_c, 7, 99, 1
9, 5, Control_c, 7, 98, 33
9, 5, Control_c, 7, 6, 64
9, 6, Control_c, 7, 99, 1
9, 6, Control_c, 7, 98, 99
9, 6, Control_c, 7, 6, 64
9, 7, Control_c, 7, 99, 1
9, 7, Control_c, 7, 98, 100
9, 7, Control_c, 7, 6, 64
9, 8, Control_c, 7, 99, 1
9, 8, Control_c, 7, 98, 102
9, 8, Control_c, 7, 6, 64
9, 9, Control_c, 7, 0, 0
9, 10, Program_c, 7, 48
9, 11, Control_c, 7, 7, 100
9, 12, Control_c, 7, 10, 64
9, 13, Control_c, 7, 91, 100
9, 14, Control_c, 7, 93, 0
9, 15, Control_c, 7, 101, 0
9, 15, Control_c, 7, 100, 0
9, 15, Control_c, 7, 6, 2
9, 15, Title_t, "M #8"
9, 15, Channel_prefix, 7
9, 15, Instrument_name_t, "M #8"
9, 2355, Control_c, 7, 121, 0
9, 2580, Control_c, 7, 32, 0
9, 2590, Control_c, 7, 11, 127
9, 3055, Control_c, 7, 101, 0
9, 3060, Control_c, 7, 100, 0
9, 3065, Control_c, 7, 6, 12
9, 3070, Control_c, 7, 101, 127
9, 3075, Control_c, 7, 100, 127
9, 82560, Note_on_c, 7, 79, 61
9, 84430, Note_off_c, 7, 79, 61
9, 86440, Note_on_c, 7, 76, 39
9, 86500, Note_on_c, 7, 72, 40
9, 86515, Note_off_c, 7, 76, 39
9, 86575, Note_off_c, 7, 72, 40
9, 86580, Note_on_c, 7, 76, 41
9, 86640, Note_on_c, 7, 72, 41
9, 86655, Note_off_c, 7, 76, 41
9, 86700, Note_on_c, 7, 76, 42
9, 86715, Note_off_c, 7, 72, 41
9, 86760, Note_on_c, 7, 72, 43
9, 86775, Note_off_c, 7, 76, 42
9, 86835, Note_off_c, 7, 72, 43
9, 86840, Note_on_c, 7, 76, 43
9, 86900, Note_on_c, 7, 72, 44
9, 86915, Note_off_c, 7, 76, 43
9, 86975, Note_off_c, 7, 72, 44
9, 86980, Note_on_c, 7, 76, 45
9, 87040, Note_on_c, 7, 72, 46
9, 87055, Note_off_c, 7, 76, 45
9, 87100, Note_on_c, 7, 76, 46
9, 87115, Note_off_c, 7, 72, 46
9, 87175, Note_off_c, 7, 76, 46
9, 87180, Note_on_c, 7, 72, 47
9, 87240, Note_on_c, 7, 76, 48
9, 87255, Note_off_c, 7, 72, 47
9, 87315, Note_off_c, 7, 76, 48
9, 87320, Note_on_c, 7, 72, 49
9, 87380, Note_on_c, 7, 76, 50
9, 87395, Note_off_c, 7, 72, 49
9, 87455, Note_off_c, 7, 76, 50
9, 87460, Note_on_c, 7, 72, 50
9, 87500, Note_on_c, 7, 76, 51
9, 87535, Note_off_c, 7, 72, 50
9, 87560, Note_on_c, 7, 72, 51
9, 87575, Note_off_c, 7, 76, 51
9, 87620, Note_on_c, 7, 77, 52
9, 87635, Note_off_c, 7, 72, 51
9, 87695, Note_off_c, 7, 77, 52
9, 87700, Note_on_c, 7, 74, 53
9, 87760, Note_on_c, 7, 77, 54
9, 87775, Note_off_c, 7, 74, 53
9, 87820, Note_on_c, 7, 74, 54
9, 87835, Note_off_c, 7, 77, 54
9, 87880, Note_on_c, 7, 79, 55
9, 87895, Note_off_c, 7, 74, 54
9, 87940, Note_on_c, 7, 76, 56
9, 87955, Note_off_c, 7, 79, 55
9, 87980, Note_on_c, 7, 79, 56
9, 88015, Note_off_c, 7, 76, 56
9, 88040, Note_on_c, 7, 76, 57
9, 88055, Note_off_c, 7, 79, 56
9, 88100, Note_on_c, 7, 81, 57
9, 88115, Note_off_c, 7, 76, 57
9, 88160, Note_on_c, 7, 77, 58
9, 88175, Note_off_c, 7, 81, 57
9, 88220, Note_on_c, 7, 81, 59
9, 88235, Note_off_c, 7, 77, 58
9, 88280, Note_on_c, 7, 77, 59
9, 88295, Note_off_c, 7, 81, 59
9, 88340, Note_on_c, 7, 83, 60
9, 88355, Note_off_c, 7, 77, 59
9, 88400, Note_on_c, 7, 79, 61
9, 88415, Note_off_c, 7, 83, 60
9, 88460, Note_on_c, 7, 83, 61
9, 88475, Note_off_c, 7, 79, 61
9, 88520, Note_on_c, 7, 79, 62
9, 88535, Note_off_c, 7, 83, 61
9, 88580, Note_on_c, 7, 83, 63
9, 88595, Note_off_c, 7, 79, 62
9, 88640, Note_on_c, 7, 79, 63
9, 88655, Note_off_c, 7, 83, 63
9, 88715, Note_off_c, 7, 79, 63
9, 88720, Note_on_c, 7, 83, 64
9, 88780, Note_on_c, 7, 79, 65
9, 88795, Note_off_c, 7, 83, 64
9, 88855, Note_off_c, 7, 79, 65
9, 88860, Note_on_c, 7, 83, 66
9, 88920, Note_on_c, 7, 79, 66
9, 88935, Note_off_c, 7, 83, 66
9, 88980, Note_on_c, 7, 83, 67
9, 88995, Note_off_c, 7, 79, 66
9, 89040, Note_on_c, 7, 79, 68
9, 89055, Note_off_c, 7, 83, 67
9, 89115, Note_off_c, 7, 79, 68
9, 89120, Note_on_c, 7, 83, 68
9, 89180, Note_on_c, 7, 79, 69
9, 89195, Note_off_c, 7, 83, 68
9, 89240, Note_on_c, 7, 83, 70
9, 89255, Note_off_c, 7, 79, 69
9, 89300, Note_on_c, 7, 79, 71
9, 89315, Note_off_c, 7, 83, 70
9, 89375, Note_off_c, 7, 79, 71
9, 89380, Note_on_c, 7, 83, 71
9, 89440, Note_on_c, 7, 79, 72
9, 89455, Note_off_c, 7, 83, 71
9, 89500, Note_on_c, 7, 83, 73
9, 89515, Note_off_c, 7, 79, 72
9, 89560, Note_on_c, 7, 79, 74
9, 89575, Note_off_c, 7, 83, 73
9, 89635, Note_off_c, 7, 79, 74
9, 89640, Note_on_c, 7, 83, 74
9, 89700, Note_on_c, 7, 79, 75
9, 89715, Note_off_c, 7, 83, 74
9, 89775, Note_off_c, 7, 79, 75
9, 89780, Note_on_c, 7, 83, 76
9, 89840, Note_on_c, 7, 79, 77
9, 89855, Note_off_c, 7, 83, 76
9, 89900, Note_on_c, 7, 83, 77
9, 89915, Note_off_c, 7, 79, 77
9, 89975, Note_off_c, 7, 83, 77
9, 89980, Note_on_c, 7, 79, 78
9, 90040, Note_on_c, 7, 83, 79
9, 90055, Note_off_c, 7, 79, 78
9, 90115, Note_off_c, 7, 83, 79
9, 90120, Note_on_c, 7, 79, 80
9, 90160, Note_on_c, 7, 83, 80
9, 90195, Note_off_c, 7, 79, 80
9, 90235, Note_off_c, 7, 83, 80
9, 90240, Note_on_c, 7, 82, 76
9, 91200, Note_on_c, 7, 81, 68
9, 91220, Note_off_c, 7, 82, 76
9, 92160, Note_off_c, 7, 81, 68
9, 92160, Note_on_c, 7, 79, 63
9, 93120, Note_off_c, 7, 79, 63
9, 93120, Note_on_c, 7, 77, 68
9, 95040, Note_off_c, 7, 77, 68
9, 98375, Note_on_c, 7, 48, 81
9, 98400, Note_on_c, 7, 50, 82
9, 98415, Note_off_c, 7, 48, 81
9, 98445, Note_on_c, 7, 52, 84
9, 98455, Note_off_c, 7, 50, 82
9, 98485, Note_on_c, 7, 53, 87
9, 98495, Note_off_c, 7, 52, 84
9, 98525, Note_on_c, 7, 55, 89
9, 98540, Note_off_c, 7, 53, 87
9, 98575, Note_on_c, 7, 57, 92
9, 98585, Note_off_c, 7, 55, 89
9, 98615, Note_on_c, 7, 59, 94
9, 98630, Note_off_c, 7, 57, 92
9, 98655, Note_on_c, 7, 60, 96
9, 98665, Note_off_c, 7, 59, 94
9, 98685, Note_on_c, 7, 62, 98
9, 98695, Note_off_c, 7, 60, 96
9, 98715, Note_on_c, 7, 64, 99
9, 98730, Note_off_c, 7, 62, 98
9, 98745, Note_on_c, 7, 65, 101
9, 98760, Note_off_c, 7, 64, 99
9, 98775, Note_on_c, 7, 67, 103
9, 98790, Note_off_c, 7, 65, 101
9, 98805, Note_on_c, 7, 69, 104
9, 98820, Note_off_c, 7, 67, 103
9, 98835, Note_on_c, 7, 71, 106
9, 98855, Note_off_c, 7, 69, 104
9, 98880, Note_on_c, 7, 76, 74
9, 98880, Note_on_c, 7, 72, 89
9, 98880, Note_on_c, 7, 65, 70
9, 98880, Note_on_c, 7, 69, 66
9, 98885, Note_off_c, 7, 71, 106
9, 100800, Note_off_c, 7, 72, 89
9, 100800, Note_off_c, 7, 65, 70
9, 100800, Note_off_c, 7, 69, 66
9, 100800, Note_on_c, 7, 71, 76
9, 100800, Note_on_c, 7, 67, 93
9, 102720, Note_off_c, 7, 71, 76
9, 102720, Note_off_c, 7, 67, 93
9, 102720, Note_on_c, 7, 73, 68
9, 102720, Note_on_c, 7, 69, 82
9, 104640, Note_off_c, 7, 73, 68
9, 104640, Note_off_c, 7, 69, 82
9, 104640, Note_on_c, 7, 72, 76
9, 104640, Note_on_c, 7, 67, 85
9, 106560, Note_off_c, 7, 67, 85
9, 106560, Note_on_c, 7, 69, 82
9, 106560, Note_on_c, 7, 66, 95
9, 108480, Note_off_c, 7, 69, 82
9, 108480, Note_off_c, 7, 72, 76
9, 108480, Note_off_c, 7, 66, 95
9, 108480, Note_on_c, 7, 71, 82
9, 108480, Note_on_c, 7, 64, 87
9, 108480, Note_on_c, 7, 68, 89
9, 110395, Note_off_c, 7, 76, 74
9, 110400, Note_off_c, 7, 71, 82
9, 110400, Note_off_c, 7, 64, 87
9, 110400, Note_off_c, 7, 68, 89
9, 123840, Note_on_c, 7, 74, 87
9, 123840, Note_on_c, 7, 71, 91
9, 123840, Note_on_c, 7, 67, 87
9, 124800, Note_off_c, 7, 67, 87
9, 124800, Note_on_c, 7, 68, 87
9, 125760, Note_off_c, 7, 74, 87
9, 125760, Note_off_c, 7, 71, 91
9, 125760, Note_off_c, 7, 68, 87
9, 125760, Note_on_c, 7, 72, 82
9, 125760, Note_on_c, 7, 64, 68
9, 125760, Note_on_c, 7, 69, 85
9, 126720, Note_off_c, 7, 69, 85
9, 126720, Note_on_c, 7, 67, 82
9, 127680, Note_off_c, 7, 64, 68
9, 127680, Note_off_c, 7, 67, 82
9, 127680, Note_on_c, 7, 69, 78
9, 127680, Note_on_c, 7, 62, 82
9, 127680, Note_on_c, 7, 66, 82
9, 129600, Note_off_c, 7, 69, 78
9, 129600, Note_off_c, 7, 62, 82
9, 129600, Note_off_c, 7, 66, 82
9, 129600, Note_on_c, 7, 67, 80
9, 129600, Note_on_c, 7, 64, 87
9, 129600, Note_on_c, 7, 60, 70
9, 131520, Note_off_c, 7, 64, 87
9, 131520, Note_off_c, 7, 60, 70
9, 131520, Note_off_c, 7, 72, 82
9, 131520, Note_on_c, 7, 71, 70
9, 131520, Note_on_c, 7, 62, 82
9, 133440, Note_off_c, 7, 71, 70
9, 133440, Note_off_c, 7, 67, 80
9, 133440, Note_off_c, 7, 62, 82
9, 133440, Note_on_c, 7, 79, 61
9, 135350, Note_off_c, 7, 79, 61
9, 137320, Note_on_c, 7, 76, 39
9, 137380, Note_on_c, 7, 72, 40
9, 137395, Note_off_c, 7, 76, 39
9, 137455, Note_off_c, 7, 72, 40
9, 137460, Note_on_c, 7, 76, 41
9, 137520, Note_on_c, 7, 72, 41
9, 137535, Note_off_c, 7, 76, 41
9, 137580, Note_on_c, 7, 76, 42
9, 137595, Note_off_c, 7, 72, 41
9, 137640, Note_on_c, 7, 72, 43
9, 137655, Note_off_c, 7, 76, 42
9, 137715, Note_off_c, 7, 72, 43
9, 137720, Note_on_c, 7, 76, 43
9, 137780, Note_on_c, 7, 72, 44
9, 137795, Note_off_c, 7, 76, 43
9, 137855, Note_off_c, 7, 72, 44
9, 137860, Note_on_c, 7, 76, 45
9, 137920, Note_on_c, 7, 72, 46
9, 137935, Note_off_c, 7, 76, 45
9, 137980, Note_on_c, 7, 76, 46
9, 137995, Note_off_c, 7, 72, 46
9, 138055, Note_off_c, 7, 76, 46
9, 138060, Note_on_c, 7, 72, 47
9, 138120, Note_on_c, 7, 76, 48
9, 138135, Note_off_c, 7, 72, 47
9, 138195, Note_off_c, 7, 76, 48
9, 138200, Note_on_c, 7, 72, 49
9, 138260, Note_on_c, 7, 76, 50
9, 138275, Note_off_c, 7, 72, 49
9, 138335, Note_off_c, 7, 76, 50
9, 138340, Note_on_c, 7, 72, 50
9, 138380, Note_on_c, 7, 76, 51
9, 138415, Note_off_c, 7, 72, 50
9, 138440, Note_on_c, 7, 72, 51
9, 138455, Note_off_c, 7, 76, 51
9, 138500, Note_on_c, 7, 77, 52
9, 138515, Note_off_c, 7, 72, 51
9, 138575, Note_off_c, 7, 77, 52
9, 138580, Note_on_c, 7, 74, 53
9, 138640, Note_on_c, 7, 77, 54
9, 138655, Note_off_c, 7, 74, 53
9, 138700, Note_on_c, 7, 74, 54
9, 138715, Note_off_c, 7, 77, 54
9, 138760, Note_on_c, 7, 79, 55
9, 138775, Note_off_c, 7, 74, 54
9, 138820, Note_on_c, 7, 76, 56
9, 138835, Note_off_c, 7, 79, 55
9, 138860, Note_on_c, 7, 79, 56
9, 138895, Note_off_c, 7, 76, 56
9, 138920, Note_on_c, 7, 76, 57
9, 138935, Note_off_c, 7, 79, 56
9, 138980, Note_on_c, 7, 81, 57
9, 138995, Note_off_c, 7, 76, 57
9, 139040, Note_on_c, 7, 77, 58
9, 139055, Note_off_c, 7, 81, 57
9, 139100, Note_on_c, 7, 81, 59
9, 139115, Note_off_c, 7, 77, 58
9, 139160, Note_on_c, 7, 77, 59
9, 139175, Note_off_c, 7, 81, 59
9, 139220, Note_on_c, 7, 83, 60
9, 139235, Note_off_c, 7, 77, 59
9, 139280, Note_on_c, 7, 79, 61
9, 139295, Note_off_c, 7, 83, 60
9, 139340, Note_on_c, 7, 83, 61
9, 139355, Note_off_c, 7, 79, 61
9, 139400, Note_on_c, 7, 79, 62
9, 139415, Note_off_c, 7, 83, 61
9, 139460, Note_on_c, 7, 83, 63
9, 139475, Note_off_c, 7, 79, 62
9, 139520, Note_on_c, 7, 79, 63
9, 139535, Note_off_c, 7, 83, 63
9, 139595, Note_off_c, 7, 79, 63
9, 139600, Note_on_c, 7, 83, 64
9, 139660, Note_on_c, 7, 79, 65
9, 139675, Note_off_c, 7, 83, 64
9, 139735, Note_off_c, 7, 79, 65
9, 139740, Note_on_c, 7, 83, 66
9, 139800, Note_on_c, 7, 79, 66
9, 139815, Note_off_c, 7, 83, 66
9, 139860, Note_on_c, 7, 83, 67
9, 139875, Note_off_c, 7, 79, 66
9, 139920, Note_on_c, 7, 79, 68
9, 139935, Note_off_c, 7, 83, 67
9, 139995, Note_off_c, 7, 79, 68
9, 140000, Note_on_c, 7, 83, 68
9, 140060, Note_on_c, 7, 79, 69
9, 140075, Note_off_c, 7, 83, 68
9, 140120, Note_on_c, 7, 83, 70
9, 140135, Note_off_c, 7, 79, 69
9, 140180, Note_on_c, 7, 79, 71
9, 140195, Note_off_c, 7, 83, 70
9, 140255, Note_off_c, 7, 79, 71
9, 140260, Note_on_c, 7, 83, 71
9, 140320, Note_on_c, 7, 79, 72
9, 140335, Note_off_c, 7, 83, 71
9, 140380, Note_on_c, 7, 83, 73
9, 140395, Note_off_c, 7, 79, 72
9, 140440, Note_on_c, 7, 79, 74
9, 140455, Note_off_c, 7, 83, 73
9, 140515, Note_off_c, 7, 79, 74
9, 140520, Note_on_c, 7, 83, 74
9, 140580, Note_on_c, 7, 79, 75
9, 140595, Note_off_c, 7, 83, 74
9, 140655, Note_off_c, 7, 79, 75
9, 140660, Note_on_c, 7, 83, 76
9, 140720, Note_on_c, 7, 79, 77
9, 140735, Note_off_c, 7, 83, 76
9, 140780, Note_on_c, 7, 83, 77
9, 140795, Note_off_c, 7, 79, 77
9, 140855, Note_off_c, 7, 83, 77
9, 140860, Note_on_c, 7, 79, 78
9, 140920, Note_on_c, 7, 83, 79
9, 140935, Note_off_c, 7, 79, 78
9, 140995, Note_off_c, 7, 83, 79
9, 141000, Note_on_c, 7, 79, 80
9, 141040, Note_on_c, 7, 83, 80
9, 141075, Note_off_c, 7, 79, 80
9, 141115, Note_off_c, 7, 83, 80
9, 141120, Note_on_c, 7, 82, 76
9, 142080, Note_on_c, 7, 81, 68
9, 142100, Note_off_c, 7, 82, 76
9, 143040, Note_off_c, 7, 81, 68
9, 143040, Note_on_c, 7, 79, 63
9, 144000, Note_off_c, 7, 79, 63
9, 144000, Note_on_c, 7, 77, 68
9, 145920, Note_off_c, 7, 77, 68
9, 149255, Note_on_c, 7, 48, 81
9, 149280, Note_on_c, 7, 50, 82
9, 149295, Note_off_c, 7, 48, 81
9, 149325, Note_on_c, 7, 52, 84
9, 149335, Note_off_c, 7, 50, 82
9, 149365, Note_on_c, 7, 53, 87
9, 149375, Note_off_c, 7, 52, 84
9, 149405, Note_on_c, 7, 55, 89
9, 149420, Note_off_c, 7, 53, 87
9, 149455, Note_on_c, 7, 57, 92
9, 149465, Note_off_c, 7, 55, 89
9, 149495, Note_on_c, 7, 59, 94
9, 149510, Note_off_c, 7, 57, 92
9, 149535, Note_on_c, 7, 60, 96
9, 149545, Note_off_c, 7, 59, 94
9, 149565, Note_on_c, 7, 62, 98
9, 149575, Note_off_c, 7, 60, 96
9, 149595, Note_on_c, 7, 64, 99
9, 149610, Note_off_c, 7, 62, 98
9, 149625, Note_on_c, 7, 65, 101
9, 149640, Note_off_c, 7, 64, 99
9, 149655, Note_on_c, 7, 67, 103
9, 149670, Note_off_c, 7, 65, 101
9, 149685, Note_on_c, 7, 69, 104
9, 149700, Note_off_c, 7, 67, 103
9, 149715, Note_on_c, 7, 71, 106
9, 149735, Note_off_c, 7, 69, 104
9, 149760, Note_on_c, 7, 76, 74
9, 149760, Note_on_c, 7, 65, 70
9, 149760, Note_on_c, 7, 72, 89
9, 149760, Note_on_c, 7, 69, 66
9, 149765, Note_off_c, 7, 71, 106
9, 151680, Note_off_c, 7, 65, 70
9, 151680, Note_off_c, 7, 72, 89
9, 151680, Note_off_c, 7, 69, 66
9, 151680, Note_on_c, 7, 71, 76
9, 151680, Note_on_c, 7, 67, 93
9, 153600, Note_off_c, 7, 71, 76
9, 153600, Note_off_c, 7, 67, 93
9, 153600, Note_on_c, 7, 73, 68
9, 153600, Note_on_c, 7, 69, 82
9, 155520, Note_off_c, 7, 73, 68
9, 155520, Note_off_c, 7, 69, 82
9, 155520, Note_on_c, 7, 72, 76
9, 155520, Note_on_c, 7, 67, 85
9, 157440, Note_off_c, 7, 67, 85
9, 157440, Note_on_c, 7, 66, 95
9, 157440, Note_on_c, 7, 69, 82
9, 159360, Note_off_c, 7, 66, 95
9, 159360, Note_off_c, 7, 72, 76
9, 159360, Note_off_c, 7, 69, 82
9, 159360, Note_on_c, 7, 64, 87
9, 159360, Note_on_c, 7, 71, 82
9, 159360, Note_on_c, 7, 68, 89
9, 161275, Note_off_c, 7, 76, 74
9, 161280, Note_off_c, 7, 64, 87
9, 161280, Note_off_c, 7, 71, 82
9, 161280, Note_off_c, 7, 68, 89
9, 161280, Note_on_c, 7, 68, 76
9, 161280, Note_on_c, 7, 74, 74
9, 161280, Note_on_c, 7, 76, 59
9, 161280, Note_on_c, 7, 71, 70
9, 180480, Note_off_c, 7, 68, 76
9, 180480, Note_off_c, 7, 74, 74
9, 180480, Note_off_c, 7, 76, 59
9, 180480, Note_off_c, 7, 71, 70
9, 180480, Note_on_c, 7, 28, 89
9, 180480, Note_on_c, 7, 40, 87
9, 181130, Control_c, 7, 11, 126
9, 181150, Control_c, 7, 11, 125
9, 181180, Control_c, 7, 11, 124
9, 181210, Control_c, 7, 11, 123
9, 181240, Control_c, 7, 11, 122
9, 181270, Control_c, 7, 11, 121
9, 181300, Control_c, 7, 11, 120
9, 181330, Control_c, 7, 11, 119
9, 181360, Control_c, 7, 11, 118
9, 181390, Control_c, 7, 11, 117
9, 181420, Control_c, 7, 11, 116
9, 181450, Control_c, 7, 11, 115
9, 181480, Control_c, 7, 11, 114
9, 181500, Control_c, 7, 11, 113
9, 181530, Control_c, 7, 11, 112
9, 181560, Control_c, 7, 11, 111
9, 181590, Control_c, 7, 11, 110
9, 181620, Control_c, 7, 11, 109
9, 181650, Control_c, 7, 11, 108
9, 181680, Control_c, 7, 11, 107
9, 181710, Control_c, 7, 11, 106
9, 181740, Control_c, 7, 11, 105
9, 181770, Control_c, 7, 11, 104
9, 181800, Control_c, 7, 11, 103
9, 181830, Control_c, 7, 11, 102
9, 181860, Control_c, 7, 11, 101
9, 181890, Control_c, 7, 11, 100
9, 181920, Control_c, 7, 11, 99
9, 181950, Control_c, 7, 11, 98
9, 181970, Control_c, 7, 11, 97
9, 182000, Control_c, 7, 11, 96
9, 182030, Control_c, 7, 11, 95
9, 182060, Control_c, 7, 11, 94
9, 182090, Control_c, 7, 11, 93
9, 182120, Control_c, 7, 11, 92
9, 182150, Control_c, 7, 11, 91
9, 182180, Control_c, 7, 11, 90
9, 182210, Control_c, 7, 11, 89
9, 182240, Control_c, 7, 11, 88
9, 182270, Control_c, 7, 11, 87
9, 182300, Control_c, 7, 11, 86
9, 182330, Control_c, 7, 11, 85
9, 182360, Control_c, 7, 11, 84
9, 182390, Control_c, 7, 11, 83
9, 182410, Control_c, 7, 11, 82
9, 182440, Control_c, 7, 11, 81
9, 182470, Control_c, 7, 11, 80
9, 182500, Control_c, 7, 11, 79
9, 182530, Control_c, 7, 11, 78
9, 182560, Control_c, 7, 11, 77
9, 182590, Control_c, 7, 11, 76
9, 182620, Control_c, 7, 11, 75
9, 182650, Control_c, 7, 11, 74
9, 182680, Control_c, 7, 11, 73
9, 182710, Control_c, 7, 11, 72
9, 182740, Control_c, 7, 11, 71
9, 182770, Control_c, 7, 11, 70
9, 182800, Control_c, 7, 11, 69
9, 182830, Control_c, 7, 11, 68
9, 182860, Control_c, 7, 11, 67
9, 182880, Control_c, 7, 11, 66
9, 182910, Control_c, 7, 11, 65
9, 182940, Control_c, 7, 11, 64
9, 182970, Control_c, 7, 11, 63
9, 183000, Control_c, 7, 11, 62
9, 183030, Control_c, 7, 11, 61
9, 183060, Control_c, 7, 11, 60
9, 183090, Control_c, 7, 11, 59
9, 183120, Control_c, 7, 11, 58
9, 183150, Control_c, 7, 11, 57
9, 183180, Control_c, 7, 11, 56
9, 183210, Control_c, 7, 11, 55
9, 183240, Control_c, 7, 11, 54
9, 183270, Control_c, 7, 11, 53
9, 183300, Control_c, 7, 11, 52
9, 183330, Control_c, 7, 11, 51
9, 183350, Control_c, 7, 11, 50
9, 183380, Control_c, 7, 11, 49
9, 183410, Control_c, 7, 11, 48
9, 183440, Control_c, 7, 11, 47
9, 183470, Control_c, 7, 11, 46
9, 183500, Control_c, 7, 11, 45
9, 183530, Control_c, 7, 11, 44
9, 183560, Control_c, 7, 11, 43
9, 183590, Control_c, 7, 11, 42
9, 183620, Control_c, 7, 11, 41
9, 183650, Control_c, 7, 11, 40
9, 183680, Control_c, 7, 11, 39
9, 183710, Control_c, 7, 11, 38
9, 183740, Control_c, 7, 11, 37
9, 183770, Control_c, 7, 11, 36
9, 183800, Control_c, 7, 11, 35
9, 183820, Control_c, 7, 11, 34
9, 183850, Control_c, 7, 11, 33
9, 183880, Control_c, 7, 11, 32
9, 183910, Control_c, 7, 11, 31
9, 183940, Control_c, 7, 11, 30
9, 183970, Control_c, 7, 11, 29
9, 184000, Control_c, 7, 11, 28
9, 184030, Control_c, 7, 11, 27
9, 184060, Control_c, 7, 11, 26
9, 184090, Control_c, 7, 11, 25
9, 184120, Control_c, 7, 11, 24
9, 184150, Control_c, 7, 11, 23
9, 184180, Control_c, 7, 11, 22
9, 184200, Note_off_c, 7, 28, 89
9, 184200, Note_off_c, 7, 40, 87
9, 184210, Control_c, 7, 11, 21
9, 184240, Control_c, 7, 11, 20
9, 184260, Control_c, 7, 11, 19
9, 184290, Control_c, 7, 11, 18
9, 184320, End_track
10, 0, Start_track
10, 0, Key_signature, 0, "major"
10, 1, Control_c, 8, 99, 1
10, 1, Control_c, 8, 98, 8
10, 1, Control_c, 8, 6, 64
10, 2, Control_c, 8, 99, 1
10, 2, Control_c, 8, 98, 9
10, 2, Control_c, 8, 6, 64
10, 3, Control_c, 8, 99, 1
10, 3, Control_c, 8, 98, 10
10, 3, Control_c, 8, 6, 64
10, 4, Control_c, 8, 99, 1
10, 4, Control_c, 8, 98, 32
10, 4, Control_c, 8, 6, 64
10, 5, Control_c, 8, 99, 1
10, 5, Control_c, 8, 98, 33
10, 5, Control_c, 8, 6, 64
10, 6, Control_c, 8, 99, 1
10, 6, Control_c, 8, 98, 99
10, 6, Control_c, 8, 6, 64
10, 7, Control_c, 8, 99, 1
10, 7, Control_c, 8, 98, 100
10, 7, Control_c, 8, 6, 64
10, 8, Control_c, 8, 99, 1
10, 8, Control_c, 8, 98, 102
10, 8, Control_c, 8, 6, 64
10, 9, Control_c, 8, 0, 0
10, 10, Program_c, 8, 50
10, 11, Control_c, 8, 7, 100
10, 12, Control_c, 8, 10, 64
10, 13, Control_c, 8, 91, 115
10, 14, Control_c, 8, 93, 100
10, 15, Control_c, 8, 101, 0
10, 15, Control_c, 8, 100, 0
10, 15, Control_c, 8, 6, 2
10, 15, Title_t, "M #9"
10, 15, Channel_prefix, 8
10, 15, Instrument_name_t, "M #9"
10, 2360, Control_c, 8, 121, 0
10, 2605, Control_c, 8, 32, 0
10, 2615, Control_c, 8, 11, 127
10, 3080, Control_c, 8, 101, 0
10, 3085, Control_c, 8, 100, 0
10, 3090, Control_c, 8, 6, 12
10, 3095, Control_c, 8, 101, 127
10, 3100, Control_c, 8, 100, 127
10, 49920, Note_on_c, 8, 58, 68
10, 49920, Note_on_c, 8, 53, 68
10, 49920, Note_on_c, 8, 51, 68
10, 49945, Pitch_bend_c, 8, 9267
10, 50030, Pitch_bend_c, 8, 9350
10, 50030, Note_off_c, 8, 58, 68
10, 50030, Note_off_c, 8, 53, 68
10, 50030, Note_off_c, 8, 51, 68
10, 50040, Note_on_c, 8, 51, 69
10, 50040, Note_on_c, 8, 58, 69
10, 50040, Note_on_c, 8, 53, 69
10, 50060, Pitch_bend_c, 8, 9433
10, 50085, Pitch_bend_c, 8, 9515
10, 50145, Pitch_bend_c, 8, 9598
10, 50150, Note_off_c, 8, 51, 69
10, 50150, Note_off_c, 8, 58, 69
10, 50150, Note_off_c, 8, 53, 69
10, 50155, Pitch_bend_c, 8, 9763
10, 50160, Note_on_c, 8, 58, 69
10, 50160, Note_on_c, 8, 51, 69
10, 50160, Note_on_c, 8, 53, 69
10, 50170, Pitch_bend_c, 8, 9846
10, 50185, Pitch_bend_c, 8, 9929
10, 50200, Pitch_bend_c, 8, 10012
10, 50270, Note_off_c, 8, 58, 69
10, 50270, Note_off_c, 8, 51, 69
10, 50270, Note_off_c, 8, 53, 69
10, 50280, Note_on_c, 8, 53, 69
10, 50280, Note_on_c, 8, 58, 69
10, 50280, Note_on_c, 8, 51, 69
10, 50295, Pitch_bend_c, 8, 10094
10, 50390, Note_off_c, 8, 53, 69
10, 50390, Note_off_c, 8, 58, 69
10, 50390, Note_off_c, 8, 51, 69
10, 50400, Note_on_c, 8, 51, 69
10, 50400, Note_on_c, 8, 53, 69
10, 50400, Note_on_c, 8, 58, 69
10, 50435, Pitch_bend_c, 8, 10177
10, 50510, Pitch_bend_c, 8, 10260
10, 50510, Note_off_c, 8, 51, 69
10, 50510, Note_off_c, 8, 53, 69
10, 50510, Note_off_c, 8, 58, 69
10, 50520, Note_on_c, 8, 53, 69
10, 50520, Note_on_c, 8, 58, 69
10, 50520, Note_on_c, 8, 51, 69
10, 50525, Pitch_bend_c, 8, 10343
10, 50620, Pitch_bend_c, 8, 10425
10, 50630, Note_off_c, 8, 53, 69
10, 50630, Note_off_c, 8, 58, 69
10, 50630, Note_off_c, 8, 51, 69
10, 50640, Note_on_c, 8, 53, 69
10, 50640, Note_on_c, 8, 51, 69
10, 50640, Note_on_c, 8, 58, 69
10, 50645, Pitch_bend_c, 8, 10508
10, 50650, Pitch_bend_c, 8, 10591
10, 50730, Pitch_bend_c, 8, 10674
10, 50750, Note_off_c, 8, 53, 69
10, 50750, Note_off_c, 8, 51, 69
10, 50750, Note_off_c, 8, 58, 69
10, 50760, Pitch_bend_c, 8, 10756
10, 50760, Note_on_c, 8, 53, 69
10, 50760, Note_on_c, 8, 58, 69
10, 50760, Note_on_c, 8, 51, 69
10, 50785, Pitch_bend_c, 8, 10839
10, 50870, Note_off_c, 8, 53, 69
10, 50870, Note_off_c, 8, 58, 69
10, 50870, Note_off_c, 8, 51, 69
10, 50880, Note_on_c, 8, 51, 69
10, 50880, Note_on_c, 8, 53, 69
10, 50880, Note_on_c, 8, 58, 69
10, 50900, Pitch_bend_c, 8, 10922
10, 50990, Note_off_c, 8, 51, 69
10, 50990, Note_off_c, 8, 53, 69
10, 50990, Note_off_c, 8, 58, 69
10, 51000, Note_on_c, 8, 51, 69
10, 51000, Note_on_c, 8, 58, 69
10, 51000, Note_on_c, 8, 53, 69
10, 51020, Pitch_bend_c, 8, 11004
10, 51100, Pitch_bend_c, 8, 11087
10, 51110, Note_off_c, 8, 51, 69
10, 51110, Note_off_c, 8, 58, 69
10, 51110, Note_off_c, 8, 53, 69
10, 51120, Pitch_bend_c, 8, 11170
10, 51120, Note_on_c, 8, 53, 70
10, 51120, Note_on_c, 8, 51, 70
10, 51120, Note_on_c, 8, 58, 70
10, 51135, Pitch_bend_c, 8, 11253
10, 51230, Note_off_c, 8, 53, 70
10, 51230, Note_off_c, 8, 51, 70
10, 51230, Note_off_c, 8, 58, 70
10, 51240, Note_on_c, 8, 51, 70
10, 51240, Note_on_c, 8, 58, 70
10, 51240, Note_on_c, 8, 53, 70
10, 51285, Pitch_bend_c, 8, 11335
10, 51350, Note_off_c, 8, 51, 70
10, 51350, Note_off_c, 8, 58, 70
10, 51350, Note_off_c, 8, 53, 70
10, 51360, Note_on_c, 8, 51, 70
10, 51360, Note_on_c, 8, 53, 70
10, 51360, Note_on_c, 8, 58, 70
10, 51370, Pitch_bend_c, 8, 11418
10, 51470, Note_off_c, 8, 51, 70
10, 51470, Note_off_c, 8, 53, 70
10, 51470, Note_off_c, 8, 58, 70
10, 51480, Note_on_c, 8, 51, 70
10, 51480, Note_on_c, 8, 58, 70
10, 51480, Note_on_c, 8, 53, 70
10, 51485, Pitch_bend_c, 8, 11501
10, 51590, Note_off_c, 8, 51, 70
10, 51590, Note_off_c, 8, 58, 70
10, 51590, Note_off_c, 8, 53, 70
10, 51600, Note_on_c, 8, 58, 70
10, 51600, Note_on_c, 8, 51, 70
10, 51600, Note_on_c, 8, 53, 70
10, 51710, Note_off_c, 8, 58, 70
10, 51710, Note_off_c, 8, 51, 70
10, 51710, Note_off_c, 8, 53, 70
10, 51720, Note_on_c, 8, 51, 70
10, 51720, Note_on_c, 8, 58, 70
10, 51720, Note_on_c, 8, 53, 70
10, 51825, Pitch_bend_c, 8, 11584
10, 51830, Note_off_c, 8, 51, 70
10, 51830, Note_off_c, 8, 58, 70
10, 51830, Note_off_c, 8, 53, 70
10, 51840, Note_on_c, 8, 51, 70
10, 51840, Note_on_c, 8, 53, 70
10, 51840, Note_on_c, 8, 58, 70
10, 51850, Pitch_bend_c, 8, 11666
10, 51950, Pitch_bend_c, 8, 11749
10, 51950, Note_off_c, 8, 51, 70
10, 51950, Note_off_c, 8, 53, 70
10, 51950, Note_off_c, 8, 58, 70
10, 51960, Note_on_c, 8, 53, 70
10, 51960, Note_on_c, 8, 58, 70
10, 51960, Note_on_c, 8, 51, 70
10, 51970, Pitch_bend_c, 8, 11832
10, 52065, Pitch_bend_c, 8, 11915
10, 52070, Note_off_c, 8, 53, 70
10, 52070, Note_off_c, 8, 58, 70
10, 52070, Note_off_c, 8, 51, 70
10, 52080, Note_on_c, 8, 51, 71
10, 52080, Note_on_c, 8, 53, 71
10, 52080, Note_on_c, 8, 58, 71
10, 52095, Pitch_bend_c, 8, 11997
10, 52190, Note_off_c, 8, 51, 71
10, 52190, Note_off_c, 8, 53, 71
10, 52190, Note_off_c, 8, 58, 71
10, 52200, Note_on_c, 8, 53, 71
10, 52200, Note_on_c, 8, 58, 71
10, 52200, Note_on_c, 8, 51, 71
10, 52205, Pitch_bend_c, 8, 12080
10, 52230, Pitch_bend_c, 8, 12163
10, 52310, Note_off_c, 8, 53, 71
10, 52310, Note_off_c, 8, 58, 71
10, 52310, Note_off_c, 8, 51, 71
10, 52320, Note_on_c, 8, 51, 71
10, 52320, Note_on_c, 8, 58, 71
10, 52320, Note_on_c, 8, 53, 71
10, 52430, Note_off_c, 8, 51, 71
10, 52430, Note_off_c, 8, 58, 71
10, 52430, Note_off_c, 8, 53, 71
10, 52440, Note_on_c, 8, 53, 71
10, 52440, Note_on_c, 8, 58, 71
10, 52440, Note_on_c, 8, 51, 71
10, 52455, Pitch_bend_c, 8, 12245
10, 52485, Pitch_bend_c, 8, 12328
10, 52550, Note_off_c, 8, 53, 71
10, 52550, Note_off_c, 8, 58, 71
10, 52550, Note_off_c, 8, 51, 71
10, 52560, Pitch_bend_c, 8, 12411
10, 52560, Note_on_c, 8, 58, 71
10, 52560, Note_on_c, 8, 53, 71
10, 52560, Note_on_c, 8, 51, 71
10, 52670, Note_off_c, 8, 58, 71
10, 52670, Note_off_c, 8, 53, 71
10, 52670, Note_off_c, 8, 51, 71
10, 52680, Note_on_c, 8, 53, 71
10, 52680, Note_on_c, 8, 51, 71
10, 52680, Note_on_c, 8, 58, 71
10, 52695, Pitch_bend_c, 8, 12494
10, 52785, Pitch_bend_c, 8, 12576
10, 52790, Note_off_c, 8, 53, 71
10, 52790, Note_off_c, 8, 51, 71
10, 52790, Note_off_c, 8, 58, 71
10, 52800, Pitch_bend_c, 8, 12659
10, 52800, Note_on_c, 8, 58, 71
10, 52800, Note_on_c, 8, 51, 71
10, 52800, Note_on_c, 8, 53, 71
10, 52910, Pitch_bend_c, 8, 12742
10, 52910, Note_off_c, 8, 58, 71
10, 52910, Note_off_c, 8, 51, 71
10, 52910, Note_off_c, 8, 53, 71
10, 52920, Note_on_c, 8, 51, 71
10, 52920, Note_on_c, 8, 58, 71
10, 52920, Note_on_c, 8, 53, 71
10, 52930, Pitch_bend_c, 8, 12825
10, 53025, Pitch_bend_c, 8, 12907
10, 53030, Note_off_c, 8, 51, 71
10, 53030, Note_off_c, 8, 58, 71
10, 53030, Note_off_c, 8, 53, 71
10, 53040, Note_on_c, 8, 51, 71
10, 53040, Note_on_c, 8, 53, 71
10, 53040, Note_on_c, 8, 58, 71
10, 53075, Pitch_bend_c, 8, 12990
10, 53115, Pitch_bend_c, 8, 13073
10, 53150, Pitch_bend_c, 8, 13156
10, 53150, Note_off_c, 8, 51, 71
10, 53150, Note_off_c, 8, 53, 71
10, 53150, Note_off_c, 8, 58, 71
10, 53160, Note_on_c, 8, 53, 72
10, 53160, Note_on_c, 8, 58, 72
10, 53160, Note_on_c, 8, 51, 72
10, 53180, Pitch_bend_c, 8, 13238
10, 53195, Pitch_bend_c, 8, 13321
10, 53270, Note_off_c, 8, 53, 72
10, 53270, Note_off_c, 8, 58, 72
10, 53270, Note_off_c, 8, 51, 72
10, 53280, Note_on_c, 8, 53, 72
10, 53280, Note_on_c, 8, 51, 72
10, 53280, Note_on_c, 8, 58, 72
10, 53390, Note_off_c, 8, 53, 72
10, 53390, Note_off_c, 8, 51, 72
10, 53390, Note_off_c, 8, 58, 72
10, 53400, Note_on_c, 8, 53, 72
10, 53400, Note_on_c, 8, 58, 72
10, 53400, Note_on_c, 8, 51, 72
10, 53510, Note_off_c, 8, 53, 72
10, 53510, Note_off_c, 8, 58, 72
10, 53510, Note_off_c, 8, 51, 72
10, 53520, Note_on_c, 8, 51, 72
10, 53520, Note_on_c, 8, 53, 72
10, 53520, Note_on_c, 8, 58, 72
10, 53630, Note_off_c, 8, 51, 72
10, 53630, Note_off_c, 8, 53, 72
10, 53630, Note_off_c, 8, 58, 72
10, 53635, Pitch_bend_c, 8, 13404
10, 53640, Note_on_c, 8, 53, 72
10, 53640, Note_on_c, 8, 58, 72
10, 53640, Note_on_c, 8, 51, 72
10, 53675, Pitch_bend_c, 8, 13487
10, 53750, Note_off_c, 8, 53, 72
10, 53750, Note_off_c, 8, 58, 72
10, 53750, Note_off_c, 8, 51, 72
10, 53760, Note_on_c, 8, 51, 72
10, 53760, Note_on_c, 8, 53, 72
10, 53760, Note_on_c, 8, 58, 72
10, 53790, Pitch_bend_c, 8, 13569
10, 53870, Note_off_c, 8, 51, 72
10, 53870, Note_off_c, 8, 53, 72
10, 53870, Note_off_c, 8, 58, 72
10, 53880, Note_on_c, 8, 51, 72
10, 53880, Note_on_c, 8, 53, 72
10, 53880, Note_on_c, 8, 58, 72
10, 53900, Pitch_bend_c, 8, 13652
10, 53915, Pitch_bend_c, 8, 13735
10, 53990, Note_off_c, 8, 51, 72
10, 53990, Note_off_c, 8, 53, 72
10, 53990, Note_off_c, 8, 58, 72
10, 54000, Note_on_c, 8, 53, 72
10, 54000, Note_on_c, 8, 51, 72
10, 54000, Note_on_c, 8, 58, 72
10, 54110, Note_off_c, 8, 53, 72
10, 54110, Note_off_c, 8, 51, 72
10, 54110, Note_off_c, 8, 58, 72
10, 54115, Pitch_bend_c, 8, 13817
10, 54120, Note_on_c, 8, 51, 73
10, 54120, Note_on_c, 8, 53, 73
10, 54120, Note_on_c, 8, 58, 73
10, 54140, Pitch_bend_c, 8, 13900
10, 54145, Pitch_bend_c, 8, 13983
10, 54230, Note_off_c, 8, 51, 73
10, 54230, Note_off_c, 8, 53, 73
10, 54230, Note_off_c, 8, 58, 73
10, 54240, Note_on_c, 8, 53, 73
10, 54240, Note_on_c, 8, 58, 73
10, 54240, Note_on_c, 8, 51, 73
10, 54255, Pitch_bend_c, 8, 14066
10, 54350, Note_off_c, 8, 53, 73
10, 54350, Note_off_c, 8, 58, 73
10, 54350, Note_off_c, 8, 51, 73
10, 54360, Note_on_c, 8, 53, 73
10, 54360, Note_on_c, 8, 58, 73
10, 54360, Note_on_c, 8, 51, 73
10, 54405, Pitch_bend_c, 8, 14148
10, 54470, Note_off_c, 8, 53, 73
10, 54470, Note_off_c, 8, 58, 73
10, 54470, Note_off_c, 8, 51, 73
10, 54480, Note_on_c, 8, 53, 73
10, 54480, Note_on_c, 8, 51, 73
10, 54480, Note_on_c, 8, 58, 73
10, 54490, Pitch_bend_c, 8, 14231
10, 54530, Pitch_bend_c, 8, 14314
10, 54545, Pitch_bend_c, 8, 14397
10, 54590, Note_off_c, 8, 53, 73
10, 54590, Note_off_c, 8, 51, 73
10, 54590, Note_off_c, 8, 58, 73
10, 54600, Note_on_c, 8, 51, 73
10, 54600, Note_on_c, 8, 53, 73
10, 54600, Note_on_c, 8, 58, 73
10, 54710, Note_off_c, 8, 51, 73
10, 54710, Note_off_c, 8, 53, 73
10, 54710, Note_off_c, 8, 58, 73
10, 54720, Note_on_c, 8, 51, 73
10, 54720, Note_on_c, 8, 53, 73
10, 54720, Note_on_c, 8, 58, 73
10, 54770, Pitch_bend_c, 8, 14479
10, 54830, Note_off_c, 8, 51, 73
10, 54830, Note_off_c, 8, 53, 73
10, 54830, Note_off_c, 8, 58, 73
10, 54840, Note_on_c, 8, 53, 73
10, 54840, Note_on_c, 8, 58, 73
10, 54840, Note_on_c, 8, 51, 73
10, 54865, Pitch_bend_c, 8, 14562
10, 54885, Pitch_bend_c, 8, 14645
10, 54950, Note_off_c, 8, 53, 73
10, 54950, Note_off_c, 8, 58, 73
10, 54950, Note_off_c, 8, 51, 73
10, 54960, Note_on_c, 8, 53, 73
10, 54960, Note_on_c, 8, 51, 73
10, 54960, Note_on_c, 8, 58, 73
10, 55020, Pitch_bend_c, 8, 14728
10, 55055, Pitch_bend_c, 8, 14810
10, 55070, Note_off_c, 8, 53, 73
10, 55070, Note_off_c, 8, 51, 73
10, 55070, Note_off_c, 8, 58, 73
10, 55080, Note_on_c, 8, 53, 73
10, 55080, Note_on_c, 8, 58, 73
10, 55080, Note_on_c, 8, 51, 73
10, 55190, Note_off_c, 8, 53, 73
10, 55190, Note_off_c, 8, 58, 73
10, 55190, Note_off_c, 8, 51, 73
10, 55200, Note_on_c, 8, 51, 74
10, 55200, Note_on_c, 8, 53, 74
10, 55200, Note_on_c, 8, 58, 74
10, 55220, Pitch_bend_c, 8, 14893
10, 55260, Pitch_bend_c, 8, 14976
10, 55310, Note_off_c, 8, 51, 74
10, 55310, Note_off_c, 8, 53, 74
10, 55310, Note_off_c, 8, 58, 74
10, 55320, Note_on_c, 8, 51, 74
10, 55320, Note_on_c, 8, 53, 74
10, 55320, Note_on_c, 8, 58, 74
10, 55350, Pitch_bend_c, 8, 15058
10, 55420, Pitch_bend_c, 8, 15141
10, 55430, Note_off_c, 8, 51, 74
10, 55430, Note_off_c, 8, 53, 74
10, 55430, Note_off_c, 8, 58, 74
10, 55440, Note_on_c, 8, 58, 74
10, 55440, Note_on_c, 8, 51, 74
10, 55440, Note_on_c, 8, 53, 74
10, 55550, Note_off_c, 8, 58, 74
10, 55550, Note_off_c, 8, 51, 74
10, 55550, Note_off_c, 8, 53, 74
10, 55560, Note_on_c, 8, 51, 74
10, 55560, Note_on_c, 8, 53, 74
10, 55560, Note_on_c, 8, 58, 74
10, 55605, Pitch_bend_c, 8, 8192
10, 55670, Note_off_c, 8, 51, 74
10, 55670, Note_off_c, 8, 53, 74
10, 55670, Note_off_c, 8, 58, 74
10, 55680, Note_on_c, 8, 72, 87
10, 55680, Note_on_c, 8, 67, 85
10, 57590, Note_off_c, 8, 72, 87
10, 57590, Note_off_c, 8, 67, 85
10, 57600, Note_on_c, 8, 68, 63
10, 57600, Note_on_c, 8, 71, 80
10, 59510, Note_off_c, 8, 71, 80
10, 59515, Note_off_c, 8, 68, 63
10, 59520, Note_on_c, 8, 69, 70
10, 59520, Note_on_c, 8, 72, 80
10, 60470, Note_off_c, 8, 72, 80
10, 60480, Note_on_c, 8, 74, 87
10, 60950, Note_off_c, 8, 74, 87
10, 60960, Note_on_c, 8, 72, 82
10, 61430, Note_off_c, 8, 69, 70
10, 61430, Note_off_c, 8, 72, 82
10, 61440, Note_on_c, 8, 72, 80
10, 61440, Note_on_c, 8, 65, 63
10, 61440, Note_on_c, 8, 68, 70
10, 62390, Note_off_c, 8, 65, 63
10, 62390, Note_off_c, 8, 68, 70
10, 62400, Note_on_c, 8, 64, 74
10, 62400, Note_on_c, 8, 67, 89
10, 63350, Note_off_c, 8, 64, 74
10, 63350, Note_off_c, 8, 67, 89
10, 63360, Note_off_c, 8, 72, 80
10, 63360, Note_on_c, 8, 65, 78
10, 63360, Note_on_c, 8, 69, 68
10, 63360, Note_on_c, 8, 74, 74
10, 63840, Note_on_c, 8, 72, 89
10, 63850, Note_off_c, 8, 74, 74
10, 64310, Note_off_c, 8, 72, 89
10, 64320, Note_on_c, 8, 74, 76
10, 64790, Note_off_c, 8, 74, 76
10, 64800, Note_on_c, 8, 72, 82
10, 65270, Note_off_c, 8, 65, 78
10, 65270, Note_off_c, 8, 69, 68
10, 65270, Note_off_c, 8, 72, 82
10, 65280, Note_on_c, 8, 72, 80
10, 65280, Note_on_c, 8, 68, 70
10, 65280, Note_on_c, 8, 65, 63
10, 66230, Note_off_c, 8, 68, 70
10, 66230, Note_off_c, 8, 65, 63
10, 66240, Note_off_c, 8, 72, 80
10, 66240, Note_on_c, 8, 67, 89
10, 66240, Note_on_c, 8, 64, 74
10, 67190, Note_off_c, 8, 67, 89
10, 67190, Note_off_c, 8, 64, 74
10, 67200, Note_on_c, 8, 69, 68
10, 67200, Note_on_c, 8, 65, 78
10, 67200, Note_on_c, 8, 74, 74
10, 67680, Note_on_c, 8, 72, 89
10, 67690, Note_off_c, 8, 74, 74
10, 69110, Note_off_c, 8, 69, 68
10, 69110, Note_off_c, 8, 65, 78
10, 69110, Note_off_c, 8, 72, 89
10, 69120, Note_on_c, 8, 72, 87
10, 69120, Note_on_c, 8, 67, 85
10, 71030, Note_off_c, 8, 72, 87
10, 71030, Note_off_c, 8, 67, 85
10, 71040, Note_on_c, 8, 68, 63
10, 71040, Note_on_c, 8, 71, 80
10, 72950, Note_off_c, 8, 71, 80
10, 72955, Note_off_c, 8, 68, 63
10, 72960, Note_on_c, 8, 69, 70
10, 72960, Note_on_c, 8, 72, 80
10, 73910, Note_off_c, 8, 72, 80
10, 73920, Note_on_c, 8, 74, 87
10, 74390, Note_off_c, 8, 74, 87
10, 74400, Note_on_c, 8, 72, 82
10, 74870, Note_off_c, 8, 69, 70
10, 74870, Note_off_c, 8, 72, 82
10, 74880, Note_on_c, 8, 72, 80
10, 74880, Note_on_c, 8, 65, 63
10, 74880, Note_on_c, 8, 68, 70
10, 75830, Note_off_c, 8, 65, 63
10, 75830, Note_off_c, 8, 68, 70
10, 75840, Note_on_c, 8, 67, 89
10, 75840, Note_on_c, 8, 64, 74
10, 76790, Note_off_c, 8, 67, 89
10, 76790, Note_off_c, 8, 64, 74
10, 76800, Note_off_c, 8, 72, 80
10, 76800, Note_on_c, 8, 65, 78
10, 76800, Note_on_c, 8, 69, 68
10, 76800, Note_on_c, 8, 74, 74
10, 77280, Note_on_c, 8, 72, 89
10, 77290, Note_off_c, 8, 74, 74
10, 77750, Note_off_c, 8, 72, 89
10, 77760, Note_on_c, 8, 74, 76
10, 78230, Note_off_c, 8, 74, 76
10, 78240, Note_on_c, 8, 72, 82
10, 78710, Note_off_c, 8, 65, 78
10, 78710, Note_off_c, 8, 69, 68
10, 78710, Note_off_c, 8, 72, 82
10, 78720, Note_on_c, 8, 72, 80
10, 78720, Note_on_c, 8, 68, 70
10, 78720, Note_on_c, 8, 65, 63
10, 79670, Note_off_c, 8, 68, 70
10, 79670, Note_off_c, 8, 65, 63
10, 79680, Note_off_c, 8, 72, 80
10, 79680, Note_on_c, 8, 67, 89
10, 79680, Note_on_c, 8, 64, 74
10, 80630, Note_off_c, 8, 67, 89
10, 80630, Note_off_c, 8, 64, 74
10, 80640, Note_on_c, 8, 69, 68
10, 80640, Note_on_c, 8, 65, 78
10, 80640, Note_on_c, 8, 74, 74
10, 81120, Note_on_c, 8, 72, 89
10, 81130, Note_off_c, 8, 74, 74
10, 82550, Note_off_c, 8, 69, 68
10, 82550, Note_off_c, 8, 65, 78
10, 82550, Note_off_c, 8, 72, 89
10, 82560, Note_on_c, 8, 64, 58
10, 82560, Note_on_c, 8, 60, 58
10, 82560, Note_on_c, 8, 57, 58
10, 84470, Note_off_c, 8, 60, 58
10, 84470, Note_off_c, 8, 57, 58
10, 84480, Note_off_c, 8, 64, 58
10, 84480, Note_on_c, 8, 59, 63
10, 84480, Note_on_c, 8, 55, 63
10, 84480, Note_on_c, 8, 62, 63
10, 86390, Note_off_c, 8, 59, 63
10, 86390, Note_off_c, 8, 55, 63
10, 86390, Note_off_c, 8, 62, 63
10, 86400, Note_on_c, 8, 64, 69
10, 86400, Note_on_c, 8, 60, 69
10, 86400, Note_on_c, 8, 57, 69
10, 88310, Note_off_c, 8, 60, 69
10, 88310, Note_off_c, 8, 57, 69
10, 88320, Note_off_c, 8, 64, 69
10, 88320, Note_on_c, 8, 55, 75
10, 88320, Note_on_c, 8, 59, 75
10, 88320, Note_on_c, 8, 62, 75
10, 90230, Note_off_c, 8, 62, 75
10, 90240, Note_off_c, 8, 55, 75
10, 90240, Note_off_c, 8, 59, 75
10, 90240, Note_on_c, 8, 58, 82
10, 90240, Note_on_c, 8, 62, 85
10, 90240, Note_on_c, 8, 53, 80
10, 91170, Note_off_c, 8, 53, 80
10, 91180, Note_off_c, 8, 58, 82
10, 91180, Note_off_c, 8, 62, 85
10, 91200, Note_on_c, 8, 57, 93
10, 91200, Note_on_c, 8, 60, 82
10, 91200, Note_on_c, 8, 52, 89
10, 92150, Note_off_c, 8, 57, 93
10, 92150, Note_off_c, 8, 60, 82
10, 92150, Note_off_c, 8, 52, 89
10, 92160, Note_on_c, 8, 55, 82
10, 92160, Note_on_c, 8, 50, 89
10, 92160, Note_on_c, 8, 59, 82
10, 93110, Note_off_c, 8, 55, 82
10, 93110, Note_off_c, 8, 50, 89
10, 93110, Note_off_c, 8, 59, 82
10, 93120, Note_on_c, 8, 48, 85
10, 93120, Note_on_c, 8, 57, 82
10, 93120, Note_on_c, 8, 53, 80
10, 95025, Note_off_c, 8, 53, 80
10, 95030, Note_off_c, 8, 48, 85
10, 95030, Note_off_c, 8, 57, 82
10, 98375, Note_on_c, 8, 48, 81
10, 98400, Note_on_c, 8, 50, 82
10, 98405, Note_off_c, 8, 48, 81
10, 98445, Note_on_c, 8, 52, 84
10, 98445, Note_off_c, 8, 50, 82
10, 98485, Note_off_c, 8, 52, 84
10, 98485, Note_on_c, 8, 53, 87
10, 98525, Note_on_c, 8, 55, 89
10, 98535, Note_off_c, 8, 53, 87
10, 98575, Note_on_c, 8, 57, 92
10, 98575, Note_off_c, 8, 55, 89
10, 98615, Note_on_c, 8, 59, 94
10, 98620, Note_off_c, 8, 57, 92
10, 98655, Note_on_c, 8, 60, 96
10, 98655, Note_off_c, 8, 59, 94
10, 98685, Note_on_c, 8, 62, 98
10, 98685, Note_off_c, 8, 60, 96
10, 98715, Note_on_c, 8, 64, 99
10, 98720, Note_off_c, 8, 62, 98
10, 98745, Note_on_c, 8, 65, 101
10, 98750, Note_off_c, 8, 64, 99
10, 98775, Note_on_c, 8, 67, 103
10, 98780, Note_off_c, 8, 65, 101
10, 98805, Note_on_c, 8, 69, 104
10, 98810, Note_off_c, 8, 67, 103
10, 98835, Note_on_c, 8, 71, 106
10, 98845, Note_off_c, 8, 69, 104
10, 98880, Note_on_c, 8, 57, 85
10, 98880, Note_on_c, 8, 64, 87
10, 98880, Note_on_c, 8, 60, 89
10, 98880, Note_off_c, 8, 71, 106
10, 100730, Note_off_c, 8, 57, 85
10, 100730, Note_off_c, 8, 64, 87
10, 100730, Note_off_c, 8, 60, 89
10, 100800, Note_on_c, 8, 62, 85
10, 100800, Note_on_c, 8, 55, 85
10, 100800, Note_on_c, 8, 59, 85
10, 102635, Note_off_c, 8, 59, 85
10, 102655, Note_off_c, 8, 55, 85
10, 102720, Note_off_c, 8, 62, 85
10, 102720, Note_on_c, 8, 64, 72
10, 102720, Note_on_c, 8, 61, 85
10, 102720, Note_on_c, 8, 57, 95
10, 104565, Note_off_c, 8, 57, 95
10, 104600, Note_off_c, 8, 61, 85
10, 104640, Note_on_c, 8, 60, 85
10, 104640, Note_on_c, 8, 55, 91
10, 106485, Note_off_c, 8, 55, 91
10, 106495, Note_off_c, 8, 60, 85
10, 106560, Note_off_c, 8, 64, 72
10, 106560, Note_on_c, 8, 66, 64
10, 106560, Note_on_c, 8, 62, 91
10, 106560, Note_on_c, 8, 57, 95
10, 108455, Note_off_c, 8, 57, 95
10, 108460, Note_off_c, 8, 62, 91
10, 108465, Note_off_c, 8, 66, 64
10, 108480, Note_on_c, 8, 59, 80
10, 108480, Note_on_c, 8, 64, 93
10, 110380, Note_off_c, 8, 64, 93
10, 110385, Note_off_c, 8, 59, 80
10, 110400, Note_on_c, 8, 67, 85
10, 110400, Note_on_c, 8, 72, 87
10, 112310, Note_off_c, 8, 67, 85
10, 112310, Note_off_c, 8, 72, 87
10, 112320, Note_on_c, 8, 68, 63
10, 112320, Note_on_c, 8, 71, 80
10, 114230, Note_off_c, 8, 71, 80
10, 114235, Note_off_c, 8, 68, 63
10, 114240, Note_on_c, 8, 69, 70
10, 114240, Note_on_c, 8, 72, 80
10, 115190, Note_off_c, 8, 72, 80
10, 115200, Note_on_c, 8, 74, 87
10, 115670, Note_off_c, 8, 74, 87
10, 115680, Note_on_c, 8, 72, 82
10, 116150, Note_off_c, 8, 69, 70
10, 116150, Note_off_c, 8, 72, 82
10, 116160, Note_on_c, 8, 72, 80
10, 116160, Note_on_c, 8, 65, 63
10, 116160, Note_on_c, 8, 68, 70
10, 117110, Note_off_c, 8, 65, 63
10, 117110, Note_off_c, 8, 68, 70
10, 117120, Note_on_c, 8, 67, 89
10, 117120, Note_on_c, 8, 64, 74
10, 118070, Note_off_c, 8, 67, 89
10, 118070, Note_off_c, 8, 64, 74
10, 118080, Note_off_c, 8, 72, 80
10, 118080, Note_on_c, 8, 65, 78
10, 118080, Note_on_c, 8, 69, 68
10, 118080, Note_on_c, 8, 74, 74
10, 118560, Note_on_c, 8, 72, 89
10, 118570, Note_off_c, 8, 74, 74
10, 119030, Note_off_c, 8, 72, 89
10, 119040, Note_on_c, 8, 74, 76
10, 119510, Note_off_c, 8, 74, 76
10, 119520, Note_on_c, 8, 72, 82
10, 119950, Note_off_c, 8, 69, 68
10, 119955, Note_off_c, 8, 65, 78
10, 119990, Note_off_c, 8, 72, 82
10, 120000, Note_on_c, 8, 68, 70
10, 120000, Note_on_c, 8, 65, 63
10, 120000, Note_on_c, 8, 72, 80
10, 120930, Note_off_c, 8, 65, 63
10, 120930, Note_off_c, 8, 72, 80
10, 120935, Note_off_c, 8, 68, 70
10, 120960, Note_on_c, 8, 64, 74
10, 120960, Note_on_c, 8, 67, 89
10, 121885, Note_off_c, 8, 67, 89
10, 121890, Note_off_c, 8, 64, 74
10, 121920, Note_on_c, 8, 69, 68
10, 121920, Note_on_c, 8, 65, 78
10, 121920, Note_on_c, 8, 74, 74
10, 122385, Note_off_c, 8, 74, 74
10, 122400, Note_on_c, 8, 72, 89
10, 122870, Note_off_c, 8, 72, 89
10, 122880, Note_on_c, 8, 74, 76
10, 123350, Note_off_c, 8, 74, 76
10, 123360, Note_on_c, 8, 72, 82
10, 123810, Note_off_c, 8, 65, 78
10, 123815, Note_off_c, 8, 69, 68
10, 123820, Note_off_c, 8, 72, 82
10, 123840, Note_on_c, 8, 71, 77
10, 123840, Note_on_c, 8, 74, 77
10, 123840, Note_on_c, 8, 67, 77
10, 124790, Note_off_c, 8, 67, 77
10, 124800, Note_on_c, 8, 68, 77
10, 125725, Note_off_c, 8, 74, 77
10, 125730, Note_off_c, 8, 71, 77
10, 125735, Note_off_c, 8, 68, 77
10, 125760, Note_on_c, 8, 72, 77
10, 125760, Note_on_c, 8, 64, 77
10, 125760, Note_on_c, 8, 69, 77
10, 126710, Note_off_c, 8, 69, 77
10, 126720, Note_on_c, 8, 67, 77
10, 127670, Note_off_c, 8, 64, 77
10, 127670, Note_off_c, 8, 67, 77
10, 127680, Note_on_c, 8, 69, 77
10, 127680, Note_on_c, 8, 66, 77
10, 127680, Note_on_c, 8, 62, 77
10, 129560, Note_off_c, 8, 62, 77
10, 129565, Note_off_c, 8, 66, 77
10, 129570, Note_off_c, 8, 69, 77
10, 129600, Note_on_c, 8, 67, 77
10, 129600, Note_on_c, 8, 64, 77
10, 131510, Note_off_c, 8, 64, 77
10, 131510, Note_off_c, 8, 72, 77
10, 131520, Note_on_c, 8, 71, 77
10, 131520, Note_on_c, 8, 62, 77
10, 133405, Note_off_c, 8, 62, 77
10, 133430, Note_off_c, 8, 71, 77
10, 133430, Note_off_c, 8, 67, 77
10, 133440, Note_on_c, 8, 64, 58
10, 133440, Note_on_c, 8, 57, 58
10, 133440, Note_on_c, 8, 60, 58
10, 135330, Note_off_c, 8, 60, 58
10, 135335, Note_off_c, 8, 57, 58
10, 135360, Note_off_c, 8, 64, 58
10, 135360, Note_on_c, 8, 55, 63
10, 135360, Note_on_c, 8, 59, 63
10, 135360, Note_on_c, 8, 62, 63
10, 137245, Note_off_c, 8, 62, 63
10, 137255, Note_off_c, 8, 55, 63
10, 137255, Note_off_c, 8, 59, 63
10, 137280, Note_on_c, 8, 64, 69
10, 137280, Note_on_c, 8, 60, 69
10, 137280, Note_on_c, 8, 57, 69
10, 139190, Note_off_c, 8, 60, 69
10, 139190, Note_off_c, 8, 57, 69
10, 139200, Note_off_c, 8, 64, 69
10, 139200, Note_on_c, 8, 59, 75
10, 139200, Note_on_c, 8, 62, 75
10, 139200, Note_on_c, 8, 55, 75
10, 141095, Note_off_c, 8, 62, 75
10, 141095, Note_off_c, 8, 55, 75
10, 141100, Note_off_c, 8, 59, 75
10, 141120, Note_on_c, 8, 58, 82
10, 141120, Note_on_c, 8, 53, 80
10, 141120, Note_on_c, 8, 62, 85
10, 142070, Note_off_c, 8, 58, 82
10, 142070, Note_off_c, 8, 53, 80
10, 142070, Note_off_c, 8, 62, 85
10, 142080, Note_on_c, 8, 60, 82
10, 142080, Note_on_c, 8, 57, 93
10, 142080, Note_on_c, 8, 52, 89
10, 143030, Note_off_c, 8, 60, 82
10, 143030, Note_off_c, 8, 57, 93
10, 143030, Note_off_c, 8, 52, 89
10, 143040, Note_on_c, 8, 50, 89
10, 143040, Note_on_c, 8, 59, 82
10, 143040, Note_on_c, 8, 55, 82
10, 143990, Note_off_c, 8, 50, 89
10, 143990, Note_off_c, 8, 59, 82
10, 143990, Note_off_c, 8, 55, 82
10, 144000, Note_on_c, 8, 53, 80
10, 144000, Note_on_c, 8, 57, 82
10, 144000, Note_on_c, 8, 48, 85
10, 145910, Note_off_c, 8, 57, 82
10, 145910, Note_off_c, 8, 48, 85
10, 145920, Note_off_c, 8, 53, 80
10, 149255, Note_on_c, 8, 48, 81
10, 149280, Note_on_c, 8, 50, 82
10, 149285, Note_off_c, 8, 48, 81
10, 149325, Note_on_c, 8, 52, 84
10, 149325, Note_off_c, 8, 50, 82
10, 149365, Note_off_c, 8, 52, 84
10, 149365, Note_on_c, 8, 53, 87
10, 149405, Note_on_c, 8, 55, 89
10, 149415, Note_off_c, 8, 53, 87
10, 149455, Note_on_c, 8, 57, 92
10, 149455, Note_off_c, 8, 55, 89
10, 149495, Note_on_c, 8, 59, 94
10, 149500, Note_off_c, 8, 57, 92
10, 149535, Note_on_c, 8, 60, 96
10, 149535, Note_off_c, 8, 59, 94
10, 149565, Note_on_c, 8, 62, 98
10, 149565, Note_off_c, 8, 60, 96
10, 149595, Note_on_c, 8, 64, 99
10, 149600, Note_off_c, 8, 62, 98
10, 149625, Note_on_c, 8, 65, 101
10, 149630, Note_off_c, 8, 64, 99
10, 149655, Note_on_c, 8, 67, 103
10, 149660, Note_off_c, 8, 65, 101
10, 149685, Note_on_c, 8, 69, 104
10, 149690, Note_off_c, 8, 67, 103
10, 149715, Note_on_c, 8, 71, 106
10, 149725, Note_off_c, 8, 69, 104
10, 149760, Note_on_c, 8, 57, 85
10, 149760, Note_on_c, 8, 64, 87
10, 149760, Note_on_c, 8, 60, 89
10, 149760, Note_off_c, 8, 71, 106
10, 151610, Note_off_c, 8, 57, 85
10, 151610, Note_off_c, 8, 64, 87
10, 151610, Note_off_c, 8, 60, 89
10, 151680, Note_on_c, 8, 62, 85
10, 151680, Note_on_c, 8, 55, 85
10, 151680, Note_on_c, 8, 59, 85
10, 153515, Note_off_c, 8, 59, 85
10, 153535, Note_off_c, 8, 55, 85
10, 153600, Note_off_c, 8, 62, 85
10, 153600, Note_on_c, 8, 64, 72
10, 153600, Note_on_c, 8, 61, 85
10, 153600, Note_on_c, 8, 57, 95
10, 155445, Note_off_c, 8, 57, 95
10, 155480, Note_off_c, 8, 61, 85
10, 155520, Note_on_c, 8, 60, 85
10, 155520, Note_on_c, 8, 55, 91
10, 157365, Note_off_c, 8, 55, 91
10, 157375, Note_off_c, 8, 60, 85
10, 157440, Note_off_c, 8, 64, 72
10, 157440, Note_on_c, 8, 66, 64
10, 157440, Note_on_c, 8, 62, 91
10, 157440, Note_on_c, 8, 57, 95
10, 159335, Note_off_c, 8, 57, 95
10, 159340, Note_off_c, 8, 62, 91
10, 159345, Note_off_c, 8, 66, 64
10, 159360, Note_on_c, 8, 59, 80
10, 159360, Note_on_c, 8, 64, 93
10, 161260, Note_off_c, 8, 64, 93
10, 161265, Note_off_c, 8, 59, 80
10, 161280, Note_on_c, 8, 51, 68
10, 161280, Note_on_c, 8, 53, 68
10, 161280, Note_on_c, 8, 58, 68
10, 161305, Pitch_bend_c, 8, 9267
10, 161390, Pitch_bend_c, 8, 9350
10, 161395, Note_off_c, 8, 51, 68
10, 161395, Note_off_c, 8, 53, 68
10, 161395, Note_off_c, 8, 58, 68
10, 161400, Note_on_c, 8, 53, 69
10, 161400, Note_on_c, 8, 51, 69
10, 161400, Note_on_c, 8, 58, 69
10, 161420, Pitch_bend_c, 8, 9433
10, 161445, Pitch_bend_c, 8, 9515
10, 161505, Pitch_bend_c, 8, 9598
10, 161515, Pitch_bend_c, 8, 9763
10, 161515, Note_off_c, 8, 53, 69
10, 161515, Note_off_c, 8, 51, 69
10, 161515, Note_off_c, 8, 58, 69
10, 161520, Note_on_c, 8, 58, 69
10, 161520, Note_on_c, 8, 51, 69
10, 161520, Note_on_c, 8, 53, 69
10, 161530, Pitch_bend_c, 8, 9846
10, 161545, Pitch_bend_c, 8, 9929
10, 161560, Pitch_bend_c, 8, 10012
10, 161635, Note_off_c, 8, 58, 69
10, 161635, Note_off_c, 8, 51, 69
10, 161635, Note_off_c, 8, 53, 69
10, 161640, Note_on_c, 8, 51, 69
10, 161640, Note_on_c, 8, 53, 69
10, 161640, Note_on_c, 8, 58, 69
10, 161655, Pitch_bend_c, 8, 10094
10, 161755, Note_off_c, 8, 51, 69
10, 161755, Note_off_c, 8, 53, 69
10, 161755, Note_off_c, 8, 58, 69
10, 161760, Note_on_c, 8, 51, 69
10, 161760, Note_on_c, 8, 53, 69
10, 161760, Note_on_c, 8, 58, 69
10, 161795, Pitch_bend_c, 8, 10177
10, 161870, Pitch_bend_c, 8, 10260
10, 161875, Note_off_c, 8, 51, 69
10, 161875, Note_off_c, 8, 53, 69
10, 161875, Note_off_c, 8, 58, 69
10, 161880, Note_on_c, 8, 51, 69
10, 161880, Note_on_c, 8, 53, 69
10, 161880, Note_on_c, 8, 58, 69
10, 161885, Pitch_bend_c, 8, 10343
10, 161980, Pitch_bend_c, 8, 10425
10, 161995, Note_off_c, 8, 51, 69
10, 161995, Note_off_c, 8, 53, 69
10, 161995, Note_off_c, 8, 58, 69
10, 162000, Note_on_c, 8, 53, 69
10, 162000, Note_on_c, 8, 51, 69
10, 162000, Note_on_c, 8, 58, 69
10, 162005, Pitch_bend_c, 8, 10508
10, 162010, Pitch_bend_c, 8, 10591
10, 162090, Pitch_bend_c, 8, 10674
10, 162115, Note_off_c, 8, 53, 69
10, 162115, Note_off_c, 8, 51, 69
10, 162115, Note_off_c, 8, 58, 69
10, 162120, Pitch_bend_c, 8, 10756
10, 162120, Note_on_c, 8, 51, 69
10, 162120, Note_on_c, 8, 53, 69
10, 162120, Note_on_c, 8, 58, 69
10, 162145, Pitch_bend_c, 8, 10839
10, 162235, Note_off_c, 8, 51, 69
10, 162235, Note_off_c, 8, 53, 69
10, 162235, Note_off_c, 8, 58, 69
10, 162240, Note_on_c, 8, 51, 69
10, 162240, Note_on_c, 8, 53, 69
10, 162240, Note_on_c, 8, 58, 69
10, 162260, Pitch_bend_c, 8, 10922
10, 162355, Note_off_c, 8, 51, 69
10, 162355, Note_off_c, 8, 53, 69
10, 162355, Note_off_c, 8, 58, 69
10, 162360, Note_on_c, 8, 51, 69
10, 162360, Note_on_c, 8, 53, 69
10, 162360, Note_on_c, 8, 58, 69
10, 162380, Pitch_bend_c, 8, 11004
10, 162460, Pitch_bend_c, 8, 11087
10, 162475, Note_off_c, 8, 51, 69
10, 162475, Note_off_c, 8, 53, 69
10, 162475, Note_off_c, 8, 58, 69
10, 162480, Pitch_bend_c, 8, 11170
10, 162480, Note_on_c, 8, 53, 70
10, 162480, Note_on_c, 8, 51, 70
10, 162480, Note_on_c, 8, 58, 70
10, 162495, Pitch_bend_c, 8, 11253
10, 162595, Note_off_c, 8, 53, 70
10, 162595, Note_off_c, 8, 51, 70
10, 162595, Note_off_c, 8, 58, 70
10, 162600, Note_on_c, 8, 53, 70
10, 162600, Note_on_c, 8, 51, 70
10, 162600, Note_on_c, 8, 58, 70
10, 162645, Pitch_bend_c, 8, 11335
10, 162715, Note_off_c, 8, 53, 70
10, 162715, Note_off_c, 8, 51, 70
10, 162715, Note_off_c, 8, 58, 70
10, 162720, Note_on_c, 8, 51, 70
10, 162720, Note_on_c, 8, 53, 70
10, 162720, Note_on_c, 8, 58, 70
10, 162730, Pitch_bend_c, 8, 11418
10, 162835, Note_off_c, 8, 51, 70
10, 162835, Note_off_c, 8, 53, 70
10, 162835, Note_off_c, 8, 58, 70
10, 162840, Note_on_c, 8, 51, 70
10, 162840, Note_on_c, 8, 53, 70
10, 162840, Note_on_c, 8, 58, 70
10, 162845, Pitch_bend_c, 8, 11501
10, 162955, Note_off_c, 8, 51, 70
10, 162955, Note_off_c, 8, 53, 70
10, 162955, Note_off_c, 8, 58, 70
10, 162960, Note_on_c, 8, 58, 70
10, 162960, Note_on_c, 8, 51, 70
10, 162960, Note_on_c, 8, 53, 70
10, 163075, Note_off_c, 8, 58, 70
10, 163075, Note_off_c, 8, 51, 70
10, 163075, Note_off_c, 8, 53, 70
10, 163080, Note_on_c, 8, 58, 70
10, 163080, Note_on_c, 8, 51, 70
10, 163080, Note_on_c, 8, 53, 70
10, 163185, Pitch_bend_c, 8, 11584
10, 163195, Note_off_c, 8, 58, 70
10, 163195, Note_off_c, 8, 51, 70
10, 163195, Note_off_c, 8, 53, 70
10, 163200, Note_on_c, 8, 51, 70
10, 163200, Note_on_c, 8, 53, 70
10, 163200, Note_on_c, 8, 58, 70
10, 163210, Pitch_bend_c, 8, 11666
10, 163310, Pitch_bend_c, 8, 11749
10, 163315, Note_off_c, 8, 51, 70
10, 163315, Note_off_c, 8, 53, 70
10, 163315, Note_off_c, 8, 58, 70
10, 163320, Note_on_c, 8, 53, 70
10, 163320, Note_on_c, 8, 51, 70
10, 163320, Note_on_c, 8, 58, 70
10, 163330, Pitch_bend_c, 8, 11832
10, 163425, Pitch_bend_c, 8, 11915
10, 163435, Note_off_c, 8, 53, 70
10, 163435, Note_off_c, 8, 51, 70
10, 163435, Note_off_c, 8, 58, 70
10, 163440, Note_on_c, 8, 51, 71
10, 163440, Note_on_c, 8, 53, 71
10, 163440, Note_on_c, 8, 58, 71
10, 163455, Pitch_bend_c, 8, 11997
10, 163555, Note_off_c, 8, 51, 71
10, 163555, Note_off_c, 8, 53, 71
10, 163555, Note_off_c, 8, 58, 71
10, 163560, Note_on_c, 8, 53, 71
10, 163560, Note_on_c, 8, 58, 71
10, 163560, Note_on_c, 8, 51, 71
10, 163565, Pitch_bend_c, 8, 12080
10, 163590, Pitch_bend_c, 8, 12163
10, 163675, Note_off_c, 8, 53, 71
10, 163675, Note_off_c, 8, 58, 71
10, 163675, Note_off_c, 8, 51, 71
10, 163680, Note_on_c, 8, 53, 71
10, 163680, Note_on_c, 8, 58, 71
10, 163680, Note_on_c, 8, 51, 71
10, 163795, Note_off_c, 8, 53, 71
10, 163795, Note_off_c, 8, 58, 71
10, 163795, Note_off_c, 8, 51, 71
10, 163800, Note_on_c, 8, 58, 71
10, 163800, Note_on_c, 8, 51, 71
10, 163800, Note_on_c, 8, 53, 71
10, 163815, Pitch_bend_c, 8, 12245
10, 163845, Pitch_bend_c, 8, 12328
10, 163915, Note_off_c, 8, 58, 71
10, 163915, Note_off_c, 8, 51, 71
10, 163915, Note_off_c, 8, 53, 71
10, 163920, Pitch_bend_c, 8, 12411
10, 163920, Note_on_c, 8, 58, 71
10, 163920, Note_on_c, 8, 51, 71
10, 163920, Note_on_c, 8, 53, 71
10, 164035, Note_off_c, 8, 58, 71
10, 164035, Note_off_c, 8, 51, 71
10, 164035, Note_off_c, 8, 53, 71
10, 164040, Note_on_c, 8, 51, 71
10, 164040, Note_on_c, 8, 58, 71
10, 164040, Note_on_c, 8, 53, 71
10, 164055, Pitch_bend_c, 8, 12494
10, 164145, Pitch_bend_c, 8, 12576
10, 164155, Note_off_c, 8, 51, 71
10, 164155, Note_off_c, 8, 58, 71
10, 164155, Note_off_c, 8, 53, 71
10, 164160, Pitch_bend_c, 8, 12659
10, 164160, Note_on_c, 8, 53, 71
10, 164160, Note_on_c, 8, 51, 71
10, 164160, Note_on_c, 8, 58, 71
10, 164270, Pitch_bend_c, 8, 12742
10, 164275, Note_off_c, 8, 53, 71
10, 164275, Note_off_c, 8, 51, 71
10, 164275, Note_off_c, 8, 58, 71
10, 164280, Note_on_c, 8, 53, 71
10, 164280, Note_on_c, 8, 58, 71
10, 164280, Note_on_c, 8, 51, 71
10, 164290, Pitch_bend_c, 8, 12825
10, 164385, Pitch_bend_c, 8, 12907
10, 164395, Note_off_c, 8, 53, 71
10, 164395, Note_off_c, 8, 58, 71
10, 164395, Note_off_c, 8, 51, 71
10, 164400, Note_on_c, 8, 58, 71
10, 164400, Note_on_c, 8, 53, 71
10, 164400, Note_on_c, 8, 51, 71
10, 164435, Pitch_bend_c, 8, 12990
10, 164475, Pitch_bend_c, 8, 13073
10, 164510, Pitch_bend_c, 8, 13156
10, 164515, Note_off_c, 8, 58, 71
10, 164515, Note_off_c, 8, 53, 71
10, 164515, Note_off_c, 8, 51, 71
10, 164520, Note_on_c, 8, 51, 72
10, 164520, Note_on_c, 8, 53, 72
10, 164520, Note_on_c, 8, 58, 72
10, 164540, Pitch_bend_c, 8, 13238
10, 164555, Pitch_bend_c, 8, 13321
10, 164635, Note_off_c, 8, 51, 72
10, 164635, Note_off_c, 8, 53, 72
10, 164635, Note_off_c, 8, 58, 72
10, 164640, Note_on_c, 8, 53, 72
10, 164640, Note_on_c, 8, 51, 72
10, 164640, Note_on_c, 8, 58, 72
10, 164755, Note_off_c, 8, 53, 72
10, 164755, Note_off_c, 8, 51, 72
10, 164755, Note_off_c, 8, 58, 72
10, 164760, Note_on_c, 8, 53, 72
10, 164760, Note_on_c, 8, 58, 72
10, 164760, Note_on_c, 8, 51, 72
10, 164875, Note_off_c, 8, 53, 72
10, 164875, Note_off_c, 8, 58, 72
10, 164875, Note_off_c, 8, 51, 72
10, 164880, Note_on_c, 8, 51, 72
10, 164880, Note_on_c, 8, 53, 72
10, 164880, Note_on_c, 8, 58, 72
10, 164995, Pitch_bend_c, 8, 13404
10, 164995, Note_off_c, 8, 51, 72
10, 164995, Note_off_c, 8, 53, 72
10, 164995, Note_off_c, 8, 58, 72
10, 165000, Note_on_c, 8, 53, 72
10, 165000, Note_on_c, 8, 58, 72
10, 165000, Note_on_c, 8, 51, 72
10, 165035, Pitch_bend_c, 8, 13487
10, 165115, Note_off_c, 8, 53, 72
10, 165115, Note_off_c, 8, 58, 72
10, 165115, Note_off_c, 8, 51, 72
10, 165120, Note_on_c, 8, 53, 72
10, 165120, Note_on_c, 8, 51, 72
10, 165120, Note_on_c, 8, 58, 72
10, 165150, Pitch_bend_c, 8, 13569
10, 165235, Note_off_c, 8, 53, 72
10, 165235, Note_off_c, 8, 51, 72
10, 165235, Note_off_c, 8, 58, 72
10, 165240, Note_on_c, 8, 58, 72
10, 165240, Note_on_c, 8, 51, 72
10, 165240, Note_on_c, 8, 53, 72
10, 165260, Pitch_bend_c, 8, 13652
10, 165275, Pitch_bend_c, 8, 13735
10, 165355, Note_off_c, 8, 58, 72
10, 165355, Note_off_c, 8, 51, 72
10, 165355, Note_off_c, 8, 53, 72
10, 165360, Note_on_c, 8, 53, 72
10, 165360, Note_on_c, 8, 51, 72
10, 165360, Note_on_c, 8, 58, 72
10, 165475, Pitch_bend_c, 8, 13817
10, 165475, Note_off_c, 8, 53, 72
10, 165475, Note_off_c, 8, 51, 72
10, 165475, Note_off_c, 8, 58, 72
10, 165480, Note_on_c, 8, 51, 73
10, 165480, Note_on_c, 8, 53, 73
10, 165480, Note_on_c, 8, 58, 73
10, 165500, Pitch_bend_c, 8, 13900
10, 165505, Pitch_bend_c, 8, 13983
10, 165595, Note_off_c, 8, 51, 73
10, 165595, Note_off_c, 8, 53, 73
10, 165595, Note_off_c, 8, 58, 73
10, 165600, Note_on_c, 8, 51, 73
10, 165600, Note_on_c, 8, 53, 73
10, 165600, Note_on_c, 8, 58, 73
10, 165615, Pitch_bend_c, 8, 14066
10, 165715, Note_off_c, 8, 51, 73
10, 165715, Note_off_c, 8, 53, 73
10, 165715, Note_off_c, 8, 58, 73
10, 165720, Note_on_c, 8, 53, 73
10, 165720, Note_on_c, 8, 51, 73
10, 165720, Note_on_c, 8, 58, 73
10, 165765, Pitch_bend_c, 8, 14148
10, 165835, Note_off_c, 8, 53, 73
10, 165835, Note_off_c, 8, 51, 73
10, 165835, Note_off_c, 8, 58, 73
10, 165840, Note_on_c, 8, 53, 73
10, 165840, Note_on_c, 8, 51, 73
10, 165840, Note_on_c, 8, 58, 73
10, 165850, Pitch_bend_c, 8, 14231
10, 165890, Pitch_bend_c, 8, 14314
10, 165905, Pitch_bend_c, 8, 14397
10, 165955, Note_off_c, 8, 53, 73
10, 165955, Note_off_c, 8, 51, 73
10, 165955, Note_off_c, 8, 58, 73
10, 165960, Note_on_c, 8, 51, 73
10, 165960, Note_on_c, 8, 53, 73
10, 165960, Note_on_c, 8, 58, 73
10, 166075, Note_off_c, 8, 51, 73
10, 166075, Note_off_c, 8, 53, 73
10, 166075, Note_off_c, 8, 58, 73
10, 166080, Note_on_c, 8, 51, 73
10, 166080, Note_on_c, 8, 53, 73
10, 166080, Note_on_c, 8, 58, 73
10, 166130, Pitch_bend_c, 8, 14479
10, 166195, Note_off_c, 8, 51, 73
10, 166195, Note_off_c, 8, 53, 73
10, 166195, Note_off_c, 8, 58, 73
10, 166200, Note_on_c, 8, 51, 73
10, 166200, Note_on_c, 8, 53, 73
10, 166200, Note_on_c, 8, 58, 73
10, 166225, Pitch_bend_c, 8, 14562
10, 166245, Pitch_bend_c, 8, 14645
10, 166315, Note_off_c, 8, 51, 73
10, 166315, Note_off_c, 8, 53, 73
10, 166315, Note_off_c, 8, 58, 73
10, 166320, Note_on_c, 8, 53, 73
10, 166320, Note_on_c, 8, 51, 73
10, 166320, Note_on_c, 8, 58, 73
10, 166380, Pitch_bend_c, 8, 14728
10, 166415, Pitch_bend_c, 8, 14810
10, 166435, Note_off_c, 8, 53, 73
10, 166435, Note_off_c, 8, 51, 73
10, 166435, Note_off_c, 8, 58, 73
10, 166440, Note_on_c, 8, 51, 73
10, 166440, Note_on_c, 8, 53, 73
10, 166440, Note_on_c, 8, 58, 73
10, 166555, Note_off_c, 8, 51, 73
10, 166555, Note_off_c, 8, 53, 73
10, 166555, Note_off_c, 8, 58, 73
10, 166560, Note_on_c, 8, 51, 74
10, 166560, Note_on_c, 8, 53, 74
10, 166560, Note_on_c, 8, 58, 74
10, 166580, Pitch_bend_c, 8, 14893
10, 166620, Pitch_bend_c, 8, 14976
10, 166675, Note_off_c, 8, 51, 74
10, 166675, Note_off_c, 8, 53, 74
10, 166675, Note_off_c, 8, 58, 74
10, 166680, Note_on_c, 8, 53, 74
10, 166680, Note_on_c, 8, 51, 74
10, 166680, Note_on_c, 8, 58, 74
10, 166710, Pitch_bend_c, 8, 15058
10, 166780, Pitch_bend_c, 8, 15141
10, 166795, Note_off_c, 8, 53, 74
10, 166795, Note_off_c, 8, 51, 74
10, 166795, Note_off_c, 8, 58, 74
10, 166800, Note_on_c, 8, 58, 74
10, 166800, Note_on_c, 8, 51, 74
10, 166800, Note_on_c, 8, 53, 74
10, 166915, Note_off_c, 8, 58, 74
10, 166915, Note_off_c, 8, 51, 74
10, 166915, Note_off_c, 8, 53, 74
10, 166920, Note_on_c, 8, 58, 74
10, 166920, Note_on_c, 8, 51, 74
10, 166920, Note_on_c, 8, 53, 74
10, 166965, Pitch_bend_c, 8, 15224
10, 167035, Note_off_c, 8, 58, 74
10, 167035, Note_off_c, 8, 51, 74
10, 167035, Note_off_c, 8, 53, 74
10, 167040, Note_on_c, 8, 58, 68
10, 167040, Note_on_c, 8, 53, 68
10, 167040, Note_on_c, 8, 51, 68
10, 167065, Pitch_bend_c, 8, 9267
10, 167150, Pitch_bend_c, 8, 9350
10, 167155, Note_off_c, 8, 58, 68
10, 167155, Note_off_c, 8, 53, 68
10, 167155, Note_off_c, 8, 51, 68
10, 167160, Note_on_c, 8, 53, 69
10, 167160, Note_on_c, 8, 51, 69
10, 167160, Note_on_c, 8, 58, 69
10, 167180, Pitch_bend_c, 8, 9433
10, 167205, Pitch_bend_c, 8, 9515
10, 167265, Pitch_bend_c, 8, 9598
10, 167275, Pitch_bend_c, 8, 9763
10, 167275, Note_off_c, 8, 53, 69
10, 167275, Note_off_c, 8, 51, 69
10, 167275, Note_off_c, 8, 58, 69
10, 167280, Note_on_c, 8, 58, 69
10, 167280, Note_on_c, 8, 51, 69
10, 167280, Note_on_c, 8, 53, 69
10, 167290, Pitch_bend_c, 8, 9846
10, 167305, Pitch_bend_c, 8, 9929
10, 167320, Pitch_bend_c, 8, 10012
10, 167395, Note_off_c, 8, 58, 69
10, 167395, Note_off_c, 8, 51, 69
10, 167395, Note_off_c, 8, 53, 69
10, 167400, Note_on_c, 8, 51, 69
10, 167400, Note_on_c, 8, 53, 69
10, 167400, Note_on_c, 8, 58, 69
10, 167415, Pitch_bend_c, 8, 10094
10, 167515, Note_off_c, 8, 51, 69
10, 167515, Note_off_c, 8, 53, 69
10, 167515, Note_off_c, 8, 58, 69
10, 167520, Note_on_c, 8, 51, 69
10, 167520, Note_on_c, 8, 53, 69
10, 167520, Note_on_c, 8, 58, 69
10, 167555, Pitch_bend_c, 8, 10177
10, 167630, Pitch_bend_c, 8, 10260
10, 167635, Note_off_c, 8, 51, 69
10, 167635, Note_off_c, 8, 53, 69
10, 167635, Note_off_c, 8, 58, 69
10, 167640, Note_on_c, 8, 53, 69
10, 167640, Note_on_c, 8, 51, 69
10, 167640, Note_on_c, 8, 58, 69
10, 167645, Pitch_bend_c, 8, 10343
10, 167740, Pitch_bend_c, 8, 10425
10, 167755, Note_off_c, 8, 53, 69
10, 167755, Note_off_c, 8, 51, 69
10, 167755, Note_off_c, 8, 58, 69
10, 167760, Note_on_c, 8, 53, 69
10, 167760, Note_on_c, 8, 51, 69
10, 167760, Note_on_c, 8, 58, 69
10, 167765, Pitch_bend_c, 8, 10508
10, 167770, Pitch_bend_c, 8, 10591
10, 167850, Pitch_bend_c, 8, 10674
10, 167875, Note_off_c, 8, 53, 69
10, 167875, Note_off_c, 8, 51, 69
10, 167875, Note_off_c, 8, 58, 69
10, 167880, Pitch_bend_c, 8, 10756
10, 167880, Note_on_c, 8, 51, 69
10, 167880, Note_on_c, 8, 53, 69
10, 167880, Note_on_c, 8, 58, 69
10, 167905, Pitch_bend_c, 8, 10839
10, 167995, Note_off_c, 8, 51, 69
10, 167995, Note_off_c, 8, 53, 69
10, 167995, Note_off_c, 8, 58, 69
10, 168000, Note_on_c, 8, 51, 69
10, 168000, Note_on_c, 8, 53, 69
10, 168000, Note_on_c, 8, 58, 69
10, 168020, Pitch_bend_c, 8, 10922
10, 168115, Note_off_c, 8, 51, 69
10, 168115, Note_off_c, 8, 53, 69
10, 168115, Note_off_c, 8, 58, 69
10, 168120, Note_on_c, 8, 51, 69
10, 168120, Note_on_c, 8, 53, 69
10, 168120, Note_on_c, 8, 58, 69
10, 168140, Pitch_bend_c, 8, 11004
10, 168220, Pitch_bend_c, 8, 11087
10, 168235, Note_off_c, 8, 51, 69
10, 168235, Note_off_c, 8, 53, 69
10, 168235, Note_off_c, 8, 58, 69
10, 168240, Pitch_bend_c, 8, 11170
10, 168240, Note_on_c, 8, 53, 70
10, 168240, Note_on_c, 8, 51, 70
10, 168240, Note_on_c, 8, 58, 70
10, 168255, Pitch_bend_c, 8, 11253
10, 168355, Note_off_c, 8, 53, 70
10, 168355, Note_off_c, 8, 51, 70
10, 168355, Note_off_c, 8, 58, 70
10, 168360, Note_on_c, 8, 53, 70
10, 168360, Note_on_c, 8, 51, 70
10, 168360, Note_on_c, 8, 58, 70
10, 168405, Pitch_bend_c, 8, 11335
10, 168475, Note_off_c, 8, 53, 70
10, 168475, Note_off_c, 8, 51, 70
10, 168475, Note_off_c, 8, 58, 70
10, 168480, Note_on_c, 8, 51, 70
10, 168480, Note_on_c, 8, 53, 70
10, 168480, Note_on_c, 8, 58, 70
10, 168490, Pitch_bend_c, 8, 11418
10, 168595, Note_off_c, 8, 51, 70
10, 168595, Note_off_c, 8, 53, 70
10, 168595, Note_off_c, 8, 58, 70
10, 168600, Note_on_c, 8, 51, 70
10, 168600, Note_on_c, 8, 53, 70
10, 168600, Note_on_c, 8, 58, 70
10, 168605, Pitch_bend_c, 8, 11501
10, 168715, Note_off_c, 8, 51, 70
10, 168715, Note_off_c, 8, 53, 70
10, 168715, Note_off_c, 8, 58, 70
10, 168720, Note_on_c, 8, 58, 70
10, 168720, Note_on_c, 8, 51, 70
10, 168720, Note_on_c, 8, 53, 70
10, 168835, Note_off_c, 8, 58, 70
10, 168835, Note_off_c, 8, 51, 70
10, 168835, Note_off_c, 8, 53, 70
10, 168840, Note_on_c, 8, 58, 70
10, 168840, Note_on_c, 8, 51, 70
10, 168840, Note_on_c, 8, 53, 70
10, 168945, Pitch_bend_c, 8, 11584
10, 168955, Note_off_c, 8, 58, 70
10, 168955, Note_off_c, 8, 51, 70
10, 168955, Note_off_c, 8, 53, 70
10, 168960, Note_on_c, 8, 51, 70
10, 168960, Note_on_c, 8, 53, 70
10, 168960, Note_on_c, 8, 58, 70
10, 168970, Pitch_bend_c, 8, 11666
10, 169070, Pitch_bend_c, 8, 11749
10, 169075, Note_off_c, 8, 51, 70
10, 169075, Note_off_c, 8, 53, 70
10, 169075, Note_off_c, 8, 58, 70
10, 169080, Note_on_c, 8, 53, 70
10, 169080, Note_on_c, 8, 51, 70
10, 169080, Note_on_c, 8, 58, 70
10, 169090, Pitch_bend_c, 8, 11832
10, 169185, Pitch_bend_c, 8, 11915
10, 169195, Note_off_c, 8, 53, 70
10, 169195, Note_off_c, 8, 51, 70
10, 169195, Note_off_c, 8, 58, 70
10, 169200, Note_on_c, 8, 51, 71
10, 169200, Note_on_c, 8, 53, 71
10, 169200, Note_on_c, 8, 58, 71
10, 169215, Pitch_bend_c, 8, 11997
10, 169315, Note_off_c, 8, 51, 71
10, 169315, Note_off_c, 8, 53, 71
10, 169315, Note_off_c, 8, 58, 71
10, 169320, Note_on_c, 8, 53, 71
10, 169320, Note_on_c, 8, 51, 71
10, 169320, Note_on_c, 8, 58, 71
10, 169325, Pitch_bend_c, 8, 12080
10, 169350, Pitch_bend_c, 8, 12163
10, 169435, Note_off_c, 8, 53, 71
10, 169435, Note_off_c, 8, 51, 71
10, 169435, Note_off_c, 8, 58, 71
10, 169440, Note_on_c, 8, 53, 71
10, 169440, Note_on_c, 8, 51, 71
10, 169440, Note_on_c, 8, 58, 71
10, 169555, Note_off_c, 8, 53, 71
10, 169555, Note_off_c, 8, 51, 71
10, 169555, Note_off_c, 8, 58, 71
10, 169560, Note_on_c, 8, 53, 71
10, 169560, Note_on_c, 8, 51, 71
10, 169560, Note_on_c, 8, 58, 71
10, 169575, Pitch_bend_c, 8, 12245
10, 169605, Pitch_bend_c, 8, 12328
10, 169675, Note_off_c, 8, 53, 71
10, 169675, Note_off_c, 8, 51, 71
10, 169675, Note_off_c, 8, 58, 71
10, 169680, Pitch_bend_c, 8, 12411
10, 169680, Note_on_c, 8, 58, 71
10, 169680, Note_on_c, 8, 51, 71
10, 169680, Note_on_c, 8, 53, 71
10, 169795, Note_off_c, 8, 58, 71
10, 169795, Note_off_c, 8, 51, 71
10, 169795, Note_off_c, 8, 53, 71
10, 169800, Note_on_c, 8, 58, 71
10, 169800, Note_on_c, 8, 51, 71
10, 169800, Note_on_c, 8, 53, 71
10, 169815, Pitch_bend_c, 8, 12494
10, 169905, Pitch_bend_c, 8, 12576
10, 169915, Note_off_c, 8, 58, 71
10, 169915, Note_off_c, 8, 51, 71
10, 169915, Note_off_c, 8, 53, 71
10, 169920, Pitch_bend_c, 8, 12659
10, 169920, Note_on_c, 8, 53, 71
10, 169920, Note_on_c, 8, 51, 71
10, 169920, Note_on_c, 8, 58, 71
10, 170030, Pitch_bend_c, 8, 12742
10, 170035, Note_off_c, 8, 53, 71
10, 170035, Note_off_c, 8, 51, 71
10, 170035, Note_off_c, 8, 58, 71
10, 170040, Note_on_c, 8, 53, 71
10, 170040, Note_on_c, 8, 51, 71
10, 170040, Note_on_c, 8, 58, 71
10, 170050, Pitch_bend_c, 8, 12825
10, 170145, Pitch_bend_c, 8, 12907
10, 170155, Note_off_c, 8, 53, 71
10, 170155, Note_off_c, 8, 51, 71
10, 170155, Note_off_c, 8, 58, 71
10, 170160, Note_on_c, 8, 51, 71
10, 170160, Note_on_c, 8, 58, 71
10, 170160, Note_on_c, 8, 53, 71
10, 170195, Pitch_bend_c, 8, 12990
10, 170235, Pitch_bend_c, 8, 13073
10, 170270, Pitch_bend_c, 8, 13156
10, 170275, Note_off_c, 8, 51, 71
10, 170275, Note_off_c, 8, 58, 71
10, 170275, Note_off_c, 8, 53, 71
10, 170280, Note_on_c, 8, 51, 72
10, 170280, Note_on_c, 8, 53, 72
10, 170280, Note_on_c, 8, 58, 72
10, 170300, Pitch_bend_c, 8, 13238
10, 170315, Pitch_bend_c, 8, 13321
10, 170395, Note_off_c, 8, 51, 72
10, 170395, Note_off_c, 8, 53, 72
10, 170395, Note_off_c, 8, 58, 72
10, 170400, Note_on_c, 8, 51, 72
10, 170400, Note_on_c, 8, 53, 72
10, 170400, Note_on_c, 8, 58, 72
10, 170515, Note_off_c, 8, 51, 72
10, 170515, Note_off_c, 8, 53, 72
10, 170515, Note_off_c, 8, 58, 72
10, 170520, Note_on_c, 8, 53, 72
10, 170520, Note_on_c, 8, 58, 72
10, 170520, Note_on_c, 8, 51, 72
10, 170635, Note_off_c, 8, 53, 72
10, 170635, Note_off_c, 8, 58, 72
10, 170635, Note_off_c, 8, 51, 72
10, 170640, Note_on_c, 8, 58, 72
10, 170640, Note_on_c, 8, 51, 72
10, 170640, Note_on_c, 8, 53, 72
10, 170755, Pitch_bend_c, 8, 13404
10, 170755, Note_off_c, 8, 58, 72
10, 170755, Note_off_c, 8, 51, 72
10, 170755, Note_off_c, 8, 53, 72
10, 170760, Note_on_c, 8, 51, 72
10, 170760, Note_on_c, 8, 58, 72
10, 170760, Note_on_c, 8, 53, 72
10, 170795, Pitch_bend_c, 8, 13487
10, 170875, Note_off_c, 8, 51, 72
10, 170875, Note_off_c, 8, 58, 72
10, 170875, Note_off_c, 8, 53, 72
10, 170880, Note_on_c, 8, 51, 72
10, 170880, Note_on_c, 8, 53, 72
10, 170880, Note_on_c, 8, 58, 72
10, 170910, Pitch_bend_c, 8, 13569
10, 170995, Note_off_c, 8, 51, 72
10, 170995, Note_off_c, 8, 53, 72
10, 170995, Note_off_c, 8, 58, 72
10, 171000, Note_on_c, 8, 58, 72
10, 171000, Note_on_c, 8, 51, 72
10, 171000, Note_on_c, 8, 53, 72
10, 171020, Pitch_bend_c, 8, 13652
10, 171035, Pitch_bend_c, 8, 13735
10, 171115, Note_off_c, 8, 58, 72
10, 171115, Note_off_c, 8, 51, 72
10, 171115, Note_off_c, 8, 53, 72
10, 171120, Note_on_c, 8, 53, 72
10, 171120, Note_on_c, 8, 51, 72
10, 171120, Note_on_c, 8, 58, 72
10, 171235, Pitch_bend_c, 8, 13817
10, 171235, Note_off_c, 8, 53, 72
10, 171235, Note_off_c, 8, 51, 72
10, 171235, Note_off_c, 8, 58, 72
10, 171240, Note_on_c, 8, 51, 73
10, 171240, Note_on_c, 8, 58, 73
10, 171240, Note_on_c, 8, 53, 73
10, 171260, Pitch_bend_c, 8, 13900
10, 171265, Pitch_bend_c, 8, 13983
10, 171355, Note_off_c, 8, 51, 73
10, 171355, Note_off_c, 8, 58, 73
10, 171355, Note_off_c, 8, 53, 73
10, 171360, Note_on_c, 8, 51, 73
10, 171360, Note_on_c, 8, 58, 73
10, 171360, Note_on_c, 8, 53, 73
10, 171375, Pitch_bend_c, 8, 14066
10, 171475, Note_off_c, 8, 51, 73
10, 171475, Note_off_c, 8, 58, 73
10, 171475, Note_off_c, 8, 53, 73
10, 171480, Note_on_c, 8, 51, 73
10, 171480, Note_on_c, 8, 58, 73
10, 171480, Note_on_c, 8, 53, 73
10, 171525, Pitch_bend_c, 8, 14148
10, 171595, Note_off_c, 8, 51, 73
10, 171595, Note_off_c, 8, 58, 73
10, 171595, Note_off_c, 8, 53, 73
10, 171600, Note_on_c, 8, 53, 73
10, 171600, Note_on_c, 8, 51, 73
10, 171600, Note_on_c, 8, 58, 73
10, 171610, Pitch_bend_c, 8, 14231
10, 171650, Pitch_bend_c, 8, 14314
10, 171665, Pitch_bend_c, 8, 14397
10, 171715, Note_off_c, 8, 53, 73
10, 171715, Note_off_c, 8, 51, 73
10, 171715, Note_off_c, 8, 58, 73
10, 171720, Note_on_c, 8, 58, 73
10, 171720, Note_on_c, 8, 51, 73
10, 171720, Note_on_c, 8, 53, 73
10, 171835, Note_off_c, 8, 58, 73
10, 171835, Note_off_c, 8, 51, 73
10, 171835, Note_off_c, 8, 53, 73
10, 171840, Note_on_c, 8, 51, 73
10, 171840, Note_on_c, 8, 53, 73
10, 171840, Note_on_c, 8, 58, 73
10, 171890, Pitch_bend_c, 8, 14479
10, 171955, Note_off_c, 8, 51, 73
10, 171955, Note_off_c, 8, 53, 73
10, 171955, Note_off_c, 8, 58, 73
10, 171960, Note_on_c, 8, 51, 73
10, 171960, Note_on_c, 8, 58, 73
10, 171960, Note_on_c, 8, 53, 73
10, 171985, Pitch_bend_c, 8, 14562
10, 172005, Pitch_bend_c, 8, 14645
10, 172075, Note_off_c, 8, 51, 73
10, 172075, Note_off_c, 8, 58, 73
10, 172075, Note_off_c, 8, 53, 73
10, 172080, Note_on_c, 8, 53, 73
10, 172080, Note_on_c, 8, 58, 73
10, 172080, Note_on_c, 8, 51, 73
10, 172140, Pitch_bend_c, 8, 14728
10, 172175, Pitch_bend_c, 8, 14810
10, 172195, Note_off_c, 8, 53, 73
10, 172195, Note_off_c, 8, 58, 73
10, 172195, Note_off_c, 8, 51, 73
10, 172200, Note_on_c, 8, 51, 73
10, 172200, Note_on_c, 8, 53, 73
10, 172200, Note_on_c, 8, 58, 73
10, 172315, Note_off_c, 8, 51, 73
10, 172315, Note_off_c, 8, 53, 73
10, 172315, Note_off_c, 8, 58, 73
10, 172320, Note_on_c, 8, 51, 74
10, 172320, Note_on_c, 8, 53, 74
10, 172320, Note_on_c, 8, 58, 74
10, 172340, Pitch_bend_c, 8, 14893
10, 172380, Pitch_bend_c, 8, 14976
10, 172435, Note_off_c, 8, 51, 74
10, 172435, Note_off_c, 8, 53, 74
10, 172435, Note_off_c, 8, 58, 74
10, 172440, Note_on_c, 8, 51, 74
10, 172440, Note_on_c, 8, 53, 74
10, 172440, Note_on_c, 8, 58, 74
10, 172470, Pitch_bend_c, 8, 15058
10, 172540, Pitch_bend_c, 8, 15141
10, 172555, Note_off_c, 8, 51, 74
10, 172555, Note_off_c, 8, 53, 74
10, 172555, Note_off_c, 8, 58, 74
10, 172560, Note_on_c, 8, 58, 74
10, 172560, Note_on_c, 8, 51, 74
10, 172560, Note_on_c, 8, 53, 74
10, 172675, Note_off_c, 8, 58, 74
10, 172675, Note_off_c, 8, 51, 74
10, 172675, Note_off_c, 8, 53, 74
10, 172680, Note_on_c, 8, 51, 74
10, 172680, Note_on_c, 8, 53, 74
10, 172680, Note_on_c, 8, 58, 74
10, 172725, Pitch_bend_c, 8, 15224
10, 172795, Note_off_c, 8, 51, 74
10, 172795, Note_off_c, 8, 53, 74
10, 172795, Note_off_c, 8, 58, 74
10, 172800, Note_on_c, 8, 58, 68
10, 172800, Note_on_c, 8, 53, 68
10, 172800, Note_on_c, 8, 51, 68
10, 172825, Pitch_bend_c, 8, 9267
10, 172910, Pitch_bend_c, 8, 9350
10, 172915, Note_off_c, 8, 58, 68
10, 172915, Note_off_c, 8, 53, 68
10, 172915, Note_off_c, 8, 51, 68
10, 172920, Note_on_c, 8, 53, 69
10, 172920, Note_on_c, 8, 51, 69
10, 172920, Note_on_c, 8, 58, 69
10, 172940, Pitch_bend_c, 8, 9433
10, 172965, Pitch_bend_c, 8, 9515
10, 173025, Pitch_bend_c, 8, 9598
10, 173035, Pitch_bend_c, 8, 9763
10, 173035, Note_off_c, 8, 53, 69
10, 173035, Note_off_c, 8, 51, 69
10, 173035, Note_off_c, 8, 58, 69
10, 173040, Note_on_c, 8, 58, 69
10, 173040, Note_on_c, 8, 51, 69
10, 173040, Note_on_c, 8, 53, 69
10, 173050, Pitch_bend_c, 8, 9846
10, 173065, Pitch_bend_c, 8, 9929
10, 173080, Pitch_bend_c, 8, 10012
10, 173155, Note_off_c, 8, 58, 69
10, 173155, Note_off_c, 8, 51, 69
10, 173155, Note_off_c, 8, 53, 69
10, 173160, Note_on_c, 8, 51, 69
10, 173160, Note_on_c, 8, 53, 69
10, 173160, Note_on_c, 8, 58, 69
10, 173175, Pitch_bend_c, 8, 10094
10, 173275, Note_off_c, 8, 51, 69
10, 173275, Note_off_c, 8, 53, 69
10, 173275, Note_off_c, 8, 58, 69
10, 173280, Note_on_c, 8, 51, 69
10, 173280, Note_on_c, 8, 53, 69
10, 173280, Note_on_c, 8, 58, 69
10, 173315, Pitch_bend_c, 8, 10177
10, 173390, Pitch_bend_c, 8, 10260
10, 173395, Note_off_c, 8, 51, 69
10, 173395, Note_off_c, 8, 53, 69
10, 173395, Note_off_c, 8, 58, 69
10, 173400, Note_on_c, 8, 51, 69
10, 173400, Note_on_c, 8, 53, 69
10, 173400, Note_on_c, 8, 58, 69
10, 173405, Pitch_bend_c, 8, 10343
10, 173500, Pitch_bend_c, 8, 10425
10, 173515, Note_off_c, 8, 51, 69
10, 173515, Note_off_c, 8, 53, 69
10, 173515, Note_off_c, 8, 58, 69
10, 173520, Note_on_c, 8, 53, 69
10, 173520, Note_on_c, 8, 51, 69
10, 173520, Note_on_c, 8, 58, 69
10, 173525, Pitch_bend_c, 8, 10508
10, 173530, Pitch_bend_c, 8, 10591
10, 173610, Pitch_bend_c, 8, 10674
10, 173635, Note_off_c, 8, 53, 69
10, 173635, Note_off_c, 8, 51, 69
10, 173635, Note_off_c, 8, 58, 69
10, 173640, Pitch_bend_c, 8, 10756
10, 173640, Note_on_c, 8, 51, 69
10, 173640, Note_on_c, 8, 53, 69
10, 173640, Note_on_c, 8, 58, 69
10, 173665, Pitch_bend_c, 8, 10839
10, 173755, Note_off_c, 8, 51, 69
10, 173755, Note_off_c, 8, 53, 69
10, 173755, Note_off_c, 8, 58, 69
10, 173760, Note_on_c, 8, 51, 69
10, 173760, Note_on_c, 8, 53, 69
10, 173760, Note_on_c, 8, 58, 69
10, 173780, Pitch_bend_c, 8, 10922
10, 173875, Note_off_c, 8, 51, 69
10, 173875, Note_off_c, 8, 53, 69
10, 173875, Note_off_c, 8, 58, 69
10, 173880, Note_on_c, 8, 51, 69
10, 173880, Note_on_c, 8, 53, 69
10, 173880, Note_on_c, 8, 58, 69
10, 173900, Pitch_bend_c, 8, 11004
10, 173980, Pitch_bend_c, 8, 11087
10, 173995, Note_off_c, 8, 51, 69
10, 173995, Note_off_c, 8, 53, 69
10, 173995, Note_off_c, 8, 58, 69
10, 174000, Pitch_bend_c, 8, 11170
10, 174000, Note_on_c, 8, 53, 70
10, 174000, Note_on_c, 8, 51, 70
10, 174000, Note_on_c, 8, 58, 70
10, 174015, Pitch_bend_c, 8, 11253
10, 174115, Note_off_c, 8, 53, 70
10, 174115, Note_off_c, 8, 51, 70
10, 174115, Note_off_c, 8, 58, 70
10, 174120, Note_on_c, 8, 53, 70
10, 174120, Note_on_c, 8, 51, 70
10, 174120, Note_on_c, 8, 58, 70
10, 174165, Pitch_bend_c, 8, 11335
10, 174235, Note_off_c, 8, 53, 70
10, 174235, Note_off_c, 8, 51, 70
10, 174235, Note_off_c, 8, 58, 70
10, 174240, Note_on_c, 8, 58, 70
10, 174240, Note_on_c, 8, 51, 70
10, 174240, Note_on_c, 8, 53, 70
10, 174250, Pitch_bend_c, 8, 11418
10, 174355, Note_off_c, 8, 58, 70
10, 174355, Note_off_c, 8, 51, 70
10, 174355, Note_off_c, 8, 53, 70
10, 174360, Note_on_c, 8, 53, 70
10, 174360, Note_on_c, 8, 51, 70
10, 174360, Note_on_c, 8, 58, 70
10, 174365, Pitch_bend_c, 8, 11501
10, 174475, Note_off_c, 8, 53, 70
10, 174475, Note_off_c, 8, 51, 70
10, 174475, Note_off_c, 8, 58, 70
10, 174480, Note_on_c, 8, 53, 70
10, 174480, Note_on_c, 8, 58, 70
10, 174480, Note_on_c, 8, 51, 70
10, 174595, Note_off_c, 8, 53, 70
10, 174595, Note_off_c, 8, 58, 70
10, 174595, Note_off_c, 8, 51, 70
10, 174600, Note_on_c, 8, 53, 70
10, 174600, Note_on_c, 8, 58, 70
10, 174600, Note_on_c, 8, 51, 70
10, 174705, Pitch_bend_c, 8, 11584
10, 174715, Note_off_c, 8, 53, 70
10, 174715, Note_off_c, 8, 58, 70
10, 174715, Note_off_c, 8, 51, 70
10, 174720, Note_on_c, 8, 53, 68
10, 174720, Note_on_c, 8, 51, 68
10, 174720, Note_on_c, 8, 58, 68
10, 174745, Pitch_bend_c, 8, 9267
10, 174830, Pitch_bend_c, 8, 9350
10, 174835, Note_off_c, 8, 53, 68
10, 174835, Note_off_c, 8, 51, 68
10, 174835, Note_off_c, 8, 58, 68
10, 174840, Note_on_c, 8, 53, 69
10, 174840, Note_on_c, 8, 51, 69
10, 174840, Note_on_c, 8, 58, 69
10, 174860, Pitch_bend_c, 8, 9433
10, 174885, Pitch_bend_c, 8, 9515
10, 174945, Pitch_bend_c, 8, 9598
10, 174955, Pitch_bend_c, 8, 9763
10, 174955, Note_off_c, 8, 53, 69
10, 174955, Note_off_c, 8, 51, 69
10, 174955, Note_off_c, 8, 58, 69
10, 174960, Note_on_c, 8, 58, 69
10, 174960, Note_on_c, 8, 51, 69
10, 174960, Note_on_c, 8, 53, 69
10, 174970, Pitch_bend_c, 8, 9846
10, 174985, Pitch_bend_c, 8, 9929
10, 175000, Pitch_bend_c, 8, 10012
10, 175075, Note_off_c, 8, 58, 69
10, 175075, Note_off_c, 8, 51, 69
10, 175075, Note_off_c, 8, 53, 69
10, 175080, Note_on_c, 8, 51, 69
10, 175080, Note_on_c, 8, 53, 69
10, 175080, Note_on_c, 8, 58, 69
10, 175095, Pitch_bend_c, 8, 10094
10, 175195, Note_off_c, 8, 51, 69
10, 175195, Note_off_c, 8, 53, 69
10, 175195, Note_off_c, 8, 58, 69
10, 175200, Note_on_c, 8, 51, 69
10, 175200, Note_on_c, 8, 53, 69
10, 175200, Note_on_c, 8, 58, 69
10, 175235, Pitch_bend_c, 8, 10177
10, 175310, Pitch_bend_c, 8, 10260
10, 175315, Note_off_c, 8, 51, 69
10, 175315, Note_off_c, 8, 53, 69
10, 175315, Note_off_c, 8, 58, 69
10, 175320, Note_on_c, 8, 53, 69
10, 175320, Note_on_c, 8, 51, 69
10, 175320, Note_on_c, 8, 58, 69
10, 175325, Pitch_bend_c, 8, 10343
10, 175420, Pitch_bend_c, 8, 10425
10, 175435, Note_off_c, 8, 53, 69
10, 175435, Note_off_c, 8, 51, 69
10, 175435, Note_off_c, 8, 58, 69
10, 175440, Note_on_c, 8, 53, 69
10, 175440, Note_on_c, 8, 51, 69
10, 175440, Note_on_c, 8, 58, 69
10, 175445, Pitch_bend_c, 8, 10508
10, 175450, Pitch_bend_c, 8, 10591
10, 175530, Pitch_bend_c, 8, 10674
10, 175555, Note_off_c, 8, 53, 69
10, 175555, Note_off_c, 8, 51, 69
10, 175555, Note_off_c, 8, 58, 69
10, 175560, Pitch_bend_c, 8, 10756
10, 175560, Note_on_c, 8, 51, 69
10, 175560, Note_on_c, 8, 53, 69
10, 175560, Note_on_c, 8, 58, 69
10, 175585, Pitch_bend_c, 8, 10839
10, 175675, Note_off_c, 8, 51, 69
10, 175675, Note_off_c, 8, 53, 69
10, 175675, Note_off_c, 8, 58, 69
10, 175680, Note_on_c, 8, 51, 69
10, 175680, Note_on_c, 8, 53, 69
10, 175680, Note_on_c, 8, 58, 69
10, 175700, Pitch_bend_c, 8, 10922
10, 175795, Note_off_c, 8, 51, 69
10, 175795, Note_off_c, 8, 53, 69
10, 175795, Note_off_c, 8, 58, 69
10, 175800, Note_on_c, 8, 53, 69
10, 175800, Note_on_c, 8, 51, 69
10, 175800, Note_on_c, 8, 58, 69
10, 175820, Pitch_bend_c, 8, 11004
10, 175900, Pitch_bend_c, 8, 11087
10, 175915, Note_off_c, 8, 53, 69
10, 175915, Note_off_c, 8, 51, 69
10, 175915, Note_off_c, 8, 58, 69
10, 175920, Pitch_bend_c, 8, 11170
10, 175920, Note_on_c, 8, 53, 70
10, 175920, Note_on_c, 8, 51, 70
10, 175920, Note_on_c, 8, 58, 70
10, 175935, Pitch_bend_c, 8, 11253
10, 176035, Note_off_c, 8, 53, 70
10, 176035, Note_off_c, 8, 51, 70
10, 176035, Note_off_c, 8, 58, 70
10, 176040, Note_on_c, 8, 53, 70
10, 176040, Note_on_c, 8, 51, 70
10, 176040, Note_on_c, 8, 58, 70
10, 176085, Pitch_bend_c, 8, 11335
10, 176155, Note_off_c, 8, 53, 70
10, 176155, Note_off_c, 8, 51, 70
10, 176155, Note_off_c, 8, 58, 70
10, 176160, Note_on_c, 8, 51, 70
10, 176160, Note_on_c, 8, 53, 70
10, 176160, Note_on_c, 8, 58, 70
10, 176170, Pitch_bend_c, 8, 11418
10, 176275, Note_off_c, 8, 51, 70
10, 176275, Note_off_c, 8, 53, 70
10, 176275, Note_off_c, 8, 58, 70
10, 176280, Note_on_c, 8, 51, 70
10, 176280, Note_on_c, 8, 53, 70
10, 176280, Note_on_c, 8, 58, 70
10, 176285, Pitch_bend_c, 8, 11501
10, 176395, Note_off_c, 8, 51, 70
10, 176395, Note_off_c, 8, 53, 70
10, 176395, Note_off_c, 8, 58, 70
10, 176400, Note_on_c, 8, 58, 70
10, 176400, Note_on_c, 8, 51, 70
10, 176400, Note_on_c, 8, 53, 70
10, 176515, Note_off_c, 8, 58, 70
10, 176515, Note_off_c, 8, 51, 70
10, 176515, Note_off_c, 8, 53, 70
10, 176520, Note_on_c, 8, 53, 70
10, 176520, Note_on_c, 8, 51, 70
10, 176520, Note_on_c, 8, 58, 70
10, 176625, Pitch_bend_c, 8, 11584
10, 176635, Note_off_c, 8, 53, 70
10, 176635, Note_off_c, 8, 51, 70
10, 176635, Note_off_c, 8, 58, 70
10, 176640, Note_on_c, 8, 53, 70
10, 176640, Note_on_c, 8, 51, 70
10, 176640, Note_on_c, 8, 58, 70
10, 176650, Pitch_bend_c, 8, 11666
10, 176750, Pitch_bend_c, 8, 11749
10, 176755, Note_off_c, 8, 53, 70
10, 176755, Note_off_c, 8, 51, 70
10, 176755, Note_off_c, 8, 58, 70
10, 176760, Note_on_c, 8, 51, 70
10, 176760, Note_on_c, 8, 53, 70
10, 176760, Note_on_c, 8, 58, 70
10, 176770, Pitch_bend_c, 8, 11832
10, 176865, Pitch_bend_c, 8, 11915
10, 176875, Note_off_c, 8, 51, 70
10, 176875, Note_off_c, 8, 53, 70
10, 176875, Note_off_c, 8, 58, 70
10, 176880, Note_on_c, 8, 51, 71
10, 176880, Note_on_c, 8, 53, 71
10, 176880, Note_on_c, 8, 58, 71
10, 176895, Pitch_bend_c, 8, 11997
10, 176995, Note_off_c, 8, 51, 71
10, 176995, Note_off_c, 8, 53, 71
10, 176995, Note_off_c, 8, 58, 71
10, 177000, Note_on_c, 8, 51, 71
10, 177000, Note_on_c, 8, 53, 71
10, 177000, Note_on_c, 8, 58, 71
10, 177005, Pitch_bend_c, 8, 12080
10, 177030, Pitch_bend_c, 8, 12163
10, 177115, Note_off_c, 8, 51, 71
10, 177115, Note_off_c, 8, 53, 71
10, 177115, Note_off_c, 8, 58, 71
10, 177120, Note_on_c, 8, 53, 71
10, 177120, Note_on_c, 8, 51, 71
10, 177120, Note_on_c, 8, 58, 71
10, 177235, Note_off_c, 8, 53, 71
10, 177235, Note_off_c, 8, 51, 71
10, 177235, Note_off_c, 8, 58, 71
10, 177240, Note_on_c, 8, 53, 71
10, 177240, Note_on_c, 8, 51, 71
10, 177240, Note_on_c, 8, 58, 71
10, 177255, Pitch_bend_c, 8, 12245
10, 177285, Pitch_bend_c, 8, 12328
10, 177355, Note_off_c, 8, 53, 71
10, 177355, Note_off_c, 8, 51, 71
10, 177355, Note_off_c, 8, 58, 71
10, 177360, Pitch_bend_c, 8, 12411
10, 177360, Note_on_c, 8, 58, 71
10, 177360, Note_on_c, 8, 53, 71
10, 177360, Note_on_c, 8, 51, 71
10, 177475, Note_off_c, 8, 58, 71
10, 177475, Note_off_c, 8, 53, 71
10, 177475, Note_off_c, 8, 51, 71
10, 177480, Note_on_c, 8, 58, 71
10, 177480, Note_on_c, 8, 53, 71
10, 177480, Note_on_c, 8, 51, 71
10, 177495, Pitch_bend_c, 8, 12494
10, 177585, Pitch_bend_c, 8, 12576
10, 177595, Note_off_c, 8, 58, 71
10, 177595, Note_off_c, 8, 53, 71
10, 177595, Note_off_c, 8, 51, 71
10, 177600, Pitch_bend_c, 8, 12659
10, 177600, Note_on_c, 8, 51, 71
10, 177600, Note_on_c, 8, 53, 71
10, 177600, Note_on_c, 8, 58, 71
10, 177710, Pitch_bend_c, 8, 12742
10, 177715, Note_off_c, 8, 51, 71
10, 177715, Note_off_c, 8, 53, 71
10, 177715, Note_off_c, 8, 58, 71
10, 177720, Note_on_c, 8, 51, 71
10, 177720, Note_on_c, 8, 53, 71
10, 177720, Note_on_c, 8, 58, 71
10, 177730, Pitch_bend_c, 8, 12825
10, 177825, Pitch_bend_c, 8, 12907
10, 177835, Note_off_c, 8, 51, 71
10, 177835, Note_off_c, 8, 53, 71
10, 177835, Note_off_c, 8, 58, 71
10, 177840, Note_on_c, 8, 51, 71
10, 177840, Note_on_c, 8, 53, 71
10, 177840, Note_on_c, 8, 58, 71
10, 177875, Pitch_bend_c, 8, 12990
10, 177915, Pitch_bend_c, 8, 13073
10, 177950, Pitch_bend_c, 8, 13156
10, 177955, Note_off_c, 8, 51, 71
10, 177955, Note_off_c, 8, 53, 71
10, 177955, Note_off_c, 8, 58, 71
10, 177960, Note_on_c, 8, 51, 72
10, 177960, Note_on_c, 8, 53, 72
10, 177960, Note_on_c, 8, 58, 72
10, 177980, Pitch_bend_c, 8, 13238
10, 177995, Pitch_bend_c, 8, 13321
10, 178075, Note_off_c, 8, 51, 72
10, 178075, Note_off_c, 8, 53, 72
10, 178075, Note_off_c, 8, 58, 72
10, 178080, Note_on_c, 8, 58, 72
10, 178080, Note_on_c, 8, 53, 72
10, 178080, Note_on_c, 8, 51, 72
10, 178195, Note_off_c, 8, 58, 72
10, 178195, Note_off_c, 8, 53, 72
10, 178195, Note_off_c, 8, 51, 72
10, 178200, Note_on_c, 8, 53, 72
10, 178200, Note_on_c, 8, 51, 72
10, 178200, Note_on_c, 8, 58, 72
10, 178315, Note_off_c, 8, 53, 72
10, 178315, Note_off_c, 8, 51, 72
10, 178315, Note_off_c, 8, 58, 72
10, 178320, Note_on_c, 8, 51, 72
10, 178320, Note_on_c, 8, 53, 72
10, 178320, Note_on_c, 8, 58, 72
10, 178435, Pitch_bend_c, 8, 13404
10, 178435, Note_off_c, 8, 51, 72
10, 178435, Note_off_c, 8, 53, 72
10, 178435, Note_off_c, 8, 58, 72
10, 178440, Note_on_c, 8, 53, 72
10, 178440, Note_on_c, 8, 51, 72
10, 178440, Note_on_c, 8, 58, 72
10, 178475, Pitch_bend_c, 8, 13487
10, 178555, Note_off_c, 8, 53, 72
10, 178555, Note_off_c, 8, 51, 72
10, 178555, Note_off_c, 8, 58, 72
10, 178560, Note_on_c, 8, 58, 72
10, 178560, Note_on_c, 8, 53, 72
10, 178560, Note_on_c, 8, 51, 72
10, 178590, Pitch_bend_c, 8, 13569
10, 178675, Note_off_c, 8, 58, 72
10, 178675, Note_off_c, 8, 53, 72
10, 178675, Note_off_c, 8, 51, 72
10, 178680, Note_on_c, 8, 58, 72
10, 178680, Note_on_c, 8, 51, 72
10, 178680, Note_on_c, 8, 53, 72
10, 178700, Pitch_bend_c, 8, 13652
10, 178715, Pitch_bend_c, 8, 13735
10, 178795, Note_off_c, 8, 58, 72
10, 178795, Note_off_c, 8, 51, 72
10, 178795, Note_off_c, 8, 53, 72
10, 178800, Note_on_c, 8, 53, 72
10, 178800, Note_on_c, 8, 51, 72
10, 178800, Note_on_c, 8, 58, 72
10, 178915, Pitch_bend_c, 8, 13817
10, 178915, Note_off_c, 8, 53, 72
10, 178915, Note_off_c, 8, 51, 72
10, 178915, Note_off_c, 8, 58, 72
10, 178920, Note_on_c, 8, 51, 73
10, 178920, Note_on_c, 8, 53, 73
10, 178920, Note_on_c, 8, 58, 73
10, 178940, Pitch_bend_c, 8, 13900
10, 178945, Pitch_bend_c, 8, 13983
10, 179035, Note_off_c, 8, 51, 73
10, 179035, Note_off_c, 8, 53, 73
10, 179035, Note_off_c, 8, 58, 73
10, 179040, Note_on_c, 8, 51, 73
10, 179040, Note_on_c, 8, 53, 73
10, 179040, Note_on_c, 8, 58, 73
10, 179055, Pitch_bend_c, 8, 14066
10, 179155, Note_off_c, 8, 51, 73
10, 179155, Note_off_c, 8, 53, 73
10, 179155, Note_off_c, 8, 58, 73
10, 179160, Note_on_c, 8, 51, 73
10, 179160, Note_on_c, 8, 53, 73
10, 179160, Note_on_c, 8, 58, 73
10, 179205, Pitch_bend_c, 8, 14148
10, 179275, Note_off_c, 8, 51, 73
10, 179275, Note_off_c, 8, 53, 73
10, 179275, Note_off_c, 8, 58, 73
10, 179280, Note_on_c, 8, 53, 73
10, 179280, Note_on_c, 8, 51, 73
10, 179280, Note_on_c, 8, 58, 73
10, 179290, Pitch_bend_c, 8, 14231
10, 179330, Pitch_bend_c, 8, 14314
10, 179345, Pitch_bend_c, 8, 14397
10, 179395, Note_off_c, 8, 53, 73
10, 179395, Note_off_c, 8, 51, 73
10, 179395, Note_off_c, 8, 58, 73
10, 179400, Note_on_c, 8, 51, 73
10, 179400, Note_on_c, 8, 53, 73
10, 179400, Note_on_c, 8, 58, 73
10, 179515, Note_off_c, 8, 51, 73
10, 179515, Note_off_c, 8, 53, 73
10, 179515, Note_off_c, 8, 58, 73
10, 179520, Note_on_c, 8, 51, 73
10, 179520, Note_on_c, 8, 53, 73
10, 179520, Note_on_c, 8, 58, 73
10, 179570, Pitch_bend_c, 8, 14479
10, 179635, Note_off_c, 8, 51, 73
10, 179635, Note_off_c, 8, 53, 73
10, 179635, Note_off_c, 8, 58, 73
10, 179640, Note_on_c, 8, 53, 73
10, 179640, Note_on_c, 8, 51, 73
10, 179640, Note_on_c, 8, 58, 73
10, 179665, Pitch_bend_c, 8, 14562
10, 179685, Pitch_bend_c, 8, 14645
10, 179755, Note_off_c, 8, 53, 73
10, 179755, Note_off_c, 8, 51, 73
10, 179755, Note_off_c, 8, 58, 73
10, 179760, Note_on_c, 8, 53, 73
10, 179760, Note_on_c, 8, 51, 73
10, 179760, Note_on_c, 8, 58, 73
10, 179820, Pitch_bend_c, 8, 14728
10, 179855, Pitch_bend_c, 8, 14810
10, 179875, Note_off_c, 8, 53, 73
10, 179875, Note_off_c, 8, 51, 73
10, 179875, Note_off_c, 8, 58, 73
10, 179880, Note_on_c, 8, 51, 73
10, 179880, Note_on_c, 8, 53, 73
10, 179880, Note_on_c, 8, 58, 73
10, 179995, Note_off_c, 8, 51, 73
10, 179995, Note_off_c, 8, 53, 73
10, 179995, Note_off_c, 8, 58, 73
10, 180000, Note_on_c, 8, 51, 74
10, 180000, Note_on_c, 8, 53, 74
10, 180000, Note_on_c, 8, 58, 74
10, 180020, Pitch_bend_c, 8, 14893
10, 180060, Pitch_bend_c, 8, 14976
10, 180115, Note_off_c, 8, 51, 74
10, 180115, Note_off_c, 8, 53, 74
10, 180115, Note_off_c, 8, 58, 74
10, 180120, Note_on_c, 8, 53, 74
10, 180120, Note_on_c, 8, 51, 74
10, 180120, Note_on_c, 8, 58, 74
10, 180150, Pitch_bend_c, 8, 15058
10, 180220, Pitch_bend_c, 8, 15141
10, 180235, Note_off_c, 8, 53, 74
10, 180235, Note_off_c, 8, 51, 74
10, 180235, Note_off_c, 8, 58, 74
10, 180240, Note_on_c, 8, 58, 74
10, 180240, Note_on_c, 8, 53, 74
10, 180240, Note_on_c, 8, 51, 74
10, 180405, Pitch_bend_c, 8, 15224
10, 184310, Note_off_c, 8, 58, 74
10, 184310, Note_off_c, 8, 53, 74
10, 184310, Note_off_c, 8, 51, 74
10, 184320, End_track
11, 0, Start_track
11, 0, Key_signature, 0, "major"
11, 1, Control_c, 9, 99, 1
11, 1, Control_c, 9, 98, 8
11, 1, Control_c, 9, 6, 64
11, 2, Control_c, 9, 99, 1
11, 2, Control_c, 9, 98, 9
11, 2, Control_c, 9, 6, 64
11, 3, Control_c, 9, 99, 1
11, 3, Control_c, 9, 98, 10
11, 3, Control_c, 9, 6, 64
11, 4, Control_c, 9, 99, 1
11, 4, Control_c, 9, 98, 32
11, 4, Control_c, 9, 6, 64
11, 5, Control_c, 9, 99, 1
11, 5, Control_c, 9, 98, 33
11, 5, Control_c, 9, 6, 64
11, 6, Control_c, 9, 99, 1
11, 6, Control_c, 9, 98, 99
11, 6, Control_c, 9, 6, 64
11, 7, Control_c, 9, 99, 1
11, 7, Control_c, 9, 98, 100
11, 7, Control_c, 9, 6, 64
11, 8, Control_c, 9, 99, 1
11, 8, Control_c, 9, 98, 102
11, 8, Control_c, 9, 6, 64
11, 9, Control_c, 9, 0, 0
11, 10, Program_c, 9, 0
11, 11, Control_c, 9, 7, 100
11, 12, Control_c, 9, 10, 64
11, 13, Control_c, 9, 91, 60
11, 14, Control_c, 9, 93, 0
11, 15, Control_c, 9, 101, 0
11, 15, Control_c, 9, 100, 0
11, 15, Control_c, 9, 6, 2
11, 15, Title_t, "M #10"
11, 15, Channel_prefix, 9
11, 15, Instrument_name_t, "M #10"
11, 2365, Control_c, 9, 121, 0
11, 2630, Control_c, 9, 32, 0
11, 2640, Control_c, 9, 11, 127
11, 3105, Control_c, 9, 101, 0
11, 3110, Control_c, 9, 100, 0
11, 3115, Control_c, 9, 6, 12
11, 3120, Control_c, 9, 101, 127
11, 3125, Control_c, 9, 100, 127
11, 3840, Note_on_c, 9, 42, 100
11, 3860, Note_off_c, 9, 42, 100
11, 4320, Note_on_c, 9, 42, 50
11, 4340, Note_off_c, 9, 42, 50
11, 4800, Note_on_c, 9, 42, 50
11, 4820, Note_off_c, 9, 42, 50
11, 5280, Note_on_c, 9, 42, 50
11, 5300, Note_off_c, 9, 42, 50
11, 22305, Note_on_c, 9, 40, 60
11, 22320, Note_on_c, 9, 40, 89
11, 22320, Note_off_c, 9, 40, 60
11, 22325, Note_off_c, 9, 40, 89
11, 24080, Note_on_c, 9, 40, 6
11, 24100, Note_off_c, 9, 40, 6
11, 24160, Note_on_c, 9, 40, 22
11, 24180, Note_off_c, 9, 40, 22
11, 24240, Note_on_c, 9, 40, 36
11, 24260, Note_off_c, 9, 40, 36
11, 24320, Note_on_c, 9, 40, 52
11, 24340, Note_off_c, 9, 40, 52
11, 24400, Note_on_c, 9, 40, 67
11, 24420, Note_off_c, 9, 40, 67
11, 24480, Note_on_c, 9, 40, 82
11, 24500, Note_off_c, 9, 40, 82
11, 26160, Note_on_c, 9, 40, 65
11, 26180, Note_off_c, 9, 40, 65
11, 26200, Note_on_c, 9, 40, 71
11, 26220, Note_off_c, 9, 40, 71
11, 26240, Note_on_c, 9, 40, 76
11, 26260, Note_off_c, 9, 40, 76
11, 26400, Note_on_c, 9, 40, 65
11, 26420, Note_off_c, 9, 40, 65
11, 26440, Note_on_c, 9, 40, 71
11, 26460, Note_off_c, 9, 40, 71
11, 26480, Note_on_c, 9, 40, 76
11, 26500, Note_off_c, 9, 40, 76
11, 27960, Note_on_c, 9, 40, 67
11, 27980, Note_off_c, 9, 40, 67
11, 28080, Note_on_c, 9, 40, 72
11, 28100, Note_off_c, 9, 40, 72
11, 28200, Note_on_c, 9, 40, 77
11, 28220, Note_off_c, 9, 40, 77
11, 28320, Note_on_c, 9, 40, 81
11, 28340, Note_off_c, 9, 40, 81
11, 28440, Note_on_c, 9, 40, 86
11, 28460, Note_off_c, 9, 40, 86
11, 28560, Note_on_c, 9, 40, 90
11, 28580, Note_off_c, 9, 40, 90
11, 30000, Note_on_c, 9, 40, 86
11, 30020, Note_off_c, 9, 40, 86
11, 31440, Note_on_c, 9, 40, 62
11, 31460, Note_off_c, 9, 40, 62
11, 31520, Note_on_c, 9, 40, 65
11, 31540, Note_off_c, 9, 40, 65
11, 31600, Note_on_c, 9, 40, 68
11, 31620, Note_off_c, 9, 40, 68
11, 31680, Note_on_c, 9, 40, 71
11, 31700, Note_off_c, 9, 40, 71
11, 31920, Note_on_c, 9, 40, 77
11, 31940, Note_off_c, 9, 40, 77
11, 32000, Note_on_c, 9, 40, 80
11, 32020, Note_off_c, 9, 40, 80
11, 32080, Note_on_c, 9, 40, 83
11, 32100, Note_off_c, 9, 40, 83
11, 32160, Note_on_c, 9, 40, 86
11, 32180, Note_off_c, 9, 40, 86
11, 33360, Note_on_c, 9, 40, 49
11, 33380, Note_off_c, 9, 40, 49
11, 33480, Note_on_c, 9, 40, 53
11, 33500, Note_off_c, 9, 40, 53
11, 33600, Note_on_c, 9, 40, 58
11, 33620, Note_off_c, 9, 40, 58
11, 33720, Note_on_c, 9, 40, 62
11, 33740, Note_off_c, 9, 40, 62
11, 33840, Note_on_c, 9, 40, 67
11, 33860, Note_off_c, 9, 40, 67
11, 33960, Note_on_c, 9, 40, 72
11, 33980, Note_off_c, 9, 40, 72
11, 34080, Note_on_c, 9, 40, 76
11, 34100, Note_off_c, 9, 40, 76
11, 34200, Note_on_c, 9, 40, 81
11, 34220, Note_off_c, 9, 40, 81
11, 34320, Note_on_c, 9, 40, 86
11, 34340, Note_off_c, 9, 40, 86
11, 34560, Note_on_c, 9, 40, 66
11, 34580, Note_off_c, 9, 40, 66
11, 34800, Note_on_c, 9, 40, 42
11, 34820, Note_off_c, 9, 40, 42
11, 34920, Note_on_c, 9, 40, 31
11, 34940, Note_off_c, 9, 40, 31
11, 35040, Note_on_c, 9, 40, 47
11, 35060, Note_off_c, 9, 40, 47
11, 35280, Note_on_c, 9, 40, 19
11, 35300, Note_off_c, 9, 40, 19
11, 35360, Note_on_c, 9, 40, 26
11, 35380, Note_off_c, 9, 40, 26
11, 35440, Note_on_c, 9, 40, 32
11, 35460, Note_off_c, 9, 40, 32
11, 35520, Note_on_c, 9, 40, 38
11, 35540, Note_off_c, 9, 40, 38
11, 35600, Note_on_c, 9, 40, 44
11, 35620, Note_off_c, 9, 40, 44
11, 35680, Note_on_c, 9, 40, 50
11, 35700, Note_off_c, 9, 40, 50
11, 35760, Note_on_c, 9, 40, 57
11, 35780, Note_off_c, 9, 40, 57
11, 35880, Note_on_c, 9, 40, 31
11, 35900, Note_off_c, 9, 40, 31
11, 36000, Note_on_c, 9, 40, 41
11, 36020, Note_off_c, 9, 40, 41
11, 36080, Note_on_c, 9, 40, 47
11, 36100, Note_off_c, 9, 40, 47
11, 36160, Note_on_c, 9, 40, 54
11, 36180, Note_off_c, 9, 40, 54
11, 36240, Note_on_c, 9, 40, 60
11, 36260, Note_off_c, 9, 40, 60
11, 36320, Note_on_c, 9, 40, 67
11, 36340, Note_off_c, 9, 40, 67
11, 36400, Note_on_c, 9, 40, 73
11, 36420, Note_off_c, 9, 40, 73
11, 36480, Note_on_c, 9, 40, 60
11, 36500, Note_off_c, 9, 40, 60
11, 36720, Note_on_c, 9, 40, 60
11, 36740, Note_off_c, 9, 40, 60
11, 36840, Note_on_c, 9, 40, 28
11, 36860, Note_off_c, 9, 40, 28
11, 36960, Note_on_c, 9, 40, 37
11, 36980, Note_off_c, 9, 40, 37
11, 37200, Note_on_c, 9, 40, 31
11, 37220, Note_off_c, 9, 40, 31
11, 37320, Note_on_c, 9, 40, 36
11, 37340, Note_off_c, 9, 40, 36
11, 37440, Note_on_c, 9, 40, 36
11, 37460, Note_off_c, 9, 40, 36
11, 37680, Note_on_c, 9, 40, 42
11, 37700, Note_off_c, 9, 40, 42
11, 37720, Note_on_c, 9, 40, 45
11, 37740, Note_off_c, 9, 40, 45
11, 37760, Note_on_c, 9, 40, 49
11, 37780, Note_off_c, 9, 40, 49
11, 37800, Note_on_c, 9, 40, 53
11, 37820, Note_off_c, 9, 40, 53
11, 37840, Note_on_c, 9, 40, 57
11, 37860, Note_off_c, 9, 40, 57
11, 37880, Note_on_c, 9, 40, 61
11, 37900, Note_off_c, 9, 40, 61
11, 38160, Note_on_c, 9, 40, 55
11, 38180, Note_off_c, 9, 40, 55
11, 38200, Note_on_c, 9, 40, 60
11, 38220, Note_off_c, 9, 40, 60
11, 38240, Note_on_c, 9, 40, 64
11, 38260, Note_off_c, 9, 40, 64
11, 38280, Note_on_c, 9, 40, 68
11, 38300, Note_off_c, 9, 40, 68
11, 38320, Note_on_c, 9, 40, 72
11, 38340, Note_off_c, 9, 40, 72
11, 38360, Note_on_c, 9, 40, 76
11, 38400, Note_off_c, 9, 40, 76
11, 39480, Note_on_c, 9, 40, 67
11, 39500, Note_off_c, 9, 40, 67
11, 39600, Note_on_c, 9, 40, 72
11, 39620, Note_off_c, 9, 40, 72
11, 39720, Note_on_c, 9, 40, 77
11, 39740, Note_off_c, 9, 40, 77
11, 39840, Note_on_c, 9, 40, 81
11, 39860, Note_off_c, 9, 40, 81
11, 39960, Note_on_c, 9, 40, 86
11, 39980, Note_off_c, 9, 40, 86
11, 40080, Note_on_c, 9, 40, 90
11, 40100, Note_off_c, 9, 40, 90
11, 41520, Note_on_c, 9, 40, 86
11, 41540, Note_off_c, 9, 40, 86
11, 42960, Note_on_c, 9, 40, 62
11, 42980, Note_off_c, 9, 40, 62
11, 43040, Note_on_c, 9, 40, 65
11, 43060, Note_off_c, 9, 40, 65
11, 43120, Note_on_c, 9, 40, 68
11, 43140, Note_off_c, 9, 40, 68
11, 43200, Note_on_c, 9, 40, 71
11, 43220, Note_off_c, 9, 40, 71
11, 43440, Note_on_c, 9, 40, 77
11, 43460, Note_off_c, 9, 40, 77
11, 43520, Note_on_c, 9, 40, 80
11, 43540, Note_off_c, 9, 40, 80
11, 43600, Note_on_c, 9, 40, 83
11, 43620, Note_off_c, 9, 40, 83
11, 43680, Note_on_c, 9, 40, 86
11, 43700, Note_off_c, 9, 40, 86
11, 44880, Note_on_c, 9, 40, 49
11, 44900, Note_off_c, 9, 40, 49
11, 45000, Note_on_c, 9, 40, 53
11, 45020, Note_off_c, 9, 40, 53
11, 45120, Note_on_c, 9, 40, 58
11, 45140, Note_off_c, 9, 40, 58
11, 45240, Note_on_c, 9, 40, 62
11, 45260, Note_off_c, 9, 40, 62
11, 45360, Note_on_c, 9, 40, 67
11, 45380, Note_off_c, 9, 40, 67
11, 45480, Note_on_c, 9, 40, 72
11, 45500, Note_off_c, 9, 40, 72
11, 45600, Note_on_c, 9, 40, 76
11, 45620, Note_off_c, 9, 40, 76
11, 45720, Note_on_c, 9, 40, 81
11, 45740, Note_off_c, 9, 40, 81
11, 45840, Note_on_c, 9, 40, 86
11, 45860, Note_off_c, 9, 40, 86
11, 46080, Note_on_c, 9, 40, 66
11, 46100, Note_off_c, 9, 40, 66
11, 46320, Note_on_c, 9, 40, 42
11, 46340, Note_off_c, 9, 40, 42
11, 46440, Note_on_c, 9, 40, 31
11, 46460, Note_off_c, 9, 40, 31
11, 46560, Note_on_c, 9, 40, 47
11, 46580, Note_off_c, 9, 40, 47
11, 46800, Note_on_c, 9, 40, 19
11, 46820, Note_off_c, 9, 40, 19
11, 46880, Note_on_c, 9, 40, 26
11, 46900, Note_off_c, 9, 40, 26
11, 46960, Note_on_c, 9, 40, 32
11, 46980, Note_off_c, 9, 40, 32
11, 47040, Note_on_c, 9, 40, 38
11, 47060, Note_off_c, 9, 40, 38
11, 47120, Note_on_c, 9, 40, 44
11, 47140, Note_off_c, 9, 40, 44
11, 47200, Note_on_c, 9, 40, 50
11, 47220, Note_off_c, 9, 40, 50
11, 47280, Note_on_c, 9, 40, 57
11, 47300, Note_off_c, 9, 40, 57
11, 47400, Note_on_c, 9, 40, 31
11, 47420, Note_off_c, 9, 40, 31
11, 47520, Note_on_c, 9, 40, 41
11, 47540, Note_off_c, 9, 40, 41
11, 47600, Note_on_c, 9, 40, 47
11, 47620, Note_off_c, 9, 40, 47
11, 47680, Note_on_c, 9, 40, 54
11, 47700, Note_off_c, 9, 40, 54
11, 47760, Note_on_c, 9, 40, 60
11, 47780, Note_off_c, 9, 40, 60
11, 47840, Note_on_c, 9, 40, 67
11, 47860, Note_off_c, 9, 40, 67
11, 47920, Note_on_c, 9, 40, 73
11, 47940, Note_off_c, 9, 40, 73
11, 48000, Note_on_c, 9, 42, 87
11, 48000, Note_on_c, 9, 40, 90
11, 48020, Note_off_c, 9, 40, 90
11, 48025, Note_off_c, 9, 42, 87
11, 48240, Note_on_c, 9, 44, 85
11, 48265, Note_off_c, 9, 44, 85
11, 48480, Note_on_c, 9, 42, 64
11, 48505, Note_off_c, 9, 42, 64
11, 48720, Note_on_c, 9, 44, 76
11, 48745, Note_off_c, 9, 44, 76
11, 48960, Note_on_c, 9, 42, 70
11, 48985, Note_off_c, 9, 42, 70
11, 49200, Note_on_c, 9, 44, 80
11, 49225, Note_off_c, 9, 44, 80
11, 49440, Note_on_c, 9, 42, 68
11, 49465, Note_off_c, 9, 42, 68
11, 49680, Note_on_c, 9, 44, 68
11, 49705, Note_off_c, 9, 44, 68
11, 49920, Note_on_c, 9, 42, 70
11, 49945, Note_off_c, 9, 42, 70
11, 50160, Note_on_c, 9, 44, 85
11, 50185, Note_off_c, 9, 44, 85
11, 50400, Note_on_c, 9, 42, 72
11, 50425, Note_off_c, 9, 42, 72
11, 50640, Note_on_c, 9, 44, 80
11, 50665, Note_off_c, 9, 44, 80
11, 50880, Note_on_c, 9, 42, 76
11, 50905, Note_off_c, 9, 42, 76
11, 51120, Note_on_c, 9, 44, 76
11, 51145, Note_off_c, 9, 44, 76
11, 51360, Note_on_c, 9, 42, 70
11, 51385, Note_off_c, 9, 42, 70
11, 51600, Note_on_c, 9, 44, 64
11, 51625, Note_off_c, 9, 44, 64
11, 51840, Note_on_c, 9, 42, 72
11, 51865, Note_off_c, 9, 42, 72
11, 52080, Note_on_c, 9, 44, 76
11, 52105, Note_off_c, 9, 44, 76
11, 52320, Note_on_c, 9, 42, 70
11, 52345, Note_off_c, 9, 42, 70
11, 52560, Note_on_c, 9, 44, 66
11, 52585, Note_off_c, 9, 44, 66
11, 52800, Note_on_c, 9, 42, 68
11, 52825, Note_off_c, 9, 42, 68
11, 53040, Note_on_c, 9, 44, 76
11, 53065, Note_off_c, 9, 44, 76
11, 53280, Note_on_c, 9, 42, 74
11, 53305, Note_off_c, 9, 42, 74
11, 53520, Note_on_c, 9, 44, 74
11, 53545, Note_off_c, 9, 44, 74
11, 53760, Note_on_c, 9, 42, 64
11, 53785, Note_off_c, 9, 42, 64
11, 54000, Note_on_c, 9, 44, 76
11, 54000, Note_on_c, 9, 40, 125
11, 54020, Note_off_c, 9, 40, 125
11, 54025, Note_off_c, 9, 44, 76
11, 54240, Note_on_c, 9, 42, 64
11, 54265, Note_off_c, 9, 42, 64
11, 54480, Note_on_c, 9, 44, 74
11, 54505, Note_off_c, 9, 44, 74
11, 54600, Note_on_c, 9, 47, 125
11, 54620, Note_off_c, 9, 47, 125
11, 54720, Note_on_c, 9, 42, 66
11, 54720, Note_on_c, 9, 45, 122
11, 54740, Note_off_c, 9, 45, 122
11, 54745, Note_off_c, 9, 42, 66
11, 54960, Note_on_c, 9, 44, 72
11, 54985, Note_off_c, 9, 44, 72
11, 55200, Note_on_c, 9, 42, 68
11, 55225, Note_off_c, 9, 42, 68
11, 55320, Note_on_c, 9, 48, 83
11, 55340, Note_off_c, 9, 48, 83
11, 55375, Note_on_c, 9, 47, 91
11, 55395, Note_off_c, 9, 47, 91
11, 55430, Note_on_c, 9, 45, 99
11, 55440, Note_on_c, 9, 44, 85
11, 55450, Note_off_c, 9, 45, 99
11, 55465, Note_off_c, 9, 44, 85
11, 55500, Note_on_c, 9, 43, 108
11, 55520, Note_off_c, 9, 43, 108
11, 55560, Note_on_c, 9, 41, 116
11, 55580, Note_off_c, 9, 41, 116
11, 55680, Note_on_c, 9, 36, 127
11, 55700, Note_off_c, 9, 36, 127
11, 55920, Note_on_c, 9, 36, 127
11, 55940, Note_off_c, 9, 36, 127
11, 56160, Note_on_c, 9, 49, 82
11, 56160, Note_on_c, 9, 40, 127
11, 56180, Note_off_c, 9, 40, 127
11, 56185, Note_off_c, 9, 49, 82
11, 56640, Note_on_c, 9, 36, 127
11, 56660, Note_off_c, 9, 36, 127
11, 56880, Note_on_c, 9, 36, 127
11, 56900, Note_off_c, 9, 36, 127
11, 57120, Note_on_c, 9, 49, 82
11, 57120, Note_on_c, 9, 40, 127
11, 57140, Note_off_c, 9, 40, 127
11, 57145, Note_off_c, 9, 49, 82
11, 57600, Note_on_c, 9, 36, 127
11, 57620, Note_off_c, 9, 36, 127
11, 57840, Note_on_c, 9, 36, 127
11, 57860, Note_off_c, 9, 36, 127
11, 58080, Note_on_c, 9, 49, 82
11, 58080, Note_on_c, 9, 40, 127
11, 58100, Note_off_c, 9, 40, 127
11, 58105, Note_off_c, 9, 49, 82
11, 58560, Note_on_c, 9, 36, 127
11, 58580, Note_off_c, 9, 36, 127
11, 58800, Note_on_c, 9, 36, 127
11, 58820, Note_off_c, 9, 36, 127
11, 59040, Note_on_c, 9, 49, 82
11, 59040, Note_on_c, 9, 40, 127
11, 59060, Note_off_c, 9, 40, 127
11, 59065, Note_off_c, 9, 49, 82
11, 59520, Note_on_c, 9, 36, 127
11, 59540, Note_off_c, 9, 36, 127
11, 59760, Note_on_c, 9, 36, 127
11, 59780, Note_off_c, 9, 36, 127
11, 60000, Note_on_c, 9, 49, 82
11, 60000, Note_on_c, 9, 40, 127
11, 60020, Note_off_c, 9, 40, 127
11, 60025, Note_off_c, 9, 49, 82
11, 60480, Note_on_c, 9, 36, 127
11, 60500, Note_off_c, 9, 36, 127
11, 60720, Note_on_c, 9, 36, 127
11, 60740, Note_off_c, 9, 36, 127
11, 60960, Note_on_c, 9, 49, 82
11, 60960, Note_on_c, 9, 40, 127
11, 60980, Note_off_c, 9, 40, 127
11, 60985, Note_off_c, 9, 49, 82
11, 61440, Note_on_c, 9, 36, 127
11, 61460, Note_off_c, 9, 36, 127
11, 61680, Note_on_c, 9, 36, 127
11, 61700, Note_off_c, 9, 36, 127
11, 61920, Note_on_c, 9, 49, 82
11, 61920, Note_on_c, 9, 40, 127
11, 61940, Note_off_c, 9, 40, 127
11, 61945, Note_off_c, 9, 49, 82
11, 62400, Note_on_c, 9, 36, 127
11, 62420, Note_off_c, 9, 36, 127
11, 62640, Note_on_c, 9, 36, 127
11, 62660, Note_off_c, 9, 36, 127
11, 62880, Note_on_c, 9, 49, 82
11, 62880, Note_on_c, 9, 40, 127
11, 62900, Note_off_c, 9, 40, 127
11, 62905, Note_off_c, 9, 49, 82
11, 63360, Note_on_c, 9, 36, 127
11, 63380, Note_off_c, 9, 36, 127
11, 63600, Note_on_c, 9, 36, 127
11, 63620, Note_off_c, 9, 36, 127
11, 63840, Note_on_c, 9, 49, 82
11, 63840, Note_on_c, 9, 40, 127
11, 63860, Note_off_c, 9, 40, 127
11, 63865, Note_off_c, 9, 49, 82
11, 64320, Note_on_c, 9, 36, 127
11, 64340, Note_off_c, 9, 36, 127
11, 64560, Note_on_c, 9, 36, 127
11, 64580, Note_off_c, 9, 36, 127
11, 64800, Note_on_c, 9, 49, 82
11, 64800, Note_on_c, 9, 40, 127
11, 64820, Note_off_c, 9, 40, 127
11, 64825, Note_off_c, 9, 49, 82
11, 65280, Note_on_c, 9, 36, 127
11, 65300, Note_off_c, 9, 36, 127
11, 65520, Note_on_c, 9, 36, 127
11, 65540, Note_off_c, 9, 36, 127
11, 65760, Note_on_c, 9, 49, 82
11, 65760, Note_on_c, 9, 40, 127
11, 65780, Note_off_c, 9, 40, 127
11, 65785, Note_off_c, 9, 49, 82
11, 66240, Note_on_c, 9, 36, 127
11, 66260, Note_off_c, 9, 36, 127
11, 66480, Note_on_c, 9, 36, 127
11, 66500, Note_off_c, 9, 36, 127
11, 66720, Note_on_c, 9, 49, 82
11, 66720, Note_on_c, 9, 40, 127
11, 66740, Note_off_c, 9, 40, 127
11, 66745, Note_off_c, 9, 49, 82
11, 67200, Note_on_c, 9, 36, 127
11, 67220, Note_off_c, 9, 36, 127
11, 67440, Note_on_c, 9, 36, 127
11, 67460, Note_off_c, 9, 36, 127
11, 67680, Note_on_c, 9, 49, 82
11, 67680, Note_on_c, 9, 40, 127
11, 67700, Note_off_c, 9, 40, 127
11, 67705, Note_off_c, 9, 49, 82
11, 68160, Note_on_c, 9, 36, 127
11, 68180, Note_off_c, 9, 36, 127
11, 68400, Note_on_c, 9, 36, 127
11, 68420, Note_off_c, 9, 36, 127
11, 68640, Note_on_c, 9, 49, 82
11, 68640, Note_on_c, 9, 40, 127
11, 68660, Note_off_c, 9, 40, 127
11, 68665, Note_off_c, 9, 49, 82
11, 69120, Note_on_c, 9, 36, 127
11, 69140, Note_off_c, 9, 36, 127
11, 69360, Note_on_c, 9, 36, 127
11, 69380, Note_off_c, 9, 36, 127
11, 69600, Note_on_c, 9, 49, 82
11, 69600, Note_on_c, 9, 40, 127
11, 69620, Note_off_c, 9, 40, 127
11, 69625, Note_off_c, 9, 49, 82
11, 70080, Note_on_c, 9, 36, 127
11, 70100, Note_off_c, 9, 36, 127
11, 70320, Note_on_c, 9, 36, 127
11, 70340, Note_off_c, 9, 36, 127
11, 70560, Note_on_c, 9, 49, 82
11, 70560, Note_on_c, 9, 40, 127
11, 70580, Note_off_c, 9, 40, 127
11, 70585, Note_off_c, 9, 49, 82
11, 71040, Note_on_c, 9, 36, 127
11, 71060, Note_off_c, 9, 36, 127
11, 71280, Note_on_c, 9, 36, 127
11, 71300, Note_off_c, 9, 36, 127
11, 71520, Note_on_c, 9, 49, 82
11, 71520, Note_on_c, 9, 40, 127
11, 71540, Note_off_c, 9, 40, 127
11, 71545, Note_off_c, 9, 49, 82
11, 72000, Note_on_c, 9, 36, 127
11, 72020, Note_off_c, 9, 36, 127
11, 72240, Note_on_c, 9, 36, 127
11, 72260, Note_off_c, 9, 36, 127
11, 72480, Note_on_c, 9, 49, 82
11, 72480, Note_on_c, 9, 40, 127
11, 72500, Note_off_c, 9, 40, 127
11, 72505, Note_off_c, 9, 49, 82
11, 72960, Note_on_c, 9, 36, 127
11, 72980, Note_off_c, 9, 36, 127
11, 73200, Note_on_c, 9, 36, 127
11, 73220, Note_off_c, 9, 36, 127
11, 73440, Note_on_c, 9, 49, 82
11, 73440, Note_on_c, 9, 40, 127
11, 73460, Note_off_c, 9, 40, 127
11, 73465, Note_off_c, 9, 49, 82
11, 73920, Note_on_c, 9, 36, 127
11, 73940, Note_off_c, 9, 36, 127
11, 74160, Note_on_c, 9, 36, 127
11, 74180, Note_off_c, 9, 36, 127
11, 74400, Note_on_c, 9, 49, 82
11, 74400, Note_on_c, 9, 40, 127
11, 74420, Note_off_c, 9, 40, 127
11, 74425, Note_off_c, 9, 49, 82
11, 74880, Note_on_c, 9, 36, 127
11, 74900, Note_off_c, 9, 36, 127
11, 75120, Note_on_c, 9, 36, 127
11, 75140, Note_off_c, 9, 36, 127
11, 75360, Note_on_c, 9, 49, 82
11, 75360, Note_on_c, 9, 40, 127
11, 75380, Note_off_c, 9, 40, 127
11, 75385, Note_off_c, 9, 49, 82
11, 75840, Note_on_c, 9, 36, 127
11, 75860, Note_off_c, 9, 36, 127
11, 76080, Note_on_c, 9, 36, 127
11, 76100, Note_off_c, 9, 36, 127
11, 76320, Note_on_c, 9, 49, 82
11, 76320, Note_on_c, 9, 40, 127
11, 76340, Note_off_c, 9, 40, 127
11, 76345, Note_off_c, 9, 49, 82
11, 76800, Note_on_c, 9, 36, 127
11, 76820, Note_off_c, 9, 36, 127
11, 77040, Note_on_c, 9, 36, 127
11, 77060, Note_off_c, 9, 36, 127
11, 77280, Note_on_c, 9, 49, 82
11, 77280, Note_on_c, 9, 40, 127
11, 77300, Note_off_c, 9, 40, 127
11, 77305, Note_off_c, 9, 49, 82
11, 77760, Note_on_c, 9, 36, 127
11, 77780, Note_off_c, 9, 36, 127
11, 78000, Note_on_c, 9, 36, 127
11, 78020, Note_off_c, 9, 36, 127
11, 78240, Note_on_c, 9, 49, 82
11, 78240, Note_on_c, 9, 40, 127
11, 78260, Note_off_c, 9, 40, 127
11, 78265, Note_off_c, 9, 49, 82
11, 78720, Note_on_c, 9, 36, 127
11, 78740, Note_off_c, 9, 36, 127
11, 78960, Note_on_c, 9, 36, 127
11, 78980, Note_off_c, 9, 36, 127
11, 79200, Note_on_c, 9, 49, 82
11, 79200, Note_on_c, 9, 40, 127
11, 79220, Note_off_c, 9, 40, 127
11, 79225, Note_off_c, 9, 49, 82
11, 79680, Note_on_c, 9, 36, 127
11, 79700, Note_off_c, 9, 36, 127
11, 79920, Note_on_c, 9, 36, 127
11, 79940, Note_off_c, 9, 36, 127
11, 80160, Note_on_c, 9, 49, 82
11, 80160, Note_on_c, 9, 40, 127
11, 80180, Note_off_c, 9, 40, 127
11, 80185, Note_off_c, 9, 49, 82
11, 80640, Note_on_c, 9, 36, 127
11, 80660, Note_off_c, 9, 36, 127
11, 80880, Note_on_c, 9, 36, 127
11, 80900, Note_off_c, 9, 36, 127
11, 81120, Note_on_c, 9, 49, 82
11, 81120, Note_on_c, 9, 40, 127
11, 81140, Note_off_c, 9, 40, 127
11, 81145, Note_off_c, 9, 49, 82
11, 81600, Note_on_c, 9, 36, 127
11, 81620, Note_off_c, 9, 36, 127
11, 81840, Note_on_c, 9, 36, 127
11, 81860, Note_off_c, 9, 36, 127
11, 82080, Note_on_c, 9, 49, 82
11, 82080, Note_on_c, 9, 40, 127
11, 82100, Note_off_c, 9, 40, 127
11, 82105, Note_off_c, 9, 49, 82
11, 82560, Note_on_c, 9, 51, 102
11, 82585, Note_off_c, 9, 51, 102
11, 82680, Note_on_c, 9, 51, 68
11, 82705, Note_off_c, 9, 51, 68
11, 82800, Note_on_c, 9, 51, 76
11, 82825, Note_off_c, 9, 51, 76
11, 82920, Note_on_c, 9, 51, 105
11, 82945, Note_off_c, 9, 51, 105
11, 83040, Note_on_c, 9, 51, 68
11, 83065, Note_off_c, 9, 51, 68
11, 83160, Note_on_c, 9, 51, 70
11, 83185, Note_off_c, 9, 51, 70
11, 83280, Note_on_c, 9, 51, 95
11, 83305, Note_off_c, 9, 51, 95
11, 83400, Note_on_c, 9, 51, 68
11, 83425, Note_off_c, 9, 51, 68
11, 83520, Note_on_c, 9, 51, 62
11, 83545, Note_off_c, 9, 51, 62
11, 83640, Note_on_c, 9, 51, 100
11, 83640, Note_on_c, 9, 40, 105
11, 83660, Note_off_c, 9, 40, 105
11, 83665, Note_off_c, 9, 51, 100
11, 83760, Note_on_c, 9, 51, 66
11, 83785, Note_off_c, 9, 51, 66
11, 83880, Note_on_c, 9, 51, 72
11, 83905, Note_off_c, 9, 51, 72
11, 84000, Note_on_c, 9, 51, 102
11, 84000, Note_on_c, 9, 40, 122
11, 84020, Note_off_c, 9, 40, 122
11, 84025, Note_off_c, 9, 51, 102
11, 84120, Note_on_c, 9, 51, 80
11, 84145, Note_off_c, 9, 51, 80
11, 84240, Note_on_c, 9, 51, 80
11, 84265, Note_off_c, 9, 51, 80
11, 84360, Note_on_c, 9, 51, 105
11, 84385, Note_off_c, 9, 51, 105
11, 84430, Note_on_c, 9, 51, 95
11, 84480, Note_on_c, 9, 51, 100
11, 84480, Note_off_c, 9, 51, 95
11, 84505, Note_off_c, 9, 51, 100
11, 84600, Note_on_c, 9, 51, 78
11, 84625, Note_off_c, 9, 51, 78
11, 84720, Note_on_c, 9, 51, 72
11, 84745, Note_off_c, 9, 51, 72
11, 84840, Note_on_c, 9, 51, 100
11, 84865, Note_off_c, 9, 51, 100
11, 84960, Note_on_c, 9, 51, 85
11, 84985, Note_off_c, 9, 51, 85
11, 85080, Note_on_c, 9, 51, 64
11, 85105, Note_off_c, 9, 51, 64
11, 85200, Note_on_c, 9, 51, 102
11, 85225, Note_off_c, 9, 51, 102
11, 85320, Note_on_c, 9, 51, 72
11, 85345, Note_off_c, 9, 51, 72
11, 85440, Note_on_c, 9, 51, 87
11, 85465, Note_off_c, 9, 51, 87
11, 85560, Note_on_c, 9, 51, 95
11, 85560, Note_on_c, 9, 36, 87
11, 85580, Note_off_c, 9, 36, 87
11, 85585, Note_off_c, 9, 51, 95
11, 85680, Note_on_c, 9, 51, 80
11, 85680, Note_on_c, 9, 40, 102
11, 85700, Note_off_c, 9, 40, 102
11, 85705, Note_off_c, 9, 51, 80
11, 85800, Note_on_c, 9, 51, 82
11, 85825, Note_off_c, 9, 51, 82
11, 85920, Note_on_c, 9, 51, 87
11, 85945, Note_off_c, 9, 51, 87
11, 86040, Note_on_c, 9, 51, 80
11, 86040, Note_on_c, 9, 40, 105
11, 86060, Note_off_c, 9, 40, 105
11, 86065, Note_off_c, 9, 51, 80
11, 86160, Note_on_c, 9, 51, 91
11, 86185, Note_off_c, 9, 51, 91
11, 86280, Note_on_c, 9, 51, 87
11, 86305, Note_off_c, 9, 51, 87
11, 86400, Note_on_c, 9, 49, 85
11, 86425, Note_off_c, 9, 49, 85
11, 86520, Note_on_c, 9, 51, 64
11, 86545, Note_off_c, 9, 51, 64
11, 86640, Note_on_c, 9, 51, 87
11, 86665, Note_off_c, 9, 51, 87
11, 86760, Note_on_c, 9, 51, 91
11, 86785, Note_off_c, 9, 51, 91
11, 86880, Note_on_c, 9, 51, 100
11, 86905, Note_off_c, 9, 51, 100
11, 87000, Note_on_c, 9, 51, 76
11, 87025, Note_off_c, 9, 51, 76
11, 87120, Note_on_c, 9, 51, 85
11, 87145, Note_off_c, 9, 51, 85
11, 87240, Note_on_c, 9, 51, 100
11, 87265, Note_off_c, 9, 51, 100
11, 87360, Note_on_c, 9, 51, 64
11, 87385, Note_off_c, 9, 51, 64
11, 87480, Note_on_c, 9, 51, 82
11, 87480, Note_on_c, 9, 40, 107
11, 87500, Note_off_c, 9, 40, 107
11, 87505, Note_off_c, 9, 51, 82
11, 87600, Note_on_c, 9, 51, 87
11, 87625, Note_off_c, 9, 51, 87
11, 87720, Note_on_c, 9, 51, 78
11, 87745, Note_off_c, 9, 51, 78
11, 87840, Note_on_c, 9, 51, 95
11, 87840, Note_on_c, 9, 40, 116
11, 87860, Note_off_c, 9, 40, 116
11, 87865, Note_off_c, 9, 51, 95
11, 87960, Note_on_c, 9, 51, 72
11, 87985, Note_off_c, 9, 51, 72
11, 88080, Note_on_c, 9, 51, 89
11, 88105, Note_off_c, 9, 51, 89
11, 88200, Note_on_c, 9, 51, 100
11, 88225, Note_off_c, 9, 51, 100
11, 88270, Note_on_c, 9, 51, 100
11, 88320, Note_on_c, 9, 51, 87
11, 88320, Note_off_c, 9, 51, 100
11, 88345, Note_off_c, 9, 51, 87
11, 88440, Note_on_c, 9, 51, 78
11, 88465, Note_off_c, 9, 51, 78
11, 88560, Note_on_c, 9, 51, 78
11, 88585, Note_off_c, 9, 51, 78
11, 88680, Note_on_c, 9, 51, 95
11, 88705, Note_off_c, 9, 51, 95
11, 88800, Note_on_c, 9, 51, 100
11, 88825, Note_off_c, 9, 51, 100
11, 88920, Note_on_c, 9, 51, 66
11, 88945, Note_off_c, 9, 51, 66
11, 89040, Note_on_c, 9, 51, 78
11, 89065, Note_off_c, 9, 51, 78
11, 89160, Note_on_c, 9, 51, 102
11, 89185, Note_off_c, 9, 51, 102
11, 89280, Note_on_c, 9, 51, 66
11, 89305, Note_off_c, 9, 51, 66
11, 89400, Note_on_c, 9, 51, 82
11, 89400, Note_on_c, 9, 40, 100
11, 89420, Note_off_c, 9, 40, 100
11, 89425, Note_off_c, 9, 51, 82
11, 89520, Note_on_c, 9, 51, 105
11, 89545, Note_off_c, 9, 51, 105
11, 89640, Note_on_c, 9, 51, 76
11, 89665, Note_off_c, 9, 51, 76
11, 89760, Note_on_c, 9, 51, 102
11, 89760, Note_on_c, 9, 40, 105
11, 89780, Note_off_c, 9, 40, 105
11, 89785, Note_off_c, 9, 51, 102
11, 89880, Note_on_c, 9, 51, 72
11, 89905, Note_off_c, 9, 51, 72
11, 89950, Note_on_c, 9, 51, 75
11, 89975, Note_off_c, 9, 51, 75
11, 90000, Note_on_c, 9, 51, 98
11, 90000, Note_on_c, 9, 40, 105
11, 90020, Note_off_c, 9, 40, 105
11, 90025, Note_off_c, 9, 51, 98
11, 90120, Note_on_c, 9, 51, 87
11, 90145, Note_off_c, 9, 51, 87
11, 90240, Note_on_c, 9, 51, 105
11, 90265, Note_off_c, 9, 51, 105
11, 90360, Note_on_c, 9, 51, 87
11, 90385, Note_off_c, 9, 51, 87
11, 90480, Note_on_c, 9, 51, 76
11, 90505, Note_off_c, 9, 51, 76
11, 90600, Note_on_c, 9, 51, 110
11, 90625, Note_off_c, 9, 51, 110
11, 90720, Note_on_c, 9, 51, 64
11, 90745, Note_off_c, 9, 51, 64
11, 90840, Note_on_c, 9, 51, 80
11, 90865, Note_off_c, 9, 51, 80
11, 90960, Note_on_c, 9, 51, 107
11, 90985, Note_off_c, 9, 51, 107
11, 91080, Note_on_c, 9, 51, 80
11, 91105, Note_off_c, 9, 51, 80
11, 91200, Note_on_c, 9, 51, 68
11, 91225, Note_off_c, 9, 51, 68
11, 91320, Note_on_c, 9, 51, 107
11, 91320, Note_on_c, 9, 40, 98
11, 91340, Note_off_c, 9, 40, 98
11, 91345, Note_off_c, 9, 51, 107
11, 91385, Note_on_c, 9, 51, 102
11, 91410, Note_off_c, 9, 51, 102
11, 91440, Note_on_c, 9, 51, 98
11, 91465, Note_off_c, 9, 51, 98
11, 91560, Note_on_c, 9, 51, 82
11, 91585, Note_off_c, 9, 51, 82
11, 91680, Note_on_c, 9, 51, 102
11, 91680, Note_on_c, 9, 40, 105
11, 91700, Note_off_c, 9, 40, 105
11, 91705, Note_off_c, 9, 51, 102
11, 91800, Note_on_c, 9, 51, 102
11, 91825, Note_off_c, 9, 51, 102
11, 91920, Note_on_c, 9, 51, 100
11, 91945, Note_off_c, 9, 51, 100
11, 92040, Note_on_c, 9, 51, 98
11, 92065, Note_off_c, 9, 51, 98
11, 92160, Note_on_c, 9, 51, 116
11, 92185, Note_off_c, 9, 51, 116
11, 92280, Note_on_c, 9, 51, 87
11, 92305, Note_off_c, 9, 51, 87
11, 92400, Note_on_c, 9, 51, 87
11, 92425, Note_off_c, 9, 51, 87
11, 92520, Note_on_c, 9, 51, 110
11, 92545, Note_off_c, 9, 51, 110
11, 92640, Note_on_c, 9, 51, 102
11, 92665, Note_off_c, 9, 51, 102
11, 92760, Note_on_c, 9, 51, 105
11, 92760, Note_on_c, 9, 40, 98
11, 92780, Note_off_c, 9, 40, 98
11, 92785, Note_off_c, 9, 51, 105
11, 92825, Note_on_c, 9, 51, 102
11, 92850, Note_off_c, 9, 51, 102
11, 92880, Note_on_c, 9, 51, 91
11, 92905, Note_off_c, 9, 51, 91
11, 93000, Note_on_c, 9, 51, 93
11, 93025, Note_off_c, 9, 51, 93
11, 93120, Note_on_c, 9, 51, 105
11, 93145, Note_off_c, 9, 51, 105
11, 93240, Note_on_c, 9, 51, 85
11, 93240, Note_on_c, 9, 40, 100
11, 93260, Note_off_c, 9, 40, 100
11, 93265, Note_off_c, 9, 51, 85
11, 93360, Note_on_c, 9, 51, 63
11, 93385, Note_off_c, 9, 51, 63
11, 93480, Note_on_c, 9, 51, 72
11, 93505, Note_off_c, 9, 51, 72
11, 93600, Note_on_c, 9, 51, 100
11, 93600, Note_on_c, 9, 40, 102
11, 93620, Note_off_c, 9, 40, 102
11, 93625, Note_off_c, 9, 51, 100
11, 93720, Note_on_c, 9, 51, 78
11, 93745, Note_off_c, 9, 51, 78
11, 93840, Note_on_c, 9, 51, 87
11, 93865, Note_off_c, 9, 51, 87
11, 93960, Note_on_c, 9, 51, 87
11, 93985, Note_off_c, 9, 51, 87
11, 94080, Note_on_c, 9, 49, 35
11, 94105, Note_off_c, 9, 49, 35
11, 94140, Note_on_c, 9, 49, 38
11, 94165, Note_off_c, 9, 49, 38
11, 94200, Note_on_c, 9, 49, 40
11, 94225, Note_off_c, 9, 49, 40
11, 94260, Note_on_c, 9, 49, 43
11, 94285, Note_off_c, 9, 49, 43
11, 94320, Note_on_c, 9, 49, 46
11, 94345, Note_off_c, 9, 49, 46
11, 94380, Note_on_c, 9, 49, 48
11, 94405, Note_off_c, 9, 49, 48
11, 94440, Note_on_c, 9, 49, 51
11, 94465, Note_off_c, 9, 49, 51
11, 94500, Note_on_c, 9, 49, 54
11, 94525, Note_off_c, 9, 49, 54
11, 94560, Note_on_c, 9, 49, 57
11, 94585, Note_off_c, 9, 49, 57
11, 94620, Note_on_c, 9, 49, 59
11, 94645, Note_off_c, 9, 49, 59
11, 94680, Note_on_c, 9, 49, 62
11, 94705, Note_off_c, 9, 49, 62
11, 94740, Note_on_c, 9, 49, 65
11, 94765, Note_off_c, 9, 49, 65
11, 94800, Note_on_c, 9, 49, 68
11, 94825, Note_off_c, 9, 49, 68
11, 94860, Note_on_c, 9, 49, 70
11, 94885, Note_off_c, 9, 49, 70
11, 94920, Note_on_c, 9, 49, 73
11, 94945, Note_off_c, 9, 49, 73
11, 94980, Note_on_c, 9, 49, 76
11, 95040, Note_off_c, 9, 49, 76
11, 96240, Note_on_c, 9, 39, 119
11, 96260, Note_off_c, 9, 39, 119
11, 96480, Note_on_c, 9, 39, 122
11, 96500, Note_off_c, 9, 39, 122
11, 98160, Note_on_c, 9, 39, 119
11, 98180, Note_off_c, 9, 39, 119
11, 98400, Note_on_c, 9, 39, 119
11, 98420, Note_off_c, 9, 39, 119
11, 98880, Note_on_c, 9, 51, 100
11, 98905, Note_off_c, 9, 51, 100
11, 99000, Note_on_c, 9, 51, 80
11, 99025, Note_off_c, 9, 51, 80
11, 99120, Note_on_c, 9, 51, 64
11, 99145, Note_off_c, 9, 51, 64
11, 99240, Note_on_c, 9, 51, 105
11, 99265, Note_off_c, 9, 51, 105
11, 99360, Note_on_c, 9, 51, 64
11, 99385, Note_off_c, 9, 51, 64
11, 99480, Note_on_c, 9, 51, 59
11, 99505, Note_off_c, 9, 51, 59
11, 99600, Note_on_c, 9, 51, 102
11, 99625, Note_off_c, 9, 51, 102
11, 99720, Note_on_c, 9, 51, 60
11, 99745, Note_off_c, 9, 51, 60
11, 99840, Note_on_c, 9, 51, 55
11, 99865, Note_off_c, 9, 51, 55
11, 99960, Note_on_c, 9, 51, 102
11, 99960, Note_on_c, 9, 40, 98
11, 99980, Note_off_c, 9, 40, 98
11, 99985, Note_off_c, 9, 51, 102
11, 100080, Note_on_c, 9, 51, 60
11, 100105, Note_off_c, 9, 51, 60
11, 100200, Note_on_c, 9, 51, 64
11, 100225, Note_off_c, 9, 51, 64
11, 100320, Note_on_c, 9, 51, 93
11, 100345, Note_off_c, 9, 51, 93
11, 100440, Note_on_c, 9, 51, 85
11, 100440, Note_on_c, 9, 40, 93
11, 100460, Note_off_c, 9, 40, 93
11, 100465, Note_off_c, 9, 51, 85
11, 100560, Note_on_c, 9, 51, 80
11, 100585, Note_off_c, 9, 51, 80
11, 100680, Note_on_c, 9, 51, 102
11, 100680, Note_on_c, 9, 40, 82
11, 100700, Note_off_c, 9, 40, 82
11, 100705, Note_off_c, 9, 51, 102
11, 100750, Note_on_c, 9, 51, 107
11, 100800, Note_on_c, 9, 51, 98
11, 100800, Note_off_c, 9, 51, 107
11, 100825, Note_off_c, 9, 51, 98
11, 100920, Note_on_c, 9, 51, 66
11, 100945, Note_off_c, 9, 51, 66
11, 101040, Note_on_c, 9, 51, 85
11, 101065, Note_off_c, 9, 51, 85
11, 101160, Note_on_c, 9, 51, 105
11, 101185, Note_off_c, 9, 51, 105
11, 101280, Note_on_c, 9, 51, 64
11, 101305, Note_off_c, 9, 51, 64
11, 101400, Note_on_c, 9, 51, 70
11, 101425, Note_off_c, 9, 51, 70
11, 101520, Note_on_c, 9, 51, 102
11, 101545, Note_off_c, 9, 51, 102
11, 101640, Note_on_c, 9, 51, 60
11, 101665, Note_off_c, 9, 51, 60
11, 101760, Note_on_c, 9, 51, 64
11, 101785, Note_off_c, 9, 51, 64
11, 101880, Note_on_c, 9, 51, 105
11, 101880, Note_on_c, 9, 40, 80
11, 101900, Note_off_c, 9, 40, 80
11, 101905, Note_off_c, 9, 51, 105
11, 102000, Note_on_c, 9, 51, 63
11, 102025, Note_off_c, 9, 51, 63
11, 102120, Note_on_c, 9, 51, 78
11, 102145, Note_off_c, 9, 51, 78
11, 102240, Note_on_c, 9, 51, 102
11, 102265, Note_off_c, 9, 51, 102
11, 102360, Note_on_c, 9, 51, 85
11, 102360, Note_on_c, 9, 40, 85
11, 102380, Note_off_c, 9, 40, 85
11, 102385, Note_off_c, 9, 51, 85
11, 102480, Note_on_c, 9, 51, 105
11, 102505, Note_off_c, 9, 51, 105
11, 102600, Note_on_c, 9, 51, 89
11, 102600, Note_on_c, 9, 40, 85
11, 102620, Note_off_c, 9, 40, 85
11, 102625, Note_off_c, 9, 51, 89
11, 102720, Note_on_c, 9, 51, 102
11, 102745, Note_off_c, 9, 51, 102
11, 102840, Note_on_c, 9, 51, 64
11, 102865, Note_off_c, 9, 51, 64
11, 102960, Note_on_c, 9, 51, 70
11, 102985, Note_off_c, 9, 51, 70
11, 103080, Note_on_c, 9, 51, 102
11, 103105, Note_off_c, 9, 51, 102
11, 103200, Note_on_c, 9, 51, 66
11, 103225, Note_off_c, 9, 51, 66
11, 103320, Note_on_c, 9, 51, 78
11, 103320, Note_on_c, 9, 40, 87
11, 103340, Note_off_c, 9, 40, 87
11, 103345, Note_off_c, 9, 51, 78
11, 103440, Note_on_c, 9, 51, 107
11, 103465, Note_off_c, 9, 51, 107
11, 103560, Note_on_c, 9, 51, 78
11, 103585, Note_off_c, 9, 51, 78
11, 103680, Note_on_c, 9, 51, 78
11, 103705, Note_off_c, 9, 51, 78
11, 103800, Note_on_c, 9, 51, 102
11, 103825, Note_off_c, 9, 51, 102
11, 103920, Note_on_c, 9, 51, 68
11, 103945, Note_off_c, 9, 51, 68
11, 104040, Note_on_c, 9, 51, 91
11, 104065, Note_off_c, 9, 51, 91
11, 104160, Note_on_c, 9, 51, 91
11, 104185, Note_off_c, 9, 51, 91
11, 104280, Note_on_c, 9, 51, 100
11, 104280, Note_on_c, 9, 40, 93
11, 104300, Note_off_c, 9, 40, 93
11, 104305, Note_off_c, 9, 51, 100
11, 104400, Note_on_c, 9, 51, 102
11, 104425, Note_off_c, 9, 51, 102
11, 104520, Note_on_c, 9, 51, 102
11, 104545, Note_off_c, 9, 51, 102
11, 104595, Note_on_c, 9, 51, 100
11, 104640, Note_on_c, 9, 51, 91
11, 104640, Note_off_c, 9, 51, 100
11, 104665, Note_off_c, 9, 51, 91
11, 104760, Note_on_c, 9, 51, 91
11, 104785, Note_off_c, 9, 51, 91
11, 104880, Note_on_c, 9, 51, 91
11, 104905, Note_off_c, 9, 51, 91
11, 105000, Note_on_c, 9, 51, 102
11, 105025, Note_off_c, 9, 51, 102
11, 105120, Note_on_c, 9, 51, 102
11, 105145, Note_off_c, 9, 51, 102
11, 105240, Note_on_c, 9, 51, 89
11, 105240, Note_on_c, 9, 40, 85
11, 105260, Note_off_c, 9, 40, 85
11, 105265, Note_off_c, 9, 51, 89
11, 105360, Note_on_c, 9, 51, 93
11, 105385, Note_off_c, 9, 51, 93
11, 105480, Note_on_c, 9, 51, 102
11, 105505, Note_off_c, 9, 51, 102
11, 105600, Note_on_c, 9, 51, 82
11, 105625, Note_off_c, 9, 51, 82
11, 105720, Note_on_c, 9, 51, 85
11, 105720, Note_on_c, 9, 40, 95
11, 105740, Note_off_c, 9, 40, 95
11, 105745, Note_off_c, 9, 51, 85
11, 105840, Note_on_c, 9, 51, 78
11, 105865, Note_off_c, 9, 51, 78
11, 105960, Note_on_c, 9, 51, 105
11, 105985, Note_off_c, 9, 51, 105
11, 106080, Note_on_c, 9, 51, 80
11, 106105, Note_off_c, 9, 51, 80
11, 106200, Note_on_c, 9, 51, 91
11, 106200, Note_on_c, 9, 40, 85
11, 106220, Note_off_c, 9, 40, 85
11, 106225, Note_off_c, 9, 51, 91
11, 106320, Note_on_c, 9, 51, 105
11, 106345, Note_off_c, 9, 51, 105
11, 106440, Note_on_c, 9, 51, 100
11, 106440, Note_on_c, 9, 40, 85
11, 106460, Note_off_c, 9, 40, 85
11, 106465, Note_off_c, 9, 51, 100
11, 106510, Note_on_c, 9, 51, 102
11, 106560, Note_on_c, 9, 51, 82
11, 106560, Note_off_c, 9, 51, 102
11, 106585, Note_off_c, 9, 51, 82
11, 106680, Note_on_c, 9, 51, 93
11, 106705, Note_off_c, 9, 51, 93
11, 106800, Note_on_c, 9, 51, 102
11, 106825, Note_off_c, 9, 51, 102
11, 106920, Note_on_c, 9, 51, 102
11, 106945, Note_off_c, 9, 51, 102
11, 107040, Note_on_c, 9, 51, 91
11, 107065, Note_off_c, 9, 51, 91
11, 107160, Note_on_c, 9, 51, 100
11, 107185, Note_off_c, 9, 51, 100
11, 107220, Note_on_c, 9, 51, 105
11, 107245, Note_off_c, 9, 51, 105
11, 107280, Note_on_c, 9, 51, 64
11, 107305, Note_off_c, 9, 51, 64
11, 107400, Note_on_c, 9, 51, 70
11, 107425, Note_off_c, 9, 51, 70
11, 107520, Note_on_c, 9, 51, 93
11, 107545, Note_off_c, 9, 51, 93
11, 107640, Note_on_c, 9, 51, 100
11, 107640, Note_on_c, 9, 40, 93
11, 107660, Note_off_c, 9, 40, 93
11, 107665, Note_off_c, 9, 51, 100
11, 107760, Note_on_c, 9, 51, 102
11, 107785, Note_off_c, 9, 51, 102
11, 107880, Note_on_c, 9, 51, 105
11, 107905, Note_off_c, 9, 51, 105
11, 108000, Note_on_c, 9, 51, 98
11, 108025, Note_off_c, 9, 51, 98
11, 108120, Note_on_c, 9, 51, 102
11, 108120, Note_on_c, 9, 40, 98
11, 108140, Note_off_c, 9, 40, 98
11, 108145, Note_off_c, 9, 51, 102
11, 108240, Note_on_c, 9, 51, 100
11, 108265, Note_off_c, 9, 51, 100
11, 108360, Note_on_c, 9, 51, 105
11, 108385, Note_off_c, 9, 51, 105
11, 108425, Note_on_c, 9, 51, 102
11, 108480, Note_on_c, 9, 51, 80
11, 108480, Note_off_c, 9, 51, 102
11, 108505, Note_off_c, 9, 51, 80
11, 108600, Note_on_c, 9, 51, 91
11, 108625, Note_off_c, 9, 51, 91
11, 108720, Note_on_c, 9, 51, 102
11, 108745, Note_off_c, 9, 51, 102
11, 108840, Note_on_c, 9, 51, 87
11, 108840, Note_on_c, 9, 40, 100
11, 108860, Note_off_c, 9, 40, 100
11, 108865, Note_off_c, 9, 51, 87
11, 108960, Note_on_c, 9, 51, 93
11, 108985, Note_off_c, 9, 51, 93
11, 109080, Note_on_c, 9, 51, 87
11, 109105, Note_off_c, 9, 51, 87
11, 109200, Note_on_c, 9, 51, 93
11, 109200, Note_on_c, 9, 40, 105
11, 109220, Note_off_c, 9, 40, 105
11, 109225, Note_off_c, 9, 51, 93
11, 109320, Note_on_c, 9, 51, 105
11, 109345, Note_off_c, 9, 51, 105
11, 109500, Note_on_c, 9, 48, 107
11, 109520, Note_off_c, 9, 48, 107
11, 109560, Note_on_c, 9, 48, 107
11, 109580, Note_off_c, 9, 48, 107
11, 109680, Note_on_c, 9, 47, 122
11, 109700, Note_off_c, 9, 47, 122
11, 109800, Note_on_c, 9, 45, 110
11, 109820, Note_off_c, 9, 45, 110
11, 109860, Note_on_c, 9, 45, 110
11, 109880, Note_off_c, 9, 45, 110
11, 109980, Note_on_c, 9, 43, 107
11, 110000, Note_off_c, 9, 43, 107
11, 110040, Note_on_c, 9, 43, 110
11, 110060, Note_off_c, 9, 43, 110
11, 110160, Note_on_c, 9, 40, 127
11, 110180, Note_off_c, 9, 40, 127
11, 110220, Note_on_c, 9, 40, 116
11, 110240, Note_off_c, 9, 40, 116
11, 110280, Note_on_c, 9, 40, 122
11, 110300, Note_off_c, 9, 40, 122
11, 110340, Note_on_c, 9, 40, 116
11, 110400, Note_on_c, 9, 36, 127
11, 110400, Note_off_c, 9, 40, 116
11, 110420, Note_off_c, 9, 36, 127
11, 110640, Note_on_c, 9, 36, 127
11, 110660, Note_off_c, 9, 36, 127
11, 110880, Note_on_c, 9, 49, 82
11, 110880, Note_on_c, 9, 40, 127
11, 110900, Note_off_c, 9, 40, 127
11, 110905, Note_off_c, 9, 49, 82
11, 111360, Note_on_c, 9, 36, 127
11, 111380, Note_off_c, 9, 36, 127
11, 111600, Note_on_c, 9, 36, 127
11, 111620, Note_off_c, 9, 36, 127
11, 111840, Note_on_c, 9, 49, 82
11, 111840, Note_on_c, 9, 40, 127
11, 111860, Note_off_c, 9, 40, 127
11, 111865, Note_off_c, 9, 49, 82
11, 112320, Note_on_c, 9, 36, 127
11, 112340, Note_off_c, 9, 36, 127
11, 112560, Note_on_c, 9, 36, 127
11, 112580, Note_off_c, 9, 36, 127
11, 112800, Note_on_c, 9, 49, 82
11, 112800, Note_on_c, 9, 40, 127
11, 112820, Note_off_c, 9, 40, 127
11, 112825, Note_off_c, 9, 49, 82
11, 113280, Note_on_c, 9, 36, 127
11, 113300, Note_off_c, 9, 36, 127
11, 113520, Note_on_c, 9, 36, 127
11, 113540, Note_off_c, 9, 36, 127
11, 113760, Note_on_c, 9, 49, 82
11, 113760, Note_on_c, 9, 40, 127
11, 113780, Note_off_c, 9, 40, 127
11, 113785, Note_off_c, 9, 49, 82
11, 114240, Note_on_c, 9, 36, 127
11, 114260, Note_off_c, 9, 36, 127
11, 114480, Note_on_c, 9, 36, 127
11, 114500, Note_off_c, 9, 36, 127
11, 114720, Note_on_c, 9, 49, 82
11, 114720, Note_on_c, 9, 40, 127
11, 114740, Note_off_c, 9, 40, 127
11, 114745, Note_off_c, 9, 49, 82
11, 115200, Note_on_c, 9, 36, 127
11, 115220, Note_off_c, 9, 36, 127
11, 115440, Note_on_c, 9, 36, 127
11, 115460, Note_off_c, 9, 36, 127
11, 115680, Note_on_c, 9, 49, 82
11, 115680, Note_on_c, 9, 40, 127
11, 115700, Note_off_c, 9, 40, 127
11, 115705, Note_off_c, 9, 49, 82
11, 116160, Note_on_c, 9, 36, 127
11, 116180, Note_off_c, 9, 36, 127
11, 116400, Note_on_c, 9, 36, 127
11, 116420, Note_off_c, 9, 36, 127
11, 116640, Note_on_c, 9, 49, 82
11, 116640, Note_on_c, 9, 40, 127
11, 116660, Note_off_c, 9, 40, 127
11, 116665, Note_off_c, 9, 49, 82
11, 117120, Note_on_c, 9, 36, 127
11, 117140, Note_off_c, 9, 36, 127
11, 117360, Note_on_c, 9, 36, 127
11, 117380, Note_off_c, 9, 36, 127
11, 117600, Note_on_c, 9, 49, 82
11, 117600, Note_on_c, 9, 40, 127
11, 117620, Note_off_c, 9, 40, 127
11, 117625, Note_off_c, 9, 49, 82
11, 118080, Note_on_c, 9, 36, 127
11, 118100, Note_off_c, 9, 36, 127
11, 118320, Note_on_c, 9, 36, 127
11, 118340, Note_off_c, 9, 36, 127
11, 118560, Note_on_c, 9, 49, 82
11, 118560, Note_on_c, 9, 40, 127
11, 118580, Note_off_c, 9, 40, 127
11, 118585, Note_off_c, 9, 49, 82
11, 119040, Note_on_c, 9, 36, 127
11, 119060, Note_off_c, 9, 36, 127
11, 119280, Note_on_c, 9, 36, 127
11, 119300, Note_off_c, 9, 36, 127
11, 119520, Note_on_c, 9, 49, 82
11, 119520, Note_on_c, 9, 40, 127
11, 119540, Note_off_c, 9, 40, 127
11, 119545, Note_off_c, 9, 49, 82
11, 120000, Note_on_c, 9, 36, 127
11, 120020, Note_off_c, 9, 36, 127
11, 120240, Note_on_c, 9, 36, 127
11, 120260, Note_off_c, 9, 36, 127
11, 120480, Note_on_c, 9, 49, 82
11, 120480, Note_on_c, 9, 40, 127
11, 120500, Note_off_c, 9, 40, 127
11, 120505, Note_off_c, 9, 49, 82
11, 120960, Note_on_c, 9, 36, 127
11, 120980, Note_off_c, 9, 36, 127
11, 121200, Note_on_c, 9, 36, 127
11, 121220, Note_off_c, 9, 36, 127
11, 121440, Note_on_c, 9, 49, 82
11, 121440, Note_on_c, 9, 40, 127
11, 121460, Note_off_c, 9, 40, 127
11, 121465, Note_off_c, 9, 49, 82
11, 121920, Note_on_c, 9, 36, 127
11, 121940, Note_off_c, 9, 36, 127
11, 122160, Note_on_c, 9, 36, 127
11, 122180, Note_off_c, 9, 36, 127
11, 122400, Note_on_c, 9, 49, 82
11, 122400, Note_on_c, 9, 40, 127
11, 122420, Note_off_c, 9, 40, 127
11, 122425, Note_off_c, 9, 49, 82
11, 122880, Note_on_c, 9, 36, 127
11, 122900, Note_off_c, 9, 36, 127
11, 123120, Note_on_c, 9, 36, 127
11, 123140, Note_off_c, 9, 36, 127
11, 123360, Note_on_c, 9, 49, 82
11, 123360, Note_on_c, 9, 40, 127
11, 123380, Note_off_c, 9, 40, 127
11, 123385, Note_off_c, 9, 49, 82
11, 123840, Note_on_c, 9, 36, 127
11, 123860, Note_off_c, 9, 36, 127
11, 124080, Note_on_c, 9, 36, 127
11, 124100, Note_off_c, 9, 36, 127
11, 124320, Note_on_c, 9, 49, 82
11, 124320, Note_on_c, 9, 40, 127
11, 124340, Note_off_c, 9, 40, 127
11, 124345, Note_off_c, 9, 49, 82
11, 124800, Note_on_c, 9, 36, 127
11, 124820, Note_off_c, 9, 36, 127
11, 125040, Note_on_c, 9, 36, 127
11, 125060, Note_off_c, 9, 36, 127
11, 125280, Note_on_c, 9, 49, 82
11, 125280, Note_on_c, 9, 40, 127
11, 125300, Note_off_c, 9, 40, 127
11, 125305, Note_off_c, 9, 49, 82
11, 125760, Note_on_c, 9, 36, 127
11, 125780, Note_off_c, 9, 36, 127
11, 126000, Note_on_c, 9, 36, 127
11, 126020, Note_off_c, 9, 36, 127
11, 126240, Note_on_c, 9, 49, 82
11, 126240, Note_on_c, 9, 40, 127
11, 126260, Note_off_c, 9, 40, 127
11, 126265, Note_off_c, 9, 49, 82
11, 126720, Note_on_c, 9, 36, 127
11, 126740, Note_off_c, 9, 36, 127
11, 126960, Note_on_c, 9, 36, 127
11, 126980, Note_off_c, 9, 36, 127
11, 127200, Note_on_c, 9, 49, 82
11, 127200, Note_on_c, 9, 40, 127
11, 127220, Note_off_c, 9, 40, 127
11, 127225, Note_off_c, 9, 49, 82
11, 127680, Note_on_c, 9, 36, 127
11, 127700, Note_off_c, 9, 36, 127
11, 127920, Note_on_c, 9, 36, 127
11, 127940, Note_off_c, 9, 36, 127
11, 128160, Note_on_c, 9, 49, 82
11, 128160, Note_on_c, 9, 40, 127
11, 128180, Note_off_c, 9, 40, 127
11, 128185, Note_off_c, 9, 49, 82
11, 128640, Note_on_c, 9, 36, 127
11, 128660, Note_off_c, 9, 36, 127
11, 128880, Note_on_c, 9, 36, 127
11, 128900, Note_off_c, 9, 36, 127
11, 129120, Note_on_c, 9, 49, 82
11, 129120, Note_on_c, 9, 40, 127
11, 129140, Note_off_c, 9, 40, 127
11, 129145, Note_off_c, 9, 49, 82
11, 129600, Note_on_c, 9, 36, 127
11, 129620, Note_off_c, 9, 36, 127
11, 129840, Note_on_c, 9, 36, 127
11, 129860, Note_off_c, 9, 36, 127
11, 130080, Note_on_c, 9, 49, 82
11, 130080, Note_on_c, 9, 40, 127
11, 130100, Note_off_c, 9, 40, 127
11, 130105, Note_off_c, 9, 49, 82
11, 130560, Note_on_c, 9, 36, 127
11, 130580, Note_off_c, 9, 36, 127
11, 130800, Note_on_c, 9, 36, 127
11, 130820, Note_off_c, 9, 36, 127
11, 131040, Note_on_c, 9, 49, 82
11, 131040, Note_on_c, 9, 40, 127
11, 131060, Note_off_c, 9, 40, 127
11, 131065, Note_off_c, 9, 49, 82
11, 131520, Note_on_c, 9, 36, 127
11, 131540, Note_off_c, 9, 36, 127
11, 131760, Note_on_c, 9, 36, 127
11, 131780, Note_off_c, 9, 36, 127
11, 132000, Note_on_c, 9, 49, 82
11, 132000, Note_on_c, 9, 40, 127
11, 132020, Note_off_c, 9, 40, 127
11, 132025, Note_off_c, 9, 49, 82
11, 132480, Note_on_c, 9, 36, 127
11, 132500, Note_off_c, 9, 36, 127
11, 132720, Note_on_c, 9, 36, 127
11, 132740, Note_off_c, 9, 36, 127
11, 132960, Note_on_c, 9, 49, 82
11, 132960, Note_on_c, 9, 40, 127
11, 132980, Note_off_c, 9, 40, 127
11, 132985, Note_off_c, 9, 49, 82
11, 133440, Note_on_c, 9, 51, 102
11, 133465, Note_off_c, 9, 51, 102
11, 133560, Note_on_c, 9, 51, 68
11, 133585, Note_off_c, 9, 51, 68
11, 133680, Note_on_c, 9, 51, 76
11, 133705, Note_off_c, 9, 51, 76
11, 133800, Note_on_c, 9, 51, 105
11, 133825, Note_off_c, 9, 51, 105
11, 133920, Note_on_c, 9, 51, 68
11, 133945, Note_off_c, 9, 51, 68
11, 134040, Note_on_c, 9, 51, 70
11, 134065, Note_off_c, 9, 51, 70
11, 134160, Note_on_c, 9, 51, 95
11, 134185, Note_off_c, 9, 51, 95
11, 134280, Note_on_c, 9, 51, 68
11, 134305, Note_off_c, 9, 51, 68
11, 134400, Note_on_c, 9, 51, 62
11, 134425, Note_off_c, 9, 51, 62
11, 134520, Note_on_c, 9, 51, 100
11, 134520, Note_on_c, 9, 40, 105
11, 134540, Note_off_c, 9, 40, 105
11, 134545, Note_off_c, 9, 51, 100
11, 134640, Note_on_c, 9, 51, 66
11, 134665, Note_off_c, 9, 51, 66
11, 134760, Note_on_c, 9, 51, 72
11, 134785, Note_off_c, 9, 51, 72
11, 134880, Note_on_c, 9, 51, 102
11, 134880, Note_on_c, 9, 40, 122
11, 134900, Note_off_c, 9, 40, 122
11, 134905, Note_off_c, 9, 51, 102
11, 135000, Note_on_c, 9, 51, 80
11, 135025, Note_off_c, 9, 51, 80
11, 135120, Note_on_c, 9, 51, 80
11, 135145, Note_off_c, 9, 51, 80
11, 135240, Note_on_c, 9, 51, 105
11, 135265, Note_off_c, 9, 51, 105
11, 135310, Note_on_c, 9, 51, 95
11, 135360, Note_on_c, 9, 51, 100
11, 135360, Note_off_c, 9, 51, 95
11, 135385, Note_off_c, 9, 51, 100
11, 135480, Note_on_c, 9, 51, 78
11, 135505, Note_off_c, 9, 51, 78
11, 135600, Note_on_c, 9, 51, 72
11, 135625, Note_off_c, 9, 51, 72
11, 135720, Note_on_c, 9, 51, 100
11, 135745, Note_off_c, 9, 51, 100
11, 135840, Note_on_c, 9, 51, 85
11, 135865, Note_off_c, 9, 51, 85
11, 135960, Note_on_c, 9, 51, 64
11, 135985, Note_off_c, 9, 51, 64
11, 136080, Note_on_c, 9, 51, 102
11, 136105, Note_off_c, 9, 51, 102
11, 136200, Note_on_c, 9, 51, 72
11, 136225, Note_off_c, 9, 51, 72
11, 136320, Note_on_c, 9, 51, 87
11, 136345, Note_off_c, 9, 51, 87
11, 136440, Note_on_c, 9, 51, 95
11, 136440, Note_on_c, 9, 36, 87
11, 136460, Note_off_c, 9, 36, 87
11, 136465, Note_off_c, 9, 51, 95
11, 136560, Note_on_c, 9, 51, 80
11, 136560, Note_on_c, 9, 40, 102
11, 136580, Note_off_c, 9, 40, 102
11, 136585, Note_off_c, 9, 51, 80
11, 136680, Note_on_c, 9, 51, 82
11, 136705, Note_off_c, 9, 51, 82
11, 136800, Note_on_c, 9, 51, 87
11, 136825, Note_off_c, 9, 51, 87
11, 136920, Note_on_c, 9, 51, 80
11, 136920, Note_on_c, 9, 40, 105
11, 136940, Note_off_c, 9, 40, 105
11, 136945, Note_off_c, 9, 51, 80
11, 137040, Note_on_c, 9, 51, 91
11, 137065, Note_off_c, 9, 51, 91
11, 137160, Note_on_c, 9, 51, 87
11, 137185, Note_off_c, 9, 51, 87
11, 137280, Note_on_c, 9, 49, 85
11, 137305, Note_off_c, 9, 49, 85
11, 137400, Note_on_c, 9, 51, 64
11, 137425, Note_off_c, 9, 51, 64
11, 137520, Note_on_c, 9, 51, 87
11, 137545, Note_off_c, 9, 51, 87
11, 137640, Note_on_c, 9, 51, 91
11, 137665, Note_off_c, 9, 51, 91
11, 137760, Note_on_c, 9, 51, 100
11, 137785, Note_off_c, 9, 51, 100
11, 137880, Note_on_c, 9, 51, 76
11, 137905, Note_off_c, 9, 51, 76
11, 138000, Note_on_c, 9, 51, 85
11, 138025, Note_off_c, 9, 51, 85
11, 138120, Note_on_c, 9, 51, 100
11, 138145, Note_off_c, 9, 51, 100
11, 138240, Note_on_c, 9, 51, 64
11, 138265, Note_off_c, 9, 51, 64
11, 138360, Note_on_c, 9, 51, 82
11, 138360, Note_on_c, 9, 40, 107
11, 138380, Note_off_c, 9, 40, 107
11, 138385, Note_off_c, 9, 51, 82
11, 138480, Note_on_c, 9, 51, 87
11, 138505, Note_off_c, 9, 51, 87
11, 138600, Note_on_c, 9, 51, 78
11, 138625, Note_off_c, 9, 51, 78
11, 138720, Note_on_c, 9, 51, 95
11, 138720, Note_on_c, 9, 40, 116
11, 138740, Note_off_c, 9, 40, 116
11, 138745, Note_off_c, 9, 51, 95
11, 138840, Note_on_c, 9, 51, 72
11, 138865, Note_off_c, 9, 51, 72
11, 138960, Note_on_c, 9, 51, 89
11, 138985, Note_off_c, 9, 51, 89
11, 139080, Note_on_c, 9, 51, 100
11, 139105, Note_off_c, 9, 51, 100
11, 139150, Note_on_c, 9, 51, 100
11, 139200, Note_on_c, 9, 51, 87
11, 139200, Note_off_c, 9, 51, 100
11, 139225, Note_off_c, 9, 51, 87
11, 139320, Note_on_c, 9, 51, 78
11, 139345, Note_off_c, 9, 51, 78
11, 139440, Note_on_c, 9, 51, 78
11, 139465, Note_off_c, 9, 51, 78
11, 139560, Note_on_c, 9, 51, 95
11, 139585, Note_off_c, 9, 51, 95
11, 139680, Note_on_c, 9, 51, 100
11, 139705, Note_off_c, 9, 51, 100
11, 139800, Note_on_c, 9, 51, 66
11, 139825, Note_off_c, 9, 51, 66
11, 139920, Note_on_c, 9, 51, 78
11, 139945, Note_off_c, 9, 51, 78
11, 140040, Note_on_c, 9, 51, 102
11, 140065, Note_off_c, 9, 51, 102
11, 140160, Note_on_c, 9, 51, 66
11, 140185, Note_off_c, 9, 51, 66
11, 140280, Note_on_c, 9, 51, 82
11, 140280, Note_on_c, 9, 40, 100
11, 140300, Note_off_c, 9, 40, 100
11, 140305, Note_off_c, 9, 51, 82
11, 140400, Note_on_c, 9, 51, 105
11, 140425, Note_off_c, 9, 51, 105
11, 140520, Note_on_c, 9, 51, 76
11, 140545, Note_off_c, 9, 51, 76
11, 140640, Note_on_c, 9, 51, 102
11, 140640, Note_on_c, 9, 40, 105
11, 140660, Note_off_c, 9, 40, 105
11, 140665, Note_off_c, 9, 51, 102
11, 140760, Note_on_c, 9, 51, 72
11, 140785, Note_off_c, 9, 51, 72
11, 140830, Note_on_c, 9, 51, 75
11, 140855, Note_off_c, 9, 51, 75
11, 140880, Note_on_c, 9, 51, 98
11, 140880, Note_on_c, 9, 40, 105
11, 140900, Note_off_c, 9, 40, 105
11, 140905, Note_off_c, 9, 51, 98
11, 141000, Note_on_c, 9, 51, 87
11, 141025, Note_off_c, 9, 51, 87
11, 141120, Note_on_c, 9, 51, 105
11, 141145, Note_off_c, 9, 51, 105
11, 141240, Note_on_c, 9, 51, 87
11, 141265, Note_off_c, 9, 51, 87
11, 141360, Note_on_c, 9, 51, 76
11, 141385, Note_off_c, 9, 51, 76
11, 141480, Note_on_c, 9, 51, 110
11, 141505, Note_off_c, 9, 51, 110
11, 141600, Note_on_c, 9, 51, 64
11, 141625, Note_off_c, 9, 51, 64
11, 141720, Note_on_c, 9, 51, 80
11, 141745, Note_off_c, 9, 51, 80
11, 141840, Note_on_c, 9, 51, 107
11, 141865, Note_off_c, 9, 51, 107
11, 141960, Note_on_c, 9, 51, 80
11, 141985, Note_off_c, 9, 51, 80
11, 142080, Note_on_c, 9, 51, 68
11, 142105, Note_off_c, 9, 51, 68
11, 142200, Note_on_c, 9, 51, 107
11, 142200, Note_on_c, 9, 40, 98
11, 142220, Note_off_c, 9, 40, 98
11, 142225, Note_off_c, 9, 51, 107
11, 142265, Note_on_c, 9, 51, 102
11, 142290, Note_off_c, 9, 51, 102
11, 142320, Note_on_c, 9, 51, 98
11, 142345, Note_off_c, 9, 51, 98
11, 142440, Note_on_c, 9, 51, 82
11, 142465, Note_off_c, 9, 51, 82
11, 142560, Note_on_c, 9, 51, 102
11, 142560, Note_on_c, 9, 40, 105
11, 142580, Note_off_c, 9, 40, 105
11, 142585, Note_off_c, 9, 51, 102
11, 142680, Note_on_c, 9, 51, 102
11, 142705, Note_off_c, 9, 51, 102
11, 142800, Note_on_c, 9, 51, 100
11, 142825, Note_off_c, 9, 51, 100
11, 142920, Note_on_c, 9, 51, 98
11, 142945, Note_off_c, 9, 51, 98
11, 143040, Note_on_c, 9, 51, 116
11, 143065, Note_off_c, 9, 51, 116
11, 143160, Note_on_c, 9, 51, 87
11, 143185, Note_off_c, 9, 51, 87
11, 143280, Note_on_c, 9, 51, 87
11, 143305, Note_off_c, 9, 51, 87
11, 143400, Note_on_c, 9, 51, 110
11, 143425, Note_off_c, 9, 51, 110
11, 143520, Note_on_c, 9, 51, 102
11, 143545, Note_off_c, 9, 51, 102
11, 143640, Note_on_c, 9, 51, 105
11, 143640, Note_on_c, 9, 40, 98
11, 143660, Note_off_c, 9, 40, 98
11, 143665, Note_off_c, 9, 51, 105
11, 143705, Note_on_c, 9, 51, 102
11, 143730, Note_off_c, 9, 51, 102
11, 143760, Note_on_c, 9, 51, 91
11, 143785, Note_off_c, 9, 51, 91
11, 143880, Note_on_c, 9, 51, 93
11, 143905, Note_off_c, 9, 51, 93
11, 144000, Note_on_c, 9, 51, 105
11, 144025, Note_off_c, 9, 51, 105
11, 144120, Note_on_c, 9, 51, 85
11, 144120, Note_on_c, 9, 40, 100
11, 144140, Note_off_c, 9, 40, 100
11, 144145, Note_off_c, 9, 51, 85
11, 144240, Note_on_c, 9, 51, 63
11, 144265, Note_off_c, 9, 51, 63
11, 144360, Note_on_c, 9, 51, 72
11, 144385, Note_off_c, 9, 51, 72
11, 144480, Note_on_c, 9, 51, 100
11, 144480, Note_on_c, 9, 40, 102
11, 144500, Note_off_c, 9, 40, 102
11, 144505, Note_off_c, 9, 51, 100
11, 144600, Note_on_c, 9, 51, 78
11, 144625, Note_off_c, 9, 51, 78
11, 144720, Note_on_c, 9, 51, 87
11, 144745, Note_off_c, 9, 51, 87
11, 144840, Note_on_c, 9, 51, 87
11, 144865, Note_off_c, 9, 51, 87
11, 144960, Note_on_c, 9, 49, 35
11, 144985, Note_off_c, 9, 49, 35
11, 145020, Note_on_c, 9, 49, 38
11, 145045, Note_off_c, 9, 49, 38
11, 145080, Note_on_c, 9, 49, 40
11, 145105, Note_off_c, 9, 49, 40
11, 145140, Note_on_c, 9, 49, 43
11, 145165, Note_off_c, 9, 49, 43
11, 145200, Note_on_c, 9, 49, 46
11, 145225, Note_off_c, 9, 49, 46
11, 145260, Note_on_c, 9, 49, 48
11, 145285, Note_off_c, 9, 49, 48
11, 145320, Note_on_c, 9, 49, 51
11, 145345, Note_off_c, 9, 49, 51
11, 145380, Note_on_c, 9, 49, 54
11, 145405, Note_off_c, 9, 49, 54
11, 145440, Note_on_c, 9, 49, 57
11, 145465, Note_off_c, 9, 49, 57
11, 145500, Note_on_c, 9, 49, 59
11, 145525, Note_off_c, 9, 49, 59
11, 145560, Note_on_c, 9, 49, 62
11, 145585, Note_off_c, 9, 49, 62
11, 145620, Note_on_c, 9, 49, 65
11, 145645, Note_off_c, 9, 49, 65
11, 145680, Note_on_c, 9, 49, 68
11, 145705, Note_off_c, 9, 49, 68
11, 145740, Note_on_c, 9, 49, 70
11, 145765, Note_off_c, 9, 49, 70
11, 145800, Note_on_c, 9, 49, 73
11, 145825, Note_off_c, 9, 49, 73
11, 145860, Note_on_c, 9, 49, 76
11, 145920, Note_off_c, 9, 49, 76
11, 147120, Note_on_c, 9, 39, 119
11, 147140, Note_off_c, 9, 39, 119
11, 147360, Note_on_c, 9, 39, 122
11, 147380, Note_off_c, 9, 39, 122
11, 149040, Note_on_c, 9, 39, 119
11, 149060, Note_off_c, 9, 39, 119
11, 149280, Note_on_c, 9, 39, 119
11, 149300, Note_off_c, 9, 39, 119
11, 149760, Note_on_c, 9, 51, 100
11, 149785, Note_off_c, 9, 51, 100
11, 149880, Note_on_c, 9, 51, 80
11, 149905, Note_off_c, 9, 51, 80
11, 150000, Note_on_c, 9, 51, 64
11, 150025, Note_off_c, 9, 51, 64
11, 150120, Note_on_c, 9, 51, 105
11, 150145, Note_off_c, 9, 51, 105
11, 150240, Note_on_c, 9, 51, 64
11, 150265, Note_off_c, 9, 51, 64
11, 150360, Note_on_c, 9, 51, 59
11, 150385, Note_off_c, 9, 51, 59
11, 150480, Note_on_c, 9, 51, 102
11, 150505, Note_off_c, 9, 51, 102
11, 150600, Note_on_c, 9, 51, 60
11, 150625, Note_off_c, 9, 51, 60
11, 150720, Note_on_c, 9, 51, 55
11, 150745, Note_off_c, 9, 51, 55
11, 150840, Note_on_c, 9, 51, 102
11, 150840, Note_on_c, 9, 40, 98
11, 150860, Note_off_c, 9, 40, 98
11, 150865, Note_off_c, 9, 51, 102
11, 150960, Note_on_c, 9, 51, 60
11, 150985, Note_off_c, 9, 51, 60
11, 151080, Note_on_c, 9, 51, 64
11, 151105, Note_off_c, 9, 51, 64
11, 151200, Note_on_c, 9, 51, 93
11, 151225, Note_off_c, 9, 51, 93
11, 151320, Note_on_c, 9, 49, 82
11, 151320, Note_on_c, 9, 36, 119
11, 151320, Note_on_c, 9, 40, 93
11, 151340, Note_off_c, 9, 36, 119
11, 151340, Note_off_c, 9, 40, 93
11, 151345, Note_off_c, 9, 49, 82
11, 151440, Note_on_c, 9, 51, 80
11, 151465, Note_off_c, 9, 51, 80
11, 151560, Note_on_c, 9, 49, 85
11, 151560, Note_on_c, 9, 36, 116
11, 151560, Note_on_c, 9, 40, 82
11, 151580, Note_off_c, 9, 36, 116
11, 151580, Note_off_c, 9, 40, 82
11, 151585, Note_off_c, 9, 49, 85
11, 151680, Note_on_c, 9, 51, 98
11, 151705, Note_off_c, 9, 51, 98
11, 151800, Note_on_c, 9, 51, 66
11, 151825, Note_off_c, 9, 51, 66
11, 151920, Note_on_c, 9, 51, 85
11, 151945, Note_off_c, 9, 51, 85
11, 152040, Note_on_c, 9, 51, 105
11, 152065, Note_off_c, 9, 51, 105
11, 152160, Note_on_c, 9, 51, 64
11, 152185, Note_off_c, 9, 51, 64
11, 152280, Note_on_c, 9, 51, 70
11, 152305, Note_off_c, 9, 51, 70
11, 152400, Note_on_c, 9, 51, 102
11, 152425, Note_off_c, 9, 51, 102
11, 152520, Note_on_c, 9, 51, 60
11, 152545, Note_off_c, 9, 51, 60
11, 152640, Note_on_c, 9, 51, 64
11, 152665, Note_off_c, 9, 51, 64
11, 152760, Note_on_c, 9, 51, 105
11, 152760, Note_on_c, 9, 40, 80
11, 152780, Note_off_c, 9, 40, 80
11, 152785, Note_off_c, 9, 51, 105
11, 152880, Note_on_c, 9, 51, 63
11, 152905, Note_off_c, 9, 51, 63
11, 153000, Note_on_c, 9, 51, 78
11, 153025, Note_off_c, 9, 51, 78
11, 153120, Note_on_c, 9, 51, 102
11, 153145, Note_off_c, 9, 51, 102
11, 153240, Note_on_c, 9, 51, 85
11, 153240, Note_on_c, 9, 40, 85
11, 153260, Note_off_c, 9, 40, 85
11, 153265, Note_off_c, 9, 51, 85
11, 153360, Note_on_c, 9, 51, 105
11, 153385, Note_off_c, 9, 51, 105
11, 153480, Note_on_c, 9, 51, 89
11, 153480, Note_on_c, 9, 40, 85
11, 153500, Note_off_c, 9, 40, 85
11, 153505, Note_off_c, 9, 51, 89
11, 153600, Note_on_c, 9, 49, 85
11, 153600, Note_on_c, 9, 36, 116
11, 153620, Note_off_c, 9, 36, 116
11, 153625, Note_off_c, 9, 49, 85
11, 153720, Note_on_c, 9, 51, 64
11, 153745, Note_off_c, 9, 51, 64
11, 153840, Note_on_c, 9, 51, 70
11, 153865, Note_off_c, 9, 51, 70
11, 153960, Note_on_c, 9, 51, 102
11, 153985, Note_off_c, 9, 51, 102
11, 154080, Note_on_c, 9, 51, 66
11, 154105, Note_off_c, 9, 51, 66
11, 154200, Note_on_c, 9, 51, 78
11, 154200, Note_on_c, 9, 40, 87
11, 154220, Note_off_c, 9, 40, 87
11, 154225, Note_off_c, 9, 51, 78
11, 154320, Note_on_c, 9, 51, 107
11, 154345, Note_off_c, 9, 51, 107
11, 154440, Note_on_c, 9, 51, 78
11, 154465, Note_off_c, 9, 51, 78
11, 154560, Note_on_c, 9, 51, 78
11, 154585, Note_off_c, 9, 51, 78
11, 154680, Note_on_c, 9, 51, 102
11, 154705, Note_off_c, 9, 51, 102
11, 154800, Note_on_c, 9, 51, 68
11, 154825, Note_off_c, 9, 51, 68
11, 154920, Note_on_c, 9, 51, 91
11, 154945, Note_off_c, 9, 51, 91
11, 155040, Note_on_c, 9, 51, 91
11, 155065, Note_off_c, 9, 51, 91
11, 155160, Note_on_c, 9, 49, 85
11, 155160, Note_on_c, 9, 36, 107
11, 155160, Note_on_c, 9, 40, 93
11, 155180, Note_off_c, 9, 36, 107
11, 155180, Note_off_c, 9, 40, 93
11, 155185, Note_off_c, 9, 49, 85
11, 155280, Note_on_c, 9, 51, 102
11, 155305, Note_off_c, 9, 51, 102
11, 155400, Note_on_c, 9, 49, 85
11, 155400, Note_on_c, 9, 36, 110
11, 155420, Note_off_c, 9, 36, 110
11, 155425, Note_off_c, 9, 49, 85
11, 155475, Note_on_c, 9, 51, 100
11, 155520, Note_on_c, 9, 51, 100
11, 155520, Note_off_c, 9, 51, 100
11, 155545, Note_off_c, 9, 51, 100
11, 155640, Note_on_c, 9, 51, 80
11, 155665, Note_off_c, 9, 51, 80
11, 155760, Note_on_c, 9, 51, 64
11, 155785, Note_off_c, 9, 51, 64
11, 155880, Note_on_c, 9, 51, 105
11, 155905, Note_off_c, 9, 51, 105
11, 156000, Note_on_c, 9, 51, 64
11, 156025, Note_off_c, 9, 51, 64
11, 156120, Note_on_c, 9, 51, 59
11, 156145, Note_off_c, 9, 51, 59
11, 156240, Note_on_c, 9, 51, 102
11, 156265, Note_off_c, 9, 51, 102
11, 156360, Note_on_c, 9, 51, 60
11, 156385, Note_off_c, 9, 51, 60
11, 156480, Note_on_c, 9, 51, 55
11, 156505, Note_off_c, 9, 51, 55
11, 156600, Note_on_c, 9, 51, 102
11, 156600, Note_on_c, 9, 40, 98
11, 156620, Note_off_c, 9, 40, 98
11, 156625, Note_off_c, 9, 51, 102
11, 156720, Note_on_c, 9, 51, 60
11, 156745, Note_off_c, 9, 51, 60
11, 156840, Note_on_c, 9, 51, 64
11, 156865, Note_off_c, 9, 51, 64
11, 156960, Note_on_c, 9, 51, 93
11, 156985, Note_off_c, 9, 51, 93
11, 157080, Note_on_c, 9, 49, 82
11, 157080, Note_on_c, 9, 36, 119
11, 157080, Note_on_c, 9, 40, 93
11, 157100, Note_off_c, 9, 36, 119
11, 157100, Note_off_c, 9, 40, 93
11, 157105, Note_off_c, 9, 49, 82
11, 157200, Note_on_c, 9, 51, 80
11, 157225, Note_off_c, 9, 51, 80
11, 157320, Note_on_c, 9, 49, 85
11, 157320, Note_on_c, 9, 36, 116
11, 157320, Note_on_c, 9, 40, 82
11, 157340, Note_off_c, 9, 36, 116
11, 157340, Note_off_c, 9, 40, 82
11, 157345, Note_off_c, 9, 49, 85
11, 157440, Note_on_c, 9, 51, 98
11, 157465, Note_off_c, 9, 51, 98
11, 157560, Note_on_c, 9, 51, 66
11, 157585, Note_off_c, 9, 51, 66
11, 157680, Note_on_c, 9, 51, 85
11, 157705, Note_off_c, 9, 51, 85
11, 157800, Note_on_c, 9, 51, 105
11, 157825, Note_off_c, 9, 51, 105
11, 157920, Note_on_c, 9, 51, 64
11, 157945, Note_off_c, 9, 51, 64
11, 158040, Note_on_c, 9, 51, 70
11, 158065, Note_off_c, 9, 51, 70
11, 158160, Note_on_c, 9, 51, 102
11, 158185, Note_off_c, 9, 51, 102
11, 158280, Note_on_c, 9, 51, 60
11, 158305, Note_off_c, 9, 51, 60
11, 158400, Note_on_c, 9, 51, 64
11, 158425, Note_off_c, 9, 51, 64
11, 158520, Note_on_c, 9, 51, 105
11, 158520, Note_on_c, 9, 40, 80
11, 158540, Note_off_c, 9, 40, 80
11, 158545, Note_off_c, 9, 51, 105
11, 158640, Note_on_c, 9, 51, 63
11, 158665, Note_off_c, 9, 51, 63
11, 158760, Note_on_c, 9, 51, 78
11, 158785, Note_off_c, 9, 51, 78
11, 158880, Note_on_c, 9, 51, 102
11, 158905, Note_off_c, 9, 51, 102
11, 159000, Note_on_c, 9, 51, 85
11, 159000, Note_on_c, 9, 40, 85
11, 159020, Note_off_c, 9, 40, 85
11, 159025, Note_off_c, 9, 51, 85
11, 159120, Note_on_c, 9, 51, 105
11, 159145, Note_off_c, 9, 51, 105
11, 159240, Note_on_c, 9, 51, 89
11, 159240, Note_on_c, 9, 40, 85
11, 159260, Note_off_c, 9, 40, 85
11, 159265, Note_off_c, 9, 51, 89
11, 159360, Note_on_c, 9, 49, 85
11, 159360, Note_on_c, 9, 36, 116
11, 159380, Note_off_c, 9, 36, 116
11, 159385, Note_off_c, 9, 49, 85
11, 159480, Note_on_c, 9, 51, 64
11, 159505, Note_off_c, 9, 51, 64
11, 159600, Note_on_c, 9, 51, 70
11, 159625, Note_off_c, 9, 51, 70
11, 159720, Note_on_c, 9, 51, 102
11, 159745, Note_off_c, 9, 51, 102
11, 159840, Note_on_c, 9, 51, 66
11, 159865, Note_off_c, 9, 51, 66
11, 159960, Note_on_c, 9, 51, 78
11, 159960, Note_on_c, 9, 40, 87
11, 159980, Note_off_c, 9, 40, 87
11, 159985, Note_off_c, 9, 51, 78
11, 160080, Note_on_c, 9, 51, 107
11, 160105, Note_off_c, 9, 51, 107
11, 160200, Note_on_c, 9, 51, 78
11, 160225, Note_off_c, 9, 51, 78
11, 160320, Note_on_c, 9, 51, 78
11, 160345, Note_off_c, 9, 51, 78
11, 160440, Note_on_c, 9, 51, 102
11, 160465, Note_off_c, 9, 51, 102
11, 160560, Note_on_c, 9, 51, 68
11, 160585, Note_off_c, 9, 51, 68
11, 160680, Note_on_c, 9, 51, 91
11, 160705, Note_off_c, 9, 51, 91
11, 160800, Note_on_c, 9, 51, 91
11, 160825, Note_off_c, 9, 51, 91
11, 160920, Note_on_c, 9, 49, 85
11, 160920, Note_on_c, 9, 36, 107
11, 160920, Note_on_c, 9, 40, 93
11, 160940, Note_off_c, 9, 36, 107
11, 160940, Note_off_c, 9, 40, 93
11, 160945, Note_off_c, 9, 49, 85
11, 161040, Note_on_c, 9, 51, 102
11, 161065, Note_off_c, 9, 51, 102
11, 161160, Note_on_c, 9, 49, 85
11, 161160, Note_on_c, 9, 36, 110
11, 161180, Note_off_c, 9, 36, 110
11, 161185, Note_off_c, 9, 49, 85
11, 161235, Note_on_c, 9, 51, 100
11, 161280, Note_on_c, 9, 49, 87
11, 161280, Note_off_c, 9, 51, 100
11, 161305, Note_off_c, 9, 49, 87
11, 161400, Note_on_c, 9, 51, 80
11, 161425, Note_off_c, 9, 51, 80
11, 161520, Note_on_c, 9, 51, 64
11, 161545, Note_off_c, 9, 51, 64
11, 161640, Note_on_c, 9, 51, 105
11, 161665, Note_off_c, 9, 51, 105
11, 161760, Note_on_c, 9, 51, 64
11, 161785, Note_off_c, 9, 51, 64
11, 161880, Note_on_c, 9, 51, 59
11, 161905, Note_off_c, 9, 51, 59
11, 162000, Note_on_c, 9, 51, 102
11, 162025, Note_off_c, 9, 51, 102
11, 162120, Note_on_c, 9, 51, 60
11, 162145, Note_off_c, 9, 51, 60
11, 162240, Note_on_c, 9, 51, 55
11, 162265, Note_off_c, 9, 51, 55
11, 162360, Note_on_c, 9, 51, 102
11, 162360, Note_on_c, 9, 40, 127
11, 162380, Note_off_c, 9, 40, 127
11, 162385, Note_off_c, 9, 51, 102
11, 162480, Note_on_c, 9, 51, 60
11, 162505, Note_off_c, 9, 51, 60
11, 162600, Note_on_c, 9, 51, 64
11, 162625, Note_off_c, 9, 51, 64
11, 162720, Note_on_c, 9, 51, 93
11, 162745, Note_off_c, 9, 51, 93
11, 162840, Note_on_c, 9, 51, 85
11, 162840, Note_on_c, 9, 40, 127
11, 162860, Note_off_c, 9, 40, 127
11, 162865, Note_off_c, 9, 51, 85
11, 162960, Note_on_c, 9, 51, 80
11, 162985, Note_off_c, 9, 51, 80
11, 163080, Note_on_c, 9, 51, 102
11, 163080, Note_on_c, 9, 40, 127
11, 163100, Note_off_c, 9, 40, 127
11, 163105, Note_off_c, 9, 51, 102
11, 163150, Note_on_c, 9, 51, 107
11, 163200, Note_on_c, 9, 49, 90
11, 163200, Note_off_c, 9, 51, 107
11, 163225, Note_off_c, 9, 49, 90
11, 163320, Note_on_c, 9, 51, 66
11, 163345, Note_off_c, 9, 51, 66
11, 163440, Note_on_c, 9, 51, 85
11, 163465, Note_off_c, 9, 51, 85
11, 163560, Note_on_c, 9, 51, 105
11, 163585, Note_off_c, 9, 51, 105
11, 163680, Note_on_c, 9, 51, 64
11, 163705, Note_off_c, 9, 51, 64
11, 163800, Note_on_c, 9, 51, 70
11, 163825, Note_off_c, 9, 51, 70
11, 163920, Note_on_c, 9, 51, 102
11, 163945, Note_off_c, 9, 51, 102
11, 164040, Note_on_c, 9, 51, 60
11, 164065, Note_off_c, 9, 51, 60
11, 164160, Note_on_c, 9, 51, 64
11, 164185, Note_off_c, 9, 51, 64
11, 164280, Note_on_c, 9, 51, 105
11, 164280, Note_on_c, 9, 40, 127
11, 164300, Note_off_c, 9, 40, 127
11, 164305, Note_off_c, 9, 51, 105
11, 164400, Note_on_c, 9, 51, 63
11, 164425, Note_off_c, 9, 51, 63
11, 164520, Note_on_c, 9, 51, 78
11, 164545, Note_off_c, 9, 51, 78
11, 164640, Note_on_c, 9, 51, 102
11, 164665, Note_off_c, 9, 51, 102
11, 164760, Note_on_c, 9, 51, 85
11, 164760, Note_on_c, 9, 40, 127
11, 164780, Note_off_c, 9, 40, 127
11, 164785, Note_off_c, 9, 51, 85
11, 164880, Note_on_c, 9, 51, 105
11, 164905, Note_off_c, 9, 51, 105
11, 165000, Note_on_c, 9, 51, 89
11, 165000, Note_on_c, 9, 40, 127
11, 165020, Note_off_c, 9, 40, 127
11, 165025, Note_off_c, 9, 51, 89
11, 165120, Note_on_c, 9, 49, 78
11, 165145, Note_off_c, 9, 49, 78
11, 165240, Note_on_c, 9, 51, 64
11, 165265, Note_off_c, 9, 51, 64
11, 165360, Note_on_c, 9, 51, 70
11, 165385, Note_off_c, 9, 51, 70
11, 165480, Note_on_c, 9, 51, 102
11, 165505, Note_off_c, 9, 51, 102
11, 165600, Note_on_c, 9, 51, 66
11, 165625, Note_off_c, 9, 51, 66
11, 165720, Note_on_c, 9, 51, 78
11, 165720, Note_on_c, 9, 40, 127
11, 165740, Note_off_c, 9, 40, 127
11, 165745, Note_off_c, 9, 51, 78
11, 165840, Note_on_c, 9, 51, 107
11, 165865, Note_off_c, 9, 51, 107
11, 165960, Note_on_c, 9, 51, 78
11, 165985, Note_off_c, 9, 51, 78
11, 166080, Note_on_c, 9, 51, 78
11, 166105, Note_off_c, 9, 51, 78
11, 166200, Note_on_c, 9, 51, 102
11, 166225, Note_off_c, 9, 51, 102
11, 166320, Note_on_c, 9, 51, 68
11, 166345, Note_off_c, 9, 51, 68
11, 166440, Note_on_c, 9, 51, 91
11, 166465, Note_off_c, 9, 51, 91
11, 166560, Note_on_c, 9, 51, 91
11, 166585, Note_off_c, 9, 51, 91
11, 166680, Note_on_c, 9, 51, 100
11, 166680, Note_on_c, 9, 40, 127
11, 166700, Note_off_c, 9, 40, 127
11, 166705, Note_off_c, 9, 51, 100
11, 166800, Note_on_c, 9, 51, 102
11, 166825, Note_off_c, 9, 51, 102
11, 166920, Note_on_c, 9, 51, 102
11, 166945, Note_off_c, 9, 51, 102
11, 166995, Note_on_c, 9, 51, 100
11, 167040, Note_on_c, 9, 51, 91
11, 167040, Note_off_c, 9, 51, 100
11, 167065, Note_off_c, 9, 51, 91
11, 167160, Note_on_c, 9, 51, 91
11, 167185, Note_off_c, 9, 51, 91
11, 167280, Note_on_c, 9, 51, 91
11, 167305, Note_off_c, 9, 51, 91
11, 167400, Note_on_c, 9, 51, 102
11, 167425, Note_off_c, 9, 51, 102
11, 167520, Note_on_c, 9, 51, 102
11, 167545, Note_off_c, 9, 51, 102
11, 167640, Note_on_c, 9, 51, 89
11, 167640, Note_on_c, 9, 40, 127
11, 167660, Note_off_c, 9, 40, 127
11, 167665, Note_off_c, 9, 51, 89
11, 167760, Note_on_c, 9, 51, 93
11, 167785, Note_off_c, 9, 51, 93
11, 167880, Note_on_c, 9, 51, 102
11, 167905, Note_off_c, 9, 51, 102
11, 168000, Note_on_c, 9, 51, 82
11, 168025, Note_off_c, 9, 51, 82
11, 168120, Note_on_c, 9, 51, 85
11, 168120, Note_on_c, 9, 40, 127
11, 168140, Note_off_c, 9, 40, 127
11, 168145, Note_off_c, 9, 51, 85
11, 168240, Note_on_c, 9, 51, 78
11, 168265, Note_off_c, 9, 51, 78
11, 168360, Note_on_c, 9, 51, 105
11, 168385, Note_off_c, 9, 51, 105
11, 168480, Note_on_c, 9, 51, 80
11, 168505, Note_off_c, 9, 51, 80
11, 168600, Note_on_c, 9, 51, 91
11, 168600, Note_on_c, 9, 40, 127
11, 168620, Note_off_c, 9, 40, 127
11, 168625, Note_off_c, 9, 51, 91
11, 168720, Note_on_c, 9, 51, 105
11, 168745, Note_off_c, 9, 51, 105
11, 168840, Note_on_c, 9, 51, 100
11, 168840, Note_on_c, 9, 40, 127
11, 168860, Note_off_c, 9, 40, 127
11, 168865, Note_off_c, 9, 51, 100
11, 168910, Note_on_c, 9, 51, 102
11, 168960, Note_on_c, 9, 49, 87
11, 168960, Note_off_c, 9, 51, 102
11, 168985, Note_off_c, 9, 49, 87
11, 169080, Note_on_c, 9, 51, 93
11, 169105, Note_off_c, 9, 51, 93
11, 169200, Note_on_c, 9, 51, 102
11, 169225, Note_off_c, 9, 51, 102
11, 169320, Note_on_c, 9, 51, 102
11, 169345, Note_off_c, 9, 51, 102
11, 169440, Note_on_c, 9, 51, 91
11, 169465, Note_off_c, 9, 51, 91
11, 169560, Note_on_c, 9, 51, 100
11, 169585, Note_off_c, 9, 51, 100
11, 169620, Note_on_c, 9, 51, 105
11, 169645, Note_off_c, 9, 51, 105
11, 169680, Note_on_c, 9, 51, 64
11, 169705, Note_off_c, 9, 51, 64
11, 169800, Note_on_c, 9, 51, 70
11, 169825, Note_off_c, 9, 51, 70
11, 169920, Note_on_c, 9, 51, 93
11, 169945, Note_off_c, 9, 51, 93
11, 170040, Note_on_c, 9, 51, 100
11, 170040, Note_on_c, 9, 40, 127
11, 170060, Note_off_c, 9, 40, 127
11, 170065, Note_off_c, 9, 51, 100
11, 170160, Note_on_c, 9, 51, 102
11, 170185, Note_off_c, 9, 51, 102
11, 170280, Note_on_c, 9, 51, 105
11, 170305, Note_off_c, 9, 51, 105
11, 170400, Note_on_c, 9, 51, 98
11, 170425, Note_off_c, 9, 51, 98
11, 170520, Note_on_c, 9, 51, 102
11, 170520, Note_on_c, 9, 40, 127
11, 170540, Note_off_c, 9, 40, 127
11, 170545, Note_off_c, 9, 51, 102
11, 170640, Note_on_c, 9, 51, 100
11, 170665, Note_off_c, 9, 51, 100
11, 170760, Note_on_c, 9, 51, 105
11, 170785, Note_off_c, 9, 51, 105
11, 170825, Note_on_c, 9, 51, 102
11, 170880, Note_on_c, 9, 51, 100
11, 170880, Note_off_c, 9, 51, 102
11, 170905, Note_off_c, 9, 51, 100
11, 171000, Note_on_c, 9, 51, 80
11, 171025, Note_off_c, 9, 51, 80
11, 171120, Note_on_c, 9, 51, 64
11, 171145, Note_off_c, 9, 51, 64
11, 171240, Note_on_c, 9, 51, 105
11, 171265, Note_off_c, 9, 51, 105
11, 171360, Note_on_c, 9, 51, 64
11, 171385, Note_off_c, 9, 51, 64
11, 171480, Note_on_c, 9, 51, 59
11, 171505, Note_off_c, 9, 51, 59
11, 171600, Note_on_c, 9, 51, 102
11, 171625, Note_off_c, 9, 51, 102
11, 171720, Note_on_c, 9, 51, 60
11, 171745, Note_off_c, 9, 51, 60
11, 171840, Note_on_c, 9, 51, 55
11, 171865, Note_off_c, 9, 51, 55
11, 171960, Note_on_c, 9, 51, 102
11, 171960, Note_on_c, 9, 40, 127
11, 171980, Note_off_c, 9, 40, 127
11, 171985, Note_off_c, 9, 51, 102
11, 172080, Note_on_c, 9, 51, 60
11, 172105, Note_off_c, 9, 51, 60
11, 172200, Note_on_c, 9, 51, 64
11, 172225, Note_off_c, 9, 51, 64
11, 172320, Note_on_c, 9, 51, 93
11, 172345, Note_off_c, 9, 51, 93
11, 172440, Note_on_c, 9, 51, 85
11, 172440, Note_on_c, 9, 40, 127
11, 172460, Note_off_c, 9, 40, 127
11, 172465, Note_off_c, 9, 51, 85
11, 172560, Note_on_c, 9, 49, 78
11, 172585, Note_off_c, 9, 49, 78
11, 172680, Note_on_c, 9, 40, 127
11, 172700, Note_off_c, 9, 40, 127
11, 172800, Note_on_c, 9, 49, 90
11, 172825, Note_off_c, 9, 49, 90
11, 172920, Note_on_c, 9, 51, 66
11, 172945, Note_off_c, 9, 51, 66
11, 173040, Note_on_c, 9, 51, 85
11, 173065, Note_off_c, 9, 51, 85
11, 173160, Note_on_c, 9, 51, 105
11, 173185, Note_off_c, 9, 51, 105
11, 173280, Note_on_c, 9, 51, 64
11, 173305, Note_off_c, 9, 51, 64
11, 173400, Note_on_c, 9, 51, 70
11, 173425, Note_off_c, 9, 51, 70
11, 173520, Note_on_c, 9, 51, 102
11, 173545, Note_off_c, 9, 51, 102
11, 173640, Note_on_c, 9, 51, 60
11, 173665, Note_off_c, 9, 51, 60
11, 173760, Note_on_c, 9, 51, 64
11, 173785, Note_off_c, 9, 51, 64
11, 173880, Note_on_c, 9, 51, 105
11, 173880, Note_on_c, 9, 40, 127
11, 173900, Note_off_c, 9, 40, 127
11, 173905, Note_off_c, 9, 51, 105
11, 174000, Note_on_c, 9, 51, 63
11, 174025, Note_off_c, 9, 51, 63
11, 174120, Note_on_c, 9, 51, 78
11, 174145, Note_off_c, 9, 51, 78
11, 174240, Note_on_c, 9, 51, 102
11, 174265, Note_off_c, 9, 51, 102
11, 174360, Note_on_c, 9, 51, 85
11, 174360, Note_on_c, 9, 40, 127
11, 174380, Note_off_c, 9, 40, 127
11, 174385, Note_off_c, 9, 51, 85
11, 174480, Note_on_c, 9, 51, 105
11, 174505, Note_off_c, 9, 51, 105
11, 174600, Note_on_c, 9, 51, 89
11, 174600, Note_on_c, 9, 40, 127
11, 174620, Note_off_c, 9, 40, 127
11, 174625, Note_off_c, 9, 51, 89
11, 174720, Note_on_c, 9, 51, 102
11, 174745, Note_off_c, 9, 51, 102
11, 174840, Note_on_c, 9, 51, 64
11, 174865, Note_off_c, 9, 51, 64
11, 174960, Note_on_c, 9, 51, 70
11, 174985, Note_off_c, 9, 51, 70
11, 175080, Note_on_c, 9, 51, 102
11, 175105, Note_off_c, 9, 51, 102
11, 175200, Note_on_c, 9, 51, 66
11, 175225, Note_off_c, 9, 51, 66
11, 175320, Note_on_c, 9, 51, 78
11, 175320, Note_on_c, 9, 40, 127
11, 175340, Note_off_c, 9, 40, 127
11, 175345, Note_off_c, 9, 51, 78
11, 175440, Note_on_c, 9, 51, 107
11, 175465, Note_off_c, 9, 51, 107
11, 175560, Note_on_c, 9, 51, 78
11, 175585, Note_off_c, 9, 51, 78
11, 175680, Note_on_c, 9, 51, 78
11, 175705, Note_off_c, 9, 51, 78
11, 175800, Note_on_c, 9, 51, 102
11, 175825, Note_off_c, 9, 51, 102
11, 175920, Note_on_c, 9, 51, 68
11, 175945, Note_off_c, 9, 51, 68
11, 176040, Note_on_c, 9, 51, 91
11, 176065, Note_off_c, 9, 51, 91
11, 176160, Note_on_c, 9, 51, 91
11, 176185, Note_off_c, 9, 51, 91
11, 176280, Note_on_c, 9, 51, 100
11, 176280, Note_on_c, 9, 40, 127
11, 176300, Note_off_c, 9, 40, 127
11, 176305, Note_off_c, 9, 51, 100
11, 176400, Note_on_c, 9, 51, 102
11, 176425, Note_off_c, 9, 51, 102
11, 176520, Note_on_c, 9, 51, 102
11, 176545, Note_off_c, 9, 51, 102
11, 176595, Note_on_c, 9, 51, 100
11, 176640, Note_on_c, 9, 49, 82
11, 176640, Note_on_c, 9, 51, 91
11, 176640, Note_off_c, 9, 51, 100
11, 176665, Note_off_c, 9, 49, 82
11, 176665, Note_off_c, 9, 51, 91
11, 176760, Note_on_c, 9, 51, 91
11, 176785, Note_off_c, 9, 51, 91
11, 176880, Note_on_c, 9, 51, 91
11, 176905, Note_off_c, 9, 51, 91
11, 177000, Note_on_c, 9, 51, 102
11, 177025, Note_off_c, 9, 51, 102
11, 177120, Note_on_c, 9, 51, 102
11, 177145, Note_off_c, 9, 51, 102
11, 177240, Note_on_c, 9, 51, 89
11, 177240, Note_on_c, 9, 40, 127
11, 177260, Note_off_c, 9, 40, 127
11, 177265, Note_off_c, 9, 51, 89
11, 177360, Note_on_c, 9, 51, 93
11, 177385, Note_off_c, 9, 51, 93
11, 177480, Note_on_c, 9, 51, 102
11, 177505, Note_off_c, 9, 51, 102
11, 177600, Note_on_c, 9, 51, 82
11, 177625, Note_off_c, 9, 51, 82
11, 177720, Note_on_c, 9, 51, 85
11, 177720, Note_on_c, 9, 40, 127
11, 177740, Note_off_c, 9, 40, 127
11, 177745, Note_off_c, 9, 51, 85
11, 177840, Note_on_c, 9, 51, 78
11, 177865, Note_off_c, 9, 51, 78
11, 177960, Note_on_c, 9, 51, 105
11, 177985, Note_off_c, 9, 51, 105
11, 178080, Note_on_c, 9, 51, 80
11, 178105, Note_off_c, 9, 51, 80
11, 178200, Note_on_c, 9, 51, 91
11, 178200, Note_on_c, 9, 40, 127
11, 178220, Note_off_c, 9, 40, 127
11, 178225, Note_off_c, 9, 51, 91
11, 178320, Note_on_c, 9, 51, 105
11, 178345, Note_off_c, 9, 51, 105
11, 178440, Note_on_c, 9, 51, 100
11, 178440, Note_on_c, 9, 40, 127
11, 178460, Note_off_c, 9, 40, 127
11, 178465, Note_off_c, 9, 51, 100
11, 178510, Note_on_c, 9, 51, 102
11, 178560, Note_on_c, 9, 51, 82
11, 178560, Note_off_c, 9, 51, 102
11, 178585, Note_off_c, 9, 51, 82
11, 178680, Note_on_c, 9, 51, 93
11, 178705, Note_off_c, 9, 51, 93
11, 178800, Note_on_c, 9, 51, 102
11, 178825, Note_off_c, 9, 51, 102
11, 178920, Note_on_c, 9, 51, 102
11, 178945, Note_off_c, 9, 51, 102
11, 179040, Note_on_c, 9, 51, 91
11, 179065, Note_off_c, 9, 51, 91
11, 179160, Note_on_c, 9, 51, 100
11, 179185, Note_off_c, 9, 51, 100
11, 179220, Note_on_c, 9, 51, 105
11, 179245, Note_off_c, 9, 51, 105
11, 179280, Note_on_c, 9, 51, 64
11, 179305, Note_off_c, 9, 51, 64
11, 179400, Note_on_c, 9, 51, 70
11, 179425, Note_off_c, 9, 51, 70
11, 179520, Note_on_c, 9, 51, 93
11, 179545, Note_off_c, 9, 51, 93
11, 179640, Note_on_c, 9, 51, 100
11, 179640, Note_on_c, 9, 40, 127
11, 179660, Note_off_c, 9, 40, 127
11, 179665, Note_off_c, 9, 51, 100
11, 179760, Note_on_c, 9, 51, 102
11, 179785, Note_off_c, 9, 51, 102
11, 179880, Note_on_c, 9, 51, 105
11, 179905, Note_off_c, 9, 51, 105
11, 180000, Note_on_c, 9, 51, 98
11, 180025, Note_off_c, 9, 51, 98
11, 180120, Note_on_c, 9, 51, 102
11, 180120, Note_on_c, 9, 40, 127
11, 180140, Note_off_c, 9, 40, 127
11, 180145, Note_off_c, 9, 51, 102
11, 180240, Note_on_c, 9, 51, 100
11, 180265, Note_off_c, 9, 51, 100
11, 180360, Note_on_c, 9, 51, 105
11, 180385, Note_off_c, 9, 51, 105
11, 180425, Note_on_c, 9, 51, 102
11, 180480, Note_on_c, 9, 49, 90
11, 180480, Note_off_c, 9, 51, 102
11, 180505, Note_off_c, 9, 49, 90
11, 184320, End_track
12, 0, Start_track
12, 0, Key_signature, 0, "major"
12, 1, Control_c, 10, 99, 1
12, 1, Control_c, 10, 98, 8
12, 1, Control_c, 10, 6, 64
12, 2, Control_c, 10, 99, 1
12, 2, Control_c, 10, 98, 9
12, 2, Control_c, 10, 6, 64
12, 3, Control_c, 10, 99, 1
12, 3, Control_c, 10, 98, 10
12, 3, Control_c, 10, 6, 64
12, 4, Control_c, 10, 99, 1
12, 4, Control_c, 10, 98, 32
12, 4, Control_c, 10, 6, 64
12, 5, Control_c, 10, 99, 1
12, 5, Control_c, 10, 98, 33
12, 5, Control_c, 10, 6, 64
12, 6, Control_c, 10, 99, 1
12, 6, Control_c, 10, 98, 99
12, 6, Control_c, 10, 6, 64
12, 7, Control_c, 10, 99, 1
12, 7, Control_c, 10, 98, 100
12, 7, Control_c, 10, 6, 64
12, 8, Control_c, 10, 99, 1
12, 8, Control_c, 10, 98, 102
12, 8, Control_c, 10, 6, 64
12, 9, Control_c, 10, 0, 0
12, 10, Program_c, 10, 111
12, 11, Control_c, 10, 7, 100
12, 12, Control_c, 10, 10, 64
12, 13, Control_c, 10, 91, 105
12, 14, Control_c, 10, 93, 80
12, 15, Control_c, 10, 101, 0
12, 15, Control_c, 10, 100, 0
12, 15, Control_c, 10, 6, 2
12, 15, Title_t, "M #11"
12, 15, Channel_prefix, 10
12, 15, Instrument_name_t, "M #11"
12, 2370, Control_c, 10, 121, 0
12, 2655, Control_c, 10, 32, 0
12, 2665, Control_c, 10, 11, 127
12, 3130, Control_c, 10, 101, 0
12, 3135, Control_c, 10, 100, 0
12, 3140, Control_c, 10, 6, 12
12, 3145, Control_c, 10, 101, 127
12, 3150, Control_c, 10, 100, 127
12, 26880, Note_on_c, 10, 48, 113
12, 28800, Note_off_c, 10, 48, 113
12, 28800, Note_on_c, 10, 47, 105
12, 30720, Note_off_c, 10, 47, 105
12, 30720, Note_on_c, 10, 48, 107
12, 32640, Note_off_c, 10, 48, 107
12, 32640, Note_on_c, 10, 47, 100
12, 34560, Note_off_c, 10, 47, 100
12, 34560, Note_on_c, 10, 48, 102
12, 36480, Note_off_c, 10, 48, 102
12, 36480, Note_on_c, 10, 50, 95
12, 38400, Note_off_c, 10, 50, 95
12, 38400, Note_on_c, 10, 48, 113
12, 40320, Note_off_c, 10, 48, 113
12, 40320, Note_on_c, 10, 47, 105
12, 42240, Note_off_c, 10, 47, 105
12, 42240, Note_on_c, 10, 48, 107
12, 44160, Note_off_c, 10, 48, 107
12, 44160, Note_on_c, 10, 47, 100
12, 46080, Note_off_c, 10, 47, 100
12, 46080, Note_on_c, 10, 48, 102
12, 48000, Note_off_c, 10, 48, 102
12, 48000, Note_on_c, 10, 50, 95
12, 49920, Note_off_c, 10, 50, 95
12, 55680, Note_on_c, 10, 67, 85
12, 55680, Note_on_c, 10, 72, 87
12, 57600, Note_off_c, 10, 67, 85
12, 57600, Note_off_c, 10, 72, 87
12, 57600, Note_on_c, 10, 68, 63
12, 57600, Note_on_c, 10, 71, 80
12, 59520, Note_off_c, 10, 68, 63
12, 59520, Note_off_c, 10, 71, 80
12, 59520, Note_on_c, 10, 69, 70
12, 59520, Note_on_c, 10, 72, 80
12, 60480, Note_off_c, 10, 72, 80
12, 60480, Note_on_c, 10, 74, 87
12, 60960, Note_off_c, 10, 74, 87
12, 60960, Note_on_c, 10, 72, 82
12, 61440, Note_off_c, 10, 69, 70
12, 61440, Note_off_c, 10, 72, 82
12, 61440, Note_on_c, 10, 60, 107
12, 61440, Note_on_c, 10, 56, 105
12, 62380, Note_off_c, 10, 56, 105
12, 62400, Note_on_c, 10, 55, 102
12, 63360, Note_off_c, 10, 55, 102
12, 63360, Note_on_c, 10, 57, 102
12, 65280, Note_off_c, 10, 57, 102
12, 65280, Note_off_c, 10, 60, 107
12, 65280, Note_on_c, 10, 56, 105
12, 65280, Note_on_c, 10, 60, 107
12, 65305, Note_off_c, 10, 60, 107
12, 66240, Note_on_c, 10, 55, 102
12, 66255, Note_off_c, 10, 56, 105
12, 67200, Note_off_c, 10, 55, 102
12, 67200, Note_on_c, 10, 57, 102
12, 69120, Note_off_c, 10, 57, 102
12, 69120, Note_on_c, 10, 72, 87
12, 69120, Note_on_c, 10, 67, 85
12, 71040, Note_off_c, 10, 72, 87
12, 71040, Note_off_c, 10, 67, 85
12, 71040, Note_on_c, 10, 68, 63
12, 71040, Note_on_c, 10, 71, 80
12, 72960, Note_off_c, 10, 68, 63
12, 72960, Note_off_c, 10, 71, 80
12, 72960, Note_on_c, 10, 69, 70
12, 72960, Note_on_c, 10, 72, 80
12, 73920, Note_off_c, 10, 72, 80
12, 73920, Note_on_c, 10, 74, 87
12, 74400, Note_off_c, 10, 74, 87
12, 74400, Note_on_c, 10, 72, 82
12, 74880, Note_off_c, 10, 69, 70
12, 74880, Note_off_c, 10, 72, 82
12, 74880, Note_on_c, 10, 60, 107
12, 74880, Note_on_c, 10, 56, 105
12, 75840, Note_on_c, 10, 55, 102
12, 75855, Note_off_c, 10, 56, 105
12, 76800, Note_off_c, 10, 55, 102
12, 76800, Note_on_c, 10, 57, 102
12, 78720, Note_off_c, 10, 57, 102
12, 78720, Note_off_c, 10, 60, 107
12, 78720, Note_on_c, 10, 56, 105
12, 78720, Note_on_c, 10, 60, 107
12, 78745, Note_off_c, 10, 60, 107
12, 79680, Note_on_c, 10, 55, 102
12, 79695, Note_off_c, 10, 56, 105
12, 80640, Note_off_c, 10, 55, 102
12, 80640, Note_on_c, 10, 57, 102
12, 82560, Note_off_c, 10, 57, 102
12, 98210, Note_on_c, 10, 36, 81
12, 98250, Note_off_c, 10, 36, 81
12, 98250, Note_on_c, 10, 38, 82
12, 98295, Note_on_c, 10, 40, 84
12, 98300, Note_off_c, 10, 38, 82
12, 98345, Note_off_c, 10, 40, 84
12, 98355, Note_on_c, 10, 41, 87
12, 98410, Note_off_c, 10, 41, 87
12, 98430, Note_on_c, 10, 43, 89
12, 98465, Note_on_c, 10, 45, 92
12, 98490, Note_off_c, 10, 43, 89
12, 98520, Note_on_c, 10, 47, 94
12, 98520, Note_off_c, 10, 45, 92
12, 98575, Note_off_c, 10, 47, 94
12, 98580, Note_on_c, 10, 48, 96
12, 98610, Note_on_c, 10, 50, 98
12, 98620, Note_off_c, 10, 48, 96
12, 98655, Note_off_c, 10, 50, 98
12, 98670, Note_on_c, 10, 52, 99
12, 98700, Note_on_c, 10, 53, 101
12, 98715, Note_off_c, 10, 52, 99
12, 98745, Note_on_c, 10, 55, 103
12, 98745, Note_off_c, 10, 53, 101
12, 98785, Note_off_c, 10, 55, 103
12, 98790, Note_on_c, 10, 57, 104
12, 98840, Note_off_c, 10, 57, 104
12, 98850, Note_on_c, 10, 59, 106
12, 98880, Note_on_c, 10, 64, 104
12, 98900, Note_off_c, 10, 59, 106
12, 100800, Note_off_c, 10, 64, 104
12, 100800, Note_on_c, 10, 62, 97
12, 102720, Note_off_c, 10, 62, 97
12, 102720, Note_on_c, 10, 64, 89
12, 104640, Note_off_c, 10, 64, 89
12, 104640, Note_on_c, 10, 67, 82
12, 106560, Note_off_c, 10, 67, 82
12, 106560, Note_on_c, 10, 66, 74
12, 108480, Note_off_c, 10, 66, 74
12, 108480, Note_on_c, 10, 64, 67
12, 110400, Note_off_c, 10, 64, 67
12, 110400, Note_on_c, 10, 67, 85
12, 110400, Note_on_c, 10, 72, 87
12, 112320, Note_off_c, 10, 67, 85
12, 112320, Note_off_c, 10, 72, 87
12, 112320, Note_on_c, 10, 68, 63
12, 112320, Note_on_c, 10, 71, 80
12, 114240, Note_off_c, 10, 68, 63
12, 114240, Note_off_c, 10, 71, 80
12, 114240, Note_on_c, 10, 69, 70
12, 114240, Note_on_c, 10, 72, 80
12, 115200, Note_off_c, 10, 72, 80
12, 115200, Note_on_c, 10, 74, 87
12, 115680, Note_off_c, 10, 74, 87
12, 115680, Note_on_c, 10, 72, 82
12, 116160, Note_off_c, 10, 69, 70
12, 116160, Note_off_c, 10, 72, 82
12, 116160, Note_on_c, 10, 60, 107
12, 116160, Note_on_c, 10, 56, 105
12, 117120, Note_on_c, 10, 55, 102
12, 117135, Note_off_c, 10, 56, 105
12, 118080, Note_off_c, 10, 55, 102
12, 118080, Note_on_c, 10, 57, 102
12, 120000, Note_off_c, 10, 57, 102
12, 120000, Note_off_c, 10, 60, 107
12, 120000, Note_on_c, 10, 56, 105
12, 120000, Note_on_c, 10, 60, 107
12, 120025, Note_off_c, 10, 60, 107
12, 120960, Note_on_c, 10, 55, 102
12, 120975, Note_off_c, 10, 56, 105
12, 121920, Note_off_c, 10, 55, 102
12, 121920, Note_on_c, 10, 57, 102
12, 123840, Note_off_c, 10, 57, 102
12, 149090, Note_on_c, 10, 36, 81
12, 149130, Note_off_c, 10, 36, 81
12, 149130, Note_on_c, 10, 38, 82
12, 149175, Note_on_c, 10, 40, 84
12, 149180, Note_off_c, 10, 38, 82
12, 149225, Note_off_c, 10, 40, 84
12, 149235, Note_on_c, 10, 41, 87
12, 149290, Note_off_c, 10, 41, 87
12, 149310, Note_on_c, 10, 43, 89
12, 149345, Note_on_c, 10, 45, 92
12, 149370, Note_off_c, 10, 43, 89
12, 149400, Note_on_c, 10, 47, 94
12, 149400, Note_off_c, 10, 45, 92
12, 149455, Note_off_c, 10, 47, 94
12, 149460, Note_on_c, 10, 48, 96
12, 149490, Note_on_c, 10, 50, 98
12, 149500, Note_off_c, 10, 48, 96
12, 149535, Note_off_c, 10, 50, 98
12, 149550, Note_on_c, 10, 52, 99
12, 149580, Note_on_c, 10, 53, 101
12, 149595, Note_off_c, 10, 52, 99
12, 149625, Note_on_c, 10, 55, 103
12, 149625, Note_off_c, 10, 53, 101
12, 149665, Note_off_c, 10, 55, 103
12, 149670, Note_on_c, 10, 57, 104
12, 149720, Note_off_c, 10, 57, 104
12, 149730, Note_on_c, 10, 59, 106
12, 149760, Note_on_c, 10, 64, 104
12, 149780, Note_off_c, 10, 59, 106
12, 151680, Note_off_c, 10, 64, 104
12, 151680, Note_on_c, 10, 62, 97
12, 153600, Note_off_c, 10, 62, 97
12, 153600, Note_on_c, 10, 64, 89
12, 155520, Note_off_c, 10, 64, 89
12, 155520, Note_on_c, 10, 67, 82
12, 157440, Note_off_c, 10, 67, 82
12, 157440, Note_on_c, 10, 66, 74
12, 159360, Note_off_c, 10, 66, 74
12, 159360, Note_on_c, 10, 64, 67
12, 161280, Note_off_c, 10, 64, 67
12, 184320, End_track
13, 0, Start_track
13, 0, Key_signature, 0, "major"
13, 1, Control_c, 11, 99, 1
13, 1, Control_c, 11, 98, 8
13, 1, Control_c, 11, 6, 64
13, 2, Control_c, 11, 99, 1
13, 2, Control_c, 11, 98, 9
13, 2, Control_c, 11, 6, 64
13, 3, Control_c, 11, 99, 1
13, 3, Control_c, 11, 98, 10
13, 3, Control_c, 11, 6, 64
13, 4, Control_c, 11, 99, 1
13, 4, Control_c, 11, 98, 32
13, 4, Control_c, 11, 6, 64
13, 5, Control_c, 11, 99, 1
13, 5, Control_c, 11, 98, 33
13, 5, Control_c, 11, 6, 64
13, 6, Control_c, 11, 99, 1
13, 6, Control_c, 11, 98, 99
13, 6, Control_c, 11, 6, 64
13, 7, Control_c, 11, 99, 1
13, 7, Control_c, 11, 98, 100
13, 7, Control_c, 11, 6, 64
13, 8, Control_c, 11, 99, 1
13, 8, Control_c, 11, 98, 102
13, 8, Control_c, 11, 6, 64
13, 9, Control_c, 11, 0, 0
13, 10, Program_c, 11, 73
13, 11, Control_c, 11, 7, 100
13, 12, Control_c, 11, 10, 64
13, 13, Control_c, 11, 91, 115
13, 14, Control_c, 11, 93, 95
13, 15, Control_c, 11, 101, 0
13, 15, Control_c, 11, 100, 0
13, 15, Control_c, 11, 6, 2
13, 15, Title_t, "M #12"
13, 15, Channel_prefix, 11
13, 15, Instrument_name_t, "M #12"
13, 2375, Control_c, 11, 121, 0
13, 2680, Control_c, 11, 32, 0
13, 2690, Control_c, 11, 11, 127
13, 3155, Control_c, 11, 101, 0
13, 3160, Control_c, 11, 100, 0
13, 3165, Control_c, 11, 6, 12
13, 3170, Control_c, 11, 101, 127
13, 3175, Control_c, 11, 100, 127
13, 52800, Control_c, 11, 11, 83
13, 52800, Note_on_c, 11, 70, 95
13, 52920, Control_c, 11, 11, 85
13, 53040, Control_c, 11, 11, 87
13, 53160, Control_c, 11, 11, 89
13, 53280, Control_c, 11, 11, 91
13, 53400, Control_c, 11, 11, 94
13, 53520, Control_c, 11, 11, 96
13, 53640, Control_c, 11, 11, 98
13, 53760, Note_off_c, 11, 70, 95
13, 53760, Control_c, 11, 11, 98
13, 53760, Note_on_c, 11, 72, 100
13, 53880, Control_c, 11, 11, 100
13, 54000, Control_c, 11, 11, 102
13, 54120, Control_c, 11, 11, 104
13, 54240, Control_c, 11, 11, 106
13, 54360, Control_c, 11, 11, 108
13, 54480, Control_c, 11, 11, 110
13, 54600, Control_c, 11, 11, 112
13, 54720, Control_c, 11, 11, 114
13, 54840, Control_c, 11, 11, 116
13, 54960, Control_c, 11, 11, 119
13, 55080, Control_c, 11, 11, 121
13, 55200, Control_c, 11, 11, 123
13, 55320, Control_c, 11, 11, 127
13, 55595, Note_off_c, 11, 72, 100
13, 82560, Note_on_c, 11, 69, 87
13, 84480, Note_off_c, 11, 69, 87
13, 84480, Note_on_c, 11, 74, 80
13, 84540, Note_on_c, 11, 71, 79
13, 84555, Note_off_c, 11, 74, 80
13, 84610, Note_off_c, 11, 71, 79
13, 84620, Note_on_c, 11, 74, 78
13, 84680, Note_off_c, 11, 74, 78
13, 84680, Note_on_c, 11, 71, 76
13, 84745, Note_off_c, 11, 71, 76
13, 84760, Note_on_c, 11, 74, 75
13, 84820, Note_on_c, 11, 71, 74
13, 84835, Note_off_c, 11, 74, 75
13, 84890, Note_off_c, 11, 71, 74
13, 84900, Note_on_c, 11, 74, 72
13, 84980, Note_on_c, 11, 71, 71
13, 84985, Note_off_c, 11, 74, 72
13, 85050, Note_off_c, 11, 71, 71
13, 85060, Note_on_c, 11, 74, 69
13, 85140, Note_off_c, 11, 74, 69
13, 85140, Note_on_c, 11, 71, 68
13, 85205, Note_off_c, 11, 71, 68
13, 85220, Note_on_c, 11, 74, 66
13, 85300, Note_off_c, 11, 74, 66
13, 85300, Note_on_c, 11, 71, 65
13, 85360, Note_on_c, 11, 74, 64
13, 85370, Note_off_c, 11, 71, 65
13, 85435, Note_off_c, 11, 74, 64
13, 85440, Note_on_c, 11, 71, 62
13, 85505, Note_off_c, 11, 71, 62
13, 85520, Note_on_c, 11, 74, 61
13, 85580, Note_on_c, 11, 71, 59
13, 85595, Note_off_c, 11, 74, 61
13, 85655, Note_off_c, 11, 71, 59
13, 85660, Note_on_c, 11, 74, 58
13, 85740, Note_off_c, 11, 74, 58
13, 85740, Note_on_c, 11, 71, 56
13, 85805, Note_off_c, 11, 71, 56
13, 85820, Note_on_c, 11, 74, 55
13, 85880, Note_on_c, 11, 71, 54
13, 85900, Note_off_c, 11, 74, 55
13, 85945, Note_off_c, 11, 71, 54
13, 85960, Note_on_c, 11, 74, 52
13, 86040, Note_on_c, 11, 71, 51
13, 86050, Note_off_c, 11, 74, 52
13, 86110, Note_off_c, 11, 71, 51
13, 86120, Note_on_c, 11, 74, 49
13, 86180, Note_on_c, 11, 71, 48
13, 86205, Note_off_c, 11, 74, 49
13, 86260, Note_on_c, 11, 74, 47
13, 86275, Note_off_c, 11, 71, 48
13, 86400, Note_off_c, 11, 74, 47
13, 86400, Note_on_c, 11, 64, 66
13, 87600, Note_off_c, 11, 64, 66
13, 87600, Note_on_c, 11, 65, 68
13, 87840, Note_off_c, 11, 65, 68
13, 87840, Note_on_c, 11, 67, 68
13, 88080, Note_off_c, 11, 67, 68
13, 88080, Note_on_c, 11, 69, 68
13, 88320, Note_off_c, 11, 69, 68
13, 88320, Note_on_c, 11, 71, 68
13, 90240, Note_off_c, 11, 71, 68
13, 90240, Note_on_c, 11, 70, 100
13, 91200, Note_off_c, 11, 70, 100
13, 91200, Note_on_c, 11, 64, 102
13, 92160, Note_off_c, 11, 64, 102
13, 92160, Note_on_c, 11, 62, 95
13, 93120, Note_off_c, 11, 62, 95
13, 93120, Note_on_c, 11, 60, 85
13, 94975, Note_off_c, 11, 60, 85
13, 133440, Note_on_c, 11, 69, 87
13, 135360, Note_off_c, 11, 69, 87
13, 135360, Note_on_c, 11, 74, 80
13, 135420, Note_on_c, 11, 71, 79
13, 135435, Note_off_c, 11, 74, 80
13, 135490, Note_off_c, 11, 71, 79
13, 135500, Note_on_c, 11, 74, 78
13, 135560, Note_off_c, 11, 74, 78
13, 135560, Note_on_c, 11, 71, 76
13, 135625, Note_off_c, 11, 71, 76
13, 135640, Note_on_c, 11, 74, 75
13, 135700, Note_on_c, 11, 71, 74
13, 135715, Note_off_c, 11, 74, 75
13, 135770, Note_off_c, 11, 71, 74
13, 135780, Note_on_c, 11, 74, 72
13, 135860, Note_on_c, 11, 71, 71
13, 135865, Note_off_c, 11, 74, 72
13, 135930, Note_off_c, 11, 71, 71
13, 135940, Note_on_c, 11, 74, 69
13, 136020, Note_off_c, 11, 74, 69
13, 136020, Note_on_c, 11, 71, 68
13, 136085, Note_off_c, 11, 71, 68
13, 136100, Note_on_c, 11, 74, 66
13, 136180, Note_off_c, 11, 74, 66
13, 136180, Note_on_c, 11, 71, 65
13, 136240, Note_on_c, 11, 74, 64
13, 136250, Note_off_c, 11, 71, 65
13, 136315, Note_off_c, 11, 74, 64
13, 136320, Note_on_c, 11, 71, 62
13, 136385, Note_off_c, 11, 71, 62
13, 136400, Note_on_c, 11, 74, 61
13, 136460, Note_on_c, 11, 71, 59
13, 136475, Note_off_c, 11, 74, 61
13, 136535, Note_off_c, 11, 71, 59
13, 136540, Note_on_c, 11, 74, 58
13, 136620, Note_off_c, 11, 74, 58
13, 136620, Note_on_c, 11, 71, 56
13, 136685, Note_off_c, 11, 71, 56
13, 136700, Note_on_c, 11, 74, 55
13, 136760, Note_on_c, 11, 71, 54
13, 136780, Note_off_c, 11, 74, 55
13, 136825, Note_off_c, 11, 71, 54
13, 136840, Note_on_c, 11, 74, 52
13, 136920, Note_on_c, 11, 71, 51
13, 136930, Note_off_c, 11, 74, 52
13, 136990, Note_off_c, 11, 71, 51
13, 137000, Note_on_c, 11, 74, 49
13, 137060, Note_on_c, 11, 71, 48
13, 137085, Note_off_c, 11, 74, 49
13, 137140, Note_on_c, 11, 74, 47
13, 137155, Note_off_c, 11, 71, 48
13, 137280, Note_off_c, 11, 74, 47
13, 137280, Note_on_c, 11, 64, 66
13, 138480, Note_off_c, 11, 64, 66
13, 138480, Note_on_c, 11, 65, 68
13, 138720, Note_off_c, 11, 65, 68
13, 138720, Note_on_c, 11, 67, 68
13, 138960, Note_off_c, 11, 67, 68
13, 138960, Note_on_c, 11, 69, 68
13, 139200, Note_off_c, 11, 69, 68
13, 139200, Note_on_c, 11, 71, 68
13, 141120, Note_off_c, 11, 71, 68
13, 141120, Note_on_c, 11, 70, 100
13, 142080, Note_off_c, 11, 70, 100
13, 142080, Note_on_c, 11, 64, 102
13, 143040, Note_off_c, 11, 64, 102
13, 143040, Note_on_c, 11, 62, 95
13, 144000, Note_off_c, 11, 62, 95
13, 144000, Note_on_c, 11, 60, 85
13, 145855, Note_off_c, 11, 60, 85
13, 161280, Note_on_c, 11, 69, 87
13, 163200, Note_off_c, 11, 69, 87
13, 163200, Note_on_c, 11, 74, 80
13, 163260, Note_on_c, 11, 71, 79
13, 163275, Note_off_c, 11, 74, 80
13, 163330, Note_off_c, 11, 71, 79
13, 163340, Note_on_c, 11, 74, 78
13, 163400, Note_off_c, 11, 74, 78
13, 163400, Note_on_c, 11, 71, 76
13, 163465, Note_off_c, 11, 71, 76
13, 163480, Note_on_c, 11, 74, 75
13, 163540, Note_on_c, 11, 71, 74
13, 163555, Note_off_c, 11, 74, 75
13, 163610, Note_off_c, 11, 71, 74
13, 163620, Note_on_c, 11, 74, 72
13, 163700, Note_on_c, 11, 71, 71
13, 163705, Note_off_c, 11, 74, 72
13, 163770, Note_off_c, 11, 71, 71
13, 163780, Note_on_c, 11, 74, 69
13, 163860, Note_off_c, 11, 74, 69
13, 163860, Note_on_c, 11, 71, 68
13, 163925, Note_off_c, 11, 71, 68
13, 163940, Note_on_c, 11, 74, 66
13, 164020, Note_off_c, 11, 74, 66
13, 164020, Note_on_c, 11, 71, 65
13, 164080, Note_on_c, 11, 74, 64
13, 164090, Note_off_c, 11, 71, 65
13, 164155, Note_off_c, 11, 74, 64
13, 164160, Note_on_c, 11, 71, 62
13, 164225, Note_off_c, 11, 71, 62
13, 164240, Note_on_c, 11, 74, 61
13, 164300, Note_on_c, 11, 71, 59
13, 164315, Note_off_c, 11, 74, 61
13, 164375, Note_off_c, 11, 71, 59
13, 164380, Note_on_c, 11, 74, 58
13, 164460, Note_off_c, 11, 74, 58
13, 164460, Note_on_c, 11, 71, 56
13, 164525, Note_off_c, 11, 71, 56
13, 164540, Note_on_c, 11, 74, 55
13, 164600, Note_on_c, 11, 71, 54
13, 164620, Note_off_c, 11, 74, 55
13, 164665, Note_off_c, 11, 71, 54
13, 164680, Note_on_c, 11, 74, 52
13, 164760, Note_on_c, 11, 71, 51
13, 164770, Note_off_c, 11, 74, 52
13, 164830, Note_off_c, 11, 71, 51
13, 164840, Note_on_c, 11, 74, 49
13, 164900, Note_on_c, 11, 71, 48
13, 164925, Note_off_c, 11, 74, 49
13, 164980, Note_on_c, 11, 74, 47
13, 164995, Note_off_c, 11, 71, 48
13, 165120, Note_off_c, 11, 74, 47
13, 165120, Note_on_c, 11, 64, 66
13, 166320, Note_off_c, 11, 64, 66
13, 166320, Note_on_c, 11, 65, 68
13, 166560, Note_off_c, 11, 65, 68
13, 166560, Note_on_c, 11, 67, 68
13, 166800, Note_off_c, 11, 67, 68
13, 166800, Note_on_c, 11, 69, 68
13, 167040, Note_off_c, 11, 69, 68
13, 167040, Note_on_c, 11, 71, 68
13, 168960, Note_off_c, 11, 71, 68
13, 168960, Note_on_c, 11, 69, 87
13, 170880, Note_off_c, 11, 69, 87
13, 170880, Note_on_c, 11, 74, 80
13, 170940, Note_on_c, 11, 71, 79
13, 170955, Note_off_c, 11, 74, 80
13, 171010, Note_off_c, 11, 71, 79
13, 171020, Note_on_c, 11, 74, 78
13, 171080, Note_off_c, 11, 74, 78
13, 171080, Note_on_c, 11, 71, 76
13, 171145, Note_off_c, 11, 71, 76
13, 171160, Note_on_c, 11, 74, 75
13, 171220, Note_on_c, 11, 71, 74
13, 171235, Note_off_c, 11, 74, 75
13, 171290, Note_off_c, 11, 71, 74
13, 171300, Note_on_c, 11, 74, 72
13, 171380, Note_on_c, 11, 71, 71
13, 171385, Note_off_c, 11, 74, 72
13, 171450, Note_off_c, 11, 71, 71
13, 171460, Note_on_c, 11, 74, 69
13, 171540, Note_off_c, 11, 74, 69
13, 171540, Note_on_c, 11, 71, 68
13, 171605, Note_off_c, 11, 71, 68
13, 171620, Note_on_c, 11, 74, 66
13, 171700, Note_off_c, 11, 74, 66
13, 171700, Note_on_c, 11, 71, 65
13, 171760, Note_on_c, 11, 74, 64
13, 171770, Note_off_c, 11, 71, 65
13, 171835, Note_off_c, 11, 74, 64
13, 171840, Note_on_c, 11, 71, 62
13, 171905, Note_off_c, 11, 71, 62
13, 171920, Note_on_c, 11, 74, 61
13, 171980, Note_on_c, 11, 71, 59
13, 171995, Note_off_c, 11, 74, 61
13, 172055, Note_off_c, 11, 71, 59
13, 172060, Note_on_c, 11, 74, 58
13, 172140, Note_off_c, 11, 74, 58
13, 172140, Note_on_c, 11, 71, 56
13, 172205, Note_off_c, 11, 71, 56
13, 172220, Note_on_c, 11, 74, 55
13, 172280, Note_on_c, 11, 71, 54
13, 172300, Note_off_c, 11, 74, 55
13, 172345, Note_off_c, 11, 71, 54
13, 172360, Note_on_c, 11, 74, 52
13, 172440, Note_on_c, 11, 71, 51
13, 172450, Note_off_c, 11, 74, 52
13, 172510, Note_off_c, 11, 71, 51
13, 172520, Note_on_c, 11, 74, 49
13, 172580, Note_on_c, 11, 71, 48
13, 172605, Note_off_c, 11, 74, 49
13, 172660, Note_on_c, 11, 74, 47
13, 172675, Note_off_c, 11, 71, 48
13, 172800, Note_off_c, 11, 74, 47
13, 172800, Note_on_c, 11, 64, 66
13, 174000, Note_off_c, 11, 64, 66
13, 174000, Note_on_c, 11, 65, 68
13, 174240, Note_off_c, 11, 65, 68
13, 174240, Note_on_c, 11, 67, 68
13, 174480, Note_off_c, 11, 67, 68
13, 174480, Note_on_c, 11, 69, 68
13, 174720, Note_off_c, 11, 69, 68
13, 174720, Note_on_c, 11, 71, 68
13, 176640, Note_off_c, 11, 71, 68
13, 184320, End_track
14, 0, Start_track
14, 0, Key_signature, 0, "major"
14, 1, Control_c, 12, 99, 1
14, 1, Control_c, 12, 98, 8
14, 1, Control_c, 12, 6, 64
14, 2, Control_c, 12, 99, 1
14, 2, Control_c, 12, 98, 9
14, 2, Control_c, 12, 6, 64
14, 3, Control_c, 12, 99, 1
14, 3, Control_c, 12, 98, 10
14, 3, Control_c, 12, 6, 64
14, 4, Control_c, 12, 99, 1
14, 4, Control_c, 12, 98, 32
14, 4, Control_c, 12, 6, 64
14, 5, Control_c, 12, 99, 1
14, 5, Control_c, 12, 98, 33
14, 5, Control_c, 12, 6, 64
14, 6, Control_c, 12, 99, 1
14, 6, Control_c, 12, 98, 99
14, 6, Control_c, 12, 6, 64
14, 7, Control_c, 12, 99, 1
14, 7, Control_c, 12, 98, 100
14, 7, Control_c, 12, 6, 64
14, 8, Control_c, 12, 99, 1
14, 8, Control_c, 12, 98, 102
14, 8, Control_c, 12, 6, 64
14, 9, Control_c, 12, 0, 0
14, 10, Program_c, 12, 0
14, 11, Control_c, 12, 101, 0
14, 11, Control_c, 12, 100, 0
14, 11, Control_c, 12, 6, 2
14, 11, Title_t, "M #13"
14, 11, Channel_prefix, 12
14, 11, Instrument_name_t, "M #13"
14, 2705, Control_c, 12, 32, 0
14, 184320, End_track
15, 0, Start_track
15, 0, Key_signature, 0, "major"
15, 1, Control_c, 13, 99, 1
15, 1, Control_c, 13, 98, 8
15, 1, Control_c, 13, 6, 64
15, 2, Control_c, 13, 99, 1
15, 2, Control_c, 13, 98, 9
15, 2, Control_c, 13, 6, 64
15, 3, Control_c, 13, 99, 1
15, 3, Control_c, 13, 98, 10
15, 3, Control_c, 13, 6, 64
15, 4, Control_c, 13, 99, 1
15, 4, Control_c, 13, 98, 32
15, 4, Control_c, 13, 6, 64
15, 5, Control_c, 13, 99, 1
15, 5, Control_c, 13, 98, 33
15, 5, Control_c, 13, 6, 64
15, 6, Control_c, 13, 99, 1
15, 6, Control_c, 13, 98, 99
15, 6, Control_c, 13, 6, 64
15, 7, Control_c, 13, 99, 1
15, 7, Control_c, 13, 98, 100
15, 7, Control_c, 13, 6, 64
15, 8, Control_c, 13, 99, 1
15, 8, Control_c, 13, 98, 102
15, 8, Control_c, 13, 6, 64
15, 9, Control_c, 13, 0, 0
15, 10, Program_c, 13, 0
15, 11, Control_c, 13, 101, 0
15, 11, Control_c, 13, 100, 0
15, 11, Control_c, 13, 6, 2
15, 11, Title_t, "M #14"
15, 11, Channel_prefix, 13
15, 11, Instrument_name_t, "M #14"
15, 2730, Control_c, 13, 32, 0
15, 184320, End_track
16, 0, Start_track
16, 0, Key_signature, 0, "major"
16, 1, Control_c, 14, 99, 1
16, 1, Control_c, 14, 98, 8
16, 1, Control_c, 14, 6, 64
16, 2, Control_c, 14, 99, 1
16, 2, Control_c, 14, 98, 9
16, 2, Control_c, 14, 6, 64
16, 3, Control_c, 14, 99, 1
16, 3, Control_c, 14, 98, 10
16, 3, Control_c, 14, 6, 64
16, 4, Control_c, 14, 99, 1
16, 4, Control_c, 14, 98, 32
16, 4, Control_c, 14, 6, 64
16, 5, Control_c, 14, 99, 1
16, 5, Control_c, 14, 98, 33
16, 5, Control_c, 14, 6, 64
16, 6, Control_c, 14, 99, 1
16, 6, Control_c, 14, 98, 99
16, 6, Control_c, 14, 6, 64
16, 7, Control_c, 14, 99, 1
16, 7, Control_c, 14, 98, 100
16, 7, Control_c, 14, 6, 64
16, 8, Control_c, 14, 99, 1
16, 8, Control_c, 14, 98, 102
16, 8, Control_c, 14, 6, 64
16, 9, Control_c, 14, 0, 0
16, 10, Program_c, 14, 53
16, 11, Control_c, 14, 7, 85
16, 12, Control_c, 14, 10, 64
16, 13, Control_c, 14, 91, 60
16, 14, Control_c, 14, 93, 0
16, 15, Control_c, 14, 101, 0
16, 15, Control_c, 14, 100, 0
16, 15, Control_c, 14, 6, 2
16, 15, Title_t, "M #15"
16, 15, Channel_prefix, 14
16, 15, Instrument_name_t, "M #15"
16, 2390, Control_c, 14, 121, 0
16, 2755, Control_c, 14, 32, 0
16, 2765, Control_c, 14, 11, 127
16, 3230, Control_c, 14, 101, 0
16, 3235, Control_c, 14, 100, 0
16, 3240, Control_c, 14, 6, 12
16, 3245, Control_c, 14, 101, 127
16, 3250, Control_c, 14, 100, 127
16, 31200, Note_on_c, 14, 72, 127
16, 31380, Note_off_c, 14, 72, 127
16, 31440, Note_on_c, 14, 72, 127
16, 31520, Note_off_c, 14, 72, 127
16, 31560, Note_on_c, 14, 72, 127
16, 31960, Note_off_c, 14, 72, 127
16, 32040, Note_on_c, 14, 72, 127
16, 32160, Note_off_c, 14, 72, 127
16, 32160, Note_on_c, 14, 74, 127
16, 32400, Note_off_c, 14, 74, 127
16, 32400, Note_on_c, 14, 72, 127
16, 32635, Note_off_c, 14, 72, 127
16, 32640, Note_on_c, 14, 71, 127
16, 34305, Note_off_c, 14, 71, 127
16, 35040, Note_on_c, 14, 72, 127
16, 35280, Note_on_c, 14, 74, 127
16, 35290, Note_off_c, 14, 72, 127
16, 35520, Note_off_c, 14, 74, 127
16, 35520, Note_on_c, 14, 72, 127
16, 35760, Note_on_c, 14, 74, 127
16, 35770, Note_off_c, 14, 72, 127
16, 36000, Note_on_c, 14, 72, 127
16, 36005, Note_off_c, 14, 74, 127
16, 36240, Note_on_c, 14, 74, 127
16, 36245, Note_off_c, 14, 72, 127
16, 36480, Note_off_c, 14, 74, 127
16, 36480, Note_on_c, 14, 72, 127
16, 36720, Note_off_c, 14, 72, 127
16, 36720, Note_on_c, 14, 74, 127
16, 36900, Note_off_c, 14, 74, 127
16, 36960, Note_on_c, 14, 74, 127
16, 37165, Note_off_c, 14, 74, 127
16, 37200, Note_on_c, 14, 74, 127
16, 37280, Note_off_c, 14, 74, 127
16, 37320, Note_on_c, 14, 74, 127
16, 38335, Note_off_c, 14, 74, 127
16, 38400, Note_on_c, 14, 48, 127
16, 38605, Note_off_c, 14, 48, 127
16, 39360, Note_on_c, 14, 48, 127
16, 39535, Note_off_c, 14, 48, 127
16, 40320, Note_on_c, 14, 47, 127
16, 40535, Note_off_c, 14, 47, 127
16, 41280, Note_on_c, 14, 47, 127
16, 41455, Note_off_c, 14, 47, 127
16, 42240, Note_on_c, 14, 48, 127
16, 42385, Note_off_c, 14, 48, 127
16, 43200, Note_on_c, 14, 48, 127
16, 43385, Note_off_c, 14, 48, 127
16, 44160, Note_on_c, 14, 47, 127
16, 44335, Note_off_c, 14, 47, 127
16, 45120, Note_on_c, 14, 47, 127
16, 45300, Note_off_c, 14, 47, 127
16, 46080, Note_on_c, 14, 48, 127
16, 46245, Note_off_c, 14, 48, 127
16, 47040, Note_on_c, 14, 48, 127
16, 47195, Note_off_c, 14, 48, 127
16, 48120, Note_on_c, 14, 48, 127
16, 48265, Note_off_c, 14, 48, 127
16, 48360, Note_on_c, 14, 48, 127
16, 48500, Note_off_c, 14, 48, 127
16, 55680, Note_on_c, 14, 64, 127
16, 55740, Note_off_c, 14, 64, 127
16, 55800, Note_on_c, 14, 64, 127
16, 56160, Note_off_c, 14, 64, 127
16, 56160, Note_on_c, 14, 67, 127
16, 56395, Note_off_c, 14, 67, 127
16, 56400, Note_on_c, 14, 69, 127
16, 56520, Note_off_c, 14, 69, 127
16, 56520, Note_on_c, 14, 72, 127
16, 56880, Note_off_c, 14, 72, 127
16, 56880, Note_on_c, 14, 71, 127
16, 57120, Note_off_c, 14, 71, 127
16, 57120, Note_on_c, 14, 69, 127
16, 57360, Note_on_c, 14, 67, 127
16, 57370, Note_off_c, 14, 69, 127
16, 57600, Note_off_c, 14, 67, 127
16, 57600, Note_on_c, 14, 68, 127
16, 58150, Note_off_c, 14, 68, 127
16, 58320, Note_on_c, 14, 68, 127
16, 58520, Note_off_c, 14, 68, 127
16, 58560, Note_on_c, 14, 71, 127
16, 58740, Note_off_c, 14, 71, 127
16, 58800, Note_on_c, 14, 69, 127
16, 59040, Note_off_c, 14, 69, 127
16, 59040, Note_on_c, 14, 68, 127
16, 59270, Note_off_c, 14, 68, 127
16, 59280, Note_on_c, 14, 64, 127
16, 59520, Note_off_c, 14, 64, 127
16, 59520, Note_on_c, 14, 69, 127
16, 59760, Note_off_c, 14, 69, 127
16, 59760, Note_on_c, 14, 71, 127
16, 59880, Note_off_c, 14, 71, 127
16, 59880, Note_on_c, 14, 69, 127
16, 60000, Note_off_c, 14, 69, 127
16, 60000, Note_on_c, 14, 65, 127
16, 60865, Note_off_c, 14, 65, 127
16, 60960, Note_on_c, 14, 65, 127
16, 61200, Note_off_c, 14, 65, 127
16, 61200, Note_on_c, 14, 67, 127
16, 61440, Note_off_c, 14, 67, 127
16, 61440, Note_on_c, 14, 68, 127
16, 61780, Note_off_c, 14, 68, 127
16, 61800, Note_on_c, 14, 68, 127
16, 61920, Note_off_c, 14, 68, 127
16, 61920, Note_on_c, 14, 68, 127
16, 62145, Note_off_c, 14, 68, 127
16, 62160, Note_on_c, 14, 70, 127
16, 62400, Note_off_c, 14, 70, 127
16, 62400, Note_on_c, 14, 67, 127
16, 62520, Note_on_c, 14, 69, 127
16, 62530, Note_off_c, 14, 67, 127
16, 62640, Note_off_c, 14, 69, 127
16, 62640, Note_on_c, 14, 67, 127
16, 63105, Note_off_c, 14, 67, 127
16, 63120, Note_on_c, 14, 69, 127
16, 63210, Note_off_c, 14, 69, 127
16, 63240, Note_on_c, 14, 69, 127
16, 63560, Note_off_c, 14, 69, 127
16, 63600, Note_on_c, 14, 69, 127
16, 64780, Note_off_c, 14, 69, 127
16, 64800, Note_on_c, 14, 65, 127
16, 65040, Note_off_c, 14, 65, 127
16, 65040, Note_on_c, 14, 67, 127
16, 65280, Note_off_c, 14, 67, 127
16, 65280, Note_on_c, 14, 68, 127
16, 65640, Note_off_c, 14, 68, 127
16, 65640, Note_on_c, 14, 68, 127
16, 65705, Note_off_c, 14, 68, 127
16, 65760, Note_on_c, 14, 68, 127
16, 65980, Note_off_c, 14, 68, 127
16, 66000, Note_on_c, 14, 70, 127
16, 66240, Note_off_c, 14, 70, 127
16, 66240, Note_on_c, 14, 67, 127
16, 66360, Note_off_c, 14, 67, 127
16, 66360, Note_on_c, 14, 69, 127
16, 66480, Note_off_c, 14, 69, 127
16, 66480, Note_on_c, 14, 67, 127
16, 66950, Note_off_c, 14, 67, 127
16, 66960, Note_on_c, 14, 69, 127
16, 67040, Note_off_c, 14, 69, 127
16, 67080, Note_on_c, 14, 69, 127
16, 67400, Note_off_c, 14, 69, 127
16, 67440, Note_on_c, 14, 69, 127
16, 69030, Note_off_c, 14, 69, 127
16, 74880, Note_on_c, 14, 68, 127
16, 75220, Note_off_c, 14, 68, 127
16, 75240, Note_on_c, 14, 68, 127
16, 75350, Note_off_c, 14, 68, 127
16, 75360, Note_on_c, 14, 68, 127
16, 75575, Note_off_c, 14, 68, 127
16, 75600, Note_on_c, 14, 70, 127
16, 75840, Note_off_c, 14, 70, 127
16, 75840, Note_on_c, 14, 67, 127
16, 75960, Note_off_c, 14, 67, 127
16, 75960, Note_on_c, 14, 69, 127
16, 76080, Note_on_c, 14, 67, 127
16, 76090, Note_off_c, 14, 69, 127
16, 76545, Note_off_c, 14, 67, 127
16, 76560, Note_on_c, 14, 69, 127
16, 76650, Note_off_c, 14, 69, 127
16, 76680, Note_on_c, 14, 69, 127
16, 77000, Note_off_c, 14, 69, 127
16, 77040, Note_on_c, 14, 69, 127
16, 78220, Note_off_c, 14, 69, 127
16, 78240, Note_on_c, 14, 65, 127
16, 78480, Note_off_c, 14, 65, 127
16, 78480, Note_on_c, 14, 67, 127
16, 78700, Note_off_c, 14, 67, 127
16, 78720, Note_on_c, 14, 68, 127
16, 79040, Note_off_c, 14, 68, 127
16, 79080, Note_on_c, 14, 68, 127
16, 79185, Note_off_c, 14, 68, 127
16, 79200, Note_on_c, 14, 68, 127
16, 79425, Note_off_c, 14, 68, 127
16, 79440, Note_on_c, 14, 70, 127
16, 79680, Note_off_c, 14, 70, 127
16, 79680, Note_on_c, 14, 67, 127
16, 79800, Note_on_c, 14, 69, 127
16, 79815, Note_off_c, 14, 67, 127
16, 79920, Note_off_c, 14, 69, 127
16, 79920, Note_on_c, 14, 67, 127
16, 80390, Note_off_c, 14, 67, 127
16, 80400, Note_on_c, 14, 69, 127
16, 80480, Note_off_c, 14, 69, 127
16, 80520, Note_on_c, 14, 69, 127
16, 80840, Note_off_c, 14, 69, 127
16, 81120, Note_on_c, 14, 69, 127
16, 82160, Note_off_c, 14, 69, 127
16, 82280, Note_on_c, 14, 69, 127
16, 82520, Note_off_c, 14, 69, 127
16, 82560, Note_on_c, 14, 72, 127
16, 83975, Note_off_c, 14, 72, 127
16, 84000, Note_on_c, 14, 71, 127
16, 84220, Note_off_c, 14, 71, 127
16, 84240, Note_on_c, 14, 69, 127
16, 84480, Note_off_c, 14, 69, 127
16, 84480, Note_on_c, 14, 67, 127
16, 84555, Note_off_c, 14, 67, 127
16, 84600, Note_on_c, 14, 67, 127
16, 84665, Note_off_c, 14, 67, 127
16, 84720, Note_on_c, 14, 67, 127
16, 84840, Note_off_c, 14, 67, 127
16, 84840, Note_on_c, 14, 69, 127
16, 84960, Note_off_c, 14, 69, 127
16, 84960, Note_on_c, 14, 67, 127
16, 85195, Note_off_c, 14, 67, 127
16, 85200, Note_on_c, 14, 64, 127
16, 86390, Note_off_c, 14, 64, 127
16, 86400, Note_on_c, 14, 72, 127
16, 87570, Note_off_c, 14, 72, 127
16, 87600, Note_on_c, 14, 72, 127
16, 87700, Note_off_c, 14, 72, 127
16, 87720, Note_on_c, 14, 71, 127
16, 88045, Note_off_c, 14, 71, 127
16, 88080, Note_on_c, 14, 69, 127
16, 88300, Note_off_c, 14, 69, 127
16, 88320, Note_on_c, 14, 67, 127
16, 90155, Note_off_c, 14, 67, 127
16, 90240, Note_on_c, 14, 70, 127
16, 90325, Note_off_c, 14, 70, 127
16, 90360, Note_on_c, 14, 70, 127
16, 90635, Note_off_c, 14, 70, 127
16, 90720, Note_on_c, 14, 70, 127
16, 90960, Note_off_c, 14, 70, 127
16, 90960, Note_on_c, 14, 72, 127
16, 91200, Note_off_c, 14, 72, 127
16, 91200, Note_on_c, 14, 69, 127
16, 91630, Note_off_c, 14, 69, 127
16, 91680, Note_on_c, 14, 69, 127
16, 91850, Note_off_c, 14, 69, 127
16, 91920, Note_on_c, 14, 69, 127
16, 92140, Note_off_c, 14, 69, 127
16, 92160, Note_on_c, 14, 67, 127
16, 92235, Note_off_c, 14, 67, 127
16, 92280, Note_on_c, 14, 67, 127
16, 92640, Note_on_c, 14, 69, 127
16, 92645, Note_off_c, 14, 67, 127
16, 92850, Note_off_c, 14, 69, 127
16, 92880, Note_on_c, 14, 67, 127
16, 93120, Note_off_c, 14, 67, 127
16, 93120, Note_on_c, 14, 65, 127
16, 94960, Note_off_c, 14, 65, 127
16, 110400, Note_on_c, 14, 64, 127
16, 110540, Note_off_c, 14, 64, 127
16, 110640, Note_on_c, 14, 64, 127
16, 110880, Note_off_c, 14, 64, 127
16, 110880, Note_on_c, 14, 67, 127
16, 111115, Note_off_c, 14, 67, 127
16, 111120, Note_on_c, 14, 69, 127
16, 111240, Note_off_c, 14, 69, 127
16, 111360, Note_on_c, 14, 72, 127
16, 111600, Note_off_c, 14, 72, 127
16, 111600, Note_on_c, 14, 71, 127
16, 111820, Note_off_c, 14, 71, 127
16, 111840, Note_on_c, 14, 69, 127
16, 112080, Note_off_c, 14, 69, 127
16, 112080, Note_on_c, 14, 67, 127
16, 112320, Note_off_c, 14, 67, 127
16, 112320, Note_on_c, 14, 68, 127
16, 113040, Note_off_c, 14, 68, 127
16, 113040, Note_on_c, 14, 68, 127
16, 113260, Note_off_c, 14, 68, 127
16, 113280, Note_on_c, 14, 71, 127
16, 113520, Note_on_c, 14, 69, 127
16, 113545, Note_off_c, 14, 71, 127
16, 113740, Note_off_c, 14, 69, 127
16, 113760, Note_on_c, 14, 68, 127
16, 113970, Note_off_c, 14, 68, 127
16, 114000, Note_on_c, 14, 64, 127
16, 114240, Note_off_c, 14, 64, 127
16, 114240, Note_on_c, 14, 69, 127
16, 114460, Note_off_c, 14, 69, 127
16, 114480, Note_on_c, 14, 71, 127
16, 114575, Note_off_c, 14, 71, 127
16, 114600, Note_on_c, 14, 69, 127
16, 114720, Note_off_c, 14, 69, 127
16, 114720, Note_on_c, 14, 65, 127
16, 115585, Note_off_c, 14, 65, 127
16, 115680, Note_on_c, 14, 65, 127
16, 115920, Note_off_c, 14, 65, 127
16, 115920, Note_on_c, 14, 67, 127
16, 116140, Note_off_c, 14, 67, 127
16, 116160, Note_on_c, 14, 68, 127
16, 116500, Note_off_c, 14, 68, 127
16, 116520, Note_on_c, 14, 68, 127
16, 116640, Note_off_c, 14, 68, 127
16, 116640, Note_on_c, 14, 68, 127
16, 116870, Note_off_c, 14, 68, 127
16, 116880, Note_on_c, 14, 70, 127
16, 117120, Note_off_c, 14, 70, 127
16, 117120, Note_on_c, 14, 67, 127
16, 117240, Note_off_c, 14, 67, 127
16, 117240, Note_on_c, 14, 69, 127
16, 117360, Note_on_c, 14, 67, 127
16, 117370, Note_off_c, 14, 69, 127
16, 117825, Note_off_c, 14, 67, 127
16, 117840, Note_on_c, 14, 69, 127
16, 117930, Note_off_c, 14, 69, 127
16, 117960, Note_on_c, 14, 69, 127
16, 118280, Note_off_c, 14, 69, 127
16, 118320, Note_on_c, 14, 69, 127
16, 119500, Note_off_c, 14, 69, 127
16, 133440, Note_on_c, 14, 72, 127
16, 134880, Note_off_c, 14, 72, 127
16, 134880, Note_on_c, 14, 71, 127
16, 135120, Note_on_c, 14, 69, 127
16, 135360, Note_off_c, 14, 69, 127
16, 135360, Note_on_c, 14, 67, 127
16, 135415, Note_off_c, 14, 67, 127
16, 135480, Note_on_c, 14, 67, 127
16, 135535, Note_off_c, 14, 67, 127
16, 135600, Note_on_c, 14, 67, 127
16, 135720, Note_on_c, 14, 69, 127
16, 135725, Note_off_c, 14, 67, 127
16, 135835, Note_off_c, 14, 69, 127
16, 135840, Note_on_c, 14, 67, 127
16, 136070, Note_off_c, 14, 67, 127
16, 136080, Note_on_c, 14, 64, 127
16, 137065, Note_off_c, 14, 64, 127
16, 137280, Note_on_c, 14, 72, 127
16, 138400, Note_off_c, 14, 72, 127
16, 138480, Note_on_c, 14, 72, 127
16, 138595, Note_off_c, 14, 72, 127
16, 138600, Note_off_c, 14, 71, 127
16, 138600, Note_on_c, 14, 71, 127
16, 138940, Note_off_c, 14, 71, 127
16, 138960, Note_on_c, 14, 69, 127
16, 139200, Note_off_c, 14, 69, 127
16, 139200, Note_on_c, 14, 67, 127
16, 140650, Note_off_c, 14, 67, 127
16, 141120, Note_on_c, 14, 70, 127
16, 141190, Note_off_c, 14, 70, 127
16, 141240, Note_on_c, 14, 70, 127
16, 141455, Note_off_c, 14, 70, 127
16, 141600, Note_on_c, 14, 70, 127
16, 141840, Note_off_c, 14, 70, 127
16, 141840, Note_on_c, 14, 72, 127
16, 142080, Note_off_c, 14, 72, 127
16, 142080, Note_on_c, 14, 69, 127
16, 142490, Note_off_c, 14, 69, 127
16, 142560, Note_on_c, 14, 69, 127
16, 142715, Note_off_c, 14, 69, 127
16, 142800, Note_on_c, 14, 69, 127
16, 143015, Note_off_c, 14, 69, 127
16, 143040, Note_on_c, 14, 67, 127
16, 143105, Note_off_c, 14, 67, 127
16, 143160, Note_on_c, 14, 67, 127
16, 143460, Note_off_c, 14, 67, 127
16, 143520, Note_on_c, 14, 69, 127
16, 143750, Note_off_c, 14, 69, 127
16, 143760, Note_on_c, 14, 67, 127
16, 143990, Note_off_c, 14, 67, 127
16, 144000, Note_on_c, 14, 65, 127
16, 145725, Note_off_c, 14, 65, 127
16, 184320, End_track
17, 0, Start_track
17, 0, Key_signature, 0, "major"
17, 1, Control_c, 15, 99, 1
17, 1, Control_c, 15, 98, 8
17, 1, Control_c, 15, 6, 64
17, 2, Control_c, 15, 99, 1
17, 2, Control_c, 15, 98, 9
17, 2, Control_c, 15, 6, 64
17, 3, Control_c, 15, 99, 1
17, 3, Control_c, 15, 98, 10
17, 3, Control_c, 15, 6, 64
17, 4, Control_c, 15, 99, 1
17, 4, Control_c, 15, 98, 32
17, 4, Control_c, 15, 6, 64
17, 5, Control_c, 15, 99, 1
17, 5, Control_c, 15, 98, 33
17, 5, Control_c, 15, 6, 64
17, 6, Control_c, 15, 99, 1
17, 6, Control_c, 15, 98, 99
17, 6, Control_c, 15, 6, 64
17, 7, Control_c, 15, 99, 1
17, 7, Control_c, 15, 98, 100
17, 7, Control_c, 15, 6, 64
17, 8, Control_c, 15, 99, 1
17, 8, Control_c, 15, 98, 102
17, 8, Control_c, 15, 6, 64
17, 9, Control_c, 15, 0, 0
17, 10, Program_c, 15, 53
17, 11, Control_c, 15, 7, 125
17, 12, Control_c, 15, 10, 64
17, 13, Control_c, 15, 91, 115
17, 14, Control_c, 15, 93, 115
17, 15, Control_c, 15, 101, 0
17, 15, Control_c, 15, 100, 0
17, 15, Control_c, 15, 6, 2
17, 15, Title_t, "M #16"
17, 15, Channel_prefix, 15
17, 15, Instrument_name_t, "M #16"
17, 2395, Control_c, 15, 121, 0
17, 2780, Control_c, 15, 32, 0
17, 2790, Control_c, 15, 11, 127
17, 3255, Control_c, 15, 101, 0
17, 3260, Control_c, 15, 100, 0
17, 3265, Control_c, 15, 6, 12
17, 3270, Control_c, 15, 101, 127
17, 3275, Control_c, 15, 100, 127
17, 27360, Note_on_c, 15, 60, 122
17, 27545, Note_off_c, 15, 60, 122
17, 27600, Note_on_c, 15, 60, 122
17, 27675, Note_off_c, 15, 60, 122
17, 27720, Note_on_c, 15, 60, 122
17, 28105, Note_off_c, 15, 60, 122
17, 28200, Note_on_c, 15, 60, 122
17, 28320, Note_off_c, 15, 60, 122
17, 28320, Note_on_c, 15, 62, 122
17, 28560, Note_off_c, 15, 62, 122
17, 28560, Note_on_c, 15, 60, 122
17, 28680, Note_on_c, 15, 59, 122
17, 28685, Note_off_c, 15, 60, 122
17, 30260, Note_off_c, 15, 59, 122
17, 31200, Note_on_c, 15, 60, 122
17, 31380, Note_off_c, 15, 60, 122
17, 31440, Note_on_c, 15, 60, 122
17, 31520, Note_off_c, 15, 60, 122
17, 31560, Note_on_c, 15, 60, 122
17, 31960, Note_off_c, 15, 60, 122
17, 32040, Note_on_c, 15, 60, 122
17, 32160, Note_off_c, 15, 60, 122
17, 32160, Note_on_c, 15, 62, 122
17, 32400, Note_off_c, 15, 62, 122
17, 32400, Note_on_c, 15, 60, 122
17, 32635, Note_off_c, 15, 60, 122
17, 32640, Note_on_c, 15, 59, 122
17, 34305, Note_off_c, 15, 59, 122
17, 35040, Note_on_c, 15, 60, 122
17, 35280, Note_on_c, 15, 62, 122
17, 35290, Note_off_c, 15, 60, 122
17, 35520, Note_off_c, 15, 62, 122
17, 35520, Note_on_c, 15, 60, 122
17, 35760, Note_on_c, 15, 62, 122
17, 35770, Note_off_c, 15, 60, 122
17, 36000, Note_on_c, 15, 60, 122
17, 36005, Note_off_c, 15, 62, 122
17, 36240, Note_on_c, 15, 62, 122
17, 36245, Note_off_c, 15, 60, 122
17, 36480, Note_off_c, 15, 62, 122
17, 36480, Note_on_c, 15, 60, 122
17, 36720, Note_off_c, 15, 60, 122
17, 36720, Note_on_c, 15, 62, 122
17, 36900, Note_off_c, 15, 62, 122
17, 36960, Note_on_c, 15, 62, 122
17, 37165, Note_off_c, 15, 62, 122
17, 37200, Note_on_c, 15, 62, 122
17, 37280, Note_off_c, 15, 62, 122
17, 37320, Note_on_c, 15, 62, 122
17, 38335, Note_off_c, 15, 62, 122
17, 38880, Note_on_c, 15, 60, 122
17, 39075, Note_off_c, 15, 60, 122
17, 39120, Note_on_c, 15, 60, 122
17, 39200, Note_off_c, 15, 60, 122
17, 39240, Note_on_c, 15, 60, 122
17, 39600, Note_off_c, 15, 60, 122
17, 39720, Note_on_c, 15, 60, 122
17, 39840, Note_off_c, 15, 60, 122
17, 39840, Note_on_c, 15, 62, 122
17, 40080, Note_off_c, 15, 62, 122
17, 40080, Note_on_c, 15, 60, 122
17, 40200, Note_on_c, 15, 59, 122
17, 40205, Note_off_c, 15, 60, 122
17, 42150, Note_off_c, 15, 59, 122
17, 42600, Note_on_c, 15, 60, 122
17, 42670, Note_off_c, 15, 60, 122
17, 42720, Note_on_c, 15, 60, 122
17, 42895, Note_off_c, 15, 60, 122
17, 42960, Note_on_c, 15, 60, 122
17, 43140, Note_off_c, 15, 60, 122
17, 43200, Note_on_c, 15, 60, 122
17, 43380, Note_off_c, 15, 60, 122
17, 43440, Note_on_c, 15, 60, 122
17, 43680, Note_off_c, 15, 60, 122
17, 43680, Note_on_c, 15, 62, 122
17, 43920, Note_off_c, 15, 62, 122
17, 43920, Note_on_c, 15, 60, 122
17, 44155, Note_off_c, 15, 60, 122
17, 44160, Note_on_c, 15, 59, 122
17, 46080, Note_off_c, 15, 59, 122
17, 46560, Note_on_c, 15, 60, 122
17, 46800, Note_off_c, 15, 60, 122
17, 46800, Note_on_c, 15, 62, 122
17, 47040, Note_off_c, 15, 62, 122
17, 47040, Note_on_c, 15, 60, 122
17, 47280, Note_on_c, 15, 62, 122
17, 47290, Note_off_c, 15, 60, 122
17, 47520, Note_on_c, 15, 60, 122
17, 47530, Note_off_c, 15, 62, 122
17, 47760, Note_off_c, 15, 60, 122
17, 47760, Note_on_c, 15, 62, 122
17, 48000, Note_off_c, 15, 62, 122
17, 48000, Note_on_c, 15, 60, 122
17, 48240, Note_off_c, 15, 60, 122
17, 48240, Note_on_c, 15, 62, 122
17, 48425, Note_off_c, 15, 62, 122
17, 48480, Note_on_c, 15, 62, 122
17, 48675, Note_off_c, 15, 62, 122
17, 48720, Note_on_c, 15, 62, 122
17, 48810, Note_off_c, 15, 62, 122
17, 48840, Note_on_c, 15, 62, 122
17, 49870, Note_off_c, 15, 62, 122
17, 55680, Note_on_c, 15, 67, 122
17, 55770, Note_off_c, 15, 67, 122
17, 55800, Note_on_c, 15, 67, 122
17, 56160, Note_off_c, 15, 67, 122
17, 56160, Note_on_c, 15, 72, 122
17, 56400, Note_off_c, 15, 72, 122
17, 56400, Note_on_c, 15, 74, 122
17, 56520, Note_on_c, 15, 77, 122
17, 56530, Note_off_c, 15, 74, 122
17, 56880, Note_off_c, 15, 77, 122
17, 56880, Note_on_c, 15, 76, 122
17, 57120, Note_off_c, 15, 76, 122
17, 57120, Note_on_c, 15, 74, 122
17, 57360, Note_off_c, 15, 74, 122
17, 57360, Note_on_c, 15, 72, 122
17, 57600, Note_off_c, 15, 72, 122
17, 57600, Note_on_c, 15, 71, 122
17, 58275, Note_off_c, 15, 71, 122
17, 58320, Note_on_c, 15, 71, 122
17, 58560, Note_off_c, 15, 71, 122
17, 58560, Note_on_c, 15, 76, 122
17, 58780, Note_off_c, 15, 76, 122
17, 58800, Note_on_c, 15, 74, 122
17, 59040, Note_off_c, 15, 74, 122
17, 59040, Note_on_c, 15, 72, 122
17, 59280, Note_off_c, 15, 72, 122
17, 59280, Note_on_c, 15, 71, 122
17, 59500, Note_off_c, 15, 71, 122
17, 59520, Note_on_c, 15, 72, 122
17, 59760, Note_off_c, 15, 72, 122
17, 59760, Note_on_c, 15, 74, 122
17, 59880, Note_off_c, 15, 74, 122
17, 59880, Note_on_c, 15, 72, 122
17, 60000, Note_off_c, 15, 72, 122
17, 60000, Note_on_c, 15, 69, 122
17, 60900, Note_off_c, 15, 69, 122
17, 60960, Note_on_c, 15, 69, 122
17, 61200, Note_off_c, 15, 69, 122
17, 61200, Note_on_c, 15, 71, 122
17, 61440, Note_off_c, 15, 71, 122
17, 61440, Note_on_c, 15, 72, 122
17, 61750, Note_off_c, 15, 72, 122
17, 61800, Note_on_c, 15, 72, 122
17, 61875, Note_off_c, 15, 72, 122
17, 61920, Note_on_c, 15, 72, 122
17, 62160, Note_on_c, 15, 74, 122
17, 62165, Note_off_c, 15, 72, 122
17, 62400, Note_off_c, 15, 74, 122
17, 62400, Note_on_c, 15, 72, 122
17, 62520, Note_off_c, 15, 72, 122
17, 62520, Note_on_c, 15, 74, 122
17, 62635, Note_off_c, 15, 74, 122
17, 62640, Note_on_c, 15, 72, 122
17, 63120, Note_off_c, 15, 72, 122
17, 63120, Note_on_c, 15, 74, 122
17, 63195, Note_off_c, 15, 74, 122
17, 63240, Note_on_c, 15, 74, 122
17, 63600, Note_off_c, 15, 74, 122
17, 63600, Note_on_c, 15, 72, 122
17, 64740, Note_off_c, 15, 72, 122
17, 64800, Note_on_c, 15, 69, 122
17, 65040, Note_on_c, 15, 71, 122
17, 65050, Note_off_c, 15, 69, 122
17, 65280, Note_off_c, 15, 71, 122
17, 65280, Note_on_c, 15, 72, 122
17, 65595, Note_off_c, 15, 72, 122
17, 65640, Note_on_c, 15, 72, 122
17, 65705, Note_off_c, 15, 72, 122
17, 65760, Note_on_c, 15, 72, 122
17, 66000, Note_off_c, 15, 72, 122
17, 66000, Note_on_c, 15, 74, 122
17, 66240, Note_off_c, 15, 74, 122
17, 66240, Note_on_c, 15, 72, 122
17, 66360, Note_on_c, 15, 74, 122
17, 66365, Note_off_c, 15, 72, 122
17, 66480, Note_off_c, 15, 74, 122
17, 66480, Note_on_c, 15, 72, 122
17, 66960, Note_off_c, 15, 72, 122
17, 66960, Note_on_c, 15, 74, 122
17, 67035, Note_off_c, 15, 74, 122
17, 67080, Note_on_c, 15, 74, 122
17, 67440, Note_off_c, 15, 74, 122
17, 67440, Note_on_c, 15, 72, 122
17, 69110, Note_off_c, 15, 72, 122
17, 69120, Note_on_c, 15, 67, 122
17, 69310, Note_off_c, 15, 67, 122
17, 69360, Note_on_c, 15, 67, 122
17, 69600, Note_off_c, 15, 67, 122
17, 69600, Note_on_c, 15, 72, 122
17, 69840, Note_off_c, 15, 72, 122
17, 69840, Note_on_c, 15, 74, 122
17, 70060, Note_off_c, 15, 74, 122
17, 70080, Note_on_c, 15, 77, 122
17, 70320, Note_off_c, 15, 77, 122
17, 70320, Note_on_c, 15, 76, 122
17, 70560, Note_off_c, 15, 76, 122
17, 70560, Note_on_c, 15, 74, 122
17, 70800, Note_off_c, 15, 74, 122
17, 70800, Note_on_c, 15, 72, 122
17, 71035, Note_off_c, 15, 72, 122
17, 71040, Note_on_c, 15, 71, 122
17, 71680, Note_off_c, 15, 71, 122
17, 71760, Note_on_c, 15, 71, 122
17, 72000, Note_off_c, 15, 71, 122
17, 72000, Note_on_c, 15, 76, 122
17, 72240, Note_on_c, 15, 74, 122
17, 72245, Note_off_c, 15, 76, 122
17, 72480, Note_off_c, 15, 74, 122
17, 72480, Note_on_c, 15, 72, 122
17, 72720, Note_off_c, 15, 72, 122
17, 72720, Note_on_c, 15, 71, 122
17, 72960, Note_off_c, 15, 71, 122
17, 72960, Note_on_c, 15, 72, 122
17, 73200, Note_on_c, 15, 74, 122
17, 73205, Note_off_c, 15, 72, 122
17, 73320, Note_on_c, 15, 72, 122
17, 73330, Note_off_c, 15, 74, 122
17, 73440, Note_off_c, 15, 72, 122
17, 73440, Note_on_c, 15, 69, 122
17, 74330, Note_off_c, 15, 69, 122
17, 74400, Note_on_c, 15, 69, 122
17, 74640, Note_off_c, 15, 69, 122
17, 74640, Note_on_c, 15, 71, 122
17, 74880, Note_off_c, 15, 71, 122
17, 74880, Note_on_c, 15, 72, 122
17, 75195, Note_off_c, 15, 72, 122
17, 75240, Note_on_c, 15, 72, 122
17, 75315, Note_off_c, 15, 72, 122
17, 75360, Note_on_c, 15, 72, 122
17, 75600, Note_off_c, 15, 72, 122
17, 75600, Note_on_c, 15, 74, 122
17, 75840, Note_off_c, 15, 74, 122
17, 75840, Note_on_c, 15, 72, 122
17, 75960, Note_on_c, 15, 74, 122
17, 75965, Note_off_c, 15, 72, 122
17, 76080, Note_off_c, 15, 74, 122
17, 76080, Note_on_c, 15, 72, 122
17, 76560, Note_off_c, 15, 72, 122
17, 76560, Note_on_c, 15, 74, 122
17, 76630, Note_off_c, 15, 74, 122
17, 76680, Note_on_c, 15, 74, 122
17, 77040, Note_off_c, 15, 74, 122
17, 77040, Note_on_c, 15, 72, 122
17, 78240, Note_off_c, 15, 72, 122
17, 78240, Note_on_c, 15, 69, 122
17, 78480, Note_off_c, 15, 69, 122
17, 78480, Note_on_c, 15, 71, 122
17, 78720, Note_off_c, 15, 71, 122
17, 78720, Note_on_c, 15, 72, 122
17, 79020, Note_off_c, 15, 72, 122
17, 79080, Note_on_c, 15, 72, 122
17, 79145, Note_off_c, 15, 72, 122
17, 79200, Note_on_c, 15, 72, 122
17, 79440, Note_off_c, 15, 72, 122
17, 79440, Note_on_c, 15, 74, 122
17, 79680, Note_off_c, 15, 74, 122
17, 79680, Note_on_c, 15, 72, 122
17, 79800, Note_off_c, 15, 72, 122
17, 79800, Note_on_c, 15, 74, 122
17, 79920, Note_off_c, 15, 74, 122
17, 79920, Note_on_c, 15, 72, 122
17, 80395, Note_off_c, 15, 72, 122
17, 80400, Note_on_c, 15, 74, 122
17, 80480, Note_off_c, 15, 74, 122
17, 80520, Note_on_c, 15, 74, 116
17, 81040, Note_off_c, 15, 74, 116
17, 81120, Note_on_c, 15, 72, 122
17, 82220, Note_off_c, 15, 72, 122
17, 82280, Note_on_c, 15, 72, 127
17, 82520, Note_off_c, 15, 72, 127
17, 82560, Note_on_c, 15, 76, 122
17, 83980, Note_off_c, 15, 76, 122
17, 84000, Note_on_c, 15, 74, 122
17, 84240, Note_off_c, 15, 74, 122
17, 84240, Note_on_c, 15, 72, 122
17, 84480, Note_off_c, 15, 72, 122
17, 84480, Note_on_c, 15, 71, 122
17, 84575, Note_off_c, 15, 71, 122
17, 84600, Note_on_c, 15, 71, 122
17, 84670, Note_off_c, 15, 71, 122
17, 84720, Note_on_c, 15, 71, 122
17, 84840, Note_off_c, 15, 71, 122
17, 84840, Note_on_c, 15, 72, 122
17, 84960, Note_off_c, 15, 72, 122
17, 84960, Note_on_c, 15, 71, 122
17, 85200, Note_off_c, 15, 71, 122
17, 85200, Note_on_c, 15, 67, 122
17, 86390, Note_off_c, 15, 67, 122
17, 86400, Note_on_c, 15, 76, 122
17, 87555, Note_off_c, 15, 76, 122
17, 87600, Note_on_c, 15, 76, 122
17, 87720, Note_off_c, 15, 76, 122
17, 87720, Note_on_c, 15, 74, 122
17, 88080, Note_off_c, 15, 74, 122
17, 88080, Note_on_c, 15, 72, 122
17, 88315, Note_off_c, 15, 72, 122
17, 88320, Note_on_c, 15, 71, 122
17, 90220, Note_off_c, 15, 71, 122
17, 90240, Note_on_c, 15, 74, 122
17, 90320, Note_off_c, 15, 74, 122
17, 90360, Note_on_c, 15, 74, 122
17, 90695, Note_off_c, 15, 74, 122
17, 90720, Note_on_c, 15, 74, 122
17, 90955, Note_off_c, 15, 74, 122
17, 90960, Note_on_c, 15, 76, 122
17, 91195, Note_off_c, 15, 76, 122
17, 91200, Note_on_c, 15, 72, 122
17, 91645, Note_off_c, 15, 72, 122
17, 91680, Note_on_c, 15, 72, 122
17, 91860, Note_off_c, 15, 72, 122
17, 91920, Note_on_c, 15, 72, 122
17, 92140, Note_off_c, 15, 72, 122
17, 92160, Note_on_c, 15, 71, 122
17, 92245, Note_off_c, 15, 71, 122
17, 92280, Note_on_c, 15, 71, 122
17, 92620, Note_off_c, 15, 71, 122
17, 92640, Note_on_c, 15, 72, 122
17, 92880, Note_off_c, 15, 72, 122
17, 92880, Note_on_c, 15, 71, 122
17, 93100, Note_off_c, 15, 71, 122
17, 93120, Note_on_c, 15, 69, 122
17, 95025, Note_off_c, 15, 69, 122
17, 110400, Note_on_c, 15, 67, 122
17, 110595, Note_off_c, 15, 67, 122
17, 110640, Note_on_c, 15, 67, 122
17, 110875, Note_off_c, 15, 67, 122
17, 110880, Note_on_c, 15, 72, 122
17, 111120, Note_off_c, 15, 72, 122
17, 111120, Note_on_c, 15, 74, 122
17, 111360, Note_off_c, 15, 74, 122
17, 111360, Note_on_c, 15, 77, 122
17, 111600, Note_off_c, 15, 77, 122
17, 111600, Note_on_c, 15, 76, 122
17, 111840, Note_off_c, 15, 76, 122
17, 111840, Note_on_c, 15, 74, 122
17, 112080, Note_off_c, 15, 74, 122
17, 112080, Note_on_c, 15, 72, 122
17, 112300, Note_off_c, 15, 72, 122
17, 112320, Note_on_c, 15, 71, 122
17, 112975, Note_off_c, 15, 71, 122
17, 113040, Note_on_c, 15, 71, 122
17, 113280, Note_off_c, 15, 71, 122
17, 113280, Note_on_c, 15, 76, 122
17, 113500, Note_off_c, 15, 76, 122
17, 113520, Note_on_c, 15, 74, 122
17, 113740, Note_off_c, 15, 74, 122
17, 113760, Note_on_c, 15, 72, 122
17, 114000, Note_off_c, 15, 72, 122
17, 114000, Note_on_c, 15, 71, 122
17, 114240, Note_off_c, 15, 71, 122
17, 114240, Note_on_c, 15, 72, 122
17, 114480, Note_off_c, 15, 72, 122
17, 114480, Note_on_c, 15, 74, 122
17, 114600, Note_off_c, 15, 74, 122
17, 114600, Note_on_c, 15, 72, 122
17, 114720, Note_on_c, 15, 69, 122
17, 114725, Note_off_c, 15, 72, 122
17, 115600, Note_off_c, 15, 69, 122
17, 115680, Note_on_c, 15, 69, 122
17, 115920, Note_off_c, 15, 69, 122
17, 115920, Note_on_c, 15, 71, 122
17, 116140, Note_off_c, 15, 71, 122
17, 116160, Note_on_c, 15, 72, 122
17, 116465, Note_off_c, 15, 72, 122
17, 116520, Note_on_c, 15, 72, 122
17, 116585, Note_off_c, 15, 72, 122
17, 116640, Note_on_c, 15, 72, 122
17, 116880, Note_off_c, 15, 72, 122
17, 116880, Note_on_c, 15, 74, 122
17, 117120, Note_off_c, 15, 74, 122
17, 117120, Note_on_c, 15, 72, 122
17, 117240, Note_off_c, 15, 72, 122
17, 117240, Note_on_c, 15, 74, 122
17, 117360, Note_on_c, 15, 72, 122
17, 117365, Note_off_c, 15, 74, 122
17, 117840, Note_on_c, 15, 74, 122
17, 117850, Note_off_c, 15, 72, 122
17, 117910, Note_off_c, 15, 74, 122
17, 117960, Note_on_c, 15, 74, 122
17, 118320, Note_off_c, 15, 74, 122
17, 118320, Note_on_c, 15, 72, 122
17, 119520, Note_off_c, 15, 72, 122
17, 119520, Note_on_c, 15, 69, 127
17, 119740, Note_off_c, 15, 69, 127
17, 119760, Note_on_c, 15, 71, 127
17, 119975, Note_off_c, 15, 71, 127
17, 120000, Note_on_c, 15, 72, 127
17, 120300, Note_off_c, 15, 72, 127
17, 120360, Note_on_c, 15, 72, 127
17, 120420, Note_off_c, 15, 72, 127
17, 120480, Note_on_c, 15, 72, 127
17, 120720, Note_on_c, 15, 74, 127
17, 120730, Note_off_c, 15, 72, 127
17, 120960, Note_off_c, 15, 74, 127
17, 120960, Note_on_c, 15, 72, 127
17, 121080, Note_on_c, 15, 74, 127
17, 121085, Note_off_c, 15, 72, 127
17, 121195, Note_off_c, 15, 74, 127
17, 121200, Note_on_c, 15, 72, 127
17, 121660, Note_off_c, 15, 72, 127
17, 121680, Note_on_c, 15, 74, 127
17, 121800, Note_off_c, 15, 74, 127
17, 121800, Note_on_c, 15, 77, 127
17, 122160, Note_off_c, 15, 77, 127
17, 122160, Note_on_c, 15, 75, 127
17, 122280, Note_off_c, 15, 75, 127
17, 122280, Note_on_c, 15, 74, 127
17, 122400, Note_off_c, 15, 74, 127
17, 122400, Note_on_c, 15, 72, 127
17, 123740, Note_off_c, 15, 72, 127
17, 123840, Note_on_c, 15, 74, 122
17, 124050, Note_off_c, 15, 74, 122
17, 124080, Note_on_c, 15, 74, 122
17, 124260, Note_off_c, 15, 74, 122
17, 124320, Note_on_c, 15, 74, 122
17, 124640, Note_off_c, 15, 74, 122
17, 124680, Note_on_c, 15, 74, 122
17, 124745, Note_off_c, 15, 74, 122
17, 124800, Note_on_c, 15, 74, 122
17, 124990, Note_off_c, 15, 74, 122
17, 125040, Note_on_c, 15, 74, 122
17, 125105, Note_off_c, 15, 74, 122
17, 125160, Note_on_c, 15, 74, 122
17, 125520, Note_off_c, 15, 74, 122
17, 125520, Note_on_c, 15, 76, 122
17, 125750, Note_off_c, 15, 76, 122
17, 125760, Note_on_c, 15, 74, 122
17, 126000, Note_on_c, 15, 72, 122
17, 126005, Note_off_c, 15, 74, 122
17, 126180, Note_off_c, 15, 72, 122
17, 126240, Note_on_c, 15, 72, 122
17, 126600, Note_on_c, 15, 69, 122
17, 126605, Note_off_c, 15, 72, 122
17, 126710, Note_off_c, 15, 69, 122
17, 126720, Note_on_c, 15, 72, 122
17, 126960, Note_off_c, 15, 72, 122
17, 126960, Note_on_c, 15, 74, 122
17, 127200, Note_on_c, 15, 76, 122
17, 127205, Note_off_c, 15, 74, 122
17, 127440, Note_off_c, 15, 76, 122
17, 127440, Note_on_c, 15, 74, 122
17, 127560, Note_on_c, 15, 72, 122
17, 127565, Note_off_c, 15, 74, 122
17, 127680, Note_off_c, 15, 72, 122
17, 127680, Note_on_c, 15, 74, 122
17, 127870, Note_off_c, 15, 74, 122
17, 127920, Note_on_c, 15, 74, 122
17, 128085, Note_off_c, 15, 74, 122
17, 128160, Note_on_c, 15, 74, 122
17, 128400, Note_off_c, 15, 74, 122
17, 128400, Note_on_c, 15, 76, 122
17, 128520, Note_off_c, 15, 76, 122
17, 128520, Note_on_c, 15, 74, 122
17, 129305, Note_off_c, 15, 74, 122
17, 129360, Note_on_c, 15, 74, 122
17, 129480, Note_on_c, 15, 71, 122
17, 129485, Note_off_c, 15, 74, 122
17, 129590, Note_off_c, 15, 71, 122
17, 129600, Note_on_c, 15, 74, 122
17, 129795, Note_off_c, 15, 74, 122
17, 129840, Note_on_c, 15, 74, 122
17, 130005, Note_off_c, 15, 74, 122
17, 130080, Note_on_c, 15, 74, 122
17, 130320, Note_off_c, 15, 74, 122
17, 130320, Note_on_c, 15, 76, 122
17, 130440, Note_off_c, 15, 76, 122
17, 130440, Note_on_c, 15, 74, 122
17, 131220, Note_off_c, 15, 74, 122
17, 131280, Note_on_c, 15, 74, 122
17, 131400, Note_off_c, 15, 74, 122
17, 131400, Note_on_c, 15, 71, 122
17, 131520, Note_off_c, 15, 71, 122
17, 131520, Note_on_c, 15, 74, 122
17, 131730, Note_off_c, 15, 74, 122
17, 131760, Note_on_c, 15, 74, 122
17, 131920, Note_off_c, 15, 74, 122
17, 132000, Note_on_c, 15, 74, 122
17, 132240, Note_off_c, 15, 74, 122
17, 132240, Note_on_c, 15, 76, 122
17, 132360, Note_off_c, 15, 76, 122
17, 132360, Note_on_c, 15, 74, 122
17, 133135, Note_off_c, 15, 74, 122
17, 133200, Note_on_c, 15, 74, 122
17, 133440, Note_off_c, 15, 74, 122
17, 133440, Note_on_c, 15, 76, 122
17, 134880, Note_off_c, 15, 76, 122
17, 134880, Note_on_c, 15, 74, 122
17, 135120, Note_off_c, 15, 74, 122
17, 135120, Note_on_c, 15, 72, 122
17, 135340, Note_off_c, 15, 72, 122
17, 135360, Note_on_c, 15, 71, 122
17, 135440, Note_off_c, 15, 71, 122
17, 135480, Note_on_c, 15, 71, 122
17, 135600, Note_off_c, 15, 71, 122
17, 135600, Note_on_c, 15, 71, 122
17, 135710, Note_off_c, 15, 71, 122
17, 135720, Note_on_c, 15, 72, 122
17, 135840, Note_off_c, 15, 72, 122
17, 135840, Note_on_c, 15, 71, 122
17, 136080, Note_off_c, 15, 71, 122
17, 136080, Note_on_c, 15, 67, 122
17, 137275, Note_off_c, 15, 67, 122
17, 137280, Note_on_c, 15, 76, 122
17, 138440, Note_off_c, 15, 76, 122
17, 138480, Note_on_c, 15, 76, 122
17, 138600, Note_on_c, 15, 74, 122
17, 138605, Note_off_c, 15, 76, 122
17, 138960, Note_on_c, 15, 72, 122
17, 138965, Note_off_c, 15, 74, 122
17, 139190, Note_off_c, 15, 72, 122
17, 139200, Note_on_c, 15, 71, 122
17, 141080, Note_off_c, 15, 71, 122
17, 141120, Note_on_c, 15, 74, 122
17, 141200, Note_off_c, 15, 74, 122
17, 141240, Note_on_c, 15, 74, 122
17, 141535, Note_off_c, 15, 74, 122
17, 141600, Note_on_c, 15, 74, 122
17, 141840, Note_off_c, 15, 74, 122
17, 141840, Note_on_c, 15, 76, 122
17, 142075, Note_off_c, 15, 76, 122
17, 142080, Note_on_c, 15, 72, 122
17, 142535, Note_off_c, 15, 72, 122
17, 142560, Note_on_c, 15, 72, 122
17, 142745, Note_off_c, 15, 72, 122
17, 142800, Note_on_c, 15, 72, 122
17, 143035, Note_off_c, 15, 72, 122
17, 143040, Note_on_c, 15, 71, 122
17, 143150, Note_off_c, 15, 71, 122
17, 143160, Note_on_c, 15, 71, 122
17, 143500, Note_off_c, 15, 71, 122
17, 143520, Note_on_c, 15, 72, 122
17, 143760, Note_off_c, 15, 72, 122
17, 143760, Note_on_c, 15, 71, 122
17, 143980, Note_off_c, 15, 71, 122
17, 144000, Note_on_c, 15, 69, 122
17, 145920, Note_off_c, 15, 69, 122
17, 184320, End_track
0, 0, End_of_file
