0, 0, Header, 1, 7, 960
1, 0, Start_track
1, 0, Control_c, 0, 101, 0
1, 0, Control_c, 0, 100, 0
1, 0, Control_c, 0, 6, 12
1, 0, Control_c, 0, 38, 0
1, 0, Control_c, 1, 101, 0
1, 0, Control_c, 1, 100, 0
1, 0, Control_c, 1, 6, 12
1, 0, Control_c, 1, 38, 0
1, 0, Control_c, 2, 101, 0
1, 0, Control_c, 2, 100, 0
1, 0, Control_c, 2, 6, 12
1, 0, Control_c, 2, 38, 0
1, 0, Control_c, 3, 101, 0
1, 0, Control_c, 3, 100, 0
1, 0, Control_c, 3, 6, 12
1, 0, Control_c, 3, 38, 0
1, 0, Control_c, 4, 101, 0
1, 0, Control_c, 4, 100, 0
1, 0, Control_c, 4, 6, 12
1, 0, Control_c, 4, 38, 0
1, 0, Control_c, 5, 101, 0
1, 0, Control_c, 5, 100, 0
1, 0, Control_c, 5, 6, 12
1, 0, Control_c, 5, 38, 0
1, 0, Control_c, 6, 101, 0
1, 0, Control_c, 6, 100, 0
1, 0, Control_c, 6, 6, 12
1, 0, Control_c, 6, 38, 0
1, 0, Control_c, 7, 101, 0
1, 0, Control_c, 7, 100, 0
1, 0, Control_c, 7, 6, 12
1, 0, Control_c, 7, 38, 0
1, 0, Control_c, 8, 101, 0
1, 0, Control_c, 8, 100, 0
1, 0, Control_c, 8, 6, 12
1, 0, Control_c, 8, 38, 0
1, 0, Control_c, 9, 101, 0
1, 0, Control_c, 9, 100, 0
1, 0, Control_c, 9, 6, 12
1, 0, Control_c, 9, 38, 0
1, 0, Control_c, 10, 101, 0
1, 0, Control_c, 10, 100, 0
1, 0, Control_c, 10, 6, 12
1, 0, Control_c, 10, 38, 0
1, 0, Control_c, 11, 101, 0
1, 0, Control_c, 11, 100, 0
1, 0, Control_c, 11, 6, 12
1, 0, Control_c, 11, 38, 0
1, 0, Control_c, 12, 101, 0
1, 0, Control_c, 12, 100, 0
1, 0, Control_c, 12, 6, 12
1, 0, Control_c, 12, 38, 0
1, 0, Control_c, 13, 101, 0
1, 0, Control_c, 13, 100, 0
1, 0, Control_c, 13, 6, 12
1, 0, Control_c, 13, 38, 0
1, 0, Control_c, 14, 101, 0
1, 0, Control_c, 14, 100, 0
1, 0, Control_c, 14, 6, 12
1, 0, Control_c, 14, 38, 0
1, 0, Control_c, 15, 101, 0
1, 0, Control_c, 15, 100, 0
1, 0, Control_c, 15, 6, 12
1, 0, Control_c, 15, 38, 0
1, 0, Time_signature, 4, 2, 24, 8
1, 0, Tempo, 476190
1, 0, End_track
2, 0, Start_track
2, 0, Pitch_bend_c, 0, 8192
2, 0, Control_c, 0, 7, 63
2, 0, Control_c, 0, 10, 71
2, 0, Control_c, 0, 93, 23
2, 0, Control_c, 0, 91, 47
2, 0, Control_c, 0, 95, 0
2, 0, Control_c, 0, 92, 0
2, 0, Control_c, 0, 11, 127
2, 0, Program_c, 0, 25
2, 0, Control_c, 1, 7, 63
2, 0, Control_c, 1, 10, 71
2, 0, Control_c, 1, 93, 23
2, 0, Control_c, 1, 91, 47
2, 0, Control_c, 1, 95, 0
2, 0, Control_c, 1, 92, 0
2, 0, Control_c, 1, 11, 127
2, 0, Program_c, 1, 25
2, 3360, Note_on_c, 0, 72, 95
2, 3360, Note_on_c, 0, 67, 95
2, 3360, Note_on_c, 0, 64, 95
2, 3360, Note_on_c, 0, 60, 95
2, 3360, Note_on_c, 0, 55, 95
2, 3360, Note_on_c, 0, 48, 95
2, 3840, Note_off_c, 0, 72, 95
2, 3840, Note_off_c, 0, 67, 95
2, 3840, Note_off_c, 0, 64, 95
2, 3840, Note_off_c, 0, 60, 95
2, 3840, Note_off_c, 0, 55, 95
2, 3840, Note_off_c, 0, 48, 95
2, 3840, Note_on_c, 0, 72, 127
2, 3840, Note_on_c, 0, 67, 127
2, 3840, Note_on_c, 0, 64, 127
2, 3840, Note_on_c, 0, 60, 127
2, 3840, Note_on_c, 0, 55, 127
2, 3840, Note_on_c, 0, 48, 127
2, 4800, Note_off_c, 0, 72, 127
2, 4800, Note_off_c, 0, 67, 127
2, 4800, Note_off_c, 0, 64, 127
2, 4800, Note_off_c, 0, 60, 127
2, 4800, Note_off_c, 0, 55, 127
2, 4800, Note_off_c, 0, 48, 127
2, 4800, Note_on_c, 0, 60, 95
2, 4800, Note_on_c, 0, 55, 95
2, 4800, Note_on_c, 0, 48, 95
2, 5280, Note_off_c, 0, 60, 95
2, 5280, Note_off_c, 0, 55, 95
2, 5280, Note_off_c, 0, 48, 95
2, 5280, Note_on_c, 0, 60, 95
2, 5280, Note_on_c, 0, 55, 95
2, 5280, Note_on_c, 0, 48, 95
2, 5760, Note_off_c, 0, 60, 95
2, 5760, Note_off_c, 0, 55, 95
2, 5760, Note_off_c, 0, 48, 95
2, 5760, Note_on_c, 0, 60, 95
2, 5760, Note_on_c, 0, 55, 95
2, 5760, Note_on_c, 0, 48, 95
2, 6240, Note_off_c, 0, 60, 95
2, 6240, Note_off_c, 0, 55, 95
2, 6240, Note_off_c, 0, 48, 95
2, 6240, Note_on_c, 0, 60, 95
2, 6240, Note_on_c, 0, 55, 95
2, 6240, Note_on_c, 0, 48, 95
2, 6720, Note_off_c, 0, 60, 95
2, 6720, Note_off_c, 0, 55, 95
2, 6720, Note_off_c, 0, 48, 95
2, 6720, Note_on_c, 0, 60, 95
2, 6720, Note_on_c, 0, 55, 95
2, 6720, Note_on_c, 0, 48, 95
2, 7200, Note_off_c, 0, 60, 95
2, 7200, Note_off_c, 0, 55, 95
2, 7200, Note_off_c, 0, 48, 95
2, 7200, Note_on_c, 0, 72, 127
2, 7200, Note_on_c, 0, 67, 127
2, 7200, Note_on_c, 0, 65, 127
2, 7200, Note_on_c, 0, 60, 127
2, 7200, Note_on_c, 0, 57, 127
2, 7200, Note_on_c, 0, 48, 127
2, 7680, Note_off_c, 0, 72, 127
2, 7680, Note_off_c, 0, 67, 127
2, 7680, Note_off_c, 0, 65, 127
2, 7680, Note_off_c, 0, 60, 127
2, 7680, Note_off_c, 0, 57, 127
2, 7680, Note_off_c, 0, 48, 127
2, 7680, Note_on_c, 0, 72, 127
2, 7680, Note_on_c, 0, 67, 127
2, 7680, Note_on_c, 0, 65, 95
2, 7680, Note_on_c, 0, 60, 127
2, 7680, Note_on_c, 0, 57, 127
2, 7680, Note_on_c, 0, 48, 127
2, 8160, Note_off_c, 0, 72, 127
2, 8160, Note_off_c, 0, 67, 127
2, 8160, Note_off_c, 0, 65, 95
2, 8160, Note_off_c, 0, 60, 127
2, 8160, Note_off_c, 0, 57, 127
2, 8160, Note_off_c, 0, 48, 127
2, 8160, Note_on_c, 0, 72, 95
2, 8160, Note_on_c, 0, 67, 95
2, 8160, Note_on_c, 0, 65, 95
2, 8160, Note_on_c, 0, 60, 95
2, 8160, Note_on_c, 0, 57, 95
2, 8160, Note_on_c, 0, 48, 95
2, 8640, Note_off_c, 0, 72, 95
2, 8640, Note_off_c, 0, 67, 95
2, 8640, Note_off_c, 0, 65, 95
2, 8640, Note_off_c, 0, 60, 95
2, 8640, Note_off_c, 0, 57, 95
2, 8640, Note_off_c, 0, 48, 95
2, 8640, Note_on_c, 0, 72, 95
2, 8640, Note_on_c, 0, 67, 95
2, 8640, Note_on_c, 0, 65, 95
2, 8640, Note_on_c, 0, 60, 95
2, 8640, Note_on_c, 0, 57, 95
2, 8640, Note_on_c, 0, 48, 95
2, 9120, Note_off_c, 0, 72, 95
2, 9120, Note_off_c, 0, 67, 95
2, 9120, Note_off_c, 0, 65, 95
2, 9120, Note_off_c, 0, 60, 95
2, 9120, Note_off_c, 0, 57, 95
2, 9120, Note_off_c, 0, 48, 95
2, 9120, Note_on_c, 0, 72, 127
2, 9120, Note_on_c, 0, 67, 127
2, 9120, Note_on_c, 0, 65, 127
2, 9120, Note_on_c, 0, 60, 127
2, 9120, Note_on_c, 0, 57, 127
2, 9120, Note_on_c, 0, 48, 127
2, 10080, Note_off_c, 0, 72, 127
2, 10080, Note_off_c, 0, 67, 127
2, 10080, Note_off_c, 0, 65, 127
2, 10080, Note_off_c, 0, 60, 127
2, 10080, Note_off_c, 0, 57, 127
2, 10080, Note_off_c, 0, 48, 127
2, 10080, Note_on_c, 0, 72, 95
2, 10080, Note_on_c, 0, 67, 95
2, 10080, Note_on_c, 0, 65, 95
2, 10080, Note_on_c, 0, 60, 95
2, 10080, Note_on_c, 0, 57, 95
2, 10080, Note_on_c, 0, 48, 95
2, 10560, Note_off_c, 0, 72, 95
2, 10560, Note_off_c, 0, 67, 95
2, 10560, Note_off_c, 0, 65, 95
2, 10560, Note_off_c, 0, 60, 95
2, 10560, Note_off_c, 0, 57, 95
2, 10560, Note_off_c, 0, 48, 95
2, 10560, Note_on_c, 0, 72, 95
2, 10560, Note_on_c, 0, 67, 95
2, 10560, Note_on_c, 0, 65, 95
2, 10560, Note_on_c, 0, 60, 95
2, 10560, Note_on_c, 0, 57, 95
2, 10560, Note_on_c, 0, 48, 95
2, 11040, Note_off_c, 0, 72, 95
2, 11040, Note_off_c, 0, 67, 95
2, 11040, Note_off_c, 0, 65, 95
2, 11040, Note_off_c, 0, 60, 95
2, 11040, Note_off_c, 0, 57, 95
2, 11040, Note_off_c, 0, 48, 95
2, 11040, Note_on_c, 0, 72, 127
2, 11040, Note_on_c, 0, 67, 127
2, 11040, Note_on_c, 0, 64, 127
2, 11040, Note_on_c, 0, 60, 127
2, 11040, Note_on_c, 0, 55, 127
2, 11040, Note_on_c, 0, 48, 95
2, 11520, Note_off_c, 0, 72, 127
2, 11520, Note_off_c, 0, 67, 127
2, 11520, Note_off_c, 0, 64, 127
2, 11520, Note_off_c, 0, 60, 127
2, 11520, Note_off_c, 0, 55, 127
2, 11520, Note_off_c, 0, 48, 95
2, 11520, Note_on_c, 0, 72, 127
2, 11520, Note_on_c, 0, 67, 127
2, 11520, Note_on_c, 0, 64, 127
2, 11520, Note_on_c, 0, 60, 127
2, 11520, Note_on_c, 0, 55, 127
2, 11520, Note_on_c, 0, 48, 127
2, 12000, Note_off_c, 0, 72, 127
2, 12000, Note_off_c, 0, 67, 127
2, 12000, Note_off_c, 0, 64, 127
2, 12000, Note_off_c, 0, 60, 127
2, 12000, Note_off_c, 0, 55, 127
2, 12000, Note_off_c, 0, 48, 127
2, 12000, Note_on_c, 0, 72, 95
2, 12000, Note_on_c, 0, 67, 95
2, 12000, Note_on_c, 0, 64, 95
2, 12000, Note_on_c, 0, 60, 95
2, 12000, Note_on_c, 0, 55, 95
2, 12000, Note_on_c, 0, 48, 95
2, 12480, Note_off_c, 0, 72, 95
2, 12480, Note_off_c, 0, 67, 95
2, 12480, Note_off_c, 0, 64, 95
2, 12480, Note_off_c, 0, 60, 95
2, 12480, Note_off_c, 0, 55, 95
2, 12480, Note_off_c, 0, 48, 95
2, 12480, Note_on_c, 0, 72, 95
2, 12480, Note_on_c, 0, 67, 95
2, 12480, Note_on_c, 0, 64, 95
2, 12480, Note_on_c, 0, 60, 95
2, 12480, Note_on_c, 0, 55, 95
2, 12480, Note_on_c, 0, 48, 95
2, 12960, Note_off_c, 0, 72, 95
2, 12960, Note_off_c, 0, 67, 95
2, 12960, Note_off_c, 0, 64, 95
2, 12960, Note_off_c, 0, 60, 95
2, 12960, Note_off_c, 0, 55, 95
2, 12960, Note_off_c, 0, 48, 95
2, 12960, Note_on_c, 0, 72, 127
2, 12960, Note_on_c, 0, 67, 127
2, 12960, Note_on_c, 0, 64, 127
2, 12960, Note_on_c, 0, 60, 127
2, 12960, Note_on_c, 0, 55, 127
2, 12960, Note_on_c, 0, 48, 127
2, 13440, Note_off_c, 0, 72, 127
2, 13440, Note_off_c, 0, 67, 127
2, 13440, Note_off_c, 0, 64, 127
2, 13440, Note_off_c, 0, 60, 127
2, 13440, Note_off_c, 0, 55, 127
2, 13440, Note_off_c, 0, 48, 127
2, 13440, Note_on_c, 0, 72, 95
2, 13440, Note_on_c, 0, 67, 95
2, 13440, Note_on_c, 0, 64, 95
2, 13440, Note_on_c, 0, 60, 95
2, 13440, Note_on_c, 0, 55, 95
2, 13440, Note_on_c, 0, 48, 95
2, 13920, Note_off_c, 0, 72, 95
2, 13920, Note_off_c, 0, 67, 95
2, 13920, Note_off_c, 0, 64, 95
2, 13920, Note_off_c, 0, 60, 95
2, 13920, Note_off_c, 0, 55, 95
2, 13920, Note_off_c, 0, 48, 95
2, 13920, Note_on_c, 0, 72, 95
2, 13920, Note_on_c, 0, 67, 95
2, 13920, Note_on_c, 0, 64, 95
2, 13920, Note_on_c, 0, 60, 95
2, 13920, Note_on_c, 0, 55, 95
2, 13920, Note_on_c, 0, 48, 95
2, 14400, Note_off_c, 0, 72, 95
2, 14400, Note_off_c, 0, 67, 95
2, 14400, Note_off_c, 0, 64, 95
2, 14400, Note_off_c, 0, 60, 95
2, 14400, Note_off_c, 0, 55, 95
2, 14400, Note_off_c, 0, 48, 95
2, 14400, Note_on_c, 0, 72, 127
2, 14400, Note_on_c, 0, 67, 127
2, 14400, Note_on_c, 0, 64, 127
2, 14400, Note_on_c, 0, 60, 127
2, 14400, Note_on_c, 0, 55, 127
2, 14400, Note_on_c, 0, 48, 127
2, 14880, Note_off_c, 0, 72, 127
2, 14880, Note_off_c, 0, 67, 127
2, 14880, Note_off_c, 0, 64, 127
2, 14880, Note_off_c, 0, 60, 127
2, 14880, Note_off_c, 0, 55, 127
2, 14880, Note_off_c, 0, 48, 127
2, 14880, Note_on_c, 0, 72, 95
2, 14880, Note_on_c, 0, 67, 95
2, 14880, Note_on_c, 0, 65, 95
2, 14880, Note_on_c, 0, 60, 95
2, 14880, Note_on_c, 0, 57, 95
2, 14880, Note_on_c, 0, 48, 95
2, 15360, Note_off_c, 0, 72, 95
2, 15360, Note_off_c, 0, 67, 95
2, 15360, Note_off_c, 0, 65, 95
2, 15360, Note_off_c, 0, 60, 95
2, 15360, Note_off_c, 0, 57, 95
2, 15360, Note_off_c, 0, 48, 95
2, 15360, Note_on_c, 0, 72, 127
2, 15360, Note_on_c, 0, 67, 127
2, 15360, Note_on_c, 0, 65, 127
2, 15360, Note_on_c, 0, 60, 127
2, 15360, Note_on_c, 0, 57, 127
2, 15360, Note_on_c, 0, 48, 127
2, 15840, Note_off_c, 0, 72, 127
2, 15840, Note_off_c, 0, 67, 127
2, 15840, Note_off_c, 0, 65, 127
2, 15840, Note_off_c, 0, 60, 127
2, 15840, Note_off_c, 0, 57, 127
2, 15840, Note_off_c, 0, 48, 127
2, 15840, Note_on_c, 0, 72, 127
2, 15840, Note_on_c, 0, 67, 127
2, 15840, Note_on_c, 0, 65, 127
2, 15840, Note_on_c, 0, 60, 127
2, 15840, Note_on_c, 0, 57, 127
2, 15840, Note_on_c, 0, 48, 127
2, 16320, Note_off_c, 0, 72, 127
2, 16320, Note_off_c, 0, 67, 127
2, 16320, Note_off_c, 0, 65, 127
2, 16320, Note_off_c, 0, 60, 127
2, 16320, Note_off_c, 0, 57, 127
2, 16320, Note_off_c, 0, 48, 127
2, 16320, Note_on_c, 0, 72, 127
2, 16320, Note_on_c, 0, 67, 127
2, 16320, Note_on_c, 0, 64, 127
2, 16320, Note_on_c, 0, 60, 127
2, 16320, Note_on_c, 0, 55, 127
2, 16320, Note_on_c, 0, 48, 127
2, 16800, Note_off_c, 0, 72, 127
2, 16800, Note_off_c, 0, 67, 127
2, 16800, Note_off_c, 0, 64, 127
2, 16800, Note_off_c, 0, 60, 127
2, 16800, Note_off_c, 0, 55, 127
2, 16800, Note_off_c, 0, 48, 127
2, 16800, Note_on_c, 0, 72, 127
2, 16800, Note_on_c, 0, 67, 127
2, 16800, Note_on_c, 0, 65, 127
2, 16800, Note_on_c, 0, 60, 127
2, 16800, Note_on_c, 0, 57, 127
2, 16800, Note_on_c, 0, 48, 127
2, 17280, Note_off_c, 0, 72, 127
2, 17280, Note_off_c, 0, 67, 127
2, 17280, Note_off_c, 0, 65, 127
2, 17280, Note_off_c, 0, 60, 127
2, 17280, Note_off_c, 0, 57, 127
2, 17280, Note_off_c, 0, 48, 127
2, 17280, Note_on_c, 0, 72, 127
2, 17280, Note_on_c, 0, 67, 127
2, 17280, Note_on_c, 0, 65, 127
2, 17280, Note_on_c, 0, 60, 127
2, 17280, Note_on_c, 0, 57, 127
2, 17280, Note_on_c, 0, 48, 127
2, 17760, Note_off_c, 0, 72, 127
2, 17760, Note_off_c, 0, 67, 127
2, 17760, Note_off_c, 0, 65, 127
2, 17760, Note_off_c, 0, 60, 127
2, 17760, Note_off_c, 0, 57, 127
2, 17760, Note_off_c, 0, 48, 127
2, 17760, Note_on_c, 0, 72, 127
2, 17760, Note_on_c, 0, 67, 127
2, 17760, Note_on_c, 0, 64, 127
2, 17760, Note_on_c, 0, 60, 127
2, 17760, Note_on_c, 0, 55, 127
2, 17760, Note_on_c, 0, 48, 127
2, 18240, Note_off_c, 0, 72, 127
2, 18240, Note_off_c, 0, 67, 127
2, 18240, Note_off_c, 0, 64, 127
2, 18240, Note_off_c, 0, 60, 127
2, 18240, Note_off_c, 0, 55, 127
2, 18240, Note_off_c, 0, 48, 127
2, 18240, Note_on_c, 0, 72, 95
2, 18240, Note_on_c, 0, 67, 95
2, 18240, Note_on_c, 0, 65, 95
2, 18240, Note_on_c, 0, 60, 95
2, 18240, Note_on_c, 0, 57, 95
2, 18240, Note_on_c, 0, 48, 95
2, 18720, Note_off_c, 0, 72, 95
2, 18720, Note_off_c, 0, 67, 95
2, 18720, Note_off_c, 0, 65, 95
2, 18720, Note_off_c, 0, 60, 95
2, 18720, Note_off_c, 0, 57, 95
2, 18720, Note_off_c, 0, 48, 95
2, 18720, Note_on_c, 0, 72, 95
2, 18720, Note_on_c, 0, 67, 95
2, 18720, Note_on_c, 0, 64, 95
2, 18720, Note_on_c, 0, 60, 95
2, 18720, Note_on_c, 0, 55, 95
2, 18720, Note_on_c, 0, 48, 95
2, 19200, Note_off_c, 0, 72, 95
2, 19200, Note_off_c, 0, 67, 95
2, 19200, Note_off_c, 0, 64, 95
2, 19200, Note_off_c, 0, 60, 95
2, 19200, Note_off_c, 0, 55, 95
2, 19200, Note_off_c, 0, 48, 95
2, 19200, Note_on_c, 0, 72, 95
2, 19200, Note_on_c, 0, 67, 95
2, 19200, Note_on_c, 0, 64, 95
2, 19200, Note_on_c, 0, 60, 95
2, 19200, Note_on_c, 0, 55, 95
2, 19200, Note_on_c, 0, 48, 95
2, 19680, Note_off_c, 0, 72, 95
2, 19680, Note_off_c, 0, 67, 95
2, 19680, Note_off_c, 0, 64, 95
2, 19680, Note_off_c, 0, 60, 95
2, 19680, Note_off_c, 0, 55, 95
2, 19680, Note_off_c, 0, 48, 95
2, 19680, Note_on_c, 0, 72, 95
2, 19680, Note_on_c, 0, 67, 95
2, 19680, Note_on_c, 0, 64, 95
2, 19680, Note_on_c, 0, 60, 95
2, 19680, Note_on_c, 0, 55, 95
2, 19680, Note_on_c, 0, 48, 95
2, 20160, Note_off_c, 0, 72, 95
2, 20160, Note_off_c, 0, 67, 95
2, 20160, Note_off_c, 0, 64, 95
2, 20160, Note_off_c, 0, 60, 95
2, 20160, Note_off_c, 0, 55, 95
2, 20160, Note_off_c, 0, 48, 95
2, 20160, Note_on_c, 0, 72, 95
2, 20160, Note_on_c, 0, 67, 95
2, 20160, Note_on_c, 0, 64, 95
2, 20160, Note_on_c, 0, 60, 95
2, 20160, Note_on_c, 0, 55, 95
2, 20160, Note_on_c, 0, 48, 95
2, 20640, Note_off_c, 0, 72, 95
2, 20640, Note_off_c, 0, 67, 95
2, 20640, Note_off_c, 0, 64, 95
2, 20640, Note_off_c, 0, 60, 95
2, 20640, Note_off_c, 0, 55, 95
2, 20640, Note_off_c, 0, 48, 95
2, 20640, Note_on_c, 0, 72, 95
2, 20640, Note_on_c, 0, 67, 95
2, 20640, Note_on_c, 0, 64, 95
2, 20640, Note_on_c, 0, 60, 95
2, 20640, Note_on_c, 0, 55, 95
2, 20640, Note_on_c, 0, 48, 95
2, 21120, Note_off_c, 0, 72, 95
2, 21120, Note_off_c, 0, 67, 95
2, 21120, Note_off_c, 0, 64, 95
2, 21120, Note_off_c, 0, 60, 95
2, 21120, Note_off_c, 0, 55, 95
2, 21120, Note_off_c, 0, 48, 95
2, 21120, Note_on_c, 0, 72, 95
2, 21120, Note_on_c, 0, 67, 95
2, 21120, Note_on_c, 0, 64, 95
2, 21120, Note_on_c, 0, 60, 95
2, 21120, Note_on_c, 0, 55, 95
2, 21120, Note_on_c, 0, 48, 95
2, 21600, Note_off_c, 0, 72, 95
2, 21600, Note_off_c, 0, 67, 95
2, 21600, Note_off_c, 0, 64, 95
2, 21600, Note_off_c, 0, 60, 95
2, 21600, Note_off_c, 0, 55, 95
2, 21600, Note_off_c, 0, 48, 95
2, 21600, Note_on_c, 0, 72, 95
2, 21600, Note_on_c, 0, 67, 95
2, 21600, Note_on_c, 0, 64, 95
2, 21600, Note_on_c, 0, 60, 95
2, 21600, Note_on_c, 0, 55, 95
2, 21600, Note_on_c, 0, 48, 95
2, 22080, Note_off_c, 0, 72, 95
2, 22080, Note_off_c, 0, 67, 95
2, 22080, Note_off_c, 0, 64, 95
2, 22080, Note_off_c, 0, 60, 95
2, 22080, Note_off_c, 0, 55, 95
2, 22080, Note_off_c, 0, 48, 95
2, 22080, Note_on_c, 0, 72, 95
2, 22080, Note_on_c, 0, 67, 95
2, 22080, Note_on_c, 0, 64, 95
2, 22080, Note_on_c, 0, 60, 95
2, 22080, Note_on_c, 0, 55, 95
2, 22080, Note_on_c, 0, 48, 95
2, 22560, Note_off_c, 0, 72, 95
2, 22560, Note_off_c, 0, 67, 95
2, 22560, Note_off_c, 0, 64, 95
2, 22560, Note_off_c, 0, 60, 95
2, 22560, Note_off_c, 0, 55, 95
2, 22560, Note_off_c, 0, 48, 95
2, 22560, Note_on_c, 0, 72, 127
2, 22560, Note_on_c, 0, 67, 127
2, 22560, Note_on_c, 0, 65, 127
2, 22560, Note_on_c, 0, 60, 127
2, 22560, Note_on_c, 0, 57, 127
2, 22560, Note_on_c, 0, 48, 127
2, 23040, Note_off_c, 0, 72, 127
2, 23040, Note_off_c, 0, 67, 127
2, 23040, Note_off_c, 0, 65, 127
2, 23040, Note_off_c, 0, 60, 127
2, 23040, Note_off_c, 0, 57, 127
2, 23040, Note_off_c, 0, 48, 127
2, 23040, Note_on_c, 0, 72, 127
2, 23040, Note_on_c, 0, 67, 127
2, 23040, Note_on_c, 0, 65, 127
2, 23040, Note_on_c, 0, 60, 127
2, 23040, Note_on_c, 0, 57, 127
2, 23040, Note_on_c, 0, 48, 127
2, 23520, Note_off_c, 0, 72, 127
2, 23520, Note_off_c, 0, 67, 127
2, 23520, Note_off_c, 0, 65, 127
2, 23520, Note_off_c, 0, 60, 127
2, 23520, Note_off_c, 0, 57, 127
2, 23520, Note_off_c, 0, 48, 127
2, 23520, Note_on_c, 0, 72, 95
2, 23520, Note_on_c, 0, 67, 95
2, 23520, Note_on_c, 0, 65, 95
2, 23520, Note_on_c, 0, 60, 95
2, 23520, Note_on_c, 0, 57, 95
2, 23520, Note_on_c, 0, 48, 95
2, 24000, Note_off_c, 0, 72, 95
2, 24000, Note_off_c, 0, 67, 95
2, 24000, Note_off_c, 0, 65, 95
2, 24000, Note_off_c, 0, 60, 95
2, 24000, Note_off_c, 0, 57, 95
2, 24000, Note_off_c, 0, 48, 95
2, 24000, Note_on_c, 0, 72, 95
2, 24000, Note_on_c, 0, 67, 95
2, 24000, Note_on_c, 0, 65, 95
2, 24000, Note_on_c, 0, 60, 95
2, 24000, Note_on_c, 0, 57, 95
2, 24000, Note_on_c, 0, 48, 95
2, 24480, Note_off_c, 0, 72, 95
2, 24480, Note_off_c, 0, 67, 95
2, 24480, Note_off_c, 0, 65, 95
2, 24480, Note_off_c, 0, 60, 95
2, 24480, Note_off_c, 0, 57, 95
2, 24480, Note_off_c, 0, 48, 95
2, 24480, Note_on_c, 0, 72, 127
2, 24480, Note_on_c, 0, 67, 127
2, 24480, Note_on_c, 0, 65, 127
2, 24480, Note_on_c, 0, 60, 127
2, 24480, Note_on_c, 0, 57, 127
2, 24480, Note_on_c, 0, 48, 127
2, 24960, Note_off_c, 0, 72, 127
2, 24960, Note_off_c, 0, 67, 127
2, 24960, Note_off_c, 0, 65, 127
2, 24960, Note_off_c, 0, 60, 127
2, 24960, Note_off_c, 0, 57, 127
2, 24960, Note_off_c, 0, 48, 127
2, 24960, Note_on_c, 0, 72, 95
2, 24960, Note_on_c, 0, 67, 95
2, 24960, Note_on_c, 0, 65, 95
2, 24960, Note_on_c, 0, 60, 95
2, 24960, Note_on_c, 0, 57, 95
2, 24960, Note_on_c, 0, 48, 95
2, 25440, Note_off_c, 0, 72, 95
2, 25440, Note_off_c, 0, 67, 95
2, 25440, Note_off_c, 0, 65, 95
2, 25440, Note_off_c, 0, 60, 95
2, 25440, Note_off_c, 0, 57, 95
2, 25440, Note_off_c, 0, 48, 95
2, 25440, Note_on_c, 0, 72, 95
2, 25440, Note_on_c, 0, 67, 95
2, 25440, Note_on_c, 0, 65, 95
2, 25440, Note_on_c, 0, 60, 95
2, 25440, Note_on_c, 0, 57, 95
2, 25440, Note_on_c, 0, 48, 95
2, 25920, Note_off_c, 0, 72, 95
2, 25920, Note_off_c, 0, 67, 95
2, 25920, Note_off_c, 0, 65, 95
2, 25920, Note_off_c, 0, 60, 95
2, 25920, Note_off_c, 0, 57, 95
2, 25920, Note_off_c, 0, 48, 95
2, 25920, Note_on_c, 0, 72, 95
2, 25920, Note_on_c, 0, 69, 95
2, 25920, Note_on_c, 0, 65, 95
2, 25920, Note_on_c, 0, 60, 95
2, 25920, Note_on_c, 0, 57, 95
2, 25920, Note_on_c, 0, 48, 95
2, 26400, Note_off_c, 0, 72, 95
2, 26400, Note_off_c, 0, 69, 95
2, 26400, Note_off_c, 0, 65, 95
2, 26400, Note_off_c, 0, 60, 95
2, 26400, Note_off_c, 0, 57, 95
2, 26400, Note_off_c, 0, 48, 95
2, 26400, Note_on_c, 0, 72, 95
2, 26400, Note_on_c, 0, 67, 95
2, 26400, Note_on_c, 0, 64, 95
2, 26400, Note_on_c, 0, 60, 95
2, 26400, Note_on_c, 0, 55, 95
2, 26400, Note_on_c, 0, 48, 95
2, 26880, Note_off_c, 0, 72, 95
2, 26880, Note_off_c, 0, 67, 95
2, 26880, Note_off_c, 0, 64, 95
2, 26880, Note_off_c, 0, 60, 95
2, 26880, Note_off_c, 0, 55, 95
2, 26880, Note_off_c, 0, 48, 95
2, 26880, Note_on_c, 0, 72, 127
2, 26880, Note_on_c, 0, 67, 127
2, 26880, Note_on_c, 0, 64, 127
2, 26880, Note_on_c, 0, 60, 95
2, 26880, Note_on_c, 0, 55, 127
2, 26880, Note_on_c, 0, 48, 127
2, 27840, Note_off_c, 0, 72, 127
2, 27840, Note_off_c, 0, 67, 127
2, 27840, Note_off_c, 0, 64, 127
2, 27840, Note_off_c, 0, 60, 95
2, 27840, Note_off_c, 0, 55, 127
2, 27840, Note_off_c, 0, 48, 127
2, 27840, Note_on_c, 0, 72, 95
2, 27840, Note_on_c, 0, 67, 95
2, 27840, Note_on_c, 0, 64, 95
2, 27840, Note_on_c, 0, 60, 95
2, 27840, Note_on_c, 0, 55, 95
2, 27840, Note_on_c, 0, 48, 95
2, 28320, Note_off_c, 0, 72, 95
2, 28320, Note_off_c, 0, 67, 95
2, 28320, Note_off_c, 0, 64, 95
2, 28320, Note_off_c, 0, 60, 95
2, 28320, Note_off_c, 0, 55, 95
2, 28320, Note_off_c, 0, 48, 95
2, 28320, Note_on_c, 0, 72, 95
2, 28320, Note_on_c, 0, 67, 95
2, 28320, Note_on_c, 0, 64, 95
2, 28320, Note_on_c, 0, 60, 95
2, 28320, Note_on_c, 0, 55, 95
2, 28320, Note_on_c, 0, 48, 95
2, 29280, Note_off_c, 0, 72, 95
2, 29280, Note_off_c, 0, 67, 95
2, 29280, Note_off_c, 0, 64, 95
2, 29280, Note_off_c, 0, 60, 95
2, 29280, Note_off_c, 0, 55, 95
2, 29280, Note_off_c, 0, 48, 95
2, 29280, Note_on_c, 0, 72, 95
2, 29280, Note_on_c, 0, 67, 95
2, 29280, Note_on_c, 0, 64, 95
2, 29280, Note_on_c, 0, 60, 95
2, 29280, Note_on_c, 0, 55, 95
2, 29280, Note_on_c, 0, 48, 95
2, 29760, Note_off_c, 0, 72, 95
2, 29760, Note_off_c, 0, 67, 95
2, 29760, Note_off_c, 0, 64, 95
2, 29760, Note_off_c, 0, 60, 95
2, 29760, Note_off_c, 0, 55, 95
2, 29760, Note_off_c, 0, 48, 95
2, 29760, Note_on_c, 0, 72, 95
2, 29760, Note_on_c, 0, 67, 95
2, 29760, Note_on_c, 0, 64, 95
2, 29760, Note_on_c, 0, 60, 95
2, 29760, Note_on_c, 0, 55, 95
2, 29760, Note_on_c, 0, 48, 95
2, 30240, Note_off_c, 0, 72, 95
2, 30240, Note_off_c, 0, 67, 95
2, 30240, Note_off_c, 0, 64, 95
2, 30240, Note_off_c, 0, 60, 95
2, 30240, Note_off_c, 0, 55, 95
2, 30240, Note_off_c, 0, 48, 95
2, 30240, Note_on_c, 0, 72, 95
2, 30240, Note_on_c, 0, 67, 95
2, 30240, Note_on_c, 0, 64, 95
2, 30240, Note_on_c, 0, 60, 95
2, 30240, Note_on_c, 0, 55, 95
2, 30240, Note_on_c, 0, 48, 95
2, 30720, Note_off_c, 0, 72, 95
2, 30720, Note_off_c, 0, 67, 95
2, 30720, Note_off_c, 0, 64, 95
2, 30720, Note_off_c, 0, 60, 95
2, 30720, Note_off_c, 0, 55, 95
2, 30720, Note_off_c, 0, 48, 95
2, 30720, Note_on_c, 0, 72, 95
2, 30720, Note_on_c, 0, 67, 95
2, 30720, Note_on_c, 0, 65, 95
2, 30720, Note_on_c, 0, 60, 95
2, 30720, Note_on_c, 0, 57, 95
2, 30720, Note_on_c, 0, 48, 95
2, 31200, Note_off_c, 0, 72, 95
2, 31200, Note_off_c, 0, 67, 95
2, 31200, Note_off_c, 0, 65, 95
2, 31200, Note_off_c, 0, 60, 95
2, 31200, Note_off_c, 0, 57, 95
2, 31200, Note_off_c, 0, 48, 95
2, 31200, Note_on_c, 0, 72, 95
2, 31200, Note_on_c, 0, 67, 95
2, 31200, Note_on_c, 0, 65, 95
2, 31200, Note_on_c, 0, 60, 95
2, 31200, Note_on_c, 0, 57, 95
2, 31200, Note_on_c, 0, 48, 95
2, 31680, Note_off_c, 0, 72, 95
2, 31680, Note_off_c, 0, 67, 95
2, 31680, Note_off_c, 0, 65, 95
2, 31680, Note_off_c, 0, 60, 95
2, 31680, Note_off_c, 0, 57, 95
2, 31680, Note_off_c, 0, 48, 95
2, 31680, Note_on_c, 0, 72, 95
2, 31680, Note_on_c, 0, 67, 95
2, 31680, Note_on_c, 0, 64, 95
2, 31680, Note_on_c, 0, 60, 95
2, 31680, Note_on_c, 0, 55, 95
2, 31680, Note_on_c, 0, 48, 95
2, 32160, Note_off_c, 0, 72, 95
2, 32160, Note_off_c, 0, 67, 95
2, 32160, Note_off_c, 0, 64, 95
2, 32160, Note_off_c, 0, 60, 95
2, 32160, Note_off_c, 0, 55, 95
2, 32160, Note_off_c, 0, 48, 95
2, 32160, Note_on_c, 0, 72, 95
2, 32160, Note_on_c, 0, 67, 95
2, 32160, Note_on_c, 0, 65, 95
2, 32160, Note_on_c, 0, 60, 95
2, 32160, Note_on_c, 0, 57, 95
2, 32160, Note_on_c, 0, 48, 95
2, 33120, Note_off_c, 0, 72, 95
2, 33120, Note_off_c, 0, 67, 95
2, 33120, Note_off_c, 0, 65, 95
2, 33120, Note_off_c, 0, 60, 95
2, 33120, Note_off_c, 0, 57, 95
2, 33120, Note_off_c, 0, 48, 95
2, 33120, Note_on_c, 0, 72, 95
2, 33120, Note_on_c, 0, 67, 95
2, 33120, Note_on_c, 0, 65, 95
2, 33120, Note_on_c, 0, 60, 95
2, 33120, Note_on_c, 0, 57, 95
2, 33120, Note_on_c, 0, 48, 95
2, 33600, Note_off_c, 0, 72, 95
2, 33600, Note_off_c, 0, 67, 95
2, 33600, Note_off_c, 0, 65, 95
2, 33600, Note_off_c, 0, 60, 95
2, 33600, Note_off_c, 0, 57, 95
2, 33600, Note_off_c, 0, 48, 95
2, 33600, Note_on_c, 0, 72, 95
2, 33600, Note_on_c, 0, 67, 95
2, 33600, Note_on_c, 0, 64, 95
2, 33600, Note_on_c, 0, 60, 95
2, 33600, Note_on_c, 0, 55, 95
2, 33600, Note_on_c, 0, 48, 95
2, 34080, Note_off_c, 0, 72, 95
2, 34080, Note_off_c, 0, 67, 95
2, 34080, Note_off_c, 0, 64, 95
2, 34080, Note_off_c, 0, 60, 95
2, 34080, Note_off_c, 0, 55, 95
2, 34080, Note_off_c, 0, 48, 95
2, 34080, Note_on_c, 0, 72, 95
2, 34080, Note_on_c, 0, 67, 95
2, 34080, Note_on_c, 0, 65, 95
2, 34080, Note_on_c, 0, 60, 95
2, 34080, Note_on_c, 0, 57, 95
2, 34080, Note_on_c, 0, 48, 95
2, 35040, Note_off_c, 0, 72, 95
2, 35040, Note_off_c, 0, 67, 95
2, 35040, Note_off_c, 0, 65, 95
2, 35040, Note_off_c, 0, 60, 95
2, 35040, Note_off_c, 0, 57, 95
2, 35040, Note_off_c, 0, 48, 95
2, 35040, Note_on_c, 0, 72, 95
2, 35040, Note_on_c, 0, 67, 95
2, 35040, Note_on_c, 0, 65, 95
2, 35040, Note_on_c, 0, 60, 95
2, 35040, Note_on_c, 0, 57, 95
2, 35040, Note_on_c, 0, 48, 95
2, 35520, Note_off_c, 0, 72, 95
2, 35520, Note_off_c, 0, 67, 95
2, 35520, Note_off_c, 0, 65, 95
2, 35520, Note_off_c, 0, 60, 95
2, 35520, Note_off_c, 0, 57, 95
2, 35520, Note_off_c, 0, 48, 95
2, 35520, Note_on_c, 0, 72, 95
2, 35520, Note_on_c, 0, 67, 95
2, 35520, Note_on_c, 0, 64, 95
2, 35520, Note_on_c, 0, 60, 95
2, 35520, Note_on_c, 0, 55, 95
2, 35520, Note_on_c, 0, 48, 95
2, 36000, Note_off_c, 0, 72, 95
2, 36000, Note_off_c, 0, 67, 95
2, 36000, Note_off_c, 0, 64, 95
2, 36000, Note_off_c, 0, 60, 95
2, 36000, Note_off_c, 0, 55, 95
2, 36000, Note_off_c, 0, 48, 95
2, 36000, Note_on_c, 0, 72, 95
2, 36000, Note_on_c, 0, 67, 95
2, 36000, Note_on_c, 0, 65, 95
2, 36000, Note_on_c, 0, 60, 95
2, 36000, Note_on_c, 0, 57, 95
2, 36000, Note_on_c, 0, 48, 95
2, 36960, Note_off_c, 0, 72, 95
2, 36960, Note_off_c, 0, 67, 95
2, 36960, Note_off_c, 0, 65, 95
2, 36960, Note_off_c, 0, 60, 95
2, 36960, Note_off_c, 0, 57, 95
2, 36960, Note_off_c, 0, 48, 95
2, 36960, Note_on_c, 0, 72, 95
2, 36960, Note_on_c, 0, 67, 95
2, 36960, Note_on_c, 0, 65, 95
2, 36960, Note_on_c, 0, 60, 95
2, 36960, Note_on_c, 0, 57, 95
2, 36960, Note_on_c, 0, 48, 95
2, 37440, Note_off_c, 0, 72, 95
2, 37440, Note_off_c, 0, 67, 95
2, 37440, Note_off_c, 0, 65, 95
2, 37440, Note_off_c, 0, 60, 95
2, 37440, Note_off_c, 0, 57, 95
2, 37440, Note_off_c, 0, 48, 95
2, 37440, Note_on_c, 0, 72, 95
2, 37440, Note_on_c, 0, 67, 95
2, 37440, Note_on_c, 0, 64, 95
2, 37440, Note_on_c, 0, 60, 95
2, 37440, Note_on_c, 0, 55, 95
2, 37440, Note_on_c, 0, 48, 95
2, 37920, Note_off_c, 0, 72, 95
2, 37920, Note_off_c, 0, 67, 95
2, 37920, Note_off_c, 0, 64, 95
2, 37920, Note_off_c, 0, 60, 95
2, 37920, Note_off_c, 0, 55, 95
2, 37920, Note_off_c, 0, 48, 95
2, 37920, Note_on_c, 0, 72, 95
2, 37920, Note_on_c, 0, 67, 95
2, 37920, Note_on_c, 0, 65, 95
2, 37920, Note_on_c, 0, 60, 95
2, 37920, Note_on_c, 0, 57, 95
2, 37920, Note_on_c, 0, 48, 95
2, 38400, Note_off_c, 0, 72, 95
2, 38400, Note_off_c, 0, 67, 95
2, 38400, Note_off_c, 0, 65, 95
2, 38400, Note_off_c, 0, 60, 95
2, 38400, Note_off_c, 0, 57, 95
2, 38400, Note_off_c, 0, 48, 95
2, 38400, Note_on_c, 0, 72, 95
2, 38400, Note_on_c, 0, 67, 95
2, 38400, Note_on_c, 0, 65, 95
2, 38400, Note_on_c, 0, 60, 95
2, 38400, Note_on_c, 0, 57, 95
2, 38400, Note_on_c, 0, 48, 95
2, 38880, Note_off_c, 0, 72, 95
2, 38880, Note_off_c, 0, 67, 95
2, 38880, Note_off_c, 0, 65, 95
2, 38880, Note_off_c, 0, 60, 95
2, 38880, Note_off_c, 0, 57, 95
2, 38880, Note_off_c, 0, 48, 95
2, 38880, Note_on_c, 0, 72, 95
2, 38880, Note_on_c, 0, 67, 95
2, 38880, Note_on_c, 0, 65, 95
2, 38880, Note_on_c, 0, 60, 95
2, 38880, Note_on_c, 0, 57, 95
2, 38880, Note_on_c, 0, 48, 95
2, 39360, Note_off_c, 0, 72, 95
2, 39360, Note_off_c, 0, 67, 95
2, 39360, Note_off_c, 0, 65, 95
2, 39360, Note_off_c, 0, 60, 95
2, 39360, Note_off_c, 0, 57, 95
2, 39360, Note_off_c, 0, 48, 95
2, 39360, Note_on_c, 0, 72, 95
2, 39360, Note_on_c, 0, 67, 95
2, 39360, Note_on_c, 0, 64, 95
2, 39360, Note_on_c, 0, 60, 95
2, 39360, Note_on_c, 0, 55, 95
2, 39360, Note_on_c, 0, 48, 95
2, 39840, Note_off_c, 0, 72, 95
2, 39840, Note_off_c, 0, 67, 95
2, 39840, Note_off_c, 0, 64, 95
2, 39840, Note_off_c, 0, 60, 95
2, 39840, Note_off_c, 0, 55, 95
2, 39840, Note_off_c, 0, 48, 95
2, 39840, Note_on_c, 0, 72, 95
2, 39840, Note_on_c, 0, 67, 95
2, 39840, Note_on_c, 0, 65, 95
2, 39840, Note_on_c, 0, 60, 95
2, 39840, Note_on_c, 0, 57, 95
2, 39840, Note_on_c, 0, 48, 95
2, 40320, Note_off_c, 0, 72, 95
2, 40320, Note_off_c, 0, 67, 95
2, 40320, Note_off_c, 0, 65, 95
2, 40320, Note_off_c, 0, 60, 95
2, 40320, Note_off_c, 0, 57, 95
2, 40320, Note_off_c, 0, 48, 95
2, 40320, Note_on_c, 0, 72, 95
2, 40320, Note_on_c, 0, 67, 95
2, 40320, Note_on_c, 0, 65, 95
2, 40320, Note_on_c, 0, 60, 95
2, 40320, Note_on_c, 0, 57, 95
2, 40320, Note_on_c, 0, 48, 95
2, 40800, Note_off_c, 0, 72, 95
2, 40800, Note_off_c, 0, 67, 95
2, 40800, Note_off_c, 0, 65, 95
2, 40800, Note_off_c, 0, 60, 95
2, 40800, Note_off_c, 0, 57, 95
2, 40800, Note_off_c, 0, 48, 95
2, 40800, Note_on_c, 0, 72, 95
2, 40800, Note_on_c, 0, 67, 95
2, 40800, Note_on_c, 0, 65, 95
2, 40800, Note_on_c, 0, 60, 95
2, 40800, Note_on_c, 0, 57, 95
2, 40800, Note_on_c, 0, 48, 95
2, 41280, Note_off_c, 0, 72, 95
2, 41280, Note_off_c, 0, 67, 95
2, 41280, Note_off_c, 0, 65, 95
2, 41280, Note_off_c, 0, 60, 95
2, 41280, Note_off_c, 0, 57, 95
2, 41280, Note_off_c, 0, 48, 95
2, 41280, Note_on_c, 0, 72, 95
2, 41280, Note_on_c, 0, 67, 95
2, 41280, Note_on_c, 0, 64, 95
2, 41280, Note_on_c, 0, 60, 95
2, 41280, Note_on_c, 0, 55, 95
2, 41280, Note_on_c, 0, 48, 95
2, 41760, Note_off_c, 0, 72, 95
2, 41760, Note_off_c, 0, 67, 95
2, 41760, Note_off_c, 0, 64, 95
2, 41760, Note_off_c, 0, 60, 95
2, 41760, Note_off_c, 0, 55, 95
2, 41760, Note_off_c, 0, 48, 95
2, 41760, Note_on_c, 0, 72, 95
2, 41760, Note_on_c, 0, 67, 95
2, 41760, Note_on_c, 0, 65, 95
2, 41760, Note_on_c, 0, 60, 95
2, 41760, Note_on_c, 0, 57, 95
2, 41760, Note_on_c, 0, 48, 95
2, 42240, Note_off_c, 0, 72, 95
2, 42240, Note_off_c, 0, 67, 95
2, 42240, Note_off_c, 0, 65, 95
2, 42240, Note_off_c, 0, 60, 95
2, 42240, Note_off_c, 0, 57, 95
2, 42240, Note_off_c, 0, 48, 95
2, 42240, Note_on_c, 0, 72, 95
2, 42240, Note_on_c, 0, 67, 95
2, 42240, Note_on_c, 0, 65, 95
2, 42240, Note_on_c, 0, 60, 95
2, 42240, Note_on_c, 0, 57, 95
2, 42240, Note_on_c, 0, 48, 95
2, 42720, Note_off_c, 0, 72, 95
2, 42720, Note_off_c, 0, 67, 95
2, 42720, Note_off_c, 0, 65, 95
2, 42720, Note_off_c, 0, 60, 95
2, 42720, Note_off_c, 0, 57, 95
2, 42720, Note_off_c, 0, 48, 95
2, 42720, Note_on_c, 0, 72, 95
2, 42720, Note_on_c, 0, 67, 95
2, 42720, Note_on_c, 0, 65, 95
2, 42720, Note_on_c, 0, 60, 95
2, 42720, Note_on_c, 0, 57, 95
2, 42720, Note_on_c, 0, 48, 95
2, 43200, Note_off_c, 0, 72, 95
2, 43200, Note_off_c, 0, 67, 95
2, 43200, Note_off_c, 0, 65, 95
2, 43200, Note_off_c, 0, 60, 95
2, 43200, Note_off_c, 0, 57, 95
2, 43200, Note_off_c, 0, 48, 95
2, 43200, Note_on_c, 0, 72, 95
2, 43200, Note_on_c, 0, 67, 95
2, 43200, Note_on_c, 0, 65, 95
2, 43200, Note_on_c, 0, 60, 95
2, 43200, Note_on_c, 0, 57, 95
2, 43200, Note_on_c, 0, 48, 95
2, 43680, Note_off_c, 0, 72, 95
2, 43680, Note_off_c, 0, 67, 95
2, 43680, Note_off_c, 0, 65, 95
2, 43680, Note_off_c, 0, 60, 95
2, 43680, Note_off_c, 0, 57, 95
2, 43680, Note_off_c, 0, 48, 95
2, 43680, Note_on_c, 0, 72, 95
2, 43680, Note_on_c, 0, 67, 95
2, 43680, Note_on_c, 0, 65, 95
2, 43680, Note_on_c, 0, 60, 95
2, 43680, Note_on_c, 0, 57, 95
2, 43680, Note_on_c, 0, 48, 95
2, 44160, Note_off_c, 0, 72, 95
2, 44160, Note_off_c, 0, 67, 95
2, 44160, Note_off_c, 0, 65, 95
2, 44160, Note_off_c, 0, 60, 95
2, 44160, Note_off_c, 0, 57, 95
2, 44160, Note_off_c, 0, 48, 95
2, 44160, Note_on_c, 0, 72, 95
2, 44160, Note_on_c, 0, 67, 95
2, 44160, Note_on_c, 0, 64, 95
2, 44160, Note_on_c, 0, 60, 95
2, 44160, Note_on_c, 0, 55, 95
2, 44160, Note_on_c, 0, 48, 95
2, 44640, Note_off_c, 0, 72, 95
2, 44640, Note_off_c, 0, 67, 95
2, 44640, Note_off_c, 0, 64, 95
2, 44640, Note_off_c, 0, 60, 95
2, 44640, Note_off_c, 0, 55, 95
2, 44640, Note_off_c, 0, 48, 95
2, 44640, Note_on_c, 0, 72, 95
2, 44640, Note_on_c, 0, 67, 95
2, 44640, Note_on_c, 0, 64, 95
2, 44640, Note_on_c, 0, 60, 95
2, 44640, Note_on_c, 0, 55, 95
2, 44640, Note_on_c, 0, 48, 95
2, 45120, Note_off_c, 0, 72, 95
2, 45120, Note_off_c, 0, 67, 95
2, 45120, Note_off_c, 0, 64, 95
2, 45120, Note_off_c, 0, 60, 95
2, 45120, Note_off_c, 0, 55, 95
2, 45120, Note_off_c, 0, 48, 95
2, 45120, Note_on_c, 0, 72, 95
2, 45120, Note_on_c, 0, 67, 95
2, 45120, Note_on_c, 0, 64, 95
2, 45120, Note_on_c, 0, 60, 95
2, 45120, Note_on_c, 0, 55, 95
2, 45120, Note_on_c, 0, 48, 95
2, 45600, Note_off_c, 0, 72, 95
2, 45600, Note_off_c, 0, 67, 95
2, 45600, Note_off_c, 0, 64, 95
2, 45600, Note_off_c, 0, 60, 95
2, 45600, Note_off_c, 0, 55, 95
2, 45600, Note_off_c, 0, 48, 95
2, 45600, Note_on_c, 0, 72, 95
2, 45600, Note_on_c, 0, 67, 95
2, 45600, Note_on_c, 0, 64, 95
2, 45600, Note_on_c, 0, 60, 95
2, 45600, Note_on_c, 0, 55, 95
2, 45600, Note_on_c, 0, 48, 95
2, 46080, Note_off_c, 0, 72, 95
2, 46080, Note_off_c, 0, 67, 95
2, 46080, Note_off_c, 0, 64, 95
2, 46080, Note_off_c, 0, 60, 95
2, 46080, Note_off_c, 0, 55, 95
2, 46080, Note_off_c, 0, 48, 95
2, 46080, Note_on_c, 0, 72, 95
2, 46080, Note_on_c, 0, 67, 95
2, 46080, Note_on_c, 0, 65, 95
2, 46080, Note_on_c, 0, 60, 95
2, 46080, Note_on_c, 0, 57, 95
2, 46080, Note_on_c, 0, 48, 95
2, 46560, Note_off_c, 0, 72, 95
2, 46560, Note_off_c, 0, 67, 95
2, 46560, Note_off_c, 0, 65, 95
2, 46560, Note_off_c, 0, 60, 95
2, 46560, Note_off_c, 0, 57, 95
2, 46560, Note_off_c, 0, 48, 95
2, 46560, Note_on_c, 0, 72, 95
2, 46560, Note_on_c, 0, 67, 95
2, 46560, Note_on_c, 0, 65, 95
2, 46560, Note_on_c, 0, 60, 95
2, 46560, Note_on_c, 0, 57, 95
2, 46560, Note_on_c, 0, 48, 95
2, 47040, Note_off_c, 0, 72, 95
2, 47040, Note_off_c, 0, 67, 95
2, 47040, Note_off_c, 0, 65, 95
2, 47040, Note_off_c, 0, 60, 95
2, 47040, Note_off_c, 0, 57, 95
2, 47040, Note_off_c, 0, 48, 95
2, 47040, Note_on_c, 0, 72, 95
2, 47040, Note_on_c, 0, 67, 95
2, 47040, Note_on_c, 0, 65, 95
2, 47040, Note_on_c, 0, 60, 95
2, 47040, Note_on_c, 0, 57, 95
2, 47040, Note_on_c, 0, 48, 95
2, 48000, Note_off_c, 0, 72, 95
2, 48000, Note_off_c, 0, 67, 95
2, 48000, Note_off_c, 0, 65, 95
2, 48000, Note_off_c, 0, 60, 95
2, 48000, Note_off_c, 0, 57, 95
2, 48000, Note_off_c, 0, 48, 95
2, 48000, Note_on_c, 0, 72, 95
2, 48000, Note_on_c, 0, 67, 95
2, 48000, Note_on_c, 0, 65, 95
2, 48000, Note_on_c, 0, 60, 95
2, 48000, Note_on_c, 0, 57, 95
2, 48000, Note_on_c, 0, 48, 95
2, 48480, Note_off_c, 0, 72, 95
2, 48480, Note_off_c, 0, 67, 95
2, 48480, Note_off_c, 0, 65, 95
2, 48480, Note_off_c, 0, 60, 95
2, 48480, Note_off_c, 0, 57, 95
2, 48480, Note_off_c, 0, 48, 95
2, 48480, Note_on_c, 0, 72, 95
2, 48480, Note_on_c, 0, 67, 95
2, 48480, Note_on_c, 0, 64, 95
2, 48480, Note_on_c, 0, 60, 95
2, 48480, Note_on_c, 0, 55, 95
2, 48480, Note_on_c, 0, 48, 95
2, 49440, Note_off_c, 0, 72, 95
2, 49440, Note_off_c, 0, 67, 95
2, 49440, Note_off_c, 0, 64, 95
2, 49440, Note_off_c, 0, 60, 95
2, 49440, Note_off_c, 0, 55, 95
2, 49440, Note_off_c, 0, 48, 95
2, 49440, Note_on_c, 0, 72, 95
2, 49440, Note_on_c, 0, 67, 95
2, 49440, Note_on_c, 0, 65, 95
2, 49440, Note_on_c, 0, 60, 95
2, 49440, Note_on_c, 0, 57, 95
2, 49440, Note_on_c, 0, 48, 95
2, 50400, Note_off_c, 0, 72, 95
2, 50400, Note_off_c, 0, 67, 95
2, 50400, Note_off_c, 0, 65, 95
2, 50400, Note_off_c, 0, 60, 95
2, 50400, Note_off_c, 0, 57, 95
2, 50400, Note_off_c, 0, 48, 95
2, 50400, Note_on_c, 0, 72, 95
2, 50400, Note_on_c, 0, 67, 95
2, 50400, Note_on_c, 0, 65, 95
2, 50400, Note_on_c, 0, 60, 95
2, 50400, Note_on_c, 0, 57, 95
2, 50400, Note_on_c, 0, 48, 95
2, 50880, Note_off_c, 0, 72, 95
2, 50880, Note_off_c, 0, 67, 95
2, 50880, Note_off_c, 0, 65, 95
2, 50880, Note_off_c, 0, 60, 95
2, 50880, Note_off_c, 0, 57, 95
2, 50880, Note_off_c, 0, 48, 95
2, 50880, Note_on_c, 0, 72, 95
2, 50880, Note_on_c, 0, 67, 95
2, 50880, Note_on_c, 0, 65, 95
2, 50880, Note_on_c, 0, 60, 95
2, 50880, Note_on_c, 0, 57, 95
2, 50880, Note_on_c, 0, 48, 95
2, 51840, Note_off_c, 0, 72, 95
2, 51840, Note_off_c, 0, 67, 95
2, 51840, Note_off_c, 0, 65, 95
2, 51840, Note_off_c, 0, 60, 95
2, 51840, Note_off_c, 0, 57, 95
2, 51840, Note_off_c, 0, 48, 95
2, 51840, Note_on_c, 0, 72, 95
2, 51840, Note_on_c, 0, 67, 95
2, 51840, Note_on_c, 0, 65, 95
2, 51840, Note_on_c, 0, 60, 95
2, 51840, Note_on_c, 0, 57, 95
2, 51840, Note_on_c, 0, 48, 95
2, 52320, Note_off_c, 0, 72, 95
2, 52320, Note_off_c, 0, 67, 95
2, 52320, Note_off_c, 0, 65, 95
2, 52320, Note_off_c, 0, 60, 95
2, 52320, Note_off_c, 0, 57, 95
2, 52320, Note_off_c, 0, 48, 95
2, 52320, Note_on_c, 0, 72, 95
2, 52320, Note_on_c, 0, 67, 95
2, 52320, Note_on_c, 0, 65, 95
2, 52320, Note_on_c, 0, 60, 95
2, 52320, Note_on_c, 0, 57, 95
2, 52320, Note_on_c, 0, 48, 95
2, 52800, Note_off_c, 0, 72, 95
2, 52800, Note_off_c, 0, 67, 95
2, 52800, Note_off_c, 0, 65, 95
2, 52800, Note_off_c, 0, 60, 95
2, 52800, Note_off_c, 0, 57, 95
2, 52800, Note_off_c, 0, 48, 95
2, 52800, Note_on_c, 0, 72, 95
2, 52800, Note_on_c, 0, 67, 95
2, 52800, Note_on_c, 0, 64, 95
2, 52800, Note_on_c, 0, 60, 95
2, 52800, Note_on_c, 0, 55, 95
2, 52800, Note_on_c, 0, 48, 95
2, 53280, Note_off_c, 0, 72, 95
2, 53280, Note_off_c, 0, 67, 95
2, 53280, Note_off_c, 0, 64, 95
2, 53280, Note_off_c, 0, 60, 95
2, 53280, Note_off_c, 0, 55, 95
2, 53280, Note_off_c, 0, 48, 95
2, 53280, Note_on_c, 0, 72, 95
2, 53280, Note_on_c, 0, 67, 95
2, 53280, Note_on_c, 0, 65, 95
2, 53280, Note_on_c, 0, 60, 95
2, 53280, Note_on_c, 0, 57, 95
2, 53280, Note_on_c, 0, 48, 95
2, 54240, Note_off_c, 0, 72, 95
2, 54240, Note_off_c, 0, 67, 95
2, 54240, Note_off_c, 0, 65, 95
2, 54240, Note_off_c, 0, 60, 95
2, 54240, Note_off_c, 0, 57, 95
2, 54240, Note_off_c, 0, 48, 95
2, 54240, Note_on_c, 0, 72, 95
2, 54240, Note_on_c, 0, 67, 95
2, 54240, Note_on_c, 0, 65, 95
2, 54240, Note_on_c, 0, 60, 95
2, 54240, Note_on_c, 0, 57, 95
2, 54240, Note_on_c, 0, 48, 95
2, 54720, Note_off_c, 0, 72, 95
2, 54720, Note_off_c, 0, 67, 95
2, 54720, Note_off_c, 0, 65, 95
2, 54720, Note_off_c, 0, 60, 95
2, 54720, Note_off_c, 0, 57, 95
2, 54720, Note_off_c, 0, 48, 95
2, 54720, Note_on_c, 0, 72, 95
2, 54720, Note_on_c, 0, 67, 95
2, 54720, Note_on_c, 0, 64, 95
2, 54720, Note_on_c, 0, 60, 95
2, 54720, Note_on_c, 0, 55, 95
2, 54720, Note_on_c, 0, 48, 95
2, 55200, Note_off_c, 0, 72, 95
2, 55200, Note_off_c, 0, 67, 95
2, 55200, Note_off_c, 0, 64, 95
2, 55200, Note_off_c, 0, 60, 95
2, 55200, Note_off_c, 0, 55, 95
2, 55200, Note_off_c, 0, 48, 95
2, 55200, Note_on_c, 0, 72, 95
2, 55200, Note_on_c, 0, 67, 95
2, 55200, Note_on_c, 0, 65, 95
2, 55200, Note_on_c, 0, 60, 95
2, 55200, Note_on_c, 0, 57, 95
2, 55200, Note_on_c, 0, 48, 95
2, 55680, Note_off_c, 0, 72, 95
2, 55680, Note_off_c, 0, 67, 95
2, 55680, Note_off_c, 0, 65, 95
2, 55680, Note_off_c, 0, 60, 95
2, 55680, Note_off_c, 0, 57, 95
2, 55680, Note_off_c, 0, 48, 95
2, 55680, Note_on_c, 0, 72, 95
2, 55680, Note_on_c, 0, 67, 95
2, 55680, Note_on_c, 0, 65, 95
2, 55680, Note_on_c, 0, 60, 95
2, 55680, Note_on_c, 0, 57, 95
2, 55680, Note_on_c, 0, 48, 95
2, 56160, Note_off_c, 0, 72, 95
2, 56160, Note_off_c, 0, 67, 95
2, 56160, Note_off_c, 0, 65, 95
2, 56160, Note_off_c, 0, 60, 95
2, 56160, Note_off_c, 0, 57, 95
2, 56160, Note_off_c, 0, 48, 95
2, 56160, Note_on_c, 0, 72, 95
2, 56160, Note_on_c, 0, 67, 95
2, 56160, Note_on_c, 0, 65, 95
2, 56160, Note_on_c, 0, 60, 95
2, 56160, Note_on_c, 0, 57, 95
2, 56160, Note_on_c, 0, 48, 95
2, 56640, Note_off_c, 0, 72, 95
2, 56640, Note_off_c, 0, 67, 95
2, 56640, Note_off_c, 0, 65, 95
2, 56640, Note_off_c, 0, 60, 95
2, 56640, Note_off_c, 0, 57, 95
2, 56640, Note_off_c, 0, 48, 95
2, 56640, Note_on_c, 0, 72, 95
2, 56640, Note_on_c, 0, 67, 95
2, 56640, Note_on_c, 0, 64, 95
2, 56640, Note_on_c, 0, 60, 95
2, 56640, Note_on_c, 0, 55, 95
2, 56640, Note_on_c, 0, 48, 95
2, 57120, Note_off_c, 0, 72, 95
2, 57120, Note_off_c, 0, 67, 95
2, 57120, Note_off_c, 0, 64, 95
2, 57120, Note_off_c, 0, 60, 95
2, 57120, Note_off_c, 0, 55, 95
2, 57120, Note_off_c, 0, 48, 95
2, 57120, Note_on_c, 0, 72, 95
2, 57120, Note_on_c, 0, 67, 95
2, 57120, Note_on_c, 0, 65, 95
2, 57120, Note_on_c, 0, 60, 95
2, 57120, Note_on_c, 0, 57, 95
2, 57120, Note_on_c, 0, 48, 95
2, 57600, Note_off_c, 0, 72, 95
2, 57600, Note_off_c, 0, 67, 95
2, 57600, Note_off_c, 0, 65, 95
2, 57600, Note_off_c, 0, 60, 95
2, 57600, Note_off_c, 0, 57, 95
2, 57600, Note_off_c, 0, 48, 95
2, 57600, Note_on_c, 0, 72, 95
2, 57600, Note_on_c, 0, 67, 95
2, 57600, Note_on_c, 0, 65, 95
2, 57600, Note_on_c, 0, 60, 95
2, 57600, Note_on_c, 0, 57, 95
2, 57600, Note_on_c, 0, 48, 95
2, 58080, Note_off_c, 0, 72, 95
2, 58080, Note_off_c, 0, 67, 95
2, 58080, Note_off_c, 0, 65, 95
2, 58080, Note_off_c, 0, 60, 95
2, 58080, Note_off_c, 0, 57, 95
2, 58080, Note_off_c, 0, 48, 95
2, 58080, Note_on_c, 0, 72, 95
2, 58080, Note_on_c, 0, 67, 95
2, 58080, Note_on_c, 0, 65, 95
2, 58080, Note_on_c, 0, 60, 95
2, 58080, Note_on_c, 0, 57, 95
2, 58080, Note_on_c, 0, 48, 95
2, 58560, Note_off_c, 0, 72, 95
2, 58560, Note_off_c, 0, 67, 95
2, 58560, Note_off_c, 0, 65, 95
2, 58560, Note_off_c, 0, 60, 95
2, 58560, Note_off_c, 0, 57, 95
2, 58560, Note_off_c, 0, 48, 95
2, 58560, Note_on_c, 0, 72, 95
2, 58560, Note_on_c, 0, 67, 95
2, 58560, Note_on_c, 0, 64, 95
2, 58560, Note_on_c, 0, 60, 95
2, 58560, Note_on_c, 0, 55, 95
2, 58560, Note_on_c, 0, 48, 95
2, 59040, Note_off_c, 0, 72, 95
2, 59040, Note_off_c, 0, 67, 95
2, 59040, Note_off_c, 0, 64, 95
2, 59040, Note_off_c, 0, 60, 95
2, 59040, Note_off_c, 0, 55, 95
2, 59040, Note_off_c, 0, 48, 95
2, 59040, Note_on_c, 0, 72, 95
2, 59040, Note_on_c, 0, 67, 95
2, 59040, Note_on_c, 0, 65, 95
2, 59040, Note_on_c, 0, 60, 95
2, 59040, Note_on_c, 0, 57, 95
2, 59040, Note_on_c, 0, 48, 95
2, 59520, Note_off_c, 0, 72, 95
2, 59520, Note_off_c, 0, 67, 95
2, 59520, Note_off_c, 0, 65, 95
2, 59520, Note_off_c, 0, 60, 95
2, 59520, Note_off_c, 0, 57, 95
2, 59520, Note_off_c, 0, 48, 95
2, 59520, Note_on_c, 0, 72, 95
2, 59520, Note_on_c, 0, 67, 95
2, 59520, Note_on_c, 0, 65, 95
2, 59520, Note_on_c, 0, 60, 95
2, 59520, Note_on_c, 0, 57, 95
2, 59520, Note_on_c, 0, 48, 95
2, 60000, Note_off_c, 0, 72, 95
2, 60000, Note_off_c, 0, 67, 95
2, 60000, Note_off_c, 0, 65, 95
2, 60000, Note_off_c, 0, 60, 95
2, 60000, Note_off_c, 0, 57, 95
2, 60000, Note_off_c, 0, 48, 95
2, 60000, Note_on_c, 0, 72, 95
2, 60000, Note_on_c, 0, 67, 95
2, 60000, Note_on_c, 0, 64, 95
2, 60000, Note_on_c, 0, 60, 95
2, 60000, Note_on_c, 0, 55, 95
2, 60000, Note_on_c, 0, 48, 95
2, 60480, Note_off_c, 0, 72, 95
2, 60480, Note_off_c, 0, 67, 95
2, 60480, Note_off_c, 0, 64, 95
2, 60480, Note_off_c, 0, 60, 95
2, 60480, Note_off_c, 0, 55, 95
2, 60480, Note_off_c, 0, 48, 95
2, 60480, Note_on_c, 0, 72, 95
2, 60480, Note_on_c, 0, 67, 95
2, 60480, Note_on_c, 0, 64, 95
2, 60480, Note_on_c, 0, 60, 95
2, 60480, Note_on_c, 0, 55, 95
2, 60480, Note_on_c, 0, 48, 95
2, 60960, Note_off_c, 0, 72, 95
2, 60960, Note_off_c, 0, 67, 95
2, 60960, Note_off_c, 0, 64, 95
2, 60960, Note_off_c, 0, 60, 95
2, 60960, Note_off_c, 0, 55, 95
2, 60960, Note_off_c, 0, 48, 95
2, 60960, Note_on_c, 0, 72, 95
2, 60960, Note_on_c, 0, 67, 95
2, 60960, Note_on_c, 0, 65, 95
2, 60960, Note_on_c, 0, 60, 95
2, 60960, Note_on_c, 0, 57, 95
2, 60960, Note_on_c, 0, 48, 95
2, 61440, Note_off_c, 0, 72, 95
2, 61440, Note_off_c, 0, 67, 95
2, 61440, Note_off_c, 0, 65, 95
2, 61440, Note_off_c, 0, 60, 95
2, 61440, Note_off_c, 0, 57, 95
2, 61440, Note_off_c, 0, 48, 95
2, 61440, Note_on_c, 0, 72, 95
2, 61440, Note_on_c, 0, 67, 95
2, 61440, Note_on_c, 0, 65, 95
2, 61440, Note_on_c, 0, 60, 95
2, 61440, Note_on_c, 0, 57, 95
2, 61440, Note_on_c, 0, 48, 95
2, 61920, Note_off_c, 0, 72, 95
2, 61920, Note_off_c, 0, 67, 95
2, 61920, Note_off_c, 0, 65, 95
2, 61920, Note_off_c, 0, 60, 95
2, 61920, Note_off_c, 0, 57, 95
2, 61920, Note_off_c, 0, 48, 95
2, 61920, Note_on_c, 0, 72, 95
2, 61920, Note_on_c, 0, 67, 95
2, 61920, Note_on_c, 0, 65, 95
2, 61920, Note_on_c, 0, 60, 95
2, 61920, Note_on_c, 0, 57, 95
2, 61920, Note_on_c, 0, 48, 95
2, 62400, Note_off_c, 0, 72, 95
2, 62400, Note_off_c, 0, 67, 95
2, 62400, Note_off_c, 0, 65, 95
2, 62400, Note_off_c, 0, 60, 95
2, 62400, Note_off_c, 0, 57, 95
2, 62400, Note_off_c, 0, 48, 95
2, 62400, Note_on_c, 0, 72, 95
2, 62400, Note_on_c, 0, 67, 95
2, 62400, Note_on_c, 0, 65, 95
2, 62400, Note_on_c, 0, 60, 95
2, 62400, Note_on_c, 0, 57, 95
2, 62400, Note_on_c, 0, 48, 95
2, 62880, Note_off_c, 0, 72, 95
2, 62880, Note_off_c, 0, 67, 95
2, 62880, Note_off_c, 0, 65, 95
2, 62880, Note_off_c, 0, 60, 95
2, 62880, Note_off_c, 0, 57, 95
2, 62880, Note_off_c, 0, 48, 95
2, 62880, Note_on_c, 0, 72, 95
2, 62880, Note_on_c, 0, 67, 95
2, 62880, Note_on_c, 0, 64, 95
2, 62880, Note_on_c, 0, 60, 95
2, 62880, Note_on_c, 0, 55, 95
2, 62880, Note_on_c, 0, 48, 95
2, 63360, Note_off_c, 0, 72, 95
2, 63360, Note_off_c, 0, 67, 95
2, 63360, Note_off_c, 0, 64, 95
2, 63360, Note_off_c, 0, 60, 95
2, 63360, Note_off_c, 0, 55, 95
2, 63360, Note_off_c, 0, 48, 95
2, 63360, Note_on_c, 0, 72, 95
2, 63360, Note_on_c, 0, 67, 95
2, 63360, Note_on_c, 0, 64, 95
2, 63360, Note_on_c, 0, 60, 95
2, 63360, Note_on_c, 0, 55, 95
2, 63360, Note_on_c, 0, 48, 95
2, 63840, Note_off_c, 0, 72, 95
2, 63840, Note_off_c, 0, 67, 95
2, 63840, Note_off_c, 0, 64, 95
2, 63840, Note_off_c, 0, 60, 95
2, 63840, Note_off_c, 0, 55, 95
2, 63840, Note_off_c, 0, 48, 95
2, 63840, Note_on_c, 0, 72, 95
2, 63840, Note_on_c, 0, 67, 95
2, 63840, Note_on_c, 0, 64, 95
2, 63840, Note_on_c, 0, 60, 95
2, 63840, Note_on_c, 0, 55, 95
2, 63840, Note_on_c, 0, 48, 95
2, 64320, Note_off_c, 0, 72, 95
2, 64320, Note_off_c, 0, 67, 95
2, 64320, Note_off_c, 0, 64, 95
2, 64320, Note_off_c, 0, 60, 95
2, 64320, Note_off_c, 0, 55, 95
2, 64320, Note_off_c, 0, 48, 95
2, 64320, Note_on_c, 0, 72, 95
2, 64320, Note_on_c, 0, 67, 95
2, 64320, Note_on_c, 0, 64, 95
2, 64320, Note_on_c, 0, 60, 95
2, 64320, Note_on_c, 0, 55, 95
2, 64320, Note_on_c, 0, 48, 95
2, 64800, Note_off_c, 0, 72, 95
2, 64800, Note_off_c, 0, 67, 95
2, 64800, Note_off_c, 0, 64, 95
2, 64800, Note_off_c, 0, 60, 95
2, 64800, Note_off_c, 0, 55, 95
2, 64800, Note_off_c, 0, 48, 95
2, 64800, Note_on_c, 0, 72, 95
2, 64800, Note_on_c, 0, 67, 95
2, 64800, Note_on_c, 0, 64, 95
2, 64800, Note_on_c, 0, 60, 95
2, 64800, Note_on_c, 0, 55, 95
2, 64800, Note_on_c, 0, 48, 95
2, 65280, Note_off_c, 0, 72, 95
2, 65280, Note_off_c, 0, 67, 95
2, 65280, Note_off_c, 0, 64, 95
2, 65280, Note_off_c, 0, 60, 95
2, 65280, Note_off_c, 0, 55, 95
2, 65280, Note_off_c, 0, 48, 95
2, 65280, Note_on_c, 0, 72, 95
2, 65280, Note_on_c, 0, 67, 95
2, 65280, Note_on_c, 0, 65, 95
2, 65280, Note_on_c, 0, 60, 95
2, 65280, Note_on_c, 0, 57, 95
2, 65280, Note_on_c, 0, 48, 95
2, 65760, Note_off_c, 0, 72, 95
2, 65760, Note_off_c, 0, 67, 95
2, 65760, Note_off_c, 0, 65, 95
2, 65760, Note_off_c, 0, 60, 95
2, 65760, Note_off_c, 0, 57, 95
2, 65760, Note_off_c, 0, 48, 95
2, 65760, Note_on_c, 0, 72, 95
2, 65760, Note_on_c, 0, 67, 95
2, 65760, Note_on_c, 0, 65, 95
2, 65760, Note_on_c, 0, 60, 95
2, 65760, Note_on_c, 0, 57, 95
2, 65760, Note_on_c, 0, 48, 95
2, 66240, Note_off_c, 0, 72, 95
2, 66240, Note_off_c, 0, 67, 95
2, 66240, Note_off_c, 0, 65, 95
2, 66240, Note_off_c, 0, 60, 95
2, 66240, Note_off_c, 0, 57, 95
2, 66240, Note_off_c, 0, 48, 95
2, 66240, Note_on_c, 0, 72, 95
2, 66240, Note_on_c, 0, 67, 95
2, 66240, Note_on_c, 0, 65, 95
2, 66240, Note_on_c, 0, 60, 95
2, 66240, Note_on_c, 0, 57, 95
2, 66240, Note_on_c, 0, 48, 95
2, 66720, Note_off_c, 0, 72, 95
2, 66720, Note_off_c, 0, 67, 95
2, 66720, Note_off_c, 0, 65, 95
2, 66720, Note_off_c, 0, 60, 95
2, 66720, Note_off_c, 0, 57, 95
2, 66720, Note_off_c, 0, 48, 95
2, 66720, Note_on_c, 0, 72, 95
2, 66720, Note_on_c, 0, 67, 95
2, 66720, Note_on_c, 0, 65, 95
2, 66720, Note_on_c, 0, 60, 95
2, 66720, Note_on_c, 0, 57, 95
2, 66720, Note_on_c, 0, 48, 95
2, 67200, Note_off_c, 0, 72, 95
2, 67200, Note_off_c, 0, 67, 95
2, 67200, Note_off_c, 0, 65, 95
2, 67200, Note_off_c, 0, 60, 95
2, 67200, Note_off_c, 0, 57, 95
2, 67200, Note_off_c, 0, 48, 95
2, 67200, Note_on_c, 0, 72, 95
2, 67200, Note_on_c, 0, 67, 95
2, 67200, Note_on_c, 0, 64, 95
2, 67200, Note_on_c, 0, 60, 95
2, 67200, Note_on_c, 0, 55, 95
2, 67200, Note_on_c, 0, 48, 95
2, 67680, Note_off_c, 0, 72, 95
2, 67680, Note_off_c, 0, 67, 95
2, 67680, Note_off_c, 0, 64, 95
2, 67680, Note_off_c, 0, 60, 95
2, 67680, Note_off_c, 0, 55, 95
2, 67680, Note_off_c, 0, 48, 95
2, 67680, Note_on_c, 0, 62, 95
2, 67680, Note_on_c, 0, 57, 95
2, 67680, Note_on_c, 0, 54, 95
2, 67680, Note_on_c, 0, 50, 95
2, 67680, Note_on_c, 0, 45, 95
2, 67680, Note_on_c, 0, 38, 95
2, 67743, Note_off_c, 0, 62, 95
2, 67743, Note_off_c, 0, 57, 95
2, 67743, Note_off_c, 0, 54, 95
2, 67743, Note_off_c, 0, 50, 95
2, 67743, Note_off_c, 0, 45, 95
2, 67743, Note_off_c, 0, 38, 95
2, 68160, Note_on_c, 0, 67, 95
2, 68160, Note_on_c, 0, 62, 95
2, 68160, Note_on_c, 0, 59, 95
2, 68160, Note_on_c, 0, 55, 95
2, 68160, Note_on_c, 0, 50, 95
2, 68160, Note_on_c, 0, 43, 95
2, 68223, Note_off_c, 0, 67, 95
2, 68223, Note_off_c, 0, 62, 95
2, 68223, Note_off_c, 0, 59, 95
2, 68223, Note_off_c, 0, 55, 95
2, 68223, Note_off_c, 0, 50, 95
2, 68223, Note_off_c, 0, 43, 95
2, 68640, Note_on_c, 0, 67, 95
2, 68640, Note_on_c, 0, 62, 95
2, 68640, Note_on_c, 0, 59, 95
2, 68640, Note_on_c, 0, 55, 95
2, 68640, Note_on_c, 0, 50, 95
2, 68640, Note_on_c, 0, 43, 95
2, 69120, Note_off_c, 0, 67, 95
2, 69120, Note_off_c, 0, 62, 95
2, 69120, Note_off_c, 0, 59, 95
2, 69120, Note_off_c, 0, 55, 95
2, 69120, Note_off_c, 0, 50, 95
2, 69120, Note_off_c, 0, 43, 95
2, 69120, Note_on_c, 0, 67, 95
2, 69120, Note_on_c, 0, 62, 95
2, 69120, Note_on_c, 0, 59, 95
2, 69120, Note_on_c, 0, 55, 95
2, 69120, Note_on_c, 0, 50, 95
2, 69120, Note_on_c, 0, 43, 95
2, 69600, Note_off_c, 0, 67, 95
2, 69600, Note_off_c, 0, 62, 95
2, 69600, Note_off_c, 0, 59, 95
2, 69600, Note_off_c, 0, 55, 95
2, 69600, Note_off_c, 0, 50, 95
2, 69600, Note_off_c, 0, 43, 95
2, 69600, Note_on_c, 0, 67, 95
2, 69600, Note_on_c, 0, 62, 95
2, 69600, Note_on_c, 0, 59, 95
2, 69600, Note_on_c, 0, 55, 95
2, 69600, Note_on_c, 0, 50, 95
2, 69600, Note_on_c, 0, 43, 95
2, 70080, Note_off_c, 0, 67, 95
2, 70080, Note_off_c, 0, 62, 95
2, 70080, Note_off_c, 0, 59, 95
2, 70080, Note_off_c, 0, 55, 95
2, 70080, Note_off_c, 0, 50, 95
2, 70080, Note_off_c, 0, 43, 95
2, 70080, Note_on_c, 0, 67, 95
2, 70080, Note_on_c, 0, 62, 95
2, 70080, Note_on_c, 0, 59, 95
2, 70080, Note_on_c, 0, 55, 95
2, 70080, Note_on_c, 0, 50, 95
2, 70080, Note_on_c, 0, 43, 95
2, 70560, Note_off_c, 0, 67, 95
2, 70560, Note_off_c, 0, 62, 95
2, 70560, Note_off_c, 0, 59, 95
2, 70560, Note_off_c, 0, 55, 95
2, 70560, Note_off_c, 0, 50, 95
2, 70560, Note_off_c, 0, 43, 95
2, 70560, Note_on_c, 0, 67, 95
2, 70560, Note_on_c, 0, 62, 95
2, 70560, Note_on_c, 0, 59, 95
2, 70560, Note_on_c, 0, 55, 95
2, 70560, Note_on_c, 0, 50, 95
2, 70560, Note_on_c, 0, 43, 95
2, 71040, Note_off_c, 0, 67, 95
2, 71040, Note_off_c, 0, 62, 95
2, 71040, Note_off_c, 0, 59, 95
2, 71040, Note_off_c, 0, 55, 95
2, 71040, Note_off_c, 0, 50, 95
2, 71040, Note_off_c, 0, 43, 95
2, 71040, Note_on_c, 0, 67, 95
2, 71040, Note_on_c, 0, 62, 95
2, 71040, Note_on_c, 0, 59, 95
2, 71040, Note_on_c, 0, 55, 95
2, 71040, Note_on_c, 0, 50, 95
2, 71040, Note_on_c, 0, 43, 95
2, 71520, Note_off_c, 0, 67, 95
2, 71520, Note_off_c, 0, 62, 95
2, 71520, Note_off_c, 0, 59, 95
2, 71520, Note_off_c, 0, 55, 95
2, 71520, Note_off_c, 0, 50, 95
2, 71520, Note_off_c, 0, 43, 95
2, 71520, Note_on_c, 0, 67, 95
2, 71520, Note_on_c, 0, 62, 95
2, 71520, Note_on_c, 0, 59, 95
2, 71520, Note_on_c, 0, 55, 95
2, 71520, Note_on_c, 0, 50, 95
2, 71520, Note_on_c, 0, 43, 95
2, 72000, Note_off_c, 0, 67, 95
2, 72000, Note_off_c, 0, 62, 95
2, 72000, Note_off_c, 0, 59, 95
2, 72000, Note_off_c, 0, 55, 95
2, 72000, Note_off_c, 0, 50, 95
2, 72000, Note_off_c, 0, 43, 95
2, 72000, Note_on_c, 0, 67, 95
2, 72000, Note_on_c, 0, 62, 95
2, 72000, Note_on_c, 0, 59, 95
2, 72000, Note_on_c, 0, 55, 95
2, 72000, Note_on_c, 0, 50, 95
2, 72000, Note_on_c, 0, 43, 95
2, 72480, Note_off_c, 0, 67, 95
2, 72480, Note_off_c, 0, 62, 95
2, 72480, Note_off_c, 0, 59, 95
2, 72480, Note_off_c, 0, 55, 95
2, 72480, Note_off_c, 0, 50, 95
2, 72480, Note_off_c, 0, 43, 95
2, 72480, Note_on_c, 0, 67, 95
2, 72480, Note_on_c, 0, 62, 95
2, 72480, Note_on_c, 0, 59, 95
2, 72480, Note_on_c, 0, 55, 95
2, 72480, Note_on_c, 0, 50, 95
2, 72480, Note_on_c, 0, 43, 95
2, 72960, Note_off_c, 0, 67, 95
2, 72960, Note_off_c, 0, 62, 95
2, 72960, Note_off_c, 0, 59, 95
2, 72960, Note_off_c, 0, 55, 95
2, 72960, Note_off_c, 0, 50, 95
2, 72960, Note_off_c, 0, 43, 95
2, 72960, Note_on_c, 0, 67, 95
2, 72960, Note_on_c, 0, 62, 95
2, 72960, Note_on_c, 0, 60, 95
2, 72960, Note_on_c, 0, 57, 95
2, 72960, Note_on_c, 0, 50, 95
2, 72960, Note_on_c, 0, 43, 95
2, 73440, Note_off_c, 0, 67, 95
2, 73440, Note_off_c, 0, 62, 95
2, 73440, Note_off_c, 0, 60, 95
2, 73440, Note_off_c, 0, 57, 95
2, 73440, Note_off_c, 0, 50, 95
2, 73440, Note_off_c, 0, 43, 95
2, 73440, Note_on_c, 0, 67, 95
2, 73440, Note_on_c, 0, 62, 95
2, 73440, Note_on_c, 0, 60, 95
2, 73440, Note_on_c, 0, 57, 95
2, 73440, Note_on_c, 0, 50, 95
2, 73440, Note_on_c, 0, 43, 95
2, 73680, Note_off_c, 0, 67, 95
2, 73680, Note_off_c, 0, 62, 95
2, 73680, Note_off_c, 0, 60, 95
2, 73680, Note_off_c, 0, 57, 95
2, 73680, Note_off_c, 0, 50, 95
2, 73680, Note_off_c, 0, 43, 95
2, 73680, Note_on_c, 0, 67, 95
2, 73680, Note_on_c, 0, 62, 95
2, 73680, Note_on_c, 0, 60, 95
2, 73680, Note_on_c, 0, 57, 95
2, 73680, Note_on_c, 0, 50, 95
2, 73680, Note_on_c, 0, 43, 95
2, 73920, Note_off_c, 0, 67, 95
2, 73920, Note_off_c, 0, 62, 95
2, 73920, Note_off_c, 0, 60, 95
2, 73920, Note_off_c, 0, 57, 95
2, 73920, Note_off_c, 0, 50, 95
2, 73920, Note_off_c, 0, 43, 95
2, 73920, Note_on_c, 0, 67, 95
2, 73920, Note_on_c, 0, 62, 95
2, 73920, Note_on_c, 0, 60, 95
2, 73920, Note_on_c, 0, 57, 95
2, 73920, Note_on_c, 0, 50, 95
2, 73920, Note_on_c, 0, 43, 95
2, 74160, Note_off_c, 0, 67, 95
2, 74160, Note_off_c, 0, 62, 95
2, 74160, Note_off_c, 0, 60, 95
2, 74160, Note_off_c, 0, 57, 95
2, 74160, Note_off_c, 0, 50, 95
2, 74160, Note_off_c, 0, 43, 95
2, 74160, Note_on_c, 0, 67, 95
2, 74160, Note_on_c, 0, 62, 95
2, 74160, Note_on_c, 0, 60, 95
2, 74160, Note_on_c, 0, 57, 95
2, 74160, Note_on_c, 0, 50, 95
2, 74160, Note_on_c, 0, 43, 95
2, 74400, Note_off_c, 0, 67, 95
2, 74400, Note_off_c, 0, 62, 95
2, 74400, Note_off_c, 0, 60, 95
2, 74400, Note_off_c, 0, 57, 95
2, 74400, Note_off_c, 0, 50, 95
2, 74400, Note_off_c, 0, 43, 95
2, 74400, Note_on_c, 0, 67, 95
2, 74400, Note_on_c, 0, 62, 95
2, 74400, Note_on_c, 0, 60, 95
2, 74400, Note_on_c, 0, 57, 95
2, 74400, Note_on_c, 0, 50, 95
2, 74400, Note_on_c, 0, 43, 95
2, 74640, Note_off_c, 0, 67, 95
2, 74640, Note_off_c, 0, 62, 95
2, 74640, Note_off_c, 0, 60, 95
2, 74640, Note_off_c, 0, 57, 95
2, 74640, Note_off_c, 0, 50, 95
2, 74640, Note_off_c, 0, 43, 95
2, 74640, Note_on_c, 0, 67, 95
2, 74640, Note_on_c, 0, 62, 95
2, 74640, Note_on_c, 0, 60, 95
2, 74640, Note_on_c, 0, 57, 95
2, 74640, Note_on_c, 0, 50, 95
2, 74640, Note_on_c, 0, 43, 95
2, 74880, Note_off_c, 0, 67, 95
2, 74880, Note_off_c, 0, 62, 95
2, 74880, Note_off_c, 0, 60, 95
2, 74880, Note_off_c, 0, 57, 95
2, 74880, Note_off_c, 0, 50, 95
2, 74880, Note_off_c, 0, 43, 95
2, 74880, Note_on_c, 0, 67, 95
2, 74880, Note_on_c, 0, 62, 95
2, 74880, Note_on_c, 0, 60, 95
2, 74880, Note_on_c, 0, 57, 95
2, 74880, Note_on_c, 0, 50, 95
2, 74880, Note_on_c, 0, 43, 95
2, 75360, Note_off_c, 0, 67, 95
2, 75360, Note_off_c, 0, 62, 95
2, 75360, Note_off_c, 0, 60, 95
2, 75360, Note_off_c, 0, 57, 95
2, 75360, Note_off_c, 0, 50, 95
2, 75360, Note_off_c, 0, 43, 95
2, 75360, Note_on_c, 0, 67, 95
2, 75360, Note_on_c, 0, 62, 95
2, 75360, Note_on_c, 0, 59, 95
2, 75360, Note_on_c, 0, 55, 95
2, 75360, Note_on_c, 0, 50, 95
2, 75360, Note_on_c, 0, 43, 95
2, 75840, Note_off_c, 0, 67, 95
2, 75840, Note_off_c, 0, 62, 95
2, 75840, Note_off_c, 0, 59, 95
2, 75840, Note_off_c, 0, 55, 95
2, 75840, Note_off_c, 0, 50, 95
2, 75840, Note_off_c, 0, 43, 95
2, 75840, Note_on_c, 0, 67, 95
2, 75840, Note_on_c, 0, 62, 95
2, 75840, Note_on_c, 0, 59, 95
2, 75840, Note_on_c, 0, 55, 95
2, 75840, Note_on_c, 0, 50, 95
2, 75840, Note_on_c, 0, 43, 95
2, 76320, Note_off_c, 0, 67, 95
2, 76320, Note_off_c, 0, 62, 95
2, 76320, Note_off_c, 0, 59, 95
2, 76320, Note_off_c, 0, 55, 95
2, 76320, Note_off_c, 0, 50, 95
2, 76320, Note_off_c, 0, 43, 95
2, 76320, Note_on_c, 0, 67, 95
2, 76320, Note_on_c, 0, 62, 95
2, 76320, Note_on_c, 0, 59, 95
2, 76320, Note_on_c, 0, 55, 95
2, 76320, Note_on_c, 0, 50, 95
2, 76320, Note_on_c, 0, 43, 95
2, 76800, Note_off_c, 0, 67, 95
2, 76800, Note_off_c, 0, 62, 95
2, 76800, Note_off_c, 0, 59, 95
2, 76800, Note_off_c, 0, 55, 95
2, 76800, Note_off_c, 0, 50, 95
2, 76800, Note_off_c, 0, 43, 95
2, 76800, Note_on_c, 0, 67, 95
2, 76800, Note_on_c, 0, 62, 95
2, 76800, Note_on_c, 0, 59, 95
2, 76800, Note_on_c, 0, 55, 95
2, 76800, Note_on_c, 0, 50, 95
2, 76800, Note_on_c, 0, 43, 95
2, 77280, Note_off_c, 0, 67, 95
2, 77280, Note_off_c, 0, 62, 95
2, 77280, Note_off_c, 0, 59, 95
2, 77280, Note_off_c, 0, 55, 95
2, 77280, Note_off_c, 0, 50, 95
2, 77280, Note_off_c, 0, 43, 95
2, 77280, Note_on_c, 0, 67, 95
2, 77280, Note_on_c, 0, 62, 95
2, 77280, Note_on_c, 0, 59, 95
2, 77280, Note_on_c, 0, 55, 95
2, 77280, Note_on_c, 0, 50, 95
2, 77280, Note_on_c, 0, 43, 95
2, 77760, Note_off_c, 0, 67, 95
2, 77760, Note_off_c, 0, 62, 95
2, 77760, Note_off_c, 0, 59, 95
2, 77760, Note_off_c, 0, 55, 95
2, 77760, Note_off_c, 0, 50, 95
2, 77760, Note_off_c, 0, 43, 95
2, 77760, Note_on_c, 0, 67, 95
2, 77760, Note_on_c, 0, 62, 95
2, 77760, Note_on_c, 0, 59, 95
2, 77760, Note_on_c, 0, 55, 95
2, 77760, Note_on_c, 0, 50, 95
2, 77760, Note_on_c, 0, 43, 95
2, 78240, Note_off_c, 0, 67, 95
2, 78240, Note_off_c, 0, 62, 95
2, 78240, Note_off_c, 0, 59, 95
2, 78240, Note_off_c, 0, 55, 95
2, 78240, Note_off_c, 0, 50, 95
2, 78240, Note_off_c, 0, 43, 95
2, 78240, Note_on_c, 0, 67, 95
2, 78240, Note_on_c, 0, 62, 95
2, 78240, Note_on_c, 0, 59, 95
2, 78240, Note_on_c, 0, 55, 95
2, 78240, Note_on_c, 0, 50, 95
2, 78240, Note_on_c, 0, 43, 95
2, 78720, Note_off_c, 0, 67, 95
2, 78720, Note_off_c, 0, 62, 95
2, 78720, Note_off_c, 0, 59, 95
2, 78720, Note_off_c, 0, 55, 95
2, 78720, Note_off_c, 0, 50, 95
2, 78720, Note_off_c, 0, 43, 95
2, 78720, Note_on_c, 0, 67, 95
2, 78720, Note_on_c, 0, 62, 95
2, 78720, Note_on_c, 0, 59, 95
2, 78720, Note_on_c, 0, 55, 95
2, 78720, Note_on_c, 0, 50, 95
2, 78720, Note_on_c, 0, 43, 95
2, 79200, Note_off_c, 0, 67, 95
2, 79200, Note_off_c, 0, 62, 95
2, 79200, Note_off_c, 0, 59, 95
2, 79200, Note_off_c, 0, 55, 95
2, 79200, Note_off_c, 0, 50, 95
2, 79200, Note_off_c, 0, 43, 95
2, 79200, Note_on_c, 0, 67, 95
2, 79200, Note_on_c, 0, 62, 95
2, 79200, Note_on_c, 0, 60, 95
2, 79200, Note_on_c, 0, 57, 95
2, 79200, Note_on_c, 0, 50, 95
2, 79200, Note_on_c, 0, 43, 95
2, 79680, Note_off_c, 0, 67, 95
2, 79680, Note_off_c, 0, 62, 95
2, 79680, Note_off_c, 0, 60, 95
2, 79680, Note_off_c, 0, 57, 95
2, 79680, Note_off_c, 0, 50, 95
2, 79680, Note_off_c, 0, 43, 95
2, 79680, Note_on_c, 0, 67, 95
2, 79680, Note_on_c, 0, 62, 95
2, 79680, Note_on_c, 0, 60, 95
2, 79680, Note_on_c, 0, 57, 95
2, 79680, Note_on_c, 0, 50, 95
2, 79680, Note_on_c, 0, 43, 95
2, 80160, Note_off_c, 0, 67, 95
2, 80160, Note_off_c, 0, 62, 95
2, 80160, Note_off_c, 0, 60, 95
2, 80160, Note_off_c, 0, 57, 95
2, 80160, Note_off_c, 0, 50, 95
2, 80160, Note_off_c, 0, 43, 95
2, 80160, Note_on_c, 0, 67, 95
2, 80160, Note_on_c, 0, 62, 95
2, 80160, Note_on_c, 0, 60, 95
2, 80160, Note_on_c, 0, 57, 95
2, 80160, Note_on_c, 0, 50, 95
2, 80160, Note_on_c, 0, 43, 95
2, 80640, Note_off_c, 0, 67, 95
2, 80640, Note_off_c, 0, 62, 95
2, 80640, Note_off_c, 0, 60, 95
2, 80640, Note_off_c, 0, 57, 95
2, 80640, Note_off_c, 0, 50, 95
2, 80640, Note_off_c, 0, 43, 95
2, 80640, Note_on_c, 0, 67, 95
2, 80640, Note_on_c, 0, 62, 95
2, 80640, Note_on_c, 0, 60, 95
2, 80640, Note_on_c, 0, 57, 95
2, 80640, Note_on_c, 0, 50, 95
2, 80640, Note_on_c, 0, 43, 95
2, 81120, Note_off_c, 0, 67, 95
2, 81120, Note_off_c, 0, 62, 95
2, 81120, Note_off_c, 0, 60, 95
2, 81120, Note_off_c, 0, 57, 95
2, 81120, Note_off_c, 0, 50, 95
2, 81120, Note_off_c, 0, 43, 95
2, 81120, Note_on_c, 0, 67, 95
2, 81120, Note_on_c, 0, 62, 95
2, 81120, Note_on_c, 0, 60, 95
2, 81120, Note_on_c, 0, 57, 95
2, 81120, Note_on_c, 0, 50, 95
2, 81120, Note_on_c, 0, 43, 95
2, 81360, Note_off_c, 0, 67, 95
2, 81360, Note_off_c, 0, 62, 95
2, 81360, Note_off_c, 0, 60, 95
2, 81360, Note_off_c, 0, 57, 95
2, 81360, Note_off_c, 0, 50, 95
2, 81360, Note_off_c, 0, 43, 95
2, 81360, Note_on_c, 0, 67, 95
2, 81360, Note_on_c, 0, 62, 95
2, 81360, Note_on_c, 0, 60, 95
2, 81360, Note_on_c, 0, 57, 95
2, 81360, Note_on_c, 0, 50, 95
2, 81360, Note_on_c, 0, 43, 95
2, 81600, Note_off_c, 0, 67, 95
2, 81600, Note_off_c, 0, 62, 95
2, 81600, Note_off_c, 0, 60, 95
2, 81600, Note_off_c, 0, 57, 95
2, 81600, Note_off_c, 0, 50, 95
2, 81600, Note_off_c, 0, 43, 95
2, 81600, Note_on_c, 0, 67, 95
2, 81600, Note_on_c, 0, 62, 95
2, 81600, Note_on_c, 0, 60, 95
2, 81600, Note_on_c, 0, 57, 95
2, 81600, Note_on_c, 0, 50, 95
2, 81600, Note_on_c, 0, 43, 95
2, 81840, Note_off_c, 0, 67, 95
2, 81840, Note_off_c, 0, 62, 95
2, 81840, Note_off_c, 0, 60, 95
2, 81840, Note_off_c, 0, 57, 95
2, 81840, Note_off_c, 0, 50, 95
2, 81840, Note_off_c, 0, 43, 95
2, 81840, Note_on_c, 0, 67, 95
2, 81840, Note_on_c, 0, 62, 95
2, 81840, Note_on_c, 0, 60, 95
2, 81840, Note_on_c, 0, 57, 95
2, 81840, Note_on_c, 0, 50, 95
2, 81840, Note_on_c, 0, 43, 95
2, 82080, Note_off_c, 0, 67, 95
2, 82080, Note_off_c, 0, 62, 95
2, 82080, Note_off_c, 0, 60, 95
2, 82080, Note_off_c, 0, 57, 95
2, 82080, Note_off_c, 0, 50, 95
2, 82080, Note_off_c, 0, 43, 95
2, 82080, Note_on_c, 0, 67, 95
2, 82080, Note_on_c, 0, 62, 95
2, 82080, Note_on_c, 0, 60, 95
2, 82080, Note_on_c, 0, 57, 95
2, 82080, Note_on_c, 0, 50, 95
2, 82080, Note_on_c, 0, 43, 95
2, 82320, Note_off_c, 0, 67, 95
2, 82320, Note_off_c, 0, 62, 95
2, 82320, Note_off_c, 0, 60, 95
2, 82320, Note_off_c, 0, 57, 95
2, 82320, Note_off_c, 0, 50, 95
2, 82320, Note_off_c, 0, 43, 95
2, 82320, Note_on_c, 0, 67, 95
2, 82320, Note_on_c, 0, 62, 95
2, 82320, Note_on_c, 0, 60, 95
2, 82320, Note_on_c, 0, 57, 95
2, 82320, Note_on_c, 0, 50, 95
2, 82320, Note_on_c, 0, 43, 95
2, 82560, Note_off_c, 0, 67, 95
2, 82560, Note_off_c, 0, 62, 95
2, 82560, Note_off_c, 0, 60, 95
2, 82560, Note_off_c, 0, 57, 95
2, 82560, Note_off_c, 0, 50, 95
2, 82560, Note_off_c, 0, 43, 95
2, 82560, Note_on_c, 0, 67, 95
2, 82560, Note_on_c, 0, 62, 95
2, 82560, Note_on_c, 0, 59, 95
2, 82560, Note_on_c, 0, 55, 95
2, 82560, Note_on_c, 0, 50, 95
2, 82560, Note_on_c, 0, 43, 95
2, 83040, Note_off_c, 0, 67, 95
2, 83040, Note_off_c, 0, 62, 95
2, 83040, Note_off_c, 0, 59, 95
2, 83040, Note_off_c, 0, 55, 95
2, 83040, Note_off_c, 0, 50, 95
2, 83040, Note_off_c, 0, 43, 95
2, 83040, Note_on_c, 0, 67, 95
2, 83040, Note_on_c, 0, 62, 95
2, 83040, Note_on_c, 0, 59, 95
2, 83040, Note_on_c, 0, 55, 95
2, 83040, Note_on_c, 0, 50, 95
2, 83040, Note_on_c, 0, 43, 95
2, 83520, Note_off_c, 0, 67, 95
2, 83520, Note_off_c, 0, 62, 95
2, 83520, Note_off_c, 0, 59, 95
2, 83520, Note_off_c, 0, 55, 95
2, 83520, Note_off_c, 0, 50, 95
2, 83520, Note_off_c, 0, 43, 95
2, 83520, Note_on_c, 0, 67, 95
2, 83520, Note_on_c, 0, 62, 95
2, 83520, Note_on_c, 0, 59, 95
2, 83520, Note_on_c, 0, 55, 95
2, 83520, Note_on_c, 0, 50, 95
2, 83520, Note_on_c, 0, 43, 95
2, 84000, Note_off_c, 0, 67, 95
2, 84000, Note_off_c, 0, 62, 95
2, 84000, Note_off_c, 0, 59, 95
2, 84000, Note_off_c, 0, 55, 95
2, 84000, Note_off_c, 0, 50, 95
2, 84000, Note_off_c, 0, 43, 95
2, 84000, Note_on_c, 0, 67, 95
2, 84000, Note_on_c, 0, 62, 95
2, 84000, Note_on_c, 0, 59, 95
2, 84000, Note_on_c, 0, 55, 95
2, 84000, Note_on_c, 0, 50, 95
2, 84000, Note_on_c, 0, 43, 95
2, 84480, Note_off_c, 0, 67, 95
2, 84480, Note_off_c, 0, 62, 95
2, 84480, Note_off_c, 0, 59, 95
2, 84480, Note_off_c, 0, 55, 95
2, 84480, Note_off_c, 0, 50, 95
2, 84480, Note_off_c, 0, 43, 95
2, 84480, Note_on_c, 0, 67, 95
2, 84480, Note_on_c, 0, 62, 95
2, 84480, Note_on_c, 0, 59, 95
2, 84480, Note_on_c, 0, 55, 95
2, 84480, Note_on_c, 0, 50, 95
2, 84480, Note_on_c, 0, 43, 95
2, 84960, Note_off_c, 0, 67, 95
2, 84960, Note_off_c, 0, 62, 95
2, 84960, Note_off_c, 0, 59, 95
2, 84960, Note_off_c, 0, 55, 95
2, 84960, Note_off_c, 0, 50, 95
2, 84960, Note_off_c, 0, 43, 95
2, 84960, Note_on_c, 0, 67, 95
2, 84960, Note_on_c, 0, 62, 95
2, 84960, Note_on_c, 0, 59, 95
2, 84960, Note_on_c, 0, 55, 95
2, 84960, Note_on_c, 0, 50, 95
2, 84960, Note_on_c, 0, 43, 95
2, 85440, Note_off_c, 0, 67, 95
2, 85440, Note_off_c, 0, 62, 95
2, 85440, Note_off_c, 0, 59, 95
2, 85440, Note_off_c, 0, 55, 95
2, 85440, Note_off_c, 0, 50, 95
2, 85440, Note_off_c, 0, 43, 95
2, 85440, Note_on_c, 0, 67, 95
2, 85440, Note_on_c, 0, 62, 95
2, 85440, Note_on_c, 0, 59, 95
2, 85440, Note_on_c, 0, 55, 95
2, 85440, Note_on_c, 0, 50, 95
2, 85440, Note_on_c, 0, 43, 95
2, 85920, Note_off_c, 0, 67, 95
2, 85920, Note_off_c, 0, 62, 95
2, 85920, Note_off_c, 0, 59, 95
2, 85920, Note_off_c, 0, 55, 95
2, 85920, Note_off_c, 0, 50, 95
2, 85920, Note_off_c, 0, 43, 95
2, 85920, Note_on_c, 0, 67, 95
2, 85920, Note_on_c, 0, 62, 95
2, 85920, Note_on_c, 0, 59, 95
2, 85920, Note_on_c, 0, 55, 95
2, 85920, Note_on_c, 0, 50, 95
2, 85920, Note_on_c, 0, 43, 95
2, 86400, Note_off_c, 0, 67, 95
2, 86400, Note_off_c, 0, 62, 95
2, 86400, Note_off_c, 0, 59, 95
2, 86400, Note_off_c, 0, 55, 95
2, 86400, Note_off_c, 0, 50, 95
2, 86400, Note_off_c, 0, 43, 95
2, 86400, Note_on_c, 0, 67, 95
2, 86400, Note_on_c, 0, 62, 95
2, 86400, Note_on_c, 0, 59, 95
2, 86400, Note_on_c, 0, 55, 95
2, 86400, Note_on_c, 0, 50, 95
2, 86400, Note_on_c, 0, 43, 95
2, 86880, Note_off_c, 0, 67, 95
2, 86880, Note_off_c, 0, 62, 95
2, 86880, Note_off_c, 0, 59, 95
2, 86880, Note_off_c, 0, 55, 95
2, 86880, Note_off_c, 0, 50, 95
2, 86880, Note_off_c, 0, 43, 95
2, 86880, Note_on_c, 0, 67, 95
2, 86880, Note_on_c, 0, 62, 95
2, 86880, Note_on_c, 0, 59, 95
2, 86880, Note_on_c, 0, 55, 95
2, 86880, Note_on_c, 0, 50, 95
2, 86880, Note_on_c, 0, 43, 95
2, 87360, Note_off_c, 0, 67, 95
2, 87360, Note_off_c, 0, 62, 95
2, 87360, Note_off_c, 0, 59, 95
2, 87360, Note_off_c, 0, 55, 95
2, 87360, Note_off_c, 0, 50, 95
2, 87360, Note_off_c, 0, 43, 95
2, 87360, Note_on_c, 0, 67, 95
2, 87360, Note_on_c, 0, 62, 95
2, 87360, Note_on_c, 0, 59, 95
2, 87360, Note_on_c, 0, 55, 95
2, 87360, Note_on_c, 0, 50, 95
2, 87360, Note_on_c, 0, 43, 95
2, 87840, Note_off_c, 0, 67, 95
2, 87840, Note_off_c, 0, 62, 95
2, 87840, Note_off_c, 0, 59, 95
2, 87840, Note_off_c, 0, 55, 95
2, 87840, Note_off_c, 0, 50, 95
2, 87840, Note_off_c, 0, 43, 95
2, 87840, Note_on_c, 0, 67, 95
2, 87840, Note_on_c, 0, 62, 95
2, 87840, Note_on_c, 0, 59, 95
2, 87840, Note_on_c, 0, 55, 95
2, 87840, Note_on_c, 0, 50, 95
2, 87840, Note_on_c, 0, 43, 95
2, 88320, Note_off_c, 0, 67, 95
2, 88320, Note_off_c, 0, 62, 95
2, 88320, Note_off_c, 0, 59, 95
2, 88320, Note_off_c, 0, 55, 95
2, 88320, Note_off_c, 0, 50, 95
2, 88320, Note_off_c, 0, 43, 95
2, 88320, Note_on_c, 0, 67, 95
2, 88320, Note_on_c, 0, 62, 95
2, 88320, Note_on_c, 0, 59, 95
2, 88320, Note_on_c, 0, 55, 95
2, 88320, Note_on_c, 0, 50, 95
2, 88320, Note_on_c, 0, 43, 95
2, 88800, Note_off_c, 0, 67, 95
2, 88800, Note_off_c, 0, 62, 95
2, 88800, Note_off_c, 0, 59, 95
2, 88800, Note_off_c, 0, 55, 95
2, 88800, Note_off_c, 0, 50, 95
2, 88800, Note_off_c, 0, 43, 95
2, 88800, Note_on_c, 0, 67, 95
2, 88800, Note_on_c, 0, 62, 95
2, 88800, Note_on_c, 0, 59, 95
2, 88800, Note_on_c, 0, 55, 95
2, 88800, Note_on_c, 0, 50, 95
2, 88800, Note_on_c, 0, 43, 95
2, 89280, Note_off_c, 0, 67, 95
2, 89280, Note_off_c, 0, 62, 95
2, 89280, Note_off_c, 0, 59, 95
2, 89280, Note_off_c, 0, 55, 95
2, 89280, Note_off_c, 0, 50, 95
2, 89280, Note_off_c, 0, 43, 95
2, 89280, Note_on_c, 0, 67, 95
2, 89280, Note_on_c, 0, 62, 95
2, 89280, Note_on_c, 0, 59, 95
2, 89280, Note_on_c, 0, 55, 95
2, 89280, Note_on_c, 0, 50, 95
2, 89280, Note_on_c, 0, 43, 95
2, 89760, Note_off_c, 0, 67, 95
2, 89760, Note_off_c, 0, 62, 95
2, 89760, Note_off_c, 0, 59, 95
2, 89760, Note_off_c, 0, 55, 95
2, 89760, Note_off_c, 0, 50, 95
2, 89760, Note_off_c, 0, 43, 95
2, 89760, Note_on_c, 0, 67, 95
2, 89760, Note_on_c, 0, 62, 95
2, 89760, Note_on_c, 0, 59, 95
2, 89760, Note_on_c, 0, 55, 95
2, 89760, Note_on_c, 0, 50, 95
2, 89760, Note_on_c, 0, 43, 95
2, 90240, Note_off_c, 0, 67, 95
2, 90240, Note_off_c, 0, 62, 95
2, 90240, Note_off_c, 0, 59, 95
2, 90240, Note_off_c, 0, 55, 95
2, 90240, Note_off_c, 0, 50, 95
2, 90240, Note_off_c, 0, 43, 95
2, 90240, Note_on_c, 0, 67, 95
2, 90240, Note_on_c, 0, 62, 95
2, 90240, Note_on_c, 0, 59, 95
2, 90240, Note_on_c, 0, 55, 95
2, 90240, Note_on_c, 0, 50, 95
2, 90240, Note_on_c, 0, 43, 95
2, 90720, Note_off_c, 0, 67, 95
2, 90720, Note_off_c, 0, 62, 95
2, 90720, Note_off_c, 0, 59, 95
2, 90720, Note_off_c, 0, 55, 95
2, 90720, Note_off_c, 0, 50, 95
2, 90720, Note_off_c, 0, 43, 95
2, 90720, Note_on_c, 0, 67, 95
2, 90720, Note_on_c, 0, 62, 95
2, 90720, Note_on_c, 0, 59, 95
2, 90720, Note_on_c, 0, 55, 95
2, 90720, Note_on_c, 0, 50, 95
2, 90720, Note_on_c, 0, 43, 95
2, 91200, Note_off_c, 0, 67, 95
2, 91200, Note_off_c, 0, 62, 95
2, 91200, Note_off_c, 0, 59, 95
2, 91200, Note_off_c, 0, 55, 95
2, 91200, Note_off_c, 0, 50, 95
2, 91200, Note_off_c, 0, 43, 95
2, 91200, Note_on_c, 0, 67, 95
2, 91200, Note_on_c, 0, 62, 95
2, 91200, Note_on_c, 0, 59, 95
2, 91200, Note_on_c, 0, 55, 95
2, 91200, Note_on_c, 0, 50, 95
2, 91200, Note_on_c, 0, 43, 95
2, 91680, Note_off_c, 0, 67, 95
2, 91680, Note_off_c, 0, 62, 95
2, 91680, Note_off_c, 0, 59, 95
2, 91680, Note_off_c, 0, 55, 95
2, 91680, Note_off_c, 0, 50, 95
2, 91680, Note_off_c, 0, 43, 95
2, 91680, Note_on_c, 0, 67, 95
2, 91680, Note_on_c, 0, 62, 95
2, 91680, Note_on_c, 0, 60, 95
2, 91680, Note_on_c, 0, 57, 95
2, 91680, Note_on_c, 0, 50, 95
2, 91680, Note_on_c, 0, 43, 95
2, 92160, Note_off_c, 0, 67, 95
2, 92160, Note_off_c, 0, 62, 95
2, 92160, Note_off_c, 0, 60, 95
2, 92160, Note_off_c, 0, 57, 95
2, 92160, Note_off_c, 0, 50, 95
2, 92160, Note_off_c, 0, 43, 95
2, 92160, Note_on_c, 0, 67, 95
2, 92160, Note_on_c, 0, 62, 95
2, 92160, Note_on_c, 0, 60, 95
2, 92160, Note_on_c, 0, 57, 95
2, 92160, Note_on_c, 0, 50, 95
2, 92160, Note_on_c, 0, 43, 95
2, 92640, Note_off_c, 0, 67, 95
2, 92640, Note_off_c, 0, 62, 95
2, 92640, Note_off_c, 0, 60, 95
2, 92640, Note_off_c, 0, 57, 95
2, 92640, Note_off_c, 0, 50, 95
2, 92640, Note_off_c, 0, 43, 95
2, 92640, Note_on_c, 0, 67, 95
2, 92640, Note_on_c, 0, 62, 95
2, 92640, Note_on_c, 0, 59, 95
2, 92640, Note_on_c, 0, 55, 95
2, 92640, Note_on_c, 0, 50, 95
2, 92640, Note_on_c, 0, 43, 95
2, 93120, Note_off_c, 0, 67, 95
2, 93120, Note_off_c, 0, 62, 95
2, 93120, Note_off_c, 0, 59, 95
2, 93120, Note_off_c, 0, 55, 95
2, 93120, Note_off_c, 0, 50, 95
2, 93120, Note_off_c, 0, 43, 95
2, 93120, Note_on_c, 0, 67, 95
2, 93120, Note_on_c, 0, 62, 95
2, 93120, Note_on_c, 0, 59, 95
2, 93120, Note_on_c, 0, 55, 95
2, 93120, Note_on_c, 0, 50, 95
2, 93120, Note_on_c, 0, 43, 95
2, 93600, Note_off_c, 0, 67, 95
2, 93600, Note_off_c, 0, 62, 95
2, 93600, Note_off_c, 0, 59, 95
2, 93600, Note_off_c, 0, 55, 95
2, 93600, Note_off_c, 0, 50, 95
2, 93600, Note_off_c, 0, 43, 95
2, 93600, Note_on_c, 0, 67, 95
2, 93600, Note_on_c, 0, 62, 95
2, 93600, Note_on_c, 0, 59, 95
2, 93600, Note_on_c, 0, 55, 95
2, 93600, Note_on_c, 0, 50, 95
2, 93600, Note_on_c, 0, 43, 95
2, 94080, Note_off_c, 0, 67, 95
2, 94080, Note_off_c, 0, 62, 95
2, 94080, Note_off_c, 0, 59, 95
2, 94080, Note_off_c, 0, 55, 95
2, 94080, Note_off_c, 0, 50, 95
2, 94080, Note_off_c, 0, 43, 95
2, 94080, Note_on_c, 0, 67, 95
2, 94080, Note_on_c, 0, 62, 95
2, 94080, Note_on_c, 0, 59, 95
2, 94080, Note_on_c, 0, 55, 95
2, 94080, Note_on_c, 0, 50, 95
2, 94080, Note_on_c, 0, 43, 95
2, 94560, Note_off_c, 0, 67, 95
2, 94560, Note_off_c, 0, 62, 95
2, 94560, Note_off_c, 0, 59, 95
2, 94560, Note_off_c, 0, 55, 95
2, 94560, Note_off_c, 0, 50, 95
2, 94560, Note_off_c, 0, 43, 95
2, 94560, Note_on_c, 0, 67, 95
2, 94560, Note_on_c, 0, 62, 95
2, 94560, Note_on_c, 0, 59, 95
2, 94560, Note_on_c, 0, 55, 95
2, 94560, Note_on_c, 0, 50, 95
2, 94560, Note_on_c, 0, 43, 95
2, 95040, Note_off_c, 0, 67, 95
2, 95040, Note_off_c, 0, 62, 95
2, 95040, Note_off_c, 0, 59, 95
2, 95040, Note_off_c, 0, 55, 95
2, 95040, Note_off_c, 0, 50, 95
2, 95040, Note_off_c, 0, 43, 95
2, 95040, Note_on_c, 0, 67, 95
2, 95040, Note_on_c, 0, 62, 95
2, 95040, Note_on_c, 0, 59, 95
2, 95040, Note_on_c, 0, 55, 95
2, 95040, Note_on_c, 0, 50, 95
2, 95040, Note_on_c, 0, 43, 95
2, 95520, Note_off_c, 0, 67, 95
2, 95520, Note_off_c, 0, 62, 95
2, 95520, Note_off_c, 0, 59, 95
2, 95520, Note_off_c, 0, 55, 95
2, 95520, Note_off_c, 0, 50, 95
2, 95520, Note_off_c, 0, 43, 95
2, 95520, Note_on_c, 0, 62, 95
2, 95520, Note_on_c, 0, 57, 95
2, 95520, Note_on_c, 0, 54, 95
2, 95520, Note_on_c, 0, 50, 95
2, 95520, Note_on_c, 0, 45, 95
2, 95520, Note_on_c, 0, 38, 95
2, 96000, Note_off_c, 0, 62, 95
2, 96000, Note_off_c, 0, 57, 95
2, 96000, Note_off_c, 0, 54, 95
2, 96000, Note_off_c, 0, 50, 95
2, 96000, Note_off_c, 0, 45, 95
2, 96000, Note_off_c, 0, 38, 95
2, 96000, Note_on_c, 0, 62, 95
2, 96000, Note_on_c, 0, 57, 95
2, 96000, Note_on_c, 0, 54, 95
2, 96000, Note_on_c, 0, 50, 95
2, 96000, Note_on_c, 0, 45, 95
2, 96000, Note_on_c, 0, 38, 95
2, 96480, Note_off_c, 0, 62, 95
2, 96480, Note_off_c, 0, 57, 95
2, 96480, Note_off_c, 0, 54, 95
2, 96480, Note_off_c, 0, 50, 95
2, 96480, Note_off_c, 0, 45, 95
2, 96480, Note_off_c, 0, 38, 95
2, 96480, Note_on_c, 0, 62, 95
2, 96480, Note_on_c, 0, 57, 95
2, 96480, Note_on_c, 0, 54, 95
2, 96480, Note_on_c, 0, 50, 95
2, 96480, Note_on_c, 0, 45, 95
2, 96480, Note_on_c, 0, 38, 95
2, 96960, Note_off_c, 0, 62, 95
2, 96960, Note_off_c, 0, 57, 95
2, 96960, Note_off_c, 0, 54, 95
2, 96960, Note_off_c, 0, 50, 95
2, 96960, Note_off_c, 0, 45, 95
2, 96960, Note_off_c, 0, 38, 95
2, 96960, Note_on_c, 0, 62, 95
2, 96960, Note_on_c, 0, 57, 95
2, 96960, Note_on_c, 0, 54, 95
2, 96960, Note_on_c, 0, 50, 95
2, 96960, Note_on_c, 0, 45, 95
2, 96960, Note_on_c, 0, 38, 95
2, 97440, Note_off_c, 0, 62, 95
2, 97440, Note_off_c, 0, 57, 95
2, 97440, Note_off_c, 0, 54, 95
2, 97440, Note_off_c, 0, 50, 95
2, 97440, Note_off_c, 0, 45, 95
2, 97440, Note_off_c, 0, 38, 95
2, 97440, Note_on_c, 0, 62, 95
2, 97440, Note_on_c, 0, 57, 95
2, 97440, Note_on_c, 0, 54, 95
2, 97440, Note_on_c, 0, 50, 95
2, 97440, Note_on_c, 0, 45, 95
2, 97440, Note_on_c, 0, 38, 95
2, 97920, Note_off_c, 0, 62, 95
2, 97920, Note_off_c, 0, 57, 95
2, 97920, Note_off_c, 0, 54, 95
2, 97920, Note_off_c, 0, 50, 95
2, 97920, Note_off_c, 0, 45, 95
2, 97920, Note_off_c, 0, 38, 95
2, 97920, Note_on_c, 0, 62, 95
2, 97920, Note_on_c, 0, 57, 95
2, 97920, Note_on_c, 0, 54, 95
2, 97920, Note_on_c, 0, 50, 95
2, 97920, Note_on_c, 0, 45, 95
2, 97920, Note_on_c, 0, 38, 95
2, 98400, Note_off_c, 0, 62, 95
2, 98400, Note_off_c, 0, 57, 95
2, 98400, Note_off_c, 0, 54, 95
2, 98400, Note_off_c, 0, 50, 95
2, 98400, Note_off_c, 0, 45, 95
2, 98400, Note_off_c, 0, 38, 95
2, 98400, Note_on_c, 0, 62, 95
2, 98400, Note_on_c, 0, 57, 95
2, 98400, Note_on_c, 0, 54, 95
2, 98400, Note_on_c, 0, 50, 95
2, 98400, Note_on_c, 0, 45, 95
2, 98400, Note_on_c, 0, 38, 95
2, 98880, Note_off_c, 0, 62, 95
2, 98880, Note_off_c, 0, 57, 95
2, 98880, Note_off_c, 0, 54, 95
2, 98880, Note_off_c, 0, 50, 95
2, 98880, Note_off_c, 0, 45, 95
2, 98880, Note_off_c, 0, 38, 95
2, 98880, Note_on_c, 0, 62, 95
2, 98880, Note_on_c, 0, 57, 95
2, 98880, Note_on_c, 0, 54, 95
2, 98880, Note_on_c, 0, 50, 95
2, 98880, Note_on_c, 0, 45, 95
2, 98880, Note_on_c, 0, 38, 95
2, 99360, Note_off_c, 0, 62, 95
2, 99360, Note_off_c, 0, 57, 95
2, 99360, Note_off_c, 0, 54, 95
2, 99360, Note_off_c, 0, 50, 95
2, 99360, Note_off_c, 0, 45, 95
2, 99360, Note_off_c, 0, 38, 95
2, 99360, Note_on_c, 0, 62, 95
2, 99360, Note_on_c, 0, 57, 95
2, 99360, Note_on_c, 0, 54, 95
2, 99360, Note_on_c, 0, 50, 95
2, 99360, Note_on_c, 0, 45, 95
2, 99360, Note_on_c, 0, 38, 95
2, 99840, Note_off_c, 0, 62, 95
2, 99840, Note_off_c, 0, 57, 95
2, 99840, Note_off_c, 0, 54, 95
2, 99840, Note_off_c, 0, 50, 95
2, 99840, Note_off_c, 0, 45, 95
2, 99840, Note_off_c, 0, 38, 95
2, 99840, Note_on_c, 0, 62, 95
2, 99840, Note_on_c, 0, 57, 95
2, 99840, Note_on_c, 0, 54, 95
2, 99840, Note_on_c, 0, 50, 95
2, 99840, Note_on_c, 0, 45, 95
2, 99840, Note_on_c, 0, 38, 95
2, 100320, Note_off_c, 0, 62, 95
2, 100320, Note_off_c, 0, 57, 95
2, 100320, Note_off_c, 0, 54, 95
2, 100320, Note_off_c, 0, 50, 95
2, 100320, Note_off_c, 0, 45, 95
2, 100320, Note_off_c, 0, 38, 95
2, 100320, Note_on_c, 0, 62, 95
2, 100320, Note_on_c, 0, 57, 95
2, 100320, Note_on_c, 0, 54, 95
2, 100320, Note_on_c, 0, 50, 95
2, 100320, Note_on_c, 0, 45, 95
2, 100320, Note_on_c, 0, 38, 95
2, 100800, Note_off_c, 0, 62, 95
2, 100800, Note_off_c, 0, 57, 95
2, 100800, Note_off_c, 0, 54, 95
2, 100800, Note_off_c, 0, 50, 95
2, 100800, Note_off_c, 0, 45, 95
2, 100800, Note_off_c, 0, 38, 95
2, 100800, Note_on_c, 0, 62, 95
2, 100800, Note_on_c, 0, 57, 95
2, 100800, Note_on_c, 0, 54, 95
2, 100800, Note_on_c, 0, 50, 95
2, 100800, Note_on_c, 0, 45, 95
2, 100800, Note_on_c, 0, 38, 95
2, 101280, Note_off_c, 0, 62, 95
2, 101280, Note_off_c, 0, 57, 95
2, 101280, Note_off_c, 0, 54, 95
2, 101280, Note_off_c, 0, 50, 95
2, 101280, Note_off_c, 0, 45, 95
2, 101280, Note_off_c, 0, 38, 95
2, 101280, Note_on_c, 0, 62, 95
2, 101280, Note_on_c, 0, 57, 95
2, 101280, Note_on_c, 0, 54, 95
2, 101280, Note_on_c, 0, 50, 95
2, 101280, Note_on_c, 0, 45, 95
2, 101280, Note_on_c, 0, 38, 95
2, 101760, Note_off_c, 0, 62, 95
2, 101760, Note_off_c, 0, 57, 95
2, 101760, Note_off_c, 0, 54, 95
2, 101760, Note_off_c, 0, 50, 95
2, 101760, Note_off_c, 0, 45, 95
2, 101760, Note_off_c, 0, 38, 95
2, 101760, Note_on_c, 0, 62, 95
2, 101760, Note_on_c, 0, 57, 95
2, 101760, Note_on_c, 0, 54, 95
2, 101760, Note_on_c, 0, 50, 95
2, 101760, Note_on_c, 0, 45, 95
2, 101760, Note_on_c, 0, 38, 95
2, 102240, Note_off_c, 0, 62, 95
2, 102240, Note_off_c, 0, 57, 95
2, 102240, Note_off_c, 0, 54, 95
2, 102240, Note_off_c, 0, 50, 95
2, 102240, Note_off_c, 0, 45, 95
2, 102240, Note_off_c, 0, 38, 95
2, 102240, Note_on_c, 0, 62, 95
2, 102240, Note_on_c, 0, 57, 95
2, 102240, Note_on_c, 0, 54, 95
2, 102240, Note_on_c, 0, 50, 95
2, 102240, Note_on_c, 0, 45, 95
2, 102240, Note_on_c, 0, 38, 95
2, 102720, Note_off_c, 0, 62, 95
2, 102720, Note_off_c, 0, 57, 95
2, 102720, Note_off_c, 0, 54, 95
2, 102720, Note_off_c, 0, 50, 95
2, 102720, Note_off_c, 0, 45, 95
2, 102720, Note_off_c, 0, 38, 95
2, 102720, Note_on_c, 0, 62, 95
2, 102720, Note_on_c, 0, 57, 95
2, 102720, Note_on_c, 0, 54, 95
2, 102720, Note_on_c, 0, 50, 95
2, 102720, Note_on_c, 0, 45, 95
2, 102720, Note_on_c, 0, 38, 95
2, 103200, Note_off_c, 0, 62, 95
2, 103200, Note_off_c, 0, 57, 95
2, 103200, Note_off_c, 0, 54, 95
2, 103200, Note_off_c, 0, 50, 95
2, 103200, Note_off_c, 0, 45, 95
2, 103200, Note_off_c, 0, 38, 95
2, 103200, Note_on_c, 0, 62, 95
2, 103200, Note_on_c, 0, 57, 95
2, 103200, Note_on_c, 0, 54, 95
2, 103200, Note_on_c, 0, 50, 95
2, 103200, Note_on_c, 0, 45, 95
2, 103200, Note_on_c, 0, 38, 95
2, 103680, Note_off_c, 0, 62, 95
2, 103680, Note_off_c, 0, 57, 95
2, 103680, Note_off_c, 0, 54, 95
2, 103680, Note_off_c, 0, 50, 95
2, 103680, Note_off_c, 0, 45, 95
2, 103680, Note_off_c, 0, 38, 95
2, 103680, Note_on_c, 0, 62, 95
2, 103680, Note_on_c, 0, 57, 95
2, 103680, Note_on_c, 0, 54, 95
2, 103680, Note_on_c, 0, 50, 95
2, 103680, Note_on_c, 0, 45, 95
2, 103680, Note_on_c, 0, 38, 95
2, 104160, Note_off_c, 0, 62, 95
2, 104160, Note_off_c, 0, 57, 95
2, 104160, Note_off_c, 0, 54, 95
2, 104160, Note_off_c, 0, 50, 95
2, 104160, Note_off_c, 0, 45, 95
2, 104160, Note_off_c, 0, 38, 95
2, 104160, Note_on_c, 0, 62, 95
2, 104160, Note_on_c, 0, 57, 95
2, 104160, Note_on_c, 0, 54, 95
2, 104160, Note_on_c, 0, 50, 95
2, 104160, Note_on_c, 0, 45, 95
2, 104160, Note_on_c, 0, 38, 95
2, 104640, Note_off_c, 0, 62, 95
2, 104640, Note_off_c, 0, 57, 95
2, 104640, Note_off_c, 0, 54, 95
2, 104640, Note_off_c, 0, 50, 95
2, 104640, Note_off_c, 0, 45, 95
2, 104640, Note_off_c, 0, 38, 95
2, 104640, Note_on_c, 0, 62, 95
2, 104640, Note_on_c, 0, 57, 95
2, 104640, Note_on_c, 0, 54, 95
2, 104640, Note_on_c, 0, 50, 95
2, 104640, Note_on_c, 0, 45, 95
2, 104640, Note_on_c, 0, 38, 95
2, 105120, Note_off_c, 0, 62, 95
2, 105120, Note_off_c, 0, 57, 95
2, 105120, Note_off_c, 0, 54, 95
2, 105120, Note_off_c, 0, 50, 95
2, 105120, Note_off_c, 0, 45, 95
2, 105120, Note_off_c, 0, 38, 95
2, 105120, Note_on_c, 0, 62, 95
2, 105120, Note_on_c, 0, 57, 95
2, 105120, Note_on_c, 0, 54, 95
2, 105120, Note_on_c, 0, 50, 95
2, 105120, Note_on_c, 0, 45, 95
2, 105120, Note_on_c, 0, 38, 95
2, 105600, Note_off_c, 0, 62, 95
2, 105600, Note_off_c, 0, 57, 95
2, 105600, Note_off_c, 0, 54, 95
2, 105600, Note_off_c, 0, 50, 95
2, 105600, Note_off_c, 0, 45, 95
2, 105600, Note_off_c, 0, 38, 95
2, 105600, Note_on_c, 0, 62, 95
2, 105600, Note_on_c, 0, 57, 95
2, 105600, Note_on_c, 0, 54, 95
2, 105600, Note_on_c, 0, 50, 95
2, 105600, Note_on_c, 0, 45, 95
2, 105600, Note_on_c, 0, 38, 95
2, 106080, Note_off_c, 0, 62, 95
2, 106080, Note_off_c, 0, 57, 95
2, 106080, Note_off_c, 0, 54, 95
2, 106080, Note_off_c, 0, 50, 95
2, 106080, Note_off_c, 0, 45, 95
2, 106080, Note_off_c, 0, 38, 95
2, 106080, Note_on_c, 0, 62, 95
2, 106080, Note_on_c, 0, 57, 95
2, 106080, Note_on_c, 0, 54, 95
2, 106080, Note_on_c, 0, 50, 95
2, 106080, Note_on_c, 0, 45, 95
2, 106080, Note_on_c, 0, 38, 95
2, 106560, Note_off_c, 0, 62, 95
2, 106560, Note_off_c, 0, 57, 95
2, 106560, Note_off_c, 0, 54, 95
2, 106560, Note_off_c, 0, 50, 95
2, 106560, Note_off_c, 0, 45, 95
2, 106560, Note_off_c, 0, 38, 95
2, 106560, Note_on_c, 0, 62, 95
2, 106560, Note_on_c, 0, 57, 95
2, 106560, Note_on_c, 0, 54, 95
2, 106560, Note_on_c, 0, 50, 95
2, 106560, Note_on_c, 0, 45, 95
2, 106560, Note_on_c, 0, 38, 95
2, 107040, Note_off_c, 0, 62, 95
2, 107040, Note_off_c, 0, 57, 95
2, 107040, Note_off_c, 0, 54, 95
2, 107040, Note_off_c, 0, 50, 95
2, 107040, Note_off_c, 0, 45, 95
2, 107040, Note_off_c, 0, 38, 95
2, 107040, Note_on_c, 0, 62, 95
2, 107040, Note_on_c, 0, 57, 95
2, 107040, Note_on_c, 0, 54, 95
2, 107040, Note_on_c, 0, 50, 95
2, 107040, Note_on_c, 0, 45, 95
2, 107040, Note_on_c, 0, 38, 95
2, 107520, Note_off_c, 0, 62, 95
2, 107520, Note_off_c, 0, 57, 95
2, 107520, Note_off_c, 0, 54, 95
2, 107520, Note_off_c, 0, 50, 95
2, 107520, Note_off_c, 0, 45, 95
2, 107520, Note_off_c, 0, 38, 95
2, 107520, Note_on_c, 0, 62, 95
2, 107520, Note_on_c, 0, 57, 95
2, 107520, Note_on_c, 0, 54, 95
2, 107520, Note_on_c, 0, 50, 95
2, 107520, Note_on_c, 0, 45, 95
2, 107520, Note_on_c, 0, 38, 95
2, 108000, Note_off_c, 0, 62, 95
2, 108000, Note_off_c, 0, 57, 95
2, 108000, Note_off_c, 0, 54, 95
2, 108000, Note_off_c, 0, 50, 95
2, 108000, Note_off_c, 0, 45, 95
2, 108000, Note_off_c, 0, 38, 95
2, 108000, Note_on_c, 0, 62, 95
2, 108000, Note_on_c, 0, 57, 95
2, 108000, Note_on_c, 0, 54, 95
2, 108000, Note_on_c, 0, 50, 95
2, 108000, Note_on_c, 0, 45, 95
2, 108000, Note_on_c, 0, 38, 95
2, 108480, Note_off_c, 0, 62, 95
2, 108480, Note_off_c, 0, 57, 95
2, 108480, Note_off_c, 0, 54, 95
2, 108480, Note_off_c, 0, 50, 95
2, 108480, Note_off_c, 0, 45, 95
2, 108480, Note_off_c, 0, 38, 95
2, 108480, Note_on_c, 0, 62, 95
2, 108480, Note_on_c, 0, 57, 95
2, 108480, Note_on_c, 0, 54, 95
2, 108480, Note_on_c, 0, 50, 95
2, 108480, Note_on_c, 0, 45, 95
2, 108480, Note_on_c, 0, 38, 95
2, 108960, Note_off_c, 0, 62, 95
2, 108960, Note_off_c, 0, 57, 95
2, 108960, Note_off_c, 0, 54, 95
2, 108960, Note_off_c, 0, 50, 95
2, 108960, Note_off_c, 0, 45, 95
2, 108960, Note_off_c, 0, 38, 95
2, 108960, Note_on_c, 0, 62, 95
2, 108960, Note_on_c, 0, 57, 95
2, 108960, Note_on_c, 0, 54, 95
2, 108960, Note_on_c, 0, 50, 95
2, 108960, Note_on_c, 0, 45, 95
2, 108960, Note_on_c, 0, 38, 95
2, 109440, Note_off_c, 0, 62, 95
2, 109440, Note_off_c, 0, 57, 95
2, 109440, Note_off_c, 0, 54, 95
2, 109440, Note_off_c, 0, 50, 95
2, 109440, Note_off_c, 0, 45, 95
2, 109440, Note_off_c, 0, 38, 95
2, 109440, Note_on_c, 0, 62, 95
2, 109440, Note_on_c, 0, 57, 95
2, 109440, Note_on_c, 0, 54, 95
2, 109440, Note_on_c, 0, 50, 95
2, 109440, Note_on_c, 0, 45, 95
2, 109440, Note_on_c, 0, 38, 95
2, 109920, Note_off_c, 0, 62, 95
2, 109920, Note_off_c, 0, 57, 95
2, 109920, Note_off_c, 0, 54, 95
2, 109920, Note_off_c, 0, 50, 95
2, 109920, Note_off_c, 0, 45, 95
2, 109920, Note_off_c, 0, 38, 95
2, 109920, Note_on_c, 0, 62, 95
2, 109920, Note_on_c, 0, 57, 95
2, 109920, Note_on_c, 0, 54, 95
2, 109920, Note_on_c, 0, 50, 95
2, 109920, Note_on_c, 0, 45, 95
2, 109920, Note_on_c, 0, 38, 95
2, 110400, Note_off_c, 0, 62, 95
2, 110400, Note_off_c, 0, 57, 95
2, 110400, Note_off_c, 0, 54, 95
2, 110400, Note_off_c, 0, 50, 95
2, 110400, Note_off_c, 0, 45, 95
2, 110400, Note_off_c, 0, 38, 95
2, 110400, Note_on_c, 0, 62, 95
2, 110400, Note_on_c, 0, 57, 95
2, 110400, Note_on_c, 0, 54, 95
2, 110400, Note_on_c, 0, 50, 95
2, 110400, Note_on_c, 0, 45, 95
2, 110400, Note_on_c, 0, 38, 95
2, 110880, Note_off_c, 0, 62, 95
2, 110880, Note_off_c, 0, 57, 95
2, 110880, Note_off_c, 0, 54, 95
2, 110880, Note_off_c, 0, 50, 95
2, 110880, Note_off_c, 0, 45, 95
2, 110880, Note_off_c, 0, 38, 95
2, 110880, Note_on_c, 0, 62, 95
2, 110880, Note_on_c, 0, 57, 95
2, 110880, Note_on_c, 0, 54, 95
2, 110880, Note_on_c, 0, 50, 95
2, 110880, Note_on_c, 0, 45, 95
2, 110880, Note_on_c, 0, 38, 95
2, 111360, Note_off_c, 0, 62, 95
2, 111360, Note_off_c, 0, 57, 95
2, 111360, Note_off_c, 0, 54, 95
2, 111360, Note_off_c, 0, 50, 95
2, 111360, Note_off_c, 0, 45, 95
2, 111360, Note_off_c, 0, 38, 95
2, 111360, Note_on_c, 0, 72, 127
2, 111360, Note_on_c, 0, 67, 95
2, 111360, Note_on_c, 0, 64, 95
2, 111360, Note_on_c, 0, 60, 127
2, 111360, Note_on_c, 0, 55, 127
2, 111360, Note_on_c, 0, 48, 127
2, 112320, Note_off_c, 0, 72, 127
2, 112320, Note_off_c, 0, 67, 95
2, 112320, Note_off_c, 0, 64, 95
2, 112320, Note_off_c, 0, 60, 127
2, 112320, Note_off_c, 0, 55, 127
2, 112320, Note_off_c, 0, 48, 127
2, 112320, Note_on_c, 0, 72, 95
2, 112320, Note_on_c, 0, 67, 95
2, 112320, Note_on_c, 0, 64, 95
2, 112320, Note_on_c, 0, 60, 95
2, 112320, Note_on_c, 0, 55, 95
2, 112320, Note_on_c, 0, 48, 95
2, 112800, Note_off_c, 0, 72, 95
2, 112800, Note_off_c, 0, 67, 95
2, 112800, Note_off_c, 0, 64, 95
2, 112800, Note_off_c, 0, 60, 95
2, 112800, Note_off_c, 0, 55, 95
2, 112800, Note_off_c, 0, 48, 95
2, 112800, Note_on_c, 0, 72, 95
2, 112800, Note_on_c, 0, 67, 95
2, 112800, Note_on_c, 0, 64, 95
2, 112800, Note_on_c, 0, 60, 95
2, 112800, Note_on_c, 0, 55, 95
2, 112800, Note_on_c, 0, 48, 95
2, 113280, Note_off_c, 0, 72, 95
2, 113280, Note_off_c, 0, 67, 95
2, 113280, Note_off_c, 0, 64, 95
2, 113280, Note_off_c, 0, 60, 95
2, 113280, Note_off_c, 0, 55, 95
2, 113280, Note_off_c, 0, 48, 95
2, 113280, Note_on_c, 0, 72, 95
2, 113280, Note_on_c, 0, 67, 95
2, 113280, Note_on_c, 0, 64, 95
2, 113280, Note_on_c, 0, 60, 95
2, 113280, Note_on_c, 0, 55, 95
2, 113280, Note_on_c, 0, 48, 95
2, 113760, Note_off_c, 0, 72, 95
2, 113760, Note_off_c, 0, 67, 95
2, 113760, Note_off_c, 0, 64, 95
2, 113760, Note_off_c, 0, 60, 95
2, 113760, Note_off_c, 0, 55, 95
2, 113760, Note_off_c, 0, 48, 95
2, 113760, Note_on_c, 0, 72, 95
2, 113760, Note_on_c, 0, 67, 95
2, 113760, Note_on_c, 0, 64, 95
2, 113760, Note_on_c, 0, 60, 95
2, 113760, Note_on_c, 0, 55, 95
2, 113760, Note_on_c, 0, 48, 95
2, 114240, Note_off_c, 0, 72, 95
2, 114240, Note_off_c, 0, 67, 95
2, 114240, Note_off_c, 0, 64, 95
2, 114240, Note_off_c, 0, 60, 95
2, 114240, Note_off_c, 0, 55, 95
2, 114240, Note_off_c, 0, 48, 95
2, 114240, Note_on_c, 0, 72, 95
2, 114240, Note_on_c, 0, 67, 95
2, 114240, Note_on_c, 0, 64, 95
2, 114240, Note_on_c, 0, 60, 95
2, 114240, Note_on_c, 0, 55, 95
2, 114240, Note_on_c, 0, 48, 95
2, 114720, Note_off_c, 0, 72, 95
2, 114720, Note_off_c, 0, 67, 95
2, 114720, Note_off_c, 0, 64, 95
2, 114720, Note_off_c, 0, 60, 95
2, 114720, Note_off_c, 0, 55, 95
2, 114720, Note_off_c, 0, 48, 95
2, 114720, Note_on_c, 0, 72, 127
2, 114720, Note_on_c, 0, 67, 127
2, 114720, Note_on_c, 0, 65, 127
2, 114720, Note_on_c, 0, 60, 127
2, 114720, Note_on_c, 0, 57, 127
2, 114720, Note_on_c, 0, 48, 127
2, 115680, Note_off_c, 0, 72, 127
2, 115680, Note_off_c, 0, 67, 127
2, 115680, Note_off_c, 0, 65, 127
2, 115680, Note_off_c, 0, 60, 127
2, 115680, Note_off_c, 0, 57, 127
2, 115680, Note_off_c, 0, 48, 127
2, 115680, Note_on_c, 0, 72, 95
2, 115680, Note_on_c, 0, 67, 95
2, 115680, Note_on_c, 0, 65, 95
2, 115680, Note_on_c, 0, 60, 95
2, 115680, Note_on_c, 0, 57, 95
2, 115680, Note_on_c, 0, 48, 95
2, 116160, Note_off_c, 0, 72, 95
2, 116160, Note_off_c, 0, 67, 95
2, 116160, Note_off_c, 0, 65, 95
2, 116160, Note_off_c, 0, 60, 95
2, 116160, Note_off_c, 0, 57, 95
2, 116160, Note_off_c, 0, 48, 95
2, 116160, Note_on_c, 0, 72, 95
2, 116160, Note_on_c, 0, 67, 95
2, 116160, Note_on_c, 0, 65, 95
2, 116160, Note_on_c, 0, 60, 95
2, 116160, Note_on_c, 0, 57, 95
2, 116160, Note_on_c, 0, 48, 95
2, 116400, Note_off_c, 0, 72, 95
2, 116400, Note_off_c, 0, 67, 95
2, 116400, Note_off_c, 0, 65, 95
2, 116400, Note_off_c, 0, 60, 95
2, 116400, Note_off_c, 0, 57, 95
2, 116400, Note_off_c, 0, 48, 95
2, 116400, Note_on_c, 0, 72, 95
2, 116400, Note_on_c, 0, 67, 95
2, 116400, Note_on_c, 0, 65, 95
2, 116400, Note_on_c, 0, 60, 95
2, 116400, Note_on_c, 0, 57, 95
2, 116400, Note_on_c, 0, 48, 95
2, 116640, Note_off_c, 0, 72, 95
2, 116640, Note_off_c, 0, 67, 95
2, 116640, Note_off_c, 0, 65, 95
2, 116640, Note_off_c, 0, 60, 95
2, 116640, Note_off_c, 0, 57, 95
2, 116640, Note_off_c, 0, 48, 95
2, 116640, Note_on_c, 0, 72, 95
2, 116640, Note_on_c, 0, 67, 95
2, 116640, Note_on_c, 0, 65, 95
2, 116640, Note_on_c, 0, 60, 95
2, 116640, Note_on_c, 0, 57, 95
2, 116640, Note_on_c, 0, 48, 95
2, 116880, Note_off_c, 0, 72, 95
2, 116880, Note_off_c, 0, 67, 95
2, 116880, Note_off_c, 0, 65, 95
2, 116880, Note_off_c, 0, 60, 95
2, 116880, Note_off_c, 0, 57, 95
2, 116880, Note_off_c, 0, 48, 95
2, 116880, Note_on_c, 0, 72, 95
2, 116880, Note_on_c, 0, 67, 95
2, 116880, Note_on_c, 0, 65, 95
2, 116880, Note_on_c, 0, 60, 95
2, 116880, Note_on_c, 0, 57, 95
2, 116880, Note_on_c, 0, 48, 95
2, 117120, Note_off_c, 0, 72, 95
2, 117120, Note_off_c, 0, 67, 95
2, 117120, Note_off_c, 0, 65, 95
2, 117120, Note_off_c, 0, 60, 95
2, 117120, Note_off_c, 0, 57, 95
2, 117120, Note_off_c, 0, 48, 95
2, 117120, Note_on_c, 0, 72, 95
2, 117120, Note_on_c, 0, 67, 95
2, 117120, Note_on_c, 0, 65, 95
2, 117120, Note_on_c, 0, 60, 95
2, 117120, Note_on_c, 0, 57, 95
2, 117120, Note_on_c, 0, 48, 95
2, 117600, Note_off_c, 0, 72, 95
2, 117600, Note_off_c, 0, 67, 95
2, 117600, Note_off_c, 0, 65, 95
2, 117600, Note_off_c, 0, 60, 95
2, 117600, Note_off_c, 0, 57, 95
2, 117600, Note_off_c, 0, 48, 95
2, 117600, Note_on_c, 0, 72, 95
2, 117600, Note_on_c, 0, 67, 95
2, 117600, Note_on_c, 0, 65, 95
2, 117600, Note_on_c, 0, 60, 95
2, 117600, Note_on_c, 0, 57, 95
2, 117600, Note_on_c, 0, 48, 95
2, 118080, Note_off_c, 0, 72, 95
2, 118080, Note_off_c, 0, 67, 95
2, 118080, Note_off_c, 0, 65, 95
2, 118080, Note_off_c, 0, 60, 95
2, 118080, Note_off_c, 0, 57, 95
2, 118080, Note_off_c, 0, 48, 95
2, 118080, Note_on_c, 0, 72, 95
2, 118080, Note_on_c, 0, 67, 95
2, 118080, Note_on_c, 0, 65, 95
2, 118080, Note_on_c, 0, 60, 95
2, 118080, Note_on_c, 0, 57, 95
2, 118080, Note_on_c, 0, 48, 95
2, 118560, Note_off_c, 0, 72, 95
2, 118560, Note_off_c, 0, 67, 95
2, 118560, Note_off_c, 0, 65, 95
2, 118560, Note_off_c, 0, 60, 95
2, 118560, Note_off_c, 0, 57, 95
2, 118560, Note_off_c, 0, 48, 95
2, 118560, Note_on_c, 0, 72, 95
2, 118560, Note_on_c, 0, 67, 95
2, 118560, Note_on_c, 0, 64, 95
2, 118560, Note_on_c, 0, 60, 95
2, 118560, Note_on_c, 0, 55, 95
2, 118560, Note_on_c, 0, 48, 95
2, 119040, Note_off_c, 0, 72, 95
2, 119040, Note_off_c, 0, 67, 95
2, 119040, Note_off_c, 0, 64, 95
2, 119040, Note_off_c, 0, 60, 95
2, 119040, Note_off_c, 0, 55, 95
2, 119040, Note_off_c, 0, 48, 95
2, 119040, Note_on_c, 0, 72, 95
2, 119040, Note_on_c, 0, 67, 95
2, 119040, Note_on_c, 0, 64, 95
2, 119040, Note_on_c, 0, 60, 95
2, 119040, Note_on_c, 0, 55, 95
2, 119040, Note_on_c, 0, 48, 95
2, 119520, Note_off_c, 0, 72, 95
2, 119520, Note_off_c, 0, 67, 95
2, 119520, Note_off_c, 0, 64, 95
2, 119520, Note_off_c, 0, 60, 95
2, 119520, Note_off_c, 0, 55, 95
2, 119520, Note_off_c, 0, 48, 95
2, 119520, Note_on_c, 0, 72, 95
2, 119520, Note_on_c, 0, 67, 95
2, 119520, Note_on_c, 0, 64, 95
2, 119520, Note_on_c, 0, 60, 95
2, 119520, Note_on_c, 0, 55, 95
2, 119520, Note_on_c, 0, 48, 95
2, 120000, Note_off_c, 0, 72, 95
2, 120000, Note_off_c, 0, 67, 95
2, 120000, Note_off_c, 0, 64, 95
2, 120000, Note_off_c, 0, 60, 95
2, 120000, Note_off_c, 0, 55, 95
2, 120000, Note_off_c, 0, 48, 95
2, 120000, Note_on_c, 0, 72, 95
2, 120000, Note_on_c, 0, 67, 95
2, 120000, Note_on_c, 0, 64, 95
2, 120000, Note_on_c, 0, 60, 95
2, 120000, Note_on_c, 0, 55, 95
2, 120000, Note_on_c, 0, 48, 95
2, 120960, Note_off_c, 0, 72, 95
2, 120960, Note_off_c, 0, 67, 95
2, 120960, Note_off_c, 0, 64, 95
2, 120960, Note_off_c, 0, 60, 95
2, 120960, Note_off_c, 0, 55, 95
2, 120960, Note_off_c, 0, 48, 95
2, 120960, Note_on_c, 0, 72, 95
2, 120960, Note_on_c, 0, 67, 95
2, 120960, Note_on_c, 0, 64, 95
2, 120960, Note_on_c, 0, 60, 95
2, 120960, Note_on_c, 0, 55, 95
2, 120960, Note_on_c, 0, 48, 95
2, 121440, Note_off_c, 0, 72, 95
2, 121440, Note_off_c, 0, 67, 95
2, 121440, Note_off_c, 0, 64, 95
2, 121440, Note_off_c, 0, 60, 95
2, 121440, Note_off_c, 0, 55, 95
2, 121440, Note_off_c, 0, 48, 95
2, 121440, Note_on_c, 0, 72, 95
2, 121440, Note_on_c, 0, 67, 95
2, 121440, Note_on_c, 0, 64, 95
2, 121440, Note_on_c, 0, 60, 95
2, 121440, Note_on_c, 0, 55, 95
2, 121440, Note_on_c, 0, 48, 95
2, 121920, Note_off_c, 0, 72, 95
2, 121920, Note_off_c, 0, 67, 95
2, 121920, Note_off_c, 0, 64, 95
2, 121920, Note_off_c, 0, 60, 95
2, 121920, Note_off_c, 0, 55, 95
2, 121920, Note_off_c, 0, 48, 95
2, 121920, Note_on_c, 0, 72, 95
2, 121920, Note_on_c, 0, 67, 95
2, 121920, Note_on_c, 0, 64, 95
2, 121920, Note_on_c, 0, 60, 95
2, 121920, Note_on_c, 0, 55, 95
2, 121920, Note_on_c, 0, 48, 95
2, 122400, Note_off_c, 0, 72, 95
2, 122400, Note_off_c, 0, 67, 95
2, 122400, Note_off_c, 0, 64, 95
2, 122400, Note_off_c, 0, 60, 95
2, 122400, Note_off_c, 0, 55, 95
2, 122400, Note_off_c, 0, 48, 95
2, 122400, Note_on_c, 0, 72, 95
2, 122400, Note_on_c, 0, 67, 95
2, 122400, Note_on_c, 0, 65, 95
2, 122400, Note_on_c, 0, 60, 95
2, 122400, Note_on_c, 0, 57, 95
2, 122400, Note_on_c, 0, 48, 95
2, 122880, Note_off_c, 0, 72, 95
2, 122880, Note_off_c, 0, 67, 95
2, 122880, Note_off_c, 0, 65, 95
2, 122880, Note_off_c, 0, 60, 95
2, 122880, Note_off_c, 0, 57, 95
2, 122880, Note_off_c, 0, 48, 95
2, 122880, Note_on_c, 0, 72, 95
2, 122880, Note_on_c, 0, 67, 95
2, 122880, Note_on_c, 0, 65, 95
2, 122880, Note_on_c, 0, 60, 95
2, 122880, Note_on_c, 0, 57, 95
2, 122880, Note_on_c, 0, 48, 95
2, 123360, Note_off_c, 0, 72, 95
2, 123360, Note_off_c, 0, 67, 95
2, 123360, Note_off_c, 0, 65, 95
2, 123360, Note_off_c, 0, 60, 95
2, 123360, Note_off_c, 0, 57, 95
2, 123360, Note_off_c, 0, 48, 95
2, 123360, Note_on_c, 0, 72, 95
2, 123360, Note_on_c, 0, 67, 95
2, 123360, Note_on_c, 0, 65, 95
2, 123360, Note_on_c, 0, 60, 95
2, 123360, Note_on_c, 0, 57, 95
2, 123360, Note_on_c, 0, 48, 95
2, 123840, Note_off_c, 0, 72, 95
2, 123840, Note_off_c, 0, 67, 95
2, 123840, Note_off_c, 0, 65, 95
2, 123840, Note_off_c, 0, 60, 95
2, 123840, Note_off_c, 0, 57, 95
2, 123840, Note_off_c, 0, 48, 95
2, 123840, Note_on_c, 0, 72, 95
2, 123840, Note_on_c, 0, 67, 95
2, 123840, Note_on_c, 0, 64, 95
2, 123840, Note_on_c, 0, 60, 95
2, 123840, Note_on_c, 0, 55, 95
2, 123840, Note_on_c, 0, 48, 95
2, 124320, Note_off_c, 0, 72, 95
2, 124320, Note_off_c, 0, 67, 95
2, 124320, Note_off_c, 0, 64, 95
2, 124320, Note_off_c, 0, 60, 95
2, 124320, Note_off_c, 0, 55, 95
2, 124320, Note_off_c, 0, 48, 95
2, 124320, Note_on_c, 0, 72, 95
2, 124320, Note_on_c, 0, 67, 95
2, 124320, Note_on_c, 0, 65, 95
2, 124320, Note_on_c, 0, 60, 95
2, 124320, Note_on_c, 0, 57, 95
2, 124320, Note_on_c, 0, 48, 95
2, 125280, Note_off_c, 0, 72, 95
2, 125280, Note_off_c, 0, 67, 95
2, 125280, Note_off_c, 0, 65, 95
2, 125280, Note_off_c, 0, 60, 95
2, 125280, Note_off_c, 0, 57, 95
2, 125280, Note_off_c, 0, 48, 95
2, 125280, Note_on_c, 0, 72, 95
2, 125280, Note_on_c, 0, 67, 95
2, 125280, Note_on_c, 0, 65, 95
2, 125280, Note_on_c, 0, 60, 95
2, 125280, Note_on_c, 0, 57, 95
2, 125280, Note_on_c, 0, 48, 95
2, 125760, Note_off_c, 0, 72, 95
2, 125760, Note_off_c, 0, 67, 95
2, 125760, Note_off_c, 0, 65, 95
2, 125760, Note_off_c, 0, 60, 95
2, 125760, Note_off_c, 0, 57, 95
2, 125760, Note_off_c, 0, 48, 95
2, 125760, Note_on_c, 0, 72, 95
2, 125760, Note_on_c, 0, 67, 95
2, 125760, Note_on_c, 0, 64, 95
2, 125760, Note_on_c, 0, 60, 95
2, 125760, Note_on_c, 0, 55, 95
2, 125760, Note_on_c, 0, 48, 95
2, 126240, Note_off_c, 0, 72, 95
2, 126240, Note_off_c, 0, 67, 95
2, 126240, Note_off_c, 0, 64, 95
2, 126240, Note_off_c, 0, 60, 95
2, 126240, Note_off_c, 0, 55, 95
2, 126240, Note_off_c, 0, 48, 95
2, 126240, Note_on_c, 0, 72, 95
2, 126240, Note_on_c, 0, 67, 95
2, 126240, Note_on_c, 0, 65, 95
2, 126240, Note_on_c, 0, 60, 95
2, 126240, Note_on_c, 0, 57, 95
2, 126240, Note_on_c, 0, 48, 95
2, 127200, Note_off_c, 0, 72, 95
2, 127200, Note_off_c, 0, 67, 95
2, 127200, Note_off_c, 0, 65, 95
2, 127200, Note_off_c, 0, 60, 95
2, 127200, Note_off_c, 0, 57, 95
2, 127200, Note_off_c, 0, 48, 95
2, 127200, Note_on_c, 0, 72, 95
2, 127200, Note_on_c, 0, 67, 95
2, 127200, Note_on_c, 0, 65, 95
2, 127200, Note_on_c, 0, 60, 95
2, 127200, Note_on_c, 0, 57, 95
2, 127200, Note_on_c, 0, 48, 95
2, 127680, Note_off_c, 0, 72, 95
2, 127680, Note_off_c, 0, 67, 95
2, 127680, Note_off_c, 0, 65, 95
2, 127680, Note_off_c, 0, 60, 95
2, 127680, Note_off_c, 0, 57, 95
2, 127680, Note_off_c, 0, 48, 95
2, 127680, Note_on_c, 0, 72, 95
2, 127680, Note_on_c, 0, 67, 95
2, 127680, Note_on_c, 0, 64, 95
2, 127680, Note_on_c, 0, 60, 95
2, 127680, Note_on_c, 0, 55, 95
2, 127680, Note_on_c, 0, 48, 95
2, 128160, Note_off_c, 0, 72, 95
2, 128160, Note_off_c, 0, 67, 95
2, 128160, Note_off_c, 0, 64, 95
2, 128160, Note_off_c, 0, 60, 95
2, 128160, Note_off_c, 0, 55, 95
2, 128160, Note_off_c, 0, 48, 95
2, 128160, Note_on_c, 0, 72, 95
2, 128160, Note_on_c, 0, 67, 95
2, 128160, Note_on_c, 0, 65, 95
2, 128160, Note_on_c, 0, 60, 95
2, 128160, Note_on_c, 0, 57, 95
2, 128160, Note_on_c, 0, 48, 95
2, 129120, Note_off_c, 0, 72, 95
2, 129120, Note_off_c, 0, 67, 95
2, 129120, Note_off_c, 0, 65, 95
2, 129120, Note_off_c, 0, 60, 95
2, 129120, Note_off_c, 0, 57, 95
2, 129120, Note_off_c, 0, 48, 95
2, 129120, Note_on_c, 0, 72, 95
2, 129120, Note_on_c, 0, 67, 95
2, 129120, Note_on_c, 0, 65, 95
2, 129120, Note_on_c, 0, 60, 95
2, 129120, Note_on_c, 0, 57, 95
2, 129120, Note_on_c, 0, 48, 95
2, 129600, Note_off_c, 0, 72, 95
2, 129600, Note_off_c, 0, 67, 95
2, 129600, Note_off_c, 0, 65, 95
2, 129600, Note_off_c, 0, 60, 95
2, 129600, Note_off_c, 0, 57, 95
2, 129600, Note_off_c, 0, 48, 95
2, 129600, Note_on_c, 0, 72, 95
2, 129600, Note_on_c, 0, 67, 95
2, 129600, Note_on_c, 0, 64, 95
2, 129600, Note_on_c, 0, 60, 95
2, 129600, Note_on_c, 0, 55, 95
2, 129600, Note_on_c, 0, 48, 95
2, 130080, Note_off_c, 0, 72, 95
2, 130080, Note_off_c, 0, 67, 95
2, 130080, Note_off_c, 0, 64, 95
2, 130080, Note_off_c, 0, 60, 95
2, 130080, Note_off_c, 0, 55, 95
2, 130080, Note_off_c, 0, 48, 95
2, 130080, Note_on_c, 0, 72, 95
2, 130080, Note_on_c, 0, 67, 95
2, 130080, Note_on_c, 0, 65, 95
2, 130080, Note_on_c, 0, 60, 95
2, 130080, Note_on_c, 0, 57, 95
2, 130080, Note_on_c, 0, 48, 95
2, 130560, Note_off_c, 0, 72, 95
2, 130560, Note_off_c, 0, 67, 95
2, 130560, Note_off_c, 0, 65, 95
2, 130560, Note_off_c, 0, 60, 95
2, 130560, Note_off_c, 0, 57, 95
2, 130560, Note_off_c, 0, 48, 95
2, 130560, Note_on_c, 0, 72, 95
2, 130560, Note_on_c, 0, 67, 95
2, 130560, Note_on_c, 0, 65, 95
2, 130560, Note_on_c, 0, 60, 95
2, 130560, Note_on_c, 0, 57, 95
2, 130560, Note_on_c, 0, 48, 95
2, 131040, Note_off_c, 0, 72, 95
2, 131040, Note_off_c, 0, 67, 95
2, 131040, Note_off_c, 0, 65, 95
2, 131040, Note_off_c, 0, 60, 95
2, 131040, Note_off_c, 0, 57, 95
2, 131040, Note_off_c, 0, 48, 95
2, 131040, Note_on_c, 0, 72, 95
2, 131040, Note_on_c, 0, 67, 95
2, 131040, Note_on_c, 0, 65, 95
2, 131040, Note_on_c, 0, 60, 95
2, 131040, Note_on_c, 0, 57, 95
2, 131040, Note_on_c, 0, 48, 95
2, 131520, Note_off_c, 0, 72, 95
2, 131520, Note_off_c, 0, 67, 95
2, 131520, Note_off_c, 0, 65, 95
2, 131520, Note_off_c, 0, 60, 95
2, 131520, Note_off_c, 0, 57, 95
2, 131520, Note_off_c, 0, 48, 95
2, 131520, Note_on_c, 0, 72, 95
2, 131520, Note_on_c, 0, 67, 95
2, 131520, Note_on_c, 0, 64, 95
2, 131520, Note_on_c, 0, 60, 95
2, 131520, Note_on_c, 0, 55, 95
2, 131520, Note_on_c, 0, 48, 95
2, 132000, Note_off_c, 0, 72, 95
2, 132000, Note_off_c, 0, 67, 95
2, 132000, Note_off_c, 0, 64, 95
2, 132000, Note_off_c, 0, 60, 95
2, 132000, Note_off_c, 0, 55, 95
2, 132000, Note_off_c, 0, 48, 95
2, 132000, Note_on_c, 0, 72, 95
2, 132000, Note_on_c, 0, 67, 95
2, 132000, Note_on_c, 0, 65, 95
2, 132000, Note_on_c, 0, 60, 95
2, 132000, Note_on_c, 0, 57, 95
2, 132000, Note_on_c, 0, 48, 95
2, 132480, Note_off_c, 0, 72, 95
2, 132480, Note_off_c, 0, 67, 95
2, 132480, Note_off_c, 0, 65, 95
2, 132480, Note_off_c, 0, 60, 95
2, 132480, Note_off_c, 0, 57, 95
2, 132480, Note_off_c, 0, 48, 95
2, 132480, Note_on_c, 0, 72, 95
2, 132480, Note_on_c, 0, 67, 95
2, 132480, Note_on_c, 0, 65, 95
2, 132480, Note_on_c, 0, 60, 95
2, 132480, Note_on_c, 0, 57, 95
2, 132480, Note_on_c, 0, 48, 95
2, 132960, Note_off_c, 0, 72, 95
2, 132960, Note_off_c, 0, 67, 95
2, 132960, Note_off_c, 0, 65, 95
2, 132960, Note_off_c, 0, 60, 95
2, 132960, Note_off_c, 0, 57, 95
2, 132960, Note_off_c, 0, 48, 95
2, 132960, Note_on_c, 0, 72, 95
2, 132960, Note_on_c, 0, 67, 95
2, 132960, Note_on_c, 0, 65, 95
2, 132960, Note_on_c, 0, 60, 95
2, 132960, Note_on_c, 0, 57, 95
2, 132960, Note_on_c, 0, 48, 95
2, 133440, Note_off_c, 0, 72, 95
2, 133440, Note_off_c, 0, 67, 95
2, 133440, Note_off_c, 0, 65, 95
2, 133440, Note_off_c, 0, 60, 95
2, 133440, Note_off_c, 0, 57, 95
2, 133440, Note_off_c, 0, 48, 95
2, 133440, Note_on_c, 0, 72, 95
2, 133440, Note_on_c, 0, 67, 95
2, 133440, Note_on_c, 0, 64, 95
2, 133440, Note_on_c, 0, 60, 95
2, 133440, Note_on_c, 0, 55, 95
2, 133440, Note_on_c, 0, 48, 95
2, 133920, Note_off_c, 0, 72, 95
2, 133920, Note_off_c, 0, 67, 95
2, 133920, Note_off_c, 0, 64, 95
2, 133920, Note_off_c, 0, 60, 95
2, 133920, Note_off_c, 0, 55, 95
2, 133920, Note_off_c, 0, 48, 95
2, 133920, Note_on_c, 0, 72, 95
2, 133920, Note_on_c, 0, 67, 95
2, 133920, Note_on_c, 0, 65, 95
2, 133920, Note_on_c, 0, 60, 95
2, 133920, Note_on_c, 0, 57, 95
2, 133920, Note_on_c, 0, 48, 95
2, 134400, Note_off_c, 0, 72, 95
2, 134400, Note_off_c, 0, 67, 95
2, 134400, Note_off_c, 0, 65, 95
2, 134400, Note_off_c, 0, 60, 95
2, 134400, Note_off_c, 0, 57, 95
2, 134400, Note_off_c, 0, 48, 95
2, 134400, Note_on_c, 0, 72, 95
2, 134400, Note_on_c, 0, 67, 95
2, 134400, Note_on_c, 0, 65, 95
2, 134400, Note_on_c, 0, 60, 95
2, 134400, Note_on_c, 0, 57, 95
2, 134400, Note_on_c, 0, 48, 95
2, 134880, Note_off_c, 0, 72, 95
2, 134880, Note_off_c, 0, 67, 95
2, 134880, Note_off_c, 0, 65, 95
2, 134880, Note_off_c, 0, 60, 95
2, 134880, Note_off_c, 0, 57, 95
2, 134880, Note_off_c, 0, 48, 95
2, 134880, Note_on_c, 0, 72, 95
2, 134880, Note_on_c, 0, 67, 95
2, 134880, Note_on_c, 0, 65, 95
2, 134880, Note_on_c, 0, 60, 95
2, 134880, Note_on_c, 0, 57, 95
2, 134880, Note_on_c, 0, 48, 95
2, 135360, Note_off_c, 0, 72, 95
2, 135360, Note_off_c, 0, 67, 95
2, 135360, Note_off_c, 0, 65, 95
2, 135360, Note_off_c, 0, 60, 95
2, 135360, Note_off_c, 0, 57, 95
2, 135360, Note_off_c, 0, 48, 95
2, 135360, Note_on_c, 0, 72, 95
2, 135360, Note_on_c, 0, 67, 95
2, 135360, Note_on_c, 0, 65, 95
2, 135360, Note_on_c, 0, 60, 95
2, 135360, Note_on_c, 0, 57, 95
2, 135360, Note_on_c, 0, 48, 95
2, 135840, Note_off_c, 0, 72, 95
2, 135840, Note_off_c, 0, 67, 95
2, 135840, Note_off_c, 0, 65, 95
2, 135840, Note_off_c, 0, 60, 95
2, 135840, Note_off_c, 0, 57, 95
2, 135840, Note_off_c, 0, 48, 95
2, 135840, Note_on_c, 0, 72, 95
2, 135840, Note_on_c, 0, 67, 95
2, 135840, Note_on_c, 0, 65, 95
2, 135840, Note_on_c, 0, 60, 95
2, 135840, Note_on_c, 0, 57, 95
2, 135840, Note_on_c, 0, 48, 95
2, 136320, Note_off_c, 0, 72, 95
2, 136320, Note_off_c, 0, 67, 95
2, 136320, Note_off_c, 0, 65, 95
2, 136320, Note_off_c, 0, 60, 95
2, 136320, Note_off_c, 0, 57, 95
2, 136320, Note_off_c, 0, 48, 95
2, 136320, Note_on_c, 0, 72, 95
2, 136320, Note_on_c, 0, 67, 95
2, 136320, Note_on_c, 0, 64, 95
2, 136320, Note_on_c, 0, 60, 95
2, 136320, Note_on_c, 0, 55, 95
2, 136320, Note_on_c, 0, 48, 95
2, 136800, Note_off_c, 0, 72, 95
2, 136800, Note_off_c, 0, 67, 95
2, 136800, Note_off_c, 0, 64, 95
2, 136800, Note_off_c, 0, 60, 95
2, 136800, Note_off_c, 0, 55, 95
2, 136800, Note_off_c, 0, 48, 95
2, 136800, Note_on_c, 0, 72, 95
2, 136800, Note_on_c, 0, 67, 95
2, 136800, Note_on_c, 0, 64, 95
2, 136800, Note_on_c, 0, 60, 95
2, 136800, Note_on_c, 0, 55, 95
2, 136800, Note_on_c, 0, 48, 95
2, 137280, Note_off_c, 0, 72, 95
2, 137280, Note_off_c, 0, 67, 95
2, 137280, Note_off_c, 0, 64, 95
2, 137280, Note_off_c, 0, 60, 95
2, 137280, Note_off_c, 0, 55, 95
2, 137280, Note_off_c, 0, 48, 95
2, 137280, Note_on_c, 0, 72, 95
2, 137280, Note_on_c, 0, 67, 95
2, 137280, Note_on_c, 0, 64, 95
2, 137280, Note_on_c, 0, 60, 95
2, 137280, Note_on_c, 0, 55, 95
2, 137280, Note_on_c, 0, 48, 95
2, 137760, Note_off_c, 0, 72, 95
2, 137760, Note_off_c, 0, 67, 95
2, 137760, Note_off_c, 0, 64, 95
2, 137760, Note_off_c, 0, 60, 95
2, 137760, Note_off_c, 0, 55, 95
2, 137760, Note_off_c, 0, 48, 95
2, 137760, Note_on_c, 0, 72, 95
2, 137760, Note_on_c, 0, 67, 95
2, 137760, Note_on_c, 0, 64, 95
2, 137760, Note_on_c, 0, 60, 95
2, 137760, Note_on_c, 0, 55, 95
2, 137760, Note_on_c, 0, 48, 95
2, 138240, Note_off_c, 0, 72, 95
2, 138240, Note_off_c, 0, 67, 95
2, 138240, Note_off_c, 0, 64, 95
2, 138240, Note_off_c, 0, 60, 95
2, 138240, Note_off_c, 0, 55, 95
2, 138240, Note_off_c, 0, 48, 95
2, 138240, Note_on_c, 0, 72, 95
2, 138240, Note_on_c, 0, 67, 95
2, 138240, Note_on_c, 0, 65, 95
2, 138240, Note_on_c, 0, 60, 95
2, 138240, Note_on_c, 0, 57, 95
2, 138240, Note_on_c, 0, 48, 95
2, 138720, Note_off_c, 0, 72, 95
2, 138720, Note_off_c, 0, 67, 95
2, 138720, Note_off_c, 0, 65, 95
2, 138720, Note_off_c, 0, 60, 95
2, 138720, Note_off_c, 0, 57, 95
2, 138720, Note_off_c, 0, 48, 95
2, 138720, Note_on_c, 0, 72, 95
2, 138720, Note_on_c, 0, 67, 95
2, 138720, Note_on_c, 0, 65, 95
2, 138720, Note_on_c, 0, 60, 95
2, 138720, Note_on_c, 0, 57, 95
2, 138720, Note_on_c, 0, 48, 95
2, 139200, Note_off_c, 0, 72, 95
2, 139200, Note_off_c, 0, 67, 95
2, 139200, Note_off_c, 0, 65, 95
2, 139200, Note_off_c, 0, 60, 95
2, 139200, Note_off_c, 0, 57, 95
2, 139200, Note_off_c, 0, 48, 95
2, 139200, Note_on_c, 0, 72, 95
2, 139200, Note_on_c, 0, 67, 95
2, 139200, Note_on_c, 0, 65, 95
2, 139200, Note_on_c, 0, 60, 95
2, 139200, Note_on_c, 0, 57, 95
2, 139200, Note_on_c, 0, 48, 95
2, 140160, Note_off_c, 0, 72, 95
2, 140160, Note_off_c, 0, 67, 95
2, 140160, Note_off_c, 0, 65, 95
2, 140160, Note_off_c, 0, 60, 95
2, 140160, Note_off_c, 0, 57, 95
2, 140160, Note_off_c, 0, 48, 95
2, 140160, Note_on_c, 0, 72, 95
2, 140160, Note_on_c, 0, 67, 95
2, 140160, Note_on_c, 0, 65, 95
2, 140160, Note_on_c, 0, 60, 95
2, 140160, Note_on_c, 0, 57, 95
2, 140160, Note_on_c, 0, 48, 95
2, 140640, Note_off_c, 0, 72, 95
2, 140640, Note_off_c, 0, 67, 95
2, 140640, Note_off_c, 0, 65, 95
2, 140640, Note_off_c, 0, 60, 95
2, 140640, Note_off_c, 0, 57, 95
2, 140640, Note_off_c, 0, 48, 95
2, 140640, Note_on_c, 0, 72, 95
2, 140640, Note_on_c, 0, 67, 95
2, 140640, Note_on_c, 0, 64, 95
2, 140640, Note_on_c, 0, 60, 95
2, 140640, Note_on_c, 0, 55, 95
2, 140640, Note_on_c, 0, 48, 95
2, 141600, Note_off_c, 0, 72, 95
2, 141600, Note_off_c, 0, 67, 95
2, 141600, Note_off_c, 0, 64, 95
2, 141600, Note_off_c, 0, 60, 95
2, 141600, Note_off_c, 0, 55, 95
2, 141600, Note_off_c, 0, 48, 95
2, 141600, Note_on_c, 0, 72, 95
2, 141600, Note_on_c, 0, 67, 95
2, 141600, Note_on_c, 0, 65, 95
2, 141600, Note_on_c, 0, 60, 95
2, 141600, Note_on_c, 0, 57, 95
2, 141600, Note_on_c, 0, 48, 95
2, 142560, Note_off_c, 0, 72, 95
2, 142560, Note_off_c, 0, 67, 95
2, 142560, Note_off_c, 0, 65, 95
2, 142560, Note_off_c, 0, 60, 95
2, 142560, Note_off_c, 0, 57, 95
2, 142560, Note_off_c, 0, 48, 95
2, 142560, Note_on_c, 0, 72, 95
2, 142560, Note_on_c, 0, 67, 95
2, 142560, Note_on_c, 0, 65, 95
2, 142560, Note_on_c, 0, 60, 95
2, 142560, Note_on_c, 0, 57, 95
2, 142560, Note_on_c, 0, 48, 95
2, 143040, Note_off_c, 0, 72, 95
2, 143040, Note_off_c, 0, 67, 95
2, 143040, Note_off_c, 0, 65, 95
2, 143040, Note_off_c, 0, 60, 95
2, 143040, Note_off_c, 0, 57, 95
2, 143040, Note_off_c, 0, 48, 95
2, 143040, Note_on_c, 0, 72, 95
2, 143040, Note_on_c, 0, 67, 95
2, 143040, Note_on_c, 0, 65, 95
2, 143040, Note_on_c, 0, 60, 95
2, 143040, Note_on_c, 0, 57, 95
2, 143040, Note_on_c, 0, 48, 95
2, 144000, Note_off_c, 0, 72, 95
2, 144000, Note_off_c, 0, 67, 95
2, 144000, Note_off_c, 0, 65, 95
2, 144000, Note_off_c, 0, 60, 95
2, 144000, Note_off_c, 0, 57, 95
2, 144000, Note_off_c, 0, 48, 95
2, 144000, Note_on_c, 0, 72, 95
2, 144000, Note_on_c, 0, 67, 95
2, 144000, Note_on_c, 0, 65, 95
2, 144000, Note_on_c, 0, 60, 95
2, 144000, Note_on_c, 0, 57, 95
2, 144000, Note_on_c, 0, 48, 95
2, 144480, Note_off_c, 0, 72, 95
2, 144480, Note_off_c, 0, 67, 95
2, 144480, Note_off_c, 0, 65, 95
2, 144480, Note_off_c, 0, 60, 95
2, 144480, Note_off_c, 0, 57, 95
2, 144480, Note_off_c, 0, 48, 95
2, 144480, Note_on_c, 0, 72, 95
2, 144480, Note_on_c, 0, 67, 95
2, 144480, Note_on_c, 0, 65, 95
2, 144480, Note_on_c, 0, 60, 95
2, 144480, Note_on_c, 0, 57, 95
2, 144480, Note_on_c, 0, 48, 95
2, 144960, Note_off_c, 0, 72, 95
2, 144960, Note_off_c, 0, 67, 95
2, 144960, Note_off_c, 0, 65, 95
2, 144960, Note_off_c, 0, 60, 95
2, 144960, Note_off_c, 0, 57, 95
2, 144960, Note_off_c, 0, 48, 95
2, 144960, Note_on_c, 0, 72, 95
2, 144960, Note_on_c, 0, 67, 95
2, 144960, Note_on_c, 0, 64, 95
2, 144960, Note_on_c, 0, 60, 95
2, 144960, Note_on_c, 0, 55, 95
2, 144960, Note_on_c, 0, 48, 95
2, 145440, Note_off_c, 0, 72, 95
2, 145440, Note_off_c, 0, 67, 95
2, 145440, Note_off_c, 0, 64, 95
2, 145440, Note_off_c, 0, 60, 95
2, 145440, Note_off_c, 0, 55, 95
2, 145440, Note_off_c, 0, 48, 95
2, 145440, Note_on_c, 0, 72, 95
2, 145440, Note_on_c, 0, 67, 95
2, 145440, Note_on_c, 0, 65, 95
2, 145440, Note_on_c, 0, 60, 95
2, 145440, Note_on_c, 0, 57, 95
2, 145440, Note_on_c, 0, 48, 95
2, 146400, Note_off_c, 0, 72, 95
2, 146400, Note_off_c, 0, 67, 95
2, 146400, Note_off_c, 0, 65, 95
2, 146400, Note_off_c, 0, 60, 95
2, 146400, Note_off_c, 0, 57, 95
2, 146400, Note_off_c, 0, 48, 95
2, 146400, Note_on_c, 0, 72, 95
2, 146400, Note_on_c, 0, 67, 95
2, 146400, Note_on_c, 0, 65, 95
2, 146400, Note_on_c, 0, 60, 95
2, 146400, Note_on_c, 0, 57, 95
2, 146400, Note_on_c, 0, 48, 95
2, 146880, Note_off_c, 0, 72, 95
2, 146880, Note_off_c, 0, 67, 95
2, 146880, Note_off_c, 0, 65, 95
2, 146880, Note_off_c, 0, 60, 95
2, 146880, Note_off_c, 0, 57, 95
2, 146880, Note_off_c, 0, 48, 95
2, 146880, Note_on_c, 0, 72, 95
2, 146880, Note_on_c, 0, 67, 95
2, 146880, Note_on_c, 0, 64, 95
2, 146880, Note_on_c, 0, 60, 95
2, 146880, Note_on_c, 0, 55, 95
2, 146880, Note_on_c, 0, 48, 95
2, 147360, Note_off_c, 0, 72, 95
2, 147360, Note_off_c, 0, 67, 95
2, 147360, Note_off_c, 0, 64, 95
2, 147360, Note_off_c, 0, 60, 95
2, 147360, Note_off_c, 0, 55, 95
2, 147360, Note_off_c, 0, 48, 95
2, 147360, Note_on_c, 0, 72, 95
2, 147360, Note_on_c, 0, 67, 95
2, 147360, Note_on_c, 0, 65, 95
2, 147360, Note_on_c, 0, 60, 95
2, 147360, Note_on_c, 0, 57, 95
2, 147360, Note_on_c, 0, 48, 95
2, 147840, Note_off_c, 0, 72, 95
2, 147840, Note_off_c, 0, 67, 95
2, 147840, Note_off_c, 0, 65, 95
2, 147840, Note_off_c, 0, 60, 95
2, 147840, Note_off_c, 0, 57, 95
2, 147840, Note_off_c, 0, 48, 95
2, 147840, Note_on_c, 0, 72, 95
2, 147840, Note_on_c, 0, 67, 95
2, 147840, Note_on_c, 0, 65, 95
2, 147840, Note_on_c, 0, 60, 95
2, 147840, Note_on_c, 0, 57, 95
2, 147840, Note_on_c, 0, 48, 95
2, 148320, Note_off_c, 0, 72, 95
2, 148320, Note_off_c, 0, 67, 95
2, 148320, Note_off_c, 0, 65, 95
2, 148320, Note_off_c, 0, 60, 95
2, 148320, Note_off_c, 0, 57, 95
2, 148320, Note_off_c, 0, 48, 95
2, 148320, Note_on_c, 0, 72, 95
2, 148320, Note_on_c, 0, 67, 95
2, 148320, Note_on_c, 0, 65, 95
2, 148320, Note_on_c, 0, 60, 95
2, 148320, Note_on_c, 0, 57, 95
2, 148320, Note_on_c, 0, 48, 95
2, 148800, Note_off_c, 0, 72, 95
2, 148800, Note_off_c, 0, 67, 95
2, 148800, Note_off_c, 0, 65, 95
2, 148800, Note_off_c, 0, 60, 95
2, 148800, Note_off_c, 0, 57, 95
2, 148800, Note_off_c, 0, 48, 95
2, 148800, Note_on_c, 0, 72, 95
2, 148800, Note_on_c, 0, 67, 95
2, 148800, Note_on_c, 0, 64, 95
2, 148800, Note_on_c, 0, 60, 95
2, 148800, Note_on_c, 0, 55, 95
2, 148800, Note_on_c, 0, 48, 95
2, 149280, Note_off_c, 0, 72, 95
2, 149280, Note_off_c, 0, 67, 95
2, 149280, Note_off_c, 0, 64, 95
2, 149280, Note_off_c, 0, 60, 95
2, 149280, Note_off_c, 0, 55, 95
2, 149280, Note_off_c, 0, 48, 95
2, 149280, Note_on_c, 0, 72, 95
2, 149280, Note_on_c, 0, 67, 95
2, 149280, Note_on_c, 0, 65, 95
2, 149280, Note_on_c, 0, 60, 95
2, 149280, Note_on_c, 0, 57, 95
2, 149280, Note_on_c, 0, 48, 95
2, 149760, Note_off_c, 0, 72, 95
2, 149760, Note_off_c, 0, 67, 95
2, 149760, Note_off_c, 0, 65, 95
2, 149760, Note_off_c, 0, 60, 95
2, 149760, Note_off_c, 0, 57, 95
2, 149760, Note_off_c, 0, 48, 95
2, 149760, Note_on_c, 0, 72, 95
2, 149760, Note_on_c, 0, 67, 95
2, 149760, Note_on_c, 0, 65, 95
2, 149760, Note_on_c, 0, 60, 95
2, 149760, Note_on_c, 0, 57, 95
2, 149760, Note_on_c, 0, 48, 95
2, 150240, Note_off_c, 0, 72, 95
2, 150240, Note_off_c, 0, 67, 95
2, 150240, Note_off_c, 0, 65, 95
2, 150240, Note_off_c, 0, 60, 95
2, 150240, Note_off_c, 0, 57, 95
2, 150240, Note_off_c, 0, 48, 95
2, 150240, Note_on_c, 0, 72, 95
2, 150240, Note_on_c, 0, 67, 95
2, 150240, Note_on_c, 0, 65, 95
2, 150240, Note_on_c, 0, 60, 95
2, 150240, Note_on_c, 0, 57, 95
2, 150240, Note_on_c, 0, 48, 95
2, 150720, Note_off_c, 0, 72, 95
2, 150720, Note_off_c, 0, 67, 95
2, 150720, Note_off_c, 0, 65, 95
2, 150720, Note_off_c, 0, 60, 95
2, 150720, Note_off_c, 0, 57, 95
2, 150720, Note_off_c, 0, 48, 95
2, 150720, Note_on_c, 0, 72, 95
2, 150720, Note_on_c, 0, 67, 95
2, 150720, Note_on_c, 0, 64, 95
2, 150720, Note_on_c, 0, 60, 95
2, 150720, Note_on_c, 0, 55, 95
2, 150720, Note_on_c, 0, 48, 95
2, 151200, Note_off_c, 0, 72, 95
2, 151200, Note_off_c, 0, 67, 95
2, 151200, Note_off_c, 0, 64, 95
2, 151200, Note_off_c, 0, 60, 95
2, 151200, Note_off_c, 0, 55, 95
2, 151200, Note_off_c, 0, 48, 95
2, 151200, Note_on_c, 0, 72, 95
2, 151200, Note_on_c, 0, 67, 95
2, 151200, Note_on_c, 0, 65, 95
2, 151200, Note_on_c, 0, 60, 95
2, 151200, Note_on_c, 0, 57, 95
2, 151200, Note_on_c, 0, 48, 95
2, 151680, Note_off_c, 0, 72, 95
2, 151680, Note_off_c, 0, 67, 95
2, 151680, Note_off_c, 0, 65, 95
2, 151680, Note_off_c, 0, 60, 95
2, 151680, Note_off_c, 0, 57, 95
2, 151680, Note_off_c, 0, 48, 95
2, 151680, Note_on_c, 0, 72, 95
2, 151680, Note_on_c, 0, 67, 95
2, 151680, Note_on_c, 0, 65, 95
2, 151680, Note_on_c, 0, 60, 95
2, 151680, Note_on_c, 0, 57, 95
2, 151680, Note_on_c, 0, 48, 95
2, 152160, Note_off_c, 0, 72, 95
2, 152160, Note_off_c, 0, 67, 95
2, 152160, Note_off_c, 0, 65, 95
2, 152160, Note_off_c, 0, 60, 95
2, 152160, Note_off_c, 0, 57, 95
2, 152160, Note_off_c, 0, 48, 95
2, 152160, Note_on_c, 0, 72, 95
2, 152160, Note_on_c, 0, 67, 95
2, 152160, Note_on_c, 0, 64, 95
2, 152160, Note_on_c, 0, 60, 95
2, 152160, Note_on_c, 0, 55, 95
2, 152160, Note_on_c, 0, 48, 95
2, 152640, Note_off_c, 0, 72, 95
2, 152640, Note_off_c, 0, 67, 95
2, 152640, Note_off_c, 0, 64, 95
2, 152640, Note_off_c, 0, 60, 95
2, 152640, Note_off_c, 0, 55, 95
2, 152640, Note_off_c, 0, 48, 95
2, 152640, Note_on_c, 0, 72, 95
2, 152640, Note_on_c, 0, 67, 95
2, 152640, Note_on_c, 0, 64, 95
2, 152640, Note_on_c, 0, 60, 95
2, 152640, Note_on_c, 0, 55, 95
2, 152640, Note_on_c, 0, 48, 95
2, 153120, Note_off_c, 0, 72, 95
2, 153120, Note_off_c, 0, 67, 95
2, 153120, Note_off_c, 0, 64, 95
2, 153120, Note_off_c, 0, 60, 95
2, 153120, Note_off_c, 0, 55, 95
2, 153120, Note_off_c, 0, 48, 95
2, 153120, Note_on_c, 0, 72, 95
2, 153120, Note_on_c, 0, 67, 95
2, 153120, Note_on_c, 0, 65, 95
2, 153120, Note_on_c, 0, 60, 95
2, 153120, Note_on_c, 0, 57, 95
2, 153120, Note_on_c, 0, 48, 95
2, 153600, Note_off_c, 0, 72, 95
2, 153600, Note_off_c, 0, 67, 95
2, 153600, Note_off_c, 0, 65, 95
2, 153600, Note_off_c, 0, 60, 95
2, 153600, Note_off_c, 0, 57, 95
2, 153600, Note_off_c, 0, 48, 95
2, 153600, Note_on_c, 0, 72, 95
2, 153600, Note_on_c, 0, 67, 95
2, 153600, Note_on_c, 0, 65, 95
2, 153600, Note_on_c, 0, 60, 95
2, 153600, Note_on_c, 0, 57, 95
2, 153600, Note_on_c, 0, 48, 95
2, 154080, Note_off_c, 0, 72, 95
2, 154080, Note_off_c, 0, 67, 95
2, 154080, Note_off_c, 0, 65, 95
2, 154080, Note_off_c, 0, 60, 95
2, 154080, Note_off_c, 0, 57, 95
2, 154080, Note_off_c, 0, 48, 95
2, 154080, Note_on_c, 0, 72, 95
2, 154080, Note_on_c, 0, 67, 95
2, 154080, Note_on_c, 0, 65, 95
2, 154080, Note_on_c, 0, 60, 95
2, 154080, Note_on_c, 0, 57, 95
2, 154080, Note_on_c, 0, 48, 95
2, 154560, Note_off_c, 0, 72, 95
2, 154560, Note_off_c, 0, 67, 95
2, 154560, Note_off_c, 0, 65, 95
2, 154560, Note_off_c, 0, 60, 95
2, 154560, Note_off_c, 0, 57, 95
2, 154560, Note_off_c, 0, 48, 95
2, 154560, Note_on_c, 0, 72, 95
2, 154560, Note_on_c, 0, 67, 95
2, 154560, Note_on_c, 0, 65, 95
2, 154560, Note_on_c, 0, 60, 95
2, 154560, Note_on_c, 0, 57, 95
2, 154560, Note_on_c, 0, 48, 95
2, 155040, Note_off_c, 0, 72, 95
2, 155040, Note_off_c, 0, 67, 95
2, 155040, Note_off_c, 0, 65, 95
2, 155040, Note_off_c, 0, 60, 95
2, 155040, Note_off_c, 0, 57, 95
2, 155040, Note_off_c, 0, 48, 95
2, 155040, Note_on_c, 0, 72, 95
2, 155040, Note_on_c, 0, 67, 95
2, 155040, Note_on_c, 0, 64, 95
2, 155040, Note_on_c, 0, 60, 95
2, 155040, Note_on_c, 0, 55, 95
2, 155040, Note_on_c, 0, 48, 95
2, 155520, Note_off_c, 0, 72, 95
2, 155520, Note_off_c, 0, 67, 95
2, 155520, Note_off_c, 0, 64, 95
2, 155520, Note_off_c, 0, 60, 95
2, 155520, Note_off_c, 0, 55, 95
2, 155520, Note_off_c, 0, 48, 95
2, 155520, Note_on_c, 0, 72, 95
2, 155520, Note_on_c, 0, 67, 95
2, 155520, Note_on_c, 0, 64, 95
2, 155520, Note_on_c, 0, 60, 95
2, 155520, Note_on_c, 0, 55, 95
2, 155520, Note_on_c, 0, 48, 95
2, 156000, Note_off_c, 0, 72, 95
2, 156000, Note_off_c, 0, 67, 95
2, 156000, Note_off_c, 0, 64, 95
2, 156000, Note_off_c, 0, 60, 95
2, 156000, Note_off_c, 0, 55, 95
2, 156000, Note_off_c, 0, 48, 95
2, 156000, Note_on_c, 0, 72, 95
2, 156000, Note_on_c, 0, 67, 95
2, 156000, Note_on_c, 0, 64, 95
2, 156000, Note_on_c, 0, 60, 95
2, 156000, Note_on_c, 0, 55, 95
2, 156000, Note_on_c, 0, 48, 95
2, 156480, Note_off_c, 0, 72, 95
2, 156480, Note_off_c, 0, 67, 95
2, 156480, Note_off_c, 0, 64, 95
2, 156480, Note_off_c, 0, 60, 95
2, 156480, Note_off_c, 0, 55, 95
2, 156480, Note_off_c, 0, 48, 95
2, 156480, Note_on_c, 0, 72, 95
2, 156480, Note_on_c, 0, 67, 95
2, 156480, Note_on_c, 0, 64, 95
2, 156480, Note_on_c, 0, 60, 95
2, 156480, Note_on_c, 0, 55, 95
2, 156480, Note_on_c, 0, 48, 95
2, 156960, Note_off_c, 0, 72, 95
2, 156960, Note_off_c, 0, 67, 95
2, 156960, Note_off_c, 0, 64, 95
2, 156960, Note_off_c, 0, 60, 95
2, 156960, Note_off_c, 0, 55, 95
2, 156960, Note_off_c, 0, 48, 95
2, 156960, Note_on_c, 0, 72, 95
2, 156960, Note_on_c, 0, 67, 95
2, 156960, Note_on_c, 0, 64, 95
2, 156960, Note_on_c, 0, 60, 95
2, 156960, Note_on_c, 0, 55, 95
2, 156960, Note_on_c, 0, 48, 95
2, 157440, Note_off_c, 0, 72, 95
2, 157440, Note_off_c, 0, 67, 95
2, 157440, Note_off_c, 0, 64, 95
2, 157440, Note_off_c, 0, 60, 95
2, 157440, Note_off_c, 0, 55, 95
2, 157440, Note_off_c, 0, 48, 95
2, 157440, Note_on_c, 0, 72, 95
2, 157440, Note_on_c, 0, 67, 95
2, 157440, Note_on_c, 0, 65, 95
2, 157440, Note_on_c, 0, 60, 95
2, 157440, Note_on_c, 0, 57, 95
2, 157440, Note_on_c, 0, 48, 95
2, 157920, Note_off_c, 0, 72, 95
2, 157920, Note_off_c, 0, 67, 95
2, 157920, Note_off_c, 0, 65, 95
2, 157920, Note_off_c, 0, 60, 95
2, 157920, Note_off_c, 0, 57, 95
2, 157920, Note_off_c, 0, 48, 95
2, 157920, Note_on_c, 0, 72, 95
2, 157920, Note_on_c, 0, 67, 95
2, 157920, Note_on_c, 0, 65, 95
2, 157920, Note_on_c, 0, 60, 95
2, 157920, Note_on_c, 0, 57, 95
2, 157920, Note_on_c, 0, 48, 95
2, 158400, Note_off_c, 0, 72, 95
2, 158400, Note_off_c, 0, 67, 95
2, 158400, Note_off_c, 0, 65, 95
2, 158400, Note_off_c, 0, 60, 95
2, 158400, Note_off_c, 0, 57, 95
2, 158400, Note_off_c, 0, 48, 95
2, 158400, Note_on_c, 0, 72, 95
2, 158400, Note_on_c, 0, 67, 95
2, 158400, Note_on_c, 0, 65, 95
2, 158400, Note_on_c, 0, 60, 95
2, 158400, Note_on_c, 0, 57, 95
2, 158400, Note_on_c, 0, 48, 95
2, 158880, Note_off_c, 0, 72, 95
2, 158880, Note_off_c, 0, 67, 95
2, 158880, Note_off_c, 0, 65, 95
2, 158880, Note_off_c, 0, 60, 95
2, 158880, Note_off_c, 0, 57, 95
2, 158880, Note_off_c, 0, 48, 95
2, 158880, Note_on_c, 0, 72, 95
2, 158880, Note_on_c, 0, 67, 95
2, 158880, Note_on_c, 0, 65, 95
2, 158880, Note_on_c, 0, 60, 95
2, 158880, Note_on_c, 0, 57, 95
2, 158880, Note_on_c, 0, 48, 95
2, 159360, Note_off_c, 0, 72, 95
2, 159360, Note_off_c, 0, 67, 95
2, 159360, Note_off_c, 0, 65, 95
2, 159360, Note_off_c, 0, 60, 95
2, 159360, Note_off_c, 0, 57, 95
2, 159360, Note_off_c, 0, 48, 95
2, 159360, Note_on_c, 0, 72, 95
2, 159360, Note_on_c, 0, 67, 95
2, 159360, Note_on_c, 0, 64, 95
2, 159360, Note_on_c, 0, 60, 95
2, 159360, Note_on_c, 0, 55, 95
2, 159360, Note_on_c, 0, 48, 95
2, 159840, Note_off_c, 0, 72, 95
2, 159840, Note_off_c, 0, 67, 95
2, 159840, Note_off_c, 0, 64, 95
2, 159840, Note_off_c, 0, 60, 95
2, 159840, Note_off_c, 0, 55, 95
2, 159840, Note_off_c, 0, 48, 95
2, 159840, Note_on_c, 0, 62, 95
2, 159840, Note_on_c, 0, 57, 95
2, 159840, Note_on_c, 0, 54, 95
2, 159840, Note_on_c, 0, 50, 95
2, 159840, Note_on_c, 0, 45, 95
2, 159840, Note_on_c, 0, 38, 95
2, 159903, Note_off_c, 0, 62, 95
2, 159903, Note_off_c, 0, 57, 95
2, 159903, Note_off_c, 0, 54, 95
2, 159903, Note_off_c, 0, 50, 95
2, 159903, Note_off_c, 0, 45, 95
2, 159903, Note_off_c, 0, 38, 95
2, 160320, Note_on_c, 0, 67, 95
2, 160320, Note_on_c, 0, 62, 95
2, 160320, Note_on_c, 0, 59, 95
2, 160320, Note_on_c, 0, 55, 95
2, 160320, Note_on_c, 0, 50, 95
2, 160320, Note_on_c, 0, 43, 95
2, 160383, Note_off_c, 0, 67, 95
2, 160383, Note_off_c, 0, 62, 95
2, 160383, Note_off_c, 0, 59, 95
2, 160383, Note_off_c, 0, 55, 95
2, 160383, Note_off_c, 0, 50, 95
2, 160383, Note_off_c, 0, 43, 95
2, 160800, Note_on_c, 0, 67, 95
2, 160800, Note_on_c, 0, 62, 95
2, 160800, Note_on_c, 0, 59, 95
2, 160800, Note_on_c, 0, 55, 95
2, 160800, Note_on_c, 0, 50, 95
2, 160800, Note_on_c, 0, 43, 95
2, 161280, Note_off_c, 0, 67, 95
2, 161280, Note_off_c, 0, 62, 95
2, 161280, Note_off_c, 0, 59, 95
2, 161280, Note_off_c, 0, 55, 95
2, 161280, Note_off_c, 0, 50, 95
2, 161280, Note_off_c, 0, 43, 95
2, 161280, Note_on_c, 0, 67, 95
2, 161280, Note_on_c, 0, 62, 95
2, 161280, Note_on_c, 0, 59, 95
2, 161280, Note_on_c, 0, 55, 95
2, 161280, Note_on_c, 0, 50, 95
2, 161280, Note_on_c, 0, 43, 95
2, 161760, Note_off_c, 0, 67, 95
2, 161760, Note_off_c, 0, 62, 95
2, 161760, Note_off_c, 0, 59, 95
2, 161760, Note_off_c, 0, 55, 95
2, 161760, Note_off_c, 0, 50, 95
2, 161760, Note_off_c, 0, 43, 95
2, 161760, Note_on_c, 0, 67, 95
2, 161760, Note_on_c, 0, 62, 95
2, 161760, Note_on_c, 0, 59, 95
2, 161760, Note_on_c, 0, 55, 95
2, 161760, Note_on_c, 0, 50, 95
2, 161760, Note_on_c, 0, 43, 95
2, 162240, Note_off_c, 0, 67, 95
2, 162240, Note_off_c, 0, 62, 95
2, 162240, Note_off_c, 0, 59, 95
2, 162240, Note_off_c, 0, 55, 95
2, 162240, Note_off_c, 0, 50, 95
2, 162240, Note_off_c, 0, 43, 95
2, 162240, Note_on_c, 0, 67, 95
2, 162240, Note_on_c, 0, 62, 95
2, 162240, Note_on_c, 0, 59, 95
2, 162240, Note_on_c, 0, 55, 95
2, 162240, Note_on_c, 0, 50, 95
2, 162240, Note_on_c, 0, 43, 95
2, 162720, Note_off_c, 0, 67, 95
2, 162720, Note_off_c, 0, 62, 95
2, 162720, Note_off_c, 0, 59, 95
2, 162720, Note_off_c, 0, 55, 95
2, 162720, Note_off_c, 0, 50, 95
2, 162720, Note_off_c, 0, 43, 95
2, 162720, Note_on_c, 0, 67, 95
2, 162720, Note_on_c, 0, 62, 95
2, 162720, Note_on_c, 0, 59, 95
2, 162720, Note_on_c, 0, 55, 95
2, 162720, Note_on_c, 0, 50, 95
2, 162720, Note_on_c, 0, 43, 95
2, 163200, Note_off_c, 0, 67, 95
2, 163200, Note_off_c, 0, 62, 95
2, 163200, Note_off_c, 0, 59, 95
2, 163200, Note_off_c, 0, 55, 95
2, 163200, Note_off_c, 0, 50, 95
2, 163200, Note_off_c, 0, 43, 95
2, 163200, Note_on_c, 0, 67, 95
2, 163200, Note_on_c, 0, 62, 95
2, 163200, Note_on_c, 0, 59, 95
2, 163200, Note_on_c, 0, 55, 95
2, 163200, Note_on_c, 0, 50, 95
2, 163200, Note_on_c, 0, 43, 95
2, 163680, Note_off_c, 0, 67, 95
2, 163680, Note_off_c, 0, 62, 95
2, 163680, Note_off_c, 0, 59, 95
2, 163680, Note_off_c, 0, 55, 95
2, 163680, Note_off_c, 0, 50, 95
2, 163680, Note_off_c, 0, 43, 95
2, 163680, Note_on_c, 0, 67, 95
2, 163680, Note_on_c, 0, 62, 95
2, 163680, Note_on_c, 0, 59, 95
2, 163680, Note_on_c, 0, 55, 95
2, 163680, Note_on_c, 0, 50, 95
2, 163680, Note_on_c, 0, 43, 95
2, 164160, Note_off_c, 0, 67, 95
2, 164160, Note_off_c, 0, 62, 95
2, 164160, Note_off_c, 0, 59, 95
2, 164160, Note_off_c, 0, 55, 95
2, 164160, Note_off_c, 0, 50, 95
2, 164160, Note_off_c, 0, 43, 95
2, 164160, Note_on_c, 0, 67, 95
2, 164160, Note_on_c, 0, 62, 95
2, 164160, Note_on_c, 0, 59, 95
2, 164160, Note_on_c, 0, 55, 95
2, 164160, Note_on_c, 0, 50, 95
2, 164160, Note_on_c, 0, 43, 95
2, 164640, Note_off_c, 0, 67, 95
2, 164640, Note_off_c, 0, 62, 95
2, 164640, Note_off_c, 0, 59, 95
2, 164640, Note_off_c, 0, 55, 95
2, 164640, Note_off_c, 0, 50, 95
2, 164640, Note_off_c, 0, 43, 95
2, 164640, Note_on_c, 0, 67, 95
2, 164640, Note_on_c, 0, 62, 95
2, 164640, Note_on_c, 0, 59, 95
2, 164640, Note_on_c, 0, 55, 95
2, 164640, Note_on_c, 0, 50, 95
2, 164640, Note_on_c, 0, 43, 95
2, 165120, Note_off_c, 0, 67, 95
2, 165120, Note_off_c, 0, 62, 95
2, 165120, Note_off_c, 0, 59, 95
2, 165120, Note_off_c, 0, 55, 95
2, 165120, Note_off_c, 0, 50, 95
2, 165120, Note_off_c, 0, 43, 95
2, 165120, Note_on_c, 0, 67, 95
2, 165120, Note_on_c, 0, 62, 95
2, 165120, Note_on_c, 0, 60, 95
2, 165120, Note_on_c, 0, 57, 95
2, 165120, Note_on_c, 0, 50, 95
2, 165120, Note_on_c, 0, 43, 95
2, 165600, Note_off_c, 0, 67, 95
2, 165600, Note_off_c, 0, 62, 95
2, 165600, Note_off_c, 0, 60, 95
2, 165600, Note_off_c, 0, 57, 95
2, 165600, Note_off_c, 0, 50, 95
2, 165600, Note_off_c, 0, 43, 95
2, 165600, Note_on_c, 0, 67, 95
2, 165600, Note_on_c, 0, 62, 95
2, 165600, Note_on_c, 0, 60, 95
2, 165600, Note_on_c, 0, 57, 95
2, 165600, Note_on_c, 0, 50, 95
2, 165600, Note_on_c, 0, 43, 95
2, 165840, Note_off_c, 0, 67, 95
2, 165840, Note_off_c, 0, 62, 95
2, 165840, Note_off_c, 0, 60, 95
2, 165840, Note_off_c, 0, 57, 95
2, 165840, Note_off_c, 0, 50, 95
2, 165840, Note_off_c, 0, 43, 95
2, 165840, Note_on_c, 0, 67, 95
2, 165840, Note_on_c, 0, 62, 95
2, 165840, Note_on_c, 0, 60, 95
2, 165840, Note_on_c, 0, 57, 95
2, 165840, Note_on_c, 0, 50, 95
2, 165840, Note_on_c, 0, 43, 95
2, 166080, Note_off_c, 0, 67, 95
2, 166080, Note_off_c, 0, 62, 95
2, 166080, Note_off_c, 0, 60, 95
2, 166080, Note_off_c, 0, 57, 95
2, 166080, Note_off_c, 0, 50, 95
2, 166080, Note_off_c, 0, 43, 95
2, 166080, Note_on_c, 0, 67, 95
2, 166080, Note_on_c, 0, 62, 95
2, 166080, Note_on_c, 0, 60, 95
2, 166080, Note_on_c, 0, 57, 95
2, 166080, Note_on_c, 0, 50, 95
2, 166080, Note_on_c, 0, 43, 95
2, 166320, Note_off_c, 0, 67, 95
2, 166320, Note_off_c, 0, 62, 95
2, 166320, Note_off_c, 0, 60, 95
2, 166320, Note_off_c, 0, 57, 95
2, 166320, Note_off_c, 0, 50, 95
2, 166320, Note_off_c, 0, 43, 95
2, 166320, Note_on_c, 0, 67, 95
2, 166320, Note_on_c, 0, 62, 95
2, 166320, Note_on_c, 0, 60, 95
2, 166320, Note_on_c, 0, 57, 95
2, 166320, Note_on_c, 0, 50, 95
2, 166320, Note_on_c, 0, 43, 95
2, 166560, Note_off_c, 0, 67, 95
2, 166560, Note_off_c, 0, 62, 95
2, 166560, Note_off_c, 0, 60, 95
2, 166560, Note_off_c, 0, 57, 95
2, 166560, Note_off_c, 0, 50, 95
2, 166560, Note_off_c, 0, 43, 95
2, 166560, Note_on_c, 0, 67, 95
2, 166560, Note_on_c, 0, 62, 95
2, 166560, Note_on_c, 0, 60, 95
2, 166560, Note_on_c, 0, 57, 95
2, 166560, Note_on_c, 0, 50, 95
2, 166560, Note_on_c, 0, 43, 95
2, 166800, Note_off_c, 0, 67, 95
2, 166800, Note_off_c, 0, 62, 95
2, 166800, Note_off_c, 0, 60, 95
2, 166800, Note_off_c, 0, 57, 95
2, 166800, Note_off_c, 0, 50, 95
2, 166800, Note_off_c, 0, 43, 95
2, 166800, Note_on_c, 0, 67, 95
2, 166800, Note_on_c, 0, 62, 95
2, 166800, Note_on_c, 0, 60, 95
2, 166800, Note_on_c, 0, 57, 95
2, 166800, Note_on_c, 0, 50, 95
2, 166800, Note_on_c, 0, 43, 95
2, 167040, Note_off_c, 0, 67, 95
2, 167040, Note_off_c, 0, 62, 95
2, 167040, Note_off_c, 0, 60, 95
2, 167040, Note_off_c, 0, 57, 95
2, 167040, Note_off_c, 0, 50, 95
2, 167040, Note_off_c, 0, 43, 95
2, 167040, Note_on_c, 0, 67, 95
2, 167040, Note_on_c, 0, 62, 95
2, 167040, Note_on_c, 0, 60, 95
2, 167040, Note_on_c, 0, 57, 95
2, 167040, Note_on_c, 0, 50, 95
2, 167040, Note_on_c, 0, 43, 95
2, 167520, Note_off_c, 0, 67, 95
2, 167520, Note_off_c, 0, 62, 95
2, 167520, Note_off_c, 0, 60, 95
2, 167520, Note_off_c, 0, 57, 95
2, 167520, Note_off_c, 0, 50, 95
2, 167520, Note_off_c, 0, 43, 95
2, 167520, Note_on_c, 0, 67, 95
2, 167520, Note_on_c, 0, 62, 95
2, 167520, Note_on_c, 0, 59, 95
2, 167520, Note_on_c, 0, 55, 95
2, 167520, Note_on_c, 0, 50, 95
2, 167520, Note_on_c, 0, 43, 95
2, 168000, Note_off_c, 0, 67, 95
2, 168000, Note_off_c, 0, 62, 95
2, 168000, Note_off_c, 0, 59, 95
2, 168000, Note_off_c, 0, 55, 95
2, 168000, Note_off_c, 0, 50, 95
2, 168000, Note_off_c, 0, 43, 95
2, 168000, Note_on_c, 0, 67, 95
2, 168000, Note_on_c, 0, 62, 95
2, 168000, Note_on_c, 0, 59, 95
2, 168000, Note_on_c, 0, 55, 95
2, 168000, Note_on_c, 0, 50, 95
2, 168000, Note_on_c, 0, 43, 95
2, 168480, Note_off_c, 0, 67, 95
2, 168480, Note_off_c, 0, 62, 95
2, 168480, Note_off_c, 0, 59, 95
2, 168480, Note_off_c, 0, 55, 95
2, 168480, Note_off_c, 0, 50, 95
2, 168480, Note_off_c, 0, 43, 95
2, 168480, Note_on_c, 0, 67, 95
2, 168480, Note_on_c, 0, 62, 95
2, 168480, Note_on_c, 0, 59, 95
2, 168480, Note_on_c, 0, 55, 95
2, 168480, Note_on_c, 0, 50, 95
2, 168480, Note_on_c, 0, 43, 95
2, 168960, Note_off_c, 0, 67, 95
2, 168960, Note_off_c, 0, 62, 95
2, 168960, Note_off_c, 0, 59, 95
2, 168960, Note_off_c, 0, 55, 95
2, 168960, Note_off_c, 0, 50, 95
2, 168960, Note_off_c, 0, 43, 95
2, 168960, Note_on_c, 0, 67, 95
2, 168960, Note_on_c, 0, 62, 95
2, 168960, Note_on_c, 0, 59, 95
2, 168960, Note_on_c, 0, 55, 95
2, 168960, Note_on_c, 0, 50, 95
2, 168960, Note_on_c, 0, 43, 95
2, 169440, Note_off_c, 0, 67, 95
2, 169440, Note_off_c, 0, 62, 95
2, 169440, Note_off_c, 0, 59, 95
2, 169440, Note_off_c, 0, 55, 95
2, 169440, Note_off_c, 0, 50, 95
2, 169440, Note_off_c, 0, 43, 95
2, 169440, Note_on_c, 0, 67, 95
2, 169440, Note_on_c, 0, 62, 95
2, 169440, Note_on_c, 0, 59, 95
2, 169440, Note_on_c, 0, 55, 95
2, 169440, Note_on_c, 0, 50, 95
2, 169440, Note_on_c, 0, 43, 95
2, 169920, Note_off_c, 0, 67, 95
2, 169920, Note_off_c, 0, 62, 95
2, 169920, Note_off_c, 0, 59, 95
2, 169920, Note_off_c, 0, 55, 95
2, 169920, Note_off_c, 0, 50, 95
2, 169920, Note_off_c, 0, 43, 95
2, 169920, Note_on_c, 0, 67, 95
2, 169920, Note_on_c, 0, 62, 95
2, 169920, Note_on_c, 0, 59, 95
2, 169920, Note_on_c, 0, 55, 95
2, 169920, Note_on_c, 0, 50, 95
2, 169920, Note_on_c, 0, 43, 95
2, 170400, Note_off_c, 0, 67, 95
2, 170400, Note_off_c, 0, 62, 95
2, 170400, Note_off_c, 0, 59, 95
2, 170400, Note_off_c, 0, 55, 95
2, 170400, Note_off_c, 0, 50, 95
2, 170400, Note_off_c, 0, 43, 95
2, 170400, Note_on_c, 0, 67, 95
2, 170400, Note_on_c, 0, 62, 95
2, 170400, Note_on_c, 0, 59, 95
2, 170400, Note_on_c, 0, 55, 95
2, 170400, Note_on_c, 0, 50, 95
2, 170400, Note_on_c, 0, 43, 95
2, 170880, Note_off_c, 0, 67, 95
2, 170880, Note_off_c, 0, 62, 95
2, 170880, Note_off_c, 0, 59, 95
2, 170880, Note_off_c, 0, 55, 95
2, 170880, Note_off_c, 0, 50, 95
2, 170880, Note_off_c, 0, 43, 95
2, 170880, Note_on_c, 0, 67, 95
2, 170880, Note_on_c, 0, 62, 95
2, 170880, Note_on_c, 0, 59, 95
2, 170880, Note_on_c, 0, 55, 95
2, 170880, Note_on_c, 0, 50, 95
2, 170880, Note_on_c, 0, 43, 95
2, 171360, Note_off_c, 0, 67, 95
2, 171360, Note_off_c, 0, 62, 95
2, 171360, Note_off_c, 0, 59, 95
2, 171360, Note_off_c, 0, 55, 95
2, 171360, Note_off_c, 0, 50, 95
2, 171360, Note_off_c, 0, 43, 95
2, 171360, Note_on_c, 0, 67, 95
2, 171360, Note_on_c, 0, 62, 95
2, 171360, Note_on_c, 0, 60, 95
2, 171360, Note_on_c, 0, 57, 95
2, 171360, Note_on_c, 0, 50, 95
2, 171360, Note_on_c, 0, 43, 95
2, 171840, Note_off_c, 0, 67, 95
2, 171840, Note_off_c, 0, 62, 95
2, 171840, Note_off_c, 0, 60, 95
2, 171840, Note_off_c, 0, 57, 95
2, 171840, Note_off_c, 0, 50, 95
2, 171840, Note_off_c, 0, 43, 95
2, 171840, Note_on_c, 0, 67, 95
2, 171840, Note_on_c, 0, 62, 95
2, 171840, Note_on_c, 0, 60, 95
2, 171840, Note_on_c, 0, 57, 95
2, 171840, Note_on_c, 0, 50, 95
2, 171840, Note_on_c, 0, 43, 95
2, 172320, Note_off_c, 0, 67, 95
2, 172320, Note_off_c, 0, 62, 95
2, 172320, Note_off_c, 0, 60, 95
2, 172320, Note_off_c, 0, 57, 95
2, 172320, Note_off_c, 0, 50, 95
2, 172320, Note_off_c, 0, 43, 95
2, 172320, Note_on_c, 0, 67, 95
2, 172320, Note_on_c, 0, 62, 95
2, 172320, Note_on_c, 0, 60, 95
2, 172320, Note_on_c, 0, 57, 95
2, 172320, Note_on_c, 0, 50, 95
2, 172320, Note_on_c, 0, 43, 95
2, 172800, Note_off_c, 0, 67, 95
2, 172800, Note_off_c, 0, 62, 95
2, 172800, Note_off_c, 0, 60, 95
2, 172800, Note_off_c, 0, 57, 95
2, 172800, Note_off_c, 0, 50, 95
2, 172800, Note_off_c, 0, 43, 95
2, 172800, Note_on_c, 0, 67, 95
2, 172800, Note_on_c, 0, 62, 95
2, 172800, Note_on_c, 0, 60, 95
2, 172800, Note_on_c, 0, 57, 95
2, 172800, Note_on_c, 0, 50, 95
2, 172800, Note_on_c, 0, 43, 95
2, 173280, Note_off_c, 0, 67, 95
2, 173280, Note_off_c, 0, 62, 95
2, 173280, Note_off_c, 0, 60, 95
2, 173280, Note_off_c, 0, 57, 95
2, 173280, Note_off_c, 0, 50, 95
2, 173280, Note_off_c, 0, 43, 95
2, 173280, Note_on_c, 0, 67, 95
2, 173280, Note_on_c, 0, 62, 95
2, 173280, Note_on_c, 0, 60, 95
2, 173280, Note_on_c, 0, 57, 95
2, 173280, Note_on_c, 0, 50, 95
2, 173280, Note_on_c, 0, 43, 95
2, 173520, Note_off_c, 0, 67, 95
2, 173520, Note_off_c, 0, 62, 95
2, 173520, Note_off_c, 0, 60, 95
2, 173520, Note_off_c, 0, 57, 95
2, 173520, Note_off_c, 0, 50, 95
2, 173520, Note_off_c, 0, 43, 95
2, 173520, Note_on_c, 0, 67, 95
2, 173520, Note_on_c, 0, 62, 95
2, 173520, Note_on_c, 0, 60, 95
2, 173520, Note_on_c, 0, 57, 95
2, 173520, Note_on_c, 0, 50, 95
2, 173520, Note_on_c, 0, 43, 95
2, 173760, Note_off_c, 0, 67, 95
2, 173760, Note_off_c, 0, 62, 95
2, 173760, Note_off_c, 0, 60, 95
2, 173760, Note_off_c, 0, 57, 95
2, 173760, Note_off_c, 0, 50, 95
2, 173760, Note_off_c, 0, 43, 95
2, 173760, Note_on_c, 0, 67, 95
2, 173760, Note_on_c, 0, 62, 95
2, 173760, Note_on_c, 0, 60, 95
2, 173760, Note_on_c, 0, 57, 95
2, 173760, Note_on_c, 0, 50, 95
2, 173760, Note_on_c, 0, 43, 95
2, 174000, Note_off_c, 0, 67, 95
2, 174000, Note_off_c, 0, 62, 95
2, 174000, Note_off_c, 0, 60, 95
2, 174000, Note_off_c, 0, 57, 95
2, 174000, Note_off_c, 0, 50, 95
2, 174000, Note_off_c, 0, 43, 95
2, 174000, Note_on_c, 0, 67, 95
2, 174000, Note_on_c, 0, 62, 95
2, 174000, Note_on_c, 0, 60, 95
2, 174000, Note_on_c, 0, 57, 95
2, 174000, Note_on_c, 0, 50, 95
2, 174000, Note_on_c, 0, 43, 95
2, 174240, Note_off_c, 0, 67, 95
2, 174240, Note_off_c, 0, 62, 95
2, 174240, Note_off_c, 0, 60, 95
2, 174240, Note_off_c, 0, 57, 95
2, 174240, Note_off_c, 0, 50, 95
2, 174240, Note_off_c, 0, 43, 95
2, 174240, Note_on_c, 0, 67, 95
2, 174240, Note_on_c, 0, 62, 95
2, 174240, Note_on_c, 0, 60, 95
2, 174240, Note_on_c, 0, 57, 95
2, 174240, Note_on_c, 0, 50, 95
2, 174240, Note_on_c, 0, 43, 95
2, 174480, Note_off_c, 0, 67, 95
2, 174480, Note_off_c, 0, 62, 95
2, 174480, Note_off_c, 0, 60, 95
2, 174480, Note_off_c, 0, 57, 95
2, 174480, Note_off_c, 0, 50, 95
2, 174480, Note_off_c, 0, 43, 95
2, 174480, Note_on_c, 0, 67, 95
2, 174480, Note_on_c, 0, 62, 95
2, 174480, Note_on_c, 0, 60, 95
2, 174480, Note_on_c, 0, 57, 95
2, 174480, Note_on_c, 0, 50, 95
2, 174480, Note_on_c, 0, 43, 95
2, 174720, Note_off_c, 0, 67, 95
2, 174720, Note_off_c, 0, 62, 95
2, 174720, Note_off_c, 0, 60, 95
2, 174720, Note_off_c, 0, 57, 95
2, 174720, Note_off_c, 0, 50, 95
2, 174720, Note_off_c, 0, 43, 95
2, 174720, Note_on_c, 0, 67, 95
2, 174720, Note_on_c, 0, 62, 95
2, 174720, Note_on_c, 0, 59, 95
2, 174720, Note_on_c, 0, 55, 95
2, 174720, Note_on_c, 0, 50, 95
2, 174720, Note_on_c, 0, 43, 95
2, 175200, Note_off_c, 0, 67, 95
2, 175200, Note_off_c, 0, 62, 95
2, 175200, Note_off_c, 0, 59, 95
2, 175200, Note_off_c, 0, 55, 95
2, 175200, Note_off_c, 0, 50, 95
2, 175200, Note_off_c, 0, 43, 95
2, 175200, Note_on_c, 0, 67, 95
2, 175200, Note_on_c, 0, 62, 95
2, 175200, Note_on_c, 0, 59, 95
2, 175200, Note_on_c, 0, 55, 95
2, 175200, Note_on_c, 0, 50, 95
2, 175200, Note_on_c, 0, 43, 95
2, 175680, Note_off_c, 0, 67, 95
2, 175680, Note_off_c, 0, 62, 95
2, 175680, Note_off_c, 0, 59, 95
2, 175680, Note_off_c, 0, 55, 95
2, 175680, Note_off_c, 0, 50, 95
2, 175680, Note_off_c, 0, 43, 95
2, 175680, Note_on_c, 0, 67, 95
2, 175680, Note_on_c, 0, 62, 95
2, 175680, Note_on_c, 0, 59, 95
2, 175680, Note_on_c, 0, 55, 95
2, 175680, Note_on_c, 0, 50, 95
2, 175680, Note_on_c, 0, 43, 95
2, 176160, Note_off_c, 0, 67, 95
2, 176160, Note_off_c, 0, 62, 95
2, 176160, Note_off_c, 0, 59, 95
2, 176160, Note_off_c, 0, 55, 95
2, 176160, Note_off_c, 0, 50, 95
2, 176160, Note_off_c, 0, 43, 95
2, 176160, Note_on_c, 0, 67, 95
2, 176160, Note_on_c, 0, 62, 95
2, 176160, Note_on_c, 0, 59, 95
2, 176160, Note_on_c, 0, 55, 95
2, 176160, Note_on_c, 0, 50, 95
2, 176160, Note_on_c, 0, 43, 95
2, 176640, Note_off_c, 0, 67, 95
2, 176640, Note_off_c, 0, 62, 95
2, 176640, Note_off_c, 0, 59, 95
2, 176640, Note_off_c, 0, 55, 95
2, 176640, Note_off_c, 0, 50, 95
2, 176640, Note_off_c, 0, 43, 95
2, 176640, Note_on_c, 0, 67, 95
2, 176640, Note_on_c, 0, 62, 95
2, 176640, Note_on_c, 0, 59, 95
2, 176640, Note_on_c, 0, 55, 95
2, 176640, Note_on_c, 0, 50, 95
2, 176640, Note_on_c, 0, 43, 95
2, 177120, Note_off_c, 0, 67, 95
2, 177120, Note_off_c, 0, 62, 95
2, 177120, Note_off_c, 0, 59, 95
2, 177120, Note_off_c, 0, 55, 95
2, 177120, Note_off_c, 0, 50, 95
2, 177120, Note_off_c, 0, 43, 95
2, 177120, Note_on_c, 0, 67, 95
2, 177120, Note_on_c, 0, 62, 95
2, 177120, Note_on_c, 0, 59, 95
2, 177120, Note_on_c, 0, 55, 95
2, 177120, Note_on_c, 0, 50, 95
2, 177120, Note_on_c, 0, 43, 95
2, 177600, Note_off_c, 0, 67, 95
2, 177600, Note_off_c, 0, 62, 95
2, 177600, Note_off_c, 0, 59, 95
2, 177600, Note_off_c, 0, 55, 95
2, 177600, Note_off_c, 0, 50, 95
2, 177600, Note_off_c, 0, 43, 95
2, 177600, Note_on_c, 0, 67, 95
2, 177600, Note_on_c, 0, 62, 95
2, 177600, Note_on_c, 0, 59, 95
2, 177600, Note_on_c, 0, 55, 95
2, 177600, Note_on_c, 0, 50, 95
2, 177600, Note_on_c, 0, 43, 95
2, 178080, Note_off_c, 0, 67, 95
2, 178080, Note_off_c, 0, 62, 95
2, 178080, Note_off_c, 0, 59, 95
2, 178080, Note_off_c, 0, 55, 95
2, 178080, Note_off_c, 0, 50, 95
2, 178080, Note_off_c, 0, 43, 95
2, 178080, Note_on_c, 0, 67, 95
2, 178080, Note_on_c, 0, 62, 95
2, 178080, Note_on_c, 0, 59, 95
2, 178080, Note_on_c, 0, 55, 95
2, 178080, Note_on_c, 0, 50, 95
2, 178080, Note_on_c, 0, 43, 95
2, 178560, Note_off_c, 0, 67, 95
2, 178560, Note_off_c, 0, 62, 95
2, 178560, Note_off_c, 0, 59, 95
2, 178560, Note_off_c, 0, 55, 95
2, 178560, Note_off_c, 0, 50, 95
2, 178560, Note_off_c, 0, 43, 95
2, 178560, Note_on_c, 0, 67, 95
2, 178560, Note_on_c, 0, 62, 95
2, 178560, Note_on_c, 0, 59, 95
2, 178560, Note_on_c, 0, 55, 95
2, 178560, Note_on_c, 0, 50, 95
2, 178560, Note_on_c, 0, 43, 95
2, 179040, Note_off_c, 0, 67, 95
2, 179040, Note_off_c, 0, 62, 95
2, 179040, Note_off_c, 0, 59, 95
2, 179040, Note_off_c, 0, 55, 95
2, 179040, Note_off_c, 0, 50, 95
2, 179040, Note_off_c, 0, 43, 95
2, 179040, Note_on_c, 0, 67, 95
2, 179040, Note_on_c, 0, 62, 95
2, 179040, Note_on_c, 0, 59, 95
2, 179040, Note_on_c, 0, 55, 95
2, 179040, Note_on_c, 0, 50, 95
2, 179040, Note_on_c, 0, 43, 95
2, 179520, Note_off_c, 0, 67, 95
2, 179520, Note_off_c, 0, 62, 95
2, 179520, Note_off_c, 0, 59, 95
2, 179520, Note_off_c, 0, 55, 95
2, 179520, Note_off_c, 0, 50, 95
2, 179520, Note_off_c, 0, 43, 95
2, 179520, Note_on_c, 0, 67, 95
2, 179520, Note_on_c, 0, 62, 95
2, 179520, Note_on_c, 0, 59, 95
2, 179520, Note_on_c, 0, 55, 95
2, 179520, Note_on_c, 0, 50, 95
2, 179520, Note_on_c, 0, 43, 95
2, 180000, Note_off_c, 0, 67, 95
2, 180000, Note_off_c, 0, 62, 95
2, 180000, Note_off_c, 0, 59, 95
2, 180000, Note_off_c, 0, 55, 95
2, 180000, Note_off_c, 0, 50, 95
2, 180000, Note_off_c, 0, 43, 95
2, 180000, Note_on_c, 0, 67, 95
2, 180000, Note_on_c, 0, 62, 95
2, 180000, Note_on_c, 0, 59, 95
2, 180000, Note_on_c, 0, 55, 95
2, 180000, Note_on_c, 0, 50, 95
2, 180000, Note_on_c, 0, 43, 95
2, 180480, Note_off_c, 0, 67, 95
2, 180480, Note_off_c, 0, 62, 95
2, 180480, Note_off_c, 0, 59, 95
2, 180480, Note_off_c, 0, 55, 95
2, 180480, Note_off_c, 0, 50, 95
2, 180480, Note_off_c, 0, 43, 95
2, 180480, Note_on_c, 0, 67, 95
2, 180480, Note_on_c, 0, 62, 95
2, 180480, Note_on_c, 0, 59, 95
2, 180480, Note_on_c, 0, 55, 95
2, 180480, Note_on_c, 0, 50, 95
2, 180480, Note_on_c, 0, 43, 95
2, 180960, Note_off_c, 0, 67, 95
2, 180960, Note_off_c, 0, 62, 95
2, 180960, Note_off_c, 0, 59, 95
2, 180960, Note_off_c, 0, 55, 95
2, 180960, Note_off_c, 0, 50, 95
2, 180960, Note_off_c, 0, 43, 95
2, 180960, Note_on_c, 0, 67, 95
2, 180960, Note_on_c, 0, 62, 95
2, 180960, Note_on_c, 0, 59, 95
2, 180960, Note_on_c, 0, 55, 95
2, 180960, Note_on_c, 0, 50, 95
2, 180960, Note_on_c, 0, 43, 95
2, 181440, Note_off_c, 0, 67, 95
2, 181440, Note_off_c, 0, 62, 95
2, 181440, Note_off_c, 0, 59, 95
2, 181440, Note_off_c, 0, 55, 95
2, 181440, Note_off_c, 0, 50, 95
2, 181440, Note_off_c, 0, 43, 95
2, 181440, Note_on_c, 0, 67, 95
2, 181440, Note_on_c, 0, 62, 95
2, 181440, Note_on_c, 0, 59, 95
2, 181440, Note_on_c, 0, 55, 95
2, 181440, Note_on_c, 0, 50, 95
2, 181440, Note_on_c, 0, 43, 95
2, 181920, Note_off_c, 0, 67, 95
2, 181920, Note_off_c, 0, 62, 95
2, 181920, Note_off_c, 0, 59, 95
2, 181920, Note_off_c, 0, 55, 95
2, 181920, Note_off_c, 0, 50, 95
2, 181920, Note_off_c, 0, 43, 95
2, 181920, Note_on_c, 0, 67, 95
2, 181920, Note_on_c, 0, 62, 95
2, 181920, Note_on_c, 0, 59, 95
2, 181920, Note_on_c, 0, 55, 95
2, 181920, Note_on_c, 0, 50, 95
2, 181920, Note_on_c, 0, 43, 95
2, 182400, Note_off_c, 0, 67, 95
2, 182400, Note_off_c, 0, 62, 95
2, 182400, Note_off_c, 0, 59, 95
2, 182400, Note_off_c, 0, 55, 95
2, 182400, Note_off_c, 0, 50, 95
2, 182400, Note_off_c, 0, 43, 95
2, 182400, Note_on_c, 0, 67, 95
2, 182400, Note_on_c, 0, 62, 95
2, 182400, Note_on_c, 0, 59, 95
2, 182400, Note_on_c, 0, 55, 95
2, 182400, Note_on_c, 0, 50, 95
2, 182400, Note_on_c, 0, 43, 95
2, 182880, Note_off_c, 0, 67, 95
2, 182880, Note_off_c, 0, 62, 95
2, 182880, Note_off_c, 0, 59, 95
2, 182880, Note_off_c, 0, 55, 95
2, 182880, Note_off_c, 0, 50, 95
2, 182880, Note_off_c, 0, 43, 95
2, 182880, Note_on_c, 0, 67, 95
2, 182880, Note_on_c, 0, 62, 95
2, 182880, Note_on_c, 0, 59, 95
2, 182880, Note_on_c, 0, 55, 95
2, 182880, Note_on_c, 0, 50, 95
2, 182880, Note_on_c, 0, 43, 95
2, 183360, Note_off_c, 0, 67, 95
2, 183360, Note_off_c, 0, 62, 95
2, 183360, Note_off_c, 0, 59, 95
2, 183360, Note_off_c, 0, 55, 95
2, 183360, Note_off_c, 0, 50, 95
2, 183360, Note_off_c, 0, 43, 95
2, 183360, Note_on_c, 0, 67, 95
2, 183360, Note_on_c, 0, 62, 95
2, 183360, Note_on_c, 0, 59, 95
2, 183360, Note_on_c, 0, 55, 95
2, 183360, Note_on_c, 0, 50, 95
2, 183360, Note_on_c, 0, 43, 95
2, 183840, Note_off_c, 0, 67, 95
2, 183840, Note_off_c, 0, 62, 95
2, 183840, Note_off_c, 0, 59, 95
2, 183840, Note_off_c, 0, 55, 95
2, 183840, Note_off_c, 0, 50, 95
2, 183840, Note_off_c, 0, 43, 95
2, 183840, Note_on_c, 0, 67, 95
2, 183840, Note_on_c, 0, 62, 95
2, 183840, Note_on_c, 0, 60, 95
2, 183840, Note_on_c, 0, 57, 95
2, 183840, Note_on_c, 0, 50, 95
2, 183840, Note_on_c, 0, 43, 95
2, 184320, Note_off_c, 0, 67, 95
2, 184320, Note_off_c, 0, 62, 95
2, 184320, Note_off_c, 0, 60, 95
2, 184320, Note_off_c, 0, 57, 95
2, 184320, Note_off_c, 0, 50, 95
2, 184320, Note_off_c, 0, 43, 95
2, 184320, Note_on_c, 0, 67, 95
2, 184320, Note_on_c, 0, 62, 95
2, 184320, Note_on_c, 0, 60, 95
2, 184320, Note_on_c, 0, 57, 95
2, 184320, Note_on_c, 0, 50, 95
2, 184320, Note_on_c, 0, 43, 95
2, 184800, Note_off_c, 0, 67, 95
2, 184800, Note_off_c, 0, 62, 95
2, 184800, Note_off_c, 0, 60, 95
2, 184800, Note_off_c, 0, 57, 95
2, 184800, Note_off_c, 0, 50, 95
2, 184800, Note_off_c, 0, 43, 95
2, 184800, Note_on_c, 0, 67, 95
2, 184800, Note_on_c, 0, 62, 95
2, 184800, Note_on_c, 0, 59, 95
2, 184800, Note_on_c, 0, 55, 95
2, 184800, Note_on_c, 0, 50, 95
2, 184800, Note_on_c, 0, 43, 95
2, 185280, Note_off_c, 0, 67, 95
2, 185280, Note_off_c, 0, 62, 95
2, 185280, Note_off_c, 0, 59, 95
2, 185280, Note_off_c, 0, 55, 95
2, 185280, Note_off_c, 0, 50, 95
2, 185280, Note_off_c, 0, 43, 95
2, 185280, Note_on_c, 0, 67, 95
2, 185280, Note_on_c, 0, 62, 95
2, 185280, Note_on_c, 0, 59, 95
2, 185280, Note_on_c, 0, 55, 95
2, 185280, Note_on_c, 0, 50, 95
2, 185280, Note_on_c, 0, 43, 95
2, 185760, Note_off_c, 0, 67, 95
2, 185760, Note_off_c, 0, 62, 95
2, 185760, Note_off_c, 0, 59, 95
2, 185760, Note_off_c, 0, 55, 95
2, 185760, Note_off_c, 0, 50, 95
2, 185760, Note_off_c, 0, 43, 95
2, 185760, Note_on_c, 0, 67, 95
2, 185760, Note_on_c, 0, 62, 95
2, 185760, Note_on_c, 0, 59, 95
2, 185760, Note_on_c, 0, 55, 95
2, 185760, Note_on_c, 0, 50, 95
2, 185760, Note_on_c, 0, 43, 95
2, 186240, Note_off_c, 0, 67, 95
2, 186240, Note_off_c, 0, 62, 95
2, 186240, Note_off_c, 0, 59, 95
2, 186240, Note_off_c, 0, 55, 95
2, 186240, Note_off_c, 0, 50, 95
2, 186240, Note_off_c, 0, 43, 95
2, 186240, Note_on_c, 0, 67, 95
2, 186240, Note_on_c, 0, 62, 95
2, 186240, Note_on_c, 0, 59, 95
2, 186240, Note_on_c, 0, 55, 95
2, 186240, Note_on_c, 0, 50, 95
2, 186240, Note_on_c, 0, 43, 95
2, 186720, Note_off_c, 0, 67, 95
2, 186720, Note_off_c, 0, 62, 95
2, 186720, Note_off_c, 0, 59, 95
2, 186720, Note_off_c, 0, 55, 95
2, 186720, Note_off_c, 0, 50, 95
2, 186720, Note_off_c, 0, 43, 95
2, 186720, Note_on_c, 0, 67, 95
2, 186720, Note_on_c, 0, 62, 95
2, 186720, Note_on_c, 0, 59, 95
2, 186720, Note_on_c, 0, 55, 95
2, 186720, Note_on_c, 0, 50, 95
2, 186720, Note_on_c, 0, 43, 95
2, 187200, Note_off_c, 0, 67, 95
2, 187200, Note_off_c, 0, 62, 95
2, 187200, Note_off_c, 0, 59, 95
2, 187200, Note_off_c, 0, 55, 95
2, 187200, Note_off_c, 0, 50, 95
2, 187200, Note_off_c, 0, 43, 95
2, 187200, Note_on_c, 0, 67, 95
2, 187200, Note_on_c, 0, 62, 95
2, 187200, Note_on_c, 0, 59, 95
2, 187200, Note_on_c, 0, 55, 95
2, 187200, Note_on_c, 0, 50, 95
2, 187200, Note_on_c, 0, 43, 95
2, 187680, Note_off_c, 0, 67, 95
2, 187680, Note_off_c, 0, 62, 95
2, 187680, Note_off_c, 0, 59, 95
2, 187680, Note_off_c, 0, 55, 95
2, 187680, Note_off_c, 0, 50, 95
2, 187680, Note_off_c, 0, 43, 95
2, 187680, Note_on_c, 0, 62, 95
2, 187680, Note_on_c, 0, 57, 95
2, 187680, Note_on_c, 0, 54, 95
2, 187680, Note_on_c, 0, 50, 95
2, 187680, Note_on_c, 0, 45, 95
2, 187680, Note_on_c, 0, 38, 95
2, 188160, Note_off_c, 0, 62, 95
2, 188160, Note_off_c, 0, 57, 95
2, 188160, Note_off_c, 0, 54, 95
2, 188160, Note_off_c, 0, 50, 95
2, 188160, Note_off_c, 0, 45, 95
2, 188160, Note_off_c, 0, 38, 95
2, 188160, Note_on_c, 0, 62, 95
2, 188160, Note_on_c, 0, 57, 95
2, 188160, Note_on_c, 0, 54, 95
2, 188160, Note_on_c, 0, 50, 95
2, 188160, Note_on_c, 0, 45, 95
2, 188160, Note_on_c, 0, 38, 95
2, 188640, Note_off_c, 0, 62, 95
2, 188640, Note_off_c, 0, 57, 95
2, 188640, Note_off_c, 0, 54, 95
2, 188640, Note_off_c, 0, 50, 95
2, 188640, Note_off_c, 0, 45, 95
2, 188640, Note_off_c, 0, 38, 95
2, 188640, Note_on_c, 0, 62, 95
2, 188640, Note_on_c, 0, 57, 95
2, 188640, Note_on_c, 0, 54, 95
2, 188640, Note_on_c, 0, 50, 95
2, 188640, Note_on_c, 0, 45, 95
2, 188640, Note_on_c, 0, 38, 95
2, 189120, Note_off_c, 0, 62, 95
2, 189120, Note_off_c, 0, 57, 95
2, 189120, Note_off_c, 0, 54, 95
2, 189120, Note_off_c, 0, 50, 95
2, 189120, Note_off_c, 0, 45, 95
2, 189120, Note_off_c, 0, 38, 95
2, 189120, Note_on_c, 0, 62, 95
2, 189120, Note_on_c, 0, 57, 95
2, 189120, Note_on_c, 0, 54, 95
2, 189120, Note_on_c, 0, 50, 95
2, 189120, Note_on_c, 0, 45, 95
2, 189120, Note_on_c, 0, 38, 95
2, 189600, Note_off_c, 0, 62, 95
2, 189600, Note_off_c, 0, 57, 95
2, 189600, Note_off_c, 0, 54, 95
2, 189600, Note_off_c, 0, 50, 95
2, 189600, Note_off_c, 0, 45, 95
2, 189600, Note_off_c, 0, 38, 95
2, 189600, Note_on_c, 0, 62, 95
2, 189600, Note_on_c, 0, 57, 95
2, 189600, Note_on_c, 0, 54, 95
2, 189600, Note_on_c, 0, 50, 95
2, 189600, Note_on_c, 0, 45, 95
2, 189600, Note_on_c, 0, 38, 95
2, 190080, Note_off_c, 0, 62, 95
2, 190080, Note_off_c, 0, 57, 95
2, 190080, Note_off_c, 0, 54, 95
2, 190080, Note_off_c, 0, 50, 95
2, 190080, Note_off_c, 0, 45, 95
2, 190080, Note_off_c, 0, 38, 95
2, 190080, Note_on_c, 0, 62, 95
2, 190080, Note_on_c, 0, 57, 95
2, 190080, Note_on_c, 0, 54, 95
2, 190080, Note_on_c, 0, 50, 95
2, 190080, Note_on_c, 0, 45, 95
2, 190080, Note_on_c, 0, 38, 95
2, 190560, Note_off_c, 0, 62, 95
2, 190560, Note_off_c, 0, 57, 95
2, 190560, Note_off_c, 0, 54, 95
2, 190560, Note_off_c, 0, 50, 95
2, 190560, Note_off_c, 0, 45, 95
2, 190560, Note_off_c, 0, 38, 95
2, 190560, Note_on_c, 0, 62, 95
2, 190560, Note_on_c, 0, 57, 95
2, 190560, Note_on_c, 0, 54, 95
2, 190560, Note_on_c, 0, 50, 95
2, 190560, Note_on_c, 0, 45, 95
2, 190560, Note_on_c, 0, 38, 95
2, 191040, Note_off_c, 0, 62, 95
2, 191040, Note_off_c, 0, 57, 95
2, 191040, Note_off_c, 0, 54, 95
2, 191040, Note_off_c, 0, 50, 95
2, 191040, Note_off_c, 0, 45, 95
2, 191040, Note_off_c, 0, 38, 95
2, 191040, Note_on_c, 0, 62, 95
2, 191040, Note_on_c, 0, 57, 95
2, 191040, Note_on_c, 0, 54, 95
2, 191040, Note_on_c, 0, 50, 95
2, 191040, Note_on_c, 0, 45, 95
2, 191040, Note_on_c, 0, 38, 95
2, 191520, Note_off_c, 0, 62, 95
2, 191520, Note_off_c, 0, 57, 95
2, 191520, Note_off_c, 0, 54, 95
2, 191520, Note_off_c, 0, 50, 95
2, 191520, Note_off_c, 0, 45, 95
2, 191520, Note_off_c, 0, 38, 95
2, 191520, Note_on_c, 0, 62, 95
2, 191520, Note_on_c, 0, 57, 95
2, 191520, Note_on_c, 0, 54, 95
2, 191520, Note_on_c, 0, 50, 95
2, 191520, Note_on_c, 0, 45, 95
2, 191520, Note_on_c, 0, 38, 95
2, 192000, Note_off_c, 0, 62, 95
2, 192000, Note_off_c, 0, 57, 95
2, 192000, Note_off_c, 0, 54, 95
2, 192000, Note_off_c, 0, 50, 95
2, 192000, Note_off_c, 0, 45, 95
2, 192000, Note_off_c, 0, 38, 95
2, 192000, Note_on_c, 0, 62, 95
2, 192000, Note_on_c, 0, 57, 95
2, 192000, Note_on_c, 0, 54, 95
2, 192000, Note_on_c, 0, 50, 95
2, 192000, Note_on_c, 0, 45, 95
2, 192000, Note_on_c, 0, 38, 95
2, 192480, Note_off_c, 0, 62, 95
2, 192480, Note_off_c, 0, 57, 95
2, 192480, Note_off_c, 0, 54, 95
2, 192480, Note_off_c, 0, 50, 95
2, 192480, Note_off_c, 0, 45, 95
2, 192480, Note_off_c, 0, 38, 95
2, 192480, Note_on_c, 0, 62, 95
2, 192480, Note_on_c, 0, 57, 95
2, 192480, Note_on_c, 0, 54, 95
2, 192480, Note_on_c, 0, 50, 95
2, 192480, Note_on_c, 0, 45, 95
2, 192480, Note_on_c, 0, 38, 95
2, 192960, Note_off_c, 0, 62, 95
2, 192960, Note_off_c, 0, 57, 95
2, 192960, Note_off_c, 0, 54, 95
2, 192960, Note_off_c, 0, 50, 95
2, 192960, Note_off_c, 0, 45, 95
2, 192960, Note_off_c, 0, 38, 95
2, 192960, Note_on_c, 0, 62, 95
2, 192960, Note_on_c, 0, 57, 95
2, 192960, Note_on_c, 0, 54, 95
2, 192960, Note_on_c, 0, 50, 95
2, 192960, Note_on_c, 0, 45, 95
2, 192960, Note_on_c, 0, 38, 95
2, 193440, Note_off_c, 0, 62, 95
2, 193440, Note_off_c, 0, 57, 95
2, 193440, Note_off_c, 0, 54, 95
2, 193440, Note_off_c, 0, 50, 95
2, 193440, Note_off_c, 0, 45, 95
2, 193440, Note_off_c, 0, 38, 95
2, 193440, Note_on_c, 0, 62, 95
2, 193440, Note_on_c, 0, 57, 95
2, 193440, Note_on_c, 0, 54, 95
2, 193440, Note_on_c, 0, 50, 95
2, 193440, Note_on_c, 0, 45, 95
2, 193440, Note_on_c, 0, 38, 95
2, 193920, Note_off_c, 0, 62, 95
2, 193920, Note_off_c, 0, 57, 95
2, 193920, Note_off_c, 0, 54, 95
2, 193920, Note_off_c, 0, 50, 95
2, 193920, Note_off_c, 0, 45, 95
2, 193920, Note_off_c, 0, 38, 95
2, 193920, Note_on_c, 0, 62, 95
2, 193920, Note_on_c, 0, 57, 95
2, 193920, Note_on_c, 0, 54, 95
2, 193920, Note_on_c, 0, 50, 95
2, 193920, Note_on_c, 0, 45, 95
2, 193920, Note_on_c, 0, 38, 95
2, 194400, Note_off_c, 0, 62, 95
2, 194400, Note_off_c, 0, 57, 95
2, 194400, Note_off_c, 0, 54, 95
2, 194400, Note_off_c, 0, 50, 95
2, 194400, Note_off_c, 0, 45, 95
2, 194400, Note_off_c, 0, 38, 95
2, 194400, Note_on_c, 0, 62, 95
2, 194400, Note_on_c, 0, 57, 95
2, 194400, Note_on_c, 0, 54, 95
2, 194400, Note_on_c, 0, 50, 95
2, 194400, Note_on_c, 0, 45, 95
2, 194400, Note_on_c, 0, 38, 95
2, 194880, Note_off_c, 0, 62, 95
2, 194880, Note_off_c, 0, 57, 95
2, 194880, Note_off_c, 0, 54, 95
2, 194880, Note_off_c, 0, 50, 95
2, 194880, Note_off_c, 0, 45, 95
2, 194880, Note_off_c, 0, 38, 95
2, 194880, Note_on_c, 0, 62, 95
2, 194880, Note_on_c, 0, 57, 95
2, 194880, Note_on_c, 0, 54, 95
2, 194880, Note_on_c, 0, 50, 95
2, 194880, Note_on_c, 0, 45, 95
2, 194880, Note_on_c, 0, 38, 95
2, 195360, Note_off_c, 0, 62, 95
2, 195360, Note_off_c, 0, 57, 95
2, 195360, Note_off_c, 0, 54, 95
2, 195360, Note_off_c, 0, 50, 95
2, 195360, Note_off_c, 0, 45, 95
2, 195360, Note_off_c, 0, 38, 95
2, 195360, Note_on_c, 0, 62, 95
2, 195360, Note_on_c, 0, 57, 95
2, 195360, Note_on_c, 0, 54, 95
2, 195360, Note_on_c, 0, 50, 95
2, 195360, Note_on_c, 0, 45, 95
2, 195360, Note_on_c, 0, 38, 95
2, 195840, Note_off_c, 0, 62, 95
2, 195840, Note_off_c, 0, 57, 95
2, 195840, Note_off_c, 0, 54, 95
2, 195840, Note_off_c, 0, 50, 95
2, 195840, Note_off_c, 0, 45, 95
2, 195840, Note_off_c, 0, 38, 95
2, 195840, Note_on_c, 0, 62, 95
2, 195840, Note_on_c, 0, 57, 95
2, 195840, Note_on_c, 0, 54, 95
2, 195840, Note_on_c, 0, 50, 95
2, 195840, Note_on_c, 0, 45, 95
2, 195840, Note_on_c, 0, 38, 95
2, 196320, Note_off_c, 0, 62, 95
2, 196320, Note_off_c, 0, 57, 95
2, 196320, Note_off_c, 0, 54, 95
2, 196320, Note_off_c, 0, 50, 95
2, 196320, Note_off_c, 0, 45, 95
2, 196320, Note_off_c, 0, 38, 95
2, 196320, Note_on_c, 0, 62, 95
2, 196320, Note_on_c, 0, 57, 95
2, 196320, Note_on_c, 0, 54, 95
2, 196320, Note_on_c, 0, 50, 95
2, 196320, Note_on_c, 0, 45, 95
2, 196320, Note_on_c, 0, 38, 95
2, 196800, Note_off_c, 0, 62, 95
2, 196800, Note_off_c, 0, 57, 95
2, 196800, Note_off_c, 0, 54, 95
2, 196800, Note_off_c, 0, 50, 95
2, 196800, Note_off_c, 0, 45, 95
2, 196800, Note_off_c, 0, 38, 95
2, 196800, Note_on_c, 0, 62, 95
2, 196800, Note_on_c, 0, 57, 95
2, 196800, Note_on_c, 0, 54, 95
2, 196800, Note_on_c, 0, 50, 95
2, 196800, Note_on_c, 0, 45, 95
2, 196800, Note_on_c, 0, 38, 95
2, 197280, Note_off_c, 0, 62, 95
2, 197280, Note_off_c, 0, 57, 95
2, 197280, Note_off_c, 0, 54, 95
2, 197280, Note_off_c, 0, 50, 95
2, 197280, Note_off_c, 0, 45, 95
2, 197280, Note_off_c, 0, 38, 95
2, 197280, Note_on_c, 0, 62, 95
2, 197280, Note_on_c, 0, 57, 95
2, 197280, Note_on_c, 0, 54, 95
2, 197280, Note_on_c, 0, 50, 95
2, 197280, Note_on_c, 0, 45, 95
2, 197280, Note_on_c, 0, 38, 95
2, 197760, Note_off_c, 0, 62, 95
2, 197760, Note_off_c, 0, 57, 95
2, 197760, Note_off_c, 0, 54, 95
2, 197760, Note_off_c, 0, 50, 95
2, 197760, Note_off_c, 0, 45, 95
2, 197760, Note_off_c, 0, 38, 95
2, 197760, Note_on_c, 0, 62, 95
2, 197760, Note_on_c, 0, 57, 95
2, 197760, Note_on_c, 0, 54, 95
2, 197760, Note_on_c, 0, 50, 95
2, 197760, Note_on_c, 0, 45, 95
2, 197760, Note_on_c, 0, 38, 95
2, 198240, Note_off_c, 0, 62, 95
2, 198240, Note_off_c, 0, 57, 95
2, 198240, Note_off_c, 0, 54, 95
2, 198240, Note_off_c, 0, 50, 95
2, 198240, Note_off_c, 0, 45, 95
2, 198240, Note_off_c, 0, 38, 95
2, 198240, Note_on_c, 0, 62, 95
2, 198240, Note_on_c, 0, 57, 95
2, 198240, Note_on_c, 0, 54, 95
2, 198240, Note_on_c, 0, 50, 95
2, 198240, Note_on_c, 0, 45, 95
2, 198240, Note_on_c, 0, 38, 95
2, 198720, Note_off_c, 0, 62, 95
2, 198720, Note_off_c, 0, 57, 95
2, 198720, Note_off_c, 0, 54, 95
2, 198720, Note_off_c, 0, 50, 95
2, 198720, Note_off_c, 0, 45, 95
2, 198720, Note_off_c, 0, 38, 95
2, 198720, Note_on_c, 0, 62, 95
2, 198720, Note_on_c, 0, 57, 95
2, 198720, Note_on_c, 0, 54, 95
2, 198720, Note_on_c, 0, 50, 95
2, 198720, Note_on_c, 0, 45, 95
2, 198720, Note_on_c, 0, 38, 95
2, 199200, Note_off_c, 0, 62, 95
2, 199200, Note_off_c, 0, 57, 95
2, 199200, Note_off_c, 0, 54, 95
2, 199200, Note_off_c, 0, 50, 95
2, 199200, Note_off_c, 0, 45, 95
2, 199200, Note_off_c, 0, 38, 95
2, 199200, Note_on_c, 0, 62, 95
2, 199200, Note_on_c, 0, 57, 95
2, 199200, Note_on_c, 0, 54, 95
2, 199200, Note_on_c, 0, 50, 95
2, 199200, Note_on_c, 0, 45, 95
2, 199200, Note_on_c, 0, 38, 95
2, 199680, Note_off_c, 0, 62, 95
2, 199680, Note_off_c, 0, 57, 95
2, 199680, Note_off_c, 0, 54, 95
2, 199680, Note_off_c, 0, 50, 95
2, 199680, Note_off_c, 0, 45, 95
2, 199680, Note_off_c, 0, 38, 95
2, 199680, Note_on_c, 0, 62, 95
2, 199680, Note_on_c, 0, 57, 95
2, 199680, Note_on_c, 0, 54, 95
2, 199680, Note_on_c, 0, 50, 95
2, 199680, Note_on_c, 0, 45, 95
2, 199680, Note_on_c, 0, 38, 95
2, 200160, Note_off_c, 0, 62, 95
2, 200160, Note_off_c, 0, 57, 95
2, 200160, Note_off_c, 0, 54, 95
2, 200160, Note_off_c, 0, 50, 95
2, 200160, Note_off_c, 0, 45, 95
2, 200160, Note_off_c, 0, 38, 95
2, 200160, Note_on_c, 0, 62, 95
2, 200160, Note_on_c, 0, 57, 95
2, 200160, Note_on_c, 0, 54, 95
2, 200160, Note_on_c, 0, 50, 95
2, 200160, Note_on_c, 0, 45, 95
2, 200160, Note_on_c, 0, 38, 95
2, 200640, Note_off_c, 0, 62, 95
2, 200640, Note_off_c, 0, 57, 95
2, 200640, Note_off_c, 0, 54, 95
2, 200640, Note_off_c, 0, 50, 95
2, 200640, Note_off_c, 0, 45, 95
2, 200640, Note_off_c, 0, 38, 95
2, 200640, Note_on_c, 0, 62, 95
2, 200640, Note_on_c, 0, 57, 95
2, 200640, Note_on_c, 0, 54, 95
2, 200640, Note_on_c, 0, 50, 95
2, 200640, Note_on_c, 0, 45, 95
2, 200640, Note_on_c, 0, 38, 95
2, 201120, Note_off_c, 0, 62, 95
2, 201120, Note_off_c, 0, 57, 95
2, 201120, Note_off_c, 0, 54, 95
2, 201120, Note_off_c, 0, 50, 95
2, 201120, Note_off_c, 0, 45, 95
2, 201120, Note_off_c, 0, 38, 95
2, 201120, Note_on_c, 0, 62, 95
2, 201120, Note_on_c, 0, 57, 95
2, 201120, Note_on_c, 0, 54, 95
2, 201120, Note_on_c, 0, 50, 95
2, 201120, Note_on_c, 0, 45, 95
2, 201120, Note_on_c, 0, 38, 95
2, 201600, Note_off_c, 0, 62, 95
2, 201600, Note_off_c, 0, 57, 95
2, 201600, Note_off_c, 0, 54, 95
2, 201600, Note_off_c, 0, 50, 95
2, 201600, Note_off_c, 0, 45, 95
2, 201600, Note_off_c, 0, 38, 95
2, 201600, Note_on_c, 0, 62, 95
2, 201600, Note_on_c, 0, 57, 95
2, 201600, Note_on_c, 0, 54, 95
2, 201600, Note_on_c, 0, 50, 95
2, 201600, Note_on_c, 0, 45, 95
2, 201600, Note_on_c, 0, 38, 95
2, 202080, Note_off_c, 0, 62, 95
2, 202080, Note_off_c, 0, 57, 95
2, 202080, Note_off_c, 0, 54, 95
2, 202080, Note_off_c, 0, 50, 95
2, 202080, Note_off_c, 0, 45, 95
2, 202080, Note_off_c, 0, 38, 95
2, 202080, Note_on_c, 0, 62, 95
2, 202080, Note_on_c, 0, 57, 95
2, 202080, Note_on_c, 0, 54, 95
2, 202080, Note_on_c, 0, 50, 95
2, 202080, Note_on_c, 0, 45, 95
2, 202080, Note_on_c, 0, 38, 95
2, 202560, Note_off_c, 0, 62, 95
2, 202560, Note_off_c, 0, 57, 95
2, 202560, Note_off_c, 0, 54, 95
2, 202560, Note_off_c, 0, 50, 95
2, 202560, Note_off_c, 0, 45, 95
2, 202560, Note_off_c, 0, 38, 95
2, 202560, Note_on_c, 0, 62, 95
2, 202560, Note_on_c, 0, 57, 95
2, 202560, Note_on_c, 0, 54, 95
2, 202560, Note_on_c, 0, 50, 95
2, 202560, Note_on_c, 0, 45, 95
2, 202560, Note_on_c, 0, 38, 95
2, 203040, Note_off_c, 0, 62, 95
2, 203040, Note_off_c, 0, 57, 95
2, 203040, Note_off_c, 0, 54, 95
2, 203040, Note_off_c, 0, 50, 95
2, 203040, Note_off_c, 0, 45, 95
2, 203040, Note_off_c, 0, 38, 95
2, 203040, Note_on_c, 0, 62, 95
2, 203040, Note_on_c, 0, 57, 95
2, 203040, Note_on_c, 0, 54, 95
2, 203040, Note_on_c, 0, 50, 95
2, 203040, Note_on_c, 0, 45, 95
2, 203040, Note_on_c, 0, 38, 95
2, 203520, Note_off_c, 0, 62, 95
2, 203520, Note_off_c, 0, 57, 95
2, 203520, Note_off_c, 0, 54, 95
2, 203520, Note_off_c, 0, 50, 95
2, 203520, Note_off_c, 0, 45, 95
2, 203520, Note_off_c, 0, 38, 95
2, 203520, Note_on_c, 0, 62, 95
2, 203520, Note_on_c, 0, 57, 95
2, 203520, Note_on_c, 0, 54, 95
2, 203520, Note_on_c, 0, 50, 95
2, 203520, Note_on_c, 0, 45, 95
2, 203520, Note_on_c, 0, 38, 95
2, 204000, Note_off_c, 0, 62, 95
2, 204000, Note_off_c, 0, 57, 95
2, 204000, Note_off_c, 0, 54, 95
2, 204000, Note_off_c, 0, 50, 95
2, 204000, Note_off_c, 0, 45, 95
2, 204000, Note_off_c, 0, 38, 95
2, 204000, Note_on_c, 0, 62, 95
2, 204000, Note_on_c, 0, 57, 95
2, 204000, Note_on_c, 0, 54, 95
2, 204000, Note_on_c, 0, 50, 95
2, 204000, Note_on_c, 0, 45, 95
2, 204000, Note_on_c, 0, 38, 95
2, 204480, Note_off_c, 0, 62, 95
2, 204480, Note_off_c, 0, 57, 95
2, 204480, Note_off_c, 0, 54, 95
2, 204480, Note_off_c, 0, 50, 95
2, 204480, Note_off_c, 0, 45, 95
2, 204480, Note_off_c, 0, 38, 95
2, 204480, Note_on_c, 0, 62, 95
2, 204480, Note_on_c, 0, 57, 95
2, 204480, Note_on_c, 0, 54, 95
2, 204480, Note_on_c, 0, 50, 95
2, 204480, Note_on_c, 0, 45, 95
2, 204480, Note_on_c, 0, 38, 95
2, 204960, Note_off_c, 0, 62, 95
2, 204960, Note_off_c, 0, 57, 95
2, 204960, Note_off_c, 0, 54, 95
2, 204960, Note_off_c, 0, 50, 95
2, 204960, Note_off_c, 0, 45, 95
2, 204960, Note_off_c, 0, 38, 95
2, 204960, Note_on_c, 0, 62, 95
2, 204960, Note_on_c, 0, 57, 95
2, 204960, Note_on_c, 0, 54, 95
2, 204960, Note_on_c, 0, 50, 95
2, 204960, Note_on_c, 0, 45, 95
2, 204960, Note_on_c, 0, 38, 95
2, 205440, Note_off_c, 0, 62, 95
2, 205440, Note_off_c, 0, 57, 95
2, 205440, Note_off_c, 0, 54, 95
2, 205440, Note_off_c, 0, 50, 95
2, 205440, Note_off_c, 0, 45, 95
2, 205440, Note_off_c, 0, 38, 95
2, 205440, Note_on_c, 0, 62, 95
2, 205440, Note_on_c, 0, 57, 95
2, 205440, Note_on_c, 0, 54, 95
2, 205440, Note_on_c, 0, 50, 95
2, 205440, Note_on_c, 0, 45, 95
2, 205440, Note_on_c, 0, 38, 95
2, 205920, Note_off_c, 0, 62, 95
2, 205920, Note_off_c, 0, 57, 95
2, 205920, Note_off_c, 0, 54, 95
2, 205920, Note_off_c, 0, 50, 95
2, 205920, Note_off_c, 0, 45, 95
2, 205920, Note_off_c, 0, 38, 95
2, 205920, Note_on_c, 0, 62, 95
2, 205920, Note_on_c, 0, 57, 95
2, 205920, Note_on_c, 0, 54, 95
2, 205920, Note_on_c, 0, 50, 95
2, 205920, Note_on_c, 0, 45, 95
2, 205920, Note_on_c, 0, 38, 95
2, 206400, Note_off_c, 0, 62, 95
2, 206400, Note_off_c, 0, 57, 95
2, 206400, Note_off_c, 0, 54, 95
2, 206400, Note_off_c, 0, 50, 95
2, 206400, Note_off_c, 0, 45, 95
2, 206400, Note_off_c, 0, 38, 95
2, 206400, Note_on_c, 0, 62, 95
2, 206400, Note_on_c, 0, 57, 95
2, 206400, Note_on_c, 0, 54, 95
2, 206400, Note_on_c, 0, 50, 95
2, 206400, Note_on_c, 0, 45, 95
2, 206400, Note_on_c, 0, 38, 95
2, 206880, Note_off_c, 0, 62, 95
2, 206880, Note_off_c, 0, 57, 95
2, 206880, Note_off_c, 0, 54, 95
2, 206880, Note_off_c, 0, 50, 95
2, 206880, Note_off_c, 0, 45, 95
2, 206880, Note_off_c, 0, 38, 95
2, 206880, Note_on_c, 0, 62, 95
2, 206880, Note_on_c, 0, 57, 95
2, 206880, Note_on_c, 0, 54, 95
2, 206880, Note_on_c, 0, 50, 95
2, 206880, Note_on_c, 0, 45, 95
2, 206880, Note_on_c, 0, 38, 95
2, 207360, Note_off_c, 0, 62, 95
2, 207360, Note_off_c, 0, 57, 95
2, 207360, Note_off_c, 0, 54, 95
2, 207360, Note_off_c, 0, 50, 95
2, 207360, Note_off_c, 0, 45, 95
2, 207360, Note_off_c, 0, 38, 95
2, 207360, Note_on_c, 0, 62, 95
2, 207360, Note_on_c, 0, 57, 95
2, 207360, Note_on_c, 0, 54, 95
2, 207360, Note_on_c, 0, 50, 95
2, 207360, Note_on_c, 0, 45, 95
2, 207360, Note_on_c, 0, 38, 95
2, 207840, Note_off_c, 0, 62, 95
2, 207840, Note_off_c, 0, 57, 95
2, 207840, Note_off_c, 0, 54, 95
2, 207840, Note_off_c, 0, 50, 95
2, 207840, Note_off_c, 0, 45, 95
2, 207840, Note_off_c, 0, 38, 95
2, 207840, Note_on_c, 0, 62, 95
2, 207840, Note_on_c, 0, 57, 95
2, 207840, Note_on_c, 0, 54, 95
2, 207840, Note_on_c, 0, 50, 95
2, 207840, Note_on_c, 0, 45, 95
2, 207840, Note_on_c, 0, 38, 95
2, 208320, Note_off_c, 0, 62, 95
2, 208320, Note_off_c, 0, 57, 95
2, 208320, Note_off_c, 0, 54, 95
2, 208320, Note_off_c, 0, 50, 95
2, 208320, Note_off_c, 0, 45, 95
2, 208320, Note_off_c, 0, 38, 95
2, 208320, Note_on_c, 0, 62, 95
2, 208320, Note_on_c, 0, 57, 95
2, 208320, Note_on_c, 0, 54, 95
2, 208320, Note_on_c, 0, 50, 95
2, 208320, Note_on_c, 0, 45, 95
2, 208320, Note_on_c, 0, 38, 95
2, 208800, Note_off_c, 0, 62, 95
2, 208800, Note_off_c, 0, 57, 95
2, 208800, Note_off_c, 0, 54, 95
2, 208800, Note_off_c, 0, 50, 95
2, 208800, Note_off_c, 0, 45, 95
2, 208800, Note_off_c, 0, 38, 95
2, 208800, Note_on_c, 0, 62, 95
2, 208800, Note_on_c, 0, 57, 95
2, 208800, Note_on_c, 0, 54, 95
2, 208800, Note_on_c, 0, 50, 95
2, 208800, Note_on_c, 0, 45, 95
2, 208800, Note_on_c, 0, 38, 95
2, 209280, Note_off_c, 0, 62, 95
2, 209280, Note_off_c, 0, 57, 95
2, 209280, Note_off_c, 0, 54, 95
2, 209280, Note_off_c, 0, 50, 95
2, 209280, Note_off_c, 0, 45, 95
2, 209280, Note_off_c, 0, 38, 95
2, 209280, Note_on_c, 0, 62, 95
2, 209280, Note_on_c, 0, 57, 95
2, 209280, Note_on_c, 0, 54, 95
2, 209280, Note_on_c, 0, 50, 95
2, 209280, Note_on_c, 0, 45, 95
2, 209280, Note_on_c, 0, 38, 95
2, 209760, Note_off_c, 0, 62, 95
2, 209760, Note_off_c, 0, 57, 95
2, 209760, Note_off_c, 0, 54, 95
2, 209760, Note_off_c, 0, 50, 95
2, 209760, Note_off_c, 0, 45, 95
2, 209760, Note_off_c, 0, 38, 95
2, 209760, Note_on_c, 0, 62, 95
2, 209760, Note_on_c, 0, 57, 95
2, 209760, Note_on_c, 0, 54, 95
2, 209760, Note_on_c, 0, 50, 95
2, 209760, Note_on_c, 0, 45, 95
2, 209760, Note_on_c, 0, 38, 95
2, 210240, Note_off_c, 0, 62, 95
2, 210240, Note_off_c, 0, 57, 95
2, 210240, Note_off_c, 0, 54, 95
2, 210240, Note_off_c, 0, 50, 95
2, 210240, Note_off_c, 0, 45, 95
2, 210240, Note_off_c, 0, 38, 95
2, 210240, Note_on_c, 0, 62, 95
2, 210240, Note_on_c, 0, 57, 95
2, 210240, Note_on_c, 0, 54, 95
2, 210240, Note_on_c, 0, 50, 95
2, 210240, Note_on_c, 0, 45, 95
2, 210240, Note_on_c, 0, 38, 95
2, 210720, Note_off_c, 0, 62, 95
2, 210720, Note_off_c, 0, 57, 95
2, 210720, Note_off_c, 0, 54, 95
2, 210720, Note_off_c, 0, 50, 95
2, 210720, Note_off_c, 0, 45, 95
2, 210720, Note_off_c, 0, 38, 95
2, 210720, Note_on_c, 0, 62, 95
2, 210720, Note_on_c, 0, 57, 95
2, 210720, Note_on_c, 0, 54, 95
2, 210720, Note_on_c, 0, 50, 95
2, 210720, Note_on_c, 0, 45, 95
2, 210720, Note_on_c, 0, 38, 95
2, 211200, Note_off_c, 0, 62, 95
2, 211200, Note_off_c, 0, 57, 95
2, 211200, Note_off_c, 0, 54, 95
2, 211200, Note_off_c, 0, 50, 95
2, 211200, Note_off_c, 0, 45, 95
2, 211200, Note_off_c, 0, 38, 95
2, 211200, Note_on_c, 0, 62, 95
2, 211200, Note_on_c, 0, 57, 95
2, 211200, Note_on_c, 0, 54, 95
2, 211200, Note_on_c, 0, 50, 95
2, 211200, Note_on_c, 0, 45, 95
2, 211200, Note_on_c, 0, 38, 95
2, 212160, Note_off_c, 0, 62, 95
2, 212160, Note_off_c, 0, 57, 95
2, 212160, Note_off_c, 0, 54, 95
2, 212160, Note_off_c, 0, 50, 95
2, 212160, Note_off_c, 0, 45, 95
2, 212160, Note_off_c, 0, 38, 95
2, 212160, Note_on_c, 0, 62, 95
2, 212160, Note_on_c, 0, 57, 95
2, 212160, Note_on_c, 0, 54, 95
2, 212160, Note_on_c, 0, 50, 95
2, 212160, Note_on_c, 0, 45, 95
2, 212160, Note_on_c, 0, 38, 95
2, 212640, Note_off_c, 0, 62, 95
2, 212640, Note_off_c, 0, 57, 95
2, 212640, Note_off_c, 0, 54, 95
2, 212640, Note_off_c, 0, 50, 95
2, 212640, Note_off_c, 0, 45, 95
2, 212640, Note_off_c, 0, 38, 95
2, 212640, Note_on_c, 0, 62, 95
2, 212640, Note_on_c, 0, 57, 95
2, 212640, Note_on_c, 0, 54, 95
2, 212640, Note_on_c, 0, 50, 95
2, 212640, Note_on_c, 0, 45, 95
2, 212640, Note_on_c, 0, 38, 95
2, 213120, Note_off_c, 0, 62, 95
2, 213120, Note_off_c, 0, 57, 95
2, 213120, Note_off_c, 0, 54, 95
2, 213120, Note_off_c, 0, 50, 95
2, 213120, Note_off_c, 0, 45, 95
2, 213120, Note_off_c, 0, 38, 95
2, 213120, Note_on_c, 0, 62, 95
2, 213120, Note_on_c, 0, 57, 95
2, 213120, Note_on_c, 0, 54, 95
2, 213120, Note_on_c, 0, 50, 95
2, 213120, Note_on_c, 0, 45, 95
2, 213120, Note_on_c, 0, 38, 95
2, 213600, Note_off_c, 0, 62, 95
2, 213600, Note_off_c, 0, 57, 95
2, 213600, Note_off_c, 0, 54, 95
2, 213600, Note_off_c, 0, 50, 95
2, 213600, Note_off_c, 0, 45, 95
2, 213600, Note_off_c, 0, 38, 95
2, 213600, Note_on_c, 0, 62, 95
2, 213600, Note_on_c, 0, 57, 95
2, 213600, Note_on_c, 0, 54, 95
2, 213600, Note_on_c, 0, 50, 95
2, 213600, Note_on_c, 0, 45, 95
2, 213600, Note_on_c, 0, 38, 95
2, 214080, Note_off_c, 0, 62, 95
2, 214080, Note_off_c, 0, 57, 95
2, 214080, Note_off_c, 0, 54, 95
2, 214080, Note_off_c, 0, 50, 95
2, 214080, Note_off_c, 0, 45, 95
2, 214080, Note_off_c, 0, 38, 95
2, 214080, Note_on_c, 0, 62, 95
2, 214080, Note_on_c, 0, 57, 95
2, 214080, Note_on_c, 0, 54, 95
2, 214080, Note_on_c, 0, 50, 95
2, 214080, Note_on_c, 0, 45, 95
2, 214080, Note_on_c, 0, 38, 95
2, 214143, Note_off_c, 0, 62, 95
2, 214143, Note_off_c, 0, 57, 95
2, 214143, Note_off_c, 0, 54, 95
2, 214143, Note_off_c, 0, 50, 95
2, 214143, Note_off_c, 0, 45, 95
2, 214143, Note_off_c, 0, 38, 95
2, 214560, Note_on_c, 1, 50, 95
2, 214560, Note_on_c, 0, 38, 95
2, 214680, Pitch_bend_c, 1, 8192
2, 214800, Pitch_bend_c, 1, 8192
2, 214920, Pitch_bend_c, 1, 8192
2, 215040, Pitch_bend_c, 1, 8192
2, 215040, Pitch_bend_c, 1, 8192
2, 215040, Note_off_c, 0, 38, 95
2, 215520, Note_off_c, 1, 50, 95
2, 215520, Note_on_c, 0, 48, 95
2, 215520, Note_on_c, 0, 38, 95
2, 216480, Note_off_c, 0, 48, 95
2, 216480, Note_off_c, 0, 38, 95
2, 216480, Note_on_c, 0, 45, 70
2, 216480, Note_on_c, 1, 38, 95
2, 216600, Pitch_bend_c, 1, 8960
2, 216720, Pitch_bend_c, 1, 9856
2, 216840, Pitch_bend_c, 1, 10752
2, 216960, Note_off_c, 0, 45, 70
2, 216960, Pitch_bend_c, 1, 11648
2, 216960, Pitch_bend_c, 1, 8192
2, 216960, Note_off_c, 1, 38, 95
2, 216960, Note_on_c, 1, 43, 95
2, 217080, Pitch_bend_c, 1, 7936
2, 217200, Pitch_bend_c, 1, 7552
2, 217320, Pitch_bend_c, 1, 7168
2, 217440, Pitch_bend_c, 1, 6784
2, 217440, Pitch_bend_c, 1, 8192
2, 217440, Note_off_c, 1, 43, 95
2, 217440, Note_on_c, 0, 41, 95
2, 218400, Note_off_c, 0, 41, 95
2, 218400, Note_on_c, 0, 62, 95
2, 218400, Note_on_c, 0, 57, 95
2, 218400, Note_on_c, 0, 54, 95
2, 218400, Note_on_c, 0, 50, 95
2, 218400, Note_on_c, 0, 45, 95
2, 218400, Note_on_c, 0, 38, 95
2, 218880, Note_off_c, 0, 62, 95
2, 218880, Note_off_c, 0, 57, 95
2, 218880, Note_off_c, 0, 54, 95
2, 218880, Note_off_c, 0, 50, 95
2, 218880, Note_off_c, 0, 45, 95
2, 218880, Note_off_c, 0, 38, 95
2, 218880, Note_on_c, 0, 72, 95
2, 218880, Note_on_c, 0, 67, 95
2, 218880, Note_on_c, 0, 64, 95
2, 218880, Note_on_c, 0, 60, 95
2, 218880, Note_on_c, 0, 55, 95
2, 218880, Note_on_c, 0, 48, 95
2, 219840, Note_off_c, 0, 72, 95
2, 219840, Note_off_c, 0, 67, 95
2, 219840, Note_off_c, 0, 64, 95
2, 219840, Note_off_c, 0, 60, 95
2, 219840, Note_off_c, 0, 55, 95
2, 219840, Note_off_c, 0, 48, 95
2, 219840, Note_on_c, 0, 72, 95
2, 219840, Note_on_c, 0, 67, 95
2, 219840, Note_on_c, 0, 64, 95
2, 219840, Note_on_c, 0, 60, 95
2, 219840, Note_on_c, 0, 55, 95
2, 219840, Note_on_c, 0, 48, 95
2, 220080, Note_off_c, 0, 72, 95
2, 220080, Note_off_c, 0, 67, 95
2, 220080, Note_off_c, 0, 64, 95
2, 220080, Note_off_c, 0, 60, 95
2, 220080, Note_off_c, 0, 55, 95
2, 220080, Note_off_c, 0, 48, 95
2, 220080, Note_on_c, 0, 72, 95
2, 220080, Note_on_c, 0, 67, 95
2, 220080, Note_on_c, 0, 64, 95
2, 220080, Note_on_c, 0, 60, 95
2, 220080, Note_on_c, 0, 55, 95
2, 220080, Note_on_c, 0, 48, 95
2, 220320, Note_off_c, 0, 72, 95
2, 220320, Note_off_c, 0, 67, 95
2, 220320, Note_off_c, 0, 64, 95
2, 220320, Note_off_c, 0, 60, 95
2, 220320, Note_off_c, 0, 55, 95
2, 220320, Note_off_c, 0, 48, 95
2, 220320, Note_on_c, 0, 72, 95
2, 220320, Note_on_c, 0, 67, 95
2, 220320, Note_on_c, 0, 64, 95
2, 220320, Note_on_c, 0, 60, 95
2, 220320, Note_on_c, 0, 55, 95
2, 220320, Note_on_c, 0, 48, 95
2, 220560, Note_off_c, 0, 72, 95
2, 220560, Note_off_c, 0, 67, 95
2, 220560, Note_off_c, 0, 64, 95
2, 220560, Note_off_c, 0, 60, 95
2, 220560, Note_off_c, 0, 55, 95
2, 220560, Note_off_c, 0, 48, 95
2, 220560, Note_on_c, 0, 72, 95
2, 220560, Note_on_c, 0, 67, 95
2, 220560, Note_on_c, 0, 64, 95
2, 220560, Note_on_c, 0, 60, 95
2, 220560, Note_on_c, 0, 55, 95
2, 220560, Note_on_c, 0, 48, 95
2, 220800, Note_off_c, 0, 72, 95
2, 220800, Note_off_c, 0, 67, 95
2, 220800, Note_off_c, 0, 64, 95
2, 220800, Note_off_c, 0, 60, 95
2, 220800, Note_off_c, 0, 55, 95
2, 220800, Note_off_c, 0, 48, 95
2, 220800, Note_on_c, 0, 72, 95
2, 220800, Note_on_c, 0, 67, 95
2, 220800, Note_on_c, 0, 64, 95
2, 220800, Note_on_c, 0, 60, 95
2, 220800, Note_on_c, 0, 55, 95
2, 220800, Note_on_c, 0, 48, 95
2, 221280, Note_off_c, 0, 72, 95
2, 221280, Note_off_c, 0, 67, 95
2, 221280, Note_off_c, 0, 64, 95
2, 221280, Note_off_c, 0, 60, 95
2, 221280, Note_off_c, 0, 55, 95
2, 221280, Note_off_c, 0, 48, 95
2, 221280, Note_on_c, 0, 72, 95
2, 221280, Note_on_c, 0, 67, 95
2, 221280, Note_on_c, 0, 64, 95
2, 221280, Note_on_c, 0, 60, 95
2, 221280, Note_on_c, 0, 55, 95
2, 221280, Note_on_c, 0, 48, 95
2, 221760, Note_off_c, 0, 72, 95
2, 221760, Note_off_c, 0, 67, 95
2, 221760, Note_off_c, 0, 64, 95
2, 221760, Note_off_c, 0, 60, 95
2, 221760, Note_off_c, 0, 55, 95
2, 221760, Note_off_c, 0, 48, 95
2, 221760, Note_on_c, 0, 72, 95
2, 221760, Note_on_c, 0, 67, 95
2, 221760, Note_on_c, 0, 64, 95
2, 221760, Note_on_c, 0, 60, 95
2, 221760, Note_on_c, 0, 55, 95
2, 221760, Note_on_c, 0, 48, 95
2, 222240, Note_off_c, 0, 72, 95
2, 222240, Note_off_c, 0, 67, 95
2, 222240, Note_off_c, 0, 64, 95
2, 222240, Note_off_c, 0, 60, 95
2, 222240, Note_off_c, 0, 55, 95
2, 222240, Note_off_c, 0, 48, 95
2, 222240, Note_on_c, 0, 72, 95
2, 222240, Note_on_c, 0, 67, 95
2, 222240, Note_on_c, 0, 65, 95
2, 222240, Note_on_c, 0, 60, 95
2, 222240, Note_on_c, 0, 57, 95
2, 222240, Note_on_c, 0, 48, 95
2, 223200, Note_off_c, 0, 72, 95
2, 223200, Note_off_c, 0, 67, 95
2, 223200, Note_off_c, 0, 65, 95
2, 223200, Note_off_c, 0, 60, 95
2, 223200, Note_off_c, 0, 57, 95
2, 223200, Note_off_c, 0, 48, 95
2, 223200, Note_on_c, 0, 72, 95
2, 223200, Note_on_c, 0, 67, 95
2, 223200, Note_on_c, 0, 65, 95
2, 223200, Note_on_c, 0, 60, 95
2, 223200, Note_on_c, 0, 57, 95
2, 223200, Note_on_c, 0, 48, 95
2, 223680, Note_off_c, 0, 72, 95
2, 223680, Note_off_c, 0, 67, 95
2, 223680, Note_off_c, 0, 65, 95
2, 223680, Note_off_c, 0, 60, 95
2, 223680, Note_off_c, 0, 57, 95
2, 223680, Note_off_c, 0, 48, 95
2, 223680, Note_on_c, 0, 72, 95
2, 223680, Note_on_c, 0, 67, 95
2, 223680, Note_on_c, 0, 65, 95
2, 223680, Note_on_c, 0, 60, 95
2, 223680, Note_on_c, 0, 57, 95
2, 223680, Note_on_c, 0, 48, 95
2, 224160, Note_off_c, 0, 72, 95
2, 224160, Note_off_c, 0, 67, 95
2, 224160, Note_off_c, 0, 65, 95
2, 224160, Note_off_c, 0, 60, 95
2, 224160, Note_off_c, 0, 57, 95
2, 224160, Note_off_c, 0, 48, 95
2, 224160, Note_on_c, 0, 72, 95
2, 224160, Note_on_c, 0, 67, 95
2, 224160, Note_on_c, 0, 65, 95
2, 224160, Note_on_c, 0, 60, 95
2, 224160, Note_on_c, 0, 57, 95
2, 224160, Note_on_c, 0, 48, 95
2, 224640, Note_off_c, 0, 72, 95
2, 224640, Note_off_c, 0, 67, 95
2, 224640, Note_off_c, 0, 65, 95
2, 224640, Note_off_c, 0, 60, 95
2, 224640, Note_off_c, 0, 57, 95
2, 224640, Note_off_c, 0, 48, 95
2, 224640, Note_on_c, 0, 72, 95
2, 224640, Note_on_c, 0, 67, 95
2, 224640, Note_on_c, 0, 65, 95
2, 224640, Note_on_c, 0, 60, 95
2, 224640, Note_on_c, 0, 57, 95
2, 224640, Note_on_c, 0, 48, 95
2, 225120, Note_off_c, 0, 72, 95
2, 225120, Note_off_c, 0, 67, 95
2, 225120, Note_off_c, 0, 65, 95
2, 225120, Note_off_c, 0, 60, 95
2, 225120, Note_off_c, 0, 57, 95
2, 225120, Note_off_c, 0, 48, 95
2, 225120, Note_on_c, 0, 72, 95
2, 225120, Note_on_c, 0, 67, 95
2, 225120, Note_on_c, 0, 65, 95
2, 225120, Note_on_c, 0, 60, 95
2, 225120, Note_on_c, 0, 57, 95
2, 225120, Note_on_c, 0, 48, 95
2, 225600, Note_off_c, 0, 72, 95
2, 225600, Note_off_c, 0, 67, 95
2, 225600, Note_off_c, 0, 65, 95
2, 225600, Note_off_c, 0, 60, 95
2, 225600, Note_off_c, 0, 57, 95
2, 225600, Note_off_c, 0, 48, 95
2, 225600, Note_on_c, 0, 72, 95
2, 225600, Note_on_c, 0, 67, 95
2, 225600, Note_on_c, 0, 65, 95
2, 225600, Note_on_c, 0, 60, 95
2, 225600, Note_on_c, 0, 57, 95
2, 225600, Note_on_c, 0, 48, 95
2, 226080, Note_off_c, 0, 72, 95
2, 226080, Note_off_c, 0, 67, 95
2, 226080, Note_off_c, 0, 65, 95
2, 226080, Note_off_c, 0, 60, 95
2, 226080, Note_off_c, 0, 57, 95
2, 226080, Note_off_c, 0, 48, 95
2, 226080, Note_on_c, 0, 72, 95
2, 226080, Note_on_c, 0, 67, 95
2, 226080, Note_on_c, 0, 64, 95
2, 226080, Note_on_c, 0, 60, 95
2, 226080, Note_on_c, 0, 55, 95
2, 226080, Note_on_c, 0, 48, 95
2, 226560, Note_off_c, 0, 72, 95
2, 226560, Note_off_c, 0, 67, 95
2, 227520, Note_off_c, 0, 64, 95
2, 227520, Note_off_c, 0, 60, 95
2, 227520, Note_off_c, 0, 55, 95
2, 227520, Note_off_c, 0, 48, 95
2, 227520, Note_on_c, 0, 72, 95
2, 227520, Note_on_c, 0, 67, 95
2, 227520, Note_on_c, 0, 64, 95
2, 227520, Note_on_c, 0, 60, 95
2, 227520, Note_on_c, 0, 55, 95
2, 227520, Note_on_c, 0, 48, 95
2, 228480, Note_off_c, 0, 72, 95
2, 228480, Note_off_c, 0, 67, 95
2, 228480, Note_off_c, 0, 64, 95
2, 228480, Note_off_c, 0, 60, 95
2, 228480, Note_off_c, 0, 55, 95
2, 228480, Note_off_c, 0, 48, 95
2, 228480, Note_on_c, 0, 72, 95
2, 228480, Note_on_c, 0, 67, 95
2, 228480, Note_on_c, 0, 64, 95
2, 228480, Note_on_c, 0, 60, 95
2, 228480, Note_on_c, 0, 55, 95
2, 228480, Note_on_c, 0, 48, 95
2, 228960, Note_off_c, 0, 72, 95
2, 228960, Note_off_c, 0, 67, 95
2, 228960, Note_off_c, 0, 64, 95
2, 228960, Note_off_c, 0, 60, 95
2, 228960, Note_off_c, 0, 55, 95
2, 228960, Note_off_c, 0, 48, 95
2, 228960, Note_on_c, 0, 72, 95
2, 228960, Note_on_c, 0, 67, 95
2, 228960, Note_on_c, 0, 64, 95
2, 228960, Note_on_c, 0, 60, 95
2, 228960, Note_on_c, 0, 55, 95
2, 228960, Note_on_c, 0, 48, 95
2, 229440, Note_off_c, 0, 72, 95
2, 229440, Note_off_c, 0, 67, 95
2, 229440, Note_off_c, 0, 64, 95
2, 229440, Note_off_c, 0, 60, 95
2, 229440, Note_off_c, 0, 55, 95
2, 229440, Note_off_c, 0, 48, 95
2, 229440, Note_on_c, 0, 72, 95
2, 229440, Note_on_c, 0, 67, 95
2, 229440, Note_on_c, 0, 64, 95
2, 229440, Note_on_c, 0, 60, 95
2, 229440, Note_on_c, 0, 55, 95
2, 229440, Note_on_c, 0, 48, 95
2, 229920, Note_off_c, 0, 72, 95
2, 229920, Note_off_c, 0, 67, 95
2, 229920, Note_off_c, 0, 64, 95
2, 229920, Note_off_c, 0, 60, 95
2, 229920, Note_off_c, 0, 55, 95
2, 229920, Note_off_c, 0, 48, 95
2, 229920, Note_on_c, 0, 72, 95
2, 229920, Note_on_c, 0, 67, 95
2, 229920, Note_on_c, 0, 64, 95
2, 229920, Note_on_c, 0, 60, 95
2, 229920, Note_on_c, 0, 55, 95
2, 229920, Note_on_c, 0, 48, 95
2, 230400, Note_off_c, 0, 72, 95
2, 230400, Note_off_c, 0, 67, 95
2, 230400, Note_off_c, 0, 64, 95
2, 230400, Note_off_c, 0, 60, 95
2, 230400, Note_off_c, 0, 55, 95
2, 230400, Note_off_c, 0, 48, 95
2, 230400, Note_on_c, 0, 72, 95
2, 230400, Note_on_c, 0, 67, 95
2, 230400, Note_on_c, 0, 65, 95
2, 230400, Note_on_c, 0, 60, 95
2, 230400, Note_on_c, 0, 57, 95
2, 230400, Note_on_c, 0, 48, 95
2, 230880, Note_off_c, 0, 72, 95
2, 230880, Note_off_c, 0, 67, 95
2, 230880, Note_off_c, 0, 65, 95
2, 230880, Note_off_c, 0, 60, 95
2, 230880, Note_off_c, 0, 57, 95
2, 230880, Note_off_c, 0, 48, 95
2, 230880, Note_on_c, 0, 72, 95
2, 230880, Note_on_c, 0, 67, 95
2, 230880, Note_on_c, 0, 65, 95
2, 230880, Note_on_c, 0, 60, 95
2, 230880, Note_on_c, 0, 57, 95
2, 230880, Note_on_c, 0, 48, 95
2, 231360, Note_off_c, 0, 72, 95
2, 231360, Note_off_c, 0, 67, 95
2, 231360, Note_off_c, 0, 65, 95
2, 231360, Note_off_c, 0, 60, 95
2, 231360, Note_off_c, 0, 57, 95
2, 231360, Note_off_c, 0, 48, 95
2, 231360, Note_on_c, 0, 72, 95
2, 231360, Note_on_c, 0, 67, 95
2, 231360, Note_on_c, 0, 64, 95
2, 231360, Note_on_c, 0, 60, 95
2, 231360, Note_on_c, 0, 55, 95
2, 231360, Note_on_c, 0, 48, 95
2, 231840, Note_off_c, 0, 72, 95
2, 231840, Note_off_c, 0, 67, 95
2, 231840, Note_off_c, 0, 64, 95
2, 231840, Note_off_c, 0, 60, 95
2, 231840, Note_off_c, 0, 55, 95
2, 231840, Note_off_c, 0, 48, 95
2, 231840, Note_on_c, 0, 72, 95
2, 231840, Note_on_c, 0, 67, 95
2, 231840, Note_on_c, 0, 65, 95
2, 231840, Note_on_c, 0, 60, 95
2, 231840, Note_on_c, 0, 57, 95
2, 231840, Note_on_c, 0, 48, 95
2, 232800, Note_off_c, 0, 72, 95
2, 232800, Note_off_c, 0, 67, 95
2, 232800, Note_off_c, 0, 65, 95
2, 232800, Note_off_c, 0, 60, 95
2, 232800, Note_off_c, 0, 57, 95
2, 232800, Note_off_c, 0, 48, 95
2, 232800, Note_on_c, 0, 72, 95
2, 232800, Note_on_c, 0, 67, 95
2, 232800, Note_on_c, 0, 65, 95
2, 232800, Note_on_c, 0, 60, 95
2, 232800, Note_on_c, 0, 57, 95
2, 232800, Note_on_c, 0, 48, 95
2, 233280, Note_off_c, 0, 72, 95
2, 233280, Note_off_c, 0, 67, 95
2, 233280, Note_off_c, 0, 65, 95
2, 233280, Note_off_c, 0, 60, 95
2, 233280, Note_off_c, 0, 57, 95
2, 233280, Note_off_c, 0, 48, 95
2, 233280, Note_on_c, 0, 72, 95
2, 233280, Note_on_c, 0, 67, 95
2, 233280, Note_on_c, 0, 64, 95
2, 233280, Note_on_c, 0, 60, 95
2, 233280, Note_on_c, 0, 55, 95
2, 233280, Note_on_c, 0, 48, 95
2, 233760, Note_off_c, 0, 72, 95
2, 233760, Note_off_c, 0, 67, 95
2, 233760, Note_off_c, 0, 64, 95
2, 233760, Note_off_c, 0, 60, 95
2, 233760, Note_off_c, 0, 55, 95
2, 233760, Note_off_c, 0, 48, 95
2, 233760, Note_on_c, 0, 72, 95
2, 233760, Note_on_c, 0, 67, 95
2, 233760, Note_on_c, 0, 65, 95
2, 233760, Note_on_c, 0, 60, 95
2, 233760, Note_on_c, 0, 57, 95
2, 233760, Note_on_c, 0, 48, 95
2, 234720, Note_off_c, 0, 72, 95
2, 234720, Note_off_c, 0, 67, 95
2, 234720, Note_off_c, 0, 65, 95
2, 234720, Note_off_c, 0, 60, 95
2, 234720, Note_off_c, 0, 57, 95
2, 234720, Note_off_c, 0, 48, 95
2, 234720, Note_on_c, 0, 72, 95
2, 234720, Note_on_c, 0, 67, 95
2, 234720, Note_on_c, 0, 65, 95
2, 234720, Note_on_c, 0, 60, 95
2, 234720, Note_on_c, 0, 57, 95
2, 234720, Note_on_c, 0, 48, 95
2, 235200, Note_off_c, 0, 72, 95
2, 235200, Note_off_c, 0, 67, 95
2, 235200, Note_off_c, 0, 65, 95
2, 235200, Note_off_c, 0, 60, 95
2, 235200, Note_off_c, 0, 57, 95
2, 235200, Note_off_c, 0, 48, 95
2, 235200, Note_on_c, 0, 72, 95
2, 235200, Note_on_c, 0, 67, 95
2, 235200, Note_on_c, 0, 64, 95
2, 235200, Note_on_c, 0, 60, 95
2, 235200, Note_on_c, 0, 55, 95
2, 235200, Note_on_c, 0, 48, 95
2, 235680, Note_off_c, 0, 72, 95
2, 235680, Note_off_c, 0, 67, 95
2, 235680, Note_off_c, 0, 64, 95
2, 235680, Note_off_c, 0, 60, 95
2, 235680, Note_off_c, 0, 55, 95
2, 235680, Note_off_c, 0, 48, 95
2, 235680, Note_on_c, 0, 72, 95
2, 235680, Note_on_c, 0, 67, 95
2, 235680, Note_on_c, 0, 65, 95
2, 235680, Note_on_c, 0, 60, 95
2, 235680, Note_on_c, 0, 57, 95
2, 235680, Note_on_c, 0, 48, 95
2, 236640, Note_off_c, 0, 72, 95
2, 236640, Note_off_c, 0, 67, 95
2, 236640, Note_off_c, 0, 65, 95
2, 236640, Note_off_c, 0, 60, 95
2, 236640, Note_off_c, 0, 57, 95
2, 236640, Note_off_c, 0, 48, 95
2, 236640, Note_on_c, 0, 72, 95
2, 236640, Note_on_c, 0, 67, 95
2, 236640, Note_on_c, 0, 65, 95
2, 236640, Note_on_c, 0, 60, 95
2, 236640, Note_on_c, 0, 57, 95
2, 236640, Note_on_c, 0, 48, 95
2, 237120, Note_off_c, 0, 72, 95
2, 237120, Note_off_c, 0, 67, 95
2, 237120, Note_off_c, 0, 65, 95
2, 237120, Note_off_c, 0, 60, 95
2, 237120, Note_off_c, 0, 57, 95
2, 237120, Note_off_c, 0, 48, 95
2, 237120, Note_on_c, 0, 72, 95
2, 237120, Note_on_c, 0, 67, 95
2, 237120, Note_on_c, 0, 64, 95
2, 237120, Note_on_c, 0, 60, 95
2, 237120, Note_on_c, 0, 55, 95
2, 237120, Note_on_c, 0, 48, 95
2, 237600, Note_off_c, 0, 72, 95
2, 237600, Note_off_c, 0, 67, 95
2, 237600, Note_off_c, 0, 64, 95
2, 237600, Note_off_c, 0, 60, 95
2, 237600, Note_off_c, 0, 55, 95
2, 237600, Note_off_c, 0, 48, 95
2, 237600, Note_on_c, 0, 72, 95
2, 237600, Note_on_c, 0, 67, 95
2, 237600, Note_on_c, 0, 65, 95
2, 237600, Note_on_c, 0, 60, 95
2, 237600, Note_on_c, 0, 57, 95
2, 237600, Note_on_c, 0, 48, 95
2, 238080, Note_off_c, 0, 72, 95
2, 238080, Note_off_c, 0, 67, 95
2, 238080, Note_off_c, 0, 65, 95
2, 238080, Note_off_c, 0, 60, 95
2, 238080, Note_off_c, 0, 57, 95
2, 238080, Note_off_c, 0, 48, 95
2, 238080, Note_on_c, 0, 72, 95
2, 238080, Note_on_c, 0, 67, 95
2, 238080, Note_on_c, 0, 65, 95
2, 238080, Note_on_c, 0, 60, 95
2, 238080, Note_on_c, 0, 57, 95
2, 238080, Note_on_c, 0, 48, 95
2, 238560, Note_off_c, 0, 72, 95
2, 238560, Note_off_c, 0, 67, 95
2, 238560, Note_off_c, 0, 65, 95
2, 238560, Note_off_c, 0, 60, 95
2, 238560, Note_off_c, 0, 57, 95
2, 238560, Note_off_c, 0, 48, 95
2, 238560, Note_on_c, 0, 72, 95
2, 238560, Note_on_c, 0, 67, 95
2, 238560, Note_on_c, 0, 65, 95
2, 238560, Note_on_c, 0, 60, 95
2, 238560, Note_on_c, 0, 57, 95
2, 238560, Note_on_c, 0, 48, 95
2, 239040, Note_off_c, 0, 72, 95
2, 239040, Note_off_c, 0, 67, 95
2, 239040, Note_off_c, 0, 65, 95
2, 239040, Note_off_c, 0, 60, 95
2, 239040, Note_off_c, 0, 57, 95
2, 239040, Note_off_c, 0, 48, 95
2, 239040, Note_on_c, 0, 72, 95
2, 239040, Note_on_c, 0, 67, 95
2, 239040, Note_on_c, 0, 64, 95
2, 239040, Note_on_c, 0, 60, 95
2, 239040, Note_on_c, 0, 55, 95
2, 239040, Note_on_c, 0, 48, 95
2, 239520, Note_off_c, 0, 72, 95
2, 239520, Note_off_c, 0, 67, 95
2, 239520, Note_off_c, 0, 64, 95
2, 239520, Note_off_c, 0, 60, 95
2, 239520, Note_off_c, 0, 55, 95
2, 239520, Note_off_c, 0, 48, 95
2, 239520, Note_on_c, 0, 72, 95
2, 239520, Note_on_c, 0, 67, 95
2, 239520, Note_on_c, 0, 65, 95
2, 239520, Note_on_c, 0, 60, 95
2, 239520, Note_on_c, 0, 57, 95
2, 239520, Note_on_c, 0, 48, 95
2, 240000, Note_off_c, 0, 72, 95
2, 240000, Note_off_c, 0, 67, 95
2, 240000, Note_off_c, 0, 65, 95
2, 240000, Note_off_c, 0, 60, 95
2, 240000, Note_off_c, 0, 57, 95
2, 240000, Note_off_c, 0, 48, 95
2, 240000, Note_on_c, 0, 72, 95
2, 240000, Note_on_c, 0, 67, 95
2, 240000, Note_on_c, 0, 65, 95
2, 240000, Note_on_c, 0, 60, 95
2, 240000, Note_on_c, 0, 57, 95
2, 240000, Note_on_c, 0, 48, 95
2, 240480, Note_off_c, 0, 72, 95
2, 240480, Note_off_c, 0, 67, 95
2, 240480, Note_off_c, 0, 65, 95
2, 240480, Note_off_c, 0, 60, 95
2, 240480, Note_off_c, 0, 57, 95
2, 240480, Note_off_c, 0, 48, 95
2, 240480, Note_on_c, 0, 72, 95
2, 240480, Note_on_c, 0, 67, 95
2, 240480, Note_on_c, 0, 65, 95
2, 240480, Note_on_c, 0, 60, 95
2, 240480, Note_on_c, 0, 57, 95
2, 240480, Note_on_c, 0, 48, 95
2, 240960, Note_off_c, 0, 72, 95
2, 240960, Note_off_c, 0, 67, 95
2, 240960, Note_off_c, 0, 65, 95
2, 240960, Note_off_c, 0, 60, 95
2, 240960, Note_off_c, 0, 57, 95
2, 240960, Note_off_c, 0, 48, 95
2, 240960, Note_on_c, 0, 72, 95
2, 240960, Note_on_c, 0, 67, 95
2, 240960, Note_on_c, 0, 64, 95
2, 240960, Note_on_c, 0, 60, 95
2, 240960, Note_on_c, 0, 55, 95
2, 240960, Note_on_c, 0, 48, 95
2, 241440, Note_off_c, 0, 72, 95
2, 241440, Note_off_c, 0, 67, 95
2, 241440, Note_off_c, 0, 64, 95
2, 241440, Note_off_c, 0, 60, 95
2, 241440, Note_off_c, 0, 55, 95
2, 241440, Note_off_c, 0, 48, 95
2, 241440, Note_on_c, 0, 72, 95
2, 241440, Note_on_c, 0, 67, 95
2, 241440, Note_on_c, 0, 65, 95
2, 241440, Note_on_c, 0, 60, 95
2, 241440, Note_on_c, 0, 57, 95
2, 241440, Note_on_c, 0, 48, 95
2, 241920, Note_off_c, 0, 72, 95
2, 241920, Note_off_c, 0, 67, 95
2, 241920, Note_off_c, 0, 65, 95
2, 241920, Note_off_c, 0, 60, 95
2, 241920, Note_off_c, 0, 57, 95
2, 241920, Note_off_c, 0, 48, 95
2, 241920, Note_on_c, 0, 72, 95
2, 241920, Note_on_c, 0, 67, 95
2, 241920, Note_on_c, 0, 65, 95
2, 241920, Note_on_c, 0, 60, 95
2, 241920, Note_on_c, 0, 57, 95
2, 241920, Note_on_c, 0, 48, 95
2, 242400, Note_off_c, 0, 72, 95
2, 242400, Note_off_c, 0, 67, 95
2, 242400, Note_off_c, 0, 65, 95
2, 242400, Note_off_c, 0, 60, 95
2, 242400, Note_off_c, 0, 57, 95
2, 242400, Note_off_c, 0, 48, 95
2, 242400, Note_on_c, 0, 72, 95
2, 242400, Note_on_c, 0, 67, 95
2, 242400, Note_on_c, 0, 65, 95
2, 242400, Note_on_c, 0, 60, 95
2, 242400, Note_on_c, 0, 57, 95
2, 242400, Note_on_c, 0, 48, 95
2, 242880, Note_off_c, 0, 72, 95
2, 242880, Note_off_c, 0, 67, 95
2, 242880, Note_off_c, 0, 65, 95
2, 242880, Note_off_c, 0, 60, 95
2, 242880, Note_off_c, 0, 57, 95
2, 242880, Note_off_c, 0, 48, 95
2, 242880, Note_on_c, 0, 72, 95
2, 242880, Note_on_c, 0, 67, 95
2, 242880, Note_on_c, 0, 65, 95
2, 242880, Note_on_c, 0, 60, 95
2, 242880, Note_on_c, 0, 57, 95
2, 242880, Note_on_c, 0, 48, 95
2, 243360, Note_off_c, 0, 72, 95
2, 243360, Note_off_c, 0, 67, 95
2, 243360, Note_off_c, 0, 65, 95
2, 243360, Note_off_c, 0, 60, 95
2, 243360, Note_off_c, 0, 57, 95
2, 243360, Note_off_c, 0, 48, 95
2, 243360, Note_on_c, 0, 72, 95
2, 243360, Note_on_c, 0, 67, 95
2, 243360, Note_on_c, 0, 65, 95
2, 243360, Note_on_c, 0, 60, 95
2, 243360, Note_on_c, 0, 57, 95
2, 243360, Note_on_c, 0, 48, 95
2, 243840, Note_off_c, 0, 72, 95
2, 243840, Note_off_c, 0, 67, 95
2, 243840, Note_off_c, 0, 65, 95
2, 243840, Note_off_c, 0, 60, 95
2, 243840, Note_off_c, 0, 57, 95
2, 243840, Note_off_c, 0, 48, 95
2, 243840, Note_on_c, 0, 72, 95
2, 243840, Note_on_c, 0, 67, 95
2, 243840, Note_on_c, 0, 64, 95
2, 243840, Note_on_c, 0, 60, 95
2, 243840, Note_on_c, 0, 55, 95
2, 243840, Note_on_c, 0, 48, 95
2, 244320, Note_off_c, 0, 72, 95
2, 244320, Note_off_c, 0, 67, 95
2, 244320, Note_off_c, 0, 64, 95
2, 244320, Note_off_c, 0, 60, 95
2, 244320, Note_off_c, 0, 55, 95
2, 244320, Note_off_c, 0, 48, 95
2, 244320, Note_on_c, 0, 72, 95
2, 244320, Note_on_c, 0, 67, 95
2, 244320, Note_on_c, 0, 64, 95
2, 244320, Note_on_c, 0, 60, 95
2, 244320, Note_on_c, 0, 55, 95
2, 244320, Note_on_c, 0, 48, 95
2, 244800, Note_off_c, 0, 72, 95
2, 244800, Note_off_c, 0, 67, 95
2, 244800, Note_off_c, 0, 64, 95
2, 244800, Note_off_c, 0, 60, 95
2, 244800, Note_off_c, 0, 55, 95
2, 244800, Note_off_c, 0, 48, 95
2, 244800, Note_on_c, 0, 72, 95
2, 244800, Note_on_c, 0, 67, 95
2, 244800, Note_on_c, 0, 64, 95
2, 244800, Note_on_c, 0, 60, 95
2, 244800, Note_on_c, 0, 55, 95
2, 244800, Note_on_c, 0, 48, 95
2, 245280, Note_off_c, 0, 72, 95
2, 245280, Note_off_c, 0, 67, 95
2, 245280, Note_off_c, 0, 64, 95
2, 245280, Note_off_c, 0, 60, 95
2, 245280, Note_off_c, 0, 55, 95
2, 245280, Note_off_c, 0, 48, 95
2, 245280, Note_on_c, 0, 72, 95
2, 245280, Note_on_c, 0, 67, 95
2, 245280, Note_on_c, 0, 64, 95
2, 245280, Note_on_c, 0, 60, 95
2, 245280, Note_on_c, 0, 55, 95
2, 245280, Note_on_c, 0, 48, 95
2, 245760, Note_off_c, 0, 72, 95
2, 245760, Note_off_c, 0, 67, 95
2, 245760, Note_off_c, 0, 64, 95
2, 245760, Note_off_c, 0, 60, 95
2, 245760, Note_off_c, 0, 55, 95
2, 245760, Note_off_c, 0, 48, 95
2, 245760, Note_on_c, 0, 72, 95
2, 245760, Note_on_c, 0, 67, 95
2, 245760, Note_on_c, 0, 65, 95
2, 245760, Note_on_c, 0, 60, 95
2, 245760, Note_on_c, 0, 57, 95
2, 245760, Note_on_c, 0, 48, 95
2, 246240, Note_off_c, 0, 72, 95
2, 246240, Note_off_c, 0, 67, 95
2, 246240, Note_off_c, 0, 65, 95
2, 246240, Note_off_c, 0, 60, 95
2, 246240, Note_off_c, 0, 57, 95
2, 246240, Note_off_c, 0, 48, 95
2, 246240, Note_on_c, 0, 72, 95
2, 246240, Note_on_c, 0, 67, 95
2, 246240, Note_on_c, 0, 65, 95
2, 246240, Note_on_c, 0, 60, 95
2, 246240, Note_on_c, 0, 57, 95
2, 246240, Note_on_c, 0, 48, 95
2, 246720, Note_off_c, 0, 72, 95
2, 246720, Note_off_c, 0, 67, 95
2, 246720, Note_off_c, 0, 65, 95
2, 246720, Note_off_c, 0, 60, 95
2, 246720, Note_off_c, 0, 57, 95
2, 246720, Note_off_c, 0, 48, 95
2, 246720, Note_on_c, 0, 72, 95
2, 246720, Note_on_c, 0, 67, 95
2, 246720, Note_on_c, 0, 65, 95
2, 246720, Note_on_c, 0, 60, 95
2, 246720, Note_on_c, 0, 57, 95
2, 246720, Note_on_c, 0, 48, 95
2, 247680, Note_off_c, 0, 72, 95
2, 247680, Note_off_c, 0, 67, 95
2, 247680, Note_off_c, 0, 65, 95
2, 247680, Note_off_c, 0, 60, 95
2, 247680, Note_off_c, 0, 57, 95
2, 247680, Note_off_c, 0, 48, 95
2, 247680, Note_on_c, 0, 72, 95
2, 247680, Note_on_c, 0, 67, 95
2, 247680, Note_on_c, 0, 65, 95
2, 247680, Note_on_c, 0, 60, 95
2, 247680, Note_on_c, 0, 57, 95
2, 247680, Note_on_c, 0, 48, 95
2, 248160, Note_off_c, 0, 72, 95
2, 248160, Note_off_c, 0, 67, 95
2, 248160, Note_off_c, 0, 65, 95
2, 248160, Note_off_c, 0, 60, 95
2, 248160, Note_off_c, 0, 57, 95
2, 248160, Note_off_c, 0, 48, 95
2, 248160, Note_on_c, 0, 72, 95
2, 248160, Note_on_c, 0, 67, 95
2, 248160, Note_on_c, 0, 64, 95
2, 248160, Note_on_c, 0, 60, 95
2, 248160, Note_on_c, 0, 55, 95
2, 248160, Note_on_c, 0, 48, 95
2, 249120, Note_off_c, 0, 72, 95
2, 249120, Note_off_c, 0, 67, 95
2, 249120, Note_off_c, 0, 64, 95
2, 249120, Note_off_c, 0, 60, 95
2, 249120, Note_off_c, 0, 55, 95
2, 249120, Note_off_c, 0, 48, 95
2, 249120, Note_on_c, 0, 72, 95
2, 249120, Note_on_c, 0, 67, 95
2, 249120, Note_on_c, 0, 65, 95
2, 249120, Note_on_c, 0, 60, 95
2, 249120, Note_on_c, 0, 57, 95
2, 249120, Note_on_c, 0, 48, 95
2, 250080, Note_off_c, 0, 72, 95
2, 250080, Note_off_c, 0, 67, 95
2, 250080, Note_off_c, 0, 65, 95
2, 250080, Note_off_c, 0, 60, 95
2, 250080, Note_off_c, 0, 57, 95
2, 250080, Note_off_c, 0, 48, 95
2, 250080, Note_on_c, 0, 72, 95
2, 250080, Note_on_c, 0, 67, 95
2, 250080, Note_on_c, 0, 65, 95
2, 250080, Note_on_c, 0, 60, 95
2, 250080, Note_on_c, 0, 57, 95
2, 250080, Note_on_c, 0, 48, 95
2, 250560, Note_off_c, 0, 72, 95
2, 250560, Note_off_c, 0, 67, 95
2, 250560, Note_off_c, 0, 65, 95
2, 250560, Note_off_c, 0, 60, 95
2, 250560, Note_off_c, 0, 57, 95
2, 250560, Note_off_c, 0, 48, 95
2, 250560, Note_on_c, 0, 72, 95
2, 250560, Note_on_c, 0, 67, 95
2, 250560, Note_on_c, 0, 65, 95
2, 250560, Note_on_c, 0, 60, 95
2, 250560, Note_on_c, 0, 57, 95
2, 250560, Note_on_c, 0, 48, 95
2, 251520, Note_off_c, 0, 72, 95
2, 251520, Note_off_c, 0, 67, 95
2, 251520, Note_off_c, 0, 65, 95
2, 251520, Note_off_c, 0, 60, 95
2, 251520, Note_off_c, 0, 57, 95
2, 251520, Note_off_c, 0, 48, 95
2, 251520, Note_on_c, 0, 72, 95
2, 251520, Note_on_c, 0, 67, 95
2, 251520, Note_on_c, 0, 65, 95
2, 251520, Note_on_c, 0, 60, 95
2, 251520, Note_on_c, 0, 57, 95
2, 251520, Note_on_c, 0, 48, 95
2, 252000, Note_off_c, 0, 72, 95
2, 252000, Note_off_c, 0, 67, 95
2, 252000, Note_off_c, 0, 65, 95
2, 252000, Note_off_c, 0, 60, 95
2, 252000, Note_off_c, 0, 57, 95
2, 252000, Note_off_c, 0, 48, 95
2, 252000, Note_on_c, 0, 72, 95
2, 252000, Note_on_c, 0, 67, 95
2, 252000, Note_on_c, 0, 65, 95
2, 252000, Note_on_c, 0, 60, 95
2, 252000, Note_on_c, 0, 57, 95
2, 252000, Note_on_c, 0, 48, 95
2, 252480, Note_off_c, 0, 72, 95
2, 252480, Note_off_c, 0, 67, 95
2, 252480, Note_off_c, 0, 65, 95
2, 252480, Note_off_c, 0, 60, 95
2, 252480, Note_off_c, 0, 57, 95
2, 252480, Note_off_c, 0, 48, 95
2, 252480, Note_on_c, 0, 72, 95
2, 252480, Note_on_c, 0, 67, 95
2, 252480, Note_on_c, 0, 64, 95
2, 252480, Note_on_c, 0, 60, 95
2, 252480, Note_on_c, 0, 55, 95
2, 252480, Note_on_c, 0, 48, 95
2, 252960, Note_off_c, 0, 72, 95
2, 252960, Note_off_c, 0, 67, 95
2, 252960, Note_off_c, 0, 64, 95
2, 252960, Note_off_c, 0, 60, 95
2, 252960, Note_off_c, 0, 55, 95
2, 252960, Note_off_c, 0, 48, 95
2, 252960, Note_on_c, 0, 72, 95
2, 252960, Note_on_c, 0, 67, 95
2, 252960, Note_on_c, 0, 65, 95
2, 252960, Note_on_c, 0, 60, 95
2, 252960, Note_on_c, 0, 57, 95
2, 252960, Note_on_c, 0, 48, 95
2, 253920, Note_off_c, 0, 72, 95
2, 253920, Note_off_c, 0, 67, 95
2, 253920, Note_off_c, 0, 65, 95
2, 253920, Note_off_c, 0, 60, 95
2, 253920, Note_off_c, 0, 57, 95
2, 253920, Note_off_c, 0, 48, 95
2, 253920, Note_on_c, 0, 72, 95
2, 253920, Note_on_c, 0, 67, 95
2, 253920, Note_on_c, 0, 65, 95
2, 253920, Note_on_c, 0, 60, 95
2, 253920, Note_on_c, 0, 57, 95
2, 253920, Note_on_c, 0, 48, 95
2, 254400, Note_off_c, 0, 72, 95
2, 254400, Note_off_c, 0, 67, 95
2, 254400, Note_off_c, 0, 65, 95
2, 254400, Note_off_c, 0, 60, 95
2, 254400, Note_off_c, 0, 57, 95
2, 254400, Note_off_c, 0, 48, 95
2, 254400, Note_on_c, 0, 72, 95
2, 254400, Note_on_c, 0, 67, 95
2, 254400, Note_on_c, 0, 64, 95
2, 254400, Note_on_c, 0, 60, 95
2, 254400, Note_on_c, 0, 55, 95
2, 254400, Note_on_c, 0, 48, 95
2, 254880, Note_off_c, 0, 72, 95
2, 254880, Note_off_c, 0, 67, 95
2, 254880, Note_off_c, 0, 64, 95
2, 254880, Note_off_c, 0, 60, 95
2, 254880, Note_off_c, 0, 55, 95
2, 254880, Note_off_c, 0, 48, 95
2, 254880, Note_on_c, 0, 72, 95
2, 254880, Note_on_c, 0, 67, 95
2, 254880, Note_on_c, 0, 65, 95
2, 254880, Note_on_c, 0, 60, 95
2, 254880, Note_on_c, 0, 57, 95
2, 254880, Note_on_c, 0, 48, 95
2, 255360, Note_off_c, 0, 72, 95
2, 255360, Note_off_c, 0, 67, 95
2, 255360, Note_off_c, 0, 65, 95
2, 255360, Note_off_c, 0, 60, 95
2, 255360, Note_off_c, 0, 57, 95
2, 255360, Note_off_c, 0, 48, 95
2, 255360, Note_on_c, 0, 72, 95
2, 255360, Note_on_c, 0, 67, 95
2, 255360, Note_on_c, 0, 65, 95
2, 255360, Note_on_c, 0, 60, 95
2, 255360, Note_on_c, 0, 57, 95
2, 255360, Note_on_c, 0, 48, 95
2, 255840, Note_off_c, 0, 72, 95
2, 255840, Note_off_c, 0, 67, 95
2, 255840, Note_off_c, 0, 65, 95
2, 255840, Note_off_c, 0, 60, 95
2, 255840, Note_off_c, 0, 57, 95
2, 255840, Note_off_c, 0, 48, 95
2, 255840, Note_on_c, 0, 72, 95
2, 255840, Note_on_c, 0, 67, 95
2, 255840, Note_on_c, 0, 65, 95
2, 255840, Note_on_c, 0, 60, 95
2, 255840, Note_on_c, 0, 57, 95
2, 255840, Note_on_c, 0, 48, 95
2, 256320, Note_off_c, 0, 72, 95
2, 256320, Note_off_c, 0, 67, 95
2, 256320, Note_off_c, 0, 65, 95
2, 256320, Note_off_c, 0, 60, 95
2, 256320, Note_off_c, 0, 57, 95
2, 256320, Note_off_c, 0, 48, 95
2, 256320, Note_on_c, 0, 72, 95
2, 256320, Note_on_c, 0, 67, 95
2, 256320, Note_on_c, 0, 64, 95
2, 256320, Note_on_c, 0, 60, 95
2, 256320, Note_on_c, 0, 55, 95
2, 256320, Note_on_c, 0, 48, 95
2, 256800, Note_off_c, 0, 72, 95
2, 256800, Note_off_c, 0, 67, 95
2, 256800, Note_off_c, 0, 64, 95
2, 256800, Note_off_c, 0, 60, 95
2, 256800, Note_off_c, 0, 55, 95
2, 256800, Note_off_c, 0, 48, 95
2, 256800, Note_on_c, 0, 72, 95
2, 256800, Note_on_c, 0, 67, 95
2, 256800, Note_on_c, 0, 65, 95
2, 256800, Note_on_c, 0, 60, 95
2, 256800, Note_on_c, 0, 57, 95
2, 256800, Note_on_c, 0, 48, 95
2, 257280, Note_off_c, 0, 72, 95
2, 257280, Note_off_c, 0, 67, 95
2, 257280, Note_off_c, 0, 65, 95
2, 257280, Note_off_c, 0, 60, 95
2, 257280, Note_off_c, 0, 57, 95
2, 257280, Note_off_c, 0, 48, 95
2, 257280, Note_on_c, 0, 72, 95
2, 257280, Note_on_c, 0, 67, 95
2, 257280, Note_on_c, 0, 65, 95
2, 257280, Note_on_c, 0, 60, 95
2, 257280, Note_on_c, 0, 57, 95
2, 257280, Note_on_c, 0, 48, 95
2, 257760, Note_off_c, 0, 72, 95
2, 257760, Note_off_c, 0, 67, 95
2, 257760, Note_off_c, 0, 65, 95
2, 257760, Note_off_c, 0, 60, 95
2, 257760, Note_off_c, 0, 57, 95
2, 257760, Note_off_c, 0, 48, 95
2, 257760, Note_on_c, 0, 72, 95
2, 257760, Note_on_c, 0, 67, 95
2, 257760, Note_on_c, 0, 65, 95
2, 257760, Note_on_c, 0, 60, 95
2, 257760, Note_on_c, 0, 57, 95
2, 257760, Note_on_c, 0, 48, 95
2, 258240, Note_off_c, 0, 72, 95
2, 258240, Note_off_c, 0, 67, 95
2, 258240, Note_off_c, 0, 65, 95
2, 258240, Note_off_c, 0, 60, 95
2, 258240, Note_off_c, 0, 57, 95
2, 258240, Note_off_c, 0, 48, 95
2, 258240, Note_on_c, 0, 72, 95
2, 258240, Note_on_c, 0, 67, 95
2, 258240, Note_on_c, 0, 64, 95
2, 258240, Note_on_c, 0, 60, 95
2, 258240, Note_on_c, 0, 55, 95
2, 258240, Note_on_c, 0, 48, 95
2, 258720, Note_off_c, 0, 72, 95
2, 258720, Note_off_c, 0, 67, 95
2, 258720, Note_off_c, 0, 64, 95
2, 258720, Note_off_c, 0, 60, 95
2, 258720, Note_off_c, 0, 55, 95
2, 258720, Note_off_c, 0, 48, 95
2, 258720, Note_on_c, 0, 72, 95
2, 258720, Note_on_c, 0, 67, 95
2, 258720, Note_on_c, 0, 65, 95
2, 258720, Note_on_c, 0, 60, 95
2, 258720, Note_on_c, 0, 57, 95
2, 258720, Note_on_c, 0, 48, 95
2, 259200, Note_off_c, 0, 72, 95
2, 259200, Note_off_c, 0, 67, 95
2, 259200, Note_off_c, 0, 65, 95
2, 259200, Note_off_c, 0, 60, 95
2, 259200, Note_off_c, 0, 57, 95
2, 259200, Note_off_c, 0, 48, 95
2, 259200, Note_on_c, 0, 72, 95
2, 259200, Note_on_c, 0, 67, 95
2, 259200, Note_on_c, 0, 65, 95
2, 259200, Note_on_c, 0, 60, 95
2, 259200, Note_on_c, 0, 57, 95
2, 259200, Note_on_c, 0, 48, 95
2, 259680, Note_off_c, 0, 72, 95
2, 259680, Note_off_c, 0, 67, 95
2, 259680, Note_off_c, 0, 65, 95
2, 259680, Note_off_c, 0, 60, 95
2, 259680, Note_off_c, 0, 57, 95
2, 259680, Note_off_c, 0, 48, 95
2, 259680, Note_on_c, 0, 72, 95
2, 259680, Note_on_c, 0, 67, 95
2, 259680, Note_on_c, 0, 64, 95
2, 259680, Note_on_c, 0, 60, 95
2, 259680, Note_on_c, 0, 55, 95
2, 259680, Note_on_c, 0, 48, 95
2, 260160, Note_off_c, 0, 72, 95
2, 260160, Note_off_c, 0, 67, 95
2, 260160, Note_off_c, 0, 64, 95
2, 260160, Note_off_c, 0, 60, 95
2, 260160, Note_off_c, 0, 55, 95
2, 260160, Note_off_c, 0, 48, 95
2, 260160, Note_on_c, 0, 72, 95
2, 260160, Note_on_c, 0, 67, 95
2, 260160, Note_on_c, 0, 64, 95
2, 260160, Note_on_c, 0, 60, 95
2, 260160, Note_on_c, 0, 55, 95
2, 260160, Note_on_c, 0, 48, 95
2, 260640, Note_off_c, 0, 72, 95
2, 260640, Note_off_c, 0, 67, 95
2, 260640, Note_off_c, 0, 64, 95
2, 260640, Note_off_c, 0, 60, 95
2, 260640, Note_off_c, 0, 55, 95
2, 260640, Note_off_c, 0, 48, 95
2, 260640, Note_on_c, 0, 72, 95
2, 260640, Note_on_c, 0, 67, 95
2, 260640, Note_on_c, 0, 65, 95
2, 260640, Note_on_c, 0, 60, 95
2, 260640, Note_on_c, 0, 57, 95
2, 260640, Note_on_c, 0, 48, 95
2, 261120, Note_off_c, 0, 72, 95
2, 261120, Note_off_c, 0, 67, 95
2, 261120, Note_off_c, 0, 65, 95
2, 261120, Note_off_c, 0, 60, 95
2, 261120, Note_off_c, 0, 57, 95
2, 261120, Note_off_c, 0, 48, 95
2, 261120, Note_on_c, 0, 72, 95
2, 261120, Note_on_c, 0, 67, 95
2, 261120, Note_on_c, 0, 65, 95
2, 261120, Note_on_c, 0, 60, 95
2, 261120, Note_on_c, 0, 57, 95
2, 261120, Note_on_c, 0, 48, 95
2, 261600, Note_off_c, 0, 72, 95
2, 261600, Note_off_c, 0, 67, 95
2, 261600, Note_off_c, 0, 65, 95
2, 261600, Note_off_c, 0, 60, 95
2, 261600, Note_off_c, 0, 57, 95
2, 261600, Note_off_c, 0, 48, 95
2, 261600, Note_on_c, 0, 72, 95
2, 261600, Note_on_c, 0, 67, 95
2, 261600, Note_on_c, 0, 65, 95
2, 261600, Note_on_c, 0, 60, 95
2, 261600, Note_on_c, 0, 57, 95
2, 261600, Note_on_c, 0, 48, 95
2, 262080, Note_off_c, 0, 72, 95
2, 262080, Note_off_c, 0, 67, 95
2, 262080, Note_off_c, 0, 65, 95
2, 262080, Note_off_c, 0, 60, 95
2, 262080, Note_off_c, 0, 57, 95
2, 262080, Note_off_c, 0, 48, 95
2, 262080, Note_on_c, 0, 72, 95
2, 262080, Note_on_c, 0, 67, 95
2, 262080, Note_on_c, 0, 65, 95
2, 262080, Note_on_c, 0, 60, 95
2, 262080, Note_on_c, 0, 57, 95
2, 262080, Note_on_c, 0, 48, 95
2, 262560, Note_off_c, 0, 72, 95
2, 262560, Note_off_c, 0, 67, 95
2, 262560, Note_off_c, 0, 65, 95
2, 262560, Note_off_c, 0, 60, 95
2, 262560, Note_off_c, 0, 57, 95
2, 262560, Note_off_c, 0, 48, 95
2, 262560, Note_on_c, 0, 72, 95
2, 262560, Note_on_c, 0, 67, 95
2, 262560, Note_on_c, 0, 64, 95
2, 262560, Note_on_c, 0, 60, 95
2, 262560, Note_on_c, 0, 55, 95
2, 262560, Note_on_c, 0, 48, 95
2, 263040, Note_off_c, 0, 72, 95
2, 263040, Note_off_c, 0, 67, 95
2, 263040, Note_off_c, 0, 64, 95
2, 263040, Note_off_c, 0, 60, 95
2, 263040, Note_off_c, 0, 55, 95
2, 263040, Note_off_c, 0, 48, 95
2, 263040, Note_on_c, 0, 72, 95
2, 263040, Note_on_c, 0, 67, 95
2, 263040, Note_on_c, 0, 64, 95
2, 263040, Note_on_c, 0, 60, 95
2, 263040, Note_on_c, 0, 55, 95
2, 263040, Note_on_c, 0, 48, 95
2, 263520, Note_off_c, 0, 72, 95
2, 263520, Note_off_c, 0, 67, 95
2, 263520, Note_off_c, 0, 64, 95
2, 263520, Note_off_c, 0, 60, 95
2, 263520, Note_off_c, 0, 55, 95
2, 263520, Note_off_c, 0, 48, 95
2, 263520, Note_on_c, 0, 72, 95
2, 263520, Note_on_c, 0, 67, 95
2, 263520, Note_on_c, 0, 64, 95
2, 263520, Note_on_c, 0, 60, 95
2, 263520, Note_on_c, 0, 55, 95
2, 263520, Note_on_c, 0, 48, 95
2, 264000, Note_off_c, 0, 72, 95
2, 264000, Note_off_c, 0, 67, 95
2, 264000, Note_off_c, 0, 64, 95
2, 264000, Note_off_c, 0, 60, 95
2, 264000, Note_off_c, 0, 55, 95
2, 264000, Note_off_c, 0, 48, 95
2, 264000, Note_on_c, 0, 72, 95
2, 264000, Note_on_c, 0, 67, 95
2, 264000, Note_on_c, 0, 64, 95
2, 264000, Note_on_c, 0, 60, 95
2, 264000, Note_on_c, 0, 55, 95
2, 264000, Note_on_c, 0, 48, 95
2, 264480, Note_off_c, 0, 72, 95
2, 264480, Note_off_c, 0, 67, 95
2, 264480, Note_off_c, 0, 64, 95
2, 264480, Note_off_c, 0, 60, 95
2, 264480, Note_off_c, 0, 55, 95
2, 264480, Note_off_c, 0, 48, 95
2, 264480, Note_on_c, 0, 72, 95
2, 264480, Note_on_c, 0, 67, 95
2, 264480, Note_on_c, 0, 64, 95
2, 264480, Note_on_c, 0, 60, 95
2, 264480, Note_on_c, 0, 55, 95
2, 264480, Note_on_c, 0, 48, 95
2, 264960, Note_off_c, 0, 72, 95
2, 264960, Note_off_c, 0, 67, 95
2, 264960, Note_off_c, 0, 64, 95
2, 264960, Note_off_c, 0, 60, 95
2, 264960, Note_off_c, 0, 55, 95
2, 264960, Note_off_c, 0, 48, 95
2, 264960, Note_on_c, 0, 72, 95
2, 264960, Note_on_c, 0, 67, 95
2, 264960, Note_on_c, 0, 65, 95
2, 264960, Note_on_c, 0, 60, 95
2, 264960, Note_on_c, 0, 57, 95
2, 264960, Note_on_c, 0, 48, 95
2, 265440, Note_off_c, 0, 72, 95
2, 265440, Note_off_c, 0, 67, 95
2, 265440, Note_off_c, 0, 65, 95
2, 265440, Note_off_c, 0, 60, 95
2, 265440, Note_off_c, 0, 57, 95
2, 265440, Note_off_c, 0, 48, 95
2, 265440, Note_on_c, 0, 72, 95
2, 265440, Note_on_c, 0, 67, 95
2, 265440, Note_on_c, 0, 65, 95
2, 265440, Note_on_c, 0, 60, 95
2, 265440, Note_on_c, 0, 57, 95
2, 265440, Note_on_c, 0, 48, 95
2, 265920, Note_off_c, 0, 72, 95
2, 265920, Note_off_c, 0, 67, 95
2, 265920, Note_off_c, 0, 65, 95
2, 265920, Note_off_c, 0, 60, 95
2, 265920, Note_off_c, 0, 57, 95
2, 265920, Note_off_c, 0, 48, 95
2, 265920, Note_on_c, 0, 72, 95
2, 265920, Note_on_c, 0, 67, 95
2, 265920, Note_on_c, 0, 65, 95
2, 265920, Note_on_c, 0, 60, 95
2, 265920, Note_on_c, 0, 57, 95
2, 265920, Note_on_c, 0, 48, 95
2, 266400, Note_off_c, 0, 72, 95
2, 266400, Note_off_c, 0, 67, 95
2, 266400, Note_off_c, 0, 65, 95
2, 266400, Note_off_c, 0, 60, 95
2, 266400, Note_off_c, 0, 57, 95
2, 266400, Note_off_c, 0, 48, 95
2, 266400, Note_on_c, 0, 72, 95
2, 266400, Note_on_c, 0, 67, 95
2, 266400, Note_on_c, 0, 65, 95
2, 266400, Note_on_c, 0, 60, 95
2, 266400, Note_on_c, 0, 57, 95
2, 266400, Note_on_c, 0, 48, 95
2, 266880, Note_off_c, 0, 72, 95
2, 266880, Note_off_c, 0, 67, 95
2, 266880, Note_off_c, 0, 65, 95
2, 266880, Note_off_c, 0, 60, 95
2, 266880, Note_off_c, 0, 57, 95
2, 266880, Note_off_c, 0, 48, 95
2, 266880, Note_on_c, 0, 72, 95
2, 266880, Note_on_c, 0, 67, 95
2, 266880, Note_on_c, 0, 64, 95
2, 266880, Note_on_c, 0, 60, 95
2, 266880, Note_on_c, 0, 55, 95
2, 266880, Note_on_c, 0, 48, 95
2, 267360, Note_off_c, 0, 72, 95
2, 267360, Note_off_c, 0, 67, 95
2, 267360, Note_off_c, 0, 64, 95
2, 267360, Note_off_c, 0, 60, 95
2, 267360, Note_off_c, 0, 55, 95
2, 267360, Note_off_c, 0, 48, 95
2, 267360, Note_on_c, 0, 62, 95
2, 267360, Note_on_c, 0, 57, 95
2, 267360, Note_on_c, 0, 54, 95
2, 267360, Note_on_c, 0, 50, 95
2, 267360, Note_on_c, 0, 45, 95
2, 267360, Note_on_c, 0, 38, 95
2, 267423, Note_off_c, 0, 62, 95
2, 267423, Note_off_c, 0, 57, 95
2, 267423, Note_off_c, 0, 54, 95
2, 267423, Note_off_c, 0, 50, 95
2, 267423, Note_off_c, 0, 45, 95
2, 267423, Note_off_c, 0, 38, 95
2, 267840, Note_on_c, 0, 67, 95
2, 267840, Note_on_c, 0, 62, 95
2, 267840, Note_on_c, 0, 59, 95
2, 267840, Note_on_c, 0, 55, 95
2, 267840, Note_on_c, 0, 50, 95
2, 267840, Note_on_c, 0, 43, 95
2, 267903, Note_off_c, 0, 67, 95
2, 267903, Note_off_c, 0, 62, 95
2, 267903, Note_off_c, 0, 59, 95
2, 267903, Note_off_c, 0, 55, 95
2, 267903, Note_off_c, 0, 50, 95
2, 267903, Note_off_c, 0, 43, 95
2, 268320, Note_on_c, 0, 67, 95
2, 268320, Note_on_c, 0, 62, 95
2, 268320, Note_on_c, 0, 59, 95
2, 268320, Note_on_c, 0, 55, 95
2, 268320, Note_on_c, 0, 50, 95
2, 268320, Note_on_c, 0, 43, 95
2, 268800, Note_off_c, 0, 67, 95
2, 268800, Note_off_c, 0, 62, 95
2, 268800, Note_off_c, 0, 59, 95
2, 268800, Note_off_c, 0, 55, 95
2, 268800, Note_off_c, 0, 50, 95
2, 268800, Note_off_c, 0, 43, 95
2, 268800, Note_on_c, 0, 67, 95
2, 268800, Note_on_c, 0, 62, 95
2, 268800, Note_on_c, 0, 59, 95
2, 268800, Note_on_c, 0, 55, 95
2, 268800, Note_on_c, 0, 50, 95
2, 268800, Note_on_c, 0, 43, 95
2, 269280, Note_off_c, 0, 67, 95
2, 269280, Note_off_c, 0, 62, 95
2, 269280, Note_off_c, 0, 59, 95
2, 269280, Note_off_c, 0, 55, 95
2, 269280, Note_off_c, 0, 50, 95
2, 269280, Note_off_c, 0, 43, 95
2, 269280, Note_on_c, 0, 67, 95
2, 269280, Note_on_c, 0, 62, 95
2, 269280, Note_on_c, 0, 59, 95
2, 269280, Note_on_c, 0, 55, 95
2, 269280, Note_on_c, 0, 50, 95
2, 269280, Note_on_c, 0, 43, 95
2, 269760, Note_off_c, 0, 67, 95
2, 269760, Note_off_c, 0, 62, 95
2, 269760, Note_off_c, 0, 59, 95
2, 269760, Note_off_c, 0, 55, 95
2, 269760, Note_off_c, 0, 50, 95
2, 269760, Note_off_c, 0, 43, 95
2, 269760, Note_on_c, 0, 67, 95
2, 269760, Note_on_c, 0, 62, 95
2, 269760, Note_on_c, 0, 59, 95
2, 269760, Note_on_c, 0, 55, 95
2, 269760, Note_on_c, 0, 50, 95
2, 269760, Note_on_c, 0, 43, 95
2, 270240, Note_off_c, 0, 67, 95
2, 270240, Note_off_c, 0, 62, 95
2, 270240, Note_off_c, 0, 59, 95
2, 270240, Note_off_c, 0, 55, 95
2, 270240, Note_off_c, 0, 50, 95
2, 270240, Note_off_c, 0, 43, 95
2, 270240, Note_on_c, 0, 67, 95
2, 270240, Note_on_c, 0, 62, 95
2, 270240, Note_on_c, 0, 59, 95
2, 270240, Note_on_c, 0, 55, 95
2, 270240, Note_on_c, 0, 50, 95
2, 270240, Note_on_c, 0, 43, 95
2, 270720, Note_off_c, 0, 67, 95
2, 270720, Note_off_c, 0, 62, 95
2, 270720, Note_off_c, 0, 59, 95
2, 270720, Note_off_c, 0, 55, 95
2, 270720, Note_off_c, 0, 50, 95
2, 270720, Note_off_c, 0, 43, 95
2, 270720, Note_on_c, 0, 67, 95
2, 270720, Note_on_c, 0, 62, 95
2, 270720, Note_on_c, 0, 59, 95
2, 270720, Note_on_c, 0, 55, 95
2, 270720, Note_on_c, 0, 50, 95
2, 270720, Note_on_c, 0, 43, 95
2, 271200, Note_off_c, 0, 67, 95
2, 271200, Note_off_c, 0, 62, 95
2, 271200, Note_off_c, 0, 59, 95
2, 271200, Note_off_c, 0, 55, 95
2, 271200, Note_off_c, 0, 50, 95
2, 271200, Note_off_c, 0, 43, 95
2, 271200, Note_on_c, 0, 67, 95
2, 271200, Note_on_c, 0, 62, 95
2, 271200, Note_on_c, 0, 59, 95
2, 271200, Note_on_c, 0, 55, 95
2, 271200, Note_on_c, 0, 50, 95
2, 271200, Note_on_c, 0, 43, 95
2, 271680, Note_off_c, 0, 67, 95
2, 271680, Note_off_c, 0, 62, 95
2, 271680, Note_off_c, 0, 59, 95
2, 271680, Note_off_c, 0, 55, 95
2, 271680, Note_off_c, 0, 50, 95
2, 271680, Note_off_c, 0, 43, 95
2, 271680, Note_on_c, 0, 67, 95
2, 271680, Note_on_c, 0, 62, 95
2, 271680, Note_on_c, 0, 59, 95
2, 271680, Note_on_c, 0, 55, 95
2, 271680, Note_on_c, 0, 50, 95
2, 271680, Note_on_c, 0, 43, 95
2, 272160, Note_off_c, 0, 67, 95
2, 272160, Note_off_c, 0, 62, 95
2, 272160, Note_off_c, 0, 59, 95
2, 272160, Note_off_c, 0, 55, 95
2, 272160, Note_off_c, 0, 50, 95
2, 272160, Note_off_c, 0, 43, 95
2, 272160, Note_on_c, 0, 67, 95
2, 272160, Note_on_c, 0, 62, 95
2, 272160, Note_on_c, 0, 59, 95
2, 272160, Note_on_c, 0, 55, 95
2, 272160, Note_on_c, 0, 50, 95
2, 272160, Note_on_c, 0, 43, 95
2, 272640, Note_off_c, 0, 67, 95
2, 272640, Note_off_c, 0, 62, 95
2, 272640, Note_off_c, 0, 59, 95
2, 272640, Note_off_c, 0, 55, 95
2, 272640, Note_off_c, 0, 50, 95
2, 272640, Note_off_c, 0, 43, 95
2, 272640, Note_on_c, 0, 67, 95
2, 272640, Note_on_c, 0, 62, 95
2, 272640, Note_on_c, 0, 60, 95
2, 272640, Note_on_c, 0, 57, 95
2, 272640, Note_on_c, 0, 50, 95
2, 272640, Note_on_c, 0, 43, 95
2, 273120, Note_off_c, 0, 67, 95
2, 273120, Note_off_c, 0, 62, 95
2, 273120, Note_off_c, 0, 60, 95
2, 273120, Note_off_c, 0, 57, 95
2, 273120, Note_off_c, 0, 50, 95
2, 273120, Note_off_c, 0, 43, 95
2, 273120, Note_on_c, 0, 67, 95
2, 273120, Note_on_c, 0, 62, 95
2, 273120, Note_on_c, 0, 60, 95
2, 273120, Note_on_c, 0, 57, 95
2, 273120, Note_on_c, 0, 50, 95
2, 273120, Note_on_c, 0, 43, 95
2, 273360, Note_off_c, 0, 67, 95
2, 273360, Note_off_c, 0, 62, 95
2, 273360, Note_off_c, 0, 60, 95
2, 273360, Note_off_c, 0, 57, 95
2, 273360, Note_off_c, 0, 50, 95
2, 273360, Note_off_c, 0, 43, 95
2, 273360, Note_on_c, 0, 67, 95
2, 273360, Note_on_c, 0, 62, 95
2, 273360, Note_on_c, 0, 60, 95
2, 273360, Note_on_c, 0, 57, 95
2, 273360, Note_on_c, 0, 50, 95
2, 273360, Note_on_c, 0, 43, 95
2, 273600, Note_off_c, 0, 67, 95
2, 273600, Note_off_c, 0, 62, 95
2, 273600, Note_off_c, 0, 60, 95
2, 273600, Note_off_c, 0, 57, 95
2, 273600, Note_off_c, 0, 50, 95
2, 273600, Note_off_c, 0, 43, 95
2, 273600, Note_on_c, 0, 67, 95
2, 273600, Note_on_c, 0, 62, 95
2, 273600, Note_on_c, 0, 60, 95
2, 273600, Note_on_c, 0, 57, 95
2, 273600, Note_on_c, 0, 50, 95
2, 273600, Note_on_c, 0, 43, 95
2, 273840, Note_off_c, 0, 67, 95
2, 273840, Note_off_c, 0, 62, 95
2, 273840, Note_off_c, 0, 60, 95
2, 273840, Note_off_c, 0, 57, 95
2, 273840, Note_off_c, 0, 50, 95
2, 273840, Note_off_c, 0, 43, 95
2, 273840, Note_on_c, 0, 67, 95
2, 273840, Note_on_c, 0, 62, 95
2, 273840, Note_on_c, 0, 60, 95
2, 273840, Note_on_c, 0, 57, 95
2, 273840, Note_on_c, 0, 50, 95
2, 273840, Note_on_c, 0, 43, 95
2, 274080, Note_off_c, 0, 67, 95
2, 274080, Note_off_c, 0, 62, 95
2, 274080, Note_off_c, 0, 60, 95
2, 274080, Note_off_c, 0, 57, 95
2, 274080, Note_off_c, 0, 50, 95
2, 274080, Note_off_c, 0, 43, 95
2, 274080, Note_on_c, 0, 67, 95
2, 274080, Note_on_c, 0, 62, 95
2, 274080, Note_on_c, 0, 60, 95
2, 274080, Note_on_c, 0, 57, 95
2, 274080, Note_on_c, 0, 50, 95
2, 274080, Note_on_c, 0, 43, 95
2, 274320, Note_off_c, 0, 67, 95
2, 274320, Note_off_c, 0, 62, 95
2, 274320, Note_off_c, 0, 60, 95
2, 274320, Note_off_c, 0, 57, 95
2, 274320, Note_off_c, 0, 50, 95
2, 274320, Note_off_c, 0, 43, 95
2, 274320, Note_on_c, 0, 67, 95
2, 274320, Note_on_c, 0, 62, 95
2, 274320, Note_on_c, 0, 60, 95
2, 274320, Note_on_c, 0, 57, 95
2, 274320, Note_on_c, 0, 50, 95
2, 274320, Note_on_c, 0, 43, 95
2, 274560, Note_off_c, 0, 67, 95
2, 274560, Note_off_c, 0, 62, 95
2, 274560, Note_off_c, 0, 60, 95
2, 274560, Note_off_c, 0, 57, 95
2, 274560, Note_off_c, 0, 50, 95
2, 274560, Note_off_c, 0, 43, 95
2, 274560, Note_on_c, 0, 67, 95
2, 274560, Note_on_c, 0, 62, 95
2, 274560, Note_on_c, 0, 60, 95
2, 274560, Note_on_c, 0, 57, 95
2, 274560, Note_on_c, 0, 50, 95
2, 274560, Note_on_c, 0, 43, 95
2, 275040, Note_off_c, 0, 67, 95
2, 275040, Note_off_c, 0, 62, 95
2, 275040, Note_off_c, 0, 60, 95
2, 275040, Note_off_c, 0, 57, 95
2, 275040, Note_off_c, 0, 50, 95
2, 275040, Note_off_c, 0, 43, 95
2, 275040, Note_on_c, 0, 67, 95
2, 275040, Note_on_c, 0, 62, 95
2, 275040, Note_on_c, 0, 59, 95
2, 275040, Note_on_c, 0, 55, 95
2, 275040, Note_on_c, 0, 50, 95
2, 275040, Note_on_c, 0, 43, 95
2, 275520, Note_off_c, 0, 67, 95
2, 275520, Note_off_c, 0, 62, 95
2, 275520, Note_off_c, 0, 59, 95
2, 275520, Note_off_c, 0, 55, 95
2, 275520, Note_off_c, 0, 50, 95
2, 275520, Note_off_c, 0, 43, 95
2, 275520, Note_on_c, 0, 67, 95
2, 275520, Note_on_c, 0, 62, 95
2, 275520, Note_on_c, 0, 59, 95
2, 275520, Note_on_c, 0, 55, 95
2, 275520, Note_on_c, 0, 50, 95
2, 275520, Note_on_c, 0, 43, 95
2, 276000, Note_off_c, 0, 67, 95
2, 276000, Note_off_c, 0, 62, 95
2, 276000, Note_off_c, 0, 59, 95
2, 276000, Note_off_c, 0, 55, 95
2, 276000, Note_off_c, 0, 50, 95
2, 276000, Note_off_c, 0, 43, 95
2, 276000, Note_on_c, 0, 67, 95
2, 276000, Note_on_c, 0, 62, 95
2, 276000, Note_on_c, 0, 59, 95
2, 276000, Note_on_c, 0, 55, 95
2, 276000, Note_on_c, 0, 50, 95
2, 276000, Note_on_c, 0, 43, 95
2, 276480, Note_off_c, 0, 67, 95
2, 276480, Note_off_c, 0, 62, 95
2, 276480, Note_off_c, 0, 59, 95
2, 276480, Note_off_c, 0, 55, 95
2, 276480, Note_off_c, 0, 50, 95
2, 276480, Note_off_c, 0, 43, 95
2, 276480, Note_on_c, 0, 67, 95
2, 276480, Note_on_c, 0, 62, 95
2, 276480, Note_on_c, 0, 59, 95
2, 276480, Note_on_c, 0, 55, 95
2, 276480, Note_on_c, 0, 50, 95
2, 276480, Note_on_c, 0, 43, 95
2, 276960, Note_off_c, 0, 67, 95
2, 276960, Note_off_c, 0, 62, 95
2, 276960, Note_off_c, 0, 59, 95
2, 276960, Note_off_c, 0, 55, 95
2, 276960, Note_off_c, 0, 50, 95
2, 276960, Note_off_c, 0, 43, 95
2, 276960, Note_on_c, 0, 67, 95
2, 276960, Note_on_c, 0, 62, 95
2, 276960, Note_on_c, 0, 59, 95
2, 276960, Note_on_c, 0, 55, 95
2, 276960, Note_on_c, 0, 50, 95
2, 276960, Note_on_c, 0, 43, 95
2, 277440, Note_off_c, 0, 67, 95
2, 277440, Note_off_c, 0, 62, 95
2, 277440, Note_off_c, 0, 59, 95
2, 277440, Note_off_c, 0, 55, 95
2, 277440, Note_off_c, 0, 50, 95
2, 277440, Note_off_c, 0, 43, 95
2, 277440, Note_on_c, 0, 67, 95
2, 277440, Note_on_c, 0, 62, 95
2, 277440, Note_on_c, 0, 59, 95
2, 277440, Note_on_c, 0, 55, 95
2, 277440, Note_on_c, 0, 50, 95
2, 277440, Note_on_c, 0, 43, 95
2, 277920, Note_off_c, 0, 67, 95
2, 277920, Note_off_c, 0, 62, 95
2, 277920, Note_off_c, 0, 59, 95
2, 277920, Note_off_c, 0, 55, 95
2, 277920, Note_off_c, 0, 50, 95
2, 277920, Note_off_c, 0, 43, 95
2, 277920, Note_on_c, 0, 67, 95
2, 277920, Note_on_c, 0, 62, 95
2, 277920, Note_on_c, 0, 59, 95
2, 277920, Note_on_c, 0, 55, 95
2, 277920, Note_on_c, 0, 50, 95
2, 277920, Note_on_c, 0, 43, 95
2, 278400, Note_off_c, 0, 67, 95
2, 278400, Note_off_c, 0, 62, 95
2, 278400, Note_off_c, 0, 59, 95
2, 278400, Note_off_c, 0, 55, 95
2, 278400, Note_off_c, 0, 50, 95
2, 278400, Note_off_c, 0, 43, 95
2, 278400, Note_on_c, 0, 67, 95
2, 278400, Note_on_c, 0, 62, 95
2, 278400, Note_on_c, 0, 59, 95
2, 278400, Note_on_c, 0, 55, 95
2, 278400, Note_on_c, 0, 50, 95
2, 278400, Note_on_c, 0, 43, 95
2, 278880, Note_off_c, 0, 67, 95
2, 278880, Note_off_c, 0, 62, 95
2, 278880, Note_off_c, 0, 59, 95
2, 278880, Note_off_c, 0, 55, 95
2, 278880, Note_off_c, 0, 50, 95
2, 278880, Note_off_c, 0, 43, 95
2, 278880, Note_on_c, 0, 67, 95
2, 278880, Note_on_c, 0, 62, 95
2, 278880, Note_on_c, 0, 60, 95
2, 278880, Note_on_c, 0, 57, 95
2, 278880, Note_on_c, 0, 50, 95
2, 278880, Note_on_c, 0, 43, 95
2, 279360, Note_off_c, 0, 67, 95
2, 279360, Note_off_c, 0, 62, 95
2, 279360, Note_off_c, 0, 60, 95
2, 279360, Note_off_c, 0, 57, 95
2, 279360, Note_off_c, 0, 50, 95
2, 279360, Note_off_c, 0, 43, 95
2, 279360, Note_on_c, 0, 67, 95
2, 279360, Note_on_c, 0, 62, 95
2, 279360, Note_on_c, 0, 60, 95
2, 279360, Note_on_c, 0, 57, 95
2, 279360, Note_on_c, 0, 50, 95
2, 279360, Note_on_c, 0, 43, 95
2, 279840, Note_off_c, 0, 67, 95
2, 279840, Note_off_c, 0, 62, 95
2, 279840, Note_off_c, 0, 60, 95
2, 279840, Note_off_c, 0, 57, 95
2, 279840, Note_off_c, 0, 50, 95
2, 279840, Note_off_c, 0, 43, 95
2, 279840, Note_on_c, 0, 67, 95
2, 279840, Note_on_c, 0, 62, 95
2, 279840, Note_on_c, 0, 60, 95
2, 279840, Note_on_c, 0, 57, 95
2, 279840, Note_on_c, 0, 50, 95
2, 279840, Note_on_c, 0, 43, 95
2, 280320, Note_off_c, 0, 67, 95
2, 280320, Note_off_c, 0, 62, 95
2, 280320, Note_off_c, 0, 60, 95
2, 280320, Note_off_c, 0, 57, 95
2, 280320, Note_off_c, 0, 50, 95
2, 280320, Note_off_c, 0, 43, 95
2, 280320, Note_on_c, 0, 67, 95
2, 280320, Note_on_c, 0, 62, 95
2, 280320, Note_on_c, 0, 60, 95
2, 280320, Note_on_c, 0, 57, 95
2, 280320, Note_on_c, 0, 50, 95
2, 280320, Note_on_c, 0, 43, 95
2, 280800, Note_off_c, 0, 67, 95
2, 280800, Note_off_c, 0, 62, 95
2, 280800, Note_off_c, 0, 60, 95
2, 280800, Note_off_c, 0, 57, 95
2, 280800, Note_off_c, 0, 50, 95
2, 280800, Note_off_c, 0, 43, 95
2, 280800, Note_on_c, 0, 67, 95
2, 280800, Note_on_c, 0, 62, 95
2, 280800, Note_on_c, 0, 60, 95
2, 280800, Note_on_c, 0, 57, 95
2, 280800, Note_on_c, 0, 50, 95
2, 280800, Note_on_c, 0, 43, 95
2, 281040, Note_off_c, 0, 67, 95
2, 281040, Note_off_c, 0, 62, 95
2, 281040, Note_off_c, 0, 60, 95
2, 281040, Note_off_c, 0, 57, 95
2, 281040, Note_off_c, 0, 50, 95
2, 281040, Note_off_c, 0, 43, 95
2, 281040, Note_on_c, 0, 67, 95
2, 281040, Note_on_c, 0, 62, 95
2, 281040, Note_on_c, 0, 60, 95
2, 281040, Note_on_c, 0, 57, 95
2, 281040, Note_on_c, 0, 50, 95
2, 281040, Note_on_c, 0, 43, 95
2, 281280, Note_off_c, 0, 67, 95
2, 281280, Note_off_c, 0, 62, 95
2, 281280, Note_off_c, 0, 60, 95
2, 281280, Note_off_c, 0, 57, 95
2, 281280, Note_off_c, 0, 50, 95
2, 281280, Note_off_c, 0, 43, 95
2, 281280, Note_on_c, 0, 67, 95
2, 281280, Note_on_c, 0, 62, 95
2, 281280, Note_on_c, 0, 60, 95
2, 281280, Note_on_c, 0, 57, 95
2, 281280, Note_on_c, 0, 50, 95
2, 281280, Note_on_c, 0, 43, 95
2, 281520, Note_off_c, 0, 67, 95
2, 281520, Note_off_c, 0, 62, 95
2, 281520, Note_off_c, 0, 60, 95
2, 281520, Note_off_c, 0, 57, 95
2, 281520, Note_off_c, 0, 50, 95
2, 281520, Note_off_c, 0, 43, 95
2, 281520, Note_on_c, 0, 67, 95
2, 281520, Note_on_c, 0, 62, 95
2, 281520, Note_on_c, 0, 60, 95
2, 281520, Note_on_c, 0, 57, 95
2, 281520, Note_on_c, 0, 50, 95
2, 281520, Note_on_c, 0, 43, 95
2, 281760, Note_off_c, 0, 67, 95
2, 281760, Note_off_c, 0, 62, 95
2, 281760, Note_off_c, 0, 60, 95
2, 281760, Note_off_c, 0, 57, 95
2, 281760, Note_off_c, 0, 50, 95
2, 281760, Note_off_c, 0, 43, 95
2, 281760, Note_on_c, 0, 67, 95
2, 281760, Note_on_c, 0, 62, 95
2, 281760, Note_on_c, 0, 60, 95
2, 281760, Note_on_c, 0, 57, 95
2, 281760, Note_on_c, 0, 50, 95
2, 281760, Note_on_c, 0, 43, 95
2, 282000, Note_off_c, 0, 67, 95
2, 282000, Note_off_c, 0, 62, 95
2, 282000, Note_off_c, 0, 60, 95
2, 282000, Note_off_c, 0, 57, 95
2, 282000, Note_off_c, 0, 50, 95
2, 282000, Note_off_c, 0, 43, 95
2, 282000, Note_on_c, 0, 67, 95
2, 282000, Note_on_c, 0, 62, 95
2, 282000, Note_on_c, 0, 60, 95
2, 282000, Note_on_c, 0, 57, 95
2, 282000, Note_on_c, 0, 50, 95
2, 282000, Note_on_c, 0, 43, 95
2, 282240, Note_off_c, 0, 67, 95
2, 282240, Note_off_c, 0, 62, 95
2, 282240, Note_off_c, 0, 60, 95
2, 282240, Note_off_c, 0, 57, 95
2, 282240, Note_off_c, 0, 50, 95
2, 282240, Note_off_c, 0, 43, 95
2, 282240, Note_on_c, 0, 67, 95
2, 282240, Note_on_c, 0, 62, 95
2, 282240, Note_on_c, 0, 59, 95
2, 282240, Note_on_c, 0, 55, 95
2, 282240, Note_on_c, 0, 50, 95
2, 282240, Note_on_c, 0, 43, 95
2, 282720, Note_off_c, 0, 67, 95
2, 282720, Note_off_c, 0, 62, 95
2, 282720, Note_off_c, 0, 59, 95
2, 282720, Note_off_c, 0, 55, 95
2, 282720, Note_off_c, 0, 50, 95
2, 282720, Note_off_c, 0, 43, 95
2, 282720, Note_on_c, 0, 67, 95
2, 282720, Note_on_c, 0, 62, 95
2, 282720, Note_on_c, 0, 59, 95
2, 282720, Note_on_c, 0, 55, 95
2, 282720, Note_on_c, 0, 50, 95
2, 282720, Note_on_c, 0, 43, 95
2, 283200, Note_off_c, 0, 67, 95
2, 283200, Note_off_c, 0, 62, 95
2, 283200, Note_off_c, 0, 59, 95
2, 283200, Note_off_c, 0, 55, 95
2, 283200, Note_off_c, 0, 50, 95
2, 283200, Note_off_c, 0, 43, 95
2, 283200, Note_on_c, 0, 67, 95
2, 283200, Note_on_c, 0, 62, 95
2, 283200, Note_on_c, 0, 59, 95
2, 283200, Note_on_c, 0, 55, 95
2, 283200, Note_on_c, 0, 50, 95
2, 283200, Note_on_c, 0, 43, 95
2, 283680, Note_off_c, 0, 67, 95
2, 283680, Note_off_c, 0, 62, 95
2, 283680, Note_off_c, 0, 59, 95
2, 283680, Note_off_c, 0, 55, 95
2, 283680, Note_off_c, 0, 50, 95
2, 283680, Note_off_c, 0, 43, 95
2, 283680, Note_on_c, 0, 67, 95
2, 283680, Note_on_c, 0, 62, 95
2, 283680, Note_on_c, 0, 59, 95
2, 283680, Note_on_c, 0, 55, 95
2, 283680, Note_on_c, 0, 50, 95
2, 283680, Note_on_c, 0, 43, 95
2, 284160, Note_off_c, 0, 67, 95
2, 284160, Note_off_c, 0, 62, 95
2, 284160, Note_off_c, 0, 59, 95
2, 284160, Note_off_c, 0, 55, 95
2, 284160, Note_off_c, 0, 50, 95
2, 284160, Note_off_c, 0, 43, 95
2, 284160, Note_on_c, 0, 67, 95
2, 284160, Note_on_c, 0, 62, 95
2, 284160, Note_on_c, 0, 59, 95
2, 284160, Note_on_c, 0, 55, 95
2, 284160, Note_on_c, 0, 50, 95
2, 284160, Note_on_c, 0, 43, 95
2, 284640, Note_off_c, 0, 67, 95
2, 284640, Note_off_c, 0, 62, 95
2, 284640, Note_off_c, 0, 59, 95
2, 284640, Note_off_c, 0, 55, 95
2, 284640, Note_off_c, 0, 50, 95
2, 284640, Note_off_c, 0, 43, 95
2, 284640, Note_on_c, 0, 67, 95
2, 284640, Note_on_c, 0, 62, 95
2, 284640, Note_on_c, 0, 59, 95
2, 284640, Note_on_c, 0, 55, 95
2, 284640, Note_on_c, 0, 50, 95
2, 284640, Note_on_c, 0, 43, 95
2, 285120, Note_off_c, 0, 67, 95
2, 285120, Note_off_c, 0, 62, 95
2, 285120, Note_off_c, 0, 59, 95
2, 285120, Note_off_c, 0, 55, 95
2, 285120, Note_off_c, 0, 50, 95
2, 285120, Note_off_c, 0, 43, 95
2, 285120, Note_on_c, 0, 67, 95
2, 285120, Note_on_c, 0, 62, 95
2, 285120, Note_on_c, 0, 59, 95
2, 285120, Note_on_c, 0, 55, 95
2, 285120, Note_on_c, 0, 50, 95
2, 285120, Note_on_c, 0, 43, 95
2, 285600, Note_off_c, 0, 67, 95
2, 285600, Note_off_c, 0, 62, 95
2, 285600, Note_off_c, 0, 59, 95
2, 285600, Note_off_c, 0, 55, 95
2, 285600, Note_off_c, 0, 50, 95
2, 285600, Note_off_c, 0, 43, 95
2, 285600, Note_on_c, 0, 67, 95
2, 285600, Note_on_c, 0, 62, 95
2, 285600, Note_on_c, 0, 59, 95
2, 285600, Note_on_c, 0, 55, 95
2, 285600, Note_on_c, 0, 50, 95
2, 285600, Note_on_c, 0, 43, 95
2, 286080, Note_off_c, 0, 67, 95
2, 286080, Note_off_c, 0, 62, 95
2, 286080, Note_off_c, 0, 59, 95
2, 286080, Note_off_c, 0, 55, 95
2, 286080, Note_off_c, 0, 50, 95
2, 286080, Note_off_c, 0, 43, 95
2, 286080, Note_on_c, 0, 67, 95
2, 286080, Note_on_c, 0, 62, 95
2, 286080, Note_on_c, 0, 59, 95
2, 286080, Note_on_c, 0, 55, 95
2, 286080, Note_on_c, 0, 50, 95
2, 286080, Note_on_c, 0, 43, 95
2, 286560, Note_off_c, 0, 67, 95
2, 286560, Note_off_c, 0, 62, 95
2, 286560, Note_off_c, 0, 59, 95
2, 286560, Note_off_c, 0, 55, 95
2, 286560, Note_off_c, 0, 50, 95
2, 286560, Note_off_c, 0, 43, 95
2, 286560, Note_on_c, 0, 67, 95
2, 286560, Note_on_c, 0, 62, 95
2, 286560, Note_on_c, 0, 59, 95
2, 286560, Note_on_c, 0, 55, 95
2, 286560, Note_on_c, 0, 50, 95
2, 286560, Note_on_c, 0, 43, 95
2, 287040, Note_off_c, 0, 67, 95
2, 287040, Note_off_c, 0, 62, 95
2, 287040, Note_off_c, 0, 59, 95
2, 287040, Note_off_c, 0, 55, 95
2, 287040, Note_off_c, 0, 50, 95
2, 287040, Note_off_c, 0, 43, 95
2, 287040, Note_on_c, 0, 67, 95
2, 287040, Note_on_c, 0, 62, 95
2, 287040, Note_on_c, 0, 59, 95
2, 287040, Note_on_c, 0, 55, 95
2, 287040, Note_on_c, 0, 50, 95
2, 287040, Note_on_c, 0, 43, 95
2, 287520, Note_off_c, 0, 67, 95
2, 287520, Note_off_c, 0, 62, 95
2, 287520, Note_off_c, 0, 59, 95
2, 287520, Note_off_c, 0, 55, 95
2, 287520, Note_off_c, 0, 50, 95
2, 287520, Note_off_c, 0, 43, 95
2, 287520, Note_on_c, 0, 67, 95
2, 287520, Note_on_c, 0, 62, 95
2, 287520, Note_on_c, 0, 59, 95
2, 287520, Note_on_c, 0, 55, 95
2, 287520, Note_on_c, 0, 50, 95
2, 287520, Note_on_c, 0, 43, 95
2, 288000, Note_off_c, 0, 67, 95
2, 288000, Note_off_c, 0, 62, 95
2, 288000, Note_off_c, 0, 59, 95
2, 288000, Note_off_c, 0, 55, 95
2, 288000, Note_off_c, 0, 50, 95
2, 288000, Note_off_c, 0, 43, 95
2, 288000, Note_on_c, 0, 67, 95
2, 288000, Note_on_c, 0, 62, 95
2, 288000, Note_on_c, 0, 59, 95
2, 288000, Note_on_c, 0, 55, 95
2, 288000, Note_on_c, 0, 50, 95
2, 288000, Note_on_c, 0, 43, 95
2, 288480, Note_off_c, 0, 67, 95
2, 288480, Note_off_c, 0, 62, 95
2, 288480, Note_off_c, 0, 59, 95
2, 288480, Note_off_c, 0, 55, 95
2, 288480, Note_off_c, 0, 50, 95
2, 288480, Note_off_c, 0, 43, 95
2, 288480, Note_on_c, 0, 67, 95
2, 288480, Note_on_c, 0, 62, 95
2, 288480, Note_on_c, 0, 59, 95
2, 288480, Note_on_c, 0, 55, 95
2, 288480, Note_on_c, 0, 50, 95
2, 288480, Note_on_c, 0, 43, 95
2, 288960, Note_off_c, 0, 67, 95
2, 288960, Note_off_c, 0, 62, 95
2, 288960, Note_off_c, 0, 59, 95
2, 288960, Note_off_c, 0, 55, 95
2, 288960, Note_off_c, 0, 50, 95
2, 288960, Note_off_c, 0, 43, 95
2, 288960, Note_on_c, 0, 67, 95
2, 288960, Note_on_c, 0, 62, 95
2, 288960, Note_on_c, 0, 59, 95
2, 288960, Note_on_c, 0, 55, 95
2, 288960, Note_on_c, 0, 50, 95
2, 288960, Note_on_c, 0, 43, 95
2, 289440, Note_off_c, 0, 67, 95
2, 289440, Note_off_c, 0, 62, 95
2, 289440, Note_off_c, 0, 59, 95
2, 289440, Note_off_c, 0, 55, 95
2, 289440, Note_off_c, 0, 50, 95
2, 289440, Note_off_c, 0, 43, 95
2, 289440, Note_on_c, 0, 67, 95
2, 289440, Note_on_c, 0, 62, 95
2, 289440, Note_on_c, 0, 59, 95
2, 289440, Note_on_c, 0, 55, 95
2, 289440, Note_on_c, 0, 50, 95
2, 289440, Note_on_c, 0, 43, 95
2, 289920, Note_off_c, 0, 67, 95
2, 289920, Note_off_c, 0, 62, 95
2, 289920, Note_off_c, 0, 59, 95
2, 289920, Note_off_c, 0, 55, 95
2, 289920, Note_off_c, 0, 50, 95
2, 289920, Note_off_c, 0, 43, 95
2, 289920, Note_on_c, 0, 67, 95
2, 289920, Note_on_c, 0, 62, 95
2, 289920, Note_on_c, 0, 59, 95
2, 289920, Note_on_c, 0, 55, 95
2, 289920, Note_on_c, 0, 50, 95
2, 289920, Note_on_c, 0, 43, 95
2, 290400, Note_off_c, 0, 67, 95
2, 290400, Note_off_c, 0, 62, 95
2, 290400, Note_off_c, 0, 59, 95
2, 290400, Note_off_c, 0, 55, 95
2, 290400, Note_off_c, 0, 50, 95
2, 290400, Note_off_c, 0, 43, 95
2, 290400, Note_on_c, 0, 67, 95
2, 290400, Note_on_c, 0, 62, 95
2, 290400, Note_on_c, 0, 59, 95
2, 290400, Note_on_c, 0, 55, 95
2, 290400, Note_on_c, 0, 50, 95
2, 290400, Note_on_c, 0, 43, 95
2, 290880, Note_off_c, 0, 67, 95
2, 290880, Note_off_c, 0, 62, 95
2, 290880, Note_off_c, 0, 59, 95
2, 290880, Note_off_c, 0, 55, 95
2, 290880, Note_off_c, 0, 50, 95
2, 290880, Note_off_c, 0, 43, 95
2, 290880, Note_on_c, 0, 67, 95
2, 290880, Note_on_c, 0, 62, 95
2, 290880, Note_on_c, 0, 59, 95
2, 290880, Note_on_c, 0, 55, 95
2, 290880, Note_on_c, 0, 50, 95
2, 290880, Note_on_c, 0, 43, 95
2, 291360, Note_off_c, 0, 67, 95
2, 291360, Note_off_c, 0, 62, 95
2, 291360, Note_off_c, 0, 59, 95
2, 291360, Note_off_c, 0, 55, 95
2, 291360, Note_off_c, 0, 50, 95
2, 291360, Note_off_c, 0, 43, 95
2, 291360, Note_on_c, 0, 67, 95
2, 291360, Note_on_c, 0, 62, 95
2, 291360, Note_on_c, 0, 60, 95
2, 291360, Note_on_c, 0, 57, 95
2, 291360, Note_on_c, 0, 50, 95
2, 291360, Note_on_c, 0, 43, 95
2, 291840, Note_off_c, 0, 67, 95
2, 291840, Note_off_c, 0, 62, 95
2, 291840, Note_off_c, 0, 60, 95
2, 291840, Note_off_c, 0, 57, 95
2, 291840, Note_off_c, 0, 50, 95
2, 291840, Note_off_c, 0, 43, 95
2, 291840, Note_on_c, 0, 67, 95
2, 291840, Note_on_c, 0, 62, 95
2, 291840, Note_on_c, 0, 60, 95
2, 291840, Note_on_c, 0, 57, 95
2, 291840, Note_on_c, 0, 50, 95
2, 291840, Note_on_c, 0, 43, 95
2, 292320, Note_off_c, 0, 67, 95
2, 292320, Note_off_c, 0, 62, 95
2, 292320, Note_off_c, 0, 60, 95
2, 292320, Note_off_c, 0, 57, 95
2, 292320, Note_off_c, 0, 50, 95
2, 292320, Note_off_c, 0, 43, 95
2, 292320, Note_on_c, 0, 67, 95
2, 292320, Note_on_c, 0, 62, 95
2, 292320, Note_on_c, 0, 59, 95
2, 292320, Note_on_c, 0, 55, 95
2, 292320, Note_on_c, 0, 50, 95
2, 292320, Note_on_c, 0, 43, 95
2, 292800, Note_off_c, 0, 67, 95
2, 292800, Note_off_c, 0, 62, 95
2, 292800, Note_off_c, 0, 59, 95
2, 292800, Note_off_c, 0, 55, 95
2, 292800, Note_off_c, 0, 50, 95
2, 292800, Note_off_c, 0, 43, 95
2, 292800, Note_on_c, 0, 67, 95
2, 292800, Note_on_c, 0, 62, 95
2, 292800, Note_on_c, 0, 59, 95
2, 292800, Note_on_c, 0, 55, 95
2, 292800, Note_on_c, 0, 50, 95
2, 292800, Note_on_c, 0, 43, 95
2, 293280, Note_off_c, 0, 67, 95
2, 293280, Note_off_c, 0, 62, 95
2, 293280, Note_off_c, 0, 59, 95
2, 293280, Note_off_c, 0, 55, 95
2, 293280, Note_off_c, 0, 50, 95
2, 293280, Note_off_c, 0, 43, 95
2, 293280, Note_on_c, 0, 67, 95
2, 293280, Note_on_c, 0, 62, 95
2, 293280, Note_on_c, 0, 59, 95
2, 293280, Note_on_c, 0, 55, 95
2, 293280, Note_on_c, 0, 50, 95
2, 293280, Note_on_c, 0, 43, 95
2, 293760, Note_off_c, 0, 67, 95
2, 293760, Note_off_c, 0, 62, 95
2, 293760, Note_off_c, 0, 59, 95
2, 293760, Note_off_c, 0, 55, 95
2, 293760, Note_off_c, 0, 50, 95
2, 293760, Note_off_c, 0, 43, 95
2, 293760, Note_on_c, 0, 67, 95
2, 293760, Note_on_c, 0, 62, 95
2, 293760, Note_on_c, 0, 59, 95
2, 293760, Note_on_c, 0, 55, 95
2, 293760, Note_on_c, 0, 50, 95
2, 293760, Note_on_c, 0, 43, 95
2, 294240, Note_off_c, 0, 67, 95
2, 294240, Note_off_c, 0, 62, 95
2, 294240, Note_off_c, 0, 59, 95
2, 294240, Note_off_c, 0, 55, 95
2, 294240, Note_off_c, 0, 50, 95
2, 294240, Note_off_c, 0, 43, 95
2, 294240, Note_on_c, 0, 67, 95
2, 294240, Note_on_c, 0, 62, 95
2, 294240, Note_on_c, 0, 59, 95
2, 294240, Note_on_c, 0, 55, 95
2, 294240, Note_on_c, 0, 50, 95
2, 294240, Note_on_c, 0, 43, 95
2, 294720, Note_off_c, 0, 67, 95
2, 294720, Note_off_c, 0, 62, 95
2, 294720, Note_off_c, 0, 59, 95
2, 294720, Note_off_c, 0, 55, 95
2, 294720, Note_off_c, 0, 50, 95
2, 294720, Note_off_c, 0, 43, 95
2, 294720, Note_on_c, 0, 67, 95
2, 294720, Note_on_c, 0, 62, 95
2, 294720, Note_on_c, 0, 59, 95
2, 294720, Note_on_c, 0, 55, 95
2, 294720, Note_on_c, 0, 50, 95
2, 294720, Note_on_c, 0, 43, 95
2, 295200, Note_off_c, 0, 67, 95
2, 295200, Note_off_c, 0, 62, 95
2, 295200, Note_off_c, 0, 59, 95
2, 295200, Note_off_c, 0, 55, 95
2, 295200, Note_off_c, 0, 50, 95
2, 295200, Note_off_c, 0, 43, 95
2, 295200, Note_on_c, 0, 62, 95
2, 295200, Note_on_c, 0, 57, 95
2, 295200, Note_on_c, 0, 54, 95
2, 295200, Note_on_c, 0, 50, 95
2, 295200, Note_on_c, 0, 45, 95
2, 295200, Note_on_c, 0, 38, 95
2, 295680, Note_off_c, 0, 62, 95
2, 295680, Note_off_c, 0, 57, 95
2, 295680, Note_off_c, 0, 54, 95
2, 295680, Note_off_c, 0, 50, 95
2, 295680, Note_off_c, 0, 45, 95
2, 295680, Note_off_c, 0, 38, 95
2, 295680, Note_on_c, 0, 62, 95
2, 295680, Note_on_c, 0, 57, 95
2, 295680, Note_on_c, 0, 54, 95
2, 295680, Note_on_c, 0, 50, 95
2, 295680, Note_on_c, 0, 45, 95
2, 295680, Note_on_c, 0, 38, 95
2, 296160, Note_off_c, 0, 62, 95
2, 296160, Note_off_c, 0, 57, 95
2, 296160, Note_off_c, 0, 54, 95
2, 296160, Note_off_c, 0, 50, 95
2, 296160, Note_off_c, 0, 45, 95
2, 296160, Note_off_c, 0, 38, 95
2, 296160, Note_on_c, 0, 62, 95
2, 296160, Note_on_c, 0, 57, 95
2, 296160, Note_on_c, 0, 54, 95
2, 296160, Note_on_c, 0, 50, 95
2, 296160, Note_on_c, 0, 45, 95
2, 296160, Note_on_c, 0, 38, 95
2, 296640, Note_off_c, 0, 62, 95
2, 296640, Note_off_c, 0, 57, 95
2, 296640, Note_off_c, 0, 54, 95
2, 296640, Note_off_c, 0, 50, 95
2, 296640, Note_off_c, 0, 45, 95
2, 296640, Note_off_c, 0, 38, 95
2, 296640, Note_on_c, 0, 62, 95
2, 296640, Note_on_c, 0, 57, 95
2, 296640, Note_on_c, 0, 54, 95
2, 296640, Note_on_c, 0, 50, 95
2, 296640, Note_on_c, 0, 45, 95
2, 296640, Note_on_c, 0, 38, 95
2, 297120, Note_off_c, 0, 62, 95
2, 297120, Note_off_c, 0, 57, 95
2, 297120, Note_off_c, 0, 54, 95
2, 297120, Note_off_c, 0, 50, 95
2, 297120, Note_off_c, 0, 45, 95
2, 297120, Note_off_c, 0, 38, 95
2, 297120, Note_on_c, 0, 62, 95
2, 297120, Note_on_c, 0, 57, 95
2, 297120, Note_on_c, 0, 54, 95
2, 297120, Note_on_c, 0, 50, 95
2, 297120, Note_on_c, 0, 45, 95
2, 297120, Note_on_c, 0, 38, 95
2, 297600, Note_off_c, 0, 62, 95
2, 297600, Note_off_c, 0, 57, 95
2, 297600, Note_off_c, 0, 54, 95
2, 297600, Note_off_c, 0, 50, 95
2, 297600, Note_off_c, 0, 45, 95
2, 297600, Note_off_c, 0, 38, 95
2, 297600, Note_on_c, 0, 62, 95
2, 297600, Note_on_c, 0, 57, 95
2, 297600, Note_on_c, 0, 54, 95
2, 297600, Note_on_c, 0, 50, 95
2, 297600, Note_on_c, 0, 45, 95
2, 297600, Note_on_c, 0, 38, 95
2, 298080, Note_off_c, 0, 62, 95
2, 298080, Note_off_c, 0, 57, 95
2, 298080, Note_off_c, 0, 54, 95
2, 298080, Note_off_c, 0, 50, 95
2, 298080, Note_off_c, 0, 45, 95
2, 298080, Note_off_c, 0, 38, 95
2, 298080, Note_on_c, 0, 62, 95
2, 298080, Note_on_c, 0, 57, 95
2, 298080, Note_on_c, 0, 54, 95
2, 298080, Note_on_c, 0, 50, 95
2, 298080, Note_on_c, 0, 45, 95
2, 298080, Note_on_c, 0, 38, 95
2, 298560, Note_off_c, 0, 62, 95
2, 298560, Note_off_c, 0, 57, 95
2, 298560, Note_off_c, 0, 54, 95
2, 298560, Note_off_c, 0, 50, 95
2, 298560, Note_off_c, 0, 45, 95
2, 298560, Note_off_c, 0, 38, 95
2, 298560, Note_on_c, 0, 62, 95
2, 298560, Note_on_c, 0, 57, 95
2, 298560, Note_on_c, 0, 54, 95
2, 298560, Note_on_c, 0, 50, 95
2, 298560, Note_on_c, 0, 45, 95
2, 298560, Note_on_c, 0, 38, 95
2, 299040, Note_off_c, 0, 62, 95
2, 299040, Note_off_c, 0, 57, 95
2, 299040, Note_off_c, 0, 54, 95
2, 299040, Note_off_c, 0, 50, 95
2, 299040, Note_off_c, 0, 45, 95
2, 299040, Note_off_c, 0, 38, 95
2, 299040, Note_on_c, 0, 62, 95
2, 299040, Note_on_c, 0, 57, 95
2, 299040, Note_on_c, 0, 54, 95
2, 299040, Note_on_c, 0, 50, 95
2, 299040, Note_on_c, 0, 45, 95
2, 299040, Note_on_c, 0, 38, 95
2, 299520, Note_off_c, 0, 62, 95
2, 299520, Note_off_c, 0, 57, 95
2, 299520, Note_off_c, 0, 54, 95
2, 299520, Note_off_c, 0, 50, 95
2, 299520, Note_off_c, 0, 45, 95
2, 299520, Note_off_c, 0, 38, 95
2, 299520, Note_on_c, 0, 62, 95
2, 299520, Note_on_c, 0, 57, 95
2, 299520, Note_on_c, 0, 54, 95
2, 299520, Note_on_c, 0, 50, 95
2, 299520, Note_on_c, 0, 45, 95
2, 299520, Note_on_c, 0, 38, 95
2, 300000, Note_off_c, 0, 62, 95
2, 300000, Note_off_c, 0, 57, 95
2, 300000, Note_off_c, 0, 54, 95
2, 300000, Note_off_c, 0, 50, 95
2, 300000, Note_off_c, 0, 45, 95
2, 300000, Note_off_c, 0, 38, 95
2, 300000, Note_on_c, 0, 62, 95
2, 300000, Note_on_c, 0, 57, 95
2, 300000, Note_on_c, 0, 54, 95
2, 300000, Note_on_c, 0, 50, 95
2, 300000, Note_on_c, 0, 45, 95
2, 300000, Note_on_c, 0, 38, 95
2, 300480, Note_off_c, 0, 62, 95
2, 300480, Note_off_c, 0, 57, 95
2, 300480, Note_off_c, 0, 54, 95
2, 300480, Note_off_c, 0, 50, 95
2, 300480, Note_off_c, 0, 45, 95
2, 300480, Note_off_c, 0, 38, 95
2, 300480, Note_on_c, 0, 62, 95
2, 300480, Note_on_c, 0, 57, 95
2, 300480, Note_on_c, 0, 54, 95
2, 300480, Note_on_c, 0, 50, 95
2, 300480, Note_on_c, 0, 45, 95
2, 300480, Note_on_c, 0, 38, 95
2, 300960, Note_off_c, 0, 62, 95
2, 300960, Note_off_c, 0, 57, 95
2, 300960, Note_off_c, 0, 54, 95
2, 300960, Note_off_c, 0, 50, 95
2, 300960, Note_off_c, 0, 45, 95
2, 300960, Note_off_c, 0, 38, 95
2, 300960, Note_on_c, 0, 62, 95
2, 300960, Note_on_c, 0, 57, 95
2, 300960, Note_on_c, 0, 54, 95
2, 300960, Note_on_c, 0, 50, 95
2, 300960, Note_on_c, 0, 45, 95
2, 300960, Note_on_c, 0, 38, 95
2, 301440, Note_off_c, 0, 62, 95
2, 301440, Note_off_c, 0, 57, 95
2, 301440, Note_off_c, 0, 54, 95
2, 301440, Note_off_c, 0, 50, 95
2, 301440, Note_off_c, 0, 45, 95
2, 301440, Note_off_c, 0, 38, 95
2, 301440, Note_on_c, 0, 62, 95
2, 301440, Note_on_c, 0, 57, 95
2, 301440, Note_on_c, 0, 54, 95
2, 301440, Note_on_c, 0, 50, 95
2, 301440, Note_on_c, 0, 45, 95
2, 301440, Note_on_c, 0, 38, 95
2, 301920, Note_off_c, 0, 62, 95
2, 301920, Note_off_c, 0, 57, 95
2, 301920, Note_off_c, 0, 54, 95
2, 301920, Note_off_c, 0, 50, 95
2, 301920, Note_off_c, 0, 45, 95
2, 301920, Note_off_c, 0, 38, 95
2, 301920, Note_on_c, 0, 62, 95
2, 301920, Note_on_c, 0, 57, 95
2, 301920, Note_on_c, 0, 54, 95
2, 301920, Note_on_c, 0, 50, 95
2, 301920, Note_on_c, 0, 45, 95
2, 301920, Note_on_c, 0, 38, 95
2, 302400, Note_off_c, 0, 62, 95
2, 302400, Note_off_c, 0, 57, 95
2, 302400, Note_off_c, 0, 54, 95
2, 302400, Note_off_c, 0, 50, 95
2, 302400, Note_off_c, 0, 45, 95
2, 302400, Note_off_c, 0, 38, 95
2, 302400, Note_on_c, 0, 62, 95
2, 302400, Note_on_c, 0, 57, 95
2, 302400, Note_on_c, 0, 54, 95
2, 302400, Note_on_c, 0, 50, 95
2, 302400, Note_on_c, 0, 45, 95
2, 302400, Note_on_c, 0, 38, 95
2, 302880, Note_off_c, 0, 62, 95
2, 302880, Note_off_c, 0, 57, 95
2, 302880, Note_off_c, 0, 54, 95
2, 302880, Note_off_c, 0, 50, 95
2, 302880, Note_off_c, 0, 45, 95
2, 302880, Note_off_c, 0, 38, 95
2, 302880, Note_on_c, 0, 62, 95
2, 302880, Note_on_c, 0, 57, 95
2, 302880, Note_on_c, 0, 54, 95
2, 302880, Note_on_c, 0, 50, 95
2, 302880, Note_on_c, 0, 45, 95
2, 302880, Note_on_c, 0, 38, 95
2, 303360, Note_off_c, 0, 62, 95
2, 303360, Note_off_c, 0, 57, 95
2, 303360, Note_off_c, 0, 54, 95
2, 303360, Note_off_c, 0, 50, 95
2, 303360, Note_off_c, 0, 45, 95
2, 303360, Note_off_c, 0, 38, 95
2, 303360, Note_on_c, 0, 62, 95
2, 303360, Note_on_c, 0, 57, 95
2, 303360, Note_on_c, 0, 54, 95
2, 303360, Note_on_c, 0, 50, 95
2, 303360, Note_on_c, 0, 45, 95
2, 303360, Note_on_c, 0, 38, 95
2, 303840, Note_off_c, 0, 62, 95
2, 303840, Note_off_c, 0, 57, 95
2, 303840, Note_off_c, 0, 54, 95
2, 303840, Note_off_c, 0, 50, 95
2, 303840, Note_off_c, 0, 45, 95
2, 303840, Note_off_c, 0, 38, 95
2, 303840, Note_on_c, 0, 62, 95
2, 303840, Note_on_c, 0, 57, 95
2, 303840, Note_on_c, 0, 54, 95
2, 303840, Note_on_c, 0, 50, 95
2, 303840, Note_on_c, 0, 45, 95
2, 303840, Note_on_c, 0, 38, 95
2, 304320, Note_off_c, 0, 62, 95
2, 304320, Note_off_c, 0, 57, 95
2, 304320, Note_off_c, 0, 54, 95
2, 304320, Note_off_c, 0, 50, 95
2, 304320, Note_off_c, 0, 45, 95
2, 304320, Note_off_c, 0, 38, 95
2, 304320, Note_on_c, 0, 62, 95
2, 304320, Note_on_c, 0, 57, 95
2, 304320, Note_on_c, 0, 54, 95
2, 304320, Note_on_c, 0, 50, 95
2, 304320, Note_on_c, 0, 45, 95
2, 304320, Note_on_c, 0, 38, 95
2, 304800, Note_off_c, 0, 62, 95
2, 304800, Note_off_c, 0, 57, 95
2, 304800, Note_off_c, 0, 54, 95
2, 304800, Note_off_c, 0, 50, 95
2, 304800, Note_off_c, 0, 45, 95
2, 304800, Note_off_c, 0, 38, 95
2, 304800, Note_on_c, 0, 62, 95
2, 304800, Note_on_c, 0, 57, 95
2, 304800, Note_on_c, 0, 54, 95
2, 304800, Note_on_c, 0, 50, 95
2, 304800, Note_on_c, 0, 45, 95
2, 304800, Note_on_c, 0, 38, 95
2, 305280, Note_off_c, 0, 62, 95
2, 305280, Note_off_c, 0, 57, 95
2, 305280, Note_off_c, 0, 54, 95
2, 305280, Note_off_c, 0, 50, 95
2, 305280, Note_off_c, 0, 45, 95
2, 305280, Note_off_c, 0, 38, 95
2, 305280, Note_on_c, 0, 62, 95
2, 305280, Note_on_c, 0, 57, 95
2, 305280, Note_on_c, 0, 54, 95
2, 305280, Note_on_c, 0, 50, 95
2, 305280, Note_on_c, 0, 45, 95
2, 305280, Note_on_c, 0, 38, 95
2, 305760, Note_off_c, 0, 62, 95
2, 305760, Note_off_c, 0, 57, 95
2, 305760, Note_off_c, 0, 54, 95
2, 305760, Note_off_c, 0, 50, 95
2, 305760, Note_off_c, 0, 45, 95
2, 305760, Note_off_c, 0, 38, 95
2, 305760, Note_on_c, 0, 62, 95
2, 305760, Note_on_c, 0, 57, 95
2, 305760, Note_on_c, 0, 54, 95
2, 305760, Note_on_c, 0, 50, 95
2, 305760, Note_on_c, 0, 45, 95
2, 305760, Note_on_c, 0, 38, 95
2, 306240, Note_off_c, 0, 62, 95
2, 306240, Note_off_c, 0, 57, 95
2, 306240, Note_off_c, 0, 54, 95
2, 306240, Note_off_c, 0, 50, 95
2, 306240, Note_off_c, 0, 45, 95
2, 306240, Note_off_c, 0, 38, 95
2, 306240, Note_on_c, 0, 62, 95
2, 306240, Note_on_c, 0, 57, 95
2, 306240, Note_on_c, 0, 54, 95
2, 306240, Note_on_c, 0, 50, 95
2, 306240, Note_on_c, 0, 45, 95
2, 306240, Note_on_c, 0, 38, 95
2, 306720, Note_off_c, 0, 62, 95
2, 306720, Note_off_c, 0, 57, 95
2, 306720, Note_off_c, 0, 54, 95
2, 306720, Note_off_c, 0, 50, 95
2, 306720, Note_off_c, 0, 45, 95
2, 306720, Note_off_c, 0, 38, 95
2, 306720, Note_on_c, 0, 62, 95
2, 306720, Note_on_c, 0, 57, 95
2, 306720, Note_on_c, 0, 54, 95
2, 306720, Note_on_c, 0, 50, 95
2, 306720, Note_on_c, 0, 45, 95
2, 306720, Note_on_c, 0, 38, 95
2, 307200, Note_off_c, 0, 62, 95
2, 307200, Note_off_c, 0, 57, 95
2, 307200, Note_off_c, 0, 54, 95
2, 307200, Note_off_c, 0, 50, 95
2, 307200, Note_off_c, 0, 45, 95
2, 307200, Note_off_c, 0, 38, 95
2, 307200, Note_on_c, 0, 62, 95
2, 307200, Note_on_c, 0, 57, 95
2, 307200, Note_on_c, 0, 54, 95
2, 307200, Note_on_c, 0, 50, 95
2, 307200, Note_on_c, 0, 45, 95
2, 307200, Note_on_c, 0, 38, 95
2, 307680, Note_off_c, 0, 62, 95
2, 307680, Note_off_c, 0, 57, 95
2, 307680, Note_off_c, 0, 54, 95
2, 307680, Note_off_c, 0, 50, 95
2, 307680, Note_off_c, 0, 45, 95
2, 307680, Note_off_c, 0, 38, 95
2, 307680, Note_on_c, 0, 62, 95
2, 307680, Note_on_c, 0, 57, 95
2, 307680, Note_on_c, 0, 54, 95
2, 307680, Note_on_c, 0, 50, 95
2, 307680, Note_on_c, 0, 45, 95
2, 307680, Note_on_c, 0, 38, 95
2, 308160, Note_off_c, 0, 62, 95
2, 308160, Note_off_c, 0, 57, 95
2, 308160, Note_off_c, 0, 54, 95
2, 308160, Note_off_c, 0, 50, 95
2, 308160, Note_off_c, 0, 45, 95
2, 308160, Note_off_c, 0, 38, 95
2, 308160, Note_on_c, 0, 62, 95
2, 308160, Note_on_c, 0, 57, 95
2, 308160, Note_on_c, 0, 54, 95
2, 308160, Note_on_c, 0, 50, 95
2, 308160, Note_on_c, 0, 45, 95
2, 308160, Note_on_c, 0, 38, 95
2, 308640, Note_off_c, 0, 62, 95
2, 308640, Note_off_c, 0, 57, 95
2, 308640, Note_off_c, 0, 54, 95
2, 308640, Note_off_c, 0, 50, 95
2, 308640, Note_off_c, 0, 45, 95
2, 308640, Note_off_c, 0, 38, 95
2, 308640, Note_on_c, 0, 62, 95
2, 308640, Note_on_c, 0, 57, 95
2, 308640, Note_on_c, 0, 54, 95
2, 308640, Note_on_c, 0, 50, 95
2, 308640, Note_on_c, 0, 45, 95
2, 308640, Note_on_c, 0, 38, 95
2, 309120, Note_off_c, 0, 62, 95
2, 309120, Note_off_c, 0, 57, 95
2, 309120, Note_off_c, 0, 54, 95
2, 309120, Note_off_c, 0, 50, 95
2, 309120, Note_off_c, 0, 45, 95
2, 309120, Note_off_c, 0, 38, 95
2, 309120, Note_on_c, 0, 62, 95
2, 309120, Note_on_c, 0, 57, 95
2, 309120, Note_on_c, 0, 54, 95
2, 309120, Note_on_c, 0, 50, 95
2, 309120, Note_on_c, 0, 45, 95
2, 309120, Note_on_c, 0, 38, 95
2, 309600, Note_off_c, 0, 62, 95
2, 309600, Note_off_c, 0, 57, 95
2, 309600, Note_off_c, 0, 54, 95
2, 309600, Note_off_c, 0, 50, 95
2, 309600, Note_off_c, 0, 45, 95
2, 309600, Note_off_c, 0, 38, 95
2, 309600, Note_on_c, 0, 62, 95
2, 309600, Note_on_c, 0, 57, 95
2, 309600, Note_on_c, 0, 54, 95
2, 309600, Note_on_c, 0, 50, 95
2, 309600, Note_on_c, 0, 45, 95
2, 309600, Note_on_c, 0, 38, 95
2, 310080, Note_off_c, 0, 62, 95
2, 310080, Note_off_c, 0, 57, 95
2, 310080, Note_off_c, 0, 54, 95
2, 310080, Note_off_c, 0, 50, 95
2, 310080, Note_off_c, 0, 45, 95
2, 310080, Note_off_c, 0, 38, 95
2, 310080, Note_on_c, 0, 62, 95
2, 310080, Note_on_c, 0, 57, 95
2, 310080, Note_on_c, 0, 54, 95
2, 310080, Note_on_c, 0, 50, 95
2, 310080, Note_on_c, 0, 45, 95
2, 310080, Note_on_c, 0, 38, 95
2, 310560, Note_off_c, 0, 62, 95
2, 310560, Note_off_c, 0, 57, 95
2, 310560, Note_off_c, 0, 54, 95
2, 310560, Note_off_c, 0, 50, 95
2, 310560, Note_off_c, 0, 45, 95
2, 310560, Note_off_c, 0, 38, 95
2, 310560, Note_on_c, 0, 62, 95
2, 310560, Note_on_c, 0, 57, 95
2, 310560, Note_on_c, 0, 54, 95
2, 310560, Note_on_c, 0, 50, 95
2, 310560, Note_on_c, 0, 45, 95
2, 310560, Note_on_c, 0, 38, 95
2, 311040, Note_off_c, 0, 62, 95
2, 311040, Note_off_c, 0, 57, 95
2, 311040, Note_off_c, 0, 54, 95
2, 311040, Note_off_c, 0, 50, 95
2, 311040, Note_off_c, 0, 45, 95
2, 311040, Note_off_c, 0, 38, 95
2, 311040, Note_on_c, 0, 72, 95
2, 311040, Note_on_c, 0, 67, 95
2, 311040, Note_on_c, 0, 64, 95
2, 311040, Note_on_c, 0, 60, 95
2, 311040, Note_on_c, 0, 55, 95
2, 311040, Note_on_c, 0, 48, 95
2, 311520, Note_off_c, 0, 72, 95
2, 311520, Note_off_c, 0, 67, 95
2, 311520, Note_off_c, 0, 64, 95
2, 311520, Note_off_c, 0, 60, 95
2, 311520, Note_off_c, 0, 55, 95
2, 311520, Note_off_c, 0, 48, 95
2, 311520, Note_on_c, 0, 72, 95
2, 311520, Note_on_c, 0, 67, 95
2, 311520, Note_on_c, 0, 64, 95
2, 311520, Note_on_c, 0, 60, 95
2, 311520, Note_on_c, 0, 55, 95
2, 311520, Note_on_c, 0, 48, 95
2, 312000, Note_off_c, 0, 72, 95
2, 312000, Note_off_c, 0, 67, 95
2, 312000, Note_off_c, 0, 64, 95
2, 312000, Note_off_c, 0, 60, 95
2, 312000, Note_off_c, 0, 55, 95
2, 312000, Note_off_c, 0, 48, 95
2, 312000, Note_on_c, 0, 72, 95
2, 312000, Note_on_c, 0, 67, 95
2, 312000, Note_on_c, 0, 64, 95
2, 312000, Note_on_c, 0, 60, 95
2, 312000, Note_on_c, 0, 55, 95
2, 312000, Note_on_c, 0, 48, 95
2, 312480, Note_off_c, 0, 72, 95
2, 312480, Note_off_c, 0, 67, 95
2, 312480, Note_off_c, 0, 64, 95
2, 312480, Note_off_c, 0, 60, 95
2, 312480, Note_off_c, 0, 55, 95
2, 312480, Note_off_c, 0, 48, 95
2, 312480, Note_on_c, 0, 72, 95
2, 312480, Note_on_c, 0, 67, 95
2, 312480, Note_on_c, 0, 64, 95
2, 312480, Note_on_c, 0, 60, 95
2, 312480, Note_on_c, 0, 55, 95
2, 312480, Note_on_c, 0, 48, 95
2, 312960, Note_off_c, 0, 72, 95
2, 312960, Note_off_c, 0, 67, 95
2, 312960, Note_off_c, 0, 64, 95
2, 312960, Note_off_c, 0, 60, 95
2, 312960, Note_off_c, 0, 55, 95
2, 312960, Note_off_c, 0, 48, 95
2, 312960, Note_on_c, 0, 72, 95
2, 312960, Note_on_c, 0, 67, 95
2, 312960, Note_on_c, 0, 64, 95
2, 312960, Note_on_c, 0, 60, 95
2, 312960, Note_on_c, 0, 55, 95
2, 312960, Note_on_c, 0, 48, 95
2, 313440, Note_off_c, 0, 72, 95
2, 313440, Note_off_c, 0, 67, 95
2, 313440, Note_off_c, 0, 64, 95
2, 313440, Note_off_c, 0, 60, 95
2, 313440, Note_off_c, 0, 55, 95
2, 313440, Note_off_c, 0, 48, 95
2, 313440, Note_on_c, 0, 72, 95
2, 313440, Note_on_c, 0, 67, 95
2, 313440, Note_on_c, 0, 64, 95
2, 313440, Note_on_c, 0, 60, 95
2, 313440, Note_on_c, 0, 55, 95
2, 313440, Note_on_c, 0, 48, 95
2, 313920, Note_off_c, 0, 72, 95
2, 313920, Note_off_c, 0, 67, 95
2, 313920, Note_off_c, 0, 64, 95
2, 313920, Note_off_c, 0, 60, 95
2, 313920, Note_off_c, 0, 55, 95
2, 313920, Note_off_c, 0, 48, 95
2, 313920, Note_on_c, 0, 72, 95
2, 313920, Note_on_c, 0, 67, 95
2, 313920, Note_on_c, 0, 64, 95
2, 313920, Note_on_c, 0, 60, 95
2, 313920, Note_on_c, 0, 55, 95
2, 313920, Note_on_c, 0, 48, 95
2, 314400, Note_off_c, 0, 72, 95
2, 314400, Note_off_c, 0, 67, 95
2, 314400, Note_off_c, 0, 64, 95
2, 314400, Note_off_c, 0, 60, 95
2, 314400, Note_off_c, 0, 55, 95
2, 314400, Note_off_c, 0, 48, 95
2, 314400, Note_on_c, 0, 72, 95
2, 314400, Note_on_c, 0, 67, 95
2, 314400, Note_on_c, 0, 65, 95
2, 314400, Note_on_c, 0, 60, 95
2, 314400, Note_on_c, 0, 57, 95
2, 314400, Note_on_c, 0, 48, 95
2, 314880, Note_off_c, 0, 72, 95
2, 314880, Note_off_c, 0, 67, 95
2, 314880, Note_off_c, 0, 65, 95
2, 314880, Note_off_c, 0, 60, 95
2, 314880, Note_off_c, 0, 57, 95
2, 314880, Note_off_c, 0, 48, 95
2, 314880, Note_on_c, 0, 72, 95
2, 314880, Note_on_c, 0, 67, 95
2, 314880, Note_on_c, 0, 65, 95
2, 314880, Note_on_c, 0, 60, 95
2, 314880, Note_on_c, 0, 57, 95
2, 314880, Note_on_c, 0, 48, 95
2, 315360, Note_off_c, 0, 72, 95
2, 315360, Note_off_c, 0, 67, 95
2, 315360, Note_off_c, 0, 65, 95
2, 315360, Note_off_c, 0, 60, 95
2, 315360, Note_off_c, 0, 57, 95
2, 315360, Note_off_c, 0, 48, 95
2, 315360, Note_on_c, 0, 72, 95
2, 315360, Note_on_c, 0, 67, 95
2, 315360, Note_on_c, 0, 65, 95
2, 315360, Note_on_c, 0, 60, 95
2, 315360, Note_on_c, 0, 57, 95
2, 315360, Note_on_c, 0, 48, 95
2, 315840, Note_off_c, 0, 72, 95
2, 315840, Note_off_c, 0, 67, 95
2, 315840, Note_off_c, 0, 65, 95
2, 315840, Note_off_c, 0, 60, 95
2, 315840, Note_off_c, 0, 57, 95
2, 315840, Note_off_c, 0, 48, 95
2, 315840, Note_on_c, 0, 72, 95
2, 315840, Note_on_c, 0, 67, 95
2, 315840, Note_on_c, 0, 65, 95
2, 315840, Note_on_c, 0, 60, 95
2, 315840, Note_on_c, 0, 57, 95
2, 315840, Note_on_c, 0, 48, 95
2, 316320, Note_off_c, 0, 72, 95
2, 316320, Note_off_c, 0, 67, 95
2, 316320, Note_off_c, 0, 65, 95
2, 316320, Note_off_c, 0, 60, 95
2, 316320, Note_off_c, 0, 57, 95
2, 316320, Note_off_c, 0, 48, 95
2, 316320, Note_on_c, 0, 72, 95
2, 316320, Note_on_c, 0, 67, 95
2, 316320, Note_on_c, 0, 65, 95
2, 316320, Note_on_c, 0, 60, 95
2, 316320, Note_on_c, 0, 57, 95
2, 316320, Note_on_c, 0, 48, 95
2, 316800, Note_off_c, 0, 72, 95
2, 316800, Note_off_c, 0, 67, 95
2, 316800, Note_off_c, 0, 65, 95
2, 316800, Note_off_c, 0, 60, 95
2, 316800, Note_off_c, 0, 57, 95
2, 316800, Note_off_c, 0, 48, 95
2, 316800, Note_on_c, 0, 72, 95
2, 316800, Note_on_c, 0, 67, 95
2, 316800, Note_on_c, 0, 65, 95
2, 316800, Note_on_c, 0, 60, 95
2, 316800, Note_on_c, 0, 57, 95
2, 316800, Note_on_c, 0, 48, 95
2, 317280, Note_off_c, 0, 72, 95
2, 317280, Note_off_c, 0, 67, 95
2, 317280, Note_off_c, 0, 65, 95
2, 317280, Note_off_c, 0, 60, 95
2, 317280, Note_off_c, 0, 57, 95
2, 317280, Note_off_c, 0, 48, 95
2, 317280, Note_on_c, 0, 72, 95
2, 317280, Note_on_c, 0, 67, 95
2, 317280, Note_on_c, 0, 65, 95
2, 317280, Note_on_c, 0, 60, 95
2, 317280, Note_on_c, 0, 57, 95
2, 317280, Note_on_c, 0, 48, 95
2, 317760, Note_off_c, 0, 72, 95
2, 317760, Note_off_c, 0, 67, 95
2, 317760, Note_off_c, 0, 65, 95
2, 317760, Note_off_c, 0, 60, 95
2, 317760, Note_off_c, 0, 57, 95
2, 317760, Note_off_c, 0, 48, 95
2, 317760, Note_on_c, 0, 72, 95
2, 317760, Note_on_c, 0, 67, 95
2, 317760, Note_on_c, 0, 65, 95
2, 317760, Note_on_c, 0, 60, 95
2, 317760, Note_on_c, 0, 57, 95
2, 317760, Note_on_c, 0, 48, 95
2, 318240, Note_off_c, 0, 72, 95
2, 318240, Note_off_c, 0, 67, 95
2, 318240, Note_off_c, 0, 65, 95
2, 318240, Note_off_c, 0, 60, 95
2, 318240, Note_off_c, 0, 57, 95
2, 318240, Note_off_c, 0, 48, 95
2, 318240, Note_on_c, 0, 72, 95
2, 318240, Note_on_c, 0, 67, 95
2, 318240, Note_on_c, 0, 64, 95
2, 318240, Note_on_c, 0, 60, 95
2, 318240, Note_on_c, 0, 55, 95
2, 318240, Note_on_c, 0, 48, 95
2, 318720, Note_off_c, 0, 72, 95
2, 318720, Note_off_c, 0, 67, 95
2, 318720, Note_off_c, 0, 64, 95
2, 318720, Note_off_c, 0, 60, 95
2, 318720, Note_off_c, 0, 55, 95
2, 318720, Note_off_c, 0, 48, 95
2, 318720, Note_on_c, 0, 67, 95
2, 318720, Note_on_c, 0, 62, 95
2, 318720, Note_on_c, 0, 59, 95
2, 318720, Note_on_c, 0, 55, 95
2, 318720, Note_on_c, 0, 50, 95
2, 318720, Note_on_c, 0, 43, 95
2, 319200, Note_off_c, 0, 67, 95
2, 319200, Note_off_c, 0, 62, 95
2, 319200, Note_off_c, 0, 59, 95
2, 319200, Note_off_c, 0, 55, 95
2, 319200, Note_off_c, 0, 50, 95
2, 319200, Note_off_c, 0, 43, 95
2, 319200, Note_on_c, 0, 67, 95
2, 319200, Note_on_c, 0, 62, 95
2, 319200, Note_on_c, 0, 59, 95
2, 319200, Note_on_c, 0, 55, 95
2, 319200, Note_on_c, 0, 50, 95
2, 319200, Note_on_c, 0, 43, 95
2, 319680, Note_off_c, 0, 67, 95
2, 319680, Note_off_c, 0, 62, 95
2, 319680, Note_off_c, 0, 59, 95
2, 319680, Note_off_c, 0, 55, 95
2, 319680, Note_off_c, 0, 50, 95
2, 319680, Note_off_c, 0, 43, 95
2, 319680, Note_on_c, 0, 67, 95
2, 319680, Note_on_c, 0, 62, 95
2, 319680, Note_on_c, 0, 59, 95
2, 319680, Note_on_c, 0, 55, 95
2, 319680, Note_on_c, 0, 50, 95
2, 319680, Note_on_c, 0, 43, 95
2, 320160, Note_off_c, 0, 67, 95
2, 320160, Note_off_c, 0, 62, 95
2, 320160, Note_off_c, 0, 59, 95
2, 320160, Note_off_c, 0, 55, 95
2, 320160, Note_off_c, 0, 50, 95
2, 320160, Note_off_c, 0, 43, 95
2, 320160, Note_on_c, 0, 67, 95
2, 320160, Note_on_c, 0, 62, 95
2, 320160, Note_on_c, 0, 59, 95
2, 320160, Note_on_c, 0, 55, 95
2, 320160, Note_on_c, 0, 50, 95
2, 320160, Note_on_c, 0, 43, 95
2, 320640, Note_off_c, 0, 67, 95
2, 320640, Note_off_c, 0, 62, 95
2, 320640, Note_off_c, 0, 59, 95
2, 320640, Note_off_c, 0, 55, 95
2, 320640, Note_off_c, 0, 50, 95
2, 320640, Note_off_c, 0, 43, 95
2, 320640, Note_on_c, 0, 67, 95
2, 320640, Note_on_c, 0, 62, 95
2, 320640, Note_on_c, 0, 59, 95
2, 320640, Note_on_c, 0, 55, 95
2, 320640, Note_on_c, 0, 50, 95
2, 320640, Note_on_c, 0, 43, 95
2, 321120, Note_off_c, 0, 67, 95
2, 321120, Note_off_c, 0, 62, 95
2, 321120, Note_off_c, 0, 59, 95
2, 321120, Note_off_c, 0, 55, 95
2, 321120, Note_off_c, 0, 50, 95
2, 321120, Note_off_c, 0, 43, 95
2, 321120, Note_on_c, 0, 67, 95
2, 321120, Note_on_c, 0, 62, 95
2, 321120, Note_on_c, 0, 59, 95
2, 321120, Note_on_c, 0, 55, 95
2, 321120, Note_on_c, 0, 50, 95
2, 321120, Note_on_c, 0, 43, 95
2, 321600, Note_off_c, 0, 67, 95
2, 321600, Note_off_c, 0, 62, 95
2, 321600, Note_off_c, 0, 59, 95
2, 321600, Note_off_c, 0, 55, 95
2, 321600, Note_off_c, 0, 50, 95
2, 321600, Note_off_c, 0, 43, 95
2, 321600, Note_on_c, 0, 67, 95
2, 321600, Note_on_c, 0, 62, 95
2, 321600, Note_on_c, 0, 59, 95
2, 321600, Note_on_c, 0, 55, 95
2, 321600, Note_on_c, 0, 50, 95
2, 321600, Note_on_c, 0, 43, 95
2, 322080, Note_off_c, 0, 67, 95
2, 322080, Note_off_c, 0, 62, 95
2, 322080, Note_off_c, 0, 59, 95
2, 322080, Note_off_c, 0, 55, 95
2, 322080, Note_off_c, 0, 50, 95
2, 322080, Note_off_c, 0, 43, 95
2, 322080, Note_on_c, 0, 67, 95
2, 322080, Note_on_c, 0, 62, 95
2, 322080, Note_on_c, 0, 60, 95
2, 322080, Note_on_c, 0, 57, 95
2, 322080, Note_on_c, 0, 50, 95
2, 322080, Note_on_c, 0, 43, 95
2, 322560, Note_off_c, 0, 67, 95
2, 322560, Note_off_c, 0, 62, 95
2, 322560, Note_off_c, 0, 60, 95
2, 322560, Note_off_c, 0, 57, 95
2, 322560, Note_off_c, 0, 50, 95
2, 322560, Note_off_c, 0, 43, 95
2, 322560, Note_on_c, 0, 67, 95
2, 322560, Note_on_c, 0, 62, 95
2, 322560, Note_on_c, 0, 60, 95
2, 322560, Note_on_c, 0, 57, 95
2, 322560, Note_on_c, 0, 50, 95
2, 322560, Note_on_c, 0, 43, 95
2, 323040, Note_off_c, 0, 67, 95
2, 323040, Note_off_c, 0, 62, 95
2, 323040, Note_off_c, 0, 60, 95
2, 323040, Note_off_c, 0, 57, 95
2, 323040, Note_off_c, 0, 50, 95
2, 323040, Note_off_c, 0, 43, 95
2, 323040, Note_on_c, 0, 67, 95
2, 323040, Note_on_c, 0, 62, 95
2, 323040, Note_on_c, 0, 60, 95
2, 323040, Note_on_c, 0, 57, 95
2, 323040, Note_on_c, 0, 50, 95
2, 323040, Note_on_c, 0, 43, 95
2, 323520, Note_off_c, 0, 67, 95
2, 323520, Note_off_c, 0, 62, 95
2, 323520, Note_off_c, 0, 60, 95
2, 323520, Note_off_c, 0, 57, 95
2, 323520, Note_off_c, 0, 50, 95
2, 323520, Note_off_c, 0, 43, 95
2, 323520, Note_on_c, 0, 67, 95
2, 323520, Note_on_c, 0, 62, 95
2, 323520, Note_on_c, 0, 60, 95
2, 323520, Note_on_c, 0, 57, 95
2, 323520, Note_on_c, 0, 50, 95
2, 323520, Note_on_c, 0, 43, 95
2, 324000, Note_off_c, 0, 67, 95
2, 324000, Note_off_c, 0, 62, 95
2, 324000, Note_off_c, 0, 60, 95
2, 324000, Note_off_c, 0, 57, 95
2, 324000, Note_off_c, 0, 50, 95
2, 324000, Note_off_c, 0, 43, 95
2, 324000, Note_on_c, 0, 67, 95
2, 324000, Note_on_c, 0, 62, 95
2, 324000, Note_on_c, 0, 60, 95
2, 324000, Note_on_c, 0, 57, 95
2, 324000, Note_on_c, 0, 50, 95
2, 324000, Note_on_c, 0, 43, 95
2, 324480, Note_off_c, 0, 67, 95
2, 324480, Note_off_c, 0, 62, 95
2, 324480, Note_off_c, 0, 60, 95
2, 324480, Note_off_c, 0, 57, 95
2, 324480, Note_off_c, 0, 50, 95
2, 324480, Note_off_c, 0, 43, 95
2, 324480, Note_on_c, 0, 67, 95
2, 324480, Note_on_c, 0, 62, 95
2, 324480, Note_on_c, 0, 60, 95
2, 324480, Note_on_c, 0, 57, 95
2, 324480, Note_on_c, 0, 50, 95
2, 324480, Note_on_c, 0, 43, 95
2, 324960, Note_off_c, 0, 67, 95
2, 324960, Note_off_c, 0, 62, 95
2, 324960, Note_off_c, 0, 60, 95
2, 324960, Note_off_c, 0, 57, 95
2, 324960, Note_off_c, 0, 50, 95
2, 324960, Note_off_c, 0, 43, 95
2, 324960, Note_on_c, 0, 67, 95
2, 324960, Note_on_c, 0, 62, 95
2, 324960, Note_on_c, 0, 59, 95
2, 324960, Note_on_c, 0, 55, 95
2, 324960, Note_on_c, 0, 50, 95
2, 324960, Note_on_c, 0, 43, 95
2, 325440, Note_off_c, 0, 67, 95
2, 325440, Note_off_c, 0, 62, 95
2, 325440, Note_off_c, 0, 59, 95
2, 325440, Note_off_c, 0, 55, 95
2, 325440, Note_off_c, 0, 50, 95
2, 325440, Note_off_c, 0, 43, 95
2, 325440, Note_on_c, 0, 67, 95
2, 325440, Note_on_c, 0, 62, 95
2, 325440, Note_on_c, 0, 59, 95
2, 325440, Note_on_c, 0, 55, 95
2, 325440, Note_on_c, 0, 50, 95
2, 325440, Note_on_c, 0, 43, 95
2, 325920, Note_off_c, 0, 67, 95
2, 325920, Note_off_c, 0, 62, 95
2, 325920, Note_off_c, 0, 59, 95
2, 325920, Note_off_c, 0, 55, 95
2, 325920, Note_off_c, 0, 50, 95
2, 325920, Note_off_c, 0, 43, 95
2, 325920, Note_on_c, 0, 67, 95
2, 325920, Note_on_c, 0, 62, 95
2, 325920, Note_on_c, 0, 59, 95
2, 325920, Note_on_c, 0, 55, 95
2, 325920, Note_on_c, 0, 50, 95
2, 325920, Note_on_c, 0, 43, 95
2, 326400, Note_off_c, 0, 67, 95
2, 326400, Note_off_c, 0, 62, 95
2, 326400, Note_off_c, 0, 59, 95
2, 326400, Note_off_c, 0, 55, 95
2, 326400, Note_off_c, 0, 50, 95
2, 326400, Note_off_c, 0, 43, 95
2, 326400, Note_on_c, 0, 62, 95
2, 326400, Note_on_c, 0, 57, 95
2, 326400, Note_on_c, 0, 54, 95
2, 326400, Note_on_c, 0, 50, 95
2, 326400, Note_on_c, 0, 45, 95
2, 326400, Note_on_c, 0, 38, 95
2, 327360, Note_off_c, 0, 62, 95
2, 327360, Note_off_c, 0, 57, 95
2, 327360, Note_off_c, 0, 54, 95
2, 327360, Note_off_c, 0, 50, 95
2, 327360, Note_off_c, 0, 45, 95
2, 327360, Note_off_c, 0, 38, 95
2, 327360, Note_on_c, 0, 62, 95
2, 327360, Note_on_c, 0, 57, 95
2, 327360, Note_on_c, 0, 54, 95
2, 327360, Note_on_c, 0, 50, 95
2, 327360, Note_on_c, 0, 45, 95
2, 327360, Note_on_c, 0, 38, 95
2, 328320, Note_off_c, 0, 62, 95
2, 328320, Note_off_c, 0, 57, 95
2, 328320, Note_off_c, 0, 54, 95
2, 328320, Note_off_c, 0, 50, 95
2, 328320, Note_off_c, 0, 45, 95
2, 328320, Note_off_c, 0, 38, 95
2, 328320, Note_on_c, 0, 62, 95
2, 328320, Note_on_c, 0, 57, 95
2, 328320, Note_on_c, 0, 54, 95
2, 328320, Note_on_c, 0, 50, 95
2, 328320, Note_on_c, 0, 45, 95
2, 328320, Note_on_c, 0, 38, 95
2, 328800, Note_off_c, 0, 62, 95
2, 328800, Note_off_c, 0, 57, 95
2, 328800, Note_off_c, 0, 54, 95
2, 328800, Note_off_c, 0, 50, 95
2, 328800, Note_off_c, 0, 45, 95
2, 328800, Note_off_c, 0, 38, 95
2, 328800, Note_on_c, 0, 62, 95
2, 328800, Note_on_c, 0, 57, 95
2, 328800, Note_on_c, 0, 54, 95
2, 328800, Note_on_c, 0, 50, 95
2, 328800, Note_on_c, 0, 45, 95
2, 328800, Note_on_c, 0, 38, 95
2, 329280, Note_off_c, 0, 62, 95
2, 329280, Note_off_c, 0, 57, 95
2, 329280, Note_off_c, 0, 54, 95
2, 329280, Note_off_c, 0, 50, 95
2, 329280, Note_off_c, 0, 45, 95
2, 329280, Note_off_c, 0, 38, 95
2, 329280, Note_on_c, 0, 62, 95
2, 329280, Note_on_c, 0, 57, 95
2, 329280, Note_on_c, 0, 54, 95
2, 329280, Note_on_c, 0, 50, 95
2, 329280, Note_on_c, 0, 45, 95
2, 329280, Note_on_c, 0, 38, 95
2, 329760, Note_off_c, 0, 62, 95
2, 329760, Note_off_c, 0, 57, 95
2, 329760, Note_off_c, 0, 54, 95
2, 329760, Note_off_c, 0, 50, 95
2, 329760, Note_off_c, 0, 45, 95
2, 329760, Note_off_c, 0, 38, 95
2, 329760, Note_on_c, 0, 62, 95
2, 329760, Note_on_c, 0, 57, 95
2, 329760, Note_on_c, 0, 54, 95
2, 329760, Note_on_c, 0, 50, 95
2, 329760, Note_on_c, 0, 45, 95
2, 329760, Note_on_c, 0, 38, 95
2, 330240, Note_off_c, 0, 62, 95
2, 330240, Note_off_c, 0, 57, 95
2, 330240, Note_off_c, 0, 54, 95
2, 330240, Note_off_c, 0, 50, 95
2, 330240, Note_off_c, 0, 45, 95
2, 330240, Note_off_c, 0, 38, 95
2, 330240, Note_on_c, 0, 62, 95
2, 330240, Note_on_c, 0, 57, 95
2, 330240, Note_on_c, 0, 54, 95
2, 330240, Note_on_c, 0, 50, 95
2, 330240, Note_on_c, 0, 45, 95
2, 330240, Note_on_c, 0, 38, 95
2, 330720, Note_off_c, 0, 62, 95
2, 330720, Note_off_c, 0, 57, 95
2, 330720, Note_off_c, 0, 54, 95
2, 330720, Note_off_c, 0, 50, 95
2, 330720, Note_off_c, 0, 45, 95
2, 330720, Note_off_c, 0, 38, 95
2, 330720, Note_on_c, 0, 62, 95
2, 330720, Note_on_c, 0, 57, 95
2, 330720, Note_on_c, 0, 54, 95
2, 330720, Note_on_c, 0, 50, 95
2, 330720, Note_on_c, 0, 45, 95
2, 330720, Note_on_c, 0, 38, 95
2, 331200, Note_off_c, 0, 62, 95
2, 331200, Note_off_c, 0, 57, 95
2, 331200, Note_off_c, 0, 54, 95
2, 331200, Note_off_c, 0, 50, 95
2, 331200, Note_off_c, 0, 45, 95
2, 331200, Note_off_c, 0, 38, 95
2, 331200, Note_on_c, 0, 62, 95
2, 331200, Note_on_c, 0, 57, 95
2, 331200, Note_on_c, 0, 54, 95
2, 331200, Note_on_c, 0, 50, 95
2, 331200, Note_on_c, 0, 45, 95
2, 331200, Note_on_c, 0, 38, 95
2, 331680, Note_off_c, 0, 62, 95
2, 331680, Note_off_c, 0, 57, 95
2, 331680, Note_off_c, 0, 54, 95
2, 331680, Note_off_c, 0, 50, 95
2, 331680, Note_off_c, 0, 45, 95
2, 331680, Note_off_c, 0, 38, 95
2, 331680, Note_on_c, 0, 62, 95
2, 331680, Note_on_c, 0, 57, 95
2, 331680, Note_on_c, 0, 54, 95
2, 331680, Note_on_c, 0, 50, 95
2, 331680, Note_on_c, 0, 45, 95
2, 331680, Note_on_c, 0, 38, 95
2, 332160, Note_off_c, 0, 62, 95
2, 332160, Note_off_c, 0, 57, 95
2, 332160, Note_off_c, 0, 54, 95
2, 332160, Note_off_c, 0, 50, 95
2, 332160, Note_off_c, 0, 45, 95
2, 332160, Note_off_c, 0, 38, 95
2, 332160, Note_on_c, 0, 62, 95
2, 332160, Note_on_c, 0, 57, 95
2, 332160, Note_on_c, 0, 54, 95
2, 332160, Note_on_c, 0, 50, 95
2, 332160, Note_on_c, 0, 45, 95
2, 332160, Note_on_c, 0, 38, 95
2, 332640, Note_off_c, 0, 62, 95
2, 332640, Note_off_c, 0, 57, 95
2, 332640, Note_off_c, 0, 54, 95
2, 332640, Note_off_c, 0, 50, 95
2, 332640, Note_off_c, 0, 45, 95
2, 332640, Note_off_c, 0, 38, 95
2, 332640, Note_on_c, 0, 62, 95
2, 332640, Note_on_c, 0, 57, 95
2, 332640, Note_on_c, 0, 54, 95
2, 332640, Note_on_c, 0, 50, 95
2, 332640, Note_on_c, 0, 45, 95
2, 332640, Note_on_c, 0, 38, 95
2, 333120, Note_off_c, 0, 62, 95
2, 333120, Note_off_c, 0, 57, 95
2, 333120, Note_off_c, 0, 54, 95
2, 333120, Note_off_c, 0, 50, 95
2, 333120, Note_off_c, 0, 45, 95
2, 333120, Note_off_c, 0, 38, 95
2, 333120, Note_on_c, 0, 62, 95
2, 333120, Note_on_c, 0, 57, 95
2, 333120, Note_on_c, 0, 54, 95
2, 333120, Note_on_c, 0, 50, 95
2, 333120, Note_on_c, 0, 45, 95
2, 333120, Note_on_c, 0, 38, 95
2, 333600, Note_off_c, 0, 62, 95
2, 333600, Note_off_c, 0, 57, 95
2, 333600, Note_off_c, 0, 54, 95
2, 333600, Note_off_c, 0, 50, 95
2, 333600, Note_off_c, 0, 45, 95
2, 333600, Note_off_c, 0, 38, 95
2, 333600, Note_on_c, 0, 62, 95
2, 333600, Note_on_c, 0, 57, 95
2, 333600, Note_on_c, 0, 54, 95
2, 333600, Note_on_c, 0, 50, 95
2, 333600, Note_on_c, 0, 45, 95
2, 333600, Note_on_c, 0, 38, 95
2, 334080, Note_off_c, 0, 62, 95
2, 334080, Note_off_c, 0, 57, 95
2, 334080, Note_off_c, 0, 54, 95
2, 334080, Note_off_c, 0, 50, 95
2, 334080, Note_off_c, 0, 45, 95
2, 334080, Note_off_c, 0, 38, 95
2, 334080, Note_on_c, 0, 62, 95
2, 334080, Note_on_c, 0, 57, 95
2, 334080, Note_on_c, 0, 54, 95
2, 334080, Note_on_c, 0, 50, 95
2, 334080, Note_on_c, 0, 45, 95
2, 334080, Note_on_c, 0, 38, 95
2, 334560, Note_off_c, 0, 62, 95
2, 334560, Note_off_c, 0, 57, 95
2, 334560, Note_off_c, 0, 54, 95
2, 334560, Note_off_c, 0, 50, 95
2, 334560, Note_off_c, 0, 45, 95
2, 334560, Note_off_c, 0, 38, 95
2, 334560, Note_on_c, 0, 62, 95
2, 334560, Note_on_c, 0, 57, 95
2, 334560, Note_on_c, 0, 54, 95
2, 334560, Note_on_c, 0, 50, 95
2, 334560, Note_on_c, 0, 45, 95
2, 334560, Note_on_c, 0, 38, 95
2, 335040, Note_off_c, 0, 62, 95
2, 335040, Note_off_c, 0, 57, 95
2, 335040, Note_off_c, 0, 54, 95
2, 335040, Note_off_c, 0, 50, 95
2, 335040, Note_off_c, 0, 45, 95
2, 335040, Note_off_c, 0, 38, 95
2, 335040, Note_on_c, 0, 62, 95
2, 335040, Note_on_c, 0, 57, 95
2, 335040, Note_on_c, 0, 54, 95
2, 335040, Note_on_c, 0, 50, 95
2, 335040, Note_on_c, 0, 45, 95
2, 335040, Note_on_c, 0, 38, 95
2, 335520, Note_off_c, 0, 62, 95
2, 335520, Note_off_c, 0, 57, 95
2, 335520, Note_off_c, 0, 54, 95
2, 335520, Note_off_c, 0, 50, 95
2, 335520, Note_off_c, 0, 45, 95
2, 335520, Note_off_c, 0, 38, 95
2, 335520, Note_on_c, 0, 62, 95
2, 335520, Note_on_c, 0, 57, 95
2, 335520, Note_on_c, 0, 54, 95
2, 335520, Note_on_c, 0, 50, 95
2, 335520, Note_on_c, 0, 45, 95
2, 335520, Note_on_c, 0, 38, 95
2, 336000, Note_off_c, 0, 62, 95
2, 336000, Note_off_c, 0, 57, 95
2, 336000, Note_off_c, 0, 54, 95
2, 336000, Note_off_c, 0, 50, 95
2, 336000, Note_off_c, 0, 45, 95
2, 336000, Note_off_c, 0, 38, 95
2, 336000, Note_on_c, 0, 62, 95
2, 336000, Note_on_c, 0, 57, 95
2, 336000, Note_on_c, 0, 54, 95
2, 336000, Note_on_c, 0, 50, 95
2, 336000, Note_on_c, 0, 45, 95
2, 336000, Note_on_c, 0, 38, 95
2, 336480, Note_off_c, 0, 62, 95
2, 336480, Note_off_c, 0, 57, 95
2, 336480, Note_off_c, 0, 54, 95
2, 336480, Note_off_c, 0, 50, 95
2, 336480, Note_off_c, 0, 45, 95
2, 336480, Note_off_c, 0, 38, 95
2, 336480, Note_on_c, 0, 62, 95
2, 336480, Note_on_c, 0, 57, 95
2, 336480, Note_on_c, 0, 54, 95
2, 336480, Note_on_c, 0, 50, 95
2, 336480, Note_on_c, 0, 45, 95
2, 336480, Note_on_c, 0, 38, 95
2, 336960, Note_off_c, 0, 62, 95
2, 336960, Note_off_c, 0, 57, 95
2, 336960, Note_off_c, 0, 54, 95
2, 336960, Note_off_c, 0, 50, 95
2, 336960, Note_off_c, 0, 45, 95
2, 336960, Note_off_c, 0, 38, 95
2, 336960, Note_on_c, 0, 62, 95
2, 336960, Note_on_c, 0, 57, 95
2, 336960, Note_on_c, 0, 54, 95
2, 336960, Note_on_c, 0, 50, 95
2, 336960, Note_on_c, 0, 45, 95
2, 336960, Note_on_c, 0, 38, 95
2, 337440, Note_off_c, 0, 62, 95
2, 337440, Note_off_c, 0, 57, 95
2, 337440, Note_off_c, 0, 54, 95
2, 337440, Note_off_c, 0, 50, 95
2, 337440, Note_off_c, 0, 45, 95
2, 337440, Note_off_c, 0, 38, 95
2, 337440, Note_on_c, 0, 62, 95
2, 337440, Note_on_c, 0, 57, 95
2, 337440, Note_on_c, 0, 54, 95
2, 337440, Note_on_c, 0, 50, 95
2, 337440, Note_on_c, 0, 45, 95
2, 337440, Note_on_c, 0, 38, 95
2, 337920, Note_off_c, 0, 62, 95
2, 337920, Note_off_c, 0, 57, 95
2, 337920, Note_off_c, 0, 54, 95
2, 337920, Note_off_c, 0, 50, 95
2, 337920, Note_off_c, 0, 45, 95
2, 337920, Note_off_c, 0, 38, 95
2, 337920, Note_on_c, 0, 62, 95
2, 337920, Note_on_c, 0, 57, 95
2, 337920, Note_on_c, 0, 54, 95
2, 337920, Note_on_c, 0, 50, 95
2, 337920, Note_on_c, 0, 45, 95
2, 337920, Note_on_c, 0, 38, 95
2, 338400, Note_off_c, 0, 62, 95
2, 338400, Note_off_c, 0, 57, 95
2, 338400, Note_off_c, 0, 54, 95
2, 338400, Note_off_c, 0, 50, 95
2, 338400, Note_off_c, 0, 45, 95
2, 338400, Note_off_c, 0, 38, 95
2, 338400, Note_on_c, 0, 62, 95
2, 338400, Note_on_c, 0, 57, 95
2, 338400, Note_on_c, 0, 54, 95
2, 338400, Note_on_c, 0, 50, 95
2, 338400, Note_on_c, 0, 45, 95
2, 338400, Note_on_c, 0, 38, 95
2, 338880, Note_off_c, 0, 62, 95
2, 338880, Note_off_c, 0, 57, 95
2, 338880, Note_off_c, 0, 54, 95
2, 338880, Note_off_c, 0, 50, 95
2, 338880, Note_off_c, 0, 45, 95
2, 338880, Note_off_c, 0, 38, 95
2, 338880, Note_on_c, 0, 62, 95
2, 338880, Note_on_c, 0, 57, 95
2, 338880, Note_on_c, 0, 54, 95
2, 338880, Note_on_c, 0, 50, 95
2, 338880, Note_on_c, 0, 45, 95
2, 338880, Note_on_c, 0, 38, 95
2, 339360, Note_off_c, 0, 62, 95
2, 339360, Note_off_c, 0, 57, 95
2, 339360, Note_off_c, 0, 54, 95
2, 339360, Note_off_c, 0, 50, 95
2, 339360, Note_off_c, 0, 45, 95
2, 339360, Note_off_c, 0, 38, 95
2, 339360, Note_on_c, 0, 62, 95
2, 339360, Note_on_c, 0, 57, 95
2, 339360, Note_on_c, 0, 54, 95
2, 339360, Note_on_c, 0, 50, 95
2, 339360, Note_on_c, 0, 45, 95
2, 339360, Note_on_c, 0, 38, 95
2, 339840, Note_off_c, 0, 62, 95
2, 339840, Note_off_c, 0, 57, 95
2, 339840, Note_off_c, 0, 54, 95
2, 339840, Note_off_c, 0, 50, 95
2, 339840, Note_off_c, 0, 45, 95
2, 339840, Note_off_c, 0, 38, 95
2, 339840, Note_on_c, 0, 62, 95
2, 339840, Note_on_c, 0, 57, 95
2, 339840, Note_on_c, 0, 54, 95
2, 339840, Note_on_c, 0, 50, 95
2, 339840, Note_on_c, 0, 45, 95
2, 339840, Note_on_c, 0, 38, 95
2, 340320, Note_off_c, 0, 62, 95
2, 340320, Note_off_c, 0, 57, 95
2, 340320, Note_off_c, 0, 54, 95
2, 340320, Note_off_c, 0, 50, 95
2, 340320, Note_off_c, 0, 45, 95
2, 340320, Note_off_c, 0, 38, 95
2, 340320, Note_on_c, 0, 62, 95
2, 340320, Note_on_c, 0, 57, 95
2, 340320, Note_on_c, 0, 54, 95
2, 340320, Note_on_c, 0, 50, 95
2, 340320, Note_on_c, 0, 45, 95
2, 340320, Note_on_c, 0, 38, 95
2, 340800, Note_off_c, 0, 62, 95
2, 340800, Note_off_c, 0, 57, 95
2, 340800, Note_off_c, 0, 54, 95
2, 340800, Note_off_c, 0, 50, 95
2, 340800, Note_off_c, 0, 45, 95
2, 340800, Note_off_c, 0, 38, 95
2, 340800, Note_on_c, 0, 62, 95
2, 340800, Note_on_c, 0, 57, 95
2, 340800, Note_on_c, 0, 54, 95
2, 340800, Note_on_c, 0, 50, 95
2, 340800, Note_on_c, 0, 45, 95
2, 340800, Note_on_c, 0, 38, 95
2, 341280, Note_off_c, 0, 62, 95
2, 341280, Note_off_c, 0, 57, 95
2, 341280, Note_off_c, 0, 54, 95
2, 341280, Note_off_c, 0, 50, 95
2, 341280, Note_off_c, 0, 45, 95
2, 341280, Note_off_c, 0, 38, 95
2, 341280, Note_on_c, 0, 62, 95
2, 341280, Note_on_c, 0, 57, 95
2, 341280, Note_on_c, 0, 54, 95
2, 341280, Note_on_c, 0, 50, 95
2, 341280, Note_on_c, 0, 45, 95
2, 341280, Note_on_c, 0, 38, 95
2, 341760, Note_off_c, 0, 62, 95
2, 341760, Note_off_c, 0, 57, 95
2, 341760, Note_off_c, 0, 54, 95
2, 341760, Note_off_c, 0, 50, 95
2, 341760, Note_off_c, 0, 45, 95
2, 341760, Note_off_c, 0, 38, 95
2, 341760, Note_on_c, 0, 62, 95
2, 341760, Note_on_c, 0, 57, 95
2, 341760, Note_on_c, 0, 54, 95
2, 341760, Note_on_c, 0, 50, 95
2, 341760, Note_on_c, 0, 45, 95
2, 341760, Note_on_c, 0, 38, 95
2, 342240, Note_off_c, 0, 62, 95
2, 342240, Note_off_c, 0, 57, 95
2, 342240, Note_off_c, 0, 54, 95
2, 342240, Note_off_c, 0, 50, 95
2, 342240, Note_off_c, 0, 45, 95
2, 342240, Note_off_c, 0, 38, 95
2, 342240, Note_on_c, 0, 62, 95
2, 342240, Note_on_c, 0, 57, 95
2, 342240, Note_on_c, 0, 54, 95
2, 342240, Note_on_c, 0, 50, 95
2, 342240, Note_on_c, 0, 45, 95
2, 342240, Note_on_c, 0, 38, 95
2, 342720, Note_off_c, 0, 62, 95
2, 342720, Note_off_c, 0, 57, 95
2, 342720, Note_off_c, 0, 54, 95
2, 342720, Note_off_c, 0, 50, 95
2, 342720, Note_off_c, 0, 45, 95
2, 342720, Note_off_c, 0, 38, 95
2, 342720, Note_on_c, 0, 62, 95
2, 342720, Note_on_c, 0, 57, 95
2, 342720, Note_on_c, 0, 54, 95
2, 342720, Note_on_c, 0, 50, 95
2, 342720, Note_on_c, 0, 45, 95
2, 342720, Note_on_c, 0, 38, 95
2, 343200, Note_off_c, 0, 62, 95
2, 343200, Note_off_c, 0, 57, 95
2, 343200, Note_off_c, 0, 54, 95
2, 343200, Note_off_c, 0, 50, 95
2, 343200, Note_off_c, 0, 45, 95
2, 343200, Note_off_c, 0, 38, 95
2, 343200, Note_on_c, 0, 62, 95
2, 343200, Note_on_c, 0, 57, 95
2, 343200, Note_on_c, 0, 54, 95
2, 343200, Note_on_c, 0, 50, 95
2, 343200, Note_on_c, 0, 45, 95
2, 343200, Note_on_c, 0, 38, 95
2, 343680, Note_off_c, 0, 62, 95
2, 343680, Note_off_c, 0, 57, 95
2, 343680, Note_off_c, 0, 54, 95
2, 343680, Note_off_c, 0, 50, 95
2, 343680, Note_off_c, 0, 45, 95
2, 343680, Note_off_c, 0, 38, 95
2, 343680, Note_on_c, 0, 62, 95
2, 343680, Note_on_c, 0, 57, 95
2, 343680, Note_on_c, 0, 54, 95
2, 343680, Note_on_c, 0, 50, 95
2, 343680, Note_on_c, 0, 45, 95
2, 343680, Note_on_c, 0, 38, 95
2, 344160, Note_off_c, 0, 62, 95
2, 344160, Note_off_c, 0, 57, 95
2, 344160, Note_off_c, 0, 54, 95
2, 344160, Note_off_c, 0, 50, 95
2, 344160, Note_off_c, 0, 45, 95
2, 344160, Note_off_c, 0, 38, 95
2, 344160, Note_on_c, 0, 62, 95
2, 344160, Note_on_c, 0, 57, 95
2, 344160, Note_on_c, 0, 54, 95
2, 344160, Note_on_c, 0, 50, 95
2, 344160, Note_on_c, 0, 45, 95
2, 344160, Note_on_c, 0, 38, 95
2, 344640, Note_off_c, 0, 62, 95
2, 344640, Note_off_c, 0, 57, 95
2, 344640, Note_off_c, 0, 54, 95
2, 344640, Note_off_c, 0, 50, 95
2, 344640, Note_off_c, 0, 45, 95
2, 344640, Note_off_c, 0, 38, 95
2, 344640, Note_on_c, 0, 62, 95
2, 344640, Note_on_c, 0, 57, 95
2, 344640, Note_on_c, 0, 54, 95
2, 344640, Note_on_c, 0, 50, 95
2, 344640, Note_on_c, 0, 45, 95
2, 344640, Note_on_c, 0, 38, 95
2, 345120, Note_off_c, 0, 62, 95
2, 345120, Note_off_c, 0, 57, 95
2, 345120, Note_off_c, 0, 54, 95
2, 345120, Note_off_c, 0, 50, 95
2, 345120, Note_off_c, 0, 45, 95
2, 345120, Note_off_c, 0, 38, 95
2, 345120, Note_on_c, 0, 62, 95
2, 345120, Note_on_c, 0, 57, 95
2, 345120, Note_on_c, 0, 54, 95
2, 345120, Note_on_c, 0, 50, 95
2, 345120, Note_on_c, 0, 45, 95
2, 345120, Note_on_c, 0, 38, 95
2, 345600, Note_off_c, 0, 62, 95
2, 345600, Note_off_c, 0, 57, 95
2, 345600, Note_off_c, 0, 54, 95
2, 345600, Note_off_c, 0, 50, 95
2, 345600, Note_off_c, 0, 45, 95
2, 345600, Note_off_c, 0, 38, 95
2, 345600, Note_on_c, 0, 62, 95
2, 345600, Note_on_c, 0, 57, 95
2, 345600, Note_on_c, 0, 54, 95
2, 345600, Note_on_c, 0, 50, 95
2, 345600, Note_on_c, 0, 45, 95
2, 345600, Note_on_c, 0, 38, 95
2, 346080, Note_off_c, 0, 62, 95
2, 346080, Note_off_c, 0, 57, 95
2, 346080, Note_off_c, 0, 54, 95
2, 346080, Note_off_c, 0, 50, 95
2, 346080, Note_off_c, 0, 45, 95
2, 346080, Note_off_c, 0, 38, 95
2, 346080, Note_on_c, 0, 62, 95
2, 346080, Note_on_c, 0, 57, 95
2, 346080, Note_on_c, 0, 54, 95
2, 346080, Note_on_c, 0, 50, 95
2, 346080, Note_on_c, 0, 45, 95
2, 346080, Note_on_c, 0, 38, 95
2, 346560, Note_off_c, 0, 62, 95
2, 346560, Note_off_c, 0, 57, 95
2, 346560, Note_off_c, 0, 54, 95
2, 346560, Note_off_c, 0, 50, 95
2, 346560, Note_off_c, 0, 45, 95
2, 346560, Note_off_c, 0, 38, 95
2, 346560, Note_on_c, 0, 62, 95
2, 346560, Note_on_c, 0, 57, 95
2, 346560, Note_on_c, 0, 54, 95
2, 346560, Note_on_c, 0, 50, 95
2, 346560, Note_on_c, 0, 45, 95
2, 346560, Note_on_c, 0, 38, 95
2, 347040, Note_off_c, 0, 62, 95
2, 347040, Note_off_c, 0, 57, 95
2, 347040, Note_off_c, 0, 54, 95
2, 347040, Note_off_c, 0, 50, 95
2, 347040, Note_off_c, 0, 45, 95
2, 347040, Note_off_c, 0, 38, 95
2, 347040, Note_on_c, 0, 62, 95
2, 347040, Note_on_c, 0, 57, 95
2, 347040, Note_on_c, 0, 54, 95
2, 347040, Note_on_c, 0, 50, 95
2, 347040, Note_on_c, 0, 45, 95
2, 347040, Note_on_c, 0, 38, 95
2, 347520, Note_off_c, 0, 62, 95
2, 347520, Note_off_c, 0, 57, 95
2, 347520, Note_off_c, 0, 54, 95
2, 347520, Note_off_c, 0, 50, 95
2, 347520, Note_off_c, 0, 45, 95
2, 347520, Note_off_c, 0, 38, 95
2, 347520, Note_on_c, 0, 62, 95
2, 347520, Note_on_c, 0, 57, 95
2, 347520, Note_on_c, 0, 54, 95
2, 347520, Note_on_c, 0, 50, 95
2, 347520, Note_on_c, 0, 45, 95
2, 347520, Note_on_c, 0, 38, 95
2, 348000, Note_off_c, 0, 62, 95
2, 348000, Note_off_c, 0, 57, 95
2, 348000, Note_off_c, 0, 54, 95
2, 348000, Note_off_c, 0, 50, 95
2, 348000, Note_off_c, 0, 45, 95
2, 348000, Note_off_c, 0, 38, 95
2, 348000, Note_on_c, 0, 62, 95
2, 348000, Note_on_c, 0, 57, 95
2, 348000, Note_on_c, 0, 54, 95
2, 348000, Note_on_c, 0, 50, 95
2, 348000, Note_on_c, 0, 45, 95
2, 348000, Note_on_c, 0, 38, 95
2, 348480, Note_off_c, 0, 62, 95
2, 348480, Note_off_c, 0, 57, 95
2, 348480, Note_off_c, 0, 54, 95
2, 348480, Note_off_c, 0, 50, 95
2, 348480, Note_off_c, 0, 45, 95
2, 348480, Note_off_c, 0, 38, 95
2, 348480, Note_on_c, 0, 62, 95
2, 348480, Note_on_c, 0, 57, 95
2, 348480, Note_on_c, 0, 54, 95
2, 348480, Note_on_c, 0, 50, 95
2, 348480, Note_on_c, 0, 45, 95
2, 348480, Note_on_c, 0, 38, 95
2, 348960, Note_off_c, 0, 62, 95
2, 348960, Note_off_c, 0, 57, 95
2, 348960, Note_off_c, 0, 54, 95
2, 348960, Note_off_c, 0, 50, 95
2, 348960, Note_off_c, 0, 45, 95
2, 348960, Note_off_c, 0, 38, 95
2, 348960, Note_on_c, 0, 62, 95
2, 348960, Note_on_c, 0, 57, 95
2, 348960, Note_on_c, 0, 54, 95
2, 348960, Note_on_c, 0, 50, 95
2, 348960, Note_on_c, 0, 45, 95
2, 348960, Note_on_c, 0, 38, 95
2, 349440, Note_off_c, 0, 62, 95
2, 349440, Note_off_c, 0, 57, 95
2, 349440, Note_off_c, 0, 54, 95
2, 349440, Note_off_c, 0, 50, 95
2, 349440, Note_off_c, 0, 45, 95
2, 349440, Note_off_c, 0, 38, 95
2, 349440, Note_on_c, 0, 62, 95
2, 349440, Note_on_c, 0, 57, 95
2, 349440, Note_on_c, 0, 54, 95
2, 349440, Note_on_c, 0, 50, 95
2, 349440, Note_on_c, 0, 45, 95
2, 349440, Note_on_c, 0, 38, 95
2, 350400, Note_off_c, 0, 62, 95
2, 350400, Note_off_c, 0, 57, 95
2, 350400, Note_off_c, 0, 54, 95
2, 350400, Note_off_c, 0, 50, 95
2, 350400, Note_off_c, 0, 45, 95
2, 350400, Note_off_c, 0, 38, 95
2, 350400, Note_on_c, 0, 62, 95
2, 350400, Note_on_c, 0, 57, 95
2, 350400, Note_on_c, 0, 54, 95
2, 350400, Note_on_c, 0, 50, 95
2, 350400, Note_on_c, 0, 45, 95
2, 350400, Note_on_c, 0, 38, 95
2, 350880, Note_off_c, 0, 62, 95
2, 350880, Note_off_c, 0, 57, 95
2, 350880, Note_off_c, 0, 54, 95
2, 350880, Note_off_c, 0, 50, 95
2, 350880, Note_off_c, 0, 45, 95
2, 350880, Note_off_c, 0, 38, 95
2, 350880, Note_on_c, 0, 62, 95
2, 350880, Note_on_c, 0, 57, 95
2, 350880, Note_on_c, 0, 54, 95
2, 350880, Note_on_c, 0, 50, 95
2, 350880, Note_on_c, 0, 45, 95
2, 350880, Note_on_c, 0, 38, 95
2, 351360, Note_off_c, 0, 62, 95
2, 351360, Note_off_c, 0, 57, 95
2, 351360, Note_off_c, 0, 54, 95
2, 351360, Note_off_c, 0, 50, 95
2, 351360, Note_off_c, 0, 45, 95
2, 351360, Note_off_c, 0, 38, 95
2, 351360, Note_on_c, 0, 62, 95
2, 351360, Note_on_c, 0, 57, 95
2, 351360, Note_on_c, 0, 54, 95
2, 351360, Note_on_c, 0, 50, 95
2, 351360, Note_on_c, 0, 45, 95
2, 351360, Note_on_c, 0, 38, 95
2, 351840, Note_off_c, 0, 62, 95
2, 351840, Note_off_c, 0, 57, 95
2, 351840, Note_off_c, 0, 54, 95
2, 351840, Note_off_c, 0, 50, 95
2, 351840, Note_off_c, 0, 45, 95
2, 351840, Note_off_c, 0, 38, 95
2, 351840, Note_on_c, 0, 62, 95
2, 351840, Note_on_c, 0, 57, 95
2, 351840, Note_on_c, 0, 54, 95
2, 351840, Note_on_c, 0, 50, 95
2, 351840, Note_on_c, 0, 45, 95
2, 351840, Note_on_c, 0, 38, 95
2, 352320, Note_off_c, 0, 62, 95
2, 352320, Note_off_c, 0, 57, 95
2, 352320, Note_off_c, 0, 54, 95
2, 352320, Note_off_c, 0, 50, 95
2, 352320, Note_off_c, 0, 45, 95
2, 352320, Note_off_c, 0, 38, 95
2, 352320, Note_on_c, 0, 62, 95
2, 352320, Note_on_c, 0, 57, 95
2, 352320, Note_on_c, 0, 54, 95
2, 352320, Note_on_c, 0, 50, 95
2, 352320, Note_on_c, 0, 45, 95
2, 352320, Note_on_c, 0, 38, 95
2, 352800, Note_off_c, 0, 62, 95
2, 352800, Note_off_c, 0, 57, 95
2, 352800, Note_off_c, 0, 54, 95
2, 352800, Note_off_c, 0, 50, 95
2, 352800, Note_off_c, 0, 45, 95
2, 352800, Note_off_c, 0, 38, 95
2, 352800, Note_on_c, 0, 62, 95
2, 352800, Note_on_c, 0, 57, 95
2, 352800, Note_on_c, 0, 54, 95
2, 352800, Note_on_c, 0, 50, 95
2, 352800, Note_on_c, 0, 45, 95
2, 352800, Note_on_c, 0, 38, 95
2, 353280, Note_off_c, 0, 62, 95
2, 353280, Note_off_c, 0, 57, 95
2, 353280, Note_off_c, 0, 54, 95
2, 353280, Note_off_c, 0, 50, 95
2, 353280, Note_off_c, 0, 45, 95
2, 353280, Note_off_c, 0, 38, 95
2, 353280, Note_on_c, 0, 62, 95
2, 353280, Note_on_c, 0, 57, 95
2, 353280, Note_on_c, 0, 54, 95
2, 353280, Note_on_c, 0, 50, 95
2, 353280, Note_on_c, 0, 45, 95
2, 353280, Note_on_c, 0, 38, 95
2, 353760, Note_off_c, 0, 62, 95
2, 353760, Note_off_c, 0, 57, 95
2, 353760, Note_off_c, 0, 54, 95
2, 353760, Note_off_c, 0, 50, 95
2, 353760, Note_off_c, 0, 45, 95
2, 353760, Note_off_c, 0, 38, 95
2, 353760, Note_on_c, 0, 62, 95
2, 353760, Note_on_c, 0, 57, 95
2, 353760, Note_on_c, 0, 54, 95
2, 353760, Note_on_c, 0, 50, 95
2, 353760, Note_on_c, 0, 45, 95
2, 353760, Note_on_c, 0, 38, 95
2, 354240, Note_off_c, 0, 62, 95
2, 354240, Note_off_c, 0, 57, 95
2, 354240, Note_off_c, 0, 54, 95
2, 354240, Note_off_c, 0, 50, 95
2, 354240, Note_off_c, 0, 45, 95
2, 354240, Note_off_c, 0, 38, 95
2, 354240, Note_on_c, 0, 62, 95
2, 354240, Note_on_c, 0, 57, 95
2, 354240, Note_on_c, 0, 54, 95
2, 354240, Note_on_c, 0, 50, 95
2, 354240, Note_on_c, 0, 45, 95
2, 354240, Note_on_c, 0, 38, 95
2, 354720, Note_off_c, 0, 62, 95
2, 354720, Note_off_c, 0, 57, 95
2, 354720, Note_off_c, 0, 54, 95
2, 354720, Note_off_c, 0, 50, 95
2, 354720, Note_off_c, 0, 45, 95
2, 354720, Note_off_c, 0, 38, 95
2, 354720, Note_on_c, 0, 62, 95
2, 354720, Note_on_c, 0, 57, 95
2, 354720, Note_on_c, 0, 54, 95
2, 354720, Note_on_c, 0, 50, 95
2, 354720, Note_on_c, 0, 45, 95
2, 354720, Note_on_c, 0, 38, 95
2, 355200, Note_off_c, 0, 62, 95
2, 355200, Note_off_c, 0, 57, 95
2, 355200, Note_off_c, 0, 54, 95
2, 355200, Note_off_c, 0, 50, 95
2, 355200, Note_off_c, 0, 45, 95
2, 355200, Note_off_c, 0, 38, 95
2, 355200, Note_on_c, 0, 62, 95
2, 355200, Note_on_c, 0, 57, 95
2, 355200, Note_on_c, 0, 54, 95
2, 355200, Note_on_c, 0, 50, 95
2, 355200, Note_on_c, 0, 45, 95
2, 355200, Note_on_c, 0, 38, 95
2, 355680, Note_off_c, 0, 62, 95
2, 355680, Note_off_c, 0, 57, 95
2, 355680, Note_off_c, 0, 54, 95
2, 355680, Note_off_c, 0, 50, 95
2, 355680, Note_off_c, 0, 45, 95
2, 355680, Note_off_c, 0, 38, 95
2, 355680, Note_on_c, 0, 62, 95
2, 355680, Note_on_c, 0, 57, 95
2, 355680, Note_on_c, 0, 54, 95
2, 355680, Note_on_c, 0, 50, 95
2, 355680, Note_on_c, 0, 45, 95
2, 355680, Note_on_c, 0, 38, 95
2, 356160, Note_off_c, 0, 62, 95
2, 356160, Note_off_c, 0, 57, 95
2, 356160, Note_off_c, 0, 54, 95
2, 356160, Note_off_c, 0, 50, 95
2, 356160, Note_off_c, 0, 45, 95
2, 356160, Note_off_c, 0, 38, 95
2, 356160, Note_on_c, 0, 62, 95
2, 356160, Note_on_c, 0, 57, 95
2, 356160, Note_on_c, 0, 54, 95
2, 356160, Note_on_c, 0, 50, 95
2, 356160, Note_on_c, 0, 45, 95
2, 356160, Note_on_c, 0, 38, 95
2, 356640, Note_off_c, 0, 62, 95
2, 356640, Note_off_c, 0, 57, 95
2, 356640, Note_off_c, 0, 54, 95
2, 356640, Note_off_c, 0, 50, 95
2, 356640, Note_off_c, 0, 45, 95
2, 356640, Note_off_c, 0, 38, 95
2, 356640, Note_on_c, 0, 62, 95
2, 356640, Note_on_c, 0, 57, 95
2, 356640, Note_on_c, 0, 54, 95
2, 356640, Note_on_c, 0, 50, 95
2, 356640, Note_on_c, 0, 45, 95
2, 356640, Note_on_c, 0, 38, 95
2, 357120, Note_off_c, 0, 62, 95
2, 357120, Note_off_c, 0, 57, 95
2, 357120, Note_off_c, 0, 54, 95
2, 357120, Note_off_c, 0, 50, 95
2, 357120, Note_off_c, 0, 45, 95
2, 357120, Note_off_c, 0, 38, 95
2, 357120, Note_on_c, 0, 62, 95
2, 357120, Note_on_c, 0, 57, 95
2, 357120, Note_on_c, 0, 54, 95
2, 357120, Note_on_c, 0, 50, 95
2, 357120, Note_on_c, 0, 45, 95
2, 357120, Note_on_c, 0, 38, 95
2, 357600, Note_off_c, 0, 62, 95
2, 357600, Note_off_c, 0, 57, 95
2, 357600, Note_off_c, 0, 54, 95
2, 357600, Note_off_c, 0, 50, 95
2, 357600, Note_off_c, 0, 45, 95
2, 357600, Note_off_c, 0, 38, 95
2, 357600, Note_on_c, 0, 62, 95
2, 357600, Note_on_c, 0, 57, 95
2, 357600, Note_on_c, 0, 54, 95
2, 357600, Note_on_c, 0, 50, 95
2, 357600, Note_on_c, 0, 45, 95
2, 357600, Note_on_c, 0, 38, 95
2, 358080, Note_off_c, 0, 62, 95
2, 358080, Note_off_c, 0, 57, 95
2, 358080, Note_off_c, 0, 54, 95
2, 358080, Note_off_c, 0, 50, 95
2, 358080, Note_off_c, 0, 45, 95
2, 358080, Note_off_c, 0, 38, 95
2, 358080, Note_on_c, 0, 62, 95
2, 358080, Note_on_c, 0, 57, 95
2, 358080, Note_on_c, 0, 54, 95
2, 358080, Note_on_c, 0, 50, 95
2, 358080, Note_on_c, 0, 45, 95
2, 358080, Note_on_c, 0, 38, 95
2, 358560, Note_off_c, 0, 62, 95
2, 358560, Note_off_c, 0, 57, 95
2, 358560, Note_off_c, 0, 54, 95
2, 358560, Note_off_c, 0, 50, 95
2, 358560, Note_off_c, 0, 45, 95
2, 358560, Note_off_c, 0, 38, 95
2, 358560, Note_on_c, 0, 62, 95
2, 358560, Note_on_c, 0, 57, 95
2, 358560, Note_on_c, 0, 54, 95
2, 358560, Note_on_c, 0, 50, 95
2, 358560, Note_on_c, 0, 45, 95
2, 358560, Note_on_c, 0, 38, 95
2, 359040, Note_off_c, 0, 62, 95
2, 359040, Note_off_c, 0, 57, 95
2, 359040, Note_off_c, 0, 54, 95
2, 359040, Note_off_c, 0, 50, 95
2, 359040, Note_off_c, 0, 45, 95
2, 359040, Note_off_c, 0, 38, 95
2, 359040, Note_on_c, 0, 62, 95
2, 359040, Note_on_c, 0, 57, 95
2, 359040, Note_on_c, 0, 54, 95
2, 359040, Note_on_c, 0, 50, 95
2, 359040, Note_on_c, 0, 45, 95
2, 359040, Note_on_c, 0, 38, 95
2, 359520, Note_off_c, 0, 62, 95
2, 359520, Note_off_c, 0, 57, 95
2, 359520, Note_off_c, 0, 54, 95
2, 359520, Note_off_c, 0, 50, 95
2, 359520, Note_off_c, 0, 45, 95
2, 359520, Note_off_c, 0, 38, 95
2, 359520, Note_on_c, 0, 62, 95
2, 359520, Note_on_c, 0, 57, 95
2, 359520, Note_on_c, 0, 54, 95
2, 359520, Note_on_c, 0, 50, 95
2, 359520, Note_on_c, 0, 45, 95
2, 359520, Note_on_c, 0, 38, 95
2, 360000, Note_off_c, 0, 62, 95
2, 360000, Note_off_c, 0, 57, 95
2, 360000, Note_off_c, 0, 54, 95
2, 360000, Note_off_c, 0, 50, 95
2, 360000, Note_off_c, 0, 45, 95
2, 360000, Note_off_c, 0, 38, 95
2, 360000, Note_on_c, 0, 62, 95
2, 360000, Note_on_c, 0, 57, 95
2, 360000, Note_on_c, 0, 54, 95
2, 360000, Note_on_c, 0, 50, 95
2, 360000, Note_on_c, 0, 45, 95
2, 360000, Note_on_c, 0, 38, 95
2, 360480, Note_off_c, 0, 62, 95
2, 360480, Note_off_c, 0, 57, 95
2, 360480, Note_off_c, 0, 54, 95
2, 360480, Note_off_c, 0, 50, 95
2, 360480, Note_off_c, 0, 45, 95
2, 360480, Note_off_c, 0, 38, 95
2, 360480, Note_on_c, 0, 62, 95
2, 360480, Note_on_c, 0, 57, 95
2, 360480, Note_on_c, 0, 54, 95
2, 360480, Note_on_c, 0, 50, 95
2, 360480, Note_on_c, 0, 45, 95
2, 360480, Note_on_c, 0, 38, 95
2, 360960, Note_off_c, 0, 62, 95
2, 360960, Note_off_c, 0, 57, 95
2, 360960, Note_off_c, 0, 54, 95
2, 360960, Note_off_c, 0, 50, 95
2, 360960, Note_off_c, 0, 45, 95
2, 360960, Note_off_c, 0, 38, 95
2, 360960, Note_on_c, 0, 62, 95
2, 360960, Note_on_c, 0, 57, 95
2, 360960, Note_on_c, 0, 54, 95
2, 360960, Note_on_c, 0, 50, 95
2, 360960, Note_on_c, 0, 45, 95
2, 360960, Note_on_c, 0, 38, 95
2, 361440, Note_off_c, 0, 62, 95
2, 361440, Note_off_c, 0, 57, 95
2, 361440, Note_off_c, 0, 54, 95
2, 361440, Note_off_c, 0, 50, 95
2, 361440, Note_off_c, 0, 45, 95
2, 361440, Note_off_c, 0, 38, 95
2, 361440, Note_on_c, 0, 62, 95
2, 361440, Note_on_c, 0, 57, 95
2, 361440, Note_on_c, 0, 54, 95
2, 361440, Note_on_c, 0, 50, 95
2, 361440, Note_on_c, 0, 45, 95
2, 361440, Note_on_c, 0, 38, 95
2, 361920, Note_off_c, 0, 62, 95
2, 361920, Note_off_c, 0, 57, 95
2, 361920, Note_off_c, 0, 54, 95
2, 361920, Note_off_c, 0, 50, 95
2, 361920, Note_off_c, 0, 45, 95
2, 361920, Note_off_c, 0, 38, 95
2, 361920, Note_on_c, 0, 62, 95
2, 361920, Note_on_c, 0, 57, 95
2, 361920, Note_on_c, 0, 54, 95
2, 361920, Note_on_c, 0, 50, 95
2, 361920, Note_on_c, 0, 45, 95
2, 361920, Note_on_c, 0, 38, 95
2, 362400, Note_off_c, 0, 62, 95
2, 362400, Note_off_c, 0, 57, 95
2, 362400, Note_off_c, 0, 54, 95
2, 362400, Note_off_c, 0, 50, 95
2, 362400, Note_off_c, 0, 45, 95
2, 362400, Note_off_c, 0, 38, 95
2, 362400, Note_on_c, 0, 62, 95
2, 362400, Note_on_c, 0, 57, 95
2, 362400, Note_on_c, 0, 54, 95
2, 362400, Note_on_c, 0, 50, 95
2, 362400, Note_on_c, 0, 45, 95
2, 362400, Note_on_c, 0, 38, 95
2, 362880, Note_off_c, 0, 62, 95
2, 362880, Note_off_c, 0, 57, 95
2, 362880, Note_off_c, 0, 54, 95
2, 362880, Note_off_c, 0, 50, 95
2, 362880, Note_off_c, 0, 45, 95
2, 362880, Note_off_c, 0, 38, 95
2, 362880, Note_on_c, 0, 62, 95
2, 362880, Note_on_c, 0, 57, 95
2, 362880, Note_on_c, 0, 54, 95
2, 362880, Note_on_c, 0, 50, 95
2, 362880, Note_on_c, 0, 45, 95
2, 362880, Note_on_c, 0, 38, 95
2, 363360, Note_off_c, 0, 62, 95
2, 363360, Note_off_c, 0, 57, 95
2, 363360, Note_off_c, 0, 54, 95
2, 363360, Note_off_c, 0, 50, 95
2, 363360, Note_off_c, 0, 45, 95
2, 363360, Note_off_c, 0, 38, 95
2, 363360, Note_on_c, 0, 62, 95
2, 363360, Note_on_c, 0, 57, 95
2, 363360, Note_on_c, 0, 54, 95
2, 363360, Note_on_c, 0, 50, 95
2, 363360, Note_on_c, 0, 45, 95
2, 363360, Note_on_c, 0, 38, 95
2, 363840, Note_off_c, 0, 62, 95
2, 363840, Note_off_c, 0, 57, 95
2, 363840, Note_off_c, 0, 54, 95
2, 363840, Note_off_c, 0, 50, 95
2, 363840, Note_off_c, 0, 45, 95
2, 363840, Note_off_c, 0, 38, 95
2, 363840, Note_on_c, 0, 62, 95
2, 363840, Note_on_c, 0, 57, 95
2, 363840, Note_on_c, 0, 54, 95
2, 363840, Note_on_c, 0, 50, 95
2, 363840, Note_on_c, 0, 45, 95
2, 363840, Note_on_c, 0, 38, 95
2, 364320, Note_off_c, 0, 62, 95
2, 364320, Note_off_c, 0, 57, 95
2, 364320, Note_off_c, 0, 54, 95
2, 364320, Note_off_c, 0, 50, 95
2, 364320, Note_off_c, 0, 45, 95
2, 364320, Note_off_c, 0, 38, 95
2, 364320, Note_on_c, 0, 62, 95
2, 364320, Note_on_c, 0, 57, 95
2, 364320, Note_on_c, 0, 54, 95
2, 364320, Note_on_c, 0, 50, 95
2, 364320, Note_on_c, 0, 45, 95
2, 364320, Note_on_c, 0, 38, 95
2, 364800, Note_off_c, 0, 62, 95
2, 364800, Note_off_c, 0, 57, 95
2, 364800, Note_off_c, 0, 54, 95
2, 364800, Note_off_c, 0, 50, 95
2, 364800, Note_off_c, 0, 45, 95
2, 364800, Note_off_c, 0, 38, 95
2, 364800, End_track
3, 0, Start_track
3, 0, Pitch_bend_c, 2, 8192
3, 0, Control_c, 2, 7, 63
3, 0, Control_c, 2, 10, 23
3, 0, Control_c, 2, 93, 15
3, 0, Control_c, 2, 91, 39
3, 0, Control_c, 2, 95, 0
3, 0, Control_c, 2, 92, 0
3, 0, Control_c, 2, 11, 127
3, 0, Program_c, 2, 25
3, 0, Control_c, 3, 7, 63
3, 0, Control_c, 3, 10, 23
3, 0, Control_c, 3, 93, 15
3, 0, Control_c, 3, 91, 39
3, 0, Control_c, 3, 95, 0
3, 0, Control_c, 3, 92, 0
3, 0, Control_c, 3, 11, 127
3, 0, Program_c, 3, 25
3, 22560, Note_on_c, 2, 72, 95
3, 22560, Note_on_c, 2, 69, 95
3, 22560, Note_on_c, 2, 65, 95
3, 22560, Note_on_c, 2, 60, 95
3, 22560, Note_on_c, 2, 53, 95
3, 22560, Note_on_c, 2, 48, 95
3, 23040, Note_off_c, 2, 72, 95
3, 23040, Note_off_c, 2, 69, 95
3, 23040, Note_off_c, 2, 65, 95
3, 23040, Note_off_c, 2, 60, 95
3, 23040, Note_off_c, 2, 53, 95
3, 23040, Note_off_c, 2, 48, 95
3, 23040, Note_on_c, 2, 72, 95
3, 23040, Note_on_c, 2, 69, 95
3, 23040, Note_on_c, 2, 65, 95
3, 23040, Note_on_c, 2, 60, 95
3, 23040, Note_on_c, 2, 53, 95
3, 23040, Note_on_c, 2, 48, 95
3, 24480, Note_off_c, 2, 72, 95
3, 24480, Note_off_c, 2, 69, 95
3, 24480, Note_off_c, 2, 65, 95
3, 24480, Note_off_c, 2, 60, 95
3, 24480, Note_off_c, 2, 53, 95
3, 24480, Note_off_c, 2, 48, 95
3, 24480, Note_on_c, 2, 72, 95
3, 24480, Note_on_c, 2, 69, 95
3, 24480, Note_on_c, 2, 65, 95
3, 24480, Note_on_c, 2, 60, 95
3, 24480, Note_on_c, 2, 53, 95
3, 24480, Note_on_c, 2, 48, 95
3, 26400, Note_off_c, 2, 72, 95
3, 26400, Note_off_c, 2, 69, 95
3, 26400, Note_off_c, 2, 65, 95
3, 26400, Note_off_c, 2, 60, 95
3, 26400, Note_off_c, 2, 53, 95
3, 26400, Note_off_c, 2, 48, 95
3, 26400, Note_on_c, 2, 72, 95
3, 26400, Note_on_c, 2, 67, 95
3, 26400, Note_on_c, 2, 64, 95
3, 26400, Note_on_c, 2, 60, 95
3, 26400, Note_on_c, 2, 55, 95
3, 26400, Note_on_c, 2, 48, 95
3, 26640, Note_off_c, 2, 72, 95
3, 26640, Note_off_c, 2, 67, 95
3, 26640, Note_off_c, 2, 64, 95
3, 26640, Note_off_c, 2, 60, 95
3, 26640, Note_off_c, 2, 55, 95
3, 26640, Note_off_c, 2, 48, 95
3, 26640, Note_on_c, 2, 72, 95
3, 26640, Note_on_c, 2, 67, 95
3, 26640, Note_on_c, 2, 64, 95
3, 26640, Note_on_c, 2, 60, 95
3, 26640, Note_on_c, 2, 55, 95
3, 26640, Note_on_c, 2, 48, 95
3, 26880, Note_off_c, 2, 72, 95
3, 26880, Note_off_c, 2, 67, 95
3, 26880, Note_off_c, 2, 64, 95
3, 26880, Note_off_c, 2, 60, 95
3, 26880, Note_off_c, 2, 55, 95
3, 26880, Note_off_c, 2, 48, 95
3, 26880, Note_on_c, 2, 72, 95
3, 26880, Note_on_c, 2, 67, 95
3, 26880, Note_on_c, 2, 64, 95
3, 26880, Note_on_c, 2, 60, 95
3, 26880, Note_on_c, 2, 55, 95
3, 26880, Note_on_c, 2, 48, 95
3, 28320, Note_off_c, 2, 72, 95
3, 28320, Note_off_c, 2, 67, 95
3, 28320, Note_off_c, 2, 64, 95
3, 28320, Note_off_c, 2, 60, 95
3, 28320, Note_off_c, 2, 55, 95
3, 28320, Note_off_c, 2, 48, 95
3, 28320, Note_on_c, 2, 72, 95
3, 28320, Note_on_c, 2, 67, 95
3, 28320, Note_on_c, 2, 64, 95
3, 28320, Note_on_c, 2, 60, 95
3, 28320, Note_on_c, 2, 55, 95
3, 28320, Note_on_c, 2, 48, 95
3, 29280, Note_off_c, 2, 72, 95
3, 29280, Note_off_c, 2, 67, 95
3, 29280, Note_off_c, 2, 64, 95
3, 29280, Note_off_c, 2, 60, 95
3, 29280, Note_off_c, 2, 55, 95
3, 29280, Note_off_c, 2, 48, 95
3, 29280, Note_on_c, 2, 72, 95
3, 29280, Note_on_c, 2, 67, 95
3, 29280, Note_on_c, 2, 64, 95
3, 29280, Note_on_c, 2, 60, 95
3, 29280, Note_on_c, 2, 55, 95
3, 29280, Note_on_c, 2, 48, 95
3, 30240, Note_off_c, 2, 72, 95
3, 30240, Note_off_c, 2, 67, 95
3, 30240, Note_off_c, 2, 64, 95
3, 30240, Note_off_c, 2, 60, 95
3, 30240, Note_off_c, 2, 55, 95
3, 30240, Note_off_c, 2, 48, 95
3, 30240, Note_on_c, 2, 72, 95
3, 30240, Note_on_c, 2, 67, 95
3, 30240, Note_on_c, 2, 64, 95
3, 30240, Note_on_c, 2, 60, 95
3, 30240, Note_on_c, 2, 55, 95
3, 30240, Note_on_c, 2, 48, 95
3, 30720, Note_off_c, 2, 67, 95
3, 30720, Note_off_c, 2, 64, 95
3, 30720, Note_off_c, 2, 60, 95
3, 30720, Note_off_c, 2, 55, 95
3, 30720, Note_off_c, 2, 48, 95
3, 30720, Note_on_c, 2, 69, 95
3, 30720, Note_on_c, 2, 65, 95
3, 30720, Note_on_c, 2, 60, 95
3, 30720, Note_on_c, 2, 53, 95
3, 31200, Note_off_c, 2, 69, 95
3, 31200, Note_off_c, 2, 65, 95
3, 31200, Note_off_c, 2, 60, 95
3, 31200, Note_off_c, 2, 53, 95
3, 31200, Note_on_c, 2, 69, 95
3, 31200, Note_on_c, 2, 65, 95
3, 31200, Note_on_c, 2, 60, 95
3, 31200, Note_on_c, 2, 53, 95
3, 31680, Note_off_c, 2, 69, 95
3, 31680, Note_off_c, 2, 65, 95
3, 31680, Note_off_c, 2, 60, 95
3, 31680, Note_off_c, 2, 53, 95
3, 31680, Note_on_c, 2, 64, 95
3, 31680, Note_on_c, 2, 60, 95
3, 31680, Note_on_c, 2, 55, 95
3, 31680, Note_on_c, 2, 48, 95
3, 32160, Note_off_c, 2, 64, 95
3, 32160, Note_off_c, 2, 60, 95
3, 32160, Note_off_c, 2, 55, 95
3, 32160, Note_off_c, 2, 48, 95
3, 32160, Note_on_c, 2, 69, 95
3, 32160, Note_on_c, 2, 65, 95
3, 32160, Note_on_c, 2, 60, 95
3, 32160, Note_on_c, 2, 53, 95
3, 32640, Note_off_c, 2, 65, 95
3, 33120, Note_off_c, 2, 69, 95
3, 33120, Note_off_c, 2, 60, 95
3, 33120, Note_off_c, 2, 53, 95
3, 33120, Note_on_c, 2, 69, 95
3, 33120, Note_on_c, 2, 65, 95
3, 33120, Note_on_c, 2, 60, 95
3, 33120, Note_on_c, 2, 53, 95
3, 33600, Note_off_c, 2, 69, 95
3, 33600, Note_off_c, 2, 65, 95
3, 33600, Note_off_c, 2, 60, 95
3, 33600, Note_off_c, 2, 53, 95
3, 33600, Note_on_c, 2, 64, 95
3, 33600, Note_on_c, 2, 60, 95
3, 33600, Note_on_c, 2, 55, 95
3, 33600, Note_on_c, 2, 48, 95
3, 34080, Note_off_c, 2, 64, 95
3, 34080, Note_off_c, 2, 60, 95
3, 34080, Note_off_c, 2, 55, 95
3, 34080, Note_off_c, 2, 48, 95
3, 34080, Note_on_c, 2, 69, 95
3, 34080, Note_on_c, 2, 65, 95
3, 34080, Note_on_c, 2, 60, 95
3, 34080, Note_on_c, 2, 53, 95
3, 34560, Note_off_c, 2, 65, 95
3, 35040, Note_off_c, 2, 72, 95
3, 35040, Note_off_c, 2, 69, 95
3, 35040, Note_off_c, 2, 60, 95
3, 35040, Note_off_c, 2, 53, 95
3, 35040, Note_on_c, 2, 69, 95
3, 35040, Note_on_c, 2, 65, 95
3, 35040, Note_on_c, 2, 60, 95
3, 35040, Note_on_c, 2, 53, 95
3, 35520, Note_off_c, 2, 69, 95
3, 35520, Note_off_c, 2, 65, 95
3, 35520, Note_off_c, 2, 60, 95
3, 35520, Note_off_c, 2, 53, 95
3, 35520, Note_on_c, 2, 64, 95
3, 35520, Note_on_c, 2, 60, 95
3, 35520, Note_on_c, 2, 55, 95
3, 35520, Note_on_c, 2, 48, 95
3, 36000, Note_off_c, 2, 64, 95
3, 36000, Note_off_c, 2, 60, 95
3, 36000, Note_off_c, 2, 55, 95
3, 36000, Note_off_c, 2, 48, 95
3, 36000, Note_on_c, 2, 69, 95
3, 36000, Note_on_c, 2, 65, 95
3, 36000, Note_on_c, 2, 60, 95
3, 36000, Note_on_c, 2, 53, 95
3, 36480, Note_off_c, 2, 65, 95
3, 36960, Note_off_c, 2, 69, 95
3, 36960, Note_off_c, 2, 60, 95
3, 36960, Note_off_c, 2, 53, 95
3, 36960, Note_on_c, 2, 69, 95
3, 36960, Note_on_c, 2, 65, 95
3, 36960, Note_on_c, 2, 60, 95
3, 36960, Note_on_c, 2, 53, 95
3, 37440, Note_off_c, 2, 69, 95
3, 37440, Note_off_c, 2, 65, 95
3, 37440, Note_off_c, 2, 60, 95
3, 37440, Note_off_c, 2, 53, 95
3, 37440, Note_on_c, 2, 64, 95
3, 37440, Note_on_c, 2, 60, 95
3, 37440, Note_on_c, 2, 55, 95
3, 37440, Note_on_c, 2, 48, 95
3, 37920, Note_off_c, 2, 64, 95
3, 37920, Note_off_c, 2, 60, 95
3, 37920, Note_off_c, 2, 55, 95
3, 37920, Note_off_c, 2, 48, 95
3, 37920, Note_on_c, 2, 69, 95
3, 37920, Note_on_c, 2, 65, 95
3, 37920, Note_on_c, 2, 60, 95
3, 37920, Note_on_c, 2, 53, 95
3, 38400, Note_off_c, 2, 69, 95
3, 38400, Note_off_c, 2, 65, 95
3, 38400, Note_off_c, 2, 60, 95
3, 38400, Note_off_c, 2, 53, 95
3, 38400, Note_on_c, 2, 69, 95
3, 38400, Note_on_c, 2, 65, 95
3, 38400, Note_on_c, 2, 60, 95
3, 38400, Note_on_c, 2, 53, 95
3, 38880, Note_off_c, 2, 69, 95
3, 38880, Note_off_c, 2, 65, 95
3, 38880, Note_off_c, 2, 60, 95
3, 38880, Note_off_c, 2, 53, 95
3, 38880, Note_on_c, 2, 69, 95
3, 38880, Note_on_c, 2, 65, 95
3, 38880, Note_on_c, 2, 60, 95
3, 38880, Note_on_c, 2, 53, 95
3, 39360, Note_off_c, 2, 69, 95
3, 39360, Note_off_c, 2, 65, 95
3, 39360, Note_off_c, 2, 60, 95
3, 39360, Note_off_c, 2, 53, 95
3, 39360, Note_on_c, 2, 64, 95
3, 39360, Note_on_c, 2, 60, 95
3, 39360, Note_on_c, 2, 55, 95
3, 39360, Note_on_c, 2, 48, 95
3, 39840, Note_off_c, 2, 64, 95
3, 39840, Note_off_c, 2, 60, 95
3, 39840, Note_off_c, 2, 55, 95
3, 39840, Note_off_c, 2, 48, 95
3, 39840, Note_on_c, 2, 69, 95
3, 39840, Note_on_c, 2, 65, 95
3, 39840, Note_on_c, 2, 60, 95
3, 39840, Note_on_c, 2, 53, 95
3, 40320, Note_off_c, 2, 69, 95
3, 40320, Note_off_c, 2, 65, 95
3, 40320, Note_off_c, 2, 60, 95
3, 40320, Note_off_c, 2, 53, 95
3, 40320, Note_on_c, 2, 69, 95
3, 40320, Note_on_c, 2, 65, 95
3, 40320, Note_on_c, 2, 60, 95
3, 40320, Note_on_c, 2, 53, 95
3, 40800, Note_off_c, 2, 69, 95
3, 40800, Note_off_c, 2, 65, 95
3, 40800, Note_off_c, 2, 60, 95
3, 40800, Note_off_c, 2, 53, 95
3, 40800, Note_on_c, 2, 69, 95
3, 40800, Note_on_c, 2, 65, 95
3, 40800, Note_on_c, 2, 60, 95
3, 40800, Note_on_c, 2, 53, 95
3, 41280, Note_off_c, 2, 69, 95
3, 41280, Note_off_c, 2, 65, 95
3, 41280, Note_off_c, 2, 60, 95
3, 41280, Note_off_c, 2, 53, 95
3, 41280, Note_on_c, 2, 64, 95
3, 41280, Note_on_c, 2, 60, 95
3, 41280, Note_on_c, 2, 55, 95
3, 41280, Note_on_c, 2, 48, 95
3, 41760, Note_off_c, 2, 64, 95
3, 41760, Note_off_c, 2, 60, 95
3, 41760, Note_off_c, 2, 55, 95
3, 41760, Note_off_c, 2, 48, 95
3, 41760, Note_on_c, 2, 69, 95
3, 41760, Note_on_c, 2, 65, 95
3, 41760, Note_on_c, 2, 60, 95
3, 41760, Note_on_c, 2, 53, 95
3, 41760, Note_on_c, 2, 48, 95
3, 42240, Note_off_c, 2, 69, 95
3, 42240, Note_off_c, 2, 65, 95
3, 42240, Note_off_c, 2, 60, 95
3, 42240, Note_off_c, 2, 53, 95
3, 42240, Note_off_c, 2, 48, 95
3, 42240, Note_on_c, 2, 69, 95
3, 42240, Note_on_c, 2, 65, 95
3, 42240, Note_on_c, 2, 60, 95
3, 42240, Note_on_c, 2, 53, 95
3, 42720, Note_off_c, 2, 69, 95
3, 42720, Note_off_c, 2, 65, 95
3, 42720, Note_off_c, 2, 60, 95
3, 42720, Note_off_c, 2, 53, 95
3, 42720, Note_on_c, 2, 69, 95
3, 42720, Note_on_c, 2, 65, 95
3, 42720, Note_on_c, 2, 60, 95
3, 42720, Note_on_c, 2, 53, 95
3, 43200, Note_off_c, 2, 69, 95
3, 43200, Note_off_c, 2, 65, 95
3, 43200, Note_off_c, 2, 60, 95
3, 43200, Note_off_c, 2, 53, 95
3, 43200, Note_on_c, 2, 69, 95
3, 43200, Note_on_c, 2, 65, 95
3, 43200, Note_on_c, 2, 60, 95
3, 43200, Note_on_c, 2, 53, 95
3, 43680, Note_off_c, 2, 69, 95
3, 43680, Note_off_c, 2, 65, 95
3, 43680, Note_off_c, 2, 60, 95
3, 43680, Note_off_c, 2, 53, 95
3, 43680, Note_on_c, 2, 69, 95
3, 43680, Note_on_c, 2, 65, 95
3, 43680, Note_on_c, 2, 60, 95
3, 43680, Note_on_c, 2, 53, 95
3, 44160, Note_off_c, 2, 69, 95
3, 44160, Note_off_c, 2, 65, 95
3, 44160, Note_off_c, 2, 60, 95
3, 44160, Note_off_c, 2, 53, 95
3, 44160, Note_on_c, 2, 64, 95
3, 44160, Note_on_c, 2, 60, 95
3, 44160, Note_on_c, 2, 55, 95
3, 44160, Note_on_c, 2, 48, 95
3, 44640, Note_off_c, 2, 64, 95
3, 44640, Note_off_c, 2, 60, 95
3, 44640, Note_off_c, 2, 55, 95
3, 44640, Note_off_c, 2, 48, 95
3, 44640, Note_on_c, 2, 64, 95
3, 44640, Note_on_c, 2, 60, 95
3, 44640, Note_on_c, 2, 55, 95
3, 44640, Note_on_c, 2, 48, 95
3, 45120, Note_off_c, 2, 64, 95
3, 45120, Note_off_c, 2, 60, 95
3, 45120, Note_off_c, 2, 55, 95
3, 45120, Note_off_c, 2, 48, 95
3, 45120, Note_on_c, 2, 64, 95
3, 45120, Note_on_c, 2, 60, 95
3, 45120, Note_on_c, 2, 55, 95
3, 45120, Note_on_c, 2, 48, 95
3, 45600, Note_off_c, 2, 64, 95
3, 45600, Note_off_c, 2, 60, 95
3, 45600, Note_off_c, 2, 55, 95
3, 45600, Note_off_c, 2, 48, 95
3, 45600, Note_on_c, 2, 64, 95
3, 45600, Note_on_c, 2, 60, 95
3, 45600, Note_on_c, 2, 53, 95
3, 45600, Note_on_c, 2, 48, 95
3, 46080, Note_off_c, 2, 64, 95
3, 46080, Note_off_c, 2, 60, 95
3, 46080, Note_off_c, 2, 53, 95
3, 46080, Note_off_c, 2, 48, 95
3, 46080, Note_on_c, 2, 69, 95
3, 46080, Note_on_c, 2, 65, 95
3, 46080, Note_on_c, 2, 60, 95
3, 46080, Note_on_c, 2, 53, 95
3, 46560, Note_off_c, 2, 69, 95
3, 46560, Note_off_c, 2, 65, 95
3, 46560, Note_off_c, 2, 60, 95
3, 46560, Note_off_c, 2, 53, 95
3, 46560, Note_on_c, 2, 69, 95
3, 46560, Note_on_c, 2, 65, 95
3, 46560, Note_on_c, 2, 60, 95
3, 46560, Note_on_c, 2, 53, 95
3, 47040, Note_off_c, 2, 69, 95
3, 47040, Note_off_c, 2, 65, 95
3, 47040, Note_off_c, 2, 60, 95
3, 47040, Note_off_c, 2, 53, 95
3, 47040, Note_on_c, 2, 69, 95
3, 47040, Note_on_c, 2, 65, 95
3, 47040, Note_on_c, 2, 60, 95
3, 47040, Note_on_c, 2, 53, 95
3, 48000, Note_off_c, 2, 69, 95
3, 48000, Note_off_c, 2, 65, 95
3, 48000, Note_off_c, 2, 60, 95
3, 48000, Note_off_c, 2, 53, 95
3, 48000, Note_on_c, 2, 69, 95
3, 48000, Note_on_c, 2, 65, 95
3, 48000, Note_on_c, 2, 60, 95
3, 48000, Note_on_c, 2, 53, 95
3, 48480, Note_off_c, 2, 69, 95
3, 48480, Note_off_c, 2, 65, 95
3, 48480, Note_off_c, 2, 60, 95
3, 48480, Note_off_c, 2, 53, 95
3, 48480, Note_on_c, 2, 64, 95
3, 48480, Note_on_c, 2, 60, 95
3, 48480, Note_on_c, 2, 55, 95
3, 48480, Note_on_c, 2, 48, 95
3, 49440, Note_off_c, 2, 64, 95
3, 49440, Note_off_c, 2, 60, 95
3, 49440, Note_off_c, 2, 55, 95
3, 49440, Note_off_c, 2, 48, 95
3, 49440, Note_on_c, 2, 69, 95
3, 49440, Note_on_c, 2, 65, 95
3, 49440, Note_on_c, 2, 60, 95
3, 49440, Note_on_c, 2, 53, 95
3, 50400, Note_off_c, 2, 69, 95
3, 50400, Note_off_c, 2, 65, 95
3, 50400, Note_off_c, 2, 60, 95
3, 50400, Note_off_c, 2, 53, 95
3, 50400, Note_on_c, 2, 69, 95
3, 50400, Note_on_c, 2, 65, 95
3, 50400, Note_on_c, 2, 60, 95
3, 50400, Note_on_c, 2, 53, 95
3, 50880, Note_off_c, 2, 69, 95
3, 50880, Note_off_c, 2, 65, 95
3, 50880, Note_off_c, 2, 60, 95
3, 50880, Note_off_c, 2, 53, 95
3, 50880, Note_on_c, 2, 69, 95
3, 50880, Note_on_c, 2, 65, 95
3, 50880, Note_on_c, 2, 60, 95
3, 50880, Note_on_c, 2, 53, 95
3, 51840, Note_off_c, 2, 69, 95
3, 51840, Note_off_c, 2, 65, 95
3, 51840, Note_off_c, 2, 60, 95
3, 51840, Note_off_c, 2, 53, 95
3, 51840, Note_on_c, 2, 69, 95
3, 51840, Note_on_c, 2, 65, 95
3, 51840, Note_on_c, 2, 60, 95
3, 51840, Note_on_c, 2, 53, 95
3, 52320, Note_off_c, 2, 69, 95
3, 52320, Note_off_c, 2, 65, 95
3, 52320, Note_off_c, 2, 60, 95
3, 52320, Note_off_c, 2, 53, 95
3, 52320, Note_on_c, 2, 69, 95
3, 52320, Note_on_c, 2, 65, 95
3, 52320, Note_on_c, 2, 60, 95
3, 52320, Note_on_c, 2, 53, 95
3, 52800, Note_off_c, 2, 69, 95
3, 52800, Note_off_c, 2, 65, 95
3, 52800, Note_off_c, 2, 60, 95
3, 52800, Note_off_c, 2, 53, 95
3, 52800, Note_on_c, 2, 64, 95
3, 52800, Note_on_c, 2, 60, 95
3, 52800, Note_on_c, 2, 55, 95
3, 52800, Note_on_c, 2, 48, 95
3, 53280, Note_off_c, 2, 64, 95
3, 53280, Note_off_c, 2, 60, 95
3, 53280, Note_off_c, 2, 55, 95
3, 53280, Note_off_c, 2, 48, 95
3, 53280, Note_on_c, 2, 69, 95
3, 53280, Note_on_c, 2, 65, 95
3, 53280, Note_on_c, 2, 60, 95
3, 53280, Note_on_c, 2, 53, 95
3, 54240, Note_off_c, 2, 69, 95
3, 54240, Note_off_c, 2, 65, 95
3, 54240, Note_off_c, 2, 60, 95
3, 54240, Note_off_c, 2, 53, 95
3, 54240, Note_on_c, 2, 69, 95
3, 54240, Note_on_c, 2, 65, 95
3, 54240, Note_on_c, 2, 60, 95
3, 54240, Note_on_c, 2, 53, 95
3, 54720, Note_off_c, 2, 69, 95
3, 54720, Note_off_c, 2, 65, 95
3, 54720, Note_off_c, 2, 60, 95
3, 54720, Note_off_c, 2, 53, 95
3, 54720, Note_on_c, 2, 64, 95
3, 54720, Note_on_c, 2, 60, 95
3, 54720, Note_on_c, 2, 55, 95
3, 54720, Note_on_c, 2, 48, 95
3, 55200, Note_off_c, 2, 64, 95
3, 55200, Note_off_c, 2, 60, 95
3, 55200, Note_off_c, 2, 55, 95
3, 55200, Note_off_c, 2, 48, 95
3, 55200, Note_on_c, 2, 69, 95
3, 55200, Note_on_c, 2, 65, 95
3, 55200, Note_on_c, 2, 60, 95
3, 55200, Note_on_c, 2, 53, 95
3, 55680, Note_off_c, 2, 69, 95
3, 55680, Note_off_c, 2, 65, 95
3, 55680, Note_off_c, 2, 60, 95
3, 55680, Note_off_c, 2, 53, 95
3, 55680, Note_on_c, 2, 69, 95
3, 55680, Note_on_c, 2, 65, 95
3, 55680, Note_on_c, 2, 60, 95
3, 55680, Note_on_c, 2, 53, 95
3, 56160, Note_off_c, 2, 69, 95
3, 56160, Note_off_c, 2, 65, 95
3, 56160, Note_off_c, 2, 60, 95
3, 56160, Note_off_c, 2, 53, 95
3, 56160, Note_on_c, 2, 69, 95
3, 56160, Note_on_c, 2, 65, 95
3, 56160, Note_on_c, 2, 60, 95
3, 56160, Note_on_c, 2, 53, 95
3, 56640, Note_off_c, 2, 69, 95
3, 56640, Note_off_c, 2, 65, 95
3, 56640, Note_off_c, 2, 60, 95
3, 56640, Note_off_c, 2, 53, 95
3, 56640, Note_on_c, 2, 64, 95
3, 56640, Note_on_c, 2, 60, 95
3, 56640, Note_on_c, 2, 55, 95
3, 56640, Note_on_c, 2, 48, 95
3, 57120, Note_off_c, 2, 64, 95
3, 57120, Note_off_c, 2, 60, 95
3, 57120, Note_off_c, 2, 55, 95
3, 57120, Note_off_c, 2, 48, 95
3, 57120, Note_on_c, 2, 69, 95
3, 57120, Note_on_c, 2, 65, 95
3, 57120, Note_on_c, 2, 60, 95
3, 57120, Note_on_c, 2, 53, 95
3, 57600, Note_off_c, 2, 69, 95
3, 57600, Note_off_c, 2, 65, 95
3, 57600, Note_off_c, 2, 60, 95
3, 57600, Note_off_c, 2, 53, 95
3, 57600, Note_on_c, 2, 69, 95
3, 57600, Note_on_c, 2, 65, 95
3, 57600, Note_on_c, 2, 60, 95
3, 57600, Note_on_c, 2, 53, 95
3, 58080, Note_off_c, 2, 69, 95
3, 58080, Note_off_c, 2, 65, 95
3, 58080, Note_off_c, 2, 60, 95
3, 58080, Note_off_c, 2, 53, 95
3, 58080, Note_on_c, 2, 69, 95
3, 58080, Note_on_c, 2, 65, 95
3, 58080, Note_on_c, 2, 60, 95
3, 58080, Note_on_c, 2, 53, 95
3, 58560, Note_off_c, 2, 69, 95
3, 58560, Note_off_c, 2, 65, 95
3, 58560, Note_off_c, 2, 60, 95
3, 58560, Note_off_c, 2, 53, 95
3, 58560, Note_on_c, 2, 64, 95
3, 58560, Note_on_c, 2, 60, 95
3, 58560, Note_on_c, 2, 55, 95
3, 58560, Note_on_c, 2, 48, 95
3, 59040, Note_off_c, 2, 64, 95
3, 59040, Note_off_c, 2, 60, 95
3, 59040, Note_off_c, 2, 55, 95
3, 59040, Note_off_c, 2, 48, 95
3, 59040, Note_on_c, 2, 69, 95
3, 59040, Note_on_c, 2, 65, 95
3, 59040, Note_on_c, 2, 60, 95
3, 59040, Note_on_c, 2, 53, 95
3, 60000, Note_off_c, 2, 69, 95
3, 60000, Note_off_c, 2, 65, 95
3, 60000, Note_off_c, 2, 60, 95
3, 60000, Note_off_c, 2, 53, 95
3, 60000, Note_on_c, 2, 69, 95
3, 60000, Note_on_c, 2, 65, 95
3, 60000, Note_on_c, 2, 60, 95
3, 60000, Note_on_c, 2, 53, 95
3, 60480, Note_off_c, 2, 69, 95
3, 60480, Note_off_c, 2, 65, 95
3, 60480, Note_off_c, 2, 60, 95
3, 60480, Note_off_c, 2, 53, 95
3, 60480, Note_on_c, 2, 64, 95
3, 60480, Note_on_c, 2, 60, 95
3, 60480, Note_on_c, 2, 55, 95
3, 60480, Note_on_c, 2, 48, 95
3, 60960, Note_off_c, 2, 64, 95
3, 60960, Note_off_c, 2, 60, 95
3, 60960, Note_off_c, 2, 55, 95
3, 60960, Note_off_c, 2, 48, 95
3, 60960, Note_on_c, 2, 69, 95
3, 60960, Note_on_c, 2, 65, 95
3, 60960, Note_on_c, 2, 60, 95
3, 60960, Note_on_c, 2, 53, 95
3, 61440, Note_off_c, 2, 69, 95
3, 61440, Note_off_c, 2, 65, 95
3, 61440, Note_off_c, 2, 60, 95
3, 61440, Note_off_c, 2, 53, 95
3, 61440, Note_on_c, 2, 69, 95
3, 61440, Note_on_c, 2, 65, 95
3, 61440, Note_on_c, 2, 60, 95
3, 61440, Note_on_c, 2, 53, 95
3, 61920, Note_off_c, 2, 69, 95
3, 61920, Note_off_c, 2, 65, 95
3, 61920, Note_off_c, 2, 60, 95
3, 61920, Note_off_c, 2, 53, 95
3, 61920, Note_on_c, 2, 69, 95
3, 61920, Note_on_c, 2, 65, 95
3, 61920, Note_on_c, 2, 60, 95
3, 61920, Note_on_c, 2, 53, 95
3, 62400, Note_off_c, 2, 69, 95
3, 62400, Note_off_c, 2, 65, 95
3, 62400, Note_off_c, 2, 60, 95
3, 62400, Note_off_c, 2, 53, 95
3, 62400, Note_on_c, 2, 69, 95
3, 62400, Note_on_c, 2, 65, 95
3, 62400, Note_on_c, 2, 60, 95
3, 62400, Note_on_c, 2, 53, 95
3, 62880, Note_off_c, 2, 69, 95
3, 62880, Note_off_c, 2, 65, 95
3, 62880, Note_off_c, 2, 60, 95
3, 62880, Note_off_c, 2, 53, 95
3, 62880, Note_on_c, 2, 64, 95
3, 62880, Note_on_c, 2, 60, 95
3, 62880, Note_on_c, 2, 55, 95
3, 62880, Note_on_c, 2, 48, 95
3, 63360, Note_off_c, 2, 64, 95
3, 63360, Note_off_c, 2, 60, 95
3, 63360, Note_off_c, 2, 55, 95
3, 63360, Note_off_c, 2, 48, 95
3, 63360, Note_on_c, 2, 64, 95
3, 63360, Note_on_c, 2, 60, 95
3, 63360, Note_on_c, 2, 55, 95
3, 63360, Note_on_c, 2, 48, 95
3, 63840, Note_off_c, 2, 64, 95
3, 63840, Note_off_c, 2, 60, 95
3, 63840, Note_off_c, 2, 55, 95
3, 63840, Note_off_c, 2, 48, 95
3, 63840, Note_on_c, 2, 64, 95
3, 63840, Note_on_c, 2, 60, 95
3, 63840, Note_on_c, 2, 55, 95
3, 63840, Note_on_c, 2, 48, 95
3, 64320, Note_off_c, 2, 64, 95
3, 64320, Note_off_c, 2, 60, 95
3, 64320, Note_off_c, 2, 55, 95
3, 64320, Note_off_c, 2, 48, 95
3, 64320, Note_on_c, 2, 64, 95
3, 64320, Note_on_c, 2, 60, 95
3, 64320, Note_on_c, 2, 55, 95
3, 64320, Note_on_c, 2, 48, 95
3, 64800, Note_off_c, 2, 64, 95
3, 64800, Note_off_c, 2, 60, 95
3, 64800, Note_off_c, 2, 55, 95
3, 64800, Note_off_c, 2, 48, 95
3, 64800, Note_on_c, 2, 64, 95
3, 64800, Note_on_c, 2, 60, 95
3, 64800, Note_on_c, 2, 55, 95
3, 64800, Note_on_c, 2, 48, 95
3, 65280, Note_off_c, 2, 64, 95
3, 65280, Note_off_c, 2, 60, 95
3, 65280, Note_off_c, 2, 55, 95
3, 65280, Note_off_c, 2, 48, 95
3, 65280, Note_on_c, 2, 69, 95
3, 65280, Note_on_c, 2, 65, 95
3, 65280, Note_on_c, 2, 60, 95
3, 65280, Note_on_c, 2, 53, 95
3, 65760, Note_off_c, 2, 69, 95
3, 65760, Note_off_c, 2, 65, 95
3, 65760, Note_off_c, 2, 60, 95
3, 65760, Note_off_c, 2, 53, 95
3, 65760, Note_on_c, 2, 69, 95
3, 65760, Note_on_c, 2, 65, 95
3, 65760, Note_on_c, 2, 60, 95
3, 65760, Note_on_c, 2, 53, 95
3, 66240, Note_off_c, 2, 69, 95
3, 66240, Note_off_c, 2, 65, 95
3, 66240, Note_off_c, 2, 60, 95
3, 66240, Note_off_c, 2, 53, 95
3, 66240, Note_on_c, 2, 69, 95
3, 66240, Note_on_c, 2, 65, 95
3, 66240, Note_on_c, 2, 60, 95
3, 66240, Note_on_c, 2, 53, 95
3, 66720, Note_off_c, 2, 69, 95
3, 66720, Note_off_c, 2, 65, 95
3, 66720, Note_off_c, 2, 60, 95
3, 66720, Note_off_c, 2, 53, 95
3, 66720, Note_on_c, 2, 69, 95
3, 66720, Note_on_c, 2, 65, 95
3, 66720, Note_on_c, 2, 60, 95
3, 66720, Note_on_c, 2, 53, 95
3, 67200, Note_off_c, 2, 69, 95
3, 67200, Note_off_c, 2, 65, 95
3, 67200, Note_off_c, 2, 60, 95
3, 67200, Note_off_c, 2, 53, 95
3, 67200, Note_on_c, 2, 69, 95
3, 67200, Note_on_c, 2, 65, 95
3, 67200, Note_on_c, 2, 60, 95
3, 67200, Note_on_c, 2, 53, 95
3, 67680, Note_off_c, 2, 69, 95
3, 67680, Note_off_c, 2, 65, 95
3, 67680, Note_off_c, 2, 60, 95
3, 67680, Note_off_c, 2, 53, 95
3, 67680, Note_on_c, 2, 53, 95
3, 67680, Note_on_c, 2, 48, 95
3, 67680, Note_on_c, 2, 41, 95
3, 68160, Note_off_c, 2, 53, 95
3, 68160, Note_off_c, 2, 48, 95
3, 68160, Note_off_c, 2, 41, 95
3, 68160, Note_on_c, 2, 54, 95
3, 68160, Note_on_c, 2, 49, 95
3, 68160, Note_on_c, 2, 42, 95
3, 68640, Note_off_c, 2, 54, 95
3, 68640, Note_off_c, 2, 49, 95
3, 68640, Note_off_c, 2, 42, 95
3, 68640, Note_on_c, 2, 67, 95
3, 68640, Note_on_c, 2, 62, 95
3, 68640, Note_on_c, 2, 59, 95
3, 68640, Note_on_c, 2, 55, 95
3, 68640, Note_on_c, 2, 50, 95
3, 68640, Note_on_c, 2, 43, 95
3, 69600, Note_off_c, 2, 67, 95
3, 69600, Note_off_c, 2, 62, 95
3, 69600, Note_off_c, 2, 59, 95
3, 69600, Note_off_c, 2, 55, 95
3, 69600, Note_off_c, 2, 50, 95
3, 69600, Note_off_c, 2, 43, 95
3, 69600, Note_on_c, 2, 67, 95
3, 69600, Note_on_c, 2, 62, 95
3, 69600, Note_on_c, 2, 59, 95
3, 69600, Note_on_c, 2, 55, 95
3, 69600, Note_on_c, 2, 50, 95
3, 69600, Note_on_c, 2, 43, 95
3, 70080, Note_off_c, 2, 67, 95
3, 70080, Note_off_c, 2, 62, 95
3, 70080, Note_off_c, 2, 59, 95
3, 70080, Note_off_c, 2, 55, 95
3, 70080, Note_off_c, 2, 50, 95
3, 70080, Note_off_c, 2, 43, 95
3, 70080, Note_on_c, 2, 67, 95
3, 70080, Note_on_c, 2, 62, 95
3, 70080, Note_on_c, 2, 59, 95
3, 70080, Note_on_c, 2, 55, 95
3, 70080, Note_on_c, 2, 50, 95
3, 70080, Note_on_c, 2, 43, 95
3, 70560, Note_off_c, 2, 67, 95
3, 70560, Note_off_c, 2, 62, 95
3, 70560, Note_off_c, 2, 59, 95
3, 70560, Note_off_c, 2, 55, 95
3, 70560, Note_off_c, 2, 50, 95
3, 70560, Note_off_c, 2, 43, 95
3, 70560, Note_on_c, 2, 67, 95
3, 70560, Note_on_c, 2, 62, 95
3, 70560, Note_on_c, 2, 59, 95
3, 70560, Note_on_c, 2, 55, 95
3, 70560, Note_on_c, 2, 50, 95
3, 70560, Note_on_c, 2, 43, 95
3, 71040, Note_off_c, 2, 67, 95
3, 71040, Note_off_c, 2, 62, 95
3, 71040, Note_off_c, 2, 59, 95
3, 71040, Note_off_c, 2, 55, 95
3, 71040, Note_off_c, 2, 50, 95
3, 71040, Note_off_c, 2, 43, 95
3, 71040, Note_on_c, 2, 67, 95
3, 71040, Note_on_c, 2, 62, 95
3, 71040, Note_on_c, 2, 59, 95
3, 71040, Note_on_c, 2, 55, 95
3, 71040, Note_on_c, 2, 50, 95
3, 71040, Note_on_c, 2, 43, 95
3, 71520, Note_off_c, 2, 67, 95
3, 71520, Note_off_c, 2, 62, 95
3, 71520, Note_off_c, 2, 59, 95
3, 71520, Note_off_c, 2, 55, 95
3, 71520, Note_off_c, 2, 50, 95
3, 71520, Note_off_c, 2, 43, 95
3, 71520, Note_on_c, 2, 67, 95
3, 71520, Note_on_c, 2, 62, 95
3, 71520, Note_on_c, 2, 59, 95
3, 71520, Note_on_c, 2, 55, 95
3, 71520, Note_on_c, 2, 50, 95
3, 71520, Note_on_c, 2, 43, 95
3, 72000, Note_off_c, 2, 67, 95
3, 72000, Note_off_c, 2, 62, 95
3, 72000, Note_off_c, 2, 59, 95
3, 72000, Note_off_c, 2, 55, 95
3, 72000, Note_off_c, 2, 50, 95
3, 72000, Note_off_c, 2, 43, 95
3, 72000, Note_on_c, 2, 67, 95
3, 72000, Note_on_c, 2, 62, 95
3, 72000, Note_on_c, 2, 59, 95
3, 72000, Note_on_c, 2, 55, 95
3, 72000, Note_on_c, 2, 50, 95
3, 72000, Note_on_c, 2, 43, 95
3, 72480, Note_off_c, 2, 67, 95
3, 72480, Note_off_c, 2, 62, 95
3, 72480, Note_off_c, 2, 59, 95
3, 72480, Note_off_c, 2, 55, 95
3, 72480, Note_off_c, 2, 50, 95
3, 72480, Note_off_c, 2, 43, 95
3, 72480, Note_on_c, 2, 67, 95
3, 72480, Note_on_c, 2, 62, 95
3, 72480, Note_on_c, 2, 59, 95
3, 72480, Note_on_c, 2, 55, 95
3, 72480, Note_on_c, 2, 50, 95
3, 72480, Note_on_c, 2, 43, 95
3, 72960, Note_off_c, 2, 67, 95
3, 72960, Note_off_c, 2, 62, 95
3, 72960, Note_off_c, 2, 59, 95
3, 72960, Note_off_c, 2, 55, 95
3, 72960, Note_off_c, 2, 50, 95
3, 72960, Note_off_c, 2, 43, 95
3, 72960, Note_on_c, 2, 67, 95
3, 72960, Note_on_c, 2, 64, 95
3, 72960, Note_on_c, 2, 60, 95
3, 72960, Note_on_c, 2, 55, 95
3, 72960, Note_on_c, 2, 48, 95
3, 72960, Note_on_c, 2, 43, 95
3, 73440, Note_off_c, 2, 67, 95
3, 73440, Note_off_c, 2, 64, 95
3, 73440, Note_off_c, 2, 60, 95
3, 73440, Note_off_c, 2, 55, 95
3, 73440, Note_off_c, 2, 48, 95
3, 73440, Note_off_c, 2, 43, 95
3, 73440, Note_on_c, 2, 67, 95
3, 73440, Note_on_c, 2, 64, 95
3, 73440, Note_on_c, 2, 60, 95
3, 73440, Note_on_c, 2, 55, 95
3, 73440, Note_on_c, 2, 48, 95
3, 73440, Note_on_c, 2, 43, 95
3, 73920, Note_off_c, 2, 67, 95
3, 73920, Note_off_c, 2, 64, 95
3, 73920, Note_off_c, 2, 60, 95
3, 73920, Note_off_c, 2, 55, 95
3, 73920, Note_off_c, 2, 48, 95
3, 73920, Note_off_c, 2, 43, 95
3, 73920, Note_on_c, 2, 67, 95
3, 73920, Note_on_c, 2, 64, 95
3, 73920, Note_on_c, 2, 60, 95
3, 73920, Note_on_c, 2, 55, 95
3, 73920, Note_on_c, 2, 48, 95
3, 73920, Note_on_c, 2, 43, 95
3, 74400, Note_off_c, 2, 67, 95
3, 74400, Note_off_c, 2, 64, 95
3, 74400, Note_off_c, 2, 60, 95
3, 74400, Note_off_c, 2, 55, 95
3, 74400, Note_off_c, 2, 48, 95
3, 74400, Note_off_c, 2, 43, 95
3, 74400, Note_on_c, 2, 67, 95
3, 74400, Note_on_c, 2, 64, 95
3, 74400, Note_on_c, 2, 60, 95
3, 74400, Note_on_c, 2, 55, 95
3, 74400, Note_on_c, 2, 48, 95
3, 74400, Note_on_c, 2, 43, 95
3, 74880, Note_off_c, 2, 67, 95
3, 74880, Note_off_c, 2, 64, 95
3, 74880, Note_off_c, 2, 60, 95
3, 74880, Note_off_c, 2, 55, 95
3, 74880, Note_off_c, 2, 48, 95
3, 74880, Note_off_c, 2, 43, 95
3, 74880, Note_on_c, 2, 67, 95
3, 74880, Note_on_c, 2, 62, 95
3, 74880, Note_on_c, 2, 60, 95
3, 74880, Note_on_c, 2, 55, 95
3, 74880, Note_on_c, 2, 48, 95
3, 74880, Note_on_c, 2, 43, 95
3, 75360, Note_off_c, 2, 67, 95
3, 75360, Note_off_c, 2, 62, 95
3, 75360, Note_off_c, 2, 60, 95
3, 75360, Note_off_c, 2, 55, 95
3, 75360, Note_off_c, 2, 48, 95
3, 75360, Note_off_c, 2, 43, 95
3, 75360, Note_on_c, 2, 67, 95
3, 75360, Note_on_c, 2, 64, 95
3, 75360, Note_on_c, 2, 60, 95
3, 75360, Note_on_c, 2, 55, 95
3, 75360, Note_on_c, 2, 48, 95
3, 75360, Note_on_c, 2, 43, 95
3, 75840, Note_off_c, 2, 67, 95
3, 75840, Note_off_c, 2, 64, 95
3, 75840, Note_off_c, 2, 60, 95
3, 75840, Note_off_c, 2, 55, 95
3, 75840, Note_off_c, 2, 48, 95
3, 75840, Note_off_c, 2, 43, 95
3, 75840, Note_on_c, 2, 67, 95
3, 75840, Note_on_c, 2, 64, 95
3, 75840, Note_on_c, 2, 60, 95
3, 75840, Note_on_c, 2, 55, 95
3, 75840, Note_on_c, 2, 48, 95
3, 75840, Note_on_c, 2, 43, 95
3, 76320, Note_off_c, 2, 67, 95
3, 76320, Note_off_c, 2, 64, 95
3, 76320, Note_off_c, 2, 60, 95
3, 76320, Note_off_c, 2, 55, 95
3, 76320, Note_off_c, 2, 48, 95
3, 76320, Note_off_c, 2, 43, 95
3, 76320, Note_on_c, 2, 67, 95
3, 76320, Note_on_c, 2, 64, 95
3, 76320, Note_on_c, 2, 60, 95
3, 76320, Note_on_c, 2, 55, 95
3, 76320, Note_on_c, 2, 48, 95
3, 76320, Note_on_c, 2, 43, 95
3, 76800, Note_off_c, 2, 67, 95
3, 76800, Note_off_c, 2, 64, 95
3, 76800, Note_off_c, 2, 60, 95
3, 76800, Note_off_c, 2, 55, 95
3, 76800, Note_off_c, 2, 48, 95
3, 76800, Note_off_c, 2, 43, 95
3, 76800, Note_on_c, 2, 67, 95
3, 76800, Note_on_c, 2, 62, 95
3, 76800, Note_on_c, 2, 59, 95
3, 76800, Note_on_c, 2, 55, 95
3, 76800, Note_on_c, 2, 50, 95
3, 76800, Note_on_c, 2, 43, 95
3, 77280, Note_off_c, 2, 67, 95
3, 77280, Note_off_c, 2, 62, 95
3, 77280, Note_off_c, 2, 59, 95
3, 77280, Note_off_c, 2, 55, 95
3, 77280, Note_off_c, 2, 50, 95
3, 77280, Note_off_c, 2, 43, 95
3, 77280, Note_on_c, 2, 67, 95
3, 77280, Note_on_c, 2, 62, 95
3, 77280, Note_on_c, 2, 59, 95
3, 77280, Note_on_c, 2, 55, 95
3, 77280, Note_on_c, 2, 50, 95
3, 77280, Note_on_c, 2, 43, 95
3, 77760, Note_off_c, 2, 67, 95
3, 77760, Note_off_c, 2, 62, 95
3, 77760, Note_off_c, 2, 59, 95
3, 77760, Note_off_c, 2, 55, 95
3, 77760, Note_off_c, 2, 50, 95
3, 77760, Note_off_c, 2, 43, 95
3, 77760, Note_on_c, 2, 67, 95
3, 77760, Note_on_c, 2, 62, 95
3, 77760, Note_on_c, 2, 59, 95
3, 77760, Note_on_c, 2, 55, 95
3, 77760, Note_on_c, 2, 50, 95
3, 77760, Note_on_c, 2, 43, 95
3, 78240, Note_off_c, 2, 67, 95
3, 78240, Note_off_c, 2, 62, 95
3, 78240, Note_off_c, 2, 59, 95
3, 78240, Note_off_c, 2, 55, 95
3, 78240, Note_off_c, 2, 50, 95
3, 78240, Note_off_c, 2, 43, 95
3, 78240, Note_on_c, 2, 67, 95
3, 78240, Note_on_c, 2, 62, 95
3, 78240, Note_on_c, 2, 59, 95
3, 78240, Note_on_c, 2, 55, 95
3, 78240, Note_on_c, 2, 50, 95
3, 78240, Note_on_c, 2, 43, 95
3, 78720, Note_off_c, 2, 67, 95
3, 78720, Note_off_c, 2, 62, 95
3, 78720, Note_off_c, 2, 59, 95
3, 78720, Note_off_c, 2, 55, 95
3, 78720, Note_off_c, 2, 50, 95
3, 78720, Note_off_c, 2, 43, 95
3, 78720, Note_on_c, 2, 67, 95
3, 78720, Note_on_c, 2, 62, 95
3, 78720, Note_on_c, 2, 59, 95
3, 78720, Note_on_c, 2, 55, 95
3, 78720, Note_on_c, 2, 50, 95
3, 78720, Note_on_c, 2, 43, 95
3, 79200, Note_off_c, 2, 67, 95
3, 79200, Note_off_c, 2, 62, 95
3, 79200, Note_off_c, 2, 59, 95
3, 79200, Note_off_c, 2, 55, 95
3, 79200, Note_off_c, 2, 50, 95
3, 79200, Note_off_c, 2, 43, 95
3, 79200, Note_on_c, 2, 67, 95
3, 79200, Note_on_c, 2, 62, 95
3, 79200, Note_on_c, 2, 59, 95
3, 79200, Note_on_c, 2, 55, 95
3, 79200, Note_on_c, 2, 50, 95
3, 79200, Note_on_c, 2, 43, 95
3, 79680, Note_off_c, 2, 67, 95
3, 79680, Note_off_c, 2, 62, 95
3, 79680, Note_off_c, 2, 59, 95
3, 79680, Note_off_c, 2, 55, 95
3, 79680, Note_off_c, 2, 50, 95
3, 79680, Note_off_c, 2, 43, 95
3, 79680, Note_on_c, 2, 67, 95
3, 79680, Note_on_c, 2, 62, 95
3, 79680, Note_on_c, 2, 59, 95
3, 79680, Note_on_c, 2, 55, 95
3, 79680, Note_on_c, 2, 50, 95
3, 79680, Note_on_c, 2, 43, 95
3, 80160, Note_off_c, 2, 67, 95
3, 80160, Note_off_c, 2, 62, 95
3, 80160, Note_off_c, 2, 59, 95
3, 80160, Note_off_c, 2, 55, 95
3, 80160, Note_off_c, 2, 50, 95
3, 80160, Note_off_c, 2, 43, 95
3, 80160, Note_on_c, 2, 67, 95
3, 80160, Note_on_c, 2, 62, 95
3, 80160, Note_on_c, 2, 59, 95
3, 80160, Note_on_c, 2, 55, 95
3, 80160, Note_on_c, 2, 50, 95
3, 80160, Note_on_c, 2, 43, 95
3, 80640, Note_off_c, 2, 67, 95
3, 80640, Note_off_c, 2, 62, 95
3, 80640, Note_off_c, 2, 59, 95
3, 80640, Note_off_c, 2, 55, 95
3, 80640, Note_off_c, 2, 50, 95
3, 80640, Note_off_c, 2, 43, 95
3, 80640, Note_on_c, 2, 67, 95
3, 80640, Note_on_c, 2, 64, 95
3, 80640, Note_on_c, 2, 60, 95
3, 80640, Note_on_c, 2, 55, 95
3, 80640, Note_on_c, 2, 48, 95
3, 80640, Note_on_c, 2, 43, 95
3, 81120, Note_off_c, 2, 67, 95
3, 81120, Note_off_c, 2, 64, 95
3, 81120, Note_off_c, 2, 60, 95
3, 81120, Note_off_c, 2, 55, 95
3, 81120, Note_off_c, 2, 48, 95
3, 81120, Note_off_c, 2, 43, 95
3, 81120, Note_on_c, 2, 67, 95
3, 81120, Note_on_c, 2, 64, 95
3, 81120, Note_on_c, 2, 60, 95
3, 81120, Note_on_c, 2, 55, 95
3, 81120, Note_on_c, 2, 48, 95
3, 81120, Note_on_c, 2, 43, 95
3, 81600, Note_off_c, 2, 67, 95
3, 81600, Note_off_c, 2, 64, 95
3, 81600, Note_off_c, 2, 60, 95
3, 81600, Note_off_c, 2, 55, 95
3, 81600, Note_off_c, 2, 48, 95
3, 81600, Note_off_c, 2, 43, 95
3, 81600, Note_on_c, 2, 67, 95
3, 81600, Note_on_c, 2, 64, 95
3, 81600, Note_on_c, 2, 60, 95
3, 81600, Note_on_c, 2, 55, 95
3, 81600, Note_on_c, 2, 48, 95
3, 81600, Note_on_c, 2, 43, 95
3, 82080, Note_off_c, 2, 67, 95
3, 82080, Note_off_c, 2, 64, 95
3, 82080, Note_off_c, 2, 60, 95
3, 82080, Note_off_c, 2, 55, 95
3, 82080, Note_off_c, 2, 48, 95
3, 82080, Note_off_c, 2, 43, 95
3, 82080, Note_on_c, 2, 67, 95
3, 82080, Note_on_c, 2, 64, 95
3, 82080, Note_on_c, 2, 60, 95
3, 82080, Note_on_c, 2, 55, 95
3, 82080, Note_on_c, 2, 48, 95
3, 82080, Note_on_c, 2, 43, 95
3, 82560, Note_off_c, 2, 67, 95
3, 82560, Note_off_c, 2, 64, 95
3, 82560, Note_off_c, 2, 60, 95
3, 82560, Note_off_c, 2, 55, 95
3, 82560, Note_off_c, 2, 48, 95
3, 82560, Note_off_c, 2, 43, 95
3, 82560, Note_on_c, 2, 67, 95
3, 82560, Note_on_c, 2, 62, 95
3, 82560, Note_on_c, 2, 60, 95
3, 82560, Note_on_c, 2, 55, 95
3, 82560, Note_on_c, 2, 48, 95
3, 82560, Note_on_c, 2, 43, 95
3, 83040, Note_off_c, 2, 67, 95
3, 83040, Note_off_c, 2, 62, 95
3, 83040, Note_off_c, 2, 60, 95
3, 83040, Note_off_c, 2, 55, 95
3, 83040, Note_off_c, 2, 48, 95
3, 83040, Note_off_c, 2, 43, 95
3, 83040, Note_on_c, 2, 67, 95
3, 83040, Note_on_c, 2, 64, 95
3, 83040, Note_on_c, 2, 60, 95
3, 83040, Note_on_c, 2, 55, 95
3, 83040, Note_on_c, 2, 48, 95
3, 83040, Note_on_c, 2, 43, 95
3, 83520, Note_off_c, 2, 67, 95
3, 83520, Note_off_c, 2, 64, 95
3, 83520, Note_off_c, 2, 60, 95
3, 83520, Note_off_c, 2, 55, 95
3, 83520, Note_off_c, 2, 48, 95
3, 83520, Note_off_c, 2, 43, 95
3, 83520, Note_on_c, 2, 67, 95
3, 83520, Note_on_c, 2, 64, 95
3, 83520, Note_on_c, 2, 60, 95
3, 83520, Note_on_c, 2, 55, 95
3, 83520, Note_on_c, 2, 48, 95
3, 83520, Note_on_c, 2, 43, 95
3, 84000, Note_off_c, 2, 67, 95
3, 84000, Note_off_c, 2, 64, 95
3, 84000, Note_off_c, 2, 60, 95
3, 84000, Note_off_c, 2, 55, 95
3, 84000, Note_off_c, 2, 48, 95
3, 84000, Note_off_c, 2, 43, 95
3, 84000, Note_on_c, 2, 67, 95
3, 84000, Note_on_c, 2, 64, 95
3, 84000, Note_on_c, 2, 60, 95
3, 84000, Note_on_c, 2, 55, 95
3, 84000, Note_on_c, 2, 48, 95
3, 84000, Note_on_c, 2, 43, 95
3, 84480, Note_off_c, 2, 67, 95
3, 84480, Note_off_c, 2, 64, 95
3, 84480, Note_off_c, 2, 60, 95
3, 84480, Note_off_c, 2, 55, 95
3, 84480, Note_off_c, 2, 48, 95
3, 84480, Note_off_c, 2, 43, 95
3, 84480, Note_on_c, 2, 67, 95
3, 84480, Note_on_c, 2, 62, 95
3, 84480, Note_on_c, 2, 59, 95
3, 84480, Note_on_c, 2, 55, 95
3, 84480, Note_on_c, 2, 50, 95
3, 84480, Note_on_c, 2, 43, 95
3, 84960, Note_off_c, 2, 67, 95
3, 84960, Note_off_c, 2, 62, 95
3, 84960, Note_off_c, 2, 59, 95
3, 84960, Note_off_c, 2, 55, 95
3, 84960, Note_off_c, 2, 50, 95
3, 84960, Note_off_c, 2, 43, 95
3, 84960, Note_on_c, 2, 67, 95
3, 84960, Note_on_c, 2, 62, 95
3, 84960, Note_on_c, 2, 59, 95
3, 84960, Note_on_c, 2, 55, 95
3, 84960, Note_on_c, 2, 50, 95
3, 84960, Note_on_c, 2, 43, 95
3, 85440, Note_off_c, 2, 67, 95
3, 85440, Note_off_c, 2, 62, 95
3, 85440, Note_off_c, 2, 59, 95
3, 85440, Note_off_c, 2, 55, 95
3, 85440, Note_off_c, 2, 50, 95
3, 85440, Note_off_c, 2, 43, 95
3, 85440, Note_on_c, 2, 67, 95
3, 85440, Note_on_c, 2, 62, 95
3, 85440, Note_on_c, 2, 59, 95
3, 85440, Note_on_c, 2, 55, 95
3, 85440, Note_on_c, 2, 50, 95
3, 85440, Note_on_c, 2, 43, 95
3, 85920, Note_off_c, 2, 67, 95
3, 85920, Note_off_c, 2, 62, 95
3, 85920, Note_off_c, 2, 59, 95
3, 85920, Note_off_c, 2, 55, 95
3, 85920, Note_off_c, 2, 50, 95
3, 85920, Note_off_c, 2, 43, 95
3, 85920, Note_on_c, 2, 67, 95
3, 85920, Note_on_c, 2, 62, 95
3, 85920, Note_on_c, 2, 59, 95
3, 85920, Note_on_c, 2, 55, 95
3, 85920, Note_on_c, 2, 50, 95
3, 85920, Note_on_c, 2, 43, 95
3, 86400, Note_off_c, 2, 67, 95
3, 86400, Note_off_c, 2, 62, 95
3, 86400, Note_off_c, 2, 59, 95
3, 86400, Note_off_c, 2, 55, 95
3, 86400, Note_off_c, 2, 50, 95
3, 86400, Note_off_c, 2, 43, 95
3, 86400, Note_on_c, 2, 67, 95
3, 86400, Note_on_c, 2, 62, 95
3, 86400, Note_on_c, 2, 59, 95
3, 86400, Note_on_c, 2, 55, 95
3, 86400, Note_on_c, 2, 50, 95
3, 86400, Note_on_c, 2, 43, 95
3, 86880, Note_off_c, 2, 67, 95
3, 86880, Note_off_c, 2, 62, 95
3, 86880, Note_off_c, 2, 59, 95
3, 86880, Note_off_c, 2, 55, 95
3, 86880, Note_off_c, 2, 50, 95
3, 86880, Note_off_c, 2, 43, 95
3, 86880, Note_on_c, 2, 67, 95
3, 86880, Note_on_c, 2, 62, 95
3, 86880, Note_on_c, 2, 59, 95
3, 86880, Note_on_c, 2, 55, 95
3, 86880, Note_on_c, 2, 50, 95
3, 86880, Note_on_c, 2, 43, 95
3, 87360, Note_off_c, 2, 67, 95
3, 87360, Note_off_c, 2, 62, 95
3, 87360, Note_off_c, 2, 59, 95
3, 87360, Note_off_c, 2, 55, 95
3, 87360, Note_off_c, 2, 50, 95
3, 87360, Note_off_c, 2, 43, 95
3, 87360, Note_on_c, 2, 67, 95
3, 87360, Note_on_c, 2, 62, 95
3, 87360, Note_on_c, 2, 59, 95
3, 87360, Note_on_c, 2, 55, 95
3, 87360, Note_on_c, 2, 50, 95
3, 87360, Note_on_c, 2, 43, 95
3, 87840, Note_off_c, 2, 67, 95
3, 87840, Note_off_c, 2, 62, 95
3, 87840, Note_off_c, 2, 59, 95
3, 87840, Note_off_c, 2, 55, 95
3, 87840, Note_off_c, 2, 50, 95
3, 87840, Note_off_c, 2, 43, 95
3, 87840, Note_on_c, 2, 67, 95
3, 87840, Note_on_c, 2, 62, 95
3, 87840, Note_on_c, 2, 59, 95
3, 87840, Note_on_c, 2, 55, 95
3, 87840, Note_on_c, 2, 50, 95
3, 87840, Note_on_c, 2, 43, 95
3, 88320, Note_off_c, 2, 67, 95
3, 88320, Note_off_c, 2, 62, 95
3, 88320, Note_off_c, 2, 59, 95
3, 88320, Note_off_c, 2, 55, 95
3, 88320, Note_off_c, 2, 50, 95
3, 88320, Note_off_c, 2, 43, 95
3, 88320, Note_on_c, 2, 67, 95
3, 88320, Note_on_c, 2, 64, 95
3, 88320, Note_on_c, 2, 60, 95
3, 88320, Note_on_c, 2, 55, 95
3, 88320, Note_on_c, 2, 48, 95
3, 88320, Note_on_c, 2, 43, 95
3, 88800, Note_off_c, 2, 67, 95
3, 88800, Note_off_c, 2, 64, 95
3, 88800, Note_off_c, 2, 60, 95
3, 88800, Note_off_c, 2, 55, 95
3, 88800, Note_off_c, 2, 48, 95
3, 88800, Note_off_c, 2, 43, 95
3, 88800, Note_on_c, 2, 67, 95
3, 88800, Note_on_c, 2, 64, 95
3, 88800, Note_on_c, 2, 60, 95
3, 88800, Note_on_c, 2, 55, 95
3, 88800, Note_on_c, 2, 48, 95
3, 88800, Note_on_c, 2, 43, 95
3, 89280, Note_off_c, 2, 67, 95
3, 89280, Note_off_c, 2, 64, 95
3, 89280, Note_off_c, 2, 60, 95
3, 89280, Note_off_c, 2, 55, 95
3, 89280, Note_off_c, 2, 48, 95
3, 89280, Note_off_c, 2, 43, 95
3, 89280, Note_on_c, 2, 67, 95
3, 89280, Note_on_c, 2, 64, 95
3, 89280, Note_on_c, 2, 60, 95
3, 89280, Note_on_c, 2, 55, 95
3, 89280, Note_on_c, 2, 48, 95
3, 89280, Note_on_c, 2, 43, 95
3, 89760, Note_off_c, 2, 67, 95
3, 89760, Note_off_c, 2, 64, 95
3, 89760, Note_off_c, 2, 60, 95
3, 89760, Note_off_c, 2, 55, 95
3, 89760, Note_off_c, 2, 48, 95
3, 89760, Note_off_c, 2, 43, 95
3, 89760, Note_on_c, 2, 67, 95
3, 89760, Note_on_c, 2, 64, 95
3, 89760, Note_on_c, 2, 60, 95
3, 89760, Note_on_c, 2, 55, 95
3, 89760, Note_on_c, 2, 48, 95
3, 89760, Note_on_c, 2, 43, 95
3, 90240, Note_off_c, 2, 67, 95
3, 90240, Note_off_c, 2, 64, 95
3, 90240, Note_off_c, 2, 60, 95
3, 90240, Note_off_c, 2, 55, 95
3, 90240, Note_off_c, 2, 48, 95
3, 90240, Note_off_c, 2, 43, 95
3, 90240, Note_on_c, 2, 67, 95
3, 90240, Note_on_c, 2, 62, 95
3, 90240, Note_on_c, 2, 60, 95
3, 90240, Note_on_c, 2, 55, 95
3, 90240, Note_on_c, 2, 48, 95
3, 90240, Note_on_c, 2, 43, 95
3, 90720, Note_off_c, 2, 67, 95
3, 90720, Note_off_c, 2, 62, 95
3, 90720, Note_off_c, 2, 60, 95
3, 90720, Note_off_c, 2, 55, 95
3, 90720, Note_off_c, 2, 48, 95
3, 90720, Note_off_c, 2, 43, 95
3, 90720, Note_on_c, 2, 67, 95
3, 90720, Note_on_c, 2, 64, 95
3, 90720, Note_on_c, 2, 60, 95
3, 90720, Note_on_c, 2, 55, 95
3, 90720, Note_on_c, 2, 48, 95
3, 90720, Note_on_c, 2, 43, 95
3, 91200, Note_off_c, 2, 67, 95
3, 91200, Note_off_c, 2, 64, 95
3, 91200, Note_off_c, 2, 60, 95
3, 91200, Note_off_c, 2, 55, 95
3, 91200, Note_off_c, 2, 48, 95
3, 91200, Note_off_c, 2, 43, 95
3, 91200, Note_on_c, 2, 67, 95
3, 91200, Note_on_c, 2, 64, 95
3, 91200, Note_on_c, 2, 60, 95
3, 91200, Note_on_c, 2, 55, 95
3, 91200, Note_on_c, 2, 48, 95
3, 91200, Note_on_c, 2, 43, 95
3, 91680, Note_off_c, 2, 67, 95
3, 91680, Note_off_c, 2, 64, 95
3, 91680, Note_off_c, 2, 60, 95
3, 91680, Note_off_c, 2, 55, 95
3, 91680, Note_off_c, 2, 48, 95
3, 91680, Note_off_c, 2, 43, 95
3, 91680, Note_on_c, 2, 67, 95
3, 91680, Note_on_c, 2, 64, 95
3, 91680, Note_on_c, 2, 60, 95
3, 91680, Note_on_c, 2, 55, 95
3, 91680, Note_on_c, 2, 48, 95
3, 91680, Note_on_c, 2, 43, 95
3, 92160, Note_off_c, 2, 67, 95
3, 92160, Note_off_c, 2, 64, 95
3, 92160, Note_off_c, 2, 60, 95
3, 92160, Note_off_c, 2, 55, 95
3, 92160, Note_off_c, 2, 48, 95
3, 92160, Note_off_c, 2, 43, 95
3, 92160, Note_on_c, 2, 67, 95
3, 92160, Note_on_c, 2, 62, 95
3, 92160, Note_on_c, 2, 59, 95
3, 92160, Note_on_c, 2, 55, 95
3, 92160, Note_on_c, 2, 50, 95
3, 92160, Note_on_c, 2, 43, 95
3, 92640, Note_off_c, 2, 67, 95
3, 92640, Note_off_c, 2, 62, 95
3, 92640, Note_off_c, 2, 59, 95
3, 92640, Note_off_c, 2, 55, 95
3, 92640, Note_off_c, 2, 50, 95
3, 92640, Note_off_c, 2, 43, 95
3, 92640, Note_on_c, 2, 67, 95
3, 92640, Note_on_c, 2, 62, 95
3, 92640, Note_on_c, 2, 59, 95
3, 92640, Note_on_c, 2, 55, 95
3, 92640, Note_on_c, 2, 50, 95
3, 92640, Note_on_c, 2, 43, 95
3, 93120, Note_off_c, 2, 67, 95
3, 93120, Note_off_c, 2, 62, 95
3, 93120, Note_off_c, 2, 59, 95
3, 93120, Note_off_c, 2, 55, 95
3, 93120, Note_off_c, 2, 50, 95
3, 93120, Note_off_c, 2, 43, 95
3, 93120, Note_on_c, 2, 67, 95
3, 93120, Note_on_c, 2, 62, 95
3, 93120, Note_on_c, 2, 59, 95
3, 93120, Note_on_c, 2, 55, 95
3, 93120, Note_on_c, 2, 50, 95
3, 93120, Note_on_c, 2, 43, 95
3, 93600, Note_off_c, 2, 67, 95
3, 93600, Note_off_c, 2, 62, 95
3, 93600, Note_off_c, 2, 59, 95
3, 93600, Note_off_c, 2, 55, 95
3, 93600, Note_off_c, 2, 50, 95
3, 93600, Note_off_c, 2, 43, 95
3, 93600, Note_on_c, 2, 67, 95
3, 93600, Note_on_c, 2, 62, 95
3, 93600, Note_on_c, 2, 59, 95
3, 93600, Note_on_c, 2, 55, 95
3, 93600, Note_on_c, 2, 50, 95
3, 93600, Note_on_c, 2, 43, 95
3, 94080, Note_off_c, 2, 67, 95
3, 94080, Note_off_c, 2, 62, 95
3, 94080, Note_off_c, 2, 59, 95
3, 94080, Note_off_c, 2, 55, 95
3, 94080, Note_off_c, 2, 50, 95
3, 94080, Note_off_c, 2, 43, 95
3, 94080, Note_on_c, 2, 67, 95
3, 94080, Note_on_c, 2, 62, 95
3, 94080, Note_on_c, 2, 59, 95
3, 94080, Note_on_c, 2, 55, 95
3, 94080, Note_on_c, 2, 50, 95
3, 94080, Note_on_c, 2, 43, 95
3, 94560, Note_off_c, 2, 67, 95
3, 94560, Note_off_c, 2, 62, 95
3, 94560, Note_off_c, 2, 59, 95
3, 94560, Note_off_c, 2, 55, 95
3, 94560, Note_off_c, 2, 50, 95
3, 94560, Note_off_c, 2, 43, 95
3, 94560, Note_on_c, 2, 67, 95
3, 94560, Note_on_c, 2, 62, 95
3, 94560, Note_on_c, 2, 59, 95
3, 94560, Note_on_c, 2, 55, 95
3, 94560, Note_on_c, 2, 50, 95
3, 94560, Note_on_c, 2, 43, 95
3, 95040, Note_off_c, 2, 67, 95
3, 95040, Note_off_c, 2, 62, 95
3, 95040, Note_off_c, 2, 59, 95
3, 95040, Note_off_c, 2, 55, 95
3, 95040, Note_off_c, 2, 50, 95
3, 95040, Note_off_c, 2, 43, 95
3, 95040, Note_on_c, 2, 67, 95
3, 95040, Note_on_c, 2, 62, 95
3, 95040, Note_on_c, 2, 59, 95
3, 95040, Note_on_c, 2, 55, 95
3, 95040, Note_on_c, 2, 50, 95
3, 95040, Note_on_c, 2, 43, 95
3, 95520, Note_off_c, 2, 67, 95
3, 95520, Note_off_c, 2, 62, 95
3, 95520, Note_off_c, 2, 59, 95
3, 95520, Note_off_c, 2, 55, 95
3, 95520, Note_off_c, 2, 50, 95
3, 95520, Note_off_c, 2, 43, 95
3, 95520, Note_on_c, 2, 67, 95
3, 95520, Note_on_c, 2, 62, 95
3, 95520, Note_on_c, 2, 59, 95
3, 95520, Note_on_c, 2, 55, 95
3, 95520, Note_on_c, 2, 50, 95
3, 95520, Note_on_c, 2, 43, 95
3, 96000, Note_off_c, 2, 67, 95
3, 96000, Note_off_c, 2, 62, 95
3, 96000, Note_off_c, 2, 59, 95
3, 96000, Note_off_c, 2, 55, 95
3, 96000, Note_off_c, 2, 50, 95
3, 96000, Note_off_c, 2, 43, 95
3, 96000, Note_on_c, 2, 50, 95
3, 96960, Note_off_c, 2, 50, 95
3, 96960, Note_on_c, 2, 50, 95
3, 97920, Note_off_c, 2, 50, 95
3, 97920, Note_on_c, 2, 50, 95
3, 98400, Note_off_c, 2, 50, 95
3, 98400, Note_on_c, 2, 50, 95
3, 99360, Note_off_c, 2, 50, 95
3, 99360, Note_on_c, 2, 50, 95
3, 99840, Note_off_c, 2, 50, 95
3, 99840, Note_on_c, 2, 57, 95
3, 100320, Note_off_c, 2, 57, 95
3, 100320, Note_on_c, 2, 57, 95
3, 101280, Note_off_c, 2, 57, 95
3, 101280, Note_on_c, 2, 57, 95
3, 102240, Note_off_c, 2, 57, 95
3, 102240, Note_on_c, 2, 57, 95
3, 103200, Note_off_c, 2, 57, 95
3, 103200, Note_on_c, 2, 57, 95
3, 103680, Note_off_c, 2, 57, 95
3, 103680, Note_on_c, 2, 50, 95
3, 104640, Note_off_c, 2, 50, 95
3, 104640, Note_on_c, 2, 50, 95
3, 105600, Note_off_c, 2, 50, 95
3, 105600, Note_on_c, 2, 50, 95
3, 106080, Note_off_c, 2, 50, 95
3, 106080, Note_on_c, 2, 50, 95
3, 107040, Note_off_c, 2, 50, 95
3, 107040, Note_on_c, 2, 50, 95
3, 107520, Note_off_c, 2, 50, 95
3, 107520, Note_on_c, 2, 57, 95
3, 108000, Note_off_c, 2, 57, 95
3, 108000, Note_on_c, 2, 57, 95
3, 108960, Note_off_c, 2, 57, 95
3, 108960, Note_on_c, 2, 57, 95
3, 109920, Note_off_c, 2, 57, 95
3, 109920, Note_on_c, 2, 57, 95
3, 110880, Note_off_c, 2, 57, 95
3, 110880, Note_on_c, 2, 57, 95
3, 111360, Note_off_c, 2, 57, 95
3, 111360, Note_on_c, 2, 72, 95
3, 111360, Note_on_c, 2, 67, 95
3, 111360, Note_on_c, 2, 64, 95
3, 111360, Note_on_c, 2, 60, 95
3, 111360, Note_on_c, 2, 55, 95
3, 111360, Note_on_c, 2, 48, 95
3, 111840, Note_off_c, 2, 72, 95
3, 111840, Note_off_c, 2, 67, 95
3, 111840, Note_off_c, 2, 64, 95
3, 111840, Note_off_c, 2, 60, 95
3, 111840, Note_off_c, 2, 55, 95
3, 111840, Note_off_c, 2, 48, 95
3, 111840, Note_on_c, 2, 72, 95
3, 111840, Note_on_c, 2, 67, 95
3, 111840, Note_on_c, 2, 64, 95
3, 111840, Note_on_c, 2, 60, 95
3, 111840, Note_on_c, 2, 55, 95
3, 111840, Note_on_c, 2, 48, 95
3, 112320, Note_off_c, 2, 72, 95
3, 112320, Note_off_c, 2, 67, 95
3, 112320, Note_off_c, 2, 64, 95
3, 112320, Note_off_c, 2, 60, 95
3, 112320, Note_off_c, 2, 55, 95
3, 112320, Note_off_c, 2, 48, 95
3, 112320, Note_on_c, 2, 72, 95
3, 112320, Note_on_c, 2, 67, 95
3, 112320, Note_on_c, 2, 64, 95
3, 112320, Note_on_c, 2, 60, 95
3, 112320, Note_on_c, 2, 55, 95
3, 112320, Note_on_c, 2, 48, 95
3, 112800, Note_off_c, 2, 72, 95
3, 112800, Note_off_c, 2, 67, 95
3, 112800, Note_off_c, 2, 64, 95
3, 112800, Note_off_c, 2, 60, 95
3, 112800, Note_off_c, 2, 55, 95
3, 112800, Note_off_c, 2, 48, 95
3, 112800, Note_on_c, 2, 72, 95
3, 112800, Note_on_c, 2, 67, 95
3, 112800, Note_on_c, 2, 64, 95
3, 112800, Note_on_c, 2, 60, 95
3, 112800, Note_on_c, 2, 55, 95
3, 112800, Note_on_c, 2, 48, 95
3, 113280, Note_off_c, 2, 72, 95
3, 113280, Note_off_c, 2, 67, 95
3, 113280, Note_off_c, 2, 64, 95
3, 113280, Note_off_c, 2, 60, 95
3, 113280, Note_off_c, 2, 55, 95
3, 113280, Note_off_c, 2, 48, 95
3, 113280, Note_on_c, 2, 72, 95
3, 113280, Note_on_c, 2, 67, 95
3, 113280, Note_on_c, 2, 64, 95
3, 113280, Note_on_c, 2, 60, 95
3, 113280, Note_on_c, 2, 55, 95
3, 113280, Note_on_c, 2, 48, 95
3, 113760, Note_off_c, 2, 72, 95
3, 113760, Note_off_c, 2, 67, 95
3, 113760, Note_off_c, 2, 64, 95
3, 113760, Note_off_c, 2, 60, 95
3, 113760, Note_off_c, 2, 55, 95
3, 113760, Note_off_c, 2, 48, 95
3, 113760, Note_on_c, 2, 72, 95
3, 113760, Note_on_c, 2, 67, 95
3, 113760, Note_on_c, 2, 64, 95
3, 113760, Note_on_c, 2, 60, 95
3, 113760, Note_on_c, 2, 55, 95
3, 113760, Note_on_c, 2, 48, 95
3, 114240, Note_off_c, 2, 72, 95
3, 114240, Note_off_c, 2, 67, 95
3, 114240, Note_off_c, 2, 64, 95
3, 114240, Note_off_c, 2, 60, 95
3, 114240, Note_off_c, 2, 55, 95
3, 114240, Note_off_c, 2, 48, 95
3, 114240, Note_on_c, 2, 72, 95
3, 114240, Note_on_c, 2, 67, 95
3, 114240, Note_on_c, 2, 64, 95
3, 114240, Note_on_c, 2, 60, 95
3, 114240, Note_on_c, 2, 55, 95
3, 114240, Note_on_c, 2, 48, 95
3, 114720, Note_off_c, 2, 72, 95
3, 114720, Note_off_c, 2, 67, 95
3, 114720, Note_off_c, 2, 64, 95
3, 114720, Note_off_c, 2, 60, 95
3, 114720, Note_off_c, 2, 55, 95
3, 114720, Note_off_c, 2, 48, 95
3, 114720, Note_on_c, 2, 72, 95
3, 114720, Note_on_c, 2, 69, 95
3, 114720, Note_on_c, 2, 65, 95
3, 114720, Note_on_c, 2, 60, 95
3, 114720, Note_on_c, 2, 53, 95
3, 114720, Note_on_c, 2, 48, 95
3, 115680, Note_off_c, 2, 72, 95
3, 115680, Note_off_c, 2, 69, 95
3, 115680, Note_off_c, 2, 65, 95
3, 115680, Note_off_c, 2, 60, 95
3, 115680, Note_off_c, 2, 53, 95
3, 115680, Note_off_c, 2, 48, 95
3, 115680, Note_on_c, 2, 72, 95
3, 115680, Note_on_c, 2, 69, 95
3, 115680, Note_on_c, 2, 65, 95
3, 115680, Note_on_c, 2, 60, 95
3, 115680, Note_on_c, 2, 53, 95
3, 115680, Note_on_c, 2, 48, 95
3, 116160, Note_off_c, 2, 72, 95
3, 116160, Note_off_c, 2, 69, 95
3, 116160, Note_off_c, 2, 65, 95
3, 116160, Note_off_c, 2, 60, 95
3, 116160, Note_off_c, 2, 53, 95
3, 116160, Note_off_c, 2, 48, 95
3, 116160, Note_on_c, 2, 72, 95
3, 116160, Note_on_c, 2, 69, 95
3, 116160, Note_on_c, 2, 65, 95
3, 116160, Note_on_c, 2, 60, 95
3, 116160, Note_on_c, 2, 53, 95
3, 116160, Note_on_c, 2, 48, 95
3, 117120, Note_off_c, 2, 72, 95
3, 117120, Note_off_c, 2, 69, 95
3, 117120, Note_off_c, 2, 65, 95
3, 117120, Note_off_c, 2, 60, 95
3, 117120, Note_off_c, 2, 53, 95
3, 117120, Note_off_c, 2, 48, 95
3, 117120, Note_on_c, 2, 72, 95
3, 117120, Note_on_c, 2, 69, 95
3, 117120, Note_on_c, 2, 65, 95
3, 117120, Note_on_c, 2, 60, 95
3, 117120, Note_on_c, 2, 53, 95
3, 117120, Note_on_c, 2, 48, 95
3, 117600, Note_off_c, 2, 72, 95
3, 117600, Note_off_c, 2, 69, 95
3, 117600, Note_off_c, 2, 65, 95
3, 117600, Note_off_c, 2, 60, 95
3, 117600, Note_off_c, 2, 53, 95
3, 117600, Note_off_c, 2, 48, 95
3, 117600, Note_on_c, 2, 72, 95
3, 117600, Note_on_c, 2, 69, 95
3, 117600, Note_on_c, 2, 65, 95
3, 117600, Note_on_c, 2, 60, 95
3, 117600, Note_on_c, 2, 53, 95
3, 117600, Note_on_c, 2, 48, 95
3, 118080, Note_off_c, 2, 72, 95
3, 118080, Note_off_c, 2, 69, 95
3, 118080, Note_off_c, 2, 65, 95
3, 118080, Note_off_c, 2, 60, 95
3, 118080, Note_off_c, 2, 53, 95
3, 118080, Note_off_c, 2, 48, 95
3, 118080, Note_on_c, 2, 72, 95
3, 118080, Note_on_c, 2, 69, 95
3, 118080, Note_on_c, 2, 65, 95
3, 118080, Note_on_c, 2, 60, 95
3, 118080, Note_on_c, 2, 53, 95
3, 118080, Note_on_c, 2, 48, 95
3, 118560, Note_off_c, 2, 72, 95
3, 118560, Note_off_c, 2, 69, 95
3, 118560, Note_off_c, 2, 65, 95
3, 118560, Note_off_c, 2, 60, 95
3, 118560, Note_off_c, 2, 53, 95
3, 118560, Note_off_c, 2, 48, 95
3, 118560, Note_on_c, 2, 72, 95
3, 118560, Note_on_c, 2, 69, 95
3, 118560, Note_on_c, 2, 65, 95
3, 118560, Note_on_c, 2, 60, 95
3, 118560, Note_on_c, 2, 53, 95
3, 118560, Note_on_c, 2, 48, 95
3, 119040, Note_off_c, 2, 72, 95
3, 119040, Note_off_c, 2, 69, 95
3, 119040, Note_off_c, 2, 65, 95
3, 119040, Note_off_c, 2, 60, 95
3, 119040, Note_off_c, 2, 53, 95
3, 119040, Note_off_c, 2, 48, 95
3, 119040, Note_on_c, 2, 72, 95
3, 119040, Note_on_c, 2, 67, 95
3, 119040, Note_on_c, 2, 64, 95
3, 119040, Note_on_c, 2, 60, 95
3, 119040, Note_on_c, 2, 55, 95
3, 119040, Note_on_c, 2, 48, 95
3, 120000, Note_off_c, 2, 72, 95
3, 120000, Note_off_c, 2, 67, 95
3, 120000, Note_off_c, 2, 64, 95
3, 120000, Note_off_c, 2, 60, 95
3, 120000, Note_off_c, 2, 55, 95
3, 120000, Note_off_c, 2, 48, 95
3, 120000, Note_on_c, 2, 72, 95
3, 120000, Note_on_c, 2, 67, 95
3, 120000, Note_on_c, 2, 64, 95
3, 120000, Note_on_c, 2, 60, 95
3, 120000, Note_on_c, 2, 55, 95
3, 120000, Note_on_c, 2, 48, 95
3, 120960, Note_off_c, 2, 72, 95
3, 120960, Note_off_c, 2, 67, 95
3, 120960, Note_off_c, 2, 64, 95
3, 120960, Note_off_c, 2, 60, 95
3, 120960, Note_off_c, 2, 55, 95
3, 120960, Note_off_c, 2, 48, 95
3, 120960, Note_on_c, 2, 72, 95
3, 120960, Note_on_c, 2, 67, 95
3, 120960, Note_on_c, 2, 64, 95
3, 120960, Note_on_c, 2, 60, 95
3, 120960, Note_on_c, 2, 55, 95
3, 120960, Note_on_c, 2, 48, 95
3, 121440, Note_off_c, 2, 72, 95
3, 121440, Note_off_c, 2, 67, 95
3, 121440, Note_off_c, 2, 64, 95
3, 121440, Note_off_c, 2, 60, 95
3, 121440, Note_off_c, 2, 55, 95
3, 121440, Note_off_c, 2, 48, 95
3, 121440, Note_on_c, 2, 72, 95
3, 121440, Note_on_c, 2, 67, 95
3, 121440, Note_on_c, 2, 64, 95
3, 121440, Note_on_c, 2, 60, 95
3, 121440, Note_on_c, 2, 55, 95
3, 121440, Note_on_c, 2, 48, 95
3, 121920, Note_off_c, 2, 72, 95
3, 121920, Note_off_c, 2, 67, 95
3, 121920, Note_off_c, 2, 64, 95
3, 121920, Note_off_c, 2, 60, 95
3, 121920, Note_off_c, 2, 55, 95
3, 121920, Note_off_c, 2, 48, 95
3, 121920, Note_on_c, 2, 72, 95
3, 121920, Note_on_c, 2, 67, 95
3, 121920, Note_on_c, 2, 64, 95
3, 121920, Note_on_c, 2, 60, 95
3, 121920, Note_on_c, 2, 55, 95
3, 121920, Note_on_c, 2, 48, 95
3, 122400, Note_off_c, 2, 72, 95
3, 122400, Note_off_c, 2, 67, 95
3, 122400, Note_off_c, 2, 64, 95
3, 122400, Note_off_c, 2, 60, 95
3, 122400, Note_off_c, 2, 55, 95
3, 122400, Note_off_c, 2, 48, 95
3, 122400, Note_on_c, 2, 72, 95
3, 122400, Note_on_c, 2, 67, 95
3, 122400, Note_on_c, 2, 64, 95
3, 122400, Note_on_c, 2, 60, 95
3, 122400, Note_on_c, 2, 55, 95
3, 122400, Note_on_c, 2, 48, 95
3, 122880, Note_off_c, 2, 72, 95
3, 122880, Note_off_c, 2, 67, 95
3, 122880, Note_off_c, 2, 64, 95
3, 122880, Note_off_c, 2, 60, 95
3, 122880, Note_off_c, 2, 55, 95
3, 122880, Note_off_c, 2, 48, 95
3, 122880, Note_on_c, 2, 69, 95
3, 122880, Note_on_c, 2, 65, 95
3, 122880, Note_on_c, 2, 60, 95
3, 122880, Note_on_c, 2, 53, 95
3, 123360, Note_off_c, 2, 69, 95
3, 123360, Note_off_c, 2, 65, 95
3, 123360, Note_off_c, 2, 60, 95
3, 123360, Note_off_c, 2, 53, 95
3, 123360, Note_on_c, 2, 69, 95
3, 123360, Note_on_c, 2, 65, 95
3, 123360, Note_on_c, 2, 60, 95
3, 123360, Note_on_c, 2, 53, 95
3, 123840, Note_off_c, 2, 69, 95
3, 123840, Note_off_c, 2, 65, 95
3, 123840, Note_off_c, 2, 60, 95
3, 123840, Note_off_c, 2, 53, 95
3, 123840, Note_on_c, 2, 64, 95
3, 123840, Note_on_c, 2, 60, 95
3, 123840, Note_on_c, 2, 55, 95
3, 123840, Note_on_c, 2, 48, 95
3, 124320, Note_off_c, 2, 64, 95
3, 124320, Note_off_c, 2, 60, 95
3, 124320, Note_off_c, 2, 55, 95
3, 124320, Note_off_c, 2, 48, 95
3, 124320, Note_on_c, 2, 69, 95
3, 124320, Note_on_c, 2, 65, 95
3, 124320, Note_on_c, 2, 60, 95
3, 124320, Note_on_c, 2, 53, 95
3, 124800, Note_off_c, 2, 65, 95
3, 125280, Note_off_c, 2, 69, 95
3, 125280, Note_off_c, 2, 60, 95
3, 125280, Note_off_c, 2, 53, 95
3, 125280, Note_on_c, 2, 69, 95
3, 125280, Note_on_c, 2, 65, 95
3, 125280, Note_on_c, 2, 60, 95
3, 125280, Note_on_c, 2, 53, 95
3, 125760, Note_off_c, 2, 69, 95
3, 125760, Note_off_c, 2, 65, 95
3, 125760, Note_off_c, 2, 60, 95
3, 125760, Note_off_c, 2, 53, 95
3, 125760, Note_on_c, 2, 64, 95
3, 125760, Note_on_c, 2, 60, 95
3, 125760, Note_on_c, 2, 55, 95
3, 125760, Note_on_c, 2, 48, 95
3, 126240, Note_off_c, 2, 64, 95
3, 126240, Note_off_c, 2, 60, 95
3, 126240, Note_off_c, 2, 55, 95
3, 126240, Note_off_c, 2, 48, 95
3, 126240, Note_on_c, 2, 69, 95
3, 126240, Note_on_c, 2, 65, 95
3, 126240, Note_on_c, 2, 60, 95
3, 126240, Note_on_c, 2, 53, 95
3, 126720, Note_off_c, 2, 65, 95
3, 127200, Note_off_c, 2, 69, 95
3, 127200, Note_off_c, 2, 60, 95
3, 127200, Note_off_c, 2, 53, 95
3, 127200, Note_on_c, 2, 69, 95
3, 127200, Note_on_c, 2, 65, 95
3, 127200, Note_on_c, 2, 60, 95
3, 127200, Note_on_c, 2, 53, 95
3, 127680, Note_off_c, 2, 69, 95
3, 127680, Note_off_c, 2, 65, 95
3, 127680, Note_off_c, 2, 60, 95
3, 127680, Note_off_c, 2, 53, 95
3, 127680, Note_on_c, 2, 64, 95
3, 127680, Note_on_c, 2, 60, 95
3, 127680, Note_on_c, 2, 55, 95
3, 127680, Note_on_c, 2, 48, 95
3, 128160, Note_off_c, 2, 64, 95
3, 128160, Note_off_c, 2, 60, 95
3, 128160, Note_off_c, 2, 55, 95
3, 128160, Note_off_c, 2, 48, 95
3, 128160, Note_on_c, 2, 69, 95
3, 128160, Note_on_c, 2, 65, 95
3, 128160, Note_on_c, 2, 60, 95
3, 128160, Note_on_c, 2, 53, 95
3, 128640, Note_off_c, 2, 65, 95
3, 129120, Note_off_c, 2, 69, 95
3, 129120, Note_off_c, 2, 60, 95
3, 129120, Note_off_c, 2, 53, 95
3, 129120, Note_on_c, 2, 69, 95
3, 129120, Note_on_c, 2, 65, 95
3, 129120, Note_on_c, 2, 60, 95
3, 129120, Note_on_c, 2, 53, 95
3, 129600, Note_off_c, 2, 69, 95
3, 129600, Note_off_c, 2, 65, 95
3, 129600, Note_off_c, 2, 60, 95
3, 129600, Note_off_c, 2, 53, 95
3, 129600, Note_on_c, 2, 64, 95
3, 129600, Note_on_c, 2, 60, 95
3, 129600, Note_on_c, 2, 55, 95
3, 129600, Note_on_c, 2, 48, 95
3, 130080, Note_off_c, 2, 64, 95
3, 130080, Note_off_c, 2, 60, 95
3, 130080, Note_off_c, 2, 55, 95
3, 130080, Note_off_c, 2, 48, 95
3, 130080, Note_on_c, 2, 69, 95
3, 130080, Note_on_c, 2, 65, 95
3, 130080, Note_on_c, 2, 60, 95
3, 130080, Note_on_c, 2, 53, 95
3, 130560, Note_off_c, 2, 69, 95
3, 130560, Note_off_c, 2, 65, 95
3, 130560, Note_off_c, 2, 60, 95
3, 130560, Note_off_c, 2, 53, 95
3, 130560, Note_on_c, 2, 69, 95
3, 130560, Note_on_c, 2, 65, 95
3, 130560, Note_on_c, 2, 60, 95
3, 130560, Note_on_c, 2, 53, 95
3, 131040, Note_off_c, 2, 69, 95
3, 131040, Note_off_c, 2, 65, 95
3, 131040, Note_off_c, 2, 60, 95
3, 131040, Note_off_c, 2, 53, 95
3, 131040, Note_on_c, 2, 69, 95
3, 131040, Note_on_c, 2, 65, 95
3, 131040, Note_on_c, 2, 60, 95
3, 131040, Note_on_c, 2, 53, 95
3, 131520, Note_off_c, 2, 69, 95
3, 131520, Note_off_c, 2, 65, 95
3, 131520, Note_off_c, 2, 60, 95
3, 131520, Note_off_c, 2, 53, 95
3, 131520, Note_on_c, 2, 64, 95
3, 131520, Note_on_c, 2, 60, 95
3, 131520, Note_on_c, 2, 55, 95
3, 131520, Note_on_c, 2, 48, 95
3, 132000, Note_off_c, 2, 64, 95
3, 132000, Note_off_c, 2, 60, 95
3, 132000, Note_off_c, 2, 55, 95
3, 132000, Note_off_c, 2, 48, 95
3, 132000, Note_on_c, 2, 69, 95
3, 132000, Note_on_c, 2, 65, 95
3, 132000, Note_on_c, 2, 60, 95
3, 132000, Note_on_c, 2, 53, 95
3, 132480, Note_off_c, 2, 69, 95
3, 132480, Note_off_c, 2, 65, 95
3, 132480, Note_off_c, 2, 60, 95
3, 132480, Note_off_c, 2, 53, 95
3, 132480, Note_on_c, 2, 69, 95
3, 132480, Note_on_c, 2, 65, 95
3, 132480, Note_on_c, 2, 60, 95
3, 132480, Note_on_c, 2, 53, 95
3, 132960, Note_off_c, 2, 69, 95
3, 132960, Note_off_c, 2, 65, 95
3, 132960, Note_off_c, 2, 60, 95
3, 132960, Note_off_c, 2, 53, 95
3, 132960, Note_on_c, 2, 69, 95
3, 132960, Note_on_c, 2, 65, 95
3, 132960, Note_on_c, 2, 60, 95
3, 132960, Note_on_c, 2, 53, 95
3, 133440, Note_off_c, 2, 69, 95
3, 133440, Note_off_c, 2, 65, 95
3, 133440, Note_off_c, 2, 60, 95
3, 133440, Note_off_c, 2, 53, 95
3, 133440, Note_on_c, 2, 64, 95
3, 133440, Note_on_c, 2, 60, 95
3, 133440, Note_on_c, 2, 55, 95
3, 133440, Note_on_c, 2, 48, 95
3, 133920, Note_off_c, 2, 64, 95
3, 133920, Note_off_c, 2, 60, 95
3, 133920, Note_off_c, 2, 55, 95
3, 133920, Note_off_c, 2, 48, 95
3, 133920, Note_on_c, 2, 69, 95
3, 133920, Note_on_c, 2, 65, 95
3, 133920, Note_on_c, 2, 60, 95
3, 133920, Note_on_c, 2, 53, 95
3, 133920, Note_on_c, 2, 48, 95
3, 134400, Note_off_c, 2, 69, 95
3, 134400, Note_off_c, 2, 65, 95
3, 134400, Note_off_c, 2, 60, 95
3, 134400, Note_off_c, 2, 53, 95
3, 134400, Note_off_c, 2, 48, 95
3, 134400, Note_on_c, 2, 69, 95
3, 134400, Note_on_c, 2, 65, 95
3, 134400, Note_on_c, 2, 60, 95
3, 134400, Note_on_c, 2, 53, 95
3, 134880, Note_off_c, 2, 69, 95
3, 134880, Note_off_c, 2, 65, 95
3, 134880, Note_off_c, 2, 60, 95
3, 134880, Note_off_c, 2, 53, 95
3, 134880, Note_on_c, 2, 69, 95
3, 134880, Note_on_c, 2, 65, 95
3, 134880, Note_on_c, 2, 60, 95
3, 134880, Note_on_c, 2, 53, 95
3, 135360, Note_off_c, 2, 69, 95
3, 135360, Note_off_c, 2, 65, 95
3, 135360, Note_off_c, 2, 60, 95
3, 135360, Note_off_c, 2, 53, 95
3, 135360, Note_on_c, 2, 69, 95
3, 135360, Note_on_c, 2, 65, 95
3, 135360, Note_on_c, 2, 60, 95
3, 135360, Note_on_c, 2, 53, 95
3, 135840, Note_off_c, 2, 69, 95
3, 135840, Note_off_c, 2, 65, 95
3, 135840, Note_off_c, 2, 60, 95
3, 135840, Note_off_c, 2, 53, 95
3, 135840, Note_on_c, 2, 69, 95
3, 135840, Note_on_c, 2, 65, 95
3, 135840, Note_on_c, 2, 60, 95
3, 135840, Note_on_c, 2, 53, 95
3, 136320, Note_off_c, 2, 69, 95
3, 136320, Note_off_c, 2, 65, 95
3, 136320, Note_off_c, 2, 60, 95
3, 136320, Note_off_c, 2, 53, 95
3, 136320, Note_on_c, 2, 64, 95
3, 136320, Note_on_c, 2, 60, 95
3, 136320, Note_on_c, 2, 55, 95
3, 136320, Note_on_c, 2, 48, 95
3, 136800, Note_off_c, 2, 64, 95
3, 136800, Note_off_c, 2, 60, 95
3, 136800, Note_off_c, 2, 55, 95
3, 136800, Note_off_c, 2, 48, 95
3, 136800, Note_on_c, 2, 64, 95
3, 136800, Note_on_c, 2, 60, 95
3, 136800, Note_on_c, 2, 55, 95
3, 136800, Note_on_c, 2, 48, 95
3, 137280, Note_off_c, 2, 64, 95
3, 137280, Note_off_c, 2, 60, 95
3, 137280, Note_off_c, 2, 55, 95
3, 137280, Note_off_c, 2, 48, 95
3, 137280, Note_on_c, 2, 64, 95
3, 137280, Note_on_c, 2, 60, 95
3, 137280, Note_on_c, 2, 55, 95
3, 137280, Note_on_c, 2, 48, 95
3, 137760, Note_off_c, 2, 64, 95
3, 137760, Note_off_c, 2, 60, 95
3, 137760, Note_off_c, 2, 55, 95
3, 137760, Note_off_c, 2, 48, 95
3, 137760, Note_on_c, 2, 64, 95
3, 137760, Note_on_c, 2, 60, 95
3, 137760, Note_on_c, 2, 53, 95
3, 137760, Note_on_c, 2, 48, 95
3, 138240, Note_off_c, 2, 64, 95
3, 138240, Note_off_c, 2, 60, 95
3, 138240, Note_off_c, 2, 53, 95
3, 138240, Note_off_c, 2, 48, 95
3, 138240, Note_on_c, 2, 69, 95
3, 138240, Note_on_c, 2, 65, 95
3, 138240, Note_on_c, 2, 60, 95
3, 138240, Note_on_c, 2, 53, 95
3, 138720, Note_off_c, 2, 69, 95
3, 138720, Note_off_c, 2, 65, 95
3, 138720, Note_off_c, 2, 60, 95
3, 138720, Note_off_c, 2, 53, 95
3, 138720, Note_on_c, 2, 69, 95
3, 138720, Note_on_c, 2, 65, 95
3, 138720, Note_on_c, 2, 60, 95
3, 138720, Note_on_c, 2, 53, 95
3, 139200, Note_off_c, 2, 69, 95
3, 139200, Note_off_c, 2, 65, 95
3, 139200, Note_off_c, 2, 60, 95
3, 139200, Note_off_c, 2, 53, 95
3, 139200, Note_on_c, 2, 69, 95
3, 139200, Note_on_c, 2, 65, 95
3, 139200, Note_on_c, 2, 60, 95
3, 139200, Note_on_c, 2, 53, 95
3, 140160, Note_off_c, 2, 69, 95
3, 140160, Note_off_c, 2, 65, 95
3, 140160, Note_off_c, 2, 60, 95
3, 140160, Note_off_c, 2, 53, 95
3, 140160, Note_on_c, 2, 69, 95
3, 140160, Note_on_c, 2, 65, 95
3, 140160, Note_on_c, 2, 60, 95
3, 140160, Note_on_c, 2, 53, 95
3, 140640, Note_off_c, 2, 69, 95
3, 140640, Note_off_c, 2, 65, 95
3, 140640, Note_off_c, 2, 60, 95
3, 140640, Note_off_c, 2, 53, 95
3, 140640, Note_on_c, 2, 64, 95
3, 140640, Note_on_c, 2, 60, 95
3, 140640, Note_on_c, 2, 55, 95
3, 140640, Note_on_c, 2, 48, 95
3, 141600, Note_off_c, 2, 64, 95
3, 141600, Note_off_c, 2, 60, 95
3, 141600, Note_off_c, 2, 55, 95
3, 141600, Note_off_c, 2, 48, 95
3, 141600, Note_on_c, 2, 69, 95
3, 141600, Note_on_c, 2, 65, 95
3, 141600, Note_on_c, 2, 60, 95
3, 141600, Note_on_c, 2, 53, 95
3, 142560, Note_off_c, 2, 69, 95
3, 142560, Note_off_c, 2, 65, 95
3, 142560, Note_off_c, 2, 60, 95
3, 142560, Note_off_c, 2, 53, 95
3, 142560, Note_on_c, 2, 69, 95
3, 142560, Note_on_c, 2, 65, 95
3, 142560, Note_on_c, 2, 60, 95
3, 142560, Note_on_c, 2, 53, 95
3, 143040, Note_off_c, 2, 69, 95
3, 143040, Note_off_c, 2, 65, 95
3, 143040, Note_off_c, 2, 60, 95
3, 143040, Note_off_c, 2, 53, 95
3, 143040, Note_on_c, 2, 69, 95
3, 143040, Note_on_c, 2, 65, 95
3, 143040, Note_on_c, 2, 60, 95
3, 143040, Note_on_c, 2, 53, 95
3, 144000, Note_off_c, 2, 69, 95
3, 144000, Note_off_c, 2, 65, 95
3, 144000, Note_off_c, 2, 60, 95
3, 144000, Note_off_c, 2, 53, 95
3, 144000, Note_on_c, 2, 69, 95
3, 144000, Note_on_c, 2, 65, 95
3, 144000, Note_on_c, 2, 60, 95
3, 144000, Note_on_c, 2, 53, 95
3, 144480, Note_off_c, 2, 69, 95
3, 144480, Note_off_c, 2, 65, 95
3, 144480, Note_off_c, 2, 60, 95
3, 144480, Note_off_c, 2, 53, 95
3, 144480, Note_on_c, 2, 69, 95
3, 144480, Note_on_c, 2, 65, 95
3, 144480, Note_on_c, 2, 60, 95
3, 144480, Note_on_c, 2, 53, 95
3, 144960, Note_off_c, 2, 69, 95
3, 144960, Note_off_c, 2, 65, 95
3, 144960, Note_off_c, 2, 60, 95
3, 144960, Note_off_c, 2, 53, 95
3, 144960, Note_on_c, 2, 64, 95
3, 144960, Note_on_c, 2, 60, 95
3, 144960, Note_on_c, 2, 55, 95
3, 144960, Note_on_c, 2, 48, 95
3, 145440, Note_off_c, 2, 64, 95
3, 145440, Note_off_c, 2, 60, 95
3, 145440, Note_off_c, 2, 55, 95
3, 145440, Note_off_c, 2, 48, 95
3, 145440, Note_on_c, 2, 69, 95
3, 145440, Note_on_c, 2, 65, 95
3, 145440, Note_on_c, 2, 60, 95
3, 145440, Note_on_c, 2, 53, 95
3, 146400, Note_off_c, 2, 69, 95
3, 146400, Note_off_c, 2, 65, 95
3, 146400, Note_off_c, 2, 60, 95
3, 146400, Note_off_c, 2, 53, 95
3, 146400, Note_on_c, 2, 69, 95
3, 146400, Note_on_c, 2, 65, 95
3, 146400, Note_on_c, 2, 60, 95
3, 146400, Note_on_c, 2, 53, 95
3, 146880, Note_off_c, 2, 69, 95
3, 146880, Note_off_c, 2, 65, 95
3, 146880, Note_off_c, 2, 60, 95
3, 146880, Note_off_c, 2, 53, 95
3, 146880, Note_on_c, 2, 64, 95
3, 146880, Note_on_c, 2, 60, 95
3, 146880, Note_on_c, 2, 55, 95
3, 146880, Note_on_c, 2, 48, 95
3, 147360, Note_off_c, 2, 64, 95
3, 147360, Note_off_c, 2, 60, 95
3, 147360, Note_off_c, 2, 55, 95
3, 147360, Note_off_c, 2, 48, 95
3, 147360, Note_on_c, 2, 69, 95
3, 147360, Note_on_c, 2, 65, 95
3, 147360, Note_on_c, 2, 60, 95
3, 147360, Note_on_c, 2, 53, 95
3, 147840, Note_off_c, 2, 69, 95
3, 147840, Note_off_c, 2, 65, 95
3, 147840, Note_off_c, 2, 60, 95
3, 147840, Note_off_c, 2, 53, 95
3, 147840, Note_on_c, 2, 69, 95
3, 147840, Note_on_c, 2, 65, 95
3, 147840, Note_on_c, 2, 60, 95
3, 147840, Note_on_c, 2, 53, 95
3, 148320, Note_off_c, 2, 69, 95
3, 148320, Note_off_c, 2, 65, 95
3, 148320, Note_off_c, 2, 60, 95
3, 148320, Note_off_c, 2, 53, 95
3, 148320, Note_on_c, 2, 69, 95
3, 148320, Note_on_c, 2, 65, 95
3, 148320, Note_on_c, 2, 60, 95
3, 148320, Note_on_c, 2, 53, 95
3, 148800, Note_off_c, 2, 69, 95
3, 148800, Note_off_c, 2, 65, 95
3, 148800, Note_off_c, 2, 60, 95
3, 148800, Note_off_c, 2, 53, 95
3, 148800, Note_on_c, 2, 64, 95
3, 148800, Note_on_c, 2, 60, 95
3, 148800, Note_on_c, 2, 55, 95
3, 148800, Note_on_c, 2, 48, 95
3, 149280, Note_off_c, 2, 64, 95
3, 149280, Note_off_c, 2, 60, 95
3, 149280, Note_off_c, 2, 55, 95
3, 149280, Note_off_c, 2, 48, 95
3, 149280, Note_on_c, 2, 69, 95
3, 149280, Note_on_c, 2, 65, 95
3, 149280, Note_on_c, 2, 60, 95
3, 149280, Note_on_c, 2, 53, 95
3, 149760, Note_off_c, 2, 69, 95
3, 149760, Note_off_c, 2, 65, 95
3, 149760, Note_off_c, 2, 60, 95
3, 149760, Note_off_c, 2, 53, 95
3, 149760, Note_on_c, 2, 69, 95
3, 149760, Note_on_c, 2, 65, 95
3, 149760, Note_on_c, 2, 60, 95
3, 149760, Note_on_c, 2, 53, 95
3, 150240, Note_off_c, 2, 69, 95
3, 150240, Note_off_c, 2, 65, 95
3, 150240, Note_off_c, 2, 60, 95
3, 150240, Note_off_c, 2, 53, 95
3, 150240, Note_on_c, 2, 69, 95
3, 150240, Note_on_c, 2, 65, 95
3, 150240, Note_on_c, 2, 60, 95
3, 150240, Note_on_c, 2, 53, 95
3, 150720, Note_off_c, 2, 69, 95
3, 150720, Note_off_c, 2, 65, 95
3, 150720, Note_off_c, 2, 60, 95
3, 150720, Note_off_c, 2, 53, 95
3, 150720, Note_on_c, 2, 64, 95
3, 150720, Note_on_c, 2, 60, 95
3, 150720, Note_on_c, 2, 55, 95
3, 150720, Note_on_c, 2, 48, 95
3, 151200, Note_off_c, 2, 64, 95
3, 151200, Note_off_c, 2, 60, 95
3, 151200, Note_off_c, 2, 55, 95
3, 151200, Note_off_c, 2, 48, 95
3, 151200, Note_on_c, 2, 69, 95
3, 151200, Note_on_c, 2, 65, 95
3, 151200, Note_on_c, 2, 60, 95
3, 151200, Note_on_c, 2, 53, 95
3, 152160, Note_off_c, 2, 69, 95
3, 152160, Note_off_c, 2, 65, 95
3, 152160, Note_off_c, 2, 60, 95
3, 152160, Note_off_c, 2, 53, 95
3, 152160, Note_on_c, 2, 69, 95
3, 152160, Note_on_c, 2, 65, 95
3, 152160, Note_on_c, 2, 60, 95
3, 152160, Note_on_c, 2, 53, 95
3, 152640, Note_off_c, 2, 69, 95
3, 152640, Note_off_c, 2, 65, 95
3, 152640, Note_off_c, 2, 60, 95
3, 152640, Note_off_c, 2, 53, 95
3, 152640, Note_on_c, 2, 64, 95
3, 152640, Note_on_c, 2, 60, 95
3, 152640, Note_on_c, 2, 55, 95
3, 152640, Note_on_c, 2, 48, 95
3, 153120, Note_off_c, 2, 64, 95
3, 153120, Note_off_c, 2, 60, 95
3, 153120, Note_off_c, 2, 55, 95
3, 153120, Note_off_c, 2, 48, 95
3, 153120, Note_on_c, 2, 69, 95
3, 153120, Note_on_c, 2, 65, 95
3, 153120, Note_on_c, 2, 60, 95
3, 153120, Note_on_c, 2, 53, 95
3, 153600, Note_off_c, 2, 69, 95
3, 153600, Note_off_c, 2, 65, 95
3, 153600, Note_off_c, 2, 60, 95
3, 153600, Note_off_c, 2, 53, 95
3, 153600, Note_on_c, 2, 69, 95
3, 153600, Note_on_c, 2, 65, 95
3, 153600, Note_on_c, 2, 60, 95
3, 153600, Note_on_c, 2, 53, 95
3, 154080, Note_off_c, 2, 69, 95
3, 154080, Note_off_c, 2, 65, 95
3, 154080, Note_off_c, 2, 60, 95
3, 154080, Note_off_c, 2, 53, 95
3, 154080, Note_on_c, 2, 69, 95
3, 154080, Note_on_c, 2, 65, 95
3, 154080, Note_on_c, 2, 60, 95
3, 154080, Note_on_c, 2, 53, 95
3, 154560, Note_off_c, 2, 69, 95
3, 154560, Note_off_c, 2, 65, 95
3, 154560, Note_off_c, 2, 60, 95
3, 154560, Note_off_c, 2, 53, 95
3, 154560, Note_on_c, 2, 69, 95
3, 154560, Note_on_c, 2, 65, 95
3, 154560, Note_on_c, 2, 60, 95
3, 154560, Note_on_c, 2, 53, 95
3, 155040, Note_off_c, 2, 69, 95
3, 155040, Note_off_c, 2, 65, 95
3, 155040, Note_off_c, 2, 60, 95
3, 155040, Note_off_c, 2, 53, 95
3, 155040, Note_on_c, 2, 64, 95
3, 155040, Note_on_c, 2, 60, 95
3, 155040, Note_on_c, 2, 55, 95
3, 155040, Note_on_c, 2, 48, 95
3, 155520, Note_off_c, 2, 64, 95
3, 155520, Note_off_c, 2, 60, 95
3, 155520, Note_off_c, 2, 55, 95
3, 155520, Note_off_c, 2, 48, 95
3, 155520, Note_on_c, 2, 64, 95
3, 155520, Note_on_c, 2, 60, 95
3, 155520, Note_on_c, 2, 55, 95
3, 155520, Note_on_c, 2, 48, 95
3, 156000, Note_off_c, 2, 64, 95
3, 156000, Note_off_c, 2, 60, 95
3, 156000, Note_off_c, 2, 55, 95
3, 156000, Note_off_c, 2, 48, 95
3, 156000, Note_on_c, 2, 64, 95
3, 156000, Note_on_c, 2, 60, 95
3, 156000, Note_on_c, 2, 55, 95
3, 156000, Note_on_c, 2, 48, 95
3, 156480, Note_off_c, 2, 64, 95
3, 156480, Note_off_c, 2, 60, 95
3, 156480, Note_off_c, 2, 55, 95
3, 156480, Note_off_c, 2, 48, 95
3, 156480, Note_on_c, 2, 64, 95
3, 156480, Note_on_c, 2, 60, 95
3, 156480, Note_on_c, 2, 55, 95
3, 156480, Note_on_c, 2, 48, 95
3, 156960, Note_off_c, 2, 64, 95
3, 156960, Note_off_c, 2, 60, 95
3, 156960, Note_off_c, 2, 55, 95
3, 156960, Note_off_c, 2, 48, 95
3, 156960, Note_on_c, 2, 64, 95
3, 156960, Note_on_c, 2, 60, 95
3, 156960, Note_on_c, 2, 55, 95
3, 156960, Note_on_c, 2, 48, 95
3, 157440, Note_off_c, 2, 64, 95
3, 157440, Note_off_c, 2, 60, 95
3, 157440, Note_off_c, 2, 55, 95
3, 157440, Note_off_c, 2, 48, 95
3, 157440, Note_on_c, 2, 69, 95
3, 157440, Note_on_c, 2, 65, 95
3, 157440, Note_on_c, 2, 60, 95
3, 157440, Note_on_c, 2, 53, 95
3, 157920, Note_off_c, 2, 69, 95
3, 157920, Note_off_c, 2, 65, 95
3, 157920, Note_off_c, 2, 60, 95
3, 157920, Note_off_c, 2, 53, 95
3, 157920, Note_on_c, 2, 69, 95
3, 157920, Note_on_c, 2, 65, 95
3, 157920, Note_on_c, 2, 60, 95
3, 157920, Note_on_c, 2, 53, 95
3, 158400, Note_off_c, 2, 69, 95
3, 158400, Note_off_c, 2, 65, 95
3, 158400, Note_off_c, 2, 60, 95
3, 158400, Note_off_c, 2, 53, 95
3, 158400, Note_on_c, 2, 69, 95
3, 158400, Note_on_c, 2, 65, 95
3, 158400, Note_on_c, 2, 60, 95
3, 158400, Note_on_c, 2, 53, 95
3, 158880, Note_off_c, 2, 69, 95
3, 158880, Note_off_c, 2, 65, 95
3, 158880, Note_off_c, 2, 60, 95
3, 158880, Note_off_c, 2, 53, 95
3, 158880, Note_on_c, 2, 69, 95
3, 158880, Note_on_c, 2, 65, 95
3, 158880, Note_on_c, 2, 60, 95
3, 158880, Note_on_c, 2, 53, 95
3, 159360, Note_off_c, 2, 69, 95
3, 159360, Note_off_c, 2, 65, 95
3, 159360, Note_off_c, 2, 60, 95
3, 159360, Note_off_c, 2, 53, 95
3, 159360, Note_on_c, 2, 69, 95
3, 159360, Note_on_c, 2, 65, 95
3, 159360, Note_on_c, 2, 60, 95
3, 159360, Note_on_c, 2, 53, 95
3, 159840, Note_off_c, 2, 69, 95
3, 159840, Note_off_c, 2, 65, 95
3, 159840, Note_off_c, 2, 60, 95
3, 159840, Note_off_c, 2, 53, 95
3, 159840, Note_on_c, 2, 53, 95
3, 159840, Note_on_c, 2, 48, 95
3, 159840, Note_on_c, 2, 41, 95
3, 160320, Note_off_c, 2, 53, 95
3, 160320, Note_off_c, 2, 48, 95
3, 160320, Note_off_c, 2, 41, 95
3, 160320, Note_on_c, 2, 54, 95
3, 160320, Note_on_c, 2, 49, 95
3, 160320, Note_on_c, 2, 42, 95
3, 160800, Note_off_c, 2, 54, 95
3, 160800, Note_off_c, 2, 49, 95
3, 160800, Note_off_c, 2, 42, 95
3, 160800, Note_on_c, 2, 67, 95
3, 160800, Note_on_c, 2, 62, 95
3, 160800, Note_on_c, 2, 59, 95
3, 160800, Note_on_c, 2, 55, 95
3, 160800, Note_on_c, 2, 50, 95
3, 160800, Note_on_c, 2, 43, 95
3, 161760, Note_off_c, 2, 67, 95
3, 161760, Note_off_c, 2, 62, 95
3, 161760, Note_off_c, 2, 59, 95
3, 161760, Note_off_c, 2, 55, 95
3, 161760, Note_off_c, 2, 50, 95
3, 161760, Note_off_c, 2, 43, 95
3, 161760, Note_on_c, 2, 67, 95
3, 161760, Note_on_c, 2, 62, 95
3, 161760, Note_on_c, 2, 59, 95
3, 161760, Note_on_c, 2, 55, 95
3, 161760, Note_on_c, 2, 50, 95
3, 161760, Note_on_c, 2, 43, 95
3, 162240, Note_off_c, 2, 67, 95
3, 162240, Note_off_c, 2, 62, 95
3, 162240, Note_off_c, 2, 59, 95
3, 162240, Note_off_c, 2, 55, 95
3, 162240, Note_off_c, 2, 50, 95
3, 162240, Note_off_c, 2, 43, 95
3, 162240, Note_on_c, 2, 67, 95
3, 162240, Note_on_c, 2, 62, 95
3, 162240, Note_on_c, 2, 59, 95
3, 162240, Note_on_c, 2, 55, 95
3, 162240, Note_on_c, 2, 50, 95
3, 162240, Note_on_c, 2, 43, 95
3, 162720, Note_off_c, 2, 67, 95
3, 162720, Note_off_c, 2, 62, 95
3, 162720, Note_off_c, 2, 59, 95
3, 162720, Note_off_c, 2, 55, 95
3, 162720, Note_off_c, 2, 50, 95
3, 162720, Note_off_c, 2, 43, 95
3, 162720, Note_on_c, 2, 67, 95
3, 162720, Note_on_c, 2, 62, 95
3, 162720, Note_on_c, 2, 59, 95
3, 162720, Note_on_c, 2, 55, 95
3, 162720, Note_on_c, 2, 50, 95
3, 162720, Note_on_c, 2, 43, 95
3, 163200, Note_off_c, 2, 67, 95
3, 163200, Note_off_c, 2, 62, 95
3, 163200, Note_off_c, 2, 59, 95
3, 163200, Note_off_c, 2, 55, 95
3, 163200, Note_off_c, 2, 50, 95
3, 163200, Note_off_c, 2, 43, 95
3, 163200, Note_on_c, 2, 67, 95
3, 163200, Note_on_c, 2, 62, 95
3, 163200, Note_on_c, 2, 59, 95
3, 163200, Note_on_c, 2, 55, 95
3, 163200, Note_on_c, 2, 50, 95
3, 163200, Note_on_c, 2, 43, 95
3, 163680, Note_off_c, 2, 67, 95
3, 163680, Note_off_c, 2, 62, 95
3, 163680, Note_off_c, 2, 59, 95
3, 163680, Note_off_c, 2, 55, 95
3, 163680, Note_off_c, 2, 50, 95
3, 163680, Note_off_c, 2, 43, 95
3, 163680, Note_on_c, 2, 67, 95
3, 163680, Note_on_c, 2, 62, 95
3, 163680, Note_on_c, 2, 59, 95
3, 163680, Note_on_c, 2, 55, 95
3, 163680, Note_on_c, 2, 50, 95
3, 163680, Note_on_c, 2, 43, 95
3, 164160, Note_off_c, 2, 67, 95
3, 164160, Note_off_c, 2, 62, 95
3, 164160, Note_off_c, 2, 59, 95
3, 164160, Note_off_c, 2, 55, 95
3, 164160, Note_off_c, 2, 50, 95
3, 164160, Note_off_c, 2, 43, 95
3, 164160, Note_on_c, 2, 67, 95
3, 164160, Note_on_c, 2, 62, 95
3, 164160, Note_on_c, 2, 59, 95
3, 164160, Note_on_c, 2, 55, 95
3, 164160, Note_on_c, 2, 50, 95
3, 164160, Note_on_c, 2, 43, 95
3, 164640, Note_off_c, 2, 67, 95
3, 164640, Note_off_c, 2, 62, 95
3, 164640, Note_off_c, 2, 59, 95
3, 164640, Note_off_c, 2, 55, 95
3, 164640, Note_off_c, 2, 50, 95
3, 164640, Note_off_c, 2, 43, 95
3, 164640, Note_on_c, 2, 67, 95
3, 164640, Note_on_c, 2, 62, 95
3, 164640, Note_on_c, 2, 59, 95
3, 164640, Note_on_c, 2, 55, 95
3, 164640, Note_on_c, 2, 50, 95
3, 164640, Note_on_c, 2, 43, 95
3, 165120, Note_off_c, 2, 67, 95
3, 165120, Note_off_c, 2, 62, 95
3, 165120, Note_off_c, 2, 59, 95
3, 165120, Note_off_c, 2, 55, 95
3, 165120, Note_off_c, 2, 50, 95
3, 165120, Note_off_c, 2, 43, 95
3, 165120, Note_on_c, 2, 67, 95
3, 165120, Note_on_c, 2, 64, 95
3, 165120, Note_on_c, 2, 60, 95
3, 165120, Note_on_c, 2, 55, 95
3, 165120, Note_on_c, 2, 48, 95
3, 165120, Note_on_c, 2, 43, 95
3, 165600, Note_off_c, 2, 67, 95
3, 165600, Note_off_c, 2, 64, 95
3, 165600, Note_off_c, 2, 60, 95
3, 165600, Note_off_c, 2, 55, 95
3, 165600, Note_off_c, 2, 48, 95
3, 165600, Note_off_c, 2, 43, 95
3, 165600, Note_on_c, 2, 67, 95
3, 165600, Note_on_c, 2, 64, 95
3, 165600, Note_on_c, 2, 60, 95
3, 165600, Note_on_c, 2, 55, 95
3, 165600, Note_on_c, 2, 48, 95
3, 165600, Note_on_c, 2, 43, 95
3, 166080, Note_off_c, 2, 67, 95
3, 166080, Note_off_c, 2, 64, 95
3, 166080, Note_off_c, 2, 60, 95
3, 166080, Note_off_c, 2, 55, 95
3, 166080, Note_off_c, 2, 48, 95
3, 166080, Note_off_c, 2, 43, 95
3, 166080, Note_on_c, 2, 67, 95
3, 166080, Note_on_c, 2, 64, 95
3, 166080, Note_on_c, 2, 60, 95
3, 166080, Note_on_c, 2, 55, 95
3, 166080, Note_on_c, 2, 48, 95
3, 166080, Note_on_c, 2, 43, 95
3, 166560, Note_off_c, 2, 67, 95
3, 166560, Note_off_c, 2, 64, 95
3, 166560, Note_off_c, 2, 60, 95
3, 166560, Note_off_c, 2, 55, 95
3, 166560, Note_off_c, 2, 48, 95
3, 166560, Note_off_c, 2, 43, 95
3, 166560, Note_on_c, 2, 67, 95
3, 166560, Note_on_c, 2, 64, 95
3, 166560, Note_on_c, 2, 60, 95
3, 166560, Note_on_c, 2, 55, 95
3, 166560, Note_on_c, 2, 48, 95
3, 166560, Note_on_c, 2, 43, 95
3, 167040, Note_off_c, 2, 67, 95
3, 167040, Note_off_c, 2, 64, 95
3, 167040, Note_off_c, 2, 60, 95
3, 167040, Note_off_c, 2, 55, 95
3, 167040, Note_off_c, 2, 48, 95
3, 167040, Note_off_c, 2, 43, 95
3, 167040, Note_on_c, 2, 67, 95
3, 167040, Note_on_c, 2, 62, 95
3, 167040, Note_on_c, 2, 60, 95
3, 167040, Note_on_c, 2, 55, 95
3, 167040, Note_on_c, 2, 48, 95
3, 167040, Note_on_c, 2, 43, 95
3, 167520, Note_off_c, 2, 67, 95
3, 167520, Note_off_c, 2, 62, 95
3, 167520, Note_off_c, 2, 60, 95
3, 167520, Note_off_c, 2, 55, 95
3, 167520, Note_off_c, 2, 48, 95
3, 167520, Note_off_c, 2, 43, 95
3, 167520, Note_on_c, 2, 67, 95
3, 167520, Note_on_c, 2, 64, 95
3, 167520, Note_on_c, 2, 60, 95
3, 167520, Note_on_c, 2, 55, 95
3, 167520, Note_on_c, 2, 48, 95
3, 167520, Note_on_c, 2, 43, 95
3, 168000, Note_off_c, 2, 67, 95
3, 168000, Note_off_c, 2, 64, 95
3, 168000, Note_off_c, 2, 60, 95
3, 168000, Note_off_c, 2, 55, 95
3, 168000, Note_off_c, 2, 48, 95
3, 168000, Note_off_c, 2, 43, 95
3, 168000, Note_on_c, 2, 67, 95
3, 168000, Note_on_c, 2, 64, 95
3, 168000, Note_on_c, 2, 60, 95
3, 168000, Note_on_c, 2, 55, 95
3, 168000, Note_on_c, 2, 48, 95
3, 168000, Note_on_c, 2, 43, 95
3, 168480, Note_off_c, 2, 67, 95
3, 168480, Note_off_c, 2, 64, 95
3, 168480, Note_off_c, 2, 60, 95
3, 168480, Note_off_c, 2, 55, 95
3, 168480, Note_off_c, 2, 48, 95
3, 168480, Note_off_c, 2, 43, 95
3, 168480, Note_on_c, 2, 67, 95
3, 168480, Note_on_c, 2, 64, 95
3, 168480, Note_on_c, 2, 60, 95
3, 168480, Note_on_c, 2, 55, 95
3, 168480, Note_on_c, 2, 48, 95
3, 168480, Note_on_c, 2, 43, 95
3, 168960, Note_off_c, 2, 67, 95
3, 168960, Note_off_c, 2, 64, 95
3, 168960, Note_off_c, 2, 60, 95
3, 168960, Note_off_c, 2, 55, 95
3, 168960, Note_off_c, 2, 48, 95
3, 168960, Note_off_c, 2, 43, 95
3, 168960, Note_on_c, 2, 67, 95
3, 168960, Note_on_c, 2, 62, 95
3, 168960, Note_on_c, 2, 59, 95
3, 168960, Note_on_c, 2, 55, 95
3, 168960, Note_on_c, 2, 50, 95
3, 168960, Note_on_c, 2, 43, 95
3, 169440, Note_off_c, 2, 67, 95
3, 169440, Note_off_c, 2, 62, 95
3, 169440, Note_off_c, 2, 59, 95
3, 169440, Note_off_c, 2, 55, 95
3, 169440, Note_off_c, 2, 50, 95
3, 169440, Note_off_c, 2, 43, 95
3, 169440, Note_on_c, 2, 67, 95
3, 169440, Note_on_c, 2, 62, 95
3, 169440, Note_on_c, 2, 59, 95
3, 169440, Note_on_c, 2, 55, 95
3, 169440, Note_on_c, 2, 50, 95
3, 169440, Note_on_c, 2, 43, 95
3, 169920, Note_off_c, 2, 67, 95
3, 169920, Note_off_c, 2, 62, 95
3, 169920, Note_off_c, 2, 59, 95
3, 169920, Note_off_c, 2, 55, 95
3, 169920, Note_off_c, 2, 50, 95
3, 169920, Note_off_c, 2, 43, 95
3, 169920, Note_on_c, 2, 67, 95
3, 169920, Note_on_c, 2, 62, 95
3, 169920, Note_on_c, 2, 59, 95
3, 169920, Note_on_c, 2, 55, 95
3, 169920, Note_on_c, 2, 50, 95
3, 169920, Note_on_c, 2, 43, 95
3, 170400, Note_off_c, 2, 67, 95
3, 170400, Note_off_c, 2, 62, 95
3, 170400, Note_off_c, 2, 59, 95
3, 170400, Note_off_c, 2, 55, 95
3, 170400, Note_off_c, 2, 50, 95
3, 170400, Note_off_c, 2, 43, 95
3, 170400, Note_on_c, 2, 67, 95
3, 170400, Note_on_c, 2, 62, 95
3, 170400, Note_on_c, 2, 59, 95
3, 170400, Note_on_c, 2, 55, 95
3, 170400, Note_on_c, 2, 50, 95
3, 170400, Note_on_c, 2, 43, 95
3, 170880, Note_off_c, 2, 67, 95
3, 170880, Note_off_c, 2, 62, 95
3, 170880, Note_off_c, 2, 59, 95
3, 170880, Note_off_c, 2, 55, 95
3, 170880, Note_off_c, 2, 50, 95
3, 170880, Note_off_c, 2, 43, 95
3, 170880, Note_on_c, 2, 67, 95
3, 170880, Note_on_c, 2, 62, 95
3, 170880, Note_on_c, 2, 59, 95
3, 170880, Note_on_c, 2, 55, 95
3, 170880, Note_on_c, 2, 50, 95
3, 170880, Note_on_c, 2, 43, 95
3, 171360, Note_off_c, 2, 67, 95
3, 171360, Note_off_c, 2, 62, 95
3, 171360, Note_off_c, 2, 59, 95
3, 171360, Note_off_c, 2, 55, 95
3, 171360, Note_off_c, 2, 50, 95
3, 171360, Note_off_c, 2, 43, 95
3, 171360, Note_on_c, 2, 67, 95
3, 171360, Note_on_c, 2, 62, 95
3, 171360, Note_on_c, 2, 59, 95
3, 171360, Note_on_c, 2, 55, 95
3, 171360, Note_on_c, 2, 50, 95
3, 171360, Note_on_c, 2, 43, 95
3, 171840, Note_off_c, 2, 67, 95
3, 171840, Note_off_c, 2, 62, 95
3, 171840, Note_off_c, 2, 59, 95
3, 171840, Note_off_c, 2, 55, 95
3, 171840, Note_off_c, 2, 50, 95
3, 171840, Note_off_c, 2, 43, 95
3, 171840, Note_on_c, 2, 67, 95
3, 171840, Note_on_c, 2, 62, 95
3, 171840, Note_on_c, 2, 59, 95
3, 171840, Note_on_c, 2, 55, 95
3, 171840, Note_on_c, 2, 50, 95
3, 171840, Note_on_c, 2, 43, 95
3, 172320, Note_off_c, 2, 67, 95
3, 172320, Note_off_c, 2, 62, 95
3, 172320, Note_off_c, 2, 59, 95
3, 172320, Note_off_c, 2, 55, 95
3, 172320, Note_off_c, 2, 50, 95
3, 172320, Note_off_c, 2, 43, 95
3, 172320, Note_on_c, 2, 67, 95
3, 172320, Note_on_c, 2, 62, 95
3, 172320, Note_on_c, 2, 59, 95
3, 172320, Note_on_c, 2, 55, 95
3, 172320, Note_on_c, 2, 50, 95
3, 172320, Note_on_c, 2, 43, 95
3, 172800, Note_off_c, 2, 67, 95
3, 172800, Note_off_c, 2, 62, 95
3, 172800, Note_off_c, 2, 59, 95
3, 172800, Note_off_c, 2, 55, 95
3, 172800, Note_off_c, 2, 50, 95
3, 172800, Note_off_c, 2, 43, 95
3, 172800, Note_on_c, 2, 67, 95
3, 172800, Note_on_c, 2, 64, 95
3, 172800, Note_on_c, 2, 60, 95
3, 172800, Note_on_c, 2, 55, 95
3, 172800, Note_on_c, 2, 48, 95
3, 172800, Note_on_c, 2, 43, 95
3, 173280, Note_off_c, 2, 67, 95
3, 173280, Note_off_c, 2, 64, 95
3, 173280, Note_off_c, 2, 60, 95
3, 173280, Note_off_c, 2, 55, 95
3, 173280, Note_off_c, 2, 48, 95
3, 173280, Note_off_c, 2, 43, 95
3, 173280, Note_on_c, 2, 67, 95
3, 173280, Note_on_c, 2, 64, 95
3, 173280, Note_on_c, 2, 60, 95
3, 173280, Note_on_c, 2, 55, 95
3, 173280, Note_on_c, 2, 48, 95
3, 173280, Note_on_c, 2, 43, 95
3, 173760, Note_off_c, 2, 67, 95
3, 173760, Note_off_c, 2, 64, 95
3, 173760, Note_off_c, 2, 60, 95
3, 173760, Note_off_c, 2, 55, 95
3, 173760, Note_off_c, 2, 48, 95
3, 173760, Note_off_c, 2, 43, 95
3, 173760, Note_on_c, 2, 67, 95
3, 173760, Note_on_c, 2, 64, 95
3, 173760, Note_on_c, 2, 60, 95
3, 173760, Note_on_c, 2, 55, 95
3, 173760, Note_on_c, 2, 48, 95
3, 173760, Note_on_c, 2, 43, 95
3, 174240, Note_off_c, 2, 67, 95
3, 174240, Note_off_c, 2, 64, 95
3, 174240, Note_off_c, 2, 60, 95
3, 174240, Note_off_c, 2, 55, 95
3, 174240, Note_off_c, 2, 48, 95
3, 174240, Note_off_c, 2, 43, 95
3, 174240, Note_on_c, 2, 67, 95
3, 174240, Note_on_c, 2, 64, 95
3, 174240, Note_on_c, 2, 60, 95
3, 174240, Note_on_c, 2, 55, 95
3, 174240, Note_on_c, 2, 48, 95
3, 174240, Note_on_c, 2, 43, 95
3, 174720, Note_off_c, 2, 67, 95
3, 174720, Note_off_c, 2, 64, 95
3, 174720, Note_off_c, 2, 60, 95
3, 174720, Note_off_c, 2, 55, 95
3, 174720, Note_off_c, 2, 48, 95
3, 174720, Note_off_c, 2, 43, 95
3, 174720, Note_on_c, 2, 67, 95
3, 174720, Note_on_c, 2, 62, 95
3, 174720, Note_on_c, 2, 60, 95
3, 174720, Note_on_c, 2, 55, 95
3, 174720, Note_on_c, 2, 48, 95
3, 174720, Note_on_c, 2, 43, 95
3, 175200, Note_off_c, 2, 67, 95
3, 175200, Note_off_c, 2, 62, 95
3, 175200, Note_off_c, 2, 60, 95
3, 175200, Note_off_c, 2, 55, 95
3, 175200, Note_off_c, 2, 48, 95
3, 175200, Note_off_c, 2, 43, 95
3, 175200, Note_on_c, 2, 67, 95
3, 175200, Note_on_c, 2, 64, 95
3, 175200, Note_on_c, 2, 60, 95
3, 175200, Note_on_c, 2, 55, 95
3, 175200, Note_on_c, 2, 48, 95
3, 175200, Note_on_c, 2, 43, 95
3, 175680, Note_off_c, 2, 67, 95
3, 175680, Note_off_c, 2, 64, 95
3, 175680, Note_off_c, 2, 60, 95
3, 175680, Note_off_c, 2, 55, 95
3, 175680, Note_off_c, 2, 48, 95
3, 175680, Note_off_c, 2, 43, 95
3, 175680, Note_on_c, 2, 67, 95
3, 175680, Note_on_c, 2, 64, 95
3, 175680, Note_on_c, 2, 60, 95
3, 175680, Note_on_c, 2, 55, 95
3, 175680, Note_on_c, 2, 48, 95
3, 175680, Note_on_c, 2, 43, 95
3, 176160, Note_off_c, 2, 67, 95
3, 176160, Note_off_c, 2, 64, 95
3, 176160, Note_off_c, 2, 60, 95
3, 176160, Note_off_c, 2, 55, 95
3, 176160, Note_off_c, 2, 48, 95
3, 176160, Note_off_c, 2, 43, 95
3, 176160, Note_on_c, 2, 67, 95
3, 176160, Note_on_c, 2, 64, 95
3, 176160, Note_on_c, 2, 60, 95
3, 176160, Note_on_c, 2, 55, 95
3, 176160, Note_on_c, 2, 48, 95
3, 176160, Note_on_c, 2, 43, 95
3, 176640, Note_off_c, 2, 67, 95
3, 176640, Note_off_c, 2, 64, 95
3, 176640, Note_off_c, 2, 60, 95
3, 176640, Note_off_c, 2, 55, 95
3, 176640, Note_off_c, 2, 48, 95
3, 176640, Note_off_c, 2, 43, 95
3, 176640, Note_on_c, 2, 67, 95
3, 176640, Note_on_c, 2, 62, 95
3, 176640, Note_on_c, 2, 59, 95
3, 176640, Note_on_c, 2, 55, 95
3, 176640, Note_on_c, 2, 50, 95
3, 176640, Note_on_c, 2, 43, 95
3, 177120, Note_off_c, 2, 67, 95
3, 177120, Note_off_c, 2, 62, 95
3, 177120, Note_off_c, 2, 59, 95
3, 177120, Note_off_c, 2, 55, 95
3, 177120, Note_off_c, 2, 50, 95
3, 177120, Note_off_c, 2, 43, 95
3, 177120, Note_on_c, 2, 67, 95
3, 177120, Note_on_c, 2, 62, 95
3, 177120, Note_on_c, 2, 59, 95
3, 177120, Note_on_c, 2, 55, 95
3, 177120, Note_on_c, 2, 50, 95
3, 177120, Note_on_c, 2, 43, 95
3, 177600, Note_off_c, 2, 67, 95
3, 177600, Note_off_c, 2, 62, 95
3, 177600, Note_off_c, 2, 59, 95
3, 177600, Note_off_c, 2, 55, 95
3, 177600, Note_off_c, 2, 50, 95
3, 177600, Note_off_c, 2, 43, 95
3, 177600, Note_on_c, 2, 67, 95
3, 177600, Note_on_c, 2, 62, 95
3, 177600, Note_on_c, 2, 59, 95
3, 177600, Note_on_c, 2, 55, 95
3, 177600, Note_on_c, 2, 50, 95
3, 177600, Note_on_c, 2, 43, 95
3, 178080, Note_off_c, 2, 67, 95
3, 178080, Note_off_c, 2, 62, 95
3, 178080, Note_off_c, 2, 59, 95
3, 178080, Note_off_c, 2, 55, 95
3, 178080, Note_off_c, 2, 50, 95
3, 178080, Note_off_c, 2, 43, 95
3, 178080, Note_on_c, 2, 67, 95
3, 178080, Note_on_c, 2, 62, 95
3, 178080, Note_on_c, 2, 59, 95
3, 178080, Note_on_c, 2, 55, 95
3, 178080, Note_on_c, 2, 50, 95
3, 178080, Note_on_c, 2, 43, 95
3, 178560, Note_off_c, 2, 67, 95
3, 178560, Note_off_c, 2, 62, 95
3, 178560, Note_off_c, 2, 59, 95
3, 178560, Note_off_c, 2, 55, 95
3, 178560, Note_off_c, 2, 50, 95
3, 178560, Note_off_c, 2, 43, 95
3, 178560, Note_on_c, 2, 67, 95
3, 178560, Note_on_c, 2, 62, 95
3, 178560, Note_on_c, 2, 59, 95
3, 178560, Note_on_c, 2, 55, 95
3, 178560, Note_on_c, 2, 50, 95
3, 178560, Note_on_c, 2, 43, 95
3, 179040, Note_off_c, 2, 67, 95
3, 179040, Note_off_c, 2, 62, 95
3, 179040, Note_off_c, 2, 59, 95
3, 179040, Note_off_c, 2, 55, 95
3, 179040, Note_off_c, 2, 50, 95
3, 179040, Note_off_c, 2, 43, 95
3, 179040, Note_on_c, 2, 67, 95
3, 179040, Note_on_c, 2, 62, 95
3, 179040, Note_on_c, 2, 59, 95
3, 179040, Note_on_c, 2, 55, 95
3, 179040, Note_on_c, 2, 50, 95
3, 179040, Note_on_c, 2, 43, 95
3, 179520, Note_off_c, 2, 67, 95
3, 179520, Note_off_c, 2, 62, 95
3, 179520, Note_off_c, 2, 59, 95
3, 179520, Note_off_c, 2, 55, 95
3, 179520, Note_off_c, 2, 50, 95
3, 179520, Note_off_c, 2, 43, 95
3, 179520, Note_on_c, 2, 67, 95
3, 179520, Note_on_c, 2, 62, 95
3, 179520, Note_on_c, 2, 59, 95
3, 179520, Note_on_c, 2, 55, 95
3, 179520, Note_on_c, 2, 50, 95
3, 179520, Note_on_c, 2, 43, 95
3, 180000, Note_off_c, 2, 67, 95
3, 180000, Note_off_c, 2, 62, 95
3, 180000, Note_off_c, 2, 59, 95
3, 180000, Note_off_c, 2, 55, 95
3, 180000, Note_off_c, 2, 50, 95
3, 180000, Note_off_c, 2, 43, 95
3, 180000, Note_on_c, 2, 67, 95
3, 180000, Note_on_c, 2, 62, 95
3, 180000, Note_on_c, 2, 59, 95
3, 180000, Note_on_c, 2, 55, 95
3, 180000, Note_on_c, 2, 50, 95
3, 180000, Note_on_c, 2, 43, 95
3, 180480, Note_off_c, 2, 67, 95
3, 180480, Note_off_c, 2, 62, 95
3, 180480, Note_off_c, 2, 59, 95
3, 180480, Note_off_c, 2, 55, 95
3, 180480, Note_off_c, 2, 50, 95
3, 180480, Note_off_c, 2, 43, 95
3, 180480, Note_on_c, 2, 67, 95
3, 180480, Note_on_c, 2, 64, 95
3, 180480, Note_on_c, 2, 60, 95
3, 180480, Note_on_c, 2, 55, 95
3, 180480, Note_on_c, 2, 48, 95
3, 180480, Note_on_c, 2, 43, 95
3, 180960, Note_off_c, 2, 67, 95
3, 180960, Note_off_c, 2, 64, 95
3, 180960, Note_off_c, 2, 60, 95
3, 180960, Note_off_c, 2, 55, 95
3, 180960, Note_off_c, 2, 48, 95
3, 180960, Note_off_c, 2, 43, 95
3, 180960, Note_on_c, 2, 67, 95
3, 180960, Note_on_c, 2, 64, 95
3, 180960, Note_on_c, 2, 60, 95
3, 180960, Note_on_c, 2, 55, 95
3, 180960, Note_on_c, 2, 48, 95
3, 180960, Note_on_c, 2, 43, 95
3, 181440, Note_off_c, 2, 67, 95
3, 181440, Note_off_c, 2, 64, 95
3, 181440, Note_off_c, 2, 60, 95
3, 181440, Note_off_c, 2, 55, 95
3, 181440, Note_off_c, 2, 48, 95
3, 181440, Note_off_c, 2, 43, 95
3, 181440, Note_on_c, 2, 67, 95
3, 181440, Note_on_c, 2, 64, 95
3, 181440, Note_on_c, 2, 60, 95
3, 181440, Note_on_c, 2, 55, 95
3, 181440, Note_on_c, 2, 48, 95
3, 181440, Note_on_c, 2, 43, 95
3, 181920, Note_off_c, 2, 67, 95
3, 181920, Note_off_c, 2, 64, 95
3, 181920, Note_off_c, 2, 60, 95
3, 181920, Note_off_c, 2, 55, 95
3, 181920, Note_off_c, 2, 48, 95
3, 181920, Note_off_c, 2, 43, 95
3, 181920, Note_on_c, 2, 67, 95
3, 181920, Note_on_c, 2, 64, 95
3, 181920, Note_on_c, 2, 60, 95
3, 181920, Note_on_c, 2, 55, 95
3, 181920, Note_on_c, 2, 48, 95
3, 181920, Note_on_c, 2, 43, 95
3, 182400, Note_off_c, 2, 67, 95
3, 182400, Note_off_c, 2, 64, 95
3, 182400, Note_off_c, 2, 60, 95
3, 182400, Note_off_c, 2, 55, 95
3, 182400, Note_off_c, 2, 48, 95
3, 182400, Note_off_c, 2, 43, 95
3, 182400, Note_on_c, 2, 67, 95
3, 182400, Note_on_c, 2, 62, 95
3, 182400, Note_on_c, 2, 60, 95
3, 182400, Note_on_c, 2, 55, 95
3, 182400, Note_on_c, 2, 48, 95
3, 182400, Note_on_c, 2, 43, 95
3, 182880, Note_off_c, 2, 67, 95
3, 182880, Note_off_c, 2, 62, 95
3, 182880, Note_off_c, 2, 60, 95
3, 182880, Note_off_c, 2, 55, 95
3, 182880, Note_off_c, 2, 48, 95
3, 182880, Note_off_c, 2, 43, 95
3, 182880, Note_on_c, 2, 67, 95
3, 182880, Note_on_c, 2, 64, 95
3, 182880, Note_on_c, 2, 60, 95
3, 182880, Note_on_c, 2, 55, 95
3, 182880, Note_on_c, 2, 48, 95
3, 182880, Note_on_c, 2, 43, 95
3, 183360, Note_off_c, 2, 67, 95
3, 183360, Note_off_c, 2, 64, 95
3, 183360, Note_off_c, 2, 60, 95
3, 183360, Note_off_c, 2, 55, 95
3, 183360, Note_off_c, 2, 48, 95
3, 183360, Note_off_c, 2, 43, 95
3, 183360, Note_on_c, 2, 67, 95
3, 183360, Note_on_c, 2, 64, 95
3, 183360, Note_on_c, 2, 60, 95
3, 183360, Note_on_c, 2, 55, 95
3, 183360, Note_on_c, 2, 48, 95
3, 183360, Note_on_c, 2, 43, 95
3, 183840, Note_off_c, 2, 67, 95
3, 183840, Note_off_c, 2, 64, 95
3, 183840, Note_off_c, 2, 60, 95
3, 183840, Note_off_c, 2, 55, 95
3, 183840, Note_off_c, 2, 48, 95
3, 183840, Note_off_c, 2, 43, 95
3, 183840, Note_on_c, 2, 67, 95
3, 183840, Note_on_c, 2, 64, 95
3, 183840, Note_on_c, 2, 60, 95
3, 183840, Note_on_c, 2, 55, 95
3, 183840, Note_on_c, 2, 48, 95
3, 183840, Note_on_c, 2, 43, 95
3, 184320, Note_off_c, 2, 67, 95
3, 184320, Note_off_c, 2, 64, 95
3, 184320, Note_off_c, 2, 60, 95
3, 184320, Note_off_c, 2, 55, 95
3, 184320, Note_off_c, 2, 48, 95
3, 184320, Note_off_c, 2, 43, 95
3, 184320, Note_on_c, 2, 67, 95
3, 184320, Note_on_c, 2, 62, 95
3, 184320, Note_on_c, 2, 59, 95
3, 184320, Note_on_c, 2, 55, 95
3, 184320, Note_on_c, 2, 50, 95
3, 184320, Note_on_c, 2, 43, 95
3, 184800, Note_off_c, 2, 67, 95
3, 184800, Note_off_c, 2, 62, 95
3, 184800, Note_off_c, 2, 59, 95
3, 184800, Note_off_c, 2, 55, 95
3, 184800, Note_off_c, 2, 50, 95
3, 184800, Note_off_c, 2, 43, 95
3, 184800, Note_on_c, 2, 67, 95
3, 184800, Note_on_c, 2, 62, 95
3, 184800, Note_on_c, 2, 59, 95
3, 184800, Note_on_c, 2, 55, 95
3, 184800, Note_on_c, 2, 50, 95
3, 184800, Note_on_c, 2, 43, 95
3, 185280, Note_off_c, 2, 67, 95
3, 185280, Note_off_c, 2, 62, 95
3, 185280, Note_off_c, 2, 59, 95
3, 185280, Note_off_c, 2, 55, 95
3, 185280, Note_off_c, 2, 50, 95
3, 185280, Note_off_c, 2, 43, 95
3, 185280, Note_on_c, 2, 67, 95
3, 185280, Note_on_c, 2, 62, 95
3, 185280, Note_on_c, 2, 59, 95
3, 185280, Note_on_c, 2, 55, 95
3, 185280, Note_on_c, 2, 50, 95
3, 185280, Note_on_c, 2, 43, 95
3, 185760, Note_off_c, 2, 67, 95
3, 185760, Note_off_c, 2, 62, 95
3, 185760, Note_off_c, 2, 59, 95
3, 185760, Note_off_c, 2, 55, 95
3, 185760, Note_off_c, 2, 50, 95
3, 185760, Note_off_c, 2, 43, 95
3, 185760, Note_on_c, 2, 67, 95
3, 185760, Note_on_c, 2, 62, 95
3, 185760, Note_on_c, 2, 59, 95
3, 185760, Note_on_c, 2, 55, 95
3, 185760, Note_on_c, 2, 50, 95
3, 185760, Note_on_c, 2, 43, 95
3, 186240, Note_off_c, 2, 67, 95
3, 186240, Note_off_c, 2, 62, 95
3, 186240, Note_off_c, 2, 59, 95
3, 186240, Note_off_c, 2, 55, 95
3, 186240, Note_off_c, 2, 50, 95
3, 186240, Note_off_c, 2, 43, 95
3, 186240, Note_on_c, 2, 67, 95
3, 186240, Note_on_c, 2, 62, 95
3, 186240, Note_on_c, 2, 59, 95
3, 186240, Note_on_c, 2, 55, 95
3, 186240, Note_on_c, 2, 50, 95
3, 186240, Note_on_c, 2, 43, 95
3, 186720, Note_off_c, 2, 67, 95
3, 186720, Note_off_c, 2, 62, 95
3, 186720, Note_off_c, 2, 59, 95
3, 186720, Note_off_c, 2, 55, 95
3, 186720, Note_off_c, 2, 50, 95
3, 186720, Note_off_c, 2, 43, 95
3, 186720, Note_on_c, 2, 67, 95
3, 186720, Note_on_c, 2, 62, 95
3, 186720, Note_on_c, 2, 59, 95
3, 186720, Note_on_c, 2, 55, 95
3, 186720, Note_on_c, 2, 50, 95
3, 186720, Note_on_c, 2, 43, 95
3, 187200, Note_off_c, 2, 67, 95
3, 187200, Note_off_c, 2, 62, 95
3, 187200, Note_off_c, 2, 59, 95
3, 187200, Note_off_c, 2, 55, 95
3, 187200, Note_off_c, 2, 50, 95
3, 187200, Note_off_c, 2, 43, 95
3, 187200, Note_on_c, 2, 67, 95
3, 187200, Note_on_c, 2, 62, 95
3, 187200, Note_on_c, 2, 59, 95
3, 187200, Note_on_c, 2, 55, 95
3, 187200, Note_on_c, 2, 50, 95
3, 187200, Note_on_c, 2, 43, 95
3, 187680, Note_off_c, 2, 67, 95
3, 187680, Note_off_c, 2, 62, 95
3, 187680, Note_off_c, 2, 59, 95
3, 187680, Note_off_c, 2, 55, 95
3, 187680, Note_off_c, 2, 50, 95
3, 187680, Note_off_c, 2, 43, 95
3, 187680, Note_on_c, 2, 67, 95
3, 187680, Note_on_c, 2, 62, 95
3, 187680, Note_on_c, 2, 59, 95
3, 187680, Note_on_c, 2, 55, 95
3, 187680, Note_on_c, 2, 50, 95
3, 187680, Note_on_c, 2, 43, 95
3, 188160, Note_off_c, 2, 67, 95
3, 188160, Note_off_c, 2, 62, 95
3, 188160, Note_off_c, 2, 59, 95
3, 188160, Note_off_c, 2, 55, 95
3, 188160, Note_off_c, 2, 50, 95
3, 188160, Note_off_c, 2, 43, 95
3, 188160, Note_on_c, 2, 50, 95
3, 189120, Note_off_c, 2, 50, 95
3, 189120, Note_on_c, 2, 50, 95
3, 190080, Note_off_c, 2, 50, 95
3, 190080, Note_on_c, 2, 50, 95
3, 190560, Note_off_c, 2, 50, 95
3, 190560, Note_on_c, 2, 50, 95
3, 191520, Note_off_c, 2, 50, 95
3, 191520, Note_on_c, 2, 50, 95
3, 192000, Note_off_c, 2, 50, 95
3, 192000, Note_on_c, 2, 57, 95
3, 192480, Note_off_c, 2, 57, 95
3, 192480, Note_on_c, 2, 57, 95
3, 193440, Note_off_c, 2, 57, 95
3, 193440, Note_on_c, 2, 57, 95
3, 194400, Note_off_c, 2, 57, 95
3, 194400, Note_on_c, 2, 57, 95
3, 195360, Note_off_c, 2, 57, 95
3, 195360, Note_on_c, 2, 57, 95
3, 195840, Note_off_c, 2, 57, 95
3, 195840, Note_on_c, 2, 50, 95
3, 196800, Note_off_c, 2, 50, 95
3, 196800, Note_on_c, 2, 50, 95
3, 197760, Note_off_c, 2, 50, 95
3, 197760, Note_on_c, 2, 50, 95
3, 198240, Note_off_c, 2, 50, 95
3, 198240, Note_on_c, 2, 50, 95
3, 199200, Note_off_c, 2, 50, 95
3, 199200, Note_on_c, 2, 50, 95
3, 199680, Note_off_c, 2, 50, 95
3, 199680, Note_on_c, 2, 57, 95
3, 200160, Note_off_c, 2, 57, 95
3, 200160, Note_on_c, 2, 57, 95
3, 201120, Note_off_c, 2, 57, 95
3, 201120, Note_on_c, 2, 57, 95
3, 202080, Note_off_c, 2, 57, 95
3, 202080, Note_on_c, 2, 57, 95
3, 203040, Note_off_c, 2, 57, 95
3, 203040, Note_on_c, 2, 57, 95
3, 203520, Note_off_c, 2, 57, 95
3, 203520, Note_on_c, 2, 50, 95
3, 204480, Note_off_c, 2, 50, 95
3, 204480, Note_on_c, 2, 50, 95
3, 205440, Note_off_c, 2, 50, 95
3, 205440, Note_on_c, 2, 50, 95
3, 205920, Note_off_c, 2, 50, 95
3, 205920, Note_on_c, 2, 50, 95
3, 206880, Note_off_c, 2, 50, 95
3, 206880, Note_on_c, 2, 50, 95
3, 207360, Note_off_c, 2, 50, 95
3, 207360, Note_on_c, 2, 54, 95
3, 207840, Note_off_c, 2, 54, 95
3, 207840, Note_on_c, 2, 55, 95
3, 208800, Note_off_c, 2, 55, 95
3, 208800, Note_on_c, 2, 54, 95
3, 209760, Note_off_c, 2, 54, 95
3, 209760, Note_on_c, 2, 52, 95
3, 210720, Note_off_c, 2, 52, 95
3, 210720, Note_on_c, 2, 49, 95
3, 211200, Note_off_c, 2, 49, 95
3, 211200, Note_on_c, 2, 50, 95
3, 212160, Note_off_c, 2, 50, 95
3, 212160, Note_on_c, 2, 50, 95
3, 213120, Note_off_c, 2, 50, 95
3, 213120, Note_on_c, 2, 50, 95
3, 213600, Note_off_c, 2, 50, 95
3, 213600, Note_on_c, 2, 50, 95
3, 214560, Note_off_c, 2, 50, 95
3, 214560, Note_on_c, 2, 50, 95
3, 215040, Note_off_c, 2, 50, 95
3, 215040, Note_on_c, 2, 54, 95
3, 215520, Note_off_c, 2, 54, 95
3, 215520, Note_on_c, 2, 55, 95
3, 216480, Note_off_c, 2, 55, 95
3, 216480, Note_on_c, 2, 54, 95
3, 217440, Note_off_c, 2, 54, 95
3, 217440, Note_on_c, 2, 52, 95
3, 218400, Note_off_c, 2, 52, 95
3, 218400, Note_on_c, 2, 49, 95
3, 218880, Note_off_c, 2, 49, 95
3, 218880, Note_on_c, 2, 72, 95
3, 218880, Note_on_c, 2, 67, 95
3, 218880, Note_on_c, 2, 64, 95
3, 218880, Note_on_c, 2, 60, 95
3, 218880, Note_on_c, 2, 55, 95
3, 218880, Note_on_c, 2, 48, 95
3, 219360, Note_off_c, 2, 72, 95
3, 219360, Note_off_c, 2, 67, 95
3, 219360, Note_off_c, 2, 64, 95
3, 219360, Note_off_c, 2, 60, 95
3, 219360, Note_off_c, 2, 55, 95
3, 219360, Note_off_c, 2, 48, 95
3, 219360, Note_on_c, 2, 72, 95
3, 219360, Note_on_c, 2, 67, 95
3, 219360, Note_on_c, 2, 64, 95
3, 219360, Note_on_c, 2, 60, 95
3, 219360, Note_on_c, 2, 55, 95
3, 219360, Note_on_c, 2, 48, 95
3, 219840, Note_off_c, 2, 72, 95
3, 219840, Note_off_c, 2, 67, 95
3, 219840, Note_off_c, 2, 64, 95
3, 219840, Note_off_c, 2, 60, 95
3, 219840, Note_off_c, 2, 55, 95
3, 219840, Note_off_c, 2, 48, 95
3, 219840, Note_on_c, 2, 72, 95
3, 219840, Note_on_c, 2, 67, 95
3, 219840, Note_on_c, 2, 64, 95
3, 219840, Note_on_c, 2, 60, 95
3, 219840, Note_on_c, 2, 55, 95
3, 219840, Note_on_c, 2, 48, 95
3, 220320, Note_off_c, 2, 72, 95
3, 220320, Note_off_c, 2, 67, 95
3, 220320, Note_off_c, 2, 64, 95
3, 220320, Note_off_c, 2, 60, 95
3, 220320, Note_off_c, 2, 55, 95
3, 220320, Note_off_c, 2, 48, 95
3, 220320, Note_on_c, 2, 72, 95
3, 220320, Note_on_c, 2, 67, 95
3, 220320, Note_on_c, 2, 64, 95
3, 220320, Note_on_c, 2, 60, 95
3, 220320, Note_on_c, 2, 55, 95
3, 220320, Note_on_c, 2, 48, 95
3, 220800, Note_off_c, 2, 72, 95
3, 220800, Note_off_c, 2, 67, 95
3, 220800, Note_off_c, 2, 64, 95
3, 220800, Note_off_c, 2, 60, 95
3, 220800, Note_off_c, 2, 55, 95
3, 220800, Note_off_c, 2, 48, 95
3, 220800, Note_on_c, 2, 72, 95
3, 220800, Note_on_c, 2, 67, 95
3, 220800, Note_on_c, 2, 64, 95
3, 220800, Note_on_c, 2, 60, 95
3, 220800, Note_on_c, 2, 55, 95
3, 220800, Note_on_c, 2, 48, 95
3, 221280, Note_off_c, 2, 72, 95
3, 221280, Note_off_c, 2, 67, 95
3, 221280, Note_off_c, 2, 64, 95
3, 221280, Note_off_c, 2, 60, 95
3, 221280, Note_off_c, 2, 55, 95
3, 221280, Note_off_c, 2, 48, 95
3, 221280, Note_on_c, 2, 72, 95
3, 221280, Note_on_c, 2, 67, 95
3, 221280, Note_on_c, 2, 64, 95
3, 221280, Note_on_c, 2, 60, 95
3, 221280, Note_on_c, 2, 55, 95
3, 221280, Note_on_c, 2, 48, 95
3, 221760, Note_off_c, 2, 72, 95
3, 221760, Note_off_c, 2, 67, 95
3, 221760, Note_off_c, 2, 64, 95
3, 221760, Note_off_c, 2, 60, 95
3, 221760, Note_off_c, 2, 55, 95
3, 221760, Note_off_c, 2, 48, 95
3, 221760, Note_on_c, 2, 72, 95
3, 221760, Note_on_c, 2, 67, 95
3, 221760, Note_on_c, 2, 64, 95
3, 221760, Note_on_c, 2, 60, 95
3, 221760, Note_on_c, 2, 55, 95
3, 221760, Note_on_c, 2, 48, 95
3, 222240, Note_off_c, 2, 72, 95
3, 222240, Note_off_c, 2, 67, 95
3, 222240, Note_off_c, 2, 64, 95
3, 222240, Note_off_c, 2, 60, 95
3, 222240, Note_off_c, 2, 55, 95
3, 222240, Note_off_c, 2, 48, 95
3, 222240, Note_on_c, 2, 72, 95
3, 222240, Note_on_c, 2, 69, 95
3, 222240, Note_on_c, 2, 65, 95
3, 222240, Note_on_c, 2, 60, 95
3, 222240, Note_on_c, 2, 53, 95
3, 222240, Note_on_c, 2, 48, 95
3, 223200, Note_off_c, 2, 72, 95
3, 223200, Note_off_c, 2, 69, 95
3, 223200, Note_off_c, 2, 65, 95
3, 223200, Note_off_c, 2, 60, 95
3, 223200, Note_off_c, 2, 53, 95
3, 223200, Note_off_c, 2, 48, 95
3, 223200, Note_on_c, 2, 72, 95
3, 223200, Note_on_c, 2, 69, 95
3, 223200, Note_on_c, 2, 65, 95
3, 223200, Note_on_c, 2, 60, 95
3, 223200, Note_on_c, 2, 53, 95
3, 223200, Note_on_c, 2, 48, 95
3, 223680, Note_off_c, 2, 72, 95
3, 223680, Note_off_c, 2, 69, 95
3, 223680, Note_off_c, 2, 65, 95
3, 223680, Note_off_c, 2, 60, 95
3, 223680, Note_off_c, 2, 53, 95
3, 223680, Note_off_c, 2, 48, 95
3, 223680, Note_on_c, 2, 72, 95
3, 223680, Note_on_c, 2, 69, 95
3, 223680, Note_on_c, 2, 65, 95
3, 223680, Note_on_c, 2, 60, 95
3, 223680, Note_on_c, 2, 53, 95
3, 223680, Note_on_c, 2, 48, 95
3, 224640, Note_off_c, 2, 72, 95
3, 224640, Note_off_c, 2, 69, 95
3, 224640, Note_off_c, 2, 65, 95
3, 224640, Note_off_c, 2, 60, 95
3, 224640, Note_off_c, 2, 53, 95
3, 224640, Note_off_c, 2, 48, 95
3, 224640, Note_on_c, 2, 72, 95
3, 224640, Note_on_c, 2, 69, 95
3, 224640, Note_on_c, 2, 65, 95
3, 224640, Note_on_c, 2, 60, 95
3, 224640, Note_on_c, 2, 53, 95
3, 224640, Note_on_c, 2, 48, 95
3, 225120, Note_off_c, 2, 72, 95
3, 225120, Note_off_c, 2, 69, 95
3, 225120, Note_off_c, 2, 65, 95
3, 225120, Note_off_c, 2, 60, 95
3, 225120, Note_off_c, 2, 53, 95
3, 225120, Note_off_c, 2, 48, 95
3, 225120, Note_on_c, 2, 72, 95
3, 225120, Note_on_c, 2, 69, 95
3, 225120, Note_on_c, 2, 65, 95
3, 225120, Note_on_c, 2, 60, 95
3, 225120, Note_on_c, 2, 53, 95
3, 225120, Note_on_c, 2, 48, 95
3, 225600, Note_off_c, 2, 72, 95
3, 225600, Note_off_c, 2, 69, 95
3, 225600, Note_off_c, 2, 65, 95
3, 225600, Note_off_c, 2, 60, 95
3, 225600, Note_off_c, 2, 53, 95
3, 225600, Note_off_c, 2, 48, 95
3, 225600, Note_on_c, 2, 72, 95
3, 225600, Note_on_c, 2, 69, 95
3, 225600, Note_on_c, 2, 65, 95
3, 225600, Note_on_c, 2, 60, 95
3, 225600, Note_on_c, 2, 53, 95
3, 225600, Note_on_c, 2, 48, 95
3, 226080, Note_off_c, 2, 72, 95
3, 226080, Note_off_c, 2, 69, 95
3, 226080, Note_off_c, 2, 65, 95
3, 226080, Note_off_c, 2, 60, 95
3, 226080, Note_off_c, 2, 53, 95
3, 226080, Note_off_c, 2, 48, 95
3, 226080, Note_on_c, 2, 72, 95
3, 226080, Note_on_c, 2, 69, 95
3, 226080, Note_on_c, 2, 65, 95
3, 226080, Note_on_c, 2, 60, 95
3, 226080, Note_on_c, 2, 53, 95
3, 226080, Note_on_c, 2, 48, 95
3, 226560, Note_off_c, 2, 72, 95
3, 226560, Note_off_c, 2, 69, 95
3, 226560, Note_off_c, 2, 65, 95
3, 226560, Note_off_c, 2, 60, 95
3, 226560, Note_off_c, 2, 53, 95
3, 226560, Note_off_c, 2, 48, 95
3, 226560, Note_on_c, 2, 72, 95
3, 226560, Note_on_c, 2, 67, 95
3, 226560, Note_on_c, 2, 64, 95
3, 226560, Note_on_c, 2, 60, 95
3, 226560, Note_on_c, 2, 55, 95
3, 226560, Note_on_c, 2, 48, 95
3, 227040, Note_off_c, 2, 72, 95
3, 227040, Note_off_c, 2, 67, 95
3, 227040, Note_off_c, 2, 64, 95
3, 227040, Note_off_c, 2, 60, 95
3, 227040, Note_off_c, 2, 55, 95
3, 227040, Note_off_c, 2, 48, 95
3, 227040, Note_on_c, 2, 72, 95
3, 227040, Note_on_c, 2, 67, 95
3, 227040, Note_on_c, 2, 64, 95
3, 227040, Note_on_c, 2, 60, 95
3, 227040, Note_on_c, 2, 55, 95
3, 227040, Note_on_c, 2, 48, 95
3, 227520, Note_off_c, 2, 72, 95
3, 227520, Note_off_c, 2, 67, 95
3, 227520, Note_off_c, 2, 64, 95
3, 227520, Note_off_c, 2, 60, 95
3, 227520, Note_off_c, 2, 55, 95
3, 227520, Note_off_c, 2, 48, 95
3, 227520, Note_on_c, 2, 72, 95
3, 227520, Note_on_c, 2, 67, 95
3, 227520, Note_on_c, 2, 64, 95
3, 227520, Note_on_c, 2, 60, 95
3, 227520, Note_on_c, 2, 55, 95
3, 227520, Note_on_c, 2, 48, 95
3, 228480, Note_off_c, 2, 72, 95
3, 228480, Note_off_c, 2, 67, 95
3, 228480, Note_off_c, 2, 64, 95
3, 228480, Note_off_c, 2, 60, 95
3, 228480, Note_off_c, 2, 55, 95
3, 228480, Note_off_c, 2, 48, 95
3, 228480, Note_on_c, 2, 72, 95
3, 228480, Note_on_c, 2, 67, 95
3, 228480, Note_on_c, 2, 64, 95
3, 228480, Note_on_c, 2, 60, 95
3, 228480, Note_on_c, 2, 55, 95
3, 228480, Note_on_c, 2, 48, 95
3, 228960, Note_off_c, 2, 72, 95
3, 228960, Note_off_c, 2, 67, 95
3, 228960, Note_off_c, 2, 64, 95
3, 228960, Note_off_c, 2, 60, 95
3, 228960, Note_off_c, 2, 55, 95
3, 228960, Note_off_c, 2, 48, 95
3, 228960, Note_on_c, 2, 72, 95
3, 228960, Note_on_c, 2, 67, 95
3, 228960, Note_on_c, 2, 64, 95
3, 228960, Note_on_c, 2, 60, 95
3, 228960, Note_on_c, 2, 55, 95
3, 228960, Note_on_c, 2, 48, 95
3, 229440, Note_off_c, 2, 72, 95
3, 229440, Note_off_c, 2, 67, 95
3, 229440, Note_off_c, 2, 64, 95
3, 229440, Note_off_c, 2, 60, 95
3, 229440, Note_off_c, 2, 55, 95
3, 229440, Note_off_c, 2, 48, 95
3, 229440, Note_on_c, 2, 72, 95
3, 229440, Note_on_c, 2, 67, 95
3, 229440, Note_on_c, 2, 64, 95
3, 229440, Note_on_c, 2, 60, 95
3, 229440, Note_on_c, 2, 55, 95
3, 229440, Note_on_c, 2, 48, 95
3, 229920, Note_off_c, 2, 72, 95
3, 229920, Note_off_c, 2, 67, 95
3, 229920, Note_off_c, 2, 64, 95
3, 229920, Note_off_c, 2, 60, 95
3, 229920, Note_off_c, 2, 55, 95
3, 229920, Note_off_c, 2, 48, 95
3, 229920, Note_on_c, 2, 72, 95
3, 229920, Note_on_c, 2, 67, 95
3, 229920, Note_on_c, 2, 64, 95
3, 229920, Note_on_c, 2, 60, 95
3, 229920, Note_on_c, 2, 55, 95
3, 229920, Note_on_c, 2, 48, 95
3, 230400, Note_off_c, 2, 72, 95
3, 230400, Note_off_c, 2, 67, 95
3, 230400, Note_off_c, 2, 64, 95
3, 230400, Note_off_c, 2, 60, 95
3, 230400, Note_off_c, 2, 55, 95
3, 230400, Note_off_c, 2, 48, 95
3, 230400, Note_on_c, 2, 69, 95
3, 230400, Note_on_c, 2, 65, 95
3, 230400, Note_on_c, 2, 60, 95
3, 230400, Note_on_c, 2, 53, 95
3, 230880, Note_off_c, 2, 69, 95
3, 230880, Note_off_c, 2, 65, 95
3, 230880, Note_off_c, 2, 60, 95
3, 230880, Note_off_c, 2, 53, 95
3, 230880, Note_on_c, 2, 69, 95
3, 230880, Note_on_c, 2, 65, 95
3, 230880, Note_on_c, 2, 60, 95
3, 230880, Note_on_c, 2, 53, 95
3, 231360, Note_off_c, 2, 69, 95
3, 231360, Note_off_c, 2, 65, 95
3, 231360, Note_off_c, 2, 60, 95
3, 231360, Note_off_c, 2, 53, 95
3, 231360, Note_on_c, 2, 64, 95
3, 231360, Note_on_c, 2, 60, 95
3, 231360, Note_on_c, 2, 55, 95
3, 231360, Note_on_c, 2, 48, 95
3, 231840, Note_off_c, 2, 64, 95
3, 231840, Note_off_c, 2, 60, 95
3, 231840, Note_off_c, 2, 55, 95
3, 231840, Note_off_c, 2, 48, 95
3, 231840, Note_on_c, 2, 69, 95
3, 231840, Note_on_c, 2, 65, 95
3, 231840, Note_on_c, 2, 60, 95
3, 231840, Note_on_c, 2, 53, 95
3, 232320, Note_off_c, 2, 65, 95
3, 232800, Note_off_c, 2, 69, 95
3, 232800, Note_off_c, 2, 60, 95
3, 232800, Note_off_c, 2, 53, 95
3, 232800, Note_on_c, 2, 69, 95
3, 232800, Note_on_c, 2, 65, 95
3, 232800, Note_on_c, 2, 60, 95
3, 232800, Note_on_c, 2, 53, 95
3, 233280, Note_off_c, 2, 69, 95
3, 233280, Note_off_c, 2, 65, 95
3, 233280, Note_off_c, 2, 60, 95
3, 233280, Note_off_c, 2, 53, 95
3, 233280, Note_on_c, 2, 64, 95
3, 233280, Note_on_c, 2, 60, 95
3, 233280, Note_on_c, 2, 55, 95
3, 233280, Note_on_c, 2, 48, 95
3, 233760, Note_off_c, 2, 64, 95
3, 233760, Note_off_c, 2, 60, 95
3, 233760, Note_off_c, 2, 55, 95
3, 233760, Note_off_c, 2, 48, 95
3, 233760, Note_on_c, 2, 69, 95
3, 233760, Note_on_c, 2, 65, 95
3, 233760, Note_on_c, 2, 60, 95
3, 233760, Note_on_c, 2, 53, 95
3, 234240, Note_off_c, 2, 65, 95
3, 234720, Note_off_c, 2, 69, 95
3, 234720, Note_off_c, 2, 60, 95
3, 234720, Note_off_c, 2, 53, 95
3, 234720, Note_on_c, 2, 69, 95
3, 234720, Note_on_c, 2, 65, 95
3, 234720, Note_on_c, 2, 60, 95
3, 234720, Note_on_c, 2, 53, 95
3, 235200, Note_off_c, 2, 69, 95
3, 235200, Note_off_c, 2, 65, 95
3, 235200, Note_off_c, 2, 60, 95
3, 235200, Note_off_c, 2, 53, 95
3, 235200, Note_on_c, 2, 64, 95
3, 235200, Note_on_c, 2, 60, 95
3, 235200, Note_on_c, 2, 55, 95
3, 235200, Note_on_c, 2, 48, 95
3, 235680, Note_off_c, 2, 64, 95
3, 235680, Note_off_c, 2, 60, 95
3, 235680, Note_off_c, 2, 55, 95
3, 235680, Note_off_c, 2, 48, 95
3, 235680, Note_on_c, 2, 69, 95
3, 235680, Note_on_c, 2, 65, 95
3, 235680, Note_on_c, 2, 60, 95
3, 235680, Note_on_c, 2, 53, 95
3, 236160, Note_off_c, 2, 65, 95
3, 236640, Note_off_c, 2, 69, 95
3, 236640, Note_off_c, 2, 60, 95
3, 236640, Note_off_c, 2, 53, 95
3, 236640, Note_on_c, 2, 69, 95
3, 236640, Note_on_c, 2, 65, 95
3, 236640, Note_on_c, 2, 60, 95
3, 236640, Note_on_c, 2, 53, 95
3, 237120, Note_off_c, 2, 69, 95
3, 237120, Note_off_c, 2, 65, 95
3, 237120, Note_off_c, 2, 60, 95
3, 237120, Note_off_c, 2, 53, 95
3, 237120, Note_on_c, 2, 64, 95
3, 237120, Note_on_c, 2, 60, 95
3, 237120, Note_on_c, 2, 55, 95
3, 237120, Note_on_c, 2, 48, 95
3, 237600, Note_off_c, 2, 64, 95
3, 237600, Note_off_c, 2, 60, 95
3, 237600, Note_off_c, 2, 55, 95
3, 237600, Note_off_c, 2, 48, 95
3, 237600, Note_on_c, 2, 69, 95
3, 237600, Note_on_c, 2, 65, 95
3, 237600, Note_on_c, 2, 60, 95
3, 237600, Note_on_c, 2, 53, 95
3, 238080, Note_off_c, 2, 69, 95
3, 238080, Note_off_c, 2, 65, 95
3, 238080, Note_off_c, 2, 60, 95
3, 238080, Note_off_c, 2, 53, 95
3, 238080, Note_on_c, 2, 69, 95
3, 238080, Note_on_c, 2, 65, 95
3, 238080, Note_on_c, 2, 60, 95
3, 238080, Note_on_c, 2, 53, 95
3, 238560, Note_off_c, 2, 69, 95
3, 238560, Note_off_c, 2, 65, 95
3, 238560, Note_off_c, 2, 60, 95
3, 238560, Note_off_c, 2, 53, 95
3, 238560, Note_on_c, 2, 69, 95
3, 238560, Note_on_c, 2, 65, 95
3, 238560, Note_on_c, 2, 60, 95
3, 238560, Note_on_c, 2, 53, 95
3, 239040, Note_off_c, 2, 69, 95
3, 239040, Note_off_c, 2, 65, 95
3, 239040, Note_off_c, 2, 60, 95
3, 239040, Note_off_c, 2, 53, 95
3, 239040, Note_on_c, 2, 64, 95
3, 239040, Note_on_c, 2, 60, 95
3, 239040, Note_on_c, 2, 55, 95
3, 239040, Note_on_c, 2, 48, 95
3, 239520, Note_off_c, 2, 64, 95
3, 239520, Note_off_c, 2, 60, 95
3, 239520, Note_off_c, 2, 55, 95
3, 239520, Note_off_c, 2, 48, 95
3, 239520, Note_on_c, 2, 69, 95
3, 239520, Note_on_c, 2, 65, 95
3, 239520, Note_on_c, 2, 60, 95
3, 239520, Note_on_c, 2, 53, 95
3, 240000, Note_off_c, 2, 69, 95
3, 240000, Note_off_c, 2, 65, 95
3, 240000, Note_off_c, 2, 60, 95
3, 240000, Note_off_c, 2, 53, 95
3, 240000, Note_on_c, 2, 69, 95
3, 240000, Note_on_c, 2, 65, 95
3, 240000, Note_on_c, 2, 60, 95
3, 240000, Note_on_c, 2, 53, 95
3, 240480, Note_off_c, 2, 69, 95
3, 240480, Note_off_c, 2, 65, 95
3, 240480, Note_off_c, 2, 60, 95
3, 240480, Note_off_c, 2, 53, 95
3, 240480, Note_on_c, 2, 69, 95
3, 240480, Note_on_c, 2, 65, 95
3, 240480, Note_on_c, 2, 60, 95
3, 240480, Note_on_c, 2, 53, 95
3, 240960, Note_off_c, 2, 69, 95
3, 240960, Note_off_c, 2, 65, 95
3, 240960, Note_off_c, 2, 60, 95
3, 240960, Note_off_c, 2, 53, 95
3, 240960, Note_on_c, 2, 64, 95
3, 240960, Note_on_c, 2, 60, 95
3, 240960, Note_on_c, 2, 55, 95
3, 240960, Note_on_c, 2, 48, 95
3, 241440, Note_off_c, 2, 64, 95
3, 241440, Note_off_c, 2, 60, 95
3, 241440, Note_off_c, 2, 55, 95
3, 241440, Note_off_c, 2, 48, 95
3, 241440, Note_on_c, 2, 69, 95
3, 241440, Note_on_c, 2, 65, 95
3, 241440, Note_on_c, 2, 60, 95
3, 241440, Note_on_c, 2, 53, 95
3, 241440, Note_on_c, 2, 48, 95
3, 241920, Note_off_c, 2, 69, 95
3, 241920, Note_off_c, 2, 65, 95
3, 241920, Note_off_c, 2, 60, 95
3, 241920, Note_off_c, 2, 53, 95
3, 241920, Note_off_c, 2, 48, 95
3, 241920, Note_on_c, 2, 69, 95
3, 241920, Note_on_c, 2, 65, 95
3, 241920, Note_on_c, 2, 60, 95
3, 241920, Note_on_c, 2, 53, 95
3, 242400, Note_off_c, 2, 69, 95
3, 242400, Note_off_c, 2, 65, 95
3, 242400, Note_off_c, 2, 60, 95
3, 242400, Note_off_c, 2, 53, 95
3, 242400, Note_on_c, 2, 69, 95
3, 242400, Note_on_c, 2, 65, 95
3, 242400, Note_on_c, 2, 60, 95
3, 242400, Note_on_c, 2, 53, 95
3, 242880, Note_off_c, 2, 69, 95
3, 242880, Note_off_c, 2, 65, 95
3, 242880, Note_off_c, 2, 60, 95
3, 242880, Note_off_c, 2, 53, 95
3, 242880, Note_on_c, 2, 69, 95
3, 242880, Note_on_c, 2, 65, 95
3, 242880, Note_on_c, 2, 60, 95
3, 242880, Note_on_c, 2, 53, 95
3, 243360, Note_off_c, 2, 69, 95
3, 243360, Note_off_c, 2, 65, 95
3, 243360, Note_off_c, 2, 60, 95
3, 243360, Note_off_c, 2, 53, 95
3, 243360, Note_on_c, 2, 69, 95
3, 243360, Note_on_c, 2, 65, 95
3, 243360, Note_on_c, 2, 60, 95
3, 243360, Note_on_c, 2, 53, 95
3, 243840, Note_off_c, 2, 69, 95
3, 243840, Note_off_c, 2, 65, 95
3, 243840, Note_off_c, 2, 60, 95
3, 243840, Note_off_c, 2, 53, 95
3, 243840, Note_on_c, 2, 64, 95
3, 243840, Note_on_c, 2, 60, 95
3, 243840, Note_on_c, 2, 55, 95
3, 243840, Note_on_c, 2, 48, 95
3, 244320, Note_off_c, 2, 64, 95
3, 244320, Note_off_c, 2, 60, 95
3, 244320, Note_off_c, 2, 55, 95
3, 244320, Note_off_c, 2, 48, 95
3, 244320, Note_on_c, 2, 64, 95
3, 244320, Note_on_c, 2, 60, 95
3, 244320, Note_on_c, 2, 55, 95
3, 244320, Note_on_c, 2, 48, 95
3, 244800, Note_off_c, 2, 64, 95
3, 244800, Note_off_c, 2, 60, 95
3, 244800, Note_off_c, 2, 55, 95
3, 244800, Note_off_c, 2, 48, 95
3, 244800, Note_on_c, 2, 64, 95
3, 244800, Note_on_c, 2, 60, 95
3, 244800, Note_on_c, 2, 55, 95
3, 244800, Note_on_c, 2, 48, 95
3, 245280, Note_off_c, 2, 64, 95
3, 245280, Note_off_c, 2, 60, 95
3, 245280, Note_off_c, 2, 55, 95
3, 245280, Note_off_c, 2, 48, 95
3, 245280, Note_on_c, 2, 64, 95
3, 245280, Note_on_c, 2, 60, 95
3, 245280, Note_on_c, 2, 53, 95
3, 245280, Note_on_c, 2, 48, 95
3, 245760, Note_off_c, 2, 64, 95
3, 245760, Note_off_c, 2, 60, 95
3, 245760, Note_off_c, 2, 53, 95
3, 245760, Note_off_c, 2, 48, 95
3, 245760, Note_on_c, 2, 69, 95
3, 245760, Note_on_c, 2, 65, 95
3, 245760, Note_on_c, 2, 60, 95
3, 245760, Note_on_c, 2, 53, 95
3, 246240, Note_off_c, 2, 69, 95
3, 246240, Note_off_c, 2, 65, 95
3, 246240, Note_off_c, 2, 60, 95
3, 246240, Note_off_c, 2, 53, 95
3, 246240, Note_on_c, 2, 69, 95
3, 246240, Note_on_c, 2, 65, 95
3, 246240, Note_on_c, 2, 60, 95
3, 246240, Note_on_c, 2, 53, 95
3, 246720, Note_off_c, 2, 69, 95
3, 246720, Note_off_c, 2, 65, 95
3, 246720, Note_off_c, 2, 60, 95
3, 246720, Note_off_c, 2, 53, 95
3, 246720, Note_on_c, 2, 69, 95
3, 246720, Note_on_c, 2, 65, 95
3, 246720, Note_on_c, 2, 60, 95
3, 246720, Note_on_c, 2, 53, 95
3, 247680, Note_off_c, 2, 69, 95
3, 247680, Note_off_c, 2, 65, 95
3, 247680, Note_off_c, 2, 60, 95
3, 247680, Note_off_c, 2, 53, 95
3, 247680, Note_on_c, 2, 69, 95
3, 247680, Note_on_c, 2, 65, 95
3, 247680, Note_on_c, 2, 60, 95
3, 247680, Note_on_c, 2, 53, 95
3, 248160, Note_off_c, 2, 69, 95
3, 248160, Note_off_c, 2, 65, 95
3, 248160, Note_off_c, 2, 60, 95
3, 248160, Note_off_c, 2, 53, 95
3, 248160, Note_on_c, 2, 64, 95
3, 248160, Note_on_c, 2, 60, 95
3, 248160, Note_on_c, 2, 55, 95
3, 248160, Note_on_c, 2, 48, 95
3, 249120, Note_off_c, 2, 64, 95
3, 249120, Note_off_c, 2, 60, 95
3, 249120, Note_off_c, 2, 55, 95
3, 249120, Note_off_c, 2, 48, 95
3, 249120, Note_on_c, 2, 69, 95
3, 249120, Note_on_c, 2, 65, 95
3, 249120, Note_on_c, 2, 60, 95
3, 249120, Note_on_c, 2, 53, 95
3, 250080, Note_off_c, 2, 69, 95
3, 250080, Note_off_c, 2, 65, 95
3, 250080, Note_off_c, 2, 60, 95
3, 250080, Note_off_c, 2, 53, 95
3, 250080, Note_on_c, 2, 69, 95
3, 250080, Note_on_c, 2, 65, 95
3, 250080, Note_on_c, 2, 60, 95
3, 250080, Note_on_c, 2, 53, 95
3, 250560, Note_off_c, 2, 69, 95
3, 250560, Note_off_c, 2, 65, 95
3, 250560, Note_off_c, 2, 60, 95
3, 250560, Note_off_c, 2, 53, 95
3, 250560, Note_on_c, 2, 69, 95
3, 250560, Note_on_c, 2, 65, 95
3, 250560, Note_on_c, 2, 60, 95
3, 250560, Note_on_c, 2, 53, 95
3, 251520, Note_off_c, 2, 69, 95
3, 251520, Note_off_c, 2, 65, 95
3, 251520, Note_off_c, 2, 60, 95
3, 251520, Note_off_c, 2, 53, 95
3, 251520, Note_on_c, 2, 69, 95
3, 251520, Note_on_c, 2, 65, 95
3, 251520, Note_on_c, 2, 60, 95
3, 251520, Note_on_c, 2, 53, 95
3, 252000, Note_off_c, 2, 69, 95
3, 252000, Note_off_c, 2, 65, 95
3, 252000, Note_off_c, 2, 60, 95
3, 252000, Note_off_c, 2, 53, 95
3, 252000, Note_on_c, 2, 69, 95
3, 252000, Note_on_c, 2, 65, 95
3, 252000, Note_on_c, 2, 60, 95
3, 252000, Note_on_c, 2, 53, 95
3, 252480, Note_off_c, 2, 69, 95
3, 252480, Note_off_c, 2, 65, 95
3, 252480, Note_off_c, 2, 60, 95
3, 252480, Note_off_c, 2, 53, 95
3, 252480, Note_on_c, 2, 64, 95
3, 252480, Note_on_c, 2, 60, 95
3, 252480, Note_on_c, 2, 55, 95
3, 252480, Note_on_c, 2, 48, 95
3, 252960, Note_off_c, 2, 64, 95
3, 252960, Note_off_c, 2, 60, 95
3, 252960, Note_off_c, 2, 55, 95
3, 252960, Note_off_c, 2, 48, 95
3, 252960, Note_on_c, 2, 69, 95
3, 252960, Note_on_c, 2, 65, 95
3, 252960, Note_on_c, 2, 60, 95
3, 252960, Note_on_c, 2, 53, 95
3, 253920, Note_off_c, 2, 69, 95
3, 253920, Note_off_c, 2, 65, 95
3, 253920, Note_off_c, 2, 60, 95
3, 253920, Note_off_c, 2, 53, 95
3, 253920, Note_on_c, 2, 69, 95
3, 253920, Note_on_c, 2, 65, 95
3, 253920, Note_on_c, 2, 60, 95
3, 253920, Note_on_c, 2, 53, 95
3, 254400, Note_off_c, 2, 69, 95
3, 254400, Note_off_c, 2, 65, 95
3, 254400, Note_off_c, 2, 60, 95
3, 254400, Note_off_c, 2, 53, 95
3, 254400, Note_on_c, 2, 64, 95
3, 254400, Note_on_c, 2, 60, 95
3, 254400, Note_on_c, 2, 55, 95
3, 254400, Note_on_c, 2, 48, 95
3, 254880, Note_off_c, 2, 64, 95
3, 254880, Note_off_c, 2, 60, 95
3, 254880, Note_off_c, 2, 55, 95
3, 254880, Note_off_c, 2, 48, 95
3, 254880, Note_on_c, 2, 69, 95
3, 254880, Note_on_c, 2, 65, 95
3, 254880, Note_on_c, 2, 60, 95
3, 254880, Note_on_c, 2, 53, 95
3, 255360, Note_off_c, 2, 69, 95
3, 255360, Note_off_c, 2, 65, 95
3, 255360, Note_off_c, 2, 60, 95
3, 255360, Note_off_c, 2, 53, 95
3, 255360, Note_on_c, 2, 69, 95
3, 255360, Note_on_c, 2, 65, 95
3, 255360, Note_on_c, 2, 60, 95
3, 255360, Note_on_c, 2, 53, 95
3, 255840, Note_off_c, 2, 69, 95
3, 255840, Note_off_c, 2, 65, 95
3, 255840, Note_off_c, 2, 60, 95
3, 255840, Note_off_c, 2, 53, 95
3, 255840, Note_on_c, 2, 69, 95
3, 255840, Note_on_c, 2, 65, 95
3, 255840, Note_on_c, 2, 60, 95
3, 255840, Note_on_c, 2, 53, 95
3, 256320, Note_off_c, 2, 69, 95
3, 256320, Note_off_c, 2, 65, 95
3, 256320, Note_off_c, 2, 60, 95
3, 256320, Note_off_c, 2, 53, 95
3, 256320, Note_on_c, 2, 64, 95
3, 256320, Note_on_c, 2, 60, 95
3, 256320, Note_on_c, 2, 55, 95
3, 256320, Note_on_c, 2, 48, 95
3, 256800, Note_off_c, 2, 64, 95
3, 256800, Note_off_c, 2, 60, 95
3, 256800, Note_off_c, 2, 55, 95
3, 256800, Note_off_c, 2, 48, 95
3, 256800, Note_on_c, 2, 69, 95
3, 256800, Note_on_c, 2, 65, 95
3, 256800, Note_on_c, 2, 60, 95
3, 256800, Note_on_c, 2, 53, 95
3, 257280, Note_off_c, 2, 69, 95
3, 257280, Note_off_c, 2, 65, 95
3, 257280, Note_off_c, 2, 60, 95
3, 257280, Note_off_c, 2, 53, 95
3, 257280, Note_on_c, 2, 69, 95
3, 257280, Note_on_c, 2, 65, 95
3, 257280, Note_on_c, 2, 60, 95
3, 257280, Note_on_c, 2, 53, 95
3, 257760, Note_off_c, 2, 69, 95
3, 257760, Note_off_c, 2, 65, 95
3, 257760, Note_off_c, 2, 60, 95
3, 257760, Note_off_c, 2, 53, 95
3, 257760, Note_on_c, 2, 69, 95
3, 257760, Note_on_c, 2, 65, 95
3, 257760, Note_on_c, 2, 60, 95
3, 257760, Note_on_c, 2, 53, 95
3, 258240, Note_off_c, 2, 69, 95
3, 258240, Note_off_c, 2, 65, 95
3, 258240, Note_off_c, 2, 60, 95
3, 258240, Note_off_c, 2, 53, 95
3, 258240, Note_on_c, 2, 64, 95
3, 258240, Note_on_c, 2, 60, 95
3, 258240, Note_on_c, 2, 55, 95
3, 258240, Note_on_c, 2, 48, 95
3, 258720, Note_off_c, 2, 64, 95
3, 258720, Note_off_c, 2, 60, 95
3, 258720, Note_off_c, 2, 55, 95
3, 258720, Note_off_c, 2, 48, 95
3, 258720, Note_on_c, 2, 69, 95
3, 258720, Note_on_c, 2, 65, 95
3, 258720, Note_on_c, 2, 60, 95
3, 258720, Note_on_c, 2, 53, 95
3, 259680, Note_off_c, 2, 69, 95
3, 259680, Note_off_c, 2, 65, 95
3, 259680, Note_off_c, 2, 60, 95
3, 259680, Note_off_c, 2, 53, 95
3, 259680, Note_on_c, 2, 69, 95
3, 259680, Note_on_c, 2, 65, 95
3, 259680, Note_on_c, 2, 60, 95
3, 259680, Note_on_c, 2, 53, 95
3, 260160, Note_off_c, 2, 69, 95
3, 260160, Note_off_c, 2, 65, 95
3, 260160, Note_off_c, 2, 60, 95
3, 260160, Note_off_c, 2, 53, 95
3, 260160, Note_on_c, 2, 64, 95
3, 260160, Note_on_c, 2, 60, 95
3, 260160, Note_on_c, 2, 55, 95
3, 260160, Note_on_c, 2, 48, 95
3, 260640, Note_off_c, 2, 64, 95
3, 260640, Note_off_c, 2, 60, 95
3, 260640, Note_off_c, 2, 55, 95
3, 260640, Note_off_c, 2, 48, 95
3, 260640, Note_on_c, 2, 69, 95
3, 260640, Note_on_c, 2, 65, 95
3, 260640, Note_on_c, 2, 60, 95
3, 260640, Note_on_c, 2, 53, 95
3, 261120, Note_off_c, 2, 69, 95
3, 261120, Note_off_c, 2, 65, 95
3, 261120, Note_off_c, 2, 60, 95
3, 261120, Note_off_c, 2, 53, 95
3, 261120, Note_on_c, 2, 69, 95
3, 261120, Note_on_c, 2, 65, 95
3, 261120, Note_on_c, 2, 60, 95
3, 261120, Note_on_c, 2, 53, 95
3, 261600, Note_off_c, 2, 69, 95
3, 261600, Note_off_c, 2, 65, 95
3, 261600, Note_off_c, 2, 60, 95
3, 261600, Note_off_c, 2, 53, 95
3, 261600, Note_on_c, 2, 69, 95
3, 261600, Note_on_c, 2, 65, 95
3, 261600, Note_on_c, 2, 60, 95
3, 261600, Note_on_c, 2, 53, 95
3, 262080, Note_off_c, 2, 69, 95
3, 262080, Note_off_c, 2, 65, 95
3, 262080, Note_off_c, 2, 60, 95
3, 262080, Note_off_c, 2, 53, 95
3, 262080, Note_on_c, 2, 69, 95
3, 262080, Note_on_c, 2, 65, 95
3, 262080, Note_on_c, 2, 60, 95
3, 262080, Note_on_c, 2, 53, 95
3, 262560, Note_off_c, 2, 69, 95
3, 262560, Note_off_c, 2, 65, 95
3, 262560, Note_off_c, 2, 60, 95
3, 262560, Note_off_c, 2, 53, 95
3, 262560, Note_on_c, 2, 64, 95
3, 262560, Note_on_c, 2, 60, 95
3, 262560, Note_on_c, 2, 55, 95
3, 262560, Note_on_c, 2, 48, 95
3, 263040, Note_off_c, 2, 64, 95
3, 263040, Note_off_c, 2, 60, 95
3, 263040, Note_off_c, 2, 55, 95
3, 263040, Note_off_c, 2, 48, 95
3, 263040, Note_on_c, 2, 64, 95
3, 263040, Note_on_c, 2, 60, 95
3, 263040, Note_on_c, 2, 55, 95
3, 263040, Note_on_c, 2, 48, 95
3, 263520, Note_off_c, 2, 64, 95
3, 263520, Note_off_c, 2, 60, 95
3, 263520, Note_off_c, 2, 55, 95
3, 263520, Note_off_c, 2, 48, 95
3, 263520, Note_on_c, 2, 64, 95
3, 263520, Note_on_c, 2, 60, 95
3, 263520, Note_on_c, 2, 55, 95
3, 263520, Note_on_c, 2, 48, 95
3, 264000, Note_off_c, 2, 64, 95
3, 264000, Note_off_c, 2, 60, 95
3, 264000, Note_off_c, 2, 55, 95
3, 264000, Note_off_c, 2, 48, 95
3, 264000, Note_on_c, 2, 64, 95
3, 264000, Note_on_c, 2, 60, 95
3, 264000, Note_on_c, 2, 55, 95
3, 264000, Note_on_c, 2, 48, 95
3, 264480, Note_off_c, 2, 64, 95
3, 264480, Note_off_c, 2, 60, 95
3, 264480, Note_off_c, 2, 55, 95
3, 264480, Note_off_c, 2, 48, 95
3, 264480, Note_on_c, 2, 64, 95
3, 264480, Note_on_c, 2, 60, 95
3, 264480, Note_on_c, 2, 55, 95
3, 264480, Note_on_c, 2, 48, 95
3, 264960, Note_off_c, 2, 64, 95
3, 264960, Note_off_c, 2, 60, 95
3, 264960, Note_off_c, 2, 55, 95
3, 264960, Note_off_c, 2, 48, 95
3, 264960, Note_on_c, 2, 69, 95
3, 264960, Note_on_c, 2, 65, 95
3, 264960, Note_on_c, 2, 60, 95
3, 264960, Note_on_c, 2, 53, 95
3, 265440, Note_off_c, 2, 69, 95
3, 265440, Note_off_c, 2, 65, 95
3, 265440, Note_off_c, 2, 60, 95
3, 265440, Note_off_c, 2, 53, 95
3, 265440, Note_on_c, 2, 69, 95
3, 265440, Note_on_c, 2, 65, 95
3, 265440, Note_on_c, 2, 60, 95
3, 265440, Note_on_c, 2, 53, 95
3, 265920, Note_off_c, 2, 69, 95
3, 265920, Note_off_c, 2, 65, 95
3, 265920, Note_off_c, 2, 60, 95
3, 265920, Note_off_c, 2, 53, 95
3, 265920, Note_on_c, 2, 69, 95
3, 265920, Note_on_c, 2, 65, 95
3, 265920, Note_on_c, 2, 60, 95
3, 265920, Note_on_c, 2, 53, 95
3, 266400, Note_off_c, 2, 69, 95
3, 266400, Note_off_c, 2, 65, 95
3, 266400, Note_off_c, 2, 60, 95
3, 266400, Note_off_c, 2, 53, 95
3, 266400, Note_on_c, 2, 69, 95
3, 266400, Note_on_c, 2, 65, 95
3, 266400, Note_on_c, 2, 60, 95
3, 266400, Note_on_c, 2, 53, 95
3, 266880, Note_off_c, 2, 69, 95
3, 266880, Note_off_c, 2, 65, 95
3, 266880, Note_off_c, 2, 60, 95
3, 266880, Note_off_c, 2, 53, 95
3, 266880, Note_on_c, 2, 69, 95
3, 266880, Note_on_c, 2, 65, 95
3, 266880, Note_on_c, 2, 60, 95
3, 266880, Note_on_c, 2, 53, 95
3, 267360, Note_off_c, 2, 69, 95
3, 267360, Note_off_c, 2, 65, 95
3, 267360, Note_off_c, 2, 60, 95
3, 267360, Note_off_c, 2, 53, 95
3, 267360, Note_on_c, 2, 53, 95
3, 267360, Note_on_c, 2, 48, 95
3, 267360, Note_on_c, 2, 41, 95
3, 267840, Note_off_c, 2, 53, 95
3, 267840, Note_off_c, 2, 48, 95
3, 267840, Note_off_c, 2, 41, 95
3, 267840, Note_on_c, 2, 54, 95
3, 267840, Note_on_c, 2, 49, 95
3, 267840, Note_on_c, 2, 42, 95
3, 268320, Note_off_c, 2, 54, 95
3, 268320, Note_off_c, 2, 49, 95
3, 268320, Note_off_c, 2, 42, 95
3, 268320, Note_on_c, 2, 67, 95
3, 268320, Note_on_c, 2, 62, 95
3, 268320, Note_on_c, 2, 59, 95
3, 268320, Note_on_c, 2, 55, 95
3, 268320, Note_on_c, 2, 50, 95
3, 268320, Note_on_c, 2, 43, 95
3, 269280, Note_off_c, 2, 67, 95
3, 269280, Note_off_c, 2, 62, 95
3, 269280, Note_off_c, 2, 59, 95
3, 269280, Note_off_c, 2, 55, 95
3, 269280, Note_off_c, 2, 50, 95
3, 269280, Note_off_c, 2, 43, 95
3, 269280, Note_on_c, 2, 67, 95
3, 269280, Note_on_c, 2, 62, 95
3, 269280, Note_on_c, 2, 59, 95
3, 269280, Note_on_c, 2, 55, 95
3, 269280, Note_on_c, 2, 50, 95
3, 269280, Note_on_c, 2, 43, 95
3, 269760, Note_off_c, 2, 67, 95
3, 269760, Note_off_c, 2, 62, 95
3, 269760, Note_off_c, 2, 59, 95
3, 269760, Note_off_c, 2, 55, 95
3, 269760, Note_off_c, 2, 50, 95
3, 269760, Note_off_c, 2, 43, 95
3, 269760, Note_on_c, 2, 67, 95
3, 269760, Note_on_c, 2, 62, 95
3, 269760, Note_on_c, 2, 59, 95
3, 269760, Note_on_c, 2, 55, 95
3, 269760, Note_on_c, 2, 50, 95
3, 269760, Note_on_c, 2, 43, 95
3, 270240, Note_off_c, 2, 67, 95
3, 270240, Note_off_c, 2, 62, 95
3, 270240, Note_off_c, 2, 59, 95
3, 270240, Note_off_c, 2, 55, 95
3, 270240, Note_off_c, 2, 50, 95
3, 270240, Note_off_c, 2, 43, 95
3, 270240, Note_on_c, 2, 67, 95
3, 270240, Note_on_c, 2, 62, 95
3, 270240, Note_on_c, 2, 59, 95
3, 270240, Note_on_c, 2, 55, 95
3, 270240, Note_on_c, 2, 50, 95
3, 270240, Note_on_c, 2, 43, 95
3, 270720, Note_off_c, 2, 67, 95
3, 270720, Note_off_c, 2, 62, 95
3, 270720, Note_off_c, 2, 59, 95
3, 270720, Note_off_c, 2, 55, 95
3, 270720, Note_off_c, 2, 50, 95
3, 270720, Note_off_c, 2, 43, 95
3, 270720, Note_on_c, 2, 67, 95
3, 270720, Note_on_c, 2, 62, 95
3, 270720, Note_on_c, 2, 59, 95
3, 270720, Note_on_c, 2, 55, 95
3, 270720, Note_on_c, 2, 50, 95
3, 270720, Note_on_c, 2, 43, 95
3, 271200, Note_off_c, 2, 67, 95
3, 271200, Note_off_c, 2, 62, 95
3, 271200, Note_off_c, 2, 59, 95
3, 271200, Note_off_c, 2, 55, 95
3, 271200, Note_off_c, 2, 50, 95
3, 271200, Note_off_c, 2, 43, 95
3, 271200, Note_on_c, 2, 67, 95
3, 271200, Note_on_c, 2, 62, 95
3, 271200, Note_on_c, 2, 59, 95
3, 271200, Note_on_c, 2, 55, 95
3, 271200, Note_on_c, 2, 50, 95
3, 271200, Note_on_c, 2, 43, 95
3, 271680, Note_off_c, 2, 67, 95
3, 271680, Note_off_c, 2, 62, 95
3, 271680, Note_off_c, 2, 59, 95
3, 271680, Note_off_c, 2, 55, 95
3, 271680, Note_off_c, 2, 50, 95
3, 271680, Note_off_c, 2, 43, 95
3, 271680, Note_on_c, 2, 67, 95
3, 271680, Note_on_c, 2, 62, 95
3, 271680, Note_on_c, 2, 59, 95
3, 271680, Note_on_c, 2, 55, 95
3, 271680, Note_on_c, 2, 50, 95
3, 271680, Note_on_c, 2, 43, 95
3, 272160, Note_off_c, 2, 67, 95
3, 272160, Note_off_c, 2, 62, 95
3, 272160, Note_off_c, 2, 59, 95
3, 272160, Note_off_c, 2, 55, 95
3, 272160, Note_off_c, 2, 50, 95
3, 272160, Note_off_c, 2, 43, 95
3, 272160, Note_on_c, 2, 67, 95
3, 272160, Note_on_c, 2, 62, 95
3, 272160, Note_on_c, 2, 59, 95
3, 272160, Note_on_c, 2, 55, 95
3, 272160, Note_on_c, 2, 50, 95
3, 272160, Note_on_c, 2, 43, 95
3, 272640, Note_off_c, 2, 67, 95
3, 272640, Note_off_c, 2, 62, 95
3, 272640, Note_off_c, 2, 59, 95
3, 272640, Note_off_c, 2, 55, 95
3, 272640, Note_off_c, 2, 50, 95
3, 272640, Note_off_c, 2, 43, 95
3, 272640, Note_on_c, 2, 67, 95
3, 272640, Note_on_c, 2, 64, 95
3, 272640, Note_on_c, 2, 60, 95
3, 272640, Note_on_c, 2, 55, 95
3, 272640, Note_on_c, 2, 48, 95
3, 272640, Note_on_c, 2, 43, 95
3, 273120, Note_off_c, 2, 67, 95
3, 273120, Note_off_c, 2, 64, 95
3, 273120, Note_off_c, 2, 60, 95
3, 273120, Note_off_c, 2, 55, 95
3, 273120, Note_off_c, 2, 48, 95
3, 273120, Note_off_c, 2, 43, 95
3, 273120, Note_on_c, 2, 67, 95
3, 273120, Note_on_c, 2, 64, 95
3, 273120, Note_on_c, 2, 60, 95
3, 273120, Note_on_c, 2, 55, 95
3, 273120, Note_on_c, 2, 48, 95
3, 273120, Note_on_c, 2, 43, 95
3, 273600, Note_off_c, 2, 67, 95
3, 273600, Note_off_c, 2, 64, 95
3, 273600, Note_off_c, 2, 60, 95
3, 273600, Note_off_c, 2, 55, 95
3, 273600, Note_off_c, 2, 48, 95
3, 273600, Note_off_c, 2, 43, 95
3, 273600, Note_on_c, 2, 67, 95
3, 273600, Note_on_c, 2, 64, 95
3, 273600, Note_on_c, 2, 60, 95
3, 273600, Note_on_c, 2, 55, 95
3, 273600, Note_on_c, 2, 48, 95
3, 273600, Note_on_c, 2, 43, 95
3, 274080, Note_off_c, 2, 67, 95
3, 274080, Note_off_c, 2, 64, 95
3, 274080, Note_off_c, 2, 60, 95
3, 274080, Note_off_c, 2, 55, 95
3, 274080, Note_off_c, 2, 48, 95
3, 274080, Note_off_c, 2, 43, 95
3, 274080, Note_on_c, 2, 67, 95
3, 274080, Note_on_c, 2, 64, 95
3, 274080, Note_on_c, 2, 60, 95
3, 274080, Note_on_c, 2, 55, 95
3, 274080, Note_on_c, 2, 48, 95
3, 274080, Note_on_c, 2, 43, 95
3, 274560, Note_off_c, 2, 67, 95
3, 274560, Note_off_c, 2, 64, 95
3, 274560, Note_off_c, 2, 60, 95
3, 274560, Note_off_c, 2, 55, 95
3, 274560, Note_off_c, 2, 48, 95
3, 274560, Note_off_c, 2, 43, 95
3, 274560, Note_on_c, 2, 67, 95
3, 274560, Note_on_c, 2, 62, 95
3, 274560, Note_on_c, 2, 60, 95
3, 274560, Note_on_c, 2, 55, 95
3, 274560, Note_on_c, 2, 48, 95
3, 274560, Note_on_c, 2, 43, 95
3, 275040, Note_off_c, 2, 67, 95
3, 275040, Note_off_c, 2, 62, 95
3, 275040, Note_off_c, 2, 60, 95
3, 275040, Note_off_c, 2, 55, 95
3, 275040, Note_off_c, 2, 48, 95
3, 275040, Note_off_c, 2, 43, 95
3, 275040, Note_on_c, 2, 67, 95
3, 275040, Note_on_c, 2, 64, 95
3, 275040, Note_on_c, 2, 60, 95
3, 275040, Note_on_c, 2, 55, 95
3, 275040, Note_on_c, 2, 48, 95
3, 275040, Note_on_c, 2, 43, 95
3, 275520, Note_off_c, 2, 67, 95
3, 275520, Note_off_c, 2, 64, 95
3, 275520, Note_off_c, 2, 60, 95
3, 275520, Note_off_c, 2, 55, 95
3, 275520, Note_off_c, 2, 48, 95
3, 275520, Note_off_c, 2, 43, 95
3, 275520, Note_on_c, 2, 67, 95
3, 275520, Note_on_c, 2, 64, 95
3, 275520, Note_on_c, 2, 60, 95
3, 275520, Note_on_c, 2, 55, 95
3, 275520, Note_on_c, 2, 48, 95
3, 275520, Note_on_c, 2, 43, 95
3, 276000, Note_off_c, 2, 67, 95
3, 276000, Note_off_c, 2, 64, 95
3, 276000, Note_off_c, 2, 60, 95
3, 276000, Note_off_c, 2, 55, 95
3, 276000, Note_off_c, 2, 48, 95
3, 276000, Note_off_c, 2, 43, 95
3, 276000, Note_on_c, 2, 67, 95
3, 276000, Note_on_c, 2, 64, 95
3, 276000, Note_on_c, 2, 60, 95
3, 276000, Note_on_c, 2, 55, 95
3, 276000, Note_on_c, 2, 48, 95
3, 276000, Note_on_c, 2, 43, 95
3, 276480, Note_off_c, 2, 67, 95
3, 276480, Note_off_c, 2, 64, 95
3, 276480, Note_off_c, 2, 60, 95
3, 276480, Note_off_c, 2, 55, 95
3, 276480, Note_off_c, 2, 48, 95
3, 276480, Note_off_c, 2, 43, 95
3, 276480, Note_on_c, 2, 67, 95
3, 276480, Note_on_c, 2, 62, 95
3, 276480, Note_on_c, 2, 59, 95
3, 276480, Note_on_c, 2, 55, 95
3, 276480, Note_on_c, 2, 50, 95
3, 276480, Note_on_c, 2, 43, 95
3, 276960, Note_off_c, 2, 67, 95
3, 276960, Note_off_c, 2, 62, 95
3, 276960, Note_off_c, 2, 59, 95
3, 276960, Note_off_c, 2, 55, 95
3, 276960, Note_off_c, 2, 50, 95
3, 276960, Note_off_c, 2, 43, 95
3, 276960, Note_on_c, 2, 67, 95
3, 276960, Note_on_c, 2, 62, 95
3, 276960, Note_on_c, 2, 59, 95
3, 276960, Note_on_c, 2, 55, 95
3, 276960, Note_on_c, 2, 50, 95
3, 276960, Note_on_c, 2, 43, 95
3, 277440, Note_off_c, 2, 67, 95
3, 277440, Note_off_c, 2, 62, 95
3, 277440, Note_off_c, 2, 59, 95
3, 277440, Note_off_c, 2, 55, 95
3, 277440, Note_off_c, 2, 50, 95
3, 277440, Note_off_c, 2, 43, 95
3, 277440, Note_on_c, 2, 67, 95
3, 277440, Note_on_c, 2, 62, 95
3, 277440, Note_on_c, 2, 59, 95
3, 277440, Note_on_c, 2, 55, 95
3, 277440, Note_on_c, 2, 50, 95
3, 277440, Note_on_c, 2, 43, 95
3, 277920, Note_off_c, 2, 67, 95
3, 277920, Note_off_c, 2, 62, 95
3, 277920, Note_off_c, 2, 59, 95
3, 277920, Note_off_c, 2, 55, 95
3, 277920, Note_off_c, 2, 50, 95
3, 277920, Note_off_c, 2, 43, 95
3, 277920, Note_on_c, 2, 67, 95
3, 277920, Note_on_c, 2, 62, 95
3, 277920, Note_on_c, 2, 59, 95
3, 277920, Note_on_c, 2, 55, 95
3, 277920, Note_on_c, 2, 50, 95
3, 277920, Note_on_c, 2, 43, 95
3, 278400, Note_off_c, 2, 67, 95
3, 278400, Note_off_c, 2, 62, 95
3, 278400, Note_off_c, 2, 59, 95
3, 278400, Note_off_c, 2, 55, 95
3, 278400, Note_off_c, 2, 50, 95
3, 278400, Note_off_c, 2, 43, 95
3, 278400, Note_on_c, 2, 67, 95
3, 278400, Note_on_c, 2, 62, 95
3, 278400, Note_on_c, 2, 59, 95
3, 278400, Note_on_c, 2, 55, 95
3, 278400, Note_on_c, 2, 50, 95
3, 278400, Note_on_c, 2, 43, 95
3, 278880, Note_off_c, 2, 67, 95
3, 278880, Note_off_c, 2, 62, 95
3, 278880, Note_off_c, 2, 59, 95
3, 278880, Note_off_c, 2, 55, 95
3, 278880, Note_off_c, 2, 50, 95
3, 278880, Note_off_c, 2, 43, 95
3, 278880, Note_on_c, 2, 67, 95
3, 278880, Note_on_c, 2, 62, 95
3, 278880, Note_on_c, 2, 59, 95
3, 278880, Note_on_c, 2, 55, 95
3, 278880, Note_on_c, 2, 50, 95
3, 278880, Note_on_c, 2, 43, 95
3, 279360, Note_off_c, 2, 67, 95
3, 279360, Note_off_c, 2, 62, 95
3, 279360, Note_off_c, 2, 59, 95
3, 279360, Note_off_c, 2, 55, 95
3, 279360, Note_off_c, 2, 50, 95
3, 279360, Note_off_c, 2, 43, 95
3, 279360, Note_on_c, 2, 67, 95
3, 279360, Note_on_c, 2, 62, 95
3, 279360, Note_on_c, 2, 59, 95
3, 279360, Note_on_c, 2, 55, 95
3, 279360, Note_on_c, 2, 50, 95
3, 279360, Note_on_c, 2, 43, 95
3, 279840, Note_off_c, 2, 67, 95
3, 279840, Note_off_c, 2, 62, 95
3, 279840, Note_off_c, 2, 59, 95
3, 279840, Note_off_c, 2, 55, 95
3, 279840, Note_off_c, 2, 50, 95
3, 279840, Note_off_c, 2, 43, 95
3, 279840, Note_on_c, 2, 67, 95
3, 279840, Note_on_c, 2, 62, 95
3, 279840, Note_on_c, 2, 59, 95
3, 279840, Note_on_c, 2, 55, 95
3, 279840, Note_on_c, 2, 50, 95
3, 279840, Note_on_c, 2, 43, 95
3, 280320, Note_off_c, 2, 67, 95
3, 280320, Note_off_c, 2, 62, 95
3, 280320, Note_off_c, 2, 59, 95
3, 280320, Note_off_c, 2, 55, 95
3, 280320, Note_off_c, 2, 50, 95
3, 280320, Note_off_c, 2, 43, 95
3, 280320, Note_on_c, 2, 67, 95
3, 280320, Note_on_c, 2, 64, 95
3, 280320, Note_on_c, 2, 60, 95
3, 280320, Note_on_c, 2, 55, 95
3, 280320, Note_on_c, 2, 48, 95
3, 280320, Note_on_c, 2, 43, 95
3, 280800, Note_off_c, 2, 67, 95
3, 280800, Note_off_c, 2, 64, 95
3, 280800, Note_off_c, 2, 60, 95
3, 280800, Note_off_c, 2, 55, 95
3, 280800, Note_off_c, 2, 48, 95
3, 280800, Note_off_c, 2, 43, 95
3, 280800, Note_on_c, 2, 67, 95
3, 280800, Note_on_c, 2, 64, 95
3, 280800, Note_on_c, 2, 60, 95
3, 280800, Note_on_c, 2, 55, 95
3, 280800, Note_on_c, 2, 48, 95
3, 280800, Note_on_c, 2, 43, 95
3, 281280, Note_off_c, 2, 67, 95
3, 281280, Note_off_c, 2, 64, 95
3, 281280, Note_off_c, 2, 60, 95
3, 281280, Note_off_c, 2, 55, 95
3, 281280, Note_off_c, 2, 48, 95
3, 281280, Note_off_c, 2, 43, 95
3, 281280, Note_on_c, 2, 67, 95
3, 281280, Note_on_c, 2, 64, 95
3, 281280, Note_on_c, 2, 60, 95
3, 281280, Note_on_c, 2, 55, 95
3, 281280, Note_on_c, 2, 48, 95
3, 281280, Note_on_c, 2, 43, 95
3, 281760, Note_off_c, 2, 67, 95
3, 281760, Note_off_c, 2, 64, 95
3, 281760, Note_off_c, 2, 60, 95
3, 281760, Note_off_c, 2, 55, 95
3, 281760, Note_off_c, 2, 48, 95
3, 281760, Note_off_c, 2, 43, 95
3, 281760, Note_on_c, 2, 67, 95
3, 281760, Note_on_c, 2, 64, 95
3, 281760, Note_on_c, 2, 60, 95
3, 281760, Note_on_c, 2, 55, 95
3, 281760, Note_on_c, 2, 48, 95
3, 281760, Note_on_c, 2, 43, 95
3, 282240, Note_off_c, 2, 67, 95
3, 282240, Note_off_c, 2, 64, 95
3, 282240, Note_off_c, 2, 60, 95
3, 282240, Note_off_c, 2, 55, 95
3, 282240, Note_off_c, 2, 48, 95
3, 282240, Note_off_c, 2, 43, 95
3, 282240, Note_on_c, 2, 67, 95
3, 282240, Note_on_c, 2, 62, 95
3, 282240, Note_on_c, 2, 60, 95
3, 282240, Note_on_c, 2, 55, 95
3, 282240, Note_on_c, 2, 48, 95
3, 282240, Note_on_c, 2, 43, 95
3, 282720, Note_off_c, 2, 67, 95
3, 282720, Note_off_c, 2, 62, 95
3, 282720, Note_off_c, 2, 60, 95
3, 282720, Note_off_c, 2, 55, 95
3, 282720, Note_off_c, 2, 48, 95
3, 282720, Note_off_c, 2, 43, 95
3, 282720, Note_on_c, 2, 67, 95
3, 282720, Note_on_c, 2, 64, 95
3, 282720, Note_on_c, 2, 60, 95
3, 282720, Note_on_c, 2, 55, 95
3, 282720, Note_on_c, 2, 48, 95
3, 282720, Note_on_c, 2, 43, 95
3, 283200, Note_off_c, 2, 67, 95
3, 283200, Note_off_c, 2, 64, 95
3, 283200, Note_off_c, 2, 60, 95
3, 283200, Note_off_c, 2, 55, 95
3, 283200, Note_off_c, 2, 48, 95
3, 283200, Note_off_c, 2, 43, 95
3, 283200, Note_on_c, 2, 67, 95
3, 283200, Note_on_c, 2, 64, 95
3, 283200, Note_on_c, 2, 60, 95
3, 283200, Note_on_c, 2, 55, 95
3, 283200, Note_on_c, 2, 48, 95
3, 283200, Note_on_c, 2, 43, 95
3, 283680, Note_off_c, 2, 67, 95
3, 283680, Note_off_c, 2, 64, 95
3, 283680, Note_off_c, 2, 60, 95
3, 283680, Note_off_c, 2, 55, 95
3, 283680, Note_off_c, 2, 48, 95
3, 283680, Note_off_c, 2, 43, 95
3, 283680, Note_on_c, 2, 67, 95
3, 283680, Note_on_c, 2, 64, 95
3, 283680, Note_on_c, 2, 60, 95
3, 283680, Note_on_c, 2, 55, 95
3, 283680, Note_on_c, 2, 48, 95
3, 283680, Note_on_c, 2, 43, 95
3, 284160, Note_off_c, 2, 67, 95
3, 284160, Note_off_c, 2, 64, 95
3, 284160, Note_off_c, 2, 60, 95
3, 284160, Note_off_c, 2, 55, 95
3, 284160, Note_off_c, 2, 48, 95
3, 284160, Note_off_c, 2, 43, 95
3, 284160, Note_on_c, 2, 67, 95
3, 284160, Note_on_c, 2, 62, 95
3, 284160, Note_on_c, 2, 59, 95
3, 284160, Note_on_c, 2, 55, 95
3, 284160, Note_on_c, 2, 50, 95
3, 284160, Note_on_c, 2, 43, 95
3, 284640, Note_off_c, 2, 67, 95
3, 284640, Note_off_c, 2, 62, 95
3, 284640, Note_off_c, 2, 59, 95
3, 284640, Note_off_c, 2, 55, 95
3, 284640, Note_off_c, 2, 50, 95
3, 284640, Note_off_c, 2, 43, 95
3, 284640, Note_on_c, 2, 67, 95
3, 284640, Note_on_c, 2, 62, 95
3, 284640, Note_on_c, 2, 59, 95
3, 284640, Note_on_c, 2, 55, 95
3, 284640, Note_on_c, 2, 50, 95
3, 284640, Note_on_c, 2, 43, 95
3, 285120, Note_off_c, 2, 67, 95
3, 285120, Note_off_c, 2, 62, 95
3, 285120, Note_off_c, 2, 59, 95
3, 285120, Note_off_c, 2, 55, 95
3, 285120, Note_off_c, 2, 50, 95
3, 285120, Note_off_c, 2, 43, 95
3, 285120, Note_on_c, 2, 67, 95
3, 285120, Note_on_c, 2, 62, 95
3, 285120, Note_on_c, 2, 59, 95
3, 285120, Note_on_c, 2, 55, 95
3, 285120, Note_on_c, 2, 50, 95
3, 285120, Note_on_c, 2, 43, 95
3, 285600, Note_off_c, 2, 67, 95
3, 285600, Note_off_c, 2, 62, 95
3, 285600, Note_off_c, 2, 59, 95
3, 285600, Note_off_c, 2, 55, 95
3, 285600, Note_off_c, 2, 50, 95
3, 285600, Note_off_c, 2, 43, 95
3, 285600, Note_on_c, 2, 67, 95
3, 285600, Note_on_c, 2, 62, 95
3, 285600, Note_on_c, 2, 59, 95
3, 285600, Note_on_c, 2, 55, 95
3, 285600, Note_on_c, 2, 50, 95
3, 285600, Note_on_c, 2, 43, 95
3, 286080, Note_off_c, 2, 67, 95
3, 286080, Note_off_c, 2, 62, 95
3, 286080, Note_off_c, 2, 59, 95
3, 286080, Note_off_c, 2, 55, 95
3, 286080, Note_off_c, 2, 50, 95
3, 286080, Note_off_c, 2, 43, 95
3, 286080, Note_on_c, 2, 67, 95
3, 286080, Note_on_c, 2, 62, 95
3, 286080, Note_on_c, 2, 59, 95
3, 286080, Note_on_c, 2, 55, 95
3, 286080, Note_on_c, 2, 50, 95
3, 286080, Note_on_c, 2, 43, 95
3, 286560, Note_off_c, 2, 67, 95
3, 286560, Note_off_c, 2, 62, 95
3, 286560, Note_off_c, 2, 59, 95
3, 286560, Note_off_c, 2, 55, 95
3, 286560, Note_off_c, 2, 50, 95
3, 286560, Note_off_c, 2, 43, 95
3, 286560, Note_on_c, 2, 67, 95
3, 286560, Note_on_c, 2, 62, 95
3, 286560, Note_on_c, 2, 59, 95
3, 286560, Note_on_c, 2, 55, 95
3, 286560, Note_on_c, 2, 50, 95
3, 286560, Note_on_c, 2, 43, 95
3, 287040, Note_off_c, 2, 67, 95
3, 287040, Note_off_c, 2, 62, 95
3, 287040, Note_off_c, 2, 59, 95
3, 287040, Note_off_c, 2, 55, 95
3, 287040, Note_off_c, 2, 50, 95
3, 287040, Note_off_c, 2, 43, 95
3, 287040, Note_on_c, 2, 67, 95
3, 287040, Note_on_c, 2, 62, 95
3, 287040, Note_on_c, 2, 59, 95
3, 287040, Note_on_c, 2, 55, 95
3, 287040, Note_on_c, 2, 50, 95
3, 287040, Note_on_c, 2, 43, 95
3, 287520, Note_off_c, 2, 67, 95
3, 287520, Note_off_c, 2, 62, 95
3, 287520, Note_off_c, 2, 59, 95
3, 287520, Note_off_c, 2, 55, 95
3, 287520, Note_off_c, 2, 50, 95
3, 287520, Note_off_c, 2, 43, 95
3, 287520, Note_on_c, 2, 67, 95
3, 287520, Note_on_c, 2, 62, 95
3, 287520, Note_on_c, 2, 59, 95
3, 287520, Note_on_c, 2, 55, 95
3, 287520, Note_on_c, 2, 50, 95
3, 287520, Note_on_c, 2, 43, 95
3, 288000, Note_off_c, 2, 67, 95
3, 288000, Note_off_c, 2, 62, 95
3, 288000, Note_off_c, 2, 59, 95
3, 288000, Note_off_c, 2, 55, 95
3, 288000, Note_off_c, 2, 50, 95
3, 288000, Note_off_c, 2, 43, 95
3, 288000, Note_on_c, 2, 67, 95
3, 288000, Note_on_c, 2, 64, 95
3, 288000, Note_on_c, 2, 60, 95
3, 288000, Note_on_c, 2, 55, 95
3, 288000, Note_on_c, 2, 48, 95
3, 288000, Note_on_c, 2, 43, 95
3, 288480, Note_off_c, 2, 67, 95
3, 288480, Note_off_c, 2, 64, 95
3, 288480, Note_off_c, 2, 60, 95
3, 288480, Note_off_c, 2, 55, 95
3, 288480, Note_off_c, 2, 48, 95
3, 288480, Note_off_c, 2, 43, 95
3, 288480, Note_on_c, 2, 67, 95
3, 288480, Note_on_c, 2, 64, 95
3, 288480, Note_on_c, 2, 60, 95
3, 288480, Note_on_c, 2, 55, 95
3, 288480, Note_on_c, 2, 48, 95
3, 288480, Note_on_c, 2, 43, 95
3, 288960, Note_off_c, 2, 67, 95
3, 288960, Note_off_c, 2, 64, 95
3, 288960, Note_off_c, 2, 60, 95
3, 288960, Note_off_c, 2, 55, 95
3, 288960, Note_off_c, 2, 48, 95
3, 288960, Note_off_c, 2, 43, 95
3, 288960, Note_on_c, 2, 67, 95
3, 288960, Note_on_c, 2, 64, 95
3, 288960, Note_on_c, 2, 60, 95
3, 288960, Note_on_c, 2, 55, 95
3, 288960, Note_on_c, 2, 48, 95
3, 288960, Note_on_c, 2, 43, 95
3, 289440, Note_off_c, 2, 67, 95
3, 289440, Note_off_c, 2, 64, 95
3, 289440, Note_off_c, 2, 60, 95
3, 289440, Note_off_c, 2, 55, 95
3, 289440, Note_off_c, 2, 48, 95
3, 289440, Note_off_c, 2, 43, 95
3, 289440, Note_on_c, 2, 67, 95
3, 289440, Note_on_c, 2, 64, 95
3, 289440, Note_on_c, 2, 60, 95
3, 289440, Note_on_c, 2, 55, 95
3, 289440, Note_on_c, 2, 48, 95
3, 289440, Note_on_c, 2, 43, 95
3, 289920, Note_off_c, 2, 67, 95
3, 289920, Note_off_c, 2, 64, 95
3, 289920, Note_off_c, 2, 60, 95
3, 289920, Note_off_c, 2, 55, 95
3, 289920, Note_off_c, 2, 48, 95
3, 289920, Note_off_c, 2, 43, 95
3, 289920, Note_on_c, 2, 67, 95
3, 289920, Note_on_c, 2, 62, 95
3, 289920, Note_on_c, 2, 60, 95
3, 289920, Note_on_c, 2, 55, 95
3, 289920, Note_on_c, 2, 48, 95
3, 289920, Note_on_c, 2, 43, 95
3, 290400, Note_off_c, 2, 67, 95
3, 290400, Note_off_c, 2, 62, 95
3, 290400, Note_off_c, 2, 60, 95
3, 290400, Note_off_c, 2, 55, 95
3, 290400, Note_off_c, 2, 48, 95
3, 290400, Note_off_c, 2, 43, 95
3, 290400, Note_on_c, 2, 67, 95
3, 290400, Note_on_c, 2, 64, 95
3, 290400, Note_on_c, 2, 60, 95
3, 290400, Note_on_c, 2, 55, 95
3, 290400, Note_on_c, 2, 48, 95
3, 290400, Note_on_c, 2, 43, 95
3, 290880, Note_off_c, 2, 67, 95
3, 290880, Note_off_c, 2, 64, 95
3, 290880, Note_off_c, 2, 60, 95
3, 290880, Note_off_c, 2, 55, 95
3, 290880, Note_off_c, 2, 48, 95
3, 290880, Note_off_c, 2, 43, 95
3, 290880, Note_on_c, 2, 67, 95
3, 290880, Note_on_c, 2, 64, 95
3, 290880, Note_on_c, 2, 60, 95
3, 290880, Note_on_c, 2, 55, 95
3, 290880, Note_on_c, 2, 48, 95
3, 290880, Note_on_c, 2, 43, 95
3, 291360, Note_off_c, 2, 67, 95
3, 291360, Note_off_c, 2, 64, 95
3, 291360, Note_off_c, 2, 60, 95
3, 291360, Note_off_c, 2, 55, 95
3, 291360, Note_off_c, 2, 48, 95
3, 291360, Note_off_c, 2, 43, 95
3, 291360, Note_on_c, 2, 67, 95
3, 291360, Note_on_c, 2, 64, 95
3, 291360, Note_on_c, 2, 60, 95
3, 291360, Note_on_c, 2, 55, 95
3, 291360, Note_on_c, 2, 48, 95
3, 291360, Note_on_c, 2, 43, 95
3, 291840, Note_off_c, 2, 67, 95
3, 291840, Note_off_c, 2, 64, 95
3, 291840, Note_off_c, 2, 60, 95
3, 291840, Note_off_c, 2, 55, 95
3, 291840, Note_off_c, 2, 48, 95
3, 291840, Note_off_c, 2, 43, 95
3, 291840, Note_on_c, 2, 67, 95
3, 291840, Note_on_c, 2, 62, 95
3, 291840, Note_on_c, 2, 59, 95
3, 291840, Note_on_c, 2, 55, 95
3, 291840, Note_on_c, 2, 50, 95
3, 291840, Note_on_c, 2, 43, 95
3, 292320, Note_off_c, 2, 67, 95
3, 292320, Note_off_c, 2, 62, 95
3, 292320, Note_off_c, 2, 59, 95
3, 292320, Note_off_c, 2, 55, 95
3, 292320, Note_off_c, 2, 50, 95
3, 292320, Note_off_c, 2, 43, 95
3, 292320, Note_on_c, 2, 67, 95
3, 292320, Note_on_c, 2, 62, 95
3, 292320, Note_on_c, 2, 59, 95
3, 292320, Note_on_c, 2, 55, 95
3, 292320, Note_on_c, 2, 50, 95
3, 292320, Note_on_c, 2, 43, 95
3, 292800, Note_off_c, 2, 67, 95
3, 292800, Note_off_c, 2, 62, 95
3, 292800, Note_off_c, 2, 59, 95
3, 292800, Note_off_c, 2, 55, 95
3, 292800, Note_off_c, 2, 50, 95
3, 292800, Note_off_c, 2, 43, 95
3, 292800, Note_on_c, 2, 67, 95
3, 292800, Note_on_c, 2, 62, 95
3, 292800, Note_on_c, 2, 59, 95
3, 292800, Note_on_c, 2, 55, 95
3, 292800, Note_on_c, 2, 50, 95
3, 292800, Note_on_c, 2, 43, 95
3, 293280, Note_off_c, 2, 67, 95
3, 293280, Note_off_c, 2, 62, 95
3, 293280, Note_off_c, 2, 59, 95
3, 293280, Note_off_c, 2, 55, 95
3, 293280, Note_off_c, 2, 50, 95
3, 293280, Note_off_c, 2, 43, 95
3, 293280, Note_on_c, 2, 67, 95
3, 293280, Note_on_c, 2, 62, 95
3, 293280, Note_on_c, 2, 59, 95
3, 293280, Note_on_c, 2, 55, 95
3, 293280, Note_on_c, 2, 50, 95
3, 293280, Note_on_c, 2, 43, 95
3, 293760, Note_off_c, 2, 67, 95
3, 293760, Note_off_c, 2, 62, 95
3, 293760, Note_off_c, 2, 59, 95
3, 293760, Note_off_c, 2, 55, 95
3, 293760, Note_off_c, 2, 50, 95
3, 293760, Note_off_c, 2, 43, 95
3, 293760, Note_on_c, 2, 67, 95
3, 293760, Note_on_c, 2, 62, 95
3, 293760, Note_on_c, 2, 59, 95
3, 293760, Note_on_c, 2, 55, 95
3, 293760, Note_on_c, 2, 50, 95
3, 293760, Note_on_c, 2, 43, 95
3, 294240, Note_off_c, 2, 67, 95
3, 294240, Note_off_c, 2, 62, 95
3, 294240, Note_off_c, 2, 59, 95
3, 294240, Note_off_c, 2, 55, 95
3, 294240, Note_off_c, 2, 50, 95
3, 294240, Note_off_c, 2, 43, 95
3, 294240, Note_on_c, 2, 67, 95
3, 294240, Note_on_c, 2, 62, 95
3, 294240, Note_on_c, 2, 59, 95
3, 294240, Note_on_c, 2, 55, 95
3, 294240, Note_on_c, 2, 50, 95
3, 294240, Note_on_c, 2, 43, 95
3, 294720, Note_off_c, 2, 67, 95
3, 294720, Note_off_c, 2, 62, 95
3, 294720, Note_off_c, 2, 59, 95
3, 294720, Note_off_c, 2, 55, 95
3, 294720, Note_off_c, 2, 50, 95
3, 294720, Note_off_c, 2, 43, 95
3, 294720, Note_on_c, 2, 67, 95
3, 294720, Note_on_c, 2, 62, 95
3, 294720, Note_on_c, 2, 59, 95
3, 294720, Note_on_c, 2, 55, 95
3, 294720, Note_on_c, 2, 50, 95
3, 294720, Note_on_c, 2, 43, 95
3, 295200, Note_off_c, 2, 67, 95
3, 295200, Note_off_c, 2, 62, 95
3, 295200, Note_off_c, 2, 59, 95
3, 295200, Note_off_c, 2, 55, 95
3, 295200, Note_off_c, 2, 50, 95
3, 295200, Note_off_c, 2, 43, 95
3, 295200, Note_on_c, 2, 67, 95
3, 295200, Note_on_c, 2, 62, 95
3, 295200, Note_on_c, 2, 59, 95
3, 295200, Note_on_c, 2, 55, 95
3, 295200, Note_on_c, 2, 50, 95
3, 295200, Note_on_c, 2, 43, 95
3, 295680, Note_off_c, 2, 67, 95
3, 295680, Note_off_c, 2, 62, 95
3, 295680, Note_off_c, 2, 59, 95
3, 295680, Note_off_c, 2, 55, 95
3, 295680, Note_off_c, 2, 50, 95
3, 295680, Note_off_c, 2, 43, 95
3, 295680, Note_on_c, 2, 50, 95
3, 296640, Note_off_c, 2, 50, 95
3, 296640, Note_on_c, 2, 50, 95
3, 297600, Note_off_c, 2, 50, 95
3, 297600, Note_on_c, 2, 50, 95
3, 298080, Note_off_c, 2, 50, 95
3, 298080, Note_on_c, 2, 50, 95
3, 299040, Note_off_c, 2, 50, 95
3, 299040, Note_on_c, 2, 50, 95
3, 299520, Note_off_c, 2, 50, 95
3, 299520, Note_on_c, 2, 57, 95
3, 300000, Note_off_c, 2, 57, 95
3, 300000, Note_on_c, 2, 57, 95
3, 300960, Note_off_c, 2, 57, 95
3, 300960, Note_on_c, 2, 57, 95
3, 301920, Note_off_c, 2, 57, 95
3, 301920, Note_on_c, 2, 57, 95
3, 302880, Note_off_c, 2, 57, 95
3, 302880, Note_on_c, 2, 57, 95
3, 303360, Note_off_c, 2, 57, 95
3, 303360, Note_on_c, 2, 50, 95
3, 304320, Note_off_c, 2, 50, 95
3, 304320, Note_on_c, 2, 50, 95
3, 305280, Note_off_c, 2, 50, 95
3, 305280, Note_on_c, 2, 50, 95
3, 305760, Note_off_c, 2, 50, 95
3, 305760, Note_on_c, 2, 50, 95
3, 306720, Note_off_c, 2, 50, 95
3, 306720, Note_on_c, 2, 50, 95
3, 307200, Note_off_c, 2, 50, 95
3, 307200, Note_on_c, 2, 57, 95
3, 307680, Note_off_c, 2, 57, 95
3, 307680, Note_on_c, 2, 57, 95
3, 308640, Note_off_c, 2, 57, 95
3, 308640, Note_on_c, 2, 57, 95
3, 309600, Note_off_c, 2, 57, 95
3, 309600, Note_on_c, 2, 57, 95
3, 310560, Note_off_c, 2, 57, 95
3, 310560, Note_on_c, 2, 57, 95
3, 311040, Note_off_c, 2, 57, 95
3, 311040, Note_on_c, 2, 72, 95
3, 311040, Note_on_c, 2, 67, 95
3, 311040, Note_on_c, 2, 64, 95
3, 311040, Note_on_c, 2, 60, 95
3, 311040, Note_on_c, 2, 55, 95
3, 311040, Note_on_c, 2, 48, 95
3, 311520, Note_off_c, 2, 72, 95
3, 311520, Note_off_c, 2, 67, 95
3, 311520, Note_off_c, 2, 64, 95
3, 311520, Note_off_c, 2, 60, 95
3, 311520, Note_off_c, 2, 55, 95
3, 311520, Note_off_c, 2, 48, 95
3, 311520, Note_on_c, 2, 72, 95
3, 311520, Note_on_c, 2, 67, 95
3, 311520, Note_on_c, 2, 64, 95
3, 311520, Note_on_c, 2, 60, 95
3, 311520, Note_on_c, 2, 55, 95
3, 311520, Note_on_c, 2, 48, 95
3, 312000, Note_off_c, 2, 72, 95
3, 312000, Note_off_c, 2, 67, 95
3, 312000, Note_off_c, 2, 64, 95
3, 312000, Note_off_c, 2, 60, 95
3, 312000, Note_off_c, 2, 55, 95
3, 312000, Note_off_c, 2, 48, 95
3, 312000, Note_on_c, 2, 72, 95
3, 312000, Note_on_c, 2, 67, 95
3, 312000, Note_on_c, 2, 64, 95
3, 312000, Note_on_c, 2, 60, 95
3, 312000, Note_on_c, 2, 55, 95
3, 312000, Note_on_c, 2, 48, 95
3, 312480, Note_off_c, 2, 72, 95
3, 312480, Note_off_c, 2, 67, 95
3, 312480, Note_off_c, 2, 64, 95
3, 312480, Note_off_c, 2, 60, 95
3, 312480, Note_off_c, 2, 55, 95
3, 312480, Note_off_c, 2, 48, 95
3, 312480, Note_on_c, 2, 72, 95
3, 312480, Note_on_c, 2, 67, 95
3, 312480, Note_on_c, 2, 64, 95
3, 312480, Note_on_c, 2, 60, 95
3, 312480, Note_on_c, 2, 55, 95
3, 312480, Note_on_c, 2, 48, 95
3, 312960, Note_off_c, 2, 72, 95
3, 312960, Note_off_c, 2, 67, 95
3, 312960, Note_off_c, 2, 64, 95
3, 312960, Note_off_c, 2, 60, 95
3, 312960, Note_off_c, 2, 55, 95
3, 312960, Note_off_c, 2, 48, 95
3, 312960, Note_on_c, 2, 72, 95
3, 312960, Note_on_c, 2, 67, 95
3, 312960, Note_on_c, 2, 64, 95
3, 312960, Note_on_c, 2, 60, 95
3, 312960, Note_on_c, 2, 55, 95
3, 312960, Note_on_c, 2, 48, 95
3, 313440, Note_off_c, 2, 72, 95
3, 313440, Note_off_c, 2, 67, 95
3, 313440, Note_off_c, 2, 64, 95
3, 313440, Note_off_c, 2, 60, 95
3, 313440, Note_off_c, 2, 55, 95
3, 313440, Note_off_c, 2, 48, 95
3, 313440, Note_on_c, 2, 72, 95
3, 313440, Note_on_c, 2, 67, 95
3, 313440, Note_on_c, 2, 64, 95
3, 313440, Note_on_c, 2, 60, 95
3, 313440, Note_on_c, 2, 55, 95
3, 313440, Note_on_c, 2, 48, 95
3, 313920, Note_off_c, 2, 72, 95
3, 313920, Note_off_c, 2, 67, 95
3, 313920, Note_off_c, 2, 64, 95
3, 313920, Note_off_c, 2, 60, 95
3, 313920, Note_off_c, 2, 55, 95
3, 313920, Note_off_c, 2, 48, 95
3, 313920, Note_on_c, 2, 72, 95
3, 313920, Note_on_c, 2, 67, 95
3, 313920, Note_on_c, 2, 64, 95
3, 313920, Note_on_c, 2, 60, 95
3, 313920, Note_on_c, 2, 55, 95
3, 313920, Note_on_c, 2, 48, 95
3, 314400, Note_off_c, 2, 72, 95
3, 314400, Note_off_c, 2, 67, 95
3, 314400, Note_off_c, 2, 64, 95
3, 314400, Note_off_c, 2, 60, 95
3, 314400, Note_off_c, 2, 55, 95
3, 314400, Note_off_c, 2, 48, 95
3, 314400, Note_on_c, 2, 72, 95
3, 314400, Note_on_c, 2, 67, 95
3, 314400, Note_on_c, 2, 64, 95
3, 314400, Note_on_c, 2, 60, 95
3, 314400, Note_on_c, 2, 55, 95
3, 314400, Note_on_c, 2, 48, 95
3, 314880, Note_off_c, 2, 72, 95
3, 314880, Note_off_c, 2, 67, 95
3, 314880, Note_off_c, 2, 64, 95
3, 314880, Note_off_c, 2, 60, 95
3, 314880, Note_off_c, 2, 55, 95
3, 314880, Note_off_c, 2, 48, 95
3, 314880, Note_on_c, 2, 72, 95
3, 314880, Note_on_c, 2, 69, 95
3, 314880, Note_on_c, 2, 65, 95
3, 314880, Note_on_c, 2, 60, 95
3, 314880, Note_on_c, 2, 53, 95
3, 314880, Note_on_c, 2, 48, 95
3, 315360, Note_off_c, 2, 72, 95
3, 315360, Note_off_c, 2, 69, 95
3, 315360, Note_off_c, 2, 65, 95
3, 315360, Note_off_c, 2, 60, 95
3, 315360, Note_off_c, 2, 53, 95
3, 315360, Note_off_c, 2, 48, 95
3, 315360, Note_on_c, 2, 72, 95
3, 315360, Note_on_c, 2, 69, 95
3, 315360, Note_on_c, 2, 65, 95
3, 315360, Note_on_c, 2, 60, 95
3, 315360, Note_on_c, 2, 53, 95
3, 315360, Note_on_c, 2, 48, 95
3, 315840, Note_off_c, 2, 72, 95
3, 315840, Note_off_c, 2, 69, 95
3, 315840, Note_off_c, 2, 65, 95
3, 315840, Note_off_c, 2, 60, 95
3, 315840, Note_off_c, 2, 53, 95
3, 315840, Note_off_c, 2, 48, 95
3, 315840, Note_on_c, 2, 72, 95
3, 315840, Note_on_c, 2, 69, 95
3, 315840, Note_on_c, 2, 65, 95
3, 315840, Note_on_c, 2, 60, 95
3, 315840, Note_on_c, 2, 53, 95
3, 315840, Note_on_c, 2, 48, 95
3, 316320, Note_off_c, 2, 72, 95
3, 316320, Note_off_c, 2, 69, 95
3, 316320, Note_off_c, 2, 65, 95
3, 316320, Note_off_c, 2, 60, 95
3, 316320, Note_off_c, 2, 53, 95
3, 316320, Note_off_c, 2, 48, 95
3, 316320, Note_on_c, 2, 72, 95
3, 316320, Note_on_c, 2, 69, 95
3, 316320, Note_on_c, 2, 65, 95
3, 316320, Note_on_c, 2, 60, 95
3, 316320, Note_on_c, 2, 53, 95
3, 316320, Note_on_c, 2, 48, 95
3, 316800, Note_off_c, 2, 72, 95
3, 316800, Note_off_c, 2, 69, 95
3, 316800, Note_off_c, 2, 65, 95
3, 316800, Note_off_c, 2, 60, 95
3, 316800, Note_off_c, 2, 53, 95
3, 316800, Note_off_c, 2, 48, 95
3, 316800, Note_on_c, 2, 72, 95
3, 316800, Note_on_c, 2, 69, 95
3, 316800, Note_on_c, 2, 65, 95
3, 316800, Note_on_c, 2, 60, 95
3, 316800, Note_on_c, 2, 53, 95
3, 316800, Note_on_c, 2, 48, 95
3, 317280, Note_off_c, 2, 72, 95
3, 317280, Note_off_c, 2, 69, 95
3, 317280, Note_off_c, 2, 65, 95
3, 317280, Note_off_c, 2, 60, 95
3, 317280, Note_off_c, 2, 53, 95
3, 317280, Note_off_c, 2, 48, 95
3, 317280, Note_on_c, 2, 72, 95
3, 317280, Note_on_c, 2, 69, 95
3, 317280, Note_on_c, 2, 65, 95
3, 317280, Note_on_c, 2, 60, 95
3, 317280, Note_on_c, 2, 53, 95
3, 317280, Note_on_c, 2, 48, 95
3, 317760, Note_off_c, 2, 72, 95
3, 317760, Note_off_c, 2, 69, 95
3, 317760, Note_off_c, 2, 65, 95
3, 317760, Note_off_c, 2, 60, 95
3, 317760, Note_off_c, 2, 53, 95
3, 317760, Note_off_c, 2, 48, 95
3, 317760, Note_on_c, 2, 72, 95
3, 317760, Note_on_c, 2, 69, 95
3, 317760, Note_on_c, 2, 65, 95
3, 317760, Note_on_c, 2, 60, 95
3, 317760, Note_on_c, 2, 53, 95
3, 317760, Note_on_c, 2, 48, 95
3, 318240, Note_off_c, 2, 72, 95
3, 318240, Note_off_c, 2, 69, 95
3, 318240, Note_off_c, 2, 65, 95
3, 318240, Note_off_c, 2, 60, 95
3, 318240, Note_off_c, 2, 53, 95
3, 318240, Note_off_c, 2, 48, 95
3, 318240, Note_on_c, 2, 72, 95
3, 318240, Note_on_c, 2, 69, 95
3, 318240, Note_on_c, 2, 65, 95
3, 318240, Note_on_c, 2, 60, 95
3, 318240, Note_on_c, 2, 53, 95
3, 318240, Note_on_c, 2, 48, 95
3, 318720, Note_off_c, 2, 72, 95
3, 318720, Note_off_c, 2, 69, 95
3, 318720, Note_off_c, 2, 65, 95
3, 318720, Note_off_c, 2, 60, 95
3, 318720, Note_off_c, 2, 53, 95
3, 318720, Note_off_c, 2, 48, 95
3, 318720, Note_on_c, 2, 67, 95
3, 318720, Note_on_c, 2, 62, 95
3, 318720, Note_on_c, 2, 59, 95
3, 318720, Note_on_c, 2, 55, 95
3, 318720, Note_on_c, 2, 50, 95
3, 318720, Note_on_c, 2, 43, 95
3, 319200, Note_off_c, 2, 67, 95
3, 319200, Note_off_c, 2, 62, 95
3, 319200, Note_off_c, 2, 59, 95
3, 319200, Note_off_c, 2, 55, 95
3, 319200, Note_off_c, 2, 50, 95
3, 319200, Note_off_c, 2, 43, 95
3, 319200, Note_on_c, 2, 67, 95
3, 319200, Note_on_c, 2, 62, 95
3, 319200, Note_on_c, 2, 59, 95
3, 319200, Note_on_c, 2, 55, 95
3, 319200, Note_on_c, 2, 50, 95
3, 319200, Note_on_c, 2, 43, 95
3, 319680, Note_off_c, 2, 67, 95
3, 319680, Note_off_c, 2, 62, 95
3, 319680, Note_off_c, 2, 59, 95
3, 319680, Note_off_c, 2, 55, 95
3, 319680, Note_off_c, 2, 50, 95
3, 319680, Note_off_c, 2, 43, 95
3, 319680, Note_on_c, 2, 67, 95
3, 319680, Note_on_c, 2, 62, 95
3, 319680, Note_on_c, 2, 59, 95
3, 319680, Note_on_c, 2, 55, 95
3, 319680, Note_on_c, 2, 50, 95
3, 319680, Note_on_c, 2, 43, 95
3, 320160, Note_off_c, 2, 67, 95
3, 320160, Note_off_c, 2, 62, 95
3, 320160, Note_off_c, 2, 59, 95
3, 320160, Note_off_c, 2, 55, 95
3, 320160, Note_off_c, 2, 50, 95
3, 320160, Note_off_c, 2, 43, 95
3, 320160, Note_on_c, 2, 67, 95
3, 320160, Note_on_c, 2, 62, 95
3, 320160, Note_on_c, 2, 59, 95
3, 320160, Note_on_c, 2, 55, 95
3, 320160, Note_on_c, 2, 50, 95
3, 320160, Note_on_c, 2, 43, 95
3, 320640, Note_off_c, 2, 67, 95
3, 320640, Note_off_c, 2, 62, 95
3, 320640, Note_off_c, 2, 59, 95
3, 320640, Note_off_c, 2, 55, 95
3, 320640, Note_off_c, 2, 50, 95
3, 320640, Note_off_c, 2, 43, 95
3, 320640, Note_on_c, 2, 67, 95
3, 320640, Note_on_c, 2, 62, 95
3, 320640, Note_on_c, 2, 59, 95
3, 320640, Note_on_c, 2, 55, 95
3, 320640, Note_on_c, 2, 50, 95
3, 320640, Note_on_c, 2, 43, 95
3, 321120, Note_off_c, 2, 67, 95
3, 321120, Note_off_c, 2, 62, 95
3, 321120, Note_off_c, 2, 59, 95
3, 321120, Note_off_c, 2, 55, 95
3, 321120, Note_off_c, 2, 50, 95
3, 321120, Note_off_c, 2, 43, 95
3, 321120, Note_on_c, 2, 67, 95
3, 321120, Note_on_c, 2, 62, 95
3, 321120, Note_on_c, 2, 59, 95
3, 321120, Note_on_c, 2, 55, 95
3, 321120, Note_on_c, 2, 50, 95
3, 321120, Note_on_c, 2, 43, 95
3, 321600, Note_off_c, 2, 67, 95
3, 321600, Note_off_c, 2, 62, 95
3, 321600, Note_off_c, 2, 59, 95
3, 321600, Note_off_c, 2, 55, 95
3, 321600, Note_off_c, 2, 50, 95
3, 321600, Note_off_c, 2, 43, 95
3, 321600, Note_on_c, 2, 67, 95
3, 321600, Note_on_c, 2, 62, 95
3, 321600, Note_on_c, 2, 59, 95
3, 321600, Note_on_c, 2, 55, 95
3, 321600, Note_on_c, 2, 50, 95
3, 321600, Note_on_c, 2, 43, 95
3, 322080, Note_off_c, 2, 67, 95
3, 322080, Note_off_c, 2, 62, 95
3, 322080, Note_off_c, 2, 59, 95
3, 322080, Note_off_c, 2, 55, 95
3, 322080, Note_off_c, 2, 50, 95
3, 322080, Note_off_c, 2, 43, 95
3, 322080, Note_on_c, 2, 67, 95
3, 322080, Note_on_c, 2, 62, 95
3, 322080, Note_on_c, 2, 59, 95
3, 322080, Note_on_c, 2, 55, 95
3, 322080, Note_on_c, 2, 50, 95
3, 322080, Note_on_c, 2, 43, 95
3, 322560, Note_off_c, 2, 67, 95
3, 322560, Note_off_c, 2, 62, 95
3, 322560, Note_off_c, 2, 59, 95
3, 322560, Note_off_c, 2, 55, 95
3, 322560, Note_off_c, 2, 50, 95
3, 322560, Note_off_c, 2, 43, 95
3, 322560, Note_on_c, 2, 67, 95
3, 322560, Note_on_c, 2, 64, 95
3, 322560, Note_on_c, 2, 60, 95
3, 322560, Note_on_c, 2, 55, 95
3, 322560, Note_on_c, 2, 48, 95
3, 322560, Note_on_c, 2, 43, 95
3, 323040, Note_off_c, 2, 67, 95
3, 323040, Note_off_c, 2, 64, 95
3, 323040, Note_off_c, 2, 60, 95
3, 323040, Note_off_c, 2, 55, 95
3, 323040, Note_off_c, 2, 48, 95
3, 323040, Note_off_c, 2, 43, 95
3, 323040, Note_on_c, 2, 67, 95
3, 323040, Note_on_c, 2, 64, 95
3, 323040, Note_on_c, 2, 60, 95
3, 323040, Note_on_c, 2, 55, 95
3, 323040, Note_on_c, 2, 48, 95
3, 323040, Note_on_c, 2, 43, 95
3, 323520, Note_off_c, 2, 67, 95
3, 323520, Note_off_c, 2, 64, 95
3, 323520, Note_off_c, 2, 60, 95
3, 323520, Note_off_c, 2, 55, 95
3, 323520, Note_off_c, 2, 48, 95
3, 323520, Note_off_c, 2, 43, 95
3, 323520, Note_on_c, 2, 67, 95
3, 323520, Note_on_c, 2, 64, 95
3, 323520, Note_on_c, 2, 60, 95
3, 323520, Note_on_c, 2, 55, 95
3, 323520, Note_on_c, 2, 48, 95
3, 323520, Note_on_c, 2, 43, 95
3, 324000, Note_off_c, 2, 67, 95
3, 324000, Note_off_c, 2, 64, 95
3, 324000, Note_off_c, 2, 60, 95
3, 324000, Note_off_c, 2, 55, 95
3, 324000, Note_off_c, 2, 48, 95
3, 324000, Note_off_c, 2, 43, 95
3, 324000, Note_on_c, 2, 67, 95
3, 324000, Note_on_c, 2, 64, 95
3, 324000, Note_on_c, 2, 60, 95
3, 324000, Note_on_c, 2, 55, 95
3, 324000, Note_on_c, 2, 48, 95
3, 324000, Note_on_c, 2, 43, 95
3, 324480, Note_off_c, 2, 67, 95
3, 324480, Note_off_c, 2, 64, 95
3, 324480, Note_off_c, 2, 60, 95
3, 324480, Note_off_c, 2, 55, 95
3, 324480, Note_off_c, 2, 48, 95
3, 324480, Note_off_c, 2, 43, 95
3, 324480, Note_on_c, 2, 67, 95
3, 324480, Note_on_c, 2, 64, 95
3, 324480, Note_on_c, 2, 60, 95
3, 324480, Note_on_c, 2, 55, 95
3, 324480, Note_on_c, 2, 48, 95
3, 324480, Note_on_c, 2, 43, 95
3, 324960, Note_off_c, 2, 67, 95
3, 324960, Note_off_c, 2, 64, 95
3, 324960, Note_off_c, 2, 60, 95
3, 324960, Note_off_c, 2, 55, 95
3, 324960, Note_off_c, 2, 48, 95
3, 324960, Note_off_c, 2, 43, 95
3, 324960, Note_on_c, 2, 67, 95
3, 324960, Note_on_c, 2, 64, 95
3, 324960, Note_on_c, 2, 60, 95
3, 324960, Note_on_c, 2, 55, 95
3, 324960, Note_on_c, 2, 48, 95
3, 324960, Note_on_c, 2, 43, 95
3, 325440, Note_off_c, 2, 67, 95
3, 325440, Note_off_c, 2, 64, 95
3, 325440, Note_off_c, 2, 60, 95
3, 325440, Note_off_c, 2, 55, 95
3, 325440, Note_off_c, 2, 48, 95
3, 325440, Note_off_c, 2, 43, 95
3, 325440, Note_on_c, 2, 67, 95
3, 325440, Note_on_c, 2, 64, 95
3, 325440, Note_on_c, 2, 60, 95
3, 325440, Note_on_c, 2, 55, 95
3, 325440, Note_on_c, 2, 48, 95
3, 325440, Note_on_c, 2, 43, 95
3, 325920, Note_off_c, 2, 67, 95
3, 325920, Note_off_c, 2, 64, 95
3, 325920, Note_off_c, 2, 60, 95
3, 325920, Note_off_c, 2, 55, 95
3, 325920, Note_off_c, 2, 48, 95
3, 325920, Note_off_c, 2, 43, 95
3, 325920, Note_on_c, 2, 67, 95
3, 325920, Note_on_c, 2, 64, 95
3, 325920, Note_on_c, 2, 60, 95
3, 325920, Note_on_c, 2, 55, 95
3, 325920, Note_on_c, 2, 48, 95
3, 325920, Note_on_c, 2, 43, 95
3, 326400, Note_off_c, 2, 67, 95
3, 326400, Note_off_c, 2, 64, 95
3, 326400, Note_off_c, 2, 60, 95
3, 326400, Note_off_c, 2, 55, 95
3, 326400, Note_off_c, 2, 48, 95
3, 326400, Note_off_c, 2, 43, 95
3, 326400, Note_on_c, 2, 50, 95
3, 327840, Note_off_c, 2, 50, 95
3, 327840, Note_on_c, 2, 50, 95
3, 328800, Note_off_c, 2, 50, 95
3, 328800, Note_on_c, 2, 50, 95
3, 329760, Note_off_c, 2, 50, 95
3, 329760, Note_on_c, 2, 50, 95
3, 330240, Note_off_c, 2, 50, 95
3, 330240, Note_on_c, 2, 54, 95
3, 330720, Note_off_c, 2, 54, 95
3, 330720, Note_on_c, 2, 55, 95
3, 331680, Note_off_c, 2, 55, 95
3, 331680, Note_on_c, 2, 54, 95
3, 332640, Note_off_c, 2, 54, 95
3, 332640, Note_on_c, 2, 52, 95
3, 333600, Note_off_c, 2, 52, 95
3, 333600, Note_on_c, 2, 52, 95
3, 334080, Note_off_c, 2, 52, 95
3, 334080, Note_on_c, 2, 50, 95
3, 335520, Note_off_c, 2, 50, 95
3, 335520, Note_on_c, 2, 50, 95
3, 336480, Note_off_c, 2, 50, 95
3, 336480, Note_on_c, 2, 50, 95
3, 337440, Note_off_c, 2, 50, 95
3, 337440, Note_on_c, 2, 50, 95
3, 337920, Note_off_c, 2, 50, 95
3, 337920, Note_on_c, 2, 54, 95
3, 338400, Note_off_c, 2, 54, 95
3, 338400, Note_on_c, 2, 55, 95
3, 339360, Note_off_c, 2, 55, 95
3, 339360, Note_on_c, 2, 54, 95
3, 340320, Note_off_c, 2, 54, 95
3, 340320, Note_on_c, 2, 52, 95
3, 341280, Note_off_c, 2, 52, 95
3, 341280, Note_on_c, 2, 52, 95
3, 341760, Note_off_c, 2, 52, 95
3, 341760, Note_on_c, 2, 50, 95
3, 343200, Note_off_c, 2, 50, 95
3, 343200, Note_on_c, 2, 50, 95
3, 344160, Note_off_c, 2, 50, 95
3, 344160, Note_on_c, 2, 50, 95
3, 345120, Note_off_c, 2, 50, 95
3, 345120, Note_on_c, 2, 50, 95
3, 345600, Note_off_c, 2, 50, 95
3, 345600, Note_on_c, 2, 54, 95
3, 346080, Note_off_c, 2, 54, 95
3, 346080, Note_on_c, 2, 55, 95
3, 347040, Note_off_c, 2, 55, 95
3, 347040, Note_on_c, 2, 54, 95
3, 348000, Note_off_c, 2, 54, 95
3, 348000, Note_on_c, 2, 52, 95
3, 348960, Note_off_c, 2, 52, 95
3, 348960, Note_on_c, 2, 52, 95
3, 349440, Note_off_c, 2, 52, 95
3, 349440, Note_on_c, 2, 50, 95
3, 350880, Note_off_c, 2, 50, 95
3, 350880, Note_on_c, 2, 50, 95
3, 351840, Note_off_c, 2, 50, 95
3, 351840, Note_on_c, 2, 50, 95
3, 352800, Note_off_c, 2, 50, 95
3, 352800, Note_on_c, 2, 50, 95
3, 353280, Note_off_c, 2, 50, 95
3, 353280, Note_on_c, 2, 54, 95
3, 353760, Note_off_c, 2, 54, 95
3, 353760, Note_on_c, 2, 55, 95
3, 354720, Note_off_c, 2, 55, 95
3, 354720, Note_on_c, 2, 54, 95
3, 355680, Note_off_c, 2, 54, 95
3, 355680, Note_on_c, 2, 52, 95
3, 356640, Note_off_c, 2, 52, 95
3, 356640, Note_on_c, 2, 52, 95
3, 357120, Note_off_c, 2, 52, 95
3, 357120, Note_on_c, 2, 50, 95
3, 358560, Note_off_c, 2, 50, 95
3, 358560, Note_on_c, 2, 50, 95
3, 359520, Note_off_c, 2, 50, 95
3, 359520, Note_on_c, 2, 50, 95
3, 360480, Note_off_c, 2, 50, 95
3, 360480, Note_on_c, 2, 50, 95
3, 360960, Note_off_c, 2, 50, 95
3, 360960, Note_on_c, 2, 54, 95
3, 361440, Note_off_c, 2, 54, 95
3, 361440, Note_on_c, 2, 55, 95
3, 362400, Note_off_c, 2, 55, 95
3, 362400, Note_on_c, 2, 54, 95
3, 363360, Note_off_c, 2, 54, 95
3, 363360, Note_on_c, 2, 52, 95
3, 364320, Note_off_c, 2, 52, 95
3, 364320, Note_on_c, 2, 52, 95
3, 364800, Note_off_c, 2, 52, 95
3, 364800, End_track
4, 0, Start_track
4, 0, Pitch_bend_c, 6, 8192
4, 0, Control_c, 6, 7, 63
4, 0, Control_c, 6, 10, 103
4, 0, Control_c, 6, 93, 39
4, 0, Control_c, 6, 91, 15
4, 0, Control_c, 6, 95, 0
4, 0, Control_c, 6, 92, 0
4, 0, Control_c, 6, 11, 127
4, 0, Program_c, 6, 25
4, 0, Control_c, 7, 7, 63
4, 0, Control_c, 7, 10, 103
4, 0, Control_c, 7, 93, 39
4, 0, Control_c, 7, 91, 15
4, 0, Control_c, 7, 95, 0
4, 0, Control_c, 7, 92, 0
4, 0, Control_c, 7, 11, 127
4, 0, Program_c, 7, 25
4, 22560, Note_on_c, 6, 69, 95
4, 22560, Note_on_c, 6, 65, 95
4, 22560, Note_on_c, 6, 60, 95
4, 22560, Note_on_c, 6, 57, 95
4, 22560, Note_on_c, 6, 53, 95
4, 23040, Note_off_c, 6, 69, 95
4, 23040, Note_off_c, 6, 65, 95
4, 23040, Note_off_c, 6, 60, 95
4, 23040, Note_off_c, 6, 57, 95
4, 23040, Note_off_c, 6, 53, 95
4, 23040, Note_on_c, 6, 69, 95
4, 23040, Note_on_c, 6, 65, 95
4, 23040, Note_on_c, 6, 60, 95
4, 23040, Note_on_c, 6, 57, 95
4, 23040, Note_on_c, 6, 53, 95
4, 24480, Note_off_c, 6, 69, 95
4, 24480, Note_off_c, 6, 65, 95
4, 24480, Note_off_c, 6, 60, 95
4, 24480, Note_off_c, 6, 57, 95
4, 24480, Note_off_c, 6, 53, 95
4, 24480, Note_on_c, 6, 69, 95
4, 24480, Note_on_c, 6, 65, 95
4, 24480, Note_on_c, 6, 60, 95
4, 24480, Note_on_c, 6, 57, 95
4, 24480, Note_on_c, 6, 53, 95
4, 26400, Note_off_c, 6, 69, 95
4, 26400, Note_off_c, 6, 65, 95
4, 26400, Note_off_c, 6, 60, 95
4, 26400, Note_off_c, 6, 57, 95
4, 26400, Note_off_c, 6, 53, 95
4, 26400, Note_on_c, 6, 72, 95
4, 26400, Note_on_c, 6, 64, 95
4, 26400, Note_on_c, 6, 60, 95
4, 26400, Note_on_c, 6, 55, 95
4, 26400, Note_on_c, 6, 52, 95
4, 26400, Note_on_c, 6, 48, 95
4, 26640, Note_off_c, 6, 72, 95
4, 26640, Note_off_c, 6, 64, 95
4, 26640, Note_off_c, 6, 60, 95
4, 26640, Note_off_c, 6, 55, 95
4, 26640, Note_off_c, 6, 52, 95
4, 26640, Note_off_c, 6, 48, 95
4, 26640, Note_on_c, 6, 72, 95
4, 26640, Note_on_c, 6, 64, 95
4, 26640, Note_on_c, 6, 60, 95
4, 26640, Note_on_c, 6, 55, 95
4, 26640, Note_on_c, 6, 52, 95
4, 26640, Note_on_c, 6, 48, 95
4, 26880, Note_off_c, 6, 72, 95
4, 26880, Note_off_c, 6, 64, 95
4, 26880, Note_off_c, 6, 60, 95
4, 26880, Note_off_c, 6, 55, 95
4, 26880, Note_off_c, 6, 52, 95
4, 26880, Note_off_c, 6, 48, 95
4, 26880, Note_on_c, 6, 72, 95
4, 26880, Note_on_c, 6, 64, 95
4, 26880, Note_on_c, 6, 60, 95
4, 26880, Note_on_c, 6, 55, 95
4, 26880, Note_on_c, 6, 52, 95
4, 26880, Note_on_c, 6, 48, 95
4, 28320, Note_off_c, 6, 72, 95
4, 28320, Note_off_c, 6, 64, 95
4, 28320, Note_off_c, 6, 60, 95
4, 28320, Note_off_c, 6, 55, 95
4, 28320, Note_off_c, 6, 52, 95
4, 28320, Note_off_c, 6, 48, 95
4, 28320, Note_on_c, 6, 72, 95
4, 28320, Note_on_c, 6, 64, 95
4, 28320, Note_on_c, 6, 60, 95
4, 28320, Note_on_c, 6, 55, 95
4, 28320, Note_on_c, 6, 52, 95
4, 28320, Note_on_c, 6, 48, 95
4, 29280, Note_off_c, 6, 72, 95
4, 29280, Note_off_c, 6, 64, 95
4, 29280, Note_off_c, 6, 60, 95
4, 29280, Note_off_c, 6, 55, 95
4, 29280, Note_off_c, 6, 52, 95
4, 29280, Note_off_c, 6, 48, 95
4, 29280, Note_on_c, 6, 72, 95
4, 29280, Note_on_c, 6, 64, 95
4, 29280, Note_on_c, 6, 60, 95
4, 29280, Note_on_c, 6, 55, 95
4, 29280, Note_on_c, 6, 52, 95
4, 29280, Note_on_c, 6, 48, 95
4, 30240, Note_off_c, 6, 72, 95
4, 30240, Note_off_c, 6, 64, 95
4, 30240, Note_off_c, 6, 60, 95
4, 30240, Note_off_c, 6, 55, 95
4, 30240, Note_off_c, 6, 52, 95
4, 30240, Note_off_c, 6, 48, 95
4, 30240, Note_on_c, 6, 72, 95
4, 30240, Note_on_c, 6, 64, 95
4, 30240, Note_on_c, 6, 60, 95
4, 30240, Note_on_c, 6, 55, 95
4, 30240, Note_on_c, 6, 52, 95
4, 30240, Note_on_c, 6, 48, 95
4, 30720, Note_off_c, 6, 72, 95
4, 30720, Note_off_c, 6, 64, 95
4, 30720, Note_off_c, 6, 60, 95
4, 30720, Note_off_c, 6, 55, 95
4, 30720, Note_off_c, 6, 52, 95
4, 30720, Note_off_c, 6, 48, 95
4, 30720, Note_on_c, 6, 69, 95
4, 30720, Note_on_c, 6, 65, 95
4, 30720, Note_on_c, 6, 60, 95
4, 30720, Note_on_c, 6, 57, 95
4, 30720, Note_on_c, 6, 53, 95
4, 31200, Note_off_c, 6, 69, 95
4, 31200, Note_off_c, 6, 65, 95
4, 31200, Note_off_c, 6, 60, 95
4, 31200, Note_off_c, 6, 57, 95
4, 31200, Note_off_c, 6, 53, 95
4, 31200, Note_on_c, 6, 65, 95
4, 31200, Note_on_c, 6, 60, 95
4, 31200, Note_on_c, 6, 57, 95
4, 31200, Note_on_c, 6, 53, 95
4, 31680, Note_off_c, 6, 65, 95
4, 31680, Note_off_c, 6, 60, 95
4, 31680, Note_off_c, 6, 57, 95
4, 31680, Note_off_c, 6, 53, 95
4, 31680, Note_on_c, 6, 64, 95
4, 31680, Note_on_c, 6, 60, 95
4, 31680, Note_on_c, 6, 55, 95
4, 31680, Note_on_c, 6, 52, 95
4, 31680, Note_on_c, 6, 48, 95
4, 32160, Note_off_c, 6, 64, 95
4, 32160, Note_off_c, 6, 60, 95
4, 32160, Note_off_c, 6, 55, 95
4, 32160, Note_off_c, 6, 52, 95
4, 32160, Note_off_c, 6, 48, 95
4, 32160, Note_on_c, 6, 69, 95
4, 32160, Note_on_c, 6, 65, 95
4, 32160, Note_on_c, 6, 60, 95
4, 32160, Note_on_c, 6, 57, 95
4, 32160, Note_on_c, 6, 53, 95
4, 33120, Note_off_c, 6, 69, 95
4, 33120, Note_off_c, 6, 65, 95
4, 33120, Note_off_c, 6, 60, 95
4, 33120, Note_off_c, 6, 57, 95
4, 33120, Note_off_c, 6, 53, 95
4, 33120, Note_on_c, 6, 69, 95
4, 33120, Note_on_c, 6, 65, 95
4, 33120, Note_on_c, 6, 60, 95
4, 33120, Note_on_c, 6, 57, 95
4, 33120, Note_on_c, 6, 53, 95
4, 33600, Note_off_c, 6, 69, 95
4, 33600, Note_off_c, 6, 65, 95
4, 33600, Note_off_c, 6, 60, 95
4, 33600, Note_off_c, 6, 57, 95
4, 33600, Note_off_c, 6, 53, 95
4, 33600, Note_on_c, 6, 64, 95
4, 33600, Note_on_c, 6, 60, 95
4, 33600, Note_on_c, 6, 55, 95
4, 33600, Note_on_c, 6, 52, 95
4, 33600, Note_on_c, 6, 48, 95
4, 34080, Note_off_c, 6, 64, 95
4, 34080, Note_off_c, 6, 60, 95
4, 34080, Note_off_c, 6, 55, 95
4, 34080, Note_off_c, 6, 52, 95
4, 34080, Note_off_c, 6, 48, 95
4, 34080, Note_on_c, 6, 69, 95
4, 34080, Note_on_c, 6, 65, 95
4, 34080, Note_on_c, 6, 60, 95
4, 34080, Note_on_c, 6, 57, 95
4, 34080, Note_on_c, 6, 53, 95
4, 34560, Note_off_c, 6, 57, 95
4, 35040, Note_off_c, 6, 69, 95
4, 35040, Note_off_c, 6, 65, 95
4, 35040, Note_off_c, 6, 60, 95
4, 35040, Note_off_c, 6, 53, 95
4, 35040, Note_on_c, 6, 69, 95
4, 35040, Note_on_c, 6, 65, 95
4, 35040, Note_on_c, 6, 60, 95
4, 35040, Note_on_c, 6, 57, 95
4, 35040, Note_on_c, 6, 53, 95
4, 35520, Note_off_c, 6, 69, 95
4, 35520, Note_off_c, 6, 65, 95
4, 35520, Note_off_c, 6, 60, 95
4, 35520, Note_off_c, 6, 57, 95
4, 35520, Note_off_c, 6, 53, 95
4, 35520, Note_on_c, 6, 64, 95
4, 35520, Note_on_c, 6, 60, 95
4, 35520, Note_on_c, 6, 55, 95
4, 35520, Note_on_c, 6, 52, 95
4, 35520, Note_on_c, 6, 48, 95
4, 36000, Note_off_c, 6, 64, 95
4, 36000, Note_off_c, 6, 60, 95
4, 36000, Note_off_c, 6, 55, 95
4, 36000, Note_off_c, 6, 52, 95
4, 36000, Note_off_c, 6, 48, 95
4, 36000, Note_on_c, 6, 69, 95
4, 36000, Note_on_c, 6, 65, 95
4, 36000, Note_on_c, 6, 60, 95
4, 36000, Note_on_c, 6, 57, 95
4, 36000, Note_on_c, 6, 53, 95
4, 36960, Note_off_c, 6, 69, 95
4, 36960, Note_off_c, 6, 65, 95
4, 36960, Note_off_c, 6, 60, 95
4, 36960, Note_off_c, 6, 57, 95
4, 36960, Note_off_c, 6, 53, 95
4, 36960, Note_on_c, 6, 69, 95
4, 36960, Note_on_c, 6, 65, 95
4, 36960, Note_on_c, 6, 60, 95
4, 36960, Note_on_c, 6, 57, 95
4, 36960, Note_on_c, 6, 53, 95
4, 37440, Note_off_c, 6, 69, 95
4, 37440, Note_off_c, 6, 65, 95
4, 37440, Note_off_c, 6, 60, 95
4, 37440, Note_off_c, 6, 57, 95
4, 37440, Note_off_c, 6, 53, 95
4, 37440, Note_on_c, 6, 64, 95
4, 37440, Note_on_c, 6, 60, 95
4, 37440, Note_on_c, 6, 55, 95
4, 37440, Note_on_c, 6, 52, 95
4, 37440, Note_on_c, 6, 48, 95
4, 37920, Note_off_c, 6, 64, 95
4, 37920, Note_off_c, 6, 60, 95
4, 37920, Note_off_c, 6, 55, 95
4, 37920, Note_off_c, 6, 52, 95
4, 37920, Note_off_c, 6, 48, 95
4, 37920, Note_on_c, 6, 69, 95
4, 37920, Note_on_c, 6, 65, 95
4, 37920, Note_on_c, 6, 60, 95
4, 37920, Note_on_c, 6, 57, 95
4, 37920, Note_on_c, 6, 53, 95
4, 38400, Note_off_c, 6, 69, 95
4, 38400, Note_off_c, 6, 65, 95
4, 38400, Note_off_c, 6, 60, 95
4, 38400, Note_off_c, 6, 57, 95
4, 38400, Note_off_c, 6, 53, 95
4, 38400, Note_on_c, 6, 69, 95
4, 38400, Note_on_c, 6, 65, 95
4, 38400, Note_on_c, 6, 60, 95
4, 38400, Note_on_c, 6, 57, 95
4, 38400, Note_on_c, 6, 53, 95
4, 38880, Note_off_c, 6, 69, 95
4, 38880, Note_off_c, 6, 65, 95
4, 38880, Note_off_c, 6, 60, 95
4, 38880, Note_off_c, 6, 57, 95
4, 38880, Note_off_c, 6, 53, 95
4, 38880, Note_on_c, 6, 69, 95
4, 38880, Note_on_c, 6, 65, 95
4, 38880, Note_on_c, 6, 60, 95
4, 38880, Note_on_c, 6, 57, 95
4, 38880, Note_on_c, 6, 53, 95
4, 39360, Note_off_c, 6, 69, 95
4, 39360, Note_off_c, 6, 65, 95
4, 39360, Note_off_c, 6, 60, 95
4, 39360, Note_off_c, 6, 57, 95
4, 39360, Note_off_c, 6, 53, 95
4, 39360, Note_on_c, 6, 64, 95
4, 39360, Note_on_c, 6, 60, 95
4, 39360, Note_on_c, 6, 55, 95
4, 39360, Note_on_c, 6, 52, 95
4, 39360, Note_on_c, 6, 48, 95
4, 39840, Note_off_c, 6, 64, 95
4, 39840, Note_off_c, 6, 60, 95
4, 39840, Note_off_c, 6, 55, 95
4, 39840, Note_off_c, 6, 52, 95
4, 39840, Note_off_c, 6, 48, 95
4, 39840, Note_on_c, 6, 69, 95
4, 39840, Note_on_c, 6, 65, 95
4, 39840, Note_on_c, 6, 60, 95
4, 39840, Note_on_c, 6, 57, 95
4, 39840, Note_on_c, 6, 53, 95
4, 40320, Note_off_c, 6, 69, 95
4, 40320, Note_off_c, 6, 65, 95
4, 40320, Note_off_c, 6, 60, 95
4, 40320, Note_off_c, 6, 57, 95
4, 40320, Note_off_c, 6, 53, 95
4, 40320, Note_on_c, 6, 69, 95
4, 40320, Note_on_c, 6, 65, 95
4, 40320, Note_on_c, 6, 60, 95
4, 40320, Note_on_c, 6, 57, 95
4, 40320, Note_on_c, 6, 53, 95
4, 40800, Note_off_c, 6, 69, 95
4, 40800, Note_off_c, 6, 65, 95
4, 40800, Note_off_c, 6, 60, 95
4, 40800, Note_off_c, 6, 57, 95
4, 40800, Note_off_c, 6, 53, 95
4, 40800, Note_on_c, 6, 69, 95
4, 40800, Note_on_c, 6, 65, 95
4, 40800, Note_on_c, 6, 60, 95
4, 40800, Note_on_c, 6, 57, 95
4, 40800, Note_on_c, 6, 53, 95
4, 41280, Note_off_c, 6, 69, 95
4, 41280, Note_off_c, 6, 65, 95
4, 41280, Note_off_c, 6, 60, 95
4, 41280, Note_off_c, 6, 57, 95
4, 41280, Note_off_c, 6, 53, 95
4, 41280, Note_on_c, 6, 64, 95
4, 41280, Note_on_c, 6, 60, 95
4, 41280, Note_on_c, 6, 55, 95
4, 41280, Note_on_c, 6, 52, 95
4, 41280, Note_on_c, 6, 48, 95
4, 41760, Note_off_c, 6, 64, 95
4, 41760, Note_off_c, 6, 60, 95
4, 41760, Note_off_c, 6, 55, 95
4, 41760, Note_off_c, 6, 52, 95
4, 41760, Note_off_c, 6, 48, 95
4, 41760, Note_on_c, 6, 69, 95
4, 41760, Note_on_c, 6, 65, 95
4, 41760, Note_on_c, 6, 60, 95
4, 41760, Note_on_c, 6, 57, 95
4, 41760, Note_on_c, 6, 53, 95
4, 42240, Note_off_c, 6, 69, 95
4, 42240, Note_off_c, 6, 65, 95
4, 42240, Note_off_c, 6, 60, 95
4, 42240, Note_off_c, 6, 57, 95
4, 42240, Note_off_c, 6, 53, 95
4, 42240, Note_on_c, 6, 69, 95
4, 42240, Note_on_c, 6, 65, 95
4, 42240, Note_on_c, 6, 60, 95
4, 42240, Note_on_c, 6, 57, 95
4, 42240, Note_on_c, 6, 53, 95
4, 42720, Note_off_c, 6, 69, 95
4, 42720, Note_off_c, 6, 65, 95
4, 42720, Note_off_c, 6, 60, 95
4, 42720, Note_off_c, 6, 57, 95
4, 42720, Note_off_c, 6, 53, 95
4, 42720, Note_on_c, 6, 69, 95
4, 42720, Note_on_c, 6, 65, 95
4, 42720, Note_on_c, 6, 60, 95
4, 42720, Note_on_c, 6, 57, 95
4, 42720, Note_on_c, 6, 53, 95
4, 43200, Note_off_c, 6, 69, 95
4, 43200, Note_off_c, 6, 65, 95
4, 43200, Note_off_c, 6, 60, 95
4, 43200, Note_off_c, 6, 57, 95
4, 43200, Note_off_c, 6, 53, 95
4, 43200, Note_on_c, 6, 69, 95
4, 43200, Note_on_c, 6, 65, 95
4, 43200, Note_on_c, 6, 60, 95
4, 43200, Note_on_c, 6, 57, 95
4, 43200, Note_on_c, 6, 53, 95
4, 43680, Note_off_c, 6, 69, 95
4, 43680, Note_off_c, 6, 65, 95
4, 43680, Note_off_c, 6, 60, 95
4, 43680, Note_off_c, 6, 57, 95
4, 43680, Note_off_c, 6, 53, 95
4, 43680, Note_on_c, 6, 69, 95
4, 43680, Note_on_c, 6, 65, 95
4, 43680, Note_on_c, 6, 60, 95
4, 43680, Note_on_c, 6, 57, 95
4, 43680, Note_on_c, 6, 53, 95
4, 44160, Note_off_c, 6, 69, 95
4, 44160, Note_off_c, 6, 65, 95
4, 44160, Note_off_c, 6, 60, 95
4, 44160, Note_off_c, 6, 57, 95
4, 44160, Note_off_c, 6, 53, 95
4, 44160, Note_on_c, 6, 64, 95
4, 44160, Note_on_c, 6, 60, 95
4, 44160, Note_on_c, 6, 55, 95
4, 44160, Note_on_c, 6, 52, 95
4, 44160, Note_on_c, 6, 48, 95
4, 44640, Note_off_c, 6, 64, 95
4, 44640, Note_off_c, 6, 60, 95
4, 44640, Note_off_c, 6, 55, 95
4, 44640, Note_off_c, 6, 52, 95
4, 44640, Note_off_c, 6, 48, 95
4, 44640, Note_on_c, 6, 64, 95
4, 44640, Note_on_c, 6, 60, 95
4, 44640, Note_on_c, 6, 55, 95
4, 44640, Note_on_c, 6, 52, 95
4, 44640, Note_on_c, 6, 48, 95
4, 45120, Note_off_c, 6, 64, 95
4, 45120, Note_off_c, 6, 60, 95
4, 45120, Note_off_c, 6, 55, 95
4, 45120, Note_off_c, 6, 52, 95
4, 45120, Note_off_c, 6, 48, 95
4, 45120, Note_on_c, 6, 64, 95
4, 45120, Note_on_c, 6, 60, 95
4, 45120, Note_on_c, 6, 55, 95
4, 45120, Note_on_c, 6, 52, 95
4, 45120, Note_on_c, 6, 48, 95
4, 45600, Note_off_c, 6, 64, 95
4, 45600, Note_off_c, 6, 60, 95
4, 45600, Note_off_c, 6, 55, 95
4, 45600, Note_off_c, 6, 52, 95
4, 45600, Note_off_c, 6, 48, 95
4, 45600, Note_on_c, 6, 64, 95
4, 45600, Note_on_c, 6, 60, 95
4, 45600, Note_on_c, 6, 55, 95
4, 45600, Note_on_c, 6, 52, 95
4, 45600, Note_on_c, 6, 48, 95
4, 46080, Note_off_c, 6, 64, 95
4, 46080, Note_off_c, 6, 60, 95
4, 46080, Note_off_c, 6, 55, 95
4, 46080, Note_off_c, 6, 52, 95
4, 46080, Note_off_c, 6, 48, 95
4, 46080, Note_on_c, 6, 69, 95
4, 46080, Note_on_c, 6, 65, 95
4, 46080, Note_on_c, 6, 60, 95
4, 46080, Note_on_c, 6, 57, 95
4, 46080, Note_on_c, 6, 53, 95
4, 46560, Note_off_c, 6, 69, 95
4, 46560, Note_off_c, 6, 65, 95
4, 46560, Note_off_c, 6, 60, 95
4, 46560, Note_off_c, 6, 57, 95
4, 46560, Note_off_c, 6, 53, 95
4, 46560, Note_on_c, 6, 69, 95
4, 46560, Note_on_c, 6, 65, 95
4, 46560, Note_on_c, 6, 60, 95
4, 46560, Note_on_c, 6, 57, 95
4, 46560, Note_on_c, 6, 53, 95
4, 47040, Note_off_c, 6, 69, 95
4, 47040, Note_off_c, 6, 65, 95
4, 47040, Note_off_c, 6, 60, 95
4, 47040, Note_off_c, 6, 57, 95
4, 47040, Note_off_c, 6, 53, 95
4, 47040, Note_on_c, 6, 69, 95
4, 47040, Note_on_c, 6, 65, 95
4, 47040, Note_on_c, 6, 60, 95
4, 47040, Note_on_c, 6, 57, 95
4, 47040, Note_on_c, 6, 53, 95
4, 48000, Note_off_c, 6, 69, 95
4, 48000, Note_off_c, 6, 65, 95
4, 48000, Note_off_c, 6, 60, 95
4, 48000, Note_off_c, 6, 57, 95
4, 48000, Note_off_c, 6, 53, 95
4, 48000, Note_on_c, 6, 69, 95
4, 48000, Note_on_c, 6, 65, 95
4, 48000, Note_on_c, 6, 60, 95
4, 48000, Note_on_c, 6, 57, 95
4, 48000, Note_on_c, 6, 53, 95
4, 48480, Note_off_c, 6, 69, 95
4, 48480, Note_off_c, 6, 65, 95
4, 48480, Note_off_c, 6, 60, 95
4, 48480, Note_off_c, 6, 57, 95
4, 48480, Note_off_c, 6, 53, 95
4, 48480, Note_on_c, 6, 64, 95
4, 48480, Note_on_c, 6, 60, 95
4, 48480, Note_on_c, 6, 55, 95
4, 48480, Note_on_c, 6, 52, 95
4, 48480, Note_on_c, 6, 48, 95
4, 49440, Note_off_c, 6, 64, 95
4, 49440, Note_off_c, 6, 60, 95
4, 49440, Note_off_c, 6, 55, 95
4, 49440, Note_off_c, 6, 52, 95
4, 49440, Note_off_c, 6, 48, 95
4, 49440, Note_on_c, 6, 69, 95
4, 49440, Note_on_c, 6, 65, 95
4, 49440, Note_on_c, 6, 60, 95
4, 49440, Note_on_c, 6, 57, 95
4, 49440, Note_on_c, 6, 53, 95
4, 50400, Note_off_c, 6, 69, 95
4, 50400, Note_off_c, 6, 65, 95
4, 50400, Note_off_c, 6, 60, 95
4, 50400, Note_off_c, 6, 57, 95
4, 50400, Note_off_c, 6, 53, 95
4, 50400, Note_on_c, 6, 69, 95
4, 50400, Note_on_c, 6, 65, 95
4, 50400, Note_on_c, 6, 60, 95
4, 50400, Note_on_c, 6, 57, 95
4, 50400, Note_on_c, 6, 53, 95
4, 50880, Note_off_c, 6, 69, 95
4, 50880, Note_off_c, 6, 65, 95
4, 50880, Note_off_c, 6, 60, 95
4, 50880, Note_off_c, 6, 57, 95
4, 50880, Note_off_c, 6, 53, 95
4, 50880, Note_on_c, 6, 69, 95
4, 50880, Note_on_c, 6, 65, 95
4, 50880, Note_on_c, 6, 60, 95
4, 50880, Note_on_c, 6, 57, 95
4, 50880, Note_on_c, 6, 53, 95
4, 51840, Note_off_c, 6, 69, 95
4, 51840, Note_off_c, 6, 65, 95
4, 51840, Note_off_c, 6, 60, 95
4, 51840, Note_off_c, 6, 57, 95
4, 51840, Note_off_c, 6, 53, 95
4, 51840, Note_on_c, 6, 69, 95
4, 51840, Note_on_c, 6, 65, 95
4, 51840, Note_on_c, 6, 60, 95
4, 51840, Note_on_c, 6, 57, 95
4, 51840, Note_on_c, 6, 53, 95
4, 52320, Note_off_c, 6, 69, 95
4, 52320, Note_off_c, 6, 65, 95
4, 52320, Note_off_c, 6, 60, 95
4, 52320, Note_off_c, 6, 57, 95
4, 52320, Note_off_c, 6, 53, 95
4, 52320, Note_on_c, 6, 69, 95
4, 52320, Note_on_c, 6, 65, 95
4, 52320, Note_on_c, 6, 60, 95
4, 52320, Note_on_c, 6, 57, 95
4, 52320, Note_on_c, 6, 53, 95
4, 52800, Note_off_c, 6, 69, 95
4, 52800, Note_off_c, 6, 65, 95
4, 52800, Note_off_c, 6, 60, 95
4, 52800, Note_off_c, 6, 57, 95
4, 52800, Note_off_c, 6, 53, 95
4, 52800, Note_on_c, 6, 64, 95
4, 52800, Note_on_c, 6, 60, 95
4, 52800, Note_on_c, 6, 55, 95
4, 52800, Note_on_c, 6, 52, 95
4, 52800, Note_on_c, 6, 48, 95
4, 53280, Note_off_c, 6, 64, 95
4, 53280, Note_off_c, 6, 60, 95
4, 53280, Note_off_c, 6, 55, 95
4, 53280, Note_off_c, 6, 52, 95
4, 53280, Note_off_c, 6, 48, 95
4, 53280, Note_on_c, 6, 69, 95
4, 53280, Note_on_c, 6, 65, 95
4, 53280, Note_on_c, 6, 60, 95
4, 53280, Note_on_c, 6, 57, 95
4, 53280, Note_on_c, 6, 53, 95
4, 54240, Note_off_c, 6, 69, 95
4, 54240, Note_off_c, 6, 65, 95
4, 54240, Note_off_c, 6, 60, 95
4, 54240, Note_off_c, 6, 57, 95
4, 54240, Note_off_c, 6, 53, 95
4, 54240, Note_on_c, 6, 69, 95
4, 54240, Note_on_c, 6, 65, 95
4, 54240, Note_on_c, 6, 60, 95
4, 54240, Note_on_c, 6, 57, 95
4, 54240, Note_on_c, 6, 53, 95
4, 54720, Note_off_c, 6, 69, 95
4, 54720, Note_off_c, 6, 65, 95
4, 54720, Note_off_c, 6, 60, 95
4, 54720, Note_off_c, 6, 57, 95
4, 54720, Note_off_c, 6, 53, 95
4, 54720, Note_on_c, 6, 64, 95
4, 54720, Note_on_c, 6, 60, 95
4, 54720, Note_on_c, 6, 55, 95
4, 54720, Note_on_c, 6, 52, 95
4, 54720, Note_on_c, 6, 48, 95
4, 55200, Note_off_c, 6, 64, 95
4, 55200, Note_off_c, 6, 60, 95
4, 55200, Note_off_c, 6, 55, 95
4, 55200, Note_off_c, 6, 52, 95
4, 55200, Note_off_c, 6, 48, 95
4, 55200, Note_on_c, 6, 69, 95
4, 55200, Note_on_c, 6, 65, 95
4, 55200, Note_on_c, 6, 60, 95
4, 55200, Note_on_c, 6, 57, 95
4, 55200, Note_on_c, 6, 53, 95
4, 55680, Note_off_c, 6, 69, 95
4, 55680, Note_off_c, 6, 65, 95
4, 55680, Note_off_c, 6, 60, 95
4, 55680, Note_off_c, 6, 57, 95
4, 55680, Note_off_c, 6, 53, 95
4, 55680, Note_on_c, 6, 69, 95
4, 55680, Note_on_c, 6, 65, 95
4, 55680, Note_on_c, 6, 60, 95
4, 55680, Note_on_c, 6, 57, 95
4, 55680, Note_on_c, 6, 53, 95
4, 56160, Note_off_c, 6, 69, 95
4, 56160, Note_off_c, 6, 65, 95
4, 56160, Note_off_c, 6, 60, 95
4, 56160, Note_off_c, 6, 57, 95
4, 56160, Note_off_c, 6, 53, 95
4, 56160, Note_on_c, 6, 69, 95
4, 56160, Note_on_c, 6, 65, 95
4, 56160, Note_on_c, 6, 60, 95
4, 56160, Note_on_c, 6, 57, 95
4, 56160, Note_on_c, 6, 53, 95
4, 56640, Note_off_c, 6, 69, 95
4, 56640, Note_off_c, 6, 65, 95
4, 56640, Note_off_c, 6, 60, 95
4, 56640, Note_off_c, 6, 57, 95
4, 56640, Note_off_c, 6, 53, 95
4, 56640, Note_on_c, 6, 64, 95
4, 56640, Note_on_c, 6, 60, 95
4, 56640, Note_on_c, 6, 55, 95
4, 56640, Note_on_c, 6, 52, 95
4, 56640, Note_on_c, 6, 48, 95
4, 57120, Note_off_c, 6, 64, 95
4, 57120, Note_off_c, 6, 60, 95
4, 57120, Note_off_c, 6, 55, 95
4, 57120, Note_off_c, 6, 52, 95
4, 57120, Note_off_c, 6, 48, 95
4, 57120, Note_on_c, 6, 69, 95
4, 57120, Note_on_c, 6, 65, 95
4, 57120, Note_on_c, 6, 60, 95
4, 57120, Note_on_c, 6, 57, 95
4, 57120, Note_on_c, 6, 53, 95
4, 57600, Note_off_c, 6, 69, 95
4, 57600, Note_off_c, 6, 65, 95
4, 57600, Note_off_c, 6, 60, 95
4, 57600, Note_off_c, 6, 57, 95
4, 57600, Note_off_c, 6, 53, 95
4, 57600, Note_on_c, 6, 69, 95
4, 57600, Note_on_c, 6, 65, 95
4, 57600, Note_on_c, 6, 60, 95
4, 57600, Note_on_c, 6, 57, 95
4, 57600, Note_on_c, 6, 53, 95
4, 58080, Note_off_c, 6, 69, 95
4, 58080, Note_off_c, 6, 65, 95
4, 58080, Note_off_c, 6, 60, 95
4, 58080, Note_off_c, 6, 57, 95
4, 58080, Note_off_c, 6, 53, 95
4, 58080, Note_on_c, 6, 69, 95
4, 58080, Note_on_c, 6, 65, 95
4, 58080, Note_on_c, 6, 60, 95
4, 58080, Note_on_c, 6, 57, 95
4, 58080, Note_on_c, 6, 53, 95
4, 58560, Note_off_c, 6, 69, 95
4, 58560, Note_off_c, 6, 65, 95
4, 58560, Note_off_c, 6, 60, 95
4, 58560, Note_off_c, 6, 57, 95
4, 58560, Note_off_c, 6, 53, 95
4, 58560, Note_on_c, 6, 64, 95
4, 58560, Note_on_c, 6, 60, 95
4, 58560, Note_on_c, 6, 55, 95
4, 58560, Note_on_c, 6, 52, 95
4, 58560, Note_on_c, 6, 48, 95
4, 59040, Note_off_c, 6, 64, 95
4, 59040, Note_off_c, 6, 60, 95
4, 59040, Note_off_c, 6, 55, 95
4, 59040, Note_off_c, 6, 52, 95
4, 59040, Note_off_c, 6, 48, 95
4, 59040, Note_on_c, 6, 69, 95
4, 59040, Note_on_c, 6, 65, 95
4, 59040, Note_on_c, 6, 60, 95
4, 59040, Note_on_c, 6, 57, 95
4, 59040, Note_on_c, 6, 53, 95
4, 60000, Note_off_c, 6, 69, 95
4, 60000, Note_off_c, 6, 65, 95
4, 60000, Note_off_c, 6, 60, 95
4, 60000, Note_off_c, 6, 57, 95
4, 60000, Note_off_c, 6, 53, 95
4, 60000, Note_on_c, 6, 69, 95
4, 60000, Note_on_c, 6, 65, 95
4, 60000, Note_on_c, 6, 60, 95
4, 60000, Note_on_c, 6, 57, 95
4, 60000, Note_on_c, 6, 53, 95
4, 60480, Note_off_c, 6, 69, 95
4, 60480, Note_off_c, 6, 65, 95
4, 60480, Note_off_c, 6, 60, 95
4, 60480, Note_off_c, 6, 57, 95
4, 60480, Note_off_c, 6, 53, 95
4, 60480, Note_on_c, 6, 64, 95
4, 60480, Note_on_c, 6, 60, 95
4, 60480, Note_on_c, 6, 55, 95
4, 60480, Note_on_c, 6, 52, 95
4, 60480, Note_on_c, 6, 48, 95
4, 60960, Note_off_c, 6, 64, 95
4, 60960, Note_off_c, 6, 60, 95
4, 60960, Note_off_c, 6, 55, 95
4, 60960, Note_off_c, 6, 52, 95
4, 60960, Note_off_c, 6, 48, 95
4, 60960, Note_on_c, 6, 69, 95
4, 60960, Note_on_c, 6, 65, 95
4, 60960, Note_on_c, 6, 60, 95
4, 60960, Note_on_c, 6, 57, 95
4, 60960, Note_on_c, 6, 53, 95
4, 61440, Note_off_c, 6, 69, 95
4, 61440, Note_off_c, 6, 65, 95
4, 61440, Note_off_c, 6, 60, 95
4, 61440, Note_off_c, 6, 57, 95
4, 61440, Note_off_c, 6, 53, 95
4, 61440, Note_on_c, 6, 69, 95
4, 61440, Note_on_c, 6, 65, 95
4, 61440, Note_on_c, 6, 60, 95
4, 61440, Note_on_c, 6, 57, 95
4, 61440, Note_on_c, 6, 53, 95
4, 61920, Note_off_c, 6, 69, 95
4, 61920, Note_off_c, 6, 65, 95
4, 61920, Note_off_c, 6, 60, 95
4, 61920, Note_off_c, 6, 57, 95
4, 61920, Note_off_c, 6, 53, 95
4, 61920, Note_on_c, 6, 69, 95
4, 61920, Note_on_c, 6, 65, 95
4, 61920, Note_on_c, 6, 60, 95
4, 61920, Note_on_c, 6, 57, 95
4, 61920, Note_on_c, 6, 53, 95
4, 62400, Note_off_c, 6, 69, 95
4, 62400, Note_off_c, 6, 65, 95
4, 62400, Note_off_c, 6, 60, 95
4, 62400, Note_off_c, 6, 57, 95
4, 62400, Note_off_c, 6, 53, 95
4, 62400, Note_on_c, 6, 69, 95
4, 62400, Note_on_c, 6, 65, 95
4, 62400, Note_on_c, 6, 60, 95
4, 62400, Note_on_c, 6, 57, 95
4, 62400, Note_on_c, 6, 53, 95
4, 62880, Note_off_c, 6, 69, 95
4, 62880, Note_off_c, 6, 65, 95
4, 62880, Note_off_c, 6, 60, 95
4, 62880, Note_off_c, 6, 57, 95
4, 62880, Note_off_c, 6, 53, 95
4, 62880, Note_on_c, 6, 64, 95
4, 62880, Note_on_c, 6, 60, 95
4, 62880, Note_on_c, 6, 55, 95
4, 62880, Note_on_c, 6, 52, 95
4, 62880, Note_on_c, 6, 48, 95
4, 63360, Note_off_c, 6, 64, 95
4, 63360, Note_off_c, 6, 60, 95
4, 63360, Note_off_c, 6, 55, 95
4, 63360, Note_off_c, 6, 52, 95
4, 63360, Note_off_c, 6, 48, 95
4, 63360, Note_on_c, 6, 64, 95
4, 63360, Note_on_c, 6, 60, 95
4, 63360, Note_on_c, 6, 55, 95
4, 63360, Note_on_c, 6, 52, 95
4, 63360, Note_on_c, 6, 48, 95
4, 63840, Note_off_c, 6, 64, 95
4, 63840, Note_off_c, 6, 60, 95
4, 63840, Note_off_c, 6, 55, 95
4, 63840, Note_off_c, 6, 52, 95
4, 63840, Note_off_c, 6, 48, 95
4, 63840, Note_on_c, 6, 64, 95
4, 63840, Note_on_c, 6, 60, 95
4, 63840, Note_on_c, 6, 55, 95
4, 63840, Note_on_c, 6, 52, 95
4, 63840, Note_on_c, 6, 48, 95
4, 64320, Note_off_c, 6, 64, 95
4, 64320, Note_off_c, 6, 60, 95
4, 64320, Note_off_c, 6, 55, 95
4, 64320, Note_off_c, 6, 52, 95
4, 64320, Note_off_c, 6, 48, 95
4, 64320, Note_on_c, 6, 64, 95
4, 64320, Note_on_c, 6, 60, 95
4, 64320, Note_on_c, 6, 55, 95
4, 64320, Note_on_c, 6, 52, 95
4, 64320, Note_on_c, 6, 48, 95
4, 64800, Note_off_c, 6, 64, 95
4, 64800, Note_off_c, 6, 60, 95
4, 64800, Note_off_c, 6, 55, 95
4, 64800, Note_off_c, 6, 52, 95
4, 64800, Note_off_c, 6, 48, 95
4, 64800, Note_on_c, 6, 64, 95
4, 64800, Note_on_c, 6, 60, 95
4, 64800, Note_on_c, 6, 55, 95
4, 64800, Note_on_c, 6, 52, 95
4, 64800, Note_on_c, 6, 48, 95
4, 65280, Note_off_c, 6, 64, 95
4, 65280, Note_off_c, 6, 60, 95
4, 65280, Note_off_c, 6, 55, 95
4, 65280, Note_off_c, 6, 52, 95
4, 65280, Note_off_c, 6, 48, 95
4, 65280, Note_on_c, 6, 69, 95
4, 65280, Note_on_c, 6, 65, 95
4, 65280, Note_on_c, 6, 60, 95
4, 65280, Note_on_c, 6, 57, 95
4, 65280, Note_on_c, 6, 53, 95
4, 65760, Note_off_c, 6, 69, 95
4, 65760, Note_off_c, 6, 65, 95
4, 65760, Note_off_c, 6, 60, 95
4, 65760, Note_off_c, 6, 57, 95
4, 65760, Note_off_c, 6, 53, 95
4, 65760, Note_on_c, 6, 69, 95
4, 65760, Note_on_c, 6, 65, 95
4, 65760, Note_on_c, 6, 60, 95
4, 65760, Note_on_c, 6, 57, 95
4, 65760, Note_on_c, 6, 53, 95
4, 66240, Note_off_c, 6, 69, 95
4, 66240, Note_off_c, 6, 65, 95
4, 66240, Note_off_c, 6, 60, 95
4, 66240, Note_off_c, 6, 57, 95
4, 66240, Note_off_c, 6, 53, 95
4, 66240, Note_on_c, 6, 69, 95
4, 66240, Note_on_c, 6, 65, 95
4, 66240, Note_on_c, 6, 60, 95
4, 66240, Note_on_c, 6, 57, 95
4, 66240, Note_on_c, 6, 53, 95
4, 66720, Note_off_c, 6, 69, 95
4, 66720, Note_off_c, 6, 65, 95
4, 66720, Note_off_c, 6, 60, 95
4, 66720, Note_off_c, 6, 57, 95
4, 66720, Note_off_c, 6, 53, 95
4, 66720, Note_on_c, 6, 69, 95
4, 66720, Note_on_c, 6, 65, 95
4, 66720, Note_on_c, 6, 60, 95
4, 66720, Note_on_c, 6, 57, 95
4, 66720, Note_on_c, 6, 53, 95
4, 67200, Note_off_c, 6, 69, 95
4, 67200, Note_off_c, 6, 65, 95
4, 67200, Note_off_c, 6, 60, 95
4, 67200, Note_off_c, 6, 57, 95
4, 67200, Note_off_c, 6, 53, 95
4, 67200, Note_on_c, 6, 69, 95
4, 67200, Note_on_c, 6, 65, 95
4, 67200, Note_on_c, 6, 60, 95
4, 67200, Note_on_c, 6, 57, 95
4, 67200, Note_on_c, 6, 53, 95
4, 67680, Note_off_c, 6, 69, 95
4, 67680, Note_off_c, 6, 65, 95
4, 67680, Note_off_c, 6, 60, 95
4, 67680, Note_off_c, 6, 57, 95
4, 67680, Note_off_c, 6, 53, 95
4, 67680, Note_on_c, 6, 60, 95
4, 68160, Note_off_c, 6, 60, 95
4, 68160, Note_on_c, 6, 61, 95
4, 68640, Note_off_c, 6, 61, 95
4, 68640, Note_on_c, 6, 71, 95
4, 68640, Note_on_c, 6, 67, 95
4, 68640, Note_on_c, 6, 62, 95
4, 68640, Note_on_c, 6, 55, 95
4, 69600, Note_off_c, 6, 71, 95
4, 69600, Note_off_c, 6, 67, 95
4, 69600, Note_off_c, 6, 62, 95
4, 69600, Note_off_c, 6, 55, 95
4, 69600, Note_on_c, 6, 71, 95
4, 69600, Note_on_c, 6, 67, 95
4, 69600, Note_on_c, 6, 62, 95
4, 69600, Note_on_c, 6, 55, 95
4, 70080, Note_off_c, 6, 71, 95
4, 70080, Note_off_c, 6, 67, 95
4, 70080, Note_off_c, 6, 62, 95
4, 70080, Note_off_c, 6, 55, 95
4, 70080, Note_on_c, 6, 71, 95
4, 70080, Note_on_c, 6, 67, 95
4, 70080, Note_on_c, 6, 62, 95
4, 70080, Note_on_c, 6, 55, 95
4, 70560, Note_off_c, 6, 71, 95
4, 70560, Note_off_c, 6, 67, 95
4, 70560, Note_off_c, 6, 62, 95
4, 70560, Note_off_c, 6, 55, 95
4, 70560, Note_on_c, 6, 71, 95
4, 70560, Note_on_c, 6, 67, 95
4, 70560, Note_on_c, 6, 62, 95
4, 70560, Note_on_c, 6, 55, 95
4, 71040, Note_off_c, 6, 71, 95
4, 71040, Note_off_c, 6, 67, 95
4, 71040, Note_off_c, 6, 62, 95
4, 71040, Note_off_c, 6, 55, 95
4, 71040, Note_on_c, 6, 71, 95
4, 71040, Note_on_c, 6, 67, 95
4, 71040, Note_on_c, 6, 62, 95
4, 71040, Note_on_c, 6, 55, 95
4, 71520, Note_off_c, 6, 71, 95
4, 71520, Note_off_c, 6, 67, 95
4, 71520, Note_off_c, 6, 62, 95
4, 71520, Note_off_c, 6, 55, 95
4, 71520, Note_on_c, 6, 71, 95
4, 71520, Note_on_c, 6, 67, 95
4, 71520, Note_on_c, 6, 62, 95
4, 71520, Note_on_c, 6, 55, 95
4, 72000, Note_off_c, 6, 71, 95
4, 72000, Note_off_c, 6, 67, 95
4, 72000, Note_off_c, 6, 62, 95
4, 72000, Note_off_c, 6, 55, 95
4, 72000, Note_on_c, 6, 71, 95
4, 72000, Note_on_c, 6, 67, 95
4, 72000, Note_on_c, 6, 62, 95
4, 72000, Note_on_c, 6, 55, 95
4, 72480, Note_off_c, 6, 71, 95
4, 72480, Note_off_c, 6, 67, 95
4, 72480, Note_off_c, 6, 62, 95
4, 72480, Note_off_c, 6, 55, 95
4, 72480, Note_on_c, 6, 71, 95
4, 72480, Note_on_c, 6, 67, 95
4, 72480, Note_on_c, 6, 62, 95
4, 72480, Note_on_c, 6, 55, 95
4, 72960, Note_off_c, 6, 71, 95
4, 72960, Note_off_c, 6, 67, 95
4, 72960, Note_off_c, 6, 62, 95
4, 72960, Note_off_c, 6, 55, 95
4, 72960, Note_on_c, 6, 72, 95
4, 72960, Note_on_c, 6, 64, 95
4, 72960, Note_on_c, 6, 60, 95
4, 72960, Note_on_c, 6, 55, 95
4, 72960, Note_on_c, 6, 52, 95
4, 72960, Note_on_c, 6, 48, 95
4, 73440, Note_off_c, 6, 72, 95
4, 73440, Note_off_c, 6, 64, 95
4, 73440, Note_off_c, 6, 60, 95
4, 73440, Note_off_c, 6, 55, 95
4, 73440, Note_off_c, 6, 52, 95
4, 73440, Note_off_c, 6, 48, 95
4, 73440, Note_on_c, 6, 72, 95
4, 73440, Note_on_c, 6, 64, 95
4, 73440, Note_on_c, 6, 60, 95
4, 73440, Note_on_c, 6, 55, 95
4, 73440, Note_on_c, 6, 52, 95
4, 73440, Note_on_c, 6, 48, 95
4, 73920, Note_off_c, 6, 72, 95
4, 73920, Note_off_c, 6, 64, 95
4, 73920, Note_off_c, 6, 60, 95
4, 73920, Note_off_c, 6, 55, 95
4, 73920, Note_off_c, 6, 52, 95
4, 73920, Note_off_c, 6, 48, 95
4, 73920, Note_on_c, 6, 72, 95
4, 73920, Note_on_c, 6, 64, 95
4, 73920, Note_on_c, 6, 60, 95
4, 73920, Note_on_c, 6, 55, 95
4, 73920, Note_on_c, 6, 52, 95
4, 73920, Note_on_c, 6, 48, 95
4, 74400, Note_off_c, 6, 72, 95
4, 74400, Note_off_c, 6, 64, 95
4, 74400, Note_off_c, 6, 60, 95
4, 74400, Note_off_c, 6, 55, 95
4, 74400, Note_off_c, 6, 52, 95
4, 74400, Note_off_c, 6, 48, 95
4, 74400, Note_on_c, 6, 72, 95
4, 74400, Note_on_c, 6, 64, 95
4, 74400, Note_on_c, 6, 60, 95
4, 74400, Note_on_c, 6, 55, 95
4, 74400, Note_on_c, 6, 52, 95
4, 74400, Note_on_c, 6, 48, 95
4, 74880, Note_off_c, 6, 72, 95
4, 74880, Note_off_c, 6, 64, 95
4, 74880, Note_off_c, 6, 60, 95
4, 74880, Note_off_c, 6, 55, 95
4, 74880, Note_off_c, 6, 52, 95
4, 74880, Note_off_c, 6, 48, 95
4, 74880, Note_on_c, 6, 72, 95
4, 74880, Note_on_c, 6, 64, 95
4, 74880, Note_on_c, 6, 60, 95
4, 74880, Note_on_c, 6, 55, 95
4, 74880, Note_on_c, 6, 52, 95
4, 74880, Note_on_c, 6, 48, 95
4, 75360, Note_off_c, 6, 72, 95
4, 75360, Note_off_c, 6, 64, 95
4, 75360, Note_off_c, 6, 60, 95
4, 75360, Note_off_c, 6, 55, 95
4, 75360, Note_off_c, 6, 52, 95
4, 75360, Note_off_c, 6, 48, 95
4, 75360, Note_on_c, 6, 72, 95
4, 75360, Note_on_c, 6, 64, 95
4, 75360, Note_on_c, 6, 60, 95
4, 75360, Note_on_c, 6, 55, 95
4, 75360, Note_on_c, 6, 52, 95
4, 75360, Note_on_c, 6, 48, 95
4, 75840, Note_off_c, 6, 72, 95
4, 75840, Note_off_c, 6, 64, 95
4, 75840, Note_off_c, 6, 60, 95
4, 75840, Note_off_c, 6, 55, 95
4, 75840, Note_off_c, 6, 52, 95
4, 75840, Note_off_c, 6, 48, 95
4, 75840, Note_on_c, 6, 72, 95
4, 75840, Note_on_c, 6, 64, 95
4, 75840, Note_on_c, 6, 60, 95
4, 75840, Note_on_c, 6, 55, 95
4, 75840, Note_on_c, 6, 52, 95
4, 75840, Note_on_c, 6, 48, 95
4, 76320, Note_off_c, 6, 72, 95
4, 76320, Note_off_c, 6, 64, 95
4, 76320, Note_off_c, 6, 60, 95
4, 76320, Note_off_c, 6, 55, 95
4, 76320, Note_off_c, 6, 52, 95
4, 76320, Note_off_c, 6, 48, 95
4, 76320, Note_on_c, 6, 72, 95
4, 76320, Note_on_c, 6, 64, 95
4, 76320, Note_on_c, 6, 60, 95
4, 76320, Note_on_c, 6, 55, 95
4, 76320, Note_on_c, 6, 52, 95
4, 76320, Note_on_c, 6, 48, 95
4, 76800, Note_off_c, 6, 72, 95
4, 76800, Note_off_c, 6, 64, 95
4, 76800, Note_off_c, 6, 60, 95
4, 76800, Note_off_c, 6, 55, 95
4, 76800, Note_off_c, 6, 52, 95
4, 76800, Note_off_c, 6, 48, 95
4, 76800, Note_on_c, 6, 71, 95
4, 76800, Note_on_c, 6, 67, 95
4, 76800, Note_on_c, 6, 62, 95
4, 76800, Note_on_c, 6, 55, 95
4, 77280, Note_off_c, 6, 71, 95
4, 77280, Note_off_c, 6, 67, 95
4, 77280, Note_off_c, 6, 62, 95
4, 77280, Note_off_c, 6, 55, 95
4, 77280, Note_on_c, 6, 71, 95
4, 77280, Note_on_c, 6, 67, 95
4, 77280, Note_on_c, 6, 62, 95
4, 77280, Note_on_c, 6, 55, 95
4, 77760, Note_off_c, 6, 71, 95
4, 77760, Note_off_c, 6, 67, 95
4, 77760, Note_off_c, 6, 62, 95
4, 77760, Note_off_c, 6, 55, 95
4, 77760, Note_on_c, 6, 71, 95
4, 77760, Note_on_c, 6, 67, 95
4, 77760, Note_on_c, 6, 62, 95
4, 77760, Note_on_c, 6, 55, 95
4, 78240, Note_off_c, 6, 71, 95
4, 78240, Note_off_c, 6, 67, 95
4, 78240, Note_off_c, 6, 62, 95
4, 78240, Note_off_c, 6, 55, 95
4, 78240, Note_on_c, 6, 71, 95
4, 78240, Note_on_c, 6, 67, 95
4, 78240, Note_on_c, 6, 62, 95
4, 78240, Note_on_c, 6, 55, 95
4, 78720, Note_off_c, 6, 71, 95
4, 78720, Note_off_c, 6, 67, 95
4, 78720, Note_off_c, 6, 62, 95
4, 78720, Note_off_c, 6, 55, 95
4, 78720, Note_on_c, 6, 71, 95
4, 78720, Note_on_c, 6, 67, 95
4, 78720, Note_on_c, 6, 62, 95
4, 78720, Note_on_c, 6, 55, 95
4, 79200, Note_off_c, 6, 71, 95
4, 79200, Note_off_c, 6, 67, 95
4, 79200, Note_off_c, 6, 62, 95
4, 79200, Note_off_c, 6, 55, 95
4, 79200, Note_on_c, 6, 71, 95
4, 79200, Note_on_c, 6, 67, 95
4, 79200, Note_on_c, 6, 62, 95
4, 79200, Note_on_c, 6, 55, 95
4, 79680, Note_off_c, 6, 71, 95
4, 79680, Note_off_c, 6, 67, 95
4, 79680, Note_off_c, 6, 62, 95
4, 79680, Note_off_c, 6, 55, 95
4, 79680, Note_on_c, 6, 71, 95
4, 79680, Note_on_c, 6, 67, 95
4, 79680, Note_on_c, 6, 62, 95
4, 79680, Note_on_c, 6, 55, 95
4, 80160, Note_off_c, 6, 71, 95
4, 80160, Note_off_c, 6, 67, 95
4, 80160, Note_off_c, 6, 62, 95
4, 80160, Note_off_c, 6, 55, 95
4, 80160, Note_on_c, 6, 71, 95
4, 80160, Note_on_c, 6, 67, 95
4, 80160, Note_on_c, 6, 62, 95
4, 80160, Note_on_c, 6, 55, 95
4, 80640, Note_off_c, 6, 71, 95
4, 80640, Note_off_c, 6, 67, 95
4, 80640, Note_off_c, 6, 62, 95
4, 80640, Note_off_c, 6, 55, 95
4, 80640, Note_on_c, 6, 72, 95
4, 80640, Note_on_c, 6, 64, 95
4, 80640, Note_on_c, 6, 60, 95
4, 80640, Note_on_c, 6, 55, 95
4, 80640, Note_on_c, 6, 52, 95
4, 80640, Note_on_c, 6, 48, 95
4, 81120, Note_off_c, 6, 72, 95
4, 81120, Note_off_c, 6, 64, 95
4, 81120, Note_off_c, 6, 60, 95
4, 81120, Note_off_c, 6, 55, 95
4, 81120, Note_off_c, 6, 52, 95
4, 81120, Note_off_c, 6, 48, 95
4, 81120, Note_on_c, 6, 72, 95
4, 81120, Note_on_c, 6, 64, 95
4, 81120, Note_on_c, 6, 60, 95
4, 81120, Note_on_c, 6, 55, 95
4, 81120, Note_on_c, 6, 52, 95
4, 81120, Note_on_c, 6, 48, 95
4, 81600, Note_off_c, 6, 72, 95
4, 81600, Note_off_c, 6, 64, 95
4, 81600, Note_off_c, 6, 60, 95
4, 81600, Note_off_c, 6, 55, 95
4, 81600, Note_off_c, 6, 52, 95
4, 81600, Note_off_c, 6, 48, 95
4, 81600, Note_on_c, 6, 72, 95
4, 81600, Note_on_c, 6, 64, 95
4, 81600, Note_on_c, 6, 60, 95
4, 81600, Note_on_c, 6, 55, 95
4, 81600, Note_on_c, 6, 52, 95
4, 81600, Note_on_c, 6, 48, 95
4, 82080, Note_off_c, 6, 72, 95
4, 82080, Note_off_c, 6, 64, 95
4, 82080, Note_off_c, 6, 60, 95
4, 82080, Note_off_c, 6, 55, 95
4, 82080, Note_off_c, 6, 52, 95
4, 82080, Note_off_c, 6, 48, 95
4, 82080, Note_on_c, 6, 72, 95
4, 82080, Note_on_c, 6, 64, 95
4, 82080, Note_on_c, 6, 60, 95
4, 82080, Note_on_c, 6, 55, 95
4, 82080, Note_on_c, 6, 52, 95
4, 82080, Note_on_c, 6, 48, 95
4, 82560, Note_off_c, 6, 72, 95
4, 82560, Note_off_c, 6, 64, 95
4, 82560, Note_off_c, 6, 60, 95
4, 82560, Note_off_c, 6, 55, 95
4, 82560, Note_off_c, 6, 52, 95
4, 82560, Note_off_c, 6, 48, 95
4, 82560, Note_on_c, 6, 72, 95
4, 82560, Note_on_c, 6, 64, 95
4, 82560, Note_on_c, 6, 60, 95
4, 82560, Note_on_c, 6, 55, 95
4, 82560, Note_on_c, 6, 52, 95
4, 82560, Note_on_c, 6, 48, 95
4, 83040, Note_off_c, 6, 72, 95
4, 83040, Note_off_c, 6, 64, 95
4, 83040, Note_off_c, 6, 60, 95
4, 83040, Note_off_c, 6, 55, 95
4, 83040, Note_off_c, 6, 52, 95
4, 83040, Note_off_c, 6, 48, 95
4, 83040, Note_on_c, 6, 72, 95
4, 83040, Note_on_c, 6, 64, 95
4, 83040, Note_on_c, 6, 60, 95
4, 83040, Note_on_c, 6, 55, 95
4, 83040, Note_on_c, 6, 52, 95
4, 83040, Note_on_c, 6, 48, 95
4, 83520, Note_off_c, 6, 72, 95
4, 83520, Note_off_c, 6, 64, 95
4, 83520, Note_off_c, 6, 60, 95
4, 83520, Note_off_c, 6, 55, 95
4, 83520, Note_off_c, 6, 52, 95
4, 83520, Note_off_c, 6, 48, 95
4, 83520, Note_on_c, 6, 72, 95
4, 83520, Note_on_c, 6, 64, 95
4, 83520, Note_on_c, 6, 60, 95
4, 83520, Note_on_c, 6, 55, 95
4, 83520, Note_on_c, 6, 52, 95
4, 83520, Note_on_c, 6, 48, 95
4, 84000, Note_off_c, 6, 72, 95
4, 84000, Note_off_c, 6, 64, 95
4, 84000, Note_off_c, 6, 60, 95
4, 84000, Note_off_c, 6, 55, 95
4, 84000, Note_off_c, 6, 52, 95
4, 84000, Note_off_c, 6, 48, 95
4, 84000, Note_on_c, 6, 72, 95
4, 84000, Note_on_c, 6, 64, 95
4, 84000, Note_on_c, 6, 60, 95
4, 84000, Note_on_c, 6, 55, 95
4, 84000, Note_on_c, 6, 52, 95
4, 84000, Note_on_c, 6, 48, 95
4, 84480, Note_off_c, 6, 72, 95
4, 84480, Note_off_c, 6, 64, 95
4, 84480, Note_off_c, 6, 60, 95
4, 84480, Note_off_c, 6, 55, 95
4, 84480, Note_off_c, 6, 52, 95
4, 84480, Note_off_c, 6, 48, 95
4, 84480, Note_on_c, 6, 71, 95
4, 84480, Note_on_c, 6, 67, 95
4, 84480, Note_on_c, 6, 62, 95
4, 84480, Note_on_c, 6, 55, 95
4, 84960, Note_off_c, 6, 71, 95
4, 84960, Note_off_c, 6, 67, 95
4, 84960, Note_off_c, 6, 62, 95
4, 84960, Note_off_c, 6, 55, 95
4, 84960, Note_on_c, 6, 71, 95
4, 84960, Note_on_c, 6, 67, 95
4, 84960, Note_on_c, 6, 62, 95
4, 84960, Note_on_c, 6, 55, 95
4, 85440, Note_off_c, 6, 71, 95
4, 85440, Note_off_c, 6, 67, 95
4, 85440, Note_off_c, 6, 62, 95
4, 85440, Note_off_c, 6, 55, 95
4, 85440, Note_on_c, 6, 71, 95
4, 85440, Note_on_c, 6, 67, 95
4, 85440, Note_on_c, 6, 62, 95
4, 85440, Note_on_c, 6, 55, 95
4, 85920, Note_off_c, 6, 71, 95
4, 85920, Note_off_c, 6, 67, 95
4, 85920, Note_off_c, 6, 62, 95
4, 85920, Note_off_c, 6, 55, 95
4, 85920, Note_on_c, 6, 71, 95
4, 85920, Note_on_c, 6, 67, 95
4, 85920, Note_on_c, 6, 62, 95
4, 85920, Note_on_c, 6, 55, 95
4, 86400, Note_off_c, 6, 71, 95
4, 86400, Note_off_c, 6, 67, 95
4, 86400, Note_off_c, 6, 62, 95
4, 86400, Note_off_c, 6, 55, 95
4, 86400, Note_on_c, 6, 71, 95
4, 86400, Note_on_c, 6, 67, 95
4, 86400, Note_on_c, 6, 62, 95
4, 86400, Note_on_c, 6, 55, 95
4, 86880, Note_off_c, 6, 71, 95
4, 86880, Note_off_c, 6, 67, 95
4, 86880, Note_off_c, 6, 62, 95
4, 86880, Note_off_c, 6, 55, 95
4, 86880, Note_on_c, 6, 71, 95
4, 86880, Note_on_c, 6, 67, 95
4, 86880, Note_on_c, 6, 62, 95
4, 86880, Note_on_c, 6, 55, 95
4, 87360, Note_off_c, 6, 71, 95
4, 87360, Note_off_c, 6, 67, 95
4, 87360, Note_off_c, 6, 62, 95
4, 87360, Note_off_c, 6, 55, 95
4, 87360, Note_on_c, 6, 71, 95
4, 87360, Note_on_c, 6, 67, 95
4, 87360, Note_on_c, 6, 62, 95
4, 87360, Note_on_c, 6, 55, 95
4, 87840, Note_off_c, 6, 71, 95
4, 87840, Note_off_c, 6, 67, 95
4, 87840, Note_off_c, 6, 62, 95
4, 87840, Note_off_c, 6, 55, 95
4, 87840, Note_on_c, 6, 71, 95
4, 87840, Note_on_c, 6, 67, 95
4, 87840, Note_on_c, 6, 62, 95
4, 87840, Note_on_c, 6, 55, 95
4, 88320, Note_off_c, 6, 71, 95
4, 88320, Note_off_c, 6, 67, 95
4, 88320, Note_off_c, 6, 62, 95
4, 88320, Note_off_c, 6, 55, 95
4, 88320, Note_on_c, 6, 72, 95
4, 88320, Note_on_c, 6, 64, 95
4, 88320, Note_on_c, 6, 60, 95
4, 88320, Note_on_c, 6, 55, 95
4, 88320, Note_on_c, 6, 52, 95
4, 88320, Note_on_c, 6, 48, 95
4, 88800, Note_off_c, 6, 72, 95
4, 88800, Note_off_c, 6, 64, 95
4, 88800, Note_off_c, 6, 60, 95
4, 88800, Note_off_c, 6, 55, 95
4, 88800, Note_off_c, 6, 52, 95
4, 88800, Note_off_c, 6, 48, 95
4, 88800, Note_on_c, 6, 72, 95
4, 88800, Note_on_c, 6, 64, 95
4, 88800, Note_on_c, 6, 60, 95
4, 88800, Note_on_c, 6, 55, 95
4, 88800, Note_on_c, 6, 52, 95
4, 88800, Note_on_c, 6, 48, 95
4, 89280, Note_off_c, 6, 72, 95
4, 89280, Note_off_c, 6, 64, 95
4, 89280, Note_off_c, 6, 60, 95
4, 89280, Note_off_c, 6, 55, 95
4, 89280, Note_off_c, 6, 52, 95
4, 89280, Note_off_c, 6, 48, 95
4, 89280, Note_on_c, 6, 72, 95
4, 89280, Note_on_c, 6, 64, 95
4, 89280, Note_on_c, 6, 60, 95
4, 89280, Note_on_c, 6, 55, 95
4, 89280, Note_on_c, 6, 52, 95
4, 89280, Note_on_c, 6, 48, 95
4, 89760, Note_off_c, 6, 72, 95
4, 89760, Note_off_c, 6, 64, 95
4, 89760, Note_off_c, 6, 60, 95
4, 89760, Note_off_c, 6, 55, 95
4, 89760, Note_off_c, 6, 52, 95
4, 89760, Note_off_c, 6, 48, 95
4, 89760, Note_on_c, 6, 72, 95
4, 89760, Note_on_c, 6, 64, 95
4, 89760, Note_on_c, 6, 60, 95
4, 89760, Note_on_c, 6, 55, 95
4, 89760, Note_on_c, 6, 52, 95
4, 89760, Note_on_c, 6, 48, 95
4, 90240, Note_off_c, 6, 72, 95
4, 90240, Note_off_c, 6, 64, 95
4, 90240, Note_off_c, 6, 60, 95
4, 90240, Note_off_c, 6, 55, 95
4, 90240, Note_off_c, 6, 52, 95
4, 90240, Note_off_c, 6, 48, 95
4, 90240, Note_on_c, 6, 72, 95
4, 90240, Note_on_c, 6, 64, 95
4, 90240, Note_on_c, 6, 60, 95
4, 90240, Note_on_c, 6, 55, 95
4, 90240, Note_on_c, 6, 52, 95
4, 90240, Note_on_c, 6, 48, 95
4, 90720, Note_off_c, 6, 72, 95
4, 90720, Note_off_c, 6, 64, 95
4, 90720, Note_off_c, 6, 60, 95
4, 90720, Note_off_c, 6, 55, 95
4, 90720, Note_off_c, 6, 52, 95
4, 90720, Note_off_c, 6, 48, 95
4, 90720, Note_on_c, 6, 72, 95
4, 90720, Note_on_c, 6, 64, 95
4, 90720, Note_on_c, 6, 60, 95
4, 90720, Note_on_c, 6, 55, 95
4, 90720, Note_on_c, 6, 52, 95
4, 90720, Note_on_c, 6, 48, 95
4, 91200, Note_off_c, 6, 72, 95
4, 91200, Note_off_c, 6, 64, 95
4, 91200, Note_off_c, 6, 60, 95
4, 91200, Note_off_c, 6, 55, 95
4, 91200, Note_off_c, 6, 52, 95
4, 91200, Note_off_c, 6, 48, 95
4, 91200, Note_on_c, 6, 72, 95
4, 91200, Note_on_c, 6, 64, 95
4, 91200, Note_on_c, 6, 60, 95
4, 91200, Note_on_c, 6, 55, 95
4, 91200, Note_on_c, 6, 52, 95
4, 91200, Note_on_c, 6, 48, 95
4, 91680, Note_off_c, 6, 72, 95
4, 91680, Note_off_c, 6, 64, 95
4, 91680, Note_off_c, 6, 60, 95
4, 91680, Note_off_c, 6, 55, 95
4, 91680, Note_off_c, 6, 52, 95
4, 91680, Note_off_c, 6, 48, 95
4, 91680, Note_on_c, 6, 72, 95
4, 91680, Note_on_c, 6, 64, 95
4, 91680, Note_on_c, 6, 60, 95
4, 91680, Note_on_c, 6, 55, 95
4, 91680, Note_on_c, 6, 52, 95
4, 91680, Note_on_c, 6, 48, 95
4, 92160, Note_off_c, 6, 72, 95
4, 92160, Note_off_c, 6, 64, 95
4, 92160, Note_off_c, 6, 60, 95
4, 92160, Note_off_c, 6, 55, 95
4, 92160, Note_off_c, 6, 52, 95
4, 92160, Note_off_c, 6, 48, 95
4, 92160, Note_on_c, 6, 71, 95
4, 92160, Note_on_c, 6, 67, 95
4, 92160, Note_on_c, 6, 62, 95
4, 92160, Note_on_c, 6, 55, 95
4, 92640, Note_off_c, 6, 71, 95
4, 92640, Note_off_c, 6, 67, 95
4, 92640, Note_off_c, 6, 62, 95
4, 92640, Note_off_c, 6, 55, 95
4, 92640, Note_on_c, 6, 71, 95
4, 92640, Note_on_c, 6, 67, 95
4, 92640, Note_on_c, 6, 62, 95
4, 92640, Note_on_c, 6, 55, 95
4, 93120, Note_off_c, 6, 71, 95
4, 93120, Note_off_c, 6, 67, 95
4, 93120, Note_off_c, 6, 62, 95
4, 93120, Note_off_c, 6, 55, 95
4, 93120, Note_on_c, 6, 71, 95
4, 93120, Note_on_c, 6, 67, 95
4, 93120, Note_on_c, 6, 62, 95
4, 93120, Note_on_c, 6, 55, 95
4, 93600, Note_off_c, 6, 71, 95
4, 93600, Note_off_c, 6, 67, 95
4, 93600, Note_off_c, 6, 62, 95
4, 93600, Note_off_c, 6, 55, 95
4, 93600, Note_on_c, 6, 71, 95
4, 93600, Note_on_c, 6, 67, 95
4, 93600, Note_on_c, 6, 62, 95
4, 93600, Note_on_c, 6, 55, 95
4, 94080, Note_off_c, 6, 71, 95
4, 94080, Note_off_c, 6, 67, 95
4, 94080, Note_off_c, 6, 62, 95
4, 94080, Note_off_c, 6, 55, 95
4, 94080, Note_on_c, 6, 71, 95
4, 94080, Note_on_c, 6, 67, 95
4, 94080, Note_on_c, 6, 62, 95
4, 94080, Note_on_c, 6, 55, 95
4, 94560, Note_off_c, 6, 71, 95
4, 94560, Note_off_c, 6, 67, 95
4, 94560, Note_off_c, 6, 62, 95
4, 94560, Note_off_c, 6, 55, 95
4, 94560, Note_on_c, 6, 71, 95
4, 94560, Note_on_c, 6, 67, 95
4, 94560, Note_on_c, 6, 62, 95
4, 94560, Note_on_c, 6, 55, 95
4, 95040, Note_off_c, 6, 71, 95
4, 95040, Note_off_c, 6, 67, 95
4, 95040, Note_off_c, 6, 62, 95
4, 95040, Note_off_c, 6, 55, 95
4, 95040, Note_on_c, 6, 71, 95
4, 95040, Note_on_c, 6, 67, 95
4, 95040, Note_on_c, 6, 62, 95
4, 95040, Note_on_c, 6, 55, 95
4, 95520, Note_off_c, 6, 71, 95
4, 95520, Note_off_c, 6, 67, 95
4, 95520, Note_off_c, 6, 62, 95
4, 95520, Note_off_c, 6, 55, 95
4, 95520, Note_on_c, 6, 71, 95
4, 95520, Note_on_c, 6, 67, 95
4, 95520, Note_on_c, 6, 62, 95
4, 95520, Note_on_c, 6, 55, 95
4, 96000, Note_off_c, 6, 71, 95
4, 96000, Note_off_c, 6, 67, 95
4, 96000, Note_off_c, 6, 62, 95
4, 96000, Note_off_c, 6, 55, 95
4, 96000, Note_on_c, 6, 69, 95
4, 96000, Note_on_c, 6, 66, 95
4, 96000, Note_on_c, 6, 62, 95
4, 96000, Note_on_c, 6, 57, 95
4, 96000, Note_on_c, 6, 50, 95
4, 96960, Note_off_c, 6, 69, 95
4, 96960, Note_off_c, 6, 66, 95
4, 96960, Note_off_c, 6, 62, 95
4, 96960, Note_off_c, 6, 57, 95
4, 96960, Note_off_c, 6, 50, 95
4, 96960, Note_on_c, 6, 69, 95
4, 96960, Note_on_c, 6, 66, 95
4, 96960, Note_on_c, 6, 62, 95
4, 96960, Note_on_c, 6, 57, 95
4, 96960, Note_on_c, 6, 50, 95
4, 98400, Note_off_c, 6, 69, 95
4, 98400, Note_off_c, 6, 66, 95
4, 98400, Note_off_c, 6, 62, 95
4, 98400, Note_off_c, 6, 57, 95
4, 98400, Note_off_c, 6, 50, 95
4, 98400, Note_on_c, 6, 69, 95
4, 98400, Note_on_c, 6, 66, 95
4, 98400, Note_on_c, 6, 62, 95
4, 98400, Note_on_c, 6, 57, 95
4, 98400, Note_on_c, 6, 50, 95
4, 99360, Note_off_c, 6, 69, 95
4, 99360, Note_off_c, 6, 66, 95
4, 99360, Note_off_c, 6, 62, 95
4, 99360, Note_off_c, 6, 57, 95
4, 99360, Note_off_c, 6, 50, 95
4, 99360, Note_on_c, 6, 69, 95
4, 99360, Note_on_c, 6, 66, 95
4, 99360, Note_on_c, 6, 62, 95
4, 99360, Note_on_c, 6, 57, 95
4, 99360, Note_on_c, 6, 50, 95
4, 99840, Note_off_c, 6, 69, 95
4, 99840, Note_off_c, 6, 66, 95
4, 99840, Note_off_c, 6, 62, 95
4, 99840, Note_off_c, 6, 57, 95
4, 99840, Note_off_c, 6, 50, 95
4, 99840, Note_on_c, 6, 69, 95
4, 99840, Note_on_c, 6, 66, 95
4, 99840, Note_on_c, 6, 62, 95
4, 99840, Note_on_c, 6, 57, 95
4, 99840, Note_on_c, 6, 50, 95
4, 100320, Note_off_c, 6, 69, 95
4, 100320, Note_off_c, 6, 66, 95
4, 100320, Note_off_c, 6, 62, 95
4, 100320, Note_off_c, 6, 57, 95
4, 100320, Note_off_c, 6, 50, 95
4, 100320, Note_on_c, 6, 69, 95
4, 100320, Note_on_c, 6, 66, 95
4, 100320, Note_on_c, 6, 62, 95
4, 100320, Note_on_c, 6, 57, 95
4, 100320, Note_on_c, 6, 50, 95
4, 101280, Note_off_c, 6, 69, 95
4, 101280, Note_off_c, 6, 66, 95
4, 101280, Note_off_c, 6, 62, 95
4, 101280, Note_off_c, 6, 57, 95
4, 101280, Note_off_c, 6, 50, 95
4, 101280, Note_on_c, 6, 69, 95
4, 101280, Note_on_c, 6, 66, 95
4, 101280, Note_on_c, 6, 62, 95
4, 101280, Note_on_c, 6, 57, 95
4, 101280, Note_on_c, 6, 50, 95
4, 102240, Note_off_c, 6, 69, 95
4, 102240, Note_off_c, 6, 66, 95
4, 102240, Note_off_c, 6, 62, 95
4, 102240, Note_off_c, 6, 57, 95
4, 102240, Note_off_c, 6, 50, 95
4, 102240, Note_on_c, 6, 69, 95
4, 102240, Note_on_c, 6, 66, 95
4, 102240, Note_on_c, 6, 62, 95
4, 102240, Note_on_c, 6, 57, 95
4, 102240, Note_on_c, 6, 50, 95
4, 103200, Note_off_c, 6, 69, 95
4, 103200, Note_off_c, 6, 66, 95
4, 103200, Note_off_c, 6, 62, 95
4, 103200, Note_off_c, 6, 57, 95
4, 103200, Note_off_c, 6, 50, 95
4, 103200, Note_on_c, 6, 69, 95
4, 103200, Note_on_c, 6, 66, 95
4, 103200, Note_on_c, 6, 62, 95
4, 103200, Note_on_c, 6, 57, 95
4, 103200, Note_on_c, 6, 50, 95
4, 103680, Note_off_c, 6, 69, 95
4, 103680, Note_off_c, 6, 66, 95
4, 103680, Note_off_c, 6, 62, 95
4, 103680, Note_off_c, 6, 57, 95
4, 103680, Note_off_c, 6, 50, 95
4, 103680, Note_on_c, 6, 69, 95
4, 103680, Note_on_c, 6, 66, 95
4, 103680, Note_on_c, 6, 62, 95
4, 103680, Note_on_c, 6, 57, 95
4, 103680, Note_on_c, 6, 50, 95
4, 104640, Note_off_c, 6, 69, 95
4, 104640, Note_off_c, 6, 66, 95
4, 104640, Note_off_c, 6, 62, 95
4, 104640, Note_off_c, 6, 57, 95
4, 104640, Note_off_c, 6, 50, 95
4, 104640, Note_on_c, 6, 69, 95
4, 104640, Note_on_c, 6, 66, 95
4, 104640, Note_on_c, 6, 62, 95
4, 104640, Note_on_c, 6, 57, 95
4, 104640, Note_on_c, 6, 50, 95
4, 105600, Note_off_c, 6, 69, 95
4, 105600, Note_off_c, 6, 66, 95
4, 105600, Note_off_c, 6, 62, 95
4, 105600, Note_off_c, 6, 57, 95
4, 105600, Note_off_c, 6, 50, 95
4, 105600, Note_on_c, 6, 69, 95
4, 105600, Note_on_c, 6, 66, 95
4, 105600, Note_on_c, 6, 62, 95
4, 105600, Note_on_c, 6, 57, 95
4, 105600, Note_on_c, 6, 50, 95
4, 106080, Note_off_c, 6, 69, 95
4, 106080, Note_off_c, 6, 66, 95
4, 106080, Note_off_c, 6, 62, 95
4, 106080, Note_off_c, 6, 57, 95
4, 106080, Note_off_c, 6, 50, 95
4, 106080, Note_on_c, 6, 69, 95
4, 106080, Note_on_c, 6, 66, 95
4, 106080, Note_on_c, 6, 62, 95
4, 106080, Note_on_c, 6, 57, 95
4, 106080, Note_on_c, 6, 50, 95
4, 107040, Note_off_c, 6, 69, 95
4, 107040, Note_off_c, 6, 66, 95
4, 107040, Note_off_c, 6, 62, 95
4, 107040, Note_off_c, 6, 57, 95
4, 107040, Note_off_c, 6, 50, 95
4, 107040, Note_on_c, 6, 69, 95
4, 107040, Note_on_c, 6, 66, 95
4, 107040, Note_on_c, 6, 62, 95
4, 107040, Note_on_c, 6, 57, 95
4, 107040, Note_on_c, 6, 50, 95
4, 107520, Note_off_c, 6, 69, 95
4, 107520, Note_off_c, 6, 66, 95
4, 107520, Note_off_c, 6, 62, 95
4, 107520, Note_off_c, 6, 57, 95
4, 107520, Note_off_c, 6, 50, 95
4, 107520, Note_on_c, 6, 69, 95
4, 107520, Note_on_c, 6, 66, 95
4, 107520, Note_on_c, 6, 62, 95
4, 107520, Note_on_c, 6, 57, 95
4, 107520, Note_on_c, 6, 50, 95
4, 108000, Note_off_c, 6, 69, 95
4, 108000, Note_off_c, 6, 66, 95
4, 108000, Note_off_c, 6, 62, 95
4, 108000, Note_off_c, 6, 57, 95
4, 108000, Note_off_c, 6, 50, 95
4, 108000, Note_on_c, 6, 69, 95
4, 108000, Note_on_c, 6, 66, 95
4, 108000, Note_on_c, 6, 62, 95
4, 108000, Note_on_c, 6, 57, 95
4, 108000, Note_on_c, 6, 50, 95
4, 108960, Note_off_c, 6, 69, 95
4, 108960, Note_off_c, 6, 66, 95
4, 108960, Note_off_c, 6, 62, 95
4, 108960, Note_off_c, 6, 57, 95
4, 108960, Note_off_c, 6, 50, 95
4, 108960, Note_on_c, 6, 69, 95
4, 108960, Note_on_c, 6, 66, 95
4, 108960, Note_on_c, 6, 62, 95
4, 108960, Note_on_c, 6, 57, 95
4, 108960, Note_on_c, 6, 50, 95
4, 109920, Note_off_c, 6, 69, 95
4, 109920, Note_off_c, 6, 66, 95
4, 109920, Note_off_c, 6, 62, 95
4, 109920, Note_off_c, 6, 57, 95
4, 109920, Note_off_c, 6, 50, 95
4, 109920, Note_on_c, 6, 69, 95
4, 109920, Note_on_c, 6, 66, 95
4, 109920, Note_on_c, 6, 62, 95
4, 109920, Note_on_c, 6, 57, 95
4, 109920, Note_on_c, 6, 50, 95
4, 110880, Note_off_c, 6, 69, 95
4, 110880, Note_off_c, 6, 66, 95
4, 110880, Note_off_c, 6, 62, 95
4, 110880, Note_off_c, 6, 57, 95
4, 110880, Note_off_c, 6, 50, 95
4, 110880, Note_on_c, 6, 69, 95
4, 110880, Note_on_c, 6, 66, 95
4, 110880, Note_on_c, 6, 62, 95
4, 110880, Note_on_c, 6, 57, 95
4, 110880, Note_on_c, 6, 50, 95
4, 111360, Note_off_c, 6, 69, 95
4, 111360, Note_off_c, 6, 66, 95
4, 111360, Note_off_c, 6, 62, 95
4, 111360, Note_off_c, 6, 57, 95
4, 111360, Note_off_c, 6, 50, 95
4, 111360, Note_on_c, 6, 72, 95
4, 111360, Note_on_c, 6, 64, 95
4, 111360, Note_on_c, 6, 60, 95
4, 111360, Note_on_c, 6, 55, 95
4, 111360, Note_on_c, 6, 52, 95
4, 111360, Note_on_c, 6, 48, 95
4, 111840, Note_off_c, 6, 72, 95
4, 111840, Note_off_c, 6, 64, 95
4, 111840, Note_off_c, 6, 60, 95
4, 111840, Note_off_c, 6, 55, 95
4, 111840, Note_off_c, 6, 52, 95
4, 111840, Note_off_c, 6, 48, 95
4, 111840, Note_on_c, 6, 72, 95
4, 111840, Note_on_c, 6, 64, 95
4, 111840, Note_on_c, 6, 60, 95
4, 111840, Note_on_c, 6, 55, 95
4, 111840, Note_on_c, 6, 52, 95
4, 111840, Note_on_c, 6, 48, 95
4, 112320, Note_off_c, 6, 72, 95
4, 112320, Note_off_c, 6, 64, 95
4, 112320, Note_off_c, 6, 60, 95
4, 112320, Note_off_c, 6, 55, 95
4, 112320, Note_off_c, 6, 52, 95
4, 112320, Note_off_c, 6, 48, 95
4, 112320, Note_on_c, 6, 72, 95
4, 112320, Note_on_c, 6, 64, 95
4, 112320, Note_on_c, 6, 60, 95
4, 112320, Note_on_c, 6, 55, 95
4, 112320, Note_on_c, 6, 52, 95
4, 112320, Note_on_c, 6, 48, 95
4, 112800, Note_off_c, 6, 72, 95
4, 112800, Note_off_c, 6, 64, 95
4, 112800, Note_off_c, 6, 60, 95
4, 112800, Note_off_c, 6, 55, 95
4, 112800, Note_off_c, 6, 52, 95
4, 112800, Note_off_c, 6, 48, 95
4, 112800, Note_on_c, 6, 72, 95
4, 112800, Note_on_c, 6, 64, 95
4, 112800, Note_on_c, 6, 60, 95
4, 112800, Note_on_c, 6, 55, 95
4, 112800, Note_on_c, 6, 52, 95
4, 112800, Note_on_c, 6, 48, 95
4, 113280, Note_off_c, 6, 72, 95
4, 113280, Note_off_c, 6, 64, 95
4, 113280, Note_off_c, 6, 60, 95
4, 113280, Note_off_c, 6, 55, 95
4, 113280, Note_off_c, 6, 52, 95
4, 113280, Note_off_c, 6, 48, 95
4, 113280, Note_on_c, 6, 72, 95
4, 113280, Note_on_c, 6, 64, 95
4, 113280, Note_on_c, 6, 60, 95
4, 113280, Note_on_c, 6, 55, 95
4, 113280, Note_on_c, 6, 52, 95
4, 113280, Note_on_c, 6, 48, 95
4, 113760, Note_off_c, 6, 72, 95
4, 113760, Note_off_c, 6, 64, 95
4, 113760, Note_off_c, 6, 60, 95
4, 113760, Note_off_c, 6, 55, 95
4, 113760, Note_off_c, 6, 52, 95
4, 113760, Note_off_c, 6, 48, 95
4, 113760, Note_on_c, 6, 72, 95
4, 113760, Note_on_c, 6, 64, 95
4, 113760, Note_on_c, 6, 60, 95
4, 113760, Note_on_c, 6, 55, 95
4, 113760, Note_on_c, 6, 52, 95
4, 113760, Note_on_c, 6, 48, 95
4, 114240, Note_off_c, 6, 72, 95
4, 114240, Note_off_c, 6, 64, 95
4, 114240, Note_off_c, 6, 60, 95
4, 114240, Note_off_c, 6, 55, 95
4, 114240, Note_off_c, 6, 52, 95
4, 114240, Note_off_c, 6, 48, 95
4, 114240, Note_on_c, 6, 72, 95
4, 114240, Note_on_c, 6, 64, 95
4, 114240, Note_on_c, 6, 60, 95
4, 114240, Note_on_c, 6, 55, 95
4, 114240, Note_on_c, 6, 52, 95
4, 114240, Note_on_c, 6, 48, 95
4, 114720, Note_off_c, 6, 72, 95
4, 114720, Note_off_c, 6, 64, 95
4, 114720, Note_off_c, 6, 60, 95
4, 114720, Note_off_c, 6, 55, 95
4, 114720, Note_off_c, 6, 52, 95
4, 114720, Note_off_c, 6, 48, 95
4, 114720, Note_on_c, 6, 69, 95
4, 114720, Note_on_c, 6, 65, 95
4, 114720, Note_on_c, 6, 60, 95
4, 114720, Note_on_c, 6, 57, 95
4, 114720, Note_on_c, 6, 53, 95
4, 115680, Note_off_c, 6, 69, 95
4, 115680, Note_off_c, 6, 65, 95
4, 115680, Note_off_c, 6, 60, 95
4, 115680, Note_off_c, 6, 57, 95
4, 115680, Note_off_c, 6, 53, 95
4, 115680, Note_on_c, 6, 69, 95
4, 115680, Note_on_c, 6, 65, 95
4, 115680, Note_on_c, 6, 60, 95
4, 115680, Note_on_c, 6, 57, 95
4, 115680, Note_on_c, 6, 53, 95
4, 116160, Note_off_c, 6, 69, 95
4, 116160, Note_off_c, 6, 65, 95
4, 116160, Note_off_c, 6, 60, 95
4, 116160, Note_off_c, 6, 57, 95
4, 116160, Note_off_c, 6, 53, 95
4, 116160, Note_on_c, 6, 69, 95
4, 116160, Note_on_c, 6, 65, 95
4, 116160, Note_on_c, 6, 60, 95
4, 116160, Note_on_c, 6, 57, 95
4, 116160, Note_on_c, 6, 53, 95
4, 117120, Note_off_c, 6, 69, 95
4, 117120, Note_off_c, 6, 65, 95
4, 117120, Note_off_c, 6, 60, 95
4, 117120, Note_off_c, 6, 57, 95
4, 117120, Note_off_c, 6, 53, 95
4, 117120, Note_on_c, 6, 69, 95
4, 117120, Note_on_c, 6, 65, 95
4, 117120, Note_on_c, 6, 60, 95
4, 117120, Note_on_c, 6, 57, 95
4, 117120, Note_on_c, 6, 53, 95
4, 117600, Note_off_c, 6, 69, 95
4, 117600, Note_off_c, 6, 65, 95
4, 117600, Note_off_c, 6, 60, 95
4, 117600, Note_off_c, 6, 57, 95
4, 117600, Note_off_c, 6, 53, 95
4, 117600, Note_on_c, 6, 69, 95
4, 117600, Note_on_c, 6, 65, 95
4, 117600, Note_on_c, 6, 60, 95
4, 117600, Note_on_c, 6, 57, 95
4, 117600, Note_on_c, 6, 53, 95
4, 118080, Note_off_c, 6, 69, 95
4, 118080, Note_off_c, 6, 65, 95
4, 118080, Note_off_c, 6, 60, 95
4, 118080, Note_off_c, 6, 57, 95
4, 118080, Note_off_c, 6, 53, 95
4, 118080, Note_on_c, 6, 69, 95
4, 118080, Note_on_c, 6, 65, 95
4, 118080, Note_on_c, 6, 60, 95
4, 118080, Note_on_c, 6, 57, 95
4, 118080, Note_on_c, 6, 53, 95
4, 118560, Note_off_c, 6, 69, 95
4, 118560, Note_off_c, 6, 65, 95
4, 118560, Note_off_c, 6, 60, 95
4, 118560, Note_off_c, 6, 57, 95
4, 118560, Note_off_c, 6, 53, 95
4, 118560, Note_on_c, 6, 69, 95
4, 118560, Note_on_c, 6, 65, 95
4, 118560, Note_on_c, 6, 60, 95
4, 118560, Note_on_c, 6, 57, 95
4, 118560, Note_on_c, 6, 53, 95
4, 119040, Note_off_c, 6, 69, 95
4, 119040, Note_off_c, 6, 65, 95
4, 119040, Note_off_c, 6, 60, 95
4, 119040, Note_off_c, 6, 57, 95
4, 119040, Note_off_c, 6, 53, 95
4, 119040, Note_on_c, 6, 72, 95
4, 119040, Note_on_c, 6, 64, 95
4, 119040, Note_on_c, 6, 60, 95
4, 119040, Note_on_c, 6, 55, 95
4, 119040, Note_on_c, 6, 52, 95
4, 119040, Note_on_c, 6, 48, 95
4, 120000, Note_off_c, 6, 72, 95
4, 120000, Note_off_c, 6, 64, 95
4, 120000, Note_off_c, 6, 60, 95
4, 120000, Note_off_c, 6, 55, 95
4, 120000, Note_off_c, 6, 52, 95
4, 120000, Note_off_c, 6, 48, 95
4, 120000, Note_on_c, 6, 72, 95
4, 120000, Note_on_c, 6, 64, 95
4, 120000, Note_on_c, 6, 60, 95
4, 120000, Note_on_c, 6, 55, 95
4, 120000, Note_on_c, 6, 52, 95
4, 120000, Note_on_c, 6, 48, 95
4, 120960, Note_off_c, 6, 72, 95
4, 120960, Note_off_c, 6, 64, 95
4, 120960, Note_off_c, 6, 60, 95
4, 120960, Note_off_c, 6, 55, 95
4, 120960, Note_off_c, 6, 52, 95
4, 120960, Note_off_c, 6, 48, 95
4, 120960, Note_on_c, 6, 72, 95
4, 120960, Note_on_c, 6, 64, 95
4, 120960, Note_on_c, 6, 60, 95
4, 120960, Note_on_c, 6, 55, 95
4, 120960, Note_on_c, 6, 52, 95
4, 120960, Note_on_c, 6, 48, 95
4, 121440, Note_off_c, 6, 72, 95
4, 121440, Note_off_c, 6, 64, 95
4, 121440, Note_off_c, 6, 60, 95
4, 121440, Note_off_c, 6, 55, 95
4, 121440, Note_off_c, 6, 52, 95
4, 121440, Note_off_c, 6, 48, 95
4, 121440, Note_on_c, 6, 72, 95
4, 121440, Note_on_c, 6, 64, 95
4, 121440, Note_on_c, 6, 60, 95
4, 121440, Note_on_c, 6, 55, 95
4, 121440, Note_on_c, 6, 52, 95
4, 121440, Note_on_c, 6, 48, 95
4, 121920, Note_off_c, 6, 72, 95
4, 121920, Note_off_c, 6, 64, 95
4, 121920, Note_off_c, 6, 60, 95
4, 121920, Note_off_c, 6, 55, 95
4, 121920, Note_off_c, 6, 52, 95
4, 121920, Note_off_c, 6, 48, 95
4, 121920, Note_on_c, 6, 72, 95
4, 121920, Note_on_c, 6, 64, 95
4, 121920, Note_on_c, 6, 60, 95
4, 121920, Note_on_c, 6, 55, 95
4, 121920, Note_on_c, 6, 52, 95
4, 121920, Note_on_c, 6, 48, 95
4, 122400, Note_off_c, 6, 72, 95
4, 122400, Note_off_c, 6, 64, 95
4, 122400, Note_off_c, 6, 60, 95
4, 122400, Note_off_c, 6, 55, 95
4, 122400, Note_off_c, 6, 52, 95
4, 122400, Note_off_c, 6, 48, 95
4, 122400, Note_on_c, 6, 72, 95
4, 122400, Note_on_c, 6, 64, 95
4, 122400, Note_on_c, 6, 60, 95
4, 122400, Note_on_c, 6, 55, 95
4, 122400, Note_on_c, 6, 52, 95
4, 122400, Note_on_c, 6, 48, 95
4, 122880, Note_off_c, 6, 72, 95
4, 122880, Note_off_c, 6, 64, 95
4, 122880, Note_off_c, 6, 60, 95
4, 122880, Note_off_c, 6, 55, 95
4, 122880, Note_off_c, 6, 52, 95
4, 122880, Note_off_c, 6, 48, 95
4, 122880, Note_on_c, 6, 69, 95
4, 122880, Note_on_c, 6, 65, 95
4, 122880, Note_on_c, 6, 60, 95
4, 122880, Note_on_c, 6, 57, 95
4, 122880, Note_on_c, 6, 53, 95
4, 123360, Note_off_c, 6, 69, 95
4, 123360, Note_off_c, 6, 65, 95
4, 123360, Note_off_c, 6, 60, 95
4, 123360, Note_off_c, 6, 57, 95
4, 123360, Note_off_c, 6, 53, 95
4, 123360, Note_on_c, 6, 65, 95
4, 123360, Note_on_c, 6, 60, 95
4, 123360, Note_on_c, 6, 57, 95
4, 123360, Note_on_c, 6, 53, 95
4, 123840, Note_off_c, 6, 65, 95
4, 123840, Note_off_c, 6, 60, 95
4, 123840, Note_off_c, 6, 57, 95
4, 123840, Note_off_c, 6, 53, 95
4, 123840, Note_on_c, 6, 64, 95
4, 123840, Note_on_c, 6, 60, 95
4, 123840, Note_on_c, 6, 55, 95
4, 123840, Note_on_c, 6, 52, 95
4, 123840, Note_on_c, 6, 48, 95
4, 124320, Note_off_c, 6, 64, 95
4, 124320, Note_off_c, 6, 60, 95
4, 124320, Note_off_c, 6, 55, 95
4, 124320, Note_off_c, 6, 52, 95
4, 124320, Note_off_c, 6, 48, 95
4, 124320, Note_on_c, 6, 69, 95
4, 124320, Note_on_c, 6, 65, 95
4, 124320, Note_on_c, 6, 60, 95
4, 124320, Note_on_c, 6, 57, 95
4, 124320, Note_on_c, 6, 53, 95
4, 125280, Note_off_c, 6, 69, 95
4, 125280, Note_off_c, 6, 65, 95
4, 125280, Note_off_c, 6, 60, 95
4, 125280, Note_off_c, 6, 57, 95
4, 125280, Note_off_c, 6, 53, 95
4, 125280, Note_on_c, 6, 69, 95
4, 125280, Note_on_c, 6, 65, 95
4, 125280, Note_on_c, 6, 60, 95
4, 125280, Note_on_c, 6, 57, 95
4, 125280, Note_on_c, 6, 53, 95
4, 125760, Note_off_c, 6, 69, 95
4, 125760, Note_off_c, 6, 65, 95
4, 125760, Note_off_c, 6, 60, 95
4, 125760, Note_off_c, 6, 57, 95
4, 125760, Note_off_c, 6, 53, 95
4, 125760, Note_on_c, 6, 64, 95
4, 125760, Note_on_c, 6, 60, 95
4, 125760, Note_on_c, 6, 55, 95
4, 125760, Note_on_c, 6, 52, 95
4, 125760, Note_on_c, 6, 48, 95
4, 126240, Note_off_c, 6, 64, 95
4, 126240, Note_off_c, 6, 60, 95
4, 126240, Note_off_c, 6, 55, 95
4, 126240, Note_off_c, 6, 52, 95
4, 126240, Note_off_c, 6, 48, 95
4, 126240, Note_on_c, 6, 69, 95
4, 126240, Note_on_c, 6, 65, 95
4, 126240, Note_on_c, 6, 60, 95
4, 126240, Note_on_c, 6, 57, 95
4, 126240, Note_on_c, 6, 53, 95
4, 126720, Note_off_c, 6, 57, 95
4, 127200, Note_off_c, 6, 69, 95
4, 127200, Note_off_c, 6, 65, 95
4, 127200, Note_off_c, 6, 60, 95
4, 127200, Note_off_c, 6, 53, 95
4, 127200, Note_on_c, 6, 69, 95
4, 127200, Note_on_c, 6, 65, 95
4, 127200, Note_on_c, 6, 60, 95
4, 127200, Note_on_c, 6, 57, 95
4, 127200, Note_on_c, 6, 53, 95
4, 127680, Note_off_c, 6, 69, 95
4, 127680, Note_off_c, 6, 65, 95
4, 127680, Note_off_c, 6, 60, 95
4, 127680, Note_off_c, 6, 57, 95
4, 127680, Note_off_c, 6, 53, 95
4, 127680, Note_on_c, 6, 64, 95
4, 127680, Note_on_c, 6, 60, 95
4, 127680, Note_on_c, 6, 55, 95
4, 127680, Note_on_c, 6, 52, 95
4, 127680, Note_on_c, 6, 48, 95
4, 128160, Note_off_c, 6, 64, 95
4, 128160, Note_off_c, 6, 60, 95
4, 128160, Note_off_c, 6, 55, 95
4, 128160, Note_off_c, 6, 52, 95
4, 128160, Note_off_c, 6, 48, 95
4, 128160, Note_on_c, 6, 69, 95
4, 128160, Note_on_c, 6, 65, 95
4, 128160, Note_on_c, 6, 60, 95
4, 128160, Note_on_c, 6, 57, 95
4, 128160, Note_on_c, 6, 53, 95
4, 129120, Note_off_c, 6, 69, 95
4, 129120, Note_off_c, 6, 65, 95
4, 129120, Note_off_c, 6, 60, 95
4, 129120, Note_off_c, 6, 57, 95
4, 129120, Note_off_c, 6, 53, 95
4, 129120, Note_on_c, 6, 69, 95
4, 129120, Note_on_c, 6, 65, 95
4, 129120, Note_on_c, 6, 60, 95
4, 129120, Note_on_c, 6, 57, 95
4, 129120, Note_on_c, 6, 53, 95
4, 129600, Note_off_c, 6, 69, 95
4, 129600, Note_off_c, 6, 65, 95
4, 129600, Note_off_c, 6, 60, 95
4, 129600, Note_off_c, 6, 57, 95
4, 129600, Note_off_c, 6, 53, 95
4, 129600, Note_on_c, 6, 64, 95
4, 129600, Note_on_c, 6, 60, 95
4, 129600, Note_on_c, 6, 55, 95
4, 129600, Note_on_c, 6, 52, 95
4, 129600, Note_on_c, 6, 48, 95
4, 130080, Note_off_c, 6, 64, 95
4, 130080, Note_off_c, 6, 60, 95
4, 130080, Note_off_c, 6, 55, 95
4, 130080, Note_off_c, 6, 52, 95
4, 130080, Note_off_c, 6, 48, 95
4, 130080, Note_on_c, 6, 69, 95
4, 130080, Note_on_c, 6, 65, 95
4, 130080, Note_on_c, 6, 60, 95
4, 130080, Note_on_c, 6, 57, 95
4, 130080, Note_on_c, 6, 53, 95
4, 130560, Note_off_c, 6, 69, 95
4, 130560, Note_off_c, 6, 65, 95
4, 130560, Note_off_c, 6, 60, 95
4, 130560, Note_off_c, 6, 57, 95
4, 130560, Note_off_c, 6, 53, 95
4, 130560, Note_on_c, 6, 69, 95
4, 130560, Note_on_c, 6, 65, 95
4, 130560, Note_on_c, 6, 60, 95
4, 130560, Note_on_c, 6, 57, 95
4, 130560, Note_on_c, 6, 53, 95
4, 131040, Note_off_c, 6, 69, 95
4, 131040, Note_off_c, 6, 65, 95
4, 131040, Note_off_c, 6, 60, 95
4, 131040, Note_off_c, 6, 57, 95
4, 131040, Note_off_c, 6, 53, 95
4, 131040, Note_on_c, 6, 69, 95
4, 131040, Note_on_c, 6, 65, 95
4, 131040, Note_on_c, 6, 60, 95
4, 131040, Note_on_c, 6, 57, 95
4, 131040, Note_on_c, 6, 53, 95
4, 131520, Note_off_c, 6, 69, 95
4, 131520, Note_off_c, 6, 65, 95
4, 131520, Note_off_c, 6, 60, 95
4, 131520, Note_off_c, 6, 57, 95
4, 131520, Note_off_c, 6, 53, 95
4, 131520, Note_on_c, 6, 64, 95
4, 131520, Note_on_c, 6, 60, 95
4, 131520, Note_on_c, 6, 55, 95
4, 131520, Note_on_c, 6, 52, 95
4, 131520, Note_on_c, 6, 48, 95
4, 132000, Note_off_c, 6, 64, 95
4, 132000, Note_off_c, 6, 60, 95
4, 132000, Note_off_c, 6, 55, 95
4, 132000, Note_off_c, 6, 52, 95
4, 132000, Note_off_c, 6, 48, 95
4, 132000, Note_on_c, 6, 69, 95
4, 132000, Note_on_c, 6, 65, 95
4, 132000, Note_on_c, 6, 60, 95
4, 132000, Note_on_c, 6, 57, 95
4, 132000, Note_on_c, 6, 53, 95
4, 132480, Note_off_c, 6, 69, 95
4, 132480, Note_off_c, 6, 65, 95
4, 132480, Note_off_c, 6, 60, 95
4, 132480, Note_off_c, 6, 57, 95
4, 132480, Note_off_c, 6, 53, 95
4, 132480, Note_on_c, 6, 69, 95
4, 132480, Note_on_c, 6, 65, 95
4, 132480, Note_on_c, 6, 60, 95
4, 132480, Note_on_c, 6, 57, 95
4, 132480, Note_on_c, 6, 53, 95
4, 132960, Note_off_c, 6, 69, 95
4, 132960, Note_off_c, 6, 65, 95
4, 132960, Note_off_c, 6, 60, 95
4, 132960, Note_off_c, 6, 57, 95
4, 132960, Note_off_c, 6, 53, 95
4, 132960, Note_on_c, 6, 69, 95
4, 132960, Note_on_c, 6, 65, 95
4, 132960, Note_on_c, 6, 60, 95
4, 132960, Note_on_c, 6, 57, 95
4, 132960, Note_on_c, 6, 53, 95
4, 133440, Note_off_c, 6, 69, 95
4, 133440, Note_off_c, 6, 65, 95
4, 133440, Note_off_c, 6, 60, 95
4, 133440, Note_off_c, 6, 57, 95
4, 133440, Note_off_c, 6, 53, 95
4, 133440, Note_on_c, 6, 64, 95
4, 133440, Note_on_c, 6, 60, 95
4, 133440, Note_on_c, 6, 55, 95
4, 133440, Note_on_c, 6, 52, 95
4, 133440, Note_on_c, 6, 48, 95
4, 133920, Note_off_c, 6, 64, 95
4, 133920, Note_off_c, 6, 60, 95
4, 133920, Note_off_c, 6, 55, 95
4, 133920, Note_off_c, 6, 52, 95
4, 133920, Note_off_c, 6, 48, 95
4, 133920, Note_on_c, 6, 69, 95
4, 133920, Note_on_c, 6, 65, 95
4, 133920, Note_on_c, 6, 60, 95
4, 133920, Note_on_c, 6, 57, 95
4, 133920, Note_on_c, 6, 53, 95
4, 134400, Note_off_c, 6, 69, 95
4, 134400, Note_off_c, 6, 65, 95
4, 134400, Note_off_c, 6, 60, 95
4, 134400, Note_off_c, 6, 57, 95
4, 134400, Note_off_c, 6, 53, 95
4, 134400, Note_on_c, 6, 69, 95
4, 134400, Note_on_c, 6, 65, 95
4, 134400, Note_on_c, 6, 60, 95
4, 134400, Note_on_c, 6, 57, 95
4, 134400, Note_on_c, 6, 53, 95
4, 134880, Note_off_c, 6, 69, 95
4, 134880, Note_off_c, 6, 65, 95
4, 134880, Note_off_c, 6, 60, 95
4, 134880, Note_off_c, 6, 57, 95
4, 134880, Note_off_c, 6, 53, 95
4, 134880, Note_on_c, 6, 69, 95
4, 134880, Note_on_c, 6, 65, 95
4, 134880, Note_on_c, 6, 60, 95
4, 134880, Note_on_c, 6, 57, 95
4, 134880, Note_on_c, 6, 53, 95
4, 135360, Note_off_c, 6, 69, 95
4, 135360, Note_off_c, 6, 65, 95
4, 135360, Note_off_c, 6, 60, 95
4, 135360, Note_off_c, 6, 57, 95
4, 135360, Note_off_c, 6, 53, 95
4, 135360, Note_on_c, 6, 69, 95
4, 135360, Note_on_c, 6, 65, 95
4, 135360, Note_on_c, 6, 60, 95
4, 135360, Note_on_c, 6, 57, 95
4, 135360, Note_on_c, 6, 53, 95
4, 135840, Note_off_c, 6, 69, 95
4, 135840, Note_off_c, 6, 65, 95
4, 135840, Note_off_c, 6, 60, 95
4, 135840, Note_off_c, 6, 57, 95
4, 135840, Note_off_c, 6, 53, 95
4, 135840, Note_on_c, 6, 69, 95
4, 135840, Note_on_c, 6, 65, 95
4, 135840, Note_on_c, 6, 60, 95
4, 135840, Note_on_c, 6, 57, 95
4, 135840, Note_on_c, 6, 53, 95
4, 136320, Note_off_c, 6, 69, 95
4, 136320, Note_off_c, 6, 65, 95
4, 136320, Note_off_c, 6, 60, 95
4, 136320, Note_off_c, 6, 57, 95
4, 136320, Note_off_c, 6, 53, 95
4, 136320, Note_on_c, 6, 64, 95
4, 136320, Note_on_c, 6, 60, 95
4, 136320, Note_on_c, 6, 55, 95
4, 136320, Note_on_c, 6, 52, 95
4, 136320, Note_on_c, 6, 48, 95
4, 136800, Note_off_c, 6, 64, 95
4, 136800, Note_off_c, 6, 60, 95
4, 136800, Note_off_c, 6, 55, 95
4, 136800, Note_off_c, 6, 52, 95
4, 136800, Note_off_c, 6, 48, 95
4, 136800, Note_on_c, 6, 64, 95
4, 136800, Note_on_c, 6, 60, 95
4, 136800, Note_on_c, 6, 55, 95
4, 136800, Note_on_c, 6, 52, 95
4, 136800, Note_on_c, 6, 48, 95
4, 137280, Note_off_c, 6, 64, 95
4, 137280, Note_off_c, 6, 60, 95
4, 137280, Note_off_c, 6, 55, 95
4, 137280, Note_off_c, 6, 52, 95
4, 137280, Note_off_c, 6, 48, 95
4, 137280, Note_on_c, 6, 64, 95
4, 137280, Note_on_c, 6, 60, 95
4, 137280, Note_on_c, 6, 55, 95
4, 137280, Note_on_c, 6, 52, 95
4, 137280, Note_on_c, 6, 48, 95
4, 137760, Note_off_c, 6, 64, 95
4, 137760, Note_off_c, 6, 60, 95
4, 137760, Note_off_c, 6, 55, 95
4, 137760, Note_off_c, 6, 52, 95
4, 137760, Note_off_c, 6, 48, 95
4, 137760, Note_on_c, 6, 64, 95
4, 137760, Note_on_c, 6, 60, 95
4, 137760, Note_on_c, 6, 55, 95
4, 137760, Note_on_c, 6, 52, 95
4, 137760, Note_on_c, 6, 48, 95
4, 138240, Note_off_c, 6, 64, 95
4, 138240, Note_off_c, 6, 60, 95
4, 138240, Note_off_c, 6, 55, 95
4, 138240, Note_off_c, 6, 52, 95
4, 138240, Note_off_c, 6, 48, 95
4, 138240, Note_on_c, 6, 69, 95
4, 138240, Note_on_c, 6, 65, 95
4, 138240, Note_on_c, 6, 60, 95
4, 138240, Note_on_c, 6, 57, 95
4, 138240, Note_on_c, 6, 53, 95
4, 138720, Note_off_c, 6, 69, 95
4, 138720, Note_off_c, 6, 65, 95
4, 138720, Note_off_c, 6, 60, 95
4, 138720, Note_off_c, 6, 57, 95
4, 138720, Note_off_c, 6, 53, 95
4, 138720, Note_on_c, 6, 69, 95
4, 138720, Note_on_c, 6, 65, 95
4, 138720, Note_on_c, 6, 60, 95
4, 138720, Note_on_c, 6, 57, 95
4, 138720, Note_on_c, 6, 53, 95
4, 139200, Note_off_c, 6, 69, 95
4, 139200, Note_off_c, 6, 65, 95
4, 139200, Note_off_c, 6, 60, 95
4, 139200, Note_off_c, 6, 57, 95
4, 139200, Note_off_c, 6, 53, 95
4, 139200, Note_on_c, 6, 69, 95
4, 139200, Note_on_c, 6, 65, 95
4, 139200, Note_on_c, 6, 60, 95
4, 139200, Note_on_c, 6, 57, 95
4, 139200, Note_on_c, 6, 53, 95
4, 140160, Note_off_c, 6, 69, 95
4, 140160, Note_off_c, 6, 65, 95
4, 140160, Note_off_c, 6, 60, 95
4, 140160, Note_off_c, 6, 57, 95
4, 140160, Note_off_c, 6, 53, 95
4, 140160, Note_on_c, 6, 69, 95
4, 140160, Note_on_c, 6, 65, 95
4, 140160, Note_on_c, 6, 60, 95
4, 140160, Note_on_c, 6, 57, 95
4, 140160, Note_on_c, 6, 53, 95
4, 140640, Note_off_c, 6, 69, 95
4, 140640, Note_off_c, 6, 65, 95
4, 140640, Note_off_c, 6, 60, 95
4, 140640, Note_off_c, 6, 57, 95
4, 140640, Note_off_c, 6, 53, 95
4, 140640, Note_on_c, 6, 64, 95
4, 140640, Note_on_c, 6, 60, 95
4, 140640, Note_on_c, 6, 55, 95
4, 140640, Note_on_c, 6, 52, 95
4, 140640, Note_on_c, 6, 48, 95
4, 141600, Note_off_c, 6, 64, 95
4, 141600, Note_off_c, 6, 60, 95
4, 141600, Note_off_c, 6, 55, 95
4, 141600, Note_off_c, 6, 52, 95
4, 141600, Note_off_c, 6, 48, 95
4, 141600, Note_on_c, 6, 69, 95
4, 141600, Note_on_c, 6, 65, 95
4, 141600, Note_on_c, 6, 60, 95
4, 141600, Note_on_c, 6, 57, 95
4, 141600, Note_on_c, 6, 53, 95
4, 142560, Note_off_c, 6, 69, 95
4, 142560, Note_off_c, 6, 65, 95
4, 142560, Note_off_c, 6, 60, 95
4, 142560, Note_off_c, 6, 57, 95
4, 142560, Note_off_c, 6, 53, 95
4, 142560, Note_on_c, 6, 69, 95
4, 142560, Note_on_c, 6, 65, 95
4, 142560, Note_on_c, 6, 60, 95
4, 142560, Note_on_c, 6, 57, 95
4, 142560, Note_on_c, 6, 53, 95
4, 143040, Note_off_c, 6, 69, 95
4, 143040, Note_off_c, 6, 65, 95
4, 143040, Note_off_c, 6, 60, 95
4, 143040, Note_off_c, 6, 57, 95
4, 143040, Note_off_c, 6, 53, 95
4, 143040, Note_on_c, 6, 69, 95
4, 143040, Note_on_c, 6, 65, 95
4, 143040, Note_on_c, 6, 60, 95
4, 143040, Note_on_c, 6, 57, 95
4, 143040, Note_on_c, 6, 53, 95
4, 144000, Note_off_c, 6, 69, 95
4, 144000, Note_off_c, 6, 65, 95
4, 144000, Note_off_c, 6, 60, 95
4, 144000, Note_off_c, 6, 57, 95
4, 144000, Note_off_c, 6, 53, 95
4, 144000, Note_on_c, 6, 69, 95
4, 144000, Note_on_c, 6, 65, 95
4, 144000, Note_on_c, 6, 60, 95
4, 144000, Note_on_c, 6, 57, 95
4, 144000, Note_on_c, 6, 53, 95
4, 144480, Note_off_c, 6, 69, 95
4, 144480, Note_off_c, 6, 65, 95
4, 144480, Note_off_c, 6, 60, 95
4, 144480, Note_off_c, 6, 57, 95
4, 144480, Note_off_c, 6, 53, 95
4, 144480, Note_on_c, 6, 69, 95
4, 144480, Note_on_c, 6, 65, 95
4, 144480, Note_on_c, 6, 60, 95
4, 144480, Note_on_c, 6, 57, 95
4, 144480, Note_on_c, 6, 53, 95
4, 144960, Note_off_c, 6, 69, 95
4, 144960, Note_off_c, 6, 65, 95
4, 144960, Note_off_c, 6, 60, 95
4, 144960, Note_off_c, 6, 57, 95
4, 144960, Note_off_c, 6, 53, 95
4, 144960, Note_on_c, 6, 64, 95
4, 144960, Note_on_c, 6, 60, 95
4, 144960, Note_on_c, 6, 55, 95
4, 144960, Note_on_c, 6, 52, 95
4, 144960, Note_on_c, 6, 48, 95
4, 145440, Note_off_c, 6, 64, 95
4, 145440, Note_off_c, 6, 60, 95
4, 145440, Note_off_c, 6, 55, 95
4, 145440, Note_off_c, 6, 52, 95
4, 145440, Note_off_c, 6, 48, 95
4, 145440, Note_on_c, 6, 69, 95
4, 145440, Note_on_c, 6, 65, 95
4, 145440, Note_on_c, 6, 60, 95
4, 145440, Note_on_c, 6, 57, 95
4, 145440, Note_on_c, 6, 53, 95
4, 146400, Note_off_c, 6, 69, 95
4, 146400, Note_off_c, 6, 65, 95
4, 146400, Note_off_c, 6, 60, 95
4, 146400, Note_off_c, 6, 57, 95
4, 146400, Note_off_c, 6, 53, 95
4, 146400, Note_on_c, 6, 69, 95
4, 146400, Note_on_c, 6, 65, 95
4, 146400, Note_on_c, 6, 60, 95
4, 146400, Note_on_c, 6, 57, 95
4, 146400, Note_on_c, 6, 53, 95
4, 146880, Note_off_c, 6, 69, 95
4, 146880, Note_off_c, 6, 65, 95
4, 146880, Note_off_c, 6, 60, 95
4, 146880, Note_off_c, 6, 57, 95
4, 146880, Note_off_c, 6, 53, 95
4, 146880, Note_on_c, 6, 64, 95
4, 146880, Note_on_c, 6, 60, 95
4, 146880, Note_on_c, 6, 55, 95
4, 146880, Note_on_c, 6, 52, 95
4, 146880, Note_on_c, 6, 48, 95
4, 147360, Note_off_c, 6, 64, 95
4, 147360, Note_off_c, 6, 60, 95
4, 147360, Note_off_c, 6, 55, 95
4, 147360, Note_off_c, 6, 52, 95
4, 147360, Note_off_c, 6, 48, 95
4, 147360, Note_on_c, 6, 69, 95
4, 147360, Note_on_c, 6, 65, 95
4, 147360, Note_on_c, 6, 60, 95
4, 147360, Note_on_c, 6, 57, 95
4, 147360, Note_on_c, 6, 53, 95
4, 147840, Note_off_c, 6, 69, 95
4, 147840, Note_off_c, 6, 65, 95
4, 147840, Note_off_c, 6, 60, 95
4, 147840, Note_off_c, 6, 57, 95
4, 147840, Note_off_c, 6, 53, 95
4, 147840, Note_on_c, 6, 69, 95
4, 147840, Note_on_c, 6, 65, 95
4, 147840, Note_on_c, 6, 60, 95
4, 147840, Note_on_c, 6, 57, 95
4, 147840, Note_on_c, 6, 53, 95
4, 148320, Note_off_c, 6, 69, 95
4, 148320, Note_off_c, 6, 65, 95
4, 148320, Note_off_c, 6, 60, 95
4, 148320, Note_off_c, 6, 57, 95
4, 148320, Note_off_c, 6, 53, 95
4, 148320, Note_on_c, 6, 69, 95
4, 148320, Note_on_c, 6, 65, 95
4, 148320, Note_on_c, 6, 60, 95
4, 148320, Note_on_c, 6, 57, 95
4, 148320, Note_on_c, 6, 53, 95
4, 148800, Note_off_c, 6, 69, 95
4, 148800, Note_off_c, 6, 65, 95
4, 148800, Note_off_c, 6, 60, 95
4, 148800, Note_off_c, 6, 57, 95
4, 148800, Note_off_c, 6, 53, 95
4, 148800, Note_on_c, 6, 64, 95
4, 148800, Note_on_c, 6, 60, 95
4, 148800, Note_on_c, 6, 55, 95
4, 148800, Note_on_c, 6, 52, 95
4, 148800, Note_on_c, 6, 48, 95
4, 149280, Note_off_c, 6, 64, 95
4, 149280, Note_off_c, 6, 60, 95
4, 149280, Note_off_c, 6, 55, 95
4, 149280, Note_off_c, 6, 52, 95
4, 149280, Note_off_c, 6, 48, 95
4, 149280, Note_on_c, 6, 69, 95
4, 149280, Note_on_c, 6, 65, 95
4, 149280, Note_on_c, 6, 60, 95
4, 149280, Note_on_c, 6, 57, 95
4, 149280, Note_on_c, 6, 53, 95
4, 149760, Note_off_c, 6, 69, 95
4, 149760, Note_off_c, 6, 65, 95
4, 149760, Note_off_c, 6, 60, 95
4, 149760, Note_off_c, 6, 57, 95
4, 149760, Note_off_c, 6, 53, 95
4, 149760, Note_on_c, 6, 69, 95
4, 149760, Note_on_c, 6, 65, 95
4, 149760, Note_on_c, 6, 60, 95
4, 149760, Note_on_c, 6, 57, 95
4, 149760, Note_on_c, 6, 53, 95
4, 150240, Note_off_c, 6, 69, 95
4, 150240, Note_off_c, 6, 65, 95
4, 150240, Note_off_c, 6, 60, 95
4, 150240, Note_off_c, 6, 57, 95
4, 150240, Note_off_c, 6, 53, 95
4, 150240, Note_on_c, 6, 69, 95
4, 150240, Note_on_c, 6, 65, 95
4, 150240, Note_on_c, 6, 60, 95
4, 150240, Note_on_c, 6, 57, 95
4, 150240, Note_on_c, 6, 53, 95
4, 150720, Note_off_c, 6, 69, 95
4, 150720, Note_off_c, 6, 65, 95
4, 150720, Note_off_c, 6, 60, 95
4, 150720, Note_off_c, 6, 57, 95
4, 150720, Note_off_c, 6, 53, 95
4, 150720, Note_on_c, 6, 64, 95
4, 150720, Note_on_c, 6, 60, 95
4, 150720, Note_on_c, 6, 55, 95
4, 150720, Note_on_c, 6, 52, 95
4, 150720, Note_on_c, 6, 48, 95
4, 151200, Note_off_c, 6, 64, 95
4, 151200, Note_off_c, 6, 60, 95
4, 151200, Note_off_c, 6, 55, 95
4, 151200, Note_off_c, 6, 52, 95
4, 151200, Note_off_c, 6, 48, 95
4, 151200, Note_on_c, 6, 69, 95
4, 151200, Note_on_c, 6, 65, 95
4, 151200, Note_on_c, 6, 60, 95
4, 151200, Note_on_c, 6, 57, 95
4, 151200, Note_on_c, 6, 53, 95
4, 152160, Note_off_c, 6, 69, 95
4, 152160, Note_off_c, 6, 65, 95
4, 152160, Note_off_c, 6, 60, 95
4, 152160, Note_off_c, 6, 57, 95
4, 152160, Note_off_c, 6, 53, 95
4, 152160, Note_on_c, 6, 69, 95
4, 152160, Note_on_c, 6, 65, 95
4, 152160, Note_on_c, 6, 60, 95
4, 152160, Note_on_c, 6, 57, 95
4, 152160, Note_on_c, 6, 53, 95
4, 152640, Note_off_c, 6, 69, 95
4, 152640, Note_off_c, 6, 65, 95
4, 152640, Note_off_c, 6, 60, 95
4, 152640, Note_off_c, 6, 57, 95
4, 152640, Note_off_c, 6, 53, 95
4, 152640, Note_on_c, 6, 64, 95
4, 152640, Note_on_c, 6, 60, 95
4, 152640, Note_on_c, 6, 55, 95
4, 152640, Note_on_c, 6, 52, 95
4, 152640, Note_on_c, 6, 48, 95
4, 153120, Note_off_c, 6, 64, 95
4, 153120, Note_off_c, 6, 60, 95
4, 153120, Note_off_c, 6, 55, 95
4, 153120, Note_off_c, 6, 52, 95
4, 153120, Note_off_c, 6, 48, 95
4, 153120, Note_on_c, 6, 69, 95
4, 153120, Note_on_c, 6, 65, 95
4, 153120, Note_on_c, 6, 60, 95
4, 153120, Note_on_c, 6, 57, 95
4, 153120, Note_on_c, 6, 53, 95
4, 153600, Note_off_c, 6, 69, 95
4, 153600, Note_off_c, 6, 65, 95
4, 153600, Note_off_c, 6, 60, 95
4, 153600, Note_off_c, 6, 57, 95
4, 153600, Note_off_c, 6, 53, 95
4, 153600, Note_on_c, 6, 69, 95
4, 153600, Note_on_c, 6, 65, 95
4, 153600, Note_on_c, 6, 60, 95
4, 153600, Note_on_c, 6, 57, 95
4, 153600, Note_on_c, 6, 53, 95
4, 154080, Note_off_c, 6, 69, 95
4, 154080, Note_off_c, 6, 65, 95
4, 154080, Note_off_c, 6, 60, 95
4, 154080, Note_off_c, 6, 57, 95
4, 154080, Note_off_c, 6, 53, 95
4, 154080, Note_on_c, 6, 69, 95
4, 154080, Note_on_c, 6, 65, 95
4, 154080, Note_on_c, 6, 60, 95
4, 154080, Note_on_c, 6, 57, 95
4, 154080, Note_on_c, 6, 53, 95
4, 154560, Note_off_c, 6, 69, 95
4, 154560, Note_off_c, 6, 65, 95
4, 154560, Note_off_c, 6, 60, 95
4, 154560, Note_off_c, 6, 57, 95
4, 154560, Note_off_c, 6, 53, 95
4, 154560, Note_on_c, 6, 69, 95
4, 154560, Note_on_c, 6, 65, 95
4, 154560, Note_on_c, 6, 60, 95
4, 154560, Note_on_c, 6, 57, 95
4, 154560, Note_on_c, 6, 53, 95
4, 155040, Note_off_c, 6, 69, 95
4, 155040, Note_off_c, 6, 65, 95
4, 155040, Note_off_c, 6, 60, 95
4, 155040, Note_off_c, 6, 57, 95
4, 155040, Note_off_c, 6, 53, 95
4, 155040, Note_on_c, 6, 64, 95
4, 155040, Note_on_c, 6, 60, 95
4, 155040, Note_on_c, 6, 55, 95
4, 155040, Note_on_c, 6, 52, 95
4, 155040, Note_on_c, 6, 48, 95
4, 155520, Note_off_c, 6, 64, 95
4, 155520, Note_off_c, 6, 60, 95
4, 155520, Note_off_c, 6, 55, 95
4, 155520, Note_off_c, 6, 52, 95
4, 155520, Note_off_c, 6, 48, 95
4, 155520, Note_on_c, 6, 64, 95
4, 155520, Note_on_c, 6, 60, 95
4, 155520, Note_on_c, 6, 55, 95
4, 155520, Note_on_c, 6, 52, 95
4, 155520, Note_on_c, 6, 48, 95
4, 156000, Note_off_c, 6, 64, 95
4, 156000, Note_off_c, 6, 60, 95
4, 156000, Note_off_c, 6, 55, 95
4, 156000, Note_off_c, 6, 52, 95
4, 156000, Note_off_c, 6, 48, 95
4, 156000, Note_on_c, 6, 64, 95
4, 156000, Note_on_c, 6, 60, 95
4, 156000, Note_on_c, 6, 55, 95
4, 156000, Note_on_c, 6, 52, 95
4, 156000, Note_on_c, 6, 48, 95
4, 156480, Note_off_c, 6, 64, 95
4, 156480, Note_off_c, 6, 60, 95
4, 156480, Note_off_c, 6, 55, 95
4, 156480, Note_off_c, 6, 52, 95
4, 156480, Note_off_c, 6, 48, 95
4, 156480, Note_on_c, 6, 64, 95
4, 156480, Note_on_c, 6, 60, 95
4, 156480, Note_on_c, 6, 55, 95
4, 156480, Note_on_c, 6, 52, 95
4, 156480, Note_on_c, 6, 48, 95
4, 156960, Note_off_c, 6, 64, 95
4, 156960, Note_off_c, 6, 60, 95
4, 156960, Note_off_c, 6, 55, 95
4, 156960, Note_off_c, 6, 52, 95
4, 156960, Note_off_c, 6, 48, 95
4, 156960, Note_on_c, 6, 64, 95
4, 156960, Note_on_c, 6, 60, 95
4, 156960, Note_on_c, 6, 55, 95
4, 156960, Note_on_c, 6, 52, 95
4, 156960, Note_on_c, 6, 48, 95
4, 157440, Note_off_c, 6, 64, 95
4, 157440, Note_off_c, 6, 60, 95
4, 157440, Note_off_c, 6, 55, 95
4, 157440, Note_off_c, 6, 52, 95
4, 157440, Note_off_c, 6, 48, 95
4, 157440, Note_on_c, 6, 69, 95
4, 157440, Note_on_c, 6, 65, 95
4, 157440, Note_on_c, 6, 60, 95
4, 157440, Note_on_c, 6, 57, 95
4, 157440, Note_on_c, 6, 53, 95
4, 157920, Note_off_c, 6, 69, 95
4, 157920, Note_off_c, 6, 65, 95
4, 157920, Note_off_c, 6, 60, 95
4, 157920, Note_off_c, 6, 57, 95
4, 157920, Note_off_c, 6, 53, 95
4, 157920, Note_on_c, 6, 69, 95
4, 157920, Note_on_c, 6, 65, 95
4, 157920, Note_on_c, 6, 60, 95
4, 157920, Note_on_c, 6, 57, 95
4, 157920, Note_on_c, 6, 53, 95
4, 158400, Note_off_c, 6, 69, 95
4, 158400, Note_off_c, 6, 65, 95
4, 158400, Note_off_c, 6, 60, 95
4, 158400, Note_off_c, 6, 57, 95
4, 158400, Note_off_c, 6, 53, 95
4, 158400, Note_on_c, 6, 69, 95
4, 158400, Note_on_c, 6, 65, 95
4, 158400, Note_on_c, 6, 60, 95
4, 158400, Note_on_c, 6, 57, 95
4, 158400, Note_on_c, 6, 53, 95
4, 158880, Note_off_c, 6, 69, 95
4, 158880, Note_off_c, 6, 65, 95
4, 158880, Note_off_c, 6, 60, 95
4, 158880, Note_off_c, 6, 57, 95
4, 158880, Note_off_c, 6, 53, 95
4, 158880, Note_on_c, 6, 69, 95
4, 158880, Note_on_c, 6, 65, 95
4, 158880, Note_on_c, 6, 60, 95
4, 158880, Note_on_c, 6, 57, 95
4, 158880, Note_on_c, 6, 53, 95
4, 159360, Note_off_c, 6, 69, 95
4, 159360, Note_off_c, 6, 65, 95
4, 159360, Note_off_c, 6, 60, 95
4, 159360, Note_off_c, 6, 57, 95
4, 159360, Note_off_c, 6, 53, 95
4, 159360, Note_on_c, 6, 69, 95
4, 159360, Note_on_c, 6, 65, 95
4, 159360, Note_on_c, 6, 60, 95
4, 159360, Note_on_c, 6, 57, 95
4, 159360, Note_on_c, 6, 53, 95
4, 159840, Note_off_c, 6, 69, 95
4, 159840, Note_off_c, 6, 65, 95
4, 159840, Note_off_c, 6, 60, 95
4, 159840, Note_off_c, 6, 57, 95
4, 159840, Note_off_c, 6, 53, 95
4, 159840, Note_on_c, 6, 60, 95
4, 160320, Note_off_c, 6, 60, 95
4, 160320, Note_on_c, 6, 61, 95
4, 160800, Note_off_c, 6, 61, 95
4, 160800, Note_on_c, 6, 71, 95
4, 160800, Note_on_c, 6, 67, 95
4, 160800, Note_on_c, 6, 62, 95
4, 160800, Note_on_c, 6, 55, 95
4, 161760, Note_off_c, 6, 71, 95
4, 161760, Note_off_c, 6, 67, 95
4, 161760, Note_off_c, 6, 62, 95
4, 161760, Note_off_c, 6, 55, 95
4, 161760, Note_on_c, 6, 71, 95
4, 161760, Note_on_c, 6, 67, 95
4, 161760, Note_on_c, 6, 62, 95
4, 161760, Note_on_c, 6, 55, 95
4, 162240, Note_off_c, 6, 71, 95
4, 162240, Note_off_c, 6, 67, 95
4, 162240, Note_off_c, 6, 62, 95
4, 162240, Note_off_c, 6, 55, 95
4, 162240, Note_on_c, 6, 71, 95
4, 162240, Note_on_c, 6, 67, 95
4, 162240, Note_on_c, 6, 62, 95
4, 162240, Note_on_c, 6, 55, 95
4, 162720, Note_off_c, 6, 71, 95
4, 162720, Note_off_c, 6, 67, 95
4, 162720, Note_off_c, 6, 62, 95
4, 162720, Note_off_c, 6, 55, 95
4, 162720, Note_on_c, 6, 71, 95
4, 162720, Note_on_c, 6, 67, 95
4, 162720, Note_on_c, 6, 62, 95
4, 162720, Note_on_c, 6, 55, 95
4, 163200, Note_off_c, 6, 71, 95
4, 163200, Note_off_c, 6, 67, 95
4, 163200, Note_off_c, 6, 62, 95
4, 163200, Note_off_c, 6, 55, 95
4, 163200, Note_on_c, 6, 71, 95
4, 163200, Note_on_c, 6, 67, 95
4, 163200, Note_on_c, 6, 62, 95
4, 163200, Note_on_c, 6, 55, 95
4, 163680, Note_off_c, 6, 71, 95
4, 163680, Note_off_c, 6, 67, 95
4, 163680, Note_off_c, 6, 62, 95
4, 163680, Note_off_c, 6, 55, 95
4, 163680, Note_on_c, 6, 71, 95
4, 163680, Note_on_c, 6, 67, 95
4, 163680, Note_on_c, 6, 62, 95
4, 163680, Note_on_c, 6, 55, 95
4, 164160, Note_off_c, 6, 71, 95
4, 164160, Note_off_c, 6, 67, 95
4, 164160, Note_off_c, 6, 62, 95
4, 164160, Note_off_c, 6, 55, 95
4, 164160, Note_on_c, 6, 71, 95
4, 164160, Note_on_c, 6, 67, 95
4, 164160, Note_on_c, 6, 62, 95
4, 164160, Note_on_c, 6, 55, 95
4, 164640, Note_off_c, 6, 71, 95
4, 164640, Note_off_c, 6, 67, 95
4, 164640, Note_off_c, 6, 62, 95
4, 164640, Note_off_c, 6, 55, 95
4, 164640, Note_on_c, 6, 71, 95
4, 164640, Note_on_c, 6, 67, 95
4, 164640, Note_on_c, 6, 62, 95
4, 164640, Note_on_c, 6, 55, 95
4, 165120, Note_off_c, 6, 71, 95
4, 165120, Note_off_c, 6, 67, 95
4, 165120, Note_off_c, 6, 62, 95
4, 165120, Note_off_c, 6, 55, 95
4, 165120, Note_on_c, 6, 72, 95
4, 165120, Note_on_c, 6, 64, 95
4, 165120, Note_on_c, 6, 60, 95
4, 165120, Note_on_c, 6, 55, 95
4, 165120, Note_on_c, 6, 52, 95
4, 165120, Note_on_c, 6, 48, 95
4, 165600, Note_off_c, 6, 72, 95
4, 165600, Note_off_c, 6, 64, 95
4, 165600, Note_off_c, 6, 60, 95
4, 165600, Note_off_c, 6, 55, 95
4, 165600, Note_off_c, 6, 52, 95
4, 165600, Note_off_c, 6, 48, 95
4, 165600, Note_on_c, 6, 72, 95
4, 165600, Note_on_c, 6, 64, 95
4, 165600, Note_on_c, 6, 60, 95
4, 165600, Note_on_c, 6, 55, 95
4, 165600, Note_on_c, 6, 52, 95
4, 165600, Note_on_c, 6, 48, 95
4, 166080, Note_off_c, 6, 72, 95
4, 166080, Note_off_c, 6, 64, 95
4, 166080, Note_off_c, 6, 60, 95
4, 166080, Note_off_c, 6, 55, 95
4, 166080, Note_off_c, 6, 52, 95
4, 166080, Note_off_c, 6, 48, 95
4, 166080, Note_on_c, 6, 72, 95
4, 166080, Note_on_c, 6, 64, 95
4, 166080, Note_on_c, 6, 60, 95
4, 166080, Note_on_c, 6, 55, 95
4, 166080, Note_on_c, 6, 52, 95
4, 166080, Note_on_c, 6, 48, 95
4, 166560, Note_off_c, 6, 72, 95
4, 166560, Note_off_c, 6, 64, 95
4, 166560, Note_off_c, 6, 60, 95
4, 166560, Note_off_c, 6, 55, 95
4, 166560, Note_off_c, 6, 52, 95
4, 166560, Note_off_c, 6, 48, 95
4, 166560, Note_on_c, 6, 72, 95
4, 166560, Note_on_c, 6, 64, 95
4, 166560, Note_on_c, 6, 60, 95
4, 166560, Note_on_c, 6, 55, 95
4, 166560, Note_on_c, 6, 52, 95
4, 166560, Note_on_c, 6, 48, 95
4, 167040, Note_off_c, 6, 72, 95
4, 167040, Note_off_c, 6, 64, 95
4, 167040, Note_off_c, 6, 60, 95
4, 167040, Note_off_c, 6, 55, 95
4, 167040, Note_off_c, 6, 52, 95
4, 167040, Note_off_c, 6, 48, 95
4, 167040, Note_on_c, 6, 72, 95
4, 167040, Note_on_c, 6, 64, 95
4, 167040, Note_on_c, 6, 60, 95
4, 167040, Note_on_c, 6, 55, 95
4, 167040, Note_on_c, 6, 52, 95
4, 167040, Note_on_c, 6, 48, 95
4, 167520, Note_off_c, 6, 72, 95
4, 167520, Note_off_c, 6, 64, 95
4, 167520, Note_off_c, 6, 60, 95
4, 167520, Note_off_c, 6, 55, 95
4, 167520, Note_off_c, 6, 52, 95
4, 167520, Note_off_c, 6, 48, 95
4, 167520, Note_on_c, 6, 72, 95
4, 167520, Note_on_c, 6, 64, 95
4, 167520, Note_on_c, 6, 60, 95
4, 167520, Note_on_c, 6, 55, 95
4, 167520, Note_on_c, 6, 52, 95
4, 167520, Note_on_c, 6, 48, 95
4, 168000, Note_off_c, 6, 72, 95
4, 168000, Note_off_c, 6, 64, 95
4, 168000, Note_off_c, 6, 60, 95
4, 168000, Note_off_c, 6, 55, 95
4, 168000, Note_off_c, 6, 52, 95
4, 168000, Note_off_c, 6, 48, 95
4, 168000, Note_on_c, 6, 72, 95
4, 168000, Note_on_c, 6, 64, 95
4, 168000, Note_on_c, 6, 60, 95
4, 168000, Note_on_c, 6, 55, 95
4, 168000, Note_on_c, 6, 52, 95
4, 168000, Note_on_c, 6, 48, 95
4, 168480, Note_off_c, 6, 72, 95
4, 168480, Note_off_c, 6, 64, 95
4, 168480, Note_off_c, 6, 60, 95
4, 168480, Note_off_c, 6, 55, 95
4, 168480, Note_off_c, 6, 52, 95
4, 168480, Note_off_c, 6, 48, 95
4, 168480, Note_on_c, 6, 72, 95
4, 168480, Note_on_c, 6, 64, 95
4, 168480, Note_on_c, 6, 60, 95
4, 168480, Note_on_c, 6, 55, 95
4, 168480, Note_on_c, 6, 52, 95
4, 168480, Note_on_c, 6, 48, 95
4, 168960, Note_off_c, 6, 72, 95
4, 168960, Note_off_c, 6, 64, 95
4, 168960, Note_off_c, 6, 60, 95
4, 168960, Note_off_c, 6, 55, 95
4, 168960, Note_off_c, 6, 52, 95
4, 168960, Note_off_c, 6, 48, 95
4, 168960, Note_on_c, 6, 71, 95
4, 168960, Note_on_c, 6, 67, 95
4, 168960, Note_on_c, 6, 62, 95
4, 168960, Note_on_c, 6, 55, 95
4, 169440, Note_off_c, 6, 71, 95
4, 169440, Note_off_c, 6, 67, 95
4, 169440, Note_off_c, 6, 62, 95
4, 169440, Note_off_c, 6, 55, 95
4, 169440, Note_on_c, 6, 71, 95
4, 169440, Note_on_c, 6, 67, 95
4, 169440, Note_on_c, 6, 62, 95
4, 169440, Note_on_c, 6, 55, 95
4, 169920, Note_off_c, 6, 71, 95
4, 169920, Note_off_c, 6, 67, 95
4, 169920, Note_off_c, 6, 62, 95
4, 169920, Note_off_c, 6, 55, 95
4, 169920, Note_on_c, 6, 71, 95
4, 169920, Note_on_c, 6, 67, 95
4, 169920, Note_on_c, 6, 62, 95
4, 169920, Note_on_c, 6, 55, 95
4, 170400, Note_off_c, 6, 71, 95
4, 170400, Note_off_c, 6, 67, 95
4, 170400, Note_off_c, 6, 62, 95
4, 170400, Note_off_c, 6, 55, 95
4, 170400, Note_on_c, 6, 71, 95
4, 170400, Note_on_c, 6, 67, 95
4, 170400, Note_on_c, 6, 62, 95
4, 170400, Note_on_c, 6, 55, 95
4, 170880, Note_off_c, 6, 71, 95
4, 170880, Note_off_c, 6, 67, 95
4, 170880, Note_off_c, 6, 62, 95
4, 170880, Note_off_c, 6, 55, 95
4, 170880, Note_on_c, 6, 71, 95
4, 170880, Note_on_c, 6, 67, 95
4, 170880, Note_on_c, 6, 62, 95
4, 170880, Note_on_c, 6, 55, 95
4, 171360, Note_off_c, 6, 71, 95
4, 171360, Note_off_c, 6, 67, 95
4, 171360, Note_off_c, 6, 62, 95
4, 171360, Note_off_c, 6, 55, 95
4, 171360, Note_on_c, 6, 71, 95
4, 171360, Note_on_c, 6, 67, 95
4, 171360, Note_on_c, 6, 62, 95
4, 171360, Note_on_c, 6, 55, 95
4, 171840, Note_off_c, 6, 71, 95
4, 171840, Note_off_c, 6, 67, 95
4, 171840, Note_off_c, 6, 62, 95
4, 171840, Note_off_c, 6, 55, 95
4, 171840, Note_on_c, 6, 71, 95
4, 171840, Note_on_c, 6, 67, 95
4, 171840, Note_on_c, 6, 62, 95
4, 171840, Note_on_c, 6, 55, 95
4, 172320, Note_off_c, 6, 71, 95
4, 172320, Note_off_c, 6, 67, 95
4, 172320, Note_off_c, 6, 62, 95
4, 172320, Note_off_c, 6, 55, 95
4, 172320, Note_on_c, 6, 71, 95
4, 172320, Note_on_c, 6, 67, 95
4, 172320, Note_on_c, 6, 62, 95
4, 172320, Note_on_c, 6, 55, 95
4, 172800, Note_off_c, 6, 71, 95
4, 172800, Note_off_c, 6, 67, 95
4, 172800, Note_off_c, 6, 62, 95
4, 172800, Note_off_c, 6, 55, 95
4, 172800, Note_on_c, 6, 72, 95
4, 172800, Note_on_c, 6, 64, 95
4, 172800, Note_on_c, 6, 60, 95
4, 172800, Note_on_c, 6, 55, 95
4, 172800, Note_on_c, 6, 52, 95
4, 172800, Note_on_c, 6, 48, 95
4, 173280, Note_off_c, 6, 72, 95
4, 173280, Note_off_c, 6, 64, 95
4, 173280, Note_off_c, 6, 60, 95
4, 173280, Note_off_c, 6, 55, 95
4, 173280, Note_off_c, 6, 52, 95
4, 173280, Note_off_c, 6, 48, 95
4, 173280, Note_on_c, 6, 72, 95
4, 173280, Note_on_c, 6, 64, 95
4, 173280, Note_on_c, 6, 60, 95
4, 173280, Note_on_c, 6, 55, 95
4, 173280, Note_on_c, 6, 52, 95
4, 173280, Note_on_c, 6, 48, 95
4, 173760, Note_off_c, 6, 72, 95
4, 173760, Note_off_c, 6, 64, 95
4, 173760, Note_off_c, 6, 60, 95
4, 173760, Note_off_c, 6, 55, 95
4, 173760, Note_off_c, 6, 52, 95
4, 173760, Note_off_c, 6, 48, 95
4, 173760, Note_on_c, 6, 72, 95
4, 173760, Note_on_c, 6, 64, 95
4, 173760, Note_on_c, 6, 60, 95
4, 173760, Note_on_c, 6, 55, 95
4, 173760, Note_on_c, 6, 52, 95
4, 173760, Note_on_c, 6, 48, 95
4, 174240, Note_off_c, 6, 72, 95
4, 174240, Note_off_c, 6, 64, 95
4, 174240, Note_off_c, 6, 60, 95
4, 174240, Note_off_c, 6, 55, 95
4, 174240, Note_off_c, 6, 52, 95
4, 174240, Note_off_c, 6, 48, 95
4, 174240, Note_on_c, 6, 72, 95
4, 174240, Note_on_c, 6, 64, 95
4, 174240, Note_on_c, 6, 60, 95
4, 174240, Note_on_c, 6, 55, 95
4, 174240, Note_on_c, 6, 52, 95
4, 174240, Note_on_c, 6, 48, 95
4, 174720, Note_off_c, 6, 72, 95
4, 174720, Note_off_c, 6, 64, 95
4, 174720, Note_off_c, 6, 60, 95
4, 174720, Note_off_c, 6, 55, 95
4, 174720, Note_off_c, 6, 52, 95
4, 174720, Note_off_c, 6, 48, 95
4, 174720, Note_on_c, 6, 72, 95
4, 174720, Note_on_c, 6, 64, 95
4, 174720, Note_on_c, 6, 60, 95
4, 174720, Note_on_c, 6, 55, 95
4, 174720, Note_on_c, 6, 52, 95
4, 174720, Note_on_c, 6, 48, 95
4, 175200, Note_off_c, 6, 72, 95
4, 175200, Note_off_c, 6, 64, 95
4, 175200, Note_off_c, 6, 60, 95
4, 175200, Note_off_c, 6, 55, 95
4, 175200, Note_off_c, 6, 52, 95
4, 175200, Note_off_c, 6, 48, 95
4, 175200, Note_on_c, 6, 72, 95
4, 175200, Note_on_c, 6, 64, 95
4, 175200, Note_on_c, 6, 60, 95
4, 175200, Note_on_c, 6, 55, 95
4, 175200, Note_on_c, 6, 52, 95
4, 175200, Note_on_c, 6, 48, 95
4, 175680, Note_off_c, 6, 72, 95
4, 175680, Note_off_c, 6, 64, 95
4, 175680, Note_off_c, 6, 60, 95
4, 175680, Note_off_c, 6, 55, 95
4, 175680, Note_off_c, 6, 52, 95
4, 175680, Note_off_c, 6, 48, 95
4, 175680, Note_on_c, 6, 72, 95
4, 175680, Note_on_c, 6, 64, 95
4, 175680, Note_on_c, 6, 60, 95
4, 175680, Note_on_c, 6, 55, 95
4, 175680, Note_on_c, 6, 52, 95
4, 175680, Note_on_c, 6, 48, 95
4, 176160, Note_off_c, 6, 72, 95
4, 176160, Note_off_c, 6, 64, 95
4, 176160, Note_off_c, 6, 60, 95
4, 176160, Note_off_c, 6, 55, 95
4, 176160, Note_off_c, 6, 52, 95
4, 176160, Note_off_c, 6, 48, 95
4, 176160, Note_on_c, 6, 72, 95
4, 176160, Note_on_c, 6, 64, 95
4, 176160, Note_on_c, 6, 60, 95
4, 176160, Note_on_c, 6, 55, 95
4, 176160, Note_on_c, 6, 52, 95
4, 176160, Note_on_c, 6, 48, 95
4, 176640, Note_off_c, 6, 72, 95
4, 176640, Note_off_c, 6, 64, 95
4, 176640, Note_off_c, 6, 60, 95
4, 176640, Note_off_c, 6, 55, 95
4, 176640, Note_off_c, 6, 52, 95
4, 176640, Note_off_c, 6, 48, 95
4, 176640, Note_on_c, 6, 71, 95
4, 176640, Note_on_c, 6, 67, 95
4, 176640, Note_on_c, 6, 62, 95
4, 176640, Note_on_c, 6, 55, 95
4, 177120, Note_off_c, 6, 71, 95
4, 177120, Note_off_c, 6, 67, 95
4, 177120, Note_off_c, 6, 62, 95
4, 177120, Note_off_c, 6, 55, 95
4, 177120, Note_on_c, 6, 71, 95
4, 177120, Note_on_c, 6, 67, 95
4, 177120, Note_on_c, 6, 62, 95
4, 177120, Note_on_c, 6, 55, 95
4, 177600, Note_off_c, 6, 71, 95
4, 177600, Note_off_c, 6, 67, 95
4, 177600, Note_off_c, 6, 62, 95
4, 177600, Note_off_c, 6, 55, 95
4, 177600, Note_on_c, 6, 71, 95
4, 177600, Note_on_c, 6, 67, 95
4, 177600, Note_on_c, 6, 62, 95
4, 177600, Note_on_c, 6, 55, 95
4, 178080, Note_off_c, 6, 71, 95
4, 178080, Note_off_c, 6, 67, 95
4, 178080, Note_off_c, 6, 62, 95
4, 178080, Note_off_c, 6, 55, 95
4, 178080, Note_on_c, 6, 71, 95
4, 178080, Note_on_c, 6, 67, 95
4, 178080, Note_on_c, 6, 62, 95
4, 178080, Note_on_c, 6, 55, 95
4, 178560, Note_off_c, 6, 71, 95
4, 178560, Note_off_c, 6, 67, 95
4, 178560, Note_off_c, 6, 62, 95
4, 178560, Note_off_c, 6, 55, 95
4, 178560, Note_on_c, 6, 71, 95
4, 178560, Note_on_c, 6, 67, 95
4, 178560, Note_on_c, 6, 62, 95
4, 178560, Note_on_c, 6, 55, 95
4, 179040, Note_off_c, 6, 71, 95
4, 179040, Note_off_c, 6, 67, 95
4, 179040, Note_off_c, 6, 62, 95
4, 179040, Note_off_c, 6, 55, 95
4, 179040, Note_on_c, 6, 71, 95
4, 179040, Note_on_c, 6, 67, 95
4, 179040, Note_on_c, 6, 62, 95
4, 179040, Note_on_c, 6, 55, 95
4, 179520, Note_off_c, 6, 71, 95
4, 179520, Note_off_c, 6, 67, 95
4, 179520, Note_off_c, 6, 62, 95
4, 179520, Note_off_c, 6, 55, 95
4, 179520, Note_on_c, 6, 71, 95
4, 179520, Note_on_c, 6, 67, 95
4, 179520, Note_on_c, 6, 62, 95
4, 179520, Note_on_c, 6, 55, 95
4, 180000, Note_off_c, 6, 71, 95
4, 180000, Note_off_c, 6, 67, 95
4, 180000, Note_off_c, 6, 62, 95
4, 180000, Note_off_c, 6, 55, 95
4, 180000, Note_on_c, 6, 71, 95
4, 180000, Note_on_c, 6, 67, 95
4, 180000, Note_on_c, 6, 62, 95
4, 180000, Note_on_c, 6, 55, 95
4, 180480, Note_off_c, 6, 71, 95
4, 180480, Note_off_c, 6, 67, 95
4, 180480, Note_off_c, 6, 62, 95
4, 180480, Note_off_c, 6, 55, 95
4, 180480, Note_on_c, 6, 72, 95
4, 180480, Note_on_c, 6, 64, 95
4, 180480, Note_on_c, 6, 60, 95
4, 180480, Note_on_c, 6, 55, 95
4, 180480, Note_on_c, 6, 52, 95
4, 180480, Note_on_c, 6, 48, 95
4, 180960, Note_off_c, 6, 72, 95
4, 180960, Note_off_c, 6, 64, 95
4, 180960, Note_off_c, 6, 60, 95
4, 180960, Note_off_c, 6, 55, 95
4, 180960, Note_off_c, 6, 52, 95
4, 180960, Note_off_c, 6, 48, 95
4, 180960, Note_on_c, 6, 72, 95
4, 180960, Note_on_c, 6, 64, 95
4, 180960, Note_on_c, 6, 60, 95
4, 180960, Note_on_c, 6, 55, 95
4, 180960, Note_on_c, 6, 52, 95
4, 180960, Note_on_c, 6, 48, 95
4, 181440, Note_off_c, 6, 72, 95
4, 181440, Note_off_c, 6, 64, 95
4, 181440, Note_off_c, 6, 60, 95
4, 181440, Note_off_c, 6, 55, 95
4, 181440, Note_off_c, 6, 52, 95
4, 181440, Note_off_c, 6, 48, 95
4, 181440, Note_on_c, 6, 72, 95
4, 181440, Note_on_c, 6, 64, 95
4, 181440, Note_on_c, 6, 60, 95
4, 181440, Note_on_c, 6, 55, 95
4, 181440, Note_on_c, 6, 52, 95
4, 181440, Note_on_c, 6, 48, 95
4, 181920, Note_off_c, 6, 72, 95
4, 181920, Note_off_c, 6, 64, 95
4, 181920, Note_off_c, 6, 60, 95
4, 181920, Note_off_c, 6, 55, 95
4, 181920, Note_off_c, 6, 52, 95
4, 181920, Note_off_c, 6, 48, 95
4, 181920, Note_on_c, 6, 72, 95
4, 181920, Note_on_c, 6, 64, 95
4, 181920, Note_on_c, 6, 60, 95
4, 181920, Note_on_c, 6, 55, 95
4, 181920, Note_on_c, 6, 52, 95
4, 181920, Note_on_c, 6, 48, 95
4, 182400, Note_off_c, 6, 72, 95
4, 182400, Note_off_c, 6, 64, 95
4, 182400, Note_off_c, 6, 60, 95
4, 182400, Note_off_c, 6, 55, 95
4, 182400, Note_off_c, 6, 52, 95
4, 182400, Note_off_c, 6, 48, 95
4, 182400, Note_on_c, 6, 72, 95
4, 182400, Note_on_c, 6, 64, 95
4, 182400, Note_on_c, 6, 60, 95
4, 182400, Note_on_c, 6, 55, 95
4, 182400, Note_on_c, 6, 52, 95
4, 182400, Note_on_c, 6, 48, 95
4, 182880, Note_off_c, 6, 72, 95
4, 182880, Note_off_c, 6, 64, 95
4, 182880, Note_off_c, 6, 60, 95
4, 182880, Note_off_c, 6, 55, 95
4, 182880, Note_off_c, 6, 52, 95
4, 182880, Note_off_c, 6, 48, 95
4, 182880, Note_on_c, 6, 72, 95
4, 182880, Note_on_c, 6, 64, 95
4, 182880, Note_on_c, 6, 60, 95
4, 182880, Note_on_c, 6, 55, 95
4, 182880, Note_on_c, 6, 52, 95
4, 182880, Note_on_c, 6, 48, 95
4, 183360, Note_off_c, 6, 72, 95
4, 183360, Note_off_c, 6, 64, 95
4, 183360, Note_off_c, 6, 60, 95
4, 183360, Note_off_c, 6, 55, 95
4, 183360, Note_off_c, 6, 52, 95
4, 183360, Note_off_c, 6, 48, 95
4, 183360, Note_on_c, 6, 72, 95
4, 183360, Note_on_c, 6, 64, 95
4, 183360, Note_on_c, 6, 60, 95
4, 183360, Note_on_c, 6, 55, 95
4, 183360, Note_on_c, 6, 52, 95
4, 183360, Note_on_c, 6, 48, 95
4, 183840, Note_off_c, 6, 72, 95
4, 183840, Note_off_c, 6, 64, 95
4, 183840, Note_off_c, 6, 60, 95
4, 183840, Note_off_c, 6, 55, 95
4, 183840, Note_off_c, 6, 52, 95
4, 183840, Note_off_c, 6, 48, 95
4, 183840, Note_on_c, 6, 72, 95
4, 183840, Note_on_c, 6, 64, 95
4, 183840, Note_on_c, 6, 60, 95
4, 183840, Note_on_c, 6, 55, 95
4, 183840, Note_on_c, 6, 52, 95
4, 183840, Note_on_c, 6, 48, 95
4, 184320, Note_off_c, 6, 72, 95
4, 184320, Note_off_c, 6, 64, 95
4, 184320, Note_off_c, 6, 60, 95
4, 184320, Note_off_c, 6, 55, 95
4, 184320, Note_off_c, 6, 52, 95
4, 184320, Note_off_c, 6, 48, 95
4, 184320, Note_on_c, 6, 71, 95
4, 184320, Note_on_c, 6, 67, 95
4, 184320, Note_on_c, 6, 62, 95
4, 184320, Note_on_c, 6, 55, 95
4, 184800, Note_off_c, 6, 71, 95
4, 184800, Note_off_c, 6, 67, 95
4, 184800, Note_off_c, 6, 62, 95
4, 184800, Note_off_c, 6, 55, 95
4, 184800, Note_on_c, 6, 71, 95
4, 184800, Note_on_c, 6, 67, 95
4, 184800, Note_on_c, 6, 62, 95
4, 184800, Note_on_c, 6, 55, 95
4, 185280, Note_off_c, 6, 71, 95
4, 185280, Note_off_c, 6, 67, 95
4, 185280, Note_off_c, 6, 62, 95
4, 185280, Note_off_c, 6, 55, 95
4, 185280, Note_on_c, 6, 71, 95
4, 185280, Note_on_c, 6, 67, 95
4, 185280, Note_on_c, 6, 62, 95
4, 185280, Note_on_c, 6, 55, 95
4, 185760, Note_off_c, 6, 71, 95
4, 185760, Note_off_c, 6, 67, 95
4, 185760, Note_off_c, 6, 62, 95
4, 185760, Note_off_c, 6, 55, 95
4, 185760, Note_on_c, 6, 71, 95
4, 185760, Note_on_c, 6, 67, 95
4, 185760, Note_on_c, 6, 62, 95
4, 185760, Note_on_c, 6, 55, 95
4, 186240, Note_off_c, 6, 71, 95
4, 186240, Note_off_c, 6, 67, 95
4, 186240, Note_off_c, 6, 62, 95
4, 186240, Note_off_c, 6, 55, 95
4, 186240, Note_on_c, 6, 71, 95
4, 186240, Note_on_c, 6, 67, 95
4, 186240, Note_on_c, 6, 62, 95
4, 186240, Note_on_c, 6, 55, 95
4, 186720, Note_off_c, 6, 71, 95
4, 186720, Note_off_c, 6, 67, 95
4, 186720, Note_off_c, 6, 62, 95
4, 186720, Note_off_c, 6, 55, 95
4, 186720, Note_on_c, 6, 71, 95
4, 186720, Note_on_c, 6, 67, 95
4, 186720, Note_on_c, 6, 62, 95
4, 186720, Note_on_c, 6, 55, 95
4, 187200, Note_off_c, 6, 71, 95
4, 187200, Note_off_c, 6, 67, 95
4, 187200, Note_off_c, 6, 62, 95
4, 187200, Note_off_c, 6, 55, 95
4, 187200, Note_on_c, 6, 71, 95
4, 187200, Note_on_c, 6, 67, 95
4, 187200, Note_on_c, 6, 62, 95
4, 187200, Note_on_c, 6, 55, 95
4, 187680, Note_off_c, 6, 71, 95
4, 187680, Note_off_c, 6, 67, 95
4, 187680, Note_off_c, 6, 62, 95
4, 187680, Note_off_c, 6, 55, 95
4, 187680, Note_on_c, 6, 71, 95
4, 187680, Note_on_c, 6, 67, 95
4, 187680, Note_on_c, 6, 62, 95
4, 187680, Note_on_c, 6, 55, 95
4, 188160, Note_off_c, 6, 71, 95
4, 188160, Note_off_c, 6, 67, 95
4, 188160, Note_off_c, 6, 62, 95
4, 188160, Note_off_c, 6, 55, 95
4, 188160, Note_on_c, 6, 69, 95
4, 188160, Note_on_c, 6, 66, 95
4, 188160, Note_on_c, 6, 62, 95
4, 188160, Note_on_c, 6, 57, 95
4, 188160, Note_on_c, 6, 50, 95
4, 189120, Note_off_c, 6, 69, 95
4, 189120, Note_off_c, 6, 66, 95
4, 189120, Note_off_c, 6, 62, 95
4, 189120, Note_off_c, 6, 57, 95
4, 189120, Note_off_c, 6, 50, 95
4, 189120, Note_on_c, 6, 69, 95
4, 189120, Note_on_c, 6, 66, 95
4, 189120, Note_on_c, 6, 62, 95
4, 189120, Note_on_c, 6, 57, 95
4, 189120, Note_on_c, 6, 50, 95
4, 190560, Note_off_c, 6, 69, 95
4, 190560, Note_off_c, 6, 66, 95
4, 190560, Note_off_c, 6, 62, 95
4, 190560, Note_off_c, 6, 57, 95
4, 190560, Note_off_c, 6, 50, 95
4, 190560, Note_on_c, 6, 69, 95
4, 190560, Note_on_c, 6, 66, 95
4, 190560, Note_on_c, 6, 62, 95
4, 190560, Note_on_c, 6, 57, 95
4, 190560, Note_on_c, 6, 50, 95
4, 191520, Note_off_c, 6, 69, 95
4, 191520, Note_off_c, 6, 66, 95
4, 191520, Note_off_c, 6, 62, 95
4, 191520, Note_off_c, 6, 57, 95
4, 191520, Note_off_c, 6, 50, 95
4, 191520, Note_on_c, 6, 69, 95
4, 191520, Note_on_c, 6, 66, 95
4, 191520, Note_on_c, 6, 62, 95
4, 191520, Note_on_c, 6, 57, 95
4, 191520, Note_on_c, 6, 50, 95
4, 192000, Note_off_c, 6, 69, 95
4, 192000, Note_off_c, 6, 66, 95
4, 192000, Note_off_c, 6, 62, 95
4, 192000, Note_off_c, 6, 57, 95
4, 192000, Note_off_c, 6, 50, 95
4, 192000, Note_on_c, 6, 69, 95
4, 192000, Note_on_c, 6, 66, 95
4, 192000, Note_on_c, 6, 62, 95
4, 192000, Note_on_c, 6, 57, 95
4, 192000, Note_on_c, 6, 50, 95
4, 192480, Note_off_c, 6, 69, 95
4, 192480, Note_off_c, 6, 66, 95
4, 192480, Note_off_c, 6, 62, 95
4, 192480, Note_off_c, 6, 57, 95
4, 192480, Note_off_c, 6, 50, 95
4, 192480, Note_on_c, 6, 69, 95
4, 192480, Note_on_c, 6, 66, 95
4, 192480, Note_on_c, 6, 62, 95
4, 192480, Note_on_c, 6, 57, 95
4, 192480, Note_on_c, 6, 50, 95
4, 193440, Note_off_c, 6, 69, 95
4, 193440, Note_off_c, 6, 66, 95
4, 193440, Note_off_c, 6, 62, 95
4, 193440, Note_off_c, 6, 57, 95
4, 193440, Note_off_c, 6, 50, 95
4, 193440, Note_on_c, 6, 69, 95
4, 193440, Note_on_c, 6, 66, 95
4, 193440, Note_on_c, 6, 62, 95
4, 193440, Note_on_c, 6, 57, 95
4, 193440, Note_on_c, 6, 50, 95
4, 194400, Note_off_c, 6, 69, 95
4, 194400, Note_off_c, 6, 66, 95
4, 194400, Note_off_c, 6, 62, 95
4, 194400, Note_off_c, 6, 57, 95
4, 194400, Note_off_c, 6, 50, 95
4, 194400, Note_on_c, 6, 69, 95
4, 194400, Note_on_c, 6, 66, 95
4, 194400, Note_on_c, 6, 62, 95
4, 194400, Note_on_c, 6, 57, 95
4, 194400, Note_on_c, 6, 50, 95
4, 195360, Note_off_c, 6, 69, 95
4, 195360, Note_off_c, 6, 66, 95
4, 195360, Note_off_c, 6, 62, 95
4, 195360, Note_off_c, 6, 57, 95
4, 195360, Note_off_c, 6, 50, 95
4, 195360, Note_on_c, 6, 69, 95
4, 195360, Note_on_c, 6, 66, 95
4, 195360, Note_on_c, 6, 62, 95
4, 195360, Note_on_c, 6, 57, 95
4, 195360, Note_on_c, 6, 50, 95
4, 195840, Note_off_c, 6, 69, 95
4, 195840, Note_off_c, 6, 66, 95
4, 195840, Note_off_c, 6, 62, 95
4, 195840, Note_off_c, 6, 57, 95
4, 195840, Note_off_c, 6, 50, 95
4, 195840, Note_on_c, 6, 69, 95
4, 195840, Note_on_c, 6, 66, 95
4, 195840, Note_on_c, 6, 62, 95
4, 195840, Note_on_c, 6, 57, 95
4, 195840, Note_on_c, 6, 50, 95
4, 196800, Note_off_c, 6, 69, 95
4, 196800, Note_off_c, 6, 66, 95
4, 196800, Note_off_c, 6, 62, 95
4, 196800, Note_off_c, 6, 57, 95
4, 196800, Note_off_c, 6, 50, 95
4, 196800, Note_on_c, 6, 69, 95
4, 196800, Note_on_c, 6, 66, 95
4, 196800, Note_on_c, 6, 62, 95
4, 196800, Note_on_c, 6, 57, 95
4, 196800, Note_on_c, 6, 50, 95
4, 197760, Note_off_c, 6, 69, 95
4, 197760, Note_off_c, 6, 66, 95
4, 197760, Note_off_c, 6, 62, 95
4, 197760, Note_off_c, 6, 57, 95
4, 197760, Note_off_c, 6, 50, 95
4, 197760, Note_on_c, 6, 69, 95
4, 197760, Note_on_c, 6, 66, 95
4, 197760, Note_on_c, 6, 62, 95
4, 197760, Note_on_c, 6, 57, 95
4, 197760, Note_on_c, 6, 50, 95
4, 198240, Note_off_c, 6, 69, 95
4, 198240, Note_off_c, 6, 66, 95
4, 198240, Note_off_c, 6, 62, 95
4, 198240, Note_off_c, 6, 57, 95
4, 198240, Note_off_c, 6, 50, 95
4, 198240, Note_on_c, 6, 69, 95
4, 198240, Note_on_c, 6, 66, 95
4, 198240, Note_on_c, 6, 62, 95
4, 198240, Note_on_c, 6, 57, 95
4, 198240, Note_on_c, 6, 50, 95
4, 199200, Note_off_c, 6, 69, 95
4, 199200, Note_off_c, 6, 66, 95
4, 199200, Note_off_c, 6, 62, 95
4, 199200, Note_off_c, 6, 57, 95
4, 199200, Note_off_c, 6, 50, 95
4, 199200, Note_on_c, 6, 69, 95
4, 199200, Note_on_c, 6, 66, 95
4, 199200, Note_on_c, 6, 62, 95
4, 199200, Note_on_c, 6, 57, 95
4, 199200, Note_on_c, 6, 50, 95
4, 199680, Note_off_c, 6, 69, 95
4, 199680, Note_off_c, 6, 66, 95
4, 199680, Note_off_c, 6, 62, 95
4, 199680, Note_off_c, 6, 57, 95
4, 199680, Note_off_c, 6, 50, 95
4, 199680, Note_on_c, 6, 69, 95
4, 199680, Note_on_c, 6, 66, 95
4, 199680, Note_on_c, 6, 62, 95
4, 199680, Note_on_c, 6, 57, 95
4, 199680, Note_on_c, 6, 50, 95
4, 200160, Note_off_c, 6, 69, 95
4, 200160, Note_off_c, 6, 66, 95
4, 200160, Note_off_c, 6, 62, 95
4, 200160, Note_off_c, 6, 57, 95
4, 200160, Note_off_c, 6, 50, 95
4, 200160, Note_on_c, 6, 69, 95
4, 200160, Note_on_c, 6, 66, 95
4, 200160, Note_on_c, 6, 62, 95
4, 200160, Note_on_c, 6, 57, 95
4, 200160, Note_on_c, 6, 50, 95
4, 201120, Note_off_c, 6, 69, 95
4, 201120, Note_off_c, 6, 66, 95
4, 201120, Note_off_c, 6, 62, 95
4, 201120, Note_off_c, 6, 57, 95
4, 201120, Note_off_c, 6, 50, 95
4, 201120, Note_on_c, 6, 69, 95
4, 201120, Note_on_c, 6, 66, 95
4, 201120, Note_on_c, 6, 62, 95
4, 201120, Note_on_c, 6, 57, 95
4, 201120, Note_on_c, 6, 50, 95
4, 202080, Note_off_c, 6, 69, 95
4, 202080, Note_off_c, 6, 66, 95
4, 202080, Note_off_c, 6, 62, 95
4, 202080, Note_off_c, 6, 57, 95
4, 202080, Note_off_c, 6, 50, 95
4, 202080, Note_on_c, 6, 69, 95
4, 202080, Note_on_c, 6, 66, 95
4, 202080, Note_on_c, 6, 62, 95
4, 202080, Note_on_c, 6, 57, 95
4, 202080, Note_on_c, 6, 50, 95
4, 203040, Note_off_c, 6, 69, 95
4, 203040, Note_off_c, 6, 66, 95
4, 203040, Note_off_c, 6, 62, 95
4, 203040, Note_off_c, 6, 57, 95
4, 203040, Note_off_c, 6, 50, 95
4, 203040, Note_on_c, 6, 69, 95
4, 203040, Note_on_c, 6, 66, 95
4, 203040, Note_on_c, 6, 62, 95
4, 203040, Note_on_c, 6, 57, 95
4, 203040, Note_on_c, 6, 50, 95
4, 203520, Note_off_c, 6, 69, 95
4, 203520, Note_off_c, 6, 66, 95
4, 203520, Note_off_c, 6, 62, 95
4, 203520, Note_off_c, 6, 57, 95
4, 203520, Note_off_c, 6, 50, 95
4, 203520, Note_on_c, 6, 69, 95
4, 203520, Note_on_c, 6, 66, 95
4, 203520, Note_on_c, 6, 62, 95
4, 203520, Note_on_c, 6, 57, 95
4, 203520, Note_on_c, 6, 50, 95
4, 204480, Note_off_c, 6, 69, 95
4, 204480, Note_off_c, 6, 66, 95
4, 204480, Note_off_c, 6, 62, 95
4, 204480, Note_off_c, 6, 57, 95
4, 204480, Note_off_c, 6, 50, 95
4, 204480, Note_on_c, 6, 69, 95
4, 204480, Note_on_c, 6, 66, 95
4, 204480, Note_on_c, 6, 62, 95
4, 204480, Note_on_c, 6, 57, 95
4, 204480, Note_on_c, 6, 50, 95
4, 205920, Note_off_c, 6, 69, 95
4, 205920, Note_off_c, 6, 66, 95
4, 205920, Note_off_c, 6, 62, 95
4, 205920, Note_off_c, 6, 57, 95
4, 205920, Note_off_c, 6, 50, 95
4, 205920, Note_on_c, 6, 69, 95
4, 205920, Note_on_c, 6, 66, 95
4, 205920, Note_on_c, 6, 62, 95
4, 205920, Note_on_c, 6, 57, 95
4, 205920, Note_on_c, 6, 50, 95
4, 206880, Note_off_c, 6, 69, 95
4, 206880, Note_off_c, 6, 66, 95
4, 206880, Note_off_c, 6, 62, 95
4, 206880, Note_off_c, 6, 57, 95
4, 206880, Note_off_c, 6, 50, 95
4, 206880, Note_on_c, 6, 69, 95
4, 206880, Note_on_c, 6, 66, 95
4, 206880, Note_on_c, 6, 62, 95
4, 206880, Note_on_c, 6, 57, 95
4, 206880, Note_on_c, 6, 50, 95
4, 207360, Note_off_c, 6, 69, 95
4, 207360, Note_off_c, 6, 66, 95
4, 207360, Note_off_c, 6, 62, 95
4, 207360, Note_off_c, 6, 57, 95
4, 207360, Note_off_c, 6, 50, 95
4, 207360, Note_on_c, 6, 69, 95
4, 207360, Note_on_c, 6, 66, 95
4, 207360, Note_on_c, 6, 62, 95
4, 207360, Note_on_c, 6, 57, 95
4, 207360, Note_on_c, 6, 50, 95
4, 207840, Note_off_c, 6, 69, 95
4, 207840, Note_off_c, 6, 66, 95
4, 207840, Note_off_c, 6, 62, 95
4, 207840, Note_off_c, 6, 57, 95
4, 207840, Note_off_c, 6, 50, 95
4, 207840, Note_on_c, 6, 69, 95
4, 207840, Note_on_c, 6, 66, 95
4, 207840, Note_on_c, 6, 62, 95
4, 207840, Note_on_c, 6, 57, 95
4, 207840, Note_on_c, 6, 50, 95
4, 208800, Note_off_c, 6, 69, 95
4, 208800, Note_off_c, 6, 66, 95
4, 208800, Note_off_c, 6, 62, 95
4, 208800, Note_off_c, 6, 57, 95
4, 208800, Note_off_c, 6, 50, 95
4, 208800, Note_on_c, 6, 69, 95
4, 208800, Note_on_c, 6, 66, 95
4, 208800, Note_on_c, 6, 62, 95
4, 208800, Note_on_c, 6, 57, 95
4, 208800, Note_on_c, 6, 50, 95
4, 209760, Note_off_c, 6, 69, 95
4, 209760, Note_off_c, 6, 66, 95
4, 209760, Note_off_c, 6, 62, 95
4, 209760, Note_off_c, 6, 57, 95
4, 209760, Note_off_c, 6, 50, 95
4, 209760, Note_on_c, 6, 69, 95
4, 209760, Note_on_c, 6, 66, 95
4, 209760, Note_on_c, 6, 62, 95
4, 209760, Note_on_c, 6, 57, 95
4, 209760, Note_on_c, 6, 50, 95
4, 210720, Note_off_c, 6, 69, 95
4, 210720, Note_off_c, 6, 66, 95
4, 210720, Note_off_c, 6, 62, 95
4, 210720, Note_off_c, 6, 57, 95
4, 210720, Note_off_c, 6, 50, 95
4, 210720, Note_on_c, 6, 69, 95
4, 210720, Note_on_c, 6, 66, 95
4, 210720, Note_on_c, 6, 62, 95
4, 210720, Note_on_c, 6, 57, 95
4, 210720, Note_on_c, 6, 50, 95
4, 211200, Note_off_c, 6, 69, 95
4, 211200, Note_off_c, 6, 66, 95
4, 211200, Note_off_c, 6, 62, 95
4, 211200, Note_off_c, 6, 57, 95
4, 211200, Note_off_c, 6, 50, 95
4, 211200, Note_on_c, 6, 69, 95
4, 211200, Note_on_c, 6, 66, 95
4, 211200, Note_on_c, 6, 62, 95
4, 211200, Note_on_c, 6, 57, 95
4, 211200, Note_on_c, 6, 50, 95
4, 212160, Note_off_c, 6, 69, 95
4, 212160, Note_off_c, 6, 66, 95
4, 212160, Note_off_c, 6, 62, 95
4, 212160, Note_off_c, 6, 57, 95
4, 212160, Note_off_c, 6, 50, 95
4, 212160, Note_on_c, 6, 69, 95
4, 212160, Note_on_c, 6, 66, 95
4, 212160, Note_on_c, 6, 62, 95
4, 212160, Note_on_c, 6, 57, 95
4, 212160, Note_on_c, 6, 50, 95
4, 213600, Note_off_c, 6, 69, 95
4, 213600, Note_off_c, 6, 66, 95
4, 213600, Note_off_c, 6, 62, 95
4, 213600, Note_off_c, 6, 57, 95
4, 213600, Note_off_c, 6, 50, 95
4, 213600, Note_on_c, 6, 69, 95
4, 213600, Note_on_c, 6, 66, 95
4, 213600, Note_on_c, 6, 62, 95
4, 213600, Note_on_c, 6, 57, 95
4, 213600, Note_on_c, 6, 50, 95
4, 214560, Note_off_c, 6, 69, 95
4, 214560, Note_off_c, 6, 66, 95
4, 214560, Note_off_c, 6, 62, 95
4, 214560, Note_off_c, 6, 57, 95
4, 214560, Note_off_c, 6, 50, 95
4, 214560, Note_on_c, 6, 69, 95
4, 214560, Note_on_c, 6, 66, 95
4, 214560, Note_on_c, 6, 62, 95
4, 214560, Note_on_c, 6, 57, 95
4, 214560, Note_on_c, 6, 50, 95
4, 215040, Note_off_c, 6, 69, 95
4, 215040, Note_off_c, 6, 66, 95
4, 215040, Note_off_c, 6, 62, 95
4, 215040, Note_off_c, 6, 57, 95
4, 215040, Note_off_c, 6, 50, 95
4, 215040, Note_on_c, 6, 69, 95
4, 215040, Note_on_c, 6, 66, 95
4, 215040, Note_on_c, 6, 62, 95
4, 215040, Note_on_c, 6, 57, 95
4, 215040, Note_on_c, 6, 50, 95
4, 215520, Note_off_c, 6, 69, 95
4, 215520, Note_off_c, 6, 66, 95
4, 215520, Note_off_c, 6, 62, 95
4, 215520, Note_off_c, 6, 57, 95
4, 215520, Note_off_c, 6, 50, 95
4, 215520, Note_on_c, 6, 69, 95
4, 215520, Note_on_c, 6, 66, 95
4, 215520, Note_on_c, 6, 62, 95
4, 215520, Note_on_c, 6, 57, 95
4, 215520, Note_on_c, 6, 50, 95
4, 216480, Note_off_c, 6, 69, 95
4, 216480, Note_off_c, 6, 66, 95
4, 216480, Note_off_c, 6, 62, 95
4, 216480, Note_off_c, 6, 57, 95
4, 216480, Note_off_c, 6, 50, 95
4, 216480, Note_on_c, 6, 69, 95
4, 216480, Note_on_c, 6, 66, 95
4, 216480, Note_on_c, 6, 62, 95
4, 216480, Note_on_c, 6, 57, 95
4, 216480, Note_on_c, 6, 50, 95
4, 217440, Note_off_c, 6, 69, 95
4, 217440, Note_off_c, 6, 66, 95
4, 217440, Note_off_c, 6, 62, 95
4, 217440, Note_off_c, 6, 57, 95
4, 217440, Note_off_c, 6, 50, 95
4, 217440, Note_on_c, 6, 69, 95
4, 217440, Note_on_c, 6, 66, 95
4, 217440, Note_on_c, 6, 62, 95
4, 217440, Note_on_c, 6, 57, 95
4, 217440, Note_on_c, 6, 50, 95
4, 218400, Note_off_c, 6, 69, 95
4, 218400, Note_off_c, 6, 66, 95
4, 218400, Note_off_c, 6, 62, 95
4, 218400, Note_off_c, 6, 57, 95
4, 218400, Note_off_c, 6, 50, 95
4, 218400, Note_on_c, 6, 69, 95
4, 218400, Note_on_c, 6, 66, 95
4, 218400, Note_on_c, 6, 62, 95
4, 218400, Note_on_c, 6, 57, 95
4, 218400, Note_on_c, 6, 50, 95
4, 218880, Note_off_c, 6, 69, 95
4, 218880, Note_off_c, 6, 66, 95
4, 218880, Note_off_c, 6, 62, 95
4, 218880, Note_off_c, 6, 57, 95
4, 218880, Note_off_c, 6, 50, 95
4, 218880, Note_on_c, 6, 72, 95
4, 218880, Note_on_c, 6, 64, 95
4, 218880, Note_on_c, 6, 60, 95
4, 218880, Note_on_c, 6, 55, 95
4, 218880, Note_on_c, 6, 52, 95
4, 218880, Note_on_c, 6, 48, 95
4, 219360, Note_off_c, 6, 72, 95
4, 219360, Note_off_c, 6, 64, 95
4, 219360, Note_off_c, 6, 60, 95
4, 219360, Note_off_c, 6, 55, 95
4, 219360, Note_off_c, 6, 52, 95
4, 219360, Note_off_c, 6, 48, 95
4, 219360, Note_on_c, 6, 72, 95
4, 219360, Note_on_c, 6, 64, 95
4, 219360, Note_on_c, 6, 60, 95
4, 219360, Note_on_c, 6, 55, 95
4, 219360, Note_on_c, 6, 52, 95
4, 219360, Note_on_c, 6, 48, 95
4, 219840, Note_off_c, 6, 72, 95
4, 219840, Note_off_c, 6, 64, 95
4, 219840, Note_off_c, 6, 60, 95
4, 219840, Note_off_c, 6, 55, 95
4, 219840, Note_off_c, 6, 52, 95
4, 219840, Note_off_c, 6, 48, 95
4, 219840, Note_on_c, 6, 72, 95
4, 219840, Note_on_c, 6, 64, 95
4, 219840, Note_on_c, 6, 60, 95
4, 219840, Note_on_c, 6, 55, 95
4, 219840, Note_on_c, 6, 52, 95
4, 219840, Note_on_c, 6, 48, 95
4, 220320, Note_off_c, 6, 72, 95
4, 220320, Note_off_c, 6, 64, 95
4, 220320, Note_off_c, 6, 60, 95
4, 220320, Note_off_c, 6, 55, 95
4, 220320, Note_off_c, 6, 52, 95
4, 220320, Note_off_c, 6, 48, 95
4, 220320, Note_on_c, 6, 72, 95
4, 220320, Note_on_c, 6, 64, 95
4, 220320, Note_on_c, 6, 60, 95
4, 220320, Note_on_c, 6, 55, 95
4, 220320, Note_on_c, 6, 52, 95
4, 220320, Note_on_c, 6, 48, 95
4, 220800, Note_off_c, 6, 72, 95
4, 220800, Note_off_c, 6, 64, 95
4, 220800, Note_off_c, 6, 60, 95
4, 220800, Note_off_c, 6, 55, 95
4, 220800, Note_off_c, 6, 52, 95
4, 220800, Note_off_c, 6, 48, 95
4, 220800, Note_on_c, 6, 72, 95
4, 220800, Note_on_c, 6, 64, 95
4, 220800, Note_on_c, 6, 60, 95
4, 220800, Note_on_c, 6, 55, 95
4, 220800, Note_on_c, 6, 52, 95
4, 220800, Note_on_c, 6, 48, 95
4, 221280, Note_off_c, 6, 72, 95
4, 221280, Note_off_c, 6, 64, 95
4, 221280, Note_off_c, 6, 60, 95
4, 221280, Note_off_c, 6, 55, 95
4, 221280, Note_off_c, 6, 52, 95
4, 221280, Note_off_c, 6, 48, 95
4, 221280, Note_on_c, 6, 72, 95
4, 221280, Note_on_c, 6, 64, 95
4, 221280, Note_on_c, 6, 60, 95
4, 221280, Note_on_c, 6, 55, 95
4, 221280, Note_on_c, 6, 52, 95
4, 221280, Note_on_c, 6, 48, 95
4, 221760, Note_off_c, 6, 72, 95
4, 221760, Note_off_c, 6, 64, 95
4, 221760, Note_off_c, 6, 60, 95
4, 221760, Note_off_c, 6, 55, 95
4, 221760, Note_off_c, 6, 52, 95
4, 221760, Note_off_c, 6, 48, 95
4, 221760, Note_on_c, 6, 72, 95
4, 221760, Note_on_c, 6, 64, 95
4, 221760, Note_on_c, 6, 60, 95
4, 221760, Note_on_c, 6, 55, 95
4, 221760, Note_on_c, 6, 52, 95
4, 221760, Note_on_c, 6, 48, 95
4, 222240, Note_off_c, 6, 72, 95
4, 222240, Note_off_c, 6, 64, 95
4, 222240, Note_off_c, 6, 60, 95
4, 222240, Note_off_c, 6, 55, 95
4, 222240, Note_off_c, 6, 52, 95
4, 222240, Note_off_c, 6, 48, 95
4, 222240, Note_on_c, 6, 69, 95
4, 222240, Note_on_c, 6, 65, 95
4, 222240, Note_on_c, 6, 60, 95
4, 222240, Note_on_c, 6, 57, 95
4, 222240, Note_on_c, 6, 53, 95
4, 223200, Note_off_c, 6, 69, 95
4, 223200, Note_off_c, 6, 65, 95
4, 223200, Note_off_c, 6, 60, 95
4, 223200, Note_off_c, 6, 57, 95
4, 223200, Note_off_c, 6, 53, 95
4, 223200, Note_on_c, 6, 69, 95
4, 223200, Note_on_c, 6, 65, 95
4, 223200, Note_on_c, 6, 60, 95
4, 223200, Note_on_c, 6, 57, 95
4, 223200, Note_on_c, 6, 53, 95
4, 223680, Note_off_c, 6, 69, 95
4, 223680, Note_off_c, 6, 65, 95
4, 223680, Note_off_c, 6, 60, 95
4, 223680, Note_off_c, 6, 57, 95
4, 223680, Note_off_c, 6, 53, 95
4, 223680, Note_on_c, 6, 69, 95
4, 223680, Note_on_c, 6, 65, 95
4, 223680, Note_on_c, 6, 60, 95
4, 223680, Note_on_c, 6, 57, 95
4, 223680, Note_on_c, 6, 53, 95
4, 224640, Note_off_c, 6, 69, 95
4, 224640, Note_off_c, 6, 65, 95
4, 224640, Note_off_c, 6, 60, 95
4, 224640, Note_off_c, 6, 57, 95
4, 224640, Note_off_c, 6, 53, 95
4, 224640, Note_on_c, 6, 69, 95
4, 224640, Note_on_c, 6, 65, 95
4, 224640, Note_on_c, 6, 60, 95
4, 224640, Note_on_c, 6, 57, 95
4, 224640, Note_on_c, 6, 53, 95
4, 225120, Note_off_c, 6, 69, 95
4, 225120, Note_off_c, 6, 65, 95
4, 225120, Note_off_c, 6, 60, 95
4, 225120, Note_off_c, 6, 57, 95
4, 225120, Note_off_c, 6, 53, 95
4, 225120, Note_on_c, 6, 69, 95
4, 225120, Note_on_c, 6, 65, 95
4, 225120, Note_on_c, 6, 60, 95
4, 225120, Note_on_c, 6, 57, 95
4, 225120, Note_on_c, 6, 53, 95
4, 225600, Note_off_c, 6, 69, 95
4, 225600, Note_off_c, 6, 65, 95
4, 225600, Note_off_c, 6, 60, 95
4, 225600, Note_off_c, 6, 57, 95
4, 225600, Note_off_c, 6, 53, 95
4, 225600, Note_on_c, 6, 69, 95
4, 225600, Note_on_c, 6, 65, 95
4, 225600, Note_on_c, 6, 60, 95
4, 225600, Note_on_c, 6, 57, 95
4, 225600, Note_on_c, 6, 53, 95
4, 226080, Note_off_c, 6, 69, 95
4, 226080, Note_off_c, 6, 65, 95
4, 226080, Note_off_c, 6, 60, 95
4, 226080, Note_off_c, 6, 57, 95
4, 226080, Note_off_c, 6, 53, 95
4, 226080, Note_on_c, 6, 69, 95
4, 226080, Note_on_c, 6, 65, 95
4, 226080, Note_on_c, 6, 60, 95
4, 226080, Note_on_c, 6, 57, 95
4, 226080, Note_on_c, 6, 53, 95
4, 226560, Note_off_c, 6, 69, 95
4, 226560, Note_off_c, 6, 65, 95
4, 226560, Note_off_c, 6, 60, 95
4, 226560, Note_off_c, 6, 57, 95
4, 226560, Note_off_c, 6, 53, 95
4, 226560, Note_on_c, 6, 72, 95
4, 226560, Note_on_c, 6, 67, 95
4, 226560, Note_on_c, 6, 60, 95
4, 226560, Note_on_c, 6, 55, 95
4, 226560, Note_on_c, 6, 52, 95
4, 226560, Note_on_c, 6, 48, 95
4, 227040, Note_off_c, 6, 72, 95
4, 227040, Note_off_c, 6, 67, 95
4, 227040, Note_off_c, 6, 60, 95
4, 227040, Note_off_c, 6, 55, 95
4, 227040, Note_off_c, 6, 52, 95
4, 227040, Note_off_c, 6, 48, 95
4, 227040, Note_on_c, 6, 72, 95
4, 227040, Note_on_c, 6, 64, 95
4, 227040, Note_on_c, 6, 60, 95
4, 227040, Note_on_c, 6, 55, 95
4, 227040, Note_on_c, 6, 52, 95
4, 227040, Note_on_c, 6, 48, 95
4, 227520, Note_off_c, 6, 72, 95
4, 227520, Note_off_c, 6, 64, 95
4, 227520, Note_off_c, 6, 60, 95
4, 227520, Note_off_c, 6, 55, 95
4, 227520, Note_off_c, 6, 52, 95
4, 227520, Note_off_c, 6, 48, 95
4, 227520, Note_on_c, 6, 72, 95
4, 227520, Note_on_c, 6, 64, 95
4, 227520, Note_on_c, 6, 60, 95
4, 227520, Note_on_c, 6, 55, 95
4, 227520, Note_on_c, 6, 52, 95
4, 227520, Note_on_c, 6, 48, 95
4, 228480, Note_off_c, 6, 72, 95
4, 228480, Note_off_c, 6, 64, 95
4, 228480, Note_off_c, 6, 60, 95
4, 228480, Note_off_c, 6, 55, 95
4, 228480, Note_off_c, 6, 52, 95
4, 228480, Note_off_c, 6, 48, 95
4, 228480, Note_on_c, 6, 72, 95
4, 228480, Note_on_c, 6, 64, 95
4, 228480, Note_on_c, 6, 60, 95
4, 228480, Note_on_c, 6, 55, 95
4, 228480, Note_on_c, 6, 52, 95
4, 228480, Note_on_c, 6, 48, 95
4, 228960, Note_off_c, 6, 72, 95
4, 228960, Note_off_c, 6, 64, 95
4, 228960, Note_off_c, 6, 60, 95
4, 228960, Note_off_c, 6, 55, 95
4, 228960, Note_off_c, 6, 52, 95
4, 228960, Note_off_c, 6, 48, 95
4, 228960, Note_on_c, 6, 72, 95
4, 228960, Note_on_c, 6, 64, 95
4, 228960, Note_on_c, 6, 60, 95
4, 228960, Note_on_c, 6, 55, 95
4, 228960, Note_on_c, 6, 52, 95
4, 228960, Note_on_c, 6, 48, 95
4, 229440, Note_off_c, 6, 72, 95
4, 229440, Note_off_c, 6, 64, 95
4, 229440, Note_off_c, 6, 60, 95
4, 229440, Note_off_c, 6, 55, 95
4, 229440, Note_off_c, 6, 52, 95
4, 229440, Note_off_c, 6, 48, 95
4, 229440, Note_on_c, 6, 72, 95
4, 229440, Note_on_c, 6, 64, 95
4, 229440, Note_on_c, 6, 60, 95
4, 229440, Note_on_c, 6, 55, 95
4, 229440, Note_on_c, 6, 52, 95
4, 229440, Note_on_c, 6, 48, 95
4, 229920, Note_off_c, 6, 72, 95
4, 229920, Note_off_c, 6, 64, 95
4, 229920, Note_off_c, 6, 60, 95
4, 229920, Note_off_c, 6, 55, 95
4, 229920, Note_off_c, 6, 52, 95
4, 229920, Note_off_c, 6, 48, 95
4, 229920, Note_on_c, 6, 72, 95
4, 229920, Note_on_c, 6, 64, 95
4, 229920, Note_on_c, 6, 60, 95
4, 229920, Note_on_c, 6, 55, 95
4, 229920, Note_on_c, 6, 52, 95
4, 229920, Note_on_c, 6, 48, 95
4, 230400, Note_off_c, 6, 72, 95
4, 230400, Note_off_c, 6, 64, 95
4, 230400, Note_off_c, 6, 60, 95
4, 230400, Note_off_c, 6, 55, 95
4, 230400, Note_off_c, 6, 52, 95
4, 230400, Note_off_c, 6, 48, 95
4, 230400, Note_on_c, 6, 69, 95
4, 230400, Note_on_c, 6, 65, 95
4, 230400, Note_on_c, 6, 60, 95
4, 230400, Note_on_c, 6, 57, 95
4, 230400, Note_on_c, 6, 53, 95
4, 230880, Note_off_c, 6, 69, 95
4, 230880, Note_off_c, 6, 65, 95
4, 230880, Note_off_c, 6, 60, 95
4, 230880, Note_off_c, 6, 57, 95
4, 230880, Note_off_c, 6, 53, 95
4, 230880, Note_on_c, 6, 65, 95
4, 230880, Note_on_c, 6, 60, 95
4, 230880, Note_on_c, 6, 57, 95
4, 230880, Note_on_c, 6, 53, 95
4, 231360, Note_off_c, 6, 65, 95
4, 231360, Note_off_c, 6, 60, 95
4, 231360, Note_off_c, 6, 57, 95
4, 231360, Note_off_c, 6, 53, 95
4, 231360, Note_on_c, 6, 64, 95
4, 231360, Note_on_c, 6, 60, 95
4, 231360, Note_on_c, 6, 55, 95
4, 231360, Note_on_c, 6, 52, 95
4, 231360, Note_on_c, 6, 48, 95
4, 231840, Note_off_c, 6, 64, 95
4, 231840, Note_off_c, 6, 60, 95
4, 231840, Note_off_c, 6, 55, 95
4, 231840, Note_off_c, 6, 52, 95
4, 231840, Note_off_c, 6, 48, 95
4, 231840, Note_on_c, 6, 69, 95
4, 231840, Note_on_c, 6, 65, 95
4, 231840, Note_on_c, 6, 60, 95
4, 231840, Note_on_c, 6, 57, 95
4, 231840, Note_on_c, 6, 53, 95
4, 232800, Note_off_c, 6, 69, 95
4, 232800, Note_off_c, 6, 65, 95
4, 232800, Note_off_c, 6, 60, 95
4, 232800, Note_off_c, 6, 57, 95
4, 232800, Note_off_c, 6, 53, 95
4, 232800, Note_on_c, 6, 69, 95
4, 232800, Note_on_c, 6, 65, 95
4, 232800, Note_on_c, 6, 60, 95
4, 232800, Note_on_c, 6, 57, 95
4, 232800, Note_on_c, 6, 53, 95
4, 233280, Note_off_c, 6, 69, 95
4, 233280, Note_off_c, 6, 65, 95
4, 233280, Note_off_c, 6, 60, 95
4, 233280, Note_off_c, 6, 57, 95
4, 233280, Note_off_c, 6, 53, 95
4, 233280, Note_on_c, 6, 64, 95
4, 233280, Note_on_c, 6, 60, 95
4, 233280, Note_on_c, 6, 55, 95
4, 233280, Note_on_c, 6, 52, 95
4, 233280, Note_on_c, 6, 48, 95
4, 233760, Note_off_c, 6, 64, 95
4, 233760, Note_off_c, 6, 60, 95
4, 233760, Note_off_c, 6, 55, 95
4, 233760, Note_off_c, 6, 52, 95
4, 233760, Note_off_c, 6, 48, 95
4, 233760, Note_on_c, 6, 69, 95
4, 233760, Note_on_c, 6, 65, 95
4, 233760, Note_on_c, 6, 60, 95
4, 233760, Note_on_c, 6, 57, 95
4, 233760, Note_on_c, 6, 53, 95
4, 234240, Note_off_c, 6, 57, 95
4, 234720, Note_off_c, 6, 69, 95
4, 234720, Note_off_c, 6, 65, 95
4, 234720, Note_off_c, 6, 60, 95
4, 234720, Note_off_c, 6, 53, 95
4, 234720, Note_on_c, 6, 69, 95
4, 234720, Note_on_c, 6, 65, 95
4, 234720, Note_on_c, 6, 60, 95
4, 234720, Note_on_c, 6, 57, 95
4, 234720, Note_on_c, 6, 53, 95
4, 235200, Note_off_c, 6, 69, 95
4, 235200, Note_off_c, 6, 65, 95
4, 235200, Note_off_c, 6, 60, 95
4, 235200, Note_off_c, 6, 57, 95
4, 235200, Note_off_c, 6, 53, 95
4, 235200, Note_on_c, 6, 64, 95
4, 235200, Note_on_c, 6, 60, 95
4, 235200, Note_on_c, 6, 55, 95
4, 235200, Note_on_c, 6, 52, 95
4, 235200, Note_on_c, 6, 48, 95
4, 235680, Note_off_c, 6, 64, 95
4, 235680, Note_off_c, 6, 60, 95
4, 235680, Note_off_c, 6, 55, 95
4, 235680, Note_off_c, 6, 52, 95
4, 235680, Note_off_c, 6, 48, 95
4, 235680, Note_on_c, 6, 69, 95
4, 235680, Note_on_c, 6, 65, 95
4, 235680, Note_on_c, 6, 60, 95
4, 235680, Note_on_c, 6, 57, 95
4, 235680, Note_on_c, 6, 53, 95
4, 236640, Note_off_c, 6, 69, 95
4, 236640, Note_off_c, 6, 65, 95
4, 236640, Note_off_c, 6, 60, 95
4, 236640, Note_off_c, 6, 57, 95
4, 236640, Note_off_c, 6, 53, 95
4, 236640, Note_on_c, 6, 69, 95
4, 236640, Note_on_c, 6, 65, 95
4, 236640, Note_on_c, 6, 60, 95
4, 236640, Note_on_c, 6, 57, 95
4, 236640, Note_on_c, 6, 53, 95
4, 237120, Note_off_c, 6, 69, 95
4, 237120, Note_off_c, 6, 65, 95
4, 237120, Note_off_c, 6, 60, 95
4, 237120, Note_off_c, 6, 57, 95
4, 237120, Note_off_c, 6, 53, 95
4, 237120, Note_on_c, 6, 64, 95
4, 237120, Note_on_c, 6, 60, 95
4, 237120, Note_on_c, 6, 55, 95
4, 237120, Note_on_c, 6, 52, 95
4, 237120, Note_on_c, 6, 48, 95
4, 237600, Note_off_c, 6, 64, 95
4, 237600, Note_off_c, 6, 60, 95
4, 237600, Note_off_c, 6, 55, 95
4, 237600, Note_off_c, 6, 52, 95
4, 237600, Note_off_c, 6, 48, 95
4, 237600, Note_on_c, 6, 69, 95
4, 237600, Note_on_c, 6, 65, 95
4, 237600, Note_on_c, 6, 60, 95
4, 237600, Note_on_c, 6, 57, 95
4, 237600, Note_on_c, 6, 53, 95
4, 238080, Note_off_c, 6, 69, 95
4, 238080, Note_off_c, 6, 65, 95
4, 238080, Note_off_c, 6, 60, 95
4, 238080, Note_off_c, 6, 57, 95
4, 238080, Note_off_c, 6, 53, 95
4, 238080, Note_on_c, 6, 69, 95
4, 238080, Note_on_c, 6, 65, 95
4, 238080, Note_on_c, 6, 60, 95
4, 238080, Note_on_c, 6, 57, 95
4, 238080, Note_on_c, 6, 53, 95
4, 238560, Note_off_c, 6, 69, 95
4, 238560, Note_off_c, 6, 65, 95
4, 238560, Note_off_c, 6, 60, 95
4, 238560, Note_off_c, 6, 57, 95
4, 238560, Note_off_c, 6, 53, 95
4, 238560, Note_on_c, 6, 69, 95
4, 238560, Note_on_c, 6, 65, 95
4, 238560, Note_on_c, 6, 60, 95
4, 238560, Note_on_c, 6, 57, 95
4, 238560, Note_on_c, 6, 53, 95
4, 239040, Note_off_c, 6, 69, 95
4, 239040, Note_off_c, 6, 65, 95
4, 239040, Note_off_c, 6, 60, 95
4, 239040, Note_off_c, 6, 57, 95
4, 239040, Note_off_c, 6, 53, 95
4, 239040, Note_on_c, 6, 64, 95
4, 239040, Note_on_c, 6, 60, 95
4, 239040, Note_on_c, 6, 55, 95
4, 239040, Note_on_c, 6, 52, 95
4, 239040, Note_on_c, 6, 48, 95
4, 239520, Note_off_c, 6, 64, 95
4, 239520, Note_off_c, 6, 60, 95
4, 239520, Note_off_c, 6, 55, 95
4, 239520, Note_off_c, 6, 52, 95
4, 239520, Note_off_c, 6, 48, 95
4, 239520, Note_on_c, 6, 69, 95
4, 239520, Note_on_c, 6, 65, 95
4, 239520, Note_on_c, 6, 60, 95
4, 239520, Note_on_c, 6, 57, 95
4, 239520, Note_on_c, 6, 53, 95
4, 240000, Note_off_c, 6, 69, 95
4, 240000, Note_off_c, 6, 65, 95
4, 240000, Note_off_c, 6, 60, 95
4, 240000, Note_off_c, 6, 57, 95
4, 240000, Note_off_c, 6, 53, 95
4, 240000, Note_on_c, 6, 69, 95
4, 240000, Note_on_c, 6, 65, 95
4, 240000, Note_on_c, 6, 60, 95
4, 240000, Note_on_c, 6, 57, 95
4, 240000, Note_on_c, 6, 53, 95
4, 240480, Note_off_c, 6, 69, 95
4, 240480, Note_off_c, 6, 65, 95
4, 240480, Note_off_c, 6, 60, 95
4, 240480, Note_off_c, 6, 57, 95
4, 240480, Note_off_c, 6, 53, 95
4, 240480, Note_on_c, 6, 69, 95
4, 240480, Note_on_c, 6, 65, 95
4, 240480, Note_on_c, 6, 60, 95
4, 240480, Note_on_c, 6, 57, 95
4, 240480, Note_on_c, 6, 53, 95
4, 240960, Note_off_c, 6, 69, 95
4, 240960, Note_off_c, 6, 65, 95
4, 240960, Note_off_c, 6, 60, 95
4, 240960, Note_off_c, 6, 57, 95
4, 240960, Note_off_c, 6, 53, 95
4, 240960, Note_on_c, 6, 64, 95
4, 240960, Note_on_c, 6, 60, 95
4, 240960, Note_on_c, 6, 55, 95
4, 240960, Note_on_c, 6, 52, 95
4, 240960, Note_on_c, 6, 48, 95
4, 241440, Note_off_c, 6, 64, 95
4, 241440, Note_off_c, 6, 60, 95
4, 241440, Note_off_c, 6, 55, 95
4, 241440, Note_off_c, 6, 52, 95
4, 241440, Note_off_c, 6, 48, 95
4, 241440, Note_on_c, 6, 69, 95
4, 241440, Note_on_c, 6, 65, 95
4, 241440, Note_on_c, 6, 60, 95
4, 241440, Note_on_c, 6, 57, 95
4, 241440, Note_on_c, 6, 53, 95
4, 241920, Note_off_c, 6, 69, 95
4, 241920, Note_off_c, 6, 65, 95
4, 241920, Note_off_c, 6, 60, 95
4, 241920, Note_off_c, 6, 57, 95
4, 241920, Note_off_c, 6, 53, 95
4, 241920, Note_on_c, 6, 69, 95
4, 241920, Note_on_c, 6, 65, 95
4, 241920, Note_on_c, 6, 60, 95
4, 241920, Note_on_c, 6, 57, 95
4, 241920, Note_on_c, 6, 53, 95
4, 242400, Note_off_c, 6, 69, 95
4, 242400, Note_off_c, 6, 65, 95
4, 242400, Note_off_c, 6, 60, 95
4, 242400, Note_off_c, 6, 57, 95
4, 242400, Note_off_c, 6, 53, 95
4, 242400, Note_on_c, 6, 69, 95
4, 242400, Note_on_c, 6, 65, 95
4, 242400, Note_on_c, 6, 60, 95
4, 242400, Note_on_c, 6, 57, 95
4, 242400, Note_on_c, 6, 53, 95
4, 242880, Note_off_c, 6, 69, 95
4, 242880, Note_off_c, 6, 65, 95
4, 242880, Note_off_c, 6, 60, 95
4, 242880, Note_off_c, 6, 57, 95
4, 242880, Note_off_c, 6, 53, 95
4, 242880, Note_on_c, 6, 69, 95
4, 242880, Note_on_c, 6, 65, 95
4, 242880, Note_on_c, 6, 60, 95
4, 242880, Note_on_c, 6, 57, 95
4, 242880, Note_on_c, 6, 53, 95
4, 243360, Note_off_c, 6, 69, 95
4, 243360, Note_off_c, 6, 65, 95
4, 243360, Note_off_c, 6, 60, 95
4, 243360, Note_off_c, 6, 57, 95
4, 243360, Note_off_c, 6, 53, 95
4, 243360, Note_on_c, 6, 69, 95
4, 243360, Note_on_c, 6, 65, 95
4, 243360, Note_on_c, 6, 60, 95
4, 243360, Note_on_c, 6, 57, 95
4, 243360, Note_on_c, 6, 53, 95
4, 243840, Note_off_c, 6, 69, 95
4, 243840, Note_off_c, 6, 65, 95
4, 243840, Note_off_c, 6, 60, 95
4, 243840, Note_off_c, 6, 57, 95
4, 243840, Note_off_c, 6, 53, 95
4, 243840, Note_on_c, 6, 64, 95
4, 243840, Note_on_c, 6, 60, 95
4, 243840, Note_on_c, 6, 55, 95
4, 243840, Note_on_c, 6, 52, 95
4, 243840, Note_on_c, 6, 48, 95
4, 244320, Note_off_c, 6, 64, 95
4, 244320, Note_off_c, 6, 60, 95
4, 244320, Note_off_c, 6, 55, 95
4, 244320, Note_off_c, 6, 52, 95
4, 244320, Note_off_c, 6, 48, 95
4, 244320, Note_on_c, 6, 64, 95
4, 244320, Note_on_c, 6, 60, 95
4, 244320, Note_on_c, 6, 55, 95
4, 244320, Note_on_c, 6, 52, 95
4, 244320, Note_on_c, 6, 48, 95
4, 244800, Note_off_c, 6, 64, 95
4, 244800, Note_off_c, 6, 60, 95
4, 244800, Note_off_c, 6, 55, 95
4, 244800, Note_off_c, 6, 52, 95
4, 244800, Note_off_c, 6, 48, 95
4, 244800, Note_on_c, 6, 64, 95
4, 244800, Note_on_c, 6, 60, 95
4, 244800, Note_on_c, 6, 55, 95
4, 244800, Note_on_c, 6, 52, 95
4, 244800, Note_on_c, 6, 48, 95
4, 245280, Note_off_c, 6, 64, 95
4, 245280, Note_off_c, 6, 60, 95
4, 245280, Note_off_c, 6, 55, 95
4, 245280, Note_off_c, 6, 52, 95
4, 245280, Note_off_c, 6, 48, 95
4, 245280, Note_on_c, 6, 64, 95
4, 245280, Note_on_c, 6, 60, 95
4, 245280, Note_on_c, 6, 55, 95
4, 245280, Note_on_c, 6, 52, 95
4, 245280, Note_on_c, 6, 48, 95
4, 245760, Note_off_c, 6, 64, 95
4, 245760, Note_off_c, 6, 60, 95
4, 245760, Note_off_c, 6, 55, 95
4, 245760, Note_off_c, 6, 52, 95
4, 245760, Note_off_c, 6, 48, 95
4, 245760, Note_on_c, 6, 69, 95
4, 245760, Note_on_c, 6, 65, 95
4, 245760, Note_on_c, 6, 60, 95
4, 245760, Note_on_c, 6, 57, 95
4, 245760, Note_on_c, 6, 53, 95
4, 246240, Note_off_c, 6, 69, 95
4, 246240, Note_off_c, 6, 65, 95
4, 246240, Note_off_c, 6, 60, 95
4, 246240, Note_off_c, 6, 57, 95
4, 246240, Note_off_c, 6, 53, 95
4, 246240, Note_on_c, 6, 69, 95
4, 246240, Note_on_c, 6, 65, 95
4, 246240, Note_on_c, 6, 60, 95
4, 246240, Note_on_c, 6, 57, 95
4, 246240, Note_on_c, 6, 53, 95
4, 246720, Note_off_c, 6, 69, 95
4, 246720, Note_off_c, 6, 65, 95
4, 246720, Note_off_c, 6, 60, 95
4, 246720, Note_off_c, 6, 57, 95
4, 246720, Note_off_c, 6, 53, 95
4, 246720, Note_on_c, 6, 69, 95
4, 246720, Note_on_c, 6, 65, 95
4, 246720, Note_on_c, 6, 60, 95
4, 246720, Note_on_c, 6, 57, 95
4, 246720, Note_on_c, 6, 53, 95
4, 247680, Note_off_c, 6, 69, 95
4, 247680, Note_off_c, 6, 65, 95
4, 247680, Note_off_c, 6, 60, 95
4, 247680, Note_off_c, 6, 57, 95
4, 247680, Note_off_c, 6, 53, 95
4, 247680, Note_on_c, 6, 69, 95
4, 247680, Note_on_c, 6, 65, 95
4, 247680, Note_on_c, 6, 60, 95
4, 247680, Note_on_c, 6, 57, 95
4, 247680, Note_on_c, 6, 53, 95
4, 248160, Note_off_c, 6, 69, 95
4, 248160, Note_off_c, 6, 65, 95
4, 248160, Note_off_c, 6, 60, 95
4, 248160, Note_off_c, 6, 57, 95
4, 248160, Note_off_c, 6, 53, 95
4, 248160, Note_on_c, 6, 64, 95
4, 248160, Note_on_c, 6, 60, 95
4, 248160, Note_on_c, 6, 55, 95
4, 248160, Note_on_c, 6, 52, 95
4, 248160, Note_on_c, 6, 48, 95
4, 249120, Note_off_c, 6, 64, 95
4, 249120, Note_off_c, 6, 60, 95
4, 249120, Note_off_c, 6, 55, 95
4, 249120, Note_off_c, 6, 52, 95
4, 249120, Note_off_c, 6, 48, 95
4, 249120, Note_on_c, 6, 69, 95
4, 249120, Note_on_c, 6, 65, 95
4, 249120, Note_on_c, 6, 60, 95
4, 249120, Note_on_c, 6, 57, 95
4, 249120, Note_on_c, 6, 53, 95
4, 250080, Note_off_c, 6, 69, 95
4, 250080, Note_off_c, 6, 65, 95
4, 250080, Note_off_c, 6, 60, 95
4, 250080, Note_off_c, 6, 57, 95
4, 250080, Note_off_c, 6, 53, 95
4, 250080, Note_on_c, 6, 69, 95
4, 250080, Note_on_c, 6, 65, 95
4, 250080, Note_on_c, 6, 60, 95
4, 250080, Note_on_c, 6, 57, 95
4, 250080, Note_on_c, 6, 53, 95
4, 250560, Note_off_c, 6, 69, 95
4, 250560, Note_off_c, 6, 65, 95
4, 250560, Note_off_c, 6, 60, 95
4, 250560, Note_off_c, 6, 57, 95
4, 250560, Note_off_c, 6, 53, 95
4, 250560, Note_on_c, 6, 69, 95
4, 250560, Note_on_c, 6, 65, 95
4, 250560, Note_on_c, 6, 60, 95
4, 250560, Note_on_c, 6, 57, 95
4, 250560, Note_on_c, 6, 53, 95
4, 251520, Note_off_c, 6, 69, 95
4, 251520, Note_off_c, 6, 65, 95
4, 251520, Note_off_c, 6, 60, 95
4, 251520, Note_off_c, 6, 57, 95
4, 251520, Note_off_c, 6, 53, 95
4, 251520, Note_on_c, 6, 69, 95
4, 251520, Note_on_c, 6, 65, 95
4, 251520, Note_on_c, 6, 60, 95
4, 251520, Note_on_c, 6, 57, 95
4, 251520, Note_on_c, 6, 53, 95
4, 252000, Note_off_c, 6, 69, 95
4, 252000, Note_off_c, 6, 65, 95
4, 252000, Note_off_c, 6, 60, 95
4, 252000, Note_off_c, 6, 57, 95
4, 252000, Note_off_c, 6, 53, 95
4, 252000, Note_on_c, 6, 69, 95
4, 252000, Note_on_c, 6, 65, 95
4, 252000, Note_on_c, 6, 60, 95
4, 252000, Note_on_c, 6, 57, 95
4, 252000, Note_on_c, 6, 53, 95
4, 252480, Note_off_c, 6, 69, 95
4, 252480, Note_off_c, 6, 65, 95
4, 252480, Note_off_c, 6, 60, 95
4, 252480, Note_off_c, 6, 57, 95
4, 252480, Note_off_c, 6, 53, 95
4, 252480, Note_on_c, 6, 64, 95
4, 252480, Note_on_c, 6, 60, 95
4, 252480, Note_on_c, 6, 55, 95
4, 252480, Note_on_c, 6, 52, 95
4, 252480, Note_on_c, 6, 48, 95
4, 252960, Note_off_c, 6, 64, 95
4, 252960, Note_off_c, 6, 60, 95
4, 252960, Note_off_c, 6, 55, 95
4, 252960, Note_off_c, 6, 52, 95
4, 252960, Note_off_c, 6, 48, 95
4, 252960, Note_on_c, 6, 69, 95
4, 252960, Note_on_c, 6, 65, 95
4, 252960, Note_on_c, 6, 60, 95
4, 252960, Note_on_c, 6, 57, 95
4, 252960, Note_on_c, 6, 53, 95
4, 253920, Note_off_c, 6, 69, 95
4, 253920, Note_off_c, 6, 65, 95
4, 253920, Note_off_c, 6, 60, 95
4, 253920, Note_off_c, 6, 57, 95
4, 253920, Note_off_c, 6, 53, 95
4, 253920, Note_on_c, 6, 69, 95
4, 253920, Note_on_c, 6, 65, 95
4, 253920, Note_on_c, 6, 60, 95
4, 253920, Note_on_c, 6, 57, 95
4, 253920, Note_on_c, 6, 53, 95
4, 254400, Note_off_c, 6, 69, 95
4, 254400, Note_off_c, 6, 65, 95
4, 254400, Note_off_c, 6, 60, 95
4, 254400, Note_off_c, 6, 57, 95
4, 254400, Note_off_c, 6, 53, 95
4, 254400, Note_on_c, 6, 64, 95
4, 254400, Note_on_c, 6, 60, 95
4, 254400, Note_on_c, 6, 55, 95
4, 254400, Note_on_c, 6, 52, 95
4, 254400, Note_on_c, 6, 48, 95
4, 254880, Note_off_c, 6, 64, 95
4, 254880, Note_off_c, 6, 60, 95
4, 254880, Note_off_c, 6, 55, 95
4, 254880, Note_off_c, 6, 52, 95
4, 254880, Note_off_c, 6, 48, 95
4, 254880, Note_on_c, 6, 69, 95
4, 254880, Note_on_c, 6, 65, 95
4, 254880, Note_on_c, 6, 60, 95
4, 254880, Note_on_c, 6, 57, 95
4, 254880, Note_on_c, 6, 53, 95
4, 255360, Note_off_c, 6, 69, 95
4, 255360, Note_off_c, 6, 65, 95
4, 255360, Note_off_c, 6, 60, 95
4, 255360, Note_off_c, 6, 57, 95
4, 255360, Note_off_c, 6, 53, 95
4, 255360, Note_on_c, 6, 69, 95
4, 255360, Note_on_c, 6, 65, 95
4, 255360, Note_on_c, 6, 60, 95
4, 255360, Note_on_c, 6, 57, 95
4, 255360, Note_on_c, 6, 53, 95
4, 255840, Note_off_c, 6, 69, 95
4, 255840, Note_off_c, 6, 65, 95
4, 255840, Note_off_c, 6, 60, 95
4, 255840, Note_off_c, 6, 57, 95
4, 255840, Note_off_c, 6, 53, 95
4, 255840, Note_on_c, 6, 69, 95
4, 255840, Note_on_c, 6, 65, 95
4, 255840, Note_on_c, 6, 60, 95
4, 255840, Note_on_c, 6, 57, 95
4, 255840, Note_on_c, 6, 53, 95
4, 256320, Note_off_c, 6, 69, 95
4, 256320, Note_off_c, 6, 65, 95
4, 256320, Note_off_c, 6, 60, 95
4, 256320, Note_off_c, 6, 57, 95
4, 256320, Note_off_c, 6, 53, 95
4, 256320, Note_on_c, 6, 64, 95
4, 256320, Note_on_c, 6, 60, 95
4, 256320, Note_on_c, 6, 55, 95
4, 256320, Note_on_c, 6, 52, 95
4, 256320, Note_on_c, 6, 48, 95
4, 256800, Note_off_c, 6, 64, 95
4, 256800, Note_off_c, 6, 60, 95
4, 256800, Note_off_c, 6, 55, 95
4, 256800, Note_off_c, 6, 52, 95
4, 256800, Note_off_c, 6, 48, 95
4, 256800, Note_on_c, 6, 69, 95
4, 256800, Note_on_c, 6, 65, 95
4, 256800, Note_on_c, 6, 60, 95
4, 256800, Note_on_c, 6, 57, 95
4, 256800, Note_on_c, 6, 53, 95
4, 257280, Note_off_c, 6, 69, 95
4, 257280, Note_off_c, 6, 65, 95
4, 257280, Note_off_c, 6, 60, 95
4, 257280, Note_off_c, 6, 57, 95
4, 257280, Note_off_c, 6, 53, 95
4, 257280, Note_on_c, 6, 69, 95
4, 257280, Note_on_c, 6, 65, 95
4, 257280, Note_on_c, 6, 60, 95
4, 257280, Note_on_c, 6, 57, 95
4, 257280, Note_on_c, 6, 53, 95
4, 257760, Note_off_c, 6, 69, 95
4, 257760, Note_off_c, 6, 65, 95
4, 257760, Note_off_c, 6, 60, 95
4, 257760, Note_off_c, 6, 57, 95
4, 257760, Note_off_c, 6, 53, 95
4, 257760, Note_on_c, 6, 69, 95
4, 257760, Note_on_c, 6, 65, 95
4, 257760, Note_on_c, 6, 60, 95
4, 257760, Note_on_c, 6, 57, 95
4, 257760, Note_on_c, 6, 53, 95
4, 258240, Note_off_c, 6, 69, 95
4, 258240, Note_off_c, 6, 65, 95
4, 258240, Note_off_c, 6, 60, 95
4, 258240, Note_off_c, 6, 57, 95
4, 258240, Note_off_c, 6, 53, 95
4, 258240, Note_on_c, 6, 64, 95
4, 258240, Note_on_c, 6, 60, 95
4, 258240, Note_on_c, 6, 55, 95
4, 258240, Note_on_c, 6, 52, 95
4, 258240, Note_on_c, 6, 48, 95
4, 258720, Note_off_c, 6, 64, 95
4, 258720, Note_off_c, 6, 60, 95
4, 258720, Note_off_c, 6, 55, 95
4, 258720, Note_off_c, 6, 52, 95
4, 258720, Note_off_c, 6, 48, 95
4, 258720, Note_on_c, 6, 69, 95
4, 258720, Note_on_c, 6, 65, 95
4, 258720, Note_on_c, 6, 60, 95
4, 258720, Note_on_c, 6, 57, 95
4, 258720, Note_on_c, 6, 53, 95
4, 259680, Note_off_c, 6, 69, 95
4, 259680, Note_off_c, 6, 65, 95
4, 259680, Note_off_c, 6, 60, 95
4, 259680, Note_off_c, 6, 57, 95
4, 259680, Note_off_c, 6, 53, 95
4, 259680, Note_on_c, 6, 69, 95
4, 259680, Note_on_c, 6, 65, 95
4, 259680, Note_on_c, 6, 60, 95
4, 259680, Note_on_c, 6, 57, 95
4, 259680, Note_on_c, 6, 53, 95
4, 260160, Note_off_c, 6, 69, 95
4, 260160, Note_off_c, 6, 65, 95
4, 260160, Note_off_c, 6, 60, 95
4, 260160, Note_off_c, 6, 57, 95
4, 260160, Note_off_c, 6, 53, 95
4, 260160, Note_on_c, 6, 64, 95
4, 260160, Note_on_c, 6, 60, 95
4, 260160, Note_on_c, 6, 55, 95
4, 260160, Note_on_c, 6, 52, 95
4, 260160, Note_on_c, 6, 48, 95
4, 260640, Note_off_c, 6, 64, 95
4, 260640, Note_off_c, 6, 60, 95
4, 260640, Note_off_c, 6, 55, 95
4, 260640, Note_off_c, 6, 52, 95
4, 260640, Note_off_c, 6, 48, 95
4, 260640, Note_on_c, 6, 69, 95
4, 260640, Note_on_c, 6, 65, 95
4, 260640, Note_on_c, 6, 60, 95
4, 260640, Note_on_c, 6, 57, 95
4, 260640, Note_on_c, 6, 53, 95
4, 261120, Note_off_c, 6, 69, 95
4, 261120, Note_off_c, 6, 65, 95
4, 261120, Note_off_c, 6, 60, 95
4, 261120, Note_off_c, 6, 57, 95
4, 261120, Note_off_c, 6, 53, 95
4, 261120, Note_on_c, 6, 69, 95
4, 261120, Note_on_c, 6, 65, 95
4, 261120, Note_on_c, 6, 60, 95
4, 261120, Note_on_c, 6, 57, 95
4, 261120, Note_on_c, 6, 53, 95
4, 261600, Note_off_c, 6, 69, 95
4, 261600, Note_off_c, 6, 65, 95
4, 261600, Note_off_c, 6, 60, 95
4, 261600, Note_off_c, 6, 57, 95
4, 261600, Note_off_c, 6, 53, 95
4, 261600, Note_on_c, 6, 69, 95
4, 261600, Note_on_c, 6, 65, 95
4, 261600, Note_on_c, 6, 60, 95
4, 261600, Note_on_c, 6, 57, 95
4, 261600, Note_on_c, 6, 53, 95
4, 262080, Note_off_c, 6, 69, 95
4, 262080, Note_off_c, 6, 65, 95
4, 262080, Note_off_c, 6, 60, 95
4, 262080, Note_off_c, 6, 57, 95
4, 262080, Note_off_c, 6, 53, 95
4, 262080, Note_on_c, 6, 69, 95
4, 262080, Note_on_c, 6, 65, 95
4, 262080, Note_on_c, 6, 60, 95
4, 262080, Note_on_c, 6, 57, 95
4, 262080, Note_on_c, 6, 53, 95
4, 262560, Note_off_c, 6, 69, 95
4, 262560, Note_off_c, 6, 65, 95
4, 262560, Note_off_c, 6, 60, 95
4, 262560, Note_off_c, 6, 57, 95
4, 262560, Note_off_c, 6, 53, 95
4, 262560, Note_on_c, 6, 64, 95
4, 262560, Note_on_c, 6, 60, 95
4, 262560, Note_on_c, 6, 55, 95
4, 262560, Note_on_c, 6, 52, 95
4, 262560, Note_on_c, 6, 48, 95
4, 263040, Note_off_c, 6, 64, 95
4, 263040, Note_off_c, 6, 60, 95
4, 263040, Note_off_c, 6, 55, 95
4, 263040, Note_off_c, 6, 52, 95
4, 263040, Note_off_c, 6, 48, 95
4, 263040, Note_on_c, 6, 64, 95
4, 263040, Note_on_c, 6, 60, 95
4, 263040, Note_on_c, 6, 55, 95
4, 263040, Note_on_c, 6, 52, 95
4, 263040, Note_on_c, 6, 48, 95
4, 263520, Note_off_c, 6, 64, 95
4, 263520, Note_off_c, 6, 60, 95
4, 263520, Note_off_c, 6, 55, 95
4, 263520, Note_off_c, 6, 52, 95
4, 263520, Note_off_c, 6, 48, 95
4, 263520, Note_on_c, 6, 64, 95
4, 263520, Note_on_c, 6, 60, 95
4, 263520, Note_on_c, 6, 55, 95
4, 263520, Note_on_c, 6, 52, 95
4, 263520, Note_on_c, 6, 48, 95
4, 264000, Note_off_c, 6, 64, 95
4, 264000, Note_off_c, 6, 60, 95
4, 264000, Note_off_c, 6, 55, 95
4, 264000, Note_off_c, 6, 52, 95
4, 264000, Note_off_c, 6, 48, 95
4, 264000, Note_on_c, 6, 64, 95
4, 264000, Note_on_c, 6, 60, 95
4, 264000, Note_on_c, 6, 55, 95
4, 264000, Note_on_c, 6, 52, 95
4, 264000, Note_on_c, 6, 48, 95
4, 264480, Note_off_c, 6, 64, 95
4, 264480, Note_off_c, 6, 60, 95
4, 264480, Note_off_c, 6, 55, 95
4, 264480, Note_off_c, 6, 52, 95
4, 264480, Note_off_c, 6, 48, 95
4, 264480, Note_on_c, 6, 64, 95
4, 264480, Note_on_c, 6, 60, 95
4, 264480, Note_on_c, 6, 55, 95
4, 264480, Note_on_c, 6, 52, 95
4, 264480, Note_on_c, 6, 48, 95
4, 264960, Note_off_c, 6, 64, 95
4, 264960, Note_off_c, 6, 60, 95
4, 264960, Note_off_c, 6, 55, 95
4, 264960, Note_off_c, 6, 52, 95
4, 264960, Note_off_c, 6, 48, 95
4, 264960, Note_on_c, 6, 69, 95
4, 264960, Note_on_c, 6, 65, 95
4, 264960, Note_on_c, 6, 60, 95
4, 264960, Note_on_c, 6, 57, 95
4, 264960, Note_on_c, 6, 53, 95
4, 265440, Note_off_c, 6, 69, 95
4, 265440, Note_off_c, 6, 65, 95
4, 265440, Note_off_c, 6, 60, 95
4, 265440, Note_off_c, 6, 57, 95
4, 265440, Note_off_c, 6, 53, 95
4, 265440, Note_on_c, 6, 69, 95
4, 265440, Note_on_c, 6, 65, 95
4, 265440, Note_on_c, 6, 60, 95
4, 265440, Note_on_c, 6, 57, 95
4, 265440, Note_on_c, 6, 53, 95
4, 265920, Note_off_c, 6, 69, 95
4, 265920, Note_off_c, 6, 65, 95
4, 265920, Note_off_c, 6, 60, 95
4, 265920, Note_off_c, 6, 57, 95
4, 265920, Note_off_c, 6, 53, 95
4, 265920, Note_on_c, 6, 69, 95
4, 265920, Note_on_c, 6, 65, 95
4, 265920, Note_on_c, 6, 60, 95
4, 265920, Note_on_c, 6, 57, 95
4, 265920, Note_on_c, 6, 53, 95
4, 266400, Note_off_c, 6, 69, 95
4, 266400, Note_off_c, 6, 65, 95
4, 266400, Note_off_c, 6, 60, 95
4, 266400, Note_off_c, 6, 57, 95
4, 266400, Note_off_c, 6, 53, 95
4, 266400, Note_on_c, 6, 69, 95
4, 266400, Note_on_c, 6, 65, 95
4, 266400, Note_on_c, 6, 60, 95
4, 266400, Note_on_c, 6, 57, 95
4, 266400, Note_on_c, 6, 53, 95
4, 266880, Note_off_c, 6, 69, 95
4, 266880, Note_off_c, 6, 65, 95
4, 266880, Note_off_c, 6, 60, 95
4, 266880, Note_off_c, 6, 57, 95
4, 266880, Note_off_c, 6, 53, 95
4, 266880, Note_on_c, 6, 69, 95
4, 266880, Note_on_c, 6, 65, 95
4, 266880, Note_on_c, 6, 60, 95
4, 266880, Note_on_c, 6, 57, 95
4, 266880, Note_on_c, 6, 53, 95
4, 267360, Note_off_c, 6, 69, 95
4, 267360, Note_off_c, 6, 65, 95
4, 267360, Note_off_c, 6, 60, 95
4, 267360, Note_off_c, 6, 57, 95
4, 267360, Note_off_c, 6, 53, 95
4, 267360, Note_on_c, 6, 60, 95
4, 267840, Note_off_c, 6, 60, 95
4, 267840, Note_on_c, 6, 61, 95
4, 268320, Note_off_c, 6, 61, 95
4, 268320, Note_on_c, 6, 71, 95
4, 268320, Note_on_c, 6, 67, 95
4, 268320, Note_on_c, 6, 62, 95
4, 268320, Note_on_c, 6, 55, 95
4, 269280, Note_off_c, 6, 71, 95
4, 269280, Note_off_c, 6, 67, 95
4, 269280, Note_off_c, 6, 62, 95
4, 269280, Note_off_c, 6, 55, 95
4, 269280, Note_on_c, 6, 71, 95
4, 269280, Note_on_c, 6, 67, 95
4, 269280, Note_on_c, 6, 62, 95
4, 269280, Note_on_c, 6, 55, 95
4, 269760, Note_off_c, 6, 71, 95
4, 269760, Note_off_c, 6, 67, 95
4, 269760, Note_off_c, 6, 62, 95
4, 269760, Note_off_c, 6, 55, 95
4, 269760, Note_on_c, 6, 71, 95
4, 269760, Note_on_c, 6, 67, 95
4, 269760, Note_on_c, 6, 62, 95
4, 269760, Note_on_c, 6, 55, 95
4, 270240, Note_off_c, 6, 71, 95
4, 270240, Note_off_c, 6, 67, 95
4, 270240, Note_off_c, 6, 62, 95
4, 270240, Note_off_c, 6, 55, 95
4, 270240, Note_on_c, 6, 71, 95
4, 270240, Note_on_c, 6, 67, 95
4, 270240, Note_on_c, 6, 62, 95
4, 270240, Note_on_c, 6, 55, 95
4, 270720, Note_off_c, 6, 71, 95
4, 270720, Note_off_c, 6, 67, 95
4, 270720, Note_off_c, 6, 62, 95
4, 270720, Note_off_c, 6, 55, 95
4, 270720, Note_on_c, 6, 71, 95
4, 270720, Note_on_c, 6, 67, 95
4, 270720, Note_on_c, 6, 62, 95
4, 270720, Note_on_c, 6, 55, 95
4, 271200, Note_off_c, 6, 71, 95
4, 271200, Note_off_c, 6, 67, 95
4, 271200, Note_off_c, 6, 62, 95
4, 271200, Note_off_c, 6, 55, 95
4, 271200, Note_on_c, 6, 71, 95
4, 271200, Note_on_c, 6, 67, 95
4, 271200, Note_on_c, 6, 62, 95
4, 271200, Note_on_c, 6, 55, 95
4, 271680, Note_off_c, 6, 71, 95
4, 271680, Note_off_c, 6, 67, 95
4, 271680, Note_off_c, 6, 62, 95
4, 271680, Note_off_c, 6, 55, 95
4, 271680, Note_on_c, 6, 71, 95
4, 271680, Note_on_c, 6, 67, 95
4, 271680, Note_on_c, 6, 62, 95
4, 271680, Note_on_c, 6, 55, 95
4, 272160, Note_off_c, 6, 71, 95
4, 272160, Note_off_c, 6, 67, 95
4, 272160, Note_off_c, 6, 62, 95
4, 272160, Note_off_c, 6, 55, 95
4, 272160, Note_on_c, 6, 71, 95
4, 272160, Note_on_c, 6, 67, 95
4, 272160, Note_on_c, 6, 62, 95
4, 272160, Note_on_c, 6, 55, 95
4, 272640, Note_off_c, 6, 71, 95
4, 272640, Note_off_c, 6, 67, 95
4, 272640, Note_off_c, 6, 62, 95
4, 272640, Note_off_c, 6, 55, 95
4, 272640, Note_on_c, 6, 72, 95
4, 272640, Note_on_c, 6, 64, 95
4, 272640, Note_on_c, 6, 60, 95
4, 272640, Note_on_c, 6, 55, 95
4, 272640, Note_on_c, 6, 52, 95
4, 272640, Note_on_c, 6, 48, 95
4, 273120, Note_off_c, 6, 72, 95
4, 273120, Note_off_c, 6, 64, 95
4, 273120, Note_off_c, 6, 60, 95
4, 273120, Note_off_c, 6, 55, 95
4, 273120, Note_off_c, 6, 52, 95
4, 273120, Note_off_c, 6, 48, 95
4, 273120, Note_on_c, 6, 72, 95
4, 273120, Note_on_c, 6, 64, 95
4, 273120, Note_on_c, 6, 60, 95
4, 273120, Note_on_c, 6, 55, 95
4, 273120, Note_on_c, 6, 52, 95
4, 273120, Note_on_c, 6, 48, 95
4, 273600, Note_off_c, 6, 72, 95
4, 273600, Note_off_c, 6, 64, 95
4, 273600, Note_off_c, 6, 60, 95
4, 273600, Note_off_c, 6, 55, 95
4, 273600, Note_off_c, 6, 52, 95
4, 273600, Note_off_c, 6, 48, 95
4, 273600, Note_on_c, 6, 72, 95
4, 273600, Note_on_c, 6, 64, 95
4, 273600, Note_on_c, 6, 60, 95
4, 273600, Note_on_c, 6, 55, 95
4, 273600, Note_on_c, 6, 52, 95
4, 273600, Note_on_c, 6, 48, 95
4, 274080, Note_off_c, 6, 72, 95
4, 274080, Note_off_c, 6, 64, 95
4, 274080, Note_off_c, 6, 60, 95
4, 274080, Note_off_c, 6, 55, 95
4, 274080, Note_off_c, 6, 52, 95
4, 274080, Note_off_c, 6, 48, 95
4, 274080, Note_on_c, 6, 72, 95
4, 274080, Note_on_c, 6, 64, 95
4, 274080, Note_on_c, 6, 60, 95
4, 274080, Note_on_c, 6, 55, 95
4, 274080, Note_on_c, 6, 52, 95
4, 274080, Note_on_c, 6, 48, 95
4, 274560, Note_off_c, 6, 72, 95
4, 274560, Note_off_c, 6, 64, 95
4, 274560, Note_off_c, 6, 60, 95
4, 274560, Note_off_c, 6, 55, 95
4, 274560, Note_off_c, 6, 52, 95
4, 274560, Note_off_c, 6, 48, 95
4, 274560, Note_on_c, 6, 72, 95
4, 274560, Note_on_c, 6, 64, 95
4, 274560, Note_on_c, 6, 60, 95
4, 274560, Note_on_c, 6, 55, 95
4, 274560, Note_on_c, 6, 52, 95
4, 274560, Note_on_c, 6, 48, 95
4, 275040, Note_off_c, 6, 72, 95
4, 275040, Note_off_c, 6, 64, 95
4, 275040, Note_off_c, 6, 60, 95
4, 275040, Note_off_c, 6, 55, 95
4, 275040, Note_off_c, 6, 52, 95
4, 275040, Note_off_c, 6, 48, 95
4, 275040, Note_on_c, 6, 72, 95
4, 275040, Note_on_c, 6, 64, 95
4, 275040, Note_on_c, 6, 60, 95
4, 275040, Note_on_c, 6, 55, 95
4, 275040, Note_on_c, 6, 52, 95
4, 275040, Note_on_c, 6, 48, 95
4, 275520, Note_off_c, 6, 72, 95
4, 275520, Note_off_c, 6, 64, 95
4, 275520, Note_off_c, 6, 60, 95
4, 275520, Note_off_c, 6, 55, 95
4, 275520, Note_off_c, 6, 52, 95
4, 275520, Note_off_c, 6, 48, 95
4, 275520, Note_on_c, 6, 72, 95
4, 275520, Note_on_c, 6, 64, 95
4, 275520, Note_on_c, 6, 60, 95
4, 275520, Note_on_c, 6, 55, 95
4, 275520, Note_on_c, 6, 52, 95
4, 275520, Note_on_c, 6, 48, 95
4, 276000, Note_off_c, 6, 72, 95
4, 276000, Note_off_c, 6, 64, 95
4, 276000, Note_off_c, 6, 60, 95
4, 276000, Note_off_c, 6, 55, 95
4, 276000, Note_off_c, 6, 52, 95
4, 276000, Note_off_c, 6, 48, 95
4, 276000, Note_on_c, 6, 72, 95
4, 276000, Note_on_c, 6, 64, 95
4, 276000, Note_on_c, 6, 60, 95
4, 276000, Note_on_c, 6, 55, 95
4, 276000, Note_on_c, 6, 52, 95
4, 276000, Note_on_c, 6, 48, 95
4, 276480, Note_off_c, 6, 72, 95
4, 276480, Note_off_c, 6, 64, 95
4, 276480, Note_off_c, 6, 60, 95
4, 276480, Note_off_c, 6, 55, 95
4, 276480, Note_off_c, 6, 52, 95
4, 276480, Note_off_c, 6, 48, 95
4, 276480, Note_on_c, 6, 71, 95
4, 276480, Note_on_c, 6, 67, 95
4, 276480, Note_on_c, 6, 62, 95
4, 276480, Note_on_c, 6, 55, 95
4, 276960, Note_off_c, 6, 71, 95
4, 276960, Note_off_c, 6, 67, 95
4, 276960, Note_off_c, 6, 62, 95
4, 276960, Note_off_c, 6, 55, 95
4, 276960, Note_on_c, 6, 71, 95
4, 276960, Note_on_c, 6, 67, 95
4, 276960, Note_on_c, 6, 62, 95
4, 276960, Note_on_c, 6, 55, 95
4, 277440, Note_off_c, 6, 71, 95
4, 277440, Note_off_c, 6, 67, 95
4, 277440, Note_off_c, 6, 62, 95
4, 277440, Note_off_c, 6, 55, 95
4, 277440, Note_on_c, 6, 71, 95
4, 277440, Note_on_c, 6, 67, 95
4, 277440, Note_on_c, 6, 62, 95
4, 277440, Note_on_c, 6, 55, 95
4, 277920, Note_off_c, 6, 71, 95
4, 277920, Note_off_c, 6, 67, 95
4, 277920, Note_off_c, 6, 62, 95
4, 277920, Note_off_c, 6, 55, 95
4, 277920, Note_on_c, 6, 71, 95
4, 277920, Note_on_c, 6, 67, 95
4, 277920, Note_on_c, 6, 62, 95
4, 277920, Note_on_c, 6, 55, 95
4, 278400, Note_off_c, 6, 71, 95
4, 278400, Note_off_c, 6, 67, 95
4, 278400, Note_off_c, 6, 62, 95
4, 278400, Note_off_c, 6, 55, 95
4, 278400, Note_on_c, 6, 71, 95
4, 278400, Note_on_c, 6, 67, 95
4, 278400, Note_on_c, 6, 62, 95
4, 278400, Note_on_c, 6, 55, 95
4, 278880, Note_off_c, 6, 71, 95
4, 278880, Note_off_c, 6, 67, 95
4, 278880, Note_off_c, 6, 62, 95
4, 278880, Note_off_c, 6, 55, 95
4, 278880, Note_on_c, 6, 71, 95
4, 278880, Note_on_c, 6, 67, 95
4, 278880, Note_on_c, 6, 62, 95
4, 278880, Note_on_c, 6, 55, 95
4, 279360, Note_off_c, 6, 71, 95
4, 279360, Note_off_c, 6, 67, 95
4, 279360, Note_off_c, 6, 62, 95
4, 279360, Note_off_c, 6, 55, 95
4, 279360, Note_on_c, 6, 71, 95
4, 279360, Note_on_c, 6, 67, 95
4, 279360, Note_on_c, 6, 62, 95
4, 279360, Note_on_c, 6, 55, 95
4, 279840, Note_off_c, 6, 71, 95
4, 279840, Note_off_c, 6, 67, 95
4, 279840, Note_off_c, 6, 62, 95
4, 279840, Note_off_c, 6, 55, 95
4, 279840, Note_on_c, 6, 71, 95
4, 279840, Note_on_c, 6, 67, 95
4, 279840, Note_on_c, 6, 62, 95
4, 279840, Note_on_c, 6, 55, 95
4, 280320, Note_off_c, 6, 71, 95
4, 280320, Note_off_c, 6, 67, 95
4, 280320, Note_off_c, 6, 62, 95
4, 280320, Note_off_c, 6, 55, 95
4, 280320, Note_on_c, 6, 72, 95
4, 280320, Note_on_c, 6, 64, 95
4, 280320, Note_on_c, 6, 60, 95
4, 280320, Note_on_c, 6, 55, 95
4, 280320, Note_on_c, 6, 52, 95
4, 280320, Note_on_c, 6, 48, 95
4, 280800, Note_off_c, 6, 72, 95
4, 280800, Note_off_c, 6, 64, 95
4, 280800, Note_off_c, 6, 60, 95
4, 280800, Note_off_c, 6, 55, 95
4, 280800, Note_off_c, 6, 52, 95
4, 280800, Note_off_c, 6, 48, 95
4, 280800, Note_on_c, 6, 72, 95
4, 280800, Note_on_c, 6, 64, 95
4, 280800, Note_on_c, 6, 60, 95
4, 280800, Note_on_c, 6, 55, 95
4, 280800, Note_on_c, 6, 52, 95
4, 280800, Note_on_c, 6, 48, 95
4, 281280, Note_off_c, 6, 72, 95
4, 281280, Note_off_c, 6, 64, 95
4, 281280, Note_off_c, 6, 60, 95
4, 281280, Note_off_c, 6, 55, 95
4, 281280, Note_off_c, 6, 52, 95
4, 281280, Note_off_c, 6, 48, 95
4, 281280, Note_on_c, 6, 72, 95
4, 281280, Note_on_c, 6, 64, 95
4, 281280, Note_on_c, 6, 60, 95
4, 281280, Note_on_c, 6, 55, 95
4, 281280, Note_on_c, 6, 52, 95
4, 281280, Note_on_c, 6, 48, 95
4, 281760, Note_off_c, 6, 72, 95
4, 281760, Note_off_c, 6, 64, 95
4, 281760, Note_off_c, 6, 60, 95
4, 281760, Note_off_c, 6, 55, 95
4, 281760, Note_off_c, 6, 52, 95
4, 281760, Note_off_c, 6, 48, 95
4, 281760, Note_on_c, 6, 72, 95
4, 281760, Note_on_c, 6, 64, 95
4, 281760, Note_on_c, 6, 60, 95
4, 281760, Note_on_c, 6, 55, 95
4, 281760, Note_on_c, 6, 52, 95
4, 281760, Note_on_c, 6, 48, 95
4, 282240, Note_off_c, 6, 72, 95
4, 282240, Note_off_c, 6, 64, 95
4, 282240, Note_off_c, 6, 60, 95
4, 282240, Note_off_c, 6, 55, 95
4, 282240, Note_off_c, 6, 52, 95
4, 282240, Note_off_c, 6, 48, 95
4, 282240, Note_on_c, 6, 72, 95
4, 282240, Note_on_c, 6, 64, 95
4, 282240, Note_on_c, 6, 60, 95
4, 282240, Note_on_c, 6, 55, 95
4, 282240, Note_on_c, 6, 52, 95
4, 282240, Note_on_c, 6, 48, 95
4, 282720, Note_off_c, 6, 72, 95
4, 282720, Note_off_c, 6, 64, 95
4, 282720, Note_off_c, 6, 60, 95
4, 282720, Note_off_c, 6, 55, 95
4, 282720, Note_off_c, 6, 52, 95
4, 282720, Note_off_c, 6, 48, 95
4, 282720, Note_on_c, 6, 72, 95
4, 282720, Note_on_c, 6, 64, 95
4, 282720, Note_on_c, 6, 60, 95
4, 282720, Note_on_c, 6, 55, 95
4, 282720, Note_on_c, 6, 52, 95
4, 282720, Note_on_c, 6, 48, 95
4, 283200, Note_off_c, 6, 72, 95
4, 283200, Note_off_c, 6, 64, 95
4, 283200, Note_off_c, 6, 60, 95
4, 283200, Note_off_c, 6, 55, 95
4, 283200, Note_off_c, 6, 52, 95
4, 283200, Note_off_c, 6, 48, 95
4, 283200, Note_on_c, 6, 72, 95
4, 283200, Note_on_c, 6, 64, 95
4, 283200, Note_on_c, 6, 60, 95
4, 283200, Note_on_c, 6, 55, 95
4, 283200, Note_on_c, 6, 52, 95
4, 283200, Note_on_c, 6, 48, 95
4, 283680, Note_off_c, 6, 72, 95
4, 283680, Note_off_c, 6, 64, 95
4, 283680, Note_off_c, 6, 60, 95
4, 283680, Note_off_c, 6, 55, 95
4, 283680, Note_off_c, 6, 52, 95
4, 283680, Note_off_c, 6, 48, 95
4, 283680, Note_on_c, 6, 72, 95
4, 283680, Note_on_c, 6, 64, 95
4, 283680, Note_on_c, 6, 60, 95
4, 283680, Note_on_c, 6, 55, 95
4, 283680, Note_on_c, 6, 52, 95
4, 283680, Note_on_c, 6, 48, 95
4, 284160, Note_off_c, 6, 72, 95
4, 284160, Note_off_c, 6, 64, 95
4, 284160, Note_off_c, 6, 60, 95
4, 284160, Note_off_c, 6, 55, 95
4, 284160, Note_off_c, 6, 52, 95
4, 284160, Note_off_c, 6, 48, 95
4, 284160, Note_on_c, 6, 71, 95
4, 284160, Note_on_c, 6, 67, 95
4, 284160, Note_on_c, 6, 62, 95
4, 284160, Note_on_c, 6, 55, 95
4, 284640, Note_off_c, 6, 71, 95
4, 284640, Note_off_c, 6, 67, 95
4, 284640, Note_off_c, 6, 62, 95
4, 284640, Note_off_c, 6, 55, 95
4, 284640, Note_on_c, 6, 71, 95
4, 284640, Note_on_c, 6, 67, 95
4, 284640, Note_on_c, 6, 62, 95
4, 284640, Note_on_c, 6, 55, 95
4, 285120, Note_off_c, 6, 71, 95
4, 285120, Note_off_c, 6, 67, 95
4, 285120, Note_off_c, 6, 62, 95
4, 285120, Note_off_c, 6, 55, 95
4, 285120, Note_on_c, 6, 71, 95
4, 285120, Note_on_c, 6, 67, 95
4, 285120, Note_on_c, 6, 62, 95
4, 285120, Note_on_c, 6, 55, 95
4, 285600, Note_off_c, 6, 71, 95
4, 285600, Note_off_c, 6, 67, 95
4, 285600, Note_off_c, 6, 62, 95
4, 285600, Note_off_c, 6, 55, 95
4, 285600, Note_on_c, 6, 71, 95
4, 285600, Note_on_c, 6, 67, 95
4, 285600, Note_on_c, 6, 62, 95
4, 285600, Note_on_c, 6, 55, 95
4, 286080, Note_off_c, 6, 71, 95
4, 286080, Note_off_c, 6, 67, 95
4, 286080, Note_off_c, 6, 62, 95
4, 286080, Note_off_c, 6, 55, 95
4, 286080, Note_on_c, 6, 71, 95
4, 286080, Note_on_c, 6, 67, 95
4, 286080, Note_on_c, 6, 62, 95
4, 286080, Note_on_c, 6, 55, 95
4, 286560, Note_off_c, 6, 71, 95
4, 286560, Note_off_c, 6, 67, 95
4, 286560, Note_off_c, 6, 62, 95
4, 286560, Note_off_c, 6, 55, 95
4, 286560, Note_on_c, 6, 71, 95
4, 286560, Note_on_c, 6, 67, 95
4, 286560, Note_on_c, 6, 62, 95
4, 286560, Note_on_c, 6, 55, 95
4, 287040, Note_off_c, 6, 71, 95
4, 287040, Note_off_c, 6, 67, 95
4, 287040, Note_off_c, 6, 62, 95
4, 287040, Note_off_c, 6, 55, 95
4, 287040, Note_on_c, 6, 71, 95
4, 287040, Note_on_c, 6, 67, 95
4, 287040, Note_on_c, 6, 62, 95
4, 287040, Note_on_c, 6, 55, 95
4, 287520, Note_off_c, 6, 71, 95
4, 287520, Note_off_c, 6, 67, 95
4, 287520, Note_off_c, 6, 62, 95
4, 287520, Note_off_c, 6, 55, 95
4, 287520, Note_on_c, 6, 71, 95
4, 287520, Note_on_c, 6, 67, 95
4, 287520, Note_on_c, 6, 62, 95
4, 287520, Note_on_c, 6, 55, 95
4, 288000, Note_off_c, 6, 71, 95
4, 288000, Note_off_c, 6, 67, 95
4, 288000, Note_off_c, 6, 62, 95
4, 288000, Note_off_c, 6, 55, 95
4, 288000, Note_on_c, 6, 72, 95
4, 288000, Note_on_c, 6, 64, 95
4, 288000, Note_on_c, 6, 60, 95
4, 288000, Note_on_c, 6, 55, 95
4, 288000, Note_on_c, 6, 52, 95
4, 288000, Note_on_c, 6, 48, 95
4, 288480, Note_off_c, 6, 72, 95
4, 288480, Note_off_c, 6, 64, 95
4, 288480, Note_off_c, 6, 60, 95
4, 288480, Note_off_c, 6, 55, 95
4, 288480, Note_off_c, 6, 52, 95
4, 288480, Note_off_c, 6, 48, 95
4, 288480, Note_on_c, 6, 72, 95
4, 288480, Note_on_c, 6, 64, 95
4, 288480, Note_on_c, 6, 60, 95
4, 288480, Note_on_c, 6, 55, 95
4, 288480, Note_on_c, 6, 52, 95
4, 288480, Note_on_c, 6, 48, 95
4, 288960, Note_off_c, 6, 72, 95
4, 288960, Note_off_c, 6, 64, 95
4, 288960, Note_off_c, 6, 60, 95
4, 288960, Note_off_c, 6, 55, 95
4, 288960, Note_off_c, 6, 52, 95
4, 288960, Note_off_c, 6, 48, 95
4, 288960, Note_on_c, 6, 72, 95
4, 288960, Note_on_c, 6, 64, 95
4, 288960, Note_on_c, 6, 60, 95
4, 288960, Note_on_c, 6, 55, 95
4, 288960, Note_on_c, 6, 52, 95
4, 288960, Note_on_c, 6, 48, 95
4, 289440, Note_off_c, 6, 72, 95
4, 289440, Note_off_c, 6, 64, 95
4, 289440, Note_off_c, 6, 60, 95
4, 289440, Note_off_c, 6, 55, 95
4, 289440, Note_off_c, 6, 52, 95
4, 289440, Note_off_c, 6, 48, 95
4, 289440, Note_on_c, 6, 72, 95
4, 289440, Note_on_c, 6, 64, 95
4, 289440, Note_on_c, 6, 60, 95
4, 289440, Note_on_c, 6, 55, 95
4, 289440, Note_on_c, 6, 52, 95
4, 289440, Note_on_c, 6, 48, 95
4, 289920, Note_off_c, 6, 72, 95
4, 289920, Note_off_c, 6, 64, 95
4, 289920, Note_off_c, 6, 60, 95
4, 289920, Note_off_c, 6, 55, 95
4, 289920, Note_off_c, 6, 52, 95
4, 289920, Note_off_c, 6, 48, 95
4, 289920, Note_on_c, 6, 72, 95
4, 289920, Note_on_c, 6, 64, 95
4, 289920, Note_on_c, 6, 60, 95
4, 289920, Note_on_c, 6, 55, 95
4, 289920, Note_on_c, 6, 52, 95
4, 289920, Note_on_c, 6, 48, 95
4, 290400, Note_off_c, 6, 72, 95
4, 290400, Note_off_c, 6, 64, 95
4, 290400, Note_off_c, 6, 60, 95
4, 290400, Note_off_c, 6, 55, 95
4, 290400, Note_off_c, 6, 52, 95
4, 290400, Note_off_c, 6, 48, 95
4, 290400, Note_on_c, 6, 72, 95
4, 290400, Note_on_c, 6, 64, 95
4, 290400, Note_on_c, 6, 60, 95
4, 290400, Note_on_c, 6, 55, 95
4, 290400, Note_on_c, 6, 52, 95
4, 290400, Note_on_c, 6, 48, 95
4, 290880, Note_off_c, 6, 72, 95
4, 290880, Note_off_c, 6, 64, 95
4, 290880, Note_off_c, 6, 60, 95
4, 290880, Note_off_c, 6, 55, 95
4, 290880, Note_off_c, 6, 52, 95
4, 290880, Note_off_c, 6, 48, 95
4, 290880, Note_on_c, 6, 72, 95
4, 290880, Note_on_c, 6, 64, 95
4, 290880, Note_on_c, 6, 60, 95
4, 290880, Note_on_c, 6, 55, 95
4, 290880, Note_on_c, 6, 52, 95
4, 290880, Note_on_c, 6, 48, 95
4, 291360, Note_off_c, 6, 72, 95
4, 291360, Note_off_c, 6, 64, 95
4, 291360, Note_off_c, 6, 60, 95
4, 291360, Note_off_c, 6, 55, 95
4, 291360, Note_off_c, 6, 52, 95
4, 291360, Note_off_c, 6, 48, 95
4, 291360, Note_on_c, 6, 72, 95
4, 291360, Note_on_c, 6, 64, 95
4, 291360, Note_on_c, 6, 60, 95
4, 291360, Note_on_c, 6, 55, 95
4, 291360, Note_on_c, 6, 52, 95
4, 291360, Note_on_c, 6, 48, 95
4, 291840, Note_off_c, 6, 72, 95
4, 291840, Note_off_c, 6, 64, 95
4, 291840, Note_off_c, 6, 60, 95
4, 291840, Note_off_c, 6, 55, 95
4, 291840, Note_off_c, 6, 52, 95
4, 291840, Note_off_c, 6, 48, 95
4, 291840, Note_on_c, 6, 71, 95
4, 291840, Note_on_c, 6, 67, 95
4, 291840, Note_on_c, 6, 62, 95
4, 291840, Note_on_c, 6, 55, 95
4, 292320, Note_off_c, 6, 71, 95
4, 292320, Note_off_c, 6, 67, 95
4, 292320, Note_off_c, 6, 62, 95
4, 292320, Note_off_c, 6, 55, 95
4, 292320, Note_on_c, 6, 71, 95
4, 292320, Note_on_c, 6, 67, 95
4, 292320, Note_on_c, 6, 62, 95
4, 292320, Note_on_c, 6, 55, 95
4, 292800, Note_off_c, 6, 71, 95
4, 292800, Note_off_c, 6, 67, 95
4, 292800, Note_off_c, 6, 62, 95
4, 292800, Note_off_c, 6, 55, 95
4, 292800, Note_on_c, 6, 71, 95
4, 292800, Note_on_c, 6, 67, 95
4, 292800, Note_on_c, 6, 62, 95
4, 292800, Note_on_c, 6, 55, 95
4, 293280, Note_off_c, 6, 71, 95
4, 293280, Note_off_c, 6, 67, 95
4, 293280, Note_off_c, 6, 62, 95
4, 293280, Note_off_c, 6, 55, 95
4, 293280, Note_on_c, 6, 71, 95
4, 293280, Note_on_c, 6, 67, 95
4, 293280, Note_on_c, 6, 62, 95
4, 293280, Note_on_c, 6, 55, 95
4, 293760, Note_off_c, 6, 71, 95
4, 293760, Note_off_c, 6, 67, 95
4, 293760, Note_off_c, 6, 62, 95
4, 293760, Note_off_c, 6, 55, 95
4, 293760, Note_on_c, 6, 71, 95
4, 293760, Note_on_c, 6, 67, 95
4, 293760, Note_on_c, 6, 62, 95
4, 293760, Note_on_c, 6, 55, 95
4, 294240, Note_off_c, 6, 71, 95
4, 294240, Note_off_c, 6, 67, 95
4, 294240, Note_off_c, 6, 62, 95
4, 294240, Note_off_c, 6, 55, 95
4, 294240, Note_on_c, 6, 71, 95
4, 294240, Note_on_c, 6, 67, 95
4, 294240, Note_on_c, 6, 62, 95
4, 294240, Note_on_c, 6, 55, 95
4, 294720, Note_off_c, 6, 71, 95
4, 294720, Note_off_c, 6, 67, 95
4, 294720, Note_off_c, 6, 62, 95
4, 294720, Note_off_c, 6, 55, 95
4, 294720, Note_on_c, 6, 71, 95
4, 294720, Note_on_c, 6, 67, 95
4, 294720, Note_on_c, 6, 62, 95
4, 294720, Note_on_c, 6, 55, 95
4, 295200, Note_off_c, 6, 71, 95
4, 295200, Note_off_c, 6, 67, 95
4, 295200, Note_off_c, 6, 62, 95
4, 295200, Note_off_c, 6, 55, 95
4, 295200, Note_on_c, 6, 71, 95
4, 295200, Note_on_c, 6, 67, 95
4, 295200, Note_on_c, 6, 62, 95
4, 295200, Note_on_c, 6, 55, 95
4, 295680, Note_off_c, 6, 71, 95
4, 295680, Note_off_c, 6, 67, 95
4, 295680, Note_off_c, 6, 62, 95
4, 295680, Note_off_c, 6, 55, 95
4, 295680, Note_on_c, 6, 69, 95
4, 295680, Note_on_c, 6, 66, 95
4, 295680, Note_on_c, 6, 62, 95
4, 295680, Note_on_c, 6, 57, 95
4, 295680, Note_on_c, 6, 50, 95
4, 296640, Note_off_c, 6, 69, 95
4, 296640, Note_off_c, 6, 66, 95
4, 296640, Note_off_c, 6, 62, 95
4, 296640, Note_off_c, 6, 57, 95
4, 296640, Note_off_c, 6, 50, 95
4, 296640, Note_on_c, 6, 69, 95
4, 296640, Note_on_c, 6, 66, 95
4, 296640, Note_on_c, 6, 62, 95
4, 296640, Note_on_c, 6, 57, 95
4, 296640, Note_on_c, 6, 50, 95
4, 298080, Note_off_c, 6, 69, 95
4, 298080, Note_off_c, 6, 66, 95
4, 298080, Note_off_c, 6, 62, 95
4, 298080, Note_off_c, 6, 57, 95
4, 298080, Note_off_c, 6, 50, 95
4, 298080, Note_on_c, 6, 69, 95
4, 298080, Note_on_c, 6, 66, 95
4, 298080, Note_on_c, 6, 62, 95
4, 298080, Note_on_c, 6, 57, 95
4, 298080, Note_on_c, 6, 50, 95
4, 299040, Note_off_c, 6, 69, 95
4, 299040, Note_off_c, 6, 66, 95
4, 299040, Note_off_c, 6, 62, 95
4, 299040, Note_off_c, 6, 57, 95
4, 299040, Note_off_c, 6, 50, 95
4, 299040, Note_on_c, 6, 69, 95
4, 299040, Note_on_c, 6, 66, 95
4, 299040, Note_on_c, 6, 62, 95
4, 299040, Note_on_c, 6, 57, 95
4, 299040, Note_on_c, 6, 50, 95
4, 299520, Note_off_c, 6, 69, 95
4, 299520, Note_off_c, 6, 66, 95
4, 299520, Note_off_c, 6, 62, 95
4, 299520, Note_off_c, 6, 57, 95
4, 299520, Note_off_c, 6, 50, 95
4, 299520, Note_on_c, 6, 69, 95
4, 299520, Note_on_c, 6, 66, 95
4, 299520, Note_on_c, 6, 62, 95
4, 299520, Note_on_c, 6, 57, 95
4, 299520, Note_on_c, 6, 50, 95
4, 300000, Note_off_c, 6, 69, 95
4, 300000, Note_off_c, 6, 66, 95
4, 300000, Note_off_c, 6, 62, 95
4, 300000, Note_off_c, 6, 57, 95
4, 300000, Note_off_c, 6, 50, 95
4, 300000, Note_on_c, 6, 69, 95
4, 300000, Note_on_c, 6, 66, 95
4, 300000, Note_on_c, 6, 62, 95
4, 300000, Note_on_c, 6, 57, 95
4, 300000, Note_on_c, 6, 50, 95
4, 300960, Note_off_c, 6, 69, 95
4, 300960, Note_off_c, 6, 66, 95
4, 300960, Note_off_c, 6, 62, 95
4, 300960, Note_off_c, 6, 57, 95
4, 300960, Note_off_c, 6, 50, 95
4, 300960, Note_on_c, 6, 69, 95
4, 300960, Note_on_c, 6, 66, 95
4, 300960, Note_on_c, 6, 62, 95
4, 300960, Note_on_c, 6, 57, 95
4, 300960, Note_on_c, 6, 50, 95
4, 301920, Note_off_c, 6, 69, 95
4, 301920, Note_off_c, 6, 66, 95
4, 301920, Note_off_c, 6, 62, 95
4, 301920, Note_off_c, 6, 57, 95
4, 301920, Note_off_c, 6, 50, 95
4, 301920, Note_on_c, 6, 69, 95
4, 301920, Note_on_c, 6, 66, 95
4, 301920, Note_on_c, 6, 62, 95
4, 301920, Note_on_c, 6, 57, 95
4, 301920, Note_on_c, 6, 50, 95
4, 302880, Note_off_c, 6, 69, 95
4, 302880, Note_off_c, 6, 66, 95
4, 302880, Note_off_c, 6, 62, 95
4, 302880, Note_off_c, 6, 57, 95
4, 302880, Note_off_c, 6, 50, 95
4, 302880, Note_on_c, 6, 69, 95
4, 302880, Note_on_c, 6, 66, 95
4, 302880, Note_on_c, 6, 62, 95
4, 302880, Note_on_c, 6, 57, 95
4, 302880, Note_on_c, 6, 50, 95
4, 303360, Note_off_c, 6, 69, 95
4, 303360, Note_off_c, 6, 66, 95
4, 303360, Note_off_c, 6, 62, 95
4, 303360, Note_off_c, 6, 57, 95
4, 303360, Note_off_c, 6, 50, 95
4, 303360, Note_on_c, 6, 69, 95
4, 303360, Note_on_c, 6, 66, 95
4, 303360, Note_on_c, 6, 62, 95
4, 303360, Note_on_c, 6, 57, 95
4, 303360, Note_on_c, 6, 50, 95
4, 304320, Note_off_c, 6, 69, 95
4, 304320, Note_off_c, 6, 66, 95
4, 304320, Note_off_c, 6, 62, 95
4, 304320, Note_off_c, 6, 57, 95
4, 304320, Note_off_c, 6, 50, 95
4, 304320, Note_on_c, 6, 69, 95
4, 304320, Note_on_c, 6, 66, 95
4, 304320, Note_on_c, 6, 62, 95
4, 304320, Note_on_c, 6, 57, 95
4, 304320, Note_on_c, 6, 50, 95
4, 305280, Note_off_c, 6, 69, 95
4, 305280, Note_off_c, 6, 66, 95
4, 305280, Note_off_c, 6, 62, 95
4, 305280, Note_off_c, 6, 57, 95
4, 305280, Note_off_c, 6, 50, 95
4, 305280, Note_on_c, 6, 69, 95
4, 305280, Note_on_c, 6, 66, 95
4, 305280, Note_on_c, 6, 62, 95
4, 305280, Note_on_c, 6, 57, 95
4, 305280, Note_on_c, 6, 50, 95
4, 305760, Note_off_c, 6, 69, 95
4, 305760, Note_off_c, 6, 66, 95
4, 305760, Note_off_c, 6, 62, 95
4, 305760, Note_off_c, 6, 57, 95
4, 305760, Note_off_c, 6, 50, 95
4, 305760, Note_on_c, 6, 69, 95
4, 305760, Note_on_c, 6, 66, 95
4, 305760, Note_on_c, 6, 62, 95
4, 305760, Note_on_c, 6, 57, 95
4, 305760, Note_on_c, 6, 50, 95
4, 306720, Note_off_c, 6, 69, 95
4, 306720, Note_off_c, 6, 66, 95
4, 306720, Note_off_c, 6, 62, 95
4, 306720, Note_off_c, 6, 57, 95
4, 306720, Note_off_c, 6, 50, 95
4, 306720, Note_on_c, 6, 69, 95
4, 306720, Note_on_c, 6, 66, 95
4, 306720, Note_on_c, 6, 62, 95
4, 306720, Note_on_c, 6, 57, 95
4, 306720, Note_on_c, 6, 50, 95
4, 307200, Note_off_c, 6, 69, 95
4, 307200, Note_off_c, 6, 66, 95
4, 307200, Note_off_c, 6, 62, 95
4, 307200, Note_off_c, 6, 57, 95
4, 307200, Note_off_c, 6, 50, 95
4, 307200, Note_on_c, 6, 69, 95
4, 307200, Note_on_c, 6, 66, 95
4, 307200, Note_on_c, 6, 62, 95
4, 307200, Note_on_c, 6, 57, 95
4, 307200, Note_on_c, 6, 50, 95
4, 307680, Note_off_c, 6, 69, 95
4, 307680, Note_off_c, 6, 66, 95
4, 307680, Note_off_c, 6, 62, 95
4, 307680, Note_off_c, 6, 57, 95
4, 307680, Note_off_c, 6, 50, 95
4, 307680, Note_on_c, 6, 69, 95
4, 307680, Note_on_c, 6, 66, 95
4, 307680, Note_on_c, 6, 62, 95
4, 307680, Note_on_c, 6, 57, 95
4, 307680, Note_on_c, 6, 50, 95
4, 308640, Note_off_c, 6, 69, 95
4, 308640, Note_off_c, 6, 66, 95
4, 308640, Note_off_c, 6, 62, 95
4, 308640, Note_off_c, 6, 57, 95
4, 308640, Note_off_c, 6, 50, 95
4, 308640, Note_on_c, 6, 69, 95
4, 308640, Note_on_c, 6, 66, 95
4, 308640, Note_on_c, 6, 62, 95
4, 308640, Note_on_c, 6, 57, 95
4, 308640, Note_on_c, 6, 50, 95
4, 309600, Note_off_c, 6, 69, 95
4, 309600, Note_off_c, 6, 66, 95
4, 309600, Note_off_c, 6, 62, 95
4, 309600, Note_off_c, 6, 57, 95
4, 309600, Note_off_c, 6, 50, 95
4, 309600, Note_on_c, 6, 69, 95
4, 309600, Note_on_c, 6, 66, 95
4, 309600, Note_on_c, 6, 62, 95
4, 309600, Note_on_c, 6, 57, 95
4, 309600, Note_on_c, 6, 50, 95
4, 310560, Note_off_c, 6, 69, 95
4, 310560, Note_off_c, 6, 66, 95
4, 310560, Note_off_c, 6, 62, 95
4, 310560, Note_off_c, 6, 57, 95
4, 310560, Note_off_c, 6, 50, 95
4, 310560, Note_on_c, 6, 69, 95
4, 310560, Note_on_c, 6, 66, 95
4, 310560, Note_on_c, 6, 62, 95
4, 310560, Note_on_c, 6, 57, 95
4, 310560, Note_on_c, 6, 50, 95
4, 311040, Note_off_c, 6, 69, 95
4, 311040, Note_off_c, 6, 66, 95
4, 311040, Note_off_c, 6, 62, 95
4, 311040, Note_off_c, 6, 57, 95
4, 311040, Note_off_c, 6, 50, 95
4, 311040, Note_on_c, 6, 72, 95
4, 311040, Note_on_c, 6, 64, 95
4, 311040, Note_on_c, 6, 60, 95
4, 311040, Note_on_c, 6, 55, 95
4, 311040, Note_on_c, 6, 52, 95
4, 311040, Note_on_c, 6, 48, 95
4, 311520, Note_off_c, 6, 72, 95
4, 311520, Note_off_c, 6, 64, 95
4, 311520, Note_off_c, 6, 60, 95
4, 311520, Note_off_c, 6, 55, 95
4, 311520, Note_off_c, 6, 52, 95
4, 311520, Note_off_c, 6, 48, 95
4, 311520, Note_on_c, 6, 72, 95
4, 311520, Note_on_c, 6, 64, 95
4, 311520, Note_on_c, 6, 60, 95
4, 311520, Note_on_c, 6, 55, 95
4, 311520, Note_on_c, 6, 52, 95
4, 311520, Note_on_c, 6, 48, 95
4, 312000, Note_off_c, 6, 72, 95
4, 312000, Note_off_c, 6, 64, 95
4, 312000, Note_off_c, 6, 60, 95
4, 312000, Note_off_c, 6, 55, 95
4, 312000, Note_off_c, 6, 52, 95
4, 312000, Note_off_c, 6, 48, 95
4, 312000, Note_on_c, 6, 72, 95
4, 312000, Note_on_c, 6, 64, 95
4, 312000, Note_on_c, 6, 60, 95
4, 312000, Note_on_c, 6, 55, 95
4, 312000, Note_on_c, 6, 52, 95
4, 312000, Note_on_c, 6, 48, 95
4, 312480, Note_off_c, 6, 72, 95
4, 312480, Note_off_c, 6, 64, 95
4, 312480, Note_off_c, 6, 60, 95
4, 312480, Note_off_c, 6, 55, 95
4, 312480, Note_off_c, 6, 52, 95
4, 312480, Note_off_c, 6, 48, 95
4, 312480, Note_on_c, 6, 72, 95
4, 312480, Note_on_c, 6, 64, 95
4, 312480, Note_on_c, 6, 60, 95
4, 312480, Note_on_c, 6, 55, 95
4, 312480, Note_on_c, 6, 52, 95
4, 312480, Note_on_c, 6, 48, 95
4, 312960, Note_off_c, 6, 72, 95
4, 312960, Note_off_c, 6, 64, 95
4, 312960, Note_off_c, 6, 60, 95
4, 312960, Note_off_c, 6, 55, 95
4, 312960, Note_off_c, 6, 52, 95
4, 312960, Note_off_c, 6, 48, 95
4, 312960, Note_on_c, 6, 72, 95
4, 312960, Note_on_c, 6, 64, 95
4, 312960, Note_on_c, 6, 60, 95
4, 312960, Note_on_c, 6, 55, 95
4, 312960, Note_on_c, 6, 52, 95
4, 312960, Note_on_c, 6, 48, 95
4, 313440, Note_off_c, 6, 72, 95
4, 313440, Note_off_c, 6, 64, 95
4, 313440, Note_off_c, 6, 60, 95
4, 313440, Note_off_c, 6, 55, 95
4, 313440, Note_off_c, 6, 52, 95
4, 313440, Note_off_c, 6, 48, 95
4, 313440, Note_on_c, 6, 72, 95
4, 313440, Note_on_c, 6, 64, 95
4, 313440, Note_on_c, 6, 60, 95
4, 313440, Note_on_c, 6, 55, 95
4, 313440, Note_on_c, 6, 52, 95
4, 313440, Note_on_c, 6, 48, 95
4, 313920, Note_off_c, 6, 72, 95
4, 313920, Note_off_c, 6, 64, 95
4, 313920, Note_off_c, 6, 60, 95
4, 313920, Note_off_c, 6, 55, 95
4, 313920, Note_off_c, 6, 52, 95
4, 313920, Note_off_c, 6, 48, 95
4, 313920, Note_on_c, 6, 72, 95
4, 313920, Note_on_c, 6, 64, 95
4, 313920, Note_on_c, 6, 60, 95
4, 313920, Note_on_c, 6, 55, 95
4, 313920, Note_on_c, 6, 52, 95
4, 313920, Note_on_c, 6, 48, 95
4, 314400, Note_off_c, 6, 72, 95
4, 314400, Note_off_c, 6, 64, 95
4, 314400, Note_off_c, 6, 60, 95
4, 314400, Note_off_c, 6, 55, 95
4, 314400, Note_off_c, 6, 52, 95
4, 314400, Note_off_c, 6, 48, 95
4, 314400, Note_on_c, 6, 72, 95
4, 314400, Note_on_c, 6, 64, 95
4, 314400, Note_on_c, 6, 60, 95
4, 314400, Note_on_c, 6, 55, 95
4, 314400, Note_on_c, 6, 52, 95
4, 314400, Note_on_c, 6, 48, 95
4, 314880, Note_off_c, 6, 72, 95
4, 314880, Note_off_c, 6, 64, 95
4, 314880, Note_off_c, 6, 60, 95
4, 314880, Note_off_c, 6, 55, 95
4, 314880, Note_off_c, 6, 52, 95
4, 314880, Note_off_c, 6, 48, 95
4, 314880, Note_on_c, 6, 69, 95
4, 314880, Note_on_c, 6, 65, 95
4, 314880, Note_on_c, 6, 60, 95
4, 314880, Note_on_c, 6, 57, 95
4, 314880, Note_on_c, 6, 53, 95
4, 315360, Note_off_c, 6, 69, 95
4, 315360, Note_off_c, 6, 65, 95
4, 315360, Note_off_c, 6, 60, 95
4, 315360, Note_off_c, 6, 57, 95
4, 315360, Note_off_c, 6, 53, 95
4, 315360, Note_on_c, 6, 69, 95
4, 315360, Note_on_c, 6, 65, 95
4, 315360, Note_on_c, 6, 60, 95
4, 315360, Note_on_c, 6, 57, 95
4, 315360, Note_on_c, 6, 53, 95
4, 315840, Note_off_c, 6, 69, 95
4, 315840, Note_off_c, 6, 65, 95
4, 315840, Note_off_c, 6, 60, 95
4, 315840, Note_off_c, 6, 57, 95
4, 315840, Note_off_c, 6, 53, 95
4, 315840, Note_on_c, 6, 69, 95
4, 315840, Note_on_c, 6, 65, 95
4, 315840, Note_on_c, 6, 60, 95
4, 315840, Note_on_c, 6, 57, 95
4, 315840, Note_on_c, 6, 53, 95
4, 316320, Note_off_c, 6, 69, 95
4, 316320, Note_off_c, 6, 65, 95
4, 316320, Note_off_c, 6, 60, 95
4, 316320, Note_off_c, 6, 57, 95
4, 316320, Note_off_c, 6, 53, 95
4, 316320, Note_on_c, 6, 69, 95
4, 316320, Note_on_c, 6, 65, 95
4, 316320, Note_on_c, 6, 60, 95
4, 316320, Note_on_c, 6, 57, 95
4, 316320, Note_on_c, 6, 53, 95
4, 316800, Note_off_c, 6, 69, 95
4, 316800, Note_off_c, 6, 65, 95
4, 316800, Note_off_c, 6, 60, 95
4, 316800, Note_off_c, 6, 57, 95
4, 316800, Note_off_c, 6, 53, 95
4, 316800, Note_on_c, 6, 69, 95
4, 316800, Note_on_c, 6, 65, 95
4, 316800, Note_on_c, 6, 60, 95
4, 316800, Note_on_c, 6, 57, 95
4, 316800, Note_on_c, 6, 53, 95
4, 317280, Note_off_c, 6, 69, 95
4, 317280, Note_off_c, 6, 65, 95
4, 317280, Note_off_c, 6, 60, 95
4, 317280, Note_off_c, 6, 57, 95
4, 317280, Note_off_c, 6, 53, 95
4, 317280, Note_on_c, 6, 69, 95
4, 317280, Note_on_c, 6, 65, 95
4, 317280, Note_on_c, 6, 60, 95
4, 317280, Note_on_c, 6, 57, 95
4, 317280, Note_on_c, 6, 53, 95
4, 317760, Note_off_c, 6, 69, 95
4, 317760, Note_off_c, 6, 65, 95
4, 317760, Note_off_c, 6, 60, 95
4, 317760, Note_off_c, 6, 57, 95
4, 317760, Note_off_c, 6, 53, 95
4, 317760, Note_on_c, 6, 69, 95
4, 317760, Note_on_c, 6, 65, 95
4, 317760, Note_on_c, 6, 60, 95
4, 317760, Note_on_c, 6, 57, 95
4, 317760, Note_on_c, 6, 53, 95
4, 318240, Note_off_c, 6, 69, 95
4, 318240, Note_off_c, 6, 65, 95
4, 318240, Note_off_c, 6, 60, 95
4, 318240, Note_off_c, 6, 57, 95
4, 318240, Note_off_c, 6, 53, 95
4, 318240, Note_on_c, 6, 69, 95
4, 318240, Note_on_c, 6, 65, 95
4, 318240, Note_on_c, 6, 60, 95
4, 318240, Note_on_c, 6, 57, 95
4, 318240, Note_on_c, 6, 53, 95
4, 318720, Note_off_c, 6, 69, 95
4, 318720, Note_off_c, 6, 65, 95
4, 318720, Note_off_c, 6, 60, 95
4, 318720, Note_off_c, 6, 57, 95
4, 318720, Note_off_c, 6, 53, 95
4, 318720, Note_on_c, 6, 71, 95
4, 318720, Note_on_c, 6, 67, 95
4, 318720, Note_on_c, 6, 62, 95
4, 318720, Note_on_c, 6, 55, 95
4, 319200, Note_off_c, 6, 71, 95
4, 319200, Note_off_c, 6, 67, 95
4, 319200, Note_off_c, 6, 62, 95
4, 319200, Note_off_c, 6, 55, 95
4, 319200, Note_on_c, 6, 71, 95
4, 319200, Note_on_c, 6, 67, 95
4, 319200, Note_on_c, 6, 62, 95
4, 319200, Note_on_c, 6, 55, 95
4, 319680, Note_off_c, 6, 71, 95
4, 319680, Note_off_c, 6, 67, 95
4, 319680, Note_off_c, 6, 62, 95
4, 319680, Note_off_c, 6, 55, 95
4, 319680, Note_on_c, 6, 71, 95
4, 319680, Note_on_c, 6, 67, 95
4, 319680, Note_on_c, 6, 62, 95
4, 319680, Note_on_c, 6, 55, 95
4, 320160, Note_off_c, 6, 71, 95
4, 320160, Note_off_c, 6, 67, 95
4, 320160, Note_off_c, 6, 62, 95
4, 320160, Note_off_c, 6, 55, 95
4, 320160, Note_on_c, 6, 71, 95
4, 320160, Note_on_c, 6, 67, 95
4, 320160, Note_on_c, 6, 62, 95
4, 320160, Note_on_c, 6, 55, 95
4, 320640, Note_off_c, 6, 71, 95
4, 320640, Note_off_c, 6, 67, 95
4, 320640, Note_off_c, 6, 62, 95
4, 320640, Note_off_c, 6, 55, 95
4, 320640, Note_on_c, 6, 71, 95
4, 320640, Note_on_c, 6, 67, 95
4, 320640, Note_on_c, 6, 62, 95
4, 320640, Note_on_c, 6, 55, 95
4, 321120, Note_off_c, 6, 71, 95
4, 321120, Note_off_c, 6, 67, 95
4, 321120, Note_off_c, 6, 62, 95
4, 321120, Note_off_c, 6, 55, 95
4, 321120, Note_on_c, 6, 71, 95
4, 321120, Note_on_c, 6, 67, 95
4, 321120, Note_on_c, 6, 62, 95
4, 321120, Note_on_c, 6, 55, 95
4, 321600, Note_off_c, 6, 71, 95
4, 321600, Note_off_c, 6, 67, 95
4, 321600, Note_off_c, 6, 62, 95
4, 321600, Note_off_c, 6, 55, 95
4, 321600, Note_on_c, 6, 71, 95
4, 321600, Note_on_c, 6, 67, 95
4, 321600, Note_on_c, 6, 62, 95
4, 321600, Note_on_c, 6, 55, 95
4, 322080, Note_off_c, 6, 71, 95
4, 322080, Note_off_c, 6, 67, 95
4, 322080, Note_off_c, 6, 62, 95
4, 322080, Note_off_c, 6, 55, 95
4, 322080, Note_on_c, 6, 71, 95
4, 322080, Note_on_c, 6, 67, 95
4, 322080, Note_on_c, 6, 62, 95
4, 322080, Note_on_c, 6, 55, 95
4, 322560, Note_off_c, 6, 71, 95
4, 322560, Note_off_c, 6, 67, 95
4, 322560, Note_off_c, 6, 62, 95
4, 322560, Note_off_c, 6, 55, 95
4, 322560, Note_on_c, 6, 72, 95
4, 322560, Note_on_c, 6, 64, 95
4, 322560, Note_on_c, 6, 60, 95
4, 322560, Note_on_c, 6, 55, 95
4, 322560, Note_on_c, 6, 52, 95
4, 322560, Note_on_c, 6, 48, 95
4, 323040, Note_off_c, 6, 72, 95
4, 323040, Note_off_c, 6, 64, 95
4, 323040, Note_off_c, 6, 60, 95
4, 323040, Note_off_c, 6, 55, 95
4, 323040, Note_off_c, 6, 52, 95
4, 323040, Note_off_c, 6, 48, 95
4, 323040, Note_on_c, 6, 72, 95
4, 323040, Note_on_c, 6, 64, 95
4, 323040, Note_on_c, 6, 60, 95
4, 323040, Note_on_c, 6, 55, 95
4, 323040, Note_on_c, 6, 52, 95
4, 323040, Note_on_c, 6, 48, 95
4, 323520, Note_off_c, 6, 72, 95
4, 323520, Note_off_c, 6, 64, 95
4, 323520, Note_off_c, 6, 60, 95
4, 323520, Note_off_c, 6, 55, 95
4, 323520, Note_off_c, 6, 52, 95
4, 323520, Note_off_c, 6, 48, 95
4, 323520, Note_on_c, 6, 72, 95
4, 323520, Note_on_c, 6, 64, 95
4, 323520, Note_on_c, 6, 60, 95
4, 323520, Note_on_c, 6, 55, 95
4, 323520, Note_on_c, 6, 52, 95
4, 323520, Note_on_c, 6, 48, 95
4, 324000, Note_off_c, 6, 72, 95
4, 324000, Note_off_c, 6, 64, 95
4, 324000, Note_off_c, 6, 60, 95
4, 324000, Note_off_c, 6, 55, 95
4, 324000, Note_off_c, 6, 52, 95
4, 324000, Note_off_c, 6, 48, 95
4, 324000, Note_on_c, 6, 72, 95
4, 324000, Note_on_c, 6, 64, 95
4, 324000, Note_on_c, 6, 60, 95
4, 324000, Note_on_c, 6, 55, 95
4, 324000, Note_on_c, 6, 52, 95
4, 324000, Note_on_c, 6, 48, 95
4, 324480, Note_off_c, 6, 72, 95
4, 324480, Note_off_c, 6, 64, 95
4, 324480, Note_off_c, 6, 60, 95
4, 324480, Note_off_c, 6, 55, 95
4, 324480, Note_off_c, 6, 52, 95
4, 324480, Note_off_c, 6, 48, 95
4, 324480, Note_on_c, 6, 72, 95
4, 324480, Note_on_c, 6, 64, 95
4, 324480, Note_on_c, 6, 60, 95
4, 324480, Note_on_c, 6, 55, 95
4, 324480, Note_on_c, 6, 52, 95
4, 324480, Note_on_c, 6, 48, 95
4, 324960, Note_off_c, 6, 72, 95
4, 324960, Note_off_c, 6, 64, 95
4, 324960, Note_off_c, 6, 60, 95
4, 324960, Note_off_c, 6, 55, 95
4, 324960, Note_off_c, 6, 52, 95
4, 324960, Note_off_c, 6, 48, 95
4, 324960, Note_on_c, 6, 72, 95
4, 324960, Note_on_c, 6, 64, 95
4, 324960, Note_on_c, 6, 60, 95
4, 324960, Note_on_c, 6, 55, 95
4, 324960, Note_on_c, 6, 52, 95
4, 324960, Note_on_c, 6, 48, 95
4, 325440, Note_off_c, 6, 72, 95
4, 325440, Note_off_c, 6, 64, 95
4, 325440, Note_off_c, 6, 60, 95
4, 325440, Note_off_c, 6, 55, 95
4, 325440, Note_off_c, 6, 52, 95
4, 325440, Note_off_c, 6, 48, 95
4, 325440, Note_on_c, 6, 72, 95
4, 325440, Note_on_c, 6, 64, 95
4, 325440, Note_on_c, 6, 60, 95
4, 325440, Note_on_c, 6, 55, 95
4, 325440, Note_on_c, 6, 52, 95
4, 325440, Note_on_c, 6, 48, 95
4, 325920, Note_off_c, 6, 72, 95
4, 325920, Note_off_c, 6, 64, 95
4, 325920, Note_off_c, 6, 60, 95
4, 325920, Note_off_c, 6, 55, 95
4, 325920, Note_off_c, 6, 52, 95
4, 325920, Note_off_c, 6, 48, 95
4, 325920, Note_on_c, 6, 72, 95
4, 325920, Note_on_c, 6, 64, 95
4, 325920, Note_on_c, 6, 60, 95
4, 325920, Note_on_c, 6, 55, 95
4, 325920, Note_on_c, 6, 52, 95
4, 325920, Note_on_c, 6, 48, 95
4, 326400, Note_off_c, 6, 72, 95
4, 326400, Note_off_c, 6, 64, 95
4, 326400, Note_off_c, 6, 60, 95
4, 326400, Note_off_c, 6, 55, 95
4, 326400, Note_off_c, 6, 52, 95
4, 326400, Note_off_c, 6, 48, 95
4, 326400, Note_on_c, 6, 60, 95
4, 341760, Note_off_c, 6, 60, 95
4, 341760, Note_on_c, 6, 60, 95
4, 345600, Note_off_c, 6, 60, 95
4, 345600, Note_on_c, 6, 61, 95
4, 353280, Note_off_c, 6, 61, 95
4, 353280, Note_on_c, 6, 62, 95
4, 364800, Note_off_c, 6, 62, 95
4, 364800, End_track
5, 0, Start_track
5, 0, Pitch_bend_c, 4, 8192
5, 0, Control_c, 4, 7, 127
5, 0, Control_c, 4, 10, 63
5, 0, Control_c, 4, 93, 103
5, 0, Control_c, 4, 91, 127
5, 0, Control_c, 4, 95, 23
5, 0, Control_c, 4, 92, 0
5, 0, Control_c, 4, 11, 127
5, 0, Program_c, 4, 33
5, 0, Control_c, 5, 7, 127
5, 0, Control_c, 5, 10, 63
5, 0, Control_c, 5, 93, 103
5, 0, Control_c, 5, 91, 127
5, 0, Control_c, 5, 95, 23
5, 0, Control_c, 5, 92, 0
5, 0, Control_c, 5, 11, 127
5, 0, Program_c, 5, 33
5, 19200, Note_on_c, 4, 36, 95
5, 19680, Note_off_c, 4, 36, 95
5, 19680, Note_on_c, 4, 36, 95
5, 20160, Note_off_c, 4, 36, 95
5, 20160, Note_on_c, 4, 36, 95
5, 20640, Note_off_c, 4, 36, 95
5, 20640, Note_on_c, 4, 36, 95
5, 21120, Note_off_c, 4, 36, 95
5, 21120, Note_on_c, 4, 36, 95
5, 21600, Note_off_c, 4, 36, 95
5, 21600, Note_on_c, 4, 36, 95
5, 22080, Note_off_c, 4, 36, 95
5, 22080, Note_on_c, 4, 36, 95
5, 22560, Note_off_c, 4, 36, 95
5, 22560, Note_on_c, 4, 36, 95
5, 23040, Note_off_c, 4, 36, 95
5, 23040, Note_on_c, 4, 36, 95
5, 23520, Note_off_c, 4, 36, 95
5, 23520, Note_on_c, 4, 36, 95
5, 24000, Note_off_c, 4, 36, 95
5, 24000, Note_on_c, 4, 36, 95
5, 24480, Note_off_c, 4, 36, 95
5, 24480, Note_on_c, 4, 36, 95
5, 24960, Note_off_c, 4, 36, 95
5, 24960, Note_on_c, 4, 36, 95
5, 25440, Note_off_c, 4, 36, 95
5, 25440, Note_on_c, 4, 36, 95
5, 25920, Note_off_c, 4, 36, 95
5, 25920, Note_on_c, 4, 36, 95
5, 26400, Note_off_c, 4, 36, 95
5, 26400, Note_on_c, 4, 36, 95
5, 26880, Note_off_c, 4, 36, 95
5, 26880, Note_on_c, 4, 36, 95
5, 27360, Note_off_c, 4, 36, 95
5, 27360, Note_on_c, 4, 36, 95
5, 27840, Note_off_c, 4, 36, 95
5, 27840, Note_on_c, 4, 36, 95
5, 28320, Note_off_c, 4, 36, 95
5, 28320, Note_on_c, 4, 36, 95
5, 28800, Note_off_c, 4, 36, 95
5, 28800, Note_on_c, 4, 36, 95
5, 29280, Note_off_c, 4, 36, 95
5, 29280, Note_on_c, 4, 36, 95
5, 29760, Note_off_c, 4, 36, 95
5, 29760, Note_on_c, 4, 36, 95
5, 30240, Note_off_c, 4, 36, 95
5, 30240, Note_on_c, 4, 36, 95
5, 30720, Note_off_c, 4, 36, 95
5, 30720, Note_on_c, 4, 36, 95
5, 31200, Note_off_c, 4, 36, 95
5, 31200, Note_on_c, 4, 36, 95
5, 31680, Note_off_c, 4, 36, 95
5, 31680, Note_on_c, 4, 36, 95
5, 32160, Note_off_c, 4, 36, 95
5, 32160, Note_on_c, 4, 36, 95
5, 32640, Note_off_c, 4, 36, 95
5, 32640, Note_on_c, 4, 36, 95
5, 33120, Note_off_c, 4, 36, 95
5, 33120, Note_on_c, 4, 36, 95
5, 33600, Note_off_c, 4, 36, 95
5, 33600, Note_on_c, 4, 36, 95
5, 34080, Note_off_c, 4, 36, 95
5, 34080, Note_on_c, 4, 36, 95
5, 34560, Note_off_c, 4, 36, 95
5, 34560, Note_on_c, 4, 36, 95
5, 35040, Note_off_c, 4, 36, 95
5, 35040, Note_on_c, 4, 36, 95
5, 35520, Note_off_c, 4, 36, 95
5, 35520, Note_on_c, 4, 36, 95
5, 36000, Note_off_c, 4, 36, 95
5, 36000, Note_on_c, 4, 36, 95
5, 36480, Note_off_c, 4, 36, 95
5, 36480, Note_on_c, 4, 36, 95
5, 36960, Note_off_c, 4, 36, 95
5, 36960, Note_on_c, 4, 36, 95
5, 37440, Note_off_c, 4, 36, 95
5, 37440, Note_on_c, 4, 36, 95
5, 37920, Note_off_c, 4, 36, 95
5, 37920, Note_on_c, 4, 36, 95
5, 38400, Note_off_c, 4, 36, 95
5, 38400, Note_on_c, 4, 36, 95
5, 38880, Note_off_c, 4, 36, 95
5, 38880, Note_on_c, 4, 36, 95
5, 39360, Note_off_c, 4, 36, 95
5, 39360, Note_on_c, 4, 36, 95
5, 39840, Note_off_c, 4, 36, 95
5, 39840, Note_on_c, 4, 36, 95
5, 40320, Note_off_c, 4, 36, 95
5, 40320, Note_on_c, 4, 36, 95
5, 40800, Note_off_c, 4, 36, 95
5, 40800, Note_on_c, 4, 36, 95
5, 41280, Note_off_c, 4, 36, 95
5, 41280, Note_on_c, 4, 36, 95
5, 41760, Note_off_c, 4, 36, 95
5, 41760, Note_on_c, 4, 36, 95
5, 42240, Note_off_c, 4, 36, 95
5, 42240, Note_on_c, 4, 36, 95
5, 42720, Note_off_c, 4, 36, 95
5, 42720, Note_on_c, 4, 36, 95
5, 43200, Note_off_c, 4, 36, 95
5, 43200, Note_on_c, 4, 36, 95
5, 43680, Note_off_c, 4, 36, 95
5, 43680, Note_on_c, 4, 36, 95
5, 44160, Note_off_c, 4, 36, 95
5, 44160, Note_on_c, 4, 36, 95
5, 44640, Note_off_c, 4, 36, 95
5, 44640, Note_on_c, 4, 36, 95
5, 45120, Note_off_c, 4, 36, 95
5, 45120, Note_on_c, 4, 36, 95
5, 45600, Note_off_c, 4, 36, 95
5, 45600, Note_on_c, 4, 36, 95
5, 46080, Note_off_c, 4, 36, 95
5, 46080, Note_on_c, 4, 36, 95
5, 46560, Note_off_c, 4, 36, 95
5, 46560, Note_on_c, 4, 36, 95
5, 47040, Note_off_c, 4, 36, 95
5, 47040, Note_on_c, 4, 36, 95
5, 47520, Note_off_c, 4, 36, 95
5, 47520, Note_on_c, 4, 36, 95
5, 48000, Note_off_c, 4, 36, 95
5, 48000, Note_on_c, 4, 36, 95
5, 48480, Note_off_c, 4, 36, 95
5, 48480, Note_on_c, 4, 36, 95
5, 48960, Note_off_c, 4, 36, 95
5, 48960, Note_on_c, 4, 36, 95
5, 49440, Note_off_c, 4, 36, 95
5, 49440, Note_on_c, 4, 36, 95
5, 49920, Note_off_c, 4, 36, 95
5, 49920, Note_on_c, 4, 36, 95
5, 50400, Note_off_c, 4, 36, 95
5, 50400, Note_on_c, 4, 36, 95
5, 50880, Note_off_c, 4, 36, 95
5, 50880, Note_on_c, 4, 36, 95
5, 51360, Note_off_c, 4, 36, 95
5, 51360, Note_on_c, 4, 36, 95
5, 51840, Note_off_c, 4, 36, 95
5, 51840, Note_on_c, 4, 36, 95
5, 52320, Note_off_c, 4, 36, 95
5, 52320, Note_on_c, 4, 36, 95
5, 52800, Note_off_c, 4, 36, 95
5, 52800, Note_on_c, 4, 36, 95
5, 53280, Note_off_c, 4, 36, 95
5, 53280, Note_on_c, 4, 36, 95
5, 53760, Note_off_c, 4, 36, 95
5, 53760, Note_on_c, 4, 36, 95
5, 54240, Note_off_c, 4, 36, 95
5, 54240, Note_on_c, 4, 36, 95
5, 54720, Note_off_c, 4, 36, 95
5, 54720, Note_on_c, 4, 36, 95
5, 55200, Note_off_c, 4, 36, 95
5, 55200, Note_on_c, 4, 36, 95
5, 55680, Note_off_c, 4, 36, 95
5, 55680, Note_on_c, 4, 36, 95
5, 56160, Note_off_c, 4, 36, 95
5, 56160, Note_on_c, 4, 36, 95
5, 56640, Note_off_c, 4, 36, 95
5, 56640, Note_on_c, 4, 36, 95
5, 57120, Note_off_c, 4, 36, 95
5, 57120, Note_on_c, 4, 36, 95
5, 57600, Note_off_c, 4, 36, 95
5, 57600, Note_on_c, 4, 36, 95
5, 58080, Note_off_c, 4, 36, 95
5, 58080, Note_on_c, 4, 36, 95
5, 58560, Note_off_c, 4, 36, 95
5, 58560, Note_on_c, 4, 36, 95
5, 59040, Note_off_c, 4, 36, 95
5, 59040, Note_on_c, 4, 36, 95
5, 59520, Note_off_c, 4, 36, 95
5, 59520, Note_on_c, 4, 36, 95
5, 60000, Note_off_c, 4, 36, 95
5, 60000, Note_on_c, 4, 36, 95
5, 60480, Note_off_c, 4, 36, 95
5, 60480, Note_on_c, 4, 36, 95
5, 60960, Note_off_c, 4, 36, 95
5, 60960, Note_on_c, 4, 36, 95
5, 61440, Note_off_c, 4, 36, 95
5, 61440, Note_on_c, 4, 36, 95
5, 61920, Note_off_c, 4, 36, 95
5, 61920, Note_on_c, 4, 36, 95
5, 62400, Note_off_c, 4, 36, 95
5, 62400, Note_on_c, 4, 36, 95
5, 62880, Note_off_c, 4, 36, 95
5, 62880, Note_on_c, 4, 36, 95
5, 63360, Note_off_c, 4, 36, 95
5, 63360, Note_on_c, 4, 36, 95
5, 63840, Note_off_c, 4, 36, 95
5, 63840, Note_on_c, 4, 36, 95
5, 64320, Note_off_c, 4, 36, 95
5, 64320, Note_on_c, 4, 36, 95
5, 64800, Note_off_c, 4, 36, 95
5, 64800, Note_on_c, 4, 36, 95
5, 65280, Note_off_c, 4, 36, 95
5, 65280, Note_on_c, 4, 36, 95
5, 65760, Note_off_c, 4, 36, 95
5, 65760, Note_on_c, 4, 36, 95
5, 66240, Note_off_c, 4, 36, 95
5, 66240, Note_on_c, 4, 36, 95
5, 66720, Note_off_c, 4, 36, 95
5, 66720, Note_on_c, 4, 36, 95
5, 67200, Note_off_c, 4, 36, 95
5, 67200, Note_on_c, 4, 36, 95
5, 67680, Note_off_c, 4, 36, 95
5, 67680, Note_on_c, 4, 29, 95
5, 68160, Note_off_c, 4, 29, 95
5, 68160, Note_on_c, 4, 30, 95
5, 68640, Note_off_c, 4, 30, 95
5, 68640, Note_on_c, 4, 31, 95
5, 69600, Note_off_c, 4, 31, 95
5, 69600, Note_on_c, 4, 31, 95
5, 70080, Note_off_c, 4, 31, 95
5, 70080, Note_on_c, 4, 31, 95
5, 70560, Note_off_c, 4, 31, 95
5, 71040, Note_on_c, 4, 29, 95
5, 71520, Note_off_c, 4, 29, 95
5, 71520, Note_on_c, 4, 29, 95
5, 72000, Note_off_c, 4, 29, 95
5, 72000, Note_on_c, 4, 30, 95
5, 72480, Note_off_c, 4, 30, 95
5, 72480, Note_on_c, 4, 31, 95
5, 73440, Note_off_c, 4, 31, 95
5, 73440, Note_on_c, 4, 31, 95
5, 73920, Note_off_c, 4, 31, 95
5, 73920, Note_on_c, 4, 31, 95
5, 74400, Note_off_c, 4, 31, 95
5, 74880, Note_on_c, 4, 29, 95
5, 75360, Note_off_c, 4, 29, 95
5, 75360, Note_on_c, 4, 29, 95
5, 75840, Note_off_c, 4, 29, 95
5, 75840, Note_on_c, 4, 30, 95
5, 76320, Note_off_c, 4, 30, 95
5, 76320, Note_on_c, 4, 31, 95
5, 77280, Note_off_c, 4, 31, 95
5, 77280, Note_on_c, 4, 31, 95
5, 77760, Note_off_c, 4, 31, 95
5, 77760, Note_on_c, 4, 31, 95
5, 78240, Note_off_c, 4, 31, 95
5, 78720, Note_on_c, 4, 29, 95
5, 79200, Note_off_c, 4, 29, 95
5, 79200, Note_on_c, 4, 29, 95
5, 79680, Note_off_c, 4, 29, 95
5, 79680, Note_on_c, 4, 30, 95
5, 80160, Note_off_c, 4, 30, 95
5, 80160, Note_on_c, 4, 31, 95
5, 81120, Note_off_c, 4, 31, 95
5, 81120, Note_on_c, 4, 31, 95
5, 81600, Note_off_c, 4, 31, 95
5, 81600, Note_on_c, 4, 31, 95
5, 82080, Note_off_c, 4, 31, 95
5, 82560, Note_on_c, 4, 29, 95
5, 83040, Note_off_c, 4, 29, 95
5, 83040, Note_on_c, 4, 29, 95
5, 83520, Note_off_c, 4, 29, 95
5, 83520, Note_on_c, 4, 30, 95
5, 84000, Note_off_c, 4, 30, 95
5, 84000, Note_on_c, 4, 31, 95
5, 84960, Note_off_c, 4, 31, 95
5, 84960, Note_on_c, 4, 31, 95
5, 85440, Note_off_c, 4, 31, 95
5, 85440, Note_on_c, 4, 31, 95
5, 85920, Note_off_c, 4, 31, 95
5, 86400, Note_on_c, 4, 29, 95
5, 86880, Note_off_c, 4, 29, 95
5, 86880, Note_on_c, 4, 29, 95
5, 87360, Note_off_c, 4, 29, 95
5, 87360, Note_on_c, 4, 30, 95
5, 87840, Note_off_c, 4, 30, 95
5, 87840, Note_on_c, 4, 31, 95
5, 88320, Note_off_c, 4, 31, 95
5, 88320, Note_on_c, 4, 31, 95
5, 88800, Note_off_c, 4, 31, 95
5, 88800, Note_on_c, 4, 31, 95
5, 89280, Note_off_c, 4, 31, 95
5, 89280, Note_on_c, 4, 31, 95
5, 89760, Note_off_c, 4, 31, 95
5, 90720, Note_on_c, 4, 29, 95
5, 91200, Note_off_c, 4, 29, 95
5, 91200, Note_on_c, 4, 30, 95
5, 91680, Note_off_c, 4, 30, 95
5, 91680, Note_on_c, 4, 31, 95
5, 92640, Note_off_c, 4, 31, 95
5, 92640, Note_on_c, 4, 31, 95
5, 93120, Note_off_c, 4, 31, 95
5, 93120, Note_on_c, 4, 31, 95
5, 93600, Note_off_c, 4, 31, 95
5, 93600, Note_on_c, 4, 31, 95
5, 94080, Note_off_c, 4, 31, 95
5, 94080, Note_on_c, 4, 35, 95
5, 94560, Note_off_c, 4, 35, 95
5, 94560, Note_on_c, 4, 36, 95
5, 95040, Note_off_c, 4, 36, 95
5, 95040, Note_on_c, 4, 37, 95
5, 95520, Note_off_c, 4, 37, 95
5, 95520, Note_on_c, 4, 38, 95
5, 96960, Note_off_c, 4, 38, 95
5, 96960, Note_on_c, 4, 38, 95
5, 97920, Note_off_c, 4, 38, 95
5, 97920, Note_on_c, 4, 38, 95
5, 98400, Note_off_c, 4, 38, 95
5, 98400, Note_on_c, 4, 38, 95
5, 98880, Note_off_c, 4, 38, 95
5, 98880, Note_on_c, 4, 38, 95
5, 99360, Note_off_c, 4, 38, 95
5, 99360, Note_on_c, 4, 50, 95
5, 100320, Note_off_c, 4, 50, 95
5, 100320, Note_on_c, 4, 48, 95
5, 100800, Note_off_c, 4, 48, 95
5, 100800, Note_on_c, 4, 48, 95
5, 101280, Note_off_c, 4, 48, 95
5, 101280, Note_on_c, 4, 45, 95
5, 101760, Note_off_c, 4, 45, 95
5, 101760, Note_on_c, 4, 43, 95
5, 102240, Note_off_c, 4, 43, 95
5, 102240, Note_on_c, 4, 41, 95
5, 102720, Note_off_c, 4, 41, 95
5, 102720, Note_on_c, 4, 41, 95
5, 103200, Note_off_c, 4, 41, 95
5, 103200, Note_on_c, 4, 38, 95
5, 103680, Note_off_c, 4, 38, 95
5, 103680, Note_on_c, 4, 38, 95
5, 104640, Note_off_c, 4, 38, 95
5, 104640, Note_on_c, 4, 38, 95
5, 105120, Note_off_c, 4, 38, 95
5, 105120, Note_on_c, 4, 38, 95
5, 105600, Note_off_c, 4, 38, 95
5, 105600, Note_on_c, 4, 38, 95
5, 106080, Note_off_c, 4, 38, 95
5, 106080, Note_on_c, 4, 38, 95
5, 106560, Note_off_c, 4, 38, 95
5, 106560, Note_on_c, 4, 38, 95
5, 107040, Note_off_c, 4, 38, 95
5, 107040, Note_on_c, 4, 50, 95
5, 108000, Note_off_c, 4, 50, 95
5, 108000, Note_on_c, 4, 48, 95
5, 108480, Note_off_c, 4, 48, 95
5, 108480, Note_on_c, 4, 48, 95
5, 108960, Note_off_c, 4, 48, 95
5, 108960, Note_on_c, 4, 45, 95
5, 109440, Note_off_c, 4, 45, 95
5, 109440, Note_on_c, 4, 43, 95
5, 109920, Note_off_c, 4, 43, 95
5, 109920, Note_on_c, 4, 41, 95
5, 110400, Note_off_c, 4, 41, 95
5, 110400, Note_on_c, 4, 41, 95
5, 111360, Note_off_c, 4, 41, 95
5, 111360, Note_on_c, 4, 36, 95
5, 112320, Note_off_c, 4, 36, 95
5, 112320, Note_on_c, 4, 36, 95
5, 112800, Note_off_c, 4, 36, 95
5, 112800, Note_on_c, 4, 36, 95
5, 113280, Note_off_c, 4, 36, 95
5, 113280, Note_on_c, 4, 36, 95
5, 113760, Note_off_c, 4, 36, 95
5, 113760, Note_on_c, 4, 36, 95
5, 114240, Note_off_c, 4, 36, 95
5, 114240, Note_on_c, 4, 36, 95
5, 114720, Note_off_c, 4, 36, 95
5, 114720, Note_on_c, 4, 36, 95
5, 115200, Note_off_c, 4, 36, 95
5, 115200, Note_on_c, 4, 36, 95
5, 116160, Note_off_c, 4, 36, 95
5, 116160, Note_on_c, 4, 36, 95
5, 116640, Note_off_c, 4, 36, 95
5, 116640, Note_on_c, 4, 36, 95
5, 117120, Note_off_c, 4, 36, 95
5, 117120, Note_on_c, 4, 36, 95
5, 117600, Note_off_c, 4, 36, 95
5, 117600, Note_on_c, 4, 36, 95
5, 118080, Note_off_c, 4, 36, 95
5, 118080, Note_on_c, 4, 36, 95
5, 118560, Note_off_c, 4, 36, 95
5, 118560, Note_on_c, 4, 36, 95
5, 119040, Note_off_c, 4, 36, 95
5, 119040, Note_on_c, 4, 36, 95
5, 120000, Note_off_c, 4, 36, 95
5, 120000, Note_on_c, 4, 36, 95
5, 120480, Note_off_c, 4, 36, 95
5, 120480, Note_on_c, 4, 36, 95
5, 120960, Note_off_c, 4, 36, 95
5, 120960, Note_on_c, 4, 36, 95
5, 121440, Note_off_c, 4, 36, 95
5, 121440, Note_on_c, 4, 36, 95
5, 121920, Note_off_c, 4, 36, 95
5, 121920, Note_on_c, 4, 36, 95
5, 122400, Note_off_c, 4, 36, 95
5, 122400, Note_on_c, 4, 36, 95
5, 122880, Note_off_c, 4, 36, 95
5, 122880, Note_on_c, 4, 36, 95
5, 123360, Note_off_c, 4, 36, 95
5, 123360, Note_on_c, 4, 36, 95
5, 123840, Note_off_c, 4, 36, 95
5, 123840, Note_on_c, 4, 36, 95
5, 124320, Note_off_c, 4, 36, 95
5, 124320, Note_on_c, 4, 36, 95
5, 124800, Note_off_c, 4, 36, 95
5, 124800, Note_on_c, 4, 36, 95
5, 125280, Note_off_c, 4, 36, 95
5, 125280, Note_on_c, 4, 36, 95
5, 125760, Note_off_c, 4, 36, 95
5, 125760, Note_on_c, 4, 36, 95
5, 126240, Note_off_c, 4, 36, 95
5, 126240, Note_on_c, 4, 36, 95
5, 126720, Note_off_c, 4, 36, 95
5, 126720, Note_on_c, 4, 36, 95
5, 127200, Note_off_c, 4, 36, 95
5, 127200, Note_on_c, 4, 36, 95
5, 127680, Note_off_c, 4, 36, 95
5, 127680, Note_on_c, 4, 36, 95
5, 128160, Note_off_c, 4, 36, 95
5, 128160, Note_on_c, 4, 36, 95
5, 128640, Note_off_c, 4, 36, 95
5, 128640, Note_on_c, 4, 36, 95
5, 129120, Note_off_c, 4, 36, 95
5, 129120, Note_on_c, 4, 36, 95
5, 129600, Note_off_c, 4, 36, 95
5, 129600, Note_on_c, 4, 36, 95
5, 130080, Note_off_c, 4, 36, 95
5, 130080, Note_on_c, 4, 36, 95
5, 130560, Note_off_c, 4, 36, 95
5, 130560, Note_on_c, 4, 36, 95
5, 131040, Note_off_c, 4, 36, 95
5, 131040, Note_on_c, 4, 36, 95
5, 131520, Note_off_c, 4, 36, 95
5, 131520, Note_on_c, 4, 36, 95
5, 132000, Note_off_c, 4, 36, 95
5, 132000, Note_on_c, 4, 36, 95
5, 132480, Note_off_c, 4, 36, 95
5, 132480, Note_on_c, 4, 36, 95
5, 132960, Note_off_c, 4, 36, 95
5, 132960, Note_on_c, 4, 36, 95
5, 133440, Note_off_c, 4, 36, 95
5, 133440, Note_on_c, 4, 36, 95
5, 133920, Note_off_c, 4, 36, 95
5, 133920, Note_on_c, 4, 36, 95
5, 134400, Note_off_c, 4, 36, 95
5, 134400, Note_on_c, 4, 36, 95
5, 134880, Note_off_c, 4, 36, 95
5, 134880, Note_on_c, 4, 36, 95
5, 135360, Note_off_c, 4, 36, 95
5, 135360, Note_on_c, 4, 36, 95
5, 135840, Note_off_c, 4, 36, 95
5, 135840, Note_on_c, 4, 36, 95
5, 136320, Note_off_c, 4, 36, 95
5, 136320, Note_on_c, 4, 36, 95
5, 136800, Note_off_c, 4, 36, 95
5, 136800, Note_on_c, 4, 36, 95
5, 137280, Note_off_c, 4, 36, 95
5, 137280, Note_on_c, 4, 36, 95
5, 137760, Note_off_c, 4, 36, 95
5, 137760, Note_on_c, 4, 36, 95
5, 138240, Note_off_c, 4, 36, 95
5, 138240, Note_on_c, 4, 36, 95
5, 138720, Note_off_c, 4, 36, 95
5, 138720, Note_on_c, 4, 36, 95
5, 139200, Note_off_c, 4, 36, 95
5, 139200, Note_on_c, 4, 36, 95
5, 139680, Note_off_c, 4, 36, 95
5, 139680, Note_on_c, 4, 36, 95
5, 140160, Note_off_c, 4, 36, 95
5, 140160, Note_on_c, 4, 36, 95
5, 140640, Note_off_c, 4, 36, 95
5, 140640, Note_on_c, 4, 36, 95
5, 141120, Note_off_c, 4, 36, 95
5, 141120, Note_on_c, 4, 36, 95
5, 141600, Note_off_c, 4, 36, 95
5, 141600, Note_on_c, 4, 36, 95
5, 142080, Note_off_c, 4, 36, 95
5, 142080, Note_on_c, 4, 36, 95
5, 142560, Note_off_c, 4, 36, 95
5, 142560, Note_on_c, 4, 36, 95
5, 143040, Note_off_c, 4, 36, 95
5, 143040, Note_on_c, 4, 36, 95
5, 143520, Note_off_c, 4, 36, 95
5, 143520, Note_on_c, 4, 36, 95
5, 144000, Note_off_c, 4, 36, 95
5, 144000, Note_on_c, 4, 36, 95
5, 144480, Note_off_c, 4, 36, 95
5, 144480, Note_on_c, 4, 36, 95
5, 144960, Note_off_c, 4, 36, 95
5, 144960, Note_on_c, 4, 36, 95
5, 145440, Note_off_c, 4, 36, 95
5, 145440, Note_on_c, 4, 36, 95
5, 145920, Note_off_c, 4, 36, 95
5, 145920, Note_on_c, 4, 36, 95
5, 146400, Note_off_c, 4, 36, 95
5, 146400, Note_on_c, 4, 36, 95
5, 146880, Note_off_c, 4, 36, 95
5, 146880, Note_on_c, 4, 36, 95
5, 147360, Note_off_c, 4, 36, 95
5, 147360, Note_on_c, 4, 36, 95
5, 147840, Note_off_c, 4, 36, 95
5, 147840, Note_on_c, 4, 36, 95
5, 148320, Note_off_c, 4, 36, 95
5, 148320, Note_on_c, 4, 36, 95
5, 148800, Note_off_c, 4, 36, 95
5, 148800, Note_on_c, 4, 36, 95
5, 149280, Note_off_c, 4, 36, 95
5, 149280, Note_on_c, 4, 36, 95
5, 149760, Note_off_c, 4, 36, 95
5, 149760, Note_on_c, 4, 36, 95
5, 150240, Note_off_c, 4, 36, 95
5, 150240, Note_on_c, 4, 36, 95
5, 150720, Note_off_c, 4, 36, 95
5, 150720, Note_on_c, 4, 36, 95
5, 151200, Note_off_c, 4, 36, 95
5, 151200, Note_on_c, 4, 36, 95
5, 151680, Note_off_c, 4, 36, 95
5, 151680, Note_on_c, 4, 36, 95
5, 152160, Note_off_c, 4, 36, 95
5, 152160, Note_on_c, 4, 36, 95
5, 152640, Note_off_c, 4, 36, 95
5, 152640, Note_on_c, 4, 36, 95
5, 153120, Note_off_c, 4, 36, 95
5, 153120, Note_on_c, 4, 36, 95
5, 153600, Note_off_c, 4, 36, 95
5, 153600, Note_on_c, 4, 36, 95
5, 154080, Note_off_c, 4, 36, 95
5, 154080, Note_on_c, 4, 36, 95
5, 154560, Note_off_c, 4, 36, 95
5, 154560, Note_on_c, 4, 36, 95
5, 155040, Note_off_c, 4, 36, 95
5, 155040, Note_on_c, 4, 36, 95
5, 155520, Note_off_c, 4, 36, 95
5, 155520, Note_on_c, 4, 36, 95
5, 156000, Note_off_c, 4, 36, 95
5, 156000, Note_on_c, 4, 36, 95
5, 156480, Note_off_c, 4, 36, 95
5, 156480, Note_on_c, 4, 36, 95
5, 156960, Note_off_c, 4, 36, 95
5, 156960, Note_on_c, 4, 36, 95
5, 157440, Note_off_c, 4, 36, 95
5, 157440, Note_on_c, 4, 36, 95
5, 157920, Note_off_c, 4, 36, 95
5, 157920, Note_on_c, 4, 36, 95
5, 158400, Note_off_c, 4, 36, 95
5, 158400, Note_on_c, 4, 36, 95
5, 158880, Note_off_c, 4, 36, 95
5, 158880, Note_on_c, 4, 36, 95
5, 159360, Note_off_c, 4, 36, 95
5, 159360, Note_on_c, 4, 36, 95
5, 159840, Note_off_c, 4, 36, 95
5, 159840, Note_on_c, 4, 29, 95
5, 160320, Note_off_c, 4, 29, 95
5, 160320, Note_on_c, 4, 30, 95
5, 160800, Note_off_c, 4, 30, 95
5, 160800, Note_on_c, 4, 31, 95
5, 161760, Note_off_c, 4, 31, 95
5, 161760, Note_on_c, 4, 31, 95
5, 162240, Note_off_c, 4, 31, 95
5, 162240, Note_on_c, 4, 31, 95
5, 162720, Note_off_c, 4, 31, 95
5, 163200, Note_on_c, 4, 29, 95
5, 163680, Note_off_c, 4, 29, 95
5, 163680, Note_on_c, 4, 29, 95
5, 164160, Note_off_c, 4, 29, 95
5, 164160, Note_on_c, 4, 30, 95
5, 164640, Note_off_c, 4, 30, 95
5, 164640, Note_on_c, 4, 31, 95
5, 165600, Note_off_c, 4, 31, 95
5, 165600, Note_on_c, 4, 31, 95
5, 166080, Note_off_c, 4, 31, 95
5, 166080, Note_on_c, 4, 31, 95
5, 166560, Note_off_c, 4, 31, 95
5, 167040, Note_on_c, 4, 29, 95
5, 167520, Note_off_c, 4, 29, 95
5, 167520, Note_on_c, 4, 29, 95
5, 168000, Note_off_c, 4, 29, 95
5, 168000, Note_on_c, 4, 30, 95
5, 168480, Note_off_c, 4, 30, 95
5, 168480, Note_on_c, 4, 31, 95
5, 169440, Note_off_c, 4, 31, 95
5, 169440, Note_on_c, 4, 31, 95
5, 169920, Note_off_c, 4, 31, 95
5, 169920, Note_on_c, 4, 31, 95
5, 170400, Note_off_c, 4, 31, 95
5, 170880, Note_on_c, 4, 29, 95
5, 171360, Note_off_c, 4, 29, 95
5, 171360, Note_on_c, 4, 29, 95
5, 171840, Note_off_c, 4, 29, 95
5, 171840, Note_on_c, 4, 30, 95
5, 172320, Note_off_c, 4, 30, 95
5, 172320, Note_on_c, 4, 31, 95
5, 173280, Note_off_c, 4, 31, 95
5, 173280, Note_on_c, 4, 31, 95
5, 173760, Note_off_c, 4, 31, 95
5, 173760, Note_on_c, 4, 31, 95
5, 174240, Note_off_c, 4, 31, 95
5, 174720, Note_on_c, 4, 29, 95
5, 175200, Note_off_c, 4, 29, 95
5, 175200, Note_on_c, 4, 29, 95
5, 175680, Note_off_c, 4, 29, 95
5, 175680, Note_on_c, 4, 30, 95
5, 176160, Note_off_c, 4, 30, 95
5, 176160, Note_on_c, 4, 31, 95
5, 177120, Note_off_c, 4, 31, 95
5, 177120, Note_on_c, 4, 31, 95
5, 177600, Note_off_c, 4, 31, 95
5, 177600, Note_on_c, 4, 31, 95
5, 178080, Note_off_c, 4, 31, 95
5, 178560, Note_on_c, 4, 29, 95
5, 179040, Note_off_c, 4, 29, 95
5, 179040, Note_on_c, 4, 29, 95
5, 179520, Note_off_c, 4, 29, 95
5, 179520, Note_on_c, 4, 30, 95
5, 180000, Note_off_c, 4, 30, 95
5, 180000, Note_on_c, 4, 31, 95
5, 180480, Note_off_c, 4, 31, 95
5, 180480, Note_on_c, 4, 31, 95
5, 180960, Note_off_c, 4, 31, 95
5, 180960, Note_on_c, 4, 31, 95
5, 181440, Note_off_c, 4, 31, 95
5, 181440, Note_on_c, 4, 31, 95
5, 181920, Note_off_c, 4, 31, 95
5, 182880, Note_on_c, 4, 29, 95
5, 183360, Note_off_c, 4, 29, 95
5, 183360, Note_on_c, 4, 30, 95
5, 183840, Note_off_c, 4, 30, 95
5, 183840, Note_on_c, 4, 31, 95
5, 184800, Note_off_c, 4, 31, 95
5, 184800, Note_on_c, 4, 31, 95
5, 185280, Note_off_c, 4, 31, 95
5, 185280, Note_on_c, 4, 31, 95
5, 185760, Note_off_c, 4, 31, 95
5, 185760, Note_on_c, 4, 31, 95
5, 186240, Note_off_c, 4, 31, 95
5, 186240, Note_on_c, 4, 35, 95
5, 186720, Note_off_c, 4, 35, 95
5, 186720, Note_on_c, 4, 36, 95
5, 187200, Note_off_c, 4, 36, 95
5, 187200, Note_on_c, 4, 37, 95
5, 187680, Note_off_c, 4, 37, 95
5, 187680, Note_on_c, 4, 38, 95
5, 189120, Note_off_c, 4, 38, 95
5, 189120, Note_on_c, 4, 38, 95
5, 190080, Note_off_c, 4, 38, 95
5, 190080, Note_on_c, 4, 38, 95
5, 190560, Note_off_c, 4, 38, 95
5, 190560, Note_on_c, 4, 38, 95
5, 191040, Note_off_c, 4, 38, 95
5, 191040, Note_on_c, 4, 38, 95
5, 191520, Note_off_c, 4, 38, 95
5, 191520, Note_on_c, 4, 50, 95
5, 192480, Note_off_c, 4, 50, 95
5, 192480, Note_on_c, 4, 48, 95
5, 192960, Note_off_c, 4, 48, 95
5, 192960, Note_on_c, 4, 48, 95
5, 193440, Note_off_c, 4, 48, 95
5, 193440, Note_on_c, 4, 45, 95
5, 193920, Note_off_c, 4, 45, 95
5, 193920, Note_on_c, 4, 43, 95
5, 194400, Note_off_c, 4, 43, 95
5, 194400, Note_on_c, 4, 41, 95
5, 194880, Note_off_c, 4, 41, 95
5, 194880, Note_on_c, 4, 41, 95
5, 195360, Note_off_c, 4, 41, 95
5, 195360, Note_on_c, 4, 38, 95
5, 195840, Note_off_c, 4, 38, 95
5, 195840, Note_on_c, 4, 38, 95
5, 196800, Note_off_c, 4, 38, 95
5, 196800, Note_on_c, 4, 38, 95
5, 197280, Note_off_c, 4, 38, 95
5, 197280, Note_on_c, 4, 38, 95
5, 197760, Note_off_c, 4, 38, 95
5, 197760, Note_on_c, 4, 38, 95
5, 198240, Note_off_c, 4, 38, 95
5, 198240, Note_on_c, 4, 38, 95
5, 198720, Note_off_c, 4, 38, 95
5, 198720, Note_on_c, 4, 38, 95
5, 199200, Note_off_c, 4, 38, 95
5, 199200, Note_on_c, 4, 50, 95
5, 200160, Note_off_c, 4, 50, 95
5, 200160, Note_on_c, 4, 48, 95
5, 200640, Note_off_c, 4, 48, 95
5, 200640, Note_on_c, 4, 48, 95
5, 201120, Note_off_c, 4, 48, 95
5, 201120, Note_on_c, 4, 45, 95
5, 201600, Note_off_c, 4, 45, 95
5, 201600, Note_on_c, 4, 43, 95
5, 202080, Note_off_c, 4, 43, 95
5, 202080, Note_on_c, 4, 41, 95
5, 202560, Note_off_c, 4, 41, 95
5, 202560, Note_on_c, 4, 41, 95
5, 203520, Note_off_c, 4, 41, 95
5, 203520, Note_on_c, 4, 50, 95
5, 204480, Note_off_c, 4, 50, 95
5, 204480, Note_on_c, 4, 50, 95
5, 205440, Note_off_c, 4, 50, 95
5, 205440, Note_on_c, 4, 50, 95
5, 205920, Note_off_c, 4, 50, 95
5, 205920, Note_on_c, 4, 50, 95
5, 206400, Note_off_c, 4, 50, 95
5, 206400, Note_on_c, 4, 50, 95
5, 206880, Note_off_c, 4, 50, 95
5, 206880, Note_on_c, 4, 50, 95
5, 207840, Note_off_c, 4, 50, 95
5, 207840, Note_on_c, 4, 48, 95
5, 208320, Note_off_c, 4, 48, 95
5, 208320, Note_on_c, 4, 48, 95
5, 208800, Note_off_c, 4, 48, 95
5, 208800, Note_on_c, 4, 45, 95
5, 209280, Note_off_c, 4, 45, 95
5, 209280, Note_on_c, 4, 43, 95
5, 209760, Note_off_c, 4, 43, 95
5, 209760, Note_on_c, 4, 41, 95
5, 210240, Note_off_c, 4, 41, 95
5, 210240, Note_on_c, 4, 41, 95
5, 210720, Note_off_c, 4, 41, 95
5, 210720, Note_on_c, 4, 38, 95
5, 211200, Note_off_c, 4, 38, 95
5, 211200, Note_on_c, 4, 38, 95
5, 212160, Note_off_c, 4, 38, 95
5, 212160, Note_on_c, 4, 38, 95
5, 213120, Note_off_c, 4, 38, 95
5, 213120, Note_on_c, 4, 38, 95
5, 213600, Note_off_c, 4, 38, 95
5, 213600, Note_on_c, 4, 38, 95
5, 214080, Note_off_c, 4, 38, 95
5, 214080, Note_on_c, 4, 38, 95
5, 214560, Note_off_c, 4, 38, 95
5, 214560, Note_on_c, 4, 50, 95
5, 215520, Note_off_c, 4, 50, 95
5, 215520, Note_on_c, 4, 48, 95
5, 216480, Note_off_c, 4, 48, 95
5, 216480, Note_on_c, 4, 45, 95
5, 216960, Note_off_c, 4, 45, 95
5, 216960, Note_on_c, 4, 43, 95
5, 217440, Note_off_c, 4, 43, 95
5, 217440, Note_on_c, 4, 41, 95
5, 218880, Note_off_c, 4, 41, 95
5, 218880, Note_on_c, 4, 36, 95
5, 219360, Note_off_c, 4, 36, 95
5, 219360, Note_on_c, 4, 36, 95
5, 219840, Note_off_c, 4, 36, 95
5, 219840, Note_on_c, 4, 36, 95
5, 220320, Note_off_c, 4, 36, 95
5, 220320, Note_on_c, 4, 36, 95
5, 220800, Note_off_c, 4, 36, 95
5, 220800, Note_on_c, 4, 36, 95
5, 221280, Note_off_c, 4, 36, 95
5, 221280, Note_on_c, 4, 36, 95
5, 221760, Note_off_c, 4, 36, 95
5, 221760, Note_on_c, 4, 36, 95
5, 222240, Note_off_c, 4, 36, 95
5, 222240, Note_on_c, 4, 36, 95
5, 222720, Note_off_c, 4, 36, 95
5, 222720, Note_on_c, 4, 36, 95
5, 223200, Note_off_c, 4, 36, 95
5, 223200, Note_on_c, 4, 36, 95
5, 223680, Note_off_c, 4, 36, 95
5, 223680, Note_on_c, 4, 36, 95
5, 224160, Note_off_c, 4, 36, 95
5, 224160, Note_on_c, 4, 36, 95
5, 224640, Note_off_c, 4, 36, 95
5, 224640, Note_on_c, 4, 36, 95
5, 225120, Note_off_c, 4, 36, 95
5, 225120, Note_on_c, 4, 36, 95
5, 225600, Note_off_c, 4, 36, 95
5, 225600, Note_on_c, 4, 36, 95
5, 226080, Note_off_c, 4, 36, 95
5, 226080, Note_on_c, 4, 36, 95
5, 226560, Note_off_c, 4, 36, 95
5, 226560, Note_on_c, 4, 36, 95
5, 227040, Note_off_c, 4, 36, 95
5, 227040, Note_on_c, 4, 36, 95
5, 227520, Note_off_c, 4, 36, 95
5, 227520, Note_on_c, 4, 36, 95
5, 228000, Note_off_c, 4, 36, 95
5, 228000, Note_on_c, 4, 36, 95
5, 228480, Note_off_c, 4, 36, 95
5, 228480, Note_on_c, 4, 36, 95
5, 228960, Note_off_c, 4, 36, 95
5, 228960, Note_on_c, 4, 36, 95
5, 229440, Note_off_c, 4, 36, 95
5, 229440, Note_on_c, 4, 36, 95
5, 229920, Note_off_c, 4, 36, 95
5, 229920, Note_on_c, 4, 41, 95
5, 230400, Note_off_c, 4, 41, 95
5, 230400, Note_on_c, 4, 36, 95
5, 230880, Note_off_c, 4, 36, 95
5, 230880, Note_on_c, 4, 36, 95
5, 231360, Note_off_c, 4, 36, 95
5, 231360, Note_on_c, 4, 36, 95
5, 231840, Note_off_c, 4, 36, 95
5, 231840, Note_on_c, 4, 36, 95
5, 232320, Note_off_c, 4, 36, 95
5, 232320, Note_on_c, 4, 36, 95
5, 232800, Note_off_c, 4, 36, 95
5, 232800, Note_on_c, 4, 36, 95
5, 233280, Note_off_c, 4, 36, 95
5, 233280, Note_on_c, 4, 36, 95
5, 233760, Note_off_c, 4, 36, 95
5, 233760, Note_on_c, 4, 36, 95
5, 234240, Note_off_c, 4, 36, 95
5, 234240, Note_on_c, 4, 36, 95
5, 234720, Note_off_c, 4, 36, 95
5, 234720, Note_on_c, 4, 36, 95
5, 235200, Note_off_c, 4, 36, 95
5, 235200, Note_on_c, 4, 36, 95
5, 235680, Note_off_c, 4, 36, 95
5, 235680, Note_on_c, 4, 36, 95
5, 236160, Note_off_c, 4, 36, 95
5, 236160, Note_on_c, 4, 36, 95
5, 236640, Note_off_c, 4, 36, 95
5, 236640, Note_on_c, 4, 36, 95
5, 237120, Note_off_c, 4, 36, 95
5, 237120, Note_on_c, 4, 36, 95
5, 237600, Note_off_c, 4, 36, 95
5, 237600, Note_on_c, 4, 36, 95
5, 238080, Note_off_c, 4, 36, 95
5, 238080, Note_on_c, 4, 36, 95
5, 238560, Note_off_c, 4, 36, 95
5, 238560, Note_on_c, 4, 36, 95
5, 239040, Note_off_c, 4, 36, 95
5, 239040, Note_on_c, 4, 36, 95
5, 239520, Note_off_c, 4, 36, 95
5, 239520, Note_on_c, 4, 36, 95
5, 240000, Note_off_c, 4, 36, 95
5, 240000, Note_on_c, 4, 36, 95
5, 240480, Note_off_c, 4, 36, 95
5, 240480, Note_on_c, 4, 36, 95
5, 240960, Note_off_c, 4, 36, 95
5, 240960, Note_on_c, 4, 36, 95
5, 241440, Note_off_c, 4, 36, 95
5, 241440, Note_on_c, 4, 36, 95
5, 241920, Note_off_c, 4, 36, 95
5, 241920, Note_on_c, 4, 36, 95
5, 242400, Note_off_c, 4, 36, 95
5, 242400, Note_on_c, 4, 36, 95
5, 242880, Note_off_c, 4, 36, 95
5, 242880, Note_on_c, 4, 36, 95
5, 243360, Note_off_c, 4, 36, 95
5, 243360, Note_on_c, 4, 36, 95
5, 243840, Note_off_c, 4, 36, 95
5, 243840, Note_on_c, 4, 36, 95
5, 244320, Note_off_c, 4, 36, 95
5, 244320, Note_on_c, 4, 36, 95
5, 244800, Note_off_c, 4, 36, 95
5, 244800, Note_on_c, 4, 36, 95
5, 245280, Note_off_c, 4, 36, 95
5, 245280, Note_on_c, 4, 36, 95
5, 245760, Note_off_c, 4, 36, 95
5, 245760, Note_on_c, 4, 36, 95
5, 246240, Note_off_c, 4, 36, 95
5, 246240, Note_on_c, 4, 36, 95
5, 246720, Note_off_c, 4, 36, 95
5, 246720, Note_on_c, 4, 36, 95
5, 247200, Note_off_c, 4, 36, 95
5, 247200, Note_on_c, 4, 36, 95
5, 247680, Note_off_c, 4, 36, 95
5, 247680, Note_on_c, 4, 36, 95
5, 248160, Note_off_c, 4, 36, 95
5, 248160, Note_on_c, 4, 36, 95
5, 248640, Note_off_c, 4, 36, 95
5, 248640, Note_on_c, 4, 36, 95
5, 249120, Note_off_c, 4, 36, 95
5, 249120, Note_on_c, 4, 36, 95
5, 249600, Note_off_c, 4, 36, 95
5, 249600, Note_on_c, 4, 36, 95
5, 250080, Note_off_c, 4, 36, 95
5, 250080, Note_on_c, 4, 36, 95
5, 250560, Note_off_c, 4, 36, 95
5, 250560, Note_on_c, 4, 36, 95
5, 251040, Note_off_c, 4, 36, 95
5, 251040, Note_on_c, 4, 36, 95
5, 251520, Note_off_c, 4, 36, 95
5, 251520, Note_on_c, 4, 36, 95
5, 252000, Note_off_c, 4, 36, 95
5, 252000, Note_on_c, 4, 36, 95
5, 252480, Note_off_c, 4, 36, 95
5, 252480, Note_on_c, 4, 36, 95
5, 252960, Note_off_c, 4, 36, 95
5, 252960, Note_on_c, 4, 36, 95
5, 253440, Note_off_c, 4, 36, 95
5, 253440, Note_on_c, 4, 36, 95
5, 253920, Note_off_c, 4, 36, 95
5, 253920, Note_on_c, 4, 36, 95
5, 254400, Note_off_c, 4, 36, 95
5, 254400, Note_on_c, 4, 36, 95
5, 254880, Note_off_c, 4, 36, 95
5, 254880, Note_on_c, 4, 36, 95
5, 255360, Note_off_c, 4, 36, 95
5, 255360, Note_on_c, 4, 36, 95
5, 255840, Note_off_c, 4, 36, 95
5, 255840, Note_on_c, 4, 36, 95
5, 256320, Note_off_c, 4, 36, 95
5, 256320, Note_on_c, 4, 36, 95
5, 256800, Note_off_c, 4, 36, 95
5, 256800, Note_on_c, 4, 36, 95
5, 257280, Note_off_c, 4, 36, 95
5, 257280, Note_on_c, 4, 36, 95
5, 257760, Note_off_c, 4, 36, 95
5, 257760, Note_on_c, 4, 36, 95
5, 258240, Note_off_c, 4, 36, 95
5, 258240, Note_on_c, 4, 36, 95
5, 258720, Note_off_c, 4, 36, 95
5, 258720, Note_on_c, 4, 36, 95
5, 259200, Note_off_c, 4, 36, 95
5, 259200, Note_on_c, 4, 36, 95
5, 259680, Note_off_c, 4, 36, 95
5, 259680, Note_on_c, 4, 36, 95
5, 260160, Note_off_c, 4, 36, 95
5, 260160, Note_on_c, 4, 36, 95
5, 260640, Note_off_c, 4, 36, 95
5, 260640, Note_on_c, 4, 36, 95
5, 261120, Note_off_c, 4, 36, 95
5, 261120, Note_on_c, 4, 36, 95
5, 261600, Note_off_c, 4, 36, 95
5, 261600, Note_on_c, 4, 36, 95
5, 262080, Note_off_c, 4, 36, 95
5, 262080, Note_on_c, 4, 36, 95
5, 262560, Note_off_c, 4, 36, 95
5, 262560, Note_on_c, 4, 36, 95
5, 263040, Note_off_c, 4, 36, 95
5, 263040, Note_on_c, 4, 36, 95
5, 263520, Note_off_c, 4, 36, 95
5, 263520, Note_on_c, 4, 36, 95
5, 264000, Note_off_c, 4, 36, 95
5, 264000, Note_on_c, 4, 36, 95
5, 264480, Note_off_c, 4, 36, 95
5, 264480, Note_on_c, 4, 36, 95
5, 264960, Note_off_c, 4, 36, 95
5, 264960, Note_on_c, 4, 36, 95
5, 265440, Note_off_c, 4, 36, 95
5, 265440, Note_on_c, 4, 36, 95
5, 265920, Note_off_c, 4, 36, 95
5, 265920, Note_on_c, 4, 36, 95
5, 266400, Note_off_c, 4, 36, 95
5, 266400, Note_on_c, 4, 36, 95
5, 266880, Note_off_c, 4, 36, 95
5, 266880, Note_on_c, 4, 36, 95
5, 267360, Note_off_c, 4, 36, 95
5, 267360, Note_on_c, 4, 29, 95
5, 267840, Note_off_c, 4, 29, 95
5, 267840, Note_on_c, 4, 30, 95
5, 268320, Note_off_c, 4, 30, 95
5, 268320, Note_on_c, 4, 31, 95
5, 269280, Note_off_c, 4, 31, 95
5, 269280, Note_on_c, 4, 31, 95
5, 269760, Note_off_c, 4, 31, 95
5, 269760, Note_on_c, 4, 31, 95
5, 270240, Note_off_c, 4, 31, 95
5, 270720, Note_on_c, 4, 29, 95
5, 271200, Note_off_c, 4, 29, 95
5, 271200, Note_on_c, 4, 29, 95
5, 271680, Note_off_c, 4, 29, 95
5, 271680, Note_on_c, 4, 30, 95
5, 272160, Note_off_c, 4, 30, 95
5, 272160, Note_on_c, 4, 31, 95
5, 273120, Note_off_c, 4, 31, 95
5, 273120, Note_on_c, 4, 31, 95
5, 273600, Note_off_c, 4, 31, 95
5, 273600, Note_on_c, 4, 31, 95
5, 274080, Note_off_c, 4, 31, 95
5, 274560, Note_on_c, 4, 29, 95
5, 275040, Note_off_c, 4, 29, 95
5, 275040, Note_on_c, 4, 29, 95
5, 275520, Note_off_c, 4, 29, 95
5, 275520, Note_on_c, 4, 30, 95
5, 276000, Note_off_c, 4, 30, 95
5, 276000, Note_on_c, 4, 31, 95
5, 276960, Note_off_c, 4, 31, 95
5, 276960, Note_on_c, 4, 31, 95
5, 277440, Note_off_c, 4, 31, 95
5, 277440, Note_on_c, 4, 31, 95
5, 277920, Note_off_c, 4, 31, 95
5, 278400, Note_on_c, 4, 29, 95
5, 278880, Note_off_c, 4, 29, 95
5, 278880, Note_on_c, 4, 29, 95
5, 279360, Note_off_c, 4, 29, 95
5, 279360, Note_on_c, 4, 30, 95
5, 279840, Note_off_c, 4, 30, 95
5, 279840, Note_on_c, 4, 31, 95
5, 280800, Note_off_c, 4, 31, 95
5, 280800, Note_on_c, 4, 31, 95
5, 281280, Note_off_c, 4, 31, 95
5, 281280, Note_on_c, 4, 31, 95
5, 281760, Note_off_c, 4, 31, 95
5, 282240, Note_on_c, 4, 29, 95
5, 282720, Note_off_c, 4, 29, 95
5, 282720, Note_on_c, 4, 29, 95
5, 283200, Note_off_c, 4, 29, 95
5, 283200, Note_on_c, 4, 30, 95
5, 283680, Note_off_c, 4, 30, 95
5, 283680, Note_on_c, 4, 31, 95
5, 284640, Note_off_c, 4, 31, 95
5, 284640, Note_on_c, 4, 31, 95
5, 285120, Note_off_c, 4, 31, 95
5, 285120, Note_on_c, 4, 31, 95
5, 285600, Note_off_c, 4, 31, 95
5, 286080, Note_on_c, 4, 29, 95
5, 286560, Note_off_c, 4, 29, 95
5, 286560, Note_on_c, 4, 29, 95
5, 287040, Note_off_c, 4, 29, 95
5, 287040, Note_on_c, 4, 30, 95
5, 287520, Note_off_c, 4, 30, 95
5, 287520, Note_on_c, 4, 31, 95
5, 288000, Note_off_c, 4, 31, 95
5, 288000, Note_on_c, 4, 31, 95
5, 288480, Note_off_c, 4, 31, 95
5, 288480, Note_on_c, 4, 31, 95
5, 288960, Note_off_c, 4, 31, 95
5, 288960, Note_on_c, 4, 31, 95
5, 289440, Note_off_c, 4, 31, 95
5, 290400, Note_on_c, 4, 29, 95
5, 290880, Note_off_c, 4, 29, 95
5, 290880, Note_on_c, 4, 30, 95
5, 291360, Note_off_c, 4, 30, 95
5, 291360, Note_on_c, 4, 31, 95
5, 292320, Note_off_c, 4, 31, 95
5, 292320, Note_on_c, 4, 31, 95
5, 292800, Note_off_c, 4, 31, 95
5, 292800, Note_on_c, 4, 31, 95
5, 293280, Note_off_c, 4, 31, 95
5, 293280, Note_on_c, 4, 31, 95
5, 293760, Note_off_c, 4, 31, 95
5, 293760, Note_on_c, 4, 35, 95
5, 294240, Note_off_c, 4, 35, 95
5, 294240, Note_on_c, 4, 36, 95
5, 294720, Note_off_c, 4, 36, 95
5, 294720, Note_on_c, 4, 37, 95
5, 295200, Note_off_c, 4, 37, 95
5, 295200, Note_on_c, 4, 38, 95
5, 296640, Note_off_c, 4, 38, 95
5, 296640, Note_on_c, 4, 38, 95
5, 297600, Note_off_c, 4, 38, 95
5, 297600, Note_on_c, 4, 38, 95
5, 298080, Note_off_c, 4, 38, 95
5, 298080, Note_on_c, 4, 38, 95
5, 298560, Note_off_c, 4, 38, 95
5, 298560, Note_on_c, 4, 38, 95
5, 299040, Note_off_c, 4, 38, 95
5, 299040, Note_on_c, 4, 50, 95
5, 300000, Note_off_c, 4, 50, 95
5, 300000, Note_on_c, 4, 48, 95
5, 300480, Note_off_c, 4, 48, 95
5, 300480, Note_on_c, 4, 48, 95
5, 300960, Note_off_c, 4, 48, 95
5, 300960, Note_on_c, 4, 45, 95
5, 301440, Note_off_c, 4, 45, 95
5, 301440, Note_on_c, 4, 43, 95
5, 301920, Note_off_c, 4, 43, 95
5, 301920, Note_on_c, 4, 41, 95
5, 302400, Note_off_c, 4, 41, 95
5, 302400, Note_on_c, 4, 41, 95
5, 302880, Note_off_c, 4, 41, 95
5, 302880, Note_on_c, 4, 38, 95
5, 303360, Note_off_c, 4, 38, 95
5, 303360, Note_on_c, 4, 38, 95
5, 304320, Note_off_c, 4, 38, 95
5, 304320, Note_on_c, 4, 38, 95
5, 304800, Note_off_c, 4, 38, 95
5, 304800, Note_on_c, 4, 38, 95
5, 305280, Note_off_c, 4, 38, 95
5, 305280, Note_on_c, 4, 38, 95
5, 305760, Note_off_c, 4, 38, 95
5, 305760, Note_on_c, 4, 38, 95
5, 306240, Note_off_c, 4, 38, 95
5, 306240, Note_on_c, 4, 38, 95
5, 306720, Note_off_c, 4, 38, 95
5, 306720, Note_on_c, 4, 50, 95
5, 307680, Note_off_c, 4, 50, 95
5, 307680, Note_on_c, 4, 48, 95
5, 308160, Note_off_c, 4, 48, 95
5, 308160, Note_on_c, 4, 48, 95
5, 308640, Note_off_c, 4, 48, 95
5, 308640, Note_on_c, 4, 45, 95
5, 309120, Note_off_c, 4, 45, 95
5, 309120, Note_on_c, 4, 43, 95
5, 309600, Note_off_c, 4, 43, 95
5, 309600, Note_on_c, 4, 41, 95
5, 310080, Note_off_c, 4, 41, 95
5, 310080, Note_on_c, 4, 41, 95
5, 311040, Note_off_c, 4, 41, 95
5, 311040, Note_on_c, 4, 36, 95
5, 311520, Note_off_c, 4, 36, 95
5, 311520, Note_on_c, 4, 36, 95
5, 312000, Note_off_c, 4, 36, 95
5, 312000, Note_on_c, 4, 36, 95
5, 312480, Note_off_c, 4, 36, 95
5, 312480, Note_on_c, 4, 36, 95
5, 312960, Note_off_c, 4, 36, 95
5, 312960, Note_on_c, 4, 36, 95
5, 313440, Note_off_c, 4, 36, 95
5, 313440, Note_on_c, 4, 36, 95
5, 313920, Note_off_c, 4, 36, 95
5, 313920, Note_on_c, 4, 36, 95
5, 314400, Note_off_c, 4, 36, 95
5, 314400, Note_on_c, 4, 36, 95
5, 314880, Note_off_c, 4, 36, 95
5, 314880, Note_on_c, 4, 36, 95
5, 315360, Note_off_c, 4, 36, 95
5, 315360, Note_on_c, 4, 36, 95
5, 315840, Note_off_c, 4, 36, 95
5, 315840, Note_on_c, 4, 36, 95
5, 316320, Note_off_c, 4, 36, 95
5, 316320, Note_on_c, 4, 36, 95
5, 316800, Note_off_c, 4, 36, 95
5, 316800, Note_on_c, 4, 36, 95
5, 317280, Note_off_c, 4, 36, 95
5, 317280, Note_on_c, 4, 36, 95
5, 317760, Note_off_c, 4, 36, 95
5, 317760, Note_on_c, 4, 36, 95
5, 318240, Note_off_c, 4, 36, 95
5, 318240, Note_on_c, 4, 36, 95
5, 318720, Note_off_c, 4, 36, 95
5, 318720, Note_on_c, 4, 43, 95
5, 319200, Note_off_c, 4, 43, 95
5, 319200, Note_on_c, 4, 43, 95
5, 319680, Note_off_c, 4, 43, 95
5, 319680, Note_on_c, 4, 43, 95
5, 320160, Note_off_c, 4, 43, 95
5, 320160, Note_on_c, 4, 43, 95
5, 320640, Note_off_c, 4, 43, 95
5, 320640, Note_on_c, 4, 43, 95
5, 321120, Note_off_c, 4, 43, 95
5, 321120, Note_on_c, 4, 43, 95
5, 321600, Note_off_c, 4, 43, 95
5, 321600, Note_on_c, 4, 43, 95
5, 322080, Note_off_c, 4, 43, 95
5, 322080, Note_on_c, 4, 43, 95
5, 322560, Note_off_c, 4, 43, 95
5, 322560, Note_on_c, 4, 43, 95
5, 323040, Note_off_c, 4, 43, 95
5, 323040, Note_on_c, 4, 43, 95
5, 323520, Note_off_c, 4, 43, 95
5, 323520, Note_on_c, 4, 43, 95
5, 324000, Note_off_c, 4, 43, 95
5, 324000, Note_on_c, 4, 43, 95
5, 324480, Note_off_c, 4, 43, 95
5, 324480, Note_on_c, 4, 43, 95
5, 324960, Note_off_c, 4, 43, 95
5, 324960, Note_on_c, 4, 43, 95
5, 325440, Note_off_c, 4, 43, 95
5, 325440, Note_on_c, 4, 43, 95
5, 325920, Note_off_c, 4, 43, 95
5, 325920, Note_on_c, 4, 43, 95
5, 326400, Note_off_c, 4, 43, 95
5, 326400, Note_on_c, 4, 38, 95
5, 327360, Note_off_c, 4, 38, 95
5, 327360, Note_on_c, 4, 38, 95
5, 328320, Note_off_c, 4, 38, 95
5, 328320, Note_on_c, 4, 38, 95
5, 328800, Note_off_c, 4, 38, 95
5, 328800, Note_on_c, 4, 38, 95
5, 329280, Note_off_c, 4, 38, 95
5, 329280, Note_on_c, 4, 38, 95
5, 329760, Note_off_c, 4, 38, 95
5, 329760, Note_on_c, 4, 50, 95
5, 330720, Note_off_c, 4, 50, 95
5, 330720, Note_on_c, 4, 48, 95
5, 331680, Note_off_c, 4, 48, 95
5, 331680, Note_on_c, 4, 45, 95
5, 332160, Note_off_c, 4, 45, 95
5, 332160, Note_on_c, 4, 43, 95
5, 332640, Note_off_c, 4, 43, 95
5, 332640, Note_on_c, 4, 41, 95
5, 333600, Note_off_c, 4, 41, 95
5, 333600, Note_on_c, 4, 38, 95
5, 334080, Note_off_c, 4, 38, 95
5, 334080, Note_on_c, 4, 38, 95
5, 335040, Note_off_c, 4, 38, 95
5, 335040, Note_on_c, 4, 38, 95
5, 336000, Note_off_c, 4, 38, 95
5, 336000, Note_on_c, 4, 38, 95
5, 336480, Note_off_c, 4, 38, 95
5, 336480, Note_on_c, 4, 38, 95
5, 336960, Note_off_c, 4, 38, 95
5, 336960, Note_on_c, 4, 38, 95
5, 337440, Note_off_c, 4, 38, 95
5, 337440, Note_on_c, 4, 50, 95
5, 338400, Note_off_c, 4, 50, 95
5, 338400, Note_on_c, 4, 48, 95
5, 339360, Note_off_c, 4, 48, 95
5, 339360, Note_on_c, 4, 45, 95
5, 339840, Note_off_c, 4, 45, 95
5, 339840, Note_on_c, 4, 43, 95
5, 340320, Note_off_c, 4, 43, 95
5, 340320, Note_on_c, 4, 41, 95
5, 341280, Note_off_c, 4, 41, 95
5, 341280, Note_on_c, 4, 38, 95
5, 341760, Note_off_c, 4, 38, 95
5, 341760, Note_on_c, 4, 38, 95
5, 342720, Note_off_c, 4, 38, 95
5, 342720, Note_on_c, 4, 38, 95
5, 343680, Note_off_c, 4, 38, 95
5, 343680, Note_on_c, 4, 38, 95
5, 344160, Note_off_c, 4, 38, 95
5, 344160, Note_on_c, 4, 38, 95
5, 344640, Note_off_c, 4, 38, 95
5, 344640, Note_on_c, 4, 38, 95
5, 345120, Note_off_c, 4, 38, 95
5, 345120, Note_on_c, 4, 50, 95
5, 346080, Note_off_c, 4, 50, 95
5, 346080, Note_on_c, 4, 48, 95
5, 347040, Note_off_c, 4, 48, 95
5, 347040, Note_on_c, 4, 45, 95
5, 347520, Note_off_c, 4, 45, 95
5, 347520, Note_on_c, 4, 43, 95
5, 348000, Note_off_c, 4, 43, 95
5, 348000, Note_on_c, 4, 41, 95
5, 348960, Note_off_c, 4, 41, 95
5, 348960, Note_on_c, 4, 38, 95
5, 349440, Note_off_c, 4, 38, 95
5, 349440, Note_on_c, 4, 38, 95
5, 350400, Note_off_c, 4, 38, 95
5, 350400, Note_on_c, 4, 38, 95
5, 351360, Note_off_c, 4, 38, 95
5, 351360, Note_on_c, 4, 38, 95
5, 351840, Note_off_c, 4, 38, 95
5, 351840, Note_on_c, 4, 38, 95
5, 352320, Note_off_c, 4, 38, 95
5, 352320, Note_on_c, 4, 38, 95
5, 352800, Note_off_c, 4, 38, 95
5, 352800, Note_on_c, 4, 50, 95
5, 353760, Note_off_c, 4, 50, 95
5, 353760, Note_on_c, 4, 48, 95
5, 354720, Note_off_c, 4, 48, 95
5, 354720, Note_on_c, 4, 45, 95
5, 355200, Note_off_c, 4, 45, 95
5, 355200, Note_on_c, 4, 43, 95
5, 355680, Note_off_c, 4, 43, 95
5, 355680, Note_on_c, 4, 41, 95
5, 356640, Note_off_c, 4, 41, 95
5, 356640, Note_on_c, 4, 38, 95
5, 357120, Note_off_c, 4, 38, 95
5, 357120, Note_on_c, 4, 38, 95
5, 358080, Note_off_c, 4, 38, 95
5, 358080, Note_on_c, 4, 38, 95
5, 359040, Note_off_c, 4, 38, 95
5, 359040, Note_on_c, 4, 38, 95
5, 359520, Note_off_c, 4, 38, 95
5, 359520, Note_on_c, 4, 38, 95
5, 360000, Note_off_c, 4, 38, 95
5, 360000, Note_on_c, 4, 38, 95
5, 360480, Note_off_c, 4, 38, 95
5, 360480, Note_on_c, 4, 50, 95
5, 361440, Note_off_c, 4, 50, 95
5, 361440, Note_on_c, 4, 48, 95
5, 362400, Note_off_c, 4, 48, 95
5, 362400, Note_on_c, 4, 45, 95
5, 362880, Note_off_c, 4, 45, 95
5, 362880, Note_on_c, 4, 43, 95
5, 363360, Note_off_c, 4, 43, 95
5, 363360, Note_on_c, 4, 41, 95
5, 364320, Note_off_c, 4, 41, 95
5, 364320, Note_on_c, 4, 38, 95
5, 364800, Note_off_c, 4, 38, 95
5, 364800, End_track
6, 0, Start_track
6, 0, Pitch_bend_c, 8, 8192
6, 0, Control_c, 8, 7, 95
6, 0, Control_c, 8, 10, 63
6, 0, Control_c, 8, 93, 31
6, 0, Control_c, 8, 91, 0
6, 0, Control_c, 8, 95, 0
6, 0, Control_c, 8, 92, 0
6, 0, Control_c, 8, 11, 127
6, 0, Program_c, 8, 0
6, 0, Control_c, 10, 7, 95
6, 0, Control_c, 10, 10, 63
6, 0, Control_c, 10, 93, 31
6, 0, Control_c, 10, 91, 0
6, 0, Control_c, 10, 95, 0
6, 0, Control_c, 10, 92, 0
6, 0, Control_c, 10, 11, 127
6, 0, Program_c, 10, 0
6, 69120, Note_on_c, 8, 38, 95
6, 69600, Note_off_c, 8, 38, 95
6, 69600, Note_on_c, 8, 50, 95
6, 70080, Note_off_c, 8, 50, 95
6, 70080, Note_on_c, 8, 38, 95
6, 70560, Note_off_c, 8, 38, 95
6, 70560, Note_on_c, 8, 50, 95
6, 71040, Note_off_c, 8, 50, 95
6, 71040, Note_on_c, 8, 38, 95
6, 71520, Note_off_c, 8, 38, 95
6, 71520, Note_on_c, 8, 50, 95
6, 72000, Note_off_c, 8, 50, 95
6, 72000, Note_on_c, 8, 38, 95
6, 72480, Note_off_c, 8, 38, 95
6, 72480, Note_on_c, 8, 50, 95
6, 72960, Note_off_c, 8, 50, 95
6, 72960, Note_on_c, 8, 38, 95
6, 73440, Note_off_c, 8, 38, 95
6, 73440, Note_on_c, 8, 50, 95
6, 73920, Note_off_c, 8, 50, 95
6, 73920, Note_on_c, 8, 38, 95
6, 74400, Note_off_c, 8, 38, 95
6, 74400, Note_on_c, 8, 50, 95
6, 74880, Note_off_c, 8, 50, 95
6, 74880, Note_on_c, 8, 38, 95
6, 75360, Note_off_c, 8, 38, 95
6, 75360, Note_on_c, 8, 50, 95
6, 75840, Note_off_c, 8, 50, 95
6, 75840, Note_on_c, 8, 38, 95
6, 76320, Note_off_c, 8, 38, 95
6, 76320, Note_on_c, 8, 50, 95
6, 76800, Note_off_c, 8, 50, 95
6, 76800, Note_on_c, 8, 38, 95
6, 77280, Note_off_c, 8, 38, 95
6, 77280, Note_on_c, 8, 50, 95
6, 77760, Note_off_c, 8, 50, 95
6, 77760, Note_on_c, 8, 38, 95
6, 78240, Note_off_c, 8, 38, 95
6, 78240, Note_on_c, 8, 50, 95
6, 78720, Note_off_c, 8, 50, 95
6, 78720, Note_on_c, 8, 38, 95
6, 79200, Note_off_c, 8, 38, 95
6, 79200, Note_on_c, 8, 50, 95
6, 79680, Note_off_c, 8, 50, 95
6, 79680, Note_on_c, 8, 38, 95
6, 80160, Note_off_c, 8, 38, 95
6, 80160, Note_on_c, 8, 50, 95
6, 80640, Note_off_c, 8, 50, 95
6, 80640, Note_on_c, 8, 38, 95
6, 81120, Note_off_c, 8, 38, 95
6, 81120, Note_on_c, 8, 50, 95
6, 81600, Note_off_c, 8, 50, 95
6, 81600, Note_on_c, 8, 38, 95
6, 82080, Note_off_c, 8, 38, 95
6, 82080, Note_on_c, 8, 50, 95
6, 82560, Note_off_c, 8, 50, 95
6, 82560, Note_on_c, 8, 38, 95
6, 83040, Note_off_c, 8, 38, 95
6, 83040, Note_on_c, 8, 50, 95
6, 83520, Note_off_c, 8, 50, 95
6, 83520, Note_on_c, 8, 38, 95
6, 84000, Note_off_c, 8, 38, 95
6, 84000, Note_on_c, 8, 50, 95
6, 84480, Note_off_c, 8, 50, 95
6, 84480, Note_on_c, 8, 38, 95
6, 84960, Note_off_c, 8, 38, 95
6, 84960, Note_on_c, 8, 50, 95
6, 85440, Note_off_c, 8, 50, 95
6, 85440, Note_on_c, 8, 38, 95
6, 85920, Note_off_c, 8, 38, 95
6, 85920, Note_on_c, 8, 50, 95
6, 86400, Note_off_c, 8, 50, 95
6, 86400, Note_on_c, 8, 38, 95
6, 86880, Note_off_c, 8, 38, 95
6, 86880, Note_on_c, 8, 50, 95
6, 87360, Note_off_c, 8, 50, 95
6, 87360, Note_on_c, 8, 38, 95
6, 87840, Note_off_c, 8, 38, 95
6, 87840, Note_on_c, 8, 50, 95
6, 88320, Note_off_c, 8, 50, 95
6, 88320, Note_on_c, 8, 38, 95
6, 88800, Note_off_c, 8, 38, 95
6, 88800, Note_on_c, 8, 50, 95
6, 89280, Note_off_c, 8, 50, 95
6, 89280, Note_on_c, 8, 38, 95
6, 89760, Note_off_c, 8, 38, 95
6, 89760, Note_on_c, 8, 50, 95
6, 90240, Note_off_c, 8, 50, 95
6, 90240, Note_on_c, 8, 38, 95
6, 90720, Note_off_c, 8, 38, 95
6, 90720, Note_on_c, 8, 50, 95
6, 91200, Note_off_c, 8, 50, 95
6, 91200, Note_on_c, 8, 38, 95
6, 91680, Note_off_c, 8, 38, 95
6, 91680, Note_on_c, 8, 50, 95
6, 92160, Note_off_c, 8, 50, 95
6, 92160, Note_on_c, 8, 38, 95
6, 92640, Note_off_c, 8, 38, 95
6, 92640, Note_on_c, 8, 50, 95
6, 93120, Note_off_c, 8, 50, 95
6, 93120, Note_on_c, 8, 38, 95
6, 93600, Note_off_c, 8, 38, 95
6, 93600, Note_on_c, 8, 50, 95
6, 94080, Note_off_c, 8, 50, 95
6, 94080, Note_on_c, 8, 38, 95
6, 94560, Note_off_c, 8, 38, 95
6, 94560, Note_on_c, 8, 50, 95
6, 95040, Note_off_c, 8, 50, 95
6, 95040, Note_on_c, 8, 38, 95
6, 95520, Note_off_c, 8, 38, 95
6, 95520, Note_on_c, 8, 50, 95
6, 96000, Note_off_c, 8, 50, 95
6, 96000, Note_on_c, 8, 57, 95
6, 96000, Note_on_c, 8, 45, 95
6, 96960, Note_off_c, 8, 57, 95
6, 96960, Note_off_c, 8, 45, 95
6, 96960, Note_on_c, 8, 57, 95
6, 96960, Note_on_c, 8, 45, 95
6, 97920, Note_off_c, 8, 57, 95
6, 97920, Note_off_c, 8, 45, 95
6, 98400, Note_on_c, 8, 71, 95
6, 98400, Note_on_c, 8, 59, 95
6, 99840, Note_off_c, 8, 71, 95
6, 99840, Note_off_c, 8, 59, 95
6, 99840, Note_on_c, 8, 72, 95
6, 99840, Note_on_c, 8, 60, 95
6, 100320, Note_off_c, 8, 72, 95
6, 100320, Note_off_c, 8, 60, 95
6, 100320, Note_on_c, 8, 74, 95
6, 100320, Note_on_c, 8, 62, 95
6, 101280, Note_off_c, 8, 74, 95
6, 101280, Note_off_c, 8, 62, 95
6, 101280, Note_on_c, 8, 72, 95
6, 101280, Note_on_c, 8, 60, 95
6, 102240, Note_off_c, 8, 72, 95
6, 102240, Note_off_c, 8, 60, 95
6, 102240, Note_on_c, 8, 71, 95
6, 102240, Note_on_c, 8, 59, 95
6, 103680, Note_off_c, 8, 71, 95
6, 103680, Note_off_c, 8, 59, 95
6, 103680, Note_on_c, 8, 57, 95
6, 103680, Note_on_c, 8, 45, 95
6, 104640, Note_off_c, 8, 57, 95
6, 104640, Note_off_c, 8, 45, 95
6, 104640, Note_on_c, 8, 57, 95
6, 104640, Note_on_c, 8, 45, 95
6, 105600, Note_off_c, 8, 57, 95
6, 105600, Note_off_c, 8, 45, 95
6, 106080, Note_on_c, 8, 71, 95
6, 106080, Note_on_c, 8, 59, 95
6, 107520, Note_off_c, 8, 71, 95
6, 107520, Note_off_c, 8, 59, 95
6, 107520, Note_on_c, 8, 72, 95
6, 107520, Note_on_c, 8, 60, 95
6, 108000, Note_off_c, 8, 72, 95
6, 108000, Note_off_c, 8, 60, 95
6, 108000, Note_on_c, 8, 74, 95
6, 108000, Note_on_c, 8, 62, 95
6, 108960, Note_off_c, 8, 74, 95
6, 108960, Note_off_c, 8, 62, 95
6, 108960, Note_on_c, 8, 72, 95
6, 108960, Note_on_c, 8, 60, 95
6, 109920, Note_off_c, 8, 72, 95
6, 109920, Note_off_c, 8, 60, 95
6, 109920, Note_on_c, 8, 71, 95
6, 109920, Note_on_c, 8, 59, 95
6, 111360, Note_off_c, 8, 71, 95
6, 111360, Note_off_c, 8, 59, 95
6, 161280, Note_on_c, 8, 38, 95
6, 161760, Note_off_c, 8, 38, 95
6, 161760, Note_on_c, 8, 50, 95
6, 162240, Note_off_c, 8, 50, 95
6, 162240, Note_on_c, 8, 38, 95
6, 162720, Note_off_c, 8, 38, 95
6, 162720, Note_on_c, 8, 50, 95
6, 163200, Note_off_c, 8, 50, 95
6, 163200, Note_on_c, 8, 38, 95
6, 163680, Note_off_c, 8, 38, 95
6, 163680, Note_on_c, 8, 50, 95
6, 164160, Note_off_c, 8, 50, 95
6, 164160, Note_on_c, 8, 38, 95
6, 164640, Note_off_c, 8, 38, 95
6, 164640, Note_on_c, 8, 50, 95
6, 165120, Note_off_c, 8, 50, 95
6, 165120, Note_on_c, 8, 38, 95
6, 165600, Note_off_c, 8, 38, 95
6, 165600, Note_on_c, 8, 50, 95
6, 166080, Note_off_c, 8, 50, 95
6, 166080, Note_on_c, 8, 38, 95
6, 166560, Note_off_c, 8, 38, 95
6, 166560, Note_on_c, 8, 50, 95
6, 167040, Note_off_c, 8, 50, 95
6, 167040, Note_on_c, 8, 38, 95
6, 167520, Note_off_c, 8, 38, 95
6, 167520, Note_on_c, 8, 50, 95
6, 168000, Note_off_c, 8, 50, 95
6, 168000, Note_on_c, 8, 38, 95
6, 168480, Note_off_c, 8, 38, 95
6, 168480, Note_on_c, 8, 50, 95
6, 168960, Note_off_c, 8, 50, 95
6, 168960, Note_on_c, 8, 38, 95
6, 169440, Note_off_c, 8, 38, 95
6, 169440, Note_on_c, 8, 50, 95
6, 169920, Note_off_c, 8, 50, 95
6, 169920, Note_on_c, 8, 38, 95
6, 170400, Note_off_c, 8, 38, 95
6, 170400, Note_on_c, 8, 50, 95
6, 170880, Note_off_c, 8, 50, 95
6, 170880, Note_on_c, 8, 38, 95
6, 171360, Note_off_c, 8, 38, 95
6, 171360, Note_on_c, 8, 50, 95
6, 171840, Note_off_c, 8, 50, 95
6, 171840, Note_on_c, 8, 38, 95
6, 172320, Note_off_c, 8, 38, 95
6, 172320, Note_on_c, 8, 50, 95
6, 172800, Note_off_c, 8, 50, 95
6, 172800, Note_on_c, 8, 38, 95
6, 173280, Note_off_c, 8, 38, 95
6, 173280, Note_on_c, 8, 50, 95
6, 173760, Note_off_c, 8, 50, 95
6, 173760, Note_on_c, 8, 38, 95
6, 174240, Note_off_c, 8, 38, 95
6, 174240, Note_on_c, 8, 50, 95
6, 174720, Note_off_c, 8, 50, 95
6, 174720, Note_on_c, 8, 38, 95
6, 175200, Note_off_c, 8, 38, 95
6, 175200, Note_on_c, 8, 50, 95
6, 175680, Note_off_c, 8, 50, 95
6, 175680, Note_on_c, 8, 38, 95
6, 176160, Note_off_c, 8, 38, 95
6, 176160, Note_on_c, 8, 50, 95
6, 176640, Note_off_c, 8, 50, 95
6, 176640, Note_on_c, 8, 38, 95
6, 177120, Note_off_c, 8, 38, 95
6, 177120, Note_on_c, 8, 50, 95
6, 177600, Note_off_c, 8, 50, 95
6, 177600, Note_on_c, 8, 38, 95
6, 178080, Note_off_c, 8, 38, 95
6, 178080, Note_on_c, 8, 50, 95
6, 178560, Note_off_c, 8, 50, 95
6, 178560, Note_on_c, 8, 38, 95
6, 179040, Note_off_c, 8, 38, 95
6, 179040, Note_on_c, 8, 50, 95
6, 179520, Note_off_c, 8, 50, 95
6, 179520, Note_on_c, 8, 38, 95
6, 180000, Note_off_c, 8, 38, 95
6, 180000, Note_on_c, 8, 50, 95
6, 180480, Note_off_c, 8, 50, 95
6, 180480, Note_on_c, 8, 38, 95
6, 180960, Note_off_c, 8, 38, 95
6, 180960, Note_on_c, 8, 50, 95
6, 181440, Note_off_c, 8, 50, 95
6, 181440, Note_on_c, 8, 38, 95
6, 181920, Note_off_c, 8, 38, 95
6, 181920, Note_on_c, 8, 50, 95
6, 182400, Note_off_c, 8, 50, 95
6, 182400, Note_on_c, 8, 38, 95
6, 182880, Note_off_c, 8, 38, 95
6, 182880, Note_on_c, 8, 50, 95
6, 183360, Note_off_c, 8, 50, 95
6, 183360, Note_on_c, 8, 38, 95
6, 183840, Note_off_c, 8, 38, 95
6, 183840, Note_on_c, 8, 50, 95
6, 184320, Note_off_c, 8, 50, 95
6, 184320, Note_on_c, 8, 38, 95
6, 184800, Note_off_c, 8, 38, 95
6, 184800, Note_on_c, 8, 50, 95
6, 185280, Note_off_c, 8, 50, 95
6, 185280, Note_on_c, 8, 38, 95
6, 185760, Note_off_c, 8, 38, 95
6, 185760, Note_on_c, 8, 50, 95
6, 186240, Note_off_c, 8, 50, 95
6, 186240, Note_on_c, 8, 38, 95
6, 186720, Note_off_c, 8, 38, 95
6, 186720, Note_on_c, 8, 50, 95
6, 187200, Note_off_c, 8, 50, 95
6, 187200, Note_on_c, 8, 38, 95
6, 187680, Note_off_c, 8, 38, 95
6, 187680, Note_on_c, 8, 50, 95
6, 188160, Note_off_c, 8, 50, 95
6, 188160, Note_on_c, 8, 57, 95
6, 188160, Note_on_c, 8, 45, 95
6, 189120, Note_off_c, 8, 57, 95
6, 189120, Note_off_c, 8, 45, 95
6, 189120, Note_on_c, 8, 57, 95
6, 189120, Note_on_c, 8, 45, 95
6, 190080, Note_off_c, 8, 57, 95
6, 190080, Note_off_c, 8, 45, 95
6, 190560, Note_on_c, 8, 71, 95
6, 190560, Note_on_c, 8, 59, 95
6, 192000, Note_off_c, 8, 71, 95
6, 192000, Note_off_c, 8, 59, 95
6, 192000, Note_on_c, 8, 72, 95
6, 192000, Note_on_c, 8, 60, 95
6, 192480, Note_off_c, 8, 72, 95
6, 192480, Note_off_c, 8, 60, 95
6, 192480, Note_on_c, 8, 74, 95
6, 192480, Note_on_c, 8, 62, 95
6, 193440, Note_off_c, 8, 74, 95
6, 193440, Note_off_c, 8, 62, 95
6, 193440, Note_on_c, 8, 72, 95
6, 193440, Note_on_c, 8, 60, 95
6, 194400, Note_off_c, 8, 72, 95
6, 194400, Note_off_c, 8, 60, 95
6, 194400, Note_on_c, 8, 71, 95
6, 194400, Note_on_c, 8, 59, 95
6, 195840, Note_off_c, 8, 71, 95
6, 195840, Note_off_c, 8, 59, 95
6, 195840, Note_on_c, 8, 57, 95
6, 195840, Note_on_c, 8, 45, 95
6, 196800, Note_off_c, 8, 57, 95
6, 196800, Note_off_c, 8, 45, 95
6, 196800, Note_on_c, 8, 57, 95
6, 196800, Note_on_c, 8, 45, 95
6, 197760, Note_off_c, 8, 57, 95
6, 197760, Note_off_c, 8, 45, 95
6, 198240, Note_on_c, 8, 71, 95
6, 198240, Note_on_c, 8, 59, 95
6, 199680, Note_off_c, 8, 71, 95
6, 199680, Note_off_c, 8, 59, 95
6, 199680, Note_on_c, 8, 72, 95
6, 199680, Note_on_c, 8, 60, 95
6, 200160, Note_off_c, 8, 72, 95
6, 200160, Note_off_c, 8, 60, 95
6, 200160, Note_on_c, 8, 74, 95
6, 200160, Note_on_c, 8, 62, 95
6, 201120, Note_off_c, 8, 74, 95
6, 201120, Note_off_c, 8, 62, 95
6, 201120, Note_on_c, 8, 72, 95
6, 201120, Note_on_c, 8, 60, 95
6, 202080, Note_off_c, 8, 72, 95
6, 202080, Note_off_c, 8, 60, 95
6, 202080, Note_on_c, 8, 71, 95
6, 202080, Note_on_c, 8, 59, 95
6, 203520, Note_off_c, 8, 71, 95
6, 203520, Note_off_c, 8, 59, 95
6, 203520, Note_on_c, 8, 65, 95
6, 203520, Note_on_c, 8, 57, 95
6, 204960, Note_off_c, 8, 65, 95
6, 204960, Note_off_c, 8, 57, 95
6, 204960, Note_on_c, 8, 67, 95
6, 204960, Note_on_c, 8, 59, 95
6, 206400, Note_off_c, 8, 67, 95
6, 206400, Note_off_c, 8, 59, 95
6, 206400, Note_on_c, 8, 64, 95
6, 206400, Note_on_c, 8, 55, 95
6, 207840, Note_off_c, 8, 64, 95
6, 207840, Note_off_c, 8, 55, 95
6, 207840, Note_on_c, 8, 65, 95
6, 207840, Note_on_c, 8, 57, 95
6, 209280, Note_off_c, 8, 65, 95
6, 209280, Note_off_c, 8, 57, 95
6, 209280, Note_on_c, 8, 62, 95
6, 209280, Note_on_c, 8, 53, 95
6, 210720, Note_off_c, 8, 62, 95
6, 210720, Note_off_c, 8, 53, 95
6, 210720, Note_on_c, 8, 64, 95
6, 210720, Note_on_c, 8, 55, 95
6, 212640, Note_off_c, 8, 64, 95
6, 212640, Note_off_c, 8, 55, 95
6, 212640, Note_on_c, 8, 60, 95
6, 212640, Note_on_c, 8, 52, 95
6, 214080, Note_off_c, 8, 60, 95
6, 214080, Note_off_c, 8, 52, 95
6, 214080, Note_on_c, 8, 62, 95
6, 214080, Note_on_c, 8, 53, 95
6, 215040, Note_off_c, 8, 62, 95
6, 215040, Note_off_c, 8, 53, 95
6, 215040, Note_on_c, 8, 59, 95
6, 215040, Note_on_c, 8, 50, 95
6, 216480, Note_off_c, 8, 59, 95
6, 216480, Note_off_c, 8, 50, 95
6, 216480, Note_on_c, 8, 60, 95
6, 216480, Note_on_c, 8, 52, 95
6, 218880, Note_off_c, 8, 60, 95
6, 218880, Note_off_c, 8, 52, 95
6, 268800, Note_on_c, 8, 38, 95
6, 269280, Note_off_c, 8, 38, 95
6, 269280, Note_on_c, 8, 50, 95
6, 269760, Note_off_c, 8, 50, 95
6, 269760, Note_on_c, 8, 38, 95
6, 270240, Note_off_c, 8, 38, 95
6, 270240, Note_on_c, 8, 50, 95
6, 270720, Note_off_c, 8, 50, 95
6, 270720, Note_on_c, 8, 38, 95
6, 271200, Note_off_c, 8, 38, 95
6, 271200, Note_on_c, 8, 50, 95
6, 271680, Note_off_c, 8, 50, 95
6, 271680, Note_on_c, 8, 38, 95
6, 272160, Note_off_c, 8, 38, 95
6, 272160, Note_on_c, 8, 50, 95
6, 272640, Note_off_c, 8, 50, 95
6, 272640, Note_on_c, 8, 38, 95
6, 273120, Note_off_c, 8, 38, 95
6, 273120, Note_on_c, 8, 50, 95
6, 273600, Note_off_c, 8, 50, 95
6, 273600, Note_on_c, 8, 38, 95
6, 274080, Note_off_c, 8, 38, 95
6, 274080, Note_on_c, 8, 50, 95
6, 274560, Note_off_c, 8, 50, 95
6, 274560, Note_on_c, 8, 38, 95
6, 275040, Note_off_c, 8, 38, 95
6, 275040, Note_on_c, 8, 50, 95
6, 275520, Note_off_c, 8, 50, 95
6, 275520, Note_on_c, 8, 38, 95
6, 276000, Note_off_c, 8, 38, 95
6, 276000, Note_on_c, 8, 50, 95
6, 276480, Note_off_c, 8, 50, 95
6, 276480, Note_on_c, 8, 38, 95
6, 276960, Note_off_c, 8, 38, 95
6, 276960, Note_on_c, 8, 50, 95
6, 277440, Note_off_c, 8, 50, 95
6, 277440, Note_on_c, 8, 38, 95
6, 277920, Note_off_c, 8, 38, 95
6, 277920, Note_on_c, 8, 50, 95
6, 278400, Note_off_c, 8, 50, 95
6, 278400, Note_on_c, 8, 38, 95
6, 278880, Note_off_c, 8, 38, 95
6, 278880, Note_on_c, 8, 50, 95
6, 279360, Note_off_c, 8, 50, 95
6, 279360, Note_on_c, 8, 38, 95
6, 279840, Note_off_c, 8, 38, 95
6, 279840, Note_on_c, 8, 50, 95
6, 280320, Note_off_c, 8, 50, 95
6, 280320, Note_on_c, 8, 38, 95
6, 280800, Note_off_c, 8, 38, 95
6, 280800, Note_on_c, 8, 50, 95
6, 281280, Note_off_c, 8, 50, 95
6, 281280, Note_on_c, 8, 38, 95
6, 281760, Note_off_c, 8, 38, 95
6, 281760, Note_on_c, 8, 50, 95
6, 282240, Note_off_c, 8, 50, 95
6, 282240, Note_on_c, 8, 38, 95
6, 282720, Note_off_c, 8, 38, 95
6, 282720, Note_on_c, 8, 50, 95
6, 283200, Note_off_c, 8, 50, 95
6, 283200, Note_on_c, 8, 38, 95
6, 283680, Note_off_c, 8, 38, 95
6, 283680, Note_on_c, 8, 50, 95
6, 284160, Note_off_c, 8, 50, 95
6, 284160, Note_on_c, 8, 38, 95
6, 284640, Note_off_c, 8, 38, 95
6, 284640, Note_on_c, 8, 50, 95
6, 285120, Note_off_c, 8, 50, 95
6, 285120, Note_on_c, 8, 38, 95
6, 285600, Note_off_c, 8, 38, 95
6, 285600, Note_on_c, 8, 50, 95
6, 286080, Note_off_c, 8, 50, 95
6, 286080, Note_on_c, 8, 38, 95
6, 286560, Note_off_c, 8, 38, 95
6, 286560, Note_on_c, 8, 50, 95
6, 287040, Note_off_c, 8, 50, 95
6, 287040, Note_on_c, 8, 38, 95
6, 287520, Note_off_c, 8, 38, 95
6, 287520, Note_on_c, 8, 50, 95
6, 288000, Note_off_c, 8, 50, 95
6, 288000, Note_on_c, 8, 38, 95
6, 288480, Note_off_c, 8, 38, 95
6, 288480, Note_on_c, 8, 50, 95
6, 288960, Note_off_c, 8, 50, 95
6, 288960, Note_on_c, 8, 38, 95
6, 289440, Note_off_c, 8, 38, 95
6, 289440, Note_on_c, 8, 50, 95
6, 289920, Note_off_c, 8, 50, 95
6, 289920, Note_on_c, 8, 38, 95
6, 290400, Note_off_c, 8, 38, 95
6, 290400, Note_on_c, 8, 50, 95
6, 290880, Note_off_c, 8, 50, 95
6, 290880, Note_on_c, 8, 38, 95
6, 291360, Note_off_c, 8, 38, 95
6, 291360, Note_on_c, 8, 50, 95
6, 291840, Note_off_c, 8, 50, 95
6, 291840, Note_on_c, 8, 38, 95
6, 292320, Note_off_c, 8, 38, 95
6, 292320, Note_on_c, 8, 50, 95
6, 292800, Note_off_c, 8, 50, 95
6, 292800, Note_on_c, 8, 38, 95
6, 293280, Note_off_c, 8, 38, 95
6, 293280, Note_on_c, 8, 50, 95
6, 293760, Note_off_c, 8, 50, 95
6, 293760, Note_on_c, 8, 38, 95
6, 294240, Note_off_c, 8, 38, 95
6, 294240, Note_on_c, 8, 50, 95
6, 294720, Note_off_c, 8, 50, 95
6, 294720, Note_on_c, 8, 38, 95
6, 295200, Note_off_c, 8, 38, 95
6, 295200, Note_on_c, 8, 50, 95
6, 295680, Note_off_c, 8, 50, 95
6, 295680, Note_on_c, 8, 57, 95
6, 295680, Note_on_c, 8, 45, 95
6, 296640, Note_off_c, 8, 57, 95
6, 296640, Note_off_c, 8, 45, 95
6, 296640, Note_on_c, 8, 57, 95
6, 296640, Note_on_c, 8, 45, 95
6, 297600, Note_off_c, 8, 57, 95
6, 297600, Note_off_c, 8, 45, 95
6, 298080, Note_on_c, 8, 71, 95
6, 298080, Note_on_c, 8, 59, 95
6, 299520, Note_off_c, 8, 71, 95
6, 299520, Note_off_c, 8, 59, 95
6, 299520, Note_on_c, 8, 72, 95
6, 299520, Note_on_c, 8, 60, 95
6, 300000, Note_off_c, 8, 72, 95
6, 300000, Note_off_c, 8, 60, 95
6, 300000, Note_on_c, 8, 74, 95
6, 300000, Note_on_c, 8, 62, 95
6, 300960, Note_off_c, 8, 74, 95
6, 300960, Note_off_c, 8, 62, 95
6, 300960, Note_on_c, 8, 72, 95
6, 300960, Note_on_c, 8, 60, 95
6, 301920, Note_off_c, 8, 72, 95
6, 301920, Note_off_c, 8, 60, 95
6, 301920, Note_on_c, 8, 71, 95
6, 301920, Note_on_c, 8, 59, 95
6, 303360, Note_off_c, 8, 71, 95
6, 303360, Note_off_c, 8, 59, 95
6, 303360, Note_on_c, 8, 57, 95
6, 303360, Note_on_c, 8, 45, 95
6, 304320, Note_off_c, 8, 57, 95
6, 304320, Note_off_c, 8, 45, 95
6, 304320, Note_on_c, 8, 57, 95
6, 304320, Note_on_c, 8, 45, 95
6, 305280, Note_off_c, 8, 57, 95
6, 305280, Note_off_c, 8, 45, 95
6, 305760, Note_on_c, 8, 71, 95
6, 305760, Note_on_c, 8, 59, 95
6, 307200, Note_off_c, 8, 71, 95
6, 307200, Note_off_c, 8, 59, 95
6, 307200, Note_on_c, 8, 72, 95
6, 307200, Note_on_c, 8, 60, 95
6, 307680, Note_off_c, 8, 72, 95
6, 307680, Note_off_c, 8, 60, 95
6, 307680, Note_on_c, 8, 74, 95
6, 307680, Note_on_c, 8, 62, 95
6, 308640, Note_off_c, 8, 74, 95
6, 308640, Note_off_c, 8, 62, 95
6, 308640, Note_on_c, 8, 72, 95
6, 308640, Note_on_c, 8, 60, 95
6, 309600, Note_off_c, 8, 72, 95
6, 309600, Note_off_c, 8, 60, 95
6, 309600, Note_on_c, 8, 71, 95
6, 309600, Note_on_c, 8, 59, 95
6, 311040, Note_off_c, 8, 71, 95
6, 311040, Note_off_c, 8, 59, 95
6, 318720, Note_on_c, 8, 53, 95
6, 320160, Note_on_c, 8, 57, 95
6, 321600, Note_on_c, 8, 65, 95
6, 322560, Note_off_c, 8, 53, 95
6, 322560, Note_off_c, 8, 57, 95
6, 322560, Note_on_c, 8, 53, 95
6, 324000, Note_on_c, 8, 57, 95
6, 325440, Note_off_c, 8, 65, 95
6, 325440, Note_on_c, 8, 65, 95
6, 326400, Note_off_c, 8, 53, 95
6, 326400, Note_off_c, 8, 57, 95
6, 326400, Note_off_c, 8, 65, 95
6, 326400, Note_on_c, 8, 67, 95
6, 326880, Note_off_c, 8, 67, 95
6, 326880, Note_on_c, 8, 59, 95
6, 327120, Note_off_c, 8, 59, 95
6, 327120, Note_on_c, 8, 60, 95
6, 327360, Note_off_c, 8, 60, 95
6, 327360, Note_on_c, 8, 65, 95
6, 327840, Note_off_c, 8, 65, 95
6, 327840, Note_on_c, 8, 59, 95
6, 328080, Note_off_c, 8, 59, 95
6, 328080, Note_on_c, 8, 60, 95
6, 328320, Note_off_c, 8, 60, 95
6, 328320, Note_on_c, 8, 64, 95
6, 328800, Note_off_c, 8, 64, 95
6, 328800, Note_on_c, 8, 59, 95
6, 329040, Note_off_c, 8, 59, 95
6, 329040, Note_on_c, 8, 60, 95
6, 329280, Note_off_c, 8, 60, 95
6, 329280, Note_on_c, 8, 62, 95
6, 329760, Note_off_c, 8, 62, 95
6, 329760, Note_on_c, 8, 59, 95
6, 330000, Note_off_c, 8, 59, 95
6, 330000, Note_on_c, 8, 60, 95
6, 330240, Note_off_c, 8, 60, 95
6, 330240, Note_on_c, 8, 64, 95
6, 330720, Note_off_c, 8, 64, 95
6, 330720, Note_on_c, 8, 59, 95
6, 330960, Note_off_c, 8, 59, 95
6, 330960, Note_on_c, 8, 60, 95
6, 331200, Note_off_c, 8, 60, 95
6, 331200, Note_on_c, 8, 65, 95
6, 331680, Note_off_c, 8, 65, 95
6, 331680, Note_on_c, 8, 59, 95
6, 331920, Note_off_c, 8, 59, 95
6, 331920, Note_on_c, 8, 60, 95
6, 332160, Note_off_c, 8, 60, 95
6, 332160, Note_on_c, 8, 67, 95
6, 332640, Note_off_c, 8, 67, 95
6, 332640, Note_on_c, 8, 59, 95
6, 332880, Note_off_c, 8, 59, 95
6, 332880, Note_on_c, 8, 60, 95
6, 333120, Note_off_c, 8, 60, 95
6, 333120, Note_on_c, 8, 65, 95
6, 333600, Note_off_c, 8, 65, 95
6, 333600, Note_on_c, 8, 59, 95
6, 333840, Note_off_c, 8, 59, 95
6, 333840, Note_on_c, 8, 60, 95
6, 334080, Note_off_c, 8, 60, 95
6, 334080, Note_on_c, 8, 67, 95
6, 334560, Note_off_c, 8, 67, 95
6, 334560, Note_on_c, 8, 59, 95
6, 334800, Note_off_c, 8, 59, 95
6, 334800, Note_on_c, 8, 60, 95
6, 335040, Note_off_c, 8, 60, 95
6, 335040, Note_on_c, 8, 65, 95
6, 335520, Note_off_c, 8, 65, 95
6, 335520, Note_on_c, 8, 59, 95
6, 335760, Note_off_c, 8, 59, 95
6, 335760, Note_on_c, 8, 60, 95
6, 336000, Note_off_c, 8, 60, 95
6, 336000, Note_on_c, 8, 64, 95
6, 336480, Note_off_c, 8, 64, 95
6, 336480, Note_on_c, 8, 59, 95
6, 336720, Note_off_c, 8, 59, 95
6, 336720, Note_on_c, 8, 60, 95
6, 336960, Note_off_c, 8, 60, 95
6, 336960, Note_on_c, 8, 62, 95
6, 337440, Note_off_c, 8, 62, 95
6, 337440, Note_on_c, 8, 59, 95
6, 337680, Note_off_c, 8, 59, 95
6, 337680, Note_on_c, 8, 60, 95
6, 337920, Note_off_c, 8, 60, 95
6, 337920, Note_on_c, 8, 64, 95
6, 338400, Note_off_c, 8, 64, 95
6, 338400, Note_on_c, 8, 59, 95
6, 338640, Note_off_c, 8, 59, 95
6, 338640, Note_on_c, 8, 60, 95
6, 338880, Note_off_c, 8, 60, 95
6, 338880, Note_on_c, 8, 65, 95
6, 339360, Note_off_c, 8, 65, 95
6, 339360, Note_on_c, 8, 59, 95
6, 339600, Note_off_c, 8, 59, 95
6, 339600, Note_on_c, 8, 60, 95
6, 339840, Note_off_c, 8, 60, 95
6, 339840, Note_on_c, 8, 67, 95
6, 340320, Note_off_c, 8, 67, 95
6, 340320, Note_on_c, 8, 59, 95
6, 340560, Note_off_c, 8, 59, 95
6, 340560, Note_on_c, 8, 60, 95
6, 340800, Note_off_c, 8, 60, 95
6, 340800, Note_on_c, 8, 65, 95
6, 341280, Note_off_c, 8, 65, 95
6, 341280, Note_on_c, 8, 59, 95
6, 341520, Note_off_c, 8, 59, 95
6, 341520, Note_on_c, 8, 60, 95
6, 341760, Note_off_c, 8, 60, 95
6, 341760, Note_on_c, 8, 67, 95
6, 342240, Note_off_c, 8, 67, 95
6, 342240, Note_on_c, 8, 59, 95
6, 342480, Note_off_c, 8, 59, 95
6, 342480, Note_on_c, 8, 60, 95
6, 342720, Note_off_c, 8, 60, 95
6, 342720, Note_on_c, 8, 65, 95
6, 343200, Note_off_c, 8, 65, 95
6, 343200, Note_on_c, 8, 59, 95
6, 343440, Note_off_c, 8, 59, 95
6, 343440, Note_on_c, 8, 60, 95
6, 343680, Note_off_c, 8, 60, 95
6, 343680, Note_on_c, 8, 64, 95
6, 344160, Note_off_c, 8, 64, 95
6, 344160, Note_on_c, 8, 59, 95
6, 344400, Note_off_c, 8, 59, 95
6, 344400, Note_on_c, 8, 60, 95
6, 344640, Note_off_c, 8, 60, 95
6, 344640, Note_on_c, 8, 62, 95
6, 345120, Note_off_c, 8, 62, 95
6, 345120, Note_on_c, 8, 59, 95
6, 345360, Note_off_c, 8, 59, 95
6, 345360, Note_on_c, 8, 60, 95
6, 345600, Note_off_c, 8, 60, 95
6, 345600, Note_on_c, 8, 64, 95
6, 346080, Note_off_c, 8, 64, 95
6, 346080, Note_on_c, 8, 59, 95
6, 346320, Note_off_c, 8, 59, 95
6, 346320, Note_on_c, 8, 60, 95
6, 346560, Note_off_c, 8, 60, 95
6, 346560, Note_on_c, 8, 65, 95
6, 347040, Note_off_c, 8, 65, 95
6, 347040, Note_on_c, 8, 59, 95
6, 347280, Note_off_c, 8, 59, 95
6, 347280, Note_on_c, 8, 60, 95
6, 347520, Note_off_c, 8, 60, 95
6, 347520, Note_on_c, 8, 67, 95
6, 348000, Note_off_c, 8, 67, 95
6, 348000, Note_on_c, 8, 59, 95
6, 348240, Note_off_c, 8, 59, 95
6, 348240, Note_on_c, 8, 60, 95
6, 348480, Note_off_c, 8, 60, 95
6, 348480, Note_on_c, 8, 65, 95
6, 348960, Note_off_c, 8, 65, 95
6, 348960, Note_on_c, 8, 59, 95
6, 349200, Note_off_c, 8, 59, 95
6, 349200, Note_on_c, 8, 60, 95
6, 349440, Note_off_c, 8, 60, 95
6, 349440, Note_on_c, 8, 67, 95
6, 349920, Note_off_c, 8, 67, 95
6, 349920, Note_on_c, 8, 59, 95
6, 350160, Note_off_c, 8, 59, 95
6, 350160, Note_on_c, 8, 60, 95
6, 350400, Note_off_c, 8, 60, 95
6, 350400, Note_on_c, 8, 65, 95
6, 350880, Note_off_c, 8, 65, 95
6, 350880, Note_on_c, 8, 59, 95
6, 351120, Note_off_c, 8, 59, 95
6, 351120, Note_on_c, 8, 60, 95
6, 351360, Note_off_c, 8, 60, 95
6, 351360, Note_on_c, 8, 64, 95
6, 351840, Note_off_c, 8, 64, 95
6, 351840, Note_on_c, 8, 59, 95
6, 352080, Note_off_c, 8, 59, 95
6, 352080, Note_on_c, 8, 60, 95
6, 352320, Note_off_c, 8, 60, 95
6, 352320, Note_on_c, 8, 62, 95
6, 352800, Note_off_c, 8, 62, 95
6, 352800, Note_on_c, 8, 59, 95
6, 353040, Note_off_c, 8, 59, 95
6, 353040, Note_on_c, 8, 60, 95
6, 353280, Note_off_c, 8, 60, 95
6, 353280, Note_on_c, 8, 64, 95
6, 353760, Note_off_c, 8, 64, 95
6, 353760, Note_on_c, 8, 59, 95
6, 354000, Note_off_c, 8, 59, 95
6, 354000, Note_on_c, 8, 60, 95
6, 354240, Note_off_c, 8, 60, 95
6, 354240, Note_on_c, 8, 65, 95
6, 354720, Note_off_c, 8, 65, 95
6, 354720, Note_on_c, 8, 59, 95
6, 354960, Note_off_c, 8, 59, 95
6, 354960, Note_on_c, 8, 60, 95
6, 355200, Note_off_c, 8, 60, 95
6, 355200, Note_on_c, 8, 67, 95
6, 355680, Note_off_c, 8, 67, 95
6, 355680, Note_on_c, 8, 59, 95
6, 355920, Note_off_c, 8, 59, 95
6, 355920, Note_on_c, 8, 60, 95
6, 356160, Note_off_c, 8, 60, 95
6, 356160, Note_on_c, 8, 65, 95
6, 356640, Note_off_c, 8, 65, 95
6, 356640, Note_on_c, 8, 59, 95
6, 356880, Note_off_c, 8, 59, 95
6, 356880, Note_on_c, 8, 60, 95
6, 357120, Note_off_c, 8, 60, 95
6, 357120, Note_on_c, 8, 67, 95
6, 357600, Note_off_c, 8, 67, 95
6, 357600, Note_on_c, 8, 59, 95
6, 357840, Note_off_c, 8, 59, 95
6, 357840, Note_on_c, 8, 60, 95
6, 358080, Note_off_c, 8, 60, 95
6, 358080, Note_on_c, 8, 65, 95
6, 358560, Note_off_c, 8, 65, 95
6, 358560, Note_on_c, 8, 59, 95
6, 358800, Note_off_c, 8, 59, 95
6, 358800, Note_on_c, 8, 60, 95
6, 359040, Note_off_c, 8, 60, 95
6, 359040, Note_on_c, 8, 64, 95
6, 359520, Note_off_c, 8, 64, 95
6, 359520, Note_on_c, 8, 59, 95
6, 359760, Note_off_c, 8, 59, 95
6, 359760, Note_on_c, 8, 60, 95
6, 360000, Note_off_c, 8, 60, 95
6, 360000, Note_on_c, 8, 62, 95
6, 360480, Note_off_c, 8, 62, 95
6, 360480, Note_on_c, 8, 59, 95
6, 360720, Note_off_c, 8, 59, 95
6, 360720, Note_on_c, 8, 60, 95
6, 360960, Note_off_c, 8, 60, 95
6, 360960, Note_on_c, 8, 64, 95
6, 361440, Note_off_c, 8, 64, 95
6, 361440, Note_on_c, 8, 59, 95
6, 361680, Note_off_c, 8, 59, 95
6, 361680, Note_on_c, 8, 60, 95
6, 361920, Note_off_c, 8, 60, 95
6, 361920, Note_on_c, 8, 65, 95
6, 362400, Note_off_c, 8, 65, 95
6, 362400, Note_on_c, 8, 59, 95
6, 362640, Note_off_c, 8, 59, 95
6, 362640, Note_on_c, 8, 60, 95
6, 362880, Note_off_c, 8, 60, 95
6, 362880, Note_on_c, 8, 67, 95
6, 363360, Note_off_c, 8, 67, 95
6, 363360, Note_on_c, 8, 59, 95
6, 363600, Note_off_c, 8, 59, 95
6, 363600, Note_on_c, 8, 60, 95
6, 363840, Note_off_c, 8, 60, 95
6, 363840, Note_on_c, 8, 65, 95
6, 364320, Note_off_c, 8, 65, 95
6, 364320, Note_on_c, 8, 59, 95
6, 364560, Note_off_c, 8, 59, 95
6, 364560, Note_on_c, 8, 60, 95
6, 364800, Note_off_c, 8, 60, 95
6, 364800, End_track
7, 0, Start_track
7, 0, Pitch_bend_c, 9, 8192
7, 0, Control_c, 9, 7, 127
7, 0, Control_c, 9, 10, 63
7, 0, Control_c, 9, 93, 47
7, 0, Control_c, 9, 91, 31
7, 0, Control_c, 9, 95, 0
7, 0, Control_c, 9, 92, 0
7, 0, Control_c, 9, 11, 127
7, 0, Program_c, 9, 0
7, 12480, Note_on_c, 9, 45, 95
7, 13440, Note_off_c, 9, 45, 95
7, 14400, Note_on_c, 9, 45, 95
7, 15360, Note_off_c, 9, 45, 95
7, 16320, Note_on_c, 9, 45, 95
7, 17280, Note_off_c, 9, 45, 95
7, 17760, Note_on_c, 9, 47, 95
7, 18240, Note_off_c, 9, 47, 95
7, 18240, Note_on_c, 9, 47, 95
7, 18720, Note_off_c, 9, 47, 95
7, 18720, Note_on_c, 9, 47, 95
7, 19200, Note_off_c, 9, 47, 95
7, 19200, Note_on_c, 9, 42, 95
7, 19680, Note_off_c, 9, 42, 95
7, 19680, Note_on_c, 9, 42, 95
7, 20160, Note_off_c, 9, 42, 95
7, 20160, Note_on_c, 9, 42, 95
7, 20160, Note_on_c, 9, 38, 95
7, 20640, Note_off_c, 9, 42, 95
7, 20640, Note_off_c, 9, 38, 95
7, 20640, Note_on_c, 9, 42, 95
7, 21120, Note_off_c, 9, 42, 95
7, 21120, Note_on_c, 9, 42, 95
7, 21600, Note_off_c, 9, 42, 95
7, 21600, Note_on_c, 9, 42, 95
7, 22080, Note_off_c, 9, 42, 95
7, 22080, Note_on_c, 9, 42, 95
7, 22080, Note_on_c, 9, 38, 95
7, 22560, Note_off_c, 9, 42, 95
7, 22560, Note_off_c, 9, 38, 95
7, 22560, Note_on_c, 9, 42, 95
7, 23040, Note_off_c, 9, 42, 95
7, 23040, Note_on_c, 9, 42, 95
7, 23520, Note_off_c, 9, 42, 95
7, 23520, Note_on_c, 9, 42, 95
7, 24000, Note_off_c, 9, 42, 95
7, 24000, Note_on_c, 9, 42, 95
7, 24000, Note_on_c, 9, 38, 95
7, 24480, Note_off_c, 9, 42, 95
7, 24480, Note_off_c, 9, 38, 95
7, 24480, Note_on_c, 9, 42, 95
7, 24960, Note_off_c, 9, 42, 95
7, 24960, Note_on_c, 9, 42, 95
7, 25440, Note_off_c, 9, 42, 95
7, 25440, Note_on_c, 9, 42, 95
7, 25440, Note_on_c, 9, 36, 95
7, 25920, Note_off_c, 9, 42, 95
7, 25920, Note_off_c, 9, 36, 95
7, 25920, Note_on_c, 9, 42, 95
7, 25920, Note_on_c, 9, 38, 95
7, 26400, Note_off_c, 9, 42, 95
7, 26400, Note_off_c, 9, 38, 95
7, 26400, Note_on_c, 9, 42, 95
7, 26400, Note_on_c, 9, 36, 95
7, 26880, Note_off_c, 9, 42, 95
7, 26880, Note_off_c, 9, 36, 95
7, 26880, Note_on_c, 9, 42, 95
7, 27360, Note_off_c, 9, 42, 95
7, 27360, Note_on_c, 9, 42, 95
7, 27840, Note_off_c, 9, 42, 95
7, 27840, Note_on_c, 9, 42, 95
7, 27840, Note_on_c, 9, 38, 95
7, 27840, Note_on_c, 9, 36, 95
7, 28320, Note_off_c, 9, 42, 95
7, 28320, Note_off_c, 9, 38, 95
7, 28320, Note_on_c, 9, 42, 95
7, 28800, Note_off_c, 9, 36, 95
7, 28800, Note_off_c, 9, 42, 95
7, 28800, Note_on_c, 9, 42, 95
7, 29280, Note_off_c, 9, 42, 95
7, 29280, Note_on_c, 9, 42, 95
7, 29760, Note_off_c, 9, 42, 95
7, 29760, Note_on_c, 9, 42, 95
7, 29760, Note_on_c, 9, 38, 95
7, 29760, Note_on_c, 9, 36, 95
7, 30240, Note_off_c, 9, 42, 95
7, 30240, Note_off_c, 9, 38, 95
7, 30240, Note_on_c, 9, 42, 95
7, 30720, Note_off_c, 9, 36, 95
7, 30720, Note_off_c, 9, 42, 95
7, 30720, Note_on_c, 9, 42, 95
7, 31200, Note_off_c, 9, 42, 95
7, 31200, Note_on_c, 9, 42, 95
7, 31680, Note_off_c, 9, 42, 95
7, 31680, Note_on_c, 9, 42, 95
7, 31680, Note_on_c, 9, 38, 95
7, 31680, Note_on_c, 9, 36, 95
7, 32160, Note_off_c, 9, 42, 95
7, 32160, Note_on_c, 9, 42, 95
7, 32640, Note_off_c, 9, 38, 95
7, 32640, Note_off_c, 9, 36, 95
7, 32640, Note_off_c, 9, 42, 95
7, 32640, Note_on_c, 9, 42, 95
7, 33120, Note_off_c, 9, 42, 95
7, 33120, Note_on_c, 9, 42, 95
7, 33120, Note_on_c, 9, 36, 95
7, 33600, Note_off_c, 9, 42, 95
7, 33600, Note_off_c, 9, 36, 95
7, 33600, Note_on_c, 9, 42, 95
7, 33600, Note_on_c, 9, 38, 95
7, 34080, Note_off_c, 9, 42, 95
7, 34080, Note_off_c, 9, 38, 95
7, 34080, Note_on_c, 9, 42, 95
7, 34080, Note_on_c, 9, 36, 95
7, 34560, Note_off_c, 9, 42, 95
7, 34560, Note_off_c, 9, 36, 95
7, 34560, Note_on_c, 9, 42, 95
7, 35040, Note_off_c, 9, 42, 95
7, 35040, Note_on_c, 9, 42, 95
7, 35520, Note_off_c, 9, 42, 95
7, 35520, Note_on_c, 9, 42, 95
7, 35520, Note_on_c, 9, 38, 95
7, 35520, Note_on_c, 9, 36, 95
7, 36000, Note_off_c, 9, 42, 95
7, 36000, Note_off_c, 9, 38, 95
7, 36000, Note_on_c, 9, 42, 95
7, 36480, Note_off_c, 9, 36, 95
7, 36480, Note_off_c, 9, 42, 95
7, 36480, Note_on_c, 9, 42, 95
7, 36960, Note_off_c, 9, 42, 95
7, 36960, Note_on_c, 9, 42, 95
7, 37440, Note_off_c, 9, 42, 95
7, 37440, Note_on_c, 9, 42, 95
7, 37440, Note_on_c, 9, 38, 95
7, 37440, Note_on_c, 9, 36, 95
7, 37920, Note_off_c, 9, 42, 95
7, 37920, Note_off_c, 9, 38, 95
7, 37920, Note_on_c, 9, 42, 95
7, 38400, Note_off_c, 9, 36, 95
7, 38400, Note_off_c, 9, 42, 95
7, 38400, Note_on_c, 9, 42, 95
7, 38880, Note_off_c, 9, 42, 95
7, 38880, Note_on_c, 9, 42, 95
7, 38880, Note_on_c, 9, 36, 95
7, 39360, Note_off_c, 9, 42, 95
7, 39360, Note_on_c, 9, 42, 95
7, 39360, Note_on_c, 9, 38, 95
7, 39840, Note_off_c, 9, 36, 95
7, 39840, Note_off_c, 9, 42, 95
7, 39840, Note_off_c, 9, 38, 95
7, 39840, Note_on_c, 9, 42, 95
7, 40320, Note_off_c, 9, 42, 95
7, 40320, Note_on_c, 9, 42, 95
7, 40800, Note_off_c, 9, 42, 95
7, 40800, Note_on_c, 9, 42, 95
7, 40800, Note_on_c, 9, 36, 95
7, 41280, Note_off_c, 9, 42, 95
7, 41280, Note_off_c, 9, 36, 95
7, 41280, Note_on_c, 9, 42, 95
7, 41280, Note_on_c, 9, 38, 95
7, 41760, Note_off_c, 9, 42, 95
7, 41760, Note_off_c, 9, 38, 95
7, 41760, Note_on_c, 9, 42, 95
7, 41760, Note_on_c, 9, 36, 95
7, 42240, Note_off_c, 9, 42, 95
7, 42240, Note_off_c, 9, 36, 95
7, 42240, Note_on_c, 9, 42, 95
7, 42720, Note_off_c, 9, 42, 95
7, 42720, Note_on_c, 9, 42, 95
7, 42720, Note_on_c, 9, 36, 95
7, 43200, Note_off_c, 9, 42, 95
7, 43200, Note_on_c, 9, 42, 95
7, 43200, Note_on_c, 9, 38, 95
7, 43680, Note_off_c, 9, 36, 95
7, 43680, Note_off_c, 9, 42, 95
7, 43680, Note_off_c, 9, 38, 95
7, 43680, Note_on_c, 9, 42, 95
7, 44160, Note_off_c, 9, 42, 95
7, 44160, Note_on_c, 9, 42, 95
7, 44640, Note_off_c, 9, 42, 95
7, 44640, Note_on_c, 9, 42, 95
7, 44640, Note_on_c, 9, 36, 95
7, 45120, Note_off_c, 9, 42, 95
7, 45120, Note_off_c, 9, 36, 95
7, 45120, Note_on_c, 9, 42, 95
7, 45120, Note_on_c, 9, 38, 95
7, 45600, Note_off_c, 9, 42, 95
7, 45600, Note_off_c, 9, 38, 95
7, 45600, Note_on_c, 9, 42, 95
7, 45600, Note_on_c, 9, 36, 95
7, 46080, Note_off_c, 9, 42, 95
7, 46080, Note_off_c, 9, 36, 95
7, 46080, Note_on_c, 9, 42, 95
7, 46560, Note_off_c, 9, 42, 95
7, 46560, Note_on_c, 9, 42, 95
7, 46560, Note_on_c, 9, 36, 95
7, 47040, Note_off_c, 9, 42, 95
7, 47040, Note_on_c, 9, 42, 95
7, 47040, Note_on_c, 9, 38, 95
7, 47520, Note_off_c, 9, 36, 95
7, 47520, Note_off_c, 9, 42, 95
7, 47520, Note_off_c, 9, 38, 95
7, 47520, Note_on_c, 9, 42, 95
7, 48000, Note_off_c, 9, 42, 95
7, 48000, Note_on_c, 9, 42, 95
7, 48480, Note_off_c, 9, 42, 95
7, 48480, Note_on_c, 9, 42, 95
7, 48480, Note_on_c, 9, 36, 95
7, 48960, Note_off_c, 9, 42, 95
7, 48960, Note_off_c, 9, 36, 95
7, 48960, Note_on_c, 9, 42, 95
7, 48960, Note_on_c, 9, 38, 95
7, 49440, Note_off_c, 9, 42, 95
7, 49440, Note_off_c, 9, 38, 95
7, 49440, Note_on_c, 9, 42, 95
7, 49440, Note_on_c, 9, 36, 95
7, 49920, Note_off_c, 9, 42, 95
7, 49920, Note_off_c, 9, 36, 95
7, 49920, Note_on_c, 9, 42, 95
7, 50400, Note_off_c, 9, 42, 95
7, 50400, Note_on_c, 9, 42, 95
7, 50400, Note_on_c, 9, 36, 95
7, 50880, Note_off_c, 9, 42, 95
7, 50880, Note_on_c, 9, 42, 95
7, 50880, Note_on_c, 9, 38, 95
7, 51360, Note_off_c, 9, 36, 95
7, 51360, Note_off_c, 9, 42, 95
7, 51360, Note_off_c, 9, 38, 95
7, 51360, Note_on_c, 9, 42, 95
7, 51840, Note_off_c, 9, 42, 95
7, 51840, Note_on_c, 9, 42, 95
7, 52320, Note_off_c, 9, 42, 95
7, 52320, Note_on_c, 9, 42, 95
7, 52320, Note_on_c, 9, 36, 95
7, 52800, Note_off_c, 9, 42, 95
7, 52800, Note_off_c, 9, 36, 95
7, 52800, Note_on_c, 9, 42, 95
7, 52800, Note_on_c, 9, 38, 95
7, 53280, Note_off_c, 9, 42, 95
7, 53280, Note_off_c, 9, 38, 95
7, 53280, Note_on_c, 9, 42, 95
7, 53280, Note_on_c, 9, 36, 95
7, 53760, Note_off_c, 9, 42, 95
7, 53760, Note_off_c, 9, 36, 95
7, 53760, Note_on_c, 9, 42, 95
7, 54240, Note_off_c, 9, 42, 95
7, 54240, Note_on_c, 9, 42, 95
7, 54240, Note_on_c, 9, 36, 95
7, 54720, Note_off_c, 9, 42, 95
7, 54720, Note_on_c, 9, 42, 95
7, 54720, Note_on_c, 9, 38, 95
7, 55200, Note_off_c, 9, 36, 95
7, 55200, Note_off_c, 9, 42, 95
7, 55200, Note_off_c, 9, 38, 95
7, 55200, Note_on_c, 9, 42, 95
7, 55680, Note_off_c, 9, 42, 95
7, 55680, Note_on_c, 9, 42, 95
7, 56160, Note_off_c, 9, 42, 95
7, 56160, Note_on_c, 9, 42, 95
7, 56160, Note_on_c, 9, 36, 95
7, 56640, Note_off_c, 9, 42, 95
7, 56640, Note_off_c, 9, 36, 95
7, 56640, Note_on_c, 9, 42, 95
7, 56640, Note_on_c, 9, 38, 95
7, 57120, Note_off_c, 9, 42, 95
7, 57120, Note_off_c, 9, 38, 95
7, 57120, Note_on_c, 9, 42, 95
7, 57120, Note_on_c, 9, 36, 95
7, 57600, Note_off_c, 9, 42, 95
7, 57600, Note_off_c, 9, 36, 95
7, 57600, Note_on_c, 9, 42, 95
7, 58080, Note_off_c, 9, 42, 95
7, 58080, Note_on_c, 9, 42, 95
7, 58080, Note_on_c, 9, 36, 95
7, 58560, Note_off_c, 9, 42, 95
7, 58560, Note_on_c, 9, 42, 95
7, 58560, Note_on_c, 9, 38, 95
7, 59040, Note_off_c, 9, 36, 95
7, 59040, Note_off_c, 9, 42, 95
7, 59040, Note_off_c, 9, 38, 95
7, 59040, Note_on_c, 9, 42, 95
7, 59520, Note_off_c, 9, 42, 95
7, 59520, Note_on_c, 9, 42, 95
7, 60000, Note_off_c, 9, 42, 95
7, 60000, Note_on_c, 9, 42, 95
7, 60000, Note_on_c, 9, 36, 95
7, 60480, Note_off_c, 9, 42, 95
7, 60480, Note_off_c, 9, 36, 95
7, 60480, Note_on_c, 9, 42, 95
7, 60480, Note_on_c, 9, 38, 95
7, 60960, Note_off_c, 9, 42, 95
7, 60960, Note_off_c, 9, 38, 95
7, 60960, Note_on_c, 9, 42, 95
7, 60960, Note_on_c, 9, 36, 95
7, 61440, Note_off_c, 9, 42, 95
7, 61440, Note_off_c, 9, 36, 95
7, 61440, Note_on_c, 9, 42, 95
7, 61920, Note_off_c, 9, 42, 95
7, 61920, Note_on_c, 9, 42, 95
7, 61920, Note_on_c, 9, 36, 95
7, 62400, Note_off_c, 9, 42, 95
7, 62400, Note_on_c, 9, 42, 95
7, 62400, Note_on_c, 9, 38, 95
7, 62880, Note_off_c, 9, 36, 95
7, 62880, Note_off_c, 9, 42, 95
7, 62880, Note_off_c, 9, 38, 95
7, 62880, Note_on_c, 9, 42, 95
7, 63360, Note_off_c, 9, 42, 95
7, 63360, Note_on_c, 9, 42, 95
7, 63840, Note_off_c, 9, 42, 95
7, 63840, Note_on_c, 9, 42, 95
7, 63840, Note_on_c, 9, 36, 95
7, 64320, Note_off_c, 9, 42, 95
7, 64320, Note_off_c, 9, 36, 95
7, 64320, Note_on_c, 9, 42, 95
7, 64320, Note_on_c, 9, 38, 95
7, 64800, Note_off_c, 9, 42, 95
7, 64800, Note_off_c, 9, 38, 95
7, 64800, Note_on_c, 9, 42, 95
7, 64800, Note_on_c, 9, 36, 95
7, 65280, Note_off_c, 9, 42, 95
7, 65280, Note_off_c, 9, 36, 95
7, 65280, Note_on_c, 9, 42, 95
7, 65760, Note_off_c, 9, 42, 95
7, 65760, Note_on_c, 9, 42, 95
7, 66240, Note_off_c, 9, 42, 95
7, 66240, Note_on_c, 9, 42, 95
7, 66240, Note_on_c, 9, 38, 95
7, 66240, Note_on_c, 9, 36, 95
7, 66720, Note_off_c, 9, 42, 95
7, 66720, Note_off_c, 9, 38, 95
7, 66720, Note_on_c, 9, 42, 95
7, 67200, Note_off_c, 9, 36, 95
7, 67200, Note_off_c, 9, 42, 95
7, 67200, Note_on_c, 9, 42, 95
7, 67680, Note_off_c, 9, 42, 95
7, 67680, Note_on_c, 9, 42, 95
7, 67680, Note_on_c, 9, 36, 95
7, 68160, Note_off_c, 9, 42, 95
7, 68160, Note_off_c, 9, 36, 95
7, 68160, Note_on_c, 9, 42, 95
7, 68160, Note_on_c, 9, 38, 95
7, 68160, Note_on_c, 9, 36, 95
7, 68640, Note_off_c, 9, 42, 95
7, 68640, Note_off_c, 9, 38, 95
7, 68640, Note_off_c, 9, 36, 95
7, 68640, Note_on_c, 9, 42, 95
7, 68640, Note_on_c, 9, 36, 95
7, 69120, Note_off_c, 9, 42, 95
7, 69120, Note_off_c, 9, 36, 95
7, 69120, Note_on_c, 9, 42, 95
7, 69600, Note_off_c, 9, 42, 95
7, 69600, Note_on_c, 9, 42, 95
7, 70080, Note_off_c, 9, 42, 95
7, 70080, Note_on_c, 9, 42, 95
7, 70080, Note_on_c, 9, 38, 95
7, 70080, Note_on_c, 9, 36, 95
7, 70560, Note_off_c, 9, 42, 95
7, 70560, Note_off_c, 9, 38, 95
7, 70560, Note_on_c, 9, 42, 95
7, 71040, Note_off_c, 9, 36, 95
7, 71040, Note_off_c, 9, 42, 95
7, 71040, Note_on_c, 9, 42, 95
7, 71520, Note_off_c, 9, 42, 95
7, 71520, Note_on_c, 9, 42, 95
7, 72000, Note_off_c, 9, 42, 95
7, 72000, Note_on_c, 9, 42, 95
7, 72000, Note_on_c, 9, 38, 95
7, 72000, Note_on_c, 9, 36, 95
7, 72480, Note_off_c, 9, 42, 95
7, 72480, Note_off_c, 9, 38, 95
7, 72480, Note_on_c, 9, 42, 95
7, 72960, Note_off_c, 9, 36, 95
7, 72960, Note_off_c, 9, 42, 95
7, 72960, Note_on_c, 9, 42, 95
7, 73440, Note_off_c, 9, 42, 95
7, 73440, Note_on_c, 9, 42, 95
7, 73920, Note_off_c, 9, 42, 95
7, 73920, Note_on_c, 9, 42, 95
7, 73920, Note_on_c, 9, 36, 95
7, 74400, Note_off_c, 9, 42, 95
7, 74400, Note_on_c, 9, 42, 95
7, 74880, Note_off_c, 9, 36, 95
7, 74880, Note_off_c, 9, 42, 95
7, 74880, Note_on_c, 9, 42, 95
7, 74880, Note_on_c, 9, 36, 95
7, 75360, Note_off_c, 9, 42, 95
7, 75360, Note_off_c, 9, 36, 95
7, 75360, Note_on_c, 9, 42, 95
7, 75360, Note_on_c, 9, 36, 95
7, 75840, Note_off_c, 9, 42, 95
7, 75840, Note_off_c, 9, 36, 95
7, 75840, Note_on_c, 9, 42, 95
7, 76320, Note_off_c, 9, 42, 95
7, 76320, Note_on_c, 9, 42, 95
7, 76320, Note_on_c, 9, 36, 95
7, 76800, Note_off_c, 9, 42, 95
7, 76800, Note_off_c, 9, 36, 95
7, 76800, Note_on_c, 9, 42, 95
7, 77280, Note_off_c, 9, 42, 95
7, 77280, Note_on_c, 9, 42, 95
7, 77280, Note_on_c, 9, 36, 95
7, 77760, Note_off_c, 9, 42, 95
7, 77760, Note_on_c, 9, 42, 95
7, 78240, Note_off_c, 9, 36, 95
7, 78240, Note_off_c, 9, 42, 95
7, 78240, Note_on_c, 9, 42, 95
7, 78240, Note_on_c, 9, 36, 95
7, 78720, Note_off_c, 9, 42, 95
7, 78720, Note_off_c, 9, 36, 95
7, 78720, Note_on_c, 9, 42, 95
7, 78720, Note_on_c, 9, 36, 95
7, 79200, Note_off_c, 9, 42, 95
7, 79200, Note_off_c, 9, 36, 95
7, 79200, Note_on_c, 9, 42, 95
7, 79680, Note_off_c, 9, 42, 95
7, 79680, Note_on_c, 9, 42, 95
7, 79680, Note_on_c, 9, 36, 95
7, 80160, Note_off_c, 9, 42, 95
7, 80160, Note_on_c, 9, 42, 95
7, 80640, Note_off_c, 9, 36, 95
7, 80640, Note_off_c, 9, 42, 95
7, 80640, Note_on_c, 9, 42, 95
7, 81120, Note_off_c, 9, 42, 95
7, 81120, Note_on_c, 9, 42, 95
7, 81600, Note_off_c, 9, 42, 95
7, 81600, Note_on_c, 9, 42, 95
7, 81600, Note_on_c, 9, 36, 95
7, 82080, Note_off_c, 9, 42, 95
7, 82080, Note_on_c, 9, 42, 95
7, 82560, Note_off_c, 9, 36, 95
7, 82560, Note_off_c, 9, 42, 95
7, 82560, Note_on_c, 9, 42, 95
7, 82560, Note_on_c, 9, 36, 95
7, 83040, Note_off_c, 9, 42, 95
7, 83040, Note_off_c, 9, 36, 95
7, 83040, Note_on_c, 9, 42, 95
7, 83040, Note_on_c, 9, 36, 95
7, 83520, Note_off_c, 9, 42, 95
7, 83520, Note_off_c, 9, 36, 95
7, 83520, Note_on_c, 9, 42, 95
7, 84000, Note_off_c, 9, 42, 95
7, 84000, Note_on_c, 9, 42, 95
7, 84000, Note_on_c, 9, 36, 95
7, 84480, Note_off_c, 9, 42, 95
7, 84480, Note_off_c, 9, 36, 95
7, 84480, Note_on_c, 9, 42, 95
7, 84960, Note_off_c, 9, 42, 95
7, 84960, Note_on_c, 9, 42, 95
7, 85440, Note_off_c, 9, 42, 95
7, 85440, Note_on_c, 9, 42, 95
7, 85440, Note_on_c, 9, 36, 95
7, 85920, Note_off_c, 9, 42, 95
7, 85920, Note_on_c, 9, 42, 95
7, 86400, Note_off_c, 9, 36, 95
7, 86400, Note_off_c, 9, 42, 95
7, 86400, Note_on_c, 9, 42, 95
7, 86880, Note_off_c, 9, 42, 95
7, 86880, Note_on_c, 9, 42, 95
7, 87360, Note_off_c, 9, 42, 95
7, 87360, Note_on_c, 9, 42, 95
7, 87360, Note_on_c, 9, 36, 95
7, 87840, Note_off_c, 9, 42, 95
7, 87840, Note_on_c, 9, 42, 95
7, 88320, Note_off_c, 9, 36, 95
7, 88320, Note_off_c, 9, 42, 95
7, 88320, Note_on_c, 9, 42, 95
7, 88800, Note_off_c, 9, 42, 95
7, 88800, Note_on_c, 9, 42, 95
7, 89280, Note_off_c, 9, 42, 95
7, 89280, Note_on_c, 9, 42, 95
7, 89280, Note_on_c, 9, 36, 95
7, 89760, Note_off_c, 9, 42, 95
7, 89760, Note_on_c, 9, 42, 95
7, 90240, Note_off_c, 9, 36, 95
7, 90240, Note_off_c, 9, 42, 95
7, 90240, Note_on_c, 9, 42, 95
7, 90720, Note_off_c, 9, 42, 95
7, 90720, Note_on_c, 9, 42, 95
7, 90720, Note_on_c, 9, 36, 95
7, 91200, Note_off_c, 9, 42, 95
7, 91200, Note_off_c, 9, 36, 95
7, 91200, Note_on_c, 9, 42, 95
7, 91680, Note_off_c, 9, 42, 95
7, 91680, Note_on_c, 9, 42, 95
7, 91680, Note_on_c, 9, 36, 95
7, 92160, Note_off_c, 9, 42, 95
7, 92160, Note_off_c, 9, 36, 95
7, 92160, Note_on_c, 9, 42, 95
7, 92640, Note_off_c, 9, 42, 95
7, 92640, Note_on_c, 9, 42, 95
7, 93120, Note_off_c, 9, 42, 95
7, 93120, Note_on_c, 9, 42, 95
7, 93120, Note_on_c, 9, 36, 95
7, 93600, Note_off_c, 9, 42, 95
7, 93600, Note_on_c, 9, 42, 95
7, 94080, Note_off_c, 9, 36, 95
7, 94080, Note_off_c, 9, 42, 95
7, 94080, Note_on_c, 9, 42, 95
7, 94560, Note_off_c, 9, 42, 95
7, 94560, Note_on_c, 9, 42, 95
7, 95040, Note_off_c, 9, 42, 95
7, 95040, Note_on_c, 9, 42, 95
7, 95040, Note_on_c, 9, 36, 95
7, 95520, Note_off_c, 9, 42, 95
7, 95520, Note_on_c, 9, 42, 95
7, 96000, Note_off_c, 9, 36, 95
7, 96000, Note_off_c, 9, 42, 95
7, 96000, Note_on_c, 9, 42, 95
7, 96480, Note_off_c, 9, 42, 95
7, 96480, Note_on_c, 9, 42, 95
7, 96960, Note_off_c, 9, 42, 95
7, 96960, Note_on_c, 9, 42, 95
7, 96960, Note_on_c, 9, 36, 95
7, 97440, Note_off_c, 9, 42, 95
7, 97440, Note_on_c, 9, 42, 95
7, 97920, Note_off_c, 9, 36, 95
7, 97920, Note_off_c, 9, 42, 95
7, 97920, Note_on_c, 9, 42, 95
7, 98400, Note_off_c, 9, 42, 95
7, 98400, Note_on_c, 9, 42, 95
7, 98400, Note_on_c, 9, 36, 95
7, 98880, Note_off_c, 9, 42, 95
7, 98880, Note_off_c, 9, 36, 95
7, 98880, Note_on_c, 9, 42, 95
7, 99360, Note_off_c, 9, 42, 95
7, 99360, Note_on_c, 9, 42, 95
7, 99360, Note_on_c, 9, 36, 95
7, 99840, Note_off_c, 9, 42, 95
7, 99840, Note_off_c, 9, 36, 95
7, 99840, Note_on_c, 9, 42, 95
7, 100320, Note_off_c, 9, 42, 95
7, 100320, Note_on_c, 9, 42, 95
7, 100800, Note_off_c, 9, 42, 95
7, 100800, Note_on_c, 9, 42, 95
7, 100800, Note_on_c, 9, 36, 95
7, 101280, Note_off_c, 9, 42, 95
7, 101280, Note_on_c, 9, 42, 95
7, 101760, Note_off_c, 9, 36, 95
7, 101760, Note_off_c, 9, 42, 95
7, 101760, Note_on_c, 9, 42, 95
7, 102240, Note_off_c, 9, 42, 95
7, 102240, Note_on_c, 9, 42, 95
7, 102720, Note_off_c, 9, 42, 95
7, 102720, Note_on_c, 9, 42, 95
7, 102720, Note_on_c, 9, 36, 95
7, 103200, Note_off_c, 9, 42, 95
7, 103200, Note_on_c, 9, 42, 95
7, 103680, Note_off_c, 9, 36, 95
7, 103680, Note_off_c, 9, 42, 95
7, 103680, Note_on_c, 9, 42, 95
7, 104160, Note_off_c, 9, 42, 95
7, 104160, Note_on_c, 9, 42, 95
7, 104640, Note_off_c, 9, 42, 95
7, 104640, Note_on_c, 9, 42, 95
7, 104640, Note_on_c, 9, 36, 95
7, 105120, Note_off_c, 9, 42, 95
7, 105120, Note_on_c, 9, 42, 95
7, 105600, Note_off_c, 9, 36, 95
7, 105600, Note_off_c, 9, 42, 95
7, 105600, Note_on_c, 9, 42, 95
7, 106080, Note_off_c, 9, 42, 95
7, 106080, Note_on_c, 9, 42, 95
7, 106080, Note_on_c, 9, 36, 95
7, 106560, Note_off_c, 9, 42, 95
7, 106560, Note_off_c, 9, 36, 95
7, 106560, Note_on_c, 9, 42, 95
7, 107040, Note_off_c, 9, 42, 95
7, 107040, Note_on_c, 9, 42, 95
7, 107040, Note_on_c, 9, 36, 95
7, 107520, Note_off_c, 9, 42, 95
7, 107520, Note_off_c, 9, 36, 95
7, 107520, Note_on_c, 9, 42, 95
7, 108000, Note_off_c, 9, 42, 95
7, 108000, Note_on_c, 9, 42, 95
7, 108480, Note_off_c, 9, 42, 95
7, 108480, Note_on_c, 9, 42, 95
7, 108480, Note_on_c, 9, 36, 95
7, 108960, Note_off_c, 9, 42, 95
7, 108960, Note_on_c, 9, 42, 95
7, 109440, Note_off_c, 9, 36, 95
7, 109440, Note_off_c, 9, 42, 95
7, 109440, Note_on_c, 9, 42, 95
7, 109920, Note_off_c, 9, 42, 95
7, 109920, Note_on_c, 9, 47, 95
7, 110400, Note_off_c, 9, 47, 95
7, 110400, Note_on_c, 9, 47, 95
7, 110640, Note_off_c, 9, 47, 95
7, 110640, Note_on_c, 9, 47, 95
7, 110880, Note_off_c, 9, 47, 95
7, 110880, Note_on_c, 9, 47, 95
7, 111360, Note_off_c, 9, 47, 95
7, 111360, Note_on_c, 9, 47, 95
7, 112320, Note_off_c, 9, 47, 95
7, 112320, Note_on_c, 9, 47, 95
7, 112320, Note_on_c, 9, 36, 95
7, 113280, Note_off_c, 9, 47, 95
7, 113280, Note_off_c, 9, 36, 95
7, 113760, Note_on_c, 9, 47, 95
7, 113760, Note_on_c, 9, 36, 95
7, 114240, Note_off_c, 9, 47, 95
7, 114240, Note_off_c, 9, 36, 95
7, 114720, Note_on_c, 9, 47, 95
7, 114720, Note_on_c, 9, 36, 95
7, 115200, Note_off_c, 9, 47, 95
7, 115200, Note_off_c, 9, 36, 95
7, 116160, Note_on_c, 9, 47, 95
7, 116160, Note_on_c, 9, 36, 95
7, 117120, Note_off_c, 9, 47, 95
7, 117120, Note_off_c, 9, 36, 95
7, 117600, Note_on_c, 9, 47, 95
7, 117600, Note_on_c, 9, 36, 95
7, 118080, Note_off_c, 9, 47, 95
7, 118080, Note_off_c, 9, 36, 95
7, 118080, Note_on_c, 9, 47, 95
7, 118560, Note_off_c, 9, 47, 95
7, 118560, Note_on_c, 9, 47, 95
7, 118560, Note_on_c, 9, 36, 95
7, 119040, Note_off_c, 9, 47, 95
7, 119040, Note_off_c, 9, 36, 95
7, 119040, Note_on_c, 9, 42, 95
7, 119040, Note_on_c, 9, 36, 95
7, 119520, Note_off_c, 9, 42, 95
7, 119520, Note_on_c, 9, 42, 95
7, 120000, Note_off_c, 9, 36, 95
7, 120000, Note_off_c, 9, 42, 95
7, 120000, Note_on_c, 9, 42, 95
7, 120000, Note_on_c, 9, 38, 95
7, 120000, Note_on_c, 9, 36, 95
7, 120480, Note_off_c, 9, 42, 95
7, 120480, Note_off_c, 9, 38, 95
7, 120480, Note_on_c, 9, 42, 95
7, 120960, Note_off_c, 9, 36, 95
7, 120960, Note_off_c, 9, 42, 95
7, 120960, Note_on_c, 9, 42, 95
7, 121440, Note_off_c, 9, 42, 95
7, 121440, Note_on_c, 9, 42, 95
7, 121440, Note_on_c, 9, 36, 95
7, 121920, Note_off_c, 9, 42, 95
7, 121920, Note_off_c, 9, 36, 95
7, 121920, Note_on_c, 9, 42, 95
7, 121920, Note_on_c, 9, 38, 95
7, 122400, Note_off_c, 9, 42, 95
7, 122400, Note_off_c, 9, 38, 95
7, 122400, Note_on_c, 9, 42, 95
7, 122400, Note_on_c, 9, 36, 95
7, 122880, Note_off_c, 9, 42, 95
7, 122880, Note_off_c, 9, 36, 95
7, 122880, Note_on_c, 9, 42, 95
7, 123360, Note_off_c, 9, 42, 95
7, 123360, Note_on_c, 9, 42, 95
7, 123840, Note_off_c, 9, 42, 95
7, 123840, Note_on_c, 9, 42, 95
7, 123840, Note_on_c, 9, 38, 95
7, 123840, Note_on_c, 9, 36, 95
7, 124320, Note_off_c, 9, 42, 95
7, 124320, Note_on_c, 9, 42, 95
7, 124800, Note_off_c, 9, 38, 95
7, 124800, Note_off_c, 9, 36, 95
7, 124800, Note_off_c, 9, 42, 95
7, 124800, Note_on_c, 9, 42, 95
7, 125280, Note_off_c, 9, 42, 95
7, 125280, Note_on_c, 9, 42, 95
7, 125280, Note_on_c, 9, 36, 95
7, 125760, Note_off_c, 9, 42, 95
7, 125760, Note_off_c, 9, 36, 95
7, 125760, Note_on_c, 9, 42, 95
7, 125760, Note_on_c, 9, 38, 95
7, 126240, Note_off_c, 9, 42, 95
7, 126240, Note_off_c, 9, 38, 95
7, 126240, Note_on_c, 9, 42, 95
7, 126240, Note_on_c, 9, 36, 95
7, 126720, Note_off_c, 9, 42, 95
7, 126720, Note_off_c, 9, 36, 95
7, 126720, Note_on_c, 9, 42, 95
7, 127200, Note_off_c, 9, 42, 95
7, 127200, Note_on_c, 9, 42, 95
7, 127680, Note_off_c, 9, 42, 95
7, 127680, Note_on_c, 9, 42, 95
7, 127680, Note_on_c, 9, 38, 95
7, 127680, Note_on_c, 9, 36, 95
7, 128160, Note_off_c, 9, 42, 95
7, 128160, Note_off_c, 9, 38, 95
7, 128160, Note_on_c, 9, 42, 95
7, 128640, Note_off_c, 9, 36, 95
7, 128640, Note_off_c, 9, 42, 95
7, 128640, Note_on_c, 9, 42, 95
7, 129120, Note_off_c, 9, 42, 95
7, 129120, Note_on_c, 9, 42, 95
7, 129600, Note_off_c, 9, 42, 95
7, 129600, Note_on_c, 9, 42, 95
7, 129600, Note_on_c, 9, 38, 95
7, 129600, Note_on_c, 9, 36, 95
7, 130080, Note_off_c, 9, 42, 95
7, 130080, Note_off_c, 9, 38, 95
7, 130080, Note_on_c, 9, 42, 95
7, 130560, Note_off_c, 9, 36, 95
7, 130560, Note_off_c, 9, 42, 95
7, 130560, Note_on_c, 9, 42, 95
7, 131040, Note_off_c, 9, 42, 95
7, 131040, Note_on_c, 9, 42, 95
7, 131040, Note_on_c, 9, 36, 95
7, 131520, Note_off_c, 9, 42, 95
7, 131520, Note_on_c, 9, 42, 95
7, 131520, Note_on_c, 9, 38, 95
7, 132000, Note_off_c, 9, 36, 95
7, 132000, Note_off_c, 9, 42, 95
7, 132000, Note_off_c, 9, 38, 95
7, 132000, Note_on_c, 9, 42, 95
7, 132480, Note_off_c, 9, 42, 95
7, 132480, Note_on_c, 9, 42, 95
7, 132960, Note_off_c, 9, 42, 95
7, 132960, Note_on_c, 9, 42, 95
7, 132960, Note_on_c, 9, 36, 95
7, 133440, Note_off_c, 9, 42, 95
7, 133440, Note_off_c, 9, 36, 95
7, 133440, Note_on_c, 9, 42, 95
7, 133440, Note_on_c, 9, 38, 95
7, 133920, Note_off_c, 9, 42, 95
7, 133920, Note_off_c, 9, 38, 95
7, 133920, Note_on_c, 9, 42, 95
7, 133920, Note_on_c, 9, 36, 95
7, 134400, Note_off_c, 9, 42, 95
7, 134400, Note_off_c, 9, 36, 95
7, 134400, Note_on_c, 9, 42, 95
7, 134880, Note_off_c, 9, 42, 95
7, 134880, Note_on_c, 9, 42, 95
7, 134880, Note_on_c, 9, 36, 95
7, 135360, Note_off_c, 9, 42, 95
7, 135360, Note_on_c, 9, 42, 95
7, 135360, Note_on_c, 9, 38, 95
7, 135840, Note_off_c, 9, 36, 95
7, 135840, Note_off_c, 9, 42, 95
7, 135840, Note_off_c, 9, 38, 95
7, 135840, Note_on_c, 9, 42, 95
7, 136320, Note_off_c, 9, 42, 95
7, 136320, Note_on_c, 9, 42, 95
7, 136800, Note_off_c, 9, 42, 95
7, 136800, Note_on_c, 9, 42, 95
7, 136800, Note_on_c, 9, 36, 95
7, 137280, Note_off_c, 9, 42, 95
7, 137280, Note_off_c, 9, 36, 95
7, 137280, Note_on_c, 9, 42, 95
7, 137280, Note_on_c, 9, 38, 95
7, 137760, Note_off_c, 9, 42, 95
7, 137760, Note_off_c, 9, 38, 95
7, 137760, Note_on_c, 9, 42, 95
7, 137760, Note_on_c, 9, 36, 95
7, 138240, Note_off_c, 9, 42, 95
7, 138240, Note_off_c, 9, 36, 95
7, 138240, Note_on_c, 9, 42, 95
7, 138720, Note_off_c, 9, 42, 95
7, 138720, Note_on_c, 9, 42, 95
7, 138720, Note_on_c, 9, 36, 95
7, 139200, Note_off_c, 9, 42, 95
7, 139200, Note_on_c, 9, 42, 95
7, 139200, Note_on_c, 9, 38, 95
7, 139680, Note_off_c, 9, 36, 95
7, 139680, Note_off_c, 9, 42, 95
7, 139680, Note_off_c, 9, 38, 95
7, 139680, Note_on_c, 9, 42, 95
7, 140160, Note_off_c, 9, 42, 95
7, 140160, Note_on_c, 9, 42, 95
7, 140640, Note_off_c, 9, 42, 95
7, 140640, Note_on_c, 9, 42, 95
7, 140640, Note_on_c, 9, 36, 95
7, 141120, Note_off_c, 9, 42, 95
7, 141120, Note_off_c, 9, 36, 95
7, 141120, Note_on_c, 9, 42, 95
7, 141120, Note_on_c, 9, 38, 95
7, 141600, Note_off_c, 9, 42, 95
7, 141600, Note_off_c, 9, 38, 95
7, 141600, Note_on_c, 9, 42, 95
7, 141600, Note_on_c, 9, 36, 95
7, 142080, Note_off_c, 9, 42, 95
7, 142080, Note_off_c, 9, 36, 95
7, 142080, Note_on_c, 9, 42, 95
7, 142560, Note_off_c, 9, 42, 95
7, 142560, Note_on_c, 9, 42, 95
7, 142560, Note_on_c, 9, 36, 95
7, 143040, Note_off_c, 9, 42, 95
7, 143040, Note_on_c, 9, 42, 95
7, 143040, Note_on_c, 9, 38, 95
7, 143520, Note_off_c, 9, 36, 95
7, 143520, Note_off_c, 9, 42, 95
7, 143520, Note_off_c, 9, 38, 95
7, 143520, Note_on_c, 9, 42, 95
7, 144000, Note_off_c, 9, 42, 95
7, 144000, Note_on_c, 9, 42, 95
7, 144480, Note_off_c, 9, 42, 95
7, 144480, Note_on_c, 9, 42, 95
7, 144480, Note_on_c, 9, 36, 95
7, 144960, Note_off_c, 9, 42, 95
7, 144960, Note_off_c, 9, 36, 95
7, 144960, Note_on_c, 9, 42, 95
7, 144960, Note_on_c, 9, 38, 95
7, 145440, Note_off_c, 9, 42, 95
7, 145440, Note_off_c, 9, 38, 95
7, 145440, Note_on_c, 9, 42, 95
7, 145440, Note_on_c, 9, 36, 95
7, 145920, Note_off_c, 9, 42, 95
7, 145920, Note_off_c, 9, 36, 95
7, 145920, Note_on_c, 9, 42, 95
7, 146400, Note_off_c, 9, 42, 95
7, 146400, Note_on_c, 9, 42, 95
7, 146400, Note_on_c, 9, 36, 95
7, 146880, Note_off_c, 9, 42, 95
7, 146880, Note_on_c, 9, 42, 95
7, 146880, Note_on_c, 9, 38, 95
7, 147360, Note_off_c, 9, 36, 95
7, 147360, Note_off_c, 9, 42, 95
7, 147360, Note_off_c, 9, 38, 95
7, 147360, Note_on_c, 9, 42, 95
7, 147840, Note_off_c, 9, 42, 95
7, 147840, Note_on_c, 9, 42, 95
7, 148320, Note_off_c, 9, 42, 95
7, 148320, Note_on_c, 9, 42, 95
7, 148320, Note_on_c, 9, 36, 95
7, 148800, Note_off_c, 9, 42, 95
7, 148800, Note_off_c, 9, 36, 95
7, 148800, Note_on_c, 9, 42, 95
7, 148800, Note_on_c, 9, 38, 95
7, 149280, Note_off_c, 9, 42, 95
7, 149280, Note_off_c, 9, 38, 95
7, 149280, Note_on_c, 9, 42, 95
7, 149280, Note_on_c, 9, 36, 95
7, 149760, Note_off_c, 9, 42, 95
7, 149760, Note_off_c, 9, 36, 95
7, 149760, Note_on_c, 9, 42, 95
7, 150240, Note_off_c, 9, 42, 95
7, 150240, Note_on_c, 9, 42, 95
7, 150240, Note_on_c, 9, 36, 95
7, 150720, Note_off_c, 9, 42, 95
7, 150720, Note_on_c, 9, 42, 95
7, 150720, Note_on_c, 9, 38, 95
7, 151200, Note_off_c, 9, 36, 95
7, 151200, Note_off_c, 9, 42, 95
7, 151200, Note_off_c, 9, 38, 95
7, 151200, Note_on_c, 9, 42, 95
7, 151680, Note_off_c, 9, 42, 95
7, 151680, Note_on_c, 9, 42, 95
7, 152160, Note_off_c, 9, 42, 95
7, 152160, Note_on_c, 9, 42, 95
7, 152160, Note_on_c, 9, 36, 95
7, 152640, Note_off_c, 9, 42, 95
7, 152640, Note_off_c, 9, 36, 95
7, 152640, Note_on_c, 9, 42, 95
7, 152640, Note_on_c, 9, 38, 95
7, 153120, Note_off_c, 9, 42, 95
7, 153120, Note_off_c, 9, 38, 95
7, 153120, Note_on_c, 9, 42, 95
7, 153120, Note_on_c, 9, 36, 95
7, 153600, Note_off_c, 9, 42, 95
7, 153600, Note_off_c, 9, 36, 95
7, 153600, Note_on_c, 9, 42, 95
7, 154080, Note_off_c, 9, 42, 95
7, 154080, Note_on_c, 9, 42, 95
7, 154080, Note_on_c, 9, 36, 95
7, 154560, Note_off_c, 9, 42, 95
7, 154560, Note_on_c, 9, 42, 95
7, 154560, Note_on_c, 9, 38, 95
7, 155040, Note_off_c, 9, 36, 95
7, 155040, Note_off_c, 9, 42, 95
7, 155040, Note_off_c, 9, 38, 95
7, 155040, Note_on_c, 9, 42, 95
7, 155520, Note_off_c, 9, 42, 95
7, 155520, Note_on_c, 9, 42, 95
7, 156000, Note_off_c, 9, 42, 95
7, 156000, Note_on_c, 9, 42, 95
7, 156000, Note_on_c, 9, 36, 95
7, 156480, Note_off_c, 9, 42, 95
7, 156480, Note_off_c, 9, 36, 95
7, 156480, Note_on_c, 9, 42, 95
7, 156480, Note_on_c, 9, 38, 95
7, 156960, Note_off_c, 9, 42, 95
7, 156960, Note_off_c, 9, 38, 95
7, 156960, Note_on_c, 9, 42, 95
7, 156960, Note_on_c, 9, 36, 95
7, 157440, Note_off_c, 9, 42, 95
7, 157440, Note_off_c, 9, 36, 95
7, 157440, Note_on_c, 9, 42, 95
7, 157920, Note_off_c, 9, 42, 95
7, 157920, Note_on_c, 9, 42, 95
7, 158400, Note_off_c, 9, 42, 95
7, 158400, Note_on_c, 9, 42, 95
7, 158400, Note_on_c, 9, 38, 95
7, 158400, Note_on_c, 9, 36, 95
7, 158880, Note_off_c, 9, 42, 95
7, 158880, Note_off_c, 9, 38, 95
7, 158880, Note_on_c, 9, 42, 95
7, 159360, Note_off_c, 9, 36, 95
7, 159360, Note_off_c, 9, 42, 95
7, 159360, Note_on_c, 9, 42, 95
7, 159840, Note_off_c, 9, 42, 95
7, 159840, Note_on_c, 9, 42, 95
7, 159840, Note_on_c, 9, 36, 95
7, 160320, Note_off_c, 9, 42, 95
7, 160320, Note_off_c, 9, 36, 95
7, 160320, Note_on_c, 9, 42, 95
7, 160320, Note_on_c, 9, 38, 95
7, 160320, Note_on_c, 9, 36, 95
7, 160800, Note_off_c, 9, 42, 95
7, 160800, Note_off_c, 9, 38, 95
7, 160800, Note_off_c, 9, 36, 95
7, 160800, Note_on_c, 9, 42, 95
7, 160800, Note_on_c, 9, 36, 95
7, 161280, Note_off_c, 9, 42, 95
7, 161280, Note_off_c, 9, 36, 95
7, 161280, Note_on_c, 9, 42, 95
7, 161760, Note_off_c, 9, 42, 95
7, 161760, Note_on_c, 9, 42, 95
7, 162240, Note_off_c, 9, 42, 95
7, 162240, Note_on_c, 9, 42, 95
7, 162240, Note_on_c, 9, 38, 95
7, 162240, Note_on_c, 9, 36, 95
7, 162720, Note_off_c, 9, 42, 95
7, 162720, Note_off_c, 9, 38, 95
7, 162720, Note_on_c, 9, 42, 95
7, 163200, Note_off_c, 9, 36, 95
7, 163200, Note_off_c, 9, 42, 95
7, 163200, Note_on_c, 9, 42, 95
7, 163680, Note_off_c, 9, 42, 95
7, 163680, Note_on_c, 9, 42, 95
7, 164160, Note_off_c, 9, 42, 95
7, 164160, Note_on_c, 9, 42, 95
7, 164160, Note_on_c, 9, 38, 95
7, 164160, Note_on_c, 9, 36, 95
7, 164640, Note_off_c, 9, 42, 95
7, 164640, Note_off_c, 9, 38, 95
7, 164640, Note_on_c, 9, 42, 95
7, 165120, Note_off_c, 9, 36, 95
7, 165120, Note_off_c, 9, 42, 95
7, 165120, Note_on_c, 9, 42, 95
7, 165600, Note_off_c, 9, 42, 95
7, 165600, Note_on_c, 9, 42, 95
7, 166080, Note_off_c, 9, 42, 95
7, 166080, Note_on_c, 9, 42, 95
7, 166080, Note_on_c, 9, 36, 95
7, 166560, Note_off_c, 9, 42, 95
7, 166560, Note_on_c, 9, 42, 95
7, 167040, Note_off_c, 9, 36, 95
7, 167040, Note_off_c, 9, 42, 95
7, 167040, Note_on_c, 9, 42, 95
7, 167040, Note_on_c, 9, 36, 95
7, 167520, Note_off_c, 9, 42, 95
7, 167520, Note_off_c, 9, 36, 95
7, 167520, Note_on_c, 9, 42, 95
7, 167520, Note_on_c, 9, 36, 95
7, 168000, Note_off_c, 9, 42, 95
7, 168000, Note_off_c, 9, 36, 95
7, 168000, Note_on_c, 9, 42, 95
7, 168480, Note_off_c, 9, 42, 95
7, 168480, Note_on_c, 9, 42, 95
7, 168480, Note_on_c, 9, 36, 95
7, 168960, Note_off_c, 9, 42, 95
7, 168960, Note_off_c, 9, 36, 95
7, 168960, Note_on_c, 9, 42, 95
7, 169440, Note_off_c, 9, 42, 95
7, 169440, Note_on_c, 9, 42, 95
7, 169440, Note_on_c, 9, 36, 95
7, 169920, Note_off_c, 9, 42, 95
7, 169920, Note_on_c, 9, 42, 95
7, 170400, Note_off_c, 9, 36, 95
7, 170400, Note_off_c, 9, 42, 95
7, 170400, Note_on_c, 9, 42, 95
7, 170400, Note_on_c, 9, 36, 95
7, 170880, Note_off_c, 9, 42, 95
7, 170880, Note_off_c, 9, 36, 95
7, 170880, Note_on_c, 9, 42, 95
7, 170880, Note_on_c, 9, 36, 95
7, 171360, Note_off_c, 9, 42, 95
7, 171360, Note_off_c, 9, 36, 95
7, 171360, Note_on_c, 9, 42, 95
7, 171840, Note_off_c, 9, 42, 95
7, 171840, Note_on_c, 9, 42, 95
7, 171840, Note_on_c, 9, 36, 95
7, 172320, Note_off_c, 9, 42, 95
7, 172320, Note_on_c, 9, 42, 95
7, 172800, Note_off_c, 9, 36, 95
7, 172800, Note_off_c, 9, 42, 95
7, 172800, Note_on_c, 9, 42, 95
7, 173280, Note_off_c, 9, 42, 95
7, 173280, Note_on_c, 9, 42, 95
7, 173760, Note_off_c, 9, 42, 95
7, 173760, Note_on_c, 9, 42, 95
7, 173760, Note_on_c, 9, 36, 95
7, 174240, Note_off_c, 9, 42, 95
7, 174240, Note_on_c, 9, 42, 95
7, 174720, Note_off_c, 9, 36, 95
7, 174720, Note_off_c, 9, 42, 95
7, 174720, Note_on_c, 9, 42, 95
7, 174720, Note_on_c, 9, 36, 95
7, 175200, Note_off_c, 9, 42, 95
7, 175200, Note_off_c, 9, 36, 95
7, 175200, Note_on_c, 9, 42, 95
7, 175200, Note_on_c, 9, 36, 95
7, 175680, Note_off_c, 9, 42, 95
7, 175680, Note_off_c, 9, 36, 95
7, 175680, Note_on_c, 9, 42, 95
7, 176160, Note_off_c, 9, 42, 95
7, 176160, Note_on_c, 9, 42, 95
7, 176160, Note_on_c, 9, 36, 95
7, 176640, Note_off_c, 9, 42, 95
7, 176640, Note_off_c, 9, 36, 95
7, 176640, Note_on_c, 9, 42, 95
7, 177120, Note_off_c, 9, 42, 95
7, 177120, Note_on_c, 9, 42, 95
7, 177600, Note_off_c, 9, 42, 95
7, 177600, Note_on_c, 9, 42, 95
7, 177600, Note_on_c, 9, 36, 95
7, 178080, Note_off_c, 9, 42, 95
7, 178080, Note_on_c, 9, 42, 95
7, 178560, Note_off_c, 9, 36, 95
7, 178560, Note_off_c, 9, 42, 95
7, 178560, Note_on_c, 9, 42, 95
7, 179040, Note_off_c, 9, 42, 95
7, 179040, Note_on_c, 9, 42, 95
7, 179520, Note_off_c, 9, 42, 95
7, 179520, Note_on_c, 9, 42, 95
7, 179520, Note_on_c, 9, 36, 95
7, 180000, Note_off_c, 9, 42, 95
7, 180000, Note_on_c, 9, 42, 95
7, 180480, Note_off_c, 9, 36, 95
7, 180480, Note_off_c, 9, 42, 95
7, 180480, Note_on_c, 9, 42, 95
7, 180960, Note_off_c, 9, 42, 95
7, 180960, Note_on_c, 9, 42, 95
7, 181440, Note_off_c, 9, 42, 95
7, 181440, Note_on_c, 9, 42, 95
7, 181440, Note_on_c, 9, 36, 95
7, 181920, Note_off_c, 9, 42, 95
7, 181920, Note_on_c, 9, 42, 95
7, 182400, Note_off_c, 9, 36, 95
7, 182400, Note_off_c, 9, 42, 95
7, 182400, Note_on_c, 9, 42, 95
7, 182880, Note_off_c, 9, 42, 95
7, 182880, Note_on_c, 9, 42, 95
7, 182880, Note_on_c, 9, 36, 95
7, 183360, Note_off_c, 9, 42, 95
7, 183360, Note_off_c, 9, 36, 95
7, 183360, Note_on_c, 9, 42, 95
7, 183840, Note_off_c, 9, 42, 95
7, 183840, Note_on_c, 9, 42, 95
7, 183840, Note_on_c, 9, 36, 95
7, 184320, Note_off_c, 9, 42, 95
7, 184320, Note_off_c, 9, 36, 95
7, 184320, Note_on_c, 9, 42, 95
7, 184800, Note_off_c, 9, 42, 95
7, 184800, Note_on_c, 9, 42, 95
7, 185280, Note_off_c, 9, 42, 95
7, 185280, Note_on_c, 9, 42, 95
7, 185280, Note_on_c, 9, 36, 95
7, 185760, Note_off_c, 9, 42, 95
7, 185760, Note_on_c, 9, 42, 95
7, 186240, Note_off_c, 9, 36, 95
7, 186240, Note_off_c, 9, 42, 95
7, 186240, Note_on_c, 9, 42, 95
7, 186720, Note_off_c, 9, 42, 95
7, 186720, Note_on_c, 9, 42, 95
7, 187200, Note_off_c, 9, 42, 95
7, 187200, Note_on_c, 9, 42, 95
7, 187200, Note_on_c, 9, 36, 95
7, 187680, Note_off_c, 9, 42, 95
7, 187680, Note_on_c, 9, 42, 95
7, 188160, Note_off_c, 9, 36, 95
7, 188160, Note_off_c, 9, 42, 95
7, 188160, Note_on_c, 9, 42, 95
7, 188640, Note_off_c, 9, 42, 95
7, 188640, Note_on_c, 9, 42, 95
7, 189120, Note_off_c, 9, 42, 95
7, 189120, Note_on_c, 9, 42, 95
7, 189120, Note_on_c, 9, 36, 95
7, 189600, Note_off_c, 9, 42, 95
7, 189600, Note_on_c, 9, 42, 95
7, 190080, Note_off_c, 9, 36, 95
7, 190080, Note_off_c, 9, 42, 95
7, 190080, Note_on_c, 9, 42, 95
7, 190560, Note_off_c, 9, 42, 95
7, 190560, Note_on_c, 9, 42, 95
7, 190560, Note_on_c, 9, 36, 95
7, 191040, Note_off_c, 9, 42, 95
7, 191040, Note_off_c, 9, 36, 95
7, 191040, Note_on_c, 9, 42, 95
7, 191520, Note_off_c, 9, 42, 95
7, 191520, Note_on_c, 9, 42, 95
7, 191520, Note_on_c, 9, 36, 95
7, 192000, Note_off_c, 9, 42, 95
7, 192000, Note_off_c, 9, 36, 95
7, 192000, Note_on_c, 9, 42, 95
7, 192480, Note_off_c, 9, 42, 95
7, 192480, Note_on_c, 9, 42, 95
7, 192960, Note_off_c, 9, 42, 95
7, 192960, Note_on_c, 9, 42, 95
7, 192960, Note_on_c, 9, 36, 95
7, 193440, Note_off_c, 9, 42, 95
7, 193440, Note_on_c, 9, 42, 95
7, 193920, Note_off_c, 9, 36, 95
7, 193920, Note_off_c, 9, 42, 95
7, 193920, Note_on_c, 9, 42, 95
7, 194400, Note_off_c, 9, 42, 95
7, 194400, Note_on_c, 9, 42, 95
7, 194880, Note_off_c, 9, 42, 95
7, 194880, Note_on_c, 9, 42, 95
7, 194880, Note_on_c, 9, 36, 95
7, 195360, Note_off_c, 9, 42, 95
7, 195360, Note_on_c, 9, 42, 95
7, 195840, Note_off_c, 9, 36, 95
7, 195840, Note_off_c, 9, 42, 95
7, 195840, Note_on_c, 9, 42, 95
7, 196320, Note_off_c, 9, 42, 95
7, 196320, Note_on_c, 9, 42, 95
7, 196800, Note_off_c, 9, 42, 95
7, 196800, Note_on_c, 9, 42, 95
7, 196800, Note_on_c, 9, 36, 95
7, 197280, Note_off_c, 9, 42, 95
7, 197280, Note_on_c, 9, 42, 95
7, 197760, Note_off_c, 9, 36, 95
7, 197760, Note_off_c, 9, 42, 95
7, 197760, Note_on_c, 9, 42, 95
7, 198240, Note_off_c, 9, 42, 95
7, 198240, Note_on_c, 9, 42, 95
7, 198240, Note_on_c, 9, 36, 95
7, 198720, Note_off_c, 9, 42, 95
7, 198720, Note_off_c, 9, 36, 95
7, 198720, Note_on_c, 9, 42, 95
7, 199200, Note_off_c, 9, 42, 95
7, 199200, Note_on_c, 9, 42, 95
7, 199200, Note_on_c, 9, 36, 95
7, 199680, Note_off_c, 9, 42, 95
7, 199680, Note_off_c, 9, 36, 95
7, 199680, Note_on_c, 9, 42, 95
7, 200160, Note_off_c, 9, 42, 95
7, 200160, Note_on_c, 9, 42, 95
7, 200640, Note_off_c, 9, 42, 95
7, 200640, Note_on_c, 9, 42, 95
7, 200640, Note_on_c, 9, 36, 95
7, 201120, Note_off_c, 9, 42, 95
7, 201120, Note_on_c, 9, 42, 95
7, 201600, Note_off_c, 9, 36, 95
7, 201600, Note_off_c, 9, 42, 95
7, 201600, Note_on_c, 9, 42, 95
7, 202080, Note_off_c, 9, 42, 95
7, 202080, Note_on_c, 9, 47, 95
7, 202560, Note_off_c, 9, 47, 95
7, 202560, Note_on_c, 9, 47, 95
7, 202800, Note_off_c, 9, 47, 95
7, 202800, Note_on_c, 9, 47, 95
7, 203040, Note_off_c, 9, 47, 95
7, 203040, Note_on_c, 9, 47, 95
7, 203520, Note_off_c, 9, 47, 95
7, 203520, Note_on_c, 9, 42, 95
7, 204000, Note_off_c, 9, 42, 95
7, 204000, Note_on_c, 9, 42, 95
7, 204480, Note_off_c, 9, 42, 95
7, 204480, Note_on_c, 9, 42, 95
7, 204480, Note_on_c, 9, 36, 95
7, 204960, Note_off_c, 9, 42, 95
7, 204960, Note_on_c, 9, 42, 95
7, 205440, Note_off_c, 9, 36, 95
7, 205440, Note_off_c, 9, 42, 95
7, 205440, Note_on_c, 9, 42, 95
7, 205920, Note_off_c, 9, 42, 95
7, 205920, Note_on_c, 9, 42, 95
7, 205920, Note_on_c, 9, 36, 95
7, 206400, Note_off_c, 9, 42, 95
7, 206400, Note_off_c, 9, 36, 95
7, 206400, Note_on_c, 9, 42, 95
7, 206880, Note_off_c, 9, 42, 95
7, 206880, Note_on_c, 9, 42, 95
7, 206880, Note_on_c, 9, 36, 95
7, 207360, Note_off_c, 9, 42, 95
7, 207360, Note_off_c, 9, 36, 95
7, 207360, Note_on_c, 9, 42, 95
7, 207840, Note_off_c, 9, 42, 95
7, 207840, Note_on_c, 9, 42, 95
7, 208320, Note_off_c, 9, 42, 95
7, 208320, Note_on_c, 9, 42, 95
7, 208320, Note_on_c, 9, 36, 95
7, 208800, Note_off_c, 9, 42, 95
7, 208800, Note_on_c, 9, 42, 95
7, 209280, Note_off_c, 9, 36, 95
7, 209280, Note_off_c, 9, 42, 95
7, 209280, Note_on_c, 9, 42, 95
7, 209760, Note_off_c, 9, 42, 95
7, 209760, Note_on_c, 9, 42, 95
7, 210240, Note_off_c, 9, 42, 95
7, 210240, Note_on_c, 9, 42, 95
7, 210240, Note_on_c, 9, 36, 95
7, 210720, Note_off_c, 9, 42, 95
7, 210720, Note_on_c, 9, 42, 95
7, 211200, Note_off_c, 9, 36, 95
7, 211200, Note_off_c, 9, 42, 95
7, 211200, Note_on_c, 9, 42, 95
7, 211680, Note_off_c, 9, 42, 95
7, 211680, Note_on_c, 9, 42, 95
7, 212160, Note_off_c, 9, 42, 95
7, 212160, Note_on_c, 9, 42, 95
7, 212160, Note_on_c, 9, 36, 95
7, 212640, Note_off_c, 9, 42, 95
7, 212640, Note_on_c, 9, 42, 95
7, 213120, Note_off_c, 9, 36, 95
7, 213120, Note_off_c, 9, 42, 95
7, 213120, Note_on_c, 9, 42, 95
7, 213600, Note_off_c, 9, 42, 95
7, 213600, Note_on_c, 9, 42, 95
7, 213600, Note_on_c, 9, 36, 95
7, 214080, Note_off_c, 9, 42, 95
7, 214080, Note_off_c, 9, 36, 95
7, 214080, Note_on_c, 9, 42, 95
7, 214560, Note_off_c, 9, 42, 95
7, 214560, Note_on_c, 9, 42, 95
7, 214560, Note_on_c, 9, 36, 95
7, 215040, Note_off_c, 9, 42, 95
7, 215040, Note_off_c, 9, 36, 95
7, 215040, Note_on_c, 9, 42, 95
7, 215520, Note_off_c, 9, 42, 95
7, 215520, Note_on_c, 9, 42, 95
7, 216000, Note_off_c, 9, 42, 95
7, 216000, Note_on_c, 9, 42, 95
7, 216000, Note_on_c, 9, 36, 95
7, 216480, Note_off_c, 9, 42, 95
7, 216480, Note_on_c, 9, 42, 95
7, 216960, Note_off_c, 9, 36, 95
7, 216960, Note_off_c, 9, 42, 95
7, 216960, Note_on_c, 9, 42, 95
7, 217440, Note_off_c, 9, 42, 95
7, 217440, Note_on_c, 9, 47, 95
7, 217920, Note_off_c, 9, 47, 95
7, 217920, Note_on_c, 9, 47, 95
7, 218160, Note_off_c, 9, 47, 95
7, 218160, Note_on_c, 9, 47, 95
7, 218400, Note_off_c, 9, 47, 95
7, 218400, Note_on_c, 9, 47, 95
7, 218880, Note_off_c, 9, 47, 95
7, 218880, Note_on_c, 9, 42, 95
7, 219360, Note_off_c, 9, 42, 95
7, 219360, Note_on_c, 9, 42, 95
7, 219840, Note_off_c, 9, 42, 95
7, 219840, Note_on_c, 9, 42, 95
7, 219840, Note_on_c, 9, 36, 95
7, 220320, Note_off_c, 9, 42, 95
7, 220320, Note_on_c, 9, 42, 95
7, 220800, Note_off_c, 9, 36, 95
7, 220800, Note_off_c, 9, 42, 95
7, 220800, Note_on_c, 9, 42, 95
7, 221280, Note_off_c, 9, 42, 95
7, 221280, Note_on_c, 9, 42, 95
7, 221280, Note_on_c, 9, 36, 95
7, 221760, Note_off_c, 9, 42, 95
7, 221760, Note_off_c, 9, 36, 95
7, 221760, Note_on_c, 9, 42, 95
7, 222240, Note_off_c, 9, 42, 95
7, 222240, Note_on_c, 9, 42, 95
7, 222240, Note_on_c, 9, 36, 95
7, 222720, Note_off_c, 9, 42, 95
7, 222720, Note_off_c, 9, 36, 95
7, 222720, Note_on_c, 9, 42, 95
7, 223200, Note_off_c, 9, 42, 95
7, 223200, Note_on_c, 9, 42, 95
7, 223680, Note_off_c, 9, 42, 95
7, 223680, Note_on_c, 9, 42, 95
7, 223680, Note_on_c, 9, 36, 95
7, 224160, Note_off_c, 9, 42, 95
7, 224160, Note_on_c, 9, 42, 95
7, 224640, Note_off_c, 9, 36, 95
7, 224640, Note_off_c, 9, 42, 95
7, 224640, Note_on_c, 9, 42, 95
7, 225120, Note_off_c, 9, 42, 95
7, 225120, Note_on_c, 9, 42, 95
7, 225120, Note_on_c, 9, 36, 95
7, 225600, Note_off_c, 9, 42, 95
7, 225600, Note_off_c, 9, 36, 95
7, 225600, Note_on_c, 9, 42, 95
7, 226080, Note_off_c, 9, 42, 95
7, 226080, Note_on_c, 9, 42, 95
7, 226080, Note_on_c, 9, 36, 95
7, 226560, Note_off_c, 9, 42, 95
7, 226560, Note_off_c, 9, 36, 95
7, 226560, Note_on_c, 9, 42, 95
7, 227040, Note_off_c, 9, 42, 95
7, 227040, Note_on_c, 9, 42, 95
7, 227520, Note_off_c, 9, 42, 95
7, 227520, Note_on_c, 9, 42, 95
7, 227520, Note_on_c, 9, 36, 95
7, 228000, Note_off_c, 9, 42, 95
7, 228000, Note_on_c, 9, 42, 95
7, 228480, Note_off_c, 9, 36, 95
7, 228480, Note_off_c, 9, 42, 95
7, 228480, Note_on_c, 9, 42, 95
7, 228960, Note_off_c, 9, 42, 95
7, 228960, Note_on_c, 9, 42, 95
7, 228960, Note_on_c, 9, 36, 95
7, 229440, Note_off_c, 9, 42, 95
7, 229440, Note_off_c, 9, 36, 95
7, 229440, Note_on_c, 9, 42, 95
7, 229920, Note_off_c, 9, 42, 95
7, 229920, Note_on_c, 9, 42, 95
7, 229920, Note_on_c, 9, 36, 95
7, 230400, Note_off_c, 9, 42, 95
7, 230400, Note_off_c, 9, 36, 95
7, 230400, Note_on_c, 9, 42, 95
7, 230880, Note_off_c, 9, 42, 95
7, 230880, Note_on_c, 9, 42, 95
7, 231360, Note_off_c, 9, 42, 95
7, 231360, Note_on_c, 9, 42, 95
7, 231360, Note_on_c, 9, 38, 95
7, 231360, Note_on_c, 9, 36, 95
7, 231840, Note_off_c, 9, 42, 95
7, 231840, Note_on_c, 9, 42, 95
7, 232320, Note_off_c, 9, 38, 95
7, 232320, Note_off_c, 9, 36, 95
7, 232320, Note_off_c, 9, 42, 95
7, 232320, Note_on_c, 9, 42, 95
7, 232800, Note_off_c, 9, 42, 95
7, 232800, Note_on_c, 9, 42, 95
7, 232800, Note_on_c, 9, 36, 95
7, 233280, Note_off_c, 9, 42, 95
7, 233280, Note_off_c, 9, 36, 95
7, 233280, Note_on_c, 9, 42, 95
7, 233280, Note_on_c, 9, 38, 95
7, 233760, Note_off_c, 9, 42, 95
7, 233760, Note_off_c, 9, 38, 95
7, 233760, Note_on_c, 9, 42, 95
7, 233760, Note_on_c, 9, 36, 95
7, 234240, Note_off_c, 9, 42, 95
7, 234240, Note_off_c, 9, 36, 95
7, 234240, Note_on_c, 9, 42, 95
7, 234720, Note_off_c, 9, 42, 95
7, 234720, Note_on_c, 9, 42, 95
7, 235200, Note_off_c, 9, 42, 95
7, 235200, Note_on_c, 9, 42, 95
7, 235200, Note_on_c, 9, 38, 95
7, 235200, Note_on_c, 9, 36, 95
7, 235680, Note_off_c, 9, 42, 95
7, 235680, Note_off_c, 9, 38, 95
7, 235680, Note_on_c, 9, 42, 95
7, 236160, Note_off_c, 9, 36, 95
7, 236160, Note_off_c, 9, 42, 95
7, 236160, Note_on_c, 9, 42, 95
7, 236640, Note_off_c, 9, 42, 95
7, 236640, Note_on_c, 9, 42, 95
7, 237120, Note_off_c, 9, 42, 95
7, 237120, Note_on_c, 9, 42, 95
7, 237120, Note_on_c, 9, 38, 95
7, 237120, Note_on_c, 9, 36, 95
7, 237600, Note_off_c, 9, 42, 95
7, 237600, Note_off_c, 9, 38, 95
7, 237600, Note_on_c, 9, 42, 95
7, 238080, Note_off_c, 9, 36, 95
7, 238080, Note_off_c, 9, 42, 95
7, 238080, Note_on_c, 9, 42, 95
7, 238560, Note_off_c, 9, 42, 95
7, 238560, Note_on_c, 9, 42, 95
7, 238560, Note_on_c, 9, 36, 95
7, 239040, Note_off_c, 9, 42, 95
7, 239040, Note_on_c, 9, 42, 95
7, 239040, Note_on_c, 9, 38, 95
7, 239520, Note_off_c, 9, 36, 95
7, 239520, Note_off_c, 9, 42, 95
7, 239520, Note_off_c, 9, 38, 95
7, 239520, Note_on_c, 9, 42, 95
7, 240000, Note_off_c, 9, 42, 95
7, 240000, Note_on_c, 9, 42, 95
7, 240480, Note_off_c, 9, 42, 95
7, 240480, Note_on_c, 9, 42, 95
7, 240480, Note_on_c, 9, 36, 95
7, 240960, Note_off_c, 9, 42, 95
7, 240960, Note_off_c, 9, 36, 95
7, 240960, Note_on_c, 9, 42, 95
7, 240960, Note_on_c, 9, 38, 95
7, 241440, Note_off_c, 9, 42, 95
7, 241440, Note_off_c, 9, 38, 95
7, 241440, Note_on_c, 9, 42, 95
7, 241440, Note_on_c, 9, 36, 95
7, 241920, Note_off_c, 9, 42, 95
7, 241920, Note_off_c, 9, 36, 95
7, 241920, Note_on_c, 9, 42, 95
7, 242400, Note_off_c, 9, 42, 95
7, 242400, Note_on_c, 9, 42, 95
7, 242400, Note_on_c, 9, 36, 95
7, 242880, Note_off_c, 9, 42, 95
7, 242880, Note_on_c, 9, 42, 95
7, 242880, Note_on_c, 9, 38, 95
7, 243360, Note_off_c, 9, 36, 95
7, 243360, Note_off_c, 9, 42, 95
7, 243360, Note_off_c, 9, 38, 95
7, 243360, Note_on_c, 9, 42, 95
7, 243840, Note_off_c, 9, 42, 95
7, 243840, Note_on_c, 9, 42, 95
7, 244320, Note_off_c, 9, 42, 95
7, 244320, Note_on_c, 9, 42, 95
7, 244320, Note_on_c, 9, 36, 95
7, 244800, Note_off_c, 9, 42, 95
7, 244800, Note_off_c, 9, 36, 95
7, 244800, Note_on_c, 9, 42, 95
7, 244800, Note_on_c, 9, 38, 95
7, 245280, Note_off_c, 9, 42, 95
7, 245280, Note_off_c, 9, 38, 95
7, 245280, Note_on_c, 9, 42, 95
7, 245280, Note_on_c, 9, 36, 95
7, 245760, Note_off_c, 9, 42, 95
7, 245760, Note_off_c, 9, 36, 95
7, 245760, Note_on_c, 9, 42, 95
7, 246240, Note_off_c, 9, 42, 95
7, 246240, Note_on_c, 9, 42, 95
7, 246240, Note_on_c, 9, 36, 95
7, 246720, Note_off_c, 9, 42, 95
7, 246720, Note_on_c, 9, 42, 95
7, 246720, Note_on_c, 9, 38, 95
7, 247200, Note_off_c, 9, 36, 95
7, 247200, Note_off_c, 9, 42, 95
7, 247200, Note_off_c, 9, 38, 95
7, 247200, Note_on_c, 9, 42, 95
7, 247680, Note_off_c, 9, 42, 95
7, 247680, Note_on_c, 9, 42, 95
7, 248160, Note_off_c, 9, 42, 95
7, 248160, Note_on_c, 9, 42, 95
7, 248160, Note_on_c, 9, 36, 95
7, 248640, Note_off_c, 9, 42, 95
7, 248640, Note_off_c, 9, 36, 95
7, 248640, Note_on_c, 9, 42, 95
7, 248640, Note_on_c, 9, 38, 95
7, 249120, Note_off_c, 9, 42, 95
7, 249120, Note_off_c, 9, 38, 95
7, 249120, Note_on_c, 9, 42, 95
7, 249120, Note_on_c, 9, 36, 95
7, 249600, Note_off_c, 9, 42, 95
7, 249600, Note_off_c, 9, 36, 95
7, 249600, Note_on_c, 9, 42, 95
7, 250080, Note_off_c, 9, 42, 95
7, 250080, Note_on_c, 9, 42, 95
7, 250080, Note_on_c, 9, 36, 95
7, 250560, Note_off_c, 9, 42, 95
7, 250560, Note_on_c, 9, 42, 95
7, 250560, Note_on_c, 9, 38, 95
7, 251040, Note_off_c, 9, 36, 95
7, 251040, Note_off_c, 9, 42, 95
7, 251040, Note_off_c, 9, 38, 95
7, 251040, Note_on_c, 9, 42, 95
7, 251520, Note_off_c, 9, 42, 95
7, 251520, Note_on_c, 9, 42, 95
7, 252000, Note_off_c, 9, 42, 95
7, 252000, Note_on_c, 9, 42, 95
7, 252000, Note_on_c, 9, 36, 95
7, 252480, Note_off_c, 9, 42, 95
7, 252480, Note_off_c, 9, 36, 95
7, 252480, Note_on_c, 9, 42, 95
7, 252480, Note_on_c, 9, 38, 95
7, 252960, Note_off_c, 9, 42, 95
7, 252960, Note_off_c, 9, 38, 95
7, 252960, Note_on_c, 9, 42, 95
7, 252960, Note_on_c, 9, 36, 95
7, 253440, Note_off_c, 9, 42, 95
7, 253440, Note_off_c, 9, 36, 95
7, 253440, Note_on_c, 9, 42, 95
7, 253920, Note_off_c, 9, 42, 95
7, 253920, Note_on_c, 9, 42, 95
7, 253920, Note_on_c, 9, 36, 95
7, 254400, Note_off_c, 9, 42, 95
7, 254400, Note_on_c, 9, 42, 95
7, 254400, Note_on_c, 9, 38, 95
7, 254880, Note_off_c, 9, 36, 95
7, 254880, Note_off_c, 9, 42, 95
7, 254880, Note_off_c, 9, 38, 95
7, 254880, Note_on_c, 9, 42, 95
7, 255360, Note_off_c, 9, 42, 95
7, 255360, Note_on_c, 9, 42, 95
7, 255840, Note_off_c, 9, 42, 95
7, 255840, Note_on_c, 9, 42, 95
7, 255840, Note_on_c, 9, 36, 95
7, 256320, Note_off_c, 9, 42, 95
7, 256320, Note_off_c, 9, 36, 95
7, 256320, Note_on_c, 9, 42, 95
7, 256320, Note_on_c, 9, 38, 95
7, 256800, Note_off_c, 9, 42, 95
7, 256800, Note_off_c, 9, 38, 95
7, 256800, Note_on_c, 9, 42, 95
7, 256800, Note_on_c, 9, 36, 95
7, 257280, Note_off_c, 9, 42, 95
7, 257280, Note_off_c, 9, 36, 95
7, 257280, Note_on_c, 9, 42, 95
7, 257760, Note_off_c, 9, 42, 95
7, 257760, Note_on_c, 9, 42, 95
7, 257760, Note_on_c, 9, 36, 95
7, 258240, Note_off_c, 9, 42, 95
7, 258240, Note_on_c, 9, 42, 95
7, 258240, Note_on_c, 9, 38, 95
7, 258720, Note_off_c, 9, 36, 95
7, 258720, Note_off_c, 9, 42, 95
7, 258720, Note_off_c, 9, 38, 95
7, 258720, Note_on_c, 9, 42, 95
7, 259200, Note_off_c, 9, 42, 95
7, 259200, Note_on_c, 9, 42, 95
7, 259680, Note_off_c, 9, 42, 95
7, 259680, Note_on_c, 9, 42, 95
7, 259680, Note_on_c, 9, 36, 95
7, 260160, Note_off_c, 9, 42, 95
7, 260160, Note_off_c, 9, 36, 95
7, 260160, Note_on_c, 9, 42, 95
7, 260160, Note_on_c, 9, 38, 95
7, 260640, Note_off_c, 9, 42, 95
7, 260640, Note_off_c, 9, 38, 95
7, 260640, Note_on_c, 9, 42, 95
7, 260640, Note_on_c, 9, 36, 95
7, 261120, Note_off_c, 9, 42, 95
7, 261120, Note_off_c, 9, 36, 95
7, 261120, Note_on_c, 9, 42, 95
7, 261600, Note_off_c, 9, 42, 95
7, 261600, Note_on_c, 9, 42, 95
7, 261600, Note_on_c, 9, 36, 95
7, 262080, Note_off_c, 9, 42, 95
7, 262080, Note_on_c, 9, 42, 95
7, 262080, Note_on_c, 9, 38, 95
7, 262560, Note_off_c, 9, 36, 95
7, 262560, Note_off_c, 9, 42, 95
7, 262560, Note_off_c, 9, 38, 95
7, 262560, Note_on_c, 9, 42, 95
7, 263040, Note_off_c, 9, 42, 95
7, 263040, Note_on_c, 9, 42, 95
7, 263520, Note_off_c, 9, 42, 95
7, 263520, Note_on_c, 9, 42, 95
7, 263520, Note_on_c, 9, 36, 95
7, 264000, Note_off_c, 9, 42, 95
7, 264000, Note_off_c, 9, 36, 95
7, 264000, Note_on_c, 9, 42, 95
7, 264000, Note_on_c, 9, 38, 95
7, 264480, Note_off_c, 9, 42, 95
7, 264480, Note_off_c, 9, 38, 95
7, 264480, Note_on_c, 9, 42, 95
7, 264480, Note_on_c, 9, 36, 95
7, 264960, Note_off_c, 9, 42, 95
7, 264960, Note_off_c, 9, 36, 95
7, 264960, Note_on_c, 9, 42, 95
7, 265440, Note_off_c, 9, 42, 95
7, 265440, Note_on_c, 9, 42, 95
7, 265920, Note_off_c, 9, 42, 95
7, 265920, Note_on_c, 9, 42, 95
7, 265920, Note_on_c, 9, 38, 95
7, 265920, Note_on_c, 9, 36, 95
7, 266400, Note_off_c, 9, 42, 95
7, 266400, Note_off_c, 9, 38, 95
7, 266400, Note_on_c, 9, 42, 95
7, 266880, Note_off_c, 9, 36, 95
7, 266880, Note_off_c, 9, 42, 95
7, 266880, Note_on_c, 9, 42, 95
7, 267360, Note_off_c, 9, 42, 95
7, 267360, Note_on_c, 9, 42, 95
7, 267360, Note_on_c, 9, 36, 95
7, 267840, Note_off_c, 9, 42, 95
7, 267840, Note_off_c, 9, 36, 95
7, 267840, Note_on_c, 9, 42, 95
7, 267840, Note_on_c, 9, 38, 95
7, 267840, Note_on_c, 9, 36, 95
7, 268320, Note_off_c, 9, 42, 95
7, 268320, Note_off_c, 9, 38, 95
7, 268320, Note_off_c, 9, 36, 95
7, 268320, Note_on_c, 9, 42, 95
7, 268320, Note_on_c, 9, 36, 95
7, 268800, Note_off_c, 9, 42, 95
7, 268800, Note_off_c, 9, 36, 95
7, 268800, Note_on_c, 9, 42, 95
7, 269280, Note_off_c, 9, 42, 95
7, 269280, Note_on_c, 9, 42, 95
7, 269760, Note_off_c, 9, 42, 95
7, 269760, Note_on_c, 9, 42, 95
7, 269760, Note_on_c, 9, 38, 95
7, 269760, Note_on_c, 9, 36, 95
7, 270240, Note_off_c, 9, 42, 95
7, 270240, Note_off_c, 9, 38, 95
7, 270240, Note_on_c, 9, 42, 95
7, 270720, Note_off_c, 9, 36, 95
7, 270720, Note_off_c, 9, 42, 95
7, 270720, Note_on_c, 9, 42, 95
7, 271200, Note_off_c, 9, 42, 95
7, 271200, Note_on_c, 9, 42, 95
7, 271680, Note_off_c, 9, 42, 95
7, 271680, Note_on_c, 9, 42, 95
7, 271680, Note_on_c, 9, 38, 95
7, 271680, Note_on_c, 9, 36, 95
7, 272160, Note_off_c, 9, 42, 95
7, 272160, Note_off_c, 9, 38, 95
7, 272160, Note_on_c, 9, 42, 95
7, 272640, Note_off_c, 9, 36, 95
7, 272640, Note_off_c, 9, 42, 95
7, 272640, Note_on_c, 9, 42, 95
7, 273120, Note_off_c, 9, 42, 95
7, 273120, Note_on_c, 9, 42, 95
7, 273600, Note_off_c, 9, 42, 95
7, 273600, Note_on_c, 9, 42, 95
7, 273600, Note_on_c, 9, 36, 95
7, 274080, Note_off_c, 9, 42, 95
7, 274080, Note_on_c, 9, 42, 95
7, 274560, Note_off_c, 9, 36, 95
7, 274560, Note_off_c, 9, 42, 95
7, 274560, Note_on_c, 9, 42, 95
7, 274560, Note_on_c, 9, 36, 95
7, 275040, Note_off_c, 9, 42, 95
7, 275040, Note_off_c, 9, 36, 95
7, 275040, Note_on_c, 9, 42, 95
7, 275040, Note_on_c, 9, 36, 95
7, 275520, Note_off_c, 9, 42, 95
7, 275520, Note_off_c, 9, 36, 95
7, 275520, Note_on_c, 9, 42, 95
7, 276000, Note_off_c, 9, 42, 95
7, 276000, Note_on_c, 9, 42, 95
7, 276000, Note_on_c, 9, 36, 95
7, 276480, Note_off_c, 9, 42, 95
7, 276480, Note_off_c, 9, 36, 95
7, 276480, Note_on_c, 9, 42, 95
7, 276960, Note_off_c, 9, 42, 95
7, 276960, Note_on_c, 9, 42, 95
7, 276960, Note_on_c, 9, 36, 95
7, 277440, Note_off_c, 9, 42, 95
7, 277440, Note_on_c, 9, 42, 95
7, 277920, Note_off_c, 9, 36, 95
7, 277920, Note_off_c, 9, 42, 95
7, 277920, Note_on_c, 9, 42, 95
7, 277920, Note_on_c, 9, 36, 95
7, 278400, Note_off_c, 9, 42, 95
7, 278400, Note_off_c, 9, 36, 95
7, 278400, Note_on_c, 9, 42, 95
7, 278400, Note_on_c, 9, 36, 95
7, 278880, Note_off_c, 9, 42, 95
7, 278880, Note_off_c, 9, 36, 95
7, 278880, Note_on_c, 9, 42, 95
7, 279360, Note_off_c, 9, 42, 95
7, 279360, Note_on_c, 9, 42, 95
7, 279360, Note_on_c, 9, 36, 95
7, 279840, Note_off_c, 9, 42, 95
7, 279840, Note_on_c, 9, 42, 95
7, 280320, Note_off_c, 9, 36, 95
7, 280320, Note_off_c, 9, 42, 95
7, 280320, Note_on_c, 9, 42, 95
7, 280800, Note_off_c, 9, 42, 95
7, 280800, Note_on_c, 9, 42, 95
7, 281280, Note_off_c, 9, 42, 95
7, 281280, Note_on_c, 9, 42, 95
7, 281280, Note_on_c, 9, 36, 95
7, 281760, Note_off_c, 9, 42, 95
7, 281760, Note_on_c, 9, 42, 95
7, 282240, Note_off_c, 9, 36, 95
7, 282240, Note_off_c, 9, 42, 95
7, 282240, Note_on_c, 9, 42, 95
7, 282240, Note_on_c, 9, 36, 95
7, 282720, Note_off_c, 9, 42, 95
7, 282720, Note_off_c, 9, 36, 95
7, 282720, Note_on_c, 9, 42, 95
7, 282720, Note_on_c, 9, 36, 95
7, 283200, Note_off_c, 9, 42, 95
7, 283200, Note_off_c, 9, 36, 95
7, 283200, Note_on_c, 9, 42, 95
7, 283680, Note_off_c, 9, 42, 95
7, 283680, Note_on_c, 9, 42, 95
7, 283680, Note_on_c, 9, 36, 95
7, 284160, Note_off_c, 9, 42, 95
7, 284160, Note_off_c, 9, 36, 95
7, 284160, Note_on_c, 9, 42, 95
7, 284640, Note_off_c, 9, 42, 95
7, 284640, Note_on_c, 9, 42, 95
7, 285120, Note_off_c, 9, 42, 95
7, 285120, Note_on_c, 9, 42, 95
7, 285120, Note_on_c, 9, 36, 95
7, 285600, Note_off_c, 9, 42, 95
7, 285600, Note_on_c, 9, 42, 95
7, 286080, Note_off_c, 9, 36, 95
7, 286080, Note_off_c, 9, 42, 95
7, 286080, Note_on_c, 9, 42, 95
7, 286560, Note_off_c, 9, 42, 95
7, 286560, Note_on_c, 9, 42, 95
7, 287040, Note_off_c, 9, 42, 95
7, 287040, Note_on_c, 9, 42, 95
7, 287040, Note_on_c, 9, 36, 95
7, 287520, Note_off_c, 9, 42, 95
7, 287520, Note_on_c, 9, 42, 95
7, 288000, Note_off_c, 9, 36, 95
7, 288000, Note_off_c, 9, 42, 95
7, 288000, Note_on_c, 9, 42, 95
7, 288480, Note_off_c, 9, 42, 95
7, 288480, Note_on_c, 9, 42, 95
7, 288960, Note_off_c, 9, 42, 95
7, 288960, Note_on_c, 9, 42, 95
7, 288960, Note_on_c, 9, 36, 95
7, 289440, Note_off_c, 9, 42, 95
7, 289440, Note_on_c, 9, 42, 95
7, 289920, Note_off_c, 9, 36, 95
7, 289920, Note_off_c, 9, 42, 95
7, 289920, Note_on_c, 9, 42, 95
7, 290400, Note_off_c, 9, 42, 95
7, 290400, Note_on_c, 9, 42, 95
7, 290400, Note_on_c, 9, 36, 95
7, 290880, Note_off_c, 9, 42, 95
7, 290880, Note_off_c, 9, 36, 95
7, 290880, Note_on_c, 9, 42, 95
7, 291360, Note_off_c, 9, 42, 95
7, 291360, Note_on_c, 9, 42, 95
7, 291360, Note_on_c, 9, 36, 95
7, 291840, Note_off_c, 9, 42, 95
7, 291840, Note_off_c, 9, 36, 95
7, 291840, Note_on_c, 9, 42, 95
7, 292320, Note_off_c, 9, 42, 95
7, 292320, Note_on_c, 9, 42, 95
7, 292800, Note_off_c, 9, 42, 95
7, 292800, Note_on_c, 9, 42, 95
7, 292800, Note_on_c, 9, 36, 95
7, 293280, Note_off_c, 9, 42, 95
7, 293280, Note_on_c, 9, 42, 95
7, 293760, Note_off_c, 9, 36, 95
7, 293760, Note_off_c, 9, 42, 95
7, 293760, Note_on_c, 9, 42, 95
7, 294240, Note_off_c, 9, 42, 95
7, 294240, Note_on_c, 9, 42, 95
7, 294720, Note_off_c, 9, 42, 95
7, 294720, Note_on_c, 9, 42, 95
7, 294720, Note_on_c, 9, 36, 95
7, 295200, Note_off_c, 9, 42, 95
7, 295200, Note_on_c, 9, 42, 95
7, 295680, Note_off_c, 9, 36, 95
7, 295680, Note_off_c, 9, 42, 95
7, 295680, Note_on_c, 9, 42, 95
7, 296160, Note_off_c, 9, 42, 95
7, 296160, Note_on_c, 9, 42, 95
7, 296640, Note_off_c, 9, 42, 95
7, 296640, Note_on_c, 9, 42, 95
7, 296640, Note_on_c, 9, 36, 95
7, 297120, Note_off_c, 9, 42, 95
7, 297120, Note_on_c, 9, 42, 95
7, 297600, Note_off_c, 9, 36, 95
7, 297600, Note_off_c, 9, 42, 95
7, 297600, Note_on_c, 9, 42, 95
7, 298080, Note_off_c, 9, 42, 95
7, 298080, Note_on_c, 9, 42, 95
7, 298080, Note_on_c, 9, 36, 95
7, 298560, Note_off_c, 9, 42, 95
7, 298560, Note_off_c, 9, 36, 95
7, 298560, Note_on_c, 9, 42, 95
7, 299040, Note_off_c, 9, 42, 95
7, 299040, Note_on_c, 9, 42, 95
7, 299040, Note_on_c, 9, 36, 95
7, 299520, Note_off_c, 9, 42, 95
7, 299520, Note_off_c, 9, 36, 95
7, 299520, Note_on_c, 9, 42, 95
7, 300000, Note_off_c, 9, 42, 95
7, 300000, Note_on_c, 9, 42, 95
7, 300480, Note_off_c, 9, 42, 95
7, 300480, Note_on_c, 9, 42, 95
7, 300480, Note_on_c, 9, 36, 95
7, 300960, Note_off_c, 9, 42, 95
7, 300960, Note_on_c, 9, 42, 95
7, 301440, Note_off_c, 9, 36, 95
7, 301440, Note_off_c, 9, 42, 95
7, 301440, Note_on_c, 9, 42, 95
7, 301920, Note_off_c, 9, 42, 95
7, 301920, Note_on_c, 9, 42, 95
7, 302400, Note_off_c, 9, 42, 95
7, 302400, Note_on_c, 9, 42, 95
7, 302400, Note_on_c, 9, 36, 95
7, 302880, Note_off_c, 9, 42, 95
7, 302880, Note_on_c, 9, 42, 95
7, 303360, Note_off_c, 9, 36, 95
7, 303360, Note_off_c, 9, 42, 95
7, 303360, Note_on_c, 9, 42, 95
7, 303840, Note_off_c, 9, 42, 95
7, 303840, Note_on_c, 9, 42, 95
7, 304320, Note_off_c, 9, 42, 95
7, 304320, Note_on_c, 9, 42, 95
7, 304320, Note_on_c, 9, 36, 95
7, 304800, Note_off_c, 9, 42, 95
7, 304800, Note_on_c, 9, 42, 95
7, 305280, Note_off_c, 9, 36, 95
7, 305280, Note_off_c, 9, 42, 95
7, 305280, Note_on_c, 9, 42, 95
7, 305760, Note_off_c, 9, 42, 95
7, 305760, Note_on_c, 9, 42, 95
7, 305760, Note_on_c, 9, 36, 95
7, 306240, Note_off_c, 9, 42, 95
7, 306240, Note_off_c, 9, 36, 95
7, 306240, Note_on_c, 9, 42, 95
7, 306720, Note_off_c, 9, 42, 95
7, 306720, Note_on_c, 9, 42, 95
7, 306720, Note_on_c, 9, 36, 95
7, 307200, Note_off_c, 9, 42, 95
7, 307200, Note_off_c, 9, 36, 95
7, 307200, Note_on_c, 9, 42, 95
7, 307680, Note_off_c, 9, 42, 95
7, 307680, Note_on_c, 9, 42, 95
7, 308160, Note_off_c, 9, 42, 95
7, 308160, Note_on_c, 9, 42, 95
7, 308160, Note_on_c, 9, 36, 95
7, 308640, Note_off_c, 9, 42, 95
7, 308640, Note_on_c, 9, 42, 95
7, 309120, Note_off_c, 9, 36, 95
7, 309120, Note_off_c, 9, 42, 95
7, 309120, Note_on_c, 9, 42, 95
7, 309600, Note_off_c, 9, 42, 95
7, 309600, Note_on_c, 9, 47, 95
7, 310080, Note_off_c, 9, 47, 95
7, 310080, Note_on_c, 9, 47, 95
7, 310320, Note_off_c, 9, 47, 95
7, 310320, Note_on_c, 9, 47, 95
7, 310560, Note_off_c, 9, 47, 95
7, 310560, Note_on_c, 9, 47, 95
7, 311040, Note_off_c, 9, 47, 95
7, 311040, Note_on_c, 9, 42, 95
7, 311520, Note_off_c, 9, 42, 95
7, 311520, Note_on_c, 9, 42, 95
7, 312000, Note_off_c, 9, 42, 95
7, 312000, Note_on_c, 9, 42, 95
7, 312000, Note_on_c, 9, 36, 95
7, 312480, Note_off_c, 9, 42, 95
7, 312480, Note_on_c, 9, 42, 95
7, 312960, Note_off_c, 9, 36, 95
7, 312960, Note_off_c, 9, 42, 95
7, 312960, Note_on_c, 9, 42, 95
7, 313440, Note_off_c, 9, 42, 95
7, 313440, Note_on_c, 9, 42, 95
7, 313440, Note_on_c, 9, 36, 95
7, 313920, Note_off_c, 9, 42, 95
7, 313920, Note_off_c, 9, 36, 95
7, 313920, Note_on_c, 9, 42, 95
7, 314400, Note_off_c, 9, 42, 95
7, 314400, Note_on_c, 9, 42, 95
7, 314400, Note_on_c, 9, 36, 95
7, 314880, Note_off_c, 9, 42, 95
7, 314880, Note_off_c, 9, 36, 95
7, 314880, Note_on_c, 9, 42, 95
7, 315360, Note_off_c, 9, 42, 95
7, 315360, Note_on_c, 9, 42, 95
7, 315840, Note_off_c, 9, 42, 95
7, 315840, Note_on_c, 9, 42, 95
7, 315840, Note_on_c, 9, 36, 95
7, 316320, Note_off_c, 9, 42, 95
7, 316320, Note_on_c, 9, 42, 95
7, 316800, Note_off_c, 9, 36, 95
7, 316800, Note_off_c, 9, 42, 95
7, 316800, Note_on_c, 9, 42, 95
7, 317280, Note_off_c, 9, 42, 95
7, 317280, Note_on_c, 9, 42, 95
7, 317280, Note_on_c, 9, 36, 95
7, 317760, Note_off_c, 9, 42, 95
7, 317760, Note_off_c, 9, 36, 95
7, 317760, Note_on_c, 9, 42, 95
7, 318240, Note_off_c, 9, 42, 95
7, 318240, Note_on_c, 9, 42, 95
7, 318240, Note_on_c, 9, 36, 95
7, 318720, Note_off_c, 9, 42, 95
7, 318720, Note_off_c, 9, 36, 95
7, 318720, Note_on_c, 9, 42, 95
7, 319200, Note_off_c, 9, 42, 95
7, 319200, Note_on_c, 9, 42, 95
7, 319680, Note_off_c, 9, 42, 95
7, 319680, Note_on_c, 9, 42, 95
7, 319680, Note_on_c, 9, 36, 95
7, 320160, Note_off_c, 9, 42, 95
7, 320160, Note_on_c, 9, 42, 95
7, 320640, Note_off_c, 9, 36, 95
7, 320640, Note_off_c, 9, 42, 95
7, 320640, Note_on_c, 9, 42, 95
7, 321120, Note_off_c, 9, 42, 95
7, 321120, Note_on_c, 9, 42, 95
7, 321120, Note_on_c, 9, 36, 95
7, 321600, Note_off_c, 9, 42, 95
7, 321600, Note_off_c, 9, 36, 95
7, 321600, Note_on_c, 9, 42, 95
7, 322080, Note_off_c, 9, 42, 95
7, 322080, Note_on_c, 9, 42, 95
7, 322080, Note_on_c, 9, 36, 95
7, 322560, Note_off_c, 9, 42, 95
7, 322560, Note_off_c, 9, 36, 95
7, 322560, Note_on_c, 9, 42, 95
7, 323040, Note_off_c, 9, 42, 95
7, 323040, Note_on_c, 9, 42, 95
7, 323520, Note_off_c, 9, 42, 95
7, 323520, Note_on_c, 9, 42, 95
7, 323520, Note_on_c, 9, 36, 95
7, 324000, Note_off_c, 9, 42, 95
7, 324000, Note_on_c, 9, 42, 95
7, 324480, Note_off_c, 9, 36, 95
7, 324480, Note_off_c, 9, 42, 95
7, 324480, Note_on_c, 9, 42, 95
7, 324960, Note_off_c, 9, 42, 95
7, 324960, Note_on_c, 9, 42, 95
7, 324960, Note_on_c, 9, 36, 95
7, 325440, Note_off_c, 9, 42, 95
7, 325440, Note_off_c, 9, 36, 95
7, 325440, Note_on_c, 9, 42, 95
7, 325920, Note_off_c, 9, 42, 95
7, 325920, Note_on_c, 9, 42, 95
7, 325920, Note_on_c, 9, 36, 95
7, 326400, Note_off_c, 9, 42, 95
7, 326400, Note_off_c, 9, 36, 95
7, 326400, Note_on_c, 9, 42, 95
7, 326880, Note_off_c, 9, 42, 95
7, 326880, Note_on_c, 9, 42, 95
7, 327360, Note_off_c, 9, 42, 95
7, 327360, Note_on_c, 9, 42, 95
7, 327360, Note_on_c, 9, 36, 95
7, 327840, Note_off_c, 9, 42, 95
7, 327840, Note_on_c, 9, 42, 95
7, 328320, Note_off_c, 9, 36, 95
7, 328320, Note_off_c, 9, 42, 95
7, 328320, Note_on_c, 9, 42, 95
7, 328800, Note_off_c, 9, 42, 95
7, 328800, Note_on_c, 9, 42, 95
7, 328800, Note_on_c, 9, 36, 95
7, 329280, Note_off_c, 9, 42, 95
7, 329280, Note_off_c, 9, 36, 95
7, 329280, Note_on_c, 9, 42, 95
7, 329760, Note_off_c, 9, 42, 95
7, 329760, Note_on_c, 9, 42, 95
7, 329760, Note_on_c, 9, 36, 95
7, 330240, Note_off_c, 9, 42, 95
7, 330240, Note_off_c, 9, 36, 95
7, 330240, Note_on_c, 9, 42, 95
7, 330720, Note_off_c, 9, 42, 95
7, 330720, Note_on_c, 9, 42, 95
7, 331200, Note_off_c, 9, 42, 95
7, 331200, Note_on_c, 9, 42, 95
7, 331200, Note_on_c, 9, 36, 95
7, 331680, Note_off_c, 9, 42, 95
7, 331680, Note_on_c, 9, 42, 95
7, 332160, Note_off_c, 9, 36, 95
7, 332160, Note_off_c, 9, 42, 95
7, 332160, Note_on_c, 9, 42, 95
7, 332640, Note_off_c, 9, 42, 95
7, 332640, Note_on_c, 9, 42, 95
7, 332640, Note_on_c, 9, 36, 95
7, 333120, Note_off_c, 9, 42, 95
7, 333120, Note_off_c, 9, 36, 95
7, 333120, Note_on_c, 9, 42, 95
7, 333600, Note_off_c, 9, 42, 95
7, 333600, Note_on_c, 9, 42, 95
7, 333600, Note_on_c, 9, 36, 95
7, 334080, Note_off_c, 9, 42, 95
7, 334080, Note_off_c, 9, 36, 95
7, 334080, Note_on_c, 9, 42, 95
7, 334560, Note_off_c, 9, 42, 95
7, 334560, Note_on_c, 9, 42, 95
7, 335040, Note_off_c, 9, 42, 95
7, 335040, Note_on_c, 9, 42, 95
7, 335040, Note_on_c, 9, 36, 95
7, 335520, Note_off_c, 9, 42, 95
7, 335520, Note_on_c, 9, 42, 95
7, 336000, Note_off_c, 9, 36, 95
7, 336000, Note_off_c, 9, 42, 95
7, 336000, Note_on_c, 9, 42, 95
7, 336480, Note_off_c, 9, 42, 95
7, 336480, Note_on_c, 9, 42, 95
7, 336480, Note_on_c, 9, 36, 95
7, 336960, Note_off_c, 9, 42, 95
7, 336960, Note_off_c, 9, 36, 95
7, 336960, Note_on_c, 9, 42, 95
7, 337440, Note_off_c, 9, 42, 95
7, 337440, Note_on_c, 9, 42, 95
7, 337440, Note_on_c, 9, 36, 95
7, 337920, Note_off_c, 9, 42, 95
7, 337920, Note_off_c, 9, 36, 95
7, 337920, Note_on_c, 9, 42, 95
7, 338400, Note_off_c, 9, 42, 95
7, 338400, Note_on_c, 9, 42, 95
7, 338880, Note_off_c, 9, 42, 95
7, 338880, Note_on_c, 9, 42, 95
7, 338880, Note_on_c, 9, 36, 95
7, 339360, Note_off_c, 9, 42, 95
7, 339360, Note_on_c, 9, 42, 95
7, 339840, Note_off_c, 9, 36, 95
7, 339840, Note_off_c, 9, 42, 95
7, 339840, Note_on_c, 9, 42, 95
7, 340320, Note_off_c, 9, 42, 95
7, 340320, Note_on_c, 9, 42, 95
7, 340320, Note_on_c, 9, 36, 95
7, 340800, Note_off_c, 9, 42, 95
7, 340800, Note_off_c, 9, 36, 95
7, 340800, Note_on_c, 9, 42, 95
7, 341280, Note_off_c, 9, 42, 95
7, 341280, Note_on_c, 9, 42, 95
7, 341280, Note_on_c, 9, 36, 95
7, 341760, Note_off_c, 9, 42, 95
7, 341760, Note_off_c, 9, 36, 95
7, 341760, Note_on_c, 9, 42, 95
7, 342240, Note_off_c, 9, 42, 95
7, 342240, Note_on_c, 9, 42, 95
7, 342720, Note_off_c, 9, 42, 95
7, 342720, Note_on_c, 9, 42, 95
7, 342720, Note_on_c, 9, 36, 95
7, 343200, Note_off_c, 9, 42, 95
7, 343200, Note_on_c, 9, 42, 95
7, 343680, Note_off_c, 9, 36, 95
7, 343680, Note_off_c, 9, 42, 95
7, 343680, Note_on_c, 9, 42, 95
7, 344160, Note_off_c, 9, 42, 95
7, 344160, Note_on_c, 9, 42, 95
7, 344160, Note_on_c, 9, 36, 95
7, 344640, Note_off_c, 9, 42, 95
7, 344640, Note_off_c, 9, 36, 95
7, 344640, Note_on_c, 9, 42, 95
7, 345120, Note_off_c, 9, 42, 95
7, 345120, Note_on_c, 9, 42, 95
7, 345120, Note_on_c, 9, 36, 95
7, 345600, Note_off_c, 9, 42, 95
7, 345600, Note_off_c, 9, 36, 95
7, 345600, Note_on_c, 9, 42, 95
7, 346080, Note_off_c, 9, 42, 95
7, 346080, Note_on_c, 9, 42, 95
7, 346560, Note_off_c, 9, 42, 95
7, 346560, Note_on_c, 9, 42, 95
7, 346560, Note_on_c, 9, 36, 95
7, 347040, Note_off_c, 9, 42, 95
7, 347040, Note_on_c, 9, 42, 95
7, 347520, Note_off_c, 9, 36, 95
7, 347520, Note_off_c, 9, 42, 95
7, 347520, Note_on_c, 9, 42, 95
7, 348000, Note_off_c, 9, 42, 95
7, 348000, Note_on_c, 9, 42, 95
7, 348000, Note_on_c, 9, 36, 95
7, 348480, Note_off_c, 9, 42, 95
7, 348480, Note_off_c, 9, 36, 95
7, 348480, Note_on_c, 9, 42, 95
7, 348960, Note_off_c, 9, 42, 95
7, 348960, Note_on_c, 9, 42, 95
7, 348960, Note_on_c, 9, 36, 95
7, 349440, Note_off_c, 9, 42, 95
7, 349440, Note_off_c, 9, 36, 95
7, 349440, Note_on_c, 9, 42, 95
7, 349920, Note_off_c, 9, 42, 95
7, 349920, Note_on_c, 9, 42, 95
7, 350400, Note_off_c, 9, 42, 95
7, 350400, Note_on_c, 9, 42, 95
7, 350400, Note_on_c, 9, 36, 95
7, 350880, Note_off_c, 9, 42, 95
7, 350880, Note_on_c, 9, 42, 95
7, 351360, Note_off_c, 9, 36, 95
7, 351360, Note_off_c, 9, 42, 95
7, 351360, Note_on_c, 9, 42, 95
7, 351840, Note_off_c, 9, 42, 95
7, 351840, Note_on_c, 9, 42, 95
7, 351840, Note_on_c, 9, 36, 95
7, 352320, Note_off_c, 9, 42, 95
7, 352320, Note_off_c, 9, 36, 95
7, 352320, Note_on_c, 9, 42, 95
7, 352800, Note_off_c, 9, 42, 95
7, 352800, Note_on_c, 9, 42, 95
7, 352800, Note_on_c, 9, 36, 95
7, 353280, Note_off_c, 9, 42, 95
7, 353280, Note_off_c, 9, 36, 95
7, 353280, Note_on_c, 9, 42, 95
7, 353760, Note_off_c, 9, 42, 95
7, 353760, Note_on_c, 9, 42, 95
7, 354240, Note_off_c, 9, 42, 95
7, 354240, Note_on_c, 9, 42, 95
7, 354240, Note_on_c, 9, 36, 95
7, 354720, Note_off_c, 9, 42, 95
7, 354720, Note_on_c, 9, 42, 95
7, 355200, Note_off_c, 9, 36, 95
7, 355200, Note_off_c, 9, 42, 95
7, 355200, Note_on_c, 9, 42, 95
7, 355680, Note_off_c, 9, 42, 95
7, 355680, Note_on_c, 9, 42, 95
7, 355680, Note_on_c, 9, 36, 95
7, 356160, Note_off_c, 9, 42, 95
7, 356160, Note_off_c, 9, 36, 95
7, 356160, Note_on_c, 9, 42, 95
7, 356640, Note_off_c, 9, 42, 95
7, 356640, Note_on_c, 9, 42, 95
7, 356640, Note_on_c, 9, 36, 95
7, 357120, Note_off_c, 9, 42, 95
7, 357120, Note_off_c, 9, 36, 95
7, 357120, Note_on_c, 9, 42, 95
7, 357600, Note_off_c, 9, 42, 95
7, 357600, Note_on_c, 9, 42, 95
7, 358080, Note_off_c, 9, 42, 95
7, 358080, Note_on_c, 9, 42, 95
7, 358080, Note_on_c, 9, 36, 95
7, 358560, Note_off_c, 9, 42, 95
7, 358560, Note_on_c, 9, 42, 95
7, 359040, Note_off_c, 9, 36, 95
7, 359040, Note_off_c, 9, 42, 95
7, 359040, Note_on_c, 9, 42, 95
7, 359520, Note_off_c, 9, 42, 95
7, 359520, Note_on_c, 9, 42, 95
7, 359520, Note_on_c, 9, 36, 95
7, 360000, Note_off_c, 9, 42, 95
7, 360000, Note_off_c, 9, 36, 95
7, 360000, Note_on_c, 9, 42, 95
7, 360480, Note_off_c, 9, 42, 95
7, 360480, Note_on_c, 9, 42, 95
7, 360480, Note_on_c, 9, 36, 95
7, 360960, Note_off_c, 9, 42, 95
7, 360960, Note_off_c, 9, 36, 95
7, 360960, Note_on_c, 9, 42, 95
7, 361440, Note_off_c, 9, 42, 95
7, 361440, Note_on_c, 9, 42, 95
7, 361920, Note_off_c, 9, 42, 95
7, 361920, Note_on_c, 9, 42, 95
7, 361920, Note_on_c, 9, 36, 95
7, 362400, Note_off_c, 9, 42, 95
7, 362400, Note_on_c, 9, 42, 95
7, 362880, Note_off_c, 9, 36, 95
7, 362880, Note_off_c, 9, 42, 95
7, 362880, Note_on_c, 9, 42, 95
7, 363360, Note_off_c, 9, 42, 95
7, 363360, Note_on_c, 9, 42, 95
7, 363360, Note_on_c, 9, 36, 95
7, 363840, Note_off_c, 9, 42, 95
7, 363840, Note_off_c, 9, 36, 95
7, 363840, Note_on_c, 9, 42, 95
7, 364320, Note_off_c, 9, 42, 95
7, 364320, Note_on_c, 9, 42, 95
7, 364320, Note_on_c, 9, 36, 95
7, 364800, Note_off_c, 9, 42, 95
7, 364800, Note_off_c, 9, 36, 95
7, 364800, End_track
0, 0, End_of_file
