0, 0, Header, 1, 8, 120
1, 0, Start_track
1, 0, Time_signature, 4, 2, 24, 8
1, 0, Key_signature, 4, "major"
1, 0, Tempo, 600000
1, 0, End_track
2, 0, Start_track
2, 0, MIDI_port, 0
2, 0, Title_t, "Take Me To The River"
2, 0, End_track
3, 0, Start_track
3, 0, MIDI_port, 0
3, 0, Title_t, "Talking Heads"
3, 0, End_track
4, 0, Start_track
4, 0, MIDI_port, 0
4, 0, Title_t, "vocals"
4, 0, Control_c, 2, 7, 120
4, 1920, Note_on_c, 2, 52, 100
4, 1980, Note_on_c, 2, 64, 100
4, 1980, Note_on_c, 2, 52, 0
4, 2040, Note_on_c, 2, 64, 100
4, 2040, Note_on_c, 2, 64, 0
4, 2100, Note_on_c, 2, 64, 100
4, 2100, Note_on_c, 2, 64, 0
4, 2160, Note_on_c, 2, 64, 0
4, 2340, Note_on_c, 2, 52, 100
4, 2400, Note_on_c, 2, 62, 100
4, 2400, Note_on_c, 2, 52, 0
4, 2430, Note_on_c, 2, 62, 100
4, 2430, Note_on_c, 2, 62, 0
4, 2460, Note_on_c, 2, 62, 100
4, 2460, Note_on_c, 2, 62, 0
4, 2520, Note_on_c, 2, 62, 100
4, 2520, Note_on_c, 2, 62, 0
4, 2580, Note_on_c, 2, 64, 100
4, 2580, Note_on_c, 2, 62, 0
4, 2640, Note_on_c, 2, 64, 0
4, 7680, Note_on_c, 2, 67, 100
4, 7920, Note_on_c, 2, 66, 100
4, 7920, Note_on_c, 2, 67, 0
4, 7980, Note_on_c, 2, 67, 100
4, 7980, Note_on_c, 2, 66, 0
4, 8040, Note_on_c, 2, 66, 100
4, 8040, Note_on_c, 2, 67, 0
4, 8100, Note_on_c, 2, 64, 100
4, 8100, Note_on_c, 2, 66, 0
4, 8160, Note_on_c, 2, 64, 100
4, 8160, Note_on_c, 2, 64, 0
4, 8280, Note_on_c, 2, 61, 100
4, 8280, Note_on_c, 2, 64, 0
4, 8340, Note_on_c, 2, 59, 100
4, 8340, Note_on_c, 2, 61, 0
4, 8400, Note_on_c, 2, 59, 0
4, 8880, Note_on_c, 2, 66, 100
4, 8940, Note_on_c, 2, 67, 100
4, 8940, Note_on_c, 2, 66, 0
4, 9000, Note_on_c, 2, 66, 100
4, 9000, Note_on_c, 2, 67, 0
4, 9060, Note_on_c, 2, 64, 100
4, 9060, Note_on_c, 2, 66, 0
4, 9120, Note_on_c, 2, 64, 100
4, 9120, Note_on_c, 2, 64, 0
4, 9240, Note_on_c, 2, 61, 100
4, 9240, Note_on_c, 2, 64, 0
4, 9300, Note_on_c, 2, 59, 100
4, 9300, Note_on_c, 2, 61, 0
4, 9360, Note_on_c, 2, 59, 0
4, 9840, Note_on_c, 2, 66, 100
4, 9900, Note_on_c, 2, 67, 100
4, 9900, Note_on_c, 2, 66, 0
4, 9960, Note_on_c, 2, 66, 100
4, 9960, Note_on_c, 2, 67, 0
4, 10020, Note_on_c, 2, 64, 100
4, 10020, Note_on_c, 2, 66, 0
4, 10080, Note_on_c, 2, 64, 100
4, 10080, Note_on_c, 2, 64, 0
4, 10200, Note_on_c, 2, 61, 100
4, 10200, Note_on_c, 2, 64, 0
4, 10260, Note_on_c, 2, 59, 100
4, 10260, Note_on_c, 2, 61, 0
4, 10320, Note_on_c, 2, 59, 0
4, 10800, Note_on_c, 2, 66, 100
4, 10860, Note_on_c, 2, 67, 100
4, 10860, Note_on_c, 2, 66, 0
4, 10920, Note_on_c, 2, 66, 100
4, 10920, Note_on_c, 2, 67, 0
4, 10980, Note_on_c, 2, 64, 100
4, 10980, Note_on_c, 2, 66, 0
4, 11040, Note_on_c, 2, 64, 100
4, 11040, Note_on_c, 2, 64, 0
4, 11160, Note_on_c, 2, 61, 100
4, 11160, Note_on_c, 2, 64, 0
4, 11220, Note_on_c, 2, 59, 100
4, 11220, Note_on_c, 2, 61, 0
4, 11280, Note_on_c, 2, 67, 100
4, 11280, Note_on_c, 2, 59, 0
4, 11340, Note_on_c, 2, 66, 100
4, 11340, Note_on_c, 2, 67, 0
4, 11400, Note_on_c, 2, 64, 100
4, 11400, Note_on_c, 2, 66, 0
4, 11460, Note_on_c, 2, 64, 100
4, 11460, Note_on_c, 2, 64, 0
4, 11520, Note_on_c, 2, 64, 100
4, 11520, Note_on_c, 2, 64, 0
4, 11640, Note_on_c, 2, 64, 0
4, 11760, Note_on_c, 2, 67, 100
4, 11820, Note_on_c, 2, 66, 100
4, 11820, Note_on_c, 2, 67, 0
4, 11880, Note_on_c, 2, 64, 100
4, 11880, Note_on_c, 2, 66, 0
4, 11940, Note_on_c, 2, 76, 100
4, 11940, Note_on_c, 2, 64, 0
4, 12000, Note_on_c, 2, 76, 100
4, 12000, Note_on_c, 2, 76, 0
4, 12360, Note_on_c, 2, 76, 0
4, 12360, End_track
5, 0, Start_track
5, 0, MIDI_port, 0
5, 0, Title_t, "organ"
5, 0, Control_c, 4, 7, 90
5, 0, Note_on_c, 4, 64, 100
5, 0, Note_on_c, 4, 71, 100
5, 60, Note_on_c, 4, 64, 100
5, 60, Note_on_c, 4, 71, 100
5, 60, Note_on_c, 4, 71, 0
5, 60, Note_on_c, 4, 64, 0
5, 120, Note_on_c, 4, 66, 100
5, 120, Note_on_c, 4, 73, 100
5, 120, Note_on_c, 4, 64, 0
5, 120, Note_on_c, 4, 71, 0
5, 180, Note_on_c, 4, 66, 0
5, 180, Note_on_c, 4, 73, 0
5, 240, Note_on_c, 4, 67, 100
5, 240, Note_on_c, 4, 74, 100
5, 300, Note_on_c, 4, 74, 0
5, 300, Note_on_c, 4, 67, 0
5, 420, Note_on_c, 4, 64, 100
5, 420, Note_on_c, 4, 71, 100
5, 480, Note_on_c, 4, 64, 100
5, 480, Note_on_c, 4, 71, 100
5, 480, Note_on_c, 4, 71, 0
5, 480, Note_on_c, 4, 64, 0
5, 540, Note_on_c, 4, 64, 100
5, 540, Note_on_c, 4, 71, 100
5, 540, Note_on_c, 4, 64, 0
5, 540, Note_on_c, 4, 71, 0
5, 600, Note_on_c, 4, 66, 100
5, 600, Note_on_c, 4, 73, 100
5, 600, Note_on_c, 4, 64, 0
5, 600, Note_on_c, 4, 71, 0
5, 660, Note_on_c, 4, 66, 0
5, 660, Note_on_c, 4, 73, 0
5, 720, Note_on_c, 4, 67, 100
5, 720, Note_on_c, 4, 74, 100
5, 780, Note_on_c, 4, 74, 0
5, 780, Note_on_c, 4, 67, 0
5, 840, Note_on_c, 4, 66, 100
5, 840, Note_on_c, 4, 73, 100
5, 900, Note_on_c, 4, 64, 100
5, 900, Note_on_c, 4, 71, 100
5, 900, Note_on_c, 4, 73, 0
5, 900, Note_on_c, 4, 66, 0
5, 960, Note_on_c, 4, 64, 100
5, 960, Note_on_c, 4, 71, 100
5, 960, Note_on_c, 4, 64, 0
5, 960, Note_on_c, 4, 71, 0
5, 1020, Note_on_c, 4, 64, 100
5, 1020, Note_on_c, 4, 71, 100
5, 1020, Note_on_c, 4, 64, 0
5, 1020, Note_on_c, 4, 71, 0
5, 1080, Note_on_c, 4, 66, 100
5, 1080, Note_on_c, 4, 73, 100
5, 1080, Note_on_c, 4, 64, 0
5, 1080, Note_on_c, 4, 71, 0
5, 1140, Note_on_c, 4, 66, 0
5, 1140, Note_on_c, 4, 73, 0
5, 1200, Note_on_c, 4, 67, 100
5, 1200, Note_on_c, 4, 74, 100
5, 1260, Note_on_c, 4, 74, 0
5, 1260, Note_on_c, 4, 67, 0
5, 1380, Note_on_c, 4, 64, 100
5, 1380, Note_on_c, 4, 71, 100
5, 1440, Note_on_c, 4, 64, 100
5, 1440, Note_on_c, 4, 71, 100
5, 1440, Note_on_c, 4, 71, 0
5, 1440, Note_on_c, 4, 64, 0
5, 1500, Note_on_c, 4, 64, 100
5, 1500, Note_on_c, 4, 71, 100
5, 1500, Note_on_c, 4, 64, 0
5, 1500, Note_on_c, 4, 71, 0
5, 1560, Note_on_c, 4, 66, 100
5, 1560, Note_on_c, 4, 73, 100
5, 1560, Note_on_c, 4, 64, 0
5, 1560, Note_on_c, 4, 71, 0
5, 1620, Note_on_c, 4, 66, 0
5, 1620, Note_on_c, 4, 73, 0
5, 1680, Note_on_c, 4, 74, 100
5, 1680, Note_on_c, 4, 66, 100
5, 1680, Note_on_c, 4, 64, 100
5, 1680, Note_on_c, 4, 69, 100
5, 1800, Note_on_c, 4, 61, 100
5, 1800, Note_on_c, 4, 64, 100
5, 1800, Note_on_c, 4, 69, 100
5, 1800, Note_on_c, 4, 73, 100
5, 1800, Note_on_c, 4, 69, 0
5, 1800, Note_on_c, 4, 64, 0
5, 1800, Note_on_c, 4, 74, 0
5, 1800, Note_on_c, 4, 66, 0
5, 1920, Note_on_c, 4, 64, 100
5, 1920, Note_on_c, 4, 71, 100
5, 1920, Note_on_c, 4, 61, 0
5, 1920, Note_on_c, 4, 69, 0
5, 1920, Note_on_c, 4, 73, 0
5, 1920, Note_on_c, 4, 64, 0
5, 1980, Note_on_c, 4, 64, 100
5, 1980, Note_on_c, 4, 71, 100
5, 1980, Note_on_c, 4, 71, 0
5, 1980, Note_on_c, 4, 64, 0
5, 2040, Note_on_c, 4, 66, 100
5, 2040, Note_on_c, 4, 73, 100
5, 2040, Note_on_c, 4, 64, 0
5, 2040, Note_on_c, 4, 71, 0
5, 2100, Note_on_c, 4, 66, 0
5, 2100, Note_on_c, 4, 73, 0
5, 2160, Note_on_c, 4, 67, 100
5, 2160, Note_on_c, 4, 74, 100
5, 2220, Note_on_c, 4, 74, 0
5, 2220, Note_on_c, 4, 67, 0
5, 2340, Note_on_c, 4, 64, 100
5, 2340, Note_on_c, 4, 71, 100
5, 2400, Note_on_c, 4, 64, 100
5, 2400, Note_on_c, 4, 71, 100
5, 2400, Note_on_c, 4, 71, 0
5, 2400, Note_on_c, 4, 64, 0
5, 2460, Note_on_c, 4, 64, 100
5, 2460, Note_on_c, 4, 71, 100
5, 2460, Note_on_c, 4, 64, 0
5, 2460, Note_on_c, 4, 71, 0
5, 2520, Note_on_c, 4, 66, 100
5, 2520, Note_on_c, 4, 73, 100
5, 2520, Note_on_c, 4, 64, 0
5, 2520, Note_on_c, 4, 71, 0
5, 2580, Note_on_c, 4, 66, 0
5, 2580, Note_on_c, 4, 73, 0
5, 2640, Note_on_c, 4, 74, 100
5, 2640, Note_on_c, 4, 66, 100
5, 2640, Note_on_c, 4, 64, 100
5, 2640, Note_on_c, 4, 69, 100
5, 2760, Note_on_c, 4, 61, 100
5, 2760, Note_on_c, 4, 64, 100
5, 2760, Note_on_c, 4, 69, 100
5, 2760, Note_on_c, 4, 73, 100
5, 2760, Note_on_c, 4, 69, 0
5, 2760, Note_on_c, 4, 64, 0
5, 2760, Note_on_c, 4, 74, 0
5, 2760, Note_on_c, 4, 66, 0
5, 2880, Note_on_c, 4, 64, 100
5, 2880, Note_on_c, 4, 71, 100
5, 2880, Note_on_c, 4, 61, 0
5, 2880, Note_on_c, 4, 69, 0
5, 2880, Note_on_c, 4, 73, 0
5, 2880, Note_on_c, 4, 64, 0
5, 2940, Note_on_c, 4, 64, 100
5, 2940, Note_on_c, 4, 71, 100
5, 2940, Note_on_c, 4, 71, 0
5, 2940, Note_on_c, 4, 64, 0
5, 3000, Note_on_c, 4, 66, 100
5, 3000, Note_on_c, 4, 73, 100
5, 3000, Note_on_c, 4, 64, 0
5, 3000, Note_on_c, 4, 71, 0
5, 3060, Note_on_c, 4, 66, 0
5, 3060, Note_on_c, 4, 73, 0
5, 3120, Note_on_c, 4, 67, 100
5, 3120, Note_on_c, 4, 74, 100
5, 3180, Note_on_c, 4, 74, 0
5, 3180, Note_on_c, 4, 67, 0
5, 3300, Note_on_c, 4, 64, 100
5, 3300, Note_on_c, 4, 71, 100
5, 3360, Note_on_c, 4, 64, 100
5, 3360, Note_on_c, 4, 71, 100
5, 3360, Note_on_c, 4, 71, 0
5, 3360, Note_on_c, 4, 64, 0
5, 3420, Note_on_c, 4, 64, 100
5, 3420, Note_on_c, 4, 71, 100
5, 3420, Note_on_c, 4, 64, 0
5, 3420, Note_on_c, 4, 71, 0
5, 3480, Note_on_c, 4, 66, 100
5, 3480, Note_on_c, 4, 73, 100
5, 3480, Note_on_c, 4, 64, 0
5, 3480, Note_on_c, 4, 71, 0
5, 3540, Note_on_c, 4, 66, 0
5, 3540, Note_on_c, 4, 73, 0
5, 3600, Note_on_c, 4, 74, 100
5, 3600, Note_on_c, 4, 66, 100
5, 3600, Note_on_c, 4, 64, 100
5, 3600, Note_on_c, 4, 69, 100
5, 3720, Note_on_c, 4, 61, 100
5, 3720, Note_on_c, 4, 64, 100
5, 3720, Note_on_c, 4, 69, 100
5, 3720, Note_on_c, 4, 73, 100
5, 3720, Note_on_c, 4, 69, 0
5, 3720, Note_on_c, 4, 64, 0
5, 3720, Note_on_c, 4, 74, 0
5, 3720, Note_on_c, 4, 66, 0
5, 3840, Note_on_c, 4, 64, 100
5, 3840, Note_on_c, 4, 71, 100
5, 3840, Note_on_c, 4, 61, 0
5, 3840, Note_on_c, 4, 69, 0
5, 3840, Note_on_c, 4, 73, 0
5, 3840, Note_on_c, 4, 64, 0
5, 3900, Note_on_c, 4, 64, 100
5, 3900, Note_on_c, 4, 71, 100
5, 3900, Note_on_c, 4, 71, 0
5, 3900, Note_on_c, 4, 64, 0
5, 3960, Note_on_c, 4, 66, 100
5, 3960, Note_on_c, 4, 73, 100
5, 3960, Note_on_c, 4, 64, 0
5, 3960, Note_on_c, 4, 71, 0
5, 4020, Note_on_c, 4, 66, 0
5, 4020, Note_on_c, 4, 73, 0
5, 4080, Note_on_c, 4, 67, 100
5, 4080, Note_on_c, 4, 74, 100
5, 4140, Note_on_c, 4, 74, 0
5, 4140, Note_on_c, 4, 67, 0
5, 4260, Note_on_c, 4, 64, 100
5, 4260, Note_on_c, 4, 71, 100
5, 4320, Note_on_c, 4, 64, 100
5, 4320, Note_on_c, 4, 71, 100
5, 4320, Note_on_c, 4, 71, 0
5, 4320, Note_on_c, 4, 64, 0
5, 4380, Note_on_c, 4, 64, 100
5, 4380, Note_on_c, 4, 71, 100
5, 4380, Note_on_c, 4, 64, 0
5, 4380, Note_on_c, 4, 71, 0
5, 4440, Note_on_c, 4, 66, 100
5, 4440, Note_on_c, 4, 73, 100
5, 4440, Note_on_c, 4, 64, 0
5, 4440, Note_on_c, 4, 71, 0
5, 4500, Note_on_c, 4, 66, 0
5, 4500, Note_on_c, 4, 73, 0
5, 4560, Note_on_c, 4, 74, 100
5, 4560, Note_on_c, 4, 66, 100
5, 4560, Note_on_c, 4, 64, 100
5, 4560, Note_on_c, 4, 69, 100
5, 4680, Note_on_c, 4, 61, 100
5, 4680, Note_on_c, 4, 64, 100
5, 4680, Note_on_c, 4, 69, 100
5, 4680, Note_on_c, 4, 73, 100
5, 4680, Note_on_c, 4, 69, 0
5, 4680, Note_on_c, 4, 64, 0
5, 4680, Note_on_c, 4, 74, 0
5, 4680, Note_on_c, 4, 66, 0
5, 4800, Note_on_c, 4, 64, 100
5, 4800, Note_on_c, 4, 71, 100
5, 4800, Note_on_c, 4, 61, 0
5, 4800, Note_on_c, 4, 69, 0
5, 4800, Note_on_c, 4, 73, 0
5, 4800, Note_on_c, 4, 64, 0
5, 4860, Note_on_c, 4, 64, 100
5, 4860, Note_on_c, 4, 71, 100
5, 4860, Note_on_c, 4, 71, 0
5, 4860, Note_on_c, 4, 64, 0
5, 4920, Note_on_c, 4, 66, 100
5, 4920, Note_on_c, 4, 73, 100
5, 4920, Note_on_c, 4, 64, 0
5, 4920, Note_on_c, 4, 71, 0
5, 4980, Note_on_c, 4, 66, 0
5, 4980, Note_on_c, 4, 73, 0
5, 5040, Note_on_c, 4, 67, 100
5, 5040, Note_on_c, 4, 74, 100
5, 5100, Note_on_c, 4, 74, 0
5, 5100, Note_on_c, 4, 67, 0
5, 5220, Note_on_c, 4, 64, 100
5, 5220, Note_on_c, 4, 71, 100
5, 5280, Note_on_c, 4, 64, 100
5, 5280, Note_on_c, 4, 71, 100
5, 5280, Note_on_c, 4, 71, 0
5, 5280, Note_on_c, 4, 64, 0
5, 5340, Note_on_c, 4, 64, 100
5, 5340, Note_on_c, 4, 71, 100
5, 5340, Note_on_c, 4, 64, 0
5, 5340, Note_on_c, 4, 71, 0
5, 5400, Note_on_c, 4, 66, 100
5, 5400, Note_on_c, 4, 73, 100
5, 5400, Note_on_c, 4, 64, 0
5, 5400, Note_on_c, 4, 71, 0
5, 5460, Note_on_c, 4, 66, 0
5, 5460, Note_on_c, 4, 73, 0
5, 5520, Note_on_c, 4, 74, 100
5, 5520, Note_on_c, 4, 66, 100
5, 5520, Note_on_c, 4, 64, 100
5, 5520, Note_on_c, 4, 69, 100
5, 5640, Note_on_c, 4, 61, 100
5, 5640, Note_on_c, 4, 64, 100
5, 5640, Note_on_c, 4, 69, 100
5, 5640, Note_on_c, 4, 73, 100
5, 5640, Note_on_c, 4, 69, 0
5, 5640, Note_on_c, 4, 64, 0
5, 5640, Note_on_c, 4, 74, 0
5, 5640, Note_on_c, 4, 66, 0
5, 5760, Note_on_c, 4, 61, 0
5, 5760, Note_on_c, 4, 73, 0
5, 5760, Note_on_c, 4, 64, 0
5, 5760, Note_on_c, 4, 69, 0
5, 5880, Note_on_c, 4, 67, 100
5, 5880, Note_on_c, 4, 72, 100
5, 5880, Note_on_c, 4, 64, 100
5, 5880, Note_on_c, 4, 76, 100
5, 6240, Note_on_c, 4, 76, 0
5, 6240, Note_on_c, 4, 67, 0
5, 6240, Note_on_c, 4, 72, 0
5, 6240, Note_on_c, 4, 64, 0
5, 6360, Note_on_c, 4, 62, 100
5, 6360, Note_on_c, 4, 67, 100
5, 6360, Note_on_c, 4, 74, 100
5, 6360, Note_on_c, 4, 71, 100
5, 6720, Note_on_c, 4, 71, 0
5, 6720, Note_on_c, 4, 62, 0
5, 6720, Note_on_c, 4, 67, 0
5, 6720, Note_on_c, 4, 74, 0
5, 6840, Note_on_c, 4, 64, 100
5, 6840, Note_on_c, 4, 69, 100
5, 6840, Note_on_c, 4, 73, 100
5, 6840, Note_on_c, 4, 76, 100
5, 7200, Note_on_c, 4, 76, 0
5, 7200, Note_on_c, 4, 64, 0
5, 7200, Note_on_c, 4, 69, 0
5, 7200, Note_on_c, 4, 73, 0
5, 7320, Note_on_c, 4, 67, 100
5, 7320, Note_on_c, 4, 74, 100
5, 7320, Note_on_c, 4, 79, 100
5, 7320, Note_on_c, 4, 71, 100
5, 7680, Note_on_c, 4, 67, 100
5, 7680, Note_on_c, 4, 74, 100
5, 7680, Note_on_c, 4, 79, 100
5, 7680, Note_on_c, 4, 71, 100
5, 7680, Note_on_c, 4, 71, 0
5, 7680, Note_on_c, 4, 79, 0
5, 7680, Note_on_c, 4, 67, 0
5, 7680, Note_on_c, 4, 74, 0
5, 8160, Note_on_c, 4, 67, 0
5, 8160, Note_on_c, 4, 71, 0
5, 8160, Note_on_c, 4, 74, 0
5, 8160, Note_on_c, 4, 79, 0
5, 8400, Note_on_c, 4, 62, 100
5, 8460, Note_on_c, 4, 61, 100
5, 8460, Note_on_c, 4, 62, 0
5, 8520, Note_on_c, 4, 61, 0
5, 9360, Note_on_c, 4, 62, 100
5, 9420, Note_on_c, 4, 61, 100
5, 9420, Note_on_c, 4, 62, 0
5, 9480, Note_on_c, 4, 59, 100
5, 9480, Note_on_c, 4, 61, 0
5, 9540, Note_on_c, 4, 52, 100
5, 9540, Note_on_c, 4, 59, 0
5, 9600, Note_on_c, 4, 52, 100
5, 9600, Note_on_c, 4, 52, 0
5, 9660, Note_on_c, 4, 52, 0
5, 10320, Note_on_c, 4, 62, 100
5, 10380, Note_on_c, 4, 61, 100
5, 10380, Note_on_c, 4, 62, 0
5, 10440, Note_on_c, 4, 61, 0
5, 11280, Note_on_c, 4, 62, 100
5, 11340, Note_on_c, 4, 61, 100
5, 11340, Note_on_c, 4, 62, 0
5, 11400, Note_on_c, 4, 59, 100
5, 11400, Note_on_c, 4, 61, 0
5, 11460, Note_on_c, 4, 52, 100
5, 11460, Note_on_c, 4, 59, 0
5, 11520, Note_on_c, 4, 52, 100
5, 11520, Note_on_c, 4, 52, 0
5, 11580, Note_on_c, 4, 52, 0
5, 12000, Note_on_c, 4, 64, 100
5, 12000, Note_on_c, 4, 71, 100
5, 12060, Note_on_c, 4, 64, 100
5, 12060, Note_on_c, 4, 71, 100
5, 12060, Note_on_c, 4, 71, 0
5, 12060, Note_on_c, 4, 64, 0
5, 12120, Note_on_c, 4, 66, 100
5, 12120, Note_on_c, 4, 73, 100
5, 12120, Note_on_c, 4, 64, 0
5, 12120, Note_on_c, 4, 71, 0
5, 12180, Note_on_c, 4, 66, 0
5, 12180, Note_on_c, 4, 73, 0
5, 12240, Note_on_c, 4, 67, 100
5, 12240, Note_on_c, 4, 74, 100
5, 12300, Note_on_c, 4, 74, 0
5, 12300, Note_on_c, 4, 67, 0
5, 12420, Note_on_c, 4, 64, 100
5, 12420, Note_on_c, 4, 71, 100
5, 12480, Note_on_c, 4, 64, 100
5, 12480, Note_on_c, 4, 71, 100
5, 12480, Note_on_c, 4, 71, 0
5, 12480, Note_on_c, 4, 64, 0
5, 12540, Note_on_c, 4, 64, 100
5, 12540, Note_on_c, 4, 71, 100
5, 12540, Note_on_c, 4, 64, 0
5, 12540, Note_on_c, 4, 71, 0
5, 12600, Note_on_c, 4, 66, 100
5, 12600, Note_on_c, 4, 73, 100
5, 12600, Note_on_c, 4, 64, 0
5, 12600, Note_on_c, 4, 71, 0
5, 12660, Note_on_c, 4, 66, 0
5, 12660, Note_on_c, 4, 73, 0
5, 12720, Note_on_c, 4, 67, 100
5, 12720, Note_on_c, 4, 74, 100
5, 12780, Note_on_c, 4, 74, 0
5, 12780, Note_on_c, 4, 67, 0
5, 12840, Note_on_c, 4, 66, 100
5, 12840, Note_on_c, 4, 73, 100
5, 12900, Note_on_c, 4, 64, 100
5, 12900, Note_on_c, 4, 71, 100
5, 12900, Note_on_c, 4, 73, 0
5, 12900, Note_on_c, 4, 66, 0
5, 12960, Note_on_c, 4, 64, 100
5, 12960, Note_on_c, 4, 71, 100
5, 12960, Note_on_c, 4, 64, 0
5, 12960, Note_on_c, 4, 71, 0
5, 13020, Note_on_c, 4, 64, 100
5, 13020, Note_on_c, 4, 71, 100
5, 13020, Note_on_c, 4, 64, 0
5, 13020, Note_on_c, 4, 71, 0
5, 13080, Note_on_c, 4, 66, 100
5, 13080, Note_on_c, 4, 73, 100
5, 13080, Note_on_c, 4, 64, 0
5, 13080, Note_on_c, 4, 71, 0
5, 13140, Note_on_c, 4, 66, 0
5, 13140, Note_on_c, 4, 73, 0
5, 13200, Note_on_c, 4, 67, 100
5, 13200, Note_on_c, 4, 74, 100
5, 13260, Note_on_c, 4, 74, 0
5, 13260, Note_on_c, 4, 67, 0
5, 13380, Note_on_c, 4, 64, 100
5, 13380, Note_on_c, 4, 71, 100
5, 13440, Note_on_c, 4, 64, 100
5, 13440, Note_on_c, 4, 71, 100
5, 13440, Note_on_c, 4, 71, 0
5, 13440, Note_on_c, 4, 64, 0
5, 13500, Note_on_c, 4, 64, 100
5, 13500, Note_on_c, 4, 71, 100
5, 13500, Note_on_c, 4, 64, 0
5, 13500, Note_on_c, 4, 71, 0
5, 13560, Note_on_c, 4, 66, 100
5, 13560, Note_on_c, 4, 73, 100
5, 13560, Note_on_c, 4, 64, 0
5, 13560, Note_on_c, 4, 71, 0
5, 13620, Note_on_c, 4, 66, 0
5, 13620, Note_on_c, 4, 73, 0
5, 13680, Note_on_c, 4, 74, 100
5, 13680, Note_on_c, 4, 66, 100
5, 13680, Note_on_c, 4, 64, 100
5, 13680, Note_on_c, 4, 69, 100
5, 13800, Note_on_c, 4, 61, 100
5, 13800, Note_on_c, 4, 64, 100
5, 13800, Note_on_c, 4, 69, 100
5, 13800, Note_on_c, 4, 73, 100
5, 13800, Note_on_c, 4, 69, 0
5, 13800, Note_on_c, 4, 64, 0
5, 13800, Note_on_c, 4, 74, 0
5, 13800, Note_on_c, 4, 66, 0
5, 13920, Note_on_c, 4, 64, 100
5, 13920, Note_on_c, 4, 71, 100
5, 13920, Note_on_c, 4, 61, 0
5, 13920, Note_on_c, 4, 69, 0
5, 13920, Note_on_c, 4, 73, 0
5, 13920, Note_on_c, 4, 64, 0
5, 13980, Note_on_c, 4, 64, 100
5, 13980, Note_on_c, 4, 71, 100
5, 13980, Note_on_c, 4, 71, 0
5, 13980, Note_on_c, 4, 64, 0
5, 14040, Note_on_c, 4, 66, 100
5, 14040, Note_on_c, 4, 73, 100
5, 14040, Note_on_c, 4, 64, 0
5, 14040, Note_on_c, 4, 71, 0
5, 14100, Note_on_c, 4, 66, 0
5, 14100, Note_on_c, 4, 73, 0
5, 14160, Note_on_c, 4, 67, 100
5, 14160, Note_on_c, 4, 74, 100
5, 14220, Note_on_c, 4, 74, 0
5, 14220, Note_on_c, 4, 67, 0
5, 14340, Note_on_c, 4, 64, 100
5, 14340, Note_on_c, 4, 71, 100
5, 14400, Note_on_c, 4, 64, 100
5, 14400, Note_on_c, 4, 71, 100
5, 14400, Note_on_c, 4, 71, 0
5, 14400, Note_on_c, 4, 64, 0
5, 14460, Note_on_c, 4, 64, 100
5, 14460, Note_on_c, 4, 71, 100
5, 14460, Note_on_c, 4, 64, 0
5, 14460, Note_on_c, 4, 71, 0
5, 14520, Note_on_c, 4, 66, 100
5, 14520, Note_on_c, 4, 73, 100
5, 14520, Note_on_c, 4, 64, 0
5, 14520, Note_on_c, 4, 71, 0
5, 14580, Note_on_c, 4, 66, 0
5, 14580, Note_on_c, 4, 73, 0
5, 14640, Note_on_c, 4, 74, 100
5, 14640, Note_on_c, 4, 66, 100
5, 14640, Note_on_c, 4, 64, 100
5, 14640, Note_on_c, 4, 69, 100
5, 14760, Note_on_c, 4, 61, 100
5, 14760, Note_on_c, 4, 64, 100
5, 14760, Note_on_c, 4, 69, 100
5, 14760, Note_on_c, 4, 73, 100
5, 14760, Note_on_c, 4, 69, 0
5, 14760, Note_on_c, 4, 64, 0
5, 14760, Note_on_c, 4, 74, 0
5, 14760, Note_on_c, 4, 66, 0
5, 14880, Note_on_c, 4, 64, 100
5, 14880, Note_on_c, 4, 71, 100
5, 14880, Note_on_c, 4, 61, 0
5, 14880, Note_on_c, 4, 69, 0
5, 14880, Note_on_c, 4, 73, 0
5, 14880, Note_on_c, 4, 64, 0
5, 14940, Note_on_c, 4, 64, 100
5, 14940, Note_on_c, 4, 71, 100
5, 14940, Note_on_c, 4, 71, 0
5, 14940, Note_on_c, 4, 64, 0
5, 15000, Note_on_c, 4, 66, 100
5, 15000, Note_on_c, 4, 73, 100
5, 15000, Note_on_c, 4, 64, 0
5, 15000, Note_on_c, 4, 71, 0
5, 15060, Note_on_c, 4, 66, 0
5, 15060, Note_on_c, 4, 73, 0
5, 15120, Note_on_c, 4, 67, 100
5, 15120, Note_on_c, 4, 74, 100
5, 15180, Note_on_c, 4, 74, 0
5, 15180, Note_on_c, 4, 67, 0
5, 15300, Note_on_c, 4, 64, 100
5, 15300, Note_on_c, 4, 71, 100
5, 15360, Note_on_c, 4, 64, 100
5, 15360, Note_on_c, 4, 71, 100
5, 15360, Note_on_c, 4, 71, 0
5, 15360, Note_on_c, 4, 64, 0
5, 15420, Note_on_c, 4, 64, 100
5, 15420, Note_on_c, 4, 71, 100
5, 15420, Note_on_c, 4, 64, 0
5, 15420, Note_on_c, 4, 71, 0
5, 15480, Note_on_c, 4, 66, 100
5, 15480, Note_on_c, 4, 73, 100
5, 15480, Note_on_c, 4, 64, 0
5, 15480, Note_on_c, 4, 71, 0
5, 15540, Note_on_c, 4, 66, 0
5, 15540, Note_on_c, 4, 73, 0
5, 15600, Note_on_c, 4, 74, 100
5, 15600, Note_on_c, 4, 66, 100
5, 15600, Note_on_c, 4, 64, 100
5, 15600, Note_on_c, 4, 69, 100
5, 15720, Note_on_c, 4, 61, 100
5, 15720, Note_on_c, 4, 64, 100
5, 15720, Note_on_c, 4, 69, 100
5, 15720, Note_on_c, 4, 73, 100
5, 15720, Note_on_c, 4, 69, 0
5, 15720, Note_on_c, 4, 64, 0
5, 15720, Note_on_c, 4, 74, 0
5, 15720, Note_on_c, 4, 66, 0
5, 15840, Note_on_c, 4, 64, 100
5, 15840, Note_on_c, 4, 71, 100
5, 15840, Note_on_c, 4, 61, 0
5, 15840, Note_on_c, 4, 69, 0
5, 15840, Note_on_c, 4, 73, 0
5, 15840, Note_on_c, 4, 64, 0
5, 15900, Note_on_c, 4, 64, 100
5, 15900, Note_on_c, 4, 71, 100
5, 15900, Note_on_c, 4, 71, 0
5, 15900, Note_on_c, 4, 64, 0
5, 15960, Note_on_c, 4, 66, 100
5, 15960, Note_on_c, 4, 73, 100
5, 15960, Note_on_c, 4, 64, 0
5, 15960, Note_on_c, 4, 71, 0
5, 16020, Note_on_c, 4, 66, 0
5, 16020, Note_on_c, 4, 73, 0
5, 16080, Note_on_c, 4, 67, 100
5, 16080, Note_on_c, 4, 74, 100
5, 16140, Note_on_c, 4, 74, 0
5, 16140, Note_on_c, 4, 67, 0
5, 16260, Note_on_c, 4, 64, 100
5, 16260, Note_on_c, 4, 71, 100
5, 16320, Note_on_c, 4, 64, 100
5, 16320, Note_on_c, 4, 71, 100
5, 16320, Note_on_c, 4, 71, 0
5, 16320, Note_on_c, 4, 64, 0
5, 16380, Note_on_c, 4, 64, 100
5, 16380, Note_on_c, 4, 71, 100
5, 16380, Note_on_c, 4, 64, 0
5, 16380, Note_on_c, 4, 71, 0
5, 16440, Note_on_c, 4, 66, 100
5, 16440, Note_on_c, 4, 73, 100
5, 16440, Note_on_c, 4, 64, 0
5, 16440, Note_on_c, 4, 71, 0
5, 16500, Note_on_c, 4, 66, 0
5, 16500, Note_on_c, 4, 73, 0
5, 16560, Note_on_c, 4, 74, 100
5, 16560, Note_on_c, 4, 66, 100
5, 16560, Note_on_c, 4, 64, 100
5, 16560, Note_on_c, 4, 69, 100
5, 16680, Note_on_c, 4, 61, 100
5, 16680, Note_on_c, 4, 64, 100
5, 16680, Note_on_c, 4, 69, 100
5, 16680, Note_on_c, 4, 73, 100
5, 16680, Note_on_c, 4, 69, 0
5, 16680, Note_on_c, 4, 64, 0
5, 16680, Note_on_c, 4, 74, 0
5, 16680, Note_on_c, 4, 66, 0
5, 16800, Note_on_c, 4, 64, 100
5, 16800, Note_on_c, 4, 71, 100
5, 16800, Note_on_c, 4, 61, 0
5, 16800, Note_on_c, 4, 69, 0
5, 16800, Note_on_c, 4, 73, 0
5, 16800, Note_on_c, 4, 64, 0
5, 16860, Note_on_c, 4, 64, 100
5, 16860, Note_on_c, 4, 71, 100
5, 16860, Note_on_c, 4, 71, 0
5, 16860, Note_on_c, 4, 64, 0
5, 16920, Note_on_c, 4, 66, 100
5, 16920, Note_on_c, 4, 73, 100
5, 16920, Note_on_c, 4, 64, 0
5, 16920, Note_on_c, 4, 71, 0
5, 16980, Note_on_c, 4, 66, 0
5, 16980, Note_on_c, 4, 73, 0
5, 17040, Note_on_c, 4, 67, 100
5, 17040, Note_on_c, 4, 74, 100
5, 17100, Note_on_c, 4, 74, 0
5, 17100, Note_on_c, 4, 67, 0
5, 17220, Note_on_c, 4, 64, 100
5, 17220, Note_on_c, 4, 71, 100
5, 17280, Note_on_c, 4, 64, 100
5, 17280, Note_on_c, 4, 71, 100
5, 17280, Note_on_c, 4, 71, 0
5, 17280, Note_on_c, 4, 64, 0
5, 17340, Note_on_c, 4, 64, 100
5, 17340, Note_on_c, 4, 71, 100
5, 17340, Note_on_c, 4, 64, 0
5, 17340, Note_on_c, 4, 71, 0
5, 17400, Note_on_c, 4, 66, 100
5, 17400, Note_on_c, 4, 73, 100
5, 17400, Note_on_c, 4, 64, 0
5, 17400, Note_on_c, 4, 71, 0
5, 17460, Note_on_c, 4, 66, 0
5, 17460, Note_on_c, 4, 73, 0
5, 17520, Note_on_c, 4, 74, 100
5, 17520, Note_on_c, 4, 66, 100
5, 17520, Note_on_c, 4, 64, 100
5, 17520, Note_on_c, 4, 69, 100
5, 17640, Note_on_c, 4, 61, 100
5, 17640, Note_on_c, 4, 64, 100
5, 17640, Note_on_c, 4, 69, 100
5, 17640, Note_on_c, 4, 73, 100
5, 17640, Note_on_c, 4, 69, 0
5, 17640, Note_on_c, 4, 64, 0
5, 17640, Note_on_c, 4, 74, 0
5, 17640, Note_on_c, 4, 66, 0
5, 17760, Note_on_c, 4, 61, 0
5, 17760, Note_on_c, 4, 73, 0
5, 17760, Note_on_c, 4, 64, 0
5, 17760, Note_on_c, 4, 69, 0
5, 17880, Note_on_c, 4, 67, 100
5, 17880, Note_on_c, 4, 72, 100
5, 17880, Note_on_c, 4, 64, 100
5, 17880, Note_on_c, 4, 76, 100
5, 18240, Note_on_c, 4, 76, 0
5, 18240, Note_on_c, 4, 67, 0
5, 18240, Note_on_c, 4, 72, 0
5, 18240, Note_on_c, 4, 64, 0
5, 18360, Note_on_c, 4, 62, 100
5, 18360, Note_on_c, 4, 67, 100
5, 18360, Note_on_c, 4, 74, 100
5, 18360, Note_on_c, 4, 71, 100
5, 18720, Note_on_c, 4, 71, 0
5, 18720, Note_on_c, 4, 62, 0
5, 18720, Note_on_c, 4, 67, 0
5, 18720, Note_on_c, 4, 74, 0
5, 18840, Note_on_c, 4, 64, 100
5, 18840, Note_on_c, 4, 69, 100
5, 18840, Note_on_c, 4, 73, 100
5, 18840, Note_on_c, 4, 76, 100
5, 19200, Note_on_c, 4, 76, 0
5, 19200, Note_on_c, 4, 64, 0
5, 19200, Note_on_c, 4, 69, 0
5, 19200, Note_on_c, 4, 73, 0
5, 19320, Note_on_c, 4, 67, 100
5, 19320, Note_on_c, 4, 74, 100
5, 19320, Note_on_c, 4, 79, 100
5, 19320, Note_on_c, 4, 71, 100
5, 19680, Note_on_c, 4, 67, 100
5, 19680, Note_on_c, 4, 74, 100
5, 19680, Note_on_c, 4, 79, 100
5, 19680, Note_on_c, 4, 71, 100
5, 19680, Note_on_c, 4, 71, 0
5, 19680, Note_on_c, 4, 79, 0
5, 19680, Note_on_c, 4, 67, 0
5, 19680, Note_on_c, 4, 74, 0
5, 20160, Note_on_c, 4, 67, 0
5, 20160, Note_on_c, 4, 71, 0
5, 20160, Note_on_c, 4, 74, 0
5, 20160, Note_on_c, 4, 79, 0
5, 20400, Note_on_c, 4, 62, 100
5, 20460, Note_on_c, 4, 61, 100
5, 20460, Note_on_c, 4, 62, 0
5, 20520, Note_on_c, 4, 61, 0
5, 21360, Note_on_c, 4, 62, 100
5, 21420, Note_on_c, 4, 61, 100
5, 21420, Note_on_c, 4, 62, 0
5, 21480, Note_on_c, 4, 59, 100
5, 21480, Note_on_c, 4, 61, 0
5, 21540, Note_on_c, 4, 52, 100
5, 21540, Note_on_c, 4, 59, 0
5, 21600, Note_on_c, 4, 52, 100
5, 21600, Note_on_c, 4, 52, 0
5, 21660, Note_on_c, 4, 52, 0
5, 22320, Note_on_c, 4, 62, 100
5, 22380, Note_on_c, 4, 61, 100
5, 22380, Note_on_c, 4, 62, 0
5, 22440, Note_on_c, 4, 61, 0
5, 23280, Note_on_c, 4, 62, 100
5, 23340, Note_on_c, 4, 61, 100
5, 23340, Note_on_c, 4, 62, 0
5, 23400, Note_on_c, 4, 59, 100
5, 23400, Note_on_c, 4, 61, 0
5, 23460, Note_on_c, 4, 52, 100
5, 23460, Note_on_c, 4, 59, 0
5, 23520, Note_on_c, 4, 52, 100
5, 23520, Note_on_c, 4, 52, 0
5, 23580, Note_on_c, 4, 52, 0
5, 24000, Note_on_c, 4, 64, 100
5, 24000, Note_on_c, 4, 68, 100
5, 24000, Note_on_c, 4, 73, 100
5, 24000, Note_on_c, 4, 76, 100
5, 24480, Note_on_c, 4, 69, 100
5, 24480, Note_on_c, 4, 64, 100
5, 24480, Note_on_c, 4, 73, 100
5, 24480, Note_on_c, 4, 76, 100
5, 24480, Note_on_c, 4, 76, 0
5, 24480, Note_on_c, 4, 73, 0
5, 24480, Note_on_c, 4, 64, 0
5, 24480, Note_on_c, 4, 68, 0
5, 24960, Note_on_c, 4, 64, 100
5, 24960, Note_on_c, 4, 68, 100
5, 24960, Note_on_c, 4, 73, 100
5, 24960, Note_on_c, 4, 76, 100
5, 24960, Note_on_c, 4, 69, 0
5, 24960, Note_on_c, 4, 73, 0
5, 24960, Note_on_c, 4, 76, 0
5, 24960, Note_on_c, 4, 64, 0
5, 25440, Note_on_c, 4, 69, 100
5, 25440, Note_on_c, 4, 64, 100
5, 25440, Note_on_c, 4, 73, 100
5, 25440, Note_on_c, 4, 76, 100
5, 25440, Note_on_c, 4, 64, 0
5, 25440, Note_on_c, 4, 73, 0
5, 25440, Note_on_c, 4, 76, 0
5, 25440, Note_on_c, 4, 68, 0
5, 25920, Note_on_c, 4, 55, 100
5, 25920, Note_on_c, 4, 62, 100
5, 25920, Note_on_c, 4, 67, 100
5, 25920, Note_on_c, 4, 69, 0
5, 25920, Note_on_c, 4, 73, 0
5, 25920, Note_on_c, 4, 76, 0
5, 25920, Note_on_c, 4, 64, 0
5, 26400, Note_on_c, 4, 55, 100
5, 26400, Note_on_c, 4, 62, 100
5, 26400, Note_on_c, 4, 67, 100
5, 26400, Note_on_c, 4, 67, 0
5, 26400, Note_on_c, 4, 62, 0
5, 26400, Note_on_c, 4, 55, 0
5, 26880, Note_on_c, 4, 55, 100
5, 26880, Note_on_c, 4, 62, 100
5, 26880, Note_on_c, 4, 67, 100
5, 26880, Note_on_c, 4, 55, 0
5, 26880, Note_on_c, 4, 67, 0
5, 26880, Note_on_c, 4, 62, 0
5, 27360, Note_on_c, 4, 55, 100
5, 27360, Note_on_c, 4, 62, 100
5, 27360, Note_on_c, 4, 67, 100
5, 27360, Note_on_c, 4, 55, 0
5, 27360, Note_on_c, 4, 67, 0
5, 27360, Note_on_c, 4, 62, 0
5, 27840, Note_on_c, 4, 55, 0
5, 27840, Note_on_c, 4, 62, 0
5, 27840, Note_on_c, 4, 67, 0
5, 28080, Note_on_c, 4, 62, 100
5, 28140, Note_on_c, 4, 61, 100
5, 28140, Note_on_c, 4, 62, 0
5, 28200, Note_on_c, 4, 61, 0
5, 29040, Note_on_c, 4, 62, 100
5, 29100, Note_on_c, 4, 61, 100
5, 29100, Note_on_c, 4, 62, 0
5, 29160, Note_on_c, 4, 59, 100
5, 29160, Note_on_c, 4, 61, 0
5, 29220, Note_on_c, 4, 52, 100
5, 29220, Note_on_c, 4, 59, 0
5, 29280, Note_on_c, 4, 52, 100
5, 29280, Note_on_c, 4, 52, 0
5, 29340, Note_on_c, 4, 52, 0
5, 30000, Note_on_c, 4, 62, 100
5, 30060, Note_on_c, 4, 61, 100
5, 30060, Note_on_c, 4, 62, 0
5, 30120, Note_on_c, 4, 61, 0
5, 30960, Note_on_c, 4, 62, 100
5, 31020, Note_on_c, 4, 61, 100
5, 31020, Note_on_c, 4, 62, 0
5, 31080, Note_on_c, 4, 59, 100
5, 31080, Note_on_c, 4, 61, 0
5, 31140, Note_on_c, 4, 52, 100
5, 31140, Note_on_c, 4, 59, 0
5, 31200, Note_on_c, 4, 52, 100
5, 31200, Note_on_c, 4, 52, 0
5, 31260, Note_on_c, 4, 52, 0
5, 31680, Note_on_c, 4, 64, 100
5, 31680, Note_on_c, 4, 71, 100
5, 31740, Note_on_c, 4, 64, 100
5, 31740, Note_on_c, 4, 71, 100
5, 31740, Note_on_c, 4, 71, 0
5, 31740, Note_on_c, 4, 64, 0
5, 31800, Note_on_c, 4, 66, 100
5, 31800, Note_on_c, 4, 73, 100
5, 31800, Note_on_c, 4, 64, 0
5, 31800, Note_on_c, 4, 71, 0
5, 31860, Note_on_c, 4, 66, 0
5, 31860, Note_on_c, 4, 73, 0
5, 31920, Note_on_c, 4, 67, 100
5, 31920, Note_on_c, 4, 74, 100
5, 31980, Note_on_c, 4, 74, 0
5, 31980, Note_on_c, 4, 67, 0
5, 32100, Note_on_c, 4, 64, 100
5, 32100, Note_on_c, 4, 71, 100
5, 32160, Note_on_c, 4, 64, 100
5, 32160, Note_on_c, 4, 71, 100
5, 32160, Note_on_c, 4, 71, 0
5, 32160, Note_on_c, 4, 64, 0
5, 32220, Note_on_c, 4, 64, 100
5, 32220, Note_on_c, 4, 71, 100
5, 32220, Note_on_c, 4, 64, 0
5, 32220, Note_on_c, 4, 71, 0
5, 32280, Note_on_c, 4, 66, 100
5, 32280, Note_on_c, 4, 73, 100
5, 32280, Note_on_c, 4, 64, 0
5, 32280, Note_on_c, 4, 71, 0
5, 32340, Note_on_c, 4, 66, 0
5, 32340, Note_on_c, 4, 73, 0
5, 32400, Note_on_c, 4, 67, 100
5, 32400, Note_on_c, 4, 74, 100
5, 32460, Note_on_c, 4, 74, 0
5, 32460, Note_on_c, 4, 67, 0
5, 32520, Note_on_c, 4, 66, 100
5, 32520, Note_on_c, 4, 73, 100
5, 32580, Note_on_c, 4, 64, 100
5, 32580, Note_on_c, 4, 71, 100
5, 32580, Note_on_c, 4, 73, 0
5, 32580, Note_on_c, 4, 66, 0
5, 32640, Note_on_c, 4, 64, 100
5, 32640, Note_on_c, 4, 71, 100
5, 32640, Note_on_c, 4, 64, 0
5, 32640, Note_on_c, 4, 71, 0
5, 32700, Note_on_c, 4, 64, 100
5, 32700, Note_on_c, 4, 71, 100
5, 32700, Note_on_c, 4, 64, 0
5, 32700, Note_on_c, 4, 71, 0
5, 32760, Note_on_c, 4, 66, 100
5, 32760, Note_on_c, 4, 73, 100
5, 32760, Note_on_c, 4, 64, 0
5, 32760, Note_on_c, 4, 71, 0
5, 32820, Note_on_c, 4, 66, 0
5, 32820, Note_on_c, 4, 73, 0
5, 32880, Note_on_c, 4, 67, 100
5, 32880, Note_on_c, 4, 74, 100
5, 32940, Note_on_c, 4, 74, 0
5, 32940, Note_on_c, 4, 67, 0
5, 33060, Note_on_c, 4, 64, 100
5, 33060, Note_on_c, 4, 71, 100
5, 33120, Note_on_c, 4, 64, 100
5, 33120, Note_on_c, 4, 71, 100
5, 33120, Note_on_c, 4, 71, 0
5, 33120, Note_on_c, 4, 64, 0
5, 33180, Note_on_c, 4, 64, 100
5, 33180, Note_on_c, 4, 71, 100
5, 33180, Note_on_c, 4, 64, 0
5, 33180, Note_on_c, 4, 71, 0
5, 33240, Note_on_c, 4, 66, 100
5, 33240, Note_on_c, 4, 73, 100
5, 33240, Note_on_c, 4, 64, 0
5, 33240, Note_on_c, 4, 71, 0
5, 33300, Note_on_c, 4, 66, 0
5, 33300, Note_on_c, 4, 73, 0
5, 33360, Note_on_c, 4, 74, 100
5, 33360, Note_on_c, 4, 66, 100
5, 33360, Note_on_c, 4, 64, 100
5, 33360, Note_on_c, 4, 69, 100
5, 33480, Note_on_c, 4, 61, 100
5, 33480, Note_on_c, 4, 64, 100
5, 33480, Note_on_c, 4, 69, 100
5, 33480, Note_on_c, 4, 73, 100
5, 33480, Note_on_c, 4, 69, 0
5, 33480, Note_on_c, 4, 64, 0
5, 33480, Note_on_c, 4, 74, 0
5, 33480, Note_on_c, 4, 66, 0
5, 33600, Note_on_c, 4, 64, 100
5, 33600, Note_on_c, 4, 71, 100
5, 33600, Note_on_c, 4, 61, 0
5, 33600, Note_on_c, 4, 69, 0
5, 33600, Note_on_c, 4, 73, 0
5, 33600, Note_on_c, 4, 64, 0
5, 33660, Note_on_c, 4, 64, 100
5, 33660, Note_on_c, 4, 71, 100
5, 33660, Note_on_c, 4, 71, 0
5, 33660, Note_on_c, 4, 64, 0
5, 33720, Note_on_c, 4, 66, 100
5, 33720, Note_on_c, 4, 73, 100
5, 33720, Note_on_c, 4, 64, 0
5, 33720, Note_on_c, 4, 71, 0
5, 33780, Note_on_c, 4, 66, 0
5, 33780, Note_on_c, 4, 73, 0
5, 33840, Note_on_c, 4, 67, 100
5, 33840, Note_on_c, 4, 74, 100
5, 33900, Note_on_c, 4, 74, 0
5, 33900, Note_on_c, 4, 67, 0
5, 34020, Note_on_c, 4, 64, 100
5, 34020, Note_on_c, 4, 71, 100
5, 34080, Note_on_c, 4, 64, 100
5, 34080, Note_on_c, 4, 71, 100
5, 34080, Note_on_c, 4, 71, 0
5, 34080, Note_on_c, 4, 64, 0
5, 34140, Note_on_c, 4, 64, 100
5, 34140, Note_on_c, 4, 71, 100
5, 34140, Note_on_c, 4, 64, 0
5, 34140, Note_on_c, 4, 71, 0
5, 34200, Note_on_c, 4, 66, 100
5, 34200, Note_on_c, 4, 73, 100
5, 34200, Note_on_c, 4, 64, 0
5, 34200, Note_on_c, 4, 71, 0
5, 34260, Note_on_c, 4, 66, 0
5, 34260, Note_on_c, 4, 73, 0
5, 34320, Note_on_c, 4, 74, 100
5, 34320, Note_on_c, 4, 66, 100
5, 34320, Note_on_c, 4, 64, 100
5, 34320, Note_on_c, 4, 69, 100
5, 34440, Note_on_c, 4, 61, 100
5, 34440, Note_on_c, 4, 64, 100
5, 34440, Note_on_c, 4, 69, 100
5, 34440, Note_on_c, 4, 73, 100
5, 34440, Note_on_c, 4, 69, 0
5, 34440, Note_on_c, 4, 64, 0
5, 34440, Note_on_c, 4, 74, 0
5, 34440, Note_on_c, 4, 66, 0
5, 34560, Note_on_c, 4, 64, 100
5, 34560, Note_on_c, 4, 71, 100
5, 34560, Note_on_c, 4, 61, 0
5, 34560, Note_on_c, 4, 69, 0
5, 34560, Note_on_c, 4, 73, 0
5, 34560, Note_on_c, 4, 64, 0
5, 34620, Note_on_c, 4, 64, 100
5, 34620, Note_on_c, 4, 71, 100
5, 34620, Note_on_c, 4, 71, 0
5, 34620, Note_on_c, 4, 64, 0
5, 34680, Note_on_c, 4, 66, 100
5, 34680, Note_on_c, 4, 73, 100
5, 34680, Note_on_c, 4, 64, 0
5, 34680, Note_on_c, 4, 71, 0
5, 34740, Note_on_c, 4, 66, 0
5, 34740, Note_on_c, 4, 73, 0
5, 34800, Note_on_c, 4, 67, 100
5, 34800, Note_on_c, 4, 74, 100
5, 34860, Note_on_c, 4, 74, 0
5, 34860, Note_on_c, 4, 67, 0
5, 34980, Note_on_c, 4, 64, 100
5, 34980, Note_on_c, 4, 71, 100
5, 35040, Note_on_c, 4, 64, 100
5, 35040, Note_on_c, 4, 71, 100
5, 35040, Note_on_c, 4, 71, 0
5, 35040, Note_on_c, 4, 64, 0
5, 35100, Note_on_c, 4, 64, 100
5, 35100, Note_on_c, 4, 71, 100
5, 35100, Note_on_c, 4, 64, 0
5, 35100, Note_on_c, 4, 71, 0
5, 35160, Note_on_c, 4, 66, 100
5, 35160, Note_on_c, 4, 73, 100
5, 35160, Note_on_c, 4, 64, 0
5, 35160, Note_on_c, 4, 71, 0
5, 35220, Note_on_c, 4, 66, 0
5, 35220, Note_on_c, 4, 73, 0
5, 35280, Note_on_c, 4, 74, 100
5, 35280, Note_on_c, 4, 66, 100
5, 35280, Note_on_c, 4, 64, 100
5, 35280, Note_on_c, 4, 69, 100
5, 35400, Note_on_c, 4, 61, 100
5, 35400, Note_on_c, 4, 64, 100
5, 35400, Note_on_c, 4, 69, 100
5, 35400, Note_on_c, 4, 73, 100
5, 35400, Note_on_c, 4, 69, 0
5, 35400, Note_on_c, 4, 64, 0
5, 35400, Note_on_c, 4, 74, 0
5, 35400, Note_on_c, 4, 66, 0
5, 35520, Note_on_c, 4, 64, 100
5, 35520, Note_on_c, 4, 71, 100
5, 35520, Note_on_c, 4, 61, 0
5, 35520, Note_on_c, 4, 69, 0
5, 35520, Note_on_c, 4, 73, 0
5, 35520, Note_on_c, 4, 64, 0
5, 35580, Note_on_c, 4, 64, 100
5, 35580, Note_on_c, 4, 71, 100
5, 35580, Note_on_c, 4, 71, 0
5, 35580, Note_on_c, 4, 64, 0
5, 35640, Note_on_c, 4, 66, 100
5, 35640, Note_on_c, 4, 73, 100
5, 35640, Note_on_c, 4, 64, 0
5, 35640, Note_on_c, 4, 71, 0
5, 35700, Note_on_c, 4, 66, 0
5, 35700, Note_on_c, 4, 73, 0
5, 35760, Note_on_c, 4, 67, 100
5, 35760, Note_on_c, 4, 74, 100
5, 35820, Note_on_c, 4, 74, 0
5, 35820, Note_on_c, 4, 67, 0
5, 35940, Note_on_c, 4, 64, 100
5, 35940, Note_on_c, 4, 71, 100
5, 36000, Note_on_c, 4, 64, 100
5, 36000, Note_on_c, 4, 71, 100
5, 36000, Note_on_c, 4, 71, 0
5, 36000, Note_on_c, 4, 64, 0
5, 36060, Note_on_c, 4, 64, 100
5, 36060, Note_on_c, 4, 71, 100
5, 36060, Note_on_c, 4, 64, 0
5, 36060, Note_on_c, 4, 71, 0
5, 36120, Note_on_c, 4, 66, 100
5, 36120, Note_on_c, 4, 73, 100
5, 36120, Note_on_c, 4, 64, 0
5, 36120, Note_on_c, 4, 71, 0
5, 36180, Note_on_c, 4, 66, 0
5, 36180, Note_on_c, 4, 73, 0
5, 36240, Note_on_c, 4, 74, 100
5, 36240, Note_on_c, 4, 66, 100
5, 36240, Note_on_c, 4, 64, 100
5, 36240, Note_on_c, 4, 69, 100
5, 36360, Note_on_c, 4, 61, 100
5, 36360, Note_on_c, 4, 64, 100
5, 36360, Note_on_c, 4, 69, 100
5, 36360, Note_on_c, 4, 73, 100
5, 36360, Note_on_c, 4, 69, 0
5, 36360, Note_on_c, 4, 64, 0
5, 36360, Note_on_c, 4, 74, 0
5, 36360, Note_on_c, 4, 66, 0
5, 36480, Note_on_c, 4, 64, 100
5, 36480, Note_on_c, 4, 71, 100
5, 36480, Note_on_c, 4, 61, 0
5, 36480, Note_on_c, 4, 69, 0
5, 36480, Note_on_c, 4, 73, 0
5, 36480, Note_on_c, 4, 64, 0
5, 36540, Note_on_c, 4, 64, 100
5, 36540, Note_on_c, 4, 71, 100
5, 36540, Note_on_c, 4, 71, 0
5, 36540, Note_on_c, 4, 64, 0
5, 36600, Note_on_c, 4, 66, 100
5, 36600, Note_on_c, 4, 73, 100
5, 36600, Note_on_c, 4, 64, 0
5, 36600, Note_on_c, 4, 71, 0
5, 36660, Note_on_c, 4, 66, 0
5, 36660, Note_on_c, 4, 73, 0
5, 36720, Note_on_c, 4, 67, 100
5, 36720, Note_on_c, 4, 74, 100
5, 36780, Note_on_c, 4, 74, 0
5, 36780, Note_on_c, 4, 67, 0
5, 36900, Note_on_c, 4, 64, 100
5, 36900, Note_on_c, 4, 71, 100
5, 36960, Note_on_c, 4, 64, 100
5, 36960, Note_on_c, 4, 71, 100
5, 36960, Note_on_c, 4, 71, 0
5, 36960, Note_on_c, 4, 64, 0
5, 37020, Note_on_c, 4, 64, 100
5, 37020, Note_on_c, 4, 71, 100
5, 37020, Note_on_c, 4, 64, 0
5, 37020, Note_on_c, 4, 71, 0
5, 37080, Note_on_c, 4, 66, 100
5, 37080, Note_on_c, 4, 73, 100
5, 37080, Note_on_c, 4, 64, 0
5, 37080, Note_on_c, 4, 71, 0
5, 37140, Note_on_c, 4, 66, 0
5, 37140, Note_on_c, 4, 73, 0
5, 37200, Note_on_c, 4, 74, 100
5, 37200, Note_on_c, 4, 66, 100
5, 37200, Note_on_c, 4, 64, 100
5, 37200, Note_on_c, 4, 69, 100
5, 37320, Note_on_c, 4, 61, 100
5, 37320, Note_on_c, 4, 64, 100
5, 37320, Note_on_c, 4, 69, 100
5, 37320, Note_on_c, 4, 73, 100
5, 37320, Note_on_c, 4, 69, 0
5, 37320, Note_on_c, 4, 64, 0
5, 37320, Note_on_c, 4, 74, 0
5, 37320, Note_on_c, 4, 66, 0
5, 37440, Note_on_c, 4, 61, 0
5, 37440, Note_on_c, 4, 73, 0
5, 37440, Note_on_c, 4, 64, 0
5, 37440, Note_on_c, 4, 69, 0
5, 37560, Note_on_c, 4, 67, 100
5, 37560, Note_on_c, 4, 72, 100
5, 37560, Note_on_c, 4, 64, 100
5, 37560, Note_on_c, 4, 76, 100
5, 37920, Note_on_c, 4, 76, 0
5, 37920, Note_on_c, 4, 67, 0
5, 37920, Note_on_c, 4, 72, 0
5, 37920, Note_on_c, 4, 64, 0
5, 38040, Note_on_c, 4, 62, 100
5, 38040, Note_on_c, 4, 67, 100
5, 38040, Note_on_c, 4, 74, 100
5, 38040, Note_on_c, 4, 71, 100
5, 38400, Note_on_c, 4, 71, 0
5, 38400, Note_on_c, 4, 62, 0
5, 38400, Note_on_c, 4, 67, 0
5, 38400, Note_on_c, 4, 74, 0
5, 38520, Note_on_c, 4, 64, 100
5, 38520, Note_on_c, 4, 69, 100
5, 38520, Note_on_c, 4, 73, 100
5, 38520, Note_on_c, 4, 76, 100
5, 38880, Note_on_c, 4, 76, 0
5, 38880, Note_on_c, 4, 64, 0
5, 38880, Note_on_c, 4, 69, 0
5, 38880, Note_on_c, 4, 73, 0
5, 39000, Note_on_c, 4, 67, 100
5, 39000, Note_on_c, 4, 74, 100
5, 39000, Note_on_c, 4, 79, 100
5, 39000, Note_on_c, 4, 71, 100
5, 39360, Note_on_c, 4, 67, 100
5, 39360, Note_on_c, 4, 74, 100
5, 39360, Note_on_c, 4, 79, 100
5, 39360, Note_on_c, 4, 71, 100
5, 39360, Note_on_c, 4, 71, 0
5, 39360, Note_on_c, 4, 79, 0
5, 39360, Note_on_c, 4, 67, 0
5, 39360, Note_on_c, 4, 74, 0
5, 39840, Note_on_c, 4, 67, 0
5, 39840, Note_on_c, 4, 71, 0
5, 39840, Note_on_c, 4, 74, 0
5, 39840, Note_on_c, 4, 79, 0
5, 40080, Note_on_c, 4, 62, 100
5, 40140, Note_on_c, 4, 61, 100
5, 40140, Note_on_c, 4, 62, 0
5, 40200, Note_on_c, 4, 61, 0
5, 41040, Note_on_c, 4, 62, 100
5, 41100, Note_on_c, 4, 61, 100
5, 41100, Note_on_c, 4, 62, 0
5, 41160, Note_on_c, 4, 59, 100
5, 41160, Note_on_c, 4, 61, 0
5, 41220, Note_on_c, 4, 52, 100
5, 41220, Note_on_c, 4, 59, 0
5, 41280, Note_on_c, 4, 52, 100
5, 41280, Note_on_c, 4, 52, 0
5, 41340, Note_on_c, 4, 52, 0
5, 42000, Note_on_c, 4, 62, 100
5, 42060, Note_on_c, 4, 61, 100
5, 42060, Note_on_c, 4, 62, 0
5, 42120, Note_on_c, 4, 61, 0
5, 42960, Note_on_c, 4, 62, 100
5, 43020, Note_on_c, 4, 61, 100
5, 43020, Note_on_c, 4, 62, 0
5, 43080, Note_on_c, 4, 59, 100
5, 43080, Note_on_c, 4, 61, 0
5, 43140, Note_on_c, 4, 52, 100
5, 43140, Note_on_c, 4, 59, 0
5, 43200, Note_on_c, 4, 52, 100
5, 43200, Note_on_c, 4, 52, 0
5, 43260, Note_on_c, 4, 52, 0
5, 43680, Note_on_c, 4, 64, 100
5, 43680, Note_on_c, 4, 71, 100
5, 43740, Note_on_c, 4, 64, 100
5, 43740, Note_on_c, 4, 71, 100
5, 43740, Note_on_c, 4, 71, 0
5, 43740, Note_on_c, 4, 64, 0
5, 43800, Note_on_c, 4, 66, 100
5, 43800, Note_on_c, 4, 73, 100
5, 43800, Note_on_c, 4, 64, 0
5, 43800, Note_on_c, 4, 71, 0
5, 43860, Note_on_c, 4, 66, 0
5, 43860, Note_on_c, 4, 73, 0
5, 43920, Note_on_c, 4, 67, 100
5, 43920, Note_on_c, 4, 74, 100
5, 43980, Note_on_c, 4, 74, 0
5, 43980, Note_on_c, 4, 67, 0
5, 44100, Note_on_c, 4, 64, 100
5, 44100, Note_on_c, 4, 71, 100
5, 44160, Note_on_c, 4, 64, 100
5, 44160, Note_on_c, 4, 71, 100
5, 44160, Note_on_c, 4, 71, 0
5, 44160, Note_on_c, 4, 64, 0
5, 44220, Note_on_c, 4, 64, 100
5, 44220, Note_on_c, 4, 71, 100
5, 44220, Note_on_c, 4, 64, 0
5, 44220, Note_on_c, 4, 71, 0
5, 44280, Note_on_c, 4, 66, 100
5, 44280, Note_on_c, 4, 73, 100
5, 44280, Note_on_c, 4, 64, 0
5, 44280, Note_on_c, 4, 71, 0
5, 44340, Note_on_c, 4, 66, 0
5, 44340, Note_on_c, 4, 73, 0
5, 44400, Note_on_c, 4, 67, 100
5, 44400, Note_on_c, 4, 74, 100
5, 44460, Note_on_c, 4, 74, 0
5, 44460, Note_on_c, 4, 67, 0
5, 44520, Note_on_c, 4, 66, 100
5, 44520, Note_on_c, 4, 73, 100
5, 44580, Note_on_c, 4, 64, 100
5, 44580, Note_on_c, 4, 71, 100
5, 44580, Note_on_c, 4, 73, 0
5, 44580, Note_on_c, 4, 66, 0
5, 44640, Note_on_c, 4, 64, 100
5, 44640, Note_on_c, 4, 71, 100
5, 44640, Note_on_c, 4, 64, 0
5, 44640, Note_on_c, 4, 71, 0
5, 44700, Note_on_c, 4, 64, 100
5, 44700, Note_on_c, 4, 71, 100
5, 44700, Note_on_c, 4, 64, 0
5, 44700, Note_on_c, 4, 71, 0
5, 44760, Note_on_c, 4, 66, 100
5, 44760, Note_on_c, 4, 73, 100
5, 44760, Note_on_c, 4, 64, 0
5, 44760, Note_on_c, 4, 71, 0
5, 44820, Note_on_c, 4, 66, 0
5, 44820, Note_on_c, 4, 73, 0
5, 44880, Note_on_c, 4, 67, 100
5, 44880, Note_on_c, 4, 74, 100
5, 44940, Note_on_c, 4, 74, 0
5, 44940, Note_on_c, 4, 67, 0
5, 45060, Note_on_c, 4, 64, 100
5, 45060, Note_on_c, 4, 71, 100
5, 45120, Note_on_c, 4, 64, 100
5, 45120, Note_on_c, 4, 71, 100
5, 45120, Note_on_c, 4, 71, 0
5, 45120, Note_on_c, 4, 64, 0
5, 45180, Note_on_c, 4, 64, 100
5, 45180, Note_on_c, 4, 71, 100
5, 45180, Note_on_c, 4, 64, 0
5, 45180, Note_on_c, 4, 71, 0
5, 45240, Note_on_c, 4, 66, 100
5, 45240, Note_on_c, 4, 73, 100
5, 45240, Note_on_c, 4, 64, 0
5, 45240, Note_on_c, 4, 71, 0
5, 45300, Note_on_c, 4, 66, 0
5, 45300, Note_on_c, 4, 73, 0
5, 45360, Note_on_c, 4, 74, 100
5, 45360, Note_on_c, 4, 66, 100
5, 45360, Note_on_c, 4, 64, 100
5, 45360, Note_on_c, 4, 69, 100
5, 45480, Note_on_c, 4, 61, 100
5, 45480, Note_on_c, 4, 64, 100
5, 45480, Note_on_c, 4, 69, 100
5, 45480, Note_on_c, 4, 73, 100
5, 45480, Note_on_c, 4, 69, 0
5, 45480, Note_on_c, 4, 64, 0
5, 45480, Note_on_c, 4, 74, 0
5, 45480, Note_on_c, 4, 66, 0
5, 45600, Note_on_c, 4, 59, 100
5, 45600, Note_on_c, 4, 64, 100
5, 45600, Note_on_c, 4, 68, 100
5, 45600, Note_on_c, 4, 71, 100
5, 45600, Note_on_c, 4, 61, 0
5, 45600, Note_on_c, 4, 69, 0
5, 45600, Note_on_c, 4, 73, 0
5, 45600, Note_on_c, 4, 64, 0
5, 46080, Note_on_c, 4, 59, 100
5, 46080, Note_on_c, 4, 64, 100
5, 46080, Note_on_c, 4, 68, 100
5, 46080, Note_on_c, 4, 71, 100
5, 46080, Note_on_c, 4, 59, 0
5, 46080, Note_on_c, 4, 68, 0
5, 46080, Note_on_c, 4, 71, 0
5, 46080, Note_on_c, 4, 64, 0
5, 46560, Note_on_c, 4, 59, 0
5, 46560, Note_on_c, 4, 71, 0
5, 46560, Note_on_c, 4, 64, 0
5, 46560, Note_on_c, 4, 68, 0
5, 46560, End_track
6, 0, Start_track
6, 0, MIDI_port, 0
6, 0, Title_t, "bass"
6, 0, Control_c, 1, 7, 120
6, 0, Note_on_c, 1, 40, 100
6, 60, Note_on_c, 1, 40, 100
6, 60, Note_on_c, 1, 40, 0
6, 120, Note_on_c, 1, 42, 100
6, 120, Note_on_c, 1, 40, 0
6, 180, Note_on_c, 1, 40, 100
6, 180, Note_on_c, 1, 42, 0
6, 240, Note_on_c, 1, 43, 100
6, 240, Note_on_c, 1, 40, 0
6, 300, Note_on_c, 1, 43, 0
6, 360, Note_on_c, 1, 42, 100
6, 420, Note_on_c, 1, 40, 100
6, 420, Note_on_c, 1, 42, 0
6, 480, Note_on_c, 1, 40, 100
6, 480, Note_on_c, 1, 40, 0
6, 540, Note_on_c, 1, 40, 100
6, 540, Note_on_c, 1, 40, 0
6, 600, Note_on_c, 1, 42, 100
6, 600, Note_on_c, 1, 40, 0
6, 660, Note_on_c, 1, 40, 100
6, 660, Note_on_c, 1, 42, 0
6, 720, Note_on_c, 1, 43, 100
6, 720, Note_on_c, 1, 40, 0
6, 780, Note_on_c, 1, 40, 100
6, 780, Note_on_c, 1, 43, 0
6, 840, Note_on_c, 1, 42, 100
6, 840, Note_on_c, 1, 40, 0
6, 900, Note_on_c, 1, 40, 100
6, 900, Note_on_c, 1, 42, 0
6, 960, Note_on_c, 1, 40, 100
6, 960, Note_on_c, 1, 40, 0
6, 1020, Note_on_c, 1, 40, 100
6, 1020, Note_on_c, 1, 40, 0
6, 1080, Note_on_c, 1, 42, 100
6, 1080, Note_on_c, 1, 40, 0
6, 1140, Note_on_c, 1, 40, 100
6, 1140, Note_on_c, 1, 42, 0
6, 1200, Note_on_c, 1, 43, 100
6, 1200, Note_on_c, 1, 40, 0
6, 1260, Note_on_c, 1, 43, 0
6, 1380, Note_on_c, 1, 40, 100
6, 1440, Note_on_c, 1, 40, 100
6, 1440, Note_on_c, 1, 40, 0
6, 1500, Note_on_c, 1, 40, 100
6, 1500, Note_on_c, 1, 40, 0
6, 1560, Note_on_c, 1, 42, 100
6, 1560, Note_on_c, 1, 40, 0
6, 1620, Note_on_c, 1, 40, 100
6, 1620, Note_on_c, 1, 42, 0
6, 1680, Note_on_c, 1, 43, 100
6, 1680, Note_on_c, 1, 50, 100
6, 1680, Note_on_c, 1, 57, 100
6, 1680, Note_on_c, 1, 40, 0
6, 1800, Note_on_c, 1, 42, 100
6, 1800, Note_on_c, 1, 49, 100
6, 1800, Note_on_c, 1, 43, 0
6, 1800, Note_on_c, 1, 57, 0
6, 1800, Note_on_c, 1, 50, 0
6, 1920, Note_on_c, 1, 40, 100
6, 1920, Note_on_c, 1, 42, 0
6, 1920, Note_on_c, 1, 49, 0
6, 1980, Note_on_c, 1, 40, 100
6, 1980, Note_on_c, 1, 40, 0
6, 2040, Note_on_c, 1, 42, 100
6, 2040, Note_on_c, 1, 40, 0
6, 2100, Note_on_c, 1, 40, 100
6, 2100, Note_on_c, 1, 42, 0
6, 2160, Note_on_c, 1, 43, 100
6, 2160, Note_on_c, 1, 40, 0
6, 2220, Note_on_c, 1, 43, 0
6, 2340, Note_on_c, 1, 40, 100
6, 2400, Note_on_c, 1, 40, 100
6, 2400, Note_on_c, 1, 40, 0
6, 2460, Note_on_c, 1, 40, 100
6, 2460, Note_on_c, 1, 40, 0
6, 2520, Note_on_c, 1, 42, 100
6, 2520, Note_on_c, 1, 40, 0
6, 2580, Note_on_c, 1, 40, 100
6, 2580, Note_on_c, 1, 42, 0
6, 2640, Note_on_c, 1, 43, 100
6, 2640, Note_on_c, 1, 50, 100
6, 2640, Note_on_c, 1, 57, 100
6, 2640, Note_on_c, 1, 40, 0
6, 2760, Note_on_c, 1, 42, 100
6, 2760, Note_on_c, 1, 49, 100
6, 2760, Note_on_c, 1, 43, 0
6, 2760, Note_on_c, 1, 57, 0
6, 2760, Note_on_c, 1, 50, 0
6, 2880, Note_on_c, 1, 40, 100
6, 2880, Note_on_c, 1, 42, 0
6, 2880, Note_on_c, 1, 49, 0
6, 2940, Note_on_c, 1, 40, 100
6, 2940, Note_on_c, 1, 40, 0
6, 3000, Note_on_c, 1, 42, 100
6, 3000, Note_on_c, 1, 40, 0
6, 3060, Note_on_c, 1, 40, 100
6, 3060, Note_on_c, 1, 42, 0
6, 3120, Note_on_c, 1, 43, 100
6, 3120, Note_on_c, 1, 40, 0
6, 3180, Note_on_c, 1, 43, 0
6, 3300, Note_on_c, 1, 40, 100
6, 3360, Note_on_c, 1, 40, 100
6, 3360, Note_on_c, 1, 40, 0
6, 3420, Note_on_c, 1, 40, 100
6, 3420, Note_on_c, 1, 40, 0
6, 3480, Note_on_c, 1, 42, 100
6, 3480, Note_on_c, 1, 40, 0
6, 3540, Note_on_c, 1, 40, 100
6, 3540, Note_on_c, 1, 42, 0
6, 3600, Note_on_c, 1, 43, 100
6, 3600, Note_on_c, 1, 50, 100
6, 3600, Note_on_c, 1, 57, 100
6, 3600, Note_on_c, 1, 40, 0
6, 3720, Note_on_c, 1, 42, 100
6, 3720, Note_on_c, 1, 49, 100
6, 3720, Note_on_c, 1, 43, 0
6, 3720, Note_on_c, 1, 57, 0
6, 3720, Note_on_c, 1, 50, 0
6, 3840, Note_on_c, 1, 40, 100
6, 3840, Note_on_c, 1, 42, 0
6, 3840, Note_on_c, 1, 49, 0
6, 3900, Note_on_c, 1, 40, 100
6, 3900, Note_on_c, 1, 40, 0
6, 3960, Note_on_c, 1, 42, 100
6, 3960, Note_on_c, 1, 40, 0
6, 4020, Note_on_c, 1, 40, 100
6, 4020, Note_on_c, 1, 42, 0
6, 4080, Note_on_c, 1, 43, 100
6, 4080, Note_on_c, 1, 40, 0
6, 4140, Note_on_c, 1, 43, 0
6, 4260, Note_on_c, 1, 40, 100
6, 4320, Note_on_c, 1, 40, 100
6, 4320, Note_on_c, 1, 40, 0
6, 4380, Note_on_c, 1, 40, 100
6, 4380, Note_on_c, 1, 40, 0
6, 4440, Note_on_c, 1, 42, 100
6, 4440, Note_on_c, 1, 40, 0
6, 4500, Note_on_c, 1, 40, 100
6, 4500, Note_on_c, 1, 42, 0
6, 4560, Note_on_c, 1, 43, 100
6, 4560, Note_on_c, 1, 50, 100
6, 4560, Note_on_c, 1, 57, 100
6, 4560, Note_on_c, 1, 40, 0
6, 4680, Note_on_c, 1, 42, 100
6, 4680, Note_on_c, 1, 49, 100
6, 4680, Note_on_c, 1, 43, 0
6, 4680, Note_on_c, 1, 57, 0
6, 4680, Note_on_c, 1, 50, 0
6, 4800, Note_on_c, 1, 40, 100
6, 4800, Note_on_c, 1, 42, 0
6, 4800, Note_on_c, 1, 49, 0
6, 4860, Note_on_c, 1, 40, 100
6, 4860, Note_on_c, 1, 40, 0
6, 4920, Note_on_c, 1, 42, 100
6, 4920, Note_on_c, 1, 40, 0
6, 4980, Note_on_c, 1, 40, 100
6, 4980, Note_on_c, 1, 42, 0
6, 5040, Note_on_c, 1, 43, 100
6, 5040, Note_on_c, 1, 40, 0
6, 5100, Note_on_c, 1, 43, 0
6, 5220, Note_on_c, 1, 40, 100
6, 5280, Note_on_c, 1, 40, 100
6, 5280, Note_on_c, 1, 40, 0
6, 5340, Note_on_c, 1, 40, 100
6, 5340, Note_on_c, 1, 40, 0
6, 5400, Note_on_c, 1, 42, 100
6, 5400, Note_on_c, 1, 40, 0
6, 5460, Note_on_c, 1, 40, 100
6, 5460, Note_on_c, 1, 42, 0
6, 5520, Note_on_c, 1, 43, 100
6, 5520, Note_on_c, 1, 50, 100
6, 5520, Note_on_c, 1, 57, 100
6, 5520, Note_on_c, 1, 40, 0
6, 5640, Note_on_c, 1, 42, 100
6, 5640, Note_on_c, 1, 49, 100
6, 5640, Note_on_c, 1, 43, 0
6, 5640, Note_on_c, 1, 57, 0
6, 5640, Note_on_c, 1, 50, 0
6, 5760, Note_on_c, 1, 36, 100
6, 5760, Note_on_c, 1, 43, 100
6, 5760, Note_on_c, 1, 42, 0
6, 5760, Note_on_c, 1, 49, 0
6, 5820, Note_on_c, 1, 52, 100
6, 6000, Note_on_c, 1, 52, 100
6, 6000, Note_on_c, 1, 52, 0
6, 6240, Note_on_c, 1, 43, 100
6, 6240, Note_on_c, 1, 50, 100
6, 6240, Note_on_c, 1, 43, 0
6, 6240, Note_on_c, 1, 52, 0
6, 6240, Note_on_c, 1, 36, 0
6, 6300, Note_on_c, 1, 59, 100
6, 6480, Note_on_c, 1, 59, 100
6, 6480, Note_on_c, 1, 59, 0
6, 6720, Note_on_c, 1, 45, 100
6, 6720, Note_on_c, 1, 52, 100
6, 6720, Note_on_c, 1, 50, 0
6, 6720, Note_on_c, 1, 59, 0
6, 6720, Note_on_c, 1, 43, 0
6, 6780, Note_on_c, 1, 61, 100
6, 6960, Note_on_c, 1, 61, 100
6, 6960, Note_on_c, 1, 61, 0
6, 7200, Note_on_c, 1, 40, 100
6, 7200, Note_on_c, 1, 52, 0
6, 7200, Note_on_c, 1, 61, 0
6, 7200, Note_on_c, 1, 45, 0
6, 7260, Note_on_c, 1, 40, 100
6, 7260, Note_on_c, 1, 40, 0
6, 7320, Note_on_c, 1, 43, 100
6, 7320, Note_on_c, 1, 40, 0
6, 7380, Note_on_c, 1, 40, 100
6, 7380, Note_on_c, 1, 43, 0
6, 7440, Note_on_c, 1, 40, 100
6, 7440, Note_on_c, 1, 40, 0
6, 7500, Note_on_c, 1, 40, 100
6, 7500, Note_on_c, 1, 40, 0
6, 7560, Note_on_c, 1, 43, 100
6, 7560, Note_on_c, 1, 40, 0
6, 7620, Note_on_c, 1, 40, 100
6, 7620, Note_on_c, 1, 43, 0
6, 7680, Note_on_c, 1, 40, 100
6, 7680, Note_on_c, 1, 40, 0
6, 7740, Note_on_c, 1, 40, 100
6, 7740, Note_on_c, 1, 40, 0
6, 7800, Note_on_c, 1, 43, 100
6, 7800, Note_on_c, 1, 40, 0
6, 7860, Note_on_c, 1, 40, 100
6, 7860, Note_on_c, 1, 43, 0
6, 7920, Note_on_c, 1, 40, 100
6, 7920, Note_on_c, 1, 40, 0
6, 7980, Note_on_c, 1, 40, 100
6, 7980, Note_on_c, 1, 40, 0
6, 8040, Note_on_c, 1, 43, 100
6, 8040, Note_on_c, 1, 40, 0
6, 8100, Note_on_c, 1, 40, 100
6, 8100, Note_on_c, 1, 43, 0
6, 8160, Note_on_c, 1, 40, 100
6, 8160, Note_on_c, 1, 40, 0
6, 8220, Note_on_c, 1, 40, 100
6, 8220, Note_on_c, 1, 40, 0
6, 8280, Note_on_c, 1, 42, 100
6, 8280, Note_on_c, 1, 40, 0
6, 8340, Note_on_c, 1, 40, 100
6, 8340, Note_on_c, 1, 42, 0
6, 8400, Note_on_c, 1, 43, 100
6, 8400, Note_on_c, 1, 40, 0
6, 8460, Note_on_c, 1, 43, 0
6, 8520, Note_on_c, 1, 42, 100
6, 8580, Note_on_c, 1, 40, 100
6, 8580, Note_on_c, 1, 42, 0
6, 8640, Note_on_c, 1, 40, 100
6, 8640, Note_on_c, 1, 40, 0
6, 8700, Note_on_c, 1, 40, 100
6, 8700, Note_on_c, 1, 40, 0
6, 8760, Note_on_c, 1, 42, 100
6, 8760, Note_on_c, 1, 40, 0
6, 8820, Note_on_c, 1, 40, 100
6, 8820, Note_on_c, 1, 42, 0
6, 8880, Note_on_c, 1, 43, 100
6, 8880, Note_on_c, 1, 40, 0
6, 8940, Note_on_c, 1, 40, 100
6, 8940, Note_on_c, 1, 43, 0
6, 9000, Note_on_c, 1, 42, 100
6, 9000, Note_on_c, 1, 40, 0
6, 9060, Note_on_c, 1, 40, 100
6, 9060, Note_on_c, 1, 42, 0
6, 9120, Note_on_c, 1, 40, 100
6, 9120, Note_on_c, 1, 40, 0
6, 9180, Note_on_c, 1, 40, 100
6, 9180, Note_on_c, 1, 40, 0
6, 9240, Note_on_c, 1, 42, 100
6, 9240, Note_on_c, 1, 40, 0
6, 9300, Note_on_c, 1, 40, 100
6, 9300, Note_on_c, 1, 42, 0
6, 9360, Note_on_c, 1, 43, 100
6, 9360, Note_on_c, 1, 40, 0
6, 9420, Note_on_c, 1, 43, 0
6, 9480, Note_on_c, 1, 42, 100
6, 9540, Note_on_c, 1, 40, 100
6, 9540, Note_on_c, 1, 42, 0
6, 9600, Note_on_c, 1, 40, 100
6, 9600, Note_on_c, 1, 40, 0
6, 9660, Note_on_c, 1, 40, 100
6, 9660, Note_on_c, 1, 40, 0
6, 9720, Note_on_c, 1, 42, 100
6, 9720, Note_on_c, 1, 40, 0
6, 9780, Note_on_c, 1, 40, 100
6, 9780, Note_on_c, 1, 42, 0
6, 9840, Note_on_c, 1, 43, 100
6, 9840, Note_on_c, 1, 40, 0
6, 9900, Note_on_c, 1, 40, 100
6, 9900, Note_on_c, 1, 43, 0
6, 9960, Note_on_c, 1, 42, 100
6, 9960, Note_on_c, 1, 40, 0
6, 10020, Note_on_c, 1, 40, 100
6, 10020, Note_on_c, 1, 42, 0
6, 10080, Note_on_c, 1, 40, 100
6, 10080, Note_on_c, 1, 40, 0
6, 10140, Note_on_c, 1, 40, 100
6, 10140, Note_on_c, 1, 40, 0
6, 10200, Note_on_c, 1, 42, 100
6, 10200, Note_on_c, 1, 40, 0
6, 10260, Note_on_c, 1, 40, 100
6, 10260, Note_on_c, 1, 42, 0
6, 10320, Note_on_c, 1, 43, 100
6, 10320, Note_on_c, 1, 40, 0
6, 10380, Note_on_c, 1, 43, 0
6, 10440, Note_on_c, 1, 42, 100
6, 10500, Note_on_c, 1, 40, 100
6, 10500, Note_on_c, 1, 42, 0
6, 10560, Note_on_c, 1, 40, 100
6, 10560, Note_on_c, 1, 40, 0
6, 10620, Note_on_c, 1, 40, 100
6, 10620, Note_on_c, 1, 40, 0
6, 10680, Note_on_c, 1, 42, 100
6, 10680, Note_on_c, 1, 40, 0
6, 10740, Note_on_c, 1, 40, 100
6, 10740, Note_on_c, 1, 42, 0
6, 10800, Note_on_c, 1, 43, 100
6, 10800, Note_on_c, 1, 40, 0
6, 10860, Note_on_c, 1, 40, 100
6, 10860, Note_on_c, 1, 43, 0
6, 10920, Note_on_c, 1, 42, 100
6, 10920, Note_on_c, 1, 40, 0
6, 10980, Note_on_c, 1, 40, 100
6, 10980, Note_on_c, 1, 42, 0
6, 11040, Note_on_c, 1, 40, 100
6, 11040, Note_on_c, 1, 40, 0
6, 11100, Note_on_c, 1, 40, 100
6, 11100, Note_on_c, 1, 40, 0
6, 11160, Note_on_c, 1, 42, 100
6, 11160, Note_on_c, 1, 40, 0
6, 11220, Note_on_c, 1, 40, 100
6, 11220, Note_on_c, 1, 42, 0
6, 11280, Note_on_c, 1, 43, 100
6, 11280, Note_on_c, 1, 40, 0
6, 11340, Note_on_c, 1, 43, 0
6, 11400, Note_on_c, 1, 42, 100
6, 11460, Note_on_c, 1, 40, 100
6, 11460, Note_on_c, 1, 42, 0
6, 11520, Note_on_c, 1, 40, 100
6, 11520, Note_on_c, 1, 40, 0
6, 11580, Note_on_c, 1, 40, 100
6, 11580, Note_on_c, 1, 40, 0
6, 11640, Note_on_c, 1, 42, 100
6, 11640, Note_on_c, 1, 40, 0
6, 11700, Note_on_c, 1, 40, 100
6, 11700, Note_on_c, 1, 42, 0
6, 11760, Note_on_c, 1, 43, 100
6, 11760, Note_on_c, 1, 40, 0
6, 11820, Note_on_c, 1, 40, 100
6, 11820, Note_on_c, 1, 43, 0
6, 11880, Note_on_c, 1, 42, 100
6, 11880, Note_on_c, 1, 40, 0
6, 11940, Note_on_c, 1, 40, 100
6, 11940, Note_on_c, 1, 42, 0
6, 12000, Note_on_c, 1, 40, 100
6, 12000, Note_on_c, 1, 40, 0
6, 12060, Note_on_c, 1, 40, 100
6, 12060, Note_on_c, 1, 40, 0
6, 12120, Note_on_c, 1, 42, 100
6, 12120, Note_on_c, 1, 40, 0
6, 12180, Note_on_c, 1, 40, 100
6, 12180, Note_on_c, 1, 42, 0
6, 12240, Note_on_c, 1, 43, 100
6, 12240, Note_on_c, 1, 40, 0
6, 12300, Note_on_c, 1, 43, 0
6, 12360, Note_on_c, 1, 42, 100
6, 12420, Note_on_c, 1, 40, 100
6, 12420, Note_on_c, 1, 42, 0
6, 12480, Note_on_c, 1, 40, 100
6, 12480, Note_on_c, 1, 40, 0
6, 12540, Note_on_c, 1, 40, 100
6, 12540, Note_on_c, 1, 40, 0
6, 12600, Note_on_c, 1, 42, 100
6, 12600, Note_on_c, 1, 40, 0
6, 12660, Note_on_c, 1, 40, 100
6, 12660, Note_on_c, 1, 42, 0
6, 12720, Note_on_c, 1, 43, 100
6, 12720, Note_on_c, 1, 40, 0
6, 12780, Note_on_c, 1, 40, 100
6, 12780, Note_on_c, 1, 43, 0
6, 12840, Note_on_c, 1, 42, 100
6, 12840, Note_on_c, 1, 40, 0
6, 12900, Note_on_c, 1, 40, 100
6, 12900, Note_on_c, 1, 42, 0
6, 12960, Note_on_c, 1, 40, 100
6, 12960, Note_on_c, 1, 40, 0
6, 13020, Note_on_c, 1, 40, 100
6, 13020, Note_on_c, 1, 40, 0
6, 13080, Note_on_c, 1, 42, 100
6, 13080, Note_on_c, 1, 40, 0
6, 13140, Note_on_c, 1, 40, 100
6, 13140, Note_on_c, 1, 42, 0
6, 13200, Note_on_c, 1, 43, 100
6, 13200, Note_on_c, 1, 40, 0
6, 13260, Note_on_c, 1, 43, 0
6, 13380, Note_on_c, 1, 40, 100
6, 13440, Note_on_c, 1, 40, 100
6, 13440, Note_on_c, 1, 40, 0
6, 13500, Note_on_c, 1, 40, 100
6, 13500, Note_on_c, 1, 40, 0
6, 13560, Note_on_c, 1, 42, 100
6, 13560, Note_on_c, 1, 40, 0
6, 13620, Note_on_c, 1, 40, 100
6, 13620, Note_on_c, 1, 42, 0
6, 13680, Note_on_c, 1, 43, 100
6, 13680, Note_on_c, 1, 50, 100
6, 13680, Note_on_c, 1, 57, 100
6, 13680, Note_on_c, 1, 40, 0
6, 13800, Note_on_c, 1, 42, 100
6, 13800, Note_on_c, 1, 49, 100
6, 13800, Note_on_c, 1, 43, 0
6, 13800, Note_on_c, 1, 57, 0
6, 13800, Note_on_c, 1, 50, 0
6, 13920, Note_on_c, 1, 40, 100
6, 13920, Note_on_c, 1, 42, 0
6, 13920, Note_on_c, 1, 49, 0
6, 13980, Note_on_c, 1, 40, 100
6, 13980, Note_on_c, 1, 40, 0
6, 14040, Note_on_c, 1, 42, 100
6, 14040, Note_on_c, 1, 40, 0
6, 14100, Note_on_c, 1, 40, 100
6, 14100, Note_on_c, 1, 42, 0
6, 14160, Note_on_c, 1, 43, 100
6, 14160, Note_on_c, 1, 40, 0
6, 14220, Note_on_c, 1, 43, 0
6, 14340, Note_on_c, 1, 40, 100
6, 14400, Note_on_c, 1, 40, 100
6, 14400, Note_on_c, 1, 40, 0
6, 14460, Note_on_c, 1, 40, 100
6, 14460, Note_on_c, 1, 40, 0
6, 14520, Note_on_c, 1, 42, 100
6, 14520, Note_on_c, 1, 40, 0
6, 14580, Note_on_c, 1, 40, 100
6, 14580, Note_on_c, 1, 42, 0
6, 14640, Note_on_c, 1, 43, 100
6, 14640, Note_on_c, 1, 50, 100
6, 14640, Note_on_c, 1, 57, 100
6, 14640, Note_on_c, 1, 40, 0
6, 14760, Note_on_c, 1, 42, 100
6, 14760, Note_on_c, 1, 49, 100
6, 14760, Note_on_c, 1, 43, 0
6, 14760, Note_on_c, 1, 57, 0
6, 14760, Note_on_c, 1, 50, 0
6, 14880, Note_on_c, 1, 40, 100
6, 14880, Note_on_c, 1, 42, 0
6, 14880, Note_on_c, 1, 49, 0
6, 14940, Note_on_c, 1, 40, 100
6, 14940, Note_on_c, 1, 40, 0
6, 15000, Note_on_c, 1, 42, 100
6, 15000, Note_on_c, 1, 40, 0
6, 15060, Note_on_c, 1, 40, 100
6, 15060, Note_on_c, 1, 42, 0
6, 15120, Note_on_c, 1, 43, 100
6, 15120, Note_on_c, 1, 40, 0
6, 15180, Note_on_c, 1, 43, 0
6, 15300, Note_on_c, 1, 40, 100
6, 15360, Note_on_c, 1, 40, 100
6, 15360, Note_on_c, 1, 40, 0
6, 15420, Note_on_c, 1, 40, 100
6, 15420, Note_on_c, 1, 40, 0
6, 15480, Note_on_c, 1, 42, 100
6, 15480, Note_on_c, 1, 40, 0
6, 15540, Note_on_c, 1, 40, 100
6, 15540, Note_on_c, 1, 42, 0
6, 15600, Note_on_c, 1, 43, 100
6, 15600, Note_on_c, 1, 50, 100
6, 15600, Note_on_c, 1, 57, 100
6, 15600, Note_on_c, 1, 40, 0
6, 15720, Note_on_c, 1, 42, 100
6, 15720, Note_on_c, 1, 49, 100
6, 15720, Note_on_c, 1, 43, 0
6, 15720, Note_on_c, 1, 57, 0
6, 15720, Note_on_c, 1, 50, 0
6, 15840, Note_on_c, 1, 40, 100
6, 15840, Note_on_c, 1, 42, 0
6, 15840, Note_on_c, 1, 49, 0
6, 15900, Note_on_c, 1, 40, 100
6, 15900, Note_on_c, 1, 40, 0
6, 15960, Note_on_c, 1, 42, 100
6, 15960, Note_on_c, 1, 40, 0
6, 16020, Note_on_c, 1, 40, 100
6, 16020, Note_on_c, 1, 42, 0
6, 16080, Note_on_c, 1, 43, 100
6, 16080, Note_on_c, 1, 40, 0
6, 16140, Note_on_c, 1, 43, 0
6, 16260, Note_on_c, 1, 40, 100
6, 16320, Note_on_c, 1, 40, 100
6, 16320, Note_on_c, 1, 40, 0
6, 16380, Note_on_c, 1, 40, 100
6, 16380, Note_on_c, 1, 40, 0
6, 16440, Note_on_c, 1, 42, 100
6, 16440, Note_on_c, 1, 40, 0
6, 16500, Note_on_c, 1, 40, 100
6, 16500, Note_on_c, 1, 42, 0
6, 16560, Note_on_c, 1, 43, 100
6, 16560, Note_on_c, 1, 50, 100
6, 16560, Note_on_c, 1, 57, 100
6, 16560, Note_on_c, 1, 40, 0
6, 16680, Note_on_c, 1, 42, 100
6, 16680, Note_on_c, 1, 49, 100
6, 16680, Note_on_c, 1, 43, 0
6, 16680, Note_on_c, 1, 57, 0
6, 16680, Note_on_c, 1, 50, 0
6, 16800, Note_on_c, 1, 40, 100
6, 16800, Note_on_c, 1, 42, 0
6, 16800, Note_on_c, 1, 49, 0
6, 16860, Note_on_c, 1, 40, 100
6, 16860, Note_on_c, 1, 40, 0
6, 16920, Note_on_c, 1, 42, 100
6, 16920, Note_on_c, 1, 40, 0
6, 16980, Note_on_c, 1, 40, 100
6, 16980, Note_on_c, 1, 42, 0
6, 17040, Note_on_c, 1, 43, 100
6, 17040, Note_on_c, 1, 40, 0
6, 17100, Note_on_c, 1, 43, 0
6, 17220, Note_on_c, 1, 40, 100
6, 17280, Note_on_c, 1, 40, 100
6, 17280, Note_on_c, 1, 40, 0
6, 17340, Note_on_c, 1, 40, 100
6, 17340, Note_on_c, 1, 40, 0
6, 17400, Note_on_c, 1, 42, 100
6, 17400, Note_on_c, 1, 40, 0
6, 17460, Note_on_c, 1, 40, 100
6, 17460, Note_on_c, 1, 42, 0
6, 17520, Note_on_c, 1, 43, 100
6, 17520, Note_on_c, 1, 50, 100
6, 17520, Note_on_c, 1, 57, 100
6, 17520, Note_on_c, 1, 40, 0
6, 17640, Note_on_c, 1, 42, 100
6, 17640, Note_on_c, 1, 49, 100
6, 17640, Note_on_c, 1, 43, 0
6, 17640, Note_on_c, 1, 57, 0
6, 17640, Note_on_c, 1, 50, 0
6, 17760, Note_on_c, 1, 36, 100
6, 17760, Note_on_c, 1, 43, 100
6, 17760, Note_on_c, 1, 42, 0
6, 17760, Note_on_c, 1, 49, 0
6, 17820, Note_on_c, 1, 52, 100
6, 18000, Note_on_c, 1, 52, 100
6, 18000, Note_on_c, 1, 52, 0
6, 18240, Note_on_c, 1, 43, 100
6, 18240, Note_on_c, 1, 50, 100
6, 18240, Note_on_c, 1, 43, 0
6, 18240, Note_on_c, 1, 52, 0
6, 18240, Note_on_c, 1, 36, 0
6, 18300, Note_on_c, 1, 59, 100
6, 18480, Note_on_c, 1, 59, 100
6, 18480, Note_on_c, 1, 59, 0
6, 18720, Note_on_c, 1, 45, 100
6, 18720, Note_on_c, 1, 52, 100
6, 18720, Note_on_c, 1, 50, 0
6, 18720, Note_on_c, 1, 59, 0
6, 18720, Note_on_c, 1, 43, 0
6, 18780, Note_on_c, 1, 61, 100
6, 18960, Note_on_c, 1, 61, 100
6, 18960, Note_on_c, 1, 61, 0
6, 19200, Note_on_c, 1, 40, 100
6, 19200, Note_on_c, 1, 52, 0
6, 19200, Note_on_c, 1, 61, 0
6, 19200, Note_on_c, 1, 45, 0
6, 19260, Note_on_c, 1, 40, 100
6, 19260, Note_on_c, 1, 40, 0
6, 19320, Note_on_c, 1, 43, 100
6, 19320, Note_on_c, 1, 40, 0
6, 19380, Note_on_c, 1, 40, 100
6, 19380, Note_on_c, 1, 43, 0
6, 19440, Note_on_c, 1, 40, 100
6, 19440, Note_on_c, 1, 40, 0
6, 19500, Note_on_c, 1, 40, 100
6, 19500, Note_on_c, 1, 40, 0
6, 19560, Note_on_c, 1, 43, 100
6, 19560, Note_on_c, 1, 40, 0
6, 19620, Note_on_c, 1, 40, 100
6, 19620, Note_on_c, 1, 43, 0
6, 19680, Note_on_c, 1, 40, 100
6, 19680, Note_on_c, 1, 40, 0
6, 19740, Note_on_c, 1, 40, 100
6, 19740, Note_on_c, 1, 40, 0
6, 19800, Note_on_c, 1, 43, 100
6, 19800, Note_on_c, 1, 40, 0
6, 19860, Note_on_c, 1, 40, 100
6, 19860, Note_on_c, 1, 43, 0
6, 19920, Note_on_c, 1, 40, 100
6, 19920, Note_on_c, 1, 40, 0
6, 19980, Note_on_c, 1, 40, 100
6, 19980, Note_on_c, 1, 40, 0
6, 20040, Note_on_c, 1, 43, 100
6, 20040, Note_on_c, 1, 40, 0
6, 20100, Note_on_c, 1, 40, 100
6, 20100, Note_on_c, 1, 43, 0
6, 20160, Note_on_c, 1, 40, 100
6, 20160, Note_on_c, 1, 40, 0
6, 20220, Note_on_c, 1, 40, 100
6, 20220, Note_on_c, 1, 40, 0
6, 20280, Note_on_c, 1, 42, 100
6, 20280, Note_on_c, 1, 40, 0
6, 20340, Note_on_c, 1, 40, 100
6, 20340, Note_on_c, 1, 42, 0
6, 20400, Note_on_c, 1, 43, 100
6, 20400, Note_on_c, 1, 40, 0
6, 20460, Note_on_c, 1, 43, 0
6, 20520, Note_on_c, 1, 42, 100
6, 20580, Note_on_c, 1, 40, 100
6, 20580, Note_on_c, 1, 42, 0
6, 20640, Note_on_c, 1, 40, 100
6, 20640, Note_on_c, 1, 40, 0
6, 20700, Note_on_c, 1, 40, 100
6, 20700, Note_on_c, 1, 40, 0
6, 20760, Note_on_c, 1, 42, 100
6, 20760, Note_on_c, 1, 40, 0
6, 20820, Note_on_c, 1, 40, 100
6, 20820, Note_on_c, 1, 42, 0
6, 20880, Note_on_c, 1, 43, 100
6, 20880, Note_on_c, 1, 40, 0
6, 20940, Note_on_c, 1, 40, 100
6, 20940, Note_on_c, 1, 43, 0
6, 21000, Note_on_c, 1, 42, 100
6, 21000, Note_on_c, 1, 40, 0
6, 21060, Note_on_c, 1, 40, 100
6, 21060, Note_on_c, 1, 42, 0
6, 21120, Note_on_c, 1, 40, 100
6, 21120, Note_on_c, 1, 40, 0
6, 21180, Note_on_c, 1, 40, 100
6, 21180, Note_on_c, 1, 40, 0
6, 21240, Note_on_c, 1, 42, 100
6, 21240, Note_on_c, 1, 40, 0
6, 21300, Note_on_c, 1, 40, 100
6, 21300, Note_on_c, 1, 42, 0
6, 21360, Note_on_c, 1, 43, 100
6, 21360, Note_on_c, 1, 40, 0
6, 21420, Note_on_c, 1, 43, 0
6, 21480, Note_on_c, 1, 42, 100
6, 21540, Note_on_c, 1, 40, 100
6, 21540, Note_on_c, 1, 42, 0
6, 21600, Note_on_c, 1, 40, 100
6, 21600, Note_on_c, 1, 40, 0
6, 21660, Note_on_c, 1, 40, 100
6, 21660, Note_on_c, 1, 40, 0
6, 21720, Note_on_c, 1, 42, 100
6, 21720, Note_on_c, 1, 40, 0
6, 21780, Note_on_c, 1, 40, 100
6, 21780, Note_on_c, 1, 42, 0
6, 21840, Note_on_c, 1, 43, 100
6, 21840, Note_on_c, 1, 40, 0
6, 21900, Note_on_c, 1, 40, 100
6, 21900, Note_on_c, 1, 43, 0
6, 21960, Note_on_c, 1, 42, 100
6, 21960, Note_on_c, 1, 40, 0
6, 22020, Note_on_c, 1, 40, 100
6, 22020, Note_on_c, 1, 42, 0
6, 22080, Note_on_c, 1, 40, 100
6, 22080, Note_on_c, 1, 40, 0
6, 22140, Note_on_c, 1, 40, 100
6, 22140, Note_on_c, 1, 40, 0
6, 22200, Note_on_c, 1, 42, 100
6, 22200, Note_on_c, 1, 40, 0
6, 22260, Note_on_c, 1, 40, 100
6, 22260, Note_on_c, 1, 42, 0
6, 22320, Note_on_c, 1, 43, 100
6, 22320, Note_on_c, 1, 40, 0
6, 22380, Note_on_c, 1, 43, 0
6, 22440, Note_on_c, 1, 42, 100
6, 22500, Note_on_c, 1, 40, 100
6, 22500, Note_on_c, 1, 42, 0
6, 22560, Note_on_c, 1, 40, 100
6, 22560, Note_on_c, 1, 40, 0
6, 22620, Note_on_c, 1, 40, 100
6, 22620, Note_on_c, 1, 40, 0
6, 22680, Note_on_c, 1, 42, 100
6, 22680, Note_on_c, 1, 40, 0
6, 22740, Note_on_c, 1, 40, 100
6, 22740, Note_on_c, 1, 42, 0
6, 22800, Note_on_c, 1, 43, 100
6, 22800, Note_on_c, 1, 40, 0
6, 22860, Note_on_c, 1, 40, 100
6, 22860, Note_on_c, 1, 43, 0
6, 22920, Note_on_c, 1, 42, 100
6, 22920, Note_on_c, 1, 40, 0
6, 22980, Note_on_c, 1, 40, 100
6, 22980, Note_on_c, 1, 42, 0
6, 23040, Note_on_c, 1, 40, 100
6, 23040, Note_on_c, 1, 40, 0
6, 23100, Note_on_c, 1, 40, 100
6, 23100, Note_on_c, 1, 40, 0
6, 23160, Note_on_c, 1, 42, 100
6, 23160, Note_on_c, 1, 40, 0
6, 23220, Note_on_c, 1, 40, 100
6, 23220, Note_on_c, 1, 42, 0
6, 23280, Note_on_c, 1, 43, 100
6, 23280, Note_on_c, 1, 40, 0
6, 23340, Note_on_c, 1, 43, 0
6, 23400, Note_on_c, 1, 42, 100
6, 23460, Note_on_c, 1, 40, 100
6, 23460, Note_on_c, 1, 42, 0
6, 23520, Note_on_c, 1, 40, 100
6, 23520, Note_on_c, 1, 40, 0
6, 23580, Note_on_c, 1, 40, 100
6, 23580, Note_on_c, 1, 40, 0
6, 23640, Note_on_c, 1, 42, 100
6, 23640, Note_on_c, 1, 40, 0
6, 23700, Note_on_c, 1, 40, 100
6, 23700, Note_on_c, 1, 42, 0
6, 23760, Note_on_c, 1, 43, 100
6, 23760, Note_on_c, 1, 40, 0
6, 23820, Note_on_c, 1, 40, 100
6, 23820, Note_on_c, 1, 43, 0
6, 23880, Note_on_c, 1, 42, 100
6, 23880, Note_on_c, 1, 40, 0
6, 23940, Note_on_c, 1, 40, 100
6, 23940, Note_on_c, 1, 42, 0
6, 24000, Note_on_c, 1, 37, 100
6, 24000, Note_on_c, 1, 40, 0
6, 24180, Note_on_c, 1, 44, 100
6, 24180, Note_on_c, 1, 37, 0
6, 24240, Note_on_c, 1, 47, 100
6, 24240, Note_on_c, 1, 44, 0
6, 24360, Note_on_c, 1, 49, 100
6, 24360, Note_on_c, 1, 47, 0
6, 24420, Note_on_c, 1, 49, 0
6, 24480, Note_on_c, 1, 33, 100
6, 24660, Note_on_c, 1, 40, 100
6, 24660, Note_on_c, 1, 33, 0
6, 24720, Note_on_c, 1, 43, 100
6, 24720, Note_on_c, 1, 40, 0
6, 24840, Note_on_c, 1, 45, 100
6, 24840, Note_on_c, 1, 43, 0
6, 24900, Note_on_c, 1, 45, 0
6, 24960, Note_on_c, 1, 37, 100
6, 25140, Note_on_c, 1, 44, 100
6, 25140, Note_on_c, 1, 37, 0
6, 25200, Note_on_c, 1, 47, 100
6, 25200, Note_on_c, 1, 44, 0
6, 25320, Note_on_c, 1, 49, 100
6, 25320, Note_on_c, 1, 47, 0
6, 25380, Note_on_c, 1, 49, 0
6, 25440, Note_on_c, 1, 33, 100
6, 25620, Note_on_c, 1, 40, 100
6, 25620, Note_on_c, 1, 33, 0
6, 25680, Note_on_c, 1, 43, 100
6, 25680, Note_on_c, 1, 40, 0
6, 25800, Note_on_c, 1, 45, 100
6, 25800, Note_on_c, 1, 43, 0
6, 25860, Note_on_c, 1, 45, 0
6, 25920, Note_on_c, 1, 38, 100
6, 25980, Note_on_c, 1, 38, 100
6, 25980, Note_on_c, 1, 38, 0
6, 26040, Note_on_c, 1, 38, 100
6, 26040, Note_on_c, 1, 38, 0
6, 26100, Note_on_c, 1, 38, 100
6, 26100, Note_on_c, 1, 38, 0
6, 26160, Note_on_c, 1, 40, 100
6, 26160, Note_on_c, 1, 38, 0
6, 26220, Note_on_c, 1, 40, 100
6, 26220, Note_on_c, 1, 40, 0
6, 26280, Note_on_c, 1, 43, 100
6, 26280, Note_on_c, 1, 40, 0
6, 26340, Note_on_c, 1, 40, 100
6, 26340, Note_on_c, 1, 43, 0
6, 26400, Note_on_c, 1, 40, 100
6, 26400, Note_on_c, 1, 40, 0
6, 26460, Note_on_c, 1, 40, 100
6, 26460, Note_on_c, 1, 40, 0
6, 26520, Note_on_c, 1, 43, 100
6, 26520, Note_on_c, 1, 40, 0
6, 26580, Note_on_c, 1, 40, 100
6, 26580, Note_on_c, 1, 43, 0
6, 26640, Note_on_c, 1, 40, 100
6, 26640, Note_on_c, 1, 40, 0
6, 26700, Note_on_c, 1, 40, 100
6, 26700, Note_on_c, 1, 40, 0
6, 26760, Note_on_c, 1, 43, 100
6, 26760, Note_on_c, 1, 40, 0
6, 26820, Note_on_c, 1, 40, 100
6, 26820, Note_on_c, 1, 43, 0
6, 26880, Note_on_c, 1, 40, 100
6, 26880, Note_on_c, 1, 40, 0
6, 26940, Note_on_c, 1, 40, 100
6, 26940, Note_on_c, 1, 40, 0
6, 27000, Note_on_c, 1, 43, 100
6, 27000, Note_on_c, 1, 40, 0
6, 27060, Note_on_c, 1, 40, 100
6, 27060, Note_on_c, 1, 43, 0
6, 27120, Note_on_c, 1, 40, 100
6, 27120, Note_on_c, 1, 40, 0
6, 27180, Note_on_c, 1, 40, 100
6, 27180, Note_on_c, 1, 40, 0
6, 27240, Note_on_c, 1, 43, 100
6, 27240, Note_on_c, 1, 40, 0
6, 27300, Note_on_c, 1, 40, 100
6, 27300, Note_on_c, 1, 43, 0
6, 27360, Note_on_c, 1, 40, 100
6, 27360, Note_on_c, 1, 40, 0
6, 27420, Note_on_c, 1, 40, 100
6, 27420, Note_on_c, 1, 40, 0
6, 27480, Note_on_c, 1, 43, 100
6, 27480, Note_on_c, 1, 40, 0
6, 27540, Note_on_c, 1, 40, 100
6, 27540, Note_on_c, 1, 43, 0
6, 27600, Note_on_c, 1, 40, 100
6, 27600, Note_on_c, 1, 40, 0
6, 27660, Note_on_c, 1, 40, 100
6, 27660, Note_on_c, 1, 40, 0
6, 27720, Note_on_c, 1, 43, 100
6, 27720, Note_on_c, 1, 40, 0
6, 27780, Note_on_c, 1, 40, 100
6, 27780, Note_on_c, 1, 43, 0
6, 27840, Note_on_c, 1, 40, 100
6, 27840, Note_on_c, 1, 40, 0
6, 27900, Note_on_c, 1, 40, 100
6, 27900, Note_on_c, 1, 40, 0
6, 27960, Note_on_c, 1, 42, 100
6, 27960, Note_on_c, 1, 40, 0
6, 28020, Note_on_c, 1, 40, 100
6, 28020, Note_on_c, 1, 42, 0
6, 28080, Note_on_c, 1, 43, 100
6, 28080, Note_on_c, 1, 40, 0
6, 28140, Note_on_c, 1, 43, 0
6, 28200, Note_on_c, 1, 42, 100
6, 28260, Note_on_c, 1, 40, 100
6, 28260, Note_on_c, 1, 42, 0
6, 28320, Note_on_c, 1, 40, 100
6, 28320, Note_on_c, 1, 40, 0
6, 28380, Note_on_c, 1, 40, 100
6, 28380, Note_on_c, 1, 40, 0
6, 28440, Note_on_c, 1, 42, 100
6, 28440, Note_on_c, 1, 40, 0
6, 28500, Note_on_c, 1, 40, 100
6, 28500, Note_on_c, 1, 42, 0
6, 28560, Note_on_c, 1, 43, 100
6, 28560, Note_on_c, 1, 40, 0
6, 28620, Note_on_c, 1, 40, 100
6, 28620, Note_on_c, 1, 43, 0
6, 28680, Note_on_c, 1, 42, 100
6, 28680, Note_on_c, 1, 40, 0
6, 28740, Note_on_c, 1, 40, 100
6, 28740, Note_on_c, 1, 42, 0
6, 28800, Note_on_c, 1, 40, 100
6, 28800, Note_on_c, 1, 40, 0
6, 28860, Note_on_c, 1, 40, 100
6, 28860, Note_on_c, 1, 40, 0
6, 28920, Note_on_c, 1, 42, 100
6, 28920, Note_on_c, 1, 40, 0
6, 28980, Note_on_c, 1, 40, 100
6, 28980, Note_on_c, 1, 42, 0
6, 29040, Note_on_c, 1, 43, 100
6, 29040, Note_on_c, 1, 40, 0
6, 29100, Note_on_c, 1, 43, 0
6, 29160, Note_on_c, 1, 42, 100
6, 29220, Note_on_c, 1, 40, 100
6, 29220, Note_on_c, 1, 42, 0
6, 29280, Note_on_c, 1, 40, 100
6, 29280, Note_on_c, 1, 40, 0
6, 29340, Note_on_c, 1, 40, 100
6, 29340, Note_on_c, 1, 40, 0
6, 29400, Note_on_c, 1, 42, 100
6, 29400, Note_on_c, 1, 40, 0
6, 29460, Note_on_c, 1, 40, 100
6, 29460, Note_on_c, 1, 42, 0
6, 29520, Note_on_c, 1, 43, 100
6, 29520, Note_on_c, 1, 40, 0
6, 29580, Note_on_c, 1, 40, 100
6, 29580, Note_on_c, 1, 43, 0
6, 29640, Note_on_c, 1, 42, 100
6, 29640, Note_on_c, 1, 40, 0
6, 29700, Note_on_c, 1, 40, 100
6, 29700, Note_on_c, 1, 42, 0
6, 29760, Note_on_c, 1, 40, 100
6, 29760, Note_on_c, 1, 40, 0
6, 29820, Note_on_c, 1, 40, 100
6, 29820, Note_on_c, 1, 40, 0
6, 29880, Note_on_c, 1, 42, 100
6, 29880, Note_on_c, 1, 40, 0
6, 29940, Note_on_c, 1, 40, 100
6, 29940, Note_on_c, 1, 42, 0
6, 30000, Note_on_c, 1, 43, 100
6, 30000, Note_on_c, 1, 40, 0
6, 30060, Note_on_c, 1, 43, 0
6, 30120, Note_on_c, 1, 42, 100
6, 30180, Note_on_c, 1, 40, 100
6, 30180, Note_on_c, 1, 42, 0
6, 30240, Note_on_c, 1, 40, 100
6, 30240, Note_on_c, 1, 40, 0
6, 30300, Note_on_c, 1, 40, 100
6, 30300, Note_on_c, 1, 40, 0
6, 30360, Note_on_c, 1, 42, 100
6, 30360, Note_on_c, 1, 40, 0
6, 30420, Note_on_c, 1, 40, 100
6, 30420, Note_on_c, 1, 42, 0
6, 30480, Note_on_c, 1, 43, 100
6, 30480, Note_on_c, 1, 40, 0
6, 30540, Note_on_c, 1, 40, 100
6, 30540, Note_on_c, 1, 43, 0
6, 30600, Note_on_c, 1, 42, 100
6, 30600, Note_on_c, 1, 40, 0
6, 30660, Note_on_c, 1, 40, 100
6, 30660, Note_on_c, 1, 42, 0
6, 30720, Note_on_c, 1, 40, 100
6, 30720, Note_on_c, 1, 40, 0
6, 30780, Note_on_c, 1, 40, 100
6, 30780, Note_on_c, 1, 40, 0
6, 30840, Note_on_c, 1, 42, 100
6, 30840, Note_on_c, 1, 40, 0
6, 30900, Note_on_c, 1, 40, 100
6, 30900, Note_on_c, 1, 42, 0
6, 30960, Note_on_c, 1, 43, 100
6, 30960, Note_on_c, 1, 40, 0
6, 31020, Note_on_c, 1, 43, 0
6, 31080, Note_on_c, 1, 42, 100
6, 31140, Note_on_c, 1, 40, 100
6, 31140, Note_on_c, 1, 42, 0
6, 31200, Note_on_c, 1, 40, 100
6, 31200, Note_on_c, 1, 40, 0
6, 31260, Note_on_c, 1, 40, 100
6, 31260, Note_on_c, 1, 40, 0
6, 31320, Note_on_c, 1, 42, 100
6, 31320, Note_on_c, 1, 40, 0
6, 31380, Note_on_c, 1, 40, 100
6, 31380, Note_on_c, 1, 42, 0
6, 31440, Note_on_c, 1, 43, 100
6, 31440, Note_on_c, 1, 40, 0
6, 31500, Note_on_c, 1, 40, 100
6, 31500, Note_on_c, 1, 43, 0
6, 31560, Note_on_c, 1, 42, 100
6, 31560, Note_on_c, 1, 40, 0
6, 31680, Note_on_c, 1, 40, 100
6, 31680, Note_on_c, 1, 42, 0
6, 31740, Note_on_c, 1, 40, 100
6, 31740, Note_on_c, 1, 40, 0
6, 31800, Note_on_c, 1, 42, 100
6, 31800, Note_on_c, 1, 40, 0
6, 31860, Note_on_c, 1, 40, 100
6, 31860, Note_on_c, 1, 42, 0
6, 31920, Note_on_c, 1, 43, 100
6, 31920, Note_on_c, 1, 40, 0
6, 31980, Note_on_c, 1, 43, 0
6, 32040, Note_on_c, 1, 42, 100
6, 32100, Note_on_c, 1, 40, 100
6, 32100, Note_on_c, 1, 42, 0
6, 32160, Note_on_c, 1, 40, 100
6, 32160, Note_on_c, 1, 40, 0
6, 32220, Note_on_c, 1, 40, 100
6, 32220, Note_on_c, 1, 40, 0
6, 32280, Note_on_c, 1, 42, 100
6, 32280, Note_on_c, 1, 40, 0
6, 32340, Note_on_c, 1, 40, 100
6, 32340, Note_on_c, 1, 42, 0
6, 32400, Note_on_c, 1, 43, 100
6, 32400, Note_on_c, 1, 40, 0
6, 32460, Note_on_c, 1, 40, 100
6, 32460, Note_on_c, 1, 43, 0
6, 32520, Note_on_c, 1, 42, 100
6, 32520, Note_on_c, 1, 40, 0
6, 32580, Note_on_c, 1, 40, 100
6, 32580, Note_on_c, 1, 42, 0
6, 32640, Note_on_c, 1, 40, 100
6, 32640, Note_on_c, 1, 40, 0
6, 32700, Note_on_c, 1, 40, 100
6, 32700, Note_on_c, 1, 40, 0
6, 32760, Note_on_c, 1, 42, 100
6, 32760, Note_on_c, 1, 40, 0
6, 32820, Note_on_c, 1, 40, 100
6, 32820, Note_on_c, 1, 42, 0
6, 32880, Note_on_c, 1, 43, 100
6, 32880, Note_on_c, 1, 40, 0
6, 32940, Note_on_c, 1, 43, 0
6, 33060, Note_on_c, 1, 40, 100
6, 33120, Note_on_c, 1, 40, 100
6, 33120, Note_on_c, 1, 40, 0
6, 33180, Note_on_c, 1, 40, 100
6, 33180, Note_on_c, 1, 40, 0
6, 33240, Note_on_c, 1, 42, 100
6, 33240, Note_on_c, 1, 40, 0
6, 33300, Note_on_c, 1, 40, 100
6, 33300, Note_on_c, 1, 42, 0
6, 33360, Note_on_c, 1, 43, 100
6, 33360, Note_on_c, 1, 50, 100
6, 33360, Note_on_c, 1, 57, 100
6, 33360, Note_on_c, 1, 40, 0
6, 33480, Note_on_c, 1, 42, 100
6, 33480, Note_on_c, 1, 49, 100
6, 33480, Note_on_c, 1, 43, 0
6, 33480, Note_on_c, 1, 57, 0
6, 33480, Note_on_c, 1, 50, 0
6, 33600, Note_on_c, 1, 40, 100
6, 33600, Note_on_c, 1, 42, 0
6, 33600, Note_on_c, 1, 49, 0
6, 33660, Note_on_c, 1, 40, 100
6, 33660, Note_on_c, 1, 40, 0
6, 33720, Note_on_c, 1, 42, 100
6, 33720, Note_on_c, 1, 40, 0
6, 33780, Note_on_c, 1, 40, 100
6, 33780, Note_on_c, 1, 42, 0
6, 33840, Note_on_c, 1, 43, 100
6, 33840, Note_on_c, 1, 40, 0
6, 33900, Note_on_c, 1, 43, 0
6, 34020, Note_on_c, 1, 40, 100
6, 34080, Note_on_c, 1, 40, 100
6, 34080, Note_on_c, 1, 40, 0
6, 34140, Note_on_c, 1, 40, 100
6, 34140, Note_on_c, 1, 40, 0
6, 34200, Note_on_c, 1, 42, 100
6, 34200, Note_on_c, 1, 40, 0
6, 34260, Note_on_c, 1, 40, 100
6, 34260, Note_on_c, 1, 42, 0
6, 34320, Note_on_c, 1, 43, 100
6, 34320, Note_on_c, 1, 50, 100
6, 34320, Note_on_c, 1, 57, 100
6, 34320, Note_on_c, 1, 40, 0
6, 34440, Note_on_c, 1, 42, 100
6, 34440, Note_on_c, 1, 49, 100
6, 34440, Note_on_c, 1, 43, 0
6, 34440, Note_on_c, 1, 57, 0
6, 34440, Note_on_c, 1, 50, 0
6, 34560, Note_on_c, 1, 40, 100
6, 34560, Note_on_c, 1, 42, 0
6, 34560, Note_on_c, 1, 49, 0
6, 34620, Note_on_c, 1, 40, 100
6, 34620, Note_on_c, 1, 40, 0
6, 34680, Note_on_c, 1, 42, 100
6, 34680, Note_on_c, 1, 40, 0
6, 34740, Note_on_c, 1, 40, 100
6, 34740, Note_on_c, 1, 42, 0
6, 34800, Note_on_c, 1, 43, 100
6, 34800, Note_on_c, 1, 40, 0
6, 34860, Note_on_c, 1, 43, 0
6, 34980, Note_on_c, 1, 40, 100
6, 35040, Note_on_c, 1, 40, 100
6, 35040, Note_on_c, 1, 40, 0
6, 35100, Note_on_c, 1, 40, 100
6, 35100, Note_on_c, 1, 40, 0
6, 35160, Note_on_c, 1, 42, 100
6, 35160, Note_on_c, 1, 40, 0
6, 35220, Note_on_c, 1, 40, 100
6, 35220, Note_on_c, 1, 42, 0
6, 35280, Note_on_c, 1, 43, 100
6, 35280, Note_on_c, 1, 50, 100
6, 35280, Note_on_c, 1, 57, 100
6, 35280, Note_on_c, 1, 40, 0
6, 35400, Note_on_c, 1, 42, 100
6, 35400, Note_on_c, 1, 49, 100
6, 35400, Note_on_c, 1, 43, 0
6, 35400, Note_on_c, 1, 57, 0
6, 35400, Note_on_c, 1, 50, 0
6, 35520, Note_on_c, 1, 40, 100
6, 35520, Note_on_c, 1, 42, 0
6, 35520, Note_on_c, 1, 49, 0
6, 35580, Note_on_c, 1, 40, 100
6, 35580, Note_on_c, 1, 40, 0
6, 35640, Note_on_c, 1, 42, 100
6, 35640, Note_on_c, 1, 40, 0
6, 35700, Note_on_c, 1, 40, 100
6, 35700, Note_on_c, 1, 42, 0
6, 35760, Note_on_c, 1, 43, 100
6, 35760, Note_on_c, 1, 40, 0
6, 35820, Note_on_c, 1, 43, 0
6, 35940, Note_on_c, 1, 40, 100
6, 36000, Note_on_c, 1, 40, 100
6, 36000, Note_on_c, 1, 40, 0
6, 36060, Note_on_c, 1, 40, 100
6, 36060, Note_on_c, 1, 40, 0
6, 36120, Note_on_c, 1, 42, 100
6, 36120, Note_on_c, 1, 40, 0
6, 36180, Note_on_c, 1, 40, 100
6, 36180, Note_on_c, 1, 42, 0
6, 36240, Note_on_c, 1, 43, 100
6, 36240, Note_on_c, 1, 50, 100
6, 36240, Note_on_c, 1, 57, 100
6, 36240, Note_on_c, 1, 40, 0
6, 36360, Note_on_c, 1, 42, 100
6, 36360, Note_on_c, 1, 49, 100
6, 36360, Note_on_c, 1, 43, 0
6, 36360, Note_on_c, 1, 57, 0
6, 36360, Note_on_c, 1, 50, 0
6, 36480, Note_on_c, 1, 40, 100
6, 36480, Note_on_c, 1, 42, 0
6, 36480, Note_on_c, 1, 49, 0
6, 36540, Note_on_c, 1, 40, 100
6, 36540, Note_on_c, 1, 40, 0
6, 36600, Note_on_c, 1, 42, 100
6, 36600, Note_on_c, 1, 40, 0
6, 36660, Note_on_c, 1, 40, 100
6, 36660, Note_on_c, 1, 42, 0
6, 36720, Note_on_c, 1, 43, 100
6, 36720, Note_on_c, 1, 40, 0
6, 36780, Note_on_c, 1, 43, 0
6, 36900, Note_on_c, 1, 40, 100
6, 36960, Note_on_c, 1, 40, 100
6, 36960, Note_on_c, 1, 40, 0
6, 37020, Note_on_c, 1, 40, 100
6, 37020, Note_on_c, 1, 40, 0
6, 37080, Note_on_c, 1, 42, 100
6, 37080, Note_on_c, 1, 40, 0
6, 37140, Note_on_c, 1, 40, 100
6, 37140, Note_on_c, 1, 42, 0
6, 37200, Note_on_c, 1, 43, 100
6, 37200, Note_on_c, 1, 50, 100
6, 37200, Note_on_c, 1, 57, 100
6, 37200, Note_on_c, 1, 40, 0
6, 37320, Note_on_c, 1, 42, 100
6, 37320, Note_on_c, 1, 49, 100
6, 37320, Note_on_c, 1, 43, 0
6, 37320, Note_on_c, 1, 57, 0
6, 37320, Note_on_c, 1, 50, 0
6, 37440, Note_on_c, 1, 36, 100
6, 37440, Note_on_c, 1, 43, 100
6, 37440, Note_on_c, 1, 42, 0
6, 37440, Note_on_c, 1, 49, 0
6, 37500, Note_on_c, 1, 52, 100
6, 37680, Note_on_c, 1, 52, 100
6, 37680, Note_on_c, 1, 52, 0
6, 37920, Note_on_c, 1, 43, 100
6, 37920, Note_on_c, 1, 50, 100
6, 37920, Note_on_c, 1, 43, 0
6, 37920, Note_on_c, 1, 52, 0
6, 37920, Note_on_c, 1, 36, 0
6, 37980, Note_on_c, 1, 59, 100
6, 38160, Note_on_c, 1, 59, 100
6, 38160, Note_on_c, 1, 59, 0
6, 38400, Note_on_c, 1, 45, 100
6, 38400, Note_on_c, 1, 52, 100
6, 38400, Note_on_c, 1, 50, 0
6, 38400, Note_on_c, 1, 59, 0
6, 38400, Note_on_c, 1, 43, 0
6, 38460, Note_on_c, 1, 61, 100
6, 38640, Note_on_c, 1, 61, 100
6, 38640, Note_on_c, 1, 61, 0
6, 38880, Note_on_c, 1, 40, 100
6, 38880, Note_on_c, 1, 52, 0
6, 38880, Note_on_c, 1, 61, 0
6, 38880, Note_on_c, 1, 45, 0
6, 38940, Note_on_c, 1, 40, 100
6, 38940, Note_on_c, 1, 40, 0
6, 39000, Note_on_c, 1, 43, 100
6, 39000, Note_on_c, 1, 40, 0
6, 39060, Note_on_c, 1, 40, 100
6, 39060, Note_on_c, 1, 43, 0
6, 39120, Note_on_c, 1, 40, 100
6, 39120, Note_on_c, 1, 40, 0
6, 39180, Note_on_c, 1, 40, 100
6, 39180, Note_on_c, 1, 40, 0
6, 39240, Note_on_c, 1, 43, 100
6, 39240, Note_on_c, 1, 40, 0
6, 39300, Note_on_c, 1, 40, 100
6, 39300, Note_on_c, 1, 43, 0
6, 39360, Note_on_c, 1, 40, 100
6, 39360, Note_on_c, 1, 40, 0
6, 39420, Note_on_c, 1, 40, 100
6, 39420, Note_on_c, 1, 40, 0
6, 39480, Note_on_c, 1, 43, 100
6, 39480, Note_on_c, 1, 40, 0
6, 39540, Note_on_c, 1, 40, 100
6, 39540, Note_on_c, 1, 43, 0
6, 39600, Note_on_c, 1, 40, 100
6, 39600, Note_on_c, 1, 40, 0
6, 39660, Note_on_c, 1, 40, 100
6, 39660, Note_on_c, 1, 40, 0
6, 39720, Note_on_c, 1, 43, 100
6, 39720, Note_on_c, 1, 40, 0
6, 39780, Note_on_c, 1, 40, 100
6, 39780, Note_on_c, 1, 43, 0
6, 39840, Note_on_c, 1, 40, 100
6, 39840, Note_on_c, 1, 40, 0
6, 39900, Note_on_c, 1, 40, 100
6, 39900, Note_on_c, 1, 40, 0
6, 39960, Note_on_c, 1, 42, 100
6, 39960, Note_on_c, 1, 40, 0
6, 40020, Note_on_c, 1, 40, 100
6, 40020, Note_on_c, 1, 42, 0
6, 40080, Note_on_c, 1, 43, 100
6, 40080, Note_on_c, 1, 40, 0
6, 40140, Note_on_c, 1, 43, 0
6, 40200, Note_on_c, 1, 42, 100
6, 40260, Note_on_c, 1, 40, 100
6, 40260, Note_on_c, 1, 42, 0
6, 40320, Note_on_c, 1, 40, 100
6, 40320, Note_on_c, 1, 40, 0
6, 40380, Note_on_c, 1, 40, 100
6, 40380, Note_on_c, 1, 40, 0
6, 40440, Note_on_c, 1, 42, 100
6, 40440, Note_on_c, 1, 40, 0
6, 40500, Note_on_c, 1, 40, 100
6, 40500, Note_on_c, 1, 42, 0
6, 40560, Note_on_c, 1, 43, 100
6, 40560, Note_on_c, 1, 40, 0
6, 40620, Note_on_c, 1, 40, 100
6, 40620, Note_on_c, 1, 43, 0
6, 40680, Note_on_c, 1, 42, 100
6, 40680, Note_on_c, 1, 40, 0
6, 40740, Note_on_c, 1, 40, 100
6, 40740, Note_on_c, 1, 42, 0
6, 40800, Note_on_c, 1, 40, 100
6, 40800, Note_on_c, 1, 40, 0
6, 40860, Note_on_c, 1, 40, 100
6, 40860, Note_on_c, 1, 40, 0
6, 40920, Note_on_c, 1, 42, 100
6, 40920, Note_on_c, 1, 40, 0
6, 40980, Note_on_c, 1, 40, 100
6, 40980, Note_on_c, 1, 42, 0
6, 41040, Note_on_c, 1, 43, 100
6, 41040, Note_on_c, 1, 40, 0
6, 41100, Note_on_c, 1, 43, 0
6, 41160, Note_on_c, 1, 42, 100
6, 41220, Note_on_c, 1, 40, 100
6, 41220, Note_on_c, 1, 42, 0
6, 41280, Note_on_c, 1, 40, 100
6, 41280, Note_on_c, 1, 40, 0
6, 41340, Note_on_c, 1, 40, 100
6, 41340, Note_on_c, 1, 40, 0
6, 41400, Note_on_c, 1, 42, 100
6, 41400, Note_on_c, 1, 40, 0
6, 41460, Note_on_c, 1, 40, 100
6, 41460, Note_on_c, 1, 42, 0
6, 41520, Note_on_c, 1, 43, 100
6, 41520, Note_on_c, 1, 40, 0
6, 41580, Note_on_c, 1, 40, 100
6, 41580, Note_on_c, 1, 43, 0
6, 41640, Note_on_c, 1, 42, 100
6, 41640, Note_on_c, 1, 40, 0
6, 41700, Note_on_c, 1, 40, 100
6, 41700, Note_on_c, 1, 42, 0
6, 41760, Note_on_c, 1, 40, 100
6, 41760, Note_on_c, 1, 40, 0
6, 41820, Note_on_c, 1, 40, 100
6, 41820, Note_on_c, 1, 40, 0
6, 41880, Note_on_c, 1, 42, 100
6, 41880, Note_on_c, 1, 40, 0
6, 41940, Note_on_c, 1, 40, 100
6, 41940, Note_on_c, 1, 42, 0
6, 42000, Note_on_c, 1, 43, 100
6, 42000, Note_on_c, 1, 40, 0
6, 42060, Note_on_c, 1, 43, 0
6, 42120, Note_on_c, 1, 42, 100
6, 42180, Note_on_c, 1, 40, 100
6, 42180, Note_on_c, 1, 42, 0
6, 42240, Note_on_c, 1, 40, 100
6, 42240, Note_on_c, 1, 40, 0
6, 42300, Note_on_c, 1, 40, 100
6, 42300, Note_on_c, 1, 40, 0
6, 42360, Note_on_c, 1, 42, 100
6, 42360, Note_on_c, 1, 40, 0
6, 42420, Note_on_c, 1, 40, 100
6, 42420, Note_on_c, 1, 42, 0
6, 42480, Note_on_c, 1, 43, 100
6, 42480, Note_on_c, 1, 40, 0
6, 42540, Note_on_c, 1, 40, 100
6, 42540, Note_on_c, 1, 43, 0
6, 42600, Note_on_c, 1, 42, 100
6, 42600, Note_on_c, 1, 40, 0
6, 42660, Note_on_c, 1, 40, 100
6, 42660, Note_on_c, 1, 42, 0
6, 42720, Note_on_c, 1, 40, 100
6, 42720, Note_on_c, 1, 40, 0
6, 42780, Note_on_c, 1, 40, 100
6, 42780, Note_on_c, 1, 40, 0
6, 42840, Note_on_c, 1, 42, 100
6, 42840, Note_on_c, 1, 40, 0
6, 42900, Note_on_c, 1, 40, 100
6, 42900, Note_on_c, 1, 42, 0
6, 42960, Note_on_c, 1, 43, 100
6, 42960, Note_on_c, 1, 40, 0
6, 43020, Note_on_c, 1, 43, 0
6, 43080, Note_on_c, 1, 42, 100
6, 43140, Note_on_c, 1, 40, 100
6, 43140, Note_on_c, 1, 42, 0
6, 43200, Note_on_c, 1, 40, 100
6, 43200, Note_on_c, 1, 40, 0
6, 43260, Note_on_c, 1, 40, 100
6, 43260, Note_on_c, 1, 40, 0
6, 43320, Note_on_c, 1, 42, 100
6, 43320, Note_on_c, 1, 40, 0
6, 43380, Note_on_c, 1, 40, 100
6, 43380, Note_on_c, 1, 42, 0
6, 43440, Note_on_c, 1, 43, 100
6, 43440, Note_on_c, 1, 40, 0
6, 43500, Note_on_c, 1, 40, 100
6, 43500, Note_on_c, 1, 43, 0
6, 43560, Note_on_c, 1, 42, 100
6, 43560, Note_on_c, 1, 40, 0
6, 43620, Note_on_c, 1, 40, 100
6, 43620, Note_on_c, 1, 42, 0
6, 43680, Note_on_c, 1, 40, 100
6, 43680, Note_on_c, 1, 40, 0
6, 43740, Note_on_c, 1, 40, 100
6, 43740, Note_on_c, 1, 40, 0
6, 43800, Note_on_c, 1, 42, 100
6, 43800, Note_on_c, 1, 40, 0
6, 43860, Note_on_c, 1, 40, 100
6, 43860, Note_on_c, 1, 42, 0
6, 43920, Note_on_c, 1, 43, 100
6, 43920, Note_on_c, 1, 40, 0
6, 43980, Note_on_c, 1, 43, 0
6, 44040, Note_on_c, 1, 42, 100
6, 44100, Note_on_c, 1, 40, 100
6, 44100, Note_on_c, 1, 42, 0
6, 44160, Note_on_c, 1, 40, 100
6, 44160, Note_on_c, 1, 40, 0
6, 44220, Note_on_c, 1, 40, 100
6, 44220, Note_on_c, 1, 40, 0
6, 44280, Note_on_c, 1, 42, 100
6, 44280, Note_on_c, 1, 40, 0
6, 44340, Note_on_c, 1, 40, 100
6, 44340, Note_on_c, 1, 42, 0
6, 44400, Note_on_c, 1, 43, 100
6, 44400, Note_on_c, 1, 40, 0
6, 44460, Note_on_c, 1, 40, 100
6, 44460, Note_on_c, 1, 43, 0
6, 44520, Note_on_c, 1, 42, 100
6, 44520, Note_on_c, 1, 40, 0
6, 44580, Note_on_c, 1, 40, 100
6, 44580, Note_on_c, 1, 42, 0
6, 44640, Note_on_c, 1, 40, 100
6, 44640, Note_on_c, 1, 40, 0
6, 44700, Note_on_c, 1, 40, 100
6, 44700, Note_on_c, 1, 40, 0
6, 44760, Note_on_c, 1, 42, 100
6, 44760, Note_on_c, 1, 40, 0
6, 44820, Note_on_c, 1, 40, 100
6, 44820, Note_on_c, 1, 42, 0
6, 44880, Note_on_c, 1, 43, 100
6, 44880, Note_on_c, 1, 40, 0
6, 44940, Note_on_c, 1, 43, 0
6, 45060, Note_on_c, 1, 40, 100
6, 45120, Note_on_c, 1, 40, 100
6, 45120, Note_on_c, 1, 40, 0
6, 45180, Note_on_c, 1, 40, 100
6, 45180, Note_on_c, 1, 40, 0
6, 45240, Note_on_c, 1, 42, 100
6, 45240, Note_on_c, 1, 40, 0
6, 45300, Note_on_c, 1, 40, 100
6, 45300, Note_on_c, 1, 42, 0
6, 45360, Note_on_c, 1, 43, 100
6, 45360, Note_on_c, 1, 50, 100
6, 45360, Note_on_c, 1, 57, 100
6, 45360, Note_on_c, 1, 40, 0
6, 45480, Note_on_c, 1, 42, 100
6, 45480, Note_on_c, 1, 49, 100
6, 45480, Note_on_c, 1, 43, 0
6, 45480, Note_on_c, 1, 57, 0
6, 45480, Note_on_c, 1, 50, 0
6, 45600, Note_on_c, 1, 40, 100
6, 45600, Note_on_c, 1, 47, 100
6, 45600, Note_on_c, 1, 52, 100
6, 45600, Note_on_c, 1, 42, 0
6, 45600, Note_on_c, 1, 49, 0
6, 46080, Note_on_c, 1, 40, 100
6, 46080, Note_on_c, 1, 47, 100
6, 46080, Note_on_c, 1, 52, 100
6, 46080, Note_on_c, 1, 47, 0
6, 46080, Note_on_c, 1, 52, 0
6, 46080, Note_on_c, 1, 40, 0
6, 46560, Note_on_c, 1, 40, 0
6, 46560, Note_on_c, 1, 47, 0
6, 46560, Note_on_c, 1, 52, 0
6, 46560, End_track
7, 0, Start_track
7, 0, MIDI_port, 0
7, 0, Title_t, "drums"
7, 0, Control_c, 9, 7, 100
7, 0, Note_on_c, 9, 35, 127
7, 0, Note_on_c, 9, 51, 127
7, 0, Note_on_c, 9, 49, 127
7, 0, Note_on_c, 9, 54, 80
7, 30, Note_on_c, 9, 54, 0
7, 30, Note_on_c, 9, 35, 0
7, 30, Note_on_c, 9, 51, 0
7, 30, Note_on_c, 9, 49, 0
7, 60, Note_on_c, 9, 35, 115
7, 60, Note_on_c, 9, 54, 90
7, 90, Note_on_c, 9, 54, 0
7, 90, Note_on_c, 9, 35, 0
7, 120, Note_on_c, 9, 38, 127
7, 120, Note_on_c, 9, 51, 115
7, 120, Note_on_c, 9, 54, 127
7, 150, Note_on_c, 9, 54, 0
7, 150, Note_on_c, 9, 51, 0
7, 150, Note_on_c, 9, 38, 0
7, 180, Note_on_c, 9, 35, 100
7, 180, Note_on_c, 9, 54, 80
7, 210, Note_on_c, 9, 54, 0
7, 210, Note_on_c, 9, 35, 0
7, 240, Note_on_c, 9, 35, 127
7, 240, Note_on_c, 9, 51, 127
7, 240, Note_on_c, 9, 54, 100
7, 270, Note_on_c, 9, 54, 0
7, 270, Note_on_c, 9, 51, 0
7, 270, Note_on_c, 9, 35, 0
7, 300, Note_on_c, 9, 35, 115
7, 300, Note_on_c, 9, 54, 90
7, 330, Note_on_c, 9, 54, 0
7, 330, Note_on_c, 9, 35, 0
7, 360, Note_on_c, 9, 38, 127
7, 360, Note_on_c, 9, 51, 115
7, 360, Note_on_c, 9, 54, 127
7, 390, Note_on_c, 9, 54, 0
7, 390, Note_on_c, 9, 51, 0
7, 390, Note_on_c, 9, 38, 0
7, 420, Note_on_c, 9, 35, 100
7, 420, Note_on_c, 9, 54, 90
7, 450, Note_on_c, 9, 54, 0
7, 450, Note_on_c, 9, 35, 0
7, 480, Note_on_c, 9, 35, 127
7, 480, Note_on_c, 9, 51, 127
7, 480, Note_on_c, 9, 54, 80
7, 510, Note_on_c, 9, 54, 0
7, 510, Note_on_c, 9, 51, 0
7, 510, Note_on_c, 9, 35, 0
7, 540, Note_on_c, 9, 35, 115
7, 540, Note_on_c, 9, 54, 90
7, 570, Note_on_c, 9, 54, 0
7, 570, Note_on_c, 9, 35, 0
7, 600, Note_on_c, 9, 38, 127
7, 600, Note_on_c, 9, 51, 115
7, 600, Note_on_c, 9, 54, 127
7, 630, Note_on_c, 9, 54, 0
7, 630, Note_on_c, 9, 51, 0
7, 630, Note_on_c, 9, 38, 0
7, 660, Note_on_c, 9, 35, 100
7, 660, Note_on_c, 9, 54, 80
7, 690, Note_on_c, 9, 54, 0
7, 690, Note_on_c, 9, 35, 0
7, 720, Note_on_c, 9, 35, 127
7, 720, Note_on_c, 9, 51, 127
7, 720, Note_on_c, 9, 54, 100
7, 750, Note_on_c, 9, 54, 0
7, 750, Note_on_c, 9, 51, 0
7, 750, Note_on_c, 9, 35, 0
7, 780, Note_on_c, 9, 35, 115
7, 780, Note_on_c, 9, 54, 90
7, 810, Note_on_c, 9, 54, 0
7, 810, Note_on_c, 9, 35, 0
7, 840, Note_on_c, 9, 38, 127
7, 840, Note_on_c, 9, 51, 115
7, 840, Note_on_c, 9, 54, 127
7, 870, Note_on_c, 9, 54, 0
7, 870, Note_on_c, 9, 51, 0
7, 870, Note_on_c, 9, 38, 0
7, 900, Note_on_c, 9, 35, 100
7, 900, Note_on_c, 9, 54, 90
7, 930, Note_on_c, 9, 54, 0
7, 930, Note_on_c, 9, 35, 0
7, 960, Note_on_c, 9, 35, 127
7, 960, Note_on_c, 9, 51, 127
7, 960, Note_on_c, 9, 54, 80
7, 990, Note_on_c, 9, 54, 0
7, 990, Note_on_c, 9, 51, 0
7, 990, Note_on_c, 9, 35, 0
7, 1020, Note_on_c, 9, 35, 115
7, 1020, Note_on_c, 9, 54, 90
7, 1050, Note_on_c, 9, 54, 0
7, 1050, Note_on_c, 9, 35, 0
7, 1080, Note_on_c, 9, 38, 127
7, 1080, Note_on_c, 9, 51, 115
7, 1080, Note_on_c, 9, 54, 127
7, 1110, Note_on_c, 9, 54, 0
7, 1110, Note_on_c, 9, 51, 0
7, 1110, Note_on_c, 9, 38, 0
7, 1140, Note_on_c, 9, 35, 100
7, 1140, Note_on_c, 9, 54, 80
7, 1170, Note_on_c, 9, 54, 0
7, 1170, Note_on_c, 9, 35, 0
7, 1200, Note_on_c, 9, 35, 127
7, 1200, Note_on_c, 9, 51, 127
7, 1200, Note_on_c, 9, 54, 100
7, 1230, Note_on_c, 9, 54, 0
7, 1230, Note_on_c, 9, 51, 0
7, 1230, Note_on_c, 9, 35, 0
7, 1260, Note_on_c, 9, 35, 115
7, 1260, Note_on_c, 9, 54, 90
7, 1290, Note_on_c, 9, 54, 0
7, 1290, Note_on_c, 9, 35, 0
7, 1320, Note_on_c, 9, 38, 127
7, 1320, Note_on_c, 9, 51, 115
7, 1320, Note_on_c, 9, 54, 127
7, 1350, Note_on_c, 9, 54, 0
7, 1350, Note_on_c, 9, 51, 0
7, 1350, Note_on_c, 9, 38, 0
7, 1380, Note_on_c, 9, 35, 100
7, 1380, Note_on_c, 9, 54, 90
7, 1410, Note_on_c, 9, 54, 0
7, 1410, Note_on_c, 9, 35, 0
7, 1440, Note_on_c, 9, 38, 127
7, 1470, Note_on_c, 9, 38, 115
7, 1470, Note_on_c, 9, 38, 0
7, 1500, Note_on_c, 9, 35, 127
7, 1500, Note_on_c, 9, 38, 40
7, 1500, Note_on_c, 9, 38, 0
7, 1530, Note_on_c, 9, 35, 115
7, 1530, Note_on_c, 9, 38, 50
7, 1530, Note_on_c, 9, 38, 0
7, 1530, Note_on_c, 9, 35, 0
7, 1560, Note_on_c, 9, 38, 127
7, 1560, Note_on_c, 9, 35, 0
7, 1560, Note_on_c, 9, 38, 0
7, 1590, Note_on_c, 9, 38, 100
7, 1590, Note_on_c, 9, 38, 0
7, 1620, Note_on_c, 9, 38, 127
7, 1620, Note_on_c, 9, 38, 0
7, 1650, Note_on_c, 9, 38, 115
7, 1650, Note_on_c, 9, 38, 0
7, 1680, Note_on_c, 9, 35, 127
7, 1680, Note_on_c, 9, 38, 40
7, 1680, Note_on_c, 9, 38, 0
7, 1710, Note_on_c, 9, 35, 115
7, 1710, Note_on_c, 9, 38, 60
7, 1710, Note_on_c, 9, 38, 0
7, 1710, Note_on_c, 9, 35, 0
7, 1740, Note_on_c, 9, 38, 115
7, 1740, Note_on_c, 9, 35, 0
7, 1740, Note_on_c, 9, 38, 0
7, 1770, Note_on_c, 9, 38, 100
7, 1770, Note_on_c, 9, 38, 0
7, 1800, Note_on_c, 9, 38, 127
7, 1800, Note_on_c, 9, 38, 0
7, 1830, Note_on_c, 9, 38, 115
7, 1830, Note_on_c, 9, 38, 0
7, 1860, Note_on_c, 9, 35, 127
7, 1860, Note_on_c, 9, 38, 0
7, 1890, Note_on_c, 9, 38, 127
7, 1890, Note_on_c, 9, 35, 0
7, 1920, Note_on_c, 9, 35, 127
7, 1920, Note_on_c, 9, 51, 127
7, 1920, Note_on_c, 9, 49, 127
7, 1920, Note_on_c, 9, 54, 80
7, 1920, Note_on_c, 9, 38, 0
7, 1950, Note_on_c, 9, 49, 0
7, 1950, Note_on_c, 9, 35, 0
7, 1950, Note_on_c, 9, 51, 0
7, 1950, Note_on_c, 9, 54, 0
7, 1980, Note_on_c, 9, 35, 115
7, 1980, Note_on_c, 9, 54, 90
7, 2010, Note_on_c, 9, 54, 0
7, 2010, Note_on_c, 9, 35, 0
7, 2040, Note_on_c, 9, 38, 127
7, 2040, Note_on_c, 9, 51, 115
7, 2040, Note_on_c, 9, 54, 127
7, 2070, Note_on_c, 9, 54, 0
7, 2070, Note_on_c, 9, 51, 0
7, 2070, Note_on_c, 9, 38, 0
7, 2100, Note_on_c, 9, 35, 100
7, 2100, Note_on_c, 9, 54, 80
7, 2130, Note_on_c, 9, 54, 0
7, 2130, Note_on_c, 9, 35, 0
7, 2160, Note_on_c, 9, 35, 127
7, 2160, Note_on_c, 9, 51, 127
7, 2160, Note_on_c, 9, 54, 100
7, 2190, Note_on_c, 9, 54, 0
7, 2190, Note_on_c, 9, 51, 0
7, 2190, Note_on_c, 9, 35, 0
7, 2220, Note_on_c, 9, 35, 115
7, 2220, Note_on_c, 9, 54, 90
7, 2250, Note_on_c, 9, 54, 0
7, 2250, Note_on_c, 9, 35, 0
7, 2280, Note_on_c, 9, 38, 127
7, 2280, Note_on_c, 9, 51, 115
7, 2280, Note_on_c, 9, 54, 127
7, 2310, Note_on_c, 9, 54, 0
7, 2310, Note_on_c, 9, 51, 0
7, 2310, Note_on_c, 9, 38, 0
7, 2340, Note_on_c, 9, 35, 100
7, 2340, Note_on_c, 9, 54, 90
7, 2370, Note_on_c, 9, 54, 0
7, 2370, Note_on_c, 9, 35, 0
7, 2400, Note_on_c, 9, 35, 127
7, 2400, Note_on_c, 9, 51, 127
7, 2400, Note_on_c, 9, 54, 80
7, 2430, Note_on_c, 9, 54, 0
7, 2430, Note_on_c, 9, 51, 0
7, 2430, Note_on_c, 9, 35, 0
7, 2460, Note_on_c, 9, 35, 115
7, 2460, Note_on_c, 9, 54, 90
7, 2490, Note_on_c, 9, 54, 0
7, 2490, Note_on_c, 9, 35, 0
7, 2520, Note_on_c, 9, 38, 127
7, 2520, Note_on_c, 9, 51, 115
7, 2520, Note_on_c, 9, 54, 127
7, 2550, Note_on_c, 9, 54, 0
7, 2550, Note_on_c, 9, 51, 0
7, 2550, Note_on_c, 9, 38, 0
7, 2580, Note_on_c, 9, 35, 100
7, 2580, Note_on_c, 9, 54, 80
7, 2610, Note_on_c, 9, 54, 0
7, 2610, Note_on_c, 9, 35, 0
7, 2640, Note_on_c, 9, 35, 127
7, 2640, Note_on_c, 9, 51, 127
7, 2640, Note_on_c, 9, 54, 100
7, 2670, Note_on_c, 9, 54, 0
7, 2670, Note_on_c, 9, 51, 0
7, 2670, Note_on_c, 9, 35, 0
7, 2700, Note_on_c, 9, 35, 115
7, 2700, Note_on_c, 9, 54, 90
7, 2730, Note_on_c, 9, 54, 0
7, 2730, Note_on_c, 9, 35, 0
7, 2760, Note_on_c, 9, 38, 127
7, 2760, Note_on_c, 9, 51, 115
7, 2760, Note_on_c, 9, 54, 127
7, 2790, Note_on_c, 9, 54, 0
7, 2790, Note_on_c, 9, 51, 0
7, 2790, Note_on_c, 9, 38, 0
7, 2820, Note_on_c, 9, 35, 100
7, 2820, Note_on_c, 9, 54, 90
7, 2850, Note_on_c, 9, 54, 0
7, 2850, Note_on_c, 9, 35, 0
7, 2880, Note_on_c, 9, 35, 127
7, 2880, Note_on_c, 9, 51, 127
7, 2880, Note_on_c, 9, 54, 80
7, 2910, Note_on_c, 9, 54, 0
7, 2910, Note_on_c, 9, 51, 0
7, 2910, Note_on_c, 9, 35, 0
7, 2940, Note_on_c, 9, 35, 115
7, 2940, Note_on_c, 9, 54, 90
7, 2970, Note_on_c, 9, 54, 0
7, 2970, Note_on_c, 9, 35, 0
7, 3000, Note_on_c, 9, 38, 127
7, 3000, Note_on_c, 9, 51, 115
7, 3000, Note_on_c, 9, 54, 127
7, 3030, Note_on_c, 9, 54, 0
7, 3030, Note_on_c, 9, 51, 0
7, 3030, Note_on_c, 9, 38, 0
7, 3060, Note_on_c, 9, 35, 100
7, 3060, Note_on_c, 9, 54, 80
7, 3090, Note_on_c, 9, 54, 0
7, 3090, Note_on_c, 9, 35, 0
7, 3120, Note_on_c, 9, 35, 127
7, 3120, Note_on_c, 9, 51, 127
7, 3120, Note_on_c, 9, 54, 100
7, 3150, Note_on_c, 9, 38, 115
7, 3150, Note_on_c, 9, 54, 0
7, 3150, Note_on_c, 9, 35, 0
7, 3150, Note_on_c, 9, 51, 0
7, 3180, Note_on_c, 9, 35, 115
7, 3180, Note_on_c, 9, 51, 90
7, 3180, Note_on_c, 9, 54, 90
7, 3180, Note_on_c, 9, 38, 0
7, 3210, Note_on_c, 9, 35, 127
7, 3210, Note_on_c, 9, 51, 100
7, 3210, Note_on_c, 9, 35, 0
7, 3210, Note_on_c, 9, 54, 0
7, 3210, Note_on_c, 9, 51, 0
7, 3240, Note_on_c, 9, 38, 127
7, 3240, Note_on_c, 9, 51, 115
7, 3240, Note_on_c, 9, 54, 127
7, 3240, Note_on_c, 9, 35, 0
7, 3240, Note_on_c, 9, 51, 0
7, 3270, Note_on_c, 9, 35, 115
7, 3270, Note_on_c, 9, 51, 0
7, 3270, Note_on_c, 9, 54, 0
7, 3270, Note_on_c, 9, 38, 0
7, 3300, Note_on_c, 9, 35, 100
7, 3300, Note_on_c, 9, 51, 70
7, 3300, Note_on_c, 9, 54, 90
7, 3300, Note_on_c, 9, 35, 0
7, 3330, Note_on_c, 9, 35, 115
7, 3330, Note_on_c, 9, 51, 100
7, 3330, Note_on_c, 9, 35, 0
7, 3330, Note_on_c, 9, 54, 0
7, 3330, Note_on_c, 9, 51, 0
7, 3360, Note_on_c, 9, 35, 127
7, 3360, Note_on_c, 9, 51, 127
7, 3360, Note_on_c, 9, 54, 80
7, 3360, Note_on_c, 9, 35, 0
7, 3360, Note_on_c, 9, 51, 0
7, 3390, Note_on_c, 9, 51, 0
7, 3390, Note_on_c, 9, 35, 0
7, 3390, Note_on_c, 9, 54, 0
7, 3420, Note_on_c, 9, 35, 115
7, 3420, Note_on_c, 9, 54, 90
7, 3450, Note_on_c, 9, 54, 0
7, 3450, Note_on_c, 9, 35, 0
7, 3480, Note_on_c, 9, 38, 127
7, 3480, Note_on_c, 9, 51, 115
7, 3480, Note_on_c, 9, 54, 127
7, 3510, Note_on_c, 9, 54, 0
7, 3510, Note_on_c, 9, 51, 0
7, 3510, Note_on_c, 9, 38, 0
7, 3540, Note_on_c, 9, 35, 100
7, 3540, Note_on_c, 9, 51, 115
7, 3540, Note_on_c, 9, 54, 80
7, 3570, Note_on_c, 9, 54, 0
7, 3570, Note_on_c, 9, 51, 0
7, 3570, Note_on_c, 9, 35, 0
7, 3600, Note_on_c, 9, 35, 127
7, 3600, Note_on_c, 9, 51, 127
7, 3600, Note_on_c, 9, 54, 100
7, 3630, Note_on_c, 9, 54, 0
7, 3630, Note_on_c, 9, 51, 0
7, 3630, Note_on_c, 9, 35, 0
7, 3660, Note_on_c, 9, 35, 115
7, 3660, Note_on_c, 9, 54, 90
7, 3690, Note_on_c, 9, 54, 0
7, 3690, Note_on_c, 9, 35, 0
7, 3720, Note_on_c, 9, 38, 127
7, 3720, Note_on_c, 9, 51, 115
7, 3720, Note_on_c, 9, 54, 127
7, 3750, Note_on_c, 9, 54, 0
7, 3750, Note_on_c, 9, 51, 0
7, 3750, Note_on_c, 9, 38, 0
7, 3780, Note_on_c, 9, 35, 100
7, 3780, Note_on_c, 9, 54, 90
7, 3810, Note_on_c, 9, 54, 0
7, 3810, Note_on_c, 9, 35, 0
7, 3840, Note_on_c, 9, 35, 127
7, 3840, Note_on_c, 9, 51, 127
7, 3840, Note_on_c, 9, 54, 80
7, 3870, Note_on_c, 9, 54, 0
7, 3870, Note_on_c, 9, 51, 0
7, 3870, Note_on_c, 9, 35, 0
7, 3900, Note_on_c, 9, 35, 115
7, 3900, Note_on_c, 9, 54, 90
7, 3930, Note_on_c, 9, 54, 0
7, 3930, Note_on_c, 9, 35, 0
7, 3960, Note_on_c, 9, 38, 127
7, 3960, Note_on_c, 9, 51, 115
7, 3960, Note_on_c, 9, 54, 127
7, 3990, Note_on_c, 9, 54, 0
7, 3990, Note_on_c, 9, 51, 0
7, 3990, Note_on_c, 9, 38, 0
7, 4020, Note_on_c, 9, 35, 100
7, 4020, Note_on_c, 9, 54, 80
7, 4050, Note_on_c, 9, 54, 0
7, 4050, Note_on_c, 9, 35, 0
7, 4080, Note_on_c, 9, 35, 127
7, 4080, Note_on_c, 9, 51, 127
7, 4080, Note_on_c, 9, 54, 100
7, 4110, Note_on_c, 9, 54, 0
7, 4110, Note_on_c, 9, 51, 0
7, 4110, Note_on_c, 9, 35, 0
7, 4140, Note_on_c, 9, 35, 115
7, 4140, Note_on_c, 9, 54, 90
7, 4170, Note_on_c, 9, 54, 0
7, 4170, Note_on_c, 9, 35, 0
7, 4200, Note_on_c, 9, 38, 127
7, 4200, Note_on_c, 9, 51, 115
7, 4200, Note_on_c, 9, 54, 127
7, 4230, Note_on_c, 9, 54, 0
7, 4230, Note_on_c, 9, 51, 0
7, 4230, Note_on_c, 9, 38, 0
7, 4260, Note_on_c, 9, 35, 100
7, 4260, Note_on_c, 9, 54, 90
7, 4290, Note_on_c, 9, 54, 0
7, 4290, Note_on_c, 9, 35, 0
7, 4320, Note_on_c, 9, 35, 127
7, 4320, Note_on_c, 9, 51, 127
7, 4320, Note_on_c, 9, 54, 80
7, 4350, Note_on_c, 9, 54, 0
7, 4350, Note_on_c, 9, 51, 0
7, 4350, Note_on_c, 9, 35, 0
7, 4380, Note_on_c, 9, 35, 115
7, 4380, Note_on_c, 9, 54, 90
7, 4410, Note_on_c, 9, 54, 0
7, 4410, Note_on_c, 9, 35, 0
7, 4440, Note_on_c, 9, 38, 127
7, 4440, Note_on_c, 9, 51, 115
7, 4440, Note_on_c, 9, 54, 127
7, 4470, Note_on_c, 9, 54, 0
7, 4470, Note_on_c, 9, 51, 0
7, 4470, Note_on_c, 9, 38, 0
7, 4500, Note_on_c, 9, 35, 100
7, 4500, Note_on_c, 9, 54, 80
7, 4530, Note_on_c, 9, 54, 0
7, 4530, Note_on_c, 9, 35, 0
7, 4560, Note_on_c, 9, 35, 127
7, 4560, Note_on_c, 9, 51, 127
7, 4560, Note_on_c, 9, 54, 100
7, 4590, Note_on_c, 9, 54, 0
7, 4590, Note_on_c, 9, 51, 0
7, 4590, Note_on_c, 9, 35, 0
7, 4620, Note_on_c, 9, 35, 115
7, 4620, Note_on_c, 9, 54, 90
7, 4650, Note_on_c, 9, 54, 0
7, 4650, Note_on_c, 9, 35, 0
7, 4680, Note_on_c, 9, 38, 127
7, 4680, Note_on_c, 9, 51, 115
7, 4680, Note_on_c, 9, 54, 127
7, 4710, Note_on_c, 9, 54, 0
7, 4710, Note_on_c, 9, 51, 0
7, 4710, Note_on_c, 9, 38, 0
7, 4740, Note_on_c, 9, 35, 100
7, 4740, Note_on_c, 9, 54, 90
7, 4770, Note_on_c, 9, 54, 0
7, 4770, Note_on_c, 9, 35, 0
7, 4800, Note_on_c, 9, 35, 127
7, 4800, Note_on_c, 9, 51, 127
7, 4800, Note_on_c, 9, 54, 80
7, 4830, Note_on_c, 9, 54, 0
7, 4830, Note_on_c, 9, 51, 0
7, 4830, Note_on_c, 9, 35, 0
7, 4860, Note_on_c, 9, 35, 115
7, 4860, Note_on_c, 9, 54, 90
7, 4890, Note_on_c, 9, 54, 0
7, 4890, Note_on_c, 9, 35, 0
7, 4920, Note_on_c, 9, 38, 127
7, 4920, Note_on_c, 9, 51, 115
7, 4920, Note_on_c, 9, 54, 127
7, 4950, Note_on_c, 9, 54, 0
7, 4950, Note_on_c, 9, 51, 0
7, 4950, Note_on_c, 9, 38, 0
7, 4980, Note_on_c, 9, 35, 100
7, 4980, Note_on_c, 9, 54, 80
7, 5010, Note_on_c, 9, 54, 0
7, 5010, Note_on_c, 9, 35, 0
7, 5040, Note_on_c, 9, 35, 127
7, 5040, Note_on_c, 9, 51, 127
7, 5040, Note_on_c, 9, 54, 100
7, 5070, Note_on_c, 9, 38, 115
7, 5070, Note_on_c, 9, 54, 0
7, 5070, Note_on_c, 9, 35, 0
7, 5070, Note_on_c, 9, 51, 0
7, 5100, Note_on_c, 9, 35, 115
7, 5100, Note_on_c, 9, 51, 90
7, 5100, Note_on_c, 9, 54, 90
7, 5100, Note_on_c, 9, 38, 0
7, 5130, Note_on_c, 9, 35, 127
7, 5130, Note_on_c, 9, 51, 100
7, 5130, Note_on_c, 9, 35, 0
7, 5130, Note_on_c, 9, 54, 0
7, 5130, Note_on_c, 9, 51, 0
7, 5160, Note_on_c, 9, 38, 127
7, 5160, Note_on_c, 9, 51, 115
7, 5160, Note_on_c, 9, 54, 127
7, 5160, Note_on_c, 9, 35, 0
7, 5160, Note_on_c, 9, 51, 0
7, 5190, Note_on_c, 9, 51, 0
7, 5190, Note_on_c, 9, 38, 0
7, 5190, Note_on_c, 9, 54, 0
7, 5220, Note_on_c, 9, 35, 100
7, 5220, Note_on_c, 9, 51, 70
7, 5220, Note_on_c, 9, 54, 90
7, 5250, Note_on_c, 9, 35, 115
7, 5250, Note_on_c, 9, 51, 100
7, 5250, Note_on_c, 9, 54, 0
7, 5250, Note_on_c, 9, 35, 0
7, 5250, Note_on_c, 9, 51, 0
7, 5280, Note_on_c, 9, 38, 127
7, 5280, Note_on_c, 9, 48, 127
7, 5280, Note_on_c, 9, 35, 0
7, 5280, Note_on_c, 9, 51, 0
7, 5310, Note_on_c, 9, 38, 0
7, 5310, Note_on_c, 9, 48, 0
7, 5340, Note_on_c, 9, 35, 115
7, 5370, Note_on_c, 9, 35, 0
7, 5400, Note_on_c, 9, 35, 127
7, 5430, Note_on_c, 9, 35, 0
7, 5460, Note_on_c, 9, 38, 127
7, 5460, Note_on_c, 9, 45, 127
7, 5490, Note_on_c, 9, 45, 0
7, 5490, Note_on_c, 9, 38, 0
7, 5520, Note_on_c, 9, 35, 127
7, 5550, Note_on_c, 9, 35, 0
7, 5580, Note_on_c, 9, 35, 115
7, 5610, Note_on_c, 9, 35, 0
7, 5640, Note_on_c, 9, 38, 127
7, 5640, Note_on_c, 9, 41, 127
7, 5670, Note_on_c, 9, 41, 0
7, 5670, Note_on_c, 9, 38, 0
7, 5760, Note_on_c, 9, 35, 127
7, 5760, Note_on_c, 9, 46, 100
7, 5760, Note_on_c, 9, 49, 127
7, 5790, Note_on_c, 9, 49, 0
7, 5790, Note_on_c, 9, 46, 0
7, 5790, Note_on_c, 9, 35, 0
7, 5880, Note_on_c, 9, 38, 115
7, 5880, Note_on_c, 9, 46, 100
7, 5910, Note_on_c, 9, 46, 0
7, 5910, Note_on_c, 9, 38, 0
7, 5940, Note_on_c, 9, 35, 100
7, 5970, Note_on_c, 9, 35, 0
7, 6000, Note_on_c, 9, 35, 127
7, 6000, Note_on_c, 9, 46, 100
7, 6030, Note_on_c, 9, 46, 0
7, 6030, Note_on_c, 9, 35, 0
7, 6120, Note_on_c, 9, 38, 115
7, 6120, Note_on_c, 9, 46, 100
7, 6150, Note_on_c, 9, 46, 0
7, 6150, Note_on_c, 9, 38, 0
7, 6180, Note_on_c, 9, 35, 100
7, 6210, Note_on_c, 9, 35, 0
7, 6240, Note_on_c, 9, 35, 127
7, 6240, Note_on_c, 9, 46, 100
7, 6270, Note_on_c, 9, 46, 0
7, 6270, Note_on_c, 9, 35, 0
7, 6360, Note_on_c, 9, 38, 115
7, 6360, Note_on_c, 9, 46, 100
7, 6390, Note_on_c, 9, 46, 0
7, 6390, Note_on_c, 9, 38, 0
7, 6420, Note_on_c, 9, 35, 115
7, 6450, Note_on_c, 9, 35, 0
7, 6480, Note_on_c, 9, 46, 100
7, 6510, Note_on_c, 9, 46, 0
7, 6540, Note_on_c, 9, 35, 127
7, 6570, Note_on_c, 9, 35, 100
7, 6570, Note_on_c, 9, 35, 0
7, 6600, Note_on_c, 9, 38, 115
7, 6600, Note_on_c, 9, 46, 100
7, 6600, Note_on_c, 9, 35, 0
7, 6630, Note_on_c, 9, 46, 0
7, 6630, Note_on_c, 9, 38, 0
7, 6660, Note_on_c, 9, 35, 100
7, 6690, Note_on_c, 9, 35, 0
7, 6720, Note_on_c, 9, 35, 127
7, 6720, Note_on_c, 9, 46, 100
7, 6750, Note_on_c, 9, 46, 0
7, 6750, Note_on_c, 9, 35, 0
7, 6840, Note_on_c, 9, 38, 115
7, 6840, Note_on_c, 9, 46, 100
7, 6870, Note_on_c, 9, 46, 0
7, 6870, Note_on_c, 9, 38, 0
7, 6900, Note_on_c, 9, 35, 100
7, 6930, Note_on_c, 9, 35, 0
7, 6960, Note_on_c, 9, 35, 127
7, 6960, Note_on_c, 9, 46, 100
7, 6990, Note_on_c, 9, 46, 0
7, 6990, Note_on_c, 9, 35, 0
7, 7020, Note_on_c, 9, 35, 115
7, 7050, Note_on_c, 9, 35, 0
7, 7080, Note_on_c, 9, 38, 115
7, 7080, Note_on_c, 9, 46, 100
7, 7110, Note_on_c, 9, 46, 0
7, 7110, Note_on_c, 9, 38, 0
7, 7140, Note_on_c, 9, 35, 100
7, 7170, Note_on_c, 9, 35, 0
7, 7200, Note_on_c, 9, 35, 127
7, 7200, Note_on_c, 9, 46, 100
7, 7230, Note_on_c, 9, 46, 0
7, 7230, Note_on_c, 9, 35, 0
7, 7320, Note_on_c, 9, 38, 115
7, 7320, Note_on_c, 9, 46, 100
7, 7350, Note_on_c, 9, 46, 0
7, 7350, Note_on_c, 9, 38, 0
7, 7380, Note_on_c, 9, 35, 115
7, 7410, Note_on_c, 9, 35, 0
7, 7440, Note_on_c, 9, 46, 100
7, 7470, Note_on_c, 9, 46, 0
7, 7500, Note_on_c, 9, 35, 127
7, 7530, Note_on_c, 9, 35, 100
7, 7530, Note_on_c, 9, 35, 0
7, 7560, Note_on_c, 9, 38, 115
7, 7560, Note_on_c, 9, 46, 100
7, 7560, Note_on_c, 9, 35, 0
7, 7590, Note_on_c, 9, 46, 0
7, 7590, Note_on_c, 9, 38, 0
7, 7620, Note_on_c, 9, 35, 100
7, 7650, Note_on_c, 9, 35, 0
7, 7680, Note_on_c, 9, 38, 127
7, 7680, Note_on_c, 9, 42, 90
7, 7710, Note_on_c, 9, 38, 100
7, 7710, Note_on_c, 9, 42, 0
7, 7710, Note_on_c, 9, 38, 0
7, 7740, Note_on_c, 9, 38, 0
7, 7770, Note_on_c, 9, 38, 127
7, 7800, Note_on_c, 9, 38, 100
7, 7800, Note_on_c, 9, 42, 90
7, 7800, Note_on_c, 9, 38, 0
7, 7830, Note_on_c, 9, 42, 0
7, 7830, Note_on_c, 9, 38, 0
7, 7860, Note_on_c, 9, 38, 127
7, 7890, Note_on_c, 9, 38, 100
7, 7890, Note_on_c, 9, 38, 0
7, 7920, Note_on_c, 9, 42, 90
7, 7920, Note_on_c, 9, 38, 0
7, 7950, Note_on_c, 9, 35, 127
7, 7950, Note_on_c, 9, 42, 0
7, 7980, Note_on_c, 9, 38, 127
7, 7980, Note_on_c, 9, 35, 0
7, 8010, Note_on_c, 9, 38, 115
7, 8010, Note_on_c, 9, 38, 0
7, 8040, Note_on_c, 9, 38, 127
7, 8040, Note_on_c, 9, 42, 90
7, 8040, Note_on_c, 9, 38, 0
7, 8070, Note_on_c, 9, 45, 127
7, 8070, Note_on_c, 9, 42, 0
7, 8070, Note_on_c, 9, 38, 0
7, 8100, Note_on_c, 9, 41, 127
7, 8100, Note_on_c, 9, 45, 0
7, 8130, Note_on_c, 9, 41, 0
7, 8160, Note_on_c, 9, 35, 127
7, 8160, Note_on_c, 9, 51, 127
7, 8160, Note_on_c, 9, 49, 127
7, 8160, Note_on_c, 9, 54, 80
7, 8190, Note_on_c, 9, 54, 0
7, 8190, Note_on_c, 9, 35, 0
7, 8190, Note_on_c, 9, 51, 0
7, 8190, Note_on_c, 9, 49, 0
7, 8220, Note_on_c, 9, 35, 115
7, 8220, Note_on_c, 9, 54, 90
7, 8250, Note_on_c, 9, 54, 0
7, 8250, Note_on_c, 9, 35, 0
7, 8280, Note_on_c, 9, 38, 127
7, 8280, Note_on_c, 9, 51, 115
7, 8280, Note_on_c, 9, 54, 127
7, 8310, Note_on_c, 9, 54, 0
7, 8310, Note_on_c, 9, 51, 0
7, 8310, Note_on_c, 9, 38, 0
7, 8340, Note_on_c, 9, 35, 100
7, 8340, Note_on_c, 9, 54, 80
7, 8370, Note_on_c, 9, 54, 0
7, 8370, Note_on_c, 9, 35, 0
7, 8400, Note_on_c, 9, 35, 127
7, 8400, Note_on_c, 9, 51, 127
7, 8400, Note_on_c, 9, 54, 100
7, 8430, Note_on_c, 9, 54, 0
7, 8430, Note_on_c, 9, 51, 0
7, 8430, Note_on_c, 9, 35, 0
7, 8460, Note_on_c, 9, 35, 115
7, 8460, Note_on_c, 9, 54, 90
7, 8490, Note_on_c, 9, 54, 0
7, 8490, Note_on_c, 9, 35, 0
7, 8520, Note_on_c, 9, 38, 127
7, 8520, Note_on_c, 9, 51, 115
7, 8520, Note_on_c, 9, 54, 127
7, 8550, Note_on_c, 9, 54, 0
7, 8550, Note_on_c, 9, 51, 0
7, 8550, Note_on_c, 9, 38, 0
7, 8580, Note_on_c, 9, 35, 100
7, 8580, Note_on_c, 9, 54, 90
7, 8610, Note_on_c, 9, 54, 0
7, 8610, Note_on_c, 9, 35, 0
7, 8640, Note_on_c, 9, 35, 127
7, 8640, Note_on_c, 9, 51, 127
7, 8640, Note_on_c, 9, 54, 80
7, 8670, Note_on_c, 9, 54, 0
7, 8670, Note_on_c, 9, 51, 0
7, 8670, Note_on_c, 9, 35, 0
7, 8700, Note_on_c, 9, 35, 115
7, 8700, Note_on_c, 9, 54, 90
7, 8730, Note_on_c, 9, 54, 0
7, 8730, Note_on_c, 9, 35, 0
7, 8760, Note_on_c, 9, 38, 127
7, 8760, Note_on_c, 9, 51, 115
7, 8760, Note_on_c, 9, 54, 127
7, 8790, Note_on_c, 9, 54, 0
7, 8790, Note_on_c, 9, 51, 0
7, 8790, Note_on_c, 9, 38, 0
7, 8820, Note_on_c, 9, 35, 100
7, 8820, Note_on_c, 9, 54, 80
7, 8850, Note_on_c, 9, 54, 0
7, 8850, Note_on_c, 9, 35, 0
7, 8880, Note_on_c, 9, 35, 127
7, 8880, Note_on_c, 9, 51, 127
7, 8880, Note_on_c, 9, 54, 100
7, 8910, Note_on_c, 9, 54, 0
7, 8910, Note_on_c, 9, 51, 0
7, 8910, Note_on_c, 9, 35, 0
7, 8940, Note_on_c, 9, 35, 115
7, 8940, Note_on_c, 9, 54, 90
7, 8970, Note_on_c, 9, 54, 0
7, 8970, Note_on_c, 9, 35, 0
7, 9000, Note_on_c, 9, 38, 127
7, 9000, Note_on_c, 9, 51, 115
7, 9000, Note_on_c, 9, 54, 127
7, 9030, Note_on_c, 9, 54, 0
7, 9030, Note_on_c, 9, 51, 0
7, 9030, Note_on_c, 9, 38, 0
7, 9060, Note_on_c, 9, 35, 100
7, 9060, Note_on_c, 9, 54, 90
7, 9090, Note_on_c, 9, 54, 0
7, 9090, Note_on_c, 9, 35, 0
7, 9120, Note_on_c, 9, 35, 127
7, 9120, Note_on_c, 9, 51, 127
7, 9120, Note_on_c, 9, 54, 80
7, 9150, Note_on_c, 9, 54, 0
7, 9150, Note_on_c, 9, 51, 0
7, 9150, Note_on_c, 9, 35, 0
7, 9180, Note_on_c, 9, 35, 115
7, 9180, Note_on_c, 9, 54, 90
7, 9210, Note_on_c, 9, 54, 0
7, 9210, Note_on_c, 9, 35, 0
7, 9240, Note_on_c, 9, 38, 127
7, 9240, Note_on_c, 9, 51, 115
7, 9240, Note_on_c, 9, 54, 127
7, 9270, Note_on_c, 9, 54, 0
7, 9270, Note_on_c, 9, 51, 0
7, 9270, Note_on_c, 9, 38, 0
7, 9300, Note_on_c, 9, 35, 100
7, 9300, Note_on_c, 9, 54, 80
7, 9330, Note_on_c, 9, 54, 0
7, 9330, Note_on_c, 9, 35, 0
7, 9360, Note_on_c, 9, 35, 127
7, 9360, Note_on_c, 9, 51, 127
7, 9360, Note_on_c, 9, 54, 100
7, 9390, Note_on_c, 9, 54, 0
7, 9390, Note_on_c, 9, 51, 0
7, 9390, Note_on_c, 9, 35, 0
7, 9420, Note_on_c, 9, 35, 115
7, 9420, Note_on_c, 9, 54, 90
7, 9450, Note_on_c, 9, 54, 0
7, 9450, Note_on_c, 9, 35, 0
7, 9480, Note_on_c, 9, 38, 127
7, 9480, Note_on_c, 9, 51, 115
7, 9480, Note_on_c, 9, 54, 127
7, 9510, Note_on_c, 9, 54, 0
7, 9510, Note_on_c, 9, 51, 0
7, 9510, Note_on_c, 9, 38, 0
7, 9540, Note_on_c, 9, 35, 100
7, 9540, Note_on_c, 9, 54, 90
7, 9570, Note_on_c, 9, 54, 0
7, 9570, Note_on_c, 9, 35, 0
7, 9600, Note_on_c, 9, 35, 127
7, 9600, Note_on_c, 9, 51, 127
7, 9600, Note_on_c, 9, 54, 80
7, 9630, Note_on_c, 9, 54, 0
7, 9630, Note_on_c, 9, 51, 0
7, 9630, Note_on_c, 9, 35, 0
7, 9660, Note_on_c, 9, 35, 115
7, 9660, Note_on_c, 9, 54, 90
7, 9690, Note_on_c, 9, 54, 0
7, 9690, Note_on_c, 9, 35, 0
7, 9720, Note_on_c, 9, 38, 127
7, 9720, Note_on_c, 9, 51, 115
7, 9720, Note_on_c, 9, 54, 127
7, 9750, Note_on_c, 9, 54, 0
7, 9750, Note_on_c, 9, 51, 0
7, 9750, Note_on_c, 9, 38, 0
7, 9780, Note_on_c, 9, 35, 100
7, 9780, Note_on_c, 9, 54, 80
7, 9810, Note_on_c, 9, 54, 0
7, 9810, Note_on_c, 9, 35, 0
7, 9840, Note_on_c, 9, 35, 127
7, 9840, Note_on_c, 9, 51, 127
7, 9840, Note_on_c, 9, 54, 100
7, 9870, Note_on_c, 9, 54, 0
7, 9870, Note_on_c, 9, 51, 0
7, 9870, Note_on_c, 9, 35, 0
7, 9900, Note_on_c, 9, 35, 115
7, 9900, Note_on_c, 9, 54, 90
7, 9930, Note_on_c, 9, 54, 0
7, 9930, Note_on_c, 9, 35, 0
7, 9960, Note_on_c, 9, 38, 127
7, 9960, Note_on_c, 9, 51, 115
7, 9960, Note_on_c, 9, 54, 127
7, 9990, Note_on_c, 9, 54, 0
7, 9990, Note_on_c, 9, 51, 0
7, 9990, Note_on_c, 9, 38, 0
7, 10020, Note_on_c, 9, 35, 100
7, 10020, Note_on_c, 9, 54, 90
7, 10050, Note_on_c, 9, 54, 0
7, 10050, Note_on_c, 9, 35, 0
7, 10080, Note_on_c, 9, 35, 127
7, 10080, Note_on_c, 9, 51, 127
7, 10080, Note_on_c, 9, 54, 80
7, 10110, Note_on_c, 9, 54, 0
7, 10110, Note_on_c, 9, 51, 0
7, 10110, Note_on_c, 9, 35, 0
7, 10140, Note_on_c, 9, 35, 115
7, 10140, Note_on_c, 9, 54, 90
7, 10170, Note_on_c, 9, 54, 0
7, 10170, Note_on_c, 9, 35, 0
7, 10200, Note_on_c, 9, 38, 127
7, 10200, Note_on_c, 9, 51, 115
7, 10200, Note_on_c, 9, 54, 127
7, 10230, Note_on_c, 9, 54, 0
7, 10230, Note_on_c, 9, 51, 0
7, 10230, Note_on_c, 9, 38, 0
7, 10260, Note_on_c, 9, 35, 100
7, 10260, Note_on_c, 9, 54, 80
7, 10290, Note_on_c, 9, 54, 0
7, 10290, Note_on_c, 9, 35, 0
7, 10320, Note_on_c, 9, 35, 127
7, 10320, Note_on_c, 9, 51, 127
7, 10320, Note_on_c, 9, 54, 100
7, 10350, Note_on_c, 9, 54, 0
7, 10350, Note_on_c, 9, 51, 0
7, 10350, Note_on_c, 9, 35, 0
7, 10380, Note_on_c, 9, 35, 115
7, 10380, Note_on_c, 9, 54, 90
7, 10410, Note_on_c, 9, 54, 0
7, 10410, Note_on_c, 9, 35, 0
7, 10440, Note_on_c, 9, 38, 127
7, 10440, Note_on_c, 9, 51, 115
7, 10440, Note_on_c, 9, 54, 127
7, 10470, Note_on_c, 9, 54, 0
7, 10470, Note_on_c, 9, 51, 0
7, 10470, Note_on_c, 9, 38, 0
7, 10500, Note_on_c, 9, 35, 100
7, 10500, Note_on_c, 9, 54, 90
7, 10530, Note_on_c, 9, 54, 0
7, 10530, Note_on_c, 9, 35, 0
7, 10560, Note_on_c, 9, 35, 127
7, 10560, Note_on_c, 9, 51, 127
7, 10560, Note_on_c, 9, 54, 80
7, 10590, Note_on_c, 9, 54, 0
7, 10590, Note_on_c, 9, 51, 0
7, 10590, Note_on_c, 9, 35, 0
7, 10620, Note_on_c, 9, 35, 115
7, 10620, Note_on_c, 9, 54, 90
7, 10650, Note_on_c, 9, 54, 0
7, 10650, Note_on_c, 9, 35, 0
7, 10680, Note_on_c, 9, 38, 127
7, 10680, Note_on_c, 9, 51, 115
7, 10680, Note_on_c, 9, 54, 127
7, 10710, Note_on_c, 9, 54, 0
7, 10710, Note_on_c, 9, 51, 0
7, 10710, Note_on_c, 9, 38, 0
7, 10740, Note_on_c, 9, 35, 100
7, 10740, Note_on_c, 9, 54, 80
7, 10770, Note_on_c, 9, 54, 0
7, 10770, Note_on_c, 9, 35, 0
7, 10800, Note_on_c, 9, 35, 127
7, 10800, Note_on_c, 9, 51, 127
7, 10800, Note_on_c, 9, 54, 100
7, 10830, Note_on_c, 9, 54, 0
7, 10830, Note_on_c, 9, 51, 0
7, 10830, Note_on_c, 9, 35, 0
7, 10860, Note_on_c, 9, 35, 115
7, 10860, Note_on_c, 9, 54, 90
7, 10890, Note_on_c, 9, 54, 0
7, 10890, Note_on_c, 9, 35, 0
7, 10920, Note_on_c, 9, 38, 127
7, 10920, Note_on_c, 9, 51, 115
7, 10920, Note_on_c, 9, 54, 127
7, 10950, Note_on_c, 9, 54, 0
7, 10950, Note_on_c, 9, 51, 0
7, 10950, Note_on_c, 9, 38, 0
7, 10980, Note_on_c, 9, 35, 100
7, 10980, Note_on_c, 9, 54, 90
7, 11010, Note_on_c, 9, 54, 0
7, 11010, Note_on_c, 9, 35, 0
7, 11040, Note_on_c, 9, 35, 127
7, 11040, Note_on_c, 9, 51, 127
7, 11040, Note_on_c, 9, 54, 80
7, 11070, Note_on_c, 9, 35, 100
7, 11070, Note_on_c, 9, 54, 0
7, 11070, Note_on_c, 9, 35, 0
7, 11070, Note_on_c, 9, 51, 0
7, 11100, Note_on_c, 9, 35, 115
7, 11100, Note_on_c, 9, 54, 90
7, 11100, Note_on_c, 9, 35, 0
7, 11130, Note_on_c, 9, 54, 0
7, 11130, Note_on_c, 9, 35, 0
7, 11160, Note_on_c, 9, 38, 127
7, 11160, Note_on_c, 9, 51, 115
7, 11160, Note_on_c, 9, 54, 127
7, 11190, Note_on_c, 9, 54, 0
7, 11190, Note_on_c, 9, 51, 0
7, 11190, Note_on_c, 9, 38, 0
7, 11220, Note_on_c, 9, 35, 100
7, 11220, Note_on_c, 9, 54, 80
7, 11250, Note_on_c, 9, 51, 90
7, 11250, Note_on_c, 9, 54, 0
7, 11250, Note_on_c, 9, 35, 0
7, 11280, Note_on_c, 9, 35, 127
7, 11280, Note_on_c, 9, 51, 127
7, 11280, Note_on_c, 9, 54, 100
7, 11280, Note_on_c, 9, 51, 0
7, 11310, Note_on_c, 9, 35, 0
7, 11310, Note_on_c, 9, 51, 0
7, 11310, Note_on_c, 9, 54, 0
7, 11340, Note_on_c, 9, 35, 115
7, 11340, Note_on_c, 9, 54, 90
7, 11370, Note_on_c, 9, 54, 0
7, 11370, Note_on_c, 9, 35, 0
7, 11400, Note_on_c, 9, 38, 127
7, 11400, Note_on_c, 9, 51, 115
7, 11400, Note_on_c, 9, 54, 127
7, 11430, Note_on_c, 9, 54, 0
7, 11430, Note_on_c, 9, 51, 0
7, 11430, Note_on_c, 9, 38, 0
7, 11460, Note_on_c, 9, 35, 100
7, 11460, Note_on_c, 9, 54, 90
7, 11490, Note_on_c, 9, 54, 0
7, 11490, Note_on_c, 9, 35, 0
7, 11520, Note_on_c, 9, 35, 127
7, 11520, Note_on_c, 9, 51, 127
7, 11520, Note_on_c, 9, 54, 80
7, 11550, Note_on_c, 9, 54, 0
7, 11550, Note_on_c, 9, 51, 0
7, 11550, Note_on_c, 9, 35, 0
7, 11580, Note_on_c, 9, 35, 115
7, 11580, Note_on_c, 9, 54, 90
7, 11610, Note_on_c, 9, 54, 0
7, 11610, Note_on_c, 9, 35, 0
7, 11640, Note_on_c, 9, 38, 127
7, 11640, Note_on_c, 9, 51, 115
7, 11640, Note_on_c, 9, 54, 127
7, 11670, Note_on_c, 9, 54, 0
7, 11670, Note_on_c, 9, 51, 0
7, 11670, Note_on_c, 9, 38, 0
7, 11700, Note_on_c, 9, 35, 100
7, 11700, Note_on_c, 9, 51, 115
7, 11700, Note_on_c, 9, 54, 80
7, 11730, Note_on_c, 9, 54, 0
7, 11730, Note_on_c, 9, 51, 0
7, 11730, Note_on_c, 9, 35, 0
7, 11760, Note_on_c, 9, 35, 127
7, 11760, Note_on_c, 9, 51, 127
7, 11760, Note_on_c, 9, 54, 100
7, 11790, Note_on_c, 9, 54, 0
7, 11790, Note_on_c, 9, 51, 0
7, 11790, Note_on_c, 9, 35, 0
7, 11820, Note_on_c, 9, 35, 115
7, 11820, Note_on_c, 9, 54, 90
7, 11850, Note_on_c, 9, 54, 0
7, 11850, Note_on_c, 9, 35, 0
7, 11880, Note_on_c, 9, 38, 127
7, 11880, Note_on_c, 9, 51, 115
7, 11880, Note_on_c, 9, 54, 127
7, 11910, Note_on_c, 9, 54, 0
7, 11910, Note_on_c, 9, 51, 0
7, 11910, Note_on_c, 9, 38, 0
7, 11940, Note_on_c, 9, 35, 100
7, 11940, Note_on_c, 9, 54, 90
7, 11970, Note_on_c, 9, 54, 0
7, 11970, Note_on_c, 9, 35, 0
7, 12000, Note_on_c, 9, 35, 127
7, 12000, Note_on_c, 9, 51, 127
7, 12000, Note_on_c, 9, 54, 80
7, 12030, Note_on_c, 9, 54, 0
7, 12030, Note_on_c, 9, 51, 0
7, 12030, Note_on_c, 9, 35, 0
7, 12060, Note_on_c, 9, 35, 115
7, 12060, Note_on_c, 9, 54, 90
7, 12090, Note_on_c, 9, 54, 0
7, 12090, Note_on_c, 9, 35, 0
7, 12120, Note_on_c, 9, 38, 127
7, 12120, Note_on_c, 9, 51, 115
7, 12120, Note_on_c, 9, 54, 127
7, 12150, Note_on_c, 9, 54, 0
7, 12150, Note_on_c, 9, 51, 0
7, 12150, Note_on_c, 9, 38, 0
7, 12180, Note_on_c, 9, 35, 100
7, 12180, Note_on_c, 9, 54, 80
7, 12210, Note_on_c, 9, 54, 0
7, 12210, Note_on_c, 9, 35, 0
7, 12240, Note_on_c, 9, 35, 127
7, 12240, Note_on_c, 9, 51, 127
7, 12240, Note_on_c, 9, 54, 100
7, 12270, Note_on_c, 9, 54, 0
7, 12270, Note_on_c, 9, 51, 0
7, 12270, Note_on_c, 9, 35, 0
7, 12300, Note_on_c, 9, 35, 115
7, 12300, Note_on_c, 9, 54, 90
7, 12330, Note_on_c, 9, 54, 0
7, 12330, Note_on_c, 9, 35, 0
7, 12360, Note_on_c, 9, 38, 127
7, 12360, Note_on_c, 9, 51, 115
7, 12360, Note_on_c, 9, 54, 127
7, 12390, Note_on_c, 9, 54, 0
7, 12390, Note_on_c, 9, 51, 0
7, 12390, Note_on_c, 9, 38, 0
7, 12420, Note_on_c, 9, 35, 100
7, 12420, Note_on_c, 9, 54, 90
7, 12450, Note_on_c, 9, 54, 0
7, 12450, Note_on_c, 9, 35, 0
7, 12480, Note_on_c, 9, 38, 127
7, 12480, Note_on_c, 9, 48, 127
7, 12510, Note_on_c, 9, 48, 0
7, 12510, Note_on_c, 9, 38, 0
7, 12540, Note_on_c, 9, 35, 115
7, 12570, Note_on_c, 9, 35, 0
7, 12600, Note_on_c, 9, 35, 127
7, 12630, Note_on_c, 9, 35, 100
7, 12630, Note_on_c, 9, 35, 0
7, 12660, Note_on_c, 9, 38, 127
7, 12660, Note_on_c, 9, 45, 127
7, 12660, Note_on_c, 9, 35, 0
7, 12690, Note_on_c, 9, 45, 0
7, 12690, Note_on_c, 9, 38, 0
7, 12720, Note_on_c, 9, 35, 127
7, 12750, Note_on_c, 9, 35, 0
7, 12780, Note_on_c, 9, 35, 115
7, 12810, Note_on_c, 9, 35, 0
7, 12840, Note_on_c, 9, 38, 127
7, 12840, Note_on_c, 9, 41, 127
7, 12870, Note_on_c, 9, 41, 0
7, 12870, Note_on_c, 9, 38, 0
7, 12960, Note_on_c, 9, 35, 127
7, 12960, Note_on_c, 9, 51, 127
7, 12960, Note_on_c, 9, 49, 127
7, 12960, Note_on_c, 9, 54, 80
7, 12990, Note_on_c, 9, 54, 0
7, 12990, Note_on_c, 9, 35, 0
7, 12990, Note_on_c, 9, 51, 0
7, 12990, Note_on_c, 9, 49, 0
7, 13020, Note_on_c, 9, 35, 115
7, 13020, Note_on_c, 9, 54, 90
7, 13050, Note_on_c, 9, 54, 0
7, 13050, Note_on_c, 9, 35, 0
7, 13080, Note_on_c, 9, 38, 127
7, 13080, Note_on_c, 9, 51, 115
7, 13080, Note_on_c, 9, 54, 127
7, 13110, Note_on_c, 9, 54, 0
7, 13110, Note_on_c, 9, 51, 0
7, 13110, Note_on_c, 9, 38, 0
7, 13140, Note_on_c, 9, 35, 100
7, 13140, Note_on_c, 9, 54, 80
7, 13170, Note_on_c, 9, 54, 0
7, 13170, Note_on_c, 9, 35, 0
7, 13200, Note_on_c, 9, 35, 127
7, 13200, Note_on_c, 9, 51, 127
7, 13200, Note_on_c, 9, 54, 100
7, 13230, Note_on_c, 9, 54, 0
7, 13230, Note_on_c, 9, 51, 0
7, 13230, Note_on_c, 9, 35, 0
7, 13260, Note_on_c, 9, 35, 115
7, 13260, Note_on_c, 9, 54, 90
7, 13290, Note_on_c, 9, 54, 0
7, 13290, Note_on_c, 9, 35, 0
7, 13320, Note_on_c, 9, 38, 127
7, 13320, Note_on_c, 9, 51, 115
7, 13320, Note_on_c, 9, 54, 127
7, 13350, Note_on_c, 9, 54, 0
7, 13350, Note_on_c, 9, 51, 0
7, 13350, Note_on_c, 9, 38, 0
7, 13380, Note_on_c, 9, 35, 100
7, 13380, Note_on_c, 9, 54, 90
7, 13410, Note_on_c, 9, 54, 0
7, 13410, Note_on_c, 9, 35, 0
7, 13440, Note_on_c, 9, 35, 127
7, 13440, Note_on_c, 9, 51, 127
7, 13440, Note_on_c, 9, 54, 80
7, 13470, Note_on_c, 9, 54, 0
7, 13470, Note_on_c, 9, 51, 0
7, 13470, Note_on_c, 9, 35, 0
7, 13500, Note_on_c, 9, 35, 115
7, 13500, Note_on_c, 9, 54, 90
7, 13530, Note_on_c, 9, 54, 0
7, 13530, Note_on_c, 9, 35, 0
7, 13560, Note_on_c, 9, 38, 127
7, 13560, Note_on_c, 9, 51, 115
7, 13560, Note_on_c, 9, 54, 127
7, 13590, Note_on_c, 9, 54, 0
7, 13590, Note_on_c, 9, 51, 0
7, 13590, Note_on_c, 9, 38, 0
7, 13620, Note_on_c, 9, 35, 100
7, 13620, Note_on_c, 9, 54, 80
7, 13650, Note_on_c, 9, 54, 0
7, 13650, Note_on_c, 9, 35, 0
7, 13680, Note_on_c, 9, 35, 127
7, 13680, Note_on_c, 9, 51, 127
7, 13680, Note_on_c, 9, 54, 100
7, 13710, Note_on_c, 9, 54, 0
7, 13710, Note_on_c, 9, 51, 0
7, 13710, Note_on_c, 9, 35, 0
7, 13740, Note_on_c, 9, 35, 115
7, 13740, Note_on_c, 9, 54, 90
7, 13770, Note_on_c, 9, 54, 0
7, 13770, Note_on_c, 9, 35, 0
7, 13800, Note_on_c, 9, 38, 127
7, 13800, Note_on_c, 9, 51, 115
7, 13800, Note_on_c, 9, 54, 127
7, 13830, Note_on_c, 9, 54, 0
7, 13830, Note_on_c, 9, 51, 0
7, 13830, Note_on_c, 9, 38, 0
7, 13860, Note_on_c, 9, 35, 100
7, 13860, Note_on_c, 9, 54, 90
7, 13890, Note_on_c, 9, 54, 0
7, 13890, Note_on_c, 9, 35, 0
7, 13920, Note_on_c, 9, 35, 127
7, 13920, Note_on_c, 9, 51, 127
7, 13920, Note_on_c, 9, 54, 80
7, 13950, Note_on_c, 9, 54, 0
7, 13950, Note_on_c, 9, 51, 0
7, 13950, Note_on_c, 9, 35, 0
7, 13980, Note_on_c, 9, 35, 115
7, 13980, Note_on_c, 9, 54, 90
7, 14010, Note_on_c, 9, 54, 0
7, 14010, Note_on_c, 9, 35, 0
7, 14040, Note_on_c, 9, 38, 127
7, 14040, Note_on_c, 9, 51, 115
7, 14040, Note_on_c, 9, 54, 127
7, 14070, Note_on_c, 9, 54, 0
7, 14070, Note_on_c, 9, 51, 0
7, 14070, Note_on_c, 9, 38, 0
7, 14100, Note_on_c, 9, 35, 100
7, 14100, Note_on_c, 9, 54, 80
7, 14130, Note_on_c, 9, 54, 0
7, 14130, Note_on_c, 9, 35, 0
7, 14160, Note_on_c, 9, 35, 127
7, 14160, Note_on_c, 9, 51, 127
7, 14160, Note_on_c, 9, 54, 100
7, 14190, Note_on_c, 9, 54, 0
7, 14190, Note_on_c, 9, 51, 0
7, 14190, Note_on_c, 9, 35, 0
7, 14220, Note_on_c, 9, 35, 115
7, 14220, Note_on_c, 9, 54, 90
7, 14250, Note_on_c, 9, 54, 0
7, 14250, Note_on_c, 9, 35, 0
7, 14280, Note_on_c, 9, 38, 127
7, 14280, Note_on_c, 9, 51, 115
7, 14280, Note_on_c, 9, 54, 127
7, 14310, Note_on_c, 9, 54, 0
7, 14310, Note_on_c, 9, 51, 0
7, 14310, Note_on_c, 9, 38, 0
7, 14340, Note_on_c, 9, 35, 100
7, 14340, Note_on_c, 9, 54, 90
7, 14370, Note_on_c, 9, 54, 0
7, 14370, Note_on_c, 9, 35, 0
7, 14400, Note_on_c, 9, 35, 127
7, 14400, Note_on_c, 9, 51, 127
7, 14400, Note_on_c, 9, 54, 80
7, 14430, Note_on_c, 9, 54, 0
7, 14430, Note_on_c, 9, 51, 0
7, 14430, Note_on_c, 9, 35, 0
7, 14460, Note_on_c, 9, 35, 115
7, 14460, Note_on_c, 9, 54, 90
7, 14490, Note_on_c, 9, 54, 0
7, 14490, Note_on_c, 9, 35, 0
7, 14520, Note_on_c, 9, 38, 127
7, 14520, Note_on_c, 9, 51, 115
7, 14520, Note_on_c, 9, 54, 127
7, 14550, Note_on_c, 9, 54, 0
7, 14550, Note_on_c, 9, 51, 0
7, 14550, Note_on_c, 9, 38, 0
7, 14580, Note_on_c, 9, 35, 100
7, 14580, Note_on_c, 9, 54, 80
7, 14610, Note_on_c, 9, 51, 90
7, 14610, Note_on_c, 9, 54, 0
7, 14610, Note_on_c, 9, 35, 0
7, 14640, Note_on_c, 9, 35, 127
7, 14640, Note_on_c, 9, 51, 127
7, 14640, Note_on_c, 9, 54, 100
7, 14640, Note_on_c, 9, 51, 0
7, 14670, Note_on_c, 9, 35, 0
7, 14670, Note_on_c, 9, 51, 0
7, 14670, Note_on_c, 9, 54, 0
7, 14700, Note_on_c, 9, 35, 115
7, 14700, Note_on_c, 9, 54, 90
7, 14730, Note_on_c, 9, 54, 0
7, 14730, Note_on_c, 9, 35, 0
7, 14760, Note_on_c, 9, 38, 127
7, 14760, Note_on_c, 9, 51, 115
7, 14760, Note_on_c, 9, 54, 127
7, 14790, Note_on_c, 9, 54, 0
7, 14790, Note_on_c, 9, 51, 0
7, 14790, Note_on_c, 9, 38, 0
7, 14820, Note_on_c, 9, 35, 100
7, 14820, Note_on_c, 9, 54, 90
7, 14850, Note_on_c, 9, 54, 0
7, 14850, Note_on_c, 9, 35, 0
7, 14880, Note_on_c, 9, 35, 127
7, 14880, Note_on_c, 9, 51, 127
7, 14880, Note_on_c, 9, 54, 80
7, 14910, Note_on_c, 9, 54, 0
7, 14910, Note_on_c, 9, 51, 0
7, 14910, Note_on_c, 9, 35, 0
7, 14940, Note_on_c, 9, 35, 115
7, 14940, Note_on_c, 9, 54, 90
7, 14970, Note_on_c, 9, 54, 0
7, 14970, Note_on_c, 9, 35, 0
7, 15000, Note_on_c, 9, 38, 127
7, 15000, Note_on_c, 9, 51, 115
7, 15000, Note_on_c, 9, 54, 127
7, 15030, Note_on_c, 9, 54, 0
7, 15030, Note_on_c, 9, 51, 0
7, 15030, Note_on_c, 9, 38, 0
7, 15060, Note_on_c, 9, 35, 100
7, 15060, Note_on_c, 9, 54, 80
7, 15090, Note_on_c, 9, 54, 0
7, 15090, Note_on_c, 9, 35, 0
7, 15120, Note_on_c, 9, 35, 127
7, 15120, Note_on_c, 9, 51, 127
7, 15120, Note_on_c, 9, 54, 100
7, 15150, Note_on_c, 9, 54, 0
7, 15150, Note_on_c, 9, 51, 0
7, 15150, Note_on_c, 9, 35, 0
7, 15180, Note_on_c, 9, 35, 115
7, 15180, Note_on_c, 9, 54, 90
7, 15210, Note_on_c, 9, 54, 0
7, 15210, Note_on_c, 9, 35, 0
7, 15240, Note_on_c, 9, 38, 127
7, 15240, Note_on_c, 9, 51, 115
7, 15240, Note_on_c, 9, 54, 127
7, 15270, Note_on_c, 9, 54, 0
7, 15270, Note_on_c, 9, 51, 0
7, 15270, Note_on_c, 9, 38, 0
7, 15300, Note_on_c, 9, 35, 100
7, 15300, Note_on_c, 9, 54, 90
7, 15330, Note_on_c, 9, 54, 0
7, 15330, Note_on_c, 9, 35, 0
7, 15360, Note_on_c, 9, 35, 127
7, 15360, Note_on_c, 9, 51, 127
7, 15360, Note_on_c, 9, 54, 80
7, 15390, Note_on_c, 9, 54, 0
7, 15390, Note_on_c, 9, 51, 0
7, 15390, Note_on_c, 9, 35, 0
7, 15420, Note_on_c, 9, 35, 115
7, 15420, Note_on_c, 9, 54, 90
7, 15450, Note_on_c, 9, 54, 0
7, 15450, Note_on_c, 9, 35, 0
7, 15480, Note_on_c, 9, 38, 127
7, 15480, Note_on_c, 9, 51, 115
7, 15480, Note_on_c, 9, 54, 127
7, 15510, Note_on_c, 9, 54, 0
7, 15510, Note_on_c, 9, 51, 0
7, 15510, Note_on_c, 9, 38, 0
7, 15540, Note_on_c, 9, 35, 100
7, 15540, Note_on_c, 9, 54, 80
7, 15570, Note_on_c, 9, 54, 0
7, 15570, Note_on_c, 9, 35, 0
7, 15600, Note_on_c, 9, 35, 127
7, 15600, Note_on_c, 9, 51, 127
7, 15600, Note_on_c, 9, 54, 100
7, 15630, Note_on_c, 9, 54, 0
7, 15630, Note_on_c, 9, 51, 0
7, 15630, Note_on_c, 9, 35, 0
7, 15660, Note_on_c, 9, 35, 115
7, 15660, Note_on_c, 9, 54, 90
7, 15690, Note_on_c, 9, 54, 0
7, 15690, Note_on_c, 9, 35, 0
7, 15720, Note_on_c, 9, 38, 127
7, 15720, Note_on_c, 9, 51, 115
7, 15720, Note_on_c, 9, 54, 127
7, 15750, Note_on_c, 9, 54, 0
7, 15750, Note_on_c, 9, 51, 0
7, 15750, Note_on_c, 9, 38, 0
7, 15780, Note_on_c, 9, 35, 100
7, 15780, Note_on_c, 9, 54, 90
7, 15810, Note_on_c, 9, 54, 0
7, 15810, Note_on_c, 9, 35, 0
7, 15840, Note_on_c, 9, 35, 127
7, 15840, Note_on_c, 9, 51, 127
7, 15840, Note_on_c, 9, 54, 80
7, 15870, Note_on_c, 9, 54, 0
7, 15870, Note_on_c, 9, 51, 0
7, 15870, Note_on_c, 9, 35, 0
7, 15900, Note_on_c, 9, 35, 115
7, 15900, Note_on_c, 9, 54, 90
7, 15930, Note_on_c, 9, 54, 0
7, 15930, Note_on_c, 9, 35, 0
7, 15960, Note_on_c, 9, 38, 127
7, 15960, Note_on_c, 9, 51, 115
7, 15960, Note_on_c, 9, 54, 127
7, 15990, Note_on_c, 9, 54, 0
7, 15990, Note_on_c, 9, 51, 0
7, 15990, Note_on_c, 9, 38, 0
7, 16020, Note_on_c, 9, 35, 100
7, 16020, Note_on_c, 9, 54, 80
7, 16050, Note_on_c, 9, 54, 0
7, 16050, Note_on_c, 9, 35, 0
7, 16080, Note_on_c, 9, 35, 127
7, 16080, Note_on_c, 9, 51, 127
7, 16080, Note_on_c, 9, 54, 100
7, 16110, Note_on_c, 9, 38, 115
7, 16110, Note_on_c, 9, 54, 0
7, 16110, Note_on_c, 9, 35, 0
7, 16110, Note_on_c, 9, 51, 0
7, 16140, Note_on_c, 9, 35, 115
7, 16140, Note_on_c, 9, 51, 90
7, 16140, Note_on_c, 9, 54, 90
7, 16140, Note_on_c, 9, 38, 0
7, 16170, Note_on_c, 9, 35, 127
7, 16170, Note_on_c, 9, 51, 100
7, 16170, Note_on_c, 9, 35, 0
7, 16170, Note_on_c, 9, 54, 0
7, 16170, Note_on_c, 9, 51, 0
7, 16200, Note_on_c, 9, 38, 127
7, 16200, Note_on_c, 9, 51, 115
7, 16200, Note_on_c, 9, 54, 127
7, 16200, Note_on_c, 9, 35, 0
7, 16200, Note_on_c, 9, 51, 0
7, 16230, Note_on_c, 9, 35, 115
7, 16230, Note_on_c, 9, 51, 0
7, 16230, Note_on_c, 9, 54, 0
7, 16230, Note_on_c, 9, 38, 0
7, 16260, Note_on_c, 9, 35, 100
7, 16260, Note_on_c, 9, 51, 70
7, 16260, Note_on_c, 9, 54, 90
7, 16260, Note_on_c, 9, 35, 0
7, 16290, Note_on_c, 9, 35, 115
7, 16290, Note_on_c, 9, 51, 100
7, 16290, Note_on_c, 9, 35, 0
7, 16290, Note_on_c, 9, 54, 0
7, 16290, Note_on_c, 9, 51, 0
7, 16320, Note_on_c, 9, 35, 127
7, 16320, Note_on_c, 9, 51, 127
7, 16320, Note_on_c, 9, 54, 80
7, 16320, Note_on_c, 9, 35, 0
7, 16320, Note_on_c, 9, 51, 0
7, 16350, Note_on_c, 9, 35, 100
7, 16350, Note_on_c, 9, 51, 0
7, 16350, Note_on_c, 9, 54, 0
7, 16350, Note_on_c, 9, 35, 0
7, 16380, Note_on_c, 9, 35, 115
7, 16380, Note_on_c, 9, 54, 90
7, 16380, Note_on_c, 9, 35, 0
7, 16410, Note_on_c, 9, 54, 0
7, 16410, Note_on_c, 9, 35, 0
7, 16440, Note_on_c, 9, 38, 127
7, 16440, Note_on_c, 9, 51, 115
7, 16440, Note_on_c, 9, 54, 127
7, 16470, Note_on_c, 9, 54, 0
7, 16470, Note_on_c, 9, 51, 0
7, 16470, Note_on_c, 9, 38, 0
7, 16500, Note_on_c, 9, 35, 100
7, 16500, Note_on_c, 9, 51, 115
7, 16500, Note_on_c, 9, 54, 80
7, 16530, Note_on_c, 9, 51, 90
7, 16530, Note_on_c, 9, 54, 0
7, 16530, Note_on_c, 9, 35, 0
7, 16530, Note_on_c, 9, 51, 0
7, 16560, Note_on_c, 9, 35, 127
7, 16560, Note_on_c, 9, 51, 127
7, 16560, Note_on_c, 9, 54, 100
7, 16560, Note_on_c, 9, 51, 0
7, 16590, Note_on_c, 9, 35, 0
7, 16590, Note_on_c, 9, 51, 0
7, 16590, Note_on_c, 9, 54, 0
7, 16620, Note_on_c, 9, 35, 115
7, 16620, Note_on_c, 9, 54, 90
7, 16650, Note_on_c, 9, 54, 0
7, 16650, Note_on_c, 9, 35, 0
7, 16680, Note_on_c, 9, 38, 127
7, 16680, Note_on_c, 9, 51, 115
7, 16680, Note_on_c, 9, 54, 127
7, 16710, Note_on_c, 9, 54, 0
7, 16710, Note_on_c, 9, 51, 0
7, 16710, Note_on_c, 9, 38, 0
7, 16740, Note_on_c, 9, 35, 100
7, 16740, Note_on_c, 9, 54, 90
7, 16770, Note_on_c, 9, 54, 0
7, 16770, Note_on_c, 9, 35, 0
7, 16800, Note_on_c, 9, 35, 127
7, 16800, Note_on_c, 9, 51, 127
7, 16800, Note_on_c, 9, 54, 80
7, 16830, Note_on_c, 9, 54, 0
7, 16830, Note_on_c, 9, 51, 0
7, 16830, Note_on_c, 9, 35, 0
7, 16860, Note_on_c, 9, 35, 115
7, 16860, Note_on_c, 9, 54, 90
7, 16890, Note_on_c, 9, 54, 0
7, 16890, Note_on_c, 9, 35, 0
7, 16920, Note_on_c, 9, 38, 127
7, 16920, Note_on_c, 9, 51, 115
7, 16920, Note_on_c, 9, 54, 127
7, 16950, Note_on_c, 9, 54, 0
7, 16950, Note_on_c, 9, 51, 0
7, 16950, Note_on_c, 9, 38, 0
7, 16980, Note_on_c, 9, 35, 100
7, 16980, Note_on_c, 9, 54, 80
7, 17010, Note_on_c, 9, 54, 0
7, 17010, Note_on_c, 9, 35, 0
7, 17040, Note_on_c, 9, 35, 127
7, 17040, Note_on_c, 9, 51, 127
7, 17040, Note_on_c, 9, 54, 100
7, 17070, Note_on_c, 9, 54, 0
7, 17070, Note_on_c, 9, 51, 0
7, 17070, Note_on_c, 9, 35, 0
7, 17100, Note_on_c, 9, 35, 115
7, 17100, Note_on_c, 9, 54, 90
7, 17130, Note_on_c, 9, 54, 0
7, 17130, Note_on_c, 9, 35, 0
7, 17160, Note_on_c, 9, 38, 127
7, 17160, Note_on_c, 9, 51, 115
7, 17160, Note_on_c, 9, 54, 127
7, 17190, Note_on_c, 9, 54, 0
7, 17190, Note_on_c, 9, 51, 0
7, 17190, Note_on_c, 9, 38, 0
7, 17220, Note_on_c, 9, 35, 100
7, 17220, Note_on_c, 9, 54, 90
7, 17250, Note_on_c, 9, 54, 0
7, 17250, Note_on_c, 9, 35, 0
7, 17280, Note_on_c, 9, 38, 127
7, 17310, Note_on_c, 9, 38, 0
7, 17340, Note_on_c, 9, 35, 127
7, 17370, Note_on_c, 9, 35, 0
7, 17400, Note_on_c, 9, 41, 115
7, 17400, Note_on_c, 9, 45, 115
7, 17430, Note_on_c, 9, 45, 0
7, 17430, Note_on_c, 9, 41, 0
7, 17460, Note_on_c, 9, 38, 127
7, 17490, Note_on_c, 9, 38, 0
7, 17520, Note_on_c, 9, 35, 127
7, 17550, Note_on_c, 9, 41, 115
7, 17550, Note_on_c, 9, 45, 115
7, 17550, Note_on_c, 9, 35, 0
7, 17580, Note_on_c, 9, 38, 127
7, 17580, Note_on_c, 9, 45, 0
7, 17580, Note_on_c, 9, 41, 0
7, 17610, Note_on_c, 9, 38, 0
7, 17640, Note_on_c, 9, 41, 115
7, 17640, Note_on_c, 9, 45, 115
7, 17670, Note_on_c, 9, 38, 127
7, 17670, Note_on_c, 9, 45, 0
7, 17670, Note_on_c, 9, 41, 0
7, 17700, Note_on_c, 9, 35, 127
7, 17700, Note_on_c, 9, 38, 0
7, 17730, Note_on_c, 9, 35, 115
7, 17730, Note_on_c, 9, 35, 0
7, 17760, Note_on_c, 9, 35, 127
7, 17760, Note_on_c, 9, 46, 100
7, 17760, Note_on_c, 9, 49, 127
7, 17760, Note_on_c, 9, 35, 0
7, 17790, Note_on_c, 9, 35, 0
7, 17790, Note_on_c, 9, 46, 0
7, 17790, Note_on_c, 9, 49, 0
7, 17880, Note_on_c, 9, 38, 115
7, 17880, Note_on_c, 9, 46, 100
7, 17910, Note_on_c, 9, 46, 0
7, 17910, Note_on_c, 9, 38, 0
7, 17940, Note_on_c, 9, 35, 100
7, 17970, Note_on_c, 9, 35, 0
7, 18000, Note_on_c, 9, 35, 127
7, 18000, Note_on_c, 9, 46, 100
7, 18030, Note_on_c, 9, 46, 0
7, 18030, Note_on_c, 9, 35, 0
7, 18120, Note_on_c, 9, 38, 115
7, 18120, Note_on_c, 9, 46, 100
7, 18150, Note_on_c, 9, 46, 0
7, 18150, Note_on_c, 9, 38, 0
7, 18180, Note_on_c, 9, 35, 100
7, 18210, Note_on_c, 9, 35, 0
7, 18240, Note_on_c, 9, 35, 127
7, 18240, Note_on_c, 9, 46, 100
7, 18270, Note_on_c, 9, 46, 0
7, 18270, Note_on_c, 9, 35, 0
7, 18360, Note_on_c, 9, 38, 115
7, 18360, Note_on_c, 9, 46, 100
7, 18390, Note_on_c, 9, 46, 0
7, 18390, Note_on_c, 9, 38, 0
7, 18420, Note_on_c, 9, 35, 115
7, 18450, Note_on_c, 9, 35, 0
7, 18480, Note_on_c, 9, 46, 100
7, 18510, Note_on_c, 9, 46, 0
7, 18540, Note_on_c, 9, 35, 127
7, 18570, Note_on_c, 9, 35, 0
7, 18600, Note_on_c, 9, 38, 115
7, 18600, Note_on_c, 9, 46, 100
7, 18630, Note_on_c, 9, 46, 0
7, 18630, Note_on_c, 9, 38, 0
7, 18660, Note_on_c, 9, 35, 100
7, 18690, Note_on_c, 9, 35, 0
7, 18720, Note_on_c, 9, 35, 127
7, 18720, Note_on_c, 9, 46, 100
7, 18750, Note_on_c, 9, 46, 0
7, 18750, Note_on_c, 9, 35, 0
7, 18840, Note_on_c, 9, 38, 115
7, 18840, Note_on_c, 9, 46, 100
7, 18870, Note_on_c, 9, 46, 0
7, 18870, Note_on_c, 9, 38, 0
7, 18900, Note_on_c, 9, 35, 100
7, 18930, Note_on_c, 9, 35, 0
7, 18960, Note_on_c, 9, 35, 127
7, 18960, Note_on_c, 9, 46, 100
7, 18990, Note_on_c, 9, 46, 0
7, 18990, Note_on_c, 9, 35, 0
7, 19050, Note_on_c, 9, 35, 115
7, 19080, Note_on_c, 9, 38, 115
7, 19080, Note_on_c, 9, 46, 100
7, 19080, Note_on_c, 9, 35, 0
7, 19110, Note_on_c, 9, 46, 0
7, 19110, Note_on_c, 9, 38, 0
7, 19140, Note_on_c, 9, 35, 100
7, 19170, Note_on_c, 9, 35, 0
7, 19200, Note_on_c, 9, 35, 127
7, 19200, Note_on_c, 9, 46, 100
7, 19230, Note_on_c, 9, 46, 0
7, 19230, Note_on_c, 9, 35, 0
7, 19320, Note_on_c, 9, 38, 115
7, 19320, Note_on_c, 9, 46, 100
7, 19350, Note_on_c, 9, 46, 0
7, 19350, Note_on_c, 9, 38, 0
7, 19380, Note_on_c, 9, 35, 100
7, 19410, Note_on_c, 9, 35, 0
7, 19440, Note_on_c, 9, 35, 127
7, 19440, Note_on_c, 9, 46, 100
7, 19470, Note_on_c, 9, 46, 0
7, 19470, Note_on_c, 9, 35, 0
7, 19560, Note_on_c, 9, 38, 115
7, 19560, Note_on_c, 9, 46, 100
7, 19590, Note_on_c, 9, 46, 0
7, 19590, Note_on_c, 9, 38, 0
7, 19620, Note_on_c, 9, 35, 100
7, 19650, Note_on_c, 9, 35, 0
7, 19680, Note_on_c, 9, 38, 127
7, 19710, Note_on_c, 9, 38, 115
7, 19710, Note_on_c, 9, 38, 0
7, 19740, Note_on_c, 9, 35, 127
7, 19740, Note_on_c, 9, 38, 40
7, 19740, Note_on_c, 9, 38, 0
7, 19770, Note_on_c, 9, 35, 115
7, 19770, Note_on_c, 9, 38, 50
7, 19770, Note_on_c, 9, 38, 0
7, 19770, Note_on_c, 9, 35, 0
7, 19800, Note_on_c, 9, 38, 127
7, 19800, Note_on_c, 9, 35, 0
7, 19800, Note_on_c, 9, 38, 0
7, 19830, Note_on_c, 9, 38, 100
7, 19830, Note_on_c, 9, 38, 0
7, 19860, Note_on_c, 9, 38, 127
7, 19860, Note_on_c, 9, 38, 0
7, 19890, Note_on_c, 9, 38, 115
7, 19890, Note_on_c, 9, 38, 0
7, 19920, Note_on_c, 9, 35, 127
7, 19920, Note_on_c, 9, 38, 40
7, 19920, Note_on_c, 9, 38, 0
7, 19950, Note_on_c, 9, 35, 115
7, 19950, Note_on_c, 9, 38, 60
7, 19950, Note_on_c, 9, 38, 0
7, 19950, Note_on_c, 9, 35, 0
7, 19980, Note_on_c, 9, 38, 115
7, 19980, Note_on_c, 9, 35, 0
7, 19980, Note_on_c, 9, 38, 0
7, 20010, Note_on_c, 9, 38, 100
7, 20010, Note_on_c, 9, 38, 0
7, 20040, Note_on_c, 9, 38, 127
7, 20040, Note_on_c, 9, 38, 0
7, 20070, Note_on_c, 9, 38, 115
7, 20070, Note_on_c, 9, 38, 0
7, 20100, Note_on_c, 9, 35, 127
7, 20100, Note_on_c, 9, 38, 0
7, 20130, Note_on_c, 9, 38, 127
7, 20130, Note_on_c, 9, 35, 0
7, 20160, Note_on_c, 9, 35, 127
7, 20160, Note_on_c, 9, 51, 127
7, 20160, Note_on_c, 9, 49, 127
7, 20160, Note_on_c, 9, 54, 80
7, 20160, Note_on_c, 9, 38, 0
7, 20190, Note_on_c, 9, 49, 0
7, 20190, Note_on_c, 9, 35, 0
7, 20190, Note_on_c, 9, 51, 0
7, 20190, Note_on_c, 9, 54, 0
7, 20220, Note_on_c, 9, 35, 115
7, 20220, Note_on_c, 9, 54, 90
7, 20250, Note_on_c, 9, 54, 0
7, 20250, Note_on_c, 9, 35, 0
7, 20280, Note_on_c, 9, 38, 127
7, 20280, Note_on_c, 9, 51, 115
7, 20280, Note_on_c, 9, 54, 127
7, 20310, Note_on_c, 9, 54, 0
7, 20310, Note_on_c, 9, 51, 0
7, 20310, Note_on_c, 9, 38, 0
7, 20340, Note_on_c, 9, 35, 100
7, 20340, Note_on_c, 9, 54, 80
7, 20370, Note_on_c, 9, 54, 0
7, 20370, Note_on_c, 9, 35, 0
7, 20400, Note_on_c, 9, 35, 127
7, 20400, Note_on_c, 9, 51, 127
7, 20400, Note_on_c, 9, 54, 100
7, 20430, Note_on_c, 9, 54, 0
7, 20430, Note_on_c, 9, 51, 0
7, 20430, Note_on_c, 9, 35, 0
7, 20460, Note_on_c, 9, 35, 115
7, 20460, Note_on_c, 9, 54, 90
7, 20490, Note_on_c, 9, 54, 0
7, 20490, Note_on_c, 9, 35, 0
7, 20520, Note_on_c, 9, 38, 127
7, 20520, Note_on_c, 9, 51, 115
7, 20520, Note_on_c, 9, 54, 127
7, 20550, Note_on_c, 9, 54, 0
7, 20550, Note_on_c, 9, 51, 0
7, 20550, Note_on_c, 9, 38, 0
7, 20580, Note_on_c, 9, 35, 100
7, 20580, Note_on_c, 9, 54, 90
7, 20610, Note_on_c, 9, 54, 0
7, 20610, Note_on_c, 9, 35, 0
7, 20640, Note_on_c, 9, 35, 127
7, 20640, Note_on_c, 9, 51, 127
7, 20640, Note_on_c, 9, 54, 80
7, 20670, Note_on_c, 9, 54, 0
7, 20670, Note_on_c, 9, 51, 0
7, 20670, Note_on_c, 9, 35, 0
7, 20700, Note_on_c, 9, 35, 115
7, 20700, Note_on_c, 9, 54, 90
7, 20730, Note_on_c, 9, 54, 0
7, 20730, Note_on_c, 9, 35, 0
7, 20760, Note_on_c, 9, 38, 127
7, 20760, Note_on_c, 9, 51, 115
7, 20760, Note_on_c, 9, 54, 127
7, 20790, Note_on_c, 9, 54, 0
7, 20790, Note_on_c, 9, 51, 0
7, 20790, Note_on_c, 9, 38, 0
7, 20820, Note_on_c, 9, 35, 100
7, 20820, Note_on_c, 9, 54, 80
7, 20850, Note_on_c, 9, 54, 0
7, 20850, Note_on_c, 9, 35, 0
7, 20880, Note_on_c, 9, 35, 127
7, 20880, Note_on_c, 9, 51, 127
7, 20880, Note_on_c, 9, 54, 100
7, 20910, Note_on_c, 9, 54, 0
7, 20910, Note_on_c, 9, 51, 0
7, 20910, Note_on_c, 9, 35, 0
7, 20940, Note_on_c, 9, 35, 115
7, 20940, Note_on_c, 9, 54, 90
7, 20970, Note_on_c, 9, 54, 0
7, 20970, Note_on_c, 9, 35, 0
7, 21000, Note_on_c, 9, 38, 127
7, 21000, Note_on_c, 9, 51, 115
7, 21000, Note_on_c, 9, 54, 127
7, 21030, Note_on_c, 9, 54, 0
7, 21030, Note_on_c, 9, 51, 0
7, 21030, Note_on_c, 9, 38, 0
7, 21060, Note_on_c, 9, 35, 100
7, 21060, Note_on_c, 9, 54, 90
7, 21090, Note_on_c, 9, 54, 0
7, 21090, Note_on_c, 9, 35, 0
7, 21120, Note_on_c, 9, 35, 127
7, 21120, Note_on_c, 9, 51, 127
7, 21120, Note_on_c, 9, 54, 80
7, 21150, Note_on_c, 9, 54, 0
7, 21150, Note_on_c, 9, 51, 0
7, 21150, Note_on_c, 9, 35, 0
7, 21180, Note_on_c, 9, 35, 115
7, 21180, Note_on_c, 9, 54, 90
7, 21210, Note_on_c, 9, 54, 0
7, 21210, Note_on_c, 9, 35, 0
7, 21240, Note_on_c, 9, 38, 127
7, 21240, Note_on_c, 9, 51, 115
7, 21240, Note_on_c, 9, 54, 127
7, 21270, Note_on_c, 9, 54, 0
7, 21270, Note_on_c, 9, 51, 0
7, 21270, Note_on_c, 9, 38, 0
7, 21300, Note_on_c, 9, 35, 100
7, 21300, Note_on_c, 9, 54, 80
7, 21330, Note_on_c, 9, 54, 0
7, 21330, Note_on_c, 9, 35, 0
7, 21360, Note_on_c, 9, 35, 127
7, 21360, Note_on_c, 9, 51, 127
7, 21360, Note_on_c, 9, 54, 100
7, 21390, Note_on_c, 9, 54, 0
7, 21390, Note_on_c, 9, 51, 0
7, 21390, Note_on_c, 9, 35, 0
7, 21420, Note_on_c, 9, 35, 115
7, 21420, Note_on_c, 9, 54, 90
7, 21450, Note_on_c, 9, 54, 0
7, 21450, Note_on_c, 9, 35, 0
7, 21480, Note_on_c, 9, 38, 127
7, 21480, Note_on_c, 9, 51, 115
7, 21480, Note_on_c, 9, 54, 127
7, 21510, Note_on_c, 9, 54, 0
7, 21510, Note_on_c, 9, 51, 0
7, 21510, Note_on_c, 9, 38, 0
7, 21540, Note_on_c, 9, 35, 100
7, 21540, Note_on_c, 9, 54, 90
7, 21570, Note_on_c, 9, 54, 0
7, 21570, Note_on_c, 9, 35, 0
7, 21600, Note_on_c, 9, 35, 127
7, 21600, Note_on_c, 9, 51, 127
7, 21600, Note_on_c, 9, 54, 80
7, 21630, Note_on_c, 9, 54, 0
7, 21630, Note_on_c, 9, 51, 0
7, 21630, Note_on_c, 9, 35, 0
7, 21660, Note_on_c, 9, 35, 115
7, 21660, Note_on_c, 9, 54, 90
7, 21690, Note_on_c, 9, 54, 0
7, 21690, Note_on_c, 9, 35, 0
7, 21720, Note_on_c, 9, 38, 127
7, 21720, Note_on_c, 9, 51, 115
7, 21720, Note_on_c, 9, 54, 127
7, 21750, Note_on_c, 9, 54, 0
7, 21750, Note_on_c, 9, 51, 0
7, 21750, Note_on_c, 9, 38, 0
7, 21780, Note_on_c, 9, 35, 100
7, 21780, Note_on_c, 9, 54, 80
7, 21810, Note_on_c, 9, 54, 0
7, 21810, Note_on_c, 9, 35, 0
7, 21840, Note_on_c, 9, 35, 127
7, 21840, Note_on_c, 9, 51, 127
7, 21840, Note_on_c, 9, 54, 100
7, 21870, Note_on_c, 9, 54, 0
7, 21870, Note_on_c, 9, 51, 0
7, 21870, Note_on_c, 9, 35, 0
7, 21900, Note_on_c, 9, 35, 115
7, 21900, Note_on_c, 9, 54, 90
7, 21930, Note_on_c, 9, 54, 0
7, 21930, Note_on_c, 9, 35, 0
7, 21960, Note_on_c, 9, 38, 127
7, 21960, Note_on_c, 9, 51, 115
7, 21960, Note_on_c, 9, 54, 127
7, 21990, Note_on_c, 9, 54, 0
7, 21990, Note_on_c, 9, 51, 0
7, 21990, Note_on_c, 9, 38, 0
7, 22020, Note_on_c, 9, 35, 100
7, 22020, Note_on_c, 9, 54, 90
7, 22050, Note_on_c, 9, 54, 0
7, 22050, Note_on_c, 9, 35, 0
7, 22080, Note_on_c, 9, 35, 127
7, 22080, Note_on_c, 9, 51, 127
7, 22080, Note_on_c, 9, 54, 80
7, 22110, Note_on_c, 9, 54, 0
7, 22110, Note_on_c, 9, 51, 0
7, 22110, Note_on_c, 9, 35, 0
7, 22140, Note_on_c, 9, 35, 115
7, 22140, Note_on_c, 9, 54, 90
7, 22170, Note_on_c, 9, 54, 0
7, 22170, Note_on_c, 9, 35, 0
7, 22200, Note_on_c, 9, 38, 127
7, 22200, Note_on_c, 9, 51, 115
7, 22200, Note_on_c, 9, 54, 127
7, 22230, Note_on_c, 9, 54, 0
7, 22230, Note_on_c, 9, 51, 0
7, 22230, Note_on_c, 9, 38, 0
7, 22260, Note_on_c, 9, 35, 100
7, 22260, Note_on_c, 9, 54, 80
7, 22290, Note_on_c, 9, 54, 0
7, 22290, Note_on_c, 9, 35, 0
7, 22320, Note_on_c, 9, 35, 127
7, 22320, Note_on_c, 9, 51, 127
7, 22320, Note_on_c, 9, 54, 100
7, 22350, Note_on_c, 9, 54, 0
7, 22350, Note_on_c, 9, 51, 0
7, 22350, Note_on_c, 9, 35, 0
7, 22380, Note_on_c, 9, 35, 115
7, 22380, Note_on_c, 9, 54, 90
7, 22410, Note_on_c, 9, 54, 0
7, 22410, Note_on_c, 9, 35, 0
7, 22440, Note_on_c, 9, 38, 127
7, 22440, Note_on_c, 9, 51, 115
7, 22440, Note_on_c, 9, 54, 127
7, 22470, Note_on_c, 9, 54, 0
7, 22470, Note_on_c, 9, 51, 0
7, 22470, Note_on_c, 9, 38, 0
7, 22500, Note_on_c, 9, 35, 100
7, 22500, Note_on_c, 9, 54, 90
7, 22530, Note_on_c, 9, 54, 0
7, 22530, Note_on_c, 9, 35, 0
7, 22560, Note_on_c, 9, 35, 127
7, 22560, Note_on_c, 9, 51, 127
7, 22560, Note_on_c, 9, 54, 80
7, 22590, Note_on_c, 9, 54, 0
7, 22590, Note_on_c, 9, 51, 0
7, 22590, Note_on_c, 9, 35, 0
7, 22620, Note_on_c, 9, 35, 115
7, 22620, Note_on_c, 9, 54, 90
7, 22650, Note_on_c, 9, 54, 0
7, 22650, Note_on_c, 9, 35, 0
7, 22680, Note_on_c, 9, 38, 127
7, 22680, Note_on_c, 9, 51, 115
7, 22680, Note_on_c, 9, 54, 127
7, 22710, Note_on_c, 9, 54, 0
7, 22710, Note_on_c, 9, 51, 0
7, 22710, Note_on_c, 9, 38, 0
7, 22740, Note_on_c, 9, 35, 100
7, 22740, Note_on_c, 9, 54, 80
7, 22770, Note_on_c, 9, 54, 0
7, 22770, Note_on_c, 9, 35, 0
7, 22800, Note_on_c, 9, 35, 127
7, 22800, Note_on_c, 9, 51, 127
7, 22800, Note_on_c, 9, 54, 100
7, 22830, Note_on_c, 9, 54, 0
7, 22830, Note_on_c, 9, 51, 0
7, 22830, Note_on_c, 9, 35, 0
7, 22860, Note_on_c, 9, 35, 115
7, 22860, Note_on_c, 9, 54, 90
7, 22890, Note_on_c, 9, 54, 0
7, 22890, Note_on_c, 9, 35, 0
7, 22920, Note_on_c, 9, 38, 127
7, 22920, Note_on_c, 9, 51, 115
7, 22920, Note_on_c, 9, 54, 127
7, 22950, Note_on_c, 9, 54, 0
7, 22950, Note_on_c, 9, 51, 0
7, 22950, Note_on_c, 9, 38, 0
7, 22980, Note_on_c, 9, 35, 100
7, 22980, Note_on_c, 9, 54, 90
7, 23010, Note_on_c, 9, 54, 0
7, 23010, Note_on_c, 9, 35, 0
7, 23040, Note_on_c, 9, 35, 127
7, 23040, Note_on_c, 9, 51, 127
7, 23040, Note_on_c, 9, 54, 80
7, 23070, Note_on_c, 9, 54, 0
7, 23070, Note_on_c, 9, 51, 0
7, 23070, Note_on_c, 9, 35, 0
7, 23100, Note_on_c, 9, 35, 115
7, 23100, Note_on_c, 9, 54, 90
7, 23130, Note_on_c, 9, 54, 0
7, 23130, Note_on_c, 9, 35, 0
7, 23160, Note_on_c, 9, 38, 127
7, 23160, Note_on_c, 9, 51, 115
7, 23160, Note_on_c, 9, 54, 127
7, 23190, Note_on_c, 9, 54, 0
7, 23190, Note_on_c, 9, 51, 0
7, 23190, Note_on_c, 9, 38, 0
7, 23220, Note_on_c, 9, 35, 100
7, 23220, Note_on_c, 9, 54, 80
7, 23250, Note_on_c, 9, 54, 0
7, 23250, Note_on_c, 9, 35, 0
7, 23280, Note_on_c, 9, 35, 127
7, 23280, Note_on_c, 9, 51, 127
7, 23280, Note_on_c, 9, 54, 100
7, 23310, Note_on_c, 9, 54, 0
7, 23310, Note_on_c, 9, 51, 0
7, 23310, Note_on_c, 9, 35, 0
7, 23340, Note_on_c, 9, 35, 115
7, 23340, Note_on_c, 9, 54, 90
7, 23370, Note_on_c, 9, 54, 0
7, 23370, Note_on_c, 9, 35, 0
7, 23400, Note_on_c, 9, 38, 127
7, 23400, Note_on_c, 9, 51, 115
7, 23400, Note_on_c, 9, 54, 127
7, 23430, Note_on_c, 9, 54, 0
7, 23430, Note_on_c, 9, 51, 0
7, 23430, Note_on_c, 9, 38, 0
7, 23460, Note_on_c, 9, 35, 100
7, 23460, Note_on_c, 9, 54, 90
7, 23490, Note_on_c, 9, 54, 0
7, 23490, Note_on_c, 9, 35, 0
7, 23520, Note_on_c, 9, 38, 127
7, 23550, Note_on_c, 9, 38, 115
7, 23550, Note_on_c, 9, 38, 0
7, 23580, Note_on_c, 9, 35, 127
7, 23580, Note_on_c, 9, 38, 40
7, 23580, Note_on_c, 9, 38, 0
7, 23610, Note_on_c, 9, 35, 115
7, 23610, Note_on_c, 9, 38, 50
7, 23610, Note_on_c, 9, 38, 0
7, 23610, Note_on_c, 9, 35, 0
7, 23640, Note_on_c, 9, 38, 127
7, 23640, Note_on_c, 9, 35, 0
7, 23640, Note_on_c, 9, 38, 0
7, 23670, Note_on_c, 9, 38, 100
7, 23670, Note_on_c, 9, 38, 0
7, 23700, Note_on_c, 9, 38, 127
7, 23700, Note_on_c, 9, 38, 0
7, 23730, Note_on_c, 9, 38, 115
7, 23730, Note_on_c, 9, 38, 0
7, 23760, Note_on_c, 9, 35, 127
7, 23760, Note_on_c, 9, 38, 40
7, 23760, Note_on_c, 9, 38, 0
7, 23790, Note_on_c, 9, 35, 115
7, 23790, Note_on_c, 9, 38, 60
7, 23790, Note_on_c, 9, 38, 0
7, 23790, Note_on_c, 9, 35, 0
7, 23820, Note_on_c, 9, 38, 115
7, 23820, Note_on_c, 9, 35, 0
7, 23820, Note_on_c, 9, 38, 0
7, 23850, Note_on_c, 9, 38, 100
7, 23850, Note_on_c, 9, 38, 0
7, 23880, Note_on_c, 9, 38, 127
7, 23880, Note_on_c, 9, 38, 0
7, 23910, Note_on_c, 9, 38, 115
7, 23910, Note_on_c, 9, 38, 0
7, 23940, Note_on_c, 9, 35, 127
7, 23940, Note_on_c, 9, 38, 0
7, 23970, Note_on_c, 9, 38, 127
7, 23970, Note_on_c, 9, 35, 0
7, 24000, Note_on_c, 9, 35, 127
7, 24000, Note_on_c, 9, 46, 100
7, 24000, Note_on_c, 9, 49, 127
7, 24000, Note_on_c, 9, 38, 0
7, 24030, Note_on_c, 9, 35, 0
7, 24030, Note_on_c, 9, 46, 0
7, 24030, Note_on_c, 9, 49, 0
7, 24120, Note_on_c, 9, 38, 115
7, 24120, Note_on_c, 9, 46, 100
7, 24150, Note_on_c, 9, 46, 0
7, 24150, Note_on_c, 9, 38, 0
7, 24180, Note_on_c, 9, 35, 100
7, 24210, Note_on_c, 9, 35, 0
7, 24240, Note_on_c, 9, 35, 127
7, 24240, Note_on_c, 9, 46, 100
7, 24270, Note_on_c, 9, 46, 0
7, 24270, Note_on_c, 9, 35, 0
7, 24360, Note_on_c, 9, 38, 115
7, 24360, Note_on_c, 9, 46, 100
7, 24390, Note_on_c, 9, 46, 0
7, 24390, Note_on_c, 9, 38, 0
7, 24420, Note_on_c, 9, 35, 100
7, 24450, Note_on_c, 9, 35, 0
7, 24480, Note_on_c, 9, 35, 127
7, 24480, Note_on_c, 9, 46, 100
7, 24510, Note_on_c, 9, 46, 0
7, 24510, Note_on_c, 9, 35, 0
7, 24600, Note_on_c, 9, 38, 115
7, 24600, Note_on_c, 9, 46, 100
7, 24630, Note_on_c, 9, 46, 0
7, 24630, Note_on_c, 9, 38, 0
7, 24660, Note_on_c, 9, 35, 115
7, 24690, Note_on_c, 9, 35, 0
7, 24720, Note_on_c, 9, 46, 100
7, 24750, Note_on_c, 9, 46, 0
7, 24780, Note_on_c, 9, 35, 127
7, 24810, Note_on_c, 9, 35, 0
7, 24840, Note_on_c, 9, 38, 115
7, 24840, Note_on_c, 9, 46, 100
7, 24870, Note_on_c, 9, 46, 0
7, 24870, Note_on_c, 9, 38, 0
7, 24900, Note_on_c, 9, 35, 100
7, 24930, Note_on_c, 9, 35, 0
7, 24960, Note_on_c, 9, 35, 127
7, 24960, Note_on_c, 9, 46, 100
7, 24990, Note_on_c, 9, 46, 0
7, 24990, Note_on_c, 9, 35, 0
7, 25080, Note_on_c, 9, 38, 115
7, 25080, Note_on_c, 9, 46, 100
7, 25110, Note_on_c, 9, 46, 0
7, 25110, Note_on_c, 9, 38, 0
7, 25140, Note_on_c, 9, 35, 100
7, 25170, Note_on_c, 9, 35, 0
7, 25200, Note_on_c, 9, 35, 127
7, 25200, Note_on_c, 9, 46, 100
7, 25230, Note_on_c, 9, 46, 115
7, 25230, Note_on_c, 9, 46, 0
7, 25230, Note_on_c, 9, 35, 0
7, 25260, Note_on_c, 9, 35, 115
7, 25260, Note_on_c, 9, 46, 0
7, 25290, Note_on_c, 9, 35, 0
7, 25320, Note_on_c, 9, 38, 115
7, 25320, Note_on_c, 9, 46, 100
7, 25350, Note_on_c, 9, 46, 0
7, 25350, Note_on_c, 9, 38, 0
7, 25380, Note_on_c, 9, 35, 100
7, 25410, Note_on_c, 9, 35, 0
7, 25440, Note_on_c, 9, 35, 127
7, 25440, Note_on_c, 9, 46, 100
7, 25470, Note_on_c, 9, 46, 0
7, 25470, Note_on_c, 9, 35, 0
7, 25560, Note_on_c, 9, 38, 115
7, 25560, Note_on_c, 9, 46, 100
7, 25590, Note_on_c, 9, 46, 0
7, 25590, Note_on_c, 9, 38, 0
7, 25620, Note_on_c, 9, 35, 100
7, 25650, Note_on_c, 9, 35, 0
7, 25680, Note_on_c, 9, 35, 127
7, 25680, Note_on_c, 9, 46, 100
7, 25710, Note_on_c, 9, 46, 0
7, 25710, Note_on_c, 9, 35, 0
7, 25800, Note_on_c, 9, 38, 115
7, 25800, Note_on_c, 9, 46, 100
7, 25830, Note_on_c, 9, 46, 0
7, 25830, Note_on_c, 9, 38, 0
7, 25860, Note_on_c, 9, 35, 100
7, 25890, Note_on_c, 9, 35, 0
7, 25920, Note_on_c, 9, 35, 127
7, 25920, Note_on_c, 9, 46, 100
7, 25950, Note_on_c, 9, 46, 0
7, 25950, Note_on_c, 9, 35, 0
7, 26040, Note_on_c, 9, 38, 115
7, 26040, Note_on_c, 9, 46, 100
7, 26070, Note_on_c, 9, 46, 0
7, 26070, Note_on_c, 9, 38, 0
7, 26100, Note_on_c, 9, 35, 100
7, 26130, Note_on_c, 9, 35, 0
7, 26160, Note_on_c, 9, 35, 127
7, 26160, Note_on_c, 9, 46, 100
7, 26190, Note_on_c, 9, 46, 0
7, 26190, Note_on_c, 9, 35, 0
7, 26280, Note_on_c, 9, 38, 115
7, 26280, Note_on_c, 9, 46, 100
7, 26310, Note_on_c, 9, 46, 0
7, 26310, Note_on_c, 9, 38, 0
7, 26340, Note_on_c, 9, 35, 100
7, 26370, Note_on_c, 9, 35, 0
7, 26400, Note_on_c, 9, 35, 127
7, 26400, Note_on_c, 9, 46, 100
7, 26430, Note_on_c, 9, 46, 0
7, 26430, Note_on_c, 9, 35, 0
7, 26520, Note_on_c, 9, 38, 115
7, 26520, Note_on_c, 9, 46, 100
7, 26550, Note_on_c, 9, 46, 0
7, 26550, Note_on_c, 9, 38, 0
7, 26580, Note_on_c, 9, 35, 115
7, 26610, Note_on_c, 9, 35, 0
7, 26640, Note_on_c, 9, 46, 100
7, 26670, Note_on_c, 9, 46, 0
7, 26700, Note_on_c, 9, 35, 127
7, 26730, Note_on_c, 9, 35, 100
7, 26730, Note_on_c, 9, 35, 0
7, 26760, Note_on_c, 9, 38, 115
7, 26760, Note_on_c, 9, 46, 100
7, 26760, Note_on_c, 9, 35, 0
7, 26790, Note_on_c, 9, 46, 0
7, 26790, Note_on_c, 9, 38, 0
7, 26820, Note_on_c, 9, 35, 100
7, 26850, Note_on_c, 9, 35, 0
7, 26880, Note_on_c, 9, 35, 127
7, 26880, Note_on_c, 9, 46, 100
7, 26910, Note_on_c, 9, 46, 0
7, 26910, Note_on_c, 9, 35, 0
7, 27000, Note_on_c, 9, 38, 115
7, 27000, Note_on_c, 9, 46, 100
7, 27030, Note_on_c, 9, 46, 0
7, 27030, Note_on_c, 9, 38, 0
7, 27060, Note_on_c, 9, 35, 100
7, 27090, Note_on_c, 9, 35, 0
7, 27120, Note_on_c, 9, 35, 127
7, 27120, Note_on_c, 9, 46, 100
7, 27150, Note_on_c, 9, 46, 0
7, 27150, Note_on_c, 9, 35, 0
7, 27240, Note_on_c, 9, 38, 115
7, 27240, Note_on_c, 9, 46, 100
7, 27270, Note_on_c, 9, 46, 0
7, 27270, Note_on_c, 9, 38, 0
7, 27300, Note_on_c, 9, 35, 100
7, 27330, Note_on_c, 9, 35, 0
7, 27360, Note_on_c, 9, 38, 127
7, 27360, Note_on_c, 9, 48, 127
7, 27390, Note_on_c, 9, 48, 0
7, 27390, Note_on_c, 9, 38, 0
7, 27420, Note_on_c, 9, 35, 115
7, 27450, Note_on_c, 9, 35, 0
7, 27480, Note_on_c, 9, 35, 127
7, 27510, Note_on_c, 9, 35, 0
7, 27540, Note_on_c, 9, 38, 127
7, 27540, Note_on_c, 9, 45, 127
7, 27570, Note_on_c, 9, 45, 0
7, 27570, Note_on_c, 9, 38, 0
7, 27600, Note_on_c, 9, 35, 127
7, 27630, Note_on_c, 9, 35, 0
7, 27660, Note_on_c, 9, 35, 115
7, 27690, Note_on_c, 9, 35, 0
7, 27720, Note_on_c, 9, 38, 127
7, 27720, Note_on_c, 9, 41, 127
7, 27750, Note_on_c, 9, 41, 0
7, 27750, Note_on_c, 9, 38, 0
7, 27840, Note_on_c, 9, 35, 127
7, 27840, Note_on_c, 9, 51, 127
7, 27840, Note_on_c, 9, 49, 127
7, 27840, Note_on_c, 9, 54, 80
7, 27870, Note_on_c, 9, 54, 0
7, 27870, Note_on_c, 9, 35, 0
7, 27870, Note_on_c, 9, 51, 0
7, 27870, Note_on_c, 9, 49, 0
7, 27900, Note_on_c, 9, 35, 115
7, 27900, Note_on_c, 9, 54, 90
7, 27930, Note_on_c, 9, 54, 0
7, 27930, Note_on_c, 9, 35, 0
7, 27960, Note_on_c, 9, 38, 127
7, 27960, Note_on_c, 9, 51, 115
7, 27960, Note_on_c, 9, 54, 127
7, 27990, Note_on_c, 9, 54, 0
7, 27990, Note_on_c, 9, 51, 0
7, 27990, Note_on_c, 9, 38, 0
7, 28020, Note_on_c, 9, 35, 100
7, 28020, Note_on_c, 9, 54, 80
7, 28050, Note_on_c, 9, 54, 0
7, 28050, Note_on_c, 9, 35, 0
7, 28080, Note_on_c, 9, 35, 127
7, 28080, Note_on_c, 9, 51, 127
7, 28080, Note_on_c, 9, 54, 100
7, 28110, Note_on_c, 9, 54, 0
7, 28110, Note_on_c, 9, 51, 0
7, 28110, Note_on_c, 9, 35, 0
7, 28140, Note_on_c, 9, 35, 115
7, 28140, Note_on_c, 9, 54, 90
7, 28170, Note_on_c, 9, 54, 0
7, 28170, Note_on_c, 9, 35, 0
7, 28200, Note_on_c, 9, 38, 127
7, 28200, Note_on_c, 9, 51, 115
7, 28200, Note_on_c, 9, 54, 127
7, 28230, Note_on_c, 9, 54, 0
7, 28230, Note_on_c, 9, 51, 0
7, 28230, Note_on_c, 9, 38, 0
7, 28260, Note_on_c, 9, 35, 100
7, 28260, Note_on_c, 9, 54, 90
7, 28290, Note_on_c, 9, 54, 0
7, 28290, Note_on_c, 9, 35, 0
7, 28320, Note_on_c, 9, 35, 127
7, 28320, Note_on_c, 9, 51, 127
7, 28320, Note_on_c, 9, 54, 80
7, 28350, Note_on_c, 9, 54, 0
7, 28350, Note_on_c, 9, 51, 0
7, 28350, Note_on_c, 9, 35, 0
7, 28380, Note_on_c, 9, 35, 115
7, 28380, Note_on_c, 9, 54, 90
7, 28410, Note_on_c, 9, 54, 0
7, 28410, Note_on_c, 9, 35, 0
7, 28440, Note_on_c, 9, 38, 127
7, 28440, Note_on_c, 9, 51, 115
7, 28440, Note_on_c, 9, 54, 127
7, 28470, Note_on_c, 9, 54, 0
7, 28470, Note_on_c, 9, 51, 0
7, 28470, Note_on_c, 9, 38, 0
7, 28500, Note_on_c, 9, 35, 100
7, 28500, Note_on_c, 9, 51, 115
7, 28500, Note_on_c, 9, 54, 80
7, 28530, Note_on_c, 9, 54, 0
7, 28530, Note_on_c, 9, 51, 0
7, 28530, Note_on_c, 9, 35, 0
7, 28560, Note_on_c, 9, 35, 127
7, 28560, Note_on_c, 9, 51, 127
7, 28560, Note_on_c, 9, 54, 100
7, 28590, Note_on_c, 9, 54, 0
7, 28590, Note_on_c, 9, 51, 0
7, 28590, Note_on_c, 9, 35, 0
7, 28620, Note_on_c, 9, 35, 115
7, 28620, Note_on_c, 9, 54, 90
7, 28650, Note_on_c, 9, 54, 0
7, 28650, Note_on_c, 9, 35, 0
7, 28680, Note_on_c, 9, 38, 127
7, 28680, Note_on_c, 9, 51, 115
7, 28680, Note_on_c, 9, 54, 127
7, 28710, Note_on_c, 9, 54, 0
7, 28710, Note_on_c, 9, 51, 0
7, 28710, Note_on_c, 9, 38, 0
7, 28740, Note_on_c, 9, 35, 100
7, 28740, Note_on_c, 9, 54, 90
7, 28770, Note_on_c, 9, 54, 0
7, 28770, Note_on_c, 9, 35, 0
7, 28800, Note_on_c, 9, 35, 127
7, 28800, Note_on_c, 9, 51, 127
7, 28800, Note_on_c, 9, 54, 80
7, 28830, Note_on_c, 9, 54, 0
7, 28830, Note_on_c, 9, 51, 0
7, 28830, Note_on_c, 9, 35, 0
7, 28860, Note_on_c, 9, 35, 115
7, 28860, Note_on_c, 9, 54, 90
7, 28890, Note_on_c, 9, 54, 0
7, 28890, Note_on_c, 9, 35, 0
7, 28920, Note_on_c, 9, 38, 127
7, 28920, Note_on_c, 9, 51, 115
7, 28920, Note_on_c, 9, 54, 127
7, 28950, Note_on_c, 9, 54, 0
7, 28950, Note_on_c, 9, 51, 0
7, 28950, Note_on_c, 9, 38, 0
7, 28980, Note_on_c, 9, 35, 100
7, 28980, Note_on_c, 9, 54, 80
7, 29010, Note_on_c, 9, 54, 0
7, 29010, Note_on_c, 9, 35, 0
7, 29040, Note_on_c, 9, 35, 127
7, 29040, Note_on_c, 9, 51, 127
7, 29040, Note_on_c, 9, 54, 100
7, 29070, Note_on_c, 9, 54, 0
7, 29070, Note_on_c, 9, 51, 0
7, 29070, Note_on_c, 9, 35, 0
7, 29100, Note_on_c, 9, 35, 115
7, 29100, Note_on_c, 9, 54, 90
7, 29130, Note_on_c, 9, 54, 0
7, 29130, Note_on_c, 9, 35, 0
7, 29160, Note_on_c, 9, 38, 127
7, 29160, Note_on_c, 9, 51, 115
7, 29160, Note_on_c, 9, 54, 127
7, 29190, Note_on_c, 9, 54, 0
7, 29190, Note_on_c, 9, 51, 0
7, 29190, Note_on_c, 9, 38, 0
7, 29220, Note_on_c, 9, 35, 100
7, 29220, Note_on_c, 9, 54, 90
7, 29250, Note_on_c, 9, 54, 0
7, 29250, Note_on_c, 9, 35, 0
7, 29280, Note_on_c, 9, 35, 127
7, 29280, Note_on_c, 9, 51, 127
7, 29280, Note_on_c, 9, 54, 80
7, 29310, Note_on_c, 9, 54, 0
7, 29310, Note_on_c, 9, 51, 0
7, 29310, Note_on_c, 9, 35, 0
7, 29340, Note_on_c, 9, 35, 115
7, 29340, Note_on_c, 9, 54, 90
7, 29370, Note_on_c, 9, 54, 0
7, 29370, Note_on_c, 9, 35, 0
7, 29400, Note_on_c, 9, 38, 127
7, 29400, Note_on_c, 9, 51, 115
7, 29400, Note_on_c, 9, 54, 127
7, 29430, Note_on_c, 9, 54, 0
7, 29430, Note_on_c, 9, 51, 0
7, 29430, Note_on_c, 9, 38, 0
7, 29460, Note_on_c, 9, 35, 100
7, 29460, Note_on_c, 9, 51, 115
7, 29460, Note_on_c, 9, 54, 80
7, 29490, Note_on_c, 9, 51, 90
7, 29490, Note_on_c, 9, 54, 0
7, 29490, Note_on_c, 9, 35, 0
7, 29490, Note_on_c, 9, 51, 0
7, 29520, Note_on_c, 9, 35, 127
7, 29520, Note_on_c, 9, 51, 127
7, 29520, Note_on_c, 9, 54, 100
7, 29520, Note_on_c, 9, 51, 0
7, 29550, Note_on_c, 9, 35, 0
7, 29550, Note_on_c, 9, 51, 0
7, 29550, Note_on_c, 9, 54, 0
7, 29580, Note_on_c, 9, 35, 115
7, 29580, Note_on_c, 9, 54, 90
7, 29610, Note_on_c, 9, 54, 0
7, 29610, Note_on_c, 9, 35, 0
7, 29640, Note_on_c, 9, 38, 127
7, 29640, Note_on_c, 9, 51, 115
7, 29640, Note_on_c, 9, 54, 127
7, 29670, Note_on_c, 9, 54, 0
7, 29670, Note_on_c, 9, 51, 0
7, 29670, Note_on_c, 9, 38, 0
7, 29700, Note_on_c, 9, 35, 100
7, 29700, Note_on_c, 9, 54, 90
7, 29730, Note_on_c, 9, 54, 0
7, 29730, Note_on_c, 9, 35, 0
7, 29760, Note_on_c, 9, 35, 127
7, 29760, Note_on_c, 9, 51, 127
7, 29760, Note_on_c, 9, 54, 80
7, 29790, Note_on_c, 9, 54, 0
7, 29790, Note_on_c, 9, 51, 0
7, 29790, Note_on_c, 9, 35, 0
7, 29820, Note_on_c, 9, 35, 115
7, 29820, Note_on_c, 9, 54, 90
7, 29850, Note_on_c, 9, 54, 0
7, 29850, Note_on_c, 9, 35, 0
7, 29880, Note_on_c, 9, 38, 127
7, 29880, Note_on_c, 9, 51, 115
7, 29880, Note_on_c, 9, 54, 127
7, 29910, Note_on_c, 9, 54, 0
7, 29910, Note_on_c, 9, 51, 0
7, 29910, Note_on_c, 9, 38, 0
7, 29940, Note_on_c, 9, 35, 100
7, 29940, Note_on_c, 9, 54, 80
7, 29970, Note_on_c, 9, 54, 0
7, 29970, Note_on_c, 9, 35, 0
7, 30000, Note_on_c, 9, 35, 127
7, 30000, Note_on_c, 9, 51, 127
7, 30000, Note_on_c, 9, 54, 100
7, 30030, Note_on_c, 9, 54, 0
7, 30030, Note_on_c, 9, 51, 0
7, 30030, Note_on_c, 9, 35, 0
7, 30060, Note_on_c, 9, 35, 115
7, 30060, Note_on_c, 9, 54, 90
7, 30090, Note_on_c, 9, 54, 0
7, 30090, Note_on_c, 9, 35, 0
7, 30120, Note_on_c, 9, 38, 127
7, 30120, Note_on_c, 9, 51, 115
7, 30120, Note_on_c, 9, 54, 127
7, 30150, Note_on_c, 9, 54, 0
7, 30150, Note_on_c, 9, 51, 0
7, 30150, Note_on_c, 9, 38, 0
7, 30180, Note_on_c, 9, 35, 100
7, 30180, Note_on_c, 9, 54, 90
7, 30210, Note_on_c, 9, 54, 0
7, 30210, Note_on_c, 9, 35, 0
7, 30240, Note_on_c, 9, 35, 127
7, 30240, Note_on_c, 9, 51, 127
7, 30240, Note_on_c, 9, 54, 80
7, 30270, Note_on_c, 9, 54, 0
7, 30270, Note_on_c, 9, 51, 0
7, 30270, Note_on_c, 9, 35, 0
7, 30300, Note_on_c, 9, 35, 115
7, 30300, Note_on_c, 9, 54, 90
7, 30330, Note_on_c, 9, 54, 0
7, 30330, Note_on_c, 9, 35, 0
7, 30360, Note_on_c, 9, 38, 127
7, 30360, Note_on_c, 9, 51, 115
7, 30360, Note_on_c, 9, 54, 127
7, 30390, Note_on_c, 9, 54, 0
7, 30390, Note_on_c, 9, 51, 0
7, 30390, Note_on_c, 9, 38, 0
7, 30420, Note_on_c, 9, 35, 100
7, 30420, Note_on_c, 9, 54, 80
7, 30450, Note_on_c, 9, 54, 0
7, 30450, Note_on_c, 9, 35, 0
7, 30480, Note_on_c, 9, 35, 127
7, 30480, Note_on_c, 9, 51, 127
7, 30480, Note_on_c, 9, 54, 100
7, 30510, Note_on_c, 9, 38, 115
7, 30510, Note_on_c, 9, 54, 0
7, 30510, Note_on_c, 9, 35, 0
7, 30510, Note_on_c, 9, 51, 0
7, 30540, Note_on_c, 9, 35, 115
7, 30540, Note_on_c, 9, 51, 90
7, 30540, Note_on_c, 9, 54, 90
7, 30540, Note_on_c, 9, 38, 0
7, 30570, Note_on_c, 9, 35, 127
7, 30570, Note_on_c, 9, 51, 100
7, 30570, Note_on_c, 9, 35, 0
7, 30570, Note_on_c, 9, 54, 0
7, 30570, Note_on_c, 9, 51, 0
7, 30600, Note_on_c, 9, 38, 127
7, 30600, Note_on_c, 9, 51, 115
7, 30600, Note_on_c, 9, 54, 127
7, 30600, Note_on_c, 9, 35, 0
7, 30600, Note_on_c, 9, 51, 0
7, 30630, Note_on_c, 9, 35, 115
7, 30630, Note_on_c, 9, 51, 0
7, 30630, Note_on_c, 9, 54, 0
7, 30630, Note_on_c, 9, 38, 0
7, 30660, Note_on_c, 9, 35, 100
7, 30660, Note_on_c, 9, 51, 70
7, 30660, Note_on_c, 9, 54, 90
7, 30660, Note_on_c, 9, 35, 0
7, 30690, Note_on_c, 9, 35, 115
7, 30690, Note_on_c, 9, 51, 100
7, 30690, Note_on_c, 9, 35, 0
7, 30690, Note_on_c, 9, 54, 0
7, 30690, Note_on_c, 9, 51, 0
7, 30720, Note_on_c, 9, 35, 127
7, 30720, Note_on_c, 9, 51, 127
7, 30720, Note_on_c, 9, 54, 80
7, 30720, Note_on_c, 9, 35, 0
7, 30720, Note_on_c, 9, 51, 0
7, 30750, Note_on_c, 9, 51, 0
7, 30750, Note_on_c, 9, 35, 0
7, 30750, Note_on_c, 9, 54, 0
7, 30780, Note_on_c, 9, 35, 115
7, 30780, Note_on_c, 9, 54, 90
7, 30810, Note_on_c, 9, 54, 0
7, 30810, Note_on_c, 9, 35, 0
7, 30840, Note_on_c, 9, 38, 127
7, 30840, Note_on_c, 9, 51, 115
7, 30840, Note_on_c, 9, 54, 127
7, 30870, Note_on_c, 9, 54, 0
7, 30870, Note_on_c, 9, 51, 0
7, 30870, Note_on_c, 9, 38, 0
7, 30900, Note_on_c, 9, 35, 100
7, 30900, Note_on_c, 9, 54, 80
7, 30930, Note_on_c, 9, 54, 0
7, 30930, Note_on_c, 9, 35, 0
7, 30960, Note_on_c, 9, 35, 127
7, 30960, Note_on_c, 9, 51, 127
7, 30960, Note_on_c, 9, 54, 100
7, 30990, Note_on_c, 9, 54, 0
7, 30990, Note_on_c, 9, 51, 0
7, 30990, Note_on_c, 9, 35, 0
7, 31020, Note_on_c, 9, 35, 115
7, 31020, Note_on_c, 9, 54, 90
7, 31050, Note_on_c, 9, 54, 0
7, 31050, Note_on_c, 9, 35, 0
7, 31080, Note_on_c, 9, 38, 127
7, 31080, Note_on_c, 9, 51, 115
7, 31080, Note_on_c, 9, 54, 127
7, 31110, Note_on_c, 9, 54, 0
7, 31110, Note_on_c, 9, 51, 0
7, 31110, Note_on_c, 9, 38, 0
7, 31140, Note_on_c, 9, 35, 100
7, 31140, Note_on_c, 9, 54, 90
7, 31170, Note_on_c, 9, 54, 0
7, 31170, Note_on_c, 9, 35, 0
7, 31200, Note_on_c, 9, 35, 127
7, 31200, Note_on_c, 9, 51, 127
7, 31200, Note_on_c, 9, 54, 80
7, 31230, Note_on_c, 9, 54, 0
7, 31230, Note_on_c, 9, 51, 0
7, 31230, Note_on_c, 9, 35, 0
7, 31260, Note_on_c, 9, 35, 115
7, 31260, Note_on_c, 9, 54, 90
7, 31290, Note_on_c, 9, 54, 0
7, 31290, Note_on_c, 9, 35, 0
7, 31320, Note_on_c, 9, 38, 127
7, 31320, Note_on_c, 9, 51, 115
7, 31320, Note_on_c, 9, 54, 127
7, 31350, Note_on_c, 9, 54, 0
7, 31350, Note_on_c, 9, 51, 0
7, 31350, Note_on_c, 9, 38, 0
7, 31380, Note_on_c, 9, 35, 100
7, 31380, Note_on_c, 9, 51, 115
7, 31380, Note_on_c, 9, 54, 80
7, 31410, Note_on_c, 9, 51, 90
7, 31410, Note_on_c, 9, 54, 0
7, 31410, Note_on_c, 9, 35, 0
7, 31410, Note_on_c, 9, 51, 0
7, 31440, Note_on_c, 9, 35, 127
7, 31440, Note_on_c, 9, 51, 127
7, 31440, Note_on_c, 9, 54, 100
7, 31440, Note_on_c, 9, 51, 0
7, 31470, Note_on_c, 9, 35, 0
7, 31470, Note_on_c, 9, 51, 0
7, 31470, Note_on_c, 9, 54, 0
7, 31500, Note_on_c, 9, 35, 115
7, 31500, Note_on_c, 9, 54, 90
7, 31530, Note_on_c, 9, 54, 0
7, 31530, Note_on_c, 9, 35, 0
7, 31560, Note_on_c, 9, 38, 127
7, 31560, Note_on_c, 9, 51, 115
7, 31560, Note_on_c, 9, 54, 127
7, 31590, Note_on_c, 9, 54, 0
7, 31590, Note_on_c, 9, 51, 0
7, 31590, Note_on_c, 9, 38, 0
7, 31620, Note_on_c, 9, 35, 100
7, 31620, Note_on_c, 9, 54, 90
7, 31650, Note_on_c, 9, 54, 0
7, 31650, Note_on_c, 9, 35, 0
7, 31680, Note_on_c, 9, 35, 127
7, 31680, Note_on_c, 9, 51, 127
7, 31680, Note_on_c, 9, 54, 80
7, 31710, Note_on_c, 9, 54, 0
7, 31710, Note_on_c, 9, 51, 0
7, 31710, Note_on_c, 9, 35, 0
7, 31740, Note_on_c, 9, 35, 115
7, 31740, Note_on_c, 9, 54, 90
7, 31770, Note_on_c, 9, 54, 0
7, 31770, Note_on_c, 9, 35, 0
7, 31800, Note_on_c, 9, 38, 127
7, 31800, Note_on_c, 9, 51, 115
7, 31800, Note_on_c, 9, 54, 127
7, 31830, Note_on_c, 9, 54, 0
7, 31830, Note_on_c, 9, 51, 0
7, 31830, Note_on_c, 9, 38, 0
7, 31860, Note_on_c, 9, 35, 100
7, 31860, Note_on_c, 9, 54, 80
7, 31890, Note_on_c, 9, 54, 0
7, 31890, Note_on_c, 9, 35, 0
7, 31920, Note_on_c, 9, 35, 127
7, 31920, Note_on_c, 9, 51, 127
7, 31920, Note_on_c, 9, 54, 100
7, 31950, Note_on_c, 9, 54, 0
7, 31950, Note_on_c, 9, 51, 0
7, 31950, Note_on_c, 9, 35, 0
7, 31980, Note_on_c, 9, 35, 115
7, 31980, Note_on_c, 9, 54, 90
7, 32010, Note_on_c, 9, 54, 0
7, 32010, Note_on_c, 9, 35, 0
7, 32040, Note_on_c, 9, 38, 127
7, 32040, Note_on_c, 9, 51, 115
7, 32040, Note_on_c, 9, 54, 127
7, 32070, Note_on_c, 9, 54, 0
7, 32070, Note_on_c, 9, 51, 0
7, 32070, Note_on_c, 9, 38, 0
7, 32100, Note_on_c, 9, 35, 100
7, 32100, Note_on_c, 9, 54, 90
7, 32130, Note_on_c, 9, 54, 0
7, 32130, Note_on_c, 9, 35, 0
7, 32160, Note_on_c, 9, 38, 127
7, 32190, Note_on_c, 9, 38, 115
7, 32190, Note_on_c, 9, 38, 0
7, 32220, Note_on_c, 9, 35, 127
7, 32220, Note_on_c, 9, 38, 40
7, 32220, Note_on_c, 9, 38, 0
7, 32250, Note_on_c, 9, 35, 115
7, 32250, Note_on_c, 9, 38, 50
7, 32250, Note_on_c, 9, 38, 0
7, 32250, Note_on_c, 9, 35, 0
7, 32280, Note_on_c, 9, 38, 127
7, 32280, Note_on_c, 9, 35, 0
7, 32280, Note_on_c, 9, 38, 0
7, 32310, Note_on_c, 9, 38, 100
7, 32310, Note_on_c, 9, 38, 0
7, 32340, Note_on_c, 9, 38, 127
7, 32340, Note_on_c, 9, 38, 0
7, 32370, Note_on_c, 9, 38, 115
7, 32370, Note_on_c, 9, 38, 0
7, 32400, Note_on_c, 9, 35, 127
7, 32400, Note_on_c, 9, 38, 40
7, 32400, Note_on_c, 9, 38, 0
7, 32430, Note_on_c, 9, 35, 115
7, 32430, Note_on_c, 9, 38, 60
7, 32430, Note_on_c, 9, 38, 0
7, 32430, Note_on_c, 9, 35, 0
7, 32460, Note_on_c, 9, 38, 115
7, 32460, Note_on_c, 9, 35, 0
7, 32460, Note_on_c, 9, 38, 0
7, 32490, Note_on_c, 9, 38, 100
7, 32490, Note_on_c, 9, 38, 0
7, 32520, Note_on_c, 9, 38, 127
7, 32520, Note_on_c, 9, 38, 0
7, 32550, Note_on_c, 9, 38, 115
7, 32550, Note_on_c, 9, 38, 0
7, 32580, Note_on_c, 9, 35, 127
7, 32580, Note_on_c, 9, 38, 0
7, 32610, Note_on_c, 9, 38, 127
7, 32610, Note_on_c, 9, 35, 0
7, 32640, Note_on_c, 9, 35, 127
7, 32640, Note_on_c, 9, 51, 127
7, 32640, Note_on_c, 9, 49, 127
7, 32640, Note_on_c, 9, 54, 80
7, 32640, Note_on_c, 9, 38, 0
7, 32670, Note_on_c, 9, 49, 0
7, 32670, Note_on_c, 9, 35, 0
7, 32670, Note_on_c, 9, 51, 0
7, 32670, Note_on_c, 9, 54, 0
7, 32700, Note_on_c, 9, 35, 115
7, 32700, Note_on_c, 9, 54, 90
7, 32730, Note_on_c, 9, 54, 0
7, 32730, Note_on_c, 9, 35, 0
7, 32760, Note_on_c, 9, 38, 127
7, 32760, Note_on_c, 9, 51, 115
7, 32760, Note_on_c, 9, 54, 127
7, 32790, Note_on_c, 9, 54, 0
7, 32790, Note_on_c, 9, 51, 0
7, 32790, Note_on_c, 9, 38, 0
7, 32820, Note_on_c, 9, 35, 100
7, 32820, Note_on_c, 9, 54, 80
7, 32850, Note_on_c, 9, 54, 0
7, 32850, Note_on_c, 9, 35, 0
7, 32880, Note_on_c, 9, 35, 127
7, 32880, Note_on_c, 9, 51, 127
7, 32880, Note_on_c, 9, 54, 100
7, 32910, Note_on_c, 9, 54, 0
7, 32910, Note_on_c, 9, 51, 0
7, 32910, Note_on_c, 9, 35, 0
7, 32940, Note_on_c, 9, 35, 115
7, 32940, Note_on_c, 9, 54, 90
7, 32970, Note_on_c, 9, 54, 0
7, 32970, Note_on_c, 9, 35, 0
7, 33000, Note_on_c, 9, 38, 127
7, 33000, Note_on_c, 9, 51, 115
7, 33000, Note_on_c, 9, 54, 127
7, 33030, Note_on_c, 9, 54, 0
7, 33030, Note_on_c, 9, 51, 0
7, 33030, Note_on_c, 9, 38, 0
7, 33060, Note_on_c, 9, 35, 100
7, 33060, Note_on_c, 9, 54, 90
7, 33090, Note_on_c, 9, 54, 0
7, 33090, Note_on_c, 9, 35, 0
7, 33120, Note_on_c, 9, 35, 127
7, 33120, Note_on_c, 9, 51, 127
7, 33120, Note_on_c, 9, 54, 80
7, 33150, Note_on_c, 9, 35, 100
7, 33150, Note_on_c, 9, 54, 0
7, 33150, Note_on_c, 9, 35, 0
7, 33150, Note_on_c, 9, 51, 0
7, 33180, Note_on_c, 9, 35, 115
7, 33180, Note_on_c, 9, 54, 90
7, 33180, Note_on_c, 9, 35, 0
7, 33210, Note_on_c, 9, 54, 0
7, 33210, Note_on_c, 9, 35, 0
7, 33240, Note_on_c, 9, 38, 127
7, 33240, Note_on_c, 9, 51, 115
7, 33240, Note_on_c, 9, 54, 127
7, 33270, Note_on_c, 9, 54, 0
7, 33270, Note_on_c, 9, 51, 0
7, 33270, Note_on_c, 9, 38, 0
7, 33300, Note_on_c, 9, 35, 100
7, 33300, Note_on_c, 9, 51, 115
7, 33300, Note_on_c, 9, 54, 80
7, 33330, Note_on_c, 9, 54, 0
7, 33330, Note_on_c, 9, 51, 0
7, 33330, Note_on_c, 9, 35, 0
7, 33360, Note_on_c, 9, 35, 127
7, 33360, Note_on_c, 9, 51, 127
7, 33360, Note_on_c, 9, 54, 100
7, 33390, Note_on_c, 9, 54, 0
7, 33390, Note_on_c, 9, 51, 0
7, 33390, Note_on_c, 9, 35, 0
7, 33420, Note_on_c, 9, 35, 115
7, 33420, Note_on_c, 9, 54, 90
7, 33450, Note_on_c, 9, 54, 0
7, 33450, Note_on_c, 9, 35, 0
7, 33480, Note_on_c, 9, 38, 127
7, 33480, Note_on_c, 9, 51, 115
7, 33480, Note_on_c, 9, 54, 127
7, 33510, Note_on_c, 9, 54, 0
7, 33510, Note_on_c, 9, 51, 0
7, 33510, Note_on_c, 9, 38, 0
7, 33540, Note_on_c, 9, 35, 100
7, 33540, Note_on_c, 9, 54, 90
7, 33570, Note_on_c, 9, 54, 0
7, 33570, Note_on_c, 9, 35, 0
7, 33600, Note_on_c, 9, 35, 127
7, 33600, Note_on_c, 9, 51, 127
7, 33600, Note_on_c, 9, 54, 80
7, 33630, Note_on_c, 9, 54, 0
7, 33630, Note_on_c, 9, 51, 0
7, 33630, Note_on_c, 9, 35, 0
7, 33660, Note_on_c, 9, 35, 115
7, 33660, Note_on_c, 9, 54, 90
7, 33690, Note_on_c, 9, 54, 0
7, 33690, Note_on_c, 9, 35, 0
7, 33720, Note_on_c, 9, 38, 127
7, 33720, Note_on_c, 9, 51, 115
7, 33720, Note_on_c, 9, 54, 127
7, 33750, Note_on_c, 9, 54, 0
7, 33750, Note_on_c, 9, 51, 0
7, 33750, Note_on_c, 9, 38, 0
7, 33780, Note_on_c, 9, 35, 100
7, 33780, Note_on_c, 9, 54, 80
7, 33810, Note_on_c, 9, 54, 0
7, 33810, Note_on_c, 9, 35, 0
7, 33840, Note_on_c, 9, 35, 127
7, 33840, Note_on_c, 9, 51, 127
7, 33840, Note_on_c, 9, 54, 100
7, 33870, Note_on_c, 9, 54, 0
7, 33870, Note_on_c, 9, 51, 0
7, 33870, Note_on_c, 9, 35, 0
7, 33900, Note_on_c, 9, 35, 115
7, 33900, Note_on_c, 9, 54, 90
7, 33930, Note_on_c, 9, 54, 0
7, 33930, Note_on_c, 9, 35, 0
7, 33960, Note_on_c, 9, 38, 127
7, 33960, Note_on_c, 9, 51, 115
7, 33960, Note_on_c, 9, 54, 127
7, 33990, Note_on_c, 9, 54, 0
7, 33990, Note_on_c, 9, 51, 0
7, 33990, Note_on_c, 9, 38, 0
7, 34020, Note_on_c, 9, 35, 100
7, 34020, Note_on_c, 9, 54, 90
7, 34050, Note_on_c, 9, 54, 0
7, 34050, Note_on_c, 9, 35, 0
7, 34080, Note_on_c, 9, 35, 127
7, 34080, Note_on_c, 9, 51, 127
7, 34080, Note_on_c, 9, 54, 80
7, 34110, Note_on_c, 9, 54, 0
7, 34110, Note_on_c, 9, 51, 0
7, 34110, Note_on_c, 9, 35, 0
7, 34140, Note_on_c, 9, 35, 115
7, 34140, Note_on_c, 9, 54, 90
7, 34170, Note_on_c, 9, 54, 0
7, 34170, Note_on_c, 9, 35, 0
7, 34200, Note_on_c, 9, 38, 127
7, 34200, Note_on_c, 9, 51, 115
7, 34200, Note_on_c, 9, 54, 127
7, 34230, Note_on_c, 9, 54, 0
7, 34230, Note_on_c, 9, 51, 0
7, 34230, Note_on_c, 9, 38, 0
7, 34260, Note_on_c, 9, 35, 100
7, 34260, Note_on_c, 9, 54, 80
7, 34290, Note_on_c, 9, 54, 0
7, 34290, Note_on_c, 9, 35, 0
7, 34320, Note_on_c, 9, 35, 127
7, 34320, Note_on_c, 9, 51, 127
7, 34320, Note_on_c, 9, 54, 100
7, 34350, Note_on_c, 9, 38, 115
7, 34350, Note_on_c, 9, 54, 0
7, 34350, Note_on_c, 9, 35, 0
7, 34350, Note_on_c, 9, 51, 0
7, 34380, Note_on_c, 9, 35, 115
7, 34380, Note_on_c, 9, 51, 90
7, 34380, Note_on_c, 9, 54, 90
7, 34380, Note_on_c, 9, 38, 0
7, 34410, Note_on_c, 9, 35, 127
7, 34410, Note_on_c, 9, 51, 100
7, 34410, Note_on_c, 9, 35, 0
7, 34410, Note_on_c, 9, 54, 0
7, 34410, Note_on_c, 9, 51, 0
7, 34440, Note_on_c, 9, 38, 127
7, 34440, Note_on_c, 9, 51, 115
7, 34440, Note_on_c, 9, 54, 127
7, 34440, Note_on_c, 9, 35, 0
7, 34440, Note_on_c, 9, 51, 0
7, 34470, Note_on_c, 9, 35, 115
7, 34470, Note_on_c, 9, 51, 0
7, 34470, Note_on_c, 9, 54, 0
7, 34470, Note_on_c, 9, 38, 0
7, 34500, Note_on_c, 9, 35, 100
7, 34500, Note_on_c, 9, 51, 70
7, 34500, Note_on_c, 9, 54, 90
7, 34500, Note_on_c, 9, 35, 0
7, 34530, Note_on_c, 9, 35, 115
7, 34530, Note_on_c, 9, 51, 100
7, 34530, Note_on_c, 9, 35, 0
7, 34530, Note_on_c, 9, 54, 0
7, 34530, Note_on_c, 9, 51, 0
7, 34560, Note_on_c, 9, 35, 127
7, 34560, Note_on_c, 9, 51, 127
7, 34560, Note_on_c, 9, 54, 80
7, 34560, Note_on_c, 9, 35, 0
7, 34560, Note_on_c, 9, 51, 0
7, 34590, Note_on_c, 9, 51, 0
7, 34590, Note_on_c, 9, 35, 0
7, 34590, Note_on_c, 9, 54, 0
7, 34620, Note_on_c, 9, 35, 115
7, 34620, Note_on_c, 9, 54, 90
7, 34650, Note_on_c, 9, 54, 0
7, 34650, Note_on_c, 9, 35, 0
7, 34680, Note_on_c, 9, 38, 127
7, 34680, Note_on_c, 9, 51, 115
7, 34680, Note_on_c, 9, 54, 127
7, 34710, Note_on_c, 9, 54, 0
7, 34710, Note_on_c, 9, 51, 0
7, 34710, Note_on_c, 9, 38, 0
7, 34740, Note_on_c, 9, 35, 100
7, 34740, Note_on_c, 9, 54, 80
7, 34770, Note_on_c, 9, 54, 0
7, 34770, Note_on_c, 9, 35, 0
7, 34800, Note_on_c, 9, 35, 127
7, 34800, Note_on_c, 9, 51, 127
7, 34800, Note_on_c, 9, 54, 100
7, 34830, Note_on_c, 9, 54, 0
7, 34830, Note_on_c, 9, 51, 0
7, 34830, Note_on_c, 9, 35, 0
7, 34860, Note_on_c, 9, 35, 115
7, 34860, Note_on_c, 9, 54, 90
7, 34890, Note_on_c, 9, 54, 0
7, 34890, Note_on_c, 9, 35, 0
7, 34920, Note_on_c, 9, 38, 127
7, 34920, Note_on_c, 9, 51, 115
7, 34920, Note_on_c, 9, 54, 127
7, 34950, Note_on_c, 9, 54, 0
7, 34950, Note_on_c, 9, 51, 0
7, 34950, Note_on_c, 9, 38, 0
7, 34980, Note_on_c, 9, 35, 100
7, 34980, Note_on_c, 9, 54, 90
7, 35010, Note_on_c, 9, 54, 0
7, 35010, Note_on_c, 9, 35, 0
7, 35040, Note_on_c, 9, 35, 127
7, 35040, Note_on_c, 9, 51, 127
7, 35040, Note_on_c, 9, 54, 80
7, 35070, Note_on_c, 9, 54, 0
7, 35070, Note_on_c, 9, 51, 0
7, 35070, Note_on_c, 9, 35, 0
7, 35100, Note_on_c, 9, 35, 115
7, 35100, Note_on_c, 9, 54, 90
7, 35130, Note_on_c, 9, 54, 0
7, 35130, Note_on_c, 9, 35, 0
7, 35160, Note_on_c, 9, 38, 127
7, 35160, Note_on_c, 9, 51, 115
7, 35160, Note_on_c, 9, 54, 127
7, 35190, Note_on_c, 9, 54, 0
7, 35190, Note_on_c, 9, 51, 0
7, 35190, Note_on_c, 9, 38, 0
7, 35220, Note_on_c, 9, 35, 100
7, 35220, Note_on_c, 9, 51, 115
7, 35220, Note_on_c, 9, 54, 80
7, 35250, Note_on_c, 9, 51, 90
7, 35250, Note_on_c, 9, 54, 0
7, 35250, Note_on_c, 9, 35, 0
7, 35250, Note_on_c, 9, 51, 0
7, 35280, Note_on_c, 9, 35, 127
7, 35280, Note_on_c, 9, 51, 127
7, 35280, Note_on_c, 9, 54, 100
7, 35280, Note_on_c, 9, 51, 0
7, 35310, Note_on_c, 9, 35, 0
7, 35310, Note_on_c, 9, 51, 0
7, 35310, Note_on_c, 9, 54, 0
7, 35340, Note_on_c, 9, 35, 115
7, 35340, Note_on_c, 9, 54, 90
7, 35370, Note_on_c, 9, 54, 0
7, 35370, Note_on_c, 9, 35, 0
7, 35400, Note_on_c, 9, 38, 127
7, 35400, Note_on_c, 9, 51, 115
7, 35400, Note_on_c, 9, 54, 127
7, 35430, Note_on_c, 9, 54, 0
7, 35430, Note_on_c, 9, 51, 0
7, 35430, Note_on_c, 9, 38, 0
7, 35460, Note_on_c, 9, 35, 100
7, 35460, Note_on_c, 9, 54, 90
7, 35490, Note_on_c, 9, 54, 0
7, 35490, Note_on_c, 9, 35, 0
7, 35520, Note_on_c, 9, 35, 127
7, 35520, Note_on_c, 9, 51, 127
7, 35520, Note_on_c, 9, 54, 80
7, 35550, Note_on_c, 9, 54, 0
7, 35550, Note_on_c, 9, 51, 0
7, 35550, Note_on_c, 9, 35, 0
7, 35580, Note_on_c, 9, 35, 115
7, 35580, Note_on_c, 9, 54, 90
7, 35610, Note_on_c, 9, 54, 0
7, 35610, Note_on_c, 9, 35, 0
7, 35640, Note_on_c, 9, 38, 127
7, 35640, Note_on_c, 9, 51, 115
7, 35640, Note_on_c, 9, 54, 127
7, 35670, Note_on_c, 9, 54, 0
7, 35670, Note_on_c, 9, 51, 0
7, 35670, Note_on_c, 9, 38, 0
7, 35700, Note_on_c, 9, 35, 100
7, 35700, Note_on_c, 9, 54, 80
7, 35730, Note_on_c, 9, 54, 0
7, 35730, Note_on_c, 9, 35, 0
7, 35760, Note_on_c, 9, 35, 127
7, 35760, Note_on_c, 9, 51, 127
7, 35760, Note_on_c, 9, 54, 100
7, 35790, Note_on_c, 9, 54, 0
7, 35790, Note_on_c, 9, 51, 0
7, 35790, Note_on_c, 9, 35, 0
7, 35820, Note_on_c, 9, 35, 115
7, 35820, Note_on_c, 9, 54, 90
7, 35850, Note_on_c, 9, 54, 0
7, 35850, Note_on_c, 9, 35, 0
7, 35880, Note_on_c, 9, 38, 127
7, 35880, Note_on_c, 9, 51, 115
7, 35880, Note_on_c, 9, 54, 127
7, 35910, Note_on_c, 9, 54, 0
7, 35910, Note_on_c, 9, 51, 0
7, 35910, Note_on_c, 9, 38, 0
7, 35940, Note_on_c, 9, 35, 100
7, 35940, Note_on_c, 9, 54, 90
7, 35970, Note_on_c, 9, 54, 0
7, 35970, Note_on_c, 9, 35, 0
7, 36000, Note_on_c, 9, 35, 127
7, 36000, Note_on_c, 9, 51, 127
7, 36000, Note_on_c, 9, 54, 80
7, 36030, Note_on_c, 9, 54, 0
7, 36030, Note_on_c, 9, 51, 0
7, 36030, Note_on_c, 9, 35, 0
7, 36060, Note_on_c, 9, 35, 115
7, 36060, Note_on_c, 9, 54, 90
7, 36090, Note_on_c, 9, 54, 0
7, 36090, Note_on_c, 9, 35, 0
7, 36120, Note_on_c, 9, 38, 127
7, 36120, Note_on_c, 9, 51, 115
7, 36120, Note_on_c, 9, 54, 127
7, 36150, Note_on_c, 9, 54, 0
7, 36150, Note_on_c, 9, 51, 0
7, 36150, Note_on_c, 9, 38, 0
7, 36180, Note_on_c, 9, 35, 100
7, 36180, Note_on_c, 9, 54, 80
7, 36210, Note_on_c, 9, 51, 90
7, 36210, Note_on_c, 9, 54, 0
7, 36210, Note_on_c, 9, 35, 0
7, 36240, Note_on_c, 9, 35, 127
7, 36240, Note_on_c, 9, 51, 127
7, 36240, Note_on_c, 9, 54, 100
7, 36240, Note_on_c, 9, 51, 0
7, 36270, Note_on_c, 9, 35, 0
7, 36270, Note_on_c, 9, 51, 0
7, 36270, Note_on_c, 9, 54, 0
7, 36300, Note_on_c, 9, 35, 115
7, 36300, Note_on_c, 9, 54, 90
7, 36330, Note_on_c, 9, 54, 0
7, 36330, Note_on_c, 9, 35, 0
7, 36360, Note_on_c, 9, 38, 127
7, 36360, Note_on_c, 9, 51, 115
7, 36360, Note_on_c, 9, 54, 127
7, 36390, Note_on_c, 9, 54, 0
7, 36390, Note_on_c, 9, 51, 0
7, 36390, Note_on_c, 9, 38, 0
7, 36420, Note_on_c, 9, 35, 100
7, 36420, Note_on_c, 9, 54, 90
7, 36450, Note_on_c, 9, 54, 0
7, 36450, Note_on_c, 9, 35, 0
7, 36480, Note_on_c, 9, 35, 127
7, 36480, Note_on_c, 9, 51, 127
7, 36480, Note_on_c, 9, 54, 80
7, 36510, Note_on_c, 9, 54, 0
7, 36510, Note_on_c, 9, 51, 0
7, 36510, Note_on_c, 9, 35, 0
7, 36540, Note_on_c, 9, 35, 115
7, 36540, Note_on_c, 9, 54, 90
7, 36570, Note_on_c, 9, 54, 0
7, 36570, Note_on_c, 9, 35, 0
7, 36600, Note_on_c, 9, 38, 127
7, 36600, Note_on_c, 9, 51, 115
7, 36600, Note_on_c, 9, 54, 127
7, 36630, Note_on_c, 9, 54, 0
7, 36630, Note_on_c, 9, 51, 0
7, 36630, Note_on_c, 9, 38, 0
7, 36660, Note_on_c, 9, 35, 100
7, 36660, Note_on_c, 9, 54, 80
7, 36690, Note_on_c, 9, 54, 0
7, 36690, Note_on_c, 9, 35, 0
7, 36720, Note_on_c, 9, 35, 127
7, 36720, Note_on_c, 9, 51, 127
7, 36720, Note_on_c, 9, 54, 100
7, 36750, Note_on_c, 9, 54, 0
7, 36750, Note_on_c, 9, 51, 0
7, 36750, Note_on_c, 9, 35, 0
7, 36780, Note_on_c, 9, 35, 115
7, 36780, Note_on_c, 9, 54, 90
7, 36810, Note_on_c, 9, 54, 0
7, 36810, Note_on_c, 9, 35, 0
7, 36840, Note_on_c, 9, 38, 127
7, 36840, Note_on_c, 9, 51, 115
7, 36840, Note_on_c, 9, 54, 127
7, 36870, Note_on_c, 9, 54, 0
7, 36870, Note_on_c, 9, 51, 0
7, 36870, Note_on_c, 9, 38, 0
7, 36900, Note_on_c, 9, 35, 100
7, 36900, Note_on_c, 9, 54, 90
7, 36930, Note_on_c, 9, 54, 0
7, 36930, Note_on_c, 9, 35, 0
7, 36960, Note_on_c, 9, 38, 127
7, 36960, Note_on_c, 9, 42, 90
7, 36990, Note_on_c, 9, 38, 100
7, 36990, Note_on_c, 9, 42, 0
7, 36990, Note_on_c, 9, 38, 0
7, 37020, Note_on_c, 9, 38, 0
7, 37050, Note_on_c, 9, 38, 127
7, 37080, Note_on_c, 9, 38, 100
7, 37080, Note_on_c, 9, 42, 90
7, 37080, Note_on_c, 9, 38, 0
7, 37110, Note_on_c, 9, 42, 0
7, 37110, Note_on_c, 9, 38, 0
7, 37140, Note_on_c, 9, 38, 127
7, 37170, Note_on_c, 9, 38, 100
7, 37170, Note_on_c, 9, 38, 0
7, 37200, Note_on_c, 9, 42, 90
7, 37200, Note_on_c, 9, 38, 0
7, 37230, Note_on_c, 9, 35, 127
7, 37230, Note_on_c, 9, 42, 0
7, 37260, Note_on_c, 9, 38, 127
7, 37260, Note_on_c, 9, 35, 0
7, 37290, Note_on_c, 9, 38, 115
7, 37290, Note_on_c, 9, 38, 0
7, 37320, Note_on_c, 9, 38, 127
7, 37320, Note_on_c, 9, 42, 90
7, 37320, Note_on_c, 9, 38, 0
7, 37350, Note_on_c, 9, 45, 127
7, 37350, Note_on_c, 9, 42, 0
7, 37350, Note_on_c, 9, 38, 0
7, 37380, Note_on_c, 9, 41, 127
7, 37380, Note_on_c, 9, 45, 0
7, 37410, Note_on_c, 9, 41, 0
7, 37440, Note_on_c, 9, 35, 127
7, 37440, Note_on_c, 9, 46, 100
7, 37440, Note_on_c, 9, 49, 127
7, 37470, Note_on_c, 9, 49, 0
7, 37470, Note_on_c, 9, 46, 0
7, 37470, Note_on_c, 9, 35, 0
7, 37560, Note_on_c, 9, 38, 115
7, 37560, Note_on_c, 9, 46, 100
7, 37590, Note_on_c, 9, 46, 0
7, 37590, Note_on_c, 9, 38, 0
7, 37620, Note_on_c, 9, 35, 100
7, 37650, Note_on_c, 9, 35, 0
7, 37680, Note_on_c, 9, 35, 127
7, 37680, Note_on_c, 9, 46, 100
7, 37710, Note_on_c, 9, 46, 0
7, 37710, Note_on_c, 9, 35, 0
7, 37800, Note_on_c, 9, 38, 115
7, 37800, Note_on_c, 9, 46, 100
7, 37830, Note_on_c, 9, 46, 0
7, 37830, Note_on_c, 9, 38, 0
7, 37860, Note_on_c, 9, 35, 100
7, 37890, Note_on_c, 9, 35, 0
7, 37920, Note_on_c, 9, 35, 127
7, 37920, Note_on_c, 9, 46, 100
7, 37950, Note_on_c, 9, 46, 0
7, 37950, Note_on_c, 9, 35, 0
7, 38040, Note_on_c, 9, 38, 115
7, 38040, Note_on_c, 9, 46, 100
7, 38070, Note_on_c, 9, 46, 0
7, 38070, Note_on_c, 9, 38, 0
7, 38100, Note_on_c, 9, 35, 100
7, 38130, Note_on_c, 9, 35, 0
7, 38160, Note_on_c, 9, 35, 127
7, 38160, Note_on_c, 9, 46, 100
7, 38190, Note_on_c, 9, 46, 0
7, 38190, Note_on_c, 9, 35, 0
7, 38280, Note_on_c, 9, 38, 115
7, 38280, Note_on_c, 9, 46, 100
7, 38310, Note_on_c, 9, 46, 0
7, 38310, Note_on_c, 9, 38, 0
7, 38340, Note_on_c, 9, 35, 100
7, 38370, Note_on_c, 9, 35, 0
7, 38400, Note_on_c, 9, 35, 127
7, 38400, Note_on_c, 9, 46, 100
7, 38430, Note_on_c, 9, 46, 0
7, 38430, Note_on_c, 9, 35, 0
7, 38520, Note_on_c, 9, 38, 115
7, 38520, Note_on_c, 9, 46, 100
7, 38550, Note_on_c, 9, 46, 0
7, 38550, Note_on_c, 9, 38, 0
7, 38580, Note_on_c, 9, 35, 100
7, 38610, Note_on_c, 9, 35, 0
7, 38640, Note_on_c, 9, 35, 127
7, 38640, Note_on_c, 9, 46, 100
7, 38670, Note_on_c, 9, 46, 0
7, 38670, Note_on_c, 9, 35, 0
7, 38730, Note_on_c, 9, 35, 115
7, 38760, Note_on_c, 9, 38, 115
7, 38760, Note_on_c, 9, 46, 100
7, 38760, Note_on_c, 9, 35, 0
7, 38790, Note_on_c, 9, 46, 0
7, 38790, Note_on_c, 9, 38, 0
7, 38820, Note_on_c, 9, 35, 100
7, 38850, Note_on_c, 9, 35, 0
7, 38880, Note_on_c, 9, 35, 127
7, 38880, Note_on_c, 9, 46, 100
7, 38910, Note_on_c, 9, 46, 0
7, 38910, Note_on_c, 9, 35, 0
7, 39000, Note_on_c, 9, 38, 115
7, 39000, Note_on_c, 9, 46, 100
7, 39030, Note_on_c, 9, 46, 0
7, 39030, Note_on_c, 9, 38, 0
7, 39060, Note_on_c, 9, 35, 115
7, 39090, Note_on_c, 9, 35, 0
7, 39120, Note_on_c, 9, 46, 100
7, 39150, Note_on_c, 9, 46, 0
7, 39180, Note_on_c, 9, 35, 127
7, 39210, Note_on_c, 9, 35, 0
7, 39240, Note_on_c, 9, 38, 115
7, 39240, Note_on_c, 9, 46, 100
7, 39270, Note_on_c, 9, 46, 0
7, 39270, Note_on_c, 9, 38, 0
7, 39300, Note_on_c, 9, 35, 100
7, 39330, Note_on_c, 9, 35, 0
7, 39360, Note_on_c, 9, 38, 127
7, 39360, Note_on_c, 9, 42, 90
7, 39390, Note_on_c, 9, 38, 100
7, 39390, Note_on_c, 9, 42, 0
7, 39390, Note_on_c, 9, 38, 0
7, 39420, Note_on_c, 9, 38, 0
7, 39450, Note_on_c, 9, 38, 127
7, 39480, Note_on_c, 9, 38, 100
7, 39480, Note_on_c, 9, 42, 90
7, 39480, Note_on_c, 9, 38, 0
7, 39510, Note_on_c, 9, 42, 0
7, 39510, Note_on_c, 9, 38, 0
7, 39540, Note_on_c, 9, 38, 127
7, 39570, Note_on_c, 9, 38, 100
7, 39570, Note_on_c, 9, 38, 0
7, 39600, Note_on_c, 9, 42, 90
7, 39600, Note_on_c, 9, 38, 0
7, 39630, Note_on_c, 9, 35, 127
7, 39630, Note_on_c, 9, 42, 0
7, 39660, Note_on_c, 9, 38, 127
7, 39660, Note_on_c, 9, 35, 0
7, 39690, Note_on_c, 9, 38, 115
7, 39690, Note_on_c, 9, 38, 0
7, 39720, Note_on_c, 9, 38, 127
7, 39720, Note_on_c, 9, 42, 90
7, 39720, Note_on_c, 9, 38, 0
7, 39750, Note_on_c, 9, 45, 127
7, 39750, Note_on_c, 9, 42, 0
7, 39750, Note_on_c, 9, 38, 0
7, 39780, Note_on_c, 9, 41, 127
7, 39780, Note_on_c, 9, 45, 0
7, 39810, Note_on_c, 9, 41, 0
7, 39840, Note_on_c, 9, 35, 127
7, 39840, Note_on_c, 9, 51, 127
7, 39840, Note_on_c, 9, 49, 127
7, 39840, Note_on_c, 9, 54, 80
7, 39870, Note_on_c, 9, 54, 0
7, 39870, Note_on_c, 9, 35, 0
7, 39870, Note_on_c, 9, 51, 0
7, 39870, Note_on_c, 9, 49, 0
7, 39900, Note_on_c, 9, 35, 115
7, 39900, Note_on_c, 9, 54, 90
7, 39930, Note_on_c, 9, 54, 0
7, 39930, Note_on_c, 9, 35, 0
7, 39960, Note_on_c, 9, 38, 127
7, 39960, Note_on_c, 9, 51, 115
7, 39960, Note_on_c, 9, 54, 127
7, 39990, Note_on_c, 9, 54, 0
7, 39990, Note_on_c, 9, 51, 0
7, 39990, Note_on_c, 9, 38, 0
7, 40020, Note_on_c, 9, 35, 100
7, 40020, Note_on_c, 9, 54, 80
7, 40050, Note_on_c, 9, 54, 0
7, 40050, Note_on_c, 9, 35, 0
7, 40080, Note_on_c, 9, 35, 127
7, 40080, Note_on_c, 9, 51, 127
7, 40080, Note_on_c, 9, 54, 100
7, 40110, Note_on_c, 9, 54, 0
7, 40110, Note_on_c, 9, 51, 0
7, 40110, Note_on_c, 9, 35, 0
7, 40140, Note_on_c, 9, 35, 115
7, 40140, Note_on_c, 9, 54, 90
7, 40170, Note_on_c, 9, 54, 0
7, 40170, Note_on_c, 9, 35, 0
7, 40200, Note_on_c, 9, 38, 127
7, 40200, Note_on_c, 9, 51, 115
7, 40200, Note_on_c, 9, 54, 127
7, 40230, Note_on_c, 9, 54, 0
7, 40230, Note_on_c, 9, 51, 0
7, 40230, Note_on_c, 9, 38, 0
7, 40260, Note_on_c, 9, 35, 100
7, 40260, Note_on_c, 9, 54, 90
7, 40290, Note_on_c, 9, 54, 0
7, 40290, Note_on_c, 9, 35, 0
7, 40320, Note_on_c, 9, 35, 127
7, 40320, Note_on_c, 9, 51, 127
7, 40320, Note_on_c, 9, 54, 80
7, 40350, Note_on_c, 9, 54, 0
7, 40350, Note_on_c, 9, 51, 0
7, 40350, Note_on_c, 9, 35, 0
7, 40380, Note_on_c, 9, 35, 115
7, 40380, Note_on_c, 9, 54, 90
7, 40410, Note_on_c, 9, 54, 0
7, 40410, Note_on_c, 9, 35, 0
7, 40440, Note_on_c, 9, 38, 127
7, 40440, Note_on_c, 9, 51, 115
7, 40440, Note_on_c, 9, 54, 127
7, 40470, Note_on_c, 9, 54, 0
7, 40470, Note_on_c, 9, 51, 0
7, 40470, Note_on_c, 9, 38, 0
7, 40500, Note_on_c, 9, 35, 100
7, 40500, Note_on_c, 9, 54, 80
7, 40530, Note_on_c, 9, 54, 0
7, 40530, Note_on_c, 9, 35, 0
7, 40560, Note_on_c, 9, 35, 127
7, 40560, Note_on_c, 9, 51, 127
7, 40560, Note_on_c, 9, 54, 100
7, 40590, Note_on_c, 9, 54, 0
7, 40590, Note_on_c, 9, 51, 0
7, 40590, Note_on_c, 9, 35, 0
7, 40620, Note_on_c, 9, 35, 115
7, 40620, Note_on_c, 9, 54, 90
7, 40650, Note_on_c, 9, 54, 0
7, 40650, Note_on_c, 9, 35, 0
7, 40680, Note_on_c, 9, 38, 127
7, 40680, Note_on_c, 9, 51, 115
7, 40680, Note_on_c, 9, 54, 127
7, 40710, Note_on_c, 9, 54, 0
7, 40710, Note_on_c, 9, 51, 0
7, 40710, Note_on_c, 9, 38, 0
7, 40740, Note_on_c, 9, 35, 100
7, 40740, Note_on_c, 9, 54, 90
7, 40770, Note_on_c, 9, 54, 0
7, 40770, Note_on_c, 9, 35, 0
7, 40800, Note_on_c, 9, 35, 127
7, 40800, Note_on_c, 9, 51, 127
7, 40800, Note_on_c, 9, 54, 80
7, 40830, Note_on_c, 9, 54, 0
7, 40830, Note_on_c, 9, 51, 0
7, 40830, Note_on_c, 9, 35, 0
7, 40860, Note_on_c, 9, 35, 115
7, 40860, Note_on_c, 9, 54, 90
7, 40890, Note_on_c, 9, 54, 0
7, 40890, Note_on_c, 9, 35, 0
7, 40920, Note_on_c, 9, 38, 127
7, 40920, Note_on_c, 9, 51, 115
7, 40920, Note_on_c, 9, 54, 127
7, 40950, Note_on_c, 9, 54, 0
7, 40950, Note_on_c, 9, 51, 0
7, 40950, Note_on_c, 9, 38, 0
7, 40980, Note_on_c, 9, 35, 100
7, 40980, Note_on_c, 9, 54, 80
7, 41010, Note_on_c, 9, 54, 0
7, 41010, Note_on_c, 9, 35, 0
7, 41040, Note_on_c, 9, 35, 127
7, 41040, Note_on_c, 9, 51, 127
7, 41040, Note_on_c, 9, 54, 100
7, 41070, Note_on_c, 9, 54, 0
7, 41070, Note_on_c, 9, 51, 0
7, 41070, Note_on_c, 9, 35, 0
7, 41100, Note_on_c, 9, 35, 115
7, 41100, Note_on_c, 9, 54, 90
7, 41130, Note_on_c, 9, 54, 0
7, 41130, Note_on_c, 9, 35, 0
7, 41160, Note_on_c, 9, 38, 127
7, 41160, Note_on_c, 9, 51, 115
7, 41160, Note_on_c, 9, 54, 127
7, 41190, Note_on_c, 9, 54, 0
7, 41190, Note_on_c, 9, 51, 0
7, 41190, Note_on_c, 9, 38, 0
7, 41220, Note_on_c, 9, 35, 100
7, 41220, Note_on_c, 9, 54, 90
7, 41250, Note_on_c, 9, 54, 0
7, 41250, Note_on_c, 9, 35, 0
7, 41280, Note_on_c, 9, 35, 127
7, 41280, Note_on_c, 9, 51, 127
7, 41280, Note_on_c, 9, 54, 80
7, 41310, Note_on_c, 9, 54, 0
7, 41310, Note_on_c, 9, 51, 0
7, 41310, Note_on_c, 9, 35, 0
7, 41340, Note_on_c, 9, 35, 115
7, 41340, Note_on_c, 9, 54, 90
7, 41370, Note_on_c, 9, 54, 0
7, 41370, Note_on_c, 9, 35, 0
7, 41400, Note_on_c, 9, 38, 127
7, 41400, Note_on_c, 9, 51, 115
7, 41400, Note_on_c, 9, 54, 127
7, 41430, Note_on_c, 9, 54, 0
7, 41430, Note_on_c, 9, 51, 0
7, 41430, Note_on_c, 9, 38, 0
7, 41460, Note_on_c, 9, 35, 100
7, 41460, Note_on_c, 9, 54, 80
7, 41490, Note_on_c, 9, 54, 0
7, 41490, Note_on_c, 9, 35, 0
7, 41520, Note_on_c, 9, 35, 127
7, 41520, Note_on_c, 9, 51, 127
7, 41520, Note_on_c, 9, 54, 100
7, 41550, Note_on_c, 9, 54, 0
7, 41550, Note_on_c, 9, 51, 0
7, 41550, Note_on_c, 9, 35, 0
7, 41580, Note_on_c, 9, 35, 115
7, 41580, Note_on_c, 9, 54, 90
7, 41610, Note_on_c, 9, 54, 0
7, 41610, Note_on_c, 9, 35, 0
7, 41640, Note_on_c, 9, 38, 127
7, 41640, Note_on_c, 9, 51, 115
7, 41640, Note_on_c, 9, 54, 127
7, 41670, Note_on_c, 9, 54, 0
7, 41670, Note_on_c, 9, 51, 0
7, 41670, Note_on_c, 9, 38, 0
7, 41700, Note_on_c, 9, 35, 100
7, 41700, Note_on_c, 9, 54, 90
7, 41730, Note_on_c, 9, 54, 0
7, 41730, Note_on_c, 9, 35, 0
7, 41760, Note_on_c, 9, 35, 127
7, 41760, Note_on_c, 9, 51, 127
7, 41760, Note_on_c, 9, 54, 80
7, 41790, Note_on_c, 9, 54, 0
7, 41790, Note_on_c, 9, 51, 0
7, 41790, Note_on_c, 9, 35, 0
7, 41820, Note_on_c, 9, 35, 115
7, 41820, Note_on_c, 9, 54, 90
7, 41850, Note_on_c, 9, 54, 0
7, 41850, Note_on_c, 9, 35, 0
7, 41880, Note_on_c, 9, 38, 127
7, 41880, Note_on_c, 9, 51, 115
7, 41880, Note_on_c, 9, 54, 127
7, 41910, Note_on_c, 9, 54, 0
7, 41910, Note_on_c, 9, 51, 0
7, 41910, Note_on_c, 9, 38, 0
7, 41940, Note_on_c, 9, 35, 100
7, 41940, Note_on_c, 9, 51, 115
7, 41940, Note_on_c, 9, 54, 80
7, 41970, Note_on_c, 9, 51, 90
7, 41970, Note_on_c, 9, 54, 0
7, 41970, Note_on_c, 9, 35, 0
7, 41970, Note_on_c, 9, 51, 0
7, 42000, Note_on_c, 9, 35, 127
7, 42000, Note_on_c, 9, 51, 127
7, 42000, Note_on_c, 9, 54, 100
7, 42000, Note_on_c, 9, 51, 0
7, 42030, Note_on_c, 9, 35, 0
7, 42030, Note_on_c, 9, 51, 0
7, 42030, Note_on_c, 9, 54, 0
7, 42060, Note_on_c, 9, 35, 115
7, 42060, Note_on_c, 9, 54, 90
7, 42090, Note_on_c, 9, 54, 0
7, 42090, Note_on_c, 9, 35, 0
7, 42120, Note_on_c, 9, 38, 127
7, 42120, Note_on_c, 9, 51, 115
7, 42120, Note_on_c, 9, 54, 127
7, 42150, Note_on_c, 9, 54, 0
7, 42150, Note_on_c, 9, 51, 0
7, 42150, Note_on_c, 9, 38, 0
7, 42180, Note_on_c, 9, 35, 100
7, 42180, Note_on_c, 9, 54, 90
7, 42210, Note_on_c, 9, 54, 0
7, 42210, Note_on_c, 9, 35, 0
7, 42240, Note_on_c, 9, 35, 127
7, 42240, Note_on_c, 9, 51, 127
7, 42240, Note_on_c, 9, 54, 80
7, 42270, Note_on_c, 9, 54, 0
7, 42270, Note_on_c, 9, 51, 0
7, 42270, Note_on_c, 9, 35, 0
7, 42300, Note_on_c, 9, 35, 115
7, 42300, Note_on_c, 9, 54, 90
7, 42330, Note_on_c, 9, 54, 0
7, 42330, Note_on_c, 9, 35, 0
7, 42360, Note_on_c, 9, 38, 127
7, 42360, Note_on_c, 9, 51, 115
7, 42360, Note_on_c, 9, 54, 127
7, 42390, Note_on_c, 9, 54, 0
7, 42390, Note_on_c, 9, 51, 0
7, 42390, Note_on_c, 9, 38, 0
7, 42420, Note_on_c, 9, 35, 100
7, 42420, Note_on_c, 9, 54, 80
7, 42450, Note_on_c, 9, 54, 0
7, 42450, Note_on_c, 9, 35, 0
7, 42480, Note_on_c, 9, 35, 127
7, 42480, Note_on_c, 9, 51, 127
7, 42480, Note_on_c, 9, 54, 100
7, 42510, Note_on_c, 9, 54, 0
7, 42510, Note_on_c, 9, 51, 0
7, 42510, Note_on_c, 9, 35, 0
7, 42540, Note_on_c, 9, 35, 115
7, 42540, Note_on_c, 9, 54, 90
7, 42570, Note_on_c, 9, 54, 0
7, 42570, Note_on_c, 9, 35, 0
7, 42600, Note_on_c, 9, 38, 127
7, 42600, Note_on_c, 9, 51, 115
7, 42600, Note_on_c, 9, 54, 127
7, 42630, Note_on_c, 9, 54, 0
7, 42630, Note_on_c, 9, 51, 0
7, 42630, Note_on_c, 9, 38, 0
7, 42660, Note_on_c, 9, 35, 100
7, 42660, Note_on_c, 9, 54, 90
7, 42690, Note_on_c, 9, 54, 0
7, 42690, Note_on_c, 9, 35, 0
7, 42720, Note_on_c, 9, 35, 127
7, 42720, Note_on_c, 9, 51, 127
7, 42720, Note_on_c, 9, 54, 80
7, 42750, Note_on_c, 9, 35, 100
7, 42750, Note_on_c, 9, 54, 0
7, 42750, Note_on_c, 9, 35, 0
7, 42750, Note_on_c, 9, 51, 0
7, 42780, Note_on_c, 9, 35, 115
7, 42780, Note_on_c, 9, 54, 90
7, 42780, Note_on_c, 9, 35, 0
7, 42810, Note_on_c, 9, 35, 100
7, 42810, Note_on_c, 9, 54, 0
7, 42810, Note_on_c, 9, 35, 0
7, 42840, Note_on_c, 9, 38, 127
7, 42840, Note_on_c, 9, 51, 115
7, 42840, Note_on_c, 9, 54, 127
7, 42840, Note_on_c, 9, 35, 0
7, 42870, Note_on_c, 9, 38, 0
7, 42870, Note_on_c, 9, 51, 0
7, 42870, Note_on_c, 9, 54, 0
7, 42900, Note_on_c, 9, 35, 100
7, 42900, Note_on_c, 9, 51, 115
7, 42900, Note_on_c, 9, 54, 80
7, 42930, Note_on_c, 9, 54, 0
7, 42930, Note_on_c, 9, 51, 0
7, 42930, Note_on_c, 9, 35, 0
7, 42960, Note_on_c, 9, 35, 127
7, 42960, Note_on_c, 9, 51, 127
7, 42960, Note_on_c, 9, 54, 100
7, 42990, Note_on_c, 9, 54, 0
7, 42990, Note_on_c, 9, 51, 0
7, 42990, Note_on_c, 9, 35, 0
7, 43020, Note_on_c, 9, 35, 115
7, 43020, Note_on_c, 9, 54, 90
7, 43050, Note_on_c, 9, 54, 0
7, 43050, Note_on_c, 9, 35, 0
7, 43080, Note_on_c, 9, 38, 127
7, 43080, Note_on_c, 9, 51, 115
7, 43080, Note_on_c, 9, 54, 127
7, 43110, Note_on_c, 9, 54, 0
7, 43110, Note_on_c, 9, 51, 0
7, 43110, Note_on_c, 9, 38, 0
7, 43140, Note_on_c, 9, 35, 100
7, 43140, Note_on_c, 9, 54, 90
7, 43170, Note_on_c, 9, 54, 0
7, 43170, Note_on_c, 9, 35, 0
7, 43200, Note_on_c, 9, 35, 127
7, 43200, Note_on_c, 9, 51, 127
7, 43200, Note_on_c, 9, 54, 80
7, 43230, Note_on_c, 9, 54, 0
7, 43230, Note_on_c, 9, 51, 0
7, 43230, Note_on_c, 9, 35, 0
7, 43260, Note_on_c, 9, 35, 115
7, 43260, Note_on_c, 9, 54, 90
7, 43290, Note_on_c, 9, 54, 0
7, 43290, Note_on_c, 9, 35, 0
7, 43320, Note_on_c, 9, 38, 127
7, 43320, Note_on_c, 9, 51, 115
7, 43320, Note_on_c, 9, 54, 127
7, 43350, Note_on_c, 9, 54, 0
7, 43350, Note_on_c, 9, 51, 0
7, 43350, Note_on_c, 9, 38, 0
7, 43380, Note_on_c, 9, 35, 100
7, 43380, Note_on_c, 9, 54, 80
7, 43410, Note_on_c, 9, 54, 0
7, 43410, Note_on_c, 9, 35, 0
7, 43440, Note_on_c, 9, 35, 127
7, 43440, Note_on_c, 9, 51, 127
7, 43440, Note_on_c, 9, 54, 100
7, 43470, Note_on_c, 9, 54, 0
7, 43470, Note_on_c, 9, 51, 0
7, 43470, Note_on_c, 9, 35, 0
7, 43500, Note_on_c, 9, 35, 115
7, 43500, Note_on_c, 9, 54, 90
7, 43530, Note_on_c, 9, 54, 0
7, 43530, Note_on_c, 9, 35, 0
7, 43560, Note_on_c, 9, 38, 127
7, 43560, Note_on_c, 9, 51, 115
7, 43560, Note_on_c, 9, 54, 127
7, 43590, Note_on_c, 9, 54, 0
7, 43590, Note_on_c, 9, 51, 0
7, 43590, Note_on_c, 9, 38, 0
7, 43620, Note_on_c, 9, 35, 100
7, 43620, Note_on_c, 9, 54, 90
7, 43650, Note_on_c, 9, 54, 0
7, 43650, Note_on_c, 9, 35, 0
7, 43680, Note_on_c, 9, 35, 127
7, 43680, Note_on_c, 9, 51, 127
7, 43680, Note_on_c, 9, 54, 80
7, 43710, Note_on_c, 9, 54, 0
7, 43710, Note_on_c, 9, 51, 0
7, 43710, Note_on_c, 9, 35, 0
7, 43740, Note_on_c, 9, 35, 115
7, 43740, Note_on_c, 9, 54, 90
7, 43770, Note_on_c, 9, 54, 0
7, 43770, Note_on_c, 9, 35, 0
7, 43800, Note_on_c, 9, 38, 127
7, 43800, Note_on_c, 9, 51, 115
7, 43800, Note_on_c, 9, 54, 127
7, 43830, Note_on_c, 9, 54, 0
7, 43830, Note_on_c, 9, 51, 0
7, 43830, Note_on_c, 9, 38, 0
7, 43860, Note_on_c, 9, 35, 100
7, 43860, Note_on_c, 9, 54, 80
7, 43890, Note_on_c, 9, 54, 0
7, 43890, Note_on_c, 9, 35, 0
7, 43920, Note_on_c, 9, 35, 127
7, 43920, Note_on_c, 9, 51, 127
7, 43920, Note_on_c, 9, 54, 100
7, 43950, Note_on_c, 9, 54, 0
7, 43950, Note_on_c, 9, 51, 0
7, 43950, Note_on_c, 9, 35, 0
7, 43980, Note_on_c, 9, 35, 115
7, 43980, Note_on_c, 9, 54, 90
7, 44010, Note_on_c, 9, 54, 0
7, 44010, Note_on_c, 9, 35, 0
7, 44040, Note_on_c, 9, 38, 127
7, 44040, Note_on_c, 9, 51, 115
7, 44040, Note_on_c, 9, 54, 127
7, 44070, Note_on_c, 9, 54, 0
7, 44070, Note_on_c, 9, 51, 0
7, 44070, Note_on_c, 9, 38, 0
7, 44100, Note_on_c, 9, 35, 100
7, 44100, Note_on_c, 9, 54, 90
7, 44130, Note_on_c, 9, 54, 0
7, 44130, Note_on_c, 9, 35, 0
7, 44160, Note_on_c, 9, 38, 127
7, 44190, Note_on_c, 9, 38, 115
7, 44190, Note_on_c, 9, 38, 0
7, 44220, Note_on_c, 9, 35, 127
7, 44220, Note_on_c, 9, 38, 40
7, 44220, Note_on_c, 9, 38, 0
7, 44250, Note_on_c, 9, 35, 115
7, 44250, Note_on_c, 9, 38, 50
7, 44250, Note_on_c, 9, 38, 0
7, 44250, Note_on_c, 9, 35, 0
7, 44280, Note_on_c, 9, 38, 127
7, 44280, Note_on_c, 9, 35, 0
7, 44280, Note_on_c, 9, 38, 0
7, 44310, Note_on_c, 9, 38, 100
7, 44310, Note_on_c, 9, 38, 0
7, 44340, Note_on_c, 9, 38, 127
7, 44340, Note_on_c, 9, 38, 0
7, 44370, Note_on_c, 9, 38, 115
7, 44370, Note_on_c, 9, 38, 0
7, 44400, Note_on_c, 9, 35, 127
7, 44400, Note_on_c, 9, 38, 40
7, 44400, Note_on_c, 9, 38, 0
7, 44430, Note_on_c, 9, 35, 115
7, 44430, Note_on_c, 9, 38, 60
7, 44430, Note_on_c, 9, 38, 0
7, 44430, Note_on_c, 9, 35, 0
7, 44460, Note_on_c, 9, 38, 115
7, 44460, Note_on_c, 9, 35, 0
7, 44460, Note_on_c, 9, 38, 0
7, 44490, Note_on_c, 9, 38, 100
7, 44490, Note_on_c, 9, 38, 0
7, 44520, Note_on_c, 9, 38, 127
7, 44520, Note_on_c, 9, 38, 0
7, 44550, Note_on_c, 9, 38, 115
7, 44550, Note_on_c, 9, 38, 0
7, 44580, Note_on_c, 9, 35, 127
7, 44580, Note_on_c, 9, 38, 0
7, 44610, Note_on_c, 9, 38, 127
7, 44610, Note_on_c, 9, 35, 0
7, 44640, Note_on_c, 9, 35, 127
7, 44640, Note_on_c, 9, 51, 127
7, 44640, Note_on_c, 9, 49, 127
7, 44640, Note_on_c, 9, 54, 80
7, 44640, Note_on_c, 9, 38, 0
7, 44670, Note_on_c, 9, 49, 0
7, 44670, Note_on_c, 9, 35, 0
7, 44670, Note_on_c, 9, 51, 0
7, 44670, Note_on_c, 9, 54, 0
7, 44700, Note_on_c, 9, 35, 115
7, 44700, Note_on_c, 9, 54, 90
7, 44730, Note_on_c, 9, 54, 0
7, 44730, Note_on_c, 9, 35, 0
7, 44760, Note_on_c, 9, 38, 127
7, 44760, Note_on_c, 9, 51, 115
7, 44760, Note_on_c, 9, 54, 127
7, 44790, Note_on_c, 9, 54, 0
7, 44790, Note_on_c, 9, 51, 0
7, 44790, Note_on_c, 9, 38, 0
7, 44820, Note_on_c, 9, 35, 100
7, 44820, Note_on_c, 9, 54, 80
7, 44850, Note_on_c, 9, 54, 0
7, 44850, Note_on_c, 9, 35, 0
7, 44880, Note_on_c, 9, 35, 127
7, 44880, Note_on_c, 9, 51, 127
7, 44880, Note_on_c, 9, 54, 100
7, 44910, Note_on_c, 9, 54, 0
7, 44910, Note_on_c, 9, 51, 0
7, 44910, Note_on_c, 9, 35, 0
7, 44940, Note_on_c, 9, 35, 115
7, 44940, Note_on_c, 9, 54, 90
7, 44970, Note_on_c, 9, 54, 0
7, 44970, Note_on_c, 9, 35, 0
7, 45000, Note_on_c, 9, 38, 127
7, 45000, Note_on_c, 9, 51, 115
7, 45000, Note_on_c, 9, 54, 127
7, 45030, Note_on_c, 9, 54, 0
7, 45030, Note_on_c, 9, 51, 0
7, 45030, Note_on_c, 9, 38, 0
7, 45060, Note_on_c, 9, 35, 100
7, 45060, Note_on_c, 9, 54, 90
7, 45090, Note_on_c, 9, 54, 0
7, 45090, Note_on_c, 9, 35, 0
7, 45120, Note_on_c, 9, 38, 127
7, 45120, Note_on_c, 9, 42, 90
7, 45150, Note_on_c, 9, 38, 100
7, 45150, Note_on_c, 9, 42, 0
7, 45150, Note_on_c, 9, 38, 0
7, 45180, Note_on_c, 9, 38, 0
7, 45210, Note_on_c, 9, 38, 127
7, 45240, Note_on_c, 9, 38, 100
7, 45240, Note_on_c, 9, 42, 90
7, 45240, Note_on_c, 9, 38, 0
7, 45270, Note_on_c, 9, 42, 0
7, 45270, Note_on_c, 9, 38, 0
7, 45300, Note_on_c, 9, 38, 127
7, 45330, Note_on_c, 9, 38, 100
7, 45330, Note_on_c, 9, 38, 0
7, 45360, Note_on_c, 9, 42, 90
7, 45360, Note_on_c, 9, 38, 0
7, 45390, Note_on_c, 9, 35, 127
7, 45390, Note_on_c, 9, 42, 0
7, 45420, Note_on_c, 9, 38, 127
7, 45420, Note_on_c, 9, 35, 0
7, 45450, Note_on_c, 9, 38, 115
7, 45450, Note_on_c, 9, 38, 0
7, 45480, Note_on_c, 9, 38, 127
7, 45480, Note_on_c, 9, 42, 90
7, 45480, Note_on_c, 9, 38, 0
7, 45510, Note_on_c, 9, 45, 127
7, 45510, Note_on_c, 9, 42, 0
7, 45510, Note_on_c, 9, 38, 0
7, 45540, Note_on_c, 9, 41, 127
7, 45540, Note_on_c, 9, 45, 0
7, 45570, Note_on_c, 9, 41, 0
7, 45600, Note_on_c, 9, 35, 127
7, 45600, Note_on_c, 9, 51, 127
7, 45600, Note_on_c, 9, 49, 127
7, 45600, Note_on_c, 9, 54, 80
7, 45630, Note_on_c, 9, 54, 0
7, 45630, Note_on_c, 9, 35, 0
7, 45630, Note_on_c, 9, 51, 0
7, 45630, Note_on_c, 9, 49, 0
7, 45660, Note_on_c, 9, 35, 115
7, 45660, Note_on_c, 9, 54, 90
7, 45690, Note_on_c, 9, 54, 0
7, 45690, Note_on_c, 9, 35, 0
7, 45720, Note_on_c, 9, 38, 127
7, 45720, Note_on_c, 9, 51, 115
7, 45720, Note_on_c, 9, 54, 127
7, 45750, Note_on_c, 9, 54, 0
7, 45750, Note_on_c, 9, 51, 0
7, 45750, Note_on_c, 9, 38, 0
7, 45780, Note_on_c, 9, 35, 100
7, 45780, Note_on_c, 9, 54, 80
7, 45810, Note_on_c, 9, 54, 0
7, 45810, Note_on_c, 9, 35, 0
7, 45840, Note_on_c, 9, 35, 127
7, 45840, Note_on_c, 9, 51, 127
7, 45840, Note_on_c, 9, 54, 100
7, 45870, Note_on_c, 9, 54, 0
7, 45870, Note_on_c, 9, 51, 0
7, 45870, Note_on_c, 9, 35, 0
7, 45900, Note_on_c, 9, 35, 115
7, 45900, Note_on_c, 9, 54, 90
7, 45930, Note_on_c, 9, 54, 0
7, 45930, Note_on_c, 9, 35, 0
7, 45960, Note_on_c, 9, 38, 127
7, 45960, Note_on_c, 9, 51, 115
7, 45960, Note_on_c, 9, 54, 127
7, 45990, Note_on_c, 9, 54, 0
7, 45990, Note_on_c, 9, 51, 0
7, 45990, Note_on_c, 9, 38, 0
7, 46020, Note_on_c, 9, 35, 100
7, 46020, Note_on_c, 9, 54, 90
7, 46050, Note_on_c, 9, 54, 0
7, 46050, Note_on_c, 9, 35, 0
7, 46080, Note_on_c, 9, 38, 127
7, 46080, Note_on_c, 9, 42, 90
7, 46110, Note_on_c, 9, 38, 100
7, 46110, Note_on_c, 9, 42, 0
7, 46110, Note_on_c, 9, 38, 0
7, 46140, Note_on_c, 9, 38, 0
7, 46170, Note_on_c, 9, 38, 127
7, 46200, Note_on_c, 9, 38, 100
7, 46200, Note_on_c, 9, 42, 90
7, 46200, Note_on_c, 9, 38, 0
7, 46230, Note_on_c, 9, 42, 0
7, 46230, Note_on_c, 9, 38, 0
7, 46260, Note_on_c, 9, 38, 127
7, 46290, Note_on_c, 9, 38, 100
7, 46290, Note_on_c, 9, 38, 0
7, 46320, Note_on_c, 9, 42, 90
7, 46320, Note_on_c, 9, 38, 0
7, 46350, Note_on_c, 9, 35, 127
7, 46350, Note_on_c, 9, 42, 0
7, 46380, Note_on_c, 9, 38, 127
7, 46380, Note_on_c, 9, 35, 0
7, 46410, Note_on_c, 9, 38, 115
7, 46410, Note_on_c, 9, 38, 0
7, 46440, Note_on_c, 9, 38, 127
7, 46440, Note_on_c, 9, 42, 90
7, 46440, Note_on_c, 9, 38, 0
7, 46470, Note_on_c, 9, 45, 127
7, 46470, Note_on_c, 9, 42, 0
7, 46470, Note_on_c, 9, 38, 0
7, 46500, Note_on_c, 9, 41, 127
7, 46500, Note_on_c, 9, 45, 0
7, 46530, Note_on_c, 9, 41, 0
7, 46560, Note_on_c, 9, 35, 127
7, 46560, Note_on_c, 9, 46, 100
7, 46560, Note_on_c, 9, 49, 127
7, 46590, Note_on_c, 9, 49, 0
7, 46590, Note_on_c, 9, 46, 0
7, 46590, Note_on_c, 9, 35, 0
7, 46680, Note_on_c, 9, 38, 115
7, 46680, Note_on_c, 9, 46, 100
7, 46710, Note_on_c, 9, 46, 0
7, 46710, Note_on_c, 9, 38, 0
7, 46740, Note_on_c, 9, 35, 100
7, 46770, Note_on_c, 9, 35, 0
7, 46800, Note_on_c, 9, 35, 127
7, 46800, Note_on_c, 9, 46, 100
7, 46830, Note_on_c, 9, 46, 0
7, 46830, Note_on_c, 9, 35, 0
7, 46920, Note_on_c, 9, 38, 115
7, 46920, Note_on_c, 9, 46, 100
7, 46950, Note_on_c, 9, 46, 0
7, 46950, Note_on_c, 9, 38, 0
7, 46980, Note_on_c, 9, 35, 127
7, 47010, Note_on_c, 9, 35, 100
7, 47010, Note_on_c, 9, 35, 0
7, 47040, Note_on_c, 9, 38, 127
7, 47040, Note_on_c, 9, 35, 0
7, 47070, Note_on_c, 9, 38, 0
7, 47100, Note_on_c, 9, 41, 115
7, 47100, Note_on_c, 9, 45, 100
7, 47130, Note_on_c, 9, 45, 0
7, 47130, Note_on_c, 9, 41, 0
7, 47160, Note_on_c, 9, 35, 127
7, 47190, Note_on_c, 9, 35, 0
7, 47220, Note_on_c, 9, 38, 127
7, 47250, Note_on_c, 9, 38, 0
7, 47340, Note_on_c, 9, 35, 127
7, 47370, Note_on_c, 9, 35, 115
7, 47370, Note_on_c, 9, 35, 0
7, 47400, Note_on_c, 9, 35, 127
7, 47400, Note_on_c, 9, 38, 127
7, 47400, Note_on_c, 9, 49, 127
7, 47400, Note_on_c, 9, 35, 0
7, 47430, Note_on_c, 9, 35, 0
7, 47430, Note_on_c, 9, 38, 0
7, 47430, Note_on_c, 9, 49, 0
7, 47430, End_track
8, 0, Start_track
8, 0, MIDI_port, 0
8, 0, Title_t, "midi by Wm. Marshall"
8, 0, End_track
0, 0, End_of_file
