0, 0, Header, 1, 9, 480
1, 0, Start_track
1, 0, Title_t, "06-david_bowie_1980-teenage_wildlife"
1, 0, Time_signature, 4, 2, 24, 8
1, 0, Tempo, 399333
1, 480, Tempo, 557619
1, 480, End_track
2, 0, Start_track
2, 0, Title_t, "Alomar"
2, 1, Text_t, "@LENGL"
2, 2, Text_t, "@TTeenage Wildlife"
2, 3, Text_t, "@TDavid Bowie - 1980"
2, 4, Text_t, "@TSequence : GuitarPro file Tab by breakingglass27"
2, 5, Text_t, "@Thttp://profile.ultimate-guitar.com/breakingglass27/"
2, 7, Text_t, "@T(breakingglass27@gmail.com)"
2, 9, Text_t, "@TGM Format by Th. Leroy / 2011"
2, 11, Text_t, "@Thttp://www.rppmf.com/david_bowie.htm"
2, 60, Control_c, 0, 121, 0
2, 60, Control_c, 0, 123, 0
2, 60, Control_c, 0, 100, 0
2, 60, Control_c, 0, 38, 0
2, 60, Control_c, 0, 101, 0
2, 60, Control_c, 0, 6, 12
2, 60, Pitch_bend_c, 0, 8192
2, 120, Program_c, 0, 29
2, 120, Control_c, 0, 7, 104
2, 120, Control_c, 0, 10, 24
2, 1920, Note_on_c, 0, 60, 88
2, 2320, Pitch_bend_c, 0, 8064
2, 2336, Pitch_bend_c, 0, 7808
2, 2352, Pitch_bend_c, 0, 7680
2, 2384, Pitch_bend_c, 0, 7552
2, 2432, Pitch_bend_c, 0, 7680
2, 2464, Pitch_bend_c, 0, 7808
2, 2480, Pitch_bend_c, 0, 8064
2, 2496, Pitch_bend_c, 0, 8192
2, 2800, Pitch_bend_c, 0, 8064
2, 2816, Pitch_bend_c, 0, 7808
2, 2832, Pitch_bend_c, 0, 7680
2, 2864, Pitch_bend_c, 0, 7552
2, 2912, Pitch_bend_c, 0, 7680
2, 2944, Pitch_bend_c, 0, 7808
2, 2960, Pitch_bend_c, 0, 8064
2, 2976, Pitch_bend_c, 0, 8192
2, 3280, Pitch_bend_c, 0, 8064
2, 3296, Pitch_bend_c, 0, 7808
2, 3312, Pitch_bend_c, 0, 7680
2, 3344, Pitch_bend_c, 0, 7552
2, 3392, Pitch_bend_c, 0, 7680
2, 3424, Pitch_bend_c, 0, 7808
2, 3440, Pitch_bend_c, 0, 8064
2, 3456, Pitch_bend_c, 0, 8192
2, 3760, Pitch_bend_c, 0, 8064
2, 3776, Pitch_bend_c, 0, 7808
2, 3792, Pitch_bend_c, 0, 7680
2, 3824, Pitch_bend_c, 0, 7552
2, 3872, Pitch_bend_c, 0, 7680
2, 3904, Pitch_bend_c, 0, 7808
2, 3920, Pitch_bend_c, 0, 8064
2, 3936, Pitch_bend_c, 0, 8192
2, 4240, Pitch_bend_c, 0, 8064
2, 4256, Pitch_bend_c, 0, 7808
2, 4272, Pitch_bend_c, 0, 7680
2, 4304, Pitch_bend_c, 0, 7552
2, 4352, Pitch_bend_c, 0, 7680
2, 4384, Pitch_bend_c, 0, 7808
2, 4400, Pitch_bend_c, 0, 8064
2, 4416, Pitch_bend_c, 0, 8192
2, 4790, Note_off_c, 0, 60, 80
2, 4800, Note_on_c, 0, 60, 88
2, 4832, Pitch_bend_c, 0, 8320
2, 4864, Pitch_bend_c, 0, 8448
2, 4880, Pitch_bend_c, 0, 8576
2, 4896, Pitch_bend_c, 0, 8704
2, 4912, Pitch_bend_c, 0, 8832
2, 5072, Pitch_bend_c, 0, 8704
2, 5088, Pitch_bend_c, 0, 8576
2, 5104, Pitch_bend_c, 0, 8320
2, 5136, Pitch_bend_c, 0, 8192
2, 5270, Note_off_c, 0, 60, 80
2, 5280, Note_on_c, 0, 58, 88
2, 5510, Note_off_c, 0, 58, 80
2, 5520, Note_on_c, 0, 58, 88
2, 5990, Note_off_c, 0, 58, 80
2, 6000, Note_on_c, 0, 60, 88
2, 6230, Note_off_c, 0, 60, 80
2, 6240, Note_on_c, 0, 56, 88
2, 7910, Note_off_c, 0, 56, 80
2, 7920, Note_on_c, 0, 58, 88
2, 8030, Note_off_c, 0, 58, 80
2, 8040, Note_on_c, 0, 56, 88
2, 8150, Note_off_c, 0, 56, 80
2, 8160, Note_on_c, 0, 58, 88
2, 8270, Note_off_c, 0, 58, 80
2, 8280, Note_on_c, 0, 56, 88
2, 8390, Note_off_c, 0, 56, 80
2, 8400, Note_on_c, 0, 58, 88
2, 8510, Note_off_c, 0, 58, 80
2, 8520, Note_on_c, 0, 56, 88
2, 8630, Note_off_c, 0, 56, 80
2, 8640, Note_on_c, 0, 58, 88
2, 8750, Note_off_c, 0, 58, 80
2, 8760, Note_on_c, 0, 56, 88
2, 8870, Note_off_c, 0, 56, 80
2, 8880, Note_on_c, 0, 58, 88
2, 8990, Note_off_c, 0, 58, 80
2, 9000, Note_on_c, 0, 56, 88
2, 9110, Note_off_c, 0, 56, 80
2, 9120, Note_on_c, 0, 58, 88
2, 9230, Note_off_c, 0, 58, 80
2, 9240, Note_on_c, 0, 56, 88
2, 9350, Note_off_c, 0, 56, 80
2, 9360, Note_on_c, 0, 58, 88
2, 9470, Note_off_c, 0, 58, 80
2, 9480, Note_on_c, 0, 56, 88
2, 9590, Note_off_c, 0, 56, 80
2, 9600, Note_on_c, 0, 60, 88
2, 12470, Note_off_c, 0, 60, 80
2, 12480, Note_on_c, 0, 60, 88
2, 12512, Pitch_bend_c, 0, 8320
2, 12544, Pitch_bend_c, 0, 8448
2, 12560, Pitch_bend_c, 0, 8576
2, 12576, Pitch_bend_c, 0, 8704
2, 12592, Pitch_bend_c, 0, 8832
2, 12752, Pitch_bend_c, 0, 8704
2, 12768, Pitch_bend_c, 0, 8576
2, 12784, Pitch_bend_c, 0, 8320
2, 12816, Pitch_bend_c, 0, 8192
2, 12950, Note_off_c, 0, 60, 80
2, 12960, Note_on_c, 0, 58, 88
2, 13190, Note_off_c, 0, 58, 80
2, 13200, Note_on_c, 0, 60, 88
2, 13264, Pitch_bend_c, 0, 8320
2, 13328, Pitch_bend_c, 0, 8448
2, 13376, Pitch_bend_c, 0, 8576
2, 13408, Pitch_bend_c, 0, 8704
2, 13440, Pitch_bend_c, 0, 8832
2, 13840, Pitch_bend_c, 0, 8704
2, 13856, Pitch_bend_c, 0, 8576
2, 13872, Pitch_bend_c, 0, 8448
2, 13904, Pitch_bend_c, 0, 8320
2, 13936, Pitch_bend_c, 0, 8192
2, 13984, Pitch_bend_c, 0, 8320
2, 14016, Pitch_bend_c, 0, 8448
2, 14032, Pitch_bend_c, 0, 8576
2, 14048, Pitch_bend_c, 0, 8704
2, 14064, Pitch_bend_c, 0, 8832
2, 14320, Pitch_bend_c, 0, 8704
2, 14336, Pitch_bend_c, 0, 8576
2, 14352, Pitch_bend_c, 0, 8448
2, 14368, Pitch_bend_c, 0, 8320
2, 14400, Pitch_bend_c, 0, 8192
2, 14464, Pitch_bend_c, 0, 8320
2, 14496, Pitch_bend_c, 0, 8448
2, 14512, Pitch_bend_c, 0, 8576
2, 14528, Pitch_bend_c, 0, 8704
2, 14544, Pitch_bend_c, 0, 8832
2, 14800, Pitch_bend_c, 0, 8704
2, 14816, Pitch_bend_c, 0, 8576
2, 14832, Pitch_bend_c, 0, 8448
2, 14848, Pitch_bend_c, 0, 8320
2, 14880, Pitch_bend_c, 0, 8192
2, 14944, Pitch_bend_c, 0, 8320
2, 15008, Pitch_bend_c, 0, 8448
2, 15024, Pitch_bend_c, 0, 8576
2, 15056, Pitch_bend_c, 0, 8704
2, 15072, Pitch_bend_c, 0, 8832
2, 15344, Pitch_bend_c, 0, 8704
2, 15360, Pitch_bend_c, 0, 8576
2, 15376, Pitch_bend_c, 0, 8448
2, 15392, Pitch_bend_c, 0, 8320
2, 15424, Pitch_bend_c, 0, 8192
2, 15472, Pitch_bend_c, 0, 8320
2, 15504, Pitch_bend_c, 0, 8448
2, 15536, Pitch_bend_c, 0, 8576
2, 15552, Pitch_bend_c, 0, 8704
2, 15568, Pitch_bend_c, 0, 8832
2, 15888, Pitch_bend_c, 0, 8704
2, 15904, Pitch_bend_c, 0, 8576
2, 15920, Pitch_bend_c, 0, 8448
2, 15936, Pitch_bend_c, 0, 8320
2, 15968, Pitch_bend_c, 0, 8192
2, 16016, Pitch_bend_c, 0, 8320
2, 16048, Pitch_bend_c, 0, 8448
2, 16080, Pitch_bend_c, 0, 8576
2, 16096, Pitch_bend_c, 0, 8704
2, 16112, Pitch_bend_c, 0, 8832
2, 16432, Pitch_bend_c, 0, 8704
2, 16448, Pitch_bend_c, 0, 8576
2, 16464, Pitch_bend_c, 0, 8448
2, 16480, Pitch_bend_c, 0, 8320
2, 16512, Pitch_bend_c, 0, 8192
2, 16560, Pitch_bend_c, 0, 8320
2, 16592, Pitch_bend_c, 0, 8448
2, 16624, Pitch_bend_c, 0, 8576
2, 16640, Pitch_bend_c, 0, 8704
2, 16656, Pitch_bend_c, 0, 8832
2, 16976, Pitch_bend_c, 0, 8704
2, 16992, Pitch_bend_c, 0, 8576
2, 17008, Pitch_bend_c, 0, 8448
2, 17024, Pitch_bend_c, 0, 8320
2, 17056, Pitch_bend_c, 0, 8192
2, 17120, Pitch_bend_c, 0, 8320
2, 17184, Pitch_bend_c, 0, 8448
2, 17200, Pitch_bend_c, 0, 8576
2, 17232, Pitch_bend_c, 0, 8704
2, 17248, Pitch_bend_c, 0, 8832
2, 17270, Note_off_c, 0, 60, 80
2, 17280, Pitch_bend_c, 0, 8192
2, 17280, Note_on_c, 0, 60, 88
2, 20150, Note_off_c, 0, 60, 80
2, 20160, Note_on_c, 0, 60, 88
2, 20192, Pitch_bend_c, 0, 8320
2, 20224, Pitch_bend_c, 0, 8448
2, 20240, Pitch_bend_c, 0, 8576
2, 20256, Pitch_bend_c, 0, 8704
2, 20272, Pitch_bend_c, 0, 8832
2, 20432, Pitch_bend_c, 0, 8704
2, 20448, Pitch_bend_c, 0, 8576
2, 20464, Pitch_bend_c, 0, 8320
2, 20496, Pitch_bend_c, 0, 8192
2, 20630, Note_off_c, 0, 60, 80
2, 20640, Note_on_c, 0, 58, 88
2, 20870, Note_off_c, 0, 58, 80
2, 20880, Note_on_c, 0, 58, 88
2, 21350, Note_off_c, 0, 58, 80
2, 21360, Note_on_c, 0, 60, 88
2, 21590, Note_off_c, 0, 60, 80
2, 21600, Note_on_c, 0, 56, 88
2, 24950, Note_off_c, 0, 56, 80
2, 24960, Note_on_c, 0, 60, 88
2, 27830, Note_off_c, 0, 60, 80
2, 27840, Note_on_c, 0, 60, 88
2, 27872, Pitch_bend_c, 0, 8320
2, 27904, Pitch_bend_c, 0, 8448
2, 27920, Pitch_bend_c, 0, 8576
2, 27936, Pitch_bend_c, 0, 8704
2, 27952, Pitch_bend_c, 0, 8832
2, 28112, Pitch_bend_c, 0, 8704
2, 28128, Pitch_bend_c, 0, 8576
2, 28144, Pitch_bend_c, 0, 8320
2, 28176, Pitch_bend_c, 0, 8192
2, 28310, Note_off_c, 0, 60, 80
2, 28320, Note_on_c, 0, 58, 88
2, 28550, Note_off_c, 0, 58, 80
2, 28560, Note_on_c, 0, 60, 88
2, 28624, Pitch_bend_c, 0, 8320
2, 28688, Pitch_bend_c, 0, 8448
2, 28736, Pitch_bend_c, 0, 8576
2, 28768, Pitch_bend_c, 0, 8704
2, 28800, Pitch_bend_c, 0, 8832
2, 32630, Note_off_c, 0, 60, 80
2, 32640, Pitch_bend_c, 0, 8192
2, 32640, Program_c, 0, 27
2, 32640, Note_on_c, 0, 56, 88
2, 33120, Note_on_c, 0, 68, 88
2, 33120, Note_on_c, 0, 77, 88
2, 33590, Note_off_c, 0, 68, 80
2, 33590, Note_off_c, 0, 77, 80
2, 33600, Note_on_c, 0, 68, 88
2, 33600, Note_on_c, 0, 77, 88
2, 34550, Note_off_c, 0, 56, 80
2, 34550, Note_off_c, 0, 68, 80
2, 34550, Note_off_c, 0, 77, 80
2, 34560, Note_on_c, 0, 60, 88
2, 34790, Note_off_c, 0, 60, 80
2, 34800, Note_on_c, 0, 60, 88
2, 35030, Note_off_c, 0, 60, 80
2, 35040, Note_on_c, 0, 68, 88
2, 35040, Note_on_c, 0, 77, 88
2, 35270, Note_off_c, 0, 68, 80
2, 35270, Note_off_c, 0, 77, 80
2, 35280, Note_on_c, 0, 60, 88
2, 35510, Note_off_c, 0, 60, 80
2, 35520, Note_on_c, 0, 67, 88
2, 35520, Note_on_c, 0, 75, 88
2, 36470, Note_off_c, 0, 67, 80
2, 36470, Note_off_c, 0, 75, 80
2, 36480, Note_on_c, 0, 63, 88
2, 36710, Note_off_c, 0, 63, 80
2, 36720, Note_on_c, 0, 63, 88
2, 36950, Note_off_c, 0, 63, 80
2, 36960, Note_on_c, 0, 61, 88
2, 36960, Note_on_c, 0, 70, 88
2, 37430, Note_off_c, 0, 61, 80
2, 37430, Note_off_c, 0, 70, 80
2, 37440, Note_on_c, 0, 60, 88
2, 37440, Note_on_c, 0, 68, 88
2, 38390, Note_off_c, 0, 60, 80
2, 38390, Note_off_c, 0, 68, 80
2, 38400, Note_on_c, 0, 63, 88
2, 38400, Note_on_c, 0, 72, 43
2, 38630, Note_off_c, 0, 63, 80
2, 38630, Note_off_c, 0, 72, 80
2, 38640, Note_on_c, 0, 63, 88
2, 38640, Note_on_c, 0, 72, 88
2, 38870, Note_off_c, 0, 63, 80
2, 38870, Note_off_c, 0, 72, 80
2, 38880, Note_on_c, 0, 61, 88
2, 38880, Note_on_c, 0, 70, 88
2, 39350, Note_off_c, 0, 61, 80
2, 39350, Note_off_c, 0, 70, 80
2, 39360, Note_on_c, 0, 60, 88
2, 39360, Note_on_c, 0, 68, 88
2, 40310, Note_off_c, 0, 60, 80
2, 40310, Note_off_c, 0, 68, 80
2, 40320, Note_on_c, 0, 56, 88
2, 40800, Note_on_c, 0, 68, 88
2, 40800, Note_on_c, 0, 77, 88
2, 41270, Note_off_c, 0, 68, 80
2, 41270, Note_off_c, 0, 77, 80
2, 41280, Note_on_c, 0, 68, 88
2, 41280, Note_on_c, 0, 77, 88
2, 42230, Note_off_c, 0, 56, 80
2, 42230, Note_off_c, 0, 68, 80
2, 42230, Note_off_c, 0, 77, 80
2, 42240, Note_on_c, 0, 60, 88
2, 42470, Note_off_c, 0, 60, 80
2, 42480, Note_on_c, 0, 60, 88
2, 42710, Note_off_c, 0, 60, 80
2, 42720, Note_on_c, 0, 68, 88
2, 42720, Note_on_c, 0, 77, 88
2, 42950, Note_off_c, 0, 68, 80
2, 42950, Note_off_c, 0, 77, 80
2, 42960, Note_on_c, 0, 60, 88
2, 43190, Note_off_c, 0, 60, 80
2, 43200, Note_on_c, 0, 67, 88
2, 43200, Note_on_c, 0, 75, 88
2, 44150, Note_off_c, 0, 67, 80
2, 44150, Note_off_c, 0, 75, 80
2, 44160, Note_on_c, 0, 63, 88
2, 44390, Note_off_c, 0, 63, 80
2, 44400, Note_on_c, 0, 63, 88
2, 44630, Note_off_c, 0, 63, 80
2, 44640, Note_on_c, 0, 61, 88
2, 44640, Note_on_c, 0, 70, 88
2, 45110, Note_off_c, 0, 61, 80
2, 45110, Note_off_c, 0, 70, 80
2, 45120, Note_on_c, 0, 60, 88
2, 45120, Note_on_c, 0, 68, 88
2, 46070, Note_off_c, 0, 60, 80
2, 46070, Note_off_c, 0, 68, 80
2, 46080, Note_on_c, 0, 63, 88
2, 46080, Note_on_c, 0, 72, 43
2, 46310, Note_off_c, 0, 63, 80
2, 46310, Note_off_c, 0, 72, 80
2, 46320, Note_on_c, 0, 63, 88
2, 46320, Note_on_c, 0, 72, 88
2, 46550, Note_off_c, 0, 63, 80
2, 46550, Note_off_c, 0, 72, 80
2, 46560, Note_on_c, 0, 61, 88
2, 46560, Note_on_c, 0, 70, 88
2, 47030, Note_off_c, 0, 61, 80
2, 47030, Note_off_c, 0, 70, 80
2, 47040, Note_on_c, 0, 60, 88
2, 47040, Note_on_c, 0, 68, 88
2, 47990, Note_off_c, 0, 60, 80
2, 47990, Note_off_c, 0, 68, 80
2, 48000, Note_on_c, 0, 56, 88
2, 48480, Note_on_c, 0, 68, 88
2, 48480, Note_on_c, 0, 77, 88
2, 48950, Note_off_c, 0, 68, 80
2, 48950, Note_off_c, 0, 77, 80
2, 48960, Note_on_c, 0, 68, 88
2, 48960, Note_on_c, 0, 77, 88
2, 49910, Note_off_c, 0, 56, 80
2, 49910, Note_off_c, 0, 68, 80
2, 49910, Note_off_c, 0, 77, 80
2, 49920, Note_on_c, 0, 60, 88
2, 50150, Note_off_c, 0, 60, 80
2, 50160, Note_on_c, 0, 60, 88
2, 50390, Note_off_c, 0, 60, 80
2, 50400, Note_on_c, 0, 68, 88
2, 50400, Note_on_c, 0, 77, 88
2, 50630, Note_off_c, 0, 68, 80
2, 50630, Note_off_c, 0, 77, 80
2, 50640, Note_on_c, 0, 60, 88
2, 50870, Note_off_c, 0, 60, 80
2, 50880, Note_on_c, 0, 67, 88
2, 50880, Note_on_c, 0, 75, 88
2, 51830, Note_off_c, 0, 67, 80
2, 51830, Note_off_c, 0, 75, 80
2, 51840, Note_on_c, 0, 63, 88
2, 52070, Note_off_c, 0, 63, 80
2, 52080, Note_on_c, 0, 63, 88
2, 52310, Note_off_c, 0, 63, 80
2, 52320, Note_on_c, 0, 63, 88
2, 52320, Note_on_c, 0, 72, 88
2, 52550, Note_off_c, 0, 63, 80
2, 52550, Note_off_c, 0, 72, 80
2, 52560, Note_on_c, 0, 63, 88
2, 52790, Note_off_c, 0, 63, 80
2, 52800, Note_on_c, 0, 67, 88
2, 52800, Note_on_c, 0, 70, 88
2, 53510, Note_off_c, 0, 67, 80
2, 53510, Note_off_c, 0, 70, 80
2, 53520, Note_on_c, 0, 63, 88
2, 53750, Note_off_c, 0, 63, 80
2, 53760, Note_on_c, 0, 63, 88
2, 53990, Note_off_c, 0, 63, 80
2, 54000, Note_on_c, 0, 63, 88
2, 54230, Note_off_c, 0, 63, 80
2, 54240, Note_on_c, 0, 67, 88
2, 54240, Note_on_c, 0, 72, 88
2, 54470, Note_off_c, 0, 67, 80
2, 54470, Note_off_c, 0, 72, 80
2, 54480, Note_on_c, 0, 63, 88
2, 54710, Note_off_c, 0, 63, 80
2, 54720, Note_on_c, 0, 65, 88
2, 54720, Note_on_c, 0, 70, 88
2, 55670, Note_off_c, 0, 65, 80
2, 55670, Note_off_c, 0, 70, 80
2, 55680, Program_c, 0, 29
2, 55680, Control_c, 0, 7, 64
2, 55680, Note_on_c, 0, 42, 88
2, 55680, Note_on_c, 0, 49, 88
2, 55680, Note_on_c, 0, 54, 88
2, 55910, Note_off_c, 0, 42, 80
2, 55910, Note_off_c, 0, 49, 80
2, 55910, Note_off_c, 0, 54, 80
2, 55920, Note_on_c, 0, 42, 88
2, 55920, Note_on_c, 0, 49, 88
2, 55920, Note_on_c, 0, 54, 88
2, 56150, Note_off_c, 0, 42, 80
2, 56150, Note_off_c, 0, 49, 80
2, 56150, Note_off_c, 0, 54, 80
2, 56160, Note_on_c, 0, 42, 88
2, 56160, Note_on_c, 0, 49, 88
2, 56160, Note_on_c, 0, 54, 88
2, 56390, Note_off_c, 0, 42, 80
2, 56390, Note_off_c, 0, 49, 80
2, 56390, Note_off_c, 0, 54, 80
2, 56400, Note_on_c, 0, 42, 88
2, 56400, Note_on_c, 0, 49, 88
2, 56400, Note_on_c, 0, 54, 88
2, 57350, Note_off_c, 0, 42, 80
2, 57350, Note_off_c, 0, 49, 80
2, 57350, Note_off_c, 0, 54, 80
2, 57360, Note_on_c, 0, 42, 88
2, 57360, Note_on_c, 0, 49, 88
2, 57360, Note_on_c, 0, 54, 88
2, 57590, Note_off_c, 0, 42, 80
2, 57590, Note_off_c, 0, 49, 80
2, 57590, Note_off_c, 0, 54, 80
2, 57600, Note_on_c, 0, 42, 88
2, 57600, Note_on_c, 0, 49, 88
2, 57600, Note_on_c, 0, 54, 88
2, 57830, Note_off_c, 0, 42, 80
2, 57830, Note_off_c, 0, 49, 80
2, 57830, Note_off_c, 0, 54, 80
2, 57840, Note_on_c, 0, 42, 88
2, 57840, Note_on_c, 0, 49, 88
2, 57840, Note_on_c, 0, 54, 88
2, 58070, Note_off_c, 0, 42, 80
2, 58070, Note_off_c, 0, 49, 80
2, 58070, Note_off_c, 0, 54, 80
2, 58080, Note_on_c, 0, 42, 88
2, 58080, Note_on_c, 0, 49, 88
2, 58080, Note_on_c, 0, 54, 88
2, 58310, Note_off_c, 0, 42, 80
2, 58310, Note_off_c, 0, 49, 80
2, 58310, Note_off_c, 0, 54, 80
2, 58320, Note_on_c, 0, 42, 88
2, 58320, Note_on_c, 0, 49, 88
2, 58320, Note_on_c, 0, 54, 88
2, 58550, Note_off_c, 0, 42, 80
2, 58550, Note_off_c, 0, 49, 80
2, 58550, Note_off_c, 0, 54, 80
2, 58560, Note_on_c, 0, 42, 88
2, 58560, Note_on_c, 0, 49, 88
2, 58560, Note_on_c, 0, 54, 88
2, 59510, Note_off_c, 0, 42, 80
2, 59510, Note_off_c, 0, 49, 80
2, 59510, Note_off_c, 0, 54, 80
2, 59520, Note_on_c, 0, 49, 88
2, 59520, Note_on_c, 0, 56, 88
2, 59520, Note_on_c, 0, 61, 88
2, 60230, Note_off_c, 0, 49, 80
2, 60230, Note_off_c, 0, 56, 80
2, 60230, Note_off_c, 0, 61, 80
2, 60240, Note_on_c, 0, 49, 88
2, 60240, Note_on_c, 0, 56, 88
2, 60240, Note_on_c, 0, 61, 88
2, 60470, Note_off_c, 0, 49, 80
2, 60470, Note_off_c, 0, 56, 80
2, 60470, Note_off_c, 0, 61, 80
2, 60480, Note_on_c, 0, 49, 88
2, 60480, Note_on_c, 0, 56, 88
2, 60480, Note_on_c, 0, 61, 88
2, 61430, Note_off_c, 0, 49, 80
2, 61430, Note_off_c, 0, 56, 80
2, 61430, Note_off_c, 0, 61, 80
2, 61440, Note_on_c, 0, 44, 88
2, 61440, Note_on_c, 0, 51, 88
2, 61440, Note_on_c, 0, 56, 88
2, 61670, Note_off_c, 0, 44, 80
2, 61670, Note_off_c, 0, 51, 80
2, 61670, Note_off_c, 0, 56, 80
2, 61680, Note_on_c, 0, 44, 88
2, 61680, Note_on_c, 0, 51, 88
2, 61680, Note_on_c, 0, 56, 88
2, 61910, Note_off_c, 0, 44, 80
2, 61910, Note_off_c, 0, 51, 80
2, 61910, Note_off_c, 0, 56, 80
2, 61920, Note_on_c, 0, 44, 88
2, 61920, Note_on_c, 0, 51, 88
2, 61920, Note_on_c, 0, 56, 88
2, 62150, Note_off_c, 0, 44, 80
2, 62150, Note_off_c, 0, 51, 80
2, 62150, Note_off_c, 0, 56, 80
2, 62160, Note_on_c, 0, 44, 88
2, 62160, Note_on_c, 0, 51, 88
2, 62160, Note_on_c, 0, 56, 88
2, 63110, Note_off_c, 0, 44, 80
2, 63110, Note_off_c, 0, 51, 80
2, 63110, Note_off_c, 0, 56, 80
2, 63120, Note_on_c, 0, 44, 88
2, 63120, Note_on_c, 0, 51, 88
2, 63120, Note_on_c, 0, 56, 88
2, 63350, Note_off_c, 0, 44, 80
2, 63350, Note_off_c, 0, 51, 80
2, 63350, Note_off_c, 0, 56, 80
2, 63360, Note_on_c, 0, 51, 88
2, 63360, Note_on_c, 0, 58, 88
2, 63360, Note_on_c, 0, 63, 88
2, 63830, Note_off_c, 0, 51, 80
2, 63830, Note_off_c, 0, 58, 80
2, 63830, Note_off_c, 0, 63, 80
2, 63840, Note_on_c, 0, 51, 88
2, 63840, Note_on_c, 0, 58, 88
2, 63840, Note_on_c, 0, 63, 88
2, 64070, Note_off_c, 0, 51, 80
2, 64070, Note_off_c, 0, 58, 80
2, 64070, Note_off_c, 0, 63, 80
2, 64080, Note_on_c, 0, 51, 88
2, 64080, Note_on_c, 0, 58, 88
2, 64080, Note_on_c, 0, 63, 88
2, 64310, Note_off_c, 0, 51, 80
2, 64310, Note_off_c, 0, 58, 80
2, 64310, Note_off_c, 0, 63, 80
2, 64320, Note_on_c, 0, 51, 88
2, 64320, Note_on_c, 0, 58, 88
2, 64320, Note_on_c, 0, 63, 88
2, 64550, Note_off_c, 0, 51, 80
2, 64550, Note_off_c, 0, 58, 80
2, 64550, Note_off_c, 0, 63, 80
2, 64560, Note_on_c, 0, 51, 88
2, 64560, Note_on_c, 0, 58, 88
2, 64560, Note_on_c, 0, 63, 88
2, 64790, Note_off_c, 0, 51, 80
2, 64790, Note_off_c, 0, 58, 80
2, 64790, Note_off_c, 0, 63, 80
2, 64800, Note_on_c, 0, 51, 88
2, 64800, Note_on_c, 0, 58, 88
2, 64800, Note_on_c, 0, 63, 88
2, 65030, Note_off_c, 0, 51, 80
2, 65030, Note_off_c, 0, 58, 80
2, 65030, Note_off_c, 0, 63, 80
2, 65040, Note_on_c, 0, 51, 88
2, 65040, Note_on_c, 0, 58, 88
2, 65040, Note_on_c, 0, 63, 88
2, 65750, Note_off_c, 0, 51, 80
2, 65750, Note_off_c, 0, 58, 80
2, 65750, Note_off_c, 0, 63, 80
2, 65760, Note_on_c, 0, 51, 88
2, 65760, Note_on_c, 0, 58, 88
2, 65760, Note_on_c, 0, 63, 88
2, 65990, Note_off_c, 0, 51, 80
2, 65990, Note_off_c, 0, 58, 80
2, 65990, Note_off_c, 0, 63, 80
2, 66000, Note_on_c, 0, 51, 88
2, 66000, Note_on_c, 0, 58, 88
2, 66000, Note_on_c, 0, 63, 88
2, 66230, Note_off_c, 0, 51, 80
2, 66230, Note_off_c, 0, 58, 80
2, 66230, Note_off_c, 0, 63, 80
2, 66240, Note_on_c, 0, 51, 88
2, 66240, Note_on_c, 0, 58, 88
2, 66240, Note_on_c, 0, 63, 88
2, 66470, Note_off_c, 0, 51, 80
2, 66470, Note_off_c, 0, 58, 80
2, 66470, Note_off_c, 0, 63, 80
2, 66480, Note_on_c, 0, 51, 88
2, 66480, Note_on_c, 0, 58, 88
2, 66480, Note_on_c, 0, 63, 88
2, 66710, Note_off_c, 0, 51, 80
2, 66710, Note_off_c, 0, 58, 80
2, 66710, Note_off_c, 0, 63, 80
2, 66720, Note_on_c, 0, 51, 88
2, 66720, Note_on_c, 0, 58, 88
2, 66720, Note_on_c, 0, 63, 88
2, 66950, Note_off_c, 0, 51, 80
2, 66950, Note_off_c, 0, 58, 80
2, 66950, Note_off_c, 0, 63, 80
2, 66960, Note_on_c, 0, 51, 88
2, 66960, Note_on_c, 0, 58, 88
2, 66960, Note_on_c, 0, 63, 88
2, 67190, Note_off_c, 0, 51, 80
2, 67190, Note_off_c, 0, 58, 80
2, 67190, Note_off_c, 0, 63, 80
2, 67200, Note_on_c, 0, 42, 88
2, 67200, Note_on_c, 0, 49, 88
2, 67200, Note_on_c, 0, 54, 88
2, 67430, Note_off_c, 0, 42, 80
2, 67430, Note_off_c, 0, 49, 80
2, 67430, Note_off_c, 0, 54, 80
2, 67440, Note_on_c, 0, 42, 88
2, 67440, Note_on_c, 0, 49, 88
2, 67440, Note_on_c, 0, 54, 88
2, 67670, Note_off_c, 0, 42, 80
2, 67670, Note_off_c, 0, 49, 80
2, 67670, Note_off_c, 0, 54, 80
2, 67680, Note_on_c, 0, 42, 88
2, 67680, Note_on_c, 0, 49, 88
2, 67680, Note_on_c, 0, 54, 88
2, 67910, Note_off_c, 0, 42, 80
2, 67910, Note_off_c, 0, 49, 80
2, 67910, Note_off_c, 0, 54, 80
2, 67920, Note_on_c, 0, 42, 88
2, 67920, Note_on_c, 0, 49, 88
2, 67920, Note_on_c, 0, 54, 88
2, 68870, Note_off_c, 0, 42, 80
2, 68870, Note_off_c, 0, 49, 80
2, 68870, Note_off_c, 0, 54, 80
2, 68880, Note_on_c, 0, 42, 88
2, 68880, Note_on_c, 0, 49, 88
2, 68880, Note_on_c, 0, 54, 88
2, 69110, Note_off_c, 0, 42, 80
2, 69110, Note_off_c, 0, 49, 80
2, 69110, Note_off_c, 0, 54, 80
2, 69120, Note_on_c, 0, 42, 88
2, 69120, Note_on_c, 0, 49, 88
2, 69120, Note_on_c, 0, 54, 88
2, 69350, Note_off_c, 0, 42, 80
2, 69350, Note_off_c, 0, 49, 80
2, 69350, Note_off_c, 0, 54, 80
2, 69360, Note_on_c, 0, 42, 88
2, 69360, Note_on_c, 0, 49, 88
2, 69360, Note_on_c, 0, 54, 88
2, 69590, Note_off_c, 0, 42, 80
2, 69590, Note_off_c, 0, 49, 80
2, 69590, Note_off_c, 0, 54, 80
2, 69600, Note_on_c, 0, 42, 88
2, 69600, Note_on_c, 0, 49, 88
2, 69600, Note_on_c, 0, 54, 88
2, 69830, Note_off_c, 0, 42, 80
2, 69830, Note_off_c, 0, 49, 80
2, 69830, Note_off_c, 0, 54, 80
2, 69840, Note_on_c, 0, 42, 88
2, 69840, Note_on_c, 0, 49, 88
2, 69840, Note_on_c, 0, 54, 88
2, 70070, Note_off_c, 0, 42, 80
2, 70070, Note_off_c, 0, 49, 80
2, 70070, Note_off_c, 0, 54, 80
2, 70080, Note_on_c, 0, 42, 88
2, 70080, Note_on_c, 0, 49, 88
2, 70080, Note_on_c, 0, 54, 88
2, 71030, Note_off_c, 0, 42, 80
2, 71030, Note_off_c, 0, 49, 80
2, 71030, Note_off_c, 0, 54, 80
2, 71040, Note_on_c, 0, 49, 88
2, 71040, Note_on_c, 0, 56, 88
2, 71040, Note_on_c, 0, 61, 88
2, 71750, Note_off_c, 0, 49, 80
2, 71750, Note_off_c, 0, 56, 80
2, 71750, Note_off_c, 0, 61, 80
2, 71760, Note_on_c, 0, 49, 88
2, 71760, Note_on_c, 0, 56, 88
2, 71760, Note_on_c, 0, 61, 88
2, 71990, Note_off_c, 0, 49, 80
2, 71990, Note_off_c, 0, 56, 80
2, 71990, Note_off_c, 0, 61, 80
2, 72000, Note_on_c, 0, 49, 88
2, 72000, Note_on_c, 0, 56, 88
2, 72000, Note_on_c, 0, 61, 88
2, 72950, Note_off_c, 0, 49, 80
2, 72950, Note_off_c, 0, 56, 80
2, 72950, Note_off_c, 0, 61, 80
2, 72960, Note_on_c, 0, 44, 88
2, 72960, Note_on_c, 0, 51, 88
2, 72960, Note_on_c, 0, 56, 88
2, 73190, Note_off_c, 0, 44, 80
2, 73190, Note_off_c, 0, 51, 80
2, 73190, Note_off_c, 0, 56, 80
2, 73200, Note_on_c, 0, 44, 88
2, 73200, Note_on_c, 0, 51, 88
2, 73200, Note_on_c, 0, 56, 88
2, 73430, Note_off_c, 0, 44, 80
2, 73430, Note_off_c, 0, 51, 80
2, 73430, Note_off_c, 0, 56, 80
2, 73440, Note_on_c, 0, 44, 88
2, 73440, Note_on_c, 0, 51, 88
2, 73440, Note_on_c, 0, 56, 88
2, 73670, Note_off_c, 0, 44, 80
2, 73670, Note_off_c, 0, 51, 80
2, 73670, Note_off_c, 0, 56, 80
2, 73680, Note_on_c, 0, 44, 88
2, 73680, Note_on_c, 0, 51, 88
2, 73680, Note_on_c, 0, 56, 88
2, 74630, Note_off_c, 0, 44, 80
2, 74630, Note_off_c, 0, 51, 80
2, 74630, Note_off_c, 0, 56, 80
2, 74640, Note_on_c, 0, 44, 88
2, 74640, Note_on_c, 0, 51, 88
2, 74640, Note_on_c, 0, 56, 88
2, 74870, Note_off_c, 0, 44, 80
2, 74870, Note_off_c, 0, 51, 80
2, 74870, Note_off_c, 0, 56, 80
2, 74880, Note_on_c, 0, 51, 88
2, 74880, Note_on_c, 0, 58, 88
2, 74880, Note_on_c, 0, 63, 88
2, 75350, Note_off_c, 0, 51, 80
2, 75350, Note_off_c, 0, 58, 80
2, 75350, Note_off_c, 0, 63, 80
2, 75360, Note_on_c, 0, 51, 88
2, 75360, Note_on_c, 0, 58, 88
2, 75360, Note_on_c, 0, 63, 88
2, 75590, Note_off_c, 0, 51, 80
2, 75590, Note_off_c, 0, 58, 80
2, 75590, Note_off_c, 0, 63, 80
2, 75600, Note_on_c, 0, 51, 88
2, 75600, Note_on_c, 0, 58, 88
2, 75600, Note_on_c, 0, 63, 88
2, 75830, Note_off_c, 0, 51, 80
2, 75830, Note_off_c, 0, 58, 80
2, 75830, Note_off_c, 0, 63, 80
2, 75840, Note_on_c, 0, 51, 88
2, 75840, Note_on_c, 0, 58, 88
2, 75840, Note_on_c, 0, 63, 88
2, 76070, Note_off_c, 0, 51, 80
2, 76070, Note_off_c, 0, 58, 80
2, 76070, Note_off_c, 0, 63, 80
2, 76080, Note_on_c, 0, 51, 88
2, 76080, Note_on_c, 0, 58, 88
2, 76080, Note_on_c, 0, 63, 88
2, 76310, Note_off_c, 0, 51, 80
2, 76310, Note_off_c, 0, 58, 80
2, 76310, Note_off_c, 0, 63, 80
2, 76320, Note_on_c, 0, 51, 88
2, 76320, Note_on_c, 0, 58, 88
2, 76320, Note_on_c, 0, 63, 88
2, 76550, Note_off_c, 0, 51, 80
2, 76550, Note_off_c, 0, 58, 80
2, 76550, Note_off_c, 0, 63, 80
2, 76560, Note_on_c, 0, 51, 88
2, 76560, Note_on_c, 0, 58, 88
2, 76560, Note_on_c, 0, 63, 88
2, 77270, Note_off_c, 0, 51, 80
2, 77270, Note_off_c, 0, 58, 80
2, 77270, Note_off_c, 0, 63, 80
2, 77280, Note_on_c, 0, 51, 88
2, 77280, Note_on_c, 0, 58, 88
2, 77280, Note_on_c, 0, 63, 88
2, 77510, Note_off_c, 0, 51, 80
2, 77510, Note_off_c, 0, 58, 80
2, 77510, Note_off_c, 0, 63, 80
2, 77520, Note_on_c, 0, 51, 88
2, 77520, Note_on_c, 0, 58, 88
2, 77520, Note_on_c, 0, 63, 88
2, 77750, Note_off_c, 0, 51, 80
2, 77750, Note_off_c, 0, 58, 80
2, 77750, Note_off_c, 0, 63, 80
2, 77760, Note_on_c, 0, 51, 88
2, 77760, Note_on_c, 0, 58, 88
2, 77760, Note_on_c, 0, 63, 88
2, 77990, Note_off_c, 0, 51, 80
2, 77990, Note_off_c, 0, 58, 80
2, 77990, Note_off_c, 0, 63, 80
2, 78000, Note_on_c, 0, 51, 88
2, 78000, Note_on_c, 0, 58, 88
2, 78000, Note_on_c, 0, 63, 88
2, 78230, Note_off_c, 0, 51, 80
2, 78230, Note_off_c, 0, 58, 80
2, 78230, Note_off_c, 0, 63, 80
2, 78240, Note_on_c, 0, 51, 88
2, 78240, Note_on_c, 0, 58, 88
2, 78240, Note_on_c, 0, 63, 88
2, 78470, Note_off_c, 0, 51, 80
2, 78470, Note_off_c, 0, 58, 80
2, 78470, Note_off_c, 0, 63, 80
2, 78480, Note_on_c, 0, 51, 88
2, 78480, Note_on_c, 0, 58, 88
2, 78480, Note_on_c, 0, 63, 88
2, 78710, Note_off_c, 0, 51, 80
2, 78710, Note_off_c, 0, 58, 80
2, 78710, Note_off_c, 0, 63, 80
2, 78720, Control_c, 0, 7, 104
2, 78720, Note_on_c, 0, 60, 88
2, 79120, Pitch_bend_c, 0, 8064
2, 79136, Pitch_bend_c, 0, 7808
2, 79152, Pitch_bend_c, 0, 7680
2, 79184, Pitch_bend_c, 0, 7552
2, 79232, Pitch_bend_c, 0, 7680
2, 79264, Pitch_bend_c, 0, 7808
2, 79280, Pitch_bend_c, 0, 8064
2, 79296, Pitch_bend_c, 0, 8192
2, 79600, Pitch_bend_c, 0, 8064
2, 79616, Pitch_bend_c, 0, 7808
2, 79632, Pitch_bend_c, 0, 7680
2, 79664, Pitch_bend_c, 0, 7552
2, 79712, Pitch_bend_c, 0, 7680
2, 79744, Pitch_bend_c, 0, 7808
2, 79760, Pitch_bend_c, 0, 8064
2, 79776, Pitch_bend_c, 0, 8192
2, 80080, Pitch_bend_c, 0, 8064
2, 80096, Pitch_bend_c, 0, 7808
2, 80112, Pitch_bend_c, 0, 7680
2, 80144, Pitch_bend_c, 0, 7552
2, 80192, Pitch_bend_c, 0, 7680
2, 80224, Pitch_bend_c, 0, 7808
2, 80240, Pitch_bend_c, 0, 8064
2, 80256, Pitch_bend_c, 0, 8192
2, 80560, Pitch_bend_c, 0, 8064
2, 80576, Pitch_bend_c, 0, 7808
2, 80592, Pitch_bend_c, 0, 7680
2, 80624, Pitch_bend_c, 0, 7552
2, 80672, Pitch_bend_c, 0, 7680
2, 80704, Pitch_bend_c, 0, 7808
2, 80720, Pitch_bend_c, 0, 8064
2, 80736, Pitch_bend_c, 0, 8192
2, 81040, Pitch_bend_c, 0, 8064
2, 81056, Pitch_bend_c, 0, 7808
2, 81072, Pitch_bend_c, 0, 7680
2, 81104, Pitch_bend_c, 0, 7552
2, 81152, Pitch_bend_c, 0, 7680
2, 81184, Pitch_bend_c, 0, 7808
2, 81200, Pitch_bend_c, 0, 8064
2, 81216, Pitch_bend_c, 0, 8192
2, 81590, Note_off_c, 0, 60, 80
2, 81600, Note_on_c, 0, 60, 88
2, 81632, Pitch_bend_c, 0, 8320
2, 81664, Pitch_bend_c, 0, 8448
2, 81680, Pitch_bend_c, 0, 8576
2, 81696, Pitch_bend_c, 0, 8704
2, 81712, Pitch_bend_c, 0, 8832
2, 81872, Pitch_bend_c, 0, 8704
2, 81888, Pitch_bend_c, 0, 8576
2, 81904, Pitch_bend_c, 0, 8320
2, 81936, Pitch_bend_c, 0, 8192
2, 82070, Note_off_c, 0, 60, 80
2, 82080, Note_on_c, 0, 58, 88
2, 82310, Note_off_c, 0, 58, 80
2, 82320, Note_on_c, 0, 58, 88
2, 82790, Note_off_c, 0, 58, 80
2, 82800, Note_on_c, 0, 60, 88
2, 83030, Note_off_c, 0, 60, 80
2, 83040, Note_on_c, 0, 56, 88
2, 84710, Note_off_c, 0, 56, 80
2, 84720, Note_on_c, 0, 58, 88
2, 84830, Note_off_c, 0, 58, 80
2, 84840, Note_on_c, 0, 56, 88
2, 84950, Note_off_c, 0, 56, 80
2, 84960, Note_on_c, 0, 58, 88
2, 85070, Note_off_c, 0, 58, 80
2, 85080, Note_on_c, 0, 56, 88
2, 85190, Note_off_c, 0, 56, 80
2, 85200, Note_on_c, 0, 58, 88
2, 85310, Note_off_c, 0, 58, 80
2, 85320, Note_on_c, 0, 56, 88
2, 85430, Note_off_c, 0, 56, 80
2, 85440, Note_on_c, 0, 58, 88
2, 85550, Note_off_c, 0, 58, 80
2, 85560, Note_on_c, 0, 56, 88
2, 85670, Note_off_c, 0, 56, 80
2, 85680, Note_on_c, 0, 58, 88
2, 85790, Note_off_c, 0, 58, 80
2, 85800, Note_on_c, 0, 56, 88
2, 85910, Note_off_c, 0, 56, 80
2, 85920, Note_on_c, 0, 58, 88
2, 86030, Note_off_c, 0, 58, 80
2, 86040, Note_on_c, 0, 56, 88
2, 86150, Note_off_c, 0, 56, 80
2, 86160, Note_on_c, 0, 58, 88
2, 86270, Note_off_c, 0, 58, 80
2, 86280, Note_on_c, 0, 56, 88
2, 86390, Note_off_c, 0, 56, 80
2, 86400, Note_on_c, 0, 60, 88
2, 89270, Note_off_c, 0, 60, 80
2, 89280, Note_on_c, 0, 60, 88
2, 89312, Pitch_bend_c, 0, 8320
2, 89344, Pitch_bend_c, 0, 8448
2, 89360, Pitch_bend_c, 0, 8576
2, 89376, Pitch_bend_c, 0, 8704
2, 89392, Pitch_bend_c, 0, 8832
2, 89552, Pitch_bend_c, 0, 8704
2, 89568, Pitch_bend_c, 0, 8576
2, 89584, Pitch_bend_c, 0, 8320
2, 89616, Pitch_bend_c, 0, 8192
2, 89750, Note_off_c, 0, 60, 80
2, 89760, Note_on_c, 0, 58, 88
2, 89990, Note_off_c, 0, 58, 80
2, 90000, Note_on_c, 0, 60, 88
2, 90064, Pitch_bend_c, 0, 8320
2, 90128, Pitch_bend_c, 0, 8448
2, 90176, Pitch_bend_c, 0, 8576
2, 90208, Pitch_bend_c, 0, 8704
2, 90240, Pitch_bend_c, 0, 8832
2, 90640, Pitch_bend_c, 0, 8704
2, 90656, Pitch_bend_c, 0, 8576
2, 90672, Pitch_bend_c, 0, 8448
2, 90704, Pitch_bend_c, 0, 8320
2, 90736, Pitch_bend_c, 0, 8192
2, 90784, Pitch_bend_c, 0, 8320
2, 90816, Pitch_bend_c, 0, 8448
2, 90832, Pitch_bend_c, 0, 8576
2, 90848, Pitch_bend_c, 0, 8704
2, 90864, Pitch_bend_c, 0, 8832
2, 91120, Pitch_bend_c, 0, 8704
2, 91136, Pitch_bend_c, 0, 8576
2, 91152, Pitch_bend_c, 0, 8448
2, 91168, Pitch_bend_c, 0, 8320
2, 91200, Pitch_bend_c, 0, 8192
2, 91264, Pitch_bend_c, 0, 8320
2, 91296, Pitch_bend_c, 0, 8448
2, 91312, Pitch_bend_c, 0, 8576
2, 91328, Pitch_bend_c, 0, 8704
2, 91344, Pitch_bend_c, 0, 8832
2, 91600, Pitch_bend_c, 0, 8704
2, 91616, Pitch_bend_c, 0, 8576
2, 91632, Pitch_bend_c, 0, 8448
2, 91648, Pitch_bend_c, 0, 8320
2, 91680, Pitch_bend_c, 0, 8192
2, 91744, Pitch_bend_c, 0, 8320
2, 91808, Pitch_bend_c, 0, 8448
2, 91824, Pitch_bend_c, 0, 8576
2, 91856, Pitch_bend_c, 0, 8704
2, 91872, Pitch_bend_c, 0, 8832
2, 92144, Pitch_bend_c, 0, 8704
2, 92160, Pitch_bend_c, 0, 8576
2, 92176, Pitch_bend_c, 0, 8448
2, 92192, Pitch_bend_c, 0, 8320
2, 92224, Pitch_bend_c, 0, 8192
2, 92272, Pitch_bend_c, 0, 8320
2, 92304, Pitch_bend_c, 0, 8448
2, 92336, Pitch_bend_c, 0, 8576
2, 92352, Pitch_bend_c, 0, 8704
2, 92368, Pitch_bend_c, 0, 8832
2, 92688, Pitch_bend_c, 0, 8704
2, 92704, Pitch_bend_c, 0, 8576
2, 92720, Pitch_bend_c, 0, 8448
2, 92736, Pitch_bend_c, 0, 8320
2, 92768, Pitch_bend_c, 0, 8192
2, 92816, Pitch_bend_c, 0, 8320
2, 92848, Pitch_bend_c, 0, 8448
2, 92880, Pitch_bend_c, 0, 8576
2, 92896, Pitch_bend_c, 0, 8704
2, 92912, Pitch_bend_c, 0, 8832
2, 93232, Pitch_bend_c, 0, 8704
2, 93248, Pitch_bend_c, 0, 8576
2, 93264, Pitch_bend_c, 0, 8448
2, 93280, Pitch_bend_c, 0, 8320
2, 93312, Pitch_bend_c, 0, 8192
2, 93360, Pitch_bend_c, 0, 8320
2, 93392, Pitch_bend_c, 0, 8448
2, 93424, Pitch_bend_c, 0, 8576
2, 93440, Pitch_bend_c, 0, 8704
2, 93456, Pitch_bend_c, 0, 8832
2, 93776, Pitch_bend_c, 0, 8704
2, 93792, Pitch_bend_c, 0, 8576
2, 93808, Pitch_bend_c, 0, 8448
2, 93824, Pitch_bend_c, 0, 8320
2, 93856, Pitch_bend_c, 0, 8192
2, 93920, Pitch_bend_c, 0, 8320
2, 93984, Pitch_bend_c, 0, 8448
2, 94000, Pitch_bend_c, 0, 8576
2, 94032, Pitch_bend_c, 0, 8704
2, 94048, Pitch_bend_c, 0, 8832
2, 94070, Note_off_c, 0, 60, 80
2, 94080, Pitch_bend_c, 0, 8192
2, 94080, Program_c, 0, 27
2, 94080, Note_on_c, 0, 56, 88
2, 94560, Note_on_c, 0, 68, 88
2, 94560, Note_on_c, 0, 77, 88
2, 95030, Note_off_c, 0, 68, 80
2, 95030, Note_off_c, 0, 77, 80
2, 95040, Note_on_c, 0, 68, 88
2, 95040, Note_on_c, 0, 77, 88
2, 95990, Note_off_c, 0, 56, 80
2, 95990, Note_off_c, 0, 68, 80
2, 95990, Note_off_c, 0, 77, 80
2, 96000, Note_on_c, 0, 60, 88
2, 96230, Note_off_c, 0, 60, 80
2, 96240, Note_on_c, 0, 60, 88
2, 96470, Note_off_c, 0, 60, 80
2, 96480, Note_on_c, 0, 68, 88
2, 96480, Note_on_c, 0, 77, 88
2, 96710, Note_off_c, 0, 68, 80
2, 96710, Note_off_c, 0, 77, 80
2, 96720, Note_on_c, 0, 60, 88
2, 96950, Note_off_c, 0, 60, 80
2, 96960, Note_on_c, 0, 67, 88
2, 96960, Note_on_c, 0, 75, 88
2, 97910, Note_off_c, 0, 67, 80
2, 97910, Note_off_c, 0, 75, 80
2, 97920, Note_on_c, 0, 63, 88
2, 98150, Note_off_c, 0, 63, 80
2, 98160, Note_on_c, 0, 63, 88
2, 98390, Note_off_c, 0, 63, 80
2, 98400, Note_on_c, 0, 61, 88
2, 98400, Note_on_c, 0, 70, 88
2, 98870, Note_off_c, 0, 61, 80
2, 98870, Note_off_c, 0, 70, 80
2, 98880, Note_on_c, 0, 60, 88
2, 98880, Note_on_c, 0, 68, 88
2, 99830, Note_off_c, 0, 60, 80
2, 99830, Note_off_c, 0, 68, 80
2, 99840, Note_on_c, 0, 63, 88
2, 99840, Note_on_c, 0, 72, 43
2, 100070, Note_off_c, 0, 63, 80
2, 100070, Note_off_c, 0, 72, 80
2, 100080, Note_on_c, 0, 63, 88
2, 100080, Note_on_c, 0, 72, 88
2, 100310, Note_off_c, 0, 63, 80
2, 100310, Note_off_c, 0, 72, 80
2, 100320, Note_on_c, 0, 61, 88
2, 100320, Note_on_c, 0, 70, 88
2, 100790, Note_off_c, 0, 61, 80
2, 100790, Note_off_c, 0, 70, 80
2, 100800, Note_on_c, 0, 60, 88
2, 100800, Note_on_c, 0, 68, 88
2, 101750, Note_off_c, 0, 60, 80
2, 101750, Note_off_c, 0, 68, 80
2, 101760, Note_on_c, 0, 56, 88
2, 102240, Note_on_c, 0, 68, 88
2, 102240, Note_on_c, 0, 77, 88
2, 102710, Note_off_c, 0, 68, 80
2, 102710, Note_off_c, 0, 77, 80
2, 102720, Note_on_c, 0, 68, 88
2, 102720, Note_on_c, 0, 77, 88
2, 103670, Note_off_c, 0, 56, 80
2, 103670, Note_off_c, 0, 68, 80
2, 103670, Note_off_c, 0, 77, 80
2, 103680, Note_on_c, 0, 60, 88
2, 103910, Note_off_c, 0, 60, 80
2, 103920, Note_on_c, 0, 60, 88
2, 104150, Note_off_c, 0, 60, 80
2, 104160, Note_on_c, 0, 68, 88
2, 104160, Note_on_c, 0, 77, 88
2, 104390, Note_off_c, 0, 68, 80
2, 104390, Note_off_c, 0, 77, 80
2, 104400, Note_on_c, 0, 60, 88
2, 104630, Note_off_c, 0, 60, 80
2, 104640, Note_on_c, 0, 67, 88
2, 104640, Note_on_c, 0, 75, 88
2, 105590, Note_off_c, 0, 67, 80
2, 105590, Note_off_c, 0, 75, 80
2, 105600, Note_on_c, 0, 63, 88
2, 105830, Note_off_c, 0, 63, 80
2, 105840, Note_on_c, 0, 63, 88
2, 106070, Note_off_c, 0, 63, 80
2, 106080, Note_on_c, 0, 61, 88
2, 106080, Note_on_c, 0, 70, 88
2, 106550, Note_off_c, 0, 61, 80
2, 106550, Note_off_c, 0, 70, 80
2, 106560, Note_on_c, 0, 60, 88
2, 106560, Note_on_c, 0, 68, 88
2, 107510, Note_off_c, 0, 60, 80
2, 107510, Note_off_c, 0, 68, 80
2, 107520, Note_on_c, 0, 63, 88
2, 107520, Note_on_c, 0, 72, 43
2, 107750, Note_off_c, 0, 63, 80
2, 107750, Note_off_c, 0, 72, 80
2, 107760, Note_on_c, 0, 63, 88
2, 107760, Note_on_c, 0, 72, 88
2, 107990, Note_off_c, 0, 63, 80
2, 107990, Note_off_c, 0, 72, 80
2, 108000, Note_on_c, 0, 61, 88
2, 108000, Note_on_c, 0, 70, 88
2, 108470, Note_off_c, 0, 61, 80
2, 108470, Note_off_c, 0, 70, 80
2, 108480, Note_on_c, 0, 60, 88
2, 108480, Note_on_c, 0, 68, 88
2, 109430, Note_off_c, 0, 60, 80
2, 109430, Note_off_c, 0, 68, 80
2, 109440, Note_on_c, 0, 56, 88
2, 109920, Note_on_c, 0, 68, 88
2, 109920, Note_on_c, 0, 77, 88
2, 110390, Note_off_c, 0, 68, 80
2, 110390, Note_off_c, 0, 77, 80
2, 110400, Note_on_c, 0, 68, 88
2, 110400, Note_on_c, 0, 77, 88
2, 111350, Note_off_c, 0, 56, 80
2, 111350, Note_off_c, 0, 68, 80
2, 111350, Note_off_c, 0, 77, 80
2, 111360, Note_on_c, 0, 60, 88
2, 111590, Note_off_c, 0, 60, 80
2, 111600, Note_on_c, 0, 60, 88
2, 111830, Note_off_c, 0, 60, 80
2, 111840, Note_on_c, 0, 68, 88
2, 111840, Note_on_c, 0, 77, 88
2, 112070, Note_off_c, 0, 68, 80
2, 112070, Note_off_c, 0, 77, 80
2, 112080, Note_on_c, 0, 60, 88
2, 112310, Note_off_c, 0, 60, 80
2, 112320, Note_on_c, 0, 67, 88
2, 112320, Note_on_c, 0, 75, 88
2, 113270, Note_off_c, 0, 67, 80
2, 113270, Note_off_c, 0, 75, 80
2, 113280, Note_on_c, 0, 63, 88
2, 113510, Note_off_c, 0, 63, 80
2, 113520, Note_on_c, 0, 63, 88
2, 113750, Note_off_c, 0, 63, 80
2, 113760, Note_on_c, 0, 63, 88
2, 113760, Note_on_c, 0, 72, 88
2, 113990, Note_off_c, 0, 63, 80
2, 113990, Note_off_c, 0, 72, 80
2, 114000, Note_on_c, 0, 63, 88
2, 114230, Note_off_c, 0, 63, 80
2, 114240, Note_on_c, 0, 65, 88
2, 114240, Note_on_c, 0, 70, 88
2, 114950, Note_off_c, 0, 65, 80
2, 114950, Note_off_c, 0, 70, 80
2, 114960, Note_on_c, 0, 63, 88
2, 115190, Note_off_c, 0, 63, 80
2, 115200, Note_on_c, 0, 63, 88
2, 115430, Note_off_c, 0, 63, 80
2, 115440, Note_on_c, 0, 63, 88
2, 115670, Note_off_c, 0, 63, 80
2, 115680, Note_on_c, 0, 67, 88
2, 115680, Note_on_c, 0, 72, 88
2, 115910, Note_off_c, 0, 67, 80
2, 115910, Note_off_c, 0, 72, 80
2, 115920, Note_on_c, 0, 63, 88
2, 116150, Note_off_c, 0, 63, 80
2, 116160, Note_on_c, 0, 65, 88
2, 116160, Note_on_c, 0, 70, 88
2, 117110, Note_off_c, 0, 65, 80
2, 117110, Note_off_c, 0, 70, 80
2, 117120, Program_c, 0, 29
2, 117120, Control_c, 0, 7, 40
2, 117120, Note_on_c, 0, 42, 88
2, 117120, Note_on_c, 0, 49, 88
2, 117120, Note_on_c, 0, 54, 88
2, 117350, Note_off_c, 0, 42, 80
2, 117350, Note_off_c, 0, 49, 80
2, 117350, Note_off_c, 0, 54, 80
2, 117360, Note_on_c, 0, 42, 88
2, 117360, Note_on_c, 0, 49, 88
2, 117360, Note_on_c, 0, 54, 88
2, 117590, Note_off_c, 0, 42, 80
2, 117590, Note_off_c, 0, 49, 80
2, 117590, Note_off_c, 0, 54, 80
2, 117600, Note_on_c, 0, 42, 88
2, 117600, Note_on_c, 0, 49, 88
2, 117600, Note_on_c, 0, 54, 88
2, 117830, Note_off_c, 0, 42, 80
2, 117830, Note_off_c, 0, 49, 80
2, 117830, Note_off_c, 0, 54, 80
2, 117840, Note_on_c, 0, 42, 88
2, 117840, Note_on_c, 0, 49, 88
2, 117840, Note_on_c, 0, 54, 88
2, 118790, Note_off_c, 0, 42, 80
2, 118790, Note_off_c, 0, 49, 80
2, 118790, Note_off_c, 0, 54, 80
2, 118800, Note_on_c, 0, 42, 88
2, 118800, Note_on_c, 0, 49, 88
2, 118800, Note_on_c, 0, 54, 88
2, 119030, Note_off_c, 0, 42, 80
2, 119030, Note_off_c, 0, 49, 80
2, 119030, Note_off_c, 0, 54, 80
2, 119040, Note_on_c, 0, 42, 88
2, 119040, Note_on_c, 0, 49, 88
2, 119040, Note_on_c, 0, 54, 88
2, 119270, Note_off_c, 0, 42, 80
2, 119270, Note_off_c, 0, 49, 80
2, 119270, Note_off_c, 0, 54, 80
2, 119280, Note_on_c, 0, 42, 88
2, 119280, Note_on_c, 0, 49, 88
2, 119280, Note_on_c, 0, 54, 88
2, 119510, Note_off_c, 0, 42, 80
2, 119510, Note_off_c, 0, 49, 80
2, 119510, Note_off_c, 0, 54, 80
2, 119520, Note_on_c, 0, 42, 88
2, 119520, Note_on_c, 0, 49, 88
2, 119520, Note_on_c, 0, 54, 88
2, 119750, Note_off_c, 0, 42, 80
2, 119750, Note_off_c, 0, 49, 80
2, 119750, Note_off_c, 0, 54, 80
2, 119760, Note_on_c, 0, 42, 88
2, 119760, Note_on_c, 0, 49, 88
2, 119760, Note_on_c, 0, 54, 88
2, 119990, Note_off_c, 0, 42, 80
2, 119990, Note_off_c, 0, 49, 80
2, 119990, Note_off_c, 0, 54, 80
2, 120000, Note_on_c, 0, 42, 88
2, 120000, Note_on_c, 0, 49, 88
2, 120000, Note_on_c, 0, 54, 88
2, 120950, Note_off_c, 0, 42, 80
2, 120950, Note_off_c, 0, 49, 80
2, 120950, Note_off_c, 0, 54, 80
2, 120960, Note_on_c, 0, 49, 88
2, 120960, Note_on_c, 0, 56, 88
2, 120960, Note_on_c, 0, 61, 88
2, 121670, Note_off_c, 0, 49, 80
2, 121670, Note_off_c, 0, 56, 80
2, 121670, Note_off_c, 0, 61, 80
2, 121680, Note_on_c, 0, 49, 88
2, 121680, Note_on_c, 0, 56, 88
2, 121680, Note_on_c, 0, 61, 88
2, 121910, Note_off_c, 0, 49, 80
2, 121910, Note_off_c, 0, 56, 80
2, 121910, Note_off_c, 0, 61, 80
2, 121920, Note_on_c, 0, 49, 88
2, 121920, Note_on_c, 0, 56, 88
2, 121920, Note_on_c, 0, 61, 88
2, 122870, Note_off_c, 0, 49, 80
2, 122870, Note_off_c, 0, 56, 80
2, 122870, Note_off_c, 0, 61, 80
2, 122880, Note_on_c, 0, 44, 88
2, 122880, Note_on_c, 0, 51, 88
2, 122880, Note_on_c, 0, 56, 88
2, 123110, Note_off_c, 0, 44, 80
2, 123110, Note_off_c, 0, 51, 80
2, 123110, Note_off_c, 0, 56, 80
2, 123120, Note_on_c, 0, 44, 88
2, 123120, Note_on_c, 0, 51, 88
2, 123120, Note_on_c, 0, 56, 88
2, 123350, Note_off_c, 0, 44, 80
2, 123350, Note_off_c, 0, 51, 80
2, 123350, Note_off_c, 0, 56, 80
2, 123360, Note_on_c, 0, 44, 88
2, 123360, Note_on_c, 0, 51, 88
2, 123360, Note_on_c, 0, 56, 88
2, 123590, Note_off_c, 0, 44, 80
2, 123590, Note_off_c, 0, 51, 80
2, 123590, Note_off_c, 0, 56, 80
2, 123600, Note_on_c, 0, 44, 88
2, 123600, Note_on_c, 0, 51, 88
2, 123600, Note_on_c, 0, 56, 88
2, 124550, Note_off_c, 0, 44, 80
2, 124550, Note_off_c, 0, 51, 80
2, 124550, Note_off_c, 0, 56, 80
2, 124560, Note_on_c, 0, 44, 88
2, 124560, Note_on_c, 0, 51, 88
2, 124560, Note_on_c, 0, 56, 88
2, 124790, Note_off_c, 0, 44, 80
2, 124790, Note_off_c, 0, 51, 80
2, 124790, Note_off_c, 0, 56, 80
2, 124800, Note_on_c, 0, 51, 88
2, 124800, Note_on_c, 0, 58, 88
2, 124800, Note_on_c, 0, 63, 88
2, 125270, Note_off_c, 0, 51, 80
2, 125270, Note_off_c, 0, 58, 80
2, 125270, Note_off_c, 0, 63, 80
2, 125280, Note_on_c, 0, 51, 88
2, 125280, Note_on_c, 0, 58, 88
2, 125280, Note_on_c, 0, 63, 88
2, 125510, Note_off_c, 0, 51, 80
2, 125510, Note_off_c, 0, 58, 80
2, 125510, Note_off_c, 0, 63, 80
2, 125520, Note_on_c, 0, 51, 88
2, 125520, Note_on_c, 0, 58, 88
2, 125520, Note_on_c, 0, 63, 88
2, 125750, Note_off_c, 0, 51, 80
2, 125750, Note_off_c, 0, 58, 80
2, 125750, Note_off_c, 0, 63, 80
2, 125760, Note_on_c, 0, 51, 88
2, 125760, Note_on_c, 0, 58, 88
2, 125760, Note_on_c, 0, 63, 88
2, 125990, Note_off_c, 0, 51, 80
2, 125990, Note_off_c, 0, 58, 80
2, 125990, Note_off_c, 0, 63, 80
2, 126000, Note_on_c, 0, 51, 88
2, 126000, Note_on_c, 0, 58, 88
2, 126000, Note_on_c, 0, 63, 88
2, 126230, Note_off_c, 0, 51, 80
2, 126230, Note_off_c, 0, 58, 80
2, 126230, Note_off_c, 0, 63, 80
2, 126240, Note_on_c, 0, 51, 88
2, 126240, Note_on_c, 0, 58, 88
2, 126240, Note_on_c, 0, 63, 88
2, 126470, Note_off_c, 0, 51, 80
2, 126470, Note_off_c, 0, 58, 80
2, 126470, Note_off_c, 0, 63, 80
2, 126480, Note_on_c, 0, 51, 88
2, 126480, Note_on_c, 0, 58, 88
2, 126480, Note_on_c, 0, 63, 88
2, 127190, Note_off_c, 0, 51, 80
2, 127190, Note_off_c, 0, 58, 80
2, 127190, Note_off_c, 0, 63, 80
2, 127200, Note_on_c, 0, 51, 88
2, 127200, Note_on_c, 0, 58, 88
2, 127200, Note_on_c, 0, 63, 88
2, 127430, Note_off_c, 0, 51, 80
2, 127430, Note_off_c, 0, 58, 80
2, 127430, Note_off_c, 0, 63, 80
2, 127440, Note_on_c, 0, 51, 88
2, 127440, Note_on_c, 0, 58, 88
2, 127440, Note_on_c, 0, 63, 88
2, 127670, Note_off_c, 0, 51, 80
2, 127670, Note_off_c, 0, 58, 80
2, 127670, Note_off_c, 0, 63, 80
2, 127680, Note_on_c, 0, 51, 88
2, 127680, Note_on_c, 0, 58, 88
2, 127680, Note_on_c, 0, 63, 88
2, 127910, Note_off_c, 0, 51, 80
2, 127910, Note_off_c, 0, 58, 80
2, 127910, Note_off_c, 0, 63, 80
2, 127920, Note_on_c, 0, 51, 88
2, 127920, Note_on_c, 0, 58, 88
2, 127920, Note_on_c, 0, 63, 88
2, 128150, Note_off_c, 0, 51, 80
2, 128150, Note_off_c, 0, 58, 80
2, 128150, Note_off_c, 0, 63, 80
2, 128160, Note_on_c, 0, 51, 88
2, 128160, Note_on_c, 0, 58, 88
2, 128160, Note_on_c, 0, 63, 88
2, 128390, Note_off_c, 0, 51, 80
2, 128390, Note_off_c, 0, 58, 80
2, 128390, Note_off_c, 0, 63, 80
2, 128400, Note_on_c, 0, 51, 88
2, 128400, Note_on_c, 0, 58, 88
2, 128400, Note_on_c, 0, 63, 88
2, 128630, Note_off_c, 0, 51, 80
2, 128630, Note_off_c, 0, 58, 80
2, 128630, Note_off_c, 0, 63, 80
2, 128640, Note_on_c, 0, 42, 88
2, 128640, Note_on_c, 0, 49, 88
2, 128640, Note_on_c, 0, 54, 88
2, 128870, Note_off_c, 0, 42, 80
2, 128870, Note_off_c, 0, 49, 80
2, 128870, Note_off_c, 0, 54, 80
2, 128880, Note_on_c, 0, 42, 88
2, 128880, Note_on_c, 0, 49, 88
2, 128880, Note_on_c, 0, 54, 88
2, 129110, Note_off_c, 0, 42, 80
2, 129110, Note_off_c, 0, 49, 80
2, 129110, Note_off_c, 0, 54, 80
2, 129120, Note_on_c, 0, 42, 88
2, 129120, Note_on_c, 0, 49, 88
2, 129120, Note_on_c, 0, 54, 88
2, 129350, Note_off_c, 0, 42, 80
2, 129350, Note_off_c, 0, 49, 80
2, 129350, Note_off_c, 0, 54, 80
2, 129360, Note_on_c, 0, 42, 88
2, 129360, Note_on_c, 0, 49, 88
2, 129360, Note_on_c, 0, 54, 88
2, 130310, Note_off_c, 0, 42, 80
2, 130310, Note_off_c, 0, 49, 80
2, 130310, Note_off_c, 0, 54, 80
2, 130320, Note_on_c, 0, 42, 88
2, 130320, Note_on_c, 0, 49, 88
2, 130320, Note_on_c, 0, 54, 88
2, 130550, Note_off_c, 0, 42, 80
2, 130550, Note_off_c, 0, 49, 80
2, 130550, Note_off_c, 0, 54, 80
2, 130560, Note_on_c, 0, 42, 88
2, 130560, Note_on_c, 0, 49, 88
2, 130560, Note_on_c, 0, 54, 88
2, 130790, Note_off_c, 0, 42, 80
2, 130790, Note_off_c, 0, 49, 80
2, 130790, Note_off_c, 0, 54, 80
2, 130800, Note_on_c, 0, 42, 88
2, 130800, Note_on_c, 0, 49, 88
2, 130800, Note_on_c, 0, 54, 88
2, 131030, Note_off_c, 0, 42, 80
2, 131030, Note_off_c, 0, 49, 80
2, 131030, Note_off_c, 0, 54, 80
2, 131040, Note_on_c, 0, 42, 88
2, 131040, Note_on_c, 0, 49, 88
2, 131040, Note_on_c, 0, 54, 88
2, 131270, Note_off_c, 0, 42, 80
2, 131270, Note_off_c, 0, 49, 80
2, 131270, Note_off_c, 0, 54, 80
2, 131280, Note_on_c, 0, 42, 88
2, 131280, Note_on_c, 0, 49, 88
2, 131280, Note_on_c, 0, 54, 88
2, 131510, Note_off_c, 0, 42, 80
2, 131510, Note_off_c, 0, 49, 80
2, 131510, Note_off_c, 0, 54, 80
2, 131520, Note_on_c, 0, 42, 88
2, 131520, Note_on_c, 0, 49, 88
2, 131520, Note_on_c, 0, 54, 88
2, 132470, Note_off_c, 0, 42, 80
2, 132470, Note_off_c, 0, 49, 80
2, 132470, Note_off_c, 0, 54, 80
2, 132480, Note_on_c, 0, 49, 88
2, 132480, Note_on_c, 0, 56, 88
2, 132480, Note_on_c, 0, 61, 88
2, 133190, Note_off_c, 0, 49, 80
2, 133190, Note_off_c, 0, 56, 80
2, 133190, Note_off_c, 0, 61, 80
2, 133200, Note_on_c, 0, 49, 88
2, 133200, Note_on_c, 0, 56, 88
2, 133200, Note_on_c, 0, 61, 88
2, 133430, Note_off_c, 0, 49, 80
2, 133430, Note_off_c, 0, 56, 80
2, 133430, Note_off_c, 0, 61, 80
2, 133440, Note_on_c, 0, 49, 88
2, 133440, Note_on_c, 0, 56, 88
2, 133440, Note_on_c, 0, 61, 88
2, 134390, Note_off_c, 0, 49, 80
2, 134390, Note_off_c, 0, 56, 80
2, 134390, Note_off_c, 0, 61, 80
2, 134400, Note_on_c, 0, 44, 88
2, 134400, Note_on_c, 0, 51, 88
2, 134400, Note_on_c, 0, 56, 88
2, 134630, Note_off_c, 0, 44, 80
2, 134630, Note_off_c, 0, 51, 80
2, 134630, Note_off_c, 0, 56, 80
2, 134640, Note_on_c, 0, 44, 88
2, 134640, Note_on_c, 0, 51, 88
2, 134640, Note_on_c, 0, 56, 88
2, 134870, Note_off_c, 0, 44, 80
2, 134870, Note_off_c, 0, 51, 80
2, 134870, Note_off_c, 0, 56, 80
2, 134880, Note_on_c, 0, 44, 88
2, 134880, Note_on_c, 0, 51, 88
2, 134880, Note_on_c, 0, 56, 88
2, 135110, Note_off_c, 0, 44, 80
2, 135110, Note_off_c, 0, 51, 80
2, 135110, Note_off_c, 0, 56, 80
2, 135120, Note_on_c, 0, 44, 88
2, 135120, Note_on_c, 0, 51, 88
2, 135120, Note_on_c, 0, 56, 88
2, 136070, Note_off_c, 0, 44, 80
2, 136070, Note_off_c, 0, 51, 80
2, 136070, Note_off_c, 0, 56, 80
2, 136080, Note_on_c, 0, 44, 88
2, 136080, Note_on_c, 0, 51, 88
2, 136080, Note_on_c, 0, 56, 88
2, 136310, Note_off_c, 0, 44, 80
2, 136310, Note_off_c, 0, 51, 80
2, 136310, Note_off_c, 0, 56, 80
2, 136320, Note_on_c, 0, 51, 88
2, 136320, Note_on_c, 0, 58, 88
2, 136320, Note_on_c, 0, 63, 88
2, 136790, Note_off_c, 0, 51, 80
2, 136790, Note_off_c, 0, 58, 80
2, 136790, Note_off_c, 0, 63, 80
2, 136800, Note_on_c, 0, 51, 88
2, 136800, Note_on_c, 0, 58, 88
2, 136800, Note_on_c, 0, 63, 88
2, 137030, Note_off_c, 0, 51, 80
2, 137030, Note_off_c, 0, 58, 80
2, 137030, Note_off_c, 0, 63, 80
2, 137040, Note_on_c, 0, 51, 88
2, 137040, Note_on_c, 0, 58, 88
2, 137040, Note_on_c, 0, 63, 88
2, 137270, Note_off_c, 0, 51, 80
2, 137270, Note_off_c, 0, 58, 80
2, 137270, Note_off_c, 0, 63, 80
2, 137280, Note_on_c, 0, 51, 88
2, 137280, Note_on_c, 0, 58, 88
2, 137280, Note_on_c, 0, 63, 88
2, 137510, Note_off_c, 0, 51, 80
2, 137510, Note_off_c, 0, 58, 80
2, 137510, Note_off_c, 0, 63, 80
2, 137520, Note_on_c, 0, 51, 88
2, 137520, Note_on_c, 0, 58, 88
2, 137520, Note_on_c, 0, 63, 88
2, 137750, Note_off_c, 0, 51, 80
2, 137750, Note_off_c, 0, 58, 80
2, 137750, Note_off_c, 0, 63, 80
2, 137760, Note_on_c, 0, 51, 88
2, 137760, Note_on_c, 0, 58, 88
2, 137760, Note_on_c, 0, 63, 88
2, 137990, Note_off_c, 0, 51, 80
2, 137990, Note_off_c, 0, 58, 80
2, 137990, Note_off_c, 0, 63, 80
2, 138000, Note_on_c, 0, 51, 88
2, 138000, Note_on_c, 0, 58, 88
2, 138000, Note_on_c, 0, 63, 88
2, 138710, Note_off_c, 0, 51, 80
2, 138710, Note_off_c, 0, 58, 80
2, 138710, Note_off_c, 0, 63, 80
2, 138720, Note_on_c, 0, 51, 88
2, 138720, Note_on_c, 0, 58, 88
2, 138720, Note_on_c, 0, 63, 88
2, 138950, Note_off_c, 0, 51, 80
2, 138950, Note_off_c, 0, 58, 80
2, 138950, Note_off_c, 0, 63, 80
2, 138960, Note_on_c, 0, 51, 88
2, 138960, Note_on_c, 0, 58, 88
2, 138960, Note_on_c, 0, 63, 88
2, 139190, Note_off_c, 0, 51, 80
2, 139190, Note_off_c, 0, 58, 80
2, 139190, Note_off_c, 0, 63, 80
2, 139200, Note_on_c, 0, 51, 88
2, 139200, Note_on_c, 0, 58, 88
2, 139200, Note_on_c, 0, 63, 88
2, 139430, Note_off_c, 0, 51, 80
2, 139430, Note_off_c, 0, 58, 80
2, 139430, Note_off_c, 0, 63, 80
2, 139440, Note_on_c, 0, 51, 88
2, 139440, Note_on_c, 0, 58, 88
2, 139440, Note_on_c, 0, 63, 88
2, 139670, Note_off_c, 0, 51, 80
2, 139670, Note_off_c, 0, 58, 80
2, 139670, Note_off_c, 0, 63, 80
2, 139680, Note_on_c, 0, 51, 88
2, 139680, Note_on_c, 0, 58, 88
2, 139680, Note_on_c, 0, 63, 88
2, 139910, Note_off_c, 0, 51, 80
2, 139910, Note_off_c, 0, 58, 80
2, 139910, Note_off_c, 0, 63, 80
2, 139920, Note_on_c, 0, 51, 88
2, 139920, Note_on_c, 0, 58, 88
2, 139920, Note_on_c, 0, 63, 88
2, 140150, Note_off_c, 0, 51, 80
2, 140150, Note_off_c, 0, 58, 80
2, 140150, Note_off_c, 0, 63, 80
2, 140160, Note_on_c, 0, 49, 88
2, 140160, Note_on_c, 0, 56, 88
2, 140160, Note_on_c, 0, 61, 88
2, 140390, Note_off_c, 0, 49, 80
2, 140390, Note_off_c, 0, 56, 80
2, 140390, Note_off_c, 0, 61, 80
2, 140400, Note_on_c, 0, 49, 88
2, 140400, Note_on_c, 0, 56, 88
2, 140400, Note_on_c, 0, 61, 88
2, 140630, Note_off_c, 0, 49, 80
2, 140630, Note_off_c, 0, 56, 80
2, 140630, Note_off_c, 0, 61, 80
2, 140640, Note_on_c, 0, 49, 88
2, 140640, Note_on_c, 0, 56, 88
2, 140640, Note_on_c, 0, 61, 88
2, 140870, Note_off_c, 0, 49, 80
2, 140870, Note_off_c, 0, 56, 80
2, 140870, Note_off_c, 0, 61, 80
2, 141120, Note_on_c, 0, 48, 88
2, 141120, Note_on_c, 0, 56, 88
2, 141120, Note_on_c, 0, 60, 88
2, 141350, Note_off_c, 0, 48, 80
2, 141350, Note_off_c, 0, 56, 80
2, 141350, Note_off_c, 0, 60, 80
2, 141360, Note_on_c, 0, 48, 88
2, 141360, Note_on_c, 0, 56, 88
2, 141360, Note_on_c, 0, 60, 88
2, 141590, Note_off_c, 0, 48, 80
2, 141590, Note_off_c, 0, 56, 80
2, 141590, Note_off_c, 0, 60, 80
2, 141600, Note_on_c, 0, 48, 88
2, 141600, Note_on_c, 0, 56, 88
2, 141600, Note_on_c, 0, 60, 88
2, 141830, Note_off_c, 0, 48, 80
2, 141830, Note_off_c, 0, 56, 80
2, 141830, Note_off_c, 0, 60, 80
2, 142080, Note_on_c, 0, 46, 88
2, 142080, Note_on_c, 0, 53, 88
2, 142080, Note_on_c, 0, 58, 88
2, 142310, Note_off_c, 0, 46, 80
2, 142310, Note_off_c, 0, 53, 80
2, 142310, Note_off_c, 0, 58, 80
2, 142320, Note_on_c, 0, 46, 88
2, 142320, Note_on_c, 0, 53, 88
2, 142320, Note_on_c, 0, 58, 88
2, 142550, Note_off_c, 0, 46, 80
2, 142550, Note_off_c, 0, 53, 80
2, 142550, Note_off_c, 0, 58, 80
2, 142800, Note_on_c, 0, 44, 88
2, 142800, Note_on_c, 0, 51, 88
2, 142800, Note_on_c, 0, 56, 88
2, 143270, Note_off_c, 0, 44, 80
2, 143270, Note_off_c, 0, 51, 80
2, 143270, Note_off_c, 0, 56, 80
2, 143280, Note_on_c, 0, 44, 88
2, 143280, Note_on_c, 0, 51, 88
2, 143280, Note_on_c, 0, 56, 88
2, 143510, Note_off_c, 0, 44, 80
2, 143510, Note_off_c, 0, 51, 80
2, 143510, Note_off_c, 0, 56, 80
2, 143520, Note_on_c, 0, 48, 88
2, 143520, Note_on_c, 0, 56, 88
2, 143520, Note_on_c, 0, 60, 88
2, 143990, Note_off_c, 0, 48, 80
2, 143990, Note_off_c, 0, 56, 80
2, 143990, Note_off_c, 0, 60, 80
2, 144000, Note_on_c, 0, 49, 88
2, 144000, Note_on_c, 0, 56, 88
2, 144000, Note_on_c, 0, 61, 88
2, 144230, Note_off_c, 0, 49, 80
2, 144230, Note_off_c, 0, 56, 80
2, 144230, Note_off_c, 0, 61, 80
2, 144240, Note_on_c, 0, 49, 88
2, 144240, Note_on_c, 0, 56, 88
2, 144240, Note_on_c, 0, 61, 88
2, 144470, Note_off_c, 0, 49, 80
2, 144470, Note_off_c, 0, 56, 80
2, 144470, Note_off_c, 0, 61, 80
2, 144480, Note_on_c, 0, 49, 88
2, 144480, Note_on_c, 0, 56, 88
2, 144480, Note_on_c, 0, 61, 88
2, 144710, Note_off_c, 0, 49, 80
2, 144710, Note_off_c, 0, 56, 80
2, 144710, Note_off_c, 0, 61, 80
2, 144960, Note_on_c, 0, 48, 88
2, 144960, Note_on_c, 0, 56, 88
2, 144960, Note_on_c, 0, 60, 88
2, 145190, Note_off_c, 0, 48, 80
2, 145190, Note_off_c, 0, 56, 80
2, 145190, Note_off_c, 0, 60, 80
2, 145200, Note_on_c, 0, 48, 88
2, 145200, Note_on_c, 0, 56, 88
2, 145200, Note_on_c, 0, 60, 88
2, 145430, Note_off_c, 0, 48, 80
2, 145430, Note_off_c, 0, 56, 80
2, 145430, Note_off_c, 0, 60, 80
2, 145440, Note_on_c, 0, 48, 88
2, 145440, Note_on_c, 0, 56, 88
2, 145440, Note_on_c, 0, 60, 88
2, 145670, Note_off_c, 0, 48, 80
2, 145670, Note_off_c, 0, 56, 80
2, 145670, Note_off_c, 0, 60, 80
2, 145920, Note_on_c, 0, 46, 88
2, 145920, Note_on_c, 0, 53, 88
2, 145920, Note_on_c, 0, 58, 88
2, 146150, Note_off_c, 0, 46, 80
2, 146150, Note_off_c, 0, 53, 80
2, 146150, Note_off_c, 0, 58, 80
2, 146160, Note_on_c, 0, 46, 88
2, 146160, Note_on_c, 0, 53, 88
2, 146160, Note_on_c, 0, 58, 88
2, 146390, Note_off_c, 0, 46, 80
2, 146390, Note_off_c, 0, 53, 80
2, 146390, Note_off_c, 0, 58, 80
2, 146640, Note_on_c, 0, 44, 88
2, 146640, Note_on_c, 0, 51, 88
2, 146640, Note_on_c, 0, 56, 88
2, 147110, Note_off_c, 0, 44, 80
2, 147110, Note_off_c, 0, 51, 80
2, 147110, Note_off_c, 0, 56, 80
2, 147120, Note_on_c, 0, 44, 88
2, 147120, Note_on_c, 0, 51, 88
2, 147120, Note_on_c, 0, 56, 88
2, 147350, Note_off_c, 0, 44, 80
2, 147350, Note_off_c, 0, 51, 80
2, 147350, Note_off_c, 0, 56, 80
2, 147360, Note_on_c, 0, 48, 88
2, 147360, Note_on_c, 0, 56, 88
2, 147360, Note_on_c, 0, 60, 88
2, 147830, Note_off_c, 0, 48, 80
2, 147830, Note_off_c, 0, 56, 80
2, 147830, Note_off_c, 0, 60, 80
2, 147840, Note_on_c, 0, 49, 88
2, 147840, Note_on_c, 0, 56, 88
2, 147840, Note_on_c, 0, 61, 88
2, 148070, Note_off_c, 0, 49, 80
2, 148070, Note_off_c, 0, 56, 80
2, 148070, Note_off_c, 0, 61, 80
2, 148080, Note_on_c, 0, 49, 88
2, 148080, Note_on_c, 0, 56, 88
2, 148080, Note_on_c, 0, 61, 88
2, 148310, Note_off_c, 0, 49, 80
2, 148310, Note_off_c, 0, 56, 80
2, 148310, Note_off_c, 0, 61, 80
2, 148320, Note_on_c, 0, 49, 88
2, 148320, Note_on_c, 0, 56, 88
2, 148320, Note_on_c, 0, 61, 88
2, 148550, Note_off_c, 0, 49, 80
2, 148550, Note_off_c, 0, 56, 80
2, 148550, Note_off_c, 0, 61, 80
2, 148800, Note_on_c, 0, 48, 88
2, 148800, Note_on_c, 0, 56, 88
2, 148800, Note_on_c, 0, 60, 88
2, 149030, Note_off_c, 0, 48, 80
2, 149030, Note_off_c, 0, 56, 80
2, 149030, Note_off_c, 0, 60, 80
2, 149040, Note_on_c, 0, 48, 88
2, 149040, Note_on_c, 0, 56, 88
2, 149040, Note_on_c, 0, 60, 88
2, 149270, Note_off_c, 0, 48, 80
2, 149270, Note_off_c, 0, 56, 80
2, 149270, Note_off_c, 0, 60, 80
2, 149280, Note_on_c, 0, 48, 88
2, 149280, Note_on_c, 0, 56, 88
2, 149280, Note_on_c, 0, 60, 88
2, 149510, Note_off_c, 0, 48, 80
2, 149510, Note_off_c, 0, 56, 80
2, 149510, Note_off_c, 0, 60, 80
2, 149760, Note_on_c, 0, 46, 88
2, 149760, Note_on_c, 0, 53, 88
2, 149760, Note_on_c, 0, 58, 88
2, 149990, Note_off_c, 0, 46, 80
2, 149990, Note_off_c, 0, 53, 80
2, 149990, Note_off_c, 0, 58, 80
2, 150000, Note_on_c, 0, 46, 88
2, 150000, Note_on_c, 0, 53, 88
2, 150000, Note_on_c, 0, 58, 88
2, 150230, Note_off_c, 0, 46, 80
2, 150230, Note_off_c, 0, 53, 80
2, 150230, Note_off_c, 0, 58, 80
2, 150480, Note_on_c, 0, 44, 88
2, 150480, Note_on_c, 0, 51, 88
2, 150480, Note_on_c, 0, 56, 88
2, 150950, Note_off_c, 0, 44, 80
2, 150950, Note_off_c, 0, 51, 80
2, 150950, Note_off_c, 0, 56, 80
2, 150960, Note_on_c, 0, 44, 88
2, 150960, Note_on_c, 0, 51, 88
2, 150960, Note_on_c, 0, 56, 88
2, 151190, Note_off_c, 0, 44, 80
2, 151190, Note_off_c, 0, 51, 80
2, 151190, Note_off_c, 0, 56, 80
2, 151200, Note_on_c, 0, 48, 88
2, 151200, Note_on_c, 0, 56, 88
2, 151200, Note_on_c, 0, 60, 88
2, 151670, Note_off_c, 0, 48, 80
2, 151670, Note_off_c, 0, 56, 80
2, 151670, Note_off_c, 0, 60, 80
2, 151680, Control_c, 0, 7, 104
2, 151680, Note_on_c, 0, 70, 88
2, 152510, Note_off_c, 0, 70, 80
2, 152520, Pitch_bend_c, 0, 6144
2, 152520, Note_on_c, 0, 68, 88
2, 152560, Pitch_bend_c, 0, 6784
2, 152600, Pitch_bend_c, 0, 7552
2, 152640, Pitch_bend_c, 0, 8192
2, 152750, Note_off_c, 0, 68, 80
2, 152760, Note_on_c, 0, 70, 88
2, 152870, Note_off_c, 0, 70, 80
2, 152880, Note_on_c, 0, 73, 88
2, 152910, Pitch_bend_c, 0, 8064
2, 152936, Pitch_bend_c, 0, 8192
2, 152991, Pitch_bend_c, 0, 8320
2, 153017, Pitch_bend_c, 0, 8192
2, 153052, Pitch_bend_c, 0, 8320
2, 153118, Pitch_bend_c, 0, 8192
2, 153133, Pitch_bend_c, 0, 8064
2, 153199, Pitch_bend_c, 0, 8192
2, 153214, Pitch_bend_c, 0, 8320
2, 153280, Pitch_bend_c, 0, 8192
2, 153295, Pitch_bend_c, 0, 8064
2, 153361, Pitch_bend_c, 0, 8192
2, 153376, Pitch_bend_c, 0, 8320
2, 153396, Pitch_bend_c, 0, 8448
2, 153422, Pitch_bend_c, 0, 8320
2, 153442, Pitch_bend_c, 0, 8192
2, 153457, Pitch_bend_c, 0, 8064
2, 153477, Pitch_bend_c, 0, 7936
2, 153503, Pitch_bend_c, 0, 8064
2, 153523, Pitch_bend_c, 0, 8192
2, 153538, Pitch_bend_c, 0, 8320
2, 153558, Pitch_bend_c, 0, 8448
2, 153584, Pitch_bend_c, 0, 8320
2, 153604, Pitch_bend_c, 0, 8192
2, 153619, Pitch_bend_c, 0, 8064
2, 153639, Pitch_bend_c, 0, 7936
2, 153665, Pitch_bend_c, 0, 8064
2, 153685, Pitch_bend_c, 0, 8192
2, 153700, Pitch_bend_c, 0, 8320
2, 153710, Pitch_bend_c, 0, 8448
2, 153756, Pitch_bend_c, 0, 8320
2, 153766, Pitch_bend_c, 0, 8192
2, 153781, Pitch_bend_c, 0, 8064
2, 153791, Pitch_bend_c, 0, 7936
2, 153837, Pitch_bend_c, 0, 8064
2, 153847, Pitch_bend_c, 0, 8192
2, 153862, Pitch_bend_c, 0, 8320
2, 153887, Pitch_bend_c, 0, 8448
2, 153903, Pitch_bend_c, 0, 8320
2, 153928, Pitch_bend_c, 0, 8192
2, 153943, Pitch_bend_c, 0, 8064
2, 153968, Pitch_bend_c, 0, 7936
2, 153984, Pitch_bend_c, 0, 8064
2, 154009, Pitch_bend_c, 0, 8192
2, 154024, Pitch_bend_c, 0, 8320
2, 154044, Pitch_bend_c, 0, 8448
2, 154070, Pitch_bend_c, 0, 8320
2, 154090, Pitch_bend_c, 0, 8192
2, 154105, Pitch_bend_c, 0, 8064
2, 154125, Pitch_bend_c, 0, 7936
2, 154151, Pitch_bend_c, 0, 8064
2, 154171, Pitch_bend_c, 0, 8192
2, 154186, Pitch_bend_c, 0, 8320
2, 154252, Pitch_bend_c, 0, 8192
2, 154267, Pitch_bend_c, 0, 8064
2, 154310, Note_off_c, 0, 73, 80
2, 154320, Pitch_bend_c, 0, 8192
2, 154320, Note_on_c, 0, 70, 88
2, 154790, Note_off_c, 0, 70, 80
2, 154800, Note_on_c, 0, 73, 88
2, 155030, Note_off_c, 0, 73, 80
2, 155040, Note_on_c, 0, 77, 88
2, 155222, Pitch_bend_c, 0, 8320
2, 155268, Pitch_bend_c, 0, 8192
2, 155303, Pitch_bend_c, 0, 8064
2, 155349, Pitch_bend_c, 0, 8192
2, 155374, Pitch_bend_c, 0, 8320
2, 155384, Pitch_bend_c, 0, 8448
2, 155430, Pitch_bend_c, 0, 8320
2, 155440, Pitch_bend_c, 0, 8192
2, 155455, Pitch_bend_c, 0, 8064
2, 155465, Pitch_bend_c, 0, 7936
2, 155511, Pitch_bend_c, 0, 8064
2, 155521, Pitch_bend_c, 0, 8192
2, 155536, Pitch_bend_c, 0, 8320
2, 155556, Pitch_bend_c, 0, 8448
2, 155582, Pitch_bend_c, 0, 8320
2, 155602, Pitch_bend_c, 0, 8192
2, 155617, Pitch_bend_c, 0, 8064
2, 155637, Pitch_bend_c, 0, 7936
2, 155663, Pitch_bend_c, 0, 8064
2, 155683, Pitch_bend_c, 0, 8192
2, 155698, Pitch_bend_c, 0, 8320
2, 155713, Pitch_bend_c, 0, 8448
2, 155749, Pitch_bend_c, 0, 8320
2, 155764, Pitch_bend_c, 0, 8192
2, 155779, Pitch_bend_c, 0, 8064
2, 155794, Pitch_bend_c, 0, 7936
2, 155830, Pitch_bend_c, 0, 8064
2, 155845, Pitch_bend_c, 0, 8192
2, 155860, Pitch_bend_c, 0, 8320
2, 155870, Pitch_bend_c, 0, 8448
2, 155916, Pitch_bend_c, 0, 8320
2, 155926, Pitch_bend_c, 0, 8192
2, 155941, Pitch_bend_c, 0, 8064
2, 155951, Pitch_bend_c, 0, 7936
2, 155997, Pitch_bend_c, 0, 8064
2, 156007, Pitch_bend_c, 0, 8192
2, 156022, Pitch_bend_c, 0, 8320
2, 156032, Pitch_bend_c, 0, 8448
2, 156078, Pitch_bend_c, 0, 8320
2, 156088, Pitch_bend_c, 0, 8192
2, 156103, Pitch_bend_c, 0, 8064
2, 156113, Pitch_bend_c, 0, 7936
2, 156159, Pitch_bend_c, 0, 8064
2, 156169, Pitch_bend_c, 0, 8192
2, 156184, Pitch_bend_c, 0, 8320
2, 156204, Pitch_bend_c, 0, 8448
2, 156230, Pitch_bend_c, 0, 8320
2, 156250, Pitch_bend_c, 0, 8192
2, 156265, Pitch_bend_c, 0, 8064
2, 156285, Pitch_bend_c, 0, 7936
2, 156311, Pitch_bend_c, 0, 8064
2, 156331, Pitch_bend_c, 0, 8192
2, 156346, Pitch_bend_c, 0, 8320
2, 156356, Pitch_bend_c, 0, 8448
2, 156402, Pitch_bend_c, 0, 8320
2, 156412, Pitch_bend_c, 0, 8192
2, 156427, Pitch_bend_c, 0, 8064
2, 156437, Pitch_bend_c, 0, 7936
2, 156483, Pitch_bend_c, 0, 8064
2, 156493, Pitch_bend_c, 0, 8192
2, 156508, Pitch_bend_c, 0, 8320
2, 156528, Pitch_bend_c, 0, 8448
2, 156554, Pitch_bend_c, 0, 8320
2, 156574, Pitch_bend_c, 0, 8192
2, 156589, Pitch_bend_c, 0, 8064
2, 156609, Pitch_bend_c, 0, 7936
2, 156635, Pitch_bend_c, 0, 8064
2, 156655, Pitch_bend_c, 0, 8192
2, 156670, Pitch_bend_c, 0, 8320
2, 156680, Pitch_bend_c, 0, 8448
2, 156726, Pitch_bend_c, 0, 8320
2, 156736, Pitch_bend_c, 0, 8192
2, 156751, Pitch_bend_c, 0, 8064
2, 156761, Pitch_bend_c, 0, 7936
2, 156807, Pitch_bend_c, 0, 8064
2, 156817, Pitch_bend_c, 0, 8192
2, 156832, Pitch_bend_c, 0, 8320
2, 156852, Pitch_bend_c, 0, 8448
2, 156878, Pitch_bend_c, 0, 8320
2, 156898, Pitch_bend_c, 0, 8192
2, 156913, Pitch_bend_c, 0, 8064
2, 156933, Pitch_bend_c, 0, 7936
2, 156959, Pitch_bend_c, 0, 8064
2, 156979, Pitch_bend_c, 0, 8192
2, 156999, Pitch_bend_c, 0, 8320
2, 157055, Pitch_bend_c, 0, 8192
2, 157080, Pitch_bend_c, 0, 8064
2, 157136, Pitch_bend_c, 0, 8192
2, 157190, Note_off_c, 0, 77, 80
2, 157200, Note_on_c, 0, 80, 88
2, 157232, Pitch_bend_c, 0, 8320
2, 157264, Pitch_bend_c, 0, 8448
2, 157280, Pitch_bend_c, 0, 8576
2, 157296, Pitch_bend_c, 0, 8832
2, 157312, Pitch_bend_c, 0, 9088
2, 157328, Pitch_bend_c, 0, 9344
2, 157344, Pitch_bend_c, 0, 9472
2, 157360, Pitch_bend_c, 0, 9600
2, 159110, Note_off_c, 0, 80, 80
2, 159120, Pitch_bend_c, 0, 8192
2, 159120, Note_on_c, 0, 80, 88
2, 159350, Note_off_c, 0, 80, 80
2, 159360, Note_on_c, 0, 72, 88
2, 159760, Pitch_bend_c, 0, 8064
2, 159776, Pitch_bend_c, 0, 7808
2, 159792, Pitch_bend_c, 0, 7680
2, 159824, Pitch_bend_c, 0, 7552
2, 159872, Pitch_bend_c, 0, 7680
2, 159904, Pitch_bend_c, 0, 7808
2, 159920, Pitch_bend_c, 0, 8064
2, 159936, Pitch_bend_c, 0, 8192
2, 160240, Pitch_bend_c, 0, 8064
2, 160256, Pitch_bend_c, 0, 7808
2, 160272, Pitch_bend_c, 0, 7680
2, 160304, Pitch_bend_c, 0, 7552
2, 160352, Pitch_bend_c, 0, 7680
2, 160384, Pitch_bend_c, 0, 7808
2, 160400, Pitch_bend_c, 0, 8064
2, 160416, Pitch_bend_c, 0, 8192
2, 160720, Pitch_bend_c, 0, 8064
2, 160736, Pitch_bend_c, 0, 7808
2, 160752, Pitch_bend_c, 0, 7680
2, 160784, Pitch_bend_c, 0, 7552
2, 160832, Pitch_bend_c, 0, 7680
2, 160864, Pitch_bend_c, 0, 7808
2, 160880, Pitch_bend_c, 0, 8064
2, 160896, Pitch_bend_c, 0, 8192
2, 161200, Pitch_bend_c, 0, 8064
2, 161216, Pitch_bend_c, 0, 7808
2, 161232, Pitch_bend_c, 0, 7680
2, 161264, Pitch_bend_c, 0, 7552
2, 161312, Pitch_bend_c, 0, 7680
2, 161344, Pitch_bend_c, 0, 7808
2, 161360, Pitch_bend_c, 0, 8064
2, 161376, Pitch_bend_c, 0, 8192
2, 161680, Pitch_bend_c, 0, 8064
2, 161696, Pitch_bend_c, 0, 7808
2, 161712, Pitch_bend_c, 0, 7680
2, 161744, Pitch_bend_c, 0, 7552
2, 161792, Pitch_bend_c, 0, 7680
2, 161824, Pitch_bend_c, 0, 7808
2, 161840, Pitch_bend_c, 0, 8064
2, 161856, Pitch_bend_c, 0, 8192
2, 162230, Note_off_c, 0, 72, 80
2, 162240, Note_on_c, 0, 72, 88
2, 162272, Pitch_bend_c, 0, 8320
2, 162304, Pitch_bend_c, 0, 8448
2, 162320, Pitch_bend_c, 0, 8576
2, 162336, Pitch_bend_c, 0, 8704
2, 162352, Pitch_bend_c, 0, 8832
2, 162512, Pitch_bend_c, 0, 8704
2, 162528, Pitch_bend_c, 0, 8576
2, 162544, Pitch_bend_c, 0, 8320
2, 162576, Pitch_bend_c, 0, 8192
2, 162710, Note_off_c, 0, 72, 80
2, 162720, Note_on_c, 0, 70, 88
2, 162950, Note_off_c, 0, 70, 80
2, 162960, Note_on_c, 0, 70, 88
2, 163430, Note_off_c, 0, 70, 80
2, 163440, Note_on_c, 0, 72, 88
2, 163670, Note_off_c, 0, 72, 80
2, 163680, Note_on_c, 0, 68, 88
2, 165350, Note_off_c, 0, 68, 80
2, 165360, Note_on_c, 0, 70, 88
2, 165470, Note_off_c, 0, 70, 80
2, 165480, Note_on_c, 0, 68, 88
2, 165590, Note_off_c, 0, 68, 80
2, 165600, Note_on_c, 0, 70, 88
2, 165710, Note_off_c, 0, 70, 80
2, 165720, Note_on_c, 0, 68, 88
2, 165830, Note_off_c, 0, 68, 80
2, 165840, Note_on_c, 0, 65, 88
2, 165950, Note_off_c, 0, 65, 80
2, 165960, Note_on_c, 0, 68, 88
2, 166070, Note_off_c, 0, 68, 80
2, 166080, Note_on_c, 0, 70, 88
2, 166190, Note_off_c, 0, 70, 80
2, 166200, Note_on_c, 0, 68, 88
2, 166310, Note_off_c, 0, 68, 80
2, 166320, Note_on_c, 0, 70, 88
2, 166430, Note_off_c, 0, 70, 80
2, 166440, Note_on_c, 0, 68, 88
2, 166550, Note_off_c, 0, 68, 80
2, 166560, Note_on_c, 0, 70, 88
2, 166670, Note_off_c, 0, 70, 80
2, 166680, Note_on_c, 0, 68, 88
2, 166790, Note_off_c, 0, 68, 80
2, 166800, Note_on_c, 0, 70, 88
2, 166910, Note_off_c, 0, 70, 80
2, 166920, Note_on_c, 0, 68, 88
2, 167030, Note_off_c, 0, 68, 80
2, 167040, Note_on_c, 0, 72, 88
2, 167440, Pitch_bend_c, 0, 8064
2, 167456, Pitch_bend_c, 0, 7808
2, 167472, Pitch_bend_c, 0, 7680
2, 167504, Pitch_bend_c, 0, 7552
2, 167552, Pitch_bend_c, 0, 7680
2, 167584, Pitch_bend_c, 0, 7808
2, 167600, Pitch_bend_c, 0, 8064
2, 167616, Pitch_bend_c, 0, 8192
2, 167920, Pitch_bend_c, 0, 8064
2, 167936, Pitch_bend_c, 0, 7808
2, 167952, Pitch_bend_c, 0, 7680
2, 167984, Pitch_bend_c, 0, 7552
2, 168032, Pitch_bend_c, 0, 7680
2, 168064, Pitch_bend_c, 0, 7808
2, 168080, Pitch_bend_c, 0, 8064
2, 168096, Pitch_bend_c, 0, 8192
2, 168400, Pitch_bend_c, 0, 8064
2, 168416, Pitch_bend_c, 0, 7808
2, 168432, Pitch_bend_c, 0, 7680
2, 168464, Pitch_bend_c, 0, 7552
2, 168512, Pitch_bend_c, 0, 7680
2, 168544, Pitch_bend_c, 0, 7808
2, 168560, Pitch_bend_c, 0, 8064
2, 168576, Pitch_bend_c, 0, 8192
2, 168880, Pitch_bend_c, 0, 8064
2, 168896, Pitch_bend_c, 0, 7808
2, 168912, Pitch_bend_c, 0, 7680
2, 168944, Pitch_bend_c, 0, 7552
2, 168992, Pitch_bend_c, 0, 7680
2, 169024, Pitch_bend_c, 0, 7808
2, 169040, Pitch_bend_c, 0, 8064
2, 169056, Pitch_bend_c, 0, 8192
2, 169360, Pitch_bend_c, 0, 8064
2, 169376, Pitch_bend_c, 0, 7808
2, 169392, Pitch_bend_c, 0, 7680
2, 169424, Pitch_bend_c, 0, 7552
2, 169472, Pitch_bend_c, 0, 7680
2, 169504, Pitch_bend_c, 0, 7808
2, 169520, Pitch_bend_c, 0, 8064
2, 169536, Pitch_bend_c, 0, 8192
2, 169910, Note_off_c, 0, 72, 80
2, 169920, Note_on_c, 0, 72, 88
2, 169952, Pitch_bend_c, 0, 8320
2, 169984, Pitch_bend_c, 0, 8448
2, 170000, Pitch_bend_c, 0, 8576
2, 170016, Pitch_bend_c, 0, 8704
2, 170032, Pitch_bend_c, 0, 8832
2, 170192, Pitch_bend_c, 0, 8704
2, 170208, Pitch_bend_c, 0, 8576
2, 170224, Pitch_bend_c, 0, 8320
2, 170256, Pitch_bend_c, 0, 8192
2, 170390, Note_off_c, 0, 72, 80
2, 170400, Note_on_c, 0, 70, 88
2, 170630, Note_off_c, 0, 70, 80
2, 170640, Note_on_c, 0, 72, 88
2, 170704, Pitch_bend_c, 0, 8320
2, 170768, Pitch_bend_c, 0, 8448
2, 170816, Pitch_bend_c, 0, 8576
2, 170848, Pitch_bend_c, 0, 8704
2, 170880, Pitch_bend_c, 0, 8832
2, 171280, Pitch_bend_c, 0, 8704
2, 171296, Pitch_bend_c, 0, 8576
2, 171312, Pitch_bend_c, 0, 8448
2, 171344, Pitch_bend_c, 0, 8320
2, 171376, Pitch_bend_c, 0, 8192
2, 171424, Pitch_bend_c, 0, 8320
2, 171456, Pitch_bend_c, 0, 8448
2, 171472, Pitch_bend_c, 0, 8576
2, 171488, Pitch_bend_c, 0, 8704
2, 171504, Pitch_bend_c, 0, 8832
2, 171760, Pitch_bend_c, 0, 8704
2, 171776, Pitch_bend_c, 0, 8576
2, 171792, Pitch_bend_c, 0, 8448
2, 171808, Pitch_bend_c, 0, 8320
2, 171840, Pitch_bend_c, 0, 8192
2, 171904, Pitch_bend_c, 0, 8320
2, 171936, Pitch_bend_c, 0, 8448
2, 171952, Pitch_bend_c, 0, 8576
2, 171968, Pitch_bend_c, 0, 8704
2, 171984, Pitch_bend_c, 0, 8832
2, 172240, Pitch_bend_c, 0, 8704
2, 172256, Pitch_bend_c, 0, 8576
2, 172272, Pitch_bend_c, 0, 8448
2, 172288, Pitch_bend_c, 0, 8320
2, 172320, Pitch_bend_c, 0, 8192
2, 172384, Pitch_bend_c, 0, 8320
2, 172448, Pitch_bend_c, 0, 8448
2, 172464, Pitch_bend_c, 0, 8576
2, 172496, Pitch_bend_c, 0, 8704
2, 172512, Pitch_bend_c, 0, 8832
2, 172784, Pitch_bend_c, 0, 8704
2, 172800, Pitch_bend_c, 0, 8576
2, 172816, Pitch_bend_c, 0, 8448
2, 172832, Pitch_bend_c, 0, 8320
2, 172864, Pitch_bend_c, 0, 8192
2, 172912, Pitch_bend_c, 0, 8320
2, 172944, Pitch_bend_c, 0, 8448
2, 172976, Pitch_bend_c, 0, 8576
2, 172992, Pitch_bend_c, 0, 8704
2, 173008, Pitch_bend_c, 0, 8832
2, 173328, Pitch_bend_c, 0, 8704
2, 173344, Pitch_bend_c, 0, 8576
2, 173360, Pitch_bend_c, 0, 8448
2, 173376, Pitch_bend_c, 0, 8320
2, 173408, Pitch_bend_c, 0, 8192
2, 173456, Pitch_bend_c, 0, 8320
2, 173488, Pitch_bend_c, 0, 8448
2, 173520, Pitch_bend_c, 0, 8576
2, 173536, Pitch_bend_c, 0, 8704
2, 173552, Pitch_bend_c, 0, 8832
2, 173872, Pitch_bend_c, 0, 8704
2, 173888, Pitch_bend_c, 0, 8576
2, 173904, Pitch_bend_c, 0, 8448
2, 173920, Pitch_bend_c, 0, 8320
2, 173952, Pitch_bend_c, 0, 8192
2, 174000, Pitch_bend_c, 0, 8320
2, 174032, Pitch_bend_c, 0, 8448
2, 174064, Pitch_bend_c, 0, 8576
2, 174080, Pitch_bend_c, 0, 8704
2, 174096, Pitch_bend_c, 0, 8832
2, 174416, Pitch_bend_c, 0, 8704
2, 174432, Pitch_bend_c, 0, 8576
2, 174448, Pitch_bend_c, 0, 8448
2, 174464, Pitch_bend_c, 0, 8320
2, 174496, Pitch_bend_c, 0, 8192
2, 174560, Pitch_bend_c, 0, 8320
2, 174624, Pitch_bend_c, 0, 8448
2, 174640, Pitch_bend_c, 0, 8576
2, 174672, Pitch_bend_c, 0, 8704
2, 174688, Pitch_bend_c, 0, 8832
2, 174710, Note_off_c, 0, 72, 80
2, 174720, Pitch_bend_c, 0, 8192
2, 174720, Control_c, 0, 7, 56
2, 174720, Note_on_c, 0, 49, 88
2, 174720, Note_on_c, 0, 56, 88
2, 174720, Note_on_c, 0, 61, 88
2, 174950, Note_off_c, 0, 49, 80
2, 174950, Note_off_c, 0, 56, 80
2, 174950, Note_off_c, 0, 61, 80
2, 174960, Note_on_c, 0, 49, 88
2, 174960, Note_on_c, 0, 56, 88
2, 174960, Note_on_c, 0, 61, 88
2, 175190, Note_off_c, 0, 49, 80
2, 175190, Note_off_c, 0, 56, 80
2, 175190, Note_off_c, 0, 61, 80
2, 175200, Note_on_c, 0, 49, 88
2, 175200, Note_on_c, 0, 56, 88
2, 175200, Note_on_c, 0, 61, 88
2, 175430, Note_off_c, 0, 49, 80
2, 175430, Note_off_c, 0, 56, 80
2, 175430, Note_off_c, 0, 61, 80
2, 175440, Note_on_c, 0, 49, 88
2, 175440, Note_on_c, 0, 56, 88
2, 175440, Note_on_c, 0, 61, 88
2, 175910, Note_off_c, 0, 49, 80
2, 175910, Note_off_c, 0, 56, 80
2, 175910, Note_off_c, 0, 61, 80
2, 175920, Note_on_c, 0, 49, 88
2, 175920, Note_on_c, 0, 56, 88
2, 175920, Note_on_c, 0, 61, 88
2, 176150, Note_off_c, 0, 49, 80
2, 176150, Note_off_c, 0, 56, 80
2, 176150, Note_off_c, 0, 61, 80
2, 176160, Note_on_c, 0, 49, 88
2, 176160, Note_on_c, 0, 56, 88
2, 176160, Note_on_c, 0, 61, 88
2, 176630, Note_off_c, 0, 49, 80
2, 176630, Note_off_c, 0, 56, 80
2, 176630, Note_off_c, 0, 61, 80
2, 176640, Note_on_c, 0, 48, 88
2, 176640, Note_on_c, 0, 56, 88
2, 176640, Note_on_c, 0, 60, 88
2, 176870, Note_off_c, 0, 48, 80
2, 176870, Note_off_c, 0, 56, 80
2, 176870, Note_off_c, 0, 60, 80
2, 176880, Note_on_c, 0, 48, 88
2, 176880, Note_on_c, 0, 56, 88
2, 176880, Note_on_c, 0, 60, 88
2, 177110, Note_off_c, 0, 48, 80
2, 177110, Note_off_c, 0, 56, 80
2, 177110, Note_off_c, 0, 60, 80
2, 177120, Note_on_c, 0, 48, 88
2, 177120, Note_on_c, 0, 56, 88
2, 177120, Note_on_c, 0, 60, 88
2, 177350, Note_off_c, 0, 48, 80
2, 177350, Note_off_c, 0, 56, 80
2, 177350, Note_off_c, 0, 60, 80
2, 177360, Note_on_c, 0, 48, 88
2, 177360, Note_on_c, 0, 56, 88
2, 177360, Note_on_c, 0, 60, 88
2, 177830, Note_off_c, 0, 48, 80
2, 177830, Note_off_c, 0, 56, 80
2, 177830, Note_off_c, 0, 60, 80
2, 177840, Note_on_c, 0, 48, 88
2, 177840, Note_on_c, 0, 56, 88
2, 177840, Note_on_c, 0, 60, 88
2, 178070, Note_off_c, 0, 48, 80
2, 178070, Note_off_c, 0, 56, 80
2, 178070, Note_off_c, 0, 60, 80
2, 178080, Note_on_c, 0, 48, 88
2, 178080, Note_on_c, 0, 56, 88
2, 178080, Note_on_c, 0, 60, 88
2, 178550, Note_off_c, 0, 48, 80
2, 178550, Note_off_c, 0, 56, 80
2, 178550, Note_off_c, 0, 60, 80
2, 178560, Note_on_c, 0, 46, 88
2, 178560, Note_on_c, 0, 51, 88
2, 178560, Note_on_c, 0, 58, 88
2, 178790, Note_off_c, 0, 46, 80
2, 178790, Note_off_c, 0, 51, 80
2, 178790, Note_off_c, 0, 58, 80
2, 178800, Note_on_c, 0, 46, 88
2, 178800, Note_on_c, 0, 51, 88
2, 178800, Note_on_c, 0, 58, 88
2, 179030, Note_off_c, 0, 46, 80
2, 179030, Note_off_c, 0, 51, 80
2, 179030, Note_off_c, 0, 58, 80
2, 179040, Note_on_c, 0, 46, 88
2, 179040, Note_on_c, 0, 51, 88
2, 179040, Note_on_c, 0, 58, 88
2, 179270, Note_off_c, 0, 46, 80
2, 179270, Note_off_c, 0, 51, 80
2, 179270, Note_off_c, 0, 58, 80
2, 179280, Note_on_c, 0, 46, 88
2, 179280, Note_on_c, 0, 51, 88
2, 179280, Note_on_c, 0, 58, 88
2, 179510, Note_off_c, 0, 46, 80
2, 179510, Note_off_c, 0, 51, 80
2, 179510, Note_off_c, 0, 58, 80
2, 179520, Note_on_c, 0, 46, 88
2, 179520, Note_on_c, 0, 51, 88
2, 179520, Note_on_c, 0, 58, 88
2, 179750, Note_off_c, 0, 46, 80
2, 179750, Note_off_c, 0, 51, 80
2, 179750, Note_off_c, 0, 58, 80
2, 179760, Note_on_c, 0, 46, 88
2, 179760, Note_on_c, 0, 51, 88
2, 179760, Note_on_c, 0, 58, 88
2, 179990, Note_off_c, 0, 46, 80
2, 179990, Note_off_c, 0, 51, 80
2, 179990, Note_off_c, 0, 58, 80
2, 180000, Note_on_c, 0, 46, 88
2, 180000, Note_on_c, 0, 51, 88
2, 180000, Note_on_c, 0, 58, 88
2, 180230, Note_off_c, 0, 46, 80
2, 180230, Note_off_c, 0, 51, 80
2, 180230, Note_off_c, 0, 58, 80
2, 180240, Note_on_c, 0, 46, 88
2, 180240, Note_on_c, 0, 51, 88
2, 180240, Note_on_c, 0, 58, 88
2, 180470, Note_off_c, 0, 46, 80
2, 180470, Note_off_c, 0, 51, 80
2, 180470, Note_off_c, 0, 58, 80
2, 180480, Note_on_c, 0, 46, 88
2, 180480, Note_on_c, 0, 51, 88
2, 180480, Note_on_c, 0, 58, 88
2, 180710, Note_off_c, 0, 46, 80
2, 180710, Note_off_c, 0, 51, 80
2, 180710, Note_off_c, 0, 58, 80
2, 180720, Note_on_c, 0, 46, 88
2, 180720, Note_on_c, 0, 51, 88
2, 180720, Note_on_c, 0, 58, 88
2, 180950, Note_off_c, 0, 46, 80
2, 180950, Note_off_c, 0, 51, 80
2, 180950, Note_off_c, 0, 58, 80
2, 180960, Note_on_c, 0, 46, 88
2, 180960, Note_on_c, 0, 51, 88
2, 180960, Note_on_c, 0, 58, 88
2, 181190, Note_off_c, 0, 46, 80
2, 181190, Note_off_c, 0, 51, 80
2, 181190, Note_off_c, 0, 58, 80
2, 181200, Note_on_c, 0, 46, 88
2, 181200, Note_on_c, 0, 51, 88
2, 181200, Note_on_c, 0, 58, 88
2, 181430, Note_off_c, 0, 46, 80
2, 181430, Note_off_c, 0, 51, 80
2, 181430, Note_off_c, 0, 58, 80
2, 181440, Note_on_c, 0, 46, 88
2, 181440, Note_on_c, 0, 51, 88
2, 181440, Note_on_c, 0, 58, 88
2, 181670, Note_off_c, 0, 46, 80
2, 181670, Note_off_c, 0, 51, 80
2, 181670, Note_off_c, 0, 58, 80
2, 181680, Note_on_c, 0, 46, 88
2, 181680, Note_on_c, 0, 51, 88
2, 181680, Note_on_c, 0, 58, 88
2, 181910, Note_off_c, 0, 46, 80
2, 181910, Note_off_c, 0, 51, 80
2, 181910, Note_off_c, 0, 58, 80
2, 181920, Note_on_c, 0, 46, 88
2, 181920, Note_on_c, 0, 51, 88
2, 181920, Note_on_c, 0, 58, 88
2, 182150, Note_off_c, 0, 46, 80
2, 182150, Note_off_c, 0, 51, 80
2, 182150, Note_off_c, 0, 58, 80
2, 182160, Note_on_c, 0, 46, 88
2, 182160, Note_on_c, 0, 51, 88
2, 182160, Note_on_c, 0, 58, 88
2, 182390, Note_off_c, 0, 46, 80
2, 182390, Note_off_c, 0, 51, 80
2, 182390, Note_off_c, 0, 58, 80
2, 182400, Note_on_c, 0, 49, 88
2, 182400, Note_on_c, 0, 56, 88
2, 182400, Note_on_c, 0, 61, 88
2, 182630, Note_off_c, 0, 49, 80
2, 182630, Note_off_c, 0, 56, 80
2, 182630, Note_off_c, 0, 61, 80
2, 182640, Note_on_c, 0, 49, 88
2, 182640, Note_on_c, 0, 56, 88
2, 182640, Note_on_c, 0, 61, 88
2, 182870, Note_off_c, 0, 49, 80
2, 182870, Note_off_c, 0, 56, 80
2, 182870, Note_off_c, 0, 61, 80
2, 182880, Note_on_c, 0, 49, 88
2, 182880, Note_on_c, 0, 56, 88
2, 182880, Note_on_c, 0, 61, 88
2, 183110, Note_off_c, 0, 49, 80
2, 183110, Note_off_c, 0, 56, 80
2, 183110, Note_off_c, 0, 61, 80
2, 183120, Note_on_c, 0, 49, 88
2, 183120, Note_on_c, 0, 56, 88
2, 183120, Note_on_c, 0, 61, 88
2, 183590, Note_off_c, 0, 49, 80
2, 183590, Note_off_c, 0, 56, 80
2, 183590, Note_off_c, 0, 61, 80
2, 183600, Note_on_c, 0, 49, 88
2, 183600, Note_on_c, 0, 56, 88
2, 183600, Note_on_c, 0, 61, 88
2, 183830, Note_off_c, 0, 49, 80
2, 183830, Note_off_c, 0, 56, 80
2, 183830, Note_off_c, 0, 61, 80
2, 183840, Note_on_c, 0, 49, 88
2, 183840, Note_on_c, 0, 56, 88
2, 183840, Note_on_c, 0, 61, 88
2, 184310, Note_off_c, 0, 49, 80
2, 184310, Note_off_c, 0, 56, 80
2, 184310, Note_off_c, 0, 61, 80
2, 184320, Note_on_c, 0, 48, 88
2, 184320, Note_on_c, 0, 56, 88
2, 184320, Note_on_c, 0, 60, 88
2, 184550, Note_off_c, 0, 48, 80
2, 184550, Note_off_c, 0, 56, 80
2, 184550, Note_off_c, 0, 60, 80
2, 184560, Note_on_c, 0, 48, 88
2, 184560, Note_on_c, 0, 56, 88
2, 184560, Note_on_c, 0, 60, 88
2, 184790, Note_off_c, 0, 48, 80
2, 184790, Note_off_c, 0, 56, 80
2, 184790, Note_off_c, 0, 60, 80
2, 184800, Note_on_c, 0, 48, 88
2, 184800, Note_on_c, 0, 56, 88
2, 184800, Note_on_c, 0, 60, 88
2, 185030, Note_off_c, 0, 48, 80
2, 185030, Note_off_c, 0, 56, 80
2, 185030, Note_off_c, 0, 60, 80
2, 185040, Note_on_c, 0, 48, 88
2, 185040, Note_on_c, 0, 56, 88
2, 185040, Note_on_c, 0, 60, 88
2, 185510, Note_off_c, 0, 48, 80
2, 185510, Note_off_c, 0, 56, 80
2, 185510, Note_off_c, 0, 60, 80
2, 185520, Note_on_c, 0, 48, 88
2, 185520, Note_on_c, 0, 56, 88
2, 185520, Note_on_c, 0, 60, 88
2, 185750, Note_off_c, 0, 48, 80
2, 185750, Note_off_c, 0, 56, 80
2, 185750, Note_off_c, 0, 60, 80
2, 185760, Note_on_c, 0, 48, 88
2, 185760, Note_on_c, 0, 56, 88
2, 185760, Note_on_c, 0, 60, 88
2, 186230, Note_off_c, 0, 48, 80
2, 186230, Note_off_c, 0, 56, 80
2, 186230, Note_off_c, 0, 60, 80
2, 186240, Note_on_c, 0, 46, 88
2, 186240, Note_on_c, 0, 51, 88
2, 186240, Note_on_c, 0, 58, 88
2, 186470, Note_off_c, 0, 46, 80
2, 186470, Note_off_c, 0, 51, 80
2, 186470, Note_off_c, 0, 58, 80
2, 186480, Note_on_c, 0, 46, 88
2, 186480, Note_on_c, 0, 51, 88
2, 186480, Note_on_c, 0, 58, 88
2, 186710, Note_off_c, 0, 46, 80
2, 186710, Note_off_c, 0, 51, 80
2, 186710, Note_off_c, 0, 58, 80
2, 186720, Note_on_c, 0, 46, 88
2, 186720, Note_on_c, 0, 51, 88
2, 186720, Note_on_c, 0, 58, 88
2, 186950, Note_off_c, 0, 46, 80
2, 186950, Note_off_c, 0, 51, 80
2, 186950, Note_off_c, 0, 58, 80
2, 186960, Note_on_c, 0, 46, 88
2, 186960, Note_on_c, 0, 51, 88
2, 186960, Note_on_c, 0, 58, 88
2, 187190, Note_off_c, 0, 46, 80
2, 187190, Note_off_c, 0, 51, 80
2, 187190, Note_off_c, 0, 58, 80
2, 187200, Note_on_c, 0, 46, 88
2, 187200, Note_on_c, 0, 51, 88
2, 187200, Note_on_c, 0, 58, 88
2, 187430, Note_off_c, 0, 46, 80
2, 187430, Note_off_c, 0, 51, 80
2, 187430, Note_off_c, 0, 58, 80
2, 187440, Note_on_c, 0, 46, 88
2, 187440, Note_on_c, 0, 51, 88
2, 187440, Note_on_c, 0, 58, 88
2, 187670, Note_off_c, 0, 46, 80
2, 187670, Note_off_c, 0, 51, 80
2, 187670, Note_off_c, 0, 58, 80
2, 187680, Note_on_c, 0, 46, 88
2, 187680, Note_on_c, 0, 51, 88
2, 187680, Note_on_c, 0, 58, 88
2, 187910, Note_off_c, 0, 46, 80
2, 187910, Note_off_c, 0, 51, 80
2, 187910, Note_off_c, 0, 58, 80
2, 187920, Note_on_c, 0, 46, 88
2, 187920, Note_on_c, 0, 51, 88
2, 187920, Note_on_c, 0, 58, 88
2, 188150, Note_off_c, 0, 46, 80
2, 188150, Note_off_c, 0, 51, 80
2, 188150, Note_off_c, 0, 58, 80
2, 188160, Note_on_c, 0, 46, 88
2, 188160, Note_on_c, 0, 51, 88
2, 188160, Note_on_c, 0, 58, 88
2, 188390, Note_off_c, 0, 46, 80
2, 188390, Note_off_c, 0, 51, 80
2, 188390, Note_off_c, 0, 58, 80
2, 188400, Note_on_c, 0, 46, 88
2, 188400, Note_on_c, 0, 51, 88
2, 188400, Note_on_c, 0, 58, 88
2, 188630, Note_off_c, 0, 46, 80
2, 188630, Note_off_c, 0, 51, 80
2, 188630, Note_off_c, 0, 58, 80
2, 188640, Note_on_c, 0, 46, 88
2, 188640, Note_on_c, 0, 51, 88
2, 188640, Note_on_c, 0, 58, 88
2, 188870, Note_off_c, 0, 46, 80
2, 188870, Note_off_c, 0, 51, 80
2, 188870, Note_off_c, 0, 58, 80
2, 188880, Note_on_c, 0, 46, 88
2, 188880, Note_on_c, 0, 51, 88
2, 188880, Note_on_c, 0, 58, 88
2, 189110, Note_off_c, 0, 46, 80
2, 189110, Note_off_c, 0, 51, 80
2, 189110, Note_off_c, 0, 58, 80
2, 189120, Note_on_c, 0, 46, 88
2, 189120, Note_on_c, 0, 51, 88
2, 189120, Note_on_c, 0, 58, 88
2, 189350, Note_off_c, 0, 46, 80
2, 189350, Note_off_c, 0, 51, 80
2, 189350, Note_off_c, 0, 58, 80
2, 189360, Note_on_c, 0, 46, 88
2, 189360, Note_on_c, 0, 51, 88
2, 189360, Note_on_c, 0, 58, 88
2, 189590, Note_off_c, 0, 46, 80
2, 189590, Note_off_c, 0, 51, 80
2, 189590, Note_off_c, 0, 58, 80
2, 189600, Note_on_c, 0, 46, 88
2, 189600, Note_on_c, 0, 51, 88
2, 189600, Note_on_c, 0, 58, 88
2, 189830, Note_off_c, 0, 46, 80
2, 189830, Note_off_c, 0, 51, 80
2, 189830, Note_off_c, 0, 58, 80
2, 189840, Note_on_c, 0, 46, 88
2, 189840, Note_on_c, 0, 51, 88
2, 189840, Note_on_c, 0, 58, 88
2, 190070, Note_off_c, 0, 46, 80
2, 190070, Note_off_c, 0, 51, 80
2, 190070, Note_off_c, 0, 58, 80
2, 190080, Note_on_c, 0, 42, 88
2, 190080, Note_on_c, 0, 49, 88
2, 190080, Note_on_c, 0, 54, 88
2, 190310, Note_off_c, 0, 42, 80
2, 190310, Note_off_c, 0, 49, 80
2, 190310, Note_off_c, 0, 54, 80
2, 190320, Note_on_c, 0, 42, 88
2, 190320, Note_on_c, 0, 49, 88
2, 190320, Note_on_c, 0, 54, 88
2, 190550, Note_off_c, 0, 42, 80
2, 190550, Note_off_c, 0, 49, 80
2, 190550, Note_off_c, 0, 54, 80
2, 190560, Note_on_c, 0, 42, 88
2, 190560, Note_on_c, 0, 49, 88
2, 190560, Note_on_c, 0, 54, 88
2, 190790, Note_off_c, 0, 42, 80
2, 190790, Note_off_c, 0, 49, 80
2, 190790, Note_off_c, 0, 54, 80
2, 190800, Note_on_c, 0, 42, 88
2, 190800, Note_on_c, 0, 49, 88
2, 190800, Note_on_c, 0, 54, 88
2, 191270, Note_off_c, 0, 42, 80
2, 191270, Note_off_c, 0, 49, 80
2, 191270, Note_off_c, 0, 54, 80
2, 191280, Note_on_c, 0, 42, 88
2, 191280, Note_on_c, 0, 49, 88
2, 191280, Note_on_c, 0, 54, 88
2, 191750, Note_off_c, 0, 42, 80
2, 191750, Note_off_c, 0, 49, 80
2, 191750, Note_off_c, 0, 54, 80
2, 191760, Note_on_c, 0, 42, 88
2, 191760, Note_on_c, 0, 49, 88
2, 191760, Note_on_c, 0, 54, 88
2, 191990, Note_off_c, 0, 42, 80
2, 191990, Note_off_c, 0, 49, 80
2, 191990, Note_off_c, 0, 54, 80
2, 192000, Note_on_c, 0, 42, 88
2, 192000, Note_on_c, 0, 49, 88
2, 192000, Note_on_c, 0, 54, 88
2, 192230, Note_off_c, 0, 42, 80
2, 192230, Note_off_c, 0, 49, 80
2, 192230, Note_off_c, 0, 54, 80
2, 192240, Note_on_c, 0, 42, 88
2, 192240, Note_on_c, 0, 49, 88
2, 192240, Note_on_c, 0, 54, 88
2, 192470, Note_off_c, 0, 42, 80
2, 192470, Note_off_c, 0, 49, 80
2, 192470, Note_off_c, 0, 54, 80
2, 192480, Note_on_c, 0, 42, 88
2, 192480, Note_on_c, 0, 49, 88
2, 192480, Note_on_c, 0, 54, 88
2, 192710, Note_off_c, 0, 42, 80
2, 192710, Note_off_c, 0, 49, 80
2, 192710, Note_off_c, 0, 54, 80
2, 192720, Note_on_c, 0, 42, 88
2, 192720, Note_on_c, 0, 49, 88
2, 192720, Note_on_c, 0, 54, 88
2, 193190, Note_off_c, 0, 42, 80
2, 193190, Note_off_c, 0, 49, 80
2, 193190, Note_off_c, 0, 54, 80
2, 193200, Note_on_c, 0, 42, 88
2, 193200, Note_on_c, 0, 49, 88
2, 193200, Note_on_c, 0, 54, 88
2, 193670, Note_off_c, 0, 42, 80
2, 193670, Note_off_c, 0, 49, 80
2, 193670, Note_off_c, 0, 54, 80
2, 193680, Note_on_c, 0, 42, 88
2, 193680, Note_on_c, 0, 49, 88
2, 193680, Note_on_c, 0, 54, 88
2, 193910, Note_off_c, 0, 42, 80
2, 193910, Note_off_c, 0, 49, 80
2, 193910, Note_off_c, 0, 54, 80
2, 193920, Note_on_c, 0, 42, 88
2, 193920, Note_on_c, 0, 49, 88
2, 193920, Note_on_c, 0, 54, 88
2, 194150, Note_off_c, 0, 42, 80
2, 194150, Note_off_c, 0, 49, 80
2, 194150, Note_off_c, 0, 54, 80
2, 194160, Note_on_c, 0, 42, 88
2, 194160, Note_on_c, 0, 49, 88
2, 194160, Note_on_c, 0, 54, 88
2, 194390, Note_off_c, 0, 42, 80
2, 194390, Note_off_c, 0, 49, 80
2, 194390, Note_off_c, 0, 54, 80
2, 194400, Note_on_c, 0, 42, 88
2, 194400, Note_on_c, 0, 49, 88
2, 194400, Note_on_c, 0, 54, 88
2, 194630, Note_off_c, 0, 42, 80
2, 194630, Note_off_c, 0, 49, 80
2, 194630, Note_off_c, 0, 54, 80
2, 194640, Note_on_c, 0, 42, 88
2, 194640, Note_on_c, 0, 49, 88
2, 194640, Note_on_c, 0, 54, 88
2, 195110, Note_off_c, 0, 42, 80
2, 195110, Note_off_c, 0, 49, 80
2, 195110, Note_off_c, 0, 54, 80
2, 195120, Note_on_c, 0, 42, 88
2, 195120, Note_on_c, 0, 49, 88
2, 195120, Note_on_c, 0, 54, 88
2, 195590, Note_off_c, 0, 42, 80
2, 195590, Note_off_c, 0, 49, 80
2, 195590, Note_off_c, 0, 54, 80
2, 195600, Note_on_c, 0, 42, 88
2, 195600, Note_on_c, 0, 49, 88
2, 195600, Note_on_c, 0, 54, 88
2, 195830, Note_off_c, 0, 42, 80
2, 195830, Note_off_c, 0, 49, 80
2, 195830, Note_off_c, 0, 54, 80
2, 195840, Note_on_c, 0, 42, 88
2, 195840, Note_on_c, 0, 49, 88
2, 195840, Note_on_c, 0, 54, 88
2, 196070, Note_off_c, 0, 42, 80
2, 196070, Note_off_c, 0, 49, 80
2, 196070, Note_off_c, 0, 54, 80
2, 196080, Note_on_c, 0, 42, 88
2, 196080, Note_on_c, 0, 49, 88
2, 196080, Note_on_c, 0, 54, 88
2, 196310, Note_off_c, 0, 42, 80
2, 196310, Note_off_c, 0, 49, 80
2, 196310, Note_off_c, 0, 54, 80
2, 196320, Note_on_c, 0, 42, 88
2, 196320, Note_on_c, 0, 49, 88
2, 196320, Note_on_c, 0, 54, 88
2, 196550, Note_off_c, 0, 42, 80
2, 196550, Note_off_c, 0, 49, 80
2, 196550, Note_off_c, 0, 54, 80
2, 196560, Note_on_c, 0, 42, 88
2, 196560, Note_on_c, 0, 49, 88
2, 196560, Note_on_c, 0, 54, 88
2, 197030, Note_off_c, 0, 42, 80
2, 197030, Note_off_c, 0, 49, 80
2, 197030, Note_off_c, 0, 54, 80
2, 197040, Note_on_c, 0, 42, 88
2, 197040, Note_on_c, 0, 49, 88
2, 197040, Note_on_c, 0, 54, 88
2, 197510, Note_off_c, 0, 42, 80
2, 197510, Note_off_c, 0, 49, 80
2, 197510, Note_off_c, 0, 54, 80
2, 197520, Note_on_c, 0, 42, 88
2, 197520, Note_on_c, 0, 49, 88
2, 197520, Note_on_c, 0, 54, 88
2, 197750, Note_off_c, 0, 42, 80
2, 197750, Note_off_c, 0, 49, 80
2, 197750, Note_off_c, 0, 54, 80
2, 197760, Note_on_c, 0, 42, 88
2, 197760, Note_on_c, 0, 49, 88
2, 197760, Note_on_c, 0, 54, 88
2, 197990, Note_off_c, 0, 42, 80
2, 197990, Note_off_c, 0, 49, 80
2, 197990, Note_off_c, 0, 54, 80
2, 198000, Note_on_c, 0, 42, 88
2, 198000, Note_on_c, 0, 49, 88
2, 198000, Note_on_c, 0, 54, 88
2, 198230, Note_off_c, 0, 42, 80
2, 198230, Note_off_c, 0, 49, 80
2, 198230, Note_off_c, 0, 54, 80
2, 198240, Note_on_c, 0, 42, 88
2, 198240, Note_on_c, 0, 49, 88
2, 198240, Note_on_c, 0, 54, 88
2, 198470, Note_off_c, 0, 42, 80
2, 198470, Note_off_c, 0, 49, 80
2, 198470, Note_off_c, 0, 54, 80
2, 198480, Note_on_c, 0, 42, 88
2, 198480, Note_on_c, 0, 49, 88
2, 198480, Note_on_c, 0, 54, 88
2, 198950, Note_off_c, 0, 42, 80
2, 198950, Note_off_c, 0, 49, 80
2, 198950, Note_off_c, 0, 54, 80
2, 198960, Note_on_c, 0, 42, 88
2, 198960, Note_on_c, 0, 49, 88
2, 198960, Note_on_c, 0, 54, 88
2, 199430, Note_off_c, 0, 42, 80
2, 199430, Note_off_c, 0, 49, 80
2, 199430, Note_off_c, 0, 54, 80
2, 199440, Note_on_c, 0, 42, 88
2, 199440, Note_on_c, 0, 49, 88
2, 199440, Note_on_c, 0, 54, 88
2, 199670, Note_off_c, 0, 42, 80
2, 199670, Note_off_c, 0, 49, 80
2, 199670, Note_off_c, 0, 54, 80
2, 199680, Note_on_c, 0, 42, 88
2, 199680, Note_on_c, 0, 49, 88
2, 199680, Note_on_c, 0, 54, 88
2, 199910, Note_off_c, 0, 42, 80
2, 199910, Note_off_c, 0, 49, 80
2, 199910, Note_off_c, 0, 54, 80
2, 199920, Note_on_c, 0, 42, 88
2, 199920, Note_on_c, 0, 49, 88
2, 199920, Note_on_c, 0, 54, 88
2, 200150, Note_off_c, 0, 42, 80
2, 200150, Note_off_c, 0, 49, 80
2, 200150, Note_off_c, 0, 54, 80
2, 200160, Note_on_c, 0, 42, 88
2, 200160, Note_on_c, 0, 49, 88
2, 200160, Note_on_c, 0, 54, 88
2, 200390, Note_off_c, 0, 42, 80
2, 200390, Note_off_c, 0, 49, 80
2, 200390, Note_off_c, 0, 54, 80
2, 200400, Note_on_c, 0, 42, 88
2, 200400, Note_on_c, 0, 49, 88
2, 200400, Note_on_c, 0, 54, 88
2, 200870, Note_off_c, 0, 42, 80
2, 200870, Note_off_c, 0, 49, 80
2, 200870, Note_off_c, 0, 54, 80
2, 200880, Note_on_c, 0, 42, 88
2, 200880, Note_on_c, 0, 49, 88
2, 200880, Note_on_c, 0, 54, 88
2, 201350, Note_off_c, 0, 42, 80
2, 201350, Note_off_c, 0, 49, 80
2, 201350, Note_off_c, 0, 54, 80
2, 201360, Note_on_c, 0, 42, 88
2, 201360, Note_on_c, 0, 49, 88
2, 201360, Note_on_c, 0, 54, 88
2, 201590, Note_off_c, 0, 42, 80
2, 201590, Note_off_c, 0, 49, 80
2, 201590, Note_off_c, 0, 54, 80
2, 201600, Note_on_c, 0, 42, 88
2, 201600, Note_on_c, 0, 49, 88
2, 201600, Note_on_c, 0, 54, 88
2, 201830, Note_off_c, 0, 42, 80
2, 201830, Note_off_c, 0, 49, 80
2, 201830, Note_off_c, 0, 54, 80
2, 201840, Note_on_c, 0, 42, 88
2, 201840, Note_on_c, 0, 49, 88
2, 201840, Note_on_c, 0, 54, 88
2, 202070, Note_off_c, 0, 42, 80
2, 202070, Note_off_c, 0, 49, 80
2, 202070, Note_off_c, 0, 54, 80
2, 202080, Note_on_c, 0, 42, 88
2, 202080, Note_on_c, 0, 49, 88
2, 202080, Note_on_c, 0, 54, 88
2, 202310, Note_off_c, 0, 42, 80
2, 202310, Note_off_c, 0, 49, 80
2, 202310, Note_off_c, 0, 54, 80
2, 202320, Note_on_c, 0, 42, 88
2, 202320, Note_on_c, 0, 49, 88
2, 202320, Note_on_c, 0, 54, 88
2, 202790, Note_off_c, 0, 42, 80
2, 202790, Note_off_c, 0, 49, 80
2, 202790, Note_off_c, 0, 54, 80
2, 202800, Note_on_c, 0, 42, 88
2, 202800, Note_on_c, 0, 49, 88
2, 202800, Note_on_c, 0, 54, 88
2, 203270, Note_off_c, 0, 42, 80
2, 203270, Note_off_c, 0, 49, 80
2, 203270, Note_off_c, 0, 54, 80
2, 203280, Note_on_c, 0, 42, 88
2, 203280, Note_on_c, 0, 49, 88
2, 203280, Note_on_c, 0, 54, 88
2, 203510, Note_off_c, 0, 42, 80
2, 203510, Note_off_c, 0, 49, 80
2, 203510, Note_off_c, 0, 54, 80
2, 203520, Note_on_c, 0, 42, 88
2, 203520, Note_on_c, 0, 49, 88
2, 203520, Note_on_c, 0, 54, 88
2, 203750, Note_off_c, 0, 42, 80
2, 203750, Note_off_c, 0, 49, 80
2, 203750, Note_off_c, 0, 54, 80
2, 203760, Note_on_c, 0, 42, 88
2, 203760, Note_on_c, 0, 49, 88
2, 203760, Note_on_c, 0, 54, 88
2, 203990, Note_off_c, 0, 42, 80
2, 203990, Note_off_c, 0, 49, 80
2, 203990, Note_off_c, 0, 54, 80
2, 204000, Note_on_c, 0, 42, 88
2, 204000, Note_on_c, 0, 49, 88
2, 204000, Note_on_c, 0, 54, 88
2, 204230, Note_off_c, 0, 42, 80
2, 204230, Note_off_c, 0, 49, 80
2, 204230, Note_off_c, 0, 54, 80
2, 204240, Note_on_c, 0, 42, 88
2, 204240, Note_on_c, 0, 49, 88
2, 204240, Note_on_c, 0, 54, 88
2, 204710, Note_off_c, 0, 42, 80
2, 204710, Note_off_c, 0, 49, 80
2, 204710, Note_off_c, 0, 54, 80
2, 204720, Note_on_c, 0, 42, 88
2, 204720, Note_on_c, 0, 49, 88
2, 204720, Note_on_c, 0, 54, 88
2, 205190, Note_off_c, 0, 42, 80
2, 205190, Note_off_c, 0, 49, 80
2, 205190, Note_off_c, 0, 54, 80
2, 205200, Note_on_c, 0, 42, 88
2, 205200, Note_on_c, 0, 49, 88
2, 205200, Note_on_c, 0, 54, 88
2, 205430, Note_off_c, 0, 42, 80
2, 205430, Note_off_c, 0, 49, 80
2, 205430, Note_off_c, 0, 54, 80
2, 205440, Note_on_c, 0, 41, 88
2, 205440, Note_on_c, 0, 48, 88
2, 205440, Note_on_c, 0, 53, 88
2, 205670, Note_off_c, 0, 41, 80
2, 205670, Note_off_c, 0, 48, 80
2, 205670, Note_off_c, 0, 53, 80
2, 205680, Note_on_c, 0, 41, 88
2, 205680, Note_on_c, 0, 48, 88
2, 205680, Note_on_c, 0, 53, 88
2, 205910, Note_off_c, 0, 41, 80
2, 205910, Note_off_c, 0, 48, 80
2, 205910, Note_off_c, 0, 53, 80
2, 205920, Note_on_c, 0, 41, 88
2, 205920, Note_on_c, 0, 48, 88
2, 205920, Note_on_c, 0, 53, 88
2, 206150, Note_off_c, 0, 41, 80
2, 206150, Note_off_c, 0, 48, 80
2, 206150, Note_off_c, 0, 53, 80
2, 206160, Note_on_c, 0, 41, 88
2, 206160, Note_on_c, 0, 48, 88
2, 206160, Note_on_c, 0, 53, 88
2, 206390, Note_off_c, 0, 41, 80
2, 206390, Note_off_c, 0, 48, 80
2, 206390, Note_off_c, 0, 53, 80
2, 206640, Note_on_c, 0, 41, 88
2, 206640, Note_on_c, 0, 48, 88
2, 206640, Note_on_c, 0, 53, 88
2, 206870, Note_off_c, 0, 41, 80
2, 206870, Note_off_c, 0, 48, 80
2, 206870, Note_off_c, 0, 53, 80
2, 206880, Note_on_c, 0, 41, 88
2, 206880, Note_on_c, 0, 48, 88
2, 206880, Note_on_c, 0, 53, 88
2, 207350, Note_off_c, 0, 41, 80
2, 207350, Note_off_c, 0, 48, 80
2, 207350, Note_off_c, 0, 53, 80
2, 207360, Note_on_c, 0, 51, 88
2, 207360, Note_on_c, 0, 58, 88
2, 207360, Note_on_c, 0, 60, 88
2, 207590, Note_off_c, 0, 51, 80
2, 207590, Note_off_c, 0, 58, 80
2, 207590, Note_off_c, 0, 60, 80
2, 207840, Note_on_c, 0, 51, 88
2, 207840, Note_on_c, 0, 58, 88
2, 207840, Note_on_c, 0, 60, 88
2, 208070, Note_off_c, 0, 51, 80
2, 208070, Note_off_c, 0, 58, 80
2, 208070, Note_off_c, 0, 60, 80
2, 208320, Note_on_c, 0, 51, 88
2, 208320, Note_on_c, 0, 58, 88
2, 208320, Note_on_c, 0, 60, 88
2, 208550, Note_off_c, 0, 51, 80
2, 208550, Note_off_c, 0, 58, 80
2, 208550, Note_off_c, 0, 60, 80
2, 209280, Note_on_c, 0, 51, 88
2, 209280, Note_on_c, 0, 56, 88
2, 209280, Note_on_c, 0, 60, 88
2, 209510, Note_off_c, 0, 51, 80
2, 209510, Note_off_c, 0, 56, 80
2, 209510, Note_off_c, 0, 60, 80
2, 209520, Note_on_c, 0, 51, 88
2, 209520, Note_on_c, 0, 56, 88
2, 209520, Note_on_c, 0, 60, 88
2, 209750, Note_off_c, 0, 51, 80
2, 209750, Note_off_c, 0, 56, 80
2, 209750, Note_off_c, 0, 60, 80
2, 209760, Note_on_c, 0, 51, 88
2, 209760, Note_on_c, 0, 56, 88
2, 209760, Note_on_c, 0, 60, 88
2, 209990, Note_off_c, 0, 51, 80
2, 209990, Note_off_c, 0, 56, 80
2, 209990, Note_off_c, 0, 60, 80
2, 210000, Note_on_c, 0, 51, 88
2, 210000, Note_on_c, 0, 56, 88
2, 210000, Note_on_c, 0, 60, 88
2, 210230, Note_off_c, 0, 51, 80
2, 210230, Note_off_c, 0, 56, 80
2, 210230, Note_off_c, 0, 60, 80
2, 210480, Note_on_c, 0, 51, 88
2, 210480, Note_on_c, 0, 56, 88
2, 210480, Note_on_c, 0, 60, 88
2, 210710, Note_off_c, 0, 51, 80
2, 210710, Note_off_c, 0, 56, 80
2, 210710, Note_off_c, 0, 60, 80
2, 210720, Note_on_c, 0, 51, 88
2, 210720, Note_on_c, 0, 56, 88
2, 210720, Note_on_c, 0, 60, 88
2, 211190, Note_off_c, 0, 51, 80
2, 211190, Note_off_c, 0, 56, 80
2, 211190, Note_off_c, 0, 60, 80
2, 211200, Note_on_c, 0, 49, 88
2, 211200, Note_on_c, 0, 56, 88
2, 211200, Note_on_c, 0, 61, 88
2, 211430, Note_off_c, 0, 49, 80
2, 211430, Note_off_c, 0, 56, 80
2, 211430, Note_off_c, 0, 61, 80
2, 211680, Note_on_c, 0, 49, 88
2, 211680, Note_on_c, 0, 56, 88
2, 211680, Note_on_c, 0, 61, 88
2, 211910, Note_off_c, 0, 49, 80
2, 211910, Note_off_c, 0, 56, 80
2, 211910, Note_off_c, 0, 61, 80
2, 212160, Note_on_c, 0, 49, 88
2, 212160, Note_on_c, 0, 56, 88
2, 212160, Note_on_c, 0, 61, 88
2, 212390, Note_off_c, 0, 49, 80
2, 212390, Note_off_c, 0, 56, 80
2, 212390, Note_off_c, 0, 61, 80
2, 213120, Note_on_c, 0, 46, 88
2, 213120, Note_on_c, 0, 53, 88
2, 213120, Note_on_c, 0, 58, 88
2, 213350, Note_off_c, 0, 46, 80
2, 213350, Note_off_c, 0, 53, 80
2, 213350, Note_off_c, 0, 58, 80
2, 213360, Note_on_c, 0, 46, 88
2, 213360, Note_on_c, 0, 53, 88
2, 213360, Note_on_c, 0, 58, 88
2, 213590, Note_off_c, 0, 46, 80
2, 213590, Note_off_c, 0, 53, 80
2, 213590, Note_off_c, 0, 58, 80
2, 213600, Note_on_c, 0, 46, 88
2, 213600, Note_on_c, 0, 53, 88
2, 213600, Note_on_c, 0, 58, 88
2, 213830, Note_off_c, 0, 46, 80
2, 213830, Note_off_c, 0, 53, 80
2, 213830, Note_off_c, 0, 58, 80
2, 213840, Note_on_c, 0, 46, 88
2, 213840, Note_on_c, 0, 53, 88
2, 213840, Note_on_c, 0, 58, 88
2, 214070, Note_off_c, 0, 46, 80
2, 214070, Note_off_c, 0, 53, 80
2, 214070, Note_off_c, 0, 58, 80
2, 214080, Note_on_c, 0, 46, 88
2, 214080, Note_on_c, 0, 53, 88
2, 214080, Note_on_c, 0, 58, 88
2, 214310, Note_off_c, 0, 46, 80
2, 214310, Note_off_c, 0, 53, 80
2, 214310, Note_off_c, 0, 58, 80
2, 214320, Note_on_c, 0, 46, 88
2, 214320, Note_on_c, 0, 53, 88
2, 214320, Note_on_c, 0, 58, 88
2, 214550, Note_off_c, 0, 46, 80
2, 214550, Note_off_c, 0, 53, 80
2, 214550, Note_off_c, 0, 58, 80
2, 214560, Note_on_c, 0, 46, 88
2, 214560, Note_on_c, 0, 53, 88
2, 214560, Note_on_c, 0, 58, 88
2, 214790, Note_off_c, 0, 46, 80
2, 214790, Note_off_c, 0, 53, 80
2, 214790, Note_off_c, 0, 58, 80
2, 214800, Note_on_c, 0, 46, 88
2, 214800, Note_on_c, 0, 53, 88
2, 214800, Note_on_c, 0, 58, 88
2, 215030, Note_off_c, 0, 46, 80
2, 215030, Note_off_c, 0, 53, 80
2, 215030, Note_off_c, 0, 58, 80
2, 215040, Note_on_c, 0, 46, 88
2, 215040, Note_on_c, 0, 53, 88
2, 215040, Note_on_c, 0, 58, 88
2, 215270, Note_off_c, 0, 46, 80
2, 215270, Note_off_c, 0, 53, 80
2, 215270, Note_off_c, 0, 58, 80
2, 215280, Note_on_c, 0, 46, 88
2, 215280, Note_on_c, 0, 53, 88
2, 215280, Note_on_c, 0, 58, 88
2, 215510, Note_off_c, 0, 46, 80
2, 215510, Note_off_c, 0, 53, 80
2, 215510, Note_off_c, 0, 58, 80
2, 215520, Note_on_c, 0, 46, 88
2, 215520, Note_on_c, 0, 53, 88
2, 215520, Note_on_c, 0, 58, 88
2, 215750, Note_off_c, 0, 46, 80
2, 215750, Note_off_c, 0, 53, 80
2, 215750, Note_off_c, 0, 58, 80
2, 215760, Note_on_c, 0, 46, 88
2, 215760, Note_on_c, 0, 53, 88
2, 215760, Note_on_c, 0, 58, 88
2, 215990, Note_off_c, 0, 46, 80
2, 215990, Note_off_c, 0, 53, 80
2, 215990, Note_off_c, 0, 58, 80
2, 216000, Note_on_c, 0, 46, 88
2, 216000, Note_on_c, 0, 53, 88
2, 216000, Note_on_c, 0, 58, 88
2, 216230, Note_off_c, 0, 46, 80
2, 216230, Note_off_c, 0, 53, 80
2, 216230, Note_off_c, 0, 58, 80
2, 216240, Note_on_c, 0, 46, 88
2, 216240, Note_on_c, 0, 53, 88
2, 216240, Note_on_c, 0, 58, 88
2, 216470, Note_off_c, 0, 46, 80
2, 216470, Note_off_c, 0, 53, 80
2, 216470, Note_off_c, 0, 58, 80
2, 216480, Note_on_c, 0, 46, 88
2, 216480, Note_on_c, 0, 53, 88
2, 216480, Note_on_c, 0, 58, 88
2, 216710, Note_off_c, 0, 46, 80
2, 216710, Note_off_c, 0, 53, 80
2, 216710, Note_off_c, 0, 58, 80
2, 216720, Note_on_c, 0, 46, 88
2, 216720, Note_on_c, 0, 53, 88
2, 216720, Note_on_c, 0, 58, 88
2, 216950, Note_off_c, 0, 46, 80
2, 216950, Note_off_c, 0, 53, 80
2, 216950, Note_off_c, 0, 58, 80
2, 216960, Note_on_c, 0, 49, 88
2, 216960, Note_on_c, 0, 56, 88
2, 216960, Note_on_c, 0, 61, 88
2, 217190, Note_off_c, 0, 49, 80
2, 217190, Note_off_c, 0, 56, 80
2, 217190, Note_off_c, 0, 61, 80
2, 217200, Note_on_c, 0, 49, 88
2, 217200, Note_on_c, 0, 56, 88
2, 217200, Note_on_c, 0, 61, 88
2, 217430, Note_off_c, 0, 49, 80
2, 217430, Note_off_c, 0, 56, 80
2, 217430, Note_off_c, 0, 61, 80
2, 217440, Note_on_c, 0, 49, 88
2, 217440, Note_on_c, 0, 56, 88
2, 217440, Note_on_c, 0, 61, 88
2, 217670, Note_off_c, 0, 49, 80
2, 217670, Note_off_c, 0, 56, 80
2, 217670, Note_off_c, 0, 61, 80
2, 217680, Note_on_c, 0, 49, 88
2, 217680, Note_on_c, 0, 56, 88
2, 217680, Note_on_c, 0, 61, 88
2, 217910, Note_off_c, 0, 49, 80
2, 217910, Note_off_c, 0, 56, 80
2, 217910, Note_off_c, 0, 61, 80
2, 217920, Note_on_c, 0, 49, 88
2, 217920, Note_on_c, 0, 56, 88
2, 217920, Note_on_c, 0, 61, 88
2, 218150, Note_off_c, 0, 49, 80
2, 218150, Note_off_c, 0, 56, 80
2, 218150, Note_off_c, 0, 61, 80
2, 218160, Note_on_c, 0, 49, 88
2, 218160, Note_on_c, 0, 56, 88
2, 218160, Note_on_c, 0, 61, 88
2, 218390, Note_off_c, 0, 49, 80
2, 218390, Note_off_c, 0, 56, 80
2, 218390, Note_off_c, 0, 61, 80
2, 218400, Note_on_c, 0, 49, 88
2, 218400, Note_on_c, 0, 56, 88
2, 218400, Note_on_c, 0, 61, 88
2, 218630, Note_off_c, 0, 49, 80
2, 218630, Note_off_c, 0, 56, 80
2, 218630, Note_off_c, 0, 61, 80
2, 218640, Note_on_c, 0, 49, 88
2, 218640, Note_on_c, 0, 56, 88
2, 218640, Note_on_c, 0, 61, 88
2, 218870, Note_off_c, 0, 49, 80
2, 218870, Note_off_c, 0, 56, 80
2, 218870, Note_off_c, 0, 61, 80
2, 218880, Note_on_c, 0, 49, 88
2, 218880, Note_on_c, 0, 56, 88
2, 218880, Note_on_c, 0, 61, 88
2, 219110, Note_off_c, 0, 49, 80
2, 219110, Note_off_c, 0, 56, 80
2, 219110, Note_off_c, 0, 61, 80
2, 219120, Note_on_c, 0, 49, 88
2, 219120, Note_on_c, 0, 56, 88
2, 219120, Note_on_c, 0, 61, 88
2, 219350, Note_off_c, 0, 49, 80
2, 219350, Note_off_c, 0, 56, 80
2, 219350, Note_off_c, 0, 61, 80
2, 219360, Note_on_c, 0, 49, 88
2, 219360, Note_on_c, 0, 56, 88
2, 219360, Note_on_c, 0, 61, 88
2, 219590, Note_off_c, 0, 49, 80
2, 219590, Note_off_c, 0, 56, 80
2, 219590, Note_off_c, 0, 61, 80
2, 219600, Note_on_c, 0, 49, 88
2, 219600, Note_on_c, 0, 56, 88
2, 219600, Note_on_c, 0, 61, 88
2, 219830, Note_off_c, 0, 49, 80
2, 219830, Note_off_c, 0, 56, 80
2, 219830, Note_off_c, 0, 61, 80
2, 219840, Note_on_c, 0, 49, 88
2, 219840, Note_on_c, 0, 56, 88
2, 219840, Note_on_c, 0, 61, 88
2, 220070, Note_off_c, 0, 49, 80
2, 220070, Note_off_c, 0, 56, 80
2, 220070, Note_off_c, 0, 61, 80
2, 220080, Note_on_c, 0, 49, 88
2, 220080, Note_on_c, 0, 56, 88
2, 220080, Note_on_c, 0, 61, 88
2, 220310, Note_off_c, 0, 49, 80
2, 220310, Note_off_c, 0, 56, 80
2, 220310, Note_off_c, 0, 61, 80
2, 220320, Note_on_c, 0, 49, 88
2, 220320, Note_on_c, 0, 56, 88
2, 220320, Note_on_c, 0, 61, 88
2, 220550, Note_off_c, 0, 49, 80
2, 220550, Note_off_c, 0, 56, 80
2, 220550, Note_off_c, 0, 61, 80
2, 220560, Note_on_c, 0, 49, 88
2, 220560, Note_on_c, 0, 56, 88
2, 220560, Note_on_c, 0, 61, 88
2, 220790, Note_off_c, 0, 49, 80
2, 220790, Note_off_c, 0, 56, 80
2, 220790, Note_off_c, 0, 61, 80
2, 220800, Note_on_c, 0, 44, 88
2, 220800, Note_on_c, 0, 51, 88
2, 220800, Note_on_c, 0, 56, 88
2, 221510, Note_off_c, 0, 44, 80
2, 221510, Note_off_c, 0, 51, 80
2, 221510, Note_off_c, 0, 56, 80
2, 221520, Note_on_c, 0, 44, 88
2, 221520, Note_on_c, 0, 51, 88
2, 221520, Note_on_c, 0, 56, 88
2, 221750, Note_off_c, 0, 44, 80
2, 221750, Note_off_c, 0, 51, 80
2, 221750, Note_off_c, 0, 56, 80
2, 222000, Note_on_c, 0, 44, 88
2, 222000, Note_on_c, 0, 51, 88
2, 222000, Note_on_c, 0, 56, 88
2, 222470, Note_off_c, 0, 44, 80
2, 222470, Note_off_c, 0, 51, 80
2, 222470, Note_off_c, 0, 56, 80
2, 222480, Note_on_c, 0, 44, 88
2, 222710, Note_off_c, 0, 44, 80
2, 222720, Note_on_c, 0, 44, 88
2, 222720, Note_on_c, 0, 51, 88
2, 222720, Note_on_c, 0, 56, 88
2, 223430, Note_off_c, 0, 44, 80
2, 223430, Note_off_c, 0, 51, 80
2, 223430, Note_off_c, 0, 56, 80
2, 223440, Note_on_c, 0, 44, 88
2, 223440, Note_on_c, 0, 51, 88
2, 223440, Note_on_c, 0, 56, 88
2, 223670, Note_off_c, 0, 44, 80
2, 223670, Note_off_c, 0, 51, 80
2, 223670, Note_off_c, 0, 56, 80
2, 223920, Note_on_c, 0, 44, 88
2, 223920, Note_on_c, 0, 51, 88
2, 223920, Note_on_c, 0, 56, 88
2, 224390, Note_off_c, 0, 44, 80
2, 224390, Note_off_c, 0, 51, 80
2, 224390, Note_off_c, 0, 56, 80
2, 224400, Note_on_c, 0, 44, 88
2, 224630, Note_off_c, 0, 44, 80
2, 224640, Note_on_c, 0, 49, 88
2, 224640, Note_on_c, 0, 56, 88
2, 224640, Note_on_c, 0, 61, 88
2, 225350, Note_off_c, 0, 49, 80
2, 225350, Note_off_c, 0, 56, 80
2, 225350, Note_off_c, 0, 61, 80
2, 225360, Note_on_c, 0, 49, 88
2, 225360, Note_on_c, 0, 56, 88
2, 225360, Note_on_c, 0, 61, 88
2, 225590, Note_off_c, 0, 49, 80
2, 225590, Note_off_c, 0, 56, 80
2, 225590, Note_off_c, 0, 61, 80
2, 225840, Note_on_c, 0, 49, 88
2, 225840, Note_on_c, 0, 56, 88
2, 225840, Note_on_c, 0, 61, 88
2, 226310, Note_off_c, 0, 49, 80
2, 226310, Note_off_c, 0, 56, 80
2, 226310, Note_off_c, 0, 61, 80
2, 226320, Note_on_c, 0, 44, 88
2, 226550, Note_off_c, 0, 44, 80
2, 226560, Note_on_c, 0, 49, 88
2, 226560, Note_on_c, 0, 56, 88
2, 226560, Note_on_c, 0, 61, 88
2, 227270, Note_off_c, 0, 49, 80
2, 227270, Note_off_c, 0, 56, 80
2, 227270, Note_off_c, 0, 61, 80
2, 227280, Note_on_c, 0, 49, 88
2, 227280, Note_on_c, 0, 56, 88
2, 227280, Note_on_c, 0, 61, 88
2, 227510, Note_off_c, 0, 49, 80
2, 227510, Note_off_c, 0, 56, 80
2, 227510, Note_off_c, 0, 61, 80
2, 227760, Note_on_c, 0, 49, 88
2, 227760, Note_on_c, 0, 56, 88
2, 227760, Note_on_c, 0, 61, 88
2, 228230, Note_off_c, 0, 49, 80
2, 228230, Note_off_c, 0, 56, 80
2, 228230, Note_off_c, 0, 61, 80
2, 228240, Note_on_c, 0, 44, 88
2, 228470, Note_off_c, 0, 44, 80
2, 228480, Control_c, 0, 7, 104
2, 228480, Note_on_c, 0, 72, 88
2, 228880, Pitch_bend_c, 0, 8064
2, 228896, Pitch_bend_c, 0, 7808
2, 228912, Pitch_bend_c, 0, 7680
2, 228944, Pitch_bend_c, 0, 7552
2, 228992, Pitch_bend_c, 0, 7680
2, 229024, Pitch_bend_c, 0, 7808
2, 229040, Pitch_bend_c, 0, 8064
2, 229056, Pitch_bend_c, 0, 8192
2, 229360, Pitch_bend_c, 0, 8064
2, 229376, Pitch_bend_c, 0, 7808
2, 229392, Pitch_bend_c, 0, 7680
2, 229424, Pitch_bend_c, 0, 7552
2, 229472, Pitch_bend_c, 0, 7680
2, 229504, Pitch_bend_c, 0, 7808
2, 229520, Pitch_bend_c, 0, 8064
2, 229536, Pitch_bend_c, 0, 8192
2, 229840, Pitch_bend_c, 0, 8064
2, 229856, Pitch_bend_c, 0, 7808
2, 229872, Pitch_bend_c, 0, 7680
2, 229904, Pitch_bend_c, 0, 7552
2, 229952, Pitch_bend_c, 0, 7680
2, 229984, Pitch_bend_c, 0, 7808
2, 230000, Pitch_bend_c, 0, 8064
2, 230016, Pitch_bend_c, 0, 8192
2, 230320, Pitch_bend_c, 0, 8064
2, 230336, Pitch_bend_c, 0, 7808
2, 230352, Pitch_bend_c, 0, 7680
2, 230384, Pitch_bend_c, 0, 7552
2, 230432, Pitch_bend_c, 0, 7680
2, 230464, Pitch_bend_c, 0, 7808
2, 230480, Pitch_bend_c, 0, 8064
2, 230496, Pitch_bend_c, 0, 8192
2, 230800, Pitch_bend_c, 0, 8064
2, 230816, Pitch_bend_c, 0, 7808
2, 230832, Pitch_bend_c, 0, 7680
2, 230864, Pitch_bend_c, 0, 7552
2, 230912, Pitch_bend_c, 0, 7680
2, 230944, Pitch_bend_c, 0, 7808
2, 230960, Pitch_bend_c, 0, 8064
2, 230976, Pitch_bend_c, 0, 8192
2, 231350, Note_off_c, 0, 72, 80
2, 231360, Note_on_c, 0, 72, 88
2, 231392, Pitch_bend_c, 0, 8320
2, 231424, Pitch_bend_c, 0, 8448
2, 231440, Pitch_bend_c, 0, 8576
2, 231456, Pitch_bend_c, 0, 8704
2, 231472, Pitch_bend_c, 0, 8832
2, 231632, Pitch_bend_c, 0, 8704
2, 231648, Pitch_bend_c, 0, 8576
2, 231664, Pitch_bend_c, 0, 8320
2, 231696, Pitch_bend_c, 0, 8192
2, 231830, Note_off_c, 0, 72, 80
2, 231840, Note_on_c, 0, 70, 88
2, 232070, Note_off_c, 0, 70, 80
2, 232080, Note_on_c, 0, 72, 88
2, 232144, Pitch_bend_c, 0, 8320
2, 232208, Pitch_bend_c, 0, 8448
2, 232256, Pitch_bend_c, 0, 8576
2, 232288, Pitch_bend_c, 0, 8704
2, 232320, Pitch_bend_c, 0, 8832
2, 232720, Pitch_bend_c, 0, 8704
2, 232736, Pitch_bend_c, 0, 8576
2, 232752, Pitch_bend_c, 0, 8448
2, 232784, Pitch_bend_c, 0, 8320
2, 232816, Pitch_bend_c, 0, 8192
2, 232864, Pitch_bend_c, 0, 8320
2, 232896, Pitch_bend_c, 0, 8448
2, 232912, Pitch_bend_c, 0, 8576
2, 232928, Pitch_bend_c, 0, 8704
2, 232944, Pitch_bend_c, 0, 8832
2, 233200, Pitch_bend_c, 0, 8704
2, 233216, Pitch_bend_c, 0, 8576
2, 233232, Pitch_bend_c, 0, 8448
2, 233248, Pitch_bend_c, 0, 8320
2, 233280, Pitch_bend_c, 0, 8192
2, 233344, Pitch_bend_c, 0, 8320
2, 233376, Pitch_bend_c, 0, 8448
2, 233392, Pitch_bend_c, 0, 8576
2, 233408, Pitch_bend_c, 0, 8704
2, 233424, Pitch_bend_c, 0, 8832
2, 233680, Pitch_bend_c, 0, 8704
2, 233696, Pitch_bend_c, 0, 8576
2, 233712, Pitch_bend_c, 0, 8448
2, 233728, Pitch_bend_c, 0, 8320
2, 233760, Pitch_bend_c, 0, 8192
2, 233824, Pitch_bend_c, 0, 8320
2, 233888, Pitch_bend_c, 0, 8448
2, 233904, Pitch_bend_c, 0, 8576
2, 233936, Pitch_bend_c, 0, 8704
2, 233952, Pitch_bend_c, 0, 8832
2, 234224, Pitch_bend_c, 0, 8704
2, 234240, Pitch_bend_c, 0, 8576
2, 234256, Pitch_bend_c, 0, 8448
2, 234272, Pitch_bend_c, 0, 8320
2, 234304, Pitch_bend_c, 0, 8192
2, 234352, Pitch_bend_c, 0, 8320
2, 234384, Pitch_bend_c, 0, 8448
2, 234416, Pitch_bend_c, 0, 8576
2, 234432, Pitch_bend_c, 0, 8704
2, 234448, Pitch_bend_c, 0, 8832
2, 234768, Pitch_bend_c, 0, 8704
2, 234784, Pitch_bend_c, 0, 8576
2, 234800, Pitch_bend_c, 0, 8448
2, 234816, Pitch_bend_c, 0, 8320
2, 234848, Pitch_bend_c, 0, 8192
2, 234896, Pitch_bend_c, 0, 8320
2, 234928, Pitch_bend_c, 0, 8448
2, 234960, Pitch_bend_c, 0, 8576
2, 234976, Pitch_bend_c, 0, 8704
2, 234992, Pitch_bend_c, 0, 8832
2, 235312, Pitch_bend_c, 0, 8704
2, 235328, Pitch_bend_c, 0, 8576
2, 235344, Pitch_bend_c, 0, 8448
2, 235360, Pitch_bend_c, 0, 8320
2, 235392, Pitch_bend_c, 0, 8192
2, 235440, Pitch_bend_c, 0, 8320
2, 235472, Pitch_bend_c, 0, 8448
2, 235504, Pitch_bend_c, 0, 8576
2, 235520, Pitch_bend_c, 0, 8704
2, 235536, Pitch_bend_c, 0, 8832
2, 235856, Pitch_bend_c, 0, 8704
2, 235872, Pitch_bend_c, 0, 8576
2, 235888, Pitch_bend_c, 0, 8448
2, 235904, Pitch_bend_c, 0, 8320
2, 235936, Pitch_bend_c, 0, 8192
2, 236000, Pitch_bend_c, 0, 8320
2, 236064, Pitch_bend_c, 0, 8448
2, 236080, Pitch_bend_c, 0, 8576
2, 236112, Pitch_bend_c, 0, 8704
2, 236128, Pitch_bend_c, 0, 8832
2, 236150, Note_off_c, 0, 72, 80
2, 236160, Pitch_bend_c, 0, 8192
2, 236160, Note_on_c, 0, 72, 88
2, 236560, Pitch_bend_c, 0, 8064
2, 236576, Pitch_bend_c, 0, 7808
2, 236592, Pitch_bend_c, 0, 7680
2, 236624, Pitch_bend_c, 0, 7552
2, 236672, Pitch_bend_c, 0, 7680
2, 236704, Pitch_bend_c, 0, 7808
2, 236720, Pitch_bend_c, 0, 8064
2, 236736, Pitch_bend_c, 0, 8192
2, 237040, Pitch_bend_c, 0, 8064
2, 237056, Pitch_bend_c, 0, 7808
2, 237072, Pitch_bend_c, 0, 7680
2, 237104, Pitch_bend_c, 0, 7552
2, 237152, Pitch_bend_c, 0, 7680
2, 237184, Pitch_bend_c, 0, 7808
2, 237200, Pitch_bend_c, 0, 8064
2, 237216, Pitch_bend_c, 0, 8192
2, 237520, Pitch_bend_c, 0, 8064
2, 237536, Pitch_bend_c, 0, 7808
2, 237552, Pitch_bend_c, 0, 7680
2, 237584, Pitch_bend_c, 0, 7552
2, 237632, Pitch_bend_c, 0, 7680
2, 237664, Pitch_bend_c, 0, 7808
2, 237680, Pitch_bend_c, 0, 8064
2, 237696, Pitch_bend_c, 0, 8192
2, 238000, Pitch_bend_c, 0, 8064
2, 238016, Pitch_bend_c, 0, 7808
2, 238032, Pitch_bend_c, 0, 7680
2, 238064, Pitch_bend_c, 0, 7552
2, 238112, Pitch_bend_c, 0, 7680
2, 238144, Pitch_bend_c, 0, 7808
2, 238160, Pitch_bend_c, 0, 8064
2, 238176, Pitch_bend_c, 0, 8192
2, 238480, Pitch_bend_c, 0, 8064
2, 238496, Pitch_bend_c, 0, 7808
2, 238512, Pitch_bend_c, 0, 7680
2, 238544, Pitch_bend_c, 0, 7552
2, 238592, Pitch_bend_c, 0, 7680
2, 238624, Pitch_bend_c, 0, 7808
2, 238640, Pitch_bend_c, 0, 8064
2, 238656, Pitch_bend_c, 0, 8192
2, 239030, Note_off_c, 0, 72, 80
2, 239040, Note_on_c, 0, 72, 88
2, 239184, Pitch_bend_c, 0, 8320
2, 239216, Pitch_bend_c, 0, 8448
2, 239232, Pitch_bend_c, 0, 8576
2, 239248, Pitch_bend_c, 0, 8704
2, 239264, Pitch_bend_c, 0, 8832
2, 239424, Pitch_bend_c, 0, 8704
2, 239440, Pitch_bend_c, 0, 8576
2, 239456, Pitch_bend_c, 0, 8448
2, 239472, Pitch_bend_c, 0, 8320
2, 239504, Pitch_bend_c, 0, 8192
2, 239750, Note_off_c, 0, 72, 80
2, 239760, Note_on_c, 0, 75, 88
2, 240230, Note_off_c, 0, 75, 80
2, 240240, Note_on_c, 0, 73, 88
2, 240350, Note_off_c, 0, 73, 80
2, 240360, Note_on_c, 0, 72, 88
2, 240470, Note_off_c, 0, 72, 80
2, 240480, Note_on_c, 0, 70, 88
2, 243830, Note_off_c, 0, 70, 80
2, 244080, Note_on_c, 0, 70, 88
2, 244190, Note_off_c, 0, 70, 80
2, 244200, Note_on_c, 0, 68, 88
2, 244310, Note_off_c, 0, 68, 80
2, 244320, Note_on_c, 0, 70, 88
2, 244430, Note_off_c, 0, 70, 80
2, 244440, Note_on_c, 0, 68, 88
2, 244550, Note_off_c, 0, 68, 80
2, 244560, Note_on_c, 0, 65, 88
2, 244670, Note_off_c, 0, 65, 80
2, 244800, Note_on_c, 0, 68, 88
2, 244910, Note_off_c, 0, 68, 80
2, 244920, Note_on_c, 0, 70, 88
2, 245030, Note_off_c, 0, 70, 80
2, 245040, Note_on_c, 0, 68, 88
2, 245150, Note_off_c, 0, 68, 80
2, 245160, Note_on_c, 0, 65, 88
2, 245270, Note_off_c, 0, 65, 80
2, 245280, Note_on_c, 0, 68, 88
2, 245390, Note_off_c, 0, 68, 80
2, 245400, Note_on_c, 0, 70, 88
2, 245510, Note_off_c, 0, 70, 80
2, 245520, Note_on_c, 0, 68, 88
2, 245750, Note_off_c, 0, 68, 80
2, 246000, Note_on_c, 0, 68, 88
2, 246110, Note_off_c, 0, 68, 80
2, 246120, Note_on_c, 0, 70, 88
2, 246230, Note_off_c, 0, 70, 80
2, 246240, Note_on_c, 0, 68, 88
2, 246350, Note_off_c, 0, 68, 80
2, 246360, Note_on_c, 0, 65, 88
2, 246470, Note_off_c, 0, 65, 80
2, 246480, Note_on_c, 0, 68, 88
2, 246590, Note_off_c, 0, 68, 80
2, 246600, Note_on_c, 0, 65, 88
2, 246710, Note_off_c, 0, 65, 80
2, 246720, Note_on_c, 0, 68, 88
2, 246830, Note_off_c, 0, 68, 80
2, 246840, Note_on_c, 0, 70, 88
2, 246950, Note_off_c, 0, 70, 80
2, 246960, Note_on_c, 0, 68, 88
2, 247070, Note_off_c, 0, 68, 80
2, 247080, Note_on_c, 0, 70, 88
2, 247190, Note_off_c, 0, 70, 80
2, 247200, Note_on_c, 0, 68, 88
2, 247310, Note_off_c, 0, 68, 80
2, 247320, Note_on_c, 0, 70, 88
2, 247368, Pitch_bend_c, 0, 8320
2, 247384, Pitch_bend_c, 0, 8832
2, 247400, Pitch_bend_c, 0, 9600
2, 247496, Pitch_bend_c, 0, 8832
2, 247512, Pitch_bend_c, 0, 8320
2, 247528, Pitch_bend_c, 0, 8192
2, 247550, Note_off_c, 0, 70, 80
2, 247560, Note_on_c, 0, 68, 88
2, 247670, Note_off_c, 0, 68, 80
2, 247680, Note_on_c, 0, 68, 88
2, 248630, Note_off_c, 0, 68, 80
2, 248640, Note_on_c, 0, 68, 88
2, 248750, Note_off_c, 0, 68, 80
2, 248760, Note_on_c, 0, 70, 88
2, 248870, Note_off_c, 0, 70, 80
2, 248880, Note_on_c, 0, 68, 88
2, 249110, Note_off_c, 0, 68, 80
2, 249120, Note_on_c, 0, 68, 88
2, 249590, Note_off_c, 0, 68, 80
2, 249600, Note_on_c, 0, 68, 88
2, 249710, Note_off_c, 0, 68, 80
2, 249720, Note_on_c, 0, 70, 88
2, 249830, Note_off_c, 0, 70, 80
2, 249840, Note_on_c, 0, 68, 88
2, 249950, Note_off_c, 0, 68, 80
2, 249960, Note_on_c, 0, 65, 88
2, 250070, Note_off_c, 0, 65, 80
2, 250080, Note_on_c, 0, 68, 88
2, 250190, Note_off_c, 0, 68, 80
2, 250200, Note_on_c, 0, 65, 88
2, 250310, Note_off_c, 0, 65, 80
2, 250320, Note_on_c, 0, 63, 88
2, 250430, Note_off_c, 0, 63, 80
2, 250440, Note_on_c, 0, 65, 88
2, 250550, Note_off_c, 0, 65, 80
2, 250560, Note_on_c, 0, 58, 88
2, 250670, Note_off_c, 0, 58, 80
2, 250680, Note_on_c, 0, 60, 88
2, 250790, Note_off_c, 0, 60, 80
2, 250800, Note_on_c, 0, 63, 88
2, 251030, Note_off_c, 0, 63, 80
2, 251040, Note_on_c, 0, 58, 88
2, 251510, Note_off_c, 0, 58, 80
2, 251520, Note_on_c, 0, 68, 88
2, 251750, Note_off_c, 0, 68, 80
2, 251760, Note_on_c, 0, 65, 88
2, 251990, Note_off_c, 0, 65, 80
2, 252000, Note_on_c, 0, 65, 88
2, 252710, Note_off_c, 0, 65, 80
2, 252720, Note_on_c, 0, 68, 88
2, 252950, Note_off_c, 0, 68, 80
2, 253200, Note_on_c, 0, 65, 88
2, 253430, Note_off_c, 0, 65, 80
2, 253440, Note_on_c, 0, 68, 88
2, 253670, Note_off_c, 0, 68, 80
2, 253680, Note_on_c, 0, 65, 88
2, 253910, Note_off_c, 0, 65, 80
2, 253920, Note_on_c, 0, 65, 88
2, 254630, Note_off_c, 0, 65, 80
2, 254640, Note_on_c, 0, 68, 88
2, 254870, Note_off_c, 0, 68, 80
2, 254880, Note_on_c, 0, 65, 88
2, 255350, Note_off_c, 0, 65, 80
2, 255360, Note_on_c, 0, 65, 88
2, 255830, Note_off_c, 0, 65, 80
2, 255840, Note_on_c, 0, 65, 88
2, 256070, Note_off_c, 0, 65, 80
2, 256080, Note_on_c, 0, 68, 88
2, 256430, Note_off_c, 0, 68, 80
2, 256560, Note_on_c, 0, 65, 88
2, 257030, Note_off_c, 0, 65, 80
2, 257040, Note_on_c, 0, 68, 88
2, 257270, Note_off_c, 0, 68, 80
2, 257280, Note_on_c, 0, 68, 88
2, 257510, Note_off_c, 0, 68, 80
2, 257520, Note_on_c, 0, 65, 88
2, 257990, Note_off_c, 0, 65, 80
2, 258240, Note_on_c, 0, 65, 88
2, 258470, Note_off_c, 0, 65, 80
2, 258480, Note_on_c, 0, 65, 88
2, 258950, Note_off_c, 0, 65, 80
2, 258960, Note_on_c, 0, 68, 88
2, 259190, Note_off_c, 0, 68, 80
2, 259200, Note_on_c, 0, 65, 88
2, 259430, Note_off_c, 0, 65, 80
2, 259440, Note_on_c, 0, 65, 88
2, 259910, Note_off_c, 0, 65, 80
2, 259920, Note_on_c, 0, 68, 88
2, 260150, Note_off_c, 0, 68, 80
2, 260160, Note_on_c, 0, 65, 88
2, 260390, Note_off_c, 0, 65, 80
2, 260400, Note_on_c, 0, 65, 88
2, 260630, Note_off_c, 0, 65, 80
2, 260640, Note_on_c, 0, 65, 88
2, 260870, Note_off_c, 0, 65, 80
2, 260880, Note_on_c, 0, 68, 88
2, 261350, Note_off_c, 0, 68, 80
2, 261360, Note_on_c, 0, 65, 88
2, 261590, Note_off_c, 0, 65, 80
2, 261600, Note_on_c, 0, 65, 88
2, 262310, Note_off_c, 0, 65, 80
2, 262320, Note_on_c, 0, 68, 88
2, 262790, Note_off_c, 0, 68, 80
2, 262800, Note_on_c, 0, 65, 88
2, 263030, Note_off_c, 0, 65, 80
2, 263040, Note_on_c, 0, 65, 88
2, 263510, Note_off_c, 0, 65, 80
2, 263520, Note_on_c, 0, 65, 88
2, 264230, Note_off_c, 0, 65, 80
2, 264240, Note_on_c, 0, 68, 88
2, 264470, Note_off_c, 0, 68, 80
2, 264480, Note_on_c, 0, 65, 88
2, 264710, Note_off_c, 0, 65, 80
2, 264720, Note_on_c, 0, 65, 88
2, 265190, Note_off_c, 0, 65, 80
2, 265200, Note_on_c, 0, 68, 88
2, 265430, Note_off_c, 0, 68, 80
2, 265440, Note_on_c, 0, 65, 88
2, 265670, Note_off_c, 0, 65, 80
2, 265680, Note_on_c, 0, 65, 88
2, 265910, Note_off_c, 0, 65, 80
2, 265920, Note_on_c, 0, 68, 88
2, 266150, Note_off_c, 0, 68, 80
2, 266160, Note_on_c, 0, 68, 88
2, 266390, Note_off_c, 0, 68, 80
2, 266400, Note_on_c, 0, 65, 88
2, 266630, Note_off_c, 0, 65, 80
2, 266640, Note_on_c, 0, 68, 88
2, 266870, Note_off_c, 0, 68, 80
2, 266880, Note_on_c, 0, 49, 69
2, 267050, Note_off_c, 0, 49, 80
2, 267120, Note_on_c, 0, 49, 69
2, 267290, Note_off_c, 0, 49, 80
2, 267360, Note_on_c, 0, 49, 88
2, 267360, Note_on_c, 0, 56, 88
2, 267830, Note_off_c, 0, 49, 80
2, 267830, Note_off_c, 0, 56, 80
2, 267840, Note_on_c, 0, 48, 69
2, 268010, Note_off_c, 0, 48, 80
2, 268080, Note_on_c, 0, 48, 69
2, 268250, Note_off_c, 0, 48, 80
2, 268320, Note_on_c, 0, 48, 88
2, 268320, Note_on_c, 0, 56, 88
2, 268790, Note_off_c, 0, 48, 80
2, 268790, Note_off_c, 0, 56, 80
2, 268800, Note_on_c, 0, 46, 69
2, 268970, Note_off_c, 0, 46, 80
2, 269040, Note_on_c, 0, 46, 88
2, 269040, Note_on_c, 0, 53, 88
2, 269510, Note_off_c, 0, 46, 80
2, 269510, Note_off_c, 0, 53, 80
2, 269520, Note_on_c, 0, 41, 69
2, 269690, Note_off_c, 0, 41, 80
2, 269760, Note_on_c, 0, 44, 69
2, 269930, Note_off_c, 0, 44, 80
2, 270000, Note_on_c, 0, 44, 88
2, 270000, Note_on_c, 0, 51, 88
2, 270710, Note_off_c, 0, 44, 80
2, 270710, Note_off_c, 0, 51, 80
2, 270720, Note_on_c, 0, 49, 69
2, 270890, Note_off_c, 0, 49, 80
2, 270960, Note_on_c, 0, 49, 69
2, 271130, Note_off_c, 0, 49, 80
2, 271200, Note_on_c, 0, 49, 88
2, 271200, Note_on_c, 0, 56, 88
2, 271670, Note_off_c, 0, 49, 80
2, 271670, Note_off_c, 0, 56, 80
2, 271680, Note_on_c, 0, 48, 69
2, 271850, Note_off_c, 0, 48, 80
2, 271920, Note_on_c, 0, 48, 69
2, 272090, Note_off_c, 0, 48, 80
2, 272160, Note_on_c, 0, 48, 88
2, 272160, Note_on_c, 0, 56, 88
2, 272630, Note_off_c, 0, 48, 80
2, 272630, Note_off_c, 0, 56, 80
2, 272640, Note_on_c, 0, 46, 69
2, 272810, Note_off_c, 0, 46, 80
2, 272880, Note_on_c, 0, 46, 88
2, 272880, Note_on_c, 0, 53, 88
2, 273350, Note_off_c, 0, 46, 80
2, 273350, Note_off_c, 0, 53, 80
2, 273360, Note_on_c, 0, 41, 69
2, 273530, Note_off_c, 0, 41, 80
2, 273600, Note_on_c, 0, 44, 69
2, 273770, Note_off_c, 0, 44, 80
2, 273840, Note_on_c, 0, 44, 88
2, 273840, Note_on_c, 0, 51, 88
2, 274550, Note_off_c, 0, 44, 80
2, 274550, Note_off_c, 0, 51, 80
2, 274560, Note_on_c, 0, 49, 69
2, 274730, Note_off_c, 0, 49, 80
2, 274800, Note_on_c, 0, 49, 69
2, 274970, Note_off_c, 0, 49, 80
2, 275040, Note_on_c, 0, 49, 88
2, 275040, Note_on_c, 0, 56, 88
2, 275510, Note_off_c, 0, 49, 80
2, 275510, Note_off_c, 0, 56, 80
2, 275520, Note_on_c, 0, 48, 69
2, 275690, Note_off_c, 0, 48, 80
2, 275760, Note_on_c, 0, 48, 69
2, 275930, Note_off_c, 0, 48, 80
2, 276000, Note_on_c, 0, 48, 88
2, 276000, Note_on_c, 0, 56, 88
2, 276470, Note_off_c, 0, 48, 80
2, 276470, Note_off_c, 0, 56, 80
2, 276480, Note_on_c, 0, 46, 69
2, 276650, Note_off_c, 0, 46, 80
2, 276720, Note_on_c, 0, 46, 88
2, 276720, Note_on_c, 0, 53, 88
2, 277190, Note_off_c, 0, 46, 80
2, 277190, Note_off_c, 0, 53, 80
2, 277200, Note_on_c, 0, 41, 69
2, 277370, Note_off_c, 0, 41, 80
2, 277440, Note_on_c, 0, 44, 69
2, 277610, Note_off_c, 0, 44, 80
2, 277680, Note_on_c, 0, 44, 88
2, 277680, Note_on_c, 0, 51, 88
2, 278390, Note_off_c, 0, 44, 80
2, 278390, Note_off_c, 0, 51, 80
2, 278400, Control_c, 0, 10, 0
2, 278400, Note_on_c, 0, 70, 88
2, 278416, Pitch_bend_c, 0, 8320
2, 278432, Pitch_bend_c, 0, 8448
2, 278448, Pitch_bend_c, 0, 8832
2, 278464, Pitch_bend_c, 0, 9344
2, 278480, Pitch_bend_c, 0, 9600
2, 278576, Pitch_bend_c, 0, 9344
2, 278592, Pitch_bend_c, 0, 8832
2, 278608, Pitch_bend_c, 0, 8448
2, 278624, Pitch_bend_c, 0, 8320
2, 278640, Pitch_bend_c, 0, 8192
2, 278870, Note_off_c, 0, 70, 80
2, 278880, Note_on_c, 0, 68, 88
2, 279110, Note_off_c, 0, 68, 80
2, 279120, Note_on_c, 0, 70, 88
2, 280310, Note_off_c, 0, 70, 80
2, 280320, Note_on_c, 0, 70, 88
2, 281030, Note_off_c, 0, 70, 80
2, 281040, Note_on_c, 0, 70, 88
2, 281270, Note_off_c, 0, 70, 80
2, 281280, Note_on_c, 0, 75, 88
2, 281312, Pitch_bend_c, 0, 8320
2, 281328, Pitch_bend_c, 0, 8448
2, 281344, Pitch_bend_c, 0, 8704
2, 281360, Pitch_bend_c, 0, 8960
2, 281376, Pitch_bend_c, 0, 9344
2, 281392, Pitch_bend_c, 0, 9472
2, 281408, Pitch_bend_c, 0, 9600
2, 281750, Note_off_c, 0, 75, 80
2, 281760, Pitch_bend_c, 0, 8192
2, 281760, Note_on_c, 0, 73, 88
2, 282230, Note_off_c, 0, 73, 80
2, 282240, Note_on_c, 0, 77, 88
2, 282470, Note_off_c, 0, 77, 80
2, 282480, Note_on_c, 0, 80, 88
2, 283190, Note_off_c, 0, 80, 80
2, 283200, Note_on_c, 0, 80, 88
2, 283248, Pitch_bend_c, 0, 8320
2, 283296, Pitch_bend_c, 0, 8448
2, 283312, Pitch_bend_c, 0, 8576
2, 283328, Pitch_bend_c, 0, 8704
2, 283344, Pitch_bend_c, 0, 8832
2, 283360, Pitch_bend_c, 0, 8960
2, 283376, Pitch_bend_c, 0, 9088
2, 283392, Pitch_bend_c, 0, 9344
2, 283424, Pitch_bend_c, 0, 9472
2, 283440, Pitch_bend_c, 0, 9600
2, 283450, Pitch_bend_c, 0, 9472
2, 283472, Pitch_bend_c, 0, 9344
2, 283475, Pitch_bend_c, 0, 9472
2, 283477, Pitch_bend_c, 0, 9344
2, 283504, Pitch_bend_c, 0, 9472
2, 283519, Pitch_bend_c, 0, 9600
2, 283539, Pitch_bend_c, 0, 9728
2, 283588, Pitch_bend_c, 0, 9600
2, 283610, Pitch_bend_c, 0, 9472
2, 283630, Pitch_bend_c, 0, 9344
2, 283657, Pitch_bend_c, 0, 9472
2, 283684, Pitch_bend_c, 0, 9600
2, 283711, Pitch_bend_c, 0, 9728
2, 283748, Pitch_bend_c, 0, 9600
2, 283770, Pitch_bend_c, 0, 9472
2, 283790, Pitch_bend_c, 0, 9344
2, 283822, Pitch_bend_c, 0, 9472
2, 283824, Pitch_bend_c, 0, 9344
2, 283827, Pitch_bend_c, 0, 9472
2, 283849, Pitch_bend_c, 0, 9600
2, 283866, Pitch_bend_c, 0, 9728
2, 283913, Pitch_bend_c, 0, 9600
2, 283930, Pitch_bend_c, 0, 9472
2, 283950, Pitch_bend_c, 0, 9344
2, 283952, Pitch_bend_c, 0, 9472
2, 283955, Pitch_bend_c, 0, 9344
2, 283987, Pitch_bend_c, 0, 9472
2, 284009, Pitch_bend_c, 0, 9600
2, 284021, Pitch_bend_c, 0, 9728
2, 284073, Pitch_bend_c, 0, 9600
2, 284095, Pitch_bend_c, 0, 9472
2, 284115, Pitch_bend_c, 0, 9344
2, 284117, Pitch_bend_c, 0, 9472
2, 284169, Pitch_bend_c, 0, 9600
2, 284191, Pitch_bend_c, 0, 9728
2, 284238, Pitch_bend_c, 0, 9600
2, 284255, Pitch_bend_c, 0, 9472
2, 284272, Pitch_bend_c, 0, 9344
2, 284304, Pitch_bend_c, 0, 9472
2, 284307, Pitch_bend_c, 0, 9344
2, 284309, Pitch_bend_c, 0, 9472
2, 284329, Pitch_bend_c, 0, 9600
2, 284366, Pitch_bend_c, 0, 9728
2, 284398, Pitch_bend_c, 0, 9600
2, 284420, Pitch_bend_c, 0, 9472
2, 284494, Pitch_bend_c, 0, 9600
2, 284511, Pitch_bend_c, 0, 9728
2, 284563, Pitch_bend_c, 0, 9600
2, 284580, Pitch_bend_c, 0, 9472
2, 284595, Pitch_bend_c, 0, 9344
2, 284597, Pitch_bend_c, 0, 9472
2, 284607, Pitch_bend_c, 0, 9344
2, 284639, Pitch_bend_c, 0, 9472
2, 284654, Pitch_bend_c, 0, 9600
2, 284671, Pitch_bend_c, 0, 9728
2, 284720, Pitch_bend_c, 0, 9600
2, 284745, Pitch_bend_c, 0, 9472
2, 284772, Pitch_bend_c, 0, 9344
2, 284784, Pitch_bend_c, 0, 9472
2, 284814, Pitch_bend_c, 0, 9600
2, 284846, Pitch_bend_c, 0, 9728
2, 284890, Pitch_bend_c, 0, 9600
2, 284905, Pitch_bend_c, 0, 9472
2, 284979, Pitch_bend_c, 0, 9600
2, 285008, Pitch_bend_c, 0, 9728
2, 285011, Pitch_bend_c, 0, 9600
2, 285013, Pitch_bend_c, 0, 9728
2, 285040, Pitch_bend_c, 0, 9600
2, 285043, Pitch_bend_c, 0, 9728
2, 285045, Pitch_bend_c, 0, 9600
2, 285065, Pitch_bend_c, 0, 9472
2, 285092, Pitch_bend_c, 0, 9344
2, 285104, Pitch_bend_c, 0, 9472
2, 285107, Pitch_bend_c, 0, 9344
2, 285109, Pitch_bend_c, 0, 9472
2, 285141, Pitch_bend_c, 0, 9600
2, 285166, Pitch_bend_c, 0, 9728
2, 285198, Pitch_bend_c, 0, 9600
2, 285200, Pitch_bend_c, 0, 9728
2, 285203, Pitch_bend_c, 0, 9600
2, 285205, Pitch_bend_c, 0, 9728
2, 285210, Pitch_bend_c, 0, 9600
2, 285225, Pitch_bend_c, 0, 9472
2, 285257, Pitch_bend_c, 0, 9344
2, 285274, Pitch_bend_c, 0, 9472
2, 285301, Pitch_bend_c, 0, 9600
2, 285326, Pitch_bend_c, 0, 9728
2, 285365, Pitch_bend_c, 0, 9600
2, 285392, Pitch_bend_c, 0, 9472
2, 285412, Pitch_bend_c, 0, 9344
2, 285424, Pitch_bend_c, 0, 9472
2, 285427, Pitch_bend_c, 0, 9344
2, 285429, Pitch_bend_c, 0, 9472
2, 285466, Pitch_bend_c, 0, 9600
2, 285481, Pitch_bend_c, 0, 9728
2, 285488, Pitch_bend_c, 0, 9600
2, 285491, Pitch_bend_c, 0, 9728
2, 285530, Pitch_bend_c, 0, 9600
2, 285552, Pitch_bend_c, 0, 9472
2, 285582, Pitch_bend_c, 0, 9344
2, 285609, Pitch_bend_c, 0, 9472
2, 285626, Pitch_bend_c, 0, 9600
2, 285648, Pitch_bend_c, 0, 9728
2, 285651, Pitch_bend_c, 0, 9600
2, 285653, Pitch_bend_c, 0, 9728
2, 285695, Pitch_bend_c, 0, 9600
2, 285712, Pitch_bend_c, 0, 9472
2, 285732, Pitch_bend_c, 0, 9344
2, 285774, Pitch_bend_c, 0, 9472
2, 285791, Pitch_bend_c, 0, 9600
2, 285806, Pitch_bend_c, 0, 9728
2, 285808, Pitch_bend_c, 0, 9600
2, 285811, Pitch_bend_c, 0, 9728
2, 285860, Pitch_bend_c, 0, 9600
2, 285875, Pitch_bend_c, 0, 9472
2, 285904, Pitch_bend_c, 0, 9344
2, 285907, Pitch_bend_c, 0, 9472
2, 285909, Pitch_bend_c, 0, 9344
2, 285929, Pitch_bend_c, 0, 9472
2, 285951, Pitch_bend_c, 0, 9600
2, 285983, Pitch_bend_c, 0, 9728
2, 286003, Pitch_bend_c, 0, 9600
2, 286005, Pitch_bend_c, 0, 9728
2, 286025, Pitch_bend_c, 0, 9600
2, 286037, Pitch_bend_c, 0, 9472
2, 286057, Pitch_bend_c, 0, 9344
2, 286070, Note_off_c, 0, 80, 80
2, 286080, Pitch_bend_c, 0, 8192
2, 286080, Note_on_c, 0, 68, 88
2, 288230, Note_off_c, 0, 68, 80
2, 288240, Note_on_c, 0, 70, 88
2, 288272, Pitch_bend_c, 0, 8320
2, 288320, Pitch_bend_c, 0, 8576
2, 288336, Pitch_bend_c, 0, 8704
2, 288352, Pitch_bend_c, 0, 8832
2, 288368, Pitch_bend_c, 0, 9088
2, 288384, Pitch_bend_c, 0, 9344
2, 288416, Pitch_bend_c, 0, 9600
2, 288950, Note_off_c, 0, 70, 80
2, 288960, Pitch_bend_c, 0, 8192
2, 288960, Note_on_c, 0, 70, 88
2, 288992, Pitch_bend_c, 0, 8320
2, 289008, Pitch_bend_c, 0, 8448
2, 289024, Pitch_bend_c, 0, 8704
2, 289040, Pitch_bend_c, 0, 8960
2, 289056, Pitch_bend_c, 0, 9344
2, 289072, Pitch_bend_c, 0, 9472
2, 289088, Pitch_bend_c, 0, 9600
2, 289216, Pitch_bend_c, 0, 9344
2, 289232, Pitch_bend_c, 0, 9088
2, 289248, Pitch_bend_c, 0, 8832
2, 289264, Pitch_bend_c, 0, 8576
2, 289280, Pitch_bend_c, 0, 8320
2, 289312, Pitch_bend_c, 0, 8192
2, 289670, Note_off_c, 0, 70, 80
2, 289680, Note_on_c, 0, 68, 88
2, 289790, Note_off_c, 0, 68, 80
2, 289800, Note_on_c, 0, 70, 88
2, 289910, Note_off_c, 0, 70, 80
2, 289920, Note_on_c, 0, 70, 88
2, 289952, Pitch_bend_c, 0, 8320
2, 289984, Pitch_bend_c, 0, 8448
2, 290000, Pitch_bend_c, 0, 8576
2, 290016, Pitch_bend_c, 0, 8832
2, 290032, Pitch_bend_c, 0, 9088
2, 290048, Pitch_bend_c, 0, 9344
2, 290064, Pitch_bend_c, 0, 9472
2, 290080, Pitch_bend_c, 0, 9600
2, 290576, Pitch_bend_c, 0, 9472
2, 290592, Pitch_bend_c, 0, 9344
2, 290608, Pitch_bend_c, 0, 9088
2, 290624, Pitch_bend_c, 0, 8832
2, 290640, Pitch_bend_c, 0, 8576
2, 290656, Pitch_bend_c, 0, 8448
2, 290672, Pitch_bend_c, 0, 8320
2, 290704, Pitch_bend_c, 0, 8192
2, 290870, Note_off_c, 0, 70, 80
2, 290880, Note_on_c, 0, 68, 88
2, 293750, Note_off_c, 0, 68, 80
2, 293760, Control_c, 0, 7, 40
2, 293760, Note_on_c, 0, 44, 88
2, 293760, Note_on_c, 0, 51, 88
2, 293760, Note_on_c, 0, 56, 88
2, 293990, Note_off_c, 0, 44, 80
2, 293990, Note_off_c, 0, 51, 80
2, 293990, Note_off_c, 0, 56, 80
2, 294000, Note_on_c, 0, 44, 88
2, 294000, Note_on_c, 0, 51, 88
2, 294000, Note_on_c, 0, 56, 88
2, 294230, Note_off_c, 0, 44, 80
2, 294230, Note_off_c, 0, 51, 80
2, 294230, Note_off_c, 0, 56, 80
2, 294240, Note_on_c, 0, 44, 88
2, 294240, Note_on_c, 0, 51, 88
2, 294240, Note_on_c, 0, 56, 88
2, 294470, Note_off_c, 0, 44, 80
2, 294470, Note_off_c, 0, 51, 80
2, 294470, Note_off_c, 0, 56, 80
2, 294480, Note_on_c, 0, 44, 88
2, 294480, Note_on_c, 0, 51, 88
2, 294480, Note_on_c, 0, 56, 88
2, 294710, Note_off_c, 0, 44, 80
2, 294710, Note_off_c, 0, 51, 80
2, 294710, Note_off_c, 0, 56, 80
2, 294720, Note_on_c, 0, 44, 88
2, 294720, Note_on_c, 0, 51, 88
2, 294720, Note_on_c, 0, 56, 88
2, 294950, Note_off_c, 0, 44, 80
2, 294950, Note_off_c, 0, 51, 80
2, 294950, Note_off_c, 0, 56, 80
2, 294960, Note_on_c, 0, 44, 88
2, 294960, Note_on_c, 0, 51, 88
2, 294960, Note_on_c, 0, 56, 88
2, 295190, Note_off_c, 0, 44, 80
2, 295190, Note_off_c, 0, 51, 80
2, 295190, Note_off_c, 0, 56, 80
2, 295200, Note_on_c, 0, 44, 88
2, 295200, Note_on_c, 0, 51, 88
2, 295200, Note_on_c, 0, 56, 88
2, 295430, Note_off_c, 0, 44, 80
2, 295430, Note_off_c, 0, 51, 80
2, 295430, Note_off_c, 0, 56, 80
2, 295440, Note_on_c, 0, 44, 88
2, 295440, Note_on_c, 0, 51, 88
2, 295440, Note_on_c, 0, 56, 88
2, 295670, Note_off_c, 0, 44, 80
2, 295670, Note_off_c, 0, 51, 80
2, 295670, Note_off_c, 0, 56, 80
2, 295680, Note_on_c, 0, 44, 88
2, 295680, Note_on_c, 0, 51, 88
2, 295680, Note_on_c, 0, 56, 88
2, 295910, Note_off_c, 0, 44, 80
2, 295910, Note_off_c, 0, 51, 80
2, 295910, Note_off_c, 0, 56, 80
2, 295920, Note_on_c, 0, 44, 88
2, 295920, Note_on_c, 0, 51, 88
2, 295920, Note_on_c, 0, 56, 88
2, 296150, Note_off_c, 0, 44, 80
2, 296150, Note_off_c, 0, 51, 80
2, 296150, Note_off_c, 0, 56, 80
2, 296160, Note_on_c, 0, 44, 88
2, 296160, Note_on_c, 0, 51, 88
2, 296160, Note_on_c, 0, 56, 88
2, 296390, Note_off_c, 0, 44, 80
2, 296390, Note_off_c, 0, 51, 80
2, 296390, Note_off_c, 0, 56, 80
2, 296400, Note_on_c, 0, 44, 88
2, 296400, Note_on_c, 0, 51, 88
2, 296400, Note_on_c, 0, 56, 88
2, 296630, Note_off_c, 0, 44, 80
2, 296630, Note_off_c, 0, 51, 80
2, 296630, Note_off_c, 0, 56, 80
2, 296640, Note_on_c, 0, 44, 88
2, 296640, Note_on_c, 0, 51, 88
2, 296640, Note_on_c, 0, 56, 88
2, 296870, Note_off_c, 0, 44, 80
2, 296870, Note_off_c, 0, 51, 80
2, 296870, Note_off_c, 0, 56, 80
2, 296880, Note_on_c, 0, 44, 88
2, 296880, Note_on_c, 0, 51, 88
2, 296880, Note_on_c, 0, 56, 88
2, 297110, Note_off_c, 0, 44, 80
2, 297110, Note_off_c, 0, 51, 80
2, 297110, Note_off_c, 0, 56, 80
2, 297120, Note_on_c, 0, 44, 88
2, 297120, Note_on_c, 0, 51, 88
2, 297120, Note_on_c, 0, 56, 88
2, 297350, Note_off_c, 0, 44, 80
2, 297350, Note_off_c, 0, 51, 80
2, 297350, Note_off_c, 0, 56, 80
2, 297360, Note_on_c, 0, 44, 88
2, 297360, Note_on_c, 0, 51, 88
2, 297360, Note_on_c, 0, 56, 88
2, 297590, Note_off_c, 0, 44, 80
2, 297590, Note_off_c, 0, 51, 80
2, 297590, Note_off_c, 0, 56, 80
2, 297600, Note_on_c, 0, 44, 88
2, 297600, Note_on_c, 0, 49, 88
2, 297600, Note_on_c, 0, 56, 88
2, 297830, Note_off_c, 0, 44, 80
2, 297830, Note_off_c, 0, 49, 80
2, 297830, Note_off_c, 0, 56, 80
2, 297840, Note_on_c, 0, 44, 88
2, 297840, Note_on_c, 0, 49, 88
2, 297840, Note_on_c, 0, 56, 88
2, 298070, Note_off_c, 0, 44, 80
2, 298070, Note_off_c, 0, 49, 80
2, 298070, Note_off_c, 0, 56, 80
2, 298080, Note_on_c, 0, 44, 88
2, 298080, Note_on_c, 0, 49, 88
2, 298080, Note_on_c, 0, 56, 88
2, 298310, Note_off_c, 0, 44, 80
2, 298310, Note_off_c, 0, 49, 80
2, 298310, Note_off_c, 0, 56, 80
2, 298320, Note_on_c, 0, 44, 88
2, 298320, Note_on_c, 0, 49, 88
2, 298320, Note_on_c, 0, 56, 88
2, 298550, Note_off_c, 0, 44, 80
2, 298550, Note_off_c, 0, 49, 80
2, 298550, Note_off_c, 0, 56, 80
2, 298560, Note_on_c, 0, 44, 88
2, 298560, Note_on_c, 0, 49, 88
2, 298560, Note_on_c, 0, 56, 88
2, 298790, Note_off_c, 0, 44, 80
2, 298790, Note_off_c, 0, 49, 80
2, 298790, Note_off_c, 0, 56, 80
2, 298800, Note_on_c, 0, 44, 88
2, 298800, Note_on_c, 0, 49, 88
2, 298800, Note_on_c, 0, 56, 88
2, 299030, Note_off_c, 0, 44, 80
2, 299030, Note_off_c, 0, 49, 80
2, 299030, Note_off_c, 0, 56, 80
2, 299040, Note_on_c, 0, 44, 88
2, 299040, Note_on_c, 0, 49, 88
2, 299040, Note_on_c, 0, 56, 88
2, 299270, Note_off_c, 0, 44, 80
2, 299270, Note_off_c, 0, 49, 80
2, 299270, Note_off_c, 0, 56, 80
2, 299280, Note_on_c, 0, 44, 88
2, 299280, Note_on_c, 0, 49, 88
2, 299280, Note_on_c, 0, 56, 88
2, 299510, Note_off_c, 0, 44, 80
2, 299510, Note_off_c, 0, 49, 80
2, 299510, Note_off_c, 0, 56, 80
2, 299520, Note_on_c, 0, 44, 88
2, 299520, Note_on_c, 0, 49, 88
2, 299520, Note_on_c, 0, 56, 88
2, 299750, Note_off_c, 0, 44, 80
2, 299750, Note_off_c, 0, 49, 80
2, 299750, Note_off_c, 0, 56, 80
2, 299760, Note_on_c, 0, 44, 88
2, 299760, Note_on_c, 0, 49, 88
2, 299760, Note_on_c, 0, 56, 88
2, 299990, Note_off_c, 0, 44, 80
2, 299990, Note_off_c, 0, 49, 80
2, 299990, Note_off_c, 0, 56, 80
2, 300000, Note_on_c, 0, 44, 88
2, 300000, Note_on_c, 0, 49, 88
2, 300000, Note_on_c, 0, 56, 88
2, 300230, Note_off_c, 0, 44, 80
2, 300230, Note_off_c, 0, 49, 80
2, 300230, Note_off_c, 0, 56, 80
2, 300240, Note_on_c, 0, 44, 88
2, 300240, Note_on_c, 0, 49, 88
2, 300240, Note_on_c, 0, 56, 88
2, 300470, Note_off_c, 0, 44, 80
2, 300470, Note_off_c, 0, 49, 80
2, 300470, Note_off_c, 0, 56, 80
2, 300480, Note_on_c, 0, 44, 88
2, 300480, Note_on_c, 0, 49, 88
2, 300480, Note_on_c, 0, 56, 88
2, 300710, Note_off_c, 0, 44, 80
2, 300710, Note_off_c, 0, 49, 80
2, 300710, Note_off_c, 0, 56, 80
2, 300720, Note_on_c, 0, 44, 88
2, 300720, Note_on_c, 0, 49, 88
2, 300720, Note_on_c, 0, 56, 88
2, 300950, Note_off_c, 0, 44, 80
2, 300950, Note_off_c, 0, 49, 80
2, 300950, Note_off_c, 0, 56, 80
2, 300960, Note_on_c, 0, 44, 88
2, 300960, Note_on_c, 0, 49, 88
2, 300960, Note_on_c, 0, 56, 88
2, 301190, Note_off_c, 0, 44, 80
2, 301190, Note_off_c, 0, 49, 80
2, 301190, Note_off_c, 0, 56, 80
2, 301200, Note_on_c, 0, 44, 88
2, 301200, Note_on_c, 0, 49, 88
2, 301200, Note_on_c, 0, 56, 88
2, 301430, Note_off_c, 0, 44, 80
2, 301430, Note_off_c, 0, 49, 80
2, 301430, Note_off_c, 0, 56, 80
2, 301440, Note_on_c, 0, 44, 88
2, 301440, Note_on_c, 0, 51, 88
2, 301440, Note_on_c, 0, 56, 88
2, 301670, Note_off_c, 0, 44, 80
2, 301670, Note_off_c, 0, 51, 80
2, 301670, Note_off_c, 0, 56, 80
2, 301680, Note_on_c, 0, 44, 88
2, 301680, Note_on_c, 0, 51, 88
2, 301680, Note_on_c, 0, 56, 88
2, 301910, Note_off_c, 0, 44, 80
2, 301910, Note_off_c, 0, 51, 80
2, 301910, Note_off_c, 0, 56, 80
2, 301920, Note_on_c, 0, 44, 88
2, 301920, Note_on_c, 0, 51, 88
2, 301920, Note_on_c, 0, 56, 88
2, 302150, Note_off_c, 0, 44, 80
2, 302150, Note_off_c, 0, 51, 80
2, 302150, Note_off_c, 0, 56, 80
2, 302160, Note_on_c, 0, 44, 88
2, 302160, Note_on_c, 0, 51, 88
2, 302160, Note_on_c, 0, 56, 88
2, 302390, Note_off_c, 0, 44, 80
2, 302390, Note_off_c, 0, 51, 80
2, 302390, Note_off_c, 0, 56, 80
2, 302400, Note_on_c, 0, 44, 88
2, 302400, Note_on_c, 0, 51, 88
2, 302400, Note_on_c, 0, 56, 88
2, 302630, Note_off_c, 0, 44, 80
2, 302630, Note_off_c, 0, 51, 80
2, 302630, Note_off_c, 0, 56, 80
2, 302640, Note_on_c, 0, 44, 88
2, 302640, Note_on_c, 0, 51, 88
2, 302640, Note_on_c, 0, 56, 88
2, 302870, Note_off_c, 0, 44, 80
2, 302870, Note_off_c, 0, 51, 80
2, 302870, Note_off_c, 0, 56, 80
2, 302880, Note_on_c, 0, 44, 88
2, 302880, Note_on_c, 0, 51, 88
2, 302880, Note_on_c, 0, 56, 88
2, 303110, Note_off_c, 0, 44, 80
2, 303110, Note_off_c, 0, 51, 80
2, 303110, Note_off_c, 0, 56, 80
2, 303120, Note_on_c, 0, 44, 88
2, 303120, Note_on_c, 0, 51, 88
2, 303120, Note_on_c, 0, 56, 88
2, 303350, Note_off_c, 0, 44, 80
2, 303350, Note_off_c, 0, 51, 80
2, 303350, Note_off_c, 0, 56, 80
2, 303360, Note_on_c, 0, 44, 88
2, 303360, Note_on_c, 0, 51, 88
2, 303360, Note_on_c, 0, 56, 88
2, 303590, Note_off_c, 0, 44, 80
2, 303590, Note_off_c, 0, 51, 80
2, 303590, Note_off_c, 0, 56, 80
2, 303600, Note_on_c, 0, 44, 88
2, 303600, Note_on_c, 0, 51, 88
2, 303600, Note_on_c, 0, 56, 88
2, 303830, Note_off_c, 0, 44, 80
2, 303830, Note_off_c, 0, 51, 80
2, 303830, Note_off_c, 0, 56, 80
2, 303840, Note_on_c, 0, 44, 88
2, 303840, Note_on_c, 0, 51, 88
2, 303840, Note_on_c, 0, 56, 88
2, 304070, Note_off_c, 0, 44, 80
2, 304070, Note_off_c, 0, 51, 80
2, 304070, Note_off_c, 0, 56, 80
2, 304080, Note_on_c, 0, 44, 88
2, 304080, Note_on_c, 0, 51, 88
2, 304080, Note_on_c, 0, 56, 88
2, 304310, Note_off_c, 0, 44, 80
2, 304310, Note_off_c, 0, 51, 80
2, 304310, Note_off_c, 0, 56, 80
2, 304320, Note_on_c, 0, 44, 88
2, 304320, Note_on_c, 0, 51, 88
2, 304320, Note_on_c, 0, 56, 88
2, 304550, Note_off_c, 0, 44, 80
2, 304550, Note_off_c, 0, 51, 80
2, 304550, Note_off_c, 0, 56, 80
2, 304560, Note_on_c, 0, 44, 88
2, 304560, Note_on_c, 0, 51, 88
2, 304560, Note_on_c, 0, 56, 88
2, 304790, Note_off_c, 0, 44, 80
2, 304790, Note_off_c, 0, 51, 80
2, 304790, Note_off_c, 0, 56, 80
2, 304800, Note_on_c, 0, 44, 88
2, 304800, Note_on_c, 0, 51, 88
2, 304800, Note_on_c, 0, 56, 88
2, 305030, Note_off_c, 0, 44, 80
2, 305030, Note_off_c, 0, 51, 80
2, 305030, Note_off_c, 0, 56, 80
2, 305040, Note_on_c, 0, 44, 88
2, 305040, Note_on_c, 0, 51, 88
2, 305040, Note_on_c, 0, 56, 88
2, 305270, Note_off_c, 0, 44, 80
2, 305270, Note_off_c, 0, 51, 80
2, 305270, Note_off_c, 0, 56, 80
2, 305280, Note_on_c, 0, 44, 88
2, 305280, Note_on_c, 0, 49, 88
2, 305280, Note_on_c, 0, 56, 88
2, 305510, Note_off_c, 0, 44, 80
2, 305510, Note_off_c, 0, 49, 80
2, 305510, Note_off_c, 0, 56, 80
2, 305520, Note_on_c, 0, 44, 88
2, 305520, Note_on_c, 0, 49, 88
2, 305520, Note_on_c, 0, 56, 88
2, 305750, Note_off_c, 0, 44, 80
2, 305750, Note_off_c, 0, 49, 80
2, 305750, Note_off_c, 0, 56, 80
2, 305760, Note_on_c, 0, 44, 88
2, 305760, Note_on_c, 0, 49, 88
2, 305760, Note_on_c, 0, 56, 88
2, 305990, Note_off_c, 0, 44, 80
2, 305990, Note_off_c, 0, 49, 80
2, 305990, Note_off_c, 0, 56, 80
2, 306000, Note_on_c, 0, 44, 88
2, 306000, Note_on_c, 0, 49, 88
2, 306000, Note_on_c, 0, 56, 88
2, 306230, Note_off_c, 0, 44, 80
2, 306230, Note_off_c, 0, 49, 80
2, 306230, Note_off_c, 0, 56, 80
2, 306240, Note_on_c, 0, 44, 88
2, 306240, Note_on_c, 0, 49, 88
2, 306240, Note_on_c, 0, 56, 88
2, 306470, Note_off_c, 0, 44, 80
2, 306470, Note_off_c, 0, 49, 80
2, 306470, Note_off_c, 0, 56, 80
2, 306480, Note_on_c, 0, 44, 88
2, 306480, Note_on_c, 0, 49, 88
2, 306480, Note_on_c, 0, 56, 88
2, 306710, Note_off_c, 0, 44, 80
2, 306710, Note_off_c, 0, 49, 80
2, 306710, Note_off_c, 0, 56, 80
2, 306720, Note_on_c, 0, 44, 88
2, 306720, Note_on_c, 0, 49, 88
2, 306720, Note_on_c, 0, 56, 88
2, 306950, Note_off_c, 0, 44, 80
2, 306950, Note_off_c, 0, 49, 80
2, 306950, Note_off_c, 0, 56, 80
2, 306960, Note_on_c, 0, 44, 88
2, 306960, Note_on_c, 0, 49, 88
2, 306960, Note_on_c, 0, 56, 88
2, 307190, Note_off_c, 0, 44, 80
2, 307190, Note_off_c, 0, 49, 80
2, 307190, Note_off_c, 0, 56, 80
2, 307200, Note_on_c, 0, 44, 88
2, 307200, Note_on_c, 0, 49, 88
2, 307200, Note_on_c, 0, 56, 88
2, 307430, Note_off_c, 0, 44, 80
2, 307430, Note_off_c, 0, 49, 80
2, 307430, Note_off_c, 0, 56, 80
2, 307440, Note_on_c, 0, 44, 88
2, 307440, Note_on_c, 0, 49, 88
2, 307440, Note_on_c, 0, 56, 88
2, 307670, Note_off_c, 0, 44, 80
2, 307670, Note_off_c, 0, 49, 80
2, 307670, Note_off_c, 0, 56, 80
2, 307680, Note_on_c, 0, 44, 88
2, 307680, Note_on_c, 0, 49, 88
2, 307680, Note_on_c, 0, 56, 88
2, 307910, Note_off_c, 0, 44, 80
2, 307910, Note_off_c, 0, 49, 80
2, 307910, Note_off_c, 0, 56, 80
2, 307920, Note_on_c, 0, 44, 88
2, 307920, Note_on_c, 0, 49, 88
2, 307920, Note_on_c, 0, 56, 88
2, 308150, Note_off_c, 0, 44, 80
2, 308150, Note_off_c, 0, 49, 80
2, 308150, Note_off_c, 0, 56, 80
2, 308160, Note_on_c, 0, 44, 88
2, 308160, Note_on_c, 0, 49, 88
2, 308160, Note_on_c, 0, 56, 88
2, 308390, Note_off_c, 0, 44, 80
2, 308390, Note_off_c, 0, 49, 80
2, 308390, Note_off_c, 0, 56, 80
2, 308400, Note_on_c, 0, 44, 88
2, 308400, Note_on_c, 0, 49, 88
2, 308400, Note_on_c, 0, 56, 88
2, 308630, Note_off_c, 0, 44, 80
2, 308630, Note_off_c, 0, 49, 80
2, 308630, Note_off_c, 0, 56, 80
2, 308640, Note_on_c, 0, 44, 88
2, 308640, Note_on_c, 0, 49, 88
2, 308640, Note_on_c, 0, 56, 88
2, 308870, Note_off_c, 0, 44, 80
2, 308870, Note_off_c, 0, 49, 80
2, 308870, Note_off_c, 0, 56, 80
2, 308880, Note_on_c, 0, 44, 88
2, 308880, Note_on_c, 0, 49, 88
2, 308880, Note_on_c, 0, 56, 88
2, 309110, Note_off_c, 0, 44, 80
2, 309110, Note_off_c, 0, 49, 80
2, 309110, Note_off_c, 0, 56, 80
2, 309120, Note_on_c, 0, 44, 88
2, 309120, Note_on_c, 0, 51, 88
2, 309120, Note_on_c, 0, 56, 88
2, 309350, Note_off_c, 0, 44, 80
2, 309350, Note_off_c, 0, 51, 80
2, 309350, Note_off_c, 0, 56, 80
2, 309360, Note_on_c, 0, 44, 88
2, 309360, Note_on_c, 0, 51, 88
2, 309360, Note_on_c, 0, 56, 88
2, 309590, Note_off_c, 0, 44, 80
2, 309590, Note_off_c, 0, 51, 80
2, 309590, Note_off_c, 0, 56, 80
2, 309600, Note_on_c, 0, 44, 88
2, 309600, Note_on_c, 0, 51, 88
2, 309600, Note_on_c, 0, 56, 88
2, 309830, Note_off_c, 0, 44, 80
2, 309830, Note_off_c, 0, 51, 80
2, 309830, Note_off_c, 0, 56, 80
2, 309840, Note_on_c, 0, 44, 88
2, 309840, Note_on_c, 0, 51, 88
2, 309840, Note_on_c, 0, 56, 88
2, 310070, Note_off_c, 0, 44, 80
2, 310070, Note_off_c, 0, 51, 80
2, 310070, Note_off_c, 0, 56, 80
2, 310080, Note_on_c, 0, 44, 88
2, 310080, Note_on_c, 0, 51, 88
2, 310080, Note_on_c, 0, 56, 88
2, 310310, Note_off_c, 0, 44, 80
2, 310310, Note_off_c, 0, 51, 80
2, 310310, Note_off_c, 0, 56, 80
2, 310320, Note_on_c, 0, 44, 88
2, 310320, Note_on_c, 0, 51, 88
2, 310320, Note_on_c, 0, 56, 88
2, 310550, Note_off_c, 0, 44, 80
2, 310550, Note_off_c, 0, 51, 80
2, 310550, Note_off_c, 0, 56, 80
2, 310560, Note_on_c, 0, 44, 88
2, 310560, Note_on_c, 0, 51, 88
2, 310560, Note_on_c, 0, 56, 88
2, 310790, Note_off_c, 0, 44, 80
2, 310790, Note_off_c, 0, 51, 80
2, 310790, Note_off_c, 0, 56, 80
2, 310800, Note_on_c, 0, 44, 88
2, 310800, Note_on_c, 0, 51, 88
2, 310800, Note_on_c, 0, 56, 88
2, 311030, Note_off_c, 0, 44, 80
2, 311030, Note_off_c, 0, 51, 80
2, 311030, Note_off_c, 0, 56, 80
2, 311040, Note_on_c, 0, 44, 88
2, 311040, Note_on_c, 0, 51, 88
2, 311040, Note_on_c, 0, 56, 88
2, 311270, Note_off_c, 0, 44, 80
2, 311270, Note_off_c, 0, 51, 80
2, 311270, Note_off_c, 0, 56, 80
2, 311280, Note_on_c, 0, 44, 88
2, 311280, Note_on_c, 0, 51, 88
2, 311280, Note_on_c, 0, 56, 88
2, 311510, Note_off_c, 0, 44, 80
2, 311510, Note_off_c, 0, 51, 80
2, 311510, Note_off_c, 0, 56, 80
2, 311520, Note_on_c, 0, 44, 88
2, 311520, Note_on_c, 0, 51, 88
2, 311520, Note_on_c, 0, 56, 88
2, 311750, Note_off_c, 0, 44, 80
2, 311750, Note_off_c, 0, 51, 80
2, 311750, Note_off_c, 0, 56, 80
2, 311760, Note_on_c, 0, 44, 88
2, 311760, Note_on_c, 0, 51, 88
2, 311760, Note_on_c, 0, 56, 88
2, 311990, Note_off_c, 0, 44, 80
2, 311990, Note_off_c, 0, 51, 80
2, 311990, Note_off_c, 0, 56, 80
2, 312000, Note_on_c, 0, 44, 88
2, 312000, Note_on_c, 0, 51, 88
2, 312000, Note_on_c, 0, 56, 88
2, 312230, Note_off_c, 0, 44, 80
2, 312230, Note_off_c, 0, 51, 80
2, 312230, Note_off_c, 0, 56, 80
2, 312240, Note_on_c, 0, 44, 88
2, 312240, Note_on_c, 0, 51, 88
2, 312240, Note_on_c, 0, 56, 88
2, 312470, Note_off_c, 0, 44, 80
2, 312470, Note_off_c, 0, 51, 80
2, 312470, Note_off_c, 0, 56, 80
2, 312480, Note_on_c, 0, 44, 88
2, 312480, Note_on_c, 0, 51, 88
2, 312480, Note_on_c, 0, 56, 88
2, 312710, Note_off_c, 0, 44, 80
2, 312710, Note_off_c, 0, 51, 80
2, 312710, Note_off_c, 0, 56, 80
2, 312720, Note_on_c, 0, 44, 88
2, 312720, Note_on_c, 0, 51, 88
2, 312720, Note_on_c, 0, 56, 88
2, 312950, Note_off_c, 0, 44, 80
2, 312950, Note_off_c, 0, 51, 80
2, 312950, Note_off_c, 0, 56, 80
2, 312960, Note_on_c, 0, 44, 88
2, 312960, Note_on_c, 0, 49, 88
2, 312960, Note_on_c, 0, 56, 88
2, 313190, Note_off_c, 0, 44, 80
2, 313190, Note_off_c, 0, 49, 80
2, 313190, Note_off_c, 0, 56, 80
2, 313200, Note_on_c, 0, 44, 88
2, 313200, Note_on_c, 0, 49, 88
2, 313200, Note_on_c, 0, 56, 88
2, 313430, Note_off_c, 0, 44, 80
2, 313430, Note_off_c, 0, 49, 80
2, 313430, Note_off_c, 0, 56, 80
2, 313440, Note_on_c, 0, 44, 88
2, 313440, Note_on_c, 0, 49, 88
2, 313440, Note_on_c, 0, 56, 88
2, 313670, Note_off_c, 0, 44, 80
2, 313670, Note_off_c, 0, 49, 80
2, 313670, Note_off_c, 0, 56, 80
2, 313680, Note_on_c, 0, 44, 88
2, 313680, Note_on_c, 0, 49, 88
2, 313680, Note_on_c, 0, 56, 88
2, 313910, Note_off_c, 0, 44, 80
2, 313910, Note_off_c, 0, 49, 80
2, 313910, Note_off_c, 0, 56, 80
2, 313920, Note_on_c, 0, 44, 88
2, 313920, Note_on_c, 0, 49, 88
2, 313920, Note_on_c, 0, 56, 88
2, 314150, Note_off_c, 0, 44, 80
2, 314150, Note_off_c, 0, 49, 80
2, 314150, Note_off_c, 0, 56, 80
2, 314160, Note_on_c, 0, 44, 88
2, 314160, Note_on_c, 0, 49, 88
2, 314160, Note_on_c, 0, 56, 88
2, 314390, Note_off_c, 0, 44, 80
2, 314390, Note_off_c, 0, 49, 80
2, 314390, Note_off_c, 0, 56, 80
2, 314400, Note_on_c, 0, 44, 88
2, 314400, Note_on_c, 0, 49, 88
2, 314400, Note_on_c, 0, 56, 88
2, 314630, Note_off_c, 0, 44, 80
2, 314630, Note_off_c, 0, 49, 80
2, 314630, Note_off_c, 0, 56, 80
2, 314640, Note_on_c, 0, 44, 88
2, 314640, Note_on_c, 0, 49, 88
2, 314640, Note_on_c, 0, 56, 88
2, 314870, Note_off_c, 0, 44, 80
2, 314870, Note_off_c, 0, 49, 80
2, 314870, Note_off_c, 0, 56, 80
2, 314880, Note_on_c, 0, 44, 88
2, 314880, Note_on_c, 0, 49, 88
2, 314880, Note_on_c, 0, 56, 88
2, 315110, Note_off_c, 0, 44, 80
2, 315110, Note_off_c, 0, 49, 80
2, 315110, Note_off_c, 0, 56, 80
2, 315120, Note_on_c, 0, 44, 88
2, 315120, Note_on_c, 0, 49, 88
2, 315120, Note_on_c, 0, 56, 88
2, 315350, Note_off_c, 0, 44, 80
2, 315350, Note_off_c, 0, 49, 80
2, 315350, Note_off_c, 0, 56, 80
2, 315360, Note_on_c, 0, 44, 88
2, 315360, Note_on_c, 0, 49, 88
2, 315360, Note_on_c, 0, 56, 88
2, 315590, Note_off_c, 0, 44, 80
2, 315590, Note_off_c, 0, 49, 80
2, 315590, Note_off_c, 0, 56, 80
2, 315600, Note_on_c, 0, 44, 88
2, 315600, Note_on_c, 0, 49, 88
2, 315600, Note_on_c, 0, 56, 88
2, 315830, Note_off_c, 0, 44, 80
2, 315830, Note_off_c, 0, 49, 80
2, 315830, Note_off_c, 0, 56, 80
2, 315840, Note_on_c, 0, 44, 88
2, 315840, Note_on_c, 0, 49, 88
2, 315840, Note_on_c, 0, 56, 88
2, 316070, Note_off_c, 0, 44, 80
2, 316070, Note_off_c, 0, 49, 80
2, 316070, Note_off_c, 0, 56, 80
2, 316080, Note_on_c, 0, 44, 88
2, 316080, Note_on_c, 0, 49, 88
2, 316080, Note_on_c, 0, 56, 88
2, 316310, Note_off_c, 0, 44, 80
2, 316310, Note_off_c, 0, 49, 80
2, 316310, Note_off_c, 0, 56, 80
2, 316320, Note_on_c, 0, 44, 88
2, 316320, Note_on_c, 0, 49, 88
2, 316320, Note_on_c, 0, 56, 88
2, 316550, Note_off_c, 0, 44, 80
2, 316550, Note_off_c, 0, 49, 80
2, 316550, Note_off_c, 0, 56, 80
2, 316560, Note_on_c, 0, 44, 88
2, 316560, Note_on_c, 0, 49, 88
2, 316560, Note_on_c, 0, 56, 88
2, 316790, Note_off_c, 0, 44, 80
2, 316790, Note_off_c, 0, 49, 80
2, 316790, Note_off_c, 0, 56, 80
2, 316800, Note_on_c, 0, 44, 88
2, 316800, Note_on_c, 0, 51, 88
2, 316800, Note_on_c, 0, 56, 88
2, 317030, Note_off_c, 0, 44, 80
2, 317030, Note_off_c, 0, 51, 80
2, 317030, Note_off_c, 0, 56, 80
2, 317040, Note_on_c, 0, 44, 88
2, 317040, Note_on_c, 0, 51, 88
2, 317040, Note_on_c, 0, 56, 88
2, 317270, Note_off_c, 0, 44, 80
2, 317270, Note_off_c, 0, 51, 80
2, 317270, Note_off_c, 0, 56, 80
2, 317280, Note_on_c, 0, 44, 88
2, 317280, Note_on_c, 0, 51, 88
2, 317280, Note_on_c, 0, 56, 88
2, 317510, Note_off_c, 0, 44, 80
2, 317510, Note_off_c, 0, 51, 80
2, 317510, Note_off_c, 0, 56, 80
2, 317520, Note_on_c, 0, 44, 88
2, 317520, Note_on_c, 0, 51, 88
2, 317520, Note_on_c, 0, 56, 88
2, 317750, Note_off_c, 0, 44, 80
2, 317750, Note_off_c, 0, 51, 80
2, 317750, Note_off_c, 0, 56, 80
2, 317760, Note_on_c, 0, 44, 88
2, 317760, Note_on_c, 0, 51, 88
2, 317760, Note_on_c, 0, 56, 88
2, 317990, Note_off_c, 0, 44, 80
2, 317990, Note_off_c, 0, 51, 80
2, 317990, Note_off_c, 0, 56, 80
2, 318000, Note_on_c, 0, 44, 88
2, 318000, Note_on_c, 0, 51, 88
2, 318000, Note_on_c, 0, 56, 88
2, 318230, Note_off_c, 0, 44, 80
2, 318230, Note_off_c, 0, 51, 80
2, 318230, Note_off_c, 0, 56, 80
2, 318240, Note_on_c, 0, 44, 88
2, 318240, Note_on_c, 0, 51, 88
2, 318240, Note_on_c, 0, 56, 88
2, 318470, Note_off_c, 0, 44, 80
2, 318470, Note_off_c, 0, 51, 80
2, 318470, Note_off_c, 0, 56, 80
2, 318480, Note_on_c, 0, 44, 88
2, 318480, Note_on_c, 0, 51, 88
2, 318480, Note_on_c, 0, 56, 88
2, 318710, Note_off_c, 0, 44, 80
2, 318710, Note_off_c, 0, 51, 80
2, 318710, Note_off_c, 0, 56, 80
2, 318720, Note_on_c, 0, 44, 88
2, 318720, Note_on_c, 0, 51, 88
2, 318720, Note_on_c, 0, 56, 88
2, 318950, Note_off_c, 0, 44, 80
2, 318950, Note_off_c, 0, 51, 80
2, 318950, Note_off_c, 0, 56, 80
2, 318960, Note_on_c, 0, 44, 88
2, 318960, Note_on_c, 0, 51, 88
2, 318960, Note_on_c, 0, 56, 88
2, 319190, Note_off_c, 0, 44, 80
2, 319190, Note_off_c, 0, 51, 80
2, 319190, Note_off_c, 0, 56, 80
2, 319200, Note_on_c, 0, 44, 88
2, 319200, Note_on_c, 0, 51, 88
2, 319200, Note_on_c, 0, 56, 88
2, 319430, Note_off_c, 0, 44, 80
2, 319430, Note_off_c, 0, 51, 80
2, 319430, Note_off_c, 0, 56, 80
2, 319440, Note_on_c, 0, 44, 88
2, 319440, Note_on_c, 0, 51, 88
2, 319440, Note_on_c, 0, 56, 88
2, 319670, Note_off_c, 0, 44, 80
2, 319670, Note_off_c, 0, 51, 80
2, 319670, Note_off_c, 0, 56, 80
2, 319680, Note_on_c, 0, 44, 88
2, 319680, Note_on_c, 0, 51, 88
2, 319680, Note_on_c, 0, 56, 88
2, 319910, Note_off_c, 0, 44, 80
2, 319910, Note_off_c, 0, 51, 80
2, 319910, Note_off_c, 0, 56, 80
2, 319920, Note_on_c, 0, 44, 88
2, 319920, Note_on_c, 0, 51, 88
2, 319920, Note_on_c, 0, 56, 88
2, 320150, Note_off_c, 0, 44, 80
2, 320150, Note_off_c, 0, 51, 80
2, 320150, Note_off_c, 0, 56, 80
2, 320160, Note_on_c, 0, 44, 88
2, 320160, Note_on_c, 0, 51, 88
2, 320160, Note_on_c, 0, 56, 88
2, 320390, Note_off_c, 0, 44, 80
2, 320390, Note_off_c, 0, 51, 80
2, 320390, Note_off_c, 0, 56, 80
2, 320400, Note_on_c, 0, 44, 88
2, 320400, Note_on_c, 0, 51, 88
2, 320400, Note_on_c, 0, 56, 88
2, 320630, Note_off_c, 0, 44, 80
2, 320630, Note_off_c, 0, 51, 80
2, 320630, Note_off_c, 0, 56, 80
2, 320640, Note_on_c, 0, 44, 88
2, 320640, Note_on_c, 0, 49, 88
2, 320640, Note_on_c, 0, 56, 88
2, 320870, Note_off_c, 0, 44, 80
2, 320870, Note_off_c, 0, 49, 80
2, 320870, Note_off_c, 0, 56, 80
2, 320880, Note_on_c, 0, 44, 88
2, 320880, Note_on_c, 0, 49, 88
2, 320880, Note_on_c, 0, 56, 88
2, 321110, Note_off_c, 0, 44, 80
2, 321110, Note_off_c, 0, 49, 80
2, 321110, Note_off_c, 0, 56, 80
2, 321120, Note_on_c, 0, 44, 88
2, 321120, Note_on_c, 0, 49, 88
2, 321120, Note_on_c, 0, 56, 88
2, 321350, Note_off_c, 0, 44, 80
2, 321350, Note_off_c, 0, 49, 80
2, 321350, Note_off_c, 0, 56, 80
2, 321360, Note_on_c, 0, 44, 88
2, 321360, Note_on_c, 0, 49, 88
2, 321360, Note_on_c, 0, 56, 88
2, 321590, Note_off_c, 0, 44, 80
2, 321590, Note_off_c, 0, 49, 80
2, 321590, Note_off_c, 0, 56, 80
2, 321600, Note_on_c, 0, 44, 88
2, 321600, Note_on_c, 0, 49, 88
2, 321600, Note_on_c, 0, 56, 88
2, 321830, Note_off_c, 0, 44, 80
2, 321830, Note_off_c, 0, 49, 80
2, 321830, Note_off_c, 0, 56, 80
2, 321840, Note_on_c, 0, 44, 88
2, 321840, Note_on_c, 0, 49, 88
2, 321840, Note_on_c, 0, 56, 88
2, 322070, Note_off_c, 0, 44, 80
2, 322070, Note_off_c, 0, 49, 80
2, 322070, Note_off_c, 0, 56, 80
2, 322080, Note_on_c, 0, 44, 88
2, 322080, Note_on_c, 0, 49, 88
2, 322080, Note_on_c, 0, 56, 88
2, 322310, Note_off_c, 0, 44, 80
2, 322310, Note_off_c, 0, 49, 80
2, 322310, Note_off_c, 0, 56, 80
2, 322320, Note_on_c, 0, 44, 88
2, 322320, Note_on_c, 0, 49, 88
2, 322320, Note_on_c, 0, 56, 88
2, 322550, Note_off_c, 0, 44, 80
2, 322550, Note_off_c, 0, 49, 80
2, 322550, Note_off_c, 0, 56, 80
2, 322560, Note_on_c, 0, 44, 88
2, 322560, Note_on_c, 0, 49, 88
2, 322560, Note_on_c, 0, 56, 88
2, 322790, Note_off_c, 0, 44, 80
2, 322790, Note_off_c, 0, 49, 80
2, 322790, Note_off_c, 0, 56, 80
2, 322800, Note_on_c, 0, 44, 88
2, 322800, Note_on_c, 0, 49, 88
2, 322800, Note_on_c, 0, 56, 88
2, 323030, Note_off_c, 0, 44, 80
2, 323030, Note_off_c, 0, 49, 80
2, 323030, Note_off_c, 0, 56, 80
2, 323040, Note_on_c, 0, 44, 88
2, 323040, Note_on_c, 0, 49, 88
2, 323040, Note_on_c, 0, 56, 88
2, 323270, Note_off_c, 0, 44, 80
2, 323270, Note_off_c, 0, 49, 80
2, 323270, Note_off_c, 0, 56, 80
2, 323280, Note_on_c, 0, 44, 88
2, 323280, Note_on_c, 0, 49, 88
2, 323280, Note_on_c, 0, 56, 88
2, 323510, Note_off_c, 0, 44, 80
2, 323510, Note_off_c, 0, 49, 80
2, 323510, Note_off_c, 0, 56, 80
2, 323520, Note_on_c, 0, 44, 88
2, 323520, Note_on_c, 0, 49, 88
2, 323520, Note_on_c, 0, 56, 88
2, 323750, Note_off_c, 0, 44, 80
2, 323750, Note_off_c, 0, 49, 80
2, 323750, Note_off_c, 0, 56, 80
2, 323760, Note_on_c, 0, 44, 88
2, 323760, Note_on_c, 0, 49, 88
2, 323760, Note_on_c, 0, 56, 88
2, 323990, Note_off_c, 0, 44, 80
2, 323990, Note_off_c, 0, 49, 80
2, 323990, Note_off_c, 0, 56, 80
2, 324000, Note_on_c, 0, 44, 88
2, 324000, Note_on_c, 0, 49, 88
2, 324000, Note_on_c, 0, 56, 88
2, 324230, Note_off_c, 0, 44, 80
2, 324230, Note_off_c, 0, 49, 80
2, 324230, Note_off_c, 0, 56, 80
2, 324240, Note_on_c, 0, 44, 88
2, 324240, Note_on_c, 0, 49, 88
2, 324240, Note_on_c, 0, 56, 88
2, 324470, Note_off_c, 0, 44, 80
2, 324470, Note_off_c, 0, 49, 80
2, 324470, Note_off_c, 0, 56, 80
2, 324480, Note_on_c, 0, 44, 88
2, 324480, Note_on_c, 0, 51, 88
2, 324480, Note_on_c, 0, 56, 88
2, 324710, Note_off_c, 0, 44, 80
2, 324710, Note_off_c, 0, 51, 80
2, 324710, Note_off_c, 0, 56, 80
2, 324720, Note_on_c, 0, 44, 88
2, 324720, Note_on_c, 0, 51, 88
2, 324720, Note_on_c, 0, 56, 88
2, 324950, Note_off_c, 0, 44, 80
2, 324950, Note_off_c, 0, 51, 80
2, 324950, Note_off_c, 0, 56, 80
2, 324960, Note_on_c, 0, 44, 88
2, 324960, Note_on_c, 0, 51, 88
2, 324960, Note_on_c, 0, 56, 88
2, 325190, Note_off_c, 0, 44, 80
2, 325190, Note_off_c, 0, 51, 80
2, 325190, Note_off_c, 0, 56, 80
2, 325200, Note_on_c, 0, 44, 88
2, 325200, Note_on_c, 0, 51, 88
2, 325200, Note_on_c, 0, 56, 88
2, 325430, Note_off_c, 0, 44, 80
2, 325430, Note_off_c, 0, 51, 80
2, 325430, Note_off_c, 0, 56, 80
2, 325440, Note_on_c, 0, 44, 88
2, 325440, Note_on_c, 0, 51, 88
2, 325440, Note_on_c, 0, 56, 88
2, 325670, Note_off_c, 0, 44, 80
2, 325670, Note_off_c, 0, 51, 80
2, 325670, Note_off_c, 0, 56, 80
2, 325680, Note_on_c, 0, 44, 88
2, 325680, Note_on_c, 0, 51, 88
2, 325680, Note_on_c, 0, 56, 88
2, 325910, Note_off_c, 0, 44, 80
2, 325910, Note_off_c, 0, 51, 80
2, 325910, Note_off_c, 0, 56, 80
2, 325920, Note_on_c, 0, 44, 88
2, 325920, Note_on_c, 0, 51, 88
2, 325920, Note_on_c, 0, 56, 88
2, 326150, Note_off_c, 0, 44, 80
2, 326150, Note_off_c, 0, 51, 80
2, 326150, Note_off_c, 0, 56, 80
2, 326160, Note_on_c, 0, 44, 88
2, 326160, Note_on_c, 0, 51, 88
2, 326160, Note_on_c, 0, 56, 88
2, 326390, Note_off_c, 0, 44, 80
2, 326390, Note_off_c, 0, 51, 80
2, 326390, Note_off_c, 0, 56, 80
2, 326400, Note_on_c, 0, 44, 88
2, 326400, Note_on_c, 0, 51, 88
2, 326400, Note_on_c, 0, 56, 88
2, 326630, Note_off_c, 0, 44, 80
2, 326630, Note_off_c, 0, 51, 80
2, 326630, Note_off_c, 0, 56, 80
2, 326640, Note_on_c, 0, 44, 88
2, 326640, Note_on_c, 0, 51, 88
2, 326640, Note_on_c, 0, 56, 88
2, 326870, Note_off_c, 0, 44, 80
2, 326870, Note_off_c, 0, 51, 80
2, 326870, Note_off_c, 0, 56, 80
2, 326880, Note_on_c, 0, 44, 88
2, 326880, Note_on_c, 0, 51, 88
2, 326880, Note_on_c, 0, 56, 88
2, 327110, Note_off_c, 0, 44, 80
2, 327110, Note_off_c, 0, 51, 80
2, 327110, Note_off_c, 0, 56, 80
2, 327120, Note_on_c, 0, 44, 88
2, 327120, Note_on_c, 0, 51, 88
2, 327120, Note_on_c, 0, 56, 88
2, 327350, Note_off_c, 0, 44, 80
2, 327350, Note_off_c, 0, 51, 80
2, 327350, Note_off_c, 0, 56, 80
2, 327360, Note_on_c, 0, 44, 88
2, 327360, Note_on_c, 0, 51, 88
2, 327360, Note_on_c, 0, 56, 88
2, 327590, Note_off_c, 0, 44, 80
2, 327590, Note_off_c, 0, 51, 80
2, 327590, Note_off_c, 0, 56, 80
2, 327600, Note_on_c, 0, 44, 88
2, 327600, Note_on_c, 0, 51, 88
2, 327600, Note_on_c, 0, 56, 88
2, 327830, Note_off_c, 0, 44, 80
2, 327830, Note_off_c, 0, 51, 80
2, 327830, Note_off_c, 0, 56, 80
2, 327840, Note_on_c, 0, 44, 88
2, 327840, Note_on_c, 0, 51, 88
2, 327840, Note_on_c, 0, 56, 88
2, 328070, Note_off_c, 0, 44, 80
2, 328070, Note_off_c, 0, 51, 80
2, 328070, Note_off_c, 0, 56, 80
2, 328080, Note_on_c, 0, 44, 88
2, 328080, Note_on_c, 0, 51, 88
2, 328080, Note_on_c, 0, 56, 88
2, 328310, Note_off_c, 0, 44, 80
2, 328310, Note_off_c, 0, 51, 80
2, 328310, Note_off_c, 0, 56, 80
2, 328320, Note_on_c, 0, 44, 88
2, 328320, Note_on_c, 0, 49, 88
2, 328320, Note_on_c, 0, 56, 88
2, 328550, Note_off_c, 0, 44, 80
2, 328550, Note_off_c, 0, 49, 80
2, 328550, Note_off_c, 0, 56, 80
2, 328560, Note_on_c, 0, 44, 88
2, 328560, Note_on_c, 0, 49, 88
2, 328560, Note_on_c, 0, 56, 88
2, 328790, Note_off_c, 0, 44, 80
2, 328790, Note_off_c, 0, 49, 80
2, 328790, Note_off_c, 0, 56, 80
2, 328800, Note_on_c, 0, 44, 88
2, 328800, Note_on_c, 0, 49, 88
2, 328800, Note_on_c, 0, 56, 88
2, 329030, Note_off_c, 0, 44, 80
2, 329030, Note_off_c, 0, 49, 80
2, 329030, Note_off_c, 0, 56, 80
2, 329040, Note_on_c, 0, 44, 88
2, 329040, Note_on_c, 0, 49, 88
2, 329040, Note_on_c, 0, 56, 88
2, 329270, Note_off_c, 0, 44, 80
2, 329270, Note_off_c, 0, 49, 80
2, 329270, Note_off_c, 0, 56, 80
2, 329280, Note_on_c, 0, 44, 88
2, 329280, Note_on_c, 0, 49, 88
2, 329280, Note_on_c, 0, 56, 88
2, 329510, Note_off_c, 0, 44, 80
2, 329510, Note_off_c, 0, 49, 80
2, 329510, Note_off_c, 0, 56, 80
2, 329520, Note_on_c, 0, 44, 88
2, 329520, Note_on_c, 0, 49, 88
2, 329520, Note_on_c, 0, 56, 88
2, 329750, Note_off_c, 0, 44, 80
2, 329750, Note_off_c, 0, 49, 80
2, 329750, Note_off_c, 0, 56, 80
2, 329760, Note_on_c, 0, 44, 88
2, 329760, Note_on_c, 0, 49, 88
2, 329760, Note_on_c, 0, 56, 88
2, 329990, Note_off_c, 0, 44, 80
2, 329990, Note_off_c, 0, 49, 80
2, 329990, Note_off_c, 0, 56, 80
2, 330000, Note_on_c, 0, 44, 88
2, 330000, Note_on_c, 0, 49, 88
2, 330000, Note_on_c, 0, 56, 88
2, 330230, Note_off_c, 0, 44, 80
2, 330230, Note_off_c, 0, 49, 80
2, 330230, Note_off_c, 0, 56, 80
2, 330240, Note_on_c, 0, 44, 88
2, 330240, Note_on_c, 0, 49, 88
2, 330240, Note_on_c, 0, 56, 88
2, 330470, Note_off_c, 0, 44, 80
2, 330470, Note_off_c, 0, 49, 80
2, 330470, Note_off_c, 0, 56, 80
2, 330480, Note_on_c, 0, 44, 88
2, 330480, Note_on_c, 0, 49, 88
2, 330480, Note_on_c, 0, 56, 88
2, 330710, Note_off_c, 0, 44, 80
2, 330710, Note_off_c, 0, 49, 80
2, 330710, Note_off_c, 0, 56, 80
2, 330720, Note_on_c, 0, 44, 88
2, 330720, Note_on_c, 0, 49, 88
2, 330720, Note_on_c, 0, 56, 88
2, 330950, Note_off_c, 0, 44, 80
2, 330950, Note_off_c, 0, 49, 80
2, 330950, Note_off_c, 0, 56, 80
2, 330960, Note_on_c, 0, 44, 88
2, 330960, Note_on_c, 0, 49, 88
2, 330960, Note_on_c, 0, 56, 88
2, 331190, Note_off_c, 0, 44, 80
2, 331190, Note_off_c, 0, 49, 80
2, 331190, Note_off_c, 0, 56, 80
2, 331200, Note_on_c, 0, 44, 88
2, 331200, Note_on_c, 0, 49, 88
2, 331200, Note_on_c, 0, 56, 88
2, 331430, Note_off_c, 0, 44, 80
2, 331430, Note_off_c, 0, 49, 80
2, 331430, Note_off_c, 0, 56, 80
2, 331440, Note_on_c, 0, 44, 88
2, 331440, Note_on_c, 0, 49, 88
2, 331440, Note_on_c, 0, 56, 88
2, 331670, Note_off_c, 0, 44, 80
2, 331670, Note_off_c, 0, 49, 80
2, 331670, Note_off_c, 0, 56, 80
2, 331680, Note_on_c, 0, 44, 88
2, 331680, Note_on_c, 0, 49, 88
2, 331680, Note_on_c, 0, 56, 88
2, 331910, Note_off_c, 0, 44, 80
2, 331910, Note_off_c, 0, 49, 80
2, 331910, Note_off_c, 0, 56, 80
2, 331920, Note_on_c, 0, 44, 88
2, 331920, Note_on_c, 0, 49, 88
2, 331920, Note_on_c, 0, 56, 88
2, 332150, Note_off_c, 0, 44, 80
2, 332150, Note_off_c, 0, 49, 80
2, 332150, Note_off_c, 0, 56, 80
2, 332160, Note_on_c, 0, 44, 88
2, 332160, Note_on_c, 0, 51, 88
2, 332160, Note_on_c, 0, 56, 88
2, 332390, Note_off_c, 0, 44, 80
2, 332390, Note_off_c, 0, 51, 80
2, 332390, Note_off_c, 0, 56, 80
2, 332400, Note_on_c, 0, 44, 88
2, 332400, Note_on_c, 0, 51, 88
2, 332400, Note_on_c, 0, 56, 88
2, 332630, Note_off_c, 0, 44, 80
2, 332630, Note_off_c, 0, 51, 80
2, 332630, Note_off_c, 0, 56, 80
2, 332640, Note_on_c, 0, 44, 88
2, 332640, Note_on_c, 0, 51, 88
2, 332640, Note_on_c, 0, 56, 88
2, 332870, Note_off_c, 0, 44, 80
2, 332870, Note_off_c, 0, 51, 80
2, 332870, Note_off_c, 0, 56, 80
2, 332880, Note_on_c, 0, 44, 88
2, 332880, Note_on_c, 0, 51, 88
2, 332880, Note_on_c, 0, 56, 88
2, 333110, Note_off_c, 0, 44, 80
2, 333110, Note_off_c, 0, 51, 80
2, 333110, Note_off_c, 0, 56, 80
2, 333120, Note_on_c, 0, 44, 88
2, 333120, Note_on_c, 0, 51, 88
2, 333120, Note_on_c, 0, 56, 88
2, 333350, Note_off_c, 0, 44, 80
2, 333350, Note_off_c, 0, 51, 80
2, 333350, Note_off_c, 0, 56, 80
2, 333360, Note_on_c, 0, 44, 88
2, 333360, Note_on_c, 0, 51, 88
2, 333360, Note_on_c, 0, 56, 88
2, 333590, Note_off_c, 0, 44, 80
2, 333590, Note_off_c, 0, 51, 80
2, 333590, Note_off_c, 0, 56, 80
2, 333600, Note_on_c, 0, 44, 88
2, 333600, Note_on_c, 0, 51, 88
2, 333600, Note_on_c, 0, 56, 88
2, 333830, Note_off_c, 0, 44, 80
2, 333830, Note_off_c, 0, 51, 80
2, 333830, Note_off_c, 0, 56, 80
2, 333840, Note_on_c, 0, 44, 88
2, 333840, Note_on_c, 0, 51, 88
2, 333840, Note_on_c, 0, 56, 88
2, 334070, Note_off_c, 0, 44, 80
2, 334070, Note_off_c, 0, 51, 80
2, 334070, Note_off_c, 0, 56, 80
2, 334080, Note_on_c, 0, 44, 88
2, 334080, Note_on_c, 0, 51, 88
2, 334080, Note_on_c, 0, 56, 88
2, 334310, Note_off_c, 0, 44, 80
2, 334310, Note_off_c, 0, 51, 80
2, 334310, Note_off_c, 0, 56, 80
2, 334320, Note_on_c, 0, 44, 88
2, 334320, Note_on_c, 0, 51, 88
2, 334320, Note_on_c, 0, 56, 88
2, 334550, Note_off_c, 0, 44, 80
2, 334550, Note_off_c, 0, 51, 80
2, 334550, Note_off_c, 0, 56, 80
2, 334560, Note_on_c, 0, 44, 88
2, 334560, Note_on_c, 0, 51, 88
2, 334560, Note_on_c, 0, 56, 88
2, 334790, Note_off_c, 0, 44, 80
2, 334790, Note_off_c, 0, 51, 80
2, 334790, Note_off_c, 0, 56, 80
2, 334800, Note_on_c, 0, 44, 88
2, 334800, Note_on_c, 0, 51, 88
2, 334800, Note_on_c, 0, 56, 88
2, 335030, Note_off_c, 0, 44, 80
2, 335030, Note_off_c, 0, 51, 80
2, 335030, Note_off_c, 0, 56, 80
2, 335040, Note_on_c, 0, 44, 88
2, 335040, Note_on_c, 0, 51, 88
2, 335040, Note_on_c, 0, 56, 88
2, 335270, Note_off_c, 0, 44, 80
2, 335270, Note_off_c, 0, 51, 80
2, 335270, Note_off_c, 0, 56, 80
2, 335280, Note_on_c, 0, 44, 88
2, 335280, Note_on_c, 0, 51, 88
2, 335280, Note_on_c, 0, 56, 88
2, 335510, Note_off_c, 0, 44, 80
2, 335510, Note_off_c, 0, 51, 80
2, 335510, Note_off_c, 0, 56, 80
2, 335520, Note_on_c, 0, 44, 88
2, 335520, Note_on_c, 0, 51, 88
2, 335520, Note_on_c, 0, 56, 88
2, 335750, Note_off_c, 0, 44, 80
2, 335750, Note_off_c, 0, 51, 80
2, 335750, Note_off_c, 0, 56, 80
2, 335760, Note_on_c, 0, 44, 88
2, 335760, Note_on_c, 0, 51, 88
2, 335760, Note_on_c, 0, 56, 88
2, 335990, Note_off_c, 0, 44, 80
2, 335990, Note_off_c, 0, 51, 80
2, 335990, Note_off_c, 0, 56, 80
2, 336000, Note_on_c, 0, 44, 88
2, 336000, Note_on_c, 0, 49, 88
2, 336000, Note_on_c, 0, 56, 88
2, 336230, Note_off_c, 0, 44, 80
2, 336230, Note_off_c, 0, 49, 80
2, 336230, Note_off_c, 0, 56, 80
2, 336240, Note_on_c, 0, 44, 88
2, 336240, Note_on_c, 0, 49, 88
2, 336240, Note_on_c, 0, 56, 88
2, 336470, Note_off_c, 0, 44, 80
2, 336470, Note_off_c, 0, 49, 80
2, 336470, Note_off_c, 0, 56, 80
2, 336480, Note_on_c, 0, 44, 88
2, 336480, Note_on_c, 0, 49, 88
2, 336480, Note_on_c, 0, 56, 88
2, 336710, Note_off_c, 0, 44, 80
2, 336710, Note_off_c, 0, 49, 80
2, 336710, Note_off_c, 0, 56, 80
2, 336720, Note_on_c, 0, 44, 88
2, 336720, Note_on_c, 0, 49, 88
2, 336720, Note_on_c, 0, 56, 88
2, 336950, Note_off_c, 0, 44, 80
2, 336950, Note_off_c, 0, 49, 80
2, 336950, Note_off_c, 0, 56, 80
2, 336960, Note_on_c, 0, 44, 88
2, 336960, Note_on_c, 0, 49, 88
2, 336960, Note_on_c, 0, 56, 88
2, 337190, Note_off_c, 0, 44, 80
2, 337190, Note_off_c, 0, 49, 80
2, 337190, Note_off_c, 0, 56, 80
2, 337200, Note_on_c, 0, 44, 88
2, 337200, Note_on_c, 0, 49, 88
2, 337200, Note_on_c, 0, 56, 88
2, 337430, Note_off_c, 0, 44, 80
2, 337430, Note_off_c, 0, 49, 80
2, 337430, Note_off_c, 0, 56, 80
2, 337440, Note_on_c, 0, 44, 88
2, 337440, Note_on_c, 0, 49, 88
2, 337440, Note_on_c, 0, 56, 88
2, 337670, Note_off_c, 0, 44, 80
2, 337670, Note_off_c, 0, 49, 80
2, 337670, Note_off_c, 0, 56, 80
2, 337680, Note_on_c, 0, 44, 88
2, 337680, Note_on_c, 0, 49, 88
2, 337680, Note_on_c, 0, 56, 88
2, 337910, Note_off_c, 0, 44, 80
2, 337910, Note_off_c, 0, 49, 80
2, 337910, Note_off_c, 0, 56, 80
2, 337920, Note_on_c, 0, 44, 88
2, 337920, Note_on_c, 0, 49, 88
2, 337920, Note_on_c, 0, 56, 88
2, 338150, Note_off_c, 0, 44, 80
2, 338150, Note_off_c, 0, 49, 80
2, 338150, Note_off_c, 0, 56, 80
2, 338160, Note_on_c, 0, 44, 88
2, 338160, Note_on_c, 0, 49, 88
2, 338160, Note_on_c, 0, 56, 88
2, 338390, Note_off_c, 0, 44, 80
2, 338390, Note_off_c, 0, 49, 80
2, 338390, Note_off_c, 0, 56, 80
2, 338400, Note_on_c, 0, 44, 88
2, 338400, Note_on_c, 0, 49, 88
2, 338400, Note_on_c, 0, 56, 88
2, 338630, Note_off_c, 0, 44, 80
2, 338630, Note_off_c, 0, 49, 80
2, 338630, Note_off_c, 0, 56, 80
2, 338640, Note_on_c, 0, 44, 88
2, 338640, Note_on_c, 0, 49, 88
2, 338640, Note_on_c, 0, 56, 88
2, 338870, Note_off_c, 0, 44, 80
2, 338870, Note_off_c, 0, 49, 80
2, 338870, Note_off_c, 0, 56, 80
2, 338880, Note_on_c, 0, 44, 88
2, 338880, Note_on_c, 0, 49, 88
2, 338880, Note_on_c, 0, 56, 88
2, 339110, Note_off_c, 0, 44, 80
2, 339110, Note_off_c, 0, 49, 80
2, 339110, Note_off_c, 0, 56, 80
2, 339120, Note_on_c, 0, 44, 88
2, 339120, Note_on_c, 0, 49, 88
2, 339120, Note_on_c, 0, 56, 88
2, 339350, Note_off_c, 0, 44, 80
2, 339350, Note_off_c, 0, 49, 80
2, 339350, Note_off_c, 0, 56, 80
2, 339360, Note_on_c, 0, 44, 88
2, 339360, Note_on_c, 0, 49, 88
2, 339360, Note_on_c, 0, 56, 88
2, 339590, Note_off_c, 0, 44, 80
2, 339590, Note_off_c, 0, 49, 80
2, 339590, Note_off_c, 0, 56, 80
2, 339600, Note_on_c, 0, 44, 88
2, 339600, Note_on_c, 0, 49, 88
2, 339600, Note_on_c, 0, 56, 88
2, 339830, Note_off_c, 0, 44, 80
2, 339830, Note_off_c, 0, 49, 80
2, 339830, Note_off_c, 0, 56, 80
2, 339840, Control_c, 0, 7, 41
2, 339840, Note_on_c, 0, 44, 88
2, 339840, Note_on_c, 0, 51, 88
2, 339840, Note_on_c, 0, 56, 88
2, 340070, Note_off_c, 0, 44, 80
2, 340070, Note_off_c, 0, 51, 80
2, 340070, Note_off_c, 0, 56, 80
2, 340080, Control_c, 0, 7, 42
2, 340080, Note_on_c, 0, 44, 88
2, 340080, Note_on_c, 0, 51, 88
2, 340080, Note_on_c, 0, 56, 88
2, 340310, Note_off_c, 0, 44, 80
2, 340310, Note_off_c, 0, 51, 80
2, 340310, Note_off_c, 0, 56, 80
2, 340320, Control_c, 0, 7, 43
2, 340320, Note_on_c, 0, 44, 88
2, 340320, Note_on_c, 0, 51, 88
2, 340320, Note_on_c, 0, 56, 88
2, 340440, Control_c, 0, 7, 44
2, 340550, Note_off_c, 0, 44, 80
2, 340550, Note_off_c, 0, 51, 80
2, 340550, Note_off_c, 0, 56, 80
2, 340560, Note_on_c, 0, 44, 88
2, 340560, Note_on_c, 0, 51, 88
2, 340560, Note_on_c, 0, 56, 88
2, 340680, Control_c, 0, 7, 45
2, 340790, Note_off_c, 0, 44, 80
2, 340790, Note_off_c, 0, 51, 80
2, 340790, Note_off_c, 0, 56, 80
2, 340800, Control_c, 0, 7, 46
2, 340800, Note_on_c, 0, 44, 88
2, 340800, Note_on_c, 0, 51, 88
2, 340800, Note_on_c, 0, 56, 88
2, 341030, Note_off_c, 0, 44, 80
2, 341030, Note_off_c, 0, 51, 80
2, 341030, Note_off_c, 0, 56, 80
2, 341040, Control_c, 0, 7, 47
2, 341040, Note_on_c, 0, 44, 88
2, 341040, Note_on_c, 0, 51, 88
2, 341040, Note_on_c, 0, 56, 88
2, 341270, Note_off_c, 0, 44, 80
2, 341270, Note_off_c, 0, 51, 80
2, 341270, Note_off_c, 0, 56, 80
2, 341280, Control_c, 0, 7, 48
2, 341280, Note_on_c, 0, 44, 88
2, 341280, Note_on_c, 0, 51, 88
2, 341280, Note_on_c, 0, 56, 88
2, 341400, Control_c, 0, 7, 49
2, 341510, Note_off_c, 0, 44, 80
2, 341510, Note_off_c, 0, 51, 80
2, 341510, Note_off_c, 0, 56, 80
2, 341520, Note_on_c, 0, 44, 88
2, 341520, Note_on_c, 0, 51, 88
2, 341520, Note_on_c, 0, 56, 88
2, 341640, Control_c, 0, 7, 50
2, 341750, Note_off_c, 0, 44, 80
2, 341750, Note_off_c, 0, 51, 80
2, 341750, Note_off_c, 0, 56, 80
2, 341760, Note_on_c, 0, 44, 88
2, 341760, Note_on_c, 0, 51, 88
2, 341760, Note_on_c, 0, 56, 88
2, 341880, Control_c, 0, 7, 51
2, 341990, Note_off_c, 0, 44, 80
2, 341990, Note_off_c, 0, 51, 80
2, 341990, Note_off_c, 0, 56, 80
2, 342000, Control_c, 0, 7, 52
2, 342000, Note_on_c, 0, 44, 88
2, 342000, Note_on_c, 0, 51, 88
2, 342000, Note_on_c, 0, 56, 88
2, 342230, Note_off_c, 0, 44, 80
2, 342230, Note_off_c, 0, 51, 80
2, 342230, Note_off_c, 0, 56, 80
2, 342240, Control_c, 0, 7, 53
2, 342240, Note_on_c, 0, 44, 88
2, 342240, Note_on_c, 0, 51, 88
2, 342240, Note_on_c, 0, 56, 88
2, 342360, Control_c, 0, 7, 54
2, 342470, Note_off_c, 0, 44, 80
2, 342470, Note_off_c, 0, 51, 80
2, 342470, Note_off_c, 0, 56, 80
2, 342480, Note_on_c, 0, 44, 88
2, 342480, Note_on_c, 0, 51, 88
2, 342480, Note_on_c, 0, 56, 88
2, 342600, Control_c, 0, 7, 55
2, 342710, Note_off_c, 0, 44, 80
2, 342710, Note_off_c, 0, 51, 80
2, 342710, Note_off_c, 0, 56, 80
2, 342720, Note_on_c, 0, 44, 88
2, 342720, Note_on_c, 0, 51, 88
2, 342720, Note_on_c, 0, 56, 88
2, 342840, Control_c, 0, 7, 56
2, 342950, Note_off_c, 0, 44, 80
2, 342950, Note_off_c, 0, 51, 80
2, 342950, Note_off_c, 0, 56, 80
2, 342960, Control_c, 0, 7, 57
2, 342960, Note_on_c, 0, 44, 88
2, 342960, Note_on_c, 0, 51, 88
2, 342960, Note_on_c, 0, 56, 88
2, 343190, Note_off_c, 0, 44, 80
2, 343190, Note_off_c, 0, 51, 80
2, 343190, Note_off_c, 0, 56, 80
2, 343200, Control_c, 0, 7, 58
2, 343200, Note_on_c, 0, 44, 88
2, 343200, Note_on_c, 0, 51, 88
2, 343200, Note_on_c, 0, 56, 88
2, 343430, Note_off_c, 0, 44, 80
2, 343430, Note_off_c, 0, 51, 80
2, 343430, Note_off_c, 0, 56, 80
2, 343440, Control_c, 0, 7, 59
2, 343440, Note_on_c, 0, 44, 88
2, 343440, Note_on_c, 0, 51, 88
2, 343440, Note_on_c, 0, 56, 88
2, 343560, Control_c, 0, 7, 60
2, 343670, Note_off_c, 0, 44, 80
2, 343670, Note_off_c, 0, 51, 80
2, 343670, Note_off_c, 0, 56, 80
2, 343680, Note_on_c, 0, 44, 88
2, 343680, Note_on_c, 0, 49, 88
2, 343680, Note_on_c, 0, 56, 88
2, 343800, Control_c, 0, 7, 61
2, 343910, Note_off_c, 0, 44, 80
2, 343910, Note_off_c, 0, 49, 80
2, 343910, Note_off_c, 0, 56, 80
2, 343920, Control_c, 0, 7, 62
2, 343920, Note_on_c, 0, 44, 88
2, 343920, Note_on_c, 0, 49, 88
2, 343920, Note_on_c, 0, 56, 88
2, 344150, Note_off_c, 0, 44, 80
2, 344150, Note_off_c, 0, 49, 80
2, 344150, Note_off_c, 0, 56, 80
2, 344160, Control_c, 0, 7, 63
2, 344160, Note_on_c, 0, 44, 88
2, 344160, Note_on_c, 0, 49, 88
2, 344160, Note_on_c, 0, 56, 88
2, 344390, Note_off_c, 0, 44, 80
2, 344390, Note_off_c, 0, 49, 80
2, 344390, Note_off_c, 0, 56, 80
2, 344400, Control_c, 0, 7, 64
2, 344400, Note_on_c, 0, 44, 88
2, 344400, Note_on_c, 0, 49, 88
2, 344400, Note_on_c, 0, 56, 88
2, 344520, Control_c, 0, 7, 65
2, 344630, Note_off_c, 0, 44, 80
2, 344630, Note_off_c, 0, 49, 80
2, 344630, Note_off_c, 0, 56, 80
2, 344640, Note_on_c, 0, 44, 88
2, 344640, Note_on_c, 0, 49, 88
2, 344640, Note_on_c, 0, 56, 88
2, 344760, Control_c, 0, 7, 66
2, 344870, Note_off_c, 0, 44, 80
2, 344870, Note_off_c, 0, 49, 80
2, 344870, Note_off_c, 0, 56, 80
2, 344880, Note_on_c, 0, 44, 88
2, 344880, Note_on_c, 0, 49, 88
2, 344880, Note_on_c, 0, 56, 88
2, 345000, Control_c, 0, 7, 67
2, 345110, Note_off_c, 0, 44, 80
2, 345110, Note_off_c, 0, 49, 80
2, 345110, Note_off_c, 0, 56, 80
2, 345120, Control_c, 0, 7, 68
2, 345120, Note_on_c, 0, 44, 88
2, 345120, Note_on_c, 0, 49, 88
2, 345120, Note_on_c, 0, 56, 88
2, 345350, Note_off_c, 0, 44, 80
2, 345350, Note_off_c, 0, 49, 80
2, 345350, Note_off_c, 0, 56, 80
2, 345360, Control_c, 0, 7, 69
2, 345360, Note_on_c, 0, 44, 88
2, 345360, Note_on_c, 0, 49, 88
2, 345360, Note_on_c, 0, 56, 88
2, 345480, Control_c, 0, 7, 70
2, 345590, Note_off_c, 0, 44, 80
2, 345590, Note_off_c, 0, 49, 80
2, 345590, Note_off_c, 0, 56, 80
2, 345600, Note_on_c, 0, 44, 88
2, 345600, Note_on_c, 0, 49, 88
2, 345600, Note_on_c, 0, 56, 88
2, 345720, Control_c, 0, 7, 71
2, 345830, Note_off_c, 0, 44, 80
2, 345830, Note_off_c, 0, 49, 80
2, 345830, Note_off_c, 0, 56, 80
2, 345840, Note_on_c, 0, 44, 88
2, 345840, Note_on_c, 0, 49, 88
2, 345840, Note_on_c, 0, 56, 88
2, 345960, Control_c, 0, 7, 72
2, 346070, Note_off_c, 0, 44, 80
2, 346070, Note_off_c, 0, 49, 80
2, 346070, Note_off_c, 0, 56, 80
2, 346080, Control_c, 0, 7, 73
2, 346080, Note_on_c, 0, 44, 88
2, 346080, Note_on_c, 0, 49, 88
2, 346080, Note_on_c, 0, 56, 88
2, 346310, Note_off_c, 0, 44, 80
2, 346310, Note_off_c, 0, 49, 80
2, 346310, Note_off_c, 0, 56, 80
2, 346320, Control_c, 0, 7, 74
2, 346320, Note_on_c, 0, 44, 88
2, 346320, Note_on_c, 0, 49, 88
2, 346320, Note_on_c, 0, 56, 88
2, 346550, Note_off_c, 0, 44, 80
2, 346550, Note_off_c, 0, 49, 80
2, 346550, Note_off_c, 0, 56, 80
2, 346560, Control_c, 0, 7, 75
2, 346560, Note_on_c, 0, 44, 88
2, 346560, Note_on_c, 0, 49, 88
2, 346560, Note_on_c, 0, 56, 88
2, 346680, Control_c, 0, 7, 76
2, 346790, Note_off_c, 0, 44, 80
2, 346790, Note_off_c, 0, 49, 80
2, 346790, Note_off_c, 0, 56, 80
2, 346800, Note_on_c, 0, 44, 88
2, 346800, Note_on_c, 0, 49, 88
2, 346800, Note_on_c, 0, 56, 88
2, 346920, Control_c, 0, 7, 77
2, 347030, Note_off_c, 0, 44, 80
2, 347030, Note_off_c, 0, 49, 80
2, 347030, Note_off_c, 0, 56, 80
2, 347040, Control_c, 0, 7, 78
2, 347040, Note_on_c, 0, 44, 88
2, 347040, Note_on_c, 0, 49, 88
2, 347040, Note_on_c, 0, 56, 88
2, 347270, Note_off_c, 0, 44, 80
2, 347270, Note_off_c, 0, 49, 80
2, 347270, Note_off_c, 0, 56, 80
2, 347280, Control_c, 0, 7, 79
2, 347280, Note_on_c, 0, 44, 88
2, 347280, Note_on_c, 0, 49, 88
2, 347280, Note_on_c, 0, 56, 88
2, 347510, Note_off_c, 0, 44, 80
2, 347510, Note_off_c, 0, 49, 80
2, 347510, Note_off_c, 0, 56, 80
2, 347520, Control_c, 0, 7, 80
2, 347520, Control_c, 0, 7, 79
2, 347520, Note_on_c, 0, 44, 88
2, 347520, Note_on_c, 0, 51, 88
2, 347520, Note_on_c, 0, 56, 88
2, 347640, Control_c, 0, 7, 78
2, 347750, Note_off_c, 0, 44, 80
2, 347750, Note_off_c, 0, 51, 80
2, 347750, Note_off_c, 0, 56, 80
2, 347760, Control_c, 0, 7, 77
2, 347760, Note_on_c, 0, 44, 88
2, 347760, Note_on_c, 0, 51, 88
2, 347760, Note_on_c, 0, 56, 88
2, 347880, Control_c, 0, 7, 76
2, 347990, Note_off_c, 0, 44, 80
2, 347990, Note_off_c, 0, 51, 80
2, 347990, Note_off_c, 0, 56, 80
2, 348000, Control_c, 0, 7, 75
2, 348000, Note_on_c, 0, 44, 88
2, 348000, Note_on_c, 0, 51, 88
2, 348000, Note_on_c, 0, 56, 88
2, 348120, Control_c, 0, 7, 74
2, 348230, Note_off_c, 0, 44, 80
2, 348230, Note_off_c, 0, 51, 80
2, 348230, Note_off_c, 0, 56, 80
2, 348240, Control_c, 0, 7, 73
2, 348240, Note_on_c, 0, 44, 88
2, 348240, Note_on_c, 0, 51, 88
2, 348240, Note_on_c, 0, 56, 88
2, 348360, Control_c, 0, 7, 72
2, 348470, Note_off_c, 0, 44, 80
2, 348470, Note_off_c, 0, 51, 80
2, 348470, Note_off_c, 0, 56, 80
2, 348480, Control_c, 0, 7, 71
2, 348480, Note_on_c, 0, 44, 88
2, 348480, Note_on_c, 0, 51, 88
2, 348480, Note_on_c, 0, 56, 88
2, 348600, Control_c, 0, 7, 70
2, 348710, Note_off_c, 0, 44, 80
2, 348710, Note_off_c, 0, 51, 80
2, 348710, Note_off_c, 0, 56, 80
2, 348720, Control_c, 0, 7, 69
2, 348720, Note_on_c, 0, 44, 88
2, 348720, Note_on_c, 0, 51, 88
2, 348720, Note_on_c, 0, 56, 88
2, 348840, Control_c, 0, 7, 68
2, 348950, Note_off_c, 0, 44, 80
2, 348950, Note_off_c, 0, 51, 80
2, 348950, Note_off_c, 0, 56, 80
2, 348960, Control_c, 0, 7, 67
2, 348960, Note_on_c, 0, 44, 88
2, 348960, Note_on_c, 0, 51, 88
2, 348960, Note_on_c, 0, 56, 88
2, 349080, Control_c, 0, 7, 66
2, 349190, Note_off_c, 0, 44, 80
2, 349190, Note_off_c, 0, 51, 80
2, 349190, Note_off_c, 0, 56, 80
2, 349200, Control_c, 0, 7, 65
2, 349200, Note_on_c, 0, 44, 88
2, 349200, Note_on_c, 0, 51, 88
2, 349200, Note_on_c, 0, 56, 88
2, 349320, Control_c, 0, 7, 64
2, 349430, Note_off_c, 0, 44, 80
2, 349430, Note_off_c, 0, 51, 80
2, 349430, Note_off_c, 0, 56, 80
2, 349440, Control_c, 0, 7, 63
2, 349440, Note_on_c, 0, 44, 88
2, 349440, Note_on_c, 0, 51, 88
2, 349440, Note_on_c, 0, 56, 88
2, 349560, Control_c, 0, 7, 62
2, 349670, Note_off_c, 0, 44, 80
2, 349670, Note_off_c, 0, 51, 80
2, 349670, Note_off_c, 0, 56, 80
2, 349680, Control_c, 0, 7, 61
2, 349680, Note_on_c, 0, 44, 88
2, 349680, Note_on_c, 0, 51, 88
2, 349680, Note_on_c, 0, 56, 88
2, 349800, Control_c, 0, 7, 60
2, 349910, Note_off_c, 0, 44, 80
2, 349910, Note_off_c, 0, 51, 80
2, 349910, Note_off_c, 0, 56, 80
2, 349920, Control_c, 0, 7, 59
2, 349920, Note_on_c, 0, 44, 88
2, 349920, Note_on_c, 0, 51, 88
2, 349920, Note_on_c, 0, 56, 88
2, 350040, Control_c, 0, 7, 58
2, 350150, Note_off_c, 0, 44, 80
2, 350150, Note_off_c, 0, 51, 80
2, 350150, Note_off_c, 0, 56, 80
2, 350160, Control_c, 0, 7, 57
2, 350160, Note_on_c, 0, 44, 88
2, 350160, Note_on_c, 0, 51, 88
2, 350160, Note_on_c, 0, 56, 88
2, 350280, Control_c, 0, 7, 56
2, 350390, Note_off_c, 0, 44, 80
2, 350390, Note_off_c, 0, 51, 80
2, 350390, Note_off_c, 0, 56, 80
2, 350400, Control_c, 0, 7, 55
2, 350400, Note_on_c, 0, 44, 88
2, 350400, Note_on_c, 0, 51, 88
2, 350400, Note_on_c, 0, 56, 88
2, 350520, Control_c, 0, 7, 54
2, 350630, Note_off_c, 0, 44, 80
2, 350630, Note_off_c, 0, 51, 80
2, 350630, Note_off_c, 0, 56, 80
2, 350640, Control_c, 0, 7, 53
2, 350640, Note_on_c, 0, 44, 88
2, 350640, Note_on_c, 0, 51, 88
2, 350640, Note_on_c, 0, 56, 88
2, 350760, Control_c, 0, 7, 52
2, 350870, Note_off_c, 0, 44, 80
2, 350870, Note_off_c, 0, 51, 80
2, 350870, Note_off_c, 0, 56, 80
2, 350880, Control_c, 0, 7, 51
2, 350880, Note_on_c, 0, 44, 88
2, 350880, Note_on_c, 0, 51, 88
2, 350880, Note_on_c, 0, 56, 88
2, 351000, Control_c, 0, 7, 50
2, 351110, Note_off_c, 0, 44, 80
2, 351110, Note_off_c, 0, 51, 80
2, 351110, Note_off_c, 0, 56, 80
2, 351120, Control_c, 0, 7, 49
2, 351120, Note_on_c, 0, 44, 88
2, 351120, Note_on_c, 0, 51, 88
2, 351120, Note_on_c, 0, 56, 88
2, 351240, Control_c, 0, 7, 48
2, 351350, Note_off_c, 0, 44, 80
2, 351350, Note_off_c, 0, 51, 80
2, 351350, Note_off_c, 0, 56, 80
2, 351360, Note_on_c, 0, 44, 88
2, 351360, Note_on_c, 0, 49, 88
2, 351360, Note_on_c, 0, 56, 88
2, 351480, Control_c, 0, 7, 47
2, 351590, Note_off_c, 0, 44, 80
2, 351590, Note_off_c, 0, 49, 80
2, 351590, Note_off_c, 0, 56, 80
2, 351600, Control_c, 0, 7, 46
2, 351600, Note_on_c, 0, 44, 88
2, 351600, Note_on_c, 0, 49, 88
2, 351600, Note_on_c, 0, 56, 88
2, 351720, Control_c, 0, 7, 45
2, 351830, Note_off_c, 0, 44, 80
2, 351830, Note_off_c, 0, 49, 80
2, 351830, Note_off_c, 0, 56, 80
2, 351840, Control_c, 0, 7, 44
2, 351840, Note_on_c, 0, 44, 88
2, 351840, Note_on_c, 0, 49, 88
2, 351840, Note_on_c, 0, 56, 88
2, 351960, Control_c, 0, 7, 43
2, 352070, Note_off_c, 0, 44, 80
2, 352070, Note_off_c, 0, 49, 80
2, 352070, Note_off_c, 0, 56, 80
2, 352080, Control_c, 0, 7, 42
2, 352080, Note_on_c, 0, 44, 88
2, 352080, Note_on_c, 0, 49, 88
2, 352080, Note_on_c, 0, 56, 88
2, 352200, Control_c, 0, 7, 41
2, 352310, Note_off_c, 0, 44, 80
2, 352310, Note_off_c, 0, 49, 80
2, 352310, Note_off_c, 0, 56, 80
2, 352320, Control_c, 0, 7, 40
2, 352320, Note_on_c, 0, 44, 88
2, 352320, Note_on_c, 0, 49, 88
2, 352320, Note_on_c, 0, 56, 88
2, 352440, Control_c, 0, 7, 39
2, 352550, Note_off_c, 0, 44, 80
2, 352550, Note_off_c, 0, 49, 80
2, 352550, Note_off_c, 0, 56, 80
2, 352560, Control_c, 0, 7, 38
2, 352560, Note_on_c, 0, 44, 88
2, 352560, Note_on_c, 0, 49, 88
2, 352560, Note_on_c, 0, 56, 88
2, 352680, Control_c, 0, 7, 37
2, 352790, Note_off_c, 0, 44, 80
2, 352790, Note_off_c, 0, 49, 80
2, 352790, Note_off_c, 0, 56, 80
2, 352800, Control_c, 0, 7, 36
2, 352800, Note_on_c, 0, 44, 88
2, 352800, Note_on_c, 0, 49, 88
2, 352800, Note_on_c, 0, 56, 88
2, 352920, Control_c, 0, 7, 35
2, 353030, Note_off_c, 0, 44, 80
2, 353030, Note_off_c, 0, 49, 80
2, 353030, Note_off_c, 0, 56, 80
2, 353040, Control_c, 0, 7, 34
2, 353040, Note_on_c, 0, 44, 88
2, 353040, Note_on_c, 0, 49, 88
2, 353040, Note_on_c, 0, 56, 88
2, 353160, Control_c, 0, 7, 33
2, 353270, Note_off_c, 0, 44, 80
2, 353270, Note_off_c, 0, 49, 80
2, 353270, Note_off_c, 0, 56, 80
2, 353280, Control_c, 0, 7, 32
2, 353280, Note_on_c, 0, 44, 88
2, 353280, Note_on_c, 0, 49, 88
2, 353280, Note_on_c, 0, 56, 88
2, 353400, Control_c, 0, 7, 31
2, 353510, Note_off_c, 0, 44, 80
2, 353510, Note_off_c, 0, 49, 80
2, 353510, Note_off_c, 0, 56, 80
2, 353520, Control_c, 0, 7, 30
2, 353520, Note_on_c, 0, 44, 88
2, 353520, Note_on_c, 0, 49, 88
2, 353520, Note_on_c, 0, 56, 88
2, 353640, Control_c, 0, 7, 29
2, 353750, Note_off_c, 0, 44, 80
2, 353750, Note_off_c, 0, 49, 80
2, 353750, Note_off_c, 0, 56, 80
2, 353760, Control_c, 0, 7, 28
2, 353760, Note_on_c, 0, 44, 88
2, 353760, Note_on_c, 0, 49, 88
2, 353760, Note_on_c, 0, 56, 88
2, 353880, Control_c, 0, 7, 27
2, 353990, Note_off_c, 0, 44, 80
2, 353990, Note_off_c, 0, 49, 80
2, 353990, Note_off_c, 0, 56, 80
2, 354000, Control_c, 0, 7, 26
2, 354000, Note_on_c, 0, 44, 88
2, 354000, Note_on_c, 0, 49, 88
2, 354000, Note_on_c, 0, 56, 88
2, 354120, Control_c, 0, 7, 25
2, 354230, Note_off_c, 0, 44, 80
2, 354230, Note_off_c, 0, 49, 80
2, 354230, Note_off_c, 0, 56, 80
2, 354240, Control_c, 0, 7, 24
2, 354240, Note_on_c, 0, 44, 88
2, 354240, Note_on_c, 0, 49, 88
2, 354240, Note_on_c, 0, 56, 88
2, 354360, Control_c, 0, 7, 23
2, 354470, Note_off_c, 0, 44, 80
2, 354470, Note_off_c, 0, 49, 80
2, 354470, Note_off_c, 0, 56, 80
2, 354480, Control_c, 0, 7, 22
2, 354480, Note_on_c, 0, 44, 88
2, 354480, Note_on_c, 0, 49, 88
2, 354480, Note_on_c, 0, 56, 88
2, 354600, Control_c, 0, 7, 21
2, 354710, Note_off_c, 0, 44, 80
2, 354710, Note_off_c, 0, 49, 80
2, 354710, Note_off_c, 0, 56, 80
2, 354720, Control_c, 0, 7, 20
2, 354720, Note_on_c, 0, 44, 88
2, 354720, Note_on_c, 0, 49, 88
2, 354720, Note_on_c, 0, 56, 88
2, 354840, Control_c, 0, 7, 19
2, 354950, Note_off_c, 0, 44, 80
2, 354950, Note_off_c, 0, 49, 80
2, 354950, Note_off_c, 0, 56, 80
2, 354960, Control_c, 0, 7, 18
2, 354960, Note_on_c, 0, 44, 88
2, 354960, Note_on_c, 0, 49, 88
2, 354960, Note_on_c, 0, 56, 88
2, 355080, Control_c, 0, 7, 17
2, 355190, Note_off_c, 0, 44, 80
2, 355190, Note_off_c, 0, 49, 80
2, 355190, Note_off_c, 0, 56, 80
2, 355200, Control_c, 0, 7, 16
2, 355200, Control_c, 0, 7, 15
2, 355200, Note_on_c, 0, 44, 88
2, 355200, Note_on_c, 0, 51, 88
2, 355200, Note_on_c, 0, 56, 88
2, 355320, Control_c, 0, 7, 14
2, 355430, Note_off_c, 0, 44, 80
2, 355430, Note_off_c, 0, 51, 80
2, 355430, Note_off_c, 0, 56, 80
2, 355440, Control_c, 0, 7, 13
2, 355440, Note_on_c, 0, 44, 88
2, 355440, Note_on_c, 0, 51, 88
2, 355440, Note_on_c, 0, 56, 88
2, 355560, Control_c, 0, 7, 12
2, 355670, Note_off_c, 0, 44, 80
2, 355670, Note_off_c, 0, 51, 80
2, 355670, Note_off_c, 0, 56, 80
2, 355680, Control_c, 0, 7, 11
2, 355680, Note_on_c, 0, 44, 88
2, 355680, Note_on_c, 0, 51, 88
2, 355680, Note_on_c, 0, 56, 88
2, 355800, Control_c, 0, 7, 10
2, 355910, Note_off_c, 0, 44, 80
2, 355910, Note_off_c, 0, 51, 80
2, 355910, Note_off_c, 0, 56, 80
2, 355920, Control_c, 0, 7, 9
2, 355920, Note_on_c, 0, 44, 88
2, 355920, Note_on_c, 0, 51, 88
2, 355920, Note_on_c, 0, 56, 88
2, 356040, Control_c, 0, 7, 8
2, 356150, Note_off_c, 0, 44, 80
2, 356150, Note_off_c, 0, 51, 80
2, 356150, Note_off_c, 0, 56, 80
2, 356160, Note_on_c, 0, 44, 88
2, 356160, Note_on_c, 0, 51, 88
2, 356160, Note_on_c, 0, 56, 88
2, 356280, Control_c, 0, 7, 7
2, 356390, Note_off_c, 0, 44, 80
2, 356390, Note_off_c, 0, 51, 80
2, 356390, Note_off_c, 0, 56, 80
2, 356400, Control_c, 0, 7, 6
2, 356400, Note_on_c, 0, 44, 88
2, 356400, Note_on_c, 0, 51, 88
2, 356400, Note_on_c, 0, 56, 88
2, 356520, Control_c, 0, 7, 5
2, 356630, Note_off_c, 0, 44, 80
2, 356630, Note_off_c, 0, 51, 80
2, 356630, Note_off_c, 0, 56, 80
2, 356640, Control_c, 0, 7, 4
2, 356640, Note_on_c, 0, 44, 88
2, 356640, Note_on_c, 0, 51, 88
2, 356640, Note_on_c, 0, 56, 88
2, 356760, Control_c, 0, 7, 3
2, 356870, Note_off_c, 0, 44, 80
2, 356870, Note_off_c, 0, 51, 80
2, 356870, Note_off_c, 0, 56, 80
2, 356880, Control_c, 0, 7, 2
2, 356880, Note_on_c, 0, 44, 88
2, 356880, Note_on_c, 0, 51, 88
2, 356880, Note_on_c, 0, 56, 88
2, 357000, Control_c, 0, 7, 1
2, 357110, Note_off_c, 0, 44, 80
2, 357110, Note_off_c, 0, 51, 80
2, 357110, Note_off_c, 0, 56, 80
2, 357120, Control_c, 0, 7, 0
2, 357120, Note_on_c, 0, 44, 88
2, 357120, Note_on_c, 0, 51, 88
2, 357120, Note_on_c, 0, 56, 88
2, 357350, Note_off_c, 0, 44, 80
2, 357350, Note_off_c, 0, 51, 80
2, 357350, Note_off_c, 0, 56, 80
2, 357360, Note_on_c, 0, 44, 88
2, 357360, Note_on_c, 0, 51, 88
2, 357360, Note_on_c, 0, 56, 88
2, 357590, Note_off_c, 0, 44, 80
2, 357590, Note_off_c, 0, 51, 80
2, 357590, Note_off_c, 0, 56, 80
2, 357600, Note_on_c, 0, 44, 88
2, 357600, Note_on_c, 0, 51, 88
2, 357600, Note_on_c, 0, 56, 88
2, 357830, Note_off_c, 0, 44, 80
2, 357830, Note_off_c, 0, 51, 80
2, 357830, Note_off_c, 0, 56, 80
2, 357840, Note_on_c, 0, 44, 88
2, 357840, Note_on_c, 0, 51, 88
2, 357840, Note_on_c, 0, 56, 88
2, 358070, Note_off_c, 0, 44, 80
2, 358070, Note_off_c, 0, 51, 80
2, 358070, Note_off_c, 0, 56, 80
2, 358080, Note_on_c, 0, 44, 88
2, 358080, Note_on_c, 0, 51, 88
2, 358080, Note_on_c, 0, 56, 88
2, 358310, Note_off_c, 0, 44, 80
2, 358310, Note_off_c, 0, 51, 80
2, 358310, Note_off_c, 0, 56, 80
2, 358320, Note_on_c, 0, 44, 88
2, 358320, Note_on_c, 0, 51, 88
2, 358320, Note_on_c, 0, 56, 88
2, 358550, Note_off_c, 0, 44, 80
2, 358550, Note_off_c, 0, 51, 80
2, 358550, Note_off_c, 0, 56, 80
2, 358560, Note_on_c, 0, 44, 88
2, 358560, Note_on_c, 0, 51, 88
2, 358560, Note_on_c, 0, 56, 88
2, 358790, Note_off_c, 0, 44, 80
2, 358790, Note_off_c, 0, 51, 80
2, 358790, Note_off_c, 0, 56, 80
2, 358800, Note_on_c, 0, 44, 88
2, 358800, Note_on_c, 0, 51, 88
2, 358800, Note_on_c, 0, 56, 88
2, 359030, Note_off_c, 0, 44, 80
2, 359030, Note_off_c, 0, 51, 80
2, 359030, Note_off_c, 0, 56, 80
2, 359040, Note_on_c, 0, 44, 88
2, 359040, Note_on_c, 0, 49, 88
2, 359040, Note_on_c, 0, 56, 88
2, 359270, Note_off_c, 0, 44, 80
2, 359270, Note_off_c, 0, 49, 80
2, 359270, Note_off_c, 0, 56, 80
2, 359280, Note_on_c, 0, 44, 88
2, 359280, Note_on_c, 0, 49, 88
2, 359280, Note_on_c, 0, 56, 88
2, 359510, Note_off_c, 0, 44, 80
2, 359510, Note_off_c, 0, 49, 80
2, 359510, Note_off_c, 0, 56, 80
2, 359520, Note_on_c, 0, 44, 88
2, 359520, Note_on_c, 0, 49, 88
2, 359520, Note_on_c, 0, 56, 88
2, 359750, Note_off_c, 0, 44, 80
2, 359750, Note_off_c, 0, 49, 80
2, 359750, Note_off_c, 0, 56, 80
2, 359760, Note_on_c, 0, 44, 88
2, 359760, Note_on_c, 0, 49, 88
2, 359760, Note_on_c, 0, 56, 88
2, 359990, Note_off_c, 0, 44, 80
2, 359990, Note_off_c, 0, 49, 80
2, 359990, Note_off_c, 0, 56, 80
2, 360000, Note_on_c, 0, 44, 88
2, 360000, Note_on_c, 0, 49, 88
2, 360000, Note_on_c, 0, 56, 88
2, 360230, Note_off_c, 0, 44, 80
2, 360230, Note_off_c, 0, 49, 80
2, 360230, Note_off_c, 0, 56, 80
2, 360240, Note_on_c, 0, 44, 88
2, 360240, Note_on_c, 0, 49, 88
2, 360240, Note_on_c, 0, 56, 88
2, 360470, Note_off_c, 0, 44, 80
2, 360470, Note_off_c, 0, 49, 80
2, 360470, Note_off_c, 0, 56, 80
2, 360480, Note_on_c, 0, 44, 88
2, 360480, Note_on_c, 0, 49, 88
2, 360480, Note_on_c, 0, 56, 88
2, 360710, Note_off_c, 0, 44, 80
2, 360710, Note_off_c, 0, 49, 80
2, 360710, Note_off_c, 0, 56, 80
2, 360720, Note_on_c, 0, 44, 88
2, 360720, Note_on_c, 0, 49, 88
2, 360720, Note_on_c, 0, 56, 88
2, 360950, Note_off_c, 0, 44, 80
2, 360950, Note_off_c, 0, 49, 80
2, 360950, Note_off_c, 0, 56, 80
2, 360960, Note_on_c, 0, 44, 88
2, 360960, Note_on_c, 0, 49, 88
2, 360960, Note_on_c, 0, 56, 88
2, 361190, Note_off_c, 0, 44, 80
2, 361190, Note_off_c, 0, 49, 80
2, 361190, Note_off_c, 0, 56, 80
2, 361200, Note_on_c, 0, 44, 88
2, 361200, Note_on_c, 0, 49, 88
2, 361200, Note_on_c, 0, 56, 88
2, 361430, Note_off_c, 0, 44, 80
2, 361430, Note_off_c, 0, 49, 80
2, 361430, Note_off_c, 0, 56, 80
2, 361440, Note_on_c, 0, 44, 88
2, 361440, Note_on_c, 0, 49, 88
2, 361440, Note_on_c, 0, 56, 88
2, 361670, Note_off_c, 0, 44, 80
2, 361670, Note_off_c, 0, 49, 80
2, 361670, Note_off_c, 0, 56, 80
2, 361680, Note_on_c, 0, 44, 88
2, 361680, Note_on_c, 0, 49, 88
2, 361680, Note_on_c, 0, 56, 88
2, 361910, Note_off_c, 0, 44, 80
2, 361910, Note_off_c, 0, 49, 80
2, 361910, Note_off_c, 0, 56, 80
2, 361920, Note_on_c, 0, 44, 88
2, 361920, Note_on_c, 0, 49, 88
2, 361920, Note_on_c, 0, 56, 88
2, 362150, Note_off_c, 0, 44, 80
2, 362150, Note_off_c, 0, 49, 80
2, 362150, Note_off_c, 0, 56, 80
2, 362160, Note_on_c, 0, 44, 88
2, 362160, Note_on_c, 0, 49, 88
2, 362160, Note_on_c, 0, 56, 88
2, 362390, Note_off_c, 0, 44, 80
2, 362390, Note_off_c, 0, 49, 80
2, 362390, Note_off_c, 0, 56, 80
2, 362400, Note_on_c, 0, 44, 88
2, 362400, Note_on_c, 0, 49, 88
2, 362400, Note_on_c, 0, 56, 88
2, 362630, Note_off_c, 0, 44, 80
2, 362630, Note_off_c, 0, 49, 80
2, 362630, Note_off_c, 0, 56, 80
2, 362640, Note_on_c, 0, 44, 88
2, 362640, Note_on_c, 0, 49, 88
2, 362640, Note_on_c, 0, 56, 88
2, 362870, Note_off_c, 0, 44, 80
2, 362870, Note_off_c, 0, 49, 80
2, 362870, Note_off_c, 0, 56, 80
2, 362870, End_track
3, 0, Start_track
3, 0, Title_t, "Rhythm Guitar"
3, 120, Control_c, 1, 121, 0
3, 120, Control_c, 1, 123, 0
3, 120, Control_c, 1, 100, 0
3, 120, Control_c, 1, 38, 0
3, 120, Control_c, 1, 101, 0
3, 120, Control_c, 1, 6, 12
3, 120, Pitch_bend_c, 1, 8192
3, 180, Program_c, 1, 27
3, 180, Control_c, 1, 7, 68
3, 180, Control_c, 1, 10, 72
3, 1920, Note_on_c, 1, 44, 82
3, 1920, Note_on_c, 1, 51, 82
3, 2096, Note_off_c, 1, 44, 80
3, 2096, Note_off_c, 1, 51, 80
3, 2160, Note_on_c, 1, 44, 82
3, 2160, Note_on_c, 1, 51, 82
3, 2336, Note_off_c, 1, 44, 80
3, 2336, Note_off_c, 1, 51, 80
3, 2400, Note_on_c, 1, 44, 82
3, 2400, Note_on_c, 1, 51, 82
3, 2576, Note_off_c, 1, 44, 80
3, 2576, Note_off_c, 1, 51, 80
3, 2640, Note_on_c, 1, 44, 82
3, 2640, Note_on_c, 1, 51, 82
3, 2816, Note_off_c, 1, 44, 80
3, 2816, Note_off_c, 1, 51, 80
3, 2880, Note_on_c, 1, 44, 82
3, 2880, Note_on_c, 1, 51, 82
3, 3056, Note_off_c, 1, 44, 80
3, 3056, Note_off_c, 1, 51, 80
3, 3120, Note_on_c, 1, 44, 82
3, 3120, Note_on_c, 1, 51, 82
3, 3296, Note_off_c, 1, 44, 80
3, 3296, Note_off_c, 1, 51, 80
3, 3360, Note_on_c, 1, 44, 82
3, 3360, Note_on_c, 1, 51, 82
3, 3536, Note_off_c, 1, 44, 80
3, 3536, Note_off_c, 1, 51, 80
3, 3600, Note_on_c, 1, 44, 82
3, 3600, Note_on_c, 1, 51, 82
3, 3776, Note_off_c, 1, 44, 80
3, 3776, Note_off_c, 1, 51, 80
3, 3840, Note_on_c, 1, 44, 82
3, 3840, Note_on_c, 1, 51, 82
3, 4016, Note_off_c, 1, 44, 80
3, 4016, Note_off_c, 1, 51, 80
3, 4080, Note_on_c, 1, 44, 82
3, 4080, Note_on_c, 1, 51, 82
3, 4256, Note_off_c, 1, 44, 80
3, 4256, Note_off_c, 1, 51, 80
3, 4320, Note_on_c, 1, 44, 82
3, 4320, Note_on_c, 1, 51, 82
3, 4496, Note_off_c, 1, 44, 80
3, 4496, Note_off_c, 1, 51, 80
3, 4560, Note_on_c, 1, 44, 82
3, 4560, Note_on_c, 1, 51, 82
3, 4736, Note_off_c, 1, 44, 80
3, 4736, Note_off_c, 1, 51, 80
3, 4800, Note_on_c, 1, 44, 82
3, 4800, Note_on_c, 1, 51, 82
3, 4976, Note_off_c, 1, 44, 80
3, 4976, Note_off_c, 1, 51, 80
3, 5040, Note_on_c, 1, 44, 82
3, 5040, Note_on_c, 1, 51, 82
3, 5216, Note_off_c, 1, 44, 80
3, 5216, Note_off_c, 1, 51, 80
3, 5280, Note_on_c, 1, 44, 82
3, 5280, Note_on_c, 1, 51, 82
3, 5456, Note_off_c, 1, 44, 80
3, 5456, Note_off_c, 1, 51, 80
3, 5520, Note_on_c, 1, 44, 82
3, 5520, Note_on_c, 1, 51, 82
3, 5696, Note_off_c, 1, 44, 80
3, 5696, Note_off_c, 1, 51, 80
3, 5760, Note_on_c, 1, 44, 82
3, 5760, Note_on_c, 1, 49, 82
3, 5760, Note_on_c, 1, 53, 82
3, 5936, Note_off_c, 1, 44, 80
3, 5936, Note_off_c, 1, 49, 80
3, 5936, Note_off_c, 1, 53, 80
3, 6000, Note_on_c, 1, 44, 82
3, 6000, Note_on_c, 1, 49, 82
3, 6000, Note_on_c, 1, 53, 82
3, 6176, Note_off_c, 1, 44, 80
3, 6176, Note_off_c, 1, 49, 80
3, 6176, Note_off_c, 1, 53, 80
3, 6240, Note_on_c, 1, 44, 82
3, 6240, Note_on_c, 1, 49, 82
3, 6240, Note_on_c, 1, 53, 82
3, 6416, Note_off_c, 1, 44, 80
3, 6416, Note_off_c, 1, 49, 80
3, 6416, Note_off_c, 1, 53, 80
3, 6480, Note_on_c, 1, 44, 82
3, 6480, Note_on_c, 1, 49, 82
3, 6480, Note_on_c, 1, 53, 82
3, 6656, Note_off_c, 1, 44, 80
3, 6656, Note_off_c, 1, 49, 80
3, 6656, Note_off_c, 1, 53, 80
3, 6720, Note_on_c, 1, 44, 82
3, 6720, Note_on_c, 1, 49, 82
3, 6720, Note_on_c, 1, 53, 82
3, 6896, Note_off_c, 1, 44, 80
3, 6896, Note_off_c, 1, 49, 80
3, 6896, Note_off_c, 1, 53, 80
3, 6960, Note_on_c, 1, 44, 82
3, 6960, Note_on_c, 1, 49, 82
3, 6960, Note_on_c, 1, 53, 82
3, 7136, Note_off_c, 1, 44, 80
3, 7136, Note_off_c, 1, 49, 80
3, 7136, Note_off_c, 1, 53, 80
3, 7200, Note_on_c, 1, 44, 82
3, 7200, Note_on_c, 1, 49, 82
3, 7200, Note_on_c, 1, 53, 82
3, 7376, Note_off_c, 1, 44, 80
3, 7376, Note_off_c, 1, 49, 80
3, 7376, Note_off_c, 1, 53, 80
3, 7440, Note_on_c, 1, 44, 82
3, 7440, Note_on_c, 1, 49, 82
3, 7440, Note_on_c, 1, 53, 82
3, 7616, Note_off_c, 1, 44, 80
3, 7616, Note_off_c, 1, 49, 80
3, 7616, Note_off_c, 1, 53, 80
3, 7680, Note_on_c, 1, 44, 82
3, 7680, Note_on_c, 1, 49, 82
3, 7680, Note_on_c, 1, 53, 82
3, 7856, Note_off_c, 1, 44, 80
3, 7856, Note_off_c, 1, 49, 80
3, 7856, Note_off_c, 1, 53, 80
3, 7920, Note_on_c, 1, 44, 82
3, 7920, Note_on_c, 1, 49, 82
3, 7920, Note_on_c, 1, 53, 82
3, 8096, Note_off_c, 1, 44, 80
3, 8096, Note_off_c, 1, 49, 80
3, 8096, Note_off_c, 1, 53, 80
3, 8160, Note_on_c, 1, 44, 82
3, 8160, Note_on_c, 1, 49, 82
3, 8160, Note_on_c, 1, 53, 82
3, 8336, Note_off_c, 1, 44, 80
3, 8336, Note_off_c, 1, 49, 80
3, 8336, Note_off_c, 1, 53, 80
3, 8400, Note_on_c, 1, 44, 82
3, 8400, Note_on_c, 1, 49, 82
3, 8400, Note_on_c, 1, 53, 82
3, 8576, Note_off_c, 1, 44, 80
3, 8576, Note_off_c, 1, 49, 80
3, 8576, Note_off_c, 1, 53, 80
3, 8640, Note_on_c, 1, 44, 82
3, 8640, Note_on_c, 1, 49, 82
3, 8640, Note_on_c, 1, 53, 82
3, 8816, Note_off_c, 1, 44, 80
3, 8816, Note_off_c, 1, 49, 80
3, 8816, Note_off_c, 1, 53, 80
3, 8880, Note_on_c, 1, 44, 82
3, 8880, Note_on_c, 1, 49, 82
3, 8880, Note_on_c, 1, 53, 82
3, 9056, Note_off_c, 1, 44, 80
3, 9056, Note_off_c, 1, 49, 80
3, 9056, Note_off_c, 1, 53, 80
3, 9120, Note_on_c, 1, 44, 82
3, 9120, Note_on_c, 1, 49, 82
3, 9120, Note_on_c, 1, 53, 82
3, 9296, Note_off_c, 1, 44, 80
3, 9296, Note_off_c, 1, 49, 80
3, 9296, Note_off_c, 1, 53, 80
3, 9360, Note_on_c, 1, 44, 82
3, 9360, Note_on_c, 1, 49, 82
3, 9360, Note_on_c, 1, 53, 82
3, 9536, Note_off_c, 1, 44, 80
3, 9536, Note_off_c, 1, 49, 80
3, 9536, Note_off_c, 1, 53, 80
3, 9600, Note_on_c, 1, 44, 82
3, 9600, Note_on_c, 1, 51, 82
3, 9776, Note_off_c, 1, 44, 80
3, 9776, Note_off_c, 1, 51, 80
3, 9840, Note_on_c, 1, 44, 82
3, 9840, Note_on_c, 1, 51, 82
3, 10016, Note_off_c, 1, 44, 80
3, 10016, Note_off_c, 1, 51, 80
3, 10080, Note_on_c, 1, 44, 82
3, 10080, Note_on_c, 1, 51, 82
3, 10256, Note_off_c, 1, 44, 80
3, 10256, Note_off_c, 1, 51, 80
3, 10320, Note_on_c, 1, 44, 82
3, 10320, Note_on_c, 1, 51, 82
3, 10496, Note_off_c, 1, 44, 80
3, 10496, Note_off_c, 1, 51, 80
3, 10560, Note_on_c, 1, 44, 82
3, 10560, Note_on_c, 1, 51, 82
3, 10736, Note_off_c, 1, 44, 80
3, 10736, Note_off_c, 1, 51, 80
3, 10800, Note_on_c, 1, 44, 82
3, 10800, Note_on_c, 1, 51, 82
3, 10976, Note_off_c, 1, 44, 80
3, 10976, Note_off_c, 1, 51, 80
3, 11040, Note_on_c, 1, 44, 82
3, 11040, Note_on_c, 1, 51, 82
3, 11216, Note_off_c, 1, 44, 80
3, 11216, Note_off_c, 1, 51, 80
3, 11280, Note_on_c, 1, 44, 82
3, 11280, Note_on_c, 1, 51, 82
3, 11456, Note_off_c, 1, 44, 80
3, 11456, Note_off_c, 1, 51, 80
3, 11520, Note_on_c, 1, 44, 82
3, 11520, Note_on_c, 1, 51, 82
3, 11696, Note_off_c, 1, 44, 80
3, 11696, Note_off_c, 1, 51, 80
3, 11760, Note_on_c, 1, 44, 82
3, 11760, Note_on_c, 1, 51, 82
3, 11936, Note_off_c, 1, 44, 80
3, 11936, Note_off_c, 1, 51, 80
3, 12000, Note_on_c, 1, 44, 82
3, 12000, Note_on_c, 1, 51, 82
3, 12176, Note_off_c, 1, 44, 80
3, 12176, Note_off_c, 1, 51, 80
3, 12240, Note_on_c, 1, 44, 82
3, 12240, Note_on_c, 1, 51, 82
3, 12416, Note_off_c, 1, 44, 80
3, 12416, Note_off_c, 1, 51, 80
3, 12480, Note_on_c, 1, 44, 82
3, 12480, Note_on_c, 1, 51, 82
3, 12656, Note_off_c, 1, 44, 80
3, 12656, Note_off_c, 1, 51, 80
3, 12720, Note_on_c, 1, 44, 82
3, 12720, Note_on_c, 1, 51, 82
3, 12896, Note_off_c, 1, 44, 80
3, 12896, Note_off_c, 1, 51, 80
3, 12960, Note_on_c, 1, 44, 82
3, 12960, Note_on_c, 1, 51, 82
3, 13136, Note_off_c, 1, 44, 80
3, 13136, Note_off_c, 1, 51, 80
3, 13200, Note_on_c, 1, 44, 82
3, 13200, Note_on_c, 1, 51, 82
3, 13376, Note_off_c, 1, 44, 80
3, 13376, Note_off_c, 1, 51, 80
3, 13440, Note_on_c, 1, 44, 82
3, 13440, Note_on_c, 1, 49, 82
3, 13440, Note_on_c, 1, 53, 82
3, 13616, Note_off_c, 1, 44, 80
3, 13616, Note_off_c, 1, 49, 80
3, 13616, Note_off_c, 1, 53, 80
3, 13680, Note_on_c, 1, 44, 82
3, 13680, Note_on_c, 1, 49, 82
3, 13680, Note_on_c, 1, 53, 82
3, 13856, Note_off_c, 1, 44, 80
3, 13856, Note_off_c, 1, 49, 80
3, 13856, Note_off_c, 1, 53, 80
3, 13920, Note_on_c, 1, 44, 82
3, 13920, Note_on_c, 1, 49, 82
3, 13920, Note_on_c, 1, 53, 82
3, 14096, Note_off_c, 1, 44, 80
3, 14096, Note_off_c, 1, 49, 80
3, 14096, Note_off_c, 1, 53, 80
3, 14160, Note_on_c, 1, 44, 82
3, 14160, Note_on_c, 1, 49, 82
3, 14160, Note_on_c, 1, 53, 82
3, 14336, Note_off_c, 1, 44, 80
3, 14336, Note_off_c, 1, 49, 80
3, 14336, Note_off_c, 1, 53, 80
3, 14400, Note_on_c, 1, 44, 82
3, 14400, Note_on_c, 1, 49, 82
3, 14400, Note_on_c, 1, 53, 82
3, 14576, Note_off_c, 1, 44, 80
3, 14576, Note_off_c, 1, 49, 80
3, 14576, Note_off_c, 1, 53, 80
3, 14640, Note_on_c, 1, 44, 82
3, 14640, Note_on_c, 1, 49, 82
3, 14640, Note_on_c, 1, 53, 82
3, 14816, Note_off_c, 1, 44, 80
3, 14816, Note_off_c, 1, 49, 80
3, 14816, Note_off_c, 1, 53, 80
3, 14880, Note_on_c, 1, 44, 82
3, 14880, Note_on_c, 1, 49, 82
3, 14880, Note_on_c, 1, 53, 82
3, 15056, Note_off_c, 1, 44, 80
3, 15056, Note_off_c, 1, 49, 80
3, 15056, Note_off_c, 1, 53, 80
3, 15120, Note_on_c, 1, 44, 82
3, 15120, Note_on_c, 1, 49, 82
3, 15120, Note_on_c, 1, 53, 82
3, 15296, Note_off_c, 1, 44, 80
3, 15296, Note_off_c, 1, 49, 80
3, 15296, Note_off_c, 1, 53, 80
3, 15360, Note_on_c, 1, 44, 82
3, 15360, Note_on_c, 1, 49, 82
3, 15360, Note_on_c, 1, 53, 82
3, 15536, Note_off_c, 1, 44, 80
3, 15536, Note_off_c, 1, 49, 80
3, 15536, Note_off_c, 1, 53, 80
3, 15600, Note_on_c, 1, 44, 82
3, 15600, Note_on_c, 1, 49, 82
3, 15600, Note_on_c, 1, 53, 82
3, 15776, Note_off_c, 1, 44, 80
3, 15776, Note_off_c, 1, 49, 80
3, 15776, Note_off_c, 1, 53, 80
3, 15840, Note_on_c, 1, 44, 82
3, 15840, Note_on_c, 1, 49, 82
3, 15840, Note_on_c, 1, 53, 82
3, 16016, Note_off_c, 1, 44, 80
3, 16016, Note_off_c, 1, 49, 80
3, 16016, Note_off_c, 1, 53, 80
3, 16080, Note_on_c, 1, 44, 82
3, 16080, Note_on_c, 1, 49, 82
3, 16080, Note_on_c, 1, 53, 82
3, 16256, Note_off_c, 1, 44, 80
3, 16256, Note_off_c, 1, 49, 80
3, 16256, Note_off_c, 1, 53, 80
3, 16320, Note_on_c, 1, 44, 82
3, 16320, Note_on_c, 1, 49, 82
3, 16320, Note_on_c, 1, 53, 82
3, 16496, Note_off_c, 1, 44, 80
3, 16496, Note_off_c, 1, 49, 80
3, 16496, Note_off_c, 1, 53, 80
3, 16560, Note_on_c, 1, 44, 82
3, 16560, Note_on_c, 1, 49, 82
3, 16560, Note_on_c, 1, 53, 82
3, 16736, Note_off_c, 1, 44, 80
3, 16736, Note_off_c, 1, 49, 80
3, 16736, Note_off_c, 1, 53, 80
3, 16800, Note_on_c, 1, 44, 82
3, 16800, Note_on_c, 1, 49, 82
3, 16800, Note_on_c, 1, 53, 82
3, 16976, Note_off_c, 1, 44, 80
3, 16976, Note_off_c, 1, 49, 80
3, 16976, Note_off_c, 1, 53, 80
3, 17040, Note_on_c, 1, 44, 82
3, 17040, Note_on_c, 1, 49, 82
3, 17040, Note_on_c, 1, 53, 82
3, 17216, Note_off_c, 1, 44, 80
3, 17216, Note_off_c, 1, 49, 80
3, 17216, Note_off_c, 1, 53, 80
3, 17280, Note_on_c, 1, 44, 82
3, 17280, Note_on_c, 1, 51, 82
3, 17456, Note_off_c, 1, 44, 80
3, 17456, Note_off_c, 1, 51, 80
3, 17520, Note_on_c, 1, 44, 82
3, 17520, Note_on_c, 1, 51, 82
3, 17696, Note_off_c, 1, 44, 80
3, 17696, Note_off_c, 1, 51, 80
3, 17760, Note_on_c, 1, 44, 82
3, 17760, Note_on_c, 1, 51, 82
3, 17936, Note_off_c, 1, 44, 80
3, 17936, Note_off_c, 1, 51, 80
3, 18000, Note_on_c, 1, 44, 82
3, 18000, Note_on_c, 1, 51, 82
3, 18176, Note_off_c, 1, 44, 80
3, 18176, Note_off_c, 1, 51, 80
3, 18240, Note_on_c, 1, 44, 82
3, 18240, Note_on_c, 1, 51, 82
3, 18416, Note_off_c, 1, 44, 80
3, 18416, Note_off_c, 1, 51, 80
3, 18480, Note_on_c, 1, 44, 82
3, 18480, Note_on_c, 1, 51, 82
3, 18656, Note_off_c, 1, 44, 80
3, 18656, Note_off_c, 1, 51, 80
3, 18720, Note_on_c, 1, 44, 82
3, 18720, Note_on_c, 1, 51, 82
3, 18896, Note_off_c, 1, 44, 80
3, 18896, Note_off_c, 1, 51, 80
3, 18960, Note_on_c, 1, 44, 82
3, 18960, Note_on_c, 1, 51, 82
3, 19136, Note_off_c, 1, 44, 80
3, 19136, Note_off_c, 1, 51, 80
3, 19200, Note_on_c, 1, 44, 82
3, 19200, Note_on_c, 1, 51, 82
3, 19376, Note_off_c, 1, 44, 80
3, 19376, Note_off_c, 1, 51, 80
3, 19440, Note_on_c, 1, 44, 82
3, 19440, Note_on_c, 1, 51, 82
3, 19616, Note_off_c, 1, 44, 80
3, 19616, Note_off_c, 1, 51, 80
3, 19680, Note_on_c, 1, 44, 82
3, 19680, Note_on_c, 1, 51, 82
3, 19856, Note_off_c, 1, 44, 80
3, 19856, Note_off_c, 1, 51, 80
3, 19920, Note_on_c, 1, 44, 82
3, 19920, Note_on_c, 1, 51, 82
3, 20096, Note_off_c, 1, 44, 80
3, 20096, Note_off_c, 1, 51, 80
3, 20160, Note_on_c, 1, 44, 82
3, 20160, Note_on_c, 1, 51, 82
3, 20336, Note_off_c, 1, 44, 80
3, 20336, Note_off_c, 1, 51, 80
3, 20400, Note_on_c, 1, 44, 82
3, 20400, Note_on_c, 1, 51, 82
3, 20576, Note_off_c, 1, 44, 80
3, 20576, Note_off_c, 1, 51, 80
3, 20640, Note_on_c, 1, 44, 82
3, 20640, Note_on_c, 1, 51, 82
3, 20816, Note_off_c, 1, 44, 80
3, 20816, Note_off_c, 1, 51, 80
3, 20880, Note_on_c, 1, 44, 82
3, 20880, Note_on_c, 1, 51, 82
3, 21056, Note_off_c, 1, 44, 80
3, 21056, Note_off_c, 1, 51, 80
3, 21120, Note_on_c, 1, 44, 82
3, 21120, Note_on_c, 1, 49, 82
3, 21120, Note_on_c, 1, 53, 82
3, 21296, Note_off_c, 1, 44, 80
3, 21296, Note_off_c, 1, 49, 80
3, 21296, Note_off_c, 1, 53, 80
3, 21360, Note_on_c, 1, 44, 82
3, 21360, Note_on_c, 1, 49, 82
3, 21360, Note_on_c, 1, 53, 82
3, 21536, Note_off_c, 1, 44, 80
3, 21536, Note_off_c, 1, 49, 80
3, 21536, Note_off_c, 1, 53, 80
3, 21600, Note_on_c, 1, 44, 82
3, 21600, Note_on_c, 1, 49, 82
3, 21600, Note_on_c, 1, 53, 82
3, 21776, Note_off_c, 1, 44, 80
3, 21776, Note_off_c, 1, 49, 80
3, 21776, Note_off_c, 1, 53, 80
3, 21840, Note_on_c, 1, 44, 82
3, 21840, Note_on_c, 1, 49, 82
3, 21840, Note_on_c, 1, 53, 82
3, 22016, Note_off_c, 1, 44, 80
3, 22016, Note_off_c, 1, 49, 80
3, 22016, Note_off_c, 1, 53, 80
3, 22080, Note_on_c, 1, 44, 82
3, 22080, Note_on_c, 1, 49, 82
3, 22080, Note_on_c, 1, 53, 82
3, 22256, Note_off_c, 1, 44, 80
3, 22256, Note_off_c, 1, 49, 80
3, 22256, Note_off_c, 1, 53, 80
3, 22320, Note_on_c, 1, 44, 82
3, 22320, Note_on_c, 1, 49, 82
3, 22320, Note_on_c, 1, 53, 82
3, 22496, Note_off_c, 1, 44, 80
3, 22496, Note_off_c, 1, 49, 80
3, 22496, Note_off_c, 1, 53, 80
3, 22560, Note_on_c, 1, 44, 82
3, 22560, Note_on_c, 1, 49, 82
3, 22560, Note_on_c, 1, 53, 82
3, 22736, Note_off_c, 1, 44, 80
3, 22736, Note_off_c, 1, 49, 80
3, 22736, Note_off_c, 1, 53, 80
3, 22800, Note_on_c, 1, 44, 82
3, 22800, Note_on_c, 1, 49, 82
3, 22800, Note_on_c, 1, 53, 82
3, 22976, Note_off_c, 1, 44, 80
3, 22976, Note_off_c, 1, 49, 80
3, 22976, Note_off_c, 1, 53, 80
3, 23040, Note_on_c, 1, 44, 82
3, 23040, Note_on_c, 1, 49, 82
3, 23040, Note_on_c, 1, 53, 82
3, 23216, Note_off_c, 1, 44, 80
3, 23216, Note_off_c, 1, 49, 80
3, 23216, Note_off_c, 1, 53, 80
3, 23280, Note_on_c, 1, 44, 82
3, 23280, Note_on_c, 1, 49, 82
3, 23280, Note_on_c, 1, 53, 82
3, 23456, Note_off_c, 1, 44, 80
3, 23456, Note_off_c, 1, 49, 80
3, 23456, Note_off_c, 1, 53, 80
3, 23520, Note_on_c, 1, 44, 82
3, 23520, Note_on_c, 1, 49, 82
3, 23520, Note_on_c, 1, 53, 82
3, 23696, Note_off_c, 1, 44, 80
3, 23696, Note_off_c, 1, 49, 80
3, 23696, Note_off_c, 1, 53, 80
3, 23760, Note_on_c, 1, 44, 82
3, 23760, Note_on_c, 1, 49, 82
3, 23760, Note_on_c, 1, 53, 82
3, 23936, Note_off_c, 1, 44, 80
3, 23936, Note_off_c, 1, 49, 80
3, 23936, Note_off_c, 1, 53, 80
3, 24000, Note_on_c, 1, 44, 82
3, 24000, Note_on_c, 1, 49, 82
3, 24000, Note_on_c, 1, 53, 82
3, 24176, Note_off_c, 1, 44, 80
3, 24176, Note_off_c, 1, 49, 80
3, 24176, Note_off_c, 1, 53, 80
3, 24240, Note_on_c, 1, 44, 82
3, 24240, Note_on_c, 1, 49, 82
3, 24240, Note_on_c, 1, 53, 82
3, 24416, Note_off_c, 1, 44, 80
3, 24416, Note_off_c, 1, 49, 80
3, 24416, Note_off_c, 1, 53, 80
3, 24480, Note_on_c, 1, 44, 82
3, 24480, Note_on_c, 1, 49, 82
3, 24480, Note_on_c, 1, 53, 82
3, 24656, Note_off_c, 1, 44, 80
3, 24656, Note_off_c, 1, 49, 80
3, 24656, Note_off_c, 1, 53, 80
3, 24720, Note_on_c, 1, 44, 82
3, 24720, Note_on_c, 1, 49, 82
3, 24720, Note_on_c, 1, 53, 82
3, 24896, Note_off_c, 1, 44, 80
3, 24896, Note_off_c, 1, 49, 80
3, 24896, Note_off_c, 1, 53, 80
3, 24960, Note_on_c, 1, 44, 82
3, 24960, Note_on_c, 1, 51, 82
3, 25136, Note_off_c, 1, 44, 80
3, 25136, Note_off_c, 1, 51, 80
3, 25200, Note_on_c, 1, 44, 82
3, 25200, Note_on_c, 1, 51, 82
3, 25376, Note_off_c, 1, 44, 80
3, 25376, Note_off_c, 1, 51, 80
3, 25440, Note_on_c, 1, 44, 82
3, 25440, Note_on_c, 1, 51, 82
3, 25616, Note_off_c, 1, 44, 80
3, 25616, Note_off_c, 1, 51, 80
3, 25680, Note_on_c, 1, 44, 82
3, 25680, Note_on_c, 1, 51, 82
3, 25856, Note_off_c, 1, 44, 80
3, 25856, Note_off_c, 1, 51, 80
3, 25920, Note_on_c, 1, 44, 82
3, 25920, Note_on_c, 1, 51, 82
3, 26096, Note_off_c, 1, 44, 80
3, 26096, Note_off_c, 1, 51, 80
3, 26160, Note_on_c, 1, 44, 82
3, 26160, Note_on_c, 1, 51, 82
3, 26336, Note_off_c, 1, 44, 80
3, 26336, Note_off_c, 1, 51, 80
3, 26400, Note_on_c, 1, 44, 82
3, 26400, Note_on_c, 1, 51, 82
3, 26576, Note_off_c, 1, 44, 80
3, 26576, Note_off_c, 1, 51, 80
3, 26640, Note_on_c, 1, 44, 82
3, 26640, Note_on_c, 1, 51, 82
3, 26816, Note_off_c, 1, 44, 80
3, 26816, Note_off_c, 1, 51, 80
3, 26880, Note_on_c, 1, 44, 82
3, 26880, Note_on_c, 1, 51, 82
3, 27056, Note_off_c, 1, 44, 80
3, 27056, Note_off_c, 1, 51, 80
3, 27120, Note_on_c, 1, 44, 82
3, 27120, Note_on_c, 1, 51, 82
3, 27296, Note_off_c, 1, 44, 80
3, 27296, Note_off_c, 1, 51, 80
3, 27360, Note_on_c, 1, 44, 82
3, 27360, Note_on_c, 1, 51, 82
3, 27536, Note_off_c, 1, 44, 80
3, 27536, Note_off_c, 1, 51, 80
3, 27600, Note_on_c, 1, 44, 82
3, 27600, Note_on_c, 1, 51, 82
3, 27776, Note_off_c, 1, 44, 80
3, 27776, Note_off_c, 1, 51, 80
3, 27840, Note_on_c, 1, 44, 82
3, 27840, Note_on_c, 1, 51, 82
3, 28016, Note_off_c, 1, 44, 80
3, 28016, Note_off_c, 1, 51, 80
3, 28080, Note_on_c, 1, 44, 82
3, 28080, Note_on_c, 1, 51, 82
3, 28256, Note_off_c, 1, 44, 80
3, 28256, Note_off_c, 1, 51, 80
3, 28320, Note_on_c, 1, 44, 82
3, 28320, Note_on_c, 1, 51, 82
3, 28496, Note_off_c, 1, 44, 80
3, 28496, Note_off_c, 1, 51, 80
3, 28560, Note_on_c, 1, 44, 82
3, 28560, Note_on_c, 1, 51, 82
3, 28736, Note_off_c, 1, 44, 80
3, 28736, Note_off_c, 1, 51, 80
3, 28800, Note_on_c, 1, 44, 82
3, 28800, Note_on_c, 1, 49, 82
3, 28800, Note_on_c, 1, 53, 82
3, 28976, Note_off_c, 1, 44, 80
3, 28976, Note_off_c, 1, 49, 80
3, 28976, Note_off_c, 1, 53, 80
3, 29040, Note_on_c, 1, 44, 82
3, 29040, Note_on_c, 1, 49, 82
3, 29040, Note_on_c, 1, 53, 82
3, 29216, Note_off_c, 1, 44, 80
3, 29216, Note_off_c, 1, 49, 80
3, 29216, Note_off_c, 1, 53, 80
3, 29280, Note_on_c, 1, 44, 82
3, 29280, Note_on_c, 1, 49, 82
3, 29280, Note_on_c, 1, 53, 82
3, 29456, Note_off_c, 1, 44, 80
3, 29456, Note_off_c, 1, 49, 80
3, 29456, Note_off_c, 1, 53, 80
3, 29520, Note_on_c, 1, 44, 82
3, 29520, Note_on_c, 1, 49, 82
3, 29520, Note_on_c, 1, 53, 82
3, 29696, Note_off_c, 1, 44, 80
3, 29696, Note_off_c, 1, 49, 80
3, 29696, Note_off_c, 1, 53, 80
3, 29760, Note_on_c, 1, 44, 82
3, 29760, Note_on_c, 1, 49, 82
3, 29760, Note_on_c, 1, 53, 82
3, 29936, Note_off_c, 1, 44, 80
3, 29936, Note_off_c, 1, 49, 80
3, 29936, Note_off_c, 1, 53, 80
3, 30000, Note_on_c, 1, 44, 82
3, 30000, Note_on_c, 1, 49, 82
3, 30000, Note_on_c, 1, 53, 82
3, 30176, Note_off_c, 1, 44, 80
3, 30176, Note_off_c, 1, 49, 80
3, 30176, Note_off_c, 1, 53, 80
3, 30240, Note_on_c, 1, 44, 82
3, 30240, Note_on_c, 1, 49, 82
3, 30240, Note_on_c, 1, 53, 82
3, 30416, Note_off_c, 1, 44, 80
3, 30416, Note_off_c, 1, 49, 80
3, 30416, Note_off_c, 1, 53, 80
3, 30480, Note_on_c, 1, 44, 82
3, 30480, Note_on_c, 1, 49, 82
3, 30480, Note_on_c, 1, 53, 82
3, 30656, Note_off_c, 1, 44, 80
3, 30656, Note_off_c, 1, 49, 80
3, 30656, Note_off_c, 1, 53, 80
3, 30720, Note_on_c, 1, 44, 82
3, 30720, Note_on_c, 1, 49, 82
3, 30720, Note_on_c, 1, 53, 82
3, 30896, Note_off_c, 1, 44, 80
3, 30896, Note_off_c, 1, 49, 80
3, 30896, Note_off_c, 1, 53, 80
3, 30960, Note_on_c, 1, 44, 82
3, 30960, Note_on_c, 1, 49, 82
3, 30960, Note_on_c, 1, 53, 82
3, 31136, Note_off_c, 1, 44, 80
3, 31136, Note_off_c, 1, 49, 80
3, 31136, Note_off_c, 1, 53, 80
3, 31200, Note_on_c, 1, 44, 82
3, 31200, Note_on_c, 1, 49, 82
3, 31200, Note_on_c, 1, 53, 82
3, 31376, Note_off_c, 1, 44, 80
3, 31376, Note_off_c, 1, 49, 80
3, 31376, Note_off_c, 1, 53, 80
3, 31440, Note_on_c, 1, 44, 82
3, 31440, Note_on_c, 1, 49, 82
3, 31440, Note_on_c, 1, 53, 82
3, 31616, Note_off_c, 1, 44, 80
3, 31616, Note_off_c, 1, 49, 80
3, 31616, Note_off_c, 1, 53, 80
3, 31680, Note_on_c, 1, 44, 82
3, 31680, Note_on_c, 1, 49, 82
3, 31680, Note_on_c, 1, 53, 82
3, 31856, Note_off_c, 1, 44, 80
3, 31856, Note_off_c, 1, 49, 80
3, 31856, Note_off_c, 1, 53, 80
3, 31920, Note_on_c, 1, 44, 82
3, 31920, Note_on_c, 1, 49, 82
3, 31920, Note_on_c, 1, 53, 82
3, 32096, Note_off_c, 1, 44, 80
3, 32096, Note_off_c, 1, 49, 80
3, 32096, Note_off_c, 1, 53, 80
3, 32160, Note_on_c, 1, 44, 82
3, 32160, Note_on_c, 1, 49, 82
3, 32160, Note_on_c, 1, 53, 82
3, 32336, Note_off_c, 1, 44, 80
3, 32336, Note_off_c, 1, 49, 80
3, 32336, Note_off_c, 1, 53, 80
3, 32400, Note_on_c, 1, 44, 82
3, 32400, Note_on_c, 1, 49, 82
3, 32400, Note_on_c, 1, 53, 82
3, 32576, Note_off_c, 1, 44, 80
3, 32576, Note_off_c, 1, 49, 80
3, 32576, Note_off_c, 1, 53, 80
3, 32640, Note_on_c, 1, 44, 82
3, 32640, Note_on_c, 1, 51, 82
3, 32816, Note_off_c, 1, 44, 80
3, 32816, Note_off_c, 1, 51, 80
3, 32880, Note_on_c, 1, 44, 82
3, 32880, Note_on_c, 1, 51, 82
3, 33056, Note_off_c, 1, 44, 80
3, 33056, Note_off_c, 1, 51, 80
3, 33120, Note_on_c, 1, 44, 82
3, 33120, Note_on_c, 1, 51, 82
3, 33296, Note_off_c, 1, 44, 80
3, 33296, Note_off_c, 1, 51, 80
3, 33360, Note_on_c, 1, 44, 82
3, 33360, Note_on_c, 1, 51, 82
3, 33536, Note_off_c, 1, 44, 80
3, 33536, Note_off_c, 1, 51, 80
3, 33600, Note_on_c, 1, 44, 82
3, 33600, Note_on_c, 1, 51, 82
3, 33776, Note_off_c, 1, 44, 80
3, 33776, Note_off_c, 1, 51, 80
3, 33840, Note_on_c, 1, 44, 82
3, 33840, Note_on_c, 1, 51, 82
3, 34016, Note_off_c, 1, 44, 80
3, 34016, Note_off_c, 1, 51, 80
3, 34080, Note_on_c, 1, 44, 82
3, 34080, Note_on_c, 1, 51, 82
3, 34256, Note_off_c, 1, 44, 80
3, 34256, Note_off_c, 1, 51, 80
3, 34320, Note_on_c, 1, 44, 82
3, 34320, Note_on_c, 1, 51, 82
3, 34496, Note_off_c, 1, 44, 80
3, 34496, Note_off_c, 1, 51, 80
3, 34560, Note_on_c, 1, 44, 82
3, 34560, Note_on_c, 1, 51, 82
3, 34736, Note_off_c, 1, 44, 80
3, 34736, Note_off_c, 1, 51, 80
3, 34800, Note_on_c, 1, 44, 82
3, 34800, Note_on_c, 1, 51, 82
3, 34976, Note_off_c, 1, 44, 80
3, 34976, Note_off_c, 1, 51, 80
3, 35040, Note_on_c, 1, 44, 82
3, 35040, Note_on_c, 1, 51, 82
3, 35216, Note_off_c, 1, 44, 80
3, 35216, Note_off_c, 1, 51, 80
3, 35280, Note_on_c, 1, 44, 82
3, 35280, Note_on_c, 1, 51, 82
3, 35456, Note_off_c, 1, 44, 80
3, 35456, Note_off_c, 1, 51, 80
3, 35520, Note_on_c, 1, 44, 82
3, 35520, Note_on_c, 1, 51, 82
3, 35696, Note_off_c, 1, 44, 80
3, 35696, Note_off_c, 1, 51, 80
3, 35760, Note_on_c, 1, 44, 82
3, 35760, Note_on_c, 1, 51, 82
3, 35936, Note_off_c, 1, 44, 80
3, 35936, Note_off_c, 1, 51, 80
3, 36000, Note_on_c, 1, 44, 82
3, 36000, Note_on_c, 1, 51, 82
3, 36176, Note_off_c, 1, 44, 80
3, 36176, Note_off_c, 1, 51, 80
3, 36240, Note_on_c, 1, 44, 82
3, 36240, Note_on_c, 1, 51, 82
3, 36416, Note_off_c, 1, 44, 80
3, 36416, Note_off_c, 1, 51, 80
3, 36480, Note_on_c, 1, 44, 82
3, 36480, Note_on_c, 1, 49, 82
3, 36480, Note_on_c, 1, 53, 82
3, 36656, Note_off_c, 1, 44, 80
3, 36656, Note_off_c, 1, 49, 80
3, 36656, Note_off_c, 1, 53, 80
3, 36720, Note_on_c, 1, 44, 82
3, 36720, Note_on_c, 1, 49, 82
3, 36720, Note_on_c, 1, 53, 82
3, 36896, Note_off_c, 1, 44, 80
3, 36896, Note_off_c, 1, 49, 80
3, 36896, Note_off_c, 1, 53, 80
3, 36960, Note_on_c, 1, 44, 82
3, 36960, Note_on_c, 1, 49, 82
3, 36960, Note_on_c, 1, 53, 82
3, 37136, Note_off_c, 1, 44, 80
3, 37136, Note_off_c, 1, 49, 80
3, 37136, Note_off_c, 1, 53, 80
3, 37200, Note_on_c, 1, 44, 82
3, 37200, Note_on_c, 1, 49, 82
3, 37200, Note_on_c, 1, 53, 82
3, 37376, Note_off_c, 1, 44, 80
3, 37376, Note_off_c, 1, 49, 80
3, 37376, Note_off_c, 1, 53, 80
3, 37440, Note_on_c, 1, 44, 82
3, 37440, Note_on_c, 1, 49, 82
3, 37440, Note_on_c, 1, 53, 82
3, 37616, Note_off_c, 1, 44, 80
3, 37616, Note_off_c, 1, 49, 80
3, 37616, Note_off_c, 1, 53, 80
3, 37680, Note_on_c, 1, 44, 82
3, 37680, Note_on_c, 1, 49, 82
3, 37680, Note_on_c, 1, 53, 82
3, 37856, Note_off_c, 1, 44, 80
3, 37856, Note_off_c, 1, 49, 80
3, 37856, Note_off_c, 1, 53, 80
3, 37920, Note_on_c, 1, 44, 82
3, 37920, Note_on_c, 1, 49, 82
3, 37920, Note_on_c, 1, 53, 82
3, 38096, Note_off_c, 1, 44, 80
3, 38096, Note_off_c, 1, 49, 80
3, 38096, Note_off_c, 1, 53, 80
3, 38160, Note_on_c, 1, 44, 82
3, 38160, Note_on_c, 1, 49, 82
3, 38160, Note_on_c, 1, 53, 82
3, 38336, Note_off_c, 1, 44, 80
3, 38336, Note_off_c, 1, 49, 80
3, 38336, Note_off_c, 1, 53, 80
3, 38400, Note_on_c, 1, 44, 82
3, 38400, Note_on_c, 1, 49, 82
3, 38400, Note_on_c, 1, 53, 82
3, 38576, Note_off_c, 1, 44, 80
3, 38576, Note_off_c, 1, 49, 80
3, 38576, Note_off_c, 1, 53, 80
3, 38640, Note_on_c, 1, 44, 82
3, 38640, Note_on_c, 1, 49, 82
3, 38640, Note_on_c, 1, 53, 82
3, 38816, Note_off_c, 1, 44, 80
3, 38816, Note_off_c, 1, 49, 80
3, 38816, Note_off_c, 1, 53, 80
3, 38880, Note_on_c, 1, 44, 82
3, 38880, Note_on_c, 1, 49, 82
3, 38880, Note_on_c, 1, 53, 82
3, 39056, Note_off_c, 1, 44, 80
3, 39056, Note_off_c, 1, 49, 80
3, 39056, Note_off_c, 1, 53, 80
3, 39120, Note_on_c, 1, 44, 82
3, 39120, Note_on_c, 1, 49, 82
3, 39120, Note_on_c, 1, 53, 82
3, 39296, Note_off_c, 1, 44, 80
3, 39296, Note_off_c, 1, 49, 80
3, 39296, Note_off_c, 1, 53, 80
3, 39360, Note_on_c, 1, 44, 82
3, 39360, Note_on_c, 1, 49, 82
3, 39360, Note_on_c, 1, 53, 82
3, 39536, Note_off_c, 1, 44, 80
3, 39536, Note_off_c, 1, 49, 80
3, 39536, Note_off_c, 1, 53, 80
3, 39600, Note_on_c, 1, 44, 82
3, 39600, Note_on_c, 1, 49, 82
3, 39600, Note_on_c, 1, 53, 82
3, 39776, Note_off_c, 1, 44, 80
3, 39776, Note_off_c, 1, 49, 80
3, 39776, Note_off_c, 1, 53, 80
3, 39840, Note_on_c, 1, 44, 82
3, 39840, Note_on_c, 1, 49, 82
3, 39840, Note_on_c, 1, 53, 82
3, 40016, Note_off_c, 1, 44, 80
3, 40016, Note_off_c, 1, 49, 80
3, 40016, Note_off_c, 1, 53, 80
3, 40080, Note_on_c, 1, 44, 82
3, 40080, Note_on_c, 1, 49, 82
3, 40080, Note_on_c, 1, 53, 82
3, 40256, Note_off_c, 1, 44, 80
3, 40256, Note_off_c, 1, 49, 80
3, 40256, Note_off_c, 1, 53, 80
3, 40320, Note_on_c, 1, 44, 82
3, 40320, Note_on_c, 1, 51, 82
3, 40496, Note_off_c, 1, 44, 80
3, 40496, Note_off_c, 1, 51, 80
3, 40560, Note_on_c, 1, 44, 82
3, 40560, Note_on_c, 1, 51, 82
3, 40736, Note_off_c, 1, 44, 80
3, 40736, Note_off_c, 1, 51, 80
3, 40800, Note_on_c, 1, 44, 82
3, 40800, Note_on_c, 1, 51, 82
3, 40976, Note_off_c, 1, 44, 80
3, 40976, Note_off_c, 1, 51, 80
3, 41040, Note_on_c, 1, 44, 82
3, 41040, Note_on_c, 1, 51, 82
3, 41216, Note_off_c, 1, 44, 80
3, 41216, Note_off_c, 1, 51, 80
3, 41280, Note_on_c, 1, 44, 82
3, 41280, Note_on_c, 1, 51, 82
3, 41456, Note_off_c, 1, 44, 80
3, 41456, Note_off_c, 1, 51, 80
3, 41520, Note_on_c, 1, 44, 82
3, 41520, Note_on_c, 1, 51, 82
3, 41696, Note_off_c, 1, 44, 80
3, 41696, Note_off_c, 1, 51, 80
3, 41760, Note_on_c, 1, 44, 82
3, 41760, Note_on_c, 1, 51, 82
3, 41936, Note_off_c, 1, 44, 80
3, 41936, Note_off_c, 1, 51, 80
3, 42000, Note_on_c, 1, 44, 82
3, 42000, Note_on_c, 1, 51, 82
3, 42176, Note_off_c, 1, 44, 80
3, 42176, Note_off_c, 1, 51, 80
3, 42240, Note_on_c, 1, 44, 82
3, 42240, Note_on_c, 1, 51, 82
3, 42416, Note_off_c, 1, 44, 80
3, 42416, Note_off_c, 1, 51, 80
3, 42480, Note_on_c, 1, 44, 82
3, 42480, Note_on_c, 1, 51, 82
3, 42656, Note_off_c, 1, 44, 80
3, 42656, Note_off_c, 1, 51, 80
3, 42720, Note_on_c, 1, 44, 82
3, 42720, Note_on_c, 1, 51, 82
3, 42896, Note_off_c, 1, 44, 80
3, 42896, Note_off_c, 1, 51, 80
3, 42960, Note_on_c, 1, 44, 82
3, 42960, Note_on_c, 1, 51, 82
3, 43136, Note_off_c, 1, 44, 80
3, 43136, Note_off_c, 1, 51, 80
3, 43200, Note_on_c, 1, 44, 82
3, 43200, Note_on_c, 1, 51, 82
3, 43376, Note_off_c, 1, 44, 80
3, 43376, Note_off_c, 1, 51, 80
3, 43440, Note_on_c, 1, 44, 82
3, 43440, Note_on_c, 1, 51, 82
3, 43616, Note_off_c, 1, 44, 80
3, 43616, Note_off_c, 1, 51, 80
3, 43680, Note_on_c, 1, 44, 82
3, 43680, Note_on_c, 1, 51, 82
3, 43856, Note_off_c, 1, 44, 80
3, 43856, Note_off_c, 1, 51, 80
3, 43920, Note_on_c, 1, 44, 82
3, 43920, Note_on_c, 1, 51, 82
3, 44096, Note_off_c, 1, 44, 80
3, 44096, Note_off_c, 1, 51, 80
3, 44160, Note_on_c, 1, 44, 82
3, 44160, Note_on_c, 1, 49, 82
3, 44160, Note_on_c, 1, 53, 82
3, 44336, Note_off_c, 1, 44, 80
3, 44336, Note_off_c, 1, 49, 80
3, 44336, Note_off_c, 1, 53, 80
3, 44400, Note_on_c, 1, 44, 82
3, 44400, Note_on_c, 1, 49, 82
3, 44400, Note_on_c, 1, 53, 82
3, 44576, Note_off_c, 1, 44, 80
3, 44576, Note_off_c, 1, 49, 80
3, 44576, Note_off_c, 1, 53, 80
3, 44640, Note_on_c, 1, 44, 82
3, 44640, Note_on_c, 1, 49, 82
3, 44640, Note_on_c, 1, 53, 82
3, 44816, Note_off_c, 1, 44, 80
3, 44816, Note_off_c, 1, 49, 80
3, 44816, Note_off_c, 1, 53, 80
3, 44880, Note_on_c, 1, 44, 82
3, 44880, Note_on_c, 1, 49, 82
3, 44880, Note_on_c, 1, 53, 82
3, 45056, Note_off_c, 1, 44, 80
3, 45056, Note_off_c, 1, 49, 80
3, 45056, Note_off_c, 1, 53, 80
3, 45120, Note_on_c, 1, 44, 82
3, 45120, Note_on_c, 1, 49, 82
3, 45120, Note_on_c, 1, 53, 82
3, 45296, Note_off_c, 1, 44, 80
3, 45296, Note_off_c, 1, 49, 80
3, 45296, Note_off_c, 1, 53, 80
3, 45360, Note_on_c, 1, 44, 82
3, 45360, Note_on_c, 1, 49, 82
3, 45360, Note_on_c, 1, 53, 82
3, 45536, Note_off_c, 1, 44, 80
3, 45536, Note_off_c, 1, 49, 80
3, 45536, Note_off_c, 1, 53, 80
3, 45600, Note_on_c, 1, 44, 82
3, 45600, Note_on_c, 1, 49, 82
3, 45600, Note_on_c, 1, 53, 82
3, 45776, Note_off_c, 1, 44, 80
3, 45776, Note_off_c, 1, 49, 80
3, 45776, Note_off_c, 1, 53, 80
3, 45840, Note_on_c, 1, 44, 82
3, 45840, Note_on_c, 1, 49, 82
3, 45840, Note_on_c, 1, 53, 82
3, 46016, Note_off_c, 1, 44, 80
3, 46016, Note_off_c, 1, 49, 80
3, 46016, Note_off_c, 1, 53, 80
3, 46080, Note_on_c, 1, 44, 82
3, 46080, Note_on_c, 1, 49, 82
3, 46080, Note_on_c, 1, 53, 82
3, 46256, Note_off_c, 1, 44, 80
3, 46256, Note_off_c, 1, 49, 80
3, 46256, Note_off_c, 1, 53, 80
3, 46320, Note_on_c, 1, 44, 82
3, 46320, Note_on_c, 1, 49, 82
3, 46320, Note_on_c, 1, 53, 82
3, 46496, Note_off_c, 1, 44, 80
3, 46496, Note_off_c, 1, 49, 80
3, 46496, Note_off_c, 1, 53, 80
3, 46560, Note_on_c, 1, 44, 82
3, 46560, Note_on_c, 1, 49, 82
3, 46560, Note_on_c, 1, 53, 82
3, 46736, Note_off_c, 1, 44, 80
3, 46736, Note_off_c, 1, 49, 80
3, 46736, Note_off_c, 1, 53, 80
3, 46800, Note_on_c, 1, 44, 82
3, 46800, Note_on_c, 1, 49, 82
3, 46800, Note_on_c, 1, 53, 82
3, 46976, Note_off_c, 1, 44, 80
3, 46976, Note_off_c, 1, 49, 80
3, 46976, Note_off_c, 1, 53, 80
3, 47040, Note_on_c, 1, 44, 82
3, 47040, Note_on_c, 1, 49, 82
3, 47040, Note_on_c, 1, 53, 82
3, 47216, Note_off_c, 1, 44, 80
3, 47216, Note_off_c, 1, 49, 80
3, 47216, Note_off_c, 1, 53, 80
3, 47280, Note_on_c, 1, 44, 82
3, 47280, Note_on_c, 1, 49, 82
3, 47280, Note_on_c, 1, 53, 82
3, 47456, Note_off_c, 1, 44, 80
3, 47456, Note_off_c, 1, 49, 80
3, 47456, Note_off_c, 1, 53, 80
3, 47520, Note_on_c, 1, 44, 82
3, 47520, Note_on_c, 1, 49, 82
3, 47520, Note_on_c, 1, 53, 82
3, 47696, Note_off_c, 1, 44, 80
3, 47696, Note_off_c, 1, 49, 80
3, 47696, Note_off_c, 1, 53, 80
3, 47760, Note_on_c, 1, 44, 82
3, 47760, Note_on_c, 1, 49, 82
3, 47760, Note_on_c, 1, 53, 82
3, 47936, Note_off_c, 1, 44, 80
3, 47936, Note_off_c, 1, 49, 80
3, 47936, Note_off_c, 1, 53, 80
3, 48000, Note_on_c, 1, 44, 82
3, 48000, Note_on_c, 1, 51, 82
3, 48176, Note_off_c, 1, 44, 80
3, 48176, Note_off_c, 1, 51, 80
3, 48240, Note_on_c, 1, 44, 82
3, 48240, Note_on_c, 1, 51, 82
3, 48416, Note_off_c, 1, 44, 80
3, 48416, Note_off_c, 1, 51, 80
3, 48480, Note_on_c, 1, 44, 82
3, 48480, Note_on_c, 1, 51, 82
3, 48656, Note_off_c, 1, 44, 80
3, 48656, Note_off_c, 1, 51, 80
3, 48720, Note_on_c, 1, 44, 82
3, 48720, Note_on_c, 1, 51, 82
3, 48896, Note_off_c, 1, 44, 80
3, 48896, Note_off_c, 1, 51, 80
3, 48960, Note_on_c, 1, 44, 82
3, 48960, Note_on_c, 1, 51, 82
3, 49136, Note_off_c, 1, 44, 80
3, 49136, Note_off_c, 1, 51, 80
3, 49200, Note_on_c, 1, 44, 82
3, 49200, Note_on_c, 1, 51, 82
3, 49376, Note_off_c, 1, 44, 80
3, 49376, Note_off_c, 1, 51, 80
3, 49440, Note_on_c, 1, 44, 82
3, 49440, Note_on_c, 1, 51, 82
3, 49616, Note_off_c, 1, 44, 80
3, 49616, Note_off_c, 1, 51, 80
3, 49680, Note_on_c, 1, 44, 82
3, 49680, Note_on_c, 1, 51, 82
3, 49856, Note_off_c, 1, 44, 80
3, 49856, Note_off_c, 1, 51, 80
3, 49920, Note_on_c, 1, 44, 82
3, 49920, Note_on_c, 1, 51, 82
3, 50096, Note_off_c, 1, 44, 80
3, 50096, Note_off_c, 1, 51, 80
3, 50160, Note_on_c, 1, 44, 82
3, 50160, Note_on_c, 1, 51, 82
3, 50336, Note_off_c, 1, 44, 80
3, 50336, Note_off_c, 1, 51, 80
3, 50400, Note_on_c, 1, 44, 82
3, 50400, Note_on_c, 1, 51, 82
3, 50576, Note_off_c, 1, 44, 80
3, 50576, Note_off_c, 1, 51, 80
3, 50640, Note_on_c, 1, 44, 82
3, 50640, Note_on_c, 1, 51, 82
3, 50816, Note_off_c, 1, 44, 80
3, 50816, Note_off_c, 1, 51, 80
3, 50880, Note_on_c, 1, 44, 82
3, 50880, Note_on_c, 1, 51, 82
3, 51056, Note_off_c, 1, 44, 80
3, 51056, Note_off_c, 1, 51, 80
3, 51120, Note_on_c, 1, 44, 82
3, 51120, Note_on_c, 1, 51, 82
3, 51296, Note_off_c, 1, 44, 80
3, 51296, Note_off_c, 1, 51, 80
3, 51360, Note_on_c, 1, 44, 82
3, 51360, Note_on_c, 1, 51, 82
3, 51536, Note_off_c, 1, 44, 80
3, 51536, Note_off_c, 1, 51, 80
3, 51600, Note_on_c, 1, 44, 82
3, 51600, Note_on_c, 1, 51, 82
3, 51776, Note_off_c, 1, 44, 80
3, 51776, Note_off_c, 1, 51, 80
3, 51840, Note_on_c, 1, 46, 82
3, 51840, Note_on_c, 1, 51, 82
3, 51840, Note_on_c, 1, 55, 82
3, 52016, Note_off_c, 1, 46, 80
3, 52016, Note_off_c, 1, 51, 80
3, 52016, Note_off_c, 1, 55, 80
3, 52080, Note_on_c, 1, 46, 82
3, 52080, Note_on_c, 1, 51, 82
3, 52080, Note_on_c, 1, 55, 82
3, 52256, Note_off_c, 1, 46, 80
3, 52256, Note_off_c, 1, 51, 80
3, 52256, Note_off_c, 1, 55, 80
3, 52320, Note_on_c, 1, 46, 82
3, 52320, Note_on_c, 1, 51, 82
3, 52320, Note_on_c, 1, 55, 82
3, 52496, Note_off_c, 1, 46, 80
3, 52496, Note_off_c, 1, 51, 80
3, 52496, Note_off_c, 1, 55, 80
3, 52560, Note_on_c, 1, 46, 82
3, 52560, Note_on_c, 1, 51, 82
3, 52560, Note_on_c, 1, 55, 82
3, 52736, Note_off_c, 1, 46, 80
3, 52736, Note_off_c, 1, 51, 80
3, 52736, Note_off_c, 1, 55, 80
3, 52800, Note_on_c, 1, 46, 82
3, 52800, Note_on_c, 1, 51, 82
3, 52800, Note_on_c, 1, 55, 82
3, 52976, Note_off_c, 1, 46, 80
3, 52976, Note_off_c, 1, 51, 80
3, 52976, Note_off_c, 1, 55, 80
3, 53040, Note_on_c, 1, 46, 82
3, 53040, Note_on_c, 1, 51, 82
3, 53040, Note_on_c, 1, 55, 82
3, 53216, Note_off_c, 1, 46, 80
3, 53216, Note_off_c, 1, 51, 80
3, 53216, Note_off_c, 1, 55, 80
3, 53280, Note_on_c, 1, 46, 82
3, 53280, Note_on_c, 1, 51, 82
3, 53280, Note_on_c, 1, 55, 82
3, 53456, Note_off_c, 1, 46, 80
3, 53456, Note_off_c, 1, 51, 80
3, 53456, Note_off_c, 1, 55, 80
3, 53520, Note_on_c, 1, 46, 82
3, 53520, Note_on_c, 1, 51, 82
3, 53520, Note_on_c, 1, 55, 82
3, 53696, Note_off_c, 1, 46, 80
3, 53696, Note_off_c, 1, 51, 80
3, 53696, Note_off_c, 1, 55, 80
3, 53760, Note_on_c, 1, 46, 82
3, 53760, Note_on_c, 1, 51, 82
3, 53760, Note_on_c, 1, 55, 82
3, 53936, Note_off_c, 1, 46, 80
3, 53936, Note_off_c, 1, 51, 80
3, 53936, Note_off_c, 1, 55, 80
3, 54000, Note_on_c, 1, 46, 82
3, 54000, Note_on_c, 1, 51, 82
3, 54000, Note_on_c, 1, 55, 82
3, 54176, Note_off_c, 1, 46, 80
3, 54176, Note_off_c, 1, 51, 80
3, 54176, Note_off_c, 1, 55, 80
3, 54240, Note_on_c, 1, 46, 82
3, 54240, Note_on_c, 1, 51, 82
3, 54240, Note_on_c, 1, 55, 82
3, 54416, Note_off_c, 1, 46, 80
3, 54416, Note_off_c, 1, 51, 80
3, 54416, Note_off_c, 1, 55, 80
3, 54480, Note_on_c, 1, 46, 82
3, 54480, Note_on_c, 1, 51, 82
3, 54480, Note_on_c, 1, 55, 82
3, 54656, Note_off_c, 1, 46, 80
3, 54656, Note_off_c, 1, 51, 80
3, 54656, Note_off_c, 1, 55, 80
3, 54720, Note_on_c, 1, 46, 82
3, 54720, Note_on_c, 1, 51, 82
3, 54720, Note_on_c, 1, 55, 82
3, 54896, Note_off_c, 1, 46, 80
3, 54896, Note_off_c, 1, 51, 80
3, 54896, Note_off_c, 1, 55, 80
3, 54960, Note_on_c, 1, 46, 82
3, 54960, Note_on_c, 1, 51, 82
3, 54960, Note_on_c, 1, 55, 82
3, 55136, Note_off_c, 1, 46, 80
3, 55136, Note_off_c, 1, 51, 80
3, 55136, Note_off_c, 1, 55, 80
3, 55200, Note_on_c, 1, 46, 82
3, 55200, Note_on_c, 1, 51, 82
3, 55200, Note_on_c, 1, 55, 82
3, 55376, Note_off_c, 1, 46, 80
3, 55376, Note_off_c, 1, 51, 80
3, 55376, Note_off_c, 1, 55, 80
3, 55440, Note_on_c, 1, 46, 82
3, 55440, Note_on_c, 1, 51, 82
3, 55440, Note_on_c, 1, 55, 82
3, 55616, Note_off_c, 1, 46, 80
3, 55616, Note_off_c, 1, 51, 80
3, 55616, Note_off_c, 1, 55, 80
3, 55680, Note_on_c, 1, 42, 82
3, 55680, Note_on_c, 1, 49, 82
3, 55856, Note_off_c, 1, 42, 80
3, 55856, Note_off_c, 1, 49, 80
3, 55920, Note_on_c, 1, 42, 82
3, 55920, Note_on_c, 1, 49, 82
3, 56096, Note_off_c, 1, 42, 80
3, 56096, Note_off_c, 1, 49, 80
3, 56160, Note_on_c, 1, 42, 82
3, 56160, Note_on_c, 1, 49, 82
3, 56336, Note_off_c, 1, 42, 80
3, 56336, Note_off_c, 1, 49, 80
3, 56400, Note_on_c, 1, 42, 82
3, 56400, Note_on_c, 1, 49, 82
3, 56576, Note_off_c, 1, 42, 80
3, 56576, Note_off_c, 1, 49, 80
3, 56640, Note_on_c, 1, 42, 82
3, 56640, Note_on_c, 1, 49, 82
3, 56816, Note_off_c, 1, 42, 80
3, 56816, Note_off_c, 1, 49, 80
3, 56880, Note_on_c, 1, 42, 82
3, 56880, Note_on_c, 1, 49, 82
3, 57056, Note_off_c, 1, 42, 80
3, 57056, Note_off_c, 1, 49, 80
3, 57120, Note_on_c, 1, 42, 82
3, 57120, Note_on_c, 1, 49, 82
3, 57296, Note_off_c, 1, 42, 80
3, 57296, Note_off_c, 1, 49, 80
3, 57360, Note_on_c, 1, 42, 82
3, 57360, Note_on_c, 1, 49, 82
3, 57536, Note_off_c, 1, 42, 80
3, 57536, Note_off_c, 1, 49, 80
3, 57600, Note_on_c, 1, 42, 82
3, 57600, Note_on_c, 1, 49, 82
3, 57776, Note_off_c, 1, 42, 80
3, 57776, Note_off_c, 1, 49, 80
3, 57840, Note_on_c, 1, 42, 82
3, 57840, Note_on_c, 1, 49, 82
3, 58016, Note_off_c, 1, 42, 80
3, 58016, Note_off_c, 1, 49, 80
3, 58080, Note_on_c, 1, 42, 82
3, 58080, Note_on_c, 1, 49, 82
3, 58256, Note_off_c, 1, 42, 80
3, 58256, Note_off_c, 1, 49, 80
3, 58320, Note_on_c, 1, 42, 82
3, 58320, Note_on_c, 1, 49, 82
3, 58496, Note_off_c, 1, 42, 80
3, 58496, Note_off_c, 1, 49, 80
3, 58560, Note_on_c, 1, 42, 82
3, 58560, Note_on_c, 1, 49, 82
3, 58736, Note_off_c, 1, 42, 80
3, 58736, Note_off_c, 1, 49, 80
3, 58800, Note_on_c, 1, 42, 82
3, 58800, Note_on_c, 1, 49, 82
3, 58976, Note_off_c, 1, 42, 80
3, 58976, Note_off_c, 1, 49, 80
3, 59040, Note_on_c, 1, 42, 82
3, 59040, Note_on_c, 1, 49, 82
3, 59216, Note_off_c, 1, 42, 80
3, 59216, Note_off_c, 1, 49, 80
3, 59280, Note_on_c, 1, 42, 82
3, 59280, Note_on_c, 1, 49, 82
3, 59456, Note_off_c, 1, 42, 80
3, 59456, Note_off_c, 1, 49, 80
3, 59520, Note_on_c, 1, 44, 82
3, 59520, Note_on_c, 1, 49, 82
3, 59520, Note_on_c, 1, 53, 82
3, 59696, Note_off_c, 1, 44, 80
3, 59696, Note_off_c, 1, 49, 80
3, 59696, Note_off_c, 1, 53, 80
3, 59760, Note_on_c, 1, 44, 82
3, 59760, Note_on_c, 1, 49, 82
3, 59760, Note_on_c, 1, 53, 82
3, 59936, Note_off_c, 1, 44, 80
3, 59936, Note_off_c, 1, 49, 80
3, 59936, Note_off_c, 1, 53, 80
3, 60000, Note_on_c, 1, 44, 82
3, 60000, Note_on_c, 1, 49, 82
3, 60000, Note_on_c, 1, 53, 82
3, 60176, Note_off_c, 1, 44, 80
3, 60176, Note_off_c, 1, 49, 80
3, 60176, Note_off_c, 1, 53, 80
3, 60240, Note_on_c, 1, 44, 82
3, 60240, Note_on_c, 1, 49, 82
3, 60240, Note_on_c, 1, 53, 82
3, 60416, Note_off_c, 1, 44, 80
3, 60416, Note_off_c, 1, 49, 80
3, 60416, Note_off_c, 1, 53, 80
3, 60480, Note_on_c, 1, 44, 82
3, 60480, Note_on_c, 1, 49, 82
3, 60480, Note_on_c, 1, 53, 82
3, 60656, Note_off_c, 1, 44, 80
3, 60656, Note_off_c, 1, 49, 80
3, 60656, Note_off_c, 1, 53, 80
3, 60720, Note_on_c, 1, 44, 82
3, 60720, Note_on_c, 1, 49, 82
3, 60720, Note_on_c, 1, 53, 82
3, 60896, Note_off_c, 1, 44, 80
3, 60896, Note_off_c, 1, 49, 80
3, 60896, Note_off_c, 1, 53, 80
3, 60960, Note_on_c, 1, 44, 82
3, 60960, Note_on_c, 1, 49, 82
3, 60960, Note_on_c, 1, 53, 82
3, 61136, Note_off_c, 1, 44, 80
3, 61136, Note_off_c, 1, 49, 80
3, 61136, Note_off_c, 1, 53, 80
3, 61200, Note_on_c, 1, 44, 82
3, 61200, Note_on_c, 1, 49, 82
3, 61200, Note_on_c, 1, 53, 82
3, 61376, Note_off_c, 1, 44, 80
3, 61376, Note_off_c, 1, 49, 80
3, 61376, Note_off_c, 1, 53, 80
3, 61440, Note_on_c, 1, 44, 82
3, 61440, Note_on_c, 1, 51, 82
3, 61616, Note_off_c, 1, 44, 80
3, 61616, Note_off_c, 1, 51, 80
3, 61680, Note_on_c, 1, 44, 82
3, 61680, Note_on_c, 1, 51, 82
3, 61856, Note_off_c, 1, 44, 80
3, 61856, Note_off_c, 1, 51, 80
3, 61920, Note_on_c, 1, 44, 82
3, 61920, Note_on_c, 1, 51, 82
3, 62096, Note_off_c, 1, 44, 80
3, 62096, Note_off_c, 1, 51, 80
3, 62160, Note_on_c, 1, 44, 82
3, 62160, Note_on_c, 1, 51, 82
3, 62336, Note_off_c, 1, 44, 80
3, 62336, Note_off_c, 1, 51, 80
3, 62400, Note_on_c, 1, 44, 82
3, 62400, Note_on_c, 1, 51, 82
3, 62576, Note_off_c, 1, 44, 80
3, 62576, Note_off_c, 1, 51, 80
3, 62640, Note_on_c, 1, 44, 82
3, 62640, Note_on_c, 1, 51, 82
3, 62816, Note_off_c, 1, 44, 80
3, 62816, Note_off_c, 1, 51, 80
3, 62880, Note_on_c, 1, 44, 82
3, 62880, Note_on_c, 1, 51, 82
3, 63056, Note_off_c, 1, 44, 80
3, 63056, Note_off_c, 1, 51, 80
3, 63120, Note_on_c, 1, 44, 82
3, 63120, Note_on_c, 1, 51, 82
3, 63296, Note_off_c, 1, 44, 80
3, 63296, Note_off_c, 1, 51, 80
3, 63360, Note_on_c, 1, 46, 82
3, 63360, Note_on_c, 1, 51, 82
3, 63360, Note_on_c, 1, 55, 82
3, 63536, Note_off_c, 1, 46, 80
3, 63536, Note_off_c, 1, 51, 80
3, 63536, Note_off_c, 1, 55, 80
3, 63600, Note_on_c, 1, 46, 82
3, 63600, Note_on_c, 1, 51, 82
3, 63600, Note_on_c, 1, 55, 82
3, 63776, Note_off_c, 1, 46, 80
3, 63776, Note_off_c, 1, 51, 80
3, 63776, Note_off_c, 1, 55, 80
3, 63840, Note_on_c, 1, 46, 82
3, 63840, Note_on_c, 1, 51, 82
3, 63840, Note_on_c, 1, 55, 82
3, 64016, Note_off_c, 1, 46, 80
3, 64016, Note_off_c, 1, 51, 80
3, 64016, Note_off_c, 1, 55, 80
3, 64080, Note_on_c, 1, 46, 82
3, 64080, Note_on_c, 1, 51, 82
3, 64080, Note_on_c, 1, 55, 82
3, 64256, Note_off_c, 1, 46, 80
3, 64256, Note_off_c, 1, 51, 80
3, 64256, Note_off_c, 1, 55, 80
3, 64320, Note_on_c, 1, 46, 82
3, 64320, Note_on_c, 1, 51, 82
3, 64320, Note_on_c, 1, 55, 82
3, 64496, Note_off_c, 1, 46, 80
3, 64496, Note_off_c, 1, 51, 80
3, 64496, Note_off_c, 1, 55, 80
3, 64560, Note_on_c, 1, 46, 82
3, 64560, Note_on_c, 1, 51, 82
3, 64560, Note_on_c, 1, 55, 82
3, 64736, Note_off_c, 1, 46, 80
3, 64736, Note_off_c, 1, 51, 80
3, 64736, Note_off_c, 1, 55, 80
3, 64800, Note_on_c, 1, 46, 82
3, 64800, Note_on_c, 1, 51, 82
3, 64800, Note_on_c, 1, 55, 82
3, 64976, Note_off_c, 1, 46, 80
3, 64976, Note_off_c, 1, 51, 80
3, 64976, Note_off_c, 1, 55, 80
3, 65040, Note_on_c, 1, 46, 82
3, 65040, Note_on_c, 1, 51, 82
3, 65040, Note_on_c, 1, 55, 82
3, 65216, Note_off_c, 1, 46, 80
3, 65216, Note_off_c, 1, 51, 80
3, 65216, Note_off_c, 1, 55, 80
3, 65280, Note_on_c, 1, 46, 82
3, 65280, Note_on_c, 1, 51, 82
3, 65280, Note_on_c, 1, 55, 82
3, 65456, Note_off_c, 1, 46, 80
3, 65456, Note_off_c, 1, 51, 80
3, 65456, Note_off_c, 1, 55, 80
3, 65520, Note_on_c, 1, 46, 82
3, 65520, Note_on_c, 1, 51, 82
3, 65520, Note_on_c, 1, 55, 82
3, 65696, Note_off_c, 1, 46, 80
3, 65696, Note_off_c, 1, 51, 80
3, 65696, Note_off_c, 1, 55, 80
3, 65760, Note_on_c, 1, 46, 82
3, 65760, Note_on_c, 1, 51, 82
3, 65760, Note_on_c, 1, 55, 82
3, 65936, Note_off_c, 1, 46, 80
3, 65936, Note_off_c, 1, 51, 80
3, 65936, Note_off_c, 1, 55, 80
3, 66000, Note_on_c, 1, 46, 82
3, 66000, Note_on_c, 1, 51, 82
3, 66000, Note_on_c, 1, 55, 82
3, 66176, Note_off_c, 1, 46, 80
3, 66176, Note_off_c, 1, 51, 80
3, 66176, Note_off_c, 1, 55, 80
3, 66240, Note_on_c, 1, 46, 82
3, 66240, Note_on_c, 1, 51, 82
3, 66240, Note_on_c, 1, 55, 82
3, 66416, Note_off_c, 1, 46, 80
3, 66416, Note_off_c, 1, 51, 80
3, 66416, Note_off_c, 1, 55, 80
3, 66480, Note_on_c, 1, 46, 82
3, 66480, Note_on_c, 1, 51, 82
3, 66480, Note_on_c, 1, 55, 82
3, 66656, Note_off_c, 1, 46, 80
3, 66656, Note_off_c, 1, 51, 80
3, 66656, Note_off_c, 1, 55, 80
3, 66720, Note_on_c, 1, 46, 82
3, 66720, Note_on_c, 1, 51, 82
3, 66720, Note_on_c, 1, 55, 82
3, 66896, Note_off_c, 1, 46, 80
3, 66896, Note_off_c, 1, 51, 80
3, 66896, Note_off_c, 1, 55, 80
3, 66960, Note_on_c, 1, 46, 82
3, 66960, Note_on_c, 1, 51, 82
3, 66960, Note_on_c, 1, 55, 82
3, 67136, Note_off_c, 1, 46, 80
3, 67136, Note_off_c, 1, 51, 80
3, 67136, Note_off_c, 1, 55, 80
3, 67200, Note_on_c, 1, 42, 82
3, 67200, Note_on_c, 1, 49, 82
3, 67376, Note_off_c, 1, 42, 80
3, 67376, Note_off_c, 1, 49, 80
3, 67440, Note_on_c, 1, 42, 82
3, 67440, Note_on_c, 1, 49, 82
3, 67616, Note_off_c, 1, 42, 80
3, 67616, Note_off_c, 1, 49, 80
3, 67680, Note_on_c, 1, 42, 82
3, 67680, Note_on_c, 1, 49, 82
3, 67856, Note_off_c, 1, 42, 80
3, 67856, Note_off_c, 1, 49, 80
3, 67920, Note_on_c, 1, 42, 82
3, 67920, Note_on_c, 1, 49, 82
3, 68096, Note_off_c, 1, 42, 80
3, 68096, Note_off_c, 1, 49, 80
3, 68160, Note_on_c, 1, 42, 82
3, 68160, Note_on_c, 1, 49, 82
3, 68336, Note_off_c, 1, 42, 80
3, 68336, Note_off_c, 1, 49, 80
3, 68400, Note_on_c, 1, 42, 82
3, 68400, Note_on_c, 1, 49, 82
3, 68576, Note_off_c, 1, 42, 80
3, 68576, Note_off_c, 1, 49, 80
3, 68640, Note_on_c, 1, 42, 82
3, 68640, Note_on_c, 1, 49, 82
3, 68816, Note_off_c, 1, 42, 80
3, 68816, Note_off_c, 1, 49, 80
3, 68880, Note_on_c, 1, 42, 82
3, 68880, Note_on_c, 1, 49, 82
3, 69056, Note_off_c, 1, 42, 80
3, 69056, Note_off_c, 1, 49, 80
3, 69120, Note_on_c, 1, 42, 82
3, 69120, Note_on_c, 1, 49, 82
3, 69296, Note_off_c, 1, 42, 80
3, 69296, Note_off_c, 1, 49, 80
3, 69360, Note_on_c, 1, 42, 82
3, 69360, Note_on_c, 1, 49, 82
3, 69536, Note_off_c, 1, 42, 80
3, 69536, Note_off_c, 1, 49, 80
3, 69600, Note_on_c, 1, 42, 82
3, 69600, Note_on_c, 1, 49, 82
3, 69776, Note_off_c, 1, 42, 80
3, 69776, Note_off_c, 1, 49, 80
3, 69840, Note_on_c, 1, 42, 82
3, 69840, Note_on_c, 1, 49, 82
3, 70016, Note_off_c, 1, 42, 80
3, 70016, Note_off_c, 1, 49, 80
3, 70080, Note_on_c, 1, 42, 82
3, 70080, Note_on_c, 1, 49, 82
3, 70256, Note_off_c, 1, 42, 80
3, 70256, Note_off_c, 1, 49, 80
3, 70320, Note_on_c, 1, 42, 82
3, 70320, Note_on_c, 1, 49, 82
3, 70496, Note_off_c, 1, 42, 80
3, 70496, Note_off_c, 1, 49, 80
3, 70560, Note_on_c, 1, 42, 82
3, 70560, Note_on_c, 1, 49, 82
3, 70736, Note_off_c, 1, 42, 80
3, 70736, Note_off_c, 1, 49, 80
3, 70800, Note_on_c, 1, 42, 82
3, 70800, Note_on_c, 1, 49, 82
3, 70976, Note_off_c, 1, 42, 80
3, 70976, Note_off_c, 1, 49, 80
3, 71040, Note_on_c, 1, 44, 82
3, 71040, Note_on_c, 1, 49, 82
3, 71040, Note_on_c, 1, 53, 82
3, 71216, Note_off_c, 1, 44, 80
3, 71216, Note_off_c, 1, 49, 80
3, 71216, Note_off_c, 1, 53, 80
3, 71280, Note_on_c, 1, 44, 82
3, 71280, Note_on_c, 1, 49, 82
3, 71280, Note_on_c, 1, 53, 82
3, 71456, Note_off_c, 1, 44, 80
3, 71456, Note_off_c, 1, 49, 80
3, 71456, Note_off_c, 1, 53, 80
3, 71520, Note_on_c, 1, 44, 82
3, 71520, Note_on_c, 1, 49, 82
3, 71520, Note_on_c, 1, 53, 82
3, 71696, Note_off_c, 1, 44, 80
3, 71696, Note_off_c, 1, 49, 80
3, 71696, Note_off_c, 1, 53, 80
3, 71760, Note_on_c, 1, 44, 82
3, 71760, Note_on_c, 1, 49, 82
3, 71760, Note_on_c, 1, 53, 82
3, 71936, Note_off_c, 1, 44, 80
3, 71936, Note_off_c, 1, 49, 80
3, 71936, Note_off_c, 1, 53, 80
3, 72000, Note_on_c, 1, 44, 82
3, 72000, Note_on_c, 1, 49, 82
3, 72000, Note_on_c, 1, 53, 82
3, 72176, Note_off_c, 1, 44, 80
3, 72176, Note_off_c, 1, 49, 80
3, 72176, Note_off_c, 1, 53, 80
3, 72240, Note_on_c, 1, 44, 82
3, 72240, Note_on_c, 1, 49, 82
3, 72240, Note_on_c, 1, 53, 82
3, 72416, Note_off_c, 1, 44, 80
3, 72416, Note_off_c, 1, 49, 80
3, 72416, Note_off_c, 1, 53, 80
3, 72480, Note_on_c, 1, 44, 82
3, 72480, Note_on_c, 1, 49, 82
3, 72480, Note_on_c, 1, 53, 82
3, 72656, Note_off_c, 1, 44, 80
3, 72656, Note_off_c, 1, 49, 80
3, 72656, Note_off_c, 1, 53, 80
3, 72720, Note_on_c, 1, 44, 82
3, 72720, Note_on_c, 1, 49, 82
3, 72720, Note_on_c, 1, 53, 82
3, 72896, Note_off_c, 1, 44, 80
3, 72896, Note_off_c, 1, 49, 80
3, 72896, Note_off_c, 1, 53, 80
3, 72960, Note_on_c, 1, 44, 82
3, 72960, Note_on_c, 1, 51, 82
3, 73136, Note_off_c, 1, 44, 80
3, 73136, Note_off_c, 1, 51, 80
3, 73200, Note_on_c, 1, 44, 82
3, 73200, Note_on_c, 1, 51, 82
3, 73376, Note_off_c, 1, 44, 80
3, 73376, Note_off_c, 1, 51, 80
3, 73440, Note_on_c, 1, 44, 82
3, 73440, Note_on_c, 1, 51, 82
3, 73616, Note_off_c, 1, 44, 80
3, 73616, Note_off_c, 1, 51, 80
3, 73680, Note_on_c, 1, 44, 82
3, 73680, Note_on_c, 1, 51, 82
3, 73856, Note_off_c, 1, 44, 80
3, 73856, Note_off_c, 1, 51, 80
3, 73920, Note_on_c, 1, 44, 82
3, 73920, Note_on_c, 1, 51, 82
3, 74096, Note_off_c, 1, 44, 80
3, 74096, Note_off_c, 1, 51, 80
3, 74160, Note_on_c, 1, 44, 82
3, 74160, Note_on_c, 1, 51, 82
3, 74336, Note_off_c, 1, 44, 80
3, 74336, Note_off_c, 1, 51, 80
3, 74400, Note_on_c, 1, 44, 82
3, 74400, Note_on_c, 1, 51, 82
3, 74576, Note_off_c, 1, 44, 80
3, 74576, Note_off_c, 1, 51, 80
3, 74640, Note_on_c, 1, 44, 82
3, 74640, Note_on_c, 1, 51, 82
3, 74816, Note_off_c, 1, 44, 80
3, 74816, Note_off_c, 1, 51, 80
3, 74880, Note_on_c, 1, 46, 82
3, 74880, Note_on_c, 1, 51, 82
3, 74880, Note_on_c, 1, 55, 82
3, 75056, Note_off_c, 1, 46, 80
3, 75056, Note_off_c, 1, 51, 80
3, 75056, Note_off_c, 1, 55, 80
3, 75120, Note_on_c, 1, 46, 82
3, 75120, Note_on_c, 1, 51, 82
3, 75120, Note_on_c, 1, 55, 82
3, 75296, Note_off_c, 1, 46, 80
3, 75296, Note_off_c, 1, 51, 80
3, 75296, Note_off_c, 1, 55, 80
3, 75360, Note_on_c, 1, 46, 82
3, 75360, Note_on_c, 1, 51, 82
3, 75360, Note_on_c, 1, 55, 82
3, 75536, Note_off_c, 1, 46, 80
3, 75536, Note_off_c, 1, 51, 80
3, 75536, Note_off_c, 1, 55, 80
3, 75600, Note_on_c, 1, 46, 82
3, 75600, Note_on_c, 1, 51, 82
3, 75600, Note_on_c, 1, 55, 82
3, 75776, Note_off_c, 1, 46, 80
3, 75776, Note_off_c, 1, 51, 80
3, 75776, Note_off_c, 1, 55, 80
3, 75840, Note_on_c, 1, 46, 82
3, 75840, Note_on_c, 1, 51, 82
3, 75840, Note_on_c, 1, 55, 82
3, 76016, Note_off_c, 1, 46, 80
3, 76016, Note_off_c, 1, 51, 80
3, 76016, Note_off_c, 1, 55, 80
3, 76080, Note_on_c, 1, 46, 82
3, 76080, Note_on_c, 1, 51, 82
3, 76080, Note_on_c, 1, 55, 82
3, 76256, Note_off_c, 1, 46, 80
3, 76256, Note_off_c, 1, 51, 80
3, 76256, Note_off_c, 1, 55, 80
3, 76320, Note_on_c, 1, 46, 82
3, 76320, Note_on_c, 1, 51, 82
3, 76320, Note_on_c, 1, 55, 82
3, 76496, Note_off_c, 1, 46, 80
3, 76496, Note_off_c, 1, 51, 80
3, 76496, Note_off_c, 1, 55, 80
3, 76560, Note_on_c, 1, 46, 82
3, 76560, Note_on_c, 1, 51, 82
3, 76560, Note_on_c, 1, 55, 82
3, 76736, Note_off_c, 1, 46, 80
3, 76736, Note_off_c, 1, 51, 80
3, 76736, Note_off_c, 1, 55, 80
3, 76800, Note_on_c, 1, 46, 82
3, 76800, Note_on_c, 1, 51, 82
3, 76800, Note_on_c, 1, 55, 82
3, 76976, Note_off_c, 1, 46, 80
3, 76976, Note_off_c, 1, 51, 80
3, 76976, Note_off_c, 1, 55, 80
3, 77040, Note_on_c, 1, 46, 82
3, 77040, Note_on_c, 1, 51, 82
3, 77040, Note_on_c, 1, 55, 82
3, 77216, Note_off_c, 1, 46, 80
3, 77216, Note_off_c, 1, 51, 80
3, 77216, Note_off_c, 1, 55, 80
3, 77280, Note_on_c, 1, 46, 82
3, 77280, Note_on_c, 1, 51, 82
3, 77280, Note_on_c, 1, 55, 82
3, 77456, Note_off_c, 1, 46, 80
3, 77456, Note_off_c, 1, 51, 80
3, 77456, Note_off_c, 1, 55, 80
3, 77520, Note_on_c, 1, 46, 82
3, 77520, Note_on_c, 1, 51, 82
3, 77520, Note_on_c, 1, 55, 82
3, 77696, Note_off_c, 1, 46, 80
3, 77696, Note_off_c, 1, 51, 80
3, 77696, Note_off_c, 1, 55, 80
3, 77760, Note_on_c, 1, 46, 82
3, 77760, Note_on_c, 1, 51, 82
3, 77760, Note_on_c, 1, 55, 82
3, 77936, Note_off_c, 1, 46, 80
3, 77936, Note_off_c, 1, 51, 80
3, 77936, Note_off_c, 1, 55, 80
3, 78000, Note_on_c, 1, 46, 82
3, 78000, Note_on_c, 1, 51, 82
3, 78000, Note_on_c, 1, 55, 82
3, 78176, Note_off_c, 1, 46, 80
3, 78176, Note_off_c, 1, 51, 80
3, 78176, Note_off_c, 1, 55, 80
3, 78240, Note_on_c, 1, 46, 82
3, 78240, Note_on_c, 1, 51, 82
3, 78240, Note_on_c, 1, 55, 82
3, 78416, Note_off_c, 1, 46, 80
3, 78416, Note_off_c, 1, 51, 80
3, 78416, Note_off_c, 1, 55, 80
3, 78480, Note_on_c, 1, 46, 82
3, 78480, Note_on_c, 1, 51, 82
3, 78480, Note_on_c, 1, 55, 82
3, 78656, Note_off_c, 1, 46, 80
3, 78656, Note_off_c, 1, 51, 80
3, 78656, Note_off_c, 1, 55, 80
3, 78720, Note_on_c, 1, 44, 82
3, 78720, Note_on_c, 1, 51, 82
3, 78896, Note_off_c, 1, 44, 80
3, 78896, Note_off_c, 1, 51, 80
3, 78960, Note_on_c, 1, 44, 82
3, 78960, Note_on_c, 1, 51, 82
3, 79136, Note_off_c, 1, 44, 80
3, 79136, Note_off_c, 1, 51, 80
3, 79200, Note_on_c, 1, 44, 82
3, 79200, Note_on_c, 1, 51, 82
3, 79376, Note_off_c, 1, 44, 80
3, 79376, Note_off_c, 1, 51, 80
3, 79440, Note_on_c, 1, 44, 82
3, 79440, Note_on_c, 1, 51, 82
3, 79616, Note_off_c, 1, 44, 80
3, 79616, Note_off_c, 1, 51, 80
3, 79680, Note_on_c, 1, 44, 82
3, 79680, Note_on_c, 1, 51, 82
3, 79856, Note_off_c, 1, 44, 80
3, 79856, Note_off_c, 1, 51, 80
3, 79920, Note_on_c, 1, 44, 82
3, 79920, Note_on_c, 1, 51, 82
3, 80096, Note_off_c, 1, 44, 80
3, 80096, Note_off_c, 1, 51, 80
3, 80160, Note_on_c, 1, 44, 82
3, 80160, Note_on_c, 1, 51, 82
3, 80336, Note_off_c, 1, 44, 80
3, 80336, Note_off_c, 1, 51, 80
3, 80400, Note_on_c, 1, 44, 82
3, 80400, Note_on_c, 1, 51, 82
3, 80576, Note_off_c, 1, 44, 80
3, 80576, Note_off_c, 1, 51, 80
3, 80640, Note_on_c, 1, 44, 82
3, 80640, Note_on_c, 1, 51, 82
3, 80816, Note_off_c, 1, 44, 80
3, 80816, Note_off_c, 1, 51, 80
3, 80880, Note_on_c, 1, 44, 82
3, 80880, Note_on_c, 1, 51, 82
3, 81056, Note_off_c, 1, 44, 80
3, 81056, Note_off_c, 1, 51, 80
3, 81120, Note_on_c, 1, 44, 82
3, 81120, Note_on_c, 1, 51, 82
3, 81296, Note_off_c, 1, 44, 80
3, 81296, Note_off_c, 1, 51, 80
3, 81360, Note_on_c, 1, 44, 82
3, 81360, Note_on_c, 1, 51, 82
3, 81536, Note_off_c, 1, 44, 80
3, 81536, Note_off_c, 1, 51, 80
3, 81600, Note_on_c, 1, 44, 82
3, 81600, Note_on_c, 1, 51, 82
3, 81776, Note_off_c, 1, 44, 80
3, 81776, Note_off_c, 1, 51, 80
3, 81840, Note_on_c, 1, 44, 82
3, 81840, Note_on_c, 1, 51, 82
3, 82016, Note_off_c, 1, 44, 80
3, 82016, Note_off_c, 1, 51, 80
3, 82080, Note_on_c, 1, 44, 82
3, 82080, Note_on_c, 1, 51, 82
3, 82256, Note_off_c, 1, 44, 80
3, 82256, Note_off_c, 1, 51, 80
3, 82320, Note_on_c, 1, 44, 82
3, 82320, Note_on_c, 1, 51, 82
3, 82496, Note_off_c, 1, 44, 80
3, 82496, Note_off_c, 1, 51, 80
3, 82560, Note_on_c, 1, 44, 82
3, 82560, Note_on_c, 1, 49, 82
3, 82560, Note_on_c, 1, 53, 82
3, 82736, Note_off_c, 1, 44, 80
3, 82736, Note_off_c, 1, 49, 80
3, 82736, Note_off_c, 1, 53, 80
3, 82800, Note_on_c, 1, 44, 82
3, 82800, Note_on_c, 1, 49, 82
3, 82800, Note_on_c, 1, 53, 82
3, 82976, Note_off_c, 1, 44, 80
3, 82976, Note_off_c, 1, 49, 80
3, 82976, Note_off_c, 1, 53, 80
3, 83040, Note_on_c, 1, 44, 82
3, 83040, Note_on_c, 1, 49, 82
3, 83040, Note_on_c, 1, 53, 82
3, 83216, Note_off_c, 1, 44, 80
3, 83216, Note_off_c, 1, 49, 80
3, 83216, Note_off_c, 1, 53, 80
3, 83280, Note_on_c, 1, 44, 82
3, 83280, Note_on_c, 1, 49, 82
3, 83280, Note_on_c, 1, 53, 82
3, 83456, Note_off_c, 1, 44, 80
3, 83456, Note_off_c, 1, 49, 80
3, 83456, Note_off_c, 1, 53, 80
3, 83520, Note_on_c, 1, 44, 82
3, 83520, Note_on_c, 1, 49, 82
3, 83520, Note_on_c, 1, 53, 82
3, 83696, Note_off_c, 1, 44, 80
3, 83696, Note_off_c, 1, 49, 80
3, 83696, Note_off_c, 1, 53, 80
3, 83760, Note_on_c, 1, 44, 82
3, 83760, Note_on_c, 1, 49, 82
3, 83760, Note_on_c, 1, 53, 82
3, 83936, Note_off_c, 1, 44, 80
3, 83936, Note_off_c, 1, 49, 80
3, 83936, Note_off_c, 1, 53, 80
3, 84000, Note_on_c, 1, 44, 82
3, 84000, Note_on_c, 1, 49, 82
3, 84000, Note_on_c, 1, 53, 82
3, 84176, Note_off_c, 1, 44, 80
3, 84176, Note_off_c, 1, 49, 80
3, 84176, Note_off_c, 1, 53, 80
3, 84240, Note_on_c, 1, 44, 82
3, 84240, Note_on_c, 1, 49, 82
3, 84240, Note_on_c, 1, 53, 82
3, 84416, Note_off_c, 1, 44, 80
3, 84416, Note_off_c, 1, 49, 80
3, 84416, Note_off_c, 1, 53, 80
3, 84480, Note_on_c, 1, 44, 82
3, 84480, Note_on_c, 1, 49, 82
3, 84480, Note_on_c, 1, 53, 82
3, 84656, Note_off_c, 1, 44, 80
3, 84656, Note_off_c, 1, 49, 80
3, 84656, Note_off_c, 1, 53, 80
3, 84720, Note_on_c, 1, 44, 82
3, 84720, Note_on_c, 1, 49, 82
3, 84720, Note_on_c, 1, 53, 82
3, 84896, Note_off_c, 1, 44, 80
3, 84896, Note_off_c, 1, 49, 80
3, 84896, Note_off_c, 1, 53, 80
3, 84960, Note_on_c, 1, 44, 82
3, 84960, Note_on_c, 1, 49, 82
3, 84960, Note_on_c, 1, 53, 82
3, 85136, Note_off_c, 1, 44, 80
3, 85136, Note_off_c, 1, 49, 80
3, 85136, Note_off_c, 1, 53, 80
3, 85200, Note_on_c, 1, 44, 82
3, 85200, Note_on_c, 1, 49, 82
3, 85200, Note_on_c, 1, 53, 82
3, 85376, Note_off_c, 1, 44, 80
3, 85376, Note_off_c, 1, 49, 80
3, 85376, Note_off_c, 1, 53, 80
3, 85440, Note_on_c, 1, 44, 82
3, 85440, Note_on_c, 1, 49, 82
3, 85440, Note_on_c, 1, 53, 82
3, 85616, Note_off_c, 1, 44, 80
3, 85616, Note_off_c, 1, 49, 80
3, 85616, Note_off_c, 1, 53, 80
3, 85680, Note_on_c, 1, 44, 82
3, 85680, Note_on_c, 1, 49, 82
3, 85680, Note_on_c, 1, 53, 82
3, 85856, Note_off_c, 1, 44, 80
3, 85856, Note_off_c, 1, 49, 80
3, 85856, Note_off_c, 1, 53, 80
3, 85920, Note_on_c, 1, 44, 82
3, 85920, Note_on_c, 1, 49, 82
3, 85920, Note_on_c, 1, 53, 82
3, 86096, Note_off_c, 1, 44, 80
3, 86096, Note_off_c, 1, 49, 80
3, 86096, Note_off_c, 1, 53, 80
3, 86160, Note_on_c, 1, 44, 82
3, 86160, Note_on_c, 1, 49, 82
3, 86160, Note_on_c, 1, 53, 82
3, 86336, Note_off_c, 1, 44, 80
3, 86336, Note_off_c, 1, 49, 80
3, 86336, Note_off_c, 1, 53, 80
3, 86400, Note_on_c, 1, 44, 82
3, 86400, Note_on_c, 1, 51, 82
3, 86576, Note_off_c, 1, 44, 80
3, 86576, Note_off_c, 1, 51, 80
3, 86640, Note_on_c, 1, 44, 82
3, 86640, Note_on_c, 1, 51, 82
3, 86816, Note_off_c, 1, 44, 80
3, 86816, Note_off_c, 1, 51, 80
3, 86880, Note_on_c, 1, 44, 82
3, 86880, Note_on_c, 1, 51, 82
3, 87056, Note_off_c, 1, 44, 80
3, 87056, Note_off_c, 1, 51, 80
3, 87120, Note_on_c, 1, 44, 82
3, 87120, Note_on_c, 1, 51, 82
3, 87296, Note_off_c, 1, 44, 80
3, 87296, Note_off_c, 1, 51, 80
3, 87360, Note_on_c, 1, 44, 82
3, 87360, Note_on_c, 1, 51, 82
3, 87536, Note_off_c, 1, 44, 80
3, 87536, Note_off_c, 1, 51, 80
3, 87600, Note_on_c, 1, 44, 82
3, 87600, Note_on_c, 1, 51, 82
3, 87776, Note_off_c, 1, 44, 80
3, 87776, Note_off_c, 1, 51, 80
3, 87840, Note_on_c, 1, 44, 82
3, 87840, Note_on_c, 1, 51, 82
3, 88016, Note_off_c, 1, 44, 80
3, 88016, Note_off_c, 1, 51, 80
3, 88080, Note_on_c, 1, 44, 82
3, 88080, Note_on_c, 1, 51, 82
3, 88256, Note_off_c, 1, 44, 80
3, 88256, Note_off_c, 1, 51, 80
3, 88320, Note_on_c, 1, 44, 82
3, 88320, Note_on_c, 1, 51, 82
3, 88496, Note_off_c, 1, 44, 80
3, 88496, Note_off_c, 1, 51, 80
3, 88560, Note_on_c, 1, 44, 82
3, 88560, Note_on_c, 1, 51, 82
3, 88736, Note_off_c, 1, 44, 80
3, 88736, Note_off_c, 1, 51, 80
3, 88800, Note_on_c, 1, 44, 82
3, 88800, Note_on_c, 1, 51, 82
3, 88976, Note_off_c, 1, 44, 80
3, 88976, Note_off_c, 1, 51, 80
3, 89040, Note_on_c, 1, 44, 82
3, 89040, Note_on_c, 1, 51, 82
3, 89216, Note_off_c, 1, 44, 80
3, 89216, Note_off_c, 1, 51, 80
3, 89280, Note_on_c, 1, 44, 82
3, 89280, Note_on_c, 1, 51, 82
3, 89456, Note_off_c, 1, 44, 80
3, 89456, Note_off_c, 1, 51, 80
3, 89520, Note_on_c, 1, 44, 82
3, 89520, Note_on_c, 1, 51, 82
3, 89696, Note_off_c, 1, 44, 80
3, 89696, Note_off_c, 1, 51, 80
3, 89760, Note_on_c, 1, 44, 82
3, 89760, Note_on_c, 1, 51, 82
3, 89936, Note_off_c, 1, 44, 80
3, 89936, Note_off_c, 1, 51, 80
3, 90000, Note_on_c, 1, 44, 82
3, 90000, Note_on_c, 1, 51, 82
3, 90176, Note_off_c, 1, 44, 80
3, 90176, Note_off_c, 1, 51, 80
3, 90240, Note_on_c, 1, 44, 82
3, 90240, Note_on_c, 1, 49, 82
3, 90240, Note_on_c, 1, 53, 82
3, 90416, Note_off_c, 1, 44, 80
3, 90416, Note_off_c, 1, 49, 80
3, 90416, Note_off_c, 1, 53, 80
3, 90480, Note_on_c, 1, 44, 82
3, 90480, Note_on_c, 1, 49, 82
3, 90480, Note_on_c, 1, 53, 82
3, 90656, Note_off_c, 1, 44, 80
3, 90656, Note_off_c, 1, 49, 80
3, 90656, Note_off_c, 1, 53, 80
3, 90720, Note_on_c, 1, 44, 82
3, 90720, Note_on_c, 1, 49, 82
3, 90720, Note_on_c, 1, 53, 82
3, 90896, Note_off_c, 1, 44, 80
3, 90896, Note_off_c, 1, 49, 80
3, 90896, Note_off_c, 1, 53, 80
3, 90960, Note_on_c, 1, 44, 82
3, 90960, Note_on_c, 1, 49, 82
3, 90960, Note_on_c, 1, 53, 82
3, 91136, Note_off_c, 1, 44, 80
3, 91136, Note_off_c, 1, 49, 80
3, 91136, Note_off_c, 1, 53, 80
3, 91200, Note_on_c, 1, 44, 82
3, 91200, Note_on_c, 1, 49, 82
3, 91200, Note_on_c, 1, 53, 82
3, 91376, Note_off_c, 1, 44, 80
3, 91376, Note_off_c, 1, 49, 80
3, 91376, Note_off_c, 1, 53, 80
3, 91440, Note_on_c, 1, 44, 82
3, 91440, Note_on_c, 1, 49, 82
3, 91440, Note_on_c, 1, 53, 82
3, 91616, Note_off_c, 1, 44, 80
3, 91616, Note_off_c, 1, 49, 80
3, 91616, Note_off_c, 1, 53, 80
3, 91680, Note_on_c, 1, 44, 82
3, 91680, Note_on_c, 1, 49, 82
3, 91680, Note_on_c, 1, 53, 82
3, 91856, Note_off_c, 1, 44, 80
3, 91856, Note_off_c, 1, 49, 80
3, 91856, Note_off_c, 1, 53, 80
3, 91920, Note_on_c, 1, 44, 82
3, 91920, Note_on_c, 1, 49, 82
3, 91920, Note_on_c, 1, 53, 82
3, 92096, Note_off_c, 1, 44, 80
3, 92096, Note_off_c, 1, 49, 80
3, 92096, Note_off_c, 1, 53, 80
3, 92160, Note_on_c, 1, 44, 82
3, 92160, Note_on_c, 1, 49, 82
3, 92160, Note_on_c, 1, 53, 82
3, 92336, Note_off_c, 1, 44, 80
3, 92336, Note_off_c, 1, 49, 80
3, 92336, Note_off_c, 1, 53, 80
3, 92400, Note_on_c, 1, 44, 82
3, 92400, Note_on_c, 1, 49, 82
3, 92400, Note_on_c, 1, 53, 82
3, 92576, Note_off_c, 1, 44, 80
3, 92576, Note_off_c, 1, 49, 80
3, 92576, Note_off_c, 1, 53, 80
3, 92640, Note_on_c, 1, 44, 82
3, 92640, Note_on_c, 1, 49, 82
3, 92640, Note_on_c, 1, 53, 82
3, 92816, Note_off_c, 1, 44, 80
3, 92816, Note_off_c, 1, 49, 80
3, 92816, Note_off_c, 1, 53, 80
3, 92880, Note_on_c, 1, 44, 82
3, 92880, Note_on_c, 1, 49, 82
3, 92880, Note_on_c, 1, 53, 82
3, 93056, Note_off_c, 1, 44, 80
3, 93056, Note_off_c, 1, 49, 80
3, 93056, Note_off_c, 1, 53, 80
3, 93120, Note_on_c, 1, 44, 82
3, 93120, Note_on_c, 1, 49, 82
3, 93120, Note_on_c, 1, 53, 82
3, 93296, Note_off_c, 1, 44, 80
3, 93296, Note_off_c, 1, 49, 80
3, 93296, Note_off_c, 1, 53, 80
3, 93360, Note_on_c, 1, 44, 82
3, 93360, Note_on_c, 1, 49, 82
3, 93360, Note_on_c, 1, 53, 82
3, 93536, Note_off_c, 1, 44, 80
3, 93536, Note_off_c, 1, 49, 80
3, 93536, Note_off_c, 1, 53, 80
3, 93600, Note_on_c, 1, 44, 82
3, 93600, Note_on_c, 1, 49, 82
3, 93600, Note_on_c, 1, 53, 82
3, 93776, Note_off_c, 1, 44, 80
3, 93776, Note_off_c, 1, 49, 80
3, 93776, Note_off_c, 1, 53, 80
3, 93840, Note_on_c, 1, 44, 82
3, 93840, Note_on_c, 1, 49, 82
3, 93840, Note_on_c, 1, 53, 82
3, 94016, Note_off_c, 1, 44, 80
3, 94016, Note_off_c, 1, 49, 80
3, 94016, Note_off_c, 1, 53, 80
3, 94080, Note_on_c, 1, 44, 82
3, 94080, Note_on_c, 1, 51, 82
3, 94256, Note_off_c, 1, 44, 80
3, 94256, Note_off_c, 1, 51, 80
3, 94320, Note_on_c, 1, 44, 82
3, 94320, Note_on_c, 1, 51, 82
3, 94496, Note_off_c, 1, 44, 80
3, 94496, Note_off_c, 1, 51, 80
3, 94560, Note_on_c, 1, 44, 82
3, 94560, Note_on_c, 1, 51, 82
3, 94736, Note_off_c, 1, 44, 80
3, 94736, Note_off_c, 1, 51, 80
3, 94800, Note_on_c, 1, 44, 82
3, 94800, Note_on_c, 1, 51, 82
3, 94976, Note_off_c, 1, 44, 80
3, 94976, Note_off_c, 1, 51, 80
3, 95040, Note_on_c, 1, 44, 82
3, 95040, Note_on_c, 1, 51, 82
3, 95216, Note_off_c, 1, 44, 80
3, 95216, Note_off_c, 1, 51, 80
3, 95280, Note_on_c, 1, 44, 82
3, 95280, Note_on_c, 1, 51, 82
3, 95456, Note_off_c, 1, 44, 80
3, 95456, Note_off_c, 1, 51, 80
3, 95520, Note_on_c, 1, 44, 82
3, 95520, Note_on_c, 1, 51, 82
3, 95696, Note_off_c, 1, 44, 80
3, 95696, Note_off_c, 1, 51, 80
3, 95760, Note_on_c, 1, 44, 82
3, 95760, Note_on_c, 1, 51, 82
3, 95936, Note_off_c, 1, 44, 80
3, 95936, Note_off_c, 1, 51, 80
3, 96000, Note_on_c, 1, 44, 82
3, 96000, Note_on_c, 1, 51, 82
3, 96176, Note_off_c, 1, 44, 80
3, 96176, Note_off_c, 1, 51, 80
3, 96240, Note_on_c, 1, 44, 82
3, 96240, Note_on_c, 1, 51, 82
3, 96416, Note_off_c, 1, 44, 80
3, 96416, Note_off_c, 1, 51, 80
3, 96480, Note_on_c, 1, 44, 82
3, 96480, Note_on_c, 1, 51, 82
3, 96656, Note_off_c, 1, 44, 80
3, 96656, Note_off_c, 1, 51, 80
3, 96720, Note_on_c, 1, 44, 82
3, 96720, Note_on_c, 1, 51, 82
3, 96896, Note_off_c, 1, 44, 80
3, 96896, Note_off_c, 1, 51, 80
3, 96960, Note_on_c, 1, 44, 82
3, 96960, Note_on_c, 1, 51, 82
3, 97136, Note_off_c, 1, 44, 80
3, 97136, Note_off_c, 1, 51, 80
3, 97200, Note_on_c, 1, 44, 82
3, 97200, Note_on_c, 1, 51, 82
3, 97376, Note_off_c, 1, 44, 80
3, 97376, Note_off_c, 1, 51, 80
3, 97440, Note_on_c, 1, 44, 82
3, 97440, Note_on_c, 1, 51, 82
3, 97616, Note_off_c, 1, 44, 80
3, 97616, Note_off_c, 1, 51, 80
3, 97680, Note_on_c, 1, 44, 82
3, 97680, Note_on_c, 1, 51, 82
3, 97856, Note_off_c, 1, 44, 80
3, 97856, Note_off_c, 1, 51, 80
3, 97920, Note_on_c, 1, 44, 82
3, 97920, Note_on_c, 1, 49, 82
3, 97920, Note_on_c, 1, 53, 82
3, 98096, Note_off_c, 1, 44, 80
3, 98096, Note_off_c, 1, 49, 80
3, 98096, Note_off_c, 1, 53, 80
3, 98160, Note_on_c, 1, 44, 82
3, 98160, Note_on_c, 1, 49, 82
3, 98160, Note_on_c, 1, 53, 82
3, 98336, Note_off_c, 1, 44, 80
3, 98336, Note_off_c, 1, 49, 80
3, 98336, Note_off_c, 1, 53, 80
3, 98400, Note_on_c, 1, 44, 82
3, 98400, Note_on_c, 1, 49, 82
3, 98400, Note_on_c, 1, 53, 82
3, 98576, Note_off_c, 1, 44, 80
3, 98576, Note_off_c, 1, 49, 80
3, 98576, Note_off_c, 1, 53, 80
3, 98640, Note_on_c, 1, 44, 82
3, 98640, Note_on_c, 1, 49, 82
3, 98640, Note_on_c, 1, 53, 82
3, 98816, Note_off_c, 1, 44, 80
3, 98816, Note_off_c, 1, 49, 80
3, 98816, Note_off_c, 1, 53, 80
3, 98880, Note_on_c, 1, 44, 82
3, 98880, Note_on_c, 1, 49, 82
3, 98880, Note_on_c, 1, 53, 82
3, 99056, Note_off_c, 1, 44, 80
3, 99056, Note_off_c, 1, 49, 80
3, 99056, Note_off_c, 1, 53, 80
3, 99120, Note_on_c, 1, 44, 82
3, 99120, Note_on_c, 1, 49, 82
3, 99120, Note_on_c, 1, 53, 82
3, 99296, Note_off_c, 1, 44, 80
3, 99296, Note_off_c, 1, 49, 80
3, 99296, Note_off_c, 1, 53, 80
3, 99360, Note_on_c, 1, 44, 82
3, 99360, Note_on_c, 1, 49, 82
3, 99360, Note_on_c, 1, 53, 82
3, 99536, Note_off_c, 1, 44, 80
3, 99536, Note_off_c, 1, 49, 80
3, 99536, Note_off_c, 1, 53, 80
3, 99600, Note_on_c, 1, 44, 82
3, 99600, Note_on_c, 1, 49, 82
3, 99600, Note_on_c, 1, 53, 82
3, 99776, Note_off_c, 1, 44, 80
3, 99776, Note_off_c, 1, 49, 80
3, 99776, Note_off_c, 1, 53, 80
3, 99840, Note_on_c, 1, 44, 82
3, 99840, Note_on_c, 1, 49, 82
3, 99840, Note_on_c, 1, 53, 82
3, 100016, Note_off_c, 1, 44, 80
3, 100016, Note_off_c, 1, 49, 80
3, 100016, Note_off_c, 1, 53, 80
3, 100080, Note_on_c, 1, 44, 82
3, 100080, Note_on_c, 1, 49, 82
3, 100080, Note_on_c, 1, 53, 82
3, 100256, Note_off_c, 1, 44, 80
3, 100256, Note_off_c, 1, 49, 80
3, 100256, Note_off_c, 1, 53, 80
3, 100320, Note_on_c, 1, 44, 82
3, 100320, Note_on_c, 1, 49, 82
3, 100320, Note_on_c, 1, 53, 82
3, 100496, Note_off_c, 1, 44, 80
3, 100496, Note_off_c, 1, 49, 80
3, 100496, Note_off_c, 1, 53, 80
3, 100560, Note_on_c, 1, 44, 82
3, 100560, Note_on_c, 1, 49, 82
3, 100560, Note_on_c, 1, 53, 82
3, 100736, Note_off_c, 1, 44, 80
3, 100736, Note_off_c, 1, 49, 80
3, 100736, Note_off_c, 1, 53, 80
3, 100800, Note_on_c, 1, 44, 82
3, 100800, Note_on_c, 1, 49, 82
3, 100800, Note_on_c, 1, 53, 82
3, 100976, Note_off_c, 1, 44, 80
3, 100976, Note_off_c, 1, 49, 80
3, 100976, Note_off_c, 1, 53, 80
3, 101040, Note_on_c, 1, 44, 82
3, 101040, Note_on_c, 1, 49, 82
3, 101040, Note_on_c, 1, 53, 82
3, 101216, Note_off_c, 1, 44, 80
3, 101216, Note_off_c, 1, 49, 80
3, 101216, Note_off_c, 1, 53, 80
3, 101280, Note_on_c, 1, 44, 82
3, 101280, Note_on_c, 1, 49, 82
3, 101280, Note_on_c, 1, 53, 82
3, 101456, Note_off_c, 1, 44, 80
3, 101456, Note_off_c, 1, 49, 80
3, 101456, Note_off_c, 1, 53, 80
3, 101520, Note_on_c, 1, 44, 82
3, 101520, Note_on_c, 1, 49, 82
3, 101520, Note_on_c, 1, 53, 82
3, 101696, Note_off_c, 1, 44, 80
3, 101696, Note_off_c, 1, 49, 80
3, 101696, Note_off_c, 1, 53, 80
3, 101760, Note_on_c, 1, 44, 82
3, 101760, Note_on_c, 1, 51, 82
3, 101936, Note_off_c, 1, 44, 80
3, 101936, Note_off_c, 1, 51, 80
3, 102000, Note_on_c, 1, 44, 82
3, 102000, Note_on_c, 1, 51, 82
3, 102176, Note_off_c, 1, 44, 80
3, 102176, Note_off_c, 1, 51, 80
3, 102240, Note_on_c, 1, 44, 82
3, 102240, Note_on_c, 1, 51, 82
3, 102416, Note_off_c, 1, 44, 80
3, 102416, Note_off_c, 1, 51, 80
3, 102480, Note_on_c, 1, 44, 82
3, 102480, Note_on_c, 1, 51, 82
3, 102656, Note_off_c, 1, 44, 80
3, 102656, Note_off_c, 1, 51, 80
3, 102720, Note_on_c, 1, 44, 82
3, 102720, Note_on_c, 1, 51, 82
3, 102896, Note_off_c, 1, 44, 80
3, 102896, Note_off_c, 1, 51, 80
3, 102960, Note_on_c, 1, 44, 82
3, 102960, Note_on_c, 1, 51, 82
3, 103136, Note_off_c, 1, 44, 80
3, 103136, Note_off_c, 1, 51, 80
3, 103200, Note_on_c, 1, 44, 82
3, 103200, Note_on_c, 1, 51, 82
3, 103376, Note_off_c, 1, 44, 80
3, 103376, Note_off_c, 1, 51, 80
3, 103440, Note_on_c, 1, 44, 82
3, 103440, Note_on_c, 1, 51, 82
3, 103616, Note_off_c, 1, 44, 80
3, 103616, Note_off_c, 1, 51, 80
3, 103680, Note_on_c, 1, 44, 82
3, 103680, Note_on_c, 1, 51, 82
3, 103856, Note_off_c, 1, 44, 80
3, 103856, Note_off_c, 1, 51, 80
3, 103920, Note_on_c, 1, 44, 82
3, 103920, Note_on_c, 1, 51, 82
3, 104096, Note_off_c, 1, 44, 80
3, 104096, Note_off_c, 1, 51, 80
3, 104160, Note_on_c, 1, 44, 82
3, 104160, Note_on_c, 1, 51, 82
3, 104336, Note_off_c, 1, 44, 80
3, 104336, Note_off_c, 1, 51, 80
3, 104400, Note_on_c, 1, 44, 82
3, 104400, Note_on_c, 1, 51, 82
3, 104576, Note_off_c, 1, 44, 80
3, 104576, Note_off_c, 1, 51, 80
3, 104640, Note_on_c, 1, 44, 82
3, 104640, Note_on_c, 1, 51, 82
3, 104816, Note_off_c, 1, 44, 80
3, 104816, Note_off_c, 1, 51, 80
3, 104880, Note_on_c, 1, 44, 82
3, 104880, Note_on_c, 1, 51, 82
3, 105056, Note_off_c, 1, 44, 80
3, 105056, Note_off_c, 1, 51, 80
3, 105120, Note_on_c, 1, 44, 82
3, 105120, Note_on_c, 1, 51, 82
3, 105296, Note_off_c, 1, 44, 80
3, 105296, Note_off_c, 1, 51, 80
3, 105360, Note_on_c, 1, 44, 82
3, 105360, Note_on_c, 1, 51, 82
3, 105536, Note_off_c, 1, 44, 80
3, 105536, Note_off_c, 1, 51, 80
3, 105600, Note_on_c, 1, 44, 82
3, 105600, Note_on_c, 1, 49, 82
3, 105600, Note_on_c, 1, 53, 82
3, 105776, Note_off_c, 1, 44, 80
3, 105776, Note_off_c, 1, 49, 80
3, 105776, Note_off_c, 1, 53, 80
3, 105840, Note_on_c, 1, 44, 82
3, 105840, Note_on_c, 1, 49, 82
3, 105840, Note_on_c, 1, 53, 82
3, 106016, Note_off_c, 1, 44, 80
3, 106016, Note_off_c, 1, 49, 80
3, 106016, Note_off_c, 1, 53, 80
3, 106080, Note_on_c, 1, 44, 82
3, 106080, Note_on_c, 1, 49, 82
3, 106080, Note_on_c, 1, 53, 82
3, 106256, Note_off_c, 1, 44, 80
3, 106256, Note_off_c, 1, 49, 80
3, 106256, Note_off_c, 1, 53, 80
3, 106320, Note_on_c, 1, 44, 82
3, 106320, Note_on_c, 1, 49, 82
3, 106320, Note_on_c, 1, 53, 82
3, 106496, Note_off_c, 1, 44, 80
3, 106496, Note_off_c, 1, 49, 80
3, 106496, Note_off_c, 1, 53, 80
3, 106560, Note_on_c, 1, 44, 82
3, 106560, Note_on_c, 1, 49, 82
3, 106560, Note_on_c, 1, 53, 82
3, 106736, Note_off_c, 1, 44, 80
3, 106736, Note_off_c, 1, 49, 80
3, 106736, Note_off_c, 1, 53, 80
3, 106800, Note_on_c, 1, 44, 82
3, 106800, Note_on_c, 1, 49, 82
3, 106800, Note_on_c, 1, 53, 82
3, 106976, Note_off_c, 1, 44, 80
3, 106976, Note_off_c, 1, 49, 80
3, 106976, Note_off_c, 1, 53, 80
3, 107040, Note_on_c, 1, 44, 82
3, 107040, Note_on_c, 1, 49, 82
3, 107040, Note_on_c, 1, 53, 82
3, 107216, Note_off_c, 1, 44, 80
3, 107216, Note_off_c, 1, 49, 80
3, 107216, Note_off_c, 1, 53, 80
3, 107280, Note_on_c, 1, 44, 82
3, 107280, Note_on_c, 1, 49, 82
3, 107280, Note_on_c, 1, 53, 82
3, 107456, Note_off_c, 1, 44, 80
3, 107456, Note_off_c, 1, 49, 80
3, 107456, Note_off_c, 1, 53, 80
3, 107520, Note_on_c, 1, 44, 82
3, 107520, Note_on_c, 1, 49, 82
3, 107520, Note_on_c, 1, 53, 82
3, 107696, Note_off_c, 1, 44, 80
3, 107696, Note_off_c, 1, 49, 80
3, 107696, Note_off_c, 1, 53, 80
3, 107760, Note_on_c, 1, 44, 82
3, 107760, Note_on_c, 1, 49, 82
3, 107760, Note_on_c, 1, 53, 82
3, 107936, Note_off_c, 1, 44, 80
3, 107936, Note_off_c, 1, 49, 80
3, 107936, Note_off_c, 1, 53, 80
3, 108000, Note_on_c, 1, 44, 82
3, 108000, Note_on_c, 1, 49, 82
3, 108000, Note_on_c, 1, 53, 82
3, 108176, Note_off_c, 1, 44, 80
3, 108176, Note_off_c, 1, 49, 80
3, 108176, Note_off_c, 1, 53, 80
3, 108240, Note_on_c, 1, 44, 82
3, 108240, Note_on_c, 1, 49, 82
3, 108240, Note_on_c, 1, 53, 82
3, 108416, Note_off_c, 1, 44, 80
3, 108416, Note_off_c, 1, 49, 80
3, 108416, Note_off_c, 1, 53, 80
3, 108480, Note_on_c, 1, 44, 82
3, 108480, Note_on_c, 1, 49, 82
3, 108480, Note_on_c, 1, 53, 82
3, 108656, Note_off_c, 1, 44, 80
3, 108656, Note_off_c, 1, 49, 80
3, 108656, Note_off_c, 1, 53, 80
3, 108720, Note_on_c, 1, 44, 82
3, 108720, Note_on_c, 1, 49, 82
3, 108720, Note_on_c, 1, 53, 82
3, 108896, Note_off_c, 1, 44, 80
3, 108896, Note_off_c, 1, 49, 80
3, 108896, Note_off_c, 1, 53, 80
3, 108960, Note_on_c, 1, 44, 82
3, 108960, Note_on_c, 1, 49, 82
3, 108960, Note_on_c, 1, 53, 82
3, 109136, Note_off_c, 1, 44, 80
3, 109136, Note_off_c, 1, 49, 80
3, 109136, Note_off_c, 1, 53, 80
3, 109200, Note_on_c, 1, 44, 82
3, 109200, Note_on_c, 1, 49, 82
3, 109200, Note_on_c, 1, 53, 82
3, 109376, Note_off_c, 1, 44, 80
3, 109376, Note_off_c, 1, 49, 80
3, 109376, Note_off_c, 1, 53, 80
3, 109440, Note_on_c, 1, 44, 82
3, 109440, Note_on_c, 1, 51, 82
3, 109616, Note_off_c, 1, 44, 80
3, 109616, Note_off_c, 1, 51, 80
3, 109680, Note_on_c, 1, 44, 82
3, 109680, Note_on_c, 1, 51, 82
3, 109856, Note_off_c, 1, 44, 80
3, 109856, Note_off_c, 1, 51, 80
3, 109920, Note_on_c, 1, 44, 82
3, 109920, Note_on_c, 1, 51, 82
3, 110096, Note_off_c, 1, 44, 80
3, 110096, Note_off_c, 1, 51, 80
3, 110160, Note_on_c, 1, 44, 82
3, 110160, Note_on_c, 1, 51, 82
3, 110336, Note_off_c, 1, 44, 80
3, 110336, Note_off_c, 1, 51, 80
3, 110400, Note_on_c, 1, 44, 82
3, 110400, Note_on_c, 1, 51, 82
3, 110576, Note_off_c, 1, 44, 80
3, 110576, Note_off_c, 1, 51, 80
3, 110640, Note_on_c, 1, 44, 82
3, 110640, Note_on_c, 1, 51, 82
3, 110816, Note_off_c, 1, 44, 80
3, 110816, Note_off_c, 1, 51, 80
3, 110880, Note_on_c, 1, 44, 82
3, 110880, Note_on_c, 1, 51, 82
3, 111056, Note_off_c, 1, 44, 80
3, 111056, Note_off_c, 1, 51, 80
3, 111120, Note_on_c, 1, 44, 82
3, 111120, Note_on_c, 1, 51, 82
3, 111296, Note_off_c, 1, 44, 80
3, 111296, Note_off_c, 1, 51, 80
3, 111360, Note_on_c, 1, 44, 82
3, 111360, Note_on_c, 1, 51, 82
3, 111536, Note_off_c, 1, 44, 80
3, 111536, Note_off_c, 1, 51, 80
3, 111600, Note_on_c, 1, 44, 82
3, 111600, Note_on_c, 1, 51, 82
3, 111776, Note_off_c, 1, 44, 80
3, 111776, Note_off_c, 1, 51, 80
3, 111840, Note_on_c, 1, 44, 82
3, 111840, Note_on_c, 1, 51, 82
3, 112016, Note_off_c, 1, 44, 80
3, 112016, Note_off_c, 1, 51, 80
3, 112080, Note_on_c, 1, 44, 82
3, 112080, Note_on_c, 1, 51, 82
3, 112256, Note_off_c, 1, 44, 80
3, 112256, Note_off_c, 1, 51, 80
3, 112320, Note_on_c, 1, 44, 82
3, 112320, Note_on_c, 1, 51, 82
3, 112496, Note_off_c, 1, 44, 80
3, 112496, Note_off_c, 1, 51, 80
3, 112560, Note_on_c, 1, 44, 82
3, 112560, Note_on_c, 1, 51, 82
3, 112736, Note_off_c, 1, 44, 80
3, 112736, Note_off_c, 1, 51, 80
3, 112800, Note_on_c, 1, 44, 82
3, 112800, Note_on_c, 1, 51, 82
3, 112976, Note_off_c, 1, 44, 80
3, 112976, Note_off_c, 1, 51, 80
3, 113040, Note_on_c, 1, 44, 82
3, 113040, Note_on_c, 1, 51, 82
3, 113216, Note_off_c, 1, 44, 80
3, 113216, Note_off_c, 1, 51, 80
3, 113280, Note_on_c, 1, 46, 82
3, 113280, Note_on_c, 1, 51, 82
3, 113280, Note_on_c, 1, 55, 82
3, 113456, Note_off_c, 1, 46, 80
3, 113456, Note_off_c, 1, 51, 80
3, 113456, Note_off_c, 1, 55, 80
3, 113520, Note_on_c, 1, 46, 82
3, 113520, Note_on_c, 1, 51, 82
3, 113520, Note_on_c, 1, 55, 82
3, 113696, Note_off_c, 1, 46, 80
3, 113696, Note_off_c, 1, 51, 80
3, 113696, Note_off_c, 1, 55, 80
3, 113760, Note_on_c, 1, 46, 82
3, 113760, Note_on_c, 1, 51, 82
3, 113760, Note_on_c, 1, 55, 82
3, 113936, Note_off_c, 1, 46, 80
3, 113936, Note_off_c, 1, 51, 80
3, 113936, Note_off_c, 1, 55, 80
3, 114000, Note_on_c, 1, 46, 82
3, 114000, Note_on_c, 1, 51, 82
3, 114000, Note_on_c, 1, 55, 82
3, 114176, Note_off_c, 1, 46, 80
3, 114176, Note_off_c, 1, 51, 80
3, 114176, Note_off_c, 1, 55, 80
3, 114240, Note_on_c, 1, 46, 82
3, 114240, Note_on_c, 1, 51, 82
3, 114240, Note_on_c, 1, 55, 82
3, 114416, Note_off_c, 1, 46, 80
3, 114416, Note_off_c, 1, 51, 80
3, 114416, Note_off_c, 1, 55, 80
3, 114480, Note_on_c, 1, 46, 82
3, 114480, Note_on_c, 1, 51, 82
3, 114480, Note_on_c, 1, 55, 82
3, 114656, Note_off_c, 1, 46, 80
3, 114656, Note_off_c, 1, 51, 80
3, 114656, Note_off_c, 1, 55, 80
3, 114720, Note_on_c, 1, 46, 82
3, 114720, Note_on_c, 1, 51, 82
3, 114720, Note_on_c, 1, 55, 82
3, 114896, Note_off_c, 1, 46, 80
3, 114896, Note_off_c, 1, 51, 80
3, 114896, Note_off_c, 1, 55, 80
3, 114960, Note_on_c, 1, 46, 82
3, 114960, Note_on_c, 1, 51, 82
3, 114960, Note_on_c, 1, 55, 82
3, 115136, Note_off_c, 1, 46, 80
3, 115136, Note_off_c, 1, 51, 80
3, 115136, Note_off_c, 1, 55, 80
3, 115200, Note_on_c, 1, 46, 82
3, 115200, Note_on_c, 1, 51, 82
3, 115200, Note_on_c, 1, 55, 82
3, 115376, Note_off_c, 1, 46, 80
3, 115376, Note_off_c, 1, 51, 80
3, 115376, Note_off_c, 1, 55, 80
3, 115440, Note_on_c, 1, 46, 82
3, 115440, Note_on_c, 1, 51, 82
3, 115440, Note_on_c, 1, 55, 82
3, 115616, Note_off_c, 1, 46, 80
3, 115616, Note_off_c, 1, 51, 80
3, 115616, Note_off_c, 1, 55, 80
3, 115680, Note_on_c, 1, 46, 82
3, 115680, Note_on_c, 1, 51, 82
3, 115680, Note_on_c, 1, 55, 82
3, 115856, Note_off_c, 1, 46, 80
3, 115856, Note_off_c, 1, 51, 80
3, 115856, Note_off_c, 1, 55, 80
3, 115920, Note_on_c, 1, 46, 82
3, 115920, Note_on_c, 1, 51, 82
3, 115920, Note_on_c, 1, 55, 82
3, 116096, Note_off_c, 1, 46, 80
3, 116096, Note_off_c, 1, 51, 80
3, 116096, Note_off_c, 1, 55, 80
3, 116160, Note_on_c, 1, 46, 82
3, 116160, Note_on_c, 1, 51, 82
3, 116160, Note_on_c, 1, 55, 82
3, 116336, Note_off_c, 1, 46, 80
3, 116336, Note_off_c, 1, 51, 80
3, 116336, Note_off_c, 1, 55, 80
3, 116400, Note_on_c, 1, 46, 82
3, 116400, Note_on_c, 1, 51, 82
3, 116400, Note_on_c, 1, 55, 82
3, 116576, Note_off_c, 1, 46, 80
3, 116576, Note_off_c, 1, 51, 80
3, 116576, Note_off_c, 1, 55, 80
3, 116640, Note_on_c, 1, 46, 82
3, 116640, Note_on_c, 1, 51, 82
3, 116640, Note_on_c, 1, 55, 82
3, 116816, Note_off_c, 1, 46, 80
3, 116816, Note_off_c, 1, 51, 80
3, 116816, Note_off_c, 1, 55, 80
3, 116880, Note_on_c, 1, 46, 82
3, 116880, Note_on_c, 1, 51, 82
3, 116880, Note_on_c, 1, 55, 82
3, 117056, Note_off_c, 1, 46, 80
3, 117056, Note_off_c, 1, 51, 80
3, 117056, Note_off_c, 1, 55, 80
3, 117120, Note_on_c, 1, 42, 82
3, 117120, Note_on_c, 1, 49, 82
3, 117296, Note_off_c, 1, 42, 80
3, 117296, Note_off_c, 1, 49, 80
3, 117360, Note_on_c, 1, 42, 82
3, 117360, Note_on_c, 1, 49, 82
3, 117536, Note_off_c, 1, 42, 80
3, 117536, Note_off_c, 1, 49, 80
3, 117600, Note_on_c, 1, 42, 82
3, 117600, Note_on_c, 1, 49, 82
3, 117776, Note_off_c, 1, 42, 80
3, 117776, Note_off_c, 1, 49, 80
3, 117840, Note_on_c, 1, 42, 82
3, 117840, Note_on_c, 1, 49, 82
3, 118016, Note_off_c, 1, 42, 80
3, 118016, Note_off_c, 1, 49, 80
3, 118080, Note_on_c, 1, 42, 82
3, 118080, Note_on_c, 1, 49, 82
3, 118256, Note_off_c, 1, 42, 80
3, 118256, Note_off_c, 1, 49, 80
3, 118320, Note_on_c, 1, 42, 82
3, 118320, Note_on_c, 1, 49, 82
3, 118496, Note_off_c, 1, 42, 80
3, 118496, Note_off_c, 1, 49, 80
3, 118560, Note_on_c, 1, 42, 82
3, 118560, Note_on_c, 1, 49, 82
3, 118736, Note_off_c, 1, 42, 80
3, 118736, Note_off_c, 1, 49, 80
3, 118800, Note_on_c, 1, 42, 82
3, 118800, Note_on_c, 1, 49, 82
3, 118976, Note_off_c, 1, 42, 80
3, 118976, Note_off_c, 1, 49, 80
3, 119040, Note_on_c, 1, 42, 82
3, 119040, Note_on_c, 1, 49, 82
3, 119216, Note_off_c, 1, 42, 80
3, 119216, Note_off_c, 1, 49, 80
3, 119280, Note_on_c, 1, 42, 82
3, 119280, Note_on_c, 1, 49, 82
3, 119456, Note_off_c, 1, 42, 80
3, 119456, Note_off_c, 1, 49, 80
3, 119520, Note_on_c, 1, 42, 82
3, 119520, Note_on_c, 1, 49, 82
3, 119696, Note_off_c, 1, 42, 80
3, 119696, Note_off_c, 1, 49, 80
3, 119760, Note_on_c, 1, 42, 82
3, 119760, Note_on_c, 1, 49, 82
3, 119936, Note_off_c, 1, 42, 80
3, 119936, Note_off_c, 1, 49, 80
3, 120000, Note_on_c, 1, 42, 82
3, 120000, Note_on_c, 1, 49, 82
3, 120176, Note_off_c, 1, 42, 80
3, 120176, Note_off_c, 1, 49, 80
3, 120240, Note_on_c, 1, 42, 82
3, 120240, Note_on_c, 1, 49, 82
3, 120416, Note_off_c, 1, 42, 80
3, 120416, Note_off_c, 1, 49, 80
3, 120480, Note_on_c, 1, 42, 82
3, 120480, Note_on_c, 1, 49, 82
3, 120656, Note_off_c, 1, 42, 80
3, 120656, Note_off_c, 1, 49, 80
3, 120720, Note_on_c, 1, 42, 82
3, 120720, Note_on_c, 1, 49, 82
3, 120896, Note_off_c, 1, 42, 80
3, 120896, Note_off_c, 1, 49, 80
3, 120960, Note_on_c, 1, 44, 82
3, 120960, Note_on_c, 1, 49, 82
3, 120960, Note_on_c, 1, 53, 82
3, 121136, Note_off_c, 1, 44, 80
3, 121136, Note_off_c, 1, 49, 80
3, 121136, Note_off_c, 1, 53, 80
3, 121200, Note_on_c, 1, 44, 82
3, 121200, Note_on_c, 1, 49, 82
3, 121200, Note_on_c, 1, 53, 82
3, 121376, Note_off_c, 1, 44, 80
3, 121376, Note_off_c, 1, 49, 80
3, 121376, Note_off_c, 1, 53, 80
3, 121440, Note_on_c, 1, 44, 82
3, 121440, Note_on_c, 1, 49, 82
3, 121440, Note_on_c, 1, 53, 82
3, 121616, Note_off_c, 1, 44, 80
3, 121616, Note_off_c, 1, 49, 80
3, 121616, Note_off_c, 1, 53, 80
3, 121680, Note_on_c, 1, 44, 82
3, 121680, Note_on_c, 1, 49, 82
3, 121680, Note_on_c, 1, 53, 82
3, 121856, Note_off_c, 1, 44, 80
3, 121856, Note_off_c, 1, 49, 80
3, 121856, Note_off_c, 1, 53, 80
3, 121920, Note_on_c, 1, 44, 82
3, 121920, Note_on_c, 1, 49, 82
3, 121920, Note_on_c, 1, 53, 82
3, 122096, Note_off_c, 1, 44, 80
3, 122096, Note_off_c, 1, 49, 80
3, 122096, Note_off_c, 1, 53, 80
3, 122160, Note_on_c, 1, 44, 82
3, 122160, Note_on_c, 1, 49, 82
3, 122160, Note_on_c, 1, 53, 82
3, 122336, Note_off_c, 1, 44, 80
3, 122336, Note_off_c, 1, 49, 80
3, 122336, Note_off_c, 1, 53, 80
3, 122400, Note_on_c, 1, 44, 82
3, 122400, Note_on_c, 1, 49, 82
3, 122400, Note_on_c, 1, 53, 82
3, 122576, Note_off_c, 1, 44, 80
3, 122576, Note_off_c, 1, 49, 80
3, 122576, Note_off_c, 1, 53, 80
3, 122640, Note_on_c, 1, 44, 82
3, 122640, Note_on_c, 1, 49, 82
3, 122640, Note_on_c, 1, 53, 82
3, 122816, Note_off_c, 1, 44, 80
3, 122816, Note_off_c, 1, 49, 80
3, 122816, Note_off_c, 1, 53, 80
3, 122880, Note_on_c, 1, 44, 82
3, 122880, Note_on_c, 1, 51, 82
3, 123056, Note_off_c, 1, 44, 80
3, 123056, Note_off_c, 1, 51, 80
3, 123120, Note_on_c, 1, 44, 82
3, 123120, Note_on_c, 1, 51, 82
3, 123296, Note_off_c, 1, 44, 80
3, 123296, Note_off_c, 1, 51, 80
3, 123360, Note_on_c, 1, 44, 82
3, 123360, Note_on_c, 1, 51, 82
3, 123536, Note_off_c, 1, 44, 80
3, 123536, Note_off_c, 1, 51, 80
3, 123600, Note_on_c, 1, 44, 82
3, 123600, Note_on_c, 1, 51, 82
3, 123776, Note_off_c, 1, 44, 80
3, 123776, Note_off_c, 1, 51, 80
3, 123840, Note_on_c, 1, 44, 82
3, 123840, Note_on_c, 1, 51, 82
3, 124016, Note_off_c, 1, 44, 80
3, 124016, Note_off_c, 1, 51, 80
3, 124080, Note_on_c, 1, 44, 82
3, 124080, Note_on_c, 1, 51, 82
3, 124256, Note_off_c, 1, 44, 80
3, 124256, Note_off_c, 1, 51, 80
3, 124320, Note_on_c, 1, 44, 82
3, 124320, Note_on_c, 1, 51, 82
3, 124496, Note_off_c, 1, 44, 80
3, 124496, Note_off_c, 1, 51, 80
3, 124560, Note_on_c, 1, 44, 82
3, 124560, Note_on_c, 1, 51, 82
3, 124736, Note_off_c, 1, 44, 80
3, 124736, Note_off_c, 1, 51, 80
3, 124800, Note_on_c, 1, 46, 82
3, 124800, Note_on_c, 1, 51, 82
3, 124800, Note_on_c, 1, 55, 82
3, 124976, Note_off_c, 1, 46, 80
3, 124976, Note_off_c, 1, 51, 80
3, 124976, Note_off_c, 1, 55, 80
3, 125040, Note_on_c, 1, 46, 82
3, 125040, Note_on_c, 1, 51, 82
3, 125040, Note_on_c, 1, 55, 82
3, 125216, Note_off_c, 1, 46, 80
3, 125216, Note_off_c, 1, 51, 80
3, 125216, Note_off_c, 1, 55, 80
3, 125280, Note_on_c, 1, 46, 82
3, 125280, Note_on_c, 1, 51, 82
3, 125280, Note_on_c, 1, 55, 82
3, 125456, Note_off_c, 1, 46, 80
3, 125456, Note_off_c, 1, 51, 80
3, 125456, Note_off_c, 1, 55, 80
3, 125520, Note_on_c, 1, 46, 82
3, 125520, Note_on_c, 1, 51, 82
3, 125520, Note_on_c, 1, 55, 82
3, 125696, Note_off_c, 1, 46, 80
3, 125696, Note_off_c, 1, 51, 80
3, 125696, Note_off_c, 1, 55, 80
3, 125760, Note_on_c, 1, 46, 82
3, 125760, Note_on_c, 1, 51, 82
3, 125760, Note_on_c, 1, 55, 82
3, 125936, Note_off_c, 1, 46, 80
3, 125936, Note_off_c, 1, 51, 80
3, 125936, Note_off_c, 1, 55, 80
3, 126000, Note_on_c, 1, 46, 82
3, 126000, Note_on_c, 1, 51, 82
3, 126000, Note_on_c, 1, 55, 82
3, 126176, Note_off_c, 1, 46, 80
3, 126176, Note_off_c, 1, 51, 80
3, 126176, Note_off_c, 1, 55, 80
3, 126240, Note_on_c, 1, 46, 82
3, 126240, Note_on_c, 1, 51, 82
3, 126240, Note_on_c, 1, 55, 82
3, 126416, Note_off_c, 1, 46, 80
3, 126416, Note_off_c, 1, 51, 80
3, 126416, Note_off_c, 1, 55, 80
3, 126480, Note_on_c, 1, 46, 82
3, 126480, Note_on_c, 1, 51, 82
3, 126480, Note_on_c, 1, 55, 82
3, 126656, Note_off_c, 1, 46, 80
3, 126656, Note_off_c, 1, 51, 80
3, 126656, Note_off_c, 1, 55, 80
3, 126720, Note_on_c, 1, 46, 82
3, 126720, Note_on_c, 1, 51, 82
3, 126720, Note_on_c, 1, 55, 82
3, 126896, Note_off_c, 1, 46, 80
3, 126896, Note_off_c, 1, 51, 80
3, 126896, Note_off_c, 1, 55, 80
3, 126960, Note_on_c, 1, 46, 82
3, 126960, Note_on_c, 1, 51, 82
3, 126960, Note_on_c, 1, 55, 82
3, 127136, Note_off_c, 1, 46, 80
3, 127136, Note_off_c, 1, 51, 80
3, 127136, Note_off_c, 1, 55, 80
3, 127200, Note_on_c, 1, 46, 82
3, 127200, Note_on_c, 1, 51, 82
3, 127200, Note_on_c, 1, 55, 82
3, 127376, Note_off_c, 1, 46, 80
3, 127376, Note_off_c, 1, 51, 80
3, 127376, Note_off_c, 1, 55, 80
3, 127440, Note_on_c, 1, 46, 82
3, 127440, Note_on_c, 1, 51, 82
3, 127440, Note_on_c, 1, 55, 82
3, 127616, Note_off_c, 1, 46, 80
3, 127616, Note_off_c, 1, 51, 80
3, 127616, Note_off_c, 1, 55, 80
3, 127680, Note_on_c, 1, 46, 82
3, 127680, Note_on_c, 1, 51, 82
3, 127680, Note_on_c, 1, 55, 82
3, 127856, Note_off_c, 1, 46, 80
3, 127856, Note_off_c, 1, 51, 80
3, 127856, Note_off_c, 1, 55, 80
3, 127920, Note_on_c, 1, 46, 82
3, 127920, Note_on_c, 1, 51, 82
3, 127920, Note_on_c, 1, 55, 82
3, 128096, Note_off_c, 1, 46, 80
3, 128096, Note_off_c, 1, 51, 80
3, 128096, Note_off_c, 1, 55, 80
3, 128160, Note_on_c, 1, 46, 82
3, 128160, Note_on_c, 1, 51, 82
3, 128160, Note_on_c, 1, 55, 82
3, 128336, Note_off_c, 1, 46, 80
3, 128336, Note_off_c, 1, 51, 80
3, 128336, Note_off_c, 1, 55, 80
3, 128400, Note_on_c, 1, 46, 82
3, 128400, Note_on_c, 1, 51, 82
3, 128400, Note_on_c, 1, 55, 82
3, 128576, Note_off_c, 1, 46, 80
3, 128576, Note_off_c, 1, 51, 80
3, 128576, Note_off_c, 1, 55, 80
3, 128640, Note_on_c, 1, 42, 82
3, 128640, Note_on_c, 1, 49, 82
3, 128816, Note_off_c, 1, 42, 80
3, 128816, Note_off_c, 1, 49, 80
3, 128880, Note_on_c, 1, 42, 82
3, 128880, Note_on_c, 1, 49, 82
3, 129056, Note_off_c, 1, 42, 80
3, 129056, Note_off_c, 1, 49, 80
3, 129120, Note_on_c, 1, 42, 82
3, 129120, Note_on_c, 1, 49, 82
3, 129296, Note_off_c, 1, 42, 80
3, 129296, Note_off_c, 1, 49, 80
3, 129360, Note_on_c, 1, 42, 82
3, 129360, Note_on_c, 1, 49, 82
3, 129536, Note_off_c, 1, 42, 80
3, 129536, Note_off_c, 1, 49, 80
3, 129600, Note_on_c, 1, 42, 82
3, 129600, Note_on_c, 1, 49, 82
3, 129776, Note_off_c, 1, 42, 80
3, 129776, Note_off_c, 1, 49, 80
3, 129840, Note_on_c, 1, 42, 82
3, 129840, Note_on_c, 1, 49, 82
3, 130016, Note_off_c, 1, 42, 80
3, 130016, Note_off_c, 1, 49, 80
3, 130080, Note_on_c, 1, 42, 82
3, 130080, Note_on_c, 1, 49, 82
3, 130256, Note_off_c, 1, 42, 80
3, 130256, Note_off_c, 1, 49, 80
3, 130320, Note_on_c, 1, 42, 82
3, 130320, Note_on_c, 1, 49, 82
3, 130496, Note_off_c, 1, 42, 80
3, 130496, Note_off_c, 1, 49, 80
3, 130560, Note_on_c, 1, 42, 82
3, 130560, Note_on_c, 1, 49, 82
3, 130736, Note_off_c, 1, 42, 80
3, 130736, Note_off_c, 1, 49, 80
3, 130800, Note_on_c, 1, 42, 82
3, 130800, Note_on_c, 1, 49, 82
3, 130976, Note_off_c, 1, 42, 80
3, 130976, Note_off_c, 1, 49, 80
3, 131040, Note_on_c, 1, 42, 82
3, 131040, Note_on_c, 1, 49, 82
3, 131216, Note_off_c, 1, 42, 80
3, 131216, Note_off_c, 1, 49, 80
3, 131280, Note_on_c, 1, 42, 82
3, 131280, Note_on_c, 1, 49, 82
3, 131456, Note_off_c, 1, 42, 80
3, 131456, Note_off_c, 1, 49, 80
3, 131520, Note_on_c, 1, 42, 82
3, 131520, Note_on_c, 1, 49, 82
3, 131696, Note_off_c, 1, 42, 80
3, 131696, Note_off_c, 1, 49, 80
3, 131760, Note_on_c, 1, 42, 82
3, 131760, Note_on_c, 1, 49, 82
3, 131936, Note_off_c, 1, 42, 80
3, 131936, Note_off_c, 1, 49, 80
3, 132000, Note_on_c, 1, 42, 82
3, 132000, Note_on_c, 1, 49, 82
3, 132176, Note_off_c, 1, 42, 80
3, 132176, Note_off_c, 1, 49, 80
3, 132240, Note_on_c, 1, 42, 82
3, 132240, Note_on_c, 1, 49, 82
3, 132416, Note_off_c, 1, 42, 80
3, 132416, Note_off_c, 1, 49, 80
3, 132480, Note_on_c, 1, 44, 82
3, 132480, Note_on_c, 1, 49, 82
3, 132480, Note_on_c, 1, 53, 82
3, 132656, Note_off_c, 1, 44, 80
3, 132656, Note_off_c, 1, 49, 80
3, 132656, Note_off_c, 1, 53, 80
3, 132720, Note_on_c, 1, 44, 82
3, 132720, Note_on_c, 1, 49, 82
3, 132720, Note_on_c, 1, 53, 82
3, 132896, Note_off_c, 1, 44, 80
3, 132896, Note_off_c, 1, 49, 80
3, 132896, Note_off_c, 1, 53, 80
3, 132960, Note_on_c, 1, 44, 82
3, 132960, Note_on_c, 1, 49, 82
3, 132960, Note_on_c, 1, 53, 82
3, 133136, Note_off_c, 1, 44, 80
3, 133136, Note_off_c, 1, 49, 80
3, 133136, Note_off_c, 1, 53, 80
3, 133200, Note_on_c, 1, 44, 82
3, 133200, Note_on_c, 1, 49, 82
3, 133200, Note_on_c, 1, 53, 82
3, 133376, Note_off_c, 1, 44, 80
3, 133376, Note_off_c, 1, 49, 80
3, 133376, Note_off_c, 1, 53, 80
3, 133440, Note_on_c, 1, 44, 82
3, 133440, Note_on_c, 1, 49, 82
3, 133440, Note_on_c, 1, 53, 82
3, 133616, Note_off_c, 1, 44, 80
3, 133616, Note_off_c, 1, 49, 80
3, 133616, Note_off_c, 1, 53, 80
3, 133680, Note_on_c, 1, 44, 82
3, 133680, Note_on_c, 1, 49, 82
3, 133680, Note_on_c, 1, 53, 82
3, 133856, Note_off_c, 1, 44, 80
3, 133856, Note_off_c, 1, 49, 80
3, 133856, Note_off_c, 1, 53, 80
3, 133920, Note_on_c, 1, 44, 82
3, 133920, Note_on_c, 1, 49, 82
3, 133920, Note_on_c, 1, 53, 82
3, 134096, Note_off_c, 1, 44, 80
3, 134096, Note_off_c, 1, 49, 80
3, 134096, Note_off_c, 1, 53, 80
3, 134160, Note_on_c, 1, 44, 82
3, 134160, Note_on_c, 1, 49, 82
3, 134160, Note_on_c, 1, 53, 82
3, 134336, Note_off_c, 1, 44, 80
3, 134336, Note_off_c, 1, 49, 80
3, 134336, Note_off_c, 1, 53, 80
3, 134400, Note_on_c, 1, 44, 82
3, 134400, Note_on_c, 1, 51, 82
3, 134576, Note_off_c, 1, 44, 80
3, 134576, Note_off_c, 1, 51, 80
3, 134640, Note_on_c, 1, 44, 82
3, 134640, Note_on_c, 1, 51, 82
3, 134816, Note_off_c, 1, 44, 80
3, 134816, Note_off_c, 1, 51, 80
3, 134880, Note_on_c, 1, 44, 82
3, 134880, Note_on_c, 1, 51, 82
3, 135056, Note_off_c, 1, 44, 80
3, 135056, Note_off_c, 1, 51, 80
3, 135120, Note_on_c, 1, 44, 82
3, 135120, Note_on_c, 1, 51, 82
3, 135296, Note_off_c, 1, 44, 80
3, 135296, Note_off_c, 1, 51, 80
3, 135360, Note_on_c, 1, 44, 82
3, 135360, Note_on_c, 1, 51, 82
3, 135536, Note_off_c, 1, 44, 80
3, 135536, Note_off_c, 1, 51, 80
3, 135600, Note_on_c, 1, 44, 82
3, 135600, Note_on_c, 1, 51, 82
3, 135776, Note_off_c, 1, 44, 80
3, 135776, Note_off_c, 1, 51, 80
3, 135840, Note_on_c, 1, 44, 82
3, 135840, Note_on_c, 1, 51, 82
3, 136016, Note_off_c, 1, 44, 80
3, 136016, Note_off_c, 1, 51, 80
3, 136080, Note_on_c, 1, 44, 82
3, 136080, Note_on_c, 1, 51, 82
3, 136256, Note_off_c, 1, 44, 80
3, 136256, Note_off_c, 1, 51, 80
3, 136320, Note_on_c, 1, 46, 82
3, 136320, Note_on_c, 1, 51, 82
3, 136320, Note_on_c, 1, 55, 82
3, 136496, Note_off_c, 1, 46, 80
3, 136496, Note_off_c, 1, 51, 80
3, 136496, Note_off_c, 1, 55, 80
3, 136560, Note_on_c, 1, 46, 82
3, 136560, Note_on_c, 1, 51, 82
3, 136560, Note_on_c, 1, 55, 82
3, 136736, Note_off_c, 1, 46, 80
3, 136736, Note_off_c, 1, 51, 80
3, 136736, Note_off_c, 1, 55, 80
3, 136800, Note_on_c, 1, 46, 82
3, 136800, Note_on_c, 1, 51, 82
3, 136800, Note_on_c, 1, 55, 82
3, 136976, Note_off_c, 1, 46, 80
3, 136976, Note_off_c, 1, 51, 80
3, 136976, Note_off_c, 1, 55, 80
3, 137040, Note_on_c, 1, 46, 82
3, 137040, Note_on_c, 1, 51, 82
3, 137040, Note_on_c, 1, 55, 82
3, 137216, Note_off_c, 1, 46, 80
3, 137216, Note_off_c, 1, 51, 80
3, 137216, Note_off_c, 1, 55, 80
3, 137280, Note_on_c, 1, 46, 82
3, 137280, Note_on_c, 1, 51, 82
3, 137280, Note_on_c, 1, 55, 82
3, 137456, Note_off_c, 1, 46, 80
3, 137456, Note_off_c, 1, 51, 80
3, 137456, Note_off_c, 1, 55, 80
3, 137520, Note_on_c, 1, 46, 82
3, 137520, Note_on_c, 1, 51, 82
3, 137520, Note_on_c, 1, 55, 82
3, 137696, Note_off_c, 1, 46, 80
3, 137696, Note_off_c, 1, 51, 80
3, 137696, Note_off_c, 1, 55, 80
3, 137760, Note_on_c, 1, 46, 82
3, 137760, Note_on_c, 1, 51, 82
3, 137760, Note_on_c, 1, 55, 82
3, 137936, Note_off_c, 1, 46, 80
3, 137936, Note_off_c, 1, 51, 80
3, 137936, Note_off_c, 1, 55, 80
3, 138000, Note_on_c, 1, 46, 82
3, 138000, Note_on_c, 1, 51, 82
3, 138000, Note_on_c, 1, 55, 82
3, 138176, Note_off_c, 1, 46, 80
3, 138176, Note_off_c, 1, 51, 80
3, 138176, Note_off_c, 1, 55, 80
3, 138240, Note_on_c, 1, 46, 82
3, 138240, Note_on_c, 1, 51, 82
3, 138240, Note_on_c, 1, 55, 82
3, 138416, Note_off_c, 1, 46, 80
3, 138416, Note_off_c, 1, 51, 80
3, 138416, Note_off_c, 1, 55, 80
3, 138480, Note_on_c, 1, 46, 82
3, 138480, Note_on_c, 1, 51, 82
3, 138480, Note_on_c, 1, 55, 82
3, 138656, Note_off_c, 1, 46, 80
3, 138656, Note_off_c, 1, 51, 80
3, 138656, Note_off_c, 1, 55, 80
3, 138720, Note_on_c, 1, 46, 82
3, 138720, Note_on_c, 1, 51, 82
3, 138720, Note_on_c, 1, 55, 82
3, 138896, Note_off_c, 1, 46, 80
3, 138896, Note_off_c, 1, 51, 80
3, 138896, Note_off_c, 1, 55, 80
3, 138960, Note_on_c, 1, 46, 82
3, 138960, Note_on_c, 1, 51, 82
3, 138960, Note_on_c, 1, 55, 82
3, 139136, Note_off_c, 1, 46, 80
3, 139136, Note_off_c, 1, 51, 80
3, 139136, Note_off_c, 1, 55, 80
3, 139200, Note_on_c, 1, 46, 82
3, 139200, Note_on_c, 1, 51, 82
3, 139200, Note_on_c, 1, 55, 82
3, 139376, Note_off_c, 1, 46, 80
3, 139376, Note_off_c, 1, 51, 80
3, 139376, Note_off_c, 1, 55, 80
3, 139440, Note_on_c, 1, 46, 82
3, 139440, Note_on_c, 1, 51, 82
3, 139440, Note_on_c, 1, 55, 82
3, 139616, Note_off_c, 1, 46, 80
3, 139616, Note_off_c, 1, 51, 80
3, 139616, Note_off_c, 1, 55, 80
3, 139680, Note_on_c, 1, 46, 82
3, 139680, Note_on_c, 1, 51, 82
3, 139680, Note_on_c, 1, 55, 82
3, 139856, Note_off_c, 1, 46, 80
3, 139856, Note_off_c, 1, 51, 80
3, 139856, Note_off_c, 1, 55, 80
3, 139920, Note_on_c, 1, 46, 82
3, 139920, Note_on_c, 1, 51, 82
3, 139920, Note_on_c, 1, 55, 82
3, 140096, Note_off_c, 1, 46, 80
3, 140096, Note_off_c, 1, 51, 80
3, 140096, Note_off_c, 1, 55, 80
3, 140160, Note_on_c, 1, 49, 82
3, 140160, Note_on_c, 1, 56, 82
3, 140336, Note_off_c, 1, 49, 80
3, 140336, Note_off_c, 1, 56, 80
3, 140400, Note_on_c, 1, 49, 82
3, 140400, Note_on_c, 1, 56, 82
3, 140576, Note_off_c, 1, 49, 80
3, 140576, Note_off_c, 1, 56, 80
3, 140640, Note_on_c, 1, 49, 82
3, 140640, Note_on_c, 1, 56, 82
3, 140816, Note_off_c, 1, 49, 80
3, 140816, Note_off_c, 1, 56, 80
3, 140880, Note_on_c, 1, 48, 82
3, 140880, Note_on_c, 1, 56, 82
3, 141056, Note_off_c, 1, 48, 80
3, 141056, Note_off_c, 1, 56, 80
3, 141120, Note_on_c, 1, 48, 82
3, 141120, Note_on_c, 1, 56, 82
3, 141296, Note_off_c, 1, 48, 80
3, 141296, Note_off_c, 1, 56, 80
3, 141360, Note_on_c, 1, 48, 82
3, 141360, Note_on_c, 1, 56, 82
3, 141536, Note_off_c, 1, 48, 80
3, 141536, Note_off_c, 1, 56, 80
3, 141600, Note_on_c, 1, 48, 82
3, 141600, Note_on_c, 1, 56, 82
3, 141776, Note_off_c, 1, 48, 80
3, 141776, Note_off_c, 1, 56, 80
3, 141840, Note_on_c, 1, 48, 82
3, 141840, Note_on_c, 1, 56, 82
3, 142016, Note_off_c, 1, 48, 80
3, 142016, Note_off_c, 1, 56, 80
3, 142080, Note_on_c, 1, 46, 82
3, 142080, Note_on_c, 1, 53, 82
3, 142256, Note_off_c, 1, 46, 80
3, 142256, Note_off_c, 1, 53, 80
3, 142320, Note_on_c, 1, 46, 82
3, 142320, Note_on_c, 1, 53, 82
3, 142496, Note_off_c, 1, 46, 80
3, 142496, Note_off_c, 1, 53, 80
3, 142560, Note_on_c, 1, 46, 82
3, 142560, Note_on_c, 1, 53, 82
3, 142736, Note_off_c, 1, 46, 80
3, 142736, Note_off_c, 1, 53, 80
3, 142800, Note_on_c, 1, 44, 82
3, 142800, Note_on_c, 1, 51, 82
3, 142976, Note_off_c, 1, 44, 80
3, 142976, Note_off_c, 1, 51, 80
3, 143040, Note_on_c, 1, 44, 82
3, 143040, Note_on_c, 1, 51, 82
3, 143216, Note_off_c, 1, 44, 80
3, 143216, Note_off_c, 1, 51, 80
3, 143280, Note_on_c, 1, 44, 82
3, 143280, Note_on_c, 1, 51, 82
3, 143456, Note_off_c, 1, 44, 80
3, 143456, Note_off_c, 1, 51, 80
3, 143520, Note_on_c, 1, 44, 82
3, 143520, Note_on_c, 1, 51, 82
3, 143696, Note_off_c, 1, 44, 80
3, 143696, Note_off_c, 1, 51, 80
3, 143760, Note_on_c, 1, 44, 82
3, 143760, Note_on_c, 1, 51, 82
3, 143936, Note_off_c, 1, 44, 80
3, 143936, Note_off_c, 1, 51, 80
3, 144000, Note_on_c, 1, 49, 82
3, 144000, Note_on_c, 1, 56, 82
3, 144176, Note_off_c, 1, 49, 80
3, 144176, Note_off_c, 1, 56, 80
3, 144240, Note_on_c, 1, 49, 82
3, 144240, Note_on_c, 1, 56, 82
3, 144416, Note_off_c, 1, 49, 80
3, 144416, Note_off_c, 1, 56, 80
3, 144480, Note_on_c, 1, 49, 82
3, 144480, Note_on_c, 1, 56, 82
3, 144656, Note_off_c, 1, 49, 80
3, 144656, Note_off_c, 1, 56, 80
3, 144720, Note_on_c, 1, 48, 82
3, 144720, Note_on_c, 1, 56, 82
3, 144896, Note_off_c, 1, 48, 80
3, 144896, Note_off_c, 1, 56, 80
3, 144960, Note_on_c, 1, 48, 82
3, 144960, Note_on_c, 1, 56, 82
3, 145136, Note_off_c, 1, 48, 80
3, 145136, Note_off_c, 1, 56, 80
3, 145200, Note_on_c, 1, 48, 82
3, 145200, Note_on_c, 1, 56, 82
3, 145376, Note_off_c, 1, 48, 80
3, 145376, Note_off_c, 1, 56, 80
3, 145440, Note_on_c, 1, 48, 82
3, 145440, Note_on_c, 1, 56, 82
3, 145616, Note_off_c, 1, 48, 80
3, 145616, Note_off_c, 1, 56, 80
3, 145680, Note_on_c, 1, 48, 82
3, 145680, Note_on_c, 1, 56, 82
3, 145856, Note_off_c, 1, 48, 80
3, 145856, Note_off_c, 1, 56, 80
3, 145920, Note_on_c, 1, 46, 82
3, 145920, Note_on_c, 1, 53, 82
3, 146096, Note_off_c, 1, 46, 80
3, 146096, Note_off_c, 1, 53, 80
3, 146160, Note_on_c, 1, 46, 82
3, 146160, Note_on_c, 1, 53, 82
3, 146336, Note_off_c, 1, 46, 80
3, 146336, Note_off_c, 1, 53, 80
3, 146400, Note_on_c, 1, 46, 82
3, 146400, Note_on_c, 1, 53, 82
3, 146576, Note_off_c, 1, 46, 80
3, 146576, Note_off_c, 1, 53, 80
3, 146640, Note_on_c, 1, 44, 82
3, 146640, Note_on_c, 1, 51, 82
3, 146816, Note_off_c, 1, 44, 80
3, 146816, Note_off_c, 1, 51, 80
3, 146880, Note_on_c, 1, 44, 82
3, 146880, Note_on_c, 1, 51, 82
3, 147056, Note_off_c, 1, 44, 80
3, 147056, Note_off_c, 1, 51, 80
3, 147120, Note_on_c, 1, 44, 82
3, 147120, Note_on_c, 1, 51, 82
3, 147296, Note_off_c, 1, 44, 80
3, 147296, Note_off_c, 1, 51, 80
3, 147360, Note_on_c, 1, 44, 82
3, 147360, Note_on_c, 1, 51, 82
3, 147536, Note_off_c, 1, 44, 80
3, 147536, Note_off_c, 1, 51, 80
3, 147600, Note_on_c, 1, 44, 82
3, 147600, Note_on_c, 1, 51, 82
3, 147776, Note_off_c, 1, 44, 80
3, 147776, Note_off_c, 1, 51, 80
3, 147840, Note_on_c, 1, 49, 82
3, 147840, Note_on_c, 1, 56, 82
3, 148016, Note_off_c, 1, 49, 80
3, 148016, Note_off_c, 1, 56, 80
3, 148080, Note_on_c, 1, 49, 82
3, 148080, Note_on_c, 1, 56, 82
3, 148256, Note_off_c, 1, 49, 80
3, 148256, Note_off_c, 1, 56, 80
3, 148320, Note_on_c, 1, 49, 82
3, 148320, Note_on_c, 1, 56, 82
3, 148496, Note_off_c, 1, 49, 80
3, 148496, Note_off_c, 1, 56, 80
3, 148560, Note_on_c, 1, 48, 82
3, 148560, Note_on_c, 1, 56, 82
3, 148736, Note_off_c, 1, 48, 80
3, 148736, Note_off_c, 1, 56, 80
3, 148800, Note_on_c, 1, 48, 82
3, 148800, Note_on_c, 1, 56, 82
3, 148976, Note_off_c, 1, 48, 80
3, 148976, Note_off_c, 1, 56, 80
3, 149040, Note_on_c, 1, 48, 82
3, 149040, Note_on_c, 1, 56, 82
3, 149216, Note_off_c, 1, 48, 80
3, 149216, Note_off_c, 1, 56, 80
3, 149280, Note_on_c, 1, 48, 82
3, 149280, Note_on_c, 1, 56, 82
3, 149456, Note_off_c, 1, 48, 80
3, 149456, Note_off_c, 1, 56, 80
3, 149520, Note_on_c, 1, 48, 82
3, 149520, Note_on_c, 1, 56, 82
3, 149696, Note_off_c, 1, 48, 80
3, 149696, Note_off_c, 1, 56, 80
3, 149760, Note_on_c, 1, 46, 82
3, 149760, Note_on_c, 1, 53, 82
3, 149936, Note_off_c, 1, 46, 80
3, 149936, Note_off_c, 1, 53, 80
3, 150000, Note_on_c, 1, 46, 82
3, 150000, Note_on_c, 1, 53, 82
3, 150176, Note_off_c, 1, 46, 80
3, 150176, Note_off_c, 1, 53, 80
3, 150240, Note_on_c, 1, 46, 82
3, 150240, Note_on_c, 1, 53, 82
3, 150416, Note_off_c, 1, 46, 80
3, 150416, Note_off_c, 1, 53, 80
3, 150480, Note_on_c, 1, 44, 82
3, 150480, Note_on_c, 1, 51, 82
3, 150656, Note_off_c, 1, 44, 80
3, 150656, Note_off_c, 1, 51, 80
3, 150720, Note_on_c, 1, 44, 82
3, 150720, Note_on_c, 1, 51, 82
3, 150896, Note_off_c, 1, 44, 80
3, 150896, Note_off_c, 1, 51, 80
3, 150960, Note_on_c, 1, 44, 82
3, 150960, Note_on_c, 1, 51, 82
3, 151136, Note_off_c, 1, 44, 80
3, 151136, Note_off_c, 1, 51, 80
3, 151200, Note_on_c, 1, 44, 82
3, 151200, Note_on_c, 1, 51, 82
3, 151376, Note_off_c, 1, 44, 80
3, 151376, Note_off_c, 1, 51, 80
3, 151440, Note_on_c, 1, 44, 82
3, 151440, Note_on_c, 1, 51, 82
3, 151616, Note_off_c, 1, 44, 80
3, 151616, Note_off_c, 1, 51, 80
3, 151680, Note_on_c, 1, 46, 101
3, 151680, Note_on_c, 1, 53, 101
3, 151680, Note_on_c, 1, 58, 101
3, 152156, Note_off_c, 1, 46, 80
3, 152156, Note_off_c, 1, 53, 80
3, 152156, Note_off_c, 1, 58, 80
3, 152160, Note_on_c, 1, 46, 101
3, 152160, Note_on_c, 1, 53, 101
3, 152160, Note_on_c, 1, 58, 101
3, 152636, Note_off_c, 1, 46, 80
3, 152636, Note_off_c, 1, 53, 80
3, 152636, Note_off_c, 1, 58, 80
3, 152640, Note_on_c, 1, 46, 101
3, 152640, Note_on_c, 1, 53, 101
3, 152640, Note_on_c, 1, 58, 101
3, 153116, Note_off_c, 1, 46, 80
3, 153116, Note_off_c, 1, 53, 80
3, 153116, Note_off_c, 1, 58, 80
3, 153120, Note_on_c, 1, 46, 101
3, 153120, Note_on_c, 1, 53, 101
3, 153120, Note_on_c, 1, 58, 101
3, 153596, Note_off_c, 1, 46, 80
3, 153596, Note_off_c, 1, 53, 80
3, 153596, Note_off_c, 1, 58, 80
3, 153600, Note_on_c, 1, 46, 101
3, 153600, Note_on_c, 1, 53, 101
3, 153600, Note_on_c, 1, 58, 101
3, 154076, Note_off_c, 1, 46, 80
3, 154076, Note_off_c, 1, 53, 80
3, 154076, Note_off_c, 1, 58, 80
3, 154080, Note_on_c, 1, 46, 101
3, 154080, Note_on_c, 1, 53, 101
3, 154080, Note_on_c, 1, 58, 101
3, 154556, Note_off_c, 1, 46, 80
3, 154556, Note_off_c, 1, 53, 80
3, 154556, Note_off_c, 1, 58, 80
3, 154560, Note_on_c, 1, 46, 101
3, 154560, Note_on_c, 1, 53, 101
3, 154560, Note_on_c, 1, 58, 101
3, 155036, Note_off_c, 1, 46, 80
3, 155036, Note_off_c, 1, 53, 80
3, 155036, Note_off_c, 1, 58, 80
3, 155040, Note_on_c, 1, 46, 101
3, 155040, Note_on_c, 1, 53, 101
3, 155040, Note_on_c, 1, 58, 101
3, 155516, Note_off_c, 1, 46, 80
3, 155516, Note_off_c, 1, 53, 80
3, 155516, Note_off_c, 1, 58, 80
3, 155520, Note_on_c, 1, 44, 101
3, 155520, Note_on_c, 1, 49, 101
3, 155520, Note_on_c, 1, 53, 101
3, 155996, Note_off_c, 1, 44, 80
3, 155996, Note_off_c, 1, 49, 80
3, 155996, Note_off_c, 1, 53, 80
3, 156000, Note_on_c, 1, 44, 101
3, 156000, Note_on_c, 1, 49, 101
3, 156000, Note_on_c, 1, 53, 101
3, 156476, Note_off_c, 1, 44, 80
3, 156476, Note_off_c, 1, 49, 80
3, 156476, Note_off_c, 1, 53, 80
3, 156480, Note_on_c, 1, 44, 101
3, 156480, Note_on_c, 1, 49, 101
3, 156480, Note_on_c, 1, 53, 101
3, 156956, Note_off_c, 1, 44, 80
3, 156956, Note_off_c, 1, 49, 80
3, 156956, Note_off_c, 1, 53, 80
3, 156960, Note_on_c, 1, 44, 101
3, 156960, Note_on_c, 1, 49, 101
3, 156960, Note_on_c, 1, 53, 101
3, 157436, Note_off_c, 1, 44, 80
3, 157436, Note_off_c, 1, 49, 80
3, 157436, Note_off_c, 1, 53, 80
3, 157440, Note_on_c, 1, 44, 101
3, 157440, Note_on_c, 1, 49, 101
3, 157440, Note_on_c, 1, 53, 101
3, 157916, Note_off_c, 1, 44, 80
3, 157916, Note_off_c, 1, 49, 80
3, 157916, Note_off_c, 1, 53, 80
3, 157920, Note_on_c, 1, 44, 101
3, 157920, Note_on_c, 1, 49, 101
3, 157920, Note_on_c, 1, 53, 101
3, 158396, Note_off_c, 1, 44, 80
3, 158396, Note_off_c, 1, 49, 80
3, 158396, Note_off_c, 1, 53, 80
3, 158400, Note_on_c, 1, 44, 101
3, 158400, Note_on_c, 1, 49, 101
3, 158400, Note_on_c, 1, 53, 101
3, 158876, Note_off_c, 1, 44, 80
3, 158876, Note_off_c, 1, 49, 80
3, 158876, Note_off_c, 1, 53, 80
3, 158880, Note_on_c, 1, 44, 101
3, 158880, Note_on_c, 1, 49, 101
3, 158880, Note_on_c, 1, 53, 101
3, 159356, Note_off_c, 1, 44, 80
3, 159356, Note_off_c, 1, 49, 80
3, 159356, Note_off_c, 1, 53, 80
3, 159360, Note_on_c, 1, 44, 82
3, 159360, Note_on_c, 1, 51, 82
3, 159536, Note_off_c, 1, 44, 80
3, 159536, Note_off_c, 1, 51, 80
3, 159600, Note_on_c, 1, 44, 82
3, 159600, Note_on_c, 1, 51, 82
3, 159776, Note_off_c, 1, 44, 80
3, 159776, Note_off_c, 1, 51, 80
3, 159840, Note_on_c, 1, 44, 82
3, 159840, Note_on_c, 1, 51, 82
3, 160016, Note_off_c, 1, 44, 80
3, 160016, Note_off_c, 1, 51, 80
3, 160080, Note_on_c, 1, 44, 82
3, 160080, Note_on_c, 1, 51, 82
3, 160256, Note_off_c, 1, 44, 80
3, 160256, Note_off_c, 1, 51, 80
3, 160320, Note_on_c, 1, 44, 82
3, 160320, Note_on_c, 1, 51, 82
3, 160496, Note_off_c, 1, 44, 80
3, 160496, Note_off_c, 1, 51, 80
3, 160560, Note_on_c, 1, 44, 82
3, 160560, Note_on_c, 1, 51, 82
3, 160736, Note_off_c, 1, 44, 80
3, 160736, Note_off_c, 1, 51, 80
3, 160800, Note_on_c, 1, 44, 82
3, 160800, Note_on_c, 1, 51, 82
3, 160976, Note_off_c, 1, 44, 80
3, 160976, Note_off_c, 1, 51, 80
3, 161040, Note_on_c, 1, 44, 82
3, 161040, Note_on_c, 1, 51, 82
3, 161216, Note_off_c, 1, 44, 80
3, 161216, Note_off_c, 1, 51, 80
3, 161280, Note_on_c, 1, 44, 82
3, 161280, Note_on_c, 1, 51, 82
3, 161456, Note_off_c, 1, 44, 80
3, 161456, Note_off_c, 1, 51, 80
3, 161520, Note_on_c, 1, 44, 82
3, 161520, Note_on_c, 1, 51, 82
3, 161696, Note_off_c, 1, 44, 80
3, 161696, Note_off_c, 1, 51, 80
3, 161760, Note_on_c, 1, 44, 82
3, 161760, Note_on_c, 1, 51, 82
3, 161936, Note_off_c, 1, 44, 80
3, 161936, Note_off_c, 1, 51, 80
3, 162000, Note_on_c, 1, 44, 82
3, 162000, Note_on_c, 1, 51, 82
3, 162176, Note_off_c, 1, 44, 80
3, 162176, Note_off_c, 1, 51, 80
3, 162240, Note_on_c, 1, 44, 82
3, 162240, Note_on_c, 1, 51, 82
3, 162416, Note_off_c, 1, 44, 80
3, 162416, Note_off_c, 1, 51, 80
3, 162480, Note_on_c, 1, 44, 82
3, 162480, Note_on_c, 1, 51, 82
3, 162656, Note_off_c, 1, 44, 80
3, 162656, Note_off_c, 1, 51, 80
3, 162720, Note_on_c, 1, 44, 82
3, 162720, Note_on_c, 1, 51, 82
3, 162896, Note_off_c, 1, 44, 80
3, 162896, Note_off_c, 1, 51, 80
3, 162960, Note_on_c, 1, 44, 82
3, 162960, Note_on_c, 1, 51, 82
3, 163136, Note_off_c, 1, 44, 80
3, 163136, Note_off_c, 1, 51, 80
3, 163200, Note_on_c, 1, 44, 82
3, 163200, Note_on_c, 1, 49, 82
3, 163200, Note_on_c, 1, 53, 82
3, 163376, Note_off_c, 1, 44, 80
3, 163376, Note_off_c, 1, 49, 80
3, 163376, Note_off_c, 1, 53, 80
3, 163440, Note_on_c, 1, 44, 82
3, 163440, Note_on_c, 1, 49, 82
3, 163440, Note_on_c, 1, 53, 82
3, 163616, Note_off_c, 1, 44, 80
3, 163616, Note_off_c, 1, 49, 80
3, 163616, Note_off_c, 1, 53, 80
3, 163680, Note_on_c, 1, 44, 82
3, 163680, Note_on_c, 1, 49, 82
3, 163680, Note_on_c, 1, 53, 82
3, 163856, Note_off_c, 1, 44, 80
3, 163856, Note_off_c, 1, 49, 80
3, 163856, Note_off_c, 1, 53, 80
3, 163920, Note_on_c, 1, 44, 82
3, 163920, Note_on_c, 1, 49, 82
3, 163920, Note_on_c, 1, 53, 82
3, 164096, Note_off_c, 1, 44, 80
3, 164096, Note_off_c, 1, 49, 80
3, 164096, Note_off_c, 1, 53, 80
3, 164160, Note_on_c, 1, 44, 82
3, 164160, Note_on_c, 1, 49, 82
3, 164160, Note_on_c, 1, 53, 82
3, 164336, Note_off_c, 1, 44, 80
3, 164336, Note_off_c, 1, 49, 80
3, 164336, Note_off_c, 1, 53, 80
3, 164400, Note_on_c, 1, 44, 82
3, 164400, Note_on_c, 1, 49, 82
3, 164400, Note_on_c, 1, 53, 82
3, 164576, Note_off_c, 1, 44, 80
3, 164576, Note_off_c, 1, 49, 80
3, 164576, Note_off_c, 1, 53, 80
3, 164640, Note_on_c, 1, 44, 82
3, 164640, Note_on_c, 1, 49, 82
3, 164640, Note_on_c, 1, 53, 82
3, 164816, Note_off_c, 1, 44, 80
3, 164816, Note_off_c, 1, 49, 80
3, 164816, Note_off_c, 1, 53, 80
3, 164880, Note_on_c, 1, 44, 82
3, 164880, Note_on_c, 1, 49, 82
3, 164880, Note_on_c, 1, 53, 82
3, 165056, Note_off_c, 1, 44, 80
3, 165056, Note_off_c, 1, 49, 80
3, 165056, Note_off_c, 1, 53, 80
3, 165120, Note_on_c, 1, 44, 82
3, 165120, Note_on_c, 1, 49, 82
3, 165120, Note_on_c, 1, 53, 82
3, 165296, Note_off_c, 1, 44, 80
3, 165296, Note_off_c, 1, 49, 80
3, 165296, Note_off_c, 1, 53, 80
3, 165360, Note_on_c, 1, 44, 82
3, 165360, Note_on_c, 1, 49, 82
3, 165360, Note_on_c, 1, 53, 82
3, 165536, Note_off_c, 1, 44, 80
3, 165536, Note_off_c, 1, 49, 80
3, 165536, Note_off_c, 1, 53, 80
3, 165600, Note_on_c, 1, 44, 82
3, 165600, Note_on_c, 1, 49, 82
3, 165600, Note_on_c, 1, 53, 82
3, 165776, Note_off_c, 1, 44, 80
3, 165776, Note_off_c, 1, 49, 80
3, 165776, Note_off_c, 1, 53, 80
3, 165840, Note_on_c, 1, 44, 82
3, 165840, Note_on_c, 1, 49, 82
3, 165840, Note_on_c, 1, 53, 82
3, 166016, Note_off_c, 1, 44, 80
3, 166016, Note_off_c, 1, 49, 80
3, 166016, Note_off_c, 1, 53, 80
3, 166080, Note_on_c, 1, 44, 82
3, 166080, Note_on_c, 1, 49, 82
3, 166080, Note_on_c, 1, 53, 82
3, 166256, Note_off_c, 1, 44, 80
3, 166256, Note_off_c, 1, 49, 80
3, 166256, Note_off_c, 1, 53, 80
3, 166320, Note_on_c, 1, 44, 82
3, 166320, Note_on_c, 1, 49, 82
3, 166320, Note_on_c, 1, 53, 82
3, 166496, Note_off_c, 1, 44, 80
3, 166496, Note_off_c, 1, 49, 80
3, 166496, Note_off_c, 1, 53, 80
3, 166560, Note_on_c, 1, 44, 82
3, 166560, Note_on_c, 1, 49, 82
3, 166560, Note_on_c, 1, 53, 82
3, 166736, Note_off_c, 1, 44, 80
3, 166736, Note_off_c, 1, 49, 80
3, 166736, Note_off_c, 1, 53, 80
3, 166800, Note_on_c, 1, 44, 82
3, 166800, Note_on_c, 1, 49, 82
3, 166800, Note_on_c, 1, 53, 82
3, 166976, Note_off_c, 1, 44, 80
3, 166976, Note_off_c, 1, 49, 80
3, 166976, Note_off_c, 1, 53, 80
3, 167040, Note_on_c, 1, 44, 82
3, 167040, Note_on_c, 1, 51, 82
3, 167216, Note_off_c, 1, 44, 80
3, 167216, Note_off_c, 1, 51, 80
3, 167280, Note_on_c, 1, 44, 82
3, 167280, Note_on_c, 1, 51, 82
3, 167456, Note_off_c, 1, 44, 80
3, 167456, Note_off_c, 1, 51, 80
3, 167520, Note_on_c, 1, 44, 82
3, 167520, Note_on_c, 1, 51, 82
3, 167696, Note_off_c, 1, 44, 80
3, 167696, Note_off_c, 1, 51, 80
3, 167760, Note_on_c, 1, 44, 82
3, 167760, Note_on_c, 1, 51, 82
3, 167936, Note_off_c, 1, 44, 80
3, 167936, Note_off_c, 1, 51, 80
3, 168000, Note_on_c, 1, 44, 82
3, 168000, Note_on_c, 1, 51, 82
3, 168176, Note_off_c, 1, 44, 80
3, 168176, Note_off_c, 1, 51, 80
3, 168240, Note_on_c, 1, 44, 82
3, 168240, Note_on_c, 1, 51, 82
3, 168416, Note_off_c, 1, 44, 80
3, 168416, Note_off_c, 1, 51, 80
3, 168480, Note_on_c, 1, 44, 82
3, 168480, Note_on_c, 1, 51, 82
3, 168656, Note_off_c, 1, 44, 80
3, 168656, Note_off_c, 1, 51, 80
3, 168720, Note_on_c, 1, 44, 82
3, 168720, Note_on_c, 1, 51, 82
3, 168896, Note_off_c, 1, 44, 80
3, 168896, Note_off_c, 1, 51, 80
3, 168960, Note_on_c, 1, 44, 82
3, 168960, Note_on_c, 1, 51, 82
3, 169136, Note_off_c, 1, 44, 80
3, 169136, Note_off_c, 1, 51, 80
3, 169200, Note_on_c, 1, 44, 82
3, 169200, Note_on_c, 1, 51, 82
3, 169376, Note_off_c, 1, 44, 80
3, 169376, Note_off_c, 1, 51, 80
3, 169440, Note_on_c, 1, 44, 82
3, 169440, Note_on_c, 1, 51, 82
3, 169616, Note_off_c, 1, 44, 80
3, 169616, Note_off_c, 1, 51, 80
3, 169680, Note_on_c, 1, 44, 82
3, 169680, Note_on_c, 1, 51, 82
3, 169856, Note_off_c, 1, 44, 80
3, 169856, Note_off_c, 1, 51, 80
3, 169920, Note_on_c, 1, 44, 82
3, 169920, Note_on_c, 1, 51, 82
3, 170096, Note_off_c, 1, 44, 80
3, 170096, Note_off_c, 1, 51, 80
3, 170160, Note_on_c, 1, 44, 82
3, 170160, Note_on_c, 1, 51, 82
3, 170336, Note_off_c, 1, 44, 80
3, 170336, Note_off_c, 1, 51, 80
3, 170400, Note_on_c, 1, 44, 82
3, 170400, Note_on_c, 1, 51, 82
3, 170576, Note_off_c, 1, 44, 80
3, 170576, Note_off_c, 1, 51, 80
3, 170640, Note_on_c, 1, 44, 82
3, 170640, Note_on_c, 1, 51, 82
3, 170816, Note_off_c, 1, 44, 80
3, 170816, Note_off_c, 1, 51, 80
3, 170880, Note_on_c, 1, 44, 82
3, 170880, Note_on_c, 1, 49, 82
3, 170880, Note_on_c, 1, 53, 82
3, 171056, Note_off_c, 1, 44, 80
3, 171056, Note_off_c, 1, 49, 80
3, 171056, Note_off_c, 1, 53, 80
3, 171120, Note_on_c, 1, 44, 82
3, 171120, Note_on_c, 1, 49, 82
3, 171120, Note_on_c, 1, 53, 82
3, 171296, Note_off_c, 1, 44, 80
3, 171296, Note_off_c, 1, 49, 80
3, 171296, Note_off_c, 1, 53, 80
3, 171360, Note_on_c, 1, 44, 82
3, 171360, Note_on_c, 1, 49, 82
3, 171360, Note_on_c, 1, 53, 82
3, 171536, Note_off_c, 1, 44, 80
3, 171536, Note_off_c, 1, 49, 80
3, 171536, Note_off_c, 1, 53, 80
3, 171600, Note_on_c, 1, 44, 82
3, 171600, Note_on_c, 1, 49, 82
3, 171600, Note_on_c, 1, 53, 82
3, 171776, Note_off_c, 1, 44, 80
3, 171776, Note_off_c, 1, 49, 80
3, 171776, Note_off_c, 1, 53, 80
3, 171840, Note_on_c, 1, 44, 82
3, 171840, Note_on_c, 1, 49, 82
3, 171840, Note_on_c, 1, 53, 82
3, 172016, Note_off_c, 1, 44, 80
3, 172016, Note_off_c, 1, 49, 80
3, 172016, Note_off_c, 1, 53, 80
3, 172080, Note_on_c, 1, 44, 82
3, 172080, Note_on_c, 1, 49, 82
3, 172080, Note_on_c, 1, 53, 82
3, 172256, Note_off_c, 1, 44, 80
3, 172256, Note_off_c, 1, 49, 80
3, 172256, Note_off_c, 1, 53, 80
3, 172320, Note_on_c, 1, 44, 82
3, 172320, Note_on_c, 1, 49, 82
3, 172320, Note_on_c, 1, 53, 82
3, 172496, Note_off_c, 1, 44, 80
3, 172496, Note_off_c, 1, 49, 80
3, 172496, Note_off_c, 1, 53, 80
3, 172560, Note_on_c, 1, 44, 82
3, 172560, Note_on_c, 1, 49, 82
3, 172560, Note_on_c, 1, 53, 82
3, 172736, Note_off_c, 1, 44, 80
3, 172736, Note_off_c, 1, 49, 80
3, 172736, Note_off_c, 1, 53, 80
3, 172800, Note_on_c, 1, 44, 82
3, 172800, Note_on_c, 1, 49, 82
3, 172800, Note_on_c, 1, 53, 82
3, 172976, Note_off_c, 1, 44, 80
3, 172976, Note_off_c, 1, 49, 80
3, 172976, Note_off_c, 1, 53, 80
3, 173040, Note_on_c, 1, 44, 82
3, 173040, Note_on_c, 1, 49, 82
3, 173040, Note_on_c, 1, 53, 82
3, 173216, Note_off_c, 1, 44, 80
3, 173216, Note_off_c, 1, 49, 80
3, 173216, Note_off_c, 1, 53, 80
3, 173280, Note_on_c, 1, 44, 82
3, 173280, Note_on_c, 1, 49, 82
3, 173280, Note_on_c, 1, 53, 82
3, 173456, Note_off_c, 1, 44, 80
3, 173456, Note_off_c, 1, 49, 80
3, 173456, Note_off_c, 1, 53, 80
3, 173520, Note_on_c, 1, 44, 82
3, 173520, Note_on_c, 1, 49, 82
3, 173520, Note_on_c, 1, 53, 82
3, 173696, Note_off_c, 1, 44, 80
3, 173696, Note_off_c, 1, 49, 80
3, 173696, Note_off_c, 1, 53, 80
3, 173760, Note_on_c, 1, 44, 82
3, 173760, Note_on_c, 1, 49, 82
3, 173760, Note_on_c, 1, 53, 82
3, 173936, Note_off_c, 1, 44, 80
3, 173936, Note_off_c, 1, 49, 80
3, 173936, Note_off_c, 1, 53, 80
3, 174000, Note_on_c, 1, 44, 82
3, 174000, Note_on_c, 1, 49, 82
3, 174000, Note_on_c, 1, 53, 82
3, 174176, Note_off_c, 1, 44, 80
3, 174176, Note_off_c, 1, 49, 80
3, 174176, Note_off_c, 1, 53, 80
3, 174240, Note_on_c, 1, 44, 82
3, 174240, Note_on_c, 1, 49, 82
3, 174240, Note_on_c, 1, 53, 82
3, 174416, Note_off_c, 1, 44, 80
3, 174416, Note_off_c, 1, 49, 80
3, 174416, Note_off_c, 1, 53, 80
3, 174480, Note_on_c, 1, 44, 82
3, 174480, Note_on_c, 1, 49, 82
3, 174480, Note_on_c, 1, 53, 82
3, 174656, Note_off_c, 1, 44, 80
3, 174656, Note_off_c, 1, 49, 80
3, 174656, Note_off_c, 1, 53, 80
3, 174720, Note_on_c, 1, 42, 101
3, 174720, Note_on_c, 1, 49, 101
3, 174956, Note_off_c, 1, 42, 80
3, 174956, Note_off_c, 1, 49, 80
3, 174960, Note_on_c, 1, 42, 101
3, 174960, Note_on_c, 1, 49, 101
3, 175196, Note_off_c, 1, 42, 80
3, 175196, Note_off_c, 1, 49, 80
3, 175200, Note_on_c, 1, 42, 101
3, 175200, Note_on_c, 1, 49, 101
3, 175436, Note_off_c, 1, 42, 80
3, 175436, Note_off_c, 1, 49, 80
3, 175440, Note_on_c, 1, 42, 101
3, 175440, Note_on_c, 1, 49, 101
3, 175676, Note_off_c, 1, 42, 80
3, 175676, Note_off_c, 1, 49, 80
3, 175680, Note_on_c, 1, 42, 101
3, 175680, Note_on_c, 1, 49, 101
3, 175916, Note_off_c, 1, 42, 80
3, 175916, Note_off_c, 1, 49, 80
3, 175920, Note_on_c, 1, 42, 101
3, 175920, Note_on_c, 1, 49, 101
3, 176156, Note_off_c, 1, 42, 80
3, 176156, Note_off_c, 1, 49, 80
3, 176160, Note_on_c, 1, 42, 101
3, 176160, Note_on_c, 1, 49, 101
3, 176396, Note_off_c, 1, 42, 80
3, 176396, Note_off_c, 1, 49, 80
3, 176400, Note_on_c, 1, 42, 101
3, 176400, Note_on_c, 1, 49, 101
3, 176636, Note_off_c, 1, 42, 80
3, 176636, Note_off_c, 1, 49, 80
3, 176640, Note_on_c, 1, 41, 101
3, 176640, Note_on_c, 1, 49, 101
3, 176876, Note_off_c, 1, 41, 80
3, 176876, Note_off_c, 1, 49, 80
3, 176880, Note_on_c, 1, 41, 101
3, 176880, Note_on_c, 1, 49, 101
3, 177116, Note_off_c, 1, 41, 80
3, 177116, Note_off_c, 1, 49, 80
3, 177120, Note_on_c, 1, 41, 101
3, 177120, Note_on_c, 1, 49, 101
3, 177356, Note_off_c, 1, 41, 80
3, 177356, Note_off_c, 1, 49, 80
3, 177360, Note_on_c, 1, 41, 101
3, 177360, Note_on_c, 1, 49, 101
3, 177596, Note_off_c, 1, 41, 80
3, 177596, Note_off_c, 1, 49, 80
3, 177600, Note_on_c, 1, 41, 101
3, 177600, Note_on_c, 1, 49, 101
3, 177836, Note_off_c, 1, 41, 80
3, 177836, Note_off_c, 1, 49, 80
3, 177840, Note_on_c, 1, 41, 101
3, 177840, Note_on_c, 1, 49, 101
3, 178076, Note_off_c, 1, 41, 80
3, 178076, Note_off_c, 1, 49, 80
3, 178080, Note_on_c, 1, 41, 101
3, 178080, Note_on_c, 1, 49, 101
3, 178316, Note_off_c, 1, 41, 80
3, 178316, Note_off_c, 1, 49, 80
3, 178320, Note_on_c, 1, 41, 101
3, 178320, Note_on_c, 1, 49, 101
3, 178556, Note_off_c, 1, 41, 80
3, 178556, Note_off_c, 1, 49, 80
3, 178560, Note_on_c, 1, 44, 101
3, 178560, Note_on_c, 1, 51, 101
3, 178796, Note_off_c, 1, 44, 80
3, 178796, Note_off_c, 1, 51, 80
3, 178800, Note_on_c, 1, 44, 101
3, 178800, Note_on_c, 1, 51, 101
3, 179036, Note_off_c, 1, 44, 80
3, 179036, Note_off_c, 1, 51, 80
3, 179040, Note_on_c, 1, 44, 101
3, 179040, Note_on_c, 1, 51, 101
3, 179276, Note_off_c, 1, 44, 80
3, 179276, Note_off_c, 1, 51, 80
3, 179280, Note_on_c, 1, 44, 101
3, 179280, Note_on_c, 1, 51, 101
3, 179516, Note_off_c, 1, 44, 80
3, 179516, Note_off_c, 1, 51, 80
3, 179520, Note_on_c, 1, 44, 101
3, 179520, Note_on_c, 1, 51, 101
3, 179756, Note_off_c, 1, 44, 80
3, 179756, Note_off_c, 1, 51, 80
3, 179760, Note_on_c, 1, 44, 101
3, 179760, Note_on_c, 1, 51, 101
3, 179996, Note_off_c, 1, 44, 80
3, 179996, Note_off_c, 1, 51, 80
3, 180000, Note_on_c, 1, 44, 101
3, 180000, Note_on_c, 1, 51, 101
3, 180236, Note_off_c, 1, 44, 80
3, 180236, Note_off_c, 1, 51, 80
3, 180240, Note_on_c, 1, 44, 101
3, 180240, Note_on_c, 1, 51, 101
3, 180476, Note_off_c, 1, 44, 80
3, 180476, Note_off_c, 1, 51, 80
3, 180480, Note_on_c, 1, 44, 101
3, 180480, Note_on_c, 1, 51, 101
3, 180716, Note_off_c, 1, 44, 80
3, 180716, Note_off_c, 1, 51, 80
3, 180720, Note_on_c, 1, 44, 101
3, 180720, Note_on_c, 1, 51, 101
3, 180956, Note_off_c, 1, 44, 80
3, 180956, Note_off_c, 1, 51, 80
3, 180960, Note_on_c, 1, 44, 101
3, 180960, Note_on_c, 1, 51, 101
3, 181196, Note_off_c, 1, 44, 80
3, 181196, Note_off_c, 1, 51, 80
3, 181200, Note_on_c, 1, 44, 101
3, 181200, Note_on_c, 1, 51, 101
3, 181436, Note_off_c, 1, 44, 80
3, 181436, Note_off_c, 1, 51, 80
3, 181440, Note_on_c, 1, 44, 101
3, 181440, Note_on_c, 1, 51, 101
3, 181676, Note_off_c, 1, 44, 80
3, 181676, Note_off_c, 1, 51, 80
3, 181680, Note_on_c, 1, 44, 101
3, 181680, Note_on_c, 1, 51, 101
3, 181916, Note_off_c, 1, 44, 80
3, 181916, Note_off_c, 1, 51, 80
3, 181920, Note_on_c, 1, 44, 101
3, 181920, Note_on_c, 1, 51, 101
3, 182156, Note_off_c, 1, 44, 80
3, 182156, Note_off_c, 1, 51, 80
3, 182160, Note_on_c, 1, 44, 101
3, 182160, Note_on_c, 1, 51, 101
3, 182396, Note_off_c, 1, 44, 80
3, 182396, Note_off_c, 1, 51, 80
3, 182400, Note_on_c, 1, 42, 101
3, 182400, Note_on_c, 1, 49, 101
3, 182636, Note_off_c, 1, 42, 80
3, 182636, Note_off_c, 1, 49, 80
3, 182640, Note_on_c, 1, 42, 101
3, 182640, Note_on_c, 1, 49, 101
3, 182876, Note_off_c, 1, 42, 80
3, 182876, Note_off_c, 1, 49, 80
3, 182880, Note_on_c, 1, 42, 101
3, 182880, Note_on_c, 1, 49, 101
3, 183116, Note_off_c, 1, 42, 80
3, 183116, Note_off_c, 1, 49, 80
3, 183120, Note_on_c, 1, 42, 101
3, 183120, Note_on_c, 1, 49, 101
3, 183356, Note_off_c, 1, 42, 80
3, 183356, Note_off_c, 1, 49, 80
3, 183360, Note_on_c, 1, 42, 101
3, 183360, Note_on_c, 1, 49, 101
3, 183596, Note_off_c, 1, 42, 80
3, 183596, Note_off_c, 1, 49, 80
3, 183600, Note_on_c, 1, 42, 101
3, 183600, Note_on_c, 1, 49, 101
3, 183836, Note_off_c, 1, 42, 80
3, 183836, Note_off_c, 1, 49, 80
3, 183840, Note_on_c, 1, 42, 101
3, 183840, Note_on_c, 1, 49, 101
3, 184076, Note_off_c, 1, 42, 80
3, 184076, Note_off_c, 1, 49, 80
3, 184080, Note_on_c, 1, 42, 101
3, 184080, Note_on_c, 1, 49, 101
3, 184316, Note_off_c, 1, 42, 80
3, 184316, Note_off_c, 1, 49, 80
3, 184320, Note_on_c, 1, 41, 101
3, 184320, Note_on_c, 1, 49, 101
3, 184556, Note_off_c, 1, 41, 80
3, 184556, Note_off_c, 1, 49, 80
3, 184560, Note_on_c, 1, 41, 101
3, 184560, Note_on_c, 1, 49, 101
3, 184796, Note_off_c, 1, 41, 80
3, 184796, Note_off_c, 1, 49, 80
3, 184800, Note_on_c, 1, 41, 101
3, 184800, Note_on_c, 1, 49, 101
3, 185036, Note_off_c, 1, 41, 80
3, 185036, Note_off_c, 1, 49, 80
3, 185040, Note_on_c, 1, 41, 101
3, 185040, Note_on_c, 1, 49, 101
3, 185276, Note_off_c, 1, 41, 80
3, 185276, Note_off_c, 1, 49, 80
3, 185280, Note_on_c, 1, 41, 101
3, 185280, Note_on_c, 1, 49, 101
3, 185516, Note_off_c, 1, 41, 80
3, 185516, Note_off_c, 1, 49, 80
3, 185520, Note_on_c, 1, 41, 101
3, 185520, Note_on_c, 1, 49, 101
3, 185756, Note_off_c, 1, 41, 80
3, 185756, Note_off_c, 1, 49, 80
3, 185760, Note_on_c, 1, 41, 101
3, 185760, Note_on_c, 1, 49, 101
3, 185996, Note_off_c, 1, 41, 80
3, 185996, Note_off_c, 1, 49, 80
3, 186000, Note_on_c, 1, 41, 101
3, 186000, Note_on_c, 1, 49, 101
3, 186236, Note_off_c, 1, 41, 80
3, 186236, Note_off_c, 1, 49, 80
3, 186240, Note_on_c, 1, 44, 101
3, 186240, Note_on_c, 1, 51, 101
3, 186476, Note_off_c, 1, 44, 80
3, 186476, Note_off_c, 1, 51, 80
3, 186480, Note_on_c, 1, 44, 101
3, 186480, Note_on_c, 1, 51, 101
3, 186716, Note_off_c, 1, 44, 80
3, 186716, Note_off_c, 1, 51, 80
3, 186720, Note_on_c, 1, 44, 101
3, 186720, Note_on_c, 1, 51, 101
3, 186956, Note_off_c, 1, 44, 80
3, 186956, Note_off_c, 1, 51, 80
3, 186960, Note_on_c, 1, 44, 101
3, 186960, Note_on_c, 1, 51, 101
3, 187196, Note_off_c, 1, 44, 80
3, 187196, Note_off_c, 1, 51, 80
3, 187200, Note_on_c, 1, 44, 101
3, 187200, Note_on_c, 1, 51, 101
3, 187436, Note_off_c, 1, 44, 80
3, 187436, Note_off_c, 1, 51, 80
3, 187440, Note_on_c, 1, 44, 101
3, 187440, Note_on_c, 1, 51, 101
3, 187676, Note_off_c, 1, 44, 80
3, 187676, Note_off_c, 1, 51, 80
3, 187680, Note_on_c, 1, 44, 101
3, 187680, Note_on_c, 1, 51, 101
3, 187916, Note_off_c, 1, 44, 80
3, 187916, Note_off_c, 1, 51, 80
3, 187920, Note_on_c, 1, 44, 101
3, 187920, Note_on_c, 1, 51, 101
3, 188156, Note_off_c, 1, 44, 80
3, 188156, Note_off_c, 1, 51, 80
3, 188160, Note_on_c, 1, 44, 101
3, 188160, Note_on_c, 1, 51, 101
3, 188396, Note_off_c, 1, 44, 80
3, 188396, Note_off_c, 1, 51, 80
3, 188400, Note_on_c, 1, 44, 101
3, 188400, Note_on_c, 1, 51, 101
3, 188636, Note_off_c, 1, 44, 80
3, 188636, Note_off_c, 1, 51, 80
3, 188640, Note_on_c, 1, 44, 101
3, 188640, Note_on_c, 1, 51, 101
3, 188876, Note_off_c, 1, 44, 80
3, 188876, Note_off_c, 1, 51, 80
3, 188880, Note_on_c, 1, 44, 101
3, 188880, Note_on_c, 1, 51, 101
3, 189116, Note_off_c, 1, 44, 80
3, 189116, Note_off_c, 1, 51, 80
3, 189120, Note_on_c, 1, 44, 101
3, 189120, Note_on_c, 1, 51, 101
3, 189356, Note_off_c, 1, 44, 80
3, 189356, Note_off_c, 1, 51, 80
3, 189360, Note_on_c, 1, 44, 101
3, 189360, Note_on_c, 1, 51, 101
3, 189596, Note_off_c, 1, 44, 80
3, 189596, Note_off_c, 1, 51, 80
3, 189600, Note_on_c, 1, 44, 101
3, 189600, Note_on_c, 1, 51, 101
3, 189836, Note_off_c, 1, 44, 80
3, 189836, Note_off_c, 1, 51, 80
3, 189840, Note_on_c, 1, 44, 101
3, 189840, Note_on_c, 1, 51, 101
3, 190076, Note_off_c, 1, 44, 80
3, 190076, Note_off_c, 1, 51, 80
3, 190080, Note_on_c, 1, 42, 101
3, 190080, Note_on_c, 1, 49, 101
3, 190316, Note_off_c, 1, 42, 80
3, 190316, Note_off_c, 1, 49, 80
3, 190320, Note_on_c, 1, 42, 101
3, 190320, Note_on_c, 1, 49, 101
3, 190556, Note_off_c, 1, 42, 80
3, 190556, Note_off_c, 1, 49, 80
3, 190560, Note_on_c, 1, 42, 101
3, 190560, Note_on_c, 1, 49, 101
3, 190796, Note_off_c, 1, 42, 80
3, 190796, Note_off_c, 1, 49, 80
3, 190800, Note_on_c, 1, 42, 101
3, 190800, Note_on_c, 1, 49, 101
3, 191036, Note_off_c, 1, 42, 80
3, 191036, Note_off_c, 1, 49, 80
3, 191040, Note_on_c, 1, 42, 101
3, 191040, Note_on_c, 1, 49, 101
3, 191276, Note_off_c, 1, 42, 80
3, 191276, Note_off_c, 1, 49, 80
3, 191280, Note_on_c, 1, 42, 101
3, 191280, Note_on_c, 1, 49, 101
3, 191516, Note_off_c, 1, 42, 80
3, 191516, Note_off_c, 1, 49, 80
3, 191520, Note_on_c, 1, 42, 101
3, 191520, Note_on_c, 1, 49, 101
3, 191756, Note_off_c, 1, 42, 80
3, 191756, Note_off_c, 1, 49, 80
3, 191760, Note_on_c, 1, 42, 101
3, 191760, Note_on_c, 1, 49, 101
3, 191996, Note_off_c, 1, 42, 80
3, 191996, Note_off_c, 1, 49, 80
3, 192000, Note_on_c, 1, 42, 101
3, 192000, Note_on_c, 1, 49, 101
3, 192236, Note_off_c, 1, 42, 80
3, 192236, Note_off_c, 1, 49, 80
3, 192240, Note_on_c, 1, 42, 101
3, 192240, Note_on_c, 1, 49, 101
3, 192476, Note_off_c, 1, 42, 80
3, 192476, Note_off_c, 1, 49, 80
3, 192480, Note_on_c, 1, 42, 101
3, 192480, Note_on_c, 1, 49, 101
3, 192716, Note_off_c, 1, 42, 80
3, 192716, Note_off_c, 1, 49, 80
3, 192720, Note_on_c, 1, 42, 101
3, 192720, Note_on_c, 1, 49, 101
3, 192956, Note_off_c, 1, 42, 80
3, 192956, Note_off_c, 1, 49, 80
3, 192960, Note_on_c, 1, 42, 101
3, 192960, Note_on_c, 1, 49, 101
3, 193196, Note_off_c, 1, 42, 80
3, 193196, Note_off_c, 1, 49, 80
3, 193200, Note_on_c, 1, 42, 101
3, 193200, Note_on_c, 1, 49, 101
3, 193436, Note_off_c, 1, 42, 80
3, 193436, Note_off_c, 1, 49, 80
3, 193440, Note_on_c, 1, 42, 101
3, 193440, Note_on_c, 1, 49, 101
3, 193676, Note_off_c, 1, 42, 80
3, 193676, Note_off_c, 1, 49, 80
3, 193680, Note_on_c, 1, 42, 101
3, 193680, Note_on_c, 1, 49, 101
3, 193916, Note_off_c, 1, 42, 80
3, 193916, Note_off_c, 1, 49, 80
3, 193920, Note_on_c, 1, 42, 101
3, 193920, Note_on_c, 1, 49, 101
3, 194156, Note_off_c, 1, 42, 80
3, 194156, Note_off_c, 1, 49, 80
3, 194160, Note_on_c, 1, 42, 101
3, 194160, Note_on_c, 1, 49, 101
3, 194396, Note_off_c, 1, 42, 80
3, 194396, Note_off_c, 1, 49, 80
3, 194400, Note_on_c, 1, 42, 101
3, 194400, Note_on_c, 1, 49, 101
3, 194636, Note_off_c, 1, 42, 80
3, 194636, Note_off_c, 1, 49, 80
3, 194640, Note_on_c, 1, 42, 101
3, 194640, Note_on_c, 1, 49, 101
3, 194876, Note_off_c, 1, 42, 80
3, 194876, Note_off_c, 1, 49, 80
3, 194880, Note_on_c, 1, 42, 101
3, 194880, Note_on_c, 1, 49, 101
3, 195116, Note_off_c, 1, 42, 80
3, 195116, Note_off_c, 1, 49, 80
3, 195120, Note_on_c, 1, 42, 101
3, 195120, Note_on_c, 1, 49, 101
3, 195356, Note_off_c, 1, 42, 80
3, 195356, Note_off_c, 1, 49, 80
3, 195360, Note_on_c, 1, 42, 101
3, 195360, Note_on_c, 1, 49, 101
3, 195596, Note_off_c, 1, 42, 80
3, 195596, Note_off_c, 1, 49, 80
3, 195600, Note_on_c, 1, 42, 101
3, 195600, Note_on_c, 1, 49, 101
3, 195836, Note_off_c, 1, 42, 80
3, 195836, Note_off_c, 1, 49, 80
3, 195840, Note_on_c, 1, 42, 101
3, 195840, Note_on_c, 1, 49, 101
3, 196076, Note_off_c, 1, 42, 80
3, 196076, Note_off_c, 1, 49, 80
3, 196080, Note_on_c, 1, 42, 101
3, 196080, Note_on_c, 1, 49, 101
3, 196316, Note_off_c, 1, 42, 80
3, 196316, Note_off_c, 1, 49, 80
3, 196320, Note_on_c, 1, 42, 101
3, 196320, Note_on_c, 1, 49, 101
3, 196556, Note_off_c, 1, 42, 80
3, 196556, Note_off_c, 1, 49, 80
3, 196560, Note_on_c, 1, 42, 101
3, 196560, Note_on_c, 1, 49, 101
3, 196796, Note_off_c, 1, 42, 80
3, 196796, Note_off_c, 1, 49, 80
3, 196800, Note_on_c, 1, 42, 101
3, 196800, Note_on_c, 1, 49, 101
3, 197036, Note_off_c, 1, 42, 80
3, 197036, Note_off_c, 1, 49, 80
3, 197040, Note_on_c, 1, 42, 101
3, 197040, Note_on_c, 1, 49, 101
3, 197276, Note_off_c, 1, 42, 80
3, 197276, Note_off_c, 1, 49, 80
3, 197280, Note_on_c, 1, 42, 101
3, 197280, Note_on_c, 1, 49, 101
3, 197516, Note_off_c, 1, 42, 80
3, 197516, Note_off_c, 1, 49, 80
3, 197520, Note_on_c, 1, 42, 101
3, 197520, Note_on_c, 1, 49, 101
3, 197756, Note_off_c, 1, 42, 80
3, 197756, Note_off_c, 1, 49, 80
3, 197760, Note_on_c, 1, 42, 101
3, 197760, Note_on_c, 1, 49, 101
3, 197996, Note_off_c, 1, 42, 80
3, 197996, Note_off_c, 1, 49, 80
3, 198000, Note_on_c, 1, 42, 101
3, 198000, Note_on_c, 1, 49, 101
3, 198236, Note_off_c, 1, 42, 80
3, 198236, Note_off_c, 1, 49, 80
3, 198240, Note_on_c, 1, 42, 101
3, 198240, Note_on_c, 1, 49, 101
3, 198476, Note_off_c, 1, 42, 80
3, 198476, Note_off_c, 1, 49, 80
3, 198480, Note_on_c, 1, 42, 101
3, 198480, Note_on_c, 1, 49, 101
3, 198716, Note_off_c, 1, 42, 80
3, 198716, Note_off_c, 1, 49, 80
3, 198720, Note_on_c, 1, 42, 101
3, 198720, Note_on_c, 1, 49, 101
3, 198956, Note_off_c, 1, 42, 80
3, 198956, Note_off_c, 1, 49, 80
3, 198960, Note_on_c, 1, 42, 101
3, 198960, Note_on_c, 1, 49, 101
3, 199196, Note_off_c, 1, 42, 80
3, 199196, Note_off_c, 1, 49, 80
3, 199200, Note_on_c, 1, 42, 101
3, 199200, Note_on_c, 1, 49, 101
3, 199436, Note_off_c, 1, 42, 80
3, 199436, Note_off_c, 1, 49, 80
3, 199440, Note_on_c, 1, 42, 101
3, 199440, Note_on_c, 1, 49, 101
3, 199676, Note_off_c, 1, 42, 80
3, 199676, Note_off_c, 1, 49, 80
3, 199680, Note_on_c, 1, 42, 101
3, 199680, Note_on_c, 1, 49, 101
3, 199916, Note_off_c, 1, 42, 80
3, 199916, Note_off_c, 1, 49, 80
3, 199920, Note_on_c, 1, 42, 101
3, 199920, Note_on_c, 1, 49, 101
3, 200156, Note_off_c, 1, 42, 80
3, 200156, Note_off_c, 1, 49, 80
3, 200160, Note_on_c, 1, 42, 101
3, 200160, Note_on_c, 1, 49, 101
3, 200396, Note_off_c, 1, 42, 80
3, 200396, Note_off_c, 1, 49, 80
3, 200400, Note_on_c, 1, 42, 101
3, 200400, Note_on_c, 1, 49, 101
3, 200636, Note_off_c, 1, 42, 80
3, 200636, Note_off_c, 1, 49, 80
3, 200640, Note_on_c, 1, 42, 101
3, 200640, Note_on_c, 1, 49, 101
3, 200876, Note_off_c, 1, 42, 80
3, 200876, Note_off_c, 1, 49, 80
3, 200880, Note_on_c, 1, 42, 101
3, 200880, Note_on_c, 1, 49, 101
3, 201116, Note_off_c, 1, 42, 80
3, 201116, Note_off_c, 1, 49, 80
3, 201120, Note_on_c, 1, 42, 101
3, 201120, Note_on_c, 1, 49, 101
3, 201356, Note_off_c, 1, 42, 80
3, 201356, Note_off_c, 1, 49, 80
3, 201360, Note_on_c, 1, 42, 101
3, 201360, Note_on_c, 1, 49, 101
3, 201596, Note_off_c, 1, 42, 80
3, 201596, Note_off_c, 1, 49, 80
3, 201600, Note_on_c, 1, 42, 101
3, 201600, Note_on_c, 1, 49, 101
3, 201836, Note_off_c, 1, 42, 80
3, 201836, Note_off_c, 1, 49, 80
3, 201840, Note_on_c, 1, 42, 101
3, 201840, Note_on_c, 1, 49, 101
3, 202076, Note_off_c, 1, 42, 80
3, 202076, Note_off_c, 1, 49, 80
3, 202080, Note_on_c, 1, 42, 101
3, 202080, Note_on_c, 1, 49, 101
3, 202316, Note_off_c, 1, 42, 80
3, 202316, Note_off_c, 1, 49, 80
3, 202320, Note_on_c, 1, 42, 101
3, 202320, Note_on_c, 1, 49, 101
3, 202556, Note_off_c, 1, 42, 80
3, 202556, Note_off_c, 1, 49, 80
3, 202560, Note_on_c, 1, 42, 101
3, 202560, Note_on_c, 1, 49, 101
3, 202796, Note_off_c, 1, 42, 80
3, 202796, Note_off_c, 1, 49, 80
3, 202800, Note_on_c, 1, 42, 101
3, 202800, Note_on_c, 1, 49, 101
3, 203036, Note_off_c, 1, 42, 80
3, 203036, Note_off_c, 1, 49, 80
3, 203040, Note_on_c, 1, 42, 101
3, 203040, Note_on_c, 1, 49, 101
3, 203276, Note_off_c, 1, 42, 80
3, 203276, Note_off_c, 1, 49, 80
3, 203280, Note_on_c, 1, 42, 101
3, 203280, Note_on_c, 1, 49, 101
3, 203516, Note_off_c, 1, 42, 80
3, 203516, Note_off_c, 1, 49, 80
3, 203520, Note_on_c, 1, 42, 101
3, 203520, Note_on_c, 1, 49, 101
3, 203756, Note_off_c, 1, 42, 80
3, 203756, Note_off_c, 1, 49, 80
3, 203760, Note_on_c, 1, 42, 101
3, 203760, Note_on_c, 1, 49, 101
3, 203996, Note_off_c, 1, 42, 80
3, 203996, Note_off_c, 1, 49, 80
3, 204000, Note_on_c, 1, 42, 101
3, 204000, Note_on_c, 1, 49, 101
3, 204236, Note_off_c, 1, 42, 80
3, 204236, Note_off_c, 1, 49, 80
3, 204240, Note_on_c, 1, 42, 101
3, 204240, Note_on_c, 1, 49, 101
3, 204476, Note_off_c, 1, 42, 80
3, 204476, Note_off_c, 1, 49, 80
3, 204480, Note_on_c, 1, 42, 101
3, 204480, Note_on_c, 1, 49, 101
3, 204716, Note_off_c, 1, 42, 80
3, 204716, Note_off_c, 1, 49, 80
3, 204720, Note_on_c, 1, 42, 101
3, 204720, Note_on_c, 1, 49, 101
3, 204956, Note_off_c, 1, 42, 80
3, 204956, Note_off_c, 1, 49, 80
3, 204960, Note_on_c, 1, 42, 101
3, 204960, Note_on_c, 1, 49, 101
3, 205196, Note_off_c, 1, 42, 80
3, 205196, Note_off_c, 1, 49, 80
3, 205200, Note_on_c, 1, 42, 101
3, 205200, Note_on_c, 1, 49, 101
3, 205436, Note_off_c, 1, 42, 80
3, 205436, Note_off_c, 1, 49, 80
3, 205440, Note_on_c, 1, 41, 101
3, 205440, Note_on_c, 1, 48, 101
3, 205676, Note_off_c, 1, 41, 80
3, 205676, Note_off_c, 1, 48, 80
3, 205680, Note_on_c, 1, 41, 101
3, 205680, Note_on_c, 1, 48, 101
3, 205916, Note_off_c, 1, 41, 80
3, 205916, Note_off_c, 1, 48, 80
3, 205920, Note_on_c, 1, 41, 101
3, 205920, Note_on_c, 1, 48, 101
3, 206156, Note_off_c, 1, 41, 80
3, 206156, Note_off_c, 1, 48, 80
3, 206160, Note_on_c, 1, 41, 101
3, 206160, Note_on_c, 1, 48, 101
3, 206396, Note_off_c, 1, 41, 80
3, 206396, Note_off_c, 1, 48, 80
3, 206400, Note_on_c, 1, 41, 101
3, 206400, Note_on_c, 1, 48, 101
3, 206636, Note_off_c, 1, 41, 80
3, 206636, Note_off_c, 1, 48, 80
3, 206640, Note_on_c, 1, 41, 101
3, 206640, Note_on_c, 1, 48, 101
3, 206876, Note_off_c, 1, 41, 80
3, 206876, Note_off_c, 1, 48, 80
3, 206880, Note_on_c, 1, 41, 101
3, 206880, Note_on_c, 1, 48, 101
3, 207116, Note_off_c, 1, 41, 80
3, 207116, Note_off_c, 1, 48, 80
3, 207120, Note_on_c, 1, 41, 101
3, 207120, Note_on_c, 1, 48, 101
3, 207356, Note_off_c, 1, 41, 80
3, 207356, Note_off_c, 1, 48, 80
3, 207360, Note_on_c, 1, 46, 101
3, 207360, Note_on_c, 1, 51, 101
3, 207360, Note_on_c, 1, 58, 101
3, 207836, Note_off_c, 1, 46, 80
3, 207836, Note_off_c, 1, 51, 80
3, 207836, Note_off_c, 1, 58, 80
3, 207840, Note_on_c, 1, 46, 101
3, 207840, Note_on_c, 1, 51, 101
3, 207840, Note_on_c, 1, 58, 101
3, 208316, Note_off_c, 1, 46, 80
3, 208316, Note_off_c, 1, 51, 80
3, 208316, Note_off_c, 1, 58, 80
3, 208320, Note_on_c, 1, 46, 101
3, 208320, Note_on_c, 1, 51, 101
3, 208320, Note_on_c, 1, 58, 101
3, 208796, Note_off_c, 1, 46, 80
3, 208796, Note_off_c, 1, 51, 80
3, 208796, Note_off_c, 1, 58, 80
3, 209280, Note_on_c, 1, 44, 101
3, 209280, Note_on_c, 1, 51, 101
3, 209516, Note_off_c, 1, 44, 80
3, 209516, Note_off_c, 1, 51, 80
3, 209520, Note_on_c, 1, 44, 101
3, 209520, Note_on_c, 1, 51, 101
3, 209756, Note_off_c, 1, 44, 80
3, 209756, Note_off_c, 1, 51, 80
3, 209760, Note_on_c, 1, 44, 101
3, 209760, Note_on_c, 1, 51, 101
3, 209996, Note_off_c, 1, 44, 80
3, 209996, Note_off_c, 1, 51, 80
3, 210000, Note_on_c, 1, 44, 101
3, 210000, Note_on_c, 1, 51, 101
3, 210236, Note_off_c, 1, 44, 80
3, 210236, Note_off_c, 1, 51, 80
3, 210240, Note_on_c, 1, 44, 101
3, 210240, Note_on_c, 1, 51, 101
3, 210476, Note_off_c, 1, 44, 80
3, 210476, Note_off_c, 1, 51, 80
3, 210480, Note_on_c, 1, 44, 101
3, 210480, Note_on_c, 1, 51, 101
3, 210716, Note_off_c, 1, 44, 80
3, 210716, Note_off_c, 1, 51, 80
3, 210720, Note_on_c, 1, 44, 101
3, 210720, Note_on_c, 1, 51, 101
3, 210956, Note_off_c, 1, 44, 80
3, 210956, Note_off_c, 1, 51, 80
3, 210960, Note_on_c, 1, 44, 101
3, 210960, Note_on_c, 1, 51, 101
3, 211196, Note_off_c, 1, 44, 80
3, 211196, Note_off_c, 1, 51, 80
3, 211200, Note_on_c, 1, 44, 101
3, 211200, Note_on_c, 1, 49, 101
3, 211200, Note_on_c, 1, 53, 101
3, 211676, Note_off_c, 1, 44, 80
3, 211676, Note_off_c, 1, 49, 80
3, 211676, Note_off_c, 1, 53, 80
3, 211680, Note_on_c, 1, 44, 101
3, 211680, Note_on_c, 1, 49, 101
3, 211680, Note_on_c, 1, 53, 101
3, 212156, Note_off_c, 1, 44, 80
3, 212156, Note_off_c, 1, 49, 80
3, 212156, Note_off_c, 1, 53, 80
3, 212160, Note_on_c, 1, 44, 101
3, 212160, Note_on_c, 1, 49, 101
3, 212160, Note_on_c, 1, 53, 101
3, 212636, Note_off_c, 1, 44, 80
3, 212636, Note_off_c, 1, 49, 80
3, 212636, Note_off_c, 1, 53, 80
3, 213120, Note_on_c, 1, 41, 101
3, 213120, Note_on_c, 1, 46, 101
3, 213120, Note_on_c, 1, 53, 101
3, 213356, Note_off_c, 1, 41, 80
3, 213356, Note_off_c, 1, 46, 80
3, 213356, Note_off_c, 1, 53, 80
3, 213360, Note_on_c, 1, 41, 101
3, 213360, Note_on_c, 1, 46, 101
3, 213360, Note_on_c, 1, 53, 101
3, 213596, Note_off_c, 1, 41, 80
3, 213596, Note_off_c, 1, 46, 80
3, 213596, Note_off_c, 1, 53, 80
3, 213600, Note_on_c, 1, 41, 101
3, 213600, Note_on_c, 1, 46, 101
3, 213600, Note_on_c, 1, 53, 101
3, 213836, Note_off_c, 1, 41, 80
3, 213836, Note_off_c, 1, 46, 80
3, 213836, Note_off_c, 1, 53, 80
3, 213840, Note_on_c, 1, 41, 101
3, 213840, Note_on_c, 1, 46, 101
3, 213840, Note_on_c, 1, 53, 101
3, 214076, Note_off_c, 1, 41, 80
3, 214076, Note_off_c, 1, 46, 80
3, 214076, Note_off_c, 1, 53, 80
3, 214080, Note_on_c, 1, 41, 101
3, 214080, Note_on_c, 1, 46, 101
3, 214080, Note_on_c, 1, 53, 101
3, 214316, Note_off_c, 1, 41, 80
3, 214316, Note_off_c, 1, 46, 80
3, 214316, Note_off_c, 1, 53, 80
3, 214320, Note_on_c, 1, 41, 101
3, 214320, Note_on_c, 1, 46, 101
3, 214320, Note_on_c, 1, 53, 101
3, 214556, Note_off_c, 1, 41, 80
3, 214556, Note_off_c, 1, 46, 80
3, 214556, Note_off_c, 1, 53, 80
3, 214560, Note_on_c, 1, 41, 101
3, 214560, Note_on_c, 1, 46, 101
3, 214560, Note_on_c, 1, 53, 101
3, 214796, Note_off_c, 1, 41, 80
3, 214796, Note_off_c, 1, 46, 80
3, 214796, Note_off_c, 1, 53, 80
3, 214800, Note_on_c, 1, 41, 101
3, 214800, Note_on_c, 1, 46, 101
3, 214800, Note_on_c, 1, 53, 101
3, 215036, Note_off_c, 1, 41, 80
3, 215036, Note_off_c, 1, 46, 80
3, 215036, Note_off_c, 1, 53, 80
3, 215040, Note_on_c, 1, 41, 101
3, 215040, Note_on_c, 1, 46, 101
3, 215040, Note_on_c, 1, 53, 101
3, 215276, Note_off_c, 1, 41, 80
3, 215276, Note_off_c, 1, 46, 80
3, 215276, Note_off_c, 1, 53, 80
3, 215280, Note_on_c, 1, 41, 101
3, 215280, Note_on_c, 1, 46, 101
3, 215280, Note_on_c, 1, 53, 101
3, 215516, Note_off_c, 1, 41, 80
3, 215516, Note_off_c, 1, 46, 80
3, 215516, Note_off_c, 1, 53, 80
3, 215520, Note_on_c, 1, 41, 101
3, 215520, Note_on_c, 1, 46, 101
3, 215520, Note_on_c, 1, 53, 101
3, 215756, Note_off_c, 1, 41, 80
3, 215756, Note_off_c, 1, 46, 80
3, 215756, Note_off_c, 1, 53, 80
3, 215760, Note_on_c, 1, 41, 101
3, 215760, Note_on_c, 1, 46, 101
3, 215760, Note_on_c, 1, 53, 101
3, 215996, Note_off_c, 1, 41, 80
3, 215996, Note_off_c, 1, 46, 80
3, 215996, Note_off_c, 1, 53, 80
3, 216000, Note_on_c, 1, 41, 101
3, 216000, Note_on_c, 1, 46, 101
3, 216000, Note_on_c, 1, 53, 101
3, 216236, Note_off_c, 1, 41, 80
3, 216236, Note_off_c, 1, 46, 80
3, 216236, Note_off_c, 1, 53, 80
3, 216240, Note_on_c, 1, 41, 101
3, 216240, Note_on_c, 1, 46, 101
3, 216240, Note_on_c, 1, 53, 101
3, 216476, Note_off_c, 1, 41, 80
3, 216476, Note_off_c, 1, 46, 80
3, 216476, Note_off_c, 1, 53, 80
3, 216480, Note_on_c, 1, 41, 101
3, 216480, Note_on_c, 1, 46, 101
3, 216480, Note_on_c, 1, 53, 101
3, 216716, Note_off_c, 1, 41, 80
3, 216716, Note_off_c, 1, 46, 80
3, 216716, Note_off_c, 1, 53, 80
3, 216720, Note_on_c, 1, 41, 101
3, 216720, Note_on_c, 1, 46, 101
3, 216720, Note_on_c, 1, 53, 101
3, 216956, Note_off_c, 1, 41, 80
3, 216956, Note_off_c, 1, 46, 80
3, 216956, Note_off_c, 1, 53, 80
3, 216960, Note_on_c, 1, 44, 101
3, 216960, Note_on_c, 1, 49, 101
3, 216960, Note_on_c, 1, 56, 101
3, 217196, Note_off_c, 1, 44, 80
3, 217196, Note_off_c, 1, 49, 80
3, 217196, Note_off_c, 1, 56, 80
3, 217200, Note_on_c, 1, 44, 101
3, 217200, Note_on_c, 1, 49, 101
3, 217200, Note_on_c, 1, 56, 101
3, 217436, Note_off_c, 1, 44, 80
3, 217436, Note_off_c, 1, 49, 80
3, 217436, Note_off_c, 1, 56, 80
3, 217440, Note_on_c, 1, 44, 101
3, 217440, Note_on_c, 1, 49, 101
3, 217440, Note_on_c, 1, 56, 101
3, 217676, Note_off_c, 1, 44, 80
3, 217676, Note_off_c, 1, 49, 80
3, 217676, Note_off_c, 1, 56, 80
3, 217680, Note_on_c, 1, 44, 101
3, 217680, Note_on_c, 1, 49, 101
3, 217680, Note_on_c, 1, 56, 101
3, 217916, Note_off_c, 1, 44, 80
3, 217916, Note_off_c, 1, 49, 80
3, 217916, Note_off_c, 1, 56, 80
3, 217920, Note_on_c, 1, 44, 101
3, 217920, Note_on_c, 1, 49, 101
3, 217920, Note_on_c, 1, 56, 101
3, 218156, Note_off_c, 1, 44, 80
3, 218156, Note_off_c, 1, 49, 80
3, 218156, Note_off_c, 1, 56, 80
3, 218160, Note_on_c, 1, 44, 101
3, 218160, Note_on_c, 1, 49, 101
3, 218160, Note_on_c, 1, 56, 101
3, 218396, Note_off_c, 1, 44, 80
3, 218396, Note_off_c, 1, 49, 80
3, 218396, Note_off_c, 1, 56, 80
3, 218400, Note_on_c, 1, 44, 101
3, 218400, Note_on_c, 1, 49, 101
3, 218400, Note_on_c, 1, 56, 101
3, 218636, Note_off_c, 1, 44, 80
3, 218636, Note_off_c, 1, 49, 80
3, 218636, Note_off_c, 1, 56, 80
3, 218640, Note_on_c, 1, 44, 101
3, 218640, Note_on_c, 1, 49, 101
3, 218640, Note_on_c, 1, 56, 101
3, 218876, Note_off_c, 1, 44, 80
3, 218876, Note_off_c, 1, 49, 80
3, 218876, Note_off_c, 1, 56, 80
3, 218880, Note_on_c, 1, 44, 101
3, 218880, Note_on_c, 1, 49, 101
3, 218880, Note_on_c, 1, 56, 101
3, 219116, Note_off_c, 1, 44, 80
3, 219116, Note_off_c, 1, 49, 80
3, 219116, Note_off_c, 1, 56, 80
3, 219120, Note_on_c, 1, 44, 101
3, 219120, Note_on_c, 1, 49, 101
3, 219120, Note_on_c, 1, 56, 101
3, 219356, Note_off_c, 1, 44, 80
3, 219356, Note_off_c, 1, 49, 80
3, 219356, Note_off_c, 1, 56, 80
3, 219360, Note_on_c, 1, 44, 101
3, 219360, Note_on_c, 1, 49, 101
3, 219360, Note_on_c, 1, 56, 101
3, 219596, Note_off_c, 1, 44, 80
3, 219596, Note_off_c, 1, 49, 80
3, 219596, Note_off_c, 1, 56, 80
3, 219600, Note_on_c, 1, 44, 101
3, 219600, Note_on_c, 1, 49, 101
3, 219600, Note_on_c, 1, 56, 101
3, 219836, Note_off_c, 1, 44, 80
3, 219836, Note_off_c, 1, 49, 80
3, 219836, Note_off_c, 1, 56, 80
3, 219840, Note_on_c, 1, 44, 101
3, 219840, Note_on_c, 1, 49, 101
3, 219840, Note_on_c, 1, 56, 101
3, 220076, Note_off_c, 1, 44, 80
3, 220076, Note_off_c, 1, 49, 80
3, 220076, Note_off_c, 1, 56, 80
3, 220080, Note_on_c, 1, 44, 101
3, 220080, Note_on_c, 1, 49, 101
3, 220080, Note_on_c, 1, 56, 101
3, 220316, Note_off_c, 1, 44, 80
3, 220316, Note_off_c, 1, 49, 80
3, 220316, Note_off_c, 1, 56, 80
3, 220320, Note_on_c, 1, 44, 101
3, 220320, Note_on_c, 1, 49, 101
3, 220320, Note_on_c, 1, 56, 101
3, 220556, Note_off_c, 1, 44, 80
3, 220556, Note_off_c, 1, 49, 80
3, 220556, Note_off_c, 1, 56, 80
3, 220560, Note_on_c, 1, 44, 101
3, 220560, Note_on_c, 1, 49, 101
3, 220560, Note_on_c, 1, 56, 101
3, 220796, Note_off_c, 1, 44, 80
3, 220796, Note_off_c, 1, 49, 80
3, 220796, Note_off_c, 1, 56, 80
3, 220800, Note_on_c, 1, 44, 82
3, 220800, Note_on_c, 1, 51, 82
3, 220976, Note_off_c, 1, 44, 80
3, 220976, Note_off_c, 1, 51, 80
3, 221040, Note_on_c, 1, 44, 82
3, 221040, Note_on_c, 1, 51, 82
3, 221216, Note_off_c, 1, 44, 80
3, 221216, Note_off_c, 1, 51, 80
3, 221280, Note_on_c, 1, 44, 82
3, 221280, Note_on_c, 1, 51, 82
3, 221456, Note_off_c, 1, 44, 80
3, 221456, Note_off_c, 1, 51, 80
3, 221520, Note_on_c, 1, 44, 82
3, 221520, Note_on_c, 1, 51, 82
3, 221696, Note_off_c, 1, 44, 80
3, 221696, Note_off_c, 1, 51, 80
3, 221760, Note_on_c, 1, 44, 82
3, 221760, Note_on_c, 1, 51, 82
3, 221936, Note_off_c, 1, 44, 80
3, 221936, Note_off_c, 1, 51, 80
3, 222000, Note_on_c, 1, 44, 82
3, 222000, Note_on_c, 1, 51, 82
3, 222176, Note_off_c, 1, 44, 80
3, 222176, Note_off_c, 1, 51, 80
3, 222240, Note_on_c, 1, 44, 82
3, 222240, Note_on_c, 1, 51, 82
3, 222416, Note_off_c, 1, 44, 80
3, 222416, Note_off_c, 1, 51, 80
3, 222480, Note_on_c, 1, 44, 82
3, 222480, Note_on_c, 1, 51, 82
3, 222656, Note_off_c, 1, 44, 80
3, 222656, Note_off_c, 1, 51, 80
3, 222720, Note_on_c, 1, 44, 82
3, 222720, Note_on_c, 1, 51, 82
3, 222896, Note_off_c, 1, 44, 80
3, 222896, Note_off_c, 1, 51, 80
3, 222960, Note_on_c, 1, 44, 82
3, 222960, Note_on_c, 1, 51, 82
3, 223136, Note_off_c, 1, 44, 80
3, 223136, Note_off_c, 1, 51, 80
3, 223200, Note_on_c, 1, 44, 82
3, 223200, Note_on_c, 1, 51, 82
3, 223376, Note_off_c, 1, 44, 80
3, 223376, Note_off_c, 1, 51, 80
3, 223440, Note_on_c, 1, 44, 82
3, 223440, Note_on_c, 1, 51, 82
3, 223616, Note_off_c, 1, 44, 80
3, 223616, Note_off_c, 1, 51, 80
3, 223680, Note_on_c, 1, 44, 82
3, 223680, Note_on_c, 1, 51, 82
3, 223856, Note_off_c, 1, 44, 80
3, 223856, Note_off_c, 1, 51, 80
3, 223920, Note_on_c, 1, 44, 82
3, 223920, Note_on_c, 1, 51, 82
3, 224096, Note_off_c, 1, 44, 80
3, 224096, Note_off_c, 1, 51, 80
3, 224160, Note_on_c, 1, 44, 82
3, 224160, Note_on_c, 1, 51, 82
3, 224336, Note_off_c, 1, 44, 80
3, 224336, Note_off_c, 1, 51, 80
3, 224400, Note_on_c, 1, 44, 82
3, 224400, Note_on_c, 1, 51, 82
3, 224576, Note_off_c, 1, 44, 80
3, 224576, Note_off_c, 1, 51, 80
3, 224640, Note_on_c, 1, 44, 82
3, 224640, Note_on_c, 1, 49, 82
3, 224640, Note_on_c, 1, 53, 82
3, 224816, Note_off_c, 1, 44, 80
3, 224816, Note_off_c, 1, 49, 80
3, 224816, Note_off_c, 1, 53, 80
3, 224880, Note_on_c, 1, 44, 82
3, 224880, Note_on_c, 1, 49, 82
3, 224880, Note_on_c, 1, 53, 82
3, 225056, Note_off_c, 1, 44, 80
3, 225056, Note_off_c, 1, 49, 80
3, 225056, Note_off_c, 1, 53, 80
3, 225120, Note_on_c, 1, 44, 82
3, 225120, Note_on_c, 1, 49, 82
3, 225120, Note_on_c, 1, 53, 82
3, 225296, Note_off_c, 1, 44, 80
3, 225296, Note_off_c, 1, 49, 80
3, 225296, Note_off_c, 1, 53, 80
3, 225360, Note_on_c, 1, 44, 82
3, 225360, Note_on_c, 1, 49, 82
3, 225360, Note_on_c, 1, 53, 82
3, 225536, Note_off_c, 1, 44, 80
3, 225536, Note_off_c, 1, 49, 80
3, 225536, Note_off_c, 1, 53, 80
3, 225600, Note_on_c, 1, 44, 82
3, 225600, Note_on_c, 1, 49, 82
3, 225600, Note_on_c, 1, 53, 82
3, 225776, Note_off_c, 1, 44, 80
3, 225776, Note_off_c, 1, 49, 80
3, 225776, Note_off_c, 1, 53, 80
3, 225840, Note_on_c, 1, 44, 82
3, 225840, Note_on_c, 1, 49, 82
3, 225840, Note_on_c, 1, 53, 82
3, 226016, Note_off_c, 1, 44, 80
3, 226016, Note_off_c, 1, 49, 80
3, 226016, Note_off_c, 1, 53, 80
3, 226080, Note_on_c, 1, 44, 82
3, 226080, Note_on_c, 1, 49, 82
3, 226080, Note_on_c, 1, 53, 82
3, 226256, Note_off_c, 1, 44, 80
3, 226256, Note_off_c, 1, 49, 80
3, 226256, Note_off_c, 1, 53, 80
3, 226320, Note_on_c, 1, 44, 82
3, 226320, Note_on_c, 1, 49, 82
3, 226320, Note_on_c, 1, 53, 82
3, 226496, Note_off_c, 1, 44, 80
3, 226496, Note_off_c, 1, 49, 80
3, 226496, Note_off_c, 1, 53, 80
3, 226560, Note_on_c, 1, 44, 82
3, 226560, Note_on_c, 1, 49, 82
3, 226560, Note_on_c, 1, 53, 82
3, 226736, Note_off_c, 1, 44, 80
3, 226736, Note_off_c, 1, 49, 80
3, 226736, Note_off_c, 1, 53, 80
3, 226800, Note_on_c, 1, 44, 82
3, 226800, Note_on_c, 1, 49, 82
3, 226800, Note_on_c, 1, 53, 82
3, 226976, Note_off_c, 1, 44, 80
3, 226976, Note_off_c, 1, 49, 80
3, 226976, Note_off_c, 1, 53, 80
3, 227040, Note_on_c, 1, 44, 82
3, 227040, Note_on_c, 1, 49, 82
3, 227040, Note_on_c, 1, 53, 82
3, 227216, Note_off_c, 1, 44, 80
3, 227216, Note_off_c, 1, 49, 80
3, 227216, Note_off_c, 1, 53, 80
3, 227280, Note_on_c, 1, 44, 82
3, 227280, Note_on_c, 1, 49, 82
3, 227280, Note_on_c, 1, 53, 82
3, 227456, Note_off_c, 1, 44, 80
3, 227456, Note_off_c, 1, 49, 80
3, 227456, Note_off_c, 1, 53, 80
3, 227520, Note_on_c, 1, 44, 82
3, 227520, Note_on_c, 1, 49, 82
3, 227520, Note_on_c, 1, 53, 82
3, 227696, Note_off_c, 1, 44, 80
3, 227696, Note_off_c, 1, 49, 80
3, 227696, Note_off_c, 1, 53, 80
3, 227760, Note_on_c, 1, 44, 82
3, 227760, Note_on_c, 1, 49, 82
3, 227760, Note_on_c, 1, 53, 82
3, 227936, Note_off_c, 1, 44, 80
3, 227936, Note_off_c, 1, 49, 80
3, 227936, Note_off_c, 1, 53, 80
3, 228000, Note_on_c, 1, 44, 82
3, 228000, Note_on_c, 1, 49, 82
3, 228000, Note_on_c, 1, 53, 82
3, 228176, Note_off_c, 1, 44, 80
3, 228176, Note_off_c, 1, 49, 80
3, 228176, Note_off_c, 1, 53, 80
3, 228240, Note_on_c, 1, 44, 82
3, 228240, Note_on_c, 1, 49, 82
3, 228240, Note_on_c, 1, 53, 82
3, 228416, Note_off_c, 1, 44, 80
3, 228416, Note_off_c, 1, 49, 80
3, 228416, Note_off_c, 1, 53, 80
3, 228480, Note_on_c, 1, 44, 82
3, 228480, Note_on_c, 1, 51, 82
3, 228656, Note_off_c, 1, 44, 80
3, 228656, Note_off_c, 1, 51, 80
3, 228720, Note_on_c, 1, 44, 82
3, 228720, Note_on_c, 1, 51, 82
3, 228896, Note_off_c, 1, 44, 80
3, 228896, Note_off_c, 1, 51, 80
3, 228960, Note_on_c, 1, 44, 82
3, 228960, Note_on_c, 1, 51, 82
3, 229136, Note_off_c, 1, 44, 80
3, 229136, Note_off_c, 1, 51, 80
3, 229200, Note_on_c, 1, 44, 82
3, 229200, Note_on_c, 1, 51, 82
3, 229376, Note_off_c, 1, 44, 80
3, 229376, Note_off_c, 1, 51, 80
3, 229440, Note_on_c, 1, 44, 82
3, 229440, Note_on_c, 1, 51, 82
3, 229616, Note_off_c, 1, 44, 80
3, 229616, Note_off_c, 1, 51, 80
3, 229680, Note_on_c, 1, 44, 82
3, 229680, Note_on_c, 1, 51, 82
3, 229856, Note_off_c, 1, 44, 80
3, 229856, Note_off_c, 1, 51, 80
3, 229920, Note_on_c, 1, 44, 82
3, 229920, Note_on_c, 1, 51, 82
3, 230096, Note_off_c, 1, 44, 80
3, 230096, Note_off_c, 1, 51, 80
3, 230160, Note_on_c, 1, 44, 82
3, 230160, Note_on_c, 1, 51, 82
3, 230336, Note_off_c, 1, 44, 80
3, 230336, Note_off_c, 1, 51, 80
3, 230400, Note_on_c, 1, 44, 82
3, 230400, Note_on_c, 1, 51, 82
3, 230576, Note_off_c, 1, 44, 80
3, 230576, Note_off_c, 1, 51, 80
3, 230640, Note_on_c, 1, 44, 82
3, 230640, Note_on_c, 1, 51, 82
3, 230816, Note_off_c, 1, 44, 80
3, 230816, Note_off_c, 1, 51, 80
3, 230880, Note_on_c, 1, 44, 82
3, 230880, Note_on_c, 1, 51, 82
3, 231056, Note_off_c, 1, 44, 80
3, 231056, Note_off_c, 1, 51, 80
3, 231120, Note_on_c, 1, 44, 82
3, 231120, Note_on_c, 1, 51, 82
3, 231296, Note_off_c, 1, 44, 80
3, 231296, Note_off_c, 1, 51, 80
3, 231360, Note_on_c, 1, 44, 82
3, 231360, Note_on_c, 1, 51, 82
3, 231536, Note_off_c, 1, 44, 80
3, 231536, Note_off_c, 1, 51, 80
3, 231600, Note_on_c, 1, 44, 82
3, 231600, Note_on_c, 1, 51, 82
3, 231776, Note_off_c, 1, 44, 80
3, 231776, Note_off_c, 1, 51, 80
3, 231840, Note_on_c, 1, 44, 82
3, 231840, Note_on_c, 1, 51, 82
3, 232016, Note_off_c, 1, 44, 80
3, 232016, Note_off_c, 1, 51, 80
3, 232080, Note_on_c, 1, 44, 82
3, 232080, Note_on_c, 1, 51, 82
3, 232256, Note_off_c, 1, 44, 80
3, 232256, Note_off_c, 1, 51, 80
3, 232320, Note_on_c, 1, 44, 82
3, 232320, Note_on_c, 1, 49, 82
3, 232320, Note_on_c, 1, 53, 82
3, 232496, Note_off_c, 1, 44, 80
3, 232496, Note_off_c, 1, 49, 80
3, 232496, Note_off_c, 1, 53, 80
3, 232560, Note_on_c, 1, 44, 82
3, 232560, Note_on_c, 1, 49, 82
3, 232560, Note_on_c, 1, 53, 82
3, 232736, Note_off_c, 1, 44, 80
3, 232736, Note_off_c, 1, 49, 80
3, 232736, Note_off_c, 1, 53, 80
3, 232800, Note_on_c, 1, 44, 82
3, 232800, Note_on_c, 1, 49, 82
3, 232800, Note_on_c, 1, 53, 82
3, 232976, Note_off_c, 1, 44, 80
3, 232976, Note_off_c, 1, 49, 80
3, 232976, Note_off_c, 1, 53, 80
3, 233040, Note_on_c, 1, 44, 82
3, 233040, Note_on_c, 1, 49, 82
3, 233040, Note_on_c, 1, 53, 82
3, 233216, Note_off_c, 1, 44, 80
3, 233216, Note_off_c, 1, 49, 80
3, 233216, Note_off_c, 1, 53, 80
3, 233280, Note_on_c, 1, 44, 82
3, 233280, Note_on_c, 1, 49, 82
3, 233280, Note_on_c, 1, 53, 82
3, 233456, Note_off_c, 1, 44, 80
3, 233456, Note_off_c, 1, 49, 80
3, 233456, Note_off_c, 1, 53, 80
3, 233520, Note_on_c, 1, 44, 82
3, 233520, Note_on_c, 1, 49, 82
3, 233520, Note_on_c, 1, 53, 82
3, 233696, Note_off_c, 1, 44, 80
3, 233696, Note_off_c, 1, 49, 80
3, 233696, Note_off_c, 1, 53, 80
3, 233760, Note_on_c, 1, 44, 82
3, 233760, Note_on_c, 1, 49, 82
3, 233760, Note_on_c, 1, 53, 82
3, 233936, Note_off_c, 1, 44, 80
3, 233936, Note_off_c, 1, 49, 80
3, 233936, Note_off_c, 1, 53, 80
3, 234000, Note_on_c, 1, 44, 82
3, 234000, Note_on_c, 1, 49, 82
3, 234000, Note_on_c, 1, 53, 82
3, 234176, Note_off_c, 1, 44, 80
3, 234176, Note_off_c, 1, 49, 80
3, 234176, Note_off_c, 1, 53, 80
3, 234240, Note_on_c, 1, 44, 82
3, 234240, Note_on_c, 1, 49, 82
3, 234240, Note_on_c, 1, 53, 82
3, 234416, Note_off_c, 1, 44, 80
3, 234416, Note_off_c, 1, 49, 80
3, 234416, Note_off_c, 1, 53, 80
3, 234480, Note_on_c, 1, 44, 82
3, 234480, Note_on_c, 1, 49, 82
3, 234480, Note_on_c, 1, 53, 82
3, 234656, Note_off_c, 1, 44, 80
3, 234656, Note_off_c, 1, 49, 80
3, 234656, Note_off_c, 1, 53, 80
3, 234720, Note_on_c, 1, 44, 82
3, 234720, Note_on_c, 1, 49, 82
3, 234720, Note_on_c, 1, 53, 82
3, 234896, Note_off_c, 1, 44, 80
3, 234896, Note_off_c, 1, 49, 80
3, 234896, Note_off_c, 1, 53, 80
3, 234960, Note_on_c, 1, 44, 82
3, 234960, Note_on_c, 1, 49, 82
3, 234960, Note_on_c, 1, 53, 82
3, 235136, Note_off_c, 1, 44, 80
3, 235136, Note_off_c, 1, 49, 80
3, 235136, Note_off_c, 1, 53, 80
3, 235200, Note_on_c, 1, 44, 82
3, 235200, Note_on_c, 1, 49, 82
3, 235200, Note_on_c, 1, 53, 82
3, 235376, Note_off_c, 1, 44, 80
3, 235376, Note_off_c, 1, 49, 80
3, 235376, Note_off_c, 1, 53, 80
3, 235440, Note_on_c, 1, 44, 82
3, 235440, Note_on_c, 1, 49, 82
3, 235440, Note_on_c, 1, 53, 82
3, 235616, Note_off_c, 1, 44, 80
3, 235616, Note_off_c, 1, 49, 80
3, 235616, Note_off_c, 1, 53, 80
3, 235680, Note_on_c, 1, 44, 82
3, 235680, Note_on_c, 1, 49, 82
3, 235680, Note_on_c, 1, 53, 82
3, 235856, Note_off_c, 1, 44, 80
3, 235856, Note_off_c, 1, 49, 80
3, 235856, Note_off_c, 1, 53, 80
3, 235920, Note_on_c, 1, 44, 82
3, 235920, Note_on_c, 1, 49, 82
3, 235920, Note_on_c, 1, 53, 82
3, 236096, Note_off_c, 1, 44, 80
3, 236096, Note_off_c, 1, 49, 80
3, 236096, Note_off_c, 1, 53, 80
3, 236160, Note_on_c, 1, 44, 82
3, 236160, Note_on_c, 1, 51, 82
3, 236336, Note_off_c, 1, 44, 80
3, 236336, Note_off_c, 1, 51, 80
3, 236400, Note_on_c, 1, 44, 82
3, 236400, Note_on_c, 1, 51, 82
3, 236576, Note_off_c, 1, 44, 80
3, 236576, Note_off_c, 1, 51, 80
3, 236640, Note_on_c, 1, 44, 82
3, 236640, Note_on_c, 1, 51, 82
3, 236816, Note_off_c, 1, 44, 80
3, 236816, Note_off_c, 1, 51, 80
3, 236880, Note_on_c, 1, 44, 82
3, 236880, Note_on_c, 1, 51, 82
3, 237056, Note_off_c, 1, 44, 80
3, 237056, Note_off_c, 1, 51, 80
3, 237120, Note_on_c, 1, 44, 82
3, 237120, Note_on_c, 1, 51, 82
3, 237296, Note_off_c, 1, 44, 80
3, 237296, Note_off_c, 1, 51, 80
3, 237360, Note_on_c, 1, 44, 82
3, 237360, Note_on_c, 1, 51, 82
3, 237536, Note_off_c, 1, 44, 80
3, 237536, Note_off_c, 1, 51, 80
3, 237600, Note_on_c, 1, 44, 82
3, 237600, Note_on_c, 1, 51, 82
3, 237776, Note_off_c, 1, 44, 80
3, 237776, Note_off_c, 1, 51, 80
3, 237840, Note_on_c, 1, 44, 82
3, 237840, Note_on_c, 1, 51, 82
3, 238016, Note_off_c, 1, 44, 80
3, 238016, Note_off_c, 1, 51, 80
3, 238080, Note_on_c, 1, 44, 82
3, 238080, Note_on_c, 1, 51, 82
3, 238256, Note_off_c, 1, 44, 80
3, 238256, Note_off_c, 1, 51, 80
3, 238320, Note_on_c, 1, 44, 82
3, 238320, Note_on_c, 1, 51, 82
3, 238496, Note_off_c, 1, 44, 80
3, 238496, Note_off_c, 1, 51, 80
3, 238560, Note_on_c, 1, 44, 82
3, 238560, Note_on_c, 1, 51, 82
3, 238736, Note_off_c, 1, 44, 80
3, 238736, Note_off_c, 1, 51, 80
3, 238800, Note_on_c, 1, 44, 82
3, 238800, Note_on_c, 1, 51, 82
3, 238976, Note_off_c, 1, 44, 80
3, 238976, Note_off_c, 1, 51, 80
3, 239040, Note_on_c, 1, 44, 82
3, 239040, Note_on_c, 1, 51, 82
3, 239216, Note_off_c, 1, 44, 80
3, 239216, Note_off_c, 1, 51, 80
3, 239280, Note_on_c, 1, 44, 82
3, 239280, Note_on_c, 1, 51, 82
3, 239456, Note_off_c, 1, 44, 80
3, 239456, Note_off_c, 1, 51, 80
3, 239520, Note_on_c, 1, 44, 82
3, 239520, Note_on_c, 1, 51, 82
3, 239696, Note_off_c, 1, 44, 80
3, 239696, Note_off_c, 1, 51, 80
3, 239760, Note_on_c, 1, 44, 82
3, 239760, Note_on_c, 1, 51, 82
3, 239936, Note_off_c, 1, 44, 80
3, 239936, Note_off_c, 1, 51, 80
3, 240000, Note_on_c, 1, 46, 82
3, 240000, Note_on_c, 1, 51, 82
3, 240000, Note_on_c, 1, 58, 82
3, 240176, Note_off_c, 1, 46, 80
3, 240176, Note_off_c, 1, 51, 80
3, 240176, Note_off_c, 1, 58, 80
3, 240240, Note_on_c, 1, 46, 82
3, 240240, Note_on_c, 1, 51, 82
3, 240240, Note_on_c, 1, 58, 82
3, 240416, Note_off_c, 1, 46, 80
3, 240416, Note_off_c, 1, 51, 80
3, 240416, Note_off_c, 1, 58, 80
3, 240480, Note_on_c, 1, 46, 82
3, 240480, Note_on_c, 1, 51, 82
3, 240480, Note_on_c, 1, 58, 82
3, 240656, Note_off_c, 1, 46, 80
3, 240656, Note_off_c, 1, 51, 80
3, 240656, Note_off_c, 1, 58, 80
3, 240720, Note_on_c, 1, 46, 82
3, 240720, Note_on_c, 1, 51, 82
3, 240720, Note_on_c, 1, 58, 82
3, 240896, Note_off_c, 1, 46, 80
3, 240896, Note_off_c, 1, 51, 80
3, 240896, Note_off_c, 1, 58, 80
3, 240960, Note_on_c, 1, 46, 82
3, 240960, Note_on_c, 1, 51, 82
3, 240960, Note_on_c, 1, 58, 82
3, 241136, Note_off_c, 1, 46, 80
3, 241136, Note_off_c, 1, 51, 80
3, 241136, Note_off_c, 1, 58, 80
3, 241200, Note_on_c, 1, 46, 82
3, 241200, Note_on_c, 1, 51, 82
3, 241200, Note_on_c, 1, 58, 82
3, 241376, Note_off_c, 1, 46, 80
3, 241376, Note_off_c, 1, 51, 80
3, 241376, Note_off_c, 1, 58, 80
3, 241440, Note_on_c, 1, 46, 82
3, 241440, Note_on_c, 1, 51, 82
3, 241440, Note_on_c, 1, 58, 82
3, 241616, Note_off_c, 1, 46, 80
3, 241616, Note_off_c, 1, 51, 80
3, 241616, Note_off_c, 1, 58, 80
3, 241680, Note_on_c, 1, 46, 82
3, 241680, Note_on_c, 1, 51, 82
3, 241680, Note_on_c, 1, 58, 82
3, 241856, Note_off_c, 1, 46, 80
3, 241856, Note_off_c, 1, 51, 80
3, 241856, Note_off_c, 1, 58, 80
3, 241920, Note_on_c, 1, 46, 82
3, 241920, Note_on_c, 1, 51, 82
3, 241920, Note_on_c, 1, 58, 82
3, 242096, Note_off_c, 1, 46, 80
3, 242096, Note_off_c, 1, 51, 80
3, 242096, Note_off_c, 1, 58, 80
3, 242160, Note_on_c, 1, 46, 82
3, 242160, Note_on_c, 1, 51, 82
3, 242160, Note_on_c, 1, 58, 82
3, 242336, Note_off_c, 1, 46, 80
3, 242336, Note_off_c, 1, 51, 80
3, 242336, Note_off_c, 1, 58, 80
3, 242400, Note_on_c, 1, 46, 82
3, 242400, Note_on_c, 1, 51, 82
3, 242400, Note_on_c, 1, 58, 82
3, 242576, Note_off_c, 1, 46, 80
3, 242576, Note_off_c, 1, 51, 80
3, 242576, Note_off_c, 1, 58, 80
3, 242640, Note_on_c, 1, 46, 82
3, 242640, Note_on_c, 1, 51, 82
3, 242640, Note_on_c, 1, 58, 82
3, 242816, Note_off_c, 1, 46, 80
3, 242816, Note_off_c, 1, 51, 80
3, 242816, Note_off_c, 1, 58, 80
3, 242880, Note_on_c, 1, 46, 82
3, 242880, Note_on_c, 1, 51, 82
3, 242880, Note_on_c, 1, 58, 82
3, 243056, Note_off_c, 1, 46, 80
3, 243056, Note_off_c, 1, 51, 80
3, 243056, Note_off_c, 1, 58, 80
3, 243120, Note_on_c, 1, 46, 82
3, 243120, Note_on_c, 1, 51, 82
3, 243120, Note_on_c, 1, 58, 82
3, 243296, Note_off_c, 1, 46, 80
3, 243296, Note_off_c, 1, 51, 80
3, 243296, Note_off_c, 1, 58, 80
3, 243360, Note_on_c, 1, 46, 82
3, 243360, Note_on_c, 1, 51, 82
3, 243360, Note_on_c, 1, 58, 82
3, 243536, Note_off_c, 1, 46, 80
3, 243536, Note_off_c, 1, 51, 80
3, 243536, Note_off_c, 1, 58, 80
3, 243600, Note_on_c, 1, 46, 82
3, 243600, Note_on_c, 1, 51, 82
3, 243600, Note_on_c, 1, 58, 82
3, 243776, Note_off_c, 1, 46, 80
3, 243776, Note_off_c, 1, 51, 80
3, 243776, Note_off_c, 1, 58, 80
3, 243840, Note_on_c, 1, 42, 82
3, 243840, Note_on_c, 1, 49, 82
3, 244016, Note_off_c, 1, 42, 80
3, 244016, Note_off_c, 1, 49, 80
3, 244080, Note_on_c, 1, 42, 82
3, 244080, Note_on_c, 1, 49, 82
3, 244256, Note_off_c, 1, 42, 80
3, 244256, Note_off_c, 1, 49, 80
3, 244320, Note_on_c, 1, 42, 82
3, 244320, Note_on_c, 1, 49, 82
3, 244496, Note_off_c, 1, 42, 80
3, 244496, Note_off_c, 1, 49, 80
3, 244560, Note_on_c, 1, 42, 82
3, 244560, Note_on_c, 1, 49, 82
3, 244736, Note_off_c, 1, 42, 80
3, 244736, Note_off_c, 1, 49, 80
3, 244800, Note_on_c, 1, 42, 82
3, 244800, Note_on_c, 1, 49, 82
3, 244976, Note_off_c, 1, 42, 80
3, 244976, Note_off_c, 1, 49, 80
3, 245040, Note_on_c, 1, 42, 82
3, 245040, Note_on_c, 1, 49, 82
3, 245216, Note_off_c, 1, 42, 80
3, 245216, Note_off_c, 1, 49, 80
3, 245280, Note_on_c, 1, 42, 82
3, 245280, Note_on_c, 1, 49, 82
3, 245456, Note_off_c, 1, 42, 80
3, 245456, Note_off_c, 1, 49, 80
3, 245520, Note_on_c, 1, 42, 82
3, 245520, Note_on_c, 1, 49, 82
3, 245696, Note_off_c, 1, 42, 80
3, 245696, Note_off_c, 1, 49, 80
3, 245760, Note_on_c, 1, 42, 82
3, 245760, Note_on_c, 1, 49, 82
3, 245936, Note_off_c, 1, 42, 80
3, 245936, Note_off_c, 1, 49, 80
3, 246000, Note_on_c, 1, 42, 82
3, 246000, Note_on_c, 1, 49, 82
3, 246176, Note_off_c, 1, 42, 80
3, 246176, Note_off_c, 1, 49, 80
3, 246240, Note_on_c, 1, 42, 82
3, 246240, Note_on_c, 1, 49, 82
3, 246416, Note_off_c, 1, 42, 80
3, 246416, Note_off_c, 1, 49, 80
3, 246480, Note_on_c, 1, 42, 82
3, 246480, Note_on_c, 1, 49, 82
3, 246656, Note_off_c, 1, 42, 80
3, 246656, Note_off_c, 1, 49, 80
3, 246720, Note_on_c, 1, 42, 82
3, 246720, Note_on_c, 1, 49, 82
3, 246896, Note_off_c, 1, 42, 80
3, 246896, Note_off_c, 1, 49, 80
3, 246960, Note_on_c, 1, 42, 82
3, 246960, Note_on_c, 1, 49, 82
3, 247136, Note_off_c, 1, 42, 80
3, 247136, Note_off_c, 1, 49, 80
3, 247200, Note_on_c, 1, 42, 82
3, 247200, Note_on_c, 1, 49, 82
3, 247376, Note_off_c, 1, 42, 80
3, 247376, Note_off_c, 1, 49, 80
3, 247440, Note_on_c, 1, 42, 82
3, 247440, Note_on_c, 1, 49, 82
3, 247616, Note_off_c, 1, 42, 80
3, 247616, Note_off_c, 1, 49, 80
3, 247680, Note_on_c, 1, 44, 82
3, 247680, Note_on_c, 1, 49, 82
3, 247680, Note_on_c, 1, 53, 82
3, 247856, Note_off_c, 1, 44, 80
3, 247856, Note_off_c, 1, 49, 80
3, 247856, Note_off_c, 1, 53, 80
3, 247920, Note_on_c, 1, 44, 82
3, 247920, Note_on_c, 1, 49, 82
3, 247920, Note_on_c, 1, 53, 82
3, 248096, Note_off_c, 1, 44, 80
3, 248096, Note_off_c, 1, 49, 80
3, 248096, Note_off_c, 1, 53, 80
3, 248160, Note_on_c, 1, 44, 82
3, 248160, Note_on_c, 1, 49, 82
3, 248160, Note_on_c, 1, 53, 82
3, 248336, Note_off_c, 1, 44, 80
3, 248336, Note_off_c, 1, 49, 80
3, 248336, Note_off_c, 1, 53, 80
3, 248400, Note_on_c, 1, 44, 82
3, 248400, Note_on_c, 1, 49, 82
3, 248400, Note_on_c, 1, 53, 82
3, 248576, Note_off_c, 1, 44, 80
3, 248576, Note_off_c, 1, 49, 80
3, 248576, Note_off_c, 1, 53, 80
3, 248640, Note_on_c, 1, 44, 82
3, 248640, Note_on_c, 1, 49, 82
3, 248640, Note_on_c, 1, 53, 82
3, 248816, Note_off_c, 1, 44, 80
3, 248816, Note_off_c, 1, 49, 80
3, 248816, Note_off_c, 1, 53, 80
3, 248880, Note_on_c, 1, 44, 82
3, 248880, Note_on_c, 1, 49, 82
3, 248880, Note_on_c, 1, 53, 82
3, 249056, Note_off_c, 1, 44, 80
3, 249056, Note_off_c, 1, 49, 80
3, 249056, Note_off_c, 1, 53, 80
3, 249120, Note_on_c, 1, 44, 82
3, 249120, Note_on_c, 1, 49, 82
3, 249120, Note_on_c, 1, 53, 82
3, 249296, Note_off_c, 1, 44, 80
3, 249296, Note_off_c, 1, 49, 80
3, 249296, Note_off_c, 1, 53, 80
3, 249360, Note_on_c, 1, 44, 82
3, 249360, Note_on_c, 1, 49, 82
3, 249360, Note_on_c, 1, 53, 82
3, 249536, Note_off_c, 1, 44, 80
3, 249536, Note_off_c, 1, 49, 80
3, 249536, Note_off_c, 1, 53, 80
3, 249600, Note_on_c, 1, 44, 82
3, 249600, Note_on_c, 1, 51, 82
3, 249776, Note_off_c, 1, 44, 80
3, 249776, Note_off_c, 1, 51, 80
3, 249840, Note_on_c, 1, 44, 82
3, 249840, Note_on_c, 1, 51, 82
3, 250016, Note_off_c, 1, 44, 80
3, 250016, Note_off_c, 1, 51, 80
3, 250080, Note_on_c, 1, 44, 82
3, 250080, Note_on_c, 1, 51, 82
3, 250256, Note_off_c, 1, 44, 80
3, 250256, Note_off_c, 1, 51, 80
3, 250320, Note_on_c, 1, 44, 82
3, 250320, Note_on_c, 1, 51, 82
3, 250496, Note_off_c, 1, 44, 80
3, 250496, Note_off_c, 1, 51, 80
3, 250560, Note_on_c, 1, 44, 82
3, 250560, Note_on_c, 1, 51, 82
3, 250736, Note_off_c, 1, 44, 80
3, 250736, Note_off_c, 1, 51, 80
3, 250800, Note_on_c, 1, 44, 82
3, 250800, Note_on_c, 1, 51, 82
3, 250976, Note_off_c, 1, 44, 80
3, 250976, Note_off_c, 1, 51, 80
3, 251040, Note_on_c, 1, 44, 82
3, 251040, Note_on_c, 1, 51, 82
3, 251216, Note_off_c, 1, 44, 80
3, 251216, Note_off_c, 1, 51, 80
3, 251280, Note_on_c, 1, 44, 82
3, 251280, Note_on_c, 1, 51, 82
3, 251456, Note_off_c, 1, 44, 80
3, 251456, Note_off_c, 1, 51, 80
3, 251520, Note_on_c, 1, 46, 82
3, 251520, Note_on_c, 1, 51, 82
3, 251520, Note_on_c, 1, 58, 82
3, 251696, Note_off_c, 1, 46, 80
3, 251696, Note_off_c, 1, 51, 80
3, 251696, Note_off_c, 1, 58, 80
3, 251760, Note_on_c, 1, 46, 82
3, 251760, Note_on_c, 1, 51, 82
3, 251760, Note_on_c, 1, 58, 82
3, 251936, Note_off_c, 1, 46, 80
3, 251936, Note_off_c, 1, 51, 80
3, 251936, Note_off_c, 1, 58, 80
3, 252000, Note_on_c, 1, 46, 82
3, 252000, Note_on_c, 1, 51, 82
3, 252000, Note_on_c, 1, 58, 82
3, 252176, Note_off_c, 1, 46, 80
3, 252176, Note_off_c, 1, 51, 80
3, 252176, Note_off_c, 1, 58, 80
3, 252240, Note_on_c, 1, 46, 82
3, 252240, Note_on_c, 1, 51, 82
3, 252240, Note_on_c, 1, 58, 82
3, 252416, Note_off_c, 1, 46, 80
3, 252416, Note_off_c, 1, 51, 80
3, 252416, Note_off_c, 1, 58, 80
3, 252480, Note_on_c, 1, 46, 82
3, 252480, Note_on_c, 1, 51, 82
3, 252480, Note_on_c, 1, 58, 82
3, 252656, Note_off_c, 1, 46, 80
3, 252656, Note_off_c, 1, 51, 80
3, 252656, Note_off_c, 1, 58, 80
3, 252720, Note_on_c, 1, 46, 82
3, 252720, Note_on_c, 1, 51, 82
3, 252720, Note_on_c, 1, 58, 82
3, 252896, Note_off_c, 1, 46, 80
3, 252896, Note_off_c, 1, 51, 80
3, 252896, Note_off_c, 1, 58, 80
3, 252960, Note_on_c, 1, 46, 82
3, 252960, Note_on_c, 1, 51, 82
3, 252960, Note_on_c, 1, 58, 82
3, 253136, Note_off_c, 1, 46, 80
3, 253136, Note_off_c, 1, 51, 80
3, 253136, Note_off_c, 1, 58, 80
3, 253200, Note_on_c, 1, 46, 82
3, 253200, Note_on_c, 1, 51, 82
3, 253200, Note_on_c, 1, 58, 82
3, 253376, Note_off_c, 1, 46, 80
3, 253376, Note_off_c, 1, 51, 80
3, 253376, Note_off_c, 1, 58, 80
3, 253440, Note_on_c, 1, 46, 82
3, 253440, Note_on_c, 1, 51, 82
3, 253440, Note_on_c, 1, 58, 82
3, 253616, Note_off_c, 1, 46, 80
3, 253616, Note_off_c, 1, 51, 80
3, 253616, Note_off_c, 1, 58, 80
3, 253680, Note_on_c, 1, 46, 82
3, 253680, Note_on_c, 1, 51, 82
3, 253680, Note_on_c, 1, 58, 82
3, 253856, Note_off_c, 1, 46, 80
3, 253856, Note_off_c, 1, 51, 80
3, 253856, Note_off_c, 1, 58, 80
3, 253920, Note_on_c, 1, 46, 82
3, 253920, Note_on_c, 1, 51, 82
3, 253920, Note_on_c, 1, 58, 82
3, 254096, Note_off_c, 1, 46, 80
3, 254096, Note_off_c, 1, 51, 80
3, 254096, Note_off_c, 1, 58, 80
3, 254160, Note_on_c, 1, 46, 82
3, 254160, Note_on_c, 1, 51, 82
3, 254160, Note_on_c, 1, 58, 82
3, 254336, Note_off_c, 1, 46, 80
3, 254336, Note_off_c, 1, 51, 80
3, 254336, Note_off_c, 1, 58, 80
3, 254400, Note_on_c, 1, 46, 82
3, 254400, Note_on_c, 1, 51, 82
3, 254400, Note_on_c, 1, 58, 82
3, 254576, Note_off_c, 1, 46, 80
3, 254576, Note_off_c, 1, 51, 80
3, 254576, Note_off_c, 1, 58, 80
3, 254640, Note_on_c, 1, 46, 82
3, 254640, Note_on_c, 1, 51, 82
3, 254640, Note_on_c, 1, 58, 82
3, 254816, Note_off_c, 1, 46, 80
3, 254816, Note_off_c, 1, 51, 80
3, 254816, Note_off_c, 1, 58, 80
3, 254880, Note_on_c, 1, 46, 82
3, 254880, Note_on_c, 1, 51, 82
3, 254880, Note_on_c, 1, 58, 82
3, 255056, Note_off_c, 1, 46, 80
3, 255056, Note_off_c, 1, 51, 80
3, 255056, Note_off_c, 1, 58, 80
3, 255120, Note_on_c, 1, 46, 82
3, 255120, Note_on_c, 1, 51, 82
3, 255120, Note_on_c, 1, 58, 82
3, 255296, Note_off_c, 1, 46, 80
3, 255296, Note_off_c, 1, 51, 80
3, 255296, Note_off_c, 1, 58, 80
3, 255360, Note_on_c, 1, 42, 82
3, 255360, Note_on_c, 1, 49, 82
3, 255536, Note_off_c, 1, 42, 80
3, 255536, Note_off_c, 1, 49, 80
3, 255600, Note_on_c, 1, 42, 82
3, 255600, Note_on_c, 1, 49, 82
3, 255776, Note_off_c, 1, 42, 80
3, 255776, Note_off_c, 1, 49, 80
3, 255840, Note_on_c, 1, 42, 82
3, 255840, Note_on_c, 1, 49, 82
3, 256016, Note_off_c, 1, 42, 80
3, 256016, Note_off_c, 1, 49, 80
3, 256080, Note_on_c, 1, 42, 82
3, 256080, Note_on_c, 1, 49, 82
3, 256256, Note_off_c, 1, 42, 80
3, 256256, Note_off_c, 1, 49, 80
3, 256320, Note_on_c, 1, 42, 82
3, 256320, Note_on_c, 1, 49, 82
3, 256496, Note_off_c, 1, 42, 80
3, 256496, Note_off_c, 1, 49, 80
3, 256560, Note_on_c, 1, 42, 82
3, 256560, Note_on_c, 1, 49, 82
3, 256736, Note_off_c, 1, 42, 80
3, 256736, Note_off_c, 1, 49, 80
3, 256800, Note_on_c, 1, 42, 82
3, 256800, Note_on_c, 1, 49, 82
3, 256976, Note_off_c, 1, 42, 80
3, 256976, Note_off_c, 1, 49, 80
3, 257040, Note_on_c, 1, 42, 82
3, 257040, Note_on_c, 1, 49, 82
3, 257216, Note_off_c, 1, 42, 80
3, 257216, Note_off_c, 1, 49, 80
3, 257280, Note_on_c, 1, 42, 82
3, 257280, Note_on_c, 1, 49, 82
3, 257456, Note_off_c, 1, 42, 80
3, 257456, Note_off_c, 1, 49, 80
3, 257520, Note_on_c, 1, 42, 82
3, 257520, Note_on_c, 1, 49, 82
3, 257696, Note_off_c, 1, 42, 80
3, 257696, Note_off_c, 1, 49, 80
3, 257760, Note_on_c, 1, 42, 82
3, 257760, Note_on_c, 1, 49, 82
3, 257936, Note_off_c, 1, 42, 80
3, 257936, Note_off_c, 1, 49, 80
3, 258000, Note_on_c, 1, 42, 82
3, 258000, Note_on_c, 1, 49, 82
3, 258176, Note_off_c, 1, 42, 80
3, 258176, Note_off_c, 1, 49, 80
3, 258240, Note_on_c, 1, 42, 82
3, 258240, Note_on_c, 1, 49, 82
3, 258416, Note_off_c, 1, 42, 80
3, 258416, Note_off_c, 1, 49, 80
3, 258480, Note_on_c, 1, 42, 82
3, 258480, Note_on_c, 1, 49, 82
3, 258656, Note_off_c, 1, 42, 80
3, 258656, Note_off_c, 1, 49, 80
3, 258720, Note_on_c, 1, 42, 82
3, 258720, Note_on_c, 1, 49, 82
3, 258896, Note_off_c, 1, 42, 80
3, 258896, Note_off_c, 1, 49, 80
3, 258960, Note_on_c, 1, 42, 82
3, 258960, Note_on_c, 1, 49, 82
3, 259136, Note_off_c, 1, 42, 80
3, 259136, Note_off_c, 1, 49, 80
3, 259200, Note_on_c, 1, 44, 82
3, 259200, Note_on_c, 1, 49, 82
3, 259200, Note_on_c, 1, 53, 82
3, 259376, Note_off_c, 1, 44, 80
3, 259376, Note_off_c, 1, 49, 80
3, 259376, Note_off_c, 1, 53, 80
3, 259440, Note_on_c, 1, 44, 82
3, 259440, Note_on_c, 1, 49, 82
3, 259440, Note_on_c, 1, 53, 82
3, 259616, Note_off_c, 1, 44, 80
3, 259616, Note_off_c, 1, 49, 80
3, 259616, Note_off_c, 1, 53, 80
3, 259680, Note_on_c, 1, 44, 82
3, 259680, Note_on_c, 1, 49, 82
3, 259680, Note_on_c, 1, 53, 82
3, 259856, Note_off_c, 1, 44, 80
3, 259856, Note_off_c, 1, 49, 80
3, 259856, Note_off_c, 1, 53, 80
3, 259920, Note_on_c, 1, 44, 82
3, 259920, Note_on_c, 1, 49, 82
3, 259920, Note_on_c, 1, 53, 82
3, 260096, Note_off_c, 1, 44, 80
3, 260096, Note_off_c, 1, 49, 80
3, 260096, Note_off_c, 1, 53, 80
3, 260160, Note_on_c, 1, 44, 82
3, 260160, Note_on_c, 1, 49, 82
3, 260160, Note_on_c, 1, 53, 82
3, 260336, Note_off_c, 1, 44, 80
3, 260336, Note_off_c, 1, 49, 80
3, 260336, Note_off_c, 1, 53, 80
3, 260400, Note_on_c, 1, 44, 82
3, 260400, Note_on_c, 1, 49, 82
3, 260400, Note_on_c, 1, 53, 82
3, 260576, Note_off_c, 1, 44, 80
3, 260576, Note_off_c, 1, 49, 80
3, 260576, Note_off_c, 1, 53, 80
3, 260640, Note_on_c, 1, 44, 82
3, 260640, Note_on_c, 1, 49, 82
3, 260640, Note_on_c, 1, 53, 82
3, 260816, Note_off_c, 1, 44, 80
3, 260816, Note_off_c, 1, 49, 80
3, 260816, Note_off_c, 1, 53, 80
3, 260880, Note_on_c, 1, 44, 82
3, 260880, Note_on_c, 1, 49, 82
3, 260880, Note_on_c, 1, 53, 82
3, 261056, Note_off_c, 1, 44, 80
3, 261056, Note_off_c, 1, 49, 80
3, 261056, Note_off_c, 1, 53, 80
3, 261120, Note_on_c, 1, 44, 82
3, 261120, Note_on_c, 1, 51, 82
3, 261296, Note_off_c, 1, 44, 80
3, 261296, Note_off_c, 1, 51, 80
3, 261360, Note_on_c, 1, 44, 82
3, 261360, Note_on_c, 1, 51, 82
3, 261536, Note_off_c, 1, 44, 80
3, 261536, Note_off_c, 1, 51, 80
3, 261600, Note_on_c, 1, 44, 82
3, 261600, Note_on_c, 1, 51, 82
3, 261776, Note_off_c, 1, 44, 80
3, 261776, Note_off_c, 1, 51, 80
3, 261840, Note_on_c, 1, 44, 82
3, 261840, Note_on_c, 1, 51, 82
3, 262016, Note_off_c, 1, 44, 80
3, 262016, Note_off_c, 1, 51, 80
3, 262080, Note_on_c, 1, 44, 82
3, 262080, Note_on_c, 1, 51, 82
3, 262256, Note_off_c, 1, 44, 80
3, 262256, Note_off_c, 1, 51, 80
3, 262320, Note_on_c, 1, 44, 82
3, 262320, Note_on_c, 1, 51, 82
3, 262496, Note_off_c, 1, 44, 80
3, 262496, Note_off_c, 1, 51, 80
3, 262560, Note_on_c, 1, 44, 82
3, 262560, Note_on_c, 1, 51, 82
3, 262736, Note_off_c, 1, 44, 80
3, 262736, Note_off_c, 1, 51, 80
3, 262800, Note_on_c, 1, 44, 82
3, 262800, Note_on_c, 1, 51, 82
3, 262976, Note_off_c, 1, 44, 80
3, 262976, Note_off_c, 1, 51, 80
3, 263040, Note_on_c, 1, 46, 82
3, 263040, Note_on_c, 1, 51, 82
3, 263040, Note_on_c, 1, 58, 82
3, 263216, Note_off_c, 1, 46, 80
3, 263216, Note_off_c, 1, 51, 80
3, 263216, Note_off_c, 1, 58, 80
3, 263280, Note_on_c, 1, 46, 82
3, 263280, Note_on_c, 1, 51, 82
3, 263280, Note_on_c, 1, 58, 82
3, 263456, Note_off_c, 1, 46, 80
3, 263456, Note_off_c, 1, 51, 80
3, 263456, Note_off_c, 1, 58, 80
3, 263520, Note_on_c, 1, 46, 82
3, 263520, Note_on_c, 1, 51, 82
3, 263520, Note_on_c, 1, 58, 82
3, 263696, Note_off_c, 1, 46, 80
3, 263696, Note_off_c, 1, 51, 80
3, 263696, Note_off_c, 1, 58, 80
3, 263760, Note_on_c, 1, 46, 82
3, 263760, Note_on_c, 1, 51, 82
3, 263760, Note_on_c, 1, 58, 82
3, 263936, Note_off_c, 1, 46, 80
3, 263936, Note_off_c, 1, 51, 80
3, 263936, Note_off_c, 1, 58, 80
3, 264000, Note_on_c, 1, 46, 82
3, 264000, Note_on_c, 1, 51, 82
3, 264000, Note_on_c, 1, 58, 82
3, 264176, Note_off_c, 1, 46, 80
3, 264176, Note_off_c, 1, 51, 80
3, 264176, Note_off_c, 1, 58, 80
3, 264240, Note_on_c, 1, 46, 82
3, 264240, Note_on_c, 1, 51, 82
3, 264240, Note_on_c, 1, 58, 82
3, 264416, Note_off_c, 1, 46, 80
3, 264416, Note_off_c, 1, 51, 80
3, 264416, Note_off_c, 1, 58, 80
3, 264480, Note_on_c, 1, 46, 82
3, 264480, Note_on_c, 1, 51, 82
3, 264480, Note_on_c, 1, 58, 82
3, 264656, Note_off_c, 1, 46, 80
3, 264656, Note_off_c, 1, 51, 80
3, 264656, Note_off_c, 1, 58, 80
3, 264720, Note_on_c, 1, 46, 82
3, 264720, Note_on_c, 1, 51, 82
3, 264720, Note_on_c, 1, 58, 82
3, 264896, Note_off_c, 1, 46, 80
3, 264896, Note_off_c, 1, 51, 80
3, 264896, Note_off_c, 1, 58, 80
3, 264960, Note_on_c, 1, 46, 82
3, 264960, Note_on_c, 1, 51, 82
3, 264960, Note_on_c, 1, 58, 82
3, 265136, Note_off_c, 1, 46, 80
3, 265136, Note_off_c, 1, 51, 80
3, 265136, Note_off_c, 1, 58, 80
3, 265200, Note_on_c, 1, 46, 82
3, 265200, Note_on_c, 1, 51, 82
3, 265200, Note_on_c, 1, 58, 82
3, 265376, Note_off_c, 1, 46, 80
3, 265376, Note_off_c, 1, 51, 80
3, 265376, Note_off_c, 1, 58, 80
3, 265440, Note_on_c, 1, 46, 82
3, 265440, Note_on_c, 1, 51, 82
3, 265440, Note_on_c, 1, 58, 82
3, 265616, Note_off_c, 1, 46, 80
3, 265616, Note_off_c, 1, 51, 80
3, 265616, Note_off_c, 1, 58, 80
3, 265680, Note_on_c, 1, 46, 82
3, 265680, Note_on_c, 1, 51, 82
3, 265680, Note_on_c, 1, 58, 82
3, 265856, Note_off_c, 1, 46, 80
3, 265856, Note_off_c, 1, 51, 80
3, 265856, Note_off_c, 1, 58, 80
3, 265920, Note_on_c, 1, 46, 82
3, 265920, Note_on_c, 1, 51, 82
3, 265920, Note_on_c, 1, 58, 82
3, 266096, Note_off_c, 1, 46, 80
3, 266096, Note_off_c, 1, 51, 80
3, 266096, Note_off_c, 1, 58, 80
3, 266160, Note_on_c, 1, 46, 82
3, 266160, Note_on_c, 1, 51, 82
3, 266160, Note_on_c, 1, 58, 82
3, 266336, Note_off_c, 1, 46, 80
3, 266336, Note_off_c, 1, 51, 80
3, 266336, Note_off_c, 1, 58, 80
3, 266400, Note_on_c, 1, 46, 82
3, 266400, Note_on_c, 1, 51, 82
3, 266400, Note_on_c, 1, 58, 82
3, 266576, Note_off_c, 1, 46, 80
3, 266576, Note_off_c, 1, 51, 80
3, 266576, Note_off_c, 1, 58, 80
3, 266640, Note_on_c, 1, 46, 82
3, 266640, Note_on_c, 1, 51, 82
3, 266640, Note_on_c, 1, 58, 82
3, 266816, Note_off_c, 1, 46, 80
3, 266816, Note_off_c, 1, 51, 80
3, 266816, Note_off_c, 1, 58, 80
3, 266880, Note_on_c, 1, 49, 82
3, 266880, Note_on_c, 1, 56, 82
3, 267056, Note_off_c, 1, 49, 80
3, 267056, Note_off_c, 1, 56, 80
3, 267120, Note_on_c, 1, 49, 82
3, 267120, Note_on_c, 1, 56, 82
3, 267296, Note_off_c, 1, 49, 80
3, 267296, Note_off_c, 1, 56, 80
3, 267360, Note_on_c, 1, 49, 82
3, 267360, Note_on_c, 1, 56, 82
3, 267536, Note_off_c, 1, 49, 80
3, 267536, Note_off_c, 1, 56, 80
3, 267600, Note_on_c, 1, 48, 82
3, 267600, Note_on_c, 1, 56, 82
3, 267776, Note_off_c, 1, 48, 80
3, 267776, Note_off_c, 1, 56, 80
3, 267840, Note_on_c, 1, 48, 82
3, 267840, Note_on_c, 1, 56, 82
3, 268016, Note_off_c, 1, 48, 80
3, 268016, Note_off_c, 1, 56, 80
3, 268080, Note_on_c, 1, 48, 82
3, 268080, Note_on_c, 1, 56, 82
3, 268256, Note_off_c, 1, 48, 80
3, 268256, Note_off_c, 1, 56, 80
3, 268320, Note_on_c, 1, 48, 82
3, 268320, Note_on_c, 1, 56, 82
3, 268496, Note_off_c, 1, 48, 80
3, 268496, Note_off_c, 1, 56, 80
3, 268560, Note_on_c, 1, 48, 82
3, 268560, Note_on_c, 1, 56, 82
3, 268736, Note_off_c, 1, 48, 80
3, 268736, Note_off_c, 1, 56, 80
3, 268800, Note_on_c, 1, 46, 82
3, 268800, Note_on_c, 1, 53, 82
3, 268976, Note_off_c, 1, 46, 80
3, 268976, Note_off_c, 1, 53, 80
3, 269040, Note_on_c, 1, 46, 82
3, 269040, Note_on_c, 1, 53, 82
3, 269216, Note_off_c, 1, 46, 80
3, 269216, Note_off_c, 1, 53, 80
3, 269280, Note_on_c, 1, 46, 82
3, 269280, Note_on_c, 1, 53, 82
3, 269456, Note_off_c, 1, 46, 80
3, 269456, Note_off_c, 1, 53, 80
3, 269520, Note_on_c, 1, 44, 82
3, 269520, Note_on_c, 1, 51, 82
3, 269696, Note_off_c, 1, 44, 80
3, 269696, Note_off_c, 1, 51, 80
3, 269760, Note_on_c, 1, 44, 82
3, 269760, Note_on_c, 1, 51, 82
3, 269936, Note_off_c, 1, 44, 80
3, 269936, Note_off_c, 1, 51, 80
3, 270000, Note_on_c, 1, 44, 82
3, 270000, Note_on_c, 1, 51, 82
3, 270176, Note_off_c, 1, 44, 80
3, 270176, Note_off_c, 1, 51, 80
3, 270240, Note_on_c, 1, 44, 82
3, 270240, Note_on_c, 1, 51, 82
3, 270416, Note_off_c, 1, 44, 80
3, 270416, Note_off_c, 1, 51, 80
3, 270480, Note_on_c, 1, 44, 82
3, 270480, Note_on_c, 1, 51, 82
3, 270656, Note_off_c, 1, 44, 80
3, 270656, Note_off_c, 1, 51, 80
3, 270720, Note_on_c, 1, 49, 82
3, 270720, Note_on_c, 1, 56, 82
3, 270896, Note_off_c, 1, 49, 80
3, 270896, Note_off_c, 1, 56, 80
3, 270960, Note_on_c, 1, 49, 82
3, 270960, Note_on_c, 1, 56, 82
3, 271136, Note_off_c, 1, 49, 80
3, 271136, Note_off_c, 1, 56, 80
3, 271200, Note_on_c, 1, 49, 82
3, 271200, Note_on_c, 1, 56, 82
3, 271376, Note_off_c, 1, 49, 80
3, 271376, Note_off_c, 1, 56, 80
3, 271440, Note_on_c, 1, 48, 82
3, 271440, Note_on_c, 1, 56, 82
3, 271616, Note_off_c, 1, 48, 80
3, 271616, Note_off_c, 1, 56, 80
3, 271680, Note_on_c, 1, 48, 82
3, 271680, Note_on_c, 1, 56, 82
3, 271856, Note_off_c, 1, 48, 80
3, 271856, Note_off_c, 1, 56, 80
3, 271920, Note_on_c, 1, 48, 82
3, 271920, Note_on_c, 1, 56, 82
3, 272096, Note_off_c, 1, 48, 80
3, 272096, Note_off_c, 1, 56, 80
3, 272160, Note_on_c, 1, 48, 82
3, 272160, Note_on_c, 1, 56, 82
3, 272336, Note_off_c, 1, 48, 80
3, 272336, Note_off_c, 1, 56, 80
3, 272400, Note_on_c, 1, 48, 82
3, 272400, Note_on_c, 1, 56, 82
3, 272576, Note_off_c, 1, 48, 80
3, 272576, Note_off_c, 1, 56, 80
3, 272640, Note_on_c, 1, 46, 82
3, 272640, Note_on_c, 1, 53, 82
3, 272816, Note_off_c, 1, 46, 80
3, 272816, Note_off_c, 1, 53, 80
3, 272880, Note_on_c, 1, 46, 82
3, 272880, Note_on_c, 1, 53, 82
3, 273056, Note_off_c, 1, 46, 80
3, 273056, Note_off_c, 1, 53, 80
3, 273120, Note_on_c, 1, 46, 82
3, 273120, Note_on_c, 1, 53, 82
3, 273296, Note_off_c, 1, 46, 80
3, 273296, Note_off_c, 1, 53, 80
3, 273360, Note_on_c, 1, 44, 82
3, 273360, Note_on_c, 1, 51, 82
3, 273536, Note_off_c, 1, 44, 80
3, 273536, Note_off_c, 1, 51, 80
3, 273600, Note_on_c, 1, 44, 82
3, 273600, Note_on_c, 1, 51, 82
3, 273776, Note_off_c, 1, 44, 80
3, 273776, Note_off_c, 1, 51, 80
3, 273840, Note_on_c, 1, 44, 82
3, 273840, Note_on_c, 1, 51, 82
3, 274016, Note_off_c, 1, 44, 80
3, 274016, Note_off_c, 1, 51, 80
3, 274080, Note_on_c, 1, 44, 82
3, 274080, Note_on_c, 1, 51, 82
3, 274256, Note_off_c, 1, 44, 80
3, 274256, Note_off_c, 1, 51, 80
3, 274320, Note_on_c, 1, 44, 82
3, 274320, Note_on_c, 1, 51, 82
3, 274496, Note_off_c, 1, 44, 80
3, 274496, Note_off_c, 1, 51, 80
3, 274560, Note_on_c, 1, 49, 82
3, 274560, Note_on_c, 1, 56, 82
3, 274736, Note_off_c, 1, 49, 80
3, 274736, Note_off_c, 1, 56, 80
3, 274800, Note_on_c, 1, 49, 82
3, 274800, Note_on_c, 1, 56, 82
3, 274976, Note_off_c, 1, 49, 80
3, 274976, Note_off_c, 1, 56, 80
3, 275040, Note_on_c, 1, 49, 82
3, 275040, Note_on_c, 1, 56, 82
3, 275216, Note_off_c, 1, 49, 80
3, 275216, Note_off_c, 1, 56, 80
3, 275280, Note_on_c, 1, 48, 82
3, 275280, Note_on_c, 1, 56, 82
3, 275456, Note_off_c, 1, 48, 80
3, 275456, Note_off_c, 1, 56, 80
3, 275520, Note_on_c, 1, 48, 82
3, 275520, Note_on_c, 1, 56, 82
3, 275696, Note_off_c, 1, 48, 80
3, 275696, Note_off_c, 1, 56, 80
3, 275760, Note_on_c, 1, 48, 82
3, 275760, Note_on_c, 1, 56, 82
3, 275936, Note_off_c, 1, 48, 80
3, 275936, Note_off_c, 1, 56, 80
3, 276000, Note_on_c, 1, 48, 82
3, 276000, Note_on_c, 1, 56, 82
3, 276176, Note_off_c, 1, 48, 80
3, 276176, Note_off_c, 1, 56, 80
3, 276240, Note_on_c, 1, 48, 82
3, 276240, Note_on_c, 1, 56, 82
3, 276416, Note_off_c, 1, 48, 80
3, 276416, Note_off_c, 1, 56, 80
3, 276480, Note_on_c, 1, 46, 82
3, 276480, Note_on_c, 1, 53, 82
3, 276656, Note_off_c, 1, 46, 80
3, 276656, Note_off_c, 1, 53, 80
3, 276720, Note_on_c, 1, 46, 82
3, 276720, Note_on_c, 1, 53, 82
3, 276896, Note_off_c, 1, 46, 80
3, 276896, Note_off_c, 1, 53, 80
3, 276960, Note_on_c, 1, 46, 82
3, 276960, Note_on_c, 1, 53, 82
3, 277136, Note_off_c, 1, 46, 80
3, 277136, Note_off_c, 1, 53, 80
3, 277200, Note_on_c, 1, 44, 82
3, 277200, Note_on_c, 1, 51, 82
3, 277376, Note_off_c, 1, 44, 80
3, 277376, Note_off_c, 1, 51, 80
3, 277440, Note_on_c, 1, 44, 82
3, 277440, Note_on_c, 1, 51, 82
3, 277616, Note_off_c, 1, 44, 80
3, 277616, Note_off_c, 1, 51, 80
3, 277680, Note_on_c, 1, 44, 82
3, 277680, Note_on_c, 1, 51, 82
3, 277856, Note_off_c, 1, 44, 80
3, 277856, Note_off_c, 1, 51, 80
3, 277920, Note_on_c, 1, 44, 82
3, 277920, Note_on_c, 1, 51, 82
3, 278096, Note_off_c, 1, 44, 80
3, 278096, Note_off_c, 1, 51, 80
3, 278160, Note_on_c, 1, 44, 82
3, 278160, Note_on_c, 1, 51, 82
3, 278336, Note_off_c, 1, 44, 80
3, 278336, Note_off_c, 1, 51, 80
3, 278400, Note_on_c, 1, 46, 101
3, 278400, Note_on_c, 1, 53, 101
3, 278400, Note_on_c, 1, 58, 101
3, 278876, Note_off_c, 1, 46, 80
3, 278876, Note_off_c, 1, 53, 80
3, 278876, Note_off_c, 1, 58, 80
3, 278880, Note_on_c, 1, 46, 101
3, 278880, Note_on_c, 1, 53, 101
3, 278880, Note_on_c, 1, 58, 101
3, 279356, Note_off_c, 1, 46, 80
3, 279356, Note_off_c, 1, 53, 80
3, 279356, Note_off_c, 1, 58, 80
3, 279360, Note_on_c, 1, 46, 101
3, 279360, Note_on_c, 1, 53, 101
3, 279360, Note_on_c, 1, 58, 101
3, 279836, Note_off_c, 1, 46, 80
3, 279836, Note_off_c, 1, 53, 80
3, 279836, Note_off_c, 1, 58, 80
3, 279840, Note_on_c, 1, 46, 101
3, 279840, Note_on_c, 1, 53, 101
3, 279840, Note_on_c, 1, 58, 101
3, 280316, Note_off_c, 1, 46, 80
3, 280316, Note_off_c, 1, 53, 80
3, 280316, Note_off_c, 1, 58, 80
3, 280320, Note_on_c, 1, 46, 101
3, 280320, Note_on_c, 1, 53, 101
3, 280320, Note_on_c, 1, 58, 101
3, 280796, Note_off_c, 1, 46, 80
3, 280796, Note_off_c, 1, 53, 80
3, 280796, Note_off_c, 1, 58, 80
3, 280800, Note_on_c, 1, 46, 101
3, 280800, Note_on_c, 1, 53, 101
3, 280800, Note_on_c, 1, 58, 101
3, 281276, Note_off_c, 1, 46, 80
3, 281276, Note_off_c, 1, 53, 80
3, 281276, Note_off_c, 1, 58, 80
3, 281280, Note_on_c, 1, 46, 101
3, 281280, Note_on_c, 1, 53, 101
3, 281280, Note_on_c, 1, 58, 101
3, 281756, Note_off_c, 1, 46, 80
3, 281756, Note_off_c, 1, 53, 80
3, 281756, Note_off_c, 1, 58, 80
3, 281760, Note_on_c, 1, 46, 101
3, 281760, Note_on_c, 1, 53, 101
3, 281760, Note_on_c, 1, 58, 101
3, 282236, Note_off_c, 1, 46, 80
3, 282236, Note_off_c, 1, 53, 80
3, 282236, Note_off_c, 1, 58, 80
3, 282240, Note_on_c, 1, 44, 101
3, 282240, Note_on_c, 1, 49, 101
3, 282240, Note_on_c, 1, 53, 101
3, 282716, Note_off_c, 1, 44, 80
3, 282716, Note_off_c, 1, 49, 80
3, 282716, Note_off_c, 1, 53, 80
3, 282720, Note_on_c, 1, 44, 101
3, 282720, Note_on_c, 1, 49, 101
3, 282720, Note_on_c, 1, 53, 101
3, 283196, Note_off_c, 1, 44, 80
3, 283196, Note_off_c, 1, 49, 80
3, 283196, Note_off_c, 1, 53, 80
3, 283200, Note_on_c, 1, 44, 101
3, 283200, Note_on_c, 1, 49, 101
3, 283200, Note_on_c, 1, 53, 101
3, 283676, Note_off_c, 1, 44, 80
3, 283676, Note_off_c, 1, 49, 80
3, 283676, Note_off_c, 1, 53, 80
3, 283680, Note_on_c, 1, 44, 101
3, 283680, Note_on_c, 1, 49, 101
3, 283680, Note_on_c, 1, 53, 101
3, 284156, Note_off_c, 1, 44, 80
3, 284156, Note_off_c, 1, 49, 80
3, 284156, Note_off_c, 1, 53, 80
3, 284160, Note_on_c, 1, 44, 101
3, 284160, Note_on_c, 1, 49, 101
3, 284160, Note_on_c, 1, 53, 101
3, 284636, Note_off_c, 1, 44, 80
3, 284636, Note_off_c, 1, 49, 80
3, 284636, Note_off_c, 1, 53, 80
3, 284640, Note_on_c, 1, 44, 101
3, 284640, Note_on_c, 1, 49, 101
3, 284640, Note_on_c, 1, 53, 101
3, 285116, Note_off_c, 1, 44, 80
3, 285116, Note_off_c, 1, 49, 80
3, 285116, Note_off_c, 1, 53, 80
3, 285120, Note_on_c, 1, 44, 101
3, 285120, Note_on_c, 1, 49, 101
3, 285120, Note_on_c, 1, 53, 101
3, 285596, Note_off_c, 1, 44, 80
3, 285596, Note_off_c, 1, 49, 80
3, 285596, Note_off_c, 1, 53, 80
3, 285600, Note_on_c, 1, 44, 101
3, 285600, Note_on_c, 1, 49, 101
3, 285600, Note_on_c, 1, 53, 101
3, 286076, Note_off_c, 1, 44, 80
3, 286076, Note_off_c, 1, 49, 80
3, 286076, Note_off_c, 1, 53, 80
3, 286080, Note_on_c, 1, 44, 82
3, 286080, Note_on_c, 1, 51, 82
3, 286256, Note_off_c, 1, 44, 80
3, 286256, Note_off_c, 1, 51, 80
3, 286320, Note_on_c, 1, 44, 82
3, 286320, Note_on_c, 1, 51, 82
3, 286496, Note_off_c, 1, 44, 80
3, 286496, Note_off_c, 1, 51, 80
3, 286560, Note_on_c, 1, 44, 82
3, 286560, Note_on_c, 1, 51, 82
3, 286736, Note_off_c, 1, 44, 80
3, 286736, Note_off_c, 1, 51, 80
3, 286800, Note_on_c, 1, 44, 82
3, 286800, Note_on_c, 1, 51, 82
3, 286976, Note_off_c, 1, 44, 80
3, 286976, Note_off_c, 1, 51, 80
3, 287040, Note_on_c, 1, 44, 82
3, 287040, Note_on_c, 1, 51, 82
3, 287216, Note_off_c, 1, 44, 80
3, 287216, Note_off_c, 1, 51, 80
3, 287280, Note_on_c, 1, 44, 82
3, 287280, Note_on_c, 1, 51, 82
3, 287456, Note_off_c, 1, 44, 80
3, 287456, Note_off_c, 1, 51, 80
3, 287520, Note_on_c, 1, 44, 82
3, 287520, Note_on_c, 1, 51, 82
3, 287696, Note_off_c, 1, 44, 80
3, 287696, Note_off_c, 1, 51, 80
3, 287760, Note_on_c, 1, 44, 82
3, 287760, Note_on_c, 1, 51, 82
3, 287936, Note_off_c, 1, 44, 80
3, 287936, Note_off_c, 1, 51, 80
3, 288000, Note_on_c, 1, 44, 82
3, 288000, Note_on_c, 1, 51, 82
3, 288176, Note_off_c, 1, 44, 80
3, 288176, Note_off_c, 1, 51, 80
3, 288240, Note_on_c, 1, 44, 82
3, 288240, Note_on_c, 1, 51, 82
3, 288416, Note_off_c, 1, 44, 80
3, 288416, Note_off_c, 1, 51, 80
3, 288480, Note_on_c, 1, 44, 82
3, 288480, Note_on_c, 1, 51, 82
3, 288656, Note_off_c, 1, 44, 80
3, 288656, Note_off_c, 1, 51, 80
3, 288720, Note_on_c, 1, 44, 82
3, 288720, Note_on_c, 1, 51, 82
3, 288896, Note_off_c, 1, 44, 80
3, 288896, Note_off_c, 1, 51, 80
3, 288960, Note_on_c, 1, 44, 82
3, 288960, Note_on_c, 1, 51, 82
3, 289136, Note_off_c, 1, 44, 80
3, 289136, Note_off_c, 1, 51, 80
3, 289200, Note_on_c, 1, 44, 82
3, 289200, Note_on_c, 1, 51, 82
3, 289376, Note_off_c, 1, 44, 80
3, 289376, Note_off_c, 1, 51, 80
3, 289440, Note_on_c, 1, 44, 82
3, 289440, Note_on_c, 1, 51, 82
3, 289616, Note_off_c, 1, 44, 80
3, 289616, Note_off_c, 1, 51, 80
3, 289680, Note_on_c, 1, 44, 82
3, 289680, Note_on_c, 1, 51, 82
3, 289856, Note_off_c, 1, 44, 80
3, 289856, Note_off_c, 1, 51, 80
3, 289920, Note_on_c, 1, 44, 82
3, 289920, Note_on_c, 1, 49, 82
3, 289920, Note_on_c, 1, 53, 82
3, 290096, Note_off_c, 1, 44, 80
3, 290096, Note_off_c, 1, 49, 80
3, 290096, Note_off_c, 1, 53, 80
3, 290160, Note_on_c, 1, 44, 82
3, 290160, Note_on_c, 1, 49, 82
3, 290160, Note_on_c, 1, 53, 82
3, 290336, Note_off_c, 1, 44, 80
3, 290336, Note_off_c, 1, 49, 80
3, 290336, Note_off_c, 1, 53, 80
3, 290400, Note_on_c, 1, 44, 82
3, 290400, Note_on_c, 1, 49, 82
3, 290400, Note_on_c, 1, 53, 82
3, 290576, Note_off_c, 1, 44, 80
3, 290576, Note_off_c, 1, 49, 80
3, 290576, Note_off_c, 1, 53, 80
3, 290640, Note_on_c, 1, 44, 82
3, 290640, Note_on_c, 1, 49, 82
3, 290640, Note_on_c, 1, 53, 82
3, 290816, Note_off_c, 1, 44, 80
3, 290816, Note_off_c, 1, 49, 80
3, 290816, Note_off_c, 1, 53, 80
3, 290880, Note_on_c, 1, 44, 82
3, 290880, Note_on_c, 1, 49, 82
3, 290880, Note_on_c, 1, 53, 82
3, 291056, Note_off_c, 1, 44, 80
3, 291056, Note_off_c, 1, 49, 80
3, 291056, Note_off_c, 1, 53, 80
3, 291120, Note_on_c, 1, 44, 82
3, 291120, Note_on_c, 1, 49, 82
3, 291120, Note_on_c, 1, 53, 82
3, 291296, Note_off_c, 1, 44, 80
3, 291296, Note_off_c, 1, 49, 80
3, 291296, Note_off_c, 1, 53, 80
3, 291360, Note_on_c, 1, 44, 82
3, 291360, Note_on_c, 1, 49, 82
3, 291360, Note_on_c, 1, 53, 82
3, 291536, Note_off_c, 1, 44, 80
3, 291536, Note_off_c, 1, 49, 80
3, 291536, Note_off_c, 1, 53, 80
3, 291600, Note_on_c, 1, 44, 82
3, 291600, Note_on_c, 1, 49, 82
3, 291600, Note_on_c, 1, 53, 82
3, 291776, Note_off_c, 1, 44, 80
3, 291776, Note_off_c, 1, 49, 80
3, 291776, Note_off_c, 1, 53, 80
3, 291840, Note_on_c, 1, 44, 82
3, 291840, Note_on_c, 1, 49, 82
3, 291840, Note_on_c, 1, 53, 82
3, 292016, Note_off_c, 1, 44, 80
3, 292016, Note_off_c, 1, 49, 80
3, 292016, Note_off_c, 1, 53, 80
3, 292080, Note_on_c, 1, 44, 82
3, 292080, Note_on_c, 1, 49, 82
3, 292080, Note_on_c, 1, 53, 82
3, 292256, Note_off_c, 1, 44, 80
3, 292256, Note_off_c, 1, 49, 80
3, 292256, Note_off_c, 1, 53, 80
3, 292320, Note_on_c, 1, 44, 82
3, 292320, Note_on_c, 1, 49, 82
3, 292320, Note_on_c, 1, 53, 82
3, 292496, Note_off_c, 1, 44, 80
3, 292496, Note_off_c, 1, 49, 80
3, 292496, Note_off_c, 1, 53, 80
3, 292560, Note_on_c, 1, 44, 82
3, 292560, Note_on_c, 1, 49, 82
3, 292560, Note_on_c, 1, 53, 82
3, 292736, Note_off_c, 1, 44, 80
3, 292736, Note_off_c, 1, 49, 80
3, 292736, Note_off_c, 1, 53, 80
3, 292800, Note_on_c, 1, 44, 82
3, 292800, Note_on_c, 1, 49, 82
3, 292800, Note_on_c, 1, 53, 82
3, 292976, Note_off_c, 1, 44, 80
3, 292976, Note_off_c, 1, 49, 80
3, 292976, Note_off_c, 1, 53, 80
3, 293040, Note_on_c, 1, 44, 82
3, 293040, Note_on_c, 1, 49, 82
3, 293040, Note_on_c, 1, 53, 82
3, 293216, Note_off_c, 1, 44, 80
3, 293216, Note_off_c, 1, 49, 80
3, 293216, Note_off_c, 1, 53, 80
3, 293280, Note_on_c, 1, 44, 82
3, 293280, Note_on_c, 1, 49, 82
3, 293280, Note_on_c, 1, 53, 82
3, 293456, Note_off_c, 1, 44, 80
3, 293456, Note_off_c, 1, 49, 80
3, 293456, Note_off_c, 1, 53, 80
3, 293520, Note_on_c, 1, 44, 82
3, 293520, Note_on_c, 1, 49, 82
3, 293520, Note_on_c, 1, 53, 82
3, 293696, Note_off_c, 1, 44, 80
3, 293696, Note_off_c, 1, 49, 80
3, 293696, Note_off_c, 1, 53, 80
3, 293760, Note_on_c, 1, 44, 82
3, 293760, Note_on_c, 1, 51, 82
3, 293936, Note_off_c, 1, 44, 80
3, 293936, Note_off_c, 1, 51, 80
3, 294000, Note_on_c, 1, 44, 82
3, 294000, Note_on_c, 1, 51, 82
3, 294176, Note_off_c, 1, 44, 80
3, 294176, Note_off_c, 1, 51, 80
3, 294240, Note_on_c, 1, 44, 82
3, 294240, Note_on_c, 1, 51, 82
3, 294416, Note_off_c, 1, 44, 80
3, 294416, Note_off_c, 1, 51, 80
3, 294480, Note_on_c, 1, 44, 82
3, 294480, Note_on_c, 1, 51, 82
3, 294656, Note_off_c, 1, 44, 80
3, 294656, Note_off_c, 1, 51, 80
3, 294720, Note_on_c, 1, 44, 82
3, 294720, Note_on_c, 1, 51, 82
3, 294896, Note_off_c, 1, 44, 80
3, 294896, Note_off_c, 1, 51, 80
3, 294960, Note_on_c, 1, 44, 82
3, 294960, Note_on_c, 1, 51, 82
3, 295136, Note_off_c, 1, 44, 80
3, 295136, Note_off_c, 1, 51, 80
3, 295200, Note_on_c, 1, 44, 82
3, 295200, Note_on_c, 1, 51, 82
3, 295376, Note_off_c, 1, 44, 80
3, 295376, Note_off_c, 1, 51, 80
3, 295440, Note_on_c, 1, 44, 82
3, 295440, Note_on_c, 1, 51, 82
3, 295616, Note_off_c, 1, 44, 80
3, 295616, Note_off_c, 1, 51, 80
3, 295680, Note_on_c, 1, 44, 82
3, 295680, Note_on_c, 1, 51, 82
3, 295856, Note_off_c, 1, 44, 80
3, 295856, Note_off_c, 1, 51, 80
3, 295920, Note_on_c, 1, 44, 82
3, 295920, Note_on_c, 1, 51, 82
3, 296096, Note_off_c, 1, 44, 80
3, 296096, Note_off_c, 1, 51, 80
3, 296160, Note_on_c, 1, 44, 82
3, 296160, Note_on_c, 1, 51, 82
3, 296336, Note_off_c, 1, 44, 80
3, 296336, Note_off_c, 1, 51, 80
3, 296400, Note_on_c, 1, 44, 82
3, 296400, Note_on_c, 1, 51, 82
3, 296576, Note_off_c, 1, 44, 80
3, 296576, Note_off_c, 1, 51, 80
3, 296640, Note_on_c, 1, 44, 82
3, 296640, Note_on_c, 1, 51, 82
3, 296816, Note_off_c, 1, 44, 80
3, 296816, Note_off_c, 1, 51, 80
3, 296880, Note_on_c, 1, 44, 82
3, 296880, Note_on_c, 1, 51, 82
3, 297056, Note_off_c, 1, 44, 80
3, 297056, Note_off_c, 1, 51, 80
3, 297120, Note_on_c, 1, 44, 82
3, 297120, Note_on_c, 1, 51, 82
3, 297296, Note_off_c, 1, 44, 80
3, 297296, Note_off_c, 1, 51, 80
3, 297360, Note_on_c, 1, 44, 82
3, 297360, Note_on_c, 1, 51, 82
3, 297536, Note_off_c, 1, 44, 80
3, 297536, Note_off_c, 1, 51, 80
3, 297600, Note_on_c, 1, 44, 82
3, 297600, Note_on_c, 1, 49, 82
3, 297600, Note_on_c, 1, 53, 82
3, 297776, Note_off_c, 1, 44, 80
3, 297776, Note_off_c, 1, 49, 80
3, 297776, Note_off_c, 1, 53, 80
3, 297840, Note_on_c, 1, 44, 82
3, 297840, Note_on_c, 1, 49, 82
3, 297840, Note_on_c, 1, 53, 82
3, 298016, Note_off_c, 1, 44, 80
3, 298016, Note_off_c, 1, 49, 80
3, 298016, Note_off_c, 1, 53, 80
3, 298080, Note_on_c, 1, 44, 82
3, 298080, Note_on_c, 1, 49, 82
3, 298080, Note_on_c, 1, 53, 82
3, 298256, Note_off_c, 1, 44, 80
3, 298256, Note_off_c, 1, 49, 80
3, 298256, Note_off_c, 1, 53, 80
3, 298320, Note_on_c, 1, 44, 82
3, 298320, Note_on_c, 1, 49, 82
3, 298320, Note_on_c, 1, 53, 82
3, 298496, Note_off_c, 1, 44, 80
3, 298496, Note_off_c, 1, 49, 80
3, 298496, Note_off_c, 1, 53, 80
3, 298560, Note_on_c, 1, 44, 82
3, 298560, Note_on_c, 1, 49, 82
3, 298560, Note_on_c, 1, 53, 82
3, 298736, Note_off_c, 1, 44, 80
3, 298736, Note_off_c, 1, 49, 80
3, 298736, Note_off_c, 1, 53, 80
3, 298800, Note_on_c, 1, 44, 82
3, 298800, Note_on_c, 1, 49, 82
3, 298800, Note_on_c, 1, 53, 82
3, 298976, Note_off_c, 1, 44, 80
3, 298976, Note_off_c, 1, 49, 80
3, 298976, Note_off_c, 1, 53, 80
3, 299040, Note_on_c, 1, 44, 82
3, 299040, Note_on_c, 1, 49, 82
3, 299040, Note_on_c, 1, 53, 82
3, 299216, Note_off_c, 1, 44, 80
3, 299216, Note_off_c, 1, 49, 80
3, 299216, Note_off_c, 1, 53, 80
3, 299280, Note_on_c, 1, 44, 82
3, 299280, Note_on_c, 1, 49, 82
3, 299280, Note_on_c, 1, 53, 82
3, 299456, Note_off_c, 1, 44, 80
3, 299456, Note_off_c, 1, 49, 80
3, 299456, Note_off_c, 1, 53, 80
3, 299520, Note_on_c, 1, 44, 82
3, 299520, Note_on_c, 1, 49, 82
3, 299520, Note_on_c, 1, 53, 82
3, 299696, Note_off_c, 1, 44, 80
3, 299696, Note_off_c, 1, 49, 80
3, 299696, Note_off_c, 1, 53, 80
3, 299760, Note_on_c, 1, 44, 82
3, 299760, Note_on_c, 1, 49, 82
3, 299760, Note_on_c, 1, 53, 82
3, 299936, Note_off_c, 1, 44, 80
3, 299936, Note_off_c, 1, 49, 80
3, 299936, Note_off_c, 1, 53, 80
3, 300000, Note_on_c, 1, 44, 82
3, 300000, Note_on_c, 1, 49, 82
3, 300000, Note_on_c, 1, 53, 82
3, 300176, Note_off_c, 1, 44, 80
3, 300176, Note_off_c, 1, 49, 80
3, 300176, Note_off_c, 1, 53, 80
3, 300240, Note_on_c, 1, 44, 82
3, 300240, Note_on_c, 1, 49, 82
3, 300240, Note_on_c, 1, 53, 82
3, 300416, Note_off_c, 1, 44, 80
3, 300416, Note_off_c, 1, 49, 80
3, 300416, Note_off_c, 1, 53, 80
3, 300480, Note_on_c, 1, 44, 82
3, 300480, Note_on_c, 1, 49, 82
3, 300480, Note_on_c, 1, 53, 82
3, 300656, Note_off_c, 1, 44, 80
3, 300656, Note_off_c, 1, 49, 80
3, 300656, Note_off_c, 1, 53, 80
3, 300720, Note_on_c, 1, 44, 82
3, 300720, Note_on_c, 1, 49, 82
3, 300720, Note_on_c, 1, 53, 82
3, 300896, Note_off_c, 1, 44, 80
3, 300896, Note_off_c, 1, 49, 80
3, 300896, Note_off_c, 1, 53, 80
3, 300960, Note_on_c, 1, 44, 82
3, 300960, Note_on_c, 1, 49, 82
3, 300960, Note_on_c, 1, 53, 82
3, 301136, Note_off_c, 1, 44, 80
3, 301136, Note_off_c, 1, 49, 80
3, 301136, Note_off_c, 1, 53, 80
3, 301200, Note_on_c, 1, 44, 82
3, 301200, Note_on_c, 1, 49, 82
3, 301200, Note_on_c, 1, 53, 82
3, 301376, Note_off_c, 1, 44, 80
3, 301376, Note_off_c, 1, 49, 80
3, 301376, Note_off_c, 1, 53, 80
3, 301440, Note_on_c, 1, 44, 82
3, 301440, Note_on_c, 1, 51, 82
3, 301616, Note_off_c, 1, 44, 80
3, 301616, Note_off_c, 1, 51, 80
3, 301680, Note_on_c, 1, 44, 82
3, 301680, Note_on_c, 1, 51, 82
3, 301856, Note_off_c, 1, 44, 80
3, 301856, Note_off_c, 1, 51, 80
3, 301920, Note_on_c, 1, 44, 82
3, 301920, Note_on_c, 1, 51, 82
3, 302096, Note_off_c, 1, 44, 80
3, 302096, Note_off_c, 1, 51, 80
3, 302160, Note_on_c, 1, 44, 82
3, 302160, Note_on_c, 1, 51, 82
3, 302336, Note_off_c, 1, 44, 80
3, 302336, Note_off_c, 1, 51, 80
3, 302400, Note_on_c, 1, 44, 82
3, 302400, Note_on_c, 1, 51, 82
3, 302576, Note_off_c, 1, 44, 80
3, 302576, Note_off_c, 1, 51, 80
3, 302640, Note_on_c, 1, 44, 82
3, 302640, Note_on_c, 1, 51, 82
3, 302816, Note_off_c, 1, 44, 80
3, 302816, Note_off_c, 1, 51, 80
3, 302880, Note_on_c, 1, 44, 82
3, 302880, Note_on_c, 1, 51, 82
3, 303056, Note_off_c, 1, 44, 80
3, 303056, Note_off_c, 1, 51, 80
3, 303120, Note_on_c, 1, 44, 82
3, 303120, Note_on_c, 1, 51, 82
3, 303296, Note_off_c, 1, 44, 80
3, 303296, Note_off_c, 1, 51, 80
3, 303360, Note_on_c, 1, 44, 82
3, 303360, Note_on_c, 1, 51, 82
3, 303536, Note_off_c, 1, 44, 80
3, 303536, Note_off_c, 1, 51, 80
3, 303600, Note_on_c, 1, 44, 82
3, 303600, Note_on_c, 1, 51, 82
3, 303776, Note_off_c, 1, 44, 80
3, 303776, Note_off_c, 1, 51, 80
3, 303840, Note_on_c, 1, 44, 82
3, 303840, Note_on_c, 1, 51, 82
3, 304016, Note_off_c, 1, 44, 80
3, 304016, Note_off_c, 1, 51, 80
3, 304080, Note_on_c, 1, 44, 82
3, 304080, Note_on_c, 1, 51, 82
3, 304256, Note_off_c, 1, 44, 80
3, 304256, Note_off_c, 1, 51, 80
3, 304320, Note_on_c, 1, 44, 82
3, 304320, Note_on_c, 1, 51, 82
3, 304496, Note_off_c, 1, 44, 80
3, 304496, Note_off_c, 1, 51, 80
3, 304560, Note_on_c, 1, 44, 82
3, 304560, Note_on_c, 1, 51, 82
3, 304736, Note_off_c, 1, 44, 80
3, 304736, Note_off_c, 1, 51, 80
3, 304800, Note_on_c, 1, 44, 82
3, 304800, Note_on_c, 1, 51, 82
3, 304976, Note_off_c, 1, 44, 80
3, 304976, Note_off_c, 1, 51, 80
3, 305040, Note_on_c, 1, 44, 82
3, 305040, Note_on_c, 1, 51, 82
3, 305216, Note_off_c, 1, 44, 80
3, 305216, Note_off_c, 1, 51, 80
3, 305280, Note_on_c, 1, 44, 82
3, 305280, Note_on_c, 1, 49, 82
3, 305280, Note_on_c, 1, 53, 82
3, 305456, Note_off_c, 1, 44, 80
3, 305456, Note_off_c, 1, 49, 80
3, 305456, Note_off_c, 1, 53, 80
3, 305520, Note_on_c, 1, 44, 82
3, 305520, Note_on_c, 1, 49, 82
3, 305520, Note_on_c, 1, 53, 82
3, 305696, Note_off_c, 1, 44, 80
3, 305696, Note_off_c, 1, 49, 80
3, 305696, Note_off_c, 1, 53, 80
3, 305760, Note_on_c, 1, 44, 82
3, 305760, Note_on_c, 1, 49, 82
3, 305760, Note_on_c, 1, 53, 82
3, 305936, Note_off_c, 1, 44, 80
3, 305936, Note_off_c, 1, 49, 80
3, 305936, Note_off_c, 1, 53, 80
3, 306000, Note_on_c, 1, 44, 82
3, 306000, Note_on_c, 1, 49, 82
3, 306000, Note_on_c, 1, 53, 82
3, 306176, Note_off_c, 1, 44, 80
3, 306176, Note_off_c, 1, 49, 80
3, 306176, Note_off_c, 1, 53, 80
3, 306240, Note_on_c, 1, 44, 82
3, 306240, Note_on_c, 1, 49, 82
3, 306240, Note_on_c, 1, 53, 82
3, 306416, Note_off_c, 1, 44, 80
3, 306416, Note_off_c, 1, 49, 80
3, 306416, Note_off_c, 1, 53, 80
3, 306480, Note_on_c, 1, 44, 82
3, 306480, Note_on_c, 1, 49, 82
3, 306480, Note_on_c, 1, 53, 82
3, 306656, Note_off_c, 1, 44, 80
3, 306656, Note_off_c, 1, 49, 80
3, 306656, Note_off_c, 1, 53, 80
3, 306720, Note_on_c, 1, 44, 82
3, 306720, Note_on_c, 1, 49, 82
3, 306720, Note_on_c, 1, 53, 82
3, 306896, Note_off_c, 1, 44, 80
3, 306896, Note_off_c, 1, 49, 80
3, 306896, Note_off_c, 1, 53, 80
3, 306960, Note_on_c, 1, 44, 82
3, 306960, Note_on_c, 1, 49, 82
3, 306960, Note_on_c, 1, 53, 82
3, 307136, Note_off_c, 1, 44, 80
3, 307136, Note_off_c, 1, 49, 80
3, 307136, Note_off_c, 1, 53, 80
3, 307200, Note_on_c, 1, 44, 82
3, 307200, Note_on_c, 1, 49, 82
3, 307200, Note_on_c, 1, 53, 82
3, 307376, Note_off_c, 1, 44, 80
3, 307376, Note_off_c, 1, 49, 80
3, 307376, Note_off_c, 1, 53, 80
3, 307440, Note_on_c, 1, 44, 82
3, 307440, Note_on_c, 1, 49, 82
3, 307440, Note_on_c, 1, 53, 82
3, 307616, Note_off_c, 1, 44, 80
3, 307616, Note_off_c, 1, 49, 80
3, 307616, Note_off_c, 1, 53, 80
3, 307680, Note_on_c, 1, 44, 82
3, 307680, Note_on_c, 1, 49, 82
3, 307680, Note_on_c, 1, 53, 82
3, 307856, Note_off_c, 1, 44, 80
3, 307856, Note_off_c, 1, 49, 80
3, 307856, Note_off_c, 1, 53, 80
3, 307920, Note_on_c, 1, 44, 82
3, 307920, Note_on_c, 1, 49, 82
3, 307920, Note_on_c, 1, 53, 82
3, 308096, Note_off_c, 1, 44, 80
3, 308096, Note_off_c, 1, 49, 80
3, 308096, Note_off_c, 1, 53, 80
3, 308160, Note_on_c, 1, 44, 82
3, 308160, Note_on_c, 1, 49, 82
3, 308160, Note_on_c, 1, 53, 82
3, 308336, Note_off_c, 1, 44, 80
3, 308336, Note_off_c, 1, 49, 80
3, 308336, Note_off_c, 1, 53, 80
3, 308400, Note_on_c, 1, 44, 82
3, 308400, Note_on_c, 1, 49, 82
3, 308400, Note_on_c, 1, 53, 82
3, 308576, Note_off_c, 1, 44, 80
3, 308576, Note_off_c, 1, 49, 80
3, 308576, Note_off_c, 1, 53, 80
3, 308640, Note_on_c, 1, 44, 82
3, 308640, Note_on_c, 1, 49, 82
3, 308640, Note_on_c, 1, 53, 82
3, 308816, Note_off_c, 1, 44, 80
3, 308816, Note_off_c, 1, 49, 80
3, 308816, Note_off_c, 1, 53, 80
3, 308880, Note_on_c, 1, 44, 82
3, 308880, Note_on_c, 1, 49, 82
3, 308880, Note_on_c, 1, 53, 82
3, 309056, Note_off_c, 1, 44, 80
3, 309056, Note_off_c, 1, 49, 80
3, 309056, Note_off_c, 1, 53, 80
3, 309120, Note_on_c, 1, 44, 82
3, 309120, Note_on_c, 1, 51, 82
3, 309296, Note_off_c, 1, 44, 80
3, 309296, Note_off_c, 1, 51, 80
3, 309360, Note_on_c, 1, 44, 82
3, 309360, Note_on_c, 1, 51, 82
3, 309536, Note_off_c, 1, 44, 80
3, 309536, Note_off_c, 1, 51, 80
3, 309600, Note_on_c, 1, 44, 82
3, 309600, Note_on_c, 1, 51, 82
3, 309776, Note_off_c, 1, 44, 80
3, 309776, Note_off_c, 1, 51, 80
3, 309840, Note_on_c, 1, 44, 82
3, 309840, Note_on_c, 1, 51, 82
3, 310016, Note_off_c, 1, 44, 80
3, 310016, Note_off_c, 1, 51, 80
3, 310080, Note_on_c, 1, 44, 82
3, 310080, Note_on_c, 1, 51, 82
3, 310256, Note_off_c, 1, 44, 80
3, 310256, Note_off_c, 1, 51, 80
3, 310320, Note_on_c, 1, 44, 82
3, 310320, Note_on_c, 1, 51, 82
3, 310496, Note_off_c, 1, 44, 80
3, 310496, Note_off_c, 1, 51, 80
3, 310560, Note_on_c, 1, 44, 82
3, 310560, Note_on_c, 1, 51, 82
3, 310736, Note_off_c, 1, 44, 80
3, 310736, Note_off_c, 1, 51, 80
3, 310800, Note_on_c, 1, 44, 82
3, 310800, Note_on_c, 1, 51, 82
3, 310976, Note_off_c, 1, 44, 80
3, 310976, Note_off_c, 1, 51, 80
3, 311040, Note_on_c, 1, 44, 82
3, 311040, Note_on_c, 1, 51, 82
3, 311216, Note_off_c, 1, 44, 80
3, 311216, Note_off_c, 1, 51, 80
3, 311280, Note_on_c, 1, 44, 82
3, 311280, Note_on_c, 1, 51, 82
3, 311456, Note_off_c, 1, 44, 80
3, 311456, Note_off_c, 1, 51, 80
3, 311520, Note_on_c, 1, 44, 82
3, 311520, Note_on_c, 1, 51, 82
3, 311696, Note_off_c, 1, 44, 80
3, 311696, Note_off_c, 1, 51, 80
3, 311760, Note_on_c, 1, 44, 82
3, 311760, Note_on_c, 1, 51, 82
3, 311936, Note_off_c, 1, 44, 80
3, 311936, Note_off_c, 1, 51, 80
3, 312000, Note_on_c, 1, 44, 82
3, 312000, Note_on_c, 1, 51, 82
3, 312176, Note_off_c, 1, 44, 80
3, 312176, Note_off_c, 1, 51, 80
3, 312240, Note_on_c, 1, 44, 82
3, 312240, Note_on_c, 1, 51, 82
3, 312416, Note_off_c, 1, 44, 80
3, 312416, Note_off_c, 1, 51, 80
3, 312480, Note_on_c, 1, 44, 82
3, 312480, Note_on_c, 1, 51, 82
3, 312656, Note_off_c, 1, 44, 80
3, 312656, Note_off_c, 1, 51, 80
3, 312720, Note_on_c, 1, 44, 82
3, 312720, Note_on_c, 1, 51, 82
3, 312896, Note_off_c, 1, 44, 80
3, 312896, Note_off_c, 1, 51, 80
3, 312960, Note_on_c, 1, 44, 82
3, 312960, Note_on_c, 1, 49, 82
3, 312960, Note_on_c, 1, 53, 82
3, 313136, Note_off_c, 1, 44, 80
3, 313136, Note_off_c, 1, 49, 80
3, 313136, Note_off_c, 1, 53, 80
3, 313200, Note_on_c, 1, 44, 82
3, 313200, Note_on_c, 1, 49, 82
3, 313200, Note_on_c, 1, 53, 82
3, 313376, Note_off_c, 1, 44, 80
3, 313376, Note_off_c, 1, 49, 80
3, 313376, Note_off_c, 1, 53, 80
3, 313440, Note_on_c, 1, 44, 82
3, 313440, Note_on_c, 1, 49, 82
3, 313440, Note_on_c, 1, 53, 82
3, 313616, Note_off_c, 1, 44, 80
3, 313616, Note_off_c, 1, 49, 80
3, 313616, Note_off_c, 1, 53, 80
3, 313680, Note_on_c, 1, 44, 82
3, 313680, Note_on_c, 1, 49, 82
3, 313680, Note_on_c, 1, 53, 82
3, 313856, Note_off_c, 1, 44, 80
3, 313856, Note_off_c, 1, 49, 80
3, 313856, Note_off_c, 1, 53, 80
3, 313920, Note_on_c, 1, 44, 82
3, 313920, Note_on_c, 1, 49, 82
3, 313920, Note_on_c, 1, 53, 82
3, 314096, Note_off_c, 1, 44, 80
3, 314096, Note_off_c, 1, 49, 80
3, 314096, Note_off_c, 1, 53, 80
3, 314160, Note_on_c, 1, 44, 82
3, 314160, Note_on_c, 1, 49, 82
3, 314160, Note_on_c, 1, 53, 82
3, 314336, Note_off_c, 1, 44, 80
3, 314336, Note_off_c, 1, 49, 80
3, 314336, Note_off_c, 1, 53, 80
3, 314400, Note_on_c, 1, 44, 82
3, 314400, Note_on_c, 1, 49, 82
3, 314400, Note_on_c, 1, 53, 82
3, 314576, Note_off_c, 1, 44, 80
3, 314576, Note_off_c, 1, 49, 80
3, 314576, Note_off_c, 1, 53, 80
3, 314640, Note_on_c, 1, 44, 82
3, 314640, Note_on_c, 1, 49, 82
3, 314640, Note_on_c, 1, 53, 82
3, 314816, Note_off_c, 1, 44, 80
3, 314816, Note_off_c, 1, 49, 80
3, 314816, Note_off_c, 1, 53, 80
3, 314880, Note_on_c, 1, 44, 82
3, 314880, Note_on_c, 1, 49, 82
3, 314880, Note_on_c, 1, 53, 82
3, 315056, Note_off_c, 1, 44, 80
3, 315056, Note_off_c, 1, 49, 80
3, 315056, Note_off_c, 1, 53, 80
3, 315120, Note_on_c, 1, 44, 82
3, 315120, Note_on_c, 1, 49, 82
3, 315120, Note_on_c, 1, 53, 82
3, 315296, Note_off_c, 1, 44, 80
3, 315296, Note_off_c, 1, 49, 80
3, 315296, Note_off_c, 1, 53, 80
3, 315360, Note_on_c, 1, 44, 82
3, 315360, Note_on_c, 1, 49, 82
3, 315360, Note_on_c, 1, 53, 82
3, 315536, Note_off_c, 1, 44, 80
3, 315536, Note_off_c, 1, 49, 80
3, 315536, Note_off_c, 1, 53, 80
3, 315600, Note_on_c, 1, 44, 82
3, 315600, Note_on_c, 1, 49, 82
3, 315600, Note_on_c, 1, 53, 82
3, 315776, Note_off_c, 1, 44, 80
3, 315776, Note_off_c, 1, 49, 80
3, 315776, Note_off_c, 1, 53, 80
3, 315840, Note_on_c, 1, 44, 82
3, 315840, Note_on_c, 1, 49, 82
3, 315840, Note_on_c, 1, 53, 82
3, 316016, Note_off_c, 1, 44, 80
3, 316016, Note_off_c, 1, 49, 80
3, 316016, Note_off_c, 1, 53, 80
3, 316080, Note_on_c, 1, 44, 82
3, 316080, Note_on_c, 1, 49, 82
3, 316080, Note_on_c, 1, 53, 82
3, 316256, Note_off_c, 1, 44, 80
3, 316256, Note_off_c, 1, 49, 80
3, 316256, Note_off_c, 1, 53, 80
3, 316320, Note_on_c, 1, 44, 82
3, 316320, Note_on_c, 1, 49, 82
3, 316320, Note_on_c, 1, 53, 82
3, 316496, Note_off_c, 1, 44, 80
3, 316496, Note_off_c, 1, 49, 80
3, 316496, Note_off_c, 1, 53, 80
3, 316560, Note_on_c, 1, 44, 82
3, 316560, Note_on_c, 1, 49, 82
3, 316560, Note_on_c, 1, 53, 82
3, 316736, Note_off_c, 1, 44, 80
3, 316736, Note_off_c, 1, 49, 80
3, 316736, Note_off_c, 1, 53, 80
3, 316800, Note_on_c, 1, 44, 82
3, 316800, Note_on_c, 1, 51, 82
3, 316976, Note_off_c, 1, 44, 80
3, 316976, Note_off_c, 1, 51, 80
3, 317040, Note_on_c, 1, 44, 82
3, 317040, Note_on_c, 1, 51, 82
3, 317216, Note_off_c, 1, 44, 80
3, 317216, Note_off_c, 1, 51, 80
3, 317280, Note_on_c, 1, 44, 82
3, 317280, Note_on_c, 1, 51, 82
3, 317456, Note_off_c, 1, 44, 80
3, 317456, Note_off_c, 1, 51, 80
3, 317520, Note_on_c, 1, 44, 82
3, 317520, Note_on_c, 1, 51, 82
3, 317696, Note_off_c, 1, 44, 80
3, 317696, Note_off_c, 1, 51, 80
3, 317760, Note_on_c, 1, 44, 82
3, 317760, Note_on_c, 1, 51, 82
3, 317936, Note_off_c, 1, 44, 80
3, 317936, Note_off_c, 1, 51, 80
3, 318000, Note_on_c, 1, 44, 82
3, 318000, Note_on_c, 1, 51, 82
3, 318176, Note_off_c, 1, 44, 80
3, 318176, Note_off_c, 1, 51, 80
3, 318240, Note_on_c, 1, 44, 82
3, 318240, Note_on_c, 1, 51, 82
3, 318416, Note_off_c, 1, 44, 80
3, 318416, Note_off_c, 1, 51, 80
3, 318480, Note_on_c, 1, 44, 82
3, 318480, Note_on_c, 1, 51, 82
3, 318656, Note_off_c, 1, 44, 80
3, 318656, Note_off_c, 1, 51, 80
3, 318720, Note_on_c, 1, 44, 82
3, 318720, Note_on_c, 1, 51, 82
3, 318896, Note_off_c, 1, 44, 80
3, 318896, Note_off_c, 1, 51, 80
3, 318960, Note_on_c, 1, 44, 82
3, 318960, Note_on_c, 1, 51, 82
3, 319136, Note_off_c, 1, 44, 80
3, 319136, Note_off_c, 1, 51, 80
3, 319200, Note_on_c, 1, 44, 82
3, 319200, Note_on_c, 1, 51, 82
3, 319376, Note_off_c, 1, 44, 80
3, 319376, Note_off_c, 1, 51, 80
3, 319440, Note_on_c, 1, 44, 82
3, 319440, Note_on_c, 1, 51, 82
3, 319616, Note_off_c, 1, 44, 80
3, 319616, Note_off_c, 1, 51, 80
3, 319680, Note_on_c, 1, 44, 82
3, 319680, Note_on_c, 1, 51, 82
3, 319856, Note_off_c, 1, 44, 80
3, 319856, Note_off_c, 1, 51, 80
3, 319920, Note_on_c, 1, 44, 82
3, 319920, Note_on_c, 1, 51, 82
3, 320096, Note_off_c, 1, 44, 80
3, 320096, Note_off_c, 1, 51, 80
3, 320160, Note_on_c, 1, 44, 82
3, 320160, Note_on_c, 1, 51, 82
3, 320336, Note_off_c, 1, 44, 80
3, 320336, Note_off_c, 1, 51, 80
3, 320400, Note_on_c, 1, 44, 82
3, 320400, Note_on_c, 1, 51, 82
3, 320576, Note_off_c, 1, 44, 80
3, 320576, Note_off_c, 1, 51, 80
3, 320640, Note_on_c, 1, 44, 82
3, 320640, Note_on_c, 1, 49, 82
3, 320640, Note_on_c, 1, 53, 82
3, 320816, Note_off_c, 1, 44, 80
3, 320816, Note_off_c, 1, 49, 80
3, 320816, Note_off_c, 1, 53, 80
3, 320880, Note_on_c, 1, 44, 82
3, 320880, Note_on_c, 1, 49, 82
3, 320880, Note_on_c, 1, 53, 82
3, 321056, Note_off_c, 1, 44, 80
3, 321056, Note_off_c, 1, 49, 80
3, 321056, Note_off_c, 1, 53, 80
3, 321120, Note_on_c, 1, 44, 82
3, 321120, Note_on_c, 1, 49, 82
3, 321120, Note_on_c, 1, 53, 82
3, 321296, Note_off_c, 1, 44, 80
3, 321296, Note_off_c, 1, 49, 80
3, 321296, Note_off_c, 1, 53, 80
3, 321360, Note_on_c, 1, 44, 82
3, 321360, Note_on_c, 1, 49, 82
3, 321360, Note_on_c, 1, 53, 82
3, 321536, Note_off_c, 1, 44, 80
3, 321536, Note_off_c, 1, 49, 80
3, 321536, Note_off_c, 1, 53, 80
3, 321600, Note_on_c, 1, 44, 82
3, 321600, Note_on_c, 1, 49, 82
3, 321600, Note_on_c, 1, 53, 82
3, 321776, Note_off_c, 1, 44, 80
3, 321776, Note_off_c, 1, 49, 80
3, 321776, Note_off_c, 1, 53, 80
3, 321840, Note_on_c, 1, 44, 82
3, 321840, Note_on_c, 1, 49, 82
3, 321840, Note_on_c, 1, 53, 82
3, 322016, Note_off_c, 1, 44, 80
3, 322016, Note_off_c, 1, 49, 80
3, 322016, Note_off_c, 1, 53, 80
3, 322080, Note_on_c, 1, 44, 82
3, 322080, Note_on_c, 1, 49, 82
3, 322080, Note_on_c, 1, 53, 82
3, 322256, Note_off_c, 1, 44, 80
3, 322256, Note_off_c, 1, 49, 80
3, 322256, Note_off_c, 1, 53, 80
3, 322320, Note_on_c, 1, 44, 82
3, 322320, Note_on_c, 1, 49, 82
3, 322320, Note_on_c, 1, 53, 82
3, 322496, Note_off_c, 1, 44, 80
3, 322496, Note_off_c, 1, 49, 80
3, 322496, Note_off_c, 1, 53, 80
3, 322560, Note_on_c, 1, 44, 82
3, 322560, Note_on_c, 1, 49, 82
3, 322560, Note_on_c, 1, 53, 82
3, 322736, Note_off_c, 1, 44, 80
3, 322736, Note_off_c, 1, 49, 80
3, 322736, Note_off_c, 1, 53, 80
3, 322800, Note_on_c, 1, 44, 82
3, 322800, Note_on_c, 1, 49, 82
3, 322800, Note_on_c, 1, 53, 82
3, 322976, Note_off_c, 1, 44, 80
3, 322976, Note_off_c, 1, 49, 80
3, 322976, Note_off_c, 1, 53, 80
3, 323040, Note_on_c, 1, 44, 82
3, 323040, Note_on_c, 1, 49, 82
3, 323040, Note_on_c, 1, 53, 82
3, 323216, Note_off_c, 1, 44, 80
3, 323216, Note_off_c, 1, 49, 80
3, 323216, Note_off_c, 1, 53, 80
3, 323280, Note_on_c, 1, 44, 82
3, 323280, Note_on_c, 1, 49, 82
3, 323280, Note_on_c, 1, 53, 82
3, 323456, Note_off_c, 1, 44, 80
3, 323456, Note_off_c, 1, 49, 80
3, 323456, Note_off_c, 1, 53, 80
3, 323520, Note_on_c, 1, 44, 82
3, 323520, Note_on_c, 1, 49, 82
3, 323520, Note_on_c, 1, 53, 82
3, 323696, Note_off_c, 1, 44, 80
3, 323696, Note_off_c, 1, 49, 80
3, 323696, Note_off_c, 1, 53, 80
3, 323760, Note_on_c, 1, 44, 82
3, 323760, Note_on_c, 1, 49, 82
3, 323760, Note_on_c, 1, 53, 82
3, 323936, Note_off_c, 1, 44, 80
3, 323936, Note_off_c, 1, 49, 80
3, 323936, Note_off_c, 1, 53, 80
3, 324000, Note_on_c, 1, 44, 82
3, 324000, Note_on_c, 1, 49, 82
3, 324000, Note_on_c, 1, 53, 82
3, 324176, Note_off_c, 1, 44, 80
3, 324176, Note_off_c, 1, 49, 80
3, 324176, Note_off_c, 1, 53, 80
3, 324240, Note_on_c, 1, 44, 82
3, 324240, Note_on_c, 1, 49, 82
3, 324240, Note_on_c, 1, 53, 82
3, 324416, Note_off_c, 1, 44, 80
3, 324416, Note_off_c, 1, 49, 80
3, 324416, Note_off_c, 1, 53, 80
3, 324480, Note_on_c, 1, 44, 82
3, 324480, Note_on_c, 1, 51, 82
3, 324656, Note_off_c, 1, 44, 80
3, 324656, Note_off_c, 1, 51, 80
3, 324720, Note_on_c, 1, 44, 82
3, 324720, Note_on_c, 1, 51, 82
3, 324896, Note_off_c, 1, 44, 80
3, 324896, Note_off_c, 1, 51, 80
3, 324960, Note_on_c, 1, 44, 82
3, 324960, Note_on_c, 1, 51, 82
3, 325136, Note_off_c, 1, 44, 80
3, 325136, Note_off_c, 1, 51, 80
3, 325200, Note_on_c, 1, 44, 82
3, 325200, Note_on_c, 1, 51, 82
3, 325376, Note_off_c, 1, 44, 80
3, 325376, Note_off_c, 1, 51, 80
3, 325440, Note_on_c, 1, 44, 82
3, 325440, Note_on_c, 1, 51, 82
3, 325616, Note_off_c, 1, 44, 80
3, 325616, Note_off_c, 1, 51, 80
3, 325680, Note_on_c, 1, 44, 82
3, 325680, Note_on_c, 1, 51, 82
3, 325856, Note_off_c, 1, 44, 80
3, 325856, Note_off_c, 1, 51, 80
3, 325920, Note_on_c, 1, 44, 82
3, 325920, Note_on_c, 1, 51, 82
3, 326096, Note_off_c, 1, 44, 80
3, 326096, Note_off_c, 1, 51, 80
3, 326160, Note_on_c, 1, 44, 82
3, 326160, Note_on_c, 1, 51, 82
3, 326336, Note_off_c, 1, 44, 80
3, 326336, Note_off_c, 1, 51, 80
3, 326400, Note_on_c, 1, 44, 82
3, 326400, Note_on_c, 1, 51, 82
3, 326576, Note_off_c, 1, 44, 80
3, 326576, Note_off_c, 1, 51, 80
3, 326640, Note_on_c, 1, 44, 82
3, 326640, Note_on_c, 1, 51, 82
3, 326816, Note_off_c, 1, 44, 80
3, 326816, Note_off_c, 1, 51, 80
3, 326880, Note_on_c, 1, 44, 82
3, 326880, Note_on_c, 1, 51, 82
3, 327056, Note_off_c, 1, 44, 80
3, 327056, Note_off_c, 1, 51, 80
3, 327120, Note_on_c, 1, 44, 82
3, 327120, Note_on_c, 1, 51, 82
3, 327296, Note_off_c, 1, 44, 80
3, 327296, Note_off_c, 1, 51, 80
3, 327360, Note_on_c, 1, 44, 82
3, 327360, Note_on_c, 1, 51, 82
3, 327536, Note_off_c, 1, 44, 80
3, 327536, Note_off_c, 1, 51, 80
3, 327600, Note_on_c, 1, 44, 82
3, 327600, Note_on_c, 1, 51, 82
3, 327776, Note_off_c, 1, 44, 80
3, 327776, Note_off_c, 1, 51, 80
3, 327840, Note_on_c, 1, 44, 82
3, 327840, Note_on_c, 1, 51, 82
3, 328016, Note_off_c, 1, 44, 80
3, 328016, Note_off_c, 1, 51, 80
3, 328080, Note_on_c, 1, 44, 82
3, 328080, Note_on_c, 1, 51, 82
3, 328256, Note_off_c, 1, 44, 80
3, 328256, Note_off_c, 1, 51, 80
3, 328320, Note_on_c, 1, 44, 82
3, 328320, Note_on_c, 1, 49, 82
3, 328320, Note_on_c, 1, 53, 82
3, 328496, Note_off_c, 1, 44, 80
3, 328496, Note_off_c, 1, 49, 80
3, 328496, Note_off_c, 1, 53, 80
3, 328560, Note_on_c, 1, 44, 82
3, 328560, Note_on_c, 1, 49, 82
3, 328560, Note_on_c, 1, 53, 82
3, 328736, Note_off_c, 1, 44, 80
3, 328736, Note_off_c, 1, 49, 80
3, 328736, Note_off_c, 1, 53, 80
3, 328800, Note_on_c, 1, 44, 82
3, 328800, Note_on_c, 1, 49, 82
3, 328800, Note_on_c, 1, 53, 82
3, 328976, Note_off_c, 1, 44, 80
3, 328976, Note_off_c, 1, 49, 80
3, 328976, Note_off_c, 1, 53, 80
3, 329040, Note_on_c, 1, 44, 82
3, 329040, Note_on_c, 1, 49, 82
3, 329040, Note_on_c, 1, 53, 82
3, 329216, Note_off_c, 1, 44, 80
3, 329216, Note_off_c, 1, 49, 80
3, 329216, Note_off_c, 1, 53, 80
3, 329280, Note_on_c, 1, 44, 82
3, 329280, Note_on_c, 1, 49, 82
3, 329280, Note_on_c, 1, 53, 82
3, 329456, Note_off_c, 1, 44, 80
3, 329456, Note_off_c, 1, 49, 80
3, 329456, Note_off_c, 1, 53, 80
3, 329520, Note_on_c, 1, 44, 82
3, 329520, Note_on_c, 1, 49, 82
3, 329520, Note_on_c, 1, 53, 82
3, 329696, Note_off_c, 1, 44, 80
3, 329696, Note_off_c, 1, 49, 80
3, 329696, Note_off_c, 1, 53, 80
3, 329760, Note_on_c, 1, 44, 82
3, 329760, Note_on_c, 1, 49, 82
3, 329760, Note_on_c, 1, 53, 82
3, 329936, Note_off_c, 1, 44, 80
3, 329936, Note_off_c, 1, 49, 80
3, 329936, Note_off_c, 1, 53, 80
3, 330000, Note_on_c, 1, 44, 82
3, 330000, Note_on_c, 1, 49, 82
3, 330000, Note_on_c, 1, 53, 82
3, 330176, Note_off_c, 1, 44, 80
3, 330176, Note_off_c, 1, 49, 80
3, 330176, Note_off_c, 1, 53, 80
3, 330240, Note_on_c, 1, 44, 82
3, 330240, Note_on_c, 1, 49, 82
3, 330240, Note_on_c, 1, 53, 82
3, 330416, Note_off_c, 1, 44, 80
3, 330416, Note_off_c, 1, 49, 80
3, 330416, Note_off_c, 1, 53, 80
3, 330480, Note_on_c, 1, 44, 82
3, 330480, Note_on_c, 1, 49, 82
3, 330480, Note_on_c, 1, 53, 82
3, 330656, Note_off_c, 1, 44, 80
3, 330656, Note_off_c, 1, 49, 80
3, 330656, Note_off_c, 1, 53, 80
3, 330720, Note_on_c, 1, 44, 82
3, 330720, Note_on_c, 1, 49, 82
3, 330720, Note_on_c, 1, 53, 82
3, 330896, Note_off_c, 1, 44, 80
3, 330896, Note_off_c, 1, 49, 80
3, 330896, Note_off_c, 1, 53, 80
3, 330960, Note_on_c, 1, 44, 82
3, 330960, Note_on_c, 1, 49, 82
3, 330960, Note_on_c, 1, 53, 82
3, 331136, Note_off_c, 1, 44, 80
3, 331136, Note_off_c, 1, 49, 80
3, 331136, Note_off_c, 1, 53, 80
3, 331200, Note_on_c, 1, 44, 82
3, 331200, Note_on_c, 1, 49, 82
3, 331200, Note_on_c, 1, 53, 82
3, 331376, Note_off_c, 1, 44, 80
3, 331376, Note_off_c, 1, 49, 80
3, 331376, Note_off_c, 1, 53, 80
3, 331440, Note_on_c, 1, 44, 82
3, 331440, Note_on_c, 1, 49, 82
3, 331440, Note_on_c, 1, 53, 82
3, 331616, Note_off_c, 1, 44, 80
3, 331616, Note_off_c, 1, 49, 80
3, 331616, Note_off_c, 1, 53, 80
3, 331680, Note_on_c, 1, 44, 82
3, 331680, Note_on_c, 1, 49, 82
3, 331680, Note_on_c, 1, 53, 82
3, 331856, Note_off_c, 1, 44, 80
3, 331856, Note_off_c, 1, 49, 80
3, 331856, Note_off_c, 1, 53, 80
3, 331920, Note_on_c, 1, 44, 82
3, 331920, Note_on_c, 1, 49, 82
3, 331920, Note_on_c, 1, 53, 82
3, 332096, Note_off_c, 1, 44, 80
3, 332096, Note_off_c, 1, 49, 80
3, 332096, Note_off_c, 1, 53, 80
3, 332160, Note_on_c, 1, 44, 82
3, 332160, Note_on_c, 1, 51, 82
3, 332336, Note_off_c, 1, 44, 80
3, 332336, Note_off_c, 1, 51, 80
3, 332400, Note_on_c, 1, 44, 82
3, 332400, Note_on_c, 1, 51, 82
3, 332576, Note_off_c, 1, 44, 80
3, 332576, Note_off_c, 1, 51, 80
3, 332640, Note_on_c, 1, 44, 82
3, 332640, Note_on_c, 1, 51, 82
3, 332816, Note_off_c, 1, 44, 80
3, 332816, Note_off_c, 1, 51, 80
3, 332880, Note_on_c, 1, 44, 82
3, 332880, Note_on_c, 1, 51, 82
3, 333056, Note_off_c, 1, 44, 80
3, 333056, Note_off_c, 1, 51, 80
3, 333120, Note_on_c, 1, 44, 82
3, 333120, Note_on_c, 1, 51, 82
3, 333296, Note_off_c, 1, 44, 80
3, 333296, Note_off_c, 1, 51, 80
3, 333360, Note_on_c, 1, 44, 82
3, 333360, Note_on_c, 1, 51, 82
3, 333536, Note_off_c, 1, 44, 80
3, 333536, Note_off_c, 1, 51, 80
3, 333600, Note_on_c, 1, 44, 82
3, 333600, Note_on_c, 1, 51, 82
3, 333776, Note_off_c, 1, 44, 80
3, 333776, Note_off_c, 1, 51, 80
3, 333840, Note_on_c, 1, 44, 82
3, 333840, Note_on_c, 1, 51, 82
3, 334016, Note_off_c, 1, 44, 80
3, 334016, Note_off_c, 1, 51, 80
3, 334080, Note_on_c, 1, 44, 82
3, 334080, Note_on_c, 1, 51, 82
3, 334256, Note_off_c, 1, 44, 80
3, 334256, Note_off_c, 1, 51, 80
3, 334320, Note_on_c, 1, 44, 82
3, 334320, Note_on_c, 1, 51, 82
3, 334496, Note_off_c, 1, 44, 80
3, 334496, Note_off_c, 1, 51, 80
3, 334560, Note_on_c, 1, 44, 82
3, 334560, Note_on_c, 1, 51, 82
3, 334736, Note_off_c, 1, 44, 80
3, 334736, Note_off_c, 1, 51, 80
3, 334800, Note_on_c, 1, 44, 82
3, 334800, Note_on_c, 1, 51, 82
3, 334976, Note_off_c, 1, 44, 80
3, 334976, Note_off_c, 1, 51, 80
3, 335040, Note_on_c, 1, 44, 82
3, 335040, Note_on_c, 1, 51, 82
3, 335216, Note_off_c, 1, 44, 80
3, 335216, Note_off_c, 1, 51, 80
3, 335280, Note_on_c, 1, 44, 82
3, 335280, Note_on_c, 1, 51, 82
3, 335456, Note_off_c, 1, 44, 80
3, 335456, Note_off_c, 1, 51, 80
3, 335520, Note_on_c, 1, 44, 82
3, 335520, Note_on_c, 1, 51, 82
3, 335696, Note_off_c, 1, 44, 80
3, 335696, Note_off_c, 1, 51, 80
3, 335760, Note_on_c, 1, 44, 82
3, 335760, Note_on_c, 1, 51, 82
3, 335936, Note_off_c, 1, 44, 80
3, 335936, Note_off_c, 1, 51, 80
3, 336000, Note_on_c, 1, 44, 82
3, 336000, Note_on_c, 1, 49, 82
3, 336000, Note_on_c, 1, 53, 82
3, 336176, Note_off_c, 1, 44, 80
3, 336176, Note_off_c, 1, 49, 80
3, 336176, Note_off_c, 1, 53, 80
3, 336240, Note_on_c, 1, 44, 82
3, 336240, Note_on_c, 1, 49, 82
3, 336240, Note_on_c, 1, 53, 82
3, 336416, Note_off_c, 1, 44, 80
3, 336416, Note_off_c, 1, 49, 80
3, 336416, Note_off_c, 1, 53, 80
3, 336480, Note_on_c, 1, 44, 82
3, 336480, Note_on_c, 1, 49, 82
3, 336480, Note_on_c, 1, 53, 82
3, 336656, Note_off_c, 1, 44, 80
3, 336656, Note_off_c, 1, 49, 80
3, 336656, Note_off_c, 1, 53, 80
3, 336720, Note_on_c, 1, 44, 82
3, 336720, Note_on_c, 1, 49, 82
3, 336720, Note_on_c, 1, 53, 82
3, 336896, Note_off_c, 1, 44, 80
3, 336896, Note_off_c, 1, 49, 80
3, 336896, Note_off_c, 1, 53, 80
3, 336960, Note_on_c, 1, 44, 82
3, 336960, Note_on_c, 1, 49, 82
3, 336960, Note_on_c, 1, 53, 82
3, 337136, Note_off_c, 1, 44, 80
3, 337136, Note_off_c, 1, 49, 80
3, 337136, Note_off_c, 1, 53, 80
3, 337200, Note_on_c, 1, 44, 82
3, 337200, Note_on_c, 1, 49, 82
3, 337200, Note_on_c, 1, 53, 82
3, 337376, Note_off_c, 1, 44, 80
3, 337376, Note_off_c, 1, 49, 80
3, 337376, Note_off_c, 1, 53, 80
3, 337440, Note_on_c, 1, 44, 82
3, 337440, Note_on_c, 1, 49, 82
3, 337440, Note_on_c, 1, 53, 82
3, 337616, Note_off_c, 1, 44, 80
3, 337616, Note_off_c, 1, 49, 80
3, 337616, Note_off_c, 1, 53, 80
3, 337680, Note_on_c, 1, 44, 82
3, 337680, Note_on_c, 1, 49, 82
3, 337680, Note_on_c, 1, 53, 82
3, 337856, Note_off_c, 1, 44, 80
3, 337856, Note_off_c, 1, 49, 80
3, 337856, Note_off_c, 1, 53, 80
3, 337920, Note_on_c, 1, 44, 82
3, 337920, Note_on_c, 1, 49, 82
3, 337920, Note_on_c, 1, 53, 82
3, 338096, Note_off_c, 1, 44, 80
3, 338096, Note_off_c, 1, 49, 80
3, 338096, Note_off_c, 1, 53, 80
3, 338160, Note_on_c, 1, 44, 82
3, 338160, Note_on_c, 1, 49, 82
3, 338160, Note_on_c, 1, 53, 82
3, 338336, Note_off_c, 1, 44, 80
3, 338336, Note_off_c, 1, 49, 80
3, 338336, Note_off_c, 1, 53, 80
3, 338400, Note_on_c, 1, 44, 82
3, 338400, Note_on_c, 1, 49, 82
3, 338400, Note_on_c, 1, 53, 82
3, 338576, Note_off_c, 1, 44, 80
3, 338576, Note_off_c, 1, 49, 80
3, 338576, Note_off_c, 1, 53, 80
3, 338640, Note_on_c, 1, 44, 82
3, 338640, Note_on_c, 1, 49, 82
3, 338640, Note_on_c, 1, 53, 82
3, 338816, Note_off_c, 1, 44, 80
3, 338816, Note_off_c, 1, 49, 80
3, 338816, Note_off_c, 1, 53, 80
3, 338880, Note_on_c, 1, 44, 82
3, 338880, Note_on_c, 1, 49, 82
3, 338880, Note_on_c, 1, 53, 82
3, 339056, Note_off_c, 1, 44, 80
3, 339056, Note_off_c, 1, 49, 80
3, 339056, Note_off_c, 1, 53, 80
3, 339120, Note_on_c, 1, 44, 82
3, 339120, Note_on_c, 1, 49, 82
3, 339120, Note_on_c, 1, 53, 82
3, 339296, Note_off_c, 1, 44, 80
3, 339296, Note_off_c, 1, 49, 80
3, 339296, Note_off_c, 1, 53, 80
3, 339360, Note_on_c, 1, 44, 82
3, 339360, Note_on_c, 1, 49, 82
3, 339360, Note_on_c, 1, 53, 82
3, 339536, Note_off_c, 1, 44, 80
3, 339536, Note_off_c, 1, 49, 80
3, 339536, Note_off_c, 1, 53, 80
3, 339600, Note_on_c, 1, 44, 82
3, 339600, Note_on_c, 1, 49, 82
3, 339600, Note_on_c, 1, 53, 82
3, 339776, Note_off_c, 1, 44, 80
3, 339776, Note_off_c, 1, 49, 80
3, 339776, Note_off_c, 1, 53, 80
3, 339840, Note_on_c, 1, 44, 82
3, 339840, Note_on_c, 1, 51, 82
3, 340016, Note_off_c, 1, 44, 80
3, 340016, Note_off_c, 1, 51, 80
3, 340080, Control_c, 1, 7, 65
3, 340080, Note_on_c, 1, 44, 82
3, 340080, Note_on_c, 1, 51, 82
3, 340256, Note_off_c, 1, 44, 80
3, 340256, Note_off_c, 1, 51, 80
3, 340320, Note_on_c, 1, 44, 82
3, 340320, Note_on_c, 1, 51, 82
3, 340496, Note_off_c, 1, 44, 80
3, 340496, Note_off_c, 1, 51, 80
3, 340560, Control_c, 1, 7, 66
3, 340560, Note_on_c, 1, 44, 82
3, 340560, Note_on_c, 1, 51, 82
3, 340736, Note_off_c, 1, 44, 80
3, 340736, Note_off_c, 1, 51, 80
3, 340800, Note_on_c, 1, 44, 82
3, 340800, Note_on_c, 1, 51, 82
3, 340976, Note_off_c, 1, 44, 80
3, 340976, Note_off_c, 1, 51, 80
3, 341040, Control_c, 1, 7, 67
3, 341040, Note_on_c, 1, 44, 82
3, 341040, Note_on_c, 1, 51, 82
3, 341216, Note_off_c, 1, 44, 80
3, 341216, Note_off_c, 1, 51, 80
3, 341280, Note_on_c, 1, 44, 82
3, 341280, Note_on_c, 1, 51, 82
3, 341456, Note_off_c, 1, 44, 80
3, 341456, Note_off_c, 1, 51, 80
3, 341520, Control_c, 1, 7, 68
3, 341520, Note_on_c, 1, 44, 82
3, 341520, Note_on_c, 1, 51, 82
3, 341696, Note_off_c, 1, 44, 80
3, 341696, Note_off_c, 1, 51, 80
3, 341760, Note_on_c, 1, 44, 82
3, 341760, Note_on_c, 1, 51, 82
3, 341936, Note_off_c, 1, 44, 80
3, 341936, Note_off_c, 1, 51, 80
3, 342000, Control_c, 1, 7, 69
3, 342000, Note_on_c, 1, 44, 82
3, 342000, Note_on_c, 1, 51, 82
3, 342176, Note_off_c, 1, 44, 80
3, 342176, Note_off_c, 1, 51, 80
3, 342240, Note_on_c, 1, 44, 82
3, 342240, Note_on_c, 1, 51, 82
3, 342416, Note_off_c, 1, 44, 80
3, 342416, Note_off_c, 1, 51, 80
3, 342480, Control_c, 1, 7, 70
3, 342480, Note_on_c, 1, 44, 82
3, 342480, Note_on_c, 1, 51, 82
3, 342656, Note_off_c, 1, 44, 80
3, 342656, Note_off_c, 1, 51, 80
3, 342720, Note_on_c, 1, 44, 82
3, 342720, Note_on_c, 1, 51, 82
3, 342896, Note_off_c, 1, 44, 80
3, 342896, Note_off_c, 1, 51, 80
3, 342960, Control_c, 1, 7, 71
3, 342960, Note_on_c, 1, 44, 82
3, 342960, Note_on_c, 1, 51, 82
3, 343136, Note_off_c, 1, 44, 80
3, 343136, Note_off_c, 1, 51, 80
3, 343200, Note_on_c, 1, 44, 82
3, 343200, Note_on_c, 1, 51, 82
3, 343376, Note_off_c, 1, 44, 80
3, 343376, Note_off_c, 1, 51, 80
3, 343440, Control_c, 1, 7, 72
3, 343440, Note_on_c, 1, 44, 82
3, 343440, Note_on_c, 1, 51, 82
3, 343616, Note_off_c, 1, 44, 80
3, 343616, Note_off_c, 1, 51, 80
3, 343680, Note_on_c, 1, 44, 82
3, 343680, Note_on_c, 1, 49, 82
3, 343680, Note_on_c, 1, 53, 82
3, 343856, Note_off_c, 1, 44, 80
3, 343856, Note_off_c, 1, 49, 80
3, 343856, Note_off_c, 1, 53, 80
3, 343920, Control_c, 1, 7, 73
3, 343920, Note_on_c, 1, 44, 82
3, 343920, Note_on_c, 1, 49, 82
3, 343920, Note_on_c, 1, 53, 82
3, 344096, Note_off_c, 1, 44, 80
3, 344096, Note_off_c, 1, 49, 80
3, 344096, Note_off_c, 1, 53, 80
3, 344160, Note_on_c, 1, 44, 82
3, 344160, Note_on_c, 1, 49, 82
3, 344160, Note_on_c, 1, 53, 82
3, 344336, Note_off_c, 1, 44, 80
3, 344336, Note_off_c, 1, 49, 80
3, 344336, Note_off_c, 1, 53, 80
3, 344400, Control_c, 1, 7, 74
3, 344400, Note_on_c, 1, 44, 82
3, 344400, Note_on_c, 1, 49, 82
3, 344400, Note_on_c, 1, 53, 82
3, 344576, Note_off_c, 1, 44, 80
3, 344576, Note_off_c, 1, 49, 80
3, 344576, Note_off_c, 1, 53, 80
3, 344640, Note_on_c, 1, 44, 82
3, 344640, Note_on_c, 1, 49, 82
3, 344640, Note_on_c, 1, 53, 82
3, 344816, Note_off_c, 1, 44, 80
3, 344816, Note_off_c, 1, 49, 80
3, 344816, Note_off_c, 1, 53, 80
3, 344880, Control_c, 1, 7, 75
3, 344880, Note_on_c, 1, 44, 82
3, 344880, Note_on_c, 1, 49, 82
3, 344880, Note_on_c, 1, 53, 82
3, 345056, Note_off_c, 1, 44, 80
3, 345056, Note_off_c, 1, 49, 80
3, 345056, Note_off_c, 1, 53, 80
3, 345120, Note_on_c, 1, 44, 82
3, 345120, Note_on_c, 1, 49, 82
3, 345120, Note_on_c, 1, 53, 82
3, 345296, Note_off_c, 1, 44, 80
3, 345296, Note_off_c, 1, 49, 80
3, 345296, Note_off_c, 1, 53, 80
3, 345360, Control_c, 1, 7, 76
3, 345360, Note_on_c, 1, 44, 82
3, 345360, Note_on_c, 1, 49, 82
3, 345360, Note_on_c, 1, 53, 82
3, 345536, Note_off_c, 1, 44, 80
3, 345536, Note_off_c, 1, 49, 80
3, 345536, Note_off_c, 1, 53, 80
3, 345600, Note_on_c, 1, 44, 82
3, 345600, Note_on_c, 1, 49, 82
3, 345600, Note_on_c, 1, 53, 82
3, 345776, Note_off_c, 1, 44, 80
3, 345776, Note_off_c, 1, 49, 80
3, 345776, Note_off_c, 1, 53, 80
3, 345840, Control_c, 1, 7, 77
3, 345840, Note_on_c, 1, 44, 82
3, 345840, Note_on_c, 1, 49, 82
3, 345840, Note_on_c, 1, 53, 82
3, 346016, Note_off_c, 1, 44, 80
3, 346016, Note_off_c, 1, 49, 80
3, 346016, Note_off_c, 1, 53, 80
3, 346080, Note_on_c, 1, 44, 82
3, 346080, Note_on_c, 1, 49, 82
3, 346080, Note_on_c, 1, 53, 82
3, 346256, Note_off_c, 1, 44, 80
3, 346256, Note_off_c, 1, 49, 80
3, 346256, Note_off_c, 1, 53, 80
3, 346320, Control_c, 1, 7, 78
3, 346320, Note_on_c, 1, 44, 82
3, 346320, Note_on_c, 1, 49, 82
3, 346320, Note_on_c, 1, 53, 82
3, 346496, Note_off_c, 1, 44, 80
3, 346496, Note_off_c, 1, 49, 80
3, 346496, Note_off_c, 1, 53, 80
3, 346560, Note_on_c, 1, 44, 82
3, 346560, Note_on_c, 1, 49, 82
3, 346560, Note_on_c, 1, 53, 82
3, 346736, Note_off_c, 1, 44, 80
3, 346736, Note_off_c, 1, 49, 80
3, 346736, Note_off_c, 1, 53, 80
3, 346800, Control_c, 1, 7, 79
3, 346800, Note_on_c, 1, 44, 82
3, 346800, Note_on_c, 1, 49, 82
3, 346800, Note_on_c, 1, 53, 82
3, 346976, Note_off_c, 1, 44, 80
3, 346976, Note_off_c, 1, 49, 80
3, 346976, Note_off_c, 1, 53, 80
3, 347040, Note_on_c, 1, 44, 82
3, 347040, Note_on_c, 1, 49, 82
3, 347040, Note_on_c, 1, 53, 82
3, 347216, Note_off_c, 1, 44, 80
3, 347216, Note_off_c, 1, 49, 80
3, 347216, Note_off_c, 1, 53, 80
3, 347280, Control_c, 1, 7, 80
3, 347280, Note_on_c, 1, 44, 82
3, 347280, Note_on_c, 1, 49, 82
3, 347280, Note_on_c, 1, 53, 82
3, 347456, Note_off_c, 1, 44, 80
3, 347456, Note_off_c, 1, 49, 80
3, 347456, Note_off_c, 1, 53, 80
3, 347520, Control_c, 1, 7, 79
3, 347520, Note_on_c, 1, 44, 82
3, 347520, Note_on_c, 1, 51, 82
3, 347640, Control_c, 1, 7, 78
3, 347696, Note_off_c, 1, 44, 80
3, 347696, Note_off_c, 1, 51, 80
3, 347760, Control_c, 1, 7, 77
3, 347760, Note_on_c, 1, 44, 82
3, 347760, Note_on_c, 1, 51, 82
3, 347880, Control_c, 1, 7, 76
3, 347936, Note_off_c, 1, 44, 80
3, 347936, Note_off_c, 1, 51, 80
3, 348000, Control_c, 1, 7, 75
3, 348000, Note_on_c, 1, 44, 82
3, 348000, Note_on_c, 1, 51, 82
3, 348120, Control_c, 1, 7, 74
3, 348176, Note_off_c, 1, 44, 80
3, 348176, Note_off_c, 1, 51, 80
3, 348240, Control_c, 1, 7, 73
3, 348240, Note_on_c, 1, 44, 82
3, 348240, Note_on_c, 1, 51, 82
3, 348360, Control_c, 1, 7, 72
3, 348416, Note_off_c, 1, 44, 80
3, 348416, Note_off_c, 1, 51, 80
3, 348480, Control_c, 1, 7, 71
3, 348480, Note_on_c, 1, 44, 82
3, 348480, Note_on_c, 1, 51, 82
3, 348600, Control_c, 1, 7, 70
3, 348656, Note_off_c, 1, 44, 80
3, 348656, Note_off_c, 1, 51, 80
3, 348720, Control_c, 1, 7, 69
3, 348720, Note_on_c, 1, 44, 82
3, 348720, Note_on_c, 1, 51, 82
3, 348840, Control_c, 1, 7, 68
3, 348896, Note_off_c, 1, 44, 80
3, 348896, Note_off_c, 1, 51, 80
3, 348960, Control_c, 1, 7, 67
3, 348960, Note_on_c, 1, 44, 82
3, 348960, Note_on_c, 1, 51, 82
3, 349080, Control_c, 1, 7, 66
3, 349136, Note_off_c, 1, 44, 80
3, 349136, Note_off_c, 1, 51, 80
3, 349200, Control_c, 1, 7, 65
3, 349200, Note_on_c, 1, 44, 82
3, 349200, Note_on_c, 1, 51, 82
3, 349320, Control_c, 1, 7, 64
3, 349376, Note_off_c, 1, 44, 80
3, 349376, Note_off_c, 1, 51, 80
3, 349440, Control_c, 1, 7, 63
3, 349440, Note_on_c, 1, 44, 82
3, 349440, Note_on_c, 1, 51, 82
3, 349560, Control_c, 1, 7, 62
3, 349616, Note_off_c, 1, 44, 80
3, 349616, Note_off_c, 1, 51, 80
3, 349680, Control_c, 1, 7, 61
3, 349680, Note_on_c, 1, 44, 82
3, 349680, Note_on_c, 1, 51, 82
3, 349800, Control_c, 1, 7, 60
3, 349856, Note_off_c, 1, 44, 80
3, 349856, Note_off_c, 1, 51, 80
3, 349920, Control_c, 1, 7, 59
3, 349920, Note_on_c, 1, 44, 82
3, 349920, Note_on_c, 1, 51, 82
3, 350040, Control_c, 1, 7, 58
3, 350096, Note_off_c, 1, 44, 80
3, 350096, Note_off_c, 1, 51, 80
3, 350160, Control_c, 1, 7, 57
3, 350160, Note_on_c, 1, 44, 82
3, 350160, Note_on_c, 1, 51, 82
3, 350280, Control_c, 1, 7, 56
3, 350336, Note_off_c, 1, 44, 80
3, 350336, Note_off_c, 1, 51, 80
3, 350400, Control_c, 1, 7, 55
3, 350400, Note_on_c, 1, 44, 82
3, 350400, Note_on_c, 1, 51, 82
3, 350520, Control_c, 1, 7, 54
3, 350576, Note_off_c, 1, 44, 80
3, 350576, Note_off_c, 1, 51, 80
3, 350640, Control_c, 1, 7, 53
3, 350640, Note_on_c, 1, 44, 82
3, 350640, Note_on_c, 1, 51, 82
3, 350760, Control_c, 1, 7, 52
3, 350816, Note_off_c, 1, 44, 80
3, 350816, Note_off_c, 1, 51, 80
3, 350880, Control_c, 1, 7, 51
3, 350880, Note_on_c, 1, 44, 82
3, 350880, Note_on_c, 1, 51, 82
3, 351000, Control_c, 1, 7, 50
3, 351056, Note_off_c, 1, 44, 80
3, 351056, Note_off_c, 1, 51, 80
3, 351120, Control_c, 1, 7, 49
3, 351120, Note_on_c, 1, 44, 82
3, 351120, Note_on_c, 1, 51, 82
3, 351240, Control_c, 1, 7, 48
3, 351296, Note_off_c, 1, 44, 80
3, 351296, Note_off_c, 1, 51, 80
3, 351360, Note_on_c, 1, 44, 82
3, 351360, Note_on_c, 1, 49, 82
3, 351360, Note_on_c, 1, 53, 82
3, 351480, Control_c, 1, 7, 47
3, 351536, Note_off_c, 1, 44, 80
3, 351536, Note_off_c, 1, 49, 80
3, 351536, Note_off_c, 1, 53, 80
3, 351600, Control_c, 1, 7, 46
3, 351600, Note_on_c, 1, 44, 82
3, 351600, Note_on_c, 1, 49, 82
3, 351600, Note_on_c, 1, 53, 82
3, 351720, Control_c, 1, 7, 45
3, 351776, Note_off_c, 1, 44, 80
3, 351776, Note_off_c, 1, 49, 80
3, 351776, Note_off_c, 1, 53, 80
3, 351840, Control_c, 1, 7, 44
3, 351840, Note_on_c, 1, 44, 82
3, 351840, Note_on_c, 1, 49, 82
3, 351840, Note_on_c, 1, 53, 82
3, 351960, Control_c, 1, 7, 43
3, 352016, Note_off_c, 1, 44, 80
3, 352016, Note_off_c, 1, 49, 80
3, 352016, Note_off_c, 1, 53, 80
3, 352080, Control_c, 1, 7, 42
3, 352080, Note_on_c, 1, 44, 82
3, 352080, Note_on_c, 1, 49, 82
3, 352080, Note_on_c, 1, 53, 82
3, 352200, Control_c, 1, 7, 41
3, 352256, Note_off_c, 1, 44, 80
3, 352256, Note_off_c, 1, 49, 80
3, 352256, Note_off_c, 1, 53, 80
3, 352320, Control_c, 1, 7, 40
3, 352320, Note_on_c, 1, 44, 82
3, 352320, Note_on_c, 1, 49, 82
3, 352320, Note_on_c, 1, 53, 82
3, 352440, Control_c, 1, 7, 39
3, 352496, Note_off_c, 1, 44, 80
3, 352496, Note_off_c, 1, 49, 80
3, 352496, Note_off_c, 1, 53, 80
3, 352560, Control_c, 1, 7, 38
3, 352560, Note_on_c, 1, 44, 82
3, 352560, Note_on_c, 1, 49, 82
3, 352560, Note_on_c, 1, 53, 82
3, 352680, Control_c, 1, 7, 37
3, 352736, Note_off_c, 1, 44, 80
3, 352736, Note_off_c, 1, 49, 80
3, 352736, Note_off_c, 1, 53, 80
3, 352800, Control_c, 1, 7, 36
3, 352800, Note_on_c, 1, 44, 82
3, 352800, Note_on_c, 1, 49, 82
3, 352800, Note_on_c, 1, 53, 82
3, 352920, Control_c, 1, 7, 35
3, 352976, Note_off_c, 1, 44, 80
3, 352976, Note_off_c, 1, 49, 80
3, 352976, Note_off_c, 1, 53, 80
3, 353040, Control_c, 1, 7, 34
3, 353040, Note_on_c, 1, 44, 82
3, 353040, Note_on_c, 1, 49, 82
3, 353040, Note_on_c, 1, 53, 82
3, 353160, Control_c, 1, 7, 33
3, 353216, Note_off_c, 1, 44, 80
3, 353216, Note_off_c, 1, 49, 80
3, 353216, Note_off_c, 1, 53, 80
3, 353280, Control_c, 1, 7, 32
3, 353280, Note_on_c, 1, 44, 82
3, 353280, Note_on_c, 1, 49, 82
3, 353280, Note_on_c, 1, 53, 82
3, 353400, Control_c, 1, 7, 31
3, 353456, Note_off_c, 1, 44, 80
3, 353456, Note_off_c, 1, 49, 80
3, 353456, Note_off_c, 1, 53, 80
3, 353520, Control_c, 1, 7, 30
3, 353520, Note_on_c, 1, 44, 82
3, 353520, Note_on_c, 1, 49, 82
3, 353520, Note_on_c, 1, 53, 82
3, 353640, Control_c, 1, 7, 29
3, 353696, Note_off_c, 1, 44, 80
3, 353696, Note_off_c, 1, 49, 80
3, 353696, Note_off_c, 1, 53, 80
3, 353760, Control_c, 1, 7, 28
3, 353760, Note_on_c, 1, 44, 82
3, 353760, Note_on_c, 1, 49, 82
3, 353760, Note_on_c, 1, 53, 82
3, 353880, Control_c, 1, 7, 27
3, 353936, Note_off_c, 1, 44, 80
3, 353936, Note_off_c, 1, 49, 80
3, 353936, Note_off_c, 1, 53, 80
3, 354000, Control_c, 1, 7, 26
3, 354000, Note_on_c, 1, 44, 82
3, 354000, Note_on_c, 1, 49, 82
3, 354000, Note_on_c, 1, 53, 82
3, 354120, Control_c, 1, 7, 25
3, 354176, Note_off_c, 1, 44, 80
3, 354176, Note_off_c, 1, 49, 80
3, 354176, Note_off_c, 1, 53, 80
3, 354240, Control_c, 1, 7, 24
3, 354240, Note_on_c, 1, 44, 82
3, 354240, Note_on_c, 1, 49, 82
3, 354240, Note_on_c, 1, 53, 82
3, 354360, Control_c, 1, 7, 23
3, 354416, Note_off_c, 1, 44, 80
3, 354416, Note_off_c, 1, 49, 80
3, 354416, Note_off_c, 1, 53, 80
3, 354480, Control_c, 1, 7, 22
3, 354480, Note_on_c, 1, 44, 82
3, 354480, Note_on_c, 1, 49, 82
3, 354480, Note_on_c, 1, 53, 82
3, 354600, Control_c, 1, 7, 21
3, 354656, Note_off_c, 1, 44, 80
3, 354656, Note_off_c, 1, 49, 80
3, 354656, Note_off_c, 1, 53, 80
3, 354720, Control_c, 1, 7, 20
3, 354720, Note_on_c, 1, 44, 82
3, 354720, Note_on_c, 1, 49, 82
3, 354720, Note_on_c, 1, 53, 82
3, 354840, Control_c, 1, 7, 19
3, 354896, Note_off_c, 1, 44, 80
3, 354896, Note_off_c, 1, 49, 80
3, 354896, Note_off_c, 1, 53, 80
3, 354960, Control_c, 1, 7, 18
3, 354960, Note_on_c, 1, 44, 82
3, 354960, Note_on_c, 1, 49, 82
3, 354960, Note_on_c, 1, 53, 82
3, 355080, Control_c, 1, 7, 17
3, 355136, Note_off_c, 1, 44, 80
3, 355136, Note_off_c, 1, 49, 80
3, 355136, Note_off_c, 1, 53, 80
3, 355200, Control_c, 1, 7, 16
3, 355200, Control_c, 1, 7, 15
3, 355200, Note_on_c, 1, 44, 82
3, 355200, Note_on_c, 1, 51, 82
3, 355320, Control_c, 1, 7, 14
3, 355376, Note_off_c, 1, 44, 80
3, 355376, Note_off_c, 1, 51, 80
3, 355440, Control_c, 1, 7, 13
3, 355440, Note_on_c, 1, 44, 82
3, 355440, Note_on_c, 1, 51, 82
3, 355560, Control_c, 1, 7, 12
3, 355616, Note_off_c, 1, 44, 80
3, 355616, Note_off_c, 1, 51, 80
3, 355680, Control_c, 1, 7, 11
3, 355680, Note_on_c, 1, 44, 82
3, 355680, Note_on_c, 1, 51, 82
3, 355800, Control_c, 1, 7, 10
3, 355856, Note_off_c, 1, 44, 80
3, 355856, Note_off_c, 1, 51, 80
3, 355920, Control_c, 1, 7, 9
3, 355920, Note_on_c, 1, 44, 82
3, 355920, Note_on_c, 1, 51, 82
3, 356040, Control_c, 1, 7, 8
3, 356096, Note_off_c, 1, 44, 80
3, 356096, Note_off_c, 1, 51, 80
3, 356160, Note_on_c, 1, 44, 82
3, 356160, Note_on_c, 1, 51, 82
3, 356280, Control_c, 1, 7, 7
3, 356336, Note_off_c, 1, 44, 80
3, 356336, Note_off_c, 1, 51, 80
3, 356400, Control_c, 1, 7, 6
3, 356400, Note_on_c, 1, 44, 82
3, 356400, Note_on_c, 1, 51, 82
3, 356520, Control_c, 1, 7, 5
3, 356576, Note_off_c, 1, 44, 80
3, 356576, Note_off_c, 1, 51, 80
3, 356640, Control_c, 1, 7, 4
3, 356640, Note_on_c, 1, 44, 82
3, 356640, Note_on_c, 1, 51, 82
3, 356760, Control_c, 1, 7, 3
3, 356816, Note_off_c, 1, 44, 80
3, 356816, Note_off_c, 1, 51, 80
3, 356880, Control_c, 1, 7, 2
3, 356880, Note_on_c, 1, 44, 82
3, 356880, Note_on_c, 1, 51, 82
3, 357000, Control_c, 1, 7, 1
3, 357056, Note_off_c, 1, 44, 80
3, 357056, Note_off_c, 1, 51, 80
3, 357120, Control_c, 1, 7, 0
3, 357120, Note_on_c, 1, 44, 82
3, 357120, Note_on_c, 1, 51, 82
3, 357296, Note_off_c, 1, 44, 80
3, 357296, Note_off_c, 1, 51, 80
3, 357360, Note_on_c, 1, 44, 82
3, 357360, Note_on_c, 1, 51, 82
3, 357536, Note_off_c, 1, 44, 80
3, 357536, Note_off_c, 1, 51, 80
3, 357600, Note_on_c, 1, 44, 82
3, 357600, Note_on_c, 1, 51, 82
3, 357776, Note_off_c, 1, 44, 80
3, 357776, Note_off_c, 1, 51, 80
3, 357840, Note_on_c, 1, 44, 82
3, 357840, Note_on_c, 1, 51, 82
3, 358016, Note_off_c, 1, 44, 80
3, 358016, Note_off_c, 1, 51, 80
3, 358080, Note_on_c, 1, 44, 82
3, 358080, Note_on_c, 1, 51, 82
3, 358256, Note_off_c, 1, 44, 80
3, 358256, Note_off_c, 1, 51, 80
3, 358320, Note_on_c, 1, 44, 82
3, 358320, Note_on_c, 1, 51, 82
3, 358496, Note_off_c, 1, 44, 80
3, 358496, Note_off_c, 1, 51, 80
3, 358560, Note_on_c, 1, 44, 82
3, 358560, Note_on_c, 1, 51, 82
3, 358736, Note_off_c, 1, 44, 80
3, 358736, Note_off_c, 1, 51, 80
3, 358800, Note_on_c, 1, 44, 82
3, 358800, Note_on_c, 1, 51, 82
3, 358976, Note_off_c, 1, 44, 80
3, 358976, Note_off_c, 1, 51, 80
3, 359040, Note_on_c, 1, 44, 82
3, 359040, Note_on_c, 1, 49, 82
3, 359040, Note_on_c, 1, 53, 82
3, 359216, Note_off_c, 1, 44, 80
3, 359216, Note_off_c, 1, 49, 80
3, 359216, Note_off_c, 1, 53, 80
3, 359280, Note_on_c, 1, 44, 82
3, 359280, Note_on_c, 1, 49, 82
3, 359280, Note_on_c, 1, 53, 82
3, 359456, Note_off_c, 1, 44, 80
3, 359456, Note_off_c, 1, 49, 80
3, 359456, Note_off_c, 1, 53, 80
3, 359520, Note_on_c, 1, 44, 82
3, 359520, Note_on_c, 1, 49, 82
3, 359520, Note_on_c, 1, 53, 82
3, 359696, Note_off_c, 1, 44, 80
3, 359696, Note_off_c, 1, 49, 80
3, 359696, Note_off_c, 1, 53, 80
3, 359760, Note_on_c, 1, 44, 82
3, 359760, Note_on_c, 1, 49, 82
3, 359760, Note_on_c, 1, 53, 82
3, 359936, Note_off_c, 1, 44, 80
3, 359936, Note_off_c, 1, 49, 80
3, 359936, Note_off_c, 1, 53, 80
3, 360000, Note_on_c, 1, 44, 82
3, 360000, Note_on_c, 1, 49, 82
3, 360000, Note_on_c, 1, 53, 82
3, 360176, Note_off_c, 1, 44, 80
3, 360176, Note_off_c, 1, 49, 80
3, 360176, Note_off_c, 1, 53, 80
3, 360240, Note_on_c, 1, 44, 82
3, 360240, Note_on_c, 1, 49, 82
3, 360240, Note_on_c, 1, 53, 82
3, 360416, Note_off_c, 1, 44, 80
3, 360416, Note_off_c, 1, 49, 80
3, 360416, Note_off_c, 1, 53, 80
3, 360480, Note_on_c, 1, 44, 82
3, 360480, Note_on_c, 1, 49, 82
3, 360480, Note_on_c, 1, 53, 82
3, 360656, Note_off_c, 1, 44, 80
3, 360656, Note_off_c, 1, 49, 80
3, 360656, Note_off_c, 1, 53, 80
3, 360720, Note_on_c, 1, 44, 82
3, 360720, Note_on_c, 1, 49, 82
3, 360720, Note_on_c, 1, 53, 82
3, 360896, Note_off_c, 1, 44, 80
3, 360896, Note_off_c, 1, 49, 80
3, 360896, Note_off_c, 1, 53, 80
3, 360960, Note_on_c, 1, 44, 82
3, 360960, Note_on_c, 1, 49, 82
3, 360960, Note_on_c, 1, 53, 82
3, 361136, Note_off_c, 1, 44, 80
3, 361136, Note_off_c, 1, 49, 80
3, 361136, Note_off_c, 1, 53, 80
3, 361200, Note_on_c, 1, 44, 82
3, 361200, Note_on_c, 1, 49, 82
3, 361200, Note_on_c, 1, 53, 82
3, 361376, Note_off_c, 1, 44, 80
3, 361376, Note_off_c, 1, 49, 80
3, 361376, Note_off_c, 1, 53, 80
3, 361440, Note_on_c, 1, 44, 82
3, 361440, Note_on_c, 1, 49, 82
3, 361440, Note_on_c, 1, 53, 82
3, 361616, Note_off_c, 1, 44, 80
3, 361616, Note_off_c, 1, 49, 80
3, 361616, Note_off_c, 1, 53, 80
3, 361680, Note_on_c, 1, 44, 82
3, 361680, Note_on_c, 1, 49, 82
3, 361680, Note_on_c, 1, 53, 82
3, 361856, Note_off_c, 1, 44, 80
3, 361856, Note_off_c, 1, 49, 80
3, 361856, Note_off_c, 1, 53, 80
3, 361920, Note_on_c, 1, 44, 82
3, 361920, Note_on_c, 1, 49, 82
3, 361920, Note_on_c, 1, 53, 82
3, 362096, Note_off_c, 1, 44, 80
3, 362096, Note_off_c, 1, 49, 80
3, 362096, Note_off_c, 1, 53, 80
3, 362160, Note_on_c, 1, 44, 82
3, 362160, Note_on_c, 1, 49, 82
3, 362160, Note_on_c, 1, 53, 82
3, 362336, Note_off_c, 1, 44, 80
3, 362336, Note_off_c, 1, 49, 80
3, 362336, Note_off_c, 1, 53, 80
3, 362400, Note_on_c, 1, 44, 82
3, 362400, Note_on_c, 1, 49, 82
3, 362400, Note_on_c, 1, 53, 82
3, 362576, Note_off_c, 1, 44, 80
3, 362576, Note_off_c, 1, 49, 80
3, 362576, Note_off_c, 1, 53, 80
3, 362640, Note_on_c, 1, 44, 82
3, 362640, Note_on_c, 1, 49, 82
3, 362640, Note_on_c, 1, 53, 82
3, 362816, Note_off_c, 1, 44, 80
3, 362816, Note_off_c, 1, 49, 80
3, 362816, Note_off_c, 1, 53, 80
3, 362816, End_track
4, 0, Start_track
4, 0, Title_t, "Bittan"
4, 180, Control_c, 2, 121, 0
4, 180, Control_c, 2, 123, 0
4, 180, Control_c, 2, 100, 0
4, 180, Control_c, 2, 38, 0
4, 180, Control_c, 2, 101, 0
4, 180, Control_c, 2, 6, 12
4, 180, Pitch_bend_c, 2, 8192
4, 240, Program_c, 2, 0
4, 240, Control_c, 2, 7, 78
4, 240, Control_c, 2, 10, 106
4, 1920, Note_on_c, 2, 44, 84
4, 1920, Note_on_c, 2, 51, 84
4, 1920, Note_on_c, 2, 56, 84
4, 2396, Note_off_c, 2, 44, 80
4, 2396, Note_off_c, 2, 51, 80
4, 2396, Note_off_c, 2, 56, 80
4, 2400, Note_on_c, 2, 44, 84
4, 2400, Note_on_c, 2, 51, 84
4, 2400, Note_on_c, 2, 56, 84
4, 2400, Note_on_c, 2, 60, 84
4, 2400, Note_on_c, 2, 63, 84
4, 2876, Note_off_c, 2, 44, 80
4, 2876, Note_off_c, 2, 51, 80
4, 2876, Note_off_c, 2, 56, 80
4, 2876, Note_off_c, 2, 60, 80
4, 2876, Note_off_c, 2, 63, 80
4, 2880, Note_on_c, 2, 44, 84
4, 2880, Note_on_c, 2, 51, 84
4, 2880, Note_on_c, 2, 56, 84
4, 2880, Note_on_c, 2, 60, 84
4, 2880, Note_on_c, 2, 63, 84
4, 3596, Note_off_c, 2, 44, 80
4, 3596, Note_off_c, 2, 51, 80
4, 3596, Note_off_c, 2, 56, 80
4, 3596, Note_off_c, 2, 60, 80
4, 3596, Note_off_c, 2, 63, 80
4, 3600, Note_on_c, 2, 44, 84
4, 3600, Note_on_c, 2, 51, 84
4, 3600, Note_on_c, 2, 56, 84
4, 3600, Note_on_c, 2, 61, 84
4, 3600, Note_on_c, 2, 63, 84
4, 4076, Note_off_c, 2, 44, 80
4, 4076, Note_off_c, 2, 51, 80
4, 4076, Note_off_c, 2, 56, 80
4, 4076, Note_off_c, 2, 61, 80
4, 4076, Note_off_c, 2, 63, 80
4, 4080, Note_on_c, 2, 44, 84
4, 4080, Note_on_c, 2, 51, 84
4, 4080, Note_on_c, 2, 56, 84
4, 4080, Note_on_c, 2, 60, 84
4, 4080, Note_on_c, 2, 63, 84
4, 4316, Note_off_c, 2, 44, 80
4, 4316, Note_off_c, 2, 51, 80
4, 4316, Note_off_c, 2, 56, 80
4, 4316, Note_off_c, 2, 60, 80
4, 4316, Note_off_c, 2, 63, 80
4, 4320, Note_on_c, 2, 44, 84
4, 4320, Note_on_c, 2, 51, 84
4, 4320, Note_on_c, 2, 56, 84
4, 4320, Note_on_c, 2, 61, 84
4, 4320, Note_on_c, 2, 63, 84
4, 4796, Note_off_c, 2, 44, 80
4, 4796, Note_off_c, 2, 51, 80
4, 4796, Note_off_c, 2, 56, 80
4, 4796, Note_off_c, 2, 61, 80
4, 4796, Note_off_c, 2, 63, 80
4, 4800, Note_on_c, 2, 44, 84
4, 4800, Note_on_c, 2, 51, 84
4, 4800, Note_on_c, 2, 56, 84
4, 4800, Note_on_c, 2, 60, 84
4, 4800, Note_on_c, 2, 63, 84
4, 5756, Note_off_c, 2, 44, 80
4, 5756, Note_off_c, 2, 51, 80
4, 5756, Note_off_c, 2, 56, 80
4, 5756, Note_off_c, 2, 60, 80
4, 5756, Note_off_c, 2, 63, 80
4, 5760, Note_on_c, 2, 49, 84
4, 5760, Note_on_c, 2, 56, 84
4, 5760, Note_on_c, 2, 61, 84
4, 5760, Note_on_c, 2, 65, 84
4, 6476, Note_off_c, 2, 49, 80
4, 6476, Note_off_c, 2, 56, 80
4, 6476, Note_off_c, 2, 61, 80
4, 6476, Note_off_c, 2, 65, 80
4, 6480, Note_on_c, 2, 49, 84
4, 6480, Note_on_c, 2, 56, 84
4, 6480, Note_on_c, 2, 61, 84
4, 6480, Note_on_c, 2, 65, 84
4, 6716, Note_off_c, 2, 49, 80
4, 6716, Note_off_c, 2, 56, 80
4, 6716, Note_off_c, 2, 61, 80
4, 6716, Note_off_c, 2, 65, 80
4, 6720, Note_on_c, 2, 49, 84
4, 6720, Note_on_c, 2, 56, 84
4, 6720, Note_on_c, 2, 61, 84
4, 6720, Note_on_c, 2, 65, 84
4, 7436, Note_off_c, 2, 49, 80
4, 7436, Note_off_c, 2, 56, 80
4, 7436, Note_off_c, 2, 61, 80
4, 7436, Note_off_c, 2, 65, 80
4, 7440, Note_on_c, 2, 49, 84
4, 7440, Note_on_c, 2, 56, 84
4, 7440, Note_on_c, 2, 61, 84
4, 7440, Note_on_c, 2, 65, 84
4, 7916, Note_off_c, 2, 49, 80
4, 7916, Note_off_c, 2, 56, 80
4, 7916, Note_off_c, 2, 61, 80
4, 7916, Note_off_c, 2, 65, 80
4, 7920, Note_on_c, 2, 49, 84
4, 7920, Note_on_c, 2, 56, 84
4, 7920, Note_on_c, 2, 61, 84
4, 7920, Note_on_c, 2, 65, 84
4, 8396, Note_off_c, 2, 49, 80
4, 8396, Note_off_c, 2, 56, 80
4, 8396, Note_off_c, 2, 61, 80
4, 8396, Note_off_c, 2, 65, 80
4, 8400, Note_on_c, 2, 49, 84
4, 8400, Note_on_c, 2, 56, 84
4, 8400, Note_on_c, 2, 61, 84
4, 8400, Note_on_c, 2, 65, 84
4, 8636, Note_off_c, 2, 49, 80
4, 8636, Note_off_c, 2, 56, 80
4, 8636, Note_off_c, 2, 61, 80
4, 8636, Note_off_c, 2, 65, 80
4, 8640, Note_on_c, 2, 49, 84
4, 8640, Note_on_c, 2, 56, 84
4, 8640, Note_on_c, 2, 61, 84
4, 8640, Note_on_c, 2, 65, 84
4, 9596, Note_off_c, 2, 49, 80
4, 9596, Note_off_c, 2, 56, 80
4, 9596, Note_off_c, 2, 61, 80
4, 9596, Note_off_c, 2, 65, 80
4, 9600, Note_on_c, 2, 44, 84
4, 9600, Note_on_c, 2, 51, 84
4, 9600, Note_on_c, 2, 56, 84
4, 10076, Note_off_c, 2, 44, 80
4, 10076, Note_off_c, 2, 51, 80
4, 10076, Note_off_c, 2, 56, 80
4, 10080, Note_on_c, 2, 44, 84
4, 10080, Note_on_c, 2, 51, 84
4, 10080, Note_on_c, 2, 56, 84
4, 10080, Note_on_c, 2, 60, 84
4, 10080, Note_on_c, 2, 63, 84
4, 10556, Note_off_c, 2, 44, 80
4, 10556, Note_off_c, 2, 51, 80
4, 10556, Note_off_c, 2, 56, 80
4, 10556, Note_off_c, 2, 60, 80
4, 10556, Note_off_c, 2, 63, 80
4, 10560, Note_on_c, 2, 44, 84
4, 10560, Note_on_c, 2, 51, 84
4, 10560, Note_on_c, 2, 56, 84
4, 10560, Note_on_c, 2, 60, 84
4, 10560, Note_on_c, 2, 63, 84
4, 11276, Note_off_c, 2, 44, 80
4, 11276, Note_off_c, 2, 51, 80
4, 11276, Note_off_c, 2, 56, 80
4, 11276, Note_off_c, 2, 60, 80
4, 11276, Note_off_c, 2, 63, 80
4, 11280, Note_on_c, 2, 44, 84
4, 11280, Note_on_c, 2, 51, 84
4, 11280, Note_on_c, 2, 56, 84
4, 11280, Note_on_c, 2, 61, 84
4, 11280, Note_on_c, 2, 63, 84
4, 11756, Note_off_c, 2, 44, 80
4, 11756, Note_off_c, 2, 51, 80
4, 11756, Note_off_c, 2, 56, 80
4, 11756, Note_off_c, 2, 61, 80
4, 11756, Note_off_c, 2, 63, 80
4, 11760, Note_on_c, 2, 44, 84
4, 11760, Note_on_c, 2, 51, 84
4, 11760, Note_on_c, 2, 56, 84
4, 11760, Note_on_c, 2, 60, 84
4, 11760, Note_on_c, 2, 63, 84
4, 11996, Note_off_c, 2, 44, 80
4, 11996, Note_off_c, 2, 51, 80
4, 11996, Note_off_c, 2, 56, 80
4, 11996, Note_off_c, 2, 60, 80
4, 11996, Note_off_c, 2, 63, 80
4, 12000, Note_on_c, 2, 44, 84
4, 12000, Note_on_c, 2, 51, 84
4, 12000, Note_on_c, 2, 56, 84
4, 12000, Note_on_c, 2, 61, 84
4, 12000, Note_on_c, 2, 63, 84
4, 12476, Note_off_c, 2, 44, 80
4, 12476, Note_off_c, 2, 51, 80
4, 12476, Note_off_c, 2, 56, 80
4, 12476, Note_off_c, 2, 61, 80
4, 12476, Note_off_c, 2, 63, 80
4, 12480, Note_on_c, 2, 44, 84
4, 12480, Note_on_c, 2, 51, 84
4, 12480, Note_on_c, 2, 56, 84
4, 12480, Note_on_c, 2, 60, 84
4, 12480, Note_on_c, 2, 63, 84
4, 13436, Note_off_c, 2, 44, 80
4, 13436, Note_off_c, 2, 51, 80
4, 13436, Note_off_c, 2, 56, 80
4, 13436, Note_off_c, 2, 60, 80
4, 13436, Note_off_c, 2, 63, 80
4, 13440, Note_on_c, 2, 49, 84
4, 13440, Note_on_c, 2, 56, 84
4, 13440, Note_on_c, 2, 61, 84
4, 13440, Note_on_c, 2, 65, 84
4, 14156, Note_off_c, 2, 49, 80
4, 14156, Note_off_c, 2, 56, 80
4, 14156, Note_off_c, 2, 61, 80
4, 14156, Note_off_c, 2, 65, 80
4, 14160, Note_on_c, 2, 49, 84
4, 14160, Note_on_c, 2, 56, 84
4, 14160, Note_on_c, 2, 61, 84
4, 14160, Note_on_c, 2, 65, 84
4, 14396, Note_off_c, 2, 49, 80
4, 14396, Note_off_c, 2, 56, 80
4, 14396, Note_off_c, 2, 61, 80
4, 14396, Note_off_c, 2, 65, 80
4, 14400, Note_on_c, 2, 49, 84
4, 14400, Note_on_c, 2, 56, 84
4, 14400, Note_on_c, 2, 61, 84
4, 14400, Note_on_c, 2, 65, 84
4, 15116, Note_off_c, 2, 49, 80
4, 15116, Note_off_c, 2, 56, 80
4, 15116, Note_off_c, 2, 61, 80
4, 15116, Note_off_c, 2, 65, 80
4, 15120, Note_on_c, 2, 49, 84
4, 15120, Note_on_c, 2, 56, 84
4, 15120, Note_on_c, 2, 61, 84
4, 15120, Note_on_c, 2, 65, 84
4, 15596, Note_off_c, 2, 49, 80
4, 15596, Note_off_c, 2, 56, 80
4, 15596, Note_off_c, 2, 61, 80
4, 15596, Note_off_c, 2, 65, 80
4, 15600, Note_on_c, 2, 49, 84
4, 15600, Note_on_c, 2, 56, 84
4, 15600, Note_on_c, 2, 61, 84
4, 15600, Note_on_c, 2, 65, 84
4, 16076, Note_off_c, 2, 49, 80
4, 16076, Note_off_c, 2, 56, 80
4, 16076, Note_off_c, 2, 61, 80
4, 16076, Note_off_c, 2, 65, 80
4, 16080, Note_on_c, 2, 49, 84
4, 16080, Note_on_c, 2, 56, 84
4, 16080, Note_on_c, 2, 61, 84
4, 16080, Note_on_c, 2, 65, 84
4, 16316, Note_off_c, 2, 49, 80
4, 16316, Note_off_c, 2, 56, 80
4, 16316, Note_off_c, 2, 61, 80
4, 16316, Note_off_c, 2, 65, 80
4, 16320, Note_on_c, 2, 49, 84
4, 16320, Note_on_c, 2, 56, 84
4, 16320, Note_on_c, 2, 61, 84
4, 16320, Note_on_c, 2, 65, 84
4, 17276, Note_off_c, 2, 49, 80
4, 17276, Note_off_c, 2, 56, 80
4, 17276, Note_off_c, 2, 61, 80
4, 17276, Note_off_c, 2, 65, 80
4, 17280, Note_on_c, 2, 44, 84
4, 17280, Note_on_c, 2, 51, 84
4, 17280, Note_on_c, 2, 56, 84
4, 17756, Note_off_c, 2, 44, 80
4, 17756, Note_off_c, 2, 51, 80
4, 17756, Note_off_c, 2, 56, 80
4, 17760, Note_on_c, 2, 44, 84
4, 17760, Note_on_c, 2, 51, 84
4, 17760, Note_on_c, 2, 56, 84
4, 17760, Note_on_c, 2, 60, 84
4, 17760, Note_on_c, 2, 63, 84
4, 18236, Note_off_c, 2, 44, 80
4, 18236, Note_off_c, 2, 51, 80
4, 18236, Note_off_c, 2, 56, 80
4, 18236, Note_off_c, 2, 60, 80
4, 18236, Note_off_c, 2, 63, 80
4, 18240, Note_on_c, 2, 44, 84
4, 18240, Note_on_c, 2, 51, 84
4, 18240, Note_on_c, 2, 56, 84
4, 18240, Note_on_c, 2, 60, 84
4, 18240, Note_on_c, 2, 63, 84
4, 18956, Note_off_c, 2, 44, 80
4, 18956, Note_off_c, 2, 51, 80
4, 18956, Note_off_c, 2, 56, 80
4, 18956, Note_off_c, 2, 60, 80
4, 18956, Note_off_c, 2, 63, 80
4, 18960, Note_on_c, 2, 44, 84
4, 18960, Note_on_c, 2, 51, 84
4, 18960, Note_on_c, 2, 56, 84
4, 18960, Note_on_c, 2, 61, 84
4, 18960, Note_on_c, 2, 63, 84
4, 19436, Note_off_c, 2, 44, 80
4, 19436, Note_off_c, 2, 51, 80
4, 19436, Note_off_c, 2, 56, 80
4, 19436, Note_off_c, 2, 61, 80
4, 19436, Note_off_c, 2, 63, 80
4, 19440, Note_on_c, 2, 44, 84
4, 19440, Note_on_c, 2, 51, 84
4, 19440, Note_on_c, 2, 56, 84
4, 19440, Note_on_c, 2, 60, 84
4, 19440, Note_on_c, 2, 63, 84
4, 19676, Note_off_c, 2, 44, 80
4, 19676, Note_off_c, 2, 51, 80
4, 19676, Note_off_c, 2, 56, 80
4, 19676, Note_off_c, 2, 60, 80
4, 19676, Note_off_c, 2, 63, 80
4, 19680, Note_on_c, 2, 44, 84
4, 19680, Note_on_c, 2, 51, 84
4, 19680, Note_on_c, 2, 56, 84
4, 19680, Note_on_c, 2, 61, 84
4, 19680, Note_on_c, 2, 63, 84
4, 20156, Note_off_c, 2, 44, 80
4, 20156, Note_off_c, 2, 51, 80
4, 20156, Note_off_c, 2, 56, 80
4, 20156, Note_off_c, 2, 61, 80
4, 20156, Note_off_c, 2, 63, 80
4, 20160, Note_on_c, 2, 44, 84
4, 20160, Note_on_c, 2, 51, 84
4, 20160, Note_on_c, 2, 56, 84
4, 20160, Note_on_c, 2, 60, 84
4, 20160, Note_on_c, 2, 63, 84
4, 21116, Note_off_c, 2, 44, 80
4, 21116, Note_off_c, 2, 51, 80
4, 21116, Note_off_c, 2, 56, 80
4, 21116, Note_off_c, 2, 60, 80
4, 21116, Note_off_c, 2, 63, 80
4, 21120, Note_on_c, 2, 49, 84
4, 21120, Note_on_c, 2, 56, 84
4, 21120, Note_on_c, 2, 61, 84
4, 21120, Note_on_c, 2, 65, 84
4, 21836, Note_off_c, 2, 49, 80
4, 21836, Note_off_c, 2, 56, 80
4, 21836, Note_off_c, 2, 61, 80
4, 21836, Note_off_c, 2, 65, 80
4, 21840, Note_on_c, 2, 49, 84
4, 21840, Note_on_c, 2, 56, 84
4, 21840, Note_on_c, 2, 61, 84
4, 21840, Note_on_c, 2, 65, 84
4, 22076, Note_off_c, 2, 49, 80
4, 22076, Note_off_c, 2, 56, 80
4, 22076, Note_off_c, 2, 61, 80
4, 22076, Note_off_c, 2, 65, 80
4, 22080, Note_on_c, 2, 49, 84
4, 22080, Note_on_c, 2, 56, 84
4, 22080, Note_on_c, 2, 61, 84
4, 22080, Note_on_c, 2, 65, 84
4, 22796, Note_off_c, 2, 49, 80
4, 22796, Note_off_c, 2, 56, 80
4, 22796, Note_off_c, 2, 61, 80
4, 22796, Note_off_c, 2, 65, 80
4, 22800, Note_on_c, 2, 49, 84
4, 22800, Note_on_c, 2, 56, 84
4, 22800, Note_on_c, 2, 61, 84
4, 22800, Note_on_c, 2, 65, 84
4, 23276, Note_off_c, 2, 49, 80
4, 23276, Note_off_c, 2, 56, 80
4, 23276, Note_off_c, 2, 61, 80
4, 23276, Note_off_c, 2, 65, 80
4, 23280, Note_on_c, 2, 49, 84
4, 23280, Note_on_c, 2, 56, 84
4, 23280, Note_on_c, 2, 61, 84
4, 23280, Note_on_c, 2, 65, 84
4, 23756, Note_off_c, 2, 49, 80
4, 23756, Note_off_c, 2, 56, 80
4, 23756, Note_off_c, 2, 61, 80
4, 23756, Note_off_c, 2, 65, 80
4, 23760, Note_on_c, 2, 49, 84
4, 23760, Note_on_c, 2, 56, 84
4, 23760, Note_on_c, 2, 61, 84
4, 23760, Note_on_c, 2, 65, 84
4, 23996, Note_off_c, 2, 49, 80
4, 23996, Note_off_c, 2, 56, 80
4, 23996, Note_off_c, 2, 61, 80
4, 23996, Note_off_c, 2, 65, 80
4, 24000, Note_on_c, 2, 49, 84
4, 24000, Note_on_c, 2, 56, 84
4, 24000, Note_on_c, 2, 61, 84
4, 24000, Note_on_c, 2, 65, 84
4, 24956, Note_off_c, 2, 49, 80
4, 24956, Note_off_c, 2, 56, 80
4, 24956, Note_off_c, 2, 61, 80
4, 24956, Note_off_c, 2, 65, 80
4, 24960, Note_on_c, 2, 44, 84
4, 24960, Note_on_c, 2, 51, 84
4, 24960, Note_on_c, 2, 56, 84
4, 25436, Note_off_c, 2, 44, 80
4, 25436, Note_off_c, 2, 51, 80
4, 25436, Note_off_c, 2, 56, 80
4, 25440, Note_on_c, 2, 44, 84
4, 25440, Note_on_c, 2, 51, 84
4, 25440, Note_on_c, 2, 56, 84
4, 25440, Note_on_c, 2, 60, 84
4, 25440, Note_on_c, 2, 63, 84
4, 25916, Note_off_c, 2, 44, 80
4, 25916, Note_off_c, 2, 51, 80
4, 25916, Note_off_c, 2, 56, 80
4, 25916, Note_off_c, 2, 60, 80
4, 25916, Note_off_c, 2, 63, 80
4, 25920, Note_on_c, 2, 44, 84
4, 25920, Note_on_c, 2, 51, 84
4, 25920, Note_on_c, 2, 56, 84
4, 25920, Note_on_c, 2, 60, 84
4, 25920, Note_on_c, 2, 63, 84
4, 26636, Note_off_c, 2, 44, 80
4, 26636, Note_off_c, 2, 51, 80
4, 26636, Note_off_c, 2, 56, 80
4, 26636, Note_off_c, 2, 60, 80
4, 26636, Note_off_c, 2, 63, 80
4, 26640, Note_on_c, 2, 44, 84
4, 26640, Note_on_c, 2, 51, 84
4, 26640, Note_on_c, 2, 56, 84
4, 26640, Note_on_c, 2, 61, 84
4, 26640, Note_on_c, 2, 63, 84
4, 27116, Note_off_c, 2, 44, 80
4, 27116, Note_off_c, 2, 51, 80
4, 27116, Note_off_c, 2, 56, 80
4, 27116, Note_off_c, 2, 61, 80
4, 27116, Note_off_c, 2, 63, 80
4, 27120, Note_on_c, 2, 44, 84
4, 27120, Note_on_c, 2, 51, 84
4, 27120, Note_on_c, 2, 56, 84
4, 27120, Note_on_c, 2, 60, 84
4, 27120, Note_on_c, 2, 63, 84
4, 27356, Note_off_c, 2, 44, 80
4, 27356, Note_off_c, 2, 51, 80
4, 27356, Note_off_c, 2, 56, 80
4, 27356, Note_off_c, 2, 60, 80
4, 27356, Note_off_c, 2, 63, 80
4, 27360, Note_on_c, 2, 44, 84
4, 27360, Note_on_c, 2, 51, 84
4, 27360, Note_on_c, 2, 56, 84
4, 27360, Note_on_c, 2, 61, 84
4, 27360, Note_on_c, 2, 63, 84
4, 27836, Note_off_c, 2, 44, 80
4, 27836, Note_off_c, 2, 51, 80
4, 27836, Note_off_c, 2, 56, 80
4, 27836, Note_off_c, 2, 61, 80
4, 27836, Note_off_c, 2, 63, 80
4, 27840, Note_on_c, 2, 44, 84
4, 27840, Note_on_c, 2, 51, 84
4, 27840, Note_on_c, 2, 56, 84
4, 27840, Note_on_c, 2, 60, 84
4, 27840, Note_on_c, 2, 63, 84
4, 28796, Note_off_c, 2, 44, 80
4, 28796, Note_off_c, 2, 51, 80
4, 28796, Note_off_c, 2, 56, 80
4, 28796, Note_off_c, 2, 60, 80
4, 28796, Note_off_c, 2, 63, 80
4, 28800, Note_on_c, 2, 49, 84
4, 28800, Note_on_c, 2, 56, 84
4, 28800, Note_on_c, 2, 61, 84
4, 28800, Note_on_c, 2, 65, 84
4, 29516, Note_off_c, 2, 49, 80
4, 29516, Note_off_c, 2, 56, 80
4, 29516, Note_off_c, 2, 61, 80
4, 29516, Note_off_c, 2, 65, 80
4, 29520, Note_on_c, 2, 49, 84
4, 29520, Note_on_c, 2, 56, 84
4, 29520, Note_on_c, 2, 61, 84
4, 29520, Note_on_c, 2, 65, 84
4, 29756, Note_off_c, 2, 49, 80
4, 29756, Note_off_c, 2, 56, 80
4, 29756, Note_off_c, 2, 61, 80
4, 29756, Note_off_c, 2, 65, 80
4, 29760, Note_on_c, 2, 49, 84
4, 29760, Note_on_c, 2, 56, 84
4, 29760, Note_on_c, 2, 61, 84
4, 29760, Note_on_c, 2, 65, 84
4, 30476, Note_off_c, 2, 49, 80
4, 30476, Note_off_c, 2, 56, 80
4, 30476, Note_off_c, 2, 61, 80
4, 30476, Note_off_c, 2, 65, 80
4, 30480, Note_on_c, 2, 49, 84
4, 30480, Note_on_c, 2, 56, 84
4, 30480, Note_on_c, 2, 61, 84
4, 30480, Note_on_c, 2, 65, 84
4, 30956, Note_off_c, 2, 49, 80
4, 30956, Note_off_c, 2, 56, 80
4, 30956, Note_off_c, 2, 61, 80
4, 30956, Note_off_c, 2, 65, 80
4, 30960, Note_on_c, 2, 49, 84
4, 30960, Note_on_c, 2, 56, 84
4, 30960, Note_on_c, 2, 61, 84
4, 30960, Note_on_c, 2, 65, 84
4, 31436, Note_off_c, 2, 49, 80
4, 31436, Note_off_c, 2, 56, 80
4, 31436, Note_off_c, 2, 61, 80
4, 31436, Note_off_c, 2, 65, 80
4, 31440, Note_on_c, 2, 49, 84
4, 31440, Note_on_c, 2, 56, 84
4, 31440, Note_on_c, 2, 61, 84
4, 31440, Note_on_c, 2, 65, 84
4, 31676, Note_off_c, 2, 49, 80
4, 31676, Note_off_c, 2, 56, 80
4, 31676, Note_off_c, 2, 61, 80
4, 31676, Note_off_c, 2, 65, 80
4, 31680, Note_on_c, 2, 49, 84
4, 31680, Note_on_c, 2, 56, 84
4, 31680, Note_on_c, 2, 61, 84
4, 31680, Note_on_c, 2, 65, 84
4, 31916, Note_off_c, 2, 49, 80
4, 31916, Note_off_c, 2, 56, 80
4, 31916, Note_off_c, 2, 61, 80
4, 31916, Note_off_c, 2, 65, 80
4, 31920, Note_on_c, 2, 63, 84
4, 32156, Note_off_c, 2, 63, 80
4, 32160, Note_on_c, 2, 61, 84
4, 32636, Note_off_c, 2, 61, 80
4, 32640, Note_on_c, 2, 44, 84
4, 32640, Note_on_c, 2, 51, 84
4, 32640, Note_on_c, 2, 56, 84
4, 33116, Note_off_c, 2, 44, 80
4, 33116, Note_off_c, 2, 51, 80
4, 33116, Note_off_c, 2, 56, 80
4, 33120, Note_on_c, 2, 44, 84
4, 33120, Note_on_c, 2, 51, 84
4, 33120, Note_on_c, 2, 56, 84
4, 33120, Note_on_c, 2, 60, 84
4, 33120, Note_on_c, 2, 63, 84
4, 33596, Note_off_c, 2, 44, 80
4, 33596, Note_off_c, 2, 51, 80
4, 33596, Note_off_c, 2, 56, 80
4, 33596, Note_off_c, 2, 60, 80
4, 33596, Note_off_c, 2, 63, 80
4, 33600, Note_on_c, 2, 44, 84
4, 33600, Note_on_c, 2, 51, 84
4, 33600, Note_on_c, 2, 56, 84
4, 33600, Note_on_c, 2, 60, 84
4, 33600, Note_on_c, 2, 63, 84
4, 34316, Note_off_c, 2, 44, 80
4, 34316, Note_off_c, 2, 51, 80
4, 34316, Note_off_c, 2, 56, 80
4, 34316, Note_off_c, 2, 60, 80
4, 34316, Note_off_c, 2, 63, 80
4, 34320, Note_on_c, 2, 44, 84
4, 34320, Note_on_c, 2, 51, 84
4, 34320, Note_on_c, 2, 56, 84
4, 34320, Note_on_c, 2, 61, 84
4, 34320, Note_on_c, 2, 63, 84
4, 34796, Note_off_c, 2, 44, 80
4, 34796, Note_off_c, 2, 51, 80
4, 34796, Note_off_c, 2, 56, 80
4, 34796, Note_off_c, 2, 61, 80
4, 34796, Note_off_c, 2, 63, 80
4, 34800, Note_on_c, 2, 44, 84
4, 34800, Note_on_c, 2, 51, 84
4, 34800, Note_on_c, 2, 56, 84
4, 34800, Note_on_c, 2, 60, 84
4, 34800, Note_on_c, 2, 63, 84
4, 35036, Note_off_c, 2, 44, 80
4, 35036, Note_off_c, 2, 51, 80
4, 35036, Note_off_c, 2, 56, 80
4, 35036, Note_off_c, 2, 60, 80
4, 35036, Note_off_c, 2, 63, 80
4, 35040, Note_on_c, 2, 44, 84
4, 35040, Note_on_c, 2, 51, 84
4, 35040, Note_on_c, 2, 56, 84
4, 35040, Note_on_c, 2, 61, 84
4, 35040, Note_on_c, 2, 63, 84
4, 35516, Note_off_c, 2, 44, 80
4, 35516, Note_off_c, 2, 51, 80
4, 35516, Note_off_c, 2, 56, 80
4, 35516, Note_off_c, 2, 61, 80
4, 35516, Note_off_c, 2, 63, 80
4, 35520, Note_on_c, 2, 44, 84
4, 35520, Note_on_c, 2, 51, 84
4, 35520, Note_on_c, 2, 56, 84
4, 35520, Note_on_c, 2, 60, 84
4, 35520, Note_on_c, 2, 63, 84
4, 36476, Note_off_c, 2, 44, 80
4, 36476, Note_off_c, 2, 51, 80
4, 36476, Note_off_c, 2, 56, 80
4, 36476, Note_off_c, 2, 60, 80
4, 36476, Note_off_c, 2, 63, 80
4, 36480, Note_on_c, 2, 49, 84
4, 36480, Note_on_c, 2, 56, 84
4, 36480, Note_on_c, 2, 61, 84
4, 36480, Note_on_c, 2, 65, 84
4, 37196, Note_off_c, 2, 49, 80
4, 37196, Note_off_c, 2, 56, 80
4, 37196, Note_off_c, 2, 61, 80
4, 37196, Note_off_c, 2, 65, 80
4, 37200, Note_on_c, 2, 49, 84
4, 37200, Note_on_c, 2, 56, 84
4, 37200, Note_on_c, 2, 61, 84
4, 37200, Note_on_c, 2, 65, 84
4, 37436, Note_off_c, 2, 49, 80
4, 37436, Note_off_c, 2, 56, 80
4, 37436, Note_off_c, 2, 61, 80
4, 37436, Note_off_c, 2, 65, 80
4, 37440, Note_on_c, 2, 49, 84
4, 37440, Note_on_c, 2, 56, 84
4, 37440, Note_on_c, 2, 61, 84
4, 37440, Note_on_c, 2, 65, 84
4, 38156, Note_off_c, 2, 49, 80
4, 38156, Note_off_c, 2, 56, 80
4, 38156, Note_off_c, 2, 61, 80
4, 38156, Note_off_c, 2, 65, 80
4, 38160, Note_on_c, 2, 49, 84
4, 38160, Note_on_c, 2, 56, 84
4, 38160, Note_on_c, 2, 61, 84
4, 38160, Note_on_c, 2, 65, 84
4, 38636, Note_off_c, 2, 49, 80
4, 38636, Note_off_c, 2, 56, 80
4, 38636, Note_off_c, 2, 61, 80
4, 38636, Note_off_c, 2, 65, 80
4, 38640, Note_on_c, 2, 49, 84
4, 38640, Note_on_c, 2, 56, 84
4, 38640, Note_on_c, 2, 61, 84
4, 38640, Note_on_c, 2, 65, 84
4, 39116, Note_off_c, 2, 49, 80
4, 39116, Note_off_c, 2, 56, 80
4, 39116, Note_off_c, 2, 61, 80
4, 39116, Note_off_c, 2, 65, 80
4, 39120, Note_on_c, 2, 49, 84
4, 39120, Note_on_c, 2, 56, 84
4, 39120, Note_on_c, 2, 61, 84
4, 39120, Note_on_c, 2, 65, 84
4, 39356, Note_off_c, 2, 49, 80
4, 39356, Note_off_c, 2, 56, 80
4, 39356, Note_off_c, 2, 61, 80
4, 39356, Note_off_c, 2, 65, 80
4, 39360, Note_on_c, 2, 49, 84
4, 39360, Note_on_c, 2, 56, 84
4, 39360, Note_on_c, 2, 61, 84
4, 39360, Note_on_c, 2, 65, 84
4, 40316, Note_off_c, 2, 49, 80
4, 40316, Note_off_c, 2, 56, 80
4, 40316, Note_off_c, 2, 61, 80
4, 40316, Note_off_c, 2, 65, 80
4, 40320, Note_on_c, 2, 44, 84
4, 40320, Note_on_c, 2, 51, 84
4, 40320, Note_on_c, 2, 56, 84
4, 40796, Note_off_c, 2, 44, 80
4, 40796, Note_off_c, 2, 51, 80
4, 40796, Note_off_c, 2, 56, 80
4, 40800, Note_on_c, 2, 44, 84
4, 40800, Note_on_c, 2, 51, 84
4, 40800, Note_on_c, 2, 56, 84
4, 40800, Note_on_c, 2, 60, 84
4, 40800, Note_on_c, 2, 63, 84
4, 41276, Note_off_c, 2, 44, 80
4, 41276, Note_off_c, 2, 51, 80
4, 41276, Note_off_c, 2, 56, 80
4, 41276, Note_off_c, 2, 60, 80
4, 41276, Note_off_c, 2, 63, 80
4, 41280, Note_on_c, 2, 44, 84
4, 41280, Note_on_c, 2, 51, 84
4, 41280, Note_on_c, 2, 56, 84
4, 41280, Note_on_c, 2, 60, 84
4, 41280, Note_on_c, 2, 63, 84
4, 41996, Note_off_c, 2, 44, 80
4, 41996, Note_off_c, 2, 51, 80
4, 41996, Note_off_c, 2, 56, 80
4, 41996, Note_off_c, 2, 60, 80
4, 41996, Note_off_c, 2, 63, 80
4, 42000, Note_on_c, 2, 44, 84
4, 42000, Note_on_c, 2, 51, 84
4, 42000, Note_on_c, 2, 56, 84
4, 42000, Note_on_c, 2, 61, 84
4, 42000, Note_on_c, 2, 63, 84
4, 42476, Note_off_c, 2, 44, 80
4, 42476, Note_off_c, 2, 51, 80
4, 42476, Note_off_c, 2, 56, 80
4, 42476, Note_off_c, 2, 61, 80
4, 42476, Note_off_c, 2, 63, 80
4, 42480, Note_on_c, 2, 44, 84
4, 42480, Note_on_c, 2, 51, 84
4, 42480, Note_on_c, 2, 56, 84
4, 42480, Note_on_c, 2, 60, 84
4, 42480, Note_on_c, 2, 63, 84
4, 42716, Note_off_c, 2, 44, 80
4, 42716, Note_off_c, 2, 51, 80
4, 42716, Note_off_c, 2, 56, 80
4, 42716, Note_off_c, 2, 60, 80
4, 42716, Note_off_c, 2, 63, 80
4, 42720, Note_on_c, 2, 44, 84
4, 42720, Note_on_c, 2, 51, 84
4, 42720, Note_on_c, 2, 56, 84
4, 42720, Note_on_c, 2, 61, 84
4, 42720, Note_on_c, 2, 63, 84
4, 43196, Note_off_c, 2, 44, 80
4, 43196, Note_off_c, 2, 51, 80
4, 43196, Note_off_c, 2, 56, 80
4, 43196, Note_off_c, 2, 61, 80
4, 43196, Note_off_c, 2, 63, 80
4, 43200, Note_on_c, 2, 44, 84
4, 43200, Note_on_c, 2, 51, 84
4, 43200, Note_on_c, 2, 56, 84
4, 43200, Note_on_c, 2, 60, 84
4, 43200, Note_on_c, 2, 63, 84
4, 44156, Note_off_c, 2, 44, 80
4, 44156, Note_off_c, 2, 51, 80
4, 44156, Note_off_c, 2, 56, 80
4, 44156, Note_off_c, 2, 60, 80
4, 44156, Note_off_c, 2, 63, 80
4, 44160, Note_on_c, 2, 49, 84
4, 44160, Note_on_c, 2, 56, 84
4, 44160, Note_on_c, 2, 61, 84
4, 44160, Note_on_c, 2, 65, 84
4, 44876, Note_off_c, 2, 49, 80
4, 44876, Note_off_c, 2, 56, 80
4, 44876, Note_off_c, 2, 61, 80
4, 44876, Note_off_c, 2, 65, 80
4, 44880, Note_on_c, 2, 49, 84
4, 44880, Note_on_c, 2, 56, 84
4, 44880, Note_on_c, 2, 61, 84
4, 44880, Note_on_c, 2, 65, 84
4, 45116, Note_off_c, 2, 49, 80
4, 45116, Note_off_c, 2, 56, 80
4, 45116, Note_off_c, 2, 61, 80
4, 45116, Note_off_c, 2, 65, 80
4, 45120, Note_on_c, 2, 49, 84
4, 45120, Note_on_c, 2, 56, 84
4, 45120, Note_on_c, 2, 61, 84
4, 45120, Note_on_c, 2, 65, 84
4, 45836, Note_off_c, 2, 49, 80
4, 45836, Note_off_c, 2, 56, 80
4, 45836, Note_off_c, 2, 61, 80
4, 45836, Note_off_c, 2, 65, 80
4, 45840, Note_on_c, 2, 49, 84
4, 45840, Note_on_c, 2, 56, 84
4, 45840, Note_on_c, 2, 61, 84
4, 45840, Note_on_c, 2, 65, 84
4, 46316, Note_off_c, 2, 49, 80
4, 46316, Note_off_c, 2, 56, 80
4, 46316, Note_off_c, 2, 61, 80
4, 46316, Note_off_c, 2, 65, 80
4, 46320, Note_on_c, 2, 49, 84
4, 46320, Note_on_c, 2, 56, 84
4, 46320, Note_on_c, 2, 61, 84
4, 46320, Note_on_c, 2, 65, 84
4, 46796, Note_off_c, 2, 49, 80
4, 46796, Note_off_c, 2, 56, 80
4, 46796, Note_off_c, 2, 61, 80
4, 46796, Note_off_c, 2, 65, 80
4, 46800, Note_on_c, 2, 49, 84
4, 46800, Note_on_c, 2, 56, 84
4, 46800, Note_on_c, 2, 61, 84
4, 46800, Note_on_c, 2, 66, 84
4, 47036, Note_off_c, 2, 49, 80
4, 47036, Note_off_c, 2, 56, 80
4, 47036, Note_off_c, 2, 61, 80
4, 47036, Note_off_c, 2, 66, 80
4, 47040, Note_on_c, 2, 65, 84
4, 47276, Note_off_c, 2, 65, 80
4, 47280, Note_on_c, 2, 63, 84
4, 47516, Note_off_c, 2, 63, 80
4, 47520, Note_on_c, 2, 61, 84
4, 47996, Note_off_c, 2, 61, 80
4, 48000, Note_on_c, 2, 44, 84
4, 48000, Note_on_c, 2, 51, 84
4, 48000, Note_on_c, 2, 56, 84
4, 48476, Note_off_c, 2, 44, 80
4, 48476, Note_off_c, 2, 51, 80
4, 48476, Note_off_c, 2, 56, 80
4, 48480, Note_on_c, 2, 44, 84
4, 48480, Note_on_c, 2, 51, 84
4, 48480, Note_on_c, 2, 56, 84
4, 48480, Note_on_c, 2, 60, 84
4, 48480, Note_on_c, 2, 63, 84
4, 48956, Note_off_c, 2, 44, 80
4, 48956, Note_off_c, 2, 51, 80
4, 48956, Note_off_c, 2, 56, 80
4, 48956, Note_off_c, 2, 60, 80
4, 48956, Note_off_c, 2, 63, 80
4, 48960, Note_on_c, 2, 44, 84
4, 48960, Note_on_c, 2, 51, 84
4, 48960, Note_on_c, 2, 56, 84
4, 48960, Note_on_c, 2, 60, 84
4, 48960, Note_on_c, 2, 63, 84
4, 49676, Note_off_c, 2, 44, 80
4, 49676, Note_off_c, 2, 51, 80
4, 49676, Note_off_c, 2, 56, 80
4, 49676, Note_off_c, 2, 60, 80
4, 49676, Note_off_c, 2, 63, 80
4, 49680, Note_on_c, 2, 44, 84
4, 49680, Note_on_c, 2, 51, 84
4, 49680, Note_on_c, 2, 56, 84
4, 49680, Note_on_c, 2, 61, 84
4, 49680, Note_on_c, 2, 63, 84
4, 50156, Note_off_c, 2, 44, 80
4, 50156, Note_off_c, 2, 51, 80
4, 50156, Note_off_c, 2, 56, 80
4, 50156, Note_off_c, 2, 61, 80
4, 50156, Note_off_c, 2, 63, 80
4, 50160, Note_on_c, 2, 44, 84
4, 50160, Note_on_c, 2, 51, 84
4, 50160, Note_on_c, 2, 56, 84
4, 50160, Note_on_c, 2, 60, 84
4, 50160, Note_on_c, 2, 63, 84
4, 50396, Note_off_c, 2, 44, 80
4, 50396, Note_off_c, 2, 51, 80
4, 50396, Note_off_c, 2, 56, 80
4, 50396, Note_off_c, 2, 60, 80
4, 50396, Note_off_c, 2, 63, 80
4, 50400, Note_on_c, 2, 44, 84
4, 50400, Note_on_c, 2, 51, 84
4, 50400, Note_on_c, 2, 56, 84
4, 50400, Note_on_c, 2, 61, 84
4, 50400, Note_on_c, 2, 63, 84
4, 50876, Note_off_c, 2, 44, 80
4, 50876, Note_off_c, 2, 51, 80
4, 50876, Note_off_c, 2, 56, 80
4, 50876, Note_off_c, 2, 61, 80
4, 50876, Note_off_c, 2, 63, 80
4, 50880, Note_on_c, 2, 44, 84
4, 50880, Note_on_c, 2, 51, 84
4, 50880, Note_on_c, 2, 56, 84
4, 50880, Note_on_c, 2, 60, 84
4, 50880, Note_on_c, 2, 63, 84
4, 51836, Note_off_c, 2, 44, 80
4, 51836, Note_off_c, 2, 51, 80
4, 51836, Note_off_c, 2, 56, 80
4, 51836, Note_off_c, 2, 60, 80
4, 51836, Note_off_c, 2, 63, 80
4, 51840, Note_on_c, 2, 51, 84
4, 51840, Note_on_c, 2, 58, 84
4, 51840, Note_on_c, 2, 63, 84
4, 51840, Note_on_c, 2, 67, 84
4, 52556, Note_off_c, 2, 51, 80
4, 52556, Note_off_c, 2, 58, 80
4, 52556, Note_off_c, 2, 63, 80
4, 52556, Note_off_c, 2, 67, 80
4, 52560, Note_on_c, 2, 51, 84
4, 52560, Note_on_c, 2, 58, 84
4, 52560, Note_on_c, 2, 63, 84
4, 52560, Note_on_c, 2, 67, 84
4, 52796, Note_off_c, 2, 51, 80
4, 52796, Note_off_c, 2, 58, 80
4, 52796, Note_off_c, 2, 63, 80
4, 52796, Note_off_c, 2, 67, 80
4, 52800, Note_on_c, 2, 51, 84
4, 52800, Note_on_c, 2, 58, 84
4, 52800, Note_on_c, 2, 63, 84
4, 52800, Note_on_c, 2, 67, 84
4, 53516, Note_off_c, 2, 51, 80
4, 53516, Note_off_c, 2, 58, 80
4, 53516, Note_off_c, 2, 63, 80
4, 53516, Note_off_c, 2, 67, 80
4, 53520, Note_on_c, 2, 51, 84
4, 53520, Note_on_c, 2, 58, 84
4, 53520, Note_on_c, 2, 63, 84
4, 53520, Note_on_c, 2, 67, 84
4, 53996, Note_off_c, 2, 51, 80
4, 53996, Note_off_c, 2, 58, 80
4, 53996, Note_off_c, 2, 63, 80
4, 53996, Note_off_c, 2, 67, 80
4, 54000, Note_on_c, 2, 51, 84
4, 54000, Note_on_c, 2, 58, 84
4, 54000, Note_on_c, 2, 63, 84
4, 54000, Note_on_c, 2, 67, 84
4, 54476, Note_off_c, 2, 51, 80
4, 54476, Note_off_c, 2, 58, 80
4, 54476, Note_off_c, 2, 63, 80
4, 54476, Note_off_c, 2, 67, 80
4, 54480, Note_on_c, 2, 51, 84
4, 54480, Note_on_c, 2, 58, 84
4, 54480, Note_on_c, 2, 63, 84
4, 54480, Note_on_c, 2, 68, 84
4, 54716, Note_off_c, 2, 51, 80
4, 54716, Note_off_c, 2, 58, 80
4, 54716, Note_off_c, 2, 63, 80
4, 54716, Note_off_c, 2, 68, 80
4, 54720, Note_on_c, 2, 67, 84
4, 54956, Note_off_c, 2, 67, 80
4, 54960, Note_on_c, 2, 65, 84
4, 55196, Note_off_c, 2, 65, 80
4, 55200, Note_on_c, 2, 63, 84
4, 55676, Note_off_c, 2, 63, 80
4, 55680, Note_on_c, 2, 42, 84
4, 55680, Note_on_c, 2, 49, 84
4, 55680, Note_on_c, 2, 54, 84
4, 55680, Note_on_c, 2, 58, 84
4, 56396, Note_off_c, 2, 42, 80
4, 56396, Note_off_c, 2, 49, 80
4, 56396, Note_off_c, 2, 54, 80
4, 56396, Note_off_c, 2, 58, 80
4, 56400, Note_on_c, 2, 42, 84
4, 56400, Note_on_c, 2, 49, 84
4, 56400, Note_on_c, 2, 54, 84
4, 56400, Note_on_c, 2, 58, 84
4, 56636, Note_off_c, 2, 42, 80
4, 56636, Note_off_c, 2, 49, 80
4, 56636, Note_off_c, 2, 54, 80
4, 56636, Note_off_c, 2, 58, 80
4, 56640, Note_on_c, 2, 42, 84
4, 56640, Note_on_c, 2, 49, 84
4, 56640, Note_on_c, 2, 54, 84
4, 56640, Note_on_c, 2, 58, 84
4, 57116, Note_off_c, 2, 42, 80
4, 57116, Note_off_c, 2, 49, 80
4, 57116, Note_off_c, 2, 54, 80
4, 57116, Note_off_c, 2, 58, 80
4, 57120, Note_on_c, 2, 42, 84
4, 57120, Note_on_c, 2, 49, 84
4, 57120, Note_on_c, 2, 54, 84
4, 57120, Note_on_c, 2, 58, 84
4, 57596, Note_off_c, 2, 42, 80
4, 57596, Note_off_c, 2, 49, 80
4, 57596, Note_off_c, 2, 54, 80
4, 57596, Note_off_c, 2, 58, 80
4, 57600, Note_on_c, 2, 73, 84
4, 57916, Note_off_c, 2, 73, 80
4, 57920, Note_on_c, 2, 72, 84
4, 58236, Note_off_c, 2, 72, 80
4, 58240, Note_on_c, 2, 68, 84
4, 58556, Note_off_c, 2, 68, 80
4, 58560, Note_on_c, 2, 73, 84
4, 58876, Note_off_c, 2, 73, 80
4, 58880, Note_on_c, 2, 72, 84
4, 59196, Note_off_c, 2, 72, 80
4, 59200, Note_on_c, 2, 66, 84
4, 59516, Note_off_c, 2, 66, 80
4, 59520, Note_on_c, 2, 49, 84
4, 59520, Note_on_c, 2, 56, 84
4, 59520, Note_on_c, 2, 61, 84
4, 59520, Note_on_c, 2, 65, 84
4, 60236, Note_off_c, 2, 49, 80
4, 60236, Note_off_c, 2, 56, 80
4, 60236, Note_off_c, 2, 61, 80
4, 60236, Note_off_c, 2, 65, 80
4, 60240, Note_on_c, 2, 49, 84
4, 60240, Note_on_c, 2, 56, 84
4, 60240, Note_on_c, 2, 61, 84
4, 60240, Note_on_c, 2, 65, 84
4, 60476, Note_off_c, 2, 49, 80
4, 60476, Note_off_c, 2, 56, 80
4, 60476, Note_off_c, 2, 61, 80
4, 60476, Note_off_c, 2, 65, 80
4, 60480, Note_on_c, 2, 49, 84
4, 60480, Note_on_c, 2, 56, 84
4, 60480, Note_on_c, 2, 61, 84
4, 60480, Note_on_c, 2, 65, 84
4, 61196, Note_off_c, 2, 49, 80
4, 61196, Note_off_c, 2, 56, 80
4, 61196, Note_off_c, 2, 61, 80
4, 61196, Note_off_c, 2, 65, 80
4, 61200, Note_on_c, 2, 49, 84
4, 61200, Note_on_c, 2, 56, 84
4, 61200, Note_on_c, 2, 61, 84
4, 61200, Note_on_c, 2, 65, 84
4, 61436, Note_off_c, 2, 49, 80
4, 61436, Note_off_c, 2, 56, 80
4, 61436, Note_off_c, 2, 61, 80
4, 61436, Note_off_c, 2, 65, 80
4, 61440, Note_on_c, 2, 44, 84
4, 61440, Note_on_c, 2, 51, 84
4, 61440, Note_on_c, 2, 56, 84
4, 61916, Note_off_c, 2, 44, 80
4, 61916, Note_off_c, 2, 51, 80
4, 61916, Note_off_c, 2, 56, 80
4, 61920, Note_on_c, 2, 44, 84
4, 61920, Note_on_c, 2, 51, 84
4, 61920, Note_on_c, 2, 56, 84
4, 61920, Note_on_c, 2, 60, 84
4, 61920, Note_on_c, 2, 63, 84
4, 62396, Note_off_c, 2, 44, 80
4, 62396, Note_off_c, 2, 51, 80
4, 62396, Note_off_c, 2, 56, 80
4, 62396, Note_off_c, 2, 60, 80
4, 62396, Note_off_c, 2, 63, 80
4, 62400, Note_on_c, 2, 44, 84
4, 62400, Note_on_c, 2, 51, 84
4, 62400, Note_on_c, 2, 56, 84
4, 62400, Note_on_c, 2, 60, 84
4, 62400, Note_on_c, 2, 63, 84
4, 63116, Note_off_c, 2, 44, 80
4, 63116, Note_off_c, 2, 51, 80
4, 63116, Note_off_c, 2, 56, 80
4, 63116, Note_off_c, 2, 60, 80
4, 63116, Note_off_c, 2, 63, 80
4, 63120, Note_on_c, 2, 44, 84
4, 63120, Note_on_c, 2, 51, 84
4, 63120, Note_on_c, 2, 56, 84
4, 63120, Note_on_c, 2, 61, 84
4, 63120, Note_on_c, 2, 63, 84
4, 63356, Note_off_c, 2, 44, 80
4, 63356, Note_off_c, 2, 51, 80
4, 63356, Note_off_c, 2, 56, 80
4, 63356, Note_off_c, 2, 61, 80
4, 63356, Note_off_c, 2, 63, 80
4, 63360, Note_on_c, 2, 51, 84
4, 63360, Note_on_c, 2, 58, 84
4, 63360, Note_on_c, 2, 63, 84
4, 63360, Note_on_c, 2, 67, 84
4, 64076, Note_off_c, 2, 51, 80
4, 64076, Note_off_c, 2, 58, 80
4, 64076, Note_off_c, 2, 63, 80
4, 64076, Note_off_c, 2, 67, 80
4, 64080, Note_on_c, 2, 51, 84
4, 64080, Note_on_c, 2, 58, 84
4, 64080, Note_on_c, 2, 63, 84
4, 64080, Note_on_c, 2, 67, 84
4, 64316, Note_off_c, 2, 51, 80
4, 64316, Note_off_c, 2, 58, 80
4, 64316, Note_off_c, 2, 63, 80
4, 64316, Note_off_c, 2, 67, 80
4, 64320, Note_on_c, 2, 51, 84
4, 64320, Note_on_c, 2, 58, 84
4, 64320, Note_on_c, 2, 63, 84
4, 64320, Note_on_c, 2, 67, 84
4, 65036, Note_off_c, 2, 51, 80
4, 65036, Note_off_c, 2, 58, 80
4, 65036, Note_off_c, 2, 63, 80
4, 65036, Note_off_c, 2, 67, 80
4, 65040, Note_on_c, 2, 51, 84
4, 65040, Note_on_c, 2, 58, 84
4, 65040, Note_on_c, 2, 63, 84
4, 65040, Note_on_c, 2, 67, 84
4, 65516, Note_off_c, 2, 51, 80
4, 65516, Note_off_c, 2, 58, 80
4, 65516, Note_off_c, 2, 63, 80
4, 65516, Note_off_c, 2, 67, 80
4, 65520, Note_on_c, 2, 51, 84
4, 65520, Note_on_c, 2, 58, 84
4, 65520, Note_on_c, 2, 63, 84
4, 65520, Note_on_c, 2, 67, 84
4, 65996, Note_off_c, 2, 51, 80
4, 65996, Note_off_c, 2, 58, 80
4, 65996, Note_off_c, 2, 63, 80
4, 65996, Note_off_c, 2, 67, 80
4, 66000, Note_on_c, 2, 51, 84
4, 66000, Note_on_c, 2, 58, 84
4, 66000, Note_on_c, 2, 63, 84
4, 66000, Note_on_c, 2, 67, 84
4, 66476, Note_off_c, 2, 51, 80
4, 66476, Note_off_c, 2, 58, 80
4, 66476, Note_off_c, 2, 63, 80
4, 66476, Note_off_c, 2, 67, 80
4, 66480, Note_on_c, 2, 51, 84
4, 66480, Note_on_c, 2, 58, 84
4, 66480, Note_on_c, 2, 63, 84
4, 66480, Note_on_c, 2, 67, 84
4, 66956, Note_off_c, 2, 51, 80
4, 66956, Note_off_c, 2, 58, 80
4, 66956, Note_off_c, 2, 63, 80
4, 66956, Note_off_c, 2, 67, 80
4, 66960, Note_on_c, 2, 51, 84
4, 66960, Note_on_c, 2, 58, 84
4, 66960, Note_on_c, 2, 63, 84
4, 66960, Note_on_c, 2, 67, 84
4, 67196, Note_off_c, 2, 51, 80
4, 67196, Note_off_c, 2, 58, 80
4, 67196, Note_off_c, 2, 63, 80
4, 67196, Note_off_c, 2, 67, 80
4, 67200, Note_on_c, 2, 42, 84
4, 67200, Note_on_c, 2, 49, 84
4, 67200, Note_on_c, 2, 54, 84
4, 67200, Note_on_c, 2, 58, 84
4, 67916, Note_off_c, 2, 42, 80
4, 67916, Note_off_c, 2, 49, 80
4, 67916, Note_off_c, 2, 54, 80
4, 67916, Note_off_c, 2, 58, 80
4, 67920, Note_on_c, 2, 42, 84
4, 67920, Note_on_c, 2, 49, 84
4, 67920, Note_on_c, 2, 54, 84
4, 67920, Note_on_c, 2, 58, 84
4, 68156, Note_off_c, 2, 42, 80
4, 68156, Note_off_c, 2, 49, 80
4, 68156, Note_off_c, 2, 54, 80
4, 68156, Note_off_c, 2, 58, 80
4, 68160, Note_on_c, 2, 42, 84
4, 68160, Note_on_c, 2, 49, 84
4, 68160, Note_on_c, 2, 54, 84
4, 68160, Note_on_c, 2, 58, 84
4, 68636, Note_off_c, 2, 42, 80
4, 68636, Note_off_c, 2, 49, 80
4, 68636, Note_off_c, 2, 54, 80
4, 68636, Note_off_c, 2, 58, 80
4, 68640, Note_on_c, 2, 42, 84
4, 68640, Note_on_c, 2, 49, 84
4, 68640, Note_on_c, 2, 54, 84
4, 68640, Note_on_c, 2, 58, 84
4, 69116, Note_off_c, 2, 42, 80
4, 69116, Note_off_c, 2, 49, 80
4, 69116, Note_off_c, 2, 54, 80
4, 69116, Note_off_c, 2, 58, 80
4, 69120, Note_on_c, 2, 73, 84
4, 69436, Note_off_c, 2, 73, 80
4, 69440, Note_on_c, 2, 72, 84
4, 69756, Note_off_c, 2, 72, 80
4, 69760, Note_on_c, 2, 68, 84
4, 70076, Note_off_c, 2, 68, 80
4, 70080, Note_on_c, 2, 73, 84
4, 70396, Note_off_c, 2, 73, 80
4, 70400, Note_on_c, 2, 72, 84
4, 70716, Note_off_c, 2, 72, 80
4, 70720, Note_on_c, 2, 66, 84
4, 71036, Note_off_c, 2, 66, 80
4, 71040, Note_on_c, 2, 49, 84
4, 71040, Note_on_c, 2, 56, 84
4, 71040, Note_on_c, 2, 61, 84
4, 71040, Note_on_c, 2, 65, 84
4, 71756, Note_off_c, 2, 49, 80
4, 71756, Note_off_c, 2, 56, 80
4, 71756, Note_off_c, 2, 61, 80
4, 71756, Note_off_c, 2, 65, 80
4, 71760, Note_on_c, 2, 49, 84
4, 71760, Note_on_c, 2, 56, 84
4, 71760, Note_on_c, 2, 61, 84
4, 71760, Note_on_c, 2, 65, 84
4, 71996, Note_off_c, 2, 49, 80
4, 71996, Note_off_c, 2, 56, 80
4, 71996, Note_off_c, 2, 61, 80
4, 71996, Note_off_c, 2, 65, 80
4, 72000, Note_on_c, 2, 49, 84
4, 72000, Note_on_c, 2, 56, 84
4, 72000, Note_on_c, 2, 61, 84
4, 72000, Note_on_c, 2, 65, 84
4, 72716, Note_off_c, 2, 49, 80
4, 72716, Note_off_c, 2, 56, 80
4, 72716, Note_off_c, 2, 61, 80
4, 72716, Note_off_c, 2, 65, 80
4, 72720, Note_on_c, 2, 49, 84
4, 72720, Note_on_c, 2, 56, 84
4, 72720, Note_on_c, 2, 61, 84
4, 72720, Note_on_c, 2, 65, 84
4, 72956, Note_off_c, 2, 49, 80
4, 72956, Note_off_c, 2, 56, 80
4, 72956, Note_off_c, 2, 61, 80
4, 72956, Note_off_c, 2, 65, 80
4, 72960, Note_on_c, 2, 44, 84
4, 72960, Note_on_c, 2, 51, 84
4, 72960, Note_on_c, 2, 56, 84
4, 73436, Note_off_c, 2, 44, 80
4, 73436, Note_off_c, 2, 51, 80
4, 73436, Note_off_c, 2, 56, 80
4, 73440, Note_on_c, 2, 44, 84
4, 73440, Note_on_c, 2, 51, 84
4, 73440, Note_on_c, 2, 56, 84
4, 73440, Note_on_c, 2, 60, 84
4, 73440, Note_on_c, 2, 63, 84
4, 73916, Note_off_c, 2, 44, 80
4, 73916, Note_off_c, 2, 51, 80
4, 73916, Note_off_c, 2, 56, 80
4, 73916, Note_off_c, 2, 60, 80
4, 73916, Note_off_c, 2, 63, 80
4, 73920, Note_on_c, 2, 44, 84
4, 73920, Note_on_c, 2, 51, 84
4, 73920, Note_on_c, 2, 56, 84
4, 73920, Note_on_c, 2, 60, 84
4, 73920, Note_on_c, 2, 63, 84
4, 74636, Note_off_c, 2, 44, 80
4, 74636, Note_off_c, 2, 51, 80
4, 74636, Note_off_c, 2, 56, 80
4, 74636, Note_off_c, 2, 60, 80
4, 74636, Note_off_c, 2, 63, 80
4, 74640, Note_on_c, 2, 44, 84
4, 74640, Note_on_c, 2, 51, 84
4, 74640, Note_on_c, 2, 56, 84
4, 74640, Note_on_c, 2, 61, 84
4, 74640, Note_on_c, 2, 63, 84
4, 74876, Note_off_c, 2, 44, 80
4, 74876, Note_off_c, 2, 51, 80
4, 74876, Note_off_c, 2, 56, 80
4, 74876, Note_off_c, 2, 61, 80
4, 74876, Note_off_c, 2, 63, 80
4, 74880, Note_on_c, 2, 51, 84
4, 74880, Note_on_c, 2, 58, 84
4, 74880, Note_on_c, 2, 63, 84
4, 74880, Note_on_c, 2, 67, 84
4, 75596, Note_off_c, 2, 51, 80
4, 75596, Note_off_c, 2, 58, 80
4, 75596, Note_off_c, 2, 63, 80
4, 75596, Note_off_c, 2, 67, 80
4, 75600, Note_on_c, 2, 51, 84
4, 75600, Note_on_c, 2, 58, 84
4, 75600, Note_on_c, 2, 63, 84
4, 75600, Note_on_c, 2, 67, 84
4, 75836, Note_off_c, 2, 51, 80
4, 75836, Note_off_c, 2, 58, 80
4, 75836, Note_off_c, 2, 63, 80
4, 75836, Note_off_c, 2, 67, 80
4, 75840, Note_on_c, 2, 51, 84
4, 75840, Note_on_c, 2, 58, 84
4, 75840, Note_on_c, 2, 63, 84
4, 75840, Note_on_c, 2, 67, 84
4, 76556, Note_off_c, 2, 51, 80
4, 76556, Note_off_c, 2, 58, 80
4, 76556, Note_off_c, 2, 63, 80
4, 76556, Note_off_c, 2, 67, 80
4, 76560, Note_on_c, 2, 51, 84
4, 76560, Note_on_c, 2, 58, 84
4, 76560, Note_on_c, 2, 63, 84
4, 76560, Note_on_c, 2, 67, 84
4, 77036, Note_off_c, 2, 51, 80
4, 77036, Note_off_c, 2, 58, 80
4, 77036, Note_off_c, 2, 63, 80
4, 77036, Note_off_c, 2, 67, 80
4, 77040, Note_on_c, 2, 51, 84
4, 77040, Note_on_c, 2, 58, 84
4, 77040, Note_on_c, 2, 63, 84
4, 77040, Note_on_c, 2, 67, 84
4, 77516, Note_off_c, 2, 51, 80
4, 77516, Note_off_c, 2, 58, 80
4, 77516, Note_off_c, 2, 63, 80
4, 77516, Note_off_c, 2, 67, 80
4, 77520, Note_on_c, 2, 61, 84
4, 77996, Note_off_c, 2, 61, 80
4, 78000, Note_on_c, 2, 60, 84
4, 78236, Note_off_c, 2, 60, 80
4, 78240, Note_on_c, 2, 58, 84
4, 78716, Note_off_c, 2, 58, 80
4, 78720, Note_on_c, 2, 44, 84
4, 78720, Note_on_c, 2, 51, 84
4, 78720, Note_on_c, 2, 56, 84
4, 79196, Note_off_c, 2, 44, 80
4, 79196, Note_off_c, 2, 51, 80
4, 79196, Note_off_c, 2, 56, 80
4, 79200, Note_on_c, 2, 44, 84
4, 79200, Note_on_c, 2, 51, 84
4, 79200, Note_on_c, 2, 56, 84
4, 79200, Note_on_c, 2, 60, 84
4, 79200, Note_on_c, 2, 63, 84
4, 79676, Note_off_c, 2, 44, 80
4, 79676, Note_off_c, 2, 51, 80
4, 79676, Note_off_c, 2, 56, 80
4, 79676, Note_off_c, 2, 60, 80
4, 79676, Note_off_c, 2, 63, 80
4, 79680, Note_on_c, 2, 44, 84
4, 79680, Note_on_c, 2, 51, 84
4, 79680, Note_on_c, 2, 56, 84
4, 79680, Note_on_c, 2, 60, 84
4, 79680, Note_on_c, 2, 63, 84
4, 80396, Note_off_c, 2, 44, 80
4, 80396, Note_off_c, 2, 51, 80
4, 80396, Note_off_c, 2, 56, 80
4, 80396, Note_off_c, 2, 60, 80
4, 80396, Note_off_c, 2, 63, 80
4, 80400, Note_on_c, 2, 44, 84
4, 80400, Note_on_c, 2, 51, 84
4, 80400, Note_on_c, 2, 56, 84
4, 80400, Note_on_c, 2, 61, 84
4, 80400, Note_on_c, 2, 63, 84
4, 80876, Note_off_c, 2, 44, 80
4, 80876, Note_off_c, 2, 51, 80
4, 80876, Note_off_c, 2, 56, 80
4, 80876, Note_off_c, 2, 61, 80
4, 80876, Note_off_c, 2, 63, 80
4, 80880, Note_on_c, 2, 44, 84
4, 80880, Note_on_c, 2, 51, 84
4, 80880, Note_on_c, 2, 56, 84
4, 80880, Note_on_c, 2, 60, 84
4, 80880, Note_on_c, 2, 63, 84
4, 81116, Note_off_c, 2, 44, 80
4, 81116, Note_off_c, 2, 51, 80
4, 81116, Note_off_c, 2, 56, 80
4, 81116, Note_off_c, 2, 60, 80
4, 81116, Note_off_c, 2, 63, 80
4, 81120, Note_on_c, 2, 44, 84
4, 81120, Note_on_c, 2, 51, 84
4, 81120, Note_on_c, 2, 56, 84
4, 81120, Note_on_c, 2, 61, 84
4, 81120, Note_on_c, 2, 63, 84
4, 81596, Note_off_c, 2, 44, 80
4, 81596, Note_off_c, 2, 51, 80
4, 81596, Note_off_c, 2, 56, 80
4, 81596, Note_off_c, 2, 61, 80
4, 81596, Note_off_c, 2, 63, 80
4, 81600, Note_on_c, 2, 44, 84
4, 81600, Note_on_c, 2, 51, 84
4, 81600, Note_on_c, 2, 56, 84
4, 81600, Note_on_c, 2, 60, 84
4, 81600, Note_on_c, 2, 63, 84
4, 82556, Note_off_c, 2, 44, 80
4, 82556, Note_off_c, 2, 51, 80
4, 82556, Note_off_c, 2, 56, 80
4, 82556, Note_off_c, 2, 60, 80
4, 82556, Note_off_c, 2, 63, 80
4, 82560, Note_on_c, 2, 49, 84
4, 82560, Note_on_c, 2, 56, 84
4, 82560, Note_on_c, 2, 61, 84
4, 82560, Note_on_c, 2, 65, 84
4, 83276, Note_off_c, 2, 49, 80
4, 83276, Note_off_c, 2, 56, 80
4, 83276, Note_off_c, 2, 61, 80
4, 83276, Note_off_c, 2, 65, 80
4, 83280, Note_on_c, 2, 49, 84
4, 83280, Note_on_c, 2, 56, 84
4, 83280, Note_on_c, 2, 61, 84
4, 83280, Note_on_c, 2, 65, 84
4, 83516, Note_off_c, 2, 49, 80
4, 83516, Note_off_c, 2, 56, 80
4, 83516, Note_off_c, 2, 61, 80
4, 83516, Note_off_c, 2, 65, 80
4, 83520, Note_on_c, 2, 49, 84
4, 83520, Note_on_c, 2, 56, 84
4, 83520, Note_on_c, 2, 61, 84
4, 83520, Note_on_c, 2, 65, 84
4, 84236, Note_off_c, 2, 49, 80
4, 84236, Note_off_c, 2, 56, 80
4, 84236, Note_off_c, 2, 61, 80
4, 84236, Note_off_c, 2, 65, 80
4, 84240, Note_on_c, 2, 49, 84
4, 84240, Note_on_c, 2, 56, 84
4, 84240, Note_on_c, 2, 61, 84
4, 84240, Note_on_c, 2, 65, 84
4, 84716, Note_off_c, 2, 49, 80
4, 84716, Note_off_c, 2, 56, 80
4, 84716, Note_off_c, 2, 61, 80
4, 84716, Note_off_c, 2, 65, 80
4, 84720, Note_on_c, 2, 49, 84
4, 84720, Note_on_c, 2, 56, 84
4, 84720, Note_on_c, 2, 61, 84
4, 84720, Note_on_c, 2, 65, 84
4, 85196, Note_off_c, 2, 49, 80
4, 85196, Note_off_c, 2, 56, 80
4, 85196, Note_off_c, 2, 61, 80
4, 85196, Note_off_c, 2, 65, 80
4, 85200, Note_on_c, 2, 49, 84
4, 85200, Note_on_c, 2, 56, 84
4, 85200, Note_on_c, 2, 61, 84
4, 85200, Note_on_c, 2, 65, 84
4, 85436, Note_off_c, 2, 49, 80
4, 85436, Note_off_c, 2, 56, 80
4, 85436, Note_off_c, 2, 61, 80
4, 85436, Note_off_c, 2, 65, 80
4, 85440, Note_on_c, 2, 49, 84
4, 85440, Note_on_c, 2, 56, 84
4, 85440, Note_on_c, 2, 61, 84
4, 85440, Note_on_c, 2, 65, 84
4, 86396, Note_off_c, 2, 49, 80
4, 86396, Note_off_c, 2, 56, 80
4, 86396, Note_off_c, 2, 61, 80
4, 86396, Note_off_c, 2, 65, 80
4, 86400, Note_on_c, 2, 44, 84
4, 86400, Note_on_c, 2, 51, 84
4, 86400, Note_on_c, 2, 56, 84
4, 86876, Note_off_c, 2, 44, 80
4, 86876, Note_off_c, 2, 51, 80
4, 86876, Note_off_c, 2, 56, 80
4, 86880, Note_on_c, 2, 44, 84
4, 86880, Note_on_c, 2, 51, 84
4, 86880, Note_on_c, 2, 56, 84
4, 86880, Note_on_c, 2, 60, 84
4, 86880, Note_on_c, 2, 63, 84
4, 87356, Note_off_c, 2, 44, 80
4, 87356, Note_off_c, 2, 51, 80
4, 87356, Note_off_c, 2, 56, 80
4, 87356, Note_off_c, 2, 60, 80
4, 87356, Note_off_c, 2, 63, 80
4, 87360, Note_on_c, 2, 44, 84
4, 87360, Note_on_c, 2, 51, 84
4, 87360, Note_on_c, 2, 56, 84
4, 87360, Note_on_c, 2, 60, 84
4, 87360, Note_on_c, 2, 63, 84
4, 88076, Note_off_c, 2, 44, 80
4, 88076, Note_off_c, 2, 51, 80
4, 88076, Note_off_c, 2, 56, 80
4, 88076, Note_off_c, 2, 60, 80
4, 88076, Note_off_c, 2, 63, 80
4, 88080, Note_on_c, 2, 44, 84
4, 88080, Note_on_c, 2, 51, 84
4, 88080, Note_on_c, 2, 56, 84
4, 88080, Note_on_c, 2, 61, 84
4, 88080, Note_on_c, 2, 63, 84
4, 88556, Note_off_c, 2, 44, 80
4, 88556, Note_off_c, 2, 51, 80
4, 88556, Note_off_c, 2, 56, 80
4, 88556, Note_off_c, 2, 61, 80
4, 88556, Note_off_c, 2, 63, 80
4, 88560, Note_on_c, 2, 44, 84
4, 88560, Note_on_c, 2, 51, 84
4, 88560, Note_on_c, 2, 56, 84
4, 88560, Note_on_c, 2, 60, 84
4, 88560, Note_on_c, 2, 63, 84
4, 88796, Note_off_c, 2, 44, 80
4, 88796, Note_off_c, 2, 51, 80
4, 88796, Note_off_c, 2, 56, 80
4, 88796, Note_off_c, 2, 60, 80
4, 88796, Note_off_c, 2, 63, 80
4, 88800, Note_on_c, 2, 44, 84
4, 88800, Note_on_c, 2, 51, 84
4, 88800, Note_on_c, 2, 56, 84
4, 88800, Note_on_c, 2, 61, 84
4, 88800, Note_on_c, 2, 63, 84
4, 89276, Note_off_c, 2, 44, 80
4, 89276, Note_off_c, 2, 51, 80
4, 89276, Note_off_c, 2, 56, 80
4, 89276, Note_off_c, 2, 61, 80
4, 89276, Note_off_c, 2, 63, 80
4, 89280, Note_on_c, 2, 44, 84
4, 89280, Note_on_c, 2, 51, 84
4, 89280, Note_on_c, 2, 56, 84
4, 89280, Note_on_c, 2, 60, 84
4, 89280, Note_on_c, 2, 63, 84
4, 90236, Note_off_c, 2, 44, 80
4, 90236, Note_off_c, 2, 51, 80
4, 90236, Note_off_c, 2, 56, 80
4, 90236, Note_off_c, 2, 60, 80
4, 90236, Note_off_c, 2, 63, 80
4, 90240, Note_on_c, 2, 49, 84
4, 90240, Note_on_c, 2, 56, 84
4, 90240, Note_on_c, 2, 61, 84
4, 90240, Note_on_c, 2, 65, 84
4, 90956, Note_off_c, 2, 49, 80
4, 90956, Note_off_c, 2, 56, 80
4, 90956, Note_off_c, 2, 61, 80
4, 90956, Note_off_c, 2, 65, 80
4, 90960, Note_on_c, 2, 49, 84
4, 90960, Note_on_c, 2, 56, 84
4, 90960, Note_on_c, 2, 61, 84
4, 90960, Note_on_c, 2, 65, 84
4, 91196, Note_off_c, 2, 49, 80
4, 91196, Note_off_c, 2, 56, 80
4, 91196, Note_off_c, 2, 61, 80
4, 91196, Note_off_c, 2, 65, 80
4, 91200, Note_on_c, 2, 49, 84
4, 91200, Note_on_c, 2, 56, 84
4, 91200, Note_on_c, 2, 61, 84
4, 91200, Note_on_c, 2, 65, 84
4, 91916, Note_off_c, 2, 49, 80
4, 91916, Note_off_c, 2, 56, 80
4, 91916, Note_off_c, 2, 61, 80
4, 91916, Note_off_c, 2, 65, 80
4, 91920, Note_on_c, 2, 49, 84
4, 91920, Note_on_c, 2, 56, 84
4, 91920, Note_on_c, 2, 61, 84
4, 91920, Note_on_c, 2, 65, 84
4, 92396, Note_off_c, 2, 49, 80
4, 92396, Note_off_c, 2, 56, 80
4, 92396, Note_off_c, 2, 61, 80
4, 92396, Note_off_c, 2, 65, 80
4, 92400, Note_on_c, 2, 49, 84
4, 92400, Note_on_c, 2, 56, 84
4, 92400, Note_on_c, 2, 61, 84
4, 92400, Note_on_c, 2, 65, 84
4, 92876, Note_off_c, 2, 49, 80
4, 92876, Note_off_c, 2, 56, 80
4, 92876, Note_off_c, 2, 61, 80
4, 92876, Note_off_c, 2, 65, 80
4, 92880, Note_on_c, 2, 49, 84
4, 92880, Note_on_c, 2, 56, 84
4, 92880, Note_on_c, 2, 61, 84
4, 92880, Note_on_c, 2, 65, 84
4, 93116, Note_off_c, 2, 49, 80
4, 93116, Note_off_c, 2, 56, 80
4, 93116, Note_off_c, 2, 61, 80
4, 93116, Note_off_c, 2, 65, 80
4, 93120, Note_on_c, 2, 49, 84
4, 93120, Note_on_c, 2, 56, 84
4, 93120, Note_on_c, 2, 61, 84
4, 93120, Note_on_c, 2, 65, 84
4, 93356, Note_off_c, 2, 49, 80
4, 93356, Note_off_c, 2, 56, 80
4, 93356, Note_off_c, 2, 61, 80
4, 93356, Note_off_c, 2, 65, 80
4, 93360, Note_on_c, 2, 63, 84
4, 93596, Note_off_c, 2, 63, 80
4, 93600, Note_on_c, 2, 61, 84
4, 94076, Note_off_c, 2, 61, 80
4, 94080, Note_on_c, 2, 44, 84
4, 94080, Note_on_c, 2, 51, 84
4, 94080, Note_on_c, 2, 56, 84
4, 94556, Note_off_c, 2, 44, 80
4, 94556, Note_off_c, 2, 51, 80
4, 94556, Note_off_c, 2, 56, 80
4, 94560, Note_on_c, 2, 44, 84
4, 94560, Note_on_c, 2, 51, 84
4, 94560, Note_on_c, 2, 56, 84
4, 94560, Note_on_c, 2, 60, 84
4, 94560, Note_on_c, 2, 63, 84
4, 95036, Note_off_c, 2, 44, 80
4, 95036, Note_off_c, 2, 51, 80
4, 95036, Note_off_c, 2, 56, 80
4, 95036, Note_off_c, 2, 60, 80
4, 95036, Note_off_c, 2, 63, 80
4, 95040, Note_on_c, 2, 44, 84
4, 95040, Note_on_c, 2, 51, 84
4, 95040, Note_on_c, 2, 56, 84
4, 95040, Note_on_c, 2, 60, 84
4, 95040, Note_on_c, 2, 63, 84
4, 95756, Note_off_c, 2, 44, 80
4, 95756, Note_off_c, 2, 51, 80
4, 95756, Note_off_c, 2, 56, 80
4, 95756, Note_off_c, 2, 60, 80
4, 95756, Note_off_c, 2, 63, 80
4, 95760, Note_on_c, 2, 44, 84
4, 95760, Note_on_c, 2, 51, 84
4, 95760, Note_on_c, 2, 56, 84
4, 95760, Note_on_c, 2, 61, 84
4, 95760, Note_on_c, 2, 63, 84
4, 96236, Note_off_c, 2, 44, 80
4, 96236, Note_off_c, 2, 51, 80
4, 96236, Note_off_c, 2, 56, 80
4, 96236, Note_off_c, 2, 61, 80
4, 96236, Note_off_c, 2, 63, 80
4, 96240, Note_on_c, 2, 44, 84
4, 96240, Note_on_c, 2, 51, 84
4, 96240, Note_on_c, 2, 56, 84
4, 96240, Note_on_c, 2, 60, 84
4, 96240, Note_on_c, 2, 63, 84
4, 96476, Note_off_c, 2, 44, 80
4, 96476, Note_off_c, 2, 51, 80
4, 96476, Note_off_c, 2, 56, 80
4, 96476, Note_off_c, 2, 60, 80
4, 96476, Note_off_c, 2, 63, 80
4, 96480, Note_on_c, 2, 44, 84
4, 96480, Note_on_c, 2, 51, 84
4, 96480, Note_on_c, 2, 56, 84
4, 96480, Note_on_c, 2, 61, 84
4, 96480, Note_on_c, 2, 63, 84
4, 96956, Note_off_c, 2, 44, 80
4, 96956, Note_off_c, 2, 51, 80
4, 96956, Note_off_c, 2, 56, 80
4, 96956, Note_off_c, 2, 61, 80
4, 96956, Note_off_c, 2, 63, 80
4, 96960, Note_on_c, 2, 44, 84
4, 96960, Note_on_c, 2, 51, 84
4, 96960, Note_on_c, 2, 56, 84
4, 96960, Note_on_c, 2, 60, 84
4, 96960, Note_on_c, 2, 63, 84
4, 97916, Note_off_c, 2, 44, 80
4, 97916, Note_off_c, 2, 51, 80
4, 97916, Note_off_c, 2, 56, 80
4, 97916, Note_off_c, 2, 60, 80
4, 97916, Note_off_c, 2, 63, 80
4, 97920, Note_on_c, 2, 49, 84
4, 97920, Note_on_c, 2, 56, 84
4, 97920, Note_on_c, 2, 61, 84
4, 97920, Note_on_c, 2, 65, 84
4, 98636, Note_off_c, 2, 49, 80
4, 98636, Note_off_c, 2, 56, 80
4, 98636, Note_off_c, 2, 61, 80
4, 98636, Note_off_c, 2, 65, 80
4, 98640, Note_on_c, 2, 49, 84
4, 98640, Note_on_c, 2, 56, 84
4, 98640, Note_on_c, 2, 61, 84
4, 98640, Note_on_c, 2, 65, 84
4, 98876, Note_off_c, 2, 49, 80
4, 98876, Note_off_c, 2, 56, 80
4, 98876, Note_off_c, 2, 61, 80
4, 98876, Note_off_c, 2, 65, 80
4, 98880, Note_on_c, 2, 49, 84
4, 98880, Note_on_c, 2, 56, 84
4, 98880, Note_on_c, 2, 61, 84
4, 98880, Note_on_c, 2, 65, 84
4, 99596, Note_off_c, 2, 49, 80
4, 99596, Note_off_c, 2, 56, 80
4, 99596, Note_off_c, 2, 61, 80
4, 99596, Note_off_c, 2, 65, 80
4, 99600, Note_on_c, 2, 49, 84
4, 99600, Note_on_c, 2, 56, 84
4, 99600, Note_on_c, 2, 61, 84
4, 99600, Note_on_c, 2, 65, 84
4, 100076, Note_off_c, 2, 49, 80
4, 100076, Note_off_c, 2, 56, 80
4, 100076, Note_off_c, 2, 61, 80
4, 100076, Note_off_c, 2, 65, 80
4, 100080, Note_on_c, 2, 49, 84
4, 100080, Note_on_c, 2, 56, 84
4, 100080, Note_on_c, 2, 61, 84
4, 100080, Note_on_c, 2, 65, 84
4, 100556, Note_off_c, 2, 49, 80
4, 100556, Note_off_c, 2, 56, 80
4, 100556, Note_off_c, 2, 61, 80
4, 100556, Note_off_c, 2, 65, 80
4, 100560, Note_on_c, 2, 49, 84
4, 100560, Note_on_c, 2, 56, 84
4, 100560, Note_on_c, 2, 61, 84
4, 100560, Note_on_c, 2, 65, 84
4, 100796, Note_off_c, 2, 49, 80
4, 100796, Note_off_c, 2, 56, 80
4, 100796, Note_off_c, 2, 61, 80
4, 100796, Note_off_c, 2, 65, 80
4, 100800, Note_on_c, 2, 49, 84
4, 100800, Note_on_c, 2, 56, 84
4, 100800, Note_on_c, 2, 61, 84
4, 100800, Note_on_c, 2, 65, 84
4, 101756, Note_off_c, 2, 49, 80
4, 101756, Note_off_c, 2, 56, 80
4, 101756, Note_off_c, 2, 61, 80
4, 101756, Note_off_c, 2, 65, 80
4, 101760, Note_on_c, 2, 44, 84
4, 101760, Note_on_c, 2, 51, 84
4, 101760, Note_on_c, 2, 56, 84
4, 102236, Note_off_c, 2, 44, 80
4, 102236, Note_off_c, 2, 51, 80
4, 102236, Note_off_c, 2, 56, 80
4, 102240, Note_on_c, 2, 44, 84
4, 102240, Note_on_c, 2, 51, 84
4, 102240, Note_on_c, 2, 56, 84
4, 102240, Note_on_c, 2, 60, 84
4, 102240, Note_on_c, 2, 63, 84
4, 102716, Note_off_c, 2, 44, 80
4, 102716, Note_off_c, 2, 51, 80
4, 102716, Note_off_c, 2, 56, 80
4, 102716, Note_off_c, 2, 60, 80
4, 102716, Note_off_c, 2, 63, 80
4, 102720, Note_on_c, 2, 44, 84
4, 102720, Note_on_c, 2, 51, 84
4, 102720, Note_on_c, 2, 56, 84
4, 102720, Note_on_c, 2, 60, 84
4, 102720, Note_on_c, 2, 63, 84
4, 103436, Note_off_c, 2, 44, 80
4, 103436, Note_off_c, 2, 51, 80
4, 103436, Note_off_c, 2, 56, 80
4, 103436, Note_off_c, 2, 60, 80
4, 103436, Note_off_c, 2, 63, 80
4, 103440, Note_on_c, 2, 44, 84
4, 103440, Note_on_c, 2, 51, 84
4, 103440, Note_on_c, 2, 56, 84
4, 103440, Note_on_c, 2, 61, 84
4, 103440, Note_on_c, 2, 63, 84
4, 103916, Note_off_c, 2, 44, 80
4, 103916, Note_off_c, 2, 51, 80
4, 103916, Note_off_c, 2, 56, 80
4, 103916, Note_off_c, 2, 61, 80
4, 103916, Note_off_c, 2, 63, 80
4, 103920, Note_on_c, 2, 44, 84
4, 103920, Note_on_c, 2, 51, 84
4, 103920, Note_on_c, 2, 56, 84
4, 103920, Note_on_c, 2, 60, 84
4, 103920, Note_on_c, 2, 63, 84
4, 104156, Note_off_c, 2, 44, 80
4, 104156, Note_off_c, 2, 51, 80
4, 104156, Note_off_c, 2, 56, 80
4, 104156, Note_off_c, 2, 60, 80
4, 104156, Note_off_c, 2, 63, 80
4, 104160, Note_on_c, 2, 44, 84
4, 104160, Note_on_c, 2, 51, 84
4, 104160, Note_on_c, 2, 56, 84
4, 104160, Note_on_c, 2, 61, 84
4, 104160, Note_on_c, 2, 63, 84
4, 104636, Note_off_c, 2, 44, 80
4, 104636, Note_off_c, 2, 51, 80
4, 104636, Note_off_c, 2, 56, 80
4, 104636, Note_off_c, 2, 61, 80
4, 104636, Note_off_c, 2, 63, 80
4, 104640, Note_on_c, 2, 44, 84
4, 104640, Note_on_c, 2, 51, 84
4, 104640, Note_on_c, 2, 56, 84
4, 104640, Note_on_c, 2, 60, 84
4, 104640, Note_on_c, 2, 63, 84
4, 105596, Note_off_c, 2, 44, 80
4, 105596, Note_off_c, 2, 51, 80
4, 105596, Note_off_c, 2, 56, 80
4, 105596, Note_off_c, 2, 60, 80
4, 105596, Note_off_c, 2, 63, 80
4, 105600, Note_on_c, 2, 49, 84
4, 105600, Note_on_c, 2, 56, 84
4, 105600, Note_on_c, 2, 61, 84
4, 105600, Note_on_c, 2, 65, 84
4, 106316, Note_off_c, 2, 49, 80
4, 106316, Note_off_c, 2, 56, 80
4, 106316, Note_off_c, 2, 61, 80
4, 106316, Note_off_c, 2, 65, 80
4, 106320, Note_on_c, 2, 49, 84
4, 106320, Note_on_c, 2, 56, 84
4, 106320, Note_on_c, 2, 61, 84
4, 106320, Note_on_c, 2, 65, 84
4, 106556, Note_off_c, 2, 49, 80
4, 106556, Note_off_c, 2, 56, 80
4, 106556, Note_off_c, 2, 61, 80
4, 106556, Note_off_c, 2, 65, 80
4, 106560, Note_on_c, 2, 49, 84
4, 106560, Note_on_c, 2, 56, 84
4, 106560, Note_on_c, 2, 61, 84
4, 106560, Note_on_c, 2, 65, 84
4, 107276, Note_off_c, 2, 49, 80
4, 107276, Note_off_c, 2, 56, 80
4, 107276, Note_off_c, 2, 61, 80
4, 107276, Note_off_c, 2, 65, 80
4, 107280, Note_on_c, 2, 49, 84
4, 107280, Note_on_c, 2, 56, 84
4, 107280, Note_on_c, 2, 61, 84
4, 107280, Note_on_c, 2, 65, 84
4, 107756, Note_off_c, 2, 49, 80
4, 107756, Note_off_c, 2, 56, 80
4, 107756, Note_off_c, 2, 61, 80
4, 107756, Note_off_c, 2, 65, 80
4, 107760, Note_on_c, 2, 49, 84
4, 107760, Note_on_c, 2, 56, 84
4, 107760, Note_on_c, 2, 61, 84
4, 107760, Note_on_c, 2, 65, 84
4, 108236, Note_off_c, 2, 49, 80
4, 108236, Note_off_c, 2, 56, 80
4, 108236, Note_off_c, 2, 61, 80
4, 108236, Note_off_c, 2, 65, 80
4, 108240, Note_on_c, 2, 49, 84
4, 108240, Note_on_c, 2, 56, 84
4, 108240, Note_on_c, 2, 61, 84
4, 108240, Note_on_c, 2, 65, 84
4, 108476, Note_off_c, 2, 49, 80
4, 108476, Note_off_c, 2, 56, 80
4, 108476, Note_off_c, 2, 61, 80
4, 108476, Note_off_c, 2, 65, 80
4, 108480, Note_on_c, 2, 49, 84
4, 108480, Note_on_c, 2, 56, 84
4, 108480, Note_on_c, 2, 61, 84
4, 108480, Note_on_c, 2, 65, 84
4, 108716, Note_off_c, 2, 49, 80
4, 108716, Note_off_c, 2, 56, 80
4, 108716, Note_off_c, 2, 61, 80
4, 108716, Note_off_c, 2, 65, 80
4, 108720, Note_on_c, 2, 63, 84
4, 108956, Note_off_c, 2, 63, 80
4, 108960, Note_on_c, 2, 61, 84
4, 109436, Note_off_c, 2, 61, 80
4, 109440, Note_on_c, 2, 44, 84
4, 109440, Note_on_c, 2, 51, 84
4, 109440, Note_on_c, 2, 56, 84
4, 109916, Note_off_c, 2, 44, 80
4, 109916, Note_off_c, 2, 51, 80
4, 109916, Note_off_c, 2, 56, 80
4, 109920, Note_on_c, 2, 44, 84
4, 109920, Note_on_c, 2, 51, 84
4, 109920, Note_on_c, 2, 56, 84
4, 109920, Note_on_c, 2, 60, 84
4, 109920, Note_on_c, 2, 63, 84
4, 110396, Note_off_c, 2, 44, 80
4, 110396, Note_off_c, 2, 51, 80
4, 110396, Note_off_c, 2, 56, 80
4, 110396, Note_off_c, 2, 60, 80
4, 110396, Note_off_c, 2, 63, 80
4, 110400, Note_on_c, 2, 44, 84
4, 110400, Note_on_c, 2, 51, 84
4, 110400, Note_on_c, 2, 56, 84
4, 110400, Note_on_c, 2, 60, 84
4, 110400, Note_on_c, 2, 63, 84
4, 111116, Note_off_c, 2, 44, 80
4, 111116, Note_off_c, 2, 51, 80
4, 111116, Note_off_c, 2, 56, 80
4, 111116, Note_off_c, 2, 60, 80
4, 111116, Note_off_c, 2, 63, 80
4, 111120, Note_on_c, 2, 44, 84
4, 111120, Note_on_c, 2, 51, 84
4, 111120, Note_on_c, 2, 56, 84
4, 111120, Note_on_c, 2, 61, 84
4, 111120, Note_on_c, 2, 63, 84
4, 111596, Note_off_c, 2, 44, 80
4, 111596, Note_off_c, 2, 51, 80
4, 111596, Note_off_c, 2, 56, 80
4, 111596, Note_off_c, 2, 61, 80
4, 111596, Note_off_c, 2, 63, 80
4, 111600, Note_on_c, 2, 44, 84
4, 111600, Note_on_c, 2, 51, 84
4, 111600, Note_on_c, 2, 56, 84
4, 111600, Note_on_c, 2, 60, 84
4, 111600, Note_on_c, 2, 63, 84
4, 111836, Note_off_c, 2, 44, 80
4, 111836, Note_off_c, 2, 51, 80
4, 111836, Note_off_c, 2, 56, 80
4, 111836, Note_off_c, 2, 60, 80
4, 111836, Note_off_c, 2, 63, 80
4, 111840, Note_on_c, 2, 44, 84
4, 111840, Note_on_c, 2, 51, 84
4, 111840, Note_on_c, 2, 56, 84
4, 111840, Note_on_c, 2, 61, 84
4, 111840, Note_on_c, 2, 63, 84
4, 112316, Note_off_c, 2, 44, 80
4, 112316, Note_off_c, 2, 51, 80
4, 112316, Note_off_c, 2, 56, 80
4, 112316, Note_off_c, 2, 61, 80
4, 112316, Note_off_c, 2, 63, 80
4, 112320, Note_on_c, 2, 44, 84
4, 112320, Note_on_c, 2, 51, 84
4, 112320, Note_on_c, 2, 56, 84
4, 112320, Note_on_c, 2, 60, 84
4, 112320, Note_on_c, 2, 63, 84
4, 113276, Note_off_c, 2, 44, 80
4, 113276, Note_off_c, 2, 51, 80
4, 113276, Note_off_c, 2, 56, 80
4, 113276, Note_off_c, 2, 60, 80
4, 113276, Note_off_c, 2, 63, 80
4, 113280, Note_on_c, 2, 51, 84
4, 113280, Note_on_c, 2, 58, 84
4, 113280, Note_on_c, 2, 63, 84
4, 113280, Note_on_c, 2, 67, 84
4, 113996, Note_off_c, 2, 51, 80
4, 113996, Note_off_c, 2, 58, 80
4, 113996, Note_off_c, 2, 63, 80
4, 113996, Note_off_c, 2, 67, 80
4, 114000, Note_on_c, 2, 51, 84
4, 114000, Note_on_c, 2, 58, 84
4, 114000, Note_on_c, 2, 63, 84
4, 114000, Note_on_c, 2, 67, 84
4, 114236, Note_off_c, 2, 51, 80
4, 114236, Note_off_c, 2, 58, 80
4, 114236, Note_off_c, 2, 63, 80
4, 114236, Note_off_c, 2, 67, 80
4, 114240, Note_on_c, 2, 51, 84
4, 114240, Note_on_c, 2, 58, 84
4, 114240, Note_on_c, 2, 63, 84
4, 114240, Note_on_c, 2, 67, 84
4, 114956, Note_off_c, 2, 51, 80
4, 114956, Note_off_c, 2, 58, 80
4, 114956, Note_off_c, 2, 63, 80
4, 114956, Note_off_c, 2, 67, 80
4, 114960, Note_on_c, 2, 51, 84
4, 114960, Note_on_c, 2, 58, 84
4, 114960, Note_on_c, 2, 63, 84
4, 114960, Note_on_c, 2, 67, 84
4, 115436, Note_off_c, 2, 51, 80
4, 115436, Note_off_c, 2, 58, 80
4, 115436, Note_off_c, 2, 63, 80
4, 115436, Note_off_c, 2, 67, 80
4, 115440, Note_on_c, 2, 51, 84
4, 115440, Note_on_c, 2, 58, 84
4, 115440, Note_on_c, 2, 63, 84
4, 115440, Note_on_c, 2, 67, 84
4, 115916, Note_off_c, 2, 51, 80
4, 115916, Note_off_c, 2, 58, 80
4, 115916, Note_off_c, 2, 63, 80
4, 115916, Note_off_c, 2, 67, 80
4, 115920, Note_on_c, 2, 51, 84
4, 115920, Note_on_c, 2, 58, 84
4, 115920, Note_on_c, 2, 63, 84
4, 115920, Note_on_c, 2, 68, 84
4, 116156, Note_off_c, 2, 51, 80
4, 116156, Note_off_c, 2, 58, 80
4, 116156, Note_off_c, 2, 63, 80
4, 116156, Note_off_c, 2, 68, 80
4, 116160, Note_on_c, 2, 67, 84
4, 116396, Note_off_c, 2, 67, 80
4, 116400, Note_on_c, 2, 65, 84
4, 116636, Note_off_c, 2, 65, 80
4, 116640, Note_on_c, 2, 63, 84
4, 117116, Note_off_c, 2, 63, 80
4, 117120, Note_on_c, 2, 42, 84
4, 117120, Note_on_c, 2, 49, 84
4, 117120, Note_on_c, 2, 54, 84
4, 117120, Note_on_c, 2, 58, 84
4, 117836, Note_off_c, 2, 42, 80
4, 117836, Note_off_c, 2, 49, 80
4, 117836, Note_off_c, 2, 54, 80
4, 117836, Note_off_c, 2, 58, 80
4, 117840, Note_on_c, 2, 42, 84
4, 117840, Note_on_c, 2, 49, 84
4, 117840, Note_on_c, 2, 54, 84
4, 117840, Note_on_c, 2, 58, 84
4, 118076, Note_off_c, 2, 42, 80
4, 118076, Note_off_c, 2, 49, 80
4, 118076, Note_off_c, 2, 54, 80
4, 118076, Note_off_c, 2, 58, 80
4, 118080, Note_on_c, 2, 42, 84
4, 118080, Note_on_c, 2, 49, 84
4, 118080, Note_on_c, 2, 54, 84
4, 118080, Note_on_c, 2, 58, 84
4, 118556, Note_off_c, 2, 42, 80
4, 118556, Note_off_c, 2, 49, 80
4, 118556, Note_off_c, 2, 54, 80
4, 118556, Note_off_c, 2, 58, 80
4, 118560, Note_on_c, 2, 42, 84
4, 118560, Note_on_c, 2, 49, 84
4, 118560, Note_on_c, 2, 54, 84
4, 118560, Note_on_c, 2, 58, 84
4, 119036, Note_off_c, 2, 42, 80
4, 119036, Note_off_c, 2, 49, 80
4, 119036, Note_off_c, 2, 54, 80
4, 119036, Note_off_c, 2, 58, 80
4, 119040, Note_on_c, 2, 73, 84
4, 119356, Note_off_c, 2, 73, 80
4, 119360, Note_on_c, 2, 72, 84
4, 119676, Note_off_c, 2, 72, 80
4, 119680, Note_on_c, 2, 68, 84
4, 119996, Note_off_c, 2, 68, 80
4, 120000, Note_on_c, 2, 73, 84
4, 120316, Note_off_c, 2, 73, 80
4, 120320, Note_on_c, 2, 72, 84
4, 120636, Note_off_c, 2, 72, 80
4, 120640, Note_on_c, 2, 66, 84
4, 120956, Note_off_c, 2, 66, 80
4, 120960, Note_on_c, 2, 49, 84
4, 120960, Note_on_c, 2, 56, 84
4, 120960, Note_on_c, 2, 61, 84
4, 120960, Note_on_c, 2, 65, 84
4, 121676, Note_off_c, 2, 49, 80
4, 121676, Note_off_c, 2, 56, 80
4, 121676, Note_off_c, 2, 61, 80
4, 121676, Note_off_c, 2, 65, 80
4, 121680, Note_on_c, 2, 49, 84
4, 121680, Note_on_c, 2, 56, 84
4, 121680, Note_on_c, 2, 61, 84
4, 121680, Note_on_c, 2, 65, 84
4, 121916, Note_off_c, 2, 49, 80
4, 121916, Note_off_c, 2, 56, 80
4, 121916, Note_off_c, 2, 61, 80
4, 121916, Note_off_c, 2, 65, 80
4, 121920, Note_on_c, 2, 49, 84
4, 121920, Note_on_c, 2, 56, 84
4, 121920, Note_on_c, 2, 61, 84
4, 121920, Note_on_c, 2, 65, 84
4, 122636, Note_off_c, 2, 49, 80
4, 122636, Note_off_c, 2, 56, 80
4, 122636, Note_off_c, 2, 61, 80
4, 122636, Note_off_c, 2, 65, 80
4, 122640, Note_on_c, 2, 49, 84
4, 122640, Note_on_c, 2, 56, 84
4, 122640, Note_on_c, 2, 61, 84
4, 122640, Note_on_c, 2, 65, 84
4, 122876, Note_off_c, 2, 49, 80
4, 122876, Note_off_c, 2, 56, 80
4, 122876, Note_off_c, 2, 61, 80
4, 122876, Note_off_c, 2, 65, 80
4, 122880, Note_on_c, 2, 44, 84
4, 122880, Note_on_c, 2, 51, 84
4, 122880, Note_on_c, 2, 56, 84
4, 123356, Note_off_c, 2, 44, 80
4, 123356, Note_off_c, 2, 51, 80
4, 123356, Note_off_c, 2, 56, 80
4, 123360, Note_on_c, 2, 44, 84
4, 123360, Note_on_c, 2, 51, 84
4, 123360, Note_on_c, 2, 56, 84
4, 123360, Note_on_c, 2, 60, 84
4, 123360, Note_on_c, 2, 63, 84
4, 123836, Note_off_c, 2, 44, 80
4, 123836, Note_off_c, 2, 51, 80
4, 123836, Note_off_c, 2, 56, 80
4, 123836, Note_off_c, 2, 60, 80
4, 123836, Note_off_c, 2, 63, 80
4, 123840, Note_on_c, 2, 44, 84
4, 123840, Note_on_c, 2, 51, 84
4, 123840, Note_on_c, 2, 56, 84
4, 123840, Note_on_c, 2, 60, 84
4, 123840, Note_on_c, 2, 63, 84
4, 124556, Note_off_c, 2, 44, 80
4, 124556, Note_off_c, 2, 51, 80
4, 124556, Note_off_c, 2, 56, 80
4, 124556, Note_off_c, 2, 60, 80
4, 124556, Note_off_c, 2, 63, 80
4, 124560, Note_on_c, 2, 44, 84
4, 124560, Note_on_c, 2, 51, 84
4, 124560, Note_on_c, 2, 56, 84
4, 124560, Note_on_c, 2, 61, 84
4, 124560, Note_on_c, 2, 63, 84
4, 124796, Note_off_c, 2, 44, 80
4, 124796, Note_off_c, 2, 51, 80
4, 124796, Note_off_c, 2, 56, 80
4, 124796, Note_off_c, 2, 61, 80
4, 124796, Note_off_c, 2, 63, 80
4, 124800, Note_on_c, 2, 51, 84
4, 124800, Note_on_c, 2, 58, 84
4, 124800, Note_on_c, 2, 63, 84
4, 124800, Note_on_c, 2, 67, 84
4, 125516, Note_off_c, 2, 51, 80
4, 125516, Note_off_c, 2, 58, 80
4, 125516, Note_off_c, 2, 63, 80
4, 125516, Note_off_c, 2, 67, 80
4, 125520, Note_on_c, 2, 51, 84
4, 125520, Note_on_c, 2, 58, 84
4, 125520, Note_on_c, 2, 63, 84
4, 125520, Note_on_c, 2, 67, 84
4, 125756, Note_off_c, 2, 51, 80
4, 125756, Note_off_c, 2, 58, 80
4, 125756, Note_off_c, 2, 63, 80
4, 125756, Note_off_c, 2, 67, 80
4, 125760, Note_on_c, 2, 51, 84
4, 125760, Note_on_c, 2, 58, 84
4, 125760, Note_on_c, 2, 63, 84
4, 125760, Note_on_c, 2, 67, 84
4, 126476, Note_off_c, 2, 51, 80
4, 126476, Note_off_c, 2, 58, 80
4, 126476, Note_off_c, 2, 63, 80
4, 126476, Note_off_c, 2, 67, 80
4, 126480, Note_on_c, 2, 51, 84
4, 126480, Note_on_c, 2, 58, 84
4, 126480, Note_on_c, 2, 63, 84
4, 126480, Note_on_c, 2, 67, 84
4, 126956, Note_off_c, 2, 51, 80
4, 126956, Note_off_c, 2, 58, 80
4, 126956, Note_off_c, 2, 63, 80
4, 126956, Note_off_c, 2, 67, 80
4, 126960, Note_on_c, 2, 51, 84
4, 126960, Note_on_c, 2, 58, 84
4, 126960, Note_on_c, 2, 63, 84
4, 126960, Note_on_c, 2, 67, 84
4, 127436, Note_off_c, 2, 51, 80
4, 127436, Note_off_c, 2, 58, 80
4, 127436, Note_off_c, 2, 63, 80
4, 127436, Note_off_c, 2, 67, 80
4, 127440, Note_on_c, 2, 51, 84
4, 127440, Note_on_c, 2, 58, 84
4, 127440, Note_on_c, 2, 63, 84
4, 127440, Note_on_c, 2, 67, 84
4, 127916, Note_off_c, 2, 51, 80
4, 127916, Note_off_c, 2, 58, 80
4, 127916, Note_off_c, 2, 63, 80
4, 127916, Note_off_c, 2, 67, 80
4, 127920, Note_on_c, 2, 51, 84
4, 127920, Note_on_c, 2, 58, 84
4, 127920, Note_on_c, 2, 63, 84
4, 127920, Note_on_c, 2, 67, 84
4, 128396, Note_off_c, 2, 51, 80
4, 128396, Note_off_c, 2, 58, 80
4, 128396, Note_off_c, 2, 63, 80
4, 128396, Note_off_c, 2, 67, 80
4, 128400, Note_on_c, 2, 51, 84
4, 128400, Note_on_c, 2, 58, 84
4, 128400, Note_on_c, 2, 63, 84
4, 128400, Note_on_c, 2, 67, 84
4, 128636, Note_off_c, 2, 51, 80
4, 128636, Note_off_c, 2, 58, 80
4, 128636, Note_off_c, 2, 63, 80
4, 128636, Note_off_c, 2, 67, 80
4, 128640, Note_on_c, 2, 42, 84
4, 128640, Note_on_c, 2, 49, 84
4, 128640, Note_on_c, 2, 54, 84
4, 128640, Note_on_c, 2, 58, 84
4, 129356, Note_off_c, 2, 42, 80
4, 129356, Note_off_c, 2, 49, 80
4, 129356, Note_off_c, 2, 54, 80
4, 129356, Note_off_c, 2, 58, 80
4, 129360, Note_on_c, 2, 42, 84
4, 129360, Note_on_c, 2, 49, 84
4, 129360, Note_on_c, 2, 54, 84
4, 129360, Note_on_c, 2, 58, 84
4, 129596, Note_off_c, 2, 42, 80
4, 129596, Note_off_c, 2, 49, 80
4, 129596, Note_off_c, 2, 54, 80
4, 129596, Note_off_c, 2, 58, 80
4, 129600, Note_on_c, 2, 42, 84
4, 129600, Note_on_c, 2, 49, 84
4, 129600, Note_on_c, 2, 54, 84
4, 129600, Note_on_c, 2, 58, 84
4, 130076, Note_off_c, 2, 42, 80
4, 130076, Note_off_c, 2, 49, 80
4, 130076, Note_off_c, 2, 54, 80
4, 130076, Note_off_c, 2, 58, 80
4, 130080, Note_on_c, 2, 42, 84
4, 130080, Note_on_c, 2, 49, 84
4, 130080, Note_on_c, 2, 54, 84
4, 130080, Note_on_c, 2, 58, 84
4, 130556, Note_off_c, 2, 42, 80
4, 130556, Note_off_c, 2, 49, 80
4, 130556, Note_off_c, 2, 54, 80
4, 130556, Note_off_c, 2, 58, 80
4, 130560, Note_on_c, 2, 73, 84
4, 130876, Note_off_c, 2, 73, 80
4, 130880, Note_on_c, 2, 72, 84
4, 131196, Note_off_c, 2, 72, 80
4, 131200, Note_on_c, 2, 68, 84
4, 131516, Note_off_c, 2, 68, 80
4, 131520, Note_on_c, 2, 73, 84
4, 131836, Note_off_c, 2, 73, 80
4, 131840, Note_on_c, 2, 72, 84
4, 132156, Note_off_c, 2, 72, 80
4, 132160, Note_on_c, 2, 66, 84
4, 132476, Note_off_c, 2, 66, 80
4, 132480, Note_on_c, 2, 49, 84
4, 132480, Note_on_c, 2, 56, 84
4, 132480, Note_on_c, 2, 61, 84
4, 132480, Note_on_c, 2, 65, 84
4, 133196, Note_off_c, 2, 49, 80
4, 133196, Note_off_c, 2, 56, 80
4, 133196, Note_off_c, 2, 61, 80
4, 133196, Note_off_c, 2, 65, 80
4, 133200, Note_on_c, 2, 49, 84
4, 133200, Note_on_c, 2, 56, 84
4, 133200, Note_on_c, 2, 61, 84
4, 133200, Note_on_c, 2, 65, 84
4, 133436, Note_off_c, 2, 49, 80
4, 133436, Note_off_c, 2, 56, 80
4, 133436, Note_off_c, 2, 61, 80
4, 133436, Note_off_c, 2, 65, 80
4, 133440, Note_on_c, 2, 49, 84
4, 133440, Note_on_c, 2, 56, 84
4, 133440, Note_on_c, 2, 61, 84
4, 133440, Note_on_c, 2, 65, 84
4, 134156, Note_off_c, 2, 49, 80
4, 134156, Note_off_c, 2, 56, 80
4, 134156, Note_off_c, 2, 61, 80
4, 134156, Note_off_c, 2, 65, 80
4, 134160, Note_on_c, 2, 49, 84
4, 134160, Note_on_c, 2, 56, 84
4, 134160, Note_on_c, 2, 61, 84
4, 134160, Note_on_c, 2, 65, 84
4, 134396, Note_off_c, 2, 49, 80
4, 134396, Note_off_c, 2, 56, 80
4, 134396, Note_off_c, 2, 61, 80
4, 134396, Note_off_c, 2, 65, 80
4, 134400, Note_on_c, 2, 44, 84
4, 134400, Note_on_c, 2, 51, 84
4, 134400, Note_on_c, 2, 56, 84
4, 134876, Note_off_c, 2, 44, 80
4, 134876, Note_off_c, 2, 51, 80
4, 134876, Note_off_c, 2, 56, 80
4, 134880, Note_on_c, 2, 44, 84
4, 134880, Note_on_c, 2, 51, 84
4, 134880, Note_on_c, 2, 56, 84
4, 134880, Note_on_c, 2, 60, 84
4, 134880, Note_on_c, 2, 63, 84
4, 135356, Note_off_c, 2, 44, 80
4, 135356, Note_off_c, 2, 51, 80
4, 135356, Note_off_c, 2, 56, 80
4, 135356, Note_off_c, 2, 60, 80
4, 135356, Note_off_c, 2, 63, 80
4, 135360, Note_on_c, 2, 44, 84
4, 135360, Note_on_c, 2, 51, 84
4, 135360, Note_on_c, 2, 56, 84
4, 135360, Note_on_c, 2, 60, 84
4, 135360, Note_on_c, 2, 63, 84
4, 136076, Note_off_c, 2, 44, 80
4, 136076, Note_off_c, 2, 51, 80
4, 136076, Note_off_c, 2, 56, 80
4, 136076, Note_off_c, 2, 60, 80
4, 136076, Note_off_c, 2, 63, 80
4, 136080, Note_on_c, 2, 44, 84
4, 136080, Note_on_c, 2, 51, 84
4, 136080, Note_on_c, 2, 56, 84
4, 136080, Note_on_c, 2, 61, 84
4, 136080, Note_on_c, 2, 63, 84
4, 136316, Note_off_c, 2, 44, 80
4, 136316, Note_off_c, 2, 51, 80
4, 136316, Note_off_c, 2, 56, 80
4, 136316, Note_off_c, 2, 61, 80
4, 136316, Note_off_c, 2, 63, 80
4, 136320, Note_on_c, 2, 51, 84
4, 136320, Note_on_c, 2, 58, 84
4, 136320, Note_on_c, 2, 63, 84
4, 136320, Note_on_c, 2, 67, 84
4, 137036, Note_off_c, 2, 51, 80
4, 137036, Note_off_c, 2, 58, 80
4, 137036, Note_off_c, 2, 63, 80
4, 137036, Note_off_c, 2, 67, 80
4, 137040, Note_on_c, 2, 51, 84
4, 137040, Note_on_c, 2, 58, 84
4, 137040, Note_on_c, 2, 63, 84
4, 137040, Note_on_c, 2, 67, 84
4, 137276, Note_off_c, 2, 51, 80
4, 137276, Note_off_c, 2, 58, 80
4, 137276, Note_off_c, 2, 63, 80
4, 137276, Note_off_c, 2, 67, 80
4, 137280, Note_on_c, 2, 51, 84
4, 137280, Note_on_c, 2, 58, 84
4, 137280, Note_on_c, 2, 63, 84
4, 137280, Note_on_c, 2, 67, 84
4, 137996, Note_off_c, 2, 51, 80
4, 137996, Note_off_c, 2, 58, 80
4, 137996, Note_off_c, 2, 63, 80
4, 137996, Note_off_c, 2, 67, 80
4, 138000, Note_on_c, 2, 51, 84
4, 138000, Note_on_c, 2, 58, 84
4, 138000, Note_on_c, 2, 63, 84
4, 138000, Note_on_c, 2, 67, 84
4, 138476, Note_off_c, 2, 51, 80
4, 138476, Note_off_c, 2, 58, 80
4, 138476, Note_off_c, 2, 63, 80
4, 138476, Note_off_c, 2, 67, 80
4, 138480, Note_on_c, 2, 51, 84
4, 138480, Note_on_c, 2, 58, 84
4, 138480, Note_on_c, 2, 63, 84
4, 138480, Note_on_c, 2, 67, 84
4, 138956, Note_off_c, 2, 51, 80
4, 138956, Note_off_c, 2, 58, 80
4, 138956, Note_off_c, 2, 63, 80
4, 138956, Note_off_c, 2, 67, 80
4, 138960, Note_on_c, 2, 61, 84
4, 139436, Note_off_c, 2, 61, 80
4, 139440, Note_on_c, 2, 60, 84
4, 139676, Note_off_c, 2, 60, 80
4, 139680, Note_on_c, 2, 58, 84
4, 140156, Note_off_c, 2, 58, 80
4, 140160, Note_on_c, 2, 49, 84
4, 140160, Note_on_c, 2, 56, 84
4, 140160, Note_on_c, 2, 61, 84
4, 140160, Note_on_c, 2, 65, 84
4, 140636, Note_off_c, 2, 49, 80
4, 140636, Note_off_c, 2, 56, 80
4, 140636, Note_off_c, 2, 61, 80
4, 140636, Note_off_c, 2, 65, 80
4, 140640, Note_on_c, 2, 49, 84
4, 140640, Note_on_c, 2, 56, 84
4, 140640, Note_on_c, 2, 61, 84
4, 140640, Note_on_c, 2, 65, 84
4, 141116, Note_off_c, 2, 49, 80
4, 141116, Note_off_c, 2, 56, 80
4, 141116, Note_off_c, 2, 61, 80
4, 141116, Note_off_c, 2, 65, 80
4, 141120, Note_on_c, 2, 48, 84
4, 141120, Note_on_c, 2, 56, 84
4, 141120, Note_on_c, 2, 60, 84
4, 141120, Note_on_c, 2, 63, 84
4, 141596, Note_off_c, 2, 48, 80
4, 141596, Note_off_c, 2, 56, 80
4, 141596, Note_off_c, 2, 60, 80
4, 141596, Note_off_c, 2, 63, 80
4, 141600, Note_on_c, 2, 48, 84
4, 141600, Note_on_c, 2, 56, 84
4, 141600, Note_on_c, 2, 60, 84
4, 141600, Note_on_c, 2, 63, 84
4, 142076, Note_off_c, 2, 48, 80
4, 142076, Note_off_c, 2, 56, 80
4, 142076, Note_off_c, 2, 60, 80
4, 142076, Note_off_c, 2, 63, 80
4, 142080, Note_on_c, 2, 46, 84
4, 142080, Note_on_c, 2, 53, 84
4, 142080, Note_on_c, 2, 58, 84
4, 142080, Note_on_c, 2, 61, 84
4, 142556, Note_off_c, 2, 46, 80
4, 142556, Note_off_c, 2, 53, 80
4, 142556, Note_off_c, 2, 58, 80
4, 142556, Note_off_c, 2, 61, 80
4, 142560, Note_on_c, 2, 46, 84
4, 142560, Note_on_c, 2, 53, 84
4, 142560, Note_on_c, 2, 58, 84
4, 142560, Note_on_c, 2, 61, 84
4, 143036, Note_off_c, 2, 46, 80
4, 143036, Note_off_c, 2, 53, 80
4, 143036, Note_off_c, 2, 58, 80
4, 143036, Note_off_c, 2, 61, 80
4, 143040, Note_on_c, 2, 44, 84
4, 143040, Note_on_c, 2, 51, 84
4, 143040, Note_on_c, 2, 56, 84
4, 143040, Note_on_c, 2, 60, 84
4, 143516, Note_off_c, 2, 44, 80
4, 143516, Note_off_c, 2, 51, 80
4, 143516, Note_off_c, 2, 56, 80
4, 143516, Note_off_c, 2, 60, 80
4, 143520, Note_on_c, 2, 44, 84
4, 143520, Note_on_c, 2, 51, 84
4, 143520, Note_on_c, 2, 56, 84
4, 143520, Note_on_c, 2, 60, 84
4, 143996, Note_off_c, 2, 44, 80
4, 143996, Note_off_c, 2, 51, 80
4, 143996, Note_off_c, 2, 56, 80
4, 143996, Note_off_c, 2, 60, 80
4, 144000, Note_on_c, 2, 49, 84
4, 144000, Note_on_c, 2, 56, 84
4, 144000, Note_on_c, 2, 61, 84
4, 144000, Note_on_c, 2, 65, 84
4, 144476, Note_off_c, 2, 49, 80
4, 144476, Note_off_c, 2, 56, 80
4, 144476, Note_off_c, 2, 61, 80
4, 144476, Note_off_c, 2, 65, 80
4, 144480, Note_on_c, 2, 49, 84
4, 144480, Note_on_c, 2, 56, 84
4, 144480, Note_on_c, 2, 61, 84
4, 144480, Note_on_c, 2, 65, 84
4, 144956, Note_off_c, 2, 49, 80
4, 144956, Note_off_c, 2, 56, 80
4, 144956, Note_off_c, 2, 61, 80
4, 144956, Note_off_c, 2, 65, 80
4, 144960, Note_on_c, 2, 48, 84
4, 144960, Note_on_c, 2, 56, 84
4, 144960, Note_on_c, 2, 60, 84
4, 144960, Note_on_c, 2, 63, 84
4, 145436, Note_off_c, 2, 48, 80
4, 145436, Note_off_c, 2, 56, 80
4, 145436, Note_off_c, 2, 60, 80
4, 145436, Note_off_c, 2, 63, 80
4, 145440, Note_on_c, 2, 48, 84
4, 145440, Note_on_c, 2, 56, 84
4, 145440, Note_on_c, 2, 60, 84
4, 145440, Note_on_c, 2, 63, 84
4, 145916, Note_off_c, 2, 48, 80
4, 145916, Note_off_c, 2, 56, 80
4, 145916, Note_off_c, 2, 60, 80
4, 145916, Note_off_c, 2, 63, 80
4, 145920, Note_on_c, 2, 46, 84
4, 145920, Note_on_c, 2, 53, 84
4, 145920, Note_on_c, 2, 58, 84
4, 145920, Note_on_c, 2, 61, 84
4, 146396, Note_off_c, 2, 46, 80
4, 146396, Note_off_c, 2, 53, 80
4, 146396, Note_off_c, 2, 58, 80
4, 146396, Note_off_c, 2, 61, 80
4, 146400, Note_on_c, 2, 46, 84
4, 146400, Note_on_c, 2, 53, 84
4, 146400, Note_on_c, 2, 58, 84
4, 146400, Note_on_c, 2, 61, 84
4, 146876, Note_off_c, 2, 46, 80
4, 146876, Note_off_c, 2, 53, 80
4, 146876, Note_off_c, 2, 58, 80
4, 146876, Note_off_c, 2, 61, 80
4, 146880, Note_on_c, 2, 44, 84
4, 146880, Note_on_c, 2, 51, 84
4, 146880, Note_on_c, 2, 56, 84
4, 146880, Note_on_c, 2, 60, 84
4, 147356, Note_off_c, 2, 44, 80
4, 147356, Note_off_c, 2, 51, 80
4, 147356, Note_off_c, 2, 56, 80
4, 147356, Note_off_c, 2, 60, 80
4, 147360, Note_on_c, 2, 44, 84
4, 147360, Note_on_c, 2, 51, 84
4, 147360, Note_on_c, 2, 56, 84
4, 147360, Note_on_c, 2, 60, 84
4, 147836, Note_off_c, 2, 44, 80
4, 147836, Note_off_c, 2, 51, 80
4, 147836, Note_off_c, 2, 56, 80
4, 147836, Note_off_c, 2, 60, 80
4, 147840, Note_on_c, 2, 49, 84
4, 147840, Note_on_c, 2, 56, 84
4, 147840, Note_on_c, 2, 61, 84
4, 147840, Note_on_c, 2, 65, 84
4, 148316, Note_off_c, 2, 49, 80
4, 148316, Note_off_c, 2, 56, 80
4, 148316, Note_off_c, 2, 61, 80
4, 148316, Note_off_c, 2, 65, 80
4, 148320, Note_on_c, 2, 49, 84
4, 148320, Note_on_c, 2, 56, 84
4, 148320, Note_on_c, 2, 61, 84
4, 148320, Note_on_c, 2, 65, 84
4, 148796, Note_off_c, 2, 49, 80
4, 148796, Note_off_c, 2, 56, 80
4, 148796, Note_off_c, 2, 61, 80
4, 148796, Note_off_c, 2, 65, 80
4, 148800, Note_on_c, 2, 48, 84
4, 148800, Note_on_c, 2, 56, 84
4, 148800, Note_on_c, 2, 60, 84
4, 148800, Note_on_c, 2, 63, 84
4, 149276, Note_off_c, 2, 48, 80
4, 149276, Note_off_c, 2, 56, 80
4, 149276, Note_off_c, 2, 60, 80
4, 149276, Note_off_c, 2, 63, 80
4, 149280, Note_on_c, 2, 48, 84
4, 149280, Note_on_c, 2, 56, 84
4, 149280, Note_on_c, 2, 60, 84
4, 149280, Note_on_c, 2, 63, 84
4, 149756, Note_off_c, 2, 48, 80
4, 149756, Note_off_c, 2, 56, 80
4, 149756, Note_off_c, 2, 60, 80
4, 149756, Note_off_c, 2, 63, 80
4, 149760, Note_on_c, 2, 46, 84
4, 149760, Note_on_c, 2, 53, 84
4, 149760, Note_on_c, 2, 58, 84
4, 149760, Note_on_c, 2, 61, 84
4, 150236, Note_off_c, 2, 46, 80
4, 150236, Note_off_c, 2, 53, 80
4, 150236, Note_off_c, 2, 58, 80
4, 150236, Note_off_c, 2, 61, 80
4, 150240, Note_on_c, 2, 46, 84
4, 150240, Note_on_c, 2, 53, 84
4, 150240, Note_on_c, 2, 58, 84
4, 150240, Note_on_c, 2, 61, 84
4, 150716, Note_off_c, 2, 46, 80
4, 150716, Note_off_c, 2, 53, 80
4, 150716, Note_off_c, 2, 58, 80
4, 150716, Note_off_c, 2, 61, 80
4, 150720, Note_on_c, 2, 44, 84
4, 150720, Note_on_c, 2, 51, 84
4, 150720, Note_on_c, 2, 56, 84
4, 150720, Note_on_c, 2, 60, 84
4, 151196, Note_off_c, 2, 44, 80
4, 151196, Note_off_c, 2, 51, 80
4, 151196, Note_off_c, 2, 56, 80
4, 151196, Note_off_c, 2, 60, 80
4, 151200, Note_on_c, 2, 44, 84
4, 151200, Note_on_c, 2, 51, 84
4, 151200, Note_on_c, 2, 56, 84
4, 151200, Note_on_c, 2, 60, 84
4, 151676, Note_off_c, 2, 44, 80
4, 151676, Note_off_c, 2, 51, 80
4, 151676, Note_off_c, 2, 56, 80
4, 151676, Note_off_c, 2, 60, 80
4, 151680, Note_on_c, 2, 46, 84
4, 151680, Note_on_c, 2, 53, 84
4, 151680, Note_on_c, 2, 58, 84
4, 151680, Note_on_c, 2, 61, 84
4, 151916, Note_off_c, 2, 46, 80
4, 151916, Note_off_c, 2, 53, 80
4, 151916, Note_off_c, 2, 58, 80
4, 151916, Note_off_c, 2, 61, 80
4, 151920, Note_on_c, 2, 46, 84
4, 151920, Note_on_c, 2, 53, 84
4, 151920, Note_on_c, 2, 58, 84
4, 151920, Note_on_c, 2, 61, 84
4, 152396, Note_off_c, 2, 46, 80
4, 152396, Note_off_c, 2, 53, 80
4, 152396, Note_off_c, 2, 58, 80
4, 152396, Note_off_c, 2, 61, 80
4, 152400, Note_on_c, 2, 46, 84
4, 152400, Note_on_c, 2, 53, 84
4, 152400, Note_on_c, 2, 58, 84
4, 152400, Note_on_c, 2, 61, 84
4, 152636, Note_off_c, 2, 46, 80
4, 152636, Note_off_c, 2, 53, 80
4, 152636, Note_off_c, 2, 58, 80
4, 152636, Note_off_c, 2, 61, 80
4, 152640, Note_on_c, 2, 46, 84
4, 152640, Note_on_c, 2, 53, 84
4, 152640, Note_on_c, 2, 58, 84
4, 152640, Note_on_c, 2, 61, 84
4, 152876, Note_off_c, 2, 46, 80
4, 152876, Note_off_c, 2, 53, 80
4, 152876, Note_off_c, 2, 58, 80
4, 152876, Note_off_c, 2, 61, 80
4, 152880, Note_on_c, 2, 46, 84
4, 152880, Note_on_c, 2, 53, 84
4, 152880, Note_on_c, 2, 58, 84
4, 152880, Note_on_c, 2, 61, 84
4, 153356, Note_off_c, 2, 46, 80
4, 153356, Note_off_c, 2, 53, 80
4, 153356, Note_off_c, 2, 58, 80
4, 153356, Note_off_c, 2, 61, 80
4, 153360, Note_on_c, 2, 46, 84
4, 153360, Note_on_c, 2, 53, 84
4, 153360, Note_on_c, 2, 58, 84
4, 153360, Note_on_c, 2, 61, 84
4, 153596, Note_off_c, 2, 46, 80
4, 153596, Note_off_c, 2, 53, 80
4, 153596, Note_off_c, 2, 58, 80
4, 153596, Note_off_c, 2, 61, 80
4, 153600, Note_on_c, 2, 46, 84
4, 153600, Note_on_c, 2, 53, 84
4, 153600, Note_on_c, 2, 58, 84
4, 153600, Note_on_c, 2, 61, 84
4, 153836, Note_off_c, 2, 46, 80
4, 153836, Note_off_c, 2, 53, 80
4, 153836, Note_off_c, 2, 58, 80
4, 153836, Note_off_c, 2, 61, 80
4, 153840, Note_on_c, 2, 46, 84
4, 153840, Note_on_c, 2, 53, 84
4, 153840, Note_on_c, 2, 58, 84
4, 153840, Note_on_c, 2, 61, 84
4, 154316, Note_off_c, 2, 46, 80
4, 154316, Note_off_c, 2, 53, 80
4, 154316, Note_off_c, 2, 58, 80
4, 154316, Note_off_c, 2, 61, 80
4, 154320, Note_on_c, 2, 46, 84
4, 154320, Note_on_c, 2, 53, 84
4, 154320, Note_on_c, 2, 58, 84
4, 154320, Note_on_c, 2, 61, 84
4, 154556, Note_off_c, 2, 46, 80
4, 154556, Note_off_c, 2, 53, 80
4, 154556, Note_off_c, 2, 58, 80
4, 154556, Note_off_c, 2, 61, 80
4, 154560, Note_on_c, 2, 46, 84
4, 154560, Note_on_c, 2, 53, 84
4, 154560, Note_on_c, 2, 58, 84
4, 154560, Note_on_c, 2, 61, 84
4, 154796, Note_off_c, 2, 46, 80
4, 154796, Note_off_c, 2, 53, 80
4, 154796, Note_off_c, 2, 58, 80
4, 154796, Note_off_c, 2, 61, 80
4, 154800, Note_on_c, 2, 46, 84
4, 154800, Note_on_c, 2, 53, 84
4, 154800, Note_on_c, 2, 58, 84
4, 154800, Note_on_c, 2, 61, 84
4, 155276, Note_off_c, 2, 46, 80
4, 155276, Note_off_c, 2, 53, 80
4, 155276, Note_off_c, 2, 58, 80
4, 155276, Note_off_c, 2, 61, 80
4, 155280, Note_on_c, 2, 46, 84
4, 155280, Note_on_c, 2, 53, 84
4, 155280, Note_on_c, 2, 58, 84
4, 155280, Note_on_c, 2, 61, 84
4, 155516, Note_off_c, 2, 46, 80
4, 155516, Note_off_c, 2, 53, 80
4, 155516, Note_off_c, 2, 58, 80
4, 155516, Note_off_c, 2, 61, 80
4, 155520, Note_on_c, 2, 49, 84
4, 155520, Note_on_c, 2, 56, 84
4, 155520, Note_on_c, 2, 61, 84
4, 155520, Note_on_c, 2, 65, 84
4, 155756, Note_off_c, 2, 49, 80
4, 155756, Note_off_c, 2, 56, 80
4, 155756, Note_off_c, 2, 61, 80
4, 155756, Note_off_c, 2, 65, 80
4, 155760, Note_on_c, 2, 49, 84
4, 155760, Note_on_c, 2, 56, 84
4, 155760, Note_on_c, 2, 61, 84
4, 155760, Note_on_c, 2, 65, 84
4, 155996, Note_off_c, 2, 49, 80
4, 155996, Note_off_c, 2, 56, 80
4, 155996, Note_off_c, 2, 61, 80
4, 155996, Note_off_c, 2, 65, 80
4, 156000, Note_on_c, 2, 49, 84
4, 156000, Note_on_c, 2, 56, 84
4, 156000, Note_on_c, 2, 61, 84
4, 156000, Note_on_c, 2, 65, 84
4, 156236, Note_off_c, 2, 49, 80
4, 156236, Note_off_c, 2, 56, 80
4, 156236, Note_off_c, 2, 61, 80
4, 156236, Note_off_c, 2, 65, 80
4, 156240, Note_on_c, 2, 49, 84
4, 156240, Note_on_c, 2, 56, 84
4, 156240, Note_on_c, 2, 61, 84
4, 156240, Note_on_c, 2, 65, 84
4, 156716, Note_off_c, 2, 49, 80
4, 156716, Note_off_c, 2, 56, 80
4, 156716, Note_off_c, 2, 61, 80
4, 156716, Note_off_c, 2, 65, 80
4, 156720, Note_on_c, 2, 49, 84
4, 156720, Note_on_c, 2, 56, 84
4, 156720, Note_on_c, 2, 61, 84
4, 156720, Note_on_c, 2, 65, 84
4, 156956, Note_off_c, 2, 49, 80
4, 156956, Note_off_c, 2, 56, 80
4, 156956, Note_off_c, 2, 61, 80
4, 156956, Note_off_c, 2, 65, 80
4, 156960, Note_on_c, 2, 49, 84
4, 156960, Note_on_c, 2, 56, 84
4, 156960, Note_on_c, 2, 61, 84
4, 156960, Note_on_c, 2, 65, 84
4, 157436, Note_off_c, 2, 49, 80
4, 157436, Note_off_c, 2, 56, 80
4, 157436, Note_off_c, 2, 61, 80
4, 157436, Note_off_c, 2, 65, 80
4, 157440, Note_on_c, 2, 49, 84
4, 157440, Note_on_c, 2, 56, 84
4, 157440, Note_on_c, 2, 61, 84
4, 157440, Note_on_c, 2, 65, 84
4, 157676, Note_off_c, 2, 49, 80
4, 157676, Note_off_c, 2, 56, 80
4, 157676, Note_off_c, 2, 61, 80
4, 157676, Note_off_c, 2, 65, 80
4, 157680, Note_on_c, 2, 49, 84
4, 157680, Note_on_c, 2, 56, 84
4, 157680, Note_on_c, 2, 61, 84
4, 157680, Note_on_c, 2, 65, 84
4, 157916, Note_off_c, 2, 49, 80
4, 157916, Note_off_c, 2, 56, 80
4, 157916, Note_off_c, 2, 61, 80
4, 157916, Note_off_c, 2, 65, 80
4, 157920, Note_on_c, 2, 49, 84
4, 157920, Note_on_c, 2, 56, 84
4, 157920, Note_on_c, 2, 61, 84
4, 157920, Note_on_c, 2, 65, 84
4, 158156, Note_off_c, 2, 49, 80
4, 158156, Note_off_c, 2, 56, 80
4, 158156, Note_off_c, 2, 61, 80
4, 158156, Note_off_c, 2, 65, 80
4, 158160, Note_on_c, 2, 49, 84
4, 158160, Note_on_c, 2, 56, 84
4, 158160, Note_on_c, 2, 61, 84
4, 158160, Note_on_c, 2, 65, 84
4, 158636, Note_off_c, 2, 49, 80
4, 158636, Note_off_c, 2, 56, 80
4, 158636, Note_off_c, 2, 61, 80
4, 158636, Note_off_c, 2, 65, 80
4, 158640, Note_on_c, 2, 49, 84
4, 158640, Note_on_c, 2, 56, 84
4, 158640, Note_on_c, 2, 61, 84
4, 158640, Note_on_c, 2, 65, 84
4, 158876, Note_off_c, 2, 49, 80
4, 158876, Note_off_c, 2, 56, 80
4, 158876, Note_off_c, 2, 61, 80
4, 158876, Note_off_c, 2, 65, 80
4, 158880, Note_on_c, 2, 49, 84
4, 158880, Note_on_c, 2, 56, 84
4, 158880, Note_on_c, 2, 61, 84
4, 158880, Note_on_c, 2, 65, 84
4, 159356, Note_off_c, 2, 49, 80
4, 159356, Note_off_c, 2, 56, 80
4, 159356, Note_off_c, 2, 61, 80
4, 159356, Note_off_c, 2, 65, 80
4, 159360, Note_on_c, 2, 44, 84
4, 159360, Note_on_c, 2, 51, 84
4, 159360, Note_on_c, 2, 56, 84
4, 159836, Note_off_c, 2, 44, 80
4, 159836, Note_off_c, 2, 51, 80
4, 159836, Note_off_c, 2, 56, 80
4, 159840, Note_on_c, 2, 44, 84
4, 159840, Note_on_c, 2, 51, 84
4, 159840, Note_on_c, 2, 56, 84
4, 159840, Note_on_c, 2, 60, 84
4, 159840, Note_on_c, 2, 63, 84
4, 160316, Note_off_c, 2, 44, 80
4, 160316, Note_off_c, 2, 51, 80
4, 160316, Note_off_c, 2, 56, 80
4, 160316, Note_off_c, 2, 60, 80
4, 160316, Note_off_c, 2, 63, 80
4, 160320, Note_on_c, 2, 44, 84
4, 160320, Note_on_c, 2, 51, 84
4, 160320, Note_on_c, 2, 56, 84
4, 160320, Note_on_c, 2, 60, 84
4, 160320, Note_on_c, 2, 63, 84
4, 161036, Note_off_c, 2, 44, 80
4, 161036, Note_off_c, 2, 51, 80
4, 161036, Note_off_c, 2, 56, 80
4, 161036, Note_off_c, 2, 60, 80
4, 161036, Note_off_c, 2, 63, 80
4, 161040, Note_on_c, 2, 44, 84
4, 161040, Note_on_c, 2, 51, 84
4, 161040, Note_on_c, 2, 56, 84
4, 161040, Note_on_c, 2, 61, 84
4, 161040, Note_on_c, 2, 63, 84
4, 161516, Note_off_c, 2, 44, 80
4, 161516, Note_off_c, 2, 51, 80
4, 161516, Note_off_c, 2, 56, 80
4, 161516, Note_off_c, 2, 61, 80
4, 161516, Note_off_c, 2, 63, 80
4, 161520, Note_on_c, 2, 44, 84
4, 161520, Note_on_c, 2, 51, 84
4, 161520, Note_on_c, 2, 56, 84
4, 161520, Note_on_c, 2, 60, 84
4, 161520, Note_on_c, 2, 63, 84
4, 161756, Note_off_c, 2, 44, 80
4, 161756, Note_off_c, 2, 51, 80
4, 161756, Note_off_c, 2, 56, 80
4, 161756, Note_off_c, 2, 60, 80
4, 161756, Note_off_c, 2, 63, 80
4, 161760, Note_on_c, 2, 44, 84
4, 161760, Note_on_c, 2, 51, 84
4, 161760, Note_on_c, 2, 56, 84
4, 161760, Note_on_c, 2, 61, 84
4, 161760, Note_on_c, 2, 63, 84
4, 162236, Note_off_c, 2, 44, 80
4, 162236, Note_off_c, 2, 51, 80
4, 162236, Note_off_c, 2, 56, 80
4, 162236, Note_off_c, 2, 61, 80
4, 162236, Note_off_c, 2, 63, 80
4, 162240, Note_on_c, 2, 44, 84
4, 162240, Note_on_c, 2, 51, 84
4, 162240, Note_on_c, 2, 56, 84
4, 162240, Note_on_c, 2, 60, 84
4, 162240, Note_on_c, 2, 63, 84
4, 163196, Note_off_c, 2, 44, 80
4, 163196, Note_off_c, 2, 51, 80
4, 163196, Note_off_c, 2, 56, 80
4, 163196, Note_off_c, 2, 60, 80
4, 163196, Note_off_c, 2, 63, 80
4, 163200, Note_on_c, 2, 49, 84
4, 163200, Note_on_c, 2, 56, 84
4, 163200, Note_on_c, 2, 61, 84
4, 163200, Note_on_c, 2, 65, 84
4, 163916, Note_off_c, 2, 49, 80
4, 163916, Note_off_c, 2, 56, 80
4, 163916, Note_off_c, 2, 61, 80
4, 163916, Note_off_c, 2, 65, 80
4, 163920, Note_on_c, 2, 49, 84
4, 163920, Note_on_c, 2, 56, 84
4, 163920, Note_on_c, 2, 61, 84
4, 163920, Note_on_c, 2, 65, 84
4, 164156, Note_off_c, 2, 49, 80
4, 164156, Note_off_c, 2, 56, 80
4, 164156, Note_off_c, 2, 61, 80
4, 164156, Note_off_c, 2, 65, 80
4, 164160, Note_on_c, 2, 49, 84
4, 164160, Note_on_c, 2, 56, 84
4, 164160, Note_on_c, 2, 61, 84
4, 164160, Note_on_c, 2, 65, 84
4, 164876, Note_off_c, 2, 49, 80
4, 164876, Note_off_c, 2, 56, 80
4, 164876, Note_off_c, 2, 61, 80
4, 164876, Note_off_c, 2, 65, 80
4, 164880, Note_on_c, 2, 49, 84
4, 164880, Note_on_c, 2, 56, 84
4, 164880, Note_on_c, 2, 61, 84
4, 164880, Note_on_c, 2, 65, 84
4, 165356, Note_off_c, 2, 49, 80
4, 165356, Note_off_c, 2, 56, 80
4, 165356, Note_off_c, 2, 61, 80
4, 165356, Note_off_c, 2, 65, 80
4, 165360, Note_on_c, 2, 49, 84
4, 165360, Note_on_c, 2, 56, 84
4, 165360, Note_on_c, 2, 61, 84
4, 165360, Note_on_c, 2, 65, 84
4, 165836, Note_off_c, 2, 49, 80
4, 165836, Note_off_c, 2, 56, 80
4, 165836, Note_off_c, 2, 61, 80
4, 165836, Note_off_c, 2, 65, 80
4, 165840, Note_on_c, 2, 49, 84
4, 165840, Note_on_c, 2, 56, 84
4, 165840, Note_on_c, 2, 61, 84
4, 165840, Note_on_c, 2, 65, 84
4, 166076, Note_off_c, 2, 49, 80
4, 166076, Note_off_c, 2, 56, 80
4, 166076, Note_off_c, 2, 61, 80
4, 166076, Note_off_c, 2, 65, 80
4, 166080, Note_on_c, 2, 49, 84
4, 166080, Note_on_c, 2, 56, 84
4, 166080, Note_on_c, 2, 61, 84
4, 166080, Note_on_c, 2, 65, 84
4, 167036, Note_off_c, 2, 49, 80
4, 167036, Note_off_c, 2, 56, 80
4, 167036, Note_off_c, 2, 61, 80
4, 167036, Note_off_c, 2, 65, 80
4, 167040, Note_on_c, 2, 44, 84
4, 167040, Note_on_c, 2, 51, 84
4, 167040, Note_on_c, 2, 56, 84
4, 167516, Note_off_c, 2, 44, 80
4, 167516, Note_off_c, 2, 51, 80
4, 167516, Note_off_c, 2, 56, 80
4, 167520, Note_on_c, 2, 44, 84
4, 167520, Note_on_c, 2, 51, 84
4, 167520, Note_on_c, 2, 56, 84
4, 167520, Note_on_c, 2, 60, 84
4, 167520, Note_on_c, 2, 63, 84
4, 167996, Note_off_c, 2, 44, 80
4, 167996, Note_off_c, 2, 51, 80
4, 167996, Note_off_c, 2, 56, 80
4, 167996, Note_off_c, 2, 60, 80
4, 167996, Note_off_c, 2, 63, 80
4, 168000, Note_on_c, 2, 44, 84
4, 168000, Note_on_c, 2, 51, 84
4, 168000, Note_on_c, 2, 56, 84
4, 168000, Note_on_c, 2, 60, 84
4, 168000, Note_on_c, 2, 63, 84
4, 168716, Note_off_c, 2, 44, 80
4, 168716, Note_off_c, 2, 51, 80
4, 168716, Note_off_c, 2, 56, 80
4, 168716, Note_off_c, 2, 60, 80
4, 168716, Note_off_c, 2, 63, 80
4, 168720, Note_on_c, 2, 44, 84
4, 168720, Note_on_c, 2, 51, 84
4, 168720, Note_on_c, 2, 56, 84
4, 168720, Note_on_c, 2, 61, 84
4, 168720, Note_on_c, 2, 63, 84
4, 169196, Note_off_c, 2, 44, 80
4, 169196, Note_off_c, 2, 51, 80
4, 169196, Note_off_c, 2, 56, 80
4, 169196, Note_off_c, 2, 61, 80
4, 169196, Note_off_c, 2, 63, 80
4, 169200, Note_on_c, 2, 44, 84
4, 169200, Note_on_c, 2, 51, 84
4, 169200, Note_on_c, 2, 56, 84
4, 169200, Note_on_c, 2, 60, 84
4, 169200, Note_on_c, 2, 63, 84
4, 169436, Note_off_c, 2, 44, 80
4, 169436, Note_off_c, 2, 51, 80
4, 169436, Note_off_c, 2, 56, 80
4, 169436, Note_off_c, 2, 60, 80
4, 169436, Note_off_c, 2, 63, 80
4, 169440, Note_on_c, 2, 44, 84
4, 169440, Note_on_c, 2, 51, 84
4, 169440, Note_on_c, 2, 56, 84
4, 169440, Note_on_c, 2, 61, 84
4, 169440, Note_on_c, 2, 63, 84
4, 169916, Note_off_c, 2, 44, 80
4, 169916, Note_off_c, 2, 51, 80
4, 169916, Note_off_c, 2, 56, 80
4, 169916, Note_off_c, 2, 61, 80
4, 169916, Note_off_c, 2, 63, 80
4, 169920, Note_on_c, 2, 44, 84
4, 169920, Note_on_c, 2, 51, 84
4, 169920, Note_on_c, 2, 56, 84
4, 169920, Note_on_c, 2, 60, 84
4, 169920, Note_on_c, 2, 63, 84
4, 170876, Note_off_c, 2, 44, 80
4, 170876, Note_off_c, 2, 51, 80
4, 170876, Note_off_c, 2, 56, 80
4, 170876, Note_off_c, 2, 60, 80
4, 170876, Note_off_c, 2, 63, 80
4, 170880, Note_on_c, 2, 49, 84
4, 170880, Note_on_c, 2, 56, 84
4, 170880, Note_on_c, 2, 61, 84
4, 170880, Note_on_c, 2, 65, 84
4, 171596, Note_off_c, 2, 49, 80
4, 171596, Note_off_c, 2, 56, 80
4, 171596, Note_off_c, 2, 61, 80
4, 171596, Note_off_c, 2, 65, 80
4, 171600, Note_on_c, 2, 49, 84
4, 171600, Note_on_c, 2, 56, 84
4, 171600, Note_on_c, 2, 61, 84
4, 171600, Note_on_c, 2, 65, 84
4, 171836, Note_off_c, 2, 49, 80
4, 171836, Note_off_c, 2, 56, 80
4, 171836, Note_off_c, 2, 61, 80
4, 171836, Note_off_c, 2, 65, 80
4, 171840, Note_on_c, 2, 49, 84
4, 171840, Note_on_c, 2, 56, 84
4, 171840, Note_on_c, 2, 61, 84
4, 171840, Note_on_c, 2, 65, 84
4, 172556, Note_off_c, 2, 49, 80
4, 172556, Note_off_c, 2, 56, 80
4, 172556, Note_off_c, 2, 61, 80
4, 172556, Note_off_c, 2, 65, 80
4, 172560, Note_on_c, 2, 49, 84
4, 172560, Note_on_c, 2, 56, 84
4, 172560, Note_on_c, 2, 61, 84
4, 172560, Note_on_c, 2, 65, 84
4, 173036, Note_off_c, 2, 49, 80
4, 173036, Note_off_c, 2, 56, 80
4, 173036, Note_off_c, 2, 61, 80
4, 173036, Note_off_c, 2, 65, 80
4, 173040, Note_on_c, 2, 49, 84
4, 173040, Note_on_c, 2, 56, 84
4, 173040, Note_on_c, 2, 61, 84
4, 173040, Note_on_c, 2, 65, 84
4, 173516, Note_off_c, 2, 49, 80
4, 173516, Note_off_c, 2, 56, 80
4, 173516, Note_off_c, 2, 61, 80
4, 173516, Note_off_c, 2, 65, 80
4, 173520, Note_on_c, 2, 49, 84
4, 173520, Note_on_c, 2, 56, 84
4, 173520, Note_on_c, 2, 61, 84
4, 173520, Note_on_c, 2, 65, 84
4, 173756, Note_off_c, 2, 49, 80
4, 173756, Note_off_c, 2, 56, 80
4, 173756, Note_off_c, 2, 61, 80
4, 173756, Note_off_c, 2, 65, 80
4, 173760, Note_on_c, 2, 49, 84
4, 173760, Note_on_c, 2, 56, 84
4, 173760, Note_on_c, 2, 61, 84
4, 173760, Note_on_c, 2, 65, 84
4, 174716, Note_off_c, 2, 49, 80
4, 174716, Note_off_c, 2, 56, 80
4, 174716, Note_off_c, 2, 61, 80
4, 174716, Note_off_c, 2, 65, 80
4, 174720, Note_on_c, 2, 42, 84
4, 174720, Note_on_c, 2, 49, 84
4, 174720, Note_on_c, 2, 54, 84
4, 174720, Note_on_c, 2, 58, 84
4, 174720, Note_on_c, 2, 61, 84
4, 175436, Note_off_c, 2, 42, 80
4, 175436, Note_off_c, 2, 49, 80
4, 175436, Note_off_c, 2, 54, 80
4, 175436, Note_off_c, 2, 58, 80
4, 175436, Note_off_c, 2, 61, 80
4, 175440, Note_on_c, 2, 42, 84
4, 175440, Note_on_c, 2, 49, 84
4, 175440, Note_on_c, 2, 54, 84
4, 175440, Note_on_c, 2, 58, 84
4, 175440, Note_on_c, 2, 61, 84
4, 175676, Note_off_c, 2, 42, 80
4, 175676, Note_off_c, 2, 49, 80
4, 175676, Note_off_c, 2, 54, 80
4, 175676, Note_off_c, 2, 58, 80
4, 175676, Note_off_c, 2, 61, 80
4, 175680, Note_on_c, 2, 42, 84
4, 175680, Note_on_c, 2, 49, 84
4, 175680, Note_on_c, 2, 54, 84
4, 175680, Note_on_c, 2, 58, 84
4, 175680, Note_on_c, 2, 61, 84
4, 176396, Note_off_c, 2, 42, 80
4, 176396, Note_off_c, 2, 49, 80
4, 176396, Note_off_c, 2, 54, 80
4, 176396, Note_off_c, 2, 58, 80
4, 176396, Note_off_c, 2, 61, 80
4, 176400, Note_on_c, 2, 42, 84
4, 176400, Note_on_c, 2, 49, 84
4, 176400, Note_on_c, 2, 54, 84
4, 176400, Note_on_c, 2, 58, 84
4, 176400, Note_on_c, 2, 61, 84
4, 176636, Note_off_c, 2, 42, 80
4, 176636, Note_off_c, 2, 49, 80
4, 176636, Note_off_c, 2, 54, 80
4, 176636, Note_off_c, 2, 58, 80
4, 176636, Note_off_c, 2, 61, 80
4, 176640, Note_on_c, 2, 41, 84
4, 176640, Note_on_c, 2, 49, 84
4, 176640, Note_on_c, 2, 53, 84
4, 176640, Note_on_c, 2, 56, 84
4, 176640, Note_on_c, 2, 61, 84
4, 177356, Note_off_c, 2, 41, 80
4, 177356, Note_off_c, 2, 49, 80
4, 177356, Note_off_c, 2, 53, 80
4, 177356, Note_off_c, 2, 56, 80
4, 177356, Note_off_c, 2, 61, 80
4, 177360, Note_on_c, 2, 41, 84
4, 177360, Note_on_c, 2, 49, 84
4, 177360, Note_on_c, 2, 53, 84
4, 177360, Note_on_c, 2, 56, 84
4, 177360, Note_on_c, 2, 61, 84
4, 177596, Note_off_c, 2, 41, 80
4, 177596, Note_off_c, 2, 49, 80
4, 177596, Note_off_c, 2, 53, 80
4, 177596, Note_off_c, 2, 56, 80
4, 177596, Note_off_c, 2, 61, 80
4, 177600, Note_on_c, 2, 41, 84
4, 177600, Note_on_c, 2, 49, 84
4, 177600, Note_on_c, 2, 53, 84
4, 177600, Note_on_c, 2, 56, 84
4, 177600, Note_on_c, 2, 61, 84
4, 178316, Note_off_c, 2, 41, 80
4, 178316, Note_off_c, 2, 49, 80
4, 178316, Note_off_c, 2, 53, 80
4, 178316, Note_off_c, 2, 56, 80
4, 178316, Note_off_c, 2, 61, 80
4, 178320, Note_on_c, 2, 41, 84
4, 178320, Note_on_c, 2, 49, 84
4, 178320, Note_on_c, 2, 53, 84
4, 178320, Note_on_c, 2, 56, 84
4, 178320, Note_on_c, 2, 61, 84
4, 178556, Note_off_c, 2, 41, 80
4, 178556, Note_off_c, 2, 49, 80
4, 178556, Note_off_c, 2, 53, 80
4, 178556, Note_off_c, 2, 56, 80
4, 178556, Note_off_c, 2, 61, 80
4, 178560, Note_on_c, 2, 49, 84
4, 178560, Note_on_c, 2, 56, 84
4, 178560, Note_on_c, 2, 61, 84
4, 178560, Note_on_c, 2, 65, 84
4, 179276, Note_off_c, 2, 49, 80
4, 179276, Note_off_c, 2, 56, 80
4, 179276, Note_off_c, 2, 61, 80
4, 179276, Note_off_c, 2, 65, 80
4, 179280, Note_on_c, 2, 49, 84
4, 179280, Note_on_c, 2, 56, 84
4, 179280, Note_on_c, 2, 61, 84
4, 179280, Note_on_c, 2, 65, 84
4, 179516, Note_off_c, 2, 49, 80
4, 179516, Note_off_c, 2, 56, 80
4, 179516, Note_off_c, 2, 61, 80
4, 179516, Note_off_c, 2, 65, 80
4, 179520, Note_on_c, 2, 49, 84
4, 179520, Note_on_c, 2, 56, 84
4, 179520, Note_on_c, 2, 61, 84
4, 179520, Note_on_c, 2, 65, 84
4, 180236, Note_off_c, 2, 49, 80
4, 180236, Note_off_c, 2, 56, 80
4, 180236, Note_off_c, 2, 61, 80
4, 180236, Note_off_c, 2, 65, 80
4, 180240, Note_on_c, 2, 49, 84
4, 180240, Note_on_c, 2, 56, 84
4, 180240, Note_on_c, 2, 61, 84
4, 180240, Note_on_c, 2, 65, 84
4, 180716, Note_off_c, 2, 49, 80
4, 180716, Note_off_c, 2, 56, 80
4, 180716, Note_off_c, 2, 61, 80
4, 180716, Note_off_c, 2, 65, 80
4, 180720, Note_on_c, 2, 49, 84
4, 180720, Note_on_c, 2, 56, 84
4, 180720, Note_on_c, 2, 61, 84
4, 180720, Note_on_c, 2, 65, 84
4, 181196, Note_off_c, 2, 49, 80
4, 181196, Note_off_c, 2, 56, 80
4, 181196, Note_off_c, 2, 61, 80
4, 181196, Note_off_c, 2, 65, 80
4, 181200, Note_on_c, 2, 49, 84
4, 181200, Note_on_c, 2, 56, 84
4, 181200, Note_on_c, 2, 61, 84
4, 181200, Note_on_c, 2, 65, 84
4, 181436, Note_off_c, 2, 49, 80
4, 181436, Note_off_c, 2, 56, 80
4, 181436, Note_off_c, 2, 61, 80
4, 181436, Note_off_c, 2, 65, 80
4, 181440, Note_on_c, 2, 49, 84
4, 181440, Note_on_c, 2, 56, 84
4, 181440, Note_on_c, 2, 61, 84
4, 181440, Note_on_c, 2, 65, 84
4, 182396, Note_off_c, 2, 49, 80
4, 182396, Note_off_c, 2, 56, 80
4, 182396, Note_off_c, 2, 61, 80
4, 182396, Note_off_c, 2, 65, 80
4, 182400, Note_on_c, 2, 42, 84
4, 182400, Note_on_c, 2, 49, 84
4, 182400, Note_on_c, 2, 54, 84
4, 182400, Note_on_c, 2, 58, 84
4, 182400, Note_on_c, 2, 61, 84
4, 183116, Note_off_c, 2, 42, 80
4, 183116, Note_off_c, 2, 49, 80
4, 183116, Note_off_c, 2, 54, 80
4, 183116, Note_off_c, 2, 58, 80
4, 183116, Note_off_c, 2, 61, 80
4, 183120, Note_on_c, 2, 42, 84
4, 183120, Note_on_c, 2, 49, 84
4, 183120, Note_on_c, 2, 54, 84
4, 183120, Note_on_c, 2, 58, 84
4, 183120, Note_on_c, 2, 61, 84
4, 183356, Note_off_c, 2, 42, 80
4, 183356, Note_off_c, 2, 49, 80
4, 183356, Note_off_c, 2, 54, 80
4, 183356, Note_off_c, 2, 58, 80
4, 183356, Note_off_c, 2, 61, 80
4, 183360, Note_on_c, 2, 42, 84
4, 183360, Note_on_c, 2, 49, 84
4, 183360, Note_on_c, 2, 54, 84
4, 183360, Note_on_c, 2, 58, 84
4, 183360, Note_on_c, 2, 61, 84
4, 184076, Note_off_c, 2, 42, 80
4, 184076, Note_off_c, 2, 49, 80
4, 184076, Note_off_c, 2, 54, 80
4, 184076, Note_off_c, 2, 58, 80
4, 184076, Note_off_c, 2, 61, 80
4, 184080, Note_on_c, 2, 42, 84
4, 184080, Note_on_c, 2, 49, 84
4, 184080, Note_on_c, 2, 54, 84
4, 184080, Note_on_c, 2, 58, 84
4, 184080, Note_on_c, 2, 61, 84
4, 184316, Note_off_c, 2, 42, 80
4, 184316, Note_off_c, 2, 49, 80
4, 184316, Note_off_c, 2, 54, 80
4, 184316, Note_off_c, 2, 58, 80
4, 184316, Note_off_c, 2, 61, 80
4, 184320, Note_on_c, 2, 41, 84
4, 184320, Note_on_c, 2, 49, 84
4, 184320, Note_on_c, 2, 53, 84
4, 184320, Note_on_c, 2, 56, 84
4, 184320, Note_on_c, 2, 61, 84
4, 185036, Note_off_c, 2, 41, 80
4, 185036, Note_off_c, 2, 49, 80
4, 185036, Note_off_c, 2, 53, 80
4, 185036, Note_off_c, 2, 56, 80
4, 185036, Note_off_c, 2, 61, 80
4, 185040, Note_on_c, 2, 41, 84
4, 185040, Note_on_c, 2, 49, 84
4, 185040, Note_on_c, 2, 53, 84
4, 185040, Note_on_c, 2, 56, 84
4, 185040, Note_on_c, 2, 61, 84
4, 185276, Note_off_c, 2, 41, 80
4, 185276, Note_off_c, 2, 49, 80
4, 185276, Note_off_c, 2, 53, 80
4, 185276, Note_off_c, 2, 56, 80
4, 185276, Note_off_c, 2, 61, 80
4, 185280, Note_on_c, 2, 41, 84
4, 185280, Note_on_c, 2, 49, 84
4, 185280, Note_on_c, 2, 53, 84
4, 185280, Note_on_c, 2, 56, 84
4, 185280, Note_on_c, 2, 61, 84
4, 185996, Note_off_c, 2, 41, 80
4, 185996, Note_off_c, 2, 49, 80
4, 185996, Note_off_c, 2, 53, 80
4, 185996, Note_off_c, 2, 56, 80
4, 185996, Note_off_c, 2, 61, 80
4, 186000, Note_on_c, 2, 41, 84
4, 186000, Note_on_c, 2, 49, 84
4, 186000, Note_on_c, 2, 53, 84
4, 186000, Note_on_c, 2, 56, 84
4, 186000, Note_on_c, 2, 61, 84
4, 186236, Note_off_c, 2, 41, 80
4, 186236, Note_off_c, 2, 49, 80
4, 186236, Note_off_c, 2, 53, 80
4, 186236, Note_off_c, 2, 56, 80
4, 186236, Note_off_c, 2, 61, 80
4, 186240, Note_on_c, 2, 49, 84
4, 186240, Note_on_c, 2, 56, 84
4, 186240, Note_on_c, 2, 61, 84
4, 186240, Note_on_c, 2, 65, 84
4, 186956, Note_off_c, 2, 49, 80
4, 186956, Note_off_c, 2, 56, 80
4, 186956, Note_off_c, 2, 61, 80
4, 186956, Note_off_c, 2, 65, 80
4, 186960, Note_on_c, 2, 49, 84
4, 186960, Note_on_c, 2, 56, 84
4, 186960, Note_on_c, 2, 61, 84
4, 186960, Note_on_c, 2, 65, 84
4, 187196, Note_off_c, 2, 49, 80
4, 187196, Note_off_c, 2, 56, 80
4, 187196, Note_off_c, 2, 61, 80
4, 187196, Note_off_c, 2, 65, 80
4, 187200, Note_on_c, 2, 49, 84
4, 187200, Note_on_c, 2, 56, 84
4, 187200, Note_on_c, 2, 61, 84
4, 187200, Note_on_c, 2, 65, 84
4, 187916, Note_off_c, 2, 49, 80
4, 187916, Note_off_c, 2, 56, 80
4, 187916, Note_off_c, 2, 61, 80
4, 187916, Note_off_c, 2, 65, 80
4, 187920, Note_on_c, 2, 49, 84
4, 187920, Note_on_c, 2, 56, 84
4, 187920, Note_on_c, 2, 61, 84
4, 187920, Note_on_c, 2, 65, 84
4, 188396, Note_off_c, 2, 49, 80
4, 188396, Note_off_c, 2, 56, 80
4, 188396, Note_off_c, 2, 61, 80
4, 188396, Note_off_c, 2, 65, 80
4, 188400, Note_on_c, 2, 49, 84
4, 188400, Note_on_c, 2, 56, 84
4, 188400, Note_on_c, 2, 61, 84
4, 188400, Note_on_c, 2, 65, 84
4, 188876, Note_off_c, 2, 49, 80
4, 188876, Note_off_c, 2, 56, 80
4, 188876, Note_off_c, 2, 61, 80
4, 188876, Note_off_c, 2, 65, 80
4, 188880, Note_on_c, 2, 49, 84
4, 188880, Note_on_c, 2, 56, 84
4, 188880, Note_on_c, 2, 61, 84
4, 188880, Note_on_c, 2, 65, 84
4, 189116, Note_off_c, 2, 49, 80
4, 189116, Note_off_c, 2, 56, 80
4, 189116, Note_off_c, 2, 61, 80
4, 189116, Note_off_c, 2, 65, 80
4, 189120, Note_on_c, 2, 49, 84
4, 189120, Note_on_c, 2, 56, 84
4, 189120, Note_on_c, 2, 61, 84
4, 189120, Note_on_c, 2, 65, 84
4, 190076, Note_off_c, 2, 49, 80
4, 190076, Note_off_c, 2, 56, 80
4, 190076, Note_off_c, 2, 61, 80
4, 190076, Note_off_c, 2, 65, 80
4, 190080, Note_on_c, 2, 61, 84
4, 190080, Note_on_c, 2, 73, 84
4, 190796, Note_off_c, 2, 61, 80
4, 190796, Note_off_c, 2, 73, 80
4, 190800, Note_on_c, 2, 61, 84
4, 190800, Note_on_c, 2, 73, 84
4, 191036, Note_off_c, 2, 61, 80
4, 191036, Note_off_c, 2, 73, 80
4, 191040, Note_on_c, 2, 61, 84
4, 191040, Note_on_c, 2, 73, 84
4, 191276, Note_off_c, 2, 61, 80
4, 191276, Note_off_c, 2, 73, 80
4, 191280, Note_on_c, 2, 61, 84
4, 191280, Note_on_c, 2, 73, 84
4, 191756, Note_off_c, 2, 61, 80
4, 191756, Note_off_c, 2, 73, 80
4, 191760, Note_on_c, 2, 61, 84
4, 191760, Note_on_c, 2, 73, 84
4, 191996, Note_off_c, 2, 61, 80
4, 191996, Note_off_c, 2, 73, 80
4, 192000, Note_on_c, 2, 61, 84
4, 192000, Note_on_c, 2, 73, 84
4, 192236, Note_off_c, 2, 61, 80
4, 192236, Note_off_c, 2, 73, 80
4, 192240, Note_on_c, 2, 61, 84
4, 192240, Note_on_c, 2, 73, 84
4, 192476, Note_off_c, 2, 61, 80
4, 192476, Note_off_c, 2, 73, 80
4, 192480, Note_on_c, 2, 61, 84
4, 192480, Note_on_c, 2, 73, 84
4, 192716, Note_off_c, 2, 61, 80
4, 192716, Note_off_c, 2, 73, 80
4, 192720, Note_on_c, 2, 61, 84
4, 192720, Note_on_c, 2, 73, 84
4, 193676, Note_off_c, 2, 61, 80
4, 193676, Note_off_c, 2, 73, 80
4, 193680, Note_on_c, 2, 61, 84
4, 193680, Note_on_c, 2, 73, 84
4, 193916, Note_off_c, 2, 61, 80
4, 193916, Note_off_c, 2, 73, 80
4, 193920, Note_on_c, 2, 61, 84
4, 193920, Note_on_c, 2, 73, 84
4, 194636, Note_off_c, 2, 61, 80
4, 194636, Note_off_c, 2, 73, 80
4, 194640, Note_on_c, 2, 61, 84
4, 194640, Note_on_c, 2, 73, 84
4, 194876, Note_off_c, 2, 61, 80
4, 194876, Note_off_c, 2, 73, 80
4, 194880, Note_on_c, 2, 61, 84
4, 194880, Note_on_c, 2, 73, 84
4, 195116, Note_off_c, 2, 61, 80
4, 195116, Note_off_c, 2, 73, 80
4, 195120, Note_on_c, 2, 61, 84
4, 195120, Note_on_c, 2, 73, 84
4, 195596, Note_off_c, 2, 61, 80
4, 195596, Note_off_c, 2, 73, 80
4, 195600, Note_on_c, 2, 61, 84
4, 195600, Note_on_c, 2, 73, 84
4, 195836, Note_off_c, 2, 61, 80
4, 195836, Note_off_c, 2, 73, 80
4, 195840, Note_on_c, 2, 61, 84
4, 195840, Note_on_c, 2, 73, 84
4, 196076, Note_off_c, 2, 61, 80
4, 196076, Note_off_c, 2, 73, 80
4, 196080, Note_on_c, 2, 61, 84
4, 196080, Note_on_c, 2, 73, 84
4, 196316, Note_off_c, 2, 61, 80
4, 196316, Note_off_c, 2, 73, 80
4, 196320, Note_on_c, 2, 61, 84
4, 196320, Note_on_c, 2, 73, 84
4, 196556, Note_off_c, 2, 61, 80
4, 196556, Note_off_c, 2, 73, 80
4, 196560, Note_on_c, 2, 61, 84
4, 196560, Note_on_c, 2, 73, 84
4, 197516, Note_off_c, 2, 61, 80
4, 197516, Note_off_c, 2, 73, 80
4, 197520, Note_on_c, 2, 61, 84
4, 197520, Note_on_c, 2, 73, 84
4, 197756, Note_off_c, 2, 61, 80
4, 197756, Note_off_c, 2, 73, 80
4, 197760, Note_on_c, 2, 71, 84
4, 197760, Note_on_c, 2, 77, 84
4, 198476, Note_off_c, 2, 71, 80
4, 198476, Note_off_c, 2, 77, 80
4, 198480, Note_on_c, 2, 71, 84
4, 198480, Note_on_c, 2, 75, 84
4, 199196, Note_off_c, 2, 71, 80
4, 199196, Note_off_c, 2, 75, 80
4, 199200, Note_on_c, 2, 61, 84
4, 199200, Note_on_c, 2, 73, 84
4, 199676, Note_off_c, 2, 61, 80
4, 199676, Note_off_c, 2, 73, 80
4, 199680, Note_on_c, 2, 61, 84
4, 199680, Note_on_c, 2, 73, 84
4, 199916, Note_off_c, 2, 61, 80
4, 199916, Note_off_c, 2, 73, 80
4, 199920, Note_on_c, 2, 61, 84
4, 199920, Note_on_c, 2, 73, 84
4, 200156, Note_off_c, 2, 61, 80
4, 200156, Note_off_c, 2, 73, 80
4, 200160, Note_on_c, 2, 61, 84
4, 200160, Note_on_c, 2, 73, 84
4, 200396, Note_off_c, 2, 61, 80
4, 200396, Note_off_c, 2, 73, 80
4, 200400, Note_on_c, 2, 61, 84
4, 200400, Note_on_c, 2, 73, 84
4, 201356, Note_off_c, 2, 61, 80
4, 201356, Note_off_c, 2, 73, 80
4, 201360, Note_on_c, 2, 61, 84
4, 201360, Note_on_c, 2, 73, 84
4, 201596, Note_off_c, 2, 61, 80
4, 201596, Note_off_c, 2, 73, 80
4, 201600, Note_on_c, 2, 61, 84
4, 201600, Note_on_c, 2, 73, 84
4, 202316, Note_off_c, 2, 61, 80
4, 202316, Note_off_c, 2, 73, 80
4, 202320, Note_on_c, 2, 61, 84
4, 202320, Note_on_c, 2, 73, 84
4, 202556, Note_off_c, 2, 61, 80
4, 202556, Note_off_c, 2, 73, 80
4, 202560, Note_on_c, 2, 61, 84
4, 202560, Note_on_c, 2, 73, 84
4, 202796, Note_off_c, 2, 61, 80
4, 202796, Note_off_c, 2, 73, 80
4, 202800, Note_on_c, 2, 61, 84
4, 202800, Note_on_c, 2, 73, 84
4, 203276, Note_off_c, 2, 61, 80
4, 203276, Note_off_c, 2, 73, 80
4, 203280, Note_on_c, 2, 70, 84
4, 203280, Note_on_c, 2, 82, 84
4, 203516, Note_off_c, 2, 70, 80
4, 203516, Note_off_c, 2, 82, 80
4, 203520, Note_on_c, 2, 70, 84
4, 203520, Note_on_c, 2, 82, 84
4, 203756, Note_off_c, 2, 70, 80
4, 203756, Note_off_c, 2, 82, 80
4, 203760, Note_on_c, 2, 68, 84
4, 203760, Note_on_c, 2, 80, 84
4, 203996, Note_off_c, 2, 68, 80
4, 203996, Note_off_c, 2, 80, 80
4, 204000, Note_on_c, 2, 68, 84
4, 204000, Note_on_c, 2, 80, 84
4, 204236, Note_off_c, 2, 68, 80
4, 204236, Note_off_c, 2, 80, 80
4, 204240, Note_on_c, 2, 70, 84
4, 204240, Note_on_c, 2, 82, 84
4, 204476, Note_off_c, 2, 70, 80
4, 204476, Note_off_c, 2, 82, 80
4, 204480, Note_on_c, 2, 70, 84
4, 204480, Note_on_c, 2, 82, 84
4, 204716, Note_off_c, 2, 70, 80
4, 204716, Note_off_c, 2, 82, 80
4, 204720, Note_on_c, 2, 61, 84
4, 204720, Note_on_c, 2, 73, 84
4, 204956, Note_off_c, 2, 61, 80
4, 204956, Note_off_c, 2, 73, 80
4, 204960, Note_on_c, 2, 61, 84
4, 204960, Note_on_c, 2, 73, 84
4, 205436, Note_off_c, 2, 61, 80
4, 205436, Note_off_c, 2, 73, 80
4, 205440, Control_c, 2, 7, 104
4, 205440, Note_on_c, 2, 72, 84
4, 205440, Note_on_c, 2, 77, 84
4, 205676, Note_off_c, 2, 72, 80
4, 205676, Note_off_c, 2, 77, 80
4, 205680, Note_on_c, 2, 72, 84
4, 205680, Note_on_c, 2, 77, 84
4, 205916, Note_off_c, 2, 72, 80
4, 205916, Note_off_c, 2, 77, 80
4, 205920, Note_on_c, 2, 72, 84
4, 205920, Note_on_c, 2, 77, 84
4, 206156, Note_off_c, 2, 72, 80
4, 206156, Note_off_c, 2, 77, 80
4, 206160, Note_on_c, 2, 72, 84
4, 206160, Note_on_c, 2, 77, 84
4, 206636, Note_off_c, 2, 72, 80
4, 206636, Note_off_c, 2, 77, 80
4, 206640, Note_on_c, 2, 72, 84
4, 206640, Note_on_c, 2, 77, 84
4, 206876, Note_off_c, 2, 72, 80
4, 206876, Note_off_c, 2, 77, 80
4, 206880, Note_on_c, 2, 72, 84
4, 206880, Note_on_c, 2, 77, 84
4, 207116, Note_off_c, 2, 72, 80
4, 207116, Note_off_c, 2, 77, 80
4, 207120, Note_on_c, 2, 72, 84
4, 207120, Note_on_c, 2, 77, 84
4, 207356, Note_off_c, 2, 72, 80
4, 207356, Note_off_c, 2, 77, 80
4, 207360, Note_on_c, 2, 72, 84
4, 207360, Note_on_c, 2, 75, 84
4, 207596, Note_off_c, 2, 72, 80
4, 207596, Note_off_c, 2, 75, 80
4, 207840, Note_on_c, 2, 72, 84
4, 207840, Note_on_c, 2, 75, 84
4, 208076, Note_off_c, 2, 72, 80
4, 208076, Note_off_c, 2, 75, 80
4, 208320, Note_on_c, 2, 72, 84
4, 208320, Note_on_c, 2, 75, 84
4, 208556, Note_off_c, 2, 72, 80
4, 208556, Note_off_c, 2, 75, 80
4, 209280, Note_on_c, 2, 72, 84
4, 209280, Note_on_c, 2, 75, 84
4, 209516, Note_off_c, 2, 72, 80
4, 209516, Note_off_c, 2, 75, 80
4, 209520, Note_on_c, 2, 72, 84
4, 209520, Note_on_c, 2, 75, 84
4, 209756, Note_off_c, 2, 72, 80
4, 209756, Note_off_c, 2, 75, 80
4, 209760, Note_on_c, 2, 72, 84
4, 209760, Note_on_c, 2, 75, 84
4, 209996, Note_off_c, 2, 72, 80
4, 209996, Note_off_c, 2, 75, 80
4, 210000, Note_on_c, 2, 72, 84
4, 210000, Note_on_c, 2, 75, 84
4, 210476, Note_off_c, 2, 72, 80
4, 210476, Note_off_c, 2, 75, 80
4, 210480, Note_on_c, 2, 72, 84
4, 210480, Note_on_c, 2, 75, 84
4, 210716, Note_off_c, 2, 72, 80
4, 210716, Note_off_c, 2, 75, 80
4, 210720, Note_on_c, 2, 72, 84
4, 210720, Note_on_c, 2, 75, 84
4, 211196, Note_off_c, 2, 72, 80
4, 211196, Note_off_c, 2, 75, 80
4, 211200, Note_on_c, 2, 70, 84
4, 211200, Note_on_c, 2, 73, 84
4, 211436, Note_off_c, 2, 70, 80
4, 211436, Note_off_c, 2, 73, 80
4, 211680, Note_on_c, 2, 70, 84
4, 211680, Note_on_c, 2, 73, 84
4, 211916, Note_off_c, 2, 70, 80
4, 211916, Note_off_c, 2, 73, 80
4, 212160, Note_on_c, 2, 70, 84
4, 212160, Note_on_c, 2, 73, 84
4, 212396, Note_off_c, 2, 70, 80
4, 212396, Note_off_c, 2, 73, 80
4, 213120, Note_on_c, 2, 70, 84
4, 213120, Note_on_c, 2, 73, 84
4, 213356, Note_off_c, 2, 70, 80
4, 213356, Note_off_c, 2, 73, 80
4, 213360, Note_on_c, 2, 70, 84
4, 213360, Note_on_c, 2, 73, 84
4, 213596, Note_off_c, 2, 70, 80
4, 213596, Note_off_c, 2, 73, 80
4, 213600, Note_on_c, 2, 70, 84
4, 213600, Note_on_c, 2, 73, 84
4, 213836, Note_off_c, 2, 70, 80
4, 213836, Note_off_c, 2, 73, 80
4, 213840, Note_on_c, 2, 70, 84
4, 213840, Note_on_c, 2, 73, 84
4, 214316, Note_off_c, 2, 70, 80
4, 214316, Note_off_c, 2, 73, 80
4, 214320, Note_on_c, 2, 70, 84
4, 214320, Note_on_c, 2, 73, 84
4, 214556, Note_off_c, 2, 70, 80
4, 214556, Note_off_c, 2, 73, 80
4, 214560, Note_on_c, 2, 70, 84
4, 214560, Note_on_c, 2, 73, 84
4, 215036, Note_off_c, 2, 70, 80
4, 215036, Note_off_c, 2, 73, 80
4, 215040, Note_on_c, 2, 68, 84
4, 215040, Note_on_c, 2, 72, 84
4, 215276, Note_off_c, 2, 68, 80
4, 215276, Note_off_c, 2, 72, 80
4, 215520, Note_on_c, 2, 68, 84
4, 215520, Note_on_c, 2, 72, 84
4, 215756, Note_off_c, 2, 68, 80
4, 215756, Note_off_c, 2, 72, 80
4, 216000, Note_on_c, 2, 68, 84
4, 216000, Note_on_c, 2, 72, 84
4, 216236, Note_off_c, 2, 68, 80
4, 216236, Note_off_c, 2, 72, 80
4, 216960, Control_c, 2, 7, 56
4, 216960, Note_on_c, 2, 46, 84
4, 216960, Note_on_c, 2, 53, 84
4, 216960, Note_on_c, 2, 58, 84
4, 216960, Note_on_c, 2, 61, 84
4, 217436, Note_off_c, 2, 46, 80
4, 217436, Note_off_c, 2, 53, 80
4, 217436, Note_off_c, 2, 58, 80
4, 217436, Note_off_c, 2, 61, 80
4, 217440, Note_on_c, 2, 46, 84
4, 217440, Note_on_c, 2, 53, 84
4, 217440, Note_on_c, 2, 58, 84
4, 217440, Note_on_c, 2, 61, 84
4, 217916, Note_off_c, 2, 46, 80
4, 217916, Note_off_c, 2, 53, 80
4, 217916, Note_off_c, 2, 58, 80
4, 217916, Note_off_c, 2, 61, 80
4, 217920, Note_on_c, 2, 46, 84
4, 217920, Note_on_c, 2, 53, 84
4, 217920, Note_on_c, 2, 58, 84
4, 217920, Note_on_c, 2, 61, 84
4, 218396, Note_off_c, 2, 46, 80
4, 218396, Note_off_c, 2, 53, 80
4, 218396, Note_off_c, 2, 58, 80
4, 218396, Note_off_c, 2, 61, 80
4, 218400, Note_on_c, 2, 46, 84
4, 218400, Note_on_c, 2, 53, 84
4, 218400, Note_on_c, 2, 58, 84
4, 218400, Note_on_c, 2, 61, 84
4, 218876, Note_off_c, 2, 46, 80
4, 218876, Note_off_c, 2, 53, 80
4, 218876, Note_off_c, 2, 58, 80
4, 218876, Note_off_c, 2, 61, 80
4, 218880, Note_on_c, 2, 53, 84
4, 218880, Note_on_c, 2, 56, 84
4, 218880, Note_on_c, 2, 60, 84
4, 218880, Note_on_c, 2, 65, 84
4, 219356, Note_off_c, 2, 53, 80
4, 219356, Note_off_c, 2, 56, 80
4, 219356, Note_off_c, 2, 60, 80
4, 219356, Note_off_c, 2, 65, 80
4, 219360, Note_on_c, 2, 53, 84
4, 219360, Note_on_c, 2, 56, 84
4, 219360, Note_on_c, 2, 60, 84
4, 219360, Note_on_c, 2, 65, 84
4, 219836, Note_off_c, 2, 53, 80
4, 219836, Note_off_c, 2, 56, 80
4, 219836, Note_off_c, 2, 60, 80
4, 219836, Note_off_c, 2, 65, 80
4, 219840, Note_on_c, 2, 53, 84
4, 219840, Note_on_c, 2, 56, 84
4, 219840, Note_on_c, 2, 60, 84
4, 219840, Note_on_c, 2, 65, 84
4, 220316, Note_off_c, 2, 53, 80
4, 220316, Note_off_c, 2, 56, 80
4, 220316, Note_off_c, 2, 60, 80
4, 220316, Note_off_c, 2, 65, 80
4, 220320, Note_on_c, 2, 53, 84
4, 220320, Note_on_c, 2, 56, 84
4, 220320, Note_on_c, 2, 60, 84
4, 220320, Note_on_c, 2, 65, 84
4, 220796, Note_off_c, 2, 53, 80
4, 220796, Note_off_c, 2, 56, 80
4, 220796, Note_off_c, 2, 60, 80
4, 220796, Note_off_c, 2, 65, 80
4, 220800, Note_on_c, 2, 44, 84
4, 220800, Note_on_c, 2, 51, 84
4, 220800, Note_on_c, 2, 56, 84
4, 221276, Note_off_c, 2, 44, 80
4, 221276, Note_off_c, 2, 51, 80
4, 221276, Note_off_c, 2, 56, 80
4, 221280, Note_on_c, 2, 44, 84
4, 221280, Note_on_c, 2, 51, 84
4, 221280, Note_on_c, 2, 56, 84
4, 221280, Note_on_c, 2, 60, 84
4, 221280, Note_on_c, 2, 63, 84
4, 221756, Note_off_c, 2, 44, 80
4, 221756, Note_off_c, 2, 51, 80
4, 221756, Note_off_c, 2, 56, 80
4, 221756, Note_off_c, 2, 60, 80
4, 221756, Note_off_c, 2, 63, 80
4, 221760, Note_on_c, 2, 44, 84
4, 221760, Note_on_c, 2, 51, 84
4, 221760, Note_on_c, 2, 56, 84
4, 221760, Note_on_c, 2, 60, 84
4, 221760, Note_on_c, 2, 63, 84
4, 222476, Note_off_c, 2, 44, 80
4, 222476, Note_off_c, 2, 51, 80
4, 222476, Note_off_c, 2, 56, 80
4, 222476, Note_off_c, 2, 60, 80
4, 222476, Note_off_c, 2, 63, 80
4, 222480, Note_on_c, 2, 44, 84
4, 222480, Note_on_c, 2, 51, 84
4, 222480, Note_on_c, 2, 56, 84
4, 222480, Note_on_c, 2, 61, 84
4, 222480, Note_on_c, 2, 63, 84
4, 222956, Note_off_c, 2, 44, 80
4, 222956, Note_off_c, 2, 51, 80
4, 222956, Note_off_c, 2, 56, 80
4, 222956, Note_off_c, 2, 61, 80
4, 222956, Note_off_c, 2, 63, 80
4, 222960, Note_on_c, 2, 44, 84
4, 222960, Note_on_c, 2, 51, 84
4, 222960, Note_on_c, 2, 56, 84
4, 222960, Note_on_c, 2, 60, 84
4, 222960, Note_on_c, 2, 63, 84
4, 223196, Note_off_c, 2, 44, 80
4, 223196, Note_off_c, 2, 51, 80
4, 223196, Note_off_c, 2, 56, 80
4, 223196, Note_off_c, 2, 60, 80
4, 223196, Note_off_c, 2, 63, 80
4, 223200, Note_on_c, 2, 44, 84
4, 223200, Note_on_c, 2, 51, 84
4, 223200, Note_on_c, 2, 56, 84
4, 223200, Note_on_c, 2, 61, 84
4, 223200, Note_on_c, 2, 63, 84
4, 223676, Note_off_c, 2, 44, 80
4, 223676, Note_off_c, 2, 51, 80
4, 223676, Note_off_c, 2, 56, 80
4, 223676, Note_off_c, 2, 61, 80
4, 223676, Note_off_c, 2, 63, 80
4, 223680, Note_on_c, 2, 44, 84
4, 223680, Note_on_c, 2, 51, 84
4, 223680, Note_on_c, 2, 56, 84
4, 223680, Note_on_c, 2, 60, 84
4, 223680, Note_on_c, 2, 63, 84
4, 224636, Note_off_c, 2, 44, 80
4, 224636, Note_off_c, 2, 51, 80
4, 224636, Note_off_c, 2, 56, 80
4, 224636, Note_off_c, 2, 60, 80
4, 224636, Note_off_c, 2, 63, 80
4, 224640, Note_on_c, 2, 49, 84
4, 224640, Note_on_c, 2, 56, 84
4, 224640, Note_on_c, 2, 61, 84
4, 224640, Note_on_c, 2, 65, 84
4, 225356, Note_off_c, 2, 49, 80
4, 225356, Note_off_c, 2, 56, 80
4, 225356, Note_off_c, 2, 61, 80
4, 225356, Note_off_c, 2, 65, 80
4, 225360, Note_on_c, 2, 49, 84
4, 225360, Note_on_c, 2, 56, 84
4, 225360, Note_on_c, 2, 61, 84
4, 225360, Note_on_c, 2, 65, 84
4, 225596, Note_off_c, 2, 49, 80
4, 225596, Note_off_c, 2, 56, 80
4, 225596, Note_off_c, 2, 61, 80
4, 225596, Note_off_c, 2, 65, 80
4, 225600, Note_on_c, 2, 49, 84
4, 225600, Note_on_c, 2, 56, 84
4, 225600, Note_on_c, 2, 61, 84
4, 225600, Note_on_c, 2, 65, 84
4, 226316, Note_off_c, 2, 49, 80
4, 226316, Note_off_c, 2, 56, 80
4, 226316, Note_off_c, 2, 61, 80
4, 226316, Note_off_c, 2, 65, 80
4, 226320, Note_on_c, 2, 49, 84
4, 226320, Note_on_c, 2, 56, 84
4, 226320, Note_on_c, 2, 61, 84
4, 226320, Note_on_c, 2, 65, 84
4, 226796, Note_off_c, 2, 49, 80
4, 226796, Note_off_c, 2, 56, 80
4, 226796, Note_off_c, 2, 61, 80
4, 226796, Note_off_c, 2, 65, 80
4, 226800, Note_on_c, 2, 49, 84
4, 226800, Note_on_c, 2, 56, 84
4, 226800, Note_on_c, 2, 61, 84
4, 226800, Note_on_c, 2, 65, 84
4, 227276, Note_off_c, 2, 49, 80
4, 227276, Note_off_c, 2, 56, 80
4, 227276, Note_off_c, 2, 61, 80
4, 227276, Note_off_c, 2, 65, 80
4, 227280, Note_on_c, 2, 49, 84
4, 227280, Note_on_c, 2, 56, 84
4, 227280, Note_on_c, 2, 61, 84
4, 227280, Note_on_c, 2, 65, 84
4, 227516, Note_off_c, 2, 49, 80
4, 227516, Note_off_c, 2, 56, 80
4, 227516, Note_off_c, 2, 61, 80
4, 227516, Note_off_c, 2, 65, 80
4, 227520, Note_on_c, 2, 49, 84
4, 227520, Note_on_c, 2, 56, 84
4, 227520, Note_on_c, 2, 61, 84
4, 227520, Note_on_c, 2, 65, 84
4, 228476, Note_off_c, 2, 49, 80
4, 228476, Note_off_c, 2, 56, 80
4, 228476, Note_off_c, 2, 61, 80
4, 228476, Note_off_c, 2, 65, 80
4, 228480, Note_on_c, 2, 44, 84
4, 228480, Note_on_c, 2, 51, 84
4, 228480, Note_on_c, 2, 56, 84
4, 228956, Note_off_c, 2, 44, 80
4, 228956, Note_off_c, 2, 51, 80
4, 228956, Note_off_c, 2, 56, 80
4, 228960, Note_on_c, 2, 44, 84
4, 228960, Note_on_c, 2, 51, 84
4, 228960, Note_on_c, 2, 56, 84
4, 228960, Note_on_c, 2, 60, 84
4, 228960, Note_on_c, 2, 63, 84
4, 229436, Note_off_c, 2, 44, 80
4, 229436, Note_off_c, 2, 51, 80
4, 229436, Note_off_c, 2, 56, 80
4, 229436, Note_off_c, 2, 60, 80
4, 229436, Note_off_c, 2, 63, 80
4, 229440, Note_on_c, 2, 44, 84
4, 229440, Note_on_c, 2, 51, 84
4, 229440, Note_on_c, 2, 56, 84
4, 229440, Note_on_c, 2, 60, 84
4, 229440, Note_on_c, 2, 63, 84
4, 230156, Note_off_c, 2, 44, 80
4, 230156, Note_off_c, 2, 51, 80
4, 230156, Note_off_c, 2, 56, 80
4, 230156, Note_off_c, 2, 60, 80
4, 230156, Note_off_c, 2, 63, 80
4, 230160, Note_on_c, 2, 44, 84
4, 230160, Note_on_c, 2, 51, 84
4, 230160, Note_on_c, 2, 56, 84
4, 230160, Note_on_c, 2, 61, 84
4, 230160, Note_on_c, 2, 63, 84
4, 230636, Note_off_c, 2, 44, 80
4, 230636, Note_off_c, 2, 51, 80
4, 230636, Note_off_c, 2, 56, 80
4, 230636, Note_off_c, 2, 61, 80
4, 230636, Note_off_c, 2, 63, 80
4, 230640, Note_on_c, 2, 44, 84
4, 230640, Note_on_c, 2, 51, 84
4, 230640, Note_on_c, 2, 56, 84
4, 230640, Note_on_c, 2, 60, 84
4, 230640, Note_on_c, 2, 63, 84
4, 230876, Note_off_c, 2, 44, 80
4, 230876, Note_off_c, 2, 51, 80
4, 230876, Note_off_c, 2, 56, 80
4, 230876, Note_off_c, 2, 60, 80
4, 230876, Note_off_c, 2, 63, 80
4, 230880, Note_on_c, 2, 44, 84
4, 230880, Note_on_c, 2, 51, 84
4, 230880, Note_on_c, 2, 56, 84
4, 230880, Note_on_c, 2, 61, 84
4, 230880, Note_on_c, 2, 63, 84
4, 231356, Note_off_c, 2, 44, 80
4, 231356, Note_off_c, 2, 51, 80
4, 231356, Note_off_c, 2, 56, 80
4, 231356, Note_off_c, 2, 61, 80
4, 231356, Note_off_c, 2, 63, 80
4, 231360, Note_on_c, 2, 44, 84
4, 231360, Note_on_c, 2, 51, 84
4, 231360, Note_on_c, 2, 56, 84
4, 231360, Note_on_c, 2, 60, 84
4, 231360, Note_on_c, 2, 63, 84
4, 232316, Note_off_c, 2, 44, 80
4, 232316, Note_off_c, 2, 51, 80
4, 232316, Note_off_c, 2, 56, 80
4, 232316, Note_off_c, 2, 60, 80
4, 232316, Note_off_c, 2, 63, 80
4, 232320, Note_on_c, 2, 49, 84
4, 232320, Note_on_c, 2, 56, 84
4, 232320, Note_on_c, 2, 61, 84
4, 232320, Note_on_c, 2, 65, 84
4, 233036, Note_off_c, 2, 49, 80
4, 233036, Note_off_c, 2, 56, 80
4, 233036, Note_off_c, 2, 61, 80
4, 233036, Note_off_c, 2, 65, 80
4, 233040, Note_on_c, 2, 49, 84
4, 233040, Note_on_c, 2, 56, 84
4, 233040, Note_on_c, 2, 61, 84
4, 233040, Note_on_c, 2, 65, 84
4, 233276, Note_off_c, 2, 49, 80
4, 233276, Note_off_c, 2, 56, 80
4, 233276, Note_off_c, 2, 61, 80
4, 233276, Note_off_c, 2, 65, 80
4, 233280, Note_on_c, 2, 49, 84
4, 233280, Note_on_c, 2, 56, 84
4, 233280, Note_on_c, 2, 61, 84
4, 233280, Note_on_c, 2, 65, 84
4, 233996, Note_off_c, 2, 49, 80
4, 233996, Note_off_c, 2, 56, 80
4, 233996, Note_off_c, 2, 61, 80
4, 233996, Note_off_c, 2, 65, 80
4, 234000, Note_on_c, 2, 49, 84
4, 234000, Note_on_c, 2, 56, 84
4, 234000, Note_on_c, 2, 61, 84
4, 234000, Note_on_c, 2, 65, 84
4, 234476, Note_off_c, 2, 49, 80
4, 234476, Note_off_c, 2, 56, 80
4, 234476, Note_off_c, 2, 61, 80
4, 234476, Note_off_c, 2, 65, 80
4, 234480, Note_on_c, 2, 49, 84
4, 234480, Note_on_c, 2, 56, 84
4, 234480, Note_on_c, 2, 61, 84
4, 234480, Note_on_c, 2, 65, 84
4, 234956, Note_off_c, 2, 49, 80
4, 234956, Note_off_c, 2, 56, 80
4, 234956, Note_off_c, 2, 61, 80
4, 234956, Note_off_c, 2, 65, 80
4, 234960, Note_on_c, 2, 49, 84
4, 234960, Note_on_c, 2, 56, 84
4, 234960, Note_on_c, 2, 61, 84
4, 234960, Note_on_c, 2, 65, 84
4, 235196, Note_off_c, 2, 49, 80
4, 235196, Note_off_c, 2, 56, 80
4, 235196, Note_off_c, 2, 61, 80
4, 235196, Note_off_c, 2, 65, 80
4, 235200, Note_on_c, 2, 49, 84
4, 235200, Note_on_c, 2, 56, 84
4, 235200, Note_on_c, 2, 61, 84
4, 235200, Note_on_c, 2, 65, 84
4, 236156, Note_off_c, 2, 49, 80
4, 236156, Note_off_c, 2, 56, 80
4, 236156, Note_off_c, 2, 61, 80
4, 236156, Note_off_c, 2, 65, 80
4, 236160, Note_on_c, 2, 44, 84
4, 236160, Note_on_c, 2, 51, 84
4, 236160, Note_on_c, 2, 56, 84
4, 236636, Note_off_c, 2, 44, 80
4, 236636, Note_off_c, 2, 51, 80
4, 236636, Note_off_c, 2, 56, 80
4, 236640, Note_on_c, 2, 44, 84
4, 236640, Note_on_c, 2, 51, 84
4, 236640, Note_on_c, 2, 56, 84
4, 236640, Note_on_c, 2, 60, 84
4, 236640, Note_on_c, 2, 63, 84
4, 237116, Note_off_c, 2, 44, 80
4, 237116, Note_off_c, 2, 51, 80
4, 237116, Note_off_c, 2, 56, 80
4, 237116, Note_off_c, 2, 60, 80
4, 237116, Note_off_c, 2, 63, 80
4, 237120, Note_on_c, 2, 44, 84
4, 237120, Note_on_c, 2, 51, 84
4, 237120, Note_on_c, 2, 56, 84
4, 237120, Note_on_c, 2, 60, 84
4, 237120, Note_on_c, 2, 63, 84
4, 237836, Note_off_c, 2, 44, 80
4, 237836, Note_off_c, 2, 51, 80
4, 237836, Note_off_c, 2, 56, 80
4, 237836, Note_off_c, 2, 60, 80
4, 237836, Note_off_c, 2, 63, 80
4, 237840, Note_on_c, 2, 44, 84
4, 237840, Note_on_c, 2, 51, 84
4, 237840, Note_on_c, 2, 56, 84
4, 237840, Note_on_c, 2, 61, 84
4, 237840, Note_on_c, 2, 63, 84
4, 238316, Note_off_c, 2, 44, 80
4, 238316, Note_off_c, 2, 51, 80
4, 238316, Note_off_c, 2, 56, 80
4, 238316, Note_off_c, 2, 61, 80
4, 238316, Note_off_c, 2, 63, 80
4, 238320, Note_on_c, 2, 44, 84
4, 238320, Note_on_c, 2, 51, 84
4, 238320, Note_on_c, 2, 56, 84
4, 238320, Note_on_c, 2, 60, 84
4, 238320, Note_on_c, 2, 63, 84
4, 238556, Note_off_c, 2, 44, 80
4, 238556, Note_off_c, 2, 51, 80
4, 238556, Note_off_c, 2, 56, 80
4, 238556, Note_off_c, 2, 60, 80
4, 238556, Note_off_c, 2, 63, 80
4, 238560, Note_on_c, 2, 44, 84
4, 238560, Note_on_c, 2, 51, 84
4, 238560, Note_on_c, 2, 56, 84
4, 238560, Note_on_c, 2, 61, 84
4, 238560, Note_on_c, 2, 63, 84
4, 239036, Note_off_c, 2, 44, 80
4, 239036, Note_off_c, 2, 51, 80
4, 239036, Note_off_c, 2, 56, 80
4, 239036, Note_off_c, 2, 61, 80
4, 239036, Note_off_c, 2, 63, 80
4, 239040, Note_on_c, 2, 44, 84
4, 239040, Note_on_c, 2, 51, 84
4, 239040, Note_on_c, 2, 56, 84
4, 239040, Note_on_c, 2, 60, 84
4, 239040, Note_on_c, 2, 63, 84
4, 239996, Note_off_c, 2, 44, 80
4, 239996, Note_off_c, 2, 51, 80
4, 239996, Note_off_c, 2, 56, 80
4, 239996, Note_off_c, 2, 60, 80
4, 239996, Note_off_c, 2, 63, 80
4, 240000, Note_on_c, 2, 51, 84
4, 240000, Note_on_c, 2, 58, 84
4, 240000, Note_on_c, 2, 63, 84
4, 240000, Note_on_c, 2, 67, 84
4, 240716, Note_off_c, 2, 51, 80
4, 240716, Note_off_c, 2, 58, 80
4, 240716, Note_off_c, 2, 63, 80
4, 240716, Note_off_c, 2, 67, 80
4, 240720, Note_on_c, 2, 51, 84
4, 240720, Note_on_c, 2, 58, 84
4, 240720, Note_on_c, 2, 63, 84
4, 240720, Note_on_c, 2, 67, 84
4, 240956, Note_off_c, 2, 51, 80
4, 240956, Note_off_c, 2, 58, 80
4, 240956, Note_off_c, 2, 63, 80
4, 240956, Note_off_c, 2, 67, 80
4, 240960, Note_on_c, 2, 51, 84
4, 240960, Note_on_c, 2, 58, 84
4, 240960, Note_on_c, 2, 63, 84
4, 240960, Note_on_c, 2, 67, 84
4, 241676, Note_off_c, 2, 51, 80
4, 241676, Note_off_c, 2, 58, 80
4, 241676, Note_off_c, 2, 63, 80
4, 241676, Note_off_c, 2, 67, 80
4, 241680, Note_on_c, 2, 51, 84
4, 241680, Note_on_c, 2, 58, 84
4, 241680, Note_on_c, 2, 63, 84
4, 241680, Note_on_c, 2, 67, 84
4, 242156, Note_off_c, 2, 51, 80
4, 242156, Note_off_c, 2, 58, 80
4, 242156, Note_off_c, 2, 63, 80
4, 242156, Note_off_c, 2, 67, 80
4, 242160, Note_on_c, 2, 51, 84
4, 242160, Note_on_c, 2, 58, 84
4, 242160, Note_on_c, 2, 63, 84
4, 242160, Note_on_c, 2, 67, 84
4, 242636, Note_off_c, 2, 51, 80
4, 242636, Note_off_c, 2, 58, 80
4, 242636, Note_off_c, 2, 63, 80
4, 242636, Note_off_c, 2, 67, 80
4, 242640, Note_on_c, 2, 61, 84
4, 243116, Note_off_c, 2, 61, 80
4, 243120, Note_on_c, 2, 60, 84
4, 243356, Note_off_c, 2, 60, 80
4, 243360, Note_on_c, 2, 58, 84
4, 243836, Note_off_c, 2, 58, 80
4, 243840, Note_on_c, 2, 42, 84
4, 243840, Note_on_c, 2, 49, 84
4, 243840, Note_on_c, 2, 54, 84
4, 243840, Note_on_c, 2, 58, 84
4, 244076, Note_off_c, 2, 42, 80
4, 244076, Note_off_c, 2, 49, 80
4, 244076, Note_off_c, 2, 54, 80
4, 244076, Note_off_c, 2, 58, 80
4, 244080, Note_on_c, 2, 42, 84
4, 244080, Note_on_c, 2, 49, 84
4, 244080, Note_on_c, 2, 54, 84
4, 244080, Note_on_c, 2, 58, 84
4, 244316, Note_off_c, 2, 42, 80
4, 244316, Note_off_c, 2, 49, 80
4, 244316, Note_off_c, 2, 54, 80
4, 244316, Note_off_c, 2, 58, 80
4, 244320, Note_on_c, 2, 42, 84
4, 244320, Note_on_c, 2, 49, 84
4, 244320, Note_on_c, 2, 54, 84
4, 244320, Note_on_c, 2, 58, 84
4, 244556, Note_off_c, 2, 42, 80
4, 244556, Note_off_c, 2, 49, 80
4, 244556, Note_off_c, 2, 54, 80
4, 244556, Note_off_c, 2, 58, 80
4, 244560, Note_on_c, 2, 42, 84
4, 244560, Note_on_c, 2, 49, 84
4, 244560, Note_on_c, 2, 54, 84
4, 244560, Note_on_c, 2, 58, 84
4, 245036, Note_off_c, 2, 42, 80
4, 245036, Note_off_c, 2, 49, 80
4, 245036, Note_off_c, 2, 54, 80
4, 245036, Note_off_c, 2, 58, 80
4, 245040, Note_on_c, 2, 42, 84
4, 245040, Note_on_c, 2, 49, 84
4, 245040, Note_on_c, 2, 54, 84
4, 245040, Note_on_c, 2, 58, 84
4, 245276, Note_off_c, 2, 42, 80
4, 245276, Note_off_c, 2, 49, 80
4, 245276, Note_off_c, 2, 54, 80
4, 245276, Note_off_c, 2, 58, 80
4, 245280, Note_on_c, 2, 42, 84
4, 245280, Note_on_c, 2, 49, 84
4, 245280, Note_on_c, 2, 54, 84
4, 245280, Note_on_c, 2, 58, 84
4, 245756, Note_off_c, 2, 42, 80
4, 245756, Note_off_c, 2, 49, 80
4, 245756, Note_off_c, 2, 54, 80
4, 245756, Note_off_c, 2, 58, 80
4, 245760, Note_on_c, 2, 42, 84
4, 245760, Note_on_c, 2, 49, 84
4, 245760, Note_on_c, 2, 54, 84
4, 245760, Note_on_c, 2, 58, 84
4, 245996, Note_off_c, 2, 42, 80
4, 245996, Note_off_c, 2, 49, 80
4, 245996, Note_off_c, 2, 54, 80
4, 245996, Note_off_c, 2, 58, 80
4, 246000, Note_on_c, 2, 42, 84
4, 246000, Note_on_c, 2, 49, 84
4, 246000, Note_on_c, 2, 54, 84
4, 246000, Note_on_c, 2, 58, 84
4, 246236, Note_off_c, 2, 42, 80
4, 246236, Note_off_c, 2, 49, 80
4, 246236, Note_off_c, 2, 54, 80
4, 246236, Note_off_c, 2, 58, 80
4, 246240, Note_on_c, 2, 42, 84
4, 246240, Note_on_c, 2, 49, 84
4, 246240, Note_on_c, 2, 54, 84
4, 246240, Note_on_c, 2, 58, 84
4, 246476, Note_off_c, 2, 42, 80
4, 246476, Note_off_c, 2, 49, 80
4, 246476, Note_off_c, 2, 54, 80
4, 246476, Note_off_c, 2, 58, 80
4, 246480, Note_on_c, 2, 42, 84
4, 246480, Note_on_c, 2, 49, 84
4, 246480, Note_on_c, 2, 54, 84
4, 246480, Note_on_c, 2, 58, 84
4, 246956, Note_off_c, 2, 42, 80
4, 246956, Note_off_c, 2, 49, 80
4, 246956, Note_off_c, 2, 54, 80
4, 246956, Note_off_c, 2, 58, 80
4, 246960, Note_on_c, 2, 42, 84
4, 246960, Note_on_c, 2, 49, 84
4, 246960, Note_on_c, 2, 54, 84
4, 246960, Note_on_c, 2, 58, 84
4, 247196, Note_off_c, 2, 42, 80
4, 247196, Note_off_c, 2, 49, 80
4, 247196, Note_off_c, 2, 54, 80
4, 247196, Note_off_c, 2, 58, 80
4, 247200, Note_on_c, 2, 42, 84
4, 247200, Note_on_c, 2, 49, 84
4, 247200, Note_on_c, 2, 54, 84
4, 247200, Note_on_c, 2, 58, 84
4, 247676, Note_off_c, 2, 42, 80
4, 247676, Note_off_c, 2, 49, 80
4, 247676, Note_off_c, 2, 54, 80
4, 247676, Note_off_c, 2, 58, 80
4, 247680, Note_on_c, 2, 49, 84
4, 247680, Note_on_c, 2, 56, 84
4, 247680, Note_on_c, 2, 61, 84
4, 247680, Note_on_c, 2, 65, 84
4, 247916, Note_off_c, 2, 49, 80
4, 247916, Note_off_c, 2, 56, 80
4, 247916, Note_off_c, 2, 61, 80
4, 247916, Note_off_c, 2, 65, 80
4, 247920, Note_on_c, 2, 49, 84
4, 247920, Note_on_c, 2, 56, 84
4, 247920, Note_on_c, 2, 61, 84
4, 247920, Note_on_c, 2, 65, 84
4, 248156, Note_off_c, 2, 49, 80
4, 248156, Note_off_c, 2, 56, 80
4, 248156, Note_off_c, 2, 61, 80
4, 248156, Note_off_c, 2, 65, 80
4, 248160, Note_on_c, 2, 49, 84
4, 248160, Note_on_c, 2, 56, 84
4, 248160, Note_on_c, 2, 61, 84
4, 248160, Note_on_c, 2, 65, 84
4, 248396, Note_off_c, 2, 49, 80
4, 248396, Note_off_c, 2, 56, 80
4, 248396, Note_off_c, 2, 61, 80
4, 248396, Note_off_c, 2, 65, 80
4, 248400, Note_on_c, 2, 49, 84
4, 248400, Note_on_c, 2, 56, 84
4, 248400, Note_on_c, 2, 61, 84
4, 248400, Note_on_c, 2, 65, 84
4, 248876, Note_off_c, 2, 49, 80
4, 248876, Note_off_c, 2, 56, 80
4, 248876, Note_off_c, 2, 61, 80
4, 248876, Note_off_c, 2, 65, 80
4, 248880, Note_on_c, 2, 49, 84
4, 248880, Note_on_c, 2, 56, 84
4, 248880, Note_on_c, 2, 61, 84
4, 248880, Note_on_c, 2, 65, 84
4, 249116, Note_off_c, 2, 49, 80
4, 249116, Note_off_c, 2, 56, 80
4, 249116, Note_off_c, 2, 61, 80
4, 249116, Note_off_c, 2, 65, 80
4, 249120, Note_on_c, 2, 49, 84
4, 249120, Note_on_c, 2, 56, 84
4, 249120, Note_on_c, 2, 61, 84
4, 249120, Note_on_c, 2, 65, 84
4, 249596, Note_off_c, 2, 49, 80
4, 249596, Note_off_c, 2, 56, 80
4, 249596, Note_off_c, 2, 61, 80
4, 249596, Note_off_c, 2, 65, 80
4, 249600, Note_on_c, 2, 44, 84
4, 249600, Note_on_c, 2, 51, 84
4, 249600, Note_on_c, 2, 56, 84
4, 249600, Note_on_c, 2, 60, 84
4, 249836, Note_off_c, 2, 44, 80
4, 249836, Note_off_c, 2, 51, 80
4, 249836, Note_off_c, 2, 56, 80
4, 249836, Note_off_c, 2, 60, 80
4, 249840, Note_on_c, 2, 44, 84
4, 249840, Note_on_c, 2, 51, 84
4, 249840, Note_on_c, 2, 56, 84
4, 249840, Note_on_c, 2, 60, 84
4, 250076, Note_off_c, 2, 44, 80
4, 250076, Note_off_c, 2, 51, 80
4, 250076, Note_off_c, 2, 56, 80
4, 250076, Note_off_c, 2, 60, 80
4, 250080, Note_on_c, 2, 44, 84
4, 250080, Note_on_c, 2, 51, 84
4, 250080, Note_on_c, 2, 56, 84
4, 250080, Note_on_c, 2, 60, 84
4, 250316, Note_off_c, 2, 44, 80
4, 250316, Note_off_c, 2, 51, 80
4, 250316, Note_off_c, 2, 56, 80
4, 250316, Note_off_c, 2, 60, 80
4, 250320, Note_on_c, 2, 44, 84
4, 250320, Note_on_c, 2, 51, 84
4, 250320, Note_on_c, 2, 56, 84
4, 250320, Note_on_c, 2, 60, 84
4, 250796, Note_off_c, 2, 44, 80
4, 250796, Note_off_c, 2, 51, 80
4, 250796, Note_off_c, 2, 56, 80
4, 250796, Note_off_c, 2, 60, 80
4, 250800, Note_on_c, 2, 44, 84
4, 250800, Note_on_c, 2, 51, 84
4, 250800, Note_on_c, 2, 56, 84
4, 250800, Note_on_c, 2, 60, 84
4, 251036, Note_off_c, 2, 44, 80
4, 251036, Note_off_c, 2, 51, 80
4, 251036, Note_off_c, 2, 56, 80
4, 251036, Note_off_c, 2, 60, 80
4, 251040, Note_on_c, 2, 44, 84
4, 251040, Note_on_c, 2, 51, 84
4, 251040, Note_on_c, 2, 56, 84
4, 251040, Note_on_c, 2, 60, 84
4, 251516, Note_off_c, 2, 44, 80
4, 251516, Note_off_c, 2, 51, 80
4, 251516, Note_off_c, 2, 56, 80
4, 251516, Note_off_c, 2, 60, 80
4, 251520, Note_on_c, 2, 51, 84
4, 251520, Note_on_c, 2, 58, 84
4, 251520, Note_on_c, 2, 63, 84
4, 251520, Note_on_c, 2, 67, 84
4, 252236, Note_off_c, 2, 51, 80
4, 252236, Note_off_c, 2, 58, 80
4, 252236, Note_off_c, 2, 63, 80
4, 252236, Note_off_c, 2, 67, 80
4, 252240, Note_on_c, 2, 51, 84
4, 252240, Note_on_c, 2, 58, 84
4, 252240, Note_on_c, 2, 63, 84
4, 252240, Note_on_c, 2, 67, 84
4, 252476, Note_off_c, 2, 51, 80
4, 252476, Note_off_c, 2, 58, 80
4, 252476, Note_off_c, 2, 63, 80
4, 252476, Note_off_c, 2, 67, 80
4, 252480, Note_on_c, 2, 51, 84
4, 252480, Note_on_c, 2, 58, 84
4, 252480, Note_on_c, 2, 63, 84
4, 252480, Note_on_c, 2, 67, 84
4, 253196, Note_off_c, 2, 51, 80
4, 253196, Note_off_c, 2, 58, 80
4, 253196, Note_off_c, 2, 63, 80
4, 253196, Note_off_c, 2, 67, 80
4, 253200, Note_on_c, 2, 51, 84
4, 253200, Note_on_c, 2, 58, 84
4, 253200, Note_on_c, 2, 63, 84
4, 253200, Note_on_c, 2, 67, 84
4, 253676, Note_off_c, 2, 51, 80
4, 253676, Note_off_c, 2, 58, 80
4, 253676, Note_off_c, 2, 63, 80
4, 253676, Note_off_c, 2, 67, 80
4, 253680, Note_on_c, 2, 51, 84
4, 253680, Note_on_c, 2, 58, 84
4, 253680, Note_on_c, 2, 63, 84
4, 253680, Note_on_c, 2, 67, 84
4, 254156, Note_off_c, 2, 51, 80
4, 254156, Note_off_c, 2, 58, 80
4, 254156, Note_off_c, 2, 63, 80
4, 254156, Note_off_c, 2, 67, 80
4, 254160, Note_on_c, 2, 61, 84
4, 254636, Note_off_c, 2, 61, 80
4, 254640, Note_on_c, 2, 60, 84
4, 254876, Note_off_c, 2, 60, 80
4, 254880, Note_on_c, 2, 58, 84
4, 255356, Note_off_c, 2, 58, 80
4, 255360, Note_on_c, 2, 42, 84
4, 255360, Note_on_c, 2, 49, 84
4, 255360, Note_on_c, 2, 54, 84
4, 255360, Note_on_c, 2, 58, 84
4, 255596, Note_off_c, 2, 42, 80
4, 255596, Note_off_c, 2, 49, 80
4, 255596, Note_off_c, 2, 54, 80
4, 255596, Note_off_c, 2, 58, 80
4, 255600, Note_on_c, 2, 42, 84
4, 255600, Note_on_c, 2, 49, 84
4, 255600, Note_on_c, 2, 54, 84
4, 255600, Note_on_c, 2, 58, 84
4, 255836, Note_off_c, 2, 42, 80
4, 255836, Note_off_c, 2, 49, 80
4, 255836, Note_off_c, 2, 54, 80
4, 255836, Note_off_c, 2, 58, 80
4, 255840, Note_on_c, 2, 42, 84
4, 255840, Note_on_c, 2, 49, 84
4, 255840, Note_on_c, 2, 54, 84
4, 255840, Note_on_c, 2, 58, 84
4, 256076, Note_off_c, 2, 42, 80
4, 256076, Note_off_c, 2, 49, 80
4, 256076, Note_off_c, 2, 54, 80
4, 256076, Note_off_c, 2, 58, 80
4, 256080, Note_on_c, 2, 42, 84
4, 256080, Note_on_c, 2, 49, 84
4, 256080, Note_on_c, 2, 54, 84
4, 256080, Note_on_c, 2, 58, 84
4, 256556, Note_off_c, 2, 42, 80
4, 256556, Note_off_c, 2, 49, 80
4, 256556, Note_off_c, 2, 54, 80
4, 256556, Note_off_c, 2, 58, 80
4, 256560, Note_on_c, 2, 42, 84
4, 256560, Note_on_c, 2, 49, 84
4, 256560, Note_on_c, 2, 54, 84
4, 256560, Note_on_c, 2, 58, 84
4, 256796, Note_off_c, 2, 42, 80
4, 256796, Note_off_c, 2, 49, 80
4, 256796, Note_off_c, 2, 54, 80
4, 256796, Note_off_c, 2, 58, 80
4, 256800, Note_on_c, 2, 42, 84
4, 256800, Note_on_c, 2, 49, 84
4, 256800, Note_on_c, 2, 54, 84
4, 256800, Note_on_c, 2, 58, 84
4, 257276, Note_off_c, 2, 42, 80
4, 257276, Note_off_c, 2, 49, 80
4, 257276, Note_off_c, 2, 54, 80
4, 257276, Note_off_c, 2, 58, 80
4, 257280, Note_on_c, 2, 42, 84
4, 257280, Note_on_c, 2, 49, 84
4, 257280, Note_on_c, 2, 54, 84
4, 257280, Note_on_c, 2, 58, 84
4, 257516, Note_off_c, 2, 42, 80
4, 257516, Note_off_c, 2, 49, 80
4, 257516, Note_off_c, 2, 54, 80
4, 257516, Note_off_c, 2, 58, 80
4, 257520, Note_on_c, 2, 42, 84
4, 257520, Note_on_c, 2, 49, 84
4, 257520, Note_on_c, 2, 54, 84
4, 257520, Note_on_c, 2, 58, 84
4, 257756, Note_off_c, 2, 42, 80
4, 257756, Note_off_c, 2, 49, 80
4, 257756, Note_off_c, 2, 54, 80
4, 257756, Note_off_c, 2, 58, 80
4, 257760, Note_on_c, 2, 42, 84
4, 257760, Note_on_c, 2, 49, 84
4, 257760, Note_on_c, 2, 54, 84
4, 257760, Note_on_c, 2, 58, 84
4, 257996, Note_off_c, 2, 42, 80
4, 257996, Note_off_c, 2, 49, 80
4, 257996, Note_off_c, 2, 54, 80
4, 257996, Note_off_c, 2, 58, 80
4, 258000, Note_on_c, 2, 42, 84
4, 258000, Note_on_c, 2, 49, 84
4, 258000, Note_on_c, 2, 54, 84
4, 258000, Note_on_c, 2, 58, 84
4, 258476, Note_off_c, 2, 42, 80
4, 258476, Note_off_c, 2, 49, 80
4, 258476, Note_off_c, 2, 54, 80
4, 258476, Note_off_c, 2, 58, 80
4, 258480, Note_on_c, 2, 42, 84
4, 258480, Note_on_c, 2, 49, 84
4, 258480, Note_on_c, 2, 54, 84
4, 258480, Note_on_c, 2, 58, 84
4, 258716, Note_off_c, 2, 42, 80
4, 258716, Note_off_c, 2, 49, 80
4, 258716, Note_off_c, 2, 54, 80
4, 258716, Note_off_c, 2, 58, 80
4, 258720, Note_on_c, 2, 42, 84
4, 258720, Note_on_c, 2, 49, 84
4, 258720, Note_on_c, 2, 54, 84
4, 258720, Note_on_c, 2, 58, 84
4, 259196, Note_off_c, 2, 42, 80
4, 259196, Note_off_c, 2, 49, 80
4, 259196, Note_off_c, 2, 54, 80
4, 259196, Note_off_c, 2, 58, 80
4, 259200, Note_on_c, 2, 49, 84
4, 259200, Note_on_c, 2, 56, 84
4, 259200, Note_on_c, 2, 61, 84
4, 259200, Note_on_c, 2, 65, 84
4, 259436, Note_off_c, 2, 49, 80
4, 259436, Note_off_c, 2, 56, 80
4, 259436, Note_off_c, 2, 61, 80
4, 259436, Note_off_c, 2, 65, 80
4, 259440, Note_on_c, 2, 49, 84
4, 259440, Note_on_c, 2, 56, 84
4, 259440, Note_on_c, 2, 61, 84
4, 259440, Note_on_c, 2, 65, 84
4, 259676, Note_off_c, 2, 49, 80
4, 259676, Note_off_c, 2, 56, 80
4, 259676, Note_off_c, 2, 61, 80
4, 259676, Note_off_c, 2, 65, 80
4, 259680, Note_on_c, 2, 49, 84
4, 259680, Note_on_c, 2, 56, 84
4, 259680, Note_on_c, 2, 61, 84
4, 259680, Note_on_c, 2, 65, 84
4, 259916, Note_off_c, 2, 49, 80
4, 259916, Note_off_c, 2, 56, 80
4, 259916, Note_off_c, 2, 61, 80
4, 259916, Note_off_c, 2, 65, 80
4, 259920, Note_on_c, 2, 49, 84
4, 259920, Note_on_c, 2, 56, 84
4, 259920, Note_on_c, 2, 61, 84
4, 259920, Note_on_c, 2, 65, 84
4, 260396, Note_off_c, 2, 49, 80
4, 260396, Note_off_c, 2, 56, 80
4, 260396, Note_off_c, 2, 61, 80
4, 260396, Note_off_c, 2, 65, 80
4, 260400, Note_on_c, 2, 49, 84
4, 260400, Note_on_c, 2, 56, 84
4, 260400, Note_on_c, 2, 61, 84
4, 260400, Note_on_c, 2, 65, 84
4, 260636, Note_off_c, 2, 49, 80
4, 260636, Note_off_c, 2, 56, 80
4, 260636, Note_off_c, 2, 61, 80
4, 260636, Note_off_c, 2, 65, 80
4, 260640, Note_on_c, 2, 49, 84
4, 260640, Note_on_c, 2, 56, 84
4, 260640, Note_on_c, 2, 61, 84
4, 260640, Note_on_c, 2, 65, 84
4, 261116, Note_off_c, 2, 49, 80
4, 261116, Note_off_c, 2, 56, 80
4, 261116, Note_off_c, 2, 61, 80
4, 261116, Note_off_c, 2, 65, 80
4, 261120, Note_on_c, 2, 44, 84
4, 261120, Note_on_c, 2, 51, 84
4, 261120, Note_on_c, 2, 56, 84
4, 261120, Note_on_c, 2, 60, 84
4, 261356, Note_off_c, 2, 44, 80
4, 261356, Note_off_c, 2, 51, 80
4, 261356, Note_off_c, 2, 56, 80
4, 261356, Note_off_c, 2, 60, 80
4, 261360, Note_on_c, 2, 44, 84
4, 261360, Note_on_c, 2, 51, 84
4, 261360, Note_on_c, 2, 56, 84
4, 261360, Note_on_c, 2, 60, 84
4, 261596, Note_off_c, 2, 44, 80
4, 261596, Note_off_c, 2, 51, 80
4, 261596, Note_off_c, 2, 56, 80
4, 261596, Note_off_c, 2, 60, 80
4, 261600, Note_on_c, 2, 44, 84
4, 261600, Note_on_c, 2, 51, 84
4, 261600, Note_on_c, 2, 56, 84
4, 261600, Note_on_c, 2, 60, 84
4, 261836, Note_off_c, 2, 44, 80
4, 261836, Note_off_c, 2, 51, 80
4, 261836, Note_off_c, 2, 56, 80
4, 261836, Note_off_c, 2, 60, 80
4, 261840, Note_on_c, 2, 44, 84
4, 261840, Note_on_c, 2, 51, 84
4, 261840, Note_on_c, 2, 56, 84
4, 261840, Note_on_c, 2, 60, 84
4, 262316, Note_off_c, 2, 44, 80
4, 262316, Note_off_c, 2, 51, 80
4, 262316, Note_off_c, 2, 56, 80
4, 262316, Note_off_c, 2, 60, 80
4, 262320, Note_on_c, 2, 44, 84
4, 262320, Note_on_c, 2, 51, 84
4, 262320, Note_on_c, 2, 56, 84
4, 262320, Note_on_c, 2, 60, 84
4, 262556, Note_off_c, 2, 44, 80
4, 262556, Note_off_c, 2, 51, 80
4, 262556, Note_off_c, 2, 56, 80
4, 262556, Note_off_c, 2, 60, 80
4, 262560, Note_on_c, 2, 44, 84
4, 262560, Note_on_c, 2, 51, 84
4, 262560, Note_on_c, 2, 56, 84
4, 262560, Note_on_c, 2, 60, 84
4, 263036, Note_off_c, 2, 44, 80
4, 263036, Note_off_c, 2, 51, 80
4, 263036, Note_off_c, 2, 56, 80
4, 263036, Note_off_c, 2, 60, 80
4, 263040, Note_on_c, 2, 51, 84
4, 263040, Note_on_c, 2, 58, 84
4, 263040, Note_on_c, 2, 63, 84
4, 263040, Note_on_c, 2, 67, 84
4, 263756, Note_off_c, 2, 51, 80
4, 263756, Note_off_c, 2, 58, 80
4, 263756, Note_off_c, 2, 63, 80
4, 263756, Note_off_c, 2, 67, 80
4, 263760, Note_on_c, 2, 51, 84
4, 263760, Note_on_c, 2, 58, 84
4, 263760, Note_on_c, 2, 63, 84
4, 263760, Note_on_c, 2, 67, 84
4, 263996, Note_off_c, 2, 51, 80
4, 263996, Note_off_c, 2, 58, 80
4, 263996, Note_off_c, 2, 63, 80
4, 263996, Note_off_c, 2, 67, 80
4, 264000, Note_on_c, 2, 51, 84
4, 264000, Note_on_c, 2, 58, 84
4, 264000, Note_on_c, 2, 63, 84
4, 264000, Note_on_c, 2, 67, 84
4, 264716, Note_off_c, 2, 51, 80
4, 264716, Note_off_c, 2, 58, 80
4, 264716, Note_off_c, 2, 63, 80
4, 264716, Note_off_c, 2, 67, 80
4, 264720, Note_on_c, 2, 51, 84
4, 264720, Note_on_c, 2, 58, 84
4, 264720, Note_on_c, 2, 63, 84
4, 264720, Note_on_c, 2, 67, 84
4, 265196, Note_off_c, 2, 51, 80
4, 265196, Note_off_c, 2, 58, 80
4, 265196, Note_off_c, 2, 63, 80
4, 265196, Note_off_c, 2, 67, 80
4, 265200, Note_on_c, 2, 51, 84
4, 265200, Note_on_c, 2, 58, 84
4, 265200, Note_on_c, 2, 63, 84
4, 265200, Note_on_c, 2, 67, 84
4, 265676, Note_off_c, 2, 51, 80
4, 265676, Note_off_c, 2, 58, 80
4, 265676, Note_off_c, 2, 63, 80
4, 265676, Note_off_c, 2, 67, 80
4, 265680, Note_on_c, 2, 61, 84
4, 266156, Note_off_c, 2, 61, 80
4, 266160, Note_on_c, 2, 60, 84
4, 266396, Note_off_c, 2, 60, 80
4, 266400, Note_on_c, 2, 58, 84
4, 266876, Note_off_c, 2, 58, 80
4, 266880, Note_on_c, 2, 49, 84
4, 266880, Note_on_c, 2, 56, 84
4, 266880, Note_on_c, 2, 61, 84
4, 266880, Note_on_c, 2, 65, 84
4, 267356, Note_off_c, 2, 49, 80
4, 267356, Note_off_c, 2, 56, 80
4, 267356, Note_off_c, 2, 61, 80
4, 267356, Note_off_c, 2, 65, 80
4, 267360, Note_on_c, 2, 49, 84
4, 267360, Note_on_c, 2, 56, 84
4, 267360, Note_on_c, 2, 61, 84
4, 267360, Note_on_c, 2, 65, 84
4, 267836, Note_off_c, 2, 49, 80
4, 267836, Note_off_c, 2, 56, 80
4, 267836, Note_off_c, 2, 61, 80
4, 267836, Note_off_c, 2, 65, 80
4, 267840, Note_on_c, 2, 48, 84
4, 267840, Note_on_c, 2, 56, 84
4, 267840, Note_on_c, 2, 60, 84
4, 267840, Note_on_c, 2, 63, 84
4, 268316, Note_off_c, 2, 48, 80
4, 268316, Note_off_c, 2, 56, 80
4, 268316, Note_off_c, 2, 60, 80
4, 268316, Note_off_c, 2, 63, 80
4, 268320, Note_on_c, 2, 48, 84
4, 268320, Note_on_c, 2, 56, 84
4, 268320, Note_on_c, 2, 60, 84
4, 268320, Note_on_c, 2, 63, 84
4, 268796, Note_off_c, 2, 48, 80
4, 268796, Note_off_c, 2, 56, 80
4, 268796, Note_off_c, 2, 60, 80
4, 268796, Note_off_c, 2, 63, 80
4, 268800, Note_on_c, 2, 46, 84
4, 268800, Note_on_c, 2, 53, 84
4, 268800, Note_on_c, 2, 58, 84
4, 268800, Note_on_c, 2, 61, 84
4, 269276, Note_off_c, 2, 46, 80
4, 269276, Note_off_c, 2, 53, 80
4, 269276, Note_off_c, 2, 58, 80
4, 269276, Note_off_c, 2, 61, 80
4, 269280, Note_on_c, 2, 46, 84
4, 269280, Note_on_c, 2, 53, 84
4, 269280, Note_on_c, 2, 58, 84
4, 269280, Note_on_c, 2, 61, 84
4, 269756, Note_off_c, 2, 46, 80
4, 269756, Note_off_c, 2, 53, 80
4, 269756, Note_off_c, 2, 58, 80
4, 269756, Note_off_c, 2, 61, 80
4, 269760, Note_on_c, 2, 44, 84
4, 269760, Note_on_c, 2, 51, 84
4, 269760, Note_on_c, 2, 56, 84
4, 269760, Note_on_c, 2, 60, 84
4, 270236, Note_off_c, 2, 44, 80
4, 270236, Note_off_c, 2, 51, 80
4, 270236, Note_off_c, 2, 56, 80
4, 270236, Note_off_c, 2, 60, 80
4, 270240, Note_on_c, 2, 44, 84
4, 270240, Note_on_c, 2, 51, 84
4, 270240, Note_on_c, 2, 56, 84
4, 270240, Note_on_c, 2, 60, 84
4, 270716, Note_off_c, 2, 44, 80
4, 270716, Note_off_c, 2, 51, 80
4, 270716, Note_off_c, 2, 56, 80
4, 270716, Note_off_c, 2, 60, 80
4, 270720, Note_on_c, 2, 49, 84
4, 270720, Note_on_c, 2, 56, 84
4, 270720, Note_on_c, 2, 61, 84
4, 270720, Note_on_c, 2, 65, 84
4, 271196, Note_off_c, 2, 49, 80
4, 271196, Note_off_c, 2, 56, 80
4, 271196, Note_off_c, 2, 61, 80
4, 271196, Note_off_c, 2, 65, 80
4, 271200, Note_on_c, 2, 49, 84
4, 271200, Note_on_c, 2, 56, 84
4, 271200, Note_on_c, 2, 61, 84
4, 271200, Note_on_c, 2, 65, 84
4, 271676, Note_off_c, 2, 49, 80
4, 271676, Note_off_c, 2, 56, 80
4, 271676, Note_off_c, 2, 61, 80
4, 271676, Note_off_c, 2, 65, 80
4, 271680, Note_on_c, 2, 48, 84
4, 271680, Note_on_c, 2, 56, 84
4, 271680, Note_on_c, 2, 60, 84
4, 271680, Note_on_c, 2, 63, 84
4, 272156, Note_off_c, 2, 48, 80
4, 272156, Note_off_c, 2, 56, 80
4, 272156, Note_off_c, 2, 60, 80
4, 272156, Note_off_c, 2, 63, 80
4, 272160, Note_on_c, 2, 48, 84
4, 272160, Note_on_c, 2, 56, 84
4, 272160, Note_on_c, 2, 60, 84
4, 272160, Note_on_c, 2, 63, 84
4, 272636, Note_off_c, 2, 48, 80
4, 272636, Note_off_c, 2, 56, 80
4, 272636, Note_off_c, 2, 60, 80
4, 272636, Note_off_c, 2, 63, 80
4, 272640, Note_on_c, 2, 46, 84
4, 272640, Note_on_c, 2, 53, 84
4, 272640, Note_on_c, 2, 58, 84
4, 272640, Note_on_c, 2, 61, 84
4, 273116, Note_off_c, 2, 46, 80
4, 273116, Note_off_c, 2, 53, 80
4, 273116, Note_off_c, 2, 58, 80
4, 273116, Note_off_c, 2, 61, 80
4, 273120, Note_on_c, 2, 46, 84
4, 273120, Note_on_c, 2, 53, 84
4, 273120, Note_on_c, 2, 58, 84
4, 273120, Note_on_c, 2, 61, 84
4, 273596, Note_off_c, 2, 46, 80
4, 273596, Note_off_c, 2, 53, 80
4, 273596, Note_off_c, 2, 58, 80
4, 273596, Note_off_c, 2, 61, 80
4, 273600, Note_on_c, 2, 44, 84
4, 273600, Note_on_c, 2, 51, 84
4, 273600, Note_on_c, 2, 56, 84
4, 273600, Note_on_c, 2, 60, 84
4, 274076, Note_off_c, 2, 44, 80
4, 274076, Note_off_c, 2, 51, 80
4, 274076, Note_off_c, 2, 56, 80
4, 274076, Note_off_c, 2, 60, 80
4, 274080, Note_on_c, 2, 44, 84
4, 274080, Note_on_c, 2, 51, 84
4, 274080, Note_on_c, 2, 56, 84
4, 274080, Note_on_c, 2, 60, 84
4, 274556, Note_off_c, 2, 44, 80
4, 274556, Note_off_c, 2, 51, 80
4, 274556, Note_off_c, 2, 56, 80
4, 274556, Note_off_c, 2, 60, 80
4, 274560, Note_on_c, 2, 49, 84
4, 274560, Note_on_c, 2, 56, 84
4, 274560, Note_on_c, 2, 61, 84
4, 274560, Note_on_c, 2, 65, 84
4, 275036, Note_off_c, 2, 49, 80
4, 275036, Note_off_c, 2, 56, 80
4, 275036, Note_off_c, 2, 61, 80
4, 275036, Note_off_c, 2, 65, 80
4, 275040, Note_on_c, 2, 49, 84
4, 275040, Note_on_c, 2, 56, 84
4, 275040, Note_on_c, 2, 61, 84
4, 275040, Note_on_c, 2, 65, 84
4, 275516, Note_off_c, 2, 49, 80
4, 275516, Note_off_c, 2, 56, 80
4, 275516, Note_off_c, 2, 61, 80
4, 275516, Note_off_c, 2, 65, 80
4, 275520, Note_on_c, 2, 48, 84
4, 275520, Note_on_c, 2, 56, 84
4, 275520, Note_on_c, 2, 60, 84
4, 275520, Note_on_c, 2, 63, 84
4, 275996, Note_off_c, 2, 48, 80
4, 275996, Note_off_c, 2, 56, 80
4, 275996, Note_off_c, 2, 60, 80
4, 275996, Note_off_c, 2, 63, 80
4, 276000, Note_on_c, 2, 48, 84
4, 276000, Note_on_c, 2, 56, 84
4, 276000, Note_on_c, 2, 60, 84
4, 276000, Note_on_c, 2, 63, 84
4, 276476, Note_off_c, 2, 48, 80
4, 276476, Note_off_c, 2, 56, 80
4, 276476, Note_off_c, 2, 60, 80
4, 276476, Note_off_c, 2, 63, 80
4, 276480, Note_on_c, 2, 46, 84
4, 276480, Note_on_c, 2, 53, 84
4, 276480, Note_on_c, 2, 58, 84
4, 276480, Note_on_c, 2, 61, 84
4, 276956, Note_off_c, 2, 46, 80
4, 276956, Note_off_c, 2, 53, 80
4, 276956, Note_off_c, 2, 58, 80
4, 276956, Note_off_c, 2, 61, 80
4, 276960, Note_on_c, 2, 46, 84
4, 276960, Note_on_c, 2, 53, 84
4, 276960, Note_on_c, 2, 58, 84
4, 276960, Note_on_c, 2, 61, 84
4, 277436, Note_off_c, 2, 46, 80
4, 277436, Note_off_c, 2, 53, 80
4, 277436, Note_off_c, 2, 58, 80
4, 277436, Note_off_c, 2, 61, 80
4, 277440, Note_on_c, 2, 44, 84
4, 277440, Note_on_c, 2, 51, 84
4, 277440, Note_on_c, 2, 56, 84
4, 277440, Note_on_c, 2, 60, 84
4, 277916, Note_off_c, 2, 44, 80
4, 277916, Note_off_c, 2, 51, 80
4, 277916, Note_off_c, 2, 56, 80
4, 277916, Note_off_c, 2, 60, 80
4, 277920, Note_on_c, 2, 44, 84
4, 277920, Note_on_c, 2, 51, 84
4, 277920, Note_on_c, 2, 56, 84
4, 277920, Note_on_c, 2, 60, 84
4, 278396, Note_off_c, 2, 44, 80
4, 278396, Note_off_c, 2, 51, 80
4, 278396, Note_off_c, 2, 56, 80
4, 278396, Note_off_c, 2, 60, 80
4, 278400, Note_on_c, 2, 46, 84
4, 278400, Note_on_c, 2, 53, 84
4, 278400, Note_on_c, 2, 58, 84
4, 278400, Note_on_c, 2, 61, 84
4, 278636, Note_off_c, 2, 46, 80
4, 278636, Note_off_c, 2, 53, 80
4, 278636, Note_off_c, 2, 58, 80
4, 278636, Note_off_c, 2, 61, 80
4, 278640, Note_on_c, 2, 46, 84
4, 278640, Note_on_c, 2, 53, 84
4, 278640, Note_on_c, 2, 58, 84
4, 278640, Note_on_c, 2, 61, 84
4, 279116, Note_off_c, 2, 46, 80
4, 279116, Note_off_c, 2, 53, 80
4, 279116, Note_off_c, 2, 58, 80
4, 279116, Note_off_c, 2, 61, 80
4, 279120, Note_on_c, 2, 46, 84
4, 279120, Note_on_c, 2, 53, 84
4, 279120, Note_on_c, 2, 58, 84
4, 279120, Note_on_c, 2, 61, 84
4, 279356, Note_off_c, 2, 46, 80
4, 279356, Note_off_c, 2, 53, 80
4, 279356, Note_off_c, 2, 58, 80
4, 279356, Note_off_c, 2, 61, 80
4, 279360, Note_on_c, 2, 46, 84
4, 279360, Note_on_c, 2, 53, 84
4, 279360, Note_on_c, 2, 58, 84
4, 279360, Note_on_c, 2, 61, 84
4, 279596, Note_off_c, 2, 46, 80
4, 279596, Note_off_c, 2, 53, 80
4, 279596, Note_off_c, 2, 58, 80
4, 279596, Note_off_c, 2, 61, 80
4, 279600, Note_on_c, 2, 46, 84
4, 279600, Note_on_c, 2, 53, 84
4, 279600, Note_on_c, 2, 58, 84
4, 279600, Note_on_c, 2, 61, 84
4, 280076, Note_off_c, 2, 46, 80
4, 280076, Note_off_c, 2, 53, 80
4, 280076, Note_off_c, 2, 58, 80
4, 280076, Note_off_c, 2, 61, 80
4, 280080, Note_on_c, 2, 46, 84
4, 280080, Note_on_c, 2, 53, 84
4, 280080, Note_on_c, 2, 58, 84
4, 280080, Note_on_c, 2, 61, 84
4, 280316, Note_off_c, 2, 46, 80
4, 280316, Note_off_c, 2, 53, 80
4, 280316, Note_off_c, 2, 58, 80
4, 280316, Note_off_c, 2, 61, 80
4, 280320, Note_on_c, 2, 46, 84
4, 280320, Note_on_c, 2, 53, 84
4, 280320, Note_on_c, 2, 58, 84
4, 280320, Note_on_c, 2, 61, 84
4, 280556, Note_off_c, 2, 46, 80
4, 280556, Note_off_c, 2, 53, 80
4, 280556, Note_off_c, 2, 58, 80
4, 280556, Note_off_c, 2, 61, 80
4, 280560, Note_on_c, 2, 46, 84
4, 280560, Note_on_c, 2, 53, 84
4, 280560, Note_on_c, 2, 58, 84
4, 280560, Note_on_c, 2, 61, 84
4, 281036, Note_off_c, 2, 46, 80
4, 281036, Note_off_c, 2, 53, 80
4, 281036, Note_off_c, 2, 58, 80
4, 281036, Note_off_c, 2, 61, 80
4, 281040, Note_on_c, 2, 46, 84
4, 281040, Note_on_c, 2, 53, 84
4, 281040, Note_on_c, 2, 58, 84
4, 281040, Note_on_c, 2, 61, 84
4, 281276, Note_off_c, 2, 46, 80
4, 281276, Note_off_c, 2, 53, 80
4, 281276, Note_off_c, 2, 58, 80
4, 281276, Note_off_c, 2, 61, 80
4, 281280, Note_on_c, 2, 46, 84
4, 281280, Note_on_c, 2, 53, 84
4, 281280, Note_on_c, 2, 58, 84
4, 281280, Note_on_c, 2, 61, 84
4, 281516, Note_off_c, 2, 46, 80
4, 281516, Note_off_c, 2, 53, 80
4, 281516, Note_off_c, 2, 58, 80
4, 281516, Note_off_c, 2, 61, 80
4, 281520, Note_on_c, 2, 46, 84
4, 281520, Note_on_c, 2, 53, 84
4, 281520, Note_on_c, 2, 58, 84
4, 281520, Note_on_c, 2, 61, 84
4, 281996, Note_off_c, 2, 46, 80
4, 281996, Note_off_c, 2, 53, 80
4, 281996, Note_off_c, 2, 58, 80
4, 281996, Note_off_c, 2, 61, 80
4, 282000, Note_on_c, 2, 46, 84
4, 282000, Note_on_c, 2, 53, 84
4, 282000, Note_on_c, 2, 58, 84
4, 282000, Note_on_c, 2, 61, 84
4, 282236, Note_off_c, 2, 46, 80
4, 282236, Note_off_c, 2, 53, 80
4, 282236, Note_off_c, 2, 58, 80
4, 282236, Note_off_c, 2, 61, 80
4, 282240, Note_on_c, 2, 49, 84
4, 282240, Note_on_c, 2, 56, 84
4, 282240, Note_on_c, 2, 61, 84
4, 282240, Note_on_c, 2, 65, 84
4, 282476, Note_off_c, 2, 49, 80
4, 282476, Note_off_c, 2, 56, 80
4, 282476, Note_off_c, 2, 61, 80
4, 282476, Note_off_c, 2, 65, 80
4, 282480, Note_on_c, 2, 49, 84
4, 282480, Note_on_c, 2, 56, 84
4, 282480, Note_on_c, 2, 61, 84
4, 282480, Note_on_c, 2, 65, 84
4, 282716, Note_off_c, 2, 49, 80
4, 282716, Note_off_c, 2, 56, 80
4, 282716, Note_off_c, 2, 61, 80
4, 282716, Note_off_c, 2, 65, 80
4, 282720, Note_on_c, 2, 49, 84
4, 282720, Note_on_c, 2, 56, 84
4, 282720, Note_on_c, 2, 61, 84
4, 282720, Note_on_c, 2, 65, 84
4, 282956, Note_off_c, 2, 49, 80
4, 282956, Note_off_c, 2, 56, 80
4, 282956, Note_off_c, 2, 61, 80
4, 282956, Note_off_c, 2, 65, 80
4, 282960, Note_on_c, 2, 49, 84
4, 282960, Note_on_c, 2, 56, 84
4, 282960, Note_on_c, 2, 61, 84
4, 282960, Note_on_c, 2, 65, 84
4, 283436, Note_off_c, 2, 49, 80
4, 283436, Note_off_c, 2, 56, 80
4, 283436, Note_off_c, 2, 61, 80
4, 283436, Note_off_c, 2, 65, 80
4, 283440, Note_on_c, 2, 49, 84
4, 283440, Note_on_c, 2, 56, 84
4, 283440, Note_on_c, 2, 61, 84
4, 283440, Note_on_c, 2, 65, 84
4, 283676, Note_off_c, 2, 49, 80
4, 283676, Note_off_c, 2, 56, 80
4, 283676, Note_off_c, 2, 61, 80
4, 283676, Note_off_c, 2, 65, 80
4, 283680, Note_on_c, 2, 49, 84
4, 283680, Note_on_c, 2, 56, 84
4, 283680, Note_on_c, 2, 61, 84
4, 283680, Note_on_c, 2, 65, 84
4, 284156, Note_off_c, 2, 49, 80
4, 284156, Note_off_c, 2, 56, 80
4, 284156, Note_off_c, 2, 61, 80
4, 284156, Note_off_c, 2, 65, 80
4, 284160, Note_on_c, 2, 49, 84
4, 284160, Note_on_c, 2, 56, 84
4, 284160, Note_on_c, 2, 61, 84
4, 284160, Note_on_c, 2, 65, 84
4, 284396, Note_off_c, 2, 49, 80
4, 284396, Note_off_c, 2, 56, 80
4, 284396, Note_off_c, 2, 61, 80
4, 284396, Note_off_c, 2, 65, 80
4, 284400, Note_on_c, 2, 49, 84
4, 284400, Note_on_c, 2, 56, 84
4, 284400, Note_on_c, 2, 61, 84
4, 284400, Note_on_c, 2, 65, 84
4, 284636, Note_off_c, 2, 49, 80
4, 284636, Note_off_c, 2, 56, 80
4, 284636, Note_off_c, 2, 61, 80
4, 284636, Note_off_c, 2, 65, 80
4, 284640, Note_on_c, 2, 49, 84
4, 284640, Note_on_c, 2, 56, 84
4, 284640, Note_on_c, 2, 61, 84
4, 284640, Note_on_c, 2, 65, 84
4, 284876, Note_off_c, 2, 49, 80
4, 284876, Note_off_c, 2, 56, 80
4, 284876, Note_off_c, 2, 61, 80
4, 284876, Note_off_c, 2, 65, 80
4, 284880, Note_on_c, 2, 49, 84
4, 284880, Note_on_c, 2, 56, 84
4, 284880, Note_on_c, 2, 61, 84
4, 284880, Note_on_c, 2, 65, 84
4, 285356, Note_off_c, 2, 49, 80
4, 285356, Note_off_c, 2, 56, 80
4, 285356, Note_off_c, 2, 61, 80
4, 285356, Note_off_c, 2, 65, 80
4, 285360, Note_on_c, 2, 49, 84
4, 285360, Note_on_c, 2, 56, 84
4, 285360, Note_on_c, 2, 61, 84
4, 285360, Note_on_c, 2, 65, 84
4, 285596, Note_off_c, 2, 49, 80
4, 285596, Note_off_c, 2, 56, 80
4, 285596, Note_off_c, 2, 61, 80
4, 285596, Note_off_c, 2, 65, 80
4, 285600, Note_on_c, 2, 49, 84
4, 285600, Note_on_c, 2, 56, 84
4, 285600, Note_on_c, 2, 61, 84
4, 285600, Note_on_c, 2, 65, 84
4, 286076, Note_off_c, 2, 49, 80
4, 286076, Note_off_c, 2, 56, 80
4, 286076, Note_off_c, 2, 61, 80
4, 286076, Note_off_c, 2, 65, 80
4, 286080, Note_on_c, 2, 44, 84
4, 286080, Note_on_c, 2, 51, 84
4, 286080, Note_on_c, 2, 56, 84
4, 286556, Note_off_c, 2, 44, 80
4, 286556, Note_off_c, 2, 51, 80
4, 286556, Note_off_c, 2, 56, 80
4, 286560, Note_on_c, 2, 44, 84
4, 286560, Note_on_c, 2, 51, 84
4, 286560, Note_on_c, 2, 56, 84
4, 286560, Note_on_c, 2, 60, 84
4, 286560, Note_on_c, 2, 63, 84
4, 287036, Note_off_c, 2, 44, 80
4, 287036, Note_off_c, 2, 51, 80
4, 287036, Note_off_c, 2, 56, 80
4, 287036, Note_off_c, 2, 60, 80
4, 287036, Note_off_c, 2, 63, 80
4, 287040, Note_on_c, 2, 44, 84
4, 287040, Note_on_c, 2, 51, 84
4, 287040, Note_on_c, 2, 56, 84
4, 287040, Note_on_c, 2, 60, 84
4, 287040, Note_on_c, 2, 63, 84
4, 287756, Note_off_c, 2, 44, 80
4, 287756, Note_off_c, 2, 51, 80
4, 287756, Note_off_c, 2, 56, 80
4, 287756, Note_off_c, 2, 60, 80
4, 287756, Note_off_c, 2, 63, 80
4, 287760, Note_on_c, 2, 44, 84
4, 287760, Note_on_c, 2, 51, 84
4, 287760, Note_on_c, 2, 56, 84
4, 287760, Note_on_c, 2, 61, 84
4, 287760, Note_on_c, 2, 63, 84
4, 288236, Note_off_c, 2, 44, 80
4, 288236, Note_off_c, 2, 51, 80
4, 288236, Note_off_c, 2, 56, 80
4, 288236, Note_off_c, 2, 61, 80
4, 288236, Note_off_c, 2, 63, 80
4, 288240, Note_on_c, 2, 44, 84
4, 288240, Note_on_c, 2, 51, 84
4, 288240, Note_on_c, 2, 56, 84
4, 288240, Note_on_c, 2, 60, 84
4, 288240, Note_on_c, 2, 63, 84
4, 288476, Note_off_c, 2, 44, 80
4, 288476, Note_off_c, 2, 51, 80
4, 288476, Note_off_c, 2, 56, 80
4, 288476, Note_off_c, 2, 60, 80
4, 288476, Note_off_c, 2, 63, 80
4, 288480, Note_on_c, 2, 44, 84
4, 288480, Note_on_c, 2, 51, 84
4, 288480, Note_on_c, 2, 56, 84
4, 288480, Note_on_c, 2, 61, 84
4, 288480, Note_on_c, 2, 63, 84
4, 288956, Note_off_c, 2, 44, 80
4, 288956, Note_off_c, 2, 51, 80
4, 288956, Note_off_c, 2, 56, 80
4, 288956, Note_off_c, 2, 61, 80
4, 288956, Note_off_c, 2, 63, 80
4, 288960, Note_on_c, 2, 44, 84
4, 288960, Note_on_c, 2, 51, 84
4, 288960, Note_on_c, 2, 56, 84
4, 288960, Note_on_c, 2, 60, 84
4, 288960, Note_on_c, 2, 63, 84
4, 289916, Note_off_c, 2, 44, 80
4, 289916, Note_off_c, 2, 51, 80
4, 289916, Note_off_c, 2, 56, 80
4, 289916, Note_off_c, 2, 60, 80
4, 289916, Note_off_c, 2, 63, 80
4, 289920, Note_on_c, 2, 49, 84
4, 289920, Note_on_c, 2, 56, 84
4, 289920, Note_on_c, 2, 61, 84
4, 289920, Note_on_c, 2, 65, 84
4, 290636, Note_off_c, 2, 49, 80
4, 290636, Note_off_c, 2, 56, 80
4, 290636, Note_off_c, 2, 61, 80
4, 290636, Note_off_c, 2, 65, 80
4, 290640, Note_on_c, 2, 49, 84
4, 290640, Note_on_c, 2, 56, 84
4, 290640, Note_on_c, 2, 61, 84
4, 290640, Note_on_c, 2, 65, 84
4, 290876, Note_off_c, 2, 49, 80
4, 290876, Note_off_c, 2, 56, 80
4, 290876, Note_off_c, 2, 61, 80
4, 290876, Note_off_c, 2, 65, 80
4, 290880, Note_on_c, 2, 49, 84
4, 290880, Note_on_c, 2, 56, 84
4, 290880, Note_on_c, 2, 61, 84
4, 290880, Note_on_c, 2, 65, 84
4, 291596, Note_off_c, 2, 49, 80
4, 291596, Note_off_c, 2, 56, 80
4, 291596, Note_off_c, 2, 61, 80
4, 291596, Note_off_c, 2, 65, 80
4, 291600, Note_on_c, 2, 49, 84
4, 291600, Note_on_c, 2, 56, 84
4, 291600, Note_on_c, 2, 61, 84
4, 291600, Note_on_c, 2, 65, 84
4, 292076, Note_off_c, 2, 49, 80
4, 292076, Note_off_c, 2, 56, 80
4, 292076, Note_off_c, 2, 61, 80
4, 292076, Note_off_c, 2, 65, 80
4, 292080, Note_on_c, 2, 49, 84
4, 292080, Note_on_c, 2, 56, 84
4, 292080, Note_on_c, 2, 61, 84
4, 292080, Note_on_c, 2, 65, 84
4, 292556, Note_off_c, 2, 49, 80
4, 292556, Note_off_c, 2, 56, 80
4, 292556, Note_off_c, 2, 61, 80
4, 292556, Note_off_c, 2, 65, 80
4, 292560, Note_on_c, 2, 49, 84
4, 292560, Note_on_c, 2, 56, 84
4, 292560, Note_on_c, 2, 61, 84
4, 292560, Note_on_c, 2, 65, 84
4, 292796, Note_off_c, 2, 49, 80
4, 292796, Note_off_c, 2, 56, 80
4, 292796, Note_off_c, 2, 61, 80
4, 292796, Note_off_c, 2, 65, 80
4, 292800, Note_on_c, 2, 49, 84
4, 292800, Note_on_c, 2, 56, 84
4, 292800, Note_on_c, 2, 61, 84
4, 292800, Note_on_c, 2, 65, 84
4, 293756, Note_off_c, 2, 49, 80
4, 293756, Note_off_c, 2, 56, 80
4, 293756, Note_off_c, 2, 61, 80
4, 293756, Note_off_c, 2, 65, 80
4, 293760, Note_on_c, 2, 44, 84
4, 293760, Note_on_c, 2, 51, 84
4, 293760, Note_on_c, 2, 56, 84
4, 294236, Note_off_c, 2, 44, 80
4, 294236, Note_off_c, 2, 51, 80
4, 294236, Note_off_c, 2, 56, 80
4, 294240, Note_on_c, 2, 44, 84
4, 294240, Note_on_c, 2, 51, 84
4, 294240, Note_on_c, 2, 56, 84
4, 294240, Note_on_c, 2, 60, 84
4, 294240, Note_on_c, 2, 63, 84
4, 294716, Note_off_c, 2, 44, 80
4, 294716, Note_off_c, 2, 51, 80
4, 294716, Note_off_c, 2, 56, 80
4, 294716, Note_off_c, 2, 60, 80
4, 294716, Note_off_c, 2, 63, 80
4, 294720, Note_on_c, 2, 44, 84
4, 294720, Note_on_c, 2, 51, 84
4, 294720, Note_on_c, 2, 56, 84
4, 294720, Note_on_c, 2, 60, 84
4, 294720, Note_on_c, 2, 63, 84
4, 295436, Note_off_c, 2, 44, 80
4, 295436, Note_off_c, 2, 51, 80
4, 295436, Note_off_c, 2, 56, 80
4, 295436, Note_off_c, 2, 60, 80
4, 295436, Note_off_c, 2, 63, 80
4, 295440, Note_on_c, 2, 44, 84
4, 295440, Note_on_c, 2, 51, 84
4, 295440, Note_on_c, 2, 56, 84
4, 295440, Note_on_c, 2, 61, 84
4, 295440, Note_on_c, 2, 63, 84
4, 295916, Note_off_c, 2, 44, 80
4, 295916, Note_off_c, 2, 51, 80
4, 295916, Note_off_c, 2, 56, 80
4, 295916, Note_off_c, 2, 61, 80
4, 295916, Note_off_c, 2, 63, 80
4, 295920, Note_on_c, 2, 44, 84
4, 295920, Note_on_c, 2, 51, 84
4, 295920, Note_on_c, 2, 56, 84
4, 295920, Note_on_c, 2, 60, 84
4, 295920, Note_on_c, 2, 63, 84
4, 296156, Note_off_c, 2, 44, 80
4, 296156, Note_off_c, 2, 51, 80
4, 296156, Note_off_c, 2, 56, 80
4, 296156, Note_off_c, 2, 60, 80
4, 296156, Note_off_c, 2, 63, 80
4, 296160, Note_on_c, 2, 44, 84
4, 296160, Note_on_c, 2, 51, 84
4, 296160, Note_on_c, 2, 56, 84
4, 296160, Note_on_c, 2, 61, 84
4, 296160, Note_on_c, 2, 63, 84
4, 296636, Note_off_c, 2, 44, 80
4, 296636, Note_off_c, 2, 51, 80
4, 296636, Note_off_c, 2, 56, 80
4, 296636, Note_off_c, 2, 61, 80
4, 296636, Note_off_c, 2, 63, 80
4, 296640, Note_on_c, 2, 44, 84
4, 296640, Note_on_c, 2, 51, 84
4, 296640, Note_on_c, 2, 56, 84
4, 296640, Note_on_c, 2, 60, 84
4, 296640, Note_on_c, 2, 63, 84
4, 297596, Note_off_c, 2, 44, 80
4, 297596, Note_off_c, 2, 51, 80
4, 297596, Note_off_c, 2, 56, 80
4, 297596, Note_off_c, 2, 60, 80
4, 297596, Note_off_c, 2, 63, 80
4, 297600, Note_on_c, 2, 49, 84
4, 297600, Note_on_c, 2, 56, 84
4, 297600, Note_on_c, 2, 61, 84
4, 297600, Note_on_c, 2, 65, 84
4, 298316, Note_off_c, 2, 49, 80
4, 298316, Note_off_c, 2, 56, 80
4, 298316, Note_off_c, 2, 61, 80
4, 298316, Note_off_c, 2, 65, 80
4, 298320, Note_on_c, 2, 49, 84
4, 298320, Note_on_c, 2, 56, 84
4, 298320, Note_on_c, 2, 61, 84
4, 298320, Note_on_c, 2, 65, 84
4, 298556, Note_off_c, 2, 49, 80
4, 298556, Note_off_c, 2, 56, 80
4, 298556, Note_off_c, 2, 61, 80
4, 298556, Note_off_c, 2, 65, 80
4, 298560, Note_on_c, 2, 49, 84
4, 298560, Note_on_c, 2, 56, 84
4, 298560, Note_on_c, 2, 61, 84
4, 298560, Note_on_c, 2, 65, 84
4, 299276, Note_off_c, 2, 49, 80
4, 299276, Note_off_c, 2, 56, 80
4, 299276, Note_off_c, 2, 61, 80
4, 299276, Note_off_c, 2, 65, 80
4, 299280, Note_on_c, 2, 49, 84
4, 299280, Note_on_c, 2, 56, 84
4, 299280, Note_on_c, 2, 61, 84
4, 299280, Note_on_c, 2, 65, 84
4, 299756, Note_off_c, 2, 49, 80
4, 299756, Note_off_c, 2, 56, 80
4, 299756, Note_off_c, 2, 61, 80
4, 299756, Note_off_c, 2, 65, 80
4, 299760, Note_on_c, 2, 49, 84
4, 299760, Note_on_c, 2, 56, 84
4, 299760, Note_on_c, 2, 61, 84
4, 299760, Note_on_c, 2, 65, 84
4, 300236, Note_off_c, 2, 49, 80
4, 300236, Note_off_c, 2, 56, 80
4, 300236, Note_off_c, 2, 61, 80
4, 300236, Note_off_c, 2, 65, 80
4, 300240, Note_on_c, 2, 49, 84
4, 300240, Note_on_c, 2, 56, 84
4, 300240, Note_on_c, 2, 61, 84
4, 300240, Note_on_c, 2, 65, 84
4, 300476, Note_off_c, 2, 49, 80
4, 300476, Note_off_c, 2, 56, 80
4, 300476, Note_off_c, 2, 61, 80
4, 300476, Note_off_c, 2, 65, 80
4, 300480, Note_on_c, 2, 49, 84
4, 300480, Note_on_c, 2, 56, 84
4, 300480, Note_on_c, 2, 61, 84
4, 300480, Note_on_c, 2, 65, 84
4, 301436, Note_off_c, 2, 49, 80
4, 301436, Note_off_c, 2, 56, 80
4, 301436, Note_off_c, 2, 61, 80
4, 301436, Note_off_c, 2, 65, 80
4, 301440, Note_on_c, 2, 44, 84
4, 301440, Note_on_c, 2, 51, 84
4, 301440, Note_on_c, 2, 56, 84
4, 301916, Note_off_c, 2, 44, 80
4, 301916, Note_off_c, 2, 51, 80
4, 301916, Note_off_c, 2, 56, 80
4, 301920, Note_on_c, 2, 44, 84
4, 301920, Note_on_c, 2, 51, 84
4, 301920, Note_on_c, 2, 56, 84
4, 301920, Note_on_c, 2, 60, 84
4, 301920, Note_on_c, 2, 63, 84
4, 302396, Note_off_c, 2, 44, 80
4, 302396, Note_off_c, 2, 51, 80
4, 302396, Note_off_c, 2, 56, 80
4, 302396, Note_off_c, 2, 60, 80
4, 302396, Note_off_c, 2, 63, 80
4, 302400, Note_on_c, 2, 44, 84
4, 302400, Note_on_c, 2, 51, 84
4, 302400, Note_on_c, 2, 56, 84
4, 302400, Note_on_c, 2, 60, 84
4, 302400, Note_on_c, 2, 63, 84
4, 303116, Note_off_c, 2, 44, 80
4, 303116, Note_off_c, 2, 51, 80
4, 303116, Note_off_c, 2, 56, 80
4, 303116, Note_off_c, 2, 60, 80
4, 303116, Note_off_c, 2, 63, 80
4, 303120, Note_on_c, 2, 44, 84
4, 303120, Note_on_c, 2, 51, 84
4, 303120, Note_on_c, 2, 56, 84
4, 303120, Note_on_c, 2, 61, 84
4, 303120, Note_on_c, 2, 63, 84
4, 303596, Note_off_c, 2, 44, 80
4, 303596, Note_off_c, 2, 51, 80
4, 303596, Note_off_c, 2, 56, 80
4, 303596, Note_off_c, 2, 61, 80
4, 303596, Note_off_c, 2, 63, 80
4, 303600, Note_on_c, 2, 44, 84
4, 303600, Note_on_c, 2, 51, 84
4, 303600, Note_on_c, 2, 56, 84
4, 303600, Note_on_c, 2, 60, 84
4, 303600, Note_on_c, 2, 63, 84
4, 303836, Note_off_c, 2, 44, 80
4, 303836, Note_off_c, 2, 51, 80
4, 303836, Note_off_c, 2, 56, 80
4, 303836, Note_off_c, 2, 60, 80
4, 303836, Note_off_c, 2, 63, 80
4, 303840, Note_on_c, 2, 44, 84
4, 303840, Note_on_c, 2, 51, 84
4, 303840, Note_on_c, 2, 56, 84
4, 303840, Note_on_c, 2, 61, 84
4, 303840, Note_on_c, 2, 63, 84
4, 304316, Note_off_c, 2, 44, 80
4, 304316, Note_off_c, 2, 51, 80
4, 304316, Note_off_c, 2, 56, 80
4, 304316, Note_off_c, 2, 61, 80
4, 304316, Note_off_c, 2, 63, 80
4, 304320, Note_on_c, 2, 44, 84
4, 304320, Note_on_c, 2, 51, 84
4, 304320, Note_on_c, 2, 56, 84
4, 304320, Note_on_c, 2, 60, 84
4, 304320, Note_on_c, 2, 63, 84
4, 305276, Note_off_c, 2, 44, 80
4, 305276, Note_off_c, 2, 51, 80
4, 305276, Note_off_c, 2, 56, 80
4, 305276, Note_off_c, 2, 60, 80
4, 305276, Note_off_c, 2, 63, 80
4, 305280, Note_on_c, 2, 49, 84
4, 305280, Note_on_c, 2, 56, 84
4, 305280, Note_on_c, 2, 61, 84
4, 305280, Note_on_c, 2, 65, 84
4, 305996, Note_off_c, 2, 49, 80
4, 305996, Note_off_c, 2, 56, 80
4, 305996, Note_off_c, 2, 61, 80
4, 305996, Note_off_c, 2, 65, 80
4, 306000, Note_on_c, 2, 49, 84
4, 306000, Note_on_c, 2, 56, 84
4, 306000, Note_on_c, 2, 61, 84
4, 306000, Note_on_c, 2, 65, 84
4, 306236, Note_off_c, 2, 49, 80
4, 306236, Note_off_c, 2, 56, 80
4, 306236, Note_off_c, 2, 61, 80
4, 306236, Note_off_c, 2, 65, 80
4, 306240, Note_on_c, 2, 49, 84
4, 306240, Note_on_c, 2, 56, 84
4, 306240, Note_on_c, 2, 61, 84
4, 306240, Note_on_c, 2, 65, 84
4, 306956, Note_off_c, 2, 49, 80
4, 306956, Note_off_c, 2, 56, 80
4, 306956, Note_off_c, 2, 61, 80
4, 306956, Note_off_c, 2, 65, 80
4, 306960, Note_on_c, 2, 49, 84
4, 306960, Note_on_c, 2, 56, 84
4, 306960, Note_on_c, 2, 61, 84
4, 306960, Note_on_c, 2, 65, 84
4, 307436, Note_off_c, 2, 49, 80
4, 307436, Note_off_c, 2, 56, 80
4, 307436, Note_off_c, 2, 61, 80
4, 307436, Note_off_c, 2, 65, 80
4, 307440, Note_on_c, 2, 49, 84
4, 307440, Note_on_c, 2, 56, 84
4, 307440, Note_on_c, 2, 61, 84
4, 307440, Note_on_c, 2, 65, 84
4, 307916, Note_off_c, 2, 49, 80
4, 307916, Note_off_c, 2, 56, 80
4, 307916, Note_off_c, 2, 61, 80
4, 307916, Note_off_c, 2, 65, 80
4, 307920, Note_on_c, 2, 49, 84
4, 307920, Note_on_c, 2, 56, 84
4, 307920, Note_on_c, 2, 61, 84
4, 307920, Note_on_c, 2, 65, 84
4, 308156, Note_off_c, 2, 49, 80
4, 308156, Note_off_c, 2, 56, 80
4, 308156, Note_off_c, 2, 61, 80
4, 308156, Note_off_c, 2, 65, 80
4, 308160, Note_on_c, 2, 49, 84
4, 308160, Note_on_c, 2, 56, 84
4, 308160, Note_on_c, 2, 61, 84
4, 308160, Note_on_c, 2, 65, 84
4, 309116, Note_off_c, 2, 49, 80
4, 309116, Note_off_c, 2, 56, 80
4, 309116, Note_off_c, 2, 61, 80
4, 309116, Note_off_c, 2, 65, 80
4, 309120, Note_on_c, 2, 44, 84
4, 309120, Note_on_c, 2, 51, 84
4, 309120, Note_on_c, 2, 56, 84
4, 309596, Note_off_c, 2, 44, 80
4, 309596, Note_off_c, 2, 51, 80
4, 309596, Note_off_c, 2, 56, 80
4, 309600, Note_on_c, 2, 44, 84
4, 309600, Note_on_c, 2, 51, 84
4, 309600, Note_on_c, 2, 56, 84
4, 309600, Note_on_c, 2, 60, 84
4, 309600, Note_on_c, 2, 63, 84
4, 310076, Note_off_c, 2, 44, 80
4, 310076, Note_off_c, 2, 51, 80
4, 310076, Note_off_c, 2, 56, 80
4, 310076, Note_off_c, 2, 60, 80
4, 310076, Note_off_c, 2, 63, 80
4, 310080, Note_on_c, 2, 44, 84
4, 310080, Note_on_c, 2, 51, 84
4, 310080, Note_on_c, 2, 56, 84
4, 310080, Note_on_c, 2, 60, 84
4, 310080, Note_on_c, 2, 63, 84
4, 310796, Note_off_c, 2, 44, 80
4, 310796, Note_off_c, 2, 51, 80
4, 310796, Note_off_c, 2, 56, 80
4, 310796, Note_off_c, 2, 60, 80
4, 310796, Note_off_c, 2, 63, 80
4, 310800, Note_on_c, 2, 44, 84
4, 310800, Note_on_c, 2, 51, 84
4, 310800, Note_on_c, 2, 56, 84
4, 310800, Note_on_c, 2, 61, 84
4, 310800, Note_on_c, 2, 63, 84
4, 311276, Note_off_c, 2, 44, 80
4, 311276, Note_off_c, 2, 51, 80
4, 311276, Note_off_c, 2, 56, 80
4, 311276, Note_off_c, 2, 61, 80
4, 311276, Note_off_c, 2, 63, 80
4, 311280, Note_on_c, 2, 44, 84
4, 311280, Note_on_c, 2, 51, 84
4, 311280, Note_on_c, 2, 56, 84
4, 311280, Note_on_c, 2, 60, 84
4, 311280, Note_on_c, 2, 63, 84
4, 311516, Note_off_c, 2, 44, 80
4, 311516, Note_off_c, 2, 51, 80
4, 311516, Note_off_c, 2, 56, 80
4, 311516, Note_off_c, 2, 60, 80
4, 311516, Note_off_c, 2, 63, 80
4, 311520, Note_on_c, 2, 44, 84
4, 311520, Note_on_c, 2, 51, 84
4, 311520, Note_on_c, 2, 56, 84
4, 311520, Note_on_c, 2, 61, 84
4, 311520, Note_on_c, 2, 63, 84
4, 311996, Note_off_c, 2, 44, 80
4, 311996, Note_off_c, 2, 51, 80
4, 311996, Note_off_c, 2, 56, 80
4, 311996, Note_off_c, 2, 61, 80
4, 311996, Note_off_c, 2, 63, 80
4, 312000, Note_on_c, 2, 44, 84
4, 312000, Note_on_c, 2, 51, 84
4, 312000, Note_on_c, 2, 56, 84
4, 312000, Note_on_c, 2, 60, 84
4, 312000, Note_on_c, 2, 63, 84
4, 312956, Note_off_c, 2, 44, 80
4, 312956, Note_off_c, 2, 51, 80
4, 312956, Note_off_c, 2, 56, 80
4, 312956, Note_off_c, 2, 60, 80
4, 312956, Note_off_c, 2, 63, 80
4, 312960, Note_on_c, 2, 49, 84
4, 312960, Note_on_c, 2, 56, 84
4, 312960, Note_on_c, 2, 61, 84
4, 312960, Note_on_c, 2, 65, 84
4, 313676, Note_off_c, 2, 49, 80
4, 313676, Note_off_c, 2, 56, 80
4, 313676, Note_off_c, 2, 61, 80
4, 313676, Note_off_c, 2, 65, 80
4, 313680, Note_on_c, 2, 49, 84
4, 313680, Note_on_c, 2, 56, 84
4, 313680, Note_on_c, 2, 61, 84
4, 313680, Note_on_c, 2, 65, 84
4, 313916, Note_off_c, 2, 49, 80
4, 313916, Note_off_c, 2, 56, 80
4, 313916, Note_off_c, 2, 61, 80
4, 313916, Note_off_c, 2, 65, 80
4, 313920, Note_on_c, 2, 49, 84
4, 313920, Note_on_c, 2, 56, 84
4, 313920, Note_on_c, 2, 61, 84
4, 313920, Note_on_c, 2, 65, 84
4, 314636, Note_off_c, 2, 49, 80
4, 314636, Note_off_c, 2, 56, 80
4, 314636, Note_off_c, 2, 61, 80
4, 314636, Note_off_c, 2, 65, 80
4, 314640, Note_on_c, 2, 49, 84
4, 314640, Note_on_c, 2, 56, 84
4, 314640, Note_on_c, 2, 61, 84
4, 314640, Note_on_c, 2, 65, 84
4, 315116, Note_off_c, 2, 49, 80
4, 315116, Note_off_c, 2, 56, 80
4, 315116, Note_off_c, 2, 61, 80
4, 315116, Note_off_c, 2, 65, 80
4, 315120, Note_on_c, 2, 49, 84
4, 315120, Note_on_c, 2, 56, 84
4, 315120, Note_on_c, 2, 61, 84
4, 315120, Note_on_c, 2, 65, 84
4, 315596, Note_off_c, 2, 49, 80
4, 315596, Note_off_c, 2, 56, 80
4, 315596, Note_off_c, 2, 61, 80
4, 315596, Note_off_c, 2, 65, 80
4, 315600, Note_on_c, 2, 49, 84
4, 315600, Note_on_c, 2, 56, 84
4, 315600, Note_on_c, 2, 61, 84
4, 315600, Note_on_c, 2, 65, 84
4, 315836, Note_off_c, 2, 49, 80
4, 315836, Note_off_c, 2, 56, 80
4, 315836, Note_off_c, 2, 61, 80
4, 315836, Note_off_c, 2, 65, 80
4, 315840, Note_on_c, 2, 49, 84
4, 315840, Note_on_c, 2, 56, 84
4, 315840, Note_on_c, 2, 61, 84
4, 315840, Note_on_c, 2, 65, 84
4, 316076, Note_off_c, 2, 49, 80
4, 316076, Note_off_c, 2, 56, 80
4, 316076, Note_off_c, 2, 61, 80
4, 316076, Note_off_c, 2, 65, 80
4, 316080, Note_on_c, 2, 63, 84
4, 316316, Note_off_c, 2, 63, 80
4, 316320, Note_on_c, 2, 61, 84
4, 316796, Note_off_c, 2, 61, 80
4, 316800, Note_on_c, 2, 44, 84
4, 316800, Note_on_c, 2, 51, 84
4, 316800, Note_on_c, 2, 56, 84
4, 317276, Note_off_c, 2, 44, 80
4, 317276, Note_off_c, 2, 51, 80
4, 317276, Note_off_c, 2, 56, 80
4, 317280, Note_on_c, 2, 44, 84
4, 317280, Note_on_c, 2, 51, 84
4, 317280, Note_on_c, 2, 56, 84
4, 317280, Note_on_c, 2, 60, 84
4, 317280, Note_on_c, 2, 63, 84
4, 317756, Note_off_c, 2, 44, 80
4, 317756, Note_off_c, 2, 51, 80
4, 317756, Note_off_c, 2, 56, 80
4, 317756, Note_off_c, 2, 60, 80
4, 317756, Note_off_c, 2, 63, 80
4, 317760, Note_on_c, 2, 44, 84
4, 317760, Note_on_c, 2, 51, 84
4, 317760, Note_on_c, 2, 56, 84
4, 317760, Note_on_c, 2, 60, 84
4, 317760, Note_on_c, 2, 63, 84
4, 318476, Note_off_c, 2, 44, 80
4, 318476, Note_off_c, 2, 51, 80
4, 318476, Note_off_c, 2, 56, 80
4, 318476, Note_off_c, 2, 60, 80
4, 318476, Note_off_c, 2, 63, 80
4, 318480, Note_on_c, 2, 44, 84
4, 318480, Note_on_c, 2, 51, 84
4, 318480, Note_on_c, 2, 56, 84
4, 318480, Note_on_c, 2, 61, 84
4, 318480, Note_on_c, 2, 63, 84
4, 318956, Note_off_c, 2, 44, 80
4, 318956, Note_off_c, 2, 51, 80
4, 318956, Note_off_c, 2, 56, 80
4, 318956, Note_off_c, 2, 61, 80
4, 318956, Note_off_c, 2, 63, 80
4, 318960, Note_on_c, 2, 44, 84
4, 318960, Note_on_c, 2, 51, 84
4, 318960, Note_on_c, 2, 56, 84
4, 318960, Note_on_c, 2, 60, 84
4, 318960, Note_on_c, 2, 63, 84
4, 319196, Note_off_c, 2, 44, 80
4, 319196, Note_off_c, 2, 51, 80
4, 319196, Note_off_c, 2, 56, 80
4, 319196, Note_off_c, 2, 60, 80
4, 319196, Note_off_c, 2, 63, 80
4, 319200, Note_on_c, 2, 44, 84
4, 319200, Note_on_c, 2, 51, 84
4, 319200, Note_on_c, 2, 56, 84
4, 319200, Note_on_c, 2, 61, 84
4, 319200, Note_on_c, 2, 63, 84
4, 319676, Note_off_c, 2, 44, 80
4, 319676, Note_off_c, 2, 51, 80
4, 319676, Note_off_c, 2, 56, 80
4, 319676, Note_off_c, 2, 61, 80
4, 319676, Note_off_c, 2, 63, 80
4, 319680, Note_on_c, 2, 44, 84
4, 319680, Note_on_c, 2, 51, 84
4, 319680, Note_on_c, 2, 56, 84
4, 319680, Note_on_c, 2, 60, 84
4, 319680, Note_on_c, 2, 63, 84
4, 320636, Note_off_c, 2, 44, 80
4, 320636, Note_off_c, 2, 51, 80
4, 320636, Note_off_c, 2, 56, 80
4, 320636, Note_off_c, 2, 60, 80
4, 320636, Note_off_c, 2, 63, 80
4, 320640, Note_on_c, 2, 49, 84
4, 320640, Note_on_c, 2, 56, 84
4, 320640, Note_on_c, 2, 61, 84
4, 320640, Note_on_c, 2, 65, 84
4, 321356, Note_off_c, 2, 49, 80
4, 321356, Note_off_c, 2, 56, 80
4, 321356, Note_off_c, 2, 61, 80
4, 321356, Note_off_c, 2, 65, 80
4, 321360, Note_on_c, 2, 49, 84
4, 321360, Note_on_c, 2, 56, 84
4, 321360, Note_on_c, 2, 61, 84
4, 321360, Note_on_c, 2, 65, 84
4, 321596, Note_off_c, 2, 49, 80
4, 321596, Note_off_c, 2, 56, 80
4, 321596, Note_off_c, 2, 61, 80
4, 321596, Note_off_c, 2, 65, 80
4, 321600, Note_on_c, 2, 49, 84
4, 321600, Note_on_c, 2, 56, 84
4, 321600, Note_on_c, 2, 61, 84
4, 321600, Note_on_c, 2, 65, 84
4, 322316, Note_off_c, 2, 49, 80
4, 322316, Note_off_c, 2, 56, 80
4, 322316, Note_off_c, 2, 61, 80
4, 322316, Note_off_c, 2, 65, 80
4, 322320, Note_on_c, 2, 49, 84
4, 322320, Note_on_c, 2, 56, 84
4, 322320, Note_on_c, 2, 61, 84
4, 322320, Note_on_c, 2, 65, 84
4, 322796, Note_off_c, 2, 49, 80
4, 322796, Note_off_c, 2, 56, 80
4, 322796, Note_off_c, 2, 61, 80
4, 322796, Note_off_c, 2, 65, 80
4, 322800, Note_on_c, 2, 49, 84
4, 322800, Note_on_c, 2, 56, 84
4, 322800, Note_on_c, 2, 61, 84
4, 322800, Note_on_c, 2, 65, 84
4, 323276, Note_off_c, 2, 49, 80
4, 323276, Note_off_c, 2, 56, 80
4, 323276, Note_off_c, 2, 61, 80
4, 323276, Note_off_c, 2, 65, 80
4, 323280, Note_on_c, 2, 49, 84
4, 323280, Note_on_c, 2, 56, 84
4, 323280, Note_on_c, 2, 61, 84
4, 323280, Note_on_c, 2, 65, 84
4, 323516, Note_off_c, 2, 49, 80
4, 323516, Note_off_c, 2, 56, 80
4, 323516, Note_off_c, 2, 61, 80
4, 323516, Note_off_c, 2, 65, 80
4, 323520, Note_on_c, 2, 49, 84
4, 323520, Note_on_c, 2, 56, 84
4, 323520, Note_on_c, 2, 61, 84
4, 323520, Note_on_c, 2, 65, 84
4, 324476, Note_off_c, 2, 49, 80
4, 324476, Note_off_c, 2, 56, 80
4, 324476, Note_off_c, 2, 61, 80
4, 324476, Note_off_c, 2, 65, 80
4, 324480, Note_on_c, 2, 44, 84
4, 324480, Note_on_c, 2, 51, 84
4, 324480, Note_on_c, 2, 56, 84
4, 324956, Note_off_c, 2, 44, 80
4, 324956, Note_off_c, 2, 51, 80
4, 324956, Note_off_c, 2, 56, 80
4, 324960, Note_on_c, 2, 44, 84
4, 324960, Note_on_c, 2, 51, 84
4, 324960, Note_on_c, 2, 56, 84
4, 324960, Note_on_c, 2, 60, 84
4, 324960, Note_on_c, 2, 63, 84
4, 325436, Note_off_c, 2, 44, 80
4, 325436, Note_off_c, 2, 51, 80
4, 325436, Note_off_c, 2, 56, 80
4, 325436, Note_off_c, 2, 60, 80
4, 325436, Note_off_c, 2, 63, 80
4, 325440, Note_on_c, 2, 44, 84
4, 325440, Note_on_c, 2, 51, 84
4, 325440, Note_on_c, 2, 56, 84
4, 325440, Note_on_c, 2, 60, 84
4, 325440, Note_on_c, 2, 63, 84
4, 326156, Note_off_c, 2, 44, 80
4, 326156, Note_off_c, 2, 51, 80
4, 326156, Note_off_c, 2, 56, 80
4, 326156, Note_off_c, 2, 60, 80
4, 326156, Note_off_c, 2, 63, 80
4, 326160, Note_on_c, 2, 44, 84
4, 326160, Note_on_c, 2, 51, 84
4, 326160, Note_on_c, 2, 56, 84
4, 326160, Note_on_c, 2, 61, 84
4, 326160, Note_on_c, 2, 63, 84
4, 326636, Note_off_c, 2, 44, 80
4, 326636, Note_off_c, 2, 51, 80
4, 326636, Note_off_c, 2, 56, 80
4, 326636, Note_off_c, 2, 61, 80
4, 326636, Note_off_c, 2, 63, 80
4, 326640, Note_on_c, 2, 44, 84
4, 326640, Note_on_c, 2, 51, 84
4, 326640, Note_on_c, 2, 56, 84
4, 326640, Note_on_c, 2, 60, 84
4, 326640, Note_on_c, 2, 63, 84
4, 326876, Note_off_c, 2, 44, 80
4, 326876, Note_off_c, 2, 51, 80
4, 326876, Note_off_c, 2, 56, 80
4, 326876, Note_off_c, 2, 60, 80
4, 326876, Note_off_c, 2, 63, 80
4, 326880, Note_on_c, 2, 44, 84
4, 326880, Note_on_c, 2, 51, 84
4, 326880, Note_on_c, 2, 56, 84
4, 326880, Note_on_c, 2, 61, 84
4, 326880, Note_on_c, 2, 63, 84
4, 327356, Note_off_c, 2, 44, 80
4, 327356, Note_off_c, 2, 51, 80
4, 327356, Note_off_c, 2, 56, 80
4, 327356, Note_off_c, 2, 61, 80
4, 327356, Note_off_c, 2, 63, 80
4, 327360, Note_on_c, 2, 44, 84
4, 327360, Note_on_c, 2, 51, 84
4, 327360, Note_on_c, 2, 56, 84
4, 327360, Note_on_c, 2, 60, 84
4, 327360, Note_on_c, 2, 63, 84
4, 328316, Note_off_c, 2, 44, 80
4, 328316, Note_off_c, 2, 51, 80
4, 328316, Note_off_c, 2, 56, 80
4, 328316, Note_off_c, 2, 60, 80
4, 328316, Note_off_c, 2, 63, 80
4, 328320, Note_on_c, 2, 49, 84
4, 328320, Note_on_c, 2, 56, 84
4, 328320, Note_on_c, 2, 61, 84
4, 328320, Note_on_c, 2, 65, 84
4, 329036, Note_off_c, 2, 49, 80
4, 329036, Note_off_c, 2, 56, 80
4, 329036, Note_off_c, 2, 61, 80
4, 329036, Note_off_c, 2, 65, 80
4, 329040, Note_on_c, 2, 49, 84
4, 329040, Note_on_c, 2, 56, 84
4, 329040, Note_on_c, 2, 61, 84
4, 329040, Note_on_c, 2, 65, 84
4, 329276, Note_off_c, 2, 49, 80
4, 329276, Note_off_c, 2, 56, 80
4, 329276, Note_off_c, 2, 61, 80
4, 329276, Note_off_c, 2, 65, 80
4, 329280, Note_on_c, 2, 49, 84
4, 329280, Note_on_c, 2, 56, 84
4, 329280, Note_on_c, 2, 61, 84
4, 329280, Note_on_c, 2, 65, 84
4, 329996, Note_off_c, 2, 49, 80
4, 329996, Note_off_c, 2, 56, 80
4, 329996, Note_off_c, 2, 61, 80
4, 329996, Note_off_c, 2, 65, 80
4, 330000, Note_on_c, 2, 49, 84
4, 330000, Note_on_c, 2, 56, 84
4, 330000, Note_on_c, 2, 61, 84
4, 330000, Note_on_c, 2, 65, 84
4, 330476, Note_off_c, 2, 49, 80
4, 330476, Note_off_c, 2, 56, 80
4, 330476, Note_off_c, 2, 61, 80
4, 330476, Note_off_c, 2, 65, 80
4, 330480, Note_on_c, 2, 49, 84
4, 330480, Note_on_c, 2, 56, 84
4, 330480, Note_on_c, 2, 61, 84
4, 330480, Note_on_c, 2, 65, 84
4, 330956, Note_off_c, 2, 49, 80
4, 330956, Note_off_c, 2, 56, 80
4, 330956, Note_off_c, 2, 61, 80
4, 330956, Note_off_c, 2, 65, 80
4, 330960, Note_on_c, 2, 49, 84
4, 330960, Note_on_c, 2, 56, 84
4, 330960, Note_on_c, 2, 61, 84
4, 330960, Note_on_c, 2, 65, 84
4, 331196, Note_off_c, 2, 49, 80
4, 331196, Note_off_c, 2, 56, 80
4, 331196, Note_off_c, 2, 61, 80
4, 331196, Note_off_c, 2, 65, 80
4, 331200, Note_on_c, 2, 49, 84
4, 331200, Note_on_c, 2, 56, 84
4, 331200, Note_on_c, 2, 61, 84
4, 331200, Note_on_c, 2, 65, 84
4, 332156, Note_off_c, 2, 49, 80
4, 332156, Note_off_c, 2, 56, 80
4, 332156, Note_off_c, 2, 61, 80
4, 332156, Note_off_c, 2, 65, 80
4, 332160, Note_on_c, 2, 44, 84
4, 332160, Note_on_c, 2, 51, 84
4, 332160, Note_on_c, 2, 56, 84
4, 332636, Note_off_c, 2, 44, 80
4, 332636, Note_off_c, 2, 51, 80
4, 332636, Note_off_c, 2, 56, 80
4, 332640, Note_on_c, 2, 44, 84
4, 332640, Note_on_c, 2, 51, 84
4, 332640, Note_on_c, 2, 56, 84
4, 332640, Note_on_c, 2, 60, 84
4, 332640, Note_on_c, 2, 63, 84
4, 333116, Note_off_c, 2, 44, 80
4, 333116, Note_off_c, 2, 51, 80
4, 333116, Note_off_c, 2, 56, 80
4, 333116, Note_off_c, 2, 60, 80
4, 333116, Note_off_c, 2, 63, 80
4, 333120, Note_on_c, 2, 44, 84
4, 333120, Note_on_c, 2, 51, 84
4, 333120, Note_on_c, 2, 56, 84
4, 333120, Note_on_c, 2, 60, 84
4, 333120, Note_on_c, 2, 63, 84
4, 333836, Note_off_c, 2, 44, 80
4, 333836, Note_off_c, 2, 51, 80
4, 333836, Note_off_c, 2, 56, 80
4, 333836, Note_off_c, 2, 60, 80
4, 333836, Note_off_c, 2, 63, 80
4, 333840, Note_on_c, 2, 44, 84
4, 333840, Note_on_c, 2, 51, 84
4, 333840, Note_on_c, 2, 56, 84
4, 333840, Note_on_c, 2, 61, 84
4, 333840, Note_on_c, 2, 63, 84
4, 334316, Note_off_c, 2, 44, 80
4, 334316, Note_off_c, 2, 51, 80
4, 334316, Note_off_c, 2, 56, 80
4, 334316, Note_off_c, 2, 61, 80
4, 334316, Note_off_c, 2, 63, 80
4, 334320, Note_on_c, 2, 44, 84
4, 334320, Note_on_c, 2, 51, 84
4, 334320, Note_on_c, 2, 56, 84
4, 334320, Note_on_c, 2, 60, 84
4, 334320, Note_on_c, 2, 63, 84
4, 334556, Note_off_c, 2, 44, 80
4, 334556, Note_off_c, 2, 51, 80
4, 334556, Note_off_c, 2, 56, 80
4, 334556, Note_off_c, 2, 60, 80
4, 334556, Note_off_c, 2, 63, 80
4, 334560, Note_on_c, 2, 44, 84
4, 334560, Note_on_c, 2, 51, 84
4, 334560, Note_on_c, 2, 56, 84
4, 334560, Note_on_c, 2, 61, 84
4, 334560, Note_on_c, 2, 63, 84
4, 335036, Note_off_c, 2, 44, 80
4, 335036, Note_off_c, 2, 51, 80
4, 335036, Note_off_c, 2, 56, 80
4, 335036, Note_off_c, 2, 61, 80
4, 335036, Note_off_c, 2, 63, 80
4, 335040, Note_on_c, 2, 44, 84
4, 335040, Note_on_c, 2, 51, 84
4, 335040, Note_on_c, 2, 56, 84
4, 335040, Note_on_c, 2, 60, 84
4, 335040, Note_on_c, 2, 63, 84
4, 335996, Note_off_c, 2, 44, 80
4, 335996, Note_off_c, 2, 51, 80
4, 335996, Note_off_c, 2, 56, 80
4, 335996, Note_off_c, 2, 60, 80
4, 335996, Note_off_c, 2, 63, 80
4, 336000, Note_on_c, 2, 49, 84
4, 336000, Note_on_c, 2, 56, 84
4, 336000, Note_on_c, 2, 61, 84
4, 336000, Note_on_c, 2, 65, 84
4, 336716, Note_off_c, 2, 49, 80
4, 336716, Note_off_c, 2, 56, 80
4, 336716, Note_off_c, 2, 61, 80
4, 336716, Note_off_c, 2, 65, 80
4, 336720, Note_on_c, 2, 49, 84
4, 336720, Note_on_c, 2, 56, 84
4, 336720, Note_on_c, 2, 61, 84
4, 336720, Note_on_c, 2, 65, 84
4, 336956, Note_off_c, 2, 49, 80
4, 336956, Note_off_c, 2, 56, 80
4, 336956, Note_off_c, 2, 61, 80
4, 336956, Note_off_c, 2, 65, 80
4, 336960, Note_on_c, 2, 49, 84
4, 336960, Note_on_c, 2, 56, 84
4, 336960, Note_on_c, 2, 61, 84
4, 336960, Note_on_c, 2, 65, 84
4, 337676, Note_off_c, 2, 49, 80
4, 337676, Note_off_c, 2, 56, 80
4, 337676, Note_off_c, 2, 61, 80
4, 337676, Note_off_c, 2, 65, 80
4, 337680, Note_on_c, 2, 49, 84
4, 337680, Note_on_c, 2, 56, 84
4, 337680, Note_on_c, 2, 61, 84
4, 337680, Note_on_c, 2, 65, 84
4, 338156, Note_off_c, 2, 49, 80
4, 338156, Note_off_c, 2, 56, 80
4, 338156, Note_off_c, 2, 61, 80
4, 338156, Note_off_c, 2, 65, 80
4, 338160, Note_on_c, 2, 49, 84
4, 338160, Note_on_c, 2, 56, 84
4, 338160, Note_on_c, 2, 61, 84
4, 338160, Note_on_c, 2, 65, 84
4, 338636, Note_off_c, 2, 49, 80
4, 338636, Note_off_c, 2, 56, 80
4, 338636, Note_off_c, 2, 61, 80
4, 338636, Note_off_c, 2, 65, 80
4, 338640, Note_on_c, 2, 49, 84
4, 338640, Note_on_c, 2, 56, 84
4, 338640, Note_on_c, 2, 61, 84
4, 338640, Note_on_c, 2, 65, 84
4, 338876, Note_off_c, 2, 49, 80
4, 338876, Note_off_c, 2, 56, 80
4, 338876, Note_off_c, 2, 61, 80
4, 338876, Note_off_c, 2, 65, 80
4, 338880, Note_on_c, 2, 49, 84
4, 338880, Note_on_c, 2, 56, 84
4, 338880, Note_on_c, 2, 61, 84
4, 338880, Note_on_c, 2, 65, 84
4, 339836, Note_off_c, 2, 49, 80
4, 339836, Note_off_c, 2, 56, 80
4, 339836, Note_off_c, 2, 61, 80
4, 339836, Note_off_c, 2, 65, 80
4, 339840, Note_on_c, 2, 44, 84
4, 339840, Note_on_c, 2, 51, 84
4, 339840, Note_on_c, 2, 56, 84
4, 339960, Control_c, 2, 7, 57
4, 340316, Note_off_c, 2, 44, 80
4, 340316, Note_off_c, 2, 51, 80
4, 340316, Note_off_c, 2, 56, 80
4, 340320, Control_c, 2, 7, 58
4, 340320, Note_on_c, 2, 44, 84
4, 340320, Note_on_c, 2, 51, 84
4, 340320, Note_on_c, 2, 56, 84
4, 340320, Note_on_c, 2, 60, 84
4, 340320, Note_on_c, 2, 63, 84
4, 340560, Control_c, 2, 7, 59
4, 340796, Note_off_c, 2, 44, 80
4, 340796, Note_off_c, 2, 51, 80
4, 340796, Note_off_c, 2, 56, 80
4, 340796, Note_off_c, 2, 60, 80
4, 340796, Note_off_c, 2, 63, 80
4, 340800, Note_on_c, 2, 44, 84
4, 340800, Note_on_c, 2, 51, 84
4, 340800, Note_on_c, 2, 56, 84
4, 340800, Note_on_c, 2, 60, 84
4, 340800, Note_on_c, 2, 63, 84
4, 340920, Control_c, 2, 7, 60
4, 341280, Control_c, 2, 7, 61
4, 341516, Note_off_c, 2, 44, 80
4, 341516, Note_off_c, 2, 51, 80
4, 341516, Note_off_c, 2, 56, 80
4, 341516, Note_off_c, 2, 60, 80
4, 341516, Note_off_c, 2, 63, 80
4, 341520, Control_c, 2, 7, 62
4, 341520, Note_on_c, 2, 44, 84
4, 341520, Note_on_c, 2, 51, 84
4, 341520, Note_on_c, 2, 56, 84
4, 341520, Note_on_c, 2, 61, 84
4, 341520, Note_on_c, 2, 63, 84
4, 341880, Control_c, 2, 7, 63
4, 341996, Note_off_c, 2, 44, 80
4, 341996, Note_off_c, 2, 51, 80
4, 341996, Note_off_c, 2, 56, 80
4, 341996, Note_off_c, 2, 61, 80
4, 341996, Note_off_c, 2, 63, 80
4, 342000, Note_on_c, 2, 44, 84
4, 342000, Note_on_c, 2, 51, 84
4, 342000, Note_on_c, 2, 56, 84
4, 342000, Note_on_c, 2, 60, 84
4, 342000, Note_on_c, 2, 63, 84
4, 342236, Note_off_c, 2, 44, 80
4, 342236, Note_off_c, 2, 51, 80
4, 342236, Note_off_c, 2, 56, 80
4, 342236, Note_off_c, 2, 60, 80
4, 342236, Note_off_c, 2, 63, 80
4, 342240, Control_c, 2, 7, 64
4, 342240, Note_on_c, 2, 44, 84
4, 342240, Note_on_c, 2, 51, 84
4, 342240, Note_on_c, 2, 56, 84
4, 342240, Note_on_c, 2, 61, 84
4, 342240, Note_on_c, 2, 63, 84
4, 342600, Control_c, 2, 7, 65
4, 342716, Note_off_c, 2, 44, 80
4, 342716, Note_off_c, 2, 51, 80
4, 342716, Note_off_c, 2, 56, 80
4, 342716, Note_off_c, 2, 61, 80
4, 342716, Note_off_c, 2, 63, 80
4, 342720, Note_on_c, 2, 44, 84
4, 342720, Note_on_c, 2, 51, 84
4, 342720, Note_on_c, 2, 56, 84
4, 342720, Note_on_c, 2, 60, 84
4, 342720, Note_on_c, 2, 63, 84
4, 342840, Control_c, 2, 7, 66
4, 343200, Control_c, 2, 7, 67
4, 343560, Control_c, 2, 7, 68
4, 343676, Note_off_c, 2, 44, 80
4, 343676, Note_off_c, 2, 51, 80
4, 343676, Note_off_c, 2, 56, 80
4, 343676, Note_off_c, 2, 60, 80
4, 343676, Note_off_c, 2, 63, 80
4, 343680, Note_on_c, 2, 49, 84
4, 343680, Note_on_c, 2, 56, 84
4, 343680, Note_on_c, 2, 61, 84
4, 343680, Note_on_c, 2, 65, 84
4, 343800, Control_c, 2, 7, 69
4, 344160, Control_c, 2, 7, 70
4, 344396, Note_off_c, 2, 49, 80
4, 344396, Note_off_c, 2, 56, 80
4, 344396, Note_off_c, 2, 61, 80
4, 344396, Note_off_c, 2, 65, 80
4, 344400, Note_on_c, 2, 49, 84
4, 344400, Note_on_c, 2, 56, 84
4, 344400, Note_on_c, 2, 61, 84
4, 344400, Note_on_c, 2, 65, 84
4, 344520, Control_c, 2, 7, 71
4, 344636, Note_off_c, 2, 49, 80
4, 344636, Note_off_c, 2, 56, 80
4, 344636, Note_off_c, 2, 61, 80
4, 344636, Note_off_c, 2, 65, 80
4, 344640, Note_on_c, 2, 49, 84
4, 344640, Note_on_c, 2, 56, 84
4, 344640, Note_on_c, 2, 61, 84
4, 344640, Note_on_c, 2, 65, 84
4, 344760, Control_c, 2, 7, 72
4, 345120, Control_c, 2, 7, 73
4, 345356, Note_off_c, 2, 49, 80
4, 345356, Note_off_c, 2, 56, 80
4, 345356, Note_off_c, 2, 61, 80
4, 345356, Note_off_c, 2, 65, 80
4, 345360, Note_on_c, 2, 49, 84
4, 345360, Note_on_c, 2, 56, 84
4, 345360, Note_on_c, 2, 61, 84
4, 345360, Note_on_c, 2, 65, 84
4, 345480, Control_c, 2, 7, 74
4, 345836, Note_off_c, 2, 49, 80
4, 345836, Note_off_c, 2, 56, 80
4, 345836, Note_off_c, 2, 61, 80
4, 345836, Note_off_c, 2, 65, 80
4, 345840, Control_c, 2, 7, 75
4, 345840, Note_on_c, 2, 49, 84
4, 345840, Note_on_c, 2, 56, 84
4, 345840, Note_on_c, 2, 61, 84
4, 345840, Note_on_c, 2, 65, 84
4, 346080, Control_c, 2, 7, 76
4, 346316, Note_off_c, 2, 49, 80
4, 346316, Note_off_c, 2, 56, 80
4, 346316, Note_off_c, 2, 61, 80
4, 346316, Note_off_c, 2, 65, 80
4, 346320, Note_on_c, 2, 49, 84
4, 346320, Note_on_c, 2, 56, 84
4, 346320, Note_on_c, 2, 61, 84
4, 346320, Note_on_c, 2, 65, 84
4, 346440, Control_c, 2, 7, 77
4, 346556, Note_off_c, 2, 49, 80
4, 346556, Note_off_c, 2, 56, 80
4, 346556, Note_off_c, 2, 61, 80
4, 346556, Note_off_c, 2, 65, 80
4, 346560, Note_on_c, 2, 49, 84
4, 346560, Note_on_c, 2, 56, 84
4, 346560, Note_on_c, 2, 61, 84
4, 346560, Note_on_c, 2, 65, 84
4, 346796, Note_off_c, 2, 49, 80
4, 346796, Note_off_c, 2, 56, 80
4, 346796, Note_off_c, 2, 61, 80
4, 346796, Note_off_c, 2, 65, 80
4, 346800, Control_c, 2, 7, 78
4, 346800, Note_on_c, 2, 63, 84
4, 347036, Note_off_c, 2, 63, 80
4, 347040, Control_c, 2, 7, 79
4, 347040, Note_on_c, 2, 61, 84
4, 347400, Control_c, 2, 7, 80
4, 347516, Note_off_c, 2, 61, 80
4, 347520, Control_c, 2, 7, 79
4, 347520, Note_on_c, 2, 44, 84
4, 347520, Note_on_c, 2, 51, 84
4, 347520, Note_on_c, 2, 56, 84
4, 347640, Control_c, 2, 7, 78
4, 347760, Control_c, 2, 7, 77
4, 347880, Control_c, 2, 7, 76
4, 347996, Note_off_c, 2, 44, 80
4, 347996, Note_off_c, 2, 51, 80
4, 347996, Note_off_c, 2, 56, 80
4, 348000, Control_c, 2, 7, 75
4, 348000, Note_on_c, 2, 44, 84
4, 348000, Note_on_c, 2, 51, 84
4, 348000, Note_on_c, 2, 56, 84
4, 348000, Note_on_c, 2, 60, 84
4, 348000, Note_on_c, 2, 63, 84
4, 348120, Control_c, 2, 7, 74
4, 348240, Control_c, 2, 7, 73
4, 348360, Control_c, 2, 7, 72
4, 348476, Note_off_c, 2, 44, 80
4, 348476, Note_off_c, 2, 51, 80
4, 348476, Note_off_c, 2, 56, 80
4, 348476, Note_off_c, 2, 60, 80
4, 348476, Note_off_c, 2, 63, 80
4, 348480, Control_c, 2, 7, 71
4, 348480, Note_on_c, 2, 44, 84
4, 348480, Note_on_c, 2, 51, 84
4, 348480, Note_on_c, 2, 56, 84
4, 348480, Note_on_c, 2, 60, 84
4, 348480, Note_on_c, 2, 63, 84
4, 348600, Control_c, 2, 7, 70
4, 348720, Control_c, 2, 7, 69
4, 348840, Control_c, 2, 7, 68
4, 348960, Control_c, 2, 7, 67
4, 349080, Control_c, 2, 7, 66
4, 349196, Note_off_c, 2, 44, 80
4, 349196, Note_off_c, 2, 51, 80
4, 349196, Note_off_c, 2, 56, 80
4, 349196, Note_off_c, 2, 60, 80
4, 349196, Note_off_c, 2, 63, 80
4, 349200, Control_c, 2, 7, 65
4, 349200, Note_on_c, 2, 44, 84
4, 349200, Note_on_c, 2, 51, 84
4, 349200, Note_on_c, 2, 56, 84
4, 349200, Note_on_c, 2, 61, 84
4, 349200, Note_on_c, 2, 63, 84
4, 349320, Control_c, 2, 7, 64
4, 349440, Control_c, 2, 7, 63
4, 349560, Control_c, 2, 7, 62
4, 349676, Note_off_c, 2, 44, 80
4, 349676, Note_off_c, 2, 51, 80
4, 349676, Note_off_c, 2, 56, 80
4, 349676, Note_off_c, 2, 61, 80
4, 349676, Note_off_c, 2, 63, 80
4, 349680, Control_c, 2, 7, 61
4, 349680, Note_on_c, 2, 44, 84
4, 349680, Note_on_c, 2, 51, 84
4, 349680, Note_on_c, 2, 56, 84
4, 349680, Note_on_c, 2, 60, 84
4, 349680, Note_on_c, 2, 63, 84
4, 349800, Control_c, 2, 7, 60
4, 349916, Note_off_c, 2, 44, 80
4, 349916, Note_off_c, 2, 51, 80
4, 349916, Note_off_c, 2, 56, 80
4, 349916, Note_off_c, 2, 60, 80
4, 349916, Note_off_c, 2, 63, 80
4, 349920, Control_c, 2, 7, 59
4, 349920, Note_on_c, 2, 44, 84
4, 349920, Note_on_c, 2, 51, 84
4, 349920, Note_on_c, 2, 56, 84
4, 349920, Note_on_c, 2, 61, 84
4, 349920, Note_on_c, 2, 63, 84
4, 350040, Control_c, 2, 7, 58
4, 350160, Control_c, 2, 7, 57
4, 350280, Control_c, 2, 7, 56
4, 350396, Note_off_c, 2, 44, 80
4, 350396, Note_off_c, 2, 51, 80
4, 350396, Note_off_c, 2, 56, 80
4, 350396, Note_off_c, 2, 61, 80
4, 350396, Note_off_c, 2, 63, 80
4, 350400, Control_c, 2, 7, 55
4, 350400, Note_on_c, 2, 44, 84
4, 350400, Note_on_c, 2, 51, 84
4, 350400, Note_on_c, 2, 56, 84
4, 350400, Note_on_c, 2, 60, 84
4, 350400, Note_on_c, 2, 63, 84
4, 350520, Control_c, 2, 7, 54
4, 350640, Control_c, 2, 7, 53
4, 350760, Control_c, 2, 7, 52
4, 350880, Control_c, 2, 7, 51
4, 351000, Control_c, 2, 7, 50
4, 351120, Control_c, 2, 7, 49
4, 351240, Control_c, 2, 7, 48
4, 351356, Note_off_c, 2, 44, 80
4, 351356, Note_off_c, 2, 51, 80
4, 351356, Note_off_c, 2, 56, 80
4, 351356, Note_off_c, 2, 60, 80
4, 351356, Note_off_c, 2, 63, 80
4, 351360, Note_on_c, 2, 49, 84
4, 351360, Note_on_c, 2, 56, 84
4, 351360, Note_on_c, 2, 61, 84
4, 351360, Note_on_c, 2, 65, 84
4, 351480, Control_c, 2, 7, 47
4, 351600, Control_c, 2, 7, 46
4, 351720, Control_c, 2, 7, 45
4, 351840, Control_c, 2, 7, 44
4, 351960, Control_c, 2, 7, 43
4, 352076, Note_off_c, 2, 49, 80
4, 352076, Note_off_c, 2, 56, 80
4, 352076, Note_off_c, 2, 61, 80
4, 352076, Note_off_c, 2, 65, 80
4, 352080, Control_c, 2, 7, 42
4, 352080, Note_on_c, 2, 49, 84
4, 352080, Note_on_c, 2, 56, 84
4, 352080, Note_on_c, 2, 61, 84
4, 352080, Note_on_c, 2, 65, 84
4, 352200, Control_c, 2, 7, 41
4, 352316, Note_off_c, 2, 49, 80
4, 352316, Note_off_c, 2, 56, 80
4, 352316, Note_off_c, 2, 61, 80
4, 352316, Note_off_c, 2, 65, 80
4, 352320, Control_c, 2, 7, 40
4, 352320, Note_on_c, 2, 49, 84
4, 352320, Note_on_c, 2, 56, 84
4, 352320, Note_on_c, 2, 61, 84
4, 352320, Note_on_c, 2, 65, 84
4, 352440, Control_c, 2, 7, 39
4, 352560, Control_c, 2, 7, 38
4, 352680, Control_c, 2, 7, 37
4, 352800, Control_c, 2, 7, 36
4, 352920, Control_c, 2, 7, 35
4, 353036, Note_off_c, 2, 49, 80
4, 353036, Note_off_c, 2, 56, 80
4, 353036, Note_off_c, 2, 61, 80
4, 353036, Note_off_c, 2, 65, 80
4, 353040, Control_c, 2, 7, 34
4, 353040, Note_on_c, 2, 49, 84
4, 353040, Note_on_c, 2, 56, 84
4, 353040, Note_on_c, 2, 61, 84
4, 353040, Note_on_c, 2, 65, 84
4, 353160, Control_c, 2, 7, 33
4, 353280, Control_c, 2, 7, 32
4, 353400, Control_c, 2, 7, 31
4, 353516, Note_off_c, 2, 49, 80
4, 353516, Note_off_c, 2, 56, 80
4, 353516, Note_off_c, 2, 61, 80
4, 353516, Note_off_c, 2, 65, 80
4, 353520, Control_c, 2, 7, 30
4, 353520, Note_on_c, 2, 49, 84
4, 353520, Note_on_c, 2, 56, 84
4, 353520, Note_on_c, 2, 61, 84
4, 353520, Note_on_c, 2, 65, 84
4, 353640, Control_c, 2, 7, 29
4, 353760, Control_c, 2, 7, 28
4, 353880, Control_c, 2, 7, 27
4, 353996, Note_off_c, 2, 49, 80
4, 353996, Note_off_c, 2, 56, 80
4, 353996, Note_off_c, 2, 61, 80
4, 353996, Note_off_c, 2, 65, 80
4, 354000, Control_c, 2, 7, 26
4, 354000, Note_on_c, 2, 49, 84
4, 354000, Note_on_c, 2, 56, 84
4, 354000, Note_on_c, 2, 61, 84
4, 354000, Note_on_c, 2, 65, 84
4, 354120, Control_c, 2, 7, 25
4, 354236, Note_off_c, 2, 49, 80
4, 354236, Note_off_c, 2, 56, 80
4, 354236, Note_off_c, 2, 61, 80
4, 354236, Note_off_c, 2, 65, 80
4, 354240, Control_c, 2, 7, 24
4, 354240, Note_on_c, 2, 49, 84
4, 354240, Note_on_c, 2, 56, 84
4, 354240, Note_on_c, 2, 61, 84
4, 354240, Note_on_c, 2, 65, 84
4, 354360, Control_c, 2, 7, 23
4, 354480, Control_c, 2, 7, 22
4, 354600, Control_c, 2, 7, 21
4, 354720, Control_c, 2, 7, 20
4, 354840, Control_c, 2, 7, 19
4, 354960, Control_c, 2, 7, 18
4, 355080, Control_c, 2, 7, 17
4, 355196, Note_off_c, 2, 49, 80
4, 355196, Note_off_c, 2, 56, 80
4, 355196, Note_off_c, 2, 61, 80
4, 355196, Note_off_c, 2, 65, 80
4, 355200, Control_c, 2, 7, 16
4, 355200, Control_c, 2, 7, 15
4, 355200, Note_on_c, 2, 44, 84
4, 355200, Note_on_c, 2, 51, 84
4, 355200, Note_on_c, 2, 56, 84
4, 355320, Control_c, 2, 7, 14
4, 355440, Control_c, 2, 7, 13
4, 355560, Control_c, 2, 7, 12
4, 355676, Note_off_c, 2, 44, 80
4, 355676, Note_off_c, 2, 51, 80
4, 355676, Note_off_c, 2, 56, 80
4, 355680, Control_c, 2, 7, 11
4, 355680, Note_on_c, 2, 44, 84
4, 355680, Note_on_c, 2, 51, 84
4, 355680, Note_on_c, 2, 56, 84
4, 355680, Note_on_c, 2, 60, 84
4, 355680, Note_on_c, 2, 63, 84
4, 355800, Control_c, 2, 7, 10
4, 355920, Control_c, 2, 7, 9
4, 356040, Control_c, 2, 7, 8
4, 356156, Note_off_c, 2, 44, 80
4, 356156, Note_off_c, 2, 51, 80
4, 356156, Note_off_c, 2, 56, 80
4, 356156, Note_off_c, 2, 60, 80
4, 356156, Note_off_c, 2, 63, 80
4, 356160, Note_on_c, 2, 44, 84
4, 356160, Note_on_c, 2, 51, 84
4, 356160, Note_on_c, 2, 56, 84
4, 356160, Note_on_c, 2, 60, 84
4, 356160, Note_on_c, 2, 63, 84
4, 356280, Control_c, 2, 7, 7
4, 356400, Control_c, 2, 7, 6
4, 356520, Control_c, 2, 7, 5
4, 356640, Control_c, 2, 7, 4
4, 356760, Control_c, 2, 7, 3
4, 356876, Note_off_c, 2, 44, 80
4, 356876, Note_off_c, 2, 51, 80
4, 356876, Note_off_c, 2, 56, 80
4, 356876, Note_off_c, 2, 60, 80
4, 356876, Note_off_c, 2, 63, 80
4, 356880, Control_c, 2, 7, 2
4, 356880, Note_on_c, 2, 44, 84
4, 356880, Note_on_c, 2, 51, 84
4, 356880, Note_on_c, 2, 56, 84
4, 356880, Note_on_c, 2, 61, 84
4, 356880, Note_on_c, 2, 63, 84
4, 357000, Control_c, 2, 7, 1
4, 357120, Control_c, 2, 7, 0
4, 357356, Note_off_c, 2, 44, 80
4, 357356, Note_off_c, 2, 51, 80
4, 357356, Note_off_c, 2, 56, 80
4, 357356, Note_off_c, 2, 61, 80
4, 357356, Note_off_c, 2, 63, 80
4, 357360, Note_on_c, 2, 44, 84
4, 357360, Note_on_c, 2, 51, 84
4, 357360, Note_on_c, 2, 56, 84
4, 357360, Note_on_c, 2, 60, 84
4, 357360, Note_on_c, 2, 63, 84
4, 357596, Note_off_c, 2, 44, 80
4, 357596, Note_off_c, 2, 51, 80
4, 357596, Note_off_c, 2, 56, 80
4, 357596, Note_off_c, 2, 60, 80
4, 357596, Note_off_c, 2, 63, 80
4, 357600, Note_on_c, 2, 44, 84
4, 357600, Note_on_c, 2, 51, 84
4, 357600, Note_on_c, 2, 56, 84
4, 357600, Note_on_c, 2, 61, 84
4, 357600, Note_on_c, 2, 63, 84
4, 358076, Note_off_c, 2, 44, 80
4, 358076, Note_off_c, 2, 51, 80
4, 358076, Note_off_c, 2, 56, 80
4, 358076, Note_off_c, 2, 61, 80
4, 358076, Note_off_c, 2, 63, 80
4, 358080, Note_on_c, 2, 44, 84
4, 358080, Note_on_c, 2, 51, 84
4, 358080, Note_on_c, 2, 56, 84
4, 358080, Note_on_c, 2, 60, 84
4, 358080, Note_on_c, 2, 63, 84
4, 359036, Note_off_c, 2, 44, 80
4, 359036, Note_off_c, 2, 51, 80
4, 359036, Note_off_c, 2, 56, 80
4, 359036, Note_off_c, 2, 60, 80
4, 359036, Note_off_c, 2, 63, 80
4, 359040, Note_on_c, 2, 49, 84
4, 359040, Note_on_c, 2, 56, 84
4, 359040, Note_on_c, 2, 61, 84
4, 359040, Note_on_c, 2, 65, 84
4, 359756, Note_off_c, 2, 49, 80
4, 359756, Note_off_c, 2, 56, 80
4, 359756, Note_off_c, 2, 61, 80
4, 359756, Note_off_c, 2, 65, 80
4, 359760, Note_on_c, 2, 49, 84
4, 359760, Note_on_c, 2, 56, 84
4, 359760, Note_on_c, 2, 61, 84
4, 359760, Note_on_c, 2, 65, 84
4, 359996, Note_off_c, 2, 49, 80
4, 359996, Note_off_c, 2, 56, 80
4, 359996, Note_off_c, 2, 61, 80
4, 359996, Note_off_c, 2, 65, 80
4, 360000, Note_on_c, 2, 49, 84
4, 360000, Note_on_c, 2, 56, 84
4, 360000, Note_on_c, 2, 61, 84
4, 360000, Note_on_c, 2, 65, 84
4, 360716, Note_off_c, 2, 49, 80
4, 360716, Note_off_c, 2, 56, 80
4, 360716, Note_off_c, 2, 61, 80
4, 360716, Note_off_c, 2, 65, 80
4, 360720, Note_on_c, 2, 49, 84
4, 360720, Note_on_c, 2, 56, 84
4, 360720, Note_on_c, 2, 61, 84
4, 360720, Note_on_c, 2, 65, 84
4, 361196, Note_off_c, 2, 49, 80
4, 361196, Note_off_c, 2, 56, 80
4, 361196, Note_off_c, 2, 61, 80
4, 361196, Note_off_c, 2, 65, 80
4, 361200, Note_on_c, 2, 49, 84
4, 361200, Note_on_c, 2, 56, 84
4, 361200, Note_on_c, 2, 61, 84
4, 361200, Note_on_c, 2, 65, 84
4, 361676, Note_off_c, 2, 49, 80
4, 361676, Note_off_c, 2, 56, 80
4, 361676, Note_off_c, 2, 61, 80
4, 361676, Note_off_c, 2, 65, 80
4, 361680, Note_on_c, 2, 49, 84
4, 361680, Note_on_c, 2, 56, 84
4, 361680, Note_on_c, 2, 61, 84
4, 361680, Note_on_c, 2, 65, 84
4, 361916, Note_off_c, 2, 49, 80
4, 361916, Note_off_c, 2, 56, 80
4, 361916, Note_off_c, 2, 61, 80
4, 361916, Note_off_c, 2, 65, 80
4, 361920, Note_on_c, 2, 49, 84
4, 361920, Note_on_c, 2, 56, 84
4, 361920, Note_on_c, 2, 61, 84
4, 361920, Note_on_c, 2, 65, 84
4, 362156, Note_off_c, 2, 49, 80
4, 362156, Note_off_c, 2, 56, 80
4, 362156, Note_off_c, 2, 61, 80
4, 362156, Note_off_c, 2, 65, 80
4, 362160, Note_on_c, 2, 63, 84
4, 362396, Note_off_c, 2, 63, 80
4, 362400, Note_on_c, 2, 61, 84
4, 362876, Note_off_c, 2, 61, 80
4, 362876, End_track
5, 0, Start_track
5, 0, Title_t, "Murray"
5, 240, Control_c, 3, 121, 0
5, 240, Control_c, 3, 123, 0
5, 240, Control_c, 3, 100, 0
5, 240, Control_c, 3, 38, 0
5, 240, Control_c, 3, 101, 0
5, 240, Control_c, 3, 6, 12
5, 240, Pitch_bend_c, 3, 8192
5, 300, Program_c, 3, 33
5, 300, Control_c, 3, 7, 118
5, 300, Control_c, 3, 10, 64
5, 1920, Note_on_c, 3, 32, 109
5, 2636, Note_off_c, 3, 32, 80
5, 2640, Note_on_c, 3, 32, 109
5, 2876, Note_off_c, 3, 32, 80
5, 2880, Note_on_c, 3, 32, 109
5, 3116, Note_off_c, 3, 32, 80
5, 3120, Note_on_c, 3, 32, 109
5, 3596, Note_off_c, 3, 32, 80
5, 3600, Note_on_c, 3, 32, 109
5, 3836, Note_off_c, 3, 32, 80
5, 3840, Note_on_c, 3, 32, 109
5, 4076, Note_off_c, 3, 32, 80
5, 4080, Note_on_c, 3, 32, 109
5, 4316, Note_off_c, 3, 32, 80
5, 4320, Note_on_c, 3, 32, 109
5, 4556, Note_off_c, 3, 32, 80
5, 4560, Note_on_c, 3, 32, 109
5, 4796, Note_off_c, 3, 32, 80
5, 4800, Note_on_c, 3, 32, 109
5, 5036, Note_off_c, 3, 32, 80
5, 5040, Note_on_c, 3, 32, 109
5, 5276, Note_off_c, 3, 32, 80
5, 5280, Note_on_c, 3, 32, 109
5, 5516, Note_off_c, 3, 32, 80
5, 5520, Note_on_c, 3, 32, 109
5, 5756, Note_off_c, 3, 32, 80
5, 5760, Note_on_c, 3, 37, 109
5, 6476, Note_off_c, 3, 37, 80
5, 6480, Note_on_c, 3, 37, 109
5, 6716, Note_off_c, 3, 37, 80
5, 6720, Note_on_c, 3, 37, 109
5, 6956, Note_off_c, 3, 37, 80
5, 6960, Note_on_c, 3, 37, 109
5, 7196, Note_off_c, 3, 37, 80
5, 7200, Note_on_c, 3, 37, 109
5, 7436, Note_off_c, 3, 37, 80
5, 7440, Note_on_c, 3, 37, 109
5, 7676, Note_off_c, 3, 37, 80
5, 7680, Note_on_c, 3, 37, 109
5, 7916, Note_off_c, 3, 37, 80
5, 7920, Note_on_c, 3, 37, 109
5, 8156, Note_off_c, 3, 37, 80
5, 8160, Note_on_c, 3, 37, 109
5, 8396, Note_off_c, 3, 37, 80
5, 8400, Note_on_c, 3, 37, 109
5, 8636, Note_off_c, 3, 37, 80
5, 8640, Note_on_c, 3, 37, 109
5, 8876, Note_off_c, 3, 37, 80
5, 8880, Note_on_c, 3, 37, 109
5, 9116, Note_off_c, 3, 37, 80
5, 9120, Note_on_c, 3, 37, 109
5, 9356, Note_off_c, 3, 37, 80
5, 9360, Note_on_c, 3, 37, 109
5, 9596, Note_off_c, 3, 37, 80
5, 9600, Note_on_c, 3, 32, 109
5, 10316, Note_off_c, 3, 32, 80
5, 10320, Note_on_c, 3, 32, 109
5, 10556, Note_off_c, 3, 32, 80
5, 10560, Note_on_c, 3, 32, 109
5, 10796, Note_off_c, 3, 32, 80
5, 10800, Note_on_c, 3, 32, 109
5, 11276, Note_off_c, 3, 32, 80
5, 11280, Note_on_c, 3, 32, 109
5, 11516, Note_off_c, 3, 32, 80
5, 11520, Note_on_c, 3, 32, 109
5, 11756, Note_off_c, 3, 32, 80
5, 11760, Note_on_c, 3, 32, 109
5, 11996, Note_off_c, 3, 32, 80
5, 12000, Note_on_c, 3, 32, 109
5, 12236, Note_off_c, 3, 32, 80
5, 12240, Note_on_c, 3, 32, 109
5, 12476, Note_off_c, 3, 32, 80
5, 12480, Note_on_c, 3, 32, 109
5, 12716, Note_off_c, 3, 32, 80
5, 12720, Note_on_c, 3, 32, 109
5, 12956, Note_off_c, 3, 32, 80
5, 12960, Note_on_c, 3, 32, 109
5, 13196, Note_off_c, 3, 32, 80
5, 13200, Note_on_c, 3, 32, 109
5, 13436, Note_off_c, 3, 32, 80
5, 13440, Note_on_c, 3, 37, 109
5, 14156, Note_off_c, 3, 37, 80
5, 14160, Note_on_c, 3, 37, 109
5, 14396, Note_off_c, 3, 37, 80
5, 14400, Note_on_c, 3, 37, 109
5, 14636, Note_off_c, 3, 37, 80
5, 14640, Note_on_c, 3, 37, 109
5, 14876, Note_off_c, 3, 37, 80
5, 14880, Note_on_c, 3, 37, 109
5, 15116, Note_off_c, 3, 37, 80
5, 15120, Note_on_c, 3, 37, 109
5, 15356, Note_off_c, 3, 37, 80
5, 15360, Note_on_c, 3, 37, 109
5, 15596, Note_off_c, 3, 37, 80
5, 15600, Note_on_c, 3, 37, 109
5, 15836, Note_off_c, 3, 37, 80
5, 15840, Note_on_c, 3, 37, 109
5, 16076, Note_off_c, 3, 37, 80
5, 16080, Note_on_c, 3, 37, 109
5, 16316, Note_off_c, 3, 37, 80
5, 16320, Note_on_c, 3, 37, 109
5, 16556, Note_off_c, 3, 37, 80
5, 16560, Note_on_c, 3, 37, 109
5, 16796, Note_off_c, 3, 37, 80
5, 16800, Note_on_c, 3, 37, 109
5, 17036, Note_off_c, 3, 37, 80
5, 17040, Note_on_c, 3, 37, 109
5, 17276, Note_off_c, 3, 37, 80
5, 17280, Note_on_c, 3, 32, 109
5, 17996, Note_off_c, 3, 32, 80
5, 18000, Note_on_c, 3, 32, 109
5, 18236, Note_off_c, 3, 32, 80
5, 18240, Note_on_c, 3, 32, 109
5, 18476, Note_off_c, 3, 32, 80
5, 18480, Note_on_c, 3, 32, 109
5, 18956, Note_off_c, 3, 32, 80
5, 18960, Note_on_c, 3, 32, 109
5, 19196, Note_off_c, 3, 32, 80
5, 19200, Note_on_c, 3, 32, 109
5, 19436, Note_off_c, 3, 32, 80
5, 19440, Note_on_c, 3, 32, 109
5, 19676, Note_off_c, 3, 32, 80
5, 19680, Note_on_c, 3, 32, 109
5, 19916, Note_off_c, 3, 32, 80
5, 19920, Note_on_c, 3, 32, 109
5, 20156, Note_off_c, 3, 32, 80
5, 20160, Note_on_c, 3, 32, 109
5, 20396, Note_off_c, 3, 32, 80
5, 20400, Note_on_c, 3, 32, 109
5, 20636, Note_off_c, 3, 32, 80
5, 20640, Note_on_c, 3, 32, 109
5, 20876, Note_off_c, 3, 32, 80
5, 20880, Note_on_c, 3, 32, 109
5, 21116, Note_off_c, 3, 32, 80
5, 21120, Note_on_c, 3, 37, 109
5, 21836, Note_off_c, 3, 37, 80
5, 21840, Note_on_c, 3, 37, 109
5, 22076, Note_off_c, 3, 37, 80
5, 22080, Note_on_c, 3, 37, 109
5, 22316, Note_off_c, 3, 37, 80
5, 22320, Note_on_c, 3, 37, 109
5, 22556, Note_off_c, 3, 37, 80
5, 22560, Note_on_c, 3, 37, 109
5, 22796, Note_off_c, 3, 37, 80
5, 22800, Note_on_c, 3, 37, 109
5, 23036, Note_off_c, 3, 37, 80
5, 23040, Note_on_c, 3, 37, 109
5, 23276, Note_off_c, 3, 37, 80
5, 23280, Note_on_c, 3, 37, 109
5, 23516, Note_off_c, 3, 37, 80
5, 23520, Note_on_c, 3, 37, 109
5, 23756, Note_off_c, 3, 37, 80
5, 23760, Note_on_c, 3, 37, 109
5, 23996, Note_off_c, 3, 37, 80
5, 24000, Note_on_c, 3, 37, 109
5, 24236, Note_off_c, 3, 37, 80
5, 24240, Note_on_c, 3, 37, 109
5, 24476, Note_off_c, 3, 37, 80
5, 24480, Note_on_c, 3, 37, 109
5, 24716, Note_off_c, 3, 37, 80
5, 24720, Note_on_c, 3, 37, 109
5, 24956, Note_off_c, 3, 37, 80
5, 24960, Note_on_c, 3, 32, 109
5, 25676, Note_off_c, 3, 32, 80
5, 25680, Note_on_c, 3, 32, 109
5, 25916, Note_off_c, 3, 32, 80
5, 25920, Note_on_c, 3, 32, 109
5, 26156, Note_off_c, 3, 32, 80
5, 26160, Note_on_c, 3, 32, 109
5, 26636, Note_off_c, 3, 32, 80
5, 26640, Note_on_c, 3, 32, 109
5, 26876, Note_off_c, 3, 32, 80
5, 26880, Note_on_c, 3, 32, 109
5, 27116, Note_off_c, 3, 32, 80
5, 27120, Note_on_c, 3, 32, 109
5, 27356, Note_off_c, 3, 32, 80
5, 27360, Note_on_c, 3, 32, 109
5, 27596, Note_off_c, 3, 32, 80
5, 27600, Note_on_c, 3, 32, 109
5, 27836, Note_off_c, 3, 32, 80
5, 27840, Note_on_c, 3, 32, 109
5, 28076, Note_off_c, 3, 32, 80
5, 28080, Note_on_c, 3, 32, 109
5, 28316, Note_off_c, 3, 32, 80
5, 28320, Note_on_c, 3, 32, 109
5, 28556, Note_off_c, 3, 32, 80
5, 28560, Note_on_c, 3, 32, 109
5, 28796, Note_off_c, 3, 32, 80
5, 28800, Note_on_c, 3, 37, 109
5, 29516, Note_off_c, 3, 37, 80
5, 29520, Note_on_c, 3, 37, 109
5, 29756, Note_off_c, 3, 37, 80
5, 29760, Note_on_c, 3, 37, 109
5, 29996, Note_off_c, 3, 37, 80
5, 30000, Note_on_c, 3, 37, 109
5, 30236, Note_off_c, 3, 37, 80
5, 30240, Note_on_c, 3, 37, 109
5, 30476, Note_off_c, 3, 37, 80
5, 30480, Note_on_c, 3, 37, 109
5, 30716, Note_off_c, 3, 37, 80
5, 30720, Note_on_c, 3, 37, 109
5, 30956, Note_off_c, 3, 37, 80
5, 30960, Note_on_c, 3, 37, 109
5, 31196, Note_off_c, 3, 37, 80
5, 31200, Note_on_c, 3, 37, 109
5, 31436, Note_off_c, 3, 37, 80
5, 31440, Note_on_c, 3, 37, 109
5, 31676, Note_off_c, 3, 37, 80
5, 31680, Note_on_c, 3, 37, 109
5, 31916, Note_off_c, 3, 37, 80
5, 31920, Note_on_c, 3, 37, 109
5, 32156, Note_off_c, 3, 37, 80
5, 32160, Note_on_c, 3, 37, 109
5, 32396, Note_off_c, 3, 37, 80
5, 32400, Note_on_c, 3, 37, 109
5, 32636, Note_off_c, 3, 37, 80
5, 32640, Note_on_c, 3, 32, 109
5, 33356, Note_off_c, 3, 32, 80
5, 33360, Note_on_c, 3, 32, 109
5, 33596, Note_off_c, 3, 32, 80
5, 33600, Note_on_c, 3, 32, 109
5, 33836, Note_off_c, 3, 32, 80
5, 33840, Note_on_c, 3, 32, 109
5, 34316, Note_off_c, 3, 32, 80
5, 34320, Note_on_c, 3, 32, 109
5, 34556, Note_off_c, 3, 32, 80
5, 34560, Note_on_c, 3, 32, 109
5, 34796, Note_off_c, 3, 32, 80
5, 34800, Note_on_c, 3, 32, 109
5, 35036, Note_off_c, 3, 32, 80
5, 35040, Note_on_c, 3, 32, 109
5, 35276, Note_off_c, 3, 32, 80
5, 35280, Note_on_c, 3, 32, 109
5, 35516, Note_off_c, 3, 32, 80
5, 35520, Note_on_c, 3, 32, 109
5, 35756, Note_off_c, 3, 32, 80
5, 35760, Note_on_c, 3, 32, 109
5, 35996, Note_off_c, 3, 32, 80
5, 36000, Note_on_c, 3, 32, 109
5, 36236, Note_off_c, 3, 32, 80
5, 36240, Note_on_c, 3, 32, 109
5, 36476, Note_off_c, 3, 32, 80
5, 36480, Note_on_c, 3, 37, 109
5, 37196, Note_off_c, 3, 37, 80
5, 37200, Note_on_c, 3, 37, 109
5, 37436, Note_off_c, 3, 37, 80
5, 37440, Note_on_c, 3, 37, 109
5, 37676, Note_off_c, 3, 37, 80
5, 37680, Note_on_c, 3, 37, 109
5, 37916, Note_off_c, 3, 37, 80
5, 37920, Note_on_c, 3, 37, 109
5, 38156, Note_off_c, 3, 37, 80
5, 38160, Note_on_c, 3, 37, 109
5, 38396, Note_off_c, 3, 37, 80
5, 38400, Note_on_c, 3, 37, 109
5, 38636, Note_off_c, 3, 37, 80
5, 38640, Note_on_c, 3, 37, 109
5, 38876, Note_off_c, 3, 37, 80
5, 38880, Note_on_c, 3, 37, 109
5, 39116, Note_off_c, 3, 37, 80
5, 39120, Note_on_c, 3, 37, 109
5, 39356, Note_off_c, 3, 37, 80
5, 39360, Note_on_c, 3, 37, 109
5, 39596, Note_off_c, 3, 37, 80
5, 39600, Note_on_c, 3, 37, 109
5, 39836, Note_off_c, 3, 37, 80
5, 39840, Note_on_c, 3, 37, 109
5, 40076, Note_off_c, 3, 37, 80
5, 40080, Note_on_c, 3, 37, 109
5, 40316, Note_off_c, 3, 37, 80
5, 40320, Note_on_c, 3, 32, 109
5, 41036, Note_off_c, 3, 32, 80
5, 41040, Note_on_c, 3, 32, 109
5, 41276, Note_off_c, 3, 32, 80
5, 41280, Note_on_c, 3, 32, 109
5, 41516, Note_off_c, 3, 32, 80
5, 41520, Note_on_c, 3, 32, 109
5, 41996, Note_off_c, 3, 32, 80
5, 42000, Note_on_c, 3, 32, 109
5, 42236, Note_off_c, 3, 32, 80
5, 42240, Note_on_c, 3, 32, 109
5, 42476, Note_off_c, 3, 32, 80
5, 42480, Note_on_c, 3, 32, 109
5, 42716, Note_off_c, 3, 32, 80
5, 42720, Note_on_c, 3, 32, 109
5, 42956, Note_off_c, 3, 32, 80
5, 42960, Note_on_c, 3, 32, 109
5, 43196, Note_off_c, 3, 32, 80
5, 43200, Note_on_c, 3, 32, 109
5, 43436, Note_off_c, 3, 32, 80
5, 43440, Note_on_c, 3, 32, 109
5, 43676, Note_off_c, 3, 32, 80
5, 43680, Note_on_c, 3, 32, 109
5, 43916, Note_off_c, 3, 32, 80
5, 43920, Note_on_c, 3, 32, 109
5, 44156, Note_off_c, 3, 32, 80
5, 44160, Note_on_c, 3, 37, 109
5, 44876, Note_off_c, 3, 37, 80
5, 44880, Note_on_c, 3, 37, 109
5, 45116, Note_off_c, 3, 37, 80
5, 45120, Note_on_c, 3, 37, 109
5, 45356, Note_off_c, 3, 37, 80
5, 45360, Note_on_c, 3, 37, 109
5, 45596, Note_off_c, 3, 37, 80
5, 45600, Note_on_c, 3, 37, 109
5, 45836, Note_off_c, 3, 37, 80
5, 45840, Note_on_c, 3, 37, 109
5, 46076, Note_off_c, 3, 37, 80
5, 46080, Note_on_c, 3, 37, 109
5, 46316, Note_off_c, 3, 37, 80
5, 46320, Note_on_c, 3, 37, 109
5, 46556, Note_off_c, 3, 37, 80
5, 46560, Note_on_c, 3, 37, 109
5, 46796, Note_off_c, 3, 37, 80
5, 46800, Note_on_c, 3, 37, 109
5, 47036, Note_off_c, 3, 37, 80
5, 47040, Note_on_c, 3, 37, 109
5, 47276, Note_off_c, 3, 37, 80
5, 47280, Note_on_c, 3, 37, 109
5, 47516, Note_off_c, 3, 37, 80
5, 47520, Note_on_c, 3, 37, 109
5, 47756, Note_off_c, 3, 37, 80
5, 47760, Note_on_c, 3, 37, 109
5, 47996, Note_off_c, 3, 37, 80
5, 48000, Note_on_c, 3, 32, 109
5, 48716, Note_off_c, 3, 32, 80
5, 48720, Note_on_c, 3, 32, 109
5, 48956, Note_off_c, 3, 32, 80
5, 48960, Note_on_c, 3, 32, 109
5, 49196, Note_off_c, 3, 32, 80
5, 49200, Note_on_c, 3, 32, 109
5, 49676, Note_off_c, 3, 32, 80
5, 49680, Note_on_c, 3, 32, 109
5, 49916, Note_off_c, 3, 32, 80
5, 49920, Note_on_c, 3, 32, 109
5, 50156, Note_off_c, 3, 32, 80
5, 50160, Note_on_c, 3, 32, 109
5, 50396, Note_off_c, 3, 32, 80
5, 50400, Note_on_c, 3, 32, 109
5, 50636, Note_off_c, 3, 32, 80
5, 50640, Note_on_c, 3, 32, 109
5, 50876, Note_off_c, 3, 32, 80
5, 50880, Note_on_c, 3, 32, 109
5, 51116, Note_off_c, 3, 32, 80
5, 51120, Note_on_c, 3, 32, 109
5, 51356, Note_off_c, 3, 32, 80
5, 51360, Note_on_c, 3, 32, 109
5, 51596, Note_off_c, 3, 32, 80
5, 51600, Note_on_c, 3, 32, 109
5, 51836, Note_off_c, 3, 32, 80
5, 51840, Note_on_c, 3, 39, 109
5, 52556, Note_off_c, 3, 39, 80
5, 52560, Note_on_c, 3, 39, 109
5, 52796, Note_off_c, 3, 39, 80
5, 52800, Note_on_c, 3, 39, 109
5, 53036, Note_off_c, 3, 39, 80
5, 53040, Note_on_c, 3, 39, 109
5, 53276, Note_off_c, 3, 39, 80
5, 53280, Note_on_c, 3, 39, 109
5, 53516, Note_off_c, 3, 39, 80
5, 53520, Note_on_c, 3, 39, 109
5, 53756, Note_off_c, 3, 39, 80
5, 53760, Note_on_c, 3, 39, 109
5, 53996, Note_off_c, 3, 39, 80
5, 54000, Note_on_c, 3, 39, 109
5, 54236, Note_off_c, 3, 39, 80
5, 54240, Note_on_c, 3, 39, 109
5, 54476, Note_off_c, 3, 39, 80
5, 54480, Note_on_c, 3, 39, 109
5, 54716, Note_off_c, 3, 39, 80
5, 54720, Note_on_c, 3, 39, 109
5, 54956, Note_off_c, 3, 39, 80
5, 54960, Note_on_c, 3, 39, 109
5, 55196, Note_off_c, 3, 39, 80
5, 55200, Note_on_c, 3, 39, 109
5, 55436, Note_off_c, 3, 39, 80
5, 55440, Note_on_c, 3, 39, 109
5, 55676, Note_off_c, 3, 39, 80
5, 55680, Note_on_c, 3, 30, 109
5, 56396, Note_off_c, 3, 30, 80
5, 56400, Note_on_c, 3, 30, 109
5, 56636, Note_off_c, 3, 30, 80
5, 56640, Note_on_c, 3, 30, 109
5, 56876, Note_off_c, 3, 30, 80
5, 56880, Note_on_c, 3, 30, 109
5, 57356, Note_off_c, 3, 30, 80
5, 57360, Note_on_c, 3, 30, 109
5, 57596, Note_off_c, 3, 30, 80
5, 57600, Note_on_c, 3, 30, 109
5, 57836, Note_off_c, 3, 30, 80
5, 57840, Note_on_c, 3, 30, 109
5, 58076, Note_off_c, 3, 30, 80
5, 58080, Note_on_c, 3, 30, 109
5, 58316, Note_off_c, 3, 30, 80
5, 58320, Note_on_c, 3, 30, 109
5, 58556, Note_off_c, 3, 30, 80
5, 58560, Note_on_c, 3, 30, 109
5, 58796, Note_off_c, 3, 30, 80
5, 58800, Note_on_c, 3, 30, 109
5, 59036, Note_off_c, 3, 30, 80
5, 59040, Note_on_c, 3, 30, 109
5, 59276, Note_off_c, 3, 30, 80
5, 59280, Note_on_c, 3, 30, 109
5, 59516, Note_off_c, 3, 30, 80
5, 59520, Note_on_c, 3, 37, 109
5, 60236, Note_off_c, 3, 37, 80
5, 60240, Note_on_c, 3, 37, 109
5, 60476, Note_off_c, 3, 37, 80
5, 60480, Note_on_c, 3, 37, 109
5, 60716, Note_off_c, 3, 37, 80
5, 60720, Note_on_c, 3, 37, 109
5, 60956, Note_off_c, 3, 37, 80
5, 60960, Note_on_c, 3, 37, 109
5, 61196, Note_off_c, 3, 37, 80
5, 61200, Note_on_c, 3, 37, 109
5, 61436, Note_off_c, 3, 37, 80
5, 61440, Note_on_c, 3, 32, 109
5, 61676, Note_off_c, 3, 32, 80
5, 61680, Note_on_c, 3, 32, 109
5, 61916, Note_off_c, 3, 32, 80
5, 61920, Note_on_c, 3, 32, 109
5, 62156, Note_off_c, 3, 32, 80
5, 62160, Note_on_c, 3, 32, 109
5, 62396, Note_off_c, 3, 32, 80
5, 62400, Note_on_c, 3, 32, 109
5, 62636, Note_off_c, 3, 32, 80
5, 62640, Note_on_c, 3, 32, 109
5, 62876, Note_off_c, 3, 32, 80
5, 62880, Note_on_c, 3, 32, 109
5, 63116, Note_off_c, 3, 32, 80
5, 63120, Note_on_c, 3, 32, 109
5, 63356, Note_off_c, 3, 32, 80
5, 63360, Note_on_c, 3, 39, 109
5, 63596, Note_off_c, 3, 39, 80
5, 63600, Note_on_c, 3, 39, 109
5, 63836, Note_off_c, 3, 39, 80
5, 63840, Note_on_c, 3, 39, 109
5, 64076, Note_off_c, 3, 39, 80
5, 64080, Note_on_c, 3, 39, 109
5, 64316, Note_off_c, 3, 39, 80
5, 64320, Note_on_c, 3, 39, 109
5, 64556, Note_off_c, 3, 39, 80
5, 64560, Note_on_c, 3, 39, 109
5, 64796, Note_off_c, 3, 39, 80
5, 64800, Note_on_c, 3, 39, 109
5, 65036, Note_off_c, 3, 39, 80
5, 65040, Note_on_c, 3, 39, 109
5, 65276, Note_off_c, 3, 39, 80
5, 65280, Note_on_c, 3, 39, 109
5, 65516, Note_off_c, 3, 39, 80
5, 65520, Note_on_c, 3, 39, 109
5, 65756, Note_off_c, 3, 39, 80
5, 65760, Note_on_c, 3, 39, 109
5, 65996, Note_off_c, 3, 39, 80
5, 66000, Note_on_c, 3, 39, 109
5, 66236, Note_off_c, 3, 39, 80
5, 66240, Note_on_c, 3, 39, 109
5, 66476, Note_off_c, 3, 39, 80
5, 66480, Note_on_c, 3, 39, 109
5, 66716, Note_off_c, 3, 39, 80
5, 66720, Note_on_c, 3, 39, 109
5, 66956, Note_off_c, 3, 39, 80
5, 66960, Note_on_c, 3, 39, 109
5, 67196, Note_off_c, 3, 39, 80
5, 67200, Note_on_c, 3, 30, 109
5, 67916, Note_off_c, 3, 30, 80
5, 67920, Note_on_c, 3, 30, 109
5, 68156, Note_off_c, 3, 30, 80
5, 68160, Note_on_c, 3, 30, 109
5, 68396, Note_off_c, 3, 30, 80
5, 68400, Note_on_c, 3, 30, 109
5, 68876, Note_off_c, 3, 30, 80
5, 68880, Note_on_c, 3, 30, 109
5, 69116, Note_off_c, 3, 30, 80
5, 69120, Note_on_c, 3, 30, 109
5, 69356, Note_off_c, 3, 30, 80
5, 69360, Note_on_c, 3, 30, 109
5, 69596, Note_off_c, 3, 30, 80
5, 69600, Note_on_c, 3, 30, 109
5, 69836, Note_off_c, 3, 30, 80
5, 69840, Note_on_c, 3, 30, 109
5, 70076, Note_off_c, 3, 30, 80
5, 70080, Note_on_c, 3, 30, 109
5, 70316, Note_off_c, 3, 30, 80
5, 70320, Note_on_c, 3, 30, 109
5, 70556, Note_off_c, 3, 30, 80
5, 70560, Note_on_c, 3, 30, 109
5, 70796, Note_off_c, 3, 30, 80
5, 70800, Note_on_c, 3, 30, 109
5, 71036, Note_off_c, 3, 30, 80
5, 71040, Note_on_c, 3, 37, 109
5, 71756, Note_off_c, 3, 37, 80
5, 71760, Note_on_c, 3, 37, 109
5, 71996, Note_off_c, 3, 37, 80
5, 72000, Note_on_c, 3, 37, 109
5, 72236, Note_off_c, 3, 37, 80
5, 72240, Note_on_c, 3, 37, 109
5, 72476, Note_off_c, 3, 37, 80
5, 72480, Note_on_c, 3, 37, 109
5, 72716, Note_off_c, 3, 37, 80
5, 72720, Note_on_c, 3, 37, 109
5, 72956, Note_off_c, 3, 37, 80
5, 72960, Note_on_c, 3, 32, 109
5, 73196, Note_off_c, 3, 32, 80
5, 73200, Note_on_c, 3, 32, 109
5, 73436, Note_off_c, 3, 32, 80
5, 73440, Note_on_c, 3, 32, 109
5, 73676, Note_off_c, 3, 32, 80
5, 73680, Note_on_c, 3, 32, 109
5, 73916, Note_off_c, 3, 32, 80
5, 73920, Note_on_c, 3, 32, 109
5, 74156, Note_off_c, 3, 32, 80
5, 74160, Note_on_c, 3, 32, 109
5, 74396, Note_off_c, 3, 32, 80
5, 74400, Note_on_c, 3, 32, 109
5, 74636, Note_off_c, 3, 32, 80
5, 74640, Note_on_c, 3, 32, 109
5, 74876, Note_off_c, 3, 32, 80
5, 74880, Note_on_c, 3, 39, 109
5, 75116, Note_off_c, 3, 39, 80
5, 75120, Note_on_c, 3, 39, 109
5, 75356, Note_off_c, 3, 39, 80
5, 75360, Note_on_c, 3, 39, 109
5, 75596, Note_off_c, 3, 39, 80
5, 75600, Note_on_c, 3, 39, 109
5, 75836, Note_off_c, 3, 39, 80
5, 75840, Note_on_c, 3, 39, 109
5, 76076, Note_off_c, 3, 39, 80
5, 76080, Note_on_c, 3, 39, 109
5, 76316, Note_off_c, 3, 39, 80
5, 76320, Note_on_c, 3, 39, 109
5, 76556, Note_off_c, 3, 39, 80
5, 76560, Note_on_c, 3, 39, 109
5, 76796, Note_off_c, 3, 39, 80
5, 76800, Note_on_c, 3, 39, 109
5, 77036, Note_off_c, 3, 39, 80
5, 77040, Note_on_c, 3, 39, 109
5, 77276, Note_off_c, 3, 39, 80
5, 77280, Note_on_c, 3, 39, 109
5, 77516, Note_off_c, 3, 39, 80
5, 77520, Note_on_c, 3, 39, 109
5, 77756, Note_off_c, 3, 39, 80
5, 77760, Note_on_c, 3, 39, 109
5, 77996, Note_off_c, 3, 39, 80
5, 78000, Note_on_c, 3, 39, 109
5, 78236, Note_off_c, 3, 39, 80
5, 78240, Note_on_c, 3, 39, 109
5, 78476, Note_off_c, 3, 39, 80
5, 78480, Note_on_c, 3, 39, 109
5, 78716, Note_off_c, 3, 39, 80
5, 78720, Note_on_c, 3, 32, 109
5, 79436, Note_off_c, 3, 32, 80
5, 79440, Note_on_c, 3, 32, 109
5, 79676, Note_off_c, 3, 32, 80
5, 79680, Note_on_c, 3, 32, 109
5, 79916, Note_off_c, 3, 32, 80
5, 79920, Note_on_c, 3, 32, 109
5, 80396, Note_off_c, 3, 32, 80
5, 80400, Note_on_c, 3, 32, 109
5, 80636, Note_off_c, 3, 32, 80
5, 80640, Note_on_c, 3, 32, 109
5, 80876, Note_off_c, 3, 32, 80
5, 80880, Note_on_c, 3, 32, 109
5, 81116, Note_off_c, 3, 32, 80
5, 81120, Note_on_c, 3, 32, 109
5, 81356, Note_off_c, 3, 32, 80
5, 81360, Note_on_c, 3, 32, 109
5, 81596, Note_off_c, 3, 32, 80
5, 81600, Note_on_c, 3, 32, 109
5, 81836, Note_off_c, 3, 32, 80
5, 81840, Note_on_c, 3, 32, 109
5, 82076, Note_off_c, 3, 32, 80
5, 82080, Note_on_c, 3, 32, 109
5, 82316, Note_off_c, 3, 32, 80
5, 82320, Note_on_c, 3, 32, 109
5, 82556, Note_off_c, 3, 32, 80
5, 82560, Note_on_c, 3, 37, 109
5, 83276, Note_off_c, 3, 37, 80
5, 83280, Note_on_c, 3, 37, 109
5, 83516, Note_off_c, 3, 37, 80
5, 83520, Note_on_c, 3, 37, 109
5, 83756, Note_off_c, 3, 37, 80
5, 83760, Note_on_c, 3, 37, 109
5, 83996, Note_off_c, 3, 37, 80
5, 84000, Note_on_c, 3, 37, 109
5, 84236, Note_off_c, 3, 37, 80
5, 84240, Note_on_c, 3, 37, 109
5, 84476, Note_off_c, 3, 37, 80
5, 84480, Note_on_c, 3, 37, 109
5, 84716, Note_off_c, 3, 37, 80
5, 84720, Note_on_c, 3, 37, 109
5, 84956, Note_off_c, 3, 37, 80
5, 84960, Note_on_c, 3, 37, 109
5, 85196, Note_off_c, 3, 37, 80
5, 85200, Note_on_c, 3, 37, 109
5, 85436, Note_off_c, 3, 37, 80
5, 85440, Note_on_c, 3, 37, 109
5, 85676, Note_off_c, 3, 37, 80
5, 85680, Note_on_c, 3, 37, 109
5, 85916, Note_off_c, 3, 37, 80
5, 85920, Note_on_c, 3, 37, 109
5, 86156, Note_off_c, 3, 37, 80
5, 86160, Note_on_c, 3, 37, 109
5, 86396, Note_off_c, 3, 37, 80
5, 86400, Note_on_c, 3, 32, 109
5, 87116, Note_off_c, 3, 32, 80
5, 87120, Note_on_c, 3, 32, 109
5, 87356, Note_off_c, 3, 32, 80
5, 87360, Note_on_c, 3, 32, 109
5, 87596, Note_off_c, 3, 32, 80
5, 87600, Note_on_c, 3, 32, 109
5, 88076, Note_off_c, 3, 32, 80
5, 88080, Note_on_c, 3, 32, 109
5, 88316, Note_off_c, 3, 32, 80
5, 88320, Note_on_c, 3, 32, 109
5, 88556, Note_off_c, 3, 32, 80
5, 88560, Note_on_c, 3, 32, 109
5, 88796, Note_off_c, 3, 32, 80
5, 88800, Note_on_c, 3, 32, 109
5, 89036, Note_off_c, 3, 32, 80
5, 89040, Note_on_c, 3, 32, 109
5, 89276, Note_off_c, 3, 32, 80
5, 89280, Note_on_c, 3, 32, 109
5, 89516, Note_off_c, 3, 32, 80
5, 89520, Note_on_c, 3, 32, 109
5, 89756, Note_off_c, 3, 32, 80
5, 89760, Note_on_c, 3, 32, 109
5, 89996, Note_off_c, 3, 32, 80
5, 90000, Note_on_c, 3, 32, 109
5, 90236, Note_off_c, 3, 32, 80
5, 90240, Note_on_c, 3, 37, 109
5, 90956, Note_off_c, 3, 37, 80
5, 90960, Note_on_c, 3, 37, 109
5, 91196, Note_off_c, 3, 37, 80
5, 91200, Note_on_c, 3, 37, 109
5, 91436, Note_off_c, 3, 37, 80
5, 91440, Note_on_c, 3, 37, 109
5, 91676, Note_off_c, 3, 37, 80
5, 91680, Note_on_c, 3, 37, 109
5, 91916, Note_off_c, 3, 37, 80
5, 91920, Note_on_c, 3, 37, 109
5, 92156, Note_off_c, 3, 37, 80
5, 92160, Note_on_c, 3, 37, 109
5, 92396, Note_off_c, 3, 37, 80
5, 92400, Note_on_c, 3, 37, 109
5, 92636, Note_off_c, 3, 37, 80
5, 92640, Note_on_c, 3, 37, 109
5, 92876, Note_off_c, 3, 37, 80
5, 92880, Note_on_c, 3, 37, 109
5, 93116, Note_off_c, 3, 37, 80
5, 93120, Note_on_c, 3, 37, 109
5, 93356, Note_off_c, 3, 37, 80
5, 93360, Note_on_c, 3, 37, 109
5, 93596, Note_off_c, 3, 37, 80
5, 93600, Note_on_c, 3, 37, 109
5, 93836, Note_off_c, 3, 37, 80
5, 93840, Note_on_c, 3, 37, 109
5, 94076, Note_off_c, 3, 37, 80
5, 94080, Note_on_c, 3, 32, 109
5, 94796, Note_off_c, 3, 32, 80
5, 94800, Note_on_c, 3, 32, 109
5, 95036, Note_off_c, 3, 32, 80
5, 95040, Note_on_c, 3, 32, 109
5, 95276, Note_off_c, 3, 32, 80
5, 95280, Note_on_c, 3, 32, 109
5, 95756, Note_off_c, 3, 32, 80
5, 95760, Note_on_c, 3, 32, 109
5, 95996, Note_off_c, 3, 32, 80
5, 96000, Note_on_c, 3, 32, 109
5, 96236, Note_off_c, 3, 32, 80
5, 96240, Note_on_c, 3, 32, 109
5, 96476, Note_off_c, 3, 32, 80
5, 96480, Note_on_c, 3, 32, 109
5, 96716, Note_off_c, 3, 32, 80
5, 96720, Note_on_c, 3, 32, 109
5, 96956, Note_off_c, 3, 32, 80
5, 96960, Note_on_c, 3, 32, 109
5, 97196, Note_off_c, 3, 32, 80
5, 97200, Note_on_c, 3, 32, 109
5, 97436, Note_off_c, 3, 32, 80
5, 97440, Note_on_c, 3, 32, 109
5, 97676, Note_off_c, 3, 32, 80
5, 97680, Note_on_c, 3, 32, 109
5, 97916, Note_off_c, 3, 32, 80
5, 97920, Note_on_c, 3, 37, 109
5, 98636, Note_off_c, 3, 37, 80
5, 98640, Note_on_c, 3, 37, 109
5, 98876, Note_off_c, 3, 37, 80
5, 98880, Note_on_c, 3, 37, 109
5, 99116, Note_off_c, 3, 37, 80
5, 99120, Note_on_c, 3, 37, 109
5, 99356, Note_off_c, 3, 37, 80
5, 99360, Note_on_c, 3, 37, 109
5, 99596, Note_off_c, 3, 37, 80
5, 99600, Note_on_c, 3, 37, 109
5, 99836, Note_off_c, 3, 37, 80
5, 99840, Note_on_c, 3, 37, 109
5, 100076, Note_off_c, 3, 37, 80
5, 100080, Note_on_c, 3, 37, 109
5, 100316, Note_off_c, 3, 37, 80
5, 100320, Note_on_c, 3, 37, 109
5, 100556, Note_off_c, 3, 37, 80
5, 100560, Note_on_c, 3, 37, 109
5, 100796, Note_off_c, 3, 37, 80
5, 100800, Note_on_c, 3, 37, 109
5, 101036, Note_off_c, 3, 37, 80
5, 101040, Note_on_c, 3, 37, 109
5, 101276, Note_off_c, 3, 37, 80
5, 101280, Note_on_c, 3, 37, 109
5, 101516, Note_off_c, 3, 37, 80
5, 101520, Note_on_c, 3, 37, 109
5, 101756, Note_off_c, 3, 37, 80
5, 101760, Note_on_c, 3, 32, 109
5, 102476, Note_off_c, 3, 32, 80
5, 102480, Note_on_c, 3, 32, 109
5, 102716, Note_off_c, 3, 32, 80
5, 102720, Note_on_c, 3, 32, 109
5, 102956, Note_off_c, 3, 32, 80
5, 102960, Note_on_c, 3, 32, 109
5, 103436, Note_off_c, 3, 32, 80
5, 103440, Note_on_c, 3, 32, 109
5, 103676, Note_off_c, 3, 32, 80
5, 103680, Note_on_c, 3, 32, 109
5, 103916, Note_off_c, 3, 32, 80
5, 103920, Note_on_c, 3, 32, 109
5, 104156, Note_off_c, 3, 32, 80
5, 104160, Note_on_c, 3, 32, 109
5, 104396, Note_off_c, 3, 32, 80
5, 104400, Note_on_c, 3, 32, 109
5, 104636, Note_off_c, 3, 32, 80
5, 104640, Note_on_c, 3, 32, 109
5, 104876, Note_off_c, 3, 32, 80
5, 104880, Note_on_c, 3, 32, 109
5, 105116, Note_off_c, 3, 32, 80
5, 105120, Note_on_c, 3, 32, 109
5, 105356, Note_off_c, 3, 32, 80
5, 105360, Note_on_c, 3, 32, 109
5, 105596, Note_off_c, 3, 32, 80
5, 105600, Note_on_c, 3, 37, 109
5, 106316, Note_off_c, 3, 37, 80
5, 106320, Note_on_c, 3, 37, 109
5, 106556, Note_off_c, 3, 37, 80
5, 106560, Note_on_c, 3, 37, 109
5, 106796, Note_off_c, 3, 37, 80
5, 106800, Note_on_c, 3, 37, 109
5, 107036, Note_off_c, 3, 37, 80
5, 107040, Note_on_c, 3, 37, 109
5, 107276, Note_off_c, 3, 37, 80
5, 107280, Note_on_c, 3, 37, 109
5, 107516, Note_off_c, 3, 37, 80
5, 107520, Note_on_c, 3, 37, 109
5, 107756, Note_off_c, 3, 37, 80
5, 107760, Note_on_c, 3, 37, 109
5, 107996, Note_off_c, 3, 37, 80
5, 108000, Note_on_c, 3, 37, 109
5, 108236, Note_off_c, 3, 37, 80
5, 108240, Note_on_c, 3, 37, 109
5, 108476, Note_off_c, 3, 37, 80
5, 108480, Note_on_c, 3, 37, 109
5, 108716, Note_off_c, 3, 37, 80
5, 108720, Note_on_c, 3, 37, 109
5, 108956, Note_off_c, 3, 37, 80
5, 108960, Note_on_c, 3, 37, 109
5, 109196, Note_off_c, 3, 37, 80
5, 109200, Note_on_c, 3, 37, 109
5, 109436, Note_off_c, 3, 37, 80
5, 109440, Note_on_c, 3, 32, 109
5, 110156, Note_off_c, 3, 32, 80
5, 110160, Note_on_c, 3, 32, 109
5, 110396, Note_off_c, 3, 32, 80
5, 110400, Note_on_c, 3, 32, 109
5, 110636, Note_off_c, 3, 32, 80
5, 110640, Note_on_c, 3, 32, 109
5, 111116, Note_off_c, 3, 32, 80
5, 111120, Note_on_c, 3, 32, 109
5, 111356, Note_off_c, 3, 32, 80
5, 111360, Note_on_c, 3, 32, 109
5, 111596, Note_off_c, 3, 32, 80
5, 111600, Note_on_c, 3, 32, 109
5, 111836, Note_off_c, 3, 32, 80
5, 111840, Note_on_c, 3, 32, 109
5, 112076, Note_off_c, 3, 32, 80
5, 112080, Note_on_c, 3, 32, 109
5, 112316, Note_off_c, 3, 32, 80
5, 112320, Note_on_c, 3, 32, 109
5, 112556, Note_off_c, 3, 32, 80
5, 112560, Note_on_c, 3, 32, 109
5, 112796, Note_off_c, 3, 32, 80
5, 112800, Note_on_c, 3, 32, 109
5, 113036, Note_off_c, 3, 32, 80
5, 113040, Note_on_c, 3, 32, 109
5, 113276, Note_off_c, 3, 32, 80
5, 113280, Note_on_c, 3, 39, 109
5, 113996, Note_off_c, 3, 39, 80
5, 114000, Note_on_c, 3, 39, 109
5, 114236, Note_off_c, 3, 39, 80
5, 114240, Note_on_c, 3, 39, 109
5, 114476, Note_off_c, 3, 39, 80
5, 114480, Note_on_c, 3, 39, 109
5, 114716, Note_off_c, 3, 39, 80
5, 114720, Note_on_c, 3, 39, 109
5, 114956, Note_off_c, 3, 39, 80
5, 114960, Note_on_c, 3, 39, 109
5, 115196, Note_off_c, 3, 39, 80
5, 115200, Note_on_c, 3, 39, 109
5, 115436, Note_off_c, 3, 39, 80
5, 115440, Note_on_c, 3, 39, 109
5, 115676, Note_off_c, 3, 39, 80
5, 115680, Note_on_c, 3, 39, 109
5, 115916, Note_off_c, 3, 39, 80
5, 115920, Note_on_c, 3, 39, 109
5, 116156, Note_off_c, 3, 39, 80
5, 116160, Note_on_c, 3, 39, 109
5, 116396, Note_off_c, 3, 39, 80
5, 116400, Note_on_c, 3, 39, 109
5, 116636, Note_off_c, 3, 39, 80
5, 116640, Note_on_c, 3, 39, 109
5, 116876, Note_off_c, 3, 39, 80
5, 116880, Note_on_c, 3, 39, 109
5, 117116, Note_off_c, 3, 39, 80
5, 117120, Note_on_c, 3, 30, 109
5, 117836, Note_off_c, 3, 30, 80
5, 117840, Note_on_c, 3, 30, 109
5, 118076, Note_off_c, 3, 30, 80
5, 118080, Note_on_c, 3, 30, 109
5, 118316, Note_off_c, 3, 30, 80
5, 118320, Note_on_c, 3, 30, 109
5, 118796, Note_off_c, 3, 30, 80
5, 118800, Note_on_c, 3, 30, 109
5, 119036, Note_off_c, 3, 30, 80
5, 119040, Note_on_c, 3, 30, 109
5, 119276, Note_off_c, 3, 30, 80
5, 119280, Note_on_c, 3, 30, 109
5, 119516, Note_off_c, 3, 30, 80
5, 119520, Note_on_c, 3, 30, 109
5, 119756, Note_off_c, 3, 30, 80
5, 119760, Note_on_c, 3, 30, 109
5, 119996, Note_off_c, 3, 30, 80
5, 120000, Note_on_c, 3, 30, 109
5, 120236, Note_off_c, 3, 30, 80
5, 120240, Note_on_c, 3, 30, 109
5, 120476, Note_off_c, 3, 30, 80
5, 120480, Note_on_c, 3, 30, 109
5, 120716, Note_off_c, 3, 30, 80
5, 120720, Note_on_c, 3, 30, 109
5, 120956, Note_off_c, 3, 30, 80
5, 120960, Note_on_c, 3, 37, 109
5, 121676, Note_off_c, 3, 37, 80
5, 121680, Note_on_c, 3, 37, 109
5, 121916, Note_off_c, 3, 37, 80
5, 121920, Note_on_c, 3, 37, 109
5, 122156, Note_off_c, 3, 37, 80
5, 122160, Note_on_c, 3, 37, 109
5, 122396, Note_off_c, 3, 37, 80
5, 122400, Note_on_c, 3, 37, 109
5, 122636, Note_off_c, 3, 37, 80
5, 122640, Note_on_c, 3, 37, 109
5, 122876, Note_off_c, 3, 37, 80
5, 122880, Note_on_c, 3, 32, 109
5, 123116, Note_off_c, 3, 32, 80
5, 123120, Note_on_c, 3, 32, 109
5, 123356, Note_off_c, 3, 32, 80
5, 123360, Note_on_c, 3, 32, 109
5, 123596, Note_off_c, 3, 32, 80
5, 123600, Note_on_c, 3, 32, 109
5, 123836, Note_off_c, 3, 32, 80
5, 123840, Note_on_c, 3, 32, 109
5, 124076, Note_off_c, 3, 32, 80
5, 124080, Note_on_c, 3, 32, 109
5, 124316, Note_off_c, 3, 32, 80
5, 124320, Note_on_c, 3, 32, 109
5, 124556, Note_off_c, 3, 32, 80
5, 124560, Note_on_c, 3, 32, 109
5, 124796, Note_off_c, 3, 32, 80
5, 124800, Note_on_c, 3, 39, 109
5, 125036, Note_off_c, 3, 39, 80
5, 125040, Note_on_c, 3, 39, 109
5, 125276, Note_off_c, 3, 39, 80
5, 125280, Note_on_c, 3, 39, 109
5, 125516, Note_off_c, 3, 39, 80
5, 125520, Note_on_c, 3, 39, 109
5, 125756, Note_off_c, 3, 39, 80
5, 125760, Note_on_c, 3, 39, 109
5, 125996, Note_off_c, 3, 39, 80
5, 126000, Note_on_c, 3, 39, 109
5, 126236, Note_off_c, 3, 39, 80
5, 126240, Note_on_c, 3, 39, 109
5, 126476, Note_off_c, 3, 39, 80
5, 126480, Note_on_c, 3, 39, 109
5, 126716, Note_off_c, 3, 39, 80
5, 126720, Note_on_c, 3, 39, 109
5, 126956, Note_off_c, 3, 39, 80
5, 126960, Note_on_c, 3, 39, 109
5, 127196, Note_off_c, 3, 39, 80
5, 127200, Note_on_c, 3, 39, 109
5, 127436, Note_off_c, 3, 39, 80
5, 127440, Note_on_c, 3, 39, 109
5, 127676, Note_off_c, 3, 39, 80
5, 127680, Note_on_c, 3, 39, 109
5, 127916, Note_off_c, 3, 39, 80
5, 127920, Note_on_c, 3, 39, 109
5, 128156, Note_off_c, 3, 39, 80
5, 128160, Note_on_c, 3, 39, 109
5, 128396, Note_off_c, 3, 39, 80
5, 128400, Note_on_c, 3, 39, 109
5, 128636, Note_off_c, 3, 39, 80
5, 128640, Note_on_c, 3, 30, 109
5, 129356, Note_off_c, 3, 30, 80
5, 129360, Note_on_c, 3, 30, 109
5, 129596, Note_off_c, 3, 30, 80
5, 129600, Note_on_c, 3, 30, 109
5, 129836, Note_off_c, 3, 30, 80
5, 129840, Note_on_c, 3, 30, 109
5, 130316, Note_off_c, 3, 30, 80
5, 130320, Note_on_c, 3, 30, 109
5, 130556, Note_off_c, 3, 30, 80
5, 130560, Note_on_c, 3, 30, 109
5, 130796, Note_off_c, 3, 30, 80
5, 130800, Note_on_c, 3, 30, 109
5, 131036, Note_off_c, 3, 30, 80
5, 131040, Note_on_c, 3, 30, 109
5, 131276, Note_off_c, 3, 30, 80
5, 131280, Note_on_c, 3, 30, 109
5, 131516, Note_off_c, 3, 30, 80
5, 131520, Note_on_c, 3, 30, 109
5, 131756, Note_off_c, 3, 30, 80
5, 131760, Note_on_c, 3, 30, 109
5, 131996, Note_off_c, 3, 30, 80
5, 132000, Note_on_c, 3, 30, 109
5, 132236, Note_off_c, 3, 30, 80
5, 132240, Note_on_c, 3, 30, 109
5, 132476, Note_off_c, 3, 30, 80
5, 132480, Note_on_c, 3, 37, 109
5, 133196, Note_off_c, 3, 37, 80
5, 133200, Note_on_c, 3, 37, 109
5, 133436, Note_off_c, 3, 37, 80
5, 133440, Note_on_c, 3, 37, 109
5, 133676, Note_off_c, 3, 37, 80
5, 133680, Note_on_c, 3, 37, 109
5, 133916, Note_off_c, 3, 37, 80
5, 133920, Note_on_c, 3, 37, 109
5, 134156, Note_off_c, 3, 37, 80
5, 134160, Note_on_c, 3, 37, 109
5, 134396, Note_off_c, 3, 37, 80
5, 134400, Note_on_c, 3, 32, 109
5, 134636, Note_off_c, 3, 32, 80
5, 134640, Note_on_c, 3, 32, 109
5, 134876, Note_off_c, 3, 32, 80
5, 134880, Note_on_c, 3, 32, 109
5, 135116, Note_off_c, 3, 32, 80
5, 135120, Note_on_c, 3, 32, 109
5, 135356, Note_off_c, 3, 32, 80
5, 135360, Note_on_c, 3, 32, 109
5, 135596, Note_off_c, 3, 32, 80
5, 135600, Note_on_c, 3, 32, 109
5, 135836, Note_off_c, 3, 32, 80
5, 135840, Note_on_c, 3, 32, 109
5, 136076, Note_off_c, 3, 32, 80
5, 136080, Note_on_c, 3, 32, 109
5, 136316, Note_off_c, 3, 32, 80
5, 136320, Note_on_c, 3, 39, 109
5, 136556, Note_off_c, 3, 39, 80
5, 136560, Note_on_c, 3, 39, 109
5, 136796, Note_off_c, 3, 39, 80
5, 136800, Note_on_c, 3, 39, 109
5, 137036, Note_off_c, 3, 39, 80
5, 137040, Note_on_c, 3, 39, 109
5, 137276, Note_off_c, 3, 39, 80
5, 137280, Note_on_c, 3, 39, 109
5, 137516, Note_off_c, 3, 39, 80
5, 137520, Note_on_c, 3, 39, 109
5, 137756, Note_off_c, 3, 39, 80
5, 137760, Note_on_c, 3, 39, 109
5, 137996, Note_off_c, 3, 39, 80
5, 138000, Note_on_c, 3, 39, 109
5, 138236, Note_off_c, 3, 39, 80
5, 138240, Note_on_c, 3, 39, 109
5, 138476, Note_off_c, 3, 39, 80
5, 138480, Note_on_c, 3, 39, 109
5, 138716, Note_off_c, 3, 39, 80
5, 138720, Note_on_c, 3, 39, 109
5, 138956, Note_off_c, 3, 39, 80
5, 138960, Note_on_c, 3, 39, 109
5, 139196, Note_off_c, 3, 39, 80
5, 139200, Note_on_c, 3, 39, 109
5, 139436, Note_off_c, 3, 39, 80
5, 139440, Note_on_c, 3, 39, 109
5, 139676, Note_off_c, 3, 39, 80
5, 139680, Note_on_c, 3, 39, 109
5, 139916, Note_off_c, 3, 39, 80
5, 139920, Note_on_c, 3, 39, 109
5, 140156, Note_off_c, 3, 39, 80
5, 140160, Note_on_c, 3, 37, 109
5, 140336, Note_off_c, 3, 37, 80
5, 140400, Note_on_c, 3, 37, 109
5, 140576, Note_off_c, 3, 37, 80
5, 140640, Note_on_c, 3, 41, 109
5, 140816, Note_off_c, 3, 41, 80
5, 140880, Note_on_c, 3, 44, 109
5, 141056, Note_off_c, 3, 44, 80
5, 141120, Note_on_c, 3, 36, 109
5, 141296, Note_off_c, 3, 36, 80
5, 141360, Note_on_c, 3, 36, 109
5, 141536, Note_off_c, 3, 36, 80
5, 141600, Note_on_c, 3, 41, 109
5, 141776, Note_off_c, 3, 41, 80
5, 141840, Note_on_c, 3, 44, 109
5, 142016, Note_off_c, 3, 44, 80
5, 142080, Note_on_c, 3, 34, 109
5, 142256, Note_off_c, 3, 34, 80
5, 142320, Note_on_c, 3, 36, 109
5, 142496, Note_off_c, 3, 36, 80
5, 142560, Note_on_c, 3, 37, 109
5, 142736, Note_off_c, 3, 37, 80
5, 142800, Note_on_c, 3, 44, 109
5, 143156, Note_off_c, 3, 44, 80
5, 143280, Note_on_c, 3, 44, 109
5, 143456, Note_off_c, 3, 44, 80
5, 143520, Note_on_c, 3, 41, 109
5, 143696, Note_off_c, 3, 41, 80
5, 143760, Note_on_c, 3, 39, 109
5, 143936, Note_off_c, 3, 39, 80
5, 144000, Note_on_c, 3, 37, 109
5, 144176, Note_off_c, 3, 37, 80
5, 144240, Note_on_c, 3, 37, 109
5, 144416, Note_off_c, 3, 37, 80
5, 144480, Note_on_c, 3, 41, 109
5, 144656, Note_off_c, 3, 41, 80
5, 144720, Note_on_c, 3, 44, 109
5, 144896, Note_off_c, 3, 44, 80
5, 144960, Note_on_c, 3, 36, 109
5, 145136, Note_off_c, 3, 36, 80
5, 145200, Note_on_c, 3, 36, 109
5, 145376, Note_off_c, 3, 36, 80
5, 145440, Note_on_c, 3, 41, 109
5, 145616, Note_off_c, 3, 41, 80
5, 145680, Note_on_c, 3, 44, 109
5, 145856, Note_off_c, 3, 44, 80
5, 145920, Note_on_c, 3, 34, 109
5, 146096, Note_off_c, 3, 34, 80
5, 146160, Note_on_c, 3, 36, 109
5, 146336, Note_off_c, 3, 36, 80
5, 146400, Note_on_c, 3, 37, 109
5, 146576, Note_off_c, 3, 37, 80
5, 146640, Note_on_c, 3, 32, 109
5, 146996, Note_off_c, 3, 32, 80
5, 147120, Note_on_c, 3, 32, 109
5, 147296, Note_off_c, 3, 32, 80
5, 147360, Note_on_c, 3, 36, 109
5, 147716, Note_off_c, 3, 36, 80
5, 147840, Note_on_c, 3, 37, 109
5, 148016, Note_off_c, 3, 37, 80
5, 148080, Note_on_c, 3, 37, 109
5, 148256, Note_off_c, 3, 37, 80
5, 148320, Note_on_c, 3, 41, 109
5, 148496, Note_off_c, 3, 41, 80
5, 148560, Note_on_c, 3, 44, 109
5, 148736, Note_off_c, 3, 44, 80
5, 148800, Note_on_c, 3, 36, 109
5, 148976, Note_off_c, 3, 36, 80
5, 149040, Note_on_c, 3, 36, 109
5, 149216, Note_off_c, 3, 36, 80
5, 149280, Note_on_c, 3, 41, 109
5, 149456, Note_off_c, 3, 41, 80
5, 149520, Note_on_c, 3, 44, 109
5, 149696, Note_off_c, 3, 44, 80
5, 149760, Note_on_c, 3, 34, 109
5, 149936, Note_off_c, 3, 34, 80
5, 150000, Note_on_c, 3, 36, 109
5, 150176, Note_off_c, 3, 36, 80
5, 150240, Note_on_c, 3, 37, 109
5, 150416, Note_off_c, 3, 37, 80
5, 150480, Note_on_c, 3, 32, 109
5, 150836, Note_off_c, 3, 32, 80
5, 150960, Note_on_c, 3, 32, 109
5, 151136, Note_off_c, 3, 32, 80
5, 151200, Note_on_c, 3, 32, 109
5, 151556, Note_off_c, 3, 32, 80
5, 151680, Note_on_c, 3, 34, 109
5, 152156, Note_off_c, 3, 34, 80
5, 152160, Note_on_c, 3, 34, 109
5, 152636, Note_off_c, 3, 34, 80
5, 152640, Note_on_c, 3, 34, 109
5, 152996, Note_off_c, 3, 34, 80
5, 153000, Note_on_c, 3, 34, 109
5, 153116, Note_off_c, 3, 34, 80
5, 153120, Note_on_c, 3, 34, 109
5, 153476, Note_off_c, 3, 34, 80
5, 153480, Note_on_c, 3, 34, 109
5, 153596, Note_off_c, 3, 34, 80
5, 153600, Note_on_c, 3, 34, 109
5, 153956, Note_off_c, 3, 34, 80
5, 153960, Note_on_c, 3, 34, 109
5, 154076, Note_off_c, 3, 34, 80
5, 154080, Note_on_c, 3, 34, 109
5, 154436, Note_off_c, 3, 34, 80
5, 154440, Note_on_c, 3, 34, 109
5, 154556, Note_off_c, 3, 34, 80
5, 154560, Note_on_c, 3, 34, 109
5, 154916, Note_off_c, 3, 34, 80
5, 154920, Note_on_c, 3, 34, 109
5, 155036, Note_off_c, 3, 34, 80
5, 155040, Note_on_c, 3, 34, 109
5, 155396, Note_off_c, 3, 34, 80
5, 155400, Note_on_c, 3, 34, 109
5, 155516, Note_off_c, 3, 34, 80
5, 155520, Note_on_c, 3, 37, 109
5, 155996, Note_off_c, 3, 37, 80
5, 156000, Note_on_c, 3, 37, 109
5, 156476, Note_off_c, 3, 37, 80
5, 156480, Note_on_c, 3, 37, 109
5, 156956, Note_off_c, 3, 37, 80
5, 156960, Note_on_c, 3, 37, 109
5, 157436, Note_off_c, 3, 37, 80
5, 157440, Note_on_c, 3, 41, 109
5, 157916, Note_off_c, 3, 41, 80
5, 157920, Note_on_c, 3, 41, 109
5, 158396, Note_off_c, 3, 41, 80
5, 158400, Note_on_c, 3, 41, 109
5, 158876, Note_off_c, 3, 41, 80
5, 158880, Note_on_c, 3, 41, 109
5, 159356, Note_off_c, 3, 41, 80
5, 159360, Note_on_c, 3, 44, 109
5, 159836, Note_off_c, 3, 44, 80
5, 159840, Note_on_c, 3, 44, 109
5, 160316, Note_off_c, 3, 44, 80
5, 160320, Note_on_c, 3, 44, 109
5, 160796, Note_off_c, 3, 44, 80
5, 160800, Note_on_c, 3, 44, 109
5, 161276, Note_off_c, 3, 44, 80
5, 161280, Note_on_c, 3, 44, 109
5, 161756, Note_off_c, 3, 44, 80
5, 161760, Note_on_c, 3, 44, 109
5, 162236, Note_off_c, 3, 44, 80
5, 162240, Note_on_c, 3, 44, 109
5, 162716, Note_off_c, 3, 44, 80
5, 162720, Note_on_c, 3, 44, 109
5, 162956, Note_off_c, 3, 44, 80
5, 162960, Note_on_c, 3, 39, 109
5, 163196, Note_off_c, 3, 39, 80
5, 163200, Note_on_c, 3, 37, 109
5, 163676, Note_off_c, 3, 37, 80
5, 163680, Note_on_c, 3, 49, 109
5, 163916, Note_off_c, 3, 49, 80
5, 163920, Note_on_c, 3, 37, 109
5, 164156, Note_off_c, 3, 37, 80
5, 164160, Note_on_c, 3, 37, 109
5, 164396, Note_off_c, 3, 37, 80
5, 164400, Note_on_c, 3, 49, 109
5, 164636, Note_off_c, 3, 49, 80
5, 164640, Note_on_c, 3, 37, 109
5, 164876, Note_off_c, 3, 37, 80
5, 164880, Note_on_c, 3, 37, 109
5, 165116, Note_off_c, 3, 37, 80
5, 165120, Note_on_c, 3, 37, 109
5, 165356, Note_off_c, 3, 37, 80
5, 165360, Note_on_c, 3, 37, 109
5, 165596, Note_off_c, 3, 37, 80
5, 165600, Note_on_c, 3, 37, 109
5, 165836, Note_off_c, 3, 37, 80
5, 165840, Note_on_c, 3, 37, 109
5, 166076, Note_off_c, 3, 37, 80
5, 166080, Note_on_c, 3, 37, 109
5, 166316, Note_off_c, 3, 37, 80
5, 166320, Note_on_c, 3, 37, 109
5, 166556, Note_off_c, 3, 37, 80
5, 166560, Note_on_c, 3, 39, 109
5, 166796, Note_off_c, 3, 39, 80
5, 166800, Note_on_c, 3, 37, 109
5, 167036, Note_off_c, 3, 37, 80
5, 167040, Note_on_c, 3, 32, 109
5, 167276, Note_off_c, 3, 32, 80
5, 167280, Note_on_c, 3, 32, 109
5, 167516, Note_off_c, 3, 32, 80
5, 167520, Note_on_c, 3, 32, 109
5, 167756, Note_off_c, 3, 32, 80
5, 167760, Note_on_c, 3, 32, 109
5, 167996, Note_off_c, 3, 32, 80
5, 168000, Note_on_c, 3, 32, 109
5, 168236, Note_off_c, 3, 32, 80
5, 168240, Note_on_c, 3, 44, 109
5, 168716, Note_off_c, 3, 44, 80
5, 168720, Note_on_c, 3, 32, 109
5, 168956, Note_off_c, 3, 32, 80
5, 168960, Note_on_c, 3, 32, 109
5, 169196, Note_off_c, 3, 32, 80
5, 169200, Note_on_c, 3, 44, 109
5, 169436, Note_off_c, 3, 44, 80
5, 169440, Note_on_c, 3, 32, 109
5, 169676, Note_off_c, 3, 32, 80
5, 169680, Note_on_c, 3, 44, 109
5, 169916, Note_off_c, 3, 44, 80
5, 169920, Note_on_c, 3, 32, 109
5, 170156, Note_off_c, 3, 32, 80
5, 170160, Note_on_c, 3, 44, 109
5, 170396, Note_off_c, 3, 44, 80
5, 170400, Note_on_c, 3, 32, 109
5, 170636, Note_off_c, 3, 32, 80
5, 170640, Note_on_c, 3, 39, 109
5, 170876, Note_off_c, 3, 39, 80
5, 170880, Note_on_c, 3, 37, 109
5, 171356, Note_off_c, 3, 37, 80
5, 171360, Note_on_c, 3, 49, 109
5, 171836, Note_off_c, 3, 49, 80
5, 171840, Note_on_c, 3, 37, 109
5, 172076, Note_off_c, 3, 37, 80
5, 172080, Note_on_c, 3, 49, 109
5, 172316, Note_off_c, 3, 49, 80
5, 172320, Note_on_c, 3, 37, 109
5, 172556, Note_off_c, 3, 37, 80
5, 172560, Note_on_c, 3, 49, 109
5, 172796, Note_off_c, 3, 49, 80
5, 172800, Note_on_c, 3, 49, 109
5, 173036, Note_off_c, 3, 49, 80
5, 173040, Note_on_c, 3, 37, 109
5, 173276, Note_off_c, 3, 37, 80
5, 173280, Note_on_c, 3, 37, 109
5, 173516, Note_off_c, 3, 37, 80
5, 173520, Note_on_c, 3, 49, 109
5, 173756, Note_off_c, 3, 49, 80
5, 173760, Note_on_c, 3, 37, 109
5, 173996, Note_off_c, 3, 37, 80
5, 174000, Note_on_c, 3, 49, 109
5, 174236, Note_off_c, 3, 49, 80
5, 174240, Note_on_c, 3, 37, 109
5, 174476, Note_off_c, 3, 37, 80
5, 174480, Note_on_c, 3, 49, 109
5, 174716, Note_off_c, 3, 49, 80
5, 174720, Note_on_c, 3, 42, 109
5, 175196, Note_off_c, 3, 42, 80
5, 175200, Note_on_c, 3, 42, 109
5, 175676, Note_off_c, 3, 42, 80
5, 175680, Note_on_c, 3, 42, 109
5, 176156, Note_off_c, 3, 42, 80
5, 176160, Note_on_c, 3, 42, 109
5, 176636, Note_off_c, 3, 42, 80
5, 176640, Note_on_c, 3, 41, 109
5, 177116, Note_off_c, 3, 41, 80
5, 177120, Note_on_c, 3, 41, 109
5, 177596, Note_off_c, 3, 41, 80
5, 177600, Note_on_c, 3, 41, 109
5, 178076, Note_off_c, 3, 41, 80
5, 178080, Note_on_c, 3, 41, 109
5, 178556, Note_off_c, 3, 41, 80
5, 178560, Note_on_c, 3, 39, 109
5, 178796, Note_off_c, 3, 39, 80
5, 178800, Note_on_c, 3, 39, 109
5, 179036, Note_off_c, 3, 39, 80
5, 179280, Note_on_c, 3, 39, 109
5, 179516, Note_off_c, 3, 39, 80
5, 179520, Note_on_c, 3, 39, 109
5, 179756, Note_off_c, 3, 39, 80
5, 179760, Note_on_c, 3, 39, 109
5, 179996, Note_off_c, 3, 39, 80
5, 180240, Note_on_c, 3, 39, 109
5, 180476, Note_off_c, 3, 39, 80
5, 180480, Note_on_c, 3, 39, 109
5, 180716, Note_off_c, 3, 39, 80
5, 180720, Note_on_c, 3, 39, 109
5, 180956, Note_off_c, 3, 39, 80
5, 181200, Note_on_c, 3, 39, 109
5, 181436, Note_off_c, 3, 39, 80
5, 181440, Note_on_c, 3, 39, 109
5, 181676, Note_off_c, 3, 39, 80
5, 181680, Note_on_c, 3, 39, 109
5, 181916, Note_off_c, 3, 39, 80
5, 182160, Note_on_c, 3, 39, 109
5, 182396, Note_off_c, 3, 39, 80
5, 182400, Note_on_c, 3, 42, 109
5, 182876, Note_off_c, 3, 42, 80
5, 182880, Note_on_c, 3, 42, 109
5, 183356, Note_off_c, 3, 42, 80
5, 183360, Note_on_c, 3, 42, 109
5, 183836, Note_off_c, 3, 42, 80
5, 183840, Note_on_c, 3, 42, 109
5, 184316, Note_off_c, 3, 42, 80
5, 184320, Note_on_c, 3, 41, 109
5, 184796, Note_off_c, 3, 41, 80
5, 184800, Note_on_c, 3, 41, 109
5, 185276, Note_off_c, 3, 41, 80
5, 185280, Note_on_c, 3, 41, 109
5, 185756, Note_off_c, 3, 41, 80
5, 185760, Note_on_c, 3, 41, 109
5, 186236, Note_off_c, 3, 41, 80
5, 186240, Note_on_c, 3, 39, 109
5, 186476, Note_off_c, 3, 39, 80
5, 186480, Note_on_c, 3, 39, 109
5, 186716, Note_off_c, 3, 39, 80
5, 186960, Note_on_c, 3, 39, 109
5, 187196, Note_off_c, 3, 39, 80
5, 187200, Note_on_c, 3, 39, 109
5, 187436, Note_off_c, 3, 39, 80
5, 187440, Note_on_c, 3, 39, 109
5, 187676, Note_off_c, 3, 39, 80
5, 187920, Note_on_c, 3, 39, 109
5, 188156, Note_off_c, 3, 39, 80
5, 188160, Note_on_c, 3, 39, 109
5, 188396, Note_off_c, 3, 39, 80
5, 188400, Note_on_c, 3, 39, 109
5, 188636, Note_off_c, 3, 39, 80
5, 188880, Note_on_c, 3, 39, 109
5, 189116, Note_off_c, 3, 39, 80
5, 189120, Note_on_c, 3, 39, 109
5, 189356, Note_off_c, 3, 39, 80
5, 189360, Note_on_c, 3, 39, 109
5, 189596, Note_off_c, 3, 39, 80
5, 189840, Note_on_c, 3, 39, 109
5, 190076, Note_off_c, 3, 39, 80
5, 190080, Note_on_c, 3, 30, 109
5, 190556, Note_off_c, 3, 30, 80
5, 190560, Note_on_c, 3, 30, 109
5, 190796, Note_off_c, 3, 30, 80
5, 190800, Note_on_c, 3, 30, 109
5, 191276, Note_off_c, 3, 30, 80
5, 191280, Note_on_c, 3, 30, 109
5, 191756, Note_off_c, 3, 30, 80
5, 191760, Note_on_c, 3, 30, 109
5, 191996, Note_off_c, 3, 30, 80
5, 192000, Note_on_c, 3, 30, 109
5, 192476, Note_off_c, 3, 30, 80
5, 192480, Note_on_c, 3, 30, 109
5, 192716, Note_off_c, 3, 30, 80
5, 192720, Note_on_c, 3, 30, 109
5, 193196, Note_off_c, 3, 30, 80
5, 193200, Note_on_c, 3, 37, 109
5, 193440, Note_on_c, 3, 30, 109
5, 193676, Note_off_c, 3, 37, 80
5, 193676, Note_off_c, 3, 30, 80
5, 193680, Note_on_c, 3, 42, 109
5, 193916, Note_off_c, 3, 42, 80
5, 193920, Note_on_c, 3, 30, 109
5, 194396, Note_off_c, 3, 30, 80
5, 194400, Note_on_c, 3, 30, 109
5, 194636, Note_off_c, 3, 30, 80
5, 194640, Note_on_c, 3, 30, 109
5, 195116, Note_off_c, 3, 30, 80
5, 195120, Note_on_c, 3, 30, 109
5, 195596, Note_off_c, 3, 30, 80
5, 195600, Note_on_c, 3, 30, 109
5, 195836, Note_off_c, 3, 30, 80
5, 195840, Note_on_c, 3, 30, 109
5, 196316, Note_off_c, 3, 30, 80
5, 196320, Note_on_c, 3, 30, 109
5, 196556, Note_off_c, 3, 30, 80
5, 196560, Note_on_c, 3, 30, 109
5, 197036, Note_off_c, 3, 30, 80
5, 197040, Note_on_c, 3, 37, 109
5, 197280, Note_on_c, 3, 30, 109
5, 197516, Note_off_c, 3, 37, 80
5, 197516, Note_off_c, 3, 30, 80
5, 197520, Note_on_c, 3, 42, 109
5, 197756, Note_off_c, 3, 42, 80
5, 197760, Note_on_c, 3, 30, 109
5, 198236, Note_off_c, 3, 30, 80
5, 198240, Note_on_c, 3, 30, 109
5, 198476, Note_off_c, 3, 30, 80
5, 198480, Note_on_c, 3, 30, 109
5, 198956, Note_off_c, 3, 30, 80
5, 198960, Note_on_c, 3, 30, 109
5, 199436, Note_off_c, 3, 30, 80
5, 199440, Note_on_c, 3, 30, 109
5, 199676, Note_off_c, 3, 30, 80
5, 199680, Note_on_c, 3, 30, 109
5, 200156, Note_off_c, 3, 30, 80
5, 200160, Note_on_c, 3, 30, 109
5, 200396, Note_off_c, 3, 30, 80
5, 200400, Note_on_c, 3, 30, 109
5, 200876, Note_off_c, 3, 30, 80
5, 200880, Note_on_c, 3, 37, 109
5, 201120, Note_on_c, 3, 30, 109
5, 201356, Note_off_c, 3, 37, 80
5, 201356, Note_off_c, 3, 30, 80
5, 201360, Note_on_c, 3, 42, 109
5, 201596, Note_off_c, 3, 42, 80
5, 201600, Note_on_c, 3, 30, 109
5, 202076, Note_off_c, 3, 30, 80
5, 202080, Note_on_c, 3, 30, 109
5, 202316, Note_off_c, 3, 30, 80
5, 202320, Note_on_c, 3, 30, 109
5, 202796, Note_off_c, 3, 30, 80
5, 202800, Note_on_c, 3, 42, 109
5, 203036, Note_off_c, 3, 42, 80
5, 203040, Note_on_c, 3, 30, 109
5, 203276, Note_off_c, 3, 30, 80
5, 203280, Note_on_c, 3, 42, 109
5, 203516, Note_off_c, 3, 42, 80
5, 203520, Note_on_c, 3, 30, 109
5, 203756, Note_off_c, 3, 30, 80
5, 203760, Note_on_c, 3, 42, 109
5, 203996, Note_off_c, 3, 42, 80
5, 204000, Note_on_c, 3, 30, 109
5, 204236, Note_off_c, 3, 30, 80
5, 204240, Note_on_c, 3, 42, 109
5, 204476, Note_off_c, 3, 42, 80
5, 204480, Note_on_c, 3, 30, 109
5, 204716, Note_off_c, 3, 30, 80
5, 204720, Note_on_c, 3, 37, 109
5, 204960, Note_on_c, 3, 30, 109
5, 205196, Note_off_c, 3, 37, 80
5, 205196, Note_off_c, 3, 30, 80
5, 205200, Note_on_c, 3, 42, 109
5, 205436, Note_off_c, 3, 42, 80
5, 205440, Note_on_c, 3, 29, 109
5, 205616, Note_off_c, 3, 29, 80
5, 205680, Note_on_c, 3, 32, 109
5, 205856, Note_off_c, 3, 32, 80
5, 205920, Note_on_c, 3, 36, 109
5, 206096, Note_off_c, 3, 36, 80
5, 206160, Note_on_c, 3, 41, 109
5, 206336, Note_off_c, 3, 41, 80
5, 206640, Note_on_c, 3, 39, 109
5, 206816, Note_off_c, 3, 39, 80
5, 206880, Note_on_c, 3, 36, 109
5, 207056, Note_off_c, 3, 36, 80
5, 207120, Note_on_c, 3, 41, 109
5, 207296, Note_off_c, 3, 41, 80
5, 207360, Note_on_c, 3, 39, 109
5, 207536, Note_off_c, 3, 39, 80
5, 207840, Note_on_c, 3, 39, 109
5, 208016, Note_off_c, 3, 39, 80
5, 208320, Note_on_c, 3, 39, 109
5, 208496, Note_off_c, 3, 39, 80
5, 208800, Note_on_c, 3, 39, 109
5, 208890, Pitch_bend_c, 3, 7552
5, 208929, Pitch_bend_c, 3, 6784
5, 208967, Pitch_bend_c, 3, 6144
5, 209006, Pitch_bend_c, 3, 5504
5, 209044, Pitch_bend_c, 3, 4736
5, 209083, Pitch_bend_c, 3, 4096
5, 209121, Pitch_bend_c, 3, 3456
5, 209156, Note_off_c, 3, 39, 80
5, 209160, Pitch_bend_c, 3, 2688
5, 209160, Pitch_bend_c, 3, 8192
5, 209280, Note_on_c, 3, 32, 109
5, 209456, Note_off_c, 3, 32, 80
5, 209520, Note_on_c, 3, 44, 109
5, 209696, Note_off_c, 3, 44, 80
5, 209760, Note_on_c, 3, 32, 109
5, 209936, Note_off_c, 3, 32, 80
5, 210000, Note_on_c, 3, 44, 109
5, 210176, Note_off_c, 3, 44, 80
5, 210240, Note_on_c, 3, 32, 109
5, 210416, Note_off_c, 3, 32, 80
5, 210480, Note_on_c, 3, 44, 109
5, 210656, Note_off_c, 3, 44, 80
5, 210720, Note_on_c, 3, 32, 109
5, 210896, Note_off_c, 3, 32, 80
5, 210960, Note_on_c, 3, 44, 109
5, 211136, Note_off_c, 3, 44, 80
5, 211200, Note_on_c, 3, 32, 109
5, 211376, Note_off_c, 3, 32, 80
5, 211440, Note_on_c, 3, 44, 109
5, 211616, Note_off_c, 3, 44, 80
5, 211680, Note_on_c, 3, 32, 109
5, 211856, Note_off_c, 3, 32, 80
5, 211920, Note_on_c, 3, 44, 109
5, 212096, Note_off_c, 3, 44, 80
5, 212160, Note_on_c, 3, 32, 109
5, 212336, Note_off_c, 3, 32, 80
5, 212400, Note_on_c, 3, 44, 109
5, 212576, Note_off_c, 3, 44, 80
5, 212640, Note_on_c, 3, 32, 109
5, 212816, Note_off_c, 3, 32, 80
5, 212880, Note_on_c, 3, 33, 109
5, 213056, Note_off_c, 3, 33, 80
5, 213120, Note_on_c, 3, 34, 109
5, 213296, Note_off_c, 3, 34, 80
5, 213360, Note_on_c, 3, 46, 109
5, 213536, Note_off_c, 3, 46, 80
5, 213600, Note_on_c, 3, 34, 109
5, 213776, Note_off_c, 3, 34, 80
5, 213840, Note_on_c, 3, 46, 109
5, 214016, Note_off_c, 3, 46, 80
5, 214080, Note_on_c, 3, 34, 109
5, 214256, Note_off_c, 3, 34, 80
5, 214320, Note_on_c, 3, 46, 109
5, 214496, Note_off_c, 3, 46, 80
5, 214560, Note_on_c, 3, 34, 109
5, 214736, Note_off_c, 3, 34, 80
5, 214800, Note_on_c, 3, 46, 109
5, 214976, Note_off_c, 3, 46, 80
5, 215040, Note_on_c, 3, 34, 109
5, 215216, Note_off_c, 3, 34, 80
5, 215280, Note_on_c, 3, 46, 109
5, 215456, Note_off_c, 3, 46, 80
5, 215520, Note_on_c, 3, 34, 109
5, 215696, Note_off_c, 3, 34, 80
5, 215760, Note_on_c, 3, 46, 109
5, 215936, Note_off_c, 3, 46, 80
5, 216000, Note_on_c, 3, 34, 109
5, 216176, Note_off_c, 3, 34, 80
5, 216240, Note_on_c, 3, 46, 109
5, 216416, Note_off_c, 3, 46, 80
5, 216480, Note_on_c, 3, 34, 109
5, 216656, Note_off_c, 3, 34, 80
5, 216720, Note_on_c, 3, 46, 109
5, 216896, Note_off_c, 3, 46, 80
5, 216960, Note_on_c, 3, 37, 109
5, 217436, Note_off_c, 3, 37, 80
5, 217440, Note_on_c, 3, 37, 109
5, 217916, Note_off_c, 3, 37, 80
5, 217920, Note_on_c, 3, 37, 109
5, 218396, Note_off_c, 3, 37, 80
5, 218400, Note_on_c, 3, 37, 109
5, 218876, Note_off_c, 3, 37, 80
5, 218880, Note_on_c, 3, 41, 109
5, 219356, Note_off_c, 3, 41, 80
5, 219360, Note_on_c, 3, 41, 109
5, 219836, Note_off_c, 3, 41, 80
5, 219840, Note_on_c, 3, 41, 109
5, 220316, Note_off_c, 3, 41, 80
5, 220320, Note_on_c, 3, 41, 109
5, 220796, Note_off_c, 3, 41, 80
5, 220800, Note_on_c, 3, 32, 109
5, 221516, Note_off_c, 3, 32, 80
5, 221520, Note_on_c, 3, 32, 109
5, 221756, Note_off_c, 3, 32, 80
5, 221760, Note_on_c, 3, 32, 109
5, 221996, Note_off_c, 3, 32, 80
5, 222000, Note_on_c, 3, 32, 109
5, 222476, Note_off_c, 3, 32, 80
5, 222480, Note_on_c, 3, 32, 109
5, 222716, Note_off_c, 3, 32, 80
5, 222720, Note_on_c, 3, 32, 109
5, 222956, Note_off_c, 3, 32, 80
5, 222960, Note_on_c, 3, 32, 109
5, 223196, Note_off_c, 3, 32, 80
5, 223200, Note_on_c, 3, 32, 109
5, 223436, Note_off_c, 3, 32, 80
5, 223440, Note_on_c, 3, 32, 109
5, 223676, Note_off_c, 3, 32, 80
5, 223680, Note_on_c, 3, 32, 109
5, 223916, Note_off_c, 3, 32, 80
5, 223920, Note_on_c, 3, 32, 109
5, 224156, Note_off_c, 3, 32, 80
5, 224160, Note_on_c, 3, 32, 109
5, 224396, Note_off_c, 3, 32, 80
5, 224400, Note_on_c, 3, 32, 109
5, 224636, Note_off_c, 3, 32, 80
5, 224640, Note_on_c, 3, 37, 109
5, 225356, Note_off_c, 3, 37, 80
5, 225360, Note_on_c, 3, 37, 109
5, 225596, Note_off_c, 3, 37, 80
5, 225600, Note_on_c, 3, 37, 109
5, 225836, Note_off_c, 3, 37, 80
5, 225840, Note_on_c, 3, 37, 109
5, 226076, Note_off_c, 3, 37, 80
5, 226080, Note_on_c, 3, 37, 109
5, 226316, Note_off_c, 3, 37, 80
5, 226320, Note_on_c, 3, 37, 109
5, 226556, Note_off_c, 3, 37, 80
5, 226560, Note_on_c, 3, 37, 109
5, 226796, Note_off_c, 3, 37, 80
5, 226800, Note_on_c, 3, 37, 109
5, 227036, Note_off_c, 3, 37, 80
5, 227040, Note_on_c, 3, 37, 109
5, 227276, Note_off_c, 3, 37, 80
5, 227280, Note_on_c, 3, 37, 109
5, 227516, Note_off_c, 3, 37, 80
5, 227520, Note_on_c, 3, 37, 109
5, 227756, Note_off_c, 3, 37, 80
5, 227760, Note_on_c, 3, 37, 109
5, 227996, Note_off_c, 3, 37, 80
5, 228000, Note_on_c, 3, 37, 109
5, 228236, Note_off_c, 3, 37, 80
5, 228240, Note_on_c, 3, 37, 109
5, 228476, Note_off_c, 3, 37, 80
5, 228480, Note_on_c, 3, 32, 109
5, 229196, Note_off_c, 3, 32, 80
5, 229200, Note_on_c, 3, 32, 109
5, 229436, Note_off_c, 3, 32, 80
5, 229440, Note_on_c, 3, 32, 109
5, 229676, Note_off_c, 3, 32, 80
5, 229680, Note_on_c, 3, 32, 109
5, 230156, Note_off_c, 3, 32, 80
5, 230160, Note_on_c, 3, 32, 109
5, 230396, Note_off_c, 3, 32, 80
5, 230400, Note_on_c, 3, 32, 109
5, 230636, Note_off_c, 3, 32, 80
5, 230640, Note_on_c, 3, 32, 109
5, 230876, Note_off_c, 3, 32, 80
5, 230880, Note_on_c, 3, 32, 109
5, 231116, Note_off_c, 3, 32, 80
5, 231120, Note_on_c, 3, 32, 109
5, 231356, Note_off_c, 3, 32, 80
5, 231360, Note_on_c, 3, 32, 109
5, 231596, Note_off_c, 3, 32, 80
5, 231600, Note_on_c, 3, 32, 109
5, 231836, Note_off_c, 3, 32, 80
5, 231840, Note_on_c, 3, 32, 109
5, 232076, Note_off_c, 3, 32, 80
5, 232080, Note_on_c, 3, 32, 109
5, 232316, Note_off_c, 3, 32, 80
5, 232320, Note_on_c, 3, 37, 109
5, 233036, Note_off_c, 3, 37, 80
5, 233040, Note_on_c, 3, 37, 109
5, 233276, Note_off_c, 3, 37, 80
5, 233280, Note_on_c, 3, 37, 109
5, 233516, Note_off_c, 3, 37, 80
5, 233520, Note_on_c, 3, 37, 109
5, 233756, Note_off_c, 3, 37, 80
5, 233760, Note_on_c, 3, 37, 109
5, 233996, Note_off_c, 3, 37, 80
5, 234000, Note_on_c, 3, 37, 109
5, 234236, Note_off_c, 3, 37, 80
5, 234240, Note_on_c, 3, 37, 109
5, 234476, Note_off_c, 3, 37, 80
5, 234480, Note_on_c, 3, 37, 109
5, 234716, Note_off_c, 3, 37, 80
5, 234720, Note_on_c, 3, 37, 109
5, 234956, Note_off_c, 3, 37, 80
5, 234960, Note_on_c, 3, 37, 109
5, 235196, Note_off_c, 3, 37, 80
5, 235200, Note_on_c, 3, 37, 109
5, 235436, Note_off_c, 3, 37, 80
5, 235440, Note_on_c, 3, 37, 109
5, 235676, Note_off_c, 3, 37, 80
5, 235680, Note_on_c, 3, 37, 109
5, 235916, Note_off_c, 3, 37, 80
5, 235920, Note_on_c, 3, 37, 109
5, 236156, Note_off_c, 3, 37, 80
5, 236160, Note_on_c, 3, 32, 109
5, 236876, Note_off_c, 3, 32, 80
5, 236880, Note_on_c, 3, 32, 109
5, 237116, Note_off_c, 3, 32, 80
5, 237120, Note_on_c, 3, 32, 109
5, 237356, Note_off_c, 3, 32, 80
5, 237360, Note_on_c, 3, 32, 109
5, 237836, Note_off_c, 3, 32, 80
5, 237840, Note_on_c, 3, 32, 109
5, 238076, Note_off_c, 3, 32, 80
5, 238080, Note_on_c, 3, 32, 109
5, 238316, Note_off_c, 3, 32, 80
5, 238320, Note_on_c, 3, 32, 109
5, 238556, Note_off_c, 3, 32, 80
5, 238560, Note_on_c, 3, 32, 109
5, 238796, Note_off_c, 3, 32, 80
5, 238800, Note_on_c, 3, 32, 109
5, 239036, Note_off_c, 3, 32, 80
5, 239040, Note_on_c, 3, 32, 109
5, 239276, Note_off_c, 3, 32, 80
5, 239280, Note_on_c, 3, 32, 109
5, 239516, Note_off_c, 3, 32, 80
5, 239520, Note_on_c, 3, 32, 109
5, 239756, Note_off_c, 3, 32, 80
5, 239760, Note_on_c, 3, 32, 109
5, 239996, Note_off_c, 3, 32, 80
5, 240000, Note_on_c, 3, 39, 109
5, 240716, Note_off_c, 3, 39, 80
5, 240720, Note_on_c, 3, 39, 109
5, 240956, Note_off_c, 3, 39, 80
5, 240960, Note_on_c, 3, 39, 109
5, 241196, Note_off_c, 3, 39, 80
5, 241200, Note_on_c, 3, 39, 109
5, 241436, Note_off_c, 3, 39, 80
5, 241440, Note_on_c, 3, 39, 109
5, 241676, Note_off_c, 3, 39, 80
5, 241680, Note_on_c, 3, 39, 109
5, 241916, Note_off_c, 3, 39, 80
5, 241920, Note_on_c, 3, 39, 109
5, 242156, Note_off_c, 3, 39, 80
5, 242160, Note_on_c, 3, 39, 109
5, 242396, Note_off_c, 3, 39, 80
5, 242400, Note_on_c, 3, 39, 109
5, 242636, Note_off_c, 3, 39, 80
5, 242640, Note_on_c, 3, 39, 109
5, 242876, Note_off_c, 3, 39, 80
5, 242880, Note_on_c, 3, 39, 109
5, 243116, Note_off_c, 3, 39, 80
5, 243120, Note_on_c, 3, 39, 109
5, 243356, Note_off_c, 3, 39, 80
5, 243360, Note_on_c, 3, 39, 109
5, 243596, Note_off_c, 3, 39, 80
5, 243600, Note_on_c, 3, 39, 109
5, 243836, Note_off_c, 3, 39, 80
5, 243840, Note_on_c, 3, 30, 109
5, 244076, Note_off_c, 3, 30, 80
5, 244080, Note_on_c, 3, 30, 109
5, 244316, Note_off_c, 3, 30, 80
5, 244560, Note_on_c, 3, 30, 109
5, 244796, Note_off_c, 3, 30, 80
5, 244800, Note_on_c, 3, 42, 109
5, 245036, Note_off_c, 3, 42, 80
5, 245040, Note_on_c, 3, 30, 109
5, 245276, Note_off_c, 3, 30, 80
5, 245520, Note_on_c, 3, 30, 109
5, 245756, Note_off_c, 3, 30, 80
5, 245760, Note_on_c, 3, 30, 109
5, 245996, Note_off_c, 3, 30, 80
5, 246000, Note_on_c, 3, 42, 109
5, 246236, Note_off_c, 3, 42, 80
5, 246480, Note_on_c, 3, 30, 109
5, 246716, Note_off_c, 3, 30, 80
5, 246720, Note_on_c, 3, 30, 109
5, 246956, Note_off_c, 3, 30, 80
5, 246960, Note_on_c, 3, 42, 109
5, 247196, Note_off_c, 3, 42, 80
5, 247440, Note_on_c, 3, 32, 109
5, 247676, Note_off_c, 3, 32, 80
5, 247680, Note_on_c, 3, 37, 109
5, 248396, Note_off_c, 3, 37, 80
5, 248400, Note_on_c, 3, 37, 109
5, 248636, Note_off_c, 3, 37, 80
5, 248640, Note_on_c, 3, 37, 109
5, 248876, Note_off_c, 3, 37, 80
5, 248880, Note_on_c, 3, 37, 109
5, 249356, Note_off_c, 3, 37, 80
5, 249360, Note_on_c, 3, 39, 109
5, 249596, Note_off_c, 3, 39, 80
5, 249600, Note_on_c, 3, 32, 109
5, 250316, Note_off_c, 3, 32, 80
5, 250320, Note_on_c, 3, 32, 109
5, 250556, Note_off_c, 3, 32, 80
5, 250560, Note_on_c, 3, 32, 109
5, 250796, Note_off_c, 3, 32, 80
5, 250800, Note_on_c, 3, 32, 109
5, 251276, Note_off_c, 3, 32, 80
5, 251280, Note_on_c, 3, 32, 109
5, 251516, Note_off_c, 3, 32, 80
5, 251520, Note_on_c, 3, 39, 109
5, 252236, Note_off_c, 3, 39, 80
5, 252240, Note_on_c, 3, 39, 109
5, 252476, Note_off_c, 3, 39, 80
5, 252480, Note_on_c, 3, 39, 109
5, 252716, Note_off_c, 3, 39, 80
5, 252720, Note_on_c, 3, 39, 109
5, 253436, Note_off_c, 3, 39, 80
5, 253440, Note_on_c, 3, 39, 109
5, 254156, Note_off_c, 3, 39, 80
5, 254160, Note_on_c, 3, 39, 109
5, 254396, Note_off_c, 3, 39, 80
5, 254400, Note_on_c, 3, 39, 109
5, 254636, Note_off_c, 3, 39, 80
5, 254640, Note_on_c, 3, 39, 109
5, 255356, Note_off_c, 3, 39, 80
5, 255360, Note_on_c, 3, 30, 109
5, 255596, Note_off_c, 3, 30, 80
5, 255600, Note_on_c, 3, 30, 109
5, 255836, Note_off_c, 3, 30, 80
5, 256080, Note_on_c, 3, 30, 109
5, 256316, Note_off_c, 3, 30, 80
5, 256320, Note_on_c, 3, 42, 109
5, 256556, Note_off_c, 3, 42, 80
5, 256560, Note_on_c, 3, 30, 109
5, 256796, Note_off_c, 3, 30, 80
5, 257040, Note_on_c, 3, 30, 109
5, 257276, Note_off_c, 3, 30, 80
5, 257280, Note_on_c, 3, 30, 109
5, 257516, Note_off_c, 3, 30, 80
5, 257520, Note_on_c, 3, 42, 109
5, 257756, Note_off_c, 3, 42, 80
5, 258000, Note_on_c, 3, 30, 109
5, 258236, Note_off_c, 3, 30, 80
5, 258240, Note_on_c, 3, 30, 109
5, 258476, Note_off_c, 3, 30, 80
5, 258480, Note_on_c, 3, 42, 109
5, 258716, Note_off_c, 3, 42, 80
5, 258960, Note_on_c, 3, 32, 109
5, 259196, Note_off_c, 3, 32, 80
5, 259200, Note_on_c, 3, 37, 109
5, 259916, Note_off_c, 3, 37, 80
5, 259920, Note_on_c, 3, 37, 109
5, 260156, Note_off_c, 3, 37, 80
5, 260160, Note_on_c, 3, 37, 109
5, 260396, Note_off_c, 3, 37, 80
5, 260400, Note_on_c, 3, 37, 109
5, 260876, Note_off_c, 3, 37, 80
5, 260880, Note_on_c, 3, 39, 109
5, 261116, Note_off_c, 3, 39, 80
5, 261120, Note_on_c, 3, 32, 109
5, 261836, Note_off_c, 3, 32, 80
5, 261840, Note_on_c, 3, 32, 109
5, 262076, Note_off_c, 3, 32, 80
5, 262080, Note_on_c, 3, 32, 109
5, 262316, Note_off_c, 3, 32, 80
5, 262320, Note_on_c, 3, 32, 109
5, 262796, Note_off_c, 3, 32, 80
5, 262800, Note_on_c, 3, 32, 109
5, 263036, Note_off_c, 3, 32, 80
5, 263040, Note_on_c, 3, 39, 109
5, 263756, Note_off_c, 3, 39, 80
5, 263760, Note_on_c, 3, 39, 109
5, 263996, Note_off_c, 3, 39, 80
5, 264000, Note_on_c, 3, 39, 109
5, 264236, Note_off_c, 3, 39, 80
5, 264240, Note_on_c, 3, 39, 109
5, 264956, Note_off_c, 3, 39, 80
5, 264960, Note_on_c, 3, 39, 109
5, 265676, Note_off_c, 3, 39, 80
5, 265680, Note_on_c, 3, 39, 109
5, 265916, Note_off_c, 3, 39, 80
5, 265920, Note_on_c, 3, 39, 109
5, 266156, Note_off_c, 3, 39, 80
5, 266160, Note_on_c, 3, 39, 109
5, 266876, Note_off_c, 3, 39, 80
5, 266880, Note_on_c, 3, 37, 109
5, 267056, Note_off_c, 3, 37, 80
5, 267120, Note_on_c, 3, 37, 109
5, 267296, Note_off_c, 3, 37, 80
5, 267360, Note_on_c, 3, 41, 109
5, 267536, Note_off_c, 3, 41, 80
5, 267600, Note_on_c, 3, 44, 109
5, 267776, Note_off_c, 3, 44, 80
5, 267840, Note_on_c, 3, 36, 109
5, 268016, Note_off_c, 3, 36, 80
5, 268080, Note_on_c, 3, 36, 109
5, 268256, Note_off_c, 3, 36, 80
5, 268320, Note_on_c, 3, 41, 109
5, 268496, Note_off_c, 3, 41, 80
5, 268560, Note_on_c, 3, 44, 109
5, 268736, Note_off_c, 3, 44, 80
5, 268800, Note_on_c, 3, 34, 109
5, 268976, Note_off_c, 3, 34, 80
5, 269040, Note_on_c, 3, 36, 109
5, 269216, Note_off_c, 3, 36, 80
5, 269280, Note_on_c, 3, 37, 109
5, 269456, Note_off_c, 3, 37, 80
5, 269520, Note_on_c, 3, 44, 109
5, 269876, Note_off_c, 3, 44, 80
5, 270000, Note_on_c, 3, 44, 109
5, 270176, Note_off_c, 3, 44, 80
5, 270240, Note_on_c, 3, 41, 109
5, 270416, Note_off_c, 3, 41, 80
5, 270480, Note_on_c, 3, 39, 109
5, 270656, Note_off_c, 3, 39, 80
5, 270720, Note_on_c, 3, 37, 109
5, 270896, Note_off_c, 3, 37, 80
5, 270960, Note_on_c, 3, 37, 109
5, 271136, Note_off_c, 3, 37, 80
5, 271200, Note_on_c, 3, 41, 109
5, 271376, Note_off_c, 3, 41, 80
5, 271440, Note_on_c, 3, 44, 109
5, 271616, Note_off_c, 3, 44, 80
5, 271680, Note_on_c, 3, 36, 109
5, 271856, Note_off_c, 3, 36, 80
5, 271920, Note_on_c, 3, 36, 109
5, 272096, Note_off_c, 3, 36, 80
5, 272160, Note_on_c, 3, 41, 109
5, 272336, Note_off_c, 3, 41, 80
5, 272400, Note_on_c, 3, 44, 109
5, 272576, Note_off_c, 3, 44, 80
5, 272640, Note_on_c, 3, 34, 109
5, 272816, Note_off_c, 3, 34, 80
5, 272880, Note_on_c, 3, 36, 109
5, 273056, Note_off_c, 3, 36, 80
5, 273120, Note_on_c, 3, 37, 109
5, 273296, Note_off_c, 3, 37, 80
5, 273360, Note_on_c, 3, 32, 109
5, 273716, Note_off_c, 3, 32, 80
5, 273840, Note_on_c, 3, 32, 109
5, 274016, Note_off_c, 3, 32, 80
5, 274080, Note_on_c, 3, 36, 109
5, 274436, Note_off_c, 3, 36, 80
5, 274560, Note_on_c, 3, 37, 109
5, 274736, Note_off_c, 3, 37, 80
5, 274800, Note_on_c, 3, 37, 109
5, 274976, Note_off_c, 3, 37, 80
5, 275040, Note_on_c, 3, 41, 109
5, 275216, Note_off_c, 3, 41, 80
5, 275280, Note_on_c, 3, 44, 109
5, 275456, Note_off_c, 3, 44, 80
5, 275520, Note_on_c, 3, 36, 109
5, 275696, Note_off_c, 3, 36, 80
5, 275760, Note_on_c, 3, 36, 109
5, 275936, Note_off_c, 3, 36, 80
5, 276000, Note_on_c, 3, 41, 109
5, 276176, Note_off_c, 3, 41, 80
5, 276240, Note_on_c, 3, 44, 109
5, 276416, Note_off_c, 3, 44, 80
5, 276480, Note_on_c, 3, 34, 109
5, 276656, Note_off_c, 3, 34, 80
5, 276720, Note_on_c, 3, 36, 109
5, 276896, Note_off_c, 3, 36, 80
5, 276960, Note_on_c, 3, 37, 109
5, 277136, Note_off_c, 3, 37, 80
5, 277200, Note_on_c, 3, 32, 109
5, 277556, Note_off_c, 3, 32, 80
5, 277680, Note_on_c, 3, 32, 109
5, 277856, Note_off_c, 3, 32, 80
5, 277920, Note_on_c, 3, 32, 109
5, 278276, Note_off_c, 3, 32, 80
5, 278400, Note_on_c, 3, 34, 109
5, 278876, Note_off_c, 3, 34, 80
5, 278880, Note_on_c, 3, 34, 109
5, 279356, Note_off_c, 3, 34, 80
5, 279360, Note_on_c, 3, 34, 109
5, 279716, Note_off_c, 3, 34, 80
5, 279720, Note_on_c, 3, 34, 109
5, 279836, Note_off_c, 3, 34, 80
5, 279840, Note_on_c, 3, 34, 109
5, 280196, Note_off_c, 3, 34, 80
5, 280200, Note_on_c, 3, 34, 109
5, 280316, Note_off_c, 3, 34, 80
5, 280320, Note_on_c, 3, 34, 109
5, 280676, Note_off_c, 3, 34, 80
5, 280680, Note_on_c, 3, 34, 109
5, 280796, Note_off_c, 3, 34, 80
5, 280800, Note_on_c, 3, 34, 109
5, 281156, Note_off_c, 3, 34, 80
5, 281160, Note_on_c, 3, 34, 109
5, 281276, Note_off_c, 3, 34, 80
5, 281280, Note_on_c, 3, 34, 109
5, 281636, Note_off_c, 3, 34, 80
5, 281640, Note_on_c, 3, 34, 109
5, 281756, Note_off_c, 3, 34, 80
5, 281760, Note_on_c, 3, 34, 109
5, 282116, Note_off_c, 3, 34, 80
5, 282120, Note_on_c, 3, 34, 109
5, 282236, Note_off_c, 3, 34, 80
5, 282240, Note_on_c, 3, 37, 109
5, 282716, Note_off_c, 3, 37, 80
5, 282720, Note_on_c, 3, 37, 109
5, 283196, Note_off_c, 3, 37, 80
5, 283200, Note_on_c, 3, 37, 109
5, 283676, Note_off_c, 3, 37, 80
5, 283680, Note_on_c, 3, 37, 109
5, 284156, Note_off_c, 3, 37, 80
5, 284160, Note_on_c, 3, 41, 109
5, 284636, Note_off_c, 3, 41, 80
5, 284640, Note_on_c, 3, 41, 109
5, 285116, Note_off_c, 3, 41, 80
5, 285120, Note_on_c, 3, 41, 109
5, 285596, Note_off_c, 3, 41, 80
5, 285600, Note_on_c, 3, 41, 109
5, 286076, Note_off_c, 3, 41, 80
5, 286080, Note_on_c, 3, 44, 109
5, 286556, Note_off_c, 3, 44, 80
5, 286560, Note_on_c, 3, 44, 109
5, 287036, Note_off_c, 3, 44, 80
5, 287040, Note_on_c, 3, 44, 109
5, 287516, Note_off_c, 3, 44, 80
5, 287520, Note_on_c, 3, 44, 109
5, 287996, Note_off_c, 3, 44, 80
5, 288000, Note_on_c, 3, 44, 109
5, 288476, Note_off_c, 3, 44, 80
5, 288480, Note_on_c, 3, 44, 109
5, 288956, Note_off_c, 3, 44, 80
5, 288960, Note_on_c, 3, 44, 109
5, 289436, Note_off_c, 3, 44, 80
5, 289440, Note_on_c, 3, 44, 109
5, 289676, Note_off_c, 3, 44, 80
5, 289680, Note_on_c, 3, 39, 109
5, 289916, Note_off_c, 3, 39, 80
5, 289920, Note_on_c, 3, 37, 109
5, 290396, Note_off_c, 3, 37, 80
5, 290400, Note_on_c, 3, 49, 109
5, 290636, Note_off_c, 3, 49, 80
5, 290640, Note_on_c, 3, 37, 109
5, 290876, Note_off_c, 3, 37, 80
5, 290880, Note_on_c, 3, 37, 109
5, 291116, Note_off_c, 3, 37, 80
5, 291120, Note_on_c, 3, 49, 109
5, 291356, Note_off_c, 3, 49, 80
5, 291360, Note_on_c, 3, 37, 109
5, 291596, Note_off_c, 3, 37, 80
5, 291600, Note_on_c, 3, 37, 109
5, 291836, Note_off_c, 3, 37, 80
5, 291840, Note_on_c, 3, 37, 109
5, 292076, Note_off_c, 3, 37, 80
5, 292080, Note_on_c, 3, 37, 109
5, 292316, Note_off_c, 3, 37, 80
5, 292320, Note_on_c, 3, 37, 109
5, 292556, Note_off_c, 3, 37, 80
5, 292560, Note_on_c, 3, 37, 109
5, 292796, Note_off_c, 3, 37, 80
5, 292800, Note_on_c, 3, 37, 109
5, 293036, Note_off_c, 3, 37, 80
5, 293040, Note_on_c, 3, 37, 109
5, 293276, Note_off_c, 3, 37, 80
5, 293280, Note_on_c, 3, 39, 109
5, 293516, Note_off_c, 3, 39, 80
5, 293520, Note_on_c, 3, 37, 109
5, 293756, Note_off_c, 3, 37, 80
5, 293760, Note_on_c, 3, 32, 109
5, 293996, Note_off_c, 3, 32, 80
5, 294000, Note_on_c, 3, 32, 109
5, 294236, Note_off_c, 3, 32, 80
5, 294240, Note_on_c, 3, 32, 109
5, 294476, Note_off_c, 3, 32, 80
5, 294480, Note_on_c, 3, 32, 109
5, 294716, Note_off_c, 3, 32, 80
5, 294720, Note_on_c, 3, 32, 109
5, 294956, Note_off_c, 3, 32, 80
5, 294960, Note_on_c, 3, 44, 109
5, 295436, Note_off_c, 3, 44, 80
5, 295440, Note_on_c, 3, 32, 109
5, 295676, Note_off_c, 3, 32, 80
5, 295680, Note_on_c, 3, 32, 109
5, 295916, Note_off_c, 3, 32, 80
5, 295920, Note_on_c, 3, 44, 109
5, 296156, Note_off_c, 3, 44, 80
5, 296160, Note_on_c, 3, 32, 109
5, 296396, Note_off_c, 3, 32, 80
5, 296400, Note_on_c, 3, 44, 109
5, 296636, Note_off_c, 3, 44, 80
5, 296640, Note_on_c, 3, 32, 109
5, 296876, Note_off_c, 3, 32, 80
5, 296880, Note_on_c, 3, 44, 109
5, 297116, Note_off_c, 3, 44, 80
5, 297120, Note_on_c, 3, 32, 109
5, 297356, Note_off_c, 3, 32, 80
5, 297360, Note_on_c, 3, 39, 109
5, 297596, Note_off_c, 3, 39, 80
5, 297600, Note_on_c, 3, 37, 109
5, 298076, Note_off_c, 3, 37, 80
5, 298080, Note_on_c, 3, 49, 109
5, 298556, Note_off_c, 3, 49, 80
5, 298560, Note_on_c, 3, 37, 109
5, 298796, Note_off_c, 3, 37, 80
5, 298800, Note_on_c, 3, 49, 109
5, 299036, Note_off_c, 3, 49, 80
5, 299040, Note_on_c, 3, 37, 109
5, 299276, Note_off_c, 3, 37, 80
5, 299280, Note_on_c, 3, 49, 109
5, 299516, Note_off_c, 3, 49, 80
5, 299520, Note_on_c, 3, 49, 109
5, 299756, Note_off_c, 3, 49, 80
5, 299760, Note_on_c, 3, 37, 109
5, 299996, Note_off_c, 3, 37, 80
5, 300000, Note_on_c, 3, 37, 109
5, 300236, Note_off_c, 3, 37, 80
5, 300240, Note_on_c, 3, 49, 109
5, 300476, Note_off_c, 3, 49, 80
5, 300480, Note_on_c, 3, 37, 109
5, 300716, Note_off_c, 3, 37, 80
5, 300720, Note_on_c, 3, 49, 109
5, 300956, Note_off_c, 3, 49, 80
5, 300960, Note_on_c, 3, 37, 109
5, 301196, Note_off_c, 3, 37, 80
5, 301200, Note_on_c, 3, 49, 109
5, 301436, Note_off_c, 3, 49, 80
5, 301440, Note_on_c, 3, 44, 109
5, 301916, Note_off_c, 3, 44, 80
5, 301920, Note_on_c, 3, 44, 109
5, 302396, Note_off_c, 3, 44, 80
5, 302400, Note_on_c, 3, 44, 109
5, 302876, Note_off_c, 3, 44, 80
5, 302880, Note_on_c, 3, 44, 109
5, 303356, Note_off_c, 3, 44, 80
5, 303360, Note_on_c, 3, 44, 109
5, 303836, Note_off_c, 3, 44, 80
5, 303840, Note_on_c, 3, 44, 109
5, 304316, Note_off_c, 3, 44, 80
5, 304320, Note_on_c, 3, 44, 109
5, 304796, Note_off_c, 3, 44, 80
5, 304800, Note_on_c, 3, 44, 109
5, 305036, Note_off_c, 3, 44, 80
5, 305040, Note_on_c, 3, 39, 109
5, 305276, Note_off_c, 3, 39, 80
5, 305280, Note_on_c, 3, 37, 109
5, 305756, Note_off_c, 3, 37, 80
5, 305760, Note_on_c, 3, 49, 109
5, 305996, Note_off_c, 3, 49, 80
5, 306000, Note_on_c, 3, 37, 109
5, 306236, Note_off_c, 3, 37, 80
5, 306240, Note_on_c, 3, 37, 109
5, 306476, Note_off_c, 3, 37, 80
5, 306480, Note_on_c, 3, 49, 109
5, 306716, Note_off_c, 3, 49, 80
5, 306720, Note_on_c, 3, 37, 109
5, 306956, Note_off_c, 3, 37, 80
5, 306960, Note_on_c, 3, 37, 109
5, 307196, Note_off_c, 3, 37, 80
5, 307200, Note_on_c, 3, 37, 109
5, 307436, Note_off_c, 3, 37, 80
5, 307440, Note_on_c, 3, 37, 109
5, 307676, Note_off_c, 3, 37, 80
5, 307680, Note_on_c, 3, 37, 109
5, 307916, Note_off_c, 3, 37, 80
5, 307920, Note_on_c, 3, 37, 109
5, 308156, Note_off_c, 3, 37, 80
5, 308160, Note_on_c, 3, 37, 109
5, 308396, Note_off_c, 3, 37, 80
5, 308400, Note_on_c, 3, 37, 109
5, 308636, Note_off_c, 3, 37, 80
5, 308640, Note_on_c, 3, 39, 109
5, 308876, Note_off_c, 3, 39, 80
5, 308880, Note_on_c, 3, 37, 109
5, 309116, Note_off_c, 3, 37, 80
5, 309120, Note_on_c, 3, 32, 109
5, 309356, Note_off_c, 3, 32, 80
5, 309360, Note_on_c, 3, 32, 109
5, 309596, Note_off_c, 3, 32, 80
5, 309600, Note_on_c, 3, 32, 109
5, 309836, Note_off_c, 3, 32, 80
5, 309840, Note_on_c, 3, 32, 109
5, 310076, Note_off_c, 3, 32, 80
5, 310080, Note_on_c, 3, 32, 109
5, 310316, Note_off_c, 3, 32, 80
5, 310320, Note_on_c, 3, 44, 109
5, 310796, Note_off_c, 3, 44, 80
5, 310800, Note_on_c, 3, 32, 109
5, 311036, Note_off_c, 3, 32, 80
5, 311040, Note_on_c, 3, 32, 109
5, 311276, Note_off_c, 3, 32, 80
5, 311280, Note_on_c, 3, 44, 109
5, 311516, Note_off_c, 3, 44, 80
5, 311520, Note_on_c, 3, 32, 109
5, 311756, Note_off_c, 3, 32, 80
5, 311760, Note_on_c, 3, 44, 109
5, 311996, Note_off_c, 3, 44, 80
5, 312000, Note_on_c, 3, 32, 109
5, 312236, Note_off_c, 3, 32, 80
5, 312240, Note_on_c, 3, 44, 109
5, 312476, Note_off_c, 3, 44, 80
5, 312480, Note_on_c, 3, 32, 109
5, 312716, Note_off_c, 3, 32, 80
5, 312720, Note_on_c, 3, 39, 109
5, 312956, Note_off_c, 3, 39, 80
5, 312960, Note_on_c, 3, 37, 109
5, 313436, Note_off_c, 3, 37, 80
5, 313440, Note_on_c, 3, 49, 109
5, 313916, Note_off_c, 3, 49, 80
5, 313920, Note_on_c, 3, 37, 109
5, 314156, Note_off_c, 3, 37, 80
5, 314160, Note_on_c, 3, 49, 109
5, 314396, Note_off_c, 3, 49, 80
5, 314400, Note_on_c, 3, 37, 109
5, 314636, Note_off_c, 3, 37, 80
5, 314640, Note_on_c, 3, 49, 109
5, 314876, Note_off_c, 3, 49, 80
5, 314880, Note_on_c, 3, 49, 109
5, 315116, Note_off_c, 3, 49, 80
5, 315120, Note_on_c, 3, 37, 109
5, 315356, Note_off_c, 3, 37, 80
5, 315360, Note_on_c, 3, 37, 109
5, 315596, Note_off_c, 3, 37, 80
5, 315600, Note_on_c, 3, 49, 109
5, 315836, Note_off_c, 3, 49, 80
5, 315840, Note_on_c, 3, 37, 109
5, 316076, Note_off_c, 3, 37, 80
5, 316080, Note_on_c, 3, 49, 109
5, 316316, Note_off_c, 3, 49, 80
5, 316320, Note_on_c, 3, 37, 109
5, 316556, Note_off_c, 3, 37, 80
5, 316560, Note_on_c, 3, 49, 109
5, 316796, Note_off_c, 3, 49, 80
5, 316800, Note_on_c, 3, 44, 109
5, 317276, Note_off_c, 3, 44, 80
5, 317280, Note_on_c, 3, 44, 109
5, 317756, Note_off_c, 3, 44, 80
5, 317760, Note_on_c, 3, 44, 109
5, 318236, Note_off_c, 3, 44, 80
5, 318240, Note_on_c, 3, 44, 109
5, 318716, Note_off_c, 3, 44, 80
5, 318720, Note_on_c, 3, 44, 109
5, 319196, Note_off_c, 3, 44, 80
5, 319200, Note_on_c, 3, 44, 109
5, 319676, Note_off_c, 3, 44, 80
5, 319680, Note_on_c, 3, 44, 109
5, 320156, Note_off_c, 3, 44, 80
5, 320160, Note_on_c, 3, 44, 109
5, 320396, Note_off_c, 3, 44, 80
5, 320400, Note_on_c, 3, 39, 109
5, 320636, Note_off_c, 3, 39, 80
5, 320640, Note_on_c, 3, 37, 109
5, 321116, Note_off_c, 3, 37, 80
5, 321120, Note_on_c, 3, 49, 109
5, 321356, Note_off_c, 3, 49, 80
5, 321360, Note_on_c, 3, 37, 109
5, 321596, Note_off_c, 3, 37, 80
5, 321600, Note_on_c, 3, 37, 109
5, 321836, Note_off_c, 3, 37, 80
5, 321840, Note_on_c, 3, 49, 109
5, 322076, Note_off_c, 3, 49, 80
5, 322080, Note_on_c, 3, 37, 109
5, 322316, Note_off_c, 3, 37, 80
5, 322320, Note_on_c, 3, 37, 109
5, 322556, Note_off_c, 3, 37, 80
5, 322560, Note_on_c, 3, 37, 109
5, 322796, Note_off_c, 3, 37, 80
5, 322800, Note_on_c, 3, 37, 109
5, 323036, Note_off_c, 3, 37, 80
5, 323040, Note_on_c, 3, 37, 109
5, 323276, Note_off_c, 3, 37, 80
5, 323280, Note_on_c, 3, 37, 109
5, 323516, Note_off_c, 3, 37, 80
5, 323520, Note_on_c, 3, 37, 109
5, 323756, Note_off_c, 3, 37, 80
5, 323760, Note_on_c, 3, 37, 109
5, 323996, Note_off_c, 3, 37, 80
5, 324000, Note_on_c, 3, 39, 109
5, 324236, Note_off_c, 3, 39, 80
5, 324240, Note_on_c, 3, 37, 109
5, 324476, Note_off_c, 3, 37, 80
5, 324480, Note_on_c, 3, 32, 109
5, 324716, Note_off_c, 3, 32, 80
5, 324720, Note_on_c, 3, 32, 109
5, 324956, Note_off_c, 3, 32, 80
5, 324960, Note_on_c, 3, 32, 109
5, 325196, Note_off_c, 3, 32, 80
5, 325200, Note_on_c, 3, 32, 109
5, 325436, Note_off_c, 3, 32, 80
5, 325440, Note_on_c, 3, 32, 109
5, 325676, Note_off_c, 3, 32, 80
5, 325680, Note_on_c, 3, 44, 109
5, 326156, Note_off_c, 3, 44, 80
5, 326160, Note_on_c, 3, 32, 109
5, 326396, Note_off_c, 3, 32, 80
5, 326400, Note_on_c, 3, 32, 109
5, 326636, Note_off_c, 3, 32, 80
5, 326640, Note_on_c, 3, 44, 109
5, 326876, Note_off_c, 3, 44, 80
5, 326880, Note_on_c, 3, 32, 109
5, 327116, Note_off_c, 3, 32, 80
5, 327120, Note_on_c, 3, 44, 109
5, 327356, Note_off_c, 3, 44, 80
5, 327360, Note_on_c, 3, 32, 109
5, 327596, Note_off_c, 3, 32, 80
5, 327600, Note_on_c, 3, 44, 109
5, 327836, Note_off_c, 3, 44, 80
5, 327840, Note_on_c, 3, 32, 109
5, 328076, Note_off_c, 3, 32, 80
5, 328080, Note_on_c, 3, 39, 109
5, 328316, Note_off_c, 3, 39, 80
5, 328320, Note_on_c, 3, 37, 109
5, 328796, Note_off_c, 3, 37, 80
5, 328800, Note_on_c, 3, 49, 109
5, 329276, Note_off_c, 3, 49, 80
5, 329280, Note_on_c, 3, 37, 109
5, 329516, Note_off_c, 3, 37, 80
5, 329520, Note_on_c, 3, 49, 109
5, 329756, Note_off_c, 3, 49, 80
5, 329760, Note_on_c, 3, 37, 109
5, 329996, Note_off_c, 3, 37, 80
5, 330000, Note_on_c, 3, 49, 109
5, 330236, Note_off_c, 3, 49, 80
5, 330240, Note_on_c, 3, 49, 109
5, 330476, Note_off_c, 3, 49, 80
5, 330480, Note_on_c, 3, 37, 109
5, 330716, Note_off_c, 3, 37, 80
5, 330720, Note_on_c, 3, 37, 109
5, 330956, Note_off_c, 3, 37, 80
5, 330960, Note_on_c, 3, 49, 109
5, 331196, Note_off_c, 3, 49, 80
5, 331200, Note_on_c, 3, 37, 109
5, 331436, Note_off_c, 3, 37, 80
5, 331440, Note_on_c, 3, 49, 109
5, 331676, Note_off_c, 3, 49, 80
5, 331680, Note_on_c, 3, 37, 109
5, 331916, Note_off_c, 3, 37, 80
5, 331920, Note_on_c, 3, 49, 109
5, 332156, Note_off_c, 3, 49, 80
5, 332160, Note_on_c, 3, 44, 109
5, 332636, Note_off_c, 3, 44, 80
5, 332640, Note_on_c, 3, 44, 109
5, 333116, Note_off_c, 3, 44, 80
5, 333120, Note_on_c, 3, 44, 109
5, 333596, Note_off_c, 3, 44, 80
5, 333600, Note_on_c, 3, 44, 109
5, 334076, Note_off_c, 3, 44, 80
5, 334080, Note_on_c, 3, 44, 109
5, 334556, Note_off_c, 3, 44, 80
5, 334560, Note_on_c, 3, 44, 109
5, 335036, Note_off_c, 3, 44, 80
5, 335040, Note_on_c, 3, 44, 109
5, 335516, Note_off_c, 3, 44, 80
5, 335520, Note_on_c, 3, 44, 109
5, 335756, Note_off_c, 3, 44, 80
5, 335760, Note_on_c, 3, 39, 109
5, 335996, Note_off_c, 3, 39, 80
5, 336000, Note_on_c, 3, 37, 109
5, 336476, Note_off_c, 3, 37, 80
5, 336480, Note_on_c, 3, 49, 109
5, 336716, Note_off_c, 3, 49, 80
5, 336720, Note_on_c, 3, 37, 109
5, 336956, Note_off_c, 3, 37, 80
5, 336960, Note_on_c, 3, 37, 109
5, 337196, Note_off_c, 3, 37, 80
5, 337200, Note_on_c, 3, 49, 109
5, 337436, Note_off_c, 3, 49, 80
5, 337440, Note_on_c, 3, 37, 109
5, 337676, Note_off_c, 3, 37, 80
5, 337680, Note_on_c, 3, 37, 109
5, 337916, Note_off_c, 3, 37, 80
5, 337920, Note_on_c, 3, 37, 109
5, 338156, Note_off_c, 3, 37, 80
5, 338160, Note_on_c, 3, 37, 109
5, 338396, Note_off_c, 3, 37, 80
5, 338400, Note_on_c, 3, 37, 109
5, 338636, Note_off_c, 3, 37, 80
5, 338640, Note_on_c, 3, 37, 109
5, 338876, Note_off_c, 3, 37, 80
5, 338880, Note_on_c, 3, 37, 109
5, 339116, Note_off_c, 3, 37, 80
5, 339120, Note_on_c, 3, 37, 109
5, 339356, Note_off_c, 3, 37, 80
5, 339360, Note_on_c, 3, 39, 109
5, 339596, Note_off_c, 3, 39, 80
5, 339600, Note_on_c, 3, 37, 109
5, 339836, Note_off_c, 3, 37, 80
5, 339840, Note_on_c, 3, 32, 109
5, 340076, Note_off_c, 3, 32, 80
5, 340080, Control_c, 3, 7, 126
5, 340080, Note_on_c, 3, 32, 109
5, 340200, Control_c, 3, 7, 125
5, 340316, Note_off_c, 3, 32, 80
5, 340320, Control_c, 3, 7, 124
5, 340320, Note_on_c, 3, 32, 109
5, 340556, Note_off_c, 3, 32, 80
5, 340560, Control_c, 3, 7, 123
5, 340560, Note_on_c, 3, 32, 109
5, 340680, Control_c, 3, 7, 122
5, 340796, Note_off_c, 3, 32, 80
5, 340800, Control_c, 3, 7, 121
5, 340800, Note_on_c, 3, 32, 109
5, 341036, Note_off_c, 3, 32, 80
5, 341040, Control_c, 3, 7, 120
5, 341040, Note_on_c, 3, 44, 109
5, 341160, Control_c, 3, 7, 119
5, 341280, Control_c, 3, 7, 118
5, 341516, Note_off_c, 3, 44, 80
5, 341520, Control_c, 3, 7, 117
5, 341520, Note_on_c, 3, 32, 109
5, 341640, Control_c, 3, 7, 116
5, 341756, Note_off_c, 3, 32, 80
5, 341760, Control_c, 3, 7, 115
5, 341760, Note_on_c, 3, 32, 109
5, 341996, Note_off_c, 3, 32, 80
5, 342000, Control_c, 3, 7, 114
5, 342000, Note_on_c, 3, 44, 109
5, 342120, Control_c, 3, 7, 113
5, 342236, Note_off_c, 3, 44, 80
5, 342240, Control_c, 3, 7, 112
5, 342240, Note_on_c, 3, 32, 109
5, 342476, Note_off_c, 3, 32, 80
5, 342480, Control_c, 3, 7, 111
5, 342480, Note_on_c, 3, 44, 109
5, 342600, Control_c, 3, 7, 110
5, 342716, Note_off_c, 3, 44, 80
5, 342720, Note_on_c, 3, 32, 109
5, 342840, Control_c, 3, 7, 109
5, 342956, Note_off_c, 3, 32, 80
5, 342960, Control_c, 3, 7, 108
5, 342960, Note_on_c, 3, 44, 109
5, 343080, Control_c, 3, 7, 107
5, 343196, Note_off_c, 3, 44, 80
5, 343200, Note_on_c, 3, 32, 109
5, 343320, Control_c, 3, 7, 106
5, 343436, Note_off_c, 3, 32, 80
5, 343440, Control_c, 3, 7, 105
5, 343440, Note_on_c, 3, 39, 109
5, 343560, Control_c, 3, 7, 104
5, 343676, Note_off_c, 3, 39, 80
5, 343680, Note_on_c, 3, 37, 109
5, 343800, Control_c, 3, 7, 103
5, 343920, Control_c, 3, 7, 102
5, 344040, Control_c, 3, 7, 101
5, 344156, Note_off_c, 3, 37, 80
5, 344160, Note_on_c, 3, 49, 109
5, 344280, Control_c, 3, 7, 100
5, 344400, Control_c, 3, 7, 99
5, 344520, Control_c, 3, 7, 98
5, 344636, Note_off_c, 3, 49, 80
5, 344640, Note_on_c, 3, 37, 109
5, 344760, Control_c, 3, 7, 97
5, 344876, Note_off_c, 3, 37, 80
5, 344880, Control_c, 3, 7, 96
5, 344880, Note_on_c, 3, 49, 109
5, 345116, Note_off_c, 3, 49, 80
5, 345120, Control_c, 3, 7, 95
5, 345120, Note_on_c, 3, 37, 109
5, 345240, Control_c, 3, 7, 94
5, 345356, Note_off_c, 3, 37, 80
5, 345360, Control_c, 3, 7, 93
5, 345360, Note_on_c, 3, 49, 109
5, 345596, Note_off_c, 3, 49, 80
5, 345600, Control_c, 3, 7, 92
5, 345600, Note_on_c, 3, 49, 109
5, 345720, Control_c, 3, 7, 91
5, 345836, Note_off_c, 3, 49, 80
5, 345840, Control_c, 3, 7, 90
5, 345840, Note_on_c, 3, 37, 109
5, 346076, Note_off_c, 3, 37, 80
5, 346080, Control_c, 3, 7, 89
5, 346080, Note_on_c, 3, 37, 109
5, 346200, Control_c, 3, 7, 88
5, 346316, Note_off_c, 3, 37, 80
5, 346320, Control_c, 3, 7, 87
5, 346320, Note_on_c, 3, 49, 109
5, 346556, Note_off_c, 3, 49, 80
5, 346560, Control_c, 3, 7, 86
5, 346560, Note_on_c, 3, 37, 109
5, 346680, Control_c, 3, 7, 85
5, 346796, Note_off_c, 3, 37, 80
5, 346800, Control_c, 3, 7, 84
5, 346800, Note_on_c, 3, 49, 109
5, 347036, Note_off_c, 3, 49, 80
5, 347040, Control_c, 3, 7, 83
5, 347040, Note_on_c, 3, 37, 109
5, 347160, Control_c, 3, 7, 82
5, 347276, Note_off_c, 3, 37, 80
5, 347280, Control_c, 3, 7, 81
5, 347280, Note_on_c, 3, 49, 109
5, 347516, Note_off_c, 3, 49, 80
5, 347520, Control_c, 3, 7, 80
5, 347520, Control_c, 3, 7, 79
5, 347520, Note_on_c, 3, 44, 109
5, 347640, Control_c, 3, 7, 78
5, 347760, Control_c, 3, 7, 77
5, 347880, Control_c, 3, 7, 76
5, 347996, Note_off_c, 3, 44, 80
5, 348000, Control_c, 3, 7, 75
5, 348000, Note_on_c, 3, 44, 109
5, 348120, Control_c, 3, 7, 74
5, 348240, Control_c, 3, 7, 73
5, 348360, Control_c, 3, 7, 72
5, 348476, Note_off_c, 3, 44, 80
5, 348480, Control_c, 3, 7, 71
5, 348480, Note_on_c, 3, 44, 109
5, 348600, Control_c, 3, 7, 70
5, 348720, Control_c, 3, 7, 69
5, 348840, Control_c, 3, 7, 68
5, 348956, Note_off_c, 3, 44, 80
5, 348960, Control_c, 3, 7, 67
5, 348960, Note_on_c, 3, 44, 109
5, 349080, Control_c, 3, 7, 66
5, 349200, Control_c, 3, 7, 65
5, 349320, Control_c, 3, 7, 64
5, 349436, Note_off_c, 3, 44, 80
5, 349440, Control_c, 3, 7, 63
5, 349440, Note_on_c, 3, 44, 109
5, 349560, Control_c, 3, 7, 62
5, 349680, Control_c, 3, 7, 61
5, 349800, Control_c, 3, 7, 60
5, 349916, Note_off_c, 3, 44, 80
5, 349920, Control_c, 3, 7, 59
5, 349920, Note_on_c, 3, 44, 109
5, 350040, Control_c, 3, 7, 58
5, 350160, Control_c, 3, 7, 57
5, 350280, Control_c, 3, 7, 56
5, 350396, Note_off_c, 3, 44, 80
5, 350400, Control_c, 3, 7, 55
5, 350400, Note_on_c, 3, 44, 109
5, 350520, Control_c, 3, 7, 54
5, 350640, Control_c, 3, 7, 53
5, 350760, Control_c, 3, 7, 52
5, 350876, Note_off_c, 3, 44, 80
5, 350880, Control_c, 3, 7, 51
5, 350880, Note_on_c, 3, 44, 109
5, 351000, Control_c, 3, 7, 50
5, 351116, Note_off_c, 3, 44, 80
5, 351120, Control_c, 3, 7, 49
5, 351120, Note_on_c, 3, 39, 109
5, 351240, Control_c, 3, 7, 48
5, 351356, Note_off_c, 3, 39, 80
5, 351360, Note_on_c, 3, 37, 109
5, 351480, Control_c, 3, 7, 47
5, 351600, Control_c, 3, 7, 46
5, 351720, Control_c, 3, 7, 45
5, 351836, Note_off_c, 3, 37, 80
5, 351840, Control_c, 3, 7, 44
5, 351840, Note_on_c, 3, 49, 109
5, 351960, Control_c, 3, 7, 43
5, 352076, Note_off_c, 3, 49, 80
5, 352080, Control_c, 3, 7, 42
5, 352080, Note_on_c, 3, 37, 109
5, 352200, Control_c, 3, 7, 41
5, 352316, Note_off_c, 3, 37, 80
5, 352320, Control_c, 3, 7, 40
5, 352320, Note_on_c, 3, 37, 109
5, 352440, Control_c, 3, 7, 39
5, 352556, Note_off_c, 3, 37, 80
5, 352560, Control_c, 3, 7, 38
5, 352560, Note_on_c, 3, 49, 109
5, 352680, Control_c, 3, 7, 37
5, 352796, Note_off_c, 3, 49, 80
5, 352800, Control_c, 3, 7, 36
5, 352800, Note_on_c, 3, 37, 109
5, 352920, Control_c, 3, 7, 35
5, 353036, Note_off_c, 3, 37, 80
5, 353040, Control_c, 3, 7, 34
5, 353040, Note_on_c, 3, 37, 109
5, 353160, Control_c, 3, 7, 33
5, 353276, Note_off_c, 3, 37, 80
5, 353280, Control_c, 3, 7, 32
5, 353280, Note_on_c, 3, 37, 109
5, 353400, Control_c, 3, 7, 31
5, 353516, Note_off_c, 3, 37, 80
5, 353520, Control_c, 3, 7, 30
5, 353520, Note_on_c, 3, 37, 109
5, 353640, Control_c, 3, 7, 29
5, 353756, Note_off_c, 3, 37, 80
5, 353760, Control_c, 3, 7, 28
5, 353760, Note_on_c, 3, 37, 109
5, 353880, Control_c, 3, 7, 27
5, 353996, Note_off_c, 3, 37, 80
5, 354000, Control_c, 3, 7, 26
5, 354000, Note_on_c, 3, 37, 109
5, 354120, Control_c, 3, 7, 25
5, 354236, Note_off_c, 3, 37, 80
5, 354240, Control_c, 3, 7, 24
5, 354240, Note_on_c, 3, 37, 109
5, 354360, Control_c, 3, 7, 23
5, 354476, Note_off_c, 3, 37, 80
5, 354480, Control_c, 3, 7, 22
5, 354480, Note_on_c, 3, 37, 109
5, 354600, Control_c, 3, 7, 21
5, 354716, Note_off_c, 3, 37, 80
5, 354720, Control_c, 3, 7, 20
5, 354720, Note_on_c, 3, 39, 109
5, 354840, Control_c, 3, 7, 19
5, 354956, Note_off_c, 3, 39, 80
5, 354960, Control_c, 3, 7, 18
5, 354960, Note_on_c, 3, 37, 109
5, 355080, Control_c, 3, 7, 17
5, 355196, Note_off_c, 3, 37, 80
5, 355200, Control_c, 3, 7, 16
5, 355200, Control_c, 3, 7, 15
5, 355200, Note_on_c, 3, 32, 109
5, 355320, Control_c, 3, 7, 14
5, 355436, Note_off_c, 3, 32, 80
5, 355440, Control_c, 3, 7, 13
5, 355440, Note_on_c, 3, 32, 109
5, 355560, Control_c, 3, 7, 12
5, 355676, Note_off_c, 3, 32, 80
5, 355680, Control_c, 3, 7, 11
5, 355680, Note_on_c, 3, 32, 109
5, 355800, Control_c, 3, 7, 10
5, 355916, Note_off_c, 3, 32, 80
5, 355920, Control_c, 3, 7, 9
5, 355920, Note_on_c, 3, 32, 109
5, 356040, Control_c, 3, 7, 8
5, 356156, Note_off_c, 3, 32, 80
5, 356160, Note_on_c, 3, 32, 109
5, 356280, Control_c, 3, 7, 7
5, 356396, Note_off_c, 3, 32, 80
5, 356400, Control_c, 3, 7, 6
5, 356400, Note_on_c, 3, 44, 109
5, 356520, Control_c, 3, 7, 5
5, 356640, Control_c, 3, 7, 4
5, 356760, Control_c, 3, 7, 3
5, 356876, Note_off_c, 3, 44, 80
5, 356880, Control_c, 3, 7, 2
5, 356880, Note_on_c, 3, 32, 109
5, 357000, Control_c, 3, 7, 1
5, 357116, Note_off_c, 3, 32, 80
5, 357120, Control_c, 3, 7, 0
5, 357120, Note_on_c, 3, 32, 109
5, 357356, Note_off_c, 3, 32, 80
5, 357360, Note_on_c, 3, 44, 109
5, 357596, Note_off_c, 3, 44, 80
5, 357600, Note_on_c, 3, 32, 109
5, 357836, Note_off_c, 3, 32, 80
5, 357840, Note_on_c, 3, 44, 109
5, 358076, Note_off_c, 3, 44, 80
5, 358080, Note_on_c, 3, 32, 109
5, 358316, Note_off_c, 3, 32, 80
5, 358320, Note_on_c, 3, 44, 109
5, 358556, Note_off_c, 3, 44, 80
5, 358560, Note_on_c, 3, 32, 109
5, 358796, Note_off_c, 3, 32, 80
5, 358800, Note_on_c, 3, 39, 109
5, 359036, Note_off_c, 3, 39, 80
5, 359040, Note_on_c, 3, 37, 109
5, 359516, Note_off_c, 3, 37, 80
5, 359520, Note_on_c, 3, 49, 109
5, 359996, Note_off_c, 3, 49, 80
5, 360000, Note_on_c, 3, 37, 109
5, 360236, Note_off_c, 3, 37, 80
5, 360240, Note_on_c, 3, 49, 109
5, 360476, Note_off_c, 3, 49, 80
5, 360480, Note_on_c, 3, 37, 109
5, 360716, Note_off_c, 3, 37, 80
5, 360720, Note_on_c, 3, 49, 109
5, 360956, Note_off_c, 3, 49, 80
5, 360960, Note_on_c, 3, 49, 109
5, 361196, Note_off_c, 3, 49, 80
5, 361200, Note_on_c, 3, 37, 109
5, 361436, Note_off_c, 3, 37, 80
5, 361440, Note_on_c, 3, 37, 109
5, 361676, Note_off_c, 3, 37, 80
5, 361680, Note_on_c, 3, 49, 109
5, 361916, Note_off_c, 3, 49, 80
5, 361920, Note_on_c, 3, 37, 109
5, 362156, Note_off_c, 3, 37, 80
5, 362160, Note_on_c, 3, 49, 109
5, 362396, Note_off_c, 3, 49, 80
5, 362400, Note_on_c, 3, 37, 109
5, 362636, Note_off_c, 3, 37, 80
5, 362640, Note_on_c, 3, 49, 109
5, 362876, Note_off_c, 3, 49, 80
5, 362876, End_track
6, 0, Start_track
6, 0, Title_t, "Fripp"
6, 300, Control_c, 4, 121, 0
6, 300, Control_c, 4, 123, 0
6, 300, Control_c, 4, 100, 0
6, 300, Control_c, 4, 38, 0
6, 300, Control_c, 4, 101, 0
6, 300, Control_c, 4, 6, 12
6, 300, Pitch_bend_c, 4, 8192
6, 360, Program_c, 4, 29
6, 360, Control_c, 4, 7, 112
6, 360, Control_c, 4, 10, 56
6, 17280, Note_on_c, 4, 65, 78
6, 17996, Note_off_c, 4, 65, 80
6, 18000, Note_on_c, 4, 63, 78
6, 18716, Note_off_c, 4, 63, 80
6, 18720, Note_on_c, 4, 77, 78
6, 19196, Note_off_c, 4, 77, 80
6, 19200, Note_on_c, 4, 75, 78
6, 19916, Note_off_c, 4, 75, 80
6, 19920, Note_on_c, 4, 72, 78
6, 20636, Note_off_c, 4, 72, 80
6, 20640, Note_on_c, 4, 70, 78
6, 21116, Note_off_c, 4, 70, 80
6, 21120, Note_on_c, 4, 65, 78
6, 21836, Note_off_c, 4, 65, 80
6, 21840, Note_on_c, 4, 63, 78
6, 22556, Note_off_c, 4, 63, 80
6, 22560, Note_on_c, 4, 77, 78
6, 23036, Note_off_c, 4, 77, 80
6, 23040, Note_on_c, 4, 75, 78
6, 23756, Note_off_c, 4, 75, 80
6, 23760, Note_on_c, 4, 72, 78
6, 24476, Note_off_c, 4, 72, 80
6, 24480, Note_on_c, 4, 70, 78
6, 24956, Note_off_c, 4, 70, 80
6, 24960, Note_on_c, 4, 44, 78
6, 24960, Note_on_c, 4, 51, 78
6, 24960, Note_on_c, 4, 56, 78
6, 28796, Note_off_c, 4, 44, 80
6, 28796, Note_off_c, 4, 51, 80
6, 28796, Note_off_c, 4, 56, 80
6, 28800, Note_on_c, 4, 44, 78
6, 28800, Note_on_c, 4, 49, 78
6, 28800, Note_on_c, 4, 56, 78
6, 28800, Note_on_c, 4, 61, 78
6, 32636, Note_off_c, 4, 44, 80
6, 32636, Note_off_c, 4, 49, 80
6, 32636, Note_off_c, 4, 56, 80
6, 32636, Note_off_c, 4, 61, 80
6, 76800, Control_c, 4, 7, 92
6, 78560, Note_on_c, 4, 68, 110
6, 78636, Note_off_c, 4, 68, 80
6, 78640, Note_on_c, 4, 70, 110
6, 78716, Note_off_c, 4, 70, 80
6, 78720, Note_on_c, 4, 68, 110
6, 78796, Note_off_c, 4, 68, 80
6, 78800, Note_on_c, 4, 65, 110
6, 78876, Note_off_c, 4, 65, 80
6, 78880, Note_on_c, 4, 63, 110
6, 78956, Note_off_c, 4, 63, 80
6, 78960, Note_on_c, 4, 65, 110
6, 79036, Note_off_c, 4, 65, 80
6, 79040, Note_on_c, 4, 68, 110
6, 79116, Note_off_c, 4, 68, 80
6, 79120, Note_on_c, 4, 70, 110
6, 79196, Note_off_c, 4, 70, 80
6, 79200, Note_on_c, 4, 68, 110
6, 79276, Note_off_c, 4, 68, 80
6, 79280, Note_on_c, 4, 65, 110
6, 79356, Note_off_c, 4, 65, 80
6, 79360, Note_on_c, 4, 63, 110
6, 79436, Note_off_c, 4, 63, 80
6, 79440, Note_on_c, 4, 65, 110
6, 79516, Note_off_c, 4, 65, 80
6, 79520, Note_on_c, 4, 70, 110
6, 79596, Note_off_c, 4, 70, 80
6, 79600, Note_on_c, 4, 68, 110
6, 79676, Note_off_c, 4, 68, 80
6, 79680, Note_on_c, 4, 65, 110
6, 79756, Note_off_c, 4, 65, 80
6, 79760, Note_on_c, 4, 63, 110
6, 79836, Note_off_c, 4, 63, 80
6, 79840, Note_on_c, 4, 65, 110
6, 79916, Note_off_c, 4, 65, 80
6, 79920, Note_on_c, 4, 68, 110
6, 79996, Note_off_c, 4, 68, 80
6, 80000, Note_on_c, 4, 71, 110
6, 80076, Note_off_c, 4, 71, 80
6, 80080, Note_on_c, 4, 77, 110
6, 80156, Note_off_c, 4, 77, 80
6, 80160, Note_on_c, 4, 80, 110
6, 80236, Note_off_c, 4, 80, 80
6, 80240, Note_on_c, 4, 77, 110
6, 80316, Note_off_c, 4, 77, 80
6, 80320, Note_on_c, 4, 80, 110
6, 80396, Note_off_c, 4, 80, 80
6, 80400, Note_on_c, 4, 77, 110
6, 80476, Note_off_c, 4, 77, 80
6, 80480, Note_on_c, 4, 80, 110
6, 80556, Note_off_c, 4, 80, 80
6, 80560, Note_on_c, 4, 77, 110
6, 80636, Note_off_c, 4, 77, 80
6, 80640, Note_on_c, 4, 80, 110
6, 80716, Note_off_c, 4, 80, 80
6, 80720, Note_on_c, 4, 80, 110
6, 80736, Pitch_bend_c, 4, 8320
6, 80752, Pitch_bend_c, 4, 8704
6, 80768, Pitch_bend_c, 4, 9344
6, 80784, Pitch_bend_c, 4, 9600
6, 80944, Pitch_bend_c, 4, 9344
6, 80956, Note_off_c, 4, 80, 80
6, 80960, Pitch_bend_c, 4, 8192
6, 80960, Note_on_c, 4, 80, 110
6, 81016, Note_off_c, 4, 80, 80
6, 81020, Note_on_c, 4, 82, 110
6, 81076, Note_off_c, 4, 82, 80
6, 81080, Note_on_c, 4, 80, 110
6, 81136, Note_off_c, 4, 80, 80
6, 81140, Note_on_c, 4, 75, 110
6, 81216, Note_off_c, 4, 75, 80
6, 81220, Note_on_c, 4, 72, 110
6, 81296, Note_off_c, 4, 72, 80
6, 81300, Note_on_c, 4, 70, 110
6, 81376, Note_off_c, 4, 70, 80
6, 81380, Note_on_c, 4, 68, 110
6, 81456, Note_off_c, 4, 68, 80
6, 81460, Note_on_c, 4, 65, 110
6, 81496, Note_off_c, 4, 65, 80
6, 81500, Note_on_c, 4, 63, 110
6, 81556, Note_off_c, 4, 63, 80
6, 81560, Note_on_c, 4, 65, 110
6, 81616, Note_off_c, 4, 65, 80
6, 81620, Note_on_c, 4, 68, 110
6, 81676, Note_off_c, 4, 68, 80
6, 81680, Note_on_c, 4, 70, 110
6, 81736, Note_off_c, 4, 70, 80
6, 81740, Note_on_c, 4, 68, 110
6, 81796, Note_off_c, 4, 68, 80
6, 81800, Note_on_c, 4, 65, 110
6, 81856, Note_off_c, 4, 65, 80
6, 81860, Note_on_c, 4, 63, 110
6, 81916, Note_off_c, 4, 63, 80
6, 81920, Note_on_c, 4, 60, 110
6, 81976, Note_off_c, 4, 60, 80
6, 81980, Note_on_c, 4, 58, 110
6, 82036, Note_off_c, 4, 58, 80
6, 82040, Note_on_c, 4, 56, 110
6, 82096, Note_off_c, 4, 56, 80
6, 82100, Note_on_c, 4, 63, 110
6, 82156, Note_off_c, 4, 63, 80
6, 82160, Note_on_c, 4, 65, 110
6, 82216, Note_off_c, 4, 65, 80
6, 82220, Note_on_c, 4, 68, 110
6, 82276, Note_off_c, 4, 68, 80
6, 82280, Note_on_c, 4, 70, 110
6, 82336, Note_off_c, 4, 70, 80
6, 82340, Note_on_c, 4, 68, 110
6, 82396, Note_off_c, 4, 68, 80
6, 82400, Note_on_c, 4, 65, 110
6, 82456, Note_off_c, 4, 65, 80
6, 82460, Note_on_c, 4, 63, 110
6, 82516, Note_off_c, 4, 63, 80
6, 82520, Note_on_c, 4, 65, 110
6, 82556, Note_off_c, 4, 65, 80
6, 82560, Note_on_c, 4, 72, 110
6, 83036, Note_off_c, 4, 72, 80
6, 83040, Note_on_c, 4, 73, 110
6, 83276, Note_off_c, 4, 73, 80
6, 83280, Note_on_c, 4, 77, 110
6, 83516, Note_off_c, 4, 77, 80
6, 83520, Note_on_c, 4, 80, 110
6, 83552, Pitch_bend_c, 4, 8320
6, 83568, Pitch_bend_c, 4, 8448
6, 83584, Pitch_bend_c, 4, 8704
6, 83600, Pitch_bend_c, 4, 8960
6, 83616, Pitch_bend_c, 4, 9344
6, 83632, Pitch_bend_c, 4, 9472
6, 83648, Pitch_bend_c, 4, 9600
6, 83996, Note_off_c, 4, 80, 80
6, 84000, Pitch_bend_c, 4, 8192
6, 84000, Note_on_c, 4, 80, 110
6, 84116, Note_off_c, 4, 80, 80
6, 84120, Note_on_c, 4, 82, 110
6, 84236, Note_off_c, 4, 82, 80
6, 84240, Note_on_c, 4, 82, 110
6, 84256, Pitch_bend_c, 4, 8320
6, 84272, Pitch_bend_c, 4, 8448
6, 84288, Pitch_bend_c, 4, 8832
6, 84304, Pitch_bend_c, 4, 9344
6, 84320, Pitch_bend_c, 4, 9600
6, 84416, Pitch_bend_c, 4, 9344
6, 84432, Pitch_bend_c, 4, 8832
6, 84448, Pitch_bend_c, 4, 8448
6, 84464, Pitch_bend_c, 4, 8320
6, 84480, Pitch_bend_c, 4, 8192
6, 84716, Note_off_c, 4, 82, 80
6, 84720, Note_on_c, 4, 80, 110
6, 84956, Note_off_c, 4, 80, 80
6, 84960, Note_on_c, 4, 77, 110
6, 85196, Note_off_c, 4, 77, 80
6, 85200, Note_on_c, 4, 75, 110
6, 85436, Note_off_c, 4, 75, 80
6, 85440, Note_on_c, 4, 73, 110
6, 85676, Note_off_c, 4, 73, 80
6, 85680, Note_on_c, 4, 72, 110
6, 85916, Note_off_c, 4, 72, 80
6, 85920, Note_on_c, 4, 70, 110
6, 86156, Note_off_c, 4, 70, 80
6, 86160, Note_on_c, 4, 68, 110
6, 86396, Note_off_c, 4, 68, 80
6, 86400, Note_on_c, 4, 67, 110
6, 86636, Note_off_c, 4, 67, 80
6, 86640, Note_on_c, 4, 65, 110
6, 86876, Note_off_c, 4, 65, 80
6, 86880, Note_on_c, 4, 63, 110
6, 87116, Note_off_c, 4, 63, 80
6, 87120, Note_on_c, 4, 60, 110
6, 87356, Note_off_c, 4, 60, 80
6, 87360, Note_on_c, 4, 56, 110
6, 87596, Note_off_c, 4, 56, 80
6, 87600, Note_on_c, 4, 55, 110
6, 87836, Note_off_c, 4, 55, 80
6, 87840, Note_on_c, 4, 60, 110
6, 88076, Note_off_c, 4, 60, 80
6, 88080, Note_on_c, 4, 65, 110
6, 88224, Pitch_bend_c, 4, 8320
6, 88256, Pitch_bend_c, 4, 8576
6, 88272, Pitch_bend_c, 4, 8832
6, 88288, Pitch_bend_c, 4, 9088
6, 88304, Pitch_bend_c, 4, 9344
6, 88320, Pitch_bend_c, 4, 9600
6, 88556, Note_off_c, 4, 65, 80
6, 88560, Pitch_bend_c, 4, 8192
6, 88560, Note_on_c, 4, 65, 110
6, 88676, Note_off_c, 4, 65, 80
6, 88680, Note_on_c, 4, 63, 110
6, 88796, Note_off_c, 4, 63, 80
6, 88800, Note_on_c, 4, 60, 110
6, 88956, Note_off_c, 4, 60, 80
6, 88960, Note_on_c, 4, 63, 110
6, 89036, Note_off_c, 4, 63, 80
6, 89040, Note_on_c, 4, 65, 110
6, 89116, Note_off_c, 4, 65, 80
6, 89120, Note_on_c, 4, 63, 110
6, 89196, Note_off_c, 4, 63, 80
6, 89200, Note_on_c, 4, 60, 110
6, 89276, Note_off_c, 4, 60, 80
6, 89280, Note_on_c, 4, 58, 110
6, 89356, Note_off_c, 4, 58, 80
6, 89360, Note_on_c, 4, 60, 110
6, 89436, Note_off_c, 4, 60, 80
6, 89440, Note_on_c, 4, 63, 110
6, 89516, Note_off_c, 4, 63, 80
6, 89520, Note_on_c, 4, 65, 110
6, 89596, Note_off_c, 4, 65, 80
6, 89600, Note_on_c, 4, 63, 110
6, 89676, Note_off_c, 4, 63, 80
6, 89680, Note_on_c, 4, 65, 110
6, 89756, Note_off_c, 4, 65, 80
6, 89760, Note_on_c, 4, 63, 110
6, 89836, Note_off_c, 4, 63, 80
6, 89840, Note_on_c, 4, 65, 110
6, 89916, Note_off_c, 4, 65, 80
6, 89920, Note_on_c, 4, 63, 110
6, 89996, Note_off_c, 4, 63, 80
6, 90000, Note_on_c, 4, 65, 110
6, 90116, Note_off_c, 4, 65, 80
6, 90120, Note_on_c, 4, 65, 110
6, 90236, Note_off_c, 4, 65, 80
6, 90240, Note_on_c, 4, 65, 110
6, 90356, Note_off_c, 4, 65, 80
6, 90360, Note_on_c, 4, 68, 110
6, 90476, Note_off_c, 4, 68, 80
6, 90480, Note_on_c, 4, 68, 110
6, 90716, Note_off_c, 4, 68, 80
6, 90720, Note_on_c, 4, 65, 110
6, 90956, Note_off_c, 4, 65, 80
6, 90960, Note_on_c, 4, 68, 110
6, 91196, Note_off_c, 4, 68, 80
6, 91200, Note_on_c, 4, 70, 110
6, 91436, Note_off_c, 4, 70, 80
6, 91440, Note_on_c, 4, 68, 110
6, 91676, Note_off_c, 4, 68, 80
6, 91680, Note_on_c, 4, 70, 110
6, 91916, Note_off_c, 4, 70, 80
6, 91920, Note_on_c, 4, 73, 110
6, 92156, Note_off_c, 4, 73, 80
6, 92160, Note_on_c, 4, 75, 110
6, 92396, Note_off_c, 4, 75, 80
6, 92400, Note_on_c, 4, 77, 110
6, 92636, Note_off_c, 4, 77, 80
6, 92640, Note_on_c, 4, 82, 110
6, 93116, Note_off_c, 4, 82, 80
6, 93120, Note_on_c, 4, 80, 110
6, 93596, Note_off_c, 4, 80, 80
6, 93600, Note_on_c, 4, 82, 110
6, 93836, Note_off_c, 4, 82, 80
6, 93840, Note_on_c, 4, 80, 110
6, 93956, Note_off_c, 4, 80, 80
6, 93960, Note_on_c, 4, 79, 110
6, 94076, Note_off_c, 4, 79, 80
6, 140160, Note_on_c, 4, 65, 78
6, 140276, Note_off_c, 4, 65, 80
6, 140400, Note_on_c, 4, 65, 78
6, 140876, Note_off_c, 4, 65, 80
6, 140880, Note_on_c, 4, 65, 78
6, 141116, Note_off_c, 4, 65, 80
6, 141120, Note_on_c, 4, 63, 78
6, 141356, Note_off_c, 4, 63, 80
6, 141360, Note_on_c, 4, 68, 78
6, 141596, Note_off_c, 4, 68, 80
6, 141600, Note_on_c, 4, 72, 78
6, 142076, Note_off_c, 4, 72, 80
6, 142080, Note_on_c, 4, 72, 78
6, 142316, Note_off_c, 4, 72, 80
6, 142320, Note_on_c, 4, 65, 78
6, 142556, Note_off_c, 4, 65, 80
6, 142560, Note_on_c, 4, 63, 78
6, 143516, Note_off_c, 4, 63, 80
6, 143520, Note_on_c, 4, 65, 78
6, 143996, Note_off_c, 4, 65, 80
6, 144000, Note_on_c, 4, 65, 78
6, 144116, Note_off_c, 4, 65, 80
6, 144240, Note_on_c, 4, 65, 78
6, 144716, Note_off_c, 4, 65, 80
6, 144720, Note_on_c, 4, 63, 78
6, 145916, Note_off_c, 4, 63, 80
6, 145920, Note_on_c, 4, 70, 78
6, 146156, Note_off_c, 4, 70, 80
6, 146160, Note_on_c, 4, 72, 78
6, 146396, Note_off_c, 4, 72, 80
6, 146400, Note_on_c, 4, 75, 78
6, 146636, Note_off_c, 4, 75, 80
6, 146640, Note_on_c, 4, 72, 78
6, 147836, Note_off_c, 4, 72, 80
6, 147840, Note_on_c, 4, 68, 78
6, 147956, Note_off_c, 4, 68, 80
6, 148080, Note_on_c, 4, 68, 78
6, 148316, Note_off_c, 4, 68, 80
6, 148320, Note_on_c, 4, 70, 78
6, 149036, Note_off_c, 4, 70, 80
6, 149040, Note_on_c, 4, 68, 78
6, 149516, Note_off_c, 4, 68, 80
6, 149520, Note_on_c, 4, 68, 78
6, 149756, Note_off_c, 4, 68, 80
6, 149760, Note_on_c, 4, 72, 78
6, 150476, Note_off_c, 4, 72, 80
6, 150480, Note_on_c, 4, 63, 78
6, 151436, Note_off_c, 4, 63, 80
6, 151440, Note_on_c, 4, 80, 78
6, 151556, Note_off_c, 4, 80, 80
6, 151560, Note_on_c, 4, 82, 78
6, 151676, Note_off_c, 4, 82, 80
6, 151680, Note_on_c, 4, 82, 78
6, 151696, Pitch_bend_c, 4, 8320
6, 151728, Pitch_bend_c, 4, 8704
6, 151744, Pitch_bend_c, 4, 9088
6, 151760, Pitch_bend_c, 4, 9344
6, 151776, Pitch_bend_c, 4, 9600
6, 152036, Note_off_c, 4, 82, 80
6, 152040, Pitch_bend_c, 4, 8192
6, 152040, Note_on_c, 4, 82, 78
6, 152396, Note_off_c, 4, 82, 80
6, 152400, Note_on_c, 4, 80, 78
6, 152636, Note_off_c, 4, 80, 80
6, 152640, Note_on_c, 4, 77, 78
6, 152996, Note_off_c, 4, 77, 80
6, 153000, Note_on_c, 4, 75, 78
6, 153356, Note_off_c, 4, 75, 80
6, 153360, Note_on_c, 4, 73, 78
6, 153596, Note_off_c, 4, 73, 80
6, 153600, Note_on_c, 4, 70, 78
6, 153956, Note_off_c, 4, 70, 80
6, 153960, Note_on_c, 4, 68, 78
6, 154316, Note_off_c, 4, 68, 80
6, 154320, Note_on_c, 4, 65, 78
6, 155276, Note_off_c, 4, 65, 80
6, 155520, Note_on_c, 4, 73, 78
6, 155697, Pitch_bend_c, 4, 8320
6, 155753, Pitch_bend_c, 4, 8192
6, 155778, Pitch_bend_c, 4, 8064
6, 155834, Pitch_bend_c, 4, 8192
6, 155854, Pitch_bend_c, 4, 8320
6, 155869, Pitch_bend_c, 4, 8448
6, 155905, Pitch_bend_c, 4, 8320
6, 155920, Pitch_bend_c, 4, 8192
6, 155935, Pitch_bend_c, 4, 8064
6, 155950, Pitch_bend_c, 4, 7936
6, 155986, Pitch_bend_c, 4, 8064
6, 156001, Pitch_bend_c, 4, 8192
6, 156016, Pitch_bend_c, 4, 8320
6, 156036, Pitch_bend_c, 4, 8448
6, 156062, Pitch_bend_c, 4, 8320
6, 156082, Pitch_bend_c, 4, 8192
6, 156097, Pitch_bend_c, 4, 8064
6, 156117, Pitch_bend_c, 4, 7936
6, 156143, Pitch_bend_c, 4, 8064
6, 156163, Pitch_bend_c, 4, 8192
6, 156178, Pitch_bend_c, 4, 8320
6, 156244, Pitch_bend_c, 4, 8192
6, 156259, Pitch_bend_c, 4, 8064
6, 156325, Pitch_bend_c, 4, 8192
6, 156340, Pitch_bend_c, 4, 8320
6, 156355, Pitch_bend_c, 4, 8448
6, 156391, Pitch_bend_c, 4, 8320
6, 156406, Pitch_bend_c, 4, 8192
6, 156421, Pitch_bend_c, 4, 8064
6, 156436, Pitch_bend_c, 4, 7936
6, 156472, Pitch_bend_c, 4, 8064
6, 156487, Pitch_bend_c, 4, 8192
6, 156502, Pitch_bend_c, 4, 8320
6, 156527, Pitch_bend_c, 4, 8448
6, 156543, Pitch_bend_c, 4, 8320
6, 156568, Pitch_bend_c, 4, 8192
6, 156583, Pitch_bend_c, 4, 8064
6, 156608, Pitch_bend_c, 4, 7936
6, 156624, Pitch_bend_c, 4, 8064
6, 156649, Pitch_bend_c, 4, 8192
6, 156664, Pitch_bend_c, 4, 8320
6, 156674, Pitch_bend_c, 4, 8448
6, 156720, Pitch_bend_c, 4, 8320
6, 156730, Pitch_bend_c, 4, 8192
6, 156745, Pitch_bend_c, 4, 8064
6, 156755, Pitch_bend_c, 4, 7936
6, 156801, Pitch_bend_c, 4, 8064
6, 156811, Pitch_bend_c, 4, 8192
6, 156826, Pitch_bend_c, 4, 8320
6, 156841, Pitch_bend_c, 4, 8448
6, 156877, Pitch_bend_c, 4, 8320
6, 156892, Pitch_bend_c, 4, 8192
6, 156907, Pitch_bend_c, 4, 8064
6, 156922, Pitch_bend_c, 4, 7936
6, 156958, Pitch_bend_c, 4, 8064
6, 156973, Pitch_bend_c, 4, 8192
6, 156988, Pitch_bend_c, 4, 8320
6, 157008, Pitch_bend_c, 4, 8448
6, 157034, Pitch_bend_c, 4, 8320
6, 157054, Pitch_bend_c, 4, 8192
6, 157069, Pitch_bend_c, 4, 8064
6, 157089, Pitch_bend_c, 4, 7936
6, 157115, Pitch_bend_c, 4, 8064
6, 157135, Pitch_bend_c, 4, 8192
6, 157150, Pitch_bend_c, 4, 8320
6, 157175, Pitch_bend_c, 4, 8448
6, 157191, Pitch_bend_c, 4, 8320
6, 157216, Pitch_bend_c, 4, 8192
6, 157231, Pitch_bend_c, 4, 8064
6, 157256, Pitch_bend_c, 4, 7936
6, 157272, Pitch_bend_c, 4, 8064
6, 157297, Pitch_bend_c, 4, 8192
6, 157312, Pitch_bend_c, 4, 8320
6, 157378, Pitch_bend_c, 4, 8192
6, 157393, Pitch_bend_c, 4, 8064
6, 157436, Note_off_c, 4, 73, 80
6, 157440, Pitch_bend_c, 4, 8192
6, 157440, Note_on_c, 4, 72, 78
6, 157676, Note_off_c, 4, 72, 80
6, 157680, Note_on_c, 4, 75, 78
6, 157852, Pitch_bend_c, 4, 8320
6, 157877, Pitch_bend_c, 4, 8448
6, 157893, Pitch_bend_c, 4, 8320
6, 157918, Pitch_bend_c, 4, 8192
6, 157933, Pitch_bend_c, 4, 8064
6, 157958, Pitch_bend_c, 4, 7936
6, 157974, Pitch_bend_c, 4, 8064
6, 157999, Pitch_bend_c, 4, 8192
6, 158014, Pitch_bend_c, 4, 8320
6, 158024, Pitch_bend_c, 4, 8448
6, 158070, Pitch_bend_c, 4, 8320
6, 158080, Pitch_bend_c, 4, 8192
6, 158095, Pitch_bend_c, 4, 8064
6, 158105, Pitch_bend_c, 4, 7936
6, 158151, Pitch_bend_c, 4, 8064
6, 158161, Pitch_bend_c, 4, 8192
6, 158176, Pitch_bend_c, 4, 8320
6, 158196, Pitch_bend_c, 4, 8448
6, 158222, Pitch_bend_c, 4, 8320
6, 158242, Pitch_bend_c, 4, 8192
6, 158257, Pitch_bend_c, 4, 8064
6, 158277, Pitch_bend_c, 4, 7936
6, 158303, Pitch_bend_c, 4, 8064
6, 158323, Pitch_bend_c, 4, 8192
6, 158338, Pitch_bend_c, 4, 8320
6, 158363, Pitch_bend_c, 4, 8448
6, 158379, Pitch_bend_c, 4, 8320
6, 158404, Pitch_bend_c, 4, 8192
6, 158419, Pitch_bend_c, 4, 8064
6, 158444, Pitch_bend_c, 4, 7936
6, 158460, Pitch_bend_c, 4, 8064
6, 158485, Pitch_bend_c, 4, 8192
6, 158500, Pitch_bend_c, 4, 8320
6, 158515, Pitch_bend_c, 4, 8448
6, 158551, Pitch_bend_c, 4, 8320
6, 158566, Pitch_bend_c, 4, 8192
6, 158581, Pitch_bend_c, 4, 8064
6, 158596, Pitch_bend_c, 4, 7936
6, 158632, Pitch_bend_c, 4, 8064
6, 158647, Pitch_bend_c, 4, 8192
6, 158662, Pitch_bend_c, 4, 8320
6, 158677, Pitch_bend_c, 4, 8448
6, 158713, Pitch_bend_c, 4, 8320
6, 158728, Pitch_bend_c, 4, 8192
6, 158743, Pitch_bend_c, 4, 8064
6, 158758, Pitch_bend_c, 4, 7936
6, 158794, Pitch_bend_c, 4, 8064
6, 158809, Pitch_bend_c, 4, 8192
6, 158824, Pitch_bend_c, 4, 8320
6, 158839, Pitch_bend_c, 4, 8448
6, 158875, Pitch_bend_c, 4, 8320
6, 158890, Pitch_bend_c, 4, 8192
6, 158905, Pitch_bend_c, 4, 8064
6, 158920, Pitch_bend_c, 4, 7936
6, 158956, Pitch_bend_c, 4, 8064
6, 158971, Pitch_bend_c, 4, 8192
6, 158986, Pitch_bend_c, 4, 8320
6, 159006, Pitch_bend_c, 4, 8448
6, 159032, Pitch_bend_c, 4, 8320
6, 159052, Pitch_bend_c, 4, 8192
6, 159067, Pitch_bend_c, 4, 8064
6, 159087, Pitch_bend_c, 4, 7936
6, 159113, Pitch_bend_c, 4, 8064
6, 159133, Pitch_bend_c, 4, 8192
6, 159148, Pitch_bend_c, 4, 8320
6, 159168, Pitch_bend_c, 4, 8448
6, 159194, Pitch_bend_c, 4, 8320
6, 159214, Pitch_bend_c, 4, 8192
6, 159229, Pitch_bend_c, 4, 8064
6, 159249, Pitch_bend_c, 4, 7936
6, 159275, Pitch_bend_c, 4, 8064
6, 159295, Pitch_bend_c, 4, 8192
6, 159356, Note_off_c, 4, 75, 80
6, 159360, Control_c, 4, 7, 48
6, 159360, Control_c, 4, 10, 96
6, 159360, Note_on_c, 4, 44, 78
6, 159360, Note_on_c, 4, 51, 78
6, 159360, Note_on_c, 4, 56, 78
6, 159360, Note_on_c, 4, 60, 78
6, 160076, Note_off_c, 4, 44, 80
6, 160076, Note_off_c, 4, 51, 80
6, 160076, Note_off_c, 4, 56, 80
6, 160076, Note_off_c, 4, 60, 80
6, 160080, Note_on_c, 4, 44, 78
6, 160080, Note_on_c, 4, 51, 78
6, 160080, Note_on_c, 4, 56, 78
6, 160080, Note_on_c, 4, 60, 78
6, 160556, Note_off_c, 4, 44, 80
6, 160556, Note_off_c, 4, 51, 80
6, 160556, Note_off_c, 4, 56, 80
6, 160556, Note_off_c, 4, 60, 80
6, 160560, Note_on_c, 4, 44, 78
6, 160560, Note_on_c, 4, 51, 78
6, 160560, Note_on_c, 4, 56, 78
6, 160560, Note_on_c, 4, 60, 78
6, 161036, Note_off_c, 4, 44, 80
6, 161036, Note_off_c, 4, 51, 80
6, 161036, Note_off_c, 4, 56, 80
6, 161036, Note_off_c, 4, 60, 80
6, 161040, Note_on_c, 4, 44, 78
6, 161040, Note_on_c, 4, 51, 78
6, 161040, Note_on_c, 4, 56, 78
6, 161040, Note_on_c, 4, 60, 78
6, 161276, Note_off_c, 4, 44, 80
6, 161276, Note_off_c, 4, 51, 80
6, 161276, Note_off_c, 4, 56, 80
6, 161276, Note_off_c, 4, 60, 80
6, 161280, Note_on_c, 4, 44, 78
6, 161280, Note_on_c, 4, 51, 78
6, 161280, Note_on_c, 4, 56, 78
6, 161280, Note_on_c, 4, 60, 78
6, 161996, Note_off_c, 4, 44, 80
6, 161996, Note_off_c, 4, 51, 80
6, 161996, Note_off_c, 4, 56, 80
6, 161996, Note_off_c, 4, 60, 80
6, 162000, Note_on_c, 4, 44, 78
6, 162000, Note_on_c, 4, 51, 78
6, 162000, Note_on_c, 4, 56, 78
6, 162000, Note_on_c, 4, 60, 78
6, 162476, Note_off_c, 4, 44, 80
6, 162476, Note_off_c, 4, 51, 80
6, 162476, Note_off_c, 4, 56, 80
6, 162476, Note_off_c, 4, 60, 80
6, 162480, Note_on_c, 4, 44, 78
6, 162480, Note_on_c, 4, 51, 78
6, 162480, Note_on_c, 4, 56, 78
6, 162480, Note_on_c, 4, 60, 78
6, 162956, Note_off_c, 4, 44, 80
6, 162956, Note_off_c, 4, 51, 80
6, 162956, Note_off_c, 4, 56, 80
6, 162956, Note_off_c, 4, 60, 80
6, 162960, Note_on_c, 4, 44, 78
6, 162960, Note_on_c, 4, 51, 78
6, 162960, Note_on_c, 4, 56, 78
6, 162960, Note_on_c, 4, 60, 78
6, 163196, Note_off_c, 4, 44, 80
6, 163196, Note_off_c, 4, 51, 80
6, 163196, Note_off_c, 4, 56, 80
6, 163196, Note_off_c, 4, 60, 80
6, 163200, Note_on_c, 4, 49, 78
6, 163200, Note_on_c, 4, 56, 78
6, 163200, Note_on_c, 4, 61, 78
6, 163200, Note_on_c, 4, 65, 78
6, 163916, Note_off_c, 4, 49, 80
6, 163916, Note_off_c, 4, 56, 80
6, 163916, Note_off_c, 4, 61, 80
6, 163916, Note_off_c, 4, 65, 80
6, 163920, Note_on_c, 4, 49, 78
6, 163920, Note_on_c, 4, 56, 78
6, 163920, Note_on_c, 4, 61, 78
6, 163920, Note_on_c, 4, 65, 78
6, 164396, Note_off_c, 4, 49, 80
6, 164396, Note_off_c, 4, 56, 80
6, 164396, Note_off_c, 4, 61, 80
6, 164396, Note_off_c, 4, 65, 80
6, 164400, Note_on_c, 4, 49, 78
6, 164400, Note_on_c, 4, 56, 78
6, 164400, Note_on_c, 4, 61, 78
6, 164400, Note_on_c, 4, 65, 78
6, 164876, Note_off_c, 4, 49, 80
6, 164876, Note_off_c, 4, 56, 80
6, 164876, Note_off_c, 4, 61, 80
6, 164876, Note_off_c, 4, 65, 80
6, 164880, Note_on_c, 4, 49, 78
6, 164880, Note_on_c, 4, 56, 78
6, 164880, Note_on_c, 4, 61, 78
6, 164880, Note_on_c, 4, 65, 78
6, 165116, Note_off_c, 4, 49, 80
6, 165116, Note_off_c, 4, 56, 80
6, 165116, Note_off_c, 4, 61, 80
6, 165116, Note_off_c, 4, 65, 80
6, 165120, Note_on_c, 4, 49, 78
6, 165120, Note_on_c, 4, 56, 78
6, 165120, Note_on_c, 4, 61, 78
6, 165120, Note_on_c, 4, 65, 78
6, 165836, Note_off_c, 4, 49, 80
6, 165836, Note_off_c, 4, 56, 80
6, 165836, Note_off_c, 4, 61, 80
6, 165836, Note_off_c, 4, 65, 80
6, 165840, Note_on_c, 4, 49, 78
6, 165840, Note_on_c, 4, 56, 78
6, 165840, Note_on_c, 4, 61, 78
6, 165840, Note_on_c, 4, 65, 78
6, 166316, Note_off_c, 4, 49, 80
6, 166316, Note_off_c, 4, 56, 80
6, 166316, Note_off_c, 4, 61, 80
6, 166316, Note_off_c, 4, 65, 80
6, 166320, Note_on_c, 4, 49, 78
6, 166320, Note_on_c, 4, 56, 78
6, 166320, Note_on_c, 4, 61, 78
6, 166320, Note_on_c, 4, 65, 78
6, 166796, Note_off_c, 4, 49, 80
6, 166796, Note_off_c, 4, 56, 80
6, 166796, Note_off_c, 4, 61, 80
6, 166796, Note_off_c, 4, 65, 80
6, 166800, Note_on_c, 4, 49, 78
6, 166800, Note_on_c, 4, 56, 78
6, 166800, Note_on_c, 4, 61, 78
6, 166800, Note_on_c, 4, 65, 78
6, 167036, Note_off_c, 4, 49, 80
6, 167036, Note_off_c, 4, 56, 80
6, 167036, Note_off_c, 4, 61, 80
6, 167036, Note_off_c, 4, 65, 80
6, 167040, Note_on_c, 4, 44, 78
6, 167040, Note_on_c, 4, 51, 78
6, 167040, Note_on_c, 4, 56, 78
6, 167040, Note_on_c, 4, 60, 78
6, 167756, Note_off_c, 4, 44, 80
6, 167756, Note_off_c, 4, 51, 80
6, 167756, Note_off_c, 4, 56, 80
6, 167756, Note_off_c, 4, 60, 80
6, 167760, Note_on_c, 4, 44, 78
6, 167760, Note_on_c, 4, 51, 78
6, 167760, Note_on_c, 4, 56, 78
6, 167760, Note_on_c, 4, 60, 78
6, 168236, Note_off_c, 4, 44, 80
6, 168236, Note_off_c, 4, 51, 80
6, 168236, Note_off_c, 4, 56, 80
6, 168236, Note_off_c, 4, 60, 80
6, 168240, Note_on_c, 4, 44, 78
6, 168240, Note_on_c, 4, 51, 78
6, 168240, Note_on_c, 4, 56, 78
6, 168240, Note_on_c, 4, 60, 78
6, 168716, Note_off_c, 4, 44, 80
6, 168716, Note_off_c, 4, 51, 80
6, 168716, Note_off_c, 4, 56, 80
6, 168716, Note_off_c, 4, 60, 80
6, 168720, Note_on_c, 4, 44, 78
6, 168720, Note_on_c, 4, 51, 78
6, 168720, Note_on_c, 4, 56, 78
6, 168720, Note_on_c, 4, 60, 78
6, 168956, Note_off_c, 4, 44, 80
6, 168956, Note_off_c, 4, 51, 80
6, 168956, Note_off_c, 4, 56, 80
6, 168956, Note_off_c, 4, 60, 80
6, 168960, Note_on_c, 4, 44, 78
6, 168960, Note_on_c, 4, 51, 78
6, 168960, Note_on_c, 4, 56, 78
6, 168960, Note_on_c, 4, 60, 78
6, 169676, Note_off_c, 4, 44, 80
6, 169676, Note_off_c, 4, 51, 80
6, 169676, Note_off_c, 4, 56, 80
6, 169676, Note_off_c, 4, 60, 80
6, 169680, Note_on_c, 4, 44, 78
6, 169680, Note_on_c, 4, 51, 78
6, 169680, Note_on_c, 4, 56, 78
6, 169680, Note_on_c, 4, 60, 78
6, 170156, Note_off_c, 4, 44, 80
6, 170156, Note_off_c, 4, 51, 80
6, 170156, Note_off_c, 4, 56, 80
6, 170156, Note_off_c, 4, 60, 80
6, 170160, Note_on_c, 4, 44, 78
6, 170160, Note_on_c, 4, 51, 78
6, 170160, Note_on_c, 4, 56, 78
6, 170160, Note_on_c, 4, 60, 78
6, 170636, Note_off_c, 4, 44, 80
6, 170636, Note_off_c, 4, 51, 80
6, 170636, Note_off_c, 4, 56, 80
6, 170636, Note_off_c, 4, 60, 80
6, 170640, Note_on_c, 4, 44, 78
6, 170640, Note_on_c, 4, 51, 78
6, 170640, Note_on_c, 4, 56, 78
6, 170640, Note_on_c, 4, 60, 78
6, 170876, Note_off_c, 4, 44, 80
6, 170876, Note_off_c, 4, 51, 80
6, 170876, Note_off_c, 4, 56, 80
6, 170876, Note_off_c, 4, 60, 80
6, 170880, Note_on_c, 4, 49, 78
6, 170880, Note_on_c, 4, 56, 78
6, 170880, Note_on_c, 4, 61, 78
6, 170880, Note_on_c, 4, 65, 78
6, 171596, Note_off_c, 4, 49, 80
6, 171596, Note_off_c, 4, 56, 80
6, 171596, Note_off_c, 4, 61, 80
6, 171596, Note_off_c, 4, 65, 80
6, 171600, Note_on_c, 4, 49, 78
6, 171600, Note_on_c, 4, 56, 78
6, 171600, Note_on_c, 4, 61, 78
6, 171600, Note_on_c, 4, 65, 78
6, 172076, Note_off_c, 4, 49, 80
6, 172076, Note_off_c, 4, 56, 80
6, 172076, Note_off_c, 4, 61, 80
6, 172076, Note_off_c, 4, 65, 80
6, 172080, Note_on_c, 4, 49, 78
6, 172080, Note_on_c, 4, 56, 78
6, 172080, Note_on_c, 4, 61, 78
6, 172080, Note_on_c, 4, 65, 78
6, 172556, Note_off_c, 4, 49, 80
6, 172556, Note_off_c, 4, 56, 80
6, 172556, Note_off_c, 4, 61, 80
6, 172556, Note_off_c, 4, 65, 80
6, 172560, Note_on_c, 4, 49, 78
6, 172560, Note_on_c, 4, 56, 78
6, 172560, Note_on_c, 4, 61, 78
6, 172560, Note_on_c, 4, 65, 78
6, 172796, Note_off_c, 4, 49, 80
6, 172796, Note_off_c, 4, 56, 80
6, 172796, Note_off_c, 4, 61, 80
6, 172796, Note_off_c, 4, 65, 80
6, 172800, Note_on_c, 4, 49, 78
6, 172800, Note_on_c, 4, 56, 78
6, 172800, Note_on_c, 4, 61, 78
6, 172800, Note_on_c, 4, 65, 78
6, 173516, Note_off_c, 4, 49, 80
6, 173516, Note_off_c, 4, 56, 80
6, 173516, Note_off_c, 4, 61, 80
6, 173516, Note_off_c, 4, 65, 80
6, 173520, Note_on_c, 4, 49, 78
6, 173520, Note_on_c, 4, 56, 78
6, 173520, Note_on_c, 4, 61, 78
6, 173520, Note_on_c, 4, 65, 78
6, 173996, Note_off_c, 4, 49, 80
6, 173996, Note_off_c, 4, 56, 80
6, 173996, Note_off_c, 4, 61, 80
6, 173996, Note_off_c, 4, 65, 80
6, 174000, Note_on_c, 4, 49, 78
6, 174000, Note_on_c, 4, 56, 78
6, 174000, Note_on_c, 4, 61, 78
6, 174000, Note_on_c, 4, 65, 78
6, 174476, Note_off_c, 4, 49, 80
6, 174476, Note_off_c, 4, 56, 80
6, 174476, Note_off_c, 4, 61, 80
6, 174476, Note_off_c, 4, 65, 80
6, 174480, Note_on_c, 4, 49, 78
6, 174480, Note_on_c, 4, 56, 78
6, 174480, Note_on_c, 4, 61, 78
6, 174480, Note_on_c, 4, 65, 78
6, 174716, Note_off_c, 4, 49, 80
6, 174716, Note_off_c, 4, 56, 80
6, 174716, Note_off_c, 4, 61, 80
6, 174716, Note_off_c, 4, 65, 80
6, 174720, Control_c, 4, 7, 72
6, 174720, Control_c, 4, 10, 64
6, 174720, Control_c, 4, 93, 127
6, 174720, Control_c, 4, 91, 127
6, 174720, Note_on_c, 4, 54, 78
6, 174720, Note_on_c, 4, 61, 78
6, 174720, Note_on_c, 4, 66, 78
6, 174720, Note_on_c, 4, 70, 78
6, 174720, Note_on_c, 4, 73, 33
6, 174896, Note_off_c, 4, 54, 80
6, 174896, Note_off_c, 4, 61, 80
6, 174896, Note_off_c, 4, 66, 80
6, 174896, Note_off_c, 4, 70, 80
6, 174956, Note_off_c, 4, 73, 80
6, 174960, Note_on_c, 4, 54, 78
6, 174960, Note_on_c, 4, 61, 78
6, 174960, Note_on_c, 4, 66, 78
6, 174960, Note_on_c, 4, 70, 78
6, 174960, Note_on_c, 4, 73, 33
6, 175196, Note_off_c, 4, 54, 80
6, 175196, Note_off_c, 4, 61, 80
6, 175196, Note_off_c, 4, 66, 80
6, 175196, Note_off_c, 4, 70, 80
6, 175196, Note_off_c, 4, 73, 80
6, 175680, Note_on_c, 4, 54, 78
6, 175680, Note_on_c, 4, 61, 78
6, 175680, Note_on_c, 4, 66, 78
6, 175680, Note_on_c, 4, 70, 78
6, 175680, Note_on_c, 4, 73, 33
6, 175856, Note_off_c, 4, 54, 80
6, 175856, Note_off_c, 4, 61, 80
6, 175856, Note_off_c, 4, 66, 80
6, 175856, Note_off_c, 4, 70, 80
6, 175916, Note_off_c, 4, 73, 80
6, 175920, Note_on_c, 4, 54, 78
6, 175920, Note_on_c, 4, 61, 78
6, 175920, Note_on_c, 4, 66, 78
6, 175920, Note_on_c, 4, 70, 78
6, 175920, Note_on_c, 4, 73, 33
6, 176096, Note_off_c, 4, 54, 80
6, 176096, Note_off_c, 4, 61, 80
6, 176096, Note_off_c, 4, 66, 80
6, 176096, Note_off_c, 4, 70, 80
6, 176156, Note_off_c, 4, 73, 80
6, 176640, Note_on_c, 4, 53, 78
6, 176640, Note_on_c, 4, 60, 78
6, 176640, Note_on_c, 4, 65, 78
6, 176640, Note_on_c, 4, 68, 78
6, 176640, Note_on_c, 4, 72, 33
6, 176876, Note_off_c, 4, 53, 80
6, 176876, Note_off_c, 4, 60, 80
6, 176876, Note_off_c, 4, 65, 80
6, 176876, Note_off_c, 4, 68, 80
6, 176876, Note_off_c, 4, 72, 80
6, 176880, Note_on_c, 4, 53, 78
6, 176880, Note_on_c, 4, 60, 78
6, 176880, Note_on_c, 4, 65, 78
6, 176880, Note_on_c, 4, 68, 78
6, 176880, Note_on_c, 4, 72, 33
6, 177116, Note_off_c, 4, 53, 80
6, 177116, Note_off_c, 4, 60, 80
6, 177116, Note_off_c, 4, 65, 80
6, 177116, Note_off_c, 4, 68, 80
6, 177116, Note_off_c, 4, 72, 80
6, 177600, Note_on_c, 4, 53, 78
6, 177600, Note_on_c, 4, 60, 78
6, 177600, Note_on_c, 4, 65, 78
6, 177600, Note_on_c, 4, 68, 78
6, 177600, Note_on_c, 4, 72, 33
6, 177836, Note_off_c, 4, 53, 80
6, 177836, Note_off_c, 4, 60, 80
6, 177836, Note_off_c, 4, 65, 80
6, 177836, Note_off_c, 4, 68, 80
6, 177836, Note_off_c, 4, 72, 80
6, 177840, Note_on_c, 4, 53, 78
6, 177840, Note_on_c, 4, 60, 78
6, 177840, Note_on_c, 4, 65, 78
6, 177840, Note_on_c, 4, 68, 78
6, 177840, Note_on_c, 4, 72, 33
6, 178076, Note_off_c, 4, 53, 80
6, 178076, Note_off_c, 4, 60, 80
6, 178076, Note_off_c, 4, 65, 80
6, 178076, Note_off_c, 4, 68, 80
6, 178076, Note_off_c, 4, 72, 80
6, 178560, Note_on_c, 4, 77, 78
6, 178676, Note_off_c, 4, 77, 80
6, 178680, Note_on_c, 4, 72, 78
6, 178796, Note_off_c, 4, 72, 80
6, 178800, Note_on_c, 4, 65, 78
6, 178916, Note_off_c, 4, 65, 80
6, 178920, Note_on_c, 4, 75, 78
6, 179156, Note_off_c, 4, 75, 80
6, 179160, Note_on_c, 4, 72, 78
6, 179276, Note_off_c, 4, 72, 80
6, 179280, Note_on_c, 4, 58, 78
6, 179396, Note_off_c, 4, 58, 80
6, 179400, Note_on_c, 4, 60, 78
6, 179516, Note_off_c, 4, 60, 80
6, 179520, Note_on_c, 4, 70, 78
6, 179756, Note_off_c, 4, 70, 80
6, 179760, Note_on_c, 4, 77, 78
6, 179876, Note_off_c, 4, 77, 80
6, 179880, Note_on_c, 4, 72, 78
6, 179996, Note_off_c, 4, 72, 80
6, 180000, Note_on_c, 4, 65, 78
6, 180116, Note_off_c, 4, 65, 80
6, 180120, Note_on_c, 4, 75, 78
6, 180476, Note_off_c, 4, 75, 80
6, 180480, Note_on_c, 4, 72, 78
6, 180596, Note_off_c, 4, 72, 80
6, 180600, Note_on_c, 4, 67, 78
6, 180716, Note_off_c, 4, 67, 80
6, 180720, Note_on_c, 4, 70, 78
6, 181196, Note_off_c, 4, 70, 80
6, 181200, Note_on_c, 4, 77, 78
6, 181316, Note_off_c, 4, 77, 80
6, 181320, Note_on_c, 4, 72, 78
6, 181436, Note_off_c, 4, 72, 80
6, 181440, Note_on_c, 4, 65, 78
6, 181556, Note_off_c, 4, 65, 80
6, 181560, Note_on_c, 4, 75, 78
6, 181916, Note_off_c, 4, 75, 80
6, 181920, Note_on_c, 4, 77, 78
6, 182036, Note_off_c, 4, 77, 80
6, 182040, Note_on_c, 4, 72, 78
6, 182156, Note_off_c, 4, 72, 80
6, 182160, Note_on_c, 4, 65, 78
6, 182276, Note_off_c, 4, 65, 80
6, 182280, Note_on_c, 4, 75, 78
6, 184316, Note_off_c, 4, 75, 80
6, 184320, Note_on_c, 4, 53, 78
6, 184320, Note_on_c, 4, 60, 78
6, 184320, Note_on_c, 4, 65, 78
6, 184320, Note_on_c, 4, 68, 78
6, 184320, Note_on_c, 4, 72, 33
6, 184556, Note_off_c, 4, 53, 80
6, 184556, Note_off_c, 4, 60, 80
6, 184556, Note_off_c, 4, 65, 80
6, 184556, Note_off_c, 4, 68, 80
6, 184556, Note_off_c, 4, 72, 80
6, 184560, Note_on_c, 4, 53, 78
6, 184560, Note_on_c, 4, 60, 78
6, 184560, Note_on_c, 4, 65, 78
6, 184560, Note_on_c, 4, 68, 78
6, 184560, Note_on_c, 4, 72, 33
6, 184796, Note_off_c, 4, 53, 80
6, 184796, Note_off_c, 4, 60, 80
6, 184796, Note_off_c, 4, 65, 80
6, 184796, Note_off_c, 4, 68, 80
6, 184796, Note_off_c, 4, 72, 80
6, 185280, Note_on_c, 4, 53, 78
6, 185280, Note_on_c, 4, 60, 78
6, 185280, Note_on_c, 4, 65, 78
6, 185280, Note_on_c, 4, 68, 78
6, 185280, Note_on_c, 4, 72, 33
6, 185516, Note_off_c, 4, 53, 80
6, 185516, Note_off_c, 4, 60, 80
6, 185516, Note_off_c, 4, 65, 80
6, 185516, Note_off_c, 4, 68, 80
6, 185516, Note_off_c, 4, 72, 80
6, 185520, Note_on_c, 4, 53, 78
6, 185520, Note_on_c, 4, 60, 78
6, 185520, Note_on_c, 4, 65, 78
6, 185520, Note_on_c, 4, 68, 78
6, 185520, Note_on_c, 4, 72, 33
6, 185756, Note_off_c, 4, 53, 80
6, 185756, Note_off_c, 4, 60, 80
6, 185756, Note_off_c, 4, 65, 80
6, 185756, Note_off_c, 4, 68, 80
6, 185756, Note_off_c, 4, 72, 80
6, 186240, Note_on_c, 4, 77, 78
6, 186356, Note_off_c, 4, 77, 80
6, 186360, Note_on_c, 4, 72, 78
6, 186476, Note_off_c, 4, 72, 80
6, 186480, Note_on_c, 4, 65, 78
6, 186596, Note_off_c, 4, 65, 80
6, 186600, Note_on_c, 4, 75, 78
6, 186956, Note_off_c, 4, 75, 80
6, 186960, Note_on_c, 4, 72, 78
6, 187076, Note_off_c, 4, 72, 80
6, 187080, Note_on_c, 4, 67, 78
6, 187196, Note_off_c, 4, 67, 80
6, 187200, Note_on_c, 4, 70, 78
6, 187676, Note_off_c, 4, 70, 80
6, 187680, Note_on_c, 4, 77, 78
6, 187796, Note_off_c, 4, 77, 80
6, 187800, Note_on_c, 4, 72, 78
6, 187916, Note_off_c, 4, 72, 80
6, 187920, Note_on_c, 4, 65, 78
6, 188036, Note_off_c, 4, 65, 80
6, 188040, Note_on_c, 4, 75, 78
6, 188396, Note_off_c, 4, 75, 80
6, 188400, Note_on_c, 4, 72, 78
6, 188516, Note_off_c, 4, 72, 80
6, 188520, Note_on_c, 4, 67, 78
6, 188756, Note_off_c, 4, 67, 80
6, 188760, Note_on_c, 4, 70, 78
6, 189116, Note_off_c, 4, 70, 80
6, 189120, Note_on_c, 4, 75, 78
6, 189356, Note_off_c, 4, 75, 80
6, 189360, Note_on_c, 4, 70, 78
6, 189476, Note_off_c, 4, 70, 80
6, 189480, Note_on_c, 4, 73, 78
6, 189596, Note_off_c, 4, 73, 80
6, 189600, Note_on_c, 4, 75, 78
6, 189836, Note_off_c, 4, 75, 80
6, 189840, Note_on_c, 4, 73, 78
6, 189956, Note_off_c, 4, 73, 80
6, 189960, Note_on_c, 4, 70, 78
6, 190076, Note_off_c, 4, 70, 80
6, 190080, Note_on_c, 4, 68, 78
6, 190436, Note_off_c, 4, 68, 80
6, 190440, Note_on_c, 4, 66, 78
6, 190676, Note_off_c, 4, 66, 80
6, 190680, Note_on_c, 4, 64, 78
6, 190856, Note_off_c, 4, 64, 80
6, 191040, Note_on_c, 4, 61, 78
6, 191276, Note_off_c, 4, 61, 80
6, 216720, Note_on_c, 4, 68, 78
6, 216956, Note_off_c, 4, 68, 80
6, 216960, Note_on_c, 4, 70, 78
6, 216976, Pitch_bend_c, 4, 8320
6, 217008, Pitch_bend_c, 4, 8576
6, 217024, Pitch_bend_c, 4, 8960
6, 217040, Pitch_bend_c, 4, 9344
6, 217056, Pitch_bend_c, 4, 9600
6, 217200, Pitch_bend_c, 4, 9344
6, 217216, Pitch_bend_c, 4, 8960
6, 217232, Pitch_bend_c, 4, 8576
6, 217248, Pitch_bend_c, 4, 8320
6, 217280, Pitch_bend_c, 4, 8192
6, 218876, Note_off_c, 4, 70, 80
6, 218880, Note_on_c, 4, 73, 78
6, 219836, Note_off_c, 4, 73, 80
6, 219840, Note_on_c, 4, 77, 78
6, 220076, Note_off_c, 4, 77, 80
6, 220080, Note_on_c, 4, 80, 78
6, 220112, Pitch_bend_c, 4, 8320
6, 220144, Pitch_bend_c, 4, 8448
6, 220160, Pitch_bend_c, 4, 8576
6, 220176, Pitch_bend_c, 4, 8832
6, 220192, Pitch_bend_c, 4, 9088
6, 220208, Pitch_bend_c, 4, 9344
6, 220224, Pitch_bend_c, 4, 9472
6, 220240, Pitch_bend_c, 4, 9600
6, 220576, Pitch_bend_c, 4, 9472
6, 220592, Pitch_bend_c, 4, 9344
6, 220608, Pitch_bend_c, 4, 9088
6, 220624, Pitch_bend_c, 4, 8832
6, 220640, Pitch_bend_c, 4, 8576
6, 220656, Pitch_bend_c, 4, 8448
6, 220672, Pitch_bend_c, 4, 8320
6, 220704, Pitch_bend_c, 4, 8192
6, 221996, Note_off_c, 4, 80, 80
6, 222000, Note_on_c, 4, 68, 78
6, 223676, Note_off_c, 4, 68, 80
6, 223680, Note_on_c, 4, 75, 78
6, 223712, Pitch_bend_c, 4, 8320
6, 223760, Pitch_bend_c, 4, 8576
6, 223776, Pitch_bend_c, 4, 8704
6, 223792, Pitch_bend_c, 4, 8832
6, 223808, Pitch_bend_c, 4, 9088
6, 223824, Pitch_bend_c, 4, 9344
6, 223856, Pitch_bend_c, 4, 9600
6, 224176, Pitch_bend_c, 4, 9344
6, 224192, Pitch_bend_c, 4, 9088
6, 224208, Pitch_bend_c, 4, 8832
6, 224224, Pitch_bend_c, 4, 8576
6, 224240, Pitch_bend_c, 4, 8320
6, 224272, Pitch_bend_c, 4, 8192
6, 224396, Note_off_c, 4, 75, 80
6, 224400, Note_on_c, 4, 73, 78
6, 224636, Note_off_c, 4, 73, 80
6, 224640, Note_on_c, 4, 70, 78
6, 224672, Pitch_bend_c, 4, 8320
6, 224704, Pitch_bend_c, 4, 8448
6, 224720, Pitch_bend_c, 4, 8576
6, 224736, Pitch_bend_c, 4, 8832
6, 224752, Pitch_bend_c, 4, 9088
6, 224768, Pitch_bend_c, 4, 9344
6, 224784, Pitch_bend_c, 4, 9472
6, 224800, Pitch_bend_c, 4, 9600
6, 225216, Pitch_bend_c, 4, 9472
6, 225232, Pitch_bend_c, 4, 9344
6, 225248, Pitch_bend_c, 4, 9088
6, 225264, Pitch_bend_c, 4, 8832
6, 225280, Pitch_bend_c, 4, 8576
6, 225296, Pitch_bend_c, 4, 8448
6, 225312, Pitch_bend_c, 4, 8320
6, 225344, Pitch_bend_c, 4, 8192
6, 225596, Note_off_c, 4, 70, 80
6, 225600, Note_on_c, 4, 70, 78
6, 227516, Note_off_c, 4, 70, 80
6, 227520, Note_on_c, 4, 68, 78
6, 227776, Pitch_bend_c, 4, 8320
6, 227792, Pitch_bend_c, 4, 8448
6, 227808, Pitch_bend_c, 4, 8832
6, 227824, Pitch_bend_c, 4, 9344
6, 227840, Pitch_bend_c, 4, 9600
6, 228176, Pitch_bend_c, 4, 9344
6, 228192, Pitch_bend_c, 4, 8832
6, 228208, Pitch_bend_c, 4, 8448
6, 228224, Pitch_bend_c, 4, 8320
6, 228240, Pitch_bend_c, 4, 8192
6, 228476, Note_off_c, 4, 68, 80
6, 255360, Note_on_c, 4, 68, 78
6, 255836, Note_off_c, 4, 68, 80
6, 255840, Note_on_c, 4, 68, 78
6, 256076, Note_off_c, 4, 68, 80
6, 256080, Note_on_c, 4, 68, 78
6, 256796, Note_off_c, 4, 68, 80
6, 256800, Note_on_c, 4, 65, 78
6, 257036, Note_off_c, 4, 65, 80
6, 257040, Note_on_c, 4, 68, 78
6, 257516, Note_off_c, 4, 68, 80
6, 257520, Note_on_c, 4, 68, 78
6, 257996, Note_off_c, 4, 68, 80
6, 258000, Note_on_c, 4, 77, 78
6, 258116, Note_off_c, 4, 77, 80
6, 258120, Note_on_c, 4, 72, 78
6, 258236, Note_off_c, 4, 72, 80
6, 258240, Note_on_c, 4, 65, 78
6, 258356, Note_off_c, 4, 65, 80
6, 258360, Note_on_c, 4, 67, 78
6, 258476, Note_off_c, 4, 67, 80
6, 258480, Note_on_c, 4, 70, 78
6, 258596, Note_off_c, 4, 70, 80
6, 258600, Note_on_c, 4, 77, 78
6, 258716, Note_off_c, 4, 77, 80
6, 258720, Note_on_c, 4, 75, 78
6, 258956, Note_off_c, 4, 75, 80
6, 258960, Note_on_c, 4, 75, 78
6, 259076, Note_off_c, 4, 75, 80
6, 259080, Note_on_c, 4, 75, 78
6, 259196, Note_off_c, 4, 75, 80
6, 259200, Note_on_c, 4, 75, 78
6, 259316, Note_off_c, 4, 75, 80
6, 259320, Note_on_c, 4, 73, 78
6, 259676, Note_off_c, 4, 73, 80
6, 259680, Note_on_c, 4, 75, 78
6, 259856, Note_off_c, 4, 75, 80
6, 259920, Note_on_c, 4, 75, 78
6, 260096, Note_off_c, 4, 75, 80
6, 260160, Note_on_c, 4, 70, 78
6, 260336, Note_off_c, 4, 70, 80
6, 260400, Note_on_c, 4, 75, 78
6, 260576, Note_off_c, 4, 75, 80
6, 260640, Note_on_c, 4, 75, 78
6, 260996, Note_off_c, 4, 75, 80
6, 261360, Note_on_c, 4, 70, 78
6, 261596, Note_off_c, 4, 70, 80
6, 261600, Note_on_c, 4, 75, 78
6, 261836, Note_off_c, 4, 75, 80
6, 261840, Note_on_c, 4, 75, 78
6, 262076, Note_off_c, 4, 75, 80
6, 262080, Note_on_c, 4, 70, 78
6, 262316, Note_off_c, 4, 70, 80
6, 262320, Note_on_c, 4, 75, 78
6, 263036, Note_off_c, 4, 75, 80
6, 263280, Note_on_c, 4, 70, 78
6, 263516, Note_off_c, 4, 70, 80
6, 263520, Note_on_c, 4, 75, 78
6, 263756, Note_off_c, 4, 75, 80
6, 263760, Note_on_c, 4, 75, 78
6, 263996, Note_off_c, 4, 75, 80
6, 264000, Note_on_c, 4, 70, 78
6, 264236, Note_off_c, 4, 70, 80
6, 264240, Note_on_c, 4, 75, 78
6, 264956, Note_off_c, 4, 75, 80
6, 264960, Note_on_c, 4, 70, 78
6, 265196, Note_off_c, 4, 70, 80
6, 265200, Note_on_c, 4, 75, 78
6, 265436, Note_off_c, 4, 75, 80
6, 265440, Note_on_c, 4, 75, 78
6, 265676, Note_off_c, 4, 75, 80
6, 265680, Note_on_c, 4, 70, 78
6, 265916, Note_off_c, 4, 70, 80
6, 265920, Note_on_c, 4, 75, 78
6, 266876, Note_off_c, 4, 75, 80
6, 292920, Note_on_c, 4, 77, 78
6, 293036, Note_off_c, 4, 77, 80
6, 293040, Note_on_c, 4, 72, 78
6, 293156, Note_off_c, 4, 72, 80
6, 293160, Note_on_c, 4, 75, 78
6, 293516, Note_off_c, 4, 75, 80
6, 293520, Note_on_c, 4, 77, 78
6, 293636, Note_off_c, 4, 77, 80
6, 293640, Note_on_c, 4, 72, 78
6, 293756, Note_off_c, 4, 72, 80
6, 293760, Note_on_c, 4, 68, 78
6, 293996, Note_off_c, 4, 68, 80
6, 294000, Note_on_c, 4, 82, 78
6, 294236, Note_off_c, 4, 82, 80
6, 294240, Note_on_c, 4, 72, 78
6, 294476, Note_off_c, 4, 72, 80
6, 294480, Note_on_c, 4, 80, 78
6, 294716, Note_off_c, 4, 80, 80
6, 294720, Note_on_c, 4, 77, 78
6, 294836, Note_off_c, 4, 77, 80
6, 294840, Note_on_c, 4, 72, 78
6, 294956, Note_off_c, 4, 72, 80
6, 294960, Note_on_c, 4, 65, 78
6, 295076, Note_off_c, 4, 65, 80
6, 295080, Note_on_c, 4, 75, 78
6, 295316, Note_off_c, 4, 75, 80
6, 295320, Note_on_c, 4, 82, 78
6, 295436, Note_off_c, 4, 82, 80
6, 295440, Note_on_c, 4, 75, 78
6, 295556, Note_off_c, 4, 75, 80
6, 295560, Note_on_c, 4, 72, 78
6, 295676, Note_off_c, 4, 72, 80
6, 295680, Note_on_c, 4, 80, 78
6, 295916, Note_off_c, 4, 80, 80
6, 295920, Note_on_c, 4, 77, 78
6, 296036, Note_off_c, 4, 77, 80
6, 296040, Note_on_c, 4, 72, 78
6, 296156, Note_off_c, 4, 72, 80
6, 296160, Note_on_c, 4, 65, 78
6, 296276, Note_off_c, 4, 65, 80
6, 296280, Note_on_c, 4, 75, 78
6, 296636, Note_off_c, 4, 75, 80
6, 296640, Note_on_c, 4, 82, 78
6, 296876, Note_off_c, 4, 82, 80
6, 296880, Note_on_c, 4, 77, 78
6, 296996, Note_off_c, 4, 77, 80
6, 297000, Note_on_c, 4, 72, 78
6, 297116, Note_off_c, 4, 72, 80
6, 297120, Note_on_c, 4, 65, 78
6, 297236, Note_off_c, 4, 65, 80
6, 297240, Note_on_c, 4, 75, 78
6, 297596, Note_off_c, 4, 75, 80
6, 297600, Note_on_c, 4, 82, 78
6, 297836, Note_off_c, 4, 82, 80
6, 297840, Note_on_c, 4, 65, 78
6, 297956, Note_off_c, 4, 65, 80
6, 297960, Note_on_c, 4, 80, 78
6, 298196, Note_off_c, 4, 80, 80
6, 298200, Note_on_c, 4, 65, 78
6, 298316, Note_off_c, 4, 65, 80
6, 298320, Note_on_c, 4, 77, 78
6, 298436, Note_off_c, 4, 77, 80
6, 298440, Note_on_c, 4, 65, 78
6, 298556, Note_off_c, 4, 65, 80
6, 298560, Note_on_c, 4, 75, 78
6, 298676, Note_off_c, 4, 75, 80
6, 298680, Note_on_c, 4, 72, 78
6, 298796, Note_off_c, 4, 72, 80
6, 298800, Note_on_c, 4, 65, 78
6, 298916, Note_off_c, 4, 65, 80
6, 298920, Note_on_c, 4, 77, 78
6, 299036, Note_off_c, 4, 77, 80
6, 299040, Note_on_c, 4, 65, 78
6, 299156, Note_off_c, 4, 65, 80
6, 299160, Note_on_c, 4, 80, 78
6, 299276, Note_off_c, 4, 80, 80
6, 299280, Note_on_c, 4, 77, 78
6, 299396, Note_off_c, 4, 77, 80
6, 299400, Note_on_c, 4, 75, 78
6, 299516, Note_off_c, 4, 75, 80
6, 299760, Note_on_c, 4, 75, 78
6, 299876, Note_off_c, 4, 75, 80
6, 299880, Note_on_c, 4, 70, 78
6, 299996, Note_off_c, 4, 70, 80
6, 300000, Note_on_c, 4, 72, 78
6, 300356, Note_off_c, 4, 72, 80
6, 300360, Note_on_c, 4, 75, 78
6, 300476, Note_off_c, 4, 75, 80
6, 300960, Note_on_c, 4, 75, 78
6, 301076, Note_off_c, 4, 75, 80
6, 301080, Note_on_c, 4, 72, 78
6, 301196, Note_off_c, 4, 72, 80
6, 301200, Note_on_c, 4, 77, 78
6, 301316, Note_off_c, 4, 77, 80
6, 301320, Note_on_c, 4, 72, 78
6, 301436, Note_off_c, 4, 72, 80
6, 301680, Note_on_c, 4, 82, 78
6, 301916, Note_off_c, 4, 82, 80
6, 301920, Note_on_c, 4, 72, 78
6, 302036, Note_off_c, 4, 72, 80
6, 302040, Note_on_c, 4, 80, 78
6, 302396, Note_off_c, 4, 80, 80
6, 302520, Note_on_c, 4, 65, 78
6, 302636, Note_off_c, 4, 65, 80
6, 302640, Note_on_c, 4, 75, 78
6, 302756, Note_off_c, 4, 75, 80
6, 302760, Note_on_c, 4, 70, 78
6, 302876, Note_off_c, 4, 70, 80
6, 302880, Note_on_c, 4, 82, 78
6, 302996, Note_off_c, 4, 82, 80
6, 303000, Note_on_c, 4, 70, 78
6, 303116, Note_off_c, 4, 70, 80
6, 303120, Note_on_c, 4, 80, 78
6, 303236, Note_off_c, 4, 80, 80
6, 303360, Note_on_c, 4, 77, 78
6, 303476, Note_off_c, 4, 77, 80
6, 303480, Note_on_c, 4, 72, 78
6, 303596, Note_off_c, 4, 72, 80
6, 303600, Note_on_c, 4, 65, 78
6, 303716, Note_off_c, 4, 65, 80
6, 303720, Note_on_c, 4, 75, 78
6, 303956, Note_off_c, 4, 75, 80
6, 303960, Note_on_c, 4, 82, 78
6, 304226, Note_off_c, 4, 82, 80
6, 304320, Note_on_c, 4, 80, 78
6, 304556, Note_off_c, 4, 80, 80
6, 304560, Note_on_c, 4, 77, 78
6, 304796, Note_off_c, 4, 77, 80
6, 304800, Note_on_c, 4, 75, 78
6, 305156, Note_off_c, 4, 75, 80
6, 305160, Note_on_c, 4, 70, 78
6, 305276, Note_off_c, 4, 70, 80
6, 305280, Note_on_c, 4, 77, 78
6, 305396, Note_off_c, 4, 77, 80
6, 305400, Note_on_c, 4, 72, 78
6, 305516, Note_off_c, 4, 72, 80
6, 305520, Note_on_c, 4, 65, 78
6, 305636, Note_off_c, 4, 65, 80
6, 305640, Note_on_c, 4, 75, 78
6, 305876, Note_off_c, 4, 75, 80
6, 305880, Note_on_c, 4, 65, 78
6, 305996, Note_off_c, 4, 65, 80
6, 306000, Note_on_c, 4, 82, 78
6, 306236, Note_off_c, 4, 82, 80
6, 306240, Note_on_c, 4, 80, 78
6, 306476, Note_off_c, 4, 80, 80
6, 306480, Note_on_c, 4, 77, 78
6, 306716, Note_off_c, 4, 77, 80
6, 307440, Note_on_c, 4, 70, 78
6, 307556, Note_off_c, 4, 70, 80
6, 307560, Note_on_c, 4, 75, 78
6, 307796, Note_off_c, 4, 75, 80
6, 307800, Note_on_c, 4, 70, 78
6, 307916, Note_off_c, 4, 70, 80
6, 307920, Note_on_c, 4, 65, 78
6, 308036, Note_off_c, 4, 65, 80
6, 308040, Note_on_c, 4, 82, 78
6, 308156, Note_off_c, 4, 82, 80
6, 308160, Note_on_c, 4, 77, 78
6, 308276, Note_off_c, 4, 77, 80
6, 308280, Note_on_c, 4, 70, 78
6, 308396, Note_off_c, 4, 70, 80
6, 308400, Note_on_c, 4, 80, 78
6, 308636, Note_off_c, 4, 80, 80
6, 308640, Note_on_c, 4, 77, 78
6, 308756, Note_off_c, 4, 77, 80
6, 308760, Note_on_c, 4, 72, 78
6, 308876, Note_off_c, 4, 72, 80
6, 308880, Note_on_c, 4, 65, 78
6, 308996, Note_off_c, 4, 65, 80
6, 309000, Note_on_c, 4, 75, 78
6, 309116, Note_off_c, 4, 75, 80
6, 309360, Note_on_c, 4, 77, 78
6, 309476, Note_off_c, 4, 77, 80
6, 309480, Note_on_c, 4, 70, 78
6, 309596, Note_off_c, 4, 70, 80
6, 309600, Note_on_c, 4, 80, 78
6, 309836, Note_off_c, 4, 80, 80
6, 309840, Note_on_c, 4, 77, 78
6, 309956, Note_off_c, 4, 77, 80
6, 309960, Note_on_c, 4, 72, 78
6, 310076, Note_off_c, 4, 72, 80
6, 310080, Note_on_c, 4, 65, 78
6, 310196, Note_off_c, 4, 65, 80
6, 310200, Note_on_c, 4, 75, 78
6, 310316, Note_off_c, 4, 75, 80
6, 310440, Note_on_c, 4, 82, 78
6, 310676, Note_off_c, 4, 82, 80
6, 310680, Note_on_c, 4, 65, 78
6, 310796, Note_off_c, 4, 65, 80
6, 310800, Note_on_c, 4, 80, 78
6, 311036, Note_off_c, 4, 80, 80
6, 311040, Note_on_c, 4, 77, 78
6, 311156, Note_off_c, 4, 77, 80
6, 311160, Note_on_c, 4, 72, 78
6, 311276, Note_off_c, 4, 72, 80
6, 311280, Note_on_c, 4, 65, 78
6, 311396, Note_off_c, 4, 65, 80
6, 311400, Note_on_c, 4, 75, 78
6, 311516, Note_off_c, 4, 75, 80
6, 311640, Note_on_c, 4, 77, 78
6, 311756, Note_off_c, 4, 77, 80
6, 311760, Note_on_c, 4, 72, 78
6, 311876, Note_off_c, 4, 72, 80
6, 311880, Note_on_c, 4, 75, 78
6, 311996, Note_off_c, 4, 75, 80
6, 312120, Note_on_c, 4, 77, 78
6, 312236, Note_off_c, 4, 77, 80
6, 312240, Note_on_c, 4, 72, 78
6, 312356, Note_off_c, 4, 72, 80
6, 312360, Note_on_c, 4, 75, 78
6, 312476, Note_off_c, 4, 75, 80
6, 312600, Note_on_c, 4, 82, 78
6, 312956, Note_off_c, 4, 82, 80
6, 313200, Note_on_c, 4, 70, 78
6, 313436, Note_off_c, 4, 70, 80
6, 313440, Note_on_c, 4, 80, 78
6, 313676, Note_off_c, 4, 80, 80
6, 313680, Note_on_c, 4, 70, 78
6, 313796, Note_off_c, 4, 70, 80
6, 313800, Note_on_c, 4, 77, 78
6, 314036, Note_off_c, 4, 77, 80
6, 314040, Note_on_c, 4, 65, 78
6, 314156, Note_off_c, 4, 65, 80
6, 314160, Note_on_c, 4, 61, 78
6, 314396, Note_off_c, 4, 61, 80
6, 314400, Note_on_c, 4, 82, 78
6, 314636, Note_off_c, 4, 82, 80
6, 314640, Note_on_c, 4, 70, 78
6, 314756, Note_off_c, 4, 70, 80
6, 314760, Note_on_c, 4, 80, 78
6, 314876, Note_off_c, 4, 80, 80
6, 315120, Note_on_c, 4, 65, 78
6, 315236, Note_off_c, 4, 65, 80
6, 315240, Note_on_c, 4, 65, 78
6, 315356, Note_off_c, 4, 65, 80
6, 315360, Note_on_c, 4, 70, 78
6, 315360, Note_on_c, 4, 75, 78
6, 315596, Note_off_c, 4, 70, 80
6, 315596, Note_off_c, 4, 75, 80
6, 315600, Note_on_c, 4, 82, 78
6, 315716, Note_off_c, 4, 82, 80
6, 315720, Note_on_c, 4, 82, 78
6, 315836, Note_off_c, 4, 82, 80
6, 315960, Note_on_c, 4, 80, 78
6, 316196, Note_off_c, 4, 80, 80
6, 316200, Note_on_c, 4, 77, 78
6, 316556, Note_off_c, 4, 77, 80
6, 316560, Note_on_c, 4, 75, 78
6, 316796, Note_off_c, 4, 75, 80
6, 316800, Note_on_c, 4, 75, 78
6, 316832, Pitch_bend_c, 4, 8320
6, 316848, Pitch_bend_c, 4, 8448
6, 316864, Pitch_bend_c, 4, 8704
6, 316880, Pitch_bend_c, 4, 8960
6, 316896, Pitch_bend_c, 4, 9344
6, 316912, Pitch_bend_c, 4, 9472
6, 316928, Pitch_bend_c, 4, 9600
6, 317276, Note_off_c, 4, 75, 80
6, 317280, Pitch_bend_c, 4, 8192
6, 317280, Note_on_c, 4, 75, 78
6, 317756, Note_off_c, 4, 75, 80
6, 317760, Note_on_c, 4, 72, 78
6, 317996, Note_off_c, 4, 72, 80
6, 318000, Note_on_c, 4, 70, 78
6, 318236, Note_off_c, 4, 70, 80
6, 318240, Note_on_c, 4, 68, 78
6, 318476, Note_off_c, 4, 68, 80
6, 318480, Note_on_c, 4, 82, 78
6, 318956, Note_off_c, 4, 82, 80
6, 318960, Note_on_c, 4, 80, 78
6, 319196, Note_off_c, 4, 80, 80
6, 319200, Note_on_c, 4, 77, 78
6, 319676, Note_off_c, 4, 77, 80
6, 319680, Note_on_c, 4, 75, 78
6, 319916, Note_off_c, 4, 75, 80
6, 319920, Note_on_c, 4, 72, 78
6, 320156, Note_off_c, 4, 72, 80
6, 320160, Note_on_c, 4, 70, 78
6, 320396, Note_off_c, 4, 70, 80
6, 320400, Note_on_c, 4, 68, 78
6, 320636, Note_off_c, 4, 68, 80
6, 320640, Note_on_c, 4, 72, 78
6, 320876, Note_off_c, 4, 72, 80
6, 320880, Note_on_c, 4, 70, 78
6, 321116, Note_off_c, 4, 70, 80
6, 321120, Note_on_c, 4, 68, 78
6, 321356, Note_off_c, 4, 68, 80
6, 321360, Note_on_c, 4, 65, 78
6, 321836, Note_off_c, 4, 65, 80
6, 321840, Note_on_c, 4, 82, 78
6, 322316, Note_off_c, 4, 82, 80
6, 322320, Note_on_c, 4, 80, 78
6, 322796, Note_off_c, 4, 80, 80
6, 322800, Note_on_c, 4, 77, 78
6, 323276, Note_off_c, 4, 77, 80
6, 323280, Note_on_c, 4, 75, 78
6, 323756, Note_off_c, 4, 75, 80
6, 323760, Note_on_c, 4, 72, 78
6, 324236, Note_off_c, 4, 72, 80
6, 324240, Note_on_c, 4, 70, 78
6, 324476, Note_off_c, 4, 70, 80
6, 324480, Note_on_c, 4, 72, 78
6, 324716, Note_off_c, 4, 72, 80
6, 324720, Note_on_c, 4, 70, 78
6, 324956, Note_off_c, 4, 70, 80
6, 324960, Note_on_c, 4, 68, 78
6, 325196, Note_off_c, 4, 68, 80
6, 325200, Note_on_c, 4, 65, 78
6, 325676, Note_off_c, 4, 65, 80
6, 325680, Note_on_c, 4, 63, 78
6, 325916, Note_off_c, 4, 63, 80
6, 325920, Note_on_c, 4, 82, 78
6, 326396, Note_off_c, 4, 82, 80
6, 326400, Note_on_c, 4, 80, 78
6, 326636, Note_off_c, 4, 80, 80
6, 326640, Note_on_c, 4, 77, 78
6, 326876, Note_off_c, 4, 77, 80
6, 326880, Note_on_c, 4, 75, 78
6, 327356, Note_off_c, 4, 75, 80
6, 327360, Note_on_c, 4, 72, 78
6, 327596, Note_off_c, 4, 72, 80
6, 327600, Note_on_c, 4, 70, 78
6, 327716, Note_off_c, 4, 70, 80
6, 327720, Note_on_c, 4, 68, 78
6, 327836, Note_off_c, 4, 68, 80
6, 327840, Note_on_c, 4, 65, 78
6, 327956, Note_off_c, 4, 65, 80
6, 327960, Note_on_c, 4, 68, 78
6, 328076, Note_off_c, 4, 68, 80
6, 328080, Note_on_c, 4, 65, 78
6, 328196, Note_off_c, 4, 65, 80
6, 328200, Note_on_c, 4, 68, 78
6, 328256, Note_off_c, 4, 68, 80
6, 328260, Note_on_c, 4, 70, 78
6, 328316, Note_off_c, 4, 70, 80
6, 328560, Note_on_c, 4, 80, 78
6, 328616, Note_off_c, 4, 80, 80
6, 328620, Note_on_c, 4, 77, 78
6, 328676, Note_off_c, 4, 77, 80
6, 328680, Note_on_c, 4, 80, 78
6, 328696, Pitch_bend_c, 4, 8320
6, 328712, Pitch_bend_c, 4, 8704
6, 328728, Pitch_bend_c, 4, 9344
6, 328744, Pitch_bend_c, 4, 9600
6, 328916, Note_off_c, 4, 80, 80
6, 328920, Pitch_bend_c, 4, 8192
6, 328920, Note_on_c, 4, 79, 78
6, 328976, Note_off_c, 4, 79, 80
6, 328980, Note_on_c, 4, 77, 78
6, 329036, Note_off_c, 4, 77, 80
6, 329040, Note_on_c, 4, 75, 78
6, 329096, Note_off_c, 4, 75, 80
6, 329100, Note_on_c, 4, 73, 78
6, 329156, Note_off_c, 4, 73, 80
6, 329160, Note_on_c, 4, 72, 78
6, 329216, Note_off_c, 4, 72, 80
6, 329220, Note_on_c, 4, 70, 78
6, 329276, Note_off_c, 4, 70, 80
6, 329280, Note_on_c, 4, 68, 78
6, 329336, Note_off_c, 4, 68, 80
6, 329340, Note_on_c, 4, 70, 78
6, 329396, Note_off_c, 4, 70, 80
6, 329400, Note_on_c, 4, 72, 78
6, 329456, Note_off_c, 4, 72, 80
6, 329460, Note_on_c, 4, 73, 78
6, 329516, Note_off_c, 4, 73, 80
6, 329520, Note_on_c, 4, 72, 78
6, 329576, Note_off_c, 4, 72, 80
6, 329580, Note_on_c, 4, 70, 78
6, 329696, Note_off_c, 4, 70, 80
6, 329700, Note_on_c, 4, 68, 78
6, 329756, Note_off_c, 4, 68, 80
6, 329760, Note_on_c, 4, 65, 78
6, 329876, Note_off_c, 4, 65, 80
6, 329880, Note_on_c, 4, 68, 78
6, 329936, Note_off_c, 4, 68, 80
6, 329940, Note_on_c, 4, 70, 78
6, 329996, Note_off_c, 4, 70, 80
6, 330000, Note_on_c, 4, 68, 78
6, 330056, Note_off_c, 4, 68, 80
6, 330060, Note_on_c, 4, 65, 78
6, 330116, Note_off_c, 4, 65, 80
6, 330120, Note_on_c, 4, 63, 78
6, 330176, Note_off_c, 4, 63, 80
6, 330180, Note_on_c, 4, 65, 78
6, 330236, Note_off_c, 4, 65, 80
6, 330240, Note_on_c, 4, 68, 78
6, 330296, Note_off_c, 4, 68, 80
6, 330300, Note_on_c, 4, 70, 78
6, 330356, Note_off_c, 4, 70, 80
6, 330360, Note_on_c, 4, 68, 78
6, 330416, Note_off_c, 4, 68, 80
6, 330420, Note_on_c, 4, 65, 78
6, 330476, Note_off_c, 4, 65, 80
6, 330480, Note_on_c, 4, 63, 78
6, 330536, Note_off_c, 4, 63, 80
6, 331020, Note_on_c, 4, 65, 78
6, 331076, Note_off_c, 4, 65, 80
6, 331080, Note_on_c, 4, 68, 78
6, 331136, Note_off_c, 4, 68, 80
6, 331140, Note_on_c, 4, 70, 78
6, 331196, Note_off_c, 4, 70, 80
6, 331200, Note_on_c, 4, 68, 78
6, 331256, Note_off_c, 4, 68, 80
6, 331260, Note_on_c, 4, 65, 78
6, 331316, Note_off_c, 4, 65, 80
6, 331320, Note_on_c, 4, 63, 78
6, 331376, Note_off_c, 4, 63, 80
6, 331860, Note_on_c, 4, 70, 78
6, 331916, Note_off_c, 4, 70, 80
6, 331920, Note_on_c, 4, 68, 78
6, 331976, Note_off_c, 4, 68, 80
6, 331980, Note_on_c, 4, 65, 78
6, 332036, Note_off_c, 4, 65, 80
6, 332040, Note_on_c, 4, 63, 78
6, 332156, Note_off_c, 4, 63, 80
6, 332280, Note_on_c, 4, 70, 78
6, 332336, Note_off_c, 4, 70, 80
6, 332340, Note_on_c, 4, 68, 78
6, 332396, Note_off_c, 4, 68, 80
6, 332400, Note_on_c, 4, 65, 78
6, 332456, Note_off_c, 4, 65, 80
6, 332460, Note_on_c, 4, 63, 78
6, 332636, Note_off_c, 4, 63, 80
6, 332640, Note_on_c, 4, 56, 78
6, 332696, Note_off_c, 4, 56, 80
6, 332700, Note_on_c, 4, 58, 78
6, 332756, Note_off_c, 4, 58, 80
6, 332760, Note_on_c, 4, 56, 78
6, 332876, Note_off_c, 4, 56, 80
6, 332880, Note_on_c, 4, 56, 78
6, 332936, Note_off_c, 4, 56, 80
6, 332940, Note_on_c, 4, 58, 78
6, 332996, Note_off_c, 4, 58, 80
6, 333000, Note_on_c, 4, 60, 78
6, 333056, Note_off_c, 4, 60, 80
6, 333060, Note_on_c, 4, 63, 78
6, 333116, Note_off_c, 4, 63, 80
6, 333120, Note_on_c, 4, 68, 78
6, 333176, Note_off_c, 4, 68, 80
6, 333180, Note_on_c, 4, 70, 78
6, 333236, Note_off_c, 4, 70, 80
6, 333240, Note_on_c, 4, 68, 78
6, 333476, Note_off_c, 4, 68, 80
6, 333480, Note_on_c, 4, 65, 78
6, 333596, Note_off_c, 4, 65, 80
6, 333600, Note_on_c, 4, 68, 78
6, 333656, Note_off_c, 4, 68, 80
6, 333660, Note_on_c, 4, 70, 78
6, 333716, Note_off_c, 4, 70, 80
6, 333720, Note_on_c, 4, 68, 78
6, 333836, Note_off_c, 4, 68, 80
6, 333840, Note_on_c, 4, 63, 78
6, 333896, Note_off_c, 4, 63, 80
6, 333900, Note_on_c, 4, 65, 78
6, 333956, Note_off_c, 4, 65, 80
6, 333960, Note_on_c, 4, 70, 78
6, 334016, Note_off_c, 4, 70, 80
6, 334020, Note_on_c, 4, 72, 78
6, 334076, Note_off_c, 4, 72, 80
6, 334080, Note_on_c, 4, 75, 78
6, 334236, Note_off_c, 4, 75, 80
6, 334240, Note_on_c, 4, 77, 78
6, 334316, Note_off_c, 4, 77, 80
6, 334320, Note_on_c, 4, 80, 78
6, 334396, Note_off_c, 4, 80, 80
6, 334400, Note_on_c, 4, 77, 78
6, 334476, Note_off_c, 4, 77, 80
6, 334480, Note_on_c, 4, 80, 78
6, 334556, Note_off_c, 4, 80, 80
6, 334560, Note_on_c, 4, 77, 78
6, 334636, Note_off_c, 4, 77, 80
6, 334640, Note_on_c, 4, 82, 78
6, 334716, Note_off_c, 4, 82, 80
6, 334720, Note_on_c, 4, 77, 78
6, 334796, Note_off_c, 4, 77, 80
6, 334800, Note_on_c, 4, 82, 78
6, 334876, Note_off_c, 4, 82, 80
6, 334880, Note_on_c, 4, 77, 78
6, 334956, Note_off_c, 4, 77, 80
6, 334960, Note_on_c, 4, 80, 78
6, 335036, Note_off_c, 4, 80, 80
6, 335040, Note_on_c, 4, 77, 78
6, 335116, Note_off_c, 4, 77, 80
6, 335120, Note_on_c, 4, 82, 78
6, 335196, Note_off_c, 4, 82, 80
6, 335200, Note_on_c, 4, 77, 78
6, 335276, Note_off_c, 4, 77, 80
6, 335280, Note_on_c, 4, 80, 78
6, 335356, Note_off_c, 4, 80, 80
6, 335360, Note_on_c, 4, 77, 78
6, 335516, Note_off_c, 4, 77, 80
6, 335520, Note_on_c, 4, 80, 78
6, 335596, Note_off_c, 4, 80, 80
6, 335600, Note_on_c, 4, 77, 78
6, 335676, Note_off_c, 4, 77, 80
6, 335680, Note_on_c, 4, 82, 78
6, 335756, Note_off_c, 4, 82, 80
6, 335760, Note_on_c, 4, 77, 78
6, 335836, Note_off_c, 4, 77, 80
6, 335840, Note_on_c, 4, 80, 78
6, 335876, Note_off_c, 4, 80, 80
6, 335880, Note_on_c, 4, 79, 78
6, 335916, Note_off_c, 4, 79, 80
6, 335920, Note_on_c, 4, 77, 78
6, 335996, Note_off_c, 4, 77, 80
6, 336000, Note_on_c, 4, 82, 78
6, 336236, Note_off_c, 4, 82, 80
6, 336240, Note_on_c, 4, 80, 78
6, 336356, Note_off_c, 4, 80, 80
6, 336360, Note_on_c, 4, 77, 78
6, 336476, Note_off_c, 4, 77, 80
6, 336480, Note_on_c, 4, 82, 78
6, 336716, Note_off_c, 4, 82, 80
6, 336720, Note_on_c, 4, 84, 78
6, 336956, Note_off_c, 4, 84, 80
6, 336960, Note_on_c, 4, 82, 78
6, 337196, Note_off_c, 4, 82, 80
6, 337200, Note_on_c, 4, 80, 78
6, 337316, Note_off_c, 4, 80, 80
6, 337320, Note_on_c, 4, 82, 78
6, 337436, Note_off_c, 4, 82, 80
6, 337440, Note_on_c, 4, 82, 78
6, 337456, Pitch_bend_c, 4, 8320
6, 337472, Pitch_bend_c, 4, 8704
6, 337488, Pitch_bend_c, 4, 9344
6, 337504, Pitch_bend_c, 4, 9600
6, 337676, Note_off_c, 4, 82, 80
6, 337680, Pitch_bend_c, 4, 8192
6, 337680, Note_on_c, 4, 82, 78
6, 337916, Note_off_c, 4, 82, 80
6, 337920, Note_on_c, 4, 80, 78
6, 338156, Note_off_c, 4, 80, 80
6, 338160, Note_on_c, 4, 77, 78
6, 338396, Note_off_c, 4, 77, 80
6, 338400, Note_on_c, 4, 75, 78
6, 339356, Note_off_c, 4, 75, 80
6, 339840, Note_on_c, 4, 82, 78
6, 340196, Note_off_c, 4, 82, 80
6, 340200, Note_on_c, 4, 80, 78
6, 340320, Control_c, 4, 7, 73
6, 340556, Note_off_c, 4, 80, 80
6, 340560, Note_on_c, 4, 77, 78
6, 340796, Note_off_c, 4, 77, 80
6, 340800, Note_on_c, 4, 75, 78
6, 341156, Note_off_c, 4, 75, 80
6, 341160, Note_on_c, 4, 73, 78
6, 341280, Control_c, 4, 7, 74
6, 341516, Note_off_c, 4, 73, 80
6, 341520, Note_on_c, 4, 70, 78
6, 341756, Note_off_c, 4, 70, 80
6, 341760, Note_on_c, 4, 68, 78
6, 342116, Note_off_c, 4, 68, 80
6, 342120, Note_on_c, 4, 65, 78
6, 342240, Control_c, 4, 7, 75
6, 342476, Note_off_c, 4, 65, 80
6, 342480, Note_on_c, 4, 63, 78
6, 342716, Note_off_c, 4, 63, 80
6, 342720, Note_on_c, 4, 61, 78
6, 343076, Note_off_c, 4, 61, 80
6, 343080, Note_on_c, 4, 60, 78
6, 343200, Control_c, 4, 7, 76
6, 343316, Note_off_c, 4, 60, 80
6, 343320, Note_on_c, 4, 61, 78
6, 343376, Note_off_c, 4, 61, 80
6, 343380, Note_on_c, 4, 60, 78
6, 343436, Note_off_c, 4, 60, 80
6, 343440, Note_on_c, 4, 61, 78
6, 343496, Note_off_c, 4, 61, 80
6, 343500, Note_on_c, 4, 60, 78
6, 343556, Note_off_c, 4, 60, 80
6, 343560, Note_on_c, 4, 61, 78
6, 343616, Note_off_c, 4, 61, 80
6, 343620, Note_on_c, 4, 60, 78
6, 343676, Note_off_c, 4, 60, 80
6, 343680, Note_on_c, 4, 61, 78
6, 343736, Note_off_c, 4, 61, 80
6, 343740, Note_on_c, 4, 60, 78
6, 343796, Note_off_c, 4, 60, 80
6, 343800, Note_on_c, 4, 61, 78
6, 343856, Note_off_c, 4, 61, 80
6, 343860, Note_on_c, 4, 60, 78
6, 343916, Note_off_c, 4, 60, 80
6, 343920, Note_on_c, 4, 61, 78
6, 344156, Note_off_c, 4, 61, 80
6, 344160, Control_c, 4, 7, 77
6, 344160, Note_on_c, 4, 61, 78
6, 344216, Note_off_c, 4, 61, 80
6, 344220, Note_on_c, 4, 60, 78
6, 344276, Note_off_c, 4, 60, 80
6, 344280, Note_on_c, 4, 61, 78
6, 344336, Note_off_c, 4, 61, 80
6, 344340, Note_on_c, 4, 60, 78
6, 344396, Note_off_c, 4, 60, 80
6, 344400, Note_on_c, 4, 61, 78
6, 344636, Note_off_c, 4, 61, 80
6, 344640, Note_on_c, 4, 61, 78
6, 345120, Control_c, 4, 7, 78
6, 346080, Control_c, 4, 7, 79
6, 347036, Note_off_c, 4, 61, 80
6, 347040, Control_c, 4, 7, 80
6, 347280, Note_on_c, 4, 65, 78
6, 347516, Note_off_c, 4, 65, 80
6, 347520, Control_c, 4, 7, 79
6, 347520, Note_on_c, 4, 68, 78
6, 347640, Control_c, 4, 7, 78
6, 347756, Note_off_c, 4, 68, 80
6, 347760, Control_c, 4, 7, 77
6, 347760, Note_on_c, 4, 65, 78
6, 347876, Note_off_c, 4, 65, 80
6, 347880, Control_c, 4, 7, 76
6, 347880, Note_on_c, 4, 68, 78
6, 347996, Note_off_c, 4, 68, 80
6, 348000, Control_c, 4, 7, 75
6, 348000, Note_on_c, 4, 70, 78
6, 348120, Control_c, 4, 7, 74
6, 348216, Pitch_bend_c, 4, 8832
6, 348240, Control_c, 4, 7, 73
6, 348240, Pitch_bend_c, 4, 9600
6, 348360, Control_c, 4, 7, 72
6, 348476, Note_off_c, 4, 70, 80
6, 348480, Control_c, 4, 7, 71
6, 348480, Pitch_bend_c, 4, 8192
6, 348480, Note_on_c, 4, 75, 78
6, 348600, Control_c, 4, 7, 70
6, 348716, Note_off_c, 4, 75, 80
6, 348720, Control_c, 4, 7, 69
6, 348720, Note_on_c, 4, 77, 78
6, 348840, Control_c, 4, 7, 68
6, 348956, Note_off_c, 4, 77, 80
6, 348960, Control_c, 4, 7, 67
6, 348960, Note_on_c, 4, 80, 78
6, 349080, Control_c, 4, 7, 66
6, 349196, Note_off_c, 4, 80, 80
6, 349200, Control_c, 4, 7, 65
6, 349200, Note_on_c, 4, 82, 78
6, 349320, Control_c, 4, 7, 64
6, 349436, Note_off_c, 4, 82, 80
6, 349440, Control_c, 4, 7, 63
6, 349440, Note_on_c, 4, 84, 78
6, 349560, Control_c, 4, 7, 62
6, 349676, Note_off_c, 4, 84, 80
6, 349680, Control_c, 4, 7, 61
6, 349680, Note_on_c, 4, 75, 78
6, 349800, Control_c, 4, 7, 60
6, 349916, Note_off_c, 4, 75, 80
6, 349920, Control_c, 4, 7, 59
6, 349920, Note_on_c, 4, 77, 78
6, 350040, Control_c, 4, 7, 58
6, 350156, Note_off_c, 4, 77, 80
6, 350160, Control_c, 4, 7, 57
6, 350160, Note_on_c, 4, 80, 78
6, 350280, Control_c, 4, 7, 56
6, 350396, Note_off_c, 4, 80, 80
6, 350400, Control_c, 4, 7, 55
6, 350400, Note_on_c, 4, 82, 78
6, 350520, Control_c, 4, 7, 54
6, 350636, Note_off_c, 4, 82, 80
6, 350640, Control_c, 4, 7, 53
6, 350640, Note_on_c, 4, 84, 78
6, 350760, Control_c, 4, 7, 52
6, 350876, Note_off_c, 4, 84, 80
6, 350880, Control_c, 4, 7, 51
6, 350880, Note_on_c, 4, 85, 78
6, 351000, Control_c, 4, 7, 50
6, 351116, Note_off_c, 4, 85, 80
6, 351120, Control_c, 4, 7, 49
6, 351120, Note_on_c, 4, 84, 78
6, 351240, Control_c, 4, 7, 48
6, 351356, Note_off_c, 4, 84, 80
6, 351360, Note_on_c, 4, 82, 78
6, 351480, Control_c, 4, 7, 47
6, 351596, Note_off_c, 4, 82, 80
6, 351600, Control_c, 4, 7, 46
6, 351600, Note_on_c, 4, 84, 78
6, 351720, Control_c, 4, 7, 45
6, 351836, Note_off_c, 4, 84, 80
6, 351840, Control_c, 4, 7, 44
6, 351840, Note_on_c, 4, 85, 78
6, 351960, Control_c, 4, 7, 43
6, 352080, Control_c, 4, 7, 42
6, 352196, Note_off_c, 4, 85, 80
6, 352200, Control_c, 4, 7, 41
6, 352200, Note_on_c, 4, 84, 78
6, 352320, Control_c, 4, 7, 40
6, 352440, Control_c, 4, 7, 39
6, 352556, Note_off_c, 4, 84, 80
6, 352560, Control_c, 4, 7, 38
6, 352560, Note_on_c, 4, 82, 78
6, 352680, Control_c, 4, 7, 37
6, 352796, Note_off_c, 4, 82, 80
6, 352800, Control_c, 4, 7, 36
6, 352800, Note_on_c, 4, 80, 78
6, 352920, Control_c, 4, 7, 35
6, 353040, Control_c, 4, 7, 34
6, 353156, Note_off_c, 4, 80, 80
6, 353160, Control_c, 4, 7, 33
6, 353160, Note_on_c, 4, 77, 78
6, 353280, Control_c, 4, 7, 32
6, 353400, Control_c, 4, 7, 31
6, 353520, Control_c, 4, 7, 30
6, 353640, Control_c, 4, 7, 29
6, 353760, Control_c, 4, 7, 28
6, 353880, Control_c, 4, 7, 27
6, 353996, Note_off_c, 4, 77, 80
6, 354000, Control_c, 4, 7, 26
6, 354000, Note_on_c, 4, 75, 78
6, 354120, Control_c, 4, 7, 25
6, 354236, Note_off_c, 4, 75, 80
6, 354240, Control_c, 4, 7, 24
6, 354240, Note_on_c, 4, 77, 78
6, 354360, Control_c, 4, 7, 23
6, 354476, Note_off_c, 4, 77, 80
6, 354480, Control_c, 4, 7, 22
6, 354480, Note_on_c, 4, 80, 78
6, 354600, Control_c, 4, 7, 21
6, 354716, Note_off_c, 4, 80, 80
6, 354720, Control_c, 4, 7, 20
6, 354720, Note_on_c, 4, 77, 78
6, 354840, Control_c, 4, 7, 19
6, 354956, Note_off_c, 4, 77, 80
6, 354960, Control_c, 4, 7, 18
6, 354960, Note_on_c, 4, 80, 78
6, 355080, Control_c, 4, 7, 17
6, 355196, Note_off_c, 4, 80, 80
6, 355200, Control_c, 4, 7, 16
6, 355200, Control_c, 4, 7, 15
6, 355200, Note_on_c, 4, 84, 78
6, 355320, Control_c, 4, 7, 14
6, 355440, Control_c, 4, 7, 13
6, 355556, Note_off_c, 4, 84, 80
6, 355560, Control_c, 4, 7, 12
6, 355560, Note_on_c, 4, 82, 78
6, 355680, Control_c, 4, 7, 11
6, 355800, Control_c, 4, 7, 10
6, 355916, Note_off_c, 4, 82, 80
6, 355920, Control_c, 4, 7, 9
6, 355920, Note_on_c, 4, 80, 78
6, 356040, Control_c, 4, 7, 8
6, 356156, Note_off_c, 4, 80, 80
6, 356160, Note_on_c, 4, 77, 78
6, 356280, Control_c, 4, 7, 7
6, 356400, Control_c, 4, 7, 6
6, 356516, Note_off_c, 4, 77, 80
6, 356520, Control_c, 4, 7, 5
6, 356520, Note_on_c, 4, 75, 78
6, 356640, Control_c, 4, 7, 4
6, 356760, Control_c, 4, 7, 3
6, 356876, Note_off_c, 4, 75, 80
6, 356880, Control_c, 4, 7, 2
6, 356880, Note_on_c, 4, 73, 78
6, 357000, Control_c, 4, 7, 1
6, 357116, Note_off_c, 4, 73, 80
6, 357120, Control_c, 4, 7, 0
6, 357120, Note_on_c, 4, 70, 78
6, 357136, Pitch_bend_c, 4, 8320
6, 357168, Pitch_bend_c, 4, 8704
6, 357184, Pitch_bend_c, 4, 9088
6, 357200, Pitch_bend_c, 4, 9344
6, 357216, Pitch_bend_c, 4, 9600
6, 357476, Note_off_c, 4, 70, 80
6, 357480, Pitch_bend_c, 4, 8192
6, 357480, Note_on_c, 4, 70, 78
6, 357836, Note_off_c, 4, 70, 80
6, 357840, Note_on_c, 4, 68, 78
6, 359036, Note_off_c, 4, 68, 80
6, 359036, End_track
7, 0, Start_track
7, 0, Title_t, "Bowie"
7, 360, Control_c, 5, 121, 0
7, 360, Control_c, 5, 123, 0
7, 360, Control_c, 5, 100, 0
7, 360, Control_c, 5, 38, 0
7, 360, Control_c, 5, 101, 0
7, 360, Control_c, 5, 6, 12
7, 360, Pitch_bend_c, 5, 8192
7, 420, Program_c, 5, 65
7, 420, Control_c, 5, 7, 108
7, 420, Control_c, 5, 10, 58
7, 420, Control_c, 5, 1, 13
7, 31680, Note_on_c, 5, 53, 104
7, 32088, Pitch_bend_c, 5, 8832
7, 32124, Pitch_bend_c, 5, 9600
7, 32160, Pitch_bend_c, 5, 10240
7, 32636, Note_off_c, 5, 53, 80
7, 32640, Pitch_bend_c, 5, 8192
7, 33120, Note_on_c, 5, 60, 104
7, 33596, Note_off_c, 5, 60, 80
7, 33600, Note_on_c, 5, 60, 104
7, 34076, Note_off_c, 5, 60, 80
7, 34320, Note_on_c, 5, 60, 104
7, 34556, Note_off_c, 5, 60, 80
7, 34560, Note_on_c, 5, 60, 104
7, 35036, Note_off_c, 5, 60, 80
7, 35040, Note_on_c, 5, 60, 104
7, 35276, Note_off_c, 5, 60, 80
7, 35280, Note_on_c, 5, 60, 104
7, 35756, Note_off_c, 5, 60, 80
7, 36240, Note_on_c, 5, 53, 104
7, 36716, Note_off_c, 5, 53, 80
7, 36720, Note_on_c, 5, 53, 104
7, 37196, Note_off_c, 5, 53, 80
7, 37200, Note_on_c, 5, 53, 104
7, 37676, Note_off_c, 5, 53, 80
7, 39600, Note_on_c, 5, 56, 104
7, 39836, Note_off_c, 5, 56, 80
7, 39840, Note_on_c, 5, 56, 104
7, 40316, Note_off_c, 5, 56, 80
7, 40320, Note_on_c, 5, 60, 104
7, 40556, Note_off_c, 5, 60, 80
7, 40560, Note_on_c, 5, 60, 104
7, 41036, Note_off_c, 5, 60, 80
7, 41040, Note_on_c, 5, 60, 104
7, 41516, Note_off_c, 5, 60, 80
7, 42240, Note_on_c, 5, 63, 104
7, 42476, Note_off_c, 5, 63, 80
7, 42480, Note_on_c, 5, 65, 104
7, 42956, Note_off_c, 5, 65, 80
7, 42960, Note_on_c, 5, 63, 104
7, 43436, Note_off_c, 5, 63, 80
7, 44160, Note_on_c, 5, 53, 104
7, 44636, Note_off_c, 5, 53, 80
7, 44640, Note_on_c, 5, 53, 104
7, 45116, Note_off_c, 5, 53, 80
7, 47760, Note_on_c, 5, 60, 104
7, 47996, Note_off_c, 5, 60, 80
7, 48000, Note_on_c, 5, 60, 104
7, 48476, Note_off_c, 5, 60, 80
7, 48480, Note_on_c, 5, 60, 104
7, 48716, Note_off_c, 5, 60, 80
7, 48720, Note_on_c, 5, 60, 104
7, 48956, Note_off_c, 5, 60, 80
7, 48960, Note_on_c, 5, 58, 104
7, 49196, Note_off_c, 5, 58, 80
7, 49200, Note_on_c, 5, 56, 104
7, 49676, Note_off_c, 5, 56, 80
7, 50880, Note_on_c, 5, 60, 104
7, 51116, Note_off_c, 5, 60, 80
7, 51120, Note_on_c, 5, 61, 104
7, 51596, Note_off_c, 5, 61, 80
7, 51600, Note_on_c, 5, 60, 104
7, 51836, Note_off_c, 5, 60, 80
7, 51840, Note_on_c, 5, 63, 104
7, 52076, Note_off_c, 5, 63, 80
7, 52080, Note_on_c, 5, 61, 104
7, 52556, Note_off_c, 5, 61, 80
7, 52560, Note_on_c, 5, 63, 104
7, 53036, Note_off_c, 5, 63, 80
7, 53040, Note_on_c, 5, 58, 104
7, 53756, Note_off_c, 5, 58, 80
7, 55680, Note_on_c, 5, 61, 104
7, 55916, Note_off_c, 5, 61, 80
7, 55920, Note_on_c, 5, 63, 104
7, 56396, Note_off_c, 5, 63, 80
7, 56400, Note_on_c, 5, 61, 104
7, 56636, Note_off_c, 5, 61, 80
7, 56640, Note_on_c, 5, 61, 104
7, 57116, Note_off_c, 5, 61, 80
7, 57600, Note_on_c, 5, 61, 104
7, 57836, Note_off_c, 5, 61, 80
7, 57840, Note_on_c, 5, 63, 104
7, 58316, Note_off_c, 5, 63, 80
7, 58320, Note_on_c, 5, 61, 104
7, 58556, Note_off_c, 5, 61, 80
7, 58560, Note_on_c, 5, 61, 104
7, 59036, Note_off_c, 5, 61, 80
7, 59520, Note_on_c, 5, 65, 104
7, 59756, Note_off_c, 5, 65, 80
7, 59760, Note_on_c, 5, 65, 104
7, 59996, Note_off_c, 5, 65, 80
7, 60000, Note_on_c, 5, 65, 104
7, 60236, Note_off_c, 5, 65, 80
7, 60240, Note_on_c, 5, 65, 104
7, 60356, Note_off_c, 5, 65, 80
7, 60360, Note_on_c, 5, 68, 104
7, 60956, Note_off_c, 5, 68, 80
7, 60960, Note_on_c, 5, 65, 104
7, 61436, Note_off_c, 5, 65, 80
7, 61440, Note_on_c, 5, 63, 104
7, 61916, Note_off_c, 5, 63, 80
7, 61920, Note_on_c, 5, 60, 104
7, 62156, Note_off_c, 5, 60, 80
7, 62160, Note_on_c, 5, 60, 104
7, 62396, Note_off_c, 5, 60, 80
7, 62400, Note_on_c, 5, 60, 104
7, 62636, Note_off_c, 5, 60, 80
7, 62640, Note_on_c, 5, 61, 104
7, 62876, Note_off_c, 5, 61, 80
7, 62880, Note_on_c, 5, 60, 104
7, 63116, Note_off_c, 5, 60, 80
7, 63120, Note_on_c, 5, 58, 104
7, 63836, Note_off_c, 5, 58, 80
7, 66480, Note_on_c, 5, 61, 104
7, 66716, Note_off_c, 5, 61, 80
7, 66720, Note_on_c, 5, 61, 104
7, 67196, Note_off_c, 5, 61, 80
7, 67200, Note_on_c, 5, 68, 104
7, 67436, Note_off_c, 5, 68, 80
7, 67440, Note_on_c, 5, 56, 104
7, 67676, Note_off_c, 5, 56, 80
7, 67680, Note_on_c, 5, 56, 104
7, 67916, Note_off_c, 5, 56, 80
7, 67920, Note_on_c, 5, 58, 104
7, 68396, Note_off_c, 5, 58, 80
7, 68400, Note_on_c, 5, 56, 104
7, 68636, Note_off_c, 5, 56, 80
7, 68640, Note_on_c, 5, 56, 104
7, 68876, Note_off_c, 5, 56, 80
7, 68880, Note_on_c, 5, 56, 104
7, 69116, Note_off_c, 5, 56, 80
7, 69120, Note_on_c, 5, 58, 104
7, 69152, Pitch_bend_c, 5, 8320
7, 69168, Pitch_bend_c, 5, 8576
7, 69184, Pitch_bend_c, 5, 8704
7, 69200, Pitch_bend_c, 5, 8832
7, 69296, Pitch_bend_c, 5, 8704
7, 69312, Pitch_bend_c, 5, 8576
7, 69328, Pitch_bend_c, 5, 8320
7, 69344, Pitch_bend_c, 5, 8192
7, 69596, Note_off_c, 5, 58, 80
7, 69600, Note_on_c, 5, 56, 104
7, 69836, Note_off_c, 5, 56, 80
7, 69840, Note_on_c, 5, 58, 104
7, 70076, Note_off_c, 5, 58, 80
7, 70080, Note_on_c, 5, 56, 104
7, 70556, Note_off_c, 5, 56, 80
7, 71040, Note_on_c, 5, 65, 104
7, 71516, Note_off_c, 5, 65, 80
7, 71520, Note_on_c, 5, 65, 104
7, 71756, Note_off_c, 5, 65, 80
7, 71760, Note_on_c, 5, 68, 104
7, 72236, Note_off_c, 5, 68, 80
7, 72240, Note_on_c, 5, 56, 104
7, 72716, Note_off_c, 5, 56, 80
7, 72720, Note_on_c, 5, 60, 104
7, 73196, Note_off_c, 5, 60, 80
7, 73680, Note_on_c, 5, 60, 104
7, 73916, Note_off_c, 5, 60, 80
7, 73920, Note_on_c, 5, 60, 104
7, 74156, Note_off_c, 5, 60, 80
7, 74160, Note_on_c, 5, 61, 104
7, 74876, Note_off_c, 5, 61, 80
7, 74880, Note_on_c, 5, 63, 104
7, 75116, Note_off_c, 5, 63, 80
7, 75120, Note_on_c, 5, 61, 104
7, 75356, Note_off_c, 5, 61, 80
7, 75360, Note_on_c, 5, 60, 104
7, 75596, Note_off_c, 5, 60, 80
7, 75600, Note_on_c, 5, 58, 104
7, 76076, Note_off_c, 5, 58, 80
7, 93600, Note_on_c, 5, 65, 104
7, 93836, Note_off_c, 5, 65, 80
7, 93840, Note_on_c, 5, 63, 104
7, 94076, Note_off_c, 5, 63, 80
7, 94080, Note_on_c, 5, 63, 104
7, 94556, Note_off_c, 5, 63, 80
7, 94560, Note_on_c, 5, 60, 104
7, 95036, Note_off_c, 5, 60, 80
7, 95040, Note_on_c, 5, 60, 104
7, 95516, Note_off_c, 5, 60, 80
7, 95520, Note_on_c, 5, 58, 104
7, 95756, Note_off_c, 5, 58, 80
7, 95760, Note_on_c, 5, 60, 104
7, 96236, Note_off_c, 5, 60, 80
7, 96240, Note_on_c, 5, 60, 104
7, 96956, Note_off_c, 5, 60, 80
7, 96960, Note_on_c, 5, 60, 104
7, 97196, Note_off_c, 5, 60, 80
7, 97200, Note_on_c, 5, 56, 104
7, 97436, Note_off_c, 5, 56, 80
7, 97440, Note_on_c, 5, 58, 104
7, 97676, Note_off_c, 5, 58, 80
7, 97680, Note_on_c, 5, 56, 104
7, 98156, Note_off_c, 5, 56, 80
7, 98400, Note_on_c, 5, 56, 104
7, 98636, Note_off_c, 5, 56, 80
7, 98640, Note_on_c, 5, 53, 104
7, 98876, Note_off_c, 5, 53, 80
7, 98880, Note_on_c, 5, 56, 104
7, 99356, Note_off_c, 5, 56, 80
7, 99360, Note_on_c, 5, 56, 104
7, 99596, Note_off_c, 5, 56, 80
7, 99600, Note_on_c, 5, 53, 104
7, 99836, Note_off_c, 5, 53, 80
7, 99840, Note_on_c, 5, 56, 104
7, 100076, Note_off_c, 5, 56, 80
7, 100080, Note_on_c, 5, 58, 104
7, 100556, Note_off_c, 5, 58, 80
7, 100560, Note_on_c, 5, 56, 104
7, 100796, Note_off_c, 5, 56, 80
7, 100800, Note_on_c, 5, 56, 104
7, 101276, Note_off_c, 5, 56, 80
7, 101520, Note_on_c, 5, 60, 104
7, 101756, Note_off_c, 5, 60, 80
7, 101760, Note_on_c, 5, 60, 104
7, 101996, Note_off_c, 5, 60, 80
7, 102000, Note_on_c, 5, 60, 104
7, 102236, Note_off_c, 5, 60, 80
7, 102240, Note_on_c, 5, 60, 104
7, 102716, Note_off_c, 5, 60, 80
7, 102720, Note_on_c, 5, 63, 104
7, 102956, Note_off_c, 5, 63, 80
7, 102960, Note_on_c, 5, 60, 104
7, 103196, Note_off_c, 5, 60, 80
7, 103200, Note_on_c, 5, 60, 104
7, 103436, Note_off_c, 5, 60, 80
7, 103440, Note_on_c, 5, 58, 104
7, 103676, Note_off_c, 5, 58, 80
7, 103680, Note_on_c, 5, 58, 104
7, 103916, Note_off_c, 5, 58, 80
7, 103920, Note_on_c, 5, 60, 104
7, 104396, Note_off_c, 5, 60, 80
7, 104640, Note_on_c, 5, 56, 104
7, 104876, Note_off_c, 5, 56, 80
7, 104880, Note_on_c, 5, 58, 104
7, 105356, Note_off_c, 5, 58, 80
7, 105360, Note_on_c, 5, 56, 104
7, 105596, Note_off_c, 5, 56, 80
7, 105600, Note_on_c, 5, 56, 104
7, 106076, Note_off_c, 5, 56, 80
7, 106080, Note_on_c, 5, 56, 104
7, 106316, Note_off_c, 5, 56, 80
7, 106320, Note_on_c, 5, 53, 104
7, 106556, Note_off_c, 5, 53, 80
7, 106560, Note_on_c, 5, 56, 104
7, 107036, Note_off_c, 5, 56, 80
7, 107040, Note_on_c, 5, 56, 104
7, 107276, Note_off_c, 5, 56, 80
7, 107280, Note_on_c, 5, 53, 104
7, 107516, Note_off_c, 5, 53, 80
7, 107520, Note_on_c, 5, 56, 104
7, 107756, Note_off_c, 5, 56, 80
7, 107760, Note_on_c, 5, 56, 104
7, 108236, Note_off_c, 5, 56, 80
7, 108240, Note_on_c, 5, 56, 104
7, 108716, Note_off_c, 5, 56, 80
7, 109200, Note_on_c, 5, 60, 104
7, 109436, Note_off_c, 5, 60, 80
7, 109440, Note_on_c, 5, 60, 104
7, 109676, Note_off_c, 5, 60, 80
7, 109680, Note_on_c, 5, 60, 104
7, 109916, Note_off_c, 5, 60, 80
7, 109920, Note_on_c, 5, 60, 104
7, 110396, Note_off_c, 5, 60, 80
7, 110400, Note_on_c, 5, 58, 104
7, 110636, Note_off_c, 5, 58, 80
7, 110640, Note_on_c, 5, 56, 104
7, 110876, Note_off_c, 5, 56, 80
7, 110880, Note_on_c, 5, 58, 104
7, 111356, Note_off_c, 5, 58, 80
7, 111360, Note_on_c, 5, 56, 104
7, 111836, Note_off_c, 5, 56, 80
7, 112320, Note_on_c, 5, 60, 104
7, 112556, Note_off_c, 5, 60, 80
7, 112560, Note_on_c, 5, 61, 104
7, 112796, Note_off_c, 5, 61, 80
7, 112800, Note_on_c, 5, 60, 104
7, 113036, Note_off_c, 5, 60, 80
7, 113040, Note_on_c, 5, 63, 104
7, 113516, Note_off_c, 5, 63, 80
7, 113520, Note_on_c, 5, 61, 104
7, 113636, Note_off_c, 5, 61, 80
7, 113640, Note_on_c, 5, 60, 104
7, 113756, Note_off_c, 5, 60, 80
7, 113760, Note_on_c, 5, 58, 104
7, 114236, Note_off_c, 5, 58, 80
7, 114240, Note_on_c, 5, 60, 104
7, 114956, Note_off_c, 5, 60, 80
7, 114960, Note_on_c, 5, 58, 104
7, 115676, Note_off_c, 5, 58, 80
7, 117120, Note_on_c, 5, 61, 104
7, 117356, Note_off_c, 5, 61, 80
7, 117360, Note_on_c, 5, 63, 104
7, 117836, Note_off_c, 5, 63, 80
7, 117840, Note_on_c, 5, 61, 104
7, 118316, Note_off_c, 5, 61, 80
7, 118800, Note_on_c, 5, 61, 104
7, 119036, Note_off_c, 5, 61, 80
7, 119040, Note_on_c, 5, 61, 104
7, 119276, Note_off_c, 5, 61, 80
7, 119280, Note_on_c, 5, 63, 104
7, 119756, Note_off_c, 5, 63, 80
7, 119760, Note_on_c, 5, 61, 104
7, 120236, Note_off_c, 5, 61, 80
7, 120240, Note_on_c, 5, 61, 104
7, 120716, Note_off_c, 5, 61, 80
7, 120960, Note_on_c, 5, 65, 104
7, 121676, Note_off_c, 5, 65, 80
7, 121680, Note_on_c, 5, 63, 104
7, 122156, Note_off_c, 5, 63, 80
7, 122160, Note_on_c, 5, 63, 104
7, 122396, Note_off_c, 5, 63, 80
7, 122400, Note_on_c, 5, 65, 104
7, 122636, Note_off_c, 5, 65, 80
7, 122640, Note_on_c, 5, 60, 104
7, 122876, Note_off_c, 5, 60, 80
7, 122880, Note_on_c, 5, 60, 104
7, 123356, Note_off_c, 5, 60, 80
7, 124080, Note_on_c, 5, 61, 104
7, 124316, Note_off_c, 5, 61, 80
7, 124320, Note_on_c, 5, 60, 104
7, 124556, Note_off_c, 5, 60, 80
7, 124560, Note_on_c, 5, 63, 104
7, 125036, Note_off_c, 5, 63, 80
7, 125040, Note_on_c, 5, 61, 104
7, 125276, Note_off_c, 5, 61, 80
7, 125280, Note_on_c, 5, 60, 104
7, 125516, Note_off_c, 5, 60, 80
7, 125520, Note_on_c, 5, 58, 104
7, 126476, Note_off_c, 5, 58, 80
7, 128160, Note_on_c, 5, 61, 104
7, 128636, Note_off_c, 5, 61, 80
7, 128640, Note_on_c, 5, 61, 104
7, 128876, Note_off_c, 5, 61, 80
7, 128880, Note_on_c, 5, 61, 104
7, 129116, Note_off_c, 5, 61, 80
7, 129120, Note_on_c, 5, 61, 104
7, 129356, Note_off_c, 5, 61, 80
7, 129360, Note_on_c, 5, 61, 104
7, 129596, Note_off_c, 5, 61, 80
7, 129600, Note_on_c, 5, 63, 104
7, 130076, Note_off_c, 5, 63, 80
7, 130080, Note_on_c, 5, 61, 104
7, 130556, Note_off_c, 5, 61, 80
7, 130560, Note_on_c, 5, 61, 104
7, 130796, Note_off_c, 5, 61, 80
7, 130800, Note_on_c, 5, 63, 104
7, 131276, Note_off_c, 5, 63, 80
7, 131280, Note_on_c, 5, 61, 104
7, 131516, Note_off_c, 5, 61, 80
7, 131520, Note_on_c, 5, 61, 104
7, 131996, Note_off_c, 5, 61, 80
7, 132240, Note_on_c, 5, 61, 104
7, 132476, Note_off_c, 5, 61, 80
7, 132480, Note_on_c, 5, 65, 104
7, 132716, Note_off_c, 5, 65, 80
7, 132720, Note_on_c, 5, 65, 104
7, 132956, Note_off_c, 5, 65, 80
7, 132960, Note_on_c, 5, 65, 104
7, 133196, Note_off_c, 5, 65, 80
7, 133200, Note_on_c, 5, 65, 104
7, 133436, Note_off_c, 5, 65, 80
7, 133440, Note_on_c, 5, 68, 104
7, 133916, Note_off_c, 5, 68, 80
7, 133920, Note_on_c, 5, 56, 104
7, 134396, Note_off_c, 5, 56, 80
7, 134400, Note_on_c, 5, 60, 104
7, 134876, Note_off_c, 5, 60, 80
7, 135120, Note_on_c, 5, 60, 104
7, 135356, Note_off_c, 5, 60, 80
7, 135360, Note_on_c, 5, 60, 104
7, 135596, Note_off_c, 5, 60, 80
7, 135600, Note_on_c, 5, 56, 104
7, 135836, Note_off_c, 5, 56, 80
7, 135840, Note_on_c, 5, 60, 104
7, 136076, Note_off_c, 5, 60, 80
7, 136080, Note_on_c, 5, 58, 104
7, 136556, Note_off_c, 5, 58, 80
7, 138720, Note_on_c, 5, 60, 104
7, 138956, Note_off_c, 5, 60, 80
7, 138960, Note_on_c, 5, 60, 104
7, 139436, Note_off_c, 5, 60, 80
7, 139440, Note_on_c, 5, 60, 104
7, 139916, Note_off_c, 5, 60, 80
7, 140160, Note_on_c, 5, 65, 104
7, 140396, Note_off_c, 5, 65, 80
7, 140400, Note_on_c, 5, 58, 104
7, 140636, Note_off_c, 5, 58, 80
7, 140640, Note_on_c, 5, 58, 104
7, 140876, Note_off_c, 5, 58, 80
7, 140880, Note_on_c, 5, 58, 104
7, 141116, Note_off_c, 5, 58, 80
7, 141360, Note_on_c, 5, 60, 104
7, 141476, Note_off_c, 5, 60, 80
7, 141480, Note_on_c, 5, 58, 104
7, 141596, Note_off_c, 5, 58, 80
7, 141600, Note_on_c, 5, 60, 104
7, 141836, Note_off_c, 5, 60, 80
7, 141840, Note_on_c, 5, 60, 104
7, 142076, Note_off_c, 5, 60, 80
7, 142080, Note_on_c, 5, 58, 104
7, 142316, Note_off_c, 5, 58, 80
7, 142320, Note_on_c, 5, 60, 104
7, 142556, Note_off_c, 5, 60, 80
7, 142560, Note_on_c, 5, 60, 104
7, 142796, Note_off_c, 5, 60, 80
7, 142800, Note_on_c, 5, 61, 104
7, 142916, Note_off_c, 5, 61, 80
7, 142920, Note_on_c, 5, 61, 104
7, 143036, Note_off_c, 5, 61, 80
7, 143040, Note_on_c, 5, 60, 104
7, 143276, Note_off_c, 5, 60, 80
7, 143280, Note_on_c, 5, 63, 104
7, 143516, Note_off_c, 5, 63, 80
7, 143520, Note_on_c, 5, 63, 104
7, 143756, Note_off_c, 5, 63, 80
7, 143760, Note_on_c, 5, 61, 104
7, 143996, Note_off_c, 5, 61, 80
7, 144240, Note_on_c, 5, 65, 104
7, 144476, Note_off_c, 5, 65, 80
7, 144480, Note_on_c, 5, 53, 104
7, 144716, Note_off_c, 5, 53, 80
7, 144720, Note_on_c, 5, 58, 104
7, 145196, Note_off_c, 5, 58, 80
7, 145200, Note_on_c, 5, 56, 104
7, 145676, Note_off_c, 5, 56, 80
7, 145680, Note_on_c, 5, 60, 104
7, 145916, Note_off_c, 5, 60, 80
7, 145920, Note_on_c, 5, 58, 104
7, 146156, Note_off_c, 5, 58, 80
7, 146160, Note_on_c, 5, 56, 104
7, 146396, Note_off_c, 5, 56, 80
7, 146400, Note_on_c, 5, 56, 104
7, 146636, Note_off_c, 5, 56, 80
7, 146640, Note_on_c, 5, 56, 104
7, 147116, Note_off_c, 5, 56, 80
7, 147120, Note_on_c, 5, 51, 104
7, 147356, Note_off_c, 5, 51, 80
7, 147360, Note_on_c, 5, 51, 104
7, 147596, Note_off_c, 5, 51, 80
7, 147600, Note_on_c, 5, 51, 104
7, 147836, Note_off_c, 5, 51, 80
7, 148320, Note_on_c, 5, 61, 104
7, 148556, Note_off_c, 5, 61, 80
7, 148560, Note_on_c, 5, 61, 104
7, 148796, Note_off_c, 5, 61, 80
7, 148800, Note_on_c, 5, 60, 104
7, 149036, Note_off_c, 5, 60, 80
7, 149040, Note_on_c, 5, 60, 104
7, 149276, Note_off_c, 5, 60, 80
7, 149280, Note_on_c, 5, 60, 104
7, 149516, Note_off_c, 5, 60, 80
7, 149520, Note_on_c, 5, 60, 104
7, 149756, Note_off_c, 5, 60, 80
7, 149760, Note_on_c, 5, 61, 104
7, 149996, Note_off_c, 5, 61, 80
7, 150000, Note_on_c, 5, 61, 104
7, 150236, Note_off_c, 5, 61, 80
7, 150240, Note_on_c, 5, 61, 104
7, 150356, Note_off_c, 5, 61, 80
7, 150360, Note_on_c, 5, 61, 104
7, 150476, Note_off_c, 5, 61, 80
7, 150480, Note_on_c, 5, 60, 104
7, 150716, Note_off_c, 5, 60, 80
7, 150720, Note_on_c, 5, 58, 104
7, 150956, Note_off_c, 5, 58, 80
7, 151440, Note_on_c, 5, 58, 104
7, 151676, Note_off_c, 5, 58, 80
7, 151680, Note_on_c, 5, 61, 104
7, 152156, Note_off_c, 5, 61, 80
7, 152160, Note_on_c, 5, 58, 104
7, 152396, Note_off_c, 5, 58, 80
7, 152400, Note_on_c, 5, 58, 104
7, 152636, Note_off_c, 5, 58, 80
7, 152640, Note_on_c, 5, 61, 104
7, 152876, Note_off_c, 5, 61, 80
7, 152880, Note_on_c, 5, 58, 104
7, 153116, Note_off_c, 5, 58, 80
7, 153120, Note_on_c, 5, 58, 104
7, 153596, Note_off_c, 5, 58, 80
7, 154560, Note_on_c, 5, 60, 104
7, 154672, Pitch_bend_c, 5, 8320
7, 154688, Pitch_bend_c, 5, 8576
7, 154704, Pitch_bend_c, 5, 8704
7, 154720, Pitch_bend_c, 5, 8832
7, 154896, Pitch_bend_c, 5, 8704
7, 154912, Pitch_bend_c, 5, 8576
7, 154928, Pitch_bend_c, 5, 8320
7, 154944, Pitch_bend_c, 5, 8192
7, 155036, Note_off_c, 5, 60, 80
7, 155040, Note_on_c, 5, 58, 104
7, 155276, Note_off_c, 5, 58, 80
7, 155280, Note_on_c, 5, 56, 104
7, 155516, Note_off_c, 5, 56, 80
7, 155520, Note_on_c, 5, 65, 104
7, 155756, Note_off_c, 5, 65, 80
7, 155760, Note_on_c, 5, 65, 104
7, 155996, Note_off_c, 5, 65, 80
7, 156000, Note_on_c, 5, 65, 104
7, 156236, Note_off_c, 5, 65, 80
7, 156240, Note_on_c, 5, 68, 104
7, 156716, Note_off_c, 5, 68, 80
7, 156720, Note_on_c, 5, 65, 104
7, 157196, Note_off_c, 5, 65, 80
7, 157440, Note_on_c, 5, 65, 104
7, 157676, Note_off_c, 5, 65, 80
7, 157680, Note_on_c, 5, 65, 104
7, 157916, Note_off_c, 5, 65, 80
7, 157920, Note_on_c, 5, 65, 104
7, 158156, Note_off_c, 5, 65, 80
7, 158160, Note_on_c, 5, 58, 104
7, 158396, Note_off_c, 5, 58, 80
7, 158880, Note_on_c, 5, 65, 104
7, 159116, Note_off_c, 5, 65, 80
7, 159120, Note_on_c, 5, 60, 104
7, 159356, Note_off_c, 5, 60, 80
7, 159360, Note_on_c, 5, 63, 104
7, 159596, Note_off_c, 5, 63, 80
7, 159600, Note_on_c, 5, 65, 104
7, 161036, Note_off_c, 5, 65, 80
7, 174480, Note_on_c, 5, 56, 104
7, 174716, Note_off_c, 5, 56, 80
7, 174720, Note_on_c, 5, 56, 104
7, 174956, Note_off_c, 5, 56, 80
7, 174960, Note_on_c, 5, 56, 104
7, 175436, Note_off_c, 5, 56, 80
7, 175440, Note_on_c, 5, 56, 104
7, 175676, Note_off_c, 5, 56, 80
7, 175680, Note_on_c, 5, 56, 104
7, 175916, Note_off_c, 5, 56, 80
7, 175920, Note_on_c, 5, 51, 104
7, 176156, Note_off_c, 5, 51, 80
7, 176160, Note_on_c, 5, 51, 104
7, 176636, Note_off_c, 5, 51, 80
7, 176640, Note_on_c, 5, 51, 104
7, 176876, Note_off_c, 5, 51, 80
7, 176880, Note_on_c, 5, 56, 104
7, 177116, Note_off_c, 5, 56, 80
7, 177120, Note_on_c, 5, 56, 104
7, 177596, Note_off_c, 5, 56, 80
7, 177600, Note_on_c, 5, 56, 104
7, 177836, Note_off_c, 5, 56, 80
7, 177840, Note_on_c, 5, 54, 104
7, 178076, Note_off_c, 5, 54, 80
7, 178080, Note_on_c, 5, 56, 104
7, 178556, Note_off_c, 5, 56, 80
7, 181440, Note_on_c, 5, 56, 104
7, 182156, Note_off_c, 5, 56, 80
7, 182160, Note_on_c, 5, 56, 104
7, 182396, Note_off_c, 5, 56, 80
7, 182400, Note_on_c, 5, 56, 104
7, 182636, Note_off_c, 5, 56, 80
7, 182640, Note_on_c, 5, 56, 104
7, 182876, Note_off_c, 5, 56, 80
7, 182880, Note_on_c, 5, 56, 104
7, 183116, Note_off_c, 5, 56, 80
7, 183120, Note_on_c, 5, 56, 104
7, 183356, Note_off_c, 5, 56, 80
7, 183360, Note_on_c, 5, 56, 104
7, 183596, Note_off_c, 5, 56, 80
7, 183600, Note_on_c, 5, 56, 104
7, 183836, Note_off_c, 5, 56, 80
7, 183840, Note_on_c, 5, 51, 104
7, 184076, Note_off_c, 5, 51, 80
7, 184080, Note_on_c, 5, 51, 104
7, 184316, Note_off_c, 5, 51, 80
7, 184320, Note_on_c, 5, 56, 104
7, 184556, Note_off_c, 5, 56, 80
7, 184560, Note_on_c, 5, 56, 104
7, 184796, Note_off_c, 5, 56, 80
7, 184800, Note_on_c, 5, 56, 104
7, 185036, Note_off_c, 5, 56, 80
7, 185040, Note_on_c, 5, 58, 104
7, 185276, Note_off_c, 5, 58, 80
7, 185280, Note_on_c, 5, 58, 104
7, 185392, Pitch_bend_c, 5, 8320
7, 185408, Pitch_bend_c, 5, 8576
7, 185424, Pitch_bend_c, 5, 8704
7, 185440, Pitch_bend_c, 5, 8832
7, 185584, Pitch_bend_c, 5, 8576
7, 185600, Pitch_bend_c, 5, 8448
7, 185616, Pitch_bend_c, 5, 8320
7, 185632, Pitch_bend_c, 5, 8192
7, 185756, Note_off_c, 5, 58, 80
7, 189360, Note_on_c, 5, 61, 104
7, 189596, Note_off_c, 5, 61, 80
7, 189600, Note_on_c, 5, 61, 104
7, 189836, Note_off_c, 5, 61, 80
7, 189840, Note_on_c, 5, 61, 104
7, 190076, Note_off_c, 5, 61, 80
7, 190080, Note_on_c, 5, 61, 104
7, 191036, Note_off_c, 5, 61, 80
7, 192480, Note_on_c, 5, 61, 104
7, 192716, Note_off_c, 5, 61, 80
7, 192720, Note_on_c, 5, 63, 104
7, 193196, Note_off_c, 5, 63, 80
7, 193200, Note_on_c, 5, 61, 104
7, 193436, Note_off_c, 5, 61, 80
7, 193440, Note_on_c, 5, 60, 104
7, 193676, Note_off_c, 5, 60, 80
7, 193680, Note_on_c, 5, 61, 104
7, 194156, Note_off_c, 5, 61, 80
7, 194160, Note_on_c, 5, 58, 104
7, 194636, Note_off_c, 5, 58, 80
7, 196320, Note_on_c, 5, 61, 104
7, 196556, Note_off_c, 5, 61, 80
7, 196560, Note_on_c, 5, 63, 104
7, 197036, Note_off_c, 5, 63, 80
7, 197040, Note_on_c, 5, 61, 104
7, 197276, Note_off_c, 5, 61, 80
7, 197280, Note_on_c, 5, 60, 104
7, 197516, Note_off_c, 5, 60, 80
7, 197520, Note_on_c, 5, 61, 104
7, 197996, Note_off_c, 5, 61, 80
7, 198000, Note_on_c, 5, 58, 104
7, 198476, Note_off_c, 5, 58, 80
7, 200160, Note_on_c, 5, 61, 104
7, 200396, Note_off_c, 5, 61, 80
7, 200400, Note_on_c, 5, 63, 104
7, 200876, Note_off_c, 5, 63, 80
7, 200880, Note_on_c, 5, 61, 104
7, 201116, Note_off_c, 5, 61, 80
7, 201120, Note_on_c, 5, 60, 104
7, 201356, Note_off_c, 5, 60, 80
7, 201360, Note_on_c, 5, 61, 104
7, 201836, Note_off_c, 5, 61, 80
7, 201840, Note_on_c, 5, 60, 104
7, 202076, Note_off_c, 5, 60, 80
7, 202080, Note_on_c, 5, 61, 104
7, 202316, Note_off_c, 5, 61, 80
7, 202320, Note_on_c, 5, 63, 104
7, 202796, Note_off_c, 5, 63, 80
7, 202800, Note_on_c, 5, 61, 104
7, 203036, Note_off_c, 5, 61, 80
7, 203040, Note_on_c, 5, 60, 104
7, 203276, Note_off_c, 5, 60, 80
7, 203280, Note_on_c, 5, 61, 104
7, 203756, Note_off_c, 5, 61, 80
7, 203760, Note_on_c, 5, 60, 104
7, 203996, Note_off_c, 5, 60, 80
7, 204000, Note_on_c, 5, 61, 104
7, 204236, Note_off_c, 5, 61, 80
7, 204240, Note_on_c, 5, 63, 104
7, 205196, Note_off_c, 5, 63, 80
7, 205200, Note_on_c, 5, 65, 104
7, 205436, Note_off_c, 5, 65, 80
7, 205440, Note_on_c, 5, 65, 104
7, 205676, Note_off_c, 5, 65, 80
7, 205680, Note_on_c, 5, 65, 104
7, 205916, Note_off_c, 5, 65, 80
7, 205920, Note_on_c, 5, 65, 104
7, 206156, Note_off_c, 5, 65, 80
7, 206160, Note_on_c, 5, 65, 104
7, 206396, Note_off_c, 5, 65, 80
7, 206880, Note_on_c, 5, 65, 104
7, 207116, Note_off_c, 5, 65, 80
7, 207120, Note_on_c, 5, 65, 104
7, 207356, Note_off_c, 5, 65, 80
7, 207360, Note_on_c, 5, 63, 104
7, 207596, Note_off_c, 5, 63, 80
7, 207840, Note_on_c, 5, 63, 104
7, 208076, Note_off_c, 5, 63, 80
7, 208080, Note_on_c, 5, 65, 104
7, 208316, Note_off_c, 5, 65, 80
7, 208320, Note_on_c, 5, 63, 104
7, 208556, Note_off_c, 5, 63, 80
7, 209040, Note_on_c, 5, 63, 104
7, 209276, Note_off_c, 5, 63, 80
7, 209280, Note_on_c, 5, 63, 104
7, 209516, Note_off_c, 5, 63, 80
7, 209520, Note_on_c, 5, 63, 104
7, 209756, Note_off_c, 5, 63, 80
7, 209760, Note_on_c, 5, 63, 104
7, 209996, Note_off_c, 5, 63, 80
7, 210000, Note_on_c, 5, 63, 104
7, 210236, Note_off_c, 5, 63, 80
7, 210480, Note_on_c, 5, 63, 104
7, 210716, Note_off_c, 5, 63, 80
7, 210720, Note_on_c, 5, 63, 104
7, 210956, Note_off_c, 5, 63, 80
7, 211200, Note_on_c, 5, 61, 104
7, 211436, Note_off_c, 5, 61, 80
7, 211680, Note_on_c, 5, 61, 104
7, 211916, Note_off_c, 5, 61, 80
7, 212160, Note_on_c, 5, 61, 104
7, 212396, Note_off_c, 5, 61, 80
7, 212880, Note_on_c, 5, 61, 104
7, 213116, Note_off_c, 5, 61, 80
7, 213120, Note_on_c, 5, 61, 104
7, 213356, Note_off_c, 5, 61, 80
7, 213360, Note_on_c, 5, 61, 104
7, 213596, Note_off_c, 5, 61, 80
7, 213600, Note_on_c, 5, 61, 104
7, 213836, Note_off_c, 5, 61, 80
7, 213840, Note_on_c, 5, 61, 104
7, 214076, Note_off_c, 5, 61, 80
7, 214320, Note_on_c, 5, 61, 104
7, 214556, Note_off_c, 5, 61, 80
7, 214560, Note_on_c, 5, 61, 104
7, 214796, Note_off_c, 5, 61, 80
7, 215040, Note_on_c, 5, 60, 104
7, 215276, Note_off_c, 5, 60, 80
7, 215520, Note_on_c, 5, 60, 104
7, 215756, Note_off_c, 5, 60, 80
7, 216000, Note_on_c, 5, 60, 104
7, 216236, Note_off_c, 5, 60, 80
7, 216960, Note_on_c, 5, 58, 104
7, 216992, Pitch_bend_c, 5, 8320
7, 217024, Pitch_bend_c, 5, 8448
7, 217040, Pitch_bend_c, 5, 8576
7, 217056, Pitch_bend_c, 5, 8832
7, 217072, Pitch_bend_c, 5, 9088
7, 217088, Pitch_bend_c, 5, 9344
7, 217104, Pitch_bend_c, 5, 9472
7, 217120, Pitch_bend_c, 5, 9600
7, 217296, Pitch_bend_c, 5, 9472
7, 217312, Pitch_bend_c, 5, 9344
7, 217328, Pitch_bend_c, 5, 9088
7, 217344, Pitch_bend_c, 5, 8832
7, 217360, Pitch_bend_c, 5, 8576
7, 217376, Pitch_bend_c, 5, 8448
7, 217392, Pitch_bend_c, 5, 8320
7, 217424, Pitch_bend_c, 5, 8192
7, 217916, Note_off_c, 5, 58, 80
7, 217920, Note_on_c, 5, 61, 104
7, 218636, Note_off_c, 5, 61, 80
7, 218640, Note_on_c, 5, 61, 104
7, 218876, Note_off_c, 5, 61, 80
7, 218880, Note_on_c, 5, 65, 104
7, 219116, Note_off_c, 5, 65, 80
7, 219120, Note_on_c, 5, 65, 104
7, 219356, Note_off_c, 5, 65, 80
7, 219360, Note_on_c, 5, 65, 104
7, 219596, Note_off_c, 5, 65, 80
7, 219600, Note_on_c, 5, 65, 104
7, 219836, Note_off_c, 5, 65, 80
7, 219840, Note_on_c, 5, 65, 104
7, 220316, Note_off_c, 5, 65, 80
7, 220320, Note_on_c, 5, 60, 104
7, 220796, Note_off_c, 5, 60, 80
7, 220800, Note_on_c, 5, 65, 104
7, 221824, Pitch_bend_c, 5, 8448
7, 221840, Pitch_bend_c, 5, 8960
7, 221856, Pitch_bend_c, 5, 9600
7, 221968, Pitch_bend_c, 5, 8960
7, 221984, Pitch_bend_c, 5, 8448
7, 222000, Pitch_bend_c, 5, 8192
7, 222236, Note_off_c, 5, 65, 80
7, 222240, Note_on_c, 5, 63, 104
7, 224156, Note_off_c, 5, 63, 80
7, 226320, Note_on_c, 5, 60, 104
7, 226556, Note_off_c, 5, 60, 80
7, 226560, Note_on_c, 5, 65, 104
7, 226796, Note_off_c, 5, 65, 80
7, 226800, Note_on_c, 5, 65, 104
7, 227036, Note_off_c, 5, 65, 80
7, 227040, Note_on_c, 5, 65, 104
7, 227276, Note_off_c, 5, 65, 80
7, 227280, Note_on_c, 5, 65, 104
7, 227516, Note_off_c, 5, 65, 80
7, 227520, Note_on_c, 5, 65, 104
7, 227996, Note_off_c, 5, 65, 80
7, 228000, Note_on_c, 5, 60, 104
7, 228476, Note_off_c, 5, 60, 80
7, 228480, Note_on_c, 5, 65, 104
7, 229504, Pitch_bend_c, 5, 8448
7, 229520, Pitch_bend_c, 5, 8960
7, 229536, Pitch_bend_c, 5, 9600
7, 229648, Pitch_bend_c, 5, 8960
7, 229664, Pitch_bend_c, 5, 8448
7, 229680, Pitch_bend_c, 5, 8192
7, 229916, Note_off_c, 5, 65, 80
7, 229920, Note_on_c, 5, 63, 104
7, 231836, Note_off_c, 5, 63, 80
7, 266880, Note_on_c, 5, 61, 104
7, 267116, Note_off_c, 5, 61, 80
7, 267120, Note_on_c, 5, 61, 104
7, 267356, Note_off_c, 5, 61, 80
7, 267360, Note_on_c, 5, 61, 104
7, 267596, Note_off_c, 5, 61, 80
7, 267600, Note_on_c, 5, 61, 104
7, 267836, Note_off_c, 5, 61, 80
7, 267840, Note_on_c, 5, 60, 104
7, 268316, Note_off_c, 5, 60, 80
7, 268560, Note_on_c, 5, 60, 104
7, 268796, Note_off_c, 5, 60, 80
7, 268800, Note_on_c, 5, 58, 104
7, 269036, Note_off_c, 5, 58, 80
7, 269040, Note_on_c, 5, 56, 104
7, 269276, Note_off_c, 5, 56, 80
7, 269280, Note_on_c, 5, 56, 104
7, 269516, Note_off_c, 5, 56, 80
7, 269520, Note_on_c, 5, 56, 104
7, 269996, Note_off_c, 5, 56, 80
7, 270000, Note_on_c, 5, 56, 104
7, 270476, Note_off_c, 5, 56, 80
7, 270480, Note_on_c, 5, 56, 104
7, 270716, Note_off_c, 5, 56, 80
7, 270720, Note_on_c, 5, 61, 104
7, 270956, Note_off_c, 5, 61, 80
7, 270960, Note_on_c, 5, 61, 104
7, 271196, Note_off_c, 5, 61, 80
7, 271200, Note_on_c, 5, 63, 104
7, 271436, Note_off_c, 5, 63, 80
7, 271440, Note_on_c, 5, 63, 104
7, 271676, Note_off_c, 5, 63, 80
7, 271680, Note_on_c, 5, 63, 104
7, 272156, Note_off_c, 5, 63, 80
7, 272160, Note_on_c, 5, 60, 104
7, 272396, Note_off_c, 5, 60, 80
7, 272400, Note_on_c, 5, 60, 104
7, 272636, Note_off_c, 5, 60, 80
7, 272640, Note_on_c, 5, 61, 104
7, 272876, Note_off_c, 5, 61, 80
7, 272880, Note_on_c, 5, 60, 104
7, 273116, Note_off_c, 5, 60, 80
7, 273120, Note_on_c, 5, 58, 104
7, 273596, Note_off_c, 5, 58, 80
7, 273600, Note_on_c, 5, 56, 104
7, 273836, Note_off_c, 5, 56, 80
7, 273840, Note_on_c, 5, 51, 104
7, 274316, Note_off_c, 5, 51, 80
7, 274320, Note_on_c, 5, 51, 104
7, 274436, Note_off_c, 5, 51, 80
7, 274440, Note_on_c, 5, 51, 104
7, 274556, Note_off_c, 5, 51, 80
7, 274800, Note_on_c, 5, 61, 104
7, 275036, Note_off_c, 5, 61, 80
7, 275040, Note_on_c, 5, 61, 104
7, 275276, Note_off_c, 5, 61, 80
7, 275280, Note_on_c, 5, 61, 104
7, 275516, Note_off_c, 5, 61, 80
7, 275520, Note_on_c, 5, 61, 104
7, 275756, Note_off_c, 5, 61, 80
7, 275760, Note_on_c, 5, 60, 104
7, 276236, Note_off_c, 5, 60, 80
7, 276240, Note_on_c, 5, 60, 104
7, 276476, Note_off_c, 5, 60, 80
7, 276480, Note_on_c, 5, 58, 104
7, 276956, Note_off_c, 5, 58, 80
7, 276960, Note_on_c, 5, 60, 104
7, 277436, Note_off_c, 5, 60, 80
7, 277440, Note_on_c, 5, 63, 104
7, 277676, Note_off_c, 5, 63, 80
7, 277680, Note_on_c, 5, 63, 104
7, 277916, Note_off_c, 5, 63, 80
7, 277920, Note_on_c, 5, 65, 104
7, 278156, Note_off_c, 5, 65, 80
7, 278160, Note_on_c, 5, 65, 104
7, 278396, Note_off_c, 5, 65, 80
7, 278640, Note_on_c, 5, 65, 104
7, 278876, Note_off_c, 5, 65, 80
7, 278880, Note_on_c, 5, 68, 104
7, 279356, Note_off_c, 5, 68, 80
7, 279360, Note_on_c, 5, 65, 104
7, 279836, Note_off_c, 5, 65, 80
7, 279840, Note_on_c, 5, 65, 104
7, 280076, Note_off_c, 5, 65, 80
7, 280080, Note_on_c, 5, 65, 104
7, 280316, Note_off_c, 5, 65, 80
7, 280560, Note_on_c, 5, 70, 104
7, 280796, Note_off_c, 5, 70, 80
7, 280800, Note_on_c, 5, 68, 104
7, 281036, Note_off_c, 5, 68, 80
7, 281040, Note_on_c, 5, 65, 104
7, 281516, Note_off_c, 5, 65, 80
7, 282000, Note_on_c, 5, 65, 104
7, 282236, Note_off_c, 5, 65, 80
7, 282240, Note_on_c, 5, 68, 104
7, 282476, Note_off_c, 5, 68, 80
7, 282480, Note_on_c, 5, 65, 104
7, 282716, Note_off_c, 5, 65, 80
7, 282720, Note_on_c, 5, 68, 104
7, 282956, Note_off_c, 5, 68, 80
7, 282960, Note_on_c, 5, 65, 104
7, 283436, Note_off_c, 5, 65, 80
7, 283440, Note_on_c, 5, 65, 104
7, 283676, Note_off_c, 5, 65, 80
7, 283680, Note_on_c, 5, 65, 104
7, 283916, Note_off_c, 5, 65, 80
7, 284160, Note_on_c, 5, 68, 104
7, 284396, Note_off_c, 5, 68, 80
7, 284400, Note_on_c, 5, 65, 104
7, 284636, Note_off_c, 5, 65, 80
7, 284640, Note_on_c, 5, 65, 104
7, 284876, Note_off_c, 5, 65, 80
7, 284880, Note_on_c, 5, 65, 104
7, 285116, Note_off_c, 5, 65, 80
7, 285120, Note_on_c, 5, 65, 104
7, 285596, Note_off_c, 5, 65, 80
7, 285600, Note_on_c, 5, 63, 104
7, 286076, Note_off_c, 5, 63, 80
7, 286080, Note_on_c, 5, 65, 104
7, 287276, Note_off_c, 5, 65, 80
7, 287280, Note_on_c, 5, 63, 104
7, 287516, Note_off_c, 5, 63, 80
7, 287520, Note_on_c, 5, 63, 104
7, 288476, Note_off_c, 5, 63, 80
7, 288960, Note_on_c, 5, 68, 104
7, 289316, Note_off_c, 5, 68, 80
7, 289320, Note_on_c, 5, 65, 104
7, 289676, Note_off_c, 5, 65, 80
7, 289680, Note_on_c, 5, 63, 104
7, 289916, Note_off_c, 5, 63, 80
7, 289920, Note_on_c, 5, 60, 104
7, 290396, Note_off_c, 5, 60, 80
7, 290400, Note_on_c, 5, 58, 104
7, 290636, Note_off_c, 5, 58, 80
7, 290640, Note_on_c, 5, 58, 104
7, 291596, Note_off_c, 5, 58, 80
7, 291600, Note_on_c, 5, 63, 104
7, 291836, Note_off_c, 5, 63, 80
7, 291840, Note_on_c, 5, 65, 104
7, 292076, Note_off_c, 5, 65, 80
7, 292080, Note_on_c, 5, 65, 104
7, 292316, Note_off_c, 5, 65, 80
7, 292320, Note_on_c, 5, 65, 104
7, 292556, Note_off_c, 5, 65, 80
7, 292560, Note_on_c, 5, 65, 104
7, 292796, Note_off_c, 5, 65, 80
7, 292800, Note_on_c, 5, 65, 104
7, 293276, Note_off_c, 5, 65, 80
7, 293280, Note_on_c, 5, 63, 104
7, 293756, Note_off_c, 5, 63, 80
7, 293760, Note_on_c, 5, 65, 104
7, 294956, Note_off_c, 5, 65, 80
7, 294960, Note_on_c, 5, 63, 104
7, 295196, Note_off_c, 5, 63, 80
7, 295200, Note_on_c, 5, 63, 104
7, 296156, Note_off_c, 5, 63, 80
7, 296640, Note_on_c, 5, 68, 104
7, 296996, Note_off_c, 5, 68, 80
7, 297000, Note_on_c, 5, 65, 104
7, 297356, Note_off_c, 5, 65, 80
7, 297360, Note_on_c, 5, 63, 104
7, 297596, Note_off_c, 5, 63, 80
7, 297600, Note_on_c, 5, 60, 104
7, 298076, Note_off_c, 5, 60, 80
7, 298080, Note_on_c, 5, 58, 104
7, 298316, Note_off_c, 5, 58, 80
7, 298320, Note_on_c, 5, 58, 104
7, 299276, Note_off_c, 5, 58, 80
7, 299280, Note_on_c, 5, 63, 104
7, 299516, Note_off_c, 5, 63, 80
7, 299520, Note_on_c, 5, 65, 104
7, 299756, Note_off_c, 5, 65, 80
7, 299760, Note_on_c, 5, 65, 104
7, 299996, Note_off_c, 5, 65, 80
7, 300000, Note_on_c, 5, 65, 104
7, 300236, Note_off_c, 5, 65, 80
7, 300240, Note_on_c, 5, 65, 104
7, 300476, Note_off_c, 5, 65, 80
7, 300480, Note_on_c, 5, 65, 104
7, 300956, Note_off_c, 5, 65, 80
7, 300960, Note_on_c, 5, 63, 104
7, 301436, Note_off_c, 5, 63, 80
7, 301440, Note_on_c, 5, 72, 104
7, 303356, Note_off_c, 5, 72, 80
7, 305280, Note_on_c, 5, 72, 104
7, 307196, Note_off_c, 5, 72, 80
7, 309120, Note_on_c, 5, 72, 104
7, 311036, Note_off_c, 5, 72, 80
7, 312960, Note_on_c, 5, 72, 104
7, 314876, Note_off_c, 5, 72, 80
7, 316800, Note_on_c, 5, 72, 104
7, 318716, Note_off_c, 5, 72, 80
7, 320640, Note_on_c, 5, 72, 104
7, 322556, Note_off_c, 5, 72, 80
7, 324480, Note_on_c, 5, 72, 104
7, 326396, Note_off_c, 5, 72, 80
7, 328320, Note_on_c, 5, 72, 104
7, 330236, Note_off_c, 5, 72, 80
7, 340080, Control_c, 5, 7, 65
7, 340560, Control_c, 5, 7, 66
7, 341040, Control_c, 5, 7, 67
7, 341520, Control_c, 5, 7, 68
7, 342000, Control_c, 5, 7, 69
7, 342480, Control_c, 5, 7, 70
7, 342960, Control_c, 5, 7, 71
7, 343440, Control_c, 5, 7, 72
7, 343920, Control_c, 5, 7, 73
7, 344400, Control_c, 5, 7, 74
7, 344880, Control_c, 5, 7, 75
7, 345360, Control_c, 5, 7, 76
7, 345840, Control_c, 5, 7, 77
7, 346320, Control_c, 5, 7, 78
7, 346800, Control_c, 5, 7, 79
7, 347280, Control_c, 5, 7, 80
7, 347520, Control_c, 5, 7, 79
7, 347640, Control_c, 5, 7, 78
7, 347760, Control_c, 5, 7, 77
7, 347880, Control_c, 5, 7, 76
7, 348000, Control_c, 5, 7, 75
7, 348120, Control_c, 5, 7, 74
7, 348240, Control_c, 5, 7, 73
7, 348360, Control_c, 5, 7, 72
7, 348480, Control_c, 5, 7, 71
7, 348600, Control_c, 5, 7, 70
7, 348720, Control_c, 5, 7, 69
7, 348840, Control_c, 5, 7, 68
7, 348960, Control_c, 5, 7, 67
7, 349080, Control_c, 5, 7, 66
7, 349200, Control_c, 5, 7, 65
7, 349320, Control_c, 5, 7, 64
7, 349440, Control_c, 5, 7, 63
7, 349560, Control_c, 5, 7, 62
7, 349680, Control_c, 5, 7, 61
7, 349800, Control_c, 5, 7, 60
7, 349920, Control_c, 5, 7, 59
7, 350040, Control_c, 5, 7, 58
7, 350160, Control_c, 5, 7, 57
7, 350280, Control_c, 5, 7, 56
7, 350400, Control_c, 5, 7, 55
7, 350520, Control_c, 5, 7, 54
7, 350640, Control_c, 5, 7, 53
7, 350760, Control_c, 5, 7, 52
7, 350880, Control_c, 5, 7, 51
7, 351000, Control_c, 5, 7, 50
7, 351120, Control_c, 5, 7, 49
7, 351240, Control_c, 5, 7, 48
7, 351480, Control_c, 5, 7, 47
7, 351600, Control_c, 5, 7, 46
7, 351720, Control_c, 5, 7, 45
7, 351840, Control_c, 5, 7, 44
7, 351960, Control_c, 5, 7, 43
7, 352080, Control_c, 5, 7, 42
7, 352200, Control_c, 5, 7, 41
7, 352320, Control_c, 5, 7, 40
7, 352440, Control_c, 5, 7, 39
7, 352560, Control_c, 5, 7, 38
7, 352680, Control_c, 5, 7, 37
7, 352800, Control_c, 5, 7, 36
7, 352920, Control_c, 5, 7, 35
7, 353040, Control_c, 5, 7, 34
7, 353160, Control_c, 5, 7, 33
7, 353280, Control_c, 5, 7, 32
7, 353400, Control_c, 5, 7, 31
7, 353520, Control_c, 5, 7, 30
7, 353640, Control_c, 5, 7, 29
7, 353760, Control_c, 5, 7, 28
7, 353880, Control_c, 5, 7, 27
7, 354000, Control_c, 5, 7, 26
7, 354120, Control_c, 5, 7, 25
7, 354240, Control_c, 5, 7, 24
7, 354360, Control_c, 5, 7, 23
7, 354480, Control_c, 5, 7, 22
7, 354600, Control_c, 5, 7, 21
7, 354720, Control_c, 5, 7, 20
7, 354840, Control_c, 5, 7, 19
7, 354960, Control_c, 5, 7, 18
7, 355080, Control_c, 5, 7, 17
7, 355200, Control_c, 5, 7, 16
7, 355200, Control_c, 5, 7, 15
7, 355320, Control_c, 5, 7, 14
7, 355440, Control_c, 5, 7, 13
7, 355560, Control_c, 5, 7, 12
7, 355680, Control_c, 5, 7, 11
7, 355800, Control_c, 5, 7, 10
7, 355920, Control_c, 5, 7, 9
7, 356040, Control_c, 5, 7, 8
7, 356280, Control_c, 5, 7, 7
7, 356400, Control_c, 5, 7, 6
7, 356520, Control_c, 5, 7, 5
7, 356640, Control_c, 5, 7, 4
7, 356760, Control_c, 5, 7, 3
7, 356880, Control_c, 5, 7, 2
7, 357000, Control_c, 5, 7, 1
7, 357000, End_track
8, 0, Start_track
8, 0, Title_t, "Bkg Vocals"
8, 420, Control_c, 6, 121, 0
8, 420, Control_c, 6, 123, 0
8, 420, Control_c, 6, 100, 0
8, 420, Control_c, 6, 38, 0
8, 420, Control_c, 6, 101, 0
8, 420, Control_c, 6, 6, 12
8, 420, Pitch_bend_c, 6, 8192
8, 480, Program_c, 6, 41
8, 480, Control_c, 6, 7, 80
8, 480, Control_c, 6, 10, 80
8, 55680, Note_on_c, 6, 56, 95
8, 55680, Note_on_c, 6, 61, 95
8, 57116, Note_off_c, 6, 56, 80
8, 57116, Note_off_c, 6, 61, 80
8, 57120, Note_on_c, 6, 58, 95
8, 57120, Note_on_c, 6, 63, 95
8, 57356, Note_off_c, 6, 58, 80
8, 57356, Note_off_c, 6, 63, 80
8, 57360, Note_on_c, 6, 56, 95
8, 57360, Note_on_c, 6, 61, 95
8, 59036, Note_off_c, 6, 56, 80
8, 59036, Note_off_c, 6, 61, 80
8, 59040, Note_on_c, 6, 58, 95
8, 59040, Note_on_c, 6, 63, 95
8, 59276, Note_off_c, 6, 58, 80
8, 59276, Note_off_c, 6, 63, 80
8, 59280, Note_on_c, 6, 56, 95
8, 59280, Note_on_c, 6, 61, 95
8, 60956, Note_off_c, 6, 56, 80
8, 60956, Note_off_c, 6, 61, 80
8, 60960, Note_on_c, 6, 58, 95
8, 60960, Note_on_c, 6, 63, 95
8, 61196, Note_off_c, 6, 58, 80
8, 61196, Note_off_c, 6, 63, 80
8, 61200, Note_on_c, 6, 56, 95
8, 61200, Note_on_c, 6, 60, 95
8, 62876, Note_off_c, 6, 56, 80
8, 62876, Note_off_c, 6, 60, 80
8, 63360, Note_on_c, 6, 55, 95
8, 63360, Note_on_c, 6, 58, 95
8, 63836, Note_off_c, 6, 55, 80
8, 63836, Note_off_c, 6, 58, 80
8, 63840, Note_on_c, 6, 55, 95
8, 63840, Note_on_c, 6, 58, 95
8, 64076, Note_off_c, 6, 55, 80
8, 64076, Note_off_c, 6, 58, 80
8, 64080, Note_on_c, 6, 55, 95
8, 64080, Note_on_c, 6, 58, 95
8, 64316, Note_off_c, 6, 55, 80
8, 64316, Note_off_c, 6, 58, 80
8, 64320, Note_on_c, 6, 55, 95
8, 64320, Note_on_c, 6, 58, 95
8, 64556, Note_off_c, 6, 55, 80
8, 64556, Note_off_c, 6, 58, 80
8, 64560, Note_on_c, 6, 55, 95
8, 64560, Note_on_c, 6, 58, 95
8, 64796, Note_off_c, 6, 55, 80
8, 64796, Note_off_c, 6, 58, 80
8, 64800, Note_on_c, 6, 55, 95
8, 64800, Note_on_c, 6, 58, 95
8, 65036, Note_off_c, 6, 55, 80
8, 65036, Note_off_c, 6, 58, 80
8, 65040, Note_on_c, 6, 56, 95
8, 65040, Note_on_c, 6, 60, 95
8, 65516, Note_off_c, 6, 56, 80
8, 65516, Note_off_c, 6, 60, 80
8, 65520, Note_on_c, 6, 55, 95
8, 65520, Note_on_c, 6, 58, 95
8, 65756, Note_off_c, 6, 55, 80
8, 65756, Note_off_c, 6, 58, 80
8, 65760, Note_on_c, 6, 53, 95
8, 65760, Note_on_c, 6, 56, 95
8, 65996, Note_off_c, 6, 53, 80
8, 65996, Note_off_c, 6, 56, 80
8, 66000, Note_on_c, 6, 51, 95
8, 66000, Note_on_c, 6, 55, 95
8, 66476, Note_off_c, 6, 51, 80
8, 66476, Note_off_c, 6, 55, 80
8, 68640, Note_on_c, 6, 49, 95
8, 68640, Note_on_c, 6, 66, 95
8, 68876, Note_off_c, 6, 49, 80
8, 68876, Note_off_c, 6, 66, 80
8, 68880, Note_on_c, 6, 49, 95
8, 68880, Note_on_c, 6, 66, 95
8, 69116, Note_off_c, 6, 49, 80
8, 69116, Note_off_c, 6, 66, 80
8, 69120, Note_on_c, 6, 49, 95
8, 69120, Note_on_c, 6, 66, 95
8, 69596, Note_off_c, 6, 49, 80
8, 69596, Note_off_c, 6, 66, 80
8, 69600, Note_on_c, 6, 51, 95
8, 69600, Note_on_c, 6, 68, 95
8, 70076, Note_off_c, 6, 51, 80
8, 70076, Note_off_c, 6, 68, 80
8, 70080, Note_on_c, 6, 49, 95
8, 70080, Note_on_c, 6, 66, 95
8, 70556, Note_off_c, 6, 49, 80
8, 70556, Note_off_c, 6, 66, 80
8, 71040, Note_on_c, 6, 56, 95
8, 71040, Note_on_c, 6, 61, 95
8, 72956, Note_off_c, 6, 56, 80
8, 72956, Note_off_c, 6, 61, 80
8, 72960, Note_on_c, 6, 56, 95
8, 72960, Note_on_c, 6, 60, 95
8, 73916, Note_off_c, 6, 56, 80
8, 73916, Note_off_c, 6, 60, 80
8, 73920, Note_on_c, 6, 56, 95
8, 73920, Note_on_c, 6, 60, 95
8, 74156, Note_off_c, 6, 56, 80
8, 74156, Note_off_c, 6, 60, 80
8, 74160, Note_on_c, 6, 56, 95
8, 74160, Note_on_c, 6, 61, 95
8, 74396, Note_off_c, 6, 56, 80
8, 74396, Note_off_c, 6, 61, 80
8, 74400, Note_on_c, 6, 56, 95
8, 74400, Note_on_c, 6, 60, 95
8, 74876, Note_off_c, 6, 56, 80
8, 74876, Note_off_c, 6, 60, 80
8, 74880, Note_on_c, 6, 55, 95
8, 74880, Note_on_c, 6, 58, 95
8, 76796, Note_off_c, 6, 55, 80
8, 76796, Note_off_c, 6, 58, 80
8, 78720, Note_on_c, 6, 56, 95
8, 78720, Note_on_c, 6, 60, 95
8, 79196, Note_off_c, 6, 56, 80
8, 79196, Note_off_c, 6, 60, 80
8, 79440, Note_on_c, 6, 56, 95
8, 79440, Note_on_c, 6, 60, 95
8, 79916, Note_off_c, 6, 56, 80
8, 79916, Note_off_c, 6, 60, 80
8, 80640, Note_on_c, 6, 56, 95
8, 80640, Note_on_c, 6, 60, 95
8, 81116, Note_off_c, 6, 56, 80
8, 81116, Note_off_c, 6, 60, 80
8, 81360, Note_on_c, 6, 56, 95
8, 81360, Note_on_c, 6, 60, 95
8, 81836, Note_off_c, 6, 56, 80
8, 81836, Note_off_c, 6, 60, 80
8, 82560, Note_on_c, 6, 56, 95
8, 82560, Note_on_c, 6, 61, 95
8, 83996, Note_off_c, 6, 56, 80
8, 83996, Note_off_c, 6, 61, 80
8, 84000, Note_on_c, 6, 58, 95
8, 84000, Note_on_c, 6, 63, 95
8, 84476, Note_off_c, 6, 58, 80
8, 84476, Note_off_c, 6, 63, 80
8, 84480, Note_on_c, 6, 56, 95
8, 84480, Note_on_c, 6, 61, 95
8, 86396, Note_off_c, 6, 56, 80
8, 86396, Note_off_c, 6, 61, 80
8, 86400, Note_on_c, 6, 56, 95
8, 86400, Note_on_c, 6, 60, 95
8, 86876, Note_off_c, 6, 56, 80
8, 86876, Note_off_c, 6, 60, 80
8, 87120, Note_on_c, 6, 56, 95
8, 87120, Note_on_c, 6, 60, 95
8, 87596, Note_off_c, 6, 56, 80
8, 87596, Note_off_c, 6, 60, 80
8, 88320, Note_on_c, 6, 56, 95
8, 88320, Note_on_c, 6, 60, 95
8, 88796, Note_off_c, 6, 56, 80
8, 88796, Note_off_c, 6, 60, 80
8, 89040, Note_on_c, 6, 56, 95
8, 89040, Note_on_c, 6, 60, 95
8, 89516, Note_off_c, 6, 56, 80
8, 89516, Note_off_c, 6, 60, 80
8, 90240, Note_on_c, 6, 56, 95
8, 90240, Note_on_c, 6, 61, 95
8, 91676, Note_off_c, 6, 56, 80
8, 91676, Note_off_c, 6, 61, 80
8, 91680, Note_on_c, 6, 58, 95
8, 91680, Note_on_c, 6, 63, 95
8, 92156, Note_off_c, 6, 58, 80
8, 92156, Note_off_c, 6, 63, 80
8, 92160, Note_on_c, 6, 56, 95
8, 92160, Note_on_c, 6, 61, 95
8, 94076, Note_off_c, 6, 56, 80
8, 94076, Note_off_c, 6, 61, 80
8, 98400, Note_on_c, 6, 56, 95
8, 98400, Note_on_c, 6, 61, 95
8, 98636, Note_off_c, 6, 56, 80
8, 98636, Note_off_c, 6, 61, 80
8, 98640, Note_on_c, 6, 56, 95
8, 98640, Note_on_c, 6, 61, 95
8, 98876, Note_off_c, 6, 56, 80
8, 98876, Note_off_c, 6, 61, 80
8, 98880, Note_on_c, 6, 56, 95
8, 98880, Note_on_c, 6, 61, 95
8, 99356, Note_off_c, 6, 56, 80
8, 99356, Note_off_c, 6, 61, 80
8, 99360, Note_on_c, 6, 56, 95
8, 99360, Note_on_c, 6, 61, 95
8, 99596, Note_off_c, 6, 56, 80
8, 99596, Note_off_c, 6, 61, 80
8, 99600, Note_on_c, 6, 56, 95
8, 99600, Note_on_c, 6, 61, 95
8, 99836, Note_off_c, 6, 56, 80
8, 99836, Note_off_c, 6, 61, 80
8, 99840, Note_on_c, 6, 56, 95
8, 99840, Note_on_c, 6, 61, 95
8, 100076, Note_off_c, 6, 56, 80
8, 100076, Note_off_c, 6, 61, 80
8, 100080, Note_on_c, 6, 58, 95
8, 100080, Note_on_c, 6, 63, 95
8, 100556, Note_off_c, 6, 58, 80
8, 100556, Note_off_c, 6, 63, 80
8, 100560, Note_on_c, 6, 56, 95
8, 100560, Note_on_c, 6, 61, 95
8, 100796, Note_off_c, 6, 56, 80
8, 100796, Note_off_c, 6, 61, 80
8, 100800, Note_on_c, 6, 56, 95
8, 100800, Note_on_c, 6, 61, 95
8, 101276, Note_off_c, 6, 56, 80
8, 101276, Note_off_c, 6, 61, 80
8, 106080, Note_on_c, 6, 56, 95
8, 106080, Note_on_c, 6, 61, 95
8, 106316, Note_off_c, 6, 56, 80
8, 106316, Note_off_c, 6, 61, 80
8, 106320, Note_on_c, 6, 56, 95
8, 106320, Note_on_c, 6, 61, 95
8, 106556, Note_off_c, 6, 56, 80
8, 106556, Note_off_c, 6, 61, 80
8, 106560, Note_on_c, 6, 56, 95
8, 106560, Note_on_c, 6, 61, 95
8, 107036, Note_off_c, 6, 56, 80
8, 107036, Note_off_c, 6, 61, 80
8, 107040, Note_on_c, 6, 56, 95
8, 107040, Note_on_c, 6, 61, 95
8, 107276, Note_off_c, 6, 56, 80
8, 107276, Note_off_c, 6, 61, 80
8, 107280, Note_on_c, 6, 56, 95
8, 107280, Note_on_c, 6, 61, 95
8, 107516, Note_off_c, 6, 56, 80
8, 107516, Note_off_c, 6, 61, 80
8, 107520, Note_on_c, 6, 56, 95
8, 107520, Note_on_c, 6, 61, 95
8, 107756, Note_off_c, 6, 56, 80
8, 107756, Note_off_c, 6, 61, 80
8, 107760, Note_on_c, 6, 58, 95
8, 107760, Note_on_c, 6, 63, 95
8, 108236, Note_off_c, 6, 58, 80
8, 108236, Note_off_c, 6, 63, 80
8, 108240, Note_on_c, 6, 56, 95
8, 108240, Note_on_c, 6, 61, 95
8, 108476, Note_off_c, 6, 56, 80
8, 108476, Note_off_c, 6, 61, 80
8, 108480, Note_on_c, 6, 56, 95
8, 108480, Note_on_c, 6, 61, 95
8, 108956, Note_off_c, 6, 56, 80
8, 108956, Note_off_c, 6, 61, 80
8, 117120, Note_on_c, 6, 56, 95
8, 117120, Note_on_c, 6, 61, 95
8, 118556, Note_off_c, 6, 56, 80
8, 118556, Note_off_c, 6, 61, 80
8, 118560, Note_on_c, 6, 58, 95
8, 118560, Note_on_c, 6, 63, 95
8, 118796, Note_off_c, 6, 58, 80
8, 118796, Note_off_c, 6, 63, 80
8, 118800, Note_on_c, 6, 56, 95
8, 118800, Note_on_c, 6, 61, 95
8, 120476, Note_off_c, 6, 56, 80
8, 120476, Note_off_c, 6, 61, 80
8, 120480, Note_on_c, 6, 58, 95
8, 120480, Note_on_c, 6, 63, 95
8, 120716, Note_off_c, 6, 58, 80
8, 120716, Note_off_c, 6, 63, 80
8, 120720, Note_on_c, 6, 56, 95
8, 120720, Note_on_c, 6, 61, 95
8, 122396, Note_off_c, 6, 56, 80
8, 122396, Note_off_c, 6, 61, 80
8, 122400, Note_on_c, 6, 58, 95
8, 122400, Note_on_c, 6, 63, 95
8, 122636, Note_off_c, 6, 58, 80
8, 122636, Note_off_c, 6, 63, 80
8, 122640, Note_on_c, 6, 56, 95
8, 122640, Note_on_c, 6, 60, 95
8, 123836, Note_off_c, 6, 56, 80
8, 123836, Note_off_c, 6, 60, 80
8, 124080, Note_on_c, 6, 56, 95
8, 124080, Note_on_c, 6, 68, 95
8, 124316, Note_off_c, 6, 56, 80
8, 124316, Note_off_c, 6, 68, 80
8, 124320, Note_on_c, 6, 55, 95
8, 124320, Note_on_c, 6, 67, 95
8, 124556, Note_off_c, 6, 55, 80
8, 124556, Note_off_c, 6, 67, 80
8, 124560, Note_on_c, 6, 58, 95
8, 124560, Note_on_c, 6, 70, 95
8, 125036, Note_off_c, 6, 58, 80
8, 125036, Note_off_c, 6, 70, 80
8, 125040, Note_on_c, 6, 56, 95
8, 125040, Note_on_c, 6, 68, 95
8, 125276, Note_off_c, 6, 56, 80
8, 125276, Note_off_c, 6, 68, 80
8, 125280, Note_on_c, 6, 55, 95
8, 125280, Note_on_c, 6, 67, 95
8, 125516, Note_off_c, 6, 55, 80
8, 125516, Note_off_c, 6, 67, 80
8, 125520, Note_on_c, 6, 51, 95
8, 125520, Note_on_c, 6, 63, 95
8, 126476, Note_off_c, 6, 51, 80
8, 126476, Note_off_c, 6, 63, 80
8, 138720, Note_on_c, 6, 65, 95
8, 138720, Note_on_c, 6, 68, 95
8, 138956, Note_off_c, 6, 65, 80
8, 138956, Note_off_c, 6, 68, 80
8, 138960, Note_on_c, 6, 63, 95
8, 138960, Note_on_c, 6, 67, 95
8, 139436, Note_off_c, 6, 63, 80
8, 139436, Note_off_c, 6, 67, 80
8, 140160, Note_on_c, 6, 61, 95
8, 140160, Note_on_c, 6, 65, 95
8, 140396, Note_off_c, 6, 61, 80
8, 140396, Note_off_c, 6, 65, 80
8, 140400, Note_on_c, 6, 61, 95
8, 140400, Note_on_c, 6, 65, 95
8, 140636, Note_off_c, 6, 61, 80
8, 140636, Note_off_c, 6, 65, 80
8, 140640, Note_on_c, 6, 61, 95
8, 140640, Note_on_c, 6, 65, 95
8, 140876, Note_off_c, 6, 61, 80
8, 140876, Note_off_c, 6, 65, 80
8, 140880, Note_on_c, 6, 60, 95
8, 140880, Note_on_c, 6, 63, 95
8, 141356, Note_off_c, 6, 60, 80
8, 141356, Note_off_c, 6, 63, 80
8, 141360, Note_on_c, 6, 58, 95
8, 141360, Note_on_c, 6, 61, 95
8, 141596, Note_off_c, 6, 58, 80
8, 141596, Note_off_c, 6, 61, 80
8, 141600, Note_on_c, 6, 56, 95
8, 141600, Note_on_c, 6, 60, 95
8, 142076, Note_off_c, 6, 56, 80
8, 142076, Note_off_c, 6, 60, 80
8, 142080, Note_on_c, 6, 58, 95
8, 142080, Note_on_c, 6, 61, 95
8, 142316, Note_off_c, 6, 58, 80
8, 142316, Note_off_c, 6, 61, 80
8, 142320, Note_on_c, 6, 58, 95
8, 142320, Note_on_c, 6, 61, 95
8, 142556, Note_off_c, 6, 58, 80
8, 142556, Note_off_c, 6, 61, 80
8, 142560, Note_on_c, 6, 58, 95
8, 142560, Note_on_c, 6, 61, 95
8, 142796, Note_off_c, 6, 58, 80
8, 142796, Note_off_c, 6, 61, 80
8, 142800, Note_on_c, 6, 58, 95
8, 142800, Note_on_c, 6, 61, 95
8, 143036, Note_off_c, 6, 58, 80
8, 143036, Note_off_c, 6, 61, 80
8, 143040, Note_on_c, 6, 56, 95
8, 143040, Note_on_c, 6, 60, 95
8, 143276, Note_off_c, 6, 56, 80
8, 143276, Note_off_c, 6, 60, 80
8, 143280, Note_on_c, 6, 56, 95
8, 143280, Note_on_c, 6, 60, 95
8, 143516, Note_off_c, 6, 56, 80
8, 143516, Note_off_c, 6, 60, 80
8, 143520, Note_on_c, 6, 56, 95
8, 143520, Note_on_c, 6, 60, 95
8, 143756, Note_off_c, 6, 56, 80
8, 143756, Note_off_c, 6, 60, 80
8, 143760, Note_on_c, 6, 56, 95
8, 143760, Note_on_c, 6, 60, 95
8, 143996, Note_off_c, 6, 56, 80
8, 143996, Note_off_c, 6, 60, 80
8, 144000, Note_on_c, 6, 61, 95
8, 144000, Note_on_c, 6, 65, 95
8, 144236, Note_off_c, 6, 61, 80
8, 144236, Note_off_c, 6, 65, 80
8, 144240, Note_on_c, 6, 61, 95
8, 144240, Note_on_c, 6, 65, 95
8, 144716, Note_off_c, 6, 61, 80
8, 144716, Note_off_c, 6, 65, 80
8, 144720, Note_on_c, 6, 60, 95
8, 144720, Note_on_c, 6, 63, 95
8, 145196, Note_off_c, 6, 60, 80
8, 145196, Note_off_c, 6, 63, 80
8, 145200, Note_on_c, 6, 58, 95
8, 145200, Note_on_c, 6, 61, 95
8, 145436, Note_off_c, 6, 58, 80
8, 145436, Note_off_c, 6, 61, 80
8, 145440, Note_on_c, 6, 56, 95
8, 145440, Note_on_c, 6, 60, 95
8, 145916, Note_off_c, 6, 56, 80
8, 145916, Note_off_c, 6, 60, 80
8, 145920, Note_on_c, 6, 58, 95
8, 145920, Note_on_c, 6, 61, 95
8, 146156, Note_off_c, 6, 58, 80
8, 146156, Note_off_c, 6, 61, 80
8, 146160, Note_on_c, 6, 58, 95
8, 146160, Note_on_c, 6, 61, 95
8, 146396, Note_off_c, 6, 58, 80
8, 146396, Note_off_c, 6, 61, 80
8, 146400, Note_on_c, 6, 58, 95
8, 146400, Note_on_c, 6, 61, 95
8, 146636, Note_off_c, 6, 58, 80
8, 146636, Note_off_c, 6, 61, 80
8, 146640, Note_on_c, 6, 56, 95
8, 146640, Note_on_c, 6, 60, 95
8, 146876, Note_off_c, 6, 56, 80
8, 146876, Note_off_c, 6, 60, 80
8, 146880, Note_on_c, 6, 56, 95
8, 146880, Note_on_c, 6, 60, 95
8, 147836, Note_off_c, 6, 56, 80
8, 147836, Note_off_c, 6, 60, 80
8, 159360, Note_on_c, 6, 60, 95
8, 159360, Note_on_c, 6, 68, 95
8, 160316, Note_off_c, 6, 60, 80
8, 160316, Note_off_c, 6, 68, 80
8, 160320, Note_on_c, 6, 60, 95
8, 160320, Note_on_c, 6, 68, 95
8, 161036, Note_off_c, 6, 60, 80
8, 161036, Note_off_c, 6, 68, 80
8, 161040, Note_on_c, 6, 60, 95
8, 161040, Note_on_c, 6, 68, 95
8, 161276, Note_off_c, 6, 60, 80
8, 161276, Note_off_c, 6, 68, 80
8, 161280, Note_on_c, 6, 60, 95
8, 161280, Note_on_c, 6, 68, 95
8, 161516, Note_off_c, 6, 60, 80
8, 161516, Note_off_c, 6, 68, 80
8, 161520, Note_on_c, 6, 60, 95
8, 161520, Note_on_c, 6, 68, 95
8, 161756, Note_off_c, 6, 60, 80
8, 161756, Note_off_c, 6, 68, 80
8, 161760, Note_on_c, 6, 60, 95
8, 161760, Note_on_c, 6, 68, 95
8, 161996, Note_off_c, 6, 60, 80
8, 161996, Note_off_c, 6, 68, 80
8, 162000, Note_on_c, 6, 60, 95
8, 162000, Note_on_c, 6, 68, 95
8, 162236, Note_off_c, 6, 60, 80
8, 162236, Note_off_c, 6, 68, 80
8, 162240, Note_on_c, 6, 60, 95
8, 162240, Note_on_c, 6, 68, 95
8, 162716, Note_off_c, 6, 60, 80
8, 162716, Note_off_c, 6, 68, 80
8, 162720, Note_on_c, 6, 60, 95
8, 162720, Note_on_c, 6, 68, 95
8, 163196, Note_off_c, 6, 60, 80
8, 163196, Note_off_c, 6, 68, 80
8, 163200, Note_on_c, 6, 63, 95
8, 163200, Note_on_c, 6, 68, 95
8, 163916, Note_off_c, 6, 63, 80
8, 163916, Note_off_c, 6, 68, 80
8, 163920, Note_on_c, 6, 61, 95
8, 163920, Note_on_c, 6, 65, 95
8, 164156, Note_off_c, 6, 61, 80
8, 164156, Note_off_c, 6, 65, 80
8, 164160, Note_on_c, 6, 61, 95
8, 164160, Note_on_c, 6, 65, 95
8, 167036, Note_off_c, 6, 61, 80
8, 167036, Note_off_c, 6, 65, 80
8, 167040, Note_on_c, 6, 60, 95
8, 167040, Note_on_c, 6, 68, 95
8, 167996, Note_off_c, 6, 60, 80
8, 167996, Note_off_c, 6, 68, 80
8, 168000, Note_on_c, 6, 60, 95
8, 168000, Note_on_c, 6, 68, 95
8, 168716, Note_off_c, 6, 60, 80
8, 168716, Note_off_c, 6, 68, 80
8, 168720, Note_on_c, 6, 60, 95
8, 168720, Note_on_c, 6, 68, 95
8, 168956, Note_off_c, 6, 60, 80
8, 168956, Note_off_c, 6, 68, 80
8, 168960, Note_on_c, 6, 60, 95
8, 168960, Note_on_c, 6, 68, 95
8, 169196, Note_off_c, 6, 60, 80
8, 169196, Note_off_c, 6, 68, 80
8, 169200, Note_on_c, 6, 60, 95
8, 169200, Note_on_c, 6, 68, 95
8, 169436, Note_off_c, 6, 60, 80
8, 169436, Note_off_c, 6, 68, 80
8, 169440, Note_on_c, 6, 60, 95
8, 169440, Note_on_c, 6, 68, 95
8, 169676, Note_off_c, 6, 60, 80
8, 169676, Note_off_c, 6, 68, 80
8, 169680, Note_on_c, 6, 60, 95
8, 169680, Note_on_c, 6, 68, 95
8, 169916, Note_off_c, 6, 60, 80
8, 169916, Note_off_c, 6, 68, 80
8, 169920, Note_on_c, 6, 60, 95
8, 169920, Note_on_c, 6, 68, 95
8, 170396, Note_off_c, 6, 60, 80
8, 170396, Note_off_c, 6, 68, 80
8, 170400, Note_on_c, 6, 60, 95
8, 170400, Note_on_c, 6, 68, 95
8, 170876, Note_off_c, 6, 60, 80
8, 170876, Note_off_c, 6, 68, 80
8, 170880, Note_on_c, 6, 63, 95
8, 170880, Note_on_c, 6, 68, 95
8, 171596, Note_off_c, 6, 63, 80
8, 171596, Note_off_c, 6, 68, 80
8, 171600, Note_on_c, 6, 61, 95
8, 171600, Note_on_c, 6, 65, 95
8, 171836, Note_off_c, 6, 61, 80
8, 171836, Note_off_c, 6, 65, 80
8, 171840, Note_on_c, 6, 61, 95
8, 171840, Note_on_c, 6, 65, 95
8, 174716, Note_off_c, 6, 61, 80
8, 174716, Note_off_c, 6, 65, 80
8, 190080, Note_on_c, 6, 56, 95
8, 190556, Note_off_c, 6, 56, 80
8, 190560, Note_on_c, 6, 58, 95
8, 190796, Note_off_c, 6, 58, 80
8, 190800, Note_on_c, 6, 56, 95
8, 191036, Note_off_c, 6, 56, 80
8, 191280, Note_on_c, 6, 63, 95
8, 191516, Note_off_c, 6, 63, 80
8, 192000, Note_on_c, 6, 56, 95
8, 192476, Note_off_c, 6, 56, 80
8, 192480, Note_on_c, 6, 58, 95
8, 192716, Note_off_c, 6, 58, 80
8, 192720, Note_on_c, 6, 56, 95
8, 192956, Note_off_c, 6, 56, 80
8, 193200, Note_on_c, 6, 63, 95
8, 193436, Note_off_c, 6, 63, 80
8, 193920, Note_on_c, 6, 56, 95
8, 194396, Note_off_c, 6, 56, 80
8, 194400, Note_on_c, 6, 58, 95
8, 194636, Note_off_c, 6, 58, 80
8, 194640, Note_on_c, 6, 56, 95
8, 194876, Note_off_c, 6, 56, 80
8, 195120, Note_on_c, 6, 63, 95
8, 195356, Note_off_c, 6, 63, 80
8, 195840, Note_on_c, 6, 56, 95
8, 196316, Note_off_c, 6, 56, 80
8, 196320, Note_on_c, 6, 58, 95
8, 196556, Note_off_c, 6, 58, 80
8, 196560, Note_on_c, 6, 56, 95
8, 196796, Note_off_c, 6, 56, 80
8, 197040, Note_on_c, 6, 63, 95
8, 197276, Note_off_c, 6, 63, 80
8, 197760, Note_on_c, 6, 56, 95
8, 198236, Note_off_c, 6, 56, 80
8, 198240, Note_on_c, 6, 58, 95
8, 198476, Note_off_c, 6, 58, 80
8, 198480, Note_on_c, 6, 56, 95
8, 198716, Note_off_c, 6, 56, 80
8, 198960, Note_on_c, 6, 63, 95
8, 199196, Note_off_c, 6, 63, 80
8, 199680, Note_on_c, 6, 56, 95
8, 200156, Note_off_c, 6, 56, 80
8, 200160, Note_on_c, 6, 58, 95
8, 200396, Note_off_c, 6, 58, 80
8, 200400, Note_on_c, 6, 56, 95
8, 200636, Note_off_c, 6, 56, 80
8, 200880, Note_on_c, 6, 63, 95
8, 201116, Note_off_c, 6, 63, 80
8, 201600, Note_on_c, 6, 56, 95
8, 202076, Note_off_c, 6, 56, 80
8, 202080, Note_on_c, 6, 58, 95
8, 202316, Note_off_c, 6, 58, 80
8, 202320, Note_on_c, 6, 56, 95
8, 202556, Note_off_c, 6, 56, 80
8, 202800, Note_on_c, 6, 63, 95
8, 203036, Note_off_c, 6, 63, 80
8, 203520, Note_on_c, 6, 56, 95
8, 203996, Note_off_c, 6, 56, 80
8, 204000, Note_on_c, 6, 58, 95
8, 204236, Note_off_c, 6, 58, 80
8, 204240, Note_on_c, 6, 56, 95
8, 204476, Note_off_c, 6, 56, 80
8, 204720, Note_on_c, 6, 63, 95
8, 204956, Note_off_c, 6, 63, 80
8, 205440, Note_on_c, 6, 56, 95
8, 205440, Note_on_c, 6, 60, 95
8, 205676, Note_off_c, 6, 56, 80
8, 205676, Note_off_c, 6, 60, 80
8, 205680, Note_on_c, 6, 56, 95
8, 205680, Note_on_c, 6, 60, 95
8, 205916, Note_off_c, 6, 56, 80
8, 205916, Note_off_c, 6, 60, 80
8, 205920, Note_on_c, 6, 56, 95
8, 205920, Note_on_c, 6, 60, 95
8, 206156, Note_off_c, 6, 56, 80
8, 206156, Note_off_c, 6, 60, 80
8, 206160, Note_on_c, 6, 56, 95
8, 206160, Note_on_c, 6, 60, 95
8, 206396, Note_off_c, 6, 56, 80
8, 206396, Note_off_c, 6, 60, 80
8, 206880, Note_on_c, 6, 56, 95
8, 206880, Note_on_c, 6, 60, 95
8, 207116, Note_off_c, 6, 56, 80
8, 207116, Note_off_c, 6, 60, 80
8, 207120, Note_on_c, 6, 56, 95
8, 207120, Note_on_c, 6, 60, 95
8, 207356, Note_off_c, 6, 56, 80
8, 207356, Note_off_c, 6, 60, 80
8, 207360, Note_on_c, 6, 55, 95
8, 207360, Note_on_c, 6, 58, 95
8, 207596, Note_off_c, 6, 55, 80
8, 207596, Note_off_c, 6, 58, 80
8, 207840, Note_on_c, 6, 55, 95
8, 207840, Note_on_c, 6, 58, 95
8, 208076, Note_off_c, 6, 55, 80
8, 208076, Note_off_c, 6, 58, 80
8, 208080, Note_on_c, 6, 55, 95
8, 208080, Note_on_c, 6, 60, 95
8, 208316, Note_off_c, 6, 55, 80
8, 208316, Note_off_c, 6, 60, 80
8, 208320, Note_on_c, 6, 55, 95
8, 208320, Note_on_c, 6, 58, 95
8, 208556, Note_off_c, 6, 55, 80
8, 208556, Note_off_c, 6, 58, 80
8, 209280, Note_on_c, 6, 56, 95
8, 209280, Note_on_c, 6, 60, 95
8, 209516, Note_off_c, 6, 56, 80
8, 209516, Note_off_c, 6, 60, 80
8, 209520, Note_on_c, 6, 56, 95
8, 209520, Note_on_c, 6, 60, 95
8, 209756, Note_off_c, 6, 56, 80
8, 209756, Note_off_c, 6, 60, 80
8, 209760, Note_on_c, 6, 56, 95
8, 209760, Note_on_c, 6, 60, 95
8, 209996, Note_off_c, 6, 56, 80
8, 209996, Note_off_c, 6, 60, 80
8, 210000, Note_on_c, 6, 56, 95
8, 210000, Note_on_c, 6, 60, 95
8, 210236, Note_off_c, 6, 56, 80
8, 210236, Note_off_c, 6, 60, 80
8, 210480, Note_on_c, 6, 56, 95
8, 210480, Note_on_c, 6, 60, 95
8, 210716, Note_off_c, 6, 56, 80
8, 210716, Note_off_c, 6, 60, 80
8, 210720, Note_on_c, 6, 56, 95
8, 210720, Note_on_c, 6, 60, 95
8, 210956, Note_off_c, 6, 56, 80
8, 210956, Note_off_c, 6, 60, 80
8, 211200, Note_on_c, 6, 56, 95
8, 211200, Note_on_c, 6, 61, 95
8, 211436, Note_off_c, 6, 56, 80
8, 211436, Note_off_c, 6, 61, 80
8, 211680, Note_on_c, 6, 56, 95
8, 211680, Note_on_c, 6, 61, 95
8, 211916, Note_off_c, 6, 56, 80
8, 211916, Note_off_c, 6, 61, 80
8, 212160, Note_on_c, 6, 56, 95
8, 212160, Note_on_c, 6, 61, 95
8, 212396, Note_off_c, 6, 56, 80
8, 212396, Note_off_c, 6, 61, 80
8, 213120, Note_on_c, 6, 46, 95
8, 213120, Note_on_c, 6, 53, 95
8, 213356, Note_off_c, 6, 46, 80
8, 213356, Note_off_c, 6, 53, 80
8, 213360, Note_on_c, 6, 46, 95
8, 213360, Note_on_c, 6, 53, 95
8, 213596, Note_off_c, 6, 46, 80
8, 213596, Note_off_c, 6, 53, 80
8, 213600, Note_on_c, 6, 46, 95
8, 213600, Note_on_c, 6, 53, 95
8, 213836, Note_off_c, 6, 46, 80
8, 213836, Note_off_c, 6, 53, 80
8, 213840, Note_on_c, 6, 46, 95
8, 213840, Note_on_c, 6, 53, 95
8, 214076, Note_off_c, 6, 46, 80
8, 214076, Note_off_c, 6, 53, 80
8, 214320, Note_on_c, 6, 46, 95
8, 214320, Note_on_c, 6, 53, 95
8, 214556, Note_off_c, 6, 46, 80
8, 214556, Note_off_c, 6, 53, 80
8, 214560, Note_on_c, 6, 46, 95
8, 214560, Note_on_c, 6, 53, 95
8, 214796, Note_off_c, 6, 46, 80
8, 214796, Note_off_c, 6, 53, 80
8, 215040, Note_on_c, 6, 46, 95
8, 215040, Note_on_c, 6, 53, 95
8, 215276, Note_off_c, 6, 46, 80
8, 215276, Note_off_c, 6, 53, 80
8, 215520, Note_on_c, 6, 46, 95
8, 215520, Note_on_c, 6, 53, 95
8, 215756, Note_off_c, 6, 46, 80
8, 215756, Note_off_c, 6, 53, 80
8, 216000, Note_on_c, 6, 46, 95
8, 216000, Note_on_c, 6, 53, 95
8, 216236, Note_off_c, 6, 46, 80
8, 216236, Note_off_c, 6, 53, 80
8, 216960, Note_on_c, 6, 53, 95
8, 216960, Note_on_c, 6, 58, 95
8, 220796, Note_off_c, 6, 53, 80
8, 220796, Note_off_c, 6, 58, 80
8, 220800, Note_on_c, 6, 60, 95
8, 220800, Note_on_c, 6, 68, 95
8, 221756, Note_off_c, 6, 60, 80
8, 221756, Note_off_c, 6, 68, 80
8, 221760, Note_on_c, 6, 60, 95
8, 221760, Note_on_c, 6, 68, 95
8, 222476, Note_off_c, 6, 60, 80
8, 222476, Note_off_c, 6, 68, 80
8, 222480, Note_on_c, 6, 60, 95
8, 222480, Note_on_c, 6, 68, 95
8, 222716, Note_off_c, 6, 60, 80
8, 222716, Note_off_c, 6, 68, 80
8, 222720, Note_on_c, 6, 60, 95
8, 222720, Note_on_c, 6, 68, 95
8, 222956, Note_off_c, 6, 60, 80
8, 222956, Note_off_c, 6, 68, 80
8, 222960, Note_on_c, 6, 60, 95
8, 222960, Note_on_c, 6, 68, 95
8, 223196, Note_off_c, 6, 60, 80
8, 223196, Note_off_c, 6, 68, 80
8, 223200, Note_on_c, 6, 60, 95
8, 223200, Note_on_c, 6, 68, 95
8, 223436, Note_off_c, 6, 60, 80
8, 223436, Note_off_c, 6, 68, 80
8, 223440, Note_on_c, 6, 60, 95
8, 223440, Note_on_c, 6, 68, 95
8, 223676, Note_off_c, 6, 60, 80
8, 223676, Note_off_c, 6, 68, 80
8, 223680, Note_on_c, 6, 60, 95
8, 223680, Note_on_c, 6, 68, 95
8, 224156, Note_off_c, 6, 60, 80
8, 224156, Note_off_c, 6, 68, 80
8, 224160, Note_on_c, 6, 60, 95
8, 224160, Note_on_c, 6, 68, 95
8, 224636, Note_off_c, 6, 60, 80
8, 224636, Note_off_c, 6, 68, 80
8, 224640, Note_on_c, 6, 63, 95
8, 224640, Note_on_c, 6, 68, 95
8, 225356, Note_off_c, 6, 63, 80
8, 225356, Note_off_c, 6, 68, 80
8, 225360, Note_on_c, 6, 61, 95
8, 225360, Note_on_c, 6, 65, 95
8, 225596, Note_off_c, 6, 61, 80
8, 225596, Note_off_c, 6, 65, 80
8, 225600, Note_on_c, 6, 61, 95
8, 225600, Note_on_c, 6, 65, 95
8, 228476, Note_off_c, 6, 61, 80
8, 228476, Note_off_c, 6, 65, 80
8, 228480, Note_on_c, 6, 60, 95
8, 228480, Note_on_c, 6, 68, 95
8, 229436, Note_off_c, 6, 60, 80
8, 229436, Note_off_c, 6, 68, 80
8, 229440, Note_on_c, 6, 60, 95
8, 229440, Note_on_c, 6, 68, 95
8, 230156, Note_off_c, 6, 60, 80
8, 230156, Note_off_c, 6, 68, 80
8, 230160, Note_on_c, 6, 60, 95
8, 230160, Note_on_c, 6, 68, 95
8, 230396, Note_off_c, 6, 60, 80
8, 230396, Note_off_c, 6, 68, 80
8, 230400, Note_on_c, 6, 60, 95
8, 230400, Note_on_c, 6, 68, 95
8, 230636, Note_off_c, 6, 60, 80
8, 230636, Note_off_c, 6, 68, 80
8, 230640, Note_on_c, 6, 60, 95
8, 230640, Note_on_c, 6, 68, 95
8, 230876, Note_off_c, 6, 60, 80
8, 230876, Note_off_c, 6, 68, 80
8, 230880, Note_on_c, 6, 60, 95
8, 230880, Note_on_c, 6, 68, 95
8, 231116, Note_off_c, 6, 60, 80
8, 231116, Note_off_c, 6, 68, 80
8, 231120, Note_on_c, 6, 60, 95
8, 231120, Note_on_c, 6, 68, 95
8, 231356, Note_off_c, 6, 60, 80
8, 231356, Note_off_c, 6, 68, 80
8, 231360, Note_on_c, 6, 60, 95
8, 231360, Note_on_c, 6, 68, 95
8, 231836, Note_off_c, 6, 60, 80
8, 231836, Note_off_c, 6, 68, 80
8, 231840, Note_on_c, 6, 60, 95
8, 231840, Note_on_c, 6, 68, 95
8, 232316, Note_off_c, 6, 60, 80
8, 232316, Note_off_c, 6, 68, 80
8, 232320, Note_on_c, 6, 63, 95
8, 232320, Note_on_c, 6, 68, 95
8, 233036, Note_off_c, 6, 63, 80
8, 233036, Note_off_c, 6, 68, 80
8, 233040, Note_on_c, 6, 61, 95
8, 233040, Note_on_c, 6, 65, 95
8, 233276, Note_off_c, 6, 61, 80
8, 233276, Note_off_c, 6, 65, 80
8, 233280, Note_on_c, 6, 61, 95
8, 233280, Note_on_c, 6, 65, 95
8, 236156, Note_off_c, 6, 61, 80
8, 236156, Note_off_c, 6, 65, 80
8, 236160, Note_on_c, 6, 60, 95
8, 236160, Note_on_c, 6, 68, 95
8, 237116, Note_off_c, 6, 60, 80
8, 237116, Note_off_c, 6, 68, 80
8, 237120, Note_on_c, 6, 60, 95
8, 237120, Note_on_c, 6, 68, 95
8, 237836, Note_off_c, 6, 60, 80
8, 237836, Note_off_c, 6, 68, 80
8, 237840, Note_on_c, 6, 60, 95
8, 237840, Note_on_c, 6, 68, 95
8, 238076, Note_off_c, 6, 60, 80
8, 238076, Note_off_c, 6, 68, 80
8, 238080, Note_on_c, 6, 60, 95
8, 238080, Note_on_c, 6, 68, 95
8, 238316, Note_off_c, 6, 60, 80
8, 238316, Note_off_c, 6, 68, 80
8, 238320, Note_on_c, 6, 60, 95
8, 238320, Note_on_c, 6, 68, 95
8, 238556, Note_off_c, 6, 60, 80
8, 238556, Note_off_c, 6, 68, 80
8, 238560, Note_on_c, 6, 60, 95
8, 238560, Note_on_c, 6, 68, 95
8, 238796, Note_off_c, 6, 60, 80
8, 238796, Note_off_c, 6, 68, 80
8, 238800, Note_on_c, 6, 60, 95
8, 238800, Note_on_c, 6, 68, 95
8, 239036, Note_off_c, 6, 60, 80
8, 239036, Note_off_c, 6, 68, 80
8, 239040, Note_on_c, 6, 60, 95
8, 239040, Note_on_c, 6, 68, 95
8, 239516, Note_off_c, 6, 60, 80
8, 239516, Note_off_c, 6, 68, 80
8, 239520, Note_on_c, 6, 60, 95
8, 239520, Note_on_c, 6, 68, 95
8, 239996, Note_off_c, 6, 60, 80
8, 239996, Note_off_c, 6, 68, 80
8, 240000, Note_on_c, 6, 63, 95
8, 240000, Note_on_c, 6, 68, 95
8, 240236, Note_off_c, 6, 63, 80
8, 240236, Note_off_c, 6, 68, 80
8, 240240, Note_on_c, 6, 61, 95
8, 240240, Note_on_c, 6, 67, 95
8, 240476, Note_off_c, 6, 61, 80
8, 240476, Note_off_c, 6, 67, 80
8, 240480, Note_on_c, 6, 60, 95
8, 240480, Note_on_c, 6, 65, 95
8, 240716, Note_off_c, 6, 60, 80
8, 240716, Note_off_c, 6, 65, 80
8, 240720, Note_on_c, 6, 58, 95
8, 240720, Note_on_c, 6, 63, 95
8, 243836, Note_off_c, 6, 58, 80
8, 243836, Note_off_c, 6, 63, 80
8, 266880, Note_on_c, 6, 61, 95
8, 266880, Note_on_c, 6, 65, 95
8, 267116, Note_off_c, 6, 61, 80
8, 267116, Note_off_c, 6, 65, 80
8, 267120, Note_on_c, 6, 61, 95
8, 267120, Note_on_c, 6, 65, 95
8, 267356, Note_off_c, 6, 61, 80
8, 267356, Note_off_c, 6, 65, 80
8, 267360, Note_on_c, 6, 61, 95
8, 267360, Note_on_c, 6, 65, 95
8, 267596, Note_off_c, 6, 61, 80
8, 267596, Note_off_c, 6, 65, 80
8, 267600, Note_on_c, 6, 61, 95
8, 267600, Note_on_c, 6, 65, 95
8, 267836, Note_off_c, 6, 61, 80
8, 267836, Note_off_c, 6, 65, 80
8, 267840, Note_on_c, 6, 60, 95
8, 267840, Note_on_c, 6, 63, 95
8, 268316, Note_off_c, 6, 60, 80
8, 268316, Note_off_c, 6, 63, 80
8, 268560, Note_on_c, 6, 60, 95
8, 268560, Note_on_c, 6, 63, 95
8, 268796, Note_off_c, 6, 60, 80
8, 268796, Note_off_c, 6, 63, 80
8, 268800, Note_on_c, 6, 58, 95
8, 268800, Note_on_c, 6, 61, 95
8, 269036, Note_off_c, 6, 58, 80
8, 269036, Note_off_c, 6, 61, 80
8, 269040, Note_on_c, 6, 58, 95
8, 269040, Note_on_c, 6, 61, 95
8, 269276, Note_off_c, 6, 58, 80
8, 269276, Note_off_c, 6, 61, 80
8, 269280, Note_on_c, 6, 58, 95
8, 269280, Note_on_c, 6, 61, 95
8, 269516, Note_off_c, 6, 58, 80
8, 269516, Note_off_c, 6, 61, 80
8, 269520, Note_on_c, 6, 58, 95
8, 269520, Note_on_c, 6, 61, 95
8, 269756, Note_off_c, 6, 58, 80
8, 269756, Note_off_c, 6, 61, 80
8, 269760, Note_on_c, 6, 56, 95
8, 269760, Note_on_c, 6, 60, 95
8, 270236, Note_off_c, 6, 56, 80
8, 270236, Note_off_c, 6, 60, 80
8, 270720, Note_on_c, 6, 61, 95
8, 270720, Note_on_c, 6, 65, 95
8, 270956, Note_off_c, 6, 61, 80
8, 270956, Note_off_c, 6, 65, 80
8, 270960, Note_on_c, 6, 61, 95
8, 270960, Note_on_c, 6, 65, 95
8, 271196, Note_off_c, 6, 61, 80
8, 271196, Note_off_c, 6, 65, 80
8, 271200, Note_on_c, 6, 61, 95
8, 271200, Note_on_c, 6, 65, 95
8, 271436, Note_off_c, 6, 61, 80
8, 271436, Note_off_c, 6, 65, 80
8, 271440, Note_on_c, 6, 61, 95
8, 271440, Note_on_c, 6, 65, 95
8, 271676, Note_off_c, 6, 61, 80
8, 271676, Note_off_c, 6, 65, 80
8, 271680, Note_on_c, 6, 60, 95
8, 271680, Note_on_c, 6, 63, 95
8, 272156, Note_off_c, 6, 60, 80
8, 272156, Note_off_c, 6, 63, 80
8, 272160, Note_on_c, 6, 60, 95
8, 272160, Note_on_c, 6, 63, 95
8, 272396, Note_off_c, 6, 60, 80
8, 272396, Note_off_c, 6, 63, 80
8, 272400, Note_on_c, 6, 60, 95
8, 272400, Note_on_c, 6, 63, 95
8, 272636, Note_off_c, 6, 60, 80
8, 272636, Note_off_c, 6, 63, 80
8, 272640, Note_on_c, 6, 49, 95
8, 272640, Note_on_c, 6, 61, 95
8, 272876, Note_off_c, 6, 49, 80
8, 272876, Note_off_c, 6, 61, 80
8, 272880, Note_on_c, 6, 49, 95
8, 272880, Note_on_c, 6, 61, 95
8, 273116, Note_off_c, 6, 49, 80
8, 273116, Note_off_c, 6, 61, 80
8, 273120, Note_on_c, 6, 48, 95
8, 273120, Note_on_c, 6, 60, 95
8, 273356, Note_off_c, 6, 48, 80
8, 273356, Note_off_c, 6, 60, 80
8, 273360, Note_on_c, 6, 46, 95
8, 273360, Note_on_c, 6, 58, 95
8, 273596, Note_off_c, 6, 46, 80
8, 273596, Note_off_c, 6, 58, 80
8, 273600, Note_on_c, 6, 44, 95
8, 273600, Note_on_c, 6, 56, 95
8, 274076, Note_off_c, 6, 44, 80
8, 274076, Note_off_c, 6, 56, 80
8, 274080, Note_on_c, 6, 56, 95
8, 274316, Note_off_c, 6, 56, 80
8, 274320, Note_on_c, 6, 56, 95
8, 274556, Note_off_c, 6, 56, 80
8, 274560, Note_on_c, 6, 61, 95
8, 274560, Note_on_c, 6, 65, 95
8, 274796, Note_off_c, 6, 61, 80
8, 274796, Note_off_c, 6, 65, 80
8, 274800, Note_on_c, 6, 61, 95
8, 274800, Note_on_c, 6, 65, 95
8, 275036, Note_off_c, 6, 61, 80
8, 275036, Note_off_c, 6, 65, 80
8, 275040, Note_on_c, 6, 61, 95
8, 275040, Note_on_c, 6, 65, 95
8, 275276, Note_off_c, 6, 61, 80
8, 275276, Note_off_c, 6, 65, 80
8, 275280, Note_on_c, 6, 61, 95
8, 275280, Note_on_c, 6, 65, 95
8, 275516, Note_off_c, 6, 61, 80
8, 275516, Note_off_c, 6, 65, 80
8, 275520, Note_on_c, 6, 60, 95
8, 275520, Note_on_c, 6, 63, 95
8, 275996, Note_off_c, 6, 60, 80
8, 275996, Note_off_c, 6, 63, 80
8, 276000, Note_on_c, 6, 60, 95
8, 276000, Note_on_c, 6, 63, 95
8, 276236, Note_off_c, 6, 60, 80
8, 276236, Note_off_c, 6, 63, 80
8, 276240, Note_on_c, 6, 60, 95
8, 276240, Note_on_c, 6, 63, 95
8, 276476, Note_off_c, 6, 60, 80
8, 276476, Note_off_c, 6, 63, 80
8, 276480, Note_on_c, 6, 58, 95
8, 276480, Note_on_c, 6, 61, 95
8, 276716, Note_off_c, 6, 58, 80
8, 276716, Note_off_c, 6, 61, 80
8, 276720, Note_on_c, 6, 58, 95
8, 276720, Note_on_c, 6, 61, 95
8, 276956, Note_off_c, 6, 58, 80
8, 276956, Note_off_c, 6, 61, 80
8, 276960, Note_on_c, 6, 58, 95
8, 276960, Note_on_c, 6, 61, 95
8, 277196, Note_off_c, 6, 58, 80
8, 277196, Note_off_c, 6, 61, 80
8, 277200, Note_on_c, 6, 58, 95
8, 277200, Note_on_c, 6, 61, 95
8, 277436, Note_off_c, 6, 58, 80
8, 277436, Note_off_c, 6, 61, 80
8, 277440, Note_on_c, 6, 56, 95
8, 277440, Note_on_c, 6, 60, 95
8, 277916, Note_off_c, 6, 56, 80
8, 277916, Note_off_c, 6, 60, 80
8, 282240, Note_on_c, 6, 56, 95
8, 282240, Note_on_c, 6, 61, 95
8, 284156, Note_off_c, 6, 56, 80
8, 284156, Note_off_c, 6, 61, 80
8, 284160, Note_on_c, 6, 61, 95
8, 284160, Note_on_c, 6, 65, 95
8, 286076, Note_off_c, 6, 61, 80
8, 286076, Note_off_c, 6, 65, 80
8, 286080, Note_on_c, 6, 60, 95
8, 286080, Note_on_c, 6, 68, 95
8, 287036, Note_off_c, 6, 60, 80
8, 287036, Note_off_c, 6, 68, 80
8, 287040, Note_on_c, 6, 60, 95
8, 287040, Note_on_c, 6, 68, 95
8, 287756, Note_off_c, 6, 60, 80
8, 287756, Note_off_c, 6, 68, 80
8, 287760, Note_on_c, 6, 60, 95
8, 287760, Note_on_c, 6, 68, 95
8, 287996, Note_off_c, 6, 60, 80
8, 287996, Note_off_c, 6, 68, 80
8, 288000, Note_on_c, 6, 60, 95
8, 288000, Note_on_c, 6, 68, 95
8, 288236, Note_off_c, 6, 60, 80
8, 288236, Note_off_c, 6, 68, 80
8, 288240, Note_on_c, 6, 60, 95
8, 288240, Note_on_c, 6, 68, 95
8, 288476, Note_off_c, 6, 60, 80
8, 288476, Note_off_c, 6, 68, 80
8, 288480, Note_on_c, 6, 60, 95
8, 288480, Note_on_c, 6, 68, 95
8, 288716, Note_off_c, 6, 60, 80
8, 288716, Note_off_c, 6, 68, 80
8, 288720, Note_on_c, 6, 60, 95
8, 288720, Note_on_c, 6, 68, 95
8, 288956, Note_off_c, 6, 60, 80
8, 288956, Note_off_c, 6, 68, 80
8, 288960, Note_on_c, 6, 60, 95
8, 288960, Note_on_c, 6, 68, 95
8, 289436, Note_off_c, 6, 60, 80
8, 289436, Note_off_c, 6, 68, 80
8, 289440, Note_on_c, 6, 60, 95
8, 289440, Note_on_c, 6, 68, 95
8, 289916, Note_off_c, 6, 60, 80
8, 289916, Note_off_c, 6, 68, 80
8, 289920, Note_on_c, 6, 63, 95
8, 289920, Note_on_c, 6, 68, 95
8, 290636, Note_off_c, 6, 63, 80
8, 290636, Note_off_c, 6, 68, 80
8, 290640, Note_on_c, 6, 61, 95
8, 290640, Note_on_c, 6, 65, 95
8, 290876, Note_off_c, 6, 61, 80
8, 290876, Note_off_c, 6, 65, 80
8, 290880, Note_on_c, 6, 61, 95
8, 290880, Note_on_c, 6, 65, 95
8, 293756, Note_off_c, 6, 61, 80
8, 293756, Note_off_c, 6, 65, 80
8, 293760, Note_on_c, 6, 60, 95
8, 293760, Note_on_c, 6, 68, 95
8, 294716, Note_off_c, 6, 60, 80
8, 294716, Note_off_c, 6, 68, 80
8, 294720, Note_on_c, 6, 60, 95
8, 294720, Note_on_c, 6, 68, 95
8, 295436, Note_off_c, 6, 60, 80
8, 295436, Note_off_c, 6, 68, 80
8, 295440, Note_on_c, 6, 60, 95
8, 295440, Note_on_c, 6, 68, 95
8, 295676, Note_off_c, 6, 60, 80
8, 295676, Note_off_c, 6, 68, 80
8, 295680, Note_on_c, 6, 60, 95
8, 295680, Note_on_c, 6, 68, 95
8, 295916, Note_off_c, 6, 60, 80
8, 295916, Note_off_c, 6, 68, 80
8, 295920, Note_on_c, 6, 60, 95
8, 295920, Note_on_c, 6, 68, 95
8, 296156, Note_off_c, 6, 60, 80
8, 296156, Note_off_c, 6, 68, 80
8, 296160, Note_on_c, 6, 60, 95
8, 296160, Note_on_c, 6, 68, 95
8, 296396, Note_off_c, 6, 60, 80
8, 296396, Note_off_c, 6, 68, 80
8, 296400, Note_on_c, 6, 60, 95
8, 296400, Note_on_c, 6, 68, 95
8, 296636, Note_off_c, 6, 60, 80
8, 296636, Note_off_c, 6, 68, 80
8, 296640, Note_on_c, 6, 60, 95
8, 296640, Note_on_c, 6, 68, 95
8, 297116, Note_off_c, 6, 60, 80
8, 297116, Note_off_c, 6, 68, 80
8, 297120, Note_on_c, 6, 60, 95
8, 297120, Note_on_c, 6, 68, 95
8, 297596, Note_off_c, 6, 60, 80
8, 297596, Note_off_c, 6, 68, 80
8, 297600, Note_on_c, 6, 63, 95
8, 297600, Note_on_c, 6, 68, 95
8, 298316, Note_off_c, 6, 63, 80
8, 298316, Note_off_c, 6, 68, 80
8, 298320, Note_on_c, 6, 61, 95
8, 298320, Note_on_c, 6, 65, 95
8, 298556, Note_off_c, 6, 61, 80
8, 298556, Note_off_c, 6, 65, 80
8, 298560, Note_on_c, 6, 61, 95
8, 298560, Note_on_c, 6, 65, 95
8, 301436, Note_off_c, 6, 61, 80
8, 301436, Note_off_c, 6, 65, 80
8, 301440, Note_on_c, 6, 60, 95
8, 301440, Note_on_c, 6, 68, 95
8, 302396, Note_off_c, 6, 60, 80
8, 302396, Note_off_c, 6, 68, 80
8, 302400, Note_on_c, 6, 60, 95
8, 302400, Note_on_c, 6, 68, 95
8, 303116, Note_off_c, 6, 60, 80
8, 303116, Note_off_c, 6, 68, 80
8, 303120, Note_on_c, 6, 60, 95
8, 303120, Note_on_c, 6, 68, 95
8, 303356, Note_off_c, 6, 60, 80
8, 303356, Note_off_c, 6, 68, 80
8, 303360, Note_on_c, 6, 60, 95
8, 303360, Note_on_c, 6, 68, 95
8, 303596, Note_off_c, 6, 60, 80
8, 303596, Note_off_c, 6, 68, 80
8, 303600, Note_on_c, 6, 60, 95
8, 303600, Note_on_c, 6, 68, 95
8, 303836, Note_off_c, 6, 60, 80
8, 303836, Note_off_c, 6, 68, 80
8, 303840, Note_on_c, 6, 60, 95
8, 303840, Note_on_c, 6, 68, 95
8, 304076, Note_off_c, 6, 60, 80
8, 304076, Note_off_c, 6, 68, 80
8, 304080, Note_on_c, 6, 60, 95
8, 304080, Note_on_c, 6, 68, 95
8, 304316, Note_off_c, 6, 60, 80
8, 304316, Note_off_c, 6, 68, 80
8, 304320, Note_on_c, 6, 60, 95
8, 304320, Note_on_c, 6, 68, 95
8, 304796, Note_off_c, 6, 60, 80
8, 304796, Note_off_c, 6, 68, 80
8, 304800, Note_on_c, 6, 60, 95
8, 304800, Note_on_c, 6, 68, 95
8, 305276, Note_off_c, 6, 60, 80
8, 305276, Note_off_c, 6, 68, 80
8, 305280, Note_on_c, 6, 63, 95
8, 305280, Note_on_c, 6, 68, 95
8, 305996, Note_off_c, 6, 63, 80
8, 305996, Note_off_c, 6, 68, 80
8, 306000, Note_on_c, 6, 61, 95
8, 306000, Note_on_c, 6, 65, 95
8, 306236, Note_off_c, 6, 61, 80
8, 306236, Note_off_c, 6, 65, 80
8, 306240, Note_on_c, 6, 61, 95
8, 306240, Note_on_c, 6, 65, 95
8, 309116, Note_off_c, 6, 61, 80
8, 309116, Note_off_c, 6, 65, 80
8, 309120, Note_on_c, 6, 60, 95
8, 309120, Note_on_c, 6, 68, 95
8, 310076, Note_off_c, 6, 60, 80
8, 310076, Note_off_c, 6, 68, 80
8, 310080, Note_on_c, 6, 60, 95
8, 310080, Note_on_c, 6, 68, 95
8, 310796, Note_off_c, 6, 60, 80
8, 310796, Note_off_c, 6, 68, 80
8, 310800, Note_on_c, 6, 60, 95
8, 310800, Note_on_c, 6, 68, 95
8, 311036, Note_off_c, 6, 60, 80
8, 311036, Note_off_c, 6, 68, 80
8, 311040, Note_on_c, 6, 60, 95
8, 311040, Note_on_c, 6, 68, 95
8, 311276, Note_off_c, 6, 60, 80
8, 311276, Note_off_c, 6, 68, 80
8, 311280, Note_on_c, 6, 60, 95
8, 311280, Note_on_c, 6, 68, 95
8, 311516, Note_off_c, 6, 60, 80
8, 311516, Note_off_c, 6, 68, 80
8, 311520, Note_on_c, 6, 60, 95
8, 311520, Note_on_c, 6, 68, 95
8, 311756, Note_off_c, 6, 60, 80
8, 311756, Note_off_c, 6, 68, 80
8, 311760, Note_on_c, 6, 60, 95
8, 311760, Note_on_c, 6, 68, 95
8, 311996, Note_off_c, 6, 60, 80
8, 311996, Note_off_c, 6, 68, 80
8, 312000, Note_on_c, 6, 60, 95
8, 312000, Note_on_c, 6, 68, 95
8, 312476, Note_off_c, 6, 60, 80
8, 312476, Note_off_c, 6, 68, 80
8, 312480, Note_on_c, 6, 60, 95
8, 312480, Note_on_c, 6, 68, 95
8, 312956, Note_off_c, 6, 60, 80
8, 312956, Note_off_c, 6, 68, 80
8, 312960, Note_on_c, 6, 63, 95
8, 312960, Note_on_c, 6, 68, 95
8, 313676, Note_off_c, 6, 63, 80
8, 313676, Note_off_c, 6, 68, 80
8, 313680, Note_on_c, 6, 61, 95
8, 313680, Note_on_c, 6, 65, 95
8, 313916, Note_off_c, 6, 61, 80
8, 313916, Note_off_c, 6, 65, 80
8, 313920, Note_on_c, 6, 61, 95
8, 313920, Note_on_c, 6, 65, 95
8, 316796, Note_off_c, 6, 61, 80
8, 316796, Note_off_c, 6, 65, 80
8, 316800, Note_on_c, 6, 60, 95
8, 316800, Note_on_c, 6, 68, 95
8, 317756, Note_off_c, 6, 60, 80
8, 317756, Note_off_c, 6, 68, 80
8, 317760, Note_on_c, 6, 60, 95
8, 317760, Note_on_c, 6, 68, 95
8, 318476, Note_off_c, 6, 60, 80
8, 318476, Note_off_c, 6, 68, 80
8, 318480, Note_on_c, 6, 60, 95
8, 318480, Note_on_c, 6, 68, 95
8, 318716, Note_off_c, 6, 60, 80
8, 318716, Note_off_c, 6, 68, 80
8, 318720, Note_on_c, 6, 60, 95
8, 318720, Note_on_c, 6, 68, 95
8, 318956, Note_off_c, 6, 60, 80
8, 318956, Note_off_c, 6, 68, 80
8, 318960, Note_on_c, 6, 60, 95
8, 318960, Note_on_c, 6, 68, 95
8, 319196, Note_off_c, 6, 60, 80
8, 319196, Note_off_c, 6, 68, 80
8, 319200, Note_on_c, 6, 60, 95
8, 319200, Note_on_c, 6, 68, 95
8, 319436, Note_off_c, 6, 60, 80
8, 319436, Note_off_c, 6, 68, 80
8, 319440, Note_on_c, 6, 60, 95
8, 319440, Note_on_c, 6, 68, 95
8, 319676, Note_off_c, 6, 60, 80
8, 319676, Note_off_c, 6, 68, 80
8, 319680, Note_on_c, 6, 60, 95
8, 319680, Note_on_c, 6, 68, 95
8, 320156, Note_off_c, 6, 60, 80
8, 320156, Note_off_c, 6, 68, 80
8, 320160, Note_on_c, 6, 60, 95
8, 320160, Note_on_c, 6, 68, 95
8, 320636, Note_off_c, 6, 60, 80
8, 320636, Note_off_c, 6, 68, 80
8, 320640, Note_on_c, 6, 63, 95
8, 320640, Note_on_c, 6, 68, 95
8, 321356, Note_off_c, 6, 63, 80
8, 321356, Note_off_c, 6, 68, 80
8, 321360, Note_on_c, 6, 61, 95
8, 321360, Note_on_c, 6, 65, 95
8, 321596, Note_off_c, 6, 61, 80
8, 321596, Note_off_c, 6, 65, 80
8, 321600, Note_on_c, 6, 61, 95
8, 321600, Note_on_c, 6, 65, 95
8, 324476, Note_off_c, 6, 61, 80
8, 324476, Note_off_c, 6, 65, 80
8, 324480, Note_on_c, 6, 60, 95
8, 324480, Note_on_c, 6, 68, 95
8, 325436, Note_off_c, 6, 60, 80
8, 325436, Note_off_c, 6, 68, 80
8, 325440, Note_on_c, 6, 60, 95
8, 325440, Note_on_c, 6, 68, 95
8, 326156, Note_off_c, 6, 60, 80
8, 326156, Note_off_c, 6, 68, 80
8, 326160, Note_on_c, 6, 60, 95
8, 326160, Note_on_c, 6, 68, 95
8, 326396, Note_off_c, 6, 60, 80
8, 326396, Note_off_c, 6, 68, 80
8, 326400, Note_on_c, 6, 60, 95
8, 326400, Note_on_c, 6, 68, 95
8, 326636, Note_off_c, 6, 60, 80
8, 326636, Note_off_c, 6, 68, 80
8, 326640, Note_on_c, 6, 60, 95
8, 326640, Note_on_c, 6, 68, 95
8, 326876, Note_off_c, 6, 60, 80
8, 326876, Note_off_c, 6, 68, 80
8, 326880, Note_on_c, 6, 60, 95
8, 326880, Note_on_c, 6, 68, 95
8, 327116, Note_off_c, 6, 60, 80
8, 327116, Note_off_c, 6, 68, 80
8, 327120, Note_on_c, 6, 60, 95
8, 327120, Note_on_c, 6, 68, 95
8, 327356, Note_off_c, 6, 60, 80
8, 327356, Note_off_c, 6, 68, 80
8, 327360, Note_on_c, 6, 60, 95
8, 327360, Note_on_c, 6, 68, 95
8, 327836, Note_off_c, 6, 60, 80
8, 327836, Note_off_c, 6, 68, 80
8, 327840, Note_on_c, 6, 60, 95
8, 327840, Note_on_c, 6, 68, 95
8, 328316, Note_off_c, 6, 60, 80
8, 328316, Note_off_c, 6, 68, 80
8, 328320, Note_on_c, 6, 63, 95
8, 328320, Note_on_c, 6, 68, 95
8, 329036, Note_off_c, 6, 63, 80
8, 329036, Note_off_c, 6, 68, 80
8, 329040, Note_on_c, 6, 61, 95
8, 329040, Note_on_c, 6, 65, 95
8, 329276, Note_off_c, 6, 61, 80
8, 329276, Note_off_c, 6, 65, 80
8, 329280, Note_on_c, 6, 61, 95
8, 329280, Note_on_c, 6, 65, 95
8, 332156, Note_off_c, 6, 61, 80
8, 332156, Note_off_c, 6, 65, 80
8, 332160, Note_on_c, 6, 60, 95
8, 332160, Note_on_c, 6, 68, 95
8, 333116, Note_off_c, 6, 60, 80
8, 333116, Note_off_c, 6, 68, 80
8, 333120, Note_on_c, 6, 60, 95
8, 333120, Note_on_c, 6, 68, 95
8, 333836, Note_off_c, 6, 60, 80
8, 333836, Note_off_c, 6, 68, 80
8, 333840, Note_on_c, 6, 60, 95
8, 333840, Note_on_c, 6, 68, 95
8, 334076, Note_off_c, 6, 60, 80
8, 334076, Note_off_c, 6, 68, 80
8, 334080, Note_on_c, 6, 60, 95
8, 334080, Note_on_c, 6, 68, 95
8, 334316, Note_off_c, 6, 60, 80
8, 334316, Note_off_c, 6, 68, 80
8, 334320, Note_on_c, 6, 60, 95
8, 334320, Note_on_c, 6, 68, 95
8, 334556, Note_off_c, 6, 60, 80
8, 334556, Note_off_c, 6, 68, 80
8, 334560, Note_on_c, 6, 60, 95
8, 334560, Note_on_c, 6, 68, 95
8, 334796, Note_off_c, 6, 60, 80
8, 334796, Note_off_c, 6, 68, 80
8, 334800, Note_on_c, 6, 60, 95
8, 334800, Note_on_c, 6, 68, 95
8, 335036, Note_off_c, 6, 60, 80
8, 335036, Note_off_c, 6, 68, 80
8, 335040, Note_on_c, 6, 60, 95
8, 335040, Note_on_c, 6, 68, 95
8, 335516, Note_off_c, 6, 60, 80
8, 335516, Note_off_c, 6, 68, 80
8, 335520, Note_on_c, 6, 60, 95
8, 335520, Note_on_c, 6, 68, 95
8, 335996, Note_off_c, 6, 60, 80
8, 335996, Note_off_c, 6, 68, 80
8, 336000, Note_on_c, 6, 63, 95
8, 336000, Note_on_c, 6, 68, 95
8, 336716, Note_off_c, 6, 63, 80
8, 336716, Note_off_c, 6, 68, 80
8, 336720, Note_on_c, 6, 61, 95
8, 336720, Note_on_c, 6, 65, 95
8, 336956, Note_off_c, 6, 61, 80
8, 336956, Note_off_c, 6, 65, 80
8, 336960, Note_on_c, 6, 61, 95
8, 336960, Note_on_c, 6, 65, 95
8, 339836, Note_off_c, 6, 61, 80
8, 339836, Note_off_c, 6, 65, 80
8, 339840, Control_c, 6, 7, 79
8, 339840, Note_on_c, 6, 60, 95
8, 339840, Note_on_c, 6, 68, 95
8, 339960, Control_c, 6, 7, 64
8, 339960, Control_c, 6, 7, 79
8, 340080, Control_c, 6, 7, 65
8, 340080, Control_c, 6, 7, 78
8, 340200, Control_c, 6, 7, 65
8, 340200, Control_c, 6, 7, 77
8, 340320, Control_c, 6, 7, 65
8, 340320, Control_c, 6, 7, 76
8, 340440, Control_c, 6, 7, 65
8, 340440, Control_c, 6, 7, 76
8, 340560, Control_c, 6, 7, 66
8, 340560, Control_c, 6, 7, 75
8, 340680, Control_c, 6, 7, 66
8, 340680, Control_c, 6, 7, 74
8, 340796, Note_off_c, 6, 60, 80
8, 340796, Note_off_c, 6, 68, 80
8, 340800, Control_c, 6, 7, 66
8, 340800, Control_c, 6, 7, 73
8, 340800, Note_on_c, 6, 60, 95
8, 340800, Note_on_c, 6, 68, 95
8, 340920, Control_c, 6, 7, 66
8, 340920, Control_c, 6, 7, 73
8, 341040, Control_c, 6, 7, 67
8, 341040, Control_c, 6, 7, 72
8, 341160, Control_c, 6, 7, 67
8, 341160, Control_c, 6, 7, 71
8, 341280, Control_c, 6, 7, 67
8, 341280, Control_c, 6, 7, 70
8, 341400, Control_c, 6, 7, 67
8, 341400, Control_c, 6, 7, 70
8, 341516, Note_off_c, 6, 60, 80
8, 341516, Note_off_c, 6, 68, 80
8, 341520, Control_c, 6, 7, 68
8, 341520, Control_c, 6, 7, 69
8, 341520, Note_on_c, 6, 60, 95
8, 341520, Note_on_c, 6, 68, 95
8, 341640, Control_c, 6, 7, 68
8, 341756, Note_off_c, 6, 60, 80
8, 341756, Note_off_c, 6, 68, 80
8, 341760, Control_c, 6, 7, 67
8, 341760, Note_on_c, 6, 60, 95
8, 341760, Note_on_c, 6, 68, 95
8, 341880, Control_c, 6, 7, 68
8, 341880, Control_c, 6, 7, 67
8, 341996, Note_off_c, 6, 60, 80
8, 341996, Note_off_c, 6, 68, 80
8, 342000, Control_c, 6, 7, 69
8, 342000, Control_c, 6, 7, 66
8, 342000, Note_on_c, 6, 60, 95
8, 342000, Note_on_c, 6, 68, 95
8, 342120, Control_c, 6, 7, 69
8, 342120, Control_c, 6, 7, 65
8, 342236, Note_off_c, 6, 60, 80
8, 342236, Note_off_c, 6, 68, 80
8, 342240, Control_c, 6, 7, 69
8, 342240, Control_c, 6, 7, 64
8, 342240, Note_on_c, 6, 60, 95
8, 342240, Note_on_c, 6, 68, 95
8, 342360, Control_c, 6, 7, 69
8, 342360, Control_c, 6, 7, 64
8, 342476, Note_off_c, 6, 60, 80
8, 342476, Note_off_c, 6, 68, 80
8, 342480, Control_c, 6, 7, 70
8, 342480, Control_c, 6, 7, 63
8, 342480, Note_on_c, 6, 60, 95
8, 342480, Note_on_c, 6, 68, 95
8, 342600, Control_c, 6, 7, 70
8, 342600, Control_c, 6, 7, 62
8, 342716, Note_off_c, 6, 60, 80
8, 342716, Note_off_c, 6, 68, 80
8, 342720, Control_c, 6, 7, 70
8, 342720, Control_c, 6, 7, 62
8, 342720, Note_on_c, 6, 60, 95
8, 342720, Note_on_c, 6, 68, 95
8, 342840, Control_c, 6, 7, 70
8, 342840, Control_c, 6, 7, 61
8, 342960, Control_c, 6, 7, 71
8, 342960, Control_c, 6, 7, 60
8, 343080, Control_c, 6, 7, 71
8, 343080, Control_c, 6, 7, 59
8, 343196, Note_off_c, 6, 60, 80
8, 343196, Note_off_c, 6, 68, 80
8, 343200, Control_c, 6, 7, 71
8, 343200, Control_c, 6, 7, 59
8, 343200, Note_on_c, 6, 60, 95
8, 343200, Note_on_c, 6, 68, 95
8, 343320, Control_c, 6, 7, 71
8, 343320, Control_c, 6, 7, 58
8, 343440, Control_c, 6, 7, 72
8, 343440, Control_c, 6, 7, 57
8, 343560, Control_c, 6, 7, 72
8, 343560, Control_c, 6, 7, 56
8, 343676, Note_off_c, 6, 60, 80
8, 343676, Note_off_c, 6, 68, 80
8, 343680, Control_c, 6, 7, 72
8, 343680, Control_c, 6, 7, 56
8, 343680, Note_on_c, 6, 63, 95
8, 343680, Note_on_c, 6, 68, 95
8, 343800, Control_c, 6, 7, 72
8, 343800, Control_c, 6, 7, 55
8, 343920, Control_c, 6, 7, 73
8, 343920, Control_c, 6, 7, 54
8, 344040, Control_c, 6, 7, 73
8, 344040, Control_c, 6, 7, 53
8, 344160, Control_c, 6, 7, 73
8, 344160, Control_c, 6, 7, 53
8, 344280, Control_c, 6, 7, 73
8, 344280, Control_c, 6, 7, 52
8, 344396, Note_off_c, 6, 63, 80
8, 344396, Note_off_c, 6, 68, 80
8, 344400, Control_c, 6, 7, 74
8, 344400, Control_c, 6, 7, 51
8, 344400, Note_on_c, 6, 61, 95
8, 344400, Note_on_c, 6, 65, 95
8, 344520, Control_c, 6, 7, 74
8, 344520, Control_c, 6, 7, 50
8, 344636, Note_off_c, 6, 61, 80
8, 344636, Note_off_c, 6, 65, 80
8, 344640, Control_c, 6, 7, 74
8, 344640, Control_c, 6, 7, 50
8, 344640, Note_on_c, 6, 61, 95
8, 344640, Note_on_c, 6, 65, 95
8, 344760, Control_c, 6, 7, 74
8, 344760, Control_c, 6, 7, 49
8, 344880, Control_c, 6, 7, 75
8, 344880, Control_c, 6, 7, 48
8, 345000, Control_c, 6, 7, 75
8, 345000, Control_c, 6, 7, 48
8, 345120, Control_c, 6, 7, 75
8, 345120, Control_c, 6, 7, 47
8, 345240, Control_c, 6, 7, 75
8, 345240, Control_c, 6, 7, 46
8, 345360, Control_c, 6, 7, 76
8, 345360, Control_c, 6, 7, 45
8, 345480, Control_c, 6, 7, 76
8, 345480, Control_c, 6, 7, 45
8, 345600, Control_c, 6, 7, 76
8, 345600, Control_c, 6, 7, 44
8, 345720, Control_c, 6, 7, 76
8, 345720, Control_c, 6, 7, 43
8, 345840, Control_c, 6, 7, 77
8, 345840, Control_c, 6, 7, 42
8, 345960, Control_c, 6, 7, 77
8, 345960, Control_c, 6, 7, 42
8, 346080, Control_c, 6, 7, 77
8, 346080, Control_c, 6, 7, 41
8, 346200, Control_c, 6, 7, 77
8, 346200, Control_c, 6, 7, 40
8, 346320, Control_c, 6, 7, 78
8, 346320, Control_c, 6, 7, 39
8, 346440, Control_c, 6, 7, 78
8, 346440, Control_c, 6, 7, 39
8, 346560, Control_c, 6, 7, 78
8, 346560, Control_c, 6, 7, 38
8, 346680, Control_c, 6, 7, 78
8, 346680, Control_c, 6, 7, 37
8, 346800, Control_c, 6, 7, 79
8, 346800, Control_c, 6, 7, 36
8, 346920, Control_c, 6, 7, 79
8, 346920, Control_c, 6, 7, 36
8, 347040, Control_c, 6, 7, 79
8, 347040, Control_c, 6, 7, 35
8, 347160, Control_c, 6, 7, 79
8, 347160, Control_c, 6, 7, 34
8, 347280, Control_c, 6, 7, 80
8, 347280, Control_c, 6, 7, 33
8, 347400, Control_c, 6, 7, 80
8, 347400, Control_c, 6, 7, 33
8, 347516, Note_off_c, 6, 61, 80
8, 347516, Note_off_c, 6, 65, 80
8, 347520, Control_c, 6, 7, 80
8, 347520, Control_c, 6, 7, 32
8, 347520, Control_c, 6, 7, 16
8, 347520, Note_on_c, 6, 60, 95
8, 347520, Note_on_c, 6, 68, 95
8, 347640, Control_c, 6, 7, 32
8, 347640, Control_c, 6, 7, 16
8, 347760, Control_c, 6, 7, 31
8, 347760, Control_c, 6, 7, 16
8, 347880, Control_c, 6, 7, 31
8, 347880, Control_c, 6, 7, 16
8, 348000, Control_c, 6, 7, 31
8, 348000, Control_c, 6, 7, 16
8, 348120, Control_c, 6, 7, 31
8, 348120, Control_c, 6, 7, 16
8, 348240, Control_c, 6, 7, 30
8, 348240, Control_c, 6, 7, 16
8, 348360, Control_c, 6, 7, 30
8, 348360, Control_c, 6, 7, 16
8, 348476, Note_off_c, 6, 60, 80
8, 348476, Note_off_c, 6, 68, 80
8, 348480, Control_c, 6, 7, 30
8, 348480, Control_c, 6, 7, 16
8, 348480, Note_on_c, 6, 60, 95
8, 348480, Note_on_c, 6, 68, 95
8, 348600, Control_c, 6, 7, 30
8, 348600, Control_c, 6, 7, 16
8, 348720, Control_c, 6, 7, 29
8, 348720, Control_c, 6, 7, 16
8, 348840, Control_c, 6, 7, 29
8, 348840, Control_c, 6, 7, 16
8, 348960, Control_c, 6, 7, 29
8, 348960, Control_c, 6, 7, 16
8, 349080, Control_c, 6, 7, 29
8, 349080, Control_c, 6, 7, 16
8, 349196, Note_off_c, 6, 60, 80
8, 349196, Note_off_c, 6, 68, 80
8, 349200, Control_c, 6, 7, 28
8, 349200, Control_c, 6, 7, 16
8, 349200, Note_on_c, 6, 60, 95
8, 349200, Note_on_c, 6, 68, 95
8, 349320, Control_c, 6, 7, 28
8, 349320, Control_c, 6, 7, 16
8, 349436, Note_off_c, 6, 60, 80
8, 349436, Note_off_c, 6, 68, 80
8, 349440, Control_c, 6, 7, 28
8, 349440, Control_c, 6, 7, 16
8, 349440, Note_on_c, 6, 60, 95
8, 349440, Note_on_c, 6, 68, 95
8, 349560, Control_c, 6, 7, 28
8, 349560, Control_c, 6, 7, 16
8, 349676, Note_off_c, 6, 60, 80
8, 349676, Note_off_c, 6, 68, 80
8, 349680, Control_c, 6, 7, 27
8, 349680, Control_c, 6, 7, 16
8, 349680, Note_on_c, 6, 60, 95
8, 349680, Note_on_c, 6, 68, 95
8, 349800, Control_c, 6, 7, 27
8, 349800, Control_c, 6, 7, 16
8, 349916, Note_off_c, 6, 60, 80
8, 349916, Note_off_c, 6, 68, 80
8, 349920, Control_c, 6, 7, 27
8, 349920, Control_c, 6, 7, 16
8, 349920, Note_on_c, 6, 60, 95
8, 349920, Note_on_c, 6, 68, 95
8, 350040, Control_c, 6, 7, 27
8, 350040, Control_c, 6, 7, 16
8, 350156, Note_off_c, 6, 60, 80
8, 350156, Note_off_c, 6, 68, 80
8, 350160, Control_c, 6, 7, 26
8, 350160, Control_c, 6, 7, 16
8, 350160, Note_on_c, 6, 60, 95
8, 350160, Note_on_c, 6, 68, 95
8, 350280, Control_c, 6, 7, 26
8, 350280, Control_c, 6, 7, 16
8, 350396, Note_off_c, 6, 60, 80
8, 350396, Note_off_c, 6, 68, 80
8, 350400, Control_c, 6, 7, 26
8, 350400, Control_c, 6, 7, 16
8, 350400, Note_on_c, 6, 60, 95
8, 350400, Note_on_c, 6, 68, 95
8, 350520, Control_c, 6, 7, 26
8, 350520, Control_c, 6, 7, 16
8, 350640, Control_c, 6, 7, 25
8, 350640, Control_c, 6, 7, 16
8, 350760, Control_c, 6, 7, 25
8, 350760, Control_c, 6, 7, 16
8, 350876, Note_off_c, 6, 60, 80
8, 350876, Note_off_c, 6, 68, 80
8, 350880, Control_c, 6, 7, 25
8, 350880, Control_c, 6, 7, 16
8, 350880, Note_on_c, 6, 60, 95
8, 350880, Note_on_c, 6, 68, 95
8, 351000, Control_c, 6, 7, 25
8, 351000, Control_c, 6, 7, 16
8, 351120, Control_c, 6, 7, 24
8, 351120, Control_c, 6, 7, 16
8, 351240, Control_c, 6, 7, 24
8, 351240, Control_c, 6, 7, 16
8, 351356, Note_off_c, 6, 60, 80
8, 351356, Note_off_c, 6, 68, 80
8, 351360, Control_c, 6, 7, 24
8, 351360, Control_c, 6, 7, 16
8, 351360, Note_on_c, 6, 63, 95
8, 351360, Note_on_c, 6, 68, 95
8, 351480, Control_c, 6, 7, 24
8, 351480, Control_c, 6, 7, 16
8, 351600, Control_c, 6, 7, 23
8, 351600, Control_c, 6, 7, 16
8, 351720, Control_c, 6, 7, 23
8, 351720, Control_c, 6, 7, 16
8, 351840, Control_c, 6, 7, 23
8, 351840, Control_c, 6, 7, 16
8, 351960, Control_c, 6, 7, 23
8, 351960, Control_c, 6, 7, 16
8, 352076, Note_off_c, 6, 63, 80
8, 352076, Note_off_c, 6, 68, 80
8, 352080, Control_c, 6, 7, 22
8, 352080, Control_c, 6, 7, 16
8, 352080, Note_on_c, 6, 61, 95
8, 352080, Note_on_c, 6, 65, 95
8, 352200, Control_c, 6, 7, 22
8, 352200, Control_c, 6, 7, 16
8, 352316, Note_off_c, 6, 61, 80
8, 352316, Note_off_c, 6, 65, 80
8, 352320, Control_c, 6, 7, 22
8, 352320, Control_c, 6, 7, 16
8, 352320, Note_on_c, 6, 61, 95
8, 352320, Note_on_c, 6, 65, 95
8, 352440, Control_c, 6, 7, 22
8, 352440, Control_c, 6, 7, 16
8, 352560, Control_c, 6, 7, 21
8, 352560, Control_c, 6, 7, 16
8, 352680, Control_c, 6, 7, 21
8, 352680, Control_c, 6, 7, 16
8, 352800, Control_c, 6, 7, 21
8, 352800, Control_c, 6, 7, 16
8, 352920, Control_c, 6, 7, 21
8, 352920, Control_c, 6, 7, 16
8, 353040, Control_c, 6, 7, 20
8, 353040, Control_c, 6, 7, 16
8, 353160, Control_c, 6, 7, 20
8, 353160, Control_c, 6, 7, 16
8, 353280, Control_c, 6, 7, 20
8, 353280, Control_c, 6, 7, 16
8, 353400, Control_c, 6, 7, 20
8, 353400, Control_c, 6, 7, 16
8, 353520, Control_c, 6, 7, 19
8, 353520, Control_c, 6, 7, 16
8, 353640, Control_c, 6, 7, 19
8, 353640, Control_c, 6, 7, 16
8, 353760, Control_c, 6, 7, 19
8, 353760, Control_c, 6, 7, 16
8, 353880, Control_c, 6, 7, 19
8, 353880, Control_c, 6, 7, 16
8, 354000, Control_c, 6, 7, 18
8, 354000, Control_c, 6, 7, 16
8, 354120, Control_c, 6, 7, 18
8, 354120, Control_c, 6, 7, 16
8, 354240, Control_c, 6, 7, 18
8, 354240, Control_c, 6, 7, 16
8, 354360, Control_c, 6, 7, 18
8, 354360, Control_c, 6, 7, 16
8, 354480, Control_c, 6, 7, 17
8, 354480, Control_c, 6, 7, 16
8, 354600, Control_c, 6, 7, 17
8, 354600, Control_c, 6, 7, 16
8, 354720, Control_c, 6, 7, 17
8, 354720, Control_c, 6, 7, 16
8, 354840, Control_c, 6, 7, 17
8, 354840, Control_c, 6, 7, 16
8, 355196, Note_off_c, 6, 61, 80
8, 355196, Note_off_c, 6, 65, 80
8, 355200, Control_c, 6, 7, 15
8, 355200, Control_c, 6, 7, 0
8, 355200, Note_on_c, 6, 60, 95
8, 355200, Note_on_c, 6, 68, 95
8, 355320, Control_c, 6, 7, 14
8, 355320, Control_c, 6, 7, 0
8, 355440, Control_c, 6, 7, 13
8, 355440, Control_c, 6, 7, 0
8, 355560, Control_c, 6, 7, 12
8, 355560, Control_c, 6, 7, 0
8, 355680, Control_c, 6, 7, 11
8, 355680, Control_c, 6, 7, 0
8, 355800, Control_c, 6, 7, 10
8, 355800, Control_c, 6, 7, 0
8, 355920, Control_c, 6, 7, 9
8, 355920, Control_c, 6, 7, 0
8, 356040, Control_c, 6, 7, 8
8, 356040, Control_c, 6, 7, 0
8, 356156, Note_off_c, 6, 60, 80
8, 356156, Note_off_c, 6, 68, 80
8, 356160, Control_c, 6, 7, 8
8, 356160, Control_c, 6, 7, 0
8, 356160, Note_on_c, 6, 60, 95
8, 356160, Note_on_c, 6, 68, 95
8, 356280, Control_c, 6, 7, 7
8, 356280, Control_c, 6, 7, 0
8, 356400, Control_c, 6, 7, 6
8, 356400, Control_c, 6, 7, 0
8, 356520, Control_c, 6, 7, 5
8, 356520, Control_c, 6, 7, 0
8, 356640, Control_c, 6, 7, 4
8, 356640, Control_c, 6, 7, 0
8, 356760, Control_c, 6, 7, 3
8, 356760, Control_c, 6, 7, 0
8, 356876, Note_off_c, 6, 60, 80
8, 356876, Note_off_c, 6, 68, 80
8, 356880, Control_c, 6, 7, 2
8, 356880, Control_c, 6, 7, 0
8, 356880, Note_on_c, 6, 60, 95
8, 356880, Note_on_c, 6, 68, 95
8, 357000, Control_c, 6, 7, 1
8, 357000, Control_c, 6, 7, 0
8, 357116, Note_off_c, 6, 60, 80
8, 357116, Note_off_c, 6, 68, 80
8, 357120, Note_on_c, 6, 60, 95
8, 357120, Note_on_c, 6, 68, 95
8, 357356, Note_off_c, 6, 60, 80
8, 357356, Note_off_c, 6, 68, 80
8, 357360, Note_on_c, 6, 60, 95
8, 357360, Note_on_c, 6, 68, 95
8, 357596, Note_off_c, 6, 60, 80
8, 357596, Note_off_c, 6, 68, 80
8, 357600, Note_on_c, 6, 60, 95
8, 357600, Note_on_c, 6, 68, 95
8, 357836, Note_off_c, 6, 60, 80
8, 357836, Note_off_c, 6, 68, 80
8, 357840, Note_on_c, 6, 60, 95
8, 357840, Note_on_c, 6, 68, 95
8, 358076, Note_off_c, 6, 60, 80
8, 358076, Note_off_c, 6, 68, 80
8, 358080, Note_on_c, 6, 60, 95
8, 358080, Note_on_c, 6, 68, 95
8, 358556, Note_off_c, 6, 60, 80
8, 358556, Note_off_c, 6, 68, 80
8, 358560, Note_on_c, 6, 60, 95
8, 358560, Note_on_c, 6, 68, 95
8, 359036, Note_off_c, 6, 60, 80
8, 359036, Note_off_c, 6, 68, 80
8, 359040, Note_on_c, 6, 63, 95
8, 359040, Note_on_c, 6, 68, 95
8, 359756, Note_off_c, 6, 63, 80
8, 359756, Note_off_c, 6, 68, 80
8, 359760, Note_on_c, 6, 61, 95
8, 359760, Note_on_c, 6, 65, 95
8, 359996, Note_off_c, 6, 61, 80
8, 359996, Note_off_c, 6, 65, 80
8, 360000, Note_on_c, 6, 61, 95
8, 360000, Note_on_c, 6, 65, 95
8, 362876, Note_off_c, 6, 61, 80
8, 362876, Note_off_c, 6, 65, 80
8, 362876, End_track
9, 0, Start_track
9, 0, Title_t, "Davis"
9, 480, Control_c, 9, 121, 0
9, 480, Control_c, 9, 123, 0
9, 540, Program_c, 9, 0
9, 540, Control_c, 9, 7, 110
9, 540, Control_c, 9, 10, 64
9, 1920, Note_on_c, 9, 36, 102
9, 1920, Note_on_c, 9, 44, 90
9, 1920, Note_on_c, 9, 49, 78
9, 2156, Note_off_c, 9, 36, 80
9, 2156, Note_off_c, 9, 44, 80
9, 2156, Note_off_c, 9, 49, 80
9, 2160, Note_on_c, 9, 44, 90
9, 2396, Note_off_c, 9, 44, 80
9, 2400, Note_on_c, 9, 40, 104
9, 2400, Note_on_c, 9, 44, 90
9, 2636, Note_off_c, 9, 40, 80
9, 2636, Note_off_c, 9, 44, 80
9, 2640, Note_on_c, 9, 36, 102
9, 2640, Note_on_c, 9, 44, 90
9, 2876, Note_off_c, 9, 36, 80
9, 2876, Note_off_c, 9, 44, 80
9, 2880, Note_on_c, 9, 44, 90
9, 3116, Note_off_c, 9, 44, 80
9, 3120, Note_on_c, 9, 36, 102
9, 3120, Note_on_c, 9, 44, 90
9, 3356, Note_off_c, 9, 36, 80
9, 3356, Note_off_c, 9, 44, 80
9, 3360, Note_on_c, 9, 40, 104
9, 3360, Note_on_c, 9, 44, 90
9, 3596, Note_off_c, 9, 40, 80
9, 3596, Note_off_c, 9, 44, 80
9, 3600, Note_on_c, 9, 44, 90
9, 3836, Note_off_c, 9, 44, 80
9, 3840, Note_on_c, 9, 36, 102
9, 3840, Note_on_c, 9, 44, 90
9, 4076, Note_off_c, 9, 36, 80
9, 4076, Note_off_c, 9, 44, 80
9, 4080, Note_on_c, 9, 44, 90
9, 4316, Note_off_c, 9, 44, 80
9, 4320, Note_on_c, 9, 40, 104
9, 4320, Note_on_c, 9, 44, 90
9, 4556, Note_off_c, 9, 40, 80
9, 4556, Note_off_c, 9, 44, 80
9, 4560, Note_on_c, 9, 36, 102
9, 4560, Note_on_c, 9, 44, 90
9, 4796, Note_off_c, 9, 36, 80
9, 4796, Note_off_c, 9, 44, 80
9, 4800, Note_on_c, 9, 44, 90
9, 5036, Note_off_c, 9, 44, 80
9, 5040, Note_on_c, 9, 36, 102
9, 5040, Note_on_c, 9, 44, 90
9, 5276, Note_off_c, 9, 36, 80
9, 5276, Note_off_c, 9, 44, 80
9, 5280, Note_on_c, 9, 40, 104
9, 5280, Note_on_c, 9, 44, 90
9, 5516, Note_off_c, 9, 40, 80
9, 5516, Note_off_c, 9, 44, 80
9, 5520, Note_on_c, 9, 44, 90
9, 5756, Note_off_c, 9, 44, 80
9, 5760, Note_on_c, 9, 36, 102
9, 5760, Note_on_c, 9, 44, 90
9, 5996, Note_off_c, 9, 36, 80
9, 5996, Note_off_c, 9, 44, 80
9, 6000, Note_on_c, 9, 44, 90
9, 6236, Note_off_c, 9, 44, 80
9, 6240, Note_on_c, 9, 40, 104
9, 6240, Note_on_c, 9, 44, 90
9, 6476, Note_off_c, 9, 40, 80
9, 6476, Note_off_c, 9, 44, 80
9, 6480, Note_on_c, 9, 36, 102
9, 6480, Note_on_c, 9, 44, 90
9, 6716, Note_off_c, 9, 36, 80
9, 6716, Note_off_c, 9, 44, 80
9, 6720, Note_on_c, 9, 44, 90
9, 6956, Note_off_c, 9, 44, 80
9, 6960, Note_on_c, 9, 36, 102
9, 6960, Note_on_c, 9, 44, 90
9, 7196, Note_off_c, 9, 36, 80
9, 7196, Note_off_c, 9, 44, 80
9, 7200, Note_on_c, 9, 40, 104
9, 7200, Note_on_c, 9, 44, 90
9, 7436, Note_off_c, 9, 40, 80
9, 7436, Note_off_c, 9, 44, 80
9, 7440, Note_on_c, 9, 44, 90
9, 7676, Note_off_c, 9, 44, 80
9, 7680, Note_on_c, 9, 36, 102
9, 7680, Note_on_c, 9, 44, 90
9, 7916, Note_off_c, 9, 36, 80
9, 7916, Note_off_c, 9, 44, 80
9, 7920, Note_on_c, 9, 44, 90
9, 8156, Note_off_c, 9, 44, 80
9, 8160, Note_on_c, 9, 40, 104
9, 8160, Note_on_c, 9, 44, 90
9, 8396, Note_off_c, 9, 40, 80
9, 8396, Note_off_c, 9, 44, 80
9, 8400, Note_on_c, 9, 36, 102
9, 8400, Note_on_c, 9, 44, 90
9, 8636, Note_off_c, 9, 36, 80
9, 8636, Note_off_c, 9, 44, 80
9, 8640, Note_on_c, 9, 44, 90
9, 8876, Note_off_c, 9, 44, 80
9, 8880, Note_on_c, 9, 36, 102
9, 8880, Note_on_c, 9, 44, 90
9, 9116, Note_off_c, 9, 36, 80
9, 9116, Note_off_c, 9, 44, 80
9, 9120, Note_on_c, 9, 40, 104
9, 9120, Note_on_c, 9, 44, 90
9, 9356, Note_off_c, 9, 40, 80
9, 9356, Note_off_c, 9, 44, 80
9, 9360, Note_on_c, 9, 44, 90
9, 9596, Note_off_c, 9, 44, 80
9, 9600, Note_on_c, 9, 36, 102
9, 9600, Note_on_c, 9, 44, 90
9, 9836, Note_off_c, 9, 36, 80
9, 9836, Note_off_c, 9, 44, 80
9, 9840, Note_on_c, 9, 44, 90
9, 10076, Note_off_c, 9, 44, 80
9, 10080, Note_on_c, 9, 40, 104
9, 10080, Note_on_c, 9, 44, 90
9, 10316, Note_off_c, 9, 40, 80
9, 10316, Note_off_c, 9, 44, 80
9, 10320, Note_on_c, 9, 36, 102
9, 10320, Note_on_c, 9, 44, 90
9, 10556, Note_off_c, 9, 36, 80
9, 10556, Note_off_c, 9, 44, 80
9, 10560, Note_on_c, 9, 44, 90
9, 10796, Note_off_c, 9, 44, 80
9, 10800, Note_on_c, 9, 36, 102
9, 10800, Note_on_c, 9, 44, 90
9, 11036, Note_off_c, 9, 36, 80
9, 11036, Note_off_c, 9, 44, 80
9, 11040, Note_on_c, 9, 40, 104
9, 11040, Note_on_c, 9, 44, 90
9, 11276, Note_off_c, 9, 40, 80
9, 11276, Note_off_c, 9, 44, 80
9, 11280, Note_on_c, 9, 44, 90
9, 11516, Note_off_c, 9, 44, 80
9, 11520, Note_on_c, 9, 36, 102
9, 11520, Note_on_c, 9, 44, 90
9, 11756, Note_off_c, 9, 36, 80
9, 11756, Note_off_c, 9, 44, 80
9, 11760, Note_on_c, 9, 44, 90
9, 11996, Note_off_c, 9, 44, 80
9, 12000, Note_on_c, 9, 40, 104
9, 12000, Note_on_c, 9, 44, 90
9, 12236, Note_off_c, 9, 40, 80
9, 12236, Note_off_c, 9, 44, 80
9, 12240, Note_on_c, 9, 36, 102
9, 12240, Note_on_c, 9, 44, 90
9, 12476, Note_off_c, 9, 36, 80
9, 12476, Note_off_c, 9, 44, 80
9, 12480, Note_on_c, 9, 44, 90
9, 12716, Note_off_c, 9, 44, 80
9, 12720, Note_on_c, 9, 36, 102
9, 12720, Note_on_c, 9, 44, 90
9, 12956, Note_off_c, 9, 36, 80
9, 12956, Note_off_c, 9, 44, 80
9, 12960, Note_on_c, 9, 40, 104
9, 12960, Note_on_c, 9, 44, 90
9, 13196, Note_off_c, 9, 40, 80
9, 13196, Note_off_c, 9, 44, 80
9, 13200, Note_on_c, 9, 44, 90
9, 13436, Note_off_c, 9, 44, 80
9, 13440, Note_on_c, 9, 36, 102
9, 13440, Note_on_c, 9, 44, 90
9, 13676, Note_off_c, 9, 36, 80
9, 13676, Note_off_c, 9, 44, 80
9, 13680, Note_on_c, 9, 44, 90
9, 13916, Note_off_c, 9, 44, 80
9, 13920, Note_on_c, 9, 40, 104
9, 13920, Note_on_c, 9, 44, 90
9, 14156, Note_off_c, 9, 40, 80
9, 14156, Note_off_c, 9, 44, 80
9, 14160, Note_on_c, 9, 36, 102
9, 14160, Note_on_c, 9, 44, 90
9, 14396, Note_off_c, 9, 36, 80
9, 14396, Note_off_c, 9, 44, 80
9, 14400, Note_on_c, 9, 44, 90
9, 14636, Note_off_c, 9, 44, 80
9, 14640, Note_on_c, 9, 36, 102
9, 14640, Note_on_c, 9, 44, 90
9, 14876, Note_off_c, 9, 36, 80
9, 14876, Note_off_c, 9, 44, 80
9, 14880, Note_on_c, 9, 40, 104
9, 14880, Note_on_c, 9, 44, 90
9, 15116, Note_off_c, 9, 40, 80
9, 15116, Note_off_c, 9, 44, 80
9, 15120, Note_on_c, 9, 44, 90
9, 15356, Note_off_c, 9, 44, 80
9, 15360, Note_on_c, 9, 36, 102
9, 15360, Note_on_c, 9, 44, 90
9, 15596, Note_off_c, 9, 36, 80
9, 15596, Note_off_c, 9, 44, 80
9, 15600, Note_on_c, 9, 44, 90
9, 15836, Note_off_c, 9, 44, 80
9, 15840, Note_on_c, 9, 40, 104
9, 15840, Note_on_c, 9, 44, 90
9, 16076, Note_off_c, 9, 40, 80
9, 16076, Note_off_c, 9, 44, 80
9, 16080, Note_on_c, 9, 36, 102
9, 16080, Note_on_c, 9, 44, 90
9, 16316, Note_off_c, 9, 36, 80
9, 16316, Note_off_c, 9, 44, 80
9, 16320, Note_on_c, 9, 44, 90
9, 16556, Note_off_c, 9, 44, 80
9, 16560, Note_on_c, 9, 36, 102
9, 16560, Note_on_c, 9, 44, 90
9, 16796, Note_off_c, 9, 36, 80
9, 16796, Note_off_c, 9, 44, 80
9, 16800, Note_on_c, 9, 40, 104
9, 16800, Note_on_c, 9, 44, 90
9, 17036, Note_off_c, 9, 40, 80
9, 17036, Note_off_c, 9, 44, 80
9, 17040, Note_on_c, 9, 44, 90
9, 17276, Note_off_c, 9, 44, 80
9, 17280, Note_on_c, 9, 36, 102
9, 17280, Note_on_c, 9, 44, 90
9, 17280, Note_on_c, 9, 49, 78
9, 17516, Note_off_c, 9, 36, 80
9, 17516, Note_off_c, 9, 44, 80
9, 17516, Note_off_c, 9, 49, 80
9, 17520, Note_on_c, 9, 44, 90
9, 17756, Note_off_c, 9, 44, 80
9, 17760, Note_on_c, 9, 40, 104
9, 17760, Note_on_c, 9, 44, 90
9, 17996, Note_off_c, 9, 40, 80
9, 17996, Note_off_c, 9, 44, 80
9, 18000, Note_on_c, 9, 36, 102
9, 18000, Note_on_c, 9, 44, 90
9, 18236, Note_off_c, 9, 36, 80
9, 18236, Note_off_c, 9, 44, 80
9, 18240, Note_on_c, 9, 44, 90
9, 18476, Note_off_c, 9, 44, 80
9, 18480, Note_on_c, 9, 36, 102
9, 18480, Note_on_c, 9, 44, 90
9, 18716, Note_off_c, 9, 36, 80
9, 18716, Note_off_c, 9, 44, 80
9, 18720, Note_on_c, 9, 40, 104
9, 18720, Note_on_c, 9, 44, 90
9, 18956, Note_off_c, 9, 40, 80
9, 18956, Note_off_c, 9, 44, 80
9, 18960, Note_on_c, 9, 44, 90
9, 19196, Note_off_c, 9, 44, 80
9, 19200, Note_on_c, 9, 36, 102
9, 19200, Note_on_c, 9, 44, 90
9, 19436, Note_off_c, 9, 36, 80
9, 19436, Note_off_c, 9, 44, 80
9, 19440, Note_on_c, 9, 44, 90
9, 19676, Note_off_c, 9, 44, 80
9, 19680, Note_on_c, 9, 40, 104
9, 19680, Note_on_c, 9, 44, 90
9, 19916, Note_off_c, 9, 40, 80
9, 19916, Note_off_c, 9, 44, 80
9, 19920, Note_on_c, 9, 36, 102
9, 19920, Note_on_c, 9, 44, 90
9, 20156, Note_off_c, 9, 36, 80
9, 20156, Note_off_c, 9, 44, 80
9, 20160, Note_on_c, 9, 44, 90
9, 20396, Note_off_c, 9, 44, 80
9, 20400, Note_on_c, 9, 36, 102
9, 20400, Note_on_c, 9, 44, 90
9, 20636, Note_off_c, 9, 36, 80
9, 20636, Note_off_c, 9, 44, 80
9, 20640, Note_on_c, 9, 40, 104
9, 20640, Note_on_c, 9, 44, 90
9, 20876, Note_off_c, 9, 40, 80
9, 20876, Note_off_c, 9, 44, 80
9, 20880, Note_on_c, 9, 44, 90
9, 21116, Note_off_c, 9, 44, 80
9, 21120, Note_on_c, 9, 36, 102
9, 21120, Note_on_c, 9, 44, 90
9, 21356, Note_off_c, 9, 36, 80
9, 21356, Note_off_c, 9, 44, 80
9, 21360, Note_on_c, 9, 44, 90
9, 21596, Note_off_c, 9, 44, 80
9, 21600, Note_on_c, 9, 40, 104
9, 21600, Note_on_c, 9, 44, 90
9, 21836, Note_off_c, 9, 40, 80
9, 21836, Note_off_c, 9, 44, 80
9, 21840, Note_on_c, 9, 36, 102
9, 21840, Note_on_c, 9, 44, 90
9, 22076, Note_off_c, 9, 36, 80
9, 22076, Note_off_c, 9, 44, 80
9, 22080, Note_on_c, 9, 44, 90
9, 22316, Note_off_c, 9, 44, 80
9, 22320, Note_on_c, 9, 36, 102
9, 22320, Note_on_c, 9, 44, 90
9, 22556, Note_off_c, 9, 36, 80
9, 22556, Note_off_c, 9, 44, 80
9, 22560, Note_on_c, 9, 40, 104
9, 22560, Note_on_c, 9, 44, 90
9, 22796, Note_off_c, 9, 40, 80
9, 22796, Note_off_c, 9, 44, 80
9, 22800, Note_on_c, 9, 44, 90
9, 23036, Note_off_c, 9, 44, 80
9, 23040, Note_on_c, 9, 36, 102
9, 23040, Note_on_c, 9, 44, 90
9, 23276, Note_off_c, 9, 36, 80
9, 23276, Note_off_c, 9, 44, 80
9, 23280, Note_on_c, 9, 44, 90
9, 23516, Note_off_c, 9, 44, 80
9, 23520, Note_on_c, 9, 40, 104
9, 23520, Note_on_c, 9, 44, 90
9, 23756, Note_off_c, 9, 40, 80
9, 23756, Note_off_c, 9, 44, 80
9, 23760, Note_on_c, 9, 36, 102
9, 23760, Note_on_c, 9, 44, 90
9, 23996, Note_off_c, 9, 36, 80
9, 23996, Note_off_c, 9, 44, 80
9, 24000, Note_on_c, 9, 44, 90
9, 24236, Note_off_c, 9, 44, 80
9, 24240, Note_on_c, 9, 36, 102
9, 24240, Note_on_c, 9, 44, 90
9, 24476, Note_off_c, 9, 36, 80
9, 24476, Note_off_c, 9, 44, 80
9, 24480, Note_on_c, 9, 40, 104
9, 24480, Note_on_c, 9, 44, 90
9, 24716, Note_off_c, 9, 40, 80
9, 24716, Note_off_c, 9, 44, 80
9, 24720, Note_on_c, 9, 44, 90
9, 24956, Note_off_c, 9, 44, 80
9, 24960, Note_on_c, 9, 36, 102
9, 24960, Note_on_c, 9, 44, 90
9, 25196, Note_off_c, 9, 36, 80
9, 25196, Note_off_c, 9, 44, 80
9, 25200, Note_on_c, 9, 44, 90
9, 25436, Note_off_c, 9, 44, 80
9, 25440, Note_on_c, 9, 40, 104
9, 25440, Note_on_c, 9, 44, 90
9, 25676, Note_off_c, 9, 40, 80
9, 25676, Note_off_c, 9, 44, 80
9, 25680, Note_on_c, 9, 36, 102
9, 25680, Note_on_c, 9, 44, 90
9, 25916, Note_off_c, 9, 36, 80
9, 25916, Note_off_c, 9, 44, 80
9, 25920, Note_on_c, 9, 44, 90
9, 26156, Note_off_c, 9, 44, 80
9, 26160, Note_on_c, 9, 36, 102
9, 26160, Note_on_c, 9, 44, 90
9, 26396, Note_off_c, 9, 36, 80
9, 26396, Note_off_c, 9, 44, 80
9, 26400, Note_on_c, 9, 40, 104
9, 26400, Note_on_c, 9, 44, 90
9, 26636, Note_off_c, 9, 40, 80
9, 26636, Note_off_c, 9, 44, 80
9, 26640, Note_on_c, 9, 44, 90
9, 26876, Note_off_c, 9, 44, 80
9, 26880, Note_on_c, 9, 36, 102
9, 26880, Note_on_c, 9, 44, 90
9, 27116, Note_off_c, 9, 36, 80
9, 27116, Note_off_c, 9, 44, 80
9, 27120, Note_on_c, 9, 44, 90
9, 27356, Note_off_c, 9, 44, 80
9, 27360, Note_on_c, 9, 40, 104
9, 27360, Note_on_c, 9, 44, 90
9, 27596, Note_off_c, 9, 40, 80
9, 27596, Note_off_c, 9, 44, 80
9, 27600, Note_on_c, 9, 36, 102
9, 27600, Note_on_c, 9, 44, 90
9, 27836, Note_off_c, 9, 36, 80
9, 27836, Note_off_c, 9, 44, 80
9, 27840, Note_on_c, 9, 44, 90
9, 28076, Note_off_c, 9, 44, 80
9, 28080, Note_on_c, 9, 36, 102
9, 28080, Note_on_c, 9, 44, 90
9, 28316, Note_off_c, 9, 36, 80
9, 28316, Note_off_c, 9, 44, 80
9, 28320, Note_on_c, 9, 40, 104
9, 28320, Note_on_c, 9, 44, 90
9, 28556, Note_off_c, 9, 40, 80
9, 28556, Note_off_c, 9, 44, 80
9, 28560, Note_on_c, 9, 44, 90
9, 28796, Note_off_c, 9, 44, 80
9, 28800, Note_on_c, 9, 36, 102
9, 28800, Note_on_c, 9, 44, 90
9, 29036, Note_off_c, 9, 36, 80
9, 29036, Note_off_c, 9, 44, 80
9, 29040, Note_on_c, 9, 44, 90
9, 29276, Note_off_c, 9, 44, 80
9, 29280, Note_on_c, 9, 40, 104
9, 29280, Note_on_c, 9, 44, 90
9, 29516, Note_off_c, 9, 40, 80
9, 29516, Note_off_c, 9, 44, 80
9, 29520, Note_on_c, 9, 36, 102
9, 29520, Note_on_c, 9, 44, 90
9, 29756, Note_off_c, 9, 36, 80
9, 29756, Note_off_c, 9, 44, 80
9, 29760, Note_on_c, 9, 44, 90
9, 29996, Note_off_c, 9, 44, 80
9, 30000, Note_on_c, 9, 36, 102
9, 30000, Note_on_c, 9, 44, 90
9, 30236, Note_off_c, 9, 36, 80
9, 30236, Note_off_c, 9, 44, 80
9, 30240, Note_on_c, 9, 40, 104
9, 30240, Note_on_c, 9, 44, 90
9, 30476, Note_off_c, 9, 40, 80
9, 30476, Note_off_c, 9, 44, 80
9, 30480, Note_on_c, 9, 44, 90
9, 30716, Note_off_c, 9, 44, 80
9, 30720, Note_on_c, 9, 36, 102
9, 30720, Note_on_c, 9, 44, 90
9, 30956, Note_off_c, 9, 36, 80
9, 30956, Note_off_c, 9, 44, 80
9, 30960, Note_on_c, 9, 44, 90
9, 31196, Note_off_c, 9, 44, 80
9, 31200, Note_on_c, 9, 40, 104
9, 31200, Note_on_c, 9, 44, 90
9, 31436, Note_off_c, 9, 40, 80
9, 31436, Note_off_c, 9, 44, 80
9, 31440, Note_on_c, 9, 36, 102
9, 31440, Note_on_c, 9, 44, 90
9, 31676, Note_off_c, 9, 36, 80
9, 31676, Note_off_c, 9, 44, 80
9, 31680, Note_on_c, 9, 44, 90
9, 31916, Note_off_c, 9, 44, 80
9, 31920, Note_on_c, 9, 36, 102
9, 31920, Note_on_c, 9, 44, 90
9, 32156, Note_off_c, 9, 36, 80
9, 32156, Note_off_c, 9, 44, 80
9, 32160, Note_on_c, 9, 40, 104
9, 32160, Note_on_c, 9, 44, 90
9, 32396, Note_off_c, 9, 40, 80
9, 32396, Note_off_c, 9, 44, 80
9, 32400, Note_on_c, 9, 44, 90
9, 32636, Note_off_c, 9, 44, 80
9, 32640, Note_on_c, 9, 36, 102
9, 32640, Note_on_c, 9, 44, 90
9, 32876, Note_off_c, 9, 36, 80
9, 32876, Note_off_c, 9, 44, 80
9, 32880, Note_on_c, 9, 44, 90
9, 33116, Note_off_c, 9, 44, 80
9, 33120, Note_on_c, 9, 40, 104
9, 33120, Note_on_c, 9, 44, 90
9, 33356, Note_off_c, 9, 40, 80
9, 33356, Note_off_c, 9, 44, 80
9, 33360, Note_on_c, 9, 36, 102
9, 33360, Note_on_c, 9, 44, 90
9, 33596, Note_off_c, 9, 36, 80
9, 33596, Note_off_c, 9, 44, 80
9, 33600, Note_on_c, 9, 44, 90
9, 33836, Note_off_c, 9, 44, 80
9, 33840, Note_on_c, 9, 36, 102
9, 33840, Note_on_c, 9, 44, 90
9, 34076, Note_off_c, 9, 36, 80
9, 34076, Note_off_c, 9, 44, 80
9, 34080, Note_on_c, 9, 40, 104
9, 34080, Note_on_c, 9, 44, 90
9, 34316, Note_off_c, 9, 40, 80
9, 34316, Note_off_c, 9, 44, 80
9, 34320, Note_on_c, 9, 44, 90
9, 34556, Note_off_c, 9, 44, 80
9, 34560, Note_on_c, 9, 36, 102
9, 34560, Note_on_c, 9, 44, 90
9, 34796, Note_off_c, 9, 36, 80
9, 34796, Note_off_c, 9, 44, 80
9, 34800, Note_on_c, 9, 44, 90
9, 35036, Note_off_c, 9, 44, 80
9, 35040, Note_on_c, 9, 40, 104
9, 35040, Note_on_c, 9, 44, 90
9, 35276, Note_off_c, 9, 40, 80
9, 35276, Note_off_c, 9, 44, 80
9, 35280, Note_on_c, 9, 36, 102
9, 35280, Note_on_c, 9, 44, 90
9, 35516, Note_off_c, 9, 36, 80
9, 35516, Note_off_c, 9, 44, 80
9, 35520, Note_on_c, 9, 44, 90
9, 35756, Note_off_c, 9, 44, 80
9, 35760, Note_on_c, 9, 36, 102
9, 35760, Note_on_c, 9, 44, 90
9, 35996, Note_off_c, 9, 36, 80
9, 35996, Note_off_c, 9, 44, 80
9, 36000, Note_on_c, 9, 40, 104
9, 36000, Note_on_c, 9, 44, 90
9, 36236, Note_off_c, 9, 40, 80
9, 36236, Note_off_c, 9, 44, 80
9, 36240, Note_on_c, 9, 44, 90
9, 36476, Note_off_c, 9, 44, 80
9, 36480, Note_on_c, 9, 36, 102
9, 36480, Note_on_c, 9, 44, 90
9, 36716, Note_off_c, 9, 36, 80
9, 36716, Note_off_c, 9, 44, 80
9, 36720, Note_on_c, 9, 44, 90
9, 36956, Note_off_c, 9, 44, 80
9, 36960, Note_on_c, 9, 40, 104
9, 36960, Note_on_c, 9, 44, 90
9, 37196, Note_off_c, 9, 40, 80
9, 37196, Note_off_c, 9, 44, 80
9, 37200, Note_on_c, 9, 36, 102
9, 37200, Note_on_c, 9, 44, 90
9, 37436, Note_off_c, 9, 36, 80
9, 37436, Note_off_c, 9, 44, 80
9, 37440, Note_on_c, 9, 44, 90
9, 37676, Note_off_c, 9, 44, 80
9, 37680, Note_on_c, 9, 36, 102
9, 37680, Note_on_c, 9, 44, 90
9, 37916, Note_off_c, 9, 36, 80
9, 37916, Note_off_c, 9, 44, 80
9, 37920, Note_on_c, 9, 40, 104
9, 37920, Note_on_c, 9, 44, 90
9, 38156, Note_off_c, 9, 40, 80
9, 38156, Note_off_c, 9, 44, 80
9, 38160, Note_on_c, 9, 44, 90
9, 38396, Note_off_c, 9, 44, 80
9, 38400, Note_on_c, 9, 36, 102
9, 38400, Note_on_c, 9, 44, 90
9, 38636, Note_off_c, 9, 36, 80
9, 38636, Note_off_c, 9, 44, 80
9, 38640, Note_on_c, 9, 44, 90
9, 38876, Note_off_c, 9, 44, 80
9, 38880, Note_on_c, 9, 40, 104
9, 38880, Note_on_c, 9, 44, 90
9, 39116, Note_off_c, 9, 40, 80
9, 39116, Note_off_c, 9, 44, 80
9, 39120, Note_on_c, 9, 36, 102
9, 39120, Note_on_c, 9, 44, 90
9, 39356, Note_off_c, 9, 36, 80
9, 39356, Note_off_c, 9, 44, 80
9, 39360, Note_on_c, 9, 44, 90
9, 39596, Note_off_c, 9, 44, 80
9, 39600, Note_on_c, 9, 36, 102
9, 39600, Note_on_c, 9, 44, 90
9, 39836, Note_off_c, 9, 36, 80
9, 39836, Note_off_c, 9, 44, 80
9, 39840, Note_on_c, 9, 40, 104
9, 39840, Note_on_c, 9, 44, 90
9, 40076, Note_off_c, 9, 40, 80
9, 40076, Note_off_c, 9, 44, 80
9, 40080, Note_on_c, 9, 44, 90
9, 40316, Note_off_c, 9, 44, 80
9, 40320, Note_on_c, 9, 36, 102
9, 40320, Note_on_c, 9, 44, 90
9, 40556, Note_off_c, 9, 36, 80
9, 40556, Note_off_c, 9, 44, 80
9, 40560, Note_on_c, 9, 44, 90
9, 40796, Note_off_c, 9, 44, 80
9, 40800, Note_on_c, 9, 40, 104
9, 40800, Note_on_c, 9, 44, 90
9, 41036, Note_off_c, 9, 40, 80
9, 41036, Note_off_c, 9, 44, 80
9, 41040, Note_on_c, 9, 36, 102
9, 41040, Note_on_c, 9, 44, 90
9, 41276, Note_off_c, 9, 36, 80
9, 41276, Note_off_c, 9, 44, 80
9, 41280, Note_on_c, 9, 44, 90
9, 41516, Note_off_c, 9, 44, 80
9, 41520, Note_on_c, 9, 36, 102
9, 41520, Note_on_c, 9, 44, 90
9, 41756, Note_off_c, 9, 36, 80
9, 41756, Note_off_c, 9, 44, 80
9, 41760, Note_on_c, 9, 40, 104
9, 41760, Note_on_c, 9, 44, 90
9, 41996, Note_off_c, 9, 40, 80
9, 41996, Note_off_c, 9, 44, 80
9, 42000, Note_on_c, 9, 44, 90
9, 42236, Note_off_c, 9, 44, 80
9, 42240, Note_on_c, 9, 36, 102
9, 42240, Note_on_c, 9, 44, 90
9, 42476, Note_off_c, 9, 36, 80
9, 42476, Note_off_c, 9, 44, 80
9, 42480, Note_on_c, 9, 44, 90
9, 42716, Note_off_c, 9, 44, 80
9, 42720, Note_on_c, 9, 40, 104
9, 42720, Note_on_c, 9, 44, 90
9, 42956, Note_off_c, 9, 40, 80
9, 42956, Note_off_c, 9, 44, 80
9, 42960, Note_on_c, 9, 36, 102
9, 42960, Note_on_c, 9, 44, 90
9, 43196, Note_off_c, 9, 36, 80
9, 43196, Note_off_c, 9, 44, 80
9, 43200, Note_on_c, 9, 44, 90
9, 43436, Note_off_c, 9, 44, 80
9, 43440, Note_on_c, 9, 36, 102
9, 43440, Note_on_c, 9, 44, 90
9, 43676, Note_off_c, 9, 36, 80
9, 43676, Note_off_c, 9, 44, 80
9, 43680, Note_on_c, 9, 40, 104
9, 43680, Note_on_c, 9, 44, 90
9, 43916, Note_off_c, 9, 40, 80
9, 43916, Note_off_c, 9, 44, 80
9, 43920, Note_on_c, 9, 44, 90
9, 44156, Note_off_c, 9, 44, 80
9, 44160, Note_on_c, 9, 36, 102
9, 44160, Note_on_c, 9, 44, 90
9, 44396, Note_off_c, 9, 36, 80
9, 44396, Note_off_c, 9, 44, 80
9, 44400, Note_on_c, 9, 44, 90
9, 44636, Note_off_c, 9, 44, 80
9, 44640, Note_on_c, 9, 40, 104
9, 44640, Note_on_c, 9, 44, 90
9, 44876, Note_off_c, 9, 40, 80
9, 44876, Note_off_c, 9, 44, 80
9, 44880, Note_on_c, 9, 36, 102
9, 44880, Note_on_c, 9, 44, 90
9, 45116, Note_off_c, 9, 36, 80
9, 45116, Note_off_c, 9, 44, 80
9, 45120, Note_on_c, 9, 44, 90
9, 45356, Note_off_c, 9, 44, 80
9, 45360, Note_on_c, 9, 36, 102
9, 45360, Note_on_c, 9, 44, 90
9, 45596, Note_off_c, 9, 36, 80
9, 45596, Note_off_c, 9, 44, 80
9, 45600, Note_on_c, 9, 40, 104
9, 45600, Note_on_c, 9, 44, 90
9, 45836, Note_off_c, 9, 40, 80
9, 45836, Note_off_c, 9, 44, 80
9, 45840, Note_on_c, 9, 44, 90
9, 46076, Note_off_c, 9, 44, 80
9, 46080, Note_on_c, 9, 36, 102
9, 46080, Note_on_c, 9, 44, 90
9, 46316, Note_off_c, 9, 36, 80
9, 46316, Note_off_c, 9, 44, 80
9, 46320, Note_on_c, 9, 44, 90
9, 46556, Note_off_c, 9, 44, 80
9, 46560, Note_on_c, 9, 40, 104
9, 46560, Note_on_c, 9, 44, 90
9, 46796, Note_off_c, 9, 40, 80
9, 46796, Note_off_c, 9, 44, 80
9, 46800, Note_on_c, 9, 36, 102
9, 46800, Note_on_c, 9, 44, 90
9, 47036, Note_off_c, 9, 36, 80
9, 47036, Note_off_c, 9, 44, 80
9, 47040, Note_on_c, 9, 44, 90
9, 47276, Note_off_c, 9, 44, 80
9, 47280, Note_on_c, 9, 36, 102
9, 47280, Note_on_c, 9, 44, 90
9, 47516, Note_off_c, 9, 36, 80
9, 47516, Note_off_c, 9, 44, 80
9, 47520, Note_on_c, 9, 40, 104
9, 47520, Note_on_c, 9, 44, 90
9, 47756, Note_off_c, 9, 40, 80
9, 47756, Note_off_c, 9, 44, 80
9, 47760, Note_on_c, 9, 44, 90
9, 47996, Note_off_c, 9, 44, 80
9, 48000, Note_on_c, 9, 36, 102
9, 48000, Note_on_c, 9, 44, 90
9, 48236, Note_off_c, 9, 36, 80
9, 48236, Note_off_c, 9, 44, 80
9, 48240, Note_on_c, 9, 44, 90
9, 48476, Note_off_c, 9, 44, 80
9, 48480, Note_on_c, 9, 40, 104
9, 48480, Note_on_c, 9, 44, 90
9, 48716, Note_off_c, 9, 40, 80
9, 48716, Note_off_c, 9, 44, 80
9, 48720, Note_on_c, 9, 36, 102
9, 48720, Note_on_c, 9, 44, 90
9, 48956, Note_off_c, 9, 36, 80
9, 48956, Note_off_c, 9, 44, 80
9, 48960, Note_on_c, 9, 44, 90
9, 49196, Note_off_c, 9, 44, 80
9, 49200, Note_on_c, 9, 36, 102
9, 49200, Note_on_c, 9, 44, 90
9, 49436, Note_off_c, 9, 36, 80
9, 49436, Note_off_c, 9, 44, 80
9, 49440, Note_on_c, 9, 40, 104
9, 49440, Note_on_c, 9, 44, 90
9, 49676, Note_off_c, 9, 40, 80
9, 49676, Note_off_c, 9, 44, 80
9, 49680, Note_on_c, 9, 44, 90
9, 49916, Note_off_c, 9, 44, 80
9, 49920, Note_on_c, 9, 36, 102
9, 49920, Note_on_c, 9, 44, 90
9, 50156, Note_off_c, 9, 36, 80
9, 50156, Note_off_c, 9, 44, 80
9, 50160, Note_on_c, 9, 44, 90
9, 50396, Note_off_c, 9, 44, 80
9, 50400, Note_on_c, 9, 40, 104
9, 50400, Note_on_c, 9, 44, 90
9, 50636, Note_off_c, 9, 40, 80
9, 50636, Note_off_c, 9, 44, 80
9, 50640, Note_on_c, 9, 36, 102
9, 50640, Note_on_c, 9, 44, 90
9, 50876, Note_off_c, 9, 36, 80
9, 50876, Note_off_c, 9, 44, 80
9, 50880, Note_on_c, 9, 44, 90
9, 51116, Note_off_c, 9, 44, 80
9, 51120, Note_on_c, 9, 36, 102
9, 51120, Note_on_c, 9, 44, 90
9, 51356, Note_off_c, 9, 36, 80
9, 51356, Note_off_c, 9, 44, 80
9, 51360, Note_on_c, 9, 40, 104
9, 51360, Note_on_c, 9, 44, 90
9, 51596, Note_off_c, 9, 40, 80
9, 51596, Note_off_c, 9, 44, 80
9, 51600, Note_on_c, 9, 44, 90
9, 51836, Note_off_c, 9, 44, 80
9, 51840, Note_on_c, 9, 36, 102
9, 51840, Note_on_c, 9, 44, 90
9, 52076, Note_off_c, 9, 36, 80
9, 52076, Note_off_c, 9, 44, 80
9, 52080, Note_on_c, 9, 44, 90
9, 52316, Note_off_c, 9, 44, 80
9, 52320, Note_on_c, 9, 40, 104
9, 52320, Note_on_c, 9, 44, 90
9, 52556, Note_off_c, 9, 40, 80
9, 52556, Note_off_c, 9, 44, 80
9, 52560, Note_on_c, 9, 36, 102
9, 52560, Note_on_c, 9, 44, 90
9, 52796, Note_off_c, 9, 36, 80
9, 52796, Note_off_c, 9, 44, 80
9, 52800, Note_on_c, 9, 44, 90
9, 53036, Note_off_c, 9, 44, 80
9, 53040, Note_on_c, 9, 36, 102
9, 53040, Note_on_c, 9, 44, 90
9, 53276, Note_off_c, 9, 36, 80
9, 53276, Note_off_c, 9, 44, 80
9, 53280, Note_on_c, 9, 40, 104
9, 53280, Note_on_c, 9, 44, 90
9, 53516, Note_off_c, 9, 40, 80
9, 53516, Note_off_c, 9, 44, 80
9, 53520, Note_on_c, 9, 44, 90
9, 53756, Note_off_c, 9, 44, 80
9, 53760, Note_on_c, 9, 36, 102
9, 53760, Note_on_c, 9, 44, 90
9, 53996, Note_off_c, 9, 36, 80
9, 53996, Note_off_c, 9, 44, 80
9, 54000, Note_on_c, 9, 44, 90
9, 54236, Note_off_c, 9, 44, 80
9, 54240, Note_on_c, 9, 40, 104
9, 54240, Note_on_c, 9, 44, 90
9, 54476, Note_off_c, 9, 40, 80
9, 54476, Note_off_c, 9, 44, 80
9, 54480, Note_on_c, 9, 36, 102
9, 54480, Note_on_c, 9, 44, 90
9, 54716, Note_off_c, 9, 36, 80
9, 54716, Note_off_c, 9, 44, 80
9, 54720, Note_on_c, 9, 44, 90
9, 54956, Note_off_c, 9, 44, 80
9, 54960, Note_on_c, 9, 36, 102
9, 54960, Note_on_c, 9, 44, 90
9, 55196, Note_off_c, 9, 36, 80
9, 55196, Note_off_c, 9, 44, 80
9, 55200, Note_on_c, 9, 40, 104
9, 55200, Note_on_c, 9, 44, 90
9, 55436, Note_off_c, 9, 40, 80
9, 55436, Note_off_c, 9, 44, 80
9, 55440, Note_on_c, 9, 44, 90
9, 55676, Note_off_c, 9, 44, 80
9, 55680, Note_on_c, 9, 36, 102
9, 55680, Note_on_c, 9, 44, 90
9, 55916, Note_off_c, 9, 36, 80
9, 55916, Note_off_c, 9, 44, 80
9, 55920, Note_on_c, 9, 44, 90
9, 56156, Note_off_c, 9, 44, 80
9, 56160, Note_on_c, 9, 40, 104
9, 56160, Note_on_c, 9, 44, 90
9, 56396, Note_off_c, 9, 40, 80
9, 56396, Note_off_c, 9, 44, 80
9, 56400, Note_on_c, 9, 36, 102
9, 56400, Note_on_c, 9, 44, 90
9, 56636, Note_off_c, 9, 36, 80
9, 56636, Note_off_c, 9, 44, 80
9, 56640, Note_on_c, 9, 44, 90
9, 56876, Note_off_c, 9, 44, 80
9, 56880, Note_on_c, 9, 36, 102
9, 56880, Note_on_c, 9, 44, 90
9, 57116, Note_off_c, 9, 36, 80
9, 57116, Note_off_c, 9, 44, 80
9, 57120, Note_on_c, 9, 40, 104
9, 57120, Note_on_c, 9, 44, 90
9, 57356, Note_off_c, 9, 40, 80
9, 57356, Note_off_c, 9, 44, 80
9, 57360, Note_on_c, 9, 44, 90
9, 57596, Note_off_c, 9, 44, 80
9, 57600, Note_on_c, 9, 36, 102
9, 57600, Note_on_c, 9, 44, 90
9, 57836, Note_off_c, 9, 36, 80
9, 57836, Note_off_c, 9, 44, 80
9, 57840, Note_on_c, 9, 44, 90
9, 58076, Note_off_c, 9, 44, 80
9, 58080, Note_on_c, 9, 40, 104
9, 58080, Note_on_c, 9, 44, 90
9, 58316, Note_off_c, 9, 40, 80
9, 58316, Note_off_c, 9, 44, 80
9, 58320, Note_on_c, 9, 36, 102
9, 58320, Note_on_c, 9, 44, 90
9, 58556, Note_off_c, 9, 36, 80
9, 58556, Note_off_c, 9, 44, 80
9, 58560, Note_on_c, 9, 44, 90
9, 58796, Note_off_c, 9, 44, 80
9, 58800, Note_on_c, 9, 36, 102
9, 58800, Note_on_c, 9, 44, 90
9, 59036, Note_off_c, 9, 36, 80
9, 59036, Note_off_c, 9, 44, 80
9, 59040, Note_on_c, 9, 40, 104
9, 59040, Note_on_c, 9, 44, 90
9, 59276, Note_off_c, 9, 40, 80
9, 59276, Note_off_c, 9, 44, 80
9, 59280, Note_on_c, 9, 44, 90
9, 59516, Note_off_c, 9, 44, 80
9, 59520, Note_on_c, 9, 36, 102
9, 59520, Note_on_c, 9, 44, 90
9, 59756, Note_off_c, 9, 36, 80
9, 59756, Note_off_c, 9, 44, 80
9, 59760, Note_on_c, 9, 44, 90
9, 59996, Note_off_c, 9, 44, 80
9, 60000, Note_on_c, 9, 40, 104
9, 60000, Note_on_c, 9, 44, 90
9, 60236, Note_off_c, 9, 40, 80
9, 60236, Note_off_c, 9, 44, 80
9, 60240, Note_on_c, 9, 36, 102
9, 60240, Note_on_c, 9, 44, 90
9, 60476, Note_off_c, 9, 36, 80
9, 60476, Note_off_c, 9, 44, 80
9, 60480, Note_on_c, 9, 44, 90
9, 60716, Note_off_c, 9, 44, 80
9, 60720, Note_on_c, 9, 36, 102
9, 60720, Note_on_c, 9, 44, 90
9, 60956, Note_off_c, 9, 36, 80
9, 60956, Note_off_c, 9, 44, 80
9, 60960, Note_on_c, 9, 40, 104
9, 60960, Note_on_c, 9, 44, 90
9, 61196, Note_off_c, 9, 40, 80
9, 61196, Note_off_c, 9, 44, 80
9, 61200, Note_on_c, 9, 44, 90
9, 61436, Note_off_c, 9, 44, 80
9, 61440, Note_on_c, 9, 36, 102
9, 61440, Note_on_c, 9, 44, 90
9, 61676, Note_off_c, 9, 36, 80
9, 61676, Note_off_c, 9, 44, 80
9, 61680, Note_on_c, 9, 44, 90
9, 61916, Note_off_c, 9, 44, 80
9, 61920, Note_on_c, 9, 40, 104
9, 61920, Note_on_c, 9, 44, 90
9, 62156, Note_off_c, 9, 40, 80
9, 62156, Note_off_c, 9, 44, 80
9, 62160, Note_on_c, 9, 36, 102
9, 62160, Note_on_c, 9, 44, 90
9, 62396, Note_off_c, 9, 36, 80
9, 62396, Note_off_c, 9, 44, 80
9, 62400, Note_on_c, 9, 44, 90
9, 62636, Note_off_c, 9, 44, 80
9, 62640, Note_on_c, 9, 36, 102
9, 62640, Note_on_c, 9, 44, 90
9, 62876, Note_off_c, 9, 36, 80
9, 62876, Note_off_c, 9, 44, 80
9, 62880, Note_on_c, 9, 40, 104
9, 62880, Note_on_c, 9, 44, 90
9, 63116, Note_off_c, 9, 40, 80
9, 63116, Note_off_c, 9, 44, 80
9, 63120, Note_on_c, 9, 44, 90
9, 63356, Note_off_c, 9, 44, 80
9, 63360, Note_on_c, 9, 36, 102
9, 63360, Note_on_c, 9, 44, 90
9, 63596, Note_off_c, 9, 36, 80
9, 63596, Note_off_c, 9, 44, 80
9, 63600, Note_on_c, 9, 44, 90
9, 63836, Note_off_c, 9, 44, 80
9, 63840, Note_on_c, 9, 40, 104
9, 63840, Note_on_c, 9, 44, 90
9, 64076, Note_off_c, 9, 40, 80
9, 64076, Note_off_c, 9, 44, 80
9, 64080, Note_on_c, 9, 36, 102
9, 64080, Note_on_c, 9, 44, 90
9, 64316, Note_off_c, 9, 36, 80
9, 64316, Note_off_c, 9, 44, 80
9, 64320, Note_on_c, 9, 44, 90
9, 64556, Note_off_c, 9, 44, 80
9, 64560, Note_on_c, 9, 36, 102
9, 64560, Note_on_c, 9, 44, 90
9, 64796, Note_off_c, 9, 36, 80
9, 64796, Note_off_c, 9, 44, 80
9, 64800, Note_on_c, 9, 40, 104
9, 64800, Note_on_c, 9, 44, 90
9, 65036, Note_off_c, 9, 40, 80
9, 65036, Note_off_c, 9, 44, 80
9, 65040, Note_on_c, 9, 44, 90
9, 65276, Note_off_c, 9, 44, 80
9, 65280, Note_on_c, 9, 36, 102
9, 65280, Note_on_c, 9, 44, 90
9, 65516, Note_off_c, 9, 36, 80
9, 65516, Note_off_c, 9, 44, 80
9, 65520, Note_on_c, 9, 44, 90
9, 65756, Note_off_c, 9, 44, 80
9, 65760, Note_on_c, 9, 40, 104
9, 65760, Note_on_c, 9, 44, 90
9, 65996, Note_off_c, 9, 40, 80
9, 65996, Note_off_c, 9, 44, 80
9, 66000, Note_on_c, 9, 36, 102
9, 66000, Note_on_c, 9, 44, 90
9, 66236, Note_off_c, 9, 36, 80
9, 66236, Note_off_c, 9, 44, 80
9, 66240, Note_on_c, 9, 44, 90
9, 66476, Note_off_c, 9, 44, 80
9, 66480, Note_on_c, 9, 36, 102
9, 66480, Note_on_c, 9, 44, 90
9, 66716, Note_off_c, 9, 36, 80
9, 66716, Note_off_c, 9, 44, 80
9, 66720, Note_on_c, 9, 40, 104
9, 66720, Note_on_c, 9, 44, 90
9, 66956, Note_off_c, 9, 40, 80
9, 66956, Note_off_c, 9, 44, 80
9, 66960, Note_on_c, 9, 44, 90
9, 67196, Note_off_c, 9, 44, 80
9, 67200, Note_on_c, 9, 36, 102
9, 67200, Note_on_c, 9, 44, 90
9, 67436, Note_off_c, 9, 36, 80
9, 67436, Note_off_c, 9, 44, 80
9, 67440, Note_on_c, 9, 44, 90
9, 67676, Note_off_c, 9, 44, 80
9, 67680, Note_on_c, 9, 40, 104
9, 67680, Note_on_c, 9, 44, 90
9, 67916, Note_off_c, 9, 40, 80
9, 67916, Note_off_c, 9, 44, 80
9, 67920, Note_on_c, 9, 36, 102
9, 67920, Note_on_c, 9, 44, 90
9, 68156, Note_off_c, 9, 36, 80
9, 68156, Note_off_c, 9, 44, 80
9, 68160, Note_on_c, 9, 44, 90
9, 68396, Note_off_c, 9, 44, 80
9, 68400, Note_on_c, 9, 36, 102
9, 68400, Note_on_c, 9, 44, 90
9, 68636, Note_off_c, 9, 36, 80
9, 68636, Note_off_c, 9, 44, 80
9, 68640, Note_on_c, 9, 40, 104
9, 68640, Note_on_c, 9, 44, 90
9, 68876, Note_off_c, 9, 40, 80
9, 68876, Note_off_c, 9, 44, 80
9, 68880, Note_on_c, 9, 44, 90
9, 69116, Note_off_c, 9, 44, 80
9, 69120, Note_on_c, 9, 36, 102
9, 69120, Note_on_c, 9, 44, 90
9, 69356, Note_off_c, 9, 36, 80
9, 69356, Note_off_c, 9, 44, 80
9, 69360, Note_on_c, 9, 44, 90
9, 69596, Note_off_c, 9, 44, 80
9, 69600, Note_on_c, 9, 40, 104
9, 69600, Note_on_c, 9, 44, 90
9, 69836, Note_off_c, 9, 40, 80
9, 69836, Note_off_c, 9, 44, 80
9, 69840, Note_on_c, 9, 36, 102
9, 69840, Note_on_c, 9, 44, 90
9, 70076, Note_off_c, 9, 36, 80
9, 70076, Note_off_c, 9, 44, 80
9, 70080, Note_on_c, 9, 44, 90
9, 70316, Note_off_c, 9, 44, 80
9, 70320, Note_on_c, 9, 36, 102
9, 70320, Note_on_c, 9, 44, 90
9, 70556, Note_off_c, 9, 36, 80
9, 70556, Note_off_c, 9, 44, 80
9, 70560, Note_on_c, 9, 40, 104
9, 70560, Note_on_c, 9, 44, 90
9, 70796, Note_off_c, 9, 40, 80
9, 70796, Note_off_c, 9, 44, 80
9, 70800, Note_on_c, 9, 44, 90
9, 71036, Note_off_c, 9, 44, 80
9, 71040, Note_on_c, 9, 36, 102
9, 71040, Note_on_c, 9, 44, 90
9, 71276, Note_off_c, 9, 36, 80
9, 71276, Note_off_c, 9, 44, 80
9, 71280, Note_on_c, 9, 44, 90
9, 71516, Note_off_c, 9, 44, 80
9, 71520, Note_on_c, 9, 40, 104
9, 71520, Note_on_c, 9, 44, 90
9, 71756, Note_off_c, 9, 40, 80
9, 71756, Note_off_c, 9, 44, 80
9, 71760, Note_on_c, 9, 36, 102
9, 71760, Note_on_c, 9, 44, 90
9, 71996, Note_off_c, 9, 36, 80
9, 71996, Note_off_c, 9, 44, 80
9, 72000, Note_on_c, 9, 44, 90
9, 72236, Note_off_c, 9, 44, 80
9, 72240, Note_on_c, 9, 36, 102
9, 72240, Note_on_c, 9, 44, 90
9, 72476, Note_off_c, 9, 36, 80
9, 72476, Note_off_c, 9, 44, 80
9, 72480, Note_on_c, 9, 40, 104
9, 72480, Note_on_c, 9, 44, 90
9, 72716, Note_off_c, 9, 40, 80
9, 72716, Note_off_c, 9, 44, 80
9, 72720, Note_on_c, 9, 44, 90
9, 72956, Note_off_c, 9, 44, 80
9, 72960, Note_on_c, 9, 36, 102
9, 72960, Note_on_c, 9, 44, 90
9, 73196, Note_off_c, 9, 36, 80
9, 73196, Note_off_c, 9, 44, 80
9, 73200, Note_on_c, 9, 44, 90
9, 73436, Note_off_c, 9, 44, 80
9, 73440, Note_on_c, 9, 40, 104
9, 73440, Note_on_c, 9, 44, 90
9, 73676, Note_off_c, 9, 40, 80
9, 73676, Note_off_c, 9, 44, 80
9, 73680, Note_on_c, 9, 36, 102
9, 73680, Note_on_c, 9, 44, 90
9, 73916, Note_off_c, 9, 36, 80
9, 73916, Note_off_c, 9, 44, 80
9, 73920, Note_on_c, 9, 44, 90
9, 74156, Note_off_c, 9, 44, 80
9, 74160, Note_on_c, 9, 36, 102
9, 74160, Note_on_c, 9, 44, 90
9, 74396, Note_off_c, 9, 36, 80
9, 74396, Note_off_c, 9, 44, 80
9, 74400, Note_on_c, 9, 40, 104
9, 74400, Note_on_c, 9, 44, 90
9, 74636, Note_off_c, 9, 40, 80
9, 74636, Note_off_c, 9, 44, 80
9, 74640, Note_on_c, 9, 44, 90
9, 74876, Note_off_c, 9, 44, 80
9, 74880, Note_on_c, 9, 36, 102
9, 74880, Note_on_c, 9, 44, 90
9, 75116, Note_off_c, 9, 36, 80
9, 75116, Note_off_c, 9, 44, 80
9, 75120, Note_on_c, 9, 44, 90
9, 75356, Note_off_c, 9, 44, 80
9, 75360, Note_on_c, 9, 40, 104
9, 75360, Note_on_c, 9, 44, 90
9, 75596, Note_off_c, 9, 40, 80
9, 75596, Note_off_c, 9, 44, 80
9, 75600, Note_on_c, 9, 36, 102
9, 75600, Note_on_c, 9, 44, 90
9, 75836, Note_off_c, 9, 36, 80
9, 75836, Note_off_c, 9, 44, 80
9, 75840, Note_on_c, 9, 44, 90
9, 76076, Note_off_c, 9, 44, 80
9, 76080, Note_on_c, 9, 36, 102
9, 76080, Note_on_c, 9, 44, 90
9, 76316, Note_off_c, 9, 36, 80
9, 76316, Note_off_c, 9, 44, 80
9, 76320, Note_on_c, 9, 40, 104
9, 76320, Note_on_c, 9, 44, 90
9, 76556, Note_off_c, 9, 40, 80
9, 76556, Note_off_c, 9, 44, 80
9, 76560, Note_on_c, 9, 44, 90
9, 76796, Note_off_c, 9, 44, 80
9, 76800, Note_on_c, 9, 36, 102
9, 76800, Note_on_c, 9, 44, 90
9, 77036, Note_off_c, 9, 36, 80
9, 77036, Note_off_c, 9, 44, 80
9, 77040, Note_on_c, 9, 44, 90
9, 77276, Note_off_c, 9, 44, 80
9, 77280, Note_on_c, 9, 40, 104
9, 77280, Note_on_c, 9, 44, 90
9, 77516, Note_off_c, 9, 40, 80
9, 77516, Note_off_c, 9, 44, 80
9, 77520, Note_on_c, 9, 36, 102
9, 77520, Note_on_c, 9, 44, 90
9, 77756, Note_off_c, 9, 36, 80
9, 77756, Note_off_c, 9, 44, 80
9, 77760, Note_on_c, 9, 44, 90
9, 77996, Note_off_c, 9, 44, 80
9, 78000, Note_on_c, 9, 36, 102
9, 78000, Note_on_c, 9, 44, 90
9, 78236, Note_off_c, 9, 36, 80
9, 78236, Note_off_c, 9, 44, 80
9, 78240, Note_on_c, 9, 40, 104
9, 78240, Note_on_c, 9, 44, 90
9, 78476, Note_off_c, 9, 40, 80
9, 78476, Note_off_c, 9, 44, 80
9, 78480, Note_on_c, 9, 44, 90
9, 78716, Note_off_c, 9, 44, 80
9, 78720, Note_on_c, 9, 36, 102
9, 78720, Note_on_c, 9, 44, 90
9, 78956, Note_off_c, 9, 36, 80
9, 78956, Note_off_c, 9, 44, 80
9, 78960, Note_on_c, 9, 44, 90
9, 79196, Note_off_c, 9, 44, 80
9, 79200, Note_on_c, 9, 40, 104
9, 79200, Note_on_c, 9, 44, 90
9, 79436, Note_off_c, 9, 40, 80
9, 79436, Note_off_c, 9, 44, 80
9, 79440, Note_on_c, 9, 36, 102
9, 79440, Note_on_c, 9, 44, 90
9, 79676, Note_off_c, 9, 36, 80
9, 79676, Note_off_c, 9, 44, 80
9, 79680, Note_on_c, 9, 44, 90
9, 79916, Note_off_c, 9, 44, 80
9, 79920, Note_on_c, 9, 36, 102
9, 79920, Note_on_c, 9, 44, 90
9, 80156, Note_off_c, 9, 36, 80
9, 80156, Note_off_c, 9, 44, 80
9, 80160, Note_on_c, 9, 40, 104
9, 80160, Note_on_c, 9, 44, 90
9, 80396, Note_off_c, 9, 40, 80
9, 80396, Note_off_c, 9, 44, 80
9, 80400, Note_on_c, 9, 44, 90
9, 80636, Note_off_c, 9, 44, 80
9, 80640, Note_on_c, 9, 36, 102
9, 80640, Note_on_c, 9, 44, 90
9, 80876, Note_off_c, 9, 36, 80
9, 80876, Note_off_c, 9, 44, 80
9, 80880, Note_on_c, 9, 44, 90
9, 81116, Note_off_c, 9, 44, 80
9, 81120, Note_on_c, 9, 40, 104
9, 81120, Note_on_c, 9, 44, 90
9, 81356, Note_off_c, 9, 40, 80
9, 81356, Note_off_c, 9, 44, 80
9, 81360, Note_on_c, 9, 36, 102
9, 81360, Note_on_c, 9, 44, 90
9, 81596, Note_off_c, 9, 36, 80
9, 81596, Note_off_c, 9, 44, 80
9, 81600, Note_on_c, 9, 44, 90
9, 81836, Note_off_c, 9, 44, 80
9, 81840, Note_on_c, 9, 36, 102
9, 81840, Note_on_c, 9, 44, 90
9, 82076, Note_off_c, 9, 36, 80
9, 82076, Note_off_c, 9, 44, 80
9, 82080, Note_on_c, 9, 40, 104
9, 82080, Note_on_c, 9, 44, 90
9, 82316, Note_off_c, 9, 40, 80
9, 82316, Note_off_c, 9, 44, 80
9, 82320, Note_on_c, 9, 44, 90
9, 82556, Note_off_c, 9, 44, 80
9, 82560, Note_on_c, 9, 36, 102
9, 82560, Note_on_c, 9, 44, 90
9, 82796, Note_off_c, 9, 36, 80
9, 82796, Note_off_c, 9, 44, 80
9, 82800, Note_on_c, 9, 44, 90
9, 83036, Note_off_c, 9, 44, 80
9, 83040, Note_on_c, 9, 40, 104
9, 83040, Note_on_c, 9, 44, 90
9, 83276, Note_off_c, 9, 40, 80
9, 83276, Note_off_c, 9, 44, 80
9, 83280, Note_on_c, 9, 36, 102
9, 83280, Note_on_c, 9, 44, 90
9, 83516, Note_off_c, 9, 36, 80
9, 83516, Note_off_c, 9, 44, 80
9, 83520, Note_on_c, 9, 44, 90
9, 83756, Note_off_c, 9, 44, 80
9, 83760, Note_on_c, 9, 36, 102
9, 83760, Note_on_c, 9, 44, 90
9, 83996, Note_off_c, 9, 36, 80
9, 83996, Note_off_c, 9, 44, 80
9, 84000, Note_on_c, 9, 40, 104
9, 84000, Note_on_c, 9, 44, 90
9, 84236, Note_off_c, 9, 40, 80
9, 84236, Note_off_c, 9, 44, 80
9, 84240, Note_on_c, 9, 44, 90
9, 84476, Note_off_c, 9, 44, 80
9, 84480, Note_on_c, 9, 36, 102
9, 84480, Note_on_c, 9, 44, 90
9, 84716, Note_off_c, 9, 36, 80
9, 84716, Note_off_c, 9, 44, 80
9, 84720, Note_on_c, 9, 44, 90
9, 84956, Note_off_c, 9, 44, 80
9, 84960, Note_on_c, 9, 40, 104
9, 84960, Note_on_c, 9, 44, 90
9, 85196, Note_off_c, 9, 40, 80
9, 85196, Note_off_c, 9, 44, 80
9, 85200, Note_on_c, 9, 36, 102
9, 85200, Note_on_c, 9, 44, 90
9, 85436, Note_off_c, 9, 36, 80
9, 85436, Note_off_c, 9, 44, 80
9, 85440, Note_on_c, 9, 44, 90
9, 85676, Note_off_c, 9, 44, 80
9, 85680, Note_on_c, 9, 36, 102
9, 85680, Note_on_c, 9, 44, 90
9, 85916, Note_off_c, 9, 36, 80
9, 85916, Note_off_c, 9, 44, 80
9, 85920, Note_on_c, 9, 40, 104
9, 85920, Note_on_c, 9, 44, 90
9, 86156, Note_off_c, 9, 40, 80
9, 86156, Note_off_c, 9, 44, 80
9, 86160, Note_on_c, 9, 44, 90
9, 86396, Note_off_c, 9, 44, 80
9, 86400, Note_on_c, 9, 36, 102
9, 86400, Note_on_c, 9, 44, 90
9, 86636, Note_off_c, 9, 36, 80
9, 86636, Note_off_c, 9, 44, 80
9, 86640, Note_on_c, 9, 44, 90
9, 86876, Note_off_c, 9, 44, 80
9, 86880, Note_on_c, 9, 40, 104
9, 86880, Note_on_c, 9, 44, 90
9, 87116, Note_off_c, 9, 40, 80
9, 87116, Note_off_c, 9, 44, 80
9, 87120, Note_on_c, 9, 36, 102
9, 87120, Note_on_c, 9, 44, 90
9, 87356, Note_off_c, 9, 36, 80
9, 87356, Note_off_c, 9, 44, 80
9, 87360, Note_on_c, 9, 44, 90
9, 87596, Note_off_c, 9, 44, 80
9, 87600, Note_on_c, 9, 36, 102
9, 87600, Note_on_c, 9, 44, 90
9, 87836, Note_off_c, 9, 36, 80
9, 87836, Note_off_c, 9, 44, 80
9, 87840, Note_on_c, 9, 40, 104
9, 87840, Note_on_c, 9, 44, 90
9, 88076, Note_off_c, 9, 40, 80
9, 88076, Note_off_c, 9, 44, 80
9, 88080, Note_on_c, 9, 44, 90
9, 88316, Note_off_c, 9, 44, 80
9, 88320, Note_on_c, 9, 36, 102
9, 88320, Note_on_c, 9, 44, 90
9, 88556, Note_off_c, 9, 36, 80
9, 88556, Note_off_c, 9, 44, 80
9, 88560, Note_on_c, 9, 44, 90
9, 88796, Note_off_c, 9, 44, 80
9, 88800, Note_on_c, 9, 40, 104
9, 88800, Note_on_c, 9, 44, 90
9, 89036, Note_off_c, 9, 40, 80
9, 89036, Note_off_c, 9, 44, 80
9, 89040, Note_on_c, 9, 36, 102
9, 89040, Note_on_c, 9, 44, 90
9, 89276, Note_off_c, 9, 36, 80
9, 89276, Note_off_c, 9, 44, 80
9, 89280, Note_on_c, 9, 44, 90
9, 89516, Note_off_c, 9, 44, 80
9, 89520, Note_on_c, 9, 36, 102
9, 89520, Note_on_c, 9, 44, 90
9, 89756, Note_off_c, 9, 36, 80
9, 89756, Note_off_c, 9, 44, 80
9, 89760, Note_on_c, 9, 40, 104
9, 89760, Note_on_c, 9, 44, 90
9, 89996, Note_off_c, 9, 40, 80
9, 89996, Note_off_c, 9, 44, 80
9, 90000, Note_on_c, 9, 44, 90
9, 90236, Note_off_c, 9, 44, 80
9, 90240, Note_on_c, 9, 36, 102
9, 90240, Note_on_c, 9, 44, 90
9, 90476, Note_off_c, 9, 36, 80
9, 90476, Note_off_c, 9, 44, 80
9, 90480, Note_on_c, 9, 44, 90
9, 90716, Note_off_c, 9, 44, 80
9, 90720, Note_on_c, 9, 40, 104
9, 90720, Note_on_c, 9, 44, 90
9, 90956, Note_off_c, 9, 40, 80
9, 90956, Note_off_c, 9, 44, 80
9, 90960, Note_on_c, 9, 36, 102
9, 90960, Note_on_c, 9, 44, 90
9, 91196, Note_off_c, 9, 36, 80
9, 91196, Note_off_c, 9, 44, 80
9, 91200, Note_on_c, 9, 44, 90
9, 91436, Note_off_c, 9, 44, 80
9, 91440, Note_on_c, 9, 36, 102
9, 91440, Note_on_c, 9, 44, 90
9, 91676, Note_off_c, 9, 36, 80
9, 91676, Note_off_c, 9, 44, 80
9, 91680, Note_on_c, 9, 40, 104
9, 91680, Note_on_c, 9, 44, 90
9, 91916, Note_off_c, 9, 40, 80
9, 91916, Note_off_c, 9, 44, 80
9, 91920, Note_on_c, 9, 44, 90
9, 92156, Note_off_c, 9, 44, 80
9, 92160, Note_on_c, 9, 36, 102
9, 92160, Note_on_c, 9, 44, 90
9, 92396, Note_off_c, 9, 36, 80
9, 92396, Note_off_c, 9, 44, 80
9, 92400, Note_on_c, 9, 44, 90
9, 92636, Note_off_c, 9, 44, 80
9, 92640, Note_on_c, 9, 40, 104
9, 92640, Note_on_c, 9, 44, 90
9, 92876, Note_off_c, 9, 40, 80
9, 92876, Note_off_c, 9, 44, 80
9, 92880, Note_on_c, 9, 36, 102
9, 92880, Note_on_c, 9, 44, 90
9, 93116, Note_off_c, 9, 36, 80
9, 93116, Note_off_c, 9, 44, 80
9, 93120, Note_on_c, 9, 44, 90
9, 93356, Note_off_c, 9, 44, 80
9, 93360, Note_on_c, 9, 36, 102
9, 93360, Note_on_c, 9, 44, 90
9, 93596, Note_off_c, 9, 36, 80
9, 93596, Note_off_c, 9, 44, 80
9, 93600, Note_on_c, 9, 40, 104
9, 93600, Note_on_c, 9, 44, 90
9, 93836, Note_off_c, 9, 40, 80
9, 93836, Note_off_c, 9, 44, 80
9, 93840, Note_on_c, 9, 44, 90
9, 94076, Note_off_c, 9, 44, 80
9, 94080, Note_on_c, 9, 36, 102
9, 94080, Note_on_c, 9, 40, 104
9, 94080, Note_on_c, 9, 44, 90
9, 94080, Note_on_c, 9, 49, 78
9, 94316, Note_off_c, 9, 36, 80
9, 94316, Note_off_c, 9, 40, 80
9, 94316, Note_off_c, 9, 44, 80
9, 94316, Note_off_c, 9, 49, 80
9, 94320, Note_on_c, 9, 44, 90
9, 94556, Note_off_c, 9, 44, 80
9, 94560, Note_on_c, 9, 36, 102
9, 94560, Note_on_c, 9, 40, 104
9, 94560, Note_on_c, 9, 44, 90
9, 94796, Note_off_c, 9, 36, 80
9, 94796, Note_off_c, 9, 40, 80
9, 94796, Note_off_c, 9, 44, 80
9, 94800, Note_on_c, 9, 44, 90
9, 95036, Note_off_c, 9, 44, 80
9, 95040, Note_on_c, 9, 36, 102
9, 95040, Note_on_c, 9, 40, 104
9, 95040, Note_on_c, 9, 44, 90
9, 95276, Note_off_c, 9, 36, 80
9, 95276, Note_off_c, 9, 40, 80
9, 95276, Note_off_c, 9, 44, 80
9, 95280, Note_on_c, 9, 46, 82
9, 95516, Note_off_c, 9, 46, 80
9, 95520, Note_on_c, 9, 36, 102
9, 95520, Note_on_c, 9, 40, 104
9, 95520, Note_on_c, 9, 44, 90
9, 95756, Note_off_c, 9, 36, 80
9, 95756, Note_off_c, 9, 40, 80
9, 95756, Note_off_c, 9, 44, 80
9, 95760, Note_on_c, 9, 44, 90
9, 95996, Note_off_c, 9, 44, 80
9, 96000, Note_on_c, 9, 36, 102
9, 96000, Note_on_c, 9, 40, 104
9, 96000, Note_on_c, 9, 44, 90
9, 96236, Note_off_c, 9, 36, 80
9, 96236, Note_off_c, 9, 40, 80
9, 96236, Note_off_c, 9, 44, 80
9, 96240, Note_on_c, 9, 46, 82
9, 96476, Note_off_c, 9, 46, 80
9, 96480, Note_on_c, 9, 36, 102
9, 96480, Note_on_c, 9, 40, 104
9, 96480, Note_on_c, 9, 44, 90
9, 96716, Note_off_c, 9, 36, 80
9, 96716, Note_off_c, 9, 40, 80
9, 96716, Note_off_c, 9, 44, 80
9, 96720, Note_on_c, 9, 44, 90
9, 96956, Note_off_c, 9, 44, 80
9, 96960, Note_on_c, 9, 36, 102
9, 96960, Note_on_c, 9, 40, 104
9, 96960, Note_on_c, 9, 44, 90
9, 97196, Note_off_c, 9, 36, 80
9, 97196, Note_off_c, 9, 40, 80
9, 97196, Note_off_c, 9, 44, 80
9, 97200, Note_on_c, 9, 46, 82
9, 97436, Note_off_c, 9, 46, 80
9, 97440, Note_on_c, 9, 36, 102
9, 97440, Note_on_c, 9, 40, 104
9, 97440, Note_on_c, 9, 44, 90
9, 97676, Note_off_c, 9, 36, 80
9, 97676, Note_off_c, 9, 40, 80
9, 97676, Note_off_c, 9, 44, 80
9, 97680, Note_on_c, 9, 46, 82
9, 97916, Note_off_c, 9, 46, 80
9, 97920, Note_on_c, 9, 36, 102
9, 97920, Note_on_c, 9, 40, 104
9, 97920, Note_on_c, 9, 44, 90
9, 98156, Note_off_c, 9, 36, 80
9, 98156, Note_off_c, 9, 40, 80
9, 98156, Note_off_c, 9, 44, 80
9, 98160, Note_on_c, 9, 44, 90
9, 98396, Note_off_c, 9, 44, 80
9, 98400, Note_on_c, 9, 36, 102
9, 98400, Note_on_c, 9, 40, 104
9, 98400, Note_on_c, 9, 44, 90
9, 98636, Note_off_c, 9, 36, 80
9, 98636, Note_off_c, 9, 40, 80
9, 98636, Note_off_c, 9, 44, 80
9, 98640, Note_on_c, 9, 46, 82
9, 98876, Note_off_c, 9, 46, 80
9, 98880, Note_on_c, 9, 36, 102
9, 98880, Note_on_c, 9, 40, 104
9, 98880, Note_on_c, 9, 44, 90
9, 99116, Note_off_c, 9, 36, 80
9, 99116, Note_off_c, 9, 40, 80
9, 99116, Note_off_c, 9, 44, 80
9, 99120, Note_on_c, 9, 44, 90
9, 99356, Note_off_c, 9, 44, 80
9, 99360, Note_on_c, 9, 36, 102
9, 99360, Note_on_c, 9, 40, 104
9, 99360, Note_on_c, 9, 44, 90
9, 99596, Note_off_c, 9, 36, 80
9, 99596, Note_off_c, 9, 40, 80
9, 99596, Note_off_c, 9, 44, 80
9, 99600, Note_on_c, 9, 46, 82
9, 99836, Note_off_c, 9, 46, 80
9, 99840, Note_on_c, 9, 36, 102
9, 99840, Note_on_c, 9, 40, 104
9, 99840, Note_on_c, 9, 44, 90
9, 100076, Note_off_c, 9, 36, 80
9, 100076, Note_off_c, 9, 40, 80
9, 100076, Note_off_c, 9, 44, 80
9, 100080, Note_on_c, 9, 44, 90
9, 100316, Note_off_c, 9, 44, 80
9, 100320, Note_on_c, 9, 36, 102
9, 100320, Note_on_c, 9, 40, 104
9, 100320, Note_on_c, 9, 44, 90
9, 100556, Note_off_c, 9, 36, 80
9, 100556, Note_off_c, 9, 40, 80
9, 100556, Note_off_c, 9, 44, 80
9, 100560, Note_on_c, 9, 44, 90
9, 100796, Note_off_c, 9, 44, 80
9, 100800, Note_on_c, 9, 36, 102
9, 100800, Note_on_c, 9, 40, 104
9, 100800, Note_on_c, 9, 44, 90
9, 101036, Note_off_c, 9, 36, 80
9, 101036, Note_off_c, 9, 40, 80
9, 101036, Note_off_c, 9, 44, 80
9, 101040, Note_on_c, 9, 46, 82
9, 101276, Note_off_c, 9, 46, 80
9, 101280, Note_on_c, 9, 36, 102
9, 101280, Note_on_c, 9, 40, 104
9, 101280, Note_on_c, 9, 44, 90
9, 101516, Note_off_c, 9, 36, 80
9, 101516, Note_off_c, 9, 40, 80
9, 101516, Note_off_c, 9, 44, 80
9, 101520, Note_on_c, 9, 46, 82
9, 101756, Note_off_c, 9, 46, 80
9, 101760, Note_on_c, 9, 36, 102
9, 101760, Note_on_c, 9, 40, 104
9, 101760, Note_on_c, 9, 44, 90
9, 101996, Note_off_c, 9, 36, 80
9, 101996, Note_off_c, 9, 40, 80
9, 101996, Note_off_c, 9, 44, 80
9, 102000, Note_on_c, 9, 44, 90
9, 102236, Note_off_c, 9, 44, 80
9, 102240, Note_on_c, 9, 36, 102
9, 102240, Note_on_c, 9, 40, 104
9, 102240, Note_on_c, 9, 44, 90
9, 102476, Note_off_c, 9, 36, 80
9, 102476, Note_off_c, 9, 40, 80
9, 102476, Note_off_c, 9, 44, 80
9, 102480, Note_on_c, 9, 44, 90
9, 102716, Note_off_c, 9, 44, 80
9, 102720, Note_on_c, 9, 36, 102
9, 102720, Note_on_c, 9, 40, 104
9, 102720, Note_on_c, 9, 44, 90
9, 102956, Note_off_c, 9, 36, 80
9, 102956, Note_off_c, 9, 40, 80
9, 102956, Note_off_c, 9, 44, 80
9, 102960, Note_on_c, 9, 46, 82
9, 103196, Note_off_c, 9, 46, 80
9, 103200, Note_on_c, 9, 36, 102
9, 103200, Note_on_c, 9, 40, 104
9, 103200, Note_on_c, 9, 44, 90
9, 103436, Note_off_c, 9, 36, 80
9, 103436, Note_off_c, 9, 40, 80
9, 103436, Note_off_c, 9, 44, 80
9, 103440, Note_on_c, 9, 44, 90
9, 103676, Note_off_c, 9, 44, 80
9, 103680, Note_on_c, 9, 36, 102
9, 103680, Note_on_c, 9, 40, 104
9, 103680, Note_on_c, 9, 44, 90
9, 103916, Note_off_c, 9, 36, 80
9, 103916, Note_off_c, 9, 40, 80
9, 103916, Note_off_c, 9, 44, 80
9, 103920, Note_on_c, 9, 46, 82
9, 104156, Note_off_c, 9, 46, 80
9, 104160, Note_on_c, 9, 36, 102
9, 104160, Note_on_c, 9, 40, 104
9, 104160, Note_on_c, 9, 44, 90
9, 104396, Note_off_c, 9, 36, 80
9, 104396, Note_off_c, 9, 40, 80
9, 104396, Note_off_c, 9, 44, 80
9, 104400, Note_on_c, 9, 44, 90
9, 104636, Note_off_c, 9, 44, 80
9, 104640, Note_on_c, 9, 36, 102
9, 104640, Note_on_c, 9, 40, 104
9, 104640, Note_on_c, 9, 44, 90
9, 104876, Note_off_c, 9, 36, 80
9, 104876, Note_off_c, 9, 40, 80
9, 104876, Note_off_c, 9, 44, 80
9, 104880, Note_on_c, 9, 46, 82
9, 105116, Note_off_c, 9, 46, 80
9, 105120, Note_on_c, 9, 36, 102
9, 105120, Note_on_c, 9, 40, 104
9, 105120, Note_on_c, 9, 44, 90
9, 105356, Note_off_c, 9, 36, 80
9, 105356, Note_off_c, 9, 40, 80
9, 105356, Note_off_c, 9, 44, 80
9, 105360, Note_on_c, 9, 46, 82
9, 105596, Note_off_c, 9, 46, 80
9, 105600, Note_on_c, 9, 36, 102
9, 105600, Note_on_c, 9, 40, 104
9, 105600, Note_on_c, 9, 44, 90
9, 105836, Note_off_c, 9, 36, 80
9, 105836, Note_off_c, 9, 40, 80
9, 105836, Note_off_c, 9, 44, 80
9, 105840, Note_on_c, 9, 44, 90
9, 106076, Note_off_c, 9, 44, 80
9, 106080, Note_on_c, 9, 36, 102
9, 106080, Note_on_c, 9, 40, 104
9, 106080, Note_on_c, 9, 44, 90
9, 106316, Note_off_c, 9, 36, 80
9, 106316, Note_off_c, 9, 40, 80
9, 106316, Note_off_c, 9, 44, 80
9, 106320, Note_on_c, 9, 46, 82
9, 106556, Note_off_c, 9, 46, 80
9, 106560, Note_on_c, 9, 36, 102
9, 106560, Note_on_c, 9, 40, 104
9, 106560, Note_on_c, 9, 44, 90
9, 106796, Note_off_c, 9, 36, 80
9, 106796, Note_off_c, 9, 40, 80
9, 106796, Note_off_c, 9, 44, 80
9, 106800, Note_on_c, 9, 44, 90
9, 107036, Note_off_c, 9, 44, 80
9, 107040, Note_on_c, 9, 36, 102
9, 107040, Note_on_c, 9, 40, 104
9, 107040, Note_on_c, 9, 44, 90
9, 107276, Note_off_c, 9, 36, 80
9, 107276, Note_off_c, 9, 40, 80
9, 107276, Note_off_c, 9, 44, 80
9, 107280, Note_on_c, 9, 46, 82
9, 107516, Note_off_c, 9, 46, 80
9, 107520, Note_on_c, 9, 36, 102
9, 107520, Note_on_c, 9, 40, 104
9, 107520, Note_on_c, 9, 44, 90
9, 107756, Note_off_c, 9, 36, 80
9, 107756, Note_off_c, 9, 40, 80
9, 107756, Note_off_c, 9, 44, 80
9, 107760, Note_on_c, 9, 44, 90
9, 107996, Note_off_c, 9, 44, 80
9, 108000, Note_on_c, 9, 36, 102
9, 108000, Note_on_c, 9, 40, 104
9, 108000, Note_on_c, 9, 44, 90
9, 108236, Note_off_c, 9, 36, 80
9, 108236, Note_off_c, 9, 40, 80
9, 108236, Note_off_c, 9, 44, 80
9, 108240, Note_on_c, 9, 44, 90
9, 108476, Note_off_c, 9, 44, 80
9, 108480, Note_on_c, 9, 36, 102
9, 108480, Note_on_c, 9, 40, 104
9, 108480, Note_on_c, 9, 44, 90
9, 108716, Note_off_c, 9, 36, 80
9, 108716, Note_off_c, 9, 40, 80
9, 108716, Note_off_c, 9, 44, 80
9, 108720, Note_on_c, 9, 46, 82
9, 108956, Note_off_c, 9, 46, 80
9, 108960, Note_on_c, 9, 36, 102
9, 108960, Note_on_c, 9, 40, 104
9, 108960, Note_on_c, 9, 44, 90
9, 109196, Note_off_c, 9, 36, 80
9, 109196, Note_off_c, 9, 40, 80
9, 109196, Note_off_c, 9, 44, 80
9, 109200, Note_on_c, 9, 46, 82
9, 109436, Note_off_c, 9, 46, 80
9, 109440, Note_on_c, 9, 36, 102
9, 109440, Note_on_c, 9, 40, 104
9, 109440, Note_on_c, 9, 44, 90
9, 109676, Note_off_c, 9, 36, 80
9, 109676, Note_off_c, 9, 40, 80
9, 109676, Note_off_c, 9, 44, 80
9, 109680, Note_on_c, 9, 44, 90
9, 109916, Note_off_c, 9, 44, 80
9, 109920, Note_on_c, 9, 36, 102
9, 109920, Note_on_c, 9, 40, 104
9, 109920, Note_on_c, 9, 44, 90
9, 110156, Note_off_c, 9, 36, 80
9, 110156, Note_off_c, 9, 40, 80
9, 110156, Note_off_c, 9, 44, 80
9, 110160, Note_on_c, 9, 44, 90
9, 110396, Note_off_c, 9, 44, 80
9, 110400, Note_on_c, 9, 36, 102
9, 110400, Note_on_c, 9, 40, 104
9, 110400, Note_on_c, 9, 44, 90
9, 110636, Note_off_c, 9, 36, 80
9, 110636, Note_off_c, 9, 40, 80
9, 110636, Note_off_c, 9, 44, 80
9, 110640, Note_on_c, 9, 46, 82
9, 110876, Note_off_c, 9, 46, 80
9, 110880, Note_on_c, 9, 36, 102
9, 110880, Note_on_c, 9, 40, 104
9, 110880, Note_on_c, 9, 44, 90
9, 111116, Note_off_c, 9, 36, 80
9, 111116, Note_off_c, 9, 40, 80
9, 111116, Note_off_c, 9, 44, 80
9, 111120, Note_on_c, 9, 44, 90
9, 111356, Note_off_c, 9, 44, 80
9, 111360, Note_on_c, 9, 36, 102
9, 111360, Note_on_c, 9, 40, 104
9, 111360, Note_on_c, 9, 44, 90
9, 111596, Note_off_c, 9, 36, 80
9, 111596, Note_off_c, 9, 40, 80
9, 111596, Note_off_c, 9, 44, 80
9, 111600, Note_on_c, 9, 46, 82
9, 111836, Note_off_c, 9, 46, 80
9, 111840, Note_on_c, 9, 36, 102
9, 111840, Note_on_c, 9, 40, 104
9, 111840, Note_on_c, 9, 44, 90
9, 112076, Note_off_c, 9, 36, 80
9, 112076, Note_off_c, 9, 40, 80
9, 112076, Note_off_c, 9, 44, 80
9, 112080, Note_on_c, 9, 44, 90
9, 112316, Note_off_c, 9, 44, 80
9, 112320, Note_on_c, 9, 36, 102
9, 112320, Note_on_c, 9, 40, 104
9, 112320, Note_on_c, 9, 44, 90
9, 112556, Note_off_c, 9, 36, 80
9, 112556, Note_off_c, 9, 40, 80
9, 112556, Note_off_c, 9, 44, 80
9, 112560, Note_on_c, 9, 46, 82
9, 112796, Note_off_c, 9, 46, 80
9, 112800, Note_on_c, 9, 36, 102
9, 112800, Note_on_c, 9, 40, 104
9, 112800, Note_on_c, 9, 44, 90
9, 113036, Note_off_c, 9, 36, 80
9, 113036, Note_off_c, 9, 40, 80
9, 113036, Note_off_c, 9, 44, 80
9, 113040, Note_on_c, 9, 46, 82
9, 113276, Note_off_c, 9, 46, 80
9, 113280, Note_on_c, 9, 36, 102
9, 113280, Note_on_c, 9, 40, 104
9, 113280, Note_on_c, 9, 44, 90
9, 113516, Note_off_c, 9, 36, 80
9, 113516, Note_off_c, 9, 40, 80
9, 113516, Note_off_c, 9, 44, 80
9, 113520, Note_on_c, 9, 44, 90
9, 113756, Note_off_c, 9, 44, 80
9, 113760, Note_on_c, 9, 36, 102
9, 113760, Note_on_c, 9, 40, 104
9, 113760, Note_on_c, 9, 44, 90
9, 113996, Note_off_c, 9, 36, 80
9, 113996, Note_off_c, 9, 40, 80
9, 113996, Note_off_c, 9, 44, 80
9, 114000, Note_on_c, 9, 46, 82
9, 114236, Note_off_c, 9, 46, 80
9, 114240, Note_on_c, 9, 36, 102
9, 114240, Note_on_c, 9, 40, 104
9, 114240, Note_on_c, 9, 44, 90
9, 114476, Note_off_c, 9, 36, 80
9, 114476, Note_off_c, 9, 40, 80
9, 114476, Note_off_c, 9, 44, 80
9, 114480, Note_on_c, 9, 44, 90
9, 114716, Note_off_c, 9, 44, 80
9, 114720, Note_on_c, 9, 36, 102
9, 114720, Note_on_c, 9, 40, 104
9, 114720, Note_on_c, 9, 44, 90
9, 114956, Note_off_c, 9, 36, 80
9, 114956, Note_off_c, 9, 40, 80
9, 114956, Note_off_c, 9, 44, 80
9, 114960, Note_on_c, 9, 46, 82
9, 115196, Note_off_c, 9, 46, 80
9, 115200, Note_on_c, 9, 36, 102
9, 115200, Note_on_c, 9, 40, 104
9, 115200, Note_on_c, 9, 44, 90
9, 115436, Note_off_c, 9, 36, 80
9, 115436, Note_off_c, 9, 40, 80
9, 115436, Note_off_c, 9, 44, 80
9, 115440, Note_on_c, 9, 44, 90
9, 115676, Note_off_c, 9, 44, 80
9, 115680, Note_on_c, 9, 36, 102
9, 115680, Note_on_c, 9, 40, 104
9, 115680, Note_on_c, 9, 44, 90
9, 115916, Note_off_c, 9, 36, 80
9, 115916, Note_off_c, 9, 40, 80
9, 115916, Note_off_c, 9, 44, 80
9, 115920, Note_on_c, 9, 44, 90
9, 116156, Note_off_c, 9, 44, 80
9, 116160, Note_on_c, 9, 36, 102
9, 116160, Note_on_c, 9, 40, 104
9, 116160, Note_on_c, 9, 44, 90
9, 116396, Note_off_c, 9, 36, 80
9, 116396, Note_off_c, 9, 40, 80
9, 116396, Note_off_c, 9, 44, 80
9, 116400, Note_on_c, 9, 46, 82
9, 116636, Note_off_c, 9, 46, 80
9, 116640, Note_on_c, 9, 36, 102
9, 116640, Note_on_c, 9, 40, 104
9, 116640, Note_on_c, 9, 44, 90
9, 116876, Note_off_c, 9, 36, 80
9, 116876, Note_off_c, 9, 40, 80
9, 116876, Note_off_c, 9, 44, 80
9, 116880, Note_on_c, 9, 46, 82
9, 117116, Note_off_c, 9, 46, 80
9, 117120, Note_on_c, 9, 36, 102
9, 117120, Note_on_c, 9, 40, 104
9, 117120, Note_on_c, 9, 44, 90
9, 117120, Note_on_c, 9, 49, 78
9, 117356, Note_off_c, 9, 36, 80
9, 117356, Note_off_c, 9, 40, 80
9, 117356, Note_off_c, 9, 44, 80
9, 117356, Note_off_c, 9, 49, 80
9, 117360, Note_on_c, 9, 44, 90
9, 117596, Note_off_c, 9, 44, 80
9, 117600, Note_on_c, 9, 36, 102
9, 117600, Note_on_c, 9, 40, 104
9, 117600, Note_on_c, 9, 44, 90
9, 117836, Note_off_c, 9, 36, 80
9, 117836, Note_off_c, 9, 40, 80
9, 117836, Note_off_c, 9, 44, 80
9, 117840, Note_on_c, 9, 44, 90
9, 118076, Note_off_c, 9, 44, 80
9, 118080, Note_on_c, 9, 36, 102
9, 118080, Note_on_c, 9, 40, 104
9, 118080, Note_on_c, 9, 44, 90
9, 118316, Note_off_c, 9, 36, 80
9, 118316, Note_off_c, 9, 40, 80
9, 118316, Note_off_c, 9, 44, 80
9, 118320, Note_on_c, 9, 46, 82
9, 118556, Note_off_c, 9, 46, 80
9, 118560, Note_on_c, 9, 36, 102
9, 118560, Note_on_c, 9, 40, 104
9, 118560, Note_on_c, 9, 44, 90
9, 118796, Note_off_c, 9, 36, 80
9, 118796, Note_off_c, 9, 40, 80
9, 118796, Note_off_c, 9, 44, 80
9, 118800, Note_on_c, 9, 44, 90
9, 119036, Note_off_c, 9, 44, 80
9, 119040, Note_on_c, 9, 36, 102
9, 119040, Note_on_c, 9, 40, 104
9, 119040, Note_on_c, 9, 44, 90
9, 119276, Note_off_c, 9, 36, 80
9, 119276, Note_off_c, 9, 40, 80
9, 119276, Note_off_c, 9, 44, 80
9, 119280, Note_on_c, 9, 46, 82
9, 119516, Note_off_c, 9, 46, 80
9, 119520, Note_on_c, 9, 36, 102
9, 119520, Note_on_c, 9, 40, 104
9, 119520, Note_on_c, 9, 44, 90
9, 119756, Note_off_c, 9, 36, 80
9, 119756, Note_off_c, 9, 40, 80
9, 119756, Note_off_c, 9, 44, 80
9, 119760, Note_on_c, 9, 44, 90
9, 119996, Note_off_c, 9, 44, 80
9, 120000, Note_on_c, 9, 36, 102
9, 120000, Note_on_c, 9, 40, 104
9, 120000, Note_on_c, 9, 44, 90
9, 120236, Note_off_c, 9, 36, 80
9, 120236, Note_off_c, 9, 40, 80
9, 120236, Note_off_c, 9, 44, 80
9, 120240, Note_on_c, 9, 46, 82
9, 120476, Note_off_c, 9, 46, 80
9, 120480, Note_on_c, 9, 36, 102
9, 120480, Note_on_c, 9, 40, 104
9, 120480, Note_on_c, 9, 44, 90
9, 120716, Note_off_c, 9, 36, 80
9, 120716, Note_off_c, 9, 40, 80
9, 120716, Note_off_c, 9, 44, 80
9, 120720, Note_on_c, 9, 46, 82
9, 120956, Note_off_c, 9, 46, 80
9, 120960, Note_on_c, 9, 36, 102
9, 120960, Note_on_c, 9, 40, 104
9, 120960, Note_on_c, 9, 44, 90
9, 121196, Note_off_c, 9, 36, 80
9, 121196, Note_off_c, 9, 40, 80
9, 121196, Note_off_c, 9, 44, 80
9, 121200, Note_on_c, 9, 44, 90
9, 121436, Note_off_c, 9, 44, 80
9, 121440, Note_on_c, 9, 36, 102
9, 121440, Note_on_c, 9, 40, 104
9, 121440, Note_on_c, 9, 44, 90
9, 121676, Note_off_c, 9, 36, 80
9, 121676, Note_off_c, 9, 40, 80
9, 121676, Note_off_c, 9, 44, 80
9, 121680, Note_on_c, 9, 46, 82
9, 121916, Note_off_c, 9, 46, 80
9, 121920, Note_on_c, 9, 36, 102
9, 121920, Note_on_c, 9, 40, 104
9, 121920, Note_on_c, 9, 44, 90
9, 122156, Note_off_c, 9, 36, 80
9, 122156, Note_off_c, 9, 40, 80
9, 122156, Note_off_c, 9, 44, 80
9, 122160, Note_on_c, 9, 44, 90
9, 122396, Note_off_c, 9, 44, 80
9, 122400, Note_on_c, 9, 36, 102
9, 122400, Note_on_c, 9, 40, 104
9, 122400, Note_on_c, 9, 44, 90
9, 122636, Note_off_c, 9, 36, 80
9, 122636, Note_off_c, 9, 40, 80
9, 122636, Note_off_c, 9, 44, 80
9, 122640, Note_on_c, 9, 46, 82
9, 122876, Note_off_c, 9, 46, 80
9, 122880, Note_on_c, 9, 36, 102
9, 122880, Note_on_c, 9, 40, 104
9, 122880, Note_on_c, 9, 44, 90
9, 123116, Note_off_c, 9, 36, 80
9, 123116, Note_off_c, 9, 40, 80
9, 123116, Note_off_c, 9, 44, 80
9, 123120, Note_on_c, 9, 44, 90
9, 123356, Note_off_c, 9, 44, 80
9, 123360, Note_on_c, 9, 36, 102
9, 123360, Note_on_c, 9, 40, 104
9, 123360, Note_on_c, 9, 44, 90
9, 123596, Note_off_c, 9, 36, 80
9, 123596, Note_off_c, 9, 40, 80
9, 123596, Note_off_c, 9, 44, 80
9, 123600, Note_on_c, 9, 44, 90
9, 123836, Note_off_c, 9, 44, 80
9, 123840, Note_on_c, 9, 36, 102
9, 123840, Note_on_c, 9, 40, 104
9, 123840, Note_on_c, 9, 44, 90
9, 124076, Note_off_c, 9, 36, 80
9, 124076, Note_off_c, 9, 40, 80
9, 124076, Note_off_c, 9, 44, 80
9, 124080, Note_on_c, 9, 46, 82
9, 124316, Note_off_c, 9, 46, 80
9, 124320, Note_on_c, 9, 36, 102
9, 124320, Note_on_c, 9, 40, 104
9, 124320, Note_on_c, 9, 44, 90
9, 124556, Note_off_c, 9, 36, 80
9, 124556, Note_off_c, 9, 40, 80
9, 124556, Note_off_c, 9, 44, 80
9, 124560, Note_on_c, 9, 46, 82
9, 124796, Note_off_c, 9, 46, 80
9, 124800, Note_on_c, 9, 36, 102
9, 124800, Note_on_c, 9, 40, 104
9, 124800, Note_on_c, 9, 44, 90
9, 125036, Note_off_c, 9, 36, 80
9, 125036, Note_off_c, 9, 40, 80
9, 125036, Note_off_c, 9, 44, 80
9, 125040, Note_on_c, 9, 44, 90
9, 125276, Note_off_c, 9, 44, 80
9, 125280, Note_on_c, 9, 36, 102
9, 125280, Note_on_c, 9, 40, 104
9, 125280, Note_on_c, 9, 44, 90
9, 125516, Note_off_c, 9, 36, 80
9, 125516, Note_off_c, 9, 40, 80
9, 125516, Note_off_c, 9, 44, 80
9, 125520, Note_on_c, 9, 44, 90
9, 125756, Note_off_c, 9, 44, 80
9, 125760, Note_on_c, 9, 36, 102
9, 125760, Note_on_c, 9, 40, 104
9, 125760, Note_on_c, 9, 44, 90
9, 125996, Note_off_c, 9, 36, 80
9, 125996, Note_off_c, 9, 40, 80
9, 125996, Note_off_c, 9, 44, 80
9, 126000, Note_on_c, 9, 46, 82
9, 126236, Note_off_c, 9, 46, 80
9, 126240, Note_on_c, 9, 36, 102
9, 126240, Note_on_c, 9, 40, 104
9, 126240, Note_on_c, 9, 44, 90
9, 126476, Note_off_c, 9, 36, 80
9, 126476, Note_off_c, 9, 40, 80
9, 126476, Note_off_c, 9, 44, 80
9, 126480, Note_on_c, 9, 44, 90
9, 126716, Note_off_c, 9, 44, 80
9, 126720, Note_on_c, 9, 36, 102
9, 126720, Note_on_c, 9, 40, 104
9, 126720, Note_on_c, 9, 44, 90
9, 126956, Note_off_c, 9, 36, 80
9, 126956, Note_off_c, 9, 40, 80
9, 126956, Note_off_c, 9, 44, 80
9, 126960, Note_on_c, 9, 46, 82
9, 127196, Note_off_c, 9, 46, 80
9, 127200, Note_on_c, 9, 36, 102
9, 127200, Note_on_c, 9, 40, 104
9, 127200, Note_on_c, 9, 44, 90
9, 127436, Note_off_c, 9, 36, 80
9, 127436, Note_off_c, 9, 40, 80
9, 127436, Note_off_c, 9, 44, 80
9, 127440, Note_on_c, 9, 44, 90
9, 127676, Note_off_c, 9, 44, 80
9, 127680, Note_on_c, 9, 36, 102
9, 127680, Note_on_c, 9, 40, 104
9, 127680, Note_on_c, 9, 44, 90
9, 127916, Note_off_c, 9, 36, 80
9, 127916, Note_off_c, 9, 40, 80
9, 127916, Note_off_c, 9, 44, 80
9, 127920, Note_on_c, 9, 46, 82
9, 128156, Note_off_c, 9, 46, 80
9, 128160, Note_on_c, 9, 36, 102
9, 128160, Note_on_c, 9, 40, 104
9, 128160, Note_on_c, 9, 44, 90
9, 128396, Note_off_c, 9, 36, 80
9, 128396, Note_off_c, 9, 40, 80
9, 128396, Note_off_c, 9, 44, 80
9, 128400, Note_on_c, 9, 46, 82
9, 128636, Note_off_c, 9, 46, 80
9, 128640, Note_on_c, 9, 36, 102
9, 128640, Note_on_c, 9, 40, 104
9, 128640, Note_on_c, 9, 44, 90
9, 128876, Note_off_c, 9, 36, 80
9, 128876, Note_off_c, 9, 40, 80
9, 128876, Note_off_c, 9, 44, 80
9, 128880, Note_on_c, 9, 44, 90
9, 129116, Note_off_c, 9, 44, 80
9, 129120, Note_on_c, 9, 36, 102
9, 129120, Note_on_c, 9, 40, 104
9, 129120, Note_on_c, 9, 44, 90
9, 129356, Note_off_c, 9, 36, 80
9, 129356, Note_off_c, 9, 40, 80
9, 129356, Note_off_c, 9, 44, 80
9, 129360, Note_on_c, 9, 46, 82
9, 129596, Note_off_c, 9, 46, 80
9, 129600, Note_on_c, 9, 36, 102
9, 129600, Note_on_c, 9, 40, 104
9, 129600, Note_on_c, 9, 44, 90
9, 129836, Note_off_c, 9, 36, 80
9, 129836, Note_off_c, 9, 40, 80
9, 129836, Note_off_c, 9, 44, 80
9, 129840, Note_on_c, 9, 44, 90
9, 130076, Note_off_c, 9, 44, 80
9, 130080, Note_on_c, 9, 36, 102
9, 130080, Note_on_c, 9, 40, 104
9, 130080, Note_on_c, 9, 44, 90
9, 130316, Note_off_c, 9, 36, 80
9, 130316, Note_off_c, 9, 40, 80
9, 130316, Note_off_c, 9, 44, 80
9, 130320, Note_on_c, 9, 46, 82
9, 130556, Note_off_c, 9, 46, 80
9, 130560, Note_on_c, 9, 36, 102
9, 130560, Note_on_c, 9, 40, 104
9, 130560, Note_on_c, 9, 44, 90
9, 130796, Note_off_c, 9, 36, 80
9, 130796, Note_off_c, 9, 40, 80
9, 130796, Note_off_c, 9, 44, 80
9, 130800, Note_on_c, 9, 44, 90
9, 131036, Note_off_c, 9, 44, 80
9, 131040, Note_on_c, 9, 36, 102
9, 131040, Note_on_c, 9, 40, 104
9, 131040, Note_on_c, 9, 44, 90
9, 131276, Note_off_c, 9, 36, 80
9, 131276, Note_off_c, 9, 40, 80
9, 131276, Note_off_c, 9, 44, 80
9, 131280, Note_on_c, 9, 44, 90
9, 131516, Note_off_c, 9, 44, 80
9, 131520, Note_on_c, 9, 36, 102
9, 131520, Note_on_c, 9, 40, 104
9, 131520, Note_on_c, 9, 44, 90
9, 131756, Note_off_c, 9, 36, 80
9, 131756, Note_off_c, 9, 40, 80
9, 131756, Note_off_c, 9, 44, 80
9, 131760, Note_on_c, 9, 46, 82
9, 131996, Note_off_c, 9, 46, 80
9, 132000, Note_on_c, 9, 36, 102
9, 132000, Note_on_c, 9, 40, 104
9, 132000, Note_on_c, 9, 44, 90
9, 132236, Note_off_c, 9, 36, 80
9, 132236, Note_off_c, 9, 40, 80
9, 132236, Note_off_c, 9, 44, 80
9, 132240, Note_on_c, 9, 46, 82
9, 132476, Note_off_c, 9, 46, 80
9, 132480, Note_on_c, 9, 36, 102
9, 132480, Note_on_c, 9, 40, 104
9, 132480, Note_on_c, 9, 44, 90
9, 132716, Note_off_c, 9, 36, 80
9, 132716, Note_off_c, 9, 40, 80
9, 132716, Note_off_c, 9, 44, 80
9, 132720, Note_on_c, 9, 44, 90
9, 132956, Note_off_c, 9, 44, 80
9, 132960, Note_on_c, 9, 36, 102
9, 132960, Note_on_c, 9, 40, 104
9, 132960, Note_on_c, 9, 44, 90
9, 133196, Note_off_c, 9, 36, 80
9, 133196, Note_off_c, 9, 40, 80
9, 133196, Note_off_c, 9, 44, 80
9, 133200, Note_on_c, 9, 44, 90
9, 133436, Note_off_c, 9, 44, 80
9, 133440, Note_on_c, 9, 36, 102
9, 133440, Note_on_c, 9, 40, 104
9, 133440, Note_on_c, 9, 44, 90
9, 133676, Note_off_c, 9, 36, 80
9, 133676, Note_off_c, 9, 40, 80
9, 133676, Note_off_c, 9, 44, 80
9, 133680, Note_on_c, 9, 46, 82
9, 133916, Note_off_c, 9, 46, 80
9, 133920, Note_on_c, 9, 36, 102
9, 133920, Note_on_c, 9, 40, 104
9, 133920, Note_on_c, 9, 44, 90
9, 134156, Note_off_c, 9, 36, 80
9, 134156, Note_off_c, 9, 40, 80
9, 134156, Note_off_c, 9, 44, 80
9, 134160, Note_on_c, 9, 44, 90
9, 134396, Note_off_c, 9, 44, 80
9, 134400, Note_on_c, 9, 36, 102
9, 134400, Note_on_c, 9, 40, 104
9, 134400, Note_on_c, 9, 44, 90
9, 134636, Note_off_c, 9, 36, 80
9, 134636, Note_off_c, 9, 40, 80
9, 134636, Note_off_c, 9, 44, 80
9, 134640, Note_on_c, 9, 46, 82
9, 134876, Note_off_c, 9, 46, 80
9, 134880, Note_on_c, 9, 36, 102
9, 134880, Note_on_c, 9, 40, 104
9, 134880, Note_on_c, 9, 44, 90
9, 135116, Note_off_c, 9, 36, 80
9, 135116, Note_off_c, 9, 40, 80
9, 135116, Note_off_c, 9, 44, 80
9, 135120, Note_on_c, 9, 44, 90
9, 135356, Note_off_c, 9, 44, 80
9, 135360, Note_on_c, 9, 36, 102
9, 135360, Note_on_c, 9, 40, 104
9, 135360, Note_on_c, 9, 44, 90
9, 135596, Note_off_c, 9, 36, 80
9, 135596, Note_off_c, 9, 40, 80
9, 135596, Note_off_c, 9, 44, 80
9, 135600, Note_on_c, 9, 46, 82
9, 135836, Note_off_c, 9, 46, 80
9, 135840, Note_on_c, 9, 36, 102
9, 135840, Note_on_c, 9, 40, 104
9, 135840, Note_on_c, 9, 44, 90
9, 136076, Note_off_c, 9, 36, 80
9, 136076, Note_off_c, 9, 40, 80
9, 136076, Note_off_c, 9, 44, 80
9, 136080, Note_on_c, 9, 46, 82
9, 136316, Note_off_c, 9, 46, 80
9, 136320, Note_on_c, 9, 36, 102
9, 136320, Note_on_c, 9, 40, 104
9, 136320, Note_on_c, 9, 44, 90
9, 136556, Note_off_c, 9, 36, 80
9, 136556, Note_off_c, 9, 40, 80
9, 136556, Note_off_c, 9, 44, 80
9, 136560, Note_on_c, 9, 44, 90
9, 136796, Note_off_c, 9, 44, 80
9, 136800, Note_on_c, 9, 36, 102
9, 136800, Note_on_c, 9, 40, 104
9, 136800, Note_on_c, 9, 44, 90
9, 137036, Note_off_c, 9, 36, 80
9, 137036, Note_off_c, 9, 40, 80
9, 137036, Note_off_c, 9, 44, 80
9, 137040, Note_on_c, 9, 46, 82
9, 137276, Note_off_c, 9, 46, 80
9, 137280, Note_on_c, 9, 36, 102
9, 137280, Note_on_c, 9, 40, 104
9, 137280, Note_on_c, 9, 44, 90
9, 137516, Note_off_c, 9, 36, 80
9, 137516, Note_off_c, 9, 40, 80
9, 137516, Note_off_c, 9, 44, 80
9, 137520, Note_on_c, 9, 44, 90
9, 137756, Note_off_c, 9, 44, 80
9, 137760, Note_on_c, 9, 36, 102
9, 137760, Note_on_c, 9, 40, 104
9, 137760, Note_on_c, 9, 44, 90
9, 137996, Note_off_c, 9, 36, 80
9, 137996, Note_off_c, 9, 40, 80
9, 137996, Note_off_c, 9, 44, 80
9, 138000, Note_on_c, 9, 46, 82
9, 138236, Note_off_c, 9, 46, 80
9, 138240, Note_on_c, 9, 36, 102
9, 138240, Note_on_c, 9, 40, 104
9, 138240, Note_on_c, 9, 44, 90
9, 138476, Note_off_c, 9, 36, 80
9, 138476, Note_off_c, 9, 40, 80
9, 138476, Note_off_c, 9, 44, 80
9, 138480, Note_on_c, 9, 44, 90
9, 138716, Note_off_c, 9, 44, 80
9, 138720, Note_on_c, 9, 36, 102
9, 138720, Note_on_c, 9, 40, 104
9, 138720, Note_on_c, 9, 44, 90
9, 138956, Note_off_c, 9, 36, 80
9, 138956, Note_off_c, 9, 40, 80
9, 138956, Note_off_c, 9, 44, 80
9, 138960, Note_on_c, 9, 44, 90
9, 139196, Note_off_c, 9, 44, 80
9, 139200, Note_on_c, 9, 36, 102
9, 139200, Note_on_c, 9, 40, 104
9, 139200, Note_on_c, 9, 44, 90
9, 139436, Note_off_c, 9, 36, 80
9, 139436, Note_off_c, 9, 40, 80
9, 139436, Note_off_c, 9, 44, 80
9, 139440, Note_on_c, 9, 46, 82
9, 139676, Note_off_c, 9, 46, 80
9, 139680, Note_on_c, 9, 36, 102
9, 139680, Note_on_c, 9, 40, 104
9, 139680, Note_on_c, 9, 44, 90
9, 139916, Note_off_c, 9, 36, 80
9, 139916, Note_off_c, 9, 40, 80
9, 139916, Note_off_c, 9, 44, 80
9, 139920, Note_on_c, 9, 46, 82
9, 140156, Note_off_c, 9, 46, 80
9, 140160, Note_on_c, 9, 36, 102
9, 140160, Note_on_c, 9, 40, 104
9, 140160, Note_on_c, 9, 44, 90
9, 140160, Note_on_c, 9, 49, 78
9, 140396, Note_off_c, 9, 36, 80
9, 140396, Note_off_c, 9, 40, 80
9, 140396, Note_off_c, 9, 44, 80
9, 140396, Note_off_c, 9, 49, 80
9, 140400, Note_on_c, 9, 44, 90
9, 140636, Note_off_c, 9, 44, 80
9, 140640, Note_on_c, 9, 36, 102
9, 140640, Note_on_c, 9, 40, 104
9, 140640, Note_on_c, 9, 44, 90
9, 140876, Note_off_c, 9, 36, 80
9, 140876, Note_off_c, 9, 40, 80
9, 140876, Note_off_c, 9, 44, 80
9, 140880, Note_on_c, 9, 44, 90
9, 141116, Note_off_c, 9, 44, 80
9, 141120, Note_on_c, 9, 36, 102
9, 141120, Note_on_c, 9, 40, 104
9, 141120, Note_on_c, 9, 44, 90
9, 141356, Note_off_c, 9, 36, 80
9, 141356, Note_off_c, 9, 40, 80
9, 141356, Note_off_c, 9, 44, 80
9, 141360, Note_on_c, 9, 46, 82
9, 141596, Note_off_c, 9, 46, 80
9, 141600, Note_on_c, 9, 36, 102
9, 141600, Note_on_c, 9, 40, 104
9, 141600, Note_on_c, 9, 44, 90
9, 141836, Note_off_c, 9, 36, 80
9, 141836, Note_off_c, 9, 40, 80
9, 141836, Note_off_c, 9, 44, 80
9, 141840, Note_on_c, 9, 44, 90
9, 142076, Note_off_c, 9, 44, 80
9, 142080, Note_on_c, 9, 36, 102
9, 142080, Note_on_c, 9, 40, 104
9, 142080, Note_on_c, 9, 44, 90
9, 142316, Note_off_c, 9, 36, 80
9, 142316, Note_off_c, 9, 40, 80
9, 142316, Note_off_c, 9, 44, 80
9, 142320, Note_on_c, 9, 46, 82
9, 142556, Note_off_c, 9, 46, 80
9, 142560, Note_on_c, 9, 36, 102
9, 142560, Note_on_c, 9, 40, 104
9, 142560, Note_on_c, 9, 44, 90
9, 142796, Note_off_c, 9, 36, 80
9, 142796, Note_off_c, 9, 40, 80
9, 142796, Note_off_c, 9, 44, 80
9, 142800, Note_on_c, 9, 44, 90
9, 143036, Note_off_c, 9, 44, 80
9, 143040, Note_on_c, 9, 36, 102
9, 143040, Note_on_c, 9, 40, 104
9, 143040, Note_on_c, 9, 44, 90
9, 143276, Note_off_c, 9, 36, 80
9, 143276, Note_off_c, 9, 40, 80
9, 143276, Note_off_c, 9, 44, 80
9, 143280, Note_on_c, 9, 46, 82
9, 143516, Note_off_c, 9, 46, 80
9, 143520, Note_on_c, 9, 36, 102
9, 143520, Note_on_c, 9, 40, 104
9, 143520, Note_on_c, 9, 44, 90
9, 143756, Note_off_c, 9, 36, 80
9, 143756, Note_off_c, 9, 40, 80
9, 143756, Note_off_c, 9, 44, 80
9, 143760, Note_on_c, 9, 46, 82
9, 143996, Note_off_c, 9, 46, 80
9, 144000, Note_on_c, 9, 36, 102
9, 144000, Note_on_c, 9, 40, 104
9, 144000, Note_on_c, 9, 44, 90
9, 144236, Note_off_c, 9, 36, 80
9, 144236, Note_off_c, 9, 40, 80
9, 144236, Note_off_c, 9, 44, 80
9, 144240, Note_on_c, 9, 44, 90
9, 144476, Note_off_c, 9, 44, 80
9, 144480, Note_on_c, 9, 36, 102
9, 144480, Note_on_c, 9, 40, 104
9, 144480, Note_on_c, 9, 44, 90
9, 144716, Note_off_c, 9, 36, 80
9, 144716, Note_off_c, 9, 40, 80
9, 144716, Note_off_c, 9, 44, 80
9, 144720, Note_on_c, 9, 46, 82
9, 144956, Note_off_c, 9, 46, 80
9, 144960, Note_on_c, 9, 36, 102
9, 144960, Note_on_c, 9, 40, 104
9, 144960, Note_on_c, 9, 44, 90
9, 145196, Note_off_c, 9, 36, 80
9, 145196, Note_off_c, 9, 40, 80
9, 145196, Note_off_c, 9, 44, 80
9, 145200, Note_on_c, 9, 44, 90
9, 145436, Note_off_c, 9, 44, 80
9, 145440, Note_on_c, 9, 36, 102
9, 145440, Note_on_c, 9, 40, 104
9, 145440, Note_on_c, 9, 44, 90
9, 145676, Note_off_c, 9, 36, 80
9, 145676, Note_off_c, 9, 40, 80
9, 145676, Note_off_c, 9, 44, 80
9, 145680, Note_on_c, 9, 46, 82
9, 145916, Note_off_c, 9, 46, 80
9, 145920, Note_on_c, 9, 36, 102
9, 145920, Note_on_c, 9, 40, 104
9, 145920, Note_on_c, 9, 44, 90
9, 146156, Note_off_c, 9, 36, 80
9, 146156, Note_off_c, 9, 40, 80
9, 146156, Note_off_c, 9, 44, 80
9, 146160, Note_on_c, 9, 44, 90
9, 146396, Note_off_c, 9, 44, 80
9, 146400, Note_on_c, 9, 36, 102
9, 146400, Note_on_c, 9, 40, 104
9, 146400, Note_on_c, 9, 44, 90
9, 146636, Note_off_c, 9, 36, 80
9, 146636, Note_off_c, 9, 40, 80
9, 146636, Note_off_c, 9, 44, 80
9, 146640, Note_on_c, 9, 44, 90
9, 146876, Note_off_c, 9, 44, 80
9, 146880, Note_on_c, 9, 36, 102
9, 146880, Note_on_c, 9, 40, 104
9, 146880, Note_on_c, 9, 44, 90
9, 147116, Note_off_c, 9, 36, 80
9, 147116, Note_off_c, 9, 40, 80
9, 147116, Note_off_c, 9, 44, 80
9, 147120, Note_on_c, 9, 46, 82
9, 147356, Note_off_c, 9, 46, 80
9, 147360, Note_on_c, 9, 36, 102
9, 147360, Note_on_c, 9, 40, 104
9, 147360, Note_on_c, 9, 44, 90
9, 147596, Note_off_c, 9, 36, 80
9, 147596, Note_off_c, 9, 40, 80
9, 147596, Note_off_c, 9, 44, 80
9, 147600, Note_on_c, 9, 44, 90
9, 147836, Note_off_c, 9, 44, 80
9, 147840, Note_on_c, 9, 36, 102
9, 147840, Note_on_c, 9, 40, 104
9, 147840, Note_on_c, 9, 44, 90
9, 148076, Note_off_c, 9, 36, 80
9, 148076, Note_off_c, 9, 40, 80
9, 148076, Note_off_c, 9, 44, 80
9, 148080, Note_on_c, 9, 46, 82
9, 148316, Note_off_c, 9, 46, 80
9, 148320, Note_on_c, 9, 36, 102
9, 148320, Note_on_c, 9, 40, 104
9, 148320, Note_on_c, 9, 44, 90
9, 148556, Note_off_c, 9, 36, 80
9, 148556, Note_off_c, 9, 40, 80
9, 148556, Note_off_c, 9, 44, 80
9, 148560, Note_on_c, 9, 44, 90
9, 148796, Note_off_c, 9, 44, 80
9, 148800, Note_on_c, 9, 36, 102
9, 148800, Note_on_c, 9, 40, 104
9, 148800, Note_on_c, 9, 44, 90
9, 149036, Note_off_c, 9, 36, 80
9, 149036, Note_off_c, 9, 40, 80
9, 149036, Note_off_c, 9, 44, 80
9, 149040, Note_on_c, 9, 46, 82
9, 149276, Note_off_c, 9, 46, 80
9, 149280, Note_on_c, 9, 36, 102
9, 149280, Note_on_c, 9, 40, 104
9, 149280, Note_on_c, 9, 44, 90
9, 149516, Note_off_c, 9, 36, 80
9, 149516, Note_off_c, 9, 40, 80
9, 149516, Note_off_c, 9, 44, 80
9, 149520, Note_on_c, 9, 46, 82
9, 149756, Note_off_c, 9, 46, 80
9, 149760, Note_on_c, 9, 36, 102
9, 149760, Note_on_c, 9, 40, 104
9, 149760, Note_on_c, 9, 44, 90
9, 149996, Note_off_c, 9, 36, 80
9, 149996, Note_off_c, 9, 40, 80
9, 149996, Note_off_c, 9, 44, 80
9, 150000, Note_on_c, 9, 44, 90
9, 150236, Note_off_c, 9, 44, 80
9, 150240, Note_on_c, 9, 36, 102
9, 150240, Note_on_c, 9, 40, 104
9, 150240, Note_on_c, 9, 44, 90
9, 150476, Note_off_c, 9, 36, 80
9, 150476, Note_off_c, 9, 40, 80
9, 150476, Note_off_c, 9, 44, 80
9, 150480, Note_on_c, 9, 46, 82
9, 150716, Note_off_c, 9, 46, 80
9, 150720, Note_on_c, 9, 36, 102
9, 150720, Note_on_c, 9, 40, 104
9, 150720, Note_on_c, 9, 44, 90
9, 150956, Note_off_c, 9, 36, 80
9, 150956, Note_off_c, 9, 40, 80
9, 150956, Note_off_c, 9, 44, 80
9, 150960, Note_on_c, 9, 44, 90
9, 151196, Note_off_c, 9, 44, 80
9, 151200, Note_on_c, 9, 36, 102
9, 151200, Note_on_c, 9, 40, 104
9, 151200, Note_on_c, 9, 44, 90
9, 151436, Note_off_c, 9, 36, 80
9, 151436, Note_off_c, 9, 40, 80
9, 151436, Note_off_c, 9, 44, 80
9, 151440, Note_on_c, 9, 46, 82
9, 151676, Note_off_c, 9, 46, 80
9, 151680, Note_on_c, 9, 36, 102
9, 151680, Note_on_c, 9, 40, 104
9, 151916, Note_off_c, 9, 36, 80
9, 151916, Note_off_c, 9, 40, 80
9, 152160, Note_on_c, 9, 36, 102
9, 152160, Note_on_c, 9, 40, 104
9, 152396, Note_off_c, 9, 36, 80
9, 152396, Note_off_c, 9, 40, 80
9, 152640, Note_on_c, 9, 36, 102
9, 152640, Note_on_c, 9, 40, 104
9, 152876, Note_off_c, 9, 36, 80
9, 152876, Note_off_c, 9, 40, 80
9, 153120, Note_on_c, 9, 36, 102
9, 153120, Note_on_c, 9, 40, 104
9, 153356, Note_off_c, 9, 36, 80
9, 153356, Note_off_c, 9, 40, 80
9, 153600, Note_on_c, 9, 36, 102
9, 153600, Note_on_c, 9, 40, 104
9, 153836, Note_off_c, 9, 36, 80
9, 153836, Note_off_c, 9, 40, 80
9, 154080, Note_on_c, 9, 36, 102
9, 154080, Note_on_c, 9, 40, 104
9, 154316, Note_off_c, 9, 36, 80
9, 154316, Note_off_c, 9, 40, 80
9, 154560, Note_on_c, 9, 36, 102
9, 154560, Note_on_c, 9, 40, 104
9, 154796, Note_off_c, 9, 36, 80
9, 154796, Note_off_c, 9, 40, 80
9, 155040, Note_on_c, 9, 36, 102
9, 155040, Note_on_c, 9, 40, 104
9, 155276, Note_off_c, 9, 36, 80
9, 155276, Note_off_c, 9, 40, 80
9, 155520, Note_on_c, 9, 36, 102
9, 155520, Note_on_c, 9, 40, 104
9, 155756, Note_off_c, 9, 36, 80
9, 155756, Note_off_c, 9, 40, 80
9, 156000, Note_on_c, 9, 36, 102
9, 156000, Note_on_c, 9, 40, 104
9, 156236, Note_off_c, 9, 36, 80
9, 156236, Note_off_c, 9, 40, 80
9, 156480, Note_on_c, 9, 36, 102
9, 156480, Note_on_c, 9, 40, 104
9, 156716, Note_off_c, 9, 36, 80
9, 156716, Note_off_c, 9, 40, 80
9, 156960, Note_on_c, 9, 36, 102
9, 156960, Note_on_c, 9, 40, 104
9, 157196, Note_off_c, 9, 36, 80
9, 157196, Note_off_c, 9, 40, 80
9, 157440, Note_on_c, 9, 36, 102
9, 157440, Note_on_c, 9, 40, 104
9, 157676, Note_off_c, 9, 36, 80
9, 157676, Note_off_c, 9, 40, 80
9, 157920, Note_on_c, 9, 36, 102
9, 157920, Note_on_c, 9, 40, 104
9, 158156, Note_off_c, 9, 36, 80
9, 158156, Note_off_c, 9, 40, 80
9, 158400, Note_on_c, 9, 36, 102
9, 158400, Note_on_c, 9, 40, 104
9, 158636, Note_off_c, 9, 36, 80
9, 158636, Note_off_c, 9, 40, 80
9, 158880, Note_on_c, 9, 36, 102
9, 158880, Note_on_c, 9, 40, 104
9, 159116, Note_off_c, 9, 36, 80
9, 159116, Note_off_c, 9, 40, 80
9, 159360, Note_on_c, 9, 36, 102
9, 159360, Note_on_c, 9, 40, 104
9, 159360, Note_on_c, 9, 44, 90
9, 159360, Note_on_c, 9, 49, 78
9, 159596, Note_off_c, 9, 36, 80
9, 159596, Note_off_c, 9, 40, 80
9, 159596, Note_off_c, 9, 44, 80
9, 159596, Note_off_c, 9, 49, 80
9, 159600, Note_on_c, 9, 44, 90
9, 159836, Note_off_c, 9, 44, 80
9, 159840, Note_on_c, 9, 36, 102
9, 159840, Note_on_c, 9, 40, 104
9, 159840, Note_on_c, 9, 44, 90
9, 160076, Note_off_c, 9, 36, 80
9, 160076, Note_off_c, 9, 40, 80
9, 160076, Note_off_c, 9, 44, 80
9, 160080, Note_on_c, 9, 44, 90
9, 160316, Note_off_c, 9, 44, 80
9, 160320, Note_on_c, 9, 36, 102
9, 160320, Note_on_c, 9, 40, 104
9, 160320, Note_on_c, 9, 44, 90
9, 160556, Note_off_c, 9, 36, 80
9, 160556, Note_off_c, 9, 40, 80
9, 160556, Note_off_c, 9, 44, 80
9, 160560, Note_on_c, 9, 46, 82
9, 160796, Note_off_c, 9, 46, 80
9, 160800, Note_on_c, 9, 36, 102
9, 160800, Note_on_c, 9, 40, 104
9, 160800, Note_on_c, 9, 44, 90
9, 161036, Note_off_c, 9, 36, 80
9, 161036, Note_off_c, 9, 40, 80
9, 161036, Note_off_c, 9, 44, 80
9, 161040, Note_on_c, 9, 44, 90
9, 161276, Note_off_c, 9, 44, 80
9, 161280, Note_on_c, 9, 36, 102
9, 161280, Note_on_c, 9, 40, 104
9, 161280, Note_on_c, 9, 44, 90
9, 161516, Note_off_c, 9, 36, 80
9, 161516, Note_off_c, 9, 40, 80
9, 161516, Note_off_c, 9, 44, 80
9, 161520, Note_on_c, 9, 46, 82
9, 161756, Note_off_c, 9, 46, 80
9, 161760, Note_on_c, 9, 36, 102
9, 161760, Note_on_c, 9, 40, 104
9, 161760, Note_on_c, 9, 44, 90
9, 161996, Note_off_c, 9, 36, 80
9, 161996, Note_off_c, 9, 40, 80
9, 161996, Note_off_c, 9, 44, 80
9, 162000, Note_on_c, 9, 44, 90
9, 162236, Note_off_c, 9, 44, 80
9, 162240, Note_on_c, 9, 36, 102
9, 162240, Note_on_c, 9, 40, 104
9, 162240, Note_on_c, 9, 44, 90
9, 162476, Note_off_c, 9, 36, 80
9, 162476, Note_off_c, 9, 40, 80
9, 162476, Note_off_c, 9, 44, 80
9, 162480, Note_on_c, 9, 46, 82
9, 162716, Note_off_c, 9, 46, 80
9, 162720, Note_on_c, 9, 36, 102
9, 162720, Note_on_c, 9, 40, 104
9, 162720, Note_on_c, 9, 44, 90
9, 162956, Note_off_c, 9, 36, 80
9, 162956, Note_off_c, 9, 40, 80
9, 162956, Note_off_c, 9, 44, 80
9, 162960, Note_on_c, 9, 46, 82
9, 163196, Note_off_c, 9, 46, 80
9, 163200, Note_on_c, 9, 36, 102
9, 163200, Note_on_c, 9, 40, 104
9, 163200, Note_on_c, 9, 44, 90
9, 163436, Note_off_c, 9, 36, 80
9, 163436, Note_off_c, 9, 40, 80
9, 163436, Note_off_c, 9, 44, 80
9, 163440, Note_on_c, 9, 44, 90
9, 163676, Note_off_c, 9, 44, 80
9, 163680, Note_on_c, 9, 36, 102
9, 163680, Note_on_c, 9, 40, 104
9, 163680, Note_on_c, 9, 44, 90
9, 163916, Note_off_c, 9, 36, 80
9, 163916, Note_off_c, 9, 40, 80
9, 163916, Note_off_c, 9, 44, 80
9, 163920, Note_on_c, 9, 46, 82
9, 164156, Note_off_c, 9, 46, 80
9, 164160, Note_on_c, 9, 36, 102
9, 164160, Note_on_c, 9, 40, 104
9, 164160, Note_on_c, 9, 44, 90
9, 164396, Note_off_c, 9, 36, 80
9, 164396, Note_off_c, 9, 40, 80
9, 164396, Note_off_c, 9, 44, 80
9, 164400, Note_on_c, 9, 44, 90
9, 164636, Note_off_c, 9, 44, 80
9, 164640, Note_on_c, 9, 36, 102
9, 164640, Note_on_c, 9, 40, 104
9, 164640, Note_on_c, 9, 44, 90
9, 164876, Note_off_c, 9, 36, 80
9, 164876, Note_off_c, 9, 40, 80
9, 164876, Note_off_c, 9, 44, 80
9, 164880, Note_on_c, 9, 46, 82
9, 165116, Note_off_c, 9, 46, 80
9, 165120, Note_on_c, 9, 36, 102
9, 165120, Note_on_c, 9, 40, 104
9, 165120, Note_on_c, 9, 44, 90
9, 165356, Note_off_c, 9, 36, 80
9, 165356, Note_off_c, 9, 40, 80
9, 165356, Note_off_c, 9, 44, 80
9, 165360, Note_on_c, 9, 44, 90
9, 165596, Note_off_c, 9, 44, 80
9, 165600, Note_on_c, 9, 36, 102
9, 165600, Note_on_c, 9, 40, 104
9, 165600, Note_on_c, 9, 44, 90
9, 165836, Note_off_c, 9, 36, 80
9, 165836, Note_off_c, 9, 40, 80
9, 165836, Note_off_c, 9, 44, 80
9, 165840, Note_on_c, 9, 44, 90
9, 166076, Note_off_c, 9, 44, 80
9, 166080, Note_on_c, 9, 36, 102
9, 166080, Note_on_c, 9, 40, 104
9, 166080, Note_on_c, 9, 44, 90
9, 166316, Note_off_c, 9, 36, 80
9, 166316, Note_off_c, 9, 40, 80
9, 166316, Note_off_c, 9, 44, 80
9, 166320, Note_on_c, 9, 46, 82
9, 166556, Note_off_c, 9, 46, 80
9, 166560, Note_on_c, 9, 36, 102
9, 166560, Note_on_c, 9, 40, 104
9, 166560, Note_on_c, 9, 44, 90
9, 166796, Note_off_c, 9, 36, 80
9, 166796, Note_off_c, 9, 40, 80
9, 166796, Note_off_c, 9, 44, 80
9, 166800, Note_on_c, 9, 44, 90
9, 167036, Note_off_c, 9, 44, 80
9, 167040, Note_on_c, 9, 36, 102
9, 167040, Note_on_c, 9, 40, 104
9, 167040, Note_on_c, 9, 44, 90
9, 167276, Note_off_c, 9, 36, 80
9, 167276, Note_off_c, 9, 40, 80
9, 167276, Note_off_c, 9, 44, 80
9, 167280, Note_on_c, 9, 44, 90
9, 167516, Note_off_c, 9, 44, 80
9, 167520, Note_on_c, 9, 36, 102
9, 167520, Note_on_c, 9, 40, 104
9, 167520, Note_on_c, 9, 44, 90
9, 167756, Note_off_c, 9, 36, 80
9, 167756, Note_off_c, 9, 40, 80
9, 167756, Note_off_c, 9, 44, 80
9, 167760, Note_on_c, 9, 44, 90
9, 167996, Note_off_c, 9, 44, 80
9, 168000, Note_on_c, 9, 36, 102
9, 168000, Note_on_c, 9, 40, 104
9, 168000, Note_on_c, 9, 44, 90
9, 168236, Note_off_c, 9, 36, 80
9, 168236, Note_off_c, 9, 40, 80
9, 168236, Note_off_c, 9, 44, 80
9, 168240, Note_on_c, 9, 46, 82
9, 168476, Note_off_c, 9, 46, 80
9, 168480, Note_on_c, 9, 36, 102
9, 168480, Note_on_c, 9, 40, 104
9, 168480, Note_on_c, 9, 44, 90
9, 168716, Note_off_c, 9, 36, 80
9, 168716, Note_off_c, 9, 40, 80
9, 168716, Note_off_c, 9, 44, 80
9, 168720, Note_on_c, 9, 44, 90
9, 168956, Note_off_c, 9, 44, 80
9, 168960, Note_on_c, 9, 36, 102
9, 168960, Note_on_c, 9, 40, 104
9, 168960, Note_on_c, 9, 44, 90
9, 169196, Note_off_c, 9, 36, 80
9, 169196, Note_off_c, 9, 40, 80
9, 169196, Note_off_c, 9, 44, 80
9, 169200, Note_on_c, 9, 46, 82
9, 169436, Note_off_c, 9, 46, 80
9, 169440, Note_on_c, 9, 36, 102
9, 169440, Note_on_c, 9, 40, 104
9, 169440, Note_on_c, 9, 44, 90
9, 169676, Note_off_c, 9, 36, 80
9, 169676, Note_off_c, 9, 40, 80
9, 169676, Note_off_c, 9, 44, 80
9, 169680, Note_on_c, 9, 44, 90
9, 169916, Note_off_c, 9, 44, 80
9, 169920, Note_on_c, 9, 36, 102
9, 169920, Note_on_c, 9, 40, 104
9, 169920, Note_on_c, 9, 44, 90
9, 170156, Note_off_c, 9, 36, 80
9, 170156, Note_off_c, 9, 40, 80
9, 170156, Note_off_c, 9, 44, 80
9, 170160, Note_on_c, 9, 46, 82
9, 170396, Note_off_c, 9, 46, 80
9, 170400, Note_on_c, 9, 36, 102
9, 170400, Note_on_c, 9, 40, 104
9, 170400, Note_on_c, 9, 44, 90
9, 170636, Note_off_c, 9, 36, 80
9, 170636, Note_off_c, 9, 40, 80
9, 170636, Note_off_c, 9, 44, 80
9, 170640, Note_on_c, 9, 46, 82
9, 170876, Note_off_c, 9, 46, 80
9, 170880, Note_on_c, 9, 36, 102
9, 170880, Note_on_c, 9, 40, 104
9, 170880, Note_on_c, 9, 44, 90
9, 171116, Note_off_c, 9, 36, 80
9, 171116, Note_off_c, 9, 40, 80
9, 171116, Note_off_c, 9, 44, 80
9, 171120, Note_on_c, 9, 44, 90
9, 171356, Note_off_c, 9, 44, 80
9, 171360, Note_on_c, 9, 36, 102
9, 171360, Note_on_c, 9, 40, 104
9, 171360, Note_on_c, 9, 44, 90
9, 171596, Note_off_c, 9, 36, 80
9, 171596, Note_off_c, 9, 40, 80
9, 171596, Note_off_c, 9, 44, 80
9, 171600, Note_on_c, 9, 46, 82
9, 171836, Note_off_c, 9, 46, 80
9, 171840, Note_on_c, 9, 36, 102
9, 171840, Note_on_c, 9, 40, 104
9, 171840, Note_on_c, 9, 44, 90
9, 172076, Note_off_c, 9, 36, 80
9, 172076, Note_off_c, 9, 40, 80
9, 172076, Note_off_c, 9, 44, 80
9, 172080, Note_on_c, 9, 44, 90
9, 172316, Note_off_c, 9, 44, 80
9, 172320, Note_on_c, 9, 36, 102
9, 172320, Note_on_c, 9, 40, 104
9, 172320, Note_on_c, 9, 44, 90
9, 172556, Note_off_c, 9, 36, 80
9, 172556, Note_off_c, 9, 40, 80
9, 172556, Note_off_c, 9, 44, 80
9, 172560, Note_on_c, 9, 46, 82
9, 172796, Note_off_c, 9, 46, 80
9, 172800, Note_on_c, 9, 36, 102
9, 172800, Note_on_c, 9, 40, 104
9, 172800, Note_on_c, 9, 44, 90
9, 173036, Note_off_c, 9, 36, 80
9, 173036, Note_off_c, 9, 40, 80
9, 173036, Note_off_c, 9, 44, 80
9, 173040, Note_on_c, 9, 44, 90
9, 173276, Note_off_c, 9, 44, 80
9, 173280, Note_on_c, 9, 36, 102
9, 173280, Note_on_c, 9, 40, 104
9, 173280, Note_on_c, 9, 44, 90
9, 173516, Note_off_c, 9, 36, 80
9, 173516, Note_off_c, 9, 40, 80
9, 173516, Note_off_c, 9, 44, 80
9, 173520, Note_on_c, 9, 44, 90
9, 173756, Note_off_c, 9, 44, 80
9, 173760, Note_on_c, 9, 36, 102
9, 173760, Note_on_c, 9, 40, 104
9, 173760, Note_on_c, 9, 44, 90
9, 173996, Note_off_c, 9, 36, 80
9, 173996, Note_off_c, 9, 40, 80
9, 173996, Note_off_c, 9, 44, 80
9, 174000, Note_on_c, 9, 46, 82
9, 174236, Note_off_c, 9, 46, 80
9, 174240, Note_on_c, 9, 36, 102
9, 174240, Note_on_c, 9, 40, 104
9, 174240, Note_on_c, 9, 44, 90
9, 174476, Note_off_c, 9, 36, 80
9, 174476, Note_off_c, 9, 40, 80
9, 174476, Note_off_c, 9, 44, 80
9, 174480, Note_on_c, 9, 46, 82
9, 174716, Note_off_c, 9, 46, 80
9, 174720, Note_on_c, 9, 36, 102
9, 174720, Note_on_c, 9, 40, 104
9, 174720, Note_on_c, 9, 44, 90
9, 174720, Note_on_c, 9, 49, 78
9, 174956, Note_off_c, 9, 36, 80
9, 174956, Note_off_c, 9, 40, 80
9, 174956, Note_off_c, 9, 44, 80
9, 174956, Note_off_c, 9, 49, 80
9, 174960, Note_on_c, 9, 44, 90
9, 175196, Note_off_c, 9, 44, 80
9, 175200, Note_on_c, 9, 36, 102
9, 175200, Note_on_c, 9, 40, 104
9, 175200, Note_on_c, 9, 44, 90
9, 175436, Note_off_c, 9, 36, 80
9, 175436, Note_off_c, 9, 40, 80
9, 175436, Note_off_c, 9, 44, 80
9, 175440, Note_on_c, 9, 44, 90
9, 175676, Note_off_c, 9, 44, 80
9, 175680, Note_on_c, 9, 36, 102
9, 175680, Note_on_c, 9, 40, 104
9, 175680, Note_on_c, 9, 44, 90
9, 175916, Note_off_c, 9, 36, 80
9, 175916, Note_off_c, 9, 40, 80
9, 175916, Note_off_c, 9, 44, 80
9, 175920, Note_on_c, 9, 44, 90
9, 176156, Note_off_c, 9, 44, 80
9, 176160, Note_on_c, 9, 36, 102
9, 176160, Note_on_c, 9, 40, 104
9, 176160, Note_on_c, 9, 44, 90
9, 176396, Note_off_c, 9, 36, 80
9, 176396, Note_off_c, 9, 40, 80
9, 176396, Note_off_c, 9, 44, 80
9, 176400, Note_on_c, 9, 44, 90
9, 176636, Note_off_c, 9, 44, 80
9, 176640, Note_on_c, 9, 36, 102
9, 176640, Note_on_c, 9, 40, 104
9, 176640, Note_on_c, 9, 44, 90
9, 176876, Note_off_c, 9, 36, 80
9, 176876, Note_off_c, 9, 40, 80
9, 176876, Note_off_c, 9, 44, 80
9, 176880, Note_on_c, 9, 44, 90
9, 177116, Note_off_c, 9, 44, 80
9, 177120, Note_on_c, 9, 36, 102
9, 177120, Note_on_c, 9, 40, 104
9, 177120, Note_on_c, 9, 44, 90
9, 177356, Note_off_c, 9, 36, 80
9, 177356, Note_off_c, 9, 40, 80
9, 177356, Note_off_c, 9, 44, 80
9, 177360, Note_on_c, 9, 44, 90
9, 177596, Note_off_c, 9, 44, 80
9, 177600, Note_on_c, 9, 36, 102
9, 177600, Note_on_c, 9, 40, 104
9, 177600, Note_on_c, 9, 44, 90
9, 177836, Note_off_c, 9, 36, 80
9, 177836, Note_off_c, 9, 40, 80
9, 177836, Note_off_c, 9, 44, 80
9, 177840, Note_on_c, 9, 44, 90
9, 178076, Note_off_c, 9, 44, 80
9, 178080, Note_on_c, 9, 36, 102
9, 178080, Note_on_c, 9, 40, 104
9, 178080, Note_on_c, 9, 44, 90
9, 178316, Note_off_c, 9, 36, 80
9, 178316, Note_off_c, 9, 40, 80
9, 178316, Note_off_c, 9, 44, 80
9, 178320, Note_on_c, 9, 44, 90
9, 178556, Note_off_c, 9, 44, 80
9, 178560, Note_on_c, 9, 36, 102
9, 178560, Note_on_c, 9, 40, 104
9, 178560, Note_on_c, 9, 44, 90
9, 178796, Note_off_c, 9, 36, 80
9, 178796, Note_off_c, 9, 40, 80
9, 178796, Note_off_c, 9, 44, 80
9, 178800, Note_on_c, 9, 44, 90
9, 179036, Note_off_c, 9, 44, 80
9, 179040, Note_on_c, 9, 36, 102
9, 179040, Note_on_c, 9, 40, 104
9, 179040, Note_on_c, 9, 44, 90
9, 179276, Note_off_c, 9, 36, 80
9, 179276, Note_off_c, 9, 40, 80
9, 179276, Note_off_c, 9, 44, 80
9, 179280, Note_on_c, 9, 44, 90
9, 179516, Note_off_c, 9, 44, 80
9, 179520, Note_on_c, 9, 36, 102
9, 179520, Note_on_c, 9, 40, 104
9, 179520, Note_on_c, 9, 44, 90
9, 179756, Note_off_c, 9, 36, 80
9, 179756, Note_off_c, 9, 40, 80
9, 179756, Note_off_c, 9, 44, 80
9, 179760, Note_on_c, 9, 44, 90
9, 179996, Note_off_c, 9, 44, 80
9, 180000, Note_on_c, 9, 36, 102
9, 180000, Note_on_c, 9, 40, 104
9, 180000, Note_on_c, 9, 44, 90
9, 180236, Note_off_c, 9, 36, 80
9, 180236, Note_off_c, 9, 40, 80
9, 180236, Note_off_c, 9, 44, 80
9, 180240, Note_on_c, 9, 44, 90
9, 180476, Note_off_c, 9, 44, 80
9, 180480, Note_on_c, 9, 36, 102
9, 180480, Note_on_c, 9, 40, 104
9, 180480, Note_on_c, 9, 44, 90
9, 180716, Note_off_c, 9, 36, 80
9, 180716, Note_off_c, 9, 40, 80
9, 180716, Note_off_c, 9, 44, 80
9, 180720, Note_on_c, 9, 44, 90
9, 180956, Note_off_c, 9, 44, 80
9, 180960, Note_on_c, 9, 36, 102
9, 180960, Note_on_c, 9, 40, 104
9, 180960, Note_on_c, 9, 44, 90
9, 181196, Note_off_c, 9, 36, 80
9, 181196, Note_off_c, 9, 40, 80
9, 181196, Note_off_c, 9, 44, 80
9, 181200, Note_on_c, 9, 44, 90
9, 181436, Note_off_c, 9, 44, 80
9, 181440, Note_on_c, 9, 36, 102
9, 181440, Note_on_c, 9, 40, 104
9, 181440, Note_on_c, 9, 44, 90
9, 181676, Note_off_c, 9, 36, 80
9, 181676, Note_off_c, 9, 40, 80
9, 181676, Note_off_c, 9, 44, 80
9, 181680, Note_on_c, 9, 44, 90
9, 181916, Note_off_c, 9, 44, 80
9, 181920, Note_on_c, 9, 36, 102
9, 181920, Note_on_c, 9, 40, 104
9, 181920, Note_on_c, 9, 44, 90
9, 182156, Note_off_c, 9, 36, 80
9, 182156, Note_off_c, 9, 40, 80
9, 182156, Note_off_c, 9, 44, 80
9, 182160, Note_on_c, 9, 44, 90
9, 182396, Note_off_c, 9, 44, 80
9, 182400, Note_on_c, 9, 36, 102
9, 182400, Note_on_c, 9, 40, 104
9, 182400, Note_on_c, 9, 44, 90
9, 182636, Note_off_c, 9, 36, 80
9, 182636, Note_off_c, 9, 40, 80
9, 182636, Note_off_c, 9, 44, 80
9, 182640, Note_on_c, 9, 44, 90
9, 182876, Note_off_c, 9, 44, 80
9, 182880, Note_on_c, 9, 36, 102
9, 182880, Note_on_c, 9, 40, 104
9, 182880, Note_on_c, 9, 44, 90
9, 183116, Note_off_c, 9, 36, 80
9, 183116, Note_off_c, 9, 40, 80
9, 183116, Note_off_c, 9, 44, 80
9, 183120, Note_on_c, 9, 44, 90
9, 183356, Note_off_c, 9, 44, 80
9, 183360, Note_on_c, 9, 36, 102
9, 183360, Note_on_c, 9, 40, 104
9, 183360, Note_on_c, 9, 44, 90
9, 183596, Note_off_c, 9, 36, 80
9, 183596, Note_off_c, 9, 40, 80
9, 183596, Note_off_c, 9, 44, 80
9, 183600, Note_on_c, 9, 44, 90
9, 183836, Note_off_c, 9, 44, 80
9, 183840, Note_on_c, 9, 36, 102
9, 183840, Note_on_c, 9, 40, 104
9, 183840, Note_on_c, 9, 44, 90
9, 184076, Note_off_c, 9, 36, 80
9, 184076, Note_off_c, 9, 40, 80
9, 184076, Note_off_c, 9, 44, 80
9, 184080, Note_on_c, 9, 44, 90
9, 184316, Note_off_c, 9, 44, 80
9, 184320, Note_on_c, 9, 36, 102
9, 184320, Note_on_c, 9, 40, 104
9, 184320, Note_on_c, 9, 44, 90
9, 184556, Note_off_c, 9, 36, 80
9, 184556, Note_off_c, 9, 40, 80
9, 184556, Note_off_c, 9, 44, 80
9, 184560, Note_on_c, 9, 44, 90
9, 184796, Note_off_c, 9, 44, 80
9, 184800, Note_on_c, 9, 36, 102
9, 184800, Note_on_c, 9, 40, 104
9, 184800, Note_on_c, 9, 44, 90
9, 185036, Note_off_c, 9, 36, 80
9, 185036, Note_off_c, 9, 40, 80
9, 185036, Note_off_c, 9, 44, 80
9, 185040, Note_on_c, 9, 44, 90
9, 185276, Note_off_c, 9, 44, 80
9, 185280, Note_on_c, 9, 36, 102
9, 185280, Note_on_c, 9, 40, 104
9, 185280, Note_on_c, 9, 44, 90
9, 185516, Note_off_c, 9, 36, 80
9, 185516, Note_off_c, 9, 40, 80
9, 185516, Note_off_c, 9, 44, 80
9, 185520, Note_on_c, 9, 44, 90
9, 185756, Note_off_c, 9, 44, 80
9, 185760, Note_on_c, 9, 36, 102
9, 185760, Note_on_c, 9, 40, 104
9, 185760, Note_on_c, 9, 44, 90
9, 185996, Note_off_c, 9, 36, 80
9, 185996, Note_off_c, 9, 40, 80
9, 185996, Note_off_c, 9, 44, 80
9, 186000, Note_on_c, 9, 44, 90
9, 186236, Note_off_c, 9, 44, 80
9, 186240, Note_on_c, 9, 36, 102
9, 186240, Note_on_c, 9, 40, 104
9, 186240, Note_on_c, 9, 44, 90
9, 186476, Note_off_c, 9, 36, 80
9, 186476, Note_off_c, 9, 40, 80
9, 186476, Note_off_c, 9, 44, 80
9, 186480, Note_on_c, 9, 44, 90
9, 186716, Note_off_c, 9, 44, 80
9, 186720, Note_on_c, 9, 36, 102
9, 186720, Note_on_c, 9, 40, 104
9, 186720, Note_on_c, 9, 44, 90
9, 186956, Note_off_c, 9, 36, 80
9, 186956, Note_off_c, 9, 40, 80
9, 186956, Note_off_c, 9, 44, 80
9, 186960, Note_on_c, 9, 44, 90
9, 187196, Note_off_c, 9, 44, 80
9, 187200, Note_on_c, 9, 36, 102
9, 187200, Note_on_c, 9, 40, 104
9, 187200, Note_on_c, 9, 44, 90
9, 187436, Note_off_c, 9, 36, 80
9, 187436, Note_off_c, 9, 40, 80
9, 187436, Note_off_c, 9, 44, 80
9, 187440, Note_on_c, 9, 44, 90
9, 187676, Note_off_c, 9, 44, 80
9, 187680, Note_on_c, 9, 36, 102
9, 187680, Note_on_c, 9, 40, 104
9, 187680, Note_on_c, 9, 44, 90
9, 187916, Note_off_c, 9, 36, 80
9, 187916, Note_off_c, 9, 40, 80
9, 187916, Note_off_c, 9, 44, 80
9, 187920, Note_on_c, 9, 44, 90
9, 188156, Note_off_c, 9, 44, 80
9, 188160, Note_on_c, 9, 36, 102
9, 188160, Note_on_c, 9, 40, 104
9, 188160, Note_on_c, 9, 44, 90
9, 188396, Note_off_c, 9, 36, 80
9, 188396, Note_off_c, 9, 40, 80
9, 188396, Note_off_c, 9, 44, 80
9, 188400, Note_on_c, 9, 44, 90
9, 188636, Note_off_c, 9, 44, 80
9, 188640, Note_on_c, 9, 36, 102
9, 188640, Note_on_c, 9, 40, 104
9, 188640, Note_on_c, 9, 44, 90
9, 188876, Note_off_c, 9, 36, 80
9, 188876, Note_off_c, 9, 40, 80
9, 188876, Note_off_c, 9, 44, 80
9, 188880, Note_on_c, 9, 44, 90
9, 189116, Note_off_c, 9, 44, 80
9, 189120, Note_on_c, 9, 36, 102
9, 189120, Note_on_c, 9, 40, 104
9, 189120, Note_on_c, 9, 44, 90
9, 189356, Note_off_c, 9, 36, 80
9, 189356, Note_off_c, 9, 40, 80
9, 189356, Note_off_c, 9, 44, 80
9, 189360, Note_on_c, 9, 44, 90
9, 189596, Note_off_c, 9, 44, 80
9, 189600, Note_on_c, 9, 36, 102
9, 189600, Note_on_c, 9, 40, 104
9, 189600, Note_on_c, 9, 44, 90
9, 189836, Note_off_c, 9, 36, 80
9, 189836, Note_off_c, 9, 40, 80
9, 189836, Note_off_c, 9, 44, 80
9, 189840, Note_on_c, 9, 44, 90
9, 190076, Note_off_c, 9, 44, 80
9, 190080, Note_on_c, 9, 36, 102
9, 190080, Note_on_c, 9, 40, 104
9, 190080, Note_on_c, 9, 44, 90
9, 190316, Note_off_c, 9, 36, 80
9, 190316, Note_off_c, 9, 40, 80
9, 190316, Note_off_c, 9, 44, 80
9, 190320, Note_on_c, 9, 44, 90
9, 190556, Note_off_c, 9, 44, 80
9, 190560, Note_on_c, 9, 36, 102
9, 190560, Note_on_c, 9, 40, 104
9, 190560, Note_on_c, 9, 44, 90
9, 190796, Note_off_c, 9, 36, 80
9, 190796, Note_off_c, 9, 40, 80
9, 190796, Note_off_c, 9, 44, 80
9, 190800, Note_on_c, 9, 44, 90
9, 191036, Note_off_c, 9, 44, 80
9, 191040, Note_on_c, 9, 36, 102
9, 191040, Note_on_c, 9, 40, 104
9, 191040, Note_on_c, 9, 44, 90
9, 191276, Note_off_c, 9, 36, 80
9, 191276, Note_off_c, 9, 40, 80
9, 191276, Note_off_c, 9, 44, 80
9, 191280, Note_on_c, 9, 44, 90
9, 191516, Note_off_c, 9, 44, 80
9, 191520, Note_on_c, 9, 36, 102
9, 191520, Note_on_c, 9, 40, 104
9, 191520, Note_on_c, 9, 44, 90
9, 191756, Note_off_c, 9, 36, 80
9, 191756, Note_off_c, 9, 40, 80
9, 191756, Note_off_c, 9, 44, 80
9, 191760, Note_on_c, 9, 44, 90
9, 191996, Note_off_c, 9, 44, 80
9, 192000, Note_on_c, 9, 36, 102
9, 192000, Note_on_c, 9, 40, 104
9, 192000, Note_on_c, 9, 44, 90
9, 192236, Note_off_c, 9, 36, 80
9, 192236, Note_off_c, 9, 40, 80
9, 192236, Note_off_c, 9, 44, 80
9, 192240, Note_on_c, 9, 44, 90
9, 192476, Note_off_c, 9, 44, 80
9, 192480, Note_on_c, 9, 36, 102
9, 192480, Note_on_c, 9, 40, 104
9, 192480, Note_on_c, 9, 44, 90
9, 192716, Note_off_c, 9, 36, 80
9, 192716, Note_off_c, 9, 40, 80
9, 192716, Note_off_c, 9, 44, 80
9, 192720, Note_on_c, 9, 44, 90
9, 192956, Note_off_c, 9, 44, 80
9, 192960, Note_on_c, 9, 36, 102
9, 192960, Note_on_c, 9, 40, 104
9, 192960, Note_on_c, 9, 44, 90
9, 193196, Note_off_c, 9, 36, 80
9, 193196, Note_off_c, 9, 40, 80
9, 193196, Note_off_c, 9, 44, 80
9, 193200, Note_on_c, 9, 44, 90
9, 193436, Note_off_c, 9, 44, 80
9, 193440, Note_on_c, 9, 36, 102
9, 193440, Note_on_c, 9, 40, 104
9, 193440, Note_on_c, 9, 44, 90
9, 193676, Note_off_c, 9, 36, 80
9, 193676, Note_off_c, 9, 40, 80
9, 193676, Note_off_c, 9, 44, 80
9, 193680, Note_on_c, 9, 44, 90
9, 193916, Note_off_c, 9, 44, 80
9, 193920, Note_on_c, 9, 36, 102
9, 193920, Note_on_c, 9, 40, 104
9, 193920, Note_on_c, 9, 44, 90
9, 194156, Note_off_c, 9, 36, 80
9, 194156, Note_off_c, 9, 40, 80
9, 194156, Note_off_c, 9, 44, 80
9, 194160, Note_on_c, 9, 44, 90
9, 194396, Note_off_c, 9, 44, 80
9, 194400, Note_on_c, 9, 36, 102
9, 194400, Note_on_c, 9, 40, 104
9, 194400, Note_on_c, 9, 44, 90
9, 194636, Note_off_c, 9, 36, 80
9, 194636, Note_off_c, 9, 40, 80
9, 194636, Note_off_c, 9, 44, 80
9, 194640, Note_on_c, 9, 44, 90
9, 194876, Note_off_c, 9, 44, 80
9, 194880, Note_on_c, 9, 36, 102
9, 194880, Note_on_c, 9, 40, 104
9, 194880, Note_on_c, 9, 44, 90
9, 195116, Note_off_c, 9, 36, 80
9, 195116, Note_off_c, 9, 40, 80
9, 195116, Note_off_c, 9, 44, 80
9, 195120, Note_on_c, 9, 44, 90
9, 195356, Note_off_c, 9, 44, 80
9, 195360, Note_on_c, 9, 36, 102
9, 195360, Note_on_c, 9, 40, 104
9, 195360, Note_on_c, 9, 44, 90
9, 195596, Note_off_c, 9, 36, 80
9, 195596, Note_off_c, 9, 40, 80
9, 195596, Note_off_c, 9, 44, 80
9, 195600, Note_on_c, 9, 44, 90
9, 195836, Note_off_c, 9, 44, 80
9, 195840, Note_on_c, 9, 36, 102
9, 195840, Note_on_c, 9, 40, 104
9, 195840, Note_on_c, 9, 44, 90
9, 196076, Note_off_c, 9, 36, 80
9, 196076, Note_off_c, 9, 40, 80
9, 196076, Note_off_c, 9, 44, 80
9, 196080, Note_on_c, 9, 44, 90
9, 196316, Note_off_c, 9, 44, 80
9, 196320, Note_on_c, 9, 36, 102
9, 196320, Note_on_c, 9, 40, 104
9, 196320, Note_on_c, 9, 44, 90
9, 196556, Note_off_c, 9, 36, 80
9, 196556, Note_off_c, 9, 40, 80
9, 196556, Note_off_c, 9, 44, 80
9, 196560, Note_on_c, 9, 44, 90
9, 196796, Note_off_c, 9, 44, 80
9, 196800, Note_on_c, 9, 36, 102
9, 196800, Note_on_c, 9, 40, 104
9, 196800, Note_on_c, 9, 44, 90
9, 197036, Note_off_c, 9, 36, 80
9, 197036, Note_off_c, 9, 40, 80
9, 197036, Note_off_c, 9, 44, 80
9, 197040, Note_on_c, 9, 44, 90
9, 197276, Note_off_c, 9, 44, 80
9, 197280, Note_on_c, 9, 36, 102
9, 197280, Note_on_c, 9, 40, 104
9, 197280, Note_on_c, 9, 44, 90
9, 197516, Note_off_c, 9, 36, 80
9, 197516, Note_off_c, 9, 40, 80
9, 197516, Note_off_c, 9, 44, 80
9, 197520, Note_on_c, 9, 44, 90
9, 197756, Note_off_c, 9, 44, 80
9, 197760, Note_on_c, 9, 36, 102
9, 197760, Note_on_c, 9, 40, 104
9, 197760, Note_on_c, 9, 44, 90
9, 197996, Note_off_c, 9, 36, 80
9, 197996, Note_off_c, 9, 40, 80
9, 197996, Note_off_c, 9, 44, 80
9, 198000, Note_on_c, 9, 44, 90
9, 198236, Note_off_c, 9, 44, 80
9, 198240, Note_on_c, 9, 36, 102
9, 198240, Note_on_c, 9, 40, 104
9, 198240, Note_on_c, 9, 44, 90
9, 198476, Note_off_c, 9, 36, 80
9, 198476, Note_off_c, 9, 40, 80
9, 198476, Note_off_c, 9, 44, 80
9, 198480, Note_on_c, 9, 44, 90
9, 198716, Note_off_c, 9, 44, 80
9, 198720, Note_on_c, 9, 36, 102
9, 198720, Note_on_c, 9, 40, 104
9, 198720, Note_on_c, 9, 44, 90
9, 198956, Note_off_c, 9, 36, 80
9, 198956, Note_off_c, 9, 40, 80
9, 198956, Note_off_c, 9, 44, 80
9, 198960, Note_on_c, 9, 44, 90
9, 199196, Note_off_c, 9, 44, 80
9, 199200, Note_on_c, 9, 36, 102
9, 199200, Note_on_c, 9, 40, 104
9, 199200, Note_on_c, 9, 44, 90
9, 199436, Note_off_c, 9, 36, 80
9, 199436, Note_off_c, 9, 40, 80
9, 199436, Note_off_c, 9, 44, 80
9, 199440, Note_on_c, 9, 44, 90
9, 199676, Note_off_c, 9, 44, 80
9, 199680, Note_on_c, 9, 36, 102
9, 199680, Note_on_c, 9, 40, 104
9, 199680, Note_on_c, 9, 44, 90
9, 199916, Note_off_c, 9, 36, 80
9, 199916, Note_off_c, 9, 40, 80
9, 199916, Note_off_c, 9, 44, 80
9, 199920, Note_on_c, 9, 44, 90
9, 200156, Note_off_c, 9, 44, 80
9, 200160, Note_on_c, 9, 36, 102
9, 200160, Note_on_c, 9, 40, 104
9, 200160, Note_on_c, 9, 44, 90
9, 200396, Note_off_c, 9, 36, 80
9, 200396, Note_off_c, 9, 40, 80
9, 200396, Note_off_c, 9, 44, 80
9, 200400, Note_on_c, 9, 44, 90
9, 200636, Note_off_c, 9, 44, 80
9, 200640, Note_on_c, 9, 36, 102
9, 200640, Note_on_c, 9, 40, 104
9, 200640, Note_on_c, 9, 44, 90
9, 200876, Note_off_c, 9, 36, 80
9, 200876, Note_off_c, 9, 40, 80
9, 200876, Note_off_c, 9, 44, 80
9, 200880, Note_on_c, 9, 44, 90
9, 201116, Note_off_c, 9, 44, 80
9, 201120, Note_on_c, 9, 36, 102
9, 201120, Note_on_c, 9, 40, 104
9, 201120, Note_on_c, 9, 44, 90
9, 201356, Note_off_c, 9, 36, 80
9, 201356, Note_off_c, 9, 40, 80
9, 201356, Note_off_c, 9, 44, 80
9, 201360, Note_on_c, 9, 44, 90
9, 201596, Note_off_c, 9, 44, 80
9, 201600, Note_on_c, 9, 36, 102
9, 201600, Note_on_c, 9, 40, 104
9, 201600, Note_on_c, 9, 44, 90
9, 201836, Note_off_c, 9, 36, 80
9, 201836, Note_off_c, 9, 40, 80
9, 201836, Note_off_c, 9, 44, 80
9, 201840, Note_on_c, 9, 44, 90
9, 202076, Note_off_c, 9, 44, 80
9, 202080, Note_on_c, 9, 36, 102
9, 202080, Note_on_c, 9, 40, 104
9, 202080, Note_on_c, 9, 44, 90
9, 202316, Note_off_c, 9, 36, 80
9, 202316, Note_off_c, 9, 40, 80
9, 202316, Note_off_c, 9, 44, 80
9, 202320, Note_on_c, 9, 44, 90
9, 202556, Note_off_c, 9, 44, 80
9, 202560, Note_on_c, 9, 36, 102
9, 202560, Note_on_c, 9, 40, 104
9, 202560, Note_on_c, 9, 44, 90
9, 202796, Note_off_c, 9, 36, 80
9, 202796, Note_off_c, 9, 40, 80
9, 202796, Note_off_c, 9, 44, 80
9, 202800, Note_on_c, 9, 44, 90
9, 203036, Note_off_c, 9, 44, 80
9, 203040, Note_on_c, 9, 36, 102
9, 203040, Note_on_c, 9, 40, 104
9, 203040, Note_on_c, 9, 44, 90
9, 203276, Note_off_c, 9, 36, 80
9, 203276, Note_off_c, 9, 40, 80
9, 203276, Note_off_c, 9, 44, 80
9, 203280, Note_on_c, 9, 44, 90
9, 203516, Note_off_c, 9, 44, 80
9, 203520, Note_on_c, 9, 36, 102
9, 203520, Note_on_c, 9, 40, 104
9, 203520, Note_on_c, 9, 44, 90
9, 203756, Note_off_c, 9, 36, 80
9, 203756, Note_off_c, 9, 40, 80
9, 203756, Note_off_c, 9, 44, 80
9, 203760, Note_on_c, 9, 44, 90
9, 203996, Note_off_c, 9, 44, 80
9, 204000, Note_on_c, 9, 36, 102
9, 204000, Note_on_c, 9, 40, 104
9, 204000, Note_on_c, 9, 44, 90
9, 204236, Note_off_c, 9, 36, 80
9, 204236, Note_off_c, 9, 40, 80
9, 204236, Note_off_c, 9, 44, 80
9, 204240, Note_on_c, 9, 44, 90
9, 204476, Note_off_c, 9, 44, 80
9, 204480, Note_on_c, 9, 36, 102
9, 204480, Note_on_c, 9, 40, 104
9, 204480, Note_on_c, 9, 44, 90
9, 204716, Note_off_c, 9, 36, 80
9, 204716, Note_off_c, 9, 40, 80
9, 204716, Note_off_c, 9, 44, 80
9, 204720, Note_on_c, 9, 44, 90
9, 204956, Note_off_c, 9, 44, 80
9, 204960, Note_on_c, 9, 36, 102
9, 204960, Note_on_c, 9, 40, 104
9, 204960, Note_on_c, 9, 44, 90
9, 205196, Note_off_c, 9, 36, 80
9, 205196, Note_off_c, 9, 40, 80
9, 205196, Note_off_c, 9, 44, 80
9, 205200, Note_on_c, 9, 44, 90
9, 205436, Note_off_c, 9, 44, 80
9, 205440, Note_on_c, 9, 36, 102
9, 205440, Note_on_c, 9, 40, 104
9, 205440, Note_on_c, 9, 44, 90
9, 205676, Note_off_c, 9, 36, 80
9, 205676, Note_off_c, 9, 40, 80
9, 205676, Note_off_c, 9, 44, 80
9, 205680, Note_on_c, 9, 44, 90
9, 205916, Note_off_c, 9, 44, 80
9, 205920, Note_on_c, 9, 36, 102
9, 205920, Note_on_c, 9, 40, 104
9, 205920, Note_on_c, 9, 44, 90
9, 206156, Note_off_c, 9, 36, 80
9, 206156, Note_off_c, 9, 40, 80
9, 206156, Note_off_c, 9, 44, 80
9, 206160, Note_on_c, 9, 44, 90
9, 206396, Note_off_c, 9, 44, 80
9, 206400, Note_on_c, 9, 36, 102
9, 206400, Note_on_c, 9, 40, 104
9, 206400, Note_on_c, 9, 44, 90
9, 206636, Note_off_c, 9, 36, 80
9, 206636, Note_off_c, 9, 40, 80
9, 206636, Note_off_c, 9, 44, 80
9, 206640, Note_on_c, 9, 44, 90
9, 206876, Note_off_c, 9, 44, 80
9, 206880, Note_on_c, 9, 36, 102
9, 206880, Note_on_c, 9, 40, 104
9, 206880, Note_on_c, 9, 44, 90
9, 207116, Note_off_c, 9, 36, 80
9, 207116, Note_off_c, 9, 40, 80
9, 207116, Note_off_c, 9, 44, 80
9, 207120, Note_on_c, 9, 44, 90
9, 207356, Note_off_c, 9, 44, 80
9, 207360, Note_on_c, 9, 36, 102
9, 207360, Note_on_c, 9, 40, 104
9, 207360, Note_on_c, 9, 44, 90
9, 207596, Note_off_c, 9, 36, 80
9, 207596, Note_off_c, 9, 40, 80
9, 207596, Note_off_c, 9, 44, 80
9, 207600, Note_on_c, 9, 44, 90
9, 207836, Note_off_c, 9, 44, 80
9, 207840, Note_on_c, 9, 36, 102
9, 207840, Note_on_c, 9, 40, 104
9, 207840, Note_on_c, 9, 44, 90
9, 208076, Note_off_c, 9, 36, 80
9, 208076, Note_off_c, 9, 40, 80
9, 208076, Note_off_c, 9, 44, 80
9, 208080, Note_on_c, 9, 44, 90
9, 208316, Note_off_c, 9, 44, 80
9, 208320, Note_on_c, 9, 36, 102
9, 208320, Note_on_c, 9, 40, 104
9, 208320, Note_on_c, 9, 44, 90
9, 208556, Note_off_c, 9, 36, 80
9, 208556, Note_off_c, 9, 40, 80
9, 208556, Note_off_c, 9, 44, 80
9, 208560, Note_on_c, 9, 44, 90
9, 208796, Note_off_c, 9, 44, 80
9, 208800, Note_on_c, 9, 36, 102
9, 208800, Note_on_c, 9, 40, 104
9, 208800, Note_on_c, 9, 44, 90
9, 209036, Note_off_c, 9, 36, 80
9, 209036, Note_off_c, 9, 40, 80
9, 209036, Note_off_c, 9, 44, 80
9, 209040, Note_on_c, 9, 44, 90
9, 209276, Note_off_c, 9, 44, 80
9, 209280, Note_on_c, 9, 36, 102
9, 209280, Note_on_c, 9, 40, 104
9, 209280, Note_on_c, 9, 44, 90
9, 209516, Note_off_c, 9, 36, 80
9, 209516, Note_off_c, 9, 40, 80
9, 209516, Note_off_c, 9, 44, 80
9, 209520, Note_on_c, 9, 44, 90
9, 209756, Note_off_c, 9, 44, 80
9, 209760, Note_on_c, 9, 36, 102
9, 209760, Note_on_c, 9, 40, 104
9, 209760, Note_on_c, 9, 44, 90
9, 209996, Note_off_c, 9, 36, 80
9, 209996, Note_off_c, 9, 40, 80
9, 209996, Note_off_c, 9, 44, 80
9, 210000, Note_on_c, 9, 44, 90
9, 210236, Note_off_c, 9, 44, 80
9, 210240, Note_on_c, 9, 36, 102
9, 210240, Note_on_c, 9, 40, 104
9, 210240, Note_on_c, 9, 44, 90
9, 210476, Note_off_c, 9, 36, 80
9, 210476, Note_off_c, 9, 40, 80
9, 210476, Note_off_c, 9, 44, 80
9, 210480, Note_on_c, 9, 44, 90
9, 210716, Note_off_c, 9, 44, 80
9, 210720, Note_on_c, 9, 36, 102
9, 210720, Note_on_c, 9, 40, 104
9, 210720, Note_on_c, 9, 44, 90
9, 210956, Note_off_c, 9, 36, 80
9, 210956, Note_off_c, 9, 40, 80
9, 210956, Note_off_c, 9, 44, 80
9, 210960, Note_on_c, 9, 44, 90
9, 211196, Note_off_c, 9, 44, 80
9, 211200, Note_on_c, 9, 36, 102
9, 211200, Note_on_c, 9, 40, 104
9, 211200, Note_on_c, 9, 44, 90
9, 211436, Note_off_c, 9, 36, 80
9, 211436, Note_off_c, 9, 40, 80
9, 211436, Note_off_c, 9, 44, 80
9, 211440, Note_on_c, 9, 44, 90
9, 211676, Note_off_c, 9, 44, 80
9, 211680, Note_on_c, 9, 36, 102
9, 211680, Note_on_c, 9, 40, 104
9, 211680, Note_on_c, 9, 44, 90
9, 211916, Note_off_c, 9, 36, 80
9, 211916, Note_off_c, 9, 40, 80
9, 211916, Note_off_c, 9, 44, 80
9, 211920, Note_on_c, 9, 44, 90
9, 212156, Note_off_c, 9, 44, 80
9, 212160, Note_on_c, 9, 36, 102
9, 212160, Note_on_c, 9, 40, 104
9, 212160, Note_on_c, 9, 44, 90
9, 212396, Note_off_c, 9, 36, 80
9, 212396, Note_off_c, 9, 40, 80
9, 212396, Note_off_c, 9, 44, 80
9, 212400, Note_on_c, 9, 44, 90
9, 212636, Note_off_c, 9, 44, 80
9, 212640, Note_on_c, 9, 36, 102
9, 212640, Note_on_c, 9, 40, 104
9, 212640, Note_on_c, 9, 44, 90
9, 212876, Note_off_c, 9, 36, 80
9, 212876, Note_off_c, 9, 40, 80
9, 212876, Note_off_c, 9, 44, 80
9, 212880, Note_on_c, 9, 44, 90
9, 213116, Note_off_c, 9, 44, 80
9, 213120, Note_on_c, 9, 36, 102
9, 213120, Note_on_c, 9, 40, 104
9, 213120, Note_on_c, 9, 44, 90
9, 213356, Note_off_c, 9, 36, 80
9, 213356, Note_off_c, 9, 40, 80
9, 213356, Note_off_c, 9, 44, 80
9, 213360, Note_on_c, 9, 44, 90
9, 213596, Note_off_c, 9, 44, 80
9, 213600, Note_on_c, 9, 36, 102
9, 213600, Note_on_c, 9, 40, 104
9, 213600, Note_on_c, 9, 44, 90
9, 213836, Note_off_c, 9, 36, 80
9, 213836, Note_off_c, 9, 40, 80
9, 213836, Note_off_c, 9, 44, 80
9, 213840, Note_on_c, 9, 44, 90
9, 214076, Note_off_c, 9, 44, 80
9, 214080, Note_on_c, 9, 36, 102
9, 214080, Note_on_c, 9, 40, 104
9, 214080, Note_on_c, 9, 44, 90
9, 214316, Note_off_c, 9, 36, 80
9, 214316, Note_off_c, 9, 40, 80
9, 214316, Note_off_c, 9, 44, 80
9, 214320, Note_on_c, 9, 44, 90
9, 214556, Note_off_c, 9, 44, 80
9, 214560, Note_on_c, 9, 36, 102
9, 214560, Note_on_c, 9, 40, 104
9, 214560, Note_on_c, 9, 44, 90
9, 214796, Note_off_c, 9, 36, 80
9, 214796, Note_off_c, 9, 40, 80
9, 214796, Note_off_c, 9, 44, 80
9, 214800, Note_on_c, 9, 44, 90
9, 215036, Note_off_c, 9, 44, 80
9, 215040, Note_on_c, 9, 36, 102
9, 215040, Note_on_c, 9, 40, 104
9, 215040, Note_on_c, 9, 44, 90
9, 215276, Note_off_c, 9, 36, 80
9, 215276, Note_off_c, 9, 40, 80
9, 215276, Note_off_c, 9, 44, 80
9, 215280, Note_on_c, 9, 44, 90
9, 215516, Note_off_c, 9, 44, 80
9, 215520, Note_on_c, 9, 36, 102
9, 215520, Note_on_c, 9, 40, 104
9, 215520, Note_on_c, 9, 44, 90
9, 215756, Note_off_c, 9, 36, 80
9, 215756, Note_off_c, 9, 40, 80
9, 215756, Note_off_c, 9, 44, 80
9, 215760, Note_on_c, 9, 44, 90
9, 215996, Note_off_c, 9, 44, 80
9, 216000, Note_on_c, 9, 36, 102
9, 216000, Note_on_c, 9, 40, 104
9, 216000, Note_on_c, 9, 44, 90
9, 216236, Note_off_c, 9, 36, 80
9, 216236, Note_off_c, 9, 40, 80
9, 216236, Note_off_c, 9, 44, 80
9, 216240, Note_on_c, 9, 44, 90
9, 216476, Note_off_c, 9, 44, 80
9, 216480, Note_on_c, 9, 36, 102
9, 216480, Note_on_c, 9, 40, 104
9, 216480, Note_on_c, 9, 44, 90
9, 216716, Note_off_c, 9, 36, 80
9, 216716, Note_off_c, 9, 40, 80
9, 216716, Note_off_c, 9, 44, 80
9, 216720, Note_on_c, 9, 44, 90
9, 216956, Note_off_c, 9, 44, 80
9, 216960, Note_on_c, 9, 36, 102
9, 216960, Note_on_c, 9, 40, 104
9, 216960, Note_on_c, 9, 44, 90
9, 217196, Note_off_c, 9, 36, 80
9, 217196, Note_off_c, 9, 40, 80
9, 217196, Note_off_c, 9, 44, 80
9, 217200, Note_on_c, 9, 44, 90
9, 217436, Note_off_c, 9, 44, 80
9, 217440, Note_on_c, 9, 36, 102
9, 217440, Note_on_c, 9, 40, 104
9, 217440, Note_on_c, 9, 44, 90
9, 217676, Note_off_c, 9, 36, 80
9, 217676, Note_off_c, 9, 40, 80
9, 217676, Note_off_c, 9, 44, 80
9, 217680, Note_on_c, 9, 44, 90
9, 217916, Note_off_c, 9, 44, 80
9, 217920, Note_on_c, 9, 36, 102
9, 217920, Note_on_c, 9, 40, 104
9, 217920, Note_on_c, 9, 44, 90
9, 218156, Note_off_c, 9, 36, 80
9, 218156, Note_off_c, 9, 40, 80
9, 218156, Note_off_c, 9, 44, 80
9, 218160, Note_on_c, 9, 44, 90
9, 218396, Note_off_c, 9, 44, 80
9, 218400, Note_on_c, 9, 36, 102
9, 218400, Note_on_c, 9, 40, 104
9, 218400, Note_on_c, 9, 44, 90
9, 218636, Note_off_c, 9, 36, 80
9, 218636, Note_off_c, 9, 40, 80
9, 218636, Note_off_c, 9, 44, 80
9, 218640, Note_on_c, 9, 44, 90
9, 218876, Note_off_c, 9, 44, 80
9, 218880, Note_on_c, 9, 36, 102
9, 218880, Note_on_c, 9, 40, 104
9, 218880, Note_on_c, 9, 44, 90
9, 219116, Note_off_c, 9, 36, 80
9, 219116, Note_off_c, 9, 40, 80
9, 219116, Note_off_c, 9, 44, 80
9, 219120, Note_on_c, 9, 44, 90
9, 219356, Note_off_c, 9, 44, 80
9, 219360, Note_on_c, 9, 36, 102
9, 219360, Note_on_c, 9, 40, 104
9, 219360, Note_on_c, 9, 44, 90
9, 219596, Note_off_c, 9, 36, 80
9, 219596, Note_off_c, 9, 40, 80
9, 219596, Note_off_c, 9, 44, 80
9, 219600, Note_on_c, 9, 44, 90
9, 219836, Note_off_c, 9, 44, 80
9, 219840, Note_on_c, 9, 36, 102
9, 219840, Note_on_c, 9, 40, 104
9, 219840, Note_on_c, 9, 44, 90
9, 220076, Note_off_c, 9, 36, 80
9, 220076, Note_off_c, 9, 40, 80
9, 220076, Note_off_c, 9, 44, 80
9, 220080, Note_on_c, 9, 44, 90
9, 220316, Note_off_c, 9, 44, 80
9, 220320, Note_on_c, 9, 36, 102
9, 220320, Note_on_c, 9, 40, 104
9, 220320, Note_on_c, 9, 44, 90
9, 220556, Note_off_c, 9, 36, 80
9, 220556, Note_off_c, 9, 40, 80
9, 220556, Note_off_c, 9, 44, 80
9, 220560, Note_on_c, 9, 44, 90
9, 220796, Note_off_c, 9, 44, 80
9, 220800, Note_on_c, 9, 36, 102
9, 220800, Note_on_c, 9, 40, 104
9, 220800, Note_on_c, 9, 44, 90
9, 221036, Note_off_c, 9, 36, 80
9, 221036, Note_off_c, 9, 40, 80
9, 221036, Note_off_c, 9, 44, 80
9, 221040, Note_on_c, 9, 44, 90
9, 221276, Note_off_c, 9, 44, 80
9, 221280, Note_on_c, 9, 36, 102
9, 221280, Note_on_c, 9, 40, 104
9, 221280, Note_on_c, 9, 44, 90
9, 221516, Note_off_c, 9, 36, 80
9, 221516, Note_off_c, 9, 40, 80
9, 221516, Note_off_c, 9, 44, 80
9, 221520, Note_on_c, 9, 44, 90
9, 221756, Note_off_c, 9, 44, 80
9, 221760, Note_on_c, 9, 36, 102
9, 221760, Note_on_c, 9, 40, 104
9, 221760, Note_on_c, 9, 44, 90
9, 221996, Note_off_c, 9, 36, 80
9, 221996, Note_off_c, 9, 40, 80
9, 221996, Note_off_c, 9, 44, 80
9, 222000, Note_on_c, 9, 46, 82
9, 222236, Note_off_c, 9, 46, 80
9, 222240, Note_on_c, 9, 36, 102
9, 222240, Note_on_c, 9, 40, 104
9, 222240, Note_on_c, 9, 44, 90
9, 222476, Note_off_c, 9, 36, 80
9, 222476, Note_off_c, 9, 40, 80
9, 222476, Note_off_c, 9, 44, 80
9, 222480, Note_on_c, 9, 44, 90
9, 222716, Note_off_c, 9, 44, 80
9, 222720, Note_on_c, 9, 36, 102
9, 222720, Note_on_c, 9, 40, 104
9, 222720, Note_on_c, 9, 44, 90
9, 222956, Note_off_c, 9, 36, 80
9, 222956, Note_off_c, 9, 40, 80
9, 222956, Note_off_c, 9, 44, 80
9, 222960, Note_on_c, 9, 46, 82
9, 223196, Note_off_c, 9, 46, 80
9, 223200, Note_on_c, 9, 36, 102
9, 223200, Note_on_c, 9, 40, 104
9, 223200, Note_on_c, 9, 44, 90
9, 223436, Note_off_c, 9, 36, 80
9, 223436, Note_off_c, 9, 40, 80
9, 223436, Note_off_c, 9, 44, 80
9, 223440, Note_on_c, 9, 44, 90
9, 223676, Note_off_c, 9, 44, 80
9, 223680, Note_on_c, 9, 36, 102
9, 223680, Note_on_c, 9, 40, 104
9, 223680, Note_on_c, 9, 44, 90
9, 223916, Note_off_c, 9, 36, 80
9, 223916, Note_off_c, 9, 40, 80
9, 223916, Note_off_c, 9, 44, 80
9, 223920, Note_on_c, 9, 46, 82
9, 224156, Note_off_c, 9, 46, 80
9, 224160, Note_on_c, 9, 36, 102
9, 224160, Note_on_c, 9, 40, 104
9, 224160, Note_on_c, 9, 44, 90
9, 224396, Note_off_c, 9, 36, 80
9, 224396, Note_off_c, 9, 40, 80
9, 224396, Note_off_c, 9, 44, 80
9, 224400, Note_on_c, 9, 46, 82
9, 224636, Note_off_c, 9, 46, 80
9, 224640, Note_on_c, 9, 36, 102
9, 224640, Note_on_c, 9, 40, 104
9, 224640, Note_on_c, 9, 44, 90
9, 224876, Note_off_c, 9, 36, 80
9, 224876, Note_off_c, 9, 40, 80
9, 224876, Note_off_c, 9, 44, 80
9, 224880, Note_on_c, 9, 44, 90
9, 225116, Note_off_c, 9, 44, 80
9, 225120, Note_on_c, 9, 36, 102
9, 225120, Note_on_c, 9, 40, 104
9, 225120, Note_on_c, 9, 44, 90
9, 225356, Note_off_c, 9, 36, 80
9, 225356, Note_off_c, 9, 40, 80
9, 225356, Note_off_c, 9, 44, 80
9, 225360, Note_on_c, 9, 46, 82
9, 225596, Note_off_c, 9, 46, 80
9, 225600, Note_on_c, 9, 36, 102
9, 225600, Note_on_c, 9, 40, 104
9, 225600, Note_on_c, 9, 44, 90
9, 225836, Note_off_c, 9, 36, 80
9, 225836, Note_off_c, 9, 40, 80
9, 225836, Note_off_c, 9, 44, 80
9, 225840, Note_on_c, 9, 44, 90
9, 226076, Note_off_c, 9, 44, 80
9, 226080, Note_on_c, 9, 36, 102
9, 226080, Note_on_c, 9, 40, 104
9, 226080, Note_on_c, 9, 44, 90
9, 226316, Note_off_c, 9, 36, 80
9, 226316, Note_off_c, 9, 40, 80
9, 226316, Note_off_c, 9, 44, 80
9, 226320, Note_on_c, 9, 46, 82
9, 226556, Note_off_c, 9, 46, 80
9, 226560, Note_on_c, 9, 36, 102
9, 226560, Note_on_c, 9, 40, 104
9, 226560, Note_on_c, 9, 44, 90
9, 226796, Note_off_c, 9, 36, 80
9, 226796, Note_off_c, 9, 40, 80
9, 226796, Note_off_c, 9, 44, 80
9, 226800, Note_on_c, 9, 44, 90
9, 227036, Note_off_c, 9, 44, 80
9, 227040, Note_on_c, 9, 36, 102
9, 227040, Note_on_c, 9, 40, 104
9, 227040, Note_on_c, 9, 44, 90
9, 227276, Note_off_c, 9, 36, 80
9, 227276, Note_off_c, 9, 40, 80
9, 227276, Note_off_c, 9, 44, 80
9, 227280, Note_on_c, 9, 44, 90
9, 227516, Note_off_c, 9, 44, 80
9, 227520, Note_on_c, 9, 36, 102
9, 227520, Note_on_c, 9, 40, 104
9, 227520, Note_on_c, 9, 44, 90
9, 227756, Note_off_c, 9, 36, 80
9, 227756, Note_off_c, 9, 40, 80
9, 227756, Note_off_c, 9, 44, 80
9, 227760, Note_on_c, 9, 46, 82
9, 227996, Note_off_c, 9, 46, 80
9, 228000, Note_on_c, 9, 36, 102
9, 228000, Note_on_c, 9, 40, 104
9, 228000, Note_on_c, 9, 44, 90
9, 228236, Note_off_c, 9, 36, 80
9, 228236, Note_off_c, 9, 40, 80
9, 228236, Note_off_c, 9, 44, 80
9, 228240, Note_on_c, 9, 46, 82
9, 228476, Note_off_c, 9, 46, 80
9, 228480, Note_on_c, 9, 36, 102
9, 228480, Note_on_c, 9, 40, 104
9, 228480, Note_on_c, 9, 44, 90
9, 228716, Note_off_c, 9, 36, 80
9, 228716, Note_off_c, 9, 40, 80
9, 228716, Note_off_c, 9, 44, 80
9, 228720, Note_on_c, 9, 44, 90
9, 228956, Note_off_c, 9, 44, 80
9, 228960, Note_on_c, 9, 36, 102
9, 228960, Note_on_c, 9, 40, 104
9, 228960, Note_on_c, 9, 44, 90
9, 229196, Note_off_c, 9, 36, 80
9, 229196, Note_off_c, 9, 40, 80
9, 229196, Note_off_c, 9, 44, 80
9, 229200, Note_on_c, 9, 44, 90
9, 229436, Note_off_c, 9, 44, 80
9, 229440, Note_on_c, 9, 36, 102
9, 229440, Note_on_c, 9, 40, 104
9, 229440, Note_on_c, 9, 44, 90
9, 229676, Note_off_c, 9, 36, 80
9, 229676, Note_off_c, 9, 40, 80
9, 229676, Note_off_c, 9, 44, 80
9, 229680, Note_on_c, 9, 46, 82
9, 229916, Note_off_c, 9, 46, 80
9, 229920, Note_on_c, 9, 36, 102
9, 229920, Note_on_c, 9, 40, 104
9, 229920, Note_on_c, 9, 44, 90
9, 230156, Note_off_c, 9, 36, 80
9, 230156, Note_off_c, 9, 40, 80
9, 230156, Note_off_c, 9, 44, 80
9, 230160, Note_on_c, 9, 44, 90
9, 230396, Note_off_c, 9, 44, 80
9, 230400, Note_on_c, 9, 36, 102
9, 230400, Note_on_c, 9, 40, 104
9, 230400, Note_on_c, 9, 44, 90
9, 230636, Note_off_c, 9, 36, 80
9, 230636, Note_off_c, 9, 40, 80
9, 230636, Note_off_c, 9, 44, 80
9, 230640, Note_on_c, 9, 46, 82
9, 230876, Note_off_c, 9, 46, 80
9, 230880, Note_on_c, 9, 36, 102
9, 230880, Note_on_c, 9, 40, 104
9, 230880, Note_on_c, 9, 44, 90
9, 231116, Note_off_c, 9, 36, 80
9, 231116, Note_off_c, 9, 40, 80
9, 231116, Note_off_c, 9, 44, 80
9, 231120, Note_on_c, 9, 44, 90
9, 231356, Note_off_c, 9, 44, 80
9, 231360, Note_on_c, 9, 36, 102
9, 231360, Note_on_c, 9, 40, 104
9, 231360, Note_on_c, 9, 44, 90
9, 231596, Note_off_c, 9, 36, 80
9, 231596, Note_off_c, 9, 40, 80
9, 231596, Note_off_c, 9, 44, 80
9, 231600, Note_on_c, 9, 46, 82
9, 231836, Note_off_c, 9, 46, 80
9, 231840, Note_on_c, 9, 36, 102
9, 231840, Note_on_c, 9, 40, 104
9, 231840, Note_on_c, 9, 44, 90
9, 232076, Note_off_c, 9, 36, 80
9, 232076, Note_off_c, 9, 40, 80
9, 232076, Note_off_c, 9, 44, 80
9, 232080, Note_on_c, 9, 46, 82
9, 232316, Note_off_c, 9, 46, 80
9, 232320, Note_on_c, 9, 36, 102
9, 232320, Note_on_c, 9, 40, 104
9, 232320, Note_on_c, 9, 44, 90
9, 232556, Note_off_c, 9, 36, 80
9, 232556, Note_off_c, 9, 40, 80
9, 232556, Note_off_c, 9, 44, 80
9, 232560, Note_on_c, 9, 44, 90
9, 232796, Note_off_c, 9, 44, 80
9, 232800, Note_on_c, 9, 36, 102
9, 232800, Note_on_c, 9, 40, 104
9, 232800, Note_on_c, 9, 44, 90
9, 233036, Note_off_c, 9, 36, 80
9, 233036, Note_off_c, 9, 40, 80
9, 233036, Note_off_c, 9, 44, 80
9, 233040, Note_on_c, 9, 46, 82
9, 233276, Note_off_c, 9, 46, 80
9, 233280, Note_on_c, 9, 36, 102
9, 233280, Note_on_c, 9, 40, 104
9, 233280, Note_on_c, 9, 44, 90
9, 233516, Note_off_c, 9, 36, 80
9, 233516, Note_off_c, 9, 40, 80
9, 233516, Note_off_c, 9, 44, 80
9, 233520, Note_on_c, 9, 44, 90
9, 233756, Note_off_c, 9, 44, 80
9, 233760, Note_on_c, 9, 36, 102
9, 233760, Note_on_c, 9, 40, 104
9, 233760, Note_on_c, 9, 44, 90
9, 233996, Note_off_c, 9, 36, 80
9, 233996, Note_off_c, 9, 40, 80
9, 233996, Note_off_c, 9, 44, 80
9, 234000, Note_on_c, 9, 46, 82
9, 234236, Note_off_c, 9, 46, 80
9, 234240, Note_on_c, 9, 36, 102
9, 234240, Note_on_c, 9, 40, 104
9, 234240, Note_on_c, 9, 44, 90
9, 234476, Note_off_c, 9, 36, 80
9, 234476, Note_off_c, 9, 40, 80
9, 234476, Note_off_c, 9, 44, 80
9, 234480, Note_on_c, 9, 44, 90
9, 234716, Note_off_c, 9, 44, 80
9, 234720, Note_on_c, 9, 36, 102
9, 234720, Note_on_c, 9, 40, 104
9, 234720, Note_on_c, 9, 44, 90
9, 234956, Note_off_c, 9, 36, 80
9, 234956, Note_off_c, 9, 40, 80
9, 234956, Note_off_c, 9, 44, 80
9, 234960, Note_on_c, 9, 44, 90
9, 235196, Note_off_c, 9, 44, 80
9, 235200, Note_on_c, 9, 36, 102
9, 235200, Note_on_c, 9, 40, 104
9, 235200, Note_on_c, 9, 44, 90
9, 235436, Note_off_c, 9, 36, 80
9, 235436, Note_off_c, 9, 40, 80
9, 235436, Note_off_c, 9, 44, 80
9, 235440, Note_on_c, 9, 46, 82
9, 235676, Note_off_c, 9, 46, 80
9, 235680, Note_on_c, 9, 36, 102
9, 235680, Note_on_c, 9, 40, 104
9, 235680, Note_on_c, 9, 44, 90
9, 235916, Note_off_c, 9, 36, 80
9, 235916, Note_off_c, 9, 40, 80
9, 235916, Note_off_c, 9, 44, 80
9, 235920, Note_on_c, 9, 46, 82
9, 236156, Note_off_c, 9, 46, 80
9, 236160, Note_on_c, 9, 36, 102
9, 236160, Note_on_c, 9, 40, 104
9, 236160, Note_on_c, 9, 44, 90
9, 236396, Note_off_c, 9, 36, 80
9, 236396, Note_off_c, 9, 40, 80
9, 236396, Note_off_c, 9, 44, 80
9, 236400, Note_on_c, 9, 44, 90
9, 236636, Note_off_c, 9, 44, 80
9, 236640, Note_on_c, 9, 36, 102
9, 236640, Note_on_c, 9, 40, 104
9, 236640, Note_on_c, 9, 44, 90
9, 236876, Note_off_c, 9, 36, 80
9, 236876, Note_off_c, 9, 40, 80
9, 236876, Note_off_c, 9, 44, 80
9, 236880, Note_on_c, 9, 44, 90
9, 237116, Note_off_c, 9, 44, 80
9, 237120, Note_on_c, 9, 36, 102
9, 237120, Note_on_c, 9, 40, 104
9, 237120, Note_on_c, 9, 44, 90
9, 237356, Note_off_c, 9, 36, 80
9, 237356, Note_off_c, 9, 40, 80
9, 237356, Note_off_c, 9, 44, 80
9, 237360, Note_on_c, 9, 46, 82
9, 237596, Note_off_c, 9, 46, 80
9, 237600, Note_on_c, 9, 36, 102
9, 237600, Note_on_c, 9, 40, 104
9, 237600, Note_on_c, 9, 44, 90
9, 237836, Note_off_c, 9, 36, 80
9, 237836, Note_off_c, 9, 40, 80
9, 237836, Note_off_c, 9, 44, 80
9, 237840, Note_on_c, 9, 44, 90
9, 238076, Note_off_c, 9, 44, 80
9, 238080, Note_on_c, 9, 36, 102
9, 238080, Note_on_c, 9, 40, 104
9, 238080, Note_on_c, 9, 44, 90
9, 238316, Note_off_c, 9, 36, 80
9, 238316, Note_off_c, 9, 40, 80
9, 238316, Note_off_c, 9, 44, 80
9, 238320, Note_on_c, 9, 46, 82
9, 238556, Note_off_c, 9, 46, 80
9, 238560, Note_on_c, 9, 36, 102
9, 238560, Note_on_c, 9, 40, 104
9, 238560, Note_on_c, 9, 44, 90
9, 238796, Note_off_c, 9, 36, 80
9, 238796, Note_off_c, 9, 40, 80
9, 238796, Note_off_c, 9, 44, 80
9, 238800, Note_on_c, 9, 44, 90
9, 239036, Note_off_c, 9, 44, 80
9, 239040, Note_on_c, 9, 36, 102
9, 239040, Note_on_c, 9, 40, 104
9, 239040, Note_on_c, 9, 44, 90
9, 239276, Note_off_c, 9, 36, 80
9, 239276, Note_off_c, 9, 40, 80
9, 239276, Note_off_c, 9, 44, 80
9, 239280, Note_on_c, 9, 46, 82
9, 239516, Note_off_c, 9, 46, 80
9, 239520, Note_on_c, 9, 36, 102
9, 239520, Note_on_c, 9, 40, 104
9, 239520, Note_on_c, 9, 44, 90
9, 239756, Note_off_c, 9, 36, 80
9, 239756, Note_off_c, 9, 40, 80
9, 239756, Note_off_c, 9, 44, 80
9, 239760, Note_on_c, 9, 46, 82
9, 239996, Note_off_c, 9, 46, 80
9, 240000, Note_on_c, 9, 36, 102
9, 240000, Note_on_c, 9, 40, 104
9, 240000, Note_on_c, 9, 44, 90
9, 240236, Note_off_c, 9, 36, 80
9, 240236, Note_off_c, 9, 40, 80
9, 240236, Note_off_c, 9, 44, 80
9, 240240, Note_on_c, 9, 44, 90
9, 240476, Note_off_c, 9, 44, 80
9, 240480, Note_on_c, 9, 36, 102
9, 240480, Note_on_c, 9, 40, 104
9, 240480, Note_on_c, 9, 44, 90
9, 240716, Note_off_c, 9, 36, 80
9, 240716, Note_off_c, 9, 40, 80
9, 240716, Note_off_c, 9, 44, 80
9, 240720, Note_on_c, 9, 46, 82
9, 240956, Note_off_c, 9, 46, 80
9, 240960, Note_on_c, 9, 36, 102
9, 240960, Note_on_c, 9, 40, 104
9, 240960, Note_on_c, 9, 44, 90
9, 241196, Note_off_c, 9, 36, 80
9, 241196, Note_off_c, 9, 40, 80
9, 241196, Note_off_c, 9, 44, 80
9, 241200, Note_on_c, 9, 44, 90
9, 241436, Note_off_c, 9, 44, 80
9, 241440, Note_on_c, 9, 36, 102
9, 241440, Note_on_c, 9, 40, 104
9, 241440, Note_on_c, 9, 44, 90
9, 241676, Note_off_c, 9, 36, 80
9, 241676, Note_off_c, 9, 40, 80
9, 241676, Note_off_c, 9, 44, 80
9, 241680, Note_on_c, 9, 46, 82
9, 241916, Note_off_c, 9, 46, 80
9, 241920, Note_on_c, 9, 36, 102
9, 241920, Note_on_c, 9, 40, 104
9, 241920, Note_on_c, 9, 44, 90
9, 242156, Note_off_c, 9, 36, 80
9, 242156, Note_off_c, 9, 40, 80
9, 242156, Note_off_c, 9, 44, 80
9, 242160, Note_on_c, 9, 44, 90
9, 242396, Note_off_c, 9, 44, 80
9, 242400, Note_on_c, 9, 36, 102
9, 242400, Note_on_c, 9, 40, 104
9, 242400, Note_on_c, 9, 44, 90
9, 242636, Note_off_c, 9, 36, 80
9, 242636, Note_off_c, 9, 40, 80
9, 242636, Note_off_c, 9, 44, 80
9, 242640, Note_on_c, 9, 44, 90
9, 242876, Note_off_c, 9, 44, 80
9, 242880, Note_on_c, 9, 36, 102
9, 242880, Note_on_c, 9, 40, 104
9, 242880, Note_on_c, 9, 44, 90
9, 243116, Note_off_c, 9, 36, 80
9, 243116, Note_off_c, 9, 40, 80
9, 243116, Note_off_c, 9, 44, 80
9, 243120, Note_on_c, 9, 46, 82
9, 243356, Note_off_c, 9, 46, 80
9, 243360, Note_on_c, 9, 36, 102
9, 243360, Note_on_c, 9, 40, 104
9, 243360, Note_on_c, 9, 44, 90
9, 243596, Note_off_c, 9, 36, 80
9, 243596, Note_off_c, 9, 40, 80
9, 243596, Note_off_c, 9, 44, 80
9, 243600, Note_on_c, 9, 46, 82
9, 243836, Note_off_c, 9, 46, 80
9, 243840, Note_on_c, 9, 36, 102
9, 243840, Note_on_c, 9, 40, 104
9, 243840, Note_on_c, 9, 44, 90
9, 243840, Note_on_c, 9, 49, 78
9, 244076, Note_off_c, 9, 36, 80
9, 244076, Note_off_c, 9, 40, 80
9, 244076, Note_off_c, 9, 44, 80
9, 244076, Note_off_c, 9, 49, 80
9, 244080, Note_on_c, 9, 44, 90
9, 244316, Note_off_c, 9, 44, 80
9, 244320, Note_on_c, 9, 36, 102
9, 244320, Note_on_c, 9, 40, 104
9, 244320, Note_on_c, 9, 44, 90
9, 244556, Note_off_c, 9, 36, 80
9, 244556, Note_off_c, 9, 40, 80
9, 244556, Note_off_c, 9, 44, 80
9, 244560, Note_on_c, 9, 44, 90
9, 244796, Note_off_c, 9, 44, 80
9, 244800, Note_on_c, 9, 36, 102
9, 244800, Note_on_c, 9, 40, 104
9, 244800, Note_on_c, 9, 44, 90
9, 245036, Note_off_c, 9, 36, 80
9, 245036, Note_off_c, 9, 40, 80
9, 245036, Note_off_c, 9, 44, 80
9, 245040, Note_on_c, 9, 44, 90
9, 245276, Note_off_c, 9, 44, 80
9, 245280, Note_on_c, 9, 36, 102
9, 245280, Note_on_c, 9, 40, 104
9, 245280, Note_on_c, 9, 44, 90
9, 245516, Note_off_c, 9, 36, 80
9, 245516, Note_off_c, 9, 40, 80
9, 245516, Note_off_c, 9, 44, 80
9, 245520, Note_on_c, 9, 44, 90
9, 245756, Note_off_c, 9, 44, 80
9, 245760, Note_on_c, 9, 36, 102
9, 245760, Note_on_c, 9, 40, 104
9, 245760, Note_on_c, 9, 44, 90
9, 245996, Note_off_c, 9, 36, 80
9, 245996, Note_off_c, 9, 40, 80
9, 245996, Note_off_c, 9, 44, 80
9, 246000, Note_on_c, 9, 44, 90
9, 246236, Note_off_c, 9, 44, 80
9, 246240, Note_on_c, 9, 36, 102
9, 246240, Note_on_c, 9, 40, 104
9, 246240, Note_on_c, 9, 44, 90
9, 246476, Note_off_c, 9, 36, 80
9, 246476, Note_off_c, 9, 40, 80
9, 246476, Note_off_c, 9, 44, 80
9, 246480, Note_on_c, 9, 44, 90
9, 246716, Note_off_c, 9, 44, 80
9, 246720, Note_on_c, 9, 36, 102
9, 246720, Note_on_c, 9, 40, 104
9, 246720, Note_on_c, 9, 44, 90
9, 246956, Note_off_c, 9, 36, 80
9, 246956, Note_off_c, 9, 40, 80
9, 246956, Note_off_c, 9, 44, 80
9, 246960, Note_on_c, 9, 44, 90
9, 247196, Note_off_c, 9, 44, 80
9, 247200, Note_on_c, 9, 36, 102
9, 247200, Note_on_c, 9, 40, 104
9, 247200, Note_on_c, 9, 44, 90
9, 247436, Note_off_c, 9, 36, 80
9, 247436, Note_off_c, 9, 40, 80
9, 247436, Note_off_c, 9, 44, 80
9, 247440, Note_on_c, 9, 44, 90
9, 247676, Note_off_c, 9, 44, 80
9, 247680, Note_on_c, 9, 36, 102
9, 247680, Note_on_c, 9, 40, 104
9, 247680, Note_on_c, 9, 44, 90
9, 247916, Note_off_c, 9, 36, 80
9, 247916, Note_off_c, 9, 40, 80
9, 247916, Note_off_c, 9, 44, 80
9, 247920, Note_on_c, 9, 44, 90
9, 248156, Note_off_c, 9, 44, 80
9, 248160, Note_on_c, 9, 36, 102
9, 248160, Note_on_c, 9, 40, 104
9, 248160, Note_on_c, 9, 44, 90
9, 248396, Note_off_c, 9, 36, 80
9, 248396, Note_off_c, 9, 40, 80
9, 248396, Note_off_c, 9, 44, 80
9, 248400, Note_on_c, 9, 44, 90
9, 248636, Note_off_c, 9, 44, 80
9, 248640, Note_on_c, 9, 36, 102
9, 248640, Note_on_c, 9, 40, 104
9, 248640, Note_on_c, 9, 44, 90
9, 248876, Note_off_c, 9, 36, 80
9, 248876, Note_off_c, 9, 40, 80
9, 248876, Note_off_c, 9, 44, 80
9, 248880, Note_on_c, 9, 44, 90
9, 249116, Note_off_c, 9, 44, 80
9, 249120, Note_on_c, 9, 36, 102
9, 249120, Note_on_c, 9, 40, 104
9, 249120, Note_on_c, 9, 44, 90
9, 249356, Note_off_c, 9, 36, 80
9, 249356, Note_off_c, 9, 40, 80
9, 249356, Note_off_c, 9, 44, 80
9, 249360, Note_on_c, 9, 44, 90
9, 249596, Note_off_c, 9, 44, 80
9, 249600, Note_on_c, 9, 36, 102
9, 249600, Note_on_c, 9, 40, 104
9, 249600, Note_on_c, 9, 44, 90
9, 249836, Note_off_c, 9, 36, 80
9, 249836, Note_off_c, 9, 40, 80
9, 249836, Note_off_c, 9, 44, 80
9, 249840, Note_on_c, 9, 44, 90
9, 250076, Note_off_c, 9, 44, 80
9, 250080, Note_on_c, 9, 36, 102
9, 250080, Note_on_c, 9, 40, 104
9, 250080, Note_on_c, 9, 44, 90
9, 250316, Note_off_c, 9, 36, 80
9, 250316, Note_off_c, 9, 40, 80
9, 250316, Note_off_c, 9, 44, 80
9, 250320, Note_on_c, 9, 44, 90
9, 250556, Note_off_c, 9, 44, 80
9, 250560, Note_on_c, 9, 36, 102
9, 250560, Note_on_c, 9, 40, 104
9, 250560, Note_on_c, 9, 44, 90
9, 250796, Note_off_c, 9, 36, 80
9, 250796, Note_off_c, 9, 40, 80
9, 250796, Note_off_c, 9, 44, 80
9, 250800, Note_on_c, 9, 44, 90
9, 251036, Note_off_c, 9, 44, 80
9, 251040, Note_on_c, 9, 36, 102
9, 251040, Note_on_c, 9, 40, 104
9, 251040, Note_on_c, 9, 44, 90
9, 251276, Note_off_c, 9, 36, 80
9, 251276, Note_off_c, 9, 40, 80
9, 251276, Note_off_c, 9, 44, 80
9, 251280, Note_on_c, 9, 44, 90
9, 251516, Note_off_c, 9, 44, 80
9, 251520, Note_on_c, 9, 36, 102
9, 251520, Note_on_c, 9, 40, 104
9, 251520, Note_on_c, 9, 44, 90
9, 251756, Note_off_c, 9, 36, 80
9, 251756, Note_off_c, 9, 40, 80
9, 251756, Note_off_c, 9, 44, 80
9, 251760, Note_on_c, 9, 44, 90
9, 251996, Note_off_c, 9, 44, 80
9, 252000, Note_on_c, 9, 36, 102
9, 252000, Note_on_c, 9, 40, 104
9, 252000, Note_on_c, 9, 44, 90
9, 252236, Note_off_c, 9, 36, 80
9, 252236, Note_off_c, 9, 40, 80
9, 252236, Note_off_c, 9, 44, 80
9, 252240, Note_on_c, 9, 44, 90
9, 252476, Note_off_c, 9, 44, 80
9, 252480, Note_on_c, 9, 36, 102
9, 252480, Note_on_c, 9, 40, 104
9, 252480, Note_on_c, 9, 44, 90
9, 252716, Note_off_c, 9, 36, 80
9, 252716, Note_off_c, 9, 40, 80
9, 252716, Note_off_c, 9, 44, 80
9, 252720, Note_on_c, 9, 44, 90
9, 252956, Note_off_c, 9, 44, 80
9, 252960, Note_on_c, 9, 36, 102
9, 252960, Note_on_c, 9, 40, 104
9, 252960, Note_on_c, 9, 44, 90
9, 253196, Note_off_c, 9, 36, 80
9, 253196, Note_off_c, 9, 40, 80
9, 253196, Note_off_c, 9, 44, 80
9, 253200, Note_on_c, 9, 44, 90
9, 253436, Note_off_c, 9, 44, 80
9, 253440, Note_on_c, 9, 36, 102
9, 253440, Note_on_c, 9, 40, 104
9, 253440, Note_on_c, 9, 44, 90
9, 253676, Note_off_c, 9, 36, 80
9, 253676, Note_off_c, 9, 40, 80
9, 253676, Note_off_c, 9, 44, 80
9, 253680, Note_on_c, 9, 44, 90
9, 253916, Note_off_c, 9, 44, 80
9, 253920, Note_on_c, 9, 36, 102
9, 253920, Note_on_c, 9, 40, 104
9, 253920, Note_on_c, 9, 44, 90
9, 254156, Note_off_c, 9, 36, 80
9, 254156, Note_off_c, 9, 40, 80
9, 254156, Note_off_c, 9, 44, 80
9, 254160, Note_on_c, 9, 44, 90
9, 254396, Note_off_c, 9, 44, 80
9, 254400, Note_on_c, 9, 36, 102
9, 254400, Note_on_c, 9, 40, 104
9, 254400, Note_on_c, 9, 44, 90
9, 254636, Note_off_c, 9, 36, 80
9, 254636, Note_off_c, 9, 40, 80
9, 254636, Note_off_c, 9, 44, 80
9, 254640, Note_on_c, 9, 44, 90
9, 254876, Note_off_c, 9, 44, 80
9, 254880, Note_on_c, 9, 36, 102
9, 254880, Note_on_c, 9, 40, 104
9, 254880, Note_on_c, 9, 44, 90
9, 255116, Note_off_c, 9, 36, 80
9, 255116, Note_off_c, 9, 40, 80
9, 255116, Note_off_c, 9, 44, 80
9, 255120, Note_on_c, 9, 44, 90
9, 255356, Note_off_c, 9, 44, 80
9, 255360, Note_on_c, 9, 36, 102
9, 255360, Note_on_c, 9, 40, 104
9, 255360, Note_on_c, 9, 44, 90
9, 255596, Note_off_c, 9, 36, 80
9, 255596, Note_off_c, 9, 40, 80
9, 255596, Note_off_c, 9, 44, 80
9, 255600, Note_on_c, 9, 44, 90
9, 255836, Note_off_c, 9, 44, 80
9, 255840, Note_on_c, 9, 36, 102
9, 255840, Note_on_c, 9, 40, 104
9, 255840, Note_on_c, 9, 44, 90
9, 256076, Note_off_c, 9, 36, 80
9, 256076, Note_off_c, 9, 40, 80
9, 256076, Note_off_c, 9, 44, 80
9, 256080, Note_on_c, 9, 44, 90
9, 256316, Note_off_c, 9, 44, 80
9, 256320, Note_on_c, 9, 36, 102
9, 256320, Note_on_c, 9, 40, 104
9, 256320, Note_on_c, 9, 44, 90
9, 256556, Note_off_c, 9, 36, 80
9, 256556, Note_off_c, 9, 40, 80
9, 256556, Note_off_c, 9, 44, 80
9, 256560, Note_on_c, 9, 44, 90
9, 256796, Note_off_c, 9, 44, 80
9, 256800, Note_on_c, 9, 36, 102
9, 256800, Note_on_c, 9, 40, 104
9, 256800, Note_on_c, 9, 44, 90
9, 257036, Note_off_c, 9, 36, 80
9, 257036, Note_off_c, 9, 40, 80
9, 257036, Note_off_c, 9, 44, 80
9, 257040, Note_on_c, 9, 44, 90
9, 257276, Note_off_c, 9, 44, 80
9, 257280, Note_on_c, 9, 36, 102
9, 257280, Note_on_c, 9, 40, 104
9, 257280, Note_on_c, 9, 44, 90
9, 257516, Note_off_c, 9, 36, 80
9, 257516, Note_off_c, 9, 40, 80
9, 257516, Note_off_c, 9, 44, 80
9, 257520, Note_on_c, 9, 44, 90
9, 257756, Note_off_c, 9, 44, 80
9, 257760, Note_on_c, 9, 36, 102
9, 257760, Note_on_c, 9, 40, 104
9, 257760, Note_on_c, 9, 44, 90
9, 257996, Note_off_c, 9, 36, 80
9, 257996, Note_off_c, 9, 40, 80
9, 257996, Note_off_c, 9, 44, 80
9, 258000, Note_on_c, 9, 44, 90
9, 258236, Note_off_c, 9, 44, 80
9, 258240, Note_on_c, 9, 36, 102
9, 258240, Note_on_c, 9, 40, 104
9, 258240, Note_on_c, 9, 44, 90
9, 258476, Note_off_c, 9, 36, 80
9, 258476, Note_off_c, 9, 40, 80
9, 258476, Note_off_c, 9, 44, 80
9, 258480, Note_on_c, 9, 44, 90
9, 258716, Note_off_c, 9, 44, 80
9, 258720, Note_on_c, 9, 36, 102
9, 258720, Note_on_c, 9, 40, 104
9, 258720, Note_on_c, 9, 44, 90
9, 258956, Note_off_c, 9, 36, 80
9, 258956, Note_off_c, 9, 40, 80
9, 258956, Note_off_c, 9, 44, 80
9, 258960, Note_on_c, 9, 44, 90
9, 259196, Note_off_c, 9, 44, 80
9, 259200, Note_on_c, 9, 36, 102
9, 259200, Note_on_c, 9, 40, 104
9, 259200, Note_on_c, 9, 44, 90
9, 259436, Note_off_c, 9, 36, 80
9, 259436, Note_off_c, 9, 40, 80
9, 259436, Note_off_c, 9, 44, 80
9, 259440, Note_on_c, 9, 44, 90
9, 259676, Note_off_c, 9, 44, 80
9, 259680, Note_on_c, 9, 36, 102
9, 259680, Note_on_c, 9, 40, 104
9, 259680, Note_on_c, 9, 44, 90
9, 259916, Note_off_c, 9, 36, 80
9, 259916, Note_off_c, 9, 40, 80
9, 259916, Note_off_c, 9, 44, 80
9, 259920, Note_on_c, 9, 44, 90
9, 260156, Note_off_c, 9, 44, 80
9, 260160, Note_on_c, 9, 36, 102
9, 260160, Note_on_c, 9, 40, 104
9, 260160, Note_on_c, 9, 44, 90
9, 260396, Note_off_c, 9, 36, 80
9, 260396, Note_off_c, 9, 40, 80
9, 260396, Note_off_c, 9, 44, 80
9, 260400, Note_on_c, 9, 44, 90
9, 260636, Note_off_c, 9, 44, 80
9, 260640, Note_on_c, 9, 36, 102
9, 260640, Note_on_c, 9, 40, 104
9, 260640, Note_on_c, 9, 44, 90
9, 260876, Note_off_c, 9, 36, 80
9, 260876, Note_off_c, 9, 40, 80
9, 260876, Note_off_c, 9, 44, 80
9, 260880, Note_on_c, 9, 44, 90
9, 261116, Note_off_c, 9, 44, 80
9, 261120, Note_on_c, 9, 36, 102
9, 261120, Note_on_c, 9, 40, 104
9, 261120, Note_on_c, 9, 44, 90
9, 261356, Note_off_c, 9, 36, 80
9, 261356, Note_off_c, 9, 40, 80
9, 261356, Note_off_c, 9, 44, 80
9, 261360, Note_on_c, 9, 44, 90
9, 261596, Note_off_c, 9, 44, 80
9, 261600, Note_on_c, 9, 36, 102
9, 261600, Note_on_c, 9, 40, 104
9, 261600, Note_on_c, 9, 44, 90
9, 261836, Note_off_c, 9, 36, 80
9, 261836, Note_off_c, 9, 40, 80
9, 261836, Note_off_c, 9, 44, 80
9, 261840, Note_on_c, 9, 44, 90
9, 262076, Note_off_c, 9, 44, 80
9, 262080, Note_on_c, 9, 36, 102
9, 262080, Note_on_c, 9, 40, 104
9, 262080, Note_on_c, 9, 44, 90
9, 262316, Note_off_c, 9, 36, 80
9, 262316, Note_off_c, 9, 40, 80
9, 262316, Note_off_c, 9, 44, 80
9, 262320, Note_on_c, 9, 44, 90
9, 262556, Note_off_c, 9, 44, 80
9, 262560, Note_on_c, 9, 36, 102
9, 262560, Note_on_c, 9, 40, 104
9, 262560, Note_on_c, 9, 44, 90
9, 262796, Note_off_c, 9, 36, 80
9, 262796, Note_off_c, 9, 40, 80
9, 262796, Note_off_c, 9, 44, 80
9, 262800, Note_on_c, 9, 44, 90
9, 263036, Note_off_c, 9, 44, 80
9, 263040, Note_on_c, 9, 36, 102
9, 263040, Note_on_c, 9, 40, 104
9, 263040, Note_on_c, 9, 44, 90
9, 263276, Note_off_c, 9, 36, 80
9, 263276, Note_off_c, 9, 40, 80
9, 263276, Note_off_c, 9, 44, 80
9, 263280, Note_on_c, 9, 44, 90
9, 263516, Note_off_c, 9, 44, 80
9, 263520, Note_on_c, 9, 36, 102
9, 263520, Note_on_c, 9, 40, 104
9, 263520, Note_on_c, 9, 44, 90
9, 263756, Note_off_c, 9, 36, 80
9, 263756, Note_off_c, 9, 40, 80
9, 263756, Note_off_c, 9, 44, 80
9, 263760, Note_on_c, 9, 44, 90
9, 263996, Note_off_c, 9, 44, 80
9, 264000, Note_on_c, 9, 36, 102
9, 264000, Note_on_c, 9, 40, 104
9, 264000, Note_on_c, 9, 44, 90
9, 264236, Note_off_c, 9, 36, 80
9, 264236, Note_off_c, 9, 40, 80
9, 264236, Note_off_c, 9, 44, 80
9, 264240, Note_on_c, 9, 44, 90
9, 264476, Note_off_c, 9, 44, 80
9, 264480, Note_on_c, 9, 36, 102
9, 264480, Note_on_c, 9, 40, 104
9, 264480, Note_on_c, 9, 44, 90
9, 264716, Note_off_c, 9, 36, 80
9, 264716, Note_off_c, 9, 40, 80
9, 264716, Note_off_c, 9, 44, 80
9, 264720, Note_on_c, 9, 44, 90
9, 264956, Note_off_c, 9, 44, 80
9, 264960, Note_on_c, 9, 36, 102
9, 264960, Note_on_c, 9, 40, 104
9, 264960, Note_on_c, 9, 44, 90
9, 265196, Note_off_c, 9, 36, 80
9, 265196, Note_off_c, 9, 40, 80
9, 265196, Note_off_c, 9, 44, 80
9, 265200, Note_on_c, 9, 44, 90
9, 265436, Note_off_c, 9, 44, 80
9, 265440, Note_on_c, 9, 36, 102
9, 265440, Note_on_c, 9, 40, 104
9, 265440, Note_on_c, 9, 44, 90
9, 265676, Note_off_c, 9, 36, 80
9, 265676, Note_off_c, 9, 40, 80
9, 265676, Note_off_c, 9, 44, 80
9, 265680, Note_on_c, 9, 44, 90
9, 265916, Note_off_c, 9, 44, 80
9, 265920, Note_on_c, 9, 36, 102
9, 265920, Note_on_c, 9, 40, 104
9, 265920, Note_on_c, 9, 44, 90
9, 266156, Note_off_c, 9, 36, 80
9, 266156, Note_off_c, 9, 40, 80
9, 266156, Note_off_c, 9, 44, 80
9, 266160, Note_on_c, 9, 44, 90
9, 266396, Note_off_c, 9, 44, 80
9, 266400, Note_on_c, 9, 36, 102
9, 266400, Note_on_c, 9, 40, 104
9, 266400, Note_on_c, 9, 44, 90
9, 266636, Note_off_c, 9, 36, 80
9, 266636, Note_off_c, 9, 40, 80
9, 266636, Note_off_c, 9, 44, 80
9, 266640, Note_on_c, 9, 44, 90
9, 266876, Note_off_c, 9, 44, 80
9, 266880, Note_on_c, 9, 36, 102
9, 266880, Note_on_c, 9, 40, 104
9, 266880, Note_on_c, 9, 44, 90
9, 266880, Note_on_c, 9, 49, 78
9, 267116, Note_off_c, 9, 36, 80
9, 267116, Note_off_c, 9, 40, 80
9, 267116, Note_off_c, 9, 44, 80
9, 267116, Note_off_c, 9, 49, 80
9, 267120, Note_on_c, 9, 44, 90
9, 267356, Note_off_c, 9, 44, 80
9, 267360, Note_on_c, 9, 36, 102
9, 267360, Note_on_c, 9, 40, 104
9, 267360, Note_on_c, 9, 44, 90
9, 267596, Note_off_c, 9, 36, 80
9, 267596, Note_off_c, 9, 40, 80
9, 267596, Note_off_c, 9, 44, 80
9, 267600, Note_on_c, 9, 44, 90
9, 267836, Note_off_c, 9, 44, 80
9, 267840, Note_on_c, 9, 36, 102
9, 267840, Note_on_c, 9, 40, 104
9, 267840, Note_on_c, 9, 44, 90
9, 268076, Note_off_c, 9, 36, 80
9, 268076, Note_off_c, 9, 40, 80
9, 268076, Note_off_c, 9, 44, 80
9, 268080, Note_on_c, 9, 46, 82
9, 268316, Note_off_c, 9, 46, 80
9, 268320, Note_on_c, 9, 36, 102
9, 268320, Note_on_c, 9, 40, 104
9, 268320, Note_on_c, 9, 44, 90
9, 268556, Note_off_c, 9, 36, 80
9, 268556, Note_off_c, 9, 40, 80
9, 268556, Note_off_c, 9, 44, 80
9, 268560, Note_on_c, 9, 44, 90
9, 268796, Note_off_c, 9, 44, 80
9, 268800, Note_on_c, 9, 36, 102
9, 268800, Note_on_c, 9, 40, 104
9, 268800, Note_on_c, 9, 44, 90
9, 269036, Note_off_c, 9, 36, 80
9, 269036, Note_off_c, 9, 40, 80
9, 269036, Note_off_c, 9, 44, 80
9, 269040, Note_on_c, 9, 46, 82
9, 269276, Note_off_c, 9, 46, 80
9, 269280, Note_on_c, 9, 36, 102
9, 269280, Note_on_c, 9, 40, 104
9, 269280, Note_on_c, 9, 44, 90
9, 269516, Note_off_c, 9, 36, 80
9, 269516, Note_off_c, 9, 40, 80
9, 269516, Note_off_c, 9, 44, 80
9, 269520, Note_on_c, 9, 44, 90
9, 269756, Note_off_c, 9, 44, 80
9, 269760, Note_on_c, 9, 36, 102
9, 269760, Note_on_c, 9, 40, 104
9, 269760, Note_on_c, 9, 44, 90
9, 269996, Note_off_c, 9, 36, 80
9, 269996, Note_off_c, 9, 40, 80
9, 269996, Note_off_c, 9, 44, 80
9, 270000, Note_on_c, 9, 46, 82
9, 270236, Note_off_c, 9, 46, 80
9, 270240, Note_on_c, 9, 36, 102
9, 270240, Note_on_c, 9, 40, 104
9, 270240, Note_on_c, 9, 44, 90
9, 270476, Note_off_c, 9, 36, 80
9, 270476, Note_off_c, 9, 40, 80
9, 270476, Note_off_c, 9, 44, 80
9, 270480, Note_on_c, 9, 46, 82
9, 270716, Note_off_c, 9, 46, 80
9, 270720, Note_on_c, 9, 36, 102
9, 270720, Note_on_c, 9, 40, 104
9, 270720, Note_on_c, 9, 44, 90
9, 270956, Note_off_c, 9, 36, 80
9, 270956, Note_off_c, 9, 40, 80
9, 270956, Note_off_c, 9, 44, 80
9, 270960, Note_on_c, 9, 44, 90
9, 271196, Note_off_c, 9, 44, 80
9, 271200, Note_on_c, 9, 36, 102
9, 271200, Note_on_c, 9, 40, 104
9, 271200, Note_on_c, 9, 44, 90
9, 271436, Note_off_c, 9, 36, 80
9, 271436, Note_off_c, 9, 40, 80
9, 271436, Note_off_c, 9, 44, 80
9, 271440, Note_on_c, 9, 46, 82
9, 271676, Note_off_c, 9, 46, 80
9, 271680, Note_on_c, 9, 36, 102
9, 271680, Note_on_c, 9, 40, 104
9, 271680, Note_on_c, 9, 44, 90
9, 271916, Note_off_c, 9, 36, 80
9, 271916, Note_off_c, 9, 40, 80
9, 271916, Note_off_c, 9, 44, 80
9, 271920, Note_on_c, 9, 44, 90
9, 272156, Note_off_c, 9, 44, 80
9, 272160, Note_on_c, 9, 36, 102
9, 272160, Note_on_c, 9, 40, 104
9, 272160, Note_on_c, 9, 44, 90
9, 272396, Note_off_c, 9, 36, 80
9, 272396, Note_off_c, 9, 40, 80
9, 272396, Note_off_c, 9, 44, 80
9, 272400, Note_on_c, 9, 46, 82
9, 272636, Note_off_c, 9, 46, 80
9, 272640, Note_on_c, 9, 36, 102
9, 272640, Note_on_c, 9, 40, 104
9, 272640, Note_on_c, 9, 44, 90
9, 272876, Note_off_c, 9, 36, 80
9, 272876, Note_off_c, 9, 40, 80
9, 272876, Note_off_c, 9, 44, 80
9, 272880, Note_on_c, 9, 44, 90
9, 273116, Note_off_c, 9, 44, 80
9, 273120, Note_on_c, 9, 36, 102
9, 273120, Note_on_c, 9, 40, 104
9, 273120, Note_on_c, 9, 44, 90
9, 273356, Note_off_c, 9, 36, 80
9, 273356, Note_off_c, 9, 40, 80
9, 273356, Note_off_c, 9, 44, 80
9, 273360, Note_on_c, 9, 44, 90
9, 273596, Note_off_c, 9, 44, 80
9, 273600, Note_on_c, 9, 36, 102
9, 273600, Note_on_c, 9, 40, 104
9, 273600, Note_on_c, 9, 44, 90
9, 273836, Note_off_c, 9, 36, 80
9, 273836, Note_off_c, 9, 40, 80
9, 273836, Note_off_c, 9, 44, 80
9, 273840, Note_on_c, 9, 46, 82
9, 274076, Note_off_c, 9, 46, 80
9, 274080, Note_on_c, 9, 36, 102
9, 274080, Note_on_c, 9, 40, 104
9, 274080, Note_on_c, 9, 44, 90
9, 274316, Note_off_c, 9, 36, 80
9, 274316, Note_off_c, 9, 40, 80
9, 274316, Note_off_c, 9, 44, 80
9, 274320, Note_on_c, 9, 46, 82
9, 274556, Note_off_c, 9, 46, 80
9, 274560, Note_on_c, 9, 36, 102
9, 274560, Note_on_c, 9, 40, 104
9, 274560, Note_on_c, 9, 44, 90
9, 274796, Note_off_c, 9, 36, 80
9, 274796, Note_off_c, 9, 40, 80
9, 274796, Note_off_c, 9, 44, 80
9, 274800, Note_on_c, 9, 44, 90
9, 275036, Note_off_c, 9, 44, 80
9, 275040, Note_on_c, 9, 36, 102
9, 275040, Note_on_c, 9, 40, 104
9, 275040, Note_on_c, 9, 44, 90
9, 275276, Note_off_c, 9, 36, 80
9, 275276, Note_off_c, 9, 40, 80
9, 275276, Note_off_c, 9, 44, 80
9, 275280, Note_on_c, 9, 46, 82
9, 275516, Note_off_c, 9, 46, 80
9, 275520, Note_on_c, 9, 36, 102
9, 275520, Note_on_c, 9, 40, 104
9, 275520, Note_on_c, 9, 44, 90
9, 275756, Note_off_c, 9, 36, 80
9, 275756, Note_off_c, 9, 40, 80
9, 275756, Note_off_c, 9, 44, 80
9, 275760, Note_on_c, 9, 44, 90
9, 275996, Note_off_c, 9, 44, 80
9, 276000, Note_on_c, 9, 36, 102
9, 276000, Note_on_c, 9, 40, 104
9, 276000, Note_on_c, 9, 44, 90
9, 276236, Note_off_c, 9, 36, 80
9, 276236, Note_off_c, 9, 40, 80
9, 276236, Note_off_c, 9, 44, 80
9, 276240, Note_on_c, 9, 46, 82
9, 276476, Note_off_c, 9, 46, 80
9, 276480, Note_on_c, 9, 36, 102
9, 276480, Note_on_c, 9, 40, 104
9, 276480, Note_on_c, 9, 44, 90
9, 276716, Note_off_c, 9, 36, 80
9, 276716, Note_off_c, 9, 40, 80
9, 276716, Note_off_c, 9, 44, 80
9, 276720, Note_on_c, 9, 44, 90
9, 276956, Note_off_c, 9, 44, 80
9, 276960, Note_on_c, 9, 36, 102
9, 276960, Note_on_c, 9, 40, 104
9, 276960, Note_on_c, 9, 44, 90
9, 277196, Note_off_c, 9, 36, 80
9, 277196, Note_off_c, 9, 40, 80
9, 277196, Note_off_c, 9, 44, 80
9, 277200, Note_on_c, 9, 44, 90
9, 277436, Note_off_c, 9, 44, 80
9, 277440, Note_on_c, 9, 36, 102
9, 277440, Note_on_c, 9, 40, 104
9, 277440, Note_on_c, 9, 44, 90
9, 277676, Note_off_c, 9, 36, 80
9, 277676, Note_off_c, 9, 40, 80
9, 277676, Note_off_c, 9, 44, 80
9, 277680, Note_on_c, 9, 44, 90
9, 277916, Note_off_c, 9, 44, 80
9, 277920, Note_on_c, 9, 36, 102
9, 277920, Note_on_c, 9, 40, 104
9, 277920, Note_on_c, 9, 44, 90
9, 278156, Note_off_c, 9, 36, 80
9, 278156, Note_off_c, 9, 40, 80
9, 278156, Note_off_c, 9, 44, 80
9, 278160, Note_on_c, 9, 44, 90
9, 278396, Note_off_c, 9, 44, 80
9, 278400, Note_on_c, 9, 36, 102
9, 278400, Note_on_c, 9, 40, 104
9, 278636, Note_off_c, 9, 36, 80
9, 278636, Note_off_c, 9, 40, 80
9, 278880, Note_on_c, 9, 36, 102
9, 278880, Note_on_c, 9, 40, 104
9, 279116, Note_off_c, 9, 36, 80
9, 279116, Note_off_c, 9, 40, 80
9, 279360, Note_on_c, 9, 36, 102
9, 279360, Note_on_c, 9, 40, 104
9, 279596, Note_off_c, 9, 36, 80
9, 279596, Note_off_c, 9, 40, 80
9, 279840, Note_on_c, 9, 36, 102
9, 279840, Note_on_c, 9, 40, 104
9, 280076, Note_off_c, 9, 36, 80
9, 280076, Note_off_c, 9, 40, 80
9, 280320, Note_on_c, 9, 36, 102
9, 280320, Note_on_c, 9, 40, 104
9, 280556, Note_off_c, 9, 36, 80
9, 280556, Note_off_c, 9, 40, 80
9, 280800, Note_on_c, 9, 36, 102
9, 280800, Note_on_c, 9, 40, 104
9, 281036, Note_off_c, 9, 36, 80
9, 281036, Note_off_c, 9, 40, 80
9, 281280, Note_on_c, 9, 36, 102
9, 281280, Note_on_c, 9, 40, 104
9, 281516, Note_off_c, 9, 36, 80
9, 281516, Note_off_c, 9, 40, 80
9, 281760, Note_on_c, 9, 36, 102
9, 281760, Note_on_c, 9, 40, 104
9, 281996, Note_off_c, 9, 36, 80
9, 281996, Note_off_c, 9, 40, 80
9, 282240, Note_on_c, 9, 36, 102
9, 282240, Note_on_c, 9, 40, 104
9, 282476, Note_off_c, 9, 36, 80
9, 282476, Note_off_c, 9, 40, 80
9, 282720, Note_on_c, 9, 36, 102
9, 282720, Note_on_c, 9, 40, 104
9, 282956, Note_off_c, 9, 36, 80
9, 282956, Note_off_c, 9, 40, 80
9, 283200, Note_on_c, 9, 36, 102
9, 283200, Note_on_c, 9, 40, 104
9, 283436, Note_off_c, 9, 36, 80
9, 283436, Note_off_c, 9, 40, 80
9, 283680, Note_on_c, 9, 36, 102
9, 283680, Note_on_c, 9, 40, 104
9, 283916, Note_off_c, 9, 36, 80
9, 283916, Note_off_c, 9, 40, 80
9, 284160, Note_on_c, 9, 36, 102
9, 284160, Note_on_c, 9, 40, 104
9, 284396, Note_off_c, 9, 36, 80
9, 284396, Note_off_c, 9, 40, 80
9, 284640, Note_on_c, 9, 36, 102
9, 284640, Note_on_c, 9, 40, 104
9, 284876, Note_off_c, 9, 36, 80
9, 284876, Note_off_c, 9, 40, 80
9, 285120, Note_on_c, 9, 36, 102
9, 285120, Note_on_c, 9, 40, 104
9, 285356, Note_off_c, 9, 36, 80
9, 285356, Note_off_c, 9, 40, 80
9, 285600, Note_on_c, 9, 36, 102
9, 285600, Note_on_c, 9, 40, 104
9, 285836, Note_off_c, 9, 36, 80
9, 285836, Note_off_c, 9, 40, 80
9, 286080, Note_on_c, 9, 36, 102
9, 286080, Note_on_c, 9, 40, 104
9, 286080, Note_on_c, 9, 44, 90
9, 286080, Note_on_c, 9, 49, 78
9, 286316, Note_off_c, 9, 36, 80
9, 286316, Note_off_c, 9, 40, 80
9, 286316, Note_off_c, 9, 44, 80
9, 286316, Note_off_c, 9, 49, 80
9, 286320, Note_on_c, 9, 44, 90
9, 286556, Note_off_c, 9, 44, 80
9, 286560, Note_on_c, 9, 36, 102
9, 286560, Note_on_c, 9, 40, 104
9, 286560, Note_on_c, 9, 44, 90
9, 286796, Note_off_c, 9, 36, 80
9, 286796, Note_off_c, 9, 40, 80
9, 286796, Note_off_c, 9, 44, 80
9, 286800, Note_on_c, 9, 44, 90
9, 287036, Note_off_c, 9, 44, 80
9, 287040, Note_on_c, 9, 36, 102
9, 287040, Note_on_c, 9, 40, 104
9, 287040, Note_on_c, 9, 44, 90
9, 287276, Note_off_c, 9, 36, 80
9, 287276, Note_off_c, 9, 40, 80
9, 287276, Note_off_c, 9, 44, 80
9, 287280, Note_on_c, 9, 46, 82
9, 287516, Note_off_c, 9, 46, 80
9, 287520, Note_on_c, 9, 36, 102
9, 287520, Note_on_c, 9, 40, 104
9, 287520, Note_on_c, 9, 44, 90
9, 287756, Note_off_c, 9, 36, 80
9, 287756, Note_off_c, 9, 40, 80
9, 287756, Note_off_c, 9, 44, 80
9, 287760, Note_on_c, 9, 44, 90
9, 287996, Note_off_c, 9, 44, 80
9, 288000, Note_on_c, 9, 36, 102
9, 288000, Note_on_c, 9, 40, 104
9, 288000, Note_on_c, 9, 44, 90
9, 288236, Note_off_c, 9, 36, 80
9, 288236, Note_off_c, 9, 40, 80
9, 288236, Note_off_c, 9, 44, 80
9, 288240, Note_on_c, 9, 46, 82
9, 288476, Note_off_c, 9, 46, 80
9, 288480, Note_on_c, 9, 36, 102
9, 288480, Note_on_c, 9, 40, 104
9, 288480, Note_on_c, 9, 44, 90
9, 288716, Note_off_c, 9, 36, 80
9, 288716, Note_off_c, 9, 40, 80
9, 288716, Note_off_c, 9, 44, 80
9, 288720, Note_on_c, 9, 44, 90
9, 288956, Note_off_c, 9, 44, 80
9, 288960, Note_on_c, 9, 36, 102
9, 288960, Note_on_c, 9, 40, 104
9, 288960, Note_on_c, 9, 44, 90
9, 289196, Note_off_c, 9, 36, 80
9, 289196, Note_off_c, 9, 40, 80
9, 289196, Note_off_c, 9, 44, 80
9, 289200, Note_on_c, 9, 46, 82
9, 289436, Note_off_c, 9, 46, 80
9, 289440, Note_on_c, 9, 36, 102
9, 289440, Note_on_c, 9, 40, 104
9, 289440, Note_on_c, 9, 44, 90
9, 289676, Note_off_c, 9, 36, 80
9, 289676, Note_off_c, 9, 40, 80
9, 289676, Note_off_c, 9, 44, 80
9, 289680, Note_on_c, 9, 46, 82
9, 289916, Note_off_c, 9, 46, 80
9, 289920, Note_on_c, 9, 36, 102
9, 289920, Note_on_c, 9, 40, 104
9, 289920, Note_on_c, 9, 44, 90
9, 290156, Note_off_c, 9, 36, 80
9, 290156, Note_off_c, 9, 40, 80
9, 290156, Note_off_c, 9, 44, 80
9, 290160, Note_on_c, 9, 44, 90
9, 290396, Note_off_c, 9, 44, 80
9, 290400, Note_on_c, 9, 36, 102
9, 290400, Note_on_c, 9, 40, 104
9, 290400, Note_on_c, 9, 44, 90
9, 290636, Note_off_c, 9, 36, 80
9, 290636, Note_off_c, 9, 40, 80
9, 290636, Note_off_c, 9, 44, 80
9, 290640, Note_on_c, 9, 46, 82
9, 290876, Note_off_c, 9, 46, 80
9, 290880, Note_on_c, 9, 36, 102
9, 290880, Note_on_c, 9, 40, 104
9, 290880, Note_on_c, 9, 44, 90
9, 291116, Note_off_c, 9, 36, 80
9, 291116, Note_off_c, 9, 40, 80
9, 291116, Note_off_c, 9, 44, 80
9, 291120, Note_on_c, 9, 44, 90
9, 291356, Note_off_c, 9, 44, 80
9, 291360, Note_on_c, 9, 36, 102
9, 291360, Note_on_c, 9, 40, 104
9, 291360, Note_on_c, 9, 44, 90
9, 291596, Note_off_c, 9, 36, 80
9, 291596, Note_off_c, 9, 40, 80
9, 291596, Note_off_c, 9, 44, 80
9, 291600, Note_on_c, 9, 46, 82
9, 291836, Note_off_c, 9, 46, 80
9, 291840, Note_on_c, 9, 36, 102
9, 291840, Note_on_c, 9, 40, 104
9, 291840, Note_on_c, 9, 44, 90
9, 292076, Note_off_c, 9, 36, 80
9, 292076, Note_off_c, 9, 40, 80
9, 292076, Note_off_c, 9, 44, 80
9, 292080, Note_on_c, 9, 44, 90
9, 292316, Note_off_c, 9, 44, 80
9, 292320, Note_on_c, 9, 36, 102
9, 292320, Note_on_c, 9, 40, 104
9, 292320, Note_on_c, 9, 44, 90
9, 292556, Note_off_c, 9, 36, 80
9, 292556, Note_off_c, 9, 40, 80
9, 292556, Note_off_c, 9, 44, 80
9, 292560, Note_on_c, 9, 44, 90
9, 292796, Note_off_c, 9, 44, 80
9, 292800, Note_on_c, 9, 36, 102
9, 292800, Note_on_c, 9, 40, 104
9, 292800, Note_on_c, 9, 44, 90
9, 293036, Note_off_c, 9, 36, 80
9, 293036, Note_off_c, 9, 40, 80
9, 293036, Note_off_c, 9, 44, 80
9, 293040, Note_on_c, 9, 46, 82
9, 293276, Note_off_c, 9, 46, 80
9, 293280, Note_on_c, 9, 36, 102
9, 293280, Note_on_c, 9, 40, 104
9, 293280, Note_on_c, 9, 44, 90
9, 293516, Note_off_c, 9, 36, 80
9, 293516, Note_off_c, 9, 40, 80
9, 293516, Note_off_c, 9, 44, 80
9, 293520, Note_on_c, 9, 46, 82
9, 293756, Note_off_c, 9, 46, 80
9, 293760, Note_on_c, 9, 36, 102
9, 293760, Note_on_c, 9, 40, 104
9, 293760, Note_on_c, 9, 44, 90
9, 293996, Note_off_c, 9, 36, 80
9, 293996, Note_off_c, 9, 40, 80
9, 293996, Note_off_c, 9, 44, 80
9, 294000, Note_on_c, 9, 44, 90
9, 294236, Note_off_c, 9, 44, 80
9, 294240, Note_on_c, 9, 36, 102
9, 294240, Note_on_c, 9, 40, 104
9, 294240, Note_on_c, 9, 44, 90
9, 294476, Note_off_c, 9, 36, 80
9, 294476, Note_off_c, 9, 40, 80
9, 294476, Note_off_c, 9, 44, 80
9, 294480, Note_on_c, 9, 44, 90
9, 294716, Note_off_c, 9, 44, 80
9, 294720, Note_on_c, 9, 36, 102
9, 294720, Note_on_c, 9, 40, 104
9, 294720, Note_on_c, 9, 44, 90
9, 294956, Note_off_c, 9, 36, 80
9, 294956, Note_off_c, 9, 40, 80
9, 294956, Note_off_c, 9, 44, 80
9, 294960, Note_on_c, 9, 46, 82
9, 295196, Note_off_c, 9, 46, 80
9, 295200, Note_on_c, 9, 36, 102
9, 295200, Note_on_c, 9, 40, 104
9, 295200, Note_on_c, 9, 44, 90
9, 295436, Note_off_c, 9, 36, 80
9, 295436, Note_off_c, 9, 40, 80
9, 295436, Note_off_c, 9, 44, 80
9, 295440, Note_on_c, 9, 44, 90
9, 295676, Note_off_c, 9, 44, 80
9, 295680, Note_on_c, 9, 36, 102
9, 295680, Note_on_c, 9, 40, 104
9, 295680, Note_on_c, 9, 44, 90
9, 295916, Note_off_c, 9, 36, 80
9, 295916, Note_off_c, 9, 40, 80
9, 295916, Note_off_c, 9, 44, 80
9, 295920, Note_on_c, 9, 46, 82
9, 296156, Note_off_c, 9, 46, 80
9, 296160, Note_on_c, 9, 36, 102
9, 296160, Note_on_c, 9, 40, 104
9, 296160, Note_on_c, 9, 44, 90
9, 296396, Note_off_c, 9, 36, 80
9, 296396, Note_off_c, 9, 40, 80
9, 296396, Note_off_c, 9, 44, 80
9, 296400, Note_on_c, 9, 44, 90
9, 296636, Note_off_c, 9, 44, 80
9, 296640, Note_on_c, 9, 36, 102
9, 296640, Note_on_c, 9, 40, 104
9, 296640, Note_on_c, 9, 44, 90
9, 296876, Note_off_c, 9, 36, 80
9, 296876, Note_off_c, 9, 40, 80
9, 296876, Note_off_c, 9, 44, 80
9, 296880, Note_on_c, 9, 46, 82
9, 297116, Note_off_c, 9, 46, 80
9, 297120, Note_on_c, 9, 36, 102
9, 297120, Note_on_c, 9, 40, 104
9, 297120, Note_on_c, 9, 44, 90
9, 297356, Note_off_c, 9, 36, 80
9, 297356, Note_off_c, 9, 40, 80
9, 297356, Note_off_c, 9, 44, 80
9, 297360, Note_on_c, 9, 46, 82
9, 297596, Note_off_c, 9, 46, 80
9, 297600, Note_on_c, 9, 36, 102
9, 297600, Note_on_c, 9, 40, 104
9, 297600, Note_on_c, 9, 44, 90
9, 297836, Note_off_c, 9, 36, 80
9, 297836, Note_off_c, 9, 40, 80
9, 297836, Note_off_c, 9, 44, 80
9, 297840, Note_on_c, 9, 44, 90
9, 298076, Note_off_c, 9, 44, 80
9, 298080, Note_on_c, 9, 36, 102
9, 298080, Note_on_c, 9, 40, 104
9, 298080, Note_on_c, 9, 44, 90
9, 298316, Note_off_c, 9, 36, 80
9, 298316, Note_off_c, 9, 40, 80
9, 298316, Note_off_c, 9, 44, 80
9, 298320, Note_on_c, 9, 46, 82
9, 298556, Note_off_c, 9, 46, 80
9, 298560, Note_on_c, 9, 36, 102
9, 298560, Note_on_c, 9, 40, 104
9, 298560, Note_on_c, 9, 44, 90
9, 298796, Note_off_c, 9, 36, 80
9, 298796, Note_off_c, 9, 40, 80
9, 298796, Note_off_c, 9, 44, 80
9, 298800, Note_on_c, 9, 44, 90
9, 299036, Note_off_c, 9, 44, 80
9, 299040, Note_on_c, 9, 36, 102
9, 299040, Note_on_c, 9, 40, 104
9, 299040, Note_on_c, 9, 44, 90
9, 299276, Note_off_c, 9, 36, 80
9, 299276, Note_off_c, 9, 40, 80
9, 299276, Note_off_c, 9, 44, 80
9, 299280, Note_on_c, 9, 46, 82
9, 299516, Note_off_c, 9, 46, 80
9, 299520, Note_on_c, 9, 36, 102
9, 299520, Note_on_c, 9, 40, 104
9, 299520, Note_on_c, 9, 44, 90
9, 299756, Note_off_c, 9, 36, 80
9, 299756, Note_off_c, 9, 40, 80
9, 299756, Note_off_c, 9, 44, 80
9, 299760, Note_on_c, 9, 44, 90
9, 299996, Note_off_c, 9, 44, 80
9, 300000, Note_on_c, 9, 36, 102
9, 300000, Note_on_c, 9, 40, 104
9, 300000, Note_on_c, 9, 44, 90
9, 300236, Note_off_c, 9, 36, 80
9, 300236, Note_off_c, 9, 40, 80
9, 300236, Note_off_c, 9, 44, 80
9, 300240, Note_on_c, 9, 44, 90
9, 300476, Note_off_c, 9, 44, 80
9, 300480, Note_on_c, 9, 36, 102
9, 300480, Note_on_c, 9, 40, 104
9, 300480, Note_on_c, 9, 44, 90
9, 300716, Note_off_c, 9, 36, 80
9, 300716, Note_off_c, 9, 40, 80
9, 300716, Note_off_c, 9, 44, 80
9, 300720, Note_on_c, 9, 46, 82
9, 300956, Note_off_c, 9, 46, 80
9, 300960, Note_on_c, 9, 36, 102
9, 300960, Note_on_c, 9, 40, 104
9, 300960, Note_on_c, 9, 44, 90
9, 301196, Note_off_c, 9, 36, 80
9, 301196, Note_off_c, 9, 40, 80
9, 301196, Note_off_c, 9, 44, 80
9, 301200, Note_on_c, 9, 46, 82
9, 301436, Note_off_c, 9, 46, 80
9, 301440, Note_on_c, 9, 36, 102
9, 301440, Note_on_c, 9, 40, 104
9, 301440, Note_on_c, 9, 44, 90
9, 301440, Note_on_c, 9, 49, 78
9, 301676, Note_off_c, 9, 36, 80
9, 301676, Note_off_c, 9, 40, 80
9, 301676, Note_off_c, 9, 44, 80
9, 301676, Note_off_c, 9, 49, 80
9, 301680, Note_on_c, 9, 44, 90
9, 301916, Note_off_c, 9, 44, 80
9, 301920, Note_on_c, 9, 36, 102
9, 301920, Note_on_c, 9, 40, 104
9, 301920, Note_on_c, 9, 44, 90
9, 302156, Note_off_c, 9, 36, 80
9, 302156, Note_off_c, 9, 40, 80
9, 302156, Note_off_c, 9, 44, 80
9, 302160, Note_on_c, 9, 44, 90
9, 302396, Note_off_c, 9, 44, 80
9, 302400, Note_on_c, 9, 36, 102
9, 302400, Note_on_c, 9, 40, 104
9, 302400, Note_on_c, 9, 44, 90
9, 302636, Note_off_c, 9, 36, 80
9, 302636, Note_off_c, 9, 40, 80
9, 302636, Note_off_c, 9, 44, 80
9, 302640, Note_on_c, 9, 46, 82
9, 302876, Note_off_c, 9, 46, 80
9, 302880, Note_on_c, 9, 36, 102
9, 302880, Note_on_c, 9, 40, 104
9, 302880, Note_on_c, 9, 44, 90
9, 303116, Note_off_c, 9, 36, 80
9, 303116, Note_off_c, 9, 40, 80
9, 303116, Note_off_c, 9, 44, 80
9, 303120, Note_on_c, 9, 44, 90
9, 303356, Note_off_c, 9, 44, 80
9, 303360, Note_on_c, 9, 36, 102
9, 303360, Note_on_c, 9, 40, 104
9, 303360, Note_on_c, 9, 44, 90
9, 303596, Note_off_c, 9, 36, 80
9, 303596, Note_off_c, 9, 40, 80
9, 303596, Note_off_c, 9, 44, 80
9, 303600, Note_on_c, 9, 46, 82
9, 303836, Note_off_c, 9, 46, 80
9, 303840, Note_on_c, 9, 36, 102
9, 303840, Note_on_c, 9, 40, 104
9, 303840, Note_on_c, 9, 44, 90
9, 304076, Note_off_c, 9, 36, 80
9, 304076, Note_off_c, 9, 40, 80
9, 304076, Note_off_c, 9, 44, 80
9, 304080, Note_on_c, 9, 44, 90
9, 304316, Note_off_c, 9, 44, 80
9, 304320, Note_on_c, 9, 36, 102
9, 304320, Note_on_c, 9, 40, 104
9, 304320, Note_on_c, 9, 44, 90
9, 304556, Note_off_c, 9, 36, 80
9, 304556, Note_off_c, 9, 40, 80
9, 304556, Note_off_c, 9, 44, 80
9, 304560, Note_on_c, 9, 46, 82
9, 304796, Note_off_c, 9, 46, 80
9, 304800, Note_on_c, 9, 36, 102
9, 304800, Note_on_c, 9, 40, 104
9, 304800, Note_on_c, 9, 44, 90
9, 305036, Note_off_c, 9, 36, 80
9, 305036, Note_off_c, 9, 40, 80
9, 305036, Note_off_c, 9, 44, 80
9, 305040, Note_on_c, 9, 46, 82
9, 305276, Note_off_c, 9, 46, 80
9, 305280, Note_on_c, 9, 36, 102
9, 305280, Note_on_c, 9, 40, 104
9, 305280, Note_on_c, 9, 44, 90
9, 305516, Note_off_c, 9, 36, 80
9, 305516, Note_off_c, 9, 40, 80
9, 305516, Note_off_c, 9, 44, 80
9, 305520, Note_on_c, 9, 44, 90
9, 305756, Note_off_c, 9, 44, 80
9, 305760, Note_on_c, 9, 36, 102
9, 305760, Note_on_c, 9, 40, 104
9, 305760, Note_on_c, 9, 44, 90
9, 305996, Note_off_c, 9, 36, 80
9, 305996, Note_off_c, 9, 40, 80
9, 305996, Note_off_c, 9, 44, 80
9, 306000, Note_on_c, 9, 46, 82
9, 306236, Note_off_c, 9, 46, 80
9, 306240, Note_on_c, 9, 36, 102
9, 306240, Note_on_c, 9, 40, 104
9, 306240, Note_on_c, 9, 44, 90
9, 306476, Note_off_c, 9, 36, 80
9, 306476, Note_off_c, 9, 40, 80
9, 306476, Note_off_c, 9, 44, 80
9, 306480, Note_on_c, 9, 44, 90
9, 306716, Note_off_c, 9, 44, 80
9, 306720, Note_on_c, 9, 36, 102
9, 306720, Note_on_c, 9, 40, 104
9, 306720, Note_on_c, 9, 44, 90
9, 306956, Note_off_c, 9, 36, 80
9, 306956, Note_off_c, 9, 40, 80
9, 306956, Note_off_c, 9, 44, 80
9, 306960, Note_on_c, 9, 46, 82
9, 307196, Note_off_c, 9, 46, 80
9, 307200, Note_on_c, 9, 36, 102
9, 307200, Note_on_c, 9, 40, 104
9, 307200, Note_on_c, 9, 44, 90
9, 307436, Note_off_c, 9, 36, 80
9, 307436, Note_off_c, 9, 40, 80
9, 307436, Note_off_c, 9, 44, 80
9, 307440, Note_on_c, 9, 44, 90
9, 307676, Note_off_c, 9, 44, 80
9, 307680, Note_on_c, 9, 36, 102
9, 307680, Note_on_c, 9, 40, 104
9, 307680, Note_on_c, 9, 44, 90
9, 307916, Note_off_c, 9, 36, 80
9, 307916, Note_off_c, 9, 40, 80
9, 307916, Note_off_c, 9, 44, 80
9, 307920, Note_on_c, 9, 44, 90
9, 308156, Note_off_c, 9, 44, 80
9, 308160, Note_on_c, 9, 36, 102
9, 308160, Note_on_c, 9, 40, 104
9, 308160, Note_on_c, 9, 44, 90
9, 308396, Note_off_c, 9, 36, 80
9, 308396, Note_off_c, 9, 40, 80
9, 308396, Note_off_c, 9, 44, 80
9, 308400, Note_on_c, 9, 46, 82
9, 308636, Note_off_c, 9, 46, 80
9, 308640, Note_on_c, 9, 36, 102
9, 308640, Note_on_c, 9, 40, 104
9, 308640, Note_on_c, 9, 44, 90
9, 308876, Note_off_c, 9, 36, 80
9, 308876, Note_off_c, 9, 40, 80
9, 308876, Note_off_c, 9, 44, 80
9, 308880, Note_on_c, 9, 46, 82
9, 309116, Note_off_c, 9, 46, 80
9, 309120, Note_on_c, 9, 36, 102
9, 309120, Note_on_c, 9, 40, 104
9, 309120, Note_on_c, 9, 44, 90
9, 309356, Note_off_c, 9, 36, 80
9, 309356, Note_off_c, 9, 40, 80
9, 309356, Note_off_c, 9, 44, 80
9, 309360, Note_on_c, 9, 44, 90
9, 309596, Note_off_c, 9, 44, 80
9, 309600, Note_on_c, 9, 36, 102
9, 309600, Note_on_c, 9, 40, 104
9, 309600, Note_on_c, 9, 44, 90
9, 309836, Note_off_c, 9, 36, 80
9, 309836, Note_off_c, 9, 40, 80
9, 309836, Note_off_c, 9, 44, 80
9, 309840, Note_on_c, 9, 44, 90
9, 310076, Note_off_c, 9, 44, 80
9, 310080, Note_on_c, 9, 36, 102
9, 310080, Note_on_c, 9, 40, 104
9, 310080, Note_on_c, 9, 44, 90
9, 310316, Note_off_c, 9, 36, 80
9, 310316, Note_off_c, 9, 40, 80
9, 310316, Note_off_c, 9, 44, 80
9, 310320, Note_on_c, 9, 46, 82
9, 310556, Note_off_c, 9, 46, 80
9, 310560, Note_on_c, 9, 36, 102
9, 310560, Note_on_c, 9, 40, 104
9, 310560, Note_on_c, 9, 44, 90
9, 310796, Note_off_c, 9, 36, 80
9, 310796, Note_off_c, 9, 40, 80
9, 310796, Note_off_c, 9, 44, 80
9, 310800, Note_on_c, 9, 44, 90
9, 311036, Note_off_c, 9, 44, 80
9, 311040, Note_on_c, 9, 36, 102
9, 311040, Note_on_c, 9, 40, 104
9, 311040, Note_on_c, 9, 44, 90
9, 311276, Note_off_c, 9, 36, 80
9, 311276, Note_off_c, 9, 40, 80
9, 311276, Note_off_c, 9, 44, 80
9, 311280, Note_on_c, 9, 46, 82
9, 311516, Note_off_c, 9, 46, 80
9, 311520, Note_on_c, 9, 36, 102
9, 311520, Note_on_c, 9, 40, 104
9, 311520, Note_on_c, 9, 44, 90
9, 311756, Note_off_c, 9, 36, 80
9, 311756, Note_off_c, 9, 40, 80
9, 311756, Note_off_c, 9, 44, 80
9, 311760, Note_on_c, 9, 44, 90
9, 311996, Note_off_c, 9, 44, 80
9, 312000, Note_on_c, 9, 36, 102
9, 312000, Note_on_c, 9, 40, 104
9, 312000, Note_on_c, 9, 44, 90
9, 312236, Note_off_c, 9, 36, 80
9, 312236, Note_off_c, 9, 40, 80
9, 312236, Note_off_c, 9, 44, 80
9, 312240, Note_on_c, 9, 46, 82
9, 312476, Note_off_c, 9, 46, 80
9, 312480, Note_on_c, 9, 36, 102
9, 312480, Note_on_c, 9, 40, 104
9, 312480, Note_on_c, 9, 44, 90
9, 312716, Note_off_c, 9, 36, 80
9, 312716, Note_off_c, 9, 40, 80
9, 312716, Note_off_c, 9, 44, 80
9, 312720, Note_on_c, 9, 46, 82
9, 312956, Note_off_c, 9, 46, 80
9, 312960, Note_on_c, 9, 36, 102
9, 312960, Note_on_c, 9, 40, 104
9, 312960, Note_on_c, 9, 44, 90
9, 313196, Note_off_c, 9, 36, 80
9, 313196, Note_off_c, 9, 40, 80
9, 313196, Note_off_c, 9, 44, 80
9, 313200, Note_on_c, 9, 44, 90
9, 313436, Note_off_c, 9, 44, 80
9, 313440, Note_on_c, 9, 36, 102
9, 313440, Note_on_c, 9, 40, 104
9, 313440, Note_on_c, 9, 44, 90
9, 313676, Note_off_c, 9, 36, 80
9, 313676, Note_off_c, 9, 40, 80
9, 313676, Note_off_c, 9, 44, 80
9, 313680, Note_on_c, 9, 46, 82
9, 313916, Note_off_c, 9, 46, 80
9, 313920, Note_on_c, 9, 36, 102
9, 313920, Note_on_c, 9, 40, 104
9, 313920, Note_on_c, 9, 44, 90
9, 314156, Note_off_c, 9, 36, 80
9, 314156, Note_off_c, 9, 40, 80
9, 314156, Note_off_c, 9, 44, 80
9, 314160, Note_on_c, 9, 44, 90
9, 314396, Note_off_c, 9, 44, 80
9, 314400, Note_on_c, 9, 36, 102
9, 314400, Note_on_c, 9, 40, 104
9, 314400, Note_on_c, 9, 44, 90
9, 314636, Note_off_c, 9, 36, 80
9, 314636, Note_off_c, 9, 40, 80
9, 314636, Note_off_c, 9, 44, 80
9, 314640, Note_on_c, 9, 46, 82
9, 314876, Note_off_c, 9, 46, 80
9, 314880, Note_on_c, 9, 36, 102
9, 314880, Note_on_c, 9, 40, 104
9, 314880, Note_on_c, 9, 44, 90
9, 315116, Note_off_c, 9, 36, 80
9, 315116, Note_off_c, 9, 40, 80
9, 315116, Note_off_c, 9, 44, 80
9, 315120, Note_on_c, 9, 44, 90
9, 315356, Note_off_c, 9, 44, 80
9, 315360, Note_on_c, 9, 36, 102
9, 315360, Note_on_c, 9, 40, 104
9, 315360, Note_on_c, 9, 44, 90
9, 315596, Note_off_c, 9, 36, 80
9, 315596, Note_off_c, 9, 40, 80
9, 315596, Note_off_c, 9, 44, 80
9, 315600, Note_on_c, 9, 44, 90
9, 315836, Note_off_c, 9, 44, 80
9, 315840, Note_on_c, 9, 36, 102
9, 315840, Note_on_c, 9, 40, 104
9, 315840, Note_on_c, 9, 44, 90
9, 316076, Note_off_c, 9, 36, 80
9, 316076, Note_off_c, 9, 40, 80
9, 316076, Note_off_c, 9, 44, 80
9, 316080, Note_on_c, 9, 46, 82
9, 316316, Note_off_c, 9, 46, 80
9, 316320, Note_on_c, 9, 36, 102
9, 316320, Note_on_c, 9, 40, 104
9, 316320, Note_on_c, 9, 44, 90
9, 316556, Note_off_c, 9, 36, 80
9, 316556, Note_off_c, 9, 40, 80
9, 316556, Note_off_c, 9, 44, 80
9, 316560, Note_on_c, 9, 46, 82
9, 316796, Note_off_c, 9, 46, 80
9, 316800, Note_on_c, 9, 36, 102
9, 316800, Note_on_c, 9, 40, 104
9, 316800, Note_on_c, 9, 44, 90
9, 316800, Note_on_c, 9, 49, 78
9, 317036, Note_off_c, 9, 36, 80
9, 317036, Note_off_c, 9, 40, 80
9, 317036, Note_off_c, 9, 44, 80
9, 317036, Note_off_c, 9, 49, 80
9, 317040, Note_on_c, 9, 44, 90
9, 317276, Note_off_c, 9, 44, 80
9, 317280, Note_on_c, 9, 36, 102
9, 317280, Note_on_c, 9, 40, 104
9, 317280, Note_on_c, 9, 44, 90
9, 317516, Note_off_c, 9, 36, 80
9, 317516, Note_off_c, 9, 40, 80
9, 317516, Note_off_c, 9, 44, 80
9, 317520, Note_on_c, 9, 44, 90
9, 317756, Note_off_c, 9, 44, 80
9, 317760, Note_on_c, 9, 36, 102
9, 317760, Note_on_c, 9, 40, 104
9, 317760, Note_on_c, 9, 44, 90
9, 317996, Note_off_c, 9, 36, 80
9, 317996, Note_off_c, 9, 40, 80
9, 317996, Note_off_c, 9, 44, 80
9, 318000, Note_on_c, 9, 46, 82
9, 318236, Note_off_c, 9, 46, 80
9, 318240, Note_on_c, 9, 36, 102
9, 318240, Note_on_c, 9, 40, 104
9, 318240, Note_on_c, 9, 44, 90
9, 318476, Note_off_c, 9, 36, 80
9, 318476, Note_off_c, 9, 40, 80
9, 318476, Note_off_c, 9, 44, 80
9, 318480, Note_on_c, 9, 44, 90
9, 318716, Note_off_c, 9, 44, 80
9, 318720, Note_on_c, 9, 36, 102
9, 318720, Note_on_c, 9, 40, 104
9, 318720, Note_on_c, 9, 44, 90
9, 318956, Note_off_c, 9, 36, 80
9, 318956, Note_off_c, 9, 40, 80
9, 318956, Note_off_c, 9, 44, 80
9, 318960, Note_on_c, 9, 46, 82
9, 319196, Note_off_c, 9, 46, 80
9, 319200, Note_on_c, 9, 36, 102
9, 319200, Note_on_c, 9, 40, 104
9, 319200, Note_on_c, 9, 44, 90
9, 319436, Note_off_c, 9, 36, 80
9, 319436, Note_off_c, 9, 40, 80
9, 319436, Note_off_c, 9, 44, 80
9, 319440, Note_on_c, 9, 44, 90
9, 319676, Note_off_c, 9, 44, 80
9, 319680, Note_on_c, 9, 36, 102
9, 319680, Note_on_c, 9, 40, 104
9, 319680, Note_on_c, 9, 44, 90
9, 319916, Note_off_c, 9, 36, 80
9, 319916, Note_off_c, 9, 40, 80
9, 319916, Note_off_c, 9, 44, 80
9, 319920, Note_on_c, 9, 46, 82
9, 320156, Note_off_c, 9, 46, 80
9, 320160, Note_on_c, 9, 36, 102
9, 320160, Note_on_c, 9, 40, 104
9, 320160, Note_on_c, 9, 44, 90
9, 320396, Note_off_c, 9, 36, 80
9, 320396, Note_off_c, 9, 40, 80
9, 320396, Note_off_c, 9, 44, 80
9, 320400, Note_on_c, 9, 46, 82
9, 320636, Note_off_c, 9, 46, 80
9, 320640, Note_on_c, 9, 36, 102
9, 320640, Note_on_c, 9, 40, 104
9, 320640, Note_on_c, 9, 44, 90
9, 320876, Note_off_c, 9, 36, 80
9, 320876, Note_off_c, 9, 40, 80
9, 320876, Note_off_c, 9, 44, 80
9, 320880, Note_on_c, 9, 44, 90
9, 321116, Note_off_c, 9, 44, 80
9, 321120, Note_on_c, 9, 36, 102
9, 321120, Note_on_c, 9, 40, 104
9, 321120, Note_on_c, 9, 44, 90
9, 321356, Note_off_c, 9, 36, 80
9, 321356, Note_off_c, 9, 40, 80
9, 321356, Note_off_c, 9, 44, 80
9, 321360, Note_on_c, 9, 46, 82
9, 321596, Note_off_c, 9, 46, 80
9, 321600, Note_on_c, 9, 36, 102
9, 321600, Note_on_c, 9, 40, 104
9, 321600, Note_on_c, 9, 44, 90
9, 321836, Note_off_c, 9, 36, 80
9, 321836, Note_off_c, 9, 40, 80
9, 321836, Note_off_c, 9, 44, 80
9, 321840, Note_on_c, 9, 44, 90
9, 322076, Note_off_c, 9, 44, 80
9, 322080, Note_on_c, 9, 36, 102
9, 322080, Note_on_c, 9, 40, 104
9, 322080, Note_on_c, 9, 44, 90
9, 322316, Note_off_c, 9, 36, 80
9, 322316, Note_off_c, 9, 40, 80
9, 322316, Note_off_c, 9, 44, 80
9, 322320, Note_on_c, 9, 46, 82
9, 322556, Note_off_c, 9, 46, 80
9, 322560, Note_on_c, 9, 36, 102
9, 322560, Note_on_c, 9, 40, 104
9, 322560, Note_on_c, 9, 44, 90
9, 322796, Note_off_c, 9, 36, 80
9, 322796, Note_off_c, 9, 40, 80
9, 322796, Note_off_c, 9, 44, 80
9, 322800, Note_on_c, 9, 44, 90
9, 323036, Note_off_c, 9, 44, 80
9, 323040, Note_on_c, 9, 36, 102
9, 323040, Note_on_c, 9, 40, 104
9, 323040, Note_on_c, 9, 44, 90
9, 323276, Note_off_c, 9, 36, 80
9, 323276, Note_off_c, 9, 40, 80
9, 323276, Note_off_c, 9, 44, 80
9, 323280, Note_on_c, 9, 44, 90
9, 323516, Note_off_c, 9, 44, 80
9, 323520, Note_on_c, 9, 36, 102
9, 323520, Note_on_c, 9, 40, 104
9, 323520, Note_on_c, 9, 44, 90
9, 323756, Note_off_c, 9, 36, 80
9, 323756, Note_off_c, 9, 40, 80
9, 323756, Note_off_c, 9, 44, 80
9, 323760, Note_on_c, 9, 46, 82
9, 323996, Note_off_c, 9, 46, 80
9, 324000, Note_on_c, 9, 36, 102
9, 324000, Note_on_c, 9, 40, 104
9, 324000, Note_on_c, 9, 44, 90
9, 324236, Note_off_c, 9, 36, 80
9, 324236, Note_off_c, 9, 40, 80
9, 324236, Note_off_c, 9, 44, 80
9, 324240, Note_on_c, 9, 46, 82
9, 324476, Note_off_c, 9, 46, 80
9, 324480, Note_on_c, 9, 36, 102
9, 324480, Note_on_c, 9, 40, 104
9, 324480, Note_on_c, 9, 44, 90
9, 324716, Note_off_c, 9, 36, 80
9, 324716, Note_off_c, 9, 40, 80
9, 324716, Note_off_c, 9, 44, 80
9, 324720, Note_on_c, 9, 44, 90
9, 324956, Note_off_c, 9, 44, 80
9, 324960, Note_on_c, 9, 36, 102
9, 324960, Note_on_c, 9, 40, 104
9, 324960, Note_on_c, 9, 44, 90
9, 325196, Note_off_c, 9, 36, 80
9, 325196, Note_off_c, 9, 40, 80
9, 325196, Note_off_c, 9, 44, 80
9, 325200, Note_on_c, 9, 44, 90
9, 325436, Note_off_c, 9, 44, 80
9, 325440, Note_on_c, 9, 36, 102
9, 325440, Note_on_c, 9, 40, 104
9, 325440, Note_on_c, 9, 44, 90
9, 325676, Note_off_c, 9, 36, 80
9, 325676, Note_off_c, 9, 40, 80
9, 325676, Note_off_c, 9, 44, 80
9, 325680, Note_on_c, 9, 46, 82
9, 325916, Note_off_c, 9, 46, 80
9, 325920, Note_on_c, 9, 36, 102
9, 325920, Note_on_c, 9, 40, 104
9, 325920, Note_on_c, 9, 44, 90
9, 326156, Note_off_c, 9, 36, 80
9, 326156, Note_off_c, 9, 40, 80
9, 326156, Note_off_c, 9, 44, 80
9, 326160, Note_on_c, 9, 44, 90
9, 326396, Note_off_c, 9, 44, 80
9, 326400, Note_on_c, 9, 36, 102
9, 326400, Note_on_c, 9, 40, 104
9, 326400, Note_on_c, 9, 44, 90
9, 326636, Note_off_c, 9, 36, 80
9, 326636, Note_off_c, 9, 40, 80
9, 326636, Note_off_c, 9, 44, 80
9, 326640, Note_on_c, 9, 46, 82
9, 326876, Note_off_c, 9, 46, 80
9, 326880, Note_on_c, 9, 36, 102
9, 326880, Note_on_c, 9, 40, 104
9, 326880, Note_on_c, 9, 44, 90
9, 327116, Note_off_c, 9, 36, 80
9, 327116, Note_off_c, 9, 40, 80
9, 327116, Note_off_c, 9, 44, 80
9, 327120, Note_on_c, 9, 44, 90
9, 327356, Note_off_c, 9, 44, 80
9, 327360, Note_on_c, 9, 36, 102
9, 327360, Note_on_c, 9, 40, 104
9, 327360, Note_on_c, 9, 44, 90
9, 327596, Note_off_c, 9, 36, 80
9, 327596, Note_off_c, 9, 40, 80
9, 327596, Note_off_c, 9, 44, 80
9, 327600, Note_on_c, 9, 46, 82
9, 327836, Note_off_c, 9, 46, 80
9, 327840, Note_on_c, 9, 36, 102
9, 327840, Note_on_c, 9, 40, 104
9, 327840, Note_on_c, 9, 44, 90
9, 328076, Note_off_c, 9, 36, 80
9, 328076, Note_off_c, 9, 40, 80
9, 328076, Note_off_c, 9, 44, 80
9, 328080, Note_on_c, 9, 46, 82
9, 328316, Note_off_c, 9, 46, 80
9, 328320, Note_on_c, 9, 36, 102
9, 328320, Note_on_c, 9, 40, 104
9, 328320, Note_on_c, 9, 44, 90
9, 328556, Note_off_c, 9, 36, 80
9, 328556, Note_off_c, 9, 40, 80
9, 328556, Note_off_c, 9, 44, 80
9, 328560, Note_on_c, 9, 44, 90
9, 328796, Note_off_c, 9, 44, 80
9, 328800, Note_on_c, 9, 36, 102
9, 328800, Note_on_c, 9, 40, 104
9, 328800, Note_on_c, 9, 44, 90
9, 329036, Note_off_c, 9, 36, 80
9, 329036, Note_off_c, 9, 40, 80
9, 329036, Note_off_c, 9, 44, 80
9, 329040, Note_on_c, 9, 46, 82
9, 329276, Note_off_c, 9, 46, 80
9, 329280, Note_on_c, 9, 36, 102
9, 329280, Note_on_c, 9, 40, 104
9, 329280, Note_on_c, 9, 44, 90
9, 329516, Note_off_c, 9, 36, 80
9, 329516, Note_off_c, 9, 40, 80
9, 329516, Note_off_c, 9, 44, 80
9, 329520, Note_on_c, 9, 44, 90
9, 329756, Note_off_c, 9, 44, 80
9, 329760, Note_on_c, 9, 36, 102
9, 329760, Note_on_c, 9, 40, 104
9, 329760, Note_on_c, 9, 44, 90
9, 329996, Note_off_c, 9, 36, 80
9, 329996, Note_off_c, 9, 40, 80
9, 329996, Note_off_c, 9, 44, 80
9, 330000, Note_on_c, 9, 46, 82
9, 330236, Note_off_c, 9, 46, 80
9, 330240, Note_on_c, 9, 36, 102
9, 330240, Note_on_c, 9, 40, 104
9, 330240, Note_on_c, 9, 44, 90
9, 330476, Note_off_c, 9, 36, 80
9, 330476, Note_off_c, 9, 40, 80
9, 330476, Note_off_c, 9, 44, 80
9, 330480, Note_on_c, 9, 44, 90
9, 330716, Note_off_c, 9, 44, 80
9, 330720, Note_on_c, 9, 36, 102
9, 330720, Note_on_c, 9, 40, 104
9, 330720, Note_on_c, 9, 44, 90
9, 330956, Note_off_c, 9, 36, 80
9, 330956, Note_off_c, 9, 40, 80
9, 330956, Note_off_c, 9, 44, 80
9, 330960, Note_on_c, 9, 44, 90
9, 331196, Note_off_c, 9, 44, 80
9, 331200, Note_on_c, 9, 36, 102
9, 331200, Note_on_c, 9, 40, 104
9, 331200, Note_on_c, 9, 44, 90
9, 331436, Note_off_c, 9, 36, 80
9, 331436, Note_off_c, 9, 40, 80
9, 331436, Note_off_c, 9, 44, 80
9, 331440, Note_on_c, 9, 46, 82
9, 331676, Note_off_c, 9, 46, 80
9, 331680, Note_on_c, 9, 36, 102
9, 331680, Note_on_c, 9, 40, 104
9, 331680, Note_on_c, 9, 44, 90
9, 331916, Note_off_c, 9, 36, 80
9, 331916, Note_off_c, 9, 40, 80
9, 331916, Note_off_c, 9, 44, 80
9, 331920, Note_on_c, 9, 46, 82
9, 332156, Note_off_c, 9, 46, 80
9, 332160, Note_on_c, 9, 36, 102
9, 332160, Note_on_c, 9, 40, 104
9, 332160, Note_on_c, 9, 44, 90
9, 332160, Note_on_c, 9, 49, 78
9, 332396, Note_off_c, 9, 36, 80
9, 332396, Note_off_c, 9, 40, 80
9, 332396, Note_off_c, 9, 44, 80
9, 332396, Note_off_c, 9, 49, 80
9, 332400, Note_on_c, 9, 44, 90
9, 332636, Note_off_c, 9, 44, 80
9, 332640, Note_on_c, 9, 36, 102
9, 332640, Note_on_c, 9, 40, 104
9, 332640, Note_on_c, 9, 44, 90
9, 332876, Note_off_c, 9, 36, 80
9, 332876, Note_off_c, 9, 40, 80
9, 332876, Note_off_c, 9, 44, 80
9, 332880, Note_on_c, 9, 44, 90
9, 333116, Note_off_c, 9, 44, 80
9, 333120, Note_on_c, 9, 36, 102
9, 333120, Note_on_c, 9, 40, 104
9, 333120, Note_on_c, 9, 44, 90
9, 333356, Note_off_c, 9, 36, 80
9, 333356, Note_off_c, 9, 40, 80
9, 333356, Note_off_c, 9, 44, 80
9, 333360, Note_on_c, 9, 46, 82
9, 333596, Note_off_c, 9, 46, 80
9, 333600, Note_on_c, 9, 36, 102
9, 333600, Note_on_c, 9, 40, 104
9, 333600, Note_on_c, 9, 44, 90
9, 333836, Note_off_c, 9, 36, 80
9, 333836, Note_off_c, 9, 40, 80
9, 333836, Note_off_c, 9, 44, 80
9, 333840, Note_on_c, 9, 44, 90
9, 334076, Note_off_c, 9, 44, 80
9, 334080, Note_on_c, 9, 36, 102
9, 334080, Note_on_c, 9, 40, 104
9, 334080, Note_on_c, 9, 44, 90
9, 334316, Note_off_c, 9, 36, 80
9, 334316, Note_off_c, 9, 40, 80
9, 334316, Note_off_c, 9, 44, 80
9, 334320, Note_on_c, 9, 46, 82
9, 334556, Note_off_c, 9, 46, 80
9, 334560, Note_on_c, 9, 36, 102
9, 334560, Note_on_c, 9, 40, 104
9, 334560, Note_on_c, 9, 44, 90
9, 334796, Note_off_c, 9, 36, 80
9, 334796, Note_off_c, 9, 40, 80
9, 334796, Note_off_c, 9, 44, 80
9, 334800, Note_on_c, 9, 44, 90
9, 335036, Note_off_c, 9, 44, 80
9, 335040, Note_on_c, 9, 36, 102
9, 335040, Note_on_c, 9, 40, 104
9, 335040, Note_on_c, 9, 44, 90
9, 335276, Note_off_c, 9, 36, 80
9, 335276, Note_off_c, 9, 40, 80
9, 335276, Note_off_c, 9, 44, 80
9, 335280, Note_on_c, 9, 46, 82
9, 335516, Note_off_c, 9, 46, 80
9, 335520, Note_on_c, 9, 36, 102
9, 335520, Note_on_c, 9, 40, 104
9, 335520, Note_on_c, 9, 44, 90
9, 335756, Note_off_c, 9, 36, 80
9, 335756, Note_off_c, 9, 40, 80
9, 335756, Note_off_c, 9, 44, 80
9, 335760, Note_on_c, 9, 46, 82
9, 335996, Note_off_c, 9, 46, 80
9, 336000, Note_on_c, 9, 36, 102
9, 336000, Note_on_c, 9, 40, 104
9, 336000, Note_on_c, 9, 44, 90
9, 336236, Note_off_c, 9, 36, 80
9, 336236, Note_off_c, 9, 40, 80
9, 336236, Note_off_c, 9, 44, 80
9, 336240, Note_on_c, 9, 44, 90
9, 336476, Note_off_c, 9, 44, 80
9, 336480, Note_on_c, 9, 36, 102
9, 336480, Note_on_c, 9, 40, 104
9, 336480, Note_on_c, 9, 44, 90
9, 336716, Note_off_c, 9, 36, 80
9, 336716, Note_off_c, 9, 40, 80
9, 336716, Note_off_c, 9, 44, 80
9, 336720, Note_on_c, 9, 46, 82
9, 336956, Note_off_c, 9, 46, 80
9, 336960, Note_on_c, 9, 36, 102
9, 336960, Note_on_c, 9, 40, 104
9, 336960, Note_on_c, 9, 44, 90
9, 337196, Note_off_c, 9, 36, 80
9, 337196, Note_off_c, 9, 40, 80
9, 337196, Note_off_c, 9, 44, 80
9, 337200, Note_on_c, 9, 44, 90
9, 337436, Note_off_c, 9, 44, 80
9, 337440, Note_on_c, 9, 36, 102
9, 337440, Note_on_c, 9, 40, 104
9, 337440, Note_on_c, 9, 44, 90
9, 337676, Note_off_c, 9, 36, 80
9, 337676, Note_off_c, 9, 40, 80
9, 337676, Note_off_c, 9, 44, 80
9, 337680, Note_on_c, 9, 46, 82
9, 337916, Note_off_c, 9, 46, 80
9, 337920, Note_on_c, 9, 36, 102
9, 337920, Note_on_c, 9, 40, 104
9, 337920, Note_on_c, 9, 44, 90
9, 338156, Note_off_c, 9, 36, 80
9, 338156, Note_off_c, 9, 40, 80
9, 338156, Note_off_c, 9, 44, 80
9, 338160, Note_on_c, 9, 44, 90
9, 338396, Note_off_c, 9, 44, 80
9, 338400, Note_on_c, 9, 36, 102
9, 338400, Note_on_c, 9, 40, 104
9, 338400, Note_on_c, 9, 44, 90
9, 338636, Note_off_c, 9, 36, 80
9, 338636, Note_off_c, 9, 40, 80
9, 338636, Note_off_c, 9, 44, 80
9, 338640, Note_on_c, 9, 44, 90
9, 338876, Note_off_c, 9, 44, 80
9, 338880, Note_on_c, 9, 36, 102
9, 338880, Note_on_c, 9, 40, 104
9, 338880, Note_on_c, 9, 44, 90
9, 339116, Note_off_c, 9, 36, 80
9, 339116, Note_off_c, 9, 40, 80
9, 339116, Note_off_c, 9, 44, 80
9, 339120, Note_on_c, 9, 46, 82
9, 339356, Note_off_c, 9, 46, 80
9, 339360, Note_on_c, 9, 36, 102
9, 339360, Note_on_c, 9, 40, 104
9, 339360, Note_on_c, 9, 44, 90
9, 339596, Note_off_c, 9, 36, 80
9, 339596, Note_off_c, 9, 40, 80
9, 339596, Note_off_c, 9, 44, 80
9, 339600, Note_on_c, 9, 46, 82
9, 339836, Note_off_c, 9, 46, 80
9, 339840, Note_on_c, 9, 36, 102
9, 339840, Note_on_c, 9, 40, 104
9, 339840, Note_on_c, 9, 44, 90
9, 340076, Note_off_c, 9, 36, 80
9, 340076, Note_off_c, 9, 40, 80
9, 340076, Note_off_c, 9, 44, 80
9, 340080, Control_c, 9, 7, 126
9, 340080, Note_on_c, 9, 44, 90
9, 340200, Control_c, 9, 7, 125
9, 340316, Note_off_c, 9, 44, 80
9, 340320, Control_c, 9, 7, 124
9, 340320, Note_on_c, 9, 36, 102
9, 340320, Note_on_c, 9, 40, 104
9, 340320, Note_on_c, 9, 44, 90
9, 340556, Note_off_c, 9, 36, 80
9, 340556, Note_off_c, 9, 40, 80
9, 340556, Note_off_c, 9, 44, 80
9, 340560, Control_c, 9, 7, 123
9, 340560, Note_on_c, 9, 44, 90
9, 340680, Control_c, 9, 7, 122
9, 340796, Note_off_c, 9, 44, 80
9, 340800, Control_c, 9, 7, 121
9, 340800, Note_on_c, 9, 36, 102
9, 340800, Note_on_c, 9, 40, 104
9, 340800, Note_on_c, 9, 44, 90
9, 341036, Note_off_c, 9, 36, 80
9, 341036, Note_off_c, 9, 40, 80
9, 341036, Note_off_c, 9, 44, 80
9, 341040, Control_c, 9, 7, 120
9, 341040, Note_on_c, 9, 46, 82
9, 341160, Control_c, 9, 7, 119
9, 341276, Note_off_c, 9, 46, 80
9, 341280, Control_c, 9, 7, 118
9, 341280, Note_on_c, 9, 36, 102
9, 341280, Note_on_c, 9, 40, 104
9, 341280, Note_on_c, 9, 44, 90
9, 341516, Note_off_c, 9, 36, 80
9, 341516, Note_off_c, 9, 40, 80
9, 341516, Note_off_c, 9, 44, 80
9, 341520, Control_c, 9, 7, 117
9, 341520, Note_on_c, 9, 44, 90
9, 341640, Control_c, 9, 7, 116
9, 341756, Note_off_c, 9, 44, 80
9, 341760, Control_c, 9, 7, 115
9, 341760, Note_on_c, 9, 36, 102
9, 341760, Note_on_c, 9, 40, 104
9, 341760, Note_on_c, 9, 44, 90
9, 341996, Note_off_c, 9, 36, 80
9, 341996, Note_off_c, 9, 40, 80
9, 341996, Note_off_c, 9, 44, 80
9, 342000, Control_c, 9, 7, 114
9, 342000, Note_on_c, 9, 46, 82
9, 342120, Control_c, 9, 7, 113
9, 342236, Note_off_c, 9, 46, 80
9, 342240, Control_c, 9, 7, 112
9, 342240, Note_on_c, 9, 36, 102
9, 342240, Note_on_c, 9, 40, 104
9, 342240, Note_on_c, 9, 44, 90
9, 342476, Note_off_c, 9, 36, 80
9, 342476, Note_off_c, 9, 40, 80
9, 342476, Note_off_c, 9, 44, 80
9, 342480, Control_c, 9, 7, 111
9, 342480, Note_on_c, 9, 44, 90
9, 342600, Control_c, 9, 7, 110
9, 342716, Note_off_c, 9, 44, 80
9, 342720, Note_on_c, 9, 36, 102
9, 342720, Note_on_c, 9, 40, 104
9, 342720, Note_on_c, 9, 44, 90
9, 342840, Control_c, 9, 7, 109
9, 342956, Note_off_c, 9, 36, 80
9, 342956, Note_off_c, 9, 40, 80
9, 342956, Note_off_c, 9, 44, 80
9, 342960, Control_c, 9, 7, 108
9, 342960, Note_on_c, 9, 46, 82
9, 343080, Control_c, 9, 7, 107
9, 343196, Note_off_c, 9, 46, 80
9, 343200, Note_on_c, 9, 36, 102
9, 343200, Note_on_c, 9, 40, 104
9, 343200, Note_on_c, 9, 44, 90
9, 343320, Control_c, 9, 7, 106
9, 343436, Note_off_c, 9, 36, 80
9, 343436, Note_off_c, 9, 40, 80
9, 343436, Note_off_c, 9, 44, 80
9, 343440, Control_c, 9, 7, 105
9, 343440, Note_on_c, 9, 46, 82
9, 343560, Control_c, 9, 7, 104
9, 343676, Note_off_c, 9, 46, 80
9, 343680, Note_on_c, 9, 36, 102
9, 343680, Note_on_c, 9, 40, 104
9, 343680, Note_on_c, 9, 44, 90
9, 343800, Control_c, 9, 7, 103
9, 343916, Note_off_c, 9, 36, 80
9, 343916, Note_off_c, 9, 40, 80
9, 343916, Note_off_c, 9, 44, 80
9, 343920, Control_c, 9, 7, 102
9, 343920, Note_on_c, 9, 44, 90
9, 344040, Control_c, 9, 7, 101
9, 344156, Note_off_c, 9, 44, 80
9, 344160, Note_on_c, 9, 36, 102
9, 344160, Note_on_c, 9, 40, 104
9, 344160, Note_on_c, 9, 44, 90
9, 344280, Control_c, 9, 7, 100
9, 344396, Note_off_c, 9, 36, 80
9, 344396, Note_off_c, 9, 40, 80
9, 344396, Note_off_c, 9, 44, 80
9, 344400, Control_c, 9, 7, 99
9, 344400, Note_on_c, 9, 46, 82
9, 344520, Control_c, 9, 7, 98
9, 344636, Note_off_c, 9, 46, 80
9, 344640, Note_on_c, 9, 36, 102
9, 344640, Note_on_c, 9, 40, 104
9, 344640, Note_on_c, 9, 44, 90
9, 344760, Control_c, 9, 7, 97
9, 344876, Note_off_c, 9, 36, 80
9, 344876, Note_off_c, 9, 40, 80
9, 344876, Note_off_c, 9, 44, 80
9, 344880, Control_c, 9, 7, 96
9, 344880, Note_on_c, 9, 44, 90
9, 345116, Note_off_c, 9, 44, 80
9, 345120, Control_c, 9, 7, 95
9, 345120, Note_on_c, 9, 36, 102
9, 345120, Note_on_c, 9, 40, 104
9, 345120, Note_on_c, 9, 44, 90
9, 345240, Control_c, 9, 7, 94
9, 345356, Note_off_c, 9, 36, 80
9, 345356, Note_off_c, 9, 40, 80
9, 345356, Note_off_c, 9, 44, 80
9, 345360, Control_c, 9, 7, 93
9, 345360, Note_on_c, 9, 46, 82
9, 345596, Note_off_c, 9, 46, 80
9, 345600, Control_c, 9, 7, 92
9, 345600, Note_on_c, 9, 36, 102
9, 345600, Note_on_c, 9, 40, 104
9, 345600, Note_on_c, 9, 44, 90
9, 345720, Control_c, 9, 7, 91
9, 345836, Note_off_c, 9, 36, 80
9, 345836, Note_off_c, 9, 40, 80
9, 345836, Note_off_c, 9, 44, 80
9, 345840, Control_c, 9, 7, 90
9, 345840, Note_on_c, 9, 44, 90
9, 346076, Note_off_c, 9, 44, 80
9, 346080, Control_c, 9, 7, 89
9, 346080, Note_on_c, 9, 36, 102
9, 346080, Note_on_c, 9, 40, 104
9, 346080, Note_on_c, 9, 44, 90
9, 346200, Control_c, 9, 7, 88
9, 346316, Note_off_c, 9, 36, 80
9, 346316, Note_off_c, 9, 40, 80
9, 346316, Note_off_c, 9, 44, 80
9, 346320, Control_c, 9, 7, 87
9, 346320, Note_on_c, 9, 44, 90
9, 346556, Note_off_c, 9, 44, 80
9, 346560, Control_c, 9, 7, 86
9, 346560, Note_on_c, 9, 36, 102
9, 346560, Note_on_c, 9, 40, 104
9, 346560, Note_on_c, 9, 44, 90
9, 346680, Control_c, 9, 7, 85
9, 346796, Note_off_c, 9, 36, 80
9, 346796, Note_off_c, 9, 40, 80
9, 346796, Note_off_c, 9, 44, 80
9, 346800, Control_c, 9, 7, 84
9, 346800, Note_on_c, 9, 46, 82
9, 347036, Note_off_c, 9, 46, 80
9, 347040, Control_c, 9, 7, 83
9, 347040, Note_on_c, 9, 36, 102
9, 347040, Note_on_c, 9, 40, 104
9, 347040, Note_on_c, 9, 44, 90
9, 347160, Control_c, 9, 7, 82
9, 347276, Note_off_c, 9, 36, 80
9, 347276, Note_off_c, 9, 40, 80
9, 347276, Note_off_c, 9, 44, 80
9, 347280, Control_c, 9, 7, 81
9, 347280, Note_on_c, 9, 46, 82
9, 347516, Note_off_c, 9, 46, 80
9, 347520, Control_c, 9, 7, 80
9, 347520, Control_c, 9, 7, 79
9, 347520, Note_on_c, 9, 36, 102
9, 347520, Note_on_c, 9, 40, 104
9, 347520, Note_on_c, 9, 44, 90
9, 347520, Note_on_c, 9, 49, 78
9, 347640, Control_c, 9, 7, 78
9, 347756, Note_off_c, 9, 36, 80
9, 347756, Note_off_c, 9, 40, 80
9, 347756, Note_off_c, 9, 44, 80
9, 347756, Note_off_c, 9, 49, 80
9, 347760, Control_c, 9, 7, 77
9, 347760, Note_on_c, 9, 44, 90
9, 347880, Control_c, 9, 7, 76
9, 347996, Note_off_c, 9, 44, 80
9, 348000, Control_c, 9, 7, 75
9, 348000, Note_on_c, 9, 36, 102
9, 348000, Note_on_c, 9, 40, 104
9, 348000, Note_on_c, 9, 44, 90
9, 348120, Control_c, 9, 7, 74
9, 348236, Note_off_c, 9, 36, 80
9, 348236, Note_off_c, 9, 40, 80
9, 348236, Note_off_c, 9, 44, 80
9, 348240, Control_c, 9, 7, 73
9, 348240, Note_on_c, 9, 44, 90
9, 348360, Control_c, 9, 7, 72
9, 348476, Note_off_c, 9, 44, 80
9, 348480, Control_c, 9, 7, 71
9, 348480, Note_on_c, 9, 36, 102
9, 348480, Note_on_c, 9, 40, 104
9, 348480, Note_on_c, 9, 44, 90
9, 348600, Control_c, 9, 7, 70
9, 348716, Note_off_c, 9, 36, 80
9, 348716, Note_off_c, 9, 40, 80
9, 348716, Note_off_c, 9, 44, 80
9, 348720, Control_c, 9, 7, 69
9, 348720, Note_on_c, 9, 46, 82
9, 348840, Control_c, 9, 7, 68
9, 348956, Note_off_c, 9, 46, 80
9, 348960, Control_c, 9, 7, 67
9, 348960, Note_on_c, 9, 36, 102
9, 348960, Note_on_c, 9, 40, 104
9, 348960, Note_on_c, 9, 44, 90
9, 349080, Control_c, 9, 7, 66
9, 349196, Note_off_c, 9, 36, 80
9, 349196, Note_off_c, 9, 40, 80
9, 349196, Note_off_c, 9, 44, 80
9, 349200, Control_c, 9, 7, 65
9, 349200, Note_on_c, 9, 44, 90
9, 349320, Control_c, 9, 7, 64
9, 349436, Note_off_c, 9, 44, 80
9, 349440, Control_c, 9, 7, 63
9, 349440, Note_on_c, 9, 36, 102
9, 349440, Note_on_c, 9, 40, 104
9, 349440, Note_on_c, 9, 44, 90
9, 349560, Control_c, 9, 7, 62
9, 349676, Note_off_c, 9, 36, 80
9, 349676, Note_off_c, 9, 40, 80
9, 349676, Note_off_c, 9, 44, 80
9, 349680, Control_c, 9, 7, 61
9, 349680, Note_on_c, 9, 46, 82
9, 349800, Control_c, 9, 7, 60
9, 349916, Note_off_c, 9, 46, 80
9, 349920, Control_c, 9, 7, 59
9, 349920, Note_on_c, 9, 36, 102
9, 349920, Note_on_c, 9, 40, 104
9, 349920, Note_on_c, 9, 44, 90
9, 350040, Control_c, 9, 7, 58
9, 350156, Note_off_c, 9, 36, 80
9, 350156, Note_off_c, 9, 40, 80
9, 350156, Note_off_c, 9, 44, 80
9, 350160, Control_c, 9, 7, 57
9, 350160, Note_on_c, 9, 44, 90
9, 350280, Control_c, 9, 7, 56
9, 350396, Note_off_c, 9, 44, 80
9, 350400, Control_c, 9, 7, 55
9, 350400, Note_on_c, 9, 36, 102
9, 350400, Note_on_c, 9, 40, 104
9, 350400, Note_on_c, 9, 44, 90
9, 350520, Control_c, 9, 7, 54
9, 350636, Note_off_c, 9, 36, 80
9, 350636, Note_off_c, 9, 40, 80
9, 350636, Note_off_c, 9, 44, 80
9, 350640, Control_c, 9, 7, 53
9, 350640, Note_on_c, 9, 46, 82
9, 350760, Control_c, 9, 7, 52
9, 350876, Note_off_c, 9, 46, 80
9, 350880, Control_c, 9, 7, 51
9, 350880, Note_on_c, 9, 36, 102
9, 350880, Note_on_c, 9, 40, 104
9, 350880, Note_on_c, 9, 44, 90
9, 351000, Control_c, 9, 7, 50
9, 351116, Note_off_c, 9, 36, 80
9, 351116, Note_off_c, 9, 40, 80
9, 351116, Note_off_c, 9, 44, 80
9, 351120, Control_c, 9, 7, 49
9, 351120, Note_on_c, 9, 46, 82
9, 351240, Control_c, 9, 7, 48
9, 351356, Note_off_c, 9, 46, 80
9, 351360, Note_on_c, 9, 36, 102
9, 351360, Note_on_c, 9, 40, 104
9, 351360, Note_on_c, 9, 44, 90
9, 351480, Control_c, 9, 7, 47
9, 351596, Note_off_c, 9, 36, 80
9, 351596, Note_off_c, 9, 40, 80
9, 351596, Note_off_c, 9, 44, 80
9, 351600, Control_c, 9, 7, 46
9, 351600, Note_on_c, 9, 44, 90
9, 351720, Control_c, 9, 7, 45
9, 351836, Note_off_c, 9, 44, 80
9, 351840, Control_c, 9, 7, 44
9, 351840, Note_on_c, 9, 36, 102
9, 351840, Note_on_c, 9, 40, 104
9, 351840, Note_on_c, 9, 44, 90
9, 351960, Control_c, 9, 7, 43
9, 352076, Note_off_c, 9, 36, 80
9, 352076, Note_off_c, 9, 40, 80
9, 352076, Note_off_c, 9, 44, 80
9, 352080, Control_c, 9, 7, 42
9, 352080, Note_on_c, 9, 46, 82
9, 352200, Control_c, 9, 7, 41
9, 352316, Note_off_c, 9, 46, 80
9, 352320, Control_c, 9, 7, 40
9, 352320, Note_on_c, 9, 36, 102
9, 352320, Note_on_c, 9, 40, 104
9, 352320, Note_on_c, 9, 44, 90
9, 352440, Control_c, 9, 7, 39
9, 352556, Note_off_c, 9, 36, 80
9, 352556, Note_off_c, 9, 40, 80
9, 352556, Note_off_c, 9, 44, 80
9, 352560, Control_c, 9, 7, 38
9, 352560, Note_on_c, 9, 44, 90
9, 352680, Control_c, 9, 7, 37
9, 352796, Note_off_c, 9, 44, 80
9, 352800, Control_c, 9, 7, 36
9, 352800, Note_on_c, 9, 36, 102
9, 352800, Note_on_c, 9, 40, 104
9, 352800, Note_on_c, 9, 44, 90
9, 352920, Control_c, 9, 7, 35
9, 353036, Note_off_c, 9, 36, 80
9, 353036, Note_off_c, 9, 40, 80
9, 353036, Note_off_c, 9, 44, 80
9, 353040, Control_c, 9, 7, 34
9, 353040, Note_on_c, 9, 46, 82
9, 353160, Control_c, 9, 7, 33
9, 353276, Note_off_c, 9, 46, 80
9, 353280, Control_c, 9, 7, 32
9, 353280, Note_on_c, 9, 36, 102
9, 353280, Note_on_c, 9, 40, 104
9, 353280, Note_on_c, 9, 44, 90
9, 353400, Control_c, 9, 7, 31
9, 353516, Note_off_c, 9, 36, 80
9, 353516, Note_off_c, 9, 40, 80
9, 353516, Note_off_c, 9, 44, 80
9, 353520, Control_c, 9, 7, 30
9, 353520, Note_on_c, 9, 44, 90
9, 353640, Control_c, 9, 7, 29
9, 353756, Note_off_c, 9, 44, 80
9, 353760, Control_c, 9, 7, 28
9, 353760, Note_on_c, 9, 36, 102
9, 353760, Note_on_c, 9, 40, 104
9, 353760, Note_on_c, 9, 44, 90
9, 353880, Control_c, 9, 7, 27
9, 353996, Note_off_c, 9, 36, 80
9, 353996, Note_off_c, 9, 40, 80
9, 353996, Note_off_c, 9, 44, 80
9, 354000, Control_c, 9, 7, 26
9, 354000, Note_on_c, 9, 44, 90
9, 354120, Control_c, 9, 7, 25
9, 354236, Note_off_c, 9, 44, 80
9, 354240, Control_c, 9, 7, 24
9, 354240, Note_on_c, 9, 36, 102
9, 354240, Note_on_c, 9, 40, 104
9, 354240, Note_on_c, 9, 44, 90
9, 354360, Control_c, 9, 7, 23
9, 354476, Note_off_c, 9, 36, 80
9, 354476, Note_off_c, 9, 40, 80
9, 354476, Note_off_c, 9, 44, 80
9, 354480, Control_c, 9, 7, 22
9, 354480, Note_on_c, 9, 46, 82
9, 354600, Control_c, 9, 7, 21
9, 354716, Note_off_c, 9, 46, 80
9, 354720, Control_c, 9, 7, 20
9, 354720, Note_on_c, 9, 36, 102
9, 354720, Note_on_c, 9, 40, 104
9, 354720, Note_on_c, 9, 44, 90
9, 354840, Control_c, 9, 7, 19
9, 354956, Note_off_c, 9, 36, 80
9, 354956, Note_off_c, 9, 40, 80
9, 354956, Note_off_c, 9, 44, 80
9, 354960, Control_c, 9, 7, 18
9, 354960, Note_on_c, 9, 46, 82
9, 355080, Control_c, 9, 7, 17
9, 355196, Note_off_c, 9, 46, 80
9, 355200, Control_c, 9, 7, 16
9, 355200, Control_c, 9, 7, 15
9, 355200, Note_on_c, 9, 36, 102
9, 355200, Note_on_c, 9, 40, 104
9, 355200, Note_on_c, 9, 44, 90
9, 355320, Control_c, 9, 7, 14
9, 355436, Note_off_c, 9, 36, 80
9, 355436, Note_off_c, 9, 40, 80
9, 355436, Note_off_c, 9, 44, 80
9, 355440, Control_c, 9, 7, 13
9, 355440, Note_on_c, 9, 44, 90
9, 355560, Control_c, 9, 7, 12
9, 355676, Note_off_c, 9, 44, 80
9, 355680, Control_c, 9, 7, 11
9, 355680, Note_on_c, 9, 36, 102
9, 355680, Note_on_c, 9, 40, 104
9, 355680, Note_on_c, 9, 44, 90
9, 355800, Control_c, 9, 7, 10
9, 355916, Note_off_c, 9, 36, 80
9, 355916, Note_off_c, 9, 40, 80
9, 355916, Note_off_c, 9, 44, 80
9, 355920, Control_c, 9, 7, 9
9, 355920, Note_on_c, 9, 44, 90
9, 356040, Control_c, 9, 7, 8
9, 356156, Note_off_c, 9, 44, 80
9, 356160, Note_on_c, 9, 36, 102
9, 356160, Note_on_c, 9, 40, 104
9, 356160, Note_on_c, 9, 44, 90
9, 356280, Control_c, 9, 7, 7
9, 356396, Note_off_c, 9, 36, 80
9, 356396, Note_off_c, 9, 40, 80
9, 356396, Note_off_c, 9, 44, 80
9, 356400, Control_c, 9, 7, 6
9, 356400, Note_on_c, 9, 46, 82
9, 356520, Control_c, 9, 7, 5
9, 356636, Note_off_c, 9, 46, 80
9, 356640, Control_c, 9, 7, 4
9, 356640, Note_on_c, 9, 36, 102
9, 356640, Note_on_c, 9, 40, 104
9, 356640, Note_on_c, 9, 44, 90
9, 356760, Control_c, 9, 7, 3
9, 356876, Note_off_c, 9, 36, 80
9, 356876, Note_off_c, 9, 40, 80
9, 356876, Note_off_c, 9, 44, 80
9, 356880, Control_c, 9, 7, 2
9, 356880, Note_on_c, 9, 44, 90
9, 357000, Control_c, 9, 7, 1
9, 357116, Note_off_c, 9, 44, 80
9, 357120, Control_c, 9, 7, 0
9, 357120, Note_on_c, 9, 36, 102
9, 357120, Note_on_c, 9, 40, 104
9, 357120, Note_on_c, 9, 44, 90
9, 357356, Note_off_c, 9, 36, 80
9, 357356, Note_off_c, 9, 40, 80
9, 357356, Note_off_c, 9, 44, 80
9, 357360, Note_on_c, 9, 46, 82
9, 357596, Note_off_c, 9, 46, 80
9, 357600, Note_on_c, 9, 36, 102
9, 357600, Note_on_c, 9, 40, 104
9, 357600, Note_on_c, 9, 44, 90
9, 357836, Note_off_c, 9, 36, 80
9, 357836, Note_off_c, 9, 40, 80
9, 357836, Note_off_c, 9, 44, 80
9, 357840, Note_on_c, 9, 44, 90
9, 358076, Note_off_c, 9, 44, 80
9, 358080, Note_on_c, 9, 36, 102
9, 358080, Note_on_c, 9, 40, 104
9, 358080, Note_on_c, 9, 44, 90
9, 358316, Note_off_c, 9, 36, 80
9, 358316, Note_off_c, 9, 40, 80
9, 358316, Note_off_c, 9, 44, 80
9, 358320, Note_on_c, 9, 46, 82
9, 358556, Note_off_c, 9, 46, 80
9, 358560, Note_on_c, 9, 36, 102
9, 358560, Note_on_c, 9, 40, 104
9, 358560, Note_on_c, 9, 44, 90
9, 358796, Note_off_c, 9, 36, 80
9, 358796, Note_off_c, 9, 40, 80
9, 358796, Note_off_c, 9, 44, 80
9, 358800, Note_on_c, 9, 46, 82
9, 359036, Note_off_c, 9, 46, 80
9, 359040, Note_on_c, 9, 36, 102
9, 359040, Note_on_c, 9, 40, 104
9, 359040, Note_on_c, 9, 44, 90
9, 359276, Note_off_c, 9, 36, 80
9, 359276, Note_off_c, 9, 40, 80
9, 359276, Note_off_c, 9, 44, 80
9, 359280, Note_on_c, 9, 44, 90
9, 359516, Note_off_c, 9, 44, 80
9, 359520, Note_on_c, 9, 36, 102
9, 359520, Note_on_c, 9, 40, 104
9, 359520, Note_on_c, 9, 44, 90
9, 359756, Note_off_c, 9, 36, 80
9, 359756, Note_off_c, 9, 40, 80
9, 359756, Note_off_c, 9, 44, 80
9, 359760, Note_on_c, 9, 46, 82
9, 359996, Note_off_c, 9, 46, 80
9, 360000, Note_on_c, 9, 36, 102
9, 360000, Note_on_c, 9, 40, 104
9, 360000, Note_on_c, 9, 44, 90
9, 360236, Note_off_c, 9, 36, 80
9, 360236, Note_off_c, 9, 40, 80
9, 360236, Note_off_c, 9, 44, 80
9, 360240, Note_on_c, 9, 44, 90
9, 360476, Note_off_c, 9, 44, 80
9, 360480, Note_on_c, 9, 36, 102
9, 360480, Note_on_c, 9, 40, 104
9, 360480, Note_on_c, 9, 44, 90
9, 360716, Note_off_c, 9, 36, 80
9, 360716, Note_off_c, 9, 40, 80
9, 360716, Note_off_c, 9, 44, 80
9, 360720, Note_on_c, 9, 46, 82
9, 360956, Note_off_c, 9, 46, 80
9, 360960, Note_on_c, 9, 36, 102
9, 360960, Note_on_c, 9, 40, 104
9, 360960, Note_on_c, 9, 44, 90
9, 361196, Note_off_c, 9, 36, 80
9, 361196, Note_off_c, 9, 40, 80
9, 361196, Note_off_c, 9, 44, 80
9, 361200, Note_on_c, 9, 44, 90
9, 361436, Note_off_c, 9, 44, 80
9, 361440, Note_on_c, 9, 36, 102
9, 361440, Note_on_c, 9, 40, 104
9, 361440, Note_on_c, 9, 44, 90
9, 361676, Note_off_c, 9, 36, 80
9, 361676, Note_off_c, 9, 40, 80
9, 361676, Note_off_c, 9, 44, 80
9, 361680, Note_on_c, 9, 44, 90
9, 361916, Note_off_c, 9, 44, 80
9, 361920, Note_on_c, 9, 36, 102
9, 361920, Note_on_c, 9, 40, 104
9, 361920, Note_on_c, 9, 44, 90
9, 362156, Note_off_c, 9, 36, 80
9, 362156, Note_off_c, 9, 40, 80
9, 362156, Note_off_c, 9, 44, 80
9, 362160, Note_on_c, 9, 46, 82
9, 362396, Note_off_c, 9, 46, 80
9, 362400, Note_on_c, 9, 36, 102
9, 362400, Note_on_c, 9, 40, 104
9, 362400, Note_on_c, 9, 44, 90
9, 362636, Note_off_c, 9, 36, 80
9, 362636, Note_off_c, 9, 40, 80
9, 362636, Note_off_c, 9, 44, 80
9, 362640, Note_on_c, 9, 46, 82
9, 362876, Note_off_c, 9, 46, 80
9, 362876, End_track
0, 0, End_of_file
