0, 0, Header, 1, 7, 480
1, 0, Start_track
1, 0, Tempo, 413793
1, 0, Title_t, ""
1, 0, Time_signature, 4, 2, 6, 80
1, 0, End_track
2, 0, Start_track
2, 0, Title_t, "gutar1"
2, 0, Control_c, 1, 100, 0
2, 0, Control_c, 1, 101, 0
2, 0, Control_c, 1, 6, 12
2, 0, Pitch_bend_c, 1, 8192
2, 0, Control_c, 1, 101, 0
2, 0, Control_c, 1, 100, 1
2, 0, Control_c, 1, 6, 64
2, 0, Control_c, 1, 38, 0
2, 0, Control_c, 1, 101, 127
2, 0, Control_c, 1, 100, 127
2, 0, Control_c, 0, 100, 0
2, 0, Control_c, 0, 101, 0
2, 0, Control_c, 0, 6, 12
2, 0, Pitch_bend_c, 0, 8192
2, 0, Control_c, 0, 101, 0
2, 0, Control_c, 0, 100, 1
2, 0, Control_c, 0, 6, 64
2, 0, Control_c, 0, 38, 0
2, 0, Control_c, 0, 101, 127
2, 0, Control_c, 0, 100, 127
2, 0, Control_c, 1, 101, 0
2, 0, Control_c, 1, 100, 2
2, 0, Control_c, 1, 6, 64
2, 0, Control_c, 1, 101, 127
2, 0, Control_c, 1, 100, 127
2, 0, Control_c, 0, 101, 0
2, 0, Control_c, 0, 100, 2
2, 0, Control_c, 0, 6, 64
2, 0, Control_c, 0, 101, 127
2, 0, Control_c, 0, 100, 127
2, 0, Program_c, 1, 29
2, 0, Program_c, 0, 29
2, 0, Control_c, 1, 0, 0
2, 0, Control_c, 0, 0, 0
2, 0, Control_c, 1, 7, 40
2, 0, Control_c, 0, 7, 40
2, 0, Control_c, 1, 10, 24
2, 0, Control_c, 0, 10, 24
2, 0, Control_c, 1, 93, 0
2, 0, Control_c, 0, 93, 0
2, 0, Control_c, 1, 91, 0
2, 0, Control_c, 0, 91, 0
2, 0, Control_c, 1, 92, 0
2, 0, Control_c, 0, 92, 0
2, 0, Control_c, 1, 95, 0
2, 0, Control_c, 0, 95, 0
2, 1920, Note_on_c, 0, 57, 95
2, 1920, Note_on_c, 0, 52, 95
2, 1920, Note_on_c, 0, 45, 95
2, 2160, Note_off_c, 0, 57, 80
2, 2160, Note_off_c, 0, 52, 80
2, 2160, Note_off_c, 0, 45, 80
2, 2160, Note_on_c, 0, 57, 95
2, 2160, Note_on_c, 0, 52, 95
2, 2160, Note_on_c, 0, 45, 95
2, 2400, Note_off_c, 0, 57, 80
2, 2400, Note_off_c, 0, 52, 80
2, 2400, Note_off_c, 0, 45, 80
2, 2400, Note_on_c, 0, 57, 95
2, 2400, Note_on_c, 0, 52, 95
2, 2400, Note_on_c, 0, 45, 95
2, 2640, Note_off_c, 0, 57, 80
2, 2640, Note_off_c, 0, 52, 80
2, 2640, Note_off_c, 0, 45, 80
2, 2640, Note_on_c, 0, 57, 95
2, 2640, Note_on_c, 0, 52, 95
2, 2640, Note_on_c, 0, 45, 95
2, 2880, Note_off_c, 0, 57, 80
2, 2880, Note_off_c, 0, 52, 80
2, 2880, Note_off_c, 0, 45, 80
2, 2880, Note_on_c, 0, 57, 95
2, 2880, Note_on_c, 0, 52, 95
2, 2880, Note_on_c, 0, 45, 95
2, 3120, Note_off_c, 0, 57, 80
2, 3120, Note_off_c, 0, 52, 80
2, 3120, Note_off_c, 0, 45, 80
2, 3120, Note_on_c, 0, 57, 95
2, 3120, Note_on_c, 0, 52, 95
2, 3120, Note_on_c, 0, 45, 95
2, 3360, Note_off_c, 0, 57, 80
2, 3360, Note_off_c, 0, 52, 80
2, 3360, Note_off_c, 0, 45, 80
2, 3360, Note_on_c, 0, 57, 95
2, 3360, Note_on_c, 0, 52, 95
2, 3360, Note_on_c, 0, 45, 95
2, 3600, Note_off_c, 0, 57, 80
2, 3600, Note_off_c, 0, 52, 80
2, 3600, Note_off_c, 0, 45, 80
2, 3600, Note_on_c, 0, 57, 95
2, 3600, Note_on_c, 0, 52, 95
2, 3600, Note_on_c, 0, 45, 95
2, 3840, Note_off_c, 0, 57, 80
2, 3840, Note_off_c, 0, 52, 80
2, 3840, Note_off_c, 0, 45, 80
2, 3840, Note_on_c, 0, 57, 95
2, 3840, Note_on_c, 0, 52, 95
2, 3840, Note_on_c, 0, 45, 95
2, 4080, Note_off_c, 0, 57, 80
2, 4080, Note_off_c, 0, 52, 80
2, 4080, Note_off_c, 0, 45, 80
2, 4080, Note_on_c, 0, 57, 95
2, 4080, Note_on_c, 0, 52, 95
2, 4080, Note_on_c, 0, 45, 95
2, 4320, Note_off_c, 0, 57, 80
2, 4320, Note_off_c, 0, 52, 80
2, 4320, Note_off_c, 0, 45, 80
2, 4320, Note_on_c, 0, 57, 95
2, 4320, Note_on_c, 0, 52, 95
2, 4320, Note_on_c, 0, 45, 95
2, 4560, Note_off_c, 0, 57, 80
2, 4560, Note_off_c, 0, 52, 80
2, 4560, Note_off_c, 0, 45, 80
2, 4560, Note_on_c, 0, 57, 95
2, 4560, Note_on_c, 0, 52, 95
2, 4560, Note_on_c, 0, 45, 95
2, 4800, Note_off_c, 0, 57, 80
2, 4800, Note_off_c, 0, 52, 80
2, 4800, Note_off_c, 0, 45, 80
2, 4800, Note_on_c, 0, 57, 95
2, 4800, Note_on_c, 0, 52, 95
2, 4800, Note_on_c, 0, 45, 95
2, 5040, Note_off_c, 0, 57, 80
2, 5040, Note_off_c, 0, 52, 80
2, 5040, Note_off_c, 0, 45, 80
2, 5040, Note_on_c, 0, 57, 95
2, 5040, Note_on_c, 0, 52, 95
2, 5040, Note_on_c, 0, 45, 95
2, 5280, Note_off_c, 0, 57, 80
2, 5280, Note_off_c, 0, 52, 80
2, 5280, Note_off_c, 0, 45, 80
2, 5280, Note_on_c, 0, 57, 95
2, 5280, Note_on_c, 0, 52, 95
2, 5280, Note_on_c, 0, 45, 95
2, 5520, Note_off_c, 0, 57, 80
2, 5520, Note_off_c, 0, 52, 80
2, 5520, Note_off_c, 0, 45, 80
2, 5520, Note_on_c, 0, 57, 95
2, 5520, Note_on_c, 0, 52, 95
2, 5520, Note_on_c, 0, 45, 95
2, 5760, Note_off_c, 0, 57, 80
2, 5760, Note_off_c, 0, 52, 80
2, 5760, Note_off_c, 0, 45, 80
2, 5760, Note_on_c, 0, 57, 95
2, 5760, Note_on_c, 0, 52, 95
2, 5760, Note_on_c, 0, 45, 95
2, 6000, Note_off_c, 0, 57, 80
2, 6000, Note_off_c, 0, 52, 80
2, 6000, Note_off_c, 0, 45, 80
2, 6000, Note_on_c, 0, 57, 95
2, 6000, Note_on_c, 0, 52, 95
2, 6000, Note_on_c, 0, 45, 95
2, 6240, Note_off_c, 0, 57, 80
2, 6240, Note_off_c, 0, 52, 80
2, 6240, Note_off_c, 0, 45, 80
2, 6240, Note_on_c, 0, 57, 95
2, 6240, Note_on_c, 0, 52, 95
2, 6240, Note_on_c, 0, 45, 95
2, 6480, Note_off_c, 0, 57, 80
2, 6480, Note_off_c, 0, 52, 80
2, 6480, Note_off_c, 0, 45, 80
2, 6480, Note_on_c, 0, 57, 95
2, 6480, Note_on_c, 0, 52, 95
2, 6480, Note_on_c, 0, 45, 95
2, 6720, Note_off_c, 0, 57, 80
2, 6720, Note_off_c, 0, 52, 80
2, 6720, Note_off_c, 0, 45, 80
2, 6720, Note_on_c, 0, 57, 95
2, 6720, Note_on_c, 0, 52, 95
2, 6720, Note_on_c, 0, 45, 95
2, 6960, Note_off_c, 0, 57, 80
2, 6960, Note_off_c, 0, 52, 80
2, 6960, Note_off_c, 0, 45, 80
2, 6960, Note_on_c, 0, 57, 95
2, 6960, Note_on_c, 0, 52, 95
2, 6960, Note_on_c, 0, 45, 95
2, 7200, Note_off_c, 0, 57, 80
2, 7200, Note_off_c, 0, 52, 80
2, 7200, Note_off_c, 0, 45, 80
2, 7200, Note_on_c, 0, 57, 95
2, 7200, Note_on_c, 0, 52, 95
2, 7200, Note_on_c, 0, 45, 95
2, 7440, Note_off_c, 0, 57, 80
2, 7440, Note_off_c, 0, 52, 80
2, 7440, Note_off_c, 0, 45, 80
2, 7440, Note_on_c, 0, 57, 95
2, 7440, Note_on_c, 0, 52, 95
2, 7440, Note_on_c, 0, 45, 95
2, 7680, Note_off_c, 0, 57, 80
2, 7680, Note_off_c, 0, 52, 80
2, 7680, Note_off_c, 0, 45, 80
2, 7680, Note_on_c, 0, 63, 95
2, 7680, Note_on_c, 0, 58, 95
2, 7680, Note_on_c, 0, 51, 95
2, 7920, Note_off_c, 0, 63, 80
2, 7920, Note_off_c, 0, 58, 80
2, 7920, Note_off_c, 0, 51, 80
2, 8160, Note_on_c, 0, 63, 95
2, 8160, Note_on_c, 0, 58, 95
2, 8160, Note_on_c, 0, 51, 95
2, 8400, Note_off_c, 0, 63, 80
2, 8400, Note_off_c, 0, 58, 80
2, 8400, Note_off_c, 0, 51, 80
2, 8640, Note_on_c, 0, 63, 95
2, 8640, Note_on_c, 0, 58, 95
2, 8640, Note_on_c, 0, 51, 95
2, 8760, Note_off_c, 0, 63, 80
2, 8760, Note_off_c, 0, 58, 80
2, 8760, Note_off_c, 0, 51, 80
2, 8760, Note_on_c, 0, 63, 95
2, 8760, Note_on_c, 0, 58, 95
2, 8760, Note_on_c, 0, 51, 95
2, 8880, Note_off_c, 0, 63, 80
2, 8880, Note_off_c, 0, 58, 80
2, 8880, Note_off_c, 0, 51, 80
2, 8880, Note_on_c, 0, 63, 95
2, 8880, Note_on_c, 0, 58, 95
2, 8880, Note_on_c, 0, 51, 95
2, 9000, Note_off_c, 0, 63, 80
2, 9000, Note_off_c, 0, 58, 80
2, 9000, Note_off_c, 0, 51, 80
2, 9000, Note_on_c, 0, 63, 95
2, 9000, Note_on_c, 0, 58, 95
2, 9000, Note_on_c, 0, 51, 95
2, 9120, Note_off_c, 0, 63, 80
2, 9120, Note_off_c, 0, 58, 80
2, 9120, Note_off_c, 0, 51, 80
2, 9120, Note_on_c, 0, 63, 95
2, 9120, Note_on_c, 0, 58, 95
2, 9120, Note_on_c, 0, 51, 95
2, 9240, Note_off_c, 0, 63, 80
2, 9240, Note_off_c, 0, 58, 80
2, 9240, Note_off_c, 0, 51, 80
2, 9240, Note_on_c, 0, 63, 95
2, 9240, Note_on_c, 0, 58, 95
2, 9240, Note_on_c, 0, 51, 95
2, 9360, Note_off_c, 0, 63, 80
2, 9360, Note_off_c, 0, 58, 80
2, 9360, Note_off_c, 0, 51, 80
2, 9360, Note_on_c, 0, 63, 95
2, 9360, Note_on_c, 0, 58, 95
2, 9360, Note_on_c, 0, 51, 95
2, 9480, Note_off_c, 0, 63, 80
2, 9480, Note_off_c, 0, 58, 80
2, 9480, Note_off_c, 0, 51, 80
2, 9480, Note_on_c, 0, 63, 95
2, 9480, Note_on_c, 0, 58, 95
2, 9480, Note_on_c, 0, 51, 95
2, 9600, Note_off_c, 0, 63, 80
2, 9600, Note_off_c, 0, 58, 80
2, 9600, Note_off_c, 0, 51, 80
2, 9600, Note_on_c, 0, 57, 95
2, 9600, Note_on_c, 0, 52, 95
2, 9600, Note_on_c, 0, 45, 95
2, 9840, Note_off_c, 0, 57, 80
2, 9840, Note_off_c, 0, 52, 80
2, 9840, Note_off_c, 0, 45, 80
2, 9840, Note_on_c, 0, 57, 95
2, 9840, Note_on_c, 0, 52, 95
2, 9840, Note_on_c, 0, 45, 95
2, 10080, Note_off_c, 0, 57, 80
2, 10080, Note_off_c, 0, 52, 80
2, 10080, Note_off_c, 0, 45, 80
2, 10080, Note_on_c, 0, 57, 95
2, 10080, Note_on_c, 0, 52, 95
2, 10080, Note_on_c, 0, 45, 95
2, 10320, Note_off_c, 0, 57, 80
2, 10320, Note_off_c, 0, 52, 80
2, 10320, Note_off_c, 0, 45, 80
2, 10320, Note_on_c, 0, 57, 95
2, 10320, Note_on_c, 0, 52, 95
2, 10320, Note_on_c, 0, 45, 95
2, 10560, Note_off_c, 0, 57, 80
2, 10560, Note_off_c, 0, 52, 80
2, 10560, Note_off_c, 0, 45, 80
2, 10560, Note_on_c, 0, 57, 95
2, 10560, Note_on_c, 0, 52, 95
2, 10560, Note_on_c, 0, 45, 95
2, 10800, Note_off_c, 0, 57, 80
2, 10800, Note_off_c, 0, 52, 80
2, 10800, Note_off_c, 0, 45, 80
2, 10800, Note_on_c, 0, 57, 95
2, 10800, Note_on_c, 0, 52, 95
2, 10800, Note_on_c, 0, 45, 95
2, 11040, Note_off_c, 0, 57, 80
2, 11040, Note_off_c, 0, 52, 80
2, 11040, Note_off_c, 0, 45, 80
2, 11040, Note_on_c, 0, 57, 95
2, 11040, Note_on_c, 0, 52, 95
2, 11040, Note_on_c, 0, 45, 95
2, 11280, Note_off_c, 0, 57, 80
2, 11280, Note_off_c, 0, 52, 80
2, 11280, Note_off_c, 0, 45, 80
2, 11280, Note_on_c, 0, 57, 95
2, 11280, Note_on_c, 0, 52, 95
2, 11280, Note_on_c, 0, 45, 95
2, 11520, Note_off_c, 0, 57, 80
2, 11520, Note_off_c, 0, 52, 80
2, 11520, Note_off_c, 0, 45, 80
2, 11520, Note_on_c, 0, 57, 95
2, 11520, Note_on_c, 0, 52, 95
2, 11520, Note_on_c, 0, 45, 95
2, 11760, Note_off_c, 0, 57, 80
2, 11760, Note_off_c, 0, 52, 80
2, 11760, Note_off_c, 0, 45, 80
2, 11760, Note_on_c, 0, 57, 95
2, 11760, Note_on_c, 0, 52, 95
2, 11760, Note_on_c, 0, 45, 95
2, 12000, Note_off_c, 0, 57, 80
2, 12000, Note_off_c, 0, 52, 80
2, 12000, Note_off_c, 0, 45, 80
2, 12000, Note_on_c, 0, 57, 95
2, 12000, Note_on_c, 0, 52, 95
2, 12000, Note_on_c, 0, 45, 95
2, 12240, Note_off_c, 0, 57, 80
2, 12240, Note_off_c, 0, 52, 80
2, 12240, Note_off_c, 0, 45, 80
2, 12240, Note_on_c, 0, 57, 95
2, 12240, Note_on_c, 0, 52, 95
2, 12240, Note_on_c, 0, 45, 95
2, 12480, Note_off_c, 0, 57, 80
2, 12480, Note_off_c, 0, 52, 80
2, 12480, Note_off_c, 0, 45, 80
2, 12480, Note_on_c, 0, 57, 95
2, 12480, Note_on_c, 0, 52, 95
2, 12480, Note_on_c, 0, 45, 95
2, 12720, Note_off_c, 0, 57, 80
2, 12720, Note_off_c, 0, 52, 80
2, 12720, Note_off_c, 0, 45, 80
2, 12720, Note_on_c, 0, 57, 95
2, 12720, Note_on_c, 0, 52, 95
2, 12720, Note_on_c, 0, 45, 95
2, 12960, Note_off_c, 0, 57, 80
2, 12960, Note_off_c, 0, 52, 80
2, 12960, Note_off_c, 0, 45, 80
2, 12960, Note_on_c, 0, 57, 95
2, 12960, Note_on_c, 0, 52, 95
2, 12960, Note_on_c, 0, 45, 95
2, 13200, Note_off_c, 0, 57, 80
2, 13200, Note_off_c, 0, 52, 80
2, 13200, Note_off_c, 0, 45, 80
2, 13200, Note_on_c, 0, 57, 95
2, 13200, Note_on_c, 0, 52, 95
2, 13200, Note_on_c, 0, 45, 95
2, 13440, Note_off_c, 0, 57, 80
2, 13440, Note_off_c, 0, 52, 80
2, 13440, Note_off_c, 0, 45, 80
2, 13440, Note_on_c, 0, 57, 95
2, 13440, Note_on_c, 0, 52, 95
2, 13440, Note_on_c, 0, 45, 95
2, 13680, Note_off_c, 0, 57, 80
2, 13680, Note_off_c, 0, 52, 80
2, 13680, Note_off_c, 0, 45, 80
2, 13680, Note_on_c, 0, 57, 95
2, 13680, Note_on_c, 0, 52, 95
2, 13680, Note_on_c, 0, 45, 95
2, 13920, Note_off_c, 0, 57, 80
2, 13920, Note_off_c, 0, 52, 80
2, 13920, Note_off_c, 0, 45, 80
2, 13920, Note_on_c, 0, 57, 95
2, 13920, Note_on_c, 0, 52, 95
2, 13920, Note_on_c, 0, 45, 95
2, 14160, Note_off_c, 0, 57, 80
2, 14160, Note_off_c, 0, 52, 80
2, 14160, Note_off_c, 0, 45, 80
2, 14160, Note_on_c, 0, 57, 95
2, 14160, Note_on_c, 0, 52, 95
2, 14160, Note_on_c, 0, 45, 95
2, 14400, Note_off_c, 0, 57, 80
2, 14400, Note_off_c, 0, 52, 80
2, 14400, Note_off_c, 0, 45, 80
2, 14400, Note_on_c, 0, 57, 95
2, 14400, Note_on_c, 0, 52, 95
2, 14400, Note_on_c, 0, 45, 95
2, 14640, Note_off_c, 0, 57, 80
2, 14640, Note_off_c, 0, 52, 80
2, 14640, Note_off_c, 0, 45, 80
2, 14640, Note_on_c, 0, 57, 95
2, 14640, Note_on_c, 0, 52, 95
2, 14640, Note_on_c, 0, 45, 95
2, 14880, Note_off_c, 0, 57, 80
2, 14880, Note_off_c, 0, 52, 80
2, 14880, Note_off_c, 0, 45, 80
2, 14880, Note_on_c, 0, 57, 95
2, 14880, Note_on_c, 0, 52, 95
2, 14880, Note_on_c, 0, 45, 95
2, 15120, Note_off_c, 0, 57, 80
2, 15120, Note_off_c, 0, 52, 80
2, 15120, Note_off_c, 0, 45, 80
2, 15120, Note_on_c, 0, 57, 95
2, 15120, Note_on_c, 0, 52, 95
2, 15120, Note_on_c, 0, 45, 95
2, 15360, Note_off_c, 0, 57, 80
2, 15360, Note_off_c, 0, 52, 80
2, 15360, Note_off_c, 0, 45, 80
2, 15360, Note_on_c, 0, 63, 95
2, 15360, Note_on_c, 0, 58, 95
2, 15360, Note_on_c, 0, 51, 95
2, 15600, Note_off_c, 0, 63, 80
2, 15600, Note_off_c, 0, 58, 80
2, 15600, Note_off_c, 0, 51, 80
2, 15840, Note_on_c, 0, 63, 95
2, 15840, Note_on_c, 0, 58, 95
2, 15840, Note_on_c, 0, 51, 95
2, 16080, Note_off_c, 0, 63, 80
2, 16080, Note_off_c, 0, 58, 80
2, 16080, Note_off_c, 0, 51, 80
2, 16320, Note_on_c, 0, 63, 95
2, 16320, Note_on_c, 0, 58, 95
2, 16320, Note_on_c, 0, 51, 95
2, 16440, Note_off_c, 0, 63, 80
2, 16440, Note_off_c, 0, 58, 80
2, 16440, Note_off_c, 0, 51, 80
2, 16440, Note_on_c, 0, 63, 95
2, 16440, Note_on_c, 0, 58, 95
2, 16440, Note_on_c, 0, 51, 95
2, 16560, Note_off_c, 0, 63, 80
2, 16560, Note_off_c, 0, 58, 80
2, 16560, Note_off_c, 0, 51, 80
2, 16560, Note_on_c, 0, 63, 95
2, 16560, Note_on_c, 0, 58, 95
2, 16560, Note_on_c, 0, 51, 95
2, 16680, Note_off_c, 0, 63, 80
2, 16680, Note_off_c, 0, 58, 80
2, 16680, Note_off_c, 0, 51, 80
2, 16680, Note_on_c, 0, 63, 95
2, 16680, Note_on_c, 0, 58, 95
2, 16680, Note_on_c, 0, 51, 95
2, 16800, Note_off_c, 0, 63, 80
2, 16800, Note_off_c, 0, 58, 80
2, 16800, Note_off_c, 0, 51, 80
2, 16800, Note_on_c, 0, 63, 95
2, 16800, Note_on_c, 0, 58, 95
2, 16800, Note_on_c, 0, 51, 95
2, 16920, Note_off_c, 0, 63, 80
2, 16920, Note_off_c, 0, 58, 80
2, 16920, Note_off_c, 0, 51, 80
2, 16920, Note_on_c, 0, 63, 95
2, 16920, Note_on_c, 0, 58, 95
2, 16920, Note_on_c, 0, 51, 95
2, 17040, Note_off_c, 0, 63, 80
2, 17040, Note_off_c, 0, 58, 80
2, 17040, Note_off_c, 0, 51, 80
2, 17040, Note_on_c, 0, 63, 95
2, 17040, Note_on_c, 0, 58, 95
2, 17040, Note_on_c, 0, 51, 95
2, 17160, Note_off_c, 0, 63, 80
2, 17160, Note_off_c, 0, 58, 80
2, 17160, Note_off_c, 0, 51, 80
2, 17160, Note_on_c, 0, 63, 95
2, 17160, Note_on_c, 0, 58, 95
2, 17160, Note_on_c, 0, 51, 95
2, 17280, Note_off_c, 0, 63, 80
2, 17280, Note_off_c, 0, 58, 80
2, 17280, Note_off_c, 0, 51, 80
2, 17280, Note_on_c, 0, 57, 95
2, 17280, Note_on_c, 0, 52, 95
2, 17280, Note_on_c, 0, 45, 95
2, 17520, Note_off_c, 0, 57, 80
2, 17520, Note_off_c, 0, 52, 80
2, 17520, Note_off_c, 0, 45, 80
2, 17520, Note_on_c, 0, 57, 95
2, 17520, Note_on_c, 0, 52, 95
2, 17520, Note_on_c, 0, 45, 95
2, 17760, Note_off_c, 0, 57, 80
2, 17760, Note_off_c, 0, 52, 80
2, 17760, Note_off_c, 0, 45, 80
2, 17760, Note_on_c, 0, 57, 95
2, 17760, Note_on_c, 0, 52, 95
2, 17760, Note_on_c, 0, 45, 95
2, 18000, Note_off_c, 0, 57, 80
2, 18000, Note_off_c, 0, 52, 80
2, 18000, Note_off_c, 0, 45, 80
2, 18000, Note_on_c, 0, 57, 95
2, 18000, Note_on_c, 0, 52, 95
2, 18000, Note_on_c, 0, 45, 95
2, 18240, Note_off_c, 0, 57, 80
2, 18240, Note_off_c, 0, 52, 80
2, 18240, Note_off_c, 0, 45, 80
2, 18240, Note_on_c, 0, 57, 95
2, 18240, Note_on_c, 0, 52, 95
2, 18240, Note_on_c, 0, 45, 95
2, 18480, Note_off_c, 0, 57, 80
2, 18480, Note_off_c, 0, 52, 80
2, 18480, Note_off_c, 0, 45, 80
2, 18480, Note_on_c, 0, 57, 95
2, 18480, Note_on_c, 0, 52, 95
2, 18480, Note_on_c, 0, 45, 95
2, 18720, Note_off_c, 0, 57, 80
2, 18720, Note_off_c, 0, 52, 80
2, 18720, Note_off_c, 0, 45, 80
2, 18720, Note_on_c, 0, 57, 95
2, 18720, Note_on_c, 0, 52, 95
2, 18720, Note_on_c, 0, 45, 95
2, 18960, Note_off_c, 0, 57, 80
2, 18960, Note_off_c, 0, 52, 80
2, 18960, Note_off_c, 0, 45, 80
2, 18960, Note_on_c, 0, 57, 95
2, 18960, Note_on_c, 0, 52, 95
2, 18960, Note_on_c, 0, 45, 95
2, 19200, Note_off_c, 0, 57, 80
2, 19200, Note_off_c, 0, 52, 80
2, 19200, Note_off_c, 0, 45, 80
2, 19200, Note_on_c, 0, 57, 95
2, 19200, Note_on_c, 0, 52, 95
2, 19200, Note_on_c, 0, 45, 95
2, 19440, Note_off_c, 0, 57, 80
2, 19440, Note_off_c, 0, 52, 80
2, 19440, Note_off_c, 0, 45, 80
2, 19440, Note_on_c, 0, 57, 95
2, 19440, Note_on_c, 0, 52, 95
2, 19440, Note_on_c, 0, 45, 95
2, 19680, Note_off_c, 0, 57, 80
2, 19680, Note_off_c, 0, 52, 80
2, 19680, Note_off_c, 0, 45, 80
2, 19680, Note_on_c, 0, 57, 95
2, 19680, Note_on_c, 0, 52, 95
2, 19680, Note_on_c, 0, 45, 95
2, 19920, Note_off_c, 0, 57, 80
2, 19920, Note_off_c, 0, 52, 80
2, 19920, Note_off_c, 0, 45, 80
2, 19920, Note_on_c, 0, 57, 95
2, 19920, Note_on_c, 0, 52, 95
2, 19920, Note_on_c, 0, 45, 95
2, 20160, Note_off_c, 0, 57, 80
2, 20160, Note_off_c, 0, 52, 80
2, 20160, Note_off_c, 0, 45, 80
2, 20160, Note_on_c, 0, 57, 95
2, 20160, Note_on_c, 0, 52, 95
2, 20160, Note_on_c, 0, 45, 95
2, 20400, Note_off_c, 0, 57, 80
2, 20400, Note_off_c, 0, 52, 80
2, 20400, Note_off_c, 0, 45, 80
2, 20400, Note_on_c, 0, 57, 95
2, 20400, Note_on_c, 0, 52, 95
2, 20400, Note_on_c, 0, 45, 95
2, 20640, Note_off_c, 0, 57, 80
2, 20640, Note_off_c, 0, 52, 80
2, 20640, Note_off_c, 0, 45, 80
2, 20640, Note_on_c, 0, 57, 95
2, 20640, Note_on_c, 0, 52, 95
2, 20640, Note_on_c, 0, 45, 95
2, 20880, Note_off_c, 0, 57, 80
2, 20880, Note_off_c, 0, 52, 80
2, 20880, Note_off_c, 0, 45, 80
2, 20880, Note_on_c, 0, 57, 95
2, 20880, Note_on_c, 0, 52, 95
2, 20880, Note_on_c, 0, 45, 95
2, 21120, Note_off_c, 0, 57, 80
2, 21120, Note_off_c, 0, 52, 80
2, 21120, Note_off_c, 0, 45, 80
2, 21120, Note_on_c, 0, 57, 95
2, 21120, Note_on_c, 0, 52, 95
2, 21120, Note_on_c, 0, 45, 95
2, 21360, Note_off_c, 0, 57, 80
2, 21360, Note_off_c, 0, 52, 80
2, 21360, Note_off_c, 0, 45, 80
2, 21360, Note_on_c, 0, 57, 95
2, 21360, Note_on_c, 0, 52, 95
2, 21360, Note_on_c, 0, 45, 95
2, 21600, Note_off_c, 0, 57, 80
2, 21600, Note_off_c, 0, 52, 80
2, 21600, Note_off_c, 0, 45, 80
2, 21600, Note_on_c, 0, 57, 95
2, 21600, Note_on_c, 0, 52, 95
2, 21600, Note_on_c, 0, 45, 95
2, 21840, Note_off_c, 0, 57, 80
2, 21840, Note_off_c, 0, 52, 80
2, 21840, Note_off_c, 0, 45, 80
2, 21840, Note_on_c, 0, 57, 95
2, 21840, Note_on_c, 0, 52, 95
2, 21840, Note_on_c, 0, 45, 95
2, 22080, Note_off_c, 0, 57, 80
2, 22080, Note_off_c, 0, 52, 80
2, 22080, Note_off_c, 0, 45, 80
2, 22080, Note_on_c, 0, 57, 95
2, 22080, Note_on_c, 0, 52, 95
2, 22080, Note_on_c, 0, 45, 95
2, 22320, Note_off_c, 0, 57, 80
2, 22320, Note_off_c, 0, 52, 80
2, 22320, Note_off_c, 0, 45, 80
2, 22320, Note_on_c, 0, 57, 95
2, 22320, Note_on_c, 0, 52, 95
2, 22320, Note_on_c, 0, 45, 95
2, 22560, Note_off_c, 0, 57, 80
2, 22560, Note_off_c, 0, 52, 80
2, 22560, Note_off_c, 0, 45, 80
2, 22560, Note_on_c, 0, 57, 95
2, 22560, Note_on_c, 0, 52, 95
2, 22560, Note_on_c, 0, 45, 95
2, 22800, Note_off_c, 0, 57, 80
2, 22800, Note_off_c, 0, 52, 80
2, 22800, Note_off_c, 0, 45, 80
2, 22800, Note_on_c, 0, 57, 95
2, 22800, Note_on_c, 0, 52, 95
2, 22800, Note_on_c, 0, 45, 95
2, 23040, Note_off_c, 0, 57, 80
2, 23040, Note_off_c, 0, 52, 80
2, 23040, Note_off_c, 0, 45, 80
2, 23040, Note_on_c, 0, 63, 95
2, 23040, Note_on_c, 0, 58, 95
2, 23040, Note_on_c, 0, 51, 95
2, 23280, Note_off_c, 0, 63, 80
2, 23280, Note_off_c, 0, 58, 80
2, 23280, Note_off_c, 0, 51, 80
2, 23520, Note_on_c, 0, 63, 95
2, 23520, Note_on_c, 0, 58, 95
2, 23520, Note_on_c, 0, 51, 95
2, 23760, Note_off_c, 0, 63, 80
2, 23760, Note_off_c, 0, 58, 80
2, 23760, Note_off_c, 0, 51, 80
2, 24000, Note_on_c, 0, 63, 95
2, 24000, Note_on_c, 0, 58, 95
2, 24000, Note_on_c, 0, 51, 95
2, 24120, Note_off_c, 0, 63, 80
2, 24120, Note_off_c, 0, 58, 80
2, 24120, Note_off_c, 0, 51, 80
2, 24120, Note_on_c, 0, 63, 95
2, 24120, Note_on_c, 0, 58, 95
2, 24120, Note_on_c, 0, 51, 95
2, 24240, Note_off_c, 0, 63, 80
2, 24240, Note_off_c, 0, 58, 80
2, 24240, Note_off_c, 0, 51, 80
2, 24240, Note_on_c, 0, 63, 95
2, 24240, Note_on_c, 0, 58, 95
2, 24240, Note_on_c, 0, 51, 95
2, 24360, Note_off_c, 0, 63, 80
2, 24360, Note_off_c, 0, 58, 80
2, 24360, Note_off_c, 0, 51, 80
2, 24360, Note_on_c, 0, 63, 95
2, 24360, Note_on_c, 0, 58, 95
2, 24360, Note_on_c, 0, 51, 95
2, 24480, Note_off_c, 0, 63, 80
2, 24480, Note_off_c, 0, 58, 80
2, 24480, Note_off_c, 0, 51, 80
2, 24480, Note_on_c, 0, 63, 95
2, 24480, Note_on_c, 0, 58, 95
2, 24480, Note_on_c, 0, 51, 95
2, 24600, Note_off_c, 0, 63, 80
2, 24600, Note_off_c, 0, 58, 80
2, 24600, Note_off_c, 0, 51, 80
2, 24600, Note_on_c, 0, 63, 95
2, 24600, Note_on_c, 0, 58, 95
2, 24600, Note_on_c, 0, 51, 95
2, 24720, Note_off_c, 0, 63, 80
2, 24720, Note_off_c, 0, 58, 80
2, 24720, Note_off_c, 0, 51, 80
2, 24720, Note_on_c, 0, 63, 95
2, 24720, Note_on_c, 0, 58, 95
2, 24720, Note_on_c, 0, 51, 95
2, 24840, Note_off_c, 0, 63, 80
2, 24840, Note_off_c, 0, 58, 80
2, 24840, Note_off_c, 0, 51, 80
2, 24840, Note_on_c, 0, 63, 95
2, 24840, Note_on_c, 0, 58, 95
2, 24840, Note_on_c, 0, 51, 95
2, 24960, Note_off_c, 0, 63, 80
2, 24960, Note_off_c, 0, 58, 80
2, 24960, Note_off_c, 0, 51, 80
2, 24960, Note_on_c, 0, 57, 95
2, 24960, Note_on_c, 0, 52, 95
2, 24960, Note_on_c, 0, 45, 95
2, 25200, Note_off_c, 0, 57, 80
2, 25200, Note_off_c, 0, 52, 80
2, 25200, Note_off_c, 0, 45, 80
2, 25200, Note_on_c, 0, 57, 95
2, 25200, Note_on_c, 0, 52, 95
2, 25200, Note_on_c, 0, 45, 95
2, 25440, Note_off_c, 0, 57, 80
2, 25440, Note_off_c, 0, 52, 80
2, 25440, Note_off_c, 0, 45, 80
2, 25440, Note_on_c, 0, 57, 95
2, 25440, Note_on_c, 0, 52, 95
2, 25440, Note_on_c, 0, 45, 95
2, 25680, Note_off_c, 0, 57, 80
2, 25680, Note_off_c, 0, 52, 80
2, 25680, Note_off_c, 0, 45, 80
2, 25680, Note_on_c, 0, 57, 95
2, 25680, Note_on_c, 0, 52, 95
2, 25680, Note_on_c, 0, 45, 95
2, 25920, Note_off_c, 0, 57, 80
2, 25920, Note_off_c, 0, 52, 80
2, 25920, Note_off_c, 0, 45, 80
2, 25920, Note_on_c, 0, 57, 95
2, 25920, Note_on_c, 0, 52, 95
2, 25920, Note_on_c, 0, 45, 95
2, 26160, Note_off_c, 0, 57, 80
2, 26160, Note_off_c, 0, 52, 80
2, 26160, Note_off_c, 0, 45, 80
2, 26160, Note_on_c, 0, 57, 95
2, 26160, Note_on_c, 0, 52, 95
2, 26160, Note_on_c, 0, 45, 95
2, 26400, Note_off_c, 0, 57, 80
2, 26400, Note_off_c, 0, 52, 80
2, 26400, Note_off_c, 0, 45, 80
2, 26400, Note_on_c, 0, 57, 95
2, 26400, Note_on_c, 0, 52, 95
2, 26400, Note_on_c, 0, 45, 95
2, 26640, Note_off_c, 0, 57, 80
2, 26640, Note_off_c, 0, 52, 80
2, 26640, Note_off_c, 0, 45, 80
2, 26640, Note_on_c, 0, 57, 95
2, 26640, Note_on_c, 0, 52, 95
2, 26640, Note_on_c, 0, 45, 95
2, 26880, Note_off_c, 0, 57, 80
2, 26880, Note_off_c, 0, 52, 80
2, 26880, Note_off_c, 0, 45, 80
2, 57600, Note_on_c, 0, 57, 95
2, 57600, Note_on_c, 0, 52, 95
2, 57600, Note_on_c, 0, 45, 95
2, 58080, Note_off_c, 0, 57, 80
2, 58080, Note_off_c, 0, 52, 80
2, 58080, Note_off_c, 0, 45, 80
2, 58080, Note_on_c, 0, 57, 95
2, 58080, Note_on_c, 0, 52, 95
2, 58080, Note_on_c, 0, 45, 95
2, 58440, Note_off_c, 0, 57, 80
2, 58440, Note_off_c, 0, 52, 80
2, 58440, Note_off_c, 0, 45, 80
2, 58440, Note_on_c, 0, 57, 95
2, 58440, Note_on_c, 0, 52, 95
2, 58440, Note_on_c, 0, 45, 95
2, 58559, Note_off_c, 0, 57, 80
2, 58559, Note_off_c, 0, 52, 80
2, 58559, Note_off_c, 0, 45, 80
2, 58560, Note_on_c, 0, 55, 95
2, 58560, Note_on_c, 0, 50, 95
2, 58560, Note_on_c, 0, 43, 95
2, 58800, Note_off_c, 0, 55, 80
2, 58800, Note_off_c, 0, 50, 80
2, 58800, Note_off_c, 0, 43, 80
2, 58800, Note_on_c, 0, 55, 95
2, 58800, Note_on_c, 0, 50, 95
2, 58800, Note_on_c, 0, 43, 95
2, 59040, Note_off_c, 0, 55, 80
2, 59040, Note_off_c, 0, 50, 80
2, 59040, Note_off_c, 0, 43, 80
2, 59040, Note_on_c, 0, 55, 95
2, 59040, Note_on_c, 0, 50, 95
2, 59040, Note_on_c, 0, 43, 95
2, 59280, Note_off_c, 0, 55, 80
2, 59280, Note_off_c, 0, 50, 80
2, 59280, Note_off_c, 0, 43, 80
2, 59280, Note_on_c, 0, 55, 95
2, 59280, Note_on_c, 0, 50, 95
2, 59280, Note_on_c, 0, 43, 95
2, 59520, Note_off_c, 0, 55, 80
2, 59520, Note_off_c, 0, 50, 80
2, 59520, Note_off_c, 0, 43, 80
2, 59520, Note_on_c, 0, 52, 95
2, 59520, Note_on_c, 0, 47, 95
2, 59520, Note_on_c, 0, 40, 95
2, 60000, Note_off_c, 0, 52, 80
2, 60000, Note_off_c, 0, 47, 80
2, 60000, Note_off_c, 0, 40, 80
2, 60000, Note_on_c, 0, 52, 95
2, 60000, Note_on_c, 0, 47, 95
2, 60000, Note_on_c, 0, 40, 95
2, 60480, Note_off_c, 0, 52, 80
2, 60480, Note_off_c, 0, 47, 80
2, 60480, Note_off_c, 0, 40, 80
2, 60480, Note_on_c, 0, 57, 95
2, 60720, Note_off_c, 0, 57, 80
2, 60720, Note_on_c, 0, 57, 76
2, 60840, Note_off_c, 0, 57, 80
2, 60840, Note_on_c, 0, 55, 95
2, 60960, Note_off_c, 0, 55, 80
2, 60960, Note_on_c, 0, 55, 76
2, 61200, Note_off_c, 0, 55, 80
2, 61200, Note_on_c, 0, 52, 95
2, 61440, Note_off_c, 0, 52, 80
2, 61440, Note_on_c, 0, 57, 95
2, 61440, Note_on_c, 0, 52, 95
2, 61440, Note_on_c, 0, 45, 95
2, 61920, Note_off_c, 0, 57, 80
2, 61920, Note_off_c, 0, 52, 80
2, 61920, Note_off_c, 0, 45, 80
2, 61920, Note_on_c, 0, 57, 95
2, 61920, Note_on_c, 0, 52, 95
2, 61920, Note_on_c, 0, 45, 95
2, 62280, Note_off_c, 0, 57, 80
2, 62280, Note_off_c, 0, 52, 80
2, 62280, Note_off_c, 0, 45, 80
2, 62280, Note_on_c, 0, 57, 95
2, 62280, Note_on_c, 0, 52, 95
2, 62280, Note_on_c, 0, 45, 95
2, 62399, Note_off_c, 0, 57, 80
2, 62399, Note_off_c, 0, 52, 80
2, 62399, Note_off_c, 0, 45, 80
2, 62400, Note_on_c, 0, 55, 95
2, 62400, Note_on_c, 0, 50, 95
2, 62400, Note_on_c, 0, 43, 95
2, 62640, Note_off_c, 0, 55, 80
2, 62640, Note_off_c, 0, 50, 80
2, 62640, Note_off_c, 0, 43, 80
2, 62640, Note_on_c, 0, 55, 95
2, 62640, Note_on_c, 0, 50, 95
2, 62640, Note_on_c, 0, 43, 95
2, 62880, Note_off_c, 0, 55, 80
2, 62880, Note_off_c, 0, 50, 80
2, 62880, Note_off_c, 0, 43, 80
2, 62880, Note_on_c, 0, 55, 95
2, 62880, Note_on_c, 0, 50, 95
2, 62880, Note_on_c, 0, 43, 95
2, 63120, Note_off_c, 0, 55, 80
2, 63120, Note_off_c, 0, 50, 80
2, 63120, Note_off_c, 0, 43, 80
2, 63120, Note_on_c, 0, 55, 95
2, 63120, Note_on_c, 0, 50, 95
2, 63120, Note_on_c, 0, 43, 95
2, 63360, Note_off_c, 0, 55, 80
2, 63360, Note_off_c, 0, 50, 80
2, 63360, Note_off_c, 0, 43, 80
2, 63360, Note_on_c, 0, 52, 95
2, 63360, Note_on_c, 0, 47, 95
2, 63360, Note_on_c, 0, 40, 95
2, 63840, Note_off_c, 0, 52, 80
2, 63840, Note_off_c, 0, 47, 80
2, 63840, Note_off_c, 0, 40, 80
2, 63840, Note_on_c, 0, 52, 95
2, 63840, Note_on_c, 0, 47, 95
2, 63840, Note_on_c, 0, 40, 95
2, 64320, Note_off_c, 0, 52, 80
2, 64320, Note_off_c, 0, 47, 80
2, 64320, Note_off_c, 0, 40, 80
2, 64320, Note_on_c, 0, 57, 95
2, 64440, Note_off_c, 0, 57, 80
2, 64440, Note_on_c, 0, 57, 95
2, 64560, Note_off_c, 0, 57, 80
2, 64560, Note_on_c, 0, 55, 95
2, 64680, Note_off_c, 0, 55, 80
2, 64680, Note_on_c, 0, 57, 95
2, 64800, Note_off_c, 0, 57, 80
2, 64800, Note_on_c, 0, 60, 95
2, 65280, Note_off_c, 0, 60, 80
2, 65280, Note_on_c, 0, 57, 95
2, 65280, Note_on_c, 0, 52, 95
2, 65280, Note_on_c, 0, 45, 95
2, 65760, Note_off_c, 0, 57, 80
2, 65760, Note_off_c, 0, 52, 80
2, 65760, Note_off_c, 0, 45, 80
2, 65760, Note_on_c, 0, 57, 95
2, 65760, Note_on_c, 0, 52, 95
2, 65760, Note_on_c, 0, 45, 95
2, 66120, Note_off_c, 0, 57, 80
2, 66120, Note_off_c, 0, 52, 80
2, 66120, Note_off_c, 0, 45, 80
2, 66120, Note_on_c, 0, 57, 95
2, 66120, Note_on_c, 0, 52, 95
2, 66120, Note_on_c, 0, 45, 95
2, 66239, Note_off_c, 0, 57, 80
2, 66239, Note_off_c, 0, 52, 80
2, 66239, Note_off_c, 0, 45, 80
2, 66240, Note_on_c, 0, 55, 95
2, 66240, Note_on_c, 0, 50, 95
2, 66240, Note_on_c, 0, 43, 95
2, 66480, Note_off_c, 0, 55, 80
2, 66480, Note_off_c, 0, 50, 80
2, 66480, Note_off_c, 0, 43, 80
2, 66480, Note_on_c, 0, 55, 95
2, 66480, Note_on_c, 0, 50, 95
2, 66480, Note_on_c, 0, 43, 95
2, 66720, Note_off_c, 0, 55, 80
2, 66720, Note_off_c, 0, 50, 80
2, 66720, Note_off_c, 0, 43, 80
2, 66720, Note_on_c, 0, 55, 95
2, 66720, Note_on_c, 0, 50, 95
2, 66720, Note_on_c, 0, 43, 95
2, 66960, Note_off_c, 0, 55, 80
2, 66960, Note_off_c, 0, 50, 80
2, 66960, Note_off_c, 0, 43, 80
2, 66960, Note_on_c, 0, 55, 95
2, 66960, Note_on_c, 0, 50, 95
2, 66960, Note_on_c, 0, 43, 95
2, 67200, Note_off_c, 0, 55, 80
2, 67200, Note_off_c, 0, 50, 80
2, 67200, Note_off_c, 0, 43, 80
2, 67200, Note_on_c, 0, 52, 95
2, 67200, Note_on_c, 0, 47, 95
2, 67200, Note_on_c, 0, 40, 95
2, 67680, Note_off_c, 0, 52, 80
2, 67680, Note_off_c, 0, 47, 80
2, 67680, Note_off_c, 0, 40, 80
2, 67680, Note_on_c, 0, 52, 95
2, 67680, Note_on_c, 0, 47, 95
2, 67680, Note_on_c, 0, 40, 95
2, 67920, Note_off_c, 0, 52, 80
2, 67920, Note_off_c, 0, 47, 80
2, 67920, Note_off_c, 0, 40, 80
2, 67920, Note_on_c, 0, 62, 95
2, 68040, Note_off_c, 0, 62, 80
2, 68040, Note_on_c, 0, 62, 95
2, 68160, Note_off_c, 0, 62, 80
2, 68160, Note_on_c, 0, 62, 95
2, 68400, Note_off_c, 0, 62, 80
2, 68400, Note_on_c, 0, 62, 76
2, 68520, Note_off_c, 0, 62, 80
2, 68520, Note_on_c, 0, 60, 95
2, 68640, Note_off_c, 0, 60, 80
2, 68640, Note_on_c, 0, 60, 76
2, 68880, Note_off_c, 0, 60, 80
2, 68880, Note_on_c, 0, 57, 95
2, 69120, Note_off_c, 0, 57, 80
2, 69120, Note_on_c, 0, 57, 95
2, 69120, Note_on_c, 0, 52, 95
2, 69120, Note_on_c, 0, 45, 95
2, 69600, Note_off_c, 0, 57, 80
2, 69600, Note_off_c, 0, 52, 80
2, 69600, Note_off_c, 0, 45, 80
2, 69600, Note_on_c, 0, 57, 95
2, 69600, Note_on_c, 0, 52, 95
2, 69600, Note_on_c, 0, 45, 95
2, 69960, Note_off_c, 0, 57, 80
2, 69960, Note_off_c, 0, 52, 80
2, 69960, Note_off_c, 0, 45, 80
2, 69960, Note_on_c, 0, 57, 95
2, 69960, Note_on_c, 0, 52, 95
2, 69960, Note_on_c, 0, 45, 95
2, 70079, Note_off_c, 0, 57, 80
2, 70079, Note_off_c, 0, 52, 80
2, 70079, Note_off_c, 0, 45, 80
2, 70080, Note_on_c, 0, 55, 95
2, 70080, Note_on_c, 0, 50, 95
2, 70080, Note_on_c, 0, 43, 95
2, 70320, Note_off_c, 0, 55, 80
2, 70320, Note_off_c, 0, 50, 80
2, 70320, Note_off_c, 0, 43, 80
2, 70320, Note_on_c, 0, 55, 95
2, 70320, Note_on_c, 0, 50, 95
2, 70320, Note_on_c, 0, 43, 95
2, 70560, Note_off_c, 0, 55, 80
2, 70560, Note_off_c, 0, 50, 80
2, 70560, Note_off_c, 0, 43, 80
2, 70560, Note_on_c, 0, 55, 95
2, 70560, Note_on_c, 0, 50, 95
2, 70560, Note_on_c, 0, 43, 95
2, 70800, Note_off_c, 0, 55, 80
2, 70800, Note_off_c, 0, 50, 80
2, 70800, Note_off_c, 0, 43, 80
2, 70800, Note_on_c, 0, 55, 95
2, 70800, Note_on_c, 0, 50, 95
2, 70800, Note_on_c, 0, 43, 95
2, 71040, Note_off_c, 0, 55, 80
2, 71040, Note_off_c, 0, 50, 80
2, 71040, Note_off_c, 0, 43, 80
2, 71040, Note_on_c, 0, 52, 95
2, 71040, Note_on_c, 0, 47, 95
2, 71040, Note_on_c, 0, 40, 95
2, 71520, Note_off_c, 0, 52, 80
2, 71520, Note_off_c, 0, 47, 80
2, 71520, Note_off_c, 0, 40, 80
2, 71520, Note_on_c, 0, 52, 95
2, 71520, Note_on_c, 0, 47, 95
2, 71520, Note_on_c, 0, 40, 95
2, 72000, Note_off_c, 0, 52, 80
2, 72000, Note_off_c, 0, 47, 80
2, 72000, Note_off_c, 0, 40, 80
2, 72000, Note_on_c, 0, 62, 95
2, 72480, Note_off_c, 0, 62, 80
2, 72480, Note_on_c, 0, 60, 95
2, 72960, Note_off_c, 0, 60, 80
2, 105600, Note_on_c, 0, 53, 95
2, 105840, Note_off_c, 0, 53, 80
2, 105840, Note_on_c, 0, 53, 76
2, 105960, Note_off_c, 0, 53, 80
2, 105960, Note_on_c, 0, 60, 95
2, 106200, Note_off_c, 0, 60, 80
2, 106200, Note_on_c, 0, 60, 76
2, 106320, Note_off_c, 0, 60, 80
2, 106320, Note_on_c, 0, 62, 95
2, 106800, Note_off_c, 0, 62, 80
2, 106800, Note_on_c, 0, 64, 95
2, 107040, Note_off_c, 0, 64, 80
2, 107040, Note_on_c, 0, 62, 95
2, 107280, Note_off_c, 0, 62, 80
2, 107280, Note_on_c, 0, 60, 95
2, 107520, Note_off_c, 0, 60, 80
2, 107520, Note_on_c, 0, 53, 95
2, 107760, Note_off_c, 0, 53, 80
2, 107760, Note_on_c, 0, 53, 76
2, 107880, Note_off_c, 0, 53, 80
2, 107880, Note_on_c, 0, 60, 95
2, 108120, Note_off_c, 0, 60, 80
2, 108120, Note_on_c, 0, 60, 76
2, 108240, Note_off_c, 0, 60, 80
2, 108240, Note_on_c, 0, 62, 95
2, 108720, Note_off_c, 0, 62, 80
2, 108720, Note_on_c, 0, 64, 95
2, 108960, Note_off_c, 0, 64, 80
2, 108960, Note_on_c, 0, 62, 95
2, 109440, Note_off_c, 0, 62, 80
2, 109440, Note_on_c, 0, 53, 95
2, 109680, Note_off_c, 0, 53, 80
2, 109680, Note_on_c, 0, 53, 76
2, 109800, Note_off_c, 0, 53, 80
2, 109800, Note_on_c, 0, 60, 95
2, 110040, Note_off_c, 0, 60, 80
2, 110040, Note_on_c, 0, 60, 76
2, 110160, Note_off_c, 0, 60, 80
2, 110160, Note_on_c, 0, 62, 95
2, 110640, Note_off_c, 0, 62, 80
2, 110640, Note_on_c, 0, 64, 95
2, 110880, Note_off_c, 0, 64, 80
2, 110880, Note_on_c, 0, 62, 95
2, 111120, Note_off_c, 0, 62, 80
2, 111120, Note_on_c, 0, 60, 95
2, 111360, Note_off_c, 0, 60, 80
2, 111360, Note_on_c, 0, 53, 95
2, 111600, Note_off_c, 0, 53, 80
2, 111600, Note_on_c, 0, 53, 76
2, 111720, Note_off_c, 0, 53, 80
2, 111720, Note_on_c, 0, 60, 95
2, 111960, Note_off_c, 0, 60, 80
2, 111960, Note_on_c, 0, 60, 76
2, 112080, Note_off_c, 0, 60, 80
2, 112080, Note_on_c, 0, 62, 95
2, 112560, Note_off_c, 0, 62, 80
2, 112560, Note_on_c, 0, 64, 95
2, 112800, Note_off_c, 0, 64, 80
2, 112800, Note_on_c, 0, 62, 95
2, 113280, Note_off_c, 0, 62, 80
2, 113280, Note_on_c, 0, 53, 95
2, 113520, Note_off_c, 0, 53, 80
2, 113520, Note_on_c, 0, 53, 76
2, 113640, Note_off_c, 0, 53, 80
2, 113640, Note_on_c, 0, 60, 95
2, 113880, Note_off_c, 0, 60, 80
2, 113880, Note_on_c, 0, 60, 76
2, 114000, Note_off_c, 0, 60, 80
2, 114000, Note_on_c, 0, 62, 95
2, 114480, Note_off_c, 0, 62, 80
2, 114480, Note_on_c, 0, 64, 95
2, 114720, Note_off_c, 0, 64, 80
2, 114720, Note_on_c, 0, 62, 95
2, 114960, Note_off_c, 0, 62, 80
2, 114960, Note_on_c, 0, 60, 95
2, 115200, Note_off_c, 0, 60, 80
2, 115200, Note_on_c, 0, 53, 95
2, 115440, Note_off_c, 0, 53, 80
2, 115440, Note_on_c, 0, 53, 76
2, 115560, Note_off_c, 0, 53, 80
2, 115560, Note_on_c, 0, 60, 95
2, 115800, Note_off_c, 0, 60, 80
2, 115800, Note_on_c, 0, 60, 76
2, 115920, Note_off_c, 0, 60, 80
2, 115920, Note_on_c, 0, 62, 95
2, 116400, Note_off_c, 0, 62, 80
2, 116400, Note_on_c, 0, 64, 95
2, 116640, Note_off_c, 0, 64, 80
2, 116640, Note_on_c, 0, 62, 95
2, 117120, Note_off_c, 0, 62, 80
2, 117120, Note_on_c, 0, 53, 95
2, 117360, Note_off_c, 0, 53, 80
2, 117360, Note_on_c, 0, 53, 76
2, 117480, Note_off_c, 0, 53, 80
2, 117480, Note_on_c, 0, 60, 95
2, 117720, Note_off_c, 0, 60, 80
2, 117720, Note_on_c, 0, 60, 76
2, 117840, Note_off_c, 0, 60, 80
2, 117840, Note_on_c, 0, 62, 95
2, 118320, Note_off_c, 0, 62, 80
2, 118320, Note_on_c, 0, 64, 95
2, 118560, Note_off_c, 0, 64, 80
2, 118560, Note_on_c, 0, 62, 95
2, 118800, Note_off_c, 0, 62, 80
2, 118800, Note_on_c, 0, 60, 95
2, 119040, Note_off_c, 0, 60, 80
2, 119040, Note_on_c, 0, 53, 95
2, 119280, Note_off_c, 0, 53, 80
2, 119280, Note_on_c, 0, 53, 76
2, 119400, Note_off_c, 0, 53, 80
2, 119400, Note_on_c, 0, 60, 95
2, 119640, Note_off_c, 0, 60, 80
2, 119640, Note_on_c, 0, 60, 76
2, 119760, Note_off_c, 0, 60, 80
2, 119760, Note_on_c, 0, 62, 95
2, 120240, Note_off_c, 0, 62, 80
2, 120240, Note_on_c, 0, 64, 95
2, 120480, Note_off_c, 0, 64, 80
2, 120480, Note_on_c, 0, 62, 95
2, 120960, Note_off_c, 0, 62, 80
2, 120960, Note_on_c, 0, 53, 95
2, 120960, Note_on_c, 0, 48, 95
2, 120960, Note_on_c, 0, 41, 95
2, 120980, Note_off_c, 0, 53, 80
2, 120980, Note_off_c, 0, 48, 80
2, 120980, Note_off_c, 0, 41, 80
2, 121200, Note_on_c, 0, 53, 95
2, 121200, Note_on_c, 0, 48, 95
2, 121200, Note_on_c, 0, 41, 95
2, 121440, Note_off_c, 0, 53, 80
2, 121440, Note_off_c, 0, 48, 80
2, 121440, Note_off_c, 0, 41, 80
2, 121440, Note_on_c, 0, 53, 95
2, 121440, Note_on_c, 0, 48, 95
2, 121440, Note_on_c, 0, 41, 95
2, 121460, Note_off_c, 0, 53, 80
2, 121460, Note_off_c, 0, 48, 80
2, 121460, Note_off_c, 0, 41, 80
2, 121680, Note_on_c, 0, 53, 95
2, 121680, Note_on_c, 0, 48, 95
2, 121680, Note_on_c, 0, 41, 95
2, 121920, Note_off_c, 0, 53, 80
2, 121920, Note_off_c, 0, 48, 80
2, 121920, Note_off_c, 0, 41, 80
2, 121920, Note_on_c, 0, 53, 95
2, 121920, Note_on_c, 0, 48, 95
2, 121920, Note_on_c, 0, 41, 95
2, 121940, Note_off_c, 0, 53, 80
2, 121940, Note_off_c, 0, 48, 80
2, 121940, Note_off_c, 0, 41, 80
2, 122160, Note_on_c, 0, 53, 95
2, 122160, Note_on_c, 0, 48, 95
2, 122160, Note_on_c, 0, 41, 95
2, 122400, Note_off_c, 0, 53, 80
2, 122400, Note_off_c, 0, 48, 80
2, 122400, Note_off_c, 0, 41, 80
2, 122400, Note_on_c, 0, 53, 95
2, 122400, Note_on_c, 0, 48, 95
2, 122400, Note_on_c, 0, 41, 95
2, 122420, Note_off_c, 0, 53, 80
2, 122420, Note_off_c, 0, 48, 80
2, 122420, Note_off_c, 0, 41, 80
2, 122640, Note_on_c, 0, 53, 95
2, 122640, Note_on_c, 0, 48, 95
2, 122640, Note_on_c, 0, 41, 95
2, 122880, Note_off_c, 0, 53, 80
2, 122880, Note_off_c, 0, 48, 80
2, 122880, Note_off_c, 0, 41, 80
2, 122880, Note_on_c, 0, 53, 95
2, 122880, Note_on_c, 0, 48, 95
2, 122880, Note_on_c, 0, 41, 95
2, 122900, Note_off_c, 0, 53, 80
2, 122900, Note_off_c, 0, 48, 80
2, 122900, Note_off_c, 0, 41, 80
2, 123120, Note_on_c, 0, 53, 95
2, 123120, Note_on_c, 0, 48, 95
2, 123120, Note_on_c, 0, 41, 95
2, 123360, Note_off_c, 0, 53, 80
2, 123360, Note_off_c, 0, 48, 80
2, 123360, Note_off_c, 0, 41, 80
2, 123360, Note_on_c, 0, 53, 95
2, 123360, Note_on_c, 0, 48, 95
2, 123360, Note_on_c, 0, 41, 95
2, 123380, Note_off_c, 0, 53, 80
2, 123380, Note_off_c, 0, 48, 80
2, 123380, Note_off_c, 0, 41, 80
2, 123600, Note_on_c, 0, 53, 95
2, 123600, Note_on_c, 0, 48, 95
2, 123600, Note_on_c, 0, 41, 95
2, 123840, Note_off_c, 0, 53, 80
2, 123840, Note_off_c, 0, 48, 80
2, 123840, Note_off_c, 0, 41, 80
2, 123840, Note_on_c, 0, 53, 95
2, 123840, Note_on_c, 0, 48, 95
2, 123840, Note_on_c, 0, 41, 95
2, 123860, Note_off_c, 0, 53, 80
2, 123860, Note_off_c, 0, 48, 80
2, 123860, Note_off_c, 0, 41, 80
2, 124080, Note_on_c, 0, 53, 95
2, 124080, Note_on_c, 0, 48, 95
2, 124080, Note_on_c, 0, 41, 95
2, 124320, Note_off_c, 0, 53, 80
2, 124320, Note_off_c, 0, 48, 80
2, 124320, Note_off_c, 0, 41, 80
2, 124320, Note_on_c, 0, 53, 95
2, 124320, Note_on_c, 0, 48, 95
2, 124320, Note_on_c, 0, 41, 95
2, 124340, Note_off_c, 0, 53, 80
2, 124340, Note_off_c, 0, 48, 80
2, 124340, Note_off_c, 0, 41, 80
2, 124560, Note_on_c, 0, 53, 95
2, 124560, Note_on_c, 0, 48, 95
2, 124560, Note_on_c, 0, 41, 95
2, 124800, Note_off_c, 0, 53, 80
2, 124800, Note_off_c, 0, 48, 80
2, 124800, Note_off_c, 0, 41, 80
2, 124800, Note_on_c, 0, 62, 95
2, 124800, Note_on_c, 0, 57, 95
2, 124800, Note_on_c, 0, 50, 95
2, 124820, Note_off_c, 0, 62, 80
2, 124820, Note_off_c, 0, 57, 80
2, 124820, Note_off_c, 0, 50, 80
2, 125040, Note_on_c, 0, 62, 95
2, 125040, Note_on_c, 0, 57, 95
2, 125040, Note_on_c, 0, 50, 95
2, 125280, Note_off_c, 0, 62, 80
2, 125280, Note_off_c, 0, 57, 80
2, 125280, Note_off_c, 0, 50, 80
2, 125280, Note_on_c, 0, 62, 95
2, 125280, Note_on_c, 0, 57, 95
2, 125280, Note_on_c, 0, 50, 95
2, 125300, Note_off_c, 0, 62, 80
2, 125300, Note_off_c, 0, 57, 80
2, 125300, Note_off_c, 0, 50, 80
2, 125520, Note_on_c, 0, 62, 95
2, 125520, Note_on_c, 0, 57, 95
2, 125520, Note_on_c, 0, 50, 95
2, 125760, Note_off_c, 0, 62, 80
2, 125760, Note_off_c, 0, 57, 80
2, 125760, Note_off_c, 0, 50, 80
2, 125760, Note_on_c, 0, 62, 95
2, 125760, Note_on_c, 0, 57, 95
2, 125760, Note_on_c, 0, 50, 95
2, 125780, Note_off_c, 0, 62, 80
2, 125780, Note_off_c, 0, 57, 80
2, 125780, Note_off_c, 0, 50, 80
2, 126000, Note_on_c, 0, 62, 95
2, 126000, Note_on_c, 0, 57, 95
2, 126000, Note_on_c, 0, 50, 95
2, 126240, Note_off_c, 0, 62, 80
2, 126240, Note_off_c, 0, 57, 80
2, 126240, Note_off_c, 0, 50, 80
2, 126240, Note_on_c, 0, 62, 95
2, 126240, Note_on_c, 0, 57, 95
2, 126240, Note_on_c, 0, 50, 95
2, 126260, Note_off_c, 0, 62, 80
2, 126260, Note_off_c, 0, 57, 80
2, 126260, Note_off_c, 0, 50, 80
2, 126480, Note_on_c, 0, 62, 95
2, 126480, Note_on_c, 0, 57, 95
2, 126480, Note_on_c, 0, 50, 95
2, 126720, Note_off_c, 0, 62, 80
2, 126720, Note_off_c, 0, 57, 80
2, 126720, Note_off_c, 0, 50, 80
2, 126720, Note_on_c, 0, 62, 95
2, 126720, Note_on_c, 0, 57, 95
2, 126720, Note_on_c, 0, 50, 95
2, 126740, Note_off_c, 0, 62, 80
2, 126740, Note_off_c, 0, 57, 80
2, 126740, Note_off_c, 0, 50, 80
2, 126960, Note_on_c, 0, 62, 95
2, 126960, Note_on_c, 0, 57, 95
2, 126960, Note_on_c, 0, 50, 95
2, 127200, Note_off_c, 0, 62, 80
2, 127200, Note_off_c, 0, 57, 80
2, 127200, Note_off_c, 0, 50, 80
2, 127200, Note_on_c, 0, 62, 95
2, 127200, Note_on_c, 0, 57, 95
2, 127200, Note_on_c, 0, 50, 95
2, 127220, Note_off_c, 0, 62, 80
2, 127220, Note_off_c, 0, 57, 80
2, 127220, Note_off_c, 0, 50, 80
2, 127440, Note_on_c, 0, 62, 95
2, 127440, Note_on_c, 0, 57, 95
2, 127440, Note_on_c, 0, 50, 95
2, 127680, Note_off_c, 0, 62, 80
2, 127680, Note_off_c, 0, 57, 80
2, 127680, Note_off_c, 0, 50, 80
2, 127680, Note_on_c, 0, 62, 95
2, 127680, Note_on_c, 0, 57, 95
2, 127680, Note_on_c, 0, 50, 95
2, 127700, Note_off_c, 0, 62, 80
2, 127700, Note_off_c, 0, 57, 80
2, 127700, Note_off_c, 0, 50, 80
2, 127920, Note_on_c, 0, 62, 95
2, 127920, Note_on_c, 0, 57, 95
2, 127920, Note_on_c, 0, 50, 95
2, 128160, Note_off_c, 0, 62, 80
2, 128160, Note_off_c, 0, 57, 80
2, 128160, Note_off_c, 0, 50, 80
2, 128160, Note_on_c, 0, 62, 95
2, 128160, Note_on_c, 0, 57, 95
2, 128160, Note_on_c, 0, 50, 95
2, 128180, Note_off_c, 0, 62, 80
2, 128180, Note_off_c, 0, 57, 80
2, 128180, Note_off_c, 0, 50, 80
2, 128400, Note_on_c, 0, 62, 95
2, 128400, Note_on_c, 0, 57, 95
2, 128400, Note_on_c, 0, 50, 95
2, 128640, Note_off_c, 0, 62, 80
2, 128640, Note_off_c, 0, 57, 80
2, 128640, Note_off_c, 0, 50, 80
2, 128640, Note_on_c, 0, 53, 95
2, 128640, Note_on_c, 0, 48, 95
2, 128640, Note_on_c, 0, 41, 95
2, 128660, Note_off_c, 0, 53, 80
2, 128660, Note_off_c, 0, 48, 80
2, 128660, Note_off_c, 0, 41, 80
2, 128880, Note_on_c, 0, 53, 95
2, 128880, Note_on_c, 0, 48, 95
2, 128880, Note_on_c, 0, 41, 95
2, 129120, Note_off_c, 0, 53, 80
2, 129120, Note_off_c, 0, 48, 80
2, 129120, Note_off_c, 0, 41, 80
2, 129120, Note_on_c, 0, 53, 95
2, 129120, Note_on_c, 0, 48, 95
2, 129120, Note_on_c, 0, 41, 95
2, 129140, Note_off_c, 0, 53, 80
2, 129140, Note_off_c, 0, 48, 80
2, 129140, Note_off_c, 0, 41, 80
2, 129360, Note_on_c, 0, 53, 95
2, 129360, Note_on_c, 0, 48, 95
2, 129360, Note_on_c, 0, 41, 95
2, 129600, Note_off_c, 0, 53, 80
2, 129600, Note_off_c, 0, 48, 80
2, 129600, Note_off_c, 0, 41, 80
2, 129600, Note_on_c, 0, 53, 95
2, 129600, Note_on_c, 0, 48, 95
2, 129600, Note_on_c, 0, 41, 95
2, 129620, Note_off_c, 0, 53, 80
2, 129620, Note_off_c, 0, 48, 80
2, 129620, Note_off_c, 0, 41, 80
2, 129840, Note_on_c, 0, 53, 95
2, 129840, Note_on_c, 0, 48, 95
2, 129840, Note_on_c, 0, 41, 95
2, 130080, Note_off_c, 0, 53, 80
2, 130080, Note_off_c, 0, 48, 80
2, 130080, Note_off_c, 0, 41, 80
2, 130080, Note_on_c, 0, 53, 95
2, 130080, Note_on_c, 0, 48, 95
2, 130080, Note_on_c, 0, 41, 95
2, 130100, Note_off_c, 0, 53, 80
2, 130100, Note_off_c, 0, 48, 80
2, 130100, Note_off_c, 0, 41, 80
2, 130320, Note_on_c, 0, 53, 95
2, 130320, Note_on_c, 0, 48, 95
2, 130320, Note_on_c, 0, 41, 95
2, 130560, Note_off_c, 0, 53, 80
2, 130560, Note_off_c, 0, 48, 80
2, 130560, Note_off_c, 0, 41, 80
2, 130560, Note_on_c, 0, 53, 95
2, 130560, Note_on_c, 0, 48, 95
2, 130560, Note_on_c, 0, 41, 95
2, 130580, Note_off_c, 0, 53, 80
2, 130580, Note_off_c, 0, 48, 80
2, 130580, Note_off_c, 0, 41, 80
2, 130800, Note_on_c, 0, 53, 95
2, 130800, Note_on_c, 0, 48, 95
2, 130800, Note_on_c, 0, 41, 95
2, 131040, Note_off_c, 0, 53, 80
2, 131040, Note_off_c, 0, 48, 80
2, 131040, Note_off_c, 0, 41, 80
2, 131040, Note_on_c, 0, 53, 95
2, 131040, Note_on_c, 0, 48, 95
2, 131040, Note_on_c, 0, 41, 95
2, 131060, Note_off_c, 0, 53, 80
2, 131060, Note_off_c, 0, 48, 80
2, 131060, Note_off_c, 0, 41, 80
2, 131280, Note_on_c, 0, 53, 95
2, 131280, Note_on_c, 0, 48, 95
2, 131280, Note_on_c, 0, 41, 95
2, 131520, Note_off_c, 0, 53, 80
2, 131520, Note_off_c, 0, 48, 80
2, 131520, Note_off_c, 0, 41, 80
2, 131520, Note_on_c, 0, 53, 95
2, 131520, Note_on_c, 0, 48, 95
2, 131520, Note_on_c, 0, 41, 95
2, 131540, Note_off_c, 0, 53, 80
2, 131540, Note_off_c, 0, 48, 80
2, 131540, Note_off_c, 0, 41, 80
2, 131760, Note_on_c, 0, 53, 95
2, 131760, Note_on_c, 0, 48, 95
2, 131760, Note_on_c, 0, 41, 95
2, 132000, Note_off_c, 0, 53, 80
2, 132000, Note_off_c, 0, 48, 80
2, 132000, Note_off_c, 0, 41, 80
2, 132000, Note_on_c, 0, 53, 95
2, 132000, Note_on_c, 0, 48, 95
2, 132000, Note_on_c, 0, 41, 95
2, 132020, Note_off_c, 0, 53, 80
2, 132020, Note_off_c, 0, 48, 80
2, 132020, Note_off_c, 0, 41, 80
2, 132240, Note_on_c, 0, 53, 95
2, 132240, Note_on_c, 0, 48, 95
2, 132240, Note_on_c, 0, 41, 95
2, 132480, Note_off_c, 0, 53, 80
2, 132480, Note_off_c, 0, 48, 80
2, 132480, Note_off_c, 0, 41, 80
2, 132480, Note_on_c, 0, 62, 95
2, 132480, Note_on_c, 0, 57, 95
2, 132480, Note_on_c, 0, 50, 95
2, 132720, Note_off_c, 0, 62, 80
2, 132720, Note_off_c, 0, 57, 80
2, 132720, Note_off_c, 0, 50, 80
2, 132720, Note_on_c, 0, 62, 95
2, 132720, Note_on_c, 0, 57, 95
2, 132720, Note_on_c, 0, 50, 95
2, 132960, Note_off_c, 0, 62, 80
2, 132960, Note_off_c, 0, 57, 80
2, 132960, Note_off_c, 0, 50, 80
2, 132960, Note_on_c, 0, 62, 95
2, 132960, Note_on_c, 0, 57, 95
2, 132960, Note_on_c, 0, 50, 95
2, 133200, Note_off_c, 0, 62, 80
2, 133200, Note_off_c, 0, 57, 80
2, 133200, Note_off_c, 0, 50, 80
2, 133200, Note_on_c, 0, 62, 95
2, 133200, Note_on_c, 0, 57, 95
2, 133200, Note_on_c, 0, 50, 95
2, 133440, Note_off_c, 0, 62, 80
2, 133440, Note_off_c, 0, 57, 80
2, 133440, Note_off_c, 0, 50, 80
2, 133440, Note_on_c, 0, 62, 95
2, 133440, Note_on_c, 0, 57, 95
2, 133440, Note_on_c, 0, 50, 95
2, 133680, Note_off_c, 0, 62, 80
2, 133680, Note_off_c, 0, 57, 80
2, 133680, Note_off_c, 0, 50, 80
2, 133680, Note_on_c, 0, 62, 95
2, 133680, Note_on_c, 0, 57, 95
2, 133680, Note_on_c, 0, 50, 95
2, 133920, Note_off_c, 0, 62, 80
2, 133920, Note_off_c, 0, 57, 80
2, 133920, Note_off_c, 0, 50, 80
2, 133920, Note_on_c, 0, 62, 95
2, 133920, Note_on_c, 0, 57, 95
2, 133920, Note_on_c, 0, 50, 95
2, 134160, Note_off_c, 0, 62, 80
2, 134160, Note_off_c, 0, 57, 80
2, 134160, Note_off_c, 0, 50, 80
2, 134160, Note_on_c, 0, 62, 95
2, 134160, Note_on_c, 0, 57, 95
2, 134160, Note_on_c, 0, 50, 95
2, 134400, Note_off_c, 0, 62, 80
2, 134400, Note_off_c, 0, 57, 80
2, 134400, Note_off_c, 0, 50, 80
2, 134400, Note_on_c, 0, 62, 95
2, 134400, Note_on_c, 0, 57, 95
2, 134400, Note_on_c, 0, 50, 95
2, 134640, Note_off_c, 0, 62, 80
2, 134640, Note_off_c, 0, 57, 80
2, 134640, Note_off_c, 0, 50, 80
2, 134640, Note_on_c, 0, 62, 95
2, 134640, Note_on_c, 0, 57, 95
2, 134640, Note_on_c, 0, 50, 95
2, 134880, Note_off_c, 0, 62, 80
2, 134880, Note_off_c, 0, 57, 80
2, 134880, Note_off_c, 0, 50, 80
2, 134880, Note_on_c, 0, 62, 95
2, 134880, Note_on_c, 0, 57, 95
2, 134880, Note_on_c, 0, 50, 95
2, 135120, Note_off_c, 0, 62, 80
2, 135120, Note_off_c, 0, 57, 80
2, 135120, Note_off_c, 0, 50, 80
2, 135120, Note_on_c, 0, 62, 95
2, 135120, Note_on_c, 0, 57, 95
2, 135120, Note_on_c, 0, 50, 95
2, 135360, Note_off_c, 0, 62, 80
2, 135360, Note_off_c, 0, 57, 80
2, 135360, Note_off_c, 0, 50, 80
2, 135360, Note_on_c, 0, 62, 95
2, 135360, Note_on_c, 0, 57, 95
2, 135360, Note_on_c, 0, 50, 95
2, 135600, Note_off_c, 0, 62, 80
2, 135600, Note_off_c, 0, 57, 80
2, 135600, Note_off_c, 0, 50, 80
2, 135600, Note_on_c, 0, 62, 95
2, 135600, Note_on_c, 0, 57, 95
2, 135600, Note_on_c, 0, 50, 95
2, 135840, Note_off_c, 0, 62, 80
2, 135840, Note_off_c, 0, 57, 80
2, 135840, Note_off_c, 0, 50, 80
2, 135840, Note_on_c, 0, 62, 95
2, 135840, Note_on_c, 0, 57, 95
2, 135840, Note_on_c, 0, 50, 95
2, 136080, Note_off_c, 0, 62, 80
2, 136080, Note_off_c, 0, 57, 80
2, 136080, Note_off_c, 0, 50, 80
2, 136080, Note_on_c, 0, 62, 95
2, 136080, Note_on_c, 0, 57, 95
2, 136080, Note_on_c, 0, 50, 95
2, 136320, Note_off_c, 0, 62, 80
2, 136320, Note_off_c, 0, 57, 80
2, 136320, Note_off_c, 0, 50, 80
2, 136320, Note_on_c, 0, 57, 95
2, 136320, Note_on_c, 0, 52, 95
2, 136320, Note_on_c, 0, 45, 95
2, 136800, Note_off_c, 0, 57, 80
2, 136800, Note_off_c, 0, 52, 80
2, 136800, Note_off_c, 0, 45, 80
2, 136800, Note_on_c, 0, 57, 95
2, 136800, Note_on_c, 0, 52, 95
2, 136800, Note_on_c, 0, 45, 95
2, 137160, Note_off_c, 0, 57, 80
2, 137160, Note_off_c, 0, 52, 80
2, 137160, Note_off_c, 0, 45, 80
2, 137160, Note_on_c, 0, 57, 95
2, 137160, Note_on_c, 0, 52, 95
2, 137160, Note_on_c, 0, 45, 95
2, 137279, Note_off_c, 0, 57, 80
2, 137279, Note_off_c, 0, 52, 80
2, 137279, Note_off_c, 0, 45, 80
2, 137280, Note_on_c, 0, 55, 95
2, 137280, Note_on_c, 0, 50, 95
2, 137280, Note_on_c, 0, 43, 95
2, 137520, Note_off_c, 0, 55, 80
2, 137520, Note_off_c, 0, 50, 80
2, 137520, Note_off_c, 0, 43, 80
2, 137520, Note_on_c, 0, 55, 95
2, 137520, Note_on_c, 0, 50, 95
2, 137520, Note_on_c, 0, 43, 95
2, 137760, Note_off_c, 0, 55, 80
2, 137760, Note_off_c, 0, 50, 80
2, 137760, Note_off_c, 0, 43, 80
2, 137760, Note_on_c, 0, 55, 95
2, 137760, Note_on_c, 0, 50, 95
2, 137760, Note_on_c, 0, 43, 95
2, 138000, Note_off_c, 0, 55, 80
2, 138000, Note_off_c, 0, 50, 80
2, 138000, Note_off_c, 0, 43, 80
2, 138000, Note_on_c, 0, 55, 95
2, 138000, Note_on_c, 0, 50, 95
2, 138000, Note_on_c, 0, 43, 95
2, 138240, Note_off_c, 0, 55, 80
2, 138240, Note_off_c, 0, 50, 80
2, 138240, Note_off_c, 0, 43, 80
2, 138240, Note_on_c, 0, 52, 95
2, 138240, Note_on_c, 0, 47, 95
2, 138240, Note_on_c, 0, 40, 95
2, 138720, Note_off_c, 0, 52, 80
2, 138720, Note_off_c, 0, 47, 80
2, 138720, Note_off_c, 0, 40, 80
2, 138720, Note_on_c, 0, 52, 95
2, 138720, Note_on_c, 0, 47, 95
2, 138720, Note_on_c, 0, 40, 95
2, 139200, Note_off_c, 0, 52, 80
2, 139200, Note_off_c, 0, 47, 80
2, 139200, Note_off_c, 0, 40, 80
2, 139200, Note_on_c, 0, 57, 95
2, 139440, Note_off_c, 0, 57, 80
2, 139440, Note_on_c, 0, 57, 76
2, 139560, Note_off_c, 0, 57, 80
2, 139560, Note_on_c, 0, 55, 95
2, 139680, Note_off_c, 0, 55, 80
2, 139680, Note_on_c, 0, 55, 76
2, 139920, Note_off_c, 0, 55, 80
2, 139920, Note_on_c, 0, 52, 95
2, 140160, Note_off_c, 0, 52, 80
2, 140160, Note_on_c, 0, 57, 95
2, 140160, Note_on_c, 0, 52, 95
2, 140160, Note_on_c, 0, 45, 95
2, 140640, Note_off_c, 0, 57, 80
2, 140640, Note_off_c, 0, 52, 80
2, 140640, Note_off_c, 0, 45, 80
2, 140640, Note_on_c, 0, 57, 95
2, 140640, Note_on_c, 0, 52, 95
2, 140640, Note_on_c, 0, 45, 95
2, 141000, Note_off_c, 0, 57, 80
2, 141000, Note_off_c, 0, 52, 80
2, 141000, Note_off_c, 0, 45, 80
2, 141000, Note_on_c, 0, 57, 95
2, 141000, Note_on_c, 0, 52, 95
2, 141000, Note_on_c, 0, 45, 95
2, 141119, Note_off_c, 0, 57, 80
2, 141119, Note_off_c, 0, 52, 80
2, 141119, Note_off_c, 0, 45, 80
2, 141120, Note_on_c, 0, 55, 95
2, 141120, Note_on_c, 0, 50, 95
2, 141120, Note_on_c, 0, 43, 95
2, 141360, Note_off_c, 0, 55, 80
2, 141360, Note_off_c, 0, 50, 80
2, 141360, Note_off_c, 0, 43, 80
2, 141360, Note_on_c, 0, 55, 95
2, 141360, Note_on_c, 0, 50, 95
2, 141360, Note_on_c, 0, 43, 95
2, 141600, Note_off_c, 0, 55, 80
2, 141600, Note_off_c, 0, 50, 80
2, 141600, Note_off_c, 0, 43, 80
2, 141600, Note_on_c, 0, 55, 95
2, 141600, Note_on_c, 0, 50, 95
2, 141600, Note_on_c, 0, 43, 95
2, 141840, Note_off_c, 0, 55, 80
2, 141840, Note_off_c, 0, 50, 80
2, 141840, Note_off_c, 0, 43, 80
2, 141840, Note_on_c, 0, 55, 95
2, 141840, Note_on_c, 0, 50, 95
2, 141840, Note_on_c, 0, 43, 95
2, 142080, Note_off_c, 0, 55, 80
2, 142080, Note_off_c, 0, 50, 80
2, 142080, Note_off_c, 0, 43, 80
2, 142080, Note_on_c, 0, 52, 95
2, 142080, Note_on_c, 0, 47, 95
2, 142080, Note_on_c, 0, 40, 95
2, 142560, Note_off_c, 0, 52, 80
2, 142560, Note_off_c, 0, 47, 80
2, 142560, Note_off_c, 0, 40, 80
2, 142560, Note_on_c, 0, 52, 95
2, 142560, Note_on_c, 0, 47, 95
2, 142560, Note_on_c, 0, 40, 95
2, 143040, Note_off_c, 0, 52, 80
2, 143040, Note_off_c, 0, 47, 80
2, 143040, Note_off_c, 0, 40, 80
2, 143040, Note_on_c, 0, 57, 95
2, 143160, Note_off_c, 0, 57, 80
2, 143160, Note_on_c, 0, 57, 95
2, 143280, Note_off_c, 0, 57, 80
2, 143280, Note_on_c, 0, 55, 95
2, 143400, Note_off_c, 0, 55, 80
2, 143400, Note_on_c, 0, 57, 95
2, 143520, Note_off_c, 0, 57, 80
2, 143520, Note_on_c, 0, 60, 95
2, 144000, Note_off_c, 0, 60, 80
2, 144000, Note_on_c, 0, 57, 95
2, 144000, Note_on_c, 0, 52, 95
2, 144000, Note_on_c, 0, 45, 95
2, 144480, Note_off_c, 0, 57, 80
2, 144480, Note_off_c, 0, 52, 80
2, 144480, Note_off_c, 0, 45, 80
2, 144480, Note_on_c, 0, 57, 95
2, 144480, Note_on_c, 0, 52, 95
2, 144480, Note_on_c, 0, 45, 95
2, 144840, Note_off_c, 0, 57, 80
2, 144840, Note_off_c, 0, 52, 80
2, 144840, Note_off_c, 0, 45, 80
2, 144840, Note_on_c, 0, 57, 95
2, 144840, Note_on_c, 0, 52, 95
2, 144840, Note_on_c, 0, 45, 95
2, 144959, Note_off_c, 0, 57, 80
2, 144959, Note_off_c, 0, 52, 80
2, 144959, Note_off_c, 0, 45, 80
2, 144960, Note_on_c, 0, 55, 95
2, 144960, Note_on_c, 0, 50, 95
2, 144960, Note_on_c, 0, 43, 95
2, 145200, Note_off_c, 0, 55, 80
2, 145200, Note_off_c, 0, 50, 80
2, 145200, Note_off_c, 0, 43, 80
2, 145200, Note_on_c, 0, 55, 95
2, 145200, Note_on_c, 0, 50, 95
2, 145200, Note_on_c, 0, 43, 95
2, 145440, Note_off_c, 0, 55, 80
2, 145440, Note_off_c, 0, 50, 80
2, 145440, Note_off_c, 0, 43, 80
2, 145440, Note_on_c, 0, 55, 95
2, 145440, Note_on_c, 0, 50, 95
2, 145440, Note_on_c, 0, 43, 95
2, 145680, Note_off_c, 0, 55, 80
2, 145680, Note_off_c, 0, 50, 80
2, 145680, Note_off_c, 0, 43, 80
2, 145680, Note_on_c, 0, 55, 95
2, 145680, Note_on_c, 0, 50, 95
2, 145680, Note_on_c, 0, 43, 95
2, 145920, Note_off_c, 0, 55, 80
2, 145920, Note_off_c, 0, 50, 80
2, 145920, Note_off_c, 0, 43, 80
2, 145920, Note_on_c, 0, 52, 95
2, 145920, Note_on_c, 0, 47, 95
2, 145920, Note_on_c, 0, 40, 95
2, 146400, Note_off_c, 0, 52, 80
2, 146400, Note_off_c, 0, 47, 80
2, 146400, Note_off_c, 0, 40, 80
2, 146400, Note_on_c, 0, 52, 95
2, 146400, Note_on_c, 0, 47, 95
2, 146400, Note_on_c, 0, 40, 95
2, 146640, Note_off_c, 0, 52, 80
2, 146640, Note_off_c, 0, 47, 80
2, 146640, Note_off_c, 0, 40, 80
2, 146640, Note_on_c, 0, 62, 95
2, 146760, Note_off_c, 0, 62, 80
2, 146760, Note_on_c, 0, 62, 95
2, 146880, Note_off_c, 0, 62, 80
2, 146880, Note_on_c, 0, 62, 95
2, 147120, Note_off_c, 0, 62, 80
2, 147120, Note_on_c, 0, 62, 76
2, 147240, Note_off_c, 0, 62, 80
2, 147240, Note_on_c, 0, 60, 95
2, 147360, Note_off_c, 0, 60, 80
2, 147360, Note_on_c, 0, 60, 76
2, 147600, Note_off_c, 0, 60, 80
2, 147600, Note_on_c, 0, 57, 95
2, 147840, Note_off_c, 0, 57, 80
2, 147840, Note_on_c, 0, 57, 95
2, 147840, Note_on_c, 0, 52, 95
2, 147840, Note_on_c, 0, 45, 95
2, 148320, Note_off_c, 0, 57, 80
2, 148320, Note_off_c, 0, 52, 80
2, 148320, Note_off_c, 0, 45, 80
2, 148320, Note_on_c, 0, 57, 95
2, 148320, Note_on_c, 0, 52, 95
2, 148320, Note_on_c, 0, 45, 95
2, 148680, Note_off_c, 0, 57, 80
2, 148680, Note_off_c, 0, 52, 80
2, 148680, Note_off_c, 0, 45, 80
2, 148680, Note_on_c, 0, 57, 95
2, 148680, Note_on_c, 0, 52, 95
2, 148680, Note_on_c, 0, 45, 95
2, 148799, Note_off_c, 0, 57, 80
2, 148799, Note_off_c, 0, 52, 80
2, 148799, Note_off_c, 0, 45, 80
2, 148800, Note_on_c, 0, 55, 95
2, 148800, Note_on_c, 0, 50, 95
2, 148800, Note_on_c, 0, 43, 95
2, 149040, Note_off_c, 0, 55, 80
2, 149040, Note_off_c, 0, 50, 80
2, 149040, Note_off_c, 0, 43, 80
2, 149040, Note_on_c, 0, 55, 95
2, 149040, Note_on_c, 0, 50, 95
2, 149040, Note_on_c, 0, 43, 95
2, 149280, Note_off_c, 0, 55, 80
2, 149280, Note_off_c, 0, 50, 80
2, 149280, Note_off_c, 0, 43, 80
2, 149280, Note_on_c, 0, 55, 95
2, 149280, Note_on_c, 0, 50, 95
2, 149280, Note_on_c, 0, 43, 95
2, 149520, Note_off_c, 0, 55, 80
2, 149520, Note_off_c, 0, 50, 80
2, 149520, Note_off_c, 0, 43, 80
2, 149520, Note_on_c, 0, 55, 95
2, 149520, Note_on_c, 0, 50, 95
2, 149520, Note_on_c, 0, 43, 95
2, 149760, Note_off_c, 0, 55, 80
2, 149760, Note_off_c, 0, 50, 80
2, 149760, Note_off_c, 0, 43, 80
2, 149760, Note_on_c, 0, 52, 95
2, 149760, Note_on_c, 0, 47, 95
2, 149760, Note_on_c, 0, 40, 95
2, 150240, Note_off_c, 0, 52, 80
2, 150240, Note_off_c, 0, 47, 80
2, 150240, Note_off_c, 0, 40, 80
2, 150240, Note_on_c, 0, 52, 95
2, 150240, Note_on_c, 0, 47, 95
2, 150240, Note_on_c, 0, 40, 95
2, 150720, Note_off_c, 0, 52, 80
2, 150720, Note_off_c, 0, 47, 80
2, 150720, Note_off_c, 0, 40, 80
2, 150720, Note_on_c, 0, 62, 95
2, 150720, Note_on_c, 0, 57, 95
2, 150720, Note_on_c, 0, 50, 95
2, 151200, Note_off_c, 0, 62, 80
2, 151200, Note_off_c, 0, 57, 80
2, 151200, Note_off_c, 0, 50, 80
2, 151200, Note_on_c, 0, 60, 95
2, 151200, Note_on_c, 0, 55, 95
2, 151200, Note_on_c, 0, 48, 95
2, 151680, Note_off_c, 0, 60, 80
2, 151680, Note_off_c, 0, 55, 80
2, 151680, Note_off_c, 0, 48, 80
2, 151680, Note_on_c, 0, 60, 89
2, 151680, Note_on_c, 1, 55, 89
2, 151680, Note_on_c, 1, 48, 89
2, 153216, Pitch_bend_c, 1, 8832
2, 153216, Pitch_bend_c, 1, 8832
2, 153600, Note_off_c, 0, 60, 80
2, 153600, Pitch_bend_c, 1, 8192
2, 153600, Pitch_bend_c, 1, 8192
2, 155520, Note_off_c, 1, 55, 80
2, 155520, Pitch_bend_c, 1, 8192
2, 155520, Note_off_c, 1, 48, 80
2, 155520, Pitch_bend_c, 1, 8192
2, 193920, Note_on_c, 0, 53, 76
2, 194160, Note_off_c, 0, 53, 80
2, 194160, Note_on_c, 0, 53, 76
2, 194280, Note_off_c, 0, 53, 80
2, 194280, Note_on_c, 0, 60, 95
2, 194520, Note_off_c, 0, 60, 80
2, 194520, Note_on_c, 0, 60, 76
2, 194640, Note_off_c, 0, 60, 80
2, 194640, Note_on_c, 0, 62, 95
2, 195120, Note_off_c, 0, 62, 80
2, 195120, Note_on_c, 0, 64, 95
2, 195360, Note_off_c, 0, 64, 80
2, 195360, Note_on_c, 0, 62, 95
2, 195600, Note_off_c, 0, 62, 80
2, 195600, Note_on_c, 0, 60, 95
2, 195840, Note_off_c, 0, 60, 80
2, 195840, Note_on_c, 0, 53, 95
2, 196080, Note_off_c, 0, 53, 80
2, 196080, Note_on_c, 0, 53, 76
2, 196200, Note_off_c, 0, 53, 80
2, 196200, Note_on_c, 0, 60, 95
2, 196440, Note_off_c, 0, 60, 80
2, 196440, Note_on_c, 0, 60, 76
2, 196560, Note_off_c, 0, 60, 80
2, 196560, Note_on_c, 0, 62, 95
2, 197040, Note_off_c, 0, 62, 80
2, 197040, Note_on_c, 0, 64, 95
2, 197280, Note_off_c, 0, 64, 80
2, 197280, Note_on_c, 0, 62, 95
2, 197760, Note_off_c, 0, 62, 80
2, 197760, Note_on_c, 0, 53, 95
2, 198000, Note_off_c, 0, 53, 80
2, 198000, Note_on_c, 0, 53, 76
2, 198120, Note_off_c, 0, 53, 80
2, 198120, Note_on_c, 0, 60, 95
2, 198360, Note_off_c, 0, 60, 80
2, 198360, Note_on_c, 0, 60, 76
2, 198480, Note_off_c, 0, 60, 80
2, 198480, Note_on_c, 0, 62, 95
2, 198960, Note_off_c, 0, 62, 80
2, 198960, Note_on_c, 0, 64, 95
2, 199200, Note_off_c, 0, 64, 80
2, 199200, Note_on_c, 0, 62, 95
2, 199440, Note_off_c, 0, 62, 80
2, 199440, Note_on_c, 0, 60, 95
2, 199680, Note_off_c, 0, 60, 80
2, 199680, Note_on_c, 0, 53, 95
2, 199920, Note_off_c, 0, 53, 80
2, 199920, Note_on_c, 0, 53, 76
2, 200040, Note_off_c, 0, 53, 80
2, 200040, Note_on_c, 0, 60, 95
2, 200280, Note_off_c, 0, 60, 80
2, 200280, Note_on_c, 0, 60, 76
2, 200400, Note_off_c, 0, 60, 80
2, 200400, Note_on_c, 0, 62, 95
2, 200880, Note_off_c, 0, 62, 80
2, 200880, Note_on_c, 0, 64, 95
2, 201120, Note_off_c, 0, 64, 80
2, 201120, Note_on_c, 0, 62, 95
2, 201600, Note_off_c, 0, 62, 80
2, 201600, Note_on_c, 0, 53, 95
2, 201840, Note_off_c, 0, 53, 80
2, 201840, Note_on_c, 0, 53, 76
2, 201960, Note_off_c, 0, 53, 80
2, 201960, Note_on_c, 0, 60, 95
2, 202200, Note_off_c, 0, 60, 80
2, 202200, Note_on_c, 0, 60, 76
2, 202320, Note_off_c, 0, 60, 80
2, 202320, Note_on_c, 0, 62, 95
2, 202800, Note_off_c, 0, 62, 80
2, 202800, Note_on_c, 0, 64, 95
2, 203040, Note_off_c, 0, 64, 80
2, 203040, Note_on_c, 0, 62, 95
2, 203280, Note_off_c, 0, 62, 80
2, 203280, Note_on_c, 0, 60, 95
2, 203520, Note_off_c, 0, 60, 80
2, 203520, Note_on_c, 0, 53, 95
2, 203760, Note_off_c, 0, 53, 80
2, 203760, Note_on_c, 0, 53, 76
2, 203880, Note_off_c, 0, 53, 80
2, 203880, Note_on_c, 0, 60, 95
2, 204120, Note_off_c, 0, 60, 80
2, 204120, Note_on_c, 0, 60, 76
2, 204240, Note_off_c, 0, 60, 80
2, 204240, Note_on_c, 0, 62, 95
2, 204720, Note_off_c, 0, 62, 80
2, 204720, Note_on_c, 0, 64, 95
2, 204960, Note_off_c, 0, 64, 80
2, 204960, Note_on_c, 0, 62, 95
2, 205440, Note_off_c, 0, 62, 80
2, 205440, Note_on_c, 0, 53, 95
2, 205680, Note_off_c, 0, 53, 80
2, 205680, Note_on_c, 0, 53, 76
2, 205800, Note_off_c, 0, 53, 80
2, 205800, Note_on_c, 0, 60, 95
2, 206040, Note_off_c, 0, 60, 80
2, 206040, Note_on_c, 0, 60, 76
2, 206160, Note_off_c, 0, 60, 80
2, 206160, Note_on_c, 0, 62, 95
2, 206640, Note_off_c, 0, 62, 80
2, 206640, Note_on_c, 0, 64, 95
2, 206880, Note_off_c, 0, 64, 80
2, 206880, Note_on_c, 0, 62, 95
2, 207120, Note_off_c, 0, 62, 80
2, 207120, Note_on_c, 0, 60, 95
2, 207360, Note_off_c, 0, 60, 80
2, 207360, Note_on_c, 0, 53, 95
2, 207600, Note_off_c, 0, 53, 80
2, 207600, Note_on_c, 0, 53, 76
2, 207720, Note_off_c, 0, 53, 80
2, 207720, Note_on_c, 0, 60, 95
2, 207960, Note_off_c, 0, 60, 80
2, 207960, Note_on_c, 0, 60, 76
2, 208080, Note_off_c, 0, 60, 80
2, 208080, Note_on_c, 0, 62, 95
2, 208560, Note_off_c, 0, 62, 80
2, 208560, Note_on_c, 0, 64, 95
2, 208800, Note_off_c, 0, 64, 80
2, 208800, Note_on_c, 0, 62, 95
2, 209280, Note_off_c, 0, 62, 80
2, 209280, Note_on_c, 0, 53, 95
2, 209280, Note_on_c, 0, 48, 95
2, 209280, Note_on_c, 0, 41, 95
2, 209300, Note_off_c, 0, 53, 80
2, 209300, Note_off_c, 0, 48, 80
2, 209300, Note_off_c, 0, 41, 80
2, 209520, Note_on_c, 0, 53, 95
2, 209520, Note_on_c, 0, 48, 95
2, 209520, Note_on_c, 0, 41, 95
2, 209760, Note_off_c, 0, 53, 80
2, 209760, Note_off_c, 0, 48, 80
2, 209760, Note_off_c, 0, 41, 80
2, 209760, Note_on_c, 0, 53, 95
2, 209760, Note_on_c, 0, 48, 95
2, 209760, Note_on_c, 0, 41, 95
2, 209780, Note_off_c, 0, 53, 80
2, 209780, Note_off_c, 0, 48, 80
2, 209780, Note_off_c, 0, 41, 80
2, 210000, Note_on_c, 0, 53, 95
2, 210000, Note_on_c, 0, 48, 95
2, 210000, Note_on_c, 0, 41, 95
2, 210240, Note_off_c, 0, 53, 80
2, 210240, Note_off_c, 0, 48, 80
2, 210240, Note_off_c, 0, 41, 80
2, 210240, Note_on_c, 0, 53, 95
2, 210240, Note_on_c, 0, 48, 95
2, 210240, Note_on_c, 0, 41, 95
2, 210260, Note_off_c, 0, 53, 80
2, 210260, Note_off_c, 0, 48, 80
2, 210260, Note_off_c, 0, 41, 80
2, 210480, Note_on_c, 0, 53, 95
2, 210480, Note_on_c, 0, 48, 95
2, 210480, Note_on_c, 0, 41, 95
2, 210720, Note_off_c, 0, 53, 80
2, 210720, Note_off_c, 0, 48, 80
2, 210720, Note_off_c, 0, 41, 80
2, 210720, Note_on_c, 0, 53, 95
2, 210720, Note_on_c, 0, 48, 95
2, 210720, Note_on_c, 0, 41, 95
2, 210740, Note_off_c, 0, 53, 80
2, 210740, Note_off_c, 0, 48, 80
2, 210740, Note_off_c, 0, 41, 80
2, 210960, Note_on_c, 0, 53, 95
2, 210960, Note_on_c, 0, 48, 95
2, 210960, Note_on_c, 0, 41, 95
2, 211200, Note_off_c, 0, 53, 80
2, 211200, Note_off_c, 0, 48, 80
2, 211200, Note_off_c, 0, 41, 80
2, 211200, Note_on_c, 0, 53, 95
2, 211200, Note_on_c, 0, 48, 95
2, 211200, Note_on_c, 0, 41, 95
2, 211220, Note_off_c, 0, 53, 80
2, 211220, Note_off_c, 0, 48, 80
2, 211220, Note_off_c, 0, 41, 80
2, 211440, Note_on_c, 0, 53, 95
2, 211440, Note_on_c, 0, 48, 95
2, 211440, Note_on_c, 0, 41, 95
2, 211680, Note_off_c, 0, 53, 80
2, 211680, Note_off_c, 0, 48, 80
2, 211680, Note_off_c, 0, 41, 80
2, 211680, Note_on_c, 0, 53, 95
2, 211680, Note_on_c, 0, 48, 95
2, 211680, Note_on_c, 0, 41, 95
2, 211700, Note_off_c, 0, 53, 80
2, 211700, Note_off_c, 0, 48, 80
2, 211700, Note_off_c, 0, 41, 80
2, 211920, Note_on_c, 0, 53, 95
2, 211920, Note_on_c, 0, 48, 95
2, 211920, Note_on_c, 0, 41, 95
2, 212160, Note_off_c, 0, 53, 80
2, 212160, Note_off_c, 0, 48, 80
2, 212160, Note_off_c, 0, 41, 80
2, 212160, Note_on_c, 0, 53, 95
2, 212160, Note_on_c, 0, 48, 95
2, 212160, Note_on_c, 0, 41, 95
2, 212180, Note_off_c, 0, 53, 80
2, 212180, Note_off_c, 0, 48, 80
2, 212180, Note_off_c, 0, 41, 80
2, 212400, Note_on_c, 0, 53, 95
2, 212400, Note_on_c, 0, 48, 95
2, 212400, Note_on_c, 0, 41, 95
2, 212640, Note_off_c, 0, 53, 80
2, 212640, Note_off_c, 0, 48, 80
2, 212640, Note_off_c, 0, 41, 80
2, 212640, Note_on_c, 0, 53, 95
2, 212640, Note_on_c, 0, 48, 95
2, 212640, Note_on_c, 0, 41, 95
2, 212660, Note_off_c, 0, 53, 80
2, 212660, Note_off_c, 0, 48, 80
2, 212660, Note_off_c, 0, 41, 80
2, 212880, Note_on_c, 0, 53, 95
2, 212880, Note_on_c, 0, 48, 95
2, 212880, Note_on_c, 0, 41, 95
2, 213120, Note_off_c, 0, 53, 80
2, 213120, Note_off_c, 0, 48, 80
2, 213120, Note_off_c, 0, 41, 80
2, 213120, Note_on_c, 0, 62, 95
2, 213120, Note_on_c, 0, 57, 95
2, 213120, Note_on_c, 0, 50, 95
2, 213140, Note_off_c, 0, 62, 80
2, 213140, Note_off_c, 0, 57, 80
2, 213140, Note_off_c, 0, 50, 80
2, 213360, Note_on_c, 0, 62, 95
2, 213360, Note_on_c, 0, 57, 95
2, 213360, Note_on_c, 0, 50, 95
2, 213600, Note_off_c, 0, 62, 80
2, 213600, Note_off_c, 0, 57, 80
2, 213600, Note_off_c, 0, 50, 80
2, 213600, Note_on_c, 0, 62, 95
2, 213600, Note_on_c, 0, 57, 95
2, 213600, Note_on_c, 0, 50, 95
2, 213620, Note_off_c, 0, 62, 80
2, 213620, Note_off_c, 0, 57, 80
2, 213620, Note_off_c, 0, 50, 80
2, 213840, Note_on_c, 0, 62, 95
2, 213840, Note_on_c, 0, 57, 95
2, 213840, Note_on_c, 0, 50, 95
2, 214080, Note_off_c, 0, 62, 80
2, 214080, Note_off_c, 0, 57, 80
2, 214080, Note_off_c, 0, 50, 80
2, 214080, Note_on_c, 0, 62, 95
2, 214080, Note_on_c, 0, 57, 95
2, 214080, Note_on_c, 0, 50, 95
2, 214100, Note_off_c, 0, 62, 80
2, 214100, Note_off_c, 0, 57, 80
2, 214100, Note_off_c, 0, 50, 80
2, 214320, Note_on_c, 0, 62, 95
2, 214320, Note_on_c, 0, 57, 95
2, 214320, Note_on_c, 0, 50, 95
2, 214560, Note_off_c, 0, 62, 80
2, 214560, Note_off_c, 0, 57, 80
2, 214560, Note_off_c, 0, 50, 80
2, 214560, Note_on_c, 0, 62, 95
2, 214560, Note_on_c, 0, 57, 95
2, 214560, Note_on_c, 0, 50, 95
2, 214580, Note_off_c, 0, 62, 80
2, 214580, Note_off_c, 0, 57, 80
2, 214580, Note_off_c, 0, 50, 80
2, 214800, Note_on_c, 0, 62, 95
2, 214800, Note_on_c, 0, 57, 95
2, 214800, Note_on_c, 0, 50, 95
2, 215040, Note_off_c, 0, 62, 80
2, 215040, Note_off_c, 0, 57, 80
2, 215040, Note_off_c, 0, 50, 80
2, 215040, Note_on_c, 0, 62, 95
2, 215040, Note_on_c, 0, 57, 95
2, 215040, Note_on_c, 0, 50, 95
2, 215060, Note_off_c, 0, 62, 80
2, 215060, Note_off_c, 0, 57, 80
2, 215060, Note_off_c, 0, 50, 80
2, 215280, Note_on_c, 0, 62, 95
2, 215280, Note_on_c, 0, 57, 95
2, 215280, Note_on_c, 0, 50, 95
2, 215520, Note_off_c, 0, 62, 80
2, 215520, Note_off_c, 0, 57, 80
2, 215520, Note_off_c, 0, 50, 80
2, 215520, Note_on_c, 0, 62, 95
2, 215520, Note_on_c, 0, 57, 95
2, 215520, Note_on_c, 0, 50, 95
2, 215540, Note_off_c, 0, 62, 80
2, 215540, Note_off_c, 0, 57, 80
2, 215540, Note_off_c, 0, 50, 80
2, 215760, Note_on_c, 0, 62, 95
2, 215760, Note_on_c, 0, 57, 95
2, 215760, Note_on_c, 0, 50, 95
2, 216000, Note_off_c, 0, 62, 80
2, 216000, Note_off_c, 0, 57, 80
2, 216000, Note_off_c, 0, 50, 80
2, 216000, Note_on_c, 0, 62, 95
2, 216000, Note_on_c, 0, 57, 95
2, 216000, Note_on_c, 0, 50, 95
2, 216020, Note_off_c, 0, 62, 80
2, 216020, Note_off_c, 0, 57, 80
2, 216020, Note_off_c, 0, 50, 80
2, 216960, Note_on_c, 0, 53, 95
2, 216960, Note_on_c, 0, 48, 95
2, 216960, Note_on_c, 0, 41, 95
2, 217200, Note_off_c, 0, 53, 80
2, 217200, Note_off_c, 0, 48, 80
2, 217200, Note_off_c, 0, 41, 80
2, 217200, Note_on_c, 0, 53, 95
2, 217200, Note_on_c, 0, 48, 95
2, 217200, Note_on_c, 0, 41, 95
2, 217440, Note_off_c, 0, 53, 80
2, 217440, Note_off_c, 0, 48, 80
2, 217440, Note_off_c, 0, 41, 80
2, 217440, Note_on_c, 0, 53, 95
2, 217440, Note_on_c, 0, 48, 95
2, 217440, Note_on_c, 0, 41, 95
2, 217680, Note_off_c, 0, 53, 80
2, 217680, Note_off_c, 0, 48, 80
2, 217680, Note_off_c, 0, 41, 80
2, 217680, Note_on_c, 0, 53, 95
2, 217680, Note_on_c, 0, 48, 95
2, 217680, Note_on_c, 0, 41, 95
2, 217920, Note_off_c, 0, 53, 80
2, 217920, Note_off_c, 0, 48, 80
2, 217920, Note_off_c, 0, 41, 80
2, 217920, Note_on_c, 0, 53, 95
2, 217920, Note_on_c, 0, 48, 95
2, 217920, Note_on_c, 0, 41, 95
2, 218160, Note_off_c, 0, 53, 80
2, 218160, Note_off_c, 0, 48, 80
2, 218160, Note_off_c, 0, 41, 80
2, 218160, Note_on_c, 0, 53, 95
2, 218160, Note_on_c, 0, 48, 95
2, 218160, Note_on_c, 0, 41, 95
2, 218400, Note_off_c, 0, 53, 80
2, 218400, Note_off_c, 0, 48, 80
2, 218400, Note_off_c, 0, 41, 80
2, 218400, Note_on_c, 0, 53, 95
2, 218400, Note_on_c, 0, 48, 95
2, 218400, Note_on_c, 0, 41, 95
2, 218640, Note_off_c, 0, 53, 80
2, 218640, Note_off_c, 0, 48, 80
2, 218640, Note_off_c, 0, 41, 80
2, 218640, Note_on_c, 0, 53, 95
2, 218640, Note_on_c, 0, 48, 95
2, 218640, Note_on_c, 0, 41, 95
2, 218880, Note_off_c, 0, 53, 80
2, 218880, Note_off_c, 0, 48, 80
2, 218880, Note_off_c, 0, 41, 80
2, 218880, Note_on_c, 0, 53, 95
2, 218880, Note_on_c, 0, 48, 95
2, 218880, Note_on_c, 0, 41, 95
2, 219120, Note_off_c, 0, 53, 80
2, 219120, Note_off_c, 0, 48, 80
2, 219120, Note_off_c, 0, 41, 80
2, 219120, Note_on_c, 0, 53, 95
2, 219120, Note_on_c, 0, 48, 95
2, 219120, Note_on_c, 0, 41, 95
2, 219360, Note_off_c, 0, 53, 80
2, 219360, Note_off_c, 0, 48, 80
2, 219360, Note_off_c, 0, 41, 80
2, 219360, Note_on_c, 0, 53, 95
2, 219360, Note_on_c, 0, 48, 95
2, 219360, Note_on_c, 0, 41, 95
2, 219600, Note_off_c, 0, 53, 80
2, 219600, Note_off_c, 0, 48, 80
2, 219600, Note_off_c, 0, 41, 80
2, 219600, Note_on_c, 0, 53, 95
2, 219600, Note_on_c, 0, 48, 95
2, 219600, Note_on_c, 0, 41, 95
2, 219840, Note_off_c, 0, 53, 80
2, 219840, Note_off_c, 0, 48, 80
2, 219840, Note_off_c, 0, 41, 80
2, 219840, Note_on_c, 0, 53, 95
2, 219840, Note_on_c, 0, 48, 95
2, 219840, Note_on_c, 0, 41, 95
2, 220080, Note_off_c, 0, 53, 80
2, 220080, Note_off_c, 0, 48, 80
2, 220080, Note_off_c, 0, 41, 80
2, 220080, Note_on_c, 0, 53, 95
2, 220080, Note_on_c, 0, 48, 95
2, 220080, Note_on_c, 0, 41, 95
2, 220320, Note_off_c, 0, 53, 80
2, 220320, Note_off_c, 0, 48, 80
2, 220320, Note_off_c, 0, 41, 80
2, 220320, Note_on_c, 0, 53, 95
2, 220320, Note_on_c, 0, 48, 95
2, 220320, Note_on_c, 0, 41, 95
2, 220560, Note_off_c, 0, 53, 80
2, 220560, Note_off_c, 0, 48, 80
2, 220560, Note_off_c, 0, 41, 80
2, 220560, Note_on_c, 0, 53, 95
2, 220560, Note_on_c, 0, 48, 95
2, 220560, Note_on_c, 0, 41, 95
2, 220800, Note_off_c, 0, 53, 80
2, 220800, Note_off_c, 0, 48, 80
2, 220800, Note_off_c, 0, 41, 80
2, 220800, Note_on_c, 0, 62, 95
2, 220800, Note_on_c, 0, 57, 95
2, 220800, Note_on_c, 0, 50, 95
2, 221040, Note_off_c, 0, 62, 80
2, 221040, Note_off_c, 0, 57, 80
2, 221040, Note_off_c, 0, 50, 80
2, 221040, Note_on_c, 0, 62, 95
2, 221040, Note_on_c, 0, 57, 95
2, 221040, Note_on_c, 0, 50, 95
2, 221280, Note_off_c, 0, 62, 80
2, 221280, Note_off_c, 0, 57, 80
2, 221280, Note_off_c, 0, 50, 80
2, 221280, Note_on_c, 0, 62, 95
2, 221280, Note_on_c, 0, 57, 95
2, 221280, Note_on_c, 0, 50, 95
2, 221520, Note_off_c, 0, 62, 80
2, 221520, Note_off_c, 0, 57, 80
2, 221520, Note_off_c, 0, 50, 80
2, 221520, Note_on_c, 0, 62, 95
2, 221520, Note_on_c, 0, 57, 95
2, 221520, Note_on_c, 0, 50, 95
2, 221760, Note_off_c, 0, 62, 80
2, 221760, Note_off_c, 0, 57, 80
2, 221760, Note_off_c, 0, 50, 80
2, 221760, Note_on_c, 0, 62, 95
2, 221760, Note_on_c, 0, 57, 95
2, 221760, Note_on_c, 0, 50, 95
2, 222000, Note_off_c, 0, 62, 80
2, 222000, Note_off_c, 0, 57, 80
2, 222000, Note_off_c, 0, 50, 80
2, 222000, Note_on_c, 0, 62, 95
2, 222000, Note_on_c, 0, 57, 95
2, 222000, Note_on_c, 0, 50, 95
2, 222240, Note_off_c, 0, 62, 80
2, 222240, Note_off_c, 0, 57, 80
2, 222240, Note_off_c, 0, 50, 80
2, 222240, Note_on_c, 0, 62, 95
2, 222240, Note_on_c, 0, 57, 95
2, 222240, Note_on_c, 0, 50, 95
2, 222480, Note_off_c, 0, 62, 80
2, 222480, Note_off_c, 0, 57, 80
2, 222480, Note_off_c, 0, 50, 80
2, 222480, Note_on_c, 0, 62, 95
2, 222480, Note_on_c, 0, 57, 95
2, 222480, Note_on_c, 0, 50, 95
2, 222720, Note_off_c, 0, 62, 80
2, 222720, Note_off_c, 0, 57, 80
2, 222720, Note_off_c, 0, 50, 80
2, 222720, Note_on_c, 0, 62, 95
2, 222720, Note_on_c, 0, 57, 95
2, 222720, Note_on_c, 0, 50, 95
2, 222960, Note_off_c, 0, 62, 80
2, 222960, Note_off_c, 0, 57, 80
2, 222960, Note_off_c, 0, 50, 80
2, 222960, Note_on_c, 0, 62, 95
2, 222960, Note_on_c, 0, 57, 95
2, 222960, Note_on_c, 0, 50, 95
2, 223200, Note_off_c, 0, 62, 80
2, 223200, Note_off_c, 0, 57, 80
2, 223200, Note_off_c, 0, 50, 80
2, 223200, Note_on_c, 0, 62, 95
2, 223200, Note_on_c, 0, 57, 95
2, 223200, Note_on_c, 0, 50, 95
2, 223440, Note_off_c, 0, 62, 80
2, 223440, Note_off_c, 0, 57, 80
2, 223440, Note_off_c, 0, 50, 80
2, 223440, Note_on_c, 0, 62, 95
2, 223440, Note_on_c, 0, 57, 95
2, 223440, Note_on_c, 0, 50, 95
2, 223680, Note_off_c, 0, 62, 80
2, 223680, Note_off_c, 0, 57, 80
2, 223680, Note_off_c, 0, 50, 80
2, 223680, Note_on_c, 0, 62, 95
2, 223680, Note_on_c, 0, 57, 95
2, 223680, Note_on_c, 0, 50, 95
2, 223920, Note_off_c, 0, 62, 80
2, 223920, Note_off_c, 0, 57, 80
2, 223920, Note_off_c, 0, 50, 80
2, 223920, Note_on_c, 0, 62, 95
2, 223920, Note_on_c, 0, 57, 95
2, 223920, Note_on_c, 0, 50, 95
2, 224160, Note_off_c, 0, 62, 80
2, 224160, Note_off_c, 0, 57, 80
2, 224160, Note_off_c, 0, 50, 80
2, 224160, Note_on_c, 0, 62, 95
2, 224160, Note_on_c, 0, 57, 95
2, 224160, Note_on_c, 0, 50, 95
2, 224400, Note_off_c, 0, 62, 80
2, 224400, Note_off_c, 0, 57, 80
2, 224400, Note_off_c, 0, 50, 80
2, 224400, Note_on_c, 0, 62, 95
2, 224400, Note_on_c, 0, 57, 95
2, 224400, Note_on_c, 0, 50, 95
2, 224640, Note_off_c, 0, 62, 80
2, 224640, Note_off_c, 0, 57, 80
2, 224640, Note_off_c, 0, 50, 80
2, 224640, Note_on_c, 0, 57, 95
2, 224640, Note_on_c, 0, 52, 95
2, 224640, Note_on_c, 0, 45, 95
2, 224880, Note_off_c, 0, 57, 80
2, 224880, Note_off_c, 0, 52, 80
2, 224880, Note_off_c, 0, 45, 80
2, 224880, Note_on_c, 0, 57, 95
2, 224880, Note_on_c, 0, 52, 95
2, 224880, Note_on_c, 0, 45, 95
2, 225120, Note_off_c, 0, 57, 80
2, 225120, Note_off_c, 0, 52, 80
2, 225120, Note_off_c, 0, 45, 80
2, 225120, Note_on_c, 0, 57, 95
2, 225120, Note_on_c, 0, 52, 95
2, 225120, Note_on_c, 0, 45, 95
2, 225360, Note_off_c, 0, 57, 80
2, 225360, Note_off_c, 0, 52, 80
2, 225360, Note_off_c, 0, 45, 80
2, 225360, Note_on_c, 0, 57, 95
2, 225360, Note_on_c, 0, 52, 95
2, 225360, Note_on_c, 0, 45, 95
2, 225600, Note_off_c, 0, 57, 80
2, 225600, Note_off_c, 0, 52, 80
2, 225600, Note_off_c, 0, 45, 80
2, 225600, Note_on_c, 0, 57, 95
2, 225600, Note_on_c, 0, 52, 95
2, 225600, Note_on_c, 0, 45, 95
2, 225840, Note_off_c, 0, 57, 80
2, 225840, Note_off_c, 0, 52, 80
2, 225840, Note_off_c, 0, 45, 80
2, 225840, Note_on_c, 0, 57, 95
2, 225840, Note_on_c, 0, 52, 95
2, 225840, Note_on_c, 0, 45, 95
2, 226080, Note_off_c, 0, 57, 80
2, 226080, Note_off_c, 0, 52, 80
2, 226080, Note_off_c, 0, 45, 80
2, 226080, Note_on_c, 0, 57, 95
2, 226080, Note_on_c, 0, 52, 95
2, 226080, Note_on_c, 0, 45, 95
2, 226320, Note_off_c, 0, 57, 80
2, 226320, Note_off_c, 0, 52, 80
2, 226320, Note_off_c, 0, 45, 80
2, 226320, Note_on_c, 0, 57, 95
2, 226320, Note_on_c, 0, 52, 95
2, 226320, Note_on_c, 0, 45, 95
2, 226560, Note_off_c, 0, 57, 80
2, 226560, Note_off_c, 0, 52, 80
2, 226560, Note_off_c, 0, 45, 80
2, 226560, Note_on_c, 0, 57, 95
2, 226560, Note_on_c, 0, 52, 95
2, 226560, Note_on_c, 0, 45, 95
2, 226800, Note_off_c, 0, 57, 80
2, 226800, Note_off_c, 0, 52, 80
2, 226800, Note_off_c, 0, 45, 80
2, 226800, Note_on_c, 0, 57, 95
2, 226800, Note_on_c, 0, 52, 95
2, 226800, Note_on_c, 0, 45, 95
2, 227040, Note_off_c, 0, 57, 80
2, 227040, Note_off_c, 0, 52, 80
2, 227040, Note_off_c, 0, 45, 80
2, 227040, Note_on_c, 0, 57, 95
2, 227040, Note_on_c, 0, 52, 95
2, 227040, Note_on_c, 0, 45, 95
2, 227280, Note_off_c, 0, 57, 80
2, 227280, Note_off_c, 0, 52, 80
2, 227280, Note_off_c, 0, 45, 80
2, 227280, Note_on_c, 0, 57, 95
2, 227280, Note_on_c, 0, 52, 95
2, 227280, Note_on_c, 0, 45, 95
2, 227520, Note_off_c, 0, 57, 80
2, 227520, Note_off_c, 0, 52, 80
2, 227520, Note_off_c, 0, 45, 80
2, 227520, Note_on_c, 0, 57, 95
2, 227520, Note_on_c, 0, 52, 95
2, 227520, Note_on_c, 0, 45, 95
2, 227760, Note_off_c, 0, 57, 80
2, 227760, Note_off_c, 0, 52, 80
2, 227760, Note_off_c, 0, 45, 80
2, 227760, Note_on_c, 0, 57, 95
2, 227760, Note_on_c, 0, 52, 95
2, 227760, Note_on_c, 0, 45, 95
2, 228000, Note_off_c, 0, 57, 80
2, 228000, Note_off_c, 0, 52, 80
2, 228000, Note_off_c, 0, 45, 80
2, 228000, Note_on_c, 0, 57, 95
2, 228000, Note_on_c, 0, 52, 95
2, 228000, Note_on_c, 0, 45, 95
2, 228240, Note_off_c, 0, 57, 80
2, 228240, Note_off_c, 0, 52, 80
2, 228240, Note_off_c, 0, 45, 80
2, 228240, Note_on_c, 0, 57, 95
2, 228240, Note_on_c, 0, 52, 95
2, 228240, Note_on_c, 0, 45, 95
2, 228480, Note_off_c, 0, 57, 80
2, 228480, Note_off_c, 0, 52, 80
2, 228480, Note_off_c, 0, 45, 80
2, 228480, Note_on_c, 0, 57, 95
2, 228480, Note_on_c, 0, 52, 95
2, 228480, Note_on_c, 0, 45, 95
2, 228720, Note_off_c, 0, 57, 80
2, 228720, Note_off_c, 0, 52, 80
2, 228720, Note_off_c, 0, 45, 80
2, 228720, Note_on_c, 0, 57, 95
2, 228720, Note_on_c, 0, 52, 95
2, 228720, Note_on_c, 0, 45, 95
2, 228960, Note_off_c, 0, 57, 80
2, 228960, Note_off_c, 0, 52, 80
2, 228960, Note_off_c, 0, 45, 80
2, 228960, Note_on_c, 0, 57, 95
2, 228960, Note_on_c, 0, 52, 95
2, 228960, Note_on_c, 0, 45, 95
2, 229200, Note_off_c, 0, 57, 80
2, 229200, Note_off_c, 0, 52, 80
2, 229200, Note_off_c, 0, 45, 80
2, 229200, Note_on_c, 0, 57, 95
2, 229200, Note_on_c, 0, 52, 95
2, 229200, Note_on_c, 0, 45, 95
2, 229440, Note_off_c, 0, 57, 80
2, 229440, Note_off_c, 0, 52, 80
2, 229440, Note_off_c, 0, 45, 80
2, 229440, Note_on_c, 0, 57, 95
2, 229440, Note_on_c, 0, 52, 95
2, 229440, Note_on_c, 0, 45, 95
2, 229680, Note_off_c, 0, 57, 80
2, 229680, Note_off_c, 0, 52, 80
2, 229680, Note_off_c, 0, 45, 80
2, 229680, Note_on_c, 0, 57, 95
2, 229680, Note_on_c, 0, 52, 95
2, 229680, Note_on_c, 0, 45, 95
2, 229920, Note_off_c, 0, 57, 80
2, 229920, Note_off_c, 0, 52, 80
2, 229920, Note_off_c, 0, 45, 80
2, 229920, Note_on_c, 0, 57, 95
2, 229920, Note_on_c, 0, 52, 95
2, 229920, Note_on_c, 0, 45, 95
2, 230160, Note_off_c, 0, 57, 80
2, 230160, Note_off_c, 0, 52, 80
2, 230160, Note_off_c, 0, 45, 80
2, 230160, Note_on_c, 0, 57, 95
2, 230160, Note_on_c, 0, 52, 95
2, 230160, Note_on_c, 0, 45, 95
2, 230400, Note_off_c, 0, 57, 80
2, 230400, Note_off_c, 0, 52, 80
2, 230400, Note_off_c, 0, 45, 80
2, 230400, Note_on_c, 0, 63, 95
2, 230400, Note_on_c, 0, 58, 95
2, 230400, Note_on_c, 0, 51, 95
2, 230640, Note_off_c, 0, 63, 80
2, 230640, Note_off_c, 0, 58, 80
2, 230640, Note_off_c, 0, 51, 80
2, 230880, Note_on_c, 0, 63, 95
2, 230880, Note_on_c, 0, 58, 95
2, 230880, Note_on_c, 0, 51, 95
2, 231120, Note_off_c, 0, 63, 80
2, 231120, Note_off_c, 0, 58, 80
2, 231120, Note_off_c, 0, 51, 80
2, 231360, Note_on_c, 0, 63, 95
2, 231360, Note_on_c, 0, 58, 95
2, 231360, Note_on_c, 0, 51, 95
2, 231480, Note_off_c, 0, 63, 80
2, 231480, Note_off_c, 0, 58, 80
2, 231480, Note_off_c, 0, 51, 80
2, 231480, Note_on_c, 0, 63, 95
2, 231480, Note_on_c, 0, 58, 95
2, 231480, Note_on_c, 0, 51, 95
2, 231600, Note_off_c, 0, 63, 80
2, 231600, Note_off_c, 0, 58, 80
2, 231600, Note_off_c, 0, 51, 80
2, 231600, Note_on_c, 0, 63, 95
2, 231600, Note_on_c, 0, 58, 95
2, 231600, Note_on_c, 0, 51, 95
2, 231720, Note_off_c, 0, 63, 80
2, 231720, Note_off_c, 0, 58, 80
2, 231720, Note_off_c, 0, 51, 80
2, 231720, Note_on_c, 0, 63, 95
2, 231720, Note_on_c, 0, 58, 95
2, 231720, Note_on_c, 0, 51, 95
2, 231840, Note_off_c, 0, 63, 80
2, 231840, Note_off_c, 0, 58, 80
2, 231840, Note_off_c, 0, 51, 80
2, 231840, Note_on_c, 0, 63, 95
2, 231840, Note_on_c, 0, 58, 95
2, 231840, Note_on_c, 0, 51, 95
2, 231960, Note_off_c, 0, 63, 80
2, 231960, Note_off_c, 0, 58, 80
2, 231960, Note_off_c, 0, 51, 80
2, 231960, Note_on_c, 0, 63, 95
2, 231960, Note_on_c, 0, 58, 95
2, 231960, Note_on_c, 0, 51, 95
2, 232080, Note_off_c, 0, 63, 80
2, 232080, Note_off_c, 0, 58, 80
2, 232080, Note_off_c, 0, 51, 80
2, 232080, Note_on_c, 0, 63, 95
2, 232080, Note_on_c, 0, 58, 95
2, 232080, Note_on_c, 0, 51, 95
2, 232200, Note_off_c, 0, 63, 80
2, 232200, Note_off_c, 0, 58, 80
2, 232200, Note_off_c, 0, 51, 80
2, 232200, Note_on_c, 0, 63, 95
2, 232200, Note_on_c, 0, 58, 95
2, 232200, Note_on_c, 0, 51, 95
2, 232320, Note_off_c, 0, 63, 80
2, 232320, Note_off_c, 0, 58, 80
2, 232320, Note_off_c, 0, 51, 80
2, 232320, Note_on_c, 0, 57, 95
2, 232320, Note_on_c, 0, 52, 95
2, 232320, Note_on_c, 0, 45, 95
2, 232560, Note_off_c, 0, 57, 80
2, 232560, Note_off_c, 0, 52, 80
2, 232560, Note_off_c, 0, 45, 80
2, 232560, Note_on_c, 0, 57, 95
2, 232560, Note_on_c, 0, 52, 95
2, 232560, Note_on_c, 0, 45, 95
2, 232800, Note_off_c, 0, 57, 80
2, 232800, Note_off_c, 0, 52, 80
2, 232800, Note_off_c, 0, 45, 80
2, 232800, Note_on_c, 0, 57, 95
2, 232800, Note_on_c, 0, 52, 95
2, 232800, Note_on_c, 0, 45, 95
2, 233040, Note_off_c, 0, 57, 80
2, 233040, Note_off_c, 0, 52, 80
2, 233040, Note_off_c, 0, 45, 80
2, 233040, Note_on_c, 0, 57, 95
2, 233040, Note_on_c, 0, 52, 95
2, 233040, Note_on_c, 0, 45, 95
2, 233280, Note_off_c, 0, 57, 80
2, 233280, Note_off_c, 0, 52, 80
2, 233280, Note_off_c, 0, 45, 80
2, 233280, Note_on_c, 0, 57, 95
2, 233280, Note_on_c, 0, 52, 95
2, 233280, Note_on_c, 0, 45, 95
2, 233520, Note_off_c, 0, 57, 80
2, 233520, Note_off_c, 0, 52, 80
2, 233520, Note_off_c, 0, 45, 80
2, 233520, Note_on_c, 0, 57, 95
2, 233520, Note_on_c, 0, 52, 95
2, 233520, Note_on_c, 0, 45, 95
2, 233760, Note_off_c, 0, 57, 80
2, 233760, Note_off_c, 0, 52, 80
2, 233760, Note_off_c, 0, 45, 80
2, 233760, Note_on_c, 0, 57, 95
2, 233760, Note_on_c, 0, 52, 95
2, 233760, Note_on_c, 0, 45, 95
2, 234000, Note_off_c, 0, 57, 80
2, 234000, Note_off_c, 0, 52, 80
2, 234000, Note_off_c, 0, 45, 80
2, 234000, Note_on_c, 0, 57, 95
2, 234000, Note_on_c, 0, 52, 95
2, 234000, Note_on_c, 0, 45, 95
2, 234240, Note_off_c, 0, 57, 80
2, 234240, Note_off_c, 0, 52, 80
2, 234240, Note_off_c, 0, 45, 80
2, 234240, Note_on_c, 0, 57, 95
2, 234240, Note_on_c, 0, 52, 95
2, 234240, Note_on_c, 0, 45, 95
2, 234480, Note_off_c, 0, 57, 80
2, 234480, Note_off_c, 0, 52, 80
2, 234480, Note_off_c, 0, 45, 80
2, 234480, Note_on_c, 0, 57, 95
2, 234480, Note_on_c, 0, 52, 95
2, 234480, Note_on_c, 0, 45, 95
2, 234720, Note_off_c, 0, 57, 80
2, 234720, Note_off_c, 0, 52, 80
2, 234720, Note_off_c, 0, 45, 80
2, 234720, Note_on_c, 0, 57, 95
2, 234720, Note_on_c, 0, 52, 95
2, 234720, Note_on_c, 0, 45, 95
2, 234960, Note_off_c, 0, 57, 80
2, 234960, Note_off_c, 0, 52, 80
2, 234960, Note_off_c, 0, 45, 80
2, 234960, Note_on_c, 0, 57, 95
2, 234960, Note_on_c, 0, 52, 95
2, 234960, Note_on_c, 0, 45, 95
2, 235200, Note_off_c, 0, 57, 80
2, 235200, Note_off_c, 0, 52, 80
2, 235200, Note_off_c, 0, 45, 80
2, 235200, Note_on_c, 0, 57, 95
2, 235200, Note_on_c, 0, 52, 95
2, 235200, Note_on_c, 0, 45, 95
2, 235440, Note_off_c, 0, 57, 80
2, 235440, Note_off_c, 0, 52, 80
2, 235440, Note_off_c, 0, 45, 80
2, 235440, Note_on_c, 0, 57, 95
2, 235440, Note_on_c, 0, 52, 95
2, 235440, Note_on_c, 0, 45, 95
2, 235680, Note_off_c, 0, 57, 80
2, 235680, Note_off_c, 0, 52, 80
2, 235680, Note_off_c, 0, 45, 80
2, 235680, Note_on_c, 0, 57, 95
2, 235680, Note_on_c, 0, 52, 95
2, 235680, Note_on_c, 0, 45, 95
2, 235920, Note_off_c, 0, 57, 80
2, 235920, Note_off_c, 0, 52, 80
2, 235920, Note_off_c, 0, 45, 80
2, 235920, Note_on_c, 0, 57, 95
2, 235920, Note_on_c, 0, 52, 95
2, 235920, Note_on_c, 0, 45, 95
2, 236160, Note_off_c, 0, 57, 80
2, 236160, Note_off_c, 0, 52, 80
2, 236160, Note_off_c, 0, 45, 80
2, 236160, Note_on_c, 0, 57, 95
2, 236160, Note_on_c, 0, 52, 95
2, 236160, Note_on_c, 0, 45, 95
2, 236400, Note_off_c, 0, 57, 80
2, 236400, Note_off_c, 0, 52, 80
2, 236400, Note_off_c, 0, 45, 80
2, 236400, Note_on_c, 0, 57, 95
2, 236400, Note_on_c, 0, 52, 95
2, 236400, Note_on_c, 0, 45, 95
2, 236640, Note_off_c, 0, 57, 80
2, 236640, Note_off_c, 0, 52, 80
2, 236640, Note_off_c, 0, 45, 80
2, 236640, Note_on_c, 0, 57, 95
2, 236640, Note_on_c, 0, 52, 95
2, 236640, Note_on_c, 0, 45, 95
2, 236880, Note_off_c, 0, 57, 80
2, 236880, Note_off_c, 0, 52, 80
2, 236880, Note_off_c, 0, 45, 80
2, 236880, Note_on_c, 0, 57, 95
2, 236880, Note_on_c, 0, 52, 95
2, 236880, Note_on_c, 0, 45, 95
2, 237120, Note_off_c, 0, 57, 80
2, 237120, Note_off_c, 0, 52, 80
2, 237120, Note_off_c, 0, 45, 80
2, 237120, Note_on_c, 0, 57, 95
2, 237120, Note_on_c, 0, 52, 95
2, 237120, Note_on_c, 0, 45, 95
2, 237360, Note_off_c, 0, 57, 80
2, 237360, Note_off_c, 0, 52, 80
2, 237360, Note_off_c, 0, 45, 80
2, 237360, Note_on_c, 0, 57, 95
2, 237360, Note_on_c, 0, 52, 95
2, 237360, Note_on_c, 0, 45, 95
2, 237600, Note_off_c, 0, 57, 80
2, 237600, Note_off_c, 0, 52, 80
2, 237600, Note_off_c, 0, 45, 80
2, 237600, Note_on_c, 0, 57, 95
2, 237600, Note_on_c, 0, 52, 95
2, 237600, Note_on_c, 0, 45, 95
2, 237840, Note_off_c, 0, 57, 80
2, 237840, Note_off_c, 0, 52, 80
2, 237840, Note_off_c, 0, 45, 80
2, 237840, Note_on_c, 0, 57, 95
2, 237840, Note_on_c, 0, 52, 95
2, 237840, Note_on_c, 0, 45, 95
2, 238080, Note_off_c, 0, 57, 80
2, 238080, Note_off_c, 0, 52, 80
2, 238080, Note_off_c, 0, 45, 80
2, 238080, Note_on_c, 0, 63, 95
2, 238080, Note_on_c, 0, 58, 95
2, 238080, Note_on_c, 0, 51, 95
2, 238320, Note_off_c, 0, 63, 80
2, 238320, Note_off_c, 0, 58, 80
2, 238320, Note_off_c, 0, 51, 80
2, 238560, Note_on_c, 0, 63, 95
2, 238560, Note_on_c, 0, 58, 95
2, 238560, Note_on_c, 0, 51, 95
2, 238800, Note_off_c, 0, 63, 80
2, 238800, Note_off_c, 0, 58, 80
2, 238800, Note_off_c, 0, 51, 80
2, 239040, Note_on_c, 0, 63, 95
2, 239040, Note_on_c, 0, 58, 95
2, 239040, Note_on_c, 0, 51, 95
2, 239160, Note_off_c, 0, 63, 80
2, 239160, Note_off_c, 0, 58, 80
2, 239160, Note_off_c, 0, 51, 80
2, 239160, Note_on_c, 0, 63, 95
2, 239160, Note_on_c, 0, 58, 95
2, 239160, Note_on_c, 0, 51, 95
2, 239280, Note_off_c, 0, 63, 80
2, 239280, Note_off_c, 0, 58, 80
2, 239280, Note_off_c, 0, 51, 80
2, 239280, Note_on_c, 0, 63, 95
2, 239280, Note_on_c, 0, 58, 95
2, 239280, Note_on_c, 0, 51, 95
2, 239400, Note_off_c, 0, 63, 80
2, 239400, Note_off_c, 0, 58, 80
2, 239400, Note_off_c, 0, 51, 80
2, 239400, Note_on_c, 0, 63, 95
2, 239400, Note_on_c, 0, 58, 95
2, 239400, Note_on_c, 0, 51, 95
2, 239520, Note_off_c, 0, 63, 80
2, 239520, Note_off_c, 0, 58, 80
2, 239520, Note_off_c, 0, 51, 80
2, 239520, Note_on_c, 0, 63, 95
2, 239520, Note_on_c, 0, 58, 95
2, 239520, Note_on_c, 0, 51, 95
2, 239640, Note_off_c, 0, 63, 80
2, 239640, Note_off_c, 0, 58, 80
2, 239640, Note_off_c, 0, 51, 80
2, 239640, Note_on_c, 0, 63, 95
2, 239640, Note_on_c, 0, 58, 95
2, 239640, Note_on_c, 0, 51, 95
2, 239760, Note_off_c, 0, 63, 80
2, 239760, Note_off_c, 0, 58, 80
2, 239760, Note_off_c, 0, 51, 80
2, 239760, Note_on_c, 0, 63, 95
2, 239760, Note_on_c, 0, 58, 95
2, 239760, Note_on_c, 0, 51, 95
2, 239880, Note_off_c, 0, 63, 80
2, 239880, Note_off_c, 0, 58, 80
2, 239880, Note_off_c, 0, 51, 80
2, 239880, Note_on_c, 0, 63, 95
2, 239880, Note_on_c, 0, 58, 95
2, 239880, Note_on_c, 0, 51, 95
2, 240000, Note_off_c, 0, 63, 80
2, 240000, Note_off_c, 0, 58, 80
2, 240000, Note_off_c, 0, 51, 80
2, 240000, Note_on_c, 0, 57, 95
2, 240000, Note_on_c, 0, 52, 95
2, 240000, Note_on_c, 0, 45, 95
2, 240240, Note_off_c, 0, 57, 80
2, 240240, Note_off_c, 0, 52, 80
2, 240240, Note_off_c, 0, 45, 80
2, 240240, Note_on_c, 0, 57, 95
2, 240240, Note_on_c, 0, 52, 95
2, 240240, Note_on_c, 0, 45, 95
2, 240480, Note_off_c, 0, 57, 80
2, 240480, Note_off_c, 0, 52, 80
2, 240480, Note_off_c, 0, 45, 80
2, 240480, Note_on_c, 0, 57, 95
2, 240480, Note_on_c, 0, 52, 95
2, 240480, Note_on_c, 0, 45, 95
2, 240720, Note_off_c, 0, 57, 80
2, 240720, Note_off_c, 0, 52, 80
2, 240720, Note_off_c, 0, 45, 80
2, 240720, Note_on_c, 0, 57, 95
2, 240720, Note_on_c, 0, 52, 95
2, 240720, Note_on_c, 0, 45, 95
2, 240960, Note_off_c, 0, 57, 80
2, 240960, Note_off_c, 0, 52, 80
2, 240960, Note_off_c, 0, 45, 80
2, 240960, Note_on_c, 0, 57, 95
2, 240960, Note_on_c, 0, 52, 95
2, 240960, Note_on_c, 0, 45, 95
2, 241200, Note_off_c, 0, 57, 80
2, 241200, Note_off_c, 0, 52, 80
2, 241200, Note_off_c, 0, 45, 80
2, 241200, Note_on_c, 0, 57, 95
2, 241200, Note_on_c, 0, 52, 95
2, 241200, Note_on_c, 0, 45, 95
2, 241440, Note_off_c, 0, 57, 80
2, 241440, Note_off_c, 0, 52, 80
2, 241440, Note_off_c, 0, 45, 80
2, 241440, Note_on_c, 0, 57, 95
2, 241440, Note_on_c, 0, 52, 95
2, 241440, Note_on_c, 0, 45, 95
2, 241680, Note_off_c, 0, 57, 80
2, 241680, Note_off_c, 0, 52, 80
2, 241680, Note_off_c, 0, 45, 80
2, 241680, Note_on_c, 0, 57, 95
2, 241680, Note_on_c, 0, 52, 95
2, 241680, Note_on_c, 0, 45, 95
2, 241920, Note_off_c, 0, 57, 80
2, 241920, Note_off_c, 0, 52, 80
2, 241920, Note_off_c, 0, 45, 80
2, 241920, Note_on_c, 0, 55, 95
2, 241920, Note_on_c, 0, 50, 95
2, 241920, Note_on_c, 0, 43, 95
2, 242400, Note_off_c, 0, 55, 80
2, 242400, Note_off_c, 0, 50, 80
2, 242400, Note_off_c, 0, 43, 80
2, 242400, End_track
3, 0, Start_track
3, 0, Title_t, "guitar2"
3, 0, Control_c, 3, 100, 0
3, 0, Control_c, 3, 101, 0
3, 0, Control_c, 3, 6, 12
3, 0, Pitch_bend_c, 3, 8192
3, 0, Control_c, 3, 101, 0
3, 0, Control_c, 3, 100, 1
3, 0, Control_c, 3, 6, 64
3, 0, Control_c, 3, 38, 0
3, 0, Control_c, 3, 101, 127
3, 0, Control_c, 3, 100, 127
3, 0, Control_c, 2, 100, 0
3, 0, Control_c, 2, 101, 0
3, 0, Control_c, 2, 6, 12
3, 0, Pitch_bend_c, 2, 8192
3, 0, Control_c, 2, 101, 0
3, 0, Control_c, 2, 100, 1
3, 0, Control_c, 2, 6, 64
3, 0, Control_c, 2, 38, 0
3, 0, Control_c, 2, 101, 127
3, 0, Control_c, 2, 100, 127
3, 0, Control_c, 3, 101, 0
3, 0, Control_c, 3, 100, 2
3, 0, Control_c, 3, 6, 64
3, 0, Control_c, 3, 101, 127
3, 0, Control_c, 3, 100, 127
3, 0, Control_c, 2, 101, 0
3, 0, Control_c, 2, 100, 2
3, 0, Control_c, 2, 6, 64
3, 0, Control_c, 2, 101, 127
3, 0, Control_c, 2, 100, 127
3, 0, Program_c, 3, 29
3, 0, Program_c, 2, 29
3, 0, Control_c, 3, 0, 0
3, 0, Control_c, 2, 0, 0
3, 0, Control_c, 3, 7, 40
3, 0, Control_c, 2, 7, 40
3, 0, Control_c, 3, 10, 104
3, 0, Control_c, 2, 10, 104
3, 0, Control_c, 3, 93, 0
3, 0, Control_c, 2, 93, 0
3, 0, Control_c, 3, 91, 0
3, 0, Control_c, 2, 91, 0
3, 0, Control_c, 3, 92, 0
3, 0, Control_c, 2, 92, 0
3, 0, Control_c, 3, 95, 0
3, 0, Control_c, 2, 95, 0
3, 1920, Note_on_c, 2, 57, 95
3, 1920, Note_on_c, 2, 52, 95
3, 1920, Note_on_c, 2, 45, 95
3, 2160, Note_off_c, 2, 57, 80
3, 2160, Note_off_c, 2, 52, 80
3, 2160, Note_off_c, 2, 45, 80
3, 2160, Note_on_c, 2, 57, 95
3, 2160, Note_on_c, 2, 52, 95
3, 2160, Note_on_c, 2, 45, 95
3, 2400, Note_off_c, 2, 57, 80
3, 2400, Note_off_c, 2, 52, 80
3, 2400, Note_off_c, 2, 45, 80
3, 2400, Note_on_c, 2, 57, 95
3, 2400, Note_on_c, 2, 52, 95
3, 2400, Note_on_c, 2, 45, 95
3, 2640, Note_off_c, 2, 57, 80
3, 2640, Note_off_c, 2, 52, 80
3, 2640, Note_off_c, 2, 45, 80
3, 2640, Note_on_c, 2, 57, 95
3, 2640, Note_on_c, 2, 52, 95
3, 2640, Note_on_c, 2, 45, 95
3, 2880, Note_off_c, 2, 57, 80
3, 2880, Note_off_c, 2, 52, 80
3, 2880, Note_off_c, 2, 45, 80
3, 2880, Note_on_c, 2, 57, 95
3, 2880, Note_on_c, 2, 52, 95
3, 2880, Note_on_c, 2, 45, 95
3, 3120, Note_off_c, 2, 57, 80
3, 3120, Note_off_c, 2, 52, 80
3, 3120, Note_off_c, 2, 45, 80
3, 3120, Note_on_c, 2, 57, 95
3, 3120, Note_on_c, 2, 52, 95
3, 3120, Note_on_c, 2, 45, 95
3, 3360, Note_off_c, 2, 57, 80
3, 3360, Note_off_c, 2, 52, 80
3, 3360, Note_off_c, 2, 45, 80
3, 3360, Note_on_c, 2, 57, 95
3, 3360, Note_on_c, 2, 52, 95
3, 3360, Note_on_c, 2, 45, 95
3, 3600, Note_off_c, 2, 57, 80
3, 3600, Note_off_c, 2, 52, 80
3, 3600, Note_off_c, 2, 45, 80
3, 3600, Note_on_c, 2, 57, 95
3, 3600, Note_on_c, 2, 52, 95
3, 3600, Note_on_c, 2, 45, 95
3, 3840, Note_off_c, 2, 57, 80
3, 3840, Note_off_c, 2, 52, 80
3, 3840, Note_off_c, 2, 45, 80
3, 3840, Note_on_c, 2, 57, 95
3, 3840, Note_on_c, 2, 52, 95
3, 3840, Note_on_c, 2, 45, 95
3, 4080, Note_off_c, 2, 57, 80
3, 4080, Note_off_c, 2, 52, 80
3, 4080, Note_off_c, 2, 45, 80
3, 4080, Note_on_c, 2, 57, 95
3, 4080, Note_on_c, 2, 52, 95
3, 4080, Note_on_c, 2, 45, 95
3, 4320, Note_off_c, 2, 57, 80
3, 4320, Note_off_c, 2, 52, 80
3, 4320, Note_off_c, 2, 45, 80
3, 4320, Note_on_c, 2, 57, 95
3, 4320, Note_on_c, 2, 52, 95
3, 4320, Note_on_c, 2, 45, 95
3, 4560, Note_off_c, 2, 57, 80
3, 4560, Note_off_c, 2, 52, 80
3, 4560, Note_off_c, 2, 45, 80
3, 4560, Note_on_c, 2, 57, 95
3, 4560, Note_on_c, 2, 52, 95
3, 4560, Note_on_c, 2, 45, 95
3, 4800, Note_off_c, 2, 57, 80
3, 4800, Note_off_c, 2, 52, 80
3, 4800, Note_off_c, 2, 45, 80
3, 4800, Note_on_c, 2, 57, 95
3, 4800, Note_on_c, 2, 52, 95
3, 4800, Note_on_c, 2, 45, 95
3, 5040, Note_off_c, 2, 57, 80
3, 5040, Note_off_c, 2, 52, 80
3, 5040, Note_off_c, 2, 45, 80
3, 5040, Note_on_c, 2, 57, 95
3, 5040, Note_on_c, 2, 52, 95
3, 5040, Note_on_c, 2, 45, 95
3, 5280, Note_off_c, 2, 57, 80
3, 5280, Note_off_c, 2, 52, 80
3, 5280, Note_off_c, 2, 45, 80
3, 5280, Note_on_c, 2, 57, 95
3, 5280, Note_on_c, 2, 52, 95
3, 5280, Note_on_c, 2, 45, 95
3, 5520, Note_off_c, 2, 57, 80
3, 5520, Note_off_c, 2, 52, 80
3, 5520, Note_off_c, 2, 45, 80
3, 5520, Note_on_c, 2, 57, 95
3, 5520, Note_on_c, 2, 52, 95
3, 5520, Note_on_c, 2, 45, 95
3, 5760, Note_off_c, 2, 57, 80
3, 5760, Note_off_c, 2, 52, 80
3, 5760, Note_off_c, 2, 45, 80
3, 5760, Note_on_c, 2, 57, 95
3, 5760, Note_on_c, 2, 52, 95
3, 5760, Note_on_c, 2, 45, 95
3, 6000, Note_off_c, 2, 57, 80
3, 6000, Note_off_c, 2, 52, 80
3, 6000, Note_off_c, 2, 45, 80
3, 6000, Note_on_c, 2, 57, 95
3, 6000, Note_on_c, 2, 52, 95
3, 6000, Note_on_c, 2, 45, 95
3, 6240, Note_off_c, 2, 57, 80
3, 6240, Note_off_c, 2, 52, 80
3, 6240, Note_off_c, 2, 45, 80
3, 6240, Note_on_c, 2, 57, 95
3, 6240, Note_on_c, 2, 52, 95
3, 6240, Note_on_c, 2, 45, 95
3, 6480, Note_off_c, 2, 57, 80
3, 6480, Note_off_c, 2, 52, 80
3, 6480, Note_off_c, 2, 45, 80
3, 6480, Note_on_c, 2, 57, 95
3, 6480, Note_on_c, 2, 52, 95
3, 6480, Note_on_c, 2, 45, 95
3, 6720, Note_off_c, 2, 57, 80
3, 6720, Note_off_c, 2, 52, 80
3, 6720, Note_off_c, 2, 45, 80
3, 6720, Note_on_c, 2, 57, 95
3, 6720, Note_on_c, 2, 52, 95
3, 6720, Note_on_c, 2, 45, 95
3, 6960, Note_off_c, 2, 57, 80
3, 6960, Note_off_c, 2, 52, 80
3, 6960, Note_off_c, 2, 45, 80
3, 6960, Note_on_c, 2, 57, 95
3, 6960, Note_on_c, 2, 52, 95
3, 6960, Note_on_c, 2, 45, 95
3, 7200, Note_off_c, 2, 57, 80
3, 7200, Note_off_c, 2, 52, 80
3, 7200, Note_off_c, 2, 45, 80
3, 7200, Note_on_c, 2, 57, 95
3, 7200, Note_on_c, 2, 52, 95
3, 7200, Note_on_c, 2, 45, 95
3, 7440, Note_off_c, 2, 57, 80
3, 7440, Note_off_c, 2, 52, 80
3, 7440, Note_off_c, 2, 45, 80
3, 7440, Note_on_c, 2, 57, 95
3, 7440, Note_on_c, 2, 52, 95
3, 7440, Note_on_c, 2, 45, 95
3, 7680, Note_off_c, 2, 57, 80
3, 7680, Note_off_c, 2, 52, 80
3, 7680, Note_off_c, 2, 45, 80
3, 7680, Note_on_c, 2, 63, 95
3, 7680, Note_on_c, 2, 58, 95
3, 7680, Note_on_c, 2, 51, 95
3, 7920, Note_off_c, 2, 63, 80
3, 7920, Note_off_c, 2, 58, 80
3, 7920, Note_off_c, 2, 51, 80
3, 8160, Note_on_c, 2, 63, 95
3, 8160, Note_on_c, 2, 58, 95
3, 8160, Note_on_c, 2, 51, 95
3, 8400, Note_off_c, 2, 63, 80
3, 8400, Note_off_c, 2, 58, 80
3, 8400, Note_off_c, 2, 51, 80
3, 8640, Note_on_c, 2, 63, 95
3, 8640, Note_on_c, 2, 58, 95
3, 8640, Note_on_c, 2, 51, 95
3, 8760, Note_off_c, 2, 63, 80
3, 8760, Note_off_c, 2, 58, 80
3, 8760, Note_off_c, 2, 51, 80
3, 8760, Note_on_c, 2, 63, 95
3, 8760, Note_on_c, 2, 58, 95
3, 8760, Note_on_c, 2, 51, 95
3, 8880, Note_off_c, 2, 63, 80
3, 8880, Note_off_c, 2, 58, 80
3, 8880, Note_off_c, 2, 51, 80
3, 8880, Note_on_c, 2, 63, 95
3, 8880, Note_on_c, 2, 58, 95
3, 8880, Note_on_c, 2, 51, 95
3, 9000, Note_off_c, 2, 63, 80
3, 9000, Note_off_c, 2, 58, 80
3, 9000, Note_off_c, 2, 51, 80
3, 9000, Note_on_c, 2, 63, 95
3, 9000, Note_on_c, 2, 58, 95
3, 9000, Note_on_c, 2, 51, 95
3, 9120, Note_off_c, 2, 63, 80
3, 9120, Note_off_c, 2, 58, 80
3, 9120, Note_off_c, 2, 51, 80
3, 9120, Note_on_c, 2, 63, 95
3, 9120, Note_on_c, 2, 58, 95
3, 9120, Note_on_c, 2, 51, 95
3, 9240, Note_off_c, 2, 63, 80
3, 9240, Note_off_c, 2, 58, 80
3, 9240, Note_off_c, 2, 51, 80
3, 9240, Note_on_c, 2, 63, 95
3, 9240, Note_on_c, 2, 58, 95
3, 9240, Note_on_c, 2, 51, 95
3, 9360, Note_off_c, 2, 63, 80
3, 9360, Note_off_c, 2, 58, 80
3, 9360, Note_off_c, 2, 51, 80
3, 9360, Note_on_c, 2, 63, 95
3, 9360, Note_on_c, 2, 58, 95
3, 9360, Note_on_c, 2, 51, 95
3, 9480, Note_off_c, 2, 63, 80
3, 9480, Note_off_c, 2, 58, 80
3, 9480, Note_off_c, 2, 51, 80
3, 9480, Note_on_c, 2, 63, 95
3, 9480, Note_on_c, 2, 58, 95
3, 9480, Note_on_c, 2, 51, 95
3, 9600, Note_off_c, 2, 63, 80
3, 9600, Note_off_c, 2, 58, 80
3, 9600, Note_off_c, 2, 51, 80
3, 9600, Note_on_c, 2, 57, 95
3, 9600, Note_on_c, 2, 52, 95
3, 9600, Note_on_c, 2, 45, 95
3, 9840, Note_off_c, 2, 57, 80
3, 9840, Note_off_c, 2, 52, 80
3, 9840, Note_off_c, 2, 45, 80
3, 9840, Note_on_c, 2, 57, 95
3, 9840, Note_on_c, 2, 52, 95
3, 9840, Note_on_c, 2, 45, 95
3, 10080, Note_off_c, 2, 57, 80
3, 10080, Note_off_c, 2, 52, 80
3, 10080, Note_off_c, 2, 45, 80
3, 10080, Note_on_c, 2, 57, 95
3, 10080, Note_on_c, 2, 52, 95
3, 10080, Note_on_c, 2, 45, 95
3, 10320, Note_off_c, 2, 57, 80
3, 10320, Note_off_c, 2, 52, 80
3, 10320, Note_off_c, 2, 45, 80
3, 10320, Note_on_c, 2, 57, 95
3, 10320, Note_on_c, 2, 52, 95
3, 10320, Note_on_c, 2, 45, 95
3, 10560, Note_off_c, 2, 57, 80
3, 10560, Note_off_c, 2, 52, 80
3, 10560, Note_off_c, 2, 45, 80
3, 10560, Note_on_c, 2, 57, 95
3, 10560, Note_on_c, 2, 52, 95
3, 10560, Note_on_c, 2, 45, 95
3, 10800, Note_off_c, 2, 57, 80
3, 10800, Note_off_c, 2, 52, 80
3, 10800, Note_off_c, 2, 45, 80
3, 10800, Note_on_c, 2, 57, 95
3, 10800, Note_on_c, 2, 52, 95
3, 10800, Note_on_c, 2, 45, 95
3, 11040, Note_off_c, 2, 57, 80
3, 11040, Note_off_c, 2, 52, 80
3, 11040, Note_off_c, 2, 45, 80
3, 11040, Note_on_c, 2, 57, 95
3, 11040, Note_on_c, 2, 52, 95
3, 11040, Note_on_c, 2, 45, 95
3, 11280, Note_off_c, 2, 57, 80
3, 11280, Note_off_c, 2, 52, 80
3, 11280, Note_off_c, 2, 45, 80
3, 11280, Note_on_c, 2, 57, 95
3, 11280, Note_on_c, 2, 52, 95
3, 11280, Note_on_c, 2, 45, 95
3, 11520, Note_off_c, 2, 57, 80
3, 11520, Note_off_c, 2, 52, 80
3, 11520, Note_off_c, 2, 45, 80
3, 11520, Note_on_c, 2, 57, 95
3, 11520, Note_on_c, 2, 52, 95
3, 11520, Note_on_c, 2, 45, 95
3, 11760, Note_off_c, 2, 57, 80
3, 11760, Note_off_c, 2, 52, 80
3, 11760, Note_off_c, 2, 45, 80
3, 11760, Note_on_c, 2, 57, 95
3, 11760, Note_on_c, 2, 52, 95
3, 11760, Note_on_c, 2, 45, 95
3, 12000, Note_off_c, 2, 57, 80
3, 12000, Note_off_c, 2, 52, 80
3, 12000, Note_off_c, 2, 45, 80
3, 12000, Note_on_c, 2, 57, 95
3, 12000, Note_on_c, 2, 52, 95
3, 12000, Note_on_c, 2, 45, 95
3, 12240, Note_off_c, 2, 57, 80
3, 12240, Note_off_c, 2, 52, 80
3, 12240, Note_off_c, 2, 45, 80
3, 12240, Note_on_c, 2, 57, 95
3, 12240, Note_on_c, 2, 52, 95
3, 12240, Note_on_c, 2, 45, 95
3, 12480, Note_off_c, 2, 57, 80
3, 12480, Note_off_c, 2, 52, 80
3, 12480, Note_off_c, 2, 45, 80
3, 12480, Note_on_c, 2, 57, 95
3, 12480, Note_on_c, 2, 52, 95
3, 12480, Note_on_c, 2, 45, 95
3, 12720, Note_off_c, 2, 57, 80
3, 12720, Note_off_c, 2, 52, 80
3, 12720, Note_off_c, 2, 45, 80
3, 12720, Note_on_c, 2, 57, 95
3, 12720, Note_on_c, 2, 52, 95
3, 12720, Note_on_c, 2, 45, 95
3, 12960, Note_off_c, 2, 57, 80
3, 12960, Note_off_c, 2, 52, 80
3, 12960, Note_off_c, 2, 45, 80
3, 12960, Note_on_c, 2, 57, 95
3, 12960, Note_on_c, 2, 52, 95
3, 12960, Note_on_c, 2, 45, 95
3, 13200, Note_off_c, 2, 57, 80
3, 13200, Note_off_c, 2, 52, 80
3, 13200, Note_off_c, 2, 45, 80
3, 13200, Note_on_c, 2, 57, 95
3, 13200, Note_on_c, 2, 52, 95
3, 13200, Note_on_c, 2, 45, 95
3, 13440, Note_off_c, 2, 57, 80
3, 13440, Note_off_c, 2, 52, 80
3, 13440, Note_off_c, 2, 45, 80
3, 13440, Note_on_c, 2, 57, 95
3, 13440, Note_on_c, 2, 52, 95
3, 13440, Note_on_c, 2, 45, 95
3, 13680, Note_off_c, 2, 57, 80
3, 13680, Note_off_c, 2, 52, 80
3, 13680, Note_off_c, 2, 45, 80
3, 13680, Note_on_c, 2, 57, 95
3, 13680, Note_on_c, 2, 52, 95
3, 13680, Note_on_c, 2, 45, 95
3, 13920, Note_off_c, 2, 57, 80
3, 13920, Note_off_c, 2, 52, 80
3, 13920, Note_off_c, 2, 45, 80
3, 13920, Note_on_c, 2, 57, 95
3, 13920, Note_on_c, 2, 52, 95
3, 13920, Note_on_c, 2, 45, 95
3, 14160, Note_off_c, 2, 57, 80
3, 14160, Note_off_c, 2, 52, 80
3, 14160, Note_off_c, 2, 45, 80
3, 14160, Note_on_c, 2, 57, 95
3, 14160, Note_on_c, 2, 52, 95
3, 14160, Note_on_c, 2, 45, 95
3, 14400, Note_off_c, 2, 57, 80
3, 14400, Note_off_c, 2, 52, 80
3, 14400, Note_off_c, 2, 45, 80
3, 14400, Note_on_c, 2, 57, 95
3, 14400, Note_on_c, 2, 52, 95
3, 14400, Note_on_c, 2, 45, 95
3, 14640, Note_off_c, 2, 57, 80
3, 14640, Note_off_c, 2, 52, 80
3, 14640, Note_off_c, 2, 45, 80
3, 14640, Note_on_c, 2, 57, 95
3, 14640, Note_on_c, 2, 52, 95
3, 14640, Note_on_c, 2, 45, 95
3, 14880, Note_off_c, 2, 57, 80
3, 14880, Note_off_c, 2, 52, 80
3, 14880, Note_off_c, 2, 45, 80
3, 14880, Note_on_c, 2, 57, 95
3, 14880, Note_on_c, 2, 52, 95
3, 14880, Note_on_c, 2, 45, 95
3, 15120, Note_off_c, 2, 57, 80
3, 15120, Note_off_c, 2, 52, 80
3, 15120, Note_off_c, 2, 45, 80
3, 15120, Note_on_c, 2, 57, 95
3, 15120, Note_on_c, 2, 52, 95
3, 15120, Note_on_c, 2, 45, 95
3, 15360, Note_off_c, 2, 57, 80
3, 15360, Note_off_c, 2, 52, 80
3, 15360, Note_off_c, 2, 45, 80
3, 15360, Note_on_c, 2, 63, 95
3, 15360, Note_on_c, 2, 58, 95
3, 15360, Note_on_c, 2, 51, 95
3, 15600, Note_off_c, 2, 63, 80
3, 15600, Note_off_c, 2, 58, 80
3, 15600, Note_off_c, 2, 51, 80
3, 15840, Note_on_c, 2, 63, 95
3, 15840, Note_on_c, 2, 58, 95
3, 15840, Note_on_c, 2, 51, 95
3, 16080, Note_off_c, 2, 63, 80
3, 16080, Note_off_c, 2, 58, 80
3, 16080, Note_off_c, 2, 51, 80
3, 16320, Note_on_c, 2, 63, 95
3, 16320, Note_on_c, 2, 58, 95
3, 16320, Note_on_c, 2, 51, 95
3, 16440, Note_off_c, 2, 63, 80
3, 16440, Note_off_c, 2, 58, 80
3, 16440, Note_off_c, 2, 51, 80
3, 16440, Note_on_c, 2, 63, 95
3, 16440, Note_on_c, 2, 58, 95
3, 16440, Note_on_c, 2, 51, 95
3, 16560, Note_off_c, 2, 63, 80
3, 16560, Note_off_c, 2, 58, 80
3, 16560, Note_off_c, 2, 51, 80
3, 16560, Note_on_c, 2, 63, 95
3, 16560, Note_on_c, 2, 58, 95
3, 16560, Note_on_c, 2, 51, 95
3, 16680, Note_off_c, 2, 63, 80
3, 16680, Note_off_c, 2, 58, 80
3, 16680, Note_off_c, 2, 51, 80
3, 16680, Note_on_c, 2, 63, 95
3, 16680, Note_on_c, 2, 58, 95
3, 16680, Note_on_c, 2, 51, 95
3, 16800, Note_off_c, 2, 63, 80
3, 16800, Note_off_c, 2, 58, 80
3, 16800, Note_off_c, 2, 51, 80
3, 16800, Note_on_c, 2, 63, 95
3, 16800, Note_on_c, 2, 58, 95
3, 16800, Note_on_c, 2, 51, 95
3, 16920, Note_off_c, 2, 63, 80
3, 16920, Note_off_c, 2, 58, 80
3, 16920, Note_off_c, 2, 51, 80
3, 16920, Note_on_c, 2, 63, 95
3, 16920, Note_on_c, 2, 58, 95
3, 16920, Note_on_c, 2, 51, 95
3, 17040, Note_off_c, 2, 63, 80
3, 17040, Note_off_c, 2, 58, 80
3, 17040, Note_off_c, 2, 51, 80
3, 17040, Note_on_c, 2, 63, 95
3, 17040, Note_on_c, 2, 58, 95
3, 17040, Note_on_c, 2, 51, 95
3, 17160, Note_off_c, 2, 63, 80
3, 17160, Note_off_c, 2, 58, 80
3, 17160, Note_off_c, 2, 51, 80
3, 17160, Note_on_c, 2, 63, 95
3, 17160, Note_on_c, 2, 58, 95
3, 17160, Note_on_c, 2, 51, 95
3, 17280, Note_off_c, 2, 63, 80
3, 17280, Note_off_c, 2, 58, 80
3, 17280, Note_off_c, 2, 51, 80
3, 17280, Note_on_c, 2, 57, 95
3, 17280, Note_on_c, 2, 52, 95
3, 17280, Note_on_c, 2, 45, 95
3, 17520, Note_off_c, 2, 57, 80
3, 17520, Note_off_c, 2, 52, 80
3, 17520, Note_off_c, 2, 45, 80
3, 17520, Note_on_c, 2, 57, 95
3, 17520, Note_on_c, 2, 52, 95
3, 17520, Note_on_c, 2, 45, 95
3, 17760, Note_off_c, 2, 57, 80
3, 17760, Note_off_c, 2, 52, 80
3, 17760, Note_off_c, 2, 45, 80
3, 17760, Note_on_c, 2, 57, 95
3, 17760, Note_on_c, 2, 52, 95
3, 17760, Note_on_c, 2, 45, 95
3, 18000, Note_off_c, 2, 57, 80
3, 18000, Note_off_c, 2, 52, 80
3, 18000, Note_off_c, 2, 45, 80
3, 18000, Note_on_c, 2, 57, 95
3, 18000, Note_on_c, 2, 52, 95
3, 18000, Note_on_c, 2, 45, 95
3, 18240, Note_off_c, 2, 57, 80
3, 18240, Note_off_c, 2, 52, 80
3, 18240, Note_off_c, 2, 45, 80
3, 18240, Note_on_c, 2, 57, 95
3, 18240, Note_on_c, 2, 52, 95
3, 18240, Note_on_c, 2, 45, 95
3, 18480, Note_off_c, 2, 57, 80
3, 18480, Note_off_c, 2, 52, 80
3, 18480, Note_off_c, 2, 45, 80
3, 18480, Note_on_c, 2, 57, 95
3, 18480, Note_on_c, 2, 52, 95
3, 18480, Note_on_c, 2, 45, 95
3, 18720, Note_off_c, 2, 57, 80
3, 18720, Note_off_c, 2, 52, 80
3, 18720, Note_off_c, 2, 45, 80
3, 18720, Note_on_c, 2, 57, 95
3, 18720, Note_on_c, 2, 52, 95
3, 18720, Note_on_c, 2, 45, 95
3, 18960, Note_off_c, 2, 57, 80
3, 18960, Note_off_c, 2, 52, 80
3, 18960, Note_off_c, 2, 45, 80
3, 18960, Note_on_c, 2, 57, 95
3, 18960, Note_on_c, 2, 52, 95
3, 18960, Note_on_c, 2, 45, 95
3, 19200, Note_off_c, 2, 57, 80
3, 19200, Note_off_c, 2, 52, 80
3, 19200, Note_off_c, 2, 45, 80
3, 19200, Note_on_c, 2, 57, 95
3, 19200, Note_on_c, 2, 52, 95
3, 19200, Note_on_c, 2, 45, 95
3, 19440, Note_off_c, 2, 57, 80
3, 19440, Note_off_c, 2, 52, 80
3, 19440, Note_off_c, 2, 45, 80
3, 19440, Note_on_c, 2, 57, 95
3, 19440, Note_on_c, 2, 52, 95
3, 19440, Note_on_c, 2, 45, 95
3, 19680, Note_off_c, 2, 57, 80
3, 19680, Note_off_c, 2, 52, 80
3, 19680, Note_off_c, 2, 45, 80
3, 19680, Note_on_c, 2, 57, 95
3, 19680, Note_on_c, 2, 52, 95
3, 19680, Note_on_c, 2, 45, 95
3, 19920, Note_off_c, 2, 57, 80
3, 19920, Note_off_c, 2, 52, 80
3, 19920, Note_off_c, 2, 45, 80
3, 19920, Note_on_c, 2, 57, 95
3, 19920, Note_on_c, 2, 52, 95
3, 19920, Note_on_c, 2, 45, 95
3, 20160, Note_off_c, 2, 57, 80
3, 20160, Note_off_c, 2, 52, 80
3, 20160, Note_off_c, 2, 45, 80
3, 20160, Note_on_c, 2, 57, 95
3, 20160, Note_on_c, 2, 52, 95
3, 20160, Note_on_c, 2, 45, 95
3, 20400, Note_off_c, 2, 57, 80
3, 20400, Note_off_c, 2, 52, 80
3, 20400, Note_off_c, 2, 45, 80
3, 20400, Note_on_c, 2, 57, 95
3, 20400, Note_on_c, 2, 52, 95
3, 20400, Note_on_c, 2, 45, 95
3, 20640, Note_off_c, 2, 57, 80
3, 20640, Note_off_c, 2, 52, 80
3, 20640, Note_off_c, 2, 45, 80
3, 20640, Note_on_c, 2, 57, 95
3, 20640, Note_on_c, 2, 52, 95
3, 20640, Note_on_c, 2, 45, 95
3, 20880, Note_off_c, 2, 57, 80
3, 20880, Note_off_c, 2, 52, 80
3, 20880, Note_off_c, 2, 45, 80
3, 20880, Note_on_c, 2, 57, 95
3, 20880, Note_on_c, 2, 52, 95
3, 20880, Note_on_c, 2, 45, 95
3, 21120, Note_off_c, 2, 57, 80
3, 21120, Note_off_c, 2, 52, 80
3, 21120, Note_off_c, 2, 45, 80
3, 21120, Note_on_c, 2, 57, 95
3, 21120, Note_on_c, 2, 52, 95
3, 21120, Note_on_c, 2, 45, 95
3, 21360, Note_off_c, 2, 57, 80
3, 21360, Note_off_c, 2, 52, 80
3, 21360, Note_off_c, 2, 45, 80
3, 21360, Note_on_c, 2, 57, 95
3, 21360, Note_on_c, 2, 52, 95
3, 21360, Note_on_c, 2, 45, 95
3, 21600, Note_off_c, 2, 57, 80
3, 21600, Note_off_c, 2, 52, 80
3, 21600, Note_off_c, 2, 45, 80
3, 21600, Note_on_c, 2, 57, 95
3, 21600, Note_on_c, 2, 52, 95
3, 21600, Note_on_c, 2, 45, 95
3, 21840, Note_off_c, 2, 57, 80
3, 21840, Note_off_c, 2, 52, 80
3, 21840, Note_off_c, 2, 45, 80
3, 21840, Note_on_c, 2, 57, 95
3, 21840, Note_on_c, 2, 52, 95
3, 21840, Note_on_c, 2, 45, 95
3, 22080, Note_off_c, 2, 57, 80
3, 22080, Note_off_c, 2, 52, 80
3, 22080, Note_off_c, 2, 45, 80
3, 22080, Note_on_c, 2, 57, 95
3, 22080, Note_on_c, 2, 52, 95
3, 22080, Note_on_c, 2, 45, 95
3, 22320, Note_off_c, 2, 57, 80
3, 22320, Note_off_c, 2, 52, 80
3, 22320, Note_off_c, 2, 45, 80
3, 22320, Note_on_c, 2, 57, 95
3, 22320, Note_on_c, 2, 52, 95
3, 22320, Note_on_c, 2, 45, 95
3, 22560, Note_off_c, 2, 57, 80
3, 22560, Note_off_c, 2, 52, 80
3, 22560, Note_off_c, 2, 45, 80
3, 22560, Note_on_c, 2, 57, 95
3, 22560, Note_on_c, 2, 52, 95
3, 22560, Note_on_c, 2, 45, 95
3, 22800, Note_off_c, 2, 57, 80
3, 22800, Note_off_c, 2, 52, 80
3, 22800, Note_off_c, 2, 45, 80
3, 22800, Note_on_c, 2, 57, 95
3, 22800, Note_on_c, 2, 52, 95
3, 22800, Note_on_c, 2, 45, 95
3, 23040, Note_off_c, 2, 57, 80
3, 23040, Note_off_c, 2, 52, 80
3, 23040, Note_off_c, 2, 45, 80
3, 23040, Note_on_c, 2, 63, 95
3, 23040, Note_on_c, 2, 58, 95
3, 23040, Note_on_c, 2, 51, 95
3, 23280, Note_off_c, 2, 63, 80
3, 23280, Note_off_c, 2, 58, 80
3, 23280, Note_off_c, 2, 51, 80
3, 23520, Note_on_c, 2, 63, 95
3, 23520, Note_on_c, 2, 58, 95
3, 23520, Note_on_c, 2, 51, 95
3, 23760, Note_off_c, 2, 63, 80
3, 23760, Note_off_c, 2, 58, 80
3, 23760, Note_off_c, 2, 51, 80
3, 24000, Note_on_c, 2, 63, 95
3, 24000, Note_on_c, 2, 58, 95
3, 24000, Note_on_c, 2, 51, 95
3, 24120, Note_off_c, 2, 63, 80
3, 24120, Note_off_c, 2, 58, 80
3, 24120, Note_off_c, 2, 51, 80
3, 24120, Note_on_c, 2, 63, 95
3, 24120, Note_on_c, 2, 58, 95
3, 24120, Note_on_c, 2, 51, 95
3, 24240, Note_off_c, 2, 63, 80
3, 24240, Note_off_c, 2, 58, 80
3, 24240, Note_off_c, 2, 51, 80
3, 24240, Note_on_c, 2, 63, 95
3, 24240, Note_on_c, 2, 58, 95
3, 24240, Note_on_c, 2, 51, 95
3, 24360, Note_off_c, 2, 63, 80
3, 24360, Note_off_c, 2, 58, 80
3, 24360, Note_off_c, 2, 51, 80
3, 24360, Note_on_c, 2, 63, 95
3, 24360, Note_on_c, 2, 58, 95
3, 24360, Note_on_c, 2, 51, 95
3, 24480, Note_off_c, 2, 63, 80
3, 24480, Note_off_c, 2, 58, 80
3, 24480, Note_off_c, 2, 51, 80
3, 24480, Note_on_c, 2, 63, 95
3, 24480, Note_on_c, 2, 58, 95
3, 24480, Note_on_c, 2, 51, 95
3, 24600, Note_off_c, 2, 63, 80
3, 24600, Note_off_c, 2, 58, 80
3, 24600, Note_off_c, 2, 51, 80
3, 24600, Note_on_c, 2, 63, 95
3, 24600, Note_on_c, 2, 58, 95
3, 24600, Note_on_c, 2, 51, 95
3, 24720, Note_off_c, 2, 63, 80
3, 24720, Note_off_c, 2, 58, 80
3, 24720, Note_off_c, 2, 51, 80
3, 24720, Note_on_c, 2, 63, 95
3, 24720, Note_on_c, 2, 58, 95
3, 24720, Note_on_c, 2, 51, 95
3, 24840, Note_off_c, 2, 63, 80
3, 24840, Note_off_c, 2, 58, 80
3, 24840, Note_off_c, 2, 51, 80
3, 24840, Note_on_c, 2, 63, 95
3, 24840, Note_on_c, 2, 58, 95
3, 24840, Note_on_c, 2, 51, 95
3, 24960, Note_off_c, 2, 63, 80
3, 24960, Note_off_c, 2, 58, 80
3, 24960, Note_off_c, 2, 51, 80
3, 24960, Note_on_c, 2, 57, 95
3, 24960, Note_on_c, 2, 52, 95
3, 24960, Note_on_c, 2, 45, 95
3, 25200, Note_off_c, 2, 57, 80
3, 25200, Note_off_c, 2, 52, 80
3, 25200, Note_off_c, 2, 45, 80
3, 25200, Note_on_c, 2, 57, 95
3, 25200, Note_on_c, 2, 52, 95
3, 25200, Note_on_c, 2, 45, 95
3, 25440, Note_off_c, 2, 57, 80
3, 25440, Note_off_c, 2, 52, 80
3, 25440, Note_off_c, 2, 45, 80
3, 25440, Note_on_c, 2, 57, 95
3, 25440, Note_on_c, 2, 52, 95
3, 25440, Note_on_c, 2, 45, 95
3, 25680, Note_off_c, 2, 57, 80
3, 25680, Note_off_c, 2, 52, 80
3, 25680, Note_off_c, 2, 45, 80
3, 25680, Note_on_c, 2, 57, 95
3, 25680, Note_on_c, 2, 52, 95
3, 25680, Note_on_c, 2, 45, 95
3, 25920, Note_off_c, 2, 57, 80
3, 25920, Note_off_c, 2, 52, 80
3, 25920, Note_off_c, 2, 45, 80
3, 25920, Note_on_c, 2, 57, 95
3, 25920, Note_on_c, 2, 52, 95
3, 25920, Note_on_c, 2, 45, 95
3, 26160, Note_off_c, 2, 57, 80
3, 26160, Note_off_c, 2, 52, 80
3, 26160, Note_off_c, 2, 45, 80
3, 26160, Note_on_c, 2, 57, 95
3, 26160, Note_on_c, 2, 52, 95
3, 26160, Note_on_c, 2, 45, 95
3, 26400, Note_off_c, 2, 57, 80
3, 26400, Note_off_c, 2, 52, 80
3, 26400, Note_off_c, 2, 45, 80
3, 26400, Note_on_c, 2, 57, 95
3, 26400, Note_on_c, 2, 52, 95
3, 26400, Note_on_c, 2, 45, 95
3, 26640, Note_off_c, 2, 57, 80
3, 26640, Note_off_c, 2, 52, 80
3, 26640, Note_off_c, 2, 45, 80
3, 26640, Note_on_c, 2, 57, 95
3, 26640, Note_on_c, 2, 52, 95
3, 26640, Note_on_c, 2, 45, 95
3, 26880, Note_off_c, 2, 57, 80
3, 26880, Note_off_c, 2, 52, 80
3, 26880, Note_off_c, 2, 45, 80
3, 57600, Note_on_c, 2, 57, 95
3, 57600, Note_on_c, 2, 52, 95
3, 57600, Note_on_c, 2, 45, 95
3, 58080, Note_off_c, 2, 57, 80
3, 58080, Note_off_c, 2, 52, 80
3, 58080, Note_off_c, 2, 45, 80
3, 58080, Note_on_c, 2, 57, 95
3, 58080, Note_on_c, 2, 52, 95
3, 58080, Note_on_c, 2, 45, 95
3, 58440, Note_off_c, 2, 57, 80
3, 58440, Note_on_c, 2, 57, 95
3, 58500, Note_off_c, 2, 52, 80
3, 58500, Note_off_c, 2, 45, 80
3, 58500, Note_on_c, 2, 52, 95
3, 58500, Note_on_c, 2, 45, 95
3, 58559, Note_off_c, 2, 57, 80
3, 58559, Note_off_c, 2, 52, 80
3, 58559, Note_off_c, 2, 45, 80
3, 58560, Note_on_c, 2, 55, 95
3, 58560, Note_on_c, 2, 50, 95
3, 58560, Note_on_c, 2, 43, 95
3, 58800, Note_off_c, 2, 55, 80
3, 58800, Note_off_c, 2, 50, 80
3, 58800, Note_off_c, 2, 43, 80
3, 58800, Note_on_c, 2, 55, 95
3, 58800, Note_on_c, 2, 50, 95
3, 58800, Note_on_c, 2, 43, 95
3, 59040, Note_off_c, 2, 55, 80
3, 59040, Note_off_c, 2, 50, 80
3, 59040, Note_off_c, 2, 43, 80
3, 59040, Note_on_c, 2, 55, 95
3, 59040, Note_on_c, 2, 50, 95
3, 59040, Note_on_c, 2, 43, 95
3, 59280, Note_off_c, 2, 55, 80
3, 59280, Note_off_c, 2, 50, 80
3, 59280, Note_off_c, 2, 43, 80
3, 59280, Note_on_c, 2, 55, 95
3, 59280, Note_on_c, 2, 50, 95
3, 59280, Note_on_c, 2, 43, 95
3, 59520, Note_off_c, 2, 55, 80
3, 59520, Note_off_c, 2, 50, 80
3, 59520, Note_off_c, 2, 43, 80
3, 59520, Note_on_c, 2, 52, 95
3, 59520, Note_on_c, 2, 47, 95
3, 59520, Note_on_c, 2, 40, 95
3, 60000, Note_off_c, 2, 52, 80
3, 60000, Note_off_c, 2, 47, 80
3, 60000, Note_off_c, 2, 40, 80
3, 60000, Note_on_c, 2, 52, 95
3, 60000, Note_on_c, 2, 47, 95
3, 60000, Note_on_c, 3, 40, 95
3, 60360, Pitch_bend_c, 3, 8832
3, 60390, Pitch_bend_c, 3, 9600
3, 60420, Pitch_bend_c, 3, 10240
3, 60450, Pitch_bend_c, 3, 10880
3, 60480, Note_off_c, 2, 52, 80
3, 60480, Note_off_c, 2, 47, 80
3, 60480, Pitch_bend_c, 3, 11648
3, 60720, Note_off_c, 3, 40, 80
3, 60720, Note_on_c, 2, 45, 76
3, 60840, Note_off_c, 2, 45, 80
3, 60840, Note_on_c, 2, 43, 95
3, 60960, Note_off_c, 2, 43, 80
3, 60960, Note_on_c, 2, 43, 76
3, 61200, Note_off_c, 2, 43, 80
3, 61200, Note_on_c, 2, 40, 95
3, 61440, Note_off_c, 2, 40, 80
3, 61440, Note_on_c, 2, 57, 95
3, 61440, Note_on_c, 2, 52, 95
3, 61440, Note_on_c, 2, 45, 95
3, 61920, Note_off_c, 2, 57, 80
3, 61920, Note_off_c, 2, 52, 80
3, 61920, Note_off_c, 2, 45, 80
3, 61920, Note_on_c, 2, 57, 95
3, 61920, Note_on_c, 2, 52, 95
3, 61920, Note_on_c, 2, 45, 95
3, 62280, Note_off_c, 2, 57, 80
3, 62280, Note_on_c, 2, 57, 95
3, 62340, Note_off_c, 2, 52, 80
3, 62340, Note_off_c, 2, 45, 80
3, 62340, Note_on_c, 2, 52, 95
3, 62340, Note_on_c, 2, 45, 95
3, 62399, Note_off_c, 2, 57, 80
3, 62399, Note_off_c, 2, 52, 80
3, 62399, Note_off_c, 2, 45, 80
3, 62400, Note_on_c, 2, 55, 95
3, 62400, Note_on_c, 2, 50, 95
3, 62400, Note_on_c, 2, 43, 95
3, 62640, Note_off_c, 2, 55, 80
3, 62640, Note_off_c, 2, 50, 80
3, 62640, Note_off_c, 2, 43, 80
3, 62640, Note_on_c, 2, 55, 95
3, 62640, Note_on_c, 2, 50, 95
3, 62640, Note_on_c, 2, 43, 95
3, 62880, Note_off_c, 2, 55, 80
3, 62880, Note_off_c, 2, 50, 80
3, 62880, Note_off_c, 2, 43, 80
3, 62880, Note_on_c, 2, 55, 95
3, 62880, Note_on_c, 2, 50, 95
3, 62880, Note_on_c, 2, 43, 95
3, 63120, Note_off_c, 2, 55, 80
3, 63120, Note_off_c, 2, 50, 80
3, 63120, Note_off_c, 2, 43, 80
3, 63120, Note_on_c, 2, 55, 95
3, 63120, Note_on_c, 2, 50, 95
3, 63120, Note_on_c, 2, 43, 95
3, 63360, Note_off_c, 2, 55, 80
3, 63360, Note_off_c, 2, 50, 80
3, 63360, Note_off_c, 2, 43, 80
3, 63360, Note_on_c, 2, 52, 95
3, 63360, Note_on_c, 2, 47, 95
3, 63360, Note_on_c, 2, 40, 95
3, 63840, Note_off_c, 2, 52, 80
3, 63840, Note_off_c, 2, 47, 80
3, 63840, Note_off_c, 2, 40, 80
3, 63840, Note_on_c, 2, 52, 95
3, 63840, Note_on_c, 2, 47, 95
3, 63840, Note_on_c, 2, 40, 95
3, 64320, Note_off_c, 2, 52, 80
3, 64320, Note_off_c, 2, 47, 80
3, 64320, Note_off_c, 2, 40, 80
3, 64320, Note_on_c, 2, 45, 95
3, 64440, Note_off_c, 2, 45, 80
3, 64440, Note_on_c, 2, 45, 95
3, 64560, Note_off_c, 2, 45, 80
3, 64560, Note_on_c, 2, 43, 95
3, 64680, Note_off_c, 2, 43, 80
3, 64680, Note_on_c, 2, 45, 95
3, 64800, Note_off_c, 2, 45, 80
3, 64800, Note_on_c, 2, 48, 95
3, 65280, Note_off_c, 2, 48, 80
3, 65280, Note_on_c, 2, 57, 95
3, 65280, Note_on_c, 2, 52, 95
3, 65280, Note_on_c, 2, 45, 95
3, 65760, Note_off_c, 2, 57, 80
3, 65760, Note_off_c, 2, 52, 80
3, 65760, Note_off_c, 2, 45, 80
3, 65760, Note_on_c, 2, 57, 95
3, 65760, Note_on_c, 2, 52, 95
3, 65760, Note_on_c, 2, 45, 95
3, 66120, Note_off_c, 2, 57, 80
3, 66120, Note_off_c, 2, 52, 80
3, 66120, Note_off_c, 2, 45, 80
3, 66120, Note_on_c, 2, 57, 95
3, 66120, Note_on_c, 2, 52, 95
3, 66120, Note_on_c, 2, 45, 95
3, 66239, Note_off_c, 2, 57, 80
3, 66239, Note_off_c, 2, 52, 80
3, 66239, Note_off_c, 2, 45, 80
3, 66240, Note_on_c, 2, 55, 95
3, 66240, Note_on_c, 2, 50, 95
3, 66240, Note_on_c, 2, 43, 95
3, 66480, Note_off_c, 2, 55, 80
3, 66480, Note_off_c, 2, 50, 80
3, 66480, Note_off_c, 2, 43, 80
3, 66480, Note_on_c, 2, 55, 95
3, 66480, Note_on_c, 2, 50, 95
3, 66480, Note_on_c, 2, 43, 95
3, 66720, Note_off_c, 2, 55, 80
3, 66720, Note_off_c, 2, 50, 80
3, 66720, Note_off_c, 2, 43, 80
3, 66720, Note_on_c, 2, 55, 95
3, 66720, Note_on_c, 2, 50, 95
3, 66720, Note_on_c, 2, 43, 95
3, 66960, Note_off_c, 2, 55, 80
3, 66960, Note_off_c, 2, 50, 80
3, 66960, Note_off_c, 2, 43, 80
3, 66960, Note_on_c, 2, 55, 95
3, 66960, Note_on_c, 2, 50, 95
3, 66960, Note_on_c, 2, 43, 95
3, 67200, Note_off_c, 2, 55, 80
3, 67200, Note_off_c, 2, 50, 80
3, 67200, Note_off_c, 2, 43, 80
3, 67200, Note_on_c, 2, 52, 95
3, 67200, Note_on_c, 2, 47, 95
3, 67200, Note_on_c, 2, 40, 95
3, 67680, Note_off_c, 2, 52, 80
3, 67680, Note_off_c, 2, 47, 80
3, 67680, Note_off_c, 2, 40, 80
3, 67680, Note_on_c, 2, 52, 95
3, 67680, Note_on_c, 2, 47, 95
3, 67680, Note_on_c, 2, 40, 95
3, 67920, Note_off_c, 2, 52, 80
3, 67920, Note_off_c, 2, 47, 80
3, 67920, Note_off_c, 2, 40, 80
3, 67920, Note_on_c, 2, 50, 95
3, 68040, Note_off_c, 2, 50, 80
3, 68040, Note_on_c, 2, 50, 95
3, 68160, Note_off_c, 2, 50, 80
3, 68160, Note_on_c, 2, 50, 95
3, 68400, Note_off_c, 2, 50, 80
3, 68400, Note_on_c, 2, 50, 76
3, 68520, Note_off_c, 2, 50, 80
3, 68520, Note_on_c, 2, 48, 95
3, 68640, Note_off_c, 2, 48, 80
3, 68640, Note_on_c, 2, 48, 76
3, 68880, Note_off_c, 2, 48, 80
3, 68880, Note_on_c, 2, 45, 95
3, 69120, Note_off_c, 2, 45, 80
3, 69120, Note_on_c, 2, 57, 95
3, 69120, Note_on_c, 2, 52, 95
3, 69120, Note_on_c, 2, 45, 95
3, 69600, Note_off_c, 2, 57, 80
3, 69600, Note_off_c, 2, 52, 80
3, 69600, Note_off_c, 2, 45, 80
3, 69600, Note_on_c, 2, 57, 95
3, 69600, Note_on_c, 2, 52, 95
3, 69600, Note_on_c, 2, 45, 95
3, 69960, Note_off_c, 2, 57, 80
3, 69960, Note_off_c, 2, 52, 80
3, 69960, Note_off_c, 2, 45, 80
3, 69960, Note_on_c, 2, 57, 95
3, 69960, Note_on_c, 2, 52, 95
3, 69960, Note_on_c, 2, 45, 95
3, 70079, Note_off_c, 2, 57, 80
3, 70079, Note_off_c, 2, 52, 80
3, 70079, Note_off_c, 2, 45, 80
3, 70080, Note_on_c, 2, 55, 95
3, 70080, Note_on_c, 2, 50, 95
3, 70080, Note_on_c, 2, 43, 95
3, 70320, Note_off_c, 2, 55, 80
3, 70320, Note_off_c, 2, 50, 80
3, 70320, Note_off_c, 2, 43, 80
3, 70320, Note_on_c, 2, 55, 95
3, 70320, Note_on_c, 2, 50, 95
3, 70320, Note_on_c, 2, 43, 95
3, 70560, Note_off_c, 2, 55, 80
3, 70560, Note_off_c, 2, 50, 80
3, 70560, Note_off_c, 2, 43, 80
3, 70560, Note_on_c, 2, 55, 95
3, 70560, Note_on_c, 2, 50, 95
3, 70560, Note_on_c, 2, 43, 95
3, 70800, Note_off_c, 2, 55, 80
3, 70800, Note_off_c, 2, 50, 80
3, 70800, Note_off_c, 2, 43, 80
3, 70800, Note_on_c, 2, 55, 95
3, 70800, Note_on_c, 2, 50, 95
3, 70800, Note_on_c, 2, 43, 95
3, 71040, Note_off_c, 2, 55, 80
3, 71040, Note_off_c, 2, 50, 80
3, 71040, Note_off_c, 2, 43, 80
3, 71040, Note_on_c, 2, 52, 95
3, 71040, Note_on_c, 2, 47, 95
3, 71040, Note_on_c, 2, 40, 95
3, 71520, Note_off_c, 2, 52, 80
3, 71520, Note_off_c, 2, 47, 80
3, 71520, Note_off_c, 2, 40, 80
3, 71520, Note_on_c, 2, 52, 95
3, 71520, Note_on_c, 2, 47, 95
3, 71520, Note_on_c, 2, 40, 95
3, 72000, Note_off_c, 2, 52, 80
3, 72000, Note_off_c, 2, 47, 80
3, 72000, Note_off_c, 2, 40, 80
3, 72000, Note_on_c, 2, 50, 95
3, 72480, Note_off_c, 2, 50, 80
3, 72480, Note_on_c, 2, 48, 95
3, 72960, Note_off_c, 2, 48, 80
3, 136320, Note_on_c, 2, 57, 95
3, 136320, Note_on_c, 2, 52, 95
3, 136320, Note_on_c, 2, 45, 95
3, 136800, Note_off_c, 2, 57, 80
3, 136800, Note_off_c, 2, 52, 80
3, 136800, Note_off_c, 2, 45, 80
3, 136800, Note_on_c, 2, 57, 95
3, 136800, Note_on_c, 2, 52, 95
3, 136800, Note_on_c, 2, 45, 95
3, 137160, Note_off_c, 2, 57, 80
3, 137160, Note_on_c, 2, 57, 95
3, 137220, Note_off_c, 2, 52, 80
3, 137220, Note_off_c, 2, 45, 80
3, 137220, Note_on_c, 2, 52, 95
3, 137220, Note_on_c, 2, 45, 95
3, 137279, Note_off_c, 2, 57, 80
3, 137279, Note_off_c, 2, 52, 80
3, 137279, Note_off_c, 2, 45, 80
3, 137280, Note_on_c, 2, 55, 95
3, 137280, Note_on_c, 2, 50, 95
3, 137280, Note_on_c, 2, 43, 95
3, 137520, Note_off_c, 2, 55, 80
3, 137520, Note_off_c, 2, 50, 80
3, 137520, Note_off_c, 2, 43, 80
3, 137520, Note_on_c, 2, 55, 95
3, 137520, Note_on_c, 2, 50, 95
3, 137520, Note_on_c, 2, 43, 95
3, 137760, Note_off_c, 2, 55, 80
3, 137760, Note_off_c, 2, 50, 80
3, 137760, Note_off_c, 2, 43, 80
3, 137760, Note_on_c, 2, 55, 95
3, 137760, Note_on_c, 2, 50, 95
3, 137760, Note_on_c, 2, 43, 95
3, 138000, Note_off_c, 2, 55, 80
3, 138000, Note_off_c, 2, 50, 80
3, 138000, Note_off_c, 2, 43, 80
3, 138000, Note_on_c, 2, 55, 95
3, 138000, Note_on_c, 2, 50, 95
3, 138000, Note_on_c, 2, 43, 95
3, 138240, Note_off_c, 2, 55, 80
3, 138240, Note_off_c, 2, 50, 80
3, 138240, Note_off_c, 2, 43, 80
3, 138240, Note_on_c, 2, 52, 95
3, 138240, Note_on_c, 2, 47, 95
3, 138240, Note_on_c, 2, 40, 95
3, 138720, Note_off_c, 2, 52, 80
3, 138720, Note_off_c, 2, 47, 80
3, 138720, Note_off_c, 2, 40, 80
3, 138720, Note_on_c, 2, 52, 95
3, 138720, Note_on_c, 2, 47, 95
3, 138720, Note_on_c, 3, 40, 95
3, 139080, Pitch_bend_c, 3, 8832
3, 139110, Pitch_bend_c, 3, 9600
3, 139140, Pitch_bend_c, 3, 10240
3, 139170, Pitch_bend_c, 3, 10880
3, 139200, Note_off_c, 2, 52, 80
3, 139200, Note_off_c, 2, 47, 80
3, 139200, Pitch_bend_c, 3, 11648
3, 139440, Note_off_c, 3, 40, 80
3, 139440, Note_on_c, 2, 45, 76
3, 139560, Note_off_c, 2, 45, 80
3, 139560, Note_on_c, 2, 43, 95
3, 139680, Note_off_c, 2, 43, 80
3, 139680, Note_on_c, 2, 43, 76
3, 139920, Note_off_c, 2, 43, 80
3, 139920, Note_on_c, 2, 40, 95
3, 140160, Note_off_c, 2, 40, 80
3, 140160, Note_on_c, 2, 57, 95
3, 140160, Note_on_c, 2, 52, 95
3, 140160, Note_on_c, 2, 45, 95
3, 140640, Note_off_c, 2, 57, 80
3, 140640, Note_off_c, 2, 52, 80
3, 140640, Note_off_c, 2, 45, 80
3, 140640, Note_on_c, 2, 57, 95
3, 140640, Note_on_c, 2, 52, 95
3, 140640, Note_on_c, 2, 45, 95
3, 141000, Note_off_c, 2, 57, 80
3, 141000, Note_on_c, 2, 57, 95
3, 141060, Note_off_c, 2, 52, 80
3, 141060, Note_off_c, 2, 45, 80
3, 141060, Note_on_c, 2, 52, 95
3, 141060, Note_on_c, 2, 45, 95
3, 141119, Note_off_c, 2, 57, 80
3, 141119, Note_off_c, 2, 52, 80
3, 141119, Note_off_c, 2, 45, 80
3, 141120, Note_on_c, 2, 55, 95
3, 141120, Note_on_c, 2, 50, 95
3, 141120, Note_on_c, 2, 43, 95
3, 141360, Note_off_c, 2, 55, 80
3, 141360, Note_off_c, 2, 50, 80
3, 141360, Note_off_c, 2, 43, 80
3, 141360, Note_on_c, 2, 55, 95
3, 141360, Note_on_c, 2, 50, 95
3, 141360, Note_on_c, 2, 43, 95
3, 141600, Note_off_c, 2, 55, 80
3, 141600, Note_off_c, 2, 50, 80
3, 141600, Note_off_c, 2, 43, 80
3, 141600, Note_on_c, 2, 55, 95
3, 141600, Note_on_c, 2, 50, 95
3, 141600, Note_on_c, 2, 43, 95
3, 141840, Note_off_c, 2, 55, 80
3, 141840, Note_off_c, 2, 50, 80
3, 141840, Note_off_c, 2, 43, 80
3, 141840, Note_on_c, 2, 55, 95
3, 141840, Note_on_c, 2, 50, 95
3, 141840, Note_on_c, 2, 43, 95
3, 142080, Note_off_c, 2, 55, 80
3, 142080, Note_off_c, 2, 50, 80
3, 142080, Note_off_c, 2, 43, 80
3, 142080, Note_on_c, 2, 52, 95
3, 142080, Note_on_c, 2, 47, 95
3, 142080, Note_on_c, 2, 40, 95
3, 142560, Note_off_c, 2, 52, 80
3, 142560, Note_off_c, 2, 47, 80
3, 142560, Note_off_c, 2, 40, 80
3, 142560, Note_on_c, 2, 52, 95
3, 142560, Note_on_c, 2, 47, 95
3, 142560, Note_on_c, 2, 40, 95
3, 143040, Note_off_c, 2, 52, 80
3, 143040, Note_off_c, 2, 47, 80
3, 143040, Note_off_c, 2, 40, 80
3, 143040, Note_on_c, 2, 45, 95
3, 143160, Note_off_c, 2, 45, 80
3, 143160, Note_on_c, 2, 45, 95
3, 143280, Note_off_c, 2, 45, 80
3, 143280, Note_on_c, 2, 43, 95
3, 143400, Note_off_c, 2, 43, 80
3, 143400, Note_on_c, 2, 45, 95
3, 143520, Note_off_c, 2, 45, 80
3, 143520, Note_on_c, 2, 48, 95
3, 144000, Note_off_c, 2, 48, 80
3, 144000, Note_on_c, 2, 57, 95
3, 144000, Note_on_c, 2, 52, 95
3, 144000, Note_on_c, 2, 45, 95
3, 144480, Note_off_c, 2, 57, 80
3, 144480, Note_off_c, 2, 52, 80
3, 144480, Note_off_c, 2, 45, 80
3, 144480, Note_on_c, 2, 57, 95
3, 144480, Note_on_c, 2, 52, 95
3, 144480, Note_on_c, 2, 45, 95
3, 144840, Note_off_c, 2, 57, 80
3, 144840, Note_off_c, 2, 52, 80
3, 144840, Note_off_c, 2, 45, 80
3, 144840, Note_on_c, 2, 57, 95
3, 144840, Note_on_c, 2, 52, 95
3, 144840, Note_on_c, 2, 45, 95
3, 144959, Note_off_c, 2, 57, 80
3, 144959, Note_off_c, 2, 52, 80
3, 144959, Note_off_c, 2, 45, 80
3, 144960, Note_on_c, 2, 55, 95
3, 144960, Note_on_c, 2, 50, 95
3, 144960, Note_on_c, 2, 43, 95
3, 145200, Note_off_c, 2, 55, 80
3, 145200, Note_off_c, 2, 50, 80
3, 145200, Note_off_c, 2, 43, 80
3, 145200, Note_on_c, 2, 55, 95
3, 145200, Note_on_c, 2, 50, 95
3, 145200, Note_on_c, 2, 43, 95
3, 145440, Note_off_c, 2, 55, 80
3, 145440, Note_off_c, 2, 50, 80
3, 145440, Note_off_c, 2, 43, 80
3, 145440, Note_on_c, 2, 55, 95
3, 145440, Note_on_c, 2, 50, 95
3, 145440, Note_on_c, 2, 43, 95
3, 145680, Note_off_c, 2, 55, 80
3, 145680, Note_off_c, 2, 50, 80
3, 145680, Note_off_c, 2, 43, 80
3, 145680, Note_on_c, 2, 55, 95
3, 145680, Note_on_c, 2, 50, 95
3, 145680, Note_on_c, 2, 43, 95
3, 145920, Note_off_c, 2, 55, 80
3, 145920, Note_off_c, 2, 50, 80
3, 145920, Note_off_c, 2, 43, 80
3, 145920, Note_on_c, 2, 52, 95
3, 145920, Note_on_c, 2, 47, 95
3, 145920, Note_on_c, 2, 40, 95
3, 146400, Note_off_c, 2, 52, 80
3, 146400, Note_off_c, 2, 47, 80
3, 146400, Note_off_c, 2, 40, 80
3, 146400, Note_on_c, 2, 52, 95
3, 146400, Note_on_c, 2, 47, 95
3, 146400, Note_on_c, 2, 40, 95
3, 146640, Note_off_c, 2, 52, 80
3, 146640, Note_off_c, 2, 47, 80
3, 146640, Note_off_c, 2, 40, 80
3, 146640, Note_on_c, 2, 50, 95
3, 146760, Note_off_c, 2, 50, 80
3, 146760, Note_on_c, 2, 50, 95
3, 146880, Note_off_c, 2, 50, 80
3, 146880, Note_on_c, 2, 50, 95
3, 147120, Note_off_c, 2, 50, 80
3, 147120, Note_on_c, 2, 50, 76
3, 147240, Note_off_c, 2, 50, 80
3, 147240, Note_on_c, 2, 48, 95
3, 147360, Note_off_c, 2, 48, 80
3, 147360, Note_on_c, 2, 48, 76
3, 147600, Note_off_c, 2, 48, 80
3, 147600, Note_on_c, 2, 45, 95
3, 147840, Note_off_c, 2, 45, 80
3, 147840, Note_on_c, 2, 57, 95
3, 147840, Note_on_c, 2, 52, 95
3, 147840, Note_on_c, 2, 45, 95
3, 148320, Note_off_c, 2, 57, 80
3, 148320, Note_off_c, 2, 52, 80
3, 148320, Note_off_c, 2, 45, 80
3, 148320, Note_on_c, 2, 57, 95
3, 148320, Note_on_c, 2, 52, 95
3, 148320, Note_on_c, 2, 45, 95
3, 148680, Note_off_c, 2, 57, 80
3, 148680, Note_off_c, 2, 52, 80
3, 148680, Note_off_c, 2, 45, 80
3, 148680, Note_on_c, 2, 57, 95
3, 148680, Note_on_c, 2, 52, 95
3, 148680, Note_on_c, 2, 45, 95
3, 148799, Note_off_c, 2, 57, 80
3, 148799, Note_off_c, 2, 52, 80
3, 148799, Note_off_c, 2, 45, 80
3, 148800, Note_on_c, 2, 55, 95
3, 148800, Note_on_c, 2, 50, 95
3, 148800, Note_on_c, 2, 43, 95
3, 149040, Note_off_c, 2, 55, 80
3, 149040, Note_off_c, 2, 50, 80
3, 149040, Note_off_c, 2, 43, 80
3, 149040, Note_on_c, 2, 55, 95
3, 149040, Note_on_c, 2, 50, 95
3, 149040, Note_on_c, 2, 43, 95
3, 149280, Note_off_c, 2, 55, 80
3, 149280, Note_off_c, 2, 50, 80
3, 149280, Note_off_c, 2, 43, 80
3, 149280, Note_on_c, 2, 55, 95
3, 149280, Note_on_c, 2, 50, 95
3, 149280, Note_on_c, 2, 43, 95
3, 149520, Note_off_c, 2, 55, 80
3, 149520, Note_off_c, 2, 50, 80
3, 149520, Note_off_c, 2, 43, 80
3, 149520, Note_on_c, 2, 55, 95
3, 149520, Note_on_c, 2, 50, 95
3, 149520, Note_on_c, 2, 43, 95
3, 149760, Note_off_c, 2, 55, 80
3, 149760, Note_off_c, 2, 50, 80
3, 149760, Note_off_c, 2, 43, 80
3, 149760, Note_on_c, 2, 52, 95
3, 149760, Note_on_c, 2, 47, 95
3, 149760, Note_on_c, 2, 40, 95
3, 150240, Note_off_c, 2, 52, 80
3, 150240, Note_off_c, 2, 47, 80
3, 150240, Note_off_c, 2, 40, 80
3, 150240, Note_on_c, 2, 52, 95
3, 150240, Note_on_c, 2, 47, 95
3, 150240, Note_on_c, 2, 40, 95
3, 150720, Note_off_c, 2, 52, 80
3, 150720, Note_off_c, 2, 47, 80
3, 150720, Note_off_c, 2, 40, 80
3, 150720, Note_on_c, 2, 62, 95
3, 150720, Note_on_c, 2, 57, 95
3, 150720, Note_on_c, 2, 50, 95
3, 151200, Note_off_c, 2, 62, 80
3, 151200, Note_off_c, 2, 57, 80
3, 151200, Note_off_c, 2, 50, 80
3, 151200, Note_on_c, 2, 60, 95
3, 151200, Note_on_c, 2, 55, 95
3, 151200, Note_on_c, 2, 48, 95
3, 151680, Note_off_c, 2, 60, 80
3, 151680, Note_off_c, 2, 55, 80
3, 151680, Note_off_c, 2, 48, 80
3, 151680, Note_on_c, 2, 60, 89
3, 151680, Note_on_c, 2, 55, 89
3, 151680, Note_on_c, 3, 48, 89
3, 153216, Pitch_bend_c, 3, 8832
3, 153600, Note_off_c, 2, 60, 80
3, 153600, Note_off_c, 2, 55, 80
3, 153600, Pitch_bend_c, 3, 8192
3, 155520, Note_off_c, 3, 48, 80
3, 155520, Pitch_bend_c, 3, 8192
3, 224640, Note_on_c, 2, 57, 95
3, 224640, Note_on_c, 2, 52, 95
3, 224640, Note_on_c, 2, 45, 95
3, 224880, Note_off_c, 2, 57, 80
3, 224880, Note_off_c, 2, 52, 80
3, 224880, Note_off_c, 2, 45, 80
3, 224880, Note_on_c, 2, 57, 95
3, 224880, Note_on_c, 2, 52, 95
3, 224880, Note_on_c, 2, 45, 95
3, 225120, Note_off_c, 2, 57, 80
3, 225120, Note_off_c, 2, 52, 80
3, 225120, Note_off_c, 2, 45, 80
3, 225120, Note_on_c, 2, 57, 95
3, 225120, Note_on_c, 2, 52, 95
3, 225120, Note_on_c, 2, 45, 95
3, 225360, Note_off_c, 2, 57, 80
3, 225360, Note_off_c, 2, 52, 80
3, 225360, Note_off_c, 2, 45, 80
3, 225360, Note_on_c, 2, 57, 95
3, 225360, Note_on_c, 2, 52, 95
3, 225360, Note_on_c, 2, 45, 95
3, 225600, Note_off_c, 2, 57, 80
3, 225600, Note_off_c, 2, 52, 80
3, 225600, Note_off_c, 2, 45, 80
3, 225600, Note_on_c, 2, 57, 95
3, 225600, Note_on_c, 2, 52, 95
3, 225600, Note_on_c, 2, 45, 95
3, 225840, Note_off_c, 2, 57, 80
3, 225840, Note_off_c, 2, 52, 80
3, 225840, Note_off_c, 2, 45, 80
3, 225840, Note_on_c, 2, 57, 95
3, 225840, Note_on_c, 2, 52, 95
3, 225840, Note_on_c, 2, 45, 95
3, 226080, Note_off_c, 2, 57, 80
3, 226080, Note_off_c, 2, 52, 80
3, 226080, Note_off_c, 2, 45, 80
3, 226080, Note_on_c, 2, 57, 95
3, 226080, Note_on_c, 2, 52, 95
3, 226080, Note_on_c, 2, 45, 95
3, 226320, Note_off_c, 2, 57, 80
3, 226320, Note_off_c, 2, 52, 80
3, 226320, Note_off_c, 2, 45, 80
3, 226320, Note_on_c, 2, 57, 95
3, 226320, Note_on_c, 2, 52, 95
3, 226320, Note_on_c, 2, 45, 95
3, 226560, Note_off_c, 2, 57, 80
3, 226560, Note_off_c, 2, 52, 80
3, 226560, Note_off_c, 2, 45, 80
3, 226560, Note_on_c, 2, 57, 95
3, 226560, Note_on_c, 2, 52, 95
3, 226560, Note_on_c, 2, 45, 95
3, 226800, Note_off_c, 2, 57, 80
3, 226800, Note_off_c, 2, 52, 80
3, 226800, Note_off_c, 2, 45, 80
3, 226800, Note_on_c, 2, 57, 95
3, 226800, Note_on_c, 2, 52, 95
3, 226800, Note_on_c, 2, 45, 95
3, 227040, Note_off_c, 2, 57, 80
3, 227040, Note_off_c, 2, 52, 80
3, 227040, Note_off_c, 2, 45, 80
3, 227040, Note_on_c, 2, 57, 95
3, 227040, Note_on_c, 2, 52, 95
3, 227040, Note_on_c, 2, 45, 95
3, 227280, Note_off_c, 2, 57, 80
3, 227280, Note_off_c, 2, 52, 80
3, 227280, Note_off_c, 2, 45, 80
3, 227280, Note_on_c, 2, 57, 95
3, 227280, Note_on_c, 2, 52, 95
3, 227280, Note_on_c, 2, 45, 95
3, 227520, Note_off_c, 2, 57, 80
3, 227520, Note_off_c, 2, 52, 80
3, 227520, Note_off_c, 2, 45, 80
3, 227520, Note_on_c, 2, 57, 95
3, 227520, Note_on_c, 2, 52, 95
3, 227520, Note_on_c, 2, 45, 95
3, 227760, Note_off_c, 2, 57, 80
3, 227760, Note_off_c, 2, 52, 80
3, 227760, Note_off_c, 2, 45, 80
3, 227760, Note_on_c, 2, 57, 95
3, 227760, Note_on_c, 2, 52, 95
3, 227760, Note_on_c, 2, 45, 95
3, 228000, Note_off_c, 2, 57, 80
3, 228000, Note_off_c, 2, 52, 80
3, 228000, Note_off_c, 2, 45, 80
3, 228000, Note_on_c, 2, 57, 95
3, 228000, Note_on_c, 2, 52, 95
3, 228000, Note_on_c, 2, 45, 95
3, 228240, Note_off_c, 2, 57, 80
3, 228240, Note_off_c, 2, 52, 80
3, 228240, Note_off_c, 2, 45, 80
3, 228240, Note_on_c, 2, 57, 95
3, 228240, Note_on_c, 2, 52, 95
3, 228240, Note_on_c, 2, 45, 95
3, 228480, Note_off_c, 2, 57, 80
3, 228480, Note_off_c, 2, 52, 80
3, 228480, Note_off_c, 2, 45, 80
3, 228480, Note_on_c, 2, 57, 95
3, 228480, Note_on_c, 2, 52, 95
3, 228480, Note_on_c, 2, 45, 95
3, 228720, Note_off_c, 2, 57, 80
3, 228720, Note_off_c, 2, 52, 80
3, 228720, Note_off_c, 2, 45, 80
3, 228720, Note_on_c, 2, 57, 95
3, 228720, Note_on_c, 2, 52, 95
3, 228720, Note_on_c, 2, 45, 95
3, 228960, Note_off_c, 2, 57, 80
3, 228960, Note_off_c, 2, 52, 80
3, 228960, Note_off_c, 2, 45, 80
3, 228960, Note_on_c, 2, 57, 95
3, 228960, Note_on_c, 2, 52, 95
3, 228960, Note_on_c, 2, 45, 95
3, 229200, Note_off_c, 2, 57, 80
3, 229200, Note_off_c, 2, 52, 80
3, 229200, Note_off_c, 2, 45, 80
3, 229200, Note_on_c, 2, 57, 95
3, 229200, Note_on_c, 2, 52, 95
3, 229200, Note_on_c, 2, 45, 95
3, 229440, Note_off_c, 2, 57, 80
3, 229440, Note_off_c, 2, 52, 80
3, 229440, Note_off_c, 2, 45, 80
3, 229440, Note_on_c, 2, 57, 95
3, 229440, Note_on_c, 2, 52, 95
3, 229440, Note_on_c, 2, 45, 95
3, 229680, Note_off_c, 2, 57, 80
3, 229680, Note_off_c, 2, 52, 80
3, 229680, Note_off_c, 2, 45, 80
3, 229680, Note_on_c, 2, 57, 95
3, 229680, Note_on_c, 2, 52, 95
3, 229680, Note_on_c, 2, 45, 95
3, 229920, Note_off_c, 2, 57, 80
3, 229920, Note_off_c, 2, 52, 80
3, 229920, Note_off_c, 2, 45, 80
3, 229920, Note_on_c, 2, 57, 95
3, 229920, Note_on_c, 2, 52, 95
3, 229920, Note_on_c, 2, 45, 95
3, 230160, Note_off_c, 2, 57, 80
3, 230160, Note_off_c, 2, 52, 80
3, 230160, Note_off_c, 2, 45, 80
3, 230160, Note_on_c, 2, 57, 95
3, 230160, Note_on_c, 2, 52, 95
3, 230160, Note_on_c, 2, 45, 95
3, 230400, Note_off_c, 2, 57, 80
3, 230400, Note_off_c, 2, 52, 80
3, 230400, Note_off_c, 2, 45, 80
3, 230400, Note_on_c, 2, 63, 95
3, 230400, Note_on_c, 2, 58, 95
3, 230400, Note_on_c, 2, 51, 95
3, 230640, Note_off_c, 2, 63, 80
3, 230640, Note_off_c, 2, 58, 80
3, 230640, Note_off_c, 2, 51, 80
3, 230880, Note_on_c, 2, 63, 95
3, 230880, Note_on_c, 2, 58, 95
3, 230880, Note_on_c, 2, 51, 95
3, 231120, Note_off_c, 2, 63, 80
3, 231120, Note_off_c, 2, 58, 80
3, 231120, Note_off_c, 2, 51, 80
3, 231360, Note_on_c, 2, 63, 95
3, 231360, Note_on_c, 2, 58, 95
3, 231360, Note_on_c, 2, 51, 95
3, 231480, Note_off_c, 2, 63, 80
3, 231480, Note_off_c, 2, 58, 80
3, 231480, Note_off_c, 2, 51, 80
3, 231480, Note_on_c, 2, 63, 95
3, 231480, Note_on_c, 2, 58, 95
3, 231480, Note_on_c, 2, 51, 95
3, 231600, Note_off_c, 2, 63, 80
3, 231600, Note_off_c, 2, 58, 80
3, 231600, Note_off_c, 2, 51, 80
3, 231600, Note_on_c, 2, 63, 95
3, 231600, Note_on_c, 2, 58, 95
3, 231600, Note_on_c, 2, 51, 95
3, 231720, Note_off_c, 2, 63, 80
3, 231720, Note_off_c, 2, 58, 80
3, 231720, Note_off_c, 2, 51, 80
3, 231720, Note_on_c, 2, 63, 95
3, 231720, Note_on_c, 2, 58, 95
3, 231720, Note_on_c, 2, 51, 95
3, 231840, Note_off_c, 2, 63, 80
3, 231840, Note_off_c, 2, 58, 80
3, 231840, Note_off_c, 2, 51, 80
3, 231840, Note_on_c, 2, 63, 95
3, 231840, Note_on_c, 2, 58, 95
3, 231840, Note_on_c, 2, 51, 95
3, 231960, Note_off_c, 2, 63, 80
3, 231960, Note_off_c, 2, 58, 80
3, 231960, Note_off_c, 2, 51, 80
3, 231960, Note_on_c, 2, 63, 95
3, 231960, Note_on_c, 2, 58, 95
3, 231960, Note_on_c, 2, 51, 95
3, 232080, Note_off_c, 2, 63, 80
3, 232080, Note_off_c, 2, 58, 80
3, 232080, Note_off_c, 2, 51, 80
3, 232080, Note_on_c, 2, 63, 95
3, 232080, Note_on_c, 2, 58, 95
3, 232080, Note_on_c, 2, 51, 95
3, 232200, Note_off_c, 2, 63, 80
3, 232200, Note_off_c, 2, 58, 80
3, 232200, Note_off_c, 2, 51, 80
3, 232200, Note_on_c, 2, 63, 95
3, 232200, Note_on_c, 2, 58, 95
3, 232200, Note_on_c, 2, 51, 95
3, 232320, Note_off_c, 2, 63, 80
3, 232320, Note_off_c, 2, 58, 80
3, 232320, Note_off_c, 2, 51, 80
3, 232320, Note_on_c, 2, 57, 95
3, 232320, Note_on_c, 2, 52, 95
3, 232320, Note_on_c, 2, 45, 95
3, 232560, Note_off_c, 2, 57, 80
3, 232560, Note_off_c, 2, 52, 80
3, 232560, Note_off_c, 2, 45, 80
3, 232560, Note_on_c, 2, 57, 95
3, 232560, Note_on_c, 2, 52, 95
3, 232560, Note_on_c, 2, 45, 95
3, 232800, Note_off_c, 2, 57, 80
3, 232800, Note_off_c, 2, 52, 80
3, 232800, Note_off_c, 2, 45, 80
3, 232800, Note_on_c, 2, 57, 95
3, 232800, Note_on_c, 2, 52, 95
3, 232800, Note_on_c, 2, 45, 95
3, 233040, Note_off_c, 2, 57, 80
3, 233040, Note_off_c, 2, 52, 80
3, 233040, Note_off_c, 2, 45, 80
3, 233040, Note_on_c, 2, 57, 95
3, 233040, Note_on_c, 2, 52, 95
3, 233040, Note_on_c, 2, 45, 95
3, 233280, Note_off_c, 2, 57, 80
3, 233280, Note_off_c, 2, 52, 80
3, 233280, Note_off_c, 2, 45, 80
3, 233280, Note_on_c, 2, 57, 95
3, 233280, Note_on_c, 2, 52, 95
3, 233280, Note_on_c, 2, 45, 95
3, 233520, Note_off_c, 2, 57, 80
3, 233520, Note_off_c, 2, 52, 80
3, 233520, Note_off_c, 2, 45, 80
3, 233520, Note_on_c, 2, 57, 95
3, 233520, Note_on_c, 2, 52, 95
3, 233520, Note_on_c, 2, 45, 95
3, 233760, Note_off_c, 2, 57, 80
3, 233760, Note_off_c, 2, 52, 80
3, 233760, Note_off_c, 2, 45, 80
3, 233760, Note_on_c, 2, 57, 95
3, 233760, Note_on_c, 2, 52, 95
3, 233760, Note_on_c, 2, 45, 95
3, 234000, Note_off_c, 2, 57, 80
3, 234000, Note_off_c, 2, 52, 80
3, 234000, Note_off_c, 2, 45, 80
3, 234000, Note_on_c, 2, 57, 95
3, 234000, Note_on_c, 2, 52, 95
3, 234000, Note_on_c, 2, 45, 95
3, 234240, Note_off_c, 2, 57, 80
3, 234240, Note_off_c, 2, 52, 80
3, 234240, Note_off_c, 2, 45, 80
3, 234240, Note_on_c, 2, 57, 95
3, 234240, Note_on_c, 2, 52, 95
3, 234240, Note_on_c, 2, 45, 95
3, 234480, Note_off_c, 2, 57, 80
3, 234480, Note_off_c, 2, 52, 80
3, 234480, Note_off_c, 2, 45, 80
3, 234480, Note_on_c, 2, 57, 95
3, 234480, Note_on_c, 2, 52, 95
3, 234480, Note_on_c, 2, 45, 95
3, 234720, Note_off_c, 2, 57, 80
3, 234720, Note_off_c, 2, 52, 80
3, 234720, Note_off_c, 2, 45, 80
3, 234720, Note_on_c, 2, 57, 95
3, 234720, Note_on_c, 2, 52, 95
3, 234720, Note_on_c, 2, 45, 95
3, 234960, Note_off_c, 2, 57, 80
3, 234960, Note_off_c, 2, 52, 80
3, 234960, Note_off_c, 2, 45, 80
3, 234960, Note_on_c, 2, 57, 95
3, 234960, Note_on_c, 2, 52, 95
3, 234960, Note_on_c, 2, 45, 95
3, 235200, Note_off_c, 2, 57, 80
3, 235200, Note_off_c, 2, 52, 80
3, 235200, Note_off_c, 2, 45, 80
3, 235200, Note_on_c, 2, 57, 95
3, 235200, Note_on_c, 2, 52, 95
3, 235200, Note_on_c, 2, 45, 95
3, 235440, Note_off_c, 2, 57, 80
3, 235440, Note_off_c, 2, 52, 80
3, 235440, Note_off_c, 2, 45, 80
3, 235440, Note_on_c, 2, 57, 95
3, 235440, Note_on_c, 2, 52, 95
3, 235440, Note_on_c, 2, 45, 95
3, 235680, Note_off_c, 2, 57, 80
3, 235680, Note_off_c, 2, 52, 80
3, 235680, Note_off_c, 2, 45, 80
3, 235680, Note_on_c, 2, 57, 95
3, 235680, Note_on_c, 2, 52, 95
3, 235680, Note_on_c, 2, 45, 95
3, 235920, Note_off_c, 2, 57, 80
3, 235920, Note_off_c, 2, 52, 80
3, 235920, Note_off_c, 2, 45, 80
3, 235920, Note_on_c, 2, 57, 95
3, 235920, Note_on_c, 2, 52, 95
3, 235920, Note_on_c, 2, 45, 95
3, 236160, Note_off_c, 2, 57, 80
3, 236160, Note_off_c, 2, 52, 80
3, 236160, Note_off_c, 2, 45, 80
3, 236160, Note_on_c, 2, 57, 95
3, 236160, Note_on_c, 2, 52, 95
3, 236160, Note_on_c, 2, 45, 95
3, 236400, Note_off_c, 2, 57, 80
3, 236400, Note_off_c, 2, 52, 80
3, 236400, Note_off_c, 2, 45, 80
3, 236400, Note_on_c, 2, 57, 95
3, 236400, Note_on_c, 2, 52, 95
3, 236400, Note_on_c, 2, 45, 95
3, 236640, Note_off_c, 2, 57, 80
3, 236640, Note_off_c, 2, 52, 80
3, 236640, Note_off_c, 2, 45, 80
3, 236640, Note_on_c, 2, 57, 95
3, 236640, Note_on_c, 2, 52, 95
3, 236640, Note_on_c, 2, 45, 95
3, 236880, Note_off_c, 2, 57, 80
3, 236880, Note_off_c, 2, 52, 80
3, 236880, Note_off_c, 2, 45, 80
3, 236880, Note_on_c, 2, 57, 95
3, 236880, Note_on_c, 2, 52, 95
3, 236880, Note_on_c, 2, 45, 95
3, 237120, Note_off_c, 2, 57, 80
3, 237120, Note_off_c, 2, 52, 80
3, 237120, Note_off_c, 2, 45, 80
3, 237120, Note_on_c, 2, 57, 95
3, 237120, Note_on_c, 2, 52, 95
3, 237120, Note_on_c, 2, 45, 95
3, 237360, Note_off_c, 2, 57, 80
3, 237360, Note_off_c, 2, 52, 80
3, 237360, Note_off_c, 2, 45, 80
3, 237360, Note_on_c, 2, 57, 95
3, 237360, Note_on_c, 2, 52, 95
3, 237360, Note_on_c, 2, 45, 95
3, 237600, Note_off_c, 2, 57, 80
3, 237600, Note_off_c, 2, 52, 80
3, 237600, Note_off_c, 2, 45, 80
3, 237600, Note_on_c, 2, 57, 95
3, 237600, Note_on_c, 2, 52, 95
3, 237600, Note_on_c, 2, 45, 95
3, 237840, Note_off_c, 2, 57, 80
3, 237840, Note_off_c, 2, 52, 80
3, 237840, Note_off_c, 2, 45, 80
3, 237840, Note_on_c, 2, 57, 95
3, 237840, Note_on_c, 2, 52, 95
3, 237840, Note_on_c, 2, 45, 95
3, 238080, Note_off_c, 2, 57, 80
3, 238080, Note_off_c, 2, 52, 80
3, 238080, Note_off_c, 2, 45, 80
3, 238080, Note_on_c, 2, 63, 95
3, 238080, Note_on_c, 2, 58, 95
3, 238080, Note_on_c, 2, 51, 95
3, 238320, Note_off_c, 2, 63, 80
3, 238320, Note_off_c, 2, 58, 80
3, 238320, Note_off_c, 2, 51, 80
3, 238560, Note_on_c, 2, 63, 95
3, 238560, Note_on_c, 2, 58, 95
3, 238560, Note_on_c, 2, 51, 95
3, 238800, Note_off_c, 2, 63, 80
3, 238800, Note_off_c, 2, 58, 80
3, 238800, Note_off_c, 2, 51, 80
3, 239040, Note_on_c, 2, 63, 95
3, 239040, Note_on_c, 2, 58, 95
3, 239040, Note_on_c, 2, 51, 95
3, 239160, Note_off_c, 2, 63, 80
3, 239160, Note_off_c, 2, 58, 80
3, 239160, Note_off_c, 2, 51, 80
3, 239160, Note_on_c, 2, 63, 95
3, 239160, Note_on_c, 2, 58, 95
3, 239160, Note_on_c, 2, 51, 95
3, 239280, Note_off_c, 2, 63, 80
3, 239280, Note_off_c, 2, 58, 80
3, 239280, Note_off_c, 2, 51, 80
3, 239280, Note_on_c, 2, 63, 95
3, 239280, Note_on_c, 2, 58, 95
3, 239280, Note_on_c, 2, 51, 95
3, 239400, Note_off_c, 2, 63, 80
3, 239400, Note_off_c, 2, 58, 80
3, 239400, Note_off_c, 2, 51, 80
3, 239400, Note_on_c, 2, 63, 95
3, 239400, Note_on_c, 2, 58, 95
3, 239400, Note_on_c, 2, 51, 95
3, 239520, Note_off_c, 2, 63, 80
3, 239520, Note_off_c, 2, 58, 80
3, 239520, Note_off_c, 2, 51, 80
3, 239520, Note_on_c, 2, 63, 95
3, 239520, Note_on_c, 2, 58, 95
3, 239520, Note_on_c, 2, 51, 95
3, 239640, Note_off_c, 2, 63, 80
3, 239640, Note_off_c, 2, 58, 80
3, 239640, Note_off_c, 2, 51, 80
3, 239640, Note_on_c, 2, 63, 95
3, 239640, Note_on_c, 2, 58, 95
3, 239640, Note_on_c, 2, 51, 95
3, 239760, Note_off_c, 2, 63, 80
3, 239760, Note_off_c, 2, 58, 80
3, 239760, Note_off_c, 2, 51, 80
3, 239760, Note_on_c, 2, 63, 95
3, 239760, Note_on_c, 2, 58, 95
3, 239760, Note_on_c, 2, 51, 95
3, 239880, Note_off_c, 2, 63, 80
3, 239880, Note_off_c, 2, 58, 80
3, 239880, Note_off_c, 2, 51, 80
3, 239880, Note_on_c, 2, 63, 95
3, 239880, Note_on_c, 2, 58, 95
3, 239880, Note_on_c, 2, 51, 95
3, 240000, Note_off_c, 2, 63, 80
3, 240000, Note_off_c, 2, 58, 80
3, 240000, Note_off_c, 2, 51, 80
3, 240000, Note_on_c, 2, 57, 95
3, 240000, Note_on_c, 2, 52, 95
3, 240000, Note_on_c, 2, 45, 95
3, 240240, Note_off_c, 2, 57, 80
3, 240240, Note_off_c, 2, 52, 80
3, 240240, Note_off_c, 2, 45, 80
3, 240240, Note_on_c, 2, 57, 95
3, 240240, Note_on_c, 2, 52, 95
3, 240240, Note_on_c, 2, 45, 95
3, 240480, Note_off_c, 2, 57, 80
3, 240480, Note_off_c, 2, 52, 80
3, 240480, Note_off_c, 2, 45, 80
3, 240480, Note_on_c, 2, 57, 95
3, 240480, Note_on_c, 2, 52, 95
3, 240480, Note_on_c, 2, 45, 95
3, 240720, Note_off_c, 2, 57, 80
3, 240720, Note_off_c, 2, 52, 80
3, 240720, Note_off_c, 2, 45, 80
3, 240720, Note_on_c, 2, 57, 95
3, 240720, Note_on_c, 2, 52, 95
3, 240720, Note_on_c, 2, 45, 95
3, 240960, Note_off_c, 2, 57, 80
3, 240960, Note_off_c, 2, 52, 80
3, 240960, Note_off_c, 2, 45, 80
3, 240960, Note_on_c, 2, 57, 95
3, 240960, Note_on_c, 2, 52, 95
3, 240960, Note_on_c, 2, 45, 95
3, 241200, Note_off_c, 2, 57, 80
3, 241200, Note_off_c, 2, 52, 80
3, 241200, Note_off_c, 2, 45, 80
3, 241200, Note_on_c, 2, 57, 95
3, 241200, Note_on_c, 2, 52, 95
3, 241200, Note_on_c, 2, 45, 95
3, 241440, Note_off_c, 2, 57, 80
3, 241440, Note_off_c, 2, 52, 80
3, 241440, Note_off_c, 2, 45, 80
3, 241440, Note_on_c, 2, 57, 95
3, 241440, Note_on_c, 2, 52, 95
3, 241440, Note_on_c, 2, 45, 95
3, 241680, Note_off_c, 2, 57, 80
3, 241680, Note_off_c, 2, 52, 80
3, 241680, Note_off_c, 2, 45, 80
3, 241680, Note_on_c, 2, 57, 95
3, 241680, Note_on_c, 2, 52, 95
3, 241680, Note_on_c, 2, 45, 95
3, 241920, Note_off_c, 2, 57, 80
3, 241920, Note_off_c, 2, 52, 80
3, 241920, Note_off_c, 2, 45, 80
3, 241920, Note_on_c, 2, 55, 95
3, 241920, Note_on_c, 2, 50, 95
3, 241920, Note_on_c, 2, 43, 95
3, 242400, Note_off_c, 2, 55, 80
3, 242400, Note_off_c, 2, 50, 80
3, 242400, Note_off_c, 2, 43, 80
3, 242400, End_track
4, 0, Start_track
4, 0, Title_t, "guitar1"
4, 0, Control_c, 5, 100, 0
4, 0, Control_c, 5, 101, 0
4, 0, Control_c, 5, 6, 12
4, 0, Pitch_bend_c, 5, 8192
4, 0, Control_c, 5, 101, 0
4, 0, Control_c, 5, 100, 1
4, 0, Control_c, 5, 6, 64
4, 0, Control_c, 5, 38, 0
4, 0, Control_c, 5, 101, 127
4, 0, Control_c, 5, 100, 127
4, 0, Control_c, 4, 100, 0
4, 0, Control_c, 4, 101, 0
4, 0, Control_c, 4, 6, 12
4, 0, Pitch_bend_c, 4, 8192
4, 0, Control_c, 4, 101, 0
4, 0, Control_c, 4, 100, 1
4, 0, Control_c, 4, 6, 64
4, 0, Control_c, 4, 38, 0
4, 0, Control_c, 4, 101, 127
4, 0, Control_c, 4, 100, 127
4, 0, Control_c, 5, 101, 0
4, 0, Control_c, 5, 100, 2
4, 0, Control_c, 5, 6, 64
4, 0, Control_c, 5, 101, 127
4, 0, Control_c, 5, 100, 127
4, 0, Control_c, 4, 101, 0
4, 0, Control_c, 4, 100, 2
4, 0, Control_c, 4, 6, 64
4, 0, Control_c, 4, 101, 127
4, 0, Control_c, 4, 100, 127
4, 0, Program_c, 5, 27
4, 0, Program_c, 4, 27
4, 0, Control_c, 5, 0, 0
4, 0, Control_c, 4, 0, 0
4, 0, Control_c, 5, 7, 96
4, 0, Control_c, 4, 7, 96
4, 0, Control_c, 5, 10, 24
4, 0, Control_c, 4, 10, 24
4, 0, Control_c, 5, 93, 0
4, 0, Control_c, 4, 93, 0
4, 0, Control_c, 5, 91, 0
4, 0, Control_c, 4, 91, 0
4, 0, Control_c, 5, 92, 0
4, 0, Control_c, 4, 92, 0
4, 0, Control_c, 5, 95, 0
4, 0, Control_c, 4, 95, 0
4, 26891, Note_on_c, 4, 52, 95
4, 26894, Note_on_c, 4, 57, 95
4, 26894, Note_on_c, 4, 45, 95
4, 27120, Note_off_c, 4, 57, 80
4, 27120, Note_off_c, 4, 52, 80
4, 27120, Note_off_c, 4, 45, 80
4, 27120, Note_on_c, 4, 57, 95
4, 27120, Note_on_c, 4, 52, 95
4, 27120, Note_on_c, 4, 45, 95
4, 27140, Note_off_c, 4, 57, 80
4, 27140, Note_off_c, 4, 52, 80
4, 27140, Note_off_c, 4, 45, 80
4, 27240, Note_on_c, 4, 57, 95
4, 27240, Note_on_c, 4, 52, 95
4, 27240, Note_on_c, 4, 45, 95
4, 27359, Note_off_c, 4, 57, 80
4, 27359, Note_off_c, 4, 52, 80
4, 27359, Note_off_c, 4, 45, 80
4, 27361, Note_on_c, 4, 50, 95
4, 27377, Note_on_c, 4, 43, 95
4, 27396, Note_on_c, 4, 55, 95
4, 27600, Note_off_c, 4, 55, 80
4, 27600, Note_off_c, 4, 50, 80
4, 27600, Note_off_c, 4, 43, 80
4, 27600, Note_on_c, 4, 55, 95
4, 27600, Note_on_c, 4, 50, 95
4, 27600, Note_on_c, 4, 43, 95
4, 27620, Note_off_c, 4, 55, 80
4, 27620, Note_off_c, 4, 50, 80
4, 27620, Note_off_c, 4, 43, 80
4, 27720, Note_on_c, 4, 55, 95
4, 27720, Note_on_c, 4, 50, 95
4, 27720, Note_on_c, 4, 43, 95
4, 27839, Note_off_c, 4, 55, 80
4, 27839, Note_off_c, 4, 50, 80
4, 27839, Note_off_c, 4, 43, 80
4, 27853, Note_on_c, 4, 48, 95
4, 27878, Note_on_c, 4, 60, 95
4, 27883, Note_on_c, 4, 55, 95
4, 28080, Note_off_c, 4, 60, 80
4, 28080, Note_off_c, 4, 55, 80
4, 28080, Note_off_c, 4, 48, 80
4, 28080, Note_on_c, 4, 60, 95
4, 28080, Note_on_c, 4, 55, 95
4, 28080, Note_on_c, 4, 48, 95
4, 28100, Note_off_c, 4, 60, 80
4, 28100, Note_off_c, 4, 55, 80
4, 28100, Note_off_c, 4, 48, 80
4, 28200, Note_on_c, 4, 65, 95
4, 28200, Note_on_c, 4, 60, 95
4, 28200, Note_on_c, 4, 53, 95
4, 28319, Note_off_c, 4, 65, 80
4, 28319, Note_off_c, 4, 60, 80
4, 28319, Note_off_c, 4, 53, 80
4, 28324, Note_on_c, 4, 53, 95
4, 28360, Note_on_c, 4, 65, 95
4, 28364, Note_on_c, 4, 60, 95
4, 28560, Note_off_c, 4, 65, 80
4, 28560, Note_off_c, 4, 60, 80
4, 28560, Note_off_c, 4, 53, 80
4, 28560, Note_on_c, 4, 65, 95
4, 28560, Note_on_c, 4, 60, 95
4, 28560, Note_on_c, 4, 53, 95
4, 28580, Note_off_c, 4, 65, 80
4, 28580, Note_off_c, 4, 60, 80
4, 28580, Note_off_c, 4, 53, 80
4, 28680, Note_on_c, 4, 60, 95
4, 28680, Note_on_c, 4, 53, 95
4, 28799, Note_off_c, 4, 60, 80
4, 28799, Note_off_c, 4, 53, 80
4, 28800, Note_on_c, 4, 45, 95
4, 28814, Note_on_c, 4, 57, 95
4, 28838, Note_on_c, 4, 52, 95
4, 29040, Note_off_c, 4, 57, 80
4, 29040, Note_off_c, 4, 52, 80
4, 29040, Note_off_c, 4, 45, 80
4, 29040, Note_on_c, 4, 57, 95
4, 29040, Note_on_c, 4, 52, 95
4, 29040, Note_on_c, 4, 45, 95
4, 29060, Note_off_c, 4, 57, 80
4, 29060, Note_off_c, 4, 52, 80
4, 29060, Note_off_c, 4, 45, 80
4, 29160, Note_on_c, 4, 57, 95
4, 29160, Note_on_c, 4, 52, 95
4, 29279, Note_off_c, 4, 57, 80
4, 29279, Note_off_c, 4, 52, 80
4, 29298, Note_on_c, 4, 59, 95
4, 29304, Note_on_c, 4, 64, 95
4, 29313, Note_on_c, 4, 52, 95
4, 29520, Note_off_c, 4, 64, 80
4, 29520, Note_off_c, 4, 59, 80
4, 29520, Note_off_c, 4, 52, 80
4, 29520, Note_on_c, 4, 64, 95
4, 29520, Note_on_c, 4, 59, 95
4, 29520, Note_on_c, 4, 52, 95
4, 29540, Note_off_c, 4, 64, 80
4, 29540, Note_off_c, 4, 59, 80
4, 29540, Note_off_c, 4, 52, 80
4, 29640, Note_on_c, 4, 59, 95
4, 29640, Note_on_c, 4, 52, 95
4, 29759, Note_off_c, 4, 59, 80
4, 29759, Note_off_c, 4, 52, 80
4, 29761, Note_on_c, 4, 59, 95
4, 29762, Note_on_c, 4, 54, 95
4, 29803, Note_on_c, 4, 47, 95
4, 30000, Note_off_c, 4, 59, 80
4, 30000, Note_off_c, 4, 54, 80
4, 30000, Note_off_c, 4, 47, 80
4, 30142, Note_on_c, 4, 47, 95
4, 30144, Note_on_c, 4, 59, 95
4, 30154, Note_on_c, 4, 54, 95
4, 30360, Note_off_c, 4, 59, 80
4, 30360, Note_off_c, 4, 54, 80
4, 30360, Note_off_c, 4, 47, 80
4, 30484, Note_on_c, 4, 47, 95
4, 30500, Note_on_c, 4, 54, 95
4, 30524, Note_on_c, 4, 59, 95
4, 30600, Note_off_c, 4, 59, 80
4, 30600, Note_off_c, 4, 54, 80
4, 30600, Note_off_c, 4, 47, 80
4, 30600, Note_on_c, 4, 59, 95
4, 30600, Note_on_c, 4, 54, 95
4, 30600, Note_on_c, 4, 47, 95
4, 30719, Note_off_c, 4, 59, 80
4, 30719, Note_off_c, 4, 54, 80
4, 30719, Note_off_c, 4, 47, 80
4, 30722, Note_on_c, 4, 57, 95
4, 30729, Note_on_c, 4, 52, 95
4, 30740, Note_on_c, 4, 45, 95
4, 30960, Note_off_c, 4, 57, 80
4, 30960, Note_off_c, 4, 52, 80
4, 30960, Note_off_c, 4, 45, 80
4, 30960, Note_on_c, 4, 57, 95
4, 30960, Note_on_c, 4, 52, 95
4, 30960, Note_on_c, 4, 45, 95
4, 30980, Note_off_c, 4, 57, 80
4, 30980, Note_off_c, 4, 52, 80
4, 30980, Note_off_c, 4, 45, 80
4, 31080, Note_on_c, 4, 57, 95
4, 31080, Note_on_c, 4, 52, 95
4, 31080, Note_on_c, 4, 45, 95
4, 31199, Note_off_c, 4, 57, 80
4, 31199, Note_off_c, 4, 52, 80
4, 31199, Note_off_c, 4, 45, 80
4, 31224, Note_on_c, 4, 43, 95
4, 31235, Note_on_c, 4, 50, 95
4, 31244, Note_on_c, 4, 55, 95
4, 31440, Note_off_c, 4, 55, 80
4, 31440, Note_off_c, 4, 50, 80
4, 31440, Note_off_c, 4, 43, 80
4, 31440, Note_on_c, 4, 55, 95
4, 31440, Note_on_c, 4, 50, 95
4, 31440, Note_on_c, 4, 43, 95
4, 31460, Note_off_c, 4, 55, 80
4, 31460, Note_off_c, 4, 50, 80
4, 31460, Note_off_c, 4, 43, 80
4, 31560, Note_on_c, 4, 55, 95
4, 31560, Note_on_c, 4, 50, 95
4, 31560, Note_on_c, 4, 43, 95
4, 31679, Note_off_c, 4, 55, 80
4, 31679, Note_off_c, 4, 50, 80
4, 31679, Note_off_c, 4, 43, 80
4, 31691, Note_on_c, 4, 48, 95
4, 31695, Note_on_c, 4, 60, 95
4, 31700, Note_on_c, 4, 55, 95
4, 31920, Note_off_c, 4, 60, 80
4, 31920, Note_off_c, 4, 55, 80
4, 31920, Note_off_c, 4, 48, 80
4, 31920, Note_on_c, 4, 60, 95
4, 31920, Note_on_c, 4, 55, 95
4, 31920, Note_on_c, 4, 48, 95
4, 31940, Note_off_c, 4, 60, 80
4, 31940, Note_off_c, 4, 55, 80
4, 31940, Note_off_c, 4, 48, 80
4, 32040, Note_on_c, 4, 65, 95
4, 32040, Note_on_c, 4, 60, 95
4, 32040, Note_on_c, 4, 53, 95
4, 32159, Note_off_c, 4, 65, 80
4, 32159, Note_off_c, 4, 60, 80
4, 32159, Note_off_c, 4, 53, 80
4, 32163, Note_on_c, 4, 60, 95
4, 32200, Note_on_c, 4, 53, 95
4, 32202, Note_on_c, 4, 65, 95
4, 32400, Note_off_c, 4, 65, 80
4, 32400, Note_off_c, 4, 60, 80
4, 32400, Note_off_c, 4, 53, 80
4, 32400, Note_on_c, 4, 65, 95
4, 32400, Note_on_c, 4, 60, 95
4, 32400, Note_on_c, 4, 53, 95
4, 32420, Note_off_c, 4, 65, 80
4, 32420, Note_off_c, 4, 60, 80
4, 32420, Note_off_c, 4, 53, 80
4, 32520, Note_on_c, 4, 60, 95
4, 32520, Note_on_c, 4, 53, 95
4, 32639, Note_off_c, 4, 60, 80
4, 32639, Note_off_c, 4, 53, 80
4, 32655, Note_on_c, 4, 57, 95
4, 32673, Note_on_c, 4, 45, 95
4, 32677, Note_on_c, 4, 52, 95
4, 32880, Note_off_c, 4, 57, 80
4, 32880, Note_off_c, 4, 52, 80
4, 32880, Note_off_c, 4, 45, 80
4, 32880, Note_on_c, 4, 57, 95
4, 32880, Note_on_c, 4, 52, 95
4, 32880, Note_on_c, 4, 45, 95
4, 32900, Note_off_c, 4, 57, 80
4, 32900, Note_off_c, 4, 52, 80
4, 32900, Note_off_c, 4, 45, 80
4, 33000, Note_on_c, 4, 57, 95
4, 33000, Note_on_c, 4, 52, 95
4, 33119, Note_off_c, 4, 57, 80
4, 33119, Note_off_c, 4, 52, 80
4, 33134, Note_on_c, 4, 64, 95
4, 33138, Note_on_c, 4, 52, 95
4, 33143, Note_on_c, 4, 59, 95
4, 33360, Note_off_c, 4, 64, 80
4, 33360, Note_off_c, 4, 59, 80
4, 33360, Note_off_c, 4, 52, 80
4, 33360, Note_on_c, 4, 64, 95
4, 33360, Note_on_c, 4, 59, 95
4, 33360, Note_on_c, 4, 52, 95
4, 33380, Note_off_c, 4, 64, 80
4, 33380, Note_off_c, 4, 59, 80
4, 33380, Note_off_c, 4, 52, 80
4, 33480, Note_on_c, 4, 59, 95
4, 33480, Note_on_c, 4, 52, 95
4, 33599, Note_off_c, 4, 59, 80
4, 33599, Note_off_c, 4, 52, 80
4, 33635, Note_on_c, 4, 59, 95
4, 33635, Note_on_c, 4, 47, 95
4, 33639, Note_on_c, 4, 54, 95
4, 33840, Note_off_c, 4, 59, 80
4, 33840, Note_off_c, 4, 54, 80
4, 33840, Note_off_c, 4, 47, 80
4, 33978, Note_on_c, 4, 47, 95
4, 34000, Note_on_c, 4, 59, 95
4, 34003, Note_on_c, 4, 54, 95
4, 34200, Note_off_c, 4, 59, 80
4, 34200, Note_off_c, 4, 54, 80
4, 34200, Note_off_c, 4, 47, 80
4, 34325, Note_on_c, 4, 47, 95
4, 34331, Note_on_c, 4, 59, 95
4, 34353, Note_on_c, 4, 54, 95
4, 34440, Note_off_c, 4, 59, 80
4, 34440, Note_off_c, 4, 54, 80
4, 34440, Note_off_c, 4, 47, 80
4, 34440, Note_on_c, 4, 59, 95
4, 34440, Note_on_c, 4, 54, 95
4, 34440, Note_on_c, 4, 47, 95
4, 34559, Note_off_c, 4, 59, 80
4, 34559, Note_off_c, 4, 54, 80
4, 34559, Note_off_c, 4, 47, 80
4, 34568, Note_on_c, 4, 52, 95
4, 34575, Note_on_c, 4, 57, 95
4, 34598, Note_on_c, 4, 45, 95
4, 34800, Note_off_c, 4, 57, 80
4, 34800, Note_off_c, 4, 52, 80
4, 34800, Note_off_c, 4, 45, 80
4, 34800, Note_on_c, 4, 57, 95
4, 34800, Note_on_c, 4, 52, 95
4, 34800, Note_on_c, 4, 45, 95
4, 34820, Note_off_c, 4, 57, 80
4, 34820, Note_off_c, 4, 52, 80
4, 34820, Note_off_c, 4, 45, 80
4, 34920, Note_on_c, 4, 57, 95
4, 34920, Note_on_c, 4, 52, 95
4, 34920, Note_on_c, 4, 45, 95
4, 35039, Note_off_c, 4, 57, 80
4, 35039, Note_off_c, 4, 52, 80
4, 35039, Note_off_c, 4, 45, 80
4, 35044, Note_on_c, 4, 43, 95
4, 35067, Note_on_c, 4, 50, 95
4, 35082, Note_on_c, 4, 55, 95
4, 35280, Note_off_c, 4, 55, 80
4, 35280, Note_off_c, 4, 50, 80
4, 35280, Note_off_c, 4, 43, 80
4, 35280, Note_on_c, 4, 55, 95
4, 35280, Note_on_c, 4, 50, 95
4, 35280, Note_on_c, 4, 43, 95
4, 35300, Note_off_c, 4, 55, 80
4, 35300, Note_off_c, 4, 50, 80
4, 35300, Note_off_c, 4, 43, 80
4, 35400, Note_on_c, 4, 55, 95
4, 35400, Note_on_c, 4, 50, 95
4, 35400, Note_on_c, 4, 43, 95
4, 35519, Note_off_c, 4, 55, 80
4, 35519, Note_off_c, 4, 50, 80
4, 35519, Note_off_c, 4, 43, 80
4, 35531, Note_on_c, 4, 55, 95
4, 35549, Note_on_c, 4, 48, 95
4, 35554, Note_on_c, 4, 60, 95
4, 35760, Note_off_c, 4, 60, 80
4, 35760, Note_off_c, 4, 55, 80
4, 35760, Note_off_c, 4, 48, 80
4, 35760, Note_on_c, 4, 60, 95
4, 35760, Note_on_c, 4, 55, 95
4, 35760, Note_on_c, 4, 48, 95
4, 35780, Note_off_c, 4, 60, 80
4, 35780, Note_off_c, 4, 55, 80
4, 35780, Note_off_c, 4, 48, 80
4, 35880, Note_on_c, 4, 65, 95
4, 35880, Note_on_c, 4, 60, 95
4, 35880, Note_on_c, 4, 53, 95
4, 35999, Note_off_c, 4, 65, 80
4, 35999, Note_off_c, 4, 60, 80
4, 35999, Note_off_c, 4, 53, 80
4, 36003, Note_on_c, 4, 53, 95
4, 36024, Note_on_c, 4, 60, 95
4, 36030, Note_on_c, 4, 65, 95
4, 36240, Note_off_c, 4, 65, 80
4, 36240, Note_off_c, 4, 60, 80
4, 36240, Note_off_c, 4, 53, 80
4, 36240, Note_on_c, 4, 65, 95
4, 36240, Note_on_c, 4, 60, 95
4, 36240, Note_on_c, 4, 53, 95
4, 36260, Note_off_c, 4, 65, 80
4, 36260, Note_off_c, 4, 60, 80
4, 36260, Note_off_c, 4, 53, 80
4, 36360, Note_on_c, 4, 60, 95
4, 36360, Note_on_c, 4, 53, 95
4, 36479, Note_off_c, 4, 60, 80
4, 36479, Note_off_c, 4, 53, 80
4, 36491, Note_on_c, 4, 57, 95
4, 36492, Note_on_c, 4, 52, 95
4, 36508, Note_on_c, 4, 45, 95
4, 36720, Note_off_c, 4, 57, 80
4, 36720, Note_off_c, 4, 52, 80
4, 36720, Note_off_c, 4, 45, 80
4, 36720, Note_on_c, 4, 57, 95
4, 36720, Note_on_c, 4, 52, 95
4, 36720, Note_on_c, 4, 45, 95
4, 36740, Note_off_c, 4, 57, 80
4, 36740, Note_off_c, 4, 52, 80
4, 36740, Note_off_c, 4, 45, 80
4, 36840, Note_on_c, 4, 57, 95
4, 36840, Note_on_c, 4, 52, 95
4, 36959, Note_off_c, 4, 57, 80
4, 36959, Note_off_c, 4, 52, 80
4, 36980, Note_on_c, 4, 64, 95
4, 36992, Note_on_c, 4, 59, 95
4, 36996, Note_on_c, 4, 52, 95
4, 37200, Note_off_c, 4, 64, 80
4, 37200, Note_off_c, 4, 59, 80
4, 37200, Note_off_c, 4, 52, 80
4, 37200, Note_on_c, 4, 64, 95
4, 37200, Note_on_c, 4, 59, 95
4, 37200, Note_on_c, 4, 52, 95
4, 37220, Note_off_c, 4, 64, 80
4, 37220, Note_off_c, 4, 59, 80
4, 37220, Note_off_c, 4, 52, 80
4, 37320, Note_on_c, 4, 59, 95
4, 37320, Note_on_c, 4, 52, 95
4, 37439, Note_off_c, 4, 59, 80
4, 37439, Note_off_c, 4, 52, 80
4, 37454, Note_on_c, 4, 48, 95
4, 37464, Note_on_c, 4, 55, 95
4, 37471, Note_on_c, 4, 60, 95
4, 37680, Note_off_c, 4, 60, 80
4, 37680, Note_off_c, 4, 55, 80
4, 37680, Note_off_c, 4, 48, 80
4, 37817, Note_on_c, 4, 62, 95
4, 37840, Note_on_c, 4, 57, 95
4, 37840, Note_on_c, 4, 50, 95
4, 38040, Note_off_c, 4, 62, 80
4, 38040, Note_off_c, 4, 57, 80
4, 38040, Note_off_c, 4, 50, 80
4, 38167, Note_on_c, 4, 52, 95
4, 38172, Note_on_c, 4, 64, 95
4, 38176, Note_on_c, 4, 59, 95
4, 38280, Note_off_c, 4, 64, 80
4, 38280, Note_off_c, 4, 59, 80
4, 38280, Note_off_c, 4, 52, 80
4, 38280, Note_on_c, 4, 59, 95
4, 38280, Note_on_c, 4, 52, 95
4, 38399, Note_off_c, 4, 59, 80
4, 38399, Note_off_c, 4, 52, 80
4, 38407, Note_on_c, 4, 57, 95
4, 38408, Note_on_c, 4, 52, 95
4, 38413, Note_on_c, 4, 45, 95
4, 38640, Note_off_c, 4, 57, 80
4, 38640, Note_off_c, 4, 52, 80
4, 38640, Note_off_c, 4, 45, 80
4, 38640, Note_on_c, 4, 57, 95
4, 38640, Note_on_c, 4, 52, 95
4, 38640, Note_on_c, 4, 45, 95
4, 38660, Note_off_c, 4, 57, 80
4, 38660, Note_off_c, 4, 52, 80
4, 38660, Note_off_c, 4, 45, 80
4, 38760, Note_on_c, 4, 57, 95
4, 38760, Note_on_c, 4, 52, 95
4, 38760, Note_on_c, 4, 45, 95
4, 38879, Note_off_c, 4, 57, 80
4, 38879, Note_off_c, 4, 52, 80
4, 38879, Note_off_c, 4, 45, 80
4, 38915, Note_on_c, 4, 50, 95
4, 38918, Note_on_c, 4, 55, 95
4, 38922, Note_on_c, 4, 43, 95
4, 39120, Note_off_c, 4, 55, 80
4, 39120, Note_off_c, 4, 50, 80
4, 39120, Note_off_c, 4, 43, 80
4, 39120, Note_on_c, 4, 55, 95
4, 39120, Note_on_c, 4, 50, 95
4, 39120, Note_on_c, 4, 43, 95
4, 39140, Note_off_c, 4, 55, 80
4, 39140, Note_off_c, 4, 50, 80
4, 39140, Note_off_c, 4, 43, 80
4, 39240, Note_on_c, 4, 55, 95
4, 39240, Note_on_c, 4, 50, 95
4, 39240, Note_on_c, 4, 43, 95
4, 39359, Note_off_c, 4, 55, 80
4, 39359, Note_off_c, 4, 50, 80
4, 39359, Note_off_c, 4, 43, 80
4, 39362, Note_on_c, 4, 55, 95
4, 39393, Note_on_c, 4, 60, 95
4, 39403, Note_on_c, 4, 48, 95
4, 39600, Note_off_c, 4, 60, 80
4, 39600, Note_off_c, 4, 55, 80
4, 39600, Note_off_c, 4, 48, 80
4, 39600, Note_on_c, 4, 60, 95
4, 39600, Note_on_c, 4, 55, 95
4, 39600, Note_on_c, 4, 48, 95
4, 39620, Note_off_c, 4, 60, 80
4, 39620, Note_off_c, 4, 55, 80
4, 39620, Note_off_c, 4, 48, 80
4, 39720, Note_on_c, 4, 65, 95
4, 39720, Note_on_c, 4, 60, 95
4, 39720, Note_on_c, 4, 53, 95
4, 39839, Note_off_c, 4, 65, 80
4, 39839, Note_off_c, 4, 60, 80
4, 39839, Note_off_c, 4, 53, 80
4, 39854, Note_on_c, 4, 53, 95
4, 39857, Note_on_c, 4, 60, 95
4, 39883, Note_on_c, 4, 65, 95
4, 40080, Note_off_c, 4, 65, 80
4, 40080, Note_off_c, 4, 60, 80
4, 40080, Note_off_c, 4, 53, 80
4, 40080, Note_on_c, 4, 65, 95
4, 40080, Note_on_c, 4, 60, 95
4, 40080, Note_on_c, 4, 53, 95
4, 40100, Note_off_c, 4, 65, 80
4, 40100, Note_off_c, 4, 60, 80
4, 40100, Note_off_c, 4, 53, 80
4, 40200, Note_on_c, 4, 60, 95
4, 40200, Note_on_c, 4, 53, 95
4, 40319, Note_off_c, 4, 60, 80
4, 40319, Note_off_c, 4, 53, 80
4, 40323, Note_on_c, 4, 52, 95
4, 40331, Note_on_c, 4, 45, 95
4, 40342, Note_on_c, 4, 57, 95
4, 40560, Note_off_c, 4, 57, 80
4, 40560, Note_off_c, 4, 52, 80
4, 40560, Note_off_c, 4, 45, 80
4, 40560, Note_on_c, 4, 57, 95
4, 40560, Note_on_c, 4, 52, 95
4, 40560, Note_on_c, 4, 45, 95
4, 40580, Note_off_c, 4, 57, 80
4, 40580, Note_off_c, 4, 52, 80
4, 40580, Note_off_c, 4, 45, 80
4, 40680, Note_on_c, 4, 57, 95
4, 40680, Note_on_c, 4, 52, 95
4, 40799, Note_off_c, 4, 57, 80
4, 40799, Note_off_c, 4, 52, 80
4, 40802, Note_on_c, 4, 59, 95
4, 40802, Note_on_c, 4, 52, 95
4, 40829, Note_on_c, 4, 64, 95
4, 41040, Note_off_c, 4, 64, 80
4, 41040, Note_off_c, 4, 59, 80
4, 41040, Note_off_c, 4, 52, 80
4, 41040, Note_on_c, 4, 64, 95
4, 41040, Note_on_c, 4, 59, 95
4, 41040, Note_on_c, 4, 52, 95
4, 41060, Note_off_c, 4, 64, 80
4, 41060, Note_off_c, 4, 59, 80
4, 41060, Note_off_c, 4, 52, 80
4, 41160, Note_on_c, 4, 59, 95
4, 41160, Note_on_c, 4, 52, 95
4, 41279, Note_off_c, 4, 59, 80
4, 41279, Note_off_c, 4, 52, 80
4, 41291, Note_on_c, 4, 50, 95
4, 41297, Note_on_c, 4, 57, 95
4, 41307, Note_on_c, 4, 62, 95
4, 41520, Note_off_c, 4, 62, 80
4, 41520, Note_off_c, 4, 57, 80
4, 41520, Note_off_c, 4, 50, 80
4, 41520, Note_on_c, 4, 62, 95
4, 41520, Note_on_c, 4, 57, 95
4, 41520, Note_on_c, 4, 50, 95
4, 41540, Note_off_c, 4, 62, 80
4, 41540, Note_off_c, 4, 57, 80
4, 41540, Note_off_c, 4, 50, 80
4, 41640, Note_on_c, 4, 57, 95
4, 41640, Note_on_c, 4, 50, 95
4, 41759, Note_off_c, 4, 57, 80
4, 41759, Note_off_c, 4, 50, 80
4, 41774, Note_on_c, 4, 55, 95
4, 41777, Note_on_c, 4, 48, 95
4, 41798, Note_on_c, 4, 60, 95
4, 42000, Note_off_c, 4, 60, 80
4, 42000, Note_off_c, 4, 55, 80
4, 42000, Note_off_c, 4, 48, 80
4, 42000, Note_on_c, 4, 60, 95
4, 42000, Note_on_c, 4, 55, 95
4, 42000, Note_on_c, 4, 48, 95
4, 42020, Note_off_c, 4, 60, 80
4, 42020, Note_off_c, 4, 55, 80
4, 42020, Note_off_c, 4, 48, 80
4, 42240, Note_on_c, 4, 52, 95
4, 42255, Note_on_c, 4, 57, 95
4, 42282, Note_on_c, 4, 45, 95
4, 42480, Note_off_c, 4, 57, 80
4, 42480, Note_off_c, 4, 52, 80
4, 42480, Note_off_c, 4, 45, 80
4, 42480, Note_on_c, 4, 57, 95
4, 42480, Note_on_c, 4, 52, 95
4, 42480, Note_on_c, 4, 45, 95
4, 42500, Note_off_c, 4, 57, 80
4, 42500, Note_off_c, 4, 52, 80
4, 42500, Note_off_c, 4, 45, 80
4, 42600, Note_on_c, 4, 57, 95
4, 42600, Note_on_c, 4, 52, 95
4, 42600, Note_on_c, 4, 45, 95
4, 42719, Note_off_c, 4, 57, 80
4, 42719, Note_off_c, 4, 52, 80
4, 42719, Note_off_c, 4, 45, 80
4, 42736, Note_on_c, 4, 55, 95
4, 42737, Note_on_c, 4, 50, 95
4, 42738, Note_on_c, 4, 43, 95
4, 42960, Note_off_c, 4, 55, 80
4, 42960, Note_off_c, 4, 50, 80
4, 42960, Note_off_c, 4, 43, 80
4, 42960, Note_on_c, 4, 55, 95
4, 42960, Note_on_c, 4, 50, 95
4, 42960, Note_on_c, 4, 43, 95
4, 42980, Note_off_c, 4, 55, 80
4, 42980, Note_off_c, 4, 50, 80
4, 42980, Note_off_c, 4, 43, 80
4, 43080, Note_on_c, 4, 55, 95
4, 43080, Note_on_c, 4, 50, 95
4, 43080, Note_on_c, 4, 43, 95
4, 43199, Note_off_c, 4, 55, 80
4, 43199, Note_off_c, 4, 50, 80
4, 43199, Note_off_c, 4, 43, 80
4, 43215, Note_on_c, 4, 48, 95
4, 43217, Note_on_c, 4, 60, 95
4, 43235, Note_on_c, 4, 55, 95
4, 43440, Note_off_c, 4, 60, 80
4, 43440, Note_off_c, 4, 55, 80
4, 43440, Note_off_c, 4, 48, 80
4, 43440, Note_on_c, 4, 60, 95
4, 43440, Note_on_c, 4, 55, 95
4, 43440, Note_on_c, 4, 48, 95
4, 43460, Note_off_c, 4, 60, 80
4, 43460, Note_off_c, 4, 55, 80
4, 43460, Note_off_c, 4, 48, 80
4, 43560, Note_on_c, 4, 65, 95
4, 43560, Note_on_c, 4, 60, 95
4, 43560, Note_on_c, 4, 53, 95
4, 43679, Note_off_c, 4, 65, 80
4, 43679, Note_off_c, 4, 60, 80
4, 43679, Note_off_c, 4, 53, 80
4, 43681, Note_on_c, 4, 60, 95
4, 43700, Note_on_c, 4, 53, 95
4, 43722, Note_on_c, 4, 65, 95
4, 43920, Note_off_c, 4, 65, 80
4, 43920, Note_off_c, 4, 60, 80
4, 43920, Note_off_c, 4, 53, 80
4, 43920, Note_on_c, 4, 65, 95
4, 43920, Note_on_c, 4, 60, 95
4, 43920, Note_on_c, 4, 53, 95
4, 43940, Note_off_c, 4, 65, 80
4, 43940, Note_off_c, 4, 60, 80
4, 43940, Note_off_c, 4, 53, 80
4, 44040, Note_on_c, 4, 60, 95
4, 44040, Note_on_c, 4, 53, 95
4, 44159, Note_off_c, 4, 60, 80
4, 44159, Note_off_c, 4, 53, 80
4, 44166, Note_on_c, 4, 45, 95
4, 44201, Note_on_c, 4, 57, 95
4, 44204, Note_on_c, 4, 52, 95
4, 44400, Note_off_c, 4, 57, 80
4, 44400, Note_off_c, 4, 52, 80
4, 44400, Note_off_c, 4, 45, 80
4, 44400, Note_on_c, 4, 57, 95
4, 44400, Note_on_c, 4, 52, 95
4, 44400, Note_on_c, 4, 45, 95
4, 44420, Note_off_c, 4, 57, 80
4, 44420, Note_off_c, 4, 52, 80
4, 44420, Note_off_c, 4, 45, 80
4, 44520, Note_on_c, 4, 57, 95
4, 44520, Note_on_c, 4, 52, 95
4, 44639, Note_off_c, 4, 57, 80
4, 44639, Note_off_c, 4, 52, 80
4, 44654, Note_on_c, 4, 59, 95
4, 44656, Note_on_c, 4, 52, 95
4, 44658, Note_on_c, 4, 64, 95
4, 44880, Note_off_c, 4, 64, 80
4, 44880, Note_off_c, 4, 59, 80
4, 44880, Note_off_c, 4, 52, 80
4, 44880, Note_on_c, 4, 64, 95
4, 44880, Note_on_c, 4, 59, 95
4, 44880, Note_on_c, 4, 52, 95
4, 44900, Note_off_c, 4, 64, 80
4, 44900, Note_off_c, 4, 59, 80
4, 44900, Note_off_c, 4, 52, 80
4, 45000, Note_on_c, 4, 59, 95
4, 45000, Note_on_c, 4, 52, 95
4, 45119, Note_off_c, 4, 59, 80
4, 45119, Note_off_c, 4, 52, 80
4, 45147, Note_on_c, 4, 47, 95
4, 45158, Note_on_c, 4, 59, 95
4, 45161, Note_on_c, 4, 54, 95
4, 45360, Note_off_c, 4, 59, 80
4, 45360, Note_off_c, 4, 54, 80
4, 45360, Note_off_c, 4, 47, 80
4, 45360, Note_on_c, 4, 59, 95
4, 45360, Note_on_c, 4, 54, 95
4, 45360, Note_on_c, 4, 47, 95
4, 45380, Note_off_c, 4, 59, 80
4, 45380, Note_off_c, 4, 54, 80
4, 45380, Note_off_c, 4, 47, 80
4, 45480, Note_on_c, 4, 59, 95
4, 45480, Note_on_c, 4, 54, 95
4, 45599, Note_off_c, 4, 59, 80
4, 45599, Note_off_c, 4, 54, 80
4, 45608, Note_on_c, 4, 59, 95
4, 45619, Note_on_c, 4, 52, 95
4, 45636, Note_on_c, 4, 64, 95
4, 45840, Note_off_c, 4, 64, 80
4, 45840, Note_off_c, 4, 59, 80
4, 45840, Note_off_c, 4, 52, 80
4, 45840, Note_on_c, 4, 64, 95
4, 45840, Note_on_c, 4, 59, 95
4, 45840, Note_on_c, 4, 52, 95
4, 45860, Note_off_c, 4, 64, 80
4, 45860, Note_off_c, 4, 59, 80
4, 45860, Note_off_c, 4, 52, 80
4, 45960, Note_on_c, 4, 59, 95
4, 45960, Note_on_c, 4, 52, 95
4, 46079, Note_off_c, 4, 59, 80
4, 46079, Note_off_c, 4, 52, 80
4, 46100, Note_on_c, 4, 57, 95
4, 46104, Note_on_c, 4, 52, 95
4, 46115, Note_on_c, 4, 45, 95
4, 46320, Note_off_c, 4, 57, 80
4, 46320, Note_off_c, 4, 52, 80
4, 46320, Note_off_c, 4, 45, 80
4, 46320, Note_on_c, 4, 57, 95
4, 46320, Note_on_c, 4, 52, 95
4, 46320, Note_on_c, 4, 45, 95
4, 46340, Note_off_c, 4, 57, 80
4, 46340, Note_off_c, 4, 52, 80
4, 46340, Note_off_c, 4, 45, 80
4, 46440, Note_on_c, 4, 57, 95
4, 46440, Note_on_c, 4, 52, 95
4, 46440, Note_on_c, 4, 45, 95
4, 46559, Note_off_c, 4, 57, 80
4, 46559, Note_off_c, 4, 52, 80
4, 46559, Note_off_c, 4, 45, 80
4, 46561, Note_on_c, 4, 55, 95
4, 46594, Note_on_c, 4, 43, 95
4, 46595, Note_on_c, 4, 50, 95
4, 46800, Note_off_c, 4, 55, 80
4, 46800, Note_off_c, 4, 50, 80
4, 46800, Note_off_c, 4, 43, 80
4, 46800, Note_on_c, 4, 55, 95
4, 46800, Note_on_c, 4, 50, 95
4, 46800, Note_on_c, 4, 43, 95
4, 46820, Note_off_c, 4, 55, 80
4, 46820, Note_off_c, 4, 50, 80
4, 46820, Note_off_c, 4, 43, 80
4, 46920, Note_on_c, 4, 55, 95
4, 46920, Note_on_c, 4, 50, 95
4, 46920, Note_on_c, 4, 43, 95
4, 47039, Note_off_c, 4, 55, 80
4, 47039, Note_off_c, 4, 50, 80
4, 47039, Note_off_c, 4, 43, 80
4, 47049, Note_on_c, 4, 48, 95
4, 47065, Note_on_c, 4, 60, 95
4, 47082, Note_on_c, 4, 55, 95
4, 47280, Note_off_c, 4, 60, 80
4, 47280, Note_off_c, 4, 55, 80
4, 47280, Note_off_c, 4, 48, 80
4, 47280, Note_on_c, 4, 60, 95
4, 47280, Note_on_c, 4, 55, 95
4, 47280, Note_on_c, 4, 48, 95
4, 47300, Note_off_c, 4, 60, 80
4, 47300, Note_off_c, 4, 55, 80
4, 47300, Note_off_c, 4, 48, 80
4, 47400, Note_on_c, 4, 65, 95
4, 47400, Note_on_c, 4, 60, 95
4, 47400, Note_on_c, 4, 53, 95
4, 47519, Note_off_c, 4, 65, 80
4, 47519, Note_off_c, 4, 60, 80
4, 47519, Note_off_c, 4, 53, 80
4, 47530, Note_on_c, 4, 60, 95
4, 47545, Note_on_c, 4, 65, 95
4, 47549, Note_on_c, 4, 53, 95
4, 47760, Note_off_c, 4, 65, 80
4, 47760, Note_off_c, 4, 60, 80
4, 47760, Note_off_c, 4, 53, 80
4, 47760, Note_on_c, 4, 65, 95
4, 47760, Note_on_c, 4, 60, 95
4, 47760, Note_on_c, 4, 53, 95
4, 47780, Note_off_c, 4, 65, 80
4, 47780, Note_off_c, 4, 60, 80
4, 47780, Note_off_c, 4, 53, 80
4, 47880, Note_on_c, 4, 60, 95
4, 47880, Note_on_c, 4, 53, 95
4, 47999, Note_off_c, 4, 60, 80
4, 47999, Note_off_c, 4, 53, 80
4, 48002, Note_on_c, 4, 57, 95
4, 48010, Note_on_c, 4, 45, 95
4, 48029, Note_on_c, 4, 52, 95
4, 48240, Note_off_c, 4, 57, 80
4, 48240, Note_off_c, 4, 52, 80
4, 48240, Note_off_c, 4, 45, 80
4, 48240, Note_on_c, 4, 57, 95
4, 48240, Note_on_c, 4, 52, 95
4, 48240, Note_on_c, 4, 45, 95
4, 48260, Note_off_c, 4, 57, 80
4, 48260, Note_off_c, 4, 52, 80
4, 48260, Note_off_c, 4, 45, 80
4, 48360, Note_on_c, 4, 57, 95
4, 48360, Note_on_c, 4, 52, 95
4, 48479, Note_off_c, 4, 57, 80
4, 48479, Note_off_c, 4, 52, 80
4, 48481, Note_on_c, 4, 52, 95
4, 48494, Note_on_c, 4, 64, 95
4, 48499, Note_on_c, 4, 59, 95
4, 48720, Note_off_c, 4, 64, 80
4, 48720, Note_off_c, 4, 59, 80
4, 48720, Note_off_c, 4, 52, 80
4, 48720, Note_on_c, 4, 64, 95
4, 48720, Note_on_c, 4, 59, 95
4, 48720, Note_on_c, 4, 52, 95
4, 48740, Note_off_c, 4, 64, 80
4, 48740, Note_off_c, 4, 59, 80
4, 48740, Note_off_c, 4, 52, 80
4, 48840, Note_on_c, 4, 59, 95
4, 48840, Note_on_c, 4, 52, 95
4, 48959, Note_off_c, 4, 59, 80
4, 48959, Note_off_c, 4, 52, 80
4, 48971, Note_on_c, 4, 47, 95
4, 48975, Note_on_c, 4, 59, 95
4, 48977, Note_on_c, 4, 54, 95
4, 49200, Note_off_c, 4, 59, 80
4, 49200, Note_off_c, 4, 54, 80
4, 49200, Note_off_c, 4, 47, 80
4, 49200, Note_on_c, 4, 59, 95
4, 49200, Note_on_c, 4, 54, 95
4, 49200, Note_on_c, 4, 47, 95
4, 49220, Note_off_c, 4, 59, 80
4, 49220, Note_off_c, 4, 54, 80
4, 49220, Note_off_c, 4, 47, 80
4, 49320, Note_on_c, 4, 59, 95
4, 49320, Note_on_c, 4, 54, 95
4, 49439, Note_off_c, 4, 59, 80
4, 49439, Note_off_c, 4, 54, 80
4, 49450, Note_on_c, 4, 52, 95
4, 49453, Note_on_c, 4, 59, 95
4, 49456, Note_on_c, 4, 64, 95
4, 49680, Note_off_c, 4, 64, 80
4, 49680, Note_off_c, 4, 59, 80
4, 49680, Note_off_c, 4, 52, 80
4, 49680, Note_on_c, 4, 64, 95
4, 49680, Note_on_c, 4, 59, 95
4, 49680, Note_on_c, 4, 52, 95
4, 49700, Note_off_c, 4, 64, 80
4, 49700, Note_off_c, 4, 59, 80
4, 49700, Note_off_c, 4, 52, 80
4, 49800, Note_on_c, 4, 59, 95
4, 49800, Note_on_c, 4, 54, 95
4, 49800, Note_on_c, 4, 47, 95
4, 49919, Note_off_c, 4, 59, 80
4, 49919, Note_off_c, 4, 54, 80
4, 49919, Note_off_c, 4, 47, 80
4, 49944, Note_on_c, 4, 57, 95
4, 49948, Note_on_c, 4, 52, 95
4, 49956, Note_on_c, 4, 45, 95
4, 50160, Note_off_c, 4, 57, 80
4, 50160, Note_off_c, 4, 52, 80
4, 50160, Note_off_c, 4, 45, 80
4, 50160, Note_on_c, 4, 57, 95
4, 50160, Note_on_c, 4, 52, 95
4, 50160, Note_on_c, 4, 45, 95
4, 50180, Note_off_c, 4, 57, 80
4, 50180, Note_off_c, 4, 52, 80
4, 50180, Note_off_c, 4, 45, 80
4, 50280, Note_on_c, 4, 57, 95
4, 50280, Note_on_c, 4, 52, 95
4, 50280, Note_on_c, 4, 45, 95
4, 50399, Note_off_c, 4, 57, 80
4, 50399, Note_off_c, 4, 52, 80
4, 50399, Note_off_c, 4, 45, 80
4, 50403, Note_on_c, 4, 50, 95
4, 50409, Note_on_c, 4, 55, 95
4, 50437, Note_on_c, 4, 43, 95
4, 50640, Note_off_c, 4, 55, 80
4, 50640, Note_off_c, 4, 50, 80
4, 50640, Note_off_c, 4, 43, 80
4, 50640, Note_on_c, 4, 55, 95
4, 50640, Note_on_c, 4, 50, 95
4, 50640, Note_on_c, 4, 43, 95
4, 50660, Note_off_c, 4, 55, 80
4, 50660, Note_off_c, 4, 50, 80
4, 50660, Note_off_c, 4, 43, 80
4, 50760, Note_on_c, 4, 55, 95
4, 50760, Note_on_c, 4, 50, 95
4, 50760, Note_on_c, 4, 43, 95
4, 50879, Note_off_c, 4, 55, 80
4, 50879, Note_off_c, 4, 50, 80
4, 50879, Note_off_c, 4, 43, 80
4, 50904, Note_on_c, 4, 55, 95
4, 50920, Note_on_c, 4, 60, 95
4, 50921, Note_on_c, 4, 48, 95
4, 51120, Note_off_c, 4, 60, 80
4, 51120, Note_off_c, 4, 55, 80
4, 51120, Note_off_c, 4, 48, 80
4, 51120, Note_on_c, 4, 60, 95
4, 51120, Note_on_c, 4, 55, 95
4, 51120, Note_on_c, 4, 48, 95
4, 51140, Note_off_c, 4, 60, 80
4, 51140, Note_off_c, 4, 55, 80
4, 51140, Note_off_c, 4, 48, 80
4, 51240, Note_on_c, 4, 65, 95
4, 51240, Note_on_c, 4, 60, 95
4, 51240, Note_on_c, 4, 53, 95
4, 51359, Note_off_c, 4, 65, 80
4, 51359, Note_off_c, 4, 60, 80
4, 51359, Note_off_c, 4, 53, 80
4, 51360, Note_on_c, 4, 65, 95
4, 51388, Note_on_c, 4, 60, 95
4, 51393, Note_on_c, 4, 53, 95
4, 51600, Note_off_c, 4, 65, 80
4, 51600, Note_off_c, 4, 60, 80
4, 51600, Note_off_c, 4, 53, 80
4, 51600, Note_on_c, 4, 65, 95
4, 51600, Note_on_c, 4, 60, 95
4, 51600, Note_on_c, 4, 53, 95
4, 51620, Note_off_c, 4, 65, 80
4, 51620, Note_off_c, 4, 60, 80
4, 51620, Note_off_c, 4, 53, 80
4, 51720, Note_on_c, 4, 60, 95
4, 51720, Note_on_c, 4, 53, 95
4, 51839, Note_off_c, 4, 60, 80
4, 51839, Note_off_c, 4, 53, 80
4, 51842, Note_on_c, 4, 52, 95
4, 51848, Note_on_c, 4, 45, 95
4, 51871, Note_on_c, 4, 57, 95
4, 52080, Note_off_c, 4, 57, 80
4, 52080, Note_off_c, 4, 52, 80
4, 52080, Note_off_c, 4, 45, 80
4, 52080, Note_on_c, 4, 57, 95
4, 52080, Note_on_c, 4, 52, 95
4, 52080, Note_on_c, 4, 45, 95
4, 52100, Note_off_c, 4, 57, 80
4, 52100, Note_off_c, 4, 52, 80
4, 52100, Note_off_c, 4, 45, 80
4, 52200, Note_on_c, 4, 57, 95
4, 52200, Note_on_c, 4, 52, 95
4, 52319, Note_off_c, 4, 57, 80
4, 52319, Note_off_c, 4, 52, 80
4, 52346, Note_on_c, 4, 52, 95
4, 52354, Note_on_c, 4, 64, 95
4, 52354, Note_on_c, 4, 59, 95
4, 52560, Note_off_c, 4, 64, 80
4, 52560, Note_off_c, 4, 59, 80
4, 52560, Note_off_c, 4, 52, 80
4, 52560, Note_on_c, 4, 64, 95
4, 52560, Note_on_c, 4, 59, 95
4, 52560, Note_on_c, 4, 52, 95
4, 52580, Note_off_c, 4, 64, 80
4, 52580, Note_off_c, 4, 59, 80
4, 52580, Note_off_c, 4, 52, 80
4, 52680, Note_on_c, 4, 59, 95
4, 52680, Note_on_c, 4, 52, 95
4, 52799, Note_off_c, 4, 59, 80
4, 52799, Note_off_c, 4, 52, 80
4, 52813, Note_on_c, 4, 60, 95
4, 52830, Note_on_c, 4, 55, 95
4, 52841, Note_on_c, 4, 48, 95
4, 53040, Note_off_c, 4, 60, 80
4, 53040, Note_off_c, 4, 55, 80
4, 53040, Note_off_c, 4, 48, 80
4, 53177, Note_on_c, 4, 57, 95
4, 53192, Note_on_c, 4, 62, 95
4, 53196, Note_on_c, 4, 50, 95
4, 53400, Note_off_c, 4, 62, 80
4, 53400, Note_off_c, 4, 57, 80
4, 53400, Note_off_c, 4, 50, 80
4, 53520, Note_on_c, 4, 64, 95
4, 53534, Note_on_c, 4, 59, 95
4, 53558, Note_on_c, 4, 52, 95
4, 53640, Note_off_c, 4, 64, 80
4, 53640, Note_off_c, 4, 59, 80
4, 53640, Note_off_c, 4, 52, 80
4, 53640, Note_on_c, 4, 59, 95
4, 53640, Note_on_c, 4, 52, 95
4, 53759, Note_off_c, 4, 59, 80
4, 53759, Note_off_c, 4, 52, 80
4, 53761, Note_on_c, 4, 57, 95
4, 53765, Note_on_c, 4, 45, 95
4, 53781, Note_on_c, 4, 52, 95
4, 54000, Note_off_c, 4, 57, 80
4, 54000, Note_off_c, 4, 52, 80
4, 54000, Note_off_c, 4, 45, 80
4, 54000, Note_on_c, 4, 57, 95
4, 54000, Note_on_c, 4, 52, 95
4, 54000, Note_on_c, 4, 45, 95
4, 54020, Note_off_c, 4, 57, 80
4, 54020, Note_off_c, 4, 52, 80
4, 54020, Note_off_c, 4, 45, 80
4, 54120, Note_on_c, 4, 57, 95
4, 54120, Note_on_c, 4, 52, 95
4, 54120, Note_on_c, 4, 45, 95
4, 54239, Note_off_c, 4, 57, 80
4, 54239, Note_off_c, 4, 52, 80
4, 54239, Note_off_c, 4, 45, 80
4, 54250, Note_on_c, 4, 50, 95
4, 54274, Note_on_c, 4, 43, 95
4, 54283, Note_on_c, 4, 55, 95
4, 54480, Note_off_c, 4, 55, 80
4, 54480, Note_off_c, 4, 50, 80
4, 54480, Note_off_c, 4, 43, 80
4, 54480, Note_on_c, 4, 55, 95
4, 54480, Note_on_c, 4, 50, 95
4, 54480, Note_on_c, 4, 43, 95
4, 54500, Note_off_c, 4, 55, 80
4, 54500, Note_off_c, 4, 50, 80
4, 54500, Note_off_c, 4, 43, 80
4, 54600, Note_on_c, 4, 55, 95
4, 54600, Note_on_c, 4, 50, 95
4, 54600, Note_on_c, 4, 43, 95
4, 54719, Note_off_c, 4, 55, 80
4, 54719, Note_off_c, 4, 50, 80
4, 54719, Note_off_c, 4, 43, 80
4, 54731, Note_on_c, 4, 48, 95
4, 54739, Note_on_c, 4, 60, 95
4, 54758, Note_on_c, 4, 55, 95
4, 54960, Note_off_c, 4, 60, 80
4, 54960, Note_off_c, 4, 55, 80
4, 54960, Note_off_c, 4, 48, 80
4, 54960, Note_on_c, 4, 60, 95
4, 54960, Note_on_c, 4, 55, 95
4, 54960, Note_on_c, 4, 48, 95
4, 54980, Note_off_c, 4, 60, 80
4, 54980, Note_off_c, 4, 55, 80
4, 54980, Note_off_c, 4, 48, 80
4, 55080, Note_on_c, 4, 65, 95
4, 55080, Note_on_c, 4, 60, 95
4, 55080, Note_on_c, 4, 53, 95
4, 55199, Note_off_c, 4, 65, 80
4, 55199, Note_off_c, 4, 60, 80
4, 55199, Note_off_c, 4, 53, 80
4, 55221, Note_on_c, 4, 60, 95
4, 55226, Note_on_c, 4, 65, 95
4, 55233, Note_on_c, 4, 53, 95
4, 55440, Note_off_c, 4, 65, 80
4, 55440, Note_off_c, 4, 60, 80
4, 55440, Note_off_c, 4, 53, 80
4, 55440, Note_on_c, 4, 65, 95
4, 55440, Note_on_c, 4, 60, 95
4, 55440, Note_on_c, 4, 53, 95
4, 55460, Note_off_c, 4, 65, 80
4, 55460, Note_off_c, 4, 60, 80
4, 55460, Note_off_c, 4, 53, 80
4, 55560, Note_on_c, 4, 60, 95
4, 55560, Note_on_c, 4, 53, 95
4, 55679, Note_off_c, 4, 60, 80
4, 55679, Note_off_c, 4, 53, 80
4, 55684, Note_on_c, 4, 52, 95
4, 55703, Note_on_c, 4, 45, 95
4, 55709, Note_on_c, 4, 57, 95
4, 55920, Note_off_c, 4, 57, 80
4, 55920, Note_off_c, 4, 52, 80
4, 55920, Note_off_c, 4, 45, 80
4, 55920, Note_on_c, 4, 57, 95
4, 55920, Note_on_c, 4, 52, 95
4, 55920, Note_on_c, 4, 45, 95
4, 55940, Note_off_c, 4, 57, 80
4, 55940, Note_off_c, 4, 52, 80
4, 55940, Note_off_c, 4, 45, 80
4, 56040, Note_on_c, 4, 57, 95
4, 56040, Note_on_c, 4, 52, 95
4, 56159, Note_off_c, 4, 57, 80
4, 56159, Note_off_c, 4, 52, 80
4, 56180, Note_on_c, 4, 52, 95
4, 56182, Note_on_c, 4, 59, 95
4, 56192, Note_on_c, 4, 64, 95
4, 56400, Note_off_c, 4, 64, 80
4, 56400, Note_off_c, 4, 59, 80
4, 56400, Note_off_c, 4, 52, 80
4, 56400, Note_on_c, 4, 64, 95
4, 56400, Note_on_c, 4, 59, 95
4, 56400, Note_on_c, 4, 52, 95
4, 56420, Note_off_c, 4, 64, 80
4, 56420, Note_off_c, 4, 59, 80
4, 56420, Note_off_c, 4, 52, 80
4, 56520, Note_on_c, 4, 59, 95
4, 56520, Note_on_c, 4, 52, 95
4, 56639, Note_off_c, 4, 59, 80
4, 56639, Note_off_c, 4, 52, 80
4, 56644, Note_on_c, 4, 57, 95
4, 56670, Note_on_c, 4, 50, 95
4, 56672, Note_on_c, 4, 62, 95
4, 56880, Note_off_c, 4, 62, 80
4, 56880, Note_off_c, 4, 57, 80
4, 56880, Note_off_c, 4, 50, 80
4, 56880, Note_on_c, 4, 62, 95
4, 56880, Note_on_c, 4, 57, 95
4, 56880, Note_on_c, 4, 50, 95
4, 56900, Note_off_c, 4, 62, 80
4, 56900, Note_off_c, 4, 57, 80
4, 56900, Note_off_c, 4, 50, 80
4, 57000, Note_on_c, 4, 57, 95
4, 57000, Note_on_c, 4, 50, 95
4, 57119, Note_off_c, 4, 57, 80
4, 57119, Note_off_c, 4, 50, 80
4, 57126, Note_on_c, 4, 60, 95
4, 57146, Note_on_c, 4, 48, 95
4, 57158, Note_on_c, 4, 55, 95
4, 57360, Note_off_c, 4, 60, 80
4, 57360, Note_off_c, 4, 55, 80
4, 57360, Note_off_c, 4, 48, 80
4, 57360, Note_on_c, 4, 60, 95
4, 57360, Note_on_c, 4, 55, 95
4, 57360, Note_on_c, 4, 48, 95
4, 57380, Note_off_c, 4, 60, 80
4, 57380, Note_off_c, 4, 55, 80
4, 57380, Note_off_c, 4, 48, 80
4, 72964, Note_on_c, 4, 52, 95
4, 72978, Note_on_c, 4, 57, 95
4, 72999, Note_on_c, 4, 45, 95
4, 73440, Note_off_c, 4, 57, 80
4, 73440, Note_off_c, 4, 52, 80
4, 73440, Note_off_c, 4, 45, 80
4, 73928, Note_on_c, 4, 55, 95
4, 73929, Note_on_c, 4, 48, 95
4, 73941, Note_on_c, 4, 60, 95
4, 74400, Note_off_c, 4, 60, 80
4, 74400, Note_off_c, 4, 55, 80
4, 74400, Note_off_c, 4, 48, 80
4, 74886, Note_on_c, 4, 52, 95
4, 74894, Note_on_c, 4, 45, 95
4, 74923, Note_on_c, 4, 57, 95
4, 75360, Note_off_c, 4, 57, 80
4, 75360, Note_off_c, 4, 52, 80
4, 75360, Note_off_c, 4, 45, 80
4, 75861, Note_on_c, 4, 59, 95
4, 75867, Note_on_c, 4, 47, 95
4, 75873, Note_on_c, 4, 54, 95
4, 76320, Note_off_c, 4, 59, 80
4, 76320, Note_off_c, 4, 54, 80
4, 76320, Note_off_c, 4, 47, 80
4, 76800, Note_on_c, 4, 52, 95
4, 76823, Note_on_c, 4, 57, 95
4, 76823, Note_on_c, 4, 45, 95
4, 77280, Note_off_c, 4, 57, 80
4, 77280, Note_off_c, 4, 52, 80
4, 77280, Note_off_c, 4, 45, 80
4, 77765, Note_on_c, 4, 55, 95
4, 77774, Note_on_c, 4, 60, 95
4, 77802, Note_on_c, 4, 48, 95
4, 78240, Note_off_c, 4, 60, 80
4, 78240, Note_off_c, 4, 55, 80
4, 78240, Note_off_c, 4, 48, 80
4, 78730, Note_on_c, 4, 57, 95
4, 78738, Note_on_c, 4, 52, 95
4, 78763, Note_on_c, 4, 45, 95
4, 79200, Note_off_c, 4, 57, 80
4, 79200, Note_off_c, 4, 52, 80
4, 79200, Note_off_c, 4, 45, 80
4, 79681, Note_on_c, 4, 47, 95
4, 79687, Note_on_c, 4, 59, 95
4, 79715, Note_on_c, 4, 54, 95
4, 80160, Note_off_c, 4, 59, 80
4, 80160, Note_off_c, 4, 54, 80
4, 80160, Note_off_c, 4, 47, 80
4, 80643, Note_on_c, 4, 45, 95
4, 80665, Note_on_c, 4, 52, 95
4, 80666, Note_on_c, 4, 57, 95
4, 81120, Note_off_c, 4, 57, 80
4, 81120, Note_off_c, 4, 52, 80
4, 81120, Note_off_c, 4, 45, 80
4, 81622, Note_on_c, 4, 55, 95
4, 81624, Note_on_c, 4, 60, 95
4, 81628, Note_on_c, 4, 48, 95
4, 82080, Note_off_c, 4, 60, 80
4, 82080, Note_off_c, 4, 55, 80
4, 82080, Note_off_c, 4, 48, 80
4, 82577, Note_on_c, 4, 57, 95
4, 82588, Note_on_c, 4, 52, 95
4, 82594, Note_on_c, 4, 45, 95
4, 83040, Note_off_c, 4, 57, 80
4, 83040, Note_off_c, 4, 52, 80
4, 83040, Note_off_c, 4, 45, 80
4, 83522, Note_on_c, 4, 48, 95
4, 83534, Note_on_c, 4, 60, 95
4, 83536, Note_on_c, 4, 55, 95
4, 83760, Note_off_c, 4, 60, 80
4, 83760, Note_off_c, 4, 55, 80
4, 83760, Note_off_c, 4, 48, 80
4, 83881, Note_on_c, 4, 50, 95
4, 83882, Note_on_c, 4, 57, 95
4, 83918, Note_on_c, 4, 62, 95
4, 84120, Note_off_c, 4, 62, 80
4, 84120, Note_off_c, 4, 57, 80
4, 84120, Note_off_c, 4, 50, 80
4, 84243, Note_on_c, 4, 64, 95
4, 84269, Note_on_c, 4, 59, 95
4, 84269, Note_on_c, 4, 52, 95
4, 84480, Note_off_c, 4, 64, 80
4, 84480, Note_off_c, 4, 59, 80
4, 84480, Note_off_c, 4, 52, 80
4, 84494, Note_on_c, 4, 52, 95
4, 84498, Note_on_c, 4, 57, 95
4, 84506, Note_on_c, 4, 45, 95
4, 84960, Note_off_c, 4, 57, 80
4, 84960, Note_off_c, 4, 52, 80
4, 84960, Note_off_c, 4, 45, 80
4, 85451, Note_on_c, 4, 60, 95
4, 85460, Note_on_c, 4, 55, 95
4, 85461, Note_on_c, 4, 48, 95
4, 85920, Note_off_c, 4, 60, 80
4, 85920, Note_off_c, 4, 55, 80
4, 85920, Note_off_c, 4, 48, 80
4, 86409, Note_on_c, 4, 57, 95
4, 86418, Note_on_c, 4, 52, 95
4, 86443, Note_on_c, 4, 45, 95
4, 86880, Note_off_c, 4, 57, 80
4, 86880, Note_off_c, 4, 52, 80
4, 86880, Note_off_c, 4, 45, 80
4, 87376, Note_on_c, 4, 50, 95
4, 87391, Note_on_c, 4, 57, 95
4, 87402, Note_on_c, 4, 62, 95
4, 87720, Note_off_c, 4, 62, 80
4, 87840, Note_off_c, 4, 57, 80
4, 87840, Note_off_c, 4, 50, 80
4, 88325, Note_on_c, 4, 45, 95
4, 88327, Note_on_c, 4, 57, 95
4, 88337, Note_on_c, 4, 52, 95
4, 88560, Note_off_c, 4, 57, 80
4, 88560, Note_off_c, 4, 52, 80
4, 88560, Note_off_c, 4, 45, 80
4, 88560, Note_on_c, 4, 57, 95
4, 88560, Note_on_c, 4, 52, 95
4, 88560, Note_on_c, 4, 45, 95
4, 88580, Note_off_c, 4, 57, 80
4, 88580, Note_off_c, 4, 52, 80
4, 88580, Note_off_c, 4, 45, 80
4, 88680, Note_on_c, 4, 57, 95
4, 88680, Note_on_c, 4, 52, 95
4, 88680, Note_on_c, 4, 45, 95
4, 88799, Note_off_c, 4, 57, 80
4, 88799, Note_off_c, 4, 52, 80
4, 88799, Note_off_c, 4, 45, 80
4, 88829, Note_on_c, 4, 50, 95
4, 88832, Note_on_c, 4, 43, 95
4, 88840, Note_on_c, 4, 55, 95
4, 89040, Note_off_c, 4, 55, 80
4, 89040, Note_off_c, 4, 50, 80
4, 89040, Note_off_c, 4, 43, 80
4, 89040, Note_on_c, 4, 55, 95
4, 89040, Note_on_c, 4, 50, 95
4, 89040, Note_on_c, 4, 43, 95
4, 89060, Note_off_c, 4, 55, 80
4, 89060, Note_off_c, 4, 50, 80
4, 89060, Note_off_c, 4, 43, 80
4, 89160, Note_on_c, 4, 55, 95
4, 89160, Note_on_c, 4, 50, 95
4, 89160, Note_on_c, 4, 43, 95
4, 89279, Note_off_c, 4, 55, 80
4, 89279, Note_off_c, 4, 50, 80
4, 89279, Note_off_c, 4, 43, 80
4, 89283, Note_on_c, 4, 48, 95
4, 89290, Note_on_c, 4, 55, 95
4, 89321, Note_on_c, 4, 60, 95
4, 89520, Note_off_c, 4, 60, 80
4, 89520, Note_off_c, 4, 55, 80
4, 89520, Note_off_c, 4, 48, 80
4, 89520, Note_on_c, 4, 60, 95
4, 89520, Note_on_c, 4, 55, 95
4, 89520, Note_on_c, 4, 48, 95
4, 89540, Note_off_c, 4, 60, 80
4, 89540, Note_off_c, 4, 55, 80
4, 89540, Note_off_c, 4, 48, 80
4, 89640, Note_on_c, 4, 65, 95
4, 89640, Note_on_c, 4, 60, 95
4, 89640, Note_on_c, 4, 53, 95
4, 89759, Note_off_c, 4, 65, 80
4, 89759, Note_off_c, 4, 60, 80
4, 89759, Note_off_c, 4, 53, 80
4, 89771, Note_on_c, 4, 65, 95
4, 89772, Note_on_c, 4, 60, 95
4, 89800, Note_on_c, 4, 53, 95
4, 90000, Note_off_c, 4, 65, 80
4, 90000, Note_off_c, 4, 60, 80
4, 90000, Note_off_c, 4, 53, 80
4, 90000, Note_on_c, 4, 65, 95
4, 90000, Note_on_c, 4, 60, 95
4, 90000, Note_on_c, 4, 53, 95
4, 90020, Note_off_c, 4, 65, 80
4, 90020, Note_off_c, 4, 60, 80
4, 90020, Note_off_c, 4, 53, 80
4, 90120, Note_on_c, 4, 60, 95
4, 90120, Note_on_c, 4, 53, 95
4, 90239, Note_off_c, 4, 60, 80
4, 90239, Note_off_c, 4, 53, 80
4, 90251, Note_on_c, 4, 57, 95
4, 90261, Note_on_c, 4, 52, 95
4, 90277, Note_on_c, 4, 45, 95
4, 90480, Note_off_c, 4, 57, 80
4, 90480, Note_off_c, 4, 52, 80
4, 90480, Note_off_c, 4, 45, 80
4, 90480, Note_on_c, 4, 57, 95
4, 90480, Note_on_c, 4, 52, 95
4, 90480, Note_on_c, 4, 45, 95
4, 90500, Note_off_c, 4, 57, 80
4, 90500, Note_off_c, 4, 52, 80
4, 90500, Note_off_c, 4, 45, 80
4, 90600, Note_on_c, 4, 57, 95
4, 90600, Note_on_c, 4, 52, 95
4, 90719, Note_off_c, 4, 57, 80
4, 90719, Note_off_c, 4, 52, 80
4, 90721, Note_on_c, 4, 59, 95
4, 90730, Note_on_c, 4, 52, 95
4, 90742, Note_on_c, 4, 64, 95
4, 90960, Note_off_c, 4, 64, 80
4, 90960, Note_off_c, 4, 59, 80
4, 90960, Note_off_c, 4, 52, 80
4, 90960, Note_on_c, 4, 64, 95
4, 90960, Note_on_c, 4, 59, 95
4, 90960, Note_on_c, 4, 52, 95
4, 90980, Note_off_c, 4, 64, 80
4, 90980, Note_off_c, 4, 59, 80
4, 90980, Note_off_c, 4, 52, 80
4, 91080, Note_on_c, 4, 59, 95
4, 91080, Note_on_c, 4, 52, 95
4, 91199, Note_off_c, 4, 59, 80
4, 91199, Note_off_c, 4, 52, 80
4, 91206, Note_on_c, 4, 47, 95
4, 91207, Note_on_c, 4, 54, 95
4, 91239, Note_on_c, 4, 59, 95
4, 91440, Note_off_c, 4, 59, 80
4, 91440, Note_off_c, 4, 54, 80
4, 91440, Note_off_c, 4, 47, 80
4, 91440, Note_on_c, 4, 59, 95
4, 91440, Note_on_c, 4, 54, 95
4, 91440, Note_on_c, 4, 47, 95
4, 91460, Note_off_c, 4, 59, 80
4, 91460, Note_off_c, 4, 54, 80
4, 91460, Note_off_c, 4, 47, 80
4, 91560, Note_on_c, 4, 59, 95
4, 91560, Note_on_c, 4, 54, 95
4, 91679, Note_off_c, 4, 59, 80
4, 91679, Note_off_c, 4, 54, 80
4, 91692, Note_on_c, 4, 59, 95
4, 91705, Note_on_c, 4, 52, 95
4, 91712, Note_on_c, 4, 64, 95
4, 91920, Note_off_c, 4, 64, 80
4, 91920, Note_off_c, 4, 59, 80
4, 91920, Note_off_c, 4, 52, 80
4, 91920, Note_on_c, 4, 64, 95
4, 91920, Note_on_c, 4, 59, 95
4, 91920, Note_on_c, 4, 52, 95
4, 91940, Note_off_c, 4, 64, 80
4, 91940, Note_off_c, 4, 59, 80
4, 91940, Note_off_c, 4, 52, 80
4, 92040, Note_on_c, 4, 59, 95
4, 92040, Note_on_c, 4, 52, 95
4, 92159, Note_off_c, 4, 59, 80
4, 92159, Note_off_c, 4, 52, 80
4, 92180, Note_on_c, 4, 57, 95
4, 92196, Note_on_c, 4, 52, 95
4, 92202, Note_on_c, 4, 45, 95
4, 92400, Note_off_c, 4, 57, 80
4, 92400, Note_off_c, 4, 52, 80
4, 92400, Note_off_c, 4, 45, 80
4, 92400, Note_on_c, 4, 57, 95
4, 92400, Note_on_c, 4, 52, 95
4, 92400, Note_on_c, 4, 45, 95
4, 92420, Note_off_c, 4, 57, 80
4, 92420, Note_off_c, 4, 52, 80
4, 92420, Note_off_c, 4, 45, 80
4, 92520, Note_on_c, 4, 57, 95
4, 92520, Note_on_c, 4, 52, 95
4, 92520, Note_on_c, 4, 45, 95
4, 92639, Note_off_c, 4, 57, 80
4, 92639, Note_off_c, 4, 52, 80
4, 92639, Note_off_c, 4, 45, 80
4, 92646, Note_on_c, 4, 43, 95
4, 92652, Note_on_c, 4, 50, 95
4, 92682, Note_on_c, 4, 55, 95
4, 92880, Note_off_c, 4, 55, 80
4, 92880, Note_off_c, 4, 50, 80
4, 92880, Note_off_c, 4, 43, 80
4, 92880, Note_on_c, 4, 55, 95
4, 92880, Note_on_c, 4, 50, 95
4, 92880, Note_on_c, 4, 43, 95
4, 92900, Note_off_c, 4, 55, 80
4, 92900, Note_off_c, 4, 50, 80
4, 92900, Note_off_c, 4, 43, 80
4, 93000, Note_on_c, 4, 55, 95
4, 93000, Note_on_c, 4, 50, 95
4, 93000, Note_on_c, 4, 43, 95
4, 93119, Note_off_c, 4, 55, 80
4, 93119, Note_off_c, 4, 50, 80
4, 93119, Note_off_c, 4, 43, 80
4, 93121, Note_on_c, 4, 60, 95
4, 93142, Note_on_c, 4, 48, 95
4, 93153, Note_on_c, 4, 55, 95
4, 93360, Note_off_c, 4, 60, 80
4, 93360, Note_off_c, 4, 55, 80
4, 93360, Note_off_c, 4, 48, 80
4, 93360, Note_on_c, 4, 60, 95
4, 93360, Note_on_c, 4, 55, 95
4, 93360, Note_on_c, 4, 48, 95
4, 93380, Note_off_c, 4, 60, 80
4, 93380, Note_off_c, 4, 55, 80
4, 93380, Note_off_c, 4, 48, 80
4, 93480, Note_on_c, 4, 65, 95
4, 93480, Note_on_c, 4, 60, 95
4, 93480, Note_on_c, 4, 53, 95
4, 93599, Note_off_c, 4, 65, 80
4, 93599, Note_off_c, 4, 60, 80
4, 93599, Note_off_c, 4, 53, 80
4, 93609, Note_on_c, 4, 65, 95
4, 93613, Note_on_c, 4, 53, 95
4, 93639, Note_on_c, 4, 60, 95
4, 93840, Note_off_c, 4, 65, 80
4, 93840, Note_off_c, 4, 60, 80
4, 93840, Note_off_c, 4, 53, 80
4, 93840, Note_on_c, 4, 65, 95
4, 93840, Note_on_c, 4, 60, 95
4, 93840, Note_on_c, 4, 53, 95
4, 93860, Note_off_c, 4, 65, 80
4, 93860, Note_off_c, 4, 60, 80
4, 93860, Note_off_c, 4, 53, 80
4, 93960, Note_on_c, 4, 60, 95
4, 93960, Note_on_c, 4, 53, 95
4, 94079, Note_off_c, 4, 60, 80
4, 94079, Note_off_c, 4, 53, 80
4, 94111, Note_on_c, 4, 45, 95
4, 94114, Note_on_c, 4, 57, 95
4, 94123, Note_on_c, 4, 52, 95
4, 94320, Note_off_c, 4, 57, 80
4, 94320, Note_off_c, 4, 52, 80
4, 94320, Note_off_c, 4, 45, 80
4, 94320, Note_on_c, 4, 57, 95
4, 94320, Note_on_c, 4, 52, 95
4, 94320, Note_on_c, 4, 45, 95
4, 94340, Note_off_c, 4, 57, 80
4, 94340, Note_off_c, 4, 52, 80
4, 94340, Note_off_c, 4, 45, 80
4, 94440, Note_on_c, 4, 57, 95
4, 94440, Note_on_c, 4, 52, 95
4, 94559, Note_off_c, 4, 57, 80
4, 94559, Note_off_c, 4, 52, 80
4, 94587, Note_on_c, 4, 59, 95
4, 94588, Note_on_c, 4, 64, 95
4, 94602, Note_on_c, 4, 52, 95
4, 94800, Note_off_c, 4, 64, 80
4, 94800, Note_off_c, 4, 59, 80
4, 94800, Note_off_c, 4, 52, 80
4, 94800, Note_on_c, 4, 64, 95
4, 94800, Note_on_c, 4, 59, 95
4, 94800, Note_on_c, 4, 52, 95
4, 94820, Note_off_c, 4, 64, 80
4, 94820, Note_off_c, 4, 59, 80
4, 94820, Note_off_c, 4, 52, 80
4, 94920, Note_on_c, 4, 59, 95
4, 94920, Note_on_c, 4, 52, 95
4, 95039, Note_off_c, 4, 59, 80
4, 95039, Note_off_c, 4, 52, 80
4, 95041, Note_on_c, 4, 47, 95
4, 95056, Note_on_c, 4, 54, 95
4, 95059, Note_on_c, 4, 59, 95
4, 95280, Note_off_c, 4, 59, 80
4, 95280, Note_off_c, 4, 54, 80
4, 95280, Note_off_c, 4, 47, 80
4, 95280, Note_on_c, 4, 59, 95
4, 95280, Note_on_c, 4, 54, 95
4, 95280, Note_on_c, 4, 47, 95
4, 95300, Note_off_c, 4, 59, 80
4, 95300, Note_off_c, 4, 54, 80
4, 95300, Note_off_c, 4, 47, 80
4, 95400, Note_on_c, 4, 59, 95
4, 95400, Note_on_c, 4, 54, 95
4, 95519, Note_off_c, 4, 59, 80
4, 95519, Note_off_c, 4, 54, 80
4, 95525, Note_on_c, 4, 59, 95
4, 95537, Note_on_c, 4, 52, 95
4, 95555, Note_on_c, 4, 64, 95
4, 95760, Note_off_c, 4, 64, 80
4, 95760, Note_off_c, 4, 59, 80
4, 95760, Note_off_c, 4, 52, 80
4, 95760, Note_on_c, 4, 64, 95
4, 95760, Note_on_c, 4, 59, 95
4, 95760, Note_on_c, 4, 52, 95
4, 95780, Note_off_c, 4, 64, 80
4, 95780, Note_off_c, 4, 59, 80
4, 95780, Note_off_c, 4, 52, 80
4, 95880, Note_on_c, 4, 59, 95
4, 95880, Note_on_c, 4, 54, 95
4, 95880, Note_on_c, 4, 47, 95
4, 95999, Note_off_c, 4, 59, 80
4, 95999, Note_off_c, 4, 54, 80
4, 95999, Note_off_c, 4, 47, 80
4, 96004, Note_on_c, 4, 57, 95
4, 96013, Note_on_c, 4, 45, 95
4, 96031, Note_on_c, 4, 52, 95
4, 96240, Note_off_c, 4, 57, 80
4, 96240, Note_off_c, 4, 52, 80
4, 96240, Note_off_c, 4, 45, 80
4, 96240, Note_on_c, 4, 57, 95
4, 96240, Note_on_c, 4, 52, 95
4, 96240, Note_on_c, 4, 45, 95
4, 96260, Note_off_c, 4, 57, 80
4, 96260, Note_off_c, 4, 52, 80
4, 96260, Note_off_c, 4, 45, 80
4, 96360, Note_on_c, 4, 57, 95
4, 96360, Note_on_c, 4, 52, 95
4, 96360, Note_on_c, 4, 45, 95
4, 96479, Note_off_c, 4, 57, 80
4, 96479, Note_off_c, 4, 52, 80
4, 96479, Note_off_c, 4, 45, 80
4, 96491, Note_on_c, 4, 50, 95
4, 96494, Note_on_c, 4, 43, 95
4, 96524, Note_on_c, 4, 55, 95
4, 96720, Note_off_c, 4, 55, 80
4, 96720, Note_off_c, 4, 50, 80
4, 96720, Note_off_c, 4, 43, 80
4, 96720, Note_on_c, 4, 55, 95
4, 96720, Note_on_c, 4, 50, 95
4, 96720, Note_on_c, 4, 43, 95
4, 96740, Note_off_c, 4, 55, 80
4, 96740, Note_off_c, 4, 50, 80
4, 96740, Note_off_c, 4, 43, 80
4, 96840, Note_on_c, 4, 55, 95
4, 96840, Note_on_c, 4, 50, 95
4, 96840, Note_on_c, 4, 43, 95
4, 96959, Note_off_c, 4, 55, 80
4, 96959, Note_off_c, 4, 50, 80
4, 96959, Note_off_c, 4, 43, 80
4, 96969, Note_on_c, 4, 48, 95
4, 96982, Note_on_c, 4, 60, 95
4, 96994, Note_on_c, 4, 55, 95
4, 97200, Note_off_c, 4, 60, 80
4, 97200, Note_off_c, 4, 55, 80
4, 97200, Note_off_c, 4, 48, 80
4, 97200, Note_on_c, 4, 60, 95
4, 97200, Note_on_c, 4, 55, 95
4, 97200, Note_on_c, 4, 48, 95
4, 97220, Note_off_c, 4, 60, 80
4, 97220, Note_off_c, 4, 55, 80
4, 97220, Note_off_c, 4, 48, 80
4, 97320, Note_on_c, 4, 65, 95
4, 97320, Note_on_c, 4, 60, 95
4, 97320, Note_on_c, 4, 53, 95
4, 97439, Note_off_c, 4, 65, 80
4, 97439, Note_off_c, 4, 60, 80
4, 97439, Note_off_c, 4, 53, 80
4, 97440, Note_on_c, 4, 65, 95
4, 97455, Note_on_c, 4, 60, 95
4, 97474, Note_on_c, 4, 53, 95
4, 97680, Note_off_c, 4, 65, 80
4, 97680, Note_off_c, 4, 60, 80
4, 97680, Note_off_c, 4, 53, 80
4, 97680, Note_on_c, 4, 65, 95
4, 97680, Note_on_c, 4, 60, 95
4, 97680, Note_on_c, 4, 53, 95
4, 97700, Note_off_c, 4, 65, 80
4, 97700, Note_off_c, 4, 60, 80
4, 97700, Note_off_c, 4, 53, 80
4, 97800, Note_on_c, 4, 60, 95
4, 97800, Note_on_c, 4, 53, 95
4, 97919, Note_off_c, 4, 60, 80
4, 97919, Note_off_c, 4, 53, 80
4, 97931, Note_on_c, 4, 57, 95
4, 97937, Note_on_c, 4, 52, 95
4, 97939, Note_on_c, 4, 45, 95
4, 98160, Note_off_c, 4, 57, 80
4, 98160, Note_off_c, 4, 52, 80
4, 98160, Note_off_c, 4, 45, 80
4, 98160, Note_on_c, 4, 57, 95
4, 98160, Note_on_c, 4, 52, 95
4, 98160, Note_on_c, 4, 45, 95
4, 98180, Note_off_c, 4, 57, 80
4, 98180, Note_off_c, 4, 52, 80
4, 98180, Note_off_c, 4, 45, 80
4, 98280, Note_on_c, 4, 57, 95
4, 98280, Note_on_c, 4, 52, 95
4, 98399, Note_off_c, 4, 57, 80
4, 98399, Note_off_c, 4, 52, 80
4, 98412, Note_on_c, 4, 64, 95
4, 98418, Note_on_c, 4, 59, 95
4, 98443, Note_on_c, 4, 52, 95
4, 98640, Note_off_c, 4, 64, 80
4, 98640, Note_off_c, 4, 59, 80
4, 98640, Note_off_c, 4, 52, 80
4, 98640, Note_on_c, 4, 64, 95
4, 98640, Note_on_c, 4, 59, 95
4, 98640, Note_on_c, 4, 52, 95
4, 98660, Note_off_c, 4, 64, 80
4, 98660, Note_off_c, 4, 59, 80
4, 98660, Note_off_c, 4, 52, 80
4, 98760, Note_on_c, 4, 59, 95
4, 98760, Note_on_c, 4, 52, 95
4, 98879, Note_off_c, 4, 59, 80
4, 98879, Note_off_c, 4, 52, 80
4, 98892, Note_on_c, 4, 48, 95
4, 98914, Note_on_c, 4, 60, 95
4, 98915, Note_on_c, 4, 55, 95
4, 99120, Note_off_c, 4, 60, 80
4, 99120, Note_off_c, 4, 55, 80
4, 99120, Note_off_c, 4, 48, 80
4, 99248, Note_on_c, 4, 50, 95
4, 99249, Note_on_c, 4, 62, 95
4, 99267, Note_on_c, 4, 57, 95
4, 99480, Note_off_c, 4, 62, 80
4, 99480, Note_off_c, 4, 57, 80
4, 99480, Note_off_c, 4, 50, 80
4, 99615, Note_on_c, 4, 52, 95
4, 99631, Note_on_c, 4, 59, 95
4, 99635, Note_on_c, 4, 64, 95
4, 99720, Note_off_c, 4, 64, 80
4, 99720, Note_off_c, 4, 59, 80
4, 99720, Note_off_c, 4, 52, 80
4, 99720, Note_on_c, 4, 59, 95
4, 99720, Note_on_c, 4, 52, 95
4, 99839, Note_off_c, 4, 59, 80
4, 99839, Note_off_c, 4, 52, 80
4, 99844, Note_on_c, 4, 52, 95
4, 99862, Note_on_c, 4, 45, 95
4, 99874, Note_on_c, 4, 57, 95
4, 100080, Note_off_c, 4, 57, 80
4, 100080, Note_off_c, 4, 52, 80
4, 100080, Note_off_c, 4, 45, 80
4, 100080, Note_on_c, 4, 57, 95
4, 100080, Note_on_c, 4, 52, 95
4, 100080, Note_on_c, 4, 45, 95
4, 100100, Note_off_c, 4, 57, 80
4, 100100, Note_off_c, 4, 52, 80
4, 100100, Note_off_c, 4, 45, 80
4, 100200, Note_on_c, 4, 57, 95
4, 100200, Note_on_c, 4, 52, 95
4, 100200, Note_on_c, 4, 45, 95
4, 100319, Note_off_c, 4, 57, 80
4, 100319, Note_off_c, 4, 52, 80
4, 100319, Note_off_c, 4, 45, 80
4, 100330, Note_on_c, 4, 50, 95
4, 100346, Note_on_c, 4, 55, 95
4, 100350, Note_on_c, 4, 43, 95
4, 100560, Note_off_c, 4, 55, 80
4, 100560, Note_off_c, 4, 50, 80
4, 100560, Note_off_c, 4, 43, 80
4, 100560, Note_on_c, 4, 55, 95
4, 100560, Note_on_c, 4, 50, 95
4, 100560, Note_on_c, 4, 43, 95
4, 100580, Note_off_c, 4, 55, 80
4, 100580, Note_off_c, 4, 50, 80
4, 100580, Note_off_c, 4, 43, 80
4, 100680, Note_on_c, 4, 55, 95
4, 100680, Note_on_c, 4, 50, 95
4, 100680, Note_on_c, 4, 43, 95
4, 100799, Note_off_c, 4, 55, 80
4, 100799, Note_off_c, 4, 50, 80
4, 100799, Note_off_c, 4, 43, 80
4, 100829, Note_on_c, 4, 55, 95
4, 100840, Note_on_c, 4, 60, 95
4, 100841, Note_on_c, 4, 48, 95
4, 101040, Note_off_c, 4, 60, 80
4, 101040, Note_off_c, 4, 55, 80
4, 101040, Note_off_c, 4, 48, 80
4, 101040, Note_on_c, 4, 60, 95
4, 101040, Note_on_c, 4, 55, 95
4, 101040, Note_on_c, 4, 48, 95
4, 101060, Note_off_c, 4, 60, 80
4, 101060, Note_off_c, 4, 55, 80
4, 101060, Note_off_c, 4, 48, 80
4, 101160, Note_on_c, 4, 65, 95
4, 101160, Note_on_c, 4, 60, 95
4, 101160, Note_on_c, 4, 53, 95
4, 101279, Note_off_c, 4, 65, 80
4, 101279, Note_off_c, 4, 60, 80
4, 101279, Note_off_c, 4, 53, 80
4, 101281, Note_on_c, 4, 53, 95
4, 101308, Note_on_c, 4, 60, 95
4, 101316, Note_on_c, 4, 65, 95
4, 101520, Note_off_c, 4, 65, 80
4, 101520, Note_off_c, 4, 60, 80
4, 101520, Note_off_c, 4, 53, 80
4, 101520, Note_on_c, 4, 65, 95
4, 101520, Note_on_c, 4, 60, 95
4, 101520, Note_on_c, 4, 53, 95
4, 101540, Note_off_c, 4, 65, 80
4, 101540, Note_off_c, 4, 60, 80
4, 101540, Note_off_c, 4, 53, 80
4, 101640, Note_on_c, 4, 60, 95
4, 101640, Note_on_c, 4, 53, 95
4, 101759, Note_off_c, 4, 60, 80
4, 101759, Note_off_c, 4, 53, 80
4, 101768, Note_on_c, 4, 57, 95
4, 101795, Note_on_c, 4, 45, 95
4, 101796, Note_on_c, 4, 52, 95
4, 102000, Note_off_c, 4, 57, 80
4, 102000, Note_off_c, 4, 52, 80
4, 102000, Note_off_c, 4, 45, 80
4, 102000, Note_on_c, 4, 57, 95
4, 102000, Note_on_c, 4, 52, 95
4, 102000, Note_on_c, 4, 45, 95
4, 102020, Note_off_c, 4, 57, 80
4, 102020, Note_off_c, 4, 52, 80
4, 102020, Note_off_c, 4, 45, 80
4, 102120, Note_on_c, 4, 57, 95
4, 102120, Note_on_c, 4, 52, 95
4, 102239, Note_off_c, 4, 57, 80
4, 102239, Note_off_c, 4, 52, 80
4, 102258, Note_on_c, 4, 64, 95
4, 102268, Note_on_c, 4, 52, 95
4, 102271, Note_on_c, 4, 59, 95
4, 102480, Note_off_c, 4, 64, 80
4, 102480, Note_off_c, 4, 59, 80
4, 102480, Note_off_c, 4, 52, 80
4, 102480, Note_on_c, 4, 64, 95
4, 102480, Note_on_c, 4, 59, 95
4, 102480, Note_on_c, 4, 52, 95
4, 102500, Note_off_c, 4, 64, 80
4, 102500, Note_off_c, 4, 59, 80
4, 102500, Note_off_c, 4, 52, 80
4, 102600, Note_on_c, 4, 59, 95
4, 102600, Note_on_c, 4, 52, 95
4, 102719, Note_off_c, 4, 59, 80
4, 102719, Note_off_c, 4, 52, 80
4, 102728, Note_on_c, 4, 50, 95
4, 102758, Note_on_c, 4, 57, 95
4, 102761, Note_on_c, 4, 62, 95
4, 102960, Note_off_c, 4, 62, 80
4, 102960, Note_off_c, 4, 57, 80
4, 102960, Note_off_c, 4, 50, 80
4, 102960, Note_on_c, 4, 62, 95
4, 102960, Note_on_c, 4, 57, 95
4, 102960, Note_on_c, 4, 50, 95
4, 102980, Note_off_c, 4, 62, 80
4, 102980, Note_off_c, 4, 57, 80
4, 102980, Note_off_c, 4, 50, 80
4, 103080, Note_on_c, 4, 57, 95
4, 103080, Note_on_c, 4, 50, 95
4, 103199, Note_off_c, 4, 57, 80
4, 103199, Note_off_c, 4, 50, 80
4, 103209, Note_on_c, 4, 48, 95
4, 103221, Note_on_c, 4, 60, 95
4, 103239, Note_on_c, 4, 55, 95
4, 103440, Note_off_c, 4, 60, 80
4, 103440, Note_off_c, 4, 55, 80
4, 103440, Note_off_c, 4, 48, 80
4, 103440, Note_on_c, 4, 60, 95
4, 103440, Note_on_c, 4, 55, 95
4, 103440, Note_on_c, 4, 48, 95
4, 103460, Note_off_c, 4, 60, 80
4, 103460, Note_off_c, 4, 55, 80
4, 103460, Note_off_c, 4, 48, 80
4, 159362, Note_on_c, 4, 57, 95
4, 159376, Note_on_c, 4, 45, 95
4, 159386, Note_on_c, 4, 52, 95
4, 159600, Note_off_c, 4, 57, 80
4, 159600, Note_off_c, 4, 52, 80
4, 159600, Note_off_c, 4, 45, 80
4, 160563, Note_on_c, 4, 55, 95
4, 160576, Note_on_c, 4, 48, 95
4, 160600, Note_on_c, 4, 60, 95
4, 160800, Note_off_c, 4, 60, 80
4, 160800, Note_off_c, 4, 55, 80
4, 160800, Note_off_c, 4, 48, 80
4, 161285, Note_on_c, 4, 52, 95
4, 161300, Note_on_c, 4, 57, 95
4, 161323, Note_on_c, 4, 45, 95
4, 161520, Note_off_c, 4, 57, 80
4, 161520, Note_off_c, 4, 52, 80
4, 161520, Note_off_c, 4, 45, 80
4, 162488, Note_on_c, 4, 47, 95
4, 162501, Note_on_c, 4, 59, 95
4, 162504, Note_on_c, 4, 54, 95
4, 162720, Note_off_c, 4, 59, 80
4, 162720, Note_off_c, 4, 54, 80
4, 162720, Note_off_c, 4, 47, 80
4, 163204, Note_on_c, 4, 57, 95
4, 163225, Note_on_c, 4, 52, 95
4, 163244, Note_on_c, 4, 45, 95
4, 163440, Note_off_c, 4, 57, 80
4, 163440, Note_off_c, 4, 52, 80
4, 163440, Note_off_c, 4, 45, 80
4, 164408, Note_on_c, 4, 55, 95
4, 164415, Note_on_c, 4, 60, 95
4, 164432, Note_on_c, 4, 48, 95
4, 164640, Note_off_c, 4, 60, 80
4, 164640, Note_off_c, 4, 55, 80
4, 164640, Note_off_c, 4, 48, 80
4, 165133, Note_on_c, 4, 57, 95
4, 165151, Note_on_c, 4, 52, 95
4, 165163, Note_on_c, 4, 45, 95
4, 165360, Note_off_c, 4, 57, 80
4, 165360, Note_off_c, 4, 52, 80
4, 165360, Note_off_c, 4, 45, 80
4, 166320, Note_on_c, 4, 54, 95
4, 166342, Note_on_c, 4, 59, 95
4, 166355, Note_on_c, 4, 47, 95
4, 166560, Note_off_c, 4, 59, 80
4, 166560, Note_off_c, 4, 54, 80
4, 166560, Note_off_c, 4, 47, 80
4, 167045, Note_on_c, 4, 57, 95
4, 167050, Note_on_c, 4, 45, 95
4, 167079, Note_on_c, 4, 52, 95
4, 167280, Note_off_c, 4, 57, 80
4, 167280, Note_off_c, 4, 52, 80
4, 167280, Note_off_c, 4, 45, 80
4, 168240, Note_on_c, 4, 48, 95
4, 168274, Note_on_c, 4, 60, 95
4, 168277, Note_on_c, 4, 55, 95
4, 168480, Note_off_c, 4, 60, 80
4, 168480, Note_off_c, 4, 55, 80
4, 168480, Note_off_c, 4, 48, 80
4, 168968, Note_on_c, 4, 45, 95
4, 168972, Note_on_c, 4, 52, 95
4, 168987, Note_on_c, 4, 57, 95
4, 169200, Note_off_c, 4, 57, 80
4, 169200, Note_off_c, 4, 52, 80
4, 169200, Note_off_c, 4, 45, 80
4, 170170, Note_on_c, 4, 59, 95
4, 170170, Note_on_c, 4, 54, 95
4, 170190, Note_on_c, 4, 47, 95
4, 170400, Note_off_c, 4, 59, 80
4, 170400, Note_off_c, 4, 54, 80
4, 170400, Note_off_c, 4, 47, 80
4, 170881, Note_on_c, 4, 45, 95
4, 170886, Note_on_c, 4, 52, 95
4, 170896, Note_on_c, 4, 57, 95
4, 171120, Note_off_c, 4, 57, 80
4, 171120, Note_off_c, 4, 52, 80
4, 171120, Note_off_c, 4, 45, 80
4, 172093, Note_on_c, 4, 48, 95
4, 172107, Note_on_c, 4, 55, 95
4, 172113, Note_on_c, 4, 60, 95
4, 172320, Note_off_c, 4, 60, 80
4, 172320, Note_off_c, 4, 55, 80
4, 172320, Note_off_c, 4, 48, 80
4, 172821, Note_on_c, 4, 45, 95
4, 172841, Note_on_c, 4, 57, 95
4, 172843, Note_on_c, 4, 52, 95
4, 173040, Note_off_c, 4, 57, 80
4, 173040, Note_off_c, 4, 52, 80
4, 173040, Note_off_c, 4, 45, 80
4, 174015, Note_on_c, 4, 50, 95
4, 174021, Note_on_c, 4, 57, 95
4, 174031, Note_on_c, 4, 62, 95
4, 174120, Note_off_c, 4, 62, 80
4, 174240, Note_off_c, 4, 57, 80
4, 174240, Note_off_c, 4, 50, 80
4, 174733, Note_on_c, 4, 52, 95
4, 174737, Note_on_c, 4, 45, 95
4, 174755, Note_on_c, 4, 57, 95
4, 174960, Note_off_c, 4, 57, 80
4, 174960, Note_off_c, 4, 52, 80
4, 174960, Note_off_c, 4, 45, 80
4, 174960, Note_on_c, 4, 57, 95
4, 174960, Note_on_c, 4, 52, 95
4, 174960, Note_on_c, 4, 45, 95
4, 174980, Note_off_c, 4, 57, 80
4, 174980, Note_off_c, 4, 52, 80
4, 174980, Note_off_c, 4, 45, 80
4, 175080, Note_on_c, 4, 57, 95
4, 175080, Note_on_c, 4, 52, 95
4, 175080, Note_on_c, 4, 45, 95
4, 175199, Note_off_c, 4, 57, 80
4, 175199, Note_off_c, 4, 52, 80
4, 175199, Note_off_c, 4, 45, 80
4, 175205, Note_on_c, 4, 50, 95
4, 175225, Note_on_c, 4, 55, 95
4, 175234, Note_on_c, 4, 43, 95
4, 175440, Note_off_c, 4, 55, 80
4, 175440, Note_off_c, 4, 50, 80
4, 175440, Note_off_c, 4, 43, 80
4, 175440, Note_on_c, 4, 55, 95
4, 175440, Note_on_c, 4, 50, 95
4, 175440, Note_on_c, 4, 43, 95
4, 175460, Note_off_c, 4, 55, 80
4, 175460, Note_off_c, 4, 50, 80
4, 175460, Note_off_c, 4, 43, 80
4, 175560, Note_on_c, 4, 55, 95
4, 175560, Note_on_c, 4, 50, 95
4, 175560, Note_on_c, 4, 43, 95
4, 175679, Note_off_c, 4, 55, 80
4, 175679, Note_off_c, 4, 50, 80
4, 175679, Note_off_c, 4, 43, 80
4, 175692, Note_on_c, 4, 55, 95
4, 175709, Note_on_c, 4, 60, 95
4, 175720, Note_on_c, 4, 48, 95
4, 175920, Note_off_c, 4, 60, 80
4, 175920, Note_off_c, 4, 55, 80
4, 175920, Note_off_c, 4, 48, 80
4, 175920, Note_on_c, 4, 60, 95
4, 175920, Note_on_c, 4, 55, 95
4, 175920, Note_on_c, 4, 48, 95
4, 175940, Note_off_c, 4, 60, 80
4, 175940, Note_off_c, 4, 55, 80
4, 175940, Note_off_c, 4, 48, 80
4, 176040, Note_on_c, 4, 65, 95
4, 176040, Note_on_c, 4, 60, 95
4, 176040, Note_on_c, 4, 53, 95
4, 176159, Note_off_c, 4, 65, 80
4, 176159, Note_off_c, 4, 60, 80
4, 176159, Note_off_c, 4, 53, 80
4, 176187, Note_on_c, 4, 53, 95
4, 176193, Note_on_c, 4, 65, 95
4, 176194, Note_on_c, 4, 60, 95
4, 176400, Note_off_c, 4, 65, 80
4, 176400, Note_off_c, 4, 60, 80
4, 176400, Note_off_c, 4, 53, 80
4, 176400, Note_on_c, 4, 65, 95
4, 176400, Note_on_c, 4, 60, 95
4, 176400, Note_on_c, 4, 53, 95
4, 176420, Note_off_c, 4, 65, 80
4, 176420, Note_off_c, 4, 60, 80
4, 176420, Note_off_c, 4, 53, 80
4, 176520, Note_on_c, 4, 60, 95
4, 176520, Note_on_c, 4, 53, 95
4, 176639, Note_off_c, 4, 60, 80
4, 176639, Note_off_c, 4, 53, 80
4, 176669, Note_on_c, 4, 45, 95
4, 176682, Note_on_c, 4, 57, 95
4, 176684, Note_on_c, 4, 52, 95
4, 176880, Note_off_c, 4, 57, 80
4, 176880, Note_off_c, 4, 52, 80
4, 176880, Note_off_c, 4, 45, 80
4, 176880, Note_on_c, 4, 57, 95
4, 176880, Note_on_c, 4, 52, 95
4, 176880, Note_on_c, 4, 45, 95
4, 176900, Note_off_c, 4, 57, 80
4, 176900, Note_off_c, 4, 52, 80
4, 176900, Note_off_c, 4, 45, 80
4, 177000, Note_on_c, 4, 57, 95
4, 177000, Note_on_c, 4, 52, 95
4, 177119, Note_off_c, 4, 57, 80
4, 177119, Note_off_c, 4, 52, 80
4, 177133, Note_on_c, 4, 64, 95
4, 177133, Note_on_c, 4, 59, 95
4, 177134, Note_on_c, 4, 52, 95
4, 177360, Note_off_c, 4, 64, 80
4, 177360, Note_off_c, 4, 59, 80
4, 177360, Note_off_c, 4, 52, 80
4, 177360, Note_on_c, 4, 64, 95
4, 177360, Note_on_c, 4, 59, 95
4, 177360, Note_on_c, 4, 52, 95
4, 177380, Note_off_c, 4, 64, 80
4, 177380, Note_off_c, 4, 59, 80
4, 177380, Note_off_c, 4, 52, 80
4, 177480, Note_on_c, 4, 59, 95
4, 177480, Note_on_c, 4, 52, 95
4, 177599, Note_off_c, 4, 59, 80
4, 177599, Note_off_c, 4, 52, 80
4, 177628, Note_on_c, 4, 59, 95
4, 177632, Note_on_c, 4, 54, 95
4, 177635, Note_on_c, 4, 47, 95
4, 177840, Note_off_c, 4, 59, 80
4, 177840, Note_off_c, 4, 54, 80
4, 177840, Note_off_c, 4, 47, 80
4, 177840, Note_on_c, 4, 59, 95
4, 177840, Note_on_c, 4, 54, 95
4, 177840, Note_on_c, 4, 47, 95
4, 177860, Note_off_c, 4, 59, 80
4, 177860, Note_off_c, 4, 54, 80
4, 177860, Note_off_c, 4, 47, 80
4, 177960, Note_on_c, 4, 59, 95
4, 177960, Note_on_c, 4, 54, 95
4, 178079, Note_off_c, 4, 59, 80
4, 178079, Note_off_c, 4, 54, 80
4, 178080, Note_on_c, 4, 52, 95
4, 178105, Note_on_c, 4, 59, 95
4, 178123, Note_on_c, 4, 64, 95
4, 178320, Note_off_c, 4, 64, 80
4, 178320, Note_off_c, 4, 59, 80
4, 178320, Note_off_c, 4, 52, 80
4, 178320, Note_on_c, 4, 64, 95
4, 178320, Note_on_c, 4, 59, 95
4, 178320, Note_on_c, 4, 52, 95
4, 178340, Note_off_c, 4, 64, 80
4, 178340, Note_off_c, 4, 59, 80
4, 178340, Note_off_c, 4, 52, 80
4, 178440, Note_on_c, 4, 59, 95
4, 178440, Note_on_c, 4, 52, 95
4, 178559, Note_off_c, 4, 59, 80
4, 178559, Note_off_c, 4, 52, 80
4, 178567, Note_on_c, 4, 57, 95
4, 178568, Note_on_c, 4, 45, 95
4, 178573, Note_on_c, 4, 52, 95
4, 178800, Note_off_c, 4, 57, 80
4, 178800, Note_off_c, 4, 52, 80
4, 178800, Note_off_c, 4, 45, 80
4, 178800, Note_on_c, 4, 57, 95
4, 178800, Note_on_c, 4, 52, 95
4, 178800, Note_on_c, 4, 45, 95
4, 178820, Note_off_c, 4, 57, 80
4, 178820, Note_off_c, 4, 52, 80
4, 178820, Note_off_c, 4, 45, 80
4, 178920, Note_on_c, 4, 57, 95
4, 178920, Note_on_c, 4, 52, 95
4, 178920, Note_on_c, 4, 45, 95
4, 179039, Note_off_c, 4, 57, 80
4, 179039, Note_off_c, 4, 52, 80
4, 179039, Note_off_c, 4, 45, 80
4, 179040, Note_on_c, 4, 55, 95
4, 179073, Note_on_c, 4, 43, 95
4, 179075, Note_on_c, 4, 50, 95
4, 179280, Note_off_c, 4, 55, 80
4, 179280, Note_off_c, 4, 50, 80
4, 179280, Note_off_c, 4, 43, 80
4, 179280, Note_on_c, 4, 55, 95
4, 179280, Note_on_c, 4, 50, 95
4, 179280, Note_on_c, 4, 43, 95
4, 179300, Note_off_c, 4, 55, 80
4, 179300, Note_off_c, 4, 50, 80
4, 179300, Note_off_c, 4, 43, 80
4, 179400, Note_on_c, 4, 55, 95
4, 179400, Note_on_c, 4, 50, 95
4, 179400, Note_on_c, 4, 43, 95
4, 179519, Note_off_c, 4, 55, 80
4, 179519, Note_off_c, 4, 50, 80
4, 179519, Note_off_c, 4, 43, 80
4, 179528, Note_on_c, 4, 55, 95
4, 179538, Note_on_c, 4, 60, 95
4, 179542, Note_on_c, 4, 48, 95
4, 179760, Note_off_c, 4, 60, 80
4, 179760, Note_off_c, 4, 55, 80
4, 179760, Note_off_c, 4, 48, 80
4, 179760, Note_on_c, 4, 60, 95
4, 179760, Note_on_c, 4, 55, 95
4, 179760, Note_on_c, 4, 48, 95
4, 179780, Note_off_c, 4, 60, 80
4, 179780, Note_off_c, 4, 55, 80
4, 179780, Note_off_c, 4, 48, 80
4, 179880, Note_on_c, 4, 65, 95
4, 179880, Note_on_c, 4, 60, 95
4, 179880, Note_on_c, 4, 53, 95
4, 179999, Note_off_c, 4, 65, 80
4, 179999, Note_off_c, 4, 60, 80
4, 179999, Note_off_c, 4, 53, 80
4, 180009, Note_on_c, 4, 53, 95
4, 180012, Note_on_c, 4, 65, 95
4, 180025, Note_on_c, 4, 60, 95
4, 180240, Note_off_c, 4, 65, 80
4, 180240, Note_off_c, 4, 60, 80
4, 180240, Note_off_c, 4, 53, 80
4, 180240, Note_on_c, 4, 65, 95
4, 180240, Note_on_c, 4, 60, 95
4, 180240, Note_on_c, 4, 53, 95
4, 180260, Note_off_c, 4, 65, 80
4, 180260, Note_off_c, 4, 60, 80
4, 180260, Note_off_c, 4, 53, 80
4, 180360, Note_on_c, 4, 60, 95
4, 180360, Note_on_c, 4, 53, 95
4, 180479, Note_off_c, 4, 60, 80
4, 180479, Note_off_c, 4, 53, 80
4, 180482, Note_on_c, 4, 57, 95
4, 180501, Note_on_c, 4, 52, 95
4, 180510, Note_on_c, 4, 45, 95
4, 180720, Note_off_c, 4, 57, 80
4, 180720, Note_off_c, 4, 52, 80
4, 180720, Note_off_c, 4, 45, 80
4, 180720, Note_on_c, 4, 57, 95
4, 180720, Note_on_c, 4, 52, 95
4, 180720, Note_on_c, 4, 45, 95
4, 180740, Note_off_c, 4, 57, 80
4, 180740, Note_off_c, 4, 52, 80
4, 180740, Note_off_c, 4, 45, 80
4, 180840, Note_on_c, 4, 57, 95
4, 180840, Note_on_c, 4, 52, 95
4, 180959, Note_off_c, 4, 57, 80
4, 180959, Note_off_c, 4, 52, 80
4, 180964, Note_on_c, 4, 52, 95
4, 180969, Note_on_c, 4, 64, 95
4, 181001, Note_on_c, 4, 59, 95
4, 181200, Note_off_c, 4, 64, 80
4, 181200, Note_off_c, 4, 59, 80
4, 181200, Note_off_c, 4, 52, 80
4, 181200, Note_on_c, 4, 64, 95
4, 181200, Note_on_c, 4, 59, 95
4, 181200, Note_on_c, 4, 52, 95
4, 181220, Note_off_c, 4, 64, 80
4, 181220, Note_off_c, 4, 59, 80
4, 181220, Note_off_c, 4, 52, 80
4, 181320, Note_on_c, 4, 59, 95
4, 181320, Note_on_c, 4, 52, 95
4, 181439, Note_off_c, 4, 59, 80
4, 181439, Note_off_c, 4, 52, 80
4, 181448, Note_on_c, 4, 54, 95
4, 181461, Note_on_c, 4, 47, 95
4, 181480, Note_on_c, 4, 59, 95
4, 181680, Note_off_c, 4, 59, 80
4, 181680, Note_off_c, 4, 54, 80
4, 181680, Note_off_c, 4, 47, 80
4, 181680, Note_on_c, 4, 59, 95
4, 181680, Note_on_c, 4, 54, 95
4, 181680, Note_on_c, 4, 47, 95
4, 181700, Note_off_c, 4, 59, 80
4, 181700, Note_off_c, 4, 54, 80
4, 181700, Note_off_c, 4, 47, 80
4, 181800, Note_on_c, 4, 59, 95
4, 181800, Note_on_c, 4, 54, 95
4, 181919, Note_off_c, 4, 59, 80
4, 181919, Note_off_c, 4, 54, 80
4, 181920, Note_on_c, 4, 59, 95
4, 181930, Note_on_c, 4, 52, 95
4, 181957, Note_on_c, 4, 64, 95
4, 182160, Note_off_c, 4, 64, 80
4, 182160, Note_off_c, 4, 59, 80
4, 182160, Note_off_c, 4, 52, 80
4, 182160, Note_on_c, 4, 64, 95
4, 182160, Note_on_c, 4, 59, 95
4, 182160, Note_on_c, 4, 52, 95
4, 182180, Note_off_c, 4, 64, 80
4, 182180, Note_off_c, 4, 59, 80
4, 182180, Note_off_c, 4, 52, 80
4, 182280, Note_on_c, 4, 59, 95
4, 182280, Note_on_c, 4, 54, 95
4, 182280, Note_on_c, 4, 47, 95
4, 182399, Note_off_c, 4, 59, 80
4, 182399, Note_off_c, 4, 54, 80
4, 182399, Note_off_c, 4, 47, 80
4, 182412, Note_on_c, 4, 45, 95
4, 182415, Note_on_c, 4, 52, 95
4, 182432, Note_on_c, 4, 57, 95
4, 182640, Note_off_c, 4, 57, 80
4, 182640, Note_off_c, 4, 52, 80
4, 182640, Note_off_c, 4, 45, 80
4, 182640, Note_on_c, 4, 57, 95
4, 182640, Note_on_c, 4, 52, 95
4, 182640, Note_on_c, 4, 45, 95
4, 182660, Note_off_c, 4, 57, 80
4, 182660, Note_off_c, 4, 52, 80
4, 182660, Note_off_c, 4, 45, 80
4, 182760, Note_on_c, 4, 57, 95
4, 182760, Note_on_c, 4, 52, 95
4, 182760, Note_on_c, 4, 45, 95
4, 182879, Note_off_c, 4, 57, 80
4, 182879, Note_off_c, 4, 52, 80
4, 182879, Note_off_c, 4, 45, 80
4, 182904, Note_on_c, 4, 43, 95
4, 182919, Note_on_c, 4, 55, 95
4, 182920, Note_on_c, 4, 50, 95
4, 183120, Note_off_c, 4, 55, 80
4, 183120, Note_off_c, 4, 50, 80
4, 183120, Note_off_c, 4, 43, 80
4, 183120, Note_on_c, 4, 55, 95
4, 183120, Note_on_c, 4, 50, 95
4, 183120, Note_on_c, 4, 43, 95
4, 183140, Note_off_c, 4, 55, 80
4, 183140, Note_off_c, 4, 50, 80
4, 183140, Note_off_c, 4, 43, 80
4, 183240, Note_on_c, 4, 55, 95
4, 183240, Note_on_c, 4, 50, 95
4, 183240, Note_on_c, 4, 43, 95
4, 183359, Note_off_c, 4, 55, 80
4, 183359, Note_off_c, 4, 50, 80
4, 183359, Note_off_c, 4, 43, 80
4, 183372, Note_on_c, 4, 48, 95
4, 183373, Note_on_c, 4, 55, 95
4, 183385, Note_on_c, 4, 60, 95
4, 183600, Note_off_c, 4, 60, 80
4, 183600, Note_off_c, 4, 55, 80
4, 183600, Note_off_c, 4, 48, 80
4, 183600, Note_on_c, 4, 60, 95
4, 183600, Note_on_c, 4, 55, 95
4, 183600, Note_on_c, 4, 48, 95
4, 183620, Note_off_c, 4, 60, 80
4, 183620, Note_off_c, 4, 55, 80
4, 183620, Note_off_c, 4, 48, 80
4, 183720, Note_on_c, 4, 65, 95
4, 183720, Note_on_c, 4, 60, 95
4, 183720, Note_on_c, 4, 53, 95
4, 183839, Note_off_c, 4, 65, 80
4, 183839, Note_off_c, 4, 60, 80
4, 183839, Note_off_c, 4, 53, 80
4, 183853, Note_on_c, 4, 60, 95
4, 183869, Note_on_c, 4, 65, 95
4, 183883, Note_on_c, 4, 53, 95
4, 184080, Note_off_c, 4, 65, 80
4, 184080, Note_off_c, 4, 60, 80
4, 184080, Note_off_c, 4, 53, 80
4, 184080, Note_on_c, 4, 65, 95
4, 184080, Note_on_c, 4, 60, 95
4, 184080, Note_on_c, 4, 53, 95
4, 184100, Note_off_c, 4, 65, 80
4, 184100, Note_off_c, 4, 60, 80
4, 184100, Note_off_c, 4, 53, 80
4, 184200, Note_on_c, 4, 60, 95
4, 184200, Note_on_c, 4, 53, 95
4, 184319, Note_off_c, 4, 60, 80
4, 184319, Note_off_c, 4, 53, 80
4, 184322, Note_on_c, 4, 45, 95
4, 184335, Note_on_c, 4, 52, 95
4, 184340, Note_on_c, 4, 57, 95
4, 184560, Note_off_c, 4, 57, 80
4, 184560, Note_off_c, 4, 52, 80
4, 184560, Note_off_c, 4, 45, 80
4, 184560, Note_on_c, 4, 57, 95
4, 184560, Note_on_c, 4, 52, 95
4, 184560, Note_on_c, 4, 45, 95
4, 184580, Note_off_c, 4, 57, 80
4, 184580, Note_off_c, 4, 52, 80
4, 184580, Note_off_c, 4, 45, 80
4, 184680, Note_on_c, 4, 57, 95
4, 184680, Note_on_c, 4, 52, 95
4, 184799, Note_off_c, 4, 57, 80
4, 184799, Note_off_c, 4, 52, 80
4, 184806, Note_on_c, 4, 59, 95
4, 184819, Note_on_c, 4, 52, 95
4, 184833, Note_on_c, 4, 64, 95
4, 185040, Note_off_c, 4, 64, 80
4, 185040, Note_off_c, 4, 59, 80
4, 185040, Note_off_c, 4, 52, 80
4, 185040, Note_on_c, 4, 64, 95
4, 185040, Note_on_c, 4, 59, 95
4, 185040, Note_on_c, 4, 52, 95
4, 185060, Note_off_c, 4, 64, 80
4, 185060, Note_off_c, 4, 59, 80
4, 185060, Note_off_c, 4, 52, 80
4, 185160, Note_on_c, 4, 59, 95
4, 185160, Note_on_c, 4, 52, 95
4, 185279, Note_off_c, 4, 59, 80
4, 185279, Note_off_c, 4, 52, 80
4, 185293, Note_on_c, 4, 48, 95
4, 185304, Note_on_c, 4, 55, 95
4, 185320, Note_on_c, 4, 60, 95
4, 185520, Note_off_c, 4, 60, 80
4, 185520, Note_off_c, 4, 55, 80
4, 185520, Note_off_c, 4, 48, 80
4, 185663, Note_on_c, 4, 50, 95
4, 185681, Note_on_c, 4, 57, 95
4, 185684, Note_on_c, 4, 62, 95
4, 185880, Note_off_c, 4, 62, 80
4, 185880, Note_off_c, 4, 57, 80
4, 185880, Note_off_c, 4, 50, 80
4, 186026, Note_on_c, 4, 52, 95
4, 186028, Note_on_c, 4, 59, 95
4, 186031, Note_on_c, 4, 64, 95
4, 186120, Note_off_c, 4, 64, 80
4, 186120, Note_off_c, 4, 59, 80
4, 186120, Note_off_c, 4, 52, 80
4, 186120, Note_on_c, 4, 59, 95
4, 186120, Note_on_c, 4, 52, 95
4, 186239, Note_off_c, 4, 59, 80
4, 186239, Note_off_c, 4, 52, 80
4, 186246, Note_on_c, 4, 57, 95
4, 186250, Note_on_c, 4, 45, 95
4, 186255, Note_on_c, 4, 52, 95
4, 186480, Note_off_c, 4, 57, 80
4, 186480, Note_off_c, 4, 52, 80
4, 186480, Note_off_c, 4, 45, 80
4, 186480, Note_on_c, 4, 57, 95
4, 186480, Note_on_c, 4, 52, 95
4, 186480, Note_on_c, 4, 45, 95
4, 186500, Note_off_c, 4, 57, 80
4, 186500, Note_off_c, 4, 52, 80
4, 186500, Note_off_c, 4, 45, 80
4, 186600, Note_on_c, 4, 57, 95
4, 186600, Note_on_c, 4, 52, 95
4, 186600, Note_on_c, 4, 45, 95
4, 186719, Note_off_c, 4, 57, 80
4, 186719, Note_off_c, 4, 52, 80
4, 186719, Note_off_c, 4, 45, 80
4, 186731, Note_on_c, 4, 50, 95
4, 186742, Note_on_c, 4, 55, 95
4, 186760, Note_on_c, 4, 43, 95
4, 186960, Note_off_c, 4, 55, 80
4, 186960, Note_off_c, 4, 50, 80
4, 186960, Note_off_c, 4, 43, 80
4, 186960, Note_on_c, 4, 55, 95
4, 186960, Note_on_c, 4, 50, 95
4, 186960, Note_on_c, 4, 43, 95
4, 186980, Note_off_c, 4, 55, 80
4, 186980, Note_off_c, 4, 50, 80
4, 186980, Note_off_c, 4, 43, 80
4, 187080, Note_on_c, 4, 55, 95
4, 187080, Note_on_c, 4, 50, 95
4, 187080, Note_on_c, 4, 43, 95
4, 187199, Note_off_c, 4, 55, 80
4, 187199, Note_off_c, 4, 50, 80
4, 187199, Note_off_c, 4, 43, 80
4, 187200, Note_on_c, 4, 60, 95
4, 187201, Note_on_c, 4, 55, 95
4, 187223, Note_on_c, 4, 48, 95
4, 187440, Note_off_c, 4, 60, 80
4, 187440, Note_off_c, 4, 55, 80
4, 187440, Note_off_c, 4, 48, 80
4, 187440, Note_on_c, 4, 60, 95
4, 187440, Note_on_c, 4, 55, 95
4, 187440, Note_on_c, 4, 48, 95
4, 187460, Note_off_c, 4, 60, 80
4, 187460, Note_off_c, 4, 55, 80
4, 187460, Note_off_c, 4, 48, 80
4, 187560, Note_on_c, 4, 65, 95
4, 187560, Note_on_c, 4, 60, 95
4, 187560, Note_on_c, 4, 53, 95
4, 187679, Note_off_c, 4, 65, 80
4, 187679, Note_off_c, 4, 60, 80
4, 187679, Note_off_c, 4, 53, 80
4, 187685, Note_on_c, 4, 65, 95
4, 187685, Note_on_c, 4, 53, 95
4, 187705, Note_on_c, 4, 60, 95
4, 187920, Note_off_c, 4, 65, 80
4, 187920, Note_off_c, 4, 60, 80
4, 187920, Note_off_c, 4, 53, 80
4, 187920, Note_on_c, 4, 65, 95
4, 187920, Note_on_c, 4, 60, 95
4, 187920, Note_on_c, 4, 53, 95
4, 187940, Note_off_c, 4, 65, 80
4, 187940, Note_off_c, 4, 60, 80
4, 187940, Note_off_c, 4, 53, 80
4, 188040, Note_on_c, 4, 60, 95
4, 188040, Note_on_c, 4, 53, 95
4, 188159, Note_off_c, 4, 60, 80
4, 188159, Note_off_c, 4, 53, 80
4, 188160, Note_on_c, 4, 45, 95
4, 188161, Note_on_c, 4, 57, 95
4, 188166, Note_on_c, 4, 52, 95
4, 188400, Note_off_c, 4, 57, 80
4, 188400, Note_off_c, 4, 52, 80
4, 188400, Note_off_c, 4, 45, 80
4, 188400, Note_on_c, 4, 57, 95
4, 188400, Note_on_c, 4, 52, 95
4, 188400, Note_on_c, 4, 45, 95
4, 188420, Note_off_c, 4, 57, 80
4, 188420, Note_off_c, 4, 52, 80
4, 188420, Note_off_c, 4, 45, 80
4, 188520, Note_on_c, 4, 57, 95
4, 188520, Note_on_c, 4, 52, 95
4, 188639, Note_off_c, 4, 57, 80
4, 188639, Note_off_c, 4, 52, 80
4, 188651, Note_on_c, 4, 59, 95
4, 188654, Note_on_c, 4, 52, 95
4, 188678, Note_on_c, 4, 64, 95
4, 188880, Note_off_c, 4, 64, 80
4, 188880, Note_off_c, 4, 59, 80
4, 188880, Note_off_c, 4, 52, 80
4, 188880, Note_on_c, 4, 64, 95
4, 188880, Note_on_c, 4, 59, 95
4, 188880, Note_on_c, 4, 52, 95
4, 188900, Note_off_c, 4, 64, 80
4, 188900, Note_off_c, 4, 59, 80
4, 188900, Note_off_c, 4, 52, 80
4, 189000, Note_on_c, 4, 59, 95
4, 189000, Note_on_c, 4, 52, 95
4, 189119, Note_off_c, 4, 59, 80
4, 189119, Note_off_c, 4, 52, 80
4, 189127, Note_on_c, 4, 57, 95
4, 189133, Note_on_c, 4, 62, 95
4, 189151, Note_on_c, 4, 50, 95
4, 189360, Note_off_c, 4, 62, 80
4, 189360, Note_off_c, 4, 57, 80
4, 189360, Note_off_c, 4, 50, 80
4, 189360, Note_on_c, 4, 62, 95
4, 189360, Note_on_c, 4, 57, 95
4, 189360, Note_on_c, 4, 50, 95
4, 189380, Note_off_c, 4, 62, 80
4, 189380, Note_off_c, 4, 57, 80
4, 189380, Note_off_c, 4, 50, 80
4, 189480, Note_on_c, 4, 57, 95
4, 189480, Note_on_c, 4, 50, 95
4, 189599, Note_off_c, 4, 57, 80
4, 189599, Note_off_c, 4, 50, 80
4, 189609, Note_on_c, 4, 60, 95
4, 189626, Note_on_c, 4, 55, 95
4, 189626, Note_on_c, 4, 48, 95
4, 189840, Note_off_c, 4, 60, 80
4, 189840, Note_off_c, 4, 55, 80
4, 189840, Note_off_c, 4, 48, 80
4, 189840, Note_on_c, 4, 60, 95
4, 189840, Note_on_c, 4, 55, 95
4, 189840, Note_on_c, 4, 48, 95
4, 189860, Note_off_c, 4, 60, 80
4, 189860, Note_off_c, 4, 55, 80
4, 189860, Note_off_c, 4, 48, 80
4, 243841, Note_on_c, 4, 45, 95
4, 243937, Note_on_c, 4, 52, 95
4, 244031, Note_on_c, 4, 57, 95
4, 244116, Note_on_c, 4, 61, 95
4, 244201, Note_on_c, 4, 64, 95
4, 245760, Note_off_c, 4, 45, 80
4, 245760, Note_off_c, 4, 52, 80
4, 245760, Note_off_c, 4, 57, 80
4, 245760, Note_off_c, 4, 61, 80
4, 245760, Note_off_c, 4, 64, 80
4, 245760, End_track
5, 0, Start_track
5, 0, Title_t, "guitar2"
5, 0, Control_c, 7, 100, 0
5, 0, Control_c, 7, 101, 0
5, 0, Control_c, 7, 6, 12
5, 0, Pitch_bend_c, 7, 8192
5, 0, Control_c, 7, 101, 0
5, 0, Control_c, 7, 100, 1
5, 0, Control_c, 7, 6, 64
5, 0, Control_c, 7, 38, 0
5, 0, Control_c, 7, 101, 127
5, 0, Control_c, 7, 100, 127
5, 0, Control_c, 6, 100, 0
5, 0, Control_c, 6, 101, 0
5, 0, Control_c, 6, 6, 12
5, 0, Pitch_bend_c, 6, 8192
5, 0, Control_c, 6, 101, 0
5, 0, Control_c, 6, 100, 1
5, 0, Control_c, 6, 6, 64
5, 0, Control_c, 6, 38, 0
5, 0, Control_c, 6, 101, 127
5, 0, Control_c, 6, 100, 127
5, 0, Control_c, 7, 101, 0
5, 0, Control_c, 7, 100, 2
5, 0, Control_c, 7, 6, 64
5, 0, Control_c, 7, 101, 127
5, 0, Control_c, 7, 100, 127
5, 0, Control_c, 6, 101, 0
5, 0, Control_c, 6, 100, 2
5, 0, Control_c, 6, 6, 64
5, 0, Control_c, 6, 101, 127
5, 0, Control_c, 6, 100, 127
5, 0, Program_c, 7, 27
5, 0, Program_c, 6, 27
5, 0, Control_c, 7, 0, 0
5, 0, Control_c, 6, 0, 0
5, 0, Control_c, 7, 7, 72
5, 0, Control_c, 6, 7, 72
5, 0, Control_c, 7, 10, 104
5, 0, Control_c, 6, 10, 104
5, 0, Control_c, 7, 93, 0
5, 0, Control_c, 6, 93, 0
5, 0, Control_c, 7, 91, 0
5, 0, Control_c, 6, 91, 0
5, 0, Control_c, 7, 92, 0
5, 0, Control_c, 6, 92, 0
5, 0, Control_c, 7, 95, 0
5, 0, Control_c, 6, 95, 0
5, 37320, Note_on_c, 6, 59, 95
5, 37320, Note_on_c, 6, 52, 95
5, 37439, Note_off_c, 6, 59, 80
5, 37439, Note_off_c, 6, 52, 80
5, 37456, Note_on_c, 6, 60, 95
5, 37459, Note_on_c, 6, 55, 95
5, 37461, Note_on_c, 6, 48, 95
5, 37680, Note_off_c, 6, 60, 80
5, 37680, Note_off_c, 6, 55, 80
5, 37680, Note_off_c, 6, 48, 80
5, 37807, Note_on_c, 6, 50, 95
5, 37811, Note_on_c, 6, 57, 95
5, 37844, Note_on_c, 6, 62, 95
5, 38040, Note_off_c, 6, 62, 80
5, 38040, Note_off_c, 6, 57, 80
5, 38040, Note_off_c, 6, 50, 80
5, 38174, Note_on_c, 6, 64, 95
5, 38177, Note_on_c, 6, 52, 95
5, 38192, Note_on_c, 6, 59, 95
5, 39240, Note_off_c, 6, 59, 80
5, 39240, Note_off_c, 6, 52, 80
5, 41280, Note_off_c, 6, 64, 80
5, 42120, Note_on_c, 6, 57, 95
5, 42120, Note_on_c, 6, 52, 95
5, 42120, Note_on_c, 6, 45, 95
5, 42239, Note_off_c, 6, 57, 80
5, 42239, Note_off_c, 6, 52, 80
5, 42239, Note_off_c, 6, 45, 80
5, 42251, Note_on_c, 6, 45, 95
5, 42257, Note_on_c, 6, 57, 95
5, 42259, Note_on_c, 6, 52, 95
5, 44040, Note_off_c, 6, 57, 80
5, 44040, Note_off_c, 6, 52, 80
5, 44040, Note_off_c, 6, 45, 80
5, 45960, Note_on_c, 6, 57, 95
5, 45960, Note_on_c, 6, 52, 95
5, 45960, Note_on_c, 6, 45, 95
5, 46079, Note_off_c, 6, 57, 80
5, 46079, Note_off_c, 6, 52, 80
5, 46079, Note_off_c, 6, 45, 80
5, 46081, Note_on_c, 6, 57, 95
5, 46087, Note_on_c, 6, 45, 95
5, 46115, Note_on_c, 6, 52, 95
5, 48000, Note_off_c, 6, 57, 80
5, 48000, Note_off_c, 6, 52, 80
5, 48000, Note_off_c, 6, 45, 80
5, 49925, Note_on_c, 6, 69, 95
5, 49955, Note_on_c, 6, 64, 95
5, 49960, Note_on_c, 6, 57, 95
5, 50160, Note_off_c, 6, 69, 80
5, 50160, Note_off_c, 6, 64, 80
5, 50160, Note_off_c, 6, 57, 80
5, 50160, Note_on_c, 6, 69, 95
5, 50160, Note_on_c, 6, 64, 95
5, 50160, Note_on_c, 6, 57, 95
5, 50180, Note_off_c, 6, 69, 80
5, 50180, Note_off_c, 6, 64, 80
5, 50180, Note_off_c, 6, 57, 80
5, 50280, Note_on_c, 6, 69, 95
5, 50280, Note_on_c, 6, 64, 95
5, 50280, Note_on_c, 6, 57, 95
5, 50399, Note_off_c, 6, 69, 80
5, 50399, Note_off_c, 6, 64, 80
5, 50399, Note_off_c, 6, 57, 80
5, 50403, Note_on_c, 6, 64, 95
5, 50442, Note_on_c, 6, 57, 95
5, 50443, Note_on_c, 6, 69, 95
5, 50640, Note_off_c, 6, 69, 80
5, 50640, Note_off_c, 6, 64, 80
5, 50640, Note_off_c, 6, 57, 80
5, 50640, Note_on_c, 6, 69, 95
5, 50640, Note_on_c, 6, 64, 95
5, 50640, Note_on_c, 6, 57, 95
5, 50660, Note_off_c, 6, 69, 80
5, 50660, Note_off_c, 6, 64, 80
5, 50660, Note_off_c, 6, 57, 80
5, 50760, Note_on_c, 6, 69, 95
5, 50760, Note_on_c, 6, 64, 95
5, 50760, Note_on_c, 6, 57, 95
5, 50879, Note_off_c, 6, 69, 80
5, 50879, Note_off_c, 6, 64, 80
5, 50879, Note_off_c, 6, 57, 80
5, 50895, Note_on_c, 6, 64, 95
5, 50900, Note_on_c, 6, 69, 95
5, 50909, Note_on_c, 6, 57, 95
5, 51120, Note_off_c, 6, 69, 80
5, 51120, Note_off_c, 6, 64, 80
5, 51120, Note_off_c, 6, 57, 80
5, 51120, Note_on_c, 6, 69, 95
5, 51120, Note_on_c, 6, 64, 95
5, 51120, Note_on_c, 6, 57, 95
5, 51140, Note_off_c, 6, 69, 80
5, 51140, Note_off_c, 6, 64, 80
5, 51140, Note_off_c, 6, 57, 80
5, 51240, Note_on_c, 6, 69, 95
5, 51240, Note_on_c, 6, 64, 95
5, 51240, Note_on_c, 6, 57, 95
5, 51359, Note_off_c, 6, 69, 80
5, 51359, Note_off_c, 6, 64, 80
5, 51359, Note_off_c, 6, 57, 80
5, 51363, Note_on_c, 6, 64, 95
5, 51391, Note_on_c, 6, 57, 95
5, 51403, Note_on_c, 6, 69, 95
5, 51600, Note_off_c, 6, 69, 80
5, 51600, Note_off_c, 6, 64, 80
5, 51600, Note_off_c, 6, 57, 80
5, 51600, Note_on_c, 6, 69, 95
5, 51600, Note_on_c, 6, 64, 95
5, 51600, Note_on_c, 6, 57, 95
5, 51620, Note_off_c, 6, 69, 80
5, 51620, Note_off_c, 6, 64, 80
5, 51620, Note_off_c, 6, 57, 80
5, 51720, Note_on_c, 6, 69, 95
5, 51720, Note_on_c, 6, 64, 95
5, 51720, Note_on_c, 6, 57, 95
5, 51839, Note_off_c, 6, 69, 80
5, 51839, Note_off_c, 6, 64, 80
5, 51839, Note_off_c, 6, 57, 80
5, 51845, Note_on_c, 6, 64, 95
5, 51846, Note_on_c, 6, 57, 95
5, 51868, Note_on_c, 6, 69, 95
5, 52080, Note_off_c, 6, 69, 80
5, 52080, Note_off_c, 6, 64, 80
5, 52080, Note_off_c, 6, 57, 80
5, 52080, Note_on_c, 6, 69, 95
5, 52080, Note_on_c, 6, 64, 95
5, 52080, Note_on_c, 6, 57, 95
5, 52100, Note_off_c, 6, 69, 80
5, 52100, Note_off_c, 6, 64, 80
5, 52100, Note_off_c, 6, 57, 80
5, 52200, Note_on_c, 6, 69, 95
5, 52200, Note_on_c, 6, 64, 95
5, 52200, Note_on_c, 6, 57, 95
5, 52319, Note_off_c, 6, 69, 80
5, 52319, Note_off_c, 6, 64, 80
5, 52319, Note_off_c, 6, 57, 80
5, 52330, Note_on_c, 6, 69, 95
5, 52351, Note_on_c, 6, 57, 95
5, 52352, Note_on_c, 6, 64, 95
5, 52560, Note_off_c, 6, 69, 80
5, 52560, Note_off_c, 6, 64, 80
5, 52560, Note_off_c, 6, 57, 80
5, 52562, Note_on_c, 6, 57, 95
5, 52563, Note_on_c, 6, 69, 95
5, 52592, Note_on_c, 6, 64, 95
5, 52680, Note_off_c, 6, 69, 80
5, 52800, Note_off_c, 6, 64, 80
5, 52800, Note_off_c, 6, 57, 80
5, 52807, Note_on_c, 6, 55, 95
5, 52816, Note_on_c, 6, 60, 95
5, 52830, Note_on_c, 6, 48, 95
5, 53040, Note_off_c, 6, 60, 80
5, 53040, Note_off_c, 6, 55, 80
5, 53040, Note_off_c, 6, 48, 80
5, 53165, Note_on_c, 6, 50, 95
5, 53169, Note_on_c, 6, 57, 95
5, 53179, Note_on_c, 6, 62, 95
5, 53400, Note_off_c, 6, 62, 80
5, 53400, Note_off_c, 6, 57, 80
5, 53400, Note_off_c, 6, 50, 80
5, 53549, Note_on_c, 6, 64, 95
5, 53553, Note_on_c, 6, 59, 95
5, 53559, Note_on_c, 6, 52, 95
5, 53640, Note_off_c, 6, 64, 80
5, 53640, Note_off_c, 6, 59, 80
5, 53640, Note_on_c, 6, 69, 95
5, 53640, Note_on_c, 6, 64, 95
5, 53640, Note_on_c, 6, 57, 95
5, 53759, Note_off_c, 6, 69, 80
5, 53759, Note_off_c, 6, 64, 80
5, 53759, Note_off_c, 6, 57, 80
5, 53760, Note_off_c, 6, 52, 80
5, 53775, Note_on_c, 6, 69, 95
5, 53781, Note_on_c, 6, 64, 95
5, 53782, Note_on_c, 6, 57, 95
5, 54000, Note_off_c, 6, 69, 80
5, 54000, Note_off_c, 6, 64, 80
5, 54000, Note_off_c, 6, 57, 80
5, 54000, Note_on_c, 6, 69, 95
5, 54000, Note_on_c, 6, 64, 95
5, 54000, Note_on_c, 6, 57, 95
5, 54020, Note_off_c, 6, 69, 80
5, 54020, Note_off_c, 6, 64, 80
5, 54020, Note_off_c, 6, 57, 80
5, 54120, Note_on_c, 6, 69, 95
5, 54120, Note_on_c, 6, 64, 95
5, 54120, Note_on_c, 6, 57, 95
5, 54239, Note_off_c, 6, 69, 80
5, 54239, Note_off_c, 6, 64, 80
5, 54239, Note_off_c, 6, 57, 80
5, 54249, Note_on_c, 6, 69, 95
5, 54252, Note_on_c, 6, 57, 95
5, 54266, Note_on_c, 6, 64, 95
5, 54480, Note_off_c, 6, 69, 80
5, 54480, Note_off_c, 6, 64, 80
5, 54480, Note_off_c, 6, 57, 80
5, 54480, Note_on_c, 6, 69, 95
5, 54480, Note_on_c, 6, 64, 95
5, 54480, Note_on_c, 6, 57, 95
5, 54500, Note_off_c, 6, 69, 80
5, 54500, Note_off_c, 6, 64, 80
5, 54500, Note_off_c, 6, 57, 80
5, 54600, Note_on_c, 6, 69, 95
5, 54600, Note_on_c, 6, 64, 95
5, 54600, Note_on_c, 6, 57, 95
5, 54719, Note_off_c, 6, 69, 80
5, 54719, Note_off_c, 6, 64, 80
5, 54719, Note_off_c, 6, 57, 80
5, 54720, Note_on_c, 6, 57, 95
5, 54735, Note_on_c, 6, 64, 95
5, 54759, Note_on_c, 6, 69, 95
5, 54960, Note_off_c, 6, 69, 80
5, 54960, Note_off_c, 6, 64, 80
5, 54960, Note_off_c, 6, 57, 80
5, 54960, Note_on_c, 6, 69, 95
5, 54960, Note_on_c, 6, 64, 95
5, 54960, Note_on_c, 6, 57, 95
5, 54980, Note_off_c, 6, 69, 80
5, 54980, Note_off_c, 6, 64, 80
5, 54980, Note_off_c, 6, 57, 80
5, 55080, Note_on_c, 6, 69, 95
5, 55080, Note_on_c, 6, 64, 95
5, 55080, Note_on_c, 6, 57, 95
5, 55199, Note_off_c, 6, 69, 80
5, 55199, Note_off_c, 6, 64, 80
5, 55199, Note_off_c, 6, 57, 80
5, 55223, Note_on_c, 6, 69, 95
5, 55226, Note_on_c, 6, 57, 95
5, 55232, Note_on_c, 6, 64, 95
5, 55440, Note_off_c, 6, 69, 80
5, 55440, Note_off_c, 6, 64, 80
5, 55440, Note_off_c, 6, 57, 80
5, 55440, Note_on_c, 6, 69, 95
5, 55440, Note_on_c, 6, 64, 95
5, 55440, Note_on_c, 6, 57, 95
5, 55460, Note_off_c, 6, 69, 80
5, 55460, Note_off_c, 6, 64, 80
5, 55460, Note_off_c, 6, 57, 80
5, 55560, Note_on_c, 6, 69, 95
5, 55560, Note_on_c, 6, 64, 95
5, 55560, Note_on_c, 6, 57, 95
5, 55679, Note_off_c, 6, 69, 80
5, 55679, Note_off_c, 6, 64, 80
5, 55679, Note_off_c, 6, 57, 80
5, 55684, Note_on_c, 6, 69, 95
5, 55698, Note_on_c, 6, 64, 95
5, 55719, Note_on_c, 6, 57, 95
5, 55920, Note_off_c, 6, 69, 80
5, 55920, Note_off_c, 6, 64, 80
5, 55920, Note_off_c, 6, 57, 80
5, 55920, Note_on_c, 6, 69, 95
5, 55920, Note_on_c, 6, 64, 95
5, 55920, Note_on_c, 6, 57, 95
5, 55940, Note_off_c, 6, 69, 80
5, 55940, Note_off_c, 6, 64, 80
5, 55940, Note_off_c, 6, 57, 80
5, 56040, Note_on_c, 6, 69, 95
5, 56040, Note_on_c, 6, 64, 95
5, 56040, Note_on_c, 6, 57, 95
5, 56159, Note_off_c, 6, 69, 80
5, 56159, Note_off_c, 6, 64, 80
5, 56159, Note_off_c, 6, 57, 80
5, 56163, Note_on_c, 6, 69, 95
5, 56189, Note_on_c, 6, 64, 95
5, 56190, Note_on_c, 6, 57, 95
5, 56400, Note_off_c, 6, 69, 80
5, 56400, Note_off_c, 6, 64, 80
5, 56400, Note_off_c, 6, 57, 80
5, 56400, Note_on_c, 6, 69, 95
5, 56400, Note_on_c, 6, 64, 95
5, 56400, Note_on_c, 6, 57, 95
5, 56420, Note_off_c, 6, 69, 80
5, 56420, Note_off_c, 6, 64, 80
5, 56420, Note_off_c, 6, 57, 80
5, 56520, Note_on_c, 6, 69, 95
5, 56520, Note_on_c, 6, 64, 95
5, 56520, Note_on_c, 6, 57, 95
5, 56639, Note_off_c, 6, 69, 80
5, 56639, Note_off_c, 6, 64, 80
5, 56639, Note_off_c, 6, 57, 80
5, 56641, Note_on_c, 6, 64, 95
5, 56650, Note_on_c, 6, 57, 95
5, 56668, Note_on_c, 6, 69, 95
5, 56880, Note_off_c, 6, 69, 80
5, 56880, Note_off_c, 6, 64, 80
5, 56880, Note_off_c, 6, 57, 80
5, 56880, Note_on_c, 6, 69, 95
5, 56880, Note_on_c, 6, 64, 95
5, 56880, Note_on_c, 6, 57, 95
5, 56900, Note_off_c, 6, 69, 80
5, 56900, Note_off_c, 6, 64, 80
5, 56900, Note_off_c, 6, 57, 80
5, 57000, Note_on_c, 6, 69, 95
5, 57000, Note_on_c, 6, 64, 95
5, 57000, Note_on_c, 6, 57, 95
5, 57119, Note_off_c, 6, 69, 80
5, 57119, Note_off_c, 6, 64, 80
5, 57119, Note_off_c, 6, 57, 80
5, 57127, Note_on_c, 6, 57, 95
5, 57144, Note_on_c, 6, 69, 95
5, 57159, Note_on_c, 6, 64, 95
5, 57360, Note_off_c, 6, 69, 80
5, 57360, Note_off_c, 6, 64, 80
5, 57360, Note_off_c, 6, 57, 80
5, 57360, Note_on_c, 6, 69, 95
5, 57360, Note_on_c, 6, 64, 95
5, 57360, Note_on_c, 6, 57, 95
5, 57380, Note_off_c, 6, 69, 80
5, 57380, Note_off_c, 6, 64, 80
5, 57380, Note_off_c, 6, 57, 80
5, 73441, Note_on_c, 6, 43, 95
5, 73450, Note_on_c, 6, 50, 95
5, 73478, Note_on_c, 6, 55, 95
5, 73920, Note_off_c, 6, 55, 80
5, 73920, Note_off_c, 6, 50, 80
5, 73920, Note_off_c, 6, 43, 80
5, 74412, Note_on_c, 6, 53, 95
5, 74438, Note_on_c, 6, 60, 95
5, 74442, Note_on_c, 6, 65, 95
5, 74880, Note_off_c, 6, 65, 80
5, 74880, Note_off_c, 6, 60, 80
5, 74880, Note_off_c, 6, 53, 80
5, 75370, Note_on_c, 6, 64, 95
5, 75382, Note_on_c, 6, 59, 95
5, 75392, Note_on_c, 6, 52, 95
5, 75840, Note_off_c, 6, 64, 80
5, 75840, Note_off_c, 6, 59, 80
5, 75840, Note_off_c, 6, 52, 80
5, 76335, Note_on_c, 6, 64, 95
5, 76351, Note_on_c, 6, 59, 95
5, 76361, Note_on_c, 6, 52, 95
5, 76800, Note_off_c, 6, 64, 80
5, 76800, Note_off_c, 6, 59, 80
5, 76800, Note_off_c, 6, 52, 80
5, 77286, Note_on_c, 6, 55, 95
5, 77290, Note_on_c, 6, 43, 95
5, 77315, Note_on_c, 6, 50, 95
5, 77760, Note_off_c, 6, 55, 80
5, 77760, Note_off_c, 6, 50, 80
5, 77760, Note_off_c, 6, 43, 80
5, 78242, Note_on_c, 6, 65, 95
5, 78269, Note_on_c, 6, 60, 95
5, 78284, Note_on_c, 6, 53, 95
5, 78720, Note_off_c, 6, 65, 80
5, 78720, Note_off_c, 6, 60, 80
5, 78720, Note_off_c, 6, 53, 80
5, 79200, Note_on_c, 6, 64, 95
5, 79210, Note_on_c, 6, 59, 95
5, 79215, Note_on_c, 6, 52, 95
5, 79680, Note_off_c, 6, 64, 80
5, 79680, Note_off_c, 6, 59, 80
5, 79680, Note_off_c, 6, 52, 80
5, 80187, Note_on_c, 6, 64, 95
5, 80191, Note_on_c, 6, 59, 95
5, 80202, Note_on_c, 6, 52, 95
5, 80640, Note_off_c, 6, 64, 80
5, 80640, Note_off_c, 6, 59, 80
5, 80640, Note_off_c, 6, 52, 80
5, 81121, Note_on_c, 6, 55, 95
5, 81136, Note_on_c, 6, 43, 95
5, 81145, Note_on_c, 6, 50, 95
5, 81600, Note_off_c, 6, 55, 80
5, 81600, Note_off_c, 6, 50, 80
5, 81600, Note_off_c, 6, 43, 80
5, 82090, Note_on_c, 6, 65, 95
5, 82098, Note_on_c, 6, 53, 95
5, 82110, Note_on_c, 6, 60, 95
5, 82560, Note_off_c, 6, 65, 80
5, 82560, Note_off_c, 6, 60, 80
5, 82560, Note_off_c, 6, 53, 80
5, 83056, Note_on_c, 6, 59, 95
5, 83069, Note_on_c, 6, 52, 95
5, 83073, Note_on_c, 6, 64, 95
5, 83520, Note_off_c, 6, 64, 80
5, 83520, Note_off_c, 6, 59, 80
5, 83520, Note_off_c, 6, 52, 80
5, 83526, Note_on_c, 6, 48, 95
5, 83555, Note_on_c, 6, 55, 95
5, 83560, Note_on_c, 6, 60, 95
5, 83760, Note_off_c, 6, 60, 80
5, 83760, Note_off_c, 6, 55, 80
5, 83760, Note_off_c, 6, 48, 80
5, 83886, Note_on_c, 6, 50, 95
5, 83898, Note_on_c, 6, 62, 95
5, 83916, Note_on_c, 6, 57, 95
5, 84120, Note_off_c, 6, 62, 80
5, 84120, Note_off_c, 6, 57, 80
5, 84120, Note_off_c, 6, 50, 80
5, 84267, Note_on_c, 6, 59, 95
5, 84268, Note_on_c, 6, 64, 95
5, 84282, Note_on_c, 6, 52, 95
5, 84480, Note_off_c, 6, 64, 80
5, 84480, Note_off_c, 6, 59, 80
5, 84480, Note_off_c, 6, 52, 80
5, 84962, Note_on_c, 6, 43, 95
5, 84965, Note_on_c, 6, 50, 95
5, 84999, Note_on_c, 6, 55, 95
5, 85440, Note_off_c, 6, 55, 80
5, 85440, Note_off_c, 6, 50, 80
5, 85440, Note_off_c, 6, 43, 80
5, 85936, Note_on_c, 6, 53, 95
5, 85959, Note_on_c, 6, 60, 95
5, 85960, Note_on_c, 6, 65, 95
5, 86400, Note_off_c, 6, 65, 80
5, 86400, Note_off_c, 6, 60, 80
5, 86400, Note_off_c, 6, 53, 80
5, 86885, Note_on_c, 6, 64, 95
5, 86893, Note_on_c, 6, 52, 95
5, 86909, Note_on_c, 6, 59, 95
5, 87360, Note_off_c, 6, 64, 80
5, 87360, Note_off_c, 6, 59, 80
5, 87360, Note_off_c, 6, 52, 80
5, 87853, Note_on_c, 6, 55, 95
5, 87860, Note_on_c, 6, 48, 95
5, 87884, Note_on_c, 6, 60, 95
5, 88200, Note_off_c, 6, 60, 80
5, 88200, Note_off_c, 6, 55, 80
5, 88200, Note_off_c, 6, 48, 80
5, 88200, Note_on_c, 6, 57, 95
5, 88200, Note_on_c, 6, 52, 95
5, 88200, Note_on_c, 6, 45, 95
5, 88319, Note_off_c, 6, 57, 80
5, 88319, Note_off_c, 6, 52, 80
5, 88319, Note_off_c, 6, 45, 80
5, 88327, Note_on_c, 6, 57, 95
5, 88341, Note_on_c, 6, 52, 95
5, 88346, Note_on_c, 6, 45, 95
5, 90120, Note_off_c, 6, 57, 80
5, 90120, Note_off_c, 6, 52, 80
5, 90120, Note_off_c, 6, 45, 80
5, 92040, Note_on_c, 6, 57, 95
5, 92040, Note_on_c, 6, 52, 95
5, 92040, Note_on_c, 6, 45, 95
5, 92159, Note_off_c, 6, 57, 80
5, 92159, Note_off_c, 6, 52, 80
5, 92159, Note_off_c, 6, 45, 80
5, 92176, Note_on_c, 6, 52, 95
5, 92192, Note_on_c, 6, 57, 95
5, 92192, Note_on_c, 6, 45, 95
5, 94080, Note_off_c, 6, 57, 80
5, 94080, Note_off_c, 6, 52, 80
5, 94080, Note_off_c, 6, 45, 80
5, 96007, Note_on_c, 6, 64, 95
5, 96008, Note_on_c, 6, 57, 95
5, 96041, Note_on_c, 6, 69, 95
5, 96240, Note_off_c, 6, 69, 80
5, 96240, Note_off_c, 6, 64, 80
5, 96240, Note_off_c, 6, 57, 80
5, 96240, Note_on_c, 6, 69, 95
5, 96240, Note_on_c, 6, 64, 95
5, 96240, Note_on_c, 6, 57, 95
5, 96260, Note_off_c, 6, 69, 80
5, 96260, Note_off_c, 6, 64, 80
5, 96260, Note_off_c, 6, 57, 80
5, 96360, Note_on_c, 6, 69, 95
5, 96360, Note_on_c, 6, 64, 95
5, 96360, Note_on_c, 6, 57, 95
5, 96479, Note_off_c, 6, 69, 80
5, 96479, Note_off_c, 6, 64, 80
5, 96479, Note_off_c, 6, 57, 80
5, 96490, Note_on_c, 6, 57, 95
5, 96493, Note_on_c, 6, 69, 95
5, 96519, Note_on_c, 6, 64, 95
5, 96720, Note_off_c, 6, 69, 80
5, 96720, Note_off_c, 6, 64, 80
5, 96720, Note_off_c, 6, 57, 80
5, 96720, Note_on_c, 6, 69, 95
5, 96720, Note_on_c, 6, 64, 95
5, 96720, Note_on_c, 6, 57, 95
5, 96740, Note_off_c, 6, 69, 80
5, 96740, Note_off_c, 6, 64, 80
5, 96740, Note_off_c, 6, 57, 80
5, 96840, Note_on_c, 6, 69, 95
5, 96840, Note_on_c, 6, 64, 95
5, 96840, Note_on_c, 6, 57, 95
5, 96959, Note_off_c, 6, 69, 80
5, 96959, Note_off_c, 6, 64, 80
5, 96959, Note_off_c, 6, 57, 80
5, 96971, Note_on_c, 6, 64, 95
5, 96971, Note_on_c, 6, 57, 95
5, 96978, Note_on_c, 6, 69, 95
5, 97200, Note_off_c, 6, 69, 80
5, 97200, Note_off_c, 6, 64, 80
5, 97200, Note_off_c, 6, 57, 80
5, 97200, Note_on_c, 6, 69, 95
5, 97200, Note_on_c, 6, 64, 95
5, 97200, Note_on_c, 6, 57, 95
5, 97220, Note_off_c, 6, 69, 80
5, 97220, Note_off_c, 6, 64, 80
5, 97220, Note_off_c, 6, 57, 80
5, 97320, Note_on_c, 6, 69, 95
5, 97320, Note_on_c, 6, 64, 95
5, 97320, Note_on_c, 6, 57, 95
5, 97439, Note_off_c, 6, 69, 80
5, 97439, Note_off_c, 6, 64, 80
5, 97439, Note_off_c, 6, 57, 80
5, 97457, Note_on_c, 6, 64, 95
5, 97471, Note_on_c, 6, 69, 95
5, 97479, Note_on_c, 6, 57, 95
5, 97680, Note_off_c, 6, 69, 80
5, 97680, Note_off_c, 6, 64, 80
5, 97680, Note_off_c, 6, 57, 80
5, 97680, Note_on_c, 6, 69, 95
5, 97680, Note_on_c, 6, 64, 95
5, 97680, Note_on_c, 6, 57, 95
5, 97700, Note_off_c, 6, 69, 80
5, 97700, Note_off_c, 6, 64, 80
5, 97700, Note_off_c, 6, 57, 80
5, 97800, Note_on_c, 6, 69, 95
5, 97800, Note_on_c, 6, 64, 95
5, 97800, Note_on_c, 6, 57, 95
5, 97919, Note_off_c, 6, 69, 80
5, 97919, Note_off_c, 6, 64, 80
5, 97919, Note_off_c, 6, 57, 80
5, 97940, Note_on_c, 6, 57, 95
5, 97944, Note_on_c, 6, 64, 95
5, 97950, Note_on_c, 6, 69, 95
5, 98160, Note_off_c, 6, 69, 80
5, 98160, Note_off_c, 6, 64, 80
5, 98160, Note_off_c, 6, 57, 80
5, 98160, Note_on_c, 6, 69, 95
5, 98160, Note_on_c, 6, 64, 95
5, 98160, Note_on_c, 6, 57, 95
5, 98180, Note_off_c, 6, 69, 80
5, 98180, Note_off_c, 6, 64, 80
5, 98180, Note_off_c, 6, 57, 80
5, 98280, Note_on_c, 6, 69, 95
5, 98280, Note_on_c, 6, 64, 95
5, 98280, Note_on_c, 6, 57, 95
5, 98399, Note_off_c, 6, 69, 80
5, 98399, Note_off_c, 6, 64, 80
5, 98399, Note_off_c, 6, 57, 80
5, 98405, Note_on_c, 6, 64, 95
5, 98416, Note_on_c, 6, 69, 95
5, 98427, Note_on_c, 6, 57, 95
5, 98640, Note_off_c, 6, 69, 80
5, 98640, Note_off_c, 6, 64, 80
5, 98640, Note_off_c, 6, 57, 80
5, 98660, Note_on_c, 6, 64, 95
5, 98665, Note_on_c, 6, 57, 95
5, 98674, Note_on_c, 6, 69, 95
5, 98760, Note_off_c, 6, 69, 80
5, 98880, Note_off_c, 6, 64, 80
5, 98880, Note_off_c, 6, 57, 80
5, 98897, Note_on_c, 6, 60, 95
5, 98908, Note_on_c, 6, 55, 95
5, 98923, Note_on_c, 6, 48, 95
5, 99120, Note_off_c, 6, 60, 80
5, 99120, Note_off_c, 6, 55, 80
5, 99120, Note_off_c, 6, 48, 80
5, 99247, Note_on_c, 6, 62, 95
5, 99255, Note_on_c, 6, 57, 95
5, 99255, Note_on_c, 6, 50, 95
5, 99480, Note_off_c, 6, 62, 80
5, 99480, Note_off_c, 6, 57, 80
5, 99480, Note_off_c, 6, 50, 80
5, 99603, Note_on_c, 6, 52, 95
5, 99605, Note_on_c, 6, 59, 95
5, 99639, Note_on_c, 6, 64, 95
5, 99720, Note_off_c, 6, 64, 80
5, 99720, Note_off_c, 6, 59, 80
5, 99720, Note_on_c, 6, 69, 95
5, 99720, Note_on_c, 6, 64, 95
5, 99720, Note_on_c, 6, 57, 95
5, 99839, Note_off_c, 6, 69, 80
5, 99839, Note_off_c, 6, 64, 80
5, 99839, Note_off_c, 6, 57, 80
5, 99840, Note_off_c, 6, 52, 80
5, 99851, Note_on_c, 6, 64, 95
5, 99878, Note_on_c, 6, 57, 95
5, 99879, Note_on_c, 6, 69, 95
5, 100080, Note_off_c, 6, 69, 80
5, 100080, Note_off_c, 6, 64, 80
5, 100080, Note_off_c, 6, 57, 80
5, 100080, Note_on_c, 6, 69, 95
5, 100080, Note_on_c, 6, 64, 95
5, 100080, Note_on_c, 6, 57, 95
5, 100100, Note_off_c, 6, 69, 80
5, 100100, Note_off_c, 6, 64, 80
5, 100100, Note_off_c, 6, 57, 80
5, 100200, Note_on_c, 6, 69, 95
5, 100200, Note_on_c, 6, 64, 95
5, 100200, Note_on_c, 6, 57, 95
5, 100319, Note_off_c, 6, 69, 80
5, 100319, Note_off_c, 6, 64, 80
5, 100319, Note_off_c, 6, 57, 80
5, 100328, Note_on_c, 6, 64, 95
5, 100334, Note_on_c, 6, 69, 95
5, 100348, Note_on_c, 6, 57, 95
5, 100560, Note_off_c, 6, 69, 80
5, 100560, Note_off_c, 6, 64, 80
5, 100560, Note_off_c, 6, 57, 80
5, 100560, Note_on_c, 6, 69, 95
5, 100560, Note_on_c, 6, 64, 95
5, 100560, Note_on_c, 6, 57, 95
5, 100580, Note_off_c, 6, 69, 80
5, 100580, Note_off_c, 6, 64, 80
5, 100580, Note_off_c, 6, 57, 80
5, 100680, Note_on_c, 6, 69, 95
5, 100680, Note_on_c, 6, 64, 95
5, 100680, Note_on_c, 6, 57, 95
5, 100799, Note_off_c, 6, 69, 80
5, 100799, Note_off_c, 6, 64, 80
5, 100799, Note_off_c, 6, 57, 80
5, 100820, Note_on_c, 6, 69, 95
5, 100837, Note_on_c, 6, 64, 95
5, 100838, Note_on_c, 6, 57, 95
5, 101040, Note_off_c, 6, 69, 80
5, 101040, Note_off_c, 6, 64, 80
5, 101040, Note_off_c, 6, 57, 80
5, 101040, Note_on_c, 6, 69, 95
5, 101040, Note_on_c, 6, 64, 95
5, 101040, Note_on_c, 6, 57, 95
5, 101060, Note_off_c, 6, 69, 80
5, 101060, Note_off_c, 6, 64, 80
5, 101060, Note_off_c, 6, 57, 80
5, 101160, Note_on_c, 6, 69, 95
5, 101160, Note_on_c, 6, 64, 95
5, 101160, Note_on_c, 6, 57, 95
5, 101279, Note_off_c, 6, 69, 80
5, 101279, Note_off_c, 6, 64, 80
5, 101279, Note_off_c, 6, 57, 80
5, 101299, Note_on_c, 6, 64, 95
5, 101314, Note_on_c, 6, 69, 95
5, 101322, Note_on_c, 6, 57, 95
5, 101520, Note_off_c, 6, 69, 80
5, 101520, Note_off_c, 6, 64, 80
5, 101520, Note_off_c, 6, 57, 80
5, 101520, Note_on_c, 6, 69, 95
5, 101520, Note_on_c, 6, 64, 95
5, 101520, Note_on_c, 6, 57, 95
5, 101540, Note_off_c, 6, 69, 80
5, 101540, Note_off_c, 6, 64, 80
5, 101540, Note_off_c, 6, 57, 80
5, 101640, Note_on_c, 6, 69, 95
5, 101640, Note_on_c, 6, 64, 95
5, 101640, Note_on_c, 6, 57, 95
5, 101759, Note_off_c, 6, 69, 80
5, 101759, Note_off_c, 6, 64, 80
5, 101759, Note_off_c, 6, 57, 80
5, 101774, Note_on_c, 6, 69, 95
5, 101797, Note_on_c, 6, 64, 95
5, 101804, Note_on_c, 6, 57, 95
5, 102000, Note_off_c, 6, 69, 80
5, 102000, Note_off_c, 6, 64, 80
5, 102000, Note_off_c, 6, 57, 80
5, 102000, Note_on_c, 6, 69, 95
5, 102000, Note_on_c, 6, 64, 95
5, 102000, Note_on_c, 6, 57, 95
5, 102020, Note_off_c, 6, 69, 80
5, 102020, Note_off_c, 6, 64, 80
5, 102020, Note_off_c, 6, 57, 80
5, 102120, Note_on_c, 6, 69, 95
5, 102120, Note_on_c, 6, 64, 95
5, 102120, Note_on_c, 6, 57, 95
5, 102239, Note_off_c, 6, 69, 80
5, 102239, Note_off_c, 6, 64, 80
5, 102239, Note_off_c, 6, 57, 80
5, 102243, Note_on_c, 6, 69, 95
5, 102251, Note_on_c, 6, 57, 95
5, 102256, Note_on_c, 6, 64, 95
5, 102480, Note_off_c, 6, 69, 80
5, 102480, Note_off_c, 6, 64, 80
5, 102480, Note_off_c, 6, 57, 80
5, 102480, Note_on_c, 6, 69, 95
5, 102480, Note_on_c, 6, 64, 95
5, 102480, Note_on_c, 6, 57, 95
5, 102500, Note_off_c, 6, 69, 80
5, 102500, Note_off_c, 6, 64, 80
5, 102500, Note_off_c, 6, 57, 80
5, 102600, Note_on_c, 6, 69, 95
5, 102600, Note_on_c, 6, 64, 95
5, 102600, Note_on_c, 6, 57, 95
5, 102719, Note_off_c, 6, 69, 80
5, 102719, Note_off_c, 6, 64, 80
5, 102719, Note_off_c, 6, 57, 80
5, 102732, Note_on_c, 6, 69, 95
5, 102735, Note_on_c, 6, 57, 95
5, 102736, Note_on_c, 6, 64, 95
5, 102960, Note_off_c, 6, 69, 80
5, 102960, Note_off_c, 6, 64, 80
5, 102960, Note_off_c, 6, 57, 80
5, 102960, Note_on_c, 6, 69, 95
5, 102960, Note_on_c, 6, 64, 95
5, 102960, Note_on_c, 6, 57, 95
5, 102980, Note_off_c, 6, 69, 80
5, 102980, Note_off_c, 6, 64, 80
5, 102980, Note_off_c, 6, 57, 80
5, 103080, Note_on_c, 6, 69, 95
5, 103080, Note_on_c, 6, 64, 95
5, 103080, Note_on_c, 6, 57, 95
5, 103199, Note_off_c, 6, 69, 80
5, 103199, Note_off_c, 6, 64, 80
5, 103199, Note_off_c, 6, 57, 80
5, 103216, Note_on_c, 6, 64, 95
5, 103228, Note_on_c, 6, 69, 95
5, 103237, Note_on_c, 6, 57, 95
5, 103440, Note_off_c, 6, 69, 80
5, 103440, Note_off_c, 6, 64, 80
5, 103440, Note_off_c, 6, 57, 80
5, 103440, Note_on_c, 6, 69, 95
5, 103440, Note_on_c, 6, 64, 95
5, 103440, Note_on_c, 6, 57, 95
5, 103460, Note_off_c, 6, 69, 80
5, 103460, Note_off_c, 6, 64, 80
5, 103460, Note_off_c, 6, 57, 80
5, 105604, Note_on_c, 6, 60, 95
5, 105619, Note_on_c, 6, 65, 95
5, 105642, Note_on_c, 6, 53, 95
5, 105840, Note_off_c, 6, 65, 80
5, 105840, Note_off_c, 6, 60, 80
5, 105840, Note_off_c, 6, 53, 80
5, 105859, Note_on_c, 6, 65, 95
5, 105860, Note_on_c, 6, 53, 95
5, 105879, Note_on_c, 6, 60, 95
5, 106080, Note_off_c, 6, 65, 80
5, 106080, Note_off_c, 6, 60, 80
5, 106080, Note_off_c, 6, 53, 80
5, 106086, Note_on_c, 6, 60, 95
5, 106093, Note_on_c, 6, 65, 95
5, 106117, Note_on_c, 6, 53, 95
5, 106320, Note_off_c, 6, 65, 80
5, 106320, Note_off_c, 6, 60, 80
5, 106320, Note_off_c, 6, 53, 80
5, 106328, Note_on_c, 6, 60, 95
5, 106329, Note_on_c, 6, 53, 95
5, 106351, Note_on_c, 6, 65, 95
5, 106560, Note_off_c, 6, 65, 80
5, 106560, Note_off_c, 6, 60, 80
5, 106560, Note_off_c, 6, 53, 80
5, 106577, Note_on_c, 6, 60, 95
5, 106585, Note_on_c, 6, 65, 95
5, 106588, Note_on_c, 6, 53, 95
5, 106800, Note_off_c, 6, 65, 80
5, 106800, Note_off_c, 6, 60, 80
5, 106800, Note_off_c, 6, 53, 80
5, 106811, Note_on_c, 6, 60, 95
5, 106829, Note_on_c, 6, 53, 95
5, 106841, Note_on_c, 6, 65, 95
5, 107040, Note_off_c, 6, 65, 80
5, 107040, Note_off_c, 6, 60, 80
5, 107040, Note_off_c, 6, 53, 80
5, 107048, Note_on_c, 6, 53, 95
5, 107049, Note_on_c, 6, 65, 95
5, 107083, Note_on_c, 6, 60, 95
5, 107280, Note_off_c, 6, 65, 80
5, 107280, Note_off_c, 6, 60, 80
5, 107280, Note_off_c, 6, 53, 80
5, 107295, Note_on_c, 6, 65, 95
5, 107309, Note_on_c, 6, 53, 95
5, 107315, Note_on_c, 6, 60, 95
5, 107520, Note_off_c, 6, 65, 80
5, 107520, Note_off_c, 6, 60, 80
5, 107520, Note_off_c, 6, 53, 80
5, 107532, Note_on_c, 6, 53, 95
5, 107553, Note_on_c, 6, 60, 95
5, 107554, Note_on_c, 6, 65, 95
5, 107760, Note_off_c, 6, 65, 80
5, 107760, Note_off_c, 6, 60, 80
5, 107760, Note_off_c, 6, 53, 80
5, 107765, Note_on_c, 6, 65, 95
5, 107788, Note_on_c, 6, 53, 95
5, 107793, Note_on_c, 6, 60, 95
5, 108000, Note_off_c, 6, 65, 80
5, 108000, Note_off_c, 6, 60, 80
5, 108000, Note_off_c, 6, 53, 80
5, 108013, Note_on_c, 6, 60, 95
5, 108013, Note_on_c, 6, 53, 95
5, 108016, Note_on_c, 6, 65, 95
5, 108240, Note_off_c, 6, 65, 80
5, 108240, Note_off_c, 6, 60, 80
5, 108240, Note_off_c, 6, 53, 80
5, 108248, Note_on_c, 6, 53, 95
5, 108268, Note_on_c, 6, 60, 95
5, 108278, Note_on_c, 6, 65, 95
5, 108480, Note_off_c, 6, 65, 80
5, 108480, Note_off_c, 6, 60, 80
5, 108480, Note_off_c, 6, 53, 80
5, 108495, Note_on_c, 6, 53, 95
5, 108500, Note_on_c, 6, 60, 95
5, 108502, Note_on_c, 6, 65, 95
5, 108720, Note_off_c, 6, 65, 80
5, 108720, Note_off_c, 6, 60, 80
5, 108720, Note_off_c, 6, 53, 80
5, 108721, Note_on_c, 6, 65, 95
5, 108746, Note_on_c, 6, 60, 95
5, 108750, Note_on_c, 6, 53, 95
5, 108960, Note_off_c, 6, 65, 80
5, 108960, Note_off_c, 6, 60, 80
5, 108960, Note_off_c, 6, 53, 80
5, 108972, Note_on_c, 6, 53, 95
5, 108975, Note_on_c, 6, 65, 95
5, 108978, Note_on_c, 6, 60, 95
5, 109200, Note_off_c, 6, 65, 80
5, 109200, Note_off_c, 6, 60, 80
5, 109200, Note_off_c, 6, 53, 80
5, 109203, Note_on_c, 6, 60, 95
5, 109210, Note_on_c, 6, 65, 95
5, 109241, Note_on_c, 6, 53, 95
5, 109440, Note_off_c, 6, 65, 80
5, 109440, Note_off_c, 6, 60, 80
5, 109440, Note_off_c, 6, 53, 80
5, 109444, Note_on_c, 6, 57, 95
5, 109450, Note_on_c, 6, 62, 95
5, 109458, Note_on_c, 6, 50, 95
5, 109680, Note_off_c, 6, 62, 80
5, 109680, Note_off_c, 6, 57, 80
5, 109680, Note_off_c, 6, 50, 80
5, 109685, Note_on_c, 6, 62, 95
5, 109717, Note_on_c, 6, 50, 95
5, 109722, Note_on_c, 6, 57, 95
5, 109920, Note_off_c, 6, 62, 80
5, 109920, Note_off_c, 6, 57, 80
5, 109920, Note_off_c, 6, 50, 80
5, 109925, Note_on_c, 6, 50, 95
5, 109945, Note_on_c, 6, 62, 95
5, 109961, Note_on_c, 6, 57, 95
5, 110160, Note_off_c, 6, 62, 80
5, 110160, Note_off_c, 6, 57, 80
5, 110160, Note_off_c, 6, 50, 80
5, 110160, Note_on_c, 6, 62, 95
5, 110192, Note_on_c, 6, 50, 95
5, 110197, Note_on_c, 6, 57, 95
5, 110400, Note_off_c, 6, 62, 80
5, 110400, Note_off_c, 6, 57, 80
5, 110400, Note_off_c, 6, 50, 80
5, 110404, Note_on_c, 6, 50, 95
5, 110441, Note_on_c, 6, 62, 95
5, 110442, Note_on_c, 6, 57, 95
5, 110640, Note_off_c, 6, 62, 80
5, 110640, Note_off_c, 6, 57, 80
5, 110640, Note_off_c, 6, 50, 80
5, 110651, Note_on_c, 6, 50, 95
5, 110676, Note_on_c, 6, 57, 95
5, 110684, Note_on_c, 6, 62, 95
5, 110880, Note_off_c, 6, 62, 80
5, 110880, Note_off_c, 6, 57, 80
5, 110880, Note_off_c, 6, 50, 80
5, 110884, Note_on_c, 6, 50, 95
5, 110911, Note_on_c, 6, 57, 95
5, 110924, Note_on_c, 6, 62, 95
5, 111120, Note_off_c, 6, 62, 80
5, 111120, Note_off_c, 6, 57, 80
5, 111120, Note_off_c, 6, 50, 80
5, 111142, Note_on_c, 6, 57, 95
5, 111149, Note_on_c, 6, 62, 95
5, 111162, Note_on_c, 6, 50, 95
5, 111360, Note_off_c, 6, 62, 80
5, 111360, Note_off_c, 6, 57, 80
5, 111360, Note_off_c, 6, 50, 80
5, 111363, Note_on_c, 6, 62, 95
5, 111392, Note_on_c, 6, 57, 95
5, 111402, Note_on_c, 6, 50, 95
5, 111600, Note_off_c, 6, 62, 80
5, 111600, Note_off_c, 6, 57, 80
5, 111600, Note_off_c, 6, 50, 80
5, 111610, Note_on_c, 6, 62, 95
5, 111627, Note_on_c, 6, 57, 95
5, 111627, Note_on_c, 6, 50, 95
5, 111840, Note_off_c, 6, 62, 80
5, 111840, Note_off_c, 6, 57, 80
5, 111840, Note_off_c, 6, 50, 80
5, 111845, Note_on_c, 6, 62, 95
5, 111851, Note_on_c, 6, 57, 95
5, 111879, Note_on_c, 6, 50, 95
5, 112080, Note_off_c, 6, 62, 80
5, 112080, Note_off_c, 6, 57, 80
5, 112080, Note_off_c, 6, 50, 80
5, 112085, Note_on_c, 6, 50, 95
5, 112103, Note_on_c, 6, 57, 95
5, 112117, Note_on_c, 6, 62, 95
5, 112320, Note_off_c, 6, 62, 80
5, 112320, Note_off_c, 6, 57, 80
5, 112320, Note_off_c, 6, 50, 80
5, 112331, Note_on_c, 6, 62, 95
5, 112334, Note_on_c, 6, 50, 95
5, 112349, Note_on_c, 6, 57, 95
5, 112560, Note_off_c, 6, 62, 80
5, 112560, Note_off_c, 6, 57, 80
5, 112560, Note_off_c, 6, 50, 80
5, 112569, Note_on_c, 6, 50, 95
5, 112584, Note_on_c, 6, 57, 95
5, 112587, Note_on_c, 6, 62, 95
5, 112800, Note_off_c, 6, 62, 80
5, 112800, Note_off_c, 6, 57, 80
5, 112800, Note_off_c, 6, 50, 80
5, 112802, Note_on_c, 6, 57, 95
5, 112841, Note_on_c, 6, 50, 95
5, 112844, Note_on_c, 6, 62, 95
5, 113040, Note_off_c, 6, 62, 80
5, 113040, Note_off_c, 6, 57, 80
5, 113040, Note_off_c, 6, 50, 80
5, 113052, Note_on_c, 6, 50, 95
5, 113062, Note_on_c, 6, 57, 95
5, 113066, Note_on_c, 6, 62, 95
5, 113280, Note_off_c, 6, 62, 80
5, 113280, Note_off_c, 6, 57, 80
5, 113280, Note_off_c, 6, 50, 80
5, 113295, Note_on_c, 6, 65, 95
5, 113297, Note_on_c, 6, 60, 95
5, 113323, Note_on_c, 6, 53, 95
5, 113520, Note_off_c, 6, 65, 80
5, 113520, Note_off_c, 6, 60, 80
5, 113520, Note_off_c, 6, 53, 80
5, 113523, Note_on_c, 6, 60, 95
5, 113526, Note_on_c, 6, 53, 95
5, 113549, Note_on_c, 6, 65, 95
5, 113760, Note_off_c, 6, 65, 80
5, 113760, Note_off_c, 6, 60, 80
5, 113760, Note_off_c, 6, 53, 80
5, 113782, Note_on_c, 6, 60, 95
5, 113799, Note_on_c, 6, 53, 95
5, 113803, Note_on_c, 6, 65, 95
5, 114000, Note_off_c, 6, 65, 80
5, 114000, Note_off_c, 6, 60, 80
5, 114000, Note_off_c, 6, 53, 80
5, 114020, Note_on_c, 6, 53, 95
5, 114030, Note_on_c, 6, 65, 95
5, 114040, Note_on_c, 6, 60, 95
5, 114240, Note_off_c, 6, 65, 80
5, 114240, Note_off_c, 6, 60, 80
5, 114240, Note_off_c, 6, 53, 80
5, 114245, Note_on_c, 6, 60, 95
5, 114269, Note_on_c, 6, 53, 95
5, 114278, Note_on_c, 6, 65, 95
5, 114480, Note_off_c, 6, 65, 80
5, 114480, Note_off_c, 6, 60, 80
5, 114480, Note_off_c, 6, 53, 80
5, 114513, Note_on_c, 6, 60, 95
5, 114514, Note_on_c, 6, 53, 95
5, 114520, Note_on_c, 6, 65, 95
5, 114720, Note_off_c, 6, 65, 80
5, 114720, Note_off_c, 6, 60, 80
5, 114720, Note_off_c, 6, 53, 80
5, 114740, Note_on_c, 6, 60, 95
5, 114749, Note_on_c, 6, 53, 95
5, 114750, Note_on_c, 6, 65, 95
5, 114960, Note_off_c, 6, 65, 80
5, 114960, Note_off_c, 6, 60, 80
5, 114960, Note_off_c, 6, 53, 80
5, 114961, Note_on_c, 6, 60, 95
5, 114987, Note_on_c, 6, 65, 95
5, 114996, Note_on_c, 6, 53, 95
5, 115200, Note_off_c, 6, 65, 80
5, 115200, Note_off_c, 6, 60, 80
5, 115200, Note_off_c, 6, 53, 80
5, 115205, Note_on_c, 6, 60, 95
5, 115208, Note_on_c, 6, 53, 95
5, 115211, Note_on_c, 6, 65, 95
5, 115440, Note_off_c, 6, 65, 80
5, 115440, Note_off_c, 6, 60, 80
5, 115440, Note_off_c, 6, 53, 80
5, 115451, Note_on_c, 6, 65, 95
5, 115451, Note_on_c, 6, 60, 95
5, 115453, Note_on_c, 6, 53, 95
5, 115680, Note_off_c, 6, 65, 80
5, 115680, Note_off_c, 6, 60, 80
5, 115680, Note_off_c, 6, 53, 80
5, 115680, Note_on_c, 6, 65, 95
5, 115694, Note_on_c, 6, 60, 95
5, 115712, Note_on_c, 6, 53, 95
5, 115920, Note_off_c, 6, 65, 80
5, 115920, Note_off_c, 6, 60, 80
5, 115920, Note_off_c, 6, 53, 80
5, 115920, Note_on_c, 6, 60, 95
5, 115924, Note_on_c, 6, 53, 95
5, 115964, Note_on_c, 6, 65, 95
5, 116160, Note_off_c, 6, 65, 80
5, 116160, Note_off_c, 6, 60, 80
5, 116160, Note_off_c, 6, 53, 80
5, 116167, Note_on_c, 6, 60, 95
5, 116174, Note_on_c, 6, 65, 95
5, 116202, Note_on_c, 6, 53, 95
5, 116400, Note_off_c, 6, 65, 80
5, 116400, Note_off_c, 6, 60, 80
5, 116400, Note_off_c, 6, 53, 80
5, 116408, Note_on_c, 6, 65, 95
5, 116416, Note_on_c, 6, 60, 95
5, 116441, Note_on_c, 6, 53, 95
5, 116640, Note_off_c, 6, 65, 80
5, 116640, Note_off_c, 6, 60, 80
5, 116640, Note_off_c, 6, 53, 80
5, 116642, Note_on_c, 6, 53, 95
5, 116659, Note_on_c, 6, 65, 95
5, 116672, Note_on_c, 6, 60, 95
5, 116880, Note_off_c, 6, 65, 80
5, 116880, Note_off_c, 6, 60, 80
5, 116880, Note_off_c, 6, 53, 80
5, 116887, Note_on_c, 6, 65, 95
5, 116907, Note_on_c, 6, 60, 95
5, 116920, Note_on_c, 6, 53, 95
5, 117120, Note_off_c, 6, 65, 80
5, 117120, Note_off_c, 6, 60, 80
5, 117120, Note_off_c, 6, 53, 80
5, 117152, Note_on_c, 6, 62, 95
5, 117162, Note_on_c, 6, 50, 95
5, 117164, Note_on_c, 6, 57, 95
5, 117360, Note_off_c, 6, 62, 80
5, 117360, Note_off_c, 6, 57, 80
5, 117360, Note_off_c, 6, 50, 80
5, 117362, Note_on_c, 6, 62, 95
5, 117376, Note_on_c, 6, 57, 95
5, 117391, Note_on_c, 6, 50, 95
5, 117600, Note_off_c, 6, 62, 80
5, 117600, Note_off_c, 6, 57, 80
5, 117600, Note_off_c, 6, 50, 80
5, 117601, Note_on_c, 6, 57, 95
5, 117618, Note_on_c, 6, 50, 95
5, 117619, Note_on_c, 6, 62, 95
5, 117840, Note_off_c, 6, 62, 80
5, 117840, Note_off_c, 6, 57, 80
5, 117840, Note_off_c, 6, 50, 80
5, 117843, Note_on_c, 6, 62, 95
5, 117872, Note_on_c, 6, 57, 95
5, 117882, Note_on_c, 6, 50, 95
5, 118080, Note_off_c, 6, 62, 80
5, 118080, Note_off_c, 6, 57, 80
5, 118080, Note_off_c, 6, 50, 80
5, 118100, Note_on_c, 6, 57, 95
5, 118111, Note_on_c, 6, 50, 95
5, 118113, Note_on_c, 6, 62, 95
5, 118320, Note_off_c, 6, 62, 80
5, 118320, Note_off_c, 6, 57, 80
5, 118320, Note_off_c, 6, 50, 80
5, 118336, Note_on_c, 6, 62, 95
5, 118336, Note_on_c, 6, 57, 95
5, 118359, Note_on_c, 6, 50, 95
5, 118560, Note_off_c, 6, 62, 80
5, 118560, Note_off_c, 6, 57, 80
5, 118560, Note_off_c, 6, 50, 80
5, 118570, Note_on_c, 6, 57, 95
5, 118571, Note_on_c, 6, 50, 95
5, 118576, Note_on_c, 6, 62, 95
5, 118800, Note_off_c, 6, 62, 80
5, 118800, Note_off_c, 6, 57, 80
5, 118800, Note_off_c, 6, 50, 80
5, 118803, Note_on_c, 6, 50, 95
5, 118816, Note_on_c, 6, 57, 95
5, 118835, Note_on_c, 6, 62, 95
5, 119040, Note_off_c, 6, 62, 80
5, 119040, Note_off_c, 6, 57, 80
5, 119040, Note_off_c, 6, 50, 80
5, 119042, Note_on_c, 6, 62, 95
5, 119046, Note_on_c, 6, 50, 95
5, 119069, Note_on_c, 6, 57, 95
5, 119280, Note_off_c, 6, 62, 80
5, 119280, Note_off_c, 6, 57, 80
5, 119280, Note_off_c, 6, 50, 80
5, 119288, Note_on_c, 6, 50, 95
5, 119292, Note_on_c, 6, 57, 95
5, 119304, Note_on_c, 6, 62, 95
5, 119520, Note_off_c, 6, 62, 80
5, 119520, Note_off_c, 6, 57, 80
5, 119520, Note_off_c, 6, 50, 80
5, 119521, Note_on_c, 6, 62, 95
5, 119542, Note_on_c, 6, 57, 95
5, 119552, Note_on_c, 6, 50, 95
5, 119760, Note_off_c, 6, 62, 80
5, 119760, Note_off_c, 6, 57, 80
5, 119760, Note_off_c, 6, 50, 80
5, 119768, Note_on_c, 6, 57, 95
5, 119777, Note_on_c, 6, 50, 95
5, 119798, Note_on_c, 6, 62, 95
5, 120000, Note_off_c, 6, 62, 80
5, 120000, Note_off_c, 6, 57, 80
5, 120000, Note_off_c, 6, 50, 80
5, 120025, Note_on_c, 6, 57, 95
5, 120027, Note_on_c, 6, 62, 95
5, 120040, Note_on_c, 6, 50, 95
5, 120240, Note_off_c, 6, 62, 80
5, 120240, Note_off_c, 6, 57, 80
5, 120240, Note_off_c, 6, 50, 80
5, 120245, Note_on_c, 6, 62, 95
5, 120246, Note_on_c, 6, 57, 95
5, 120246, Note_on_c, 6, 50, 95
5, 120480, Note_off_c, 6, 62, 80
5, 120480, Note_off_c, 6, 57, 80
5, 120480, Note_off_c, 6, 50, 80
5, 120510, Note_on_c, 6, 57, 95
5, 120515, Note_on_c, 6, 50, 95
5, 120516, Note_on_c, 6, 62, 95
5, 120720, Note_off_c, 6, 62, 80
5, 120720, Note_off_c, 6, 57, 80
5, 120720, Note_off_c, 6, 50, 80
5, 120723, Note_on_c, 6, 62, 95
5, 120732, Note_on_c, 6, 57, 95
5, 120763, Note_on_c, 6, 50, 95
5, 120960, Note_off_c, 6, 62, 80
5, 120960, Note_off_c, 6, 57, 80
5, 120960, Note_off_c, 6, 50, 80
5, 120960, Note_on_c, 6, 65, 95
5, 120960, Note_on_c, 6, 60, 95
5, 120960, Note_on_c, 6, 53, 95
5, 120980, Note_off_c, 6, 65, 80
5, 120980, Note_off_c, 6, 60, 80
5, 120980, Note_off_c, 6, 53, 80
5, 121208, Note_on_c, 6, 53, 95
5, 121228, Note_on_c, 6, 65, 95
5, 121244, Note_on_c, 6, 60, 95
5, 121440, Note_off_c, 6, 65, 80
5, 121440, Note_off_c, 6, 60, 80
5, 121440, Note_off_c, 6, 53, 80
5, 121440, Note_on_c, 6, 65, 95
5, 121440, Note_on_c, 6, 60, 95
5, 121440, Note_on_c, 6, 53, 95
5, 121460, Note_off_c, 6, 65, 80
5, 121460, Note_off_c, 6, 60, 80
5, 121460, Note_off_c, 6, 53, 80
5, 121691, Note_on_c, 6, 65, 95
5, 121711, Note_on_c, 6, 53, 95
5, 121715, Note_on_c, 6, 60, 95
5, 121920, Note_off_c, 6, 65, 80
5, 121920, Note_off_c, 6, 60, 80
5, 121920, Note_off_c, 6, 53, 80
5, 121920, Note_on_c, 6, 65, 95
5, 121920, Note_on_c, 6, 60, 95
5, 121920, Note_on_c, 6, 53, 95
5, 121940, Note_off_c, 6, 65, 80
5, 121940, Note_off_c, 6, 60, 80
5, 121940, Note_off_c, 6, 53, 80
5, 122180, Note_on_c, 6, 60, 95
5, 122187, Note_on_c, 6, 65, 95
5, 122203, Note_on_c, 6, 53, 95
5, 122400, Note_off_c, 6, 65, 80
5, 122400, Note_off_c, 6, 60, 80
5, 122400, Note_off_c, 6, 53, 80
5, 122400, Note_on_c, 6, 65, 95
5, 122400, Note_on_c, 6, 60, 95
5, 122400, Note_on_c, 6, 53, 95
5, 122420, Note_off_c, 6, 65, 80
5, 122420, Note_off_c, 6, 60, 80
5, 122420, Note_off_c, 6, 53, 80
5, 122653, Note_on_c, 6, 53, 95
5, 122675, Note_on_c, 6, 60, 95
5, 122681, Note_on_c, 6, 65, 95
5, 122880, Note_off_c, 6, 65, 80
5, 122880, Note_off_c, 6, 60, 80
5, 122880, Note_off_c, 6, 53, 80
5, 122880, Note_on_c, 6, 65, 95
5, 122880, Note_on_c, 6, 60, 95
5, 122880, Note_on_c, 6, 53, 95
5, 122900, Note_off_c, 6, 65, 80
5, 122900, Note_off_c, 6, 60, 80
5, 122900, Note_off_c, 6, 53, 80
5, 123143, Note_on_c, 6, 65, 95
5, 123149, Note_on_c, 6, 60, 95
5, 123153, Note_on_c, 6, 53, 95
5, 123360, Note_off_c, 6, 65, 80
5, 123360, Note_off_c, 6, 60, 80
5, 123360, Note_off_c, 6, 53, 80
5, 123360, Note_on_c, 6, 65, 95
5, 123360, Note_on_c, 6, 60, 95
5, 123360, Note_on_c, 6, 53, 95
5, 123380, Note_off_c, 6, 65, 80
5, 123380, Note_off_c, 6, 60, 80
5, 123380, Note_off_c, 6, 53, 80
5, 123617, Note_on_c, 6, 53, 95
5, 123630, Note_on_c, 6, 60, 95
5, 123633, Note_on_c, 6, 65, 95
5, 123840, Note_off_c, 6, 65, 80
5, 123840, Note_off_c, 6, 60, 80
5, 123840, Note_off_c, 6, 53, 80
5, 123840, Note_on_c, 6, 65, 95
5, 123840, Note_on_c, 6, 60, 95
5, 123840, Note_on_c, 6, 53, 95
5, 123860, Note_off_c, 6, 65, 80
5, 123860, Note_off_c, 6, 60, 80
5, 123860, Note_off_c, 6, 53, 80
5, 124098, Note_on_c, 6, 53, 95
5, 124108, Note_on_c, 6, 60, 95
5, 124109, Note_on_c, 6, 65, 95
5, 124320, Note_off_c, 6, 65, 80
5, 124320, Note_off_c, 6, 60, 80
5, 124320, Note_off_c, 6, 53, 80
5, 124320, Note_on_c, 6, 65, 95
5, 124320, Note_on_c, 6, 60, 95
5, 124320, Note_on_c, 6, 53, 95
5, 124340, Note_off_c, 6, 65, 80
5, 124340, Note_off_c, 6, 60, 80
5, 124340, Note_off_c, 6, 53, 80
5, 124568, Note_on_c, 6, 60, 95
5, 124586, Note_on_c, 6, 53, 95
5, 124589, Note_on_c, 6, 65, 95
5, 124800, Note_off_c, 6, 65, 80
5, 124800, Note_off_c, 6, 60, 80
5, 124800, Note_off_c, 6, 53, 80
5, 124800, Note_on_c, 6, 62, 95
5, 124800, Note_on_c, 6, 57, 95
5, 124800, Note_on_c, 6, 50, 95
5, 124820, Note_off_c, 6, 62, 80
5, 124820, Note_off_c, 6, 57, 80
5, 124820, Note_off_c, 6, 50, 80
5, 125061, Note_on_c, 6, 50, 95
5, 125066, Note_on_c, 6, 62, 95
5, 125071, Note_on_c, 6, 57, 95
5, 125280, Note_off_c, 6, 62, 80
5, 125280, Note_off_c, 6, 57, 80
5, 125280, Note_off_c, 6, 50, 80
5, 125280, Note_on_c, 6, 62, 95
5, 125280, Note_on_c, 6, 57, 95
5, 125280, Note_on_c, 6, 50, 95
5, 125300, Note_off_c, 6, 62, 80
5, 125300, Note_off_c, 6, 57, 80
5, 125300, Note_off_c, 6, 50, 80
5, 125533, Note_on_c, 6, 57, 95
5, 125545, Note_on_c, 6, 62, 95
5, 125552, Note_on_c, 6, 50, 95
5, 125760, Note_off_c, 6, 62, 80
5, 125760, Note_off_c, 6, 57, 80
5, 125760, Note_off_c, 6, 50, 80
5, 125760, Note_on_c, 6, 62, 95
5, 125760, Note_on_c, 6, 57, 95
5, 125760, Note_on_c, 6, 50, 95
5, 125780, Note_off_c, 6, 62, 80
5, 125780, Note_off_c, 6, 57, 80
5, 125780, Note_off_c, 6, 50, 80
5, 126014, Note_on_c, 6, 62, 95
5, 126034, Note_on_c, 6, 50, 95
5, 126039, Note_on_c, 6, 57, 95
5, 126240, Note_off_c, 6, 62, 80
5, 126240, Note_off_c, 6, 57, 80
5, 126240, Note_off_c, 6, 50, 80
5, 126240, Note_on_c, 6, 62, 95
5, 126240, Note_on_c, 6, 57, 95
5, 126240, Note_on_c, 6, 50, 95
5, 126260, Note_off_c, 6, 62, 80
5, 126260, Note_off_c, 6, 57, 80
5, 126260, Note_off_c, 6, 50, 80
5, 126492, Note_on_c, 6, 50, 95
5, 126500, Note_on_c, 6, 62, 95
5, 126519, Note_on_c, 6, 57, 95
5, 126720, Note_off_c, 6, 62, 80
5, 126720, Note_off_c, 6, 57, 80
5, 126720, Note_off_c, 6, 50, 80
5, 126720, Note_on_c, 6, 62, 95
5, 126720, Note_on_c, 6, 57, 95
5, 126720, Note_on_c, 6, 50, 95
5, 126740, Note_off_c, 6, 62, 80
5, 126740, Note_off_c, 6, 57, 80
5, 126740, Note_off_c, 6, 50, 80
5, 126963, Note_on_c, 6, 57, 95
5, 126987, Note_on_c, 6, 50, 95
5, 127003, Note_on_c, 6, 62, 95
5, 127200, Note_off_c, 6, 62, 80
5, 127200, Note_off_c, 6, 57, 80
5, 127200, Note_off_c, 6, 50, 80
5, 127200, Note_on_c, 6, 62, 95
5, 127200, Note_on_c, 6, 57, 95
5, 127200, Note_on_c, 6, 50, 95
5, 127220, Note_off_c, 6, 62, 80
5, 127220, Note_off_c, 6, 57, 80
5, 127220, Note_off_c, 6, 50, 80
5, 127455, Note_on_c, 6, 50, 95
5, 127456, Note_on_c, 6, 57, 95
5, 127463, Note_on_c, 6, 62, 95
5, 127680, Note_off_c, 6, 62, 80
5, 127680, Note_off_c, 6, 57, 80
5, 127680, Note_off_c, 6, 50, 80
5, 127680, Note_on_c, 6, 62, 95
5, 127680, Note_on_c, 6, 57, 95
5, 127680, Note_on_c, 6, 50, 95
5, 127700, Note_off_c, 6, 62, 80
5, 127700, Note_off_c, 6, 57, 80
5, 127700, Note_off_c, 6, 50, 80
5, 127926, Note_on_c, 6, 62, 95
5, 127930, Note_on_c, 6, 57, 95
5, 127933, Note_on_c, 6, 50, 95
5, 128160, Note_off_c, 6, 62, 80
5, 128160, Note_off_c, 6, 57, 80
5, 128160, Note_off_c, 6, 50, 80
5, 128160, Note_on_c, 6, 62, 95
5, 128160, Note_on_c, 6, 57, 95
5, 128160, Note_on_c, 6, 50, 95
5, 128180, Note_off_c, 6, 62, 80
5, 128180, Note_off_c, 6, 57, 80
5, 128180, Note_off_c, 6, 50, 80
5, 128400, Note_on_c, 6, 62, 95
5, 128415, Note_on_c, 6, 57, 95
5, 128442, Note_on_c, 6, 50, 95
5, 128640, Note_off_c, 6, 62, 80
5, 128640, Note_off_c, 6, 57, 80
5, 128640, Note_off_c, 6, 50, 80
5, 128640, Note_on_c, 6, 65, 95
5, 128640, Note_on_c, 6, 60, 95
5, 128640, Note_on_c, 6, 53, 95
5, 128660, Note_off_c, 6, 65, 80
5, 128660, Note_off_c, 6, 60, 80
5, 128660, Note_off_c, 6, 53, 80
5, 128909, Note_on_c, 6, 60, 95
5, 128913, Note_on_c, 6, 53, 95
5, 128919, Note_on_c, 6, 65, 95
5, 129120, Note_off_c, 6, 65, 80
5, 129120, Note_off_c, 6, 60, 80
5, 129120, Note_off_c, 6, 53, 80
5, 129120, Note_on_c, 6, 65, 95
5, 129120, Note_on_c, 6, 60, 95
5, 129120, Note_on_c, 6, 53, 95
5, 129140, Note_off_c, 6, 65, 80
5, 129140, Note_off_c, 6, 60, 80
5, 129140, Note_off_c, 6, 53, 80
5, 129366, Note_on_c, 6, 65, 95
5, 129367, Note_on_c, 6, 53, 95
5, 129400, Note_on_c, 6, 60, 95
5, 129600, Note_off_c, 6, 65, 80
5, 129600, Note_off_c, 6, 60, 80
5, 129600, Note_off_c, 6, 53, 80
5, 129600, Note_on_c, 6, 65, 95
5, 129600, Note_on_c, 6, 60, 95
5, 129600, Note_on_c, 6, 53, 95
5, 129620, Note_off_c, 6, 65, 80
5, 129620, Note_off_c, 6, 60, 80
5, 129620, Note_off_c, 6, 53, 80
5, 129846, Note_on_c, 6, 53, 95
5, 129853, Note_on_c, 6, 65, 95
5, 129868, Note_on_c, 6, 60, 95
5, 130080, Note_off_c, 6, 65, 80
5, 130080, Note_off_c, 6, 60, 80
5, 130080, Note_off_c, 6, 53, 80
5, 130080, Note_on_c, 6, 65, 95
5, 130080, Note_on_c, 6, 60, 95
5, 130080, Note_on_c, 6, 53, 95
5, 130100, Note_off_c, 6, 65, 80
5, 130100, Note_off_c, 6, 60, 80
5, 130100, Note_off_c, 6, 53, 80
5, 130326, Note_on_c, 6, 53, 95
5, 130336, Note_on_c, 6, 65, 95
5, 130344, Note_on_c, 6, 60, 95
5, 130560, Note_off_c, 6, 65, 80
5, 130560, Note_off_c, 6, 60, 80
5, 130560, Note_off_c, 6, 53, 80
5, 130560, Note_on_c, 6, 65, 95
5, 130560, Note_on_c, 6, 60, 95
5, 130560, Note_on_c, 6, 53, 95
5, 130580, Note_off_c, 6, 65, 80
5, 130580, Note_off_c, 6, 60, 80
5, 130580, Note_off_c, 6, 53, 80
5, 130822, Note_on_c, 6, 60, 95
5, 130823, Note_on_c, 6, 53, 95
5, 130828, Note_on_c, 6, 65, 95
5, 131040, Note_off_c, 6, 65, 80
5, 131040, Note_off_c, 6, 60, 80
5, 131040, Note_off_c, 6, 53, 80
5, 131040, Note_on_c, 6, 65, 95
5, 131040, Note_on_c, 6, 60, 95
5, 131040, Note_on_c, 6, 53, 95
5, 131060, Note_off_c, 6, 65, 80
5, 131060, Note_off_c, 6, 60, 80
5, 131060, Note_off_c, 6, 53, 80
5, 131297, Note_on_c, 6, 65, 95
5, 131315, Note_on_c, 6, 53, 95
5, 131322, Note_on_c, 6, 60, 95
5, 131520, Note_off_c, 6, 65, 80
5, 131520, Note_off_c, 6, 60, 80
5, 131520, Note_off_c, 6, 53, 80
5, 131520, Note_on_c, 6, 65, 95
5, 131520, Note_on_c, 6, 60, 95
5, 131520, Note_on_c, 6, 53, 95
5, 131540, Note_off_c, 6, 65, 80
5, 131540, Note_off_c, 6, 60, 80
5, 131540, Note_off_c, 6, 53, 80
5, 131773, Note_on_c, 6, 53, 95
5, 131784, Note_on_c, 6, 60, 95
5, 131785, Note_on_c, 6, 65, 95
5, 132000, Note_off_c, 6, 65, 80
5, 132000, Note_off_c, 6, 60, 80
5, 132000, Note_off_c, 6, 53, 80
5, 132000, Note_on_c, 6, 65, 95
5, 132000, Note_on_c, 6, 60, 95
5, 132000, Note_on_c, 6, 53, 95
5, 132020, Note_off_c, 6, 65, 80
5, 132020, Note_off_c, 6, 60, 80
5, 132020, Note_off_c, 6, 53, 80
5, 132245, Note_on_c, 6, 60, 95
5, 132251, Note_on_c, 6, 65, 95
5, 132256, Note_on_c, 6, 53, 95
5, 132480, Note_off_c, 6, 65, 80
5, 132480, Note_off_c, 6, 60, 80
5, 132480, Note_off_c, 6, 53, 80
5, 132486, Note_on_c, 6, 62, 95
5, 132502, Note_on_c, 6, 57, 95
5, 132511, Note_on_c, 6, 50, 95
5, 132720, Note_off_c, 6, 62, 80
5, 132720, Note_off_c, 6, 57, 80
5, 132720, Note_off_c, 6, 50, 80
5, 132722, Note_on_c, 6, 57, 95
5, 132750, Note_on_c, 6, 62, 95
5, 132764, Note_on_c, 6, 50, 95
5, 132960, Note_off_c, 6, 62, 80
5, 132960, Note_off_c, 6, 57, 80
5, 132960, Note_off_c, 6, 50, 80
5, 132965, Note_on_c, 6, 62, 95
5, 132970, Note_on_c, 6, 50, 95
5, 132987, Note_on_c, 6, 57, 95
5, 133200, Note_off_c, 6, 62, 80
5, 133200, Note_off_c, 6, 57, 80
5, 133200, Note_off_c, 6, 50, 80
5, 133203, Note_on_c, 6, 62, 95
5, 133218, Note_on_c, 6, 50, 95
5, 133219, Note_on_c, 6, 57, 95
5, 133440, Note_off_c, 6, 62, 80
5, 133440, Note_off_c, 6, 57, 80
5, 133440, Note_off_c, 6, 50, 80
5, 133449, Note_on_c, 6, 50, 95
5, 133460, Note_on_c, 6, 57, 95
5, 133482, Note_on_c, 6, 62, 95
5, 133680, Note_off_c, 6, 62, 80
5, 133680, Note_off_c, 6, 57, 80
5, 133680, Note_off_c, 6, 50, 80
5, 133695, Note_on_c, 6, 62, 95
5, 133697, Note_on_c, 6, 50, 95
5, 133711, Note_on_c, 6, 57, 95
5, 133920, Note_off_c, 6, 62, 80
5, 133920, Note_off_c, 6, 57, 80
5, 133920, Note_off_c, 6, 50, 80
5, 133922, Note_on_c, 6, 62, 95
5, 133926, Note_on_c, 6, 57, 95
5, 133933, Note_on_c, 6, 50, 95
5, 134160, Note_off_c, 6, 62, 80
5, 134160, Note_off_c, 6, 57, 80
5, 134160, Note_off_c, 6, 50, 80
5, 134190, Note_on_c, 6, 57, 95
5, 134191, Note_on_c, 6, 50, 95
5, 134200, Note_on_c, 6, 62, 95
5, 134400, Note_off_c, 6, 62, 80
5, 134400, Note_off_c, 6, 57, 80
5, 134400, Note_off_c, 6, 50, 80
5, 134403, Note_on_c, 6, 62, 95
5, 134432, Note_on_c, 6, 50, 95
5, 134433, Note_on_c, 6, 57, 95
5, 134640, Note_off_c, 6, 62, 80
5, 134640, Note_off_c, 6, 57, 80
5, 134640, Note_off_c, 6, 50, 80
5, 134654, Note_on_c, 6, 62, 95
5, 134671, Note_on_c, 6, 57, 95
5, 134684, Note_on_c, 6, 50, 95
5, 134880, Note_off_c, 6, 62, 80
5, 134880, Note_off_c, 6, 57, 80
5, 134880, Note_off_c, 6, 50, 80
5, 134889, Note_on_c, 6, 50, 95
5, 134896, Note_on_c, 6, 62, 95
5, 134913, Note_on_c, 6, 57, 95
5, 135120, Note_off_c, 6, 62, 80
5, 135120, Note_off_c, 6, 57, 80
5, 135120, Note_off_c, 6, 50, 80
5, 135149, Note_on_c, 6, 50, 95
5, 135161, Note_on_c, 6, 57, 95
5, 135164, Note_on_c, 6, 62, 95
5, 135360, Note_off_c, 6, 62, 80
5, 135360, Note_off_c, 6, 57, 80
5, 135360, Note_off_c, 6, 50, 80
5, 135375, Note_on_c, 6, 50, 95
5, 135381, Note_on_c, 6, 62, 95
5, 135397, Note_on_c, 6, 57, 95
5, 135600, Note_off_c, 6, 62, 80
5, 135600, Note_off_c, 6, 57, 80
5, 135600, Note_off_c, 6, 50, 80
5, 135612, Note_on_c, 6, 57, 95
5, 135629, Note_on_c, 6, 50, 95
5, 135642, Note_on_c, 6, 62, 95
5, 135840, Note_off_c, 6, 62, 80
5, 135840, Note_off_c, 6, 57, 80
5, 135840, Note_off_c, 6, 50, 80
5, 135860, Note_on_c, 6, 62, 95
5, 135875, Note_on_c, 6, 50, 95
5, 135884, Note_on_c, 6, 57, 95
5, 136080, Note_off_c, 6, 62, 80
5, 136080, Note_off_c, 6, 57, 80
5, 136080, Note_off_c, 6, 50, 80
5, 136081, Note_on_c, 6, 50, 95
5, 136102, Note_on_c, 6, 62, 95
5, 136106, Note_on_c, 6, 57, 95
5, 136320, Note_off_c, 6, 62, 80
5, 136320, Note_off_c, 6, 57, 80
5, 136320, Note_off_c, 6, 50, 80
5, 159846, Note_on_c, 6, 43, 95
5, 159865, Note_on_c, 6, 50, 95
5, 159872, Note_on_c, 6, 55, 95
5, 160080, Note_off_c, 6, 55, 80
5, 160080, Note_off_c, 6, 50, 80
5, 160080, Note_off_c, 6, 43, 80
5, 161046, Note_on_c, 6, 65, 95
5, 161057, Note_on_c, 6, 60, 95
5, 161061, Note_on_c, 6, 53, 95
5, 161280, Note_off_c, 6, 65, 80
5, 161280, Note_off_c, 6, 60, 80
5, 161280, Note_off_c, 6, 53, 80
5, 161781, Note_on_c, 6, 59, 95
5, 161794, Note_on_c, 6, 52, 95
5, 161803, Note_on_c, 6, 64, 95
5, 162000, Note_off_c, 6, 64, 80
5, 162000, Note_off_c, 6, 59, 80
5, 162000, Note_off_c, 6, 52, 80
5, 162961, Note_on_c, 6, 59, 95
5, 162963, Note_on_c, 6, 52, 95
5, 162972, Note_on_c, 6, 64, 95
5, 163200, Note_off_c, 6, 64, 80
5, 163200, Note_off_c, 6, 59, 80
5, 163200, Note_off_c, 6, 52, 80
5, 163687, Note_on_c, 6, 50, 95
5, 163707, Note_on_c, 6, 55, 95
5, 163713, Note_on_c, 6, 43, 95
5, 163920, Note_off_c, 6, 55, 80
5, 163920, Note_off_c, 6, 50, 80
5, 163920, Note_off_c, 6, 43, 80
5, 164895, Note_on_c, 6, 60, 95
5, 164914, Note_on_c, 6, 65, 95
5, 164916, Note_on_c, 6, 53, 95
5, 165120, Note_off_c, 6, 65, 80
5, 165120, Note_off_c, 6, 60, 80
5, 165120, Note_off_c, 6, 53, 80
5, 165605, Note_on_c, 6, 52, 95
5, 165615, Note_on_c, 6, 64, 95
5, 165635, Note_on_c, 6, 59, 95
5, 165840, Note_off_c, 6, 64, 80
5, 165840, Note_off_c, 6, 59, 80
5, 165840, Note_off_c, 6, 52, 80
5, 166815, Note_on_c, 6, 64, 95
5, 166817, Note_on_c, 6, 52, 95
5, 166827, Note_on_c, 6, 59, 95
5, 167040, Note_off_c, 6, 64, 80
5, 167040, Note_off_c, 6, 59, 80
5, 167040, Note_off_c, 6, 52, 80
5, 167526, Note_on_c, 6, 55, 95
5, 167535, Note_on_c, 6, 50, 95
5, 167554, Note_on_c, 6, 43, 95
5, 167760, Note_off_c, 6, 55, 80
5, 167760, Note_off_c, 6, 50, 80
5, 167760, Note_off_c, 6, 43, 80
5, 168720, Note_on_c, 6, 65, 95
5, 168740, Note_on_c, 6, 53, 95
5, 168750, Note_on_c, 6, 60, 95
5, 168960, Note_off_c, 6, 65, 80
5, 168960, Note_off_c, 6, 60, 80
5, 168960, Note_off_c, 6, 53, 80
5, 169466, Note_on_c, 6, 59, 95
5, 169477, Note_on_c, 6, 52, 95
5, 169484, Note_on_c, 6, 64, 95
5, 169680, Note_off_c, 6, 64, 80
5, 169680, Note_off_c, 6, 59, 80
5, 169680, Note_off_c, 6, 52, 80
5, 170641, Note_on_c, 6, 59, 95
5, 170645, Note_on_c, 6, 52, 95
5, 170672, Note_on_c, 6, 64, 95
5, 170880, Note_off_c, 6, 64, 80
5, 170880, Note_off_c, 6, 59, 80
5, 170880, Note_off_c, 6, 52, 80
5, 171362, Note_on_c, 6, 55, 95
5, 171366, Note_on_c, 6, 50, 95
5, 171375, Note_on_c, 6, 43, 95
5, 171600, Note_off_c, 6, 55, 80
5, 171600, Note_off_c, 6, 50, 80
5, 171600, Note_off_c, 6, 43, 80
5, 172565, Note_on_c, 6, 65, 95
5, 172575, Note_on_c, 6, 60, 95
5, 172584, Note_on_c, 6, 53, 95
5, 172800, Note_off_c, 6, 65, 80
5, 172800, Note_off_c, 6, 60, 80
5, 172800, Note_off_c, 6, 53, 80
5, 173283, Note_on_c, 6, 52, 95
5, 173284, Note_on_c, 6, 64, 95
5, 173310, Note_on_c, 6, 59, 95
5, 173400, Note_off_c, 6, 64, 80
5, 173520, Note_off_c, 6, 59, 80
5, 173520, Note_off_c, 6, 52, 80
5, 174514, Note_on_c, 6, 60, 95
5, 174518, Note_on_c, 6, 55, 95
5, 174524, Note_on_c, 6, 48, 95
5, 174720, Note_off_c, 6, 60, 80
5, 174720, Note_off_c, 6, 55, 80
5, 174720, Note_off_c, 6, 48, 80
5, 174733, Note_on_c, 6, 45, 95
5, 174747, Note_on_c, 6, 52, 95
5, 174754, Note_on_c, 6, 57, 95
5, 174960, Note_off_c, 6, 57, 80
5, 174960, Note_off_c, 6, 52, 80
5, 174960, Note_off_c, 6, 45, 80
5, 174960, Note_on_c, 6, 57, 95
5, 174960, Note_on_c, 6, 52, 95
5, 174960, Note_on_c, 6, 45, 95
5, 174980, Note_off_c, 6, 57, 80
5, 174980, Note_off_c, 6, 52, 80
5, 174980, Note_off_c, 6, 45, 80
5, 175080, Note_on_c, 6, 57, 95
5, 175080, Note_on_c, 6, 52, 95
5, 175080, Note_on_c, 6, 45, 95
5, 175199, Note_off_c, 6, 57, 80
5, 175199, Note_off_c, 6, 52, 80
5, 175199, Note_off_c, 6, 45, 80
5, 175235, Note_on_c, 6, 50, 95
5, 175235, Note_on_c, 6, 43, 95
5, 175244, Note_on_c, 6, 55, 95
5, 175440, Note_off_c, 6, 55, 80
5, 175440, Note_off_c, 6, 50, 80
5, 175440, Note_off_c, 6, 43, 80
5, 175440, Note_on_c, 6, 55, 95
5, 175440, Note_on_c, 6, 50, 95
5, 175440, Note_on_c, 6, 43, 95
5, 175460, Note_off_c, 6, 55, 80
5, 175460, Note_off_c, 6, 50, 80
5, 175460, Note_off_c, 6, 43, 80
5, 175560, Note_on_c, 6, 55, 95
5, 175560, Note_on_c, 6, 50, 95
5, 175560, Note_on_c, 6, 43, 95
5, 175679, Note_off_c, 6, 55, 80
5, 175679, Note_off_c, 6, 50, 80
5, 175679, Note_off_c, 6, 43, 80
5, 175688, Note_on_c, 6, 48, 95
5, 175714, Note_on_c, 6, 55, 95
5, 175724, Note_on_c, 6, 60, 95
5, 175920, Note_off_c, 6, 60, 80
5, 175920, Note_off_c, 6, 55, 80
5, 175920, Note_off_c, 6, 48, 80
5, 175920, Note_on_c, 6, 60, 95
5, 175920, Note_on_c, 6, 55, 95
5, 175920, Note_on_c, 6, 48, 95
5, 175940, Note_off_c, 6, 60, 80
5, 175940, Note_off_c, 6, 55, 80
5, 175940, Note_off_c, 6, 48, 80
5, 176040, Note_on_c, 6, 65, 95
5, 176040, Note_on_c, 6, 60, 95
5, 176040, Note_on_c, 6, 53, 95
5, 176159, Note_off_c, 6, 65, 80
5, 176159, Note_off_c, 6, 60, 80
5, 176159, Note_off_c, 6, 53, 80
5, 176169, Note_on_c, 6, 65, 95
5, 176187, Note_on_c, 6, 53, 95
5, 176197, Note_on_c, 6, 60, 95
5, 176400, Note_off_c, 6, 65, 80
5, 176400, Note_off_c, 6, 60, 80
5, 176400, Note_off_c, 6, 53, 80
5, 176400, Note_on_c, 6, 65, 95
5, 176400, Note_on_c, 6, 60, 95
5, 176400, Note_on_c, 6, 53, 95
5, 176420, Note_off_c, 6, 65, 80
5, 176420, Note_off_c, 6, 60, 80
5, 176420, Note_off_c, 6, 53, 80
5, 176520, Note_on_c, 6, 60, 95
5, 176520, Note_on_c, 6, 53, 95
5, 176639, Note_off_c, 6, 60, 80
5, 176639, Note_off_c, 6, 53, 80
5, 176649, Note_on_c, 6, 52, 95
5, 176675, Note_on_c, 6, 57, 95
5, 176681, Note_on_c, 6, 45, 95
5, 176880, Note_off_c, 6, 57, 80
5, 176880, Note_off_c, 6, 52, 80
5, 176880, Note_off_c, 6, 45, 80
5, 176880, Note_on_c, 6, 57, 95
5, 176880, Note_on_c, 6, 52, 95
5, 176880, Note_on_c, 6, 45, 95
5, 176900, Note_off_c, 6, 57, 80
5, 176900, Note_off_c, 6, 52, 80
5, 176900, Note_off_c, 6, 45, 80
5, 177000, Note_on_c, 6, 57, 95
5, 177000, Note_on_c, 6, 52, 95
5, 177119, Note_off_c, 6, 57, 80
5, 177119, Note_off_c, 6, 52, 80
5, 177127, Note_on_c, 6, 59, 95
5, 177128, Note_on_c, 6, 52, 95
5, 177152, Note_on_c, 6, 64, 95
5, 177360, Note_off_c, 6, 64, 80
5, 177360, Note_off_c, 6, 59, 80
5, 177360, Note_off_c, 6, 52, 80
5, 177360, Note_on_c, 6, 64, 95
5, 177360, Note_on_c, 6, 59, 95
5, 177360, Note_on_c, 6, 52, 95
5, 177380, Note_off_c, 6, 64, 80
5, 177380, Note_off_c, 6, 59, 80
5, 177380, Note_off_c, 6, 52, 80
5, 177480, Note_on_c, 6, 59, 95
5, 177480, Note_on_c, 6, 52, 95
5, 177599, Note_off_c, 6, 59, 80
5, 177599, Note_off_c, 6, 52, 80
5, 177615, Note_on_c, 6, 54, 95
5, 177620, Note_on_c, 6, 59, 95
5, 177638, Note_on_c, 6, 47, 95
5, 177840, Note_off_c, 6, 59, 80
5, 177840, Note_off_c, 6, 54, 80
5, 177840, Note_off_c, 6, 47, 80
5, 177840, Note_on_c, 6, 59, 95
5, 177840, Note_on_c, 6, 54, 95
5, 177840, Note_on_c, 6, 47, 95
5, 177860, Note_off_c, 6, 59, 80
5, 177860, Note_off_c, 6, 54, 80
5, 177860, Note_off_c, 6, 47, 80
5, 177960, Note_on_c, 6, 59, 95
5, 177960, Note_on_c, 6, 54, 95
5, 178079, Note_off_c, 6, 59, 80
5, 178079, Note_off_c, 6, 54, 80
5, 178080, Note_on_c, 6, 52, 95
5, 178097, Note_on_c, 6, 64, 95
5, 178116, Note_on_c, 6, 59, 95
5, 178320, Note_off_c, 6, 64, 80
5, 178320, Note_off_c, 6, 59, 80
5, 178320, Note_off_c, 6, 52, 80
5, 178320, Note_on_c, 6, 64, 95
5, 178320, Note_on_c, 6, 59, 95
5, 178320, Note_on_c, 6, 52, 95
5, 178340, Note_off_c, 6, 64, 80
5, 178340, Note_off_c, 6, 59, 80
5, 178340, Note_off_c, 6, 52, 80
5, 178440, Note_on_c, 6, 59, 95
5, 178440, Note_on_c, 6, 52, 95
5, 178559, Note_off_c, 6, 59, 80
5, 178559, Note_off_c, 6, 52, 80
5, 178563, Note_on_c, 6, 57, 95
5, 178580, Note_on_c, 6, 52, 95
5, 178594, Note_on_c, 6, 45, 95
5, 178800, Note_off_c, 6, 57, 80
5, 178800, Note_off_c, 6, 52, 80
5, 178800, Note_off_c, 6, 45, 80
5, 178800, Note_on_c, 6, 57, 95
5, 178800, Note_on_c, 6, 52, 95
5, 178800, Note_on_c, 6, 45, 95
5, 178820, Note_off_c, 6, 57, 80
5, 178820, Note_off_c, 6, 52, 80
5, 178820, Note_off_c, 6, 45, 80
5, 178920, Note_on_c, 6, 57, 95
5, 178920, Note_on_c, 6, 52, 95
5, 178920, Note_on_c, 6, 45, 95
5, 179039, Note_off_c, 6, 57, 80
5, 179039, Note_off_c, 6, 52, 80
5, 179039, Note_off_c, 6, 45, 80
5, 179067, Note_on_c, 6, 55, 95
5, 179074, Note_on_c, 6, 43, 95
5, 179075, Note_on_c, 6, 50, 95
5, 179280, Note_off_c, 6, 55, 80
5, 179280, Note_off_c, 6, 50, 80
5, 179280, Note_off_c, 6, 43, 80
5, 179280, Note_on_c, 6, 55, 95
5, 179280, Note_on_c, 6, 50, 95
5, 179280, Note_on_c, 6, 43, 95
5, 179300, Note_off_c, 6, 55, 80
5, 179300, Note_off_c, 6, 50, 80
5, 179300, Note_off_c, 6, 43, 80
5, 179400, Note_on_c, 6, 55, 95
5, 179400, Note_on_c, 6, 50, 95
5, 179400, Note_on_c, 6, 43, 95
5, 179519, Note_off_c, 6, 55, 80
5, 179519, Note_off_c, 6, 50, 80
5, 179519, Note_off_c, 6, 43, 80
5, 179547, Note_on_c, 6, 48, 95
5, 179557, Note_on_c, 6, 55, 95
5, 179561, Note_on_c, 6, 60, 95
5, 179760, Note_off_c, 6, 60, 80
5, 179760, Note_off_c, 6, 55, 80
5, 179760, Note_off_c, 6, 48, 80
5, 179760, Note_on_c, 6, 60, 95
5, 179760, Note_on_c, 6, 55, 95
5, 179760, Note_on_c, 6, 48, 95
5, 179780, Note_off_c, 6, 60, 80
5, 179780, Note_off_c, 6, 55, 80
5, 179780, Note_off_c, 6, 48, 80
5, 179880, Note_on_c, 6, 65, 95
5, 179880, Note_on_c, 6, 60, 95
5, 179880, Note_on_c, 6, 53, 95
5, 179999, Note_off_c, 6, 65, 80
5, 179999, Note_off_c, 6, 60, 80
5, 179999, Note_off_c, 6, 53, 80
5, 180017, Note_on_c, 6, 65, 95
5, 180030, Note_on_c, 6, 53, 95
5, 180039, Note_on_c, 6, 60, 95
5, 180240, Note_off_c, 6, 65, 80
5, 180240, Note_off_c, 6, 60, 80
5, 180240, Note_off_c, 6, 53, 80
5, 180240, Note_on_c, 6, 65, 95
5, 180240, Note_on_c, 6, 60, 95
5, 180240, Note_on_c, 6, 53, 95
5, 180260, Note_off_c, 6, 65, 80
5, 180260, Note_off_c, 6, 60, 80
5, 180260, Note_off_c, 6, 53, 80
5, 180360, Note_on_c, 6, 60, 95
5, 180360, Note_on_c, 6, 53, 95
5, 180479, Note_off_c, 6, 60, 80
5, 180479, Note_off_c, 6, 53, 80
5, 180512, Note_on_c, 6, 57, 95
5, 180514, Note_on_c, 6, 45, 95
5, 180515, Note_on_c, 6, 52, 95
5, 180720, Note_off_c, 6, 57, 80
5, 180720, Note_off_c, 6, 52, 80
5, 180720, Note_off_c, 6, 45, 80
5, 180720, Note_on_c, 6, 57, 95
5, 180720, Note_on_c, 6, 52, 95
5, 180720, Note_on_c, 6, 45, 95
5, 180740, Note_off_c, 6, 57, 80
5, 180740, Note_off_c, 6, 52, 80
5, 180740, Note_off_c, 6, 45, 80
5, 180840, Note_on_c, 6, 57, 95
5, 180840, Note_on_c, 6, 52, 95
5, 180959, Note_off_c, 6, 57, 80
5, 180959, Note_off_c, 6, 52, 80
5, 180983, Note_on_c, 6, 52, 95
5, 180991, Note_on_c, 6, 59, 95
5, 181001, Note_on_c, 6, 64, 95
5, 181200, Note_off_c, 6, 64, 80
5, 181200, Note_off_c, 6, 59, 80
5, 181200, Note_off_c, 6, 52, 80
5, 181200, Note_on_c, 6, 64, 95
5, 181200, Note_on_c, 6, 59, 95
5, 181200, Note_on_c, 6, 52, 95
5, 181220, Note_off_c, 6, 64, 80
5, 181220, Note_off_c, 6, 59, 80
5, 181220, Note_off_c, 6, 52, 80
5, 181320, Note_on_c, 6, 59, 95
5, 181320, Note_on_c, 6, 52, 95
5, 181439, Note_off_c, 6, 59, 80
5, 181439, Note_off_c, 6, 52, 80
5, 181443, Note_on_c, 6, 54, 95
5, 181451, Note_on_c, 6, 59, 95
5, 181456, Note_on_c, 6, 47, 95
5, 181680, Note_off_c, 6, 59, 80
5, 181680, Note_off_c, 6, 54, 80
5, 181680, Note_off_c, 6, 47, 80
5, 181680, Note_on_c, 6, 59, 95
5, 181680, Note_on_c, 6, 54, 95
5, 181680, Note_on_c, 6, 47, 95
5, 181700, Note_off_c, 6, 59, 80
5, 181700, Note_off_c, 6, 54, 80
5, 181700, Note_off_c, 6, 47, 80
5, 181800, Note_on_c, 6, 59, 95
5, 181800, Note_on_c, 6, 54, 95
5, 181919, Note_off_c, 6, 59, 80
5, 181919, Note_off_c, 6, 54, 80
5, 181943, Note_on_c, 6, 52, 95
5, 181955, Note_on_c, 6, 59, 95
5, 181960, Note_on_c, 6, 64, 95
5, 182160, Note_off_c, 6, 64, 80
5, 182160, Note_off_c, 6, 59, 80
5, 182160, Note_off_c, 6, 52, 80
5, 182160, Note_on_c, 6, 64, 95
5, 182160, Note_on_c, 6, 59, 95
5, 182160, Note_on_c, 6, 52, 95
5, 182180, Note_off_c, 6, 64, 80
5, 182180, Note_off_c, 6, 59, 80
5, 182180, Note_off_c, 6, 52, 80
5, 182280, Note_on_c, 6, 59, 95
5, 182280, Note_on_c, 6, 54, 95
5, 182280, Note_on_c, 6, 47, 95
5, 182399, Note_off_c, 6, 59, 80
5, 182399, Note_off_c, 6, 54, 80
5, 182399, Note_off_c, 6, 47, 80
5, 182422, Note_on_c, 6, 45, 95
5, 182437, Note_on_c, 6, 52, 95
5, 182442, Note_on_c, 6, 57, 95
5, 182640, Note_off_c, 6, 57, 80
5, 182640, Note_off_c, 6, 52, 80
5, 182640, Note_off_c, 6, 45, 80
5, 182640, Note_on_c, 6, 57, 95
5, 182640, Note_on_c, 6, 52, 95
5, 182640, Note_on_c, 6, 45, 95
5, 182660, Note_off_c, 6, 57, 80
5, 182660, Note_off_c, 6, 52, 80
5, 182660, Note_off_c, 6, 45, 80
5, 182760, Note_on_c, 6, 57, 95
5, 182760, Note_on_c, 6, 52, 95
5, 182760, Note_on_c, 6, 45, 95
5, 182879, Note_off_c, 6, 57, 80
5, 182879, Note_off_c, 6, 52, 80
5, 182879, Note_off_c, 6, 45, 80
5, 182892, Note_on_c, 6, 50, 95
5, 182895, Note_on_c, 6, 43, 95
5, 182902, Note_on_c, 6, 55, 95
5, 183120, Note_off_c, 6, 55, 80
5, 183120, Note_off_c, 6, 50, 80
5, 183120, Note_off_c, 6, 43, 80
5, 183120, Note_on_c, 6, 55, 95
5, 183120, Note_on_c, 6, 50, 95
5, 183120, Note_on_c, 6, 43, 95
5, 183140, Note_off_c, 6, 55, 80
5, 183140, Note_off_c, 6, 50, 80
5, 183140, Note_off_c, 6, 43, 80
5, 183240, Note_on_c, 6, 55, 95
5, 183240, Note_on_c, 6, 50, 95
5, 183240, Note_on_c, 6, 43, 95
5, 183359, Note_off_c, 6, 55, 80
5, 183359, Note_off_c, 6, 50, 80
5, 183359, Note_off_c, 6, 43, 80
5, 183361, Note_on_c, 6, 48, 95
5, 183369, Note_on_c, 6, 55, 95
5, 183391, Note_on_c, 6, 60, 95
5, 183600, Note_off_c, 6, 60, 80
5, 183600, Note_off_c, 6, 55, 80
5, 183600, Note_off_c, 6, 48, 80
5, 183600, Note_on_c, 6, 60, 95
5, 183600, Note_on_c, 6, 55, 95
5, 183600, Note_on_c, 6, 48, 95
5, 183620, Note_off_c, 6, 60, 80
5, 183620, Note_off_c, 6, 55, 80
5, 183620, Note_off_c, 6, 48, 80
5, 183720, Note_on_c, 6, 65, 95
5, 183720, Note_on_c, 6, 60, 95
5, 183720, Note_on_c, 6, 53, 95
5, 183839, Note_off_c, 6, 65, 80
5, 183839, Note_off_c, 6, 60, 80
5, 183839, Note_off_c, 6, 53, 80
5, 183846, Note_on_c, 6, 65, 95
5, 183864, Note_on_c, 6, 53, 95
5, 183883, Note_on_c, 6, 60, 95
5, 184080, Note_off_c, 6, 65, 80
5, 184080, Note_off_c, 6, 60, 80
5, 184080, Note_off_c, 6, 53, 80
5, 184080, Note_on_c, 6, 65, 95
5, 184080, Note_on_c, 6, 60, 95
5, 184080, Note_on_c, 6, 53, 95
5, 184100, Note_off_c, 6, 65, 80
5, 184100, Note_off_c, 6, 60, 80
5, 184100, Note_off_c, 6, 53, 80
5, 184200, Note_on_c, 6, 60, 95
5, 184200, Note_on_c, 6, 53, 95
5, 184319, Note_off_c, 6, 60, 80
5, 184319, Note_off_c, 6, 53, 80
5, 184343, Note_on_c, 6, 57, 95
5, 184353, Note_on_c, 6, 52, 95
5, 184361, Note_on_c, 6, 45, 95
5, 184560, Note_off_c, 6, 57, 80
5, 184560, Note_off_c, 6, 52, 80
5, 184560, Note_off_c, 6, 45, 80
5, 184560, Note_on_c, 6, 57, 95
5, 184560, Note_on_c, 6, 52, 95
5, 184560, Note_on_c, 6, 45, 95
5, 184580, Note_off_c, 6, 57, 80
5, 184580, Note_off_c, 6, 52, 80
5, 184580, Note_off_c, 6, 45, 80
5, 184680, Note_on_c, 6, 57, 95
5, 184680, Note_on_c, 6, 52, 95
5, 184799, Note_off_c, 6, 57, 80
5, 184799, Note_off_c, 6, 52, 80
5, 184812, Note_on_c, 6, 52, 95
5, 184824, Note_on_c, 6, 59, 95
5, 184832, Note_on_c, 6, 64, 95
5, 185040, Note_off_c, 6, 64, 80
5, 185040, Note_off_c, 6, 59, 80
5, 185040, Note_off_c, 6, 52, 80
5, 185040, Note_on_c, 6, 64, 95
5, 185040, Note_on_c, 6, 59, 95
5, 185040, Note_on_c, 6, 52, 95
5, 185060, Note_off_c, 6, 64, 80
5, 185060, Note_off_c, 6, 59, 80
5, 185060, Note_off_c, 6, 52, 80
5, 185160, Note_on_c, 6, 59, 95
5, 185160, Note_on_c, 6, 52, 95
5, 185279, Note_off_c, 6, 59, 80
5, 185279, Note_off_c, 6, 52, 80
5, 185300, Note_on_c, 6, 60, 95
5, 185312, Note_on_c, 6, 55, 95
5, 185318, Note_on_c, 6, 48, 95
5, 185520, Note_off_c, 6, 60, 80
5, 185520, Note_off_c, 6, 55, 80
5, 185520, Note_off_c, 6, 48, 80
5, 185642, Note_on_c, 6, 50, 95
5, 185645, Note_on_c, 6, 62, 95
5, 185666, Note_on_c, 6, 57, 95
5, 185880, Note_off_c, 6, 62, 80
5, 185880, Note_off_c, 6, 57, 80
5, 185880, Note_off_c, 6, 50, 80
5, 186023, Note_on_c, 6, 59, 95
5, 186030, Note_on_c, 6, 52, 95
5, 186032, Note_on_c, 6, 64, 95
5, 186120, Note_off_c, 6, 64, 80
5, 186120, Note_off_c, 6, 59, 80
5, 186120, Note_off_c, 6, 52, 80
5, 186120, Note_on_c, 6, 59, 95
5, 186120, Note_on_c, 6, 52, 95
5, 186239, Note_off_c, 6, 59, 80
5, 186239, Note_off_c, 6, 52, 80
5, 186243, Note_on_c, 6, 52, 95
5, 186256, Note_on_c, 6, 57, 95
5, 186273, Note_on_c, 6, 45, 95
5, 186480, Note_off_c, 6, 57, 80
5, 186480, Note_off_c, 6, 52, 80
5, 186480, Note_off_c, 6, 45, 80
5, 186480, Note_on_c, 6, 57, 95
5, 186480, Note_on_c, 6, 52, 95
5, 186480, Note_on_c, 6, 45, 95
5, 186500, Note_off_c, 6, 57, 80
5, 186500, Note_off_c, 6, 52, 80
5, 186500, Note_off_c, 6, 45, 80
5, 186600, Note_on_c, 6, 57, 95
5, 186600, Note_on_c, 6, 52, 95
5, 186600, Note_on_c, 6, 45, 95
5, 186719, Note_off_c, 6, 57, 80
5, 186719, Note_off_c, 6, 52, 80
5, 186719, Note_off_c, 6, 45, 80
5, 186721, Note_on_c, 6, 55, 95
5, 186734, Note_on_c, 6, 43, 95
5, 186749, Note_on_c, 6, 50, 95
5, 186960, Note_off_c, 6, 55, 80
5, 186960, Note_off_c, 6, 50, 80
5, 186960, Note_off_c, 6, 43, 80
5, 186960, Note_on_c, 6, 55, 95
5, 186960, Note_on_c, 6, 50, 95
5, 186960, Note_on_c, 6, 43, 95
5, 186980, Note_off_c, 6, 55, 80
5, 186980, Note_off_c, 6, 50, 80
5, 186980, Note_off_c, 6, 43, 80
5, 187080, Note_on_c, 6, 55, 95
5, 187080, Note_on_c, 6, 50, 95
5, 187080, Note_on_c, 6, 43, 95
5, 187199, Note_off_c, 6, 55, 80
5, 187199, Note_off_c, 6, 50, 80
5, 187199, Note_off_c, 6, 43, 80
5, 187203, Note_on_c, 6, 48, 95
5, 187230, Note_on_c, 6, 60, 95
5, 187232, Note_on_c, 6, 55, 95
5, 187440, Note_off_c, 6, 60, 80
5, 187440, Note_off_c, 6, 55, 80
5, 187440, Note_off_c, 6, 48, 80
5, 187440, Note_on_c, 6, 60, 95
5, 187440, Note_on_c, 6, 55, 95
5, 187440, Note_on_c, 6, 48, 95
5, 187460, Note_off_c, 6, 60, 80
5, 187460, Note_off_c, 6, 55, 80
5, 187460, Note_off_c, 6, 48, 80
5, 187560, Note_on_c, 6, 65, 95
5, 187560, Note_on_c, 6, 60, 95
5, 187560, Note_on_c, 6, 53, 95
5, 187679, Note_off_c, 6, 65, 80
5, 187679, Note_off_c, 6, 60, 80
5, 187679, Note_off_c, 6, 53, 80
5, 187691, Note_on_c, 6, 53, 95
5, 187703, Note_on_c, 6, 65, 95
5, 187707, Note_on_c, 6, 60, 95
5, 187920, Note_off_c, 6, 65, 80
5, 187920, Note_off_c, 6, 60, 80
5, 187920, Note_off_c, 6, 53, 80
5, 187920, Note_on_c, 6, 65, 95
5, 187920, Note_on_c, 6, 60, 95
5, 187920, Note_on_c, 6, 53, 95
5, 187940, Note_off_c, 6, 65, 80
5, 187940, Note_off_c, 6, 60, 80
5, 187940, Note_off_c, 6, 53, 80
5, 188040, Note_on_c, 6, 60, 95
5, 188040, Note_on_c, 6, 53, 95
5, 188159, Note_off_c, 6, 60, 80
5, 188159, Note_off_c, 6, 53, 80
5, 188182, Note_on_c, 6, 57, 95
5, 188196, Note_on_c, 6, 45, 95
5, 188201, Note_on_c, 6, 52, 95
5, 188400, Note_off_c, 6, 57, 80
5, 188400, Note_off_c, 6, 52, 80
5, 188400, Note_off_c, 6, 45, 80
5, 188400, Note_on_c, 6, 57, 95
5, 188400, Note_on_c, 6, 52, 95
5, 188400, Note_on_c, 6, 45, 95
5, 188420, Note_off_c, 6, 57, 80
5, 188420, Note_off_c, 6, 52, 80
5, 188420, Note_off_c, 6, 45, 80
5, 188520, Note_on_c, 6, 57, 95
5, 188520, Note_on_c, 6, 52, 95
5, 188639, Note_off_c, 6, 57, 80
5, 188639, Note_off_c, 6, 52, 80
5, 188659, Note_on_c, 6, 59, 95
5, 188663, Note_on_c, 6, 52, 95
5, 188679, Note_on_c, 6, 64, 95
5, 188880, Note_off_c, 6, 64, 80
5, 188880, Note_off_c, 6, 59, 80
5, 188880, Note_off_c, 6, 52, 80
5, 188880, Note_on_c, 6, 64, 95
5, 188880, Note_on_c, 6, 59, 95
5, 188880, Note_on_c, 6, 52, 95
5, 188900, Note_off_c, 6, 64, 80
5, 188900, Note_off_c, 6, 59, 80
5, 188900, Note_off_c, 6, 52, 80
5, 189000, Note_on_c, 6, 59, 95
5, 189000, Note_on_c, 6, 52, 95
5, 189119, Note_off_c, 6, 59, 80
5, 189119, Note_off_c, 6, 52, 80
5, 189121, Note_on_c, 6, 50, 95
5, 189134, Note_on_c, 6, 62, 95
5, 189140, Note_on_c, 6, 57, 95
5, 189360, Note_off_c, 6, 62, 80
5, 189360, Note_off_c, 6, 57, 80
5, 189360, Note_off_c, 6, 50, 80
5, 189360, Note_on_c, 6, 62, 95
5, 189360, Note_on_c, 6, 57, 95
5, 189360, Note_on_c, 6, 50, 95
5, 189380, Note_off_c, 6, 62, 80
5, 189380, Note_off_c, 6, 57, 80
5, 189380, Note_off_c, 6, 50, 80
5, 189480, Note_on_c, 6, 57, 95
5, 189480, Note_on_c, 6, 50, 95
5, 189599, Note_off_c, 6, 57, 80
5, 189599, Note_off_c, 6, 50, 80
5, 189612, Note_on_c, 6, 55, 95
5, 189612, Note_on_c, 6, 48, 95
5, 189621, Note_on_c, 6, 60, 95
5, 189840, Note_off_c, 6, 60, 80
5, 189840, Note_off_c, 6, 55, 80
5, 189840, Note_off_c, 6, 48, 80
5, 189840, Note_on_c, 6, 60, 95
5, 189840, Note_on_c, 6, 55, 95
5, 189840, Note_on_c, 6, 48, 95
5, 189860, Note_off_c, 6, 60, 80
5, 189860, Note_off_c, 6, 55, 80
5, 189860, Note_off_c, 6, 48, 80
5, 193931, Note_on_c, 6, 53, 95
5, 193941, Note_on_c, 6, 65, 95
5, 193944, Note_on_c, 6, 60, 95
5, 194160, Note_off_c, 6, 65, 80
5, 194160, Note_off_c, 6, 60, 80
5, 194160, Note_off_c, 6, 53, 80
5, 194162, Note_on_c, 6, 60, 95
5, 194185, Note_on_c, 6, 53, 95
5, 194189, Note_on_c, 6, 65, 95
5, 194400, Note_off_c, 6, 65, 80
5, 194400, Note_off_c, 6, 60, 80
5, 194400, Note_off_c, 6, 53, 80
5, 194419, Note_on_c, 6, 60, 95
5, 194421, Note_on_c, 6, 65, 95
5, 194423, Note_on_c, 6, 53, 95
5, 194640, Note_off_c, 6, 65, 80
5, 194640, Note_off_c, 6, 60, 80
5, 194640, Note_off_c, 6, 53, 80
5, 194656, Note_on_c, 6, 60, 95
5, 194657, Note_on_c, 6, 53, 95
5, 194667, Note_on_c, 6, 65, 95
5, 194880, Note_off_c, 6, 65, 80
5, 194880, Note_off_c, 6, 60, 80
5, 194880, Note_off_c, 6, 53, 80
5, 194892, Note_on_c, 6, 53, 95
5, 194900, Note_on_c, 6, 60, 95
5, 194908, Note_on_c, 6, 65, 95
5, 195120, Note_off_c, 6, 65, 80
5, 195120, Note_off_c, 6, 60, 80
5, 195120, Note_off_c, 6, 53, 80
5, 195126, Note_on_c, 6, 53, 95
5, 195128, Note_on_c, 6, 60, 95
5, 195149, Note_on_c, 6, 65, 95
5, 195360, Note_off_c, 6, 65, 80
5, 195360, Note_off_c, 6, 60, 80
5, 195360, Note_off_c, 6, 53, 80
5, 195377, Note_on_c, 6, 60, 95
5, 195380, Note_on_c, 6, 53, 95
5, 195392, Note_on_c, 6, 65, 95
5, 195600, Note_off_c, 6, 65, 80
5, 195600, Note_off_c, 6, 60, 80
5, 195600, Note_off_c, 6, 53, 80
5, 195606, Note_on_c, 6, 53, 95
5, 195616, Note_on_c, 6, 65, 95
5, 195638, Note_on_c, 6, 60, 95
5, 195840, Note_off_c, 6, 65, 80
5, 195840, Note_off_c, 6, 60, 80
5, 195840, Note_off_c, 6, 53, 80
5, 195841, Note_on_c, 6, 65, 95
5, 195860, Note_on_c, 6, 60, 95
5, 195880, Note_on_c, 6, 53, 95
5, 196080, Note_off_c, 6, 65, 80
5, 196080, Note_off_c, 6, 60, 80
5, 196080, Note_off_c, 6, 53, 80
5, 196084, Note_on_c, 6, 65, 95
5, 196097, Note_on_c, 6, 53, 95
5, 196109, Note_on_c, 6, 60, 95
5, 196320, Note_off_c, 6, 65, 80
5, 196320, Note_off_c, 6, 60, 80
5, 196320, Note_off_c, 6, 53, 80
5, 196322, Note_on_c, 6, 60, 95
5, 196329, Note_on_c, 6, 53, 95
5, 196339, Note_on_c, 6, 65, 95
5, 196560, Note_off_c, 6, 65, 80
5, 196560, Note_off_c, 6, 60, 80
5, 196560, Note_off_c, 6, 53, 80
5, 196566, Note_on_c, 6, 65, 95
5, 196572, Note_on_c, 6, 60, 95
5, 196582, Note_on_c, 6, 53, 95
5, 196800, Note_off_c, 6, 65, 80
5, 196800, Note_off_c, 6, 60, 80
5, 196800, Note_off_c, 6, 53, 80
5, 196829, Note_on_c, 6, 65, 95
5, 196834, Note_on_c, 6, 60, 95
5, 196840, Note_on_c, 6, 53, 95
5, 197040, Note_off_c, 6, 65, 80
5, 197040, Note_off_c, 6, 60, 80
5, 197040, Note_off_c, 6, 53, 80
5, 197044, Note_on_c, 6, 65, 95
5, 197061, Note_on_c, 6, 60, 95
5, 197080, Note_on_c, 6, 53, 95
5, 197280, Note_off_c, 6, 65, 80
5, 197280, Note_off_c, 6, 60, 80
5, 197280, Note_off_c, 6, 53, 80
5, 197280, Note_on_c, 6, 53, 95
5, 197310, Note_on_c, 6, 60, 95
5, 197322, Note_on_c, 6, 65, 95
5, 197520, Note_off_c, 6, 65, 80
5, 197520, Note_off_c, 6, 60, 80
5, 197520, Note_off_c, 6, 53, 80
5, 197526, Note_on_c, 6, 60, 95
5, 197556, Note_on_c, 6, 65, 95
5, 197557, Note_on_c, 6, 53, 95
5, 197760, Note_off_c, 6, 65, 80
5, 197760, Note_off_c, 6, 60, 80
5, 197760, Note_off_c, 6, 53, 80
5, 197762, Note_on_c, 6, 62, 95
5, 197766, Note_on_c, 6, 57, 95
5, 197791, Note_on_c, 6, 50, 95
5, 198000, Note_off_c, 6, 62, 80
5, 198000, Note_off_c, 6, 57, 80
5, 198000, Note_off_c, 6, 50, 80
5, 198011, Note_on_c, 6, 62, 95
5, 198020, Note_on_c, 6, 50, 95
5, 198036, Note_on_c, 6, 57, 95
5, 198240, Note_off_c, 6, 62, 80
5, 198240, Note_off_c, 6, 57, 80
5, 198240, Note_off_c, 6, 50, 80
5, 198258, Note_on_c, 6, 62, 95
5, 198264, Note_on_c, 6, 57, 95
5, 198279, Note_on_c, 6, 50, 95
5, 198480, Note_off_c, 6, 62, 80
5, 198480, Note_off_c, 6, 57, 80
5, 198480, Note_off_c, 6, 50, 80
5, 198509, Note_on_c, 6, 62, 95
5, 198515, Note_on_c, 6, 50, 95
5, 198517, Note_on_c, 6, 57, 95
5, 198720, Note_off_c, 6, 62, 80
5, 198720, Note_off_c, 6, 57, 80
5, 198720, Note_off_c, 6, 50, 80
5, 198731, Note_on_c, 6, 57, 95
5, 198759, Note_on_c, 6, 62, 95
5, 198760, Note_on_c, 6, 50, 95
5, 198960, Note_off_c, 6, 62, 80
5, 198960, Note_off_c, 6, 57, 80
5, 198960, Note_off_c, 6, 50, 80
5, 198979, Note_on_c, 6, 57, 95
5, 198983, Note_on_c, 6, 50, 95
5, 198999, Note_on_c, 6, 62, 95
5, 199200, Note_off_c, 6, 62, 80
5, 199200, Note_off_c, 6, 57, 80
5, 199200, Note_off_c, 6, 50, 80
5, 199203, Note_on_c, 6, 50, 95
5, 199235, Note_on_c, 6, 57, 95
5, 199242, Note_on_c, 6, 62, 95
5, 199440, Note_off_c, 6, 62, 80
5, 199440, Note_off_c, 6, 57, 80
5, 199440, Note_off_c, 6, 50, 80
5, 199444, Note_on_c, 6, 50, 95
5, 199458, Note_on_c, 6, 62, 95
5, 199463, Note_on_c, 6, 57, 95
5, 199680, Note_off_c, 6, 62, 80
5, 199680, Note_off_c, 6, 57, 80
5, 199680, Note_off_c, 6, 50, 80
5, 199691, Note_on_c, 6, 62, 95
5, 199695, Note_on_c, 6, 50, 95
5, 199696, Note_on_c, 6, 57, 95
5, 199920, Note_off_c, 6, 62, 80
5, 199920, Note_off_c, 6, 57, 80
5, 199920, Note_off_c, 6, 50, 80
5, 199926, Note_on_c, 6, 62, 95
5, 199958, Note_on_c, 6, 57, 95
5, 199960, Note_on_c, 6, 50, 95
5, 200160, Note_off_c, 6, 62, 80
5, 200160, Note_off_c, 6, 57, 80
5, 200160, Note_off_c, 6, 50, 80
5, 200170, Note_on_c, 6, 62, 95
5, 200188, Note_on_c, 6, 50, 95
5, 200191, Note_on_c, 6, 57, 95
5, 200400, Note_off_c, 6, 62, 80
5, 200400, Note_off_c, 6, 57, 80
5, 200400, Note_off_c, 6, 50, 80
5, 200422, Note_on_c, 6, 50, 95
5, 200431, Note_on_c, 6, 57, 95
5, 200436, Note_on_c, 6, 62, 95
5, 200640, Note_off_c, 6, 62, 80
5, 200640, Note_off_c, 6, 57, 80
5, 200640, Note_off_c, 6, 50, 80
5, 200642, Note_on_c, 6, 50, 95
5, 200663, Note_on_c, 6, 62, 95
5, 200681, Note_on_c, 6, 57, 95
5, 200880, Note_off_c, 6, 62, 80
5, 200880, Note_off_c, 6, 57, 80
5, 200880, Note_off_c, 6, 50, 80
5, 200909, Note_on_c, 6, 57, 95
5, 200911, Note_on_c, 6, 62, 95
5, 200922, Note_on_c, 6, 50, 95
5, 201120, Note_off_c, 6, 62, 80
5, 201120, Note_off_c, 6, 57, 80
5, 201120, Note_off_c, 6, 50, 80
5, 201127, Note_on_c, 6, 57, 95
5, 201147, Note_on_c, 6, 62, 95
5, 201157, Note_on_c, 6, 50, 95
5, 201360, Note_off_c, 6, 62, 80
5, 201360, Note_off_c, 6, 57, 80
5, 201360, Note_off_c, 6, 50, 80
5, 201377, Note_on_c, 6, 50, 95
5, 201382, Note_on_c, 6, 62, 95
5, 201403, Note_on_c, 6, 57, 95
5, 201600, Note_off_c, 6, 62, 80
5, 201600, Note_off_c, 6, 57, 80
5, 201600, Note_off_c, 6, 50, 80
5, 201614, Note_on_c, 6, 53, 95
5, 201630, Note_on_c, 6, 65, 95
5, 201637, Note_on_c, 6, 60, 95
5, 201840, Note_off_c, 6, 65, 80
5, 201840, Note_off_c, 6, 60, 80
5, 201840, Note_off_c, 6, 53, 80
5, 201844, Note_on_c, 6, 60, 95
5, 201850, Note_on_c, 6, 53, 95
5, 201868, Note_on_c, 6, 65, 95
5, 202080, Note_off_c, 6, 65, 80
5, 202080, Note_off_c, 6, 60, 80
5, 202080, Note_off_c, 6, 53, 80
5, 202081, Note_on_c, 6, 60, 95
5, 202084, Note_on_c, 6, 53, 95
5, 202087, Note_on_c, 6, 65, 95
5, 202320, Note_off_c, 6, 65, 80
5, 202320, Note_off_c, 6, 60, 80
5, 202320, Note_off_c, 6, 53, 80
5, 202330, Note_on_c, 6, 60, 95
5, 202332, Note_on_c, 6, 53, 95
5, 202362, Note_on_c, 6, 65, 95
5, 202560, Note_off_c, 6, 65, 80
5, 202560, Note_off_c, 6, 60, 80
5, 202560, Note_off_c, 6, 53, 80
5, 202575, Note_on_c, 6, 65, 95
5, 202579, Note_on_c, 6, 60, 95
5, 202579, Note_on_c, 6, 53, 95
5, 202800, Note_off_c, 6, 65, 80
5, 202800, Note_off_c, 6, 60, 80
5, 202800, Note_off_c, 6, 53, 80
5, 202826, Note_on_c, 6, 53, 95
5, 202835, Note_on_c, 6, 65, 95
5, 202844, Note_on_c, 6, 60, 95
5, 203040, Note_off_c, 6, 65, 80
5, 203040, Note_off_c, 6, 60, 80
5, 203040, Note_off_c, 6, 53, 80
5, 203066, Note_on_c, 6, 53, 95
5, 203077, Note_on_c, 6, 60, 95
5, 203079, Note_on_c, 6, 65, 95
5, 203280, Note_off_c, 6, 65, 80
5, 203280, Note_off_c, 6, 60, 80
5, 203280, Note_off_c, 6, 53, 80
5, 203293, Note_on_c, 6, 65, 95
5, 203294, Note_on_c, 6, 60, 95
5, 203299, Note_on_c, 6, 53, 95
5, 203520, Note_off_c, 6, 65, 80
5, 203520, Note_off_c, 6, 60, 80
5, 203520, Note_off_c, 6, 53, 80
5, 203537, Note_on_c, 6, 65, 95
5, 203545, Note_on_c, 6, 53, 95
5, 203553, Note_on_c, 6, 60, 95
5, 203760, Note_off_c, 6, 65, 80
5, 203760, Note_off_c, 6, 60, 80
5, 203760, Note_off_c, 6, 53, 80
5, 203770, Note_on_c, 6, 53, 95
5, 203777, Note_on_c, 6, 60, 95
5, 203788, Note_on_c, 6, 65, 95
5, 204000, Note_off_c, 6, 65, 80
5, 204000, Note_off_c, 6, 60, 80
5, 204000, Note_off_c, 6, 53, 80
5, 204002, Note_on_c, 6, 60, 95
5, 204028, Note_on_c, 6, 53, 95
5, 204029, Note_on_c, 6, 65, 95
5, 204240, Note_off_c, 6, 65, 80
5, 204240, Note_off_c, 6, 60, 80
5, 204240, Note_off_c, 6, 53, 80
5, 204263, Note_on_c, 6, 65, 95
5, 204264, Note_on_c, 6, 60, 95
5, 204268, Note_on_c, 6, 53, 95
5, 204480, Note_off_c, 6, 65, 80
5, 204480, Note_off_c, 6, 60, 80
5, 204480, Note_off_c, 6, 53, 80
5, 204489, Note_on_c, 6, 60, 95
5, 204505, Note_on_c, 6, 65, 95
5, 204510, Note_on_c, 6, 53, 95
5, 204720, Note_off_c, 6, 65, 80
5, 204720, Note_off_c, 6, 60, 80
5, 204720, Note_off_c, 6, 53, 80
5, 204728, Note_on_c, 6, 53, 95
5, 204756, Note_on_c, 6, 65, 95
5, 204764, Note_on_c, 6, 60, 95
5, 204960, Note_off_c, 6, 65, 80
5, 204960, Note_off_c, 6, 60, 80
5, 204960, Note_off_c, 6, 53, 80
5, 204960, Note_on_c, 6, 60, 95
5, 204977, Note_on_c, 6, 65, 95
5, 204992, Note_on_c, 6, 53, 95
5, 205200, Note_off_c, 6, 65, 80
5, 205200, Note_off_c, 6, 60, 80
5, 205200, Note_off_c, 6, 53, 80
5, 205202, Note_on_c, 6, 60, 95
5, 205209, Note_on_c, 6, 65, 95
5, 205227, Note_on_c, 6, 53, 95
5, 205440, Note_off_c, 6, 65, 80
5, 205440, Note_off_c, 6, 60, 80
5, 205440, Note_off_c, 6, 53, 80
5, 205462, Note_on_c, 6, 50, 95
5, 205471, Note_on_c, 6, 62, 95
5, 205474, Note_on_c, 6, 57, 95
5, 205680, Note_off_c, 6, 62, 80
5, 205680, Note_off_c, 6, 57, 80
5, 205680, Note_off_c, 6, 50, 80
5, 205680, Note_on_c, 6, 50, 95
5, 205686, Note_on_c, 6, 57, 95
5, 205708, Note_on_c, 6, 62, 95
5, 205920, Note_off_c, 6, 62, 80
5, 205920, Note_off_c, 6, 57, 80
5, 205920, Note_off_c, 6, 50, 80
5, 205929, Note_on_c, 6, 57, 95
5, 205930, Note_on_c, 6, 50, 95
5, 205962, Note_on_c, 6, 62, 95
5, 206160, Note_off_c, 6, 62, 80
5, 206160, Note_off_c, 6, 57, 80
5, 206160, Note_off_c, 6, 50, 80
5, 206187, Note_on_c, 6, 62, 95
5, 206196, Note_on_c, 6, 57, 95
5, 206196, Note_on_c, 6, 50, 95
5, 206400, Note_off_c, 6, 62, 80
5, 206400, Note_off_c, 6, 57, 80
5, 206400, Note_off_c, 6, 50, 80
5, 206422, Note_on_c, 6, 50, 95
5, 206426, Note_on_c, 6, 62, 95
5, 206444, Note_on_c, 6, 57, 95
5, 206640, Note_off_c, 6, 62, 80
5, 206640, Note_off_c, 6, 57, 80
5, 206640, Note_off_c, 6, 50, 80
5, 206664, Note_on_c, 6, 57, 95
5, 206674, Note_on_c, 6, 50, 95
5, 206681, Note_on_c, 6, 62, 95
5, 206880, Note_off_c, 6, 62, 80
5, 206880, Note_off_c, 6, 57, 80
5, 206880, Note_off_c, 6, 50, 80
5, 206892, Note_on_c, 6, 62, 95
5, 206896, Note_on_c, 6, 57, 95
5, 206899, Note_on_c, 6, 50, 95
5, 207120, Note_off_c, 6, 62, 80
5, 207120, Note_off_c, 6, 57, 80
5, 207120, Note_off_c, 6, 50, 80
5, 207130, Note_on_c, 6, 50, 95
5, 207134, Note_on_c, 6, 57, 95
5, 207142, Note_on_c, 6, 62, 95
5, 207360, Note_off_c, 6, 62, 80
5, 207360, Note_off_c, 6, 57, 80
5, 207360, Note_off_c, 6, 50, 80
5, 207363, Note_on_c, 6, 62, 95
5, 207380, Note_on_c, 6, 50, 95
5, 207402, Note_on_c, 6, 57, 95
5, 207600, Note_off_c, 6, 62, 80
5, 207600, Note_off_c, 6, 57, 80
5, 207600, Note_off_c, 6, 50, 80
5, 207611, Note_on_c, 6, 50, 95
5, 207621, Note_on_c, 6, 57, 95
5, 207625, Note_on_c, 6, 62, 95
5, 207840, Note_off_c, 6, 62, 80
5, 207840, Note_off_c, 6, 57, 80
5, 207840, Note_off_c, 6, 50, 80
5, 207840, Note_on_c, 6, 57, 95
5, 207844, Note_on_c, 6, 62, 95
5, 207870, Note_on_c, 6, 50, 95
5, 208080, Note_off_c, 6, 62, 80
5, 208080, Note_off_c, 6, 57, 80
5, 208080, Note_off_c, 6, 50, 80
5, 208082, Note_on_c, 6, 57, 95
5, 208088, Note_on_c, 6, 62, 95
5, 208107, Note_on_c, 6, 50, 95
5, 208320, Note_off_c, 6, 62, 80
5, 208320, Note_off_c, 6, 57, 80
5, 208320, Note_off_c, 6, 50, 80
5, 208347, Note_on_c, 6, 62, 95
5, 208361, Note_on_c, 6, 50, 95
5, 208364, Note_on_c, 6, 57, 95
5, 208560, Note_off_c, 6, 62, 80
5, 208560, Note_off_c, 6, 57, 80
5, 208560, Note_off_c, 6, 50, 80
5, 208563, Note_on_c, 6, 62, 95
5, 208575, Note_on_c, 6, 50, 95
5, 208602, Note_on_c, 6, 57, 95
5, 208800, Note_off_c, 6, 62, 80
5, 208800, Note_off_c, 6, 57, 80
5, 208800, Note_off_c, 6, 50, 80
5, 208830, Note_on_c, 6, 62, 95
5, 208837, Note_on_c, 6, 50, 95
5, 208843, Note_on_c, 6, 57, 95
5, 209040, Note_off_c, 6, 62, 80
5, 209040, Note_off_c, 6, 57, 80
5, 209040, Note_off_c, 6, 50, 80
5, 209042, Note_on_c, 6, 62, 95
5, 209042, Note_on_c, 6, 57, 95
5, 209058, Note_on_c, 6, 50, 95
5, 209280, Note_off_c, 6, 62, 80
5, 209280, Note_off_c, 6, 57, 80
5, 209280, Note_off_c, 6, 50, 80
5, 209280, Note_on_c, 6, 65, 95
5, 209280, Note_on_c, 6, 60, 95
5, 209280, Note_on_c, 6, 53, 95
5, 209300, Note_off_c, 6, 65, 80
5, 209300, Note_off_c, 6, 60, 80
5, 209300, Note_off_c, 6, 53, 80
5, 209546, Note_on_c, 6, 65, 95
5, 209558, Note_on_c, 6, 60, 95
5, 209563, Note_on_c, 6, 53, 95
5, 209760, Note_off_c, 6, 65, 80
5, 209760, Note_off_c, 6, 60, 80
5, 209760, Note_off_c, 6, 53, 80
5, 209760, Note_on_c, 6, 65, 95
5, 209760, Note_on_c, 6, 60, 95
5, 209760, Note_on_c, 6, 53, 95
5, 209780, Note_off_c, 6, 65, 80
5, 209780, Note_off_c, 6, 60, 80
5, 209780, Note_off_c, 6, 53, 80
5, 210004, Note_on_c, 6, 60, 95
5, 210018, Note_on_c, 6, 53, 95
5, 210022, Note_on_c, 6, 65, 95
5, 210240, Note_off_c, 6, 65, 80
5, 210240, Note_off_c, 6, 60, 80
5, 210240, Note_off_c, 6, 53, 80
5, 210240, Note_on_c, 6, 65, 95
5, 210240, Note_on_c, 6, 60, 95
5, 210240, Note_on_c, 6, 53, 95
5, 210260, Note_off_c, 6, 65, 80
5, 210260, Note_off_c, 6, 60, 80
5, 210260, Note_off_c, 6, 53, 80
5, 210502, Note_on_c, 6, 65, 95
5, 210510, Note_on_c, 6, 53, 95
5, 210512, Note_on_c, 6, 60, 95
5, 210720, Note_off_c, 6, 65, 80
5, 210720, Note_off_c, 6, 60, 80
5, 210720, Note_off_c, 6, 53, 80
5, 210720, Note_on_c, 6, 65, 95
5, 210720, Note_on_c, 6, 60, 95
5, 210720, Note_on_c, 6, 53, 95
5, 210740, Note_off_c, 6, 65, 80
5, 210740, Note_off_c, 6, 60, 80
5, 210740, Note_off_c, 6, 53, 80
5, 210986, Note_on_c, 6, 60, 95
5, 210994, Note_on_c, 6, 65, 95
5, 211000, Note_on_c, 6, 53, 95
5, 211200, Note_off_c, 6, 65, 80
5, 211200, Note_off_c, 6, 60, 80
5, 211200, Note_off_c, 6, 53, 80
5, 211200, Note_on_c, 6, 65, 95
5, 211200, Note_on_c, 6, 60, 95
5, 211200, Note_on_c, 6, 53, 95
5, 211220, Note_off_c, 6, 65, 80
5, 211220, Note_off_c, 6, 60, 80
5, 211220, Note_off_c, 6, 53, 80
5, 211449, Note_on_c, 6, 53, 95
5, 211474, Note_on_c, 6, 60, 95
5, 211477, Note_on_c, 6, 65, 95
5, 211680, Note_off_c, 6, 65, 80
5, 211680, Note_off_c, 6, 60, 80
5, 211680, Note_off_c, 6, 53, 80
5, 211680, Note_on_c, 6, 65, 95
5, 211680, Note_on_c, 6, 60, 95
5, 211680, Note_on_c, 6, 53, 95
5, 211700, Note_off_c, 6, 65, 80
5, 211700, Note_off_c, 6, 60, 80
5, 211700, Note_off_c, 6, 53, 80
5, 211924, Note_on_c, 6, 53, 95
5, 211928, Note_on_c, 6, 65, 95
5, 211948, Note_on_c, 6, 60, 95
5, 212160, Note_off_c, 6, 65, 80
5, 212160, Note_off_c, 6, 60, 80
5, 212160, Note_off_c, 6, 53, 80
5, 212160, Note_on_c, 6, 65, 95
5, 212160, Note_on_c, 6, 60, 95
5, 212160, Note_on_c, 6, 53, 95
5, 212180, Note_off_c, 6, 65, 80
5, 212180, Note_off_c, 6, 60, 80
5, 212180, Note_off_c, 6, 53, 80
5, 212402, Note_on_c, 6, 53, 95
5, 212413, Note_on_c, 6, 60, 95
5, 212439, Note_on_c, 6, 65, 95
5, 212640, Note_off_c, 6, 65, 80
5, 212640, Note_off_c, 6, 60, 80
5, 212640, Note_off_c, 6, 53, 80
5, 212640, Note_on_c, 6, 65, 95
5, 212640, Note_on_c, 6, 60, 95
5, 212640, Note_on_c, 6, 53, 95
5, 212660, Note_off_c, 6, 65, 80
5, 212660, Note_off_c, 6, 60, 80
5, 212660, Note_off_c, 6, 53, 80
5, 212898, Note_on_c, 6, 65, 95
5, 212900, Note_on_c, 6, 60, 95
5, 212907, Note_on_c, 6, 53, 95
5, 213120, Note_off_c, 6, 65, 80
5, 213120, Note_off_c, 6, 60, 80
5, 213120, Note_off_c, 6, 53, 80
5, 213120, Note_on_c, 6, 62, 95
5, 213120, Note_on_c, 6, 57, 95
5, 213120, Note_on_c, 6, 50, 95
5, 213140, Note_off_c, 6, 62, 80
5, 213140, Note_off_c, 6, 57, 80
5, 213140, Note_off_c, 6, 50, 80
5, 213384, Note_on_c, 6, 62, 95
5, 213395, Note_on_c, 6, 57, 95
5, 213396, Note_on_c, 6, 50, 95
5, 213600, Note_off_c, 6, 62, 80
5, 213600, Note_off_c, 6, 57, 80
5, 213600, Note_off_c, 6, 50, 80
5, 213600, Note_on_c, 6, 62, 95
5, 213600, Note_on_c, 6, 57, 95
5, 213600, Note_on_c, 6, 50, 95
5, 213620, Note_off_c, 6, 62, 80
5, 213620, Note_off_c, 6, 57, 80
5, 213620, Note_off_c, 6, 50, 80
5, 213845, Note_on_c, 6, 62, 95
5, 213869, Note_on_c, 6, 57, 95
5, 213881, Note_on_c, 6, 50, 95
5, 214080, Note_off_c, 6, 62, 80
5, 214080, Note_off_c, 6, 57, 80
5, 214080, Note_off_c, 6, 50, 80
5, 214080, Note_on_c, 6, 62, 95
5, 214080, Note_on_c, 6, 57, 95
5, 214080, Note_on_c, 6, 50, 95
5, 214100, Note_off_c, 6, 62, 80
5, 214100, Note_off_c, 6, 57, 80
5, 214100, Note_off_c, 6, 50, 80
5, 214323, Note_on_c, 6, 57, 95
5, 214348, Note_on_c, 6, 50, 95
5, 214359, Note_on_c, 6, 62, 95
5, 214560, Note_off_c, 6, 62, 80
5, 214560, Note_off_c, 6, 57, 80
5, 214560, Note_off_c, 6, 50, 80
5, 214560, Note_on_c, 6, 62, 95
5, 214560, Note_on_c, 6, 57, 95
5, 214560, Note_on_c, 6, 50, 95
5, 214580, Note_off_c, 6, 62, 80
5, 214580, Note_off_c, 6, 57, 80
5, 214580, Note_off_c, 6, 50, 80
5, 214809, Note_on_c, 6, 62, 95
5, 214820, Note_on_c, 6, 50, 95
5, 214837, Note_on_c, 6, 57, 95
5, 215040, Note_off_c, 6, 62, 80
5, 215040, Note_off_c, 6, 57, 80
5, 215040, Note_off_c, 6, 50, 80
5, 215040, Note_on_c, 6, 62, 95
5, 215040, Note_on_c, 6, 57, 95
5, 215040, Note_on_c, 6, 50, 95
5, 215060, Note_off_c, 6, 62, 80
5, 215060, Note_off_c, 6, 57, 80
5, 215060, Note_off_c, 6, 50, 80
5, 215280, Note_on_c, 6, 62, 95
5, 215308, Note_on_c, 6, 50, 95
5, 215315, Note_on_c, 6, 57, 95
5, 215520, Note_off_c, 6, 62, 80
5, 215520, Note_off_c, 6, 57, 80
5, 215520, Note_off_c, 6, 50, 80
5, 215520, Note_on_c, 6, 62, 95
5, 215520, Note_on_c, 6, 57, 95
5, 215520, Note_on_c, 6, 50, 95
5, 215540, Note_off_c, 6, 62, 80
5, 215540, Note_off_c, 6, 57, 80
5, 215540, Note_off_c, 6, 50, 80
5, 215761, Note_on_c, 6, 50, 95
5, 215771, Note_on_c, 6, 62, 95
5, 215786, Note_on_c, 6, 57, 95
5, 216000, Note_off_c, 6, 62, 80
5, 216000, Note_off_c, 6, 57, 80
5, 216000, Note_off_c, 6, 50, 80
5, 216000, Note_on_c, 6, 62, 95
5, 216000, Note_on_c, 6, 57, 95
5, 216000, Note_on_c, 6, 50, 95
5, 216020, Note_off_c, 6, 62, 80
5, 216020, Note_off_c, 6, 57, 80
5, 216020, Note_off_c, 6, 50, 80
5, 216972, Note_on_c, 6, 53, 95
5, 216973, Note_on_c, 6, 65, 95
5, 216998, Note_on_c, 6, 60, 95
5, 217200, Note_off_c, 6, 65, 80
5, 217200, Note_off_c, 6, 60, 80
5, 217200, Note_off_c, 6, 53, 80
5, 217204, Note_on_c, 6, 65, 95
5, 217213, Note_on_c, 6, 53, 95
5, 217218, Note_on_c, 6, 60, 95
5, 217440, Note_off_c, 6, 65, 80
5, 217440, Note_off_c, 6, 60, 80
5, 217440, Note_off_c, 6, 53, 80
5, 217440, Note_on_c, 6, 60, 95
5, 217443, Note_on_c, 6, 53, 95
5, 217452, Note_on_c, 6, 65, 95
5, 217680, Note_off_c, 6, 65, 80
5, 217680, Note_off_c, 6, 60, 80
5, 217680, Note_off_c, 6, 53, 80
5, 217698, Note_on_c, 6, 53, 95
5, 217706, Note_on_c, 6, 65, 95
5, 217722, Note_on_c, 6, 60, 95
5, 217920, Note_off_c, 6, 65, 80
5, 217920, Note_off_c, 6, 60, 80
5, 217920, Note_off_c, 6, 53, 80
5, 217922, Note_on_c, 6, 60, 95
5, 217942, Note_on_c, 6, 53, 95
5, 217951, Note_on_c, 6, 65, 95
5, 218160, Note_off_c, 6, 65, 80
5, 218160, Note_off_c, 6, 60, 80
5, 218160, Note_off_c, 6, 53, 80
5, 218165, Note_on_c, 6, 65, 95
5, 218165, Note_on_c, 6, 60, 95
5, 218168, Note_on_c, 6, 53, 95
5, 218400, Note_off_c, 6, 65, 80
5, 218400, Note_off_c, 6, 60, 80
5, 218400, Note_off_c, 6, 53, 80
5, 218424, Note_on_c, 6, 60, 95
5, 218434, Note_on_c, 6, 53, 95
5, 218439, Note_on_c, 6, 65, 95
5, 218640, Note_off_c, 6, 65, 80
5, 218640, Note_off_c, 6, 60, 80
5, 218640, Note_off_c, 6, 53, 80
5, 218670, Note_on_c, 6, 60, 95
5, 218677, Note_on_c, 6, 65, 95
5, 218681, Note_on_c, 6, 53, 95
5, 218880, Note_off_c, 6, 65, 80
5, 218880, Note_off_c, 6, 60, 80
5, 218880, Note_off_c, 6, 53, 80
5, 218887, Note_on_c, 6, 65, 95
5, 218914, Note_on_c, 6, 60, 95
5, 218914, Note_on_c, 6, 53, 95
5, 219120, Note_off_c, 6, 65, 80
5, 219120, Note_off_c, 6, 60, 80
5, 219120, Note_off_c, 6, 53, 80
5, 219120, Note_on_c, 6, 53, 95
5, 219133, Note_on_c, 6, 60, 95
5, 219141, Note_on_c, 6, 65, 95
5, 219360, Note_off_c, 6, 65, 80
5, 219360, Note_off_c, 6, 60, 80
5, 219360, Note_off_c, 6, 53, 80
5, 219363, Note_on_c, 6, 65, 95
5, 219367, Note_on_c, 6, 60, 95
5, 219372, Note_on_c, 6, 53, 95
5, 219600, Note_off_c, 6, 65, 80
5, 219600, Note_off_c, 6, 60, 80
5, 219600, Note_off_c, 6, 53, 80
5, 219601, Note_on_c, 6, 60, 95
5, 219617, Note_on_c, 6, 53, 95
5, 219635, Note_on_c, 6, 65, 95
5, 219840, Note_off_c, 6, 65, 80
5, 219840, Note_off_c, 6, 60, 80
5, 219840, Note_off_c, 6, 53, 80
5, 219855, Note_on_c, 6, 65, 95
5, 219876, Note_on_c, 6, 60, 95
5, 219876, Note_on_c, 6, 53, 95
5, 220080, Note_off_c, 6, 65, 80
5, 220080, Note_off_c, 6, 60, 80
5, 220080, Note_off_c, 6, 53, 80
5, 220105, Note_on_c, 6, 53, 95
5, 220114, Note_on_c, 6, 65, 95
5, 220115, Note_on_c, 6, 60, 95
5, 220320, Note_off_c, 6, 65, 80
5, 220320, Note_off_c, 6, 60, 80
5, 220320, Note_off_c, 6, 53, 80
5, 220335, Note_on_c, 6, 65, 95
5, 220345, Note_on_c, 6, 60, 95
5, 220359, Note_on_c, 6, 53, 95
5, 220560, Note_off_c, 6, 65, 80
5, 220560, Note_off_c, 6, 60, 80
5, 220560, Note_off_c, 6, 53, 80
5, 220568, Note_on_c, 6, 65, 95
5, 220587, Note_on_c, 6, 53, 95
5, 220602, Note_on_c, 6, 60, 95
5, 220800, Note_off_c, 6, 65, 80
5, 220800, Note_off_c, 6, 60, 80
5, 220800, Note_off_c, 6, 53, 80
5, 220812, Note_on_c, 6, 50, 95
5, 220831, Note_on_c, 6, 62, 95
5, 220837, Note_on_c, 6, 57, 95
5, 221040, Note_off_c, 6, 62, 80
5, 221040, Note_off_c, 6, 57, 80
5, 221040, Note_off_c, 6, 50, 80
5, 221053, Note_on_c, 6, 50, 95
5, 221070, Note_on_c, 6, 57, 95
5, 221072, Note_on_c, 6, 62, 95
5, 221280, Note_off_c, 6, 62, 80
5, 221280, Note_off_c, 6, 57, 80
5, 221280, Note_off_c, 6, 50, 80
5, 221293, Note_on_c, 6, 50, 95
5, 221308, Note_on_c, 6, 62, 95
5, 221321, Note_on_c, 6, 57, 95
5, 221520, Note_off_c, 6, 62, 80
5, 221520, Note_off_c, 6, 57, 80
5, 221520, Note_off_c, 6, 50, 80
5, 221520, Note_on_c, 6, 50, 95
5, 221559, Note_on_c, 6, 62, 95
5, 221562, Note_on_c, 6, 57, 95
5, 221760, Note_off_c, 6, 62, 80
5, 221760, Note_off_c, 6, 57, 80
5, 221760, Note_off_c, 6, 50, 80
5, 221772, Note_on_c, 6, 62, 95
5, 221774, Note_on_c, 6, 57, 95
5, 221793, Note_on_c, 6, 50, 95
5, 222000, Note_off_c, 6, 62, 80
5, 222000, Note_off_c, 6, 57, 80
5, 222000, Note_off_c, 6, 50, 80
5, 222002, Note_on_c, 6, 57, 95
5, 222023, Note_on_c, 6, 50, 95
5, 222027, Note_on_c, 6, 62, 95
5, 222240, Note_off_c, 6, 62, 80
5, 222240, Note_off_c, 6, 57, 80
5, 222240, Note_off_c, 6, 50, 80
5, 222243, Note_on_c, 6, 50, 95
5, 222255, Note_on_c, 6, 57, 95
5, 222269, Note_on_c, 6, 62, 95
5, 222480, Note_off_c, 6, 62, 80
5, 222480, Note_off_c, 6, 57, 80
5, 222480, Note_off_c, 6, 50, 80
5, 222485, Note_on_c, 6, 62, 95
5, 222487, Note_on_c, 6, 57, 95
5, 222508, Note_on_c, 6, 50, 95
5, 222720, Note_off_c, 6, 62, 80
5, 222720, Note_off_c, 6, 57, 80
5, 222720, Note_off_c, 6, 50, 80
5, 222723, Note_on_c, 6, 62, 95
5, 222723, Note_on_c, 6, 57, 95
5, 222746, Note_on_c, 6, 50, 95
5, 222960, Note_off_c, 6, 62, 80
5, 222960, Note_off_c, 6, 57, 80
5, 222960, Note_off_c, 6, 50, 80
5, 222968, Note_on_c, 6, 62, 95
5, 222984, Note_on_c, 6, 57, 95
5, 222993, Note_on_c, 6, 50, 95
5, 223200, Note_off_c, 6, 62, 80
5, 223200, Note_off_c, 6, 57, 80
5, 223200, Note_off_c, 6, 50, 80
5, 223221, Note_on_c, 6, 57, 95
5, 223235, Note_on_c, 6, 50, 95
5, 223237, Note_on_c, 6, 62, 95
5, 223440, Note_off_c, 6, 62, 80
5, 223440, Note_off_c, 6, 57, 80
5, 223440, Note_off_c, 6, 50, 80
5, 223455, Note_on_c, 6, 50, 95
5, 223477, Note_on_c, 6, 62, 95
5, 223479, Note_on_c, 6, 57, 95
5, 223680, Note_off_c, 6, 62, 80
5, 223680, Note_off_c, 6, 57, 80
5, 223680, Note_off_c, 6, 50, 80
5, 223693, Note_on_c, 6, 50, 95
5, 223713, Note_on_c, 6, 57, 95
5, 223714, Note_on_c, 6, 62, 95
5, 223920, Note_off_c, 6, 62, 80
5, 223920, Note_off_c, 6, 57, 80
5, 223920, Note_off_c, 6, 50, 80
5, 223939, Note_on_c, 6, 57, 95
5, 223947, Note_on_c, 6, 50, 95
5, 223960, Note_on_c, 6, 62, 95
5, 224160, Note_off_c, 6, 62, 80
5, 224160, Note_off_c, 6, 57, 80
5, 224160, Note_off_c, 6, 50, 80
5, 224168, Note_on_c, 6, 62, 95
5, 224199, Note_on_c, 6, 50, 95
5, 224203, Note_on_c, 6, 57, 95
5, 224400, Note_off_c, 6, 62, 80
5, 224400, Note_off_c, 6, 57, 80
5, 224400, Note_off_c, 6, 50, 80
5, 224404, Note_on_c, 6, 62, 95
5, 224407, Note_on_c, 6, 57, 95
5, 224434, Note_on_c, 6, 50, 95
5, 224640, Note_off_c, 6, 62, 80
5, 224640, Note_off_c, 6, 57, 80
5, 224640, Note_off_c, 6, 50, 80
5, 224640, End_track
6, 0, Start_track
6, 0, Title_t, "bass"
6, 0, Control_c, 10, 100, 0
6, 0, Control_c, 10, 101, 0
6, 0, Control_c, 10, 6, 12
6, 0, Pitch_bend_c, 10, 8192
6, 0, Control_c, 10, 101, 0
6, 0, Control_c, 10, 100, 1
6, 0, Control_c, 10, 6, 64
6, 0, Control_c, 10, 38, 0
6, 0, Control_c, 10, 101, 127
6, 0, Control_c, 10, 100, 127
6, 0, Control_c, 8, 100, 0
6, 0, Control_c, 8, 101, 0
6, 0, Control_c, 8, 6, 12
6, 0, Pitch_bend_c, 8, 8192
6, 0, Control_c, 8, 101, 0
6, 0, Control_c, 8, 100, 1
6, 0, Control_c, 8, 6, 64
6, 0, Control_c, 8, 38, 0
6, 0, Control_c, 8, 101, 127
6, 0, Control_c, 8, 100, 127
6, 0, Control_c, 10, 101, 0
6, 0, Control_c, 10, 100, 2
6, 0, Control_c, 10, 6, 64
6, 0, Control_c, 10, 101, 127
6, 0, Control_c, 10, 100, 127
6, 0, Control_c, 8, 101, 0
6, 0, Control_c, 8, 100, 2
6, 0, Control_c, 8, 6, 64
6, 0, Control_c, 8, 101, 127
6, 0, Control_c, 8, 100, 127
6, 0, Program_c, 10, 33
6, 0, Program_c, 8, 33
6, 0, Control_c, 10, 0, 0
6, 0, Control_c, 8, 0, 0
6, 0, Control_c, 10, 7, 80
6, 0, Control_c, 8, 7, 80
6, 0, Control_c, 10, 10, 64
6, 0, Control_c, 8, 10, 64
6, 0, Control_c, 10, 93, 0
6, 0, Control_c, 8, 93, 0
6, 0, Control_c, 10, 91, 0
6, 0, Control_c, 8, 91, 0
6, 0, Control_c, 10, 92, 0
6, 0, Control_c, 8, 92, 0
6, 0, Control_c, 10, 95, 0
6, 0, Control_c, 8, 95, 0
6, 17280, Note_on_c, 8, 45, 95
6, 17520, Note_off_c, 8, 45, 80
6, 17520, Note_on_c, 8, 45, 95
6, 17760, Note_off_c, 8, 45, 80
6, 17760, Note_on_c, 8, 57, 95
6, 18240, Note_off_c, 8, 57, 80
6, 18240, Note_on_c, 10, 43, 95
6, 18432, Pitch_bend_c, 10, 8832
6, 18480, Pitch_bend_c, 10, 8192
6, 18570, Pitch_bend_c, 10, 8832
6, 18578, Pitch_bend_c, 10, 9600
6, 18585, Pitch_bend_c, 10, 10240
6, 18592, Pitch_bend_c, 10, 10880
6, 18600, Pitch_bend_c, 10, 11648
6, 19080, Note_off_c, 10, 43, 80
6, 19080, Note_on_c, 8, 48, 76
6, 19200, Note_off_c, 8, 48, 80
6, 19200, Note_on_c, 8, 45, 95
6, 19440, Note_off_c, 8, 45, 80
6, 19440, Note_on_c, 8, 45, 95
6, 19680, Note_off_c, 8, 45, 80
6, 19680, Note_on_c, 8, 57, 95
6, 20160, Note_off_c, 8, 57, 80
6, 20160, Note_on_c, 10, 43, 95
6, 20352, Pitch_bend_c, 10, 8832
6, 20400, Pitch_bend_c, 10, 8192
6, 20490, Pitch_bend_c, 10, 8832
6, 20498, Pitch_bend_c, 10, 9600
6, 20505, Pitch_bend_c, 10, 10240
6, 20512, Pitch_bend_c, 10, 10880
6, 20520, Pitch_bend_c, 10, 11648
6, 21000, Note_off_c, 10, 43, 80
6, 21000, Note_on_c, 8, 48, 76
6, 21120, Note_off_c, 8, 48, 80
6, 21120, Note_on_c, 8, 45, 95
6, 21360, Note_off_c, 8, 45, 80
6, 21360, Note_on_c, 8, 45, 95
6, 21600, Note_off_c, 8, 45, 80
6, 21600, Note_on_c, 8, 57, 95
6, 22080, Note_off_c, 8, 57, 80
6, 22080, Note_on_c, 10, 43, 95
6, 22272, Pitch_bend_c, 10, 8832
6, 22320, Pitch_bend_c, 10, 8192
6, 22410, Pitch_bend_c, 10, 8832
6, 22418, Pitch_bend_c, 10, 9600
6, 22425, Pitch_bend_c, 10, 10240
6, 22432, Pitch_bend_c, 10, 10880
6, 22440, Pitch_bend_c, 10, 11648
6, 22920, Note_off_c, 10, 43, 80
6, 22920, Note_on_c, 8, 48, 76
6, 23040, Note_off_c, 8, 48, 80
6, 24960, Note_on_c, 8, 45, 95
6, 25200, Note_off_c, 8, 45, 80
6, 25200, Note_on_c, 8, 45, 95
6, 25440, Note_off_c, 8, 45, 80
6, 25440, Note_on_c, 8, 57, 95
6, 25920, Note_off_c, 8, 57, 80
6, 25920, Note_on_c, 10, 43, 95
6, 26112, Pitch_bend_c, 10, 8832
6, 26160, Pitch_bend_c, 10, 8192
6, 26250, Pitch_bend_c, 10, 8832
6, 26258, Pitch_bend_c, 10, 9600
6, 26265, Pitch_bend_c, 10, 10240
6, 26272, Pitch_bend_c, 10, 10880
6, 26280, Pitch_bend_c, 10, 11648
6, 26760, Note_off_c, 10, 43, 80
6, 26760, Note_on_c, 8, 48, 76
6, 26880, Note_off_c, 8, 48, 80
6, 40320, Note_on_c, 8, 45, 95
6, 40560, Note_off_c, 8, 45, 80
6, 40560, Note_on_c, 8, 45, 95
6, 40800, Note_off_c, 8, 45, 80
6, 40800, Note_on_c, 8, 52, 95
6, 41040, Note_off_c, 8, 52, 80
6, 41040, Note_on_c, 8, 52, 95
6, 41280, Note_off_c, 8, 52, 80
6, 41280, Note_on_c, 8, 50, 95
6, 41520, Note_off_c, 8, 50, 80
6, 41520, Note_on_c, 8, 50, 95
6, 41760, Note_off_c, 8, 50, 80
6, 41760, Note_on_c, 8, 48, 95
6, 42000, Note_off_c, 8, 48, 80
6, 42000, Note_on_c, 8, 48, 95
6, 42240, Note_off_c, 8, 48, 80
6, 42240, Note_on_c, 8, 45, 95
6, 42720, Note_off_c, 8, 45, 80
6, 42720, Note_on_c, 8, 43, 95
6, 42960, Note_off_c, 8, 43, 80
6, 42960, Note_on_c, 8, 43, 76
6, 43080, Note_off_c, 8, 43, 80
6, 43080, Note_on_c, 8, 43, 95
6, 43200, Note_off_c, 8, 43, 80
6, 43200, Note_on_c, 8, 48, 76
6, 43440, Note_off_c, 8, 48, 80
6, 43440, Note_on_c, 8, 48, 95
6, 43680, Note_off_c, 8, 48, 80
6, 43680, Note_on_c, 8, 53, 95
6, 44160, Note_off_c, 8, 53, 80
6, 44160, Note_on_c, 8, 45, 95
6, 44640, Note_off_c, 8, 45, 80
6, 44640, Note_on_c, 8, 52, 95
6, 44880, Note_off_c, 8, 52, 80
6, 44880, Note_on_c, 8, 52, 95
6, 45000, Note_off_c, 8, 52, 80
6, 45000, Note_on_c, 8, 52, 76
6, 45120, Note_off_c, 8, 52, 80
6, 45120, Note_on_c, 8, 47, 95
6, 45360, Note_off_c, 8, 47, 80
6, 45360, Note_on_c, 8, 47, 95
6, 45600, Note_off_c, 8, 47, 80
6, 45600, Note_on_c, 8, 52, 95
6, 46080, Note_off_c, 8, 52, 80
6, 46080, Note_on_c, 8, 45, 95
6, 46560, Note_off_c, 8, 45, 80
6, 46560, Note_on_c, 8, 43, 95
6, 46800, Note_off_c, 8, 43, 80
6, 46800, Note_on_c, 8, 43, 76
6, 46920, Note_off_c, 8, 43, 80
6, 46920, Note_on_c, 8, 43, 95
6, 47040, Note_off_c, 8, 43, 80
6, 47040, Note_on_c, 8, 48, 76
6, 47280, Note_off_c, 8, 48, 80
6, 47280, Note_on_c, 8, 48, 95
6, 47520, Note_off_c, 8, 48, 80
6, 47520, Note_on_c, 8, 53, 95
6, 48000, Note_off_c, 8, 53, 80
6, 48000, Note_on_c, 8, 45, 95
6, 48480, Note_off_c, 8, 45, 80
6, 48480, Note_on_c, 8, 52, 95
6, 48720, Note_off_c, 8, 52, 80
6, 48720, Note_on_c, 8, 52, 95
6, 48840, Note_off_c, 8, 52, 80
6, 48840, Note_on_c, 8, 52, 76
6, 48960, Note_off_c, 8, 52, 80
6, 48960, Note_on_c, 8, 47, 95
6, 49200, Note_off_c, 8, 47, 80
6, 49200, Note_on_c, 8, 47, 95
6, 49440, Note_off_c, 8, 47, 80
6, 49440, Note_on_c, 8, 52, 95
6, 49920, Note_off_c, 8, 52, 80
6, 49920, Note_on_c, 8, 45, 95
6, 50400, Note_off_c, 8, 45, 80
6, 50400, Note_on_c, 8, 43, 95
6, 50640, Note_off_c, 8, 43, 80
6, 50640, Note_on_c, 8, 43, 76
6, 50760, Note_off_c, 8, 43, 80
6, 50760, Note_on_c, 8, 43, 95
6, 50880, Note_off_c, 8, 43, 80
6, 50880, Note_on_c, 8, 48, 76
6, 51120, Note_off_c, 8, 48, 80
6, 51120, Note_on_c, 8, 48, 95
6, 51360, Note_off_c, 8, 48, 80
6, 51360, Note_on_c, 8, 53, 95
6, 51840, Note_off_c, 8, 53, 80
6, 51840, Note_on_c, 8, 45, 95
6, 52320, Note_off_c, 8, 45, 80
6, 52320, Note_on_c, 8, 52, 95
6, 52560, Note_off_c, 8, 52, 80
6, 52560, Note_on_c, 8, 52, 95
6, 52680, Note_off_c, 8, 52, 80
6, 52680, Note_on_c, 8, 52, 76
6, 52800, Note_off_c, 8, 52, 80
6, 52800, Note_on_c, 8, 48, 95
6, 53040, Note_off_c, 8, 48, 80
6, 53160, Note_on_c, 8, 50, 95
6, 53400, Note_off_c, 8, 50, 80
6, 53520, Note_on_c, 8, 52, 95
6, 53760, Note_off_c, 8, 52, 80
6, 53760, Note_on_c, 8, 45, 95
6, 54240, Note_off_c, 8, 45, 80
6, 54240, Note_on_c, 8, 43, 95
6, 54480, Note_off_c, 8, 43, 80
6, 54480, Note_on_c, 8, 43, 76
6, 54600, Note_off_c, 8, 43, 80
6, 54600, Note_on_c, 8, 43, 95
6, 54720, Note_off_c, 8, 43, 80
6, 54720, Note_on_c, 8, 48, 76
6, 54960, Note_off_c, 8, 48, 80
6, 54960, Note_on_c, 8, 48, 95
6, 55200, Note_off_c, 8, 48, 80
6, 55200, Note_on_c, 8, 53, 95
6, 55680, Note_off_c, 8, 53, 80
6, 55680, Note_on_c, 8, 45, 95
6, 55920, Note_off_c, 8, 45, 80
6, 55920, Note_on_c, 8, 45, 95
6, 56160, Note_off_c, 8, 45, 80
6, 56160, Note_on_c, 8, 52, 95
6, 56400, Note_off_c, 8, 52, 80
6, 56400, Note_on_c, 8, 50, 95
6, 56640, Note_off_c, 8, 50, 80
6, 56640, Note_on_c, 8, 50, 95
6, 56880, Note_off_c, 8, 50, 80
6, 56880, Note_on_c, 8, 48, 95
6, 57120, Note_off_c, 8, 48, 80
6, 57120, Note_on_c, 8, 48, 95
6, 57360, Note_off_c, 8, 48, 80
6, 57360, Note_on_c, 8, 48, 95
6, 57600, Note_off_c, 8, 48, 80
6, 57600, Note_on_c, 8, 45, 95
6, 58080, Note_off_c, 8, 45, 80
6, 58080, Note_on_c, 8, 45, 95
6, 58440, Note_off_c, 8, 45, 80
6, 58440, Note_on_c, 8, 45, 95
6, 58559, Note_off_c, 8, 45, 80
6, 58560, Note_on_c, 8, 43, 95
6, 58800, Note_off_c, 8, 43, 80
6, 58800, Note_on_c, 8, 43, 95
6, 59040, Note_off_c, 8, 43, 80
6, 59040, Note_on_c, 8, 43, 95
6, 59280, Note_off_c, 8, 43, 80
6, 59280, Note_on_c, 8, 43, 95
6, 59520, Note_off_c, 8, 43, 80
6, 59520, Note_on_c, 8, 40, 95
6, 60000, Note_off_c, 8, 40, 80
6, 60000, Note_on_c, 8, 40, 95
6, 60480, Note_off_c, 8, 40, 80
6, 61440, Note_on_c, 8, 45, 95
6, 61920, Note_off_c, 8, 45, 80
6, 61920, Note_on_c, 8, 45, 95
6, 62280, Note_off_c, 8, 45, 80
6, 62280, Note_on_c, 8, 45, 95
6, 62399, Note_off_c, 8, 45, 80
6, 62400, Note_on_c, 8, 43, 95
6, 62640, Note_off_c, 8, 43, 80
6, 62640, Note_on_c, 8, 43, 95
6, 62880, Note_off_c, 8, 43, 80
6, 62880, Note_on_c, 8, 43, 95
6, 63120, Note_off_c, 8, 43, 80
6, 63120, Note_on_c, 8, 43, 95
6, 63360, Note_off_c, 8, 43, 80
6, 63360, Note_on_c, 8, 40, 95
6, 63840, Note_off_c, 8, 40, 80
6, 63840, Note_on_c, 8, 40, 95
6, 64320, Note_off_c, 8, 40, 80
6, 65280, Note_on_c, 8, 45, 95
6, 65760, Note_off_c, 8, 45, 80
6, 65760, Note_on_c, 8, 45, 95
6, 66120, Note_off_c, 8, 45, 80
6, 66120, Note_on_c, 8, 45, 95
6, 66239, Note_off_c, 8, 45, 80
6, 66240, Note_on_c, 8, 43, 95
6, 66480, Note_off_c, 8, 43, 80
6, 66480, Note_on_c, 8, 43, 95
6, 66720, Note_off_c, 8, 43, 80
6, 66720, Note_on_c, 8, 43, 95
6, 66960, Note_off_c, 8, 43, 80
6, 66960, Note_on_c, 8, 43, 95
6, 67200, Note_off_c, 8, 43, 80
6, 67200, Note_on_c, 8, 40, 95
6, 67680, Note_off_c, 8, 40, 80
6, 67680, Note_on_c, 8, 40, 95
6, 68160, Note_off_c, 8, 40, 80
6, 69120, Note_on_c, 8, 45, 95
6, 69600, Note_off_c, 8, 45, 80
6, 69600, Note_on_c, 8, 45, 95
6, 69960, Note_off_c, 8, 45, 80
6, 69960, Note_on_c, 8, 45, 95
6, 70079, Note_off_c, 8, 45, 80
6, 70080, Note_on_c, 8, 43, 95
6, 70320, Note_off_c, 8, 43, 80
6, 70320, Note_on_c, 8, 43, 95
6, 70560, Note_off_c, 8, 43, 80
6, 70560, Note_on_c, 8, 43, 95
6, 70800, Note_off_c, 8, 43, 80
6, 70800, Note_on_c, 8, 43, 95
6, 71040, Note_off_c, 8, 43, 80
6, 71040, Note_on_c, 8, 40, 95
6, 71520, Note_off_c, 8, 40, 80
6, 71520, Note_on_c, 8, 40, 95
6, 72000, Note_off_c, 8, 40, 80
6, 72000, Note_on_c, 8, 50, 95
6, 72480, Note_off_c, 8, 50, 80
6, 72480, Note_on_c, 8, 48, 95
6, 72960, Note_off_c, 8, 48, 80
6, 86280, Note_on_c, 10, 52, 95
6, 86280, Pitch_bend_c, 10, 3456
6, 86297, Pitch_bend_c, 10, 4096
6, 86314, Pitch_bend_c, 10, 4736
6, 86331, Pitch_bend_c, 10, 5504
6, 86349, Pitch_bend_c, 10, 6144
6, 86366, Pitch_bend_c, 10, 6784
6, 86383, Pitch_bend_c, 10, 7552
6, 86400, Pitch_bend_c, 10, 8192
6, 86640, Note_off_c, 10, 52, 80
6, 86640, Note_on_c, 8, 52, 95
6, 86880, Note_off_c, 8, 52, 80
6, 86880, Note_on_c, 8, 52, 95
6, 87120, Note_off_c, 8, 52, 80
6, 87120, Note_on_c, 8, 52, 95
6, 87360, Note_off_c, 8, 52, 80
6, 87360, Note_on_c, 8, 52, 95
6, 87600, Note_off_c, 8, 52, 80
6, 87600, Note_on_c, 8, 52, 95
6, 87840, Note_off_c, 8, 52, 80
6, 87840, Note_on_c, 8, 52, 95
6, 88080, Note_off_c, 8, 52, 80
6, 88080, Note_on_c, 8, 52, 95
6, 88320, Note_off_c, 8, 52, 80
6, 88320, Note_on_c, 8, 45, 95
6, 88800, Note_off_c, 8, 45, 80
6, 88800, Note_on_c, 8, 43, 95
6, 89040, Note_off_c, 8, 43, 80
6, 89040, Note_on_c, 8, 43, 76
6, 89160, Note_off_c, 8, 43, 80
6, 89160, Note_on_c, 8, 43, 95
6, 89280, Note_off_c, 8, 43, 80
6, 89280, Note_on_c, 8, 48, 76
6, 89520, Note_off_c, 8, 48, 80
6, 89520, Note_on_c, 8, 48, 95
6, 89760, Note_off_c, 8, 48, 80
6, 89760, Note_on_c, 8, 53, 95
6, 90240, Note_off_c, 8, 53, 80
6, 90240, Note_on_c, 8, 45, 95
6, 90720, Note_off_c, 8, 45, 80
6, 90720, Note_on_c, 8, 52, 95
6, 90960, Note_off_c, 8, 52, 80
6, 90960, Note_on_c, 8, 52, 95
6, 91080, Note_off_c, 8, 52, 80
6, 91080, Note_on_c, 8, 52, 76
6, 91200, Note_off_c, 8, 52, 80
6, 91200, Note_on_c, 8, 47, 95
6, 91440, Note_off_c, 8, 47, 80
6, 91440, Note_on_c, 8, 47, 95
6, 91680, Note_off_c, 8, 47, 80
6, 91680, Note_on_c, 8, 52, 95
6, 92160, Note_off_c, 8, 52, 80
6, 92160, Note_on_c, 8, 45, 95
6, 92640, Note_off_c, 8, 45, 80
6, 92640, Note_on_c, 8, 43, 95
6, 92880, Note_off_c, 8, 43, 80
6, 92880, Note_on_c, 8, 43, 76
6, 93000, Note_off_c, 8, 43, 80
6, 93000, Note_on_c, 8, 43, 95
6, 93120, Note_off_c, 8, 43, 80
6, 93120, Note_on_c, 8, 48, 76
6, 93360, Note_off_c, 8, 48, 80
6, 93360, Note_on_c, 8, 48, 95
6, 93600, Note_off_c, 8, 48, 80
6, 93600, Note_on_c, 8, 53, 95
6, 94080, Note_off_c, 8, 53, 80
6, 94080, Note_on_c, 8, 45, 95
6, 94560, Note_off_c, 8, 45, 80
6, 94560, Note_on_c, 8, 52, 95
6, 94800, Note_off_c, 8, 52, 80
6, 94800, Note_on_c, 8, 52, 95
6, 94920, Note_off_c, 8, 52, 80
6, 94920, Note_on_c, 8, 52, 76
6, 95040, Note_off_c, 8, 52, 80
6, 95040, Note_on_c, 8, 47, 95
6, 95280, Note_off_c, 8, 47, 80
6, 95280, Note_on_c, 8, 47, 95
6, 95520, Note_off_c, 8, 47, 80
6, 95520, Note_on_c, 8, 52, 95
6, 96000, Note_off_c, 8, 52, 80
6, 96000, Note_on_c, 8, 45, 95
6, 96480, Note_off_c, 8, 45, 80
6, 96480, Note_on_c, 8, 43, 95
6, 96720, Note_off_c, 8, 43, 80
6, 96720, Note_on_c, 8, 43, 76
6, 96840, Note_off_c, 8, 43, 80
6, 96840, Note_on_c, 8, 43, 95
6, 96960, Note_off_c, 8, 43, 80
6, 96960, Note_on_c, 8, 48, 76
6, 97200, Note_off_c, 8, 48, 80
6, 97200, Note_on_c, 8, 48, 95
6, 97440, Note_off_c, 8, 48, 80
6, 97440, Note_on_c, 8, 53, 95
6, 97920, Note_off_c, 8, 53, 80
6, 97920, Note_on_c, 8, 45, 95
6, 98400, Note_off_c, 8, 45, 80
6, 98400, Note_on_c, 8, 52, 95
6, 98640, Note_off_c, 8, 52, 80
6, 98640, Note_on_c, 8, 52, 95
6, 98760, Note_off_c, 8, 52, 80
6, 98760, Note_on_c, 8, 52, 76
6, 98880, Note_off_c, 8, 52, 80
6, 98880, Note_on_c, 8, 48, 95
6, 99120, Note_off_c, 8, 48, 80
6, 99240, Note_on_c, 8, 50, 95
6, 99480, Note_off_c, 8, 50, 80
6, 99600, Note_on_c, 8, 52, 95
6, 99840, Note_off_c, 8, 52, 80
6, 99840, Note_on_c, 8, 45, 95
6, 100320, Note_off_c, 8, 45, 80
6, 100320, Note_on_c, 8, 43, 95
6, 100560, Note_off_c, 8, 43, 80
6, 100560, Note_on_c, 8, 43, 76
6, 100680, Note_off_c, 8, 43, 80
6, 100680, Note_on_c, 8, 43, 95
6, 100800, Note_off_c, 8, 43, 80
6, 100800, Note_on_c, 8, 48, 76
6, 101040, Note_off_c, 8, 48, 80
6, 101040, Note_on_c, 8, 48, 95
6, 101280, Note_off_c, 8, 48, 80
6, 101280, Note_on_c, 8, 53, 95
6, 101760, Note_off_c, 8, 53, 80
6, 101760, Note_on_c, 8, 45, 95
6, 102000, Note_off_c, 8, 45, 80
6, 102000, Note_on_c, 8, 45, 95
6, 102240, Note_off_c, 8, 45, 80
6, 102240, Note_on_c, 8, 52, 95
6, 102480, Note_off_c, 8, 52, 80
6, 102480, Note_on_c, 8, 50, 95
6, 102720, Note_off_c, 8, 50, 80
6, 102720, Note_on_c, 8, 50, 95
6, 102960, Note_off_c, 8, 50, 80
6, 102960, Note_on_c, 8, 48, 95
6, 103200, Note_off_c, 8, 48, 80
6, 103200, Note_on_c, 8, 48, 95
6, 103440, Note_off_c, 8, 48, 80
6, 103440, Note_on_c, 8, 48, 95
6, 103680, Note_off_c, 8, 48, 80
6, 105600, Note_on_c, 8, 53, 95
6, 105840, Note_off_c, 8, 53, 80
6, 105840, Note_on_c, 8, 53, 95
6, 106080, Note_off_c, 8, 53, 80
6, 106080, Note_on_c, 8, 53, 95
6, 106320, Note_off_c, 8, 53, 80
6, 106320, Note_on_c, 8, 53, 95
6, 106560, Note_off_c, 8, 53, 80
6, 106560, Note_on_c, 8, 53, 95
6, 106800, Note_off_c, 8, 53, 80
6, 106800, Note_on_c, 8, 53, 95
6, 107040, Note_off_c, 8, 53, 80
6, 107040, Note_on_c, 8, 53, 95
6, 107280, Note_off_c, 8, 53, 80
6, 107280, Note_on_c, 8, 53, 95
6, 107520, Note_off_c, 8, 53, 80
6, 107520, Note_on_c, 8, 53, 95
6, 107760, Note_off_c, 8, 53, 80
6, 107760, Note_on_c, 8, 53, 95
6, 108000, Note_off_c, 8, 53, 80
6, 108000, Note_on_c, 8, 53, 95
6, 108240, Note_off_c, 8, 53, 80
6, 108240, Note_on_c, 8, 53, 95
6, 108480, Note_off_c, 8, 53, 80
6, 108480, Note_on_c, 8, 53, 95
6, 108720, Note_off_c, 8, 53, 80
6, 108720, Note_on_c, 8, 53, 95
6, 108960, Note_off_c, 8, 53, 80
6, 108960, Note_on_c, 8, 48, 95
6, 109200, Note_off_c, 8, 48, 80
6, 109200, Note_on_c, 8, 52, 95
6, 109440, Note_off_c, 8, 52, 80
6, 109440, Note_on_c, 8, 50, 95
6, 109680, Note_off_c, 8, 50, 80
6, 109680, Note_on_c, 8, 50, 95
6, 109920, Note_off_c, 8, 50, 80
6, 109920, Note_on_c, 8, 50, 95
6, 110160, Note_off_c, 8, 50, 80
6, 110160, Note_on_c, 8, 50, 95
6, 110400, Note_off_c, 8, 50, 80
6, 110400, Note_on_c, 8, 50, 95
6, 110640, Note_off_c, 8, 50, 80
6, 110640, Note_on_c, 8, 50, 95
6, 110880, Note_off_c, 8, 50, 80
6, 110880, Note_on_c, 8, 50, 95
6, 111120, Note_off_c, 8, 50, 80
6, 111120, Note_on_c, 8, 50, 95
6, 111360, Note_off_c, 8, 50, 80
6, 111360, Note_on_c, 8, 50, 95
6, 111600, Note_off_c, 8, 50, 80
6, 111600, Note_on_c, 8, 50, 95
6, 111840, Note_off_c, 8, 50, 80
6, 111840, Note_on_c, 8, 50, 95
6, 112080, Note_off_c, 8, 50, 80
6, 112080, Note_on_c, 8, 50, 95
6, 112320, Note_off_c, 8, 50, 80
6, 112320, Note_on_c, 8, 50, 95
6, 112560, Note_off_c, 8, 50, 80
6, 112560, Note_on_c, 8, 50, 95
6, 112800, Note_off_c, 8, 50, 80
6, 112800, Note_on_c, 8, 50, 95
6, 113040, Note_off_c, 8, 50, 80
6, 113040, Note_on_c, 8, 50, 95
6, 113280, Note_off_c, 8, 50, 80
6, 113280, Note_on_c, 8, 53, 95
6, 113520, Note_off_c, 8, 53, 80
6, 113520, Note_on_c, 8, 53, 95
6, 113760, Note_off_c, 8, 53, 80
6, 113760, Note_on_c, 8, 53, 95
6, 114000, Note_off_c, 8, 53, 80
6, 114000, Note_on_c, 8, 53, 95
6, 114240, Note_off_c, 8, 53, 80
6, 114240, Note_on_c, 8, 53, 95
6, 114480, Note_off_c, 8, 53, 80
6, 114480, Note_on_c, 8, 53, 95
6, 114720, Note_off_c, 8, 53, 80
6, 114720, Note_on_c, 8, 53, 95
6, 114960, Note_off_c, 8, 53, 80
6, 114960, Note_on_c, 8, 53, 95
6, 115200, Note_off_c, 8, 53, 80
6, 115200, Note_on_c, 8, 53, 95
6, 115440, Note_off_c, 8, 53, 80
6, 115440, Note_on_c, 8, 53, 95
6, 115680, Note_off_c, 8, 53, 80
6, 115680, Note_on_c, 8, 53, 95
6, 115920, Note_off_c, 8, 53, 80
6, 115920, Note_on_c, 8, 53, 95
6, 116160, Note_off_c, 8, 53, 80
6, 116160, Note_on_c, 8, 53, 95
6, 116400, Note_off_c, 8, 53, 80
6, 116400, Note_on_c, 8, 53, 95
6, 116640, Note_off_c, 8, 53, 80
6, 116640, Note_on_c, 8, 48, 95
6, 116880, Note_off_c, 8, 48, 80
6, 116880, Note_on_c, 8, 52, 95
6, 117120, Note_off_c, 8, 52, 80
6, 117120, Note_on_c, 8, 50, 95
6, 117360, Note_off_c, 8, 50, 80
6, 117360, Note_on_c, 8, 50, 95
6, 117600, Note_off_c, 8, 50, 80
6, 117600, Note_on_c, 8, 50, 95
6, 117840, Note_off_c, 8, 50, 80
6, 117840, Note_on_c, 8, 50, 95
6, 118080, Note_off_c, 8, 50, 80
6, 118080, Note_on_c, 8, 50, 95
6, 118320, Note_off_c, 8, 50, 80
6, 118320, Note_on_c, 8, 50, 95
6, 118560, Note_off_c, 8, 50, 80
6, 118560, Note_on_c, 8, 50, 95
6, 118800, Note_off_c, 8, 50, 80
6, 118800, Note_on_c, 8, 50, 95
6, 119040, Note_off_c, 8, 50, 80
6, 119040, Note_on_c, 8, 50, 95
6, 119280, Note_off_c, 8, 50, 80
6, 119280, Note_on_c, 8, 50, 95
6, 119520, Note_off_c, 8, 50, 80
6, 119520, Note_on_c, 8, 50, 95
6, 119760, Note_off_c, 8, 50, 80
6, 119760, Note_on_c, 8, 50, 95
6, 120000, Note_off_c, 8, 50, 80
6, 120000, Note_on_c, 8, 50, 95
6, 120240, Note_off_c, 8, 50, 80
6, 120240, Note_on_c, 8, 50, 95
6, 120480, Note_off_c, 8, 50, 80
6, 120480, Note_on_c, 8, 50, 95
6, 120720, Note_off_c, 8, 50, 80
6, 120720, Note_on_c, 8, 50, 95
6, 120960, Note_off_c, 8, 50, 80
6, 121200, Note_on_c, 8, 53, 95
6, 121440, Note_off_c, 8, 53, 80
6, 121680, Note_on_c, 8, 53, 95
6, 121920, Note_off_c, 8, 53, 80
6, 122160, Note_on_c, 8, 53, 95
6, 122400, Note_off_c, 8, 53, 80
6, 122640, Note_on_c, 8, 53, 95
6, 122880, Note_off_c, 8, 53, 80
6, 123120, Note_on_c, 8, 53, 95
6, 123360, Note_off_c, 8, 53, 80
6, 123600, Note_on_c, 8, 53, 95
6, 123840, Note_off_c, 8, 53, 80
6, 124080, Note_on_c, 8, 53, 95
6, 124320, Note_off_c, 8, 53, 80
6, 124560, Note_on_c, 8, 53, 95
6, 124800, Note_off_c, 8, 53, 80
6, 125040, Note_on_c, 8, 50, 95
6, 125280, Note_off_c, 8, 50, 80
6, 125520, Note_on_c, 8, 50, 95
6, 125760, Note_off_c, 8, 50, 80
6, 126000, Note_on_c, 8, 50, 95
6, 126240, Note_off_c, 8, 50, 80
6, 126480, Note_on_c, 8, 50, 95
6, 126720, Note_off_c, 8, 50, 80
6, 126960, Note_on_c, 8, 50, 95
6, 127200, Note_off_c, 8, 50, 80
6, 127440, Note_on_c, 8, 50, 95
6, 127680, Note_off_c, 8, 50, 80
6, 127920, Note_on_c, 8, 50, 95
6, 128160, Note_off_c, 8, 50, 80
6, 128400, Note_on_c, 8, 50, 95
6, 128640, Note_off_c, 8, 50, 80
6, 128880, Note_on_c, 8, 53, 95
6, 129120, Note_off_c, 8, 53, 80
6, 129360, Note_on_c, 8, 53, 95
6, 129600, Note_off_c, 8, 53, 80
6, 129840, Note_on_c, 8, 53, 95
6, 130080, Note_off_c, 8, 53, 80
6, 130320, Note_on_c, 8, 53, 95
6, 130560, Note_off_c, 8, 53, 80
6, 130800, Note_on_c, 8, 53, 95
6, 131040, Note_off_c, 8, 53, 80
6, 131280, Note_on_c, 8, 53, 95
6, 131520, Note_off_c, 8, 53, 80
6, 131760, Note_on_c, 8, 53, 95
6, 132000, Note_off_c, 8, 53, 80
6, 132240, Note_on_c, 8, 53, 95
6, 132480, Note_off_c, 8, 53, 80
6, 132480, Note_on_c, 8, 50, 95
6, 132720, Note_off_c, 8, 50, 80
6, 132720, Note_on_c, 8, 50, 95
6, 132960, Note_off_c, 8, 50, 80
6, 132960, Note_on_c, 8, 50, 95
6, 133200, Note_off_c, 8, 50, 80
6, 133200, Note_on_c, 8, 50, 95
6, 133440, Note_off_c, 8, 50, 80
6, 133440, Note_on_c, 8, 50, 95
6, 133680, Note_off_c, 8, 50, 80
6, 133680, Note_on_c, 8, 50, 95
6, 133920, Note_off_c, 8, 50, 80
6, 133920, Note_on_c, 8, 50, 95
6, 134160, Note_off_c, 8, 50, 80
6, 134160, Note_on_c, 8, 50, 95
6, 134400, Note_off_c, 8, 50, 80
6, 134400, Note_on_c, 8, 50, 95
6, 134640, Note_off_c, 8, 50, 80
6, 134640, Note_on_c, 8, 50, 95
6, 134880, Note_off_c, 8, 50, 80
6, 134880, Note_on_c, 8, 50, 95
6, 135120, Note_off_c, 8, 50, 80
6, 135120, Note_on_c, 8, 50, 95
6, 135360, Note_off_c, 8, 50, 80
6, 135360, Note_on_c, 8, 50, 95
6, 135600, Note_off_c, 8, 50, 80
6, 135600, Note_on_c, 8, 50, 95
6, 135840, Note_off_c, 8, 50, 80
6, 135840, Note_on_c, 8, 50, 95
6, 136080, Note_off_c, 8, 50, 80
6, 136080, Note_on_c, 8, 50, 95
6, 136320, Note_off_c, 8, 50, 80
6, 136320, Note_on_c, 8, 45, 95
6, 136800, Note_off_c, 8, 45, 80
6, 136800, Note_on_c, 8, 45, 95
6, 137160, Note_off_c, 8, 45, 80
6, 137160, Note_on_c, 8, 45, 95
6, 137279, Note_off_c, 8, 45, 80
6, 137280, Note_on_c, 8, 43, 95
6, 137520, Note_off_c, 8, 43, 80
6, 137520, Note_on_c, 8, 43, 95
6, 137760, Note_off_c, 8, 43, 80
6, 137760, Note_on_c, 8, 43, 95
6, 138000, Note_off_c, 8, 43, 80
6, 138000, Note_on_c, 8, 43, 95
6, 138240, Note_off_c, 8, 43, 80
6, 138240, Note_on_c, 8, 40, 95
6, 138720, Note_off_c, 8, 40, 80
6, 138720, Note_on_c, 8, 40, 95
6, 139200, Note_off_c, 8, 40, 80
6, 140160, Note_on_c, 8, 45, 95
6, 140640, Note_off_c, 8, 45, 80
6, 140640, Note_on_c, 8, 45, 95
6, 141000, Note_off_c, 8, 45, 80
6, 141000, Note_on_c, 8, 45, 95
6, 141119, Note_off_c, 8, 45, 80
6, 141120, Note_on_c, 8, 43, 95
6, 141360, Note_off_c, 8, 43, 80
6, 141360, Note_on_c, 8, 43, 95
6, 141600, Note_off_c, 8, 43, 80
6, 141600, Note_on_c, 8, 43, 95
6, 141840, Note_off_c, 8, 43, 80
6, 141840, Note_on_c, 8, 43, 95
6, 142080, Note_off_c, 8, 43, 80
6, 142080, Note_on_c, 8, 40, 95
6, 142560, Note_off_c, 8, 40, 80
6, 142560, Note_on_c, 8, 40, 95
6, 143040, Note_off_c, 8, 40, 80
6, 144000, Note_on_c, 8, 45, 95
6, 144480, Note_off_c, 8, 45, 80
6, 144480, Note_on_c, 8, 45, 95
6, 144840, Note_off_c, 8, 45, 80
6, 144840, Note_on_c, 8, 45, 95
6, 144959, Note_off_c, 8, 45, 80
6, 144960, Note_on_c, 8, 43, 95
6, 145200, Note_off_c, 8, 43, 80
6, 145200, Note_on_c, 8, 43, 95
6, 145440, Note_off_c, 8, 43, 80
6, 145440, Note_on_c, 8, 43, 95
6, 145680, Note_off_c, 8, 43, 80
6, 145680, Note_on_c, 8, 43, 95
6, 145920, Note_off_c, 8, 43, 80
6, 145920, Note_on_c, 8, 52, 95
6, 146400, Note_off_c, 8, 52, 80
6, 146400, Note_on_c, 10, 52, 95
6, 146592, Pitch_bend_c, 10, 7552
6, 146618, Pitch_bend_c, 10, 6784
6, 146644, Pitch_bend_c, 10, 6144
6, 146671, Pitch_bend_c, 10, 5504
6, 146697, Pitch_bend_c, 10, 4736
6, 146723, Pitch_bend_c, 10, 4096
6, 146749, Pitch_bend_c, 10, 3456
6, 146775, Pitch_bend_c, 10, 2688
6, 146801, Pitch_bend_c, 10, 2048
6, 146828, Pitch_bend_c, 10, 1408
6, 146854, Pitch_bend_c, 10, 640
6, 146880, Pitch_bend_c, 10, 0
6, 147360, Note_off_c, 10, 52, 80
6, 147360, Pitch_bend_c, 10, 8192
6, 147840, Note_on_c, 8, 45, 95
6, 148320, Note_off_c, 8, 45, 80
6, 148320, Note_on_c, 8, 45, 95
6, 148680, Note_off_c, 8, 45, 80
6, 148680, Note_on_c, 8, 45, 95
6, 148799, Note_off_c, 8, 45, 80
6, 148800, Note_on_c, 8, 43, 95
6, 149040, Note_off_c, 8, 43, 80
6, 149040, Note_on_c, 8, 43, 95
6, 149280, Note_off_c, 8, 43, 80
6, 149280, Note_on_c, 8, 43, 95
6, 149520, Note_off_c, 8, 43, 80
6, 149520, Note_on_c, 8, 43, 95
6, 149760, Note_off_c, 8, 43, 80
6, 149760, Note_on_c, 8, 40, 95
6, 150240, Note_off_c, 8, 40, 80
6, 150240, Note_on_c, 8, 40, 95
6, 150720, Note_off_c, 8, 40, 80
6, 150720, Note_on_c, 8, 50, 95
6, 151200, Note_off_c, 8, 50, 80
6, 151200, Note_on_c, 8, 48, 95
6, 151680, Note_off_c, 8, 48, 80
6, 151680, Note_on_c, 8, 48, 89
6, 153600, Note_off_c, 8, 48, 80
6, 172800, Note_on_c, 8, 45, 95
6, 173040, Note_off_c, 8, 45, 80
6, 173040, Note_on_c, 8, 45, 95
6, 173280, Note_off_c, 8, 45, 80
6, 173280, Note_on_c, 8, 52, 95
6, 173520, Note_off_c, 8, 52, 80
6, 173520, Note_on_c, 8, 52, 95
6, 173760, Note_off_c, 8, 52, 80
6, 173760, Note_on_c, 8, 50, 95
6, 174000, Note_off_c, 8, 50, 80
6, 174000, Note_on_c, 8, 50, 95
6, 174240, Note_off_c, 8, 50, 80
6, 174240, Note_on_c, 8, 48, 95
6, 174480, Note_off_c, 8, 48, 80
6, 174480, Note_on_c, 8, 48, 95
6, 174720, Note_off_c, 8, 48, 80
6, 174720, Note_on_c, 8, 45, 95
6, 175200, Note_off_c, 8, 45, 80
6, 175200, Note_on_c, 8, 43, 95
6, 175440, Note_off_c, 8, 43, 80
6, 175440, Note_on_c, 8, 43, 76
6, 175560, Note_off_c, 8, 43, 80
6, 175560, Note_on_c, 8, 43, 95
6, 175680, Note_off_c, 8, 43, 80
6, 175680, Note_on_c, 8, 48, 76
6, 175920, Note_off_c, 8, 48, 80
6, 175920, Note_on_c, 8, 48, 95
6, 176160, Note_off_c, 8, 48, 80
6, 176160, Note_on_c, 8, 53, 95
6, 176640, Note_off_c, 8, 53, 80
6, 176640, Note_on_c, 8, 45, 95
6, 177120, Note_off_c, 8, 45, 80
6, 177120, Note_on_c, 8, 52, 95
6, 177360, Note_off_c, 8, 52, 80
6, 177360, Note_on_c, 8, 52, 95
6, 177480, Note_off_c, 8, 52, 80
6, 177480, Note_on_c, 8, 52, 76
6, 177600, Note_off_c, 8, 52, 80
6, 177600, Note_on_c, 8, 47, 95
6, 177840, Note_off_c, 8, 47, 80
6, 177840, Note_on_c, 8, 47, 95
6, 178080, Note_off_c, 8, 47, 80
6, 178080, Note_on_c, 8, 52, 95
6, 178560, Note_off_c, 8, 52, 80
6, 178560, Note_on_c, 8, 45, 95
6, 179040, Note_off_c, 8, 45, 80
6, 179040, Note_on_c, 8, 43, 95
6, 179280, Note_off_c, 8, 43, 80
6, 179280, Note_on_c, 8, 43, 76
6, 179400, Note_off_c, 8, 43, 80
6, 179400, Note_on_c, 8, 43, 95
6, 179520, Note_off_c, 8, 43, 80
6, 179520, Note_on_c, 8, 48, 76
6, 179760, Note_off_c, 8, 48, 80
6, 179760, Note_on_c, 8, 48, 95
6, 180000, Note_off_c, 8, 48, 80
6, 180000, Note_on_c, 8, 53, 95
6, 180480, Note_off_c, 8, 53, 80
6, 180480, Note_on_c, 8, 45, 95
6, 180960, Note_off_c, 8, 45, 80
6, 180960, Note_on_c, 8, 52, 95
6, 181200, Note_off_c, 8, 52, 80
6, 181200, Note_on_c, 8, 52, 95
6, 181320, Note_off_c, 8, 52, 80
6, 181320, Note_on_c, 8, 52, 76
6, 181440, Note_off_c, 8, 52, 80
6, 181440, Note_on_c, 8, 47, 95
6, 181680, Note_off_c, 8, 47, 80
6, 181680, Note_on_c, 8, 47, 95
6, 181920, Note_off_c, 8, 47, 80
6, 181920, Note_on_c, 8, 52, 95
6, 182400, Note_off_c, 8, 52, 80
6, 182400, Note_on_c, 8, 45, 95
6, 182880, Note_off_c, 8, 45, 80
6, 182880, Note_on_c, 8, 43, 95
6, 183120, Note_off_c, 8, 43, 80
6, 183120, Note_on_c, 8, 43, 76
6, 183240, Note_off_c, 8, 43, 80
6, 183240, Note_on_c, 8, 43, 95
6, 183360, Note_off_c, 8, 43, 80
6, 183360, Note_on_c, 8, 48, 76
6, 183600, Note_off_c, 8, 48, 80
6, 183600, Note_on_c, 8, 48, 95
6, 183840, Note_off_c, 8, 48, 80
6, 183840, Note_on_c, 8, 53, 95
6, 184320, Note_off_c, 8, 53, 80
6, 184320, Note_on_c, 8, 45, 95
6, 184800, Note_off_c, 8, 45, 80
6, 184800, Note_on_c, 8, 52, 95
6, 185040, Note_off_c, 8, 52, 80
6, 185040, Note_on_c, 8, 52, 95
6, 185160, Note_off_c, 8, 52, 80
6, 185160, Note_on_c, 8, 52, 76
6, 185280, Note_off_c, 8, 52, 80
6, 185280, Note_on_c, 8, 48, 95
6, 185520, Note_off_c, 8, 48, 80
6, 185640, Note_on_c, 8, 50, 95
6, 185880, Note_off_c, 8, 50, 80
6, 186000, Note_on_c, 8, 52, 95
6, 186240, Note_off_c, 8, 52, 80
6, 186240, Note_on_c, 8, 45, 95
6, 186720, Note_off_c, 8, 45, 80
6, 186720, Note_on_c, 8, 43, 95
6, 186960, Note_off_c, 8, 43, 80
6, 186960, Note_on_c, 8, 43, 76
6, 187080, Note_off_c, 8, 43, 80
6, 187080, Note_on_c, 8, 43, 95
6, 187200, Note_off_c, 8, 43, 80
6, 187200, Note_on_c, 8, 48, 76
6, 187440, Note_off_c, 8, 48, 80
6, 187440, Note_on_c, 8, 48, 95
6, 187680, Note_off_c, 8, 48, 80
6, 187680, Note_on_c, 8, 53, 95
6, 188160, Note_off_c, 8, 53, 80
6, 188160, Note_on_c, 8, 45, 95
6, 188400, Note_off_c, 8, 45, 80
6, 188400, Note_on_c, 8, 45, 95
6, 188640, Note_off_c, 8, 45, 80
6, 188640, Note_on_c, 8, 52, 95
6, 188880, Note_off_c, 8, 52, 80
6, 188880, Note_on_c, 8, 50, 95
6, 189120, Note_off_c, 8, 50, 80
6, 189120, Note_on_c, 8, 50, 95
6, 189360, Note_off_c, 8, 50, 80
6, 189360, Note_on_c, 8, 48, 95
6, 189600, Note_off_c, 8, 48, 80
6, 189600, Note_on_c, 8, 48, 95
6, 189840, Note_off_c, 8, 48, 80
6, 189840, Note_on_c, 8, 48, 95
6, 190080, Note_off_c, 8, 48, 80
6, 193920, Note_on_c, 8, 53, 95
6, 194160, Note_off_c, 8, 53, 80
6, 194160, Note_on_c, 8, 53, 95
6, 194400, Note_off_c, 8, 53, 80
6, 194400, Note_on_c, 8, 53, 95
6, 194640, Note_off_c, 8, 53, 80
6, 194640, Note_on_c, 8, 53, 95
6, 194880, Note_off_c, 8, 53, 80
6, 194880, Note_on_c, 8, 53, 95
6, 195120, Note_off_c, 8, 53, 80
6, 195120, Note_on_c, 8, 53, 95
6, 195360, Note_off_c, 8, 53, 80
6, 195360, Note_on_c, 8, 53, 95
6, 195600, Note_off_c, 8, 53, 80
6, 195600, Note_on_c, 8, 53, 95
6, 195840, Note_off_c, 8, 53, 80
6, 195840, Note_on_c, 8, 53, 95
6, 196080, Note_off_c, 8, 53, 80
6, 196080, Note_on_c, 8, 53, 95
6, 196320, Note_off_c, 8, 53, 80
6, 196320, Note_on_c, 8, 53, 95
6, 196560, Note_off_c, 8, 53, 80
6, 196560, Note_on_c, 8, 53, 95
6, 196800, Note_off_c, 8, 53, 80
6, 196800, Note_on_c, 8, 53, 95
6, 197040, Note_off_c, 8, 53, 80
6, 197040, Note_on_c, 8, 53, 95
6, 197280, Note_off_c, 8, 53, 80
6, 197280, Note_on_c, 8, 48, 95
6, 197520, Note_off_c, 8, 48, 80
6, 197520, Note_on_c, 8, 52, 95
6, 197760, Note_off_c, 8, 52, 80
6, 197760, Note_on_c, 8, 50, 95
6, 198000, Note_off_c, 8, 50, 80
6, 198000, Note_on_c, 8, 50, 95
6, 198240, Note_off_c, 8, 50, 80
6, 198240, Note_on_c, 8, 50, 95
6, 198480, Note_off_c, 8, 50, 80
6, 198480, Note_on_c, 8, 50, 95
6, 198720, Note_off_c, 8, 50, 80
6, 198720, Note_on_c, 8, 50, 95
6, 198960, Note_off_c, 8, 50, 80
6, 198960, Note_on_c, 8, 50, 95
6, 199200, Note_off_c, 8, 50, 80
6, 199200, Note_on_c, 8, 50, 95
6, 199440, Note_off_c, 8, 50, 80
6, 199440, Note_on_c, 8, 50, 95
6, 199680, Note_off_c, 8, 50, 80
6, 199680, Note_on_c, 8, 50, 95
6, 199920, Note_off_c, 8, 50, 80
6, 199920, Note_on_c, 8, 50, 95
6, 200160, Note_off_c, 8, 50, 80
6, 200160, Note_on_c, 8, 50, 95
6, 200400, Note_off_c, 8, 50, 80
6, 200400, Note_on_c, 8, 50, 95
6, 200640, Note_off_c, 8, 50, 80
6, 200640, Note_on_c, 8, 50, 95
6, 200880, Note_off_c, 8, 50, 80
6, 200880, Note_on_c, 8, 50, 95
6, 201120, Note_off_c, 8, 50, 80
6, 201120, Note_on_c, 8, 50, 95
6, 201360, Note_off_c, 8, 50, 80
6, 201360, Note_on_c, 8, 50, 95
6, 201600, Note_off_c, 8, 50, 80
6, 201600, Note_on_c, 8, 53, 95
6, 201840, Note_off_c, 8, 53, 80
6, 201840, Note_on_c, 8, 53, 95
6, 202080, Note_off_c, 8, 53, 80
6, 202080, Note_on_c, 8, 53, 95
6, 202320, Note_off_c, 8, 53, 80
6, 202320, Note_on_c, 8, 53, 95
6, 202560, Note_off_c, 8, 53, 80
6, 202560, Note_on_c, 8, 53, 95
6, 202800, Note_off_c, 8, 53, 80
6, 202800, Note_on_c, 8, 53, 95
6, 203040, Note_off_c, 8, 53, 80
6, 203040, Note_on_c, 8, 53, 95
6, 203280, Note_off_c, 8, 53, 80
6, 203280, Note_on_c, 8, 53, 95
6, 203520, Note_off_c, 8, 53, 80
6, 203520, Note_on_c, 8, 53, 95
6, 203760, Note_off_c, 8, 53, 80
6, 203760, Note_on_c, 8, 53, 95
6, 204000, Note_off_c, 8, 53, 80
6, 204000, Note_on_c, 8, 53, 95
6, 204240, Note_off_c, 8, 53, 80
6, 204240, Note_on_c, 8, 53, 95
6, 204480, Note_off_c, 8, 53, 80
6, 204480, Note_on_c, 8, 53, 95
6, 204720, Note_off_c, 8, 53, 80
6, 204720, Note_on_c, 8, 53, 95
6, 204960, Note_off_c, 8, 53, 80
6, 204960, Note_on_c, 8, 48, 95
6, 205200, Note_off_c, 8, 48, 80
6, 205200, Note_on_c, 8, 52, 95
6, 205440, Note_off_c, 8, 52, 80
6, 205440, Note_on_c, 8, 50, 95
6, 205680, Note_off_c, 8, 50, 80
6, 205680, Note_on_c, 8, 50, 95
6, 205920, Note_off_c, 8, 50, 80
6, 205920, Note_on_c, 8, 50, 95
6, 206160, Note_off_c, 8, 50, 80
6, 206160, Note_on_c, 8, 50, 95
6, 206400, Note_off_c, 8, 50, 80
6, 206400, Note_on_c, 8, 50, 95
6, 206640, Note_off_c, 8, 50, 80
6, 206640, Note_on_c, 8, 50, 95
6, 206880, Note_off_c, 8, 50, 80
6, 206880, Note_on_c, 8, 50, 95
6, 207120, Note_off_c, 8, 50, 80
6, 207120, Note_on_c, 8, 50, 95
6, 207360, Note_off_c, 8, 50, 80
6, 207360, Note_on_c, 8, 50, 95
6, 207600, Note_off_c, 8, 50, 80
6, 207600, Note_on_c, 8, 50, 95
6, 207840, Note_off_c, 8, 50, 80
6, 207840, Note_on_c, 8, 50, 95
6, 208080, Note_off_c, 8, 50, 80
6, 208080, Note_on_c, 8, 50, 95
6, 208320, Note_off_c, 8, 50, 80
6, 208320, Note_on_c, 8, 50, 95
6, 208560, Note_off_c, 8, 50, 80
6, 208560, Note_on_c, 8, 50, 95
6, 208800, Note_off_c, 8, 50, 80
6, 208800, Note_on_c, 8, 50, 95
6, 209040, Note_off_c, 8, 50, 80
6, 209040, Note_on_c, 8, 50, 95
6, 209280, Note_off_c, 8, 50, 80
6, 209520, Note_on_c, 8, 53, 95
6, 209760, Note_off_c, 8, 53, 80
6, 210000, Note_on_c, 8, 53, 95
6, 210240, Note_off_c, 8, 53, 80
6, 210480, Note_on_c, 8, 53, 95
6, 210720, Note_off_c, 8, 53, 80
6, 210960, Note_on_c, 8, 53, 95
6, 211200, Note_off_c, 8, 53, 80
6, 211440, Note_on_c, 8, 53, 95
6, 211680, Note_off_c, 8, 53, 80
6, 211920, Note_on_c, 8, 53, 95
6, 212160, Note_off_c, 8, 53, 80
6, 212400, Note_on_c, 8, 53, 95
6, 212640, Note_off_c, 8, 53, 80
6, 212880, Note_on_c, 8, 53, 95
6, 213120, Note_off_c, 8, 53, 80
6, 213360, Note_on_c, 8, 50, 95
6, 213600, Note_off_c, 8, 50, 80
6, 213840, Note_on_c, 8, 50, 95
6, 214080, Note_off_c, 8, 50, 80
6, 214320, Note_on_c, 8, 50, 95
6, 214560, Note_off_c, 8, 50, 80
6, 214800, Note_on_c, 8, 50, 95
6, 215040, Note_off_c, 8, 50, 80
6, 215280, Note_on_c, 8, 50, 95
6, 215520, Note_off_c, 8, 50, 80
6, 215760, Note_on_c, 8, 50, 95
6, 216000, Note_off_c, 8, 50, 80
6, 217200, Note_on_c, 8, 53, 95
6, 217440, Note_off_c, 8, 53, 80
6, 217680, Note_on_c, 8, 53, 95
6, 217920, Note_off_c, 8, 53, 80
6, 218160, Note_on_c, 8, 53, 95
6, 218400, Note_off_c, 8, 53, 80
6, 218640, Note_on_c, 8, 53, 95
6, 218880, Note_off_c, 8, 53, 80
6, 219120, Note_on_c, 8, 53, 95
6, 219360, Note_off_c, 8, 53, 80
6, 219600, Note_on_c, 8, 53, 95
6, 219840, Note_off_c, 8, 53, 80
6, 220080, Note_on_c, 8, 53, 95
6, 220320, Note_off_c, 8, 53, 80
6, 220560, Note_on_c, 8, 53, 95
6, 220800, Note_off_c, 8, 53, 80
6, 220800, Note_on_c, 8, 50, 95
6, 221040, Note_off_c, 8, 50, 80
6, 221040, Note_on_c, 8, 50, 95
6, 221280, Note_off_c, 8, 50, 80
6, 221280, Note_on_c, 8, 50, 95
6, 221520, Note_off_c, 8, 50, 80
6, 221520, Note_on_c, 8, 50, 95
6, 221760, Note_off_c, 8, 50, 80
6, 221760, Note_on_c, 8, 50, 95
6, 222000, Note_off_c, 8, 50, 80
6, 222000, Note_on_c, 8, 50, 95
6, 222240, Note_off_c, 8, 50, 80
6, 222240, Note_on_c, 8, 50, 95
6, 222480, Note_off_c, 8, 50, 80
6, 222480, Note_on_c, 8, 50, 95
6, 222720, Note_off_c, 8, 50, 80
6, 222720, Note_on_c, 8, 50, 95
6, 222960, Note_off_c, 8, 50, 80
6, 222960, Note_on_c, 8, 50, 95
6, 223200, Note_off_c, 8, 50, 80
6, 223200, Note_on_c, 8, 50, 95
6, 223440, Note_off_c, 8, 50, 80
6, 223440, Note_on_c, 8, 50, 95
6, 223680, Note_off_c, 8, 50, 80
6, 223680, Note_on_c, 8, 50, 95
6, 223920, Note_off_c, 8, 50, 80
6, 223920, Note_on_c, 8, 50, 95
6, 224160, Note_off_c, 8, 50, 80
6, 224160, Note_on_c, 8, 50, 95
6, 224400, Note_off_c, 8, 50, 80
6, 224400, Note_on_c, 8, 50, 95
6, 224640, Note_off_c, 8, 50, 80
6, 232320, Note_on_c, 8, 45, 95
6, 232560, Note_off_c, 8, 45, 80
6, 232560, Note_on_c, 8, 45, 95
6, 232800, Note_off_c, 8, 45, 80
6, 232800, Note_on_c, 8, 57, 95
6, 233280, Note_off_c, 8, 57, 80
6, 233280, Note_on_c, 10, 43, 95
6, 233472, Pitch_bend_c, 10, 8832
6, 233520, Pitch_bend_c, 10, 8192
6, 233610, Pitch_bend_c, 10, 8832
6, 233618, Pitch_bend_c, 10, 9600
6, 233625, Pitch_bend_c, 10, 10240
6, 233632, Pitch_bend_c, 10, 10880
6, 233640, Pitch_bend_c, 10, 11648
6, 234120, Note_off_c, 10, 43, 80
6, 234120, Note_on_c, 8, 48, 76
6, 234240, Note_off_c, 8, 48, 80
6, 234240, Note_on_c, 8, 45, 95
6, 234480, Note_off_c, 8, 45, 80
6, 234480, Note_on_c, 8, 45, 95
6, 234720, Note_off_c, 8, 45, 80
6, 234720, Note_on_c, 8, 57, 95
6, 235200, Note_off_c, 8, 57, 80
6, 235200, Note_on_c, 10, 43, 95
6, 235392, Pitch_bend_c, 10, 8832
6, 235440, Pitch_bend_c, 10, 8192
6, 235530, Pitch_bend_c, 10, 8832
6, 235538, Pitch_bend_c, 10, 9600
6, 235545, Pitch_bend_c, 10, 10240
6, 235552, Pitch_bend_c, 10, 10880
6, 235560, Pitch_bend_c, 10, 11648
6, 236040, Note_off_c, 10, 43, 80
6, 236040, Note_on_c, 8, 48, 76
6, 236160, Note_off_c, 8, 48, 80
6, 236160, Note_on_c, 8, 45, 95
6, 236400, Note_off_c, 8, 45, 80
6, 236400, Note_on_c, 8, 45, 95
6, 236640, Note_off_c, 8, 45, 80
6, 236640, Note_on_c, 8, 57, 95
6, 237120, Note_off_c, 8, 57, 80
6, 237120, Note_on_c, 10, 43, 95
6, 237312, Pitch_bend_c, 10, 8832
6, 237360, Pitch_bend_c, 10, 8192
6, 237450, Pitch_bend_c, 10, 8832
6, 237458, Pitch_bend_c, 10, 9600
6, 237465, Pitch_bend_c, 10, 10240
6, 237472, Pitch_bend_c, 10, 10880
6, 237480, Pitch_bend_c, 10, 11648
6, 237960, Note_off_c, 10, 43, 80
6, 237960, Note_on_c, 8, 48, 76
6, 238080, Note_off_c, 8, 48, 80
6, 240000, Note_on_c, 8, 45, 95
6, 240240, Note_off_c, 8, 45, 80
6, 240240, Note_on_c, 8, 45, 95
6, 240480, Note_off_c, 8, 45, 80
6, 240480, Note_on_c, 8, 57, 95
6, 240960, Note_off_c, 8, 57, 80
6, 240960, Note_on_c, 10, 43, 95
6, 241152, Pitch_bend_c, 10, 8832
6, 241200, Pitch_bend_c, 10, 8192
6, 241290, Pitch_bend_c, 10, 8832
6, 241298, Pitch_bend_c, 10, 9600
6, 241305, Pitch_bend_c, 10, 10240
6, 241312, Pitch_bend_c, 10, 10880
6, 241320, Pitch_bend_c, 10, 11648
6, 241800, Note_off_c, 10, 43, 80
6, 241800, Note_on_c, 8, 48, 76
6, 241920, Note_off_c, 8, 48, 80
6, 241920, End_track
7, 0, Start_track
7, 0, Title_t, "Percussion"
7, 0, Control_c, 9, 100, 0
7, 0, Control_c, 9, 101, 0
7, 0, Control_c, 9, 6, 12
7, 0, Pitch_bend_c, 9, 8192
7, 0, Control_c, 9, 101, 0
7, 0, Control_c, 9, 100, 1
7, 0, Control_c, 9, 6, 64
7, 0, Control_c, 9, 38, 0
7, 0, Control_c, 9, 101, 127
7, 0, Control_c, 9, 100, 127
7, 0, Program_c, 9, 124
7, 0, Control_c, 9, 0, 0
7, 0, Control_c, 9, 7, 127
7, 0, Control_c, 9, 10, 64
7, 0, Control_c, 9, 93, 0
7, 0, Control_c, 9, 91, 0
7, 0, Control_c, 9, 92, 0
7, 0, Control_c, 9, 95, 0
7, 960, Note_on_c, 9, 40, 127
7, 1080, Note_off_c, 9, 40, 80
7, 1080, Note_on_c, 9, 40, 95
7, 1200, Note_off_c, 9, 40, 80
7, 1200, Note_on_c, 9, 45, 95
7, 1200, Note_on_c, 9, 36, 95
7, 1320, Note_off_c, 9, 45, 80
7, 1320, Note_off_c, 9, 36, 80
7, 1320, Note_on_c, 9, 45, 95
7, 1320, Note_on_c, 9, 36, 95
7, 1440, Note_off_c, 9, 45, 80
7, 1440, Note_off_c, 9, 36, 80
7, 1440, Note_on_c, 9, 43, 127
7, 1440, Note_on_c, 9, 36, 127
7, 1560, Note_off_c, 9, 43, 80
7, 1560, Note_off_c, 9, 36, 80
7, 1560, Note_on_c, 9, 43, 95
7, 1560, Note_on_c, 9, 36, 95
7, 1680, Note_off_c, 9, 43, 80
7, 1680, Note_off_c, 9, 36, 80
7, 1680, Note_on_c, 9, 41, 95
7, 1680, Note_on_c, 9, 36, 95
7, 1800, Note_off_c, 9, 41, 80
7, 1800, Note_off_c, 9, 36, 80
7, 1800, Note_on_c, 9, 41, 95
7, 1800, Note_on_c, 9, 36, 95
7, 1920, Note_off_c, 9, 41, 80
7, 1920, Note_off_c, 9, 36, 80
7, 1920, Note_on_c, 9, 40, 127
7, 1920, Note_on_c, 9, 57, 127
7, 2160, Note_off_c, 9, 40, 80
7, 2160, Note_off_c, 9, 57, 80
7, 2160, Note_on_c, 9, 36, 95
7, 2400, Note_off_c, 9, 36, 80
7, 2400, Note_on_c, 9, 40, 127
7, 2640, Note_off_c, 9, 40, 80
7, 2640, Note_on_c, 9, 36, 95
7, 2880, Note_off_c, 9, 36, 80
7, 2880, Note_on_c, 9, 40, 127
7, 3120, Note_off_c, 9, 40, 80
7, 3120, Note_on_c, 9, 36, 95
7, 3360, Note_off_c, 9, 36, 80
7, 3360, Note_on_c, 9, 40, 127
7, 3600, Note_off_c, 9, 40, 80
7, 3600, Note_on_c, 9, 36, 95
7, 3840, Note_off_c, 9, 36, 80
7, 3840, Note_on_c, 9, 40, 127
7, 4080, Note_off_c, 9, 40, 80
7, 4080, Note_on_c, 9, 36, 95
7, 4320, Note_off_c, 9, 36, 80
7, 4320, Note_on_c, 9, 40, 127
7, 4560, Note_off_c, 9, 40, 80
7, 4560, Note_on_c, 9, 36, 95
7, 4800, Note_off_c, 9, 36, 80
7, 4800, Note_on_c, 9, 40, 127
7, 5040, Note_off_c, 9, 40, 80
7, 5040, Note_on_c, 9, 36, 95
7, 5280, Note_off_c, 9, 36, 80
7, 5280, Note_on_c, 9, 40, 127
7, 5520, Note_off_c, 9, 40, 80
7, 5520, Note_on_c, 9, 36, 95
7, 5760, Note_off_c, 9, 36, 80
7, 5760, Note_on_c, 9, 40, 127
7, 6000, Note_off_c, 9, 40, 80
7, 6000, Note_on_c, 9, 36, 95
7, 6240, Note_off_c, 9, 36, 80
7, 6240, Note_on_c, 9, 40, 127
7, 6480, Note_off_c, 9, 40, 80
7, 6480, Note_on_c, 9, 36, 95
7, 6720, Note_off_c, 9, 36, 80
7, 6720, Note_on_c, 9, 40, 127
7, 6960, Note_off_c, 9, 40, 80
7, 6960, Note_on_c, 9, 36, 95
7, 7200, Note_off_c, 9, 36, 80
7, 7200, Note_on_c, 9, 40, 127
7, 7440, Note_off_c, 9, 40, 80
7, 7440, Note_on_c, 9, 36, 95
7, 7680, Note_off_c, 9, 36, 80
7, 7680, Note_on_c, 9, 40, 127
7, 7680, Note_on_c, 9, 36, 127
7, 7680, Note_on_c, 9, 57, 127
7, 8160, Note_off_c, 9, 40, 80
7, 8160, Note_off_c, 9, 36, 80
7, 8160, Note_off_c, 9, 57, 80
7, 8160, Note_on_c, 9, 40, 127
7, 8160, Note_on_c, 9, 36, 127
7, 8160, Note_on_c, 9, 57, 127
7, 8640, Note_off_c, 9, 40, 80
7, 8640, Note_off_c, 9, 36, 80
7, 8640, Note_off_c, 9, 57, 80
7, 8640, Note_on_c, 9, 36, 127
7, 8640, Note_on_c, 9, 57, 127
7, 8760, Note_off_c, 9, 36, 80
7, 8760, Note_off_c, 9, 57, 80
7, 8760, Note_on_c, 9, 36, 95
7, 8760, Note_on_c, 9, 57, 95
7, 8880, Note_off_c, 9, 36, 80
7, 8880, Note_off_c, 9, 57, 80
7, 8880, Note_on_c, 9, 40, 95
7, 8880, Note_on_c, 9, 45, 95
7, 9000, Note_off_c, 9, 40, 80
7, 9000, Note_off_c, 9, 45, 80
7, 9000, Note_on_c, 9, 40, 95
7, 9000, Note_on_c, 9, 45, 95
7, 9120, Note_off_c, 9, 40, 80
7, 9120, Note_off_c, 9, 45, 80
7, 9120, Note_on_c, 9, 43, 127
7, 9120, Note_on_c, 9, 40, 127
7, 9240, Note_off_c, 9, 43, 80
7, 9240, Note_off_c, 9, 40, 80
7, 9240, Note_on_c, 9, 41, 95
7, 9360, Note_off_c, 9, 41, 80
7, 9360, Note_on_c, 9, 41, 95
7, 9480, Note_off_c, 9, 41, 80
7, 9480, Note_on_c, 9, 41, 95
7, 9600, Note_off_c, 9, 41, 80
7, 9600, Note_on_c, 9, 40, 127
7, 9600, Note_on_c, 9, 57, 127
7, 9840, Note_off_c, 9, 40, 80
7, 9840, Note_off_c, 9, 57, 80
7, 9840, Note_on_c, 9, 36, 95
7, 10080, Note_off_c, 9, 36, 80
7, 10080, Note_on_c, 9, 40, 127
7, 10320, Note_off_c, 9, 40, 80
7, 10320, Note_on_c, 9, 36, 95
7, 10560, Note_off_c, 9, 36, 80
7, 10560, Note_on_c, 9, 40, 127
7, 10800, Note_off_c, 9, 40, 80
7, 10800, Note_on_c, 9, 36, 95
7, 11040, Note_off_c, 9, 36, 80
7, 11040, Note_on_c, 9, 40, 127
7, 11280, Note_off_c, 9, 40, 80
7, 11280, Note_on_c, 9, 36, 95
7, 11520, Note_off_c, 9, 36, 80
7, 11520, Note_on_c, 9, 40, 127
7, 11760, Note_off_c, 9, 40, 80
7, 11760, Note_on_c, 9, 36, 95
7, 12000, Note_off_c, 9, 36, 80
7, 12000, Note_on_c, 9, 40, 127
7, 12240, Note_off_c, 9, 40, 80
7, 12240, Note_on_c, 9, 36, 95
7, 12480, Note_off_c, 9, 36, 80
7, 12480, Note_on_c, 9, 40, 127
7, 12720, Note_off_c, 9, 40, 80
7, 12720, Note_on_c, 9, 36, 95
7, 12960, Note_off_c, 9, 36, 80
7, 12960, Note_on_c, 9, 40, 127
7, 13200, Note_off_c, 9, 40, 80
7, 13200, Note_on_c, 9, 36, 95
7, 13440, Note_off_c, 9, 36, 80
7, 13440, Note_on_c, 9, 40, 127
7, 13680, Note_off_c, 9, 40, 80
7, 13680, Note_on_c, 9, 36, 95
7, 13920, Note_off_c, 9, 36, 80
7, 13920, Note_on_c, 9, 40, 127
7, 14160, Note_off_c, 9, 40, 80
7, 14160, Note_on_c, 9, 36, 95
7, 14400, Note_off_c, 9, 36, 80
7, 14400, Note_on_c, 9, 40, 127
7, 14640, Note_off_c, 9, 40, 80
7, 14640, Note_on_c, 9, 36, 95
7, 14880, Note_off_c, 9, 36, 80
7, 14880, Note_on_c, 9, 40, 127
7, 15120, Note_off_c, 9, 40, 80
7, 15120, Note_on_c, 9, 36, 95
7, 15360, Note_off_c, 9, 36, 80
7, 15360, Note_on_c, 9, 40, 127
7, 15360, Note_on_c, 9, 36, 127
7, 15360, Note_on_c, 9, 57, 127
7, 15840, Note_off_c, 9, 40, 80
7, 15840, Note_off_c, 9, 36, 80
7, 15840, Note_off_c, 9, 57, 80
7, 15840, Note_on_c, 9, 40, 127
7, 15840, Note_on_c, 9, 36, 127
7, 15840, Note_on_c, 9, 57, 127
7, 16320, Note_off_c, 9, 40, 80
7, 16320, Note_off_c, 9, 36, 80
7, 16320, Note_off_c, 9, 57, 80
7, 16320, Note_on_c, 9, 36, 127
7, 16320, Note_on_c, 9, 57, 127
7, 16440, Note_off_c, 9, 36, 80
7, 16440, Note_off_c, 9, 57, 80
7, 16440, Note_on_c, 9, 36, 95
7, 16440, Note_on_c, 9, 57, 95
7, 16560, Note_off_c, 9, 36, 80
7, 16560, Note_off_c, 9, 57, 80
7, 16560, Note_on_c, 9, 40, 95
7, 16560, Note_on_c, 9, 45, 95
7, 16680, Note_off_c, 9, 40, 80
7, 16680, Note_off_c, 9, 45, 80
7, 16680, Note_on_c, 9, 40, 95
7, 16680, Note_on_c, 9, 45, 95
7, 16800, Note_off_c, 9, 40, 80
7, 16800, Note_off_c, 9, 45, 80
7, 16800, Note_on_c, 9, 43, 127
7, 16800, Note_on_c, 9, 40, 127
7, 16920, Note_off_c, 9, 43, 80
7, 16920, Note_off_c, 9, 40, 80
7, 16920, Note_on_c, 9, 41, 95
7, 17040, Note_off_c, 9, 41, 80
7, 17040, Note_on_c, 9, 41, 95
7, 17160, Note_off_c, 9, 41, 80
7, 17160, Note_on_c, 9, 41, 95
7, 17280, Note_off_c, 9, 41, 80
7, 17280, Note_on_c, 9, 36, 127
7, 17280, Note_on_c, 9, 57, 127
7, 17520, Note_off_c, 9, 36, 80
7, 17520, Note_off_c, 9, 57, 80
7, 17520, Note_on_c, 9, 36, 95
7, 17760, Note_off_c, 9, 36, 80
7, 17760, Note_on_c, 9, 40, 127
7, 18000, Note_off_c, 9, 40, 80
7, 18120, Note_on_c, 9, 41, 95
7, 18240, Note_off_c, 9, 41, 80
7, 18240, Note_on_c, 9, 36, 127
7, 18480, Note_off_c, 9, 36, 80
7, 18480, Note_on_c, 9, 36, 95
7, 18720, Note_off_c, 9, 36, 80
7, 18720, Note_on_c, 9, 40, 127
7, 18960, Note_off_c, 9, 40, 80
7, 19080, Note_on_c, 9, 40, 95
7, 19200, Note_off_c, 9, 40, 80
7, 19200, Note_on_c, 9, 40, 127
7, 19200, Note_on_c, 9, 36, 127
7, 19320, Note_off_c, 9, 40, 80
7, 19320, Note_off_c, 9, 36, 80
7, 19320, Note_on_c, 9, 40, 95
7, 19440, Note_off_c, 9, 40, 80
7, 19440, Note_on_c, 9, 40, 95
7, 19440, Note_on_c, 9, 36, 95
7, 19560, Note_off_c, 9, 40, 80
7, 19560, Note_off_c, 9, 36, 80
7, 19560, Note_on_c, 9, 40, 95
7, 19680, Note_off_c, 9, 40, 80
7, 19680, Note_on_c, 9, 45, 127
7, 19800, Note_off_c, 9, 45, 80
7, 19800, Note_on_c, 9, 43, 95
7, 19920, Note_off_c, 9, 43, 80
7, 19920, Note_on_c, 9, 43, 95
7, 20040, Note_off_c, 9, 43, 80
7, 20040, Note_on_c, 9, 41, 95
7, 20160, Note_off_c, 9, 41, 80
7, 20160, Note_on_c, 9, 41, 127
7, 20160, Note_on_c, 9, 36, 127
7, 20280, Note_off_c, 9, 41, 80
7, 20280, Note_off_c, 9, 36, 80
7, 20400, Note_on_c, 9, 36, 95
7, 20640, Note_off_c, 9, 36, 80
7, 20640, Note_on_c, 9, 46, 127
7, 20640, Note_on_c, 9, 40, 127
7, 20880, Note_off_c, 9, 46, 80
7, 20880, Note_off_c, 9, 40, 80
7, 21000, Note_on_c, 9, 40, 95
7, 21120, Note_off_c, 9, 40, 80
7, 21120, Note_on_c, 9, 36, 127
7, 21360, Note_off_c, 9, 36, 80
7, 21360, Note_on_c, 9, 36, 95
7, 21600, Note_off_c, 9, 36, 80
7, 21600, Note_on_c, 9, 46, 127
7, 21600, Note_on_c, 9, 40, 127
7, 21840, Note_off_c, 9, 46, 80
7, 21840, Note_off_c, 9, 40, 80
7, 21960, Note_on_c, 9, 40, 95
7, 22080, Note_off_c, 9, 40, 80
7, 22080, Note_on_c, 9, 36, 127
7, 22320, Note_off_c, 9, 36, 80
7, 22320, Note_on_c, 9, 36, 95
7, 22560, Note_off_c, 9, 36, 80
7, 22560, Note_on_c, 9, 46, 127
7, 22560, Note_on_c, 9, 40, 127
7, 22800, Note_off_c, 9, 46, 80
7, 22800, Note_off_c, 9, 40, 80
7, 22920, Note_on_c, 9, 40, 95
7, 23040, Note_off_c, 9, 40, 80
7, 23040, Note_on_c, 9, 40, 127
7, 23040, Note_on_c, 9, 36, 127
7, 23040, Note_on_c, 9, 57, 127
7, 23520, Note_off_c, 9, 40, 80
7, 23520, Note_off_c, 9, 36, 80
7, 23520, Note_off_c, 9, 57, 80
7, 23520, Note_on_c, 9, 40, 127
7, 23520, Note_on_c, 9, 36, 127
7, 23520, Note_on_c, 9, 57, 127
7, 24000, Note_off_c, 9, 40, 80
7, 24000, Note_off_c, 9, 36, 80
7, 24000, Note_off_c, 9, 57, 80
7, 24000, Note_on_c, 9, 36, 127
7, 24000, Note_on_c, 9, 57, 127
7, 24120, Note_off_c, 9, 36, 80
7, 24120, Note_off_c, 9, 57, 80
7, 24120, Note_on_c, 9, 36, 95
7, 24120, Note_on_c, 9, 57, 95
7, 24240, Note_off_c, 9, 36, 80
7, 24240, Note_off_c, 9, 57, 80
7, 24240, Note_on_c, 9, 40, 95
7, 24240, Note_on_c, 9, 45, 95
7, 24360, Note_off_c, 9, 40, 80
7, 24360, Note_off_c, 9, 45, 80
7, 24360, Note_on_c, 9, 40, 95
7, 24360, Note_on_c, 9, 45, 95
7, 24480, Note_off_c, 9, 40, 80
7, 24480, Note_off_c, 9, 45, 80
7, 24480, Note_on_c, 9, 43, 127
7, 24480, Note_on_c, 9, 40, 127
7, 24600, Note_off_c, 9, 43, 80
7, 24600, Note_off_c, 9, 40, 80
7, 24600, Note_on_c, 9, 41, 95
7, 24720, Note_off_c, 9, 41, 80
7, 24720, Note_on_c, 9, 41, 95
7, 24840, Note_off_c, 9, 41, 80
7, 24840, Note_on_c, 9, 41, 95
7, 24960, Note_off_c, 9, 41, 80
7, 24960, Note_on_c, 9, 36, 127
7, 24960, Note_on_c, 9, 57, 127
7, 25200, Note_off_c, 9, 36, 80
7, 25200, Note_off_c, 9, 57, 80
7, 25200, Note_on_c, 9, 36, 95
7, 25440, Note_off_c, 9, 36, 80
7, 25440, Note_on_c, 9, 40, 127
7, 25680, Note_off_c, 9, 40, 80
7, 25800, Note_on_c, 9, 41, 95
7, 25920, Note_off_c, 9, 41, 80
7, 25920, Note_on_c, 9, 36, 127
7, 26160, Note_off_c, 9, 36, 80
7, 26160, Note_on_c, 9, 36, 95
7, 26400, Note_off_c, 9, 36, 80
7, 26400, Note_on_c, 9, 40, 127
7, 26640, Note_off_c, 9, 40, 80
7, 26760, Note_on_c, 9, 40, 95
7, 26880, Note_off_c, 9, 40, 80
7, 26880, Note_on_c, 9, 44, 127
7, 26880, Note_on_c, 9, 36, 127
7, 27000, Note_off_c, 9, 44, 80
7, 27000, Note_off_c, 9, 36, 80
7, 27000, Note_on_c, 9, 44, 95
7, 27120, Note_off_c, 9, 44, 80
7, 27120, Note_on_c, 9, 44, 95
7, 27240, Note_off_c, 9, 44, 80
7, 27240, Note_on_c, 9, 44, 95
7, 27360, Note_off_c, 9, 44, 80
7, 27360, Note_on_c, 9, 40, 127
7, 27480, Note_off_c, 9, 40, 80
7, 27480, Note_on_c, 9, 44, 95
7, 27600, Note_off_c, 9, 44, 80
7, 27600, Note_on_c, 9, 44, 95
7, 27720, Note_off_c, 9, 44, 80
7, 27720, Note_on_c, 9, 40, 95
7, 27840, Note_off_c, 9, 40, 80
7, 27840, Note_on_c, 9, 44, 127
7, 27840, Note_on_c, 9, 36, 127
7, 27960, Note_off_c, 9, 44, 80
7, 27960, Note_off_c, 9, 36, 80
7, 27960, Note_on_c, 9, 44, 95
7, 28080, Note_off_c, 9, 44, 80
7, 28080, Note_on_c, 9, 44, 95
7, 28080, Note_on_c, 9, 36, 95
7, 28200, Note_off_c, 9, 44, 80
7, 28200, Note_off_c, 9, 36, 80
7, 28200, Note_on_c, 9, 44, 95
7, 28320, Note_off_c, 9, 44, 80
7, 28320, Note_on_c, 9, 40, 127
7, 28440, Note_off_c, 9, 40, 80
7, 28440, Note_on_c, 9, 44, 95
7, 28560, Note_off_c, 9, 44, 80
7, 28560, Note_on_c, 9, 44, 95
7, 28680, Note_off_c, 9, 44, 80
7, 28680, Note_on_c, 9, 40, 95
7, 28800, Note_off_c, 9, 40, 80
7, 28800, Note_on_c, 9, 44, 127
7, 28800, Note_on_c, 9, 36, 127
7, 28920, Note_off_c, 9, 44, 80
7, 28920, Note_off_c, 9, 36, 80
7, 28920, Note_on_c, 9, 44, 95
7, 29040, Note_off_c, 9, 44, 80
7, 29040, Note_on_c, 9, 44, 95
7, 29160, Note_off_c, 9, 44, 80
7, 29160, Note_on_c, 9, 44, 95
7, 29280, Note_off_c, 9, 44, 80
7, 29280, Note_on_c, 9, 40, 127
7, 29400, Note_off_c, 9, 40, 80
7, 29400, Note_on_c, 9, 44, 95
7, 29520, Note_off_c, 9, 44, 80
7, 29520, Note_on_c, 9, 44, 95
7, 29640, Note_off_c, 9, 44, 80
7, 29640, Note_on_c, 9, 40, 95
7, 29760, Note_off_c, 9, 40, 80
7, 29760, Note_on_c, 9, 44, 127
7, 29760, Note_on_c, 9, 36, 127
7, 29880, Note_off_c, 9, 44, 80
7, 29880, Note_off_c, 9, 36, 80
7, 30120, Note_on_c, 9, 44, 95
7, 30120, Note_on_c, 9, 36, 95
7, 30240, Note_off_c, 9, 44, 80
7, 30240, Note_off_c, 9, 36, 80
7, 30480, Note_on_c, 9, 44, 95
7, 30480, Note_on_c, 9, 36, 95
7, 30600, Note_off_c, 9, 44, 80
7, 30600, Note_off_c, 9, 36, 80
7, 30720, Note_on_c, 9, 44, 127
7, 30720, Note_on_c, 9, 36, 127
7, 30840, Note_off_c, 9, 44, 80
7, 30840, Note_off_c, 9, 36, 80
7, 30840, Note_on_c, 9, 44, 95
7, 30960, Note_off_c, 9, 44, 80
7, 30960, Note_on_c, 9, 44, 95
7, 31080, Note_off_c, 9, 44, 80
7, 31080, Note_on_c, 9, 44, 95
7, 31200, Note_off_c, 9, 44, 80
7, 31200, Note_on_c, 9, 40, 127
7, 31320, Note_off_c, 9, 40, 80
7, 31320, Note_on_c, 9, 44, 95
7, 31440, Note_off_c, 9, 44, 80
7, 31440, Note_on_c, 9, 44, 95
7, 31560, Note_off_c, 9, 44, 80
7, 31560, Note_on_c, 9, 40, 95
7, 31680, Note_off_c, 9, 40, 80
7, 31680, Note_on_c, 9, 44, 127
7, 31680, Note_on_c, 9, 36, 127
7, 31800, Note_off_c, 9, 44, 80
7, 31800, Note_off_c, 9, 36, 80
7, 31800, Note_on_c, 9, 44, 95
7, 31920, Note_off_c, 9, 44, 80
7, 31920, Note_on_c, 9, 44, 95
7, 31920, Note_on_c, 9, 36, 95
7, 32040, Note_off_c, 9, 44, 80
7, 32040, Note_off_c, 9, 36, 80
7, 32040, Note_on_c, 9, 44, 95
7, 32160, Note_off_c, 9, 44, 80
7, 32160, Note_on_c, 9, 40, 127
7, 32280, Note_off_c, 9, 40, 80
7, 32280, Note_on_c, 9, 44, 95
7, 32400, Note_off_c, 9, 44, 80
7, 32400, Note_on_c, 9, 44, 95
7, 32520, Note_off_c, 9, 44, 80
7, 32520, Note_on_c, 9, 40, 95
7, 32640, Note_off_c, 9, 40, 80
7, 32640, Note_on_c, 9, 44, 127
7, 32640, Note_on_c, 9, 36, 127
7, 32760, Note_off_c, 9, 44, 80
7, 32760, Note_off_c, 9, 36, 80
7, 32760, Note_on_c, 9, 44, 95
7, 32880, Note_off_c, 9, 44, 80
7, 32880, Note_on_c, 9, 44, 95
7, 33000, Note_off_c, 9, 44, 80
7, 33000, Note_on_c, 9, 44, 95
7, 33120, Note_off_c, 9, 44, 80
7, 33120, Note_on_c, 9, 40, 127
7, 33240, Note_off_c, 9, 40, 80
7, 33240, Note_on_c, 9, 44, 95
7, 33360, Note_off_c, 9, 44, 80
7, 33360, Note_on_c, 9, 44, 95
7, 33480, Note_off_c, 9, 44, 80
7, 33480, Note_on_c, 9, 40, 95
7, 33600, Note_off_c, 9, 40, 80
7, 33600, Note_on_c, 9, 44, 127
7, 33600, Note_on_c, 9, 36, 127
7, 33720, Note_off_c, 9, 44, 80
7, 33720, Note_off_c, 9, 36, 80
7, 33960, Note_on_c, 9, 44, 95
7, 33960, Note_on_c, 9, 36, 95
7, 34080, Note_off_c, 9, 44, 80
7, 34080, Note_off_c, 9, 36, 80
7, 34320, Note_on_c, 9, 44, 95
7, 34320, Note_on_c, 9, 36, 95
7, 34440, Note_off_c, 9, 44, 80
7, 34440, Note_off_c, 9, 36, 80
7, 34560, Note_on_c, 9, 44, 127
7, 34560, Note_on_c, 9, 36, 127
7, 34680, Note_off_c, 9, 44, 80
7, 34680, Note_off_c, 9, 36, 80
7, 34680, Note_on_c, 9, 44, 95
7, 34800, Note_off_c, 9, 44, 80
7, 34800, Note_on_c, 9, 44, 95
7, 34920, Note_off_c, 9, 44, 80
7, 34920, Note_on_c, 9, 44, 95
7, 35040, Note_off_c, 9, 44, 80
7, 35040, Note_on_c, 9, 40, 127
7, 35160, Note_off_c, 9, 40, 80
7, 35160, Note_on_c, 9, 44, 95
7, 35280, Note_off_c, 9, 44, 80
7, 35280, Note_on_c, 9, 44, 95
7, 35400, Note_off_c, 9, 44, 80
7, 35400, Note_on_c, 9, 40, 95
7, 35520, Note_off_c, 9, 40, 80
7, 35520, Note_on_c, 9, 44, 127
7, 35520, Note_on_c, 9, 36, 127
7, 35640, Note_off_c, 9, 44, 80
7, 35640, Note_off_c, 9, 36, 80
7, 35640, Note_on_c, 9, 44, 95
7, 35760, Note_off_c, 9, 44, 80
7, 35760, Note_on_c, 9, 44, 95
7, 35760, Note_on_c, 9, 36, 95
7, 35880, Note_off_c, 9, 44, 80
7, 35880, Note_off_c, 9, 36, 80
7, 35880, Note_on_c, 9, 44, 95
7, 36000, Note_off_c, 9, 44, 80
7, 36000, Note_on_c, 9, 40, 127
7, 36120, Note_off_c, 9, 40, 80
7, 36120, Note_on_c, 9, 44, 95
7, 36240, Note_off_c, 9, 44, 80
7, 36240, Note_on_c, 9, 44, 95
7, 36360, Note_off_c, 9, 44, 80
7, 36360, Note_on_c, 9, 40, 95
7, 36480, Note_off_c, 9, 40, 80
7, 36480, Note_on_c, 9, 44, 127
7, 36480, Note_on_c, 9, 36, 127
7, 36600, Note_off_c, 9, 44, 80
7, 36600, Note_off_c, 9, 36, 80
7, 36600, Note_on_c, 9, 44, 95
7, 36720, Note_off_c, 9, 44, 80
7, 36720, Note_on_c, 9, 44, 95
7, 36840, Note_off_c, 9, 44, 80
7, 36840, Note_on_c, 9, 44, 95
7, 36960, Note_off_c, 9, 44, 80
7, 36960, Note_on_c, 9, 40, 127
7, 37080, Note_off_c, 9, 40, 80
7, 37080, Note_on_c, 9, 44, 95
7, 37200, Note_off_c, 9, 44, 80
7, 37200, Note_on_c, 9, 44, 95
7, 37320, Note_off_c, 9, 44, 80
7, 37320, Note_on_c, 9, 40, 95
7, 37440, Note_off_c, 9, 40, 80
7, 37440, Note_on_c, 9, 44, 127
7, 37440, Note_on_c, 9, 57, 127
7, 37440, Note_on_c, 9, 36, 127
7, 37560, Note_off_c, 9, 44, 80
7, 37560, Note_off_c, 9, 57, 80
7, 37560, Note_off_c, 9, 36, 80
7, 37800, Note_on_c, 9, 44, 95
7, 37800, Note_on_c, 9, 57, 95
7, 37800, Note_on_c, 9, 36, 95
7, 37920, Note_off_c, 9, 44, 80
7, 37920, Note_off_c, 9, 57, 80
7, 37920, Note_off_c, 9, 36, 80
7, 38160, Note_on_c, 9, 44, 95
7, 38160, Note_on_c, 9, 57, 95
7, 38160, Note_on_c, 9, 36, 95
7, 38280, Note_off_c, 9, 44, 80
7, 38280, Note_off_c, 9, 57, 80
7, 38280, Note_off_c, 9, 36, 80
7, 38400, Note_on_c, 9, 44, 127
7, 38400, Note_on_c, 9, 57, 127
7, 38400, Note_on_c, 9, 36, 127
7, 38520, Note_off_c, 9, 44, 80
7, 38520, Note_off_c, 9, 57, 80
7, 38520, Note_off_c, 9, 36, 80
7, 38520, Note_on_c, 9, 44, 95
7, 38640, Note_off_c, 9, 44, 80
7, 38640, Note_on_c, 9, 44, 95
7, 38760, Note_off_c, 9, 44, 80
7, 38760, Note_on_c, 9, 44, 95
7, 38880, Note_off_c, 9, 44, 80
7, 38880, Note_on_c, 9, 40, 127
7, 39000, Note_off_c, 9, 40, 80
7, 39000, Note_on_c, 9, 44, 95
7, 39120, Note_off_c, 9, 44, 80
7, 39120, Note_on_c, 9, 44, 95
7, 39240, Note_off_c, 9, 44, 80
7, 39240, Note_on_c, 9, 40, 95
7, 39360, Note_off_c, 9, 40, 80
7, 39360, Note_on_c, 9, 44, 127
7, 39360, Note_on_c, 9, 36, 127
7, 39480, Note_off_c, 9, 44, 80
7, 39480, Note_off_c, 9, 36, 80
7, 39480, Note_on_c, 9, 44, 95
7, 39600, Note_off_c, 9, 44, 80
7, 39600, Note_on_c, 9, 44, 95
7, 39600, Note_on_c, 9, 36, 95
7, 39720, Note_off_c, 9, 44, 80
7, 39720, Note_off_c, 9, 36, 80
7, 39720, Note_on_c, 9, 44, 95
7, 39840, Note_off_c, 9, 44, 80
7, 39840, Note_on_c, 9, 40, 127
7, 39960, Note_off_c, 9, 40, 80
7, 39960, Note_on_c, 9, 44, 95
7, 40080, Note_off_c, 9, 44, 80
7, 40080, Note_on_c, 9, 44, 95
7, 40200, Note_off_c, 9, 44, 80
7, 40200, Note_on_c, 9, 40, 95
7, 40320, Note_off_c, 9, 40, 80
7, 40320, Note_on_c, 9, 40, 127
7, 40320, Note_on_c, 9, 57, 127
7, 40320, Note_on_c, 9, 36, 127
7, 40440, Note_off_c, 9, 40, 80
7, 40440, Note_off_c, 9, 57, 80
7, 40440, Note_off_c, 9, 36, 80
7, 40440, Note_on_c, 9, 44, 95
7, 40560, Note_off_c, 9, 44, 80
7, 40560, Note_on_c, 9, 44, 95
7, 40560, Note_on_c, 9, 36, 95
7, 40680, Note_off_c, 9, 44, 80
7, 40680, Note_off_c, 9, 36, 80
7, 40680, Note_on_c, 9, 44, 95
7, 40800, Note_off_c, 9, 44, 80
7, 40800, Note_on_c, 9, 44, 127
7, 40800, Note_on_c, 9, 40, 127
7, 40920, Note_off_c, 9, 44, 80
7, 40920, Note_off_c, 9, 40, 80
7, 40920, Note_on_c, 9, 44, 95
7, 41040, Note_off_c, 9, 44, 80
7, 41040, Note_on_c, 9, 44, 95
7, 41040, Note_on_c, 9, 36, 95
7, 41160, Note_off_c, 9, 44, 80
7, 41160, Note_off_c, 9, 36, 80
7, 41160, Note_on_c, 9, 44, 95
7, 41280, Note_off_c, 9, 44, 80
7, 41280, Note_on_c, 9, 44, 127
7, 41280, Note_on_c, 9, 40, 127
7, 41400, Note_off_c, 9, 44, 80
7, 41400, Note_off_c, 9, 40, 80
7, 41400, Note_on_c, 9, 44, 95
7, 41400, Note_on_c, 9, 40, 95
7, 41520, Note_off_c, 9, 44, 80
7, 41520, Note_off_c, 9, 40, 80
7, 41520, Note_on_c, 9, 44, 95
7, 41520, Note_on_c, 9, 40, 95
7, 41640, Note_off_c, 9, 44, 80
7, 41640, Note_off_c, 9, 40, 80
7, 41640, Note_on_c, 9, 44, 95
7, 41640, Note_on_c, 9, 40, 95
7, 41760, Note_off_c, 9, 44, 80
7, 41760, Note_off_c, 9, 40, 80
7, 41760, Note_on_c, 9, 44, 127
7, 41760, Note_on_c, 9, 43, 127
7, 41880, Note_off_c, 9, 44, 80
7, 41880, Note_off_c, 9, 43, 80
7, 41880, Note_on_c, 9, 44, 95
7, 41880, Note_on_c, 9, 43, 95
7, 42000, Note_off_c, 9, 44, 80
7, 42000, Note_off_c, 9, 43, 80
7, 42000, Note_on_c, 9, 44, 95
7, 42000, Note_on_c, 9, 41, 95
7, 42120, Note_off_c, 9, 44, 80
7, 42120, Note_off_c, 9, 41, 80
7, 42120, Note_on_c, 9, 41, 95
7, 42120, Note_on_c, 9, 44, 95
7, 42240, Note_off_c, 9, 41, 80
7, 42240, Note_off_c, 9, 44, 80
7, 42240, Note_on_c, 9, 44, 127
7, 42240, Note_on_c, 9, 36, 127
7, 42360, Note_off_c, 9, 44, 80
7, 42360, Note_off_c, 9, 36, 80
7, 42360, Note_on_c, 9, 44, 95
7, 42480, Note_off_c, 9, 44, 80
7, 42480, Note_on_c, 9, 44, 95
7, 42600, Note_off_c, 9, 44, 80
7, 42600, Note_on_c, 9, 44, 95
7, 42720, Note_off_c, 9, 44, 80
7, 42720, Note_on_c, 9, 40, 127
7, 42840, Note_off_c, 9, 40, 80
7, 42840, Note_on_c, 9, 44, 95
7, 42960, Note_off_c, 9, 44, 80
7, 42960, Note_on_c, 9, 44, 95
7, 42960, Note_on_c, 9, 36, 95
7, 43080, Note_off_c, 9, 44, 80
7, 43080, Note_off_c, 9, 36, 80
7, 43080, Note_on_c, 9, 40, 95
7, 43200, Note_off_c, 9, 40, 80
7, 43200, Note_on_c, 9, 44, 127
7, 43200, Note_on_c, 9, 36, 127
7, 43320, Note_off_c, 9, 44, 80
7, 43320, Note_off_c, 9, 36, 80
7, 43320, Note_on_c, 9, 44, 95
7, 43440, Note_off_c, 9, 44, 80
7, 43440, Note_on_c, 9, 44, 95
7, 43440, Note_on_c, 9, 36, 95
7, 43560, Note_off_c, 9, 44, 80
7, 43560, Note_off_c, 9, 36, 80
7, 43560, Note_on_c, 9, 44, 95
7, 43680, Note_off_c, 9, 44, 80
7, 43680, Note_on_c, 9, 40, 127
7, 43800, Note_off_c, 9, 40, 80
7, 43800, Note_on_c, 9, 44, 95
7, 43920, Note_off_c, 9, 44, 80
7, 43920, Note_on_c, 9, 44, 95
7, 44040, Note_off_c, 9, 44, 80
7, 44040, Note_on_c, 9, 40, 95
7, 44160, Note_off_c, 9, 40, 80
7, 44160, Note_on_c, 9, 44, 127
7, 44160, Note_on_c, 9, 36, 127
7, 44280, Note_off_c, 9, 44, 80
7, 44280, Note_off_c, 9, 36, 80
7, 44280, Note_on_c, 9, 44, 95
7, 44400, Note_off_c, 9, 44, 80
7, 44400, Note_on_c, 9, 44, 95
7, 44520, Note_off_c, 9, 44, 80
7, 44520, Note_on_c, 9, 44, 95
7, 44640, Note_off_c, 9, 44, 80
7, 44640, Note_on_c, 9, 40, 127
7, 44760, Note_off_c, 9, 40, 80
7, 44760, Note_on_c, 9, 44, 95
7, 44880, Note_off_c, 9, 44, 80
7, 44880, Note_on_c, 9, 44, 95
7, 44880, Note_on_c, 9, 36, 95
7, 45000, Note_off_c, 9, 44, 80
7, 45000, Note_off_c, 9, 36, 80
7, 45000, Note_on_c, 9, 40, 95
7, 45120, Note_off_c, 9, 40, 80
7, 45120, Note_on_c, 9, 44, 127
7, 45120, Note_on_c, 9, 36, 127
7, 45240, Note_off_c, 9, 44, 80
7, 45240, Note_off_c, 9, 36, 80
7, 45240, Note_on_c, 9, 44, 95
7, 45360, Note_off_c, 9, 44, 80
7, 45360, Note_on_c, 9, 44, 95
7, 45360, Note_on_c, 9, 36, 95
7, 45480, Note_off_c, 9, 44, 80
7, 45480, Note_off_c, 9, 36, 80
7, 45480, Note_on_c, 9, 44, 95
7, 45600, Note_off_c, 9, 44, 80
7, 45600, Note_on_c, 9, 40, 127
7, 45720, Note_off_c, 9, 40, 80
7, 45720, Note_on_c, 9, 44, 95
7, 45840, Note_off_c, 9, 44, 80
7, 45840, Note_on_c, 9, 44, 95
7, 45960, Note_off_c, 9, 44, 80
7, 45960, Note_on_c, 9, 40, 95
7, 46080, Note_off_c, 9, 40, 80
7, 46080, Note_on_c, 9, 44, 127
7, 46080, Note_on_c, 9, 36, 127
7, 46200, Note_off_c, 9, 44, 80
7, 46200, Note_off_c, 9, 36, 80
7, 46200, Note_on_c, 9, 44, 95
7, 46320, Note_off_c, 9, 44, 80
7, 46320, Note_on_c, 9, 44, 95
7, 46440, Note_off_c, 9, 44, 80
7, 46440, Note_on_c, 9, 44, 95
7, 46560, Note_off_c, 9, 44, 80
7, 46560, Note_on_c, 9, 40, 127
7, 46680, Note_off_c, 9, 40, 80
7, 46680, Note_on_c, 9, 44, 95
7, 46800, Note_off_c, 9, 44, 80
7, 46800, Note_on_c, 9, 44, 95
7, 46920, Note_off_c, 9, 44, 80
7, 46920, Note_on_c, 9, 40, 95
7, 47040, Note_off_c, 9, 40, 80
7, 47040, Note_on_c, 9, 44, 127
7, 47040, Note_on_c, 9, 36, 127
7, 47160, Note_off_c, 9, 44, 80
7, 47160, Note_off_c, 9, 36, 80
7, 47160, Note_on_c, 9, 44, 95
7, 47280, Note_off_c, 9, 44, 80
7, 47280, Note_on_c, 9, 44, 95
7, 47280, Note_on_c, 9, 36, 95
7, 47400, Note_off_c, 9, 44, 80
7, 47400, Note_off_c, 9, 36, 80
7, 47400, Note_on_c, 9, 44, 95
7, 47520, Note_off_c, 9, 44, 80
7, 47520, Note_on_c, 9, 40, 127
7, 47640, Note_off_c, 9, 40, 80
7, 47640, Note_on_c, 9, 44, 95
7, 47760, Note_off_c, 9, 44, 80
7, 47760, Note_on_c, 9, 44, 95
7, 47880, Note_off_c, 9, 44, 80
7, 47880, Note_on_c, 9, 40, 95
7, 48000, Note_off_c, 9, 40, 80
7, 48000, Note_on_c, 9, 44, 127
7, 48000, Note_on_c, 9, 36, 127
7, 48120, Note_off_c, 9, 44, 80
7, 48120, Note_off_c, 9, 36, 80
7, 48120, Note_on_c, 9, 44, 95
7, 48240, Note_off_c, 9, 44, 80
7, 48240, Note_on_c, 9, 44, 95
7, 48360, Note_off_c, 9, 44, 80
7, 48360, Note_on_c, 9, 44, 95
7, 48480, Note_off_c, 9, 44, 80
7, 48480, Note_on_c, 9, 40, 127
7, 48600, Note_off_c, 9, 40, 80
7, 48600, Note_on_c, 9, 44, 95
7, 48720, Note_off_c, 9, 44, 80
7, 48720, Note_on_c, 9, 44, 95
7, 48840, Note_off_c, 9, 44, 80
7, 48840, Note_on_c, 9, 40, 95
7, 48960, Note_off_c, 9, 40, 80
7, 48960, Note_on_c, 9, 44, 127
7, 48960, Note_on_c, 9, 36, 127
7, 49080, Note_off_c, 9, 44, 80
7, 49080, Note_off_c, 9, 36, 80
7, 49080, Note_on_c, 9, 44, 95
7, 49200, Note_off_c, 9, 44, 80
7, 49200, Note_on_c, 9, 44, 95
7, 49200, Note_on_c, 9, 36, 95
7, 49320, Note_off_c, 9, 44, 80
7, 49320, Note_off_c, 9, 36, 80
7, 49320, Note_on_c, 9, 44, 95
7, 49440, Note_off_c, 9, 44, 80
7, 49440, Note_on_c, 9, 43, 127
7, 49440, Note_on_c, 9, 40, 127
7, 49560, Note_off_c, 9, 43, 80
7, 49560, Note_off_c, 9, 40, 80
7, 49560, Note_on_c, 9, 44, 95
7, 49560, Note_on_c, 9, 43, 95
7, 49560, Note_on_c, 9, 40, 95
7, 49680, Note_off_c, 9, 44, 80
7, 49680, Note_off_c, 9, 43, 80
7, 49680, Note_off_c, 9, 40, 80
7, 49680, Note_on_c, 9, 44, 95
7, 49680, Note_on_c, 9, 41, 95
7, 49680, Note_on_c, 9, 40, 95
7, 49800, Note_off_c, 9, 44, 80
7, 49800, Note_off_c, 9, 41, 80
7, 49800, Note_off_c, 9, 40, 80
7, 49800, Note_on_c, 9, 41, 95
7, 49800, Note_on_c, 9, 40, 95
7, 49920, Note_off_c, 9, 41, 80
7, 49920, Note_off_c, 9, 40, 80
7, 49920, Note_on_c, 9, 44, 127
7, 49920, Note_on_c, 9, 36, 127
7, 50040, Note_off_c, 9, 44, 80
7, 50040, Note_off_c, 9, 36, 80
7, 50040, Note_on_c, 9, 44, 95
7, 50160, Note_off_c, 9, 44, 80
7, 50160, Note_on_c, 9, 44, 95
7, 50280, Note_off_c, 9, 44, 80
7, 50280, Note_on_c, 9, 44, 95
7, 50400, Note_off_c, 9, 44, 80
7, 50400, Note_on_c, 9, 40, 127
7, 50520, Note_off_c, 9, 40, 80
7, 50520, Note_on_c, 9, 44, 95
7, 50640, Note_off_c, 9, 44, 80
7, 50640, Note_on_c, 9, 44, 95
7, 50640, Note_on_c, 9, 36, 95
7, 50760, Note_off_c, 9, 44, 80
7, 50760, Note_off_c, 9, 36, 80
7, 50760, Note_on_c, 9, 40, 95
7, 50880, Note_off_c, 9, 40, 80
7, 50880, Note_on_c, 9, 44, 127
7, 50880, Note_on_c, 9, 36, 127
7, 51000, Note_off_c, 9, 44, 80
7, 51000, Note_off_c, 9, 36, 80
7, 51000, Note_on_c, 9, 44, 95
7, 51120, Note_off_c, 9, 44, 80
7, 51120, Note_on_c, 9, 44, 95
7, 51120, Note_on_c, 9, 36, 95
7, 51240, Note_off_c, 9, 44, 80
7, 51240, Note_off_c, 9, 36, 80
7, 51240, Note_on_c, 9, 44, 95
7, 51360, Note_off_c, 9, 44, 80
7, 51360, Note_on_c, 9, 40, 127
7, 51480, Note_off_c, 9, 40, 80
7, 51480, Note_on_c, 9, 44, 95
7, 51600, Note_off_c, 9, 44, 80
7, 51600, Note_on_c, 9, 44, 95
7, 51720, Note_off_c, 9, 44, 80
7, 51720, Note_on_c, 9, 40, 95
7, 51840, Note_off_c, 9, 40, 80
7, 51840, Note_on_c, 9, 44, 127
7, 51840, Note_on_c, 9, 36, 127
7, 51960, Note_off_c, 9, 44, 80
7, 51960, Note_off_c, 9, 36, 80
7, 51960, Note_on_c, 9, 44, 95
7, 52080, Note_off_c, 9, 44, 80
7, 52080, Note_on_c, 9, 44, 95
7, 52200, Note_off_c, 9, 44, 80
7, 52200, Note_on_c, 9, 44, 95
7, 52320, Note_off_c, 9, 44, 80
7, 52320, Note_on_c, 9, 40, 127
7, 52440, Note_off_c, 9, 40, 80
7, 52440, Note_on_c, 9, 44, 95
7, 52560, Note_off_c, 9, 44, 80
7, 52560, Note_on_c, 9, 44, 95
7, 52560, Note_on_c, 9, 36, 95
7, 52680, Note_off_c, 9, 44, 80
7, 52680, Note_off_c, 9, 36, 80
7, 52680, Note_on_c, 9, 40, 95
7, 52800, Note_off_c, 9, 40, 80
7, 52800, Note_on_c, 9, 44, 127
7, 52800, Note_on_c, 9, 57, 127
7, 52800, Note_on_c, 9, 36, 127
7, 52920, Note_off_c, 9, 44, 80
7, 52920, Note_off_c, 9, 57, 80
7, 52920, Note_off_c, 9, 36, 80
7, 53160, Note_on_c, 9, 44, 95
7, 53160, Note_on_c, 9, 57, 95
7, 53160, Note_on_c, 9, 36, 95
7, 53280, Note_off_c, 9, 44, 80
7, 53280, Note_off_c, 9, 57, 80
7, 53280, Note_off_c, 9, 36, 80
7, 53520, Note_on_c, 9, 44, 95
7, 53520, Note_on_c, 9, 57, 95
7, 53520, Note_on_c, 9, 36, 95
7, 53640, Note_off_c, 9, 44, 80
7, 53640, Note_off_c, 9, 57, 80
7, 53640, Note_off_c, 9, 36, 80
7, 53760, Note_on_c, 9, 44, 127
7, 53760, Note_on_c, 9, 57, 127
7, 53760, Note_on_c, 9, 36, 127
7, 53880, Note_off_c, 9, 44, 80
7, 53880, Note_off_c, 9, 57, 80
7, 53880, Note_off_c, 9, 36, 80
7, 53880, Note_on_c, 9, 44, 95
7, 54000, Note_off_c, 9, 44, 80
7, 54000, Note_on_c, 9, 44, 95
7, 54120, Note_off_c, 9, 44, 80
7, 54120, Note_on_c, 9, 44, 95
7, 54240, Note_off_c, 9, 44, 80
7, 54240, Note_on_c, 9, 40, 127
7, 54360, Note_off_c, 9, 40, 80
7, 54360, Note_on_c, 9, 44, 95
7, 54480, Note_off_c, 9, 44, 80
7, 54480, Note_on_c, 9, 44, 95
7, 54600, Note_off_c, 9, 44, 80
7, 54600, Note_on_c, 9, 40, 95
7, 54720, Note_off_c, 9, 40, 80
7, 54720, Note_on_c, 9, 44, 127
7, 54720, Note_on_c, 9, 36, 127
7, 54840, Note_off_c, 9, 44, 80
7, 54840, Note_off_c, 9, 36, 80
7, 54840, Note_on_c, 9, 44, 95
7, 54960, Note_off_c, 9, 44, 80
7, 54960, Note_on_c, 9, 44, 95
7, 54960, Note_on_c, 9, 36, 95
7, 55080, Note_off_c, 9, 44, 80
7, 55080, Note_off_c, 9, 36, 80
7, 55080, Note_on_c, 9, 44, 95
7, 55200, Note_off_c, 9, 44, 80
7, 55200, Note_on_c, 9, 40, 127
7, 55320, Note_off_c, 9, 40, 80
7, 55320, Note_on_c, 9, 44, 95
7, 55440, Note_off_c, 9, 44, 80
7, 55440, Note_on_c, 9, 44, 95
7, 55560, Note_off_c, 9, 44, 80
7, 55560, Note_on_c, 9, 40, 95
7, 55680, Note_off_c, 9, 40, 80
7, 55680, Note_on_c, 9, 40, 127
7, 55680, Note_on_c, 9, 57, 127
7, 55680, Note_on_c, 9, 36, 127
7, 55800, Note_off_c, 9, 40, 80
7, 55800, Note_off_c, 9, 57, 80
7, 55800, Note_off_c, 9, 36, 80
7, 55800, Note_on_c, 9, 44, 95
7, 55920, Note_off_c, 9, 44, 80
7, 55920, Note_on_c, 9, 44, 95
7, 55920, Note_on_c, 9, 36, 95
7, 56040, Note_off_c, 9, 44, 80
7, 56040, Note_off_c, 9, 36, 80
7, 56040, Note_on_c, 9, 44, 95
7, 56160, Note_off_c, 9, 44, 80
7, 56160, Note_on_c, 9, 44, 127
7, 56160, Note_on_c, 9, 40, 127
7, 56280, Note_off_c, 9, 44, 80
7, 56280, Note_off_c, 9, 40, 80
7, 56280, Note_on_c, 9, 44, 95
7, 56400, Note_off_c, 9, 44, 80
7, 56400, Note_on_c, 9, 44, 95
7, 56400, Note_on_c, 9, 36, 95
7, 56520, Note_off_c, 9, 44, 80
7, 56520, Note_off_c, 9, 36, 80
7, 56520, Note_on_c, 9, 44, 95
7, 56640, Note_off_c, 9, 44, 80
7, 56640, Note_on_c, 9, 44, 127
7, 56640, Note_on_c, 9, 40, 127
7, 56760, Note_off_c, 9, 44, 80
7, 56760, Note_off_c, 9, 40, 80
7, 56760, Note_on_c, 9, 44, 95
7, 56760, Note_on_c, 9, 40, 95
7, 56880, Note_off_c, 9, 44, 80
7, 56880, Note_off_c, 9, 40, 80
7, 56880, Note_on_c, 9, 44, 95
7, 56880, Note_on_c, 9, 40, 95
7, 57000, Note_off_c, 9, 44, 80
7, 57000, Note_off_c, 9, 40, 80
7, 57000, Note_on_c, 9, 44, 95
7, 57000, Note_on_c, 9, 40, 95
7, 57120, Note_off_c, 9, 44, 80
7, 57120, Note_off_c, 9, 40, 80
7, 57120, Note_on_c, 9, 44, 127
7, 57120, Note_on_c, 9, 43, 127
7, 57240, Note_off_c, 9, 44, 80
7, 57240, Note_off_c, 9, 43, 80
7, 57240, Note_on_c, 9, 44, 95
7, 57240, Note_on_c, 9, 43, 95
7, 57360, Note_off_c, 9, 44, 80
7, 57360, Note_off_c, 9, 43, 80
7, 57360, Note_on_c, 9, 44, 95
7, 57360, Note_on_c, 9, 41, 95
7, 57480, Note_off_c, 9, 44, 80
7, 57480, Note_off_c, 9, 41, 80
7, 57480, Note_on_c, 9, 41, 95
7, 57480, Note_on_c, 9, 44, 95
7, 57600, Note_off_c, 9, 41, 80
7, 57600, Note_off_c, 9, 44, 80
7, 57600, Note_on_c, 9, 57, 127
7, 57600, Note_on_c, 9, 36, 127
7, 57840, Note_off_c, 9, 57, 80
7, 57840, Note_off_c, 9, 36, 80
7, 58080, Note_on_c, 9, 57, 127
7, 58080, Note_on_c, 9, 40, 127
7, 58320, Note_off_c, 9, 57, 80
7, 58320, Note_off_c, 9, 40, 80
7, 58440, Note_on_c, 9, 40, 95
7, 58560, Note_off_c, 9, 40, 80
7, 58560, Note_on_c, 9, 57, 127
7, 58560, Note_on_c, 9, 36, 127
7, 58800, Note_off_c, 9, 57, 80
7, 58800, Note_off_c, 9, 36, 80
7, 58800, Note_on_c, 9, 36, 95
7, 59040, Note_off_c, 9, 36, 80
7, 59040, Note_on_c, 9, 57, 127
7, 59040, Note_on_c, 9, 40, 127
7, 59280, Note_off_c, 9, 57, 80
7, 59280, Note_off_c, 9, 40, 80
7, 59280, Note_on_c, 9, 36, 95
7, 59520, Note_off_c, 9, 36, 80
7, 59520, Note_on_c, 9, 57, 127
7, 59520, Note_on_c, 9, 36, 127
7, 60000, Note_off_c, 9, 57, 80
7, 60000, Note_off_c, 9, 36, 80
7, 60000, Note_on_c, 9, 40, 127
7, 60240, Note_off_c, 9, 40, 80
7, 61440, Note_on_c, 9, 57, 127
7, 61440, Note_on_c, 9, 36, 127
7, 61680, Note_off_c, 9, 57, 80
7, 61680, Note_off_c, 9, 36, 80
7, 61920, Note_on_c, 9, 57, 127
7, 61920, Note_on_c, 9, 40, 127
7, 62160, Note_off_c, 9, 57, 80
7, 62160, Note_off_c, 9, 40, 80
7, 62280, Note_on_c, 9, 40, 95
7, 62400, Note_off_c, 9, 40, 80
7, 62400, Note_on_c, 9, 57, 127
7, 62400, Note_on_c, 9, 36, 127
7, 62640, Note_off_c, 9, 57, 80
7, 62640, Note_off_c, 9, 36, 80
7, 62640, Note_on_c, 9, 36, 95
7, 62880, Note_off_c, 9, 36, 80
7, 62880, Note_on_c, 9, 57, 127
7, 62880, Note_on_c, 9, 40, 127
7, 63120, Note_off_c, 9, 57, 80
7, 63120, Note_off_c, 9, 40, 80
7, 63120, Note_on_c, 9, 36, 95
7, 63360, Note_off_c, 9, 36, 80
7, 63360, Note_on_c, 9, 57, 127
7, 63360, Note_on_c, 9, 36, 127
7, 63840, Note_off_c, 9, 57, 80
7, 63840, Note_off_c, 9, 36, 80
7, 63840, Note_on_c, 9, 40, 127
7, 64080, Note_off_c, 9, 40, 80
7, 65280, Note_on_c, 9, 57, 127
7, 65280, Note_on_c, 9, 36, 127
7, 65520, Note_off_c, 9, 57, 80
7, 65520, Note_off_c, 9, 36, 80
7, 65760, Note_on_c, 9, 57, 127
7, 65760, Note_on_c, 9, 40, 127
7, 66000, Note_off_c, 9, 57, 80
7, 66000, Note_off_c, 9, 40, 80
7, 66120, Note_on_c, 9, 40, 95
7, 66240, Note_off_c, 9, 40, 80
7, 66240, Note_on_c, 9, 57, 127
7, 66240, Note_on_c, 9, 36, 127
7, 66480, Note_off_c, 9, 57, 80
7, 66480, Note_off_c, 9, 36, 80
7, 66480, Note_on_c, 9, 36, 95
7, 66720, Note_off_c, 9, 36, 80
7, 66720, Note_on_c, 9, 57, 127
7, 66720, Note_on_c, 9, 40, 127
7, 66960, Note_off_c, 9, 57, 80
7, 66960, Note_off_c, 9, 40, 80
7, 66960, Note_on_c, 9, 36, 95
7, 67200, Note_off_c, 9, 36, 80
7, 67200, Note_on_c, 9, 57, 127
7, 67200, Note_on_c, 9, 36, 127
7, 67680, Note_off_c, 9, 57, 80
7, 67680, Note_off_c, 9, 36, 80
7, 67680, Note_on_c, 9, 40, 127
7, 67920, Note_off_c, 9, 40, 80
7, 69120, Note_on_c, 9, 57, 127
7, 69120, Note_on_c, 9, 36, 127
7, 69360, Note_off_c, 9, 57, 80
7, 69360, Note_off_c, 9, 36, 80
7, 69600, Note_on_c, 9, 57, 127
7, 69600, Note_on_c, 9, 40, 127
7, 69840, Note_off_c, 9, 57, 80
7, 69840, Note_off_c, 9, 40, 80
7, 69960, Note_on_c, 9, 40, 95
7, 70080, Note_off_c, 9, 40, 80
7, 70080, Note_on_c, 9, 57, 127
7, 70080, Note_on_c, 9, 36, 127
7, 70320, Note_off_c, 9, 57, 80
7, 70320, Note_off_c, 9, 36, 80
7, 70320, Note_on_c, 9, 40, 95
7, 70560, Note_off_c, 9, 40, 80
7, 70560, Note_on_c, 9, 57, 127
7, 70560, Note_on_c, 9, 40, 127
7, 70800, Note_off_c, 9, 57, 80
7, 70800, Note_off_c, 9, 40, 80
7, 70800, Note_on_c, 9, 36, 95
7, 71040, Note_off_c, 9, 36, 80
7, 71040, Note_on_c, 9, 57, 127
7, 71040, Note_on_c, 9, 40, 127
7, 71520, Note_off_c, 9, 57, 80
7, 71520, Note_off_c, 9, 40, 80
7, 71520, Note_on_c, 9, 57, 127
7, 71520, Note_on_c, 9, 40, 127
7, 71760, Note_off_c, 9, 57, 80
7, 71760, Note_off_c, 9, 40, 80
7, 75840, Note_on_c, 9, 46, 127
7, 75960, Note_off_c, 9, 46, 80
7, 75960, Note_on_c, 9, 46, 95
7, 76080, Note_off_c, 9, 46, 80
7, 76080, Note_on_c, 9, 46, 95
7, 76200, Note_off_c, 9, 46, 80
7, 76200, Note_on_c, 9, 46, 95
7, 76320, Note_off_c, 9, 46, 80
7, 76320, Note_on_c, 9, 46, 127
7, 76440, Note_off_c, 9, 46, 80
7, 76440, Note_on_c, 9, 46, 95
7, 76560, Note_off_c, 9, 46, 80
7, 76560, Note_on_c, 9, 46, 95
7, 76680, Note_off_c, 9, 46, 80
7, 76680, Note_on_c, 9, 46, 95
7, 76800, Note_off_c, 9, 46, 80
7, 80640, Note_on_c, 9, 44, 127
7, 80640, Note_on_c, 9, 57, 127
7, 80640, Note_on_c, 9, 36, 127
7, 80760, Note_off_c, 9, 44, 80
7, 80760, Note_off_c, 9, 57, 80
7, 80760, Note_off_c, 9, 36, 80
7, 80760, Note_on_c, 9, 44, 95
7, 80880, Note_off_c, 9, 44, 80
7, 80880, Note_on_c, 9, 44, 95
7, 81000, Note_off_c, 9, 44, 80
7, 81000, Note_on_c, 9, 44, 95
7, 81120, Note_off_c, 9, 44, 80
7, 81120, Note_on_c, 9, 40, 127
7, 81240, Note_off_c, 9, 40, 80
7, 81240, Note_on_c, 9, 44, 95
7, 81360, Note_off_c, 9, 44, 80
7, 81360, Note_on_c, 9, 44, 95
7, 81360, Note_on_c, 9, 36, 95
7, 81480, Note_off_c, 9, 44, 80
7, 81480, Note_off_c, 9, 36, 80
7, 81480, Note_on_c, 9, 40, 95
7, 81600, Note_off_c, 9, 40, 80
7, 81600, Note_on_c, 9, 44, 127
7, 81600, Note_on_c, 9, 36, 127
7, 81720, Note_off_c, 9, 44, 80
7, 81720, Note_off_c, 9, 36, 80
7, 81720, Note_on_c, 9, 44, 95
7, 81840, Note_off_c, 9, 44, 80
7, 81840, Note_on_c, 9, 44, 95
7, 81840, Note_on_c, 9, 36, 95
7, 81960, Note_off_c, 9, 44, 80
7, 81960, Note_off_c, 9, 36, 80
7, 81960, Note_on_c, 9, 44, 95
7, 82080, Note_off_c, 9, 44, 80
7, 82080, Note_on_c, 9, 40, 127
7, 82200, Note_off_c, 9, 40, 80
7, 82200, Note_on_c, 9, 44, 95
7, 82320, Note_off_c, 9, 44, 80
7, 82320, Note_on_c, 9, 44, 95
7, 82440, Note_off_c, 9, 44, 80
7, 82440, Note_on_c, 9, 40, 95
7, 82560, Note_off_c, 9, 40, 80
7, 82560, Note_on_c, 9, 44, 127
7, 82560, Note_on_c, 9, 36, 127
7, 82680, Note_off_c, 9, 44, 80
7, 82680, Note_off_c, 9, 36, 80
7, 82680, Note_on_c, 9, 44, 95
7, 82800, Note_off_c, 9, 44, 80
7, 82800, Note_on_c, 9, 44, 95
7, 82920, Note_off_c, 9, 44, 80
7, 82920, Note_on_c, 9, 44, 95
7, 83040, Note_off_c, 9, 44, 80
7, 83040, Note_on_c, 9, 40, 127
7, 83160, Note_off_c, 9, 40, 80
7, 83160, Note_on_c, 9, 44, 95
7, 83280, Note_off_c, 9, 44, 80
7, 83280, Note_on_c, 9, 44, 95
7, 83280, Note_on_c, 9, 40, 95
7, 83400, Note_off_c, 9, 44, 80
7, 83400, Note_off_c, 9, 40, 80
7, 83400, Note_on_c, 9, 40, 95
7, 83520, Note_off_c, 9, 40, 80
7, 83520, Note_on_c, 9, 44, 127
7, 83520, Note_on_c, 9, 57, 127
7, 83520, Note_on_c, 9, 36, 127
7, 83640, Note_off_c, 9, 44, 80
7, 83640, Note_off_c, 9, 57, 80
7, 83640, Note_off_c, 9, 36, 80
7, 83880, Note_on_c, 9, 44, 95
7, 83880, Note_on_c, 9, 57, 95
7, 83880, Note_on_c, 9, 36, 95
7, 84000, Note_off_c, 9, 44, 80
7, 84000, Note_off_c, 9, 57, 80
7, 84000, Note_off_c, 9, 36, 80
7, 84240, Note_on_c, 9, 44, 95
7, 84240, Note_on_c, 9, 57, 95
7, 84240, Note_on_c, 9, 36, 95
7, 84360, Note_off_c, 9, 44, 80
7, 84360, Note_off_c, 9, 57, 80
7, 84360, Note_off_c, 9, 36, 80
7, 84480, Note_on_c, 9, 44, 127
7, 84480, Note_on_c, 9, 57, 127
7, 84480, Note_on_c, 9, 36, 127
7, 84600, Note_off_c, 9, 44, 80
7, 84600, Note_off_c, 9, 57, 80
7, 84600, Note_off_c, 9, 36, 80
7, 84600, Note_on_c, 9, 44, 95
7, 84720, Note_off_c, 9, 44, 80
7, 84720, Note_on_c, 9, 44, 95
7, 84840, Note_off_c, 9, 44, 80
7, 84840, Note_on_c, 9, 44, 95
7, 84960, Note_off_c, 9, 44, 80
7, 84960, Note_on_c, 9, 40, 127
7, 85080, Note_off_c, 9, 40, 80
7, 85080, Note_on_c, 9, 44, 95
7, 85200, Note_off_c, 9, 44, 80
7, 85200, Note_on_c, 9, 44, 95
7, 85320, Note_off_c, 9, 44, 80
7, 85320, Note_on_c, 9, 40, 95
7, 85440, Note_off_c, 9, 40, 80
7, 85440, Note_on_c, 9, 44, 127
7, 85440, Note_on_c, 9, 36, 127
7, 85560, Note_off_c, 9, 44, 80
7, 85560, Note_off_c, 9, 36, 80
7, 85560, Note_on_c, 9, 44, 95
7, 85680, Note_off_c, 9, 44, 80
7, 85680, Note_on_c, 9, 44, 95
7, 85680, Note_on_c, 9, 36, 95
7, 85800, Note_off_c, 9, 44, 80
7, 85800, Note_off_c, 9, 36, 80
7, 85800, Note_on_c, 9, 44, 95
7, 85920, Note_off_c, 9, 44, 80
7, 85920, Note_on_c, 9, 40, 127
7, 86040, Note_off_c, 9, 40, 80
7, 86040, Note_on_c, 9, 44, 95
7, 86160, Note_off_c, 9, 44, 80
7, 86160, Note_on_c, 9, 44, 95
7, 86280, Note_off_c, 9, 44, 80
7, 86280, Note_on_c, 9, 40, 95
7, 86400, Note_off_c, 9, 40, 80
7, 86400, Note_on_c, 9, 44, 127
7, 86400, Note_on_c, 9, 36, 127
7, 86520, Note_off_c, 9, 44, 80
7, 86520, Note_off_c, 9, 36, 80
7, 86520, Note_on_c, 9, 44, 95
7, 86640, Note_off_c, 9, 44, 80
7, 86640, Note_on_c, 9, 44, 95
7, 86760, Note_off_c, 9, 44, 80
7, 86760, Note_on_c, 9, 44, 95
7, 86880, Note_off_c, 9, 44, 80
7, 86880, Note_on_c, 9, 40, 127
7, 87000, Note_off_c, 9, 40, 80
7, 87000, Note_on_c, 9, 44, 95
7, 87120, Note_off_c, 9, 44, 80
7, 87120, Note_on_c, 9, 44, 95
7, 87120, Note_on_c, 9, 36, 95
7, 87240, Note_off_c, 9, 44, 80
7, 87240, Note_off_c, 9, 36, 80
7, 87240, Note_on_c, 9, 40, 95
7, 87360, Note_off_c, 9, 40, 80
7, 87360, Note_on_c, 9, 44, 127
7, 87360, Note_on_c, 9, 36, 127
7, 87480, Note_off_c, 9, 44, 80
7, 87480, Note_off_c, 9, 36, 80
7, 87480, Note_on_c, 9, 44, 95
7, 87600, Note_off_c, 9, 44, 80
7, 87600, Note_on_c, 9, 44, 95
7, 87600, Note_on_c, 9, 36, 95
7, 87720, Note_off_c, 9, 44, 80
7, 87720, Note_off_c, 9, 36, 80
7, 87720, Note_on_c, 9, 44, 95
7, 87840, Note_off_c, 9, 44, 80
7, 87840, Note_on_c, 9, 40, 127
7, 87960, Note_off_c, 9, 40, 80
7, 87960, Note_on_c, 9, 44, 95
7, 88080, Note_off_c, 9, 44, 80
7, 88080, Note_on_c, 9, 44, 95
7, 88200, Note_off_c, 9, 44, 80
7, 88200, Note_on_c, 9, 44, 95
7, 88320, Note_off_c, 9, 44, 80
7, 88320, Note_on_c, 9, 44, 127
7, 88320, Note_on_c, 9, 57, 127
7, 88320, Note_on_c, 9, 36, 127
7, 88440, Note_off_c, 9, 44, 80
7, 88440, Note_off_c, 9, 57, 80
7, 88440, Note_off_c, 9, 36, 80
7, 88440, Note_on_c, 9, 44, 95
7, 88560, Note_off_c, 9, 44, 80
7, 88560, Note_on_c, 9, 44, 95
7, 88680, Note_off_c, 9, 44, 80
7, 88680, Note_on_c, 9, 44, 95
7, 88800, Note_off_c, 9, 44, 80
7, 88800, Note_on_c, 9, 40, 127
7, 88920, Note_off_c, 9, 40, 80
7, 88920, Note_on_c, 9, 44, 95
7, 89040, Note_off_c, 9, 44, 80
7, 89040, Note_on_c, 9, 44, 95
7, 89040, Note_on_c, 9, 36, 95
7, 89160, Note_off_c, 9, 44, 80
7, 89160, Note_off_c, 9, 36, 80
7, 89160, Note_on_c, 9, 40, 95
7, 89280, Note_off_c, 9, 40, 80
7, 89280, Note_on_c, 9, 44, 127
7, 89280, Note_on_c, 9, 36, 127
7, 89400, Note_off_c, 9, 44, 80
7, 89400, Note_off_c, 9, 36, 80
7, 89400, Note_on_c, 9, 44, 95
7, 89520, Note_off_c, 9, 44, 80
7, 89520, Note_on_c, 9, 44, 95
7, 89520, Note_on_c, 9, 36, 95
7, 89640, Note_off_c, 9, 44, 80
7, 89640, Note_off_c, 9, 36, 80
7, 89640, Note_on_c, 9, 44, 95
7, 89760, Note_off_c, 9, 44, 80
7, 89760, Note_on_c, 9, 40, 127
7, 89880, Note_off_c, 9, 40, 80
7, 89880, Note_on_c, 9, 44, 95
7, 90000, Note_off_c, 9, 44, 80
7, 90000, Note_on_c, 9, 44, 95
7, 90120, Note_off_c, 9, 44, 80
7, 90120, Note_on_c, 9, 40, 95
7, 90240, Note_off_c, 9, 40, 80
7, 90240, Note_on_c, 9, 44, 127
7, 90240, Note_on_c, 9, 36, 127
7, 90360, Note_off_c, 9, 44, 80
7, 90360, Note_off_c, 9, 36, 80
7, 90360, Note_on_c, 9, 44, 95
7, 90480, Note_off_c, 9, 44, 80
7, 90480, Note_on_c, 9, 44, 95
7, 90600, Note_off_c, 9, 44, 80
7, 90600, Note_on_c, 9, 44, 95
7, 90720, Note_off_c, 9, 44, 80
7, 90720, Note_on_c, 9, 40, 127
7, 90840, Note_off_c, 9, 40, 80
7, 90840, Note_on_c, 9, 44, 95
7, 90960, Note_off_c, 9, 44, 80
7, 90960, Note_on_c, 9, 44, 95
7, 90960, Note_on_c, 9, 36, 95
7, 91080, Note_off_c, 9, 44, 80
7, 91080, Note_off_c, 9, 36, 80
7, 91080, Note_on_c, 9, 40, 95
7, 91200, Note_off_c, 9, 40, 80
7, 91200, Note_on_c, 9, 44, 127
7, 91200, Note_on_c, 9, 36, 127
7, 91320, Note_off_c, 9, 44, 80
7, 91320, Note_off_c, 9, 36, 80
7, 91320, Note_on_c, 9, 44, 95
7, 91440, Note_off_c, 9, 44, 80
7, 91440, Note_on_c, 9, 44, 95
7, 91440, Note_on_c, 9, 36, 95
7, 91560, Note_off_c, 9, 44, 80
7, 91560, Note_off_c, 9, 36, 80
7, 91560, Note_on_c, 9, 44, 95
7, 91680, Note_off_c, 9, 44, 80
7, 91680, Note_on_c, 9, 40, 127
7, 91800, Note_off_c, 9, 40, 80
7, 91800, Note_on_c, 9, 44, 95
7, 91920, Note_off_c, 9, 44, 80
7, 91920, Note_on_c, 9, 44, 95
7, 92040, Note_off_c, 9, 44, 80
7, 92040, Note_on_c, 9, 40, 95
7, 92160, Note_off_c, 9, 40, 80
7, 92160, Note_on_c, 9, 44, 127
7, 92160, Note_on_c, 9, 36, 127
7, 92280, Note_off_c, 9, 44, 80
7, 92280, Note_off_c, 9, 36, 80
7, 92280, Note_on_c, 9, 44, 95
7, 92400, Note_off_c, 9, 44, 80
7, 92400, Note_on_c, 9, 44, 95
7, 92520, Note_off_c, 9, 44, 80
7, 92520, Note_on_c, 9, 44, 95
7, 92640, Note_off_c, 9, 44, 80
7, 92640, Note_on_c, 9, 40, 127
7, 92760, Note_off_c, 9, 40, 80
7, 92760, Note_on_c, 9, 44, 95
7, 92880, Note_off_c, 9, 44, 80
7, 92880, Note_on_c, 9, 44, 95
7, 92880, Note_on_c, 9, 36, 95
7, 93000, Note_off_c, 9, 44, 80
7, 93000, Note_off_c, 9, 36, 80
7, 93000, Note_on_c, 9, 40, 95
7, 93120, Note_off_c, 9, 40, 80
7, 93120, Note_on_c, 9, 44, 127
7, 93120, Note_on_c, 9, 36, 127
7, 93240, Note_off_c, 9, 44, 80
7, 93240, Note_off_c, 9, 36, 80
7, 93240, Note_on_c, 9, 44, 95
7, 93360, Note_off_c, 9, 44, 80
7, 93360, Note_on_c, 9, 44, 95
7, 93360, Note_on_c, 9, 36, 95
7, 93480, Note_off_c, 9, 44, 80
7, 93480, Note_off_c, 9, 36, 80
7, 93480, Note_on_c, 9, 44, 95
7, 93600, Note_off_c, 9, 44, 80
7, 93600, Note_on_c, 9, 40, 127
7, 93720, Note_off_c, 9, 40, 80
7, 93720, Note_on_c, 9, 44, 95
7, 93840, Note_off_c, 9, 44, 80
7, 93840, Note_on_c, 9, 44, 95
7, 93960, Note_off_c, 9, 44, 80
7, 93960, Note_on_c, 9, 40, 95
7, 94080, Note_off_c, 9, 40, 80
7, 94080, Note_on_c, 9, 44, 127
7, 94080, Note_on_c, 9, 36, 127
7, 94200, Note_off_c, 9, 44, 80
7, 94200, Note_off_c, 9, 36, 80
7, 94200, Note_on_c, 9, 44, 95
7, 94320, Note_off_c, 9, 44, 80
7, 94320, Note_on_c, 9, 44, 95
7, 94440, Note_off_c, 9, 44, 80
7, 94440, Note_on_c, 9, 44, 95
7, 94560, Note_off_c, 9, 44, 80
7, 94560, Note_on_c, 9, 40, 127
7, 94680, Note_off_c, 9, 40, 80
7, 94680, Note_on_c, 9, 44, 95
7, 94800, Note_off_c, 9, 44, 80
7, 94800, Note_on_c, 9, 44, 95
7, 94920, Note_off_c, 9, 44, 80
7, 94920, Note_on_c, 9, 40, 95
7, 95040, Note_off_c, 9, 40, 80
7, 95040, Note_on_c, 9, 44, 127
7, 95040, Note_on_c, 9, 36, 127
7, 95160, Note_off_c, 9, 44, 80
7, 95160, Note_off_c, 9, 36, 80
7, 95160, Note_on_c, 9, 44, 95
7, 95280, Note_off_c, 9, 44, 80
7, 95280, Note_on_c, 9, 44, 95
7, 95280, Note_on_c, 9, 36, 95
7, 95400, Note_off_c, 9, 44, 80
7, 95400, Note_off_c, 9, 36, 80
7, 95400, Note_on_c, 9, 44, 95
7, 95520, Note_off_c, 9, 44, 80
7, 95520, Note_on_c, 9, 40, 127
7, 95640, Note_off_c, 9, 40, 80
7, 95640, Note_on_c, 9, 44, 95
7, 95760, Note_off_c, 9, 44, 80
7, 95760, Note_on_c, 9, 44, 95
7, 95880, Note_off_c, 9, 44, 80
7, 95880, Note_on_c, 9, 44, 95
7, 96000, Note_off_c, 9, 44, 80
7, 96000, Note_on_c, 9, 44, 127
7, 96000, Note_on_c, 9, 57, 127
7, 96000, Note_on_c, 9, 36, 127
7, 96120, Note_off_c, 9, 44, 80
7, 96120, Note_off_c, 9, 57, 80
7, 96120, Note_off_c, 9, 36, 80
7, 96120, Note_on_c, 9, 44, 95
7, 96240, Note_off_c, 9, 44, 80
7, 96240, Note_on_c, 9, 44, 95
7, 96360, Note_off_c, 9, 44, 80
7, 96360, Note_on_c, 9, 44, 95
7, 96480, Note_off_c, 9, 44, 80
7, 96480, Note_on_c, 9, 40, 127
7, 96600, Note_off_c, 9, 40, 80
7, 96600, Note_on_c, 9, 44, 95
7, 96720, Note_off_c, 9, 44, 80
7, 96720, Note_on_c, 9, 44, 95
7, 96720, Note_on_c, 9, 36, 95
7, 96840, Note_off_c, 9, 44, 80
7, 96840, Note_off_c, 9, 36, 80
7, 96840, Note_on_c, 9, 40, 95
7, 96960, Note_off_c, 9, 40, 80
7, 96960, Note_on_c, 9, 44, 127
7, 96960, Note_on_c, 9, 36, 127
7, 97080, Note_off_c, 9, 44, 80
7, 97080, Note_off_c, 9, 36, 80
7, 97080, Note_on_c, 9, 44, 95
7, 97200, Note_off_c, 9, 44, 80
7, 97200, Note_on_c, 9, 44, 95
7, 97200, Note_on_c, 9, 36, 95
7, 97320, Note_off_c, 9, 44, 80
7, 97320, Note_off_c, 9, 36, 80
7, 97320, Note_on_c, 9, 44, 95
7, 97440, Note_off_c, 9, 44, 80
7, 97440, Note_on_c, 9, 40, 127
7, 97560, Note_off_c, 9, 40, 80
7, 97560, Note_on_c, 9, 44, 95
7, 97680, Note_off_c, 9, 44, 80
7, 97680, Note_on_c, 9, 44, 95
7, 97800, Note_off_c, 9, 44, 80
7, 97800, Note_on_c, 9, 40, 95
7, 97920, Note_off_c, 9, 40, 80
7, 97920, Note_on_c, 9, 44, 127
7, 97920, Note_on_c, 9, 36, 127
7, 98040, Note_off_c, 9, 44, 80
7, 98040, Note_off_c, 9, 36, 80
7, 98040, Note_on_c, 9, 44, 95
7, 98160, Note_off_c, 9, 44, 80
7, 98160, Note_on_c, 9, 44, 95
7, 98280, Note_off_c, 9, 44, 80
7, 98280, Note_on_c, 9, 44, 95
7, 98400, Note_off_c, 9, 44, 80
7, 98400, Note_on_c, 9, 40, 127
7, 98520, Note_off_c, 9, 40, 80
7, 98520, Note_on_c, 9, 44, 95
7, 98640, Note_off_c, 9, 44, 80
7, 98640, Note_on_c, 9, 44, 95
7, 98640, Note_on_c, 9, 36, 95
7, 98760, Note_off_c, 9, 44, 80
7, 98760, Note_off_c, 9, 36, 80
7, 98760, Note_on_c, 9, 40, 95
7, 98880, Note_off_c, 9, 40, 80
7, 98880, Note_on_c, 9, 44, 127
7, 98880, Note_on_c, 9, 36, 127
7, 99000, Note_off_c, 9, 44, 80
7, 99000, Note_off_c, 9, 36, 80
7, 99000, Note_on_c, 9, 44, 95
7, 99120, Note_off_c, 9, 44, 80
7, 99120, Note_on_c, 9, 44, 95
7, 99120, Note_on_c, 9, 36, 95
7, 99240, Note_off_c, 9, 44, 80
7, 99240, Note_off_c, 9, 36, 80
7, 99240, Note_on_c, 9, 44, 95
7, 99360, Note_off_c, 9, 44, 80
7, 99360, Note_on_c, 9, 40, 127
7, 99480, Note_off_c, 9, 40, 80
7, 99480, Note_on_c, 9, 44, 95
7, 99600, Note_off_c, 9, 44, 80
7, 99600, Note_on_c, 9, 44, 95
7, 99720, Note_off_c, 9, 44, 80
7, 99720, Note_on_c, 9, 44, 95
7, 99840, Note_off_c, 9, 44, 80
7, 99840, Note_on_c, 9, 44, 127
7, 99840, Note_on_c, 9, 57, 127
7, 99840, Note_on_c, 9, 36, 127
7, 99960, Note_off_c, 9, 44, 80
7, 99960, Note_off_c, 9, 57, 80
7, 99960, Note_off_c, 9, 36, 80
7, 99960, Note_on_c, 9, 44, 95
7, 100080, Note_off_c, 9, 44, 80
7, 100080, Note_on_c, 9, 44, 95
7, 100200, Note_off_c, 9, 44, 80
7, 100200, Note_on_c, 9, 44, 95
7, 100320, Note_off_c, 9, 44, 80
7, 100320, Note_on_c, 9, 40, 127
7, 100440, Note_off_c, 9, 40, 80
7, 100440, Note_on_c, 9, 44, 95
7, 100560, Note_off_c, 9, 44, 80
7, 100560, Note_on_c, 9, 44, 95
7, 100560, Note_on_c, 9, 36, 95
7, 100680, Note_off_c, 9, 44, 80
7, 100680, Note_off_c, 9, 36, 80
7, 100680, Note_on_c, 9, 40, 95
7, 100800, Note_off_c, 9, 40, 80
7, 100800, Note_on_c, 9, 44, 127
7, 100800, Note_on_c, 9, 36, 127
7, 100920, Note_off_c, 9, 44, 80
7, 100920, Note_off_c, 9, 36, 80
7, 100920, Note_on_c, 9, 44, 95
7, 101040, Note_off_c, 9, 44, 80
7, 101040, Note_on_c, 9, 44, 95
7, 101040, Note_on_c, 9, 36, 95
7, 101160, Note_off_c, 9, 44, 80
7, 101160, Note_off_c, 9, 36, 80
7, 101160, Note_on_c, 9, 44, 95
7, 101280, Note_off_c, 9, 44, 80
7, 101280, Note_on_c, 9, 40, 127
7, 101400, Note_off_c, 9, 40, 80
7, 101400, Note_on_c, 9, 44, 95
7, 101520, Note_off_c, 9, 44, 80
7, 101520, Note_on_c, 9, 44, 95
7, 101640, Note_off_c, 9, 44, 80
7, 101640, Note_on_c, 9, 40, 95
7, 101760, Note_off_c, 9, 40, 80
7, 101760, Note_on_c, 9, 44, 127
7, 101760, Note_on_c, 9, 36, 127
7, 101880, Note_off_c, 9, 44, 80
7, 101880, Note_off_c, 9, 36, 80
7, 101880, Note_on_c, 9, 44, 95
7, 102000, Note_off_c, 9, 44, 80
7, 102000, Note_on_c, 9, 44, 95
7, 102000, Note_on_c, 9, 36, 95
7, 102120, Note_off_c, 9, 44, 80
7, 102120, Note_off_c, 9, 36, 80
7, 102120, Note_on_c, 9, 44, 95
7, 102240, Note_off_c, 9, 44, 80
7, 102240, Note_on_c, 9, 40, 127
7, 102360, Note_off_c, 9, 40, 80
7, 102360, Note_on_c, 9, 44, 95
7, 102480, Note_off_c, 9, 44, 80
7, 102480, Note_on_c, 9, 44, 95
7, 102480, Note_on_c, 9, 36, 95
7, 102600, Note_off_c, 9, 44, 80
7, 102600, Note_off_c, 9, 36, 80
7, 102600, Note_on_c, 9, 44, 95
7, 102720, Note_off_c, 9, 44, 80
7, 102720, Note_on_c, 9, 44, 127
7, 102720, Note_on_c, 9, 36, 127
7, 102840, Note_off_c, 9, 44, 80
7, 102840, Note_off_c, 9, 36, 80
7, 102840, Note_on_c, 9, 44, 95
7, 102960, Note_off_c, 9, 44, 80
7, 102960, Note_on_c, 9, 44, 95
7, 102960, Note_on_c, 9, 40, 95
7, 103080, Note_off_c, 9, 44, 80
7, 103080, Note_off_c, 9, 40, 80
7, 103080, Note_on_c, 9, 44, 95
7, 103200, Note_off_c, 9, 44, 80
7, 103200, Note_on_c, 9, 40, 127
7, 103320, Note_off_c, 9, 40, 80
7, 103320, Note_on_c, 9, 44, 95
7, 103320, Note_on_c, 9, 40, 95
7, 103440, Note_off_c, 9, 44, 80
7, 103440, Note_off_c, 9, 40, 80
7, 103440, Note_on_c, 9, 44, 95
7, 103440, Note_on_c, 9, 40, 95
7, 103560, Note_off_c, 9, 44, 80
7, 103560, Note_off_c, 9, 40, 80
7, 103560, Note_on_c, 9, 40, 95
7, 103680, Note_off_c, 9, 40, 80
7, 103680, Note_on_c, 9, 44, 127
7, 104160, Note_off_c, 9, 44, 80
7, 104160, Note_on_c, 9, 44, 127
7, 104640, Note_off_c, 9, 44, 80
7, 104640, Note_on_c, 9, 44, 127
7, 105120, Note_off_c, 9, 44, 80
7, 105120, Note_on_c, 9, 44, 127
7, 105600, Note_off_c, 9, 44, 80
7, 105600, Note_on_c, 9, 57, 127
7, 105600, Note_on_c, 9, 36, 127
7, 105600, Note_on_c, 9, 44, 127
7, 105720, Note_off_c, 9, 57, 80
7, 105720, Note_off_c, 9, 36, 80
7, 105720, Note_off_c, 9, 44, 80
7, 105720, Note_on_c, 9, 44, 95
7, 105840, Note_off_c, 9, 44, 80
7, 105840, Note_on_c, 9, 36, 95
7, 105840, Note_on_c, 9, 44, 95
7, 105960, Note_off_c, 9, 36, 80
7, 105960, Note_off_c, 9, 44, 80
7, 105960, Note_on_c, 9, 44, 95
7, 106080, Note_off_c, 9, 44, 80
7, 106080, Note_on_c, 9, 40, 127
7, 106080, Note_on_c, 9, 36, 127
7, 106080, Note_on_c, 9, 44, 127
7, 106200, Note_off_c, 9, 40, 80
7, 106200, Note_off_c, 9, 36, 80
7, 106200, Note_off_c, 9, 44, 80
7, 106200, Note_on_c, 9, 44, 95
7, 106320, Note_off_c, 9, 44, 80
7, 106320, Note_on_c, 9, 36, 95
7, 106320, Note_on_c, 9, 44, 95
7, 106440, Note_off_c, 9, 36, 80
7, 106440, Note_off_c, 9, 44, 80
7, 106440, Note_on_c, 9, 44, 95
7, 106560, Note_off_c, 9, 44, 80
7, 106560, Note_on_c, 9, 36, 127
7, 106560, Note_on_c, 9, 44, 127
7, 106680, Note_off_c, 9, 36, 80
7, 106680, Note_off_c, 9, 44, 80
7, 106680, Note_on_c, 9, 44, 95
7, 106800, Note_off_c, 9, 44, 80
7, 106800, Note_on_c, 9, 36, 95
7, 106800, Note_on_c, 9, 44, 95
7, 106920, Note_off_c, 9, 36, 80
7, 106920, Note_off_c, 9, 44, 80
7, 106920, Note_on_c, 9, 44, 95
7, 107040, Note_off_c, 9, 44, 80
7, 107040, Note_on_c, 9, 40, 127
7, 107040, Note_on_c, 9, 36, 127
7, 107040, Note_on_c, 9, 44, 127
7, 107160, Note_off_c, 9, 40, 80
7, 107160, Note_off_c, 9, 36, 80
7, 107160, Note_off_c, 9, 44, 80
7, 107160, Note_on_c, 9, 44, 95
7, 107280, Note_off_c, 9, 44, 80
7, 107280, Note_on_c, 9, 36, 95
7, 107280, Note_on_c, 9, 44, 95
7, 107400, Note_off_c, 9, 36, 80
7, 107400, Note_off_c, 9, 44, 80
7, 107400, Note_on_c, 9, 44, 95
7, 107520, Note_off_c, 9, 44, 80
7, 107520, Note_on_c, 9, 36, 127
7, 107520, Note_on_c, 9, 44, 127
7, 107640, Note_off_c, 9, 36, 80
7, 107640, Note_off_c, 9, 44, 80
7, 107640, Note_on_c, 9, 44, 95
7, 107760, Note_off_c, 9, 44, 80
7, 107760, Note_on_c, 9, 36, 95
7, 107760, Note_on_c, 9, 44, 95
7, 107880, Note_off_c, 9, 36, 80
7, 107880, Note_off_c, 9, 44, 80
7, 107880, Note_on_c, 9, 44, 95
7, 108000, Note_off_c, 9, 44, 80
7, 108000, Note_on_c, 9, 40, 127
7, 108000, Note_on_c, 9, 36, 127
7, 108000, Note_on_c, 9, 44, 127
7, 108120, Note_off_c, 9, 40, 80
7, 108120, Note_off_c, 9, 36, 80
7, 108120, Note_off_c, 9, 44, 80
7, 108120, Note_on_c, 9, 44, 95
7, 108240, Note_off_c, 9, 44, 80
7, 108240, Note_on_c, 9, 36, 95
7, 108240, Note_on_c, 9, 44, 95
7, 108360, Note_off_c, 9, 36, 80
7, 108360, Note_off_c, 9, 44, 80
7, 108360, Note_on_c, 9, 44, 95
7, 108480, Note_off_c, 9, 44, 80
7, 108480, Note_on_c, 9, 36, 127
7, 108480, Note_on_c, 9, 44, 127
7, 108600, Note_off_c, 9, 36, 80
7, 108600, Note_off_c, 9, 44, 80
7, 108600, Note_on_c, 9, 44, 95
7, 108720, Note_off_c, 9, 44, 80
7, 108720, Note_on_c, 9, 36, 95
7, 108720, Note_on_c, 9, 44, 95
7, 108840, Note_off_c, 9, 36, 80
7, 108840, Note_off_c, 9, 44, 80
7, 108840, Note_on_c, 9, 44, 95
7, 108960, Note_off_c, 9, 44, 80
7, 108960, Note_on_c, 9, 40, 127
7, 108960, Note_on_c, 9, 36, 127
7, 108960, Note_on_c, 9, 44, 127
7, 109080, Note_off_c, 9, 40, 80
7, 109080, Note_off_c, 9, 36, 80
7, 109080, Note_off_c, 9, 44, 80
7, 109080, Note_on_c, 9, 44, 95
7, 109200, Note_off_c, 9, 44, 80
7, 109200, Note_on_c, 9, 36, 95
7, 109200, Note_on_c, 9, 44, 95
7, 109320, Note_off_c, 9, 36, 80
7, 109320, Note_off_c, 9, 44, 80
7, 109320, Note_on_c, 9, 44, 95
7, 109440, Note_off_c, 9, 44, 80
7, 109440, Note_on_c, 9, 57, 127
7, 109440, Note_on_c, 9, 36, 127
7, 109440, Note_on_c, 9, 44, 127
7, 109560, Note_off_c, 9, 57, 80
7, 109560, Note_off_c, 9, 36, 80
7, 109560, Note_off_c, 9, 44, 80
7, 109560, Note_on_c, 9, 44, 95
7, 109680, Note_off_c, 9, 44, 80
7, 109680, Note_on_c, 9, 36, 95
7, 109680, Note_on_c, 9, 44, 95
7, 109800, Note_off_c, 9, 36, 80
7, 109800, Note_off_c, 9, 44, 80
7, 109800, Note_on_c, 9, 44, 95
7, 109920, Note_off_c, 9, 44, 80
7, 109920, Note_on_c, 9, 40, 127
7, 109920, Note_on_c, 9, 36, 127
7, 109920, Note_on_c, 9, 44, 127
7, 110040, Note_off_c, 9, 40, 80
7, 110040, Note_off_c, 9, 36, 80
7, 110040, Note_off_c, 9, 44, 80
7, 110040, Note_on_c, 9, 44, 95
7, 110160, Note_off_c, 9, 44, 80
7, 110160, Note_on_c, 9, 36, 95
7, 110160, Note_on_c, 9, 44, 95
7, 110280, Note_off_c, 9, 36, 80
7, 110280, Note_off_c, 9, 44, 80
7, 110280, Note_on_c, 9, 44, 95
7, 110400, Note_off_c, 9, 44, 80
7, 110400, Note_on_c, 9, 36, 127
7, 110400, Note_on_c, 9, 44, 127
7, 110520, Note_off_c, 9, 36, 80
7, 110520, Note_off_c, 9, 44, 80
7, 110520, Note_on_c, 9, 44, 95
7, 110640, Note_off_c, 9, 44, 80
7, 110640, Note_on_c, 9, 36, 95
7, 110640, Note_on_c, 9, 44, 95
7, 110760, Note_off_c, 9, 36, 80
7, 110760, Note_off_c, 9, 44, 80
7, 110760, Note_on_c, 9, 44, 95
7, 110880, Note_off_c, 9, 44, 80
7, 110880, Note_on_c, 9, 40, 127
7, 110880, Note_on_c, 9, 36, 127
7, 110880, Note_on_c, 9, 44, 127
7, 111000, Note_off_c, 9, 40, 80
7, 111000, Note_off_c, 9, 36, 80
7, 111000, Note_off_c, 9, 44, 80
7, 111000, Note_on_c, 9, 44, 95
7, 111120, Note_off_c, 9, 44, 80
7, 111120, Note_on_c, 9, 36, 95
7, 111120, Note_on_c, 9, 44, 95
7, 111240, Note_off_c, 9, 36, 80
7, 111240, Note_off_c, 9, 44, 80
7, 111240, Note_on_c, 9, 44, 95
7, 111360, Note_off_c, 9, 44, 80
7, 111360, Note_on_c, 9, 36, 127
7, 111360, Note_on_c, 9, 44, 127
7, 111480, Note_off_c, 9, 36, 80
7, 111480, Note_off_c, 9, 44, 80
7, 111480, Note_on_c, 9, 44, 95
7, 111600, Note_off_c, 9, 44, 80
7, 111600, Note_on_c, 9, 36, 95
7, 111600, Note_on_c, 9, 44, 95
7, 111720, Note_off_c, 9, 36, 80
7, 111720, Note_off_c, 9, 44, 80
7, 111720, Note_on_c, 9, 44, 95
7, 111840, Note_off_c, 9, 44, 80
7, 111840, Note_on_c, 9, 40, 127
7, 111840, Note_on_c, 9, 36, 127
7, 111840, Note_on_c, 9, 44, 127
7, 111960, Note_off_c, 9, 40, 80
7, 111960, Note_off_c, 9, 36, 80
7, 111960, Note_off_c, 9, 44, 80
7, 111960, Note_on_c, 9, 44, 95
7, 112080, Note_off_c, 9, 44, 80
7, 112080, Note_on_c, 9, 36, 95
7, 112080, Note_on_c, 9, 44, 95
7, 112200, Note_off_c, 9, 36, 80
7, 112200, Note_off_c, 9, 44, 80
7, 112200, Note_on_c, 9, 44, 95
7, 112320, Note_off_c, 9, 44, 80
7, 112320, Note_on_c, 9, 36, 127
7, 112320, Note_on_c, 9, 44, 127
7, 112440, Note_off_c, 9, 36, 80
7, 112440, Note_off_c, 9, 44, 80
7, 112440, Note_on_c, 9, 44, 95
7, 112560, Note_off_c, 9, 44, 80
7, 112560, Note_on_c, 9, 36, 95
7, 112560, Note_on_c, 9, 44, 95
7, 112680, Note_off_c, 9, 36, 80
7, 112680, Note_off_c, 9, 44, 80
7, 112680, Note_on_c, 9, 44, 95
7, 112800, Note_off_c, 9, 44, 80
7, 112800, Note_on_c, 9, 40, 127
7, 112800, Note_on_c, 9, 36, 127
7, 112800, Note_on_c, 9, 44, 127
7, 112920, Note_off_c, 9, 40, 80
7, 112920, Note_off_c, 9, 36, 80
7, 112920, Note_off_c, 9, 44, 80
7, 112920, Note_on_c, 9, 44, 95
7, 113040, Note_off_c, 9, 44, 80
7, 113040, Note_on_c, 9, 40, 95
7, 113040, Note_on_c, 9, 36, 95
7, 113040, Note_on_c, 9, 44, 95
7, 113160, Note_off_c, 9, 40, 80
7, 113160, Note_off_c, 9, 36, 80
7, 113160, Note_off_c, 9, 44, 80
7, 113160, Note_on_c, 9, 40, 95
7, 113160, Note_on_c, 9, 44, 95
7, 113280, Note_off_c, 9, 40, 80
7, 113280, Note_off_c, 9, 44, 80
7, 113280, Note_on_c, 9, 57, 127
7, 113280, Note_on_c, 9, 36, 127
7, 113280, Note_on_c, 9, 44, 127
7, 113400, Note_off_c, 9, 57, 80
7, 113400, Note_off_c, 9, 36, 80
7, 113400, Note_off_c, 9, 44, 80
7, 113400, Note_on_c, 9, 44, 95
7, 113520, Note_off_c, 9, 44, 80
7, 113520, Note_on_c, 9, 36, 95
7, 113520, Note_on_c, 9, 44, 95
7, 113640, Note_off_c, 9, 36, 80
7, 113640, Note_off_c, 9, 44, 80
7, 113640, Note_on_c, 9, 44, 95
7, 113760, Note_off_c, 9, 44, 80
7, 113760, Note_on_c, 9, 40, 127
7, 113760, Note_on_c, 9, 36, 127
7, 113760, Note_on_c, 9, 44, 127
7, 113880, Note_off_c, 9, 40, 80
7, 113880, Note_off_c, 9, 36, 80
7, 113880, Note_off_c, 9, 44, 80
7, 113880, Note_on_c, 9, 44, 95
7, 114000, Note_off_c, 9, 44, 80
7, 114000, Note_on_c, 9, 36, 95
7, 114000, Note_on_c, 9, 44, 95
7, 114120, Note_off_c, 9, 36, 80
7, 114120, Note_off_c, 9, 44, 80
7, 114120, Note_on_c, 9, 44, 95
7, 114240, Note_off_c, 9, 44, 80
7, 114240, Note_on_c, 9, 36, 127
7, 114240, Note_on_c, 9, 44, 127
7, 114360, Note_off_c, 9, 36, 80
7, 114360, Note_off_c, 9, 44, 80
7, 114360, Note_on_c, 9, 44, 95
7, 114480, Note_off_c, 9, 44, 80
7, 114480, Note_on_c, 9, 36, 95
7, 114480, Note_on_c, 9, 44, 95
7, 114600, Note_off_c, 9, 36, 80
7, 114600, Note_off_c, 9, 44, 80
7, 114600, Note_on_c, 9, 44, 95
7, 114720, Note_off_c, 9, 44, 80
7, 114720, Note_on_c, 9, 40, 127
7, 114720, Note_on_c, 9, 36, 127
7, 114720, Note_on_c, 9, 44, 127
7, 114840, Note_off_c, 9, 40, 80
7, 114840, Note_off_c, 9, 36, 80
7, 114840, Note_off_c, 9, 44, 80
7, 114840, Note_on_c, 9, 44, 95
7, 114960, Note_off_c, 9, 44, 80
7, 114960, Note_on_c, 9, 36, 95
7, 114960, Note_on_c, 9, 44, 95
7, 115080, Note_off_c, 9, 36, 80
7, 115080, Note_off_c, 9, 44, 80
7, 115080, Note_on_c, 9, 44, 95
7, 115200, Note_off_c, 9, 44, 80
7, 115200, Note_on_c, 9, 36, 127
7, 115200, Note_on_c, 9, 44, 127
7, 115320, Note_off_c, 9, 36, 80
7, 115320, Note_off_c, 9, 44, 80
7, 115320, Note_on_c, 9, 44, 95
7, 115440, Note_off_c, 9, 44, 80
7, 115440, Note_on_c, 9, 36, 95
7, 115440, Note_on_c, 9, 44, 95
7, 115560, Note_off_c, 9, 36, 80
7, 115560, Note_off_c, 9, 44, 80
7, 115560, Note_on_c, 9, 44, 95
7, 115680, Note_off_c, 9, 44, 80
7, 115680, Note_on_c, 9, 40, 127
7, 115680, Note_on_c, 9, 36, 127
7, 115680, Note_on_c, 9, 44, 127
7, 115800, Note_off_c, 9, 40, 80
7, 115800, Note_off_c, 9, 36, 80
7, 115800, Note_off_c, 9, 44, 80
7, 115800, Note_on_c, 9, 44, 95
7, 115920, Note_off_c, 9, 44, 80
7, 115920, Note_on_c, 9, 36, 95
7, 115920, Note_on_c, 9, 44, 95
7, 116040, Note_off_c, 9, 36, 80
7, 116040, Note_off_c, 9, 44, 80
7, 116040, Note_on_c, 9, 44, 95
7, 116160, Note_off_c, 9, 44, 80
7, 116160, Note_on_c, 9, 36, 127
7, 116160, Note_on_c, 9, 44, 127
7, 116280, Note_off_c, 9, 36, 80
7, 116280, Note_off_c, 9, 44, 80
7, 116280, Note_on_c, 9, 44, 95
7, 116400, Note_off_c, 9, 44, 80
7, 116400, Note_on_c, 9, 36, 95
7, 116400, Note_on_c, 9, 44, 95
7, 116520, Note_off_c, 9, 36, 80
7, 116520, Note_off_c, 9, 44, 80
7, 116520, Note_on_c, 9, 44, 95
7, 116640, Note_off_c, 9, 44, 80
7, 116640, Note_on_c, 9, 40, 127
7, 116640, Note_on_c, 9, 36, 127
7, 116640, Note_on_c, 9, 44, 127
7, 116760, Note_off_c, 9, 40, 80
7, 116760, Note_off_c, 9, 36, 80
7, 116760, Note_off_c, 9, 44, 80
7, 116760, Note_on_c, 9, 44, 95
7, 116880, Note_off_c, 9, 44, 80
7, 116880, Note_on_c, 9, 40, 95
7, 116880, Note_on_c, 9, 36, 95
7, 116880, Note_on_c, 9, 44, 95
7, 117000, Note_off_c, 9, 40, 80
7, 117000, Note_off_c, 9, 36, 80
7, 117000, Note_off_c, 9, 44, 80
7, 117000, Note_on_c, 9, 40, 95
7, 117000, Note_on_c, 9, 44, 95
7, 117120, Note_off_c, 9, 40, 80
7, 117120, Note_off_c, 9, 44, 80
7, 117120, Note_on_c, 9, 57, 127
7, 117120, Note_on_c, 9, 40, 127
7, 117120, Note_on_c, 9, 36, 127
7, 117120, Note_on_c, 9, 44, 127
7, 117240, Note_off_c, 9, 57, 80
7, 117240, Note_off_c, 9, 40, 80
7, 117240, Note_off_c, 9, 36, 80
7, 117240, Note_off_c, 9, 44, 80
7, 117240, Note_on_c, 9, 44, 95
7, 117360, Note_off_c, 9, 44, 80
7, 117360, Note_on_c, 9, 36, 95
7, 117360, Note_on_c, 9, 44, 95
7, 117480, Note_off_c, 9, 36, 80
7, 117480, Note_off_c, 9, 44, 80
7, 117480, Note_on_c, 9, 40, 95
7, 117480, Note_on_c, 9, 44, 95
7, 117600, Note_off_c, 9, 40, 80
7, 117600, Note_off_c, 9, 44, 80
7, 117600, Note_on_c, 9, 40, 127
7, 117600, Note_on_c, 9, 36, 127
7, 117600, Note_on_c, 9, 44, 127
7, 117720, Note_off_c, 9, 40, 80
7, 117720, Note_off_c, 9, 36, 80
7, 117720, Note_off_c, 9, 44, 80
7, 117720, Note_on_c, 9, 44, 95
7, 117840, Note_off_c, 9, 44, 80
7, 117840, Note_on_c, 9, 40, 95
7, 117840, Note_on_c, 9, 36, 95
7, 117840, Note_on_c, 9, 44, 95
7, 117960, Note_off_c, 9, 40, 80
7, 117960, Note_off_c, 9, 36, 80
7, 117960, Note_off_c, 9, 44, 80
7, 117960, Note_on_c, 9, 44, 95
7, 118080, Note_off_c, 9, 44, 80
7, 118080, Note_on_c, 9, 36, 127
7, 118080, Note_on_c, 9, 44, 127
7, 118200, Note_off_c, 9, 36, 80
7, 118200, Note_off_c, 9, 44, 80
7, 118200, Note_on_c, 9, 40, 95
7, 118200, Note_on_c, 9, 44, 95
7, 118320, Note_off_c, 9, 40, 80
7, 118320, Note_off_c, 9, 44, 80
7, 118320, Note_on_c, 9, 40, 95
7, 118320, Note_on_c, 9, 36, 95
7, 118320, Note_on_c, 9, 44, 95
7, 118440, Note_off_c, 9, 40, 80
7, 118440, Note_off_c, 9, 36, 80
7, 118440, Note_off_c, 9, 44, 80
7, 118440, Note_on_c, 9, 44, 95
7, 118560, Note_off_c, 9, 44, 80
7, 118560, Note_on_c, 9, 40, 127
7, 118560, Note_on_c, 9, 36, 127
7, 118560, Note_on_c, 9, 44, 127
7, 118680, Note_off_c, 9, 40, 80
7, 118680, Note_off_c, 9, 36, 80
7, 118680, Note_off_c, 9, 44, 80
7, 118680, Note_on_c, 9, 44, 95
7, 118800, Note_off_c, 9, 44, 80
7, 118800, Note_on_c, 9, 36, 95
7, 118800, Note_on_c, 9, 44, 95
7, 118920, Note_off_c, 9, 36, 80
7, 118920, Note_off_c, 9, 44, 80
7, 118920, Note_on_c, 9, 44, 95
7, 119040, Note_off_c, 9, 44, 80
7, 119040, Note_on_c, 9, 40, 127
7, 119040, Note_on_c, 9, 36, 127
7, 119040, Note_on_c, 9, 44, 127
7, 119160, Note_off_c, 9, 40, 80
7, 119160, Note_off_c, 9, 36, 80
7, 119160, Note_off_c, 9, 44, 80
7, 119160, Note_on_c, 9, 44, 95
7, 119280, Note_off_c, 9, 44, 80
7, 119280, Note_on_c, 9, 36, 95
7, 119280, Note_on_c, 9, 44, 95
7, 119400, Note_off_c, 9, 36, 80
7, 119400, Note_off_c, 9, 44, 80
7, 119400, Note_on_c, 9, 44, 95
7, 119520, Note_off_c, 9, 44, 80
7, 119520, Note_on_c, 9, 40, 127
7, 119520, Note_on_c, 9, 36, 127
7, 119520, Note_on_c, 9, 44, 127
7, 119640, Note_off_c, 9, 40, 80
7, 119640, Note_off_c, 9, 36, 80
7, 119640, Note_off_c, 9, 44, 80
7, 119640, Note_on_c, 9, 44, 95
7, 119760, Note_off_c, 9, 44, 80
7, 119760, Note_on_c, 9, 36, 95
7, 119760, Note_on_c, 9, 44, 95
7, 119880, Note_off_c, 9, 36, 80
7, 119880, Note_off_c, 9, 44, 80
7, 119880, Note_on_c, 9, 44, 95
7, 120000, Note_off_c, 9, 44, 80
7, 120000, Note_on_c, 9, 40, 127
7, 120000, Note_on_c, 9, 36, 127
7, 120000, Note_on_c, 9, 44, 127
7, 120120, Note_off_c, 9, 40, 80
7, 120120, Note_off_c, 9, 36, 80
7, 120120, Note_off_c, 9, 44, 80
7, 120120, Note_on_c, 9, 40, 95
7, 120120, Note_on_c, 9, 44, 95
7, 120240, Note_off_c, 9, 40, 80
7, 120240, Note_off_c, 9, 44, 80
7, 120240, Note_on_c, 9, 40, 95
7, 120240, Note_on_c, 9, 36, 95
7, 120240, Note_on_c, 9, 44, 95
7, 120360, Note_off_c, 9, 40, 80
7, 120360, Note_off_c, 9, 36, 80
7, 120360, Note_off_c, 9, 44, 80
7, 120360, Note_on_c, 9, 40, 95
7, 120360, Note_on_c, 9, 44, 95
7, 120480, Note_off_c, 9, 40, 80
7, 120480, Note_off_c, 9, 44, 80
7, 120480, Note_on_c, 9, 40, 127
7, 120480, Note_on_c, 9, 36, 127
7, 120480, Note_on_c, 9, 44, 127
7, 120600, Note_off_c, 9, 40, 80
7, 120600, Note_off_c, 9, 36, 80
7, 120600, Note_off_c, 9, 44, 80
7, 120600, Note_on_c, 9, 40, 95
7, 120600, Note_on_c, 9, 44, 95
7, 120720, Note_off_c, 9, 40, 80
7, 120720, Note_off_c, 9, 44, 80
7, 120720, Note_on_c, 9, 40, 95
7, 120720, Note_on_c, 9, 36, 95
7, 120720, Note_on_c, 9, 44, 95
7, 120840, Note_off_c, 9, 40, 80
7, 120840, Note_off_c, 9, 36, 80
7, 120840, Note_off_c, 9, 44, 80
7, 120840, Note_on_c, 9, 40, 95
7, 120840, Note_on_c, 9, 44, 95
7, 120960, Note_off_c, 9, 40, 80
7, 120960, Note_off_c, 9, 44, 80
7, 120960, Note_on_c, 9, 57, 127
7, 120960, Note_on_c, 9, 40, 127
7, 120960, Note_on_c, 9, 36, 127
7, 121200, Note_off_c, 9, 57, 80
7, 121200, Note_off_c, 9, 40, 80
7, 121200, Note_off_c, 9, 36, 80
7, 121440, Note_on_c, 9, 44, 127
7, 121680, Note_off_c, 9, 44, 80
7, 121680, Note_on_c, 9, 36, 95
7, 121680, Note_on_c, 9, 40, 95
7, 121920, Note_off_c, 9, 36, 80
7, 121920, Note_off_c, 9, 40, 80
7, 121920, Note_on_c, 9, 44, 127
7, 122160, Note_off_c, 9, 44, 80
7, 122160, Note_on_c, 9, 36, 95
7, 122160, Note_on_c, 9, 40, 95
7, 122400, Note_off_c, 9, 36, 80
7, 122400, Note_off_c, 9, 40, 80
7, 122400, Note_on_c, 9, 44, 127
7, 122640, Note_off_c, 9, 44, 80
7, 122640, Note_on_c, 9, 36, 95
7, 122640, Note_on_c, 9, 40, 95
7, 122880, Note_off_c, 9, 36, 80
7, 122880, Note_off_c, 9, 40, 80
7, 122880, Note_on_c, 9, 44, 127
7, 123120, Note_off_c, 9, 44, 80
7, 123120, Note_on_c, 9, 36, 95
7, 123120, Note_on_c, 9, 40, 95
7, 123360, Note_off_c, 9, 36, 80
7, 123360, Note_off_c, 9, 40, 80
7, 123360, Note_on_c, 9, 44, 127
7, 123600, Note_off_c, 9, 44, 80
7, 123600, Note_on_c, 9, 36, 95
7, 123600, Note_on_c, 9, 40, 95
7, 123840, Note_off_c, 9, 36, 80
7, 123840, Note_off_c, 9, 40, 80
7, 123840, Note_on_c, 9, 44, 127
7, 124080, Note_off_c, 9, 44, 80
7, 124080, Note_on_c, 9, 36, 95
7, 124080, Note_on_c, 9, 40, 95
7, 124320, Note_off_c, 9, 36, 80
7, 124320, Note_off_c, 9, 40, 80
7, 124320, Note_on_c, 9, 44, 127
7, 124560, Note_off_c, 9, 44, 80
7, 124560, Note_on_c, 9, 36, 95
7, 124560, Note_on_c, 9, 40, 95
7, 124800, Note_off_c, 9, 36, 80
7, 124800, Note_off_c, 9, 40, 80
7, 124800, Note_on_c, 9, 44, 127
7, 125040, Note_off_c, 9, 44, 80
7, 125040, Note_on_c, 9, 36, 95
7, 125040, Note_on_c, 9, 40, 95
7, 125280, Note_off_c, 9, 36, 80
7, 125280, Note_off_c, 9, 40, 80
7, 125280, Note_on_c, 9, 44, 127
7, 125520, Note_off_c, 9, 44, 80
7, 125520, Note_on_c, 9, 36, 95
7, 125520, Note_on_c, 9, 40, 95
7, 125760, Note_off_c, 9, 36, 80
7, 125760, Note_off_c, 9, 40, 80
7, 125760, Note_on_c, 9, 44, 127
7, 126000, Note_off_c, 9, 44, 80
7, 126000, Note_on_c, 9, 36, 95
7, 126000, Note_on_c, 9, 40, 95
7, 126240, Note_off_c, 9, 36, 80
7, 126240, Note_off_c, 9, 40, 80
7, 126240, Note_on_c, 9, 44, 127
7, 126480, Note_off_c, 9, 44, 80
7, 126480, Note_on_c, 9, 36, 95
7, 126480, Note_on_c, 9, 40, 95
7, 126720, Note_off_c, 9, 36, 80
7, 126720, Note_off_c, 9, 40, 80
7, 126720, Note_on_c, 9, 44, 127
7, 126960, Note_off_c, 9, 44, 80
7, 126960, Note_on_c, 9, 36, 95
7, 126960, Note_on_c, 9, 40, 95
7, 127200, Note_off_c, 9, 36, 80
7, 127200, Note_off_c, 9, 40, 80
7, 127200, Note_on_c, 9, 44, 127
7, 127440, Note_off_c, 9, 44, 80
7, 127440, Note_on_c, 9, 36, 95
7, 127440, Note_on_c, 9, 40, 95
7, 127680, Note_off_c, 9, 36, 80
7, 127680, Note_off_c, 9, 40, 80
7, 127680, Note_on_c, 9, 44, 127
7, 127920, Note_off_c, 9, 44, 80
7, 127920, Note_on_c, 9, 36, 95
7, 127920, Note_on_c, 9, 40, 95
7, 128160, Note_off_c, 9, 36, 80
7, 128160, Note_off_c, 9, 40, 80
7, 128160, Note_on_c, 9, 44, 127
7, 128400, Note_off_c, 9, 44, 80
7, 128400, Note_on_c, 9, 36, 95
7, 128400, Note_on_c, 9, 40, 95
7, 128640, Note_off_c, 9, 36, 80
7, 128640, Note_off_c, 9, 40, 80
7, 128640, Note_on_c, 9, 44, 127
7, 128880, Note_off_c, 9, 44, 80
7, 128880, Note_on_c, 9, 36, 95
7, 128880, Note_on_c, 9, 40, 95
7, 129120, Note_off_c, 9, 36, 80
7, 129120, Note_off_c, 9, 40, 80
7, 129120, Note_on_c, 9, 44, 127
7, 129360, Note_off_c, 9, 44, 80
7, 129360, Note_on_c, 9, 36, 95
7, 129360, Note_on_c, 9, 40, 95
7, 129600, Note_off_c, 9, 36, 80
7, 129600, Note_off_c, 9, 40, 80
7, 129600, Note_on_c, 9, 44, 127
7, 129840, Note_off_c, 9, 44, 80
7, 129840, Note_on_c, 9, 36, 95
7, 129840, Note_on_c, 9, 40, 95
7, 130080, Note_off_c, 9, 36, 80
7, 130080, Note_off_c, 9, 40, 80
7, 130080, Note_on_c, 9, 44, 127
7, 130320, Note_off_c, 9, 44, 80
7, 130320, Note_on_c, 9, 36, 95
7, 130320, Note_on_c, 9, 40, 95
7, 130560, Note_off_c, 9, 36, 80
7, 130560, Note_off_c, 9, 40, 80
7, 130560, Note_on_c, 9, 44, 127
7, 130800, Note_off_c, 9, 44, 80
7, 130800, Note_on_c, 9, 36, 95
7, 130800, Note_on_c, 9, 40, 95
7, 131040, Note_off_c, 9, 36, 80
7, 131040, Note_off_c, 9, 40, 80
7, 131040, Note_on_c, 9, 44, 127
7, 131280, Note_off_c, 9, 44, 80
7, 131280, Note_on_c, 9, 36, 95
7, 131280, Note_on_c, 9, 40, 95
7, 131520, Note_off_c, 9, 36, 80
7, 131520, Note_off_c, 9, 40, 80
7, 131520, Note_on_c, 9, 44, 127
7, 131760, Note_off_c, 9, 44, 80
7, 131760, Note_on_c, 9, 36, 95
7, 131760, Note_on_c, 9, 40, 95
7, 132000, Note_off_c, 9, 36, 80
7, 132000, Note_off_c, 9, 40, 80
7, 132000, Note_on_c, 9, 44, 127
7, 132240, Note_off_c, 9, 44, 80
7, 132240, Note_on_c, 9, 36, 95
7, 132240, Note_on_c, 9, 40, 95
7, 132480, Note_off_c, 9, 36, 80
7, 132480, Note_off_c, 9, 40, 80
7, 132480, Note_on_c, 9, 57, 127
7, 132480, Note_on_c, 9, 36, 127
7, 132480, Note_on_c, 9, 44, 127
7, 132600, Note_off_c, 9, 57, 80
7, 132600, Note_off_c, 9, 36, 80
7, 132600, Note_off_c, 9, 44, 80
7, 132600, Note_on_c, 9, 44, 95
7, 132720, Note_off_c, 9, 44, 80
7, 132720, Note_on_c, 9, 36, 95
7, 132720, Note_on_c, 9, 44, 95
7, 132840, Note_off_c, 9, 36, 80
7, 132840, Note_off_c, 9, 44, 80
7, 132840, Note_on_c, 9, 44, 95
7, 132960, Note_off_c, 9, 44, 80
7, 132960, Note_on_c, 9, 40, 127
7, 132960, Note_on_c, 9, 36, 127
7, 132960, Note_on_c, 9, 44, 127
7, 133080, Note_off_c, 9, 40, 80
7, 133080, Note_off_c, 9, 36, 80
7, 133080, Note_off_c, 9, 44, 80
7, 133080, Note_on_c, 9, 44, 95
7, 133200, Note_off_c, 9, 44, 80
7, 133200, Note_on_c, 9, 36, 95
7, 133200, Note_on_c, 9, 44, 95
7, 133320, Note_off_c, 9, 36, 80
7, 133320, Note_off_c, 9, 44, 80
7, 133320, Note_on_c, 9, 44, 95
7, 133440, Note_off_c, 9, 44, 80
7, 133440, Note_on_c, 9, 36, 127
7, 133440, Note_on_c, 9, 44, 127
7, 133560, Note_off_c, 9, 36, 80
7, 133560, Note_off_c, 9, 44, 80
7, 133560, Note_on_c, 9, 44, 95
7, 133680, Note_off_c, 9, 44, 80
7, 133680, Note_on_c, 9, 36, 95
7, 133680, Note_on_c, 9, 44, 95
7, 133800, Note_off_c, 9, 36, 80
7, 133800, Note_off_c, 9, 44, 80
7, 133800, Note_on_c, 9, 44, 95
7, 133920, Note_off_c, 9, 44, 80
7, 133920, Note_on_c, 9, 40, 127
7, 133920, Note_on_c, 9, 36, 127
7, 133920, Note_on_c, 9, 44, 127
7, 134040, Note_off_c, 9, 40, 80
7, 134040, Note_off_c, 9, 36, 80
7, 134040, Note_off_c, 9, 44, 80
7, 134040, Note_on_c, 9, 44, 95
7, 134160, Note_off_c, 9, 44, 80
7, 134160, Note_on_c, 9, 36, 95
7, 134160, Note_on_c, 9, 44, 95
7, 134280, Note_off_c, 9, 36, 80
7, 134280, Note_off_c, 9, 44, 80
7, 134280, Note_on_c, 9, 44, 95
7, 134400, Note_off_c, 9, 44, 80
7, 134400, Note_on_c, 9, 36, 127
7, 134400, Note_on_c, 9, 44, 127
7, 134520, Note_off_c, 9, 36, 80
7, 134520, Note_off_c, 9, 44, 80
7, 134520, Note_on_c, 9, 44, 95
7, 134640, Note_off_c, 9, 44, 80
7, 134640, Note_on_c, 9, 36, 95
7, 134640, Note_on_c, 9, 44, 95
7, 134760, Note_off_c, 9, 36, 80
7, 134760, Note_off_c, 9, 44, 80
7, 134760, Note_on_c, 9, 44, 95
7, 134880, Note_off_c, 9, 44, 80
7, 134880, Note_on_c, 9, 40, 127
7, 134880, Note_on_c, 9, 36, 127
7, 134880, Note_on_c, 9, 44, 127
7, 135000, Note_off_c, 9, 40, 80
7, 135000, Note_off_c, 9, 36, 80
7, 135000, Note_off_c, 9, 44, 80
7, 135000, Note_on_c, 9, 44, 95
7, 135120, Note_off_c, 9, 44, 80
7, 135120, Note_on_c, 9, 36, 95
7, 135120, Note_on_c, 9, 44, 95
7, 135240, Note_off_c, 9, 36, 80
7, 135240, Note_off_c, 9, 44, 80
7, 135240, Note_on_c, 9, 44, 95
7, 135360, Note_off_c, 9, 44, 80
7, 135360, Note_on_c, 9, 36, 127
7, 135360, Note_on_c, 9, 44, 127
7, 135480, Note_off_c, 9, 36, 80
7, 135480, Note_off_c, 9, 44, 80
7, 135480, Note_on_c, 9, 44, 95
7, 135600, Note_off_c, 9, 44, 80
7, 135600, Note_on_c, 9, 36, 95
7, 135600, Note_on_c, 9, 44, 95
7, 135720, Note_off_c, 9, 36, 80
7, 135720, Note_off_c, 9, 44, 80
7, 135720, Note_on_c, 9, 44, 95
7, 135840, Note_off_c, 9, 44, 80
7, 135840, Note_on_c, 9, 40, 127
7, 135840, Note_on_c, 9, 36, 127
7, 135840, Note_on_c, 9, 44, 127
7, 135960, Note_off_c, 9, 40, 80
7, 135960, Note_off_c, 9, 36, 80
7, 135960, Note_off_c, 9, 44, 80
7, 135960, Note_on_c, 9, 44, 95
7, 136080, Note_off_c, 9, 44, 80
7, 136080, Note_on_c, 9, 40, 95
7, 136080, Note_on_c, 9, 36, 95
7, 136080, Note_on_c, 9, 44, 95
7, 136200, Note_off_c, 9, 40, 80
7, 136200, Note_off_c, 9, 36, 80
7, 136200, Note_off_c, 9, 44, 80
7, 136200, Note_on_c, 9, 40, 95
7, 136200, Note_on_c, 9, 44, 95
7, 136320, Note_off_c, 9, 40, 80
7, 136320, Note_off_c, 9, 44, 80
7, 136320, Note_on_c, 9, 57, 127
7, 136320, Note_on_c, 9, 36, 127
7, 136560, Note_off_c, 9, 57, 80
7, 136560, Note_off_c, 9, 36, 80
7, 136800, Note_on_c, 9, 57, 127
7, 136800, Note_on_c, 9, 40, 127
7, 137040, Note_off_c, 9, 57, 80
7, 137040, Note_off_c, 9, 40, 80
7, 137160, Note_on_c, 9, 40, 95
7, 137280, Note_off_c, 9, 40, 80
7, 137280, Note_on_c, 9, 57, 127
7, 137280, Note_on_c, 9, 36, 127
7, 137520, Note_off_c, 9, 57, 80
7, 137520, Note_off_c, 9, 36, 80
7, 137520, Note_on_c, 9, 36, 95
7, 137760, Note_off_c, 9, 36, 80
7, 137760, Note_on_c, 9, 57, 127
7, 137760, Note_on_c, 9, 40, 127
7, 138000, Note_off_c, 9, 57, 80
7, 138000, Note_off_c, 9, 40, 80
7, 138000, Note_on_c, 9, 36, 95
7, 138240, Note_off_c, 9, 36, 80
7, 138240, Note_on_c, 9, 57, 127
7, 138240, Note_on_c, 9, 36, 127
7, 138720, Note_off_c, 9, 57, 80
7, 138720, Note_off_c, 9, 36, 80
7, 138720, Note_on_c, 9, 40, 127
7, 138960, Note_off_c, 9, 40, 80
7, 140160, Note_on_c, 9, 57, 127
7, 140160, Note_on_c, 9, 36, 127
7, 140400, Note_off_c, 9, 57, 80
7, 140400, Note_off_c, 9, 36, 80
7, 140640, Note_on_c, 9, 57, 127
7, 140640, Note_on_c, 9, 40, 127
7, 140880, Note_off_c, 9, 57, 80
7, 140880, Note_off_c, 9, 40, 80
7, 141000, Note_on_c, 9, 40, 95
7, 141120, Note_off_c, 9, 40, 80
7, 141120, Note_on_c, 9, 57, 127
7, 141120, Note_on_c, 9, 36, 127
7, 141360, Note_off_c, 9, 57, 80
7, 141360, Note_off_c, 9, 36, 80
7, 141360, Note_on_c, 9, 36, 95
7, 141600, Note_off_c, 9, 36, 80
7, 141600, Note_on_c, 9, 57, 127
7, 141600, Note_on_c, 9, 40, 127
7, 141840, Note_off_c, 9, 57, 80
7, 141840, Note_off_c, 9, 40, 80
7, 141840, Note_on_c, 9, 36, 95
7, 142080, Note_off_c, 9, 36, 80
7, 142080, Note_on_c, 9, 57, 127
7, 142080, Note_on_c, 9, 36, 127
7, 142560, Note_off_c, 9, 57, 80
7, 142560, Note_off_c, 9, 36, 80
7, 142560, Note_on_c, 9, 40, 127
7, 142800, Note_off_c, 9, 40, 80
7, 144000, Note_on_c, 9, 57, 127
7, 144000, Note_on_c, 9, 36, 127
7, 144240, Note_off_c, 9, 57, 80
7, 144240, Note_off_c, 9, 36, 80
7, 144480, Note_on_c, 9, 57, 127
7, 144480, Note_on_c, 9, 40, 127
7, 144720, Note_off_c, 9, 57, 80
7, 144720, Note_off_c, 9, 40, 80
7, 144840, Note_on_c, 9, 40, 95
7, 144960, Note_off_c, 9, 40, 80
7, 144960, Note_on_c, 9, 57, 127
7, 144960, Note_on_c, 9, 36, 127
7, 145200, Note_off_c, 9, 57, 80
7, 145200, Note_off_c, 9, 36, 80
7, 145200, Note_on_c, 9, 36, 95
7, 145440, Note_off_c, 9, 36, 80
7, 145440, Note_on_c, 9, 57, 127
7, 145440, Note_on_c, 9, 40, 127
7, 145680, Note_off_c, 9, 57, 80
7, 145680, Note_off_c, 9, 40, 80
7, 145680, Note_on_c, 9, 36, 95
7, 145920, Note_off_c, 9, 36, 80
7, 145920, Note_on_c, 9, 57, 127
7, 145920, Note_on_c, 9, 36, 127
7, 146400, Note_off_c, 9, 57, 80
7, 146400, Note_off_c, 9, 36, 80
7, 146400, Note_on_c, 9, 40, 127
7, 146640, Note_off_c, 9, 40, 80
7, 147840, Note_on_c, 9, 57, 127
7, 147840, Note_on_c, 9, 36, 127
7, 148080, Note_off_c, 9, 57, 80
7, 148080, Note_off_c, 9, 36, 80
7, 148320, Note_on_c, 9, 57, 127
7, 148320, Note_on_c, 9, 40, 127
7, 148560, Note_off_c, 9, 57, 80
7, 148560, Note_off_c, 9, 40, 80
7, 148680, Note_on_c, 9, 40, 95
7, 148800, Note_off_c, 9, 40, 80
7, 148800, Note_on_c, 9, 57, 127
7, 148800, Note_on_c, 9, 36, 127
7, 149040, Note_off_c, 9, 57, 80
7, 149040, Note_off_c, 9, 36, 80
7, 149040, Note_on_c, 9, 40, 95
7, 149280, Note_off_c, 9, 40, 80
7, 149280, Note_on_c, 9, 57, 127
7, 149280, Note_on_c, 9, 40, 127
7, 149520, Note_off_c, 9, 57, 80
7, 149520, Note_off_c, 9, 40, 80
7, 149520, Note_on_c, 9, 36, 95
7, 149760, Note_off_c, 9, 36, 80
7, 149760, Note_on_c, 9, 57, 127
7, 149760, Note_on_c, 9, 40, 127
7, 150240, Note_off_c, 9, 57, 80
7, 150240, Note_off_c, 9, 40, 80
7, 150240, Note_on_c, 9, 57, 127
7, 150240, Note_on_c, 9, 40, 127
7, 150720, Note_off_c, 9, 57, 80
7, 150720, Note_off_c, 9, 40, 80
7, 150720, Note_on_c, 9, 57, 127
7, 151200, Note_off_c, 9, 57, 80
7, 151200, Note_on_c, 9, 57, 127
7, 151680, Note_off_c, 9, 57, 80
7, 167040, Note_on_c, 9, 44, 127
7, 167040, Note_on_c, 9, 36, 127
7, 167160, Note_off_c, 9, 44, 80
7, 167160, Note_off_c, 9, 36, 80
7, 167160, Note_on_c, 9, 44, 95
7, 167280, Note_off_c, 9, 44, 80
7, 167280, Note_on_c, 9, 44, 95
7, 167400, Note_off_c, 9, 44, 80
7, 167400, Note_on_c, 9, 44, 95
7, 167520, Note_off_c, 9, 44, 80
7, 167520, Note_on_c, 9, 44, 127
7, 167520, Note_on_c, 9, 40, 127
7, 167640, Note_off_c, 9, 44, 80
7, 167640, Note_off_c, 9, 40, 80
7, 167640, Note_on_c, 9, 44, 95
7, 167760, Note_off_c, 9, 44, 80
7, 167760, Note_on_c, 9, 44, 95
7, 167880, Note_off_c, 9, 44, 80
7, 167880, Note_on_c, 9, 44, 95
7, 168000, Note_off_c, 9, 44, 80
7, 168000, Note_on_c, 9, 44, 127
7, 168120, Note_off_c, 9, 44, 80
7, 168120, Note_on_c, 9, 44, 95
7, 168240, Note_off_c, 9, 44, 80
7, 168240, Note_on_c, 9, 44, 95
7, 168240, Note_on_c, 9, 36, 95
7, 168360, Note_off_c, 9, 44, 80
7, 168360, Note_off_c, 9, 36, 80
7, 168360, Note_on_c, 9, 44, 95
7, 168480, Note_off_c, 9, 44, 80
7, 168480, Note_on_c, 9, 44, 127
7, 168600, Note_off_c, 9, 44, 80
7, 168600, Note_on_c, 9, 44, 95
7, 168720, Note_off_c, 9, 44, 80
7, 168720, Note_on_c, 9, 44, 95
7, 168720, Note_on_c, 9, 40, 95
7, 168840, Note_off_c, 9, 44, 80
7, 168840, Note_off_c, 9, 40, 80
7, 168840, Note_on_c, 9, 44, 95
7, 168960, Note_off_c, 9, 44, 80
7, 168960, Note_on_c, 9, 44, 127
7, 168960, Note_on_c, 9, 36, 127
7, 169080, Note_off_c, 9, 44, 80
7, 169080, Note_off_c, 9, 36, 80
7, 169080, Note_on_c, 9, 44, 95
7, 169200, Note_off_c, 9, 44, 80
7, 169200, Note_on_c, 9, 44, 95
7, 169320, Note_off_c, 9, 44, 80
7, 169320, Note_on_c, 9, 44, 95
7, 169440, Note_off_c, 9, 44, 80
7, 169440, Note_on_c, 9, 44, 127
7, 169440, Note_on_c, 9, 40, 127
7, 169560, Note_off_c, 9, 44, 80
7, 169560, Note_off_c, 9, 40, 80
7, 169560, Note_on_c, 9, 44, 95
7, 169680, Note_off_c, 9, 44, 80
7, 169680, Note_on_c, 9, 44, 95
7, 169800, Note_off_c, 9, 44, 80
7, 169800, Note_on_c, 9, 44, 95
7, 169920, Note_off_c, 9, 44, 80
7, 169920, Note_on_c, 9, 44, 127
7, 170040, Note_off_c, 9, 44, 80
7, 170040, Note_on_c, 9, 44, 95
7, 170160, Note_off_c, 9, 44, 80
7, 170160, Note_on_c, 9, 44, 95
7, 170160, Note_on_c, 9, 36, 95
7, 170280, Note_off_c, 9, 44, 80
7, 170280, Note_off_c, 9, 36, 80
7, 170280, Note_on_c, 9, 44, 95
7, 170400, Note_off_c, 9, 44, 80
7, 170400, Note_on_c, 9, 44, 127
7, 170520, Note_off_c, 9, 44, 80
7, 170520, Note_on_c, 9, 44, 95
7, 170640, Note_off_c, 9, 44, 80
7, 170640, Note_on_c, 9, 44, 95
7, 170640, Note_on_c, 9, 40, 95
7, 170760, Note_off_c, 9, 44, 80
7, 170760, Note_off_c, 9, 40, 80
7, 170760, Note_on_c, 9, 44, 95
7, 170880, Note_off_c, 9, 44, 80
7, 170880, Note_on_c, 9, 44, 127
7, 170880, Note_on_c, 9, 36, 127
7, 171000, Note_off_c, 9, 44, 80
7, 171000, Note_off_c, 9, 36, 80
7, 171000, Note_on_c, 9, 44, 95
7, 171120, Note_off_c, 9, 44, 80
7, 171120, Note_on_c, 9, 44, 95
7, 171240, Note_off_c, 9, 44, 80
7, 171240, Note_on_c, 9, 44, 95
7, 171360, Note_off_c, 9, 44, 80
7, 171360, Note_on_c, 9, 44, 127
7, 171360, Note_on_c, 9, 40, 127
7, 171480, Note_off_c, 9, 44, 80
7, 171480, Note_off_c, 9, 40, 80
7, 171480, Note_on_c, 9, 44, 95
7, 171600, Note_off_c, 9, 44, 80
7, 171600, Note_on_c, 9, 44, 95
7, 171720, Note_off_c, 9, 44, 80
7, 171720, Note_on_c, 9, 44, 95
7, 171840, Note_off_c, 9, 44, 80
7, 171840, Note_on_c, 9, 44, 127
7, 171960, Note_off_c, 9, 44, 80
7, 171960, Note_on_c, 9, 44, 95
7, 172080, Note_off_c, 9, 44, 80
7, 172080, Note_on_c, 9, 44, 95
7, 172080, Note_on_c, 9, 36, 95
7, 172200, Note_off_c, 9, 44, 80
7, 172200, Note_off_c, 9, 36, 80
7, 172200, Note_on_c, 9, 44, 95
7, 172320, Note_off_c, 9, 44, 80
7, 172320, Note_on_c, 9, 44, 127
7, 172440, Note_off_c, 9, 44, 80
7, 172440, Note_on_c, 9, 44, 95
7, 172560, Note_off_c, 9, 44, 80
7, 172560, Note_on_c, 9, 44, 95
7, 172560, Note_on_c, 9, 40, 95
7, 172680, Note_off_c, 9, 44, 80
7, 172680, Note_off_c, 9, 40, 80
7, 172680, Note_on_c, 9, 44, 95
7, 172800, Note_off_c, 9, 44, 80
7, 172800, Note_on_c, 9, 44, 127
7, 172800, Note_on_c, 9, 36, 127
7, 172920, Note_off_c, 9, 44, 80
7, 172920, Note_off_c, 9, 36, 80
7, 172920, Note_on_c, 9, 44, 95
7, 173040, Note_off_c, 9, 44, 80
7, 173040, Note_on_c, 9, 44, 95
7, 173160, Note_off_c, 9, 44, 80
7, 173160, Note_on_c, 9, 44, 95
7, 173280, Note_off_c, 9, 44, 80
7, 173280, Note_on_c, 9, 44, 127
7, 173280, Note_on_c, 9, 40, 127
7, 173400, Note_off_c, 9, 44, 80
7, 173400, Note_off_c, 9, 40, 80
7, 173400, Note_on_c, 9, 44, 95
7, 173520, Note_off_c, 9, 44, 80
7, 173520, Note_on_c, 9, 44, 95
7, 173640, Note_off_c, 9, 44, 80
7, 173640, Note_on_c, 9, 44, 95
7, 173760, Note_off_c, 9, 44, 80
7, 173760, Note_on_c, 9, 44, 127
7, 173880, Note_off_c, 9, 44, 80
7, 173880, Note_on_c, 9, 44, 95
7, 174000, Note_off_c, 9, 44, 80
7, 174000, Note_on_c, 9, 44, 95
7, 174000, Note_on_c, 9, 36, 95
7, 174000, Note_on_c, 9, 40, 95
7, 174120, Note_off_c, 9, 44, 80
7, 174120, Note_off_c, 9, 36, 80
7, 174120, Note_off_c, 9, 40, 80
7, 174120, Note_on_c, 9, 44, 95
7, 174240, Note_off_c, 9, 44, 80
7, 174240, Note_on_c, 9, 44, 127
7, 174240, Note_on_c, 9, 40, 127
7, 174360, Note_off_c, 9, 44, 80
7, 174360, Note_off_c, 9, 40, 80
7, 174360, Note_on_c, 9, 44, 95
7, 174480, Note_off_c, 9, 44, 80
7, 174480, Note_on_c, 9, 44, 95
7, 174480, Note_on_c, 9, 40, 95
7, 174600, Note_off_c, 9, 44, 80
7, 174600, Note_off_c, 9, 40, 80
7, 174600, Note_on_c, 9, 44, 95
7, 174600, Note_on_c, 9, 40, 95
7, 174720, Note_off_c, 9, 44, 80
7, 174720, Note_off_c, 9, 40, 80
7, 174720, Note_on_c, 9, 44, 127
7, 174720, Note_on_c, 9, 36, 127
7, 174840, Note_off_c, 9, 44, 80
7, 174840, Note_off_c, 9, 36, 80
7, 174840, Note_on_c, 9, 44, 95
7, 174960, Note_off_c, 9, 44, 80
7, 174960, Note_on_c, 9, 44, 95
7, 175080, Note_off_c, 9, 44, 80
7, 175080, Note_on_c, 9, 44, 95
7, 175200, Note_off_c, 9, 44, 80
7, 175200, Note_on_c, 9, 40, 127
7, 175320, Note_off_c, 9, 40, 80
7, 175320, Note_on_c, 9, 44, 95
7, 175440, Note_off_c, 9, 44, 80
7, 175440, Note_on_c, 9, 44, 95
7, 175440, Note_on_c, 9, 36, 95
7, 175560, Note_off_c, 9, 44, 80
7, 175560, Note_off_c, 9, 36, 80
7, 175560, Note_on_c, 9, 40, 95
7, 175680, Note_off_c, 9, 40, 80
7, 175680, Note_on_c, 9, 44, 127
7, 175680, Note_on_c, 9, 36, 127
7, 175800, Note_off_c, 9, 44, 80
7, 175800, Note_off_c, 9, 36, 80
7, 175800, Note_on_c, 9, 44, 95
7, 175920, Note_off_c, 9, 44, 80
7, 175920, Note_on_c, 9, 44, 95
7, 175920, Note_on_c, 9, 36, 95
7, 176040, Note_off_c, 9, 44, 80
7, 176040, Note_off_c, 9, 36, 80
7, 176040, Note_on_c, 9, 44, 95
7, 176160, Note_off_c, 9, 44, 80
7, 176160, Note_on_c, 9, 40, 127
7, 176280, Note_off_c, 9, 40, 80
7, 176280, Note_on_c, 9, 44, 95
7, 176400, Note_off_c, 9, 44, 80
7, 176400, Note_on_c, 9, 44, 95
7, 176520, Note_off_c, 9, 44, 80
7, 176520, Note_on_c, 9, 40, 95
7, 176640, Note_off_c, 9, 40, 80
7, 176640, Note_on_c, 9, 44, 127
7, 176640, Note_on_c, 9, 36, 127
7, 176760, Note_off_c, 9, 44, 80
7, 176760, Note_off_c, 9, 36, 80
7, 176760, Note_on_c, 9, 44, 95
7, 176880, Note_off_c, 9, 44, 80
7, 176880, Note_on_c, 9, 44, 95
7, 177000, Note_off_c, 9, 44, 80
7, 177000, Note_on_c, 9, 44, 95
7, 177120, Note_off_c, 9, 44, 80
7, 177120, Note_on_c, 9, 40, 127
7, 177240, Note_off_c, 9, 40, 80
7, 177240, Note_on_c, 9, 44, 95
7, 177360, Note_off_c, 9, 44, 80
7, 177360, Note_on_c, 9, 44, 95
7, 177360, Note_on_c, 9, 36, 95
7, 177480, Note_off_c, 9, 44, 80
7, 177480, Note_off_c, 9, 36, 80
7, 177480, Note_on_c, 9, 40, 95
7, 177600, Note_off_c, 9, 40, 80
7, 177600, Note_on_c, 9, 44, 127
7, 177600, Note_on_c, 9, 36, 127
7, 177720, Note_off_c, 9, 44, 80
7, 177720, Note_off_c, 9, 36, 80
7, 177720, Note_on_c, 9, 44, 95
7, 177840, Note_off_c, 9, 44, 80
7, 177840, Note_on_c, 9, 44, 95
7, 177840, Note_on_c, 9, 36, 95
7, 177960, Note_off_c, 9, 44, 80
7, 177960, Note_off_c, 9, 36, 80
7, 177960, Note_on_c, 9, 44, 95
7, 178080, Note_off_c, 9, 44, 80
7, 178080, Note_on_c, 9, 40, 127
7, 178200, Note_off_c, 9, 40, 80
7, 178200, Note_on_c, 9, 44, 95
7, 178320, Note_off_c, 9, 44, 80
7, 178320, Note_on_c, 9, 44, 95
7, 178440, Note_off_c, 9, 44, 80
7, 178440, Note_on_c, 9, 40, 95
7, 178560, Note_off_c, 9, 40, 80
7, 178560, Note_on_c, 9, 44, 127
7, 178560, Note_on_c, 9, 36, 127
7, 178680, Note_off_c, 9, 44, 80
7, 178680, Note_off_c, 9, 36, 80
7, 178680, Note_on_c, 9, 44, 95
7, 178800, Note_off_c, 9, 44, 80
7, 178800, Note_on_c, 9, 44, 95
7, 178920, Note_off_c, 9, 44, 80
7, 178920, Note_on_c, 9, 44, 95
7, 179040, Note_off_c, 9, 44, 80
7, 179040, Note_on_c, 9, 40, 127
7, 179160, Note_off_c, 9, 40, 80
7, 179160, Note_on_c, 9, 44, 95
7, 179280, Note_off_c, 9, 44, 80
7, 179280, Note_on_c, 9, 44, 95
7, 179400, Note_off_c, 9, 44, 80
7, 179400, Note_on_c, 9, 40, 95
7, 179520, Note_off_c, 9, 40, 80
7, 179520, Note_on_c, 9, 44, 127
7, 179520, Note_on_c, 9, 36, 127
7, 179640, Note_off_c, 9, 44, 80
7, 179640, Note_off_c, 9, 36, 80
7, 179640, Note_on_c, 9, 44, 95
7, 179760, Note_off_c, 9, 44, 80
7, 179760, Note_on_c, 9, 44, 95
7, 179760, Note_on_c, 9, 36, 95
7, 179880, Note_off_c, 9, 44, 80
7, 179880, Note_off_c, 9, 36, 80
7, 179880, Note_on_c, 9, 44, 95
7, 180000, Note_off_c, 9, 44, 80
7, 180000, Note_on_c, 9, 40, 127
7, 180120, Note_off_c, 9, 40, 80
7, 180120, Note_on_c, 9, 44, 95
7, 180240, Note_off_c, 9, 44, 80
7, 180240, Note_on_c, 9, 44, 95
7, 180360, Note_off_c, 9, 44, 80
7, 180360, Note_on_c, 9, 40, 95
7, 180480, Note_off_c, 9, 40, 80
7, 180480, Note_on_c, 9, 44, 127
7, 180480, Note_on_c, 9, 36, 127
7, 180600, Note_off_c, 9, 44, 80
7, 180600, Note_off_c, 9, 36, 80
7, 180600, Note_on_c, 9, 44, 95
7, 180720, Note_off_c, 9, 44, 80
7, 180720, Note_on_c, 9, 44, 95
7, 180840, Note_off_c, 9, 44, 80
7, 180840, Note_on_c, 9, 44, 95
7, 180960, Note_off_c, 9, 44, 80
7, 180960, Note_on_c, 9, 40, 127
7, 181080, Note_off_c, 9, 40, 80
7, 181080, Note_on_c, 9, 44, 95
7, 181200, Note_off_c, 9, 44, 80
7, 181200, Note_on_c, 9, 44, 95
7, 181320, Note_off_c, 9, 44, 80
7, 181320, Note_on_c, 9, 40, 95
7, 181440, Note_off_c, 9, 40, 80
7, 181440, Note_on_c, 9, 44, 127
7, 181440, Note_on_c, 9, 36, 127
7, 181560, Note_off_c, 9, 44, 80
7, 181560, Note_off_c, 9, 36, 80
7, 181560, Note_on_c, 9, 44, 95
7, 181680, Note_off_c, 9, 44, 80
7, 181680, Note_on_c, 9, 44, 95
7, 181680, Note_on_c, 9, 36, 95
7, 181800, Note_off_c, 9, 44, 80
7, 181800, Note_off_c, 9, 36, 80
7, 181800, Note_on_c, 9, 44, 95
7, 181920, Note_off_c, 9, 44, 80
7, 181920, Note_on_c, 9, 43, 127
7, 181920, Note_on_c, 9, 40, 127
7, 182040, Note_off_c, 9, 43, 80
7, 182040, Note_off_c, 9, 40, 80
7, 182040, Note_on_c, 9, 44, 95
7, 182040, Note_on_c, 9, 43, 95
7, 182040, Note_on_c, 9, 40, 95
7, 182160, Note_off_c, 9, 44, 80
7, 182160, Note_off_c, 9, 43, 80
7, 182160, Note_off_c, 9, 40, 80
7, 182160, Note_on_c, 9, 44, 95
7, 182160, Note_on_c, 9, 41, 95
7, 182160, Note_on_c, 9, 40, 95
7, 182280, Note_off_c, 9, 44, 80
7, 182280, Note_off_c, 9, 41, 80
7, 182280, Note_off_c, 9, 40, 80
7, 182280, Note_on_c, 9, 41, 95
7, 182280, Note_on_c, 9, 40, 95
7, 182400, Note_off_c, 9, 41, 80
7, 182400, Note_off_c, 9, 40, 80
7, 182400, Note_on_c, 9, 44, 127
7, 182400, Note_on_c, 9, 36, 127
7, 182520, Note_off_c, 9, 44, 80
7, 182520, Note_off_c, 9, 36, 80
7, 182520, Note_on_c, 9, 44, 95
7, 182640, Note_off_c, 9, 44, 80
7, 182640, Note_on_c, 9, 44, 95
7, 182760, Note_off_c, 9, 44, 80
7, 182760, Note_on_c, 9, 44, 95
7, 182880, Note_off_c, 9, 44, 80
7, 182880, Note_on_c, 9, 40, 127
7, 183000, Note_off_c, 9, 40, 80
7, 183000, Note_on_c, 9, 44, 95
7, 183120, Note_off_c, 9, 44, 80
7, 183120, Note_on_c, 9, 44, 95
7, 183120, Note_on_c, 9, 36, 95
7, 183240, Note_off_c, 9, 44, 80
7, 183240, Note_off_c, 9, 36, 80
7, 183240, Note_on_c, 9, 40, 95
7, 183360, Note_off_c, 9, 40, 80
7, 183360, Note_on_c, 9, 44, 127
7, 183360, Note_on_c, 9, 36, 127
7, 183480, Note_off_c, 9, 44, 80
7, 183480, Note_off_c, 9, 36, 80
7, 183480, Note_on_c, 9, 44, 95
7, 183600, Note_off_c, 9, 44, 80
7, 183600, Note_on_c, 9, 44, 95
7, 183600, Note_on_c, 9, 36, 95
7, 183720, Note_off_c, 9, 44, 80
7, 183720, Note_off_c, 9, 36, 80
7, 183720, Note_on_c, 9, 44, 95
7, 183840, Note_off_c, 9, 44, 80
7, 183840, Note_on_c, 9, 40, 127
7, 183960, Note_off_c, 9, 40, 80
7, 183960, Note_on_c, 9, 44, 95
7, 184080, Note_off_c, 9, 44, 80
7, 184080, Note_on_c, 9, 44, 95
7, 184200, Note_off_c, 9, 44, 80
7, 184200, Note_on_c, 9, 40, 95
7, 184320, Note_off_c, 9, 40, 80
7, 184320, Note_on_c, 9, 44, 127
7, 184320, Note_on_c, 9, 36, 127
7, 184440, Note_off_c, 9, 44, 80
7, 184440, Note_off_c, 9, 36, 80
7, 184440, Note_on_c, 9, 44, 95
7, 184560, Note_off_c, 9, 44, 80
7, 184560, Note_on_c, 9, 44, 95
7, 184680, Note_off_c, 9, 44, 80
7, 184680, Note_on_c, 9, 44, 95
7, 184800, Note_off_c, 9, 44, 80
7, 184800, Note_on_c, 9, 40, 127
7, 184920, Note_off_c, 9, 40, 80
7, 184920, Note_on_c, 9, 44, 95
7, 185040, Note_off_c, 9, 44, 80
7, 185040, Note_on_c, 9, 44, 95
7, 185040, Note_on_c, 9, 36, 95
7, 185160, Note_off_c, 9, 44, 80
7, 185160, Note_off_c, 9, 36, 80
7, 185160, Note_on_c, 9, 40, 95
7, 185280, Note_off_c, 9, 40, 80
7, 185280, Note_on_c, 9, 44, 127
7, 185280, Note_on_c, 9, 57, 127
7, 185280, Note_on_c, 9, 36, 127
7, 185400, Note_off_c, 9, 44, 80
7, 185400, Note_off_c, 9, 57, 80
7, 185400, Note_off_c, 9, 36, 80
7, 185640, Note_on_c, 9, 44, 95
7, 185640, Note_on_c, 9, 57, 95
7, 185640, Note_on_c, 9, 36, 95
7, 185760, Note_off_c, 9, 44, 80
7, 185760, Note_off_c, 9, 57, 80
7, 185760, Note_off_c, 9, 36, 80
7, 186000, Note_on_c, 9, 44, 95
7, 186000, Note_on_c, 9, 57, 95
7, 186000, Note_on_c, 9, 36, 95
7, 186120, Note_off_c, 9, 44, 80
7, 186120, Note_off_c, 9, 57, 80
7, 186120, Note_off_c, 9, 36, 80
7, 186240, Note_on_c, 9, 44, 127
7, 186240, Note_on_c, 9, 57, 127
7, 186240, Note_on_c, 9, 36, 127
7, 186360, Note_off_c, 9, 44, 80
7, 186360, Note_off_c, 9, 57, 80
7, 186360, Note_off_c, 9, 36, 80
7, 186360, Note_on_c, 9, 44, 95
7, 186480, Note_off_c, 9, 44, 80
7, 186480, Note_on_c, 9, 44, 95
7, 186600, Note_off_c, 9, 44, 80
7, 186600, Note_on_c, 9, 44, 95
7, 186720, Note_off_c, 9, 44, 80
7, 186720, Note_on_c, 9, 40, 127
7, 186840, Note_off_c, 9, 40, 80
7, 186840, Note_on_c, 9, 44, 95
7, 186960, Note_off_c, 9, 44, 80
7, 186960, Note_on_c, 9, 44, 95
7, 187080, Note_off_c, 9, 44, 80
7, 187080, Note_on_c, 9, 40, 95
7, 187200, Note_off_c, 9, 40, 80
7, 187200, Note_on_c, 9, 44, 127
7, 187200, Note_on_c, 9, 36, 127
7, 187320, Note_off_c, 9, 44, 80
7, 187320, Note_off_c, 9, 36, 80
7, 187320, Note_on_c, 9, 44, 95
7, 187440, Note_off_c, 9, 44, 80
7, 187440, Note_on_c, 9, 44, 95
7, 187440, Note_on_c, 9, 36, 95
7, 187560, Note_off_c, 9, 44, 80
7, 187560, Note_off_c, 9, 36, 80
7, 187560, Note_on_c, 9, 44, 95
7, 187680, Note_off_c, 9, 44, 80
7, 187680, Note_on_c, 9, 40, 127
7, 187800, Note_off_c, 9, 40, 80
7, 187800, Note_on_c, 9, 44, 95
7, 187920, Note_off_c, 9, 44, 80
7, 187920, Note_on_c, 9, 44, 95
7, 188040, Note_off_c, 9, 44, 80
7, 188040, Note_on_c, 9, 40, 95
7, 188160, Note_off_c, 9, 40, 80
7, 188160, Note_on_c, 9, 40, 127
7, 188160, Note_on_c, 9, 57, 127
7, 188160, Note_on_c, 9, 36, 127
7, 188280, Note_off_c, 9, 40, 80
7, 188280, Note_off_c, 9, 57, 80
7, 188280, Note_off_c, 9, 36, 80
7, 188280, Note_on_c, 9, 44, 95
7, 188400, Note_off_c, 9, 44, 80
7, 188400, Note_on_c, 9, 44, 95
7, 188400, Note_on_c, 9, 36, 95
7, 188520, Note_off_c, 9, 44, 80
7, 188520, Note_off_c, 9, 36, 80
7, 188520, Note_on_c, 9, 44, 95
7, 188640, Note_off_c, 9, 44, 80
7, 188640, Note_on_c, 9, 44, 127
7, 188640, Note_on_c, 9, 40, 127
7, 188760, Note_off_c, 9, 44, 80
7, 188760, Note_off_c, 9, 40, 80
7, 188760, Note_on_c, 9, 44, 95
7, 188880, Note_off_c, 9, 44, 80
7, 188880, Note_on_c, 9, 44, 95
7, 188880, Note_on_c, 9, 36, 95
7, 189000, Note_off_c, 9, 44, 80
7, 189000, Note_off_c, 9, 36, 80
7, 189000, Note_on_c, 9, 44, 95
7, 189120, Note_off_c, 9, 44, 80
7, 189120, Note_on_c, 9, 44, 127
7, 189120, Note_on_c, 9, 40, 127
7, 189240, Note_off_c, 9, 44, 80
7, 189240, Note_off_c, 9, 40, 80
7, 189240, Note_on_c, 9, 44, 95
7, 189240, Note_on_c, 9, 40, 95
7, 189360, Note_off_c, 9, 44, 80
7, 189360, Note_off_c, 9, 40, 80
7, 189360, Note_on_c, 9, 44, 95
7, 189360, Note_on_c, 9, 40, 95
7, 189480, Note_off_c, 9, 44, 80
7, 189480, Note_off_c, 9, 40, 80
7, 189480, Note_on_c, 9, 44, 95
7, 189480, Note_on_c, 9, 40, 95
7, 189600, Note_off_c, 9, 44, 80
7, 189600, Note_off_c, 9, 40, 80
7, 189600, Note_on_c, 9, 44, 127
7, 189600, Note_on_c, 9, 43, 127
7, 189720, Note_off_c, 9, 44, 80
7, 189720, Note_off_c, 9, 43, 80
7, 189720, Note_on_c, 9, 44, 95
7, 189720, Note_on_c, 9, 43, 95
7, 189840, Note_off_c, 9, 44, 80
7, 189840, Note_off_c, 9, 43, 80
7, 189840, Note_on_c, 9, 44, 95
7, 189840, Note_on_c, 9, 41, 95
7, 189960, Note_off_c, 9, 44, 80
7, 189960, Note_off_c, 9, 41, 80
7, 189960, Note_on_c, 9, 41, 95
7, 189960, Note_on_c, 9, 44, 95
7, 190080, Note_off_c, 9, 41, 80
7, 190080, Note_off_c, 9, 44, 80
7, 190080, Note_on_c, 9, 44, 127
7, 190080, Note_on_c, 9, 36, 127
7, 190200, Note_off_c, 9, 44, 80
7, 190200, Note_off_c, 9, 36, 80
7, 190200, Note_on_c, 9, 44, 95
7, 190320, Note_off_c, 9, 44, 80
7, 190320, Note_on_c, 9, 44, 95
7, 190440, Note_off_c, 9, 44, 80
7, 190440, Note_on_c, 9, 44, 95
7, 190440, Note_on_c, 9, 40, 95
7, 190560, Note_off_c, 9, 44, 80
7, 190560, Note_off_c, 9, 40, 80
7, 190560, Note_on_c, 9, 44, 127
7, 190560, Note_on_c, 9, 40, 127
7, 190680, Note_off_c, 9, 44, 80
7, 190680, Note_off_c, 9, 40, 80
7, 190680, Note_on_c, 9, 44, 95
7, 190800, Note_off_c, 9, 44, 80
7, 190800, Note_on_c, 9, 44, 95
7, 190800, Note_on_c, 9, 40, 95
7, 190920, Note_off_c, 9, 44, 80
7, 190920, Note_off_c, 9, 40, 80
7, 190920, Note_on_c, 9, 44, 95
7, 191040, Note_off_c, 9, 44, 80
7, 191040, Note_on_c, 9, 44, 127
7, 191160, Note_off_c, 9, 44, 80
7, 191160, Note_on_c, 9, 44, 95
7, 191160, Note_on_c, 9, 40, 95
7, 191280, Note_off_c, 9, 44, 80
7, 191280, Note_off_c, 9, 40, 80
7, 191280, Note_on_c, 9, 44, 95
7, 191280, Note_on_c, 9, 40, 95
7, 191400, Note_off_c, 9, 44, 80
7, 191400, Note_off_c, 9, 40, 80
7, 191400, Note_on_c, 9, 44, 95
7, 191520, Note_off_c, 9, 44, 80
7, 191520, Note_on_c, 9, 44, 127
7, 191520, Note_on_c, 9, 40, 127
7, 191640, Note_off_c, 9, 44, 80
7, 191640, Note_off_c, 9, 40, 80
7, 191640, Note_on_c, 9, 44, 95
7, 191760, Note_off_c, 9, 44, 80
7, 191760, Note_on_c, 9, 44, 95
7, 191880, Note_off_c, 9, 44, 80
7, 191880, Note_on_c, 9, 44, 95
7, 191880, Note_on_c, 9, 40, 95
7, 192000, Note_off_c, 9, 44, 80
7, 192000, Note_off_c, 9, 40, 80
7, 192000, Note_on_c, 9, 44, 127
7, 192000, Note_on_c, 9, 40, 127
7, 192120, Note_off_c, 9, 44, 80
7, 192120, Note_off_c, 9, 40, 80
7, 192120, Note_on_c, 9, 44, 95
7, 192240, Note_off_c, 9, 44, 80
7, 192240, Note_on_c, 9, 44, 95
7, 192360, Note_off_c, 9, 44, 80
7, 192360, Note_on_c, 9, 44, 95
7, 192480, Note_off_c, 9, 44, 80
7, 192480, Note_on_c, 9, 44, 127
7, 192480, Note_on_c, 9, 40, 127
7, 192600, Note_off_c, 9, 44, 80
7, 192600, Note_off_c, 9, 40, 80
7, 192600, Note_on_c, 9, 44, 95
7, 192720, Note_off_c, 9, 44, 80
7, 192720, Note_on_c, 9, 44, 95
7, 192720, Note_on_c, 9, 40, 95
7, 192840, Note_off_c, 9, 44, 80
7, 192840, Note_off_c, 9, 40, 80
7, 192840, Note_on_c, 9, 44, 95
7, 192960, Note_off_c, 9, 44, 80
7, 192960, Note_on_c, 9, 44, 127
7, 192960, Note_on_c, 9, 40, 127
7, 192960, Note_on_c, 9, 45, 127
7, 193080, Note_off_c, 9, 44, 80
7, 193080, Note_off_c, 9, 40, 80
7, 193080, Note_off_c, 9, 45, 80
7, 193080, Note_on_c, 9, 44, 95
7, 193080, Note_on_c, 9, 40, 95
7, 193080, Note_on_c, 9, 45, 95
7, 193200, Note_off_c, 9, 44, 80
7, 193200, Note_off_c, 9, 40, 80
7, 193200, Note_off_c, 9, 45, 80
7, 193200, Note_on_c, 9, 44, 95
7, 193200, Note_on_c, 9, 40, 95
7, 193200, Note_on_c, 9, 43, 95
7, 193320, Note_off_c, 9, 44, 80
7, 193320, Note_off_c, 9, 40, 80
7, 193320, Note_off_c, 9, 43, 80
7, 193320, Note_on_c, 9, 44, 95
7, 193320, Note_on_c, 9, 40, 95
7, 193320, Note_on_c, 9, 43, 95
7, 193440, Note_off_c, 9, 44, 80
7, 193440, Note_off_c, 9, 40, 80
7, 193440, Note_off_c, 9, 43, 80
7, 193440, Note_on_c, 9, 44, 127
7, 193440, Note_on_c, 9, 40, 127
7, 193440, Note_on_c, 9, 43, 127
7, 193560, Note_off_c, 9, 44, 80
7, 193560, Note_off_c, 9, 40, 80
7, 193560, Note_off_c, 9, 43, 80
7, 193560, Note_on_c, 9, 44, 95
7, 193560, Note_on_c, 9, 40, 95
7, 193560, Note_on_c, 9, 41, 95
7, 193680, Note_off_c, 9, 44, 80
7, 193680, Note_off_c, 9, 40, 80
7, 193680, Note_off_c, 9, 41, 80
7, 193680, Note_on_c, 9, 44, 95
7, 193680, Note_on_c, 9, 40, 95
7, 193680, Note_on_c, 9, 41, 95
7, 193800, Note_off_c, 9, 44, 80
7, 193800, Note_off_c, 9, 40, 80
7, 193800, Note_off_c, 9, 41, 80
7, 193800, Note_on_c, 9, 44, 95
7, 193800, Note_on_c, 9, 40, 95
7, 193800, Note_on_c, 9, 41, 95
7, 193920, Note_off_c, 9, 44, 80
7, 193920, Note_off_c, 9, 40, 80
7, 193920, Note_off_c, 9, 41, 80
7, 193920, Note_on_c, 9, 57, 127
7, 193920, Note_on_c, 9, 36, 127
7, 193920, Note_on_c, 9, 44, 127
7, 194040, Note_off_c, 9, 57, 80
7, 194040, Note_off_c, 9, 36, 80
7, 194040, Note_off_c, 9, 44, 80
7, 194040, Note_on_c, 9, 44, 95
7, 194160, Note_off_c, 9, 44, 80
7, 194160, Note_on_c, 9, 36, 95
7, 194160, Note_on_c, 9, 44, 95
7, 194280, Note_off_c, 9, 36, 80
7, 194280, Note_off_c, 9, 44, 80
7, 194280, Note_on_c, 9, 44, 95
7, 194400, Note_off_c, 9, 44, 80
7, 194400, Note_on_c, 9, 40, 127
7, 194400, Note_on_c, 9, 36, 127
7, 194400, Note_on_c, 9, 44, 127
7, 194520, Note_off_c, 9, 40, 80
7, 194520, Note_off_c, 9, 36, 80
7, 194520, Note_off_c, 9, 44, 80
7, 194520, Note_on_c, 9, 44, 95
7, 194640, Note_off_c, 9, 44, 80
7, 194640, Note_on_c, 9, 36, 95
7, 194640, Note_on_c, 9, 44, 95
7, 194760, Note_off_c, 9, 36, 80
7, 194760, Note_off_c, 9, 44, 80
7, 194760, Note_on_c, 9, 44, 95
7, 194880, Note_off_c, 9, 44, 80
7, 194880, Note_on_c, 9, 36, 127
7, 194880, Note_on_c, 9, 44, 127
7, 195000, Note_off_c, 9, 36, 80
7, 195000, Note_off_c, 9, 44, 80
7, 195000, Note_on_c, 9, 44, 95
7, 195120, Note_off_c, 9, 44, 80
7, 195120, Note_on_c, 9, 36, 95
7, 195120, Note_on_c, 9, 44, 95
7, 195240, Note_off_c, 9, 36, 80
7, 195240, Note_off_c, 9, 44, 80
7, 195240, Note_on_c, 9, 44, 95
7, 195360, Note_off_c, 9, 44, 80
7, 195360, Note_on_c, 9, 40, 127
7, 195360, Note_on_c, 9, 36, 127
7, 195360, Note_on_c, 9, 44, 127
7, 195480, Note_off_c, 9, 40, 80
7, 195480, Note_off_c, 9, 36, 80
7, 195480, Note_off_c, 9, 44, 80
7, 195480, Note_on_c, 9, 44, 95
7, 195600, Note_off_c, 9, 44, 80
7, 195600, Note_on_c, 9, 36, 95
7, 195600, Note_on_c, 9, 44, 95
7, 195720, Note_off_c, 9, 36, 80
7, 195720, Note_off_c, 9, 44, 80
7, 195720, Note_on_c, 9, 44, 95
7, 195840, Note_off_c, 9, 44, 80
7, 195840, Note_on_c, 9, 36, 127
7, 195840, Note_on_c, 9, 44, 127
7, 195960, Note_off_c, 9, 36, 80
7, 195960, Note_off_c, 9, 44, 80
7, 195960, Note_on_c, 9, 44, 95
7, 196080, Note_off_c, 9, 44, 80
7, 196080, Note_on_c, 9, 36, 95
7, 196080, Note_on_c, 9, 44, 95
7, 196200, Note_off_c, 9, 36, 80
7, 196200, Note_off_c, 9, 44, 80
7, 196200, Note_on_c, 9, 44, 95
7, 196320, Note_off_c, 9, 44, 80
7, 196320, Note_on_c, 9, 40, 127
7, 196320, Note_on_c, 9, 36, 127
7, 196320, Note_on_c, 9, 44, 127
7, 196440, Note_off_c, 9, 40, 80
7, 196440, Note_off_c, 9, 36, 80
7, 196440, Note_off_c, 9, 44, 80
7, 196440, Note_on_c, 9, 44, 95
7, 196560, Note_off_c, 9, 44, 80
7, 196560, Note_on_c, 9, 36, 95
7, 196560, Note_on_c, 9, 44, 95
7, 196680, Note_off_c, 9, 36, 80
7, 196680, Note_off_c, 9, 44, 80
7, 196680, Note_on_c, 9, 44, 95
7, 196800, Note_off_c, 9, 44, 80
7, 196800, Note_on_c, 9, 36, 127
7, 196800, Note_on_c, 9, 44, 127
7, 196920, Note_off_c, 9, 36, 80
7, 196920, Note_off_c, 9, 44, 80
7, 196920, Note_on_c, 9, 44, 95
7, 197040, Note_off_c, 9, 44, 80
7, 197040, Note_on_c, 9, 36, 95
7, 197040, Note_on_c, 9, 44, 95
7, 197160, Note_off_c, 9, 36, 80
7, 197160, Note_off_c, 9, 44, 80
7, 197160, Note_on_c, 9, 44, 95
7, 197280, Note_off_c, 9, 44, 80
7, 197280, Note_on_c, 9, 40, 127
7, 197280, Note_on_c, 9, 36, 127
7, 197280, Note_on_c, 9, 44, 127
7, 197400, Note_off_c, 9, 40, 80
7, 197400, Note_off_c, 9, 36, 80
7, 197400, Note_off_c, 9, 44, 80
7, 197400, Note_on_c, 9, 44, 95
7, 197520, Note_off_c, 9, 44, 80
7, 197520, Note_on_c, 9, 36, 95
7, 197520, Note_on_c, 9, 44, 95
7, 197640, Note_off_c, 9, 36, 80
7, 197640, Note_off_c, 9, 44, 80
7, 197640, Note_on_c, 9, 44, 95
7, 197760, Note_off_c, 9, 44, 80
7, 197760, Note_on_c, 9, 57, 127
7, 197760, Note_on_c, 9, 36, 127
7, 197760, Note_on_c, 9, 44, 127
7, 197880, Note_off_c, 9, 57, 80
7, 197880, Note_off_c, 9, 36, 80
7, 197880, Note_off_c, 9, 44, 80
7, 197880, Note_on_c, 9, 44, 95
7, 198000, Note_off_c, 9, 44, 80
7, 198000, Note_on_c, 9, 36, 95
7, 198000, Note_on_c, 9, 44, 95
7, 198120, Note_off_c, 9, 36, 80
7, 198120, Note_off_c, 9, 44, 80
7, 198120, Note_on_c, 9, 44, 95
7, 198240, Note_off_c, 9, 44, 80
7, 198240, Note_on_c, 9, 40, 127
7, 198240, Note_on_c, 9, 36, 127
7, 198240, Note_on_c, 9, 44, 127
7, 198360, Note_off_c, 9, 40, 80
7, 198360, Note_off_c, 9, 36, 80
7, 198360, Note_off_c, 9, 44, 80
7, 198360, Note_on_c, 9, 44, 95
7, 198480, Note_off_c, 9, 44, 80
7, 198480, Note_on_c, 9, 36, 95
7, 198480, Note_on_c, 9, 44, 95
7, 198600, Note_off_c, 9, 36, 80
7, 198600, Note_off_c, 9, 44, 80
7, 198600, Note_on_c, 9, 44, 95
7, 198720, Note_off_c, 9, 44, 80
7, 198720, Note_on_c, 9, 36, 127
7, 198720, Note_on_c, 9, 44, 127
7, 198840, Note_off_c, 9, 36, 80
7, 198840, Note_off_c, 9, 44, 80
7, 198840, Note_on_c, 9, 44, 95
7, 198960, Note_off_c, 9, 44, 80
7, 198960, Note_on_c, 9, 36, 95
7, 198960, Note_on_c, 9, 44, 95
7, 199080, Note_off_c, 9, 36, 80
7, 199080, Note_off_c, 9, 44, 80
7, 199080, Note_on_c, 9, 44, 95
7, 199200, Note_off_c, 9, 44, 80
7, 199200, Note_on_c, 9, 40, 127
7, 199200, Note_on_c, 9, 36, 127
7, 199200, Note_on_c, 9, 44, 127
7, 199320, Note_off_c, 9, 40, 80
7, 199320, Note_off_c, 9, 36, 80
7, 199320, Note_off_c, 9, 44, 80
7, 199320, Note_on_c, 9, 44, 95
7, 199440, Note_off_c, 9, 44, 80
7, 199440, Note_on_c, 9, 36, 95
7, 199440, Note_on_c, 9, 44, 95
7, 199560, Note_off_c, 9, 36, 80
7, 199560, Note_off_c, 9, 44, 80
7, 199560, Note_on_c, 9, 44, 95
7, 199680, Note_off_c, 9, 44, 80
7, 199680, Note_on_c, 9, 36, 127
7, 199680, Note_on_c, 9, 44, 127
7, 199800, Note_off_c, 9, 36, 80
7, 199800, Note_off_c, 9, 44, 80
7, 199800, Note_on_c, 9, 44, 95
7, 199920, Note_off_c, 9, 44, 80
7, 199920, Note_on_c, 9, 36, 95
7, 199920, Note_on_c, 9, 44, 95
7, 200040, Note_off_c, 9, 36, 80
7, 200040, Note_off_c, 9, 44, 80
7, 200040, Note_on_c, 9, 44, 95
7, 200160, Note_off_c, 9, 44, 80
7, 200160, Note_on_c, 9, 40, 127
7, 200160, Note_on_c, 9, 36, 127
7, 200160, Note_on_c, 9, 44, 127
7, 200280, Note_off_c, 9, 40, 80
7, 200280, Note_off_c, 9, 36, 80
7, 200280, Note_off_c, 9, 44, 80
7, 200280, Note_on_c, 9, 44, 95
7, 200400, Note_off_c, 9, 44, 80
7, 200400, Note_on_c, 9, 36, 95
7, 200400, Note_on_c, 9, 44, 95
7, 200520, Note_off_c, 9, 36, 80
7, 200520, Note_off_c, 9, 44, 80
7, 200520, Note_on_c, 9, 44, 95
7, 200640, Note_off_c, 9, 44, 80
7, 200640, Note_on_c, 9, 36, 127
7, 200640, Note_on_c, 9, 44, 127
7, 200760, Note_off_c, 9, 36, 80
7, 200760, Note_off_c, 9, 44, 80
7, 200760, Note_on_c, 9, 44, 95
7, 200880, Note_off_c, 9, 44, 80
7, 200880, Note_on_c, 9, 36, 95
7, 200880, Note_on_c, 9, 44, 95
7, 201000, Note_off_c, 9, 36, 80
7, 201000, Note_off_c, 9, 44, 80
7, 201000, Note_on_c, 9, 44, 95
7, 201120, Note_off_c, 9, 44, 80
7, 201120, Note_on_c, 9, 40, 127
7, 201120, Note_on_c, 9, 36, 127
7, 201120, Note_on_c, 9, 44, 127
7, 201240, Note_off_c, 9, 40, 80
7, 201240, Note_off_c, 9, 36, 80
7, 201240, Note_off_c, 9, 44, 80
7, 201240, Note_on_c, 9, 44, 95
7, 201360, Note_off_c, 9, 44, 80
7, 201360, Note_on_c, 9, 40, 95
7, 201360, Note_on_c, 9, 36, 95
7, 201360, Note_on_c, 9, 44, 95
7, 201480, Note_off_c, 9, 40, 80
7, 201480, Note_off_c, 9, 36, 80
7, 201480, Note_off_c, 9, 44, 80
7, 201480, Note_on_c, 9, 40, 95
7, 201480, Note_on_c, 9, 44, 95
7, 201600, Note_off_c, 9, 40, 80
7, 201600, Note_off_c, 9, 44, 80
7, 201600, Note_on_c, 9, 57, 127
7, 201600, Note_on_c, 9, 36, 127
7, 201600, Note_on_c, 9, 44, 127
7, 201720, Note_off_c, 9, 57, 80
7, 201720, Note_off_c, 9, 36, 80
7, 201720, Note_off_c, 9, 44, 80
7, 201720, Note_on_c, 9, 44, 95
7, 201840, Note_off_c, 9, 44, 80
7, 201840, Note_on_c, 9, 36, 95
7, 201840, Note_on_c, 9, 44, 95
7, 201960, Note_off_c, 9, 36, 80
7, 201960, Note_off_c, 9, 44, 80
7, 201960, Note_on_c, 9, 44, 95
7, 202080, Note_off_c, 9, 44, 80
7, 202080, Note_on_c, 9, 40, 127
7, 202080, Note_on_c, 9, 36, 127
7, 202080, Note_on_c, 9, 44, 127
7, 202200, Note_off_c, 9, 40, 80
7, 202200, Note_off_c, 9, 36, 80
7, 202200, Note_off_c, 9, 44, 80
7, 202200, Note_on_c, 9, 44, 95
7, 202320, Note_off_c, 9, 44, 80
7, 202320, Note_on_c, 9, 36, 95
7, 202320, Note_on_c, 9, 44, 95
7, 202440, Note_off_c, 9, 36, 80
7, 202440, Note_off_c, 9, 44, 80
7, 202440, Note_on_c, 9, 44, 95
7, 202560, Note_off_c, 9, 44, 80
7, 202560, Note_on_c, 9, 36, 127
7, 202560, Note_on_c, 9, 44, 127
7, 202680, Note_off_c, 9, 36, 80
7, 202680, Note_off_c, 9, 44, 80
7, 202680, Note_on_c, 9, 44, 95
7, 202800, Note_off_c, 9, 44, 80
7, 202800, Note_on_c, 9, 36, 95
7, 202800, Note_on_c, 9, 44, 95
7, 202920, Note_off_c, 9, 36, 80
7, 202920, Note_off_c, 9, 44, 80
7, 202920, Note_on_c, 9, 44, 95
7, 203040, Note_off_c, 9, 44, 80
7, 203040, Note_on_c, 9, 40, 127
7, 203040, Note_on_c, 9, 36, 127
7, 203040, Note_on_c, 9, 44, 127
7, 203160, Note_off_c, 9, 40, 80
7, 203160, Note_off_c, 9, 36, 80
7, 203160, Note_off_c, 9, 44, 80
7, 203160, Note_on_c, 9, 44, 95
7, 203280, Note_off_c, 9, 44, 80
7, 203280, Note_on_c, 9, 36, 95
7, 203280, Note_on_c, 9, 44, 95
7, 203400, Note_off_c, 9, 36, 80
7, 203400, Note_off_c, 9, 44, 80
7, 203400, Note_on_c, 9, 44, 95
7, 203520, Note_off_c, 9, 44, 80
7, 203520, Note_on_c, 9, 36, 127
7, 203520, Note_on_c, 9, 44, 127
7, 203640, Note_off_c, 9, 36, 80
7, 203640, Note_off_c, 9, 44, 80
7, 203640, Note_on_c, 9, 44, 95
7, 203760, Note_off_c, 9, 44, 80
7, 203760, Note_on_c, 9, 36, 95
7, 203760, Note_on_c, 9, 44, 95
7, 203880, Note_off_c, 9, 36, 80
7, 203880, Note_off_c, 9, 44, 80
7, 203880, Note_on_c, 9, 44, 95
7, 204000, Note_off_c, 9, 44, 80
7, 204000, Note_on_c, 9, 40, 127
7, 204000, Note_on_c, 9, 36, 127
7, 204000, Note_on_c, 9, 44, 127
7, 204120, Note_off_c, 9, 40, 80
7, 204120, Note_off_c, 9, 36, 80
7, 204120, Note_off_c, 9, 44, 80
7, 204120, Note_on_c, 9, 44, 95
7, 204240, Note_off_c, 9, 44, 80
7, 204240, Note_on_c, 9, 36, 95
7, 204240, Note_on_c, 9, 44, 95
7, 204360, Note_off_c, 9, 36, 80
7, 204360, Note_off_c, 9, 44, 80
7, 204360, Note_on_c, 9, 44, 95
7, 204480, Note_off_c, 9, 44, 80
7, 204480, Note_on_c, 9, 36, 127
7, 204480, Note_on_c, 9, 44, 127
7, 204600, Note_off_c, 9, 36, 80
7, 204600, Note_off_c, 9, 44, 80
7, 204600, Note_on_c, 9, 44, 95
7, 204720, Note_off_c, 9, 44, 80
7, 204720, Note_on_c, 9, 36, 95
7, 204720, Note_on_c, 9, 44, 95
7, 204840, Note_off_c, 9, 36, 80
7, 204840, Note_off_c, 9, 44, 80
7, 204840, Note_on_c, 9, 44, 95
7, 204960, Note_off_c, 9, 44, 80
7, 204960, Note_on_c, 9, 40, 127
7, 204960, Note_on_c, 9, 36, 127
7, 204960, Note_on_c, 9, 44, 127
7, 205080, Note_off_c, 9, 40, 80
7, 205080, Note_off_c, 9, 36, 80
7, 205080, Note_off_c, 9, 44, 80
7, 205080, Note_on_c, 9, 44, 95
7, 205200, Note_off_c, 9, 44, 80
7, 205200, Note_on_c, 9, 40, 95
7, 205200, Note_on_c, 9, 36, 95
7, 205200, Note_on_c, 9, 44, 95
7, 205320, Note_off_c, 9, 40, 80
7, 205320, Note_off_c, 9, 36, 80
7, 205320, Note_off_c, 9, 44, 80
7, 205320, Note_on_c, 9, 40, 95
7, 205320, Note_on_c, 9, 44, 95
7, 205440, Note_off_c, 9, 40, 80
7, 205440, Note_off_c, 9, 44, 80
7, 205440, Note_on_c, 9, 57, 127
7, 205440, Note_on_c, 9, 40, 127
7, 205440, Note_on_c, 9, 36, 127
7, 205440, Note_on_c, 9, 44, 127
7, 205560, Note_off_c, 9, 57, 80
7, 205560, Note_off_c, 9, 40, 80
7, 205560, Note_off_c, 9, 36, 80
7, 205560, Note_off_c, 9, 44, 80
7, 205560, Note_on_c, 9, 44, 95
7, 205680, Note_off_c, 9, 44, 80
7, 205680, Note_on_c, 9, 36, 95
7, 205680, Note_on_c, 9, 44, 95
7, 205800, Note_off_c, 9, 36, 80
7, 205800, Note_off_c, 9, 44, 80
7, 205800, Note_on_c, 9, 40, 95
7, 205800, Note_on_c, 9, 44, 95
7, 205920, Note_off_c, 9, 40, 80
7, 205920, Note_off_c, 9, 44, 80
7, 205920, Note_on_c, 9, 40, 127
7, 205920, Note_on_c, 9, 36, 127
7, 205920, Note_on_c, 9, 44, 127
7, 206040, Note_off_c, 9, 40, 80
7, 206040, Note_off_c, 9, 36, 80
7, 206040, Note_off_c, 9, 44, 80
7, 206040, Note_on_c, 9, 44, 95
7, 206160, Note_off_c, 9, 44, 80
7, 206160, Note_on_c, 9, 40, 95
7, 206160, Note_on_c, 9, 36, 95
7, 206160, Note_on_c, 9, 44, 95
7, 206280, Note_off_c, 9, 40, 80
7, 206280, Note_off_c, 9, 36, 80
7, 206280, Note_off_c, 9, 44, 80
7, 206280, Note_on_c, 9, 44, 95
7, 206400, Note_off_c, 9, 44, 80
7, 206400, Note_on_c, 9, 36, 127
7, 206400, Note_on_c, 9, 44, 127
7, 206520, Note_off_c, 9, 36, 80
7, 206520, Note_off_c, 9, 44, 80
7, 206520, Note_on_c, 9, 40, 95
7, 206520, Note_on_c, 9, 44, 95
7, 206640, Note_off_c, 9, 40, 80
7, 206640, Note_off_c, 9, 44, 80
7, 206640, Note_on_c, 9, 40, 95
7, 206640, Note_on_c, 9, 36, 95
7, 206640, Note_on_c, 9, 44, 95
7, 206760, Note_off_c, 9, 40, 80
7, 206760, Note_off_c, 9, 36, 80
7, 206760, Note_off_c, 9, 44, 80
7, 206760, Note_on_c, 9, 44, 95
7, 206880, Note_off_c, 9, 44, 80
7, 206880, Note_on_c, 9, 40, 127
7, 206880, Note_on_c, 9, 36, 127
7, 206880, Note_on_c, 9, 44, 127
7, 207000, Note_off_c, 9, 40, 80
7, 207000, Note_off_c, 9, 36, 80
7, 207000, Note_off_c, 9, 44, 80
7, 207000, Note_on_c, 9, 44, 95
7, 207120, Note_off_c, 9, 44, 80
7, 207120, Note_on_c, 9, 36, 95
7, 207120, Note_on_c, 9, 44, 95
7, 207240, Note_off_c, 9, 36, 80
7, 207240, Note_off_c, 9, 44, 80
7, 207240, Note_on_c, 9, 44, 95
7, 207360, Note_off_c, 9, 44, 80
7, 207360, Note_on_c, 9, 40, 127
7, 207360, Note_on_c, 9, 36, 127
7, 207360, Note_on_c, 9, 44, 127
7, 207480, Note_off_c, 9, 40, 80
7, 207480, Note_off_c, 9, 36, 80
7, 207480, Note_off_c, 9, 44, 80
7, 207480, Note_on_c, 9, 44, 95
7, 207600, Note_off_c, 9, 44, 80
7, 207600, Note_on_c, 9, 36, 95
7, 207600, Note_on_c, 9, 44, 95
7, 207720, Note_off_c, 9, 36, 80
7, 207720, Note_off_c, 9, 44, 80
7, 207720, Note_on_c, 9, 44, 95
7, 207840, Note_off_c, 9, 44, 80
7, 207840, Note_on_c, 9, 40, 127
7, 207840, Note_on_c, 9, 36, 127
7, 207840, Note_on_c, 9, 44, 127
7, 207960, Note_off_c, 9, 40, 80
7, 207960, Note_off_c, 9, 36, 80
7, 207960, Note_off_c, 9, 44, 80
7, 207960, Note_on_c, 9, 44, 95
7, 208080, Note_off_c, 9, 44, 80
7, 208080, Note_on_c, 9, 36, 95
7, 208080, Note_on_c, 9, 44, 95
7, 208200, Note_off_c, 9, 36, 80
7, 208200, Note_off_c, 9, 44, 80
7, 208200, Note_on_c, 9, 44, 95
7, 208320, Note_off_c, 9, 44, 80
7, 208320, Note_on_c, 9, 40, 127
7, 208320, Note_on_c, 9, 36, 127
7, 208320, Note_on_c, 9, 44, 127
7, 208440, Note_off_c, 9, 40, 80
7, 208440, Note_off_c, 9, 36, 80
7, 208440, Note_off_c, 9, 44, 80
7, 208440, Note_on_c, 9, 40, 95
7, 208440, Note_on_c, 9, 44, 95
7, 208560, Note_off_c, 9, 40, 80
7, 208560, Note_off_c, 9, 44, 80
7, 208560, Note_on_c, 9, 40, 95
7, 208560, Note_on_c, 9, 36, 95
7, 208560, Note_on_c, 9, 44, 95
7, 208680, Note_off_c, 9, 40, 80
7, 208680, Note_off_c, 9, 36, 80
7, 208680, Note_off_c, 9, 44, 80
7, 208680, Note_on_c, 9, 40, 95
7, 208680, Note_on_c, 9, 44, 95
7, 208800, Note_off_c, 9, 40, 80
7, 208800, Note_off_c, 9, 44, 80
7, 208800, Note_on_c, 9, 40, 127
7, 208800, Note_on_c, 9, 36, 127
7, 208800, Note_on_c, 9, 44, 127
7, 208920, Note_off_c, 9, 40, 80
7, 208920, Note_off_c, 9, 36, 80
7, 208920, Note_off_c, 9, 44, 80
7, 208920, Note_on_c, 9, 40, 95
7, 208920, Note_on_c, 9, 44, 95
7, 209040, Note_off_c, 9, 40, 80
7, 209040, Note_off_c, 9, 44, 80
7, 209040, Note_on_c, 9, 40, 95
7, 209040, Note_on_c, 9, 36, 95
7, 209040, Note_on_c, 9, 44, 95
7, 209160, Note_off_c, 9, 40, 80
7, 209160, Note_off_c, 9, 36, 80
7, 209160, Note_off_c, 9, 44, 80
7, 209160, Note_on_c, 9, 40, 95
7, 209160, Note_on_c, 9, 44, 95
7, 209280, Note_off_c, 9, 40, 80
7, 209280, Note_off_c, 9, 44, 80
7, 209280, Note_on_c, 9, 57, 127
7, 209280, Note_on_c, 9, 40, 127
7, 209280, Note_on_c, 9, 36, 127
7, 209520, Note_off_c, 9, 57, 80
7, 209520, Note_off_c, 9, 40, 80
7, 209520, Note_off_c, 9, 36, 80
7, 209760, Note_on_c, 9, 44, 127
7, 210000, Note_off_c, 9, 44, 80
7, 210000, Note_on_c, 9, 36, 95
7, 210000, Note_on_c, 9, 40, 95
7, 210240, Note_off_c, 9, 36, 80
7, 210240, Note_off_c, 9, 40, 80
7, 210240, Note_on_c, 9, 44, 127
7, 210480, Note_off_c, 9, 44, 80
7, 210480, Note_on_c, 9, 36, 95
7, 210480, Note_on_c, 9, 40, 95
7, 210720, Note_off_c, 9, 36, 80
7, 210720, Note_off_c, 9, 40, 80
7, 210720, Note_on_c, 9, 44, 127
7, 210960, Note_off_c, 9, 44, 80
7, 210960, Note_on_c, 9, 36, 95
7, 210960, Note_on_c, 9, 40, 95
7, 211200, Note_off_c, 9, 36, 80
7, 211200, Note_off_c, 9, 40, 80
7, 211200, Note_on_c, 9, 44, 127
7, 211440, Note_off_c, 9, 44, 80
7, 211440, Note_on_c, 9, 36, 95
7, 211440, Note_on_c, 9, 40, 95
7, 211680, Note_off_c, 9, 36, 80
7, 211680, Note_off_c, 9, 40, 80
7, 211680, Note_on_c, 9, 44, 127
7, 211920, Note_off_c, 9, 44, 80
7, 211920, Note_on_c, 9, 36, 95
7, 211920, Note_on_c, 9, 40, 95
7, 212160, Note_off_c, 9, 36, 80
7, 212160, Note_off_c, 9, 40, 80
7, 212160, Note_on_c, 9, 44, 127
7, 212400, Note_off_c, 9, 44, 80
7, 212400, Note_on_c, 9, 36, 95
7, 212400, Note_on_c, 9, 40, 95
7, 212640, Note_off_c, 9, 36, 80
7, 212640, Note_off_c, 9, 40, 80
7, 212640, Note_on_c, 9, 44, 127
7, 212880, Note_off_c, 9, 44, 80
7, 212880, Note_on_c, 9, 36, 95
7, 212880, Note_on_c, 9, 40, 95
7, 213120, Note_off_c, 9, 36, 80
7, 213120, Note_off_c, 9, 40, 80
7, 213120, Note_on_c, 9, 44, 127
7, 213360, Note_off_c, 9, 44, 80
7, 213360, Note_on_c, 9, 36, 95
7, 213360, Note_on_c, 9, 40, 95
7, 213600, Note_off_c, 9, 36, 80
7, 213600, Note_off_c, 9, 40, 80
7, 213600, Note_on_c, 9, 44, 127
7, 213840, Note_off_c, 9, 44, 80
7, 213840, Note_on_c, 9, 36, 95
7, 213840, Note_on_c, 9, 40, 95
7, 214080, Note_off_c, 9, 36, 80
7, 214080, Note_off_c, 9, 40, 80
7, 214080, Note_on_c, 9, 44, 127
7, 214320, Note_off_c, 9, 44, 80
7, 214320, Note_on_c, 9, 36, 95
7, 214320, Note_on_c, 9, 40, 95
7, 214560, Note_off_c, 9, 36, 80
7, 214560, Note_off_c, 9, 40, 80
7, 214560, Note_on_c, 9, 44, 127
7, 214800, Note_off_c, 9, 44, 80
7, 214800, Note_on_c, 9, 36, 95
7, 214800, Note_on_c, 9, 40, 95
7, 215040, Note_off_c, 9, 36, 80
7, 215040, Note_off_c, 9, 40, 80
7, 215040, Note_on_c, 9, 44, 127
7, 215280, Note_off_c, 9, 44, 80
7, 215280, Note_on_c, 9, 36, 95
7, 215280, Note_on_c, 9, 40, 95
7, 215520, Note_off_c, 9, 36, 80
7, 215520, Note_off_c, 9, 40, 80
7, 215520, Note_on_c, 9, 44, 127
7, 215760, Note_off_c, 9, 44, 80
7, 215760, Note_on_c, 9, 36, 95
7, 215760, Note_on_c, 9, 40, 95
7, 216000, Note_off_c, 9, 36, 80
7, 216000, Note_off_c, 9, 40, 80
7, 216960, Note_on_c, 9, 57, 127
7, 216960, Note_on_c, 9, 36, 127
7, 216960, Note_on_c, 9, 44, 127
7, 217080, Note_off_c, 9, 57, 80
7, 217080, Note_off_c, 9, 36, 80
7, 217080, Note_off_c, 9, 44, 80
7, 217080, Note_on_c, 9, 44, 95
7, 217200, Note_off_c, 9, 44, 80
7, 217200, Note_on_c, 9, 36, 95
7, 217200, Note_on_c, 9, 44, 95
7, 217320, Note_off_c, 9, 36, 80
7, 217320, Note_off_c, 9, 44, 80
7, 217320, Note_on_c, 9, 44, 95
7, 217440, Note_off_c, 9, 44, 80
7, 217440, Note_on_c, 9, 40, 127
7, 217440, Note_on_c, 9, 36, 127
7, 217440, Note_on_c, 9, 44, 127
7, 217560, Note_off_c, 9, 40, 80
7, 217560, Note_off_c, 9, 36, 80
7, 217560, Note_off_c, 9, 44, 80
7, 217560, Note_on_c, 9, 44, 95
7, 217680, Note_off_c, 9, 44, 80
7, 217680, Note_on_c, 9, 36, 95
7, 217680, Note_on_c, 9, 44, 95
7, 217800, Note_off_c, 9, 36, 80
7, 217800, Note_off_c, 9, 44, 80
7, 217800, Note_on_c, 9, 44, 95
7, 217920, Note_off_c, 9, 44, 80
7, 217920, Note_on_c, 9, 36, 127
7, 217920, Note_on_c, 9, 44, 127
7, 218040, Note_off_c, 9, 36, 80
7, 218040, Note_off_c, 9, 44, 80
7, 218040, Note_on_c, 9, 44, 95
7, 218160, Note_off_c, 9, 44, 80
7, 218160, Note_on_c, 9, 36, 95
7, 218160, Note_on_c, 9, 44, 95
7, 218280, Note_off_c, 9, 36, 80
7, 218280, Note_off_c, 9, 44, 80
7, 218280, Note_on_c, 9, 44, 95
7, 218400, Note_off_c, 9, 44, 80
7, 218400, Note_on_c, 9, 40, 127
7, 218400, Note_on_c, 9, 36, 127
7, 218400, Note_on_c, 9, 44, 127
7, 218520, Note_off_c, 9, 40, 80
7, 218520, Note_off_c, 9, 36, 80
7, 218520, Note_off_c, 9, 44, 80
7, 218520, Note_on_c, 9, 44, 95
7, 218640, Note_off_c, 9, 44, 80
7, 218640, Note_on_c, 9, 36, 95
7, 218640, Note_on_c, 9, 44, 95
7, 218760, Note_off_c, 9, 36, 80
7, 218760, Note_off_c, 9, 44, 80
7, 218760, Note_on_c, 9, 44, 95
7, 218880, Note_off_c, 9, 44, 80
7, 218880, Note_on_c, 9, 36, 127
7, 218880, Note_on_c, 9, 44, 127
7, 219000, Note_off_c, 9, 36, 80
7, 219000, Note_off_c, 9, 44, 80
7, 219000, Note_on_c, 9, 44, 95
7, 219120, Note_off_c, 9, 44, 80
7, 219120, Note_on_c, 9, 36, 95
7, 219120, Note_on_c, 9, 44, 95
7, 219240, Note_off_c, 9, 36, 80
7, 219240, Note_off_c, 9, 44, 80
7, 219240, Note_on_c, 9, 44, 95
7, 219360, Note_off_c, 9, 44, 80
7, 219360, Note_on_c, 9, 40, 127
7, 219360, Note_on_c, 9, 36, 127
7, 219360, Note_on_c, 9, 44, 127
7, 219480, Note_off_c, 9, 40, 80
7, 219480, Note_off_c, 9, 36, 80
7, 219480, Note_off_c, 9, 44, 80
7, 219480, Note_on_c, 9, 44, 95
7, 219600, Note_off_c, 9, 44, 80
7, 219600, Note_on_c, 9, 36, 95
7, 219600, Note_on_c, 9, 44, 95
7, 219720, Note_off_c, 9, 36, 80
7, 219720, Note_off_c, 9, 44, 80
7, 219720, Note_on_c, 9, 44, 95
7, 219840, Note_off_c, 9, 44, 80
7, 219840, Note_on_c, 9, 36, 127
7, 219840, Note_on_c, 9, 44, 127
7, 219960, Note_off_c, 9, 36, 80
7, 219960, Note_off_c, 9, 44, 80
7, 219960, Note_on_c, 9, 44, 95
7, 220080, Note_off_c, 9, 44, 80
7, 220080, Note_on_c, 9, 36, 95
7, 220080, Note_on_c, 9, 44, 95
7, 220200, Note_off_c, 9, 36, 80
7, 220200, Note_off_c, 9, 44, 80
7, 220200, Note_on_c, 9, 44, 95
7, 220320, Note_off_c, 9, 44, 80
7, 220320, Note_on_c, 9, 40, 127
7, 220320, Note_on_c, 9, 36, 127
7, 220320, Note_on_c, 9, 44, 127
7, 220440, Note_off_c, 9, 40, 80
7, 220440, Note_off_c, 9, 36, 80
7, 220440, Note_off_c, 9, 44, 80
7, 220440, Note_on_c, 9, 44, 95
7, 220560, Note_off_c, 9, 44, 80
7, 220560, Note_on_c, 9, 40, 95
7, 220560, Note_on_c, 9, 36, 95
7, 220560, Note_on_c, 9, 44, 95
7, 220680, Note_off_c, 9, 40, 80
7, 220680, Note_off_c, 9, 36, 80
7, 220680, Note_off_c, 9, 44, 80
7, 220680, Note_on_c, 9, 40, 95
7, 220680, Note_on_c, 9, 44, 95
7, 220800, Note_off_c, 9, 40, 80
7, 220800, Note_off_c, 9, 44, 80
7, 220800, Note_on_c, 9, 57, 127
7, 220800, Note_on_c, 9, 36, 127
7, 220800, Note_on_c, 9, 44, 127
7, 220920, Note_off_c, 9, 57, 80
7, 220920, Note_off_c, 9, 36, 80
7, 220920, Note_off_c, 9, 44, 80
7, 220920, Note_on_c, 9, 44, 95
7, 221040, Note_off_c, 9, 44, 80
7, 221040, Note_on_c, 9, 36, 95
7, 221040, Note_on_c, 9, 44, 95
7, 221160, Note_off_c, 9, 36, 80
7, 221160, Note_off_c, 9, 44, 80
7, 221160, Note_on_c, 9, 44, 95
7, 221280, Note_off_c, 9, 44, 80
7, 221280, Note_on_c, 9, 40, 127
7, 221280, Note_on_c, 9, 36, 127
7, 221280, Note_on_c, 9, 44, 127
7, 221400, Note_off_c, 9, 40, 80
7, 221400, Note_off_c, 9, 36, 80
7, 221400, Note_off_c, 9, 44, 80
7, 221400, Note_on_c, 9, 44, 95
7, 221520, Note_off_c, 9, 44, 80
7, 221520, Note_on_c, 9, 36, 95
7, 221520, Note_on_c, 9, 44, 95
7, 221640, Note_off_c, 9, 36, 80
7, 221640, Note_off_c, 9, 44, 80
7, 221640, Note_on_c, 9, 44, 95
7, 221760, Note_off_c, 9, 44, 80
7, 221760, Note_on_c, 9, 36, 127
7, 221760, Note_on_c, 9, 44, 127
7, 221880, Note_off_c, 9, 36, 80
7, 221880, Note_off_c, 9, 44, 80
7, 221880, Note_on_c, 9, 44, 95
7, 222000, Note_off_c, 9, 44, 80
7, 222000, Note_on_c, 9, 36, 95
7, 222000, Note_on_c, 9, 44, 95
7, 222120, Note_off_c, 9, 36, 80
7, 222120, Note_off_c, 9, 44, 80
7, 222120, Note_on_c, 9, 44, 95
7, 222240, Note_off_c, 9, 44, 80
7, 222240, Note_on_c, 9, 40, 127
7, 222240, Note_on_c, 9, 36, 127
7, 222240, Note_on_c, 9, 44, 127
7, 222360, Note_off_c, 9, 40, 80
7, 222360, Note_off_c, 9, 36, 80
7, 222360, Note_off_c, 9, 44, 80
7, 222360, Note_on_c, 9, 44, 95
7, 222480, Note_off_c, 9, 44, 80
7, 222480, Note_on_c, 9, 36, 95
7, 222480, Note_on_c, 9, 44, 95
7, 222600, Note_off_c, 9, 36, 80
7, 222600, Note_off_c, 9, 44, 80
7, 222600, Note_on_c, 9, 44, 95
7, 222720, Note_off_c, 9, 44, 80
7, 222720, Note_on_c, 9, 36, 127
7, 222720, Note_on_c, 9, 44, 127
7, 222840, Note_off_c, 9, 36, 80
7, 222840, Note_off_c, 9, 44, 80
7, 222840, Note_on_c, 9, 44, 95
7, 222960, Note_off_c, 9, 44, 80
7, 222960, Note_on_c, 9, 36, 95
7, 222960, Note_on_c, 9, 44, 95
7, 223080, Note_off_c, 9, 36, 80
7, 223080, Note_off_c, 9, 44, 80
7, 223080, Note_on_c, 9, 44, 95
7, 223200, Note_off_c, 9, 44, 80
7, 223200, Note_on_c, 9, 40, 127
7, 223200, Note_on_c, 9, 36, 127
7, 223200, Note_on_c, 9, 44, 127
7, 223320, Note_off_c, 9, 40, 80
7, 223320, Note_off_c, 9, 36, 80
7, 223320, Note_off_c, 9, 44, 80
7, 223320, Note_on_c, 9, 44, 95
7, 223440, Note_off_c, 9, 44, 80
7, 223440, Note_on_c, 9, 36, 95
7, 223440, Note_on_c, 9, 44, 95
7, 223560, Note_off_c, 9, 36, 80
7, 223560, Note_off_c, 9, 44, 80
7, 223560, Note_on_c, 9, 44, 95
7, 223680, Note_off_c, 9, 44, 80
7, 223680, Note_on_c, 9, 36, 127
7, 223680, Note_on_c, 9, 44, 127
7, 223800, Note_off_c, 9, 36, 80
7, 223800, Note_off_c, 9, 44, 80
7, 223800, Note_on_c, 9, 44, 95
7, 223920, Note_off_c, 9, 44, 80
7, 223920, Note_on_c, 9, 36, 95
7, 223920, Note_on_c, 9, 44, 95
7, 224040, Note_off_c, 9, 36, 80
7, 224040, Note_off_c, 9, 44, 80
7, 224040, Note_on_c, 9, 44, 95
7, 224160, Note_off_c, 9, 44, 80
7, 224160, Note_on_c, 9, 40, 127
7, 224160, Note_on_c, 9, 36, 127
7, 224160, Note_on_c, 9, 44, 127
7, 224280, Note_off_c, 9, 40, 80
7, 224280, Note_off_c, 9, 36, 80
7, 224280, Note_off_c, 9, 44, 80
7, 224280, Note_on_c, 9, 44, 95
7, 224400, Note_off_c, 9, 44, 80
7, 224400, Note_on_c, 9, 40, 95
7, 224400, Note_on_c, 9, 36, 95
7, 224400, Note_on_c, 9, 44, 95
7, 224520, Note_off_c, 9, 40, 80
7, 224520, Note_off_c, 9, 36, 80
7, 224520, Note_off_c, 9, 44, 80
7, 224520, Note_on_c, 9, 40, 95
7, 224520, Note_on_c, 9, 44, 95
7, 224640, Note_off_c, 9, 40, 80
7, 224640, Note_off_c, 9, 44, 80
7, 224640, Note_on_c, 9, 40, 127
7, 224640, Note_on_c, 9, 57, 127
7, 224880, Note_off_c, 9, 40, 80
7, 224880, Note_off_c, 9, 57, 80
7, 224880, Note_on_c, 9, 36, 95
7, 225120, Note_off_c, 9, 36, 80
7, 225120, Note_on_c, 9, 40, 127
7, 225360, Note_off_c, 9, 40, 80
7, 225360, Note_on_c, 9, 36, 95
7, 225600, Note_off_c, 9, 36, 80
7, 225600, Note_on_c, 9, 40, 127
7, 225840, Note_off_c, 9, 40, 80
7, 225840, Note_on_c, 9, 36, 95
7, 226080, Note_off_c, 9, 36, 80
7, 226080, Note_on_c, 9, 40, 127
7, 226320, Note_off_c, 9, 40, 80
7, 226320, Note_on_c, 9, 36, 95
7, 226560, Note_off_c, 9, 36, 80
7, 226560, Note_on_c, 9, 40, 127
7, 226800, Note_off_c, 9, 40, 80
7, 226800, Note_on_c, 9, 36, 95
7, 227040, Note_off_c, 9, 36, 80
7, 227040, Note_on_c, 9, 40, 127
7, 227280, Note_off_c, 9, 40, 80
7, 227280, Note_on_c, 9, 36, 95
7, 227520, Note_off_c, 9, 36, 80
7, 227520, Note_on_c, 9, 40, 127
7, 227760, Note_off_c, 9, 40, 80
7, 227760, Note_on_c, 9, 36, 95
7, 228000, Note_off_c, 9, 36, 80
7, 228000, Note_on_c, 9, 40, 127
7, 228240, Note_off_c, 9, 40, 80
7, 228240, Note_on_c, 9, 36, 95
7, 228480, Note_off_c, 9, 36, 80
7, 228480, Note_on_c, 9, 40, 127
7, 228720, Note_off_c, 9, 40, 80
7, 228720, Note_on_c, 9, 36, 95
7, 228960, Note_off_c, 9, 36, 80
7, 228960, Note_on_c, 9, 40, 127
7, 229200, Note_off_c, 9, 40, 80
7, 229200, Note_on_c, 9, 36, 95
7, 229440, Note_off_c, 9, 36, 80
7, 229440, Note_on_c, 9, 40, 127
7, 229680, Note_off_c, 9, 40, 80
7, 229680, Note_on_c, 9, 36, 95
7, 229920, Note_off_c, 9, 36, 80
7, 229920, Note_on_c, 9, 40, 127
7, 230160, Note_off_c, 9, 40, 80
7, 230160, Note_on_c, 9, 36, 95
7, 230400, Note_off_c, 9, 36, 80
7, 230400, Note_on_c, 9, 40, 127
7, 230400, Note_on_c, 9, 36, 127
7, 230400, Note_on_c, 9, 57, 127
7, 230880, Note_off_c, 9, 40, 80
7, 230880, Note_off_c, 9, 36, 80
7, 230880, Note_off_c, 9, 57, 80
7, 230880, Note_on_c, 9, 40, 127
7, 230880, Note_on_c, 9, 36, 127
7, 230880, Note_on_c, 9, 57, 127
7, 231360, Note_off_c, 9, 40, 80
7, 231360, Note_off_c, 9, 36, 80
7, 231360, Note_off_c, 9, 57, 80
7, 231360, Note_on_c, 9, 36, 127
7, 231360, Note_on_c, 9, 57, 127
7, 231480, Note_off_c, 9, 36, 80
7, 231480, Note_off_c, 9, 57, 80
7, 231480, Note_on_c, 9, 36, 95
7, 231480, Note_on_c, 9, 57, 95
7, 231600, Note_off_c, 9, 36, 80
7, 231600, Note_off_c, 9, 57, 80
7, 231600, Note_on_c, 9, 40, 95
7, 231600, Note_on_c, 9, 45, 95
7, 231720, Note_off_c, 9, 40, 80
7, 231720, Note_off_c, 9, 45, 80
7, 231720, Note_on_c, 9, 40, 95
7, 231720, Note_on_c, 9, 45, 95
7, 231840, Note_off_c, 9, 40, 80
7, 231840, Note_off_c, 9, 45, 80
7, 231840, Note_on_c, 9, 43, 127
7, 231840, Note_on_c, 9, 40, 127
7, 231960, Note_off_c, 9, 43, 80
7, 231960, Note_off_c, 9, 40, 80
7, 231960, Note_on_c, 9, 41, 95
7, 232080, Note_off_c, 9, 41, 80
7, 232080, Note_on_c, 9, 41, 95
7, 232200, Note_off_c, 9, 41, 80
7, 232200, Note_on_c, 9, 41, 95
7, 232320, Note_off_c, 9, 41, 80
7, 232320, Note_on_c, 9, 36, 127
7, 232320, Note_on_c, 9, 57, 127
7, 232560, Note_off_c, 9, 36, 80
7, 232560, Note_off_c, 9, 57, 80
7, 232560, Note_on_c, 9, 36, 95
7, 232800, Note_off_c, 9, 36, 80
7, 232800, Note_on_c, 9, 40, 127
7, 233040, Note_off_c, 9, 40, 80
7, 233160, Note_on_c, 9, 41, 95
7, 233280, Note_off_c, 9, 41, 80
7, 233280, Note_on_c, 9, 36, 127
7, 233520, Note_off_c, 9, 36, 80
7, 233520, Note_on_c, 9, 36, 95
7, 233760, Note_off_c, 9, 36, 80
7, 233760, Note_on_c, 9, 40, 127
7, 234000, Note_off_c, 9, 40, 80
7, 234120, Note_on_c, 9, 40, 95
7, 234240, Note_off_c, 9, 40, 80
7, 234240, Note_on_c, 9, 40, 127
7, 234240, Note_on_c, 9, 36, 127
7, 234360, Note_off_c, 9, 40, 80
7, 234360, Note_off_c, 9, 36, 80
7, 234360, Note_on_c, 9, 40, 95
7, 234480, Note_off_c, 9, 40, 80
7, 234480, Note_on_c, 9, 40, 95
7, 234480, Note_on_c, 9, 36, 95
7, 234600, Note_off_c, 9, 40, 80
7, 234600, Note_off_c, 9, 36, 80
7, 234600, Note_on_c, 9, 40, 95
7, 234720, Note_off_c, 9, 40, 80
7, 234720, Note_on_c, 9, 45, 127
7, 234840, Note_off_c, 9, 45, 80
7, 234840, Note_on_c, 9, 43, 95
7, 234960, Note_off_c, 9, 43, 80
7, 234960, Note_on_c, 9, 43, 95
7, 235080, Note_off_c, 9, 43, 80
7, 235080, Note_on_c, 9, 41, 95
7, 235200, Note_off_c, 9, 41, 80
7, 235200, Note_on_c, 9, 41, 127
7, 235200, Note_on_c, 9, 36, 127
7, 235320, Note_off_c, 9, 41, 80
7, 235320, Note_off_c, 9, 36, 80
7, 235440, Note_on_c, 9, 36, 95
7, 235680, Note_off_c, 9, 36, 80
7, 235680, Note_on_c, 9, 46, 127
7, 235680, Note_on_c, 9, 40, 127
7, 235920, Note_off_c, 9, 46, 80
7, 235920, Note_off_c, 9, 40, 80
7, 236040, Note_on_c, 9, 40, 95
7, 236160, Note_off_c, 9, 40, 80
7, 236160, Note_on_c, 9, 36, 127
7, 236400, Note_off_c, 9, 36, 80
7, 236400, Note_on_c, 9, 36, 95
7, 236640, Note_off_c, 9, 36, 80
7, 236640, Note_on_c, 9, 46, 127
7, 236640, Note_on_c, 9, 40, 127
7, 236880, Note_off_c, 9, 46, 80
7, 236880, Note_off_c, 9, 40, 80
7, 237000, Note_on_c, 9, 40, 95
7, 237120, Note_off_c, 9, 40, 80
7, 237120, Note_on_c, 9, 36, 127
7, 237360, Note_off_c, 9, 36, 80
7, 237360, Note_on_c, 9, 36, 95
7, 237600, Note_off_c, 9, 36, 80
7, 237600, Note_on_c, 9, 46, 127
7, 237600, Note_on_c, 9, 40, 127
7, 237840, Note_off_c, 9, 46, 80
7, 237840, Note_off_c, 9, 40, 80
7, 237960, Note_on_c, 9, 40, 95
7, 238080, Note_off_c, 9, 40, 80
7, 238080, Note_on_c, 9, 40, 127
7, 238080, Note_on_c, 9, 36, 127
7, 238080, Note_on_c, 9, 57, 127
7, 238560, Note_off_c, 9, 40, 80
7, 238560, Note_off_c, 9, 36, 80
7, 238560, Note_off_c, 9, 57, 80
7, 238560, Note_on_c, 9, 40, 127
7, 238560, Note_on_c, 9, 36, 127
7, 238560, Note_on_c, 9, 57, 127
7, 239040, Note_off_c, 9, 40, 80
7, 239040, Note_off_c, 9, 36, 80
7, 239040, Note_off_c, 9, 57, 80
7, 239040, Note_on_c, 9, 36, 127
7, 239040, Note_on_c, 9, 57, 127
7, 239160, Note_off_c, 9, 36, 80
7, 239160, Note_off_c, 9, 57, 80
7, 239160, Note_on_c, 9, 36, 95
7, 239160, Note_on_c, 9, 57, 95
7, 239280, Note_off_c, 9, 36, 80
7, 239280, Note_off_c, 9, 57, 80
7, 239280, Note_on_c, 9, 40, 95
7, 239280, Note_on_c, 9, 45, 95
7, 239400, Note_off_c, 9, 40, 80
7, 239400, Note_off_c, 9, 45, 80
7, 239400, Note_on_c, 9, 40, 95
7, 239400, Note_on_c, 9, 45, 95
7, 239520, Note_off_c, 9, 40, 80
7, 239520, Note_off_c, 9, 45, 80
7, 239520, Note_on_c, 9, 43, 127
7, 239520, Note_on_c, 9, 40, 127
7, 239640, Note_off_c, 9, 43, 80
7, 239640, Note_off_c, 9, 40, 80
7, 239640, Note_on_c, 9, 41, 95
7, 239760, Note_off_c, 9, 41, 80
7, 239760, Note_on_c, 9, 41, 95
7, 239880, Note_off_c, 9, 41, 80
7, 239880, Note_on_c, 9, 41, 95
7, 240000, Note_off_c, 9, 41, 80
7, 240000, Note_on_c, 9, 36, 127
7, 240000, Note_on_c, 9, 57, 127
7, 240240, Note_off_c, 9, 36, 80
7, 240240, Note_off_c, 9, 57, 80
7, 240240, Note_on_c, 9, 36, 95
7, 240480, Note_off_c, 9, 36, 80
7, 240480, Note_on_c, 9, 40, 127
7, 240720, Note_off_c, 9, 40, 80
7, 240840, Note_on_c, 9, 41, 95
7, 240960, Note_off_c, 9, 41, 80
7, 240960, Note_on_c, 9, 36, 127
7, 241200, Note_off_c, 9, 36, 80
7, 241200, Note_on_c, 9, 36, 95
7, 241440, Note_off_c, 9, 36, 80
7, 241440, Note_on_c, 9, 40, 127
7, 241680, Note_off_c, 9, 40, 80
7, 241800, Note_on_c, 9, 40, 95
7, 241920, Note_off_c, 9, 40, 80
7, 241920, Note_on_c, 9, 36, 127
7, 242160, Note_off_c, 9, 36, 80
7, 242160, Note_on_c, 9, 40, 95
7, 242400, Note_off_c, 9, 40, 80
7, 242400, Note_on_c, 9, 40, 127
7, 242640, Note_off_c, 9, 40, 80
7, 242640, Note_on_c, 9, 45, 95
7, 242880, Note_off_c, 9, 45, 80
7, 242880, Note_on_c, 9, 45, 127
7, 243120, Note_off_c, 9, 45, 80
7, 243120, Note_on_c, 9, 41, 95
7, 243360, Note_off_c, 9, 41, 80
7, 243360, Note_on_c, 9, 41, 127
7, 243600, Note_off_c, 9, 41, 80
7, 243840, Note_on_c, 9, 57, 127
7, 245760, Note_off_c, 9, 57, 80
7, 245760, End_track
0, 0, End_of_file
