0, 0, Header, 1, 8, 960
1, 0, Start_track
1, 0, Control_c, 0, 101, 0
1, 0, Control_c, 0, 100, 0
1, 0, Control_c, 0, 6, 12
1, 0, Control_c, 0, 38, 0
1, 0, Control_c, 1, 101, 0
1, 0, Control_c, 1, 100, 0
1, 0, Control_c, 1, 6, 12
1, 0, Control_c, 1, 38, 0
1, 0, Control_c, 2, 101, 0
1, 0, Control_c, 2, 100, 0
1, 0, Control_c, 2, 6, 12
1, 0, Control_c, 2, 38, 0
1, 0, Control_c, 3, 101, 0
1, 0, Control_c, 3, 100, 0
1, 0, Control_c, 3, 6, 12
1, 0, Control_c, 3, 38, 0
1, 0, Control_c, 4, 101, 0
1, 0, Control_c, 4, 100, 0
1, 0, Control_c, 4, 6, 12
1, 0, Control_c, 4, 38, 0
1, 0, Control_c, 5, 101, 0
1, 0, Control_c, 5, 100, 0
1, 0, Control_c, 5, 6, 12
1, 0, Control_c, 5, 38, 0
1, 0, Control_c, 6, 101, 0
1, 0, Control_c, 6, 100, 0
1, 0, Control_c, 6, 6, 12
1, 0, Control_c, 6, 38, 0
1, 0, Control_c, 7, 101, 0
1, 0, Control_c, 7, 100, 0
1, 0, Control_c, 7, 6, 12
1, 0, Control_c, 7, 38, 0
1, 0, Control_c, 8, 101, 0
1, 0, Control_c, 8, 100, 0
1, 0, Control_c, 8, 6, 12
1, 0, Control_c, 8, 38, 0
1, 0, Control_c, 9, 101, 0
1, 0, Control_c, 9, 100, 0
1, 0, Control_c, 9, 6, 12
1, 0, Control_c, 9, 38, 0
1, 0, Control_c, 10, 101, 0
1, 0, Control_c, 10, 100, 0
1, 0, Control_c, 10, 6, 12
1, 0, Control_c, 10, 38, 0
1, 0, Control_c, 11, 101, 0
1, 0, Control_c, 11, 100, 0
1, 0, Control_c, 11, 6, 12
1, 0, Control_c, 11, 38, 0
1, 0, Control_c, 12, 101, 0
1, 0, Control_c, 12, 100, 0
1, 0, Control_c, 12, 6, 12
1, 0, Control_c, 12, 38, 0
1, 0, Control_c, 13, 101, 0
1, 0, Control_c, 13, 100, 0
1, 0, Control_c, 13, 6, 12
1, 0, Control_c, 13, 38, 0
1, 0, Control_c, 14, 101, 0
1, 0, Control_c, 14, 100, 0
1, 0, Control_c, 14, 6, 12
1, 0, Control_c, 14, 38, 0
1, 0, Control_c, 15, 101, 0
1, 0, Control_c, 15, 100, 0
1, 0, Control_c, 15, 6, 12
1, 0, Control_c, 15, 38, 0
1, 0, Time_signature, 4, 2, 24, 8
1, 0, Tempo, 476190
1, 0, End_track
2, 0, Start_track
2, 0, Pitch_bend_c, 11, 8192
2, 0, Control_c, 11, 7, 127
2, 0, Control_c, 11, 10, 63
2, 0, Control_c, 11, 93, 0
2, 0, Control_c, 11, 91, 0
2, 0, Control_c, 11, 95, 0
2, 0, Control_c, 11, 92, 0
2, 0, Control_c, 11, 11, 127
2, 0, Program_c, 11, 66
2, 0, Control_c, 12, 7, 127
2, 0, Control_c, 12, 10, 63
2, 0, Control_c, 12, 93, 0
2, 0, Control_c, 12, 91, 0
2, 0, Control_c, 12, 95, 0
2, 0, Control_c, 12, 92, 0
2, 0, Control_c, 12, 11, 127
2, 0, Program_c, 12, 66
2, 77760, Note_on_c, 11, 52, 95
2, 78240, Note_off_c, 11, 52, 95
2, 78240, Note_on_c, 11, 52, 95
2, 79200, Note_off_c, 11, 52, 95
2, 79200, Note_on_c, 11, 52, 95
2, 80160, Note_off_c, 11, 52, 95
2, 80160, Note_on_c, 11, 52, 95
2, 81120, Note_off_c, 11, 52, 95
2, 81120, Note_on_c, 11, 52, 95
2, 82080, Note_off_c, 11, 52, 95
2, 82080, Note_on_c, 11, 54, 95
2, 83040, Note_off_c, 11, 54, 95
2, 83040, Note_on_c, 11, 52, 95
2, 84480, Note_off_c, 11, 52, 95
2, 85440, Note_on_c, 11, 64, 95
2, 85920, Note_off_c, 11, 64, 95
2, 85920, Note_on_c, 11, 63, 95
2, 86880, Note_off_c, 11, 63, 95
2, 86880, Note_on_c, 11, 59, 95
2, 88320, Note_off_c, 11, 59, 95
2, 88320, Note_on_c, 11, 64, 95
2, 89280, Note_off_c, 11, 64, 95
2, 89280, Note_on_c, 11, 63, 95
2, 89760, Note_off_c, 11, 63, 95
2, 89760, Note_on_c, 11, 61, 95
2, 90720, Note_off_c, 11, 61, 95
2, 90720, Note_on_c, 11, 59, 95
2, 92160, Note_off_c, 11, 59, 95
2, 94080, Note_on_c, 11, 64, 95
2, 95040, Note_off_c, 11, 64, 95
2, 95040, Note_on_c, 11, 64, 95
2, 95520, Note_off_c, 11, 64, 95
2, 95520, Note_on_c, 11, 63, 95
2, 96960, Note_off_c, 11, 63, 95
2, 96960, Note_on_c, 11, 61, 95
2, 97440, Note_off_c, 11, 61, 95
2, 97440, Note_on_c, 11, 59, 95
2, 98400, Note_off_c, 11, 59, 95
2, 98400, Note_on_c, 11, 61, 95
2, 99360, Note_off_c, 11, 61, 95
2, 99360, Note_on_c, 11, 59, 95
2, 103680, Note_off_c, 11, 59, 95
2, 108480, Note_on_c, 11, 52, 95
2, 108960, Note_off_c, 11, 52, 95
2, 108960, Note_on_c, 11, 52, 95
2, 109920, Note_off_c, 11, 52, 95
2, 109920, Note_on_c, 11, 52, 95
2, 111360, Note_off_c, 11, 52, 95
2, 111360, Note_on_c, 11, 52, 95
2, 111840, Note_off_c, 11, 52, 95
2, 111840, Note_on_c, 11, 52, 95
2, 112800, Note_off_c, 11, 52, 95
2, 112800, Note_on_c, 11, 54, 95
2, 113760, Note_off_c, 11, 54, 95
2, 113760, Note_on_c, 11, 52, 95
2, 115200, Note_off_c, 11, 52, 95
2, 116160, Note_on_c, 11, 64, 95
2, 116640, Note_off_c, 11, 64, 95
2, 116640, Note_on_c, 11, 63, 95
2, 117600, Note_off_c, 11, 63, 95
2, 117600, Note_on_c, 11, 59, 95
2, 119040, Note_off_c, 11, 59, 95
2, 119040, Note_on_c, 11, 64, 95
2, 119520, Note_off_c, 11, 64, 95
2, 119520, Note_on_c, 11, 63, 95
2, 120480, Note_off_c, 11, 63, 95
2, 120480, Note_on_c, 11, 61, 95
2, 121440, Note_off_c, 11, 61, 95
2, 121440, Note_on_c, 11, 59, 95
2, 122880, Note_off_c, 11, 59, 95
2, 124800, Note_on_c, 11, 64, 95
2, 125760, Note_off_c, 11, 64, 95
2, 125760, Note_on_c, 11, 64, 95
2, 126240, Note_off_c, 11, 64, 95
2, 126240, Note_on_c, 11, 63, 95
2, 127680, Note_off_c, 11, 63, 95
2, 127680, Note_on_c, 11, 61, 95
2, 128160, Note_off_c, 11, 61, 95
2, 128160, Note_on_c, 11, 59, 95
2, 129120, Note_off_c, 11, 59, 95
2, 129120, Note_on_c, 11, 61, 95
2, 130080, Note_off_c, 11, 61, 95
2, 130080, Note_on_c, 11, 59, 95
2, 134400, Note_off_c, 11, 59, 95
2, 136320, Note_on_c, 11, 56, 95
2, 136800, Note_off_c, 11, 56, 95
2, 136800, Note_on_c, 11, 54, 95
2, 137280, Note_off_c, 11, 54, 95
2, 137280, Note_on_c, 11, 52, 95
2, 137760, Note_off_c, 11, 52, 95
2, 137760, Note_on_c, 11, 52, 95
2, 139200, Note_off_c, 11, 52, 95
2, 140160, Note_on_c, 11, 56, 95
2, 140640, Note_off_c, 11, 56, 95
2, 140640, Note_on_c, 11, 54, 95
2, 141600, Note_off_c, 11, 54, 95
2, 141600, Note_on_c, 11, 52, 95
2, 142080, Note_off_c, 11, 52, 95
2, 142080, Note_on_c, 11, 52, 95
2, 143040, Note_off_c, 11, 52, 95
2, 144000, Note_on_c, 11, 56, 95
2, 144480, Note_off_c, 11, 56, 95
2, 144480, Note_on_c, 11, 54, 95
2, 144960, Note_off_c, 11, 54, 95
2, 144960, Note_on_c, 11, 52, 95
2, 145920, Note_off_c, 11, 52, 95
2, 145920, Note_on_c, 11, 54, 95
2, 146880, Note_off_c, 11, 54, 95
2, 146880, Note_on_c, 11, 56, 95
2, 147360, Note_off_c, 11, 56, 95
2, 147360, Note_on_c, 11, 54, 95
2, 150720, Note_off_c, 11, 54, 95
2, 151680, Note_on_c, 11, 54, 95
2, 152160, Note_off_c, 11, 54, 95
2, 152160, Note_on_c, 11, 56, 95
2, 152640, Note_off_c, 11, 56, 95
2, 152640, Note_on_c, 11, 54, 95
2, 153120, Note_off_c, 11, 54, 95
2, 153120, Note_on_c, 11, 54, 95
2, 153600, Note_off_c, 11, 54, 95
2, 153600, Note_on_c, 11, 52, 95
2, 154560, Note_off_c, 11, 52, 95
2, 155520, Note_on_c, 11, 56, 95
2, 156000, Note_off_c, 11, 56, 95
2, 156000, Note_on_c, 11, 56, 95
2, 156480, Note_off_c, 11, 56, 95
2, 156480, Note_on_c, 11, 56, 95
2, 156960, Note_off_c, 11, 56, 95
2, 156960, Note_on_c, 11, 54, 95
2, 158400, Note_off_c, 11, 54, 95
2, 158400, Note_on_c, 11, 56, 95
2, 158880, Note_off_c, 11, 56, 95
2, 158880, Note_on_c, 11, 56, 95
2, 159840, Note_off_c, 11, 56, 95
2, 159840, Note_on_c, 11, 54, 95
2, 160800, Note_off_c, 11, 54, 95
2, 160800, Note_on_c, 11, 56, 95
2, 161040, Note_off_c, 11, 56, 95
2, 161040, Note_on_c, 11, 54, 95
2, 161280, Note_off_c, 11, 54, 95
2, 161280, Note_on_c, 11, 52, 95
2, 164160, Note_off_c, 11, 52, 95
2, 167040, Note_on_c, 11, 56, 95
2, 167520, Note_off_c, 11, 56, 95
2, 167520, Note_on_c, 11, 54, 95
2, 168000, Note_off_c, 11, 54, 95
2, 168000, Note_on_c, 11, 52, 95
2, 168480, Note_off_c, 11, 52, 95
2, 168480, Note_on_c, 11, 52, 95
2, 169920, Note_off_c, 11, 52, 95
2, 170880, Note_on_c, 11, 56, 95
2, 171360, Note_off_c, 11, 56, 95
2, 171360, Note_on_c, 11, 54, 95
2, 172320, Note_off_c, 11, 54, 95
2, 172320, Note_on_c, 11, 52, 95
2, 172800, Note_off_c, 11, 52, 95
2, 172800, Note_on_c, 11, 52, 95
2, 173760, Note_off_c, 11, 52, 95
2, 174720, Note_on_c, 11, 56, 95
2, 175200, Note_off_c, 11, 56, 95
2, 175200, Note_on_c, 11, 54, 95
2, 175680, Note_off_c, 11, 54, 95
2, 175680, Note_on_c, 11, 52, 95
2, 176640, Note_off_c, 11, 52, 95
2, 176640, Note_on_c, 11, 54, 95
2, 177600, Note_off_c, 11, 54, 95
2, 177600, Note_on_c, 11, 56, 95
2, 178080, Note_off_c, 11, 56, 95
2, 178080, Note_on_c, 11, 54, 95
2, 180960, Note_off_c, 11, 54, 95
2, 180960, Note_on_c, 11, 57, 95
2, 182400, Note_off_c, 11, 57, 95
2, 182400, Note_on_c, 11, 57, 95
2, 182880, Note_off_c, 11, 57, 95
2, 182880, Note_on_c, 11, 56, 95
2, 183360, Note_off_c, 11, 56, 95
2, 183360, Note_on_c, 11, 54, 95
2, 183840, Note_off_c, 11, 54, 95
2, 183840, Note_on_c, 11, 54, 95
2, 184320, Note_off_c, 11, 54, 95
2, 184320, Note_on_c, 11, 52, 95
2, 185280, Note_off_c, 11, 52, 95
2, 186240, Note_on_c, 11, 57, 95
2, 186720, Note_off_c, 11, 57, 95
2, 186720, Note_on_c, 11, 57, 95
2, 187200, Note_off_c, 11, 57, 95
2, 187200, Note_on_c, 11, 57, 95
2, 187680, Note_off_c, 11, 57, 95
2, 187680, Note_on_c, 11, 54, 95
2, 189120, Note_off_c, 11, 54, 95
2, 189120, Note_on_c, 11, 56, 95
2, 189600, Note_off_c, 11, 56, 95
2, 189600, Note_on_c, 11, 56, 95
2, 190560, Note_off_c, 11, 56, 95
2, 190560, Note_on_c, 11, 54, 95
2, 191520, Note_off_c, 11, 54, 95
2, 191520, Note_on_c, 11, 56, 95
2, 191760, Note_off_c, 11, 56, 95
2, 191760, Note_on_c, 11, 54, 95
2, 192000, Note_off_c, 11, 54, 95
2, 192000, Note_on_c, 11, 52, 95
2, 194880, Note_off_c, 11, 52, 95
2, 246720, Note_on_c, 11, 52, 95
2, 247200, Note_off_c, 11, 52, 95
2, 247200, Note_on_c, 11, 52, 95
2, 248160, Note_off_c, 11, 52, 95
2, 248160, Note_on_c, 11, 52, 95
2, 249120, Note_off_c, 11, 52, 95
2, 249120, Note_on_c, 11, 52, 95
2, 250080, Note_off_c, 11, 52, 95
2, 250080, Note_on_c, 11, 52, 95
2, 251040, Note_off_c, 11, 52, 95
2, 251040, Note_on_c, 11, 54, 95
2, 252000, Note_off_c, 11, 54, 95
2, 252000, Note_on_c, 11, 52, 95
2, 253440, Note_off_c, 11, 52, 95
2, 255360, Note_on_c, 11, 63, 95
2, 255840, Note_off_c, 11, 63, 95
2, 255840, Note_on_c, 11, 63, 95
2, 256800, Note_off_c, 11, 63, 95
2, 256800, Note_on_c, 11, 64, 95
2, 257760, Note_off_c, 11, 64, 95
2, 257760, Note_on_c, 11, 63, 95
2, 258720, Note_off_c, 11, 63, 95
2, 258720, Note_on_c, 11, 61, 95
2, 259680, Note_off_c, 11, 61, 95
2, 259680, Note_on_c, 11, 59, 95
2, 261120, Note_off_c, 11, 59, 95
2, 263040, Note_on_c, 11, 64, 95
2, 264000, Note_off_c, 11, 64, 95
2, 264000, Note_on_c, 11, 64, 95
2, 264480, Note_off_c, 11, 64, 95
2, 264480, Note_on_c, 11, 63, 95
2, 265920, Note_off_c, 11, 63, 95
2, 265920, Note_on_c, 11, 61, 95
2, 266400, Note_off_c, 11, 61, 95
2, 266400, Note_on_c, 11, 59, 95
2, 267360, Note_off_c, 11, 59, 95
2, 267360, Note_on_c, 11, 61, 95
2, 268320, Note_off_c, 11, 61, 95
2, 268320, Note_on_c, 11, 59, 95
2, 272640, Note_off_c, 11, 59, 95
2, 277440, Note_on_c, 11, 52, 95
2, 277920, Note_off_c, 11, 52, 95
2, 277920, Note_on_c, 11, 52, 95
2, 278880, Note_off_c, 11, 52, 95
2, 278880, Note_on_c, 11, 52, 95
2, 279840, Note_off_c, 11, 52, 95
2, 279840, Note_on_c, 11, 52, 95
2, 281280, Note_off_c, 11, 52, 95
2, 281280, Note_on_c, 11, 52, 95
2, 281760, Note_off_c, 11, 52, 95
2, 281760, Note_on_c, 11, 54, 95
2, 282720, Note_off_c, 11, 54, 95
2, 282720, Note_on_c, 11, 52, 95
2, 284160, Note_off_c, 11, 52, 95
2, 285120, Note_on_c, 11, 64, 95
2, 285600, Note_off_c, 11, 64, 95
2, 285600, Note_on_c, 11, 63, 95
2, 286560, Note_off_c, 11, 63, 95
2, 286560, Note_on_c, 11, 59, 95
2, 288000, Note_off_c, 11, 59, 95
2, 288000, Note_on_c, 11, 64, 95
2, 288480, Note_off_c, 11, 64, 95
2, 288480, Note_on_c, 11, 63, 95
2, 289440, Note_off_c, 11, 63, 95
2, 289440, Note_on_c, 11, 61, 95
2, 290400, Note_off_c, 11, 61, 95
2, 290400, Note_on_c, 11, 59, 95
2, 291840, Note_off_c, 11, 59, 95
2, 293760, Note_on_c, 11, 64, 95
2, 294720, Note_off_c, 11, 64, 95
2, 294720, Note_on_c, 11, 64, 95
2, 295200, Note_off_c, 11, 64, 95
2, 295200, Note_on_c, 11, 63, 95
2, 296640, Note_off_c, 11, 63, 95
2, 296640, Note_on_c, 11, 61, 95
2, 297120, Note_off_c, 11, 61, 95
2, 297120, Note_on_c, 11, 61, 95
2, 298080, Note_off_c, 11, 61, 95
2, 298080, Note_on_c, 11, 63, 95
2, 299040, Note_off_c, 11, 63, 95
2, 299040, Note_on_c, 11, 61, 95
2, 300960, Note_off_c, 11, 61, 95
2, 300960, Note_on_c, 11, 63, 95
2, 301200, Note_off_c, 11, 63, 95
2, 301200, Note_on_c, 11, 61, 95
2, 301440, Note_off_c, 11, 61, 95
2, 301440, Note_on_c, 11, 59, 95
2, 302880, Note_off_c, 11, 59, 95
2, 305280, Note_on_c, 11, 56, 95
2, 305760, Note_off_c, 11, 56, 95
2, 305760, Note_on_c, 11, 54, 95
2, 306240, Note_off_c, 11, 54, 95
2, 306240, Note_on_c, 11, 52, 95
2, 306720, Note_off_c, 11, 52, 95
2, 306720, Note_on_c, 11, 52, 95
2, 308160, Note_off_c, 11, 52, 95
2, 309120, Note_on_c, 11, 56, 95
2, 309600, Note_off_c, 11, 56, 95
2, 309600, Note_on_c, 11, 54, 95
2, 310560, Note_off_c, 11, 54, 95
2, 310560, Note_on_c, 11, 52, 95
2, 311040, Note_off_c, 11, 52, 95
2, 311040, Note_on_c, 11, 52, 95
2, 312000, Note_off_c, 11, 52, 95
2, 312960, Note_on_c, 11, 56, 95
2, 313440, Note_off_c, 11, 56, 95
2, 313440, Note_on_c, 11, 54, 95
2, 313920, Note_off_c, 11, 54, 95
2, 313920, Note_on_c, 11, 52, 95
2, 314880, Note_off_c, 11, 52, 95
2, 314880, Note_on_c, 11, 54, 95
2, 315840, Note_off_c, 11, 54, 95
2, 315840, Note_on_c, 11, 56, 95
2, 316320, Note_off_c, 11, 56, 95
2, 316320, Note_on_c, 11, 54, 95
2, 319680, Note_off_c, 11, 54, 95
2, 320640, Note_on_c, 11, 54, 95
2, 321120, Note_off_c, 11, 54, 95
2, 321120, Note_on_c, 11, 56, 95
2, 321600, Note_off_c, 11, 56, 95
2, 321600, Note_on_c, 11, 54, 95
2, 322080, Note_off_c, 11, 54, 95
2, 322080, Note_on_c, 11, 54, 95
2, 322560, Note_off_c, 11, 54, 95
2, 322560, Note_on_c, 11, 52, 95
2, 323520, Note_off_c, 11, 52, 95
2, 324480, Note_on_c, 11, 56, 95
2, 324960, Note_off_c, 11, 56, 95
2, 324960, Note_on_c, 11, 56, 95
2, 325440, Note_off_c, 11, 56, 95
2, 325440, Note_on_c, 11, 56, 95
2, 325920, Note_off_c, 11, 56, 95
2, 325920, Note_on_c, 11, 54, 95
2, 327360, Note_off_c, 11, 54, 95
2, 327360, Note_on_c, 11, 56, 95
2, 327840, Note_off_c, 11, 56, 95
2, 327840, Note_on_c, 11, 56, 95
2, 328800, Note_off_c, 11, 56, 95
2, 328800, Note_on_c, 11, 54, 95
2, 329760, Note_off_c, 11, 54, 95
2, 329760, Note_on_c, 11, 56, 95
2, 330000, Note_off_c, 11, 56, 95
2, 330000, Note_on_c, 11, 54, 95
2, 330240, Note_off_c, 11, 54, 95
2, 330240, Note_on_c, 11, 52, 95
2, 333120, Note_off_c, 11, 52, 95
2, 336000, Note_on_c, 11, 56, 95
2, 336480, Note_off_c, 11, 56, 95
2, 336480, Note_on_c, 11, 54, 95
2, 336960, Note_off_c, 11, 54, 95
2, 336960, Note_on_c, 11, 52, 95
2, 337440, Note_off_c, 11, 52, 95
2, 337440, Note_on_c, 11, 52, 95
2, 338880, Note_off_c, 11, 52, 95
2, 339840, Note_on_c, 11, 56, 95
2, 340320, Note_off_c, 11, 56, 95
2, 340320, Note_on_c, 11, 54, 95
2, 341280, Note_off_c, 11, 54, 95
2, 341280, Note_on_c, 11, 52, 95
2, 341760, Note_off_c, 11, 52, 95
2, 341760, Note_on_c, 11, 52, 95
2, 342720, Note_off_c, 11, 52, 95
2, 343680, Note_on_c, 11, 56, 95
2, 344160, Note_off_c, 11, 56, 95
2, 344160, Note_on_c, 11, 54, 95
2, 344640, Note_off_c, 11, 54, 95
2, 344640, Note_on_c, 11, 52, 95
2, 345600, Note_off_c, 11, 52, 95
2, 345600, Note_on_c, 11, 54, 95
2, 346560, Note_off_c, 11, 54, 95
2, 346560, Note_on_c, 11, 56, 95
2, 347040, Note_off_c, 11, 56, 95
2, 347040, Note_on_c, 11, 54, 95
2, 349920, Note_off_c, 11, 54, 95
2, 349920, Note_on_c, 11, 57, 95
2, 351360, Note_off_c, 11, 57, 95
2, 351360, Note_on_c, 11, 57, 95
2, 351840, Note_off_c, 11, 57, 95
2, 351840, Note_on_c, 11, 56, 95
2, 352320, Note_off_c, 11, 56, 95
2, 352320, Note_on_c, 11, 54, 95
2, 352800, Note_off_c, 11, 54, 95
2, 352800, Note_on_c, 11, 54, 95
2, 353280, Note_off_c, 11, 54, 95
2, 353280, Note_on_c, 11, 52, 95
2, 354240, Note_off_c, 11, 52, 95
2, 355200, Note_on_c, 11, 57, 95
2, 355680, Note_off_c, 11, 57, 95
2, 355680, Note_on_c, 11, 57, 95
2, 356160, Note_off_c, 11, 57, 95
2, 356160, Note_on_c, 11, 57, 95
2, 356640, Note_off_c, 11, 57, 95
2, 356640, Note_on_c, 11, 54, 95
2, 358080, Note_off_c, 11, 54, 95
2, 358080, Note_on_c, 11, 56, 95
2, 358560, Note_off_c, 11, 56, 95
2, 358560, Note_on_c, 11, 56, 95
2, 359520, Note_off_c, 11, 56, 95
2, 359520, Note_on_c, 11, 54, 95
2, 360480, Note_off_c, 11, 54, 95
2, 360480, Note_on_c, 11, 56, 95
2, 360720, Note_off_c, 11, 56, 95
2, 360720, Note_on_c, 11, 54, 95
2, 360960, Note_off_c, 11, 54, 95
2, 360960, Note_on_c, 11, 52, 95
2, 363840, Note_off_c, 11, 52, 95
2, 373440, Note_on_c, 11, 64, 95
2, 374400, Note_off_c, 11, 64, 95
2, 374400, Note_on_c, 11, 64, 95
2, 374880, Note_off_c, 11, 64, 95
2, 374880, Note_on_c, 11, 64, 95
2, 375360, Note_off_c, 11, 64, 95
2, 375360, Note_on_c, 11, 64, 95
2, 376320, Note_off_c, 11, 64, 95
2, 376320, Note_on_c, 11, 63, 95
2, 377280, Note_off_c, 11, 63, 95
2, 377280, Note_on_c, 11, 61, 95
2, 377760, Note_off_c, 11, 61, 95
2, 377760, Note_on_c, 11, 59, 95
2, 380640, Note_off_c, 11, 59, 95
2, 380640, Note_on_c, 11, 64, 95
2, 382080, Note_off_c, 11, 64, 95
2, 382080, Note_on_c, 11, 64, 95
2, 382560, Note_off_c, 11, 64, 95
2, 382560, Note_on_c, 11, 63, 95
2, 383040, Note_off_c, 11, 63, 95
2, 383040, Note_on_c, 11, 61, 95
2, 383520, Note_off_c, 11, 61, 95
2, 383520, Note_on_c, 11, 61, 95
2, 385920, Note_off_c, 11, 61, 95
2, 385920, Note_on_c, 11, 61, 95
2, 386400, Note_off_c, 11, 61, 95
2, 386400, Note_on_c, 11, 61, 95
2, 386880, Note_off_c, 11, 61, 95
2, 386880, Note_on_c, 11, 61, 95
2, 387360, Note_off_c, 11, 61, 95
2, 387360, Note_on_c, 11, 59, 95
2, 388800, Note_off_c, 11, 59, 95
2, 388800, Note_on_c, 11, 64, 95
2, 389280, Note_off_c, 11, 64, 95
2, 389280, Note_on_c, 11, 63, 95
2, 390240, Note_off_c, 11, 63, 95
2, 390240, Note_on_c, 11, 61, 95
2, 391680, Note_off_c, 11, 61, 95
2, 391680, Note_on_c, 11, 61, 95
2, 393120, Note_off_c, 11, 61, 95
2, 393120, Note_on_c, 11, 63, 95
2, 393360, Note_off_c, 11, 63, 95
2, 393360, Note_on_c, 11, 61, 95
2, 393600, Note_off_c, 11, 61, 95
2, 393600, Note_on_c, 11, 59, 95
2, 396480, Note_off_c, 11, 59, 95
2, 397440, Note_on_c, 11, 56, 95
2, 397920, Note_off_c, 11, 56, 95
2, 397920, Note_on_c, 11, 54, 95
2, 398400, Note_off_c, 11, 54, 95
2, 398400, Note_on_c, 11, 52, 95
2, 398880, Note_off_c, 11, 52, 95
2, 398880, Note_on_c, 11, 52, 95
2, 403200, Note_off_c, 11, 52, 95
2, 404160, Note_on_c, 11, 64, 95
2, 405120, Note_off_c, 11, 64, 95
2, 405120, Note_on_c, 11, 64, 95
2, 405600, Note_off_c, 11, 64, 95
2, 405600, Note_on_c, 11, 64, 95
2, 406080, Note_off_c, 11, 64, 95
2, 406080, Note_on_c, 11, 64, 95
2, 407040, Note_off_c, 11, 64, 95
2, 407040, Note_on_c, 11, 63, 95
2, 408000, Note_off_c, 11, 63, 95
2, 408000, Note_on_c, 11, 61, 95
2, 408480, Note_off_c, 11, 61, 95
2, 408480, Note_on_c, 11, 59, 95
2, 411360, Note_off_c, 11, 59, 95
2, 411360, Note_on_c, 11, 64, 95
2, 412800, Note_off_c, 11, 64, 95
2, 412800, Note_on_c, 11, 64, 95
2, 413280, Note_off_c, 11, 64, 95
2, 413280, Note_on_c, 11, 63, 95
2, 413760, Note_off_c, 11, 63, 95
2, 413760, Note_on_c, 11, 61, 95
2, 414240, Note_off_c, 11, 61, 95
2, 414240, Note_on_c, 11, 61, 95
2, 416640, Note_off_c, 11, 61, 95
2, 416640, Note_on_c, 11, 61, 95
2, 417120, Note_off_c, 11, 61, 95
2, 417120, Note_on_c, 11, 61, 95
2, 417600, Note_off_c, 11, 61, 95
2, 417600, Note_on_c, 11, 61, 95
2, 418080, Note_off_c, 11, 61, 95
2, 418080, Note_on_c, 11, 59, 95
2, 419520, Note_off_c, 11, 59, 95
2, 419520, Note_on_c, 11, 64, 95
2, 420000, Note_off_c, 11, 64, 95
2, 420000, Note_on_c, 11, 63, 95
2, 420960, Note_off_c, 11, 63, 95
2, 420960, Note_on_c, 11, 61, 95
2, 422400, Note_off_c, 11, 61, 95
2, 422400, Note_on_c, 11, 61, 95
2, 423840, Note_off_c, 11, 61, 95
2, 423840, Note_on_c, 11, 63, 95
2, 424080, Note_off_c, 11, 63, 95
2, 424080, Note_on_c, 11, 61, 95
2, 424320, Note_off_c, 11, 61, 95
2, 424320, Note_on_c, 11, 59, 95
2, 427200, Note_off_c, 11, 59, 95
2, 428160, Note_on_c, 11, 56, 95
2, 428640, Note_off_c, 11, 56, 95
2, 428640, Note_on_c, 11, 54, 95
2, 429120, Note_off_c, 11, 54, 95
2, 429120, Note_on_c, 11, 52, 95
2, 429600, Note_off_c, 11, 52, 95
2, 429600, Note_on_c, 11, 52, 95
2, 433920, Note_off_c, 11, 52, 95
2, 434880, Note_on_c, 11, 64, 95
2, 435840, Note_off_c, 11, 64, 95
2, 435840, Note_on_c, 11, 64, 95
2, 436320, Note_off_c, 11, 64, 95
2, 436320, Note_on_c, 11, 64, 95
2, 436800, Note_off_c, 11, 64, 95
2, 436800, Note_on_c, 11, 64, 95
2, 437760, Note_off_c, 11, 64, 95
2, 437760, Note_on_c, 11, 63, 95
2, 438720, Note_off_c, 11, 63, 95
2, 438720, Note_on_c, 11, 61, 95
2, 439200, Note_off_c, 11, 61, 95
2, 439200, Note_on_c, 11, 59, 95
2, 442080, Note_off_c, 11, 59, 95
2, 442080, Note_on_c, 11, 64, 95
2, 443520, Note_off_c, 11, 64, 95
2, 443520, Note_on_c, 11, 64, 95
2, 444000, Note_off_c, 11, 64, 95
2, 444000, Note_on_c, 11, 63, 95
2, 444480, Note_off_c, 11, 63, 95
2, 444480, Note_on_c, 11, 61, 95
2, 444960, Note_off_c, 11, 61, 95
2, 444960, Note_on_c, 11, 61, 95
2, 447360, Note_off_c, 11, 61, 95
2, 447360, Note_on_c, 11, 61, 95
2, 447840, Note_off_c, 11, 61, 95
2, 447840, Note_on_c, 11, 61, 95
2, 448320, Note_off_c, 11, 61, 95
2, 448320, Note_on_c, 11, 61, 95
2, 448800, Note_off_c, 11, 61, 95
2, 448800, Note_on_c, 11, 59, 95
2, 450240, Note_off_c, 11, 59, 95
2, 450240, Note_on_c, 11, 64, 95
2, 450720, Note_off_c, 11, 64, 95
2, 450720, Note_on_c, 11, 63, 95
2, 451680, Note_off_c, 11, 63, 95
2, 451680, Note_on_c, 11, 61, 95
2, 453120, Note_off_c, 11, 61, 95
2, 453120, Note_on_c, 11, 61, 95
2, 454560, Note_off_c, 11, 61, 95
2, 454560, Note_on_c, 11, 63, 95
2, 454800, Note_off_c, 11, 63, 95
2, 454800, Note_on_c, 11, 61, 95
2, 455040, Note_off_c, 11, 61, 95
2, 455040, Note_on_c, 11, 59, 95
2, 457920, Note_off_c, 11, 59, 95
2, 458880, Note_on_c, 11, 56, 95
2, 459360, Note_off_c, 11, 56, 95
2, 459360, Note_on_c, 11, 54, 95
2, 459840, Note_off_c, 11, 54, 95
2, 459840, Note_on_c, 11, 52, 95
2, 460320, Note_off_c, 11, 52, 95
2, 460320, Note_on_c, 11, 52, 95
2, 465600, Note_off_c, 11, 52, 95
2, 465600, Note_on_c, 11, 52, 95
2, 466080, Note_off_c, 11, 52, 95
2, 466080, Note_on_c, 11, 49, 95
2, 466560, Note_off_c, 11, 49, 95
2, 466560, Note_on_c, 11, 52, 95
2, 467520, Note_off_c, 11, 52, 95
2, 467520, Note_on_c, 11, 49, 95
2, 468480, Note_off_c, 11, 49, 95
2, 468480, Note_on_c, 11, 49, 95
2, 468960, Note_off_c, 11, 49, 95
2, 468960, Note_on_c, 11, 47, 95
2, 472320, Note_off_c, 11, 47, 95
2, 474240, Note_on_c, 11, 51, 95
2, 474720, Note_off_c, 11, 51, 95
2, 474720, Note_on_c, 11, 49, 95
2, 475200, Note_off_c, 11, 49, 95
2, 475200, Note_on_c, 11, 47, 95
2, 475680, Note_off_c, 11, 47, 95
2, 475680, Note_on_c, 11, 47, 95
2, 478080, Note_off_c, 11, 47, 95
2, 478080, Note_on_c, 11, 57, 95
2, 478560, Note_off_c, 11, 57, 95
2, 478560, Note_on_c, 11, 57, 95
2, 479040, Note_off_c, 11, 57, 95
2, 479040, Note_on_c, 11, 57, 95
2, 479520, Note_off_c, 11, 57, 95
2, 479520, Note_on_c, 11, 57, 95
2, 480000, Note_off_c, 11, 57, 95
2, 480000, Note_on_c, 11, 54, 95
2, 480960, Note_off_c, 11, 54, 95
2, 480960, Note_on_c, 11, 57, 95
2, 481440, Note_off_c, 11, 57, 95
2, 481440, Note_on_c, 11, 57, 95
2, 481920, Note_off_c, 11, 57, 95
2, 481920, Note_on_c, 11, 56, 95
2, 482400, Note_off_c, 11, 56, 95
2, 482400, Note_on_c, 11, 54, 95
2, 483360, Note_off_c, 11, 54, 95
2, 483360, Note_on_c, 11, 56, 95
2, 483600, Note_off_c, 11, 56, 95
2, 483600, Note_on_c, 11, 54, 95
2, 483840, Note_off_c, 11, 54, 95
2, 483840, Note_on_c, 11, 52, 95
2, 487680, Note_off_c, 11, 52, 95
2, 489120, Note_on_c, 11, 56, 95
2, 489600, Note_off_c, 11, 56, 95
2, 489600, Note_on_c, 11, 56, 95
2, 490080, Note_off_c, 11, 56, 95
2, 490080, Note_on_c, 11, 54, 95
2, 490560, Note_off_c, 11, 54, 95
2, 490560, Note_on_c, 11, 52, 95
2, 491040, Note_off_c, 11, 52, 95
2, 491040, Note_on_c, 11, 52, 95
2, 495360, Note_off_c, 11, 52, 95
2, 496320, Note_on_c, 11, 64, 95
2, 497280, Note_off_c, 11, 64, 95
2, 497280, Note_on_c, 11, 64, 95
2, 497760, Note_off_c, 11, 64, 95
2, 497760, Note_on_c, 11, 64, 95
2, 498240, Note_off_c, 11, 64, 95
2, 498240, Note_on_c, 11, 64, 95
2, 499200, Note_off_c, 11, 64, 95
2, 499200, Note_on_c, 11, 63, 95
2, 500160, Note_off_c, 11, 63, 95
2, 500160, Note_on_c, 11, 61, 95
2, 500640, Note_off_c, 11, 61, 95
2, 500640, Note_on_c, 11, 59, 95
2, 503520, Note_off_c, 11, 59, 95
2, 503520, Note_on_c, 11, 64, 95
2, 504960, Note_off_c, 11, 64, 95
2, 504960, Note_on_c, 11, 64, 95
2, 505440, Note_off_c, 11, 64, 95
2, 505440, Note_on_c, 11, 63, 95
2, 505920, Note_off_c, 11, 63, 95
2, 505920, Note_on_c, 11, 61, 95
2, 506400, Note_off_c, 11, 61, 95
2, 506400, Note_on_c, 11, 61, 95
2, 508800, Note_off_c, 11, 61, 95
2, 508800, Note_on_c, 11, 61, 95
2, 509280, Note_off_c, 11, 61, 95
2, 509280, Note_on_c, 11, 61, 95
2, 509760, Note_off_c, 11, 61, 95
2, 509760, Note_on_c, 11, 61, 95
2, 510240, Note_off_c, 11, 61, 95
2, 510240, Note_on_c, 11, 59, 95
2, 511680, Note_off_c, 11, 59, 95
2, 511680, Note_on_c, 11, 64, 95
2, 512160, Note_off_c, 11, 64, 95
2, 512160, Note_on_c, 11, 63, 95
2, 513120, Note_off_c, 11, 63, 95
2, 513120, Note_on_c, 11, 61, 95
2, 514560, Note_off_c, 11, 61, 95
2, 514560, Note_on_c, 11, 61, 95
2, 516000, Note_off_c, 11, 61, 95
2, 516000, Note_on_c, 11, 63, 95
2, 516240, Note_off_c, 11, 63, 95
2, 516240, Note_on_c, 11, 61, 95
2, 516480, Note_off_c, 11, 61, 95
2, 516480, Note_on_c, 11, 59, 95
2, 519360, Note_off_c, 11, 59, 95
2, 551040, Note_on_c, 11, 56, 95
2, 551520, Note_off_c, 11, 56, 95
2, 551520, Note_on_c, 11, 54, 95
2, 552000, Note_off_c, 11, 54, 95
2, 552000, Note_on_c, 11, 52, 95
2, 552480, Note_off_c, 11, 52, 95
2, 552480, Note_on_c, 11, 52, 95
2, 556800, Note_off_c, 11, 52, 95
2, 557760, Note_on_c, 11, 64, 95
2, 558720, Note_off_c, 11, 64, 95
2, 558720, Note_on_c, 11, 64, 95
2, 559680, Note_off_c, 11, 64, 95
2, 559680, Note_on_c, 11, 64, 95
2, 560640, Note_off_c, 11, 64, 95
2, 560640, Note_on_c, 11, 63, 95
2, 561600, Note_off_c, 11, 63, 95
2, 561600, Note_on_c, 11, 61, 95
2, 562080, Note_off_c, 11, 61, 95
2, 562080, Note_on_c, 11, 59, 95
2, 564960, Note_off_c, 11, 59, 95
2, 564960, Note_on_c, 11, 64, 95
2, 566400, Note_off_c, 11, 64, 95
2, 566400, Note_on_c, 11, 64, 95
2, 566880, Note_off_c, 11, 64, 95
2, 566880, Note_on_c, 11, 63, 95
2, 567360, Note_off_c, 11, 63, 95
2, 567360, Note_on_c, 11, 61, 95
2, 567840, Note_off_c, 11, 61, 95
2, 567840, Note_on_c, 11, 61, 95
2, 570240, Note_off_c, 11, 61, 95
2, 570240, Note_on_c, 11, 61, 95
2, 570720, Note_off_c, 11, 61, 95
2, 570720, Note_on_c, 11, 61, 95
2, 571200, Note_off_c, 11, 61, 95
2, 571200, Note_on_c, 11, 61, 95
2, 571680, Note_off_c, 11, 61, 95
2, 571680, Note_on_c, 11, 59, 95
2, 573120, Note_off_c, 11, 59, 95
2, 573120, Note_on_c, 11, 64, 95
2, 573600, Note_off_c, 11, 64, 95
2, 573600, Note_on_c, 11, 63, 95
2, 574560, Note_off_c, 11, 63, 95
2, 574560, Note_on_c, 11, 61, 95
2, 576000, Note_off_c, 11, 61, 95
2, 576000, Note_on_c, 11, 61, 95
2, 577440, Note_off_c, 11, 61, 95
2, 577440, Note_on_c, 11, 63, 95
2, 577680, Note_off_c, 11, 63, 95
2, 577680, Note_on_c, 11, 61, 95
2, 577920, Note_off_c, 11, 61, 95
2, 577920, Note_on_c, 11, 59, 95
2, 580800, Note_off_c, 11, 59, 95
2, 581760, Note_on_c, 11, 56, 95
2, 582240, Note_off_c, 11, 56, 95
2, 582240, Note_on_c, 11, 54, 95
2, 582720, Note_off_c, 11, 54, 95
2, 582720, Note_on_c, 11, 52, 95
2, 583200, Note_off_c, 11, 52, 95
2, 583200, Note_on_c, 11, 52, 95
2, 587520, Note_off_c, 11, 52, 95
2, 588480, Note_on_c, 11, 64, 95
2, 589440, Note_off_c, 11, 64, 95
2, 589440, Note_on_c, 11, 64, 95
2, 589920, Note_off_c, 11, 64, 95
2, 589920, Note_on_c, 11, 64, 95
2, 590400, Note_off_c, 11, 64, 95
2, 590400, Note_on_c, 11, 64, 95
2, 591360, Note_off_c, 11, 64, 95
2, 591360, Note_on_c, 11, 63, 95
2, 592320, Note_off_c, 11, 63, 95
2, 592320, Note_on_c, 11, 61, 95
2, 592800, Note_off_c, 11, 61, 95
2, 592800, Note_on_c, 11, 59, 95
2, 595680, Note_off_c, 11, 59, 95
2, 595680, Note_on_c, 11, 64, 95
2, 597120, Note_off_c, 11, 64, 95
2, 597120, Note_on_c, 11, 64, 95
2, 597600, Note_off_c, 11, 64, 95
2, 597600, Note_on_c, 11, 63, 95
2, 598080, Note_off_c, 11, 63, 95
2, 598080, Note_on_c, 11, 61, 95
2, 598560, Note_off_c, 11, 61, 95
2, 598560, Note_on_c, 11, 61, 95
2, 600960, Note_off_c, 11, 61, 95
2, 600960, Note_on_c, 11, 61, 95
2, 601440, Note_off_c, 11, 61, 95
2, 601440, Note_on_c, 11, 61, 95
2, 601920, Note_off_c, 11, 61, 95
2, 601920, Note_on_c, 11, 61, 95
2, 602400, Note_off_c, 11, 61, 95
2, 602400, Note_on_c, 11, 59, 95
2, 603840, Note_off_c, 11, 59, 95
2, 603840, Note_on_c, 11, 64, 95
2, 604320, Note_off_c, 11, 64, 95
2, 604320, Note_on_c, 11, 63, 95
2, 605280, Note_off_c, 11, 63, 95
2, 605280, Note_on_c, 11, 61, 95
2, 606720, Note_off_c, 11, 61, 95
2, 606720, Note_on_c, 11, 61, 95
2, 608160, Note_off_c, 11, 61, 95
2, 608160, Note_on_c, 11, 63, 95
2, 608400, Note_off_c, 11, 63, 95
2, 608400, Note_on_c, 11, 61, 95
2, 608640, Note_off_c, 11, 61, 95
2, 608640, Note_on_c, 11, 59, 95
2, 611520, Note_off_c, 11, 59, 95
2, 612480, Note_on_c, 11, 56, 95
2, 612960, Note_off_c, 11, 56, 95
2, 612960, Note_on_c, 11, 54, 95
2, 613440, Note_off_c, 11, 54, 95
2, 613440, Note_on_c, 11, 52, 95
2, 613920, Note_off_c, 11, 52, 95
2, 613920, Note_on_c, 11, 52, 95
2, 618240, Note_off_c, 11, 52, 95
2, 619200, Note_on_c, 11, 64, 95
2, 620160, Note_off_c, 11, 64, 95
2, 620160, Note_on_c, 11, 64, 95
2, 620640, Note_off_c, 11, 64, 95
2, 620640, Note_on_c, 11, 64, 95
2, 621120, Note_off_c, 11, 64, 95
2, 621120, Note_on_c, 11, 64, 95
2, 622080, Note_off_c, 11, 64, 95
2, 622080, End_track
3, 0, Start_track
3, 0, Pitch_bend_c, 0, 8192
3, 0, Control_c, 0, 7, 95
3, 0, Control_c, 0, 10, 63
3, 0, Control_c, 0, 93, 0
3, 0, Control_c, 0, 91, 0
3, 0, Control_c, 0, 95, 0
3, 0, Control_c, 0, 92, 0
3, 0, Control_c, 0, 11, 127
3, 0, Program_c, 0, 29
3, 0, Control_c, 1, 7, 95
3, 0, Control_c, 1, 10, 63
3, 0, Control_c, 1, 93, 0
3, 0, Control_c, 1, 91, 0
3, 0, Control_c, 1, 95, 0
3, 0, Control_c, 1, 92, 0
3, 0, Control_c, 1, 11, 127
3, 0, Program_c, 1, 29
3, 960, Note_on_c, 0, 59, 95
3, 1440, Note_on_c, 0, 64, 95
3, 1920, Note_off_c, 0, 59, 95
3, 1920, Note_on_c, 0, 59, 95
3, 2400, Note_off_c, 0, 59, 95
3, 2400, Note_on_c, 0, 57, 95
3, 2880, Note_off_c, 0, 64, 95
3, 2880, Note_on_c, 0, 64, 95
3, 3360, Note_on_c, 0, 56, 95
3, 3840, Note_off_c, 0, 64, 95
3, 3840, Note_on_c, 0, 64, 95
3, 4320, Note_off_c, 0, 57, 95
3, 4320, Note_on_c, 0, 57, 95
3, 4800, Note_off_c, 0, 64, 95
3, 4800, Note_on_c, 0, 64, 95
3, 5280, Note_off_c, 0, 56, 95
3, 5280, Note_on_c, 0, 56, 95
3, 5760, Note_off_c, 0, 64, 95
3, 5760, Note_on_c, 0, 64, 95
3, 6240, Note_off_c, 0, 57, 95
3, 6240, Note_on_c, 0, 57, 95
3, 6720, Note_off_c, 0, 56, 95
3, 6720, Note_on_c, 0, 56, 95
3, 7200, Note_off_c, 0, 56, 95
3, 7200, Note_on_c, 0, 52, 95
3, 7680, Note_off_c, 0, 52, 95
3, 7680, Note_on_c, 0, 52, 95
3, 8640, Note_off_c, 0, 57, 95
3, 8640, Note_on_c, 0, 59, 95
3, 9120, Note_off_c, 0, 64, 95
3, 9120, Note_on_c, 0, 64, 95
3, 9600, Note_off_c, 0, 59, 95
3, 9600, Note_on_c, 0, 59, 95
3, 10080, Note_off_c, 0, 59, 95
3, 10080, Note_on_c, 0, 57, 95
3, 10560, Note_off_c, 0, 64, 95
3, 10560, Note_on_c, 0, 64, 95
3, 11040, Note_off_c, 0, 52, 95
3, 11040, Note_on_c, 0, 56, 95
3, 11520, Note_off_c, 0, 64, 95
3, 11520, Note_on_c, 0, 64, 95
3, 12000, Note_off_c, 0, 57, 95
3, 12000, Note_on_c, 0, 57, 95
3, 12480, Note_off_c, 0, 64, 95
3, 12480, Note_on_c, 0, 64, 95
3, 12960, Note_off_c, 0, 56, 95
3, 12960, Note_on_c, 0, 56, 95
3, 13440, Note_off_c, 0, 64, 95
3, 13440, Note_on_c, 0, 64, 95
3, 13920, Note_off_c, 0, 57, 95
3, 13920, Note_on_c, 0, 57, 95
3, 14400, Note_off_c, 0, 56, 95
3, 14400, Note_on_c, 0, 56, 95
3, 14880, Note_off_c, 0, 56, 95
3, 14880, Note_on_c, 0, 52, 95
3, 15360, Note_off_c, 0, 52, 95
3, 15360, Note_on_c, 0, 52, 95
3, 30720, Note_off_c, 0, 64, 95
3, 30720, Note_off_c, 0, 57, 95
3, 30720, Note_off_c, 0, 52, 95
3, 218880, Note_on_c, 0, 54, 95
3, 219120, Note_off_c, 0, 54, 95
3, 219120, Note_on_c, 0, 56, 95
3, 219360, Note_off_c, 0, 56, 95
3, 219360, Note_on_c, 0, 57, 95
3, 219840, Note_off_c, 0, 57, 95
3, 219840, Note_on_c, 0, 57, 95
3, 220320, Note_off_c, 0, 57, 95
3, 220320, Note_on_c, 0, 56, 95
3, 220800, Note_off_c, 0, 56, 95
3, 220800, Note_on_c, 0, 57, 95
3, 221280, Note_off_c, 0, 57, 95
3, 221280, Note_on_c, 0, 56, 95
3, 221760, Note_off_c, 0, 56, 95
3, 221760, Note_on_c, 0, 54, 95
3, 222240, Note_off_c, 0, 54, 95
3, 222240, Note_on_c, 0, 52, 95
3, 222720, Note_off_c, 0, 52, 95
3, 222720, Note_on_c, 0, 54, 95
3, 226560, Note_off_c, 0, 54, 95
3, 230400, Note_on_c, 0, 45, 95
3, 231360, Note_off_c, 0, 45, 95
3, 231360, Note_on_c, 0, 64, 95
3, 231840, Note_off_c, 0, 64, 95
3, 231840, Note_on_c, 0, 57, 95
3, 232320, Note_off_c, 0, 57, 95
3, 232320, Note_on_c, 0, 66, 95
3, 232800, Note_off_c, 0, 66, 95
3, 232800, Note_on_c, 0, 64, 95
3, 233280, Note_off_c, 0, 64, 95
3, 233280, Note_on_c, 0, 57, 95
3, 233760, Note_off_c, 0, 57, 95
3, 233760, Note_on_c, 0, 47, 95
3, 234720, Note_off_c, 0, 47, 95
3, 234720, Note_on_c, 0, 64, 95
3, 235200, Note_off_c, 0, 64, 95
3, 235200, Note_on_c, 0, 59, 95
3, 235680, Note_off_c, 0, 59, 95
3, 235680, Note_on_c, 0, 68, 95
3, 236640, Note_off_c, 0, 68, 95
3, 236640, Note_on_c, 0, 66, 95
3, 237120, Note_off_c, 0, 66, 95
3, 237120, Note_on_c, 0, 64, 95
3, 237600, Note_off_c, 0, 64, 95
3, 237600, Note_on_c, 0, 63, 95
3, 238080, Note_off_c, 0, 63, 95
3, 238080, Note_on_c, 0, 68, 95
3, 238080, Note_on_c, 0, 64, 95
3, 238080, Note_on_c, 0, 59, 95
3, 238080, Note_on_c, 0, 52, 95
3, 241920, Note_off_c, 0, 68, 95
3, 241920, Note_off_c, 0, 64, 95
3, 241920, Note_off_c, 0, 59, 95
3, 241920, Note_off_c, 0, 52, 95
3, 242400, Note_on_c, 0, 52, 95
3, 242880, Note_off_c, 0, 52, 95
3, 242880, Note_on_c, 0, 56, 95
3, 243360, Note_off_c, 0, 56, 95
3, 243360, Note_on_c, 0, 57, 95
3, 243840, Note_off_c, 0, 57, 95
3, 243840, Note_on_c, 0, 57, 95
3, 244320, Note_off_c, 0, 57, 95
3, 244320, Note_on_c, 0, 57, 95
3, 244800, Note_off_c, 0, 57, 95
3, 244800, Note_on_c, 0, 56, 95
3, 245280, Note_off_c, 0, 56, 95
3, 245280, Note_on_c, 0, 52, 95
3, 245760, Note_off_c, 0, 52, 95
3, 365280, Note_on_c, 0, 68, 95
3, 365280, Note_on_c, 0, 64, 95
3, 365280, Note_on_c, 0, 59, 95
3, 365280, Note_on_c, 0, 52, 95
3, 365520, Note_off_c, 0, 68, 95
3, 365520, Note_off_c, 0, 64, 95
3, 365520, Note_off_c, 0, 59, 95
3, 365520, Note_off_c, 0, 52, 95
3, 365520, Note_on_c, 0, 68, 95
3, 365520, Note_on_c, 0, 64, 95
3, 365520, Note_on_c, 0, 59, 95
3, 365520, Note_on_c, 0, 52, 95
3, 365760, Note_off_c, 0, 68, 95
3, 365760, Note_off_c, 0, 64, 95
3, 365760, Note_off_c, 0, 59, 95
3, 365760, Note_off_c, 0, 52, 95
3, 365760, Note_on_c, 0, 68, 95
3, 365760, Note_on_c, 0, 64, 95
3, 365760, Note_on_c, 0, 59, 95
3, 365760, Note_on_c, 0, 52, 95
3, 366240, Note_off_c, 0, 68, 95
3, 366240, Note_off_c, 0, 64, 95
3, 366240, Note_off_c, 0, 59, 95
3, 366240, Note_off_c, 0, 52, 95
3, 366240, Note_on_c, 0, 68, 95
3, 366240, Note_on_c, 0, 64, 95
3, 366240, Note_on_c, 0, 59, 95
3, 366240, Note_on_c, 0, 52, 95
3, 366720, Note_off_c, 0, 68, 95
3, 366720, Note_off_c, 0, 64, 95
3, 366720, Note_off_c, 0, 59, 95
3, 366720, Note_off_c, 0, 52, 95
3, 366720, Note_on_c, 0, 68, 95
3, 366720, Note_on_c, 0, 64, 95
3, 366720, Note_on_c, 0, 59, 95
3, 366720, Note_on_c, 0, 52, 95
3, 367200, Note_off_c, 0, 68, 95
3, 367200, Note_off_c, 0, 64, 95
3, 367200, Note_off_c, 0, 59, 95
3, 367200, Note_off_c, 0, 52, 95
3, 367200, Note_on_c, 0, 68, 95
3, 367200, Note_on_c, 0, 64, 95
3, 367200, Note_on_c, 0, 59, 95
3, 367200, Note_on_c, 0, 52, 95
3, 367440, Note_off_c, 0, 68, 95
3, 367440, Note_off_c, 0, 64, 95
3, 367440, Note_off_c, 0, 59, 95
3, 367440, Note_off_c, 0, 52, 95
3, 367440, Note_on_c, 0, 68, 95
3, 367440, Note_on_c, 0, 64, 95
3, 367440, Note_on_c, 0, 59, 95
3, 367440, Note_on_c, 0, 52, 95
3, 367680, Note_off_c, 0, 68, 95
3, 367680, Note_off_c, 0, 64, 95
3, 367680, Note_off_c, 0, 59, 95
3, 367680, Note_off_c, 0, 52, 95
3, 367680, Note_on_c, 0, 68, 95
3, 367680, Note_on_c, 0, 64, 95
3, 367680, Note_on_c, 0, 59, 95
3, 367680, Note_on_c, 0, 52, 95
3, 367920, Note_off_c, 0, 68, 95
3, 367920, Note_off_c, 0, 64, 95
3, 367920, Note_off_c, 0, 59, 95
3, 367920, Note_off_c, 0, 52, 95
3, 367920, Note_on_c, 0, 68, 95
3, 367920, Note_on_c, 0, 64, 95
3, 367920, Note_on_c, 0, 59, 95
3, 367920, Note_on_c, 0, 52, 95
3, 368160, Note_off_c, 0, 68, 95
3, 368160, Note_off_c, 0, 64, 95
3, 368160, Note_off_c, 0, 59, 95
3, 368160, Note_off_c, 0, 52, 95
3, 368160, Note_on_c, 0, 68, 95
3, 368160, Note_on_c, 0, 64, 95
3, 368160, Note_on_c, 0, 59, 95
3, 368160, Note_on_c, 0, 52, 95
3, 368400, Note_off_c, 0, 68, 95
3, 368400, Note_off_c, 0, 64, 95
3, 368400, Note_off_c, 0, 59, 95
3, 368400, Note_off_c, 0, 52, 95
3, 368400, Note_on_c, 0, 68, 95
3, 368400, Note_on_c, 0, 64, 95
3, 368400, Note_on_c, 0, 59, 95
3, 368400, Note_on_c, 0, 52, 95
3, 368640, Note_off_c, 0, 68, 95
3, 368640, Note_off_c, 0, 64, 95
3, 368640, Note_off_c, 0, 59, 95
3, 368640, Note_off_c, 0, 52, 95
3, 368640, Note_on_c, 0, 52, 95
3, 369120, Note_off_c, 0, 52, 95
3, 369120, Note_on_c, 0, 59, 95
3, 369600, Note_off_c, 0, 59, 95
3, 369600, Note_on_c, 0, 64, 95
3, 370080, Note_off_c, 0, 64, 95
3, 370080, Note_on_c, 0, 59, 95
3, 370560, Note_off_c, 0, 59, 95
3, 370560, Note_on_c, 0, 52, 95
3, 371040, Note_off_c, 0, 52, 95
3, 371040, Note_on_c, 0, 59, 95
3, 371520, Note_off_c, 0, 59, 95
3, 371520, Note_on_c, 0, 64, 95
3, 372000, Note_off_c, 0, 64, 95
3, 372000, Note_on_c, 0, 57, 95
3, 372480, Note_off_c, 0, 57, 95
3, 372480, Note_on_c, 0, 52, 95
3, 372960, Note_off_c, 0, 52, 95
3, 372960, Note_on_c, 0, 59, 95
3, 373440, Note_off_c, 0, 59, 95
3, 373440, Note_on_c, 0, 64, 95
3, 373920, Note_off_c, 0, 64, 95
3, 373920, Note_on_c, 0, 59, 95
3, 374400, Note_off_c, 0, 59, 95
3, 374400, Note_on_c, 0, 52, 95
3, 374880, Note_off_c, 0, 52, 95
3, 374880, Note_on_c, 0, 59, 95
3, 375360, Note_off_c, 0, 59, 95
3, 375360, Note_on_c, 0, 64, 95
3, 375840, Note_off_c, 0, 64, 95
3, 375840, Note_on_c, 0, 57, 95
3, 376320, Note_off_c, 0, 57, 95
3, 376320, Note_on_c, 0, 54, 95
3, 376800, Note_off_c, 0, 54, 95
3, 376800, Note_on_c, 0, 59, 95
3, 377280, Note_off_c, 0, 59, 95
3, 377280, Note_on_c, 0, 63, 95
3, 377760, Note_off_c, 0, 63, 95
3, 377760, Note_on_c, 0, 59, 95
3, 378240, Note_off_c, 0, 59, 95
3, 378240, Note_on_c, 0, 54, 95
3, 378720, Note_off_c, 0, 54, 95
3, 378720, Note_on_c, 0, 59, 95
3, 379200, Note_off_c, 0, 59, 95
3, 379200, Note_on_c, 0, 64, 95
3, 379680, Note_off_c, 0, 64, 95
3, 379680, Note_on_c, 0, 59, 95
3, 380160, Note_off_c, 0, 59, 95
3, 380160, Note_on_c, 0, 54, 95
3, 380640, Note_off_c, 0, 54, 95
3, 380640, Note_on_c, 0, 59, 95
3, 381120, Note_off_c, 0, 59, 95
3, 381120, Note_on_c, 0, 64, 95
3, 381600, Note_off_c, 0, 64, 95
3, 381600, Note_on_c, 0, 59, 95
3, 382080, Note_off_c, 0, 59, 95
3, 382080, Note_on_c, 0, 64, 95
3, 382560, Note_off_c, 0, 64, 95
3, 382560, Note_on_c, 0, 63, 95
3, 383040, Note_off_c, 0, 63, 95
3, 383040, Note_on_c, 0, 61, 95
3, 383520, Note_off_c, 0, 61, 95
3, 383520, Note_on_c, 0, 59, 95
3, 384000, Note_off_c, 0, 59, 95
3, 384000, Note_on_c, 0, 52, 95
3, 384480, Note_off_c, 0, 52, 95
3, 384480, Note_on_c, 0, 57, 95
3, 384960, Note_off_c, 0, 57, 95
3, 384960, Note_on_c, 0, 61, 95
3, 385440, Note_off_c, 0, 61, 95
3, 385440, Note_on_c, 0, 57, 95
3, 385920, Note_off_c, 0, 57, 95
3, 385920, Note_on_c, 0, 52, 95
3, 386400, Note_off_c, 0, 52, 95
3, 386400, Note_on_c, 0, 57, 95
3, 386880, Note_off_c, 0, 57, 95
3, 386880, Note_on_c, 0, 61, 95
3, 387360, Note_off_c, 0, 61, 95
3, 387360, Note_on_c, 0, 47, 95
3, 388320, Note_off_c, 0, 47, 95
3, 388320, Note_on_c, 0, 57, 95
3, 388800, Note_off_c, 0, 57, 95
3, 388800, Note_on_c, 0, 61, 95
3, 389280, Note_off_c, 0, 61, 95
3, 389280, Note_on_c, 0, 57, 95
3, 389760, Note_off_c, 0, 57, 95
3, 389760, Note_on_c, 0, 63, 95
3, 390240, Note_off_c, 0, 63, 95
3, 390240, Note_on_c, 0, 61, 95
3, 390720, Note_off_c, 0, 61, 95
3, 390720, Note_on_c, 0, 59, 95
3, 391200, Note_off_c, 0, 59, 95
3, 391200, Note_on_c, 0, 57, 95
3, 391680, Note_off_c, 0, 57, 95
3, 391680, Note_on_c, 0, 52, 95
3, 392160, Note_off_c, 0, 52, 95
3, 392160, Note_on_c, 0, 59, 95
3, 392640, Note_off_c, 0, 59, 95
3, 392640, Note_on_c, 0, 64, 95
3, 393120, Note_off_c, 0, 64, 95
3, 393120, Note_on_c, 0, 59, 95
3, 393600, Note_off_c, 0, 59, 95
3, 393600, Note_on_c, 0, 52, 95
3, 394080, Note_off_c, 0, 52, 95
3, 394080, Note_on_c, 0, 59, 95
3, 394560, Note_off_c, 0, 59, 95
3, 394560, Note_on_c, 0, 64, 95
3, 395040, Note_off_c, 0, 64, 95
3, 395040, Note_on_c, 0, 52, 95
3, 396000, Note_off_c, 0, 52, 95
3, 396000, Note_on_c, 0, 59, 95
3, 396480, Note_off_c, 0, 59, 95
3, 396480, Note_on_c, 0, 64, 95
3, 396960, Note_off_c, 0, 64, 95
3, 396960, Note_on_c, 0, 59, 95
3, 397440, Note_off_c, 0, 59, 95
3, 397440, Note_on_c, 0, 52, 95
3, 397920, Note_off_c, 0, 52, 95
3, 397920, Note_on_c, 0, 59, 95
3, 398400, Note_off_c, 0, 59, 95
3, 398400, Note_on_c, 0, 64, 95
3, 398880, Note_off_c, 0, 64, 95
3, 398880, Note_on_c, 0, 52, 95
3, 399840, Note_off_c, 0, 52, 95
3, 399840, Note_on_c, 0, 59, 95
3, 400320, Note_off_c, 0, 59, 95
3, 400320, Note_on_c, 0, 64, 95
3, 400800, Note_off_c, 0, 64, 95
3, 400800, Note_on_c, 0, 59, 95
3, 401280, Note_off_c, 0, 59, 95
3, 401280, Note_on_c, 0, 52, 95
3, 401760, Note_off_c, 0, 52, 95
3, 401760, Note_on_c, 0, 59, 95
3, 402240, Note_off_c, 0, 59, 95
3, 402240, Note_on_c, 0, 64, 95
3, 402720, Note_off_c, 0, 64, 95
3, 402720, Note_on_c, 0, 57, 95
3, 403200, Note_off_c, 0, 57, 95
3, 403200, Note_on_c, 0, 52, 95
3, 403680, Note_off_c, 0, 52, 95
3, 403680, Note_on_c, 0, 59, 95
3, 404160, Note_off_c, 0, 59, 95
3, 404160, Note_on_c, 0, 64, 95
3, 404640, Note_off_c, 0, 64, 95
3, 404640, Note_on_c, 0, 59, 95
3, 405120, Note_off_c, 0, 59, 95
3, 405120, Note_on_c, 0, 52, 95
3, 405600, Note_off_c, 0, 52, 95
3, 405600, Note_on_c, 0, 59, 95
3, 406080, Note_off_c, 0, 59, 95
3, 406080, Note_on_c, 0, 64, 95
3, 406560, Note_off_c, 0, 64, 95
3, 406560, Note_on_c, 0, 57, 95
3, 407040, Note_off_c, 0, 57, 95
3, 407040, Note_on_c, 0, 54, 95
3, 407520, Note_off_c, 0, 54, 95
3, 407520, Note_on_c, 0, 59, 95
3, 408000, Note_off_c, 0, 59, 95
3, 408000, Note_on_c, 0, 63, 95
3, 408480, Note_off_c, 0, 63, 95
3, 408480, Note_on_c, 0, 59, 95
3, 408960, Note_off_c, 0, 59, 95
3, 408960, Note_on_c, 0, 54, 95
3, 409440, Note_off_c, 0, 54, 95
3, 409440, Note_on_c, 0, 59, 95
3, 409920, Note_off_c, 0, 59, 95
3, 409920, Note_on_c, 0, 64, 95
3, 410400, Note_off_c, 0, 64, 95
3, 410400, Note_on_c, 0, 59, 95
3, 410880, Note_off_c, 0, 59, 95
3, 410880, Note_on_c, 0, 54, 95
3, 411360, Note_off_c, 0, 54, 95
3, 411360, Note_on_c, 0, 59, 95
3, 411840, Note_off_c, 0, 59, 95
3, 411840, Note_on_c, 0, 64, 95
3, 412320, Note_off_c, 0, 64, 95
3, 412320, Note_on_c, 0, 59, 95
3, 412800, Note_off_c, 0, 59, 95
3, 412800, Note_on_c, 0, 64, 95
3, 413280, Note_off_c, 0, 64, 95
3, 413280, Note_on_c, 0, 63, 95
3, 413760, Note_off_c, 0, 63, 95
3, 413760, Note_on_c, 0, 61, 95
3, 414240, Note_off_c, 0, 61, 95
3, 414240, Note_on_c, 0, 59, 95
3, 414720, Note_off_c, 0, 59, 95
3, 414720, Note_on_c, 0, 52, 95
3, 415200, Note_off_c, 0, 52, 95
3, 415200, Note_on_c, 0, 57, 95
3, 415680, Note_off_c, 0, 57, 95
3, 415680, Note_on_c, 0, 61, 95
3, 416160, Note_off_c, 0, 61, 95
3, 416160, Note_on_c, 0, 57, 95
3, 416640, Note_off_c, 0, 57, 95
3, 416640, Note_on_c, 0, 52, 95
3, 417120, Note_off_c, 0, 52, 95
3, 417120, Note_on_c, 0, 57, 95
3, 417600, Note_off_c, 0, 57, 95
3, 417600, Note_on_c, 0, 61, 95
3, 418080, Note_off_c, 0, 61, 95
3, 418080, Note_on_c, 0, 47, 95
3, 419040, Note_off_c, 0, 47, 95
3, 419040, Note_on_c, 0, 57, 95
3, 419520, Note_off_c, 0, 57, 95
3, 419520, Note_on_c, 0, 61, 95
3, 420000, Note_off_c, 0, 61, 95
3, 420000, Note_on_c, 0, 57, 95
3, 420480, Note_off_c, 0, 57, 95
3, 420480, Note_on_c, 0, 63, 95
3, 420960, Note_off_c, 0, 63, 95
3, 420960, Note_on_c, 0, 61, 95
3, 421440, Note_off_c, 0, 61, 95
3, 421440, Note_on_c, 0, 59, 95
3, 421920, Note_off_c, 0, 59, 95
3, 421920, Note_on_c, 0, 57, 95
3, 422400, Note_off_c, 0, 57, 95
3, 422400, Note_on_c, 0, 52, 95
3, 422880, Note_off_c, 0, 52, 95
3, 422880, Note_on_c, 0, 59, 95
3, 423360, Note_off_c, 0, 59, 95
3, 423360, Note_on_c, 0, 64, 95
3, 423840, Note_off_c, 0, 64, 95
3, 423840, Note_on_c, 0, 59, 95
3, 424320, Note_off_c, 0, 59, 95
3, 424320, Note_on_c, 0, 52, 95
3, 424800, Note_off_c, 0, 52, 95
3, 424800, Note_on_c, 0, 59, 95
3, 425280, Note_off_c, 0, 59, 95
3, 425280, Note_on_c, 0, 64, 95
3, 425760, Note_off_c, 0, 64, 95
3, 425760, Note_on_c, 0, 52, 95
3, 426720, Note_off_c, 0, 52, 95
3, 426720, Note_on_c, 0, 59, 95
3, 427200, Note_off_c, 0, 59, 95
3, 427200, Note_on_c, 0, 64, 95
3, 427680, Note_off_c, 0, 64, 95
3, 427680, Note_on_c, 0, 59, 95
3, 428160, Note_off_c, 0, 59, 95
3, 428160, Note_on_c, 0, 52, 95
3, 428640, Note_off_c, 0, 52, 95
3, 428640, Note_on_c, 0, 59, 95
3, 429120, Note_off_c, 0, 59, 95
3, 429120, Note_on_c, 0, 64, 95
3, 429600, Note_off_c, 0, 64, 95
3, 429600, Note_on_c, 0, 52, 95
3, 430560, Note_off_c, 0, 52, 95
3, 430560, Note_on_c, 0, 59, 95
3, 431040, Note_off_c, 0, 59, 95
3, 431040, Note_on_c, 0, 64, 95
3, 431520, Note_off_c, 0, 64, 95
3, 431520, Note_on_c, 0, 59, 95
3, 432000, Note_off_c, 0, 59, 95
3, 432000, Note_on_c, 0, 52, 95
3, 432480, Note_off_c, 0, 52, 95
3, 432480, Note_on_c, 0, 59, 95
3, 432960, Note_off_c, 0, 59, 95
3, 432960, Note_on_c, 0, 64, 95
3, 433440, Note_off_c, 0, 64, 95
3, 433440, Note_on_c, 0, 57, 95
3, 433920, Note_off_c, 0, 57, 95
3, 433920, Note_on_c, 0, 52, 95
3, 434400, Note_off_c, 0, 52, 95
3, 434400, Note_on_c, 0, 59, 95
3, 434880, Note_off_c, 0, 59, 95
3, 434880, Note_on_c, 0, 64, 95
3, 435360, Note_off_c, 0, 64, 95
3, 435360, Note_on_c, 0, 59, 95
3, 435840, Note_off_c, 0, 59, 95
3, 435840, Note_on_c, 0, 52, 95
3, 436320, Note_off_c, 0, 52, 95
3, 436320, Note_on_c, 0, 59, 95
3, 436800, Note_off_c, 0, 59, 95
3, 436800, Note_on_c, 0, 64, 95
3, 437280, Note_off_c, 0, 64, 95
3, 437280, Note_on_c, 0, 57, 95
3, 437760, Note_off_c, 0, 57, 95
3, 437760, Note_on_c, 0, 54, 95
3, 438240, Note_off_c, 0, 54, 95
3, 438240, Note_on_c, 0, 59, 95
3, 438720, Note_off_c, 0, 59, 95
3, 438720, Note_on_c, 0, 63, 95
3, 439200, Note_off_c, 0, 63, 95
3, 439200, Note_on_c, 0, 59, 95
3, 439680, Note_off_c, 0, 59, 95
3, 439680, Note_on_c, 0, 54, 95
3, 440160, Note_off_c, 0, 54, 95
3, 440160, Note_on_c, 0, 59, 95
3, 440640, Note_off_c, 0, 59, 95
3, 440640, Note_on_c, 0, 64, 95
3, 441120, Note_off_c, 0, 64, 95
3, 441120, Note_on_c, 0, 59, 95
3, 441600, Note_off_c, 0, 59, 95
3, 441600, Note_on_c, 0, 54, 95
3, 442080, Note_off_c, 0, 54, 95
3, 442080, Note_on_c, 0, 59, 95
3, 442560, Note_off_c, 0, 59, 95
3, 442560, Note_on_c, 0, 64, 95
3, 443040, Note_off_c, 0, 64, 95
3, 443040, Note_on_c, 0, 59, 95
3, 443520, Note_off_c, 0, 59, 95
3, 443520, Note_on_c, 0, 64, 95
3, 444000, Note_off_c, 0, 64, 95
3, 444000, Note_on_c, 0, 63, 95
3, 444480, Note_off_c, 0, 63, 95
3, 444480, Note_on_c, 0, 61, 95
3, 444960, Note_off_c, 0, 61, 95
3, 444960, Note_on_c, 0, 59, 95
3, 445440, Note_off_c, 0, 59, 95
3, 445440, Note_on_c, 0, 52, 95
3, 445920, Note_off_c, 0, 52, 95
3, 445920, Note_on_c, 0, 57, 95
3, 446400, Note_off_c, 0, 57, 95
3, 446400, Note_on_c, 0, 61, 95
3, 446880, Note_off_c, 0, 61, 95
3, 446880, Note_on_c, 0, 57, 95
3, 447360, Note_off_c, 0, 57, 95
3, 447360, Note_on_c, 0, 52, 95
3, 447840, Note_off_c, 0, 52, 95
3, 447840, Note_on_c, 0, 57, 95
3, 448320, Note_off_c, 0, 57, 95
3, 448320, Note_on_c, 0, 61, 95
3, 448800, Note_off_c, 0, 61, 95
3, 448800, Note_on_c, 0, 47, 95
3, 449760, Note_off_c, 0, 47, 95
3, 449760, Note_on_c, 0, 57, 95
3, 450240, Note_off_c, 0, 57, 95
3, 450240, Note_on_c, 0, 61, 95
3, 450720, Note_off_c, 0, 61, 95
3, 450720, Note_on_c, 0, 57, 95
3, 451200, Note_off_c, 0, 57, 95
3, 451200, Note_on_c, 0, 63, 95
3, 451680, Note_off_c, 0, 63, 95
3, 451680, Note_on_c, 0, 61, 95
3, 452160, Note_off_c, 0, 61, 95
3, 452160, Note_on_c, 0, 59, 95
3, 452640, Note_off_c, 0, 59, 95
3, 452640, Note_on_c, 0, 57, 95
3, 453120, Note_off_c, 0, 57, 95
3, 453120, Note_on_c, 0, 52, 95
3, 453600, Note_off_c, 0, 52, 95
3, 453600, Note_on_c, 0, 59, 95
3, 454080, Note_off_c, 0, 59, 95
3, 454080, Note_on_c, 0, 64, 95
3, 454560, Note_off_c, 0, 64, 95
3, 454560, Note_on_c, 0, 59, 95
3, 455040, Note_off_c, 0, 59, 95
3, 455040, Note_on_c, 0, 52, 95
3, 455520, Note_off_c, 0, 52, 95
3, 455520, Note_on_c, 0, 59, 95
3, 456000, Note_off_c, 0, 59, 95
3, 456000, Note_on_c, 0, 64, 95
3, 456480, Note_off_c, 0, 64, 95
3, 456480, Note_on_c, 0, 52, 95
3, 457440, Note_off_c, 0, 52, 95
3, 457440, Note_on_c, 0, 59, 95
3, 457920, Note_off_c, 0, 59, 95
3, 457920, Note_on_c, 0, 64, 95
3, 458400, Note_off_c, 0, 64, 95
3, 458400, Note_on_c, 0, 59, 95
3, 458880, Note_off_c, 0, 59, 95
3, 458880, Note_on_c, 0, 52, 95
3, 459360, Note_off_c, 0, 52, 95
3, 459360, Note_on_c, 0, 59, 95
3, 459840, Note_off_c, 0, 59, 95
3, 459840, Note_on_c, 0, 64, 95
3, 460320, Note_off_c, 0, 64, 95
3, 460320, Note_on_c, 0, 59, 95
3, 460800, Note_off_c, 0, 59, 95
3, 460800, Note_on_c, 0, 52, 95
3, 461280, Note_off_c, 0, 52, 95
3, 461280, Note_on_c, 0, 57, 95
3, 461760, Note_off_c, 0, 57, 95
3, 461760, Note_on_c, 0, 61, 95
3, 462240, Note_off_c, 0, 61, 95
3, 462240, Note_on_c, 0, 57, 95
3, 462720, Note_off_c, 0, 57, 95
3, 462720, Note_on_c, 0, 52, 95
3, 463200, Note_off_c, 0, 52, 95
3, 463200, Note_on_c, 0, 57, 95
3, 463680, Note_off_c, 0, 57, 95
3, 463680, Note_on_c, 0, 61, 95
3, 464160, Note_off_c, 0, 61, 95
3, 464160, Note_on_c, 0, 57, 95
3, 464640, Note_off_c, 0, 57, 95
3, 464640, Note_on_c, 0, 52, 95
3, 465120, Note_off_c, 0, 52, 95
3, 465120, Note_on_c, 0, 57, 95
3, 465600, Note_off_c, 0, 57, 95
3, 465600, Note_on_c, 0, 61, 95
3, 466080, Note_off_c, 0, 61, 95
3, 466080, Note_on_c, 0, 57, 95
3, 466560, Note_off_c, 0, 57, 95
3, 466560, Note_on_c, 0, 52, 95
3, 467040, Note_off_c, 0, 52, 95
3, 467040, Note_on_c, 0, 57, 95
3, 467520, Note_off_c, 0, 57, 95
3, 467520, Note_on_c, 0, 61, 95
3, 468000, Note_off_c, 0, 61, 95
3, 468000, Note_on_c, 0, 57, 95
3, 468480, Note_off_c, 0, 57, 95
3, 468480, Note_on_c, 0, 59, 95
3, 468960, Note_off_c, 0, 59, 95
3, 468960, Note_on_c, 0, 64, 95
3, 469440, Note_off_c, 0, 64, 95
3, 469440, Note_on_c, 0, 68, 95
3, 469920, Note_off_c, 0, 68, 95
3, 469920, Note_on_c, 0, 64, 95
3, 470400, Note_off_c, 0, 64, 95
3, 470400, Note_on_c, 0, 59, 95
3, 470880, Note_off_c, 0, 59, 95
3, 470880, Note_on_c, 0, 64, 95
3, 471360, Note_off_c, 0, 64, 95
3, 471360, Note_on_c, 0, 68, 95
3, 471840, Note_off_c, 0, 68, 95
3, 471840, Note_on_c, 0, 64, 95
3, 472320, Note_off_c, 0, 64, 95
3, 472320, Note_on_c, 0, 59, 95
3, 472800, Note_off_c, 0, 59, 95
3, 472800, Note_on_c, 0, 64, 95
3, 473280, Note_off_c, 0, 64, 95
3, 473280, Note_on_c, 0, 68, 95
3, 473760, Note_off_c, 0, 68, 95
3, 473760, Note_on_c, 0, 64, 95
3, 474240, Note_off_c, 0, 64, 95
3, 474240, Note_on_c, 0, 59, 95
3, 474720, Note_off_c, 0, 59, 95
3, 474720, Note_on_c, 0, 64, 95
3, 475200, Note_off_c, 0, 64, 95
3, 475200, Note_on_c, 0, 68, 95
3, 475680, Note_off_c, 0, 68, 95
3, 475680, Note_on_c, 0, 64, 95
3, 476160, Note_off_c, 0, 64, 95
3, 476160, Note_on_c, 0, 54, 95
3, 476640, Note_off_c, 0, 54, 95
3, 476640, Note_on_c, 0, 59, 95
3, 477120, Note_off_c, 0, 59, 95
3, 477120, Note_on_c, 0, 63, 95
3, 477600, Note_off_c, 0, 63, 95
3, 477600, Note_on_c, 0, 59, 95
3, 478080, Note_off_c, 0, 59, 95
3, 478080, Note_on_c, 0, 54, 95
3, 478560, Note_off_c, 0, 54, 95
3, 478560, Note_on_c, 0, 59, 95
3, 479040, Note_off_c, 0, 59, 95
3, 479040, Note_on_c, 0, 63, 95
3, 479520, Note_off_c, 0, 63, 95
3, 479520, Note_on_c, 0, 59, 95
3, 480000, Note_off_c, 0, 59, 95
3, 480000, Note_on_c, 0, 54, 95
3, 480480, Note_off_c, 0, 54, 95
3, 480480, Note_on_c, 0, 59, 95
3, 480960, Note_off_c, 0, 59, 95
3, 480960, Note_on_c, 0, 63, 95
3, 481440, Note_off_c, 0, 63, 95
3, 481440, Note_on_c, 0, 59, 95
3, 481920, Note_off_c, 0, 59, 95
3, 481920, Note_on_c, 0, 54, 95
3, 482400, Note_off_c, 0, 54, 95
3, 482400, Note_on_c, 0, 59, 95
3, 482880, Note_off_c, 0, 59, 95
3, 482880, Note_on_c, 0, 63, 95
3, 483360, Note_off_c, 0, 63, 95
3, 483360, Note_on_c, 0, 59, 95
3, 483840, Note_off_c, 0, 59, 95
3, 483840, Note_on_c, 0, 59, 95
3, 484320, Note_off_c, 0, 59, 95
3, 484320, Note_on_c, 0, 64, 95
3, 484800, Note_off_c, 0, 64, 95
3, 484800, Note_on_c, 0, 68, 95
3, 485280, Note_off_c, 0, 68, 95
3, 485280, Note_on_c, 0, 64, 95
3, 485760, Note_off_c, 0, 64, 95
3, 485760, Note_on_c, 0, 59, 95
3, 486240, Note_off_c, 0, 59, 95
3, 486240, Note_on_c, 0, 64, 95
3, 486720, Note_off_c, 0, 64, 95
3, 486720, Note_on_c, 0, 68, 95
3, 487200, Note_off_c, 0, 68, 95
3, 487200, Note_on_c, 0, 64, 95
3, 487680, Note_off_c, 0, 64, 95
3, 488160, Note_on_c, 0, 68, 95
3, 488160, Note_on_c, 0, 64, 95
3, 488160, Note_on_c, 0, 59, 95
3, 488880, Note_off_c, 0, 68, 95
3, 488880, Note_off_c, 0, 64, 95
3, 488880, Note_off_c, 0, 59, 95
3, 488880, Note_on_c, 0, 68, 95
3, 488880, Note_on_c, 0, 64, 95
3, 488880, Note_on_c, 0, 59, 95
3, 489360, Note_off_c, 0, 68, 95
3, 489360, Note_off_c, 0, 64, 95
3, 489360, Note_off_c, 0, 59, 95
3, 489360, Note_on_c, 0, 68, 95
3, 489360, Note_on_c, 0, 64, 95
3, 489360, Note_on_c, 0, 59, 95
3, 489600, Note_off_c, 0, 68, 95
3, 489600, Note_off_c, 0, 64, 95
3, 489600, Note_off_c, 0, 59, 95
3, 489600, Note_on_c, 0, 68, 95
3, 489600, Note_on_c, 0, 64, 95
3, 489600, Note_on_c, 0, 59, 95
3, 490080, Note_off_c, 0, 68, 95
3, 490080, Note_off_c, 0, 64, 95
3, 490080, Note_off_c, 0, 59, 95
3, 490080, Note_on_c, 0, 68, 95
3, 490080, Note_on_c, 0, 64, 95
3, 490080, Note_on_c, 0, 59, 95
3, 490320, Note_off_c, 0, 68, 95
3, 490320, Note_off_c, 0, 64, 95
3, 490320, Note_off_c, 0, 59, 95
3, 490320, Note_on_c, 0, 68, 95
3, 490320, Note_on_c, 0, 64, 95
3, 490320, Note_on_c, 0, 59, 95
3, 490560, Note_off_c, 0, 68, 95
3, 490560, Note_off_c, 0, 64, 95
3, 490560, Note_off_c, 0, 59, 95
3, 490560, Note_on_c, 0, 68, 95
3, 490560, Note_on_c, 0, 64, 95
3, 490560, Note_on_c, 0, 59, 95
3, 490800, Note_off_c, 0, 68, 95
3, 490800, Note_off_c, 0, 64, 95
3, 490800, Note_off_c, 0, 59, 95
3, 490800, Note_on_c, 0, 68, 95
3, 490800, Note_on_c, 0, 64, 95
3, 490800, Note_on_c, 0, 59, 95
3, 491040, Note_off_c, 0, 68, 95
3, 491040, Note_off_c, 0, 64, 95
3, 491040, Note_off_c, 0, 59, 95
3, 491040, Note_on_c, 0, 68, 95
3, 491040, Note_on_c, 0, 64, 95
3, 491040, Note_on_c, 0, 59, 95
3, 491280, Note_off_c, 0, 68, 95
3, 491280, Note_off_c, 0, 64, 95
3, 491280, Note_off_c, 0, 59, 95
3, 491280, Note_on_c, 0, 68, 95
3, 491280, Note_on_c, 0, 64, 95
3, 491280, Note_on_c, 0, 59, 95
3, 491520, Note_off_c, 0, 68, 95
3, 491520, Note_off_c, 0, 64, 95
3, 491520, Note_off_c, 0, 59, 95
3, 492000, Note_on_c, 0, 59, 95
3, 492480, Note_off_c, 0, 59, 95
3, 492480, Note_on_c, 0, 64, 95
3, 492960, Note_off_c, 0, 64, 95
3, 492960, Note_on_c, 0, 59, 95
3, 493440, Note_off_c, 0, 59, 95
3, 493440, Note_on_c, 0, 52, 95
3, 493920, Note_off_c, 0, 52, 95
3, 493920, Note_on_c, 0, 59, 95
3, 494400, Note_off_c, 0, 59, 95
3, 494400, Note_on_c, 0, 64, 95
3, 494880, Note_off_c, 0, 64, 95
3, 494880, Note_on_c, 0, 57, 95
3, 495360, Note_off_c, 0, 57, 95
3, 495360, Note_on_c, 0, 52, 95
3, 495840, Note_off_c, 0, 52, 95
3, 495840, Note_on_c, 0, 59, 95
3, 496320, Note_off_c, 0, 59, 95
3, 496320, Note_on_c, 0, 64, 95
3, 496800, Note_off_c, 0, 64, 95
3, 496800, Note_on_c, 0, 59, 95
3, 497280, Note_off_c, 0, 59, 95
3, 497280, Note_on_c, 0, 52, 95
3, 497760, Note_off_c, 0, 52, 95
3, 497760, Note_on_c, 0, 59, 95
3, 498240, Note_off_c, 0, 59, 95
3, 498240, Note_on_c, 0, 64, 95
3, 498720, Note_off_c, 0, 64, 95
3, 498720, Note_on_c, 0, 57, 95
3, 499200, Note_off_c, 0, 57, 95
3, 499200, Note_on_c, 0, 54, 95
3, 499680, Note_off_c, 0, 54, 95
3, 499680, Note_on_c, 0, 59, 95
3, 500160, Note_off_c, 0, 59, 95
3, 500160, Note_on_c, 0, 63, 95
3, 500640, Note_off_c, 0, 63, 95
3, 500640, Note_on_c, 0, 59, 95
3, 501120, Note_off_c, 0, 59, 95
3, 501120, Note_on_c, 0, 54, 95
3, 501600, Note_off_c, 0, 54, 95
3, 501600, Note_on_c, 0, 59, 95
3, 502080, Note_off_c, 0, 59, 95
3, 502080, Note_on_c, 0, 64, 95
3, 502560, Note_off_c, 0, 64, 95
3, 502560, Note_on_c, 0, 59, 95
3, 503040, Note_off_c, 0, 59, 95
3, 503040, Note_on_c, 0, 54, 95
3, 503520, Note_off_c, 0, 54, 95
3, 503520, Note_on_c, 0, 59, 95
3, 504000, Note_off_c, 0, 59, 95
3, 504000, Note_on_c, 0, 64, 95
3, 504480, Note_off_c, 0, 64, 95
3, 504480, Note_on_c, 0, 59, 95
3, 504960, Note_off_c, 0, 59, 95
3, 504960, Note_on_c, 0, 64, 95
3, 505440, Note_off_c, 0, 64, 95
3, 505440, Note_on_c, 0, 63, 95
3, 505920, Note_off_c, 0, 63, 95
3, 505920, Note_on_c, 0, 61, 95
3, 506400, Note_off_c, 0, 61, 95
3, 506400, Note_on_c, 0, 59, 95
3, 506880, Note_off_c, 0, 59, 95
3, 506880, Note_on_c, 0, 52, 95
3, 507360, Note_off_c, 0, 52, 95
3, 507360, Note_on_c, 0, 57, 95
3, 507840, Note_off_c, 0, 57, 95
3, 507840, Note_on_c, 0, 61, 95
3, 508320, Note_off_c, 0, 61, 95
3, 508320, Note_on_c, 0, 57, 95
3, 508800, Note_off_c, 0, 57, 95
3, 508800, Note_on_c, 0, 52, 95
3, 509280, Note_off_c, 0, 52, 95
3, 509280, Note_on_c, 0, 57, 95
3, 509760, Note_off_c, 0, 57, 95
3, 509760, Note_on_c, 0, 61, 95
3, 510240, Note_off_c, 0, 61, 95
3, 510240, Note_on_c, 0, 47, 95
3, 511200, Note_off_c, 0, 47, 95
3, 511200, Note_on_c, 0, 57, 95
3, 511680, Note_off_c, 0, 57, 95
3, 511680, Note_on_c, 0, 61, 95
3, 512160, Note_off_c, 0, 61, 95
3, 512160, Note_on_c, 0, 57, 95
3, 512640, Note_off_c, 0, 57, 95
3, 512640, Note_on_c, 0, 63, 95
3, 513120, Note_off_c, 0, 63, 95
3, 513120, Note_on_c, 0, 61, 95
3, 513600, Note_off_c, 0, 61, 95
3, 513600, Note_on_c, 0, 59, 95
3, 514080, Note_off_c, 0, 59, 95
3, 514080, Note_on_c, 0, 57, 95
3, 514560, Note_off_c, 0, 57, 95
3, 514560, Note_on_c, 0, 52, 95
3, 515040, Note_off_c, 0, 52, 95
3, 515040, Note_on_c, 0, 59, 95
3, 515520, Note_off_c, 0, 59, 95
3, 515520, Note_on_c, 0, 64, 95
3, 516000, Note_off_c, 0, 64, 95
3, 516000, Note_on_c, 0, 59, 95
3, 516480, Note_off_c, 0, 59, 95
3, 516480, Note_on_c, 0, 52, 95
3, 516960, Note_off_c, 0, 52, 95
3, 516960, Note_on_c, 0, 59, 95
3, 517440, Note_off_c, 0, 59, 95
3, 517440, Note_on_c, 0, 64, 95
3, 517920, Note_off_c, 0, 64, 95
3, 517920, Note_on_c, 0, 52, 95
3, 518880, Note_off_c, 0, 52, 95
3, 518880, Note_on_c, 0, 59, 95
3, 519360, Note_off_c, 0, 59, 95
3, 519360, Note_on_c, 0, 64, 95
3, 519840, Note_off_c, 0, 64, 95
3, 519840, Note_on_c, 0, 59, 95
3, 520320, Note_off_c, 0, 59, 95
3, 520320, Note_on_c, 0, 52, 95
3, 520800, Note_off_c, 0, 52, 95
3, 520800, Note_on_c, 0, 59, 95
3, 521280, Note_off_c, 0, 59, 95
3, 521280, Note_on_c, 0, 64, 95
3, 521760, Note_off_c, 0, 64, 95
3, 521760, Note_on_c, 0, 59, 95
3, 522240, Note_off_c, 0, 59, 95
3, 522240, Note_on_c, 0, 52, 95
3, 522720, Note_off_c, 0, 52, 95
3, 522720, Note_on_c, 0, 57, 95
3, 523200, Note_off_c, 0, 57, 95
3, 523200, Note_on_c, 0, 61, 95
3, 523680, Note_off_c, 0, 61, 95
3, 523680, Note_on_c, 0, 57, 95
3, 524160, Note_off_c, 0, 57, 95
3, 524160, Note_on_c, 0, 52, 95
3, 524640, Note_off_c, 0, 52, 95
3, 524640, Note_on_c, 0, 57, 95
3, 525120, Note_off_c, 0, 57, 95
3, 525120, Note_on_c, 0, 61, 95
3, 525600, Note_off_c, 0, 61, 95
3, 525600, Note_on_c, 0, 57, 95
3, 526080, Note_off_c, 0, 57, 95
3, 526080, Note_on_c, 0, 52, 95
3, 526560, Note_off_c, 0, 52, 95
3, 526560, Note_on_c, 0, 57, 95
3, 527040, Note_off_c, 0, 57, 95
3, 527040, Note_on_c, 0, 61, 95
3, 527520, Note_off_c, 0, 61, 95
3, 527520, Note_on_c, 0, 57, 95
3, 528000, Note_off_c, 0, 57, 95
3, 528000, Note_on_c, 0, 52, 95
3, 528480, Note_off_c, 0, 52, 95
3, 528480, Note_on_c, 0, 57, 95
3, 528960, Note_off_c, 0, 57, 95
3, 528960, Note_on_c, 0, 61, 95
3, 529440, Note_off_c, 0, 61, 95
3, 529440, Note_on_c, 0, 57, 95
3, 529920, Note_off_c, 0, 57, 95
3, 529920, Note_on_c, 0, 59, 95
3, 530400, Note_off_c, 0, 59, 95
3, 530400, Note_on_c, 0, 64, 95
3, 530880, Note_off_c, 0, 64, 95
3, 530880, Note_on_c, 0, 68, 95
3, 531360, Note_off_c, 0, 68, 95
3, 531360, Note_on_c, 0, 64, 95
3, 531840, Note_off_c, 0, 64, 95
3, 531840, Note_on_c, 0, 59, 95
3, 532320, Note_off_c, 0, 59, 95
3, 532320, Note_on_c, 0, 64, 95
3, 532800, Note_off_c, 0, 64, 95
3, 532800, Note_on_c, 0, 68, 95
3, 533280, Note_off_c, 0, 68, 95
3, 533280, Note_on_c, 0, 64, 95
3, 533760, Note_off_c, 0, 64, 95
3, 533760, Note_on_c, 0, 59, 95
3, 534240, Note_off_c, 0, 59, 95
3, 534240, Note_on_c, 0, 64, 95
3, 534720, Note_off_c, 0, 64, 95
3, 534720, Note_on_c, 0, 68, 95
3, 535200, Note_off_c, 0, 68, 95
3, 535200, Note_on_c, 0, 64, 95
3, 535680, Note_off_c, 0, 64, 95
3, 535680, Note_on_c, 0, 59, 95
3, 536160, Note_off_c, 0, 59, 95
3, 536160, Note_on_c, 0, 64, 95
3, 536640, Note_off_c, 0, 64, 95
3, 536640, Note_on_c, 0, 68, 95
3, 537120, Note_off_c, 0, 68, 95
3, 537120, Note_on_c, 0, 64, 95
3, 537600, Note_off_c, 0, 64, 95
3, 537600, Note_on_c, 0, 54, 95
3, 538080, Note_off_c, 0, 54, 95
3, 538080, Note_on_c, 0, 59, 95
3, 538560, Note_off_c, 0, 59, 95
3, 538560, Note_on_c, 0, 63, 95
3, 539040, Note_off_c, 0, 63, 95
3, 539040, Note_on_c, 0, 59, 95
3, 539520, Note_off_c, 0, 59, 95
3, 539520, Note_on_c, 0, 54, 95
3, 540000, Note_off_c, 0, 54, 95
3, 540000, Note_on_c, 0, 59, 95
3, 540480, Note_off_c, 0, 59, 95
3, 540480, Note_on_c, 0, 63, 95
3, 540960, Note_off_c, 0, 63, 95
3, 540960, Note_on_c, 0, 59, 95
3, 541440, Note_off_c, 0, 59, 95
3, 541440, Note_on_c, 0, 54, 95
3, 541920, Note_off_c, 0, 54, 95
3, 541920, Note_on_c, 0, 59, 95
3, 542400, Note_off_c, 0, 59, 95
3, 542400, Note_on_c, 0, 63, 95
3, 542880, Note_off_c, 0, 63, 95
3, 542880, Note_on_c, 0, 59, 95
3, 543360, Note_off_c, 0, 59, 95
3, 543360, Note_on_c, 0, 54, 95
3, 543840, Note_off_c, 0, 54, 95
3, 543840, Note_on_c, 0, 59, 95
3, 544320, Note_off_c, 0, 59, 95
3, 544320, Note_on_c, 0, 63, 95
3, 544800, Note_off_c, 0, 63, 95
3, 544800, Note_on_c, 0, 59, 95
3, 545280, Note_off_c, 0, 59, 95
3, 545280, Note_on_c, 0, 59, 95
3, 545760, Note_off_c, 0, 59, 95
3, 545760, Note_on_c, 0, 64, 95
3, 546240, Note_off_c, 0, 64, 95
3, 546240, Note_on_c, 0, 68, 95
3, 546720, Note_off_c, 0, 68, 95
3, 546720, Note_on_c, 0, 64, 95
3, 547200, Note_off_c, 0, 64, 95
3, 547200, Note_on_c, 0, 59, 95
3, 547680, Note_off_c, 0, 59, 95
3, 547680, Note_on_c, 0, 64, 95
3, 548160, Note_off_c, 0, 64, 95
3, 548160, Note_on_c, 0, 68, 95
3, 548640, Note_off_c, 0, 68, 95
3, 548640, Note_on_c, 0, 64, 95
3, 549120, Note_off_c, 0, 64, 95
3, 549600, Note_on_c, 0, 68, 95
3, 549600, Note_on_c, 0, 64, 95
3, 549600, Note_on_c, 0, 59, 95
3, 550320, Note_off_c, 0, 68, 95
3, 550320, Note_off_c, 0, 64, 95
3, 550320, Note_off_c, 0, 59, 95
3, 550320, Note_on_c, 0, 68, 95
3, 550320, Note_on_c, 0, 64, 95
3, 550320, Note_on_c, 0, 59, 95
3, 550800, Note_off_c, 0, 68, 95
3, 550800, Note_off_c, 0, 64, 95
3, 550800, Note_off_c, 0, 59, 95
3, 550800, Note_on_c, 0, 68, 95
3, 550800, Note_on_c, 0, 64, 95
3, 550800, Note_on_c, 0, 59, 95
3, 551040, Note_off_c, 0, 68, 95
3, 551040, Note_off_c, 0, 64, 95
3, 551040, Note_off_c, 0, 59, 95
3, 551040, Note_on_c, 0, 68, 95
3, 551040, Note_on_c, 0, 64, 95
3, 551040, Note_on_c, 0, 59, 95
3, 551520, Note_off_c, 0, 68, 95
3, 551520, Note_off_c, 0, 64, 95
3, 551520, Note_off_c, 0, 59, 95
3, 551520, Note_on_c, 0, 68, 95
3, 551520, Note_on_c, 0, 64, 95
3, 551520, Note_on_c, 0, 59, 95
3, 551760, Note_off_c, 0, 68, 95
3, 551760, Note_off_c, 0, 64, 95
3, 551760, Note_off_c, 0, 59, 95
3, 551760, Note_on_c, 0, 68, 95
3, 551760, Note_on_c, 0, 64, 95
3, 551760, Note_on_c, 0, 59, 95
3, 552000, Note_off_c, 0, 68, 95
3, 552000, Note_off_c, 0, 64, 95
3, 552000, Note_off_c, 0, 59, 95
3, 552000, Note_on_c, 0, 68, 95
3, 552000, Note_on_c, 0, 64, 95
3, 552000, Note_on_c, 0, 59, 95
3, 552240, Note_off_c, 0, 68, 95
3, 552240, Note_off_c, 0, 64, 95
3, 552240, Note_off_c, 0, 59, 95
3, 552240, Note_on_c, 0, 68, 95
3, 552240, Note_on_c, 0, 64, 95
3, 552240, Note_on_c, 0, 59, 95
3, 552480, Note_off_c, 0, 68, 95
3, 552480, Note_off_c, 0, 64, 95
3, 552480, Note_off_c, 0, 59, 95
3, 552480, Note_on_c, 0, 68, 95
3, 552480, Note_on_c, 0, 64, 95
3, 552480, Note_on_c, 0, 59, 95
3, 552720, Note_off_c, 0, 68, 95
3, 552720, Note_off_c, 0, 64, 95
3, 552720, Note_off_c, 0, 59, 95
3, 552720, Note_on_c, 0, 68, 95
3, 552720, Note_on_c, 0, 64, 95
3, 552720, Note_on_c, 0, 59, 95
3, 552960, Note_off_c, 0, 68, 95
3, 552960, Note_off_c, 0, 64, 95
3, 552960, Note_off_c, 0, 59, 95
3, 552960, Note_on_c, 0, 52, 95
3, 553440, Note_off_c, 0, 52, 95
3, 553440, Note_on_c, 0, 59, 95
3, 553920, Note_off_c, 0, 59, 95
3, 553920, Note_on_c, 0, 64, 95
3, 554400, Note_off_c, 0, 64, 95
3, 554400, Note_on_c, 0, 59, 95
3, 554880, Note_off_c, 0, 59, 95
3, 554880, Note_on_c, 0, 52, 95
3, 555360, Note_off_c, 0, 52, 95
3, 555360, Note_on_c, 0, 59, 95
3, 555840, Note_off_c, 0, 59, 95
3, 555840, Note_on_c, 0, 64, 95
3, 556320, Note_off_c, 0, 64, 95
3, 556320, Note_on_c, 0, 57, 95
3, 556800, Note_off_c, 0, 57, 95
3, 556800, Note_on_c, 0, 52, 95
3, 557280, Note_off_c, 0, 52, 95
3, 557280, Note_on_c, 0, 59, 95
3, 557760, Note_off_c, 0, 59, 95
3, 557760, Note_on_c, 0, 64, 95
3, 558240, Note_off_c, 0, 64, 95
3, 558240, Note_on_c, 0, 59, 95
3, 558720, Note_off_c, 0, 59, 95
3, 558720, Note_on_c, 0, 52, 95
3, 559200, Note_off_c, 0, 52, 95
3, 559200, Note_on_c, 0, 59, 95
3, 559680, Note_off_c, 0, 59, 95
3, 559680, Note_on_c, 0, 64, 95
3, 560160, Note_off_c, 0, 64, 95
3, 560160, Note_on_c, 0, 57, 95
3, 560640, Note_off_c, 0, 57, 95
3, 560640, Note_on_c, 0, 54, 95
3, 561120, Note_off_c, 0, 54, 95
3, 561120, Note_on_c, 0, 59, 95
3, 561600, Note_off_c, 0, 59, 95
3, 561600, Note_on_c, 0, 63, 95
3, 562080, Note_off_c, 0, 63, 95
3, 562080, Note_on_c, 0, 59, 95
3, 562560, Note_off_c, 0, 59, 95
3, 562560, Note_on_c, 0, 54, 95
3, 563040, Note_off_c, 0, 54, 95
3, 563040, Note_on_c, 0, 59, 95
3, 563520, Note_off_c, 0, 59, 95
3, 563520, Note_on_c, 0, 64, 95
3, 564000, Note_off_c, 0, 64, 95
3, 564000, Note_on_c, 0, 59, 95
3, 564480, Note_off_c, 0, 59, 95
3, 564480, Note_on_c, 0, 54, 95
3, 564960, Note_off_c, 0, 54, 95
3, 564960, Note_on_c, 0, 59, 95
3, 565440, Note_off_c, 0, 59, 95
3, 565440, Note_on_c, 0, 64, 95
3, 565920, Note_off_c, 0, 64, 95
3, 565920, Note_on_c, 0, 59, 95
3, 566400, Note_off_c, 0, 59, 95
3, 566400, Note_on_c, 0, 64, 95
3, 566880, Note_off_c, 0, 64, 95
3, 566880, Note_on_c, 0, 63, 95
3, 567360, Note_off_c, 0, 63, 95
3, 567360, Note_on_c, 0, 61, 95
3, 567840, Note_off_c, 0, 61, 95
3, 567840, Note_on_c, 0, 59, 95
3, 568320, Note_off_c, 0, 59, 95
3, 568320, Note_on_c, 0, 52, 95
3, 568800, Note_off_c, 0, 52, 95
3, 568800, Note_on_c, 0, 57, 95
3, 569280, Note_off_c, 0, 57, 95
3, 569280, Note_on_c, 0, 61, 95
3, 569760, Note_off_c, 0, 61, 95
3, 569760, Note_on_c, 0, 57, 95
3, 570240, Note_off_c, 0, 57, 95
3, 570240, Note_on_c, 0, 52, 95
3, 570720, Note_off_c, 0, 52, 95
3, 570720, Note_on_c, 0, 57, 95
3, 571200, Note_off_c, 0, 57, 95
3, 571200, Note_on_c, 0, 61, 95
3, 571680, Note_off_c, 0, 61, 95
3, 571680, Note_on_c, 0, 47, 95
3, 572640, Note_off_c, 0, 47, 95
3, 572640, Note_on_c, 0, 57, 95
3, 573120, Note_off_c, 0, 57, 95
3, 573120, Note_on_c, 0, 61, 95
3, 573600, Note_off_c, 0, 61, 95
3, 573600, Note_on_c, 0, 57, 95
3, 574080, Note_off_c, 0, 57, 95
3, 574080, Note_on_c, 0, 63, 95
3, 574560, Note_off_c, 0, 63, 95
3, 574560, Note_on_c, 0, 61, 95
3, 575040, Note_off_c, 0, 61, 95
3, 575040, Note_on_c, 0, 59, 95
3, 575520, Note_off_c, 0, 59, 95
3, 575520, Note_on_c, 0, 57, 95
3, 576000, Note_off_c, 0, 57, 95
3, 576000, Note_on_c, 0, 52, 95
3, 576480, Note_off_c, 0, 52, 95
3, 576480, Note_on_c, 0, 59, 95
3, 576960, Note_off_c, 0, 59, 95
3, 576960, Note_on_c, 0, 64, 95
3, 577440, Note_off_c, 0, 64, 95
3, 577440, Note_on_c, 0, 59, 95
3, 577920, Note_off_c, 0, 59, 95
3, 577920, Note_on_c, 0, 52, 95
3, 578400, Note_off_c, 0, 52, 95
3, 578400, Note_on_c, 0, 59, 95
3, 578880, Note_off_c, 0, 59, 95
3, 578880, Note_on_c, 0, 64, 95
3, 579360, Note_off_c, 0, 64, 95
3, 579360, Note_on_c, 0, 52, 95
3, 580320, Note_off_c, 0, 52, 95
3, 580320, Note_on_c, 0, 59, 95
3, 580800, Note_off_c, 0, 59, 95
3, 580800, Note_on_c, 0, 64, 95
3, 581280, Note_off_c, 0, 64, 95
3, 581280, Note_on_c, 0, 59, 95
3, 581760, Note_off_c, 0, 59, 95
3, 581760, Note_on_c, 0, 52, 95
3, 582240, Note_off_c, 0, 52, 95
3, 582240, Note_on_c, 0, 59, 95
3, 582720, Note_off_c, 0, 59, 95
3, 582720, Note_on_c, 0, 64, 95
3, 583200, Note_off_c, 0, 64, 95
3, 583200, Note_on_c, 0, 52, 95
3, 584160, Note_off_c, 0, 52, 95
3, 584160, Note_on_c, 0, 59, 95
3, 584640, Note_off_c, 0, 59, 95
3, 584640, Note_on_c, 0, 64, 95
3, 585120, Note_off_c, 0, 64, 95
3, 585120, Note_on_c, 0, 59, 95
3, 585600, Note_off_c, 0, 59, 95
3, 585600, Note_on_c, 0, 52, 95
3, 586080, Note_off_c, 0, 52, 95
3, 586080, Note_on_c, 0, 59, 95
3, 586560, Note_off_c, 0, 59, 95
3, 586560, Note_on_c, 0, 64, 95
3, 587040, Note_off_c, 0, 64, 95
3, 587040, Note_on_c, 0, 57, 95
3, 587520, Note_off_c, 0, 57, 95
3, 587520, Note_on_c, 0, 52, 95
3, 588000, Note_off_c, 0, 52, 95
3, 588000, Note_on_c, 0, 59, 95
3, 588480, Note_off_c, 0, 59, 95
3, 588480, Note_on_c, 0, 64, 95
3, 588960, Note_off_c, 0, 64, 95
3, 588960, Note_on_c, 0, 59, 95
3, 589440, Note_off_c, 0, 59, 95
3, 589440, Note_on_c, 0, 52, 95
3, 589920, Note_off_c, 0, 52, 95
3, 589920, Note_on_c, 0, 59, 95
3, 590400, Note_off_c, 0, 59, 95
3, 590400, Note_on_c, 0, 64, 95
3, 590880, Note_off_c, 0, 64, 95
3, 590880, Note_on_c, 0, 57, 95
3, 591360, Note_off_c, 0, 57, 95
3, 591360, Note_on_c, 0, 54, 95
3, 591840, Note_off_c, 0, 54, 95
3, 591840, Note_on_c, 0, 59, 95
3, 592320, Note_off_c, 0, 59, 95
3, 592320, Note_on_c, 0, 63, 95
3, 592800, Note_off_c, 0, 63, 95
3, 592800, Note_on_c, 0, 59, 95
3, 593280, Note_off_c, 0, 59, 95
3, 593280, Note_on_c, 0, 54, 95
3, 593760, Note_off_c, 0, 54, 95
3, 593760, Note_on_c, 0, 59, 95
3, 594240, Note_off_c, 0, 59, 95
3, 594240, Note_on_c, 0, 64, 95
3, 594720, Note_off_c, 0, 64, 95
3, 594720, Note_on_c, 0, 59, 95
3, 595200, Note_off_c, 0, 59, 95
3, 595200, Note_on_c, 0, 54, 95
3, 595680, Note_off_c, 0, 54, 95
3, 595680, Note_on_c, 0, 59, 95
3, 596160, Note_off_c, 0, 59, 95
3, 596160, Note_on_c, 0, 64, 95
3, 596640, Note_off_c, 0, 64, 95
3, 596640, Note_on_c, 0, 59, 95
3, 597120, Note_off_c, 0, 59, 95
3, 597120, Note_on_c, 0, 64, 95
3, 597600, Note_off_c, 0, 64, 95
3, 597600, Note_on_c, 0, 63, 95
3, 598080, Note_off_c, 0, 63, 95
3, 598080, Note_on_c, 0, 61, 95
3, 598560, Note_off_c, 0, 61, 95
3, 598560, Note_on_c, 0, 59, 95
3, 599040, Note_off_c, 0, 59, 95
3, 599040, Note_on_c, 0, 52, 95
3, 599520, Note_off_c, 0, 52, 95
3, 599520, Note_on_c, 0, 57, 95
3, 600000, Note_off_c, 0, 57, 95
3, 600000, Note_on_c, 0, 61, 95
3, 600480, Note_off_c, 0, 61, 95
3, 600480, Note_on_c, 0, 57, 95
3, 600960, Note_off_c, 0, 57, 95
3, 600960, Note_on_c, 0, 52, 95
3, 601440, Note_off_c, 0, 52, 95
3, 601440, Note_on_c, 0, 57, 95
3, 601920, Note_off_c, 0, 57, 95
3, 601920, Note_on_c, 0, 61, 95
3, 602400, Note_off_c, 0, 61, 95
3, 602400, Note_on_c, 0, 47, 95
3, 603360, Note_off_c, 0, 47, 95
3, 603360, Note_on_c, 0, 57, 95
3, 603840, Note_off_c, 0, 57, 95
3, 603840, Note_on_c, 0, 61, 95
3, 604320, Note_off_c, 0, 61, 95
3, 604320, Note_on_c, 0, 57, 95
3, 604800, Note_off_c, 0, 57, 95
3, 604800, Note_on_c, 0, 63, 95
3, 605280, Note_off_c, 0, 63, 95
3, 605280, Note_on_c, 0, 61, 95
3, 605760, Note_off_c, 0, 61, 95
3, 605760, Note_on_c, 0, 59, 95
3, 606240, Note_off_c, 0, 59, 95
3, 606240, Note_on_c, 0, 57, 95
3, 606720, Note_off_c, 0, 57, 95
3, 606720, Note_on_c, 0, 52, 95
3, 607200, Note_off_c, 0, 52, 95
3, 607200, Note_on_c, 0, 59, 95
3, 607680, Note_off_c, 0, 59, 95
3, 607680, Note_on_c, 0, 64, 95
3, 608160, Note_off_c, 0, 64, 95
3, 608160, Note_on_c, 0, 59, 95
3, 608640, Note_off_c, 0, 59, 95
3, 608640, Note_on_c, 0, 52, 95
3, 609120, Note_off_c, 0, 52, 95
3, 609120, Note_on_c, 0, 59, 95
3, 609600, Note_off_c, 0, 59, 95
3, 609600, Note_on_c, 0, 64, 95
3, 610080, Note_off_c, 0, 64, 95
3, 610080, Note_on_c, 0, 52, 95
3, 611040, Note_off_c, 0, 52, 95
3, 611040, Note_on_c, 0, 59, 95
3, 611520, Note_off_c, 0, 59, 95
3, 611520, Note_on_c, 0, 64, 95
3, 612000, Note_off_c, 0, 64, 95
3, 612000, Note_on_c, 0, 59, 95
3, 612480, Note_off_c, 0, 59, 95
3, 612480, Note_on_c, 0, 52, 95
3, 612960, Note_off_c, 0, 52, 95
3, 612960, Note_on_c, 0, 59, 95
3, 613440, Note_off_c, 0, 59, 95
3, 613440, Note_on_c, 0, 64, 95
3, 613920, Note_off_c, 0, 64, 95
3, 613920, Note_on_c, 0, 52, 95
3, 614880, Note_off_c, 0, 52, 95
3, 614880, Note_on_c, 0, 59, 95
3, 615360, Note_off_c, 0, 59, 95
3, 615360, Note_on_c, 0, 64, 95
3, 615840, Note_off_c, 0, 64, 95
3, 615840, Note_on_c, 0, 59, 95
3, 616320, Note_off_c, 0, 59, 95
3, 616320, Note_on_c, 0, 52, 95
3, 616800, Note_off_c, 0, 52, 95
3, 616800, Note_on_c, 0, 59, 95
3, 617280, Note_off_c, 0, 59, 95
3, 617280, Note_on_c, 0, 64, 95
3, 617760, Note_off_c, 0, 64, 95
3, 617760, Note_on_c, 0, 57, 95
3, 618240, Note_off_c, 0, 57, 95
3, 618240, Note_on_c, 0, 52, 95
3, 618720, Note_off_c, 0, 52, 95
3, 618720, Note_on_c, 0, 59, 95
3, 619200, Note_off_c, 0, 59, 95
3, 619200, Note_on_c, 0, 64, 95
3, 619680, Note_off_c, 0, 64, 95
3, 619680, Note_on_c, 0, 59, 95
3, 620160, Note_off_c, 0, 59, 95
3, 620160, Note_on_c, 0, 52, 95
3, 620640, Note_off_c, 0, 52, 95
3, 620640, Note_on_c, 0, 59, 95
3, 621120, Note_off_c, 0, 59, 95
3, 621120, Note_on_c, 0, 64, 95
3, 621600, Note_off_c, 0, 64, 95
3, 621600, Note_on_c, 0, 57, 95
3, 622080, Note_off_c, 0, 57, 95
3, 622080, End_track
4, 0, Start_track
4, 0, Pitch_bend_c, 2, 8192
4, 0, Control_c, 2, 7, 111
4, 0, Control_c, 2, 10, 63
4, 0, Control_c, 2, 93, 0
4, 0, Control_c, 2, 91, 0
4, 0, Control_c, 2, 95, 0
4, 0, Control_c, 2, 92, 0
4, 0, Control_c, 2, 11, 127
4, 0, Program_c, 2, 29
4, 0, Control_c, 3, 7, 111
4, 0, Control_c, 3, 10, 63
4, 0, Control_c, 3, 93, 0
4, 0, Control_c, 3, 91, 0
4, 0, Control_c, 3, 95, 0
4, 0, Control_c, 3, 92, 0
4, 0, Control_c, 3, 11, 127
4, 0, Program_c, 3, 29
4, 7200, Note_on_c, 2, 68, 95
4, 7200, Note_on_c, 2, 64, 95
4, 7200, Note_on_c, 2, 59, 95
4, 7200, Note_on_c, 2, 52, 95
4, 7680, Note_off_c, 2, 68, 95
4, 7680, Note_off_c, 2, 64, 95
4, 7680, Note_off_c, 2, 59, 95
4, 7680, Note_off_c, 2, 52, 95
4, 7680, Note_on_c, 2, 68, 95
4, 7680, Note_on_c, 2, 64, 95
4, 7680, Note_on_c, 2, 59, 95
4, 7680, Note_on_c, 2, 52, 95
4, 14880, Note_off_c, 2, 68, 95
4, 14880, Note_off_c, 2, 64, 95
4, 14880, Note_off_c, 2, 59, 95
4, 14880, Note_off_c, 2, 52, 95
4, 14880, Note_on_c, 2, 68, 95
4, 14880, Note_on_c, 2, 64, 95
4, 14880, Note_on_c, 2, 59, 95
4, 14880, Note_on_c, 2, 52, 95
4, 15360, Note_off_c, 2, 68, 95
4, 15360, Note_off_c, 2, 64, 95
4, 15360, Note_off_c, 2, 59, 95
4, 15360, Note_off_c, 2, 52, 95
4, 15360, Note_on_c, 2, 68, 95
4, 15360, Note_on_c, 2, 64, 95
4, 15360, Note_on_c, 2, 59, 95
4, 15360, Note_on_c, 2, 52, 95
4, 30720, Note_off_c, 2, 68, 95
4, 30720, Note_off_c, 2, 64, 95
4, 30720, Note_off_c, 2, 59, 95
4, 30720, Note_off_c, 2, 52, 95
4, 74400, Note_on_c, 2, 69, 95
4, 74400, Note_on_c, 2, 64, 95
4, 74400, Note_on_c, 2, 59, 95
4, 74400, Note_on_c, 2, 52, 95
4, 75360, Note_off_c, 2, 69, 95
4, 75360, Note_off_c, 2, 64, 95
4, 75360, Note_off_c, 2, 59, 95
4, 75360, Note_off_c, 2, 52, 95
4, 75360, Note_on_c, 2, 69, 95
4, 75360, Note_on_c, 2, 64, 95
4, 75360, Note_on_c, 2, 59, 95
4, 75360, Note_on_c, 2, 52, 95
4, 76320, Note_off_c, 2, 69, 95
4, 76320, Note_off_c, 2, 64, 95
4, 76320, Note_off_c, 2, 59, 95
4, 76320, Note_off_c, 2, 52, 95
4, 76320, Note_on_c, 2, 69, 95
4, 76320, Note_on_c, 2, 64, 95
4, 76320, Note_on_c, 2, 59, 95
4, 76320, Note_on_c, 2, 52, 95
4, 76800, Note_off_c, 2, 69, 95
4, 76800, Note_off_c, 2, 64, 95
4, 76800, Note_off_c, 2, 59, 95
4, 76800, Note_off_c, 2, 52, 95
4, 76800, Note_on_c, 2, 68, 95
4, 76800, Note_on_c, 2, 64, 95
4, 76800, Note_on_c, 2, 59, 95
4, 76800, Note_on_c, 2, 52, 95
4, 92160, Note_off_c, 2, 68, 95
4, 92160, Note_off_c, 2, 64, 95
4, 92160, Note_off_c, 2, 59, 95
4, 92160, Note_off_c, 2, 52, 95
4, 105120, Note_on_c, 2, 69, 95
4, 105120, Note_on_c, 2, 64, 95
4, 105120, Note_on_c, 2, 59, 95
4, 105120, Note_on_c, 2, 52, 95
4, 106080, Note_off_c, 2, 69, 95
4, 106080, Note_off_c, 2, 64, 95
4, 106080, Note_off_c, 2, 59, 95
4, 106080, Note_off_c, 2, 52, 95
4, 106080, Note_on_c, 2, 69, 95
4, 106080, Note_on_c, 2, 64, 95
4, 106080, Note_on_c, 2, 59, 95
4, 106080, Note_on_c, 2, 52, 95
4, 107040, Note_off_c, 2, 69, 95
4, 107040, Note_off_c, 2, 64, 95
4, 107040, Note_off_c, 2, 59, 95
4, 107040, Note_off_c, 2, 52, 95
4, 107040, Note_on_c, 2, 69, 95
4, 107040, Note_on_c, 2, 64, 95
4, 107040, Note_on_c, 2, 59, 95
4, 107040, Note_on_c, 2, 52, 95
4, 107520, Note_off_c, 2, 69, 95
4, 107520, Note_off_c, 2, 64, 95
4, 107520, Note_off_c, 2, 59, 95
4, 107520, Note_off_c, 2, 52, 95
4, 107520, Note_on_c, 2, 68, 95
4, 107520, Note_on_c, 2, 64, 95
4, 107520, Note_on_c, 2, 59, 95
4, 107520, Note_on_c, 2, 52, 95
4, 122880, Note_off_c, 2, 68, 95
4, 122880, Note_off_c, 2, 64, 95
4, 122880, Note_off_c, 2, 59, 95
4, 122880, Note_off_c, 2, 52, 95
4, 135840, Note_on_c, 2, 69, 95
4, 135840, Note_on_c, 2, 64, 95
4, 135840, Note_on_c, 2, 59, 95
4, 135840, Note_on_c, 2, 52, 95
4, 136800, Note_off_c, 2, 69, 95
4, 136800, Note_off_c, 2, 64, 95
4, 136800, Note_off_c, 2, 59, 95
4, 136800, Note_off_c, 2, 52, 95
4, 136800, Note_on_c, 2, 69, 95
4, 136800, Note_on_c, 2, 64, 95
4, 136800, Note_on_c, 2, 59, 95
4, 136800, Note_on_c, 2, 52, 95
4, 137760, Note_off_c, 2, 69, 95
4, 137760, Note_off_c, 2, 64, 95
4, 137760, Note_off_c, 2, 59, 95
4, 137760, Note_off_c, 2, 52, 95
4, 137760, Note_on_c, 2, 69, 95
4, 137760, Note_on_c, 2, 64, 95
4, 137760, Note_on_c, 2, 59, 95
4, 137760, Note_on_c, 2, 52, 95
4, 138240, Note_off_c, 2, 69, 95
4, 138240, Note_off_c, 2, 64, 95
4, 138240, Note_off_c, 2, 59, 95
4, 138240, Note_off_c, 2, 52, 95
4, 138240, Note_on_c, 2, 68, 95
4, 138240, Note_on_c, 2, 64, 95
4, 138240, Note_on_c, 2, 59, 95
4, 138240, Note_on_c, 2, 52, 95
4, 153600, Note_off_c, 2, 68, 95
4, 153600, Note_off_c, 2, 64, 95
4, 153600, Note_off_c, 2, 59, 95
4, 153600, Note_off_c, 2, 52, 95
4, 166560, Note_on_c, 2, 69, 95
4, 166560, Note_on_c, 2, 64, 95
4, 166560, Note_on_c, 2, 59, 95
4, 166560, Note_on_c, 2, 52, 95
4, 167520, Note_off_c, 2, 69, 95
4, 167520, Note_off_c, 2, 64, 95
4, 167520, Note_off_c, 2, 59, 95
4, 167520, Note_off_c, 2, 52, 95
4, 167520, Note_on_c, 2, 69, 95
4, 167520, Note_on_c, 2, 64, 95
4, 167520, Note_on_c, 2, 59, 95
4, 167520, Note_on_c, 2, 52, 95
4, 168480, Note_off_c, 2, 69, 95
4, 168480, Note_off_c, 2, 64, 95
4, 168480, Note_off_c, 2, 59, 95
4, 168480, Note_off_c, 2, 52, 95
4, 168480, Note_on_c, 2, 69, 95
4, 168480, Note_on_c, 2, 64, 95
4, 168480, Note_on_c, 2, 59, 95
4, 168480, Note_on_c, 2, 52, 95
4, 168960, Note_off_c, 2, 69, 95
4, 168960, Note_off_c, 2, 64, 95
4, 168960, Note_off_c, 2, 59, 95
4, 168960, Note_off_c, 2, 52, 95
4, 168960, Note_on_c, 2, 68, 95
4, 168960, Note_on_c, 2, 64, 95
4, 168960, Note_on_c, 2, 59, 95
4, 168960, Note_on_c, 2, 52, 95
4, 184320, Note_off_c, 2, 68, 95
4, 184320, Note_off_c, 2, 64, 95
4, 184320, Note_off_c, 2, 59, 95
4, 184320, Note_off_c, 2, 52, 95
4, 197280, Note_on_c, 2, 69, 95
4, 197280, Note_on_c, 2, 64, 95
4, 197280, Note_on_c, 2, 59, 95
4, 197280, Note_on_c, 2, 52, 95
4, 199680, Note_off_c, 2, 69, 95
4, 199680, Note_off_c, 2, 64, 95
4, 199680, Note_off_c, 2, 59, 95
4, 199680, Note_off_c, 2, 52, 95
4, 206400, Note_on_c, 2, 68, 95
4, 206400, Note_on_c, 2, 64, 95
4, 206400, Note_on_c, 2, 59, 95
4, 206400, Note_on_c, 2, 52, 95
4, 206880, Note_off_c, 2, 68, 95
4, 206880, Note_off_c, 2, 64, 95
4, 206880, Note_off_c, 2, 59, 95
4, 206880, Note_off_c, 2, 52, 95
4, 206880, Note_on_c, 2, 68, 95
4, 206880, Note_on_c, 2, 64, 95
4, 206880, Note_on_c, 2, 59, 95
4, 206880, Note_on_c, 2, 52, 95
4, 214080, Note_off_c, 2, 68, 95
4, 214080, Note_off_c, 2, 64, 95
4, 214080, Note_off_c, 2, 59, 95
4, 214080, Note_off_c, 2, 52, 95
4, 239040, Note_on_c, 2, 68, 95
4, 239040, Note_on_c, 2, 64, 95
4, 239040, Note_on_c, 2, 59, 95
4, 239040, Note_on_c, 2, 52, 95
4, 241440, Note_off_c, 2, 68, 95
4, 241440, Note_off_c, 2, 64, 95
4, 241440, Note_off_c, 2, 59, 95
4, 241440, Note_off_c, 2, 52, 95
4, 241440, Note_on_c, 2, 68, 95
4, 241440, Note_on_c, 2, 64, 95
4, 241440, Note_on_c, 2, 59, 95
4, 241440, Note_on_c, 2, 52, 95
4, 245760, Note_off_c, 2, 68, 95
4, 245760, Note_off_c, 2, 64, 95
4, 245760, Note_off_c, 2, 59, 95
4, 245760, Note_off_c, 2, 52, 95
4, 245760, Note_on_c, 2, 68, 95
4, 245760, Note_on_c, 2, 64, 95
4, 245760, Note_on_c, 2, 59, 95
4, 245760, Note_on_c, 2, 52, 95
4, 261120, Note_off_c, 2, 68, 95
4, 261120, Note_off_c, 2, 64, 95
4, 261120, Note_off_c, 2, 59, 95
4, 261120, Note_off_c, 2, 52, 95
4, 274080, Note_on_c, 2, 69, 95
4, 274080, Note_on_c, 2, 64, 95
4, 274080, Note_on_c, 2, 59, 95
4, 274080, Note_on_c, 2, 52, 95
4, 275040, Note_off_c, 2, 69, 95
4, 275040, Note_off_c, 2, 64, 95
4, 275040, Note_off_c, 2, 59, 95
4, 275040, Note_off_c, 2, 52, 95
4, 275040, Note_on_c, 2, 69, 95
4, 275040, Note_on_c, 2, 64, 95
4, 275040, Note_on_c, 2, 59, 95
4, 275040, Note_on_c, 2, 52, 95
4, 276000, Note_off_c, 2, 69, 95
4, 276000, Note_off_c, 2, 64, 95
4, 276000, Note_off_c, 2, 59, 95
4, 276000, Note_off_c, 2, 52, 95
4, 276000, Note_on_c, 2, 69, 95
4, 276000, Note_on_c, 2, 64, 95
4, 276000, Note_on_c, 2, 59, 95
4, 276000, Note_on_c, 2, 52, 95
4, 276480, Note_off_c, 2, 69, 95
4, 276480, Note_off_c, 2, 64, 95
4, 276480, Note_off_c, 2, 59, 95
4, 276480, Note_off_c, 2, 52, 95
4, 276480, Note_on_c, 2, 68, 95
4, 276480, Note_on_c, 2, 64, 95
4, 276480, Note_on_c, 2, 59, 95
4, 276480, Note_on_c, 2, 52, 95
4, 291840, Note_off_c, 2, 68, 95
4, 291840, Note_off_c, 2, 64, 95
4, 291840, Note_off_c, 2, 59, 95
4, 291840, Note_off_c, 2, 52, 95
4, 304800, Note_on_c, 2, 69, 95
4, 304800, Note_on_c, 2, 64, 95
4, 304800, Note_on_c, 2, 59, 95
4, 304800, Note_on_c, 2, 52, 95
4, 305760, Note_off_c, 2, 69, 95
4, 305760, Note_off_c, 2, 64, 95
4, 305760, Note_off_c, 2, 59, 95
4, 305760, Note_off_c, 2, 52, 95
4, 305760, Note_on_c, 2, 69, 95
4, 305760, Note_on_c, 2, 64, 95
4, 305760, Note_on_c, 2, 59, 95
4, 305760, Note_on_c, 2, 52, 95
4, 306720, Note_off_c, 2, 69, 95
4, 306720, Note_off_c, 2, 64, 95
4, 306720, Note_off_c, 2, 59, 95
4, 306720, Note_off_c, 2, 52, 95
4, 306720, Note_on_c, 2, 69, 95
4, 306720, Note_on_c, 2, 64, 95
4, 306720, Note_on_c, 2, 59, 95
4, 306720, Note_on_c, 2, 52, 95
4, 307200, Note_off_c, 2, 69, 95
4, 307200, Note_off_c, 2, 64, 95
4, 307200, Note_off_c, 2, 59, 95
4, 307200, Note_off_c, 2, 52, 95
4, 307200, Note_on_c, 2, 68, 95
4, 307200, Note_on_c, 2, 64, 95
4, 307200, Note_on_c, 2, 59, 95
4, 307200, Note_on_c, 2, 52, 95
4, 322560, Note_off_c, 2, 68, 95
4, 322560, Note_off_c, 2, 64, 95
4, 322560, Note_off_c, 2, 59, 95
4, 322560, Note_off_c, 2, 52, 95
4, 329760, Note_on_c, 2, 68, 95
4, 329760, Note_on_c, 2, 64, 95
4, 329760, Note_on_c, 2, 59, 95
4, 329760, Note_on_c, 2, 52, 95
4, 335520, Note_off_c, 2, 68, 95
4, 335520, Note_off_c, 2, 64, 95
4, 335520, Note_off_c, 2, 59, 95
4, 335520, Note_off_c, 2, 52, 95
4, 335520, Note_on_c, 2, 69, 95
4, 335520, Note_on_c, 2, 64, 95
4, 335520, Note_on_c, 2, 59, 95
4, 335520, Note_on_c, 2, 52, 95
4, 336480, Note_off_c, 2, 69, 95
4, 336480, Note_off_c, 2, 64, 95
4, 336480, Note_off_c, 2, 59, 95
4, 336480, Note_off_c, 2, 52, 95
4, 336480, Note_on_c, 2, 69, 95
4, 336480, Note_on_c, 2, 64, 95
4, 336480, Note_on_c, 2, 59, 95
4, 336480, Note_on_c, 2, 52, 95
4, 337440, Note_off_c, 2, 69, 95
4, 337440, Note_off_c, 2, 64, 95
4, 337440, Note_off_c, 2, 59, 95
4, 337440, Note_off_c, 2, 52, 95
4, 337440, Note_on_c, 2, 69, 95
4, 337440, Note_on_c, 2, 64, 95
4, 337440, Note_on_c, 2, 59, 95
4, 337440, Note_on_c, 2, 52, 95
4, 337920, Note_off_c, 2, 69, 95
4, 337920, Note_off_c, 2, 64, 95
4, 337920, Note_off_c, 2, 59, 95
4, 337920, Note_off_c, 2, 52, 95
4, 337920, Note_on_c, 2, 68, 95
4, 337920, Note_on_c, 2, 64, 95
4, 337920, Note_on_c, 2, 59, 95
4, 337920, Note_on_c, 2, 52, 95
4, 353280, Note_off_c, 2, 68, 95
4, 353280, Note_off_c, 2, 64, 95
4, 353280, Note_off_c, 2, 59, 95
4, 353280, Note_off_c, 2, 52, 95
4, 414720, Note_on_c, 2, 49, 95
4, 416160, Note_off_c, 2, 49, 95
4, 416160, Note_on_c, 2, 47, 95
4, 416640, Note_off_c, 2, 47, 95
4, 416640, Note_on_c, 2, 49, 95
4, 417120, Note_off_c, 2, 49, 95
4, 417120, Note_on_c, 2, 52, 95
4, 418080, Note_off_c, 2, 52, 95
4, 418080, Note_on_c, 2, 54, 95
4, 420480, Note_off_c, 2, 54, 95
4, 420480, Note_on_c, 2, 54, 95
4, 420960, Note_off_c, 2, 54, 95
4, 420960, Note_on_c, 2, 52, 95
4, 421440, Note_off_c, 2, 52, 95
4, 421440, Note_on_c, 2, 47, 95
4, 422400, Note_off_c, 2, 47, 95
4, 422400, Note_on_c, 2, 52, 95
4, 426240, Note_off_c, 2, 52, 95
4, 445440, Note_on_c, 2, 49, 95
4, 446880, Note_off_c, 2, 49, 95
4, 446880, Note_on_c, 2, 47, 95
4, 447360, Note_off_c, 2, 47, 95
4, 447360, Note_on_c, 2, 49, 95
4, 447840, Note_off_c, 2, 49, 95
4, 447840, Note_on_c, 2, 52, 95
4, 448800, Note_off_c, 2, 52, 95
4, 448800, Note_on_c, 2, 54, 95
4, 451200, Note_off_c, 2, 54, 95
4, 451200, Note_on_c, 2, 54, 95
4, 451680, Note_off_c, 2, 54, 95
4, 451680, Note_on_c, 2, 52, 95
4, 452160, Note_off_c, 2, 52, 95
4, 452160, Note_on_c, 2, 47, 95
4, 453120, Note_off_c, 2, 47, 95
4, 453120, Note_on_c, 2, 52, 95
4, 456960, Note_off_c, 2, 52, 95
4, 506880, Note_on_c, 2, 49, 95
4, 508320, Note_off_c, 2, 49, 95
4, 508320, Note_on_c, 2, 47, 95
4, 508800, Note_off_c, 2, 47, 95
4, 508800, Note_on_c, 2, 49, 95
4, 509280, Note_off_c, 2, 49, 95
4, 509280, Note_on_c, 2, 52, 95
4, 510240, Note_off_c, 2, 52, 95
4, 510240, Note_on_c, 2, 54, 95
4, 512640, Note_off_c, 2, 54, 95
4, 512640, Note_on_c, 2, 54, 95
4, 513120, Note_off_c, 2, 54, 95
4, 513120, Note_on_c, 2, 52, 95
4, 513600, Note_off_c, 2, 52, 95
4, 513600, Note_on_c, 2, 47, 95
4, 514560, Note_off_c, 2, 47, 95
4, 514560, Note_on_c, 2, 52, 95
4, 518400, Note_off_c, 2, 52, 95
4, 523200, Note_on_c, 3, 57, 95
4, 523360, Pitch_bend_c, 3, 8192
4, 523520, Pitch_bend_c, 3, 8320
4, 523680, Pitch_bend_c, 3, 8192
4, 523840, Pitch_bend_c, 3, 8320
4, 524000, Pitch_bend_c, 3, 8192
4, 524160, Pitch_bend_c, 3, 8320
4, 524320, Pitch_bend_c, 3, 8192
4, 524480, Pitch_bend_c, 3, 8320
4, 524640, Pitch_bend_c, 3, 8192
4, 524640, Pitch_bend_c, 3, 8320
4, 524640, Pitch_bend_c, 3, 8192
4, 524640, Note_off_c, 3, 57, 95
4, 524640, Note_on_c, 3, 57, 95
4, 524800, Pitch_bend_c, 3, 8192
4, 524960, Pitch_bend_c, 3, 8320
4, 525120, Pitch_bend_c, 3, 8192
4, 525280, Pitch_bend_c, 3, 8320
4, 525440, Pitch_bend_c, 3, 8192
4, 525600, Pitch_bend_c, 3, 8320
4, 525600, Pitch_bend_c, 3, 8192
4, 525600, Note_off_c, 3, 57, 95
4, 525600, Note_on_c, 3, 57, 95
4, 525760, Pitch_bend_c, 3, 8192
4, 525920, Pitch_bend_c, 3, 8320
4, 526080, Pitch_bend_c, 3, 8192
4, 526240, Pitch_bend_c, 3, 8320
4, 526400, Pitch_bend_c, 3, 8192
4, 526560, Pitch_bend_c, 3, 8320
4, 526720, Pitch_bend_c, 3, 8192
4, 526880, Pitch_bend_c, 3, 8320
4, 527040, Pitch_bend_c, 3, 8192
4, 527040, Pitch_bend_c, 3, 8320
4, 527040, Pitch_bend_c, 3, 8192
4, 527040, Note_off_c, 3, 57, 95
4, 527040, Note_on_c, 3, 57, 95
4, 527200, Pitch_bend_c, 3, 8192
4, 527360, Pitch_bend_c, 3, 8320
4, 527520, Pitch_bend_c, 3, 8192
4, 527680, Pitch_bend_c, 3, 8320
4, 527840, Pitch_bend_c, 3, 8192
4, 528000, Pitch_bend_c, 3, 8320
4, 528000, Pitch_bend_c, 3, 8192
4, 528000, Note_off_c, 3, 57, 95
4, 528000, Note_on_c, 3, 57, 95
4, 528160, Pitch_bend_c, 3, 8192
4, 528320, Pitch_bend_c, 3, 8320
4, 528480, Pitch_bend_c, 3, 8192
4, 528480, Pitch_bend_c, 3, 8320
4, 528480, Pitch_bend_c, 3, 8192
4, 528480, Note_off_c, 3, 57, 95
4, 528480, Pitch_bend_c, 3, 8192
4, 528480, Note_on_c, 3, 54, 95
4, 528672, Pitch_bend_c, 3, 8320
4, 528864, Pitch_bend_c, 3, 8448
4, 529056, Pitch_bend_c, 3, 8576
4, 529248, Pitch_bend_c, 3, 8704
4, 529440, Pitch_bend_c, 3, 8832
4, 529440, Pitch_bend_c, 3, 8832
4, 529440, Pitch_bend_c, 3, 8192
4, 529440, Note_off_c, 3, 54, 95
4, 529440, Note_on_c, 3, 52, 95
4, 529600, Pitch_bend_c, 3, 8192
4, 529760, Pitch_bend_c, 3, 8320
4, 529920, Pitch_bend_c, 3, 8192
4, 530080, Pitch_bend_c, 3, 8320
4, 530240, Pitch_bend_c, 3, 8192
4, 530400, Pitch_bend_c, 3, 8320
4, 530560, Pitch_bend_c, 3, 8192
4, 530720, Pitch_bend_c, 3, 8320
4, 530880, Pitch_bend_c, 3, 8192
4, 530880, Pitch_bend_c, 3, 8320
4, 530880, Pitch_bend_c, 3, 8192
4, 530880, Note_off_c, 3, 52, 95
4, 530880, Note_on_c, 3, 52, 95
4, 531040, Pitch_bend_c, 3, 8192
4, 531200, Pitch_bend_c, 3, 8320
4, 531360, Pitch_bend_c, 3, 8192
4, 531520, Pitch_bend_c, 3, 8320
4, 531680, Pitch_bend_c, 3, 8192
4, 531840, Pitch_bend_c, 3, 8320
4, 531840, Pitch_bend_c, 3, 8192
4, 531840, Note_off_c, 3, 52, 95
4, 531840, Note_on_c, 3, 52, 95
4, 532000, Pitch_bend_c, 3, 8192
4, 532160, Pitch_bend_c, 3, 8320
4, 532320, Pitch_bend_c, 3, 8192
4, 532320, Pitch_bend_c, 3, 8320
4, 532320, Pitch_bend_c, 3, 8192
4, 532320, Note_off_c, 3, 52, 95
4, 532320, Pitch_bend_c, 3, 8192
4, 532320, Note_on_c, 3, 49, 95
4, 532800, Pitch_bend_c, 3, 8320
4, 533280, Pitch_bend_c, 3, 8448
4, 533280, Pitch_bend_c, 3, 8448
4, 533280, Pitch_bend_c, 3, 8192
4, 533280, Note_off_c, 3, 49, 95
4, 533280, Note_on_c, 3, 47, 95
4, 533440, Pitch_bend_c, 3, 8192
4, 533600, Pitch_bend_c, 3, 8320
4, 533760, Pitch_bend_c, 3, 8192
4, 533920, Pitch_bend_c, 3, 8320
4, 534080, Pitch_bend_c, 3, 8192
4, 534240, Pitch_bend_c, 3, 8320
4, 534400, Pitch_bend_c, 3, 8192
4, 534560, Pitch_bend_c, 3, 8320
4, 534720, Pitch_bend_c, 3, 8192
4, 534720, Pitch_bend_c, 3, 8320
4, 534720, Pitch_bend_c, 3, 8192
4, 534720, Note_off_c, 3, 47, 95
4, 534720, Note_on_c, 3, 47, 95
4, 534880, Pitch_bend_c, 3, 8192
4, 535040, Pitch_bend_c, 3, 8320
4, 535200, Pitch_bend_c, 3, 8192
4, 535360, Pitch_bend_c, 3, 8320
4, 535520, Pitch_bend_c, 3, 8192
4, 535680, Pitch_bend_c, 3, 8320
4, 535840, Pitch_bend_c, 3, 8192
4, 536000, Pitch_bend_c, 3, 8320
4, 536160, Pitch_bend_c, 3, 8192
4, 536160, Pitch_bend_c, 3, 8320
4, 536160, Pitch_bend_c, 3, 8192
4, 536160, Note_off_c, 3, 47, 95
4, 536160, Note_on_c, 3, 47, 95
4, 536320, Pitch_bend_c, 3, 8192
4, 536480, Pitch_bend_c, 3, 8320
4, 536640, Pitch_bend_c, 3, 8192
4, 536800, Pitch_bend_c, 3, 8320
4, 536960, Pitch_bend_c, 3, 8192
4, 537120, Pitch_bend_c, 3, 8320
4, 537120, Pitch_bend_c, 3, 8192
4, 537120, Note_off_c, 3, 47, 95
4, 537600, Note_on_c, 2, 47, 95
4, 539040, Note_off_c, 2, 47, 95
4, 539040, Note_on_c, 2, 47, 95
4, 539520, Note_off_c, 2, 47, 95
4, 539520, Note_on_c, 2, 49, 95
4, 540000, Note_off_c, 2, 49, 95
4, 540000, Note_on_c, 2, 52, 95
4, 540960, Note_off_c, 2, 52, 95
4, 540960, Note_on_c, 2, 54, 95
4, 543360, Note_off_c, 2, 54, 95
4, 543360, Note_on_c, 2, 54, 95
4, 543840, Note_off_c, 2, 54, 95
4, 543840, Note_on_c, 2, 52, 95
4, 544320, Note_off_c, 2, 52, 95
4, 544320, Note_on_c, 2, 47, 95
4, 545280, Note_off_c, 2, 47, 95
4, 545280, Note_on_c, 2, 52, 95
4, 549120, Note_off_c, 2, 52, 95
4, 568320, Note_on_c, 2, 49, 95
4, 569760, Note_off_c, 2, 49, 95
4, 569760, Note_on_c, 2, 47, 95
4, 570240, Note_off_c, 2, 47, 95
4, 570240, Note_on_c, 2, 49, 95
4, 570720, Note_off_c, 2, 49, 95
4, 570720, Note_on_c, 2, 52, 95
4, 571680, Note_off_c, 2, 52, 95
4, 571680, Note_on_c, 2, 54, 95
4, 574080, Note_off_c, 2, 54, 95
4, 574080, Note_on_c, 2, 54, 95
4, 574560, Note_off_c, 2, 54, 95
4, 574560, Note_on_c, 2, 52, 95
4, 575040, Note_off_c, 2, 52, 95
4, 575040, Note_on_c, 2, 47, 95
4, 576000, Note_off_c, 2, 47, 95
4, 576000, Note_on_c, 2, 52, 95
4, 579840, Note_off_c, 2, 52, 95
4, 599040, Note_on_c, 2, 49, 95
4, 600480, Note_off_c, 2, 49, 95
4, 600480, Note_on_c, 2, 47, 95
4, 600960, Note_off_c, 2, 47, 95
4, 600960, Note_on_c, 2, 49, 95
4, 601440, Note_off_c, 2, 49, 95
4, 601440, Note_on_c, 2, 52, 95
4, 602400, Note_off_c, 2, 52, 95
4, 602400, Note_on_c, 2, 54, 95
4, 604800, Note_off_c, 2, 54, 95
4, 604800, Note_on_c, 2, 54, 95
4, 605280, Note_off_c, 2, 54, 95
4, 605280, Note_on_c, 2, 52, 95
4, 605760, Note_off_c, 2, 52, 95
4, 605760, Note_on_c, 2, 47, 95
4, 606720, Note_off_c, 2, 47, 95
4, 606720, Note_on_c, 2, 52, 95
4, 610560, Note_off_c, 2, 52, 95
4, 610560, End_track
5, 0, Start_track
5, 0, Pitch_bend_c, 6, 8192
5, 0, Control_c, 6, 7, 95
5, 0, Control_c, 6, 10, 63
5, 0, Control_c, 6, 93, 0
5, 0, Control_c, 6, 91, 0
5, 0, Control_c, 6, 95, 0
5, 0, Control_c, 6, 92, 0
5, 0, Control_c, 6, 11, 127
5, 0, Program_c, 6, 27
5, 0, Control_c, 7, 7, 95
5, 0, Control_c, 7, 10, 63
5, 0, Control_c, 7, 93, 0
5, 0, Control_c, 7, 91, 0
5, 0, Control_c, 7, 95, 0
5, 0, Control_c, 7, 92, 0
5, 0, Control_c, 7, 11, 127
5, 0, Program_c, 7, 27
5, 46080, Note_on_c, 6, 52, 95
5, 46560, Note_off_c, 6, 52, 95
5, 46560, Note_on_c, 6, 64, 95
5, 47040, Note_off_c, 6, 64, 95
5, 47040, Note_on_c, 6, 57, 95
5, 47520, Note_off_c, 6, 57, 95
5, 47520, Note_on_c, 6, 56, 95
5, 48000, Note_off_c, 6, 56, 95
5, 48000, Note_on_c, 6, 64, 95
5, 48480, Note_off_c, 6, 64, 95
5, 48480, Note_on_c, 6, 57, 95
5, 48960, Note_off_c, 6, 57, 95
5, 48960, Note_on_c, 6, 56, 95
5, 49440, Note_off_c, 6, 56, 95
5, 49440, Note_on_c, 6, 64, 95
5, 49920, Note_off_c, 6, 64, 95
5, 49920, Note_on_c, 6, 57, 95
5, 50400, Note_off_c, 6, 57, 95
5, 50400, Note_on_c, 6, 56, 95
5, 50880, Note_off_c, 6, 56, 95
5, 50880, Note_on_c, 6, 64, 95
5, 51360, Note_off_c, 6, 64, 95
5, 51360, Note_on_c, 6, 57, 95
5, 51840, Note_off_c, 6, 57, 95
5, 51840, Note_on_c, 6, 52, 95
5, 52320, Note_off_c, 6, 52, 95
5, 52320, Note_on_c, 6, 56, 95
5, 52800, Note_off_c, 6, 56, 95
5, 52800, Note_on_c, 6, 54, 95
5, 53280, Note_off_c, 6, 54, 95
5, 53280, Note_on_c, 6, 52, 95
5, 53760, Note_off_c, 6, 52, 95
5, 53760, Note_on_c, 6, 47, 95
5, 54240, Note_off_c, 6, 47, 95
5, 54240, Note_on_c, 6, 59, 95
5, 54720, Note_off_c, 6, 59, 95
5, 54720, Note_on_c, 6, 54, 95
5, 55200, Note_off_c, 6, 54, 95
5, 55200, Note_on_c, 6, 47, 95
5, 55680, Note_off_c, 6, 47, 95
5, 55680, Note_on_c, 6, 64, 95
5, 56160, Note_off_c, 6, 64, 95
5, 56160, Note_on_c, 6, 59, 95
5, 56640, Note_off_c, 6, 59, 95
5, 56640, Note_on_c, 6, 47, 95
5, 57120, Note_off_c, 6, 47, 95
5, 57120, Note_on_c, 6, 63, 95
5, 57600, Note_off_c, 6, 63, 95
5, 57600, Note_on_c, 6, 59, 95
5, 58080, Note_off_c, 6, 59, 95
5, 58080, Note_on_c, 6, 47, 95
5, 58560, Note_off_c, 6, 47, 95
5, 58560, Note_on_c, 6, 61, 95
5, 59040, Note_off_c, 6, 61, 95
5, 59040, Note_on_c, 6, 59, 95
5, 59520, Note_off_c, 6, 59, 95
5, 59520, Note_on_c, 6, 47, 95
5, 60000, Note_off_c, 6, 47, 95
5, 60000, Note_on_c, 6, 61, 95
5, 60480, Note_off_c, 6, 61, 95
5, 60480, Note_on_c, 6, 59, 95
5, 60960, Note_off_c, 6, 59, 95
5, 60960, Note_on_c, 6, 47, 95
5, 61440, Note_off_c, 6, 47, 95
5, 61440, Note_on_c, 6, 45, 95
5, 62400, Note_off_c, 6, 45, 95
5, 62400, Note_on_c, 6, 64, 95
5, 62880, Note_off_c, 6, 64, 95
5, 62880, Note_on_c, 6, 57, 95
5, 63360, Note_off_c, 6, 57, 95
5, 63360, Note_on_c, 6, 66, 95
5, 63840, Note_off_c, 6, 66, 95
5, 63840, Note_on_c, 6, 64, 95
5, 64320, Note_off_c, 6, 64, 95
5, 64320, Note_on_c, 6, 57, 95
5, 64800, Note_off_c, 6, 57, 95
5, 64800, Note_on_c, 6, 47, 95
5, 65760, Note_off_c, 6, 47, 95
5, 65760, Note_on_c, 6, 64, 95
5, 66240, Note_off_c, 6, 64, 95
5, 66240, Note_on_c, 6, 59, 95
5, 66720, Note_off_c, 6, 59, 95
5, 66720, Note_on_c, 6, 68, 95
5, 67680, Note_off_c, 6, 68, 95
5, 67680, Note_on_c, 6, 66, 95
5, 68160, Note_off_c, 6, 66, 95
5, 68160, Note_on_c, 6, 64, 95
5, 68640, Note_off_c, 6, 64, 95
5, 68640, Note_on_c, 6, 63, 95
5, 69120, Note_off_c, 6, 63, 95
5, 69120, Note_on_c, 6, 68, 95
5, 69120, Note_on_c, 6, 64, 95
5, 69120, Note_on_c, 6, 59, 95
5, 69120, Note_on_c, 6, 52, 95
5, 74400, Note_off_c, 6, 68, 95
5, 74400, Note_off_c, 6, 64, 95
5, 74400, Note_off_c, 6, 59, 95
5, 74400, Note_off_c, 6, 52, 95
5, 74400, Note_on_c, 6, 69, 95
5, 74400, Note_on_c, 6, 64, 95
5, 74400, Note_on_c, 6, 59, 95
5, 74400, Note_on_c, 6, 52, 95
5, 75360, Note_off_c, 6, 69, 95
5, 75360, Note_off_c, 6, 64, 95
5, 75360, Note_off_c, 6, 59, 95
5, 75360, Note_off_c, 6, 52, 95
5, 75360, Note_on_c, 6, 69, 95
5, 75360, Note_on_c, 6, 64, 95
5, 75360, Note_on_c, 6, 59, 95
5, 75360, Note_on_c, 6, 52, 95
5, 76320, Note_off_c, 6, 69, 95
5, 76320, Note_off_c, 6, 64, 95
5, 76320, Note_off_c, 6, 59, 95
5, 76320, Note_off_c, 6, 52, 95
5, 76320, Note_on_c, 6, 69, 95
5, 76320, Note_on_c, 6, 64, 95
5, 76320, Note_on_c, 6, 59, 95
5, 76320, Note_on_c, 6, 52, 95
5, 76800, Note_off_c, 6, 69, 95
5, 76800, Note_off_c, 6, 64, 95
5, 76800, Note_off_c, 6, 59, 95
5, 76800, Note_off_c, 6, 52, 95
5, 76800, Note_on_c, 6, 68, 95
5, 76800, Note_on_c, 6, 64, 95
5, 76800, Note_on_c, 6, 59, 95
5, 76800, Note_on_c, 6, 52, 95
5, 83040, Note_off_c, 6, 68, 95
5, 83040, Note_off_c, 6, 64, 95
5, 83040, Note_off_c, 6, 59, 95
5, 83040, Note_off_c, 6, 52, 95
5, 83040, Note_on_c, 6, 56, 95
5, 83520, Note_off_c, 6, 56, 95
5, 83520, Note_on_c, 6, 54, 95
5, 84000, Note_off_c, 6, 54, 95
5, 84000, Note_on_c, 6, 52, 95
5, 84480, Note_off_c, 6, 52, 95
5, 84480, Note_on_c, 6, 47, 95
5, 84960, Note_off_c, 6, 47, 95
5, 84960, Note_on_c, 6, 59, 95
5, 85440, Note_off_c, 6, 59, 95
5, 85440, Note_on_c, 6, 54, 95
5, 85920, Note_off_c, 6, 54, 95
5, 85920, Note_on_c, 6, 47, 95
5, 86400, Note_off_c, 6, 47, 95
5, 86400, Note_on_c, 6, 64, 95
5, 86880, Note_off_c, 6, 64, 95
5, 86880, Note_on_c, 6, 59, 95
5, 87360, Note_off_c, 6, 59, 95
5, 87360, Note_on_c, 6, 47, 95
5, 87840, Note_off_c, 6, 47, 95
5, 87840, Note_on_c, 6, 63, 95
5, 88320, Note_off_c, 6, 63, 95
5, 88320, Note_on_c, 6, 59, 95
5, 88800, Note_off_c, 6, 59, 95
5, 88800, Note_on_c, 6, 47, 95
5, 89280, Note_off_c, 6, 47, 95
5, 89280, Note_on_c, 6, 61, 95
5, 89760, Note_off_c, 6, 61, 95
5, 89760, Note_on_c, 6, 59, 95
5, 90240, Note_off_c, 6, 59, 95
5, 90240, Note_on_c, 6, 47, 95
5, 90720, Note_off_c, 6, 47, 95
5, 90720, Note_on_c, 6, 61, 95
5, 91200, Note_off_c, 6, 61, 95
5, 91200, Note_on_c, 6, 59, 95
5, 91680, Note_off_c, 6, 59, 95
5, 91680, Note_on_c, 6, 47, 95
5, 92160, Note_off_c, 6, 47, 95
5, 92160, Note_on_c, 6, 45, 95
5, 93120, Note_off_c, 6, 45, 95
5, 93120, Note_on_c, 6, 64, 95
5, 93600, Note_off_c, 6, 64, 95
5, 93600, Note_on_c, 6, 57, 95
5, 94080, Note_off_c, 6, 57, 95
5, 94080, Note_on_c, 6, 66, 95
5, 94560, Note_off_c, 6, 66, 95
5, 94560, Note_on_c, 6, 64, 95
5, 95040, Note_off_c, 6, 64, 95
5, 95040, Note_on_c, 6, 57, 95
5, 95520, Note_off_c, 6, 57, 95
5, 95520, Note_on_c, 6, 47, 95
5, 96480, Note_off_c, 6, 47, 95
5, 96480, Note_on_c, 6, 64, 95
5, 96960, Note_off_c, 6, 64, 95
5, 96960, Note_on_c, 6, 59, 95
5, 97440, Note_off_c, 6, 59, 95
5, 97440, Note_on_c, 6, 68, 95
5, 98400, Note_off_c, 6, 68, 95
5, 98400, Note_on_c, 6, 66, 95
5, 98880, Note_off_c, 6, 66, 95
5, 98880, Note_on_c, 6, 64, 95
5, 99360, Note_off_c, 6, 64, 95
5, 99360, Note_on_c, 6, 63, 95
5, 99840, Note_off_c, 6, 63, 95
5, 99840, Note_on_c, 6, 68, 95
5, 99840, Note_on_c, 6, 64, 95
5, 99840, Note_on_c, 6, 59, 95
5, 99840, Note_on_c, 6, 52, 95
5, 105120, Note_off_c, 6, 68, 95
5, 105120, Note_off_c, 6, 64, 95
5, 105120, Note_off_c, 6, 59, 95
5, 105120, Note_off_c, 6, 52, 95
5, 105120, Note_on_c, 6, 69, 95
5, 105120, Note_on_c, 6, 64, 95
5, 105120, Note_on_c, 6, 59, 95
5, 105120, Note_on_c, 6, 52, 95
5, 106080, Note_off_c, 6, 69, 95
5, 106080, Note_off_c, 6, 64, 95
5, 106080, Note_off_c, 6, 59, 95
5, 106080, Note_off_c, 6, 52, 95
5, 106080, Note_on_c, 6, 69, 95
5, 106080, Note_on_c, 6, 64, 95
5, 106080, Note_on_c, 6, 59, 95
5, 106080, Note_on_c, 6, 52, 95
5, 107040, Note_off_c, 6, 69, 95
5, 107040, Note_off_c, 6, 64, 95
5, 107040, Note_off_c, 6, 59, 95
5, 107040, Note_off_c, 6, 52, 95
5, 107040, Note_on_c, 6, 69, 95
5, 107040, Note_on_c, 6, 64, 95
5, 107040, Note_on_c, 6, 59, 95
5, 107040, Note_on_c, 6, 52, 95
5, 107520, Note_off_c, 6, 69, 95
5, 107520, Note_off_c, 6, 64, 95
5, 107520, Note_off_c, 6, 59, 95
5, 107520, Note_off_c, 6, 52, 95
5, 107520, Note_on_c, 6, 52, 95
5, 108000, Note_off_c, 6, 52, 95
5, 108000, Note_on_c, 6, 64, 95
5, 108480, Note_off_c, 6, 64, 95
5, 108480, Note_on_c, 6, 57, 95
5, 108960, Note_off_c, 6, 57, 95
5, 108960, Note_on_c, 6, 56, 95
5, 109440, Note_off_c, 6, 56, 95
5, 109440, Note_on_c, 6, 64, 95
5, 109920, Note_off_c, 6, 64, 95
5, 109920, Note_on_c, 6, 57, 95
5, 110400, Note_off_c, 6, 57, 95
5, 110400, Note_on_c, 6, 56, 95
5, 110880, Note_off_c, 6, 56, 95
5, 110880, Note_on_c, 6, 64, 95
5, 111360, Note_off_c, 6, 64, 95
5, 111360, Note_on_c, 6, 57, 95
5, 111840, Note_off_c, 6, 57, 95
5, 111840, Note_on_c, 6, 56, 95
5, 112320, Note_off_c, 6, 56, 95
5, 112320, Note_on_c, 6, 64, 95
5, 112800, Note_off_c, 6, 64, 95
5, 112800, Note_on_c, 6, 57, 95
5, 113280, Note_off_c, 6, 57, 95
5, 113280, Note_on_c, 6, 52, 95
5, 113760, Note_off_c, 6, 52, 95
5, 113760, Note_on_c, 6, 56, 95
5, 114240, Note_off_c, 6, 56, 95
5, 114240, Note_on_c, 6, 54, 95
5, 114720, Note_off_c, 6, 54, 95
5, 114720, Note_on_c, 6, 52, 95
5, 115200, Note_off_c, 6, 52, 95
5, 115200, Note_on_c, 6, 47, 95
5, 115680, Note_off_c, 6, 47, 95
5, 115680, Note_on_c, 6, 59, 95
5, 116160, Note_off_c, 6, 59, 95
5, 116160, Note_on_c, 6, 54, 95
5, 116640, Note_off_c, 6, 54, 95
5, 116640, Note_on_c, 6, 47, 95
5, 117120, Note_off_c, 6, 47, 95
5, 117120, Note_on_c, 6, 64, 95
5, 117600, Note_off_c, 6, 64, 95
5, 117600, Note_on_c, 6, 59, 95
5, 118080, Note_off_c, 6, 59, 95
5, 118080, Note_on_c, 6, 47, 95
5, 118560, Note_off_c, 6, 47, 95
5, 118560, Note_on_c, 6, 63, 95
5, 119040, Note_off_c, 6, 63, 95
5, 119040, Note_on_c, 6, 59, 95
5, 119520, Note_off_c, 6, 59, 95
5, 119520, Note_on_c, 6, 47, 95
5, 120000, Note_off_c, 6, 47, 95
5, 120000, Note_on_c, 6, 61, 95
5, 120480, Note_off_c, 6, 61, 95
5, 120480, Note_on_c, 6, 59, 95
5, 120960, Note_off_c, 6, 59, 95
5, 120960, Note_on_c, 6, 47, 95
5, 121440, Note_off_c, 6, 47, 95
5, 121440, Note_on_c, 6, 61, 95
5, 121920, Note_off_c, 6, 61, 95
5, 121920, Note_on_c, 6, 59, 95
5, 122400, Note_off_c, 6, 59, 95
5, 122400, Note_on_c, 6, 47, 95
5, 122880, Note_off_c, 6, 47, 95
5, 122880, Note_on_c, 6, 45, 95
5, 123840, Note_off_c, 6, 45, 95
5, 123840, Note_on_c, 6, 64, 95
5, 124320, Note_off_c, 6, 64, 95
5, 124320, Note_on_c, 6, 57, 95
5, 124800, Note_off_c, 6, 57, 95
5, 124800, Note_on_c, 6, 66, 95
5, 125280, Note_off_c, 6, 66, 95
5, 125280, Note_on_c, 6, 64, 95
5, 125760, Note_off_c, 6, 64, 95
5, 125760, Note_on_c, 6, 57, 95
5, 126240, Note_off_c, 6, 57, 95
5, 126240, Note_on_c, 6, 47, 95
5, 127200, Note_off_c, 6, 47, 95
5, 127200, Note_on_c, 6, 64, 95
5, 127680, Note_off_c, 6, 64, 95
5, 127680, Note_on_c, 6, 59, 95
5, 128160, Note_off_c, 6, 59, 95
5, 128160, Note_on_c, 6, 68, 95
5, 129120, Note_off_c, 6, 68, 95
5, 129120, Note_on_c, 6, 66, 95
5, 129600, Note_off_c, 6, 66, 95
5, 129600, Note_on_c, 6, 64, 95
5, 130080, Note_off_c, 6, 64, 95
5, 130080, Note_on_c, 6, 63, 95
5, 130560, Note_off_c, 6, 63, 95
5, 130560, Note_on_c, 6, 68, 95
5, 130560, Note_on_c, 6, 64, 95
5, 130560, Note_on_c, 6, 59, 95
5, 130560, Note_on_c, 6, 52, 95
5, 135840, Note_off_c, 6, 68, 95
5, 135840, Note_off_c, 6, 64, 95
5, 135840, Note_off_c, 6, 59, 95
5, 135840, Note_off_c, 6, 52, 95
5, 135840, Note_on_c, 6, 69, 95
5, 135840, Note_on_c, 6, 64, 95
5, 135840, Note_on_c, 6, 59, 95
5, 135840, Note_on_c, 6, 52, 95
5, 136800, Note_off_c, 6, 69, 95
5, 136800, Note_off_c, 6, 64, 95
5, 136800, Note_off_c, 6, 59, 95
5, 136800, Note_off_c, 6, 52, 95
5, 136800, Note_on_c, 6, 69, 95
5, 136800, Note_on_c, 6, 64, 95
5, 136800, Note_on_c, 6, 59, 95
5, 136800, Note_on_c, 6, 52, 95
5, 137760, Note_off_c, 6, 69, 95
5, 137760, Note_off_c, 6, 64, 95
5, 137760, Note_off_c, 6, 59, 95
5, 137760, Note_off_c, 6, 52, 95
5, 137760, Note_on_c, 6, 69, 95
5, 137760, Note_on_c, 6, 64, 95
5, 137760, Note_on_c, 6, 59, 95
5, 137760, Note_on_c, 6, 52, 95
5, 138240, Note_off_c, 6, 69, 95
5, 138240, Note_off_c, 6, 64, 95
5, 138240, Note_off_c, 6, 59, 95
5, 138240, Note_off_c, 6, 52, 95
5, 138240, Note_on_c, 6, 68, 95
5, 138240, Note_on_c, 6, 64, 95
5, 138240, Note_on_c, 6, 59, 95
5, 138240, Note_on_c, 6, 52, 95
5, 153600, Note_off_c, 6, 68, 95
5, 153600, Note_off_c, 6, 64, 95
5, 153600, Note_off_c, 6, 59, 95
5, 153600, Note_off_c, 6, 52, 95
5, 166560, Note_on_c, 6, 69, 95
5, 166560, Note_on_c, 6, 64, 95
5, 166560, Note_on_c, 6, 59, 95
5, 166560, Note_on_c, 6, 52, 95
5, 167520, Note_off_c, 6, 69, 95
5, 167520, Note_off_c, 6, 64, 95
5, 167520, Note_off_c, 6, 59, 95
5, 167520, Note_off_c, 6, 52, 95
5, 167520, Note_on_c, 6, 69, 95
5, 167520, Note_on_c, 6, 64, 95
5, 167520, Note_on_c, 6, 59, 95
5, 167520, Note_on_c, 6, 52, 95
5, 168480, Note_off_c, 6, 69, 95
5, 168480, Note_off_c, 6, 64, 95
5, 168480, Note_off_c, 6, 59, 95
5, 168480, Note_off_c, 6, 52, 95
5, 168480, Note_on_c, 6, 69, 95
5, 168480, Note_on_c, 6, 64, 95
5, 168480, Note_on_c, 6, 59, 95
5, 168480, Note_on_c, 6, 52, 95
5, 168960, Note_off_c, 6, 69, 95
5, 168960, Note_off_c, 6, 64, 95
5, 168960, Note_off_c, 6, 59, 95
5, 168960, Note_off_c, 6, 52, 95
5, 168960, Note_on_c, 6, 68, 95
5, 168960, Note_on_c, 6, 64, 95
5, 168960, Note_on_c, 6, 59, 95
5, 168960, Note_on_c, 6, 52, 95
5, 175200, Note_off_c, 6, 68, 95
5, 175200, Note_off_c, 6, 64, 95
5, 175200, Note_off_c, 6, 59, 95
5, 175200, Note_off_c, 6, 52, 95
5, 175200, Note_on_c, 6, 56, 95
5, 175680, Note_off_c, 6, 56, 95
5, 175680, Note_on_c, 6, 54, 95
5, 176160, Note_off_c, 6, 54, 95
5, 176160, Note_on_c, 6, 52, 95
5, 176640, Note_off_c, 6, 52, 95
5, 176640, Note_on_c, 6, 47, 95
5, 177120, Note_off_c, 6, 47, 95
5, 177120, Note_on_c, 6, 59, 95
5, 177600, Note_off_c, 6, 59, 95
5, 177600, Note_on_c, 6, 54, 95
5, 178080, Note_off_c, 6, 54, 95
5, 178080, Note_on_c, 6, 47, 95
5, 178560, Note_off_c, 6, 47, 95
5, 178560, Note_on_c, 6, 64, 95
5, 179040, Note_off_c, 6, 64, 95
5, 179040, Note_on_c, 6, 59, 95
5, 179520, Note_off_c, 6, 59, 95
5, 179520, Note_on_c, 6, 47, 95
5, 180000, Note_off_c, 6, 47, 95
5, 180000, Note_on_c, 6, 63, 95
5, 180480, Note_off_c, 6, 63, 95
5, 180480, Note_on_c, 6, 59, 95
5, 180960, Note_off_c, 6, 59, 95
5, 180960, Note_on_c, 6, 47, 95
5, 181440, Note_off_c, 6, 47, 95
5, 181440, Note_on_c, 6, 61, 95
5, 181920, Note_off_c, 6, 61, 95
5, 181920, Note_on_c, 6, 59, 95
5, 182400, Note_off_c, 6, 59, 95
5, 182400, Note_on_c, 6, 47, 95
5, 182880, Note_off_c, 6, 47, 95
5, 182880, Note_on_c, 6, 61, 95
5, 183360, Note_off_c, 6, 61, 95
5, 183360, Note_on_c, 6, 59, 95
5, 183840, Note_off_c, 6, 59, 95
5, 183840, Note_on_c, 6, 47, 95
5, 184320, Note_off_c, 6, 47, 95
5, 184320, Note_on_c, 6, 45, 95
5, 185280, Note_off_c, 6, 45, 95
5, 185280, Note_on_c, 6, 64, 95
5, 185760, Note_off_c, 6, 64, 95
5, 185760, Note_on_c, 6, 57, 95
5, 186240, Note_off_c, 6, 57, 95
5, 186240, Note_on_c, 6, 66, 95
5, 186720, Note_off_c, 6, 66, 95
5, 186720, Note_on_c, 6, 64, 95
5, 187200, Note_off_c, 6, 64, 95
5, 187200, Note_on_c, 6, 57, 95
5, 187680, Note_off_c, 6, 57, 95
5, 187680, Note_on_c, 6, 47, 95
5, 188640, Note_off_c, 6, 47, 95
5, 188640, Note_on_c, 6, 64, 95
5, 189120, Note_off_c, 6, 64, 95
5, 189120, Note_on_c, 6, 59, 95
5, 189600, Note_off_c, 6, 59, 95
5, 189600, Note_on_c, 6, 68, 95
5, 190560, Note_off_c, 6, 68, 95
5, 190560, Note_on_c, 6, 66, 95
5, 191040, Note_off_c, 6, 66, 95
5, 191040, Note_on_c, 6, 64, 95
5, 191520, Note_off_c, 6, 64, 95
5, 191520, Note_on_c, 6, 63, 95
5, 192000, Note_off_c, 6, 63, 95
5, 192000, Note_on_c, 6, 68, 95
5, 192000, Note_on_c, 6, 64, 95
5, 192000, Note_on_c, 6, 59, 95
5, 192000, Note_on_c, 6, 52, 95
5, 197280, Note_off_c, 6, 68, 95
5, 197280, Note_off_c, 6, 64, 95
5, 197280, Note_off_c, 6, 59, 95
5, 197280, Note_off_c, 6, 52, 95
5, 197280, Note_on_c, 6, 69, 95
5, 197280, Note_on_c, 6, 64, 95
5, 197280, Note_on_c, 6, 59, 95
5, 197280, Note_on_c, 6, 52, 95
5, 199680, Note_off_c, 6, 69, 95
5, 199680, Note_off_c, 6, 64, 95
5, 199680, Note_off_c, 6, 59, 95
5, 199680, Note_off_c, 6, 52, 95
5, 199680, Note_on_c, 6, 52, 95
5, 200160, Note_off_c, 6, 52, 95
5, 200160, Note_on_c, 6, 59, 95
5, 200640, Note_off_c, 6, 59, 95
5, 200640, Note_on_c, 6, 64, 95
5, 201120, Note_off_c, 6, 64, 95
5, 201120, Note_on_c, 6, 59, 95
5, 201600, Note_off_c, 6, 59, 95
5, 201600, Note_on_c, 6, 57, 95
5, 202080, Note_off_c, 6, 57, 95
5, 202080, Note_on_c, 6, 64, 95
5, 202560, Note_off_c, 6, 64, 95
5, 202560, Note_on_c, 6, 56, 95
5, 203040, Note_off_c, 6, 56, 95
5, 203040, Note_on_c, 6, 64, 95
5, 203520, Note_off_c, 6, 64, 95
5, 203520, Note_on_c, 6, 57, 95
5, 204000, Note_off_c, 6, 57, 95
5, 204000, Note_on_c, 6, 64, 95
5, 204480, Note_off_c, 6, 64, 95
5, 204480, Note_on_c, 6, 56, 95
5, 204960, Note_off_c, 6, 56, 95
5, 204960, Note_on_c, 6, 64, 95
5, 205440, Note_off_c, 6, 64, 95
5, 205440, Note_on_c, 6, 57, 95
5, 205920, Note_off_c, 6, 57, 95
5, 205920, Note_on_c, 6, 56, 95
5, 206400, Note_off_c, 6, 56, 95
5, 206400, Note_on_c, 6, 52, 95
5, 206880, Note_off_c, 6, 52, 95
5, 206880, Note_on_c, 6, 52, 95
5, 207840, Note_off_c, 6, 52, 95
5, 207840, Note_on_c, 6, 59, 95
5, 208320, Note_off_c, 6, 59, 95
5, 208320, Note_on_c, 6, 64, 95
5, 208800, Note_off_c, 6, 64, 95
5, 208800, Note_on_c, 6, 59, 95
5, 209280, Note_off_c, 6, 59, 95
5, 209280, Note_on_c, 6, 57, 95
5, 209760, Note_off_c, 6, 57, 95
5, 209760, Note_on_c, 6, 64, 95
5, 210240, Note_off_c, 6, 64, 95
5, 210240, Note_on_c, 6, 56, 95
5, 210720, Note_off_c, 6, 56, 95
5, 210720, Note_on_c, 6, 64, 95
5, 211200, Note_off_c, 6, 64, 95
5, 211200, Note_on_c, 6, 57, 95
5, 211680, Note_off_c, 6, 57, 95
5, 211680, Note_on_c, 6, 64, 95
5, 212160, Note_off_c, 6, 64, 95
5, 212160, Note_on_c, 6, 56, 95
5, 212640, Note_off_c, 6, 56, 95
5, 212640, Note_on_c, 6, 64, 95
5, 213120, Note_off_c, 6, 64, 95
5, 213120, Note_on_c, 6, 57, 95
5, 213600, Note_off_c, 6, 57, 95
5, 213600, Note_on_c, 6, 56, 95
5, 214080, Note_off_c, 6, 56, 95
5, 214080, Note_on_c, 6, 61, 95
5, 214080, Note_on_c, 6, 57, 95
5, 214080, Note_on_c, 6, 52, 95
5, 214560, Note_off_c, 6, 61, 95
5, 214560, Note_off_c, 6, 57, 95
5, 214560, Note_off_c, 6, 52, 95
5, 214560, Note_on_c, 6, 61, 95
5, 214560, Note_on_c, 6, 57, 95
5, 214560, Note_on_c, 6, 52, 95
5, 214560, Note_on_c, 6, 45, 95
5, 220800, Note_off_c, 6, 61, 95
5, 220800, Note_off_c, 6, 57, 95
5, 220800, Note_off_c, 6, 52, 95
5, 220800, Note_off_c, 6, 45, 95
5, 220800, Note_on_c, 6, 61, 95
5, 220800, Note_on_c, 6, 57, 95
5, 220800, Note_on_c, 6, 52, 95
5, 220800, Note_on_c, 6, 45, 95
5, 222720, Note_off_c, 6, 61, 95
5, 222720, Note_off_c, 6, 57, 95
5, 222720, Note_off_c, 6, 52, 95
5, 222720, Note_off_c, 6, 45, 95
5, 222720, Note_on_c, 6, 47, 95
5, 223200, Note_off_c, 6, 47, 95
5, 223200, Note_on_c, 6, 54, 95
5, 223680, Note_off_c, 6, 54, 95
5, 223680, Note_on_c, 6, 59, 95
5, 224160, Note_off_c, 6, 59, 95
5, 224160, Note_on_c, 6, 54, 95
5, 224640, Note_off_c, 6, 54, 95
5, 224640, Note_on_c, 6, 64, 95
5, 225120, Note_off_c, 6, 64, 95
5, 225120, Note_on_c, 6, 59, 95
5, 225600, Note_off_c, 6, 59, 95
5, 225600, Note_on_c, 6, 54, 95
5, 226080, Note_off_c, 6, 54, 95
5, 226080, Note_on_c, 6, 63, 95
5, 226560, Note_off_c, 6, 63, 95
5, 226560, Note_on_c, 6, 59, 95
5, 227040, Note_off_c, 6, 59, 95
5, 227040, Note_on_c, 6, 54, 95
5, 227520, Note_off_c, 6, 54, 95
5, 227520, Note_on_c, 6, 61, 95
5, 228000, Note_off_c, 6, 61, 95
5, 228000, Note_on_c, 6, 59, 95
5, 228480, Note_off_c, 6, 59, 95
5, 228480, Note_on_c, 6, 54, 95
5, 228960, Note_off_c, 6, 54, 95
5, 228960, Note_on_c, 6, 61, 95
5, 229440, Note_off_c, 6, 61, 95
5, 229440, Note_on_c, 6, 59, 95
5, 229920, Note_off_c, 6, 59, 95
5, 229920, Note_on_c, 6, 57, 95
5, 230400, Note_off_c, 6, 57, 95
5, 230400, Note_on_c, 6, 45, 95
5, 231360, Note_off_c, 6, 45, 95
5, 231360, Note_on_c, 6, 64, 95
5, 231840, Note_off_c, 6, 64, 95
5, 231840, Note_on_c, 6, 57, 95
5, 232320, Note_off_c, 6, 57, 95
5, 232320, Note_on_c, 6, 66, 95
5, 232800, Note_off_c, 6, 66, 95
5, 232800, Note_on_c, 6, 64, 95
5, 233280, Note_off_c, 6, 64, 95
5, 233280, Note_on_c, 6, 57, 95
5, 233760, Note_off_c, 6, 57, 95
5, 233760, Note_on_c, 6, 47, 95
5, 234720, Note_off_c, 6, 47, 95
5, 234720, Note_on_c, 6, 64, 95
5, 235200, Note_off_c, 6, 64, 95
5, 235200, Note_on_c, 6, 59, 95
5, 235680, Note_off_c, 6, 59, 95
5, 235680, Note_on_c, 6, 68, 95
5, 236640, Note_off_c, 6, 68, 95
5, 236640, Note_on_c, 6, 66, 95
5, 237120, Note_off_c, 6, 66, 95
5, 237120, Note_on_c, 6, 64, 95
5, 237600, Note_off_c, 6, 64, 95
5, 237600, Note_on_c, 6, 63, 95
5, 238080, Note_off_c, 6, 63, 95
5, 238080, Note_on_c, 6, 68, 95
5, 238080, Note_on_c, 6, 64, 95
5, 238080, Note_on_c, 6, 59, 95
5, 238080, Note_on_c, 6, 52, 95
5, 239040, Note_off_c, 6, 68, 95
5, 239040, Note_off_c, 6, 64, 95
5, 239040, Note_off_c, 6, 59, 95
5, 239040, Note_off_c, 6, 52, 95
5, 239040, Note_on_c, 6, 68, 95
5, 239040, Note_on_c, 6, 64, 95
5, 239040, Note_on_c, 6, 59, 95
5, 239040, Note_on_c, 6, 52, 95
5, 240960, Note_off_c, 6, 68, 95
5, 240960, Note_off_c, 6, 64, 95
5, 240960, Note_off_c, 6, 59, 95
5, 240960, Note_off_c, 6, 52, 95
5, 240960, Note_on_c, 6, 68, 95
5, 240960, Note_on_c, 6, 64, 95
5, 240960, Note_on_c, 6, 59, 95
5, 240960, Note_on_c, 6, 52, 95
5, 241440, Note_off_c, 6, 68, 95
5, 241440, Note_off_c, 6, 64, 95
5, 241440, Note_off_c, 6, 59, 95
5, 241440, Note_off_c, 6, 52, 95
5, 241440, Note_on_c, 6, 68, 95
5, 241440, Note_on_c, 6, 64, 95
5, 241440, Note_on_c, 6, 59, 95
5, 241440, Note_on_c, 6, 52, 95
5, 245760, Note_off_c, 6, 68, 95
5, 245760, Note_off_c, 6, 64, 95
5, 245760, Note_off_c, 6, 59, 95
5, 245760, Note_off_c, 6, 52, 95
5, 245760, Note_on_c, 6, 68, 95
5, 245760, Note_on_c, 6, 64, 95
5, 245760, Note_on_c, 6, 59, 95
5, 245760, Note_on_c, 6, 52, 95
5, 252000, Note_off_c, 6, 68, 95
5, 252000, Note_off_c, 6, 64, 95
5, 252000, Note_off_c, 6, 59, 95
5, 252000, Note_off_c, 6, 52, 95
5, 252000, Note_on_c, 6, 56, 95
5, 252480, Note_off_c, 6, 56, 95
5, 252480, Note_on_c, 6, 54, 95
5, 252960, Note_off_c, 6, 54, 95
5, 252960, Note_on_c, 6, 52, 95
5, 253440, Note_off_c, 6, 52, 95
5, 253440, Note_on_c, 6, 47, 95
5, 253920, Note_off_c, 6, 47, 95
5, 253920, Note_on_c, 6, 59, 95
5, 254400, Note_off_c, 6, 59, 95
5, 254400, Note_on_c, 6, 54, 95
5, 254880, Note_off_c, 6, 54, 95
5, 254880, Note_on_c, 6, 47, 95
5, 255360, Note_off_c, 6, 47, 95
5, 255360, Note_on_c, 6, 64, 95
5, 255840, Note_off_c, 6, 64, 95
5, 255840, Note_on_c, 6, 59, 95
5, 256320, Note_off_c, 6, 59, 95
5, 256320, Note_on_c, 6, 47, 95
5, 256800, Note_off_c, 6, 47, 95
5, 256800, Note_on_c, 6, 63, 95
5, 257280, Note_off_c, 6, 63, 95
5, 257280, Note_on_c, 6, 59, 95
5, 257760, Note_off_c, 6, 59, 95
5, 257760, Note_on_c, 6, 47, 95
5, 258240, Note_off_c, 6, 47, 95
5, 258240, Note_on_c, 6, 61, 95
5, 258720, Note_off_c, 6, 61, 95
5, 258720, Note_on_c, 6, 59, 95
5, 259200, Note_off_c, 6, 59, 95
5, 259200, Note_on_c, 6, 47, 95
5, 259680, Note_off_c, 6, 47, 95
5, 259680, Note_on_c, 6, 61, 95
5, 260160, Note_off_c, 6, 61, 95
5, 260160, Note_on_c, 6, 59, 95
5, 260640, Note_off_c, 6, 59, 95
5, 260640, Note_on_c, 6, 47, 95
5, 261120, Note_off_c, 6, 47, 95
5, 261120, Note_on_c, 6, 45, 95
5, 262080, Note_off_c, 6, 45, 95
5, 262080, Note_on_c, 6, 64, 95
5, 262560, Note_off_c, 6, 64, 95
5, 262560, Note_on_c, 6, 57, 95
5, 263040, Note_off_c, 6, 57, 95
5, 263040, Note_on_c, 6, 66, 95
5, 263520, Note_off_c, 6, 66, 95
5, 263520, Note_on_c, 6, 64, 95
5, 264000, Note_off_c, 6, 64, 95
5, 264000, Note_on_c, 6, 57, 95
5, 264480, Note_off_c, 6, 57, 95
5, 264480, Note_on_c, 6, 47, 95
5, 265440, Note_off_c, 6, 47, 95
5, 265440, Note_on_c, 6, 64, 95
5, 265920, Note_off_c, 6, 64, 95
5, 265920, Note_on_c, 6, 59, 95
5, 266400, Note_off_c, 6, 59, 95
5, 266400, Note_on_c, 6, 68, 95
5, 267360, Note_off_c, 6, 68, 95
5, 267360, Note_on_c, 6, 66, 95
5, 267840, Note_off_c, 6, 66, 95
5, 267840, Note_on_c, 6, 64, 95
5, 268320, Note_off_c, 6, 64, 95
5, 268320, Note_on_c, 6, 63, 95
5, 268800, Note_off_c, 6, 63, 95
5, 268800, Note_on_c, 6, 68, 95
5, 268800, Note_on_c, 6, 64, 95
5, 268800, Note_on_c, 6, 59, 95
5, 268800, Note_on_c, 6, 52, 95
5, 274080, Note_off_c, 6, 68, 95
5, 274080, Note_off_c, 6, 64, 95
5, 274080, Note_off_c, 6, 59, 95
5, 274080, Note_off_c, 6, 52, 95
5, 274080, Note_on_c, 6, 69, 95
5, 274080, Note_on_c, 6, 64, 95
5, 274080, Note_on_c, 6, 59, 95
5, 274080, Note_on_c, 6, 52, 95
5, 275040, Note_off_c, 6, 69, 95
5, 275040, Note_off_c, 6, 64, 95
5, 275040, Note_off_c, 6, 59, 95
5, 275040, Note_off_c, 6, 52, 95
5, 275040, Note_on_c, 6, 69, 95
5, 275040, Note_on_c, 6, 64, 95
5, 275040, Note_on_c, 6, 59, 95
5, 275040, Note_on_c, 6, 52, 95
5, 276000, Note_off_c, 6, 69, 95
5, 276000, Note_off_c, 6, 64, 95
5, 276000, Note_off_c, 6, 59, 95
5, 276000, Note_off_c, 6, 52, 95
5, 276000, Note_on_c, 6, 69, 95
5, 276000, Note_on_c, 6, 64, 95
5, 276000, Note_on_c, 6, 59, 95
5, 276000, Note_on_c, 6, 52, 95
5, 276480, Note_off_c, 6, 69, 95
5, 276480, Note_off_c, 6, 64, 95
5, 276480, Note_off_c, 6, 59, 95
5, 276480, Note_off_c, 6, 52, 95
5, 276480, Note_on_c, 6, 52, 95
5, 276960, Note_off_c, 6, 52, 95
5, 276960, Note_on_c, 6, 64, 95
5, 277440, Note_off_c, 6, 64, 95
5, 277440, Note_on_c, 6, 57, 95
5, 277920, Note_off_c, 6, 57, 95
5, 277920, Note_on_c, 6, 56, 95
5, 278400, Note_off_c, 6, 56, 95
5, 278400, Note_on_c, 6, 64, 95
5, 278880, Note_off_c, 6, 64, 95
5, 278880, Note_on_c, 6, 57, 95
5, 279360, Note_off_c, 6, 57, 95
5, 279360, Note_on_c, 6, 56, 95
5, 279840, Note_off_c, 6, 56, 95
5, 279840, Note_on_c, 6, 64, 95
5, 280320, Note_off_c, 6, 64, 95
5, 280320, Note_on_c, 6, 57, 95
5, 280800, Note_off_c, 6, 57, 95
5, 280800, Note_on_c, 6, 56, 95
5, 281280, Note_off_c, 6, 56, 95
5, 281280, Note_on_c, 6, 64, 95
5, 281760, Note_off_c, 6, 64, 95
5, 281760, Note_on_c, 6, 57, 95
5, 282240, Note_off_c, 6, 57, 95
5, 282240, Note_on_c, 6, 52, 95
5, 282720, Note_off_c, 6, 52, 95
5, 282720, Note_on_c, 6, 56, 95
5, 283200, Note_off_c, 6, 56, 95
5, 283200, Note_on_c, 6, 54, 95
5, 283680, Note_off_c, 6, 54, 95
5, 283680, Note_on_c, 6, 52, 95
5, 284160, Note_off_c, 6, 52, 95
5, 284160, Note_on_c, 6, 47, 95
5, 284640, Note_off_c, 6, 47, 95
5, 284640, Note_on_c, 6, 59, 95
5, 285120, Note_off_c, 6, 59, 95
5, 285120, Note_on_c, 6, 54, 95
5, 285600, Note_off_c, 6, 54, 95
5, 285600, Note_on_c, 6, 47, 95
5, 286080, Note_off_c, 6, 47, 95
5, 286080, Note_on_c, 6, 64, 95
5, 286560, Note_off_c, 6, 64, 95
5, 286560, Note_on_c, 6, 59, 95
5, 287040, Note_off_c, 6, 59, 95
5, 287040, Note_on_c, 6, 47, 95
5, 287520, Note_off_c, 6, 47, 95
5, 287520, Note_on_c, 6, 63, 95
5, 288000, Note_off_c, 6, 63, 95
5, 288000, Note_on_c, 6, 59, 95
5, 288480, Note_off_c, 6, 59, 95
5, 288480, Note_on_c, 6, 47, 95
5, 288960, Note_off_c, 6, 47, 95
5, 288960, Note_on_c, 6, 61, 95
5, 289440, Note_off_c, 6, 61, 95
5, 289440, Note_on_c, 6, 59, 95
5, 289920, Note_off_c, 6, 59, 95
5, 289920, Note_on_c, 6, 47, 95
5, 290400, Note_off_c, 6, 47, 95
5, 290400, Note_on_c, 6, 61, 95
5, 290880, Note_off_c, 6, 61, 95
5, 290880, Note_on_c, 6, 59, 95
5, 291360, Note_off_c, 6, 59, 95
5, 291360, Note_on_c, 6, 47, 95
5, 291840, Note_off_c, 6, 47, 95
5, 291840, Note_on_c, 6, 45, 95
5, 292800, Note_off_c, 6, 45, 95
5, 292800, Note_on_c, 6, 64, 95
5, 293280, Note_off_c, 6, 64, 95
5, 293280, Note_on_c, 6, 57, 95
5, 293760, Note_off_c, 6, 57, 95
5, 293760, Note_on_c, 6, 66, 95
5, 294240, Note_off_c, 6, 66, 95
5, 294240, Note_on_c, 6, 64, 95
5, 294720, Note_off_c, 6, 64, 95
5, 294720, Note_on_c, 6, 57, 95
5, 295200, Note_off_c, 6, 57, 95
5, 295200, Note_on_c, 6, 47, 95
5, 296160, Note_off_c, 6, 47, 95
5, 296160, Note_on_c, 6, 64, 95
5, 296640, Note_off_c, 6, 64, 95
5, 296640, Note_on_c, 6, 59, 95
5, 297120, Note_off_c, 6, 59, 95
5, 297120, Note_on_c, 6, 68, 95
5, 298080, Note_off_c, 6, 68, 95
5, 298080, Note_on_c, 6, 66, 95
5, 298560, Note_off_c, 6, 66, 95
5, 298560, Note_on_c, 6, 64, 95
5, 299040, Note_off_c, 6, 64, 95
5, 299040, Note_on_c, 6, 63, 95
5, 299520, Note_off_c, 6, 63, 95
5, 299520, Note_on_c, 6, 68, 95
5, 299520, Note_on_c, 6, 64, 95
5, 299520, Note_on_c, 6, 59, 95
5, 299520, Note_on_c, 6, 52, 95
5, 304800, Note_off_c, 6, 68, 95
5, 304800, Note_off_c, 6, 64, 95
5, 304800, Note_off_c, 6, 59, 95
5, 304800, Note_off_c, 6, 52, 95
5, 304800, Note_on_c, 6, 69, 95
5, 304800, Note_on_c, 6, 64, 95
5, 304800, Note_on_c, 6, 59, 95
5, 304800, Note_on_c, 6, 52, 95
5, 305760, Note_off_c, 6, 69, 95
5, 305760, Note_off_c, 6, 64, 95
5, 305760, Note_off_c, 6, 59, 95
5, 305760, Note_off_c, 6, 52, 95
5, 305760, Note_on_c, 6, 69, 95
5, 305760, Note_on_c, 6, 64, 95
5, 305760, Note_on_c, 6, 59, 95
5, 305760, Note_on_c, 6, 52, 95
5, 306720, Note_off_c, 6, 69, 95
5, 306720, Note_off_c, 6, 64, 95
5, 306720, Note_off_c, 6, 59, 95
5, 306720, Note_off_c, 6, 52, 95
5, 306720, Note_on_c, 6, 69, 95
5, 306720, Note_on_c, 6, 64, 95
5, 306720, Note_on_c, 6, 59, 95
5, 306720, Note_on_c, 6, 52, 95
5, 307200, Note_off_c, 6, 69, 95
5, 307200, Note_off_c, 6, 64, 95
5, 307200, Note_off_c, 6, 59, 95
5, 307200, Note_off_c, 6, 52, 95
5, 307200, Note_on_c, 6, 52, 95
5, 307680, Note_off_c, 6, 52, 95
5, 307680, Note_on_c, 6, 64, 95
5, 308160, Note_off_c, 6, 64, 95
5, 308160, Note_on_c, 6, 57, 95
5, 308640, Note_off_c, 6, 57, 95
5, 308640, Note_on_c, 6, 56, 95
5, 309120, Note_off_c, 6, 56, 95
5, 309120, Note_on_c, 6, 64, 95
5, 309600, Note_off_c, 6, 64, 95
5, 309600, Note_on_c, 6, 57, 95
5, 310080, Note_off_c, 6, 57, 95
5, 310080, Note_on_c, 6, 56, 95
5, 310560, Note_off_c, 6, 56, 95
5, 310560, Note_on_c, 6, 64, 95
5, 311040, Note_off_c, 6, 64, 95
5, 311040, Note_on_c, 6, 57, 95
5, 311520, Note_off_c, 6, 57, 95
5, 311520, Note_on_c, 6, 56, 95
5, 312000, Note_off_c, 6, 56, 95
5, 312000, Note_on_c, 6, 64, 95
5, 312480, Note_off_c, 6, 64, 95
5, 312480, Note_on_c, 6, 57, 95
5, 312960, Note_off_c, 6, 57, 95
5, 312960, Note_on_c, 6, 52, 95
5, 313440, Note_off_c, 6, 52, 95
5, 313440, Note_on_c, 6, 56, 95
5, 313920, Note_off_c, 6, 56, 95
5, 313920, Note_on_c, 6, 54, 95
5, 314400, Note_off_c, 6, 54, 95
5, 314400, Note_on_c, 6, 52, 95
5, 314880, Note_off_c, 6, 52, 95
5, 314880, Note_on_c, 6, 47, 95
5, 315360, Note_off_c, 6, 47, 95
5, 315360, Note_on_c, 6, 59, 95
5, 315840, Note_off_c, 6, 59, 95
5, 315840, Note_on_c, 6, 54, 95
5, 316320, Note_off_c, 6, 54, 95
5, 316320, Note_on_c, 6, 47, 95
5, 316800, Note_off_c, 6, 47, 95
5, 316800, Note_on_c, 6, 64, 95
5, 317280, Note_off_c, 6, 64, 95
5, 317280, Note_on_c, 6, 59, 95
5, 317760, Note_off_c, 6, 59, 95
5, 317760, Note_on_c, 6, 47, 95
5, 318240, Note_off_c, 6, 47, 95
5, 318240, Note_on_c, 6, 63, 95
5, 318720, Note_off_c, 6, 63, 95
5, 318720, Note_on_c, 6, 59, 95
5, 319200, Note_off_c, 6, 59, 95
5, 319200, Note_on_c, 6, 47, 95
5, 319680, Note_off_c, 6, 47, 95
5, 319680, Note_on_c, 6, 61, 95
5, 320160, Note_off_c, 6, 61, 95
5, 320160, Note_on_c, 6, 59, 95
5, 320640, Note_off_c, 6, 59, 95
5, 320640, Note_on_c, 6, 47, 95
5, 321120, Note_off_c, 6, 47, 95
5, 321120, Note_on_c, 6, 61, 95
5, 321600, Note_off_c, 6, 61, 95
5, 321600, Note_on_c, 6, 59, 95
5, 322080, Note_off_c, 6, 59, 95
5, 322080, Note_on_c, 6, 47, 95
5, 322560, Note_off_c, 6, 47, 95
5, 322560, Note_on_c, 6, 45, 95
5, 323520, Note_off_c, 6, 45, 95
5, 323520, Note_on_c, 6, 64, 95
5, 324000, Note_off_c, 6, 64, 95
5, 324000, Note_on_c, 6, 57, 95
5, 324480, Note_off_c, 6, 57, 95
5, 324480, Note_on_c, 6, 66, 95
5, 324960, Note_off_c, 6, 66, 95
5, 324960, Note_on_c, 6, 64, 95
5, 325440, Note_off_c, 6, 64, 95
5, 325440, Note_on_c, 6, 57, 95
5, 325920, Note_off_c, 6, 57, 95
5, 325920, Note_on_c, 6, 47, 95
5, 326880, Note_off_c, 6, 47, 95
5, 326880, Note_on_c, 6, 64, 95
5, 327360, Note_off_c, 6, 64, 95
5, 327360, Note_on_c, 6, 59, 95
5, 327840, Note_off_c, 6, 59, 95
5, 327840, Note_on_c, 6, 68, 95
5, 328800, Note_off_c, 6, 68, 95
5, 328800, Note_on_c, 6, 66, 95
5, 329280, Note_off_c, 6, 66, 95
5, 329280, Note_on_c, 6, 64, 95
5, 329760, Note_off_c, 6, 64, 95
5, 329760, Note_on_c, 6, 63, 95
5, 330240, Note_off_c, 6, 63, 95
5, 335520, Note_on_c, 6, 69, 95
5, 335520, Note_on_c, 6, 64, 95
5, 335520, Note_on_c, 6, 59, 95
5, 335520, Note_on_c, 6, 52, 95
5, 336480, Note_off_c, 6, 69, 95
5, 336480, Note_off_c, 6, 64, 95
5, 336480, Note_off_c, 6, 59, 95
5, 336480, Note_off_c, 6, 52, 95
5, 336480, Note_on_c, 6, 69, 95
5, 336480, Note_on_c, 6, 64, 95
5, 336480, Note_on_c, 6, 59, 95
5, 336480, Note_on_c, 6, 52, 95
5, 337440, Note_off_c, 6, 69, 95
5, 337440, Note_off_c, 6, 64, 95
5, 337440, Note_off_c, 6, 59, 95
5, 337440, Note_off_c, 6, 52, 95
5, 337440, Note_on_c, 6, 69, 95
5, 337440, Note_on_c, 6, 64, 95
5, 337440, Note_on_c, 6, 59, 95
5, 337440, Note_on_c, 6, 52, 95
5, 337920, Note_off_c, 6, 69, 95
5, 337920, Note_off_c, 6, 64, 95
5, 337920, Note_off_c, 6, 59, 95
5, 337920, Note_off_c, 6, 52, 95
5, 337920, Note_on_c, 6, 68, 95
5, 337920, Note_on_c, 6, 64, 95
5, 337920, Note_on_c, 6, 59, 95
5, 337920, Note_on_c, 6, 52, 95
5, 344160, Note_off_c, 6, 68, 95
5, 344160, Note_off_c, 6, 64, 95
5, 344160, Note_off_c, 6, 59, 95
5, 344160, Note_off_c, 6, 52, 95
5, 344160, Note_on_c, 6, 56, 95
5, 344640, Note_off_c, 6, 56, 95
5, 344640, Note_on_c, 6, 54, 95
5, 345120, Note_off_c, 6, 54, 95
5, 345120, Note_on_c, 6, 52, 95
5, 345600, Note_off_c, 6, 52, 95
5, 345600, Note_on_c, 6, 47, 95
5, 346080, Note_off_c, 6, 47, 95
5, 346080, Note_on_c, 6, 59, 95
5, 346560, Note_off_c, 6, 59, 95
5, 346560, Note_on_c, 6, 54, 95
5, 347040, Note_off_c, 6, 54, 95
5, 347040, Note_on_c, 6, 47, 95
5, 347520, Note_off_c, 6, 47, 95
5, 347520, Note_on_c, 6, 64, 95
5, 348000, Note_off_c, 6, 64, 95
5, 348000, Note_on_c, 6, 59, 95
5, 348480, Note_off_c, 6, 59, 95
5, 348480, Note_on_c, 6, 47, 95
5, 348960, Note_off_c, 6, 47, 95
5, 348960, Note_on_c, 6, 63, 95
5, 349440, Note_off_c, 6, 63, 95
5, 349440, Note_on_c, 6, 59, 95
5, 349920, Note_off_c, 6, 59, 95
5, 349920, Note_on_c, 6, 47, 95
5, 350400, Note_off_c, 6, 47, 95
5, 350400, Note_on_c, 6, 61, 95
5, 350880, Note_off_c, 6, 61, 95
5, 350880, Note_on_c, 6, 59, 95
5, 351360, Note_off_c, 6, 59, 95
5, 351360, Note_on_c, 6, 47, 95
5, 351840, Note_off_c, 6, 47, 95
5, 351840, Note_on_c, 6, 61, 95
5, 352320, Note_off_c, 6, 61, 95
5, 352320, Note_on_c, 6, 59, 95
5, 352800, Note_off_c, 6, 59, 95
5, 352800, Note_on_c, 6, 47, 95
5, 353280, Note_off_c, 6, 47, 95
5, 353280, Note_on_c, 6, 45, 95
5, 354240, Note_off_c, 6, 45, 95
5, 354240, Note_on_c, 6, 64, 95
5, 354720, Note_off_c, 6, 64, 95
5, 354720, Note_on_c, 6, 57, 95
5, 355200, Note_off_c, 6, 57, 95
5, 355200, Note_on_c, 6, 66, 95
5, 355680, Note_off_c, 6, 66, 95
5, 355680, Note_on_c, 6, 64, 95
5, 356160, Note_off_c, 6, 64, 95
5, 356160, Note_on_c, 6, 57, 95
5, 356640, Note_off_c, 6, 57, 95
5, 356640, Note_on_c, 6, 47, 95
5, 357600, Note_off_c, 6, 47, 95
5, 357600, Note_on_c, 6, 64, 95
5, 358080, Note_off_c, 6, 64, 95
5, 358080, Note_on_c, 6, 59, 95
5, 358560, Note_off_c, 6, 59, 95
5, 358560, Note_on_c, 6, 68, 95
5, 359520, Note_off_c, 6, 68, 95
5, 359520, Note_on_c, 6, 66, 95
5, 360000, Note_off_c, 6, 66, 95
5, 360000, Note_on_c, 6, 64, 95
5, 360480, Note_off_c, 6, 64, 95
5, 360480, Note_on_c, 6, 63, 95
5, 360960, Note_off_c, 6, 63, 95
5, 360960, Note_on_c, 6, 68, 95
5, 360960, Note_on_c, 6, 64, 95
5, 360960, Note_on_c, 6, 59, 95
5, 360960, Note_on_c, 6, 52, 95
5, 376320, Note_off_c, 6, 68, 95
5, 376320, Note_off_c, 6, 64, 95
5, 376320, Note_off_c, 6, 59, 95
5, 376320, Note_off_c, 6, 52, 95
5, 376320, End_track
6, 0, Start_track
6, 0, Pitch_bend_c, 8, 8192
6, 0, Control_c, 8, 7, 95
6, 0, Control_c, 8, 10, 63
6, 0, Control_c, 8, 93, 0
6, 0, Control_c, 8, 91, 0
6, 0, Control_c, 8, 95, 0
6, 0, Control_c, 8, 92, 0
6, 0, Control_c, 8, 11, 127
6, 0, Program_c, 8, 30
6, 0, Control_c, 10, 7, 95
6, 0, Control_c, 10, 10, 63
6, 0, Control_c, 10, 93, 0
6, 0, Control_c, 10, 91, 0
6, 0, Control_c, 10, 95, 0
6, 0, Control_c, 10, 92, 0
6, 0, Control_c, 10, 11, 127
6, 0, Program_c, 10, 30
6, 214080, Note_on_c, 8, 61, 95
6, 214080, Note_on_c, 8, 57, 95
6, 214080, Note_on_c, 8, 52, 95
6, 214080, Note_on_c, 8, 45, 95
6, 214560, Note_off_c, 8, 61, 95
6, 214560, Note_off_c, 8, 57, 95
6, 214560, Note_off_c, 8, 52, 95
6, 214560, Note_off_c, 8, 45, 95
6, 214560, Note_on_c, 8, 61, 95
6, 214560, Note_on_c, 8, 57, 95
6, 214560, Note_on_c, 8, 52, 95
6, 214560, Note_on_c, 8, 45, 95
6, 220800, Note_off_c, 8, 61, 95
6, 220800, Note_off_c, 8, 57, 95
6, 220800, Note_off_c, 8, 52, 95
6, 220800, Note_off_c, 8, 45, 95
6, 220800, Note_on_c, 8, 61, 95
6, 220800, Note_on_c, 8, 57, 95
6, 220800, Note_on_c, 8, 52, 95
6, 220800, Note_on_c, 8, 45, 95
6, 222720, Note_off_c, 8, 61, 95
6, 222720, Note_off_c, 8, 57, 95
6, 222720, Note_off_c, 8, 52, 95
6, 222720, Note_off_c, 8, 45, 95
6, 245760, Note_on_c, 8, 64, 95
6, 245760, Note_on_c, 8, 59, 95
6, 245760, Note_on_c, 8, 52, 95
6, 246240, Note_off_c, 8, 64, 95
6, 246240, Note_off_c, 8, 59, 95
6, 246240, Note_off_c, 8, 52, 95
6, 246240, Note_on_c, 8, 64, 95
6, 246240, Note_on_c, 8, 59, 95
6, 246240, Note_on_c, 8, 52, 95
6, 246720, Note_off_c, 8, 64, 95
6, 246720, Note_off_c, 8, 59, 95
6, 246720, Note_off_c, 8, 52, 95
6, 246720, Note_on_c, 8, 64, 95
6, 246720, Note_on_c, 8, 59, 95
6, 246720, Note_on_c, 8, 52, 95
6, 247200, Note_off_c, 8, 64, 95
6, 247200, Note_off_c, 8, 59, 95
6, 247200, Note_off_c, 8, 52, 95
6, 247200, Note_on_c, 8, 64, 95
6, 247200, Note_on_c, 8, 59, 95
6, 247200, Note_on_c, 8, 52, 95
6, 247680, Note_off_c, 8, 64, 95
6, 247680, Note_off_c, 8, 59, 95
6, 247680, Note_off_c, 8, 52, 95
6, 247680, Note_on_c, 8, 64, 95
6, 247680, Note_on_c, 8, 59, 95
6, 247680, Note_on_c, 8, 52, 95
6, 248160, Note_off_c, 8, 64, 95
6, 248160, Note_off_c, 8, 59, 95
6, 248160, Note_off_c, 8, 52, 95
6, 248160, Note_on_c, 8, 64, 95
6, 248160, Note_on_c, 8, 59, 95
6, 248160, Note_on_c, 8, 52, 95
6, 248640, Note_off_c, 8, 64, 95
6, 248640, Note_off_c, 8, 59, 95
6, 248640, Note_off_c, 8, 52, 95
6, 248640, Note_on_c, 8, 64, 95
6, 248640, Note_on_c, 8, 59, 95
6, 248640, Note_on_c, 8, 52, 95
6, 249120, Note_off_c, 8, 64, 95
6, 249120, Note_off_c, 8, 59, 95
6, 249120, Note_off_c, 8, 52, 95
6, 249120, Note_on_c, 8, 64, 95
6, 249120, Note_on_c, 8, 59, 95
6, 249120, Note_on_c, 8, 52, 95
6, 249600, Note_off_c, 8, 64, 95
6, 249600, Note_off_c, 8, 59, 95
6, 249600, Note_off_c, 8, 52, 95
6, 249600, Note_on_c, 8, 64, 95
6, 249600, Note_on_c, 8, 59, 95
6, 249600, Note_on_c, 8, 52, 95
6, 250080, Note_off_c, 8, 64, 95
6, 250080, Note_off_c, 8, 59, 95
6, 250080, Note_off_c, 8, 52, 95
6, 250080, Note_on_c, 8, 64, 95
6, 250080, Note_on_c, 8, 59, 95
6, 250080, Note_on_c, 8, 52, 95
6, 250560, Note_off_c, 8, 64, 95
6, 250560, Note_off_c, 8, 59, 95
6, 250560, Note_off_c, 8, 52, 95
6, 250560, Note_on_c, 8, 64, 95
6, 250560, Note_on_c, 8, 59, 95
6, 250560, Note_on_c, 8, 52, 95
6, 251040, Note_off_c, 8, 64, 95
6, 251040, Note_off_c, 8, 59, 95
6, 251040, Note_off_c, 8, 52, 95
6, 251040, Note_on_c, 8, 64, 95
6, 251040, Note_on_c, 8, 59, 95
6, 251040, Note_on_c, 8, 52, 95
6, 251520, Note_off_c, 8, 64, 95
6, 251520, Note_off_c, 8, 59, 95
6, 251520, Note_off_c, 8, 52, 95
6, 251520, Note_on_c, 8, 64, 95
6, 251520, Note_on_c, 8, 59, 95
6, 251520, Note_on_c, 8, 52, 95
6, 252000, Note_off_c, 8, 64, 95
6, 252000, Note_off_c, 8, 59, 95
6, 252000, Note_off_c, 8, 52, 95
6, 252000, Note_on_c, 8, 64, 95
6, 252000, Note_on_c, 8, 59, 95
6, 252000, Note_on_c, 8, 52, 95
6, 252480, Note_off_c, 8, 64, 95
6, 252480, Note_off_c, 8, 59, 95
6, 252480, Note_off_c, 8, 52, 95
6, 252480, Note_on_c, 8, 64, 95
6, 252480, Note_on_c, 8, 59, 95
6, 252480, Note_on_c, 8, 52, 95
6, 252960, Note_off_c, 8, 64, 95
6, 252960, Note_off_c, 8, 59, 95
6, 252960, Note_off_c, 8, 52, 95
6, 252960, Note_on_c, 8, 64, 95
6, 252960, Note_on_c, 8, 59, 95
6, 252960, Note_on_c, 8, 52, 95
6, 253440, Note_off_c, 8, 64, 95
6, 253440, Note_off_c, 8, 59, 95
6, 253440, Note_off_c, 8, 52, 95
6, 253440, Note_on_c, 8, 59, 95
6, 253440, Note_on_c, 8, 54, 95
6, 253440, Note_on_c, 8, 47, 95
6, 253920, Note_off_c, 8, 59, 95
6, 253920, Note_off_c, 8, 54, 95
6, 253920, Note_off_c, 8, 47, 95
6, 253920, Note_on_c, 8, 59, 95
6, 253920, Note_on_c, 8, 54, 95
6, 253920, Note_on_c, 8, 47, 95
6, 254400, Note_off_c, 8, 59, 95
6, 254400, Note_off_c, 8, 54, 95
6, 254400, Note_off_c, 8, 47, 95
6, 254400, Note_on_c, 8, 59, 95
6, 254400, Note_on_c, 8, 54, 95
6, 254400, Note_on_c, 8, 47, 95
6, 254880, Note_off_c, 8, 59, 95
6, 254880, Note_off_c, 8, 54, 95
6, 254880, Note_off_c, 8, 47, 95
6, 254880, Note_on_c, 8, 59, 95
6, 254880, Note_on_c, 8, 54, 95
6, 254880, Note_on_c, 8, 47, 95
6, 255360, Note_off_c, 8, 59, 95
6, 255360, Note_off_c, 8, 54, 95
6, 255360, Note_off_c, 8, 47, 95
6, 255360, Note_on_c, 8, 59, 95
6, 255360, Note_on_c, 8, 54, 95
6, 255360, Note_on_c, 8, 47, 95
6, 255840, Note_off_c, 8, 59, 95
6, 255840, Note_off_c, 8, 54, 95
6, 255840, Note_off_c, 8, 47, 95
6, 255840, Note_on_c, 8, 59, 95
6, 255840, Note_on_c, 8, 54, 95
6, 255840, Note_on_c, 8, 47, 95
6, 256320, Note_off_c, 8, 59, 95
6, 256320, Note_off_c, 8, 54, 95
6, 256320, Note_off_c, 8, 47, 95
6, 256320, Note_on_c, 8, 59, 95
6, 256320, Note_on_c, 8, 54, 95
6, 256320, Note_on_c, 8, 47, 95
6, 256800, Note_off_c, 8, 59, 95
6, 256800, Note_off_c, 8, 54, 95
6, 256800, Note_off_c, 8, 47, 95
6, 256800, Note_on_c, 8, 59, 95
6, 256800, Note_on_c, 8, 54, 95
6, 256800, Note_on_c, 8, 47, 95
6, 257280, Note_off_c, 8, 59, 95
6, 257280, Note_off_c, 8, 54, 95
6, 257280, Note_off_c, 8, 47, 95
6, 257280, Note_on_c, 8, 59, 95
6, 257280, Note_on_c, 8, 54, 95
6, 257280, Note_on_c, 8, 47, 95
6, 257760, Note_off_c, 8, 59, 95
6, 257760, Note_off_c, 8, 54, 95
6, 257760, Note_off_c, 8, 47, 95
6, 257760, Note_on_c, 8, 59, 95
6, 257760, Note_on_c, 8, 54, 95
6, 257760, Note_on_c, 8, 47, 95
6, 258240, Note_off_c, 8, 59, 95
6, 258240, Note_off_c, 8, 54, 95
6, 258240, Note_off_c, 8, 47, 95
6, 258240, Note_on_c, 8, 59, 95
6, 258240, Note_on_c, 8, 54, 95
6, 258240, Note_on_c, 8, 47, 95
6, 258720, Note_off_c, 8, 59, 95
6, 258720, Note_off_c, 8, 54, 95
6, 258720, Note_off_c, 8, 47, 95
6, 258720, Note_on_c, 8, 59, 95
6, 258720, Note_on_c, 8, 54, 95
6, 258720, Note_on_c, 8, 47, 95
6, 259200, Note_off_c, 8, 59, 95
6, 259200, Note_off_c, 8, 54, 95
6, 259200, Note_off_c, 8, 47, 95
6, 259200, Note_on_c, 8, 59, 95
6, 259200, Note_on_c, 8, 54, 95
6, 259200, Note_on_c, 8, 47, 95
6, 259680, Note_off_c, 8, 59, 95
6, 259680, Note_off_c, 8, 54, 95
6, 259680, Note_off_c, 8, 47, 95
6, 259680, Note_on_c, 8, 59, 95
6, 259680, Note_on_c, 8, 54, 95
6, 259680, Note_on_c, 8, 47, 95
6, 260160, Note_off_c, 8, 59, 95
6, 260160, Note_off_c, 8, 54, 95
6, 260160, Note_off_c, 8, 47, 95
6, 260160, Note_on_c, 8, 59, 95
6, 260160, Note_on_c, 8, 54, 95
6, 260160, Note_on_c, 8, 47, 95
6, 260640, Note_off_c, 8, 59, 95
6, 260640, Note_off_c, 8, 54, 95
6, 260640, Note_off_c, 8, 47, 95
6, 260640, Note_on_c, 8, 59, 95
6, 260640, Note_on_c, 8, 54, 95
6, 260640, Note_on_c, 8, 47, 95
6, 261120, Note_off_c, 8, 59, 95
6, 261120, Note_off_c, 8, 54, 95
6, 261120, Note_off_c, 8, 47, 95
6, 261120, Note_on_c, 8, 52, 95
6, 261120, Note_on_c, 8, 45, 95
6, 261600, Note_off_c, 8, 52, 95
6, 261600, Note_off_c, 8, 45, 95
6, 261600, Note_on_c, 8, 52, 95
6, 261600, Note_on_c, 8, 45, 95
6, 262080, Note_off_c, 8, 52, 95
6, 262080, Note_off_c, 8, 45, 95
6, 262080, Note_on_c, 8, 52, 95
6, 262080, Note_on_c, 8, 45, 95
6, 262560, Note_off_c, 8, 52, 95
6, 262560, Note_off_c, 8, 45, 95
6, 262560, Note_on_c, 8, 52, 95
6, 262560, Note_on_c, 8, 45, 95
6, 263040, Note_off_c, 8, 52, 95
6, 263040, Note_off_c, 8, 45, 95
6, 263040, Note_on_c, 8, 52, 95
6, 263040, Note_on_c, 8, 45, 95
6, 263520, Note_off_c, 8, 52, 95
6, 263520, Note_off_c, 8, 45, 95
6, 263520, Note_on_c, 8, 52, 95
6, 263520, Note_on_c, 8, 45, 95
6, 264000, Note_off_c, 8, 52, 95
6, 264000, Note_off_c, 8, 45, 95
6, 264000, Note_on_c, 8, 52, 95
6, 264000, Note_on_c, 8, 45, 95
6, 264480, Note_off_c, 8, 52, 95
6, 264480, Note_off_c, 8, 45, 95
6, 264480, Note_on_c, 8, 59, 95
6, 264480, Note_on_c, 8, 54, 95
6, 264480, Note_on_c, 8, 47, 95
6, 265440, Note_off_c, 8, 59, 95
6, 265440, Note_off_c, 8, 54, 95
6, 265440, Note_off_c, 8, 47, 95
6, 265440, Note_on_c, 8, 59, 95
6, 265440, Note_on_c, 8, 54, 95
6, 265440, Note_on_c, 8, 47, 95
6, 265920, Note_off_c, 8, 59, 95
6, 265920, Note_off_c, 8, 54, 95
6, 265920, Note_off_c, 8, 47, 95
6, 265920, Note_on_c, 8, 59, 95
6, 265920, Note_on_c, 8, 54, 95
6, 265920, Note_on_c, 8, 47, 95
6, 266400, Note_off_c, 8, 59, 95
6, 266400, Note_off_c, 8, 54, 95
6, 266400, Note_off_c, 8, 47, 95
6, 266400, Note_on_c, 8, 59, 95
6, 266400, Note_on_c, 8, 54, 95
6, 266400, Note_on_c, 8, 47, 95
6, 266880, Note_off_c, 8, 59, 95
6, 266880, Note_off_c, 8, 54, 95
6, 266880, Note_off_c, 8, 47, 95
6, 266880, Note_on_c, 8, 59, 95
6, 266880, Note_on_c, 8, 54, 95
6, 266880, Note_on_c, 8, 47, 95
6, 267360, Note_off_c, 8, 59, 95
6, 267360, Note_off_c, 8, 54, 95
6, 267360, Note_off_c, 8, 47, 95
6, 267360, Note_on_c, 8, 59, 95
6, 267360, Note_on_c, 8, 54, 95
6, 267360, Note_on_c, 8, 47, 95
6, 267840, Note_off_c, 8, 59, 95
6, 267840, Note_off_c, 8, 54, 95
6, 267840, Note_off_c, 8, 47, 95
6, 267840, Note_on_c, 8, 59, 95
6, 267840, Note_on_c, 8, 54, 95
6, 267840, Note_on_c, 8, 47, 95
6, 268320, Note_off_c, 8, 59, 95
6, 268320, Note_off_c, 8, 54, 95
6, 268320, Note_off_c, 8, 47, 95
6, 268320, Note_on_c, 8, 59, 95
6, 268320, Note_on_c, 8, 54, 95
6, 268320, Note_on_c, 8, 47, 95
6, 268800, Note_off_c, 8, 59, 95
6, 268800, Note_off_c, 8, 54, 95
6, 268800, Note_off_c, 8, 47, 95
6, 268800, Note_on_c, 8, 64, 95
6, 268800, Note_on_c, 8, 59, 95
6, 268800, Note_on_c, 8, 52, 95
6, 269280, Note_off_c, 8, 64, 95
6, 269280, Note_off_c, 8, 59, 95
6, 269280, Note_off_c, 8, 52, 95
6, 269280, Note_on_c, 8, 64, 95
6, 269280, Note_on_c, 8, 59, 95
6, 269280, Note_on_c, 8, 52, 95
6, 269760, Note_off_c, 8, 64, 95
6, 269760, Note_off_c, 8, 59, 95
6, 269760, Note_off_c, 8, 52, 95
6, 269760, Note_on_c, 8, 64, 95
6, 269760, Note_on_c, 8, 59, 95
6, 269760, Note_on_c, 8, 52, 95
6, 270240, Note_off_c, 8, 64, 95
6, 270240, Note_off_c, 8, 59, 95
6, 270240, Note_off_c, 8, 52, 95
6, 270240, Note_on_c, 8, 64, 95
6, 270240, Note_on_c, 8, 59, 95
6, 270240, Note_on_c, 8, 52, 95
6, 270720, Note_off_c, 8, 64, 95
6, 270720, Note_off_c, 8, 59, 95
6, 270720, Note_off_c, 8, 52, 95
6, 270720, Note_on_c, 8, 64, 95
6, 270720, Note_on_c, 8, 59, 95
6, 270720, Note_on_c, 8, 52, 95
6, 271200, Note_off_c, 8, 64, 95
6, 271200, Note_off_c, 8, 59, 95
6, 271200, Note_off_c, 8, 52, 95
6, 271200, Note_on_c, 8, 64, 95
6, 271200, Note_on_c, 8, 59, 95
6, 271200, Note_on_c, 8, 52, 95
6, 271680, Note_off_c, 8, 64, 95
6, 271680, Note_off_c, 8, 59, 95
6, 271680, Note_off_c, 8, 52, 95
6, 271680, Note_on_c, 8, 64, 95
6, 271680, Note_on_c, 8, 59, 95
6, 271680, Note_on_c, 8, 52, 95
6, 272160, Note_off_c, 8, 64, 95
6, 272160, Note_off_c, 8, 59, 95
6, 272160, Note_off_c, 8, 52, 95
6, 272160, Note_on_c, 8, 64, 95
6, 272160, Note_on_c, 8, 59, 95
6, 272160, Note_on_c, 8, 52, 95
6, 272640, Note_off_c, 8, 64, 95
6, 272640, Note_off_c, 8, 59, 95
6, 272640, Note_off_c, 8, 52, 95
6, 272640, Note_on_c, 8, 64, 95
6, 272640, Note_on_c, 8, 59, 95
6, 272640, Note_on_c, 8, 52, 95
6, 273120, Note_off_c, 8, 64, 95
6, 273120, Note_off_c, 8, 59, 95
6, 273120, Note_off_c, 8, 52, 95
6, 273120, Note_on_c, 8, 64, 95
6, 273120, Note_on_c, 8, 59, 95
6, 273120, Note_on_c, 8, 52, 95
6, 273600, Note_off_c, 8, 64, 95
6, 273600, Note_off_c, 8, 59, 95
6, 273600, Note_off_c, 8, 52, 95
6, 273600, Note_on_c, 8, 64, 95
6, 273600, Note_on_c, 8, 59, 95
6, 273600, Note_on_c, 8, 52, 95
6, 274080, Note_off_c, 8, 64, 95
6, 274080, Note_off_c, 8, 59, 95
6, 274080, Note_off_c, 8, 52, 95
6, 274080, Note_on_c, 8, 64, 95
6, 274080, Note_on_c, 8, 59, 95
6, 274080, Note_on_c, 8, 52, 95
6, 274560, Note_off_c, 8, 64, 95
6, 274560, Note_off_c, 8, 59, 95
6, 274560, Note_off_c, 8, 52, 95
6, 274560, Note_on_c, 8, 64, 95
6, 274560, Note_on_c, 8, 59, 95
6, 274560, Note_on_c, 8, 52, 95
6, 275040, Note_off_c, 8, 64, 95
6, 275040, Note_off_c, 8, 59, 95
6, 275040, Note_off_c, 8, 52, 95
6, 275040, Note_on_c, 8, 64, 95
6, 275040, Note_on_c, 8, 59, 95
6, 275040, Note_on_c, 8, 52, 95
6, 275520, Note_off_c, 8, 64, 95
6, 275520, Note_off_c, 8, 59, 95
6, 275520, Note_off_c, 8, 52, 95
6, 275520, Note_on_c, 8, 64, 95
6, 275520, Note_on_c, 8, 59, 95
6, 275520, Note_on_c, 8, 52, 95
6, 276000, Note_off_c, 8, 64, 95
6, 276000, Note_off_c, 8, 59, 95
6, 276000, Note_off_c, 8, 52, 95
6, 276000, Note_on_c, 8, 64, 95
6, 276000, Note_on_c, 8, 59, 95
6, 276000, Note_on_c, 8, 52, 95
6, 276480, Note_off_c, 8, 64, 95
6, 276480, Note_off_c, 8, 59, 95
6, 276480, Note_off_c, 8, 52, 95
6, 276480, Note_on_c, 8, 64, 95
6, 276480, Note_on_c, 8, 59, 95
6, 276480, Note_on_c, 8, 52, 95
6, 276960, Note_off_c, 8, 64, 95
6, 276960, Note_off_c, 8, 59, 95
6, 276960, Note_off_c, 8, 52, 95
6, 276960, Note_on_c, 8, 64, 95
6, 276960, Note_on_c, 8, 59, 95
6, 276960, Note_on_c, 8, 52, 95
6, 277440, Note_off_c, 8, 64, 95
6, 277440, Note_off_c, 8, 59, 95
6, 277440, Note_off_c, 8, 52, 95
6, 277440, Note_on_c, 8, 64, 95
6, 277440, Note_on_c, 8, 59, 95
6, 277440, Note_on_c, 8, 52, 95
6, 277920, Note_off_c, 8, 64, 95
6, 277920, Note_off_c, 8, 59, 95
6, 277920, Note_off_c, 8, 52, 95
6, 277920, Note_on_c, 8, 64, 95
6, 277920, Note_on_c, 8, 59, 95
6, 277920, Note_on_c, 8, 52, 95
6, 278400, Note_off_c, 8, 64, 95
6, 278400, Note_off_c, 8, 59, 95
6, 278400, Note_off_c, 8, 52, 95
6, 278400, Note_on_c, 8, 64, 95
6, 278400, Note_on_c, 8, 59, 95
6, 278400, Note_on_c, 8, 52, 95
6, 278880, Note_off_c, 8, 64, 95
6, 278880, Note_off_c, 8, 59, 95
6, 278880, Note_off_c, 8, 52, 95
6, 278880, Note_on_c, 8, 64, 95
6, 278880, Note_on_c, 8, 59, 95
6, 278880, Note_on_c, 8, 52, 95
6, 279360, Note_off_c, 8, 64, 95
6, 279360, Note_off_c, 8, 59, 95
6, 279360, Note_off_c, 8, 52, 95
6, 279360, Note_on_c, 8, 64, 95
6, 279360, Note_on_c, 8, 59, 95
6, 279360, Note_on_c, 8, 52, 95
6, 279840, Note_off_c, 8, 64, 95
6, 279840, Note_off_c, 8, 59, 95
6, 279840, Note_off_c, 8, 52, 95
6, 279840, Note_on_c, 8, 64, 95
6, 279840, Note_on_c, 8, 59, 95
6, 279840, Note_on_c, 8, 52, 95
6, 280320, Note_off_c, 8, 64, 95
6, 280320, Note_off_c, 8, 59, 95
6, 280320, Note_off_c, 8, 52, 95
6, 280320, Note_on_c, 8, 64, 95
6, 280320, Note_on_c, 8, 59, 95
6, 280320, Note_on_c, 8, 52, 95
6, 280800, Note_off_c, 8, 64, 95
6, 280800, Note_off_c, 8, 59, 95
6, 280800, Note_off_c, 8, 52, 95
6, 280800, Note_on_c, 8, 64, 95
6, 280800, Note_on_c, 8, 59, 95
6, 280800, Note_on_c, 8, 52, 95
6, 281280, Note_off_c, 8, 64, 95
6, 281280, Note_off_c, 8, 59, 95
6, 281280, Note_off_c, 8, 52, 95
6, 281280, Note_on_c, 8, 64, 95
6, 281280, Note_on_c, 8, 59, 95
6, 281280, Note_on_c, 8, 52, 95
6, 281760, Note_off_c, 8, 64, 95
6, 281760, Note_off_c, 8, 59, 95
6, 281760, Note_off_c, 8, 52, 95
6, 281760, Note_on_c, 8, 64, 95
6, 281760, Note_on_c, 8, 59, 95
6, 281760, Note_on_c, 8, 52, 95
6, 282240, Note_off_c, 8, 64, 95
6, 282240, Note_off_c, 8, 59, 95
6, 282240, Note_off_c, 8, 52, 95
6, 282240, Note_on_c, 8, 64, 95
6, 282240, Note_on_c, 8, 59, 95
6, 282240, Note_on_c, 8, 52, 95
6, 282720, Note_off_c, 8, 64, 95
6, 282720, Note_off_c, 8, 59, 95
6, 282720, Note_off_c, 8, 52, 95
6, 282720, Note_on_c, 8, 64, 95
6, 282720, Note_on_c, 8, 59, 95
6, 282720, Note_on_c, 8, 52, 95
6, 283200, Note_off_c, 8, 64, 95
6, 283200, Note_off_c, 8, 59, 95
6, 283200, Note_off_c, 8, 52, 95
6, 283200, Note_on_c, 8, 64, 95
6, 283200, Note_on_c, 8, 59, 95
6, 283200, Note_on_c, 8, 52, 95
6, 283680, Note_off_c, 8, 64, 95
6, 283680, Note_off_c, 8, 59, 95
6, 283680, Note_off_c, 8, 52, 95
6, 283680, Note_on_c, 8, 64, 95
6, 283680, Note_on_c, 8, 59, 95
6, 283680, Note_on_c, 8, 52, 95
6, 284160, Note_off_c, 8, 64, 95
6, 284160, Note_off_c, 8, 59, 95
6, 284160, Note_off_c, 8, 52, 95
6, 284160, Note_on_c, 8, 59, 95
6, 284160, Note_on_c, 8, 54, 95
6, 284160, Note_on_c, 8, 47, 95
6, 284640, Note_off_c, 8, 59, 95
6, 284640, Note_off_c, 8, 54, 95
6, 284640, Note_off_c, 8, 47, 95
6, 284640, Note_on_c, 8, 59, 95
6, 284640, Note_on_c, 8, 54, 95
6, 284640, Note_on_c, 8, 47, 95
6, 285120, Note_off_c, 8, 59, 95
6, 285120, Note_off_c, 8, 54, 95
6, 285120, Note_off_c, 8, 47, 95
6, 285120, Note_on_c, 8, 59, 95
6, 285120, Note_on_c, 8, 54, 95
6, 285120, Note_on_c, 8, 47, 95
6, 285600, Note_off_c, 8, 59, 95
6, 285600, Note_off_c, 8, 54, 95
6, 285600, Note_off_c, 8, 47, 95
6, 285600, Note_on_c, 8, 59, 95
6, 285600, Note_on_c, 8, 54, 95
6, 285600, Note_on_c, 8, 47, 95
6, 286080, Note_off_c, 8, 59, 95
6, 286080, Note_off_c, 8, 54, 95
6, 286080, Note_off_c, 8, 47, 95
6, 286080, Note_on_c, 8, 59, 95
6, 286080, Note_on_c, 8, 54, 95
6, 286080, Note_on_c, 8, 47, 95
6, 286560, Note_off_c, 8, 59, 95
6, 286560, Note_off_c, 8, 54, 95
6, 286560, Note_off_c, 8, 47, 95
6, 286560, Note_on_c, 8, 59, 95
6, 286560, Note_on_c, 8, 54, 95
6, 286560, Note_on_c, 8, 47, 95
6, 287040, Note_off_c, 8, 59, 95
6, 287040, Note_off_c, 8, 54, 95
6, 287040, Note_off_c, 8, 47, 95
6, 287040, Note_on_c, 8, 59, 95
6, 287040, Note_on_c, 8, 54, 95
6, 287040, Note_on_c, 8, 47, 95
6, 287520, Note_off_c, 8, 59, 95
6, 287520, Note_off_c, 8, 54, 95
6, 287520, Note_off_c, 8, 47, 95
6, 287520, Note_on_c, 8, 59, 95
6, 287520, Note_on_c, 8, 54, 95
6, 287520, Note_on_c, 8, 47, 95
6, 288000, Note_off_c, 8, 59, 95
6, 288000, Note_off_c, 8, 54, 95
6, 288000, Note_off_c, 8, 47, 95
6, 288000, Note_on_c, 8, 59, 95
6, 288000, Note_on_c, 8, 54, 95
6, 288000, Note_on_c, 8, 47, 95
6, 288480, Note_off_c, 8, 59, 95
6, 288480, Note_off_c, 8, 54, 95
6, 288480, Note_off_c, 8, 47, 95
6, 288480, Note_on_c, 8, 59, 95
6, 288480, Note_on_c, 8, 54, 95
6, 288480, Note_on_c, 8, 47, 95
6, 288960, Note_off_c, 8, 59, 95
6, 288960, Note_off_c, 8, 54, 95
6, 288960, Note_off_c, 8, 47, 95
6, 288960, Note_on_c, 8, 59, 95
6, 288960, Note_on_c, 8, 54, 95
6, 288960, Note_on_c, 8, 47, 95
6, 289440, Note_off_c, 8, 59, 95
6, 289440, Note_off_c, 8, 54, 95
6, 289440, Note_off_c, 8, 47, 95
6, 289440, Note_on_c, 8, 59, 95
6, 289440, Note_on_c, 8, 54, 95
6, 289440, Note_on_c, 8, 47, 95
6, 289920, Note_off_c, 8, 59, 95
6, 289920, Note_off_c, 8, 54, 95
6, 289920, Note_off_c, 8, 47, 95
6, 289920, Note_on_c, 8, 59, 95
6, 289920, Note_on_c, 8, 54, 95
6, 289920, Note_on_c, 8, 47, 95
6, 290400, Note_off_c, 8, 59, 95
6, 290400, Note_off_c, 8, 54, 95
6, 290400, Note_off_c, 8, 47, 95
6, 290400, Note_on_c, 8, 59, 95
6, 290400, Note_on_c, 8, 54, 95
6, 290400, Note_on_c, 8, 47, 95
6, 290880, Note_off_c, 8, 59, 95
6, 290880, Note_off_c, 8, 54, 95
6, 290880, Note_off_c, 8, 47, 95
6, 290880, Note_on_c, 8, 59, 95
6, 290880, Note_on_c, 8, 54, 95
6, 290880, Note_on_c, 8, 47, 95
6, 291360, Note_off_c, 8, 59, 95
6, 291360, Note_off_c, 8, 54, 95
6, 291360, Note_off_c, 8, 47, 95
6, 291360, Note_on_c, 8, 59, 95
6, 291360, Note_on_c, 8, 54, 95
6, 291360, Note_on_c, 8, 47, 95
6, 291840, Note_off_c, 8, 59, 95
6, 291840, Note_off_c, 8, 54, 95
6, 291840, Note_off_c, 8, 47, 95
6, 291840, Note_on_c, 8, 52, 95
6, 291840, Note_on_c, 8, 45, 95
6, 292320, Note_off_c, 8, 52, 95
6, 292320, Note_off_c, 8, 45, 95
6, 292320, Note_on_c, 8, 52, 95
6, 292320, Note_on_c, 8, 45, 95
6, 292800, Note_off_c, 8, 52, 95
6, 292800, Note_off_c, 8, 45, 95
6, 292800, Note_on_c, 8, 52, 95
6, 292800, Note_on_c, 8, 45, 95
6, 293280, Note_off_c, 8, 52, 95
6, 293280, Note_off_c, 8, 45, 95
6, 293280, Note_on_c, 8, 52, 95
6, 293280, Note_on_c, 8, 45, 95
6, 293760, Note_off_c, 8, 52, 95
6, 293760, Note_off_c, 8, 45, 95
6, 293760, Note_on_c, 8, 52, 95
6, 293760, Note_on_c, 8, 45, 95
6, 294240, Note_off_c, 8, 52, 95
6, 294240, Note_off_c, 8, 45, 95
6, 294240, Note_on_c, 8, 52, 95
6, 294240, Note_on_c, 8, 45, 95
6, 294720, Note_off_c, 8, 52, 95
6, 294720, Note_off_c, 8, 45, 95
6, 294720, Note_on_c, 8, 52, 95
6, 294720, Note_on_c, 8, 45, 95
6, 295200, Note_off_c, 8, 52, 95
6, 295200, Note_off_c, 8, 45, 95
6, 295200, Note_on_c, 8, 59, 95
6, 295200, Note_on_c, 8, 54, 95
6, 295200, Note_on_c, 8, 47, 95
6, 296160, Note_off_c, 8, 59, 95
6, 296160, Note_off_c, 8, 54, 95
6, 296160, Note_off_c, 8, 47, 95
6, 296160, Note_on_c, 8, 59, 95
6, 296160, Note_on_c, 8, 54, 95
6, 296160, Note_on_c, 8, 47, 95
6, 296640, Note_off_c, 8, 59, 95
6, 296640, Note_off_c, 8, 54, 95
6, 296640, Note_off_c, 8, 47, 95
6, 296640, Note_on_c, 8, 59, 95
6, 296640, Note_on_c, 8, 54, 95
6, 296640, Note_on_c, 8, 47, 95
6, 297120, Note_off_c, 8, 59, 95
6, 297120, Note_off_c, 8, 54, 95
6, 297120, Note_off_c, 8, 47, 95
6, 297120, Note_on_c, 8, 59, 95
6, 297120, Note_on_c, 8, 54, 95
6, 297120, Note_on_c, 8, 47, 95
6, 297600, Note_off_c, 8, 59, 95
6, 297600, Note_off_c, 8, 54, 95
6, 297600, Note_off_c, 8, 47, 95
6, 297600, Note_on_c, 8, 59, 95
6, 297600, Note_on_c, 8, 54, 95
6, 297600, Note_on_c, 8, 47, 95
6, 298080, Note_off_c, 8, 59, 95
6, 298080, Note_off_c, 8, 54, 95
6, 298080, Note_off_c, 8, 47, 95
6, 298080, Note_on_c, 8, 59, 95
6, 298080, Note_on_c, 8, 54, 95
6, 298080, Note_on_c, 8, 47, 95
6, 298560, Note_off_c, 8, 59, 95
6, 298560, Note_off_c, 8, 54, 95
6, 298560, Note_off_c, 8, 47, 95
6, 298560, Note_on_c, 8, 59, 95
6, 298560, Note_on_c, 8, 54, 95
6, 298560, Note_on_c, 8, 47, 95
6, 299040, Note_off_c, 8, 59, 95
6, 299040, Note_off_c, 8, 54, 95
6, 299040, Note_off_c, 8, 47, 95
6, 299040, Note_on_c, 8, 59, 95
6, 299040, Note_on_c, 8, 54, 95
6, 299040, Note_on_c, 8, 47, 95
6, 299520, Note_off_c, 8, 59, 95
6, 299520, Note_off_c, 8, 54, 95
6, 299520, Note_off_c, 8, 47, 95
6, 299520, Note_on_c, 8, 64, 95
6, 299520, Note_on_c, 8, 59, 95
6, 299520, Note_on_c, 8, 52, 95
6, 300000, Note_off_c, 8, 64, 95
6, 300000, Note_off_c, 8, 59, 95
6, 300000, Note_off_c, 8, 52, 95
6, 300000, Note_on_c, 8, 64, 95
6, 300000, Note_on_c, 8, 59, 95
6, 300000, Note_on_c, 8, 52, 95
6, 300480, Note_off_c, 8, 64, 95
6, 300480, Note_off_c, 8, 59, 95
6, 300480, Note_off_c, 8, 52, 95
6, 300480, Note_on_c, 8, 64, 95
6, 300480, Note_on_c, 8, 59, 95
6, 300480, Note_on_c, 8, 52, 95
6, 300960, Note_off_c, 8, 64, 95
6, 300960, Note_off_c, 8, 59, 95
6, 300960, Note_off_c, 8, 52, 95
6, 300960, Note_on_c, 8, 64, 95
6, 300960, Note_on_c, 8, 59, 95
6, 300960, Note_on_c, 8, 52, 95
6, 301440, Note_off_c, 8, 64, 95
6, 301440, Note_off_c, 8, 59, 95
6, 301440, Note_off_c, 8, 52, 95
6, 301440, Note_on_c, 8, 64, 95
6, 301440, Note_on_c, 8, 59, 95
6, 301440, Note_on_c, 8, 52, 95
6, 301920, Note_off_c, 8, 64, 95
6, 301920, Note_off_c, 8, 59, 95
6, 301920, Note_off_c, 8, 52, 95
6, 301920, Note_on_c, 8, 64, 95
6, 301920, Note_on_c, 8, 59, 95
6, 301920, Note_on_c, 8, 52, 95
6, 302400, Note_off_c, 8, 64, 95
6, 302400, Note_off_c, 8, 59, 95
6, 302400, Note_off_c, 8, 52, 95
6, 302400, Note_on_c, 8, 64, 95
6, 302400, Note_on_c, 8, 59, 95
6, 302400, Note_on_c, 8, 52, 95
6, 302880, Note_off_c, 8, 64, 95
6, 302880, Note_off_c, 8, 59, 95
6, 302880, Note_off_c, 8, 52, 95
6, 302880, Note_on_c, 8, 64, 95
6, 302880, Note_on_c, 8, 59, 95
6, 302880, Note_on_c, 8, 52, 95
6, 303360, Note_off_c, 8, 64, 95
6, 303360, Note_off_c, 8, 59, 95
6, 303360, Note_off_c, 8, 52, 95
6, 303360, Note_on_c, 8, 64, 95
6, 303360, Note_on_c, 8, 59, 95
6, 303360, Note_on_c, 8, 52, 95
6, 303840, Note_off_c, 8, 64, 95
6, 303840, Note_off_c, 8, 59, 95
6, 303840, Note_off_c, 8, 52, 95
6, 303840, Note_on_c, 8, 64, 95
6, 303840, Note_on_c, 8, 59, 95
6, 303840, Note_on_c, 8, 52, 95
6, 304320, Note_off_c, 8, 64, 95
6, 304320, Note_off_c, 8, 59, 95
6, 304320, Note_off_c, 8, 52, 95
6, 304320, Note_on_c, 8, 64, 95
6, 304320, Note_on_c, 8, 59, 95
6, 304320, Note_on_c, 8, 52, 95
6, 304800, Note_off_c, 8, 64, 95
6, 304800, Note_off_c, 8, 59, 95
6, 304800, Note_off_c, 8, 52, 95
6, 304800, Note_on_c, 8, 64, 95
6, 304800, Note_on_c, 8, 59, 95
6, 304800, Note_on_c, 8, 52, 95
6, 305280, Note_off_c, 8, 64, 95
6, 305280, Note_off_c, 8, 59, 95
6, 305280, Note_off_c, 8, 52, 95
6, 305280, Note_on_c, 8, 64, 95
6, 305280, Note_on_c, 8, 59, 95
6, 305280, Note_on_c, 8, 52, 95
6, 305760, Note_off_c, 8, 64, 95
6, 305760, Note_off_c, 8, 59, 95
6, 305760, Note_off_c, 8, 52, 95
6, 305760, Note_on_c, 8, 64, 95
6, 305760, Note_on_c, 8, 59, 95
6, 305760, Note_on_c, 8, 52, 95
6, 306240, Note_off_c, 8, 64, 95
6, 306240, Note_off_c, 8, 59, 95
6, 306240, Note_off_c, 8, 52, 95
6, 306240, Note_on_c, 8, 64, 95
6, 306240, Note_on_c, 8, 59, 95
6, 306240, Note_on_c, 8, 52, 95
6, 306720, Note_off_c, 8, 64, 95
6, 306720, Note_off_c, 8, 59, 95
6, 306720, Note_off_c, 8, 52, 95
6, 306720, Note_on_c, 8, 64, 95
6, 306720, Note_on_c, 8, 59, 95
6, 306720, Note_on_c, 8, 52, 95
6, 307200, Note_off_c, 8, 64, 95
6, 307200, Note_off_c, 8, 59, 95
6, 307200, Note_off_c, 8, 52, 95
6, 365280, Note_on_c, 8, 64, 95
6, 365280, Note_on_c, 8, 59, 95
6, 365280, Note_on_c, 8, 52, 95
6, 365520, Note_off_c, 8, 64, 95
6, 365520, Note_off_c, 8, 59, 95
6, 365520, Note_off_c, 8, 52, 95
6, 365520, Note_on_c, 8, 64, 95
6, 365520, Note_on_c, 8, 59, 95
6, 365520, Note_on_c, 8, 52, 95
6, 365760, Note_off_c, 8, 64, 95
6, 365760, Note_off_c, 8, 59, 95
6, 365760, Note_off_c, 8, 52, 95
6, 365760, Note_on_c, 8, 64, 95
6, 365760, Note_on_c, 8, 59, 95
6, 365760, Note_on_c, 8, 52, 95
6, 366240, Note_off_c, 8, 64, 95
6, 366240, Note_off_c, 8, 59, 95
6, 366240, Note_off_c, 8, 52, 95
6, 366240, Note_on_c, 8, 64, 95
6, 366240, Note_on_c, 8, 59, 95
6, 366240, Note_on_c, 8, 52, 95
6, 366720, Note_off_c, 8, 64, 95
6, 366720, Note_off_c, 8, 59, 95
6, 366720, Note_off_c, 8, 52, 95
6, 366720, Note_on_c, 8, 64, 95
6, 366720, Note_on_c, 8, 59, 95
6, 366720, Note_on_c, 8, 52, 95
6, 367200, Note_off_c, 8, 64, 95
6, 367200, Note_off_c, 8, 59, 95
6, 367200, Note_off_c, 8, 52, 95
6, 367200, Note_on_c, 8, 64, 95
6, 367200, Note_on_c, 8, 59, 95
6, 367200, Note_on_c, 8, 52, 95
6, 367440, Note_off_c, 8, 64, 95
6, 367440, Note_off_c, 8, 59, 95
6, 367440, Note_off_c, 8, 52, 95
6, 367440, Note_on_c, 8, 64, 95
6, 367440, Note_on_c, 8, 59, 95
6, 367440, Note_on_c, 8, 52, 95
6, 367680, Note_off_c, 8, 64, 95
6, 367680, Note_off_c, 8, 59, 95
6, 367680, Note_off_c, 8, 52, 95
6, 367680, Note_on_c, 8, 64, 95
6, 367680, Note_on_c, 8, 59, 95
6, 367680, Note_on_c, 8, 52, 95
6, 367920, Note_off_c, 8, 64, 95
6, 367920, Note_off_c, 8, 59, 95
6, 367920, Note_off_c, 8, 52, 95
6, 367920, Note_on_c, 8, 64, 95
6, 367920, Note_on_c, 8, 59, 95
6, 367920, Note_on_c, 8, 52, 95
6, 368160, Note_off_c, 8, 64, 95
6, 368160, Note_off_c, 8, 59, 95
6, 368160, Note_off_c, 8, 52, 95
6, 368160, Note_on_c, 8, 64, 95
6, 368160, Note_on_c, 8, 59, 95
6, 368160, Note_on_c, 8, 52, 95
6, 368400, Note_off_c, 8, 64, 95
6, 368400, Note_off_c, 8, 59, 95
6, 368400, Note_off_c, 8, 52, 95
6, 368400, Note_on_c, 8, 64, 95
6, 368400, Note_on_c, 8, 59, 95
6, 368400, Note_on_c, 8, 52, 95
6, 368640, Note_off_c, 8, 64, 95
6, 368640, Note_off_c, 8, 59, 95
6, 368640, Note_off_c, 8, 52, 95
6, 368640, Note_on_c, 8, 64, 95
6, 368640, Note_on_c, 8, 59, 95
6, 368640, Note_on_c, 8, 52, 95
6, 369600, Note_off_c, 8, 64, 95
6, 369600, Note_off_c, 8, 59, 95
6, 369600, Note_off_c, 8, 52, 95
6, 369600, Note_on_c, 8, 64, 95
6, 369600, Note_on_c, 8, 59, 95
6, 369600, Note_on_c, 8, 52, 95
6, 370560, Note_off_c, 8, 64, 95
6, 370560, Note_off_c, 8, 59, 95
6, 370560, Note_off_c, 8, 52, 95
6, 370560, Note_on_c, 8, 64, 95
6, 370560, Note_on_c, 8, 59, 95
6, 370560, Note_on_c, 8, 52, 95
6, 371520, Note_off_c, 8, 64, 95
6, 371520, Note_off_c, 8, 59, 95
6, 371520, Note_off_c, 8, 52, 95
6, 371520, Note_on_c, 8, 64, 95
6, 371520, Note_on_c, 8, 59, 95
6, 371520, Note_on_c, 8, 52, 95
6, 372480, Note_off_c, 8, 64, 95
6, 372480, Note_off_c, 8, 59, 95
6, 372480, Note_off_c, 8, 52, 95
6, 372480, Note_on_c, 8, 64, 95
6, 372480, Note_on_c, 8, 59, 95
6, 372480, Note_on_c, 8, 52, 95
6, 373440, Note_off_c, 8, 64, 95
6, 373440, Note_off_c, 8, 59, 95
6, 373440, Note_off_c, 8, 52, 95
6, 373440, Note_on_c, 8, 64, 95
6, 373440, Note_on_c, 8, 59, 95
6, 373440, Note_on_c, 8, 52, 95
6, 374400, Note_off_c, 8, 64, 95
6, 374400, Note_off_c, 8, 59, 95
6, 374400, Note_off_c, 8, 52, 95
6, 374400, Note_on_c, 8, 64, 95
6, 374400, Note_on_c, 8, 59, 95
6, 374400, Note_on_c, 8, 52, 95
6, 375360, Note_off_c, 8, 64, 95
6, 375360, Note_off_c, 8, 59, 95
6, 375360, Note_off_c, 8, 52, 95
6, 375360, Note_on_c, 8, 64, 95
6, 375360, Note_on_c, 8, 59, 95
6, 375360, Note_on_c, 8, 52, 95
6, 376320, Note_off_c, 8, 64, 95
6, 376320, Note_off_c, 8, 59, 95
6, 376320, Note_off_c, 8, 52, 95
6, 376320, Note_on_c, 8, 59, 95
6, 376320, Note_on_c, 8, 54, 95
6, 376320, Note_on_c, 8, 47, 95
6, 377280, Note_off_c, 8, 59, 95
6, 377280, Note_off_c, 8, 54, 95
6, 377280, Note_off_c, 8, 47, 95
6, 377280, Note_on_c, 8, 59, 95
6, 377280, Note_on_c, 8, 54, 95
6, 377280, Note_on_c, 8, 47, 95
6, 378240, Note_off_c, 8, 59, 95
6, 378240, Note_off_c, 8, 54, 95
6, 378240, Note_off_c, 8, 47, 95
6, 378240, Note_on_c, 8, 59, 95
6, 378240, Note_on_c, 8, 54, 95
6, 378240, Note_on_c, 8, 47, 95
6, 379200, Note_off_c, 8, 59, 95
6, 379200, Note_off_c, 8, 54, 95
6, 379200, Note_off_c, 8, 47, 95
6, 379200, Note_on_c, 8, 59, 95
6, 379200, Note_on_c, 8, 54, 95
6, 379200, Note_on_c, 8, 47, 95
6, 380160, Note_off_c, 8, 59, 95
6, 380160, Note_off_c, 8, 54, 95
6, 380160, Note_off_c, 8, 47, 95
6, 380160, Note_on_c, 8, 59, 95
6, 380160, Note_on_c, 8, 54, 95
6, 380160, Note_on_c, 8, 47, 95
6, 381120, Note_off_c, 8, 59, 95
6, 381120, Note_off_c, 8, 54, 95
6, 381120, Note_off_c, 8, 47, 95
6, 381120, Note_on_c, 8, 59, 95
6, 381120, Note_on_c, 8, 54, 95
6, 381120, Note_on_c, 8, 47, 95
6, 382080, Note_off_c, 8, 59, 95
6, 382080, Note_off_c, 8, 54, 95
6, 382080, Note_off_c, 8, 47, 95
6, 382080, Note_on_c, 8, 59, 95
6, 382080, Note_on_c, 8, 54, 95
6, 382080, Note_on_c, 8, 47, 95
6, 383040, Note_off_c, 8, 59, 95
6, 383040, Note_off_c, 8, 54, 95
6, 383040, Note_off_c, 8, 47, 95
6, 383040, Note_on_c, 8, 59, 95
6, 383040, Note_on_c, 8, 54, 95
6, 383040, Note_on_c, 8, 47, 95
6, 384000, Note_off_c, 8, 59, 95
6, 384000, Note_off_c, 8, 54, 95
6, 384000, Note_off_c, 8, 47, 95
6, 384000, Note_on_c, 8, 52, 95
6, 384000, Note_on_c, 8, 45, 95
6, 384960, Note_off_c, 8, 52, 95
6, 384960, Note_off_c, 8, 45, 95
6, 384960, Note_on_c, 8, 52, 95
6, 384960, Note_on_c, 8, 45, 95
6, 385920, Note_off_c, 8, 52, 95
6, 385920, Note_off_c, 8, 45, 95
6, 385920, Note_on_c, 8, 52, 95
6, 385920, Note_on_c, 8, 45, 95
6, 386880, Note_off_c, 8, 52, 95
6, 386880, Note_off_c, 8, 45, 95
6, 386880, Note_on_c, 8, 52, 95
6, 386880, Note_on_c, 8, 45, 95
6, 387360, Note_off_c, 8, 52, 95
6, 387360, Note_off_c, 8, 45, 95
6, 387360, Note_on_c, 8, 59, 95
6, 387360, Note_on_c, 8, 54, 95
6, 387360, Note_on_c, 8, 47, 95
6, 388800, Note_off_c, 8, 59, 95
6, 388800, Note_off_c, 8, 54, 95
6, 388800, Note_off_c, 8, 47, 95
6, 388800, Note_on_c, 8, 59, 95
6, 388800, Note_on_c, 8, 54, 95
6, 388800, Note_on_c, 8, 47, 95
6, 389760, Note_off_c, 8, 59, 95
6, 389760, Note_off_c, 8, 54, 95
6, 389760, Note_off_c, 8, 47, 95
6, 389760, Note_on_c, 8, 59, 95
6, 389760, Note_on_c, 8, 54, 95
6, 389760, Note_on_c, 8, 47, 95
6, 390720, Note_off_c, 8, 59, 95
6, 390720, Note_off_c, 8, 54, 95
6, 390720, Note_off_c, 8, 47, 95
6, 390720, Note_on_c, 8, 59, 95
6, 390720, Note_on_c, 8, 54, 95
6, 390720, Note_on_c, 8, 47, 95
6, 391680, Note_off_c, 8, 59, 95
6, 391680, Note_off_c, 8, 54, 95
6, 391680, Note_off_c, 8, 47, 95
6, 391680, Note_on_c, 8, 64, 95
6, 391680, Note_on_c, 8, 59, 95
6, 391680, Note_on_c, 8, 52, 95
6, 392640, Note_off_c, 8, 64, 95
6, 392640, Note_off_c, 8, 59, 95
6, 392640, Note_off_c, 8, 52, 95
6, 392640, Note_on_c, 8, 64, 95
6, 392640, Note_on_c, 8, 59, 95
6, 392640, Note_on_c, 8, 52, 95
6, 393600, Note_off_c, 8, 64, 95
6, 393600, Note_off_c, 8, 59, 95
6, 393600, Note_off_c, 8, 52, 95
6, 393600, Note_on_c, 8, 64, 95
6, 393600, Note_on_c, 8, 59, 95
6, 393600, Note_on_c, 8, 52, 95
6, 394560, Note_off_c, 8, 64, 95
6, 394560, Note_off_c, 8, 59, 95
6, 394560, Note_off_c, 8, 52, 95
6, 394560, Note_on_c, 8, 64, 95
6, 394560, Note_on_c, 8, 59, 95
6, 394560, Note_on_c, 8, 52, 95
6, 395520, Note_off_c, 8, 64, 95
6, 395520, Note_off_c, 8, 59, 95
6, 395520, Note_off_c, 8, 52, 95
6, 395520, Note_on_c, 8, 64, 95
6, 395520, Note_on_c, 8, 59, 95
6, 395520, Note_on_c, 8, 52, 95
6, 396480, Note_off_c, 8, 64, 95
6, 396480, Note_off_c, 8, 59, 95
6, 396480, Note_off_c, 8, 52, 95
6, 396480, Note_on_c, 8, 64, 95
6, 396480, Note_on_c, 8, 59, 95
6, 396480, Note_on_c, 8, 52, 95
6, 397440, Note_off_c, 8, 64, 95
6, 397440, Note_off_c, 8, 59, 95
6, 397440, Note_off_c, 8, 52, 95
6, 397440, Note_on_c, 8, 64, 95
6, 397440, Note_on_c, 8, 59, 95
6, 397440, Note_on_c, 8, 52, 95
6, 398400, Note_off_c, 8, 64, 95
6, 398400, Note_off_c, 8, 59, 95
6, 398400, Note_off_c, 8, 52, 95
6, 398400, Note_on_c, 8, 64, 95
6, 398400, Note_on_c, 8, 59, 95
6, 398400, Note_on_c, 8, 52, 95
6, 399360, Note_off_c, 8, 64, 95
6, 399360, Note_off_c, 8, 59, 95
6, 399360, Note_off_c, 8, 52, 95
6, 399360, Note_on_c, 8, 64, 95
6, 399360, Note_on_c, 8, 59, 95
6, 399360, Note_on_c, 8, 52, 95
6, 400320, Note_off_c, 8, 64, 95
6, 400320, Note_off_c, 8, 59, 95
6, 400320, Note_off_c, 8, 52, 95
6, 400320, Note_on_c, 8, 64, 95
6, 400320, Note_on_c, 8, 59, 95
6, 400320, Note_on_c, 8, 52, 95
6, 401280, Note_off_c, 8, 64, 95
6, 401280, Note_off_c, 8, 59, 95
6, 401280, Note_off_c, 8, 52, 95
6, 401280, Note_on_c, 8, 64, 95
6, 401280, Note_on_c, 8, 59, 95
6, 401280, Note_on_c, 8, 52, 95
6, 402240, Note_off_c, 8, 64, 95
6, 402240, Note_off_c, 8, 59, 95
6, 402240, Note_off_c, 8, 52, 95
6, 402240, Note_on_c, 8, 64, 95
6, 402240, Note_on_c, 8, 59, 95
6, 402240, Note_on_c, 8, 52, 95
6, 403200, Note_off_c, 8, 64, 95
6, 403200, Note_off_c, 8, 59, 95
6, 403200, Note_off_c, 8, 52, 95
6, 403200, Note_on_c, 8, 64, 95
6, 403200, Note_on_c, 8, 59, 95
6, 403200, Note_on_c, 8, 52, 95
6, 404160, Note_off_c, 8, 64, 95
6, 404160, Note_off_c, 8, 59, 95
6, 404160, Note_off_c, 8, 52, 95
6, 404160, Note_on_c, 8, 64, 95
6, 404160, Note_on_c, 8, 59, 95
6, 404160, Note_on_c, 8, 52, 95
6, 405120, Note_off_c, 8, 64, 95
6, 405120, Note_off_c, 8, 59, 95
6, 405120, Note_off_c, 8, 52, 95
6, 405120, Note_on_c, 8, 64, 95
6, 405120, Note_on_c, 8, 59, 95
6, 405120, Note_on_c, 8, 52, 95
6, 406080, Note_off_c, 8, 64, 95
6, 406080, Note_off_c, 8, 59, 95
6, 406080, Note_off_c, 8, 52, 95
6, 406080, Note_on_c, 8, 64, 95
6, 406080, Note_on_c, 8, 59, 95
6, 406080, Note_on_c, 8, 52, 95
6, 407040, Note_off_c, 8, 64, 95
6, 407040, Note_off_c, 8, 59, 95
6, 407040, Note_off_c, 8, 52, 95
6, 407040, Note_on_c, 8, 59, 95
6, 407040, Note_on_c, 8, 54, 95
6, 407040, Note_on_c, 8, 47, 95
6, 408000, Note_off_c, 8, 59, 95
6, 408000, Note_off_c, 8, 54, 95
6, 408000, Note_off_c, 8, 47, 95
6, 408000, Note_on_c, 8, 59, 95
6, 408000, Note_on_c, 8, 54, 95
6, 408000, Note_on_c, 8, 47, 95
6, 408960, Note_off_c, 8, 59, 95
6, 408960, Note_off_c, 8, 54, 95
6, 408960, Note_off_c, 8, 47, 95
6, 408960, Note_on_c, 8, 59, 95
6, 408960, Note_on_c, 8, 54, 95
6, 408960, Note_on_c, 8, 47, 95
6, 409920, Note_off_c, 8, 59, 95
6, 409920, Note_off_c, 8, 54, 95
6, 409920, Note_off_c, 8, 47, 95
6, 409920, Note_on_c, 8, 59, 95
6, 409920, Note_on_c, 8, 54, 95
6, 409920, Note_on_c, 8, 47, 95
6, 410880, Note_off_c, 8, 59, 95
6, 410880, Note_off_c, 8, 54, 95
6, 410880, Note_off_c, 8, 47, 95
6, 410880, Note_on_c, 8, 59, 95
6, 410880, Note_on_c, 8, 54, 95
6, 410880, Note_on_c, 8, 47, 95
6, 411840, Note_off_c, 8, 59, 95
6, 411840, Note_off_c, 8, 54, 95
6, 411840, Note_off_c, 8, 47, 95
6, 411840, Note_on_c, 8, 59, 95
6, 411840, Note_on_c, 8, 54, 95
6, 411840, Note_on_c, 8, 47, 95
6, 412800, Note_off_c, 8, 59, 95
6, 412800, Note_off_c, 8, 54, 95
6, 412800, Note_off_c, 8, 47, 95
6, 412800, Note_on_c, 8, 59, 95
6, 412800, Note_on_c, 8, 54, 95
6, 412800, Note_on_c, 8, 47, 95
6, 413760, Note_off_c, 8, 59, 95
6, 413760, Note_off_c, 8, 54, 95
6, 413760, Note_off_c, 8, 47, 95
6, 413760, Note_on_c, 8, 59, 95
6, 413760, Note_on_c, 8, 54, 95
6, 413760, Note_on_c, 8, 47, 95
6, 414720, Note_off_c, 8, 59, 95
6, 414720, Note_off_c, 8, 54, 95
6, 414720, Note_off_c, 8, 47, 95
6, 414720, Note_on_c, 8, 52, 95
6, 414720, Note_on_c, 8, 45, 95
6, 415680, Note_off_c, 8, 52, 95
6, 415680, Note_off_c, 8, 45, 95
6, 415680, Note_on_c, 8, 52, 95
6, 415680, Note_on_c, 8, 45, 95
6, 416640, Note_off_c, 8, 52, 95
6, 416640, Note_off_c, 8, 45, 95
6, 416640, Note_on_c, 8, 52, 95
6, 416640, Note_on_c, 8, 45, 95
6, 417600, Note_off_c, 8, 52, 95
6, 417600, Note_off_c, 8, 45, 95
6, 417600, Note_on_c, 8, 52, 95
6, 417600, Note_on_c, 8, 45, 95
6, 418080, Note_off_c, 8, 52, 95
6, 418080, Note_off_c, 8, 45, 95
6, 418080, Note_on_c, 8, 59, 95
6, 418080, Note_on_c, 8, 54, 95
6, 418080, Note_on_c, 8, 47, 95
6, 419520, Note_off_c, 8, 59, 95
6, 419520, Note_off_c, 8, 54, 95
6, 419520, Note_off_c, 8, 47, 95
6, 419520, Note_on_c, 8, 59, 95
6, 419520, Note_on_c, 8, 54, 95
6, 419520, Note_on_c, 8, 47, 95
6, 420480, Note_off_c, 8, 59, 95
6, 420480, Note_off_c, 8, 54, 95
6, 420480, Note_off_c, 8, 47, 95
6, 420480, Note_on_c, 8, 59, 95
6, 420480, Note_on_c, 8, 54, 95
6, 420480, Note_on_c, 8, 47, 95
6, 421440, Note_off_c, 8, 59, 95
6, 421440, Note_off_c, 8, 54, 95
6, 421440, Note_off_c, 8, 47, 95
6, 421440, Note_on_c, 8, 59, 95
6, 421440, Note_on_c, 8, 54, 95
6, 421440, Note_on_c, 8, 47, 95
6, 422400, Note_off_c, 8, 59, 95
6, 422400, Note_off_c, 8, 54, 95
6, 422400, Note_off_c, 8, 47, 95
6, 422400, Note_on_c, 8, 64, 95
6, 422400, Note_on_c, 8, 59, 95
6, 422400, Note_on_c, 8, 52, 95
6, 423360, Note_off_c, 8, 64, 95
6, 423360, Note_off_c, 8, 59, 95
6, 423360, Note_off_c, 8, 52, 95
6, 423360, Note_on_c, 8, 64, 95
6, 423360, Note_on_c, 8, 59, 95
6, 423360, Note_on_c, 8, 52, 95
6, 424320, Note_off_c, 8, 64, 95
6, 424320, Note_off_c, 8, 59, 95
6, 424320, Note_off_c, 8, 52, 95
6, 424320, Note_on_c, 8, 64, 95
6, 424320, Note_on_c, 8, 59, 95
6, 424320, Note_on_c, 8, 52, 95
6, 425280, Note_off_c, 8, 64, 95
6, 425280, Note_off_c, 8, 59, 95
6, 425280, Note_off_c, 8, 52, 95
6, 425280, Note_on_c, 8, 64, 95
6, 425280, Note_on_c, 8, 59, 95
6, 425280, Note_on_c, 8, 52, 95
6, 426240, Note_off_c, 8, 64, 95
6, 426240, Note_off_c, 8, 59, 95
6, 426240, Note_off_c, 8, 52, 95
6, 426240, Note_on_c, 8, 64, 95
6, 426240, Note_on_c, 8, 59, 95
6, 426240, Note_on_c, 8, 52, 95
6, 427200, Note_off_c, 8, 64, 95
6, 427200, Note_off_c, 8, 59, 95
6, 427200, Note_off_c, 8, 52, 95
6, 427200, Note_on_c, 8, 64, 95
6, 427200, Note_on_c, 8, 59, 95
6, 427200, Note_on_c, 8, 52, 95
6, 428160, Note_off_c, 8, 64, 95
6, 428160, Note_off_c, 8, 59, 95
6, 428160, Note_off_c, 8, 52, 95
6, 428160, Note_on_c, 8, 64, 95
6, 428160, Note_on_c, 8, 59, 95
6, 428160, Note_on_c, 8, 52, 95
6, 429120, Note_off_c, 8, 64, 95
6, 429120, Note_off_c, 8, 59, 95
6, 429120, Note_off_c, 8, 52, 95
6, 429120, Note_on_c, 8, 64, 95
6, 429120, Note_on_c, 8, 59, 95
6, 429120, Note_on_c, 8, 52, 95
6, 430080, Note_off_c, 8, 64, 95
6, 430080, Note_off_c, 8, 59, 95
6, 430080, Note_off_c, 8, 52, 95
6, 430080, Note_on_c, 8, 64, 95
6, 430080, Note_on_c, 8, 59, 95
6, 430080, Note_on_c, 8, 52, 95
6, 431040, Note_off_c, 8, 64, 95
6, 431040, Note_off_c, 8, 59, 95
6, 431040, Note_off_c, 8, 52, 95
6, 431040, Note_on_c, 8, 64, 95
6, 431040, Note_on_c, 8, 59, 95
6, 431040, Note_on_c, 8, 52, 95
6, 432000, Note_off_c, 8, 64, 95
6, 432000, Note_off_c, 8, 59, 95
6, 432000, Note_off_c, 8, 52, 95
6, 432000, Note_on_c, 8, 64, 95
6, 432000, Note_on_c, 8, 59, 95
6, 432000, Note_on_c, 8, 52, 95
6, 432960, Note_off_c, 8, 64, 95
6, 432960, Note_off_c, 8, 59, 95
6, 432960, Note_off_c, 8, 52, 95
6, 432960, Note_on_c, 8, 64, 95
6, 432960, Note_on_c, 8, 59, 95
6, 432960, Note_on_c, 8, 52, 95
6, 433920, Note_off_c, 8, 64, 95
6, 433920, Note_off_c, 8, 59, 95
6, 433920, Note_off_c, 8, 52, 95
6, 433920, Note_on_c, 8, 64, 95
6, 433920, Note_on_c, 8, 59, 95
6, 433920, Note_on_c, 8, 52, 95
6, 434880, Note_off_c, 8, 64, 95
6, 434880, Note_off_c, 8, 59, 95
6, 434880, Note_off_c, 8, 52, 95
6, 434880, Note_on_c, 8, 64, 95
6, 434880, Note_on_c, 8, 59, 95
6, 434880, Note_on_c, 8, 52, 95
6, 435840, Note_off_c, 8, 64, 95
6, 435840, Note_off_c, 8, 59, 95
6, 435840, Note_off_c, 8, 52, 95
6, 435840, Note_on_c, 8, 64, 95
6, 435840, Note_on_c, 8, 59, 95
6, 435840, Note_on_c, 8, 52, 95
6, 436800, Note_off_c, 8, 64, 95
6, 436800, Note_off_c, 8, 59, 95
6, 436800, Note_off_c, 8, 52, 95
6, 436800, Note_on_c, 8, 64, 95
6, 436800, Note_on_c, 8, 59, 95
6, 436800, Note_on_c, 8, 52, 95
6, 437760, Note_off_c, 8, 64, 95
6, 437760, Note_off_c, 8, 59, 95
6, 437760, Note_off_c, 8, 52, 95
6, 437760, Note_on_c, 8, 59, 95
6, 437760, Note_on_c, 8, 54, 95
6, 437760, Note_on_c, 8, 47, 95
6, 438720, Note_off_c, 8, 59, 95
6, 438720, Note_off_c, 8, 54, 95
6, 438720, Note_off_c, 8, 47, 95
6, 438720, Note_on_c, 8, 59, 95
6, 438720, Note_on_c, 8, 54, 95
6, 438720, Note_on_c, 8, 47, 95
6, 439680, Note_off_c, 8, 59, 95
6, 439680, Note_off_c, 8, 54, 95
6, 439680, Note_off_c, 8, 47, 95
6, 439680, Note_on_c, 8, 59, 95
6, 439680, Note_on_c, 8, 54, 95
6, 439680, Note_on_c, 8, 47, 95
6, 440640, Note_off_c, 8, 59, 95
6, 440640, Note_off_c, 8, 54, 95
6, 440640, Note_off_c, 8, 47, 95
6, 440640, Note_on_c, 8, 59, 95
6, 440640, Note_on_c, 8, 54, 95
6, 440640, Note_on_c, 8, 47, 95
6, 441600, Note_off_c, 8, 59, 95
6, 441600, Note_off_c, 8, 54, 95
6, 441600, Note_off_c, 8, 47, 95
6, 441600, Note_on_c, 8, 59, 95
6, 441600, Note_on_c, 8, 54, 95
6, 441600, Note_on_c, 8, 47, 95
6, 442560, Note_off_c, 8, 59, 95
6, 442560, Note_off_c, 8, 54, 95
6, 442560, Note_off_c, 8, 47, 95
6, 442560, Note_on_c, 8, 59, 95
6, 442560, Note_on_c, 8, 54, 95
6, 442560, Note_on_c, 8, 47, 95
6, 443520, Note_off_c, 8, 59, 95
6, 443520, Note_off_c, 8, 54, 95
6, 443520, Note_off_c, 8, 47, 95
6, 443520, Note_on_c, 8, 59, 95
6, 443520, Note_on_c, 8, 54, 95
6, 443520, Note_on_c, 8, 47, 95
6, 444480, Note_off_c, 8, 59, 95
6, 444480, Note_off_c, 8, 54, 95
6, 444480, Note_off_c, 8, 47, 95
6, 444480, Note_on_c, 8, 59, 95
6, 444480, Note_on_c, 8, 54, 95
6, 444480, Note_on_c, 8, 47, 95
6, 445440, Note_off_c, 8, 59, 95
6, 445440, Note_off_c, 8, 54, 95
6, 445440, Note_off_c, 8, 47, 95
6, 445440, Note_on_c, 8, 52, 95
6, 445440, Note_on_c, 8, 45, 95
6, 446400, Note_off_c, 8, 52, 95
6, 446400, Note_off_c, 8, 45, 95
6, 446400, Note_on_c, 8, 52, 95
6, 446400, Note_on_c, 8, 45, 95
6, 447360, Note_off_c, 8, 52, 95
6, 447360, Note_off_c, 8, 45, 95
6, 447360, Note_on_c, 8, 52, 95
6, 447360, Note_on_c, 8, 45, 95
6, 448320, Note_off_c, 8, 52, 95
6, 448320, Note_off_c, 8, 45, 95
6, 448320, Note_on_c, 8, 52, 95
6, 448320, Note_on_c, 8, 45, 95
6, 448800, Note_off_c, 8, 52, 95
6, 448800, Note_off_c, 8, 45, 95
6, 448800, Note_on_c, 8, 59, 95
6, 448800, Note_on_c, 8, 54, 95
6, 448800, Note_on_c, 8, 47, 95
6, 450240, Note_off_c, 8, 59, 95
6, 450240, Note_off_c, 8, 54, 95
6, 450240, Note_off_c, 8, 47, 95
6, 450240, Note_on_c, 8, 59, 95
6, 450240, Note_on_c, 8, 54, 95
6, 450240, Note_on_c, 8, 47, 95
6, 451200, Note_off_c, 8, 59, 95
6, 451200, Note_off_c, 8, 54, 95
6, 451200, Note_off_c, 8, 47, 95
6, 451200, Note_on_c, 8, 59, 95
6, 451200, Note_on_c, 8, 54, 95
6, 451200, Note_on_c, 8, 47, 95
6, 452160, Note_off_c, 8, 59, 95
6, 452160, Note_off_c, 8, 54, 95
6, 452160, Note_off_c, 8, 47, 95
6, 452160, Note_on_c, 8, 59, 95
6, 452160, Note_on_c, 8, 54, 95
6, 452160, Note_on_c, 8, 47, 95
6, 453120, Note_off_c, 8, 59, 95
6, 453120, Note_off_c, 8, 54, 95
6, 453120, Note_off_c, 8, 47, 95
6, 453120, Note_on_c, 8, 64, 95
6, 453120, Note_on_c, 8, 59, 95
6, 453120, Note_on_c, 8, 52, 95
6, 454080, Note_off_c, 8, 64, 95
6, 454080, Note_off_c, 8, 59, 95
6, 454080, Note_off_c, 8, 52, 95
6, 454080, Note_on_c, 8, 64, 95
6, 454080, Note_on_c, 8, 59, 95
6, 454080, Note_on_c, 8, 52, 95
6, 455040, Note_off_c, 8, 64, 95
6, 455040, Note_off_c, 8, 59, 95
6, 455040, Note_off_c, 8, 52, 95
6, 455040, Note_on_c, 8, 64, 95
6, 455040, Note_on_c, 8, 59, 95
6, 455040, Note_on_c, 8, 52, 95
6, 456000, Note_off_c, 8, 64, 95
6, 456000, Note_off_c, 8, 59, 95
6, 456000, Note_off_c, 8, 52, 95
6, 456000, Note_on_c, 8, 64, 95
6, 456000, Note_on_c, 8, 59, 95
6, 456000, Note_on_c, 8, 52, 95
6, 456960, Note_off_c, 8, 64, 95
6, 456960, Note_off_c, 8, 59, 95
6, 456960, Note_off_c, 8, 52, 95
6, 456960, Note_on_c, 8, 64, 95
6, 456960, Note_on_c, 8, 59, 95
6, 456960, Note_on_c, 8, 52, 95
6, 457920, Note_off_c, 8, 64, 95
6, 457920, Note_off_c, 8, 59, 95
6, 457920, Note_off_c, 8, 52, 95
6, 457920, Note_on_c, 8, 64, 95
6, 457920, Note_on_c, 8, 59, 95
6, 457920, Note_on_c, 8, 52, 95
6, 458880, Note_off_c, 8, 64, 95
6, 458880, Note_off_c, 8, 59, 95
6, 458880, Note_off_c, 8, 52, 95
6, 458880, Note_on_c, 8, 64, 95
6, 458880, Note_on_c, 8, 59, 95
6, 458880, Note_on_c, 8, 52, 95
6, 459840, Note_off_c, 8, 64, 95
6, 459840, Note_off_c, 8, 59, 95
6, 459840, Note_off_c, 8, 52, 95
6, 459840, Note_on_c, 8, 64, 95
6, 459840, Note_on_c, 8, 59, 95
6, 459840, Note_on_c, 8, 52, 95
6, 460800, Note_off_c, 8, 64, 95
6, 460800, Note_off_c, 8, 59, 95
6, 460800, Note_off_c, 8, 52, 95
6, 460800, Note_on_c, 8, 52, 95
6, 460800, Note_on_c, 8, 45, 95
6, 461760, Note_off_c, 8, 52, 95
6, 461760, Note_off_c, 8, 45, 95
6, 461760, Note_on_c, 8, 52, 95
6, 461760, Note_on_c, 8, 45, 95
6, 462720, Note_off_c, 8, 52, 95
6, 462720, Note_off_c, 8, 45, 95
6, 462720, Note_on_c, 8, 52, 95
6, 462720, Note_on_c, 8, 45, 95
6, 463680, Note_off_c, 8, 52, 95
6, 463680, Note_off_c, 8, 45, 95
6, 463680, Note_on_c, 8, 52, 95
6, 463680, Note_on_c, 8, 45, 95
6, 464640, Note_off_c, 8, 52, 95
6, 464640, Note_off_c, 8, 45, 95
6, 464640, Note_on_c, 8, 52, 95
6, 464640, Note_on_c, 8, 45, 95
6, 465600, Note_off_c, 8, 52, 95
6, 465600, Note_off_c, 8, 45, 95
6, 465600, Note_on_c, 8, 52, 95
6, 465600, Note_on_c, 8, 45, 95
6, 466560, Note_off_c, 8, 52, 95
6, 466560, Note_off_c, 8, 45, 95
6, 466560, Note_on_c, 8, 52, 95
6, 466560, Note_on_c, 8, 45, 95
6, 467520, Note_off_c, 8, 52, 95
6, 467520, Note_off_c, 8, 45, 95
6, 467520, Note_on_c, 8, 52, 95
6, 467520, Note_on_c, 8, 45, 95
6, 468480, Note_off_c, 8, 52, 95
6, 468480, Note_off_c, 8, 45, 95
6, 468480, Note_on_c, 8, 64, 95
6, 468480, Note_on_c, 8, 59, 95
6, 468480, Note_on_c, 8, 52, 95
6, 469440, Note_off_c, 8, 64, 95
6, 469440, Note_off_c, 8, 59, 95
6, 469440, Note_off_c, 8, 52, 95
6, 469440, Note_on_c, 8, 64, 95
6, 469440, Note_on_c, 8, 59, 95
6, 469440, Note_on_c, 8, 52, 95
6, 470400, Note_off_c, 8, 64, 95
6, 470400, Note_off_c, 8, 59, 95
6, 470400, Note_off_c, 8, 52, 95
6, 470400, Note_on_c, 8, 64, 95
6, 470400, Note_on_c, 8, 59, 95
6, 470400, Note_on_c, 8, 52, 95
6, 471360, Note_off_c, 8, 64, 95
6, 471360, Note_off_c, 8, 59, 95
6, 471360, Note_off_c, 8, 52, 95
6, 471360, Note_on_c, 8, 64, 95
6, 471360, Note_on_c, 8, 59, 95
6, 471360, Note_on_c, 8, 52, 95
6, 472320, Note_off_c, 8, 64, 95
6, 472320, Note_off_c, 8, 59, 95
6, 472320, Note_off_c, 8, 52, 95
6, 472320, Note_on_c, 8, 64, 95
6, 472320, Note_on_c, 8, 59, 95
6, 472320, Note_on_c, 8, 52, 95
6, 473280, Note_off_c, 8, 64, 95
6, 473280, Note_off_c, 8, 59, 95
6, 473280, Note_off_c, 8, 52, 95
6, 473280, Note_on_c, 8, 64, 95
6, 473280, Note_on_c, 8, 59, 95
6, 473280, Note_on_c, 8, 52, 95
6, 474240, Note_off_c, 8, 64, 95
6, 474240, Note_off_c, 8, 59, 95
6, 474240, Note_off_c, 8, 52, 95
6, 474240, Note_on_c, 8, 64, 95
6, 474240, Note_on_c, 8, 59, 95
6, 474240, Note_on_c, 8, 52, 95
6, 475200, Note_off_c, 8, 64, 95
6, 475200, Note_off_c, 8, 59, 95
6, 475200, Note_off_c, 8, 52, 95
6, 475200, Note_on_c, 8, 64, 95
6, 475200, Note_on_c, 8, 59, 95
6, 475200, Note_on_c, 8, 52, 95
6, 476160, Note_off_c, 8, 64, 95
6, 476160, Note_off_c, 8, 59, 95
6, 476160, Note_off_c, 8, 52, 95
6, 476160, Note_on_c, 8, 59, 95
6, 476160, Note_on_c, 8, 54, 95
6, 476160, Note_on_c, 8, 47, 95
6, 477120, Note_off_c, 8, 59, 95
6, 477120, Note_off_c, 8, 54, 95
6, 477120, Note_off_c, 8, 47, 95
6, 477120, Note_on_c, 8, 59, 95
6, 477120, Note_on_c, 8, 54, 95
6, 477120, Note_on_c, 8, 47, 95
6, 478080, Note_off_c, 8, 59, 95
6, 478080, Note_off_c, 8, 54, 95
6, 478080, Note_off_c, 8, 47, 95
6, 478080, Note_on_c, 8, 59, 95
6, 478080, Note_on_c, 8, 54, 95
6, 478080, Note_on_c, 8, 47, 95
6, 479040, Note_off_c, 8, 59, 95
6, 479040, Note_off_c, 8, 54, 95
6, 479040, Note_off_c, 8, 47, 95
6, 479040, Note_on_c, 8, 59, 95
6, 479040, Note_on_c, 8, 54, 95
6, 479040, Note_on_c, 8, 47, 95
6, 480000, Note_off_c, 8, 59, 95
6, 480000, Note_off_c, 8, 54, 95
6, 480000, Note_off_c, 8, 47, 95
6, 480000, Note_on_c, 8, 59, 95
6, 480000, Note_on_c, 8, 54, 95
6, 480000, Note_on_c, 8, 47, 95
6, 480960, Note_off_c, 8, 59, 95
6, 480960, Note_off_c, 8, 54, 95
6, 480960, Note_off_c, 8, 47, 95
6, 480960, Note_on_c, 8, 59, 95
6, 480960, Note_on_c, 8, 54, 95
6, 480960, Note_on_c, 8, 47, 95
6, 481920, Note_off_c, 8, 59, 95
6, 481920, Note_off_c, 8, 54, 95
6, 481920, Note_off_c, 8, 47, 95
6, 481920, Note_on_c, 8, 59, 95
6, 481920, Note_on_c, 8, 54, 95
6, 481920, Note_on_c, 8, 47, 95
6, 482880, Note_off_c, 8, 59, 95
6, 482880, Note_off_c, 8, 54, 95
6, 482880, Note_off_c, 8, 47, 95
6, 482880, Note_on_c, 8, 59, 95
6, 482880, Note_on_c, 8, 54, 95
6, 482880, Note_on_c, 8, 47, 95
6, 483840, Note_off_c, 8, 59, 95
6, 483840, Note_off_c, 8, 54, 95
6, 483840, Note_off_c, 8, 47, 95
6, 483840, Note_on_c, 8, 64, 95
6, 483840, Note_on_c, 8, 59, 95
6, 483840, Note_on_c, 8, 52, 95
6, 484800, Note_off_c, 8, 64, 95
6, 484800, Note_off_c, 8, 59, 95
6, 484800, Note_off_c, 8, 52, 95
6, 484800, Note_on_c, 8, 64, 95
6, 484800, Note_on_c, 8, 59, 95
6, 484800, Note_on_c, 8, 52, 95
6, 485760, Note_off_c, 8, 64, 95
6, 485760, Note_off_c, 8, 59, 95
6, 485760, Note_off_c, 8, 52, 95
6, 485760, Note_on_c, 8, 64, 95
6, 485760, Note_on_c, 8, 59, 95
6, 485760, Note_on_c, 8, 52, 95
6, 486720, Note_off_c, 8, 64, 95
6, 486720, Note_off_c, 8, 59, 95
6, 486720, Note_off_c, 8, 52, 95
6, 486720, Note_on_c, 8, 64, 95
6, 486720, Note_on_c, 8, 59, 95
6, 486720, Note_on_c, 8, 52, 95
6, 487680, Note_off_c, 8, 64, 95
6, 487680, Note_off_c, 8, 59, 95
6, 487680, Note_off_c, 8, 52, 95
6, 487680, Note_on_c, 8, 64, 95
6, 487680, Note_on_c, 8, 59, 95
6, 487680, Note_on_c, 8, 52, 95
6, 488160, Note_off_c, 8, 64, 95
6, 488160, Note_off_c, 8, 59, 95
6, 488160, Note_off_c, 8, 52, 95
6, 488160, Note_on_c, 8, 64, 95
6, 488160, Note_on_c, 8, 59, 95
6, 488160, Note_on_c, 8, 52, 95
6, 488880, Note_off_c, 8, 64, 95
6, 488880, Note_off_c, 8, 59, 95
6, 488880, Note_off_c, 8, 52, 95
6, 488880, Note_on_c, 8, 64, 95
6, 488880, Note_on_c, 8, 59, 95
6, 488880, Note_on_c, 8, 52, 95
6, 489360, Note_off_c, 8, 64, 95
6, 489360, Note_off_c, 8, 59, 95
6, 489360, Note_off_c, 8, 52, 95
6, 489360, Note_on_c, 8, 64, 95
6, 489360, Note_on_c, 8, 59, 95
6, 489360, Note_on_c, 8, 52, 95
6, 489600, Note_off_c, 8, 64, 95
6, 489600, Note_off_c, 8, 59, 95
6, 489600, Note_off_c, 8, 52, 95
6, 489600, Note_on_c, 8, 64, 95
6, 489600, Note_on_c, 8, 59, 95
6, 489600, Note_on_c, 8, 52, 95
6, 490080, Note_off_c, 8, 64, 95
6, 490080, Note_off_c, 8, 59, 95
6, 490080, Note_off_c, 8, 52, 95
6, 490080, Note_on_c, 8, 64, 95
6, 490080, Note_on_c, 8, 59, 95
6, 490080, Note_on_c, 8, 52, 95
6, 490320, Note_off_c, 8, 64, 95
6, 490320, Note_off_c, 8, 59, 95
6, 490320, Note_off_c, 8, 52, 95
6, 490320, Note_on_c, 8, 64, 95
6, 490320, Note_on_c, 8, 59, 95
6, 490320, Note_on_c, 8, 52, 95
6, 490560, Note_off_c, 8, 64, 95
6, 490560, Note_off_c, 8, 59, 95
6, 490560, Note_off_c, 8, 52, 95
6, 490560, Note_on_c, 8, 64, 95
6, 490560, Note_on_c, 8, 59, 95
6, 490560, Note_on_c, 8, 52, 95
6, 490800, Note_off_c, 8, 64, 95
6, 490800, Note_off_c, 8, 59, 95
6, 490800, Note_off_c, 8, 52, 95
6, 490800, Note_on_c, 8, 64, 95
6, 490800, Note_on_c, 8, 59, 95
6, 490800, Note_on_c, 8, 52, 95
6, 491040, Note_off_c, 8, 64, 95
6, 491040, Note_off_c, 8, 59, 95
6, 491040, Note_off_c, 8, 52, 95
6, 491040, Note_on_c, 8, 64, 95
6, 491040, Note_on_c, 8, 59, 95
6, 491040, Note_on_c, 8, 52, 95
6, 491280, Note_off_c, 8, 64, 95
6, 491280, Note_off_c, 8, 59, 95
6, 491280, Note_off_c, 8, 52, 95
6, 491280, Note_on_c, 8, 64, 95
6, 491280, Note_on_c, 8, 59, 95
6, 491280, Note_on_c, 8, 52, 95
6, 491520, Note_off_c, 8, 64, 95
6, 491520, Note_off_c, 8, 59, 95
6, 491520, Note_off_c, 8, 52, 95
6, 491520, Note_on_c, 8, 64, 95
6, 491520, Note_on_c, 8, 59, 95
6, 491520, Note_on_c, 8, 52, 95
6, 492480, Note_off_c, 8, 64, 95
6, 492480, Note_off_c, 8, 59, 95
6, 492480, Note_off_c, 8, 52, 95
6, 492480, Note_on_c, 8, 64, 95
6, 492480, Note_on_c, 8, 59, 95
6, 492480, Note_on_c, 8, 52, 95
6, 493440, Note_off_c, 8, 64, 95
6, 493440, Note_off_c, 8, 59, 95
6, 493440, Note_off_c, 8, 52, 95
6, 493440, Note_on_c, 8, 64, 95
6, 493440, Note_on_c, 8, 59, 95
6, 493440, Note_on_c, 8, 52, 95
6, 494400, Note_off_c, 8, 64, 95
6, 494400, Note_off_c, 8, 59, 95
6, 494400, Note_off_c, 8, 52, 95
6, 494400, Note_on_c, 8, 64, 95
6, 494400, Note_on_c, 8, 59, 95
6, 494400, Note_on_c, 8, 52, 95
6, 495360, Note_off_c, 8, 64, 95
6, 495360, Note_off_c, 8, 59, 95
6, 495360, Note_off_c, 8, 52, 95
6, 495360, Note_on_c, 8, 64, 95
6, 495360, Note_on_c, 8, 59, 95
6, 495360, Note_on_c, 8, 52, 95
6, 496320, Note_off_c, 8, 64, 95
6, 496320, Note_off_c, 8, 59, 95
6, 496320, Note_off_c, 8, 52, 95
6, 496320, Note_on_c, 8, 64, 95
6, 496320, Note_on_c, 8, 59, 95
6, 496320, Note_on_c, 8, 52, 95
6, 497280, Note_off_c, 8, 64, 95
6, 497280, Note_off_c, 8, 59, 95
6, 497280, Note_off_c, 8, 52, 95
6, 497280, Note_on_c, 8, 64, 95
6, 497280, Note_on_c, 8, 59, 95
6, 497280, Note_on_c, 8, 52, 95
6, 498240, Note_off_c, 8, 64, 95
6, 498240, Note_off_c, 8, 59, 95
6, 498240, Note_off_c, 8, 52, 95
6, 498240, Note_on_c, 8, 64, 95
6, 498240, Note_on_c, 8, 59, 95
6, 498240, Note_on_c, 8, 52, 95
6, 499200, Note_off_c, 8, 64, 95
6, 499200, Note_off_c, 8, 59, 95
6, 499200, Note_off_c, 8, 52, 95
6, 499200, Note_on_c, 8, 59, 95
6, 499200, Note_on_c, 8, 54, 95
6, 499200, Note_on_c, 8, 47, 95
6, 500160, Note_off_c, 8, 59, 95
6, 500160, Note_off_c, 8, 54, 95
6, 500160, Note_off_c, 8, 47, 95
6, 500160, Note_on_c, 8, 59, 95
6, 500160, Note_on_c, 8, 54, 95
6, 500160, Note_on_c, 8, 47, 95
6, 501120, Note_off_c, 8, 59, 95
6, 501120, Note_off_c, 8, 54, 95
6, 501120, Note_off_c, 8, 47, 95
6, 501120, Note_on_c, 8, 59, 95
6, 501120, Note_on_c, 8, 54, 95
6, 501120, Note_on_c, 8, 47, 95
6, 502080, Note_off_c, 8, 59, 95
6, 502080, Note_off_c, 8, 54, 95
6, 502080, Note_off_c, 8, 47, 95
6, 502080, Note_on_c, 8, 59, 95
6, 502080, Note_on_c, 8, 54, 95
6, 502080, Note_on_c, 8, 47, 95
6, 503040, Note_off_c, 8, 59, 95
6, 503040, Note_off_c, 8, 54, 95
6, 503040, Note_off_c, 8, 47, 95
6, 503040, Note_on_c, 8, 59, 95
6, 503040, Note_on_c, 8, 54, 95
6, 503040, Note_on_c, 8, 47, 95
6, 504000, Note_off_c, 8, 59, 95
6, 504000, Note_off_c, 8, 54, 95
6, 504000, Note_off_c, 8, 47, 95
6, 504000, Note_on_c, 8, 59, 95
6, 504000, Note_on_c, 8, 54, 95
6, 504000, Note_on_c, 8, 47, 95
6, 504960, Note_off_c, 8, 59, 95
6, 504960, Note_off_c, 8, 54, 95
6, 504960, Note_off_c, 8, 47, 95
6, 504960, Note_on_c, 8, 59, 95
6, 504960, Note_on_c, 8, 54, 95
6, 504960, Note_on_c, 8, 47, 95
6, 505920, Note_off_c, 8, 59, 95
6, 505920, Note_off_c, 8, 54, 95
6, 505920, Note_off_c, 8, 47, 95
6, 505920, Note_on_c, 8, 59, 95
6, 505920, Note_on_c, 8, 54, 95
6, 505920, Note_on_c, 8, 47, 95
6, 506880, Note_off_c, 8, 59, 95
6, 506880, Note_off_c, 8, 54, 95
6, 506880, Note_off_c, 8, 47, 95
6, 506880, Note_on_c, 8, 52, 95
6, 506880, Note_on_c, 8, 45, 95
6, 507840, Note_off_c, 8, 52, 95
6, 507840, Note_off_c, 8, 45, 95
6, 507840, Note_on_c, 8, 52, 95
6, 507840, Note_on_c, 8, 45, 95
6, 508800, Note_off_c, 8, 52, 95
6, 508800, Note_off_c, 8, 45, 95
6, 508800, Note_on_c, 8, 52, 95
6, 508800, Note_on_c, 8, 45, 95
6, 509760, Note_off_c, 8, 52, 95
6, 509760, Note_off_c, 8, 45, 95
6, 509760, Note_on_c, 8, 52, 95
6, 509760, Note_on_c, 8, 45, 95
6, 510240, Note_off_c, 8, 52, 95
6, 510240, Note_off_c, 8, 45, 95
6, 510240, Note_on_c, 8, 59, 95
6, 510240, Note_on_c, 8, 54, 95
6, 510240, Note_on_c, 8, 47, 95
6, 511680, Note_off_c, 8, 59, 95
6, 511680, Note_off_c, 8, 54, 95
6, 511680, Note_off_c, 8, 47, 95
6, 511680, Note_on_c, 8, 59, 95
6, 511680, Note_on_c, 8, 54, 95
6, 511680, Note_on_c, 8, 47, 95
6, 512640, Note_off_c, 8, 59, 95
6, 512640, Note_off_c, 8, 54, 95
6, 512640, Note_off_c, 8, 47, 95
6, 512640, Note_on_c, 8, 59, 95
6, 512640, Note_on_c, 8, 54, 95
6, 512640, Note_on_c, 8, 47, 95
6, 513600, Note_off_c, 8, 59, 95
6, 513600, Note_off_c, 8, 54, 95
6, 513600, Note_off_c, 8, 47, 95
6, 513600, Note_on_c, 8, 59, 95
6, 513600, Note_on_c, 8, 54, 95
6, 513600, Note_on_c, 8, 47, 95
6, 514560, Note_off_c, 8, 59, 95
6, 514560, Note_off_c, 8, 54, 95
6, 514560, Note_off_c, 8, 47, 95
6, 514560, Note_on_c, 8, 64, 95
6, 514560, Note_on_c, 8, 59, 95
6, 514560, Note_on_c, 8, 52, 95
6, 515520, Note_off_c, 8, 64, 95
6, 515520, Note_off_c, 8, 59, 95
6, 515520, Note_off_c, 8, 52, 95
6, 515520, Note_on_c, 8, 64, 95
6, 515520, Note_on_c, 8, 59, 95
6, 515520, Note_on_c, 8, 52, 95
6, 516480, Note_off_c, 8, 64, 95
6, 516480, Note_off_c, 8, 59, 95
6, 516480, Note_off_c, 8, 52, 95
6, 516480, Note_on_c, 8, 64, 95
6, 516480, Note_on_c, 8, 59, 95
6, 516480, Note_on_c, 8, 52, 95
6, 517440, Note_off_c, 8, 64, 95
6, 517440, Note_off_c, 8, 59, 95
6, 517440, Note_off_c, 8, 52, 95
6, 517440, Note_on_c, 8, 64, 95
6, 517440, Note_on_c, 8, 59, 95
6, 517440, Note_on_c, 8, 52, 95
6, 518400, Note_off_c, 8, 64, 95
6, 518400, Note_off_c, 8, 59, 95
6, 518400, Note_off_c, 8, 52, 95
6, 518400, Note_on_c, 8, 64, 95
6, 518400, Note_on_c, 8, 59, 95
6, 518400, Note_on_c, 8, 52, 95
6, 519360, Note_off_c, 8, 64, 95
6, 519360, Note_off_c, 8, 59, 95
6, 519360, Note_off_c, 8, 52, 95
6, 519360, Note_on_c, 8, 64, 95
6, 519360, Note_on_c, 8, 59, 95
6, 519360, Note_on_c, 8, 52, 95
6, 520320, Note_off_c, 8, 64, 95
6, 520320, Note_off_c, 8, 59, 95
6, 520320, Note_off_c, 8, 52, 95
6, 520320, Note_on_c, 8, 64, 95
6, 520320, Note_on_c, 8, 59, 95
6, 520320, Note_on_c, 8, 52, 95
6, 521280, Note_off_c, 8, 64, 95
6, 521280, Note_off_c, 8, 59, 95
6, 521280, Note_off_c, 8, 52, 95
6, 521280, Note_on_c, 8, 64, 95
6, 521280, Note_on_c, 8, 59, 95
6, 521280, Note_on_c, 8, 52, 95
6, 522240, Note_off_c, 8, 64, 95
6, 522240, Note_off_c, 8, 59, 95
6, 522240, Note_off_c, 8, 52, 95
6, 522240, Note_on_c, 8, 52, 95
6, 522240, Note_on_c, 8, 45, 95
6, 523200, Note_off_c, 8, 52, 95
6, 523200, Note_off_c, 8, 45, 95
6, 523200, Note_on_c, 8, 52, 95
6, 523200, Note_on_c, 8, 45, 95
6, 524160, Note_off_c, 8, 52, 95
6, 524160, Note_off_c, 8, 45, 95
6, 524160, Note_on_c, 8, 52, 95
6, 524160, Note_on_c, 8, 45, 95
6, 525120, Note_off_c, 8, 52, 95
6, 525120, Note_off_c, 8, 45, 95
6, 525120, Note_on_c, 8, 52, 95
6, 525120, Note_on_c, 8, 45, 95
6, 526080, Note_off_c, 8, 52, 95
6, 526080, Note_off_c, 8, 45, 95
6, 526080, Note_on_c, 8, 52, 95
6, 526080, Note_on_c, 8, 45, 95
6, 527040, Note_off_c, 8, 52, 95
6, 527040, Note_off_c, 8, 45, 95
6, 527040, Note_on_c, 8, 52, 95
6, 527040, Note_on_c, 8, 45, 95
6, 528000, Note_off_c, 8, 52, 95
6, 528000, Note_off_c, 8, 45, 95
6, 528000, Note_on_c, 8, 52, 95
6, 528000, Note_on_c, 8, 45, 95
6, 528960, Note_off_c, 8, 52, 95
6, 528960, Note_off_c, 8, 45, 95
6, 528960, Note_on_c, 8, 52, 95
6, 528960, Note_on_c, 8, 45, 95
6, 529920, Note_off_c, 8, 52, 95
6, 529920, Note_off_c, 8, 45, 95
6, 529920, Note_on_c, 8, 64, 95
6, 529920, Note_on_c, 8, 59, 95
6, 529920, Note_on_c, 8, 52, 95
6, 530880, Note_off_c, 8, 64, 95
6, 530880, Note_off_c, 8, 59, 95
6, 530880, Note_off_c, 8, 52, 95
6, 530880, Note_on_c, 8, 64, 95
6, 530880, Note_on_c, 8, 59, 95
6, 530880, Note_on_c, 8, 52, 95
6, 531840, Note_off_c, 8, 64, 95
6, 531840, Note_off_c, 8, 59, 95
6, 531840, Note_off_c, 8, 52, 95
6, 531840, Note_on_c, 8, 64, 95
6, 531840, Note_on_c, 8, 59, 95
6, 531840, Note_on_c, 8, 52, 95
6, 532800, Note_off_c, 8, 64, 95
6, 532800, Note_off_c, 8, 59, 95
6, 532800, Note_off_c, 8, 52, 95
6, 532800, Note_on_c, 8, 64, 95
6, 532800, Note_on_c, 8, 59, 95
6, 532800, Note_on_c, 8, 52, 95
6, 533760, Note_off_c, 8, 64, 95
6, 533760, Note_off_c, 8, 59, 95
6, 533760, Note_off_c, 8, 52, 95
6, 533760, Note_on_c, 8, 64, 95
6, 533760, Note_on_c, 8, 59, 95
6, 533760, Note_on_c, 8, 52, 95
6, 534720, Note_off_c, 8, 64, 95
6, 534720, Note_off_c, 8, 59, 95
6, 534720, Note_off_c, 8, 52, 95
6, 534720, Note_on_c, 8, 64, 95
6, 534720, Note_on_c, 8, 59, 95
6, 534720, Note_on_c, 8, 52, 95
6, 535680, Note_off_c, 8, 64, 95
6, 535680, Note_off_c, 8, 59, 95
6, 535680, Note_off_c, 8, 52, 95
6, 535680, Note_on_c, 8, 64, 95
6, 535680, Note_on_c, 8, 59, 95
6, 535680, Note_on_c, 8, 52, 95
6, 536640, Note_off_c, 8, 64, 95
6, 536640, Note_off_c, 8, 59, 95
6, 536640, Note_off_c, 8, 52, 95
6, 536640, Note_on_c, 8, 64, 95
6, 536640, Note_on_c, 8, 59, 95
6, 536640, Note_on_c, 8, 52, 95
6, 537600, Note_off_c, 8, 64, 95
6, 537600, Note_off_c, 8, 59, 95
6, 537600, Note_off_c, 8, 52, 95
6, 537600, Note_on_c, 8, 59, 95
6, 537600, Note_on_c, 8, 54, 95
6, 537600, Note_on_c, 8, 47, 95
6, 538560, Note_off_c, 8, 59, 95
6, 538560, Note_off_c, 8, 54, 95
6, 538560, Note_off_c, 8, 47, 95
6, 538560, Note_on_c, 8, 59, 95
6, 538560, Note_on_c, 8, 54, 95
6, 538560, Note_on_c, 8, 47, 95
6, 539520, Note_off_c, 8, 59, 95
6, 539520, Note_off_c, 8, 54, 95
6, 539520, Note_off_c, 8, 47, 95
6, 539520, Note_on_c, 8, 59, 95
6, 539520, Note_on_c, 8, 54, 95
6, 539520, Note_on_c, 8, 47, 95
6, 540480, Note_off_c, 8, 59, 95
6, 540480, Note_off_c, 8, 54, 95
6, 540480, Note_off_c, 8, 47, 95
6, 540480, Note_on_c, 8, 59, 95
6, 540480, Note_on_c, 8, 54, 95
6, 540480, Note_on_c, 8, 47, 95
6, 541440, Note_off_c, 8, 59, 95
6, 541440, Note_off_c, 8, 54, 95
6, 541440, Note_off_c, 8, 47, 95
6, 541440, Note_on_c, 8, 59, 95
6, 541440, Note_on_c, 8, 54, 95
6, 541440, Note_on_c, 8, 47, 95
6, 542400, Note_off_c, 8, 59, 95
6, 542400, Note_off_c, 8, 54, 95
6, 542400, Note_off_c, 8, 47, 95
6, 542400, Note_on_c, 8, 59, 95
6, 542400, Note_on_c, 8, 54, 95
6, 542400, Note_on_c, 8, 47, 95
6, 543360, Note_off_c, 8, 59, 95
6, 543360, Note_off_c, 8, 54, 95
6, 543360, Note_off_c, 8, 47, 95
6, 543360, Note_on_c, 8, 59, 95
6, 543360, Note_on_c, 8, 54, 95
6, 543360, Note_on_c, 8, 47, 95
6, 544320, Note_off_c, 8, 59, 95
6, 544320, Note_off_c, 8, 54, 95
6, 544320, Note_off_c, 8, 47, 95
6, 544320, Note_on_c, 8, 59, 95
6, 544320, Note_on_c, 8, 54, 95
6, 544320, Note_on_c, 8, 47, 95
6, 545280, Note_off_c, 8, 59, 95
6, 545280, Note_off_c, 8, 54, 95
6, 545280, Note_off_c, 8, 47, 95
6, 545280, Note_on_c, 8, 64, 95
6, 545280, Note_on_c, 8, 59, 95
6, 545280, Note_on_c, 8, 52, 95
6, 546240, Note_off_c, 8, 64, 95
6, 546240, Note_off_c, 8, 59, 95
6, 546240, Note_off_c, 8, 52, 95
6, 546240, Note_on_c, 8, 64, 95
6, 546240, Note_on_c, 8, 59, 95
6, 546240, Note_on_c, 8, 52, 95
6, 547200, Note_off_c, 8, 64, 95
6, 547200, Note_off_c, 8, 59, 95
6, 547200, Note_off_c, 8, 52, 95
6, 547200, Note_on_c, 8, 64, 95
6, 547200, Note_on_c, 8, 59, 95
6, 547200, Note_on_c, 8, 52, 95
6, 548160, Note_off_c, 8, 64, 95
6, 548160, Note_off_c, 8, 59, 95
6, 548160, Note_off_c, 8, 52, 95
6, 548160, Note_on_c, 8, 64, 95
6, 548160, Note_on_c, 8, 59, 95
6, 548160, Note_on_c, 8, 52, 95
6, 549120, Note_off_c, 8, 64, 95
6, 549120, Note_off_c, 8, 59, 95
6, 549120, Note_off_c, 8, 52, 95
6, 549120, Note_on_c, 8, 64, 95
6, 549120, Note_on_c, 8, 59, 95
6, 549120, Note_on_c, 8, 52, 95
6, 549600, Note_off_c, 8, 64, 95
6, 549600, Note_off_c, 8, 59, 95
6, 549600, Note_off_c, 8, 52, 95
6, 549600, Note_on_c, 8, 64, 95
6, 549600, Note_on_c, 8, 59, 95
6, 549600, Note_on_c, 8, 52, 95
6, 550320, Note_off_c, 8, 64, 95
6, 550320, Note_off_c, 8, 59, 95
6, 550320, Note_off_c, 8, 52, 95
6, 550320, Note_on_c, 8, 64, 95
6, 550320, Note_on_c, 8, 59, 95
6, 550320, Note_on_c, 8, 52, 95
6, 550800, Note_off_c, 8, 64, 95
6, 550800, Note_off_c, 8, 59, 95
6, 550800, Note_off_c, 8, 52, 95
6, 550800, Note_on_c, 8, 64, 95
6, 550800, Note_on_c, 8, 59, 95
6, 550800, Note_on_c, 8, 52, 95
6, 551040, Note_off_c, 8, 64, 95
6, 551040, Note_off_c, 8, 59, 95
6, 551040, Note_off_c, 8, 52, 95
6, 551040, Note_on_c, 8, 64, 95
6, 551040, Note_on_c, 8, 59, 95
6, 551040, Note_on_c, 8, 52, 95
6, 551520, Note_off_c, 8, 64, 95
6, 551520, Note_off_c, 8, 59, 95
6, 551520, Note_off_c, 8, 52, 95
6, 551520, Note_on_c, 8, 64, 95
6, 551520, Note_on_c, 8, 59, 95
6, 551520, Note_on_c, 8, 52, 95
6, 551760, Note_off_c, 8, 64, 95
6, 551760, Note_off_c, 8, 59, 95
6, 551760, Note_off_c, 8, 52, 95
6, 551760, Note_on_c, 8, 64, 95
6, 551760, Note_on_c, 8, 59, 95
6, 551760, Note_on_c, 8, 52, 95
6, 552000, Note_off_c, 8, 64, 95
6, 552000, Note_off_c, 8, 59, 95
6, 552000, Note_off_c, 8, 52, 95
6, 552000, Note_on_c, 8, 64, 95
6, 552000, Note_on_c, 8, 59, 95
6, 552000, Note_on_c, 8, 52, 95
6, 552240, Note_off_c, 8, 64, 95
6, 552240, Note_off_c, 8, 59, 95
6, 552240, Note_off_c, 8, 52, 95
6, 552240, Note_on_c, 8, 64, 95
6, 552240, Note_on_c, 8, 59, 95
6, 552240, Note_on_c, 8, 52, 95
6, 552480, Note_off_c, 8, 64, 95
6, 552480, Note_off_c, 8, 59, 95
6, 552480, Note_off_c, 8, 52, 95
6, 552480, Note_on_c, 8, 64, 95
6, 552480, Note_on_c, 8, 59, 95
6, 552480, Note_on_c, 8, 52, 95
6, 552720, Note_off_c, 8, 64, 95
6, 552720, Note_off_c, 8, 59, 95
6, 552720, Note_off_c, 8, 52, 95
6, 552720, Note_on_c, 8, 64, 95
6, 552720, Note_on_c, 8, 59, 95
6, 552720, Note_on_c, 8, 52, 95
6, 552960, Note_off_c, 8, 64, 95
6, 552960, Note_off_c, 8, 59, 95
6, 552960, Note_off_c, 8, 52, 95
6, 552960, Note_on_c, 8, 64, 95
6, 552960, Note_on_c, 8, 59, 95
6, 552960, Note_on_c, 8, 52, 95
6, 553920, Note_off_c, 8, 64, 95
6, 553920, Note_off_c, 8, 59, 95
6, 553920, Note_off_c, 8, 52, 95
6, 553920, Note_on_c, 8, 64, 95
6, 553920, Note_on_c, 8, 59, 95
6, 553920, Note_on_c, 8, 52, 95
6, 554880, Note_off_c, 8, 64, 95
6, 554880, Note_off_c, 8, 59, 95
6, 554880, Note_off_c, 8, 52, 95
6, 554880, Note_on_c, 8, 64, 95
6, 554880, Note_on_c, 8, 59, 95
6, 554880, Note_on_c, 8, 52, 95
6, 555840, Note_off_c, 8, 64, 95
6, 555840, Note_off_c, 8, 59, 95
6, 555840, Note_off_c, 8, 52, 95
6, 555840, Note_on_c, 8, 64, 95
6, 555840, Note_on_c, 8, 59, 95
6, 555840, Note_on_c, 8, 52, 95
6, 556800, Note_off_c, 8, 64, 95
6, 556800, Note_off_c, 8, 59, 95
6, 556800, Note_off_c, 8, 52, 95
6, 556800, Note_on_c, 8, 64, 95
6, 556800, Note_on_c, 8, 59, 95
6, 556800, Note_on_c, 8, 52, 95
6, 557760, Note_off_c, 8, 64, 95
6, 557760, Note_off_c, 8, 59, 95
6, 557760, Note_off_c, 8, 52, 95
6, 557760, Note_on_c, 8, 64, 95
6, 557760, Note_on_c, 8, 59, 95
6, 557760, Note_on_c, 8, 52, 95
6, 558720, Note_off_c, 8, 64, 95
6, 558720, Note_off_c, 8, 59, 95
6, 558720, Note_off_c, 8, 52, 95
6, 558720, Note_on_c, 8, 64, 95
6, 558720, Note_on_c, 8, 59, 95
6, 558720, Note_on_c, 8, 52, 95
6, 559680, Note_off_c, 8, 64, 95
6, 559680, Note_off_c, 8, 59, 95
6, 559680, Note_off_c, 8, 52, 95
6, 559680, Note_on_c, 8, 64, 95
6, 559680, Note_on_c, 8, 59, 95
6, 559680, Note_on_c, 8, 52, 95
6, 560640, Note_off_c, 8, 64, 95
6, 560640, Note_off_c, 8, 59, 95
6, 560640, Note_off_c, 8, 52, 95
6, 560640, Note_on_c, 8, 59, 95
6, 560640, Note_on_c, 8, 54, 95
6, 560640, Note_on_c, 8, 47, 95
6, 561600, Note_off_c, 8, 59, 95
6, 561600, Note_off_c, 8, 54, 95
6, 561600, Note_off_c, 8, 47, 95
6, 561600, Note_on_c, 8, 59, 95
6, 561600, Note_on_c, 8, 54, 95
6, 561600, Note_on_c, 8, 47, 95
6, 562560, Note_off_c, 8, 59, 95
6, 562560, Note_off_c, 8, 54, 95
6, 562560, Note_off_c, 8, 47, 95
6, 562560, Note_on_c, 8, 59, 95
6, 562560, Note_on_c, 8, 54, 95
6, 562560, Note_on_c, 8, 47, 95
6, 563520, Note_off_c, 8, 59, 95
6, 563520, Note_off_c, 8, 54, 95
6, 563520, Note_off_c, 8, 47, 95
6, 563520, Note_on_c, 8, 59, 95
6, 563520, Note_on_c, 8, 54, 95
6, 563520, Note_on_c, 8, 47, 95
6, 564480, Note_off_c, 8, 59, 95
6, 564480, Note_off_c, 8, 54, 95
6, 564480, Note_off_c, 8, 47, 95
6, 564480, Note_on_c, 8, 59, 95
6, 564480, Note_on_c, 8, 54, 95
6, 564480, Note_on_c, 8, 47, 95
6, 565440, Note_off_c, 8, 59, 95
6, 565440, Note_off_c, 8, 54, 95
6, 565440, Note_off_c, 8, 47, 95
6, 565440, Note_on_c, 8, 59, 95
6, 565440, Note_on_c, 8, 54, 95
6, 565440, Note_on_c, 8, 47, 95
6, 566400, Note_off_c, 8, 59, 95
6, 566400, Note_off_c, 8, 54, 95
6, 566400, Note_off_c, 8, 47, 95
6, 566400, Note_on_c, 8, 59, 95
6, 566400, Note_on_c, 8, 54, 95
6, 566400, Note_on_c, 8, 47, 95
6, 567360, Note_off_c, 8, 59, 95
6, 567360, Note_off_c, 8, 54, 95
6, 567360, Note_off_c, 8, 47, 95
6, 567360, Note_on_c, 8, 59, 95
6, 567360, Note_on_c, 8, 54, 95
6, 567360, Note_on_c, 8, 47, 95
6, 568320, Note_off_c, 8, 59, 95
6, 568320, Note_off_c, 8, 54, 95
6, 568320, Note_off_c, 8, 47, 95
6, 568320, Note_on_c, 8, 52, 95
6, 568320, Note_on_c, 8, 45, 95
6, 569280, Note_off_c, 8, 52, 95
6, 569280, Note_off_c, 8, 45, 95
6, 569280, Note_on_c, 8, 52, 95
6, 569280, Note_on_c, 8, 45, 95
6, 570240, Note_off_c, 8, 52, 95
6, 570240, Note_off_c, 8, 45, 95
6, 570240, Note_on_c, 8, 52, 95
6, 570240, Note_on_c, 8, 45, 95
6, 571200, Note_off_c, 8, 52, 95
6, 571200, Note_off_c, 8, 45, 95
6, 571200, Note_on_c, 8, 52, 95
6, 571200, Note_on_c, 8, 45, 95
6, 571680, Note_off_c, 8, 52, 95
6, 571680, Note_off_c, 8, 45, 95
6, 571680, Note_on_c, 8, 59, 95
6, 571680, Note_on_c, 8, 54, 95
6, 571680, Note_on_c, 8, 47, 95
6, 573120, Note_off_c, 8, 59, 95
6, 573120, Note_off_c, 8, 54, 95
6, 573120, Note_off_c, 8, 47, 95
6, 573120, Note_on_c, 8, 59, 95
6, 573120, Note_on_c, 8, 54, 95
6, 573120, Note_on_c, 8, 47, 95
6, 574080, Note_off_c, 8, 59, 95
6, 574080, Note_off_c, 8, 54, 95
6, 574080, Note_off_c, 8, 47, 95
6, 574080, Note_on_c, 8, 59, 95
6, 574080, Note_on_c, 8, 54, 95
6, 574080, Note_on_c, 8, 47, 95
6, 575040, Note_off_c, 8, 59, 95
6, 575040, Note_off_c, 8, 54, 95
6, 575040, Note_off_c, 8, 47, 95
6, 575040, Note_on_c, 8, 59, 95
6, 575040, Note_on_c, 8, 54, 95
6, 575040, Note_on_c, 8, 47, 95
6, 576000, Note_off_c, 8, 59, 95
6, 576000, Note_off_c, 8, 54, 95
6, 576000, Note_off_c, 8, 47, 95
6, 576000, Note_on_c, 8, 64, 95
6, 576000, Note_on_c, 8, 59, 95
6, 576000, Note_on_c, 8, 52, 95
6, 576960, Note_off_c, 8, 64, 95
6, 576960, Note_off_c, 8, 59, 95
6, 576960, Note_off_c, 8, 52, 95
6, 576960, Note_on_c, 8, 64, 95
6, 576960, Note_on_c, 8, 59, 95
6, 576960, Note_on_c, 8, 52, 95
6, 577920, Note_off_c, 8, 64, 95
6, 577920, Note_off_c, 8, 59, 95
6, 577920, Note_off_c, 8, 52, 95
6, 577920, Note_on_c, 8, 64, 95
6, 577920, Note_on_c, 8, 59, 95
6, 577920, Note_on_c, 8, 52, 95
6, 578880, Note_off_c, 8, 64, 95
6, 578880, Note_off_c, 8, 59, 95
6, 578880, Note_off_c, 8, 52, 95
6, 578880, Note_on_c, 8, 64, 95
6, 578880, Note_on_c, 8, 59, 95
6, 578880, Note_on_c, 8, 52, 95
6, 579840, Note_off_c, 8, 64, 95
6, 579840, Note_off_c, 8, 59, 95
6, 579840, Note_off_c, 8, 52, 95
6, 579840, Note_on_c, 8, 64, 95
6, 579840, Note_on_c, 8, 59, 95
6, 579840, Note_on_c, 8, 52, 95
6, 580800, Note_off_c, 8, 64, 95
6, 580800, Note_off_c, 8, 59, 95
6, 580800, Note_off_c, 8, 52, 95
6, 580800, Note_on_c, 8, 64, 95
6, 580800, Note_on_c, 8, 59, 95
6, 580800, Note_on_c, 8, 52, 95
6, 581760, Note_off_c, 8, 64, 95
6, 581760, Note_off_c, 8, 59, 95
6, 581760, Note_off_c, 8, 52, 95
6, 581760, Note_on_c, 8, 64, 95
6, 581760, Note_on_c, 8, 59, 95
6, 581760, Note_on_c, 8, 52, 95
6, 582720, Note_off_c, 8, 64, 95
6, 582720, Note_off_c, 8, 59, 95
6, 582720, Note_off_c, 8, 52, 95
6, 582720, Note_on_c, 8, 64, 95
6, 582720, Note_on_c, 8, 59, 95
6, 582720, Note_on_c, 8, 52, 95
6, 583680, Note_off_c, 8, 64, 95
6, 583680, Note_off_c, 8, 59, 95
6, 583680, Note_off_c, 8, 52, 95
6, 583680, Note_on_c, 8, 64, 95
6, 583680, Note_on_c, 8, 59, 95
6, 583680, Note_on_c, 8, 52, 95
6, 584640, Note_off_c, 8, 64, 95
6, 584640, Note_off_c, 8, 59, 95
6, 584640, Note_off_c, 8, 52, 95
6, 584640, Note_on_c, 8, 64, 95
6, 584640, Note_on_c, 8, 59, 95
6, 584640, Note_on_c, 8, 52, 95
6, 585600, Note_off_c, 8, 64, 95
6, 585600, Note_off_c, 8, 59, 95
6, 585600, Note_off_c, 8, 52, 95
6, 585600, Note_on_c, 8, 64, 95
6, 585600, Note_on_c, 8, 59, 95
6, 585600, Note_on_c, 8, 52, 95
6, 586560, Note_off_c, 8, 64, 95
6, 586560, Note_off_c, 8, 59, 95
6, 586560, Note_off_c, 8, 52, 95
6, 586560, Note_on_c, 8, 64, 95
6, 586560, Note_on_c, 8, 59, 95
6, 586560, Note_on_c, 8, 52, 95
6, 587520, Note_off_c, 8, 64, 95
6, 587520, Note_off_c, 8, 59, 95
6, 587520, Note_off_c, 8, 52, 95
6, 587520, Note_on_c, 8, 64, 95
6, 587520, Note_on_c, 8, 59, 95
6, 587520, Note_on_c, 8, 52, 95
6, 588480, Note_off_c, 8, 64, 95
6, 588480, Note_off_c, 8, 59, 95
6, 588480, Note_off_c, 8, 52, 95
6, 588480, Note_on_c, 8, 64, 95
6, 588480, Note_on_c, 8, 59, 95
6, 588480, Note_on_c, 8, 52, 95
6, 589440, Note_off_c, 8, 64, 95
6, 589440, Note_off_c, 8, 59, 95
6, 589440, Note_off_c, 8, 52, 95
6, 589440, Note_on_c, 8, 64, 95
6, 589440, Note_on_c, 8, 59, 95
6, 589440, Note_on_c, 8, 52, 95
6, 590400, Note_off_c, 8, 64, 95
6, 590400, Note_off_c, 8, 59, 95
6, 590400, Note_off_c, 8, 52, 95
6, 590400, Note_on_c, 8, 64, 95
6, 590400, Note_on_c, 8, 59, 95
6, 590400, Note_on_c, 8, 52, 95
6, 591360, Note_off_c, 8, 64, 95
6, 591360, Note_off_c, 8, 59, 95
6, 591360, Note_off_c, 8, 52, 95
6, 591360, Note_on_c, 8, 59, 95
6, 591360, Note_on_c, 8, 54, 95
6, 591360, Note_on_c, 8, 47, 95
6, 592320, Note_off_c, 8, 59, 95
6, 592320, Note_off_c, 8, 54, 95
6, 592320, Note_off_c, 8, 47, 95
6, 592320, Note_on_c, 8, 59, 95
6, 592320, Note_on_c, 8, 54, 95
6, 592320, Note_on_c, 8, 47, 95
6, 593280, Note_off_c, 8, 59, 95
6, 593280, Note_off_c, 8, 54, 95
6, 593280, Note_off_c, 8, 47, 95
6, 593280, Note_on_c, 8, 59, 95
6, 593280, Note_on_c, 8, 54, 95
6, 593280, Note_on_c, 8, 47, 95
6, 594240, Note_off_c, 8, 59, 95
6, 594240, Note_off_c, 8, 54, 95
6, 594240, Note_off_c, 8, 47, 95
6, 594240, Note_on_c, 8, 59, 95
6, 594240, Note_on_c, 8, 54, 95
6, 594240, Note_on_c, 8, 47, 95
6, 595200, Note_off_c, 8, 59, 95
6, 595200, Note_off_c, 8, 54, 95
6, 595200, Note_off_c, 8, 47, 95
6, 595200, Note_on_c, 8, 59, 95
6, 595200, Note_on_c, 8, 54, 95
6, 595200, Note_on_c, 8, 47, 95
6, 596160, Note_off_c, 8, 59, 95
6, 596160, Note_off_c, 8, 54, 95
6, 596160, Note_off_c, 8, 47, 95
6, 596160, Note_on_c, 8, 59, 95
6, 596160, Note_on_c, 8, 54, 95
6, 596160, Note_on_c, 8, 47, 95
6, 597120, Note_off_c, 8, 59, 95
6, 597120, Note_off_c, 8, 54, 95
6, 597120, Note_off_c, 8, 47, 95
6, 597120, Note_on_c, 8, 59, 95
6, 597120, Note_on_c, 8, 54, 95
6, 597120, Note_on_c, 8, 47, 95
6, 598080, Note_off_c, 8, 59, 95
6, 598080, Note_off_c, 8, 54, 95
6, 598080, Note_off_c, 8, 47, 95
6, 598080, Note_on_c, 8, 59, 95
6, 598080, Note_on_c, 8, 54, 95
6, 598080, Note_on_c, 8, 47, 95
6, 599040, Note_off_c, 8, 59, 95
6, 599040, Note_off_c, 8, 54, 95
6, 599040, Note_off_c, 8, 47, 95
6, 599040, Note_on_c, 8, 52, 95
6, 599040, Note_on_c, 8, 45, 95
6, 600000, Note_off_c, 8, 52, 95
6, 600000, Note_off_c, 8, 45, 95
6, 600000, Note_on_c, 8, 52, 95
6, 600000, Note_on_c, 8, 45, 95
6, 600960, Note_off_c, 8, 52, 95
6, 600960, Note_off_c, 8, 45, 95
6, 600960, Note_on_c, 8, 52, 95
6, 600960, Note_on_c, 8, 45, 95
6, 601920, Note_off_c, 8, 52, 95
6, 601920, Note_off_c, 8, 45, 95
6, 601920, Note_on_c, 8, 52, 95
6, 601920, Note_on_c, 8, 45, 95
6, 602400, Note_off_c, 8, 52, 95
6, 602400, Note_off_c, 8, 45, 95
6, 602400, Note_on_c, 8, 59, 95
6, 602400, Note_on_c, 8, 54, 95
6, 602400, Note_on_c, 8, 47, 95
6, 603840, Note_off_c, 8, 59, 95
6, 603840, Note_off_c, 8, 54, 95
6, 603840, Note_off_c, 8, 47, 95
6, 603840, Note_on_c, 8, 59, 95
6, 603840, Note_on_c, 8, 54, 95
6, 603840, Note_on_c, 8, 47, 95
6, 604800, Note_off_c, 8, 59, 95
6, 604800, Note_off_c, 8, 54, 95
6, 604800, Note_off_c, 8, 47, 95
6, 604800, Note_on_c, 8, 59, 95
6, 604800, Note_on_c, 8, 54, 95
6, 604800, Note_on_c, 8, 47, 95
6, 605760, Note_off_c, 8, 59, 95
6, 605760, Note_off_c, 8, 54, 95
6, 605760, Note_off_c, 8, 47, 95
6, 605760, Note_on_c, 8, 59, 95
6, 605760, Note_on_c, 8, 54, 95
6, 605760, Note_on_c, 8, 47, 95
6, 606720, Note_off_c, 8, 59, 95
6, 606720, Note_off_c, 8, 54, 95
6, 606720, Note_off_c, 8, 47, 95
6, 606720, Note_on_c, 8, 64, 95
6, 606720, Note_on_c, 8, 59, 95
6, 606720, Note_on_c, 8, 52, 95
6, 607680, Note_off_c, 8, 64, 95
6, 607680, Note_off_c, 8, 59, 95
6, 607680, Note_off_c, 8, 52, 95
6, 607680, Note_on_c, 8, 64, 95
6, 607680, Note_on_c, 8, 59, 95
6, 607680, Note_on_c, 8, 52, 95
6, 608640, Note_off_c, 8, 64, 95
6, 608640, Note_off_c, 8, 59, 95
6, 608640, Note_off_c, 8, 52, 95
6, 608640, Note_on_c, 8, 64, 95
6, 608640, Note_on_c, 8, 59, 95
6, 608640, Note_on_c, 8, 52, 95
6, 609600, Note_off_c, 8, 64, 95
6, 609600, Note_off_c, 8, 59, 95
6, 609600, Note_off_c, 8, 52, 95
6, 609600, Note_on_c, 8, 64, 95
6, 609600, Note_on_c, 8, 59, 95
6, 609600, Note_on_c, 8, 52, 95
6, 610560, Note_off_c, 8, 64, 95
6, 610560, Note_off_c, 8, 59, 95
6, 610560, Note_off_c, 8, 52, 95
6, 610560, Note_on_c, 8, 64, 95
6, 610560, Note_on_c, 8, 59, 95
6, 610560, Note_on_c, 8, 52, 95
6, 611520, Note_off_c, 8, 64, 95
6, 611520, Note_off_c, 8, 59, 95
6, 611520, Note_off_c, 8, 52, 95
6, 611520, Note_on_c, 8, 64, 95
6, 611520, Note_on_c, 8, 59, 95
6, 611520, Note_on_c, 8, 52, 95
6, 612480, Note_off_c, 8, 64, 95
6, 612480, Note_off_c, 8, 59, 95
6, 612480, Note_off_c, 8, 52, 95
6, 612480, Note_on_c, 8, 64, 95
6, 612480, Note_on_c, 8, 59, 95
6, 612480, Note_on_c, 8, 52, 95
6, 613440, Note_off_c, 8, 64, 95
6, 613440, Note_off_c, 8, 59, 95
6, 613440, Note_off_c, 8, 52, 95
6, 613440, Note_on_c, 8, 64, 95
6, 613440, Note_on_c, 8, 59, 95
6, 613440, Note_on_c, 8, 52, 95
6, 614400, Note_off_c, 8, 64, 95
6, 614400, Note_off_c, 8, 59, 95
6, 614400, Note_off_c, 8, 52, 95
6, 614400, Note_on_c, 8, 64, 95
6, 614400, Note_on_c, 8, 59, 95
6, 614400, Note_on_c, 8, 52, 95
6, 615360, Note_off_c, 8, 64, 95
6, 615360, Note_off_c, 8, 59, 95
6, 615360, Note_off_c, 8, 52, 95
6, 615360, Note_on_c, 8, 64, 95
6, 615360, Note_on_c, 8, 59, 95
6, 615360, Note_on_c, 8, 52, 95
6, 616320, Note_off_c, 8, 64, 95
6, 616320, Note_off_c, 8, 59, 95
6, 616320, Note_off_c, 8, 52, 95
6, 616320, Note_on_c, 8, 64, 95
6, 616320, Note_on_c, 8, 59, 95
6, 616320, Note_on_c, 8, 52, 95
6, 617280, Note_off_c, 8, 64, 95
6, 617280, Note_off_c, 8, 59, 95
6, 617280, Note_off_c, 8, 52, 95
6, 617280, Note_on_c, 8, 64, 95
6, 617280, Note_on_c, 8, 59, 95
6, 617280, Note_on_c, 8, 52, 95
6, 618240, Note_off_c, 8, 64, 95
6, 618240, Note_off_c, 8, 59, 95
6, 618240, Note_off_c, 8, 52, 95
6, 618240, Note_on_c, 8, 64, 95
6, 618240, Note_on_c, 8, 59, 95
6, 618240, Note_on_c, 8, 52, 95
6, 619200, Note_off_c, 8, 64, 95
6, 619200, Note_off_c, 8, 59, 95
6, 619200, Note_off_c, 8, 52, 95
6, 619200, Note_on_c, 8, 64, 95
6, 619200, Note_on_c, 8, 59, 95
6, 619200, Note_on_c, 8, 52, 95
6, 620160, Note_off_c, 8, 64, 95
6, 620160, Note_off_c, 8, 59, 95
6, 620160, Note_off_c, 8, 52, 95
6, 620160, Note_on_c, 8, 64, 95
6, 620160, Note_on_c, 8, 59, 95
6, 620160, Note_on_c, 8, 52, 95
6, 621120, Note_off_c, 8, 64, 95
6, 621120, Note_off_c, 8, 59, 95
6, 621120, Note_off_c, 8, 52, 95
6, 621120, Note_on_c, 8, 64, 95
6, 621120, Note_on_c, 8, 59, 95
6, 621120, Note_on_c, 8, 52, 95
6, 622080, Note_off_c, 8, 64, 95
6, 622080, Note_off_c, 8, 59, 95
6, 622080, Note_off_c, 8, 52, 95
6, 622080, End_track
7, 0, Start_track
7, 0, Pitch_bend_c, 4, 8192
7, 0, Control_c, 4, 7, 111
7, 0, Control_c, 4, 10, 63
7, 0, Control_c, 4, 93, 0
7, 0, Control_c, 4, 91, 0
7, 0, Control_c, 4, 95, 0
7, 0, Control_c, 4, 92, 0
7, 0, Control_c, 4, 11, 127
7, 0, Program_c, 4, 33
7, 0, Control_c, 5, 7, 111
7, 0, Control_c, 5, 10, 63
7, 0, Control_c, 5, 93, 0
7, 0, Control_c, 5, 91, 0
7, 0, Control_c, 5, 95, 0
7, 0, Control_c, 5, 92, 0
7, 0, Control_c, 5, 11, 127
7, 0, Program_c, 5, 33
7, 7200, Note_on_c, 4, 28, 95
7, 7680, Note_off_c, 4, 28, 95
7, 7680, Note_on_c, 4, 28, 95
7, 14880, Note_off_c, 4, 28, 95
7, 14880, Note_on_c, 4, 28, 95
7, 15360, Note_off_c, 4, 28, 95
7, 15360, Note_on_c, 4, 28, 95
7, 15840, Note_off_c, 4, 28, 95
7, 15840, Note_on_c, 4, 28, 95
7, 16320, Note_off_c, 4, 28, 95
7, 16320, Note_on_c, 4, 28, 95
7, 16800, Note_off_c, 4, 28, 95
7, 16800, Note_on_c, 4, 28, 95
7, 17280, Note_off_c, 4, 28, 95
7, 17280, Note_on_c, 4, 28, 95
7, 17760, Note_off_c, 4, 28, 95
7, 17760, Note_on_c, 4, 28, 95
7, 18240, Note_off_c, 4, 28, 95
7, 18240, Note_on_c, 4, 28, 95
7, 18720, Note_off_c, 4, 28, 95
7, 18720, Note_on_c, 4, 28, 95
7, 19680, Note_off_c, 4, 28, 95
7, 19680, Note_on_c, 4, 28, 95
7, 20640, Note_off_c, 4, 28, 95
7, 20640, Note_on_c, 4, 28, 95
7, 21120, Note_off_c, 4, 28, 95
7, 21120, Note_on_c, 4, 28, 95
7, 21600, Note_off_c, 4, 28, 95
7, 21600, Note_on_c, 4, 28, 95
7, 22080, Note_off_c, 4, 28, 95
7, 22080, Note_on_c, 4, 32, 95
7, 22560, Note_off_c, 4, 32, 95
7, 22560, Note_on_c, 4, 33, 95
7, 23040, Note_off_c, 4, 33, 95
7, 23040, Note_on_c, 4, 35, 95
7, 24000, Note_off_c, 4, 35, 95
7, 24000, Note_on_c, 4, 35, 95
7, 24480, Note_off_c, 4, 35, 95
7, 24480, Note_on_c, 4, 35, 95
7, 24960, Note_off_c, 4, 35, 95
7, 24960, Note_on_c, 4, 35, 95
7, 25440, Note_off_c, 4, 35, 95
7, 25440, Note_on_c, 4, 35, 95
7, 25920, Note_off_c, 4, 35, 95
7, 25920, Note_on_c, 4, 35, 95
7, 26400, Note_off_c, 4, 35, 95
7, 26400, Note_on_c, 4, 35, 95
7, 27360, Note_off_c, 4, 35, 95
7, 27360, Note_on_c, 4, 35, 95
7, 27840, Note_off_c, 4, 35, 95
7, 27840, Note_on_c, 4, 35, 95
7, 28320, Note_off_c, 4, 35, 95
7, 28320, Note_on_c, 4, 35, 95
7, 28800, Note_off_c, 4, 35, 95
7, 28800, Note_on_c, 4, 35, 95
7, 29280, Note_off_c, 4, 35, 95
7, 29280, Note_on_c, 4, 40, 95
7, 29760, Note_off_c, 4, 40, 95
7, 29760, Note_on_c, 4, 39, 95
7, 30240, Note_off_c, 4, 39, 95
7, 30240, Note_on_c, 4, 35, 95
7, 30720, Note_off_c, 4, 35, 95
7, 30720, Note_on_c, 4, 33, 95
7, 31680, Note_off_c, 4, 33, 95
7, 31680, Note_on_c, 4, 33, 95
7, 32160, Note_off_c, 4, 33, 95
7, 32160, Note_on_c, 4, 33, 95
7, 32640, Note_off_c, 4, 33, 95
7, 32640, Note_on_c, 4, 33, 95
7, 33120, Note_off_c, 4, 33, 95
7, 33120, Note_on_c, 4, 33, 95
7, 33600, Note_off_c, 4, 33, 95
7, 33600, Note_on_c, 4, 33, 95
7, 34080, Note_off_c, 4, 33, 95
7, 34080, Note_on_c, 4, 35, 95
7, 35040, Note_off_c, 4, 35, 95
7, 35040, Note_on_c, 4, 35, 95
7, 35520, Note_off_c, 4, 35, 95
7, 35520, Note_on_c, 4, 35, 95
7, 36000, Note_off_c, 4, 35, 95
7, 36000, Note_on_c, 4, 35, 95
7, 36480, Note_off_c, 4, 35, 95
7, 36480, Note_on_c, 4, 35, 95
7, 36960, Note_off_c, 4, 35, 95
7, 36960, Note_on_c, 4, 42, 95
7, 37440, Note_off_c, 4, 42, 95
7, 37440, Note_on_c, 4, 40, 95
7, 37920, Note_off_c, 4, 40, 95
7, 37920, Note_on_c, 4, 39, 95
7, 38400, Note_off_c, 4, 39, 95
7, 38400, Note_on_c, 4, 40, 95
7, 39360, Note_off_c, 4, 40, 95
7, 39360, Note_on_c, 4, 40, 95
7, 39840, Note_off_c, 4, 40, 95
7, 39840, Note_on_c, 4, 40, 95
7, 40320, Note_off_c, 4, 40, 95
7, 40320, Note_on_c, 4, 40, 95
7, 40800, Note_off_c, 4, 40, 95
7, 40800, Note_on_c, 4, 40, 95
7, 41280, Note_off_c, 4, 40, 95
7, 41280, Note_on_c, 4, 40, 95
7, 41760, Note_off_c, 4, 40, 95
7, 41760, Note_on_c, 4, 40, 95
7, 42720, Note_off_c, 4, 40, 95
7, 42720, Note_on_c, 4, 40, 95
7, 43200, Note_off_c, 4, 40, 95
7, 43200, Note_on_c, 4, 40, 95
7, 43680, Note_off_c, 4, 40, 95
7, 43680, Note_on_c, 4, 40, 95
7, 44160, Note_off_c, 4, 40, 95
7, 44160, Note_on_c, 4, 40, 95
7, 44640, Note_off_c, 4, 40, 95
7, 44640, Note_on_c, 4, 42, 95
7, 45120, Note_off_c, 4, 42, 95
7, 45120, Note_on_c, 4, 40, 95
7, 45600, Note_off_c, 4, 40, 95
7, 45600, Note_on_c, 4, 39, 95
7, 46080, Note_off_c, 4, 39, 95
7, 46080, Note_on_c, 4, 28, 95
7, 46560, Note_off_c, 4, 28, 95
7, 46560, Note_on_c, 4, 28, 95
7, 47040, Note_off_c, 4, 28, 95
7, 47040, Note_on_c, 4, 28, 95
7, 47520, Note_off_c, 4, 28, 95
7, 47520, Note_on_c, 4, 28, 95
7, 48000, Note_off_c, 4, 28, 95
7, 48000, Note_on_c, 4, 28, 95
7, 48480, Note_off_c, 4, 28, 95
7, 48480, Note_on_c, 4, 28, 95
7, 48960, Note_off_c, 4, 28, 95
7, 48960, Note_on_c, 4, 28, 95
7, 49440, Note_off_c, 4, 28, 95
7, 49440, Note_on_c, 4, 28, 95
7, 50400, Note_off_c, 4, 28, 95
7, 50400, Note_on_c, 4, 28, 95
7, 51360, Note_off_c, 4, 28, 95
7, 51360, Note_on_c, 4, 28, 95
7, 51840, Note_off_c, 4, 28, 95
7, 51840, Note_on_c, 4, 28, 95
7, 52320, Note_off_c, 4, 28, 95
7, 52320, Note_on_c, 4, 28, 95
7, 52800, Note_off_c, 4, 28, 95
7, 52800, Note_on_c, 4, 32, 95
7, 53280, Note_off_c, 4, 32, 95
7, 53280, Note_on_c, 4, 33, 95
7, 53760, Note_off_c, 4, 33, 95
7, 53760, Note_on_c, 4, 35, 95
7, 54720, Note_off_c, 4, 35, 95
7, 54720, Note_on_c, 4, 35, 95
7, 55200, Note_off_c, 4, 35, 95
7, 55200, Note_on_c, 4, 35, 95
7, 55680, Note_off_c, 4, 35, 95
7, 55680, Note_on_c, 4, 35, 95
7, 56160, Note_off_c, 4, 35, 95
7, 56160, Note_on_c, 4, 35, 95
7, 56640, Note_off_c, 4, 35, 95
7, 56640, Note_on_c, 4, 35, 95
7, 57120, Note_off_c, 4, 35, 95
7, 57120, Note_on_c, 4, 35, 95
7, 58080, Note_off_c, 4, 35, 95
7, 58080, Note_on_c, 4, 35, 95
7, 58560, Note_off_c, 4, 35, 95
7, 58560, Note_on_c, 4, 35, 95
7, 59040, Note_off_c, 4, 35, 95
7, 59040, Note_on_c, 4, 35, 95
7, 59520, Note_off_c, 4, 35, 95
7, 59520, Note_on_c, 4, 35, 95
7, 60000, Note_off_c, 4, 35, 95
7, 60000, Note_on_c, 4, 40, 95
7, 60480, Note_off_c, 4, 40, 95
7, 60480, Note_on_c, 4, 39, 95
7, 60960, Note_off_c, 4, 39, 95
7, 60960, Note_on_c, 4, 35, 95
7, 61440, Note_off_c, 4, 35, 95
7, 61440, Note_on_c, 4, 33, 95
7, 62400, Note_off_c, 4, 33, 95
7, 62400, Note_on_c, 4, 33, 95
7, 62880, Note_off_c, 4, 33, 95
7, 62880, Note_on_c, 4, 33, 95
7, 63360, Note_off_c, 4, 33, 95
7, 63360, Note_on_c, 4, 33, 95
7, 63840, Note_off_c, 4, 33, 95
7, 63840, Note_on_c, 4, 33, 95
7, 64320, Note_off_c, 4, 33, 95
7, 64320, Note_on_c, 4, 33, 95
7, 64800, Note_off_c, 4, 33, 95
7, 64800, Note_on_c, 4, 35, 95
7, 65760, Note_off_c, 4, 35, 95
7, 65760, Note_on_c, 4, 35, 95
7, 66240, Note_off_c, 4, 35, 95
7, 66240, Note_on_c, 4, 35, 95
7, 66720, Note_off_c, 4, 35, 95
7, 66720, Note_on_c, 4, 35, 95
7, 67200, Note_off_c, 4, 35, 95
7, 67200, Note_on_c, 4, 35, 95
7, 67680, Note_off_c, 4, 35, 95
7, 67680, Note_on_c, 4, 42, 95
7, 68160, Note_off_c, 4, 42, 95
7, 68160, Note_on_c, 4, 40, 95
7, 68640, Note_off_c, 4, 40, 95
7, 68640, Note_on_c, 4, 39, 95
7, 69120, Note_off_c, 4, 39, 95
7, 69120, Note_on_c, 4, 40, 95
7, 70080, Note_off_c, 4, 40, 95
7, 70080, Note_on_c, 4, 40, 95
7, 70560, Note_off_c, 4, 40, 95
7, 70560, Note_on_c, 4, 40, 95
7, 71040, Note_off_c, 4, 40, 95
7, 71040, Note_on_c, 4, 40, 95
7, 71520, Note_off_c, 4, 40, 95
7, 71520, Note_on_c, 4, 40, 95
7, 72000, Note_off_c, 4, 40, 95
7, 72000, Note_on_c, 4, 40, 95
7, 72480, Note_off_c, 4, 40, 95
7, 72480, Note_on_c, 4, 40, 95
7, 73440, Note_off_c, 4, 40, 95
7, 73440, Note_on_c, 4, 40, 95
7, 73920, Note_off_c, 4, 40, 95
7, 73920, Note_on_c, 4, 40, 95
7, 74400, Note_off_c, 4, 40, 95
7, 74400, Note_on_c, 4, 28, 95
7, 75360, Note_off_c, 4, 28, 95
7, 75360, Note_on_c, 4, 28, 95
7, 76320, Note_off_c, 4, 28, 95
7, 76320, Note_on_c, 4, 28, 95
7, 76800, Note_off_c, 4, 28, 95
7, 76800, Note_on_c, 4, 28, 95
7, 77280, Note_off_c, 4, 28, 95
7, 77280, Note_on_c, 4, 28, 95
7, 77760, Note_off_c, 4, 28, 95
7, 77760, Note_on_c, 4, 28, 95
7, 78240, Note_off_c, 4, 28, 95
7, 78240, Note_on_c, 4, 28, 95
7, 78720, Note_off_c, 4, 28, 95
7, 78720, Note_on_c, 4, 28, 95
7, 79200, Note_off_c, 4, 28, 95
7, 79200, Note_on_c, 4, 28, 95
7, 79680, Note_off_c, 4, 28, 95
7, 79680, Note_on_c, 4, 28, 95
7, 80160, Note_off_c, 4, 28, 95
7, 80160, Note_on_c, 4, 28, 95
7, 81120, Note_off_c, 4, 28, 95
7, 81120, Note_on_c, 4, 28, 95
7, 82080, Note_off_c, 4, 28, 95
7, 82080, Note_on_c, 4, 28, 95
7, 82560, Note_off_c, 4, 28, 95
7, 82560, Note_on_c, 4, 28, 95
7, 83040, Note_off_c, 4, 28, 95
7, 83040, Note_on_c, 4, 28, 95
7, 83520, Note_off_c, 4, 28, 95
7, 83520, Note_on_c, 4, 32, 95
7, 84000, Note_off_c, 4, 32, 95
7, 84000, Note_on_c, 4, 33, 95
7, 84480, Note_off_c, 4, 33, 95
7, 84480, Note_on_c, 4, 35, 95
7, 85440, Note_off_c, 4, 35, 95
7, 85440, Note_on_c, 4, 35, 95
7, 85920, Note_off_c, 4, 35, 95
7, 85920, Note_on_c, 4, 35, 95
7, 86400, Note_off_c, 4, 35, 95
7, 86400, Note_on_c, 4, 35, 95
7, 86880, Note_off_c, 4, 35, 95
7, 86880, Note_on_c, 4, 35, 95
7, 87360, Note_off_c, 4, 35, 95
7, 87360, Note_on_c, 4, 35, 95
7, 87840, Note_off_c, 4, 35, 95
7, 87840, Note_on_c, 4, 35, 95
7, 88800, Note_off_c, 4, 35, 95
7, 88800, Note_on_c, 4, 35, 95
7, 89280, Note_off_c, 4, 35, 95
7, 89280, Note_on_c, 4, 35, 95
7, 89760, Note_off_c, 4, 35, 95
7, 89760, Note_on_c, 4, 35, 95
7, 90240, Note_off_c, 4, 35, 95
7, 90240, Note_on_c, 4, 35, 95
7, 90720, Note_off_c, 4, 35, 95
7, 90720, Note_on_c, 4, 40, 95
7, 91200, Note_off_c, 4, 40, 95
7, 91200, Note_on_c, 4, 39, 95
7, 91680, Note_off_c, 4, 39, 95
7, 91680, Note_on_c, 4, 35, 95
7, 92160, Note_off_c, 4, 35, 95
7, 92160, Note_on_c, 4, 33, 95
7, 93120, Note_off_c, 4, 33, 95
7, 93120, Note_on_c, 4, 33, 95
7, 93600, Note_off_c, 4, 33, 95
7, 93600, Note_on_c, 4, 33, 95
7, 94080, Note_off_c, 4, 33, 95
7, 94080, Note_on_c, 4, 33, 95
7, 94560, Note_off_c, 4, 33, 95
7, 94560, Note_on_c, 4, 33, 95
7, 95040, Note_off_c, 4, 33, 95
7, 95040, Note_on_c, 4, 33, 95
7, 95520, Note_off_c, 4, 33, 95
7, 95520, Note_on_c, 4, 35, 95
7, 96480, Note_off_c, 4, 35, 95
7, 96480, Note_on_c, 4, 35, 95
7, 96960, Note_off_c, 4, 35, 95
7, 96960, Note_on_c, 4, 35, 95
7, 97440, Note_off_c, 4, 35, 95
7, 97440, Note_on_c, 4, 35, 95
7, 97920, Note_off_c, 4, 35, 95
7, 97920, Note_on_c, 4, 35, 95
7, 98400, Note_off_c, 4, 35, 95
7, 98400, Note_on_c, 4, 42, 95
7, 98880, Note_off_c, 4, 42, 95
7, 98880, Note_on_c, 4, 40, 95
7, 99360, Note_off_c, 4, 40, 95
7, 99360, Note_on_c, 4, 39, 95
7, 99840, Note_off_c, 4, 39, 95
7, 99840, Note_on_c, 4, 40, 95
7, 100800, Note_off_c, 4, 40, 95
7, 100800, Note_on_c, 4, 40, 95
7, 101280, Note_off_c, 4, 40, 95
7, 101280, Note_on_c, 4, 40, 95
7, 101760, Note_off_c, 4, 40, 95
7, 101760, Note_on_c, 4, 40, 95
7, 102240, Note_off_c, 4, 40, 95
7, 102240, Note_on_c, 4, 40, 95
7, 102720, Note_off_c, 4, 40, 95
7, 102720, Note_on_c, 4, 40, 95
7, 103200, Note_off_c, 4, 40, 95
7, 103200, Note_on_c, 4, 40, 95
7, 104160, Note_off_c, 4, 40, 95
7, 104160, Note_on_c, 4, 40, 95
7, 104640, Note_off_c, 4, 40, 95
7, 104640, Note_on_c, 4, 40, 95
7, 105120, Note_off_c, 4, 40, 95
7, 105120, Note_on_c, 4, 28, 95
7, 106080, Note_off_c, 4, 28, 95
7, 106080, Note_on_c, 4, 28, 95
7, 107040, Note_off_c, 4, 28, 95
7, 107040, Note_on_c, 4, 28, 95
7, 107520, Note_off_c, 4, 28, 95
7, 107520, Note_on_c, 4, 28, 95
7, 108000, Note_off_c, 4, 28, 95
7, 108000, Note_on_c, 4, 28, 95
7, 108480, Note_off_c, 4, 28, 95
7, 108480, Note_on_c, 4, 28, 95
7, 108960, Note_off_c, 4, 28, 95
7, 108960, Note_on_c, 4, 28, 95
7, 109440, Note_off_c, 4, 28, 95
7, 109440, Note_on_c, 4, 28, 95
7, 109920, Note_off_c, 4, 28, 95
7, 109920, Note_on_c, 4, 28, 95
7, 110400, Note_off_c, 4, 28, 95
7, 110400, Note_on_c, 4, 28, 95
7, 110880, Note_off_c, 4, 28, 95
7, 110880, Note_on_c, 4, 28, 95
7, 111840, Note_off_c, 4, 28, 95
7, 111840, Note_on_c, 4, 28, 95
7, 112800, Note_off_c, 4, 28, 95
7, 112800, Note_on_c, 4, 28, 95
7, 113280, Note_off_c, 4, 28, 95
7, 113280, Note_on_c, 4, 28, 95
7, 113760, Note_off_c, 4, 28, 95
7, 113760, Note_on_c, 4, 28, 95
7, 114240, Note_off_c, 4, 28, 95
7, 114240, Note_on_c, 4, 32, 95
7, 114720, Note_off_c, 4, 32, 95
7, 114720, Note_on_c, 4, 33, 95
7, 115200, Note_off_c, 4, 33, 95
7, 115200, Note_on_c, 4, 35, 95
7, 116160, Note_off_c, 4, 35, 95
7, 116160, Note_on_c, 4, 35, 95
7, 116640, Note_off_c, 4, 35, 95
7, 116640, Note_on_c, 4, 35, 95
7, 117120, Note_off_c, 4, 35, 95
7, 117120, Note_on_c, 4, 35, 95
7, 117600, Note_off_c, 4, 35, 95
7, 117600, Note_on_c, 4, 35, 95
7, 118080, Note_off_c, 4, 35, 95
7, 118080, Note_on_c, 4, 35, 95
7, 118560, Note_off_c, 4, 35, 95
7, 118560, Note_on_c, 4, 35, 95
7, 119520, Note_off_c, 4, 35, 95
7, 119520, Note_on_c, 4, 35, 95
7, 120000, Note_off_c, 4, 35, 95
7, 120000, Note_on_c, 4, 35, 95
7, 120480, Note_off_c, 4, 35, 95
7, 120480, Note_on_c, 4, 35, 95
7, 120960, Note_off_c, 4, 35, 95
7, 120960, Note_on_c, 4, 35, 95
7, 121440, Note_off_c, 4, 35, 95
7, 121440, Note_on_c, 4, 40, 95
7, 121920, Note_off_c, 4, 40, 95
7, 121920, Note_on_c, 4, 39, 95
7, 122400, Note_off_c, 4, 39, 95
7, 122400, Note_on_c, 4, 35, 95
7, 122880, Note_off_c, 4, 35, 95
7, 122880, Note_on_c, 4, 33, 95
7, 123840, Note_off_c, 4, 33, 95
7, 123840, Note_on_c, 4, 33, 95
7, 124320, Note_off_c, 4, 33, 95
7, 124320, Note_on_c, 4, 33, 95
7, 124800, Note_off_c, 4, 33, 95
7, 124800, Note_on_c, 4, 33, 95
7, 125280, Note_off_c, 4, 33, 95
7, 125280, Note_on_c, 4, 33, 95
7, 125760, Note_off_c, 4, 33, 95
7, 125760, Note_on_c, 4, 33, 95
7, 126240, Note_off_c, 4, 33, 95
7, 126240, Note_on_c, 4, 35, 95
7, 127200, Note_off_c, 4, 35, 95
7, 127200, Note_on_c, 4, 35, 95
7, 127680, Note_off_c, 4, 35, 95
7, 127680, Note_on_c, 4, 35, 95
7, 128160, Note_off_c, 4, 35, 95
7, 128160, Note_on_c, 4, 35, 95
7, 128640, Note_off_c, 4, 35, 95
7, 128640, Note_on_c, 4, 35, 95
7, 129120, Note_off_c, 4, 35, 95
7, 129120, Note_on_c, 4, 42, 95
7, 129600, Note_off_c, 4, 42, 95
7, 129600, Note_on_c, 4, 40, 95
7, 130080, Note_off_c, 4, 40, 95
7, 130080, Note_on_c, 4, 39, 95
7, 130560, Note_off_c, 4, 39, 95
7, 130560, Note_on_c, 4, 40, 95
7, 131520, Note_off_c, 4, 40, 95
7, 131520, Note_on_c, 4, 40, 95
7, 132000, Note_off_c, 4, 40, 95
7, 132000, Note_on_c, 4, 40, 95
7, 132480, Note_off_c, 4, 40, 95
7, 132480, Note_on_c, 4, 40, 95
7, 132960, Note_off_c, 4, 40, 95
7, 132960, Note_on_c, 4, 40, 95
7, 133440, Note_off_c, 4, 40, 95
7, 133440, Note_on_c, 4, 40, 95
7, 133920, Note_off_c, 4, 40, 95
7, 133920, Note_on_c, 4, 40, 95
7, 134880, Note_off_c, 4, 40, 95
7, 134880, Note_on_c, 4, 40, 95
7, 135360, Note_off_c, 4, 40, 95
7, 135360, Note_on_c, 4, 40, 95
7, 135840, Note_off_c, 4, 40, 95
7, 135840, Note_on_c, 4, 28, 95
7, 136800, Note_off_c, 4, 28, 95
7, 136800, Note_on_c, 4, 28, 95
7, 137760, Note_off_c, 4, 28, 95
7, 137760, Note_on_c, 4, 28, 95
7, 138240, Note_off_c, 4, 28, 95
7, 138240, Note_on_c, 4, 28, 95
7, 144480, Note_off_c, 4, 28, 95
7, 144480, Note_on_c, 4, 28, 95
7, 144960, Note_off_c, 4, 28, 95
7, 144960, Note_on_c, 4, 32, 95
7, 145440, Note_off_c, 4, 32, 95
7, 145440, Note_on_c, 4, 33, 95
7, 145920, Note_off_c, 4, 33, 95
7, 145920, Note_on_c, 4, 35, 95
7, 146400, Note_off_c, 4, 35, 95
7, 146400, Note_on_c, 4, 35, 95
7, 146880, Note_off_c, 4, 35, 95
7, 146880, Note_on_c, 4, 35, 95
7, 147360, Note_off_c, 4, 35, 95
7, 147360, Note_on_c, 4, 35, 95
7, 147840, Note_off_c, 4, 35, 95
7, 147840, Note_on_c, 4, 35, 95
7, 148320, Note_off_c, 4, 35, 95
7, 148320, Note_on_c, 4, 35, 95
7, 148800, Note_off_c, 4, 35, 95
7, 148800, Note_on_c, 4, 35, 95
7, 149280, Note_off_c, 4, 35, 95
7, 149280, Note_on_c, 4, 35, 95
7, 150240, Note_off_c, 4, 35, 95
7, 150240, Note_on_c, 4, 35, 95
7, 150720, Note_off_c, 4, 35, 95
7, 150720, Note_on_c, 4, 35, 95
7, 151200, Note_off_c, 4, 35, 95
7, 151200, Note_on_c, 4, 35, 95
7, 151680, Note_off_c, 4, 35, 95
7, 151680, Note_on_c, 4, 35, 95
7, 152160, Note_off_c, 4, 35, 95
7, 152160, Note_on_c, 4, 35, 95
7, 152640, Note_off_c, 4, 35, 95
7, 152640, Note_on_c, 4, 35, 95
7, 153120, Note_off_c, 4, 35, 95
7, 153120, Note_on_c, 4, 35, 95
7, 153600, Note_off_c, 4, 35, 95
7, 153600, Note_on_c, 4, 33, 95
7, 154080, Note_off_c, 4, 33, 95
7, 154080, Note_on_c, 4, 33, 95
7, 154560, Note_off_c, 4, 33, 95
7, 154560, Note_on_c, 4, 33, 95
7, 155040, Note_off_c, 4, 33, 95
7, 155040, Note_on_c, 4, 33, 95
7, 155520, Note_off_c, 4, 33, 95
7, 155520, Note_on_c, 4, 33, 95
7, 156000, Note_off_c, 4, 33, 95
7, 156000, Note_on_c, 4, 33, 95
7, 156480, Note_off_c, 4, 33, 95
7, 156480, Note_on_c, 4, 33, 95
7, 156960, Note_off_c, 4, 33, 95
7, 156960, Note_on_c, 4, 35, 95
7, 157920, Note_off_c, 4, 35, 95
7, 157920, Note_on_c, 4, 35, 95
7, 158400, Note_off_c, 4, 35, 95
7, 158400, Note_on_c, 4, 35, 95
7, 158880, Note_off_c, 4, 35, 95
7, 158880, Note_on_c, 4, 35, 95
7, 159360, Note_off_c, 4, 35, 95
7, 159360, Note_on_c, 4, 35, 95
7, 159840, Note_off_c, 4, 35, 95
7, 159840, Note_on_c, 4, 35, 95
7, 160320, Note_off_c, 4, 35, 95
7, 160320, Note_on_c, 4, 35, 95
7, 160800, Note_off_c, 4, 35, 95
7, 160800, Note_on_c, 4, 35, 95
7, 161280, Note_off_c, 4, 35, 95
7, 161280, Note_on_c, 4, 28, 95
7, 161760, Note_off_c, 4, 28, 95
7, 161760, Note_on_c, 4, 28, 95
7, 162240, Note_off_c, 4, 28, 95
7, 162240, Note_on_c, 4, 28, 95
7, 162720, Note_off_c, 4, 28, 95
7, 162720, Note_on_c, 4, 28, 95
7, 163200, Note_off_c, 4, 28, 95
7, 163200, Note_on_c, 4, 28, 95
7, 163680, Note_off_c, 4, 28, 95
7, 163680, Note_on_c, 4, 28, 95
7, 164160, Note_off_c, 4, 28, 95
7, 164160, Note_on_c, 4, 28, 95
7, 164640, Note_off_c, 4, 28, 95
7, 164640, Note_on_c, 4, 28, 95
7, 165600, Note_off_c, 4, 28, 95
7, 165600, Note_on_c, 4, 28, 95
7, 166080, Note_off_c, 4, 28, 95
7, 166080, Note_on_c, 4, 28, 95
7, 166560, Note_off_c, 4, 28, 95
7, 166560, Note_on_c, 4, 28, 95
7, 167520, Note_off_c, 4, 28, 95
7, 167520, Note_on_c, 4, 28, 95
7, 168480, Note_off_c, 4, 28, 95
7, 168480, Note_on_c, 4, 28, 95
7, 168960, Note_off_c, 4, 28, 95
7, 168960, Note_on_c, 4, 28, 95
7, 175200, Note_off_c, 4, 28, 95
7, 175200, Note_on_c, 4, 28, 95
7, 175680, Note_off_c, 4, 28, 95
7, 175680, Note_on_c, 4, 32, 95
7, 176160, Note_off_c, 4, 32, 95
7, 176160, Note_on_c, 4, 33, 95
7, 176640, Note_off_c, 4, 33, 95
7, 176640, Note_on_c, 4, 35, 95
7, 177120, Note_off_c, 4, 35, 95
7, 177120, Note_on_c, 4, 35, 95
7, 177600, Note_off_c, 4, 35, 95
7, 177600, Note_on_c, 4, 35, 95
7, 178080, Note_off_c, 4, 35, 95
7, 178080, Note_on_c, 4, 35, 95
7, 178560, Note_off_c, 4, 35, 95
7, 178560, Note_on_c, 4, 35, 95
7, 179040, Note_off_c, 4, 35, 95
7, 179040, Note_on_c, 4, 35, 95
7, 179520, Note_off_c, 4, 35, 95
7, 179520, Note_on_c, 4, 35, 95
7, 180000, Note_off_c, 4, 35, 95
7, 180000, Note_on_c, 4, 35, 95
7, 180960, Note_off_c, 4, 35, 95
7, 180960, Note_on_c, 4, 35, 95
7, 181440, Note_off_c, 4, 35, 95
7, 181440, Note_on_c, 4, 35, 95
7, 181920, Note_off_c, 4, 35, 95
7, 181920, Note_on_c, 4, 35, 95
7, 182400, Note_off_c, 4, 35, 95
7, 182400, Note_on_c, 4, 35, 95
7, 182880, Note_off_c, 4, 35, 95
7, 182880, Note_on_c, 4, 35, 95
7, 183360, Note_off_c, 4, 35, 95
7, 183360, Note_on_c, 4, 35, 95
7, 183840, Note_off_c, 4, 35, 95
7, 183840, Note_on_c, 4, 35, 95
7, 184320, Note_off_c, 4, 35, 95
7, 184320, Note_on_c, 4, 33, 95
7, 184800, Note_off_c, 4, 33, 95
7, 184800, Note_on_c, 4, 33, 95
7, 185280, Note_off_c, 4, 33, 95
7, 185280, Note_on_c, 4, 33, 95
7, 185760, Note_off_c, 4, 33, 95
7, 185760, Note_on_c, 4, 33, 95
7, 186240, Note_off_c, 4, 33, 95
7, 186240, Note_on_c, 4, 33, 95
7, 186720, Note_off_c, 4, 33, 95
7, 186720, Note_on_c, 4, 33, 95
7, 187200, Note_off_c, 4, 33, 95
7, 187200, Note_on_c, 4, 33, 95
7, 187680, Note_off_c, 4, 33, 95
7, 187680, Note_on_c, 4, 35, 95
7, 188640, Note_off_c, 4, 35, 95
7, 188640, Note_on_c, 4, 35, 95
7, 189120, Note_off_c, 4, 35, 95
7, 189120, Note_on_c, 4, 35, 95
7, 189600, Note_off_c, 4, 35, 95
7, 189600, Note_on_c, 4, 35, 95
7, 190080, Note_off_c, 4, 35, 95
7, 190080, Note_on_c, 4, 35, 95
7, 190560, Note_off_c, 4, 35, 95
7, 190560, Note_on_c, 4, 35, 95
7, 191040, Note_off_c, 4, 35, 95
7, 191040, Note_on_c, 5, 35, 95
7, 191160, Pitch_bend_c, 5, 8576
7, 191280, Pitch_bend_c, 5, 8960
7, 191400, Pitch_bend_c, 5, 9472
7, 191520, Pitch_bend_c, 5, 9856
7, 191640, Pitch_bend_c, 5, 10368
7, 191760, Pitch_bend_c, 5, 10752
7, 191880, Pitch_bend_c, 5, 11264
7, 192000, Pitch_bend_c, 5, 11648
7, 192000, Pitch_bend_c, 5, 8192
7, 192000, Note_off_c, 5, 35, 95
7, 192000, Note_on_c, 4, 40, 95
7, 192480, Note_off_c, 4, 40, 95
7, 192480, Note_on_c, 4, 40, 95
7, 192960, Note_off_c, 4, 40, 95
7, 192960, Note_on_c, 4, 40, 95
7, 193440, Note_off_c, 4, 40, 95
7, 193440, Note_on_c, 4, 40, 95
7, 193920, Note_off_c, 4, 40, 95
7, 193920, Note_on_c, 4, 40, 95
7, 194400, Note_off_c, 4, 40, 95
7, 194400, Note_on_c, 4, 40, 95
7, 194880, Note_off_c, 4, 40, 95
7, 194880, Note_on_c, 4, 40, 95
7, 195360, Note_off_c, 4, 40, 95
7, 195360, Note_on_c, 4, 40, 95
7, 196320, Note_off_c, 4, 40, 95
7, 196320, Note_on_c, 4, 40, 95
7, 196800, Note_off_c, 4, 40, 95
7, 196800, Note_on_c, 4, 40, 95
7, 197280, Note_off_c, 4, 40, 95
7, 197280, Note_on_c, 5, 40, 95
7, 197400, Pitch_bend_c, 5, 8192
7, 197520, Pitch_bend_c, 5, 8192
7, 197640, Pitch_bend_c, 5, 8192
7, 197760, Pitch_bend_c, 5, 8192
7, 197760, Pitch_bend_c, 5, 8192
7, 199680, Note_off_c, 5, 40, 95
7, 199680, Note_on_c, 4, 33, 15
7, 199680, Note_on_c, 4, 28, 95
7, 199743, Note_off_c, 4, 33, 15
7, 206400, Note_off_c, 4, 28, 95
7, 206400, Note_on_c, 4, 28, 95
7, 206880, Note_off_c, 4, 28, 95
7, 206880, Note_on_c, 4, 28, 95
7, 214080, Note_off_c, 4, 28, 95
7, 214080, Note_on_c, 4, 33, 95
7, 214560, Note_off_c, 4, 33, 95
7, 214560, Note_on_c, 4, 33, 95
7, 215520, Note_off_c, 4, 33, 95
7, 215520, Note_on_c, 4, 33, 95
7, 216000, Note_off_c, 4, 33, 95
7, 216000, Note_on_c, 4, 33, 95
7, 216480, Note_off_c, 4, 33, 95
7, 216480, Note_on_c, 4, 33, 95
7, 216960, Note_off_c, 4, 33, 95
7, 216960, Note_on_c, 4, 33, 95
7, 217440, Note_off_c, 4, 33, 95
7, 217440, Note_on_c, 4, 33, 95
7, 217920, Note_off_c, 4, 33, 95
7, 217920, Note_on_c, 4, 33, 95
7, 218400, Note_off_c, 4, 33, 95
7, 218400, Note_on_c, 4, 33, 95
7, 218880, Note_off_c, 4, 33, 95
7, 218880, Note_on_c, 4, 33, 95
7, 219360, Note_off_c, 4, 33, 95
7, 219360, Note_on_c, 4, 33, 95
7, 219840, Note_off_c, 4, 33, 95
7, 219840, Note_on_c, 4, 33, 95
7, 220320, Note_off_c, 4, 33, 95
7, 220320, Note_on_c, 4, 33, 95
7, 220800, Note_off_c, 4, 33, 95
7, 220800, Note_on_c, 4, 33, 95
7, 221280, Note_off_c, 4, 33, 95
7, 221280, Note_on_c, 4, 33, 95
7, 221760, Note_off_c, 4, 33, 95
7, 221760, Note_on_c, 4, 33, 95
7, 222240, Note_off_c, 4, 33, 95
7, 222240, Note_on_c, 4, 33, 95
7, 222720, Note_off_c, 4, 33, 95
7, 222720, Note_on_c, 4, 35, 95
7, 223680, Note_off_c, 4, 35, 95
7, 223680, Note_on_c, 4, 35, 95
7, 224160, Note_off_c, 4, 35, 95
7, 224160, Note_on_c, 4, 35, 95
7, 224640, Note_off_c, 4, 35, 95
7, 224640, Note_on_c, 4, 35, 95
7, 225120, Note_off_c, 4, 35, 95
7, 225120, Note_on_c, 4, 35, 95
7, 225600, Note_off_c, 4, 35, 95
7, 225600, Note_on_c, 4, 35, 95
7, 226080, Note_off_c, 4, 35, 95
7, 226080, Note_on_c, 4, 35, 95
7, 227040, Note_off_c, 4, 35, 95
7, 227040, Note_on_c, 4, 35, 95
7, 227520, Note_off_c, 4, 35, 95
7, 227520, Note_on_c, 4, 35, 95
7, 228000, Note_off_c, 4, 35, 95
7, 228000, Note_on_c, 4, 35, 95
7, 228480, Note_off_c, 4, 35, 95
7, 228480, Note_on_c, 4, 35, 95
7, 228960, Note_off_c, 4, 35, 95
7, 228960, Note_on_c, 4, 40, 95
7, 229440, Note_off_c, 4, 40, 95
7, 229440, Note_on_c, 4, 39, 95
7, 229920, Note_off_c, 4, 39, 95
7, 229920, Note_on_c, 4, 35, 95
7, 230400, Note_off_c, 4, 35, 95
7, 230400, Note_on_c, 4, 33, 95
7, 231360, Note_off_c, 4, 33, 95
7, 231360, Note_on_c, 4, 33, 95
7, 231840, Note_off_c, 4, 33, 95
7, 231840, Note_on_c, 4, 33, 95
7, 232320, Note_off_c, 4, 33, 95
7, 232320, Note_on_c, 4, 33, 95
7, 232800, Note_off_c, 4, 33, 95
7, 232800, Note_on_c, 4, 33, 95
7, 233280, Note_off_c, 4, 33, 95
7, 233280, Note_on_c, 4, 33, 95
7, 233760, Note_off_c, 4, 33, 95
7, 233760, Note_on_c, 4, 35, 95
7, 234720, Note_off_c, 4, 35, 95
7, 234720, Note_on_c, 4, 35, 95
7, 235200, Note_off_c, 4, 35, 95
7, 235200, Note_on_c, 4, 35, 95
7, 235680, Note_off_c, 4, 35, 95
7, 235680, Note_on_c, 4, 35, 95
7, 236160, Note_off_c, 4, 35, 95
7, 236160, Note_on_c, 4, 35, 95
7, 236640, Note_off_c, 4, 35, 95
7, 236640, Note_on_c, 4, 42, 95
7, 237120, Note_off_c, 4, 42, 95
7, 237120, Note_on_c, 4, 40, 95
7, 237600, Note_off_c, 4, 40, 95
7, 237600, Note_on_c, 4, 39, 95
7, 238080, Note_off_c, 4, 39, 95
7, 238080, Note_on_c, 4, 40, 95
7, 239040, Note_off_c, 4, 40, 95
7, 239040, Note_on_c, 4, 40, 95
7, 239520, Note_off_c, 4, 40, 95
7, 239520, Note_on_c, 4, 40, 95
7, 240000, Note_off_c, 4, 40, 95
7, 240000, Note_on_c, 4, 40, 95
7, 240480, Note_off_c, 4, 40, 95
7, 240480, Note_on_c, 4, 40, 95
7, 240960, Note_off_c, 4, 40, 95
7, 240960, Note_on_c, 4, 40, 95
7, 241440, Note_off_c, 4, 40, 95
7, 241440, Note_on_c, 4, 40, 95
7, 242400, Note_off_c, 4, 40, 95
7, 242400, Note_on_c, 4, 40, 95
7, 242880, Note_off_c, 4, 40, 95
7, 242880, Note_on_c, 4, 40, 95
7, 243360, Note_off_c, 4, 40, 95
7, 243360, Note_on_c, 4, 40, 95
7, 243840, Note_off_c, 4, 40, 95
7, 243840, Note_on_c, 4, 40, 95
7, 244320, Note_off_c, 4, 40, 95
7, 244320, Note_on_c, 4, 42, 95
7, 244800, Note_off_c, 4, 42, 95
7, 244800, Note_on_c, 4, 40, 95
7, 245280, Note_off_c, 4, 40, 95
7, 245280, Note_on_c, 4, 39, 95
7, 245760, Note_off_c, 4, 39, 95
7, 245760, Note_on_c, 4, 28, 95
7, 246240, Note_off_c, 4, 28, 95
7, 246240, Note_on_c, 4, 28, 95
7, 246720, Note_off_c, 4, 28, 95
7, 246720, Note_on_c, 4, 28, 95
7, 247200, Note_off_c, 4, 28, 95
7, 247200, Note_on_c, 4, 28, 95
7, 247680, Note_off_c, 4, 28, 95
7, 247680, Note_on_c, 4, 28, 95
7, 248160, Note_off_c, 4, 28, 95
7, 248160, Note_on_c, 4, 28, 95
7, 248640, Note_off_c, 4, 28, 95
7, 248640, Note_on_c, 4, 28, 95
7, 249120, Note_off_c, 4, 28, 95
7, 249120, Note_on_c, 4, 28, 95
7, 250080, Note_off_c, 4, 28, 95
7, 250080, Note_on_c, 4, 28, 95
7, 251040, Note_off_c, 4, 28, 95
7, 251040, Note_on_c, 4, 28, 95
7, 251520, Note_off_c, 4, 28, 95
7, 251520, Note_on_c, 4, 28, 95
7, 252000, Note_off_c, 4, 28, 95
7, 252000, Note_on_c, 4, 28, 95
7, 252480, Note_off_c, 4, 28, 95
7, 252480, Note_on_c, 4, 32, 95
7, 252960, Note_off_c, 4, 32, 95
7, 252960, Note_on_c, 4, 33, 95
7, 253440, Note_off_c, 4, 33, 95
7, 253440, Note_on_c, 4, 35, 95
7, 254400, Note_off_c, 4, 35, 95
7, 254400, Note_on_c, 4, 35, 95
7, 254880, Note_off_c, 4, 35, 95
7, 254880, Note_on_c, 4, 35, 95
7, 255360, Note_off_c, 4, 35, 95
7, 255360, Note_on_c, 4, 35, 95
7, 255840, Note_off_c, 4, 35, 95
7, 255840, Note_on_c, 4, 35, 95
7, 256320, Note_off_c, 4, 35, 95
7, 256320, Note_on_c, 4, 35, 95
7, 256800, Note_off_c, 4, 35, 95
7, 256800, Note_on_c, 4, 35, 95
7, 257760, Note_off_c, 4, 35, 95
7, 257760, Note_on_c, 4, 35, 95
7, 258240, Note_off_c, 4, 35, 95
7, 258240, Note_on_c, 4, 35, 95
7, 258720, Note_off_c, 4, 35, 95
7, 258720, Note_on_c, 4, 35, 95
7, 259200, Note_off_c, 4, 35, 95
7, 259200, Note_on_c, 4, 35, 95
7, 259680, Note_off_c, 4, 35, 95
7, 259680, Note_on_c, 4, 40, 95
7, 260160, Note_off_c, 4, 40, 95
7, 260160, Note_on_c, 4, 39, 95
7, 260640, Note_off_c, 4, 39, 95
7, 260640, Note_on_c, 4, 35, 95
7, 261120, Note_off_c, 4, 35, 95
7, 261120, Note_on_c, 4, 33, 95
7, 262080, Note_off_c, 4, 33, 95
7, 262080, Note_on_c, 4, 33, 95
7, 262560, Note_off_c, 4, 33, 95
7, 262560, Note_on_c, 4, 33, 95
7, 263040, Note_off_c, 4, 33, 95
7, 263040, Note_on_c, 4, 33, 95
7, 263520, Note_off_c, 4, 33, 95
7, 263520, Note_on_c, 4, 33, 95
7, 264000, Note_off_c, 4, 33, 95
7, 264000, Note_on_c, 4, 33, 95
7, 264480, Note_off_c, 4, 33, 95
7, 264480, Note_on_c, 4, 35, 95
7, 265440, Note_off_c, 4, 35, 95
7, 265440, Note_on_c, 4, 35, 95
7, 265920, Note_off_c, 4, 35, 95
7, 265920, Note_on_c, 4, 35, 95
7, 266400, Note_off_c, 4, 35, 95
7, 266400, Note_on_c, 4, 35, 95
7, 266880, Note_off_c, 4, 35, 95
7, 266880, Note_on_c, 4, 35, 95
7, 267360, Note_off_c, 4, 35, 95
7, 267360, Note_on_c, 4, 42, 95
7, 267840, Note_off_c, 4, 42, 95
7, 267840, Note_on_c, 4, 40, 95
7, 268320, Note_off_c, 4, 40, 95
7, 268320, Note_on_c, 4, 39, 95
7, 268800, Note_off_c, 4, 39, 95
7, 268800, Note_on_c, 4, 40, 95
7, 269760, Note_off_c, 4, 40, 95
7, 269760, Note_on_c, 4, 40, 95
7, 270240, Note_off_c, 4, 40, 95
7, 270240, Note_on_c, 4, 40, 95
7, 270720, Note_off_c, 4, 40, 95
7, 270720, Note_on_c, 4, 40, 95
7, 271200, Note_off_c, 4, 40, 95
7, 271200, Note_on_c, 4, 40, 95
7, 271680, Note_off_c, 4, 40, 95
7, 271680, Note_on_c, 4, 40, 95
7, 272160, Note_off_c, 4, 40, 95
7, 272160, Note_on_c, 4, 40, 95
7, 273120, Note_off_c, 4, 40, 95
7, 273120, Note_on_c, 4, 40, 95
7, 273600, Note_off_c, 4, 40, 95
7, 273600, Note_on_c, 4, 40, 95
7, 274080, Note_off_c, 4, 40, 95
7, 274080, Note_on_c, 4, 28, 95
7, 275040, Note_off_c, 4, 28, 95
7, 275040, Note_on_c, 4, 28, 95
7, 276000, Note_off_c, 4, 28, 95
7, 276000, Note_on_c, 4, 28, 95
7, 276480, Note_off_c, 4, 28, 95
7, 276480, Note_on_c, 4, 28, 95
7, 276960, Note_off_c, 4, 28, 95
7, 276960, Note_on_c, 4, 28, 95
7, 277440, Note_off_c, 4, 28, 95
7, 277440, Note_on_c, 4, 28, 95
7, 277920, Note_off_c, 4, 28, 95
7, 277920, Note_on_c, 4, 28, 95
7, 278400, Note_off_c, 4, 28, 95
7, 278400, Note_on_c, 4, 28, 95
7, 278880, Note_off_c, 4, 28, 95
7, 278880, Note_on_c, 4, 28, 95
7, 279360, Note_off_c, 4, 28, 95
7, 279360, Note_on_c, 4, 28, 95
7, 279840, Note_off_c, 4, 28, 95
7, 279840, Note_on_c, 4, 28, 95
7, 280800, Note_off_c, 4, 28, 95
7, 280800, Note_on_c, 4, 28, 95
7, 281760, Note_off_c, 4, 28, 95
7, 281760, Note_on_c, 4, 28, 95
7, 282240, Note_off_c, 4, 28, 95
7, 282240, Note_on_c, 4, 28, 95
7, 282720, Note_off_c, 4, 28, 95
7, 282720, Note_on_c, 4, 28, 95
7, 283200, Note_off_c, 4, 28, 95
7, 283200, Note_on_c, 4, 32, 95
7, 283680, Note_off_c, 4, 32, 95
7, 283680, Note_on_c, 4, 33, 95
7, 284160, Note_off_c, 4, 33, 95
7, 284160, Note_on_c, 4, 35, 95
7, 285120, Note_off_c, 4, 35, 95
7, 285120, Note_on_c, 4, 35, 95
7, 285600, Note_off_c, 4, 35, 95
7, 285600, Note_on_c, 4, 35, 95
7, 286080, Note_off_c, 4, 35, 95
7, 286080, Note_on_c, 4, 35, 95
7, 286560, Note_off_c, 4, 35, 95
7, 286560, Note_on_c, 4, 35, 95
7, 287040, Note_off_c, 4, 35, 95
7, 287040, Note_on_c, 4, 35, 95
7, 287520, Note_off_c, 4, 35, 95
7, 287520, Note_on_c, 4, 35, 95
7, 288480, Note_off_c, 4, 35, 95
7, 288480, Note_on_c, 4, 35, 95
7, 288960, Note_off_c, 4, 35, 95
7, 288960, Note_on_c, 4, 35, 95
7, 289440, Note_off_c, 4, 35, 95
7, 289440, Note_on_c, 4, 35, 95
7, 289920, Note_off_c, 4, 35, 95
7, 289920, Note_on_c, 4, 35, 95
7, 290400, Note_off_c, 4, 35, 95
7, 290400, Note_on_c, 4, 40, 95
7, 290880, Note_off_c, 4, 40, 95
7, 290880, Note_on_c, 4, 39, 95
7, 291360, Note_off_c, 4, 39, 95
7, 291360, Note_on_c, 4, 35, 95
7, 291840, Note_off_c, 4, 35, 95
7, 291840, Note_on_c, 4, 33, 95
7, 292800, Note_off_c, 4, 33, 95
7, 292800, Note_on_c, 4, 33, 95
7, 293280, Note_off_c, 4, 33, 95
7, 293280, Note_on_c, 4, 33, 95
7, 293760, Note_off_c, 4, 33, 95
7, 293760, Note_on_c, 4, 33, 95
7, 294240, Note_off_c, 4, 33, 95
7, 294240, Note_on_c, 4, 33, 95
7, 294720, Note_off_c, 4, 33, 95
7, 294720, Note_on_c, 4, 33, 95
7, 295200, Note_off_c, 4, 33, 95
7, 295200, Note_on_c, 4, 35, 95
7, 296160, Note_off_c, 4, 35, 95
7, 296160, Note_on_c, 4, 35, 95
7, 296640, Note_off_c, 4, 35, 95
7, 296640, Note_on_c, 4, 35, 95
7, 297120, Note_off_c, 4, 35, 95
7, 297120, Note_on_c, 4, 35, 95
7, 297600, Note_off_c, 4, 35, 95
7, 297600, Note_on_c, 4, 35, 95
7, 298080, Note_off_c, 4, 35, 95
7, 298080, Note_on_c, 4, 42, 95
7, 298560, Note_off_c, 4, 42, 95
7, 298560, Note_on_c, 4, 40, 95
7, 299040, Note_off_c, 4, 40, 95
7, 299040, Note_on_c, 4, 39, 95
7, 299520, Note_off_c, 4, 39, 95
7, 299520, Note_on_c, 4, 40, 95
7, 300480, Note_off_c, 4, 40, 95
7, 300480, Note_on_c, 4, 40, 95
7, 300960, Note_off_c, 4, 40, 95
7, 300960, Note_on_c, 4, 40, 95
7, 301440, Note_off_c, 4, 40, 95
7, 301440, Note_on_c, 4, 40, 95
7, 301920, Note_off_c, 4, 40, 95
7, 301920, Note_on_c, 4, 40, 95
7, 302400, Note_off_c, 4, 40, 95
7, 302400, Note_on_c, 4, 40, 95
7, 302880, Note_off_c, 4, 40, 95
7, 302880, Note_on_c, 4, 40, 95
7, 303840, Note_off_c, 4, 40, 95
7, 303840, Note_on_c, 4, 40, 95
7, 304320, Note_off_c, 4, 40, 95
7, 304320, Note_on_c, 4, 40, 95
7, 304800, Note_off_c, 4, 40, 95
7, 304800, Note_on_c, 4, 28, 95
7, 305760, Note_off_c, 4, 28, 95
7, 305760, Note_on_c, 4, 28, 95
7, 306720, Note_off_c, 4, 28, 95
7, 306720, Note_on_c, 4, 28, 95
7, 307200, Note_off_c, 4, 28, 95
7, 307200, Note_on_c, 4, 28, 95
7, 307680, Note_off_c, 4, 28, 95
7, 307680, Note_on_c, 4, 28, 95
7, 308160, Note_off_c, 4, 28, 95
7, 308160, Note_on_c, 4, 28, 95
7, 308640, Note_off_c, 4, 28, 95
7, 308640, Note_on_c, 4, 28, 95
7, 309120, Note_off_c, 4, 28, 95
7, 309120, Note_on_c, 4, 28, 95
7, 309600, Note_off_c, 4, 28, 95
7, 309600, Note_on_c, 4, 28, 95
7, 310080, Note_off_c, 4, 28, 95
7, 310080, Note_on_c, 4, 28, 95
7, 310560, Note_off_c, 4, 28, 95
7, 310560, Note_on_c, 4, 28, 95
7, 311520, Note_off_c, 4, 28, 95
7, 311520, Note_on_c, 4, 28, 95
7, 312480, Note_off_c, 4, 28, 95
7, 312480, Note_on_c, 4, 28, 95
7, 312960, Note_off_c, 4, 28, 95
7, 312960, Note_on_c, 4, 28, 95
7, 313440, Note_off_c, 4, 28, 95
7, 313440, Note_on_c, 4, 28, 95
7, 313920, Note_off_c, 4, 28, 95
7, 313920, Note_on_c, 4, 32, 95
7, 314400, Note_off_c, 4, 32, 95
7, 314400, Note_on_c, 4, 33, 95
7, 314880, Note_off_c, 4, 33, 95
7, 314880, Note_on_c, 4, 35, 95
7, 315360, Note_off_c, 4, 35, 95
7, 315360, Note_on_c, 4, 35, 95
7, 315840, Note_off_c, 4, 35, 95
7, 315840, Note_on_c, 4, 35, 95
7, 316320, Note_off_c, 4, 35, 95
7, 316320, Note_on_c, 4, 35, 95
7, 316800, Note_off_c, 4, 35, 95
7, 316800, Note_on_c, 4, 35, 95
7, 317280, Note_off_c, 4, 35, 95
7, 317280, Note_on_c, 4, 35, 95
7, 317760, Note_off_c, 4, 35, 95
7, 317760, Note_on_c, 4, 35, 95
7, 318240, Note_off_c, 4, 35, 95
7, 318240, Note_on_c, 4, 35, 95
7, 319200, Note_off_c, 4, 35, 95
7, 319200, Note_on_c, 4, 35, 95
7, 319680, Note_off_c, 4, 35, 95
7, 319680, Note_on_c, 4, 35, 95
7, 320160, Note_off_c, 4, 35, 95
7, 320160, Note_on_c, 4, 35, 95
7, 320640, Note_off_c, 4, 35, 95
7, 320640, Note_on_c, 4, 35, 95
7, 321120, Note_off_c, 4, 35, 95
7, 321120, Note_on_c, 4, 35, 95
7, 321600, Note_off_c, 4, 35, 95
7, 321600, Note_on_c, 4, 35, 95
7, 322080, Note_off_c, 4, 35, 95
7, 322080, Note_on_c, 4, 35, 95
7, 322560, Note_off_c, 4, 35, 95
7, 322560, Note_on_c, 4, 33, 95
7, 323040, Note_off_c, 4, 33, 95
7, 323040, Note_on_c, 4, 33, 95
7, 323520, Note_off_c, 4, 33, 95
7, 323520, Note_on_c, 4, 33, 95
7, 324000, Note_off_c, 4, 33, 95
7, 324000, Note_on_c, 4, 33, 95
7, 324480, Note_off_c, 4, 33, 95
7, 324480, Note_on_c, 4, 33, 95
7, 324960, Note_off_c, 4, 33, 95
7, 324960, Note_on_c, 4, 33, 95
7, 325440, Note_off_c, 4, 33, 95
7, 325440, Note_on_c, 4, 33, 95
7, 325920, Note_off_c, 4, 33, 95
7, 325920, Note_on_c, 4, 35, 95
7, 326880, Note_off_c, 4, 35, 95
7, 326880, Note_on_c, 4, 35, 95
7, 327360, Note_off_c, 4, 35, 95
7, 327360, Note_on_c, 4, 35, 95
7, 327840, Note_off_c, 4, 35, 95
7, 327840, Note_on_c, 4, 35, 95
7, 328320, Note_off_c, 4, 35, 95
7, 328320, Note_on_c, 4, 35, 95
7, 328800, Note_off_c, 4, 35, 95
7, 328800, Note_on_c, 4, 35, 95
7, 329280, Note_off_c, 4, 35, 95
7, 329280, Note_on_c, 4, 35, 95
7, 329760, Note_off_c, 4, 35, 95
7, 329760, Note_on_c, 4, 35, 95
7, 330240, Note_off_c, 4, 35, 95
7, 330240, Note_on_c, 4, 28, 95
7, 330720, Note_off_c, 4, 28, 95
7, 330720, Note_on_c, 4, 28, 95
7, 331200, Note_off_c, 4, 28, 95
7, 331200, Note_on_c, 4, 28, 95
7, 331680, Note_off_c, 4, 28, 95
7, 331680, Note_on_c, 4, 28, 95
7, 332160, Note_off_c, 4, 28, 95
7, 332160, Note_on_c, 4, 28, 95
7, 332640, Note_off_c, 4, 28, 95
7, 332640, Note_on_c, 4, 28, 95
7, 333120, Note_off_c, 4, 28, 95
7, 333120, Note_on_c, 4, 28, 95
7, 333600, Note_off_c, 4, 28, 95
7, 333600, Note_on_c, 4, 28, 95
7, 334560, Note_off_c, 4, 28, 95
7, 334560, Note_on_c, 4, 28, 95
7, 335040, Note_off_c, 4, 28, 95
7, 335040, Note_on_c, 4, 28, 95
7, 335520, Note_off_c, 4, 28, 95
7, 335520, Note_on_c, 4, 28, 95
7, 336480, Note_off_c, 4, 28, 95
7, 336480, Note_on_c, 4, 28, 95
7, 337440, Note_off_c, 4, 28, 95
7, 337440, Note_on_c, 4, 28, 95
7, 337920, Note_off_c, 4, 28, 95
7, 337920, Note_on_c, 4, 28, 95
7, 344160, Note_off_c, 4, 28, 95
7, 344160, Note_on_c, 4, 28, 95
7, 344640, Note_off_c, 4, 28, 95
7, 344640, Note_on_c, 4, 32, 95
7, 345120, Note_off_c, 4, 32, 95
7, 345120, Note_on_c, 4, 33, 95
7, 345600, Note_off_c, 4, 33, 95
7, 345600, Note_on_c, 4, 35, 95
7, 346080, Note_off_c, 4, 35, 95
7, 346080, Note_on_c, 4, 35, 95
7, 346560, Note_off_c, 4, 35, 95
7, 346560, Note_on_c, 4, 35, 95
7, 347040, Note_off_c, 4, 35, 95
7, 347040, Note_on_c, 4, 35, 95
7, 347520, Note_off_c, 4, 35, 95
7, 347520, Note_on_c, 4, 35, 95
7, 348000, Note_off_c, 4, 35, 95
7, 348000, Note_on_c, 4, 35, 95
7, 348480, Note_off_c, 4, 35, 95
7, 348480, Note_on_c, 4, 35, 95
7, 348960, Note_off_c, 4, 35, 95
7, 348960, Note_on_c, 4, 35, 95
7, 349920, Note_off_c, 4, 35, 95
7, 349920, Note_on_c, 4, 35, 95
7, 350400, Note_off_c, 4, 35, 95
7, 350400, Note_on_c, 4, 35, 95
7, 350880, Note_off_c, 4, 35, 95
7, 350880, Note_on_c, 4, 35, 95
7, 351360, Note_off_c, 4, 35, 95
7, 351360, Note_on_c, 4, 35, 95
7, 351840, Note_off_c, 4, 35, 95
7, 351840, Note_on_c, 4, 35, 95
7, 352320, Note_off_c, 4, 35, 95
7, 352320, Note_on_c, 4, 35, 95
7, 352800, Note_off_c, 4, 35, 95
7, 352800, Note_on_c, 4, 35, 95
7, 353280, Note_off_c, 4, 35, 95
7, 353280, Note_on_c, 4, 33, 95
7, 353760, Note_off_c, 4, 33, 95
7, 353760, Note_on_c, 4, 33, 95
7, 354240, Note_off_c, 4, 33, 95
7, 354240, Note_on_c, 4, 33, 95
7, 354720, Note_off_c, 4, 33, 95
7, 354720, Note_on_c, 4, 33, 95
7, 355200, Note_off_c, 4, 33, 95
7, 355200, Note_on_c, 4, 33, 95
7, 355680, Note_off_c, 4, 33, 95
7, 355680, Note_on_c, 4, 33, 95
7, 356160, Note_off_c, 4, 33, 95
7, 356160, Note_on_c, 4, 33, 95
7, 356640, Note_off_c, 4, 33, 95
7, 356640, Note_on_c, 4, 35, 95
7, 357600, Note_off_c, 4, 35, 95
7, 357600, Note_on_c, 4, 35, 95
7, 358080, Note_off_c, 4, 35, 95
7, 358080, Note_on_c, 4, 35, 95
7, 358560, Note_off_c, 4, 35, 95
7, 358560, Note_on_c, 4, 35, 95
7, 359040, Note_off_c, 4, 35, 95
7, 359040, Note_on_c, 4, 35, 95
7, 359520, Note_off_c, 4, 35, 95
7, 359520, Note_on_c, 4, 35, 95
7, 360000, Note_off_c, 4, 35, 95
7, 360000, Note_on_c, 5, 35, 95
7, 360120, Pitch_bend_c, 5, 8576
7, 360240, Pitch_bend_c, 5, 8960
7, 360360, Pitch_bend_c, 5, 9472
7, 360480, Pitch_bend_c, 5, 9856
7, 360600, Pitch_bend_c, 5, 10368
7, 360720, Pitch_bend_c, 5, 10752
7, 360840, Pitch_bend_c, 5, 11264
7, 360960, Pitch_bend_c, 5, 11648
7, 360960, Pitch_bend_c, 5, 8192
7, 360960, Note_off_c, 5, 35, 95
7, 360960, Note_on_c, 4, 40, 95
7, 361440, Note_off_c, 4, 40, 95
7, 361440, Note_on_c, 4, 40, 95
7, 361920, Note_off_c, 4, 40, 95
7, 361920, Note_on_c, 4, 40, 95
7, 362400, Note_off_c, 4, 40, 95
7, 362400, Note_on_c, 4, 40, 95
7, 362880, Note_off_c, 4, 40, 95
7, 362880, Note_on_c, 4, 40, 95
7, 363360, Note_off_c, 4, 40, 95
7, 363360, Note_on_c, 4, 40, 95
7, 363840, Note_off_c, 4, 40, 95
7, 363840, Note_on_c, 4, 40, 95
7, 364320, Note_off_c, 4, 40, 95
7, 364320, Note_on_c, 4, 40, 95
7, 364800, Note_off_c, 4, 40, 95
7, 364800, Note_on_c, 4, 40, 95
7, 365280, Note_off_c, 4, 40, 95
7, 365280, Note_on_c, 4, 40, 95
7, 365760, Note_off_c, 4, 40, 95
7, 365760, Note_on_c, 4, 40, 95
7, 366240, Note_off_c, 4, 40, 95
7, 366240, Note_on_c, 4, 40, 95
7, 366720, Note_off_c, 4, 40, 95
7, 366720, Note_on_c, 4, 40, 95
7, 367200, Note_off_c, 4, 40, 95
7, 367200, Note_on_c, 4, 40, 95
7, 367680, Note_off_c, 4, 40, 95
7, 367680, Note_on_c, 4, 40, 95
7, 368160, Note_off_c, 4, 40, 95
7, 368160, Note_on_c, 4, 40, 95
7, 368640, Note_off_c, 4, 40, 95
7, 368640, Note_on_c, 4, 28, 95
7, 369120, Note_off_c, 4, 28, 95
7, 369120, Note_on_c, 4, 28, 95
7, 369600, Note_off_c, 4, 28, 95
7, 369600, Note_on_c, 4, 28, 95
7, 370080, Note_off_c, 4, 28, 95
7, 370080, Note_on_c, 4, 28, 95
7, 370560, Note_off_c, 4, 28, 95
7, 370560, Note_on_c, 4, 28, 95
7, 371040, Note_off_c, 4, 28, 95
7, 371040, Note_on_c, 4, 28, 95
7, 371520, Note_off_c, 4, 28, 95
7, 371520, Note_on_c, 4, 28, 95
7, 372000, Note_off_c, 4, 28, 95
7, 372000, Note_on_c, 4, 28, 95
7, 372960, Note_off_c, 4, 28, 95
7, 372960, Note_on_c, 4, 28, 95
7, 373920, Note_off_c, 4, 28, 95
7, 373920, Note_on_c, 4, 28, 95
7, 374400, Note_off_c, 4, 28, 95
7, 374400, Note_on_c, 4, 28, 95
7, 374880, Note_off_c, 4, 28, 95
7, 374880, Note_on_c, 4, 28, 95
7, 375360, Note_off_c, 4, 28, 95
7, 375360, Note_on_c, 4, 32, 95
7, 375840, Note_off_c, 4, 32, 95
7, 375840, Note_on_c, 4, 33, 95
7, 376320, Note_off_c, 4, 33, 95
7, 376320, Note_on_c, 4, 35, 95
7, 377280, Note_off_c, 4, 35, 95
7, 377280, Note_on_c, 4, 35, 95
7, 377760, Note_off_c, 4, 35, 95
7, 377760, Note_on_c, 4, 35, 95
7, 378240, Note_off_c, 4, 35, 95
7, 378240, Note_on_c, 4, 35, 95
7, 378720, Note_off_c, 4, 35, 95
7, 378720, Note_on_c, 4, 35, 95
7, 379200, Note_off_c, 4, 35, 95
7, 379200, Note_on_c, 4, 35, 95
7, 379680, Note_off_c, 4, 35, 95
7, 379680, Note_on_c, 4, 35, 95
7, 380640, Note_off_c, 4, 35, 95
7, 380640, Note_on_c, 4, 35, 95
7, 381120, Note_off_c, 4, 35, 95
7, 381120, Note_on_c, 4, 35, 95
7, 381600, Note_off_c, 4, 35, 95
7, 381600, Note_on_c, 4, 35, 95
7, 382080, Note_off_c, 4, 35, 95
7, 382080, Note_on_c, 4, 35, 95
7, 382560, Note_off_c, 4, 35, 95
7, 382560, Note_on_c, 4, 40, 95
7, 383040, Note_off_c, 4, 40, 95
7, 383040, Note_on_c, 4, 39, 95
7, 383520, Note_off_c, 4, 39, 95
7, 383520, Note_on_c, 4, 35, 95
7, 384000, Note_off_c, 4, 35, 95
7, 384000, Note_on_c, 4, 33, 95
7, 384960, Note_off_c, 4, 33, 95
7, 384960, Note_on_c, 4, 33, 95
7, 385440, Note_off_c, 4, 33, 95
7, 385440, Note_on_c, 4, 33, 95
7, 385920, Note_off_c, 4, 33, 95
7, 385920, Note_on_c, 4, 33, 95
7, 386400, Note_off_c, 4, 33, 95
7, 386400, Note_on_c, 4, 33, 95
7, 386880, Note_off_c, 4, 33, 95
7, 386880, Note_on_c, 4, 33, 95
7, 387360, Note_off_c, 4, 33, 95
7, 387360, Note_on_c, 4, 35, 95
7, 388320, Note_off_c, 4, 35, 95
7, 388320, Note_on_c, 4, 35, 95
7, 388800, Note_off_c, 4, 35, 95
7, 388800, Note_on_c, 4, 35, 95
7, 389280, Note_off_c, 4, 35, 95
7, 389280, Note_on_c, 4, 35, 95
7, 389760, Note_off_c, 4, 35, 95
7, 389760, Note_on_c, 4, 35, 95
7, 390240, Note_off_c, 4, 35, 95
7, 390240, Note_on_c, 4, 42, 95
7, 390720, Note_off_c, 4, 42, 95
7, 390720, Note_on_c, 4, 40, 95
7, 391200, Note_off_c, 4, 40, 95
7, 391200, Note_on_c, 4, 39, 95
7, 391680, Note_off_c, 4, 39, 95
7, 391680, Note_on_c, 4, 40, 95
7, 392640, Note_off_c, 4, 40, 95
7, 392640, Note_on_c, 4, 40, 95
7, 393120, Note_off_c, 4, 40, 95
7, 393120, Note_on_c, 4, 40, 95
7, 393600, Note_off_c, 4, 40, 95
7, 393600, Note_on_c, 4, 40, 95
7, 394080, Note_off_c, 4, 40, 95
7, 394080, Note_on_c, 4, 40, 95
7, 394560, Note_off_c, 4, 40, 95
7, 394560, Note_on_c, 4, 40, 95
7, 395040, Note_off_c, 4, 40, 95
7, 395040, Note_on_c, 4, 40, 95
7, 396000, Note_off_c, 4, 40, 95
7, 396000, Note_on_c, 4, 40, 95
7, 396480, Note_off_c, 4, 40, 95
7, 396480, Note_on_c, 4, 40, 95
7, 396960, Note_off_c, 4, 40, 95
7, 396960, Note_on_c, 4, 40, 95
7, 397440, Note_off_c, 4, 40, 95
7, 397440, Note_on_c, 4, 40, 95
7, 397920, Note_off_c, 4, 40, 95
7, 397920, Note_on_c, 4, 40, 95
7, 398400, Note_off_c, 4, 40, 95
7, 398400, Note_on_c, 4, 40, 95
7, 398880, Note_off_c, 4, 40, 95
7, 398880, Note_on_c, 4, 40, 95
7, 399360, Note_off_c, 4, 40, 95
7, 399360, Note_on_c, 4, 28, 95
7, 399840, Note_off_c, 4, 28, 95
7, 399840, Note_on_c, 4, 28, 95
7, 400320, Note_off_c, 4, 28, 95
7, 400320, Note_on_c, 4, 28, 95
7, 400800, Note_off_c, 4, 28, 95
7, 400800, Note_on_c, 4, 28, 95
7, 401280, Note_off_c, 4, 28, 95
7, 401280, Note_on_c, 4, 28, 95
7, 401760, Note_off_c, 4, 28, 95
7, 401760, Note_on_c, 4, 28, 95
7, 402240, Note_off_c, 4, 28, 95
7, 402240, Note_on_c, 4, 28, 95
7, 402720, Note_off_c, 4, 28, 95
7, 402720, Note_on_c, 4, 28, 95
7, 403680, Note_off_c, 4, 28, 95
7, 403680, Note_on_c, 4, 28, 95
7, 404640, Note_off_c, 4, 28, 95
7, 404640, Note_on_c, 4, 28, 95
7, 405120, Note_off_c, 4, 28, 95
7, 405120, Note_on_c, 4, 28, 95
7, 405600, Note_off_c, 4, 28, 95
7, 405600, Note_on_c, 4, 28, 95
7, 406080, Note_off_c, 4, 28, 95
7, 406080, Note_on_c, 4, 32, 95
7, 406560, Note_off_c, 4, 32, 95
7, 406560, Note_on_c, 4, 33, 95
7, 407040, Note_off_c, 4, 33, 95
7, 407040, Note_on_c, 4, 35, 95
7, 408000, Note_off_c, 4, 35, 95
7, 408000, Note_on_c, 4, 35, 95
7, 408480, Note_off_c, 4, 35, 95
7, 408480, Note_on_c, 4, 35, 95
7, 408960, Note_off_c, 4, 35, 95
7, 408960, Note_on_c, 4, 35, 95
7, 409440, Note_off_c, 4, 35, 95
7, 409440, Note_on_c, 4, 35, 95
7, 409920, Note_off_c, 4, 35, 95
7, 409920, Note_on_c, 4, 35, 95
7, 410400, Note_off_c, 4, 35, 95
7, 410400, Note_on_c, 4, 35, 95
7, 411360, Note_off_c, 4, 35, 95
7, 411360, Note_on_c, 4, 35, 95
7, 411840, Note_off_c, 4, 35, 95
7, 411840, Note_on_c, 4, 35, 95
7, 412320, Note_off_c, 4, 35, 95
7, 412320, Note_on_c, 4, 35, 95
7, 412800, Note_off_c, 4, 35, 95
7, 412800, Note_on_c, 4, 35, 95
7, 413280, Note_off_c, 4, 35, 95
7, 413280, Note_on_c, 4, 40, 95
7, 413760, Note_off_c, 4, 40, 95
7, 413760, Note_on_c, 4, 39, 95
7, 414240, Note_off_c, 4, 39, 95
7, 414240, Note_on_c, 4, 35, 95
7, 414720, Note_off_c, 4, 35, 95
7, 414720, Note_on_c, 4, 33, 95
7, 415680, Note_off_c, 4, 33, 95
7, 415680, Note_on_c, 4, 33, 95
7, 416160, Note_off_c, 4, 33, 95
7, 416160, Note_on_c, 4, 33, 95
7, 416640, Note_off_c, 4, 33, 95
7, 416640, Note_on_c, 4, 33, 95
7, 417120, Note_off_c, 4, 33, 95
7, 417120, Note_on_c, 4, 33, 95
7, 417600, Note_off_c, 4, 33, 95
7, 417600, Note_on_c, 4, 33, 95
7, 418080, Note_off_c, 4, 33, 95
7, 418080, Note_on_c, 4, 35, 95
7, 419040, Note_off_c, 4, 35, 95
7, 419040, Note_on_c, 4, 35, 95
7, 419520, Note_off_c, 4, 35, 95
7, 419520, Note_on_c, 4, 35, 95
7, 420000, Note_off_c, 4, 35, 95
7, 420000, Note_on_c, 4, 35, 95
7, 420480, Note_off_c, 4, 35, 95
7, 420480, Note_on_c, 4, 35, 95
7, 420960, Note_off_c, 4, 35, 95
7, 420960, Note_on_c, 4, 42, 95
7, 421440, Note_off_c, 4, 42, 95
7, 421440, Note_on_c, 4, 40, 95
7, 421920, Note_off_c, 4, 40, 95
7, 421920, Note_on_c, 4, 39, 95
7, 422400, Note_off_c, 4, 39, 95
7, 422400, Note_on_c, 4, 40, 95
7, 423360, Note_off_c, 4, 40, 95
7, 423360, Note_on_c, 4, 40, 95
7, 423840, Note_off_c, 4, 40, 95
7, 423840, Note_on_c, 4, 40, 95
7, 424320, Note_off_c, 4, 40, 95
7, 424320, Note_on_c, 4, 40, 95
7, 424800, Note_off_c, 4, 40, 95
7, 424800, Note_on_c, 4, 40, 95
7, 425280, Note_off_c, 4, 40, 95
7, 425280, Note_on_c, 4, 40, 95
7, 425760, Note_off_c, 4, 40, 95
7, 425760, Note_on_c, 4, 40, 95
7, 426720, Note_off_c, 4, 40, 95
7, 426720, Note_on_c, 4, 40, 95
7, 427200, Note_off_c, 4, 40, 95
7, 427200, Note_on_c, 4, 40, 95
7, 427680, Note_off_c, 4, 40, 95
7, 427680, Note_on_c, 4, 40, 95
7, 428160, Note_off_c, 4, 40, 95
7, 428160, Note_on_c, 4, 40, 95
7, 428640, Note_off_c, 4, 40, 95
7, 428640, Note_on_c, 4, 40, 95
7, 429120, Note_off_c, 4, 40, 95
7, 429120, Note_on_c, 4, 40, 95
7, 429600, Note_off_c, 4, 40, 95
7, 429600, Note_on_c, 4, 40, 95
7, 430080, Note_off_c, 4, 40, 95
7, 430080, Note_on_c, 4, 28, 95
7, 430560, Note_off_c, 4, 28, 95
7, 430560, Note_on_c, 4, 28, 95
7, 431040, Note_off_c, 4, 28, 95
7, 431040, Note_on_c, 4, 28, 95
7, 431520, Note_off_c, 4, 28, 95
7, 431520, Note_on_c, 4, 28, 95
7, 432000, Note_off_c, 4, 28, 95
7, 432000, Note_on_c, 4, 28, 95
7, 432480, Note_off_c, 4, 28, 95
7, 432480, Note_on_c, 4, 28, 95
7, 432960, Note_off_c, 4, 28, 95
7, 432960, Note_on_c, 4, 28, 95
7, 433440, Note_off_c, 4, 28, 95
7, 433440, Note_on_c, 4, 28, 95
7, 434400, Note_off_c, 4, 28, 95
7, 434400, Note_on_c, 4, 28, 95
7, 435360, Note_off_c, 4, 28, 95
7, 435360, Note_on_c, 4, 28, 95
7, 435840, Note_off_c, 4, 28, 95
7, 435840, Note_on_c, 4, 28, 95
7, 436320, Note_off_c, 4, 28, 95
7, 436320, Note_on_c, 4, 28, 95
7, 436800, Note_off_c, 4, 28, 95
7, 436800, Note_on_c, 4, 32, 95
7, 437280, Note_off_c, 4, 32, 95
7, 437280, Note_on_c, 4, 33, 95
7, 437760, Note_off_c, 4, 33, 95
7, 437760, Note_on_c, 4, 35, 95
7, 438720, Note_off_c, 4, 35, 95
7, 438720, Note_on_c, 4, 35, 95
7, 439200, Note_off_c, 4, 35, 95
7, 439200, Note_on_c, 4, 35, 95
7, 439680, Note_off_c, 4, 35, 95
7, 439680, Note_on_c, 4, 35, 95
7, 440160, Note_off_c, 4, 35, 95
7, 440160, Note_on_c, 4, 35, 95
7, 440640, Note_off_c, 4, 35, 95
7, 440640, Note_on_c, 4, 35, 95
7, 441120, Note_off_c, 4, 35, 95
7, 441120, Note_on_c, 4, 35, 95
7, 442080, Note_off_c, 4, 35, 95
7, 442080, Note_on_c, 4, 35, 95
7, 442560, Note_off_c, 4, 35, 95
7, 442560, Note_on_c, 4, 35, 95
7, 443040, Note_off_c, 4, 35, 95
7, 443040, Note_on_c, 4, 35, 95
7, 443520, Note_off_c, 4, 35, 95
7, 443520, Note_on_c, 4, 35, 95
7, 444000, Note_off_c, 4, 35, 95
7, 444000, Note_on_c, 4, 40, 95
7, 444480, Note_off_c, 4, 40, 95
7, 444480, Note_on_c, 4, 39, 95
7, 444960, Note_off_c, 4, 39, 95
7, 444960, Note_on_c, 4, 35, 95
7, 445440, Note_off_c, 4, 35, 95
7, 445440, Note_on_c, 4, 33, 95
7, 446400, Note_off_c, 4, 33, 95
7, 446400, Note_on_c, 4, 33, 95
7, 446880, Note_off_c, 4, 33, 95
7, 446880, Note_on_c, 4, 33, 95
7, 447360, Note_off_c, 4, 33, 95
7, 447360, Note_on_c, 4, 33, 95
7, 447840, Note_off_c, 4, 33, 95
7, 447840, Note_on_c, 4, 33, 95
7, 448320, Note_off_c, 4, 33, 95
7, 448320, Note_on_c, 4, 33, 95
7, 448800, Note_off_c, 4, 33, 95
7, 448800, Note_on_c, 4, 35, 95
7, 449760, Note_off_c, 4, 35, 95
7, 449760, Note_on_c, 4, 35, 95
7, 450240, Note_off_c, 4, 35, 95
7, 450240, Note_on_c, 4, 35, 95
7, 450720, Note_off_c, 4, 35, 95
7, 450720, Note_on_c, 4, 35, 95
7, 451200, Note_off_c, 4, 35, 95
7, 451200, Note_on_c, 4, 35, 95
7, 451680, Note_off_c, 4, 35, 95
7, 451680, Note_on_c, 4, 42, 95
7, 452160, Note_off_c, 4, 42, 95
7, 452160, Note_on_c, 4, 40, 95
7, 452640, Note_off_c, 4, 40, 95
7, 452640, Note_on_c, 4, 39, 95
7, 453120, Note_off_c, 4, 39, 95
7, 453120, Note_on_c, 4, 40, 95
7, 454080, Note_off_c, 4, 40, 95
7, 454080, Note_on_c, 4, 40, 95
7, 454560, Note_off_c, 4, 40, 95
7, 454560, Note_on_c, 4, 40, 95
7, 455040, Note_off_c, 4, 40, 95
7, 455040, Note_on_c, 4, 40, 95
7, 455520, Note_off_c, 4, 40, 95
7, 455520, Note_on_c, 4, 40, 95
7, 456000, Note_off_c, 4, 40, 95
7, 456000, Note_on_c, 4, 40, 95
7, 456480, Note_off_c, 4, 40, 95
7, 456480, Note_on_c, 4, 40, 95
7, 457440, Note_off_c, 4, 40, 95
7, 457440, Note_on_c, 4, 40, 95
7, 457920, Note_off_c, 4, 40, 95
7, 457920, Note_on_c, 4, 40, 95
7, 458400, Note_off_c, 4, 40, 95
7, 458400, Note_on_c, 4, 40, 95
7, 458880, Note_off_c, 4, 40, 95
7, 458880, Note_on_c, 4, 40, 95
7, 459360, Note_off_c, 4, 40, 95
7, 459360, Note_on_c, 4, 40, 95
7, 459840, Note_off_c, 4, 40, 95
7, 459840, Note_on_c, 4, 40, 95
7, 460320, Note_off_c, 4, 40, 95
7, 460320, Note_on_c, 4, 40, 95
7, 460800, Note_off_c, 4, 40, 95
7, 460800, Note_on_c, 4, 33, 95
7, 461280, Note_off_c, 4, 33, 95
7, 461280, Note_on_c, 4, 33, 95
7, 461760, Note_off_c, 4, 33, 95
7, 461760, Note_on_c, 4, 33, 95
7, 462240, Note_off_c, 4, 33, 95
7, 462240, Note_on_c, 4, 33, 95
7, 462720, Note_off_c, 4, 33, 95
7, 462720, Note_on_c, 4, 33, 95
7, 463200, Note_off_c, 4, 33, 95
7, 463200, Note_on_c, 4, 33, 95
7, 463680, Note_off_c, 4, 33, 95
7, 463680, Note_on_c, 4, 33, 95
7, 464160, Note_off_c, 4, 33, 95
7, 464160, Note_on_c, 4, 33, 95
7, 464640, Note_off_c, 4, 33, 95
7, 464640, Note_on_c, 4, 33, 95
7, 465120, Note_off_c, 4, 33, 95
7, 465120, Note_on_c, 4, 33, 95
7, 465600, Note_off_c, 4, 33, 95
7, 465600, Note_on_c, 4, 33, 95
7, 466080, Note_off_c, 4, 33, 95
7, 466080, Note_on_c, 4, 33, 95
7, 466560, Note_off_c, 4, 33, 95
7, 466560, Note_on_c, 4, 33, 95
7, 467040, Note_off_c, 4, 33, 95
7, 467040, Note_on_c, 4, 33, 95
7, 467520, Note_off_c, 4, 33, 95
7, 467520, Note_on_c, 4, 33, 95
7, 468000, Note_off_c, 4, 33, 95
7, 468000, Note_on_c, 4, 33, 95
7, 468480, Note_off_c, 4, 33, 95
7, 468480, Note_on_c, 4, 28, 95
7, 468960, Note_off_c, 4, 28, 95
7, 468960, Note_on_c, 4, 28, 95
7, 469440, Note_off_c, 4, 28, 95
7, 469440, Note_on_c, 4, 28, 95
7, 469920, Note_off_c, 4, 28, 95
7, 469920, Note_on_c, 4, 28, 95
7, 470400, Note_off_c, 4, 28, 95
7, 470400, Note_on_c, 4, 28, 95
7, 470880, Note_off_c, 4, 28, 95
7, 470880, Note_on_c, 4, 28, 95
7, 471360, Note_off_c, 4, 28, 95
7, 471360, Note_on_c, 4, 28, 95
7, 471840, Note_off_c, 4, 28, 95
7, 471840, Note_on_c, 4, 28, 95
7, 472320, Note_off_c, 4, 28, 95
7, 472320, Note_on_c, 4, 28, 95
7, 472800, Note_off_c, 4, 28, 95
7, 472800, Note_on_c, 4, 28, 95
7, 473280, Note_off_c, 4, 28, 95
7, 473280, Note_on_c, 4, 28, 95
7, 473760, Note_off_c, 4, 28, 95
7, 473760, Note_on_c, 4, 28, 95
7, 474240, Note_off_c, 4, 28, 95
7, 474240, Note_on_c, 4, 28, 95
7, 474720, Note_off_c, 4, 28, 95
7, 474720, Note_on_c, 4, 28, 95
7, 475200, Note_off_c, 4, 28, 95
7, 475200, Note_on_c, 4, 28, 95
7, 475680, Note_off_c, 4, 28, 95
7, 475680, Note_on_c, 4, 28, 95
7, 476160, Note_off_c, 4, 28, 95
7, 476160, Note_on_c, 4, 35, 95
7, 476640, Note_off_c, 4, 35, 95
7, 476640, Note_on_c, 4, 35, 95
7, 477120, Note_off_c, 4, 35, 95
7, 477120, Note_on_c, 4, 35, 95
7, 477600, Note_off_c, 4, 35, 95
7, 477600, Note_on_c, 4, 35, 95
7, 478080, Note_off_c, 4, 35, 95
7, 478080, Note_on_c, 4, 35, 95
7, 478560, Note_off_c, 4, 35, 95
7, 478560, Note_on_c, 4, 35, 95
7, 479040, Note_off_c, 4, 35, 95
7, 479040, Note_on_c, 4, 35, 95
7, 479520, Note_off_c, 4, 35, 95
7, 479520, Note_on_c, 4, 35, 95
7, 480000, Note_off_c, 4, 35, 95
7, 480000, Note_on_c, 4, 35, 95
7, 480480, Note_off_c, 4, 35, 95
7, 480480, Note_on_c, 4, 35, 95
7, 480960, Note_off_c, 4, 35, 95
7, 480960, Note_on_c, 4, 35, 95
7, 481440, Note_off_c, 4, 35, 95
7, 481440, Note_on_c, 4, 35, 95
7, 481920, Note_off_c, 4, 35, 95
7, 481920, Note_on_c, 4, 35, 95
7, 482400, Note_off_c, 4, 35, 95
7, 482400, Note_on_c, 4, 35, 95
7, 482880, Note_off_c, 4, 35, 95
7, 482880, Note_on_c, 4, 35, 95
7, 483360, Note_off_c, 4, 35, 95
7, 483360, Note_on_c, 4, 35, 95
7, 483840, Note_off_c, 4, 35, 95
7, 483840, Note_on_c, 4, 40, 95
7, 484320, Note_off_c, 4, 40, 95
7, 484320, Note_on_c, 4, 40, 95
7, 484800, Note_off_c, 4, 40, 95
7, 484800, Note_on_c, 4, 40, 95
7, 485280, Note_off_c, 4, 40, 95
7, 485280, Note_on_c, 4, 40, 95
7, 485760, Note_off_c, 4, 40, 95
7, 485760, Note_on_c, 4, 40, 95
7, 486240, Note_off_c, 4, 40, 95
7, 486240, Note_on_c, 4, 40, 95
7, 486720, Note_off_c, 4, 40, 95
7, 486720, Note_on_c, 4, 40, 95
7, 487200, Note_off_c, 4, 40, 95
7, 487200, Note_on_c, 4, 40, 95
7, 487680, Note_off_c, 4, 40, 95
7, 487680, Note_on_c, 4, 40, 95
7, 488160, Note_off_c, 4, 40, 95
7, 488160, Note_on_c, 4, 40, 95
7, 488640, Note_off_c, 4, 40, 95
7, 488640, Note_on_c, 4, 40, 95
7, 489120, Note_off_c, 4, 40, 95
7, 489120, Note_on_c, 4, 40, 95
7, 489600, Note_off_c, 4, 40, 95
7, 489600, Note_on_c, 4, 40, 95
7, 490080, Note_off_c, 4, 40, 95
7, 490080, Note_on_c, 4, 40, 95
7, 490560, Note_off_c, 4, 40, 95
7, 490560, Note_on_c, 4, 40, 95
7, 491040, Note_off_c, 4, 40, 95
7, 491040, Note_on_c, 4, 40, 95
7, 491520, Note_off_c, 4, 40, 95
7, 491520, Note_on_c, 4, 28, 95
7, 492000, Note_off_c, 4, 28, 95
7, 492000, Note_on_c, 4, 28, 95
7, 492480, Note_off_c, 4, 28, 95
7, 492480, Note_on_c, 4, 28, 95
7, 492960, Note_off_c, 4, 28, 95
7, 492960, Note_on_c, 4, 28, 95
7, 493440, Note_off_c, 4, 28, 95
7, 493440, Note_on_c, 4, 28, 95
7, 493920, Note_off_c, 4, 28, 95
7, 493920, Note_on_c, 4, 28, 95
7, 494400, Note_off_c, 4, 28, 95
7, 494400, Note_on_c, 4, 28, 95
7, 494880, Note_off_c, 4, 28, 95
7, 494880, Note_on_c, 4, 28, 95
7, 495840, Note_off_c, 4, 28, 95
7, 495840, Note_on_c, 4, 28, 95
7, 496800, Note_off_c, 4, 28, 95
7, 496800, Note_on_c, 4, 28, 95
7, 497280, Note_off_c, 4, 28, 95
7, 497280, Note_on_c, 4, 28, 95
7, 497760, Note_off_c, 4, 28, 95
7, 497760, Note_on_c, 4, 28, 95
7, 498240, Note_off_c, 4, 28, 95
7, 498240, Note_on_c, 4, 32, 95
7, 498720, Note_off_c, 4, 32, 95
7, 498720, Note_on_c, 4, 33, 95
7, 499200, Note_off_c, 4, 33, 95
7, 499200, Note_on_c, 4, 35, 95
7, 500160, Note_off_c, 4, 35, 95
7, 500160, Note_on_c, 4, 35, 95
7, 500640, Note_off_c, 4, 35, 95
7, 500640, Note_on_c, 4, 35, 95
7, 501120, Note_off_c, 4, 35, 95
7, 501120, Note_on_c, 4, 35, 95
7, 501600, Note_off_c, 4, 35, 95
7, 501600, Note_on_c, 4, 35, 95
7, 502080, Note_off_c, 4, 35, 95
7, 502080, Note_on_c, 4, 35, 95
7, 502560, Note_off_c, 4, 35, 95
7, 502560, Note_on_c, 4, 35, 95
7, 503520, Note_off_c, 4, 35, 95
7, 503520, Note_on_c, 4, 35, 95
7, 504000, Note_off_c, 4, 35, 95
7, 504000, Note_on_c, 4, 35, 95
7, 504480, Note_off_c, 4, 35, 95
7, 504480, Note_on_c, 4, 35, 95
7, 504960, Note_off_c, 4, 35, 95
7, 504960, Note_on_c, 4, 35, 95
7, 505440, Note_off_c, 4, 35, 95
7, 505440, Note_on_c, 4, 40, 95
7, 505920, Note_off_c, 4, 40, 95
7, 505920, Note_on_c, 4, 39, 95
7, 506400, Note_off_c, 4, 39, 95
7, 506400, Note_on_c, 4, 35, 95
7, 506880, Note_off_c, 4, 35, 95
7, 506880, Note_on_c, 4, 33, 95
7, 507840, Note_off_c, 4, 33, 95
7, 507840, Note_on_c, 4, 33, 95
7, 508320, Note_off_c, 4, 33, 95
7, 508320, Note_on_c, 4, 33, 95
7, 508800, Note_off_c, 4, 33, 95
7, 508800, Note_on_c, 4, 33, 95
7, 509280, Note_off_c, 4, 33, 95
7, 509280, Note_on_c, 4, 33, 95
7, 509760, Note_off_c, 4, 33, 95
7, 509760, Note_on_c, 4, 33, 95
7, 510240, Note_off_c, 4, 33, 95
7, 510240, Note_on_c, 4, 35, 95
7, 511200, Note_off_c, 4, 35, 95
7, 511200, Note_on_c, 4, 35, 95
7, 511680, Note_off_c, 4, 35, 95
7, 511680, Note_on_c, 4, 35, 95
7, 512160, Note_off_c, 4, 35, 95
7, 512160, Note_on_c, 4, 35, 95
7, 512640, Note_off_c, 4, 35, 95
7, 512640, Note_on_c, 4, 35, 95
7, 513120, Note_off_c, 4, 35, 95
7, 513120, Note_on_c, 4, 42, 95
7, 513600, Note_off_c, 4, 42, 95
7, 513600, Note_on_c, 4, 40, 95
7, 514080, Note_off_c, 4, 40, 95
7, 514080, Note_on_c, 4, 39, 95
7, 514560, Note_off_c, 4, 39, 95
7, 514560, Note_on_c, 4, 40, 95
7, 515520, Note_off_c, 4, 40, 95
7, 515520, Note_on_c, 4, 40, 95
7, 516000, Note_off_c, 4, 40, 95
7, 516000, Note_on_c, 4, 40, 95
7, 516480, Note_off_c, 4, 40, 95
7, 516480, Note_on_c, 4, 40, 95
7, 516960, Note_off_c, 4, 40, 95
7, 516960, Note_on_c, 4, 40, 95
7, 517440, Note_off_c, 4, 40, 95
7, 517440, Note_on_c, 4, 40, 95
7, 517920, Note_off_c, 4, 40, 95
7, 517920, Note_on_c, 4, 40, 95
7, 518880, Note_off_c, 4, 40, 95
7, 518880, Note_on_c, 4, 40, 95
7, 519360, Note_off_c, 4, 40, 95
7, 519360, Note_on_c, 4, 40, 95
7, 519840, Note_off_c, 4, 40, 95
7, 519840, Note_on_c, 4, 40, 95
7, 520320, Note_off_c, 4, 40, 95
7, 520320, Note_on_c, 4, 40, 95
7, 520800, Note_off_c, 4, 40, 95
7, 520800, Note_on_c, 4, 40, 95
7, 521280, Note_off_c, 4, 40, 95
7, 521280, Note_on_c, 4, 40, 95
7, 521760, Note_off_c, 4, 40, 95
7, 521760, Note_on_c, 4, 40, 95
7, 522240, Note_off_c, 4, 40, 95
7, 522240, Note_on_c, 4, 33, 95
7, 522720, Note_off_c, 4, 33, 95
7, 522720, Note_on_c, 4, 33, 95
7, 523200, Note_off_c, 4, 33, 95
7, 523200, Note_on_c, 4, 33, 95
7, 523680, Note_off_c, 4, 33, 95
7, 523680, Note_on_c, 4, 33, 95
7, 524160, Note_off_c, 4, 33, 95
7, 524160, Note_on_c, 4, 33, 95
7, 524640, Note_off_c, 4, 33, 95
7, 524640, Note_on_c, 4, 33, 95
7, 525120, Note_off_c, 4, 33, 95
7, 525120, Note_on_c, 4, 33, 95
7, 525600, Note_off_c, 4, 33, 95
7, 525600, Note_on_c, 4, 33, 95
7, 526080, Note_off_c, 4, 33, 95
7, 526080, Note_on_c, 4, 33, 95
7, 526560, Note_off_c, 4, 33, 95
7, 526560, Note_on_c, 4, 33, 95
7, 527040, Note_off_c, 4, 33, 95
7, 527040, Note_on_c, 4, 33, 95
7, 527520, Note_off_c, 4, 33, 95
7, 527520, Note_on_c, 4, 33, 95
7, 528000, Note_off_c, 4, 33, 95
7, 528000, Note_on_c, 4, 33, 95
7, 528480, Note_off_c, 4, 33, 95
7, 528480, Note_on_c, 4, 33, 95
7, 528960, Note_off_c, 4, 33, 95
7, 528960, Note_on_c, 4, 33, 95
7, 529440, Note_off_c, 4, 33, 95
7, 529440, Note_on_c, 4, 33, 95
7, 529920, Note_off_c, 4, 33, 95
7, 529920, Note_on_c, 4, 28, 95
7, 530400, Note_off_c, 4, 28, 95
7, 530400, Note_on_c, 4, 28, 95
7, 530880, Note_off_c, 4, 28, 95
7, 530880, Note_on_c, 4, 28, 95
7, 531360, Note_off_c, 4, 28, 95
7, 531360, Note_on_c, 4, 28, 95
7, 531840, Note_off_c, 4, 28, 95
7, 531840, Note_on_c, 4, 28, 95
7, 532320, Note_off_c, 4, 28, 95
7, 532320, Note_on_c, 4, 28, 95
7, 532800, Note_off_c, 4, 28, 95
7, 532800, Note_on_c, 4, 28, 95
7, 533280, Note_off_c, 4, 28, 95
7, 533280, Note_on_c, 4, 28, 95
7, 533760, Note_off_c, 4, 28, 95
7, 533760, Note_on_c, 4, 28, 95
7, 534240, Note_off_c, 4, 28, 95
7, 534240, Note_on_c, 4, 28, 95
7, 534720, Note_off_c, 4, 28, 95
7, 534720, Note_on_c, 4, 28, 95
7, 535200, Note_off_c, 4, 28, 95
7, 535200, Note_on_c, 4, 28, 95
7, 535680, Note_off_c, 4, 28, 95
7, 535680, Note_on_c, 4, 28, 95
7, 536160, Note_off_c, 4, 28, 95
7, 536160, Note_on_c, 4, 28, 95
7, 536640, Note_off_c, 4, 28, 95
7, 536640, Note_on_c, 4, 28, 95
7, 537120, Note_off_c, 4, 28, 95
7, 537120, Note_on_c, 4, 28, 95
7, 537600, Note_off_c, 4, 28, 95
7, 537600, Note_on_c, 4, 35, 95
7, 538080, Note_off_c, 4, 35, 95
7, 538080, Note_on_c, 4, 35, 95
7, 538560, Note_off_c, 4, 35, 95
7, 538560, Note_on_c, 4, 35, 95
7, 539040, Note_off_c, 4, 35, 95
7, 539040, Note_on_c, 4, 35, 95
7, 539520, Note_off_c, 4, 35, 95
7, 539520, Note_on_c, 4, 35, 95
7, 540000, Note_off_c, 4, 35, 95
7, 540000, Note_on_c, 4, 35, 95
7, 540480, Note_off_c, 4, 35, 95
7, 540480, Note_on_c, 4, 35, 95
7, 540960, Note_off_c, 4, 35, 95
7, 540960, Note_on_c, 4, 35, 95
7, 541440, Note_off_c, 4, 35, 95
7, 541440, Note_on_c, 4, 35, 95
7, 541920, Note_off_c, 4, 35, 95
7, 541920, Note_on_c, 4, 35, 95
7, 542400, Note_off_c, 4, 35, 95
7, 542400, Note_on_c, 4, 35, 95
7, 542880, Note_off_c, 4, 35, 95
7, 542880, Note_on_c, 4, 35, 95
7, 543360, Note_off_c, 4, 35, 95
7, 543360, Note_on_c, 4, 35, 95
7, 543840, Note_off_c, 4, 35, 95
7, 543840, Note_on_c, 4, 35, 95
7, 544320, Note_off_c, 4, 35, 95
7, 544320, Note_on_c, 4, 35, 95
7, 544800, Note_off_c, 4, 35, 95
7, 544800, Note_on_c, 4, 35, 95
7, 545280, Note_off_c, 4, 35, 95
7, 545280, Note_on_c, 4, 40, 95
7, 545760, Note_off_c, 4, 40, 95
7, 545760, Note_on_c, 4, 40, 95
7, 546240, Note_off_c, 4, 40, 95
7, 546240, Note_on_c, 4, 40, 95
7, 546720, Note_off_c, 4, 40, 95
7, 546720, Note_on_c, 4, 40, 95
7, 547200, Note_off_c, 4, 40, 95
7, 547200, Note_on_c, 4, 40, 95
7, 547680, Note_off_c, 4, 40, 95
7, 547680, Note_on_c, 4, 40, 95
7, 548160, Note_off_c, 4, 40, 95
7, 548160, Note_on_c, 4, 40, 95
7, 548640, Note_off_c, 4, 40, 95
7, 548640, Note_on_c, 4, 40, 95
7, 549120, Note_off_c, 4, 40, 95
7, 549120, Note_on_c, 4, 40, 95
7, 549600, Note_off_c, 4, 40, 95
7, 549600, Note_on_c, 4, 40, 95
7, 550080, Note_off_c, 4, 40, 95
7, 550080, Note_on_c, 4, 40, 95
7, 550560, Note_off_c, 4, 40, 95
7, 550560, Note_on_c, 4, 40, 95
7, 551040, Note_off_c, 4, 40, 95
7, 551040, Note_on_c, 4, 40, 95
7, 551520, Note_off_c, 4, 40, 95
7, 551520, Note_on_c, 4, 40, 95
7, 552000, Note_off_c, 4, 40, 95
7, 552000, Note_on_c, 4, 40, 95
7, 552480, Note_off_c, 4, 40, 95
7, 552480, Note_on_c, 4, 40, 95
7, 552960, Note_off_c, 4, 40, 95
7, 552960, Note_on_c, 4, 28, 95
7, 553440, Note_off_c, 4, 28, 95
7, 553440, Note_on_c, 4, 28, 95
7, 553920, Note_off_c, 4, 28, 95
7, 553920, Note_on_c, 4, 28, 95
7, 554400, Note_off_c, 4, 28, 95
7, 554400, Note_on_c, 4, 28, 95
7, 554880, Note_off_c, 4, 28, 95
7, 554880, Note_on_c, 4, 28, 95
7, 555360, Note_off_c, 4, 28, 95
7, 555360, Note_on_c, 4, 28, 95
7, 555840, Note_off_c, 4, 28, 95
7, 555840, Note_on_c, 4, 28, 95
7, 556320, Note_off_c, 4, 28, 95
7, 556320, Note_on_c, 4, 28, 95
7, 557280, Note_off_c, 4, 28, 95
7, 557280, Note_on_c, 4, 28, 95
7, 558240, Note_off_c, 4, 28, 95
7, 558240, Note_on_c, 4, 28, 95
7, 558720, Note_off_c, 4, 28, 95
7, 558720, Note_on_c, 4, 28, 95
7, 559200, Note_off_c, 4, 28, 95
7, 559200, Note_on_c, 4, 28, 95
7, 559680, Note_off_c, 4, 28, 95
7, 559680, Note_on_c, 4, 32, 95
7, 560160, Note_off_c, 4, 32, 95
7, 560160, Note_on_c, 4, 33, 95
7, 560640, Note_off_c, 4, 33, 95
7, 560640, Note_on_c, 4, 35, 95
7, 561600, Note_off_c, 4, 35, 95
7, 561600, Note_on_c, 4, 35, 95
7, 562080, Note_off_c, 4, 35, 95
7, 562080, Note_on_c, 4, 35, 95
7, 562560, Note_off_c, 4, 35, 95
7, 562560, Note_on_c, 4, 35, 95
7, 563040, Note_off_c, 4, 35, 95
7, 563040, Note_on_c, 4, 35, 95
7, 563520, Note_off_c, 4, 35, 95
7, 563520, Note_on_c, 4, 35, 95
7, 564000, Note_off_c, 4, 35, 95
7, 564000, Note_on_c, 4, 35, 95
7, 564960, Note_off_c, 4, 35, 95
7, 564960, Note_on_c, 4, 35, 95
7, 565440, Note_off_c, 4, 35, 95
7, 565440, Note_on_c, 4, 35, 95
7, 565920, Note_off_c, 4, 35, 95
7, 565920, Note_on_c, 4, 35, 95
7, 566400, Note_off_c, 4, 35, 95
7, 566400, Note_on_c, 4, 35, 95
7, 566880, Note_off_c, 4, 35, 95
7, 566880, Note_on_c, 4, 40, 95
7, 567360, Note_off_c, 4, 40, 95
7, 567360, Note_on_c, 4, 39, 95
7, 567840, Note_off_c, 4, 39, 95
7, 567840, Note_on_c, 4, 35, 95
7, 568320, Note_off_c, 4, 35, 95
7, 568320, Note_on_c, 4, 33, 95
7, 569280, Note_off_c, 4, 33, 95
7, 569280, Note_on_c, 4, 33, 95
7, 569760, Note_off_c, 4, 33, 95
7, 569760, Note_on_c, 4, 33, 95
7, 570240, Note_off_c, 4, 33, 95
7, 570240, Note_on_c, 4, 33, 95
7, 570720, Note_off_c, 4, 33, 95
7, 570720, Note_on_c, 4, 33, 95
7, 571200, Note_off_c, 4, 33, 95
7, 571200, Note_on_c, 4, 33, 95
7, 571680, Note_off_c, 4, 33, 95
7, 571680, Note_on_c, 4, 35, 95
7, 572640, Note_off_c, 4, 35, 95
7, 572640, Note_on_c, 4, 35, 95
7, 573120, Note_off_c, 4, 35, 95
7, 573120, Note_on_c, 4, 35, 95
7, 573600, Note_off_c, 4, 35, 95
7, 573600, Note_on_c, 4, 35, 95
7, 574080, Note_off_c, 4, 35, 95
7, 574080, Note_on_c, 4, 35, 95
7, 574560, Note_off_c, 4, 35, 95
7, 574560, Note_on_c, 4, 42, 95
7, 575040, Note_off_c, 4, 42, 95
7, 575040, Note_on_c, 4, 40, 95
7, 575520, Note_off_c, 4, 40, 95
7, 575520, Note_on_c, 4, 39, 95
7, 576000, Note_off_c, 4, 39, 95
7, 576000, Note_on_c, 4, 40, 95
7, 576960, Note_off_c, 4, 40, 95
7, 576960, Note_on_c, 4, 40, 95
7, 577440, Note_off_c, 4, 40, 95
7, 577440, Note_on_c, 4, 40, 95
7, 577920, Note_off_c, 4, 40, 95
7, 577920, Note_on_c, 4, 40, 95
7, 578400, Note_off_c, 4, 40, 95
7, 578400, Note_on_c, 4, 40, 95
7, 578880, Note_off_c, 4, 40, 95
7, 578880, Note_on_c, 4, 40, 95
7, 579360, Note_off_c, 4, 40, 95
7, 579360, Note_on_c, 4, 40, 95
7, 580320, Note_off_c, 4, 40, 95
7, 580320, Note_on_c, 4, 40, 95
7, 580800, Note_off_c, 4, 40, 95
7, 580800, Note_on_c, 4, 40, 95
7, 581280, Note_off_c, 4, 40, 95
7, 581280, Note_on_c, 4, 40, 95
7, 581760, Note_off_c, 4, 40, 95
7, 581760, Note_on_c, 4, 40, 95
7, 582240, Note_off_c, 4, 40, 95
7, 582240, Note_on_c, 4, 40, 95
7, 582720, Note_off_c, 4, 40, 95
7, 582720, Note_on_c, 4, 40, 95
7, 583200, Note_off_c, 4, 40, 95
7, 583200, Note_on_c, 4, 40, 95
7, 583680, Note_off_c, 4, 40, 95
7, 583680, Note_on_c, 4, 28, 95
7, 584160, Note_off_c, 4, 28, 95
7, 584160, Note_on_c, 4, 28, 95
7, 584640, Note_off_c, 4, 28, 95
7, 584640, Note_on_c, 4, 28, 95
7, 585120, Note_off_c, 4, 28, 95
7, 585120, Note_on_c, 4, 28, 95
7, 585600, Note_off_c, 4, 28, 95
7, 585600, Note_on_c, 4, 28, 95
7, 586080, Note_off_c, 4, 28, 95
7, 586080, Note_on_c, 4, 28, 95
7, 586560, Note_off_c, 4, 28, 95
7, 586560, Note_on_c, 4, 28, 95
7, 587040, Note_off_c, 4, 28, 95
7, 587040, Note_on_c, 4, 28, 95
7, 588000, Note_off_c, 4, 28, 95
7, 588000, Note_on_c, 4, 28, 95
7, 588960, Note_off_c, 4, 28, 95
7, 588960, Note_on_c, 4, 28, 95
7, 589440, Note_off_c, 4, 28, 95
7, 589440, Note_on_c, 4, 28, 95
7, 589920, Note_off_c, 4, 28, 95
7, 589920, Note_on_c, 4, 28, 95
7, 590400, Note_off_c, 4, 28, 95
7, 590400, Note_on_c, 4, 32, 95
7, 590880, Note_off_c, 4, 32, 95
7, 590880, Note_on_c, 4, 33, 95
7, 591360, Note_off_c, 4, 33, 95
7, 591360, Note_on_c, 4, 35, 95
7, 592320, Note_off_c, 4, 35, 95
7, 592320, Note_on_c, 4, 35, 95
7, 592800, Note_off_c, 4, 35, 95
7, 592800, Note_on_c, 4, 35, 95
7, 593280, Note_off_c, 4, 35, 95
7, 593280, Note_on_c, 4, 35, 95
7, 593760, Note_off_c, 4, 35, 95
7, 593760, Note_on_c, 4, 35, 95
7, 594240, Note_off_c, 4, 35, 95
7, 594240, Note_on_c, 4, 35, 95
7, 594720, Note_off_c, 4, 35, 95
7, 594720, Note_on_c, 4, 35, 95
7, 595680, Note_off_c, 4, 35, 95
7, 595680, Note_on_c, 4, 35, 95
7, 596160, Note_off_c, 4, 35, 95
7, 596160, Note_on_c, 4, 35, 95
7, 596640, Note_off_c, 4, 35, 95
7, 596640, Note_on_c, 4, 35, 95
7, 597120, Note_off_c, 4, 35, 95
7, 597120, Note_on_c, 4, 35, 95
7, 597600, Note_off_c, 4, 35, 95
7, 597600, Note_on_c, 4, 40, 95
7, 598080, Note_off_c, 4, 40, 95
7, 598080, Note_on_c, 4, 39, 95
7, 598560, Note_off_c, 4, 39, 95
7, 598560, Note_on_c, 4, 35, 95
7, 599040, Note_off_c, 4, 35, 95
7, 599040, Note_on_c, 4, 33, 95
7, 600000, Note_off_c, 4, 33, 95
7, 600000, Note_on_c, 4, 33, 95
7, 600480, Note_off_c, 4, 33, 95
7, 600480, Note_on_c, 4, 33, 95
7, 600960, Note_off_c, 4, 33, 95
7, 600960, Note_on_c, 4, 33, 95
7, 601440, Note_off_c, 4, 33, 95
7, 601440, Note_on_c, 4, 33, 95
7, 601920, Note_off_c, 4, 33, 95
7, 601920, Note_on_c, 4, 33, 95
7, 602400, Note_off_c, 4, 33, 95
7, 602400, Note_on_c, 4, 35, 95
7, 603360, Note_off_c, 4, 35, 95
7, 603360, Note_on_c, 4, 35, 95
7, 603840, Note_off_c, 4, 35, 95
7, 603840, Note_on_c, 4, 35, 95
7, 604320, Note_off_c, 4, 35, 95
7, 604320, Note_on_c, 4, 35, 95
7, 604800, Note_off_c, 4, 35, 95
7, 604800, Note_on_c, 4, 35, 95
7, 605280, Note_off_c, 4, 35, 95
7, 605280, Note_on_c, 4, 42, 95
7, 605760, Note_off_c, 4, 42, 95
7, 605760, Note_on_c, 4, 40, 95
7, 606240, Note_off_c, 4, 40, 95
7, 606240, Note_on_c, 4, 39, 95
7, 606720, Note_off_c, 4, 39, 95
7, 606720, Note_on_c, 4, 40, 95
7, 607680, Note_off_c, 4, 40, 95
7, 607680, Note_on_c, 4, 40, 95
7, 608160, Note_off_c, 4, 40, 95
7, 608160, Note_on_c, 4, 40, 95
7, 608640, Note_off_c, 4, 40, 95
7, 608640, Note_on_c, 4, 40, 95
7, 609120, Note_off_c, 4, 40, 95
7, 609120, Note_on_c, 4, 40, 95
7, 609600, Note_off_c, 4, 40, 95
7, 609600, Note_on_c, 4, 40, 95
7, 610080, Note_off_c, 4, 40, 95
7, 610080, Note_on_c, 4, 40, 95
7, 611040, Note_off_c, 4, 40, 95
7, 611040, Note_on_c, 4, 40, 95
7, 611520, Note_off_c, 4, 40, 95
7, 611520, Note_on_c, 4, 40, 95
7, 612000, Note_off_c, 4, 40, 95
7, 612000, Note_on_c, 4, 40, 95
7, 612480, Note_off_c, 4, 40, 95
7, 612480, Note_on_c, 4, 40, 95
7, 612960, Note_off_c, 4, 40, 95
7, 612960, Note_on_c, 4, 40, 95
7, 613440, Note_off_c, 4, 40, 95
7, 613440, Note_on_c, 4, 40, 95
7, 613920, Note_off_c, 4, 40, 95
7, 613920, Note_on_c, 4, 40, 95
7, 614400, Note_off_c, 4, 40, 95
7, 614400, Note_on_c, 4, 28, 95
7, 614880, Note_off_c, 4, 28, 95
7, 614880, Note_on_c, 4, 28, 95
7, 615360, Note_off_c, 4, 28, 95
7, 615360, Note_on_c, 4, 28, 95
7, 615840, Note_off_c, 4, 28, 95
7, 615840, Note_on_c, 4, 28, 95
7, 616320, Note_off_c, 4, 28, 95
7, 616320, Note_on_c, 4, 28, 95
7, 616800, Note_off_c, 4, 28, 95
7, 616800, Note_on_c, 4, 28, 95
7, 617280, Note_off_c, 4, 28, 95
7, 617280, Note_on_c, 4, 28, 95
7, 617760, Note_off_c, 4, 28, 95
7, 617760, Note_on_c, 4, 28, 95
7, 618720, Note_off_c, 4, 28, 95
7, 618720, Note_on_c, 4, 28, 95
7, 619680, Note_off_c, 4, 28, 95
7, 619680, Note_on_c, 4, 28, 95
7, 620160, Note_off_c, 4, 28, 95
7, 620160, Note_on_c, 4, 28, 95
7, 620640, Note_off_c, 4, 28, 95
7, 620640, Note_on_c, 4, 28, 95
7, 621120, Note_off_c, 4, 28, 95
7, 621120, Note_on_c, 4, 32, 95
7, 621600, Note_off_c, 4, 32, 95
7, 621600, Note_on_c, 4, 33, 95
7, 622080, Note_off_c, 4, 33, 95
7, 622080, End_track
8, 0, Start_track
8, 0, Pitch_bend_c, 9, 8192
8, 0, Control_c, 9, 7, 103
8, 0, Control_c, 9, 10, 63
8, 0, Control_c, 9, 93, 0
8, 0, Control_c, 9, 91, 0
8, 0, Control_c, 9, 95, 0
8, 0, Control_c, 9, 92, 0
8, 0, Control_c, 9, 11, 127
8, 0, Program_c, 9, 0
8, 7200, Note_on_c, 9, 57, 95
8, 7200, Note_on_c, 9, 36, 127
8, 7680, Note_off_c, 9, 57, 95
8, 7680, Note_off_c, 9, 36, 127
8, 7680, Note_on_c, 9, 49, 95
8, 7680, Note_on_c, 9, 36, 127
8, 14880, Note_off_c, 9, 49, 95
8, 14880, Note_off_c, 9, 36, 127
8, 14880, Note_on_c, 9, 57, 95
8, 14880, Note_on_c, 9, 36, 127
8, 15360, Note_off_c, 9, 57, 95
8, 15360, Note_off_c, 9, 36, 127
8, 15360, Note_on_c, 9, 49, 95
8, 15360, Note_on_c, 9, 36, 127
8, 16320, Note_off_c, 9, 49, 95
8, 16320, Note_off_c, 9, 36, 127
8, 16320, Note_on_c, 9, 44, 47
8, 17280, Note_off_c, 9, 44, 47
8, 18240, Note_on_c, 9, 44, 47
8, 19200, Note_off_c, 9, 44, 47
8, 20160, Note_on_c, 9, 44, 47
8, 21120, Note_off_c, 9, 44, 47
8, 22080, Note_on_c, 9, 44, 47
8, 23040, Note_off_c, 9, 44, 47
8, 24000, Note_on_c, 9, 44, 47
8, 24960, Note_off_c, 9, 44, 47
8, 25920, Note_on_c, 9, 44, 47
8, 26880, Note_off_c, 9, 44, 47
8, 27840, Note_on_c, 9, 44, 47
8, 28800, Note_off_c, 9, 44, 47
8, 29760, Note_on_c, 9, 44, 47
8, 30720, Note_off_c, 9, 44, 47
8, 31680, Note_on_c, 9, 44, 47
8, 32640, Note_off_c, 9, 44, 47
8, 33600, Note_on_c, 9, 44, 47
8, 34560, Note_off_c, 9, 44, 47
8, 35520, Note_on_c, 9, 44, 47
8, 36480, Note_off_c, 9, 44, 47
8, 37440, Note_on_c, 9, 44, 47
8, 38400, Note_off_c, 9, 44, 47
8, 39360, Note_on_c, 9, 44, 47
8, 40320, Note_off_c, 9, 44, 47
8, 41280, Note_on_c, 9, 44, 47
8, 42240, Note_off_c, 9, 44, 47
8, 43200, Note_on_c, 9, 44, 47
8, 44160, Note_off_c, 9, 44, 47
8, 44640, Note_on_c, 9, 44, 47
8, 45120, Note_off_c, 9, 44, 47
8, 45600, Note_on_c, 9, 44, 47
8, 46080, Note_off_c, 9, 44, 47
8, 47040, Note_on_c, 9, 44, 47
8, 48000, Note_off_c, 9, 44, 47
8, 48960, Note_on_c, 9, 44, 47
8, 49920, Note_off_c, 9, 44, 47
8, 50880, Note_on_c, 9, 44, 47
8, 51840, Note_off_c, 9, 44, 47
8, 52800, Note_on_c, 9, 44, 47
8, 53760, Note_off_c, 9, 44, 47
8, 54720, Note_on_c, 9, 44, 47
8, 55680, Note_off_c, 9, 44, 47
8, 56640, Note_on_c, 9, 44, 47
8, 57600, Note_off_c, 9, 44, 47
8, 58560, Note_on_c, 9, 44, 47
8, 59520, Note_off_c, 9, 44, 47
8, 60480, Note_on_c, 9, 44, 47
8, 61440, Note_off_c, 9, 44, 47
8, 62400, Note_on_c, 9, 44, 47
8, 63360, Note_off_c, 9, 44, 47
8, 64320, Note_on_c, 9, 44, 47
8, 65280, Note_off_c, 9, 44, 47
8, 66240, Note_on_c, 9, 44, 47
8, 67200, Note_off_c, 9, 44, 47
8, 68160, Note_on_c, 9, 44, 47
8, 69120, Note_off_c, 9, 44, 47
8, 70080, Note_on_c, 9, 44, 47
8, 71040, Note_off_c, 9, 44, 47
8, 72000, Note_on_c, 9, 44, 47
8, 72960, Note_off_c, 9, 44, 47
8, 73920, Note_on_c, 9, 44, 47
8, 74400, Note_off_c, 9, 44, 47
8, 74400, Note_on_c, 9, 57, 95
8, 74400, Note_on_c, 9, 36, 127
8, 75360, Note_off_c, 9, 57, 95
8, 75360, Note_off_c, 9, 36, 127
8, 75360, Note_on_c, 9, 49, 95
8, 75360, Note_on_c, 9, 36, 127
8, 76320, Note_off_c, 9, 49, 95
8, 76320, Note_off_c, 9, 36, 127
8, 76320, Note_on_c, 9, 57, 95
8, 76320, Note_on_c, 9, 36, 127
8, 76800, Note_off_c, 9, 57, 95
8, 76800, Note_off_c, 9, 36, 127
8, 76800, Note_on_c, 9, 49, 95
8, 76800, Note_on_c, 9, 36, 127
8, 77760, Note_off_c, 9, 49, 95
8, 77760, Note_off_c, 9, 36, 127
8, 77760, Note_on_c, 9, 44, 47
8, 78720, Note_off_c, 9, 44, 47
8, 79680, Note_on_c, 9, 44, 47
8, 80640, Note_off_c, 9, 44, 47
8, 81600, Note_on_c, 9, 44, 47
8, 82560, Note_off_c, 9, 44, 47
8, 83520, Note_on_c, 9, 44, 47
8, 84480, Note_off_c, 9, 44, 47
8, 85440, Note_on_c, 9, 44, 47
8, 86400, Note_off_c, 9, 44, 47
8, 87360, Note_on_c, 9, 44, 47
8, 88320, Note_off_c, 9, 44, 47
8, 89280, Note_on_c, 9, 44, 47
8, 90240, Note_off_c, 9, 44, 47
8, 91200, Note_on_c, 9, 44, 47
8, 92160, Note_off_c, 9, 44, 47
8, 93120, Note_on_c, 9, 44, 47
8, 94080, Note_off_c, 9, 44, 47
8, 95040, Note_on_c, 9, 44, 47
8, 96000, Note_off_c, 9, 44, 47
8, 96960, Note_on_c, 9, 44, 47
8, 97920, Note_off_c, 9, 44, 47
8, 98880, Note_on_c, 9, 44, 47
8, 99840, Note_off_c, 9, 44, 47
8, 99840, Note_on_c, 9, 44, 47
8, 100800, Note_off_c, 9, 44, 47
8, 100800, Note_on_c, 9, 44, 47
8, 101760, Note_off_c, 9, 44, 47
8, 101760, Note_on_c, 9, 44, 47
8, 102720, Note_off_c, 9, 44, 47
8, 102720, Note_on_c, 9, 44, 47
8, 103680, Note_off_c, 9, 44, 47
8, 103680, Note_on_c, 9, 44, 47
8, 104640, Note_off_c, 9, 44, 47
8, 104640, Note_on_c, 9, 44, 47
8, 105120, Note_off_c, 9, 44, 47
8, 105120, Note_on_c, 9, 57, 95
8, 105120, Note_on_c, 9, 36, 127
8, 106080, Note_off_c, 9, 57, 95
8, 106080, Note_off_c, 9, 36, 127
8, 106080, Note_on_c, 9, 49, 95
8, 106080, Note_on_c, 9, 36, 127
8, 107040, Note_off_c, 9, 49, 95
8, 107040, Note_off_c, 9, 36, 127
8, 107040, Note_on_c, 9, 57, 95
8, 107040, Note_on_c, 9, 36, 127
8, 107520, Note_off_c, 9, 57, 95
8, 107520, Note_off_c, 9, 36, 127
8, 107520, Note_on_c, 9, 49, 95
8, 107520, Note_on_c, 9, 36, 127
8, 108480, Note_off_c, 9, 49, 95
8, 108480, Note_off_c, 9, 36, 127
8, 108480, Note_on_c, 9, 44, 47
8, 109440, Note_off_c, 9, 44, 47
8, 110400, Note_on_c, 9, 44, 47
8, 111360, Note_off_c, 9, 44, 47
8, 112320, Note_on_c, 9, 44, 47
8, 113280, Note_off_c, 9, 44, 47
8, 114240, Note_on_c, 9, 44, 47
8, 115200, Note_off_c, 9, 44, 47
8, 116160, Note_on_c, 9, 44, 47
8, 117120, Note_off_c, 9, 44, 47
8, 118080, Note_on_c, 9, 44, 47
8, 119040, Note_off_c, 9, 44, 47
8, 120000, Note_on_c, 9, 44, 47
8, 120960, Note_off_c, 9, 44, 47
8, 121920, Note_on_c, 9, 44, 47
8, 122880, Note_off_c, 9, 44, 47
8, 123840, Note_on_c, 9, 44, 47
8, 124800, Note_off_c, 9, 44, 47
8, 125760, Note_on_c, 9, 44, 47
8, 126720, Note_off_c, 9, 44, 47
8, 127680, Note_on_c, 9, 44, 47
8, 128640, Note_off_c, 9, 44, 47
8, 129600, Note_on_c, 9, 44, 47
8, 130560, Note_off_c, 9, 44, 47
8, 130560, Note_on_c, 9, 44, 47
8, 131520, Note_off_c, 9, 44, 47
8, 131520, Note_on_c, 9, 44, 47
8, 132480, Note_off_c, 9, 44, 47
8, 132480, Note_on_c, 9, 44, 47
8, 133440, Note_off_c, 9, 44, 47
8, 133440, Note_on_c, 9, 44, 47
8, 134400, Note_off_c, 9, 44, 47
8, 134400, Note_on_c, 9, 44, 47
8, 135360, Note_off_c, 9, 44, 47
8, 135360, Note_on_c, 9, 44, 47
8, 135840, Note_off_c, 9, 44, 47
8, 135840, Note_on_c, 9, 57, 95
8, 135840, Note_on_c, 9, 36, 127
8, 136800, Note_off_c, 9, 57, 95
8, 136800, Note_off_c, 9, 36, 127
8, 136800, Note_on_c, 9, 49, 95
8, 136800, Note_on_c, 9, 36, 127
8, 137760, Note_off_c, 9, 49, 95
8, 137760, Note_off_c, 9, 36, 127
8, 137760, Note_on_c, 9, 57, 95
8, 137760, Note_on_c, 9, 36, 127
8, 138240, Note_off_c, 9, 57, 95
8, 138240, Note_off_c, 9, 36, 127
8, 138240, Note_on_c, 9, 49, 95
8, 138240, Note_on_c, 9, 36, 127
8, 139200, Note_off_c, 9, 49, 95
8, 139200, Note_off_c, 9, 36, 127
8, 139200, Note_on_c, 9, 44, 47
8, 140160, Note_off_c, 9, 44, 47
8, 141120, Note_on_c, 9, 44, 47
8, 142080, Note_off_c, 9, 44, 47
8, 143040, Note_on_c, 9, 44, 47
8, 144000, Note_off_c, 9, 44, 47
8, 144960, Note_on_c, 9, 44, 47
8, 145920, Note_off_c, 9, 44, 47
8, 146880, Note_on_c, 9, 44, 47
8, 147840, Note_off_c, 9, 44, 47
8, 148800, Note_on_c, 9, 44, 47
8, 149760, Note_off_c, 9, 44, 47
8, 150720, Note_on_c, 9, 44, 47
8, 151680, Note_off_c, 9, 44, 47
8, 152640, Note_on_c, 9, 44, 47
8, 153600, Note_off_c, 9, 44, 47
8, 154560, Note_on_c, 9, 44, 47
8, 155520, Note_off_c, 9, 44, 47
8, 156480, Note_on_c, 9, 44, 47
8, 157440, Note_off_c, 9, 44, 47
8, 158400, Note_on_c, 9, 44, 47
8, 159360, Note_off_c, 9, 44, 47
8, 160320, Note_on_c, 9, 44, 47
8, 161280, Note_off_c, 9, 44, 47
8, 162240, Note_on_c, 9, 44, 47
8, 163200, Note_off_c, 9, 44, 47
8, 164160, Note_on_c, 9, 44, 47
8, 165120, Note_off_c, 9, 44, 47
8, 166080, Note_on_c, 9, 44, 47
8, 166560, Note_off_c, 9, 44, 47
8, 166560, Note_on_c, 9, 57, 95
8, 166560, Note_on_c, 9, 36, 127
8, 167520, Note_off_c, 9, 57, 95
8, 167520, Note_off_c, 9, 36, 127
8, 167520, Note_on_c, 9, 49, 95
8, 167520, Note_on_c, 9, 36, 127
8, 168480, Note_off_c, 9, 49, 95
8, 168480, Note_off_c, 9, 36, 127
8, 168480, Note_on_c, 9, 57, 95
8, 168480, Note_on_c, 9, 36, 127
8, 168960, Note_off_c, 9, 57, 95
8, 168960, Note_off_c, 9, 36, 127
8, 168960, Note_on_c, 9, 49, 95
8, 168960, Note_on_c, 9, 36, 127
8, 169920, Note_off_c, 9, 49, 95
8, 169920, Note_off_c, 9, 36, 127
8, 169920, Note_on_c, 9, 44, 47
8, 170880, Note_off_c, 9, 44, 47
8, 171840, Note_on_c, 9, 44, 47
8, 172800, Note_off_c, 9, 44, 47
8, 173760, Note_on_c, 9, 44, 47
8, 174720, Note_off_c, 9, 44, 47
8, 175680, Note_on_c, 9, 44, 47
8, 176640, Note_off_c, 9, 44, 47
8, 177600, Note_on_c, 9, 46, 47
8, 178560, Note_off_c, 9, 46, 47
8, 179520, Note_on_c, 9, 46, 47
8, 180480, Note_off_c, 9, 46, 47
8, 181440, Note_on_c, 9, 46, 47
8, 182400, Note_off_c, 9, 46, 47
8, 183360, Note_on_c, 9, 46, 47
8, 184320, Note_off_c, 9, 46, 47
8, 185280, Note_on_c, 9, 46, 47
8, 186240, Note_off_c, 9, 46, 47
8, 187200, Note_on_c, 9, 46, 47
8, 188160, Note_off_c, 9, 46, 47
8, 189120, Note_on_c, 9, 46, 47
8, 190080, Note_off_c, 9, 46, 47
8, 191040, Note_on_c, 9, 46, 47
8, 192000, Note_off_c, 9, 46, 47
8, 192960, Note_on_c, 9, 46, 47
8, 193920, Note_off_c, 9, 46, 47
8, 194880, Note_on_c, 9, 46, 47
8, 195840, Note_off_c, 9, 46, 47
8, 196800, Note_on_c, 9, 46, 47
8, 197280, Note_off_c, 9, 46, 47
8, 197280, Note_on_c, 9, 57, 95
8, 197280, Note_on_c, 9, 36, 127
8, 199680, Note_off_c, 9, 57, 95
8, 199680, Note_off_c, 9, 36, 127
8, 199680, Note_on_c, 9, 49, 95
8, 199680, Note_on_c, 9, 36, 127
8, 206400, Note_off_c, 9, 49, 95
8, 206400, Note_off_c, 9, 36, 127
8, 206400, Note_on_c, 9, 57, 95
8, 206400, Note_on_c, 9, 36, 127
8, 206880, Note_off_c, 9, 57, 95
8, 206880, Note_off_c, 9, 36, 127
8, 206880, Note_on_c, 9, 49, 95
8, 206880, Note_on_c, 9, 36, 127
8, 212760, Note_off_c, 9, 49, 95
8, 212760, Note_off_c, 9, 36, 127
8, 212760, Note_on_c, 9, 45, 95
8, 212880, Note_off_c, 9, 45, 95
8, 212880, Note_on_c, 9, 45, 95
8, 213000, Note_off_c, 9, 45, 95
8, 213000, Note_on_c, 9, 45, 95
8, 213120, Note_off_c, 9, 45, 95
8, 213120, Note_on_c, 9, 47, 95
8, 213600, Note_off_c, 9, 47, 95
8, 213600, Note_on_c, 9, 45, 95
8, 214080, Note_off_c, 9, 45, 95
8, 214080, Note_on_c, 9, 57, 95
8, 214080, Note_on_c, 9, 36, 127
8, 214560, Note_off_c, 9, 57, 95
8, 214560, Note_off_c, 9, 36, 127
8, 214560, Note_on_c, 9, 49, 95
8, 214560, Note_on_c, 9, 36, 127
8, 215520, Note_off_c, 9, 49, 95
8, 215520, Note_off_c, 9, 36, 127
8, 215520, Note_on_c, 9, 46, 95
8, 215520, Note_on_c, 9, 36, 127
8, 216000, Note_off_c, 9, 46, 95
8, 216000, Note_off_c, 9, 36, 127
8, 216000, Note_on_c, 9, 49, 95
8, 216000, Note_on_c, 9, 38, 95
8, 216480, Note_off_c, 9, 49, 95
8, 216480, Note_off_c, 9, 38, 95
8, 216480, Note_on_c, 9, 46, 95
8, 216720, Note_on_c, 9, 36, 127
8, 216960, Note_off_c, 9, 46, 95
8, 216960, Note_off_c, 9, 36, 127
8, 216960, Note_on_c, 9, 46, 95
8, 216960, Note_on_c, 9, 36, 127
8, 217440, Note_off_c, 9, 46, 95
8, 217440, Note_off_c, 9, 36, 127
8, 217440, Note_on_c, 9, 46, 95
8, 217440, Note_on_c, 9, 36, 127
8, 217920, Note_off_c, 9, 46, 95
8, 217920, Note_off_c, 9, 36, 127
8, 217920, Note_on_c, 9, 49, 95
8, 217920, Note_on_c, 9, 38, 95
8, 218400, Note_off_c, 9, 49, 95
8, 218400, Note_off_c, 9, 38, 95
8, 218400, Note_on_c, 9, 46, 95
8, 218880, Note_off_c, 9, 46, 95
8, 218880, Note_on_c, 9, 46, 95
8, 218880, Note_on_c, 9, 36, 95
8, 219360, Note_off_c, 9, 46, 95
8, 219360, Note_off_c, 9, 36, 95
8, 219360, Note_on_c, 9, 46, 95
8, 219840, Note_off_c, 9, 46, 95
8, 219840, Note_on_c, 9, 49, 95
8, 219840, Note_on_c, 9, 38, 95
8, 220320, Note_off_c, 9, 49, 95
8, 220320, Note_off_c, 9, 38, 95
8, 220320, Note_on_c, 9, 46, 95
8, 220560, Note_on_c, 9, 36, 127
8, 220800, Note_off_c, 9, 46, 95
8, 220800, Note_off_c, 9, 36, 127
8, 220800, Note_on_c, 9, 46, 95
8, 220800, Note_on_c, 9, 36, 127
8, 221280, Note_off_c, 9, 46, 95
8, 221280, Note_off_c, 9, 36, 127
8, 221280, Note_on_c, 9, 46, 95
8, 221280, Note_on_c, 9, 36, 127
8, 221760, Note_off_c, 9, 46, 95
8, 221760, Note_off_c, 9, 36, 127
8, 221760, Note_on_c, 9, 49, 95
8, 221760, Note_on_c, 9, 38, 95
8, 222240, Note_off_c, 9, 49, 95
8, 222240, Note_off_c, 9, 38, 95
8, 222240, Note_on_c, 9, 46, 95
8, 222720, Note_off_c, 9, 46, 95
8, 222720, Note_on_c, 9, 46, 95
8, 222720, Note_on_c, 9, 36, 95
8, 223200, Note_off_c, 9, 46, 95
8, 223200, Note_off_c, 9, 36, 95
8, 223200, Note_on_c, 9, 46, 95
8, 223680, Note_off_c, 9, 46, 95
8, 223680, Note_on_c, 9, 49, 95
8, 223680, Note_on_c, 9, 38, 95
8, 224160, Note_off_c, 9, 49, 95
8, 224160, Note_off_c, 9, 38, 95
8, 224160, Note_on_c, 9, 46, 95
8, 224400, Note_on_c, 9, 36, 127
8, 224640, Note_off_c, 9, 46, 95
8, 224640, Note_off_c, 9, 36, 127
8, 224640, Note_on_c, 9, 46, 95
8, 224640, Note_on_c, 9, 36, 127
8, 225120, Note_off_c, 9, 46, 95
8, 225120, Note_off_c, 9, 36, 127
8, 225120, Note_on_c, 9, 46, 95
8, 225120, Note_on_c, 9, 36, 127
8, 225600, Note_off_c, 9, 46, 95
8, 225600, Note_off_c, 9, 36, 127
8, 225600, Note_on_c, 9, 49, 95
8, 225600, Note_on_c, 9, 38, 95
8, 226080, Note_off_c, 9, 49, 95
8, 226080, Note_off_c, 9, 38, 95
8, 226080, Note_on_c, 9, 46, 95
8, 226560, Note_off_c, 9, 46, 95
8, 226560, Note_on_c, 9, 46, 95
8, 226560, Note_on_c, 9, 36, 95
8, 227040, Note_off_c, 9, 46, 95
8, 227040, Note_off_c, 9, 36, 95
8, 227040, Note_on_c, 9, 46, 95
8, 227520, Note_off_c, 9, 46, 95
8, 227520, Note_on_c, 9, 49, 95
8, 227520, Note_on_c, 9, 38, 95
8, 228000, Note_off_c, 9, 49, 95
8, 228000, Note_off_c, 9, 38, 95
8, 228000, Note_on_c, 9, 46, 95
8, 228240, Note_on_c, 9, 38, 95
8, 228480, Note_off_c, 9, 46, 95
8, 228480, Note_off_c, 9, 38, 95
8, 228480, Note_on_c, 9, 46, 95
8, 228480, Note_on_c, 9, 36, 127
8, 228960, Note_off_c, 9, 46, 95
8, 228960, Note_off_c, 9, 36, 127
8, 228960, Note_on_c, 9, 46, 95
8, 228960, Note_on_c, 9, 38, 95
8, 228960, Note_on_c, 9, 36, 127
8, 229440, Note_off_c, 9, 46, 95
8, 229440, Note_off_c, 9, 38, 95
8, 229440, Note_off_c, 9, 36, 127
8, 229440, Note_on_c, 9, 47, 95
8, 229680, Note_off_c, 9, 47, 95
8, 229680, Note_on_c, 9, 45, 95
8, 229920, Note_off_c, 9, 45, 95
8, 229920, Note_on_c, 9, 43, 95
8, 230400, Note_off_c, 9, 43, 95
8, 230400, Note_on_c, 9, 57, 95
8, 230400, Note_on_c, 9, 36, 95
8, 230880, Note_off_c, 9, 57, 95
8, 230880, Note_off_c, 9, 36, 95
8, 230880, Note_on_c, 9, 46, 95
8, 231360, Note_off_c, 9, 46, 95
8, 231360, Note_on_c, 9, 49, 95
8, 231360, Note_on_c, 9, 38, 95
8, 231840, Note_off_c, 9, 49, 95
8, 231840, Note_off_c, 9, 38, 95
8, 231840, Note_on_c, 9, 46, 95
8, 232080, Note_on_c, 9, 36, 127
8, 232320, Note_off_c, 9, 46, 95
8, 232320, Note_off_c, 9, 36, 127
8, 232320, Note_on_c, 9, 46, 95
8, 232320, Note_on_c, 9, 36, 127
8, 232800, Note_off_c, 9, 46, 95
8, 232800, Note_off_c, 9, 36, 127
8, 232800, Note_on_c, 9, 46, 95
8, 232800, Note_on_c, 9, 36, 127
8, 233280, Note_off_c, 9, 46, 95
8, 233280, Note_off_c, 9, 36, 127
8, 233280, Note_on_c, 9, 49, 95
8, 233280, Note_on_c, 9, 38, 95
8, 233760, Note_off_c, 9, 49, 95
8, 233760, Note_off_c, 9, 38, 95
8, 233760, Note_on_c, 9, 46, 95
8, 234240, Note_off_c, 9, 46, 95
8, 234240, Note_on_c, 9, 46, 95
8, 234240, Note_on_c, 9, 36, 95
8, 234720, Note_off_c, 9, 46, 95
8, 234720, Note_off_c, 9, 36, 95
8, 234720, Note_on_c, 9, 46, 95
8, 235200, Note_off_c, 9, 46, 95
8, 235200, Note_on_c, 9, 49, 95
8, 235200, Note_on_c, 9, 38, 95
8, 235680, Note_off_c, 9, 49, 95
8, 235680, Note_off_c, 9, 38, 95
8, 235680, Note_on_c, 9, 46, 95
8, 235920, Note_on_c, 9, 36, 127
8, 236160, Note_off_c, 9, 46, 95
8, 236160, Note_off_c, 9, 36, 127
8, 236160, Note_on_c, 9, 46, 95
8, 236160, Note_on_c, 9, 36, 127
8, 236640, Note_off_c, 9, 46, 95
8, 236640, Note_off_c, 9, 36, 127
8, 236640, Note_on_c, 9, 46, 95
8, 236640, Note_on_c, 9, 36, 127
8, 237120, Note_off_c, 9, 46, 95
8, 237120, Note_off_c, 9, 36, 127
8, 237120, Note_on_c, 9, 49, 95
8, 237120, Note_on_c, 9, 38, 95
8, 237600, Note_off_c, 9, 49, 95
8, 237600, Note_off_c, 9, 38, 95
8, 237600, Note_on_c, 9, 46, 95
8, 238080, Note_off_c, 9, 46, 95
8, 238080, Note_on_c, 9, 46, 95
8, 238080, Note_on_c, 9, 36, 95
8, 238560, Note_off_c, 9, 46, 95
8, 238560, Note_off_c, 9, 36, 95
8, 238560, Note_on_c, 9, 46, 95
8, 239040, Note_off_c, 9, 46, 95
8, 239040, Note_on_c, 9, 46, 95
8, 239040, Note_on_c, 9, 38, 95
8, 239520, Note_off_c, 9, 46, 95
8, 239520, Note_off_c, 9, 38, 95
8, 239520, Note_on_c, 9, 46, 95
8, 239760, Note_on_c, 9, 36, 127
8, 240000, Note_off_c, 9, 46, 95
8, 240000, Note_off_c, 9, 36, 127
8, 240000, Note_on_c, 9, 46, 95
8, 240000, Note_on_c, 9, 36, 127
8, 240480, Note_off_c, 9, 46, 95
8, 240480, Note_off_c, 9, 36, 127
8, 240480, Note_on_c, 9, 46, 95
8, 240480, Note_on_c, 9, 36, 127
8, 240960, Note_off_c, 9, 46, 95
8, 240960, Note_off_c, 9, 36, 127
8, 240960, Note_on_c, 9, 46, 95
8, 240960, Note_on_c, 9, 38, 95
8, 241440, Note_off_c, 9, 46, 95
8, 241440, Note_off_c, 9, 38, 95
8, 241440, Note_on_c, 9, 46, 95
8, 241680, Note_on_c, 9, 38, 95
8, 241920, Note_off_c, 9, 46, 95
8, 241920, Note_off_c, 9, 38, 95
8, 241920, Note_on_c, 9, 46, 95
8, 241920, Note_on_c, 9, 36, 127
8, 242400, Note_off_c, 9, 46, 95
8, 242400, Note_off_c, 9, 36, 127
8, 242400, Note_on_c, 9, 46, 95
8, 242640, Note_on_c, 9, 38, 95
8, 242880, Note_off_c, 9, 46, 95
8, 242880, Note_off_c, 9, 38, 95
8, 242880, Note_on_c, 9, 38, 95
8, 243360, Note_off_c, 9, 38, 95
8, 243360, Note_on_c, 9, 47, 95
8, 243360, Note_on_c, 9, 36, 127
8, 243840, Note_off_c, 9, 47, 95
8, 243840, Note_off_c, 9, 36, 127
8, 243840, Note_on_c, 9, 38, 95
8, 244080, Note_off_c, 9, 38, 95
8, 244080, Note_on_c, 9, 38, 95
8, 244320, Note_off_c, 9, 38, 95
8, 244320, Note_on_c, 9, 47, 95
8, 244320, Note_on_c, 9, 36, 127
8, 244800, Note_off_c, 9, 47, 95
8, 244800, Note_off_c, 9, 36, 127
8, 244800, Note_on_c, 9, 38, 95
8, 245040, Note_off_c, 9, 38, 95
8, 245040, Note_on_c, 9, 38, 95
8, 245280, Note_off_c, 9, 38, 95
8, 245280, Note_on_c, 9, 47, 95
8, 245280, Note_on_c, 9, 36, 127
8, 245760, Note_off_c, 9, 47, 95
8, 245760, Note_off_c, 9, 36, 127
8, 245760, Note_on_c, 9, 57, 95
8, 245760, Note_on_c, 9, 36, 95
8, 246240, Note_off_c, 9, 57, 95
8, 246240, Note_off_c, 9, 36, 95
8, 246240, Note_on_c, 9, 46, 95
8, 246720, Note_off_c, 9, 46, 95
8, 246720, Note_on_c, 9, 46, 95
8, 246720, Note_on_c, 9, 38, 95
8, 247200, Note_off_c, 9, 46, 95
8, 247200, Note_off_c, 9, 38, 95
8, 247200, Note_on_c, 9, 46, 95
8, 247440, Note_on_c, 9, 36, 127
8, 247680, Note_off_c, 9, 46, 95
8, 247680, Note_off_c, 9, 36, 127
8, 247680, Note_on_c, 9, 46, 95
8, 247680, Note_on_c, 9, 36, 127
8, 248160, Note_off_c, 9, 46, 95
8, 248160, Note_off_c, 9, 36, 127
8, 248160, Note_on_c, 9, 46, 95
8, 248160, Note_on_c, 9, 36, 127
8, 248640, Note_off_c, 9, 46, 95
8, 248640, Note_off_c, 9, 36, 127
8, 248640, Note_on_c, 9, 46, 95
8, 248640, Note_on_c, 9, 38, 95
8, 249120, Note_off_c, 9, 46, 95
8, 249120, Note_off_c, 9, 38, 95
8, 249120, Note_on_c, 9, 46, 95
8, 249600, Note_off_c, 9, 46, 95
8, 249600, Note_on_c, 9, 46, 95
8, 249600, Note_on_c, 9, 36, 95
8, 250080, Note_off_c, 9, 46, 95
8, 250080, Note_off_c, 9, 36, 95
8, 250080, Note_on_c, 9, 46, 95
8, 250560, Note_off_c, 9, 46, 95
8, 250560, Note_on_c, 9, 46, 95
8, 250560, Note_on_c, 9, 38, 95
8, 251040, Note_off_c, 9, 46, 95
8, 251040, Note_off_c, 9, 38, 95
8, 251040, Note_on_c, 9, 46, 95
8, 251280, Note_on_c, 9, 36, 127
8, 251520, Note_off_c, 9, 46, 95
8, 251520, Note_off_c, 9, 36, 127
8, 251520, Note_on_c, 9, 46, 95
8, 251520, Note_on_c, 9, 36, 127
8, 252000, Note_off_c, 9, 46, 95
8, 252000, Note_off_c, 9, 36, 127
8, 252000, Note_on_c, 9, 46, 95
8, 252000, Note_on_c, 9, 36, 127
8, 252480, Note_off_c, 9, 46, 95
8, 252480, Note_off_c, 9, 36, 127
8, 252480, Note_on_c, 9, 46, 95
8, 252480, Note_on_c, 9, 38, 95
8, 252960, Note_off_c, 9, 46, 95
8, 252960, Note_off_c, 9, 38, 95
8, 252960, Note_on_c, 9, 46, 95
8, 253440, Note_off_c, 9, 46, 95
8, 253440, Note_on_c, 9, 46, 95
8, 253440, Note_on_c, 9, 36, 95
8, 253920, Note_off_c, 9, 46, 95
8, 253920, Note_off_c, 9, 36, 95
8, 253920, Note_on_c, 9, 46, 95
8, 254400, Note_off_c, 9, 46, 95
8, 254400, Note_on_c, 9, 46, 95
8, 254400, Note_on_c, 9, 38, 95
8, 254880, Note_off_c, 9, 46, 95
8, 254880, Note_off_c, 9, 38, 95
8, 254880, Note_on_c, 9, 46, 95
8, 255120, Note_on_c, 9, 36, 127
8, 255360, Note_off_c, 9, 46, 95
8, 255360, Note_off_c, 9, 36, 127
8, 255360, Note_on_c, 9, 46, 95
8, 255360, Note_on_c, 9, 36, 127
8, 255840, Note_off_c, 9, 46, 95
8, 255840, Note_off_c, 9, 36, 127
8, 255840, Note_on_c, 9, 46, 95
8, 255840, Note_on_c, 9, 36, 127
8, 256320, Note_off_c, 9, 46, 95
8, 256320, Note_off_c, 9, 36, 127
8, 256320, Note_on_c, 9, 46, 95
8, 256320, Note_on_c, 9, 38, 95
8, 256800, Note_off_c, 9, 46, 95
8, 256800, Note_off_c, 9, 38, 95
8, 256800, Note_on_c, 9, 46, 95
8, 257280, Note_off_c, 9, 46, 95
8, 257280, Note_on_c, 9, 46, 95
8, 257280, Note_on_c, 9, 36, 95
8, 257760, Note_off_c, 9, 46, 95
8, 257760, Note_off_c, 9, 36, 95
8, 257760, Note_on_c, 9, 46, 95
8, 258240, Note_off_c, 9, 46, 95
8, 258240, Note_on_c, 9, 46, 95
8, 258240, Note_on_c, 9, 38, 95
8, 258720, Note_off_c, 9, 46, 95
8, 258720, Note_off_c, 9, 38, 95
8, 258720, Note_on_c, 9, 46, 95
8, 258960, Note_on_c, 9, 36, 127
8, 259200, Note_off_c, 9, 46, 95
8, 259200, Note_off_c, 9, 36, 127
8, 259200, Note_on_c, 9, 46, 95
8, 259200, Note_on_c, 9, 36, 127
8, 259680, Note_off_c, 9, 46, 95
8, 259680, Note_off_c, 9, 36, 127
8, 259680, Note_on_c, 9, 46, 95
8, 259680, Note_on_c, 9, 36, 127
8, 260160, Note_off_c, 9, 46, 95
8, 260160, Note_off_c, 9, 36, 127
8, 260160, Note_on_c, 9, 46, 95
8, 260160, Note_on_c, 9, 38, 95
8, 260640, Note_off_c, 9, 46, 95
8, 260640, Note_off_c, 9, 38, 95
8, 260640, Note_on_c, 9, 46, 95
8, 261120, Note_off_c, 9, 46, 95
8, 261120, Note_on_c, 9, 46, 95
8, 261120, Note_on_c, 9, 36, 95
8, 261600, Note_off_c, 9, 46, 95
8, 261600, Note_off_c, 9, 36, 95
8, 261600, Note_on_c, 9, 46, 95
8, 262080, Note_off_c, 9, 46, 95
8, 262080, Note_on_c, 9, 46, 95
8, 262080, Note_on_c, 9, 38, 95
8, 262560, Note_off_c, 9, 46, 95
8, 262560, Note_off_c, 9, 38, 95
8, 262560, Note_on_c, 9, 46, 95
8, 262800, Note_on_c, 9, 36, 127
8, 263040, Note_off_c, 9, 46, 95
8, 263040, Note_off_c, 9, 36, 127
8, 263040, Note_on_c, 9, 46, 95
8, 263040, Note_on_c, 9, 36, 127
8, 263520, Note_off_c, 9, 46, 95
8, 263520, Note_off_c, 9, 36, 127
8, 263520, Note_on_c, 9, 46, 95
8, 263520, Note_on_c, 9, 36, 127
8, 264000, Note_off_c, 9, 46, 95
8, 264000, Note_off_c, 9, 36, 127
8, 264000, Note_on_c, 9, 46, 95
8, 264000, Note_on_c, 9, 38, 95
8, 264480, Note_off_c, 9, 46, 95
8, 264480, Note_off_c, 9, 38, 95
8, 264480, Note_on_c, 9, 46, 95
8, 264960, Note_off_c, 9, 46, 95
8, 264960, Note_on_c, 9, 46, 95
8, 264960, Note_on_c, 9, 36, 95
8, 265440, Note_off_c, 9, 46, 95
8, 265440, Note_off_c, 9, 36, 95
8, 265440, Note_on_c, 9, 46, 95
8, 265920, Note_off_c, 9, 46, 95
8, 265920, Note_on_c, 9, 46, 95
8, 265920, Note_on_c, 9, 38, 95
8, 266400, Note_off_c, 9, 46, 95
8, 266400, Note_off_c, 9, 38, 95
8, 266400, Note_on_c, 9, 46, 95
8, 266640, Note_on_c, 9, 36, 127
8, 266880, Note_off_c, 9, 46, 95
8, 266880, Note_off_c, 9, 36, 127
8, 266880, Note_on_c, 9, 46, 95
8, 266880, Note_on_c, 9, 36, 127
8, 267360, Note_off_c, 9, 46, 95
8, 267360, Note_off_c, 9, 36, 127
8, 267360, Note_on_c, 9, 46, 95
8, 267360, Note_on_c, 9, 36, 127
8, 267840, Note_off_c, 9, 46, 95
8, 267840, Note_off_c, 9, 36, 127
8, 267840, Note_on_c, 9, 46, 95
8, 267840, Note_on_c, 9, 38, 95
8, 268320, Note_off_c, 9, 46, 95
8, 268320, Note_off_c, 9, 38, 95
8, 268320, Note_on_c, 9, 46, 95
8, 268800, Note_off_c, 9, 46, 95
8, 268800, Note_on_c, 9, 46, 95
8, 268800, Note_on_c, 9, 36, 95
8, 269280, Note_off_c, 9, 46, 95
8, 269280, Note_off_c, 9, 36, 95
8, 269280, Note_on_c, 9, 46, 95
8, 269760, Note_off_c, 9, 46, 95
8, 269760, Note_on_c, 9, 46, 95
8, 269760, Note_on_c, 9, 38, 95
8, 270240, Note_off_c, 9, 46, 95
8, 270240, Note_off_c, 9, 38, 95
8, 270240, Note_on_c, 9, 46, 95
8, 270480, Note_on_c, 9, 36, 127
8, 270720, Note_off_c, 9, 46, 95
8, 270720, Note_off_c, 9, 36, 127
8, 270720, Note_on_c, 9, 46, 95
8, 270720, Note_on_c, 9, 36, 127
8, 271200, Note_off_c, 9, 46, 95
8, 271200, Note_off_c, 9, 36, 127
8, 271200, Note_on_c, 9, 46, 95
8, 271200, Note_on_c, 9, 36, 127
8, 271680, Note_off_c, 9, 46, 95
8, 271680, Note_off_c, 9, 36, 127
8, 271680, Note_on_c, 9, 46, 95
8, 271680, Note_on_c, 9, 38, 95
8, 272160, Note_off_c, 9, 46, 95
8, 272160, Note_off_c, 9, 38, 95
8, 272160, Note_on_c, 9, 46, 95
8, 272400, Note_on_c, 9, 38, 95
8, 272640, Note_off_c, 9, 46, 95
8, 272640, Note_off_c, 9, 38, 95
8, 272640, Note_on_c, 9, 46, 95
8, 272640, Note_on_c, 9, 36, 127
8, 273120, Note_off_c, 9, 46, 95
8, 273120, Note_off_c, 9, 36, 127
8, 273120, Note_on_c, 9, 46, 95
8, 273360, Note_on_c, 9, 38, 95
8, 273600, Note_off_c, 9, 46, 95
8, 273600, Note_off_c, 9, 38, 95
8, 273600, Note_on_c, 9, 38, 95
8, 274080, Note_off_c, 9, 38, 95
8, 274080, Note_on_c, 9, 47, 95
8, 274080, Note_on_c, 9, 36, 127
8, 274560, Note_off_c, 9, 47, 95
8, 274560, Note_off_c, 9, 36, 127
8, 274560, Note_on_c, 9, 38, 95
8, 274800, Note_off_c, 9, 38, 95
8, 274800, Note_on_c, 9, 38, 95
8, 275040, Note_off_c, 9, 38, 95
8, 275040, Note_on_c, 9, 47, 95
8, 275040, Note_on_c, 9, 36, 127
8, 275520, Note_off_c, 9, 47, 95
8, 275520, Note_off_c, 9, 36, 127
8, 275520, Note_on_c, 9, 38, 95
8, 275760, Note_off_c, 9, 38, 95
8, 275760, Note_on_c, 9, 38, 95
8, 276000, Note_off_c, 9, 38, 95
8, 276000, Note_on_c, 9, 47, 95
8, 276000, Note_on_c, 9, 36, 127
8, 276480, Note_off_c, 9, 47, 95
8, 276480, Note_off_c, 9, 36, 127
8, 276480, Note_on_c, 9, 57, 95
8, 276480, Note_on_c, 9, 36, 95
8, 276960, Note_off_c, 9, 57, 95
8, 276960, Note_off_c, 9, 36, 95
8, 276960, Note_on_c, 9, 46, 95
8, 277440, Note_off_c, 9, 46, 95
8, 277440, Note_on_c, 9, 46, 95
8, 277440, Note_on_c, 9, 38, 95
8, 277920, Note_off_c, 9, 46, 95
8, 277920, Note_off_c, 9, 38, 95
8, 277920, Note_on_c, 9, 46, 95
8, 278160, Note_on_c, 9, 36, 127
8, 278400, Note_off_c, 9, 46, 95
8, 278400, Note_off_c, 9, 36, 127
8, 278400, Note_on_c, 9, 46, 95
8, 278400, Note_on_c, 9, 36, 127
8, 278880, Note_off_c, 9, 46, 95
8, 278880, Note_off_c, 9, 36, 127
8, 278880, Note_on_c, 9, 46, 95
8, 278880, Note_on_c, 9, 36, 127
8, 279360, Note_off_c, 9, 46, 95
8, 279360, Note_off_c, 9, 36, 127
8, 279360, Note_on_c, 9, 46, 95
8, 279360, Note_on_c, 9, 38, 95
8, 279840, Note_off_c, 9, 46, 95
8, 279840, Note_off_c, 9, 38, 95
8, 279840, Note_on_c, 9, 46, 95
8, 280320, Note_off_c, 9, 46, 95
8, 280320, Note_on_c, 9, 46, 95
8, 280320, Note_on_c, 9, 36, 95
8, 280800, Note_off_c, 9, 46, 95
8, 280800, Note_off_c, 9, 36, 95
8, 280800, Note_on_c, 9, 46, 95
8, 281280, Note_off_c, 9, 46, 95
8, 281280, Note_on_c, 9, 46, 95
8, 281280, Note_on_c, 9, 38, 95
8, 281760, Note_off_c, 9, 46, 95
8, 281760, Note_off_c, 9, 38, 95
8, 281760, Note_on_c, 9, 46, 95
8, 282000, Note_on_c, 9, 36, 127
8, 282240, Note_off_c, 9, 46, 95
8, 282240, Note_off_c, 9, 36, 127
8, 282240, Note_on_c, 9, 46, 95
8, 282240, Note_on_c, 9, 36, 127
8, 282720, Note_off_c, 9, 46, 95
8, 282720, Note_off_c, 9, 36, 127
8, 282720, Note_on_c, 9, 46, 95
8, 282720, Note_on_c, 9, 36, 127
8, 283200, Note_off_c, 9, 46, 95
8, 283200, Note_off_c, 9, 36, 127
8, 283200, Note_on_c, 9, 46, 95
8, 283200, Note_on_c, 9, 38, 95
8, 283680, Note_off_c, 9, 46, 95
8, 283680, Note_off_c, 9, 38, 95
8, 283680, Note_on_c, 9, 46, 95
8, 283920, Note_on_c, 9, 38, 95
8, 284160, Note_off_c, 9, 46, 95
8, 284160, Note_off_c, 9, 38, 95
8, 284160, Note_on_c, 9, 57, 95
8, 284160, Note_on_c, 9, 36, 95
8, 284640, Note_off_c, 9, 57, 95
8, 284640, Note_off_c, 9, 36, 95
8, 284640, Note_on_c, 9, 46, 95
8, 285120, Note_off_c, 9, 46, 95
8, 285120, Note_on_c, 9, 46, 95
8, 285120, Note_on_c, 9, 38, 95
8, 285600, Note_off_c, 9, 46, 95
8, 285600, Note_off_c, 9, 38, 95
8, 285600, Note_on_c, 9, 46, 95
8, 285840, Note_on_c, 9, 36, 127
8, 286080, Note_off_c, 9, 46, 95
8, 286080, Note_off_c, 9, 36, 127
8, 286080, Note_on_c, 9, 46, 95
8, 286080, Note_on_c, 9, 36, 127
8, 286560, Note_off_c, 9, 46, 95
8, 286560, Note_off_c, 9, 36, 127
8, 286560, Note_on_c, 9, 46, 95
8, 286560, Note_on_c, 9, 36, 127
8, 287040, Note_off_c, 9, 46, 95
8, 287040, Note_off_c, 9, 36, 127
8, 287040, Note_on_c, 9, 46, 95
8, 287040, Note_on_c, 9, 38, 95
8, 287520, Note_off_c, 9, 46, 95
8, 287520, Note_off_c, 9, 38, 95
8, 287520, Note_on_c, 9, 46, 95
8, 288000, Note_off_c, 9, 46, 95
8, 288000, Note_on_c, 9, 46, 95
8, 288000, Note_on_c, 9, 36, 127
8, 288480, Note_off_c, 9, 46, 95
8, 288480, Note_off_c, 9, 36, 127
8, 288480, Note_on_c, 9, 46, 95
8, 288960, Note_off_c, 9, 46, 95
8, 288960, Note_on_c, 9, 46, 95
8, 288960, Note_on_c, 9, 38, 95
8, 289440, Note_off_c, 9, 46, 95
8, 289440, Note_off_c, 9, 38, 95
8, 289440, Note_on_c, 9, 46, 95
8, 289680, Note_on_c, 9, 38, 95
8, 289920, Note_off_c, 9, 46, 95
8, 289920, Note_off_c, 9, 38, 95
8, 289920, Note_on_c, 9, 38, 95
8, 289920, Note_on_c, 9, 36, 127
8, 290160, Note_off_c, 9, 38, 95
8, 290160, Note_off_c, 9, 36, 127
8, 290160, Note_on_c, 9, 47, 95
8, 290400, Note_off_c, 9, 47, 95
8, 290400, Note_on_c, 9, 38, 95
8, 290640, Note_off_c, 9, 38, 95
8, 290640, Note_on_c, 9, 38, 95
8, 290880, Note_off_c, 9, 38, 95
8, 290880, Note_on_c, 9, 38, 95
8, 290880, Note_on_c, 9, 36, 127
8, 291120, Note_off_c, 9, 38, 95
8, 291120, Note_off_c, 9, 36, 127
8, 291120, Note_on_c, 9, 47, 95
8, 291360, Note_off_c, 9, 47, 95
8, 291360, Note_on_c, 9, 45, 95
8, 291600, Note_off_c, 9, 45, 95
8, 291600, Note_on_c, 9, 43, 95
8, 291840, Note_off_c, 9, 43, 95
8, 291840, Note_on_c, 9, 57, 95
8, 291840, Note_on_c, 9, 36, 95
8, 292320, Note_off_c, 9, 57, 95
8, 292320, Note_off_c, 9, 36, 95
8, 292320, Note_on_c, 9, 46, 95
8, 292800, Note_off_c, 9, 46, 95
8, 292800, Note_on_c, 9, 46, 95
8, 292800, Note_on_c, 9, 38, 95
8, 293280, Note_off_c, 9, 46, 95
8, 293280, Note_off_c, 9, 38, 95
8, 293280, Note_on_c, 9, 46, 95
8, 293520, Note_on_c, 9, 36, 127
8, 293760, Note_off_c, 9, 46, 95
8, 293760, Note_off_c, 9, 36, 127
8, 293760, Note_on_c, 9, 46, 95
8, 293760, Note_on_c, 9, 36, 127
8, 294240, Note_off_c, 9, 46, 95
8, 294240, Note_off_c, 9, 36, 127
8, 294240, Note_on_c, 9, 46, 95
8, 294240, Note_on_c, 9, 36, 127
8, 294720, Note_off_c, 9, 46, 95
8, 294720, Note_off_c, 9, 36, 127
8, 294720, Note_on_c, 9, 46, 95
8, 294720, Note_on_c, 9, 38, 95
8, 295200, Note_off_c, 9, 46, 95
8, 295200, Note_off_c, 9, 38, 95
8, 295200, Note_on_c, 9, 46, 95
8, 295680, Note_off_c, 9, 46, 95
8, 295680, Note_on_c, 9, 46, 95
8, 295680, Note_on_c, 9, 36, 95
8, 296160, Note_off_c, 9, 46, 95
8, 296160, Note_off_c, 9, 36, 95
8, 296160, Note_on_c, 9, 46, 95
8, 296640, Note_off_c, 9, 46, 95
8, 296640, Note_on_c, 9, 46, 95
8, 296640, Note_on_c, 9, 38, 95
8, 297120, Note_off_c, 9, 46, 95
8, 297120, Note_off_c, 9, 38, 95
8, 297120, Note_on_c, 9, 46, 95
8, 297360, Note_on_c, 9, 36, 127
8, 297600, Note_off_c, 9, 46, 95
8, 297600, Note_off_c, 9, 36, 127
8, 297600, Note_on_c, 9, 46, 95
8, 297600, Note_on_c, 9, 36, 127
8, 298080, Note_off_c, 9, 46, 95
8, 298080, Note_off_c, 9, 36, 127
8, 298080, Note_on_c, 9, 46, 95
8, 298080, Note_on_c, 9, 36, 127
8, 298560, Note_off_c, 9, 46, 95
8, 298560, Note_off_c, 9, 36, 127
8, 298560, Note_on_c, 9, 46, 95
8, 298560, Note_on_c, 9, 38, 95
8, 299040, Note_off_c, 9, 46, 95
8, 299040, Note_off_c, 9, 38, 95
8, 299040, Note_on_c, 9, 46, 95
8, 299520, Note_off_c, 9, 46, 95
8, 299520, Note_on_c, 9, 46, 95
8, 299520, Note_on_c, 9, 36, 95
8, 300000, Note_off_c, 9, 46, 95
8, 300000, Note_off_c, 9, 36, 95
8, 300000, Note_on_c, 9, 46, 95
8, 300480, Note_off_c, 9, 46, 95
8, 300480, Note_on_c, 9, 46, 95
8, 300480, Note_on_c, 9, 38, 95
8, 300960, Note_off_c, 9, 46, 95
8, 300960, Note_off_c, 9, 38, 95
8, 300960, Note_on_c, 9, 46, 95
8, 301200, Note_on_c, 9, 36, 127
8, 301440, Note_off_c, 9, 46, 95
8, 301440, Note_off_c, 9, 36, 127
8, 301440, Note_on_c, 9, 46, 95
8, 301440, Note_on_c, 9, 36, 127
8, 301920, Note_off_c, 9, 46, 95
8, 301920, Note_off_c, 9, 36, 127
8, 301920, Note_on_c, 9, 46, 95
8, 301920, Note_on_c, 9, 36, 127
8, 302400, Note_off_c, 9, 46, 95
8, 302400, Note_off_c, 9, 36, 127
8, 302400, Note_on_c, 9, 46, 95
8, 302400, Note_on_c, 9, 38, 95
8, 302880, Note_off_c, 9, 46, 95
8, 302880, Note_off_c, 9, 38, 95
8, 302880, Note_on_c, 9, 46, 95
8, 303120, Note_on_c, 9, 38, 95
8, 303360, Note_off_c, 9, 46, 95
8, 303360, Note_off_c, 9, 38, 95
8, 303360, Note_on_c, 9, 46, 95
8, 303360, Note_on_c, 9, 36, 127
8, 303840, Note_off_c, 9, 46, 95
8, 303840, Note_off_c, 9, 36, 127
8, 303840, Note_on_c, 9, 38, 95
8, 304320, Note_off_c, 9, 38, 95
8, 304320, Note_on_c, 9, 47, 95
8, 304560, Note_off_c, 9, 47, 95
8, 304560, Note_on_c, 9, 45, 95
8, 304800, Note_off_c, 9, 45, 95
8, 304800, Note_on_c, 9, 43, 95
8, 305280, Note_off_c, 9, 43, 95
8, 305280, Note_on_c, 9, 41, 95
8, 305760, Note_off_c, 9, 41, 95
8, 305760, Note_on_c, 9, 38, 95
8, 306000, Note_off_c, 9, 38, 95
8, 306000, Note_on_c, 9, 47, 95
8, 306240, Note_off_c, 9, 47, 95
8, 306240, Note_on_c, 9, 45, 95
8, 306480, Note_off_c, 9, 45, 95
8, 306480, Note_on_c, 9, 43, 95
8, 306720, Note_off_c, 9, 43, 95
8, 306720, Note_on_c, 9, 41, 95
8, 307200, Note_off_c, 9, 41, 95
8, 307200, Note_on_c, 9, 57, 95
8, 307200, Note_on_c, 9, 36, 127
8, 308160, Note_off_c, 9, 57, 95
8, 308160, Note_off_c, 9, 36, 127
8, 308160, Note_on_c, 9, 44, 47
8, 309120, Note_off_c, 9, 44, 47
8, 310080, Note_on_c, 9, 44, 47
8, 311040, Note_off_c, 9, 44, 47
8, 312000, Note_on_c, 9, 44, 47
8, 312960, Note_off_c, 9, 44, 47
8, 313920, Note_on_c, 9, 44, 47
8, 314880, Note_off_c, 9, 44, 47
8, 315840, Note_on_c, 9, 44, 47
8, 316800, Note_off_c, 9, 44, 47
8, 317760, Note_on_c, 9, 44, 47
8, 318720, Note_off_c, 9, 44, 47
8, 319680, Note_on_c, 9, 44, 47
8, 320640, Note_off_c, 9, 44, 47
8, 321600, Note_on_c, 9, 44, 47
8, 322560, Note_off_c, 9, 44, 47
8, 323520, Note_on_c, 9, 44, 47
8, 324480, Note_off_c, 9, 44, 47
8, 325440, Note_on_c, 9, 44, 47
8, 326400, Note_off_c, 9, 44, 47
8, 327360, Note_on_c, 9, 44, 47
8, 328320, Note_off_c, 9, 44, 47
8, 329280, Note_on_c, 9, 44, 47
8, 330240, Note_off_c, 9, 44, 47
8, 331200, Note_on_c, 9, 44, 47
8, 332160, Note_off_c, 9, 44, 47
8, 333120, Note_on_c, 9, 44, 47
8, 334080, Note_off_c, 9, 44, 47
8, 335040, Note_on_c, 9, 46, 47
8, 335520, Note_off_c, 9, 46, 47
8, 335520, Note_on_c, 9, 57, 95
8, 335520, Note_on_c, 9, 36, 127
8, 336480, Note_off_c, 9, 57, 95
8, 336480, Note_off_c, 9, 36, 127
8, 336480, Note_on_c, 9, 49, 95
8, 336480, Note_on_c, 9, 36, 127
8, 337440, Note_off_c, 9, 49, 95
8, 337440, Note_off_c, 9, 36, 127
8, 337440, Note_on_c, 9, 57, 95
8, 337440, Note_on_c, 9, 36, 127
8, 337920, Note_off_c, 9, 57, 95
8, 337920, Note_off_c, 9, 36, 127
8, 337920, Note_on_c, 9, 49, 95
8, 337920, Note_on_c, 9, 36, 127
8, 338880, Note_off_c, 9, 49, 95
8, 338880, Note_off_c, 9, 36, 127
8, 338880, Note_on_c, 9, 46, 95
8, 339840, Note_off_c, 9, 46, 95
8, 340800, Note_on_c, 9, 46, 95
8, 341760, Note_off_c, 9, 46, 95
8, 342720, Note_on_c, 9, 46, 95
8, 343680, Note_off_c, 9, 46, 95
8, 344640, Note_on_c, 9, 46, 95
8, 345600, Note_off_c, 9, 46, 95
8, 346560, Note_on_c, 9, 46, 95
8, 347520, Note_off_c, 9, 46, 95
8, 348480, Note_on_c, 9, 46, 95
8, 349440, Note_off_c, 9, 46, 95
8, 350400, Note_on_c, 9, 46, 95
8, 351360, Note_off_c, 9, 46, 95
8, 352320, Note_on_c, 9, 46, 95
8, 353280, Note_off_c, 9, 46, 95
8, 354240, Note_on_c, 9, 46, 95
8, 355200, Note_off_c, 9, 46, 95
8, 356160, Note_on_c, 9, 46, 95
8, 357120, Note_off_c, 9, 46, 95
8, 358080, Note_on_c, 9, 46, 95
8, 359040, Note_off_c, 9, 46, 95
8, 360000, Note_on_c, 9, 46, 95
8, 360960, Note_off_c, 9, 46, 95
8, 360960, Note_on_c, 9, 46, 47
8, 361200, Note_off_c, 9, 46, 47
8, 361200, Note_on_c, 9, 46, 47
8, 361440, Note_off_c, 9, 46, 47
8, 361440, Note_on_c, 9, 46, 47
8, 361680, Note_off_c, 9, 46, 47
8, 361680, Note_on_c, 9, 46, 47
8, 361920, Note_off_c, 9, 46, 47
8, 361920, Note_on_c, 9, 46, 95
8, 362160, Note_off_c, 9, 46, 95
8, 362160, Note_on_c, 9, 46, 47
8, 362400, Note_off_c, 9, 46, 47
8, 362400, Note_on_c, 9, 46, 47
8, 362640, Note_off_c, 9, 46, 47
8, 362640, Note_on_c, 9, 46, 47
8, 362880, Note_off_c, 9, 46, 47
8, 362880, Note_on_c, 9, 46, 47
8, 363120, Note_off_c, 9, 46, 47
8, 363120, Note_on_c, 9, 46, 47
8, 363360, Note_off_c, 9, 46, 47
8, 363360, Note_on_c, 9, 46, 47
8, 363600, Note_off_c, 9, 46, 47
8, 363600, Note_on_c, 9, 46, 47
8, 363840, Note_off_c, 9, 46, 47
8, 363840, Note_on_c, 9, 46, 95
8, 364080, Note_off_c, 9, 46, 95
8, 364080, Note_on_c, 9, 46, 47
8, 364320, Note_off_c, 9, 46, 47
8, 364320, Note_on_c, 9, 46, 47
8, 364560, Note_off_c, 9, 46, 47
8, 364560, Note_on_c, 9, 46, 47
8, 364800, Note_off_c, 9, 46, 47
8, 364800, Note_on_c, 9, 46, 95
8, 365520, Note_off_c, 9, 46, 95
8, 365520, Note_on_c, 9, 38, 95
8, 365760, Note_off_c, 9, 38, 95
8, 365760, Note_on_c, 9, 38, 95
8, 366000, Note_off_c, 9, 38, 95
8, 366000, Note_on_c, 9, 47, 95
8, 366480, Note_off_c, 9, 47, 95
8, 366480, Note_on_c, 9, 38, 95
8, 366720, Note_off_c, 9, 38, 95
8, 366720, Note_on_c, 9, 38, 95
8, 366720, Note_on_c, 9, 36, 127
8, 366960, Note_off_c, 9, 38, 95
8, 366960, Note_off_c, 9, 36, 127
8, 366960, Note_on_c, 9, 47, 95
8, 367440, Note_off_c, 9, 47, 95
8, 367440, Note_on_c, 9, 38, 95
8, 367680, Note_off_c, 9, 38, 95
8, 367680, Note_on_c, 9, 38, 95
8, 367680, Note_on_c, 9, 36, 127
8, 367920, Note_off_c, 9, 38, 95
8, 367920, Note_off_c, 9, 36, 127
8, 367920, Note_on_c, 9, 47, 95
8, 368160, Note_off_c, 9, 47, 95
8, 368160, Note_on_c, 9, 45, 95
8, 368400, Note_off_c, 9, 45, 95
8, 368400, Note_on_c, 9, 43, 95
8, 368640, Note_off_c, 9, 43, 95
8, 368640, Note_on_c, 9, 57, 95
8, 368640, Note_on_c, 9, 36, 95
8, 369120, Note_off_c, 9, 57, 95
8, 369120, Note_off_c, 9, 36, 95
8, 369120, Note_on_c, 9, 46, 95
8, 369600, Note_off_c, 9, 46, 95
8, 369600, Note_on_c, 9, 46, 95
8, 369600, Note_on_c, 9, 38, 95
8, 370080, Note_off_c, 9, 46, 95
8, 370080, Note_off_c, 9, 38, 95
8, 370080, Note_on_c, 9, 46, 95
8, 370320, Note_on_c, 9, 36, 127
8, 370560, Note_off_c, 9, 46, 95
8, 370560, Note_off_c, 9, 36, 127
8, 370560, Note_on_c, 9, 46, 95
8, 370560, Note_on_c, 9, 36, 127
8, 371040, Note_off_c, 9, 46, 95
8, 371040, Note_off_c, 9, 36, 127
8, 371040, Note_on_c, 9, 46, 95
8, 371040, Note_on_c, 9, 36, 127
8, 371520, Note_off_c, 9, 46, 95
8, 371520, Note_off_c, 9, 36, 127
8, 371520, Note_on_c, 9, 46, 95
8, 371520, Note_on_c, 9, 38, 95
8, 372000, Note_off_c, 9, 46, 95
8, 372000, Note_off_c, 9, 38, 95
8, 372000, Note_on_c, 9, 46, 95
8, 372480, Note_off_c, 9, 46, 95
8, 372480, Note_on_c, 9, 46, 95
8, 372480, Note_on_c, 9, 36, 95
8, 372960, Note_off_c, 9, 46, 95
8, 372960, Note_off_c, 9, 36, 95
8, 372960, Note_on_c, 9, 46, 95
8, 373440, Note_off_c, 9, 46, 95
8, 373440, Note_on_c, 9, 46, 95
8, 373440, Note_on_c, 9, 38, 95
8, 373920, Note_off_c, 9, 46, 95
8, 373920, Note_off_c, 9, 38, 95
8, 373920, Note_on_c, 9, 46, 95
8, 374160, Note_on_c, 9, 36, 127
8, 374400, Note_off_c, 9, 46, 95
8, 374400, Note_off_c, 9, 36, 127
8, 374400, Note_on_c, 9, 46, 95
8, 374400, Note_on_c, 9, 36, 127
8, 374880, Note_off_c, 9, 46, 95
8, 374880, Note_off_c, 9, 36, 127
8, 374880, Note_on_c, 9, 46, 95
8, 374880, Note_on_c, 9, 36, 127
8, 375360, Note_off_c, 9, 46, 95
8, 375360, Note_off_c, 9, 36, 127
8, 375360, Note_on_c, 9, 46, 95
8, 375360, Note_on_c, 9, 38, 95
8, 375840, Note_off_c, 9, 46, 95
8, 375840, Note_off_c, 9, 38, 95
8, 375840, Note_on_c, 9, 46, 95
8, 376320, Note_off_c, 9, 46, 95
8, 376320, Note_on_c, 9, 46, 95
8, 376320, Note_on_c, 9, 36, 95
8, 376800, Note_off_c, 9, 46, 95
8, 376800, Note_off_c, 9, 36, 95
8, 376800, Note_on_c, 9, 46, 95
8, 377280, Note_off_c, 9, 46, 95
8, 377280, Note_on_c, 9, 46, 95
8, 377280, Note_on_c, 9, 38, 95
8, 377760, Note_off_c, 9, 46, 95
8, 377760, Note_off_c, 9, 38, 95
8, 377760, Note_on_c, 9, 46, 95
8, 378000, Note_on_c, 9, 36, 127
8, 378240, Note_off_c, 9, 46, 95
8, 378240, Note_off_c, 9, 36, 127
8, 378240, Note_on_c, 9, 46, 95
8, 378240, Note_on_c, 9, 36, 127
8, 378720, Note_off_c, 9, 46, 95
8, 378720, Note_off_c, 9, 36, 127
8, 378720, Note_on_c, 9, 46, 95
8, 378720, Note_on_c, 9, 36, 127
8, 379200, Note_off_c, 9, 46, 95
8, 379200, Note_off_c, 9, 36, 127
8, 379200, Note_on_c, 9, 46, 95
8, 379200, Note_on_c, 9, 38, 95
8, 379680, Note_off_c, 9, 46, 95
8, 379680, Note_off_c, 9, 38, 95
8, 379680, Note_on_c, 9, 46, 95
8, 380160, Note_off_c, 9, 46, 95
8, 380160, Note_on_c, 9, 46, 95
8, 380160, Note_on_c, 9, 36, 95
8, 380640, Note_off_c, 9, 46, 95
8, 380640, Note_off_c, 9, 36, 95
8, 380640, Note_on_c, 9, 46, 95
8, 381120, Note_off_c, 9, 46, 95
8, 381120, Note_on_c, 9, 46, 95
8, 381120, Note_on_c, 9, 38, 95
8, 381600, Note_off_c, 9, 46, 95
8, 381600, Note_off_c, 9, 38, 95
8, 381600, Note_on_c, 9, 46, 95
8, 381840, Note_on_c, 9, 36, 127
8, 382080, Note_off_c, 9, 46, 95
8, 382080, Note_off_c, 9, 36, 127
8, 382080, Note_on_c, 9, 46, 95
8, 382080, Note_on_c, 9, 36, 127
8, 382560, Note_off_c, 9, 46, 95
8, 382560, Note_off_c, 9, 36, 127
8, 382560, Note_on_c, 9, 46, 95
8, 382560, Note_on_c, 9, 36, 127
8, 383040, Note_off_c, 9, 46, 95
8, 383040, Note_off_c, 9, 36, 127
8, 383040, Note_on_c, 9, 46, 95
8, 383040, Note_on_c, 9, 38, 95
8, 383520, Note_off_c, 9, 46, 95
8, 383520, Note_off_c, 9, 38, 95
8, 383520, Note_on_c, 9, 46, 95
8, 384000, Note_off_c, 9, 46, 95
8, 384000, Note_on_c, 9, 46, 95
8, 384000, Note_on_c, 9, 36, 95
8, 384480, Note_off_c, 9, 46, 95
8, 384480, Note_off_c, 9, 36, 95
8, 384480, Note_on_c, 9, 46, 95
8, 384960, Note_off_c, 9, 46, 95
8, 384960, Note_on_c, 9, 46, 95
8, 384960, Note_on_c, 9, 38, 95
8, 385440, Note_off_c, 9, 46, 95
8, 385440, Note_off_c, 9, 38, 95
8, 385440, Note_on_c, 9, 46, 95
8, 385680, Note_on_c, 9, 36, 127
8, 385920, Note_off_c, 9, 46, 95
8, 385920, Note_off_c, 9, 36, 127
8, 385920, Note_on_c, 9, 46, 95
8, 385920, Note_on_c, 9, 36, 127
8, 386400, Note_off_c, 9, 46, 95
8, 386400, Note_off_c, 9, 36, 127
8, 386400, Note_on_c, 9, 46, 95
8, 386400, Note_on_c, 9, 36, 127
8, 386880, Note_off_c, 9, 46, 95
8, 386880, Note_off_c, 9, 36, 127
8, 386880, Note_on_c, 9, 46, 95
8, 386880, Note_on_c, 9, 38, 95
8, 387360, Note_off_c, 9, 46, 95
8, 387360, Note_off_c, 9, 38, 95
8, 387360, Note_on_c, 9, 46, 95
8, 387840, Note_off_c, 9, 46, 95
8, 387840, Note_on_c, 9, 46, 95
8, 387840, Note_on_c, 9, 36, 95
8, 388320, Note_off_c, 9, 46, 95
8, 388320, Note_off_c, 9, 36, 95
8, 388320, Note_on_c, 9, 46, 95
8, 388800, Note_off_c, 9, 46, 95
8, 388800, Note_on_c, 9, 46, 95
8, 388800, Note_on_c, 9, 38, 95
8, 389280, Note_off_c, 9, 46, 95
8, 389280, Note_off_c, 9, 38, 95
8, 389280, Note_on_c, 9, 46, 95
8, 389520, Note_on_c, 9, 36, 127
8, 389760, Note_off_c, 9, 46, 95
8, 389760, Note_off_c, 9, 36, 127
8, 389760, Note_on_c, 9, 46, 95
8, 389760, Note_on_c, 9, 36, 127
8, 390240, Note_off_c, 9, 46, 95
8, 390240, Note_off_c, 9, 36, 127
8, 390240, Note_on_c, 9, 46, 95
8, 390240, Note_on_c, 9, 36, 127
8, 390720, Note_off_c, 9, 46, 95
8, 390720, Note_off_c, 9, 36, 127
8, 390720, Note_on_c, 9, 46, 95
8, 390720, Note_on_c, 9, 38, 95
8, 391200, Note_off_c, 9, 46, 95
8, 391200, Note_off_c, 9, 38, 95
8, 391200, Note_on_c, 9, 46, 95
8, 391680, Note_off_c, 9, 46, 95
8, 391680, Note_on_c, 9, 46, 95
8, 391680, Note_on_c, 9, 36, 95
8, 392160, Note_off_c, 9, 46, 95
8, 392160, Note_off_c, 9, 36, 95
8, 392160, Note_on_c, 9, 46, 95
8, 392640, Note_off_c, 9, 46, 95
8, 392640, Note_on_c, 9, 46, 95
8, 392640, Note_on_c, 9, 38, 95
8, 393120, Note_off_c, 9, 46, 95
8, 393120, Note_off_c, 9, 38, 95
8, 393120, Note_on_c, 9, 46, 95
8, 393360, Note_on_c, 9, 36, 127
8, 393600, Note_off_c, 9, 46, 95
8, 393600, Note_off_c, 9, 36, 127
8, 393600, Note_on_c, 9, 46, 95
8, 393600, Note_on_c, 9, 36, 127
8, 394080, Note_off_c, 9, 46, 95
8, 394080, Note_off_c, 9, 36, 127
8, 394080, Note_on_c, 9, 46, 95
8, 394080, Note_on_c, 9, 36, 127
8, 394560, Note_off_c, 9, 46, 95
8, 394560, Note_off_c, 9, 36, 127
8, 394560, Note_on_c, 9, 46, 95
8, 394560, Note_on_c, 9, 38, 95
8, 395040, Note_off_c, 9, 46, 95
8, 395040, Note_off_c, 9, 38, 95
8, 395040, Note_on_c, 9, 46, 95
8, 395520, Note_off_c, 9, 46, 95
8, 395520, Note_on_c, 9, 46, 95
8, 395520, Note_on_c, 9, 36, 127
8, 396000, Note_off_c, 9, 46, 95
8, 396000, Note_off_c, 9, 36, 127
8, 396000, Note_on_c, 9, 46, 95
8, 396480, Note_off_c, 9, 46, 95
8, 396480, Note_on_c, 9, 46, 95
8, 396480, Note_on_c, 9, 38, 95
8, 396960, Note_off_c, 9, 46, 95
8, 396960, Note_off_c, 9, 38, 95
8, 396960, Note_on_c, 9, 46, 95
8, 397200, Note_on_c, 9, 38, 95
8, 397440, Note_off_c, 9, 46, 95
8, 397440, Note_off_c, 9, 38, 95
8, 397440, Note_on_c, 9, 38, 95
8, 397440, Note_on_c, 9, 36, 127
8, 397680, Note_off_c, 9, 38, 95
8, 397680, Note_off_c, 9, 36, 127
8, 397680, Note_on_c, 9, 47, 95
8, 397920, Note_off_c, 9, 47, 95
8, 397920, Note_on_c, 9, 38, 95
8, 398160, Note_off_c, 9, 38, 95
8, 398160, Note_on_c, 9, 38, 95
8, 398400, Note_off_c, 9, 38, 95
8, 398400, Note_on_c, 9, 38, 95
8, 398400, Note_on_c, 9, 36, 127
8, 398640, Note_off_c, 9, 38, 95
8, 398640, Note_off_c, 9, 36, 127
8, 398640, Note_on_c, 9, 47, 95
8, 398880, Note_off_c, 9, 47, 95
8, 398880, Note_on_c, 9, 45, 95
8, 399120, Note_off_c, 9, 45, 95
8, 399120, Note_on_c, 9, 43, 95
8, 399360, Note_off_c, 9, 43, 95
8, 399360, Note_on_c, 9, 57, 95
8, 399360, Note_on_c, 9, 36, 95
8, 399840, Note_off_c, 9, 57, 95
8, 399840, Note_off_c, 9, 36, 95
8, 399840, Note_on_c, 9, 46, 95
8, 400320, Note_off_c, 9, 46, 95
8, 400320, Note_on_c, 9, 49, 95
8, 400320, Note_on_c, 9, 38, 95
8, 400800, Note_off_c, 9, 49, 95
8, 400800, Note_off_c, 9, 38, 95
8, 400800, Note_on_c, 9, 46, 95
8, 401040, Note_on_c, 9, 36, 127
8, 401280, Note_off_c, 9, 46, 95
8, 401280, Note_off_c, 9, 36, 127
8, 401280, Note_on_c, 9, 46, 95
8, 401280, Note_on_c, 9, 36, 127
8, 401760, Note_off_c, 9, 46, 95
8, 401760, Note_off_c, 9, 36, 127
8, 401760, Note_on_c, 9, 46, 95
8, 401760, Note_on_c, 9, 36, 127
8, 402240, Note_off_c, 9, 46, 95
8, 402240, Note_off_c, 9, 36, 127
8, 402240, Note_on_c, 9, 46, 95
8, 402240, Note_on_c, 9, 38, 95
8, 402720, Note_off_c, 9, 46, 95
8, 402720, Note_off_c, 9, 38, 95
8, 402720, Note_on_c, 9, 46, 95
8, 403200, Note_off_c, 9, 46, 95
8, 403200, Note_on_c, 9, 46, 95
8, 403200, Note_on_c, 9, 36, 95
8, 403680, Note_off_c, 9, 46, 95
8, 403680, Note_off_c, 9, 36, 95
8, 403680, Note_on_c, 9, 46, 95
8, 404160, Note_off_c, 9, 46, 95
8, 404160, Note_on_c, 9, 46, 95
8, 404160, Note_on_c, 9, 38, 95
8, 404640, Note_off_c, 9, 46, 95
8, 404640, Note_off_c, 9, 38, 95
8, 404640, Note_on_c, 9, 46, 95
8, 404880, Note_on_c, 9, 36, 127
8, 405120, Note_off_c, 9, 46, 95
8, 405120, Note_off_c, 9, 36, 127
8, 405120, Note_on_c, 9, 46, 95
8, 405120, Note_on_c, 9, 36, 127
8, 405600, Note_off_c, 9, 46, 95
8, 405600, Note_off_c, 9, 36, 127
8, 405600, Note_on_c, 9, 46, 95
8, 405600, Note_on_c, 9, 36, 127
8, 406080, Note_off_c, 9, 46, 95
8, 406080, Note_off_c, 9, 36, 127
8, 406080, Note_on_c, 9, 46, 95
8, 406080, Note_on_c, 9, 38, 95
8, 406560, Note_off_c, 9, 46, 95
8, 406560, Note_off_c, 9, 38, 95
8, 406560, Note_on_c, 9, 46, 95
8, 407040, Note_off_c, 9, 46, 95
8, 407040, Note_on_c, 9, 46, 95
8, 407040, Note_on_c, 9, 36, 95
8, 407520, Note_off_c, 9, 46, 95
8, 407520, Note_off_c, 9, 36, 95
8, 407520, Note_on_c, 9, 46, 95
8, 408000, Note_off_c, 9, 46, 95
8, 408000, Note_on_c, 9, 46, 95
8, 408000, Note_on_c, 9, 38, 95
8, 408480, Note_off_c, 9, 46, 95
8, 408480, Note_off_c, 9, 38, 95
8, 408480, Note_on_c, 9, 46, 95
8, 408720, Note_on_c, 9, 36, 127
8, 408960, Note_off_c, 9, 46, 95
8, 408960, Note_off_c, 9, 36, 127
8, 408960, Note_on_c, 9, 46, 95
8, 408960, Note_on_c, 9, 36, 127
8, 409440, Note_off_c, 9, 46, 95
8, 409440, Note_off_c, 9, 36, 127
8, 409440, Note_on_c, 9, 46, 95
8, 409440, Note_on_c, 9, 36, 127
8, 409920, Note_off_c, 9, 46, 95
8, 409920, Note_off_c, 9, 36, 127
8, 409920, Note_on_c, 9, 46, 95
8, 409920, Note_on_c, 9, 38, 95
8, 410400, Note_off_c, 9, 46, 95
8, 410400, Note_off_c, 9, 38, 95
8, 410400, Note_on_c, 9, 46, 95
8, 410880, Note_off_c, 9, 46, 95
8, 410880, Note_on_c, 9, 46, 95
8, 410880, Note_on_c, 9, 36, 95
8, 411360, Note_off_c, 9, 46, 95
8, 411360, Note_off_c, 9, 36, 95
8, 411360, Note_on_c, 9, 46, 95
8, 411840, Note_off_c, 9, 46, 95
8, 411840, Note_on_c, 9, 46, 95
8, 411840, Note_on_c, 9, 38, 95
8, 412320, Note_off_c, 9, 46, 95
8, 412320, Note_off_c, 9, 38, 95
8, 412320, Note_on_c, 9, 46, 95
8, 412560, Note_on_c, 9, 36, 127
8, 412800, Note_off_c, 9, 46, 95
8, 412800, Note_off_c, 9, 36, 127
8, 412800, Note_on_c, 9, 46, 95
8, 412800, Note_on_c, 9, 36, 127
8, 413280, Note_off_c, 9, 46, 95
8, 413280, Note_off_c, 9, 36, 127
8, 413280, Note_on_c, 9, 46, 95
8, 413280, Note_on_c, 9, 36, 127
8, 413760, Note_off_c, 9, 46, 95
8, 413760, Note_off_c, 9, 36, 127
8, 413760, Note_on_c, 9, 46, 95
8, 413760, Note_on_c, 9, 38, 95
8, 414240, Note_off_c, 9, 46, 95
8, 414240, Note_off_c, 9, 38, 95
8, 414240, Note_on_c, 9, 46, 95
8, 414720, Note_off_c, 9, 46, 95
8, 414720, Note_on_c, 9, 46, 95
8, 414720, Note_on_c, 9, 36, 95
8, 415200, Note_off_c, 9, 46, 95
8, 415200, Note_off_c, 9, 36, 95
8, 415200, Note_on_c, 9, 46, 95
8, 415680, Note_off_c, 9, 46, 95
8, 415680, Note_on_c, 9, 46, 95
8, 415680, Note_on_c, 9, 38, 95
8, 416160, Note_off_c, 9, 46, 95
8, 416160, Note_off_c, 9, 38, 95
8, 416160, Note_on_c, 9, 46, 95
8, 416400, Note_on_c, 9, 36, 127
8, 416640, Note_off_c, 9, 46, 95
8, 416640, Note_off_c, 9, 36, 127
8, 416640, Note_on_c, 9, 46, 95
8, 416640, Note_on_c, 9, 36, 127
8, 417120, Note_off_c, 9, 46, 95
8, 417120, Note_off_c, 9, 36, 127
8, 417120, Note_on_c, 9, 46, 95
8, 417120, Note_on_c, 9, 36, 127
8, 417600, Note_off_c, 9, 46, 95
8, 417600, Note_off_c, 9, 36, 127
8, 417600, Note_on_c, 9, 46, 95
8, 417600, Note_on_c, 9, 38, 95
8, 418080, Note_off_c, 9, 46, 95
8, 418080, Note_off_c, 9, 38, 95
8, 418080, Note_on_c, 9, 46, 95
8, 418560, Note_off_c, 9, 46, 95
8, 418560, Note_on_c, 9, 46, 95
8, 418560, Note_on_c, 9, 36, 95
8, 419040, Note_off_c, 9, 46, 95
8, 419040, Note_off_c, 9, 36, 95
8, 419040, Note_on_c, 9, 46, 95
8, 419520, Note_off_c, 9, 46, 95
8, 419520, Note_on_c, 9, 46, 95
8, 419520, Note_on_c, 9, 38, 95
8, 420000, Note_off_c, 9, 46, 95
8, 420000, Note_off_c, 9, 38, 95
8, 420000, Note_on_c, 9, 46, 95
8, 420240, Note_on_c, 9, 36, 127
8, 420480, Note_off_c, 9, 46, 95
8, 420480, Note_off_c, 9, 36, 127
8, 420480, Note_on_c, 9, 46, 95
8, 420480, Note_on_c, 9, 36, 127
8, 420960, Note_off_c, 9, 46, 95
8, 420960, Note_off_c, 9, 36, 127
8, 420960, Note_on_c, 9, 46, 95
8, 420960, Note_on_c, 9, 36, 127
8, 421440, Note_off_c, 9, 46, 95
8, 421440, Note_off_c, 9, 36, 127
8, 421440, Note_on_c, 9, 46, 95
8, 421440, Note_on_c, 9, 38, 95
8, 421920, Note_off_c, 9, 46, 95
8, 421920, Note_off_c, 9, 38, 95
8, 421920, Note_on_c, 9, 46, 95
8, 422400, Note_off_c, 9, 46, 95
8, 422400, Note_on_c, 9, 46, 95
8, 422400, Note_on_c, 9, 36, 95
8, 422880, Note_off_c, 9, 46, 95
8, 422880, Note_off_c, 9, 36, 95
8, 422880, Note_on_c, 9, 46, 95
8, 423360, Note_off_c, 9, 46, 95
8, 423360, Note_on_c, 9, 46, 95
8, 423360, Note_on_c, 9, 38, 95
8, 423840, Note_off_c, 9, 46, 95
8, 423840, Note_off_c, 9, 38, 95
8, 423840, Note_on_c, 9, 46, 95
8, 424080, Note_on_c, 9, 36, 127
8, 424320, Note_off_c, 9, 46, 95
8, 424320, Note_off_c, 9, 36, 127
8, 424320, Note_on_c, 9, 46, 95
8, 424320, Note_on_c, 9, 36, 127
8, 424800, Note_off_c, 9, 46, 95
8, 424800, Note_off_c, 9, 36, 127
8, 424800, Note_on_c, 9, 46, 95
8, 424800, Note_on_c, 9, 36, 127
8, 425280, Note_off_c, 9, 46, 95
8, 425280, Note_off_c, 9, 36, 127
8, 425280, Note_on_c, 9, 46, 95
8, 425280, Note_on_c, 9, 38, 95
8, 425760, Note_off_c, 9, 46, 95
8, 425760, Note_off_c, 9, 38, 95
8, 425760, Note_on_c, 9, 46, 95
8, 426240, Note_off_c, 9, 46, 95
8, 426240, Note_on_c, 9, 46, 95
8, 426240, Note_on_c, 9, 36, 95
8, 426720, Note_off_c, 9, 46, 95
8, 426720, Note_off_c, 9, 36, 95
8, 426720, Note_on_c, 9, 46, 95
8, 427200, Note_off_c, 9, 46, 95
8, 427200, Note_on_c, 9, 46, 95
8, 427200, Note_on_c, 9, 38, 95
8, 427680, Note_off_c, 9, 46, 95
8, 427680, Note_off_c, 9, 38, 95
8, 427680, Note_on_c, 9, 46, 95
8, 427920, Note_on_c, 9, 38, 95
8, 428160, Note_off_c, 9, 46, 95
8, 428160, Note_off_c, 9, 38, 95
8, 428160, Note_on_c, 9, 38, 95
8, 428160, Note_on_c, 9, 36, 127
8, 428400, Note_off_c, 9, 38, 95
8, 428400, Note_off_c, 9, 36, 127
8, 428400, Note_on_c, 9, 38, 95
8, 428640, Note_off_c, 9, 38, 95
8, 428640, Note_on_c, 9, 38, 95
8, 428880, Note_off_c, 9, 38, 95
8, 428880, Note_on_c, 9, 38, 95
8, 429120, Note_off_c, 9, 38, 95
8, 429120, Note_on_c, 9, 38, 95
8, 429360, Note_off_c, 9, 38, 95
8, 429360, Note_on_c, 9, 47, 95
8, 429600, Note_off_c, 9, 47, 95
8, 429600, Note_on_c, 9, 45, 95
8, 429840, Note_off_c, 9, 45, 95
8, 429840, Note_on_c, 9, 43, 95
8, 430080, Note_off_c, 9, 43, 95
8, 430080, Note_on_c, 9, 57, 95
8, 430080, Note_on_c, 9, 36, 95
8, 430560, Note_off_c, 9, 57, 95
8, 430560, Note_off_c, 9, 36, 95
8, 430560, Note_on_c, 9, 46, 95
8, 431040, Note_off_c, 9, 46, 95
8, 431040, Note_on_c, 9, 46, 95
8, 431040, Note_on_c, 9, 38, 95
8, 431520, Note_off_c, 9, 46, 95
8, 431520, Note_off_c, 9, 38, 95
8, 431520, Note_on_c, 9, 46, 95
8, 431760, Note_on_c, 9, 36, 127
8, 432000, Note_off_c, 9, 46, 95
8, 432000, Note_off_c, 9, 36, 127
8, 432000, Note_on_c, 9, 46, 95
8, 432000, Note_on_c, 9, 36, 127
8, 432480, Note_off_c, 9, 46, 95
8, 432480, Note_off_c, 9, 36, 127
8, 432480, Note_on_c, 9, 46, 95
8, 432480, Note_on_c, 9, 36, 127
8, 432960, Note_off_c, 9, 46, 95
8, 432960, Note_off_c, 9, 36, 127
8, 432960, Note_on_c, 9, 46, 95
8, 432960, Note_on_c, 9, 38, 95
8, 433440, Note_off_c, 9, 46, 95
8, 433440, Note_off_c, 9, 38, 95
8, 433440, Note_on_c, 9, 46, 95
8, 433920, Note_off_c, 9, 46, 95
8, 433920, Note_on_c, 9, 46, 95
8, 433920, Note_on_c, 9, 36, 127
8, 434400, Note_off_c, 9, 46, 95
8, 434400, Note_off_c, 9, 36, 127
8, 434400, Note_on_c, 9, 46, 95
8, 434880, Note_off_c, 9, 46, 95
8, 434880, Note_on_c, 9, 46, 95
8, 434880, Note_on_c, 9, 38, 95
8, 435360, Note_off_c, 9, 46, 95
8, 435360, Note_off_c, 9, 38, 95
8, 435360, Note_on_c, 9, 46, 95
8, 435600, Note_on_c, 9, 38, 95
8, 435840, Note_off_c, 9, 46, 95
8, 435840, Note_off_c, 9, 38, 95
8, 435840, Note_on_c, 9, 47, 95
8, 435840, Note_on_c, 9, 36, 127
8, 436080, Note_off_c, 9, 47, 95
8, 436080, Note_off_c, 9, 36, 127
8, 436080, Note_on_c, 9, 45, 95
8, 436320, Note_off_c, 9, 45, 95
8, 436320, Note_on_c, 9, 43, 95
8, 436560, Note_off_c, 9, 43, 95
8, 436560, Note_on_c, 9, 41, 95
8, 436800, Note_off_c, 9, 41, 95
8, 436800, Note_on_c, 9, 41, 95
8, 437040, Note_off_c, 9, 41, 95
8, 437040, Note_on_c, 9, 38, 95
8, 437280, Note_off_c, 9, 38, 95
8, 437280, Note_on_c, 9, 38, 95
8, 437520, Note_off_c, 9, 38, 95
8, 437520, Note_on_c, 9, 38, 95
8, 437760, Note_off_c, 9, 38, 95
8, 437760, Note_on_c, 9, 57, 95
8, 437760, Note_on_c, 9, 36, 95
8, 438240, Note_off_c, 9, 57, 95
8, 438240, Note_off_c, 9, 36, 95
8, 438240, Note_on_c, 9, 46, 95
8, 438720, Note_off_c, 9, 46, 95
8, 438720, Note_on_c, 9, 46, 95
8, 438720, Note_on_c, 9, 38, 95
8, 439200, Note_off_c, 9, 46, 95
8, 439200, Note_off_c, 9, 38, 95
8, 439200, Note_on_c, 9, 46, 95
8, 439440, Note_on_c, 9, 36, 127
8, 439680, Note_off_c, 9, 46, 95
8, 439680, Note_off_c, 9, 36, 127
8, 439680, Note_on_c, 9, 46, 95
8, 439680, Note_on_c, 9, 36, 127
8, 440160, Note_off_c, 9, 46, 95
8, 440160, Note_off_c, 9, 36, 127
8, 440160, Note_on_c, 9, 46, 95
8, 440160, Note_on_c, 9, 36, 127
8, 440640, Note_off_c, 9, 46, 95
8, 440640, Note_off_c, 9, 36, 127
8, 440640, Note_on_c, 9, 46, 95
8, 440640, Note_on_c, 9, 38, 95
8, 441120, Note_off_c, 9, 46, 95
8, 441120, Note_off_c, 9, 38, 95
8, 441120, Note_on_c, 9, 46, 95
8, 441600, Note_off_c, 9, 46, 95
8, 441600, Note_on_c, 9, 46, 95
8, 441600, Note_on_c, 9, 36, 95
8, 442080, Note_off_c, 9, 46, 95
8, 442080, Note_off_c, 9, 36, 95
8, 442080, Note_on_c, 9, 46, 95
8, 442560, Note_off_c, 9, 46, 95
8, 442560, Note_on_c, 9, 46, 95
8, 442560, Note_on_c, 9, 38, 95
8, 443040, Note_off_c, 9, 46, 95
8, 443040, Note_off_c, 9, 38, 95
8, 443040, Note_on_c, 9, 46, 95
8, 443280, Note_on_c, 9, 36, 127
8, 443520, Note_off_c, 9, 46, 95
8, 443520, Note_off_c, 9, 36, 127
8, 443520, Note_on_c, 9, 46, 95
8, 443520, Note_on_c, 9, 36, 127
8, 444000, Note_off_c, 9, 46, 95
8, 444000, Note_off_c, 9, 36, 127
8, 444000, Note_on_c, 9, 46, 95
8, 444000, Note_on_c, 9, 36, 127
8, 444480, Note_off_c, 9, 46, 95
8, 444480, Note_off_c, 9, 36, 127
8, 444480, Note_on_c, 9, 46, 95
8, 444480, Note_on_c, 9, 38, 95
8, 444960, Note_off_c, 9, 46, 95
8, 444960, Note_off_c, 9, 38, 95
8, 444960, Note_on_c, 9, 46, 95
8, 445440, Note_off_c, 9, 46, 95
8, 445440, Note_on_c, 9, 46, 95
8, 445440, Note_on_c, 9, 36, 95
8, 445920, Note_off_c, 9, 46, 95
8, 445920, Note_off_c, 9, 36, 95
8, 445920, Note_on_c, 9, 46, 95
8, 446400, Note_off_c, 9, 46, 95
8, 446400, Note_on_c, 9, 46, 95
8, 446400, Note_on_c, 9, 38, 95
8, 446880, Note_off_c, 9, 46, 95
8, 446880, Note_off_c, 9, 38, 95
8, 446880, Note_on_c, 9, 46, 95
8, 447120, Note_on_c, 9, 36, 127
8, 447360, Note_off_c, 9, 46, 95
8, 447360, Note_off_c, 9, 36, 127
8, 447360, Note_on_c, 9, 46, 95
8, 447360, Note_on_c, 9, 36, 127
8, 447840, Note_off_c, 9, 46, 95
8, 447840, Note_off_c, 9, 36, 127
8, 447840, Note_on_c, 9, 46, 95
8, 447840, Note_on_c, 9, 36, 127
8, 448320, Note_off_c, 9, 46, 95
8, 448320, Note_off_c, 9, 36, 127
8, 448320, Note_on_c, 9, 46, 95
8, 448320, Note_on_c, 9, 38, 95
8, 448800, Note_off_c, 9, 46, 95
8, 448800, Note_off_c, 9, 38, 95
8, 448800, Note_on_c, 9, 46, 95
8, 449280, Note_off_c, 9, 46, 95
8, 449280, Note_on_c, 9, 46, 95
8, 449280, Note_on_c, 9, 36, 95
8, 449760, Note_off_c, 9, 46, 95
8, 449760, Note_off_c, 9, 36, 95
8, 449760, Note_on_c, 9, 46, 95
8, 450240, Note_off_c, 9, 46, 95
8, 450240, Note_on_c, 9, 46, 95
8, 450240, Note_on_c, 9, 38, 95
8, 450720, Note_off_c, 9, 46, 95
8, 450720, Note_off_c, 9, 38, 95
8, 450720, Note_on_c, 9, 46, 95
8, 450960, Note_on_c, 9, 36, 127
8, 451200, Note_off_c, 9, 46, 95
8, 451200, Note_off_c, 9, 36, 127
8, 451200, Note_on_c, 9, 46, 95
8, 451200, Note_on_c, 9, 36, 127
8, 451680, Note_off_c, 9, 46, 95
8, 451680, Note_off_c, 9, 36, 127
8, 451680, Note_on_c, 9, 46, 95
8, 451680, Note_on_c, 9, 36, 127
8, 452160, Note_off_c, 9, 46, 95
8, 452160, Note_off_c, 9, 36, 127
8, 452160, Note_on_c, 9, 46, 95
8, 452160, Note_on_c, 9, 38, 95
8, 452640, Note_off_c, 9, 46, 95
8, 452640, Note_off_c, 9, 38, 95
8, 452640, Note_on_c, 9, 46, 95
8, 453120, Note_off_c, 9, 46, 95
8, 453120, Note_on_c, 9, 46, 95
8, 453120, Note_on_c, 9, 36, 95
8, 453600, Note_off_c, 9, 46, 95
8, 453600, Note_off_c, 9, 36, 95
8, 453600, Note_on_c, 9, 46, 95
8, 454080, Note_off_c, 9, 46, 95
8, 454080, Note_on_c, 9, 46, 95
8, 454080, Note_on_c, 9, 38, 95
8, 454560, Note_off_c, 9, 46, 95
8, 454560, Note_off_c, 9, 38, 95
8, 454560, Note_on_c, 9, 46, 95
8, 454800, Note_on_c, 9, 36, 127
8, 455040, Note_off_c, 9, 46, 95
8, 455040, Note_off_c, 9, 36, 127
8, 455040, Note_on_c, 9, 46, 95
8, 455040, Note_on_c, 9, 36, 127
8, 455520, Note_off_c, 9, 46, 95
8, 455520, Note_off_c, 9, 36, 127
8, 455520, Note_on_c, 9, 46, 95
8, 455520, Note_on_c, 9, 36, 127
8, 456000, Note_off_c, 9, 46, 95
8, 456000, Note_off_c, 9, 36, 127
8, 456000, Note_on_c, 9, 46, 95
8, 456000, Note_on_c, 9, 38, 95
8, 456480, Note_off_c, 9, 46, 95
8, 456480, Note_off_c, 9, 38, 95
8, 456480, Note_on_c, 9, 46, 95
8, 456960, Note_off_c, 9, 46, 95
8, 456960, Note_on_c, 9, 46, 95
8, 456960, Note_on_c, 9, 36, 127
8, 457440, Note_off_c, 9, 46, 95
8, 457440, Note_off_c, 9, 36, 127
8, 457440, Note_on_c, 9, 38, 95
8, 457920, Note_off_c, 9, 38, 95
8, 457920, Note_on_c, 9, 47, 95
8, 458160, Note_off_c, 9, 47, 95
8, 458160, Note_on_c, 9, 45, 95
8, 458400, Note_off_c, 9, 45, 95
8, 458400, Note_on_c, 9, 43, 95
8, 458880, Note_off_c, 9, 43, 95
8, 458880, Note_on_c, 9, 41, 95
8, 459360, Note_off_c, 9, 41, 95
8, 459360, Note_on_c, 9, 38, 95
8, 459600, Note_off_c, 9, 38, 95
8, 459600, Note_on_c, 9, 47, 95
8, 459840, Note_off_c, 9, 47, 95
8, 459840, Note_on_c, 9, 45, 95
8, 460080, Note_off_c, 9, 45, 95
8, 460080, Note_on_c, 9, 43, 95
8, 460320, Note_off_c, 9, 43, 95
8, 460320, Note_on_c, 9, 41, 95
8, 460800, Note_off_c, 9, 41, 95
8, 460800, Note_on_c, 9, 57, 95
8, 460800, Note_on_c, 9, 47, 95
8, 460800, Note_on_c, 9, 36, 95
8, 461280, Note_off_c, 9, 57, 95
8, 461280, Note_off_c, 9, 47, 95
8, 461280, Note_off_c, 9, 36, 95
8, 461280, Note_on_c, 9, 45, 95
8, 461280, Note_on_c, 9, 36, 127
8, 461760, Note_off_c, 9, 45, 95
8, 461760, Note_off_c, 9, 36, 127
8, 461760, Note_on_c, 9, 46, 95
8, 461760, Note_on_c, 9, 38, 95
8, 462240, Note_off_c, 9, 46, 95
8, 462240, Note_off_c, 9, 38, 95
8, 462240, Note_on_c, 9, 36, 127
8, 462720, Note_off_c, 9, 36, 127
8, 462720, Note_on_c, 9, 46, 95
8, 462720, Note_on_c, 9, 47, 95
8, 462720, Note_on_c, 9, 36, 127
8, 463200, Note_off_c, 9, 46, 95
8, 463200, Note_off_c, 9, 47, 95
8, 463200, Note_off_c, 9, 36, 127
8, 463200, Note_on_c, 9, 45, 95
8, 463200, Note_on_c, 9, 36, 127
8, 463680, Note_off_c, 9, 45, 95
8, 463680, Note_off_c, 9, 36, 127
8, 463680, Note_on_c, 9, 46, 95
8, 463680, Note_on_c, 9, 38, 95
8, 464160, Note_off_c, 9, 46, 95
8, 464160, Note_off_c, 9, 38, 95
8, 464160, Note_on_c, 9, 36, 127
8, 464640, Note_off_c, 9, 36, 127
8, 464640, Note_on_c, 9, 46, 95
8, 464640, Note_on_c, 9, 47, 95
8, 464640, Note_on_c, 9, 36, 95
8, 465120, Note_off_c, 9, 46, 95
8, 465120, Note_off_c, 9, 47, 95
8, 465120, Note_off_c, 9, 36, 95
8, 465120, Note_on_c, 9, 45, 95
8, 465120, Note_on_c, 9, 36, 127
8, 465600, Note_off_c, 9, 45, 95
8, 465600, Note_off_c, 9, 36, 127
8, 465600, Note_on_c, 9, 46, 95
8, 465600, Note_on_c, 9, 38, 95
8, 466080, Note_off_c, 9, 46, 95
8, 466080, Note_off_c, 9, 38, 95
8, 466080, Note_on_c, 9, 36, 127
8, 466560, Note_off_c, 9, 36, 127
8, 466560, Note_on_c, 9, 46, 95
8, 466560, Note_on_c, 9, 47, 95
8, 466560, Note_on_c, 9, 36, 127
8, 467040, Note_off_c, 9, 46, 95
8, 467040, Note_off_c, 9, 47, 95
8, 467040, Note_off_c, 9, 36, 127
8, 467040, Note_on_c, 9, 45, 95
8, 467040, Note_on_c, 9, 36, 127
8, 467520, Note_off_c, 9, 45, 95
8, 467520, Note_off_c, 9, 36, 127
8, 467520, Note_on_c, 9, 46, 95
8, 467520, Note_on_c, 9, 38, 95
8, 468000, Note_off_c, 9, 46, 95
8, 468000, Note_off_c, 9, 38, 95
8, 468000, Note_on_c, 9, 36, 127
8, 468480, Note_off_c, 9, 36, 127
8, 468480, Note_on_c, 9, 46, 95
8, 468480, Note_on_c, 9, 47, 95
8, 468480, Note_on_c, 9, 36, 95
8, 468960, Note_off_c, 9, 46, 95
8, 468960, Note_off_c, 9, 47, 95
8, 468960, Note_off_c, 9, 36, 95
8, 468960, Note_on_c, 9, 45, 95
8, 468960, Note_on_c, 9, 36, 127
8, 469440, Note_off_c, 9, 45, 95
8, 469440, Note_off_c, 9, 36, 127
8, 469440, Note_on_c, 9, 46, 95
8, 469440, Note_on_c, 9, 38, 95
8, 469920, Note_off_c, 9, 46, 95
8, 469920, Note_off_c, 9, 38, 95
8, 469920, Note_on_c, 9, 36, 127
8, 470400, Note_off_c, 9, 36, 127
8, 470400, Note_on_c, 9, 46, 95
8, 470400, Note_on_c, 9, 47, 95
8, 470400, Note_on_c, 9, 36, 127
8, 470880, Note_off_c, 9, 46, 95
8, 470880, Note_off_c, 9, 47, 95
8, 470880, Note_off_c, 9, 36, 127
8, 470880, Note_on_c, 9, 45, 95
8, 470880, Note_on_c, 9, 36, 127
8, 471360, Note_off_c, 9, 45, 95
8, 471360, Note_off_c, 9, 36, 127
8, 471360, Note_on_c, 9, 46, 95
8, 471360, Note_on_c, 9, 38, 95
8, 471840, Note_off_c, 9, 46, 95
8, 471840, Note_off_c, 9, 38, 95
8, 471840, Note_on_c, 9, 36, 127
8, 472320, Note_off_c, 9, 36, 127
8, 472320, Note_on_c, 9, 46, 95
8, 472320, Note_on_c, 9, 47, 95
8, 472320, Note_on_c, 9, 36, 95
8, 472800, Note_off_c, 9, 46, 95
8, 472800, Note_off_c, 9, 47, 95
8, 472800, Note_off_c, 9, 36, 95
8, 472800, Note_on_c, 9, 45, 95
8, 472800, Note_on_c, 9, 36, 127
8, 473280, Note_off_c, 9, 45, 95
8, 473280, Note_off_c, 9, 36, 127
8, 473280, Note_on_c, 9, 46, 95
8, 473280, Note_on_c, 9, 38, 95
8, 473760, Note_off_c, 9, 46, 95
8, 473760, Note_off_c, 9, 38, 95
8, 473760, Note_on_c, 9, 36, 127
8, 474240, Note_off_c, 9, 36, 127
8, 474240, Note_on_c, 9, 46, 95
8, 474240, Note_on_c, 9, 47, 95
8, 474240, Note_on_c, 9, 36, 127
8, 474720, Note_off_c, 9, 46, 95
8, 474720, Note_off_c, 9, 47, 95
8, 474720, Note_off_c, 9, 36, 127
8, 474720, Note_on_c, 9, 45, 95
8, 474720, Note_on_c, 9, 36, 127
8, 475200, Note_off_c, 9, 45, 95
8, 475200, Note_off_c, 9, 36, 127
8, 475200, Note_on_c, 9, 46, 95
8, 475200, Note_on_c, 9, 38, 95
8, 475680, Note_off_c, 9, 46, 95
8, 475680, Note_off_c, 9, 38, 95
8, 475680, Note_on_c, 9, 36, 127
8, 476160, Note_off_c, 9, 36, 127
8, 476160, Note_on_c, 9, 46, 95
8, 476160, Note_on_c, 9, 47, 95
8, 476160, Note_on_c, 9, 36, 95
8, 476640, Note_off_c, 9, 46, 95
8, 476640, Note_off_c, 9, 47, 95
8, 476640, Note_off_c, 9, 36, 95
8, 476640, Note_on_c, 9, 45, 95
8, 476640, Note_on_c, 9, 36, 127
8, 477120, Note_off_c, 9, 45, 95
8, 477120, Note_off_c, 9, 36, 127
8, 477120, Note_on_c, 9, 46, 95
8, 477120, Note_on_c, 9, 38, 95
8, 477600, Note_off_c, 9, 46, 95
8, 477600, Note_off_c, 9, 38, 95
8, 477600, Note_on_c, 9, 36, 127
8, 478080, Note_off_c, 9, 36, 127
8, 478080, Note_on_c, 9, 46, 95
8, 478080, Note_on_c, 9, 47, 95
8, 478080, Note_on_c, 9, 36, 127
8, 478560, Note_off_c, 9, 46, 95
8, 478560, Note_off_c, 9, 47, 95
8, 478560, Note_off_c, 9, 36, 127
8, 478560, Note_on_c, 9, 45, 95
8, 478560, Note_on_c, 9, 36, 127
8, 479040, Note_off_c, 9, 45, 95
8, 479040, Note_off_c, 9, 36, 127
8, 479040, Note_on_c, 9, 46, 95
8, 479040, Note_on_c, 9, 38, 95
8, 479520, Note_off_c, 9, 46, 95
8, 479520, Note_off_c, 9, 38, 95
8, 479520, Note_on_c, 9, 36, 127
8, 480000, Note_off_c, 9, 36, 127
8, 480000, Note_on_c, 9, 46, 95
8, 480000, Note_on_c, 9, 47, 95
8, 480000, Note_on_c, 9, 36, 95
8, 480480, Note_off_c, 9, 46, 95
8, 480480, Note_off_c, 9, 47, 95
8, 480480, Note_off_c, 9, 36, 95
8, 480480, Note_on_c, 9, 45, 95
8, 480480, Note_on_c, 9, 36, 127
8, 480960, Note_off_c, 9, 45, 95
8, 480960, Note_off_c, 9, 36, 127
8, 480960, Note_on_c, 9, 46, 95
8, 480960, Note_on_c, 9, 38, 95
8, 481440, Note_off_c, 9, 46, 95
8, 481440, Note_off_c, 9, 38, 95
8, 481440, Note_on_c, 9, 36, 127
8, 481920, Note_off_c, 9, 36, 127
8, 481920, Note_on_c, 9, 46, 95
8, 481920, Note_on_c, 9, 47, 95
8, 481920, Note_on_c, 9, 36, 127
8, 482400, Note_off_c, 9, 46, 95
8, 482400, Note_off_c, 9, 47, 95
8, 482400, Note_off_c, 9, 36, 127
8, 482400, Note_on_c, 9, 45, 95
8, 482400, Note_on_c, 9, 36, 127
8, 482880, Note_off_c, 9, 45, 95
8, 482880, Note_off_c, 9, 36, 127
8, 482880, Note_on_c, 9, 46, 95
8, 482880, Note_on_c, 9, 38, 95
8, 483360, Note_off_c, 9, 46, 95
8, 483360, Note_off_c, 9, 38, 95
8, 483360, Note_on_c, 9, 36, 127
8, 483840, Note_off_c, 9, 36, 127
8, 483840, Note_on_c, 9, 46, 95
8, 483840, Note_on_c, 9, 47, 95
8, 483840, Note_on_c, 9, 36, 95
8, 484320, Note_off_c, 9, 46, 95
8, 484320, Note_off_c, 9, 47, 95
8, 484320, Note_off_c, 9, 36, 95
8, 484320, Note_on_c, 9, 45, 95
8, 484320, Note_on_c, 9, 36, 127
8, 484800, Note_off_c, 9, 45, 95
8, 484800, Note_off_c, 9, 36, 127
8, 484800, Note_on_c, 9, 46, 95
8, 484800, Note_on_c, 9, 38, 95
8, 485280, Note_off_c, 9, 46, 95
8, 485280, Note_off_c, 9, 38, 95
8, 485280, Note_on_c, 9, 36, 127
8, 485760, Note_off_c, 9, 36, 127
8, 485760, Note_on_c, 9, 46, 95
8, 485760, Note_on_c, 9, 47, 95
8, 485760, Note_on_c, 9, 36, 127
8, 486240, Note_off_c, 9, 46, 95
8, 486240, Note_off_c, 9, 47, 95
8, 486240, Note_off_c, 9, 36, 127
8, 486240, Note_on_c, 9, 45, 95
8, 486240, Note_on_c, 9, 36, 127
8, 486720, Note_off_c, 9, 45, 95
8, 486720, Note_off_c, 9, 36, 127
8, 486720, Note_on_c, 9, 46, 95
8, 486720, Note_on_c, 9, 38, 95
8, 487200, Note_off_c, 9, 46, 95
8, 487200, Note_off_c, 9, 38, 95
8, 487200, Note_on_c, 9, 36, 127
8, 487680, Note_off_c, 9, 36, 127
8, 487680, Note_on_c, 9, 38, 95
8, 488160, Note_off_c, 9, 38, 95
8, 488160, Note_on_c, 9, 36, 127
8, 488640, Note_off_c, 9, 36, 127
8, 488640, Note_on_c, 9, 38, 95
8, 489120, Note_off_c, 9, 38, 95
8, 489120, Note_on_c, 9, 36, 127
8, 489360, Note_off_c, 9, 36, 127
8, 489360, Note_on_c, 9, 38, 95
8, 489600, Note_off_c, 9, 38, 95
8, 489600, Note_on_c, 9, 38, 95
8, 490080, Note_off_c, 9, 38, 95
8, 490080, Note_on_c, 9, 36, 127
8, 490560, Note_off_c, 9, 36, 127
8, 490560, Note_on_c, 9, 38, 95
8, 490800, Note_off_c, 9, 38, 95
8, 490800, Note_on_c, 9, 47, 95
8, 491040, Note_off_c, 9, 47, 95
8, 491040, Note_on_c, 9, 45, 95
8, 491520, Note_off_c, 9, 45, 95
8, 491520, Note_on_c, 9, 57, 95
8, 491520, Note_on_c, 9, 36, 95
8, 492000, Note_off_c, 9, 57, 95
8, 492000, Note_off_c, 9, 36, 95
8, 492000, Note_on_c, 9, 46, 95
8, 492480, Note_off_c, 9, 46, 95
8, 492480, Note_on_c, 9, 46, 95
8, 492480, Note_on_c, 9, 38, 95
8, 492960, Note_off_c, 9, 46, 95
8, 492960, Note_off_c, 9, 38, 95
8, 492960, Note_on_c, 9, 46, 95
8, 493200, Note_on_c, 9, 36, 127
8, 493440, Note_off_c, 9, 46, 95
8, 493440, Note_off_c, 9, 36, 127
8, 493440, Note_on_c, 9, 46, 95
8, 493440, Note_on_c, 9, 36, 127
8, 493920, Note_off_c, 9, 46, 95
8, 493920, Note_off_c, 9, 36, 127
8, 493920, Note_on_c, 9, 46, 95
8, 493920, Note_on_c, 9, 36, 127
8, 494400, Note_off_c, 9, 46, 95
8, 494400, Note_off_c, 9, 36, 127
8, 494400, Note_on_c, 9, 46, 95
8, 494400, Note_on_c, 9, 38, 95
8, 494880, Note_off_c, 9, 46, 95
8, 494880, Note_off_c, 9, 38, 95
8, 494880, Note_on_c, 9, 46, 95
8, 495360, Note_off_c, 9, 46, 95
8, 495360, Note_on_c, 9, 46, 95
8, 495360, Note_on_c, 9, 36, 127
8, 495840, Note_off_c, 9, 46, 95
8, 495840, Note_off_c, 9, 36, 127
8, 495840, Note_on_c, 9, 46, 95
8, 496320, Note_off_c, 9, 46, 95
8, 496320, Note_on_c, 9, 46, 95
8, 496320, Note_on_c, 9, 38, 95
8, 496800, Note_off_c, 9, 46, 95
8, 496800, Note_off_c, 9, 38, 95
8, 496800, Note_on_c, 9, 46, 95
8, 497040, Note_on_c, 9, 38, 95
8, 497280, Note_off_c, 9, 46, 95
8, 497280, Note_off_c, 9, 38, 95
8, 497280, Note_on_c, 9, 47, 95
8, 497280, Note_on_c, 9, 36, 127
8, 497520, Note_off_c, 9, 47, 95
8, 497520, Note_off_c, 9, 36, 127
8, 497520, Note_on_c, 9, 45, 95
8, 497760, Note_off_c, 9, 45, 95
8, 497760, Note_on_c, 9, 43, 95
8, 498000, Note_off_c, 9, 43, 95
8, 498000, Note_on_c, 9, 41, 95
8, 498240, Note_off_c, 9, 41, 95
8, 498240, Note_on_c, 9, 41, 95
8, 498480, Note_off_c, 9, 41, 95
8, 498480, Note_on_c, 9, 38, 95
8, 498720, Note_off_c, 9, 38, 95
8, 498720, Note_on_c, 9, 38, 95
8, 498960, Note_off_c, 9, 38, 95
8, 498960, Note_on_c, 9, 38, 95
8, 499200, Note_off_c, 9, 38, 95
8, 499200, Note_on_c, 9, 57, 95
8, 499200, Note_on_c, 9, 36, 95
8, 499680, Note_off_c, 9, 57, 95
8, 499680, Note_off_c, 9, 36, 95
8, 499680, Note_on_c, 9, 46, 95
8, 500160, Note_off_c, 9, 46, 95
8, 500160, Note_on_c, 9, 46, 95
8, 500160, Note_on_c, 9, 38, 95
8, 500640, Note_off_c, 9, 46, 95
8, 500640, Note_off_c, 9, 38, 95
8, 500640, Note_on_c, 9, 46, 95
8, 500880, Note_on_c, 9, 36, 127
8, 501120, Note_off_c, 9, 46, 95
8, 501120, Note_off_c, 9, 36, 127
8, 501120, Note_on_c, 9, 46, 95
8, 501120, Note_on_c, 9, 36, 127
8, 501600, Note_off_c, 9, 46, 95
8, 501600, Note_off_c, 9, 36, 127
8, 501600, Note_on_c, 9, 46, 95
8, 501600, Note_on_c, 9, 36, 127
8, 502080, Note_off_c, 9, 46, 95
8, 502080, Note_off_c, 9, 36, 127
8, 502080, Note_on_c, 9, 46, 95
8, 502080, Note_on_c, 9, 38, 95
8, 502560, Note_off_c, 9, 46, 95
8, 502560, Note_off_c, 9, 38, 95
8, 502560, Note_on_c, 9, 46, 95
8, 503040, Note_off_c, 9, 46, 95
8, 503040, Note_on_c, 9, 46, 95
8, 503040, Note_on_c, 9, 36, 95
8, 503520, Note_off_c, 9, 46, 95
8, 503520, Note_off_c, 9, 36, 95
8, 503520, Note_on_c, 9, 46, 95
8, 504000, Note_off_c, 9, 46, 95
8, 504000, Note_on_c, 9, 46, 95
8, 504000, Note_on_c, 9, 38, 95
8, 504480, Note_off_c, 9, 46, 95
8, 504480, Note_off_c, 9, 38, 95
8, 504480, Note_on_c, 9, 46, 95
8, 504720, Note_on_c, 9, 36, 127
8, 504960, Note_off_c, 9, 46, 95
8, 504960, Note_off_c, 9, 36, 127
8, 504960, Note_on_c, 9, 46, 95
8, 504960, Note_on_c, 9, 36, 127
8, 505440, Note_off_c, 9, 46, 95
8, 505440, Note_off_c, 9, 36, 127
8, 505440, Note_on_c, 9, 46, 95
8, 505440, Note_on_c, 9, 36, 127
8, 505920, Note_off_c, 9, 46, 95
8, 505920, Note_off_c, 9, 36, 127
8, 505920, Note_on_c, 9, 46, 95
8, 505920, Note_on_c, 9, 38, 95
8, 506400, Note_off_c, 9, 46, 95
8, 506400, Note_off_c, 9, 38, 95
8, 506400, Note_on_c, 9, 46, 95
8, 506880, Note_off_c, 9, 46, 95
8, 506880, Note_on_c, 9, 46, 95
8, 506880, Note_on_c, 9, 36, 95
8, 507360, Note_off_c, 9, 46, 95
8, 507360, Note_off_c, 9, 36, 95
8, 507360, Note_on_c, 9, 46, 95
8, 507840, Note_off_c, 9, 46, 95
8, 507840, Note_on_c, 9, 46, 95
8, 507840, Note_on_c, 9, 38, 95
8, 508320, Note_off_c, 9, 46, 95
8, 508320, Note_off_c, 9, 38, 95
8, 508320, Note_on_c, 9, 46, 95
8, 508560, Note_on_c, 9, 36, 127
8, 508800, Note_off_c, 9, 46, 95
8, 508800, Note_off_c, 9, 36, 127
8, 508800, Note_on_c, 9, 46, 95
8, 508800, Note_on_c, 9, 36, 127
8, 509280, Note_off_c, 9, 46, 95
8, 509280, Note_off_c, 9, 36, 127
8, 509280, Note_on_c, 9, 46, 95
8, 509280, Note_on_c, 9, 36, 127
8, 509760, Note_off_c, 9, 46, 95
8, 509760, Note_off_c, 9, 36, 127
8, 509760, Note_on_c, 9, 46, 95
8, 509760, Note_on_c, 9, 38, 95
8, 510240, Note_off_c, 9, 46, 95
8, 510240, Note_off_c, 9, 38, 95
8, 510240, Note_on_c, 9, 46, 95
8, 510720, Note_off_c, 9, 46, 95
8, 510720, Note_on_c, 9, 46, 95
8, 510720, Note_on_c, 9, 36, 95
8, 511200, Note_off_c, 9, 46, 95
8, 511200, Note_off_c, 9, 36, 95
8, 511200, Note_on_c, 9, 46, 95
8, 511680, Note_off_c, 9, 46, 95
8, 511680, Note_on_c, 9, 46, 95
8, 511680, Note_on_c, 9, 38, 95
8, 512160, Note_off_c, 9, 46, 95
8, 512160, Note_off_c, 9, 38, 95
8, 512160, Note_on_c, 9, 46, 95
8, 512400, Note_on_c, 9, 36, 127
8, 512640, Note_off_c, 9, 46, 95
8, 512640, Note_off_c, 9, 36, 127
8, 512640, Note_on_c, 9, 46, 95
8, 512640, Note_on_c, 9, 36, 127
8, 513120, Note_off_c, 9, 46, 95
8, 513120, Note_off_c, 9, 36, 127
8, 513120, Note_on_c, 9, 46, 95
8, 513120, Note_on_c, 9, 36, 127
8, 513600, Note_off_c, 9, 46, 95
8, 513600, Note_off_c, 9, 36, 127
8, 513600, Note_on_c, 9, 46, 95
8, 513600, Note_on_c, 9, 38, 95
8, 514080, Note_off_c, 9, 46, 95
8, 514080, Note_off_c, 9, 38, 95
8, 514080, Note_on_c, 9, 46, 95
8, 514560, Note_off_c, 9, 46, 95
8, 514560, Note_on_c, 9, 46, 95
8, 514560, Note_on_c, 9, 36, 95
8, 515040, Note_off_c, 9, 46, 95
8, 515040, Note_off_c, 9, 36, 95
8, 515040, Note_on_c, 9, 46, 95
8, 515520, Note_off_c, 9, 46, 95
8, 515520, Note_on_c, 9, 46, 95
8, 515520, Note_on_c, 9, 38, 95
8, 516000, Note_off_c, 9, 46, 95
8, 516000, Note_off_c, 9, 38, 95
8, 516000, Note_on_c, 9, 46, 95
8, 516240, Note_on_c, 9, 36, 127
8, 516480, Note_off_c, 9, 46, 95
8, 516480, Note_off_c, 9, 36, 127
8, 516480, Note_on_c, 9, 46, 95
8, 516480, Note_on_c, 9, 36, 127
8, 516960, Note_off_c, 9, 46, 95
8, 516960, Note_off_c, 9, 36, 127
8, 516960, Note_on_c, 9, 46, 95
8, 516960, Note_on_c, 9, 36, 127
8, 517440, Note_off_c, 9, 46, 95
8, 517440, Note_off_c, 9, 36, 127
8, 517440, Note_on_c, 9, 46, 95
8, 517440, Note_on_c, 9, 38, 95
8, 517920, Note_off_c, 9, 46, 95
8, 517920, Note_off_c, 9, 38, 95
8, 517920, Note_on_c, 9, 46, 95
8, 518400, Note_off_c, 9, 46, 95
8, 518400, Note_on_c, 9, 46, 95
8, 518400, Note_on_c, 9, 36, 127
8, 518880, Note_off_c, 9, 46, 95
8, 518880, Note_off_c, 9, 36, 127
8, 518880, Note_on_c, 9, 38, 95
8, 519360, Note_off_c, 9, 38, 95
8, 519360, Note_on_c, 9, 47, 95
8, 519600, Note_off_c, 9, 47, 95
8, 519600, Note_on_c, 9, 45, 95
8, 519840, Note_off_c, 9, 45, 95
8, 519840, Note_on_c, 9, 43, 95
8, 520320, Note_off_c, 9, 43, 95
8, 520320, Note_on_c, 9, 41, 95
8, 520800, Note_off_c, 9, 41, 95
8, 520800, Note_on_c, 9, 38, 95
8, 521040, Note_off_c, 9, 38, 95
8, 521040, Note_on_c, 9, 47, 95
8, 521280, Note_off_c, 9, 47, 95
8, 521280, Note_on_c, 9, 45, 95
8, 521520, Note_off_c, 9, 45, 95
8, 521520, Note_on_c, 9, 43, 95
8, 521760, Note_off_c, 9, 43, 95
8, 521760, Note_on_c, 9, 41, 95
8, 522240, Note_off_c, 9, 41, 95
8, 522240, Note_on_c, 9, 57, 95
8, 522240, Note_on_c, 9, 47, 95
8, 522240, Note_on_c, 9, 36, 95
8, 522720, Note_off_c, 9, 57, 95
8, 522720, Note_off_c, 9, 47, 95
8, 522720, Note_off_c, 9, 36, 95
8, 522720, Note_on_c, 9, 45, 95
8, 522720, Note_on_c, 9, 36, 127
8, 523200, Note_off_c, 9, 45, 95
8, 523200, Note_off_c, 9, 36, 127
8, 523200, Note_on_c, 9, 46, 95
8, 523200, Note_on_c, 9, 38, 95
8, 523680, Note_off_c, 9, 46, 95
8, 523680, Note_off_c, 9, 38, 95
8, 523680, Note_on_c, 9, 36, 127
8, 524160, Note_off_c, 9, 36, 127
8, 524160, Note_on_c, 9, 46, 95
8, 524160, Note_on_c, 9, 47, 95
8, 524160, Note_on_c, 9, 36, 127
8, 524640, Note_off_c, 9, 46, 95
8, 524640, Note_off_c, 9, 47, 95
8, 524640, Note_off_c, 9, 36, 127
8, 524640, Note_on_c, 9, 45, 95
8, 524640, Note_on_c, 9, 36, 127
8, 525120, Note_off_c, 9, 45, 95
8, 525120, Note_off_c, 9, 36, 127
8, 525120, Note_on_c, 9, 46, 95
8, 525120, Note_on_c, 9, 38, 95
8, 525600, Note_off_c, 9, 46, 95
8, 525600, Note_off_c, 9, 38, 95
8, 525600, Note_on_c, 9, 36, 127
8, 526080, Note_off_c, 9, 36, 127
8, 526080, Note_on_c, 9, 46, 95
8, 526080, Note_on_c, 9, 47, 95
8, 526080, Note_on_c, 9, 36, 95
8, 526560, Note_off_c, 9, 46, 95
8, 526560, Note_off_c, 9, 47, 95
8, 526560, Note_off_c, 9, 36, 95
8, 526560, Note_on_c, 9, 45, 95
8, 526560, Note_on_c, 9, 36, 127
8, 527040, Note_off_c, 9, 45, 95
8, 527040, Note_off_c, 9, 36, 127
8, 527040, Note_on_c, 9, 46, 95
8, 527040, Note_on_c, 9, 38, 95
8, 527520, Note_off_c, 9, 46, 95
8, 527520, Note_off_c, 9, 38, 95
8, 527520, Note_on_c, 9, 36, 127
8, 528000, Note_off_c, 9, 36, 127
8, 528000, Note_on_c, 9, 46, 95
8, 528000, Note_on_c, 9, 47, 95
8, 528000, Note_on_c, 9, 36, 127
8, 528480, Note_off_c, 9, 46, 95
8, 528480, Note_off_c, 9, 47, 95
8, 528480, Note_off_c, 9, 36, 127
8, 528480, Note_on_c, 9, 45, 95
8, 528480, Note_on_c, 9, 36, 127
8, 528960, Note_off_c, 9, 45, 95
8, 528960, Note_off_c, 9, 36, 127
8, 528960, Note_on_c, 9, 46, 95
8, 528960, Note_on_c, 9, 38, 95
8, 529440, Note_off_c, 9, 46, 95
8, 529440, Note_off_c, 9, 38, 95
8, 529440, Note_on_c, 9, 36, 127
8, 529920, Note_off_c, 9, 36, 127
8, 529920, Note_on_c, 9, 46, 95
8, 529920, Note_on_c, 9, 47, 95
8, 529920, Note_on_c, 9, 36, 95
8, 530400, Note_off_c, 9, 46, 95
8, 530400, Note_off_c, 9, 47, 95
8, 530400, Note_off_c, 9, 36, 95
8, 530400, Note_on_c, 9, 45, 95
8, 530400, Note_on_c, 9, 36, 127
8, 530880, Note_off_c, 9, 45, 95
8, 530880, Note_off_c, 9, 36, 127
8, 530880, Note_on_c, 9, 46, 95
8, 530880, Note_on_c, 9, 38, 95
8, 531360, Note_off_c, 9, 46, 95
8, 531360, Note_off_c, 9, 38, 95
8, 531360, Note_on_c, 9, 36, 127
8, 531840, Note_off_c, 9, 36, 127
8, 531840, Note_on_c, 9, 46, 95
8, 531840, Note_on_c, 9, 47, 95
8, 531840, Note_on_c, 9, 36, 127
8, 532320, Note_off_c, 9, 46, 95
8, 532320, Note_off_c, 9, 47, 95
8, 532320, Note_off_c, 9, 36, 127
8, 532320, Note_on_c, 9, 45, 95
8, 532320, Note_on_c, 9, 36, 127
8, 532800, Note_off_c, 9, 45, 95
8, 532800, Note_off_c, 9, 36, 127
8, 532800, Note_on_c, 9, 46, 95
8, 532800, Note_on_c, 9, 38, 95
8, 533280, Note_off_c, 9, 46, 95
8, 533280, Note_off_c, 9, 38, 95
8, 533280, Note_on_c, 9, 36, 127
8, 533760, Note_off_c, 9, 36, 127
8, 533760, Note_on_c, 9, 46, 95
8, 533760, Note_on_c, 9, 47, 95
8, 533760, Note_on_c, 9, 36, 95
8, 534240, Note_off_c, 9, 46, 95
8, 534240, Note_off_c, 9, 47, 95
8, 534240, Note_off_c, 9, 36, 95
8, 534240, Note_on_c, 9, 45, 95
8, 534240, Note_on_c, 9, 36, 127
8, 534720, Note_off_c, 9, 45, 95
8, 534720, Note_off_c, 9, 36, 127
8, 534720, Note_on_c, 9, 46, 95
8, 534720, Note_on_c, 9, 38, 95
8, 535200, Note_off_c, 9, 46, 95
8, 535200, Note_off_c, 9, 38, 95
8, 535200, Note_on_c, 9, 36, 127
8, 535680, Note_off_c, 9, 36, 127
8, 535680, Note_on_c, 9, 46, 95
8, 535680, Note_on_c, 9, 47, 95
8, 535680, Note_on_c, 9, 36, 127
8, 536160, Note_off_c, 9, 46, 95
8, 536160, Note_off_c, 9, 47, 95
8, 536160, Note_off_c, 9, 36, 127
8, 536160, Note_on_c, 9, 45, 95
8, 536160, Note_on_c, 9, 36, 127
8, 536640, Note_off_c, 9, 45, 95
8, 536640, Note_off_c, 9, 36, 127
8, 536640, Note_on_c, 9, 46, 95
8, 536640, Note_on_c, 9, 38, 95
8, 537120, Note_off_c, 9, 46, 95
8, 537120, Note_off_c, 9, 38, 95
8, 537120, Note_on_c, 9, 36, 127
8, 537600, Note_off_c, 9, 36, 127
8, 537600, Note_on_c, 9, 46, 95
8, 537600, Note_on_c, 9, 47, 95
8, 537600, Note_on_c, 9, 36, 95
8, 538080, Note_off_c, 9, 46, 95
8, 538080, Note_off_c, 9, 47, 95
8, 538080, Note_off_c, 9, 36, 95
8, 538080, Note_on_c, 9, 45, 95
8, 538080, Note_on_c, 9, 36, 127
8, 538560, Note_off_c, 9, 45, 95
8, 538560, Note_off_c, 9, 36, 127
8, 538560, Note_on_c, 9, 46, 95
8, 538560, Note_on_c, 9, 38, 95
8, 539040, Note_off_c, 9, 46, 95
8, 539040, Note_off_c, 9, 38, 95
8, 539040, Note_on_c, 9, 36, 127
8, 539520, Note_off_c, 9, 36, 127
8, 539520, Note_on_c, 9, 46, 95
8, 539520, Note_on_c, 9, 47, 95
8, 539520, Note_on_c, 9, 36, 127
8, 540000, Note_off_c, 9, 46, 95
8, 540000, Note_off_c, 9, 47, 95
8, 540000, Note_off_c, 9, 36, 127
8, 540000, Note_on_c, 9, 45, 95
8, 540000, Note_on_c, 9, 36, 127
8, 540480, Note_off_c, 9, 45, 95
8, 540480, Note_off_c, 9, 36, 127
8, 540480, Note_on_c, 9, 46, 95
8, 540480, Note_on_c, 9, 38, 95
8, 540960, Note_off_c, 9, 46, 95
8, 540960, Note_off_c, 9, 38, 95
8, 540960, Note_on_c, 9, 36, 127
8, 541440, Note_off_c, 9, 36, 127
8, 541440, Note_on_c, 9, 46, 95
8, 541440, Note_on_c, 9, 47, 95
8, 541440, Note_on_c, 9, 36, 95
8, 541920, Note_off_c, 9, 46, 95
8, 541920, Note_off_c, 9, 47, 95
8, 541920, Note_off_c, 9, 36, 95
8, 541920, Note_on_c, 9, 45, 95
8, 541920, Note_on_c, 9, 36, 127
8, 542400, Note_off_c, 9, 45, 95
8, 542400, Note_off_c, 9, 36, 127
8, 542400, Note_on_c, 9, 46, 95
8, 542400, Note_on_c, 9, 38, 95
8, 542880, Note_off_c, 9, 46, 95
8, 542880, Note_off_c, 9, 38, 95
8, 542880, Note_on_c, 9, 36, 127
8, 543360, Note_off_c, 9, 36, 127
8, 543360, Note_on_c, 9, 46, 95
8, 543360, Note_on_c, 9, 47, 95
8, 543360, Note_on_c, 9, 36, 127
8, 543840, Note_off_c, 9, 46, 95
8, 543840, Note_off_c, 9, 47, 95
8, 543840, Note_off_c, 9, 36, 127
8, 543840, Note_on_c, 9, 45, 95
8, 543840, Note_on_c, 9, 36, 127
8, 544320, Note_off_c, 9, 45, 95
8, 544320, Note_off_c, 9, 36, 127
8, 544320, Note_on_c, 9, 46, 95
8, 544320, Note_on_c, 9, 38, 95
8, 544800, Note_off_c, 9, 46, 95
8, 544800, Note_off_c, 9, 38, 95
8, 544800, Note_on_c, 9, 36, 127
8, 545280, Note_off_c, 9, 36, 127
8, 545280, Note_on_c, 9, 46, 95
8, 545280, Note_on_c, 9, 47, 95
8, 545280, Note_on_c, 9, 36, 95
8, 545760, Note_off_c, 9, 46, 95
8, 545760, Note_off_c, 9, 47, 95
8, 545760, Note_off_c, 9, 36, 95
8, 545760, Note_on_c, 9, 45, 95
8, 545760, Note_on_c, 9, 36, 127
8, 546240, Note_off_c, 9, 45, 95
8, 546240, Note_off_c, 9, 36, 127
8, 546240, Note_on_c, 9, 46, 95
8, 546240, Note_on_c, 9, 38, 95
8, 546720, Note_off_c, 9, 46, 95
8, 546720, Note_off_c, 9, 38, 95
8, 546720, Note_on_c, 9, 36, 127
8, 547200, Note_off_c, 9, 36, 127
8, 547200, Note_on_c, 9, 46, 95
8, 547200, Note_on_c, 9, 47, 95
8, 547200, Note_on_c, 9, 36, 127
8, 547680, Note_off_c, 9, 46, 95
8, 547680, Note_off_c, 9, 47, 95
8, 547680, Note_off_c, 9, 36, 127
8, 547680, Note_on_c, 9, 45, 95
8, 547680, Note_on_c, 9, 36, 127
8, 548160, Note_off_c, 9, 45, 95
8, 548160, Note_off_c, 9, 36, 127
8, 548160, Note_on_c, 9, 46, 95
8, 548160, Note_on_c, 9, 38, 95
8, 548640, Note_off_c, 9, 46, 95
8, 548640, Note_off_c, 9, 38, 95
8, 548640, Note_on_c, 9, 36, 127
8, 549120, Note_off_c, 9, 36, 127
8, 549120, Note_on_c, 9, 38, 95
8, 549600, Note_off_c, 9, 38, 95
8, 549600, Note_on_c, 9, 36, 127
8, 550080, Note_off_c, 9, 36, 127
8, 550080, Note_on_c, 9, 38, 95
8, 550560, Note_off_c, 9, 38, 95
8, 550560, Note_on_c, 9, 36, 127
8, 550800, Note_off_c, 9, 36, 127
8, 550800, Note_on_c, 9, 38, 95
8, 551040, Note_off_c, 9, 38, 95
8, 551040, Note_on_c, 9, 38, 95
8, 551520, Note_off_c, 9, 38, 95
8, 551520, Note_on_c, 9, 36, 127
8, 552000, Note_off_c, 9, 36, 127
8, 552000, Note_on_c, 9, 38, 95
8, 552240, Note_off_c, 9, 38, 95
8, 552240, Note_on_c, 9, 47, 95
8, 552480, Note_off_c, 9, 47, 95
8, 552480, Note_on_c, 9, 45, 95
8, 552960, Note_off_c, 9, 45, 95
8, 552960, Note_on_c, 9, 57, 95
8, 552960, Note_on_c, 9, 36, 95
8, 553440, Note_off_c, 9, 57, 95
8, 553440, Note_off_c, 9, 36, 95
8, 553440, Note_on_c, 9, 46, 95
8, 553920, Note_off_c, 9, 46, 95
8, 553920, Note_on_c, 9, 46, 95
8, 553920, Note_on_c, 9, 38, 95
8, 554400, Note_off_c, 9, 46, 95
8, 554400, Note_off_c, 9, 38, 95
8, 554400, Note_on_c, 9, 46, 95
8, 554640, Note_on_c, 9, 36, 127
8, 554880, Note_off_c, 9, 46, 95
8, 554880, Note_off_c, 9, 36, 127
8, 554880, Note_on_c, 9, 46, 95
8, 554880, Note_on_c, 9, 36, 127
8, 555360, Note_off_c, 9, 46, 95
8, 555360, Note_off_c, 9, 36, 127
8, 555360, Note_on_c, 9, 46, 95
8, 555360, Note_on_c, 9, 36, 127
8, 555840, Note_off_c, 9, 46, 95
8, 555840, Note_off_c, 9, 36, 127
8, 555840, Note_on_c, 9, 46, 95
8, 555840, Note_on_c, 9, 38, 95
8, 556320, Note_off_c, 9, 46, 95
8, 556320, Note_off_c, 9, 38, 95
8, 556320, Note_on_c, 9, 46, 95
8, 556800, Note_off_c, 9, 46, 95
8, 556800, Note_on_c, 9, 46, 95
8, 556800, Note_on_c, 9, 36, 95
8, 557280, Note_off_c, 9, 46, 95
8, 557280, Note_off_c, 9, 36, 95
8, 557280, Note_on_c, 9, 46, 95
8, 557760, Note_off_c, 9, 46, 95
8, 557760, Note_on_c, 9, 46, 95
8, 557760, Note_on_c, 9, 38, 95
8, 558240, Note_off_c, 9, 46, 95
8, 558240, Note_off_c, 9, 38, 95
8, 558240, Note_on_c, 9, 46, 95
8, 558480, Note_on_c, 9, 36, 127
8, 558720, Note_off_c, 9, 46, 95
8, 558720, Note_off_c, 9, 36, 127
8, 558720, Note_on_c, 9, 46, 95
8, 558720, Note_on_c, 9, 36, 127
8, 559200, Note_off_c, 9, 46, 95
8, 559200, Note_off_c, 9, 36, 127
8, 559200, Note_on_c, 9, 46, 95
8, 559200, Note_on_c, 9, 36, 127
8, 559680, Note_off_c, 9, 46, 95
8, 559680, Note_off_c, 9, 36, 127
8, 559680, Note_on_c, 9, 46, 95
8, 559680, Note_on_c, 9, 38, 95
8, 560160, Note_off_c, 9, 46, 95
8, 560160, Note_off_c, 9, 38, 95
8, 560160, Note_on_c, 9, 46, 95
8, 560640, Note_off_c, 9, 46, 95
8, 560640, Note_on_c, 9, 46, 95
8, 560640, Note_on_c, 9, 36, 95
8, 561120, Note_off_c, 9, 46, 95
8, 561120, Note_off_c, 9, 36, 95
8, 561120, Note_on_c, 9, 46, 95
8, 561600, Note_off_c, 9, 46, 95
8, 561600, Note_on_c, 9, 46, 95
8, 561600, Note_on_c, 9, 38, 95
8, 562080, Note_off_c, 9, 46, 95
8, 562080, Note_off_c, 9, 38, 95
8, 562080, Note_on_c, 9, 46, 95
8, 562320, Note_on_c, 9, 36, 127
8, 562560, Note_off_c, 9, 46, 95
8, 562560, Note_off_c, 9, 36, 127
8, 562560, Note_on_c, 9, 46, 95
8, 562560, Note_on_c, 9, 36, 127
8, 563040, Note_off_c, 9, 46, 95
8, 563040, Note_off_c, 9, 36, 127
8, 563040, Note_on_c, 9, 46, 95
8, 563040, Note_on_c, 9, 36, 127
8, 563520, Note_off_c, 9, 46, 95
8, 563520, Note_off_c, 9, 36, 127
8, 563520, Note_on_c, 9, 46, 95
8, 563520, Note_on_c, 9, 38, 95
8, 564000, Note_off_c, 9, 46, 95
8, 564000, Note_off_c, 9, 38, 95
8, 564000, Note_on_c, 9, 46, 95
8, 564480, Note_off_c, 9, 46, 95
8, 564480, Note_on_c, 9, 46, 95
8, 564480, Note_on_c, 9, 36, 95
8, 564960, Note_off_c, 9, 46, 95
8, 564960, Note_off_c, 9, 36, 95
8, 564960, Note_on_c, 9, 46, 95
8, 565440, Note_off_c, 9, 46, 95
8, 565440, Note_on_c, 9, 46, 95
8, 565440, Note_on_c, 9, 38, 95
8, 565920, Note_off_c, 9, 46, 95
8, 565920, Note_off_c, 9, 38, 95
8, 565920, Note_on_c, 9, 46, 95
8, 566160, Note_on_c, 9, 36, 127
8, 566400, Note_off_c, 9, 46, 95
8, 566400, Note_off_c, 9, 36, 127
8, 566400, Note_on_c, 9, 46, 95
8, 566400, Note_on_c, 9, 36, 127
8, 566880, Note_off_c, 9, 46, 95
8, 566880, Note_off_c, 9, 36, 127
8, 566880, Note_on_c, 9, 46, 95
8, 566880, Note_on_c, 9, 36, 127
8, 567360, Note_off_c, 9, 46, 95
8, 567360, Note_off_c, 9, 36, 127
8, 567360, Note_on_c, 9, 46, 95
8, 567360, Note_on_c, 9, 38, 95
8, 567840, Note_off_c, 9, 46, 95
8, 567840, Note_off_c, 9, 38, 95
8, 567840, Note_on_c, 9, 46, 95
8, 568320, Note_off_c, 9, 46, 95
8, 568320, Note_on_c, 9, 46, 95
8, 568320, Note_on_c, 9, 36, 95
8, 568800, Note_off_c, 9, 46, 95
8, 568800, Note_off_c, 9, 36, 95
8, 568800, Note_on_c, 9, 46, 95
8, 569280, Note_off_c, 9, 46, 95
8, 569280, Note_on_c, 9, 46, 95
8, 569280, Note_on_c, 9, 38, 95
8, 569760, Note_off_c, 9, 46, 95
8, 569760, Note_off_c, 9, 38, 95
8, 569760, Note_on_c, 9, 46, 95
8, 570000, Note_on_c, 9, 36, 127
8, 570240, Note_off_c, 9, 46, 95
8, 570240, Note_off_c, 9, 36, 127
8, 570240, Note_on_c, 9, 46, 95
8, 570240, Note_on_c, 9, 36, 127
8, 570720, Note_off_c, 9, 46, 95
8, 570720, Note_off_c, 9, 36, 127
8, 570720, Note_on_c, 9, 46, 95
8, 570720, Note_on_c, 9, 36, 127
8, 571200, Note_off_c, 9, 46, 95
8, 571200, Note_off_c, 9, 36, 127
8, 571200, Note_on_c, 9, 46, 95
8, 571200, Note_on_c, 9, 38, 95
8, 571680, Note_off_c, 9, 46, 95
8, 571680, Note_off_c, 9, 38, 95
8, 571680, Note_on_c, 9, 46, 95
8, 572160, Note_off_c, 9, 46, 95
8, 572160, Note_on_c, 9, 46, 95
8, 572160, Note_on_c, 9, 36, 95
8, 572640, Note_off_c, 9, 46, 95
8, 572640, Note_off_c, 9, 36, 95
8, 572640, Note_on_c, 9, 46, 95
8, 573120, Note_off_c, 9, 46, 95
8, 573120, Note_on_c, 9, 46, 95
8, 573120, Note_on_c, 9, 38, 95
8, 573600, Note_off_c, 9, 46, 95
8, 573600, Note_off_c, 9, 38, 95
8, 573600, Note_on_c, 9, 46, 95
8, 573840, Note_on_c, 9, 36, 127
8, 574080, Note_off_c, 9, 46, 95
8, 574080, Note_off_c, 9, 36, 127
8, 574080, Note_on_c, 9, 46, 95
8, 574080, Note_on_c, 9, 36, 127
8, 574560, Note_off_c, 9, 46, 95
8, 574560, Note_off_c, 9, 36, 127
8, 574560, Note_on_c, 9, 46, 95
8, 574560, Note_on_c, 9, 36, 127
8, 575040, Note_off_c, 9, 46, 95
8, 575040, Note_off_c, 9, 36, 127
8, 575040, Note_on_c, 9, 46, 95
8, 575040, Note_on_c, 9, 38, 95
8, 575520, Note_off_c, 9, 46, 95
8, 575520, Note_off_c, 9, 38, 95
8, 575520, Note_on_c, 9, 46, 95
8, 576000, Note_off_c, 9, 46, 95
8, 576000, Note_on_c, 9, 46, 95
8, 576000, Note_on_c, 9, 36, 95
8, 576480, Note_off_c, 9, 46, 95
8, 576480, Note_off_c, 9, 36, 95
8, 576480, Note_on_c, 9, 46, 95
8, 576960, Note_off_c, 9, 46, 95
8, 576960, Note_on_c, 9, 46, 95
8, 576960, Note_on_c, 9, 38, 95
8, 577440, Note_off_c, 9, 46, 95
8, 577440, Note_off_c, 9, 38, 95
8, 577440, Note_on_c, 9, 46, 95
8, 577680, Note_on_c, 9, 36, 127
8, 577920, Note_off_c, 9, 46, 95
8, 577920, Note_off_c, 9, 36, 127
8, 577920, Note_on_c, 9, 46, 95
8, 577920, Note_on_c, 9, 36, 127
8, 578400, Note_off_c, 9, 46, 95
8, 578400, Note_off_c, 9, 36, 127
8, 578400, Note_on_c, 9, 46, 95
8, 578400, Note_on_c, 9, 36, 127
8, 578880, Note_off_c, 9, 46, 95
8, 578880, Note_off_c, 9, 36, 127
8, 578880, Note_on_c, 9, 46, 95
8, 578880, Note_on_c, 9, 38, 95
8, 579360, Note_off_c, 9, 46, 95
8, 579360, Note_off_c, 9, 38, 95
8, 579360, Note_on_c, 9, 46, 95
8, 579840, Note_off_c, 9, 46, 95
8, 579840, Note_on_c, 9, 46, 95
8, 579840, Note_on_c, 9, 36, 127
8, 580320, Note_off_c, 9, 46, 95
8, 580320, Note_off_c, 9, 36, 127
8, 580320, Note_on_c, 9, 46, 95
8, 580800, Note_off_c, 9, 46, 95
8, 580800, Note_on_c, 9, 46, 95
8, 580800, Note_on_c, 9, 38, 95
8, 581280, Note_off_c, 9, 46, 95
8, 581280, Note_off_c, 9, 38, 95
8, 581280, Note_on_c, 9, 46, 95
8, 581520, Note_on_c, 9, 38, 95
8, 581760, Note_off_c, 9, 46, 95
8, 581760, Note_off_c, 9, 38, 95
8, 581760, Note_on_c, 9, 38, 95
8, 581760, Note_on_c, 9, 36, 127
8, 582000, Note_off_c, 9, 38, 95
8, 582000, Note_off_c, 9, 36, 127
8, 582000, Note_on_c, 9, 47, 95
8, 582240, Note_off_c, 9, 47, 95
8, 582240, Note_on_c, 9, 38, 95
8, 582480, Note_off_c, 9, 38, 95
8, 582480, Note_on_c, 9, 38, 95
8, 582720, Note_off_c, 9, 38, 95
8, 582720, Note_on_c, 9, 38, 95
8, 582720, Note_on_c, 9, 36, 127
8, 582960, Note_off_c, 9, 38, 95
8, 582960, Note_off_c, 9, 36, 127
8, 582960, Note_on_c, 9, 47, 95
8, 583200, Note_off_c, 9, 47, 95
8, 583200, Note_on_c, 9, 45, 95
8, 583440, Note_off_c, 9, 45, 95
8, 583440, Note_on_c, 9, 43, 95
8, 583680, Note_off_c, 9, 43, 95
8, 583680, Note_on_c, 9, 57, 95
8, 583680, Note_on_c, 9, 36, 95
8, 584160, Note_off_c, 9, 57, 95
8, 584160, Note_off_c, 9, 36, 95
8, 584160, Note_on_c, 9, 46, 95
8, 584640, Note_off_c, 9, 46, 95
8, 584640, Note_on_c, 9, 49, 95
8, 584640, Note_on_c, 9, 38, 95
8, 585120, Note_off_c, 9, 49, 95
8, 585120, Note_off_c, 9, 38, 95
8, 585120, Note_on_c, 9, 46, 95
8, 585360, Note_on_c, 9, 36, 127
8, 585600, Note_off_c, 9, 46, 95
8, 585600, Note_off_c, 9, 36, 127
8, 585600, Note_on_c, 9, 46, 95
8, 585600, Note_on_c, 9, 36, 127
8, 586080, Note_off_c, 9, 46, 95
8, 586080, Note_off_c, 9, 36, 127
8, 586080, Note_on_c, 9, 46, 95
8, 586080, Note_on_c, 9, 36, 127
8, 586560, Note_off_c, 9, 46, 95
8, 586560, Note_off_c, 9, 36, 127
8, 586560, Note_on_c, 9, 46, 95
8, 586560, Note_on_c, 9, 38, 95
8, 587040, Note_off_c, 9, 46, 95
8, 587040, Note_off_c, 9, 38, 95
8, 587040, Note_on_c, 9, 46, 95
8, 587520, Note_off_c, 9, 46, 95
8, 587520, Note_on_c, 9, 46, 95
8, 587520, Note_on_c, 9, 36, 95
8, 588000, Note_off_c, 9, 46, 95
8, 588000, Note_off_c, 9, 36, 95
8, 588000, Note_on_c, 9, 46, 95
8, 588480, Note_off_c, 9, 46, 95
8, 588480, Note_on_c, 9, 46, 95
8, 588480, Note_on_c, 9, 38, 95
8, 588960, Note_off_c, 9, 46, 95
8, 588960, Note_off_c, 9, 38, 95
8, 588960, Note_on_c, 9, 46, 95
8, 589200, Note_on_c, 9, 36, 127
8, 589440, Note_off_c, 9, 46, 95
8, 589440, Note_off_c, 9, 36, 127
8, 589440, Note_on_c, 9, 46, 95
8, 589440, Note_on_c, 9, 36, 127
8, 589920, Note_off_c, 9, 46, 95
8, 589920, Note_off_c, 9, 36, 127
8, 589920, Note_on_c, 9, 46, 95
8, 589920, Note_on_c, 9, 36, 127
8, 590400, Note_off_c, 9, 46, 95
8, 590400, Note_off_c, 9, 36, 127
8, 590400, Note_on_c, 9, 46, 95
8, 590400, Note_on_c, 9, 38, 95
8, 590880, Note_off_c, 9, 46, 95
8, 590880, Note_off_c, 9, 38, 95
8, 590880, Note_on_c, 9, 46, 95
8, 591360, Note_off_c, 9, 46, 95
8, 591360, Note_on_c, 9, 46, 95
8, 591360, Note_on_c, 9, 36, 95
8, 591840, Note_off_c, 9, 46, 95
8, 591840, Note_off_c, 9, 36, 95
8, 591840, Note_on_c, 9, 46, 95
8, 592320, Note_off_c, 9, 46, 95
8, 592320, Note_on_c, 9, 46, 95
8, 592320, Note_on_c, 9, 38, 95
8, 592800, Note_off_c, 9, 46, 95
8, 592800, Note_off_c, 9, 38, 95
8, 592800, Note_on_c, 9, 46, 95
8, 593040, Note_on_c, 9, 36, 127
8, 593280, Note_off_c, 9, 46, 95
8, 593280, Note_off_c, 9, 36, 127
8, 593280, Note_on_c, 9, 46, 95
8, 593280, Note_on_c, 9, 36, 127
8, 593760, Note_off_c, 9, 46, 95
8, 593760, Note_off_c, 9, 36, 127
8, 593760, Note_on_c, 9, 46, 95
8, 593760, Note_on_c, 9, 36, 127
8, 594240, Note_off_c, 9, 46, 95
8, 594240, Note_off_c, 9, 36, 127
8, 594240, Note_on_c, 9, 46, 95
8, 594240, Note_on_c, 9, 38, 95
8, 594720, Note_off_c, 9, 46, 95
8, 594720, Note_off_c, 9, 38, 95
8, 594720, Note_on_c, 9, 46, 95
8, 595200, Note_off_c, 9, 46, 95
8, 595200, Note_on_c, 9, 46, 95
8, 595200, Note_on_c, 9, 36, 95
8, 595680, Note_off_c, 9, 46, 95
8, 595680, Note_off_c, 9, 36, 95
8, 595680, Note_on_c, 9, 46, 95
8, 596160, Note_off_c, 9, 46, 95
8, 596160, Note_on_c, 9, 46, 95
8, 596160, Note_on_c, 9, 38, 95
8, 596640, Note_off_c, 9, 46, 95
8, 596640, Note_off_c, 9, 38, 95
8, 596640, Note_on_c, 9, 46, 95
8, 596880, Note_on_c, 9, 36, 127
8, 597120, Note_off_c, 9, 46, 95
8, 597120, Note_off_c, 9, 36, 127
8, 597120, Note_on_c, 9, 46, 95
8, 597120, Note_on_c, 9, 36, 127
8, 597600, Note_off_c, 9, 46, 95
8, 597600, Note_off_c, 9, 36, 127
8, 597600, Note_on_c, 9, 46, 95
8, 597600, Note_on_c, 9, 36, 127
8, 598080, Note_off_c, 9, 46, 95
8, 598080, Note_off_c, 9, 36, 127
8, 598080, Note_on_c, 9, 46, 95
8, 598080, Note_on_c, 9, 38, 95
8, 598560, Note_off_c, 9, 46, 95
8, 598560, Note_off_c, 9, 38, 95
8, 598560, Note_on_c, 9, 46, 95
8, 599040, Note_off_c, 9, 46, 95
8, 599040, Note_on_c, 9, 46, 95
8, 599040, Note_on_c, 9, 36, 95
8, 599520, Note_off_c, 9, 46, 95
8, 599520, Note_off_c, 9, 36, 95
8, 599520, Note_on_c, 9, 46, 95
8, 600000, Note_off_c, 9, 46, 95
8, 600000, Note_on_c, 9, 46, 95
8, 600000, Note_on_c, 9, 38, 95
8, 600480, Note_off_c, 9, 46, 95
8, 600480, Note_off_c, 9, 38, 95
8, 600480, Note_on_c, 9, 46, 95
8, 600720, Note_on_c, 9, 36, 127
8, 600960, Note_off_c, 9, 46, 95
8, 600960, Note_off_c, 9, 36, 127
8, 600960, Note_on_c, 9, 46, 95
8, 600960, Note_on_c, 9, 36, 127
8, 601440, Note_off_c, 9, 46, 95
8, 601440, Note_off_c, 9, 36, 127
8, 601440, Note_on_c, 9, 46, 95
8, 601440, Note_on_c, 9, 36, 127
8, 601920, Note_off_c, 9, 46, 95
8, 601920, Note_off_c, 9, 36, 127
8, 601920, Note_on_c, 9, 46, 95
8, 601920, Note_on_c, 9, 38, 95
8, 602400, Note_off_c, 9, 46, 95
8, 602400, Note_off_c, 9, 38, 95
8, 602400, Note_on_c, 9, 46, 95
8, 602880, Note_off_c, 9, 46, 95
8, 602880, Note_on_c, 9, 46, 95
8, 602880, Note_on_c, 9, 36, 95
8, 603360, Note_off_c, 9, 46, 95
8, 603360, Note_off_c, 9, 36, 95
8, 603360, Note_on_c, 9, 46, 95
8, 603840, Note_off_c, 9, 46, 95
8, 603840, Note_on_c, 9, 46, 95
8, 603840, Note_on_c, 9, 38, 95
8, 604320, Note_off_c, 9, 46, 95
8, 604320, Note_off_c, 9, 38, 95
8, 604320, Note_on_c, 9, 46, 95
8, 604560, Note_on_c, 9, 36, 127
8, 604800, Note_off_c, 9, 46, 95
8, 604800, Note_off_c, 9, 36, 127
8, 604800, Note_on_c, 9, 46, 95
8, 604800, Note_on_c, 9, 36, 127
8, 605280, Note_off_c, 9, 46, 95
8, 605280, Note_off_c, 9, 36, 127
8, 605280, Note_on_c, 9, 46, 95
8, 605280, Note_on_c, 9, 36, 127
8, 605760, Note_off_c, 9, 46, 95
8, 605760, Note_off_c, 9, 36, 127
8, 605760, Note_on_c, 9, 46, 95
8, 605760, Note_on_c, 9, 38, 95
8, 606240, Note_off_c, 9, 46, 95
8, 606240, Note_off_c, 9, 38, 95
8, 606240, Note_on_c, 9, 46, 95
8, 606720, Note_off_c, 9, 46, 95
8, 606720, Note_on_c, 9, 46, 95
8, 606720, Note_on_c, 9, 36, 95
8, 607200, Note_off_c, 9, 46, 95
8, 607200, Note_off_c, 9, 36, 95
8, 607200, Note_on_c, 9, 46, 95
8, 607680, Note_off_c, 9, 46, 95
8, 607680, Note_on_c, 9, 46, 95
8, 607680, Note_on_c, 9, 38, 95
8, 608160, Note_off_c, 9, 46, 95
8, 608160, Note_off_c, 9, 38, 95
8, 608160, Note_on_c, 9, 46, 95
8, 608400, Note_on_c, 9, 36, 127
8, 608640, Note_off_c, 9, 46, 95
8, 608640, Note_off_c, 9, 36, 127
8, 608640, Note_on_c, 9, 46, 95
8, 608640, Note_on_c, 9, 36, 127
8, 609120, Note_off_c, 9, 46, 95
8, 609120, Note_off_c, 9, 36, 127
8, 609120, Note_on_c, 9, 46, 95
8, 609120, Note_on_c, 9, 36, 127
8, 609600, Note_off_c, 9, 46, 95
8, 609600, Note_off_c, 9, 36, 127
8, 609600, Note_on_c, 9, 46, 95
8, 609600, Note_on_c, 9, 38, 95
8, 610080, Note_off_c, 9, 46, 95
8, 610080, Note_off_c, 9, 38, 95
8, 610080, Note_on_c, 9, 46, 95
8, 610560, Note_off_c, 9, 46, 95
8, 610560, Note_on_c, 9, 46, 95
8, 610560, Note_on_c, 9, 36, 95
8, 611040, Note_off_c, 9, 46, 95
8, 611040, Note_off_c, 9, 36, 95
8, 611040, Note_on_c, 9, 46, 95
8, 611520, Note_off_c, 9, 46, 95
8, 611520, Note_on_c, 9, 46, 95
8, 611520, Note_on_c, 9, 38, 95
8, 612000, Note_off_c, 9, 46, 95
8, 612000, Note_off_c, 9, 38, 95
8, 612000, Note_on_c, 9, 46, 95
8, 612240, Note_on_c, 9, 38, 95
8, 612480, Note_off_c, 9, 46, 95
8, 612480, Note_off_c, 9, 38, 95
8, 612480, Note_on_c, 9, 38, 95
8, 612480, Note_on_c, 9, 36, 127
8, 612720, Note_off_c, 9, 38, 95
8, 612720, Note_off_c, 9, 36, 127
8, 612720, Note_on_c, 9, 38, 95
8, 612960, Note_off_c, 9, 38, 95
8, 612960, Note_on_c, 9, 38, 95
8, 613200, Note_off_c, 9, 38, 95
8, 613200, Note_on_c, 9, 38, 95
8, 613440, Note_off_c, 9, 38, 95
8, 613440, Note_on_c, 9, 38, 95
8, 613680, Note_off_c, 9, 38, 95
8, 613680, Note_on_c, 9, 47, 95
8, 613920, Note_off_c, 9, 47, 95
8, 613920, Note_on_c, 9, 45, 95
8, 614160, Note_off_c, 9, 45, 95
8, 614160, Note_on_c, 9, 43, 95
8, 614400, Note_off_c, 9, 43, 95
8, 614400, Note_on_c, 9, 57, 95
8, 614400, Note_on_c, 9, 36, 95
8, 614880, Note_off_c, 9, 57, 95
8, 614880, Note_off_c, 9, 36, 95
8, 614880, Note_on_c, 9, 46, 95
8, 615360, Note_off_c, 9, 46, 95
8, 615360, Note_on_c, 9, 46, 95
8, 615360, Note_on_c, 9, 38, 95
8, 615840, Note_off_c, 9, 46, 95
8, 615840, Note_off_c, 9, 38, 95
8, 615840, Note_on_c, 9, 46, 95
8, 616080, Note_on_c, 9, 36, 127
8, 616320, Note_off_c, 9, 46, 95
8, 616320, Note_off_c, 9, 36, 127
8, 616320, Note_on_c, 9, 46, 95
8, 616320, Note_on_c, 9, 36, 127
8, 616800, Note_off_c, 9, 46, 95
8, 616800, Note_off_c, 9, 36, 127
8, 616800, Note_on_c, 9, 46, 95
8, 616800, Note_on_c, 9, 36, 127
8, 617280, Note_off_c, 9, 46, 95
8, 617280, Note_off_c, 9, 36, 127
8, 617280, Note_on_c, 9, 46, 95
8, 617280, Note_on_c, 9, 38, 95
8, 617760, Note_off_c, 9, 46, 95
8, 617760, Note_off_c, 9, 38, 95
8, 617760, Note_on_c, 9, 46, 95
8, 618240, Note_off_c, 9, 46, 95
8, 618240, Note_on_c, 9, 46, 95
8, 618240, Note_on_c, 9, 36, 127
8, 618720, Note_off_c, 9, 46, 95
8, 618720, Note_off_c, 9, 36, 127
8, 618720, Note_on_c, 9, 46, 95
8, 619200, Note_off_c, 9, 46, 95
8, 619200, Note_on_c, 9, 46, 95
8, 619200, Note_on_c, 9, 38, 95
8, 619680, Note_off_c, 9, 46, 95
8, 619680, Note_off_c, 9, 38, 95
8, 619680, Note_on_c, 9, 46, 95
8, 619920, Note_on_c, 9, 38, 95
8, 620160, Note_off_c, 9, 46, 95
8, 620160, Note_off_c, 9, 38, 95
8, 620160, Note_on_c, 9, 47, 95
8, 620160, Note_on_c, 9, 36, 127
8, 620400, Note_off_c, 9, 47, 95
8, 620400, Note_off_c, 9, 36, 127
8, 620400, Note_on_c, 9, 45, 95
8, 620640, Note_off_c, 9, 45, 95
8, 620640, Note_on_c, 9, 43, 95
8, 620880, Note_off_c, 9, 43, 95
8, 620880, Note_on_c, 9, 41, 95
8, 621120, Note_off_c, 9, 41, 95
8, 621120, Note_on_c, 9, 41, 95
8, 621360, Note_off_c, 9, 41, 95
8, 621360, Note_on_c, 9, 38, 95
8, 621600, Note_off_c, 9, 38, 95
8, 621600, Note_on_c, 9, 38, 95
8, 621840, Note_off_c, 9, 38, 95
8, 621840, Note_on_c, 9, 38, 95
8, 622080, Note_off_c, 9, 38, 95
8, 622080, End_track
0, 0, End_of_file
