0, 0, Header, 1, 6, 960
1, 0, Start_track
1, 0, Control_c, 0, 101, 0
1, 0, Control_c, 0, 100, 0
1, 0, Control_c, 0, 6, 12
1, 0, Control_c, 0, 38, 0
1, 0, Control_c, 1, 101, 0
1, 0, Control_c, 1, 100, 0
1, 0, Control_c, 1, 6, 12
1, 0, Control_c, 1, 38, 0
1, 0, Control_c, 2, 101, 0
1, 0, Control_c, 2, 100, 0
1, 0, Control_c, 2, 6, 12
1, 0, Control_c, 2, 38, 0
1, 0, Control_c, 3, 101, 0
1, 0, Control_c, 3, 100, 0
1, 0, Control_c, 3, 6, 12
1, 0, Control_c, 3, 38, 0
1, 0, Control_c, 4, 101, 0
1, 0, Control_c, 4, 100, 0
1, 0, Control_c, 4, 6, 12
1, 0, Control_c, 4, 38, 0
1, 0, Control_c, 5, 101, 0
1, 0, Control_c, 5, 100, 0
1, 0, Control_c, 5, 6, 12
1, 0, Control_c, 5, 38, 0
1, 0, Control_c, 6, 101, 0
1, 0, Control_c, 6, 100, 0
1, 0, Control_c, 6, 6, 12
1, 0, Control_c, 6, 38, 0
1, 0, Control_c, 7, 101, 0
1, 0, Control_c, 7, 100, 0
1, 0, Control_c, 7, 6, 12
1, 0, Control_c, 7, 38, 0
1, 0, Control_c, 8, 101, 0
1, 0, Control_c, 8, 100, 0
1, 0, Control_c, 8, 6, 12
1, 0, Control_c, 8, 38, 0
1, 0, Control_c, 9, 101, 0
1, 0, Control_c, 9, 100, 0
1, 0, Control_c, 9, 6, 12
1, 0, Control_c, 9, 38, 0
1, 0, Control_c, 10, 101, 0
1, 0, Control_c, 10, 100, 0
1, 0, Control_c, 10, 6, 12
1, 0, Control_c, 10, 38, 0
1, 0, Control_c, 11, 101, 0
1, 0, Control_c, 11, 100, 0
1, 0, Control_c, 11, 6, 12
1, 0, Control_c, 11, 38, 0
1, 0, Control_c, 12, 101, 0
1, 0, Control_c, 12, 100, 0
1, 0, Control_c, 12, 6, 12
1, 0, Control_c, 12, 38, 0
1, 0, Control_c, 13, 101, 0
1, 0, Control_c, 13, 100, 0
1, 0, Control_c, 13, 6, 12
1, 0, Control_c, 13, 38, 0
1, 0, Control_c, 14, 101, 0
1, 0, Control_c, 14, 100, 0
1, 0, Control_c, 14, 6, 12
1, 0, Control_c, 14, 38, 0
1, 0, Control_c, 15, 101, 0
1, 0, Control_c, 15, 100, 0
1, 0, Control_c, 15, 6, 12
1, 0, Control_c, 15, 38, 0
1, 0, Time_signature, 4, 2, 24, 8
1, 0, Tempo, 480000
1, 0, End_track
2, 0, Start_track
2, 0, Pitch_bend_c, 0, 8192
2, 0, Control_c, 0, 7, 95
2, 0, Control_c, 0, 10, 63
2, 0, Control_c, 0, 93, 0
2, 0, Control_c, 0, 91, 0
2, 0, Control_c, 0, 95, 0
2, 0, Control_c, 0, 92, 0
2, 0, Control_c, 0, 11, 127
2, 0, Program_c, 0, 28
2, 0, Control_c, 1, 7, 95
2, 0, Control_c, 1, 10, 63
2, 0, Control_c, 1, 93, 0
2, 0, Control_c, 1, 91, 0
2, 0, Control_c, 1, 95, 0
2, 0, Control_c, 1, 92, 0
2, 0, Control_c, 1, 11, 127
2, 0, Program_c, 1, 28
2, 12000, Note_on_c, 0, 45, 95
2, 12480, Note_off_c, 0, 45, 95
2, 12480, Note_on_c, 0, 57, 95
2, 12960, Note_off_c, 0, 57, 95
2, 13440, Note_on_c, 0, 45, 95
2, 13920, Note_off_c, 0, 45, 95
2, 14160, Note_on_c, 0, 57, 95
2, 14640, Note_off_c, 0, 57, 95
2, 14880, Note_on_c, 0, 45, 95
2, 15360, Note_off_c, 0, 45, 95
2, 15840, Note_on_c, 0, 45, 95
2, 16320, Note_off_c, 0, 45, 95
2, 16320, Note_on_c, 0, 57, 95
2, 16800, Note_off_c, 0, 57, 95
2, 17280, Note_on_c, 0, 45, 95
2, 17760, Note_off_c, 0, 45, 95
2, 18000, Note_on_c, 0, 57, 95
2, 18480, Note_off_c, 0, 57, 95
2, 18720, Note_on_c, 0, 45, 95
2, 19200, Note_off_c, 0, 45, 95
2, 19680, Note_on_c, 0, 45, 95
2, 20160, Note_off_c, 0, 45, 95
2, 20160, Note_on_c, 0, 57, 95
2, 20640, Note_off_c, 0, 57, 95
2, 21120, Note_on_c, 0, 45, 95
2, 21600, Note_off_c, 0, 45, 95
2, 21840, Note_on_c, 0, 57, 95
2, 22320, Note_off_c, 0, 57, 95
2, 22560, Note_on_c, 0, 45, 95
2, 23040, Note_off_c, 0, 45, 95
2, 23520, Note_on_c, 0, 45, 95
2, 24000, Note_off_c, 0, 45, 95
2, 24000, Note_on_c, 0, 57, 95
2, 24480, Note_off_c, 0, 57, 95
2, 24960, Note_on_c, 0, 45, 95
2, 25440, Note_off_c, 0, 45, 95
2, 25680, Note_on_c, 0, 57, 95
2, 26160, Note_off_c, 0, 57, 95
2, 26400, Note_on_c, 0, 45, 95
2, 26880, Note_off_c, 0, 45, 95
2, 27360, Note_on_c, 0, 66, 95
2, 27360, Note_on_c, 0, 62, 95
2, 27360, Note_on_c, 0, 57, 95
2, 27360, Note_on_c, 0, 50, 95
2, 27840, Note_off_c, 0, 66, 95
2, 27840, Note_off_c, 0, 62, 95
2, 27840, Note_off_c, 0, 57, 95
2, 27840, Note_off_c, 0, 50, 95
2, 28080, Note_on_c, 0, 64, 95
2, 28080, Note_on_c, 0, 61, 95
2, 28080, Note_on_c, 0, 55, 95
2, 28080, Note_on_c, 0, 49, 95
2, 28560, Note_off_c, 0, 64, 95
2, 28560, Note_off_c, 0, 61, 95
2, 28560, Note_off_c, 0, 55, 95
2, 28560, Note_off_c, 0, 49, 95
2, 28800, Note_on_c, 0, 64, 95
2, 28800, Note_on_c, 0, 61, 95
2, 28800, Note_on_c, 0, 57, 95
2, 28800, Note_on_c, 0, 52, 95
2, 28800, Note_on_c, 0, 45, 95
2, 29760, Note_off_c, 0, 64, 95
2, 29760, Note_off_c, 0, 61, 95
2, 29760, Note_off_c, 0, 57, 95
2, 29760, Note_off_c, 0, 52, 95
2, 29760, Note_off_c, 0, 45, 95
2, 31200, Note_on_c, 0, 66, 95
2, 31200, Note_on_c, 0, 62, 95
2, 31200, Note_on_c, 0, 57, 95
2, 31200, Note_on_c, 0, 50, 95
2, 31680, Note_off_c, 0, 66, 95
2, 31680, Note_off_c, 0, 62, 95
2, 31680, Note_off_c, 0, 57, 95
2, 31680, Note_off_c, 0, 50, 95
2, 31920, Note_on_c, 0, 64, 95
2, 31920, Note_on_c, 0, 61, 95
2, 31920, Note_on_c, 0, 55, 95
2, 31920, Note_on_c, 0, 49, 95
2, 32400, Note_off_c, 0, 64, 95
2, 32400, Note_off_c, 0, 61, 95
2, 32400, Note_off_c, 0, 55, 95
2, 32400, Note_off_c, 0, 49, 95
2, 32640, Note_on_c, 0, 64, 95
2, 32640, Note_on_c, 0, 61, 95
2, 32640, Note_on_c, 0, 57, 95
2, 32640, Note_on_c, 0, 52, 95
2, 32640, Note_on_c, 0, 45, 95
2, 33600, Note_off_c, 0, 64, 95
2, 33600, Note_off_c, 0, 61, 95
2, 33600, Note_off_c, 0, 57, 95
2, 33600, Note_off_c, 0, 52, 95
2, 33600, Note_off_c, 0, 45, 95
2, 35040, Note_on_c, 0, 66, 95
2, 35040, Note_on_c, 0, 62, 95
2, 35040, Note_on_c, 0, 57, 95
2, 35040, Note_on_c, 0, 50, 95
2, 35520, Note_off_c, 0, 66, 95
2, 35520, Note_off_c, 0, 62, 95
2, 35520, Note_off_c, 0, 57, 95
2, 35520, Note_off_c, 0, 50, 95
2, 35760, Note_on_c, 0, 64, 95
2, 35760, Note_on_c, 0, 61, 95
2, 35760, Note_on_c, 0, 55, 95
2, 35760, Note_on_c, 0, 49, 95
2, 36240, Note_off_c, 0, 64, 95
2, 36240, Note_off_c, 0, 61, 95
2, 36240, Note_off_c, 0, 55, 95
2, 36240, Note_off_c, 0, 49, 95
2, 36480, Note_on_c, 0, 64, 95
2, 36480, Note_on_c, 0, 61, 95
2, 36480, Note_on_c, 0, 57, 95
2, 36480, Note_on_c, 0, 52, 95
2, 36480, Note_on_c, 0, 45, 95
2, 37440, Note_off_c, 0, 64, 95
2, 37440, Note_off_c, 0, 61, 95
2, 37440, Note_off_c, 0, 57, 95
2, 37440, Note_off_c, 0, 52, 95
2, 37440, Note_off_c, 0, 45, 95
2, 38880, Note_on_c, 0, 66, 95
2, 38880, Note_on_c, 0, 62, 95
2, 38880, Note_on_c, 0, 57, 95
2, 38880, Note_on_c, 0, 50, 95
2, 39360, Note_off_c, 0, 66, 95
2, 39360, Note_off_c, 0, 62, 95
2, 39360, Note_off_c, 0, 57, 95
2, 39360, Note_off_c, 0, 50, 95
2, 39600, Note_on_c, 0, 64, 95
2, 39600, Note_on_c, 0, 61, 95
2, 39600, Note_on_c, 0, 55, 95
2, 39600, Note_on_c, 0, 49, 95
2, 40080, Note_off_c, 0, 64, 95
2, 40080, Note_off_c, 0, 61, 95
2, 40080, Note_off_c, 0, 55, 95
2, 40080, Note_off_c, 0, 49, 95
2, 40320, Note_on_c, 0, 64, 95
2, 40320, Note_on_c, 0, 61, 95
2, 40320, Note_on_c, 0, 57, 95
2, 40320, Note_on_c, 0, 52, 95
2, 40320, Note_on_c, 0, 45, 95
2, 41280, Note_off_c, 0, 64, 95
2, 41280, Note_off_c, 0, 61, 95
2, 41280, Note_off_c, 0, 57, 95
2, 41280, Note_off_c, 0, 52, 95
2, 41280, Note_off_c, 0, 45, 95
2, 42240, Note_on_c, 0, 66, 95
2, 42240, Note_on_c, 0, 62, 95
2, 42240, Note_on_c, 0, 57, 95
2, 42240, Note_on_c, 0, 50, 95
2, 43200, Note_off_c, 0, 66, 95
2, 43200, Note_off_c, 0, 62, 95
2, 43200, Note_off_c, 0, 57, 95
2, 43200, Note_off_c, 0, 50, 95
2, 43200, Note_on_c, 0, 50, 95
2, 43680, Note_off_c, 0, 50, 95
2, 43680, Note_on_c, 0, 66, 79
2, 43680, Note_on_c, 0, 62, 79
2, 43680, Note_on_c, 0, 57, 79
2, 46080, Note_off_c, 0, 66, 79
2, 46080, Note_off_c, 0, 62, 79
2, 46080, Note_off_c, 0, 57, 79
2, 46080, Note_on_c, 0, 66, 95
2, 46080, Note_on_c, 0, 62, 95
2, 46080, Note_on_c, 0, 59, 95
2, 46080, Note_on_c, 0, 54, 95
2, 46080, Note_on_c, 0, 47, 95
2, 46080, Note_on_c, 0, 42, 95
2, 47040, Note_off_c, 0, 66, 95
2, 47040, Note_off_c, 0, 62, 95
2, 47040, Note_off_c, 0, 59, 95
2, 47040, Note_off_c, 0, 54, 95
2, 47040, Note_off_c, 0, 47, 95
2, 47040, Note_off_c, 0, 42, 95
2, 47040, Note_on_c, 0, 47, 95
2, 47520, Note_off_c, 0, 47, 95
2, 47520, Note_on_c, 0, 62, 79
2, 47520, Note_on_c, 0, 59, 79
2, 47520, Note_on_c, 0, 54, 79
2, 49920, Note_off_c, 0, 62, 79
2, 49920, Note_off_c, 0, 59, 79
2, 49920, Note_off_c, 0, 54, 79
2, 50400, Note_on_c, 0, 66, 95
2, 50400, Note_on_c, 0, 62, 95
2, 50400, Note_on_c, 0, 57, 95
2, 50400, Note_on_c, 0, 50, 95
2, 50880, Note_off_c, 0, 66, 95
2, 50880, Note_off_c, 0, 62, 95
2, 50880, Note_off_c, 0, 57, 95
2, 50880, Note_off_c, 0, 50, 95
2, 51120, Note_on_c, 0, 64, 95
2, 51120, Note_on_c, 0, 61, 95
2, 51120, Note_on_c, 0, 55, 95
2, 51120, Note_on_c, 0, 49, 95
2, 51600, Note_off_c, 0, 64, 95
2, 51600, Note_off_c, 0, 61, 95
2, 51600, Note_off_c, 0, 55, 95
2, 51600, Note_off_c, 0, 49, 95
2, 51840, Note_on_c, 0, 64, 95
2, 51840, Note_on_c, 0, 61, 95
2, 51840, Note_on_c, 0, 57, 95
2, 51840, Note_on_c, 0, 52, 95
2, 51840, Note_on_c, 0, 45, 95
2, 52800, Note_off_c, 0, 64, 95
2, 52800, Note_off_c, 0, 61, 95
2, 52800, Note_off_c, 0, 57, 95
2, 52800, Note_off_c, 0, 52, 95
2, 52800, Note_off_c, 0, 45, 95
2, 54240, Note_on_c, 0, 66, 95
2, 54240, Note_on_c, 0, 62, 95
2, 54240, Note_on_c, 0, 57, 95
2, 54240, Note_on_c, 0, 50, 95
2, 54720, Note_off_c, 0, 66, 95
2, 54720, Note_off_c, 0, 62, 95
2, 54720, Note_off_c, 0, 57, 95
2, 54720, Note_off_c, 0, 50, 95
2, 54960, Note_on_c, 0, 64, 95
2, 54960, Note_on_c, 0, 61, 95
2, 54960, Note_on_c, 0, 55, 95
2, 54960, Note_on_c, 0, 49, 95
2, 55440, Note_off_c, 0, 64, 95
2, 55440, Note_off_c, 0, 61, 95
2, 55440, Note_off_c, 0, 55, 95
2, 55440, Note_off_c, 0, 49, 95
2, 55680, Note_on_c, 0, 64, 95
2, 55680, Note_on_c, 0, 61, 95
2, 55680, Note_on_c, 0, 57, 95
2, 55680, Note_on_c, 0, 52, 95
2, 55680, Note_on_c, 0, 45, 95
2, 56640, Note_off_c, 0, 64, 95
2, 56640, Note_off_c, 0, 61, 95
2, 56640, Note_off_c, 0, 57, 95
2, 56640, Note_off_c, 0, 52, 95
2, 56640, Note_off_c, 0, 45, 95
2, 57600, Note_on_c, 0, 66, 95
2, 57600, Note_on_c, 0, 62, 95
2, 57600, Note_on_c, 0, 57, 95
2, 57600, Note_on_c, 0, 50, 95
2, 61440, Note_off_c, 0, 66, 95
2, 61440, Note_off_c, 0, 62, 95
2, 61440, Note_off_c, 0, 57, 95
2, 61440, Note_off_c, 0, 50, 95
2, 61440, Note_on_c, 0, 61, 95
2, 61440, Note_on_c, 0, 57, 95
2, 61440, Note_on_c, 0, 52, 95
2, 61440, Note_on_c, 0, 45, 95
2, 65280, Note_off_c, 0, 61, 95
2, 65280, Note_off_c, 0, 57, 95
2, 65280, Note_off_c, 0, 52, 95
2, 65280, Note_off_c, 0, 45, 95
2, 65280, Note_on_c, 0, 66, 95
2, 65280, Note_on_c, 0, 62, 95
2, 65280, Note_on_c, 0, 57, 95
2, 65280, Note_on_c, 0, 50, 95
2, 68640, Note_off_c, 0, 66, 95
2, 68640, Note_off_c, 0, 62, 95
2, 68640, Note_off_c, 0, 57, 95
2, 68640, Note_off_c, 0, 50, 95
2, 68640, Note_on_c, 0, 66, 95
2, 68640, Note_on_c, 0, 62, 95
2, 68640, Note_on_c, 0, 57, 95
2, 68640, Note_on_c, 0, 50, 95
2, 71520, Note_off_c, 0, 66, 95
2, 71520, Note_off_c, 0, 62, 95
2, 71520, Note_off_c, 0, 57, 95
2, 71520, Note_off_c, 0, 50, 95
2, 73440, Note_on_c, 0, 66, 95
2, 73440, Note_on_c, 0, 62, 95
2, 73440, Note_on_c, 0, 57, 95
2, 73440, Note_on_c, 0, 50, 95
2, 73920, Note_off_c, 0, 66, 95
2, 73920, Note_off_c, 0, 62, 95
2, 73920, Note_off_c, 0, 57, 95
2, 73920, Note_off_c, 0, 50, 95
2, 74160, Note_on_c, 0, 64, 95
2, 74160, Note_on_c, 0, 61, 95
2, 74160, Note_on_c, 0, 55, 95
2, 74160, Note_on_c, 0, 49, 95
2, 74640, Note_off_c, 0, 64, 95
2, 74640, Note_off_c, 0, 61, 95
2, 74640, Note_off_c, 0, 55, 95
2, 74640, Note_off_c, 0, 49, 95
2, 74880, Note_on_c, 0, 64, 95
2, 74880, Note_on_c, 0, 61, 95
2, 74880, Note_on_c, 0, 57, 95
2, 74880, Note_on_c, 0, 52, 95
2, 74880, Note_on_c, 0, 45, 95
2, 75840, Note_off_c, 0, 64, 95
2, 75840, Note_off_c, 0, 61, 95
2, 75840, Note_off_c, 0, 57, 95
2, 75840, Note_off_c, 0, 52, 95
2, 75840, Note_off_c, 0, 45, 95
2, 77280, Note_on_c, 0, 66, 95
2, 77280, Note_on_c, 0, 62, 95
2, 77280, Note_on_c, 0, 57, 95
2, 77280, Note_on_c, 0, 50, 95
2, 77760, Note_off_c, 0, 66, 95
2, 77760, Note_off_c, 0, 62, 95
2, 77760, Note_off_c, 0, 57, 95
2, 77760, Note_off_c, 0, 50, 95
2, 78000, Note_on_c, 0, 64, 95
2, 78000, Note_on_c, 0, 61, 95
2, 78000, Note_on_c, 0, 55, 95
2, 78000, Note_on_c, 0, 49, 95
2, 78480, Note_off_c, 0, 64, 95
2, 78480, Note_off_c, 0, 61, 95
2, 78480, Note_off_c, 0, 55, 95
2, 78480, Note_off_c, 0, 49, 95
2, 78720, Note_on_c, 0, 64, 95
2, 78720, Note_on_c, 0, 61, 95
2, 78720, Note_on_c, 0, 57, 95
2, 78720, Note_on_c, 0, 52, 95
2, 78720, Note_on_c, 0, 45, 95
2, 79680, Note_off_c, 0, 64, 95
2, 79680, Note_off_c, 0, 61, 95
2, 79680, Note_off_c, 0, 57, 95
2, 79680, Note_off_c, 0, 52, 95
2, 79680, Note_off_c, 0, 45, 95
2, 81120, Note_on_c, 0, 66, 95
2, 81120, Note_on_c, 0, 62, 95
2, 81120, Note_on_c, 0, 57, 95
2, 81120, Note_on_c, 0, 50, 95
2, 81600, Note_off_c, 0, 66, 95
2, 81600, Note_off_c, 0, 62, 95
2, 81600, Note_off_c, 0, 57, 95
2, 81600, Note_off_c, 0, 50, 95
2, 81840, Note_on_c, 0, 64, 95
2, 81840, Note_on_c, 0, 61, 95
2, 81840, Note_on_c, 0, 55, 95
2, 81840, Note_on_c, 0, 49, 95
2, 82320, Note_off_c, 0, 64, 95
2, 82320, Note_off_c, 0, 61, 95
2, 82320, Note_off_c, 0, 55, 95
2, 82320, Note_off_c, 0, 49, 95
2, 82560, Note_on_c, 0, 64, 95
2, 82560, Note_on_c, 0, 61, 95
2, 82560, Note_on_c, 0, 57, 95
2, 82560, Note_on_c, 0, 52, 95
2, 82560, Note_on_c, 0, 45, 95
2, 83520, Note_off_c, 0, 64, 95
2, 83520, Note_off_c, 0, 61, 95
2, 83520, Note_off_c, 0, 57, 95
2, 83520, Note_off_c, 0, 52, 95
2, 83520, Note_off_c, 0, 45, 95
2, 84960, Note_on_c, 0, 66, 95
2, 84960, Note_on_c, 0, 62, 95
2, 84960, Note_on_c, 0, 57, 95
2, 84960, Note_on_c, 0, 50, 95
2, 85440, Note_off_c, 0, 66, 95
2, 85440, Note_off_c, 0, 62, 95
2, 85440, Note_off_c, 0, 57, 95
2, 85440, Note_off_c, 0, 50, 95
2, 85680, Note_on_c, 0, 64, 95
2, 85680, Note_on_c, 0, 61, 95
2, 85680, Note_on_c, 0, 55, 95
2, 85680, Note_on_c, 0, 49, 95
2, 86160, Note_off_c, 0, 64, 95
2, 86160, Note_off_c, 0, 61, 95
2, 86160, Note_off_c, 0, 55, 95
2, 86160, Note_off_c, 0, 49, 95
2, 86400, Note_on_c, 0, 64, 95
2, 86400, Note_on_c, 0, 61, 95
2, 86400, Note_on_c, 0, 57, 95
2, 86400, Note_on_c, 0, 52, 95
2, 86400, Note_on_c, 0, 45, 95
2, 87360, Note_off_c, 0, 64, 95
2, 87360, Note_off_c, 0, 61, 95
2, 87360, Note_off_c, 0, 57, 95
2, 87360, Note_off_c, 0, 52, 95
2, 87360, Note_off_c, 0, 45, 95
2, 88800, Note_on_c, 0, 66, 95
2, 88800, Note_on_c, 0, 62, 95
2, 88800, Note_on_c, 0, 57, 95
2, 88800, Note_on_c, 0, 50, 95
2, 89280, Note_off_c, 0, 66, 95
2, 89280, Note_off_c, 0, 62, 95
2, 89280, Note_off_c, 0, 57, 95
2, 89280, Note_off_c, 0, 50, 95
2, 89520, Note_on_c, 0, 64, 95
2, 89520, Note_on_c, 0, 61, 95
2, 89520, Note_on_c, 0, 55, 95
2, 89520, Note_on_c, 0, 49, 95
2, 90000, Note_off_c, 0, 64, 95
2, 90000, Note_off_c, 0, 61, 95
2, 90000, Note_off_c, 0, 55, 95
2, 90000, Note_off_c, 0, 49, 95
2, 90240, Note_on_c, 0, 64, 95
2, 90240, Note_on_c, 0, 61, 95
2, 90240, Note_on_c, 0, 57, 95
2, 90240, Note_on_c, 0, 52, 95
2, 90240, Note_on_c, 0, 45, 95
2, 91200, Note_off_c, 0, 64, 95
2, 91200, Note_off_c, 0, 61, 95
2, 91200, Note_off_c, 0, 57, 95
2, 91200, Note_off_c, 0, 52, 95
2, 91200, Note_off_c, 0, 45, 95
2, 92640, Note_on_c, 0, 66, 95
2, 92640, Note_on_c, 0, 62, 95
2, 92640, Note_on_c, 0, 57, 95
2, 92640, Note_on_c, 0, 50, 95
2, 93120, Note_off_c, 0, 66, 95
2, 93120, Note_off_c, 0, 62, 95
2, 93120, Note_off_c, 0, 57, 95
2, 93120, Note_off_c, 0, 50, 95
2, 93360, Note_on_c, 0, 64, 95
2, 93360, Note_on_c, 0, 61, 95
2, 93360, Note_on_c, 0, 55, 95
2, 93360, Note_on_c, 0, 49, 95
2, 93840, Note_off_c, 0, 64, 95
2, 93840, Note_off_c, 0, 61, 95
2, 93840, Note_off_c, 0, 55, 95
2, 93840, Note_off_c, 0, 49, 95
2, 94080, Note_on_c, 0, 64, 95
2, 94080, Note_on_c, 0, 61, 95
2, 94080, Note_on_c, 0, 57, 95
2, 94080, Note_on_c, 0, 52, 95
2, 94080, Note_on_c, 0, 45, 95
2, 95040, Note_off_c, 0, 64, 95
2, 95040, Note_off_c, 0, 61, 95
2, 95040, Note_off_c, 0, 57, 95
2, 95040, Note_off_c, 0, 52, 95
2, 95040, Note_off_c, 0, 45, 95
2, 96480, Note_on_c, 0, 66, 95
2, 96480, Note_on_c, 0, 62, 95
2, 96480, Note_on_c, 0, 57, 95
2, 96480, Note_on_c, 0, 50, 95
2, 96960, Note_off_c, 0, 66, 95
2, 96960, Note_off_c, 0, 62, 95
2, 96960, Note_off_c, 0, 57, 95
2, 96960, Note_off_c, 0, 50, 95
2, 97200, Note_on_c, 0, 64, 95
2, 97200, Note_on_c, 0, 61, 95
2, 97200, Note_on_c, 0, 55, 95
2, 97200, Note_on_c, 0, 49, 95
2, 97680, Note_off_c, 0, 64, 95
2, 97680, Note_off_c, 0, 61, 95
2, 97680, Note_off_c, 0, 55, 95
2, 97680, Note_off_c, 0, 49, 95
2, 97920, Note_on_c, 0, 64, 95
2, 97920, Note_on_c, 0, 61, 95
2, 97920, Note_on_c, 0, 57, 95
2, 97920, Note_on_c, 0, 52, 95
2, 97920, Note_on_c, 0, 45, 95
2, 98880, Note_off_c, 0, 64, 95
2, 98880, Note_off_c, 0, 61, 95
2, 98880, Note_off_c, 0, 57, 95
2, 98880, Note_off_c, 0, 52, 95
2, 98880, Note_off_c, 0, 45, 95
2, 100320, Note_on_c, 0, 66, 95
2, 100320, Note_on_c, 0, 62, 95
2, 100320, Note_on_c, 0, 57, 95
2, 100320, Note_on_c, 0, 50, 95
2, 100800, Note_off_c, 0, 66, 95
2, 100800, Note_off_c, 0, 62, 95
2, 100800, Note_off_c, 0, 57, 95
2, 100800, Note_off_c, 0, 50, 95
2, 101040, Note_on_c, 0, 64, 95
2, 101040, Note_on_c, 0, 61, 95
2, 101040, Note_on_c, 0, 55, 95
2, 101040, Note_on_c, 0, 49, 95
2, 101520, Note_off_c, 0, 64, 95
2, 101520, Note_off_c, 0, 61, 95
2, 101520, Note_off_c, 0, 55, 95
2, 101520, Note_off_c, 0, 49, 95
2, 101760, Note_on_c, 0, 64, 95
2, 101760, Note_on_c, 0, 61, 95
2, 101760, Note_on_c, 0, 57, 95
2, 101760, Note_on_c, 0, 52, 95
2, 101760, Note_on_c, 0, 45, 95
2, 102720, Note_off_c, 0, 64, 95
2, 102720, Note_off_c, 0, 61, 95
2, 102720, Note_off_c, 0, 57, 95
2, 102720, Note_off_c, 0, 52, 95
2, 102720, Note_off_c, 0, 45, 95
2, 103680, Note_on_c, 0, 66, 95
2, 103680, Note_on_c, 0, 62, 95
2, 103680, Note_on_c, 0, 57, 95
2, 103680, Note_on_c, 0, 50, 95
2, 104640, Note_off_c, 0, 66, 95
2, 104640, Note_off_c, 0, 62, 95
2, 104640, Note_off_c, 0, 57, 95
2, 104640, Note_off_c, 0, 50, 95
2, 104640, Note_on_c, 0, 50, 95
2, 105120, Note_off_c, 0, 50, 95
2, 105120, Note_on_c, 0, 66, 79
2, 105120, Note_on_c, 0, 62, 79
2, 105120, Note_on_c, 0, 57, 79
2, 107520, Note_off_c, 0, 66, 79
2, 107520, Note_off_c, 0, 62, 79
2, 107520, Note_off_c, 0, 57, 79
2, 107520, Note_on_c, 0, 66, 95
2, 107520, Note_on_c, 0, 62, 95
2, 107520, Note_on_c, 0, 59, 95
2, 107520, Note_on_c, 0, 54, 95
2, 107520, Note_on_c, 0, 47, 95
2, 107520, Note_on_c, 0, 42, 95
2, 108480, Note_off_c, 0, 66, 95
2, 108480, Note_off_c, 0, 62, 95
2, 108480, Note_off_c, 0, 59, 95
2, 108480, Note_off_c, 0, 54, 95
2, 108480, Note_off_c, 0, 47, 95
2, 108480, Note_off_c, 0, 42, 95
2, 108480, Note_on_c, 0, 47, 95
2, 108960, Note_off_c, 0, 47, 95
2, 108960, Note_on_c, 0, 62, 79
2, 108960, Note_on_c, 0, 59, 79
2, 108960, Note_on_c, 0, 54, 79
2, 111360, Note_off_c, 0, 62, 79
2, 111360, Note_off_c, 0, 59, 79
2, 111360, Note_off_c, 0, 54, 79
2, 111840, Note_on_c, 0, 66, 95
2, 111840, Note_on_c, 0, 62, 95
2, 111840, Note_on_c, 0, 57, 95
2, 111840, Note_on_c, 0, 50, 95
2, 112320, Note_off_c, 0, 66, 95
2, 112320, Note_off_c, 0, 62, 95
2, 112320, Note_off_c, 0, 57, 95
2, 112320, Note_off_c, 0, 50, 95
2, 112560, Note_on_c, 0, 64, 95
2, 112560, Note_on_c, 0, 61, 95
2, 112560, Note_on_c, 0, 55, 95
2, 112560, Note_on_c, 0, 49, 95
2, 113040, Note_off_c, 0, 64, 95
2, 113040, Note_off_c, 0, 61, 95
2, 113040, Note_off_c, 0, 55, 95
2, 113040, Note_off_c, 0, 49, 95
2, 113280, Note_on_c, 0, 64, 95
2, 113280, Note_on_c, 0, 61, 95
2, 113280, Note_on_c, 0, 57, 95
2, 113280, Note_on_c, 0, 52, 95
2, 113280, Note_on_c, 0, 45, 95
2, 114240, Note_off_c, 0, 64, 95
2, 114240, Note_off_c, 0, 61, 95
2, 114240, Note_off_c, 0, 57, 95
2, 114240, Note_off_c, 0, 52, 95
2, 114240, Note_off_c, 0, 45, 95
2, 115680, Note_on_c, 0, 66, 95
2, 115680, Note_on_c, 0, 62, 95
2, 115680, Note_on_c, 0, 57, 95
2, 115680, Note_on_c, 0, 50, 95
2, 116160, Note_off_c, 0, 66, 95
2, 116160, Note_off_c, 0, 62, 95
2, 116160, Note_off_c, 0, 57, 95
2, 116160, Note_off_c, 0, 50, 95
2, 116400, Note_on_c, 0, 64, 95
2, 116400, Note_on_c, 0, 61, 95
2, 116400, Note_on_c, 0, 55, 95
2, 116400, Note_on_c, 0, 49, 95
2, 116880, Note_off_c, 0, 64, 95
2, 116880, Note_off_c, 0, 61, 95
2, 116880, Note_off_c, 0, 55, 95
2, 116880, Note_off_c, 0, 49, 95
2, 117120, Note_on_c, 0, 64, 95
2, 117120, Note_on_c, 0, 61, 95
2, 117120, Note_on_c, 0, 57, 95
2, 117120, Note_on_c, 0, 52, 95
2, 117120, Note_on_c, 0, 45, 95
2, 118080, Note_off_c, 0, 64, 95
2, 118080, Note_off_c, 0, 61, 95
2, 118080, Note_off_c, 0, 57, 95
2, 118080, Note_off_c, 0, 52, 95
2, 118080, Note_off_c, 0, 45, 95
2, 119040, Note_on_c, 0, 66, 95
2, 119040, Note_on_c, 0, 62, 95
2, 119040, Note_on_c, 0, 57, 95
2, 119040, Note_on_c, 0, 50, 95
2, 122880, Note_off_c, 0, 66, 95
2, 122880, Note_off_c, 0, 62, 95
2, 122880, Note_off_c, 0, 57, 95
2, 122880, Note_off_c, 0, 50, 95
2, 122880, Note_on_c, 0, 61, 95
2, 122880, Note_on_c, 0, 57, 95
2, 122880, Note_on_c, 0, 52, 95
2, 122880, Note_on_c, 0, 45, 95
2, 126720, Note_off_c, 0, 61, 95
2, 126720, Note_off_c, 0, 57, 95
2, 126720, Note_off_c, 0, 52, 95
2, 126720, Note_off_c, 0, 45, 95
2, 126720, Note_on_c, 0, 66, 95
2, 126720, Note_on_c, 0, 62, 95
2, 126720, Note_on_c, 0, 57, 95
2, 126720, Note_on_c, 0, 50, 95
2, 130080, Note_off_c, 0, 66, 95
2, 130080, Note_off_c, 0, 62, 95
2, 130080, Note_off_c, 0, 57, 95
2, 130080, Note_off_c, 0, 50, 95
2, 130080, Note_on_c, 0, 66, 95
2, 130080, Note_on_c, 0, 62, 95
2, 130080, Note_on_c, 0, 57, 95
2, 130080, Note_on_c, 0, 50, 95
2, 132960, Note_off_c, 0, 66, 95
2, 132960, Note_off_c, 0, 62, 95
2, 132960, Note_off_c, 0, 57, 95
2, 132960, Note_off_c, 0, 50, 95
2, 134880, Note_on_c, 0, 66, 95
2, 134880, Note_on_c, 0, 62, 95
2, 134880, Note_on_c, 0, 57, 95
2, 134880, Note_on_c, 0, 50, 95
2, 135360, Note_off_c, 0, 66, 95
2, 135360, Note_off_c, 0, 62, 95
2, 135360, Note_off_c, 0, 57, 95
2, 135360, Note_off_c, 0, 50, 95
2, 135600, Note_on_c, 0, 64, 95
2, 135600, Note_on_c, 0, 61, 95
2, 135600, Note_on_c, 0, 55, 95
2, 135600, Note_on_c, 0, 49, 95
2, 136080, Note_off_c, 0, 64, 95
2, 136080, Note_off_c, 0, 61, 95
2, 136080, Note_off_c, 0, 55, 95
2, 136080, Note_off_c, 0, 49, 95
2, 136320, Note_on_c, 0, 64, 95
2, 136320, Note_on_c, 0, 61, 95
2, 136320, Note_on_c, 0, 57, 95
2, 136320, Note_on_c, 0, 52, 95
2, 136320, Note_on_c, 0, 45, 95
2, 137280, Note_off_c, 0, 64, 95
2, 137280, Note_off_c, 0, 61, 95
2, 137280, Note_off_c, 0, 57, 95
2, 137280, Note_off_c, 0, 52, 95
2, 137280, Note_off_c, 0, 45, 95
2, 138720, Note_on_c, 0, 66, 95
2, 138720, Note_on_c, 0, 62, 95
2, 138720, Note_on_c, 0, 57, 95
2, 138720, Note_on_c, 0, 50, 95
2, 139200, Note_off_c, 0, 66, 95
2, 139200, Note_off_c, 0, 62, 95
2, 139200, Note_off_c, 0, 57, 95
2, 139200, Note_off_c, 0, 50, 95
2, 139440, Note_on_c, 0, 64, 95
2, 139440, Note_on_c, 0, 61, 95
2, 139440, Note_on_c, 0, 55, 95
2, 139440, Note_on_c, 0, 49, 95
2, 139920, Note_off_c, 0, 64, 95
2, 139920, Note_off_c, 0, 61, 95
2, 139920, Note_off_c, 0, 55, 95
2, 139920, Note_off_c, 0, 49, 95
2, 140160, Note_on_c, 0, 64, 95
2, 140160, Note_on_c, 0, 61, 95
2, 140160, Note_on_c, 0, 57, 95
2, 140160, Note_on_c, 0, 52, 95
2, 140160, Note_on_c, 0, 45, 95
2, 141120, Note_off_c, 0, 64, 95
2, 141120, Note_off_c, 0, 61, 95
2, 141120, Note_off_c, 0, 57, 95
2, 141120, Note_off_c, 0, 52, 95
2, 141120, Note_off_c, 0, 45, 95
2, 142560, Note_on_c, 0, 66, 95
2, 142560, Note_on_c, 0, 62, 95
2, 142560, Note_on_c, 0, 57, 95
2, 142560, Note_on_c, 0, 50, 95
2, 143040, Note_off_c, 0, 66, 95
2, 143040, Note_off_c, 0, 62, 95
2, 143040, Note_off_c, 0, 57, 95
2, 143040, Note_off_c, 0, 50, 95
2, 143280, Note_on_c, 0, 64, 95
2, 143280, Note_on_c, 0, 61, 95
2, 143280, Note_on_c, 0, 55, 95
2, 143280, Note_on_c, 0, 49, 95
2, 143760, Note_off_c, 0, 64, 95
2, 143760, Note_off_c, 0, 61, 95
2, 143760, Note_off_c, 0, 55, 95
2, 143760, Note_off_c, 0, 49, 95
2, 144000, Note_on_c, 0, 64, 95
2, 144000, Note_on_c, 0, 61, 95
2, 144000, Note_on_c, 0, 57, 95
2, 144000, Note_on_c, 0, 52, 95
2, 144000, Note_on_c, 0, 45, 95
2, 144960, Note_off_c, 0, 64, 95
2, 144960, Note_off_c, 0, 61, 95
2, 144960, Note_off_c, 0, 57, 95
2, 144960, Note_off_c, 0, 52, 95
2, 144960, Note_off_c, 0, 45, 95
2, 146400, Note_on_c, 0, 66, 95
2, 146400, Note_on_c, 0, 62, 95
2, 146400, Note_on_c, 0, 57, 95
2, 146400, Note_on_c, 0, 50, 95
2, 146880, Note_off_c, 0, 66, 95
2, 146880, Note_off_c, 0, 62, 95
2, 146880, Note_off_c, 0, 57, 95
2, 146880, Note_off_c, 0, 50, 95
2, 147120, Note_on_c, 0, 64, 95
2, 147120, Note_on_c, 0, 61, 95
2, 147120, Note_on_c, 0, 55, 95
2, 147120, Note_on_c, 0, 49, 95
2, 147600, Note_off_c, 0, 64, 95
2, 147600, Note_off_c, 0, 61, 95
2, 147600, Note_off_c, 0, 55, 95
2, 147600, Note_off_c, 0, 49, 95
2, 147840, Note_on_c, 0, 64, 95
2, 147840, Note_on_c, 0, 61, 95
2, 147840, Note_on_c, 0, 57, 95
2, 147840, Note_on_c, 0, 52, 95
2, 147840, Note_on_c, 0, 45, 95
2, 148800, Note_off_c, 0, 64, 95
2, 148800, Note_off_c, 0, 61, 95
2, 148800, Note_off_c, 0, 57, 95
2, 148800, Note_off_c, 0, 52, 95
2, 148800, Note_off_c, 0, 45, 95
2, 149760, Note_on_c, 0, 66, 95
2, 149760, Note_on_c, 0, 62, 95
2, 149760, Note_on_c, 0, 57, 95
2, 149760, Note_on_c, 0, 50, 95
2, 151680, Note_off_c, 0, 66, 95
2, 151680, Note_off_c, 0, 62, 95
2, 151680, Note_off_c, 0, 57, 95
2, 151680, Note_off_c, 0, 50, 95
2, 151680, Note_on_c, 0, 61, 95
2, 151680, Note_on_c, 0, 57, 95
2, 151680, Note_on_c, 0, 52, 95
2, 151680, Note_on_c, 0, 45, 95
2, 153600, Note_off_c, 0, 61, 95
2, 153600, Note_off_c, 0, 57, 95
2, 153600, Note_off_c, 0, 52, 95
2, 153600, Note_off_c, 0, 45, 95
2, 153600, Note_on_c, 0, 66, 95
2, 153600, Note_on_c, 0, 62, 95
2, 153600, Note_on_c, 0, 59, 95
2, 153600, Note_on_c, 0, 54, 95
2, 153600, Note_on_c, 0, 47, 95
2, 153600, Note_on_c, 0, 42, 95
2, 157440, Note_off_c, 0, 66, 95
2, 157440, Note_off_c, 0, 62, 95
2, 157440, Note_off_c, 0, 59, 95
2, 157440, Note_off_c, 0, 54, 95
2, 157440, Note_off_c, 0, 47, 95
2, 157440, Note_off_c, 0, 42, 95
2, 157920, Note_on_c, 0, 66, 95
2, 157920, Note_on_c, 0, 62, 95
2, 157920, Note_on_c, 0, 57, 95
2, 157920, Note_on_c, 0, 50, 95
2, 158400, Note_off_c, 0, 66, 95
2, 158400, Note_off_c, 0, 62, 95
2, 158400, Note_off_c, 0, 57, 95
2, 158400, Note_off_c, 0, 50, 95
2, 158640, Note_on_c, 0, 64, 95
2, 158640, Note_on_c, 0, 61, 95
2, 158640, Note_on_c, 0, 55, 95
2, 158640, Note_on_c, 0, 49, 95
2, 159120, Note_off_c, 0, 64, 95
2, 159120, Note_off_c, 0, 61, 95
2, 159120, Note_off_c, 0, 55, 95
2, 159120, Note_off_c, 0, 49, 95
2, 159360, Note_on_c, 0, 64, 95
2, 159360, Note_on_c, 0, 61, 95
2, 159360, Note_on_c, 0, 57, 95
2, 159360, Note_on_c, 0, 52, 95
2, 159360, Note_on_c, 0, 45, 95
2, 160320, Note_off_c, 0, 64, 95
2, 160320, Note_off_c, 0, 61, 95
2, 160320, Note_off_c, 0, 57, 95
2, 160320, Note_off_c, 0, 52, 95
2, 160320, Note_off_c, 0, 45, 95
2, 161760, Note_on_c, 0, 66, 95
2, 161760, Note_on_c, 0, 62, 95
2, 161760, Note_on_c, 0, 57, 95
2, 161760, Note_on_c, 0, 50, 95
2, 162240, Note_off_c, 0, 66, 95
2, 162240, Note_off_c, 0, 62, 95
2, 162240, Note_off_c, 0, 57, 95
2, 162240, Note_off_c, 0, 50, 95
2, 162480, Note_on_c, 0, 64, 95
2, 162480, Note_on_c, 0, 61, 95
2, 162480, Note_on_c, 0, 55, 95
2, 162480, Note_on_c, 0, 49, 95
2, 162960, Note_off_c, 0, 64, 95
2, 162960, Note_off_c, 0, 61, 95
2, 162960, Note_off_c, 0, 55, 95
2, 162960, Note_off_c, 0, 49, 95
2, 163200, Note_on_c, 0, 64, 95
2, 163200, Note_on_c, 0, 61, 95
2, 163200, Note_on_c, 0, 57, 95
2, 163200, Note_on_c, 0, 52, 95
2, 163200, Note_on_c, 0, 45, 95
2, 164160, Note_off_c, 0, 64, 95
2, 164160, Note_off_c, 0, 61, 95
2, 164160, Note_off_c, 0, 57, 95
2, 164160, Note_off_c, 0, 52, 95
2, 164160, Note_off_c, 0, 45, 95
2, 165120, Note_on_c, 0, 66, 95
2, 165120, Note_on_c, 0, 62, 95
2, 165120, Note_on_c, 0, 57, 95
2, 165120, Note_on_c, 0, 50, 95
2, 167040, Note_off_c, 0, 66, 95
2, 167040, Note_off_c, 0, 62, 95
2, 167040, Note_off_c, 0, 57, 95
2, 167040, Note_off_c, 0, 50, 95
2, 167040, Note_on_c, 0, 61, 95
2, 167040, Note_on_c, 0, 57, 95
2, 167040, Note_on_c, 0, 52, 95
2, 167040, Note_on_c, 0, 45, 95
2, 168960, Note_off_c, 0, 61, 95
2, 168960, Note_off_c, 0, 57, 95
2, 168960, Note_off_c, 0, 52, 95
2, 168960, Note_off_c, 0, 45, 95
2, 168960, Note_on_c, 0, 66, 95
2, 168960, Note_on_c, 0, 62, 95
2, 168960, Note_on_c, 0, 59, 95
2, 168960, Note_on_c, 0, 54, 95
2, 168960, Note_on_c, 0, 47, 95
2, 168960, Note_on_c, 0, 42, 95
2, 172800, Note_off_c, 0, 66, 95
2, 172800, Note_off_c, 0, 62, 95
2, 172800, Note_off_c, 0, 59, 95
2, 172800, Note_off_c, 0, 54, 95
2, 172800, Note_off_c, 0, 47, 95
2, 172800, Note_off_c, 0, 42, 95
2, 173280, Note_on_c, 0, 66, 95
2, 173280, Note_on_c, 0, 62, 95
2, 173280, Note_on_c, 0, 57, 95
2, 173280, Note_on_c, 0, 50, 95
2, 173760, Note_off_c, 0, 66, 95
2, 173760, Note_off_c, 0, 62, 95
2, 173760, Note_off_c, 0, 57, 95
2, 173760, Note_off_c, 0, 50, 95
2, 174000, Note_on_c, 0, 64, 95
2, 174000, Note_on_c, 0, 61, 95
2, 174000, Note_on_c, 0, 55, 95
2, 174000, Note_on_c, 0, 49, 95
2, 174480, Note_off_c, 0, 64, 95
2, 174480, Note_off_c, 0, 61, 95
2, 174480, Note_off_c, 0, 55, 95
2, 174480, Note_off_c, 0, 49, 95
2, 174720, Note_on_c, 0, 64, 95
2, 174720, Note_on_c, 0, 61, 95
2, 174720, Note_on_c, 0, 57, 95
2, 174720, Note_on_c, 0, 52, 95
2, 174720, Note_on_c, 0, 45, 95
2, 175680, Note_off_c, 0, 64, 95
2, 175680, Note_off_c, 0, 61, 95
2, 175680, Note_off_c, 0, 57, 95
2, 175680, Note_off_c, 0, 52, 95
2, 175680, Note_off_c, 0, 45, 95
2, 177120, Note_on_c, 0, 66, 95
2, 177120, Note_on_c, 0, 62, 95
2, 177120, Note_on_c, 0, 57, 95
2, 177120, Note_on_c, 0, 50, 95
2, 177600, Note_off_c, 0, 66, 95
2, 177600, Note_off_c, 0, 62, 95
2, 177600, Note_off_c, 0, 57, 95
2, 177600, Note_off_c, 0, 50, 95
2, 177840, Note_on_c, 0, 64, 95
2, 177840, Note_on_c, 0, 61, 95
2, 177840, Note_on_c, 0, 55, 95
2, 177840, Note_on_c, 0, 49, 95
2, 178320, Note_off_c, 0, 64, 95
2, 178320, Note_off_c, 0, 61, 95
2, 178320, Note_off_c, 0, 55, 95
2, 178320, Note_off_c, 0, 49, 95
2, 178560, Note_on_c, 0, 64, 95
2, 178560, Note_on_c, 0, 61, 95
2, 178560, Note_on_c, 0, 57, 95
2, 178560, Note_on_c, 0, 52, 95
2, 178560, Note_on_c, 0, 45, 95
2, 179520, Note_off_c, 0, 64, 95
2, 179520, Note_off_c, 0, 61, 95
2, 179520, Note_off_c, 0, 57, 95
2, 179520, Note_off_c, 0, 52, 95
2, 179520, Note_off_c, 0, 45, 95
2, 180960, Note_on_c, 0, 66, 95
2, 180960, Note_on_c, 0, 62, 95
2, 180960, Note_on_c, 0, 57, 95
2, 180960, Note_on_c, 0, 50, 95
2, 181440, Note_off_c, 0, 66, 95
2, 181440, Note_off_c, 0, 62, 95
2, 181440, Note_off_c, 0, 57, 95
2, 181440, Note_off_c, 0, 50, 95
2, 181680, Note_on_c, 0, 64, 95
2, 181680, Note_on_c, 0, 61, 95
2, 181680, Note_on_c, 0, 55, 95
2, 181680, Note_on_c, 0, 49, 95
2, 182160, Note_off_c, 0, 64, 95
2, 182160, Note_off_c, 0, 61, 95
2, 182160, Note_off_c, 0, 55, 95
2, 182160, Note_off_c, 0, 49, 95
2, 182400, Note_on_c, 0, 64, 95
2, 182400, Note_on_c, 0, 61, 95
2, 182400, Note_on_c, 0, 57, 95
2, 182400, Note_on_c, 0, 52, 95
2, 182400, Note_on_c, 0, 45, 95
2, 183360, Note_off_c, 0, 64, 95
2, 183360, Note_off_c, 0, 61, 95
2, 183360, Note_off_c, 0, 57, 95
2, 183360, Note_off_c, 0, 52, 95
2, 183360, Note_off_c, 0, 45, 95
2, 184800, Note_on_c, 0, 66, 95
2, 184800, Note_on_c, 0, 62, 95
2, 184800, Note_on_c, 0, 57, 95
2, 184800, Note_on_c, 0, 50, 95
2, 185280, Note_off_c, 0, 66, 95
2, 185280, Note_off_c, 0, 62, 95
2, 185280, Note_off_c, 0, 57, 95
2, 185280, Note_off_c, 0, 50, 95
2, 185520, Note_on_c, 0, 64, 95
2, 185520, Note_on_c, 0, 61, 95
2, 185520, Note_on_c, 0, 55, 95
2, 185520, Note_on_c, 0, 49, 95
2, 186000, Note_off_c, 0, 64, 95
2, 186000, Note_off_c, 0, 61, 95
2, 186000, Note_off_c, 0, 55, 95
2, 186000, Note_off_c, 0, 49, 95
2, 186240, Note_on_c, 0, 64, 95
2, 186240, Note_on_c, 0, 61, 95
2, 186240, Note_on_c, 0, 57, 95
2, 186240, Note_on_c, 0, 52, 95
2, 186240, Note_on_c, 0, 45, 95
2, 187200, Note_off_c, 0, 64, 95
2, 187200, Note_off_c, 0, 61, 95
2, 187200, Note_off_c, 0, 57, 95
2, 187200, Note_off_c, 0, 52, 95
2, 187200, Note_off_c, 0, 45, 95
2, 188640, Note_on_c, 0, 66, 95
2, 188640, Note_on_c, 0, 62, 95
2, 188640, Note_on_c, 0, 57, 95
2, 188640, Note_on_c, 0, 50, 95
2, 189120, Note_off_c, 0, 66, 95
2, 189120, Note_off_c, 0, 62, 95
2, 189120, Note_off_c, 0, 57, 95
2, 189120, Note_off_c, 0, 50, 95
2, 189360, Note_on_c, 0, 64, 95
2, 189360, Note_on_c, 0, 61, 95
2, 189360, Note_on_c, 0, 55, 95
2, 189360, Note_on_c, 0, 49, 95
2, 189840, Note_off_c, 0, 64, 95
2, 189840, Note_off_c, 0, 61, 95
2, 189840, Note_off_c, 0, 55, 95
2, 189840, Note_off_c, 0, 49, 95
2, 190080, Note_on_c, 0, 64, 95
2, 190080, Note_on_c, 0, 61, 95
2, 190080, Note_on_c, 0, 57, 95
2, 190080, Note_on_c, 0, 52, 95
2, 190080, Note_on_c, 0, 45, 95
2, 191040, Note_off_c, 0, 64, 95
2, 191040, Note_off_c, 0, 61, 95
2, 191040, Note_off_c, 0, 57, 95
2, 191040, Note_off_c, 0, 52, 95
2, 191040, Note_off_c, 0, 45, 95
2, 192480, Note_on_c, 0, 66, 95
2, 192480, Note_on_c, 0, 62, 95
2, 192480, Note_on_c, 0, 57, 95
2, 192480, Note_on_c, 0, 50, 95
2, 192960, Note_off_c, 0, 66, 95
2, 192960, Note_off_c, 0, 62, 95
2, 192960, Note_off_c, 0, 57, 95
2, 192960, Note_off_c, 0, 50, 95
2, 193200, Note_on_c, 0, 64, 95
2, 193200, Note_on_c, 0, 61, 95
2, 193200, Note_on_c, 0, 55, 95
2, 193200, Note_on_c, 0, 49, 95
2, 193680, Note_off_c, 0, 64, 95
2, 193680, Note_off_c, 0, 61, 95
2, 193680, Note_off_c, 0, 55, 95
2, 193680, Note_off_c, 0, 49, 95
2, 193920, Note_on_c, 0, 64, 95
2, 193920, Note_on_c, 0, 61, 95
2, 193920, Note_on_c, 0, 57, 95
2, 193920, Note_on_c, 0, 52, 95
2, 193920, Note_on_c, 0, 45, 95
2, 194880, Note_off_c, 0, 64, 95
2, 194880, Note_off_c, 0, 61, 95
2, 194880, Note_off_c, 0, 57, 95
2, 194880, Note_off_c, 0, 52, 95
2, 194880, Note_off_c, 0, 45, 95
2, 196320, Note_on_c, 0, 66, 95
2, 196320, Note_on_c, 0, 62, 95
2, 196320, Note_on_c, 0, 57, 95
2, 196320, Note_on_c, 0, 50, 95
2, 196800, Note_off_c, 0, 66, 95
2, 196800, Note_off_c, 0, 62, 95
2, 196800, Note_off_c, 0, 57, 95
2, 196800, Note_off_c, 0, 50, 95
2, 197040, Note_on_c, 0, 64, 95
2, 197040, Note_on_c, 0, 61, 95
2, 197040, Note_on_c, 0, 55, 95
2, 197040, Note_on_c, 0, 49, 95
2, 197520, Note_off_c, 0, 64, 95
2, 197520, Note_off_c, 0, 61, 95
2, 197520, Note_off_c, 0, 55, 95
2, 197520, Note_off_c, 0, 49, 95
2, 197760, Note_on_c, 0, 64, 95
2, 197760, Note_on_c, 0, 61, 95
2, 197760, Note_on_c, 0, 57, 95
2, 197760, Note_on_c, 0, 52, 95
2, 197760, Note_on_c, 0, 45, 95
2, 198720, Note_off_c, 0, 64, 95
2, 198720, Note_off_c, 0, 61, 95
2, 198720, Note_off_c, 0, 57, 95
2, 198720, Note_off_c, 0, 52, 95
2, 198720, Note_off_c, 0, 45, 95
2, 200160, Note_on_c, 0, 66, 95
2, 200160, Note_on_c, 0, 62, 95
2, 200160, Note_on_c, 0, 57, 95
2, 200160, Note_on_c, 0, 50, 95
2, 200640, Note_off_c, 0, 66, 95
2, 200640, Note_off_c, 0, 62, 95
2, 200640, Note_off_c, 0, 57, 95
2, 200640, Note_off_c, 0, 50, 95
2, 200880, Note_on_c, 0, 64, 95
2, 200880, Note_on_c, 0, 61, 95
2, 200880, Note_on_c, 0, 55, 95
2, 200880, Note_on_c, 0, 49, 95
2, 201360, Note_off_c, 0, 64, 95
2, 201360, Note_off_c, 0, 61, 95
2, 201360, Note_off_c, 0, 55, 95
2, 201360, Note_off_c, 0, 49, 95
2, 201600, Note_on_c, 0, 64, 95
2, 201600, Note_on_c, 0, 61, 95
2, 201600, Note_on_c, 0, 57, 95
2, 201600, Note_on_c, 0, 52, 95
2, 201600, Note_on_c, 0, 45, 95
2, 202560, Note_off_c, 0, 64, 95
2, 202560, Note_off_c, 0, 61, 95
2, 202560, Note_off_c, 0, 57, 95
2, 202560, Note_off_c, 0, 52, 95
2, 202560, Note_off_c, 0, 45, 95
2, 203520, Note_on_c, 0, 66, 95
2, 203520, Note_on_c, 0, 62, 95
2, 203520, Note_on_c, 0, 57, 95
2, 203520, Note_on_c, 0, 50, 95
2, 207360, Note_off_c, 0, 66, 95
2, 207360, Note_off_c, 0, 62, 95
2, 207360, Note_off_c, 0, 57, 95
2, 207360, Note_off_c, 0, 50, 95
2, 207360, Note_on_c, 0, 66, 95
2, 207360, Note_on_c, 0, 62, 95
2, 207360, Note_on_c, 0, 59, 95
2, 207360, Note_on_c, 0, 54, 95
2, 207360, Note_on_c, 0, 47, 95
2, 207360, Note_on_c, 0, 42, 95
2, 211200, Note_off_c, 0, 66, 95
2, 211200, Note_off_c, 0, 62, 95
2, 211200, Note_off_c, 0, 59, 95
2, 211200, Note_off_c, 0, 54, 95
2, 211200, Note_off_c, 0, 47, 95
2, 211200, Note_off_c, 0, 42, 95
2, 211680, Note_on_c, 0, 66, 95
2, 211680, Note_on_c, 0, 62, 95
2, 211680, Note_on_c, 0, 57, 95
2, 211680, Note_on_c, 0, 50, 95
2, 212160, Note_off_c, 0, 66, 95
2, 212160, Note_off_c, 0, 62, 95
2, 212160, Note_off_c, 0, 57, 95
2, 212160, Note_off_c, 0, 50, 95
2, 212400, Note_on_c, 0, 64, 95
2, 212400, Note_on_c, 0, 61, 95
2, 212400, Note_on_c, 0, 55, 95
2, 212400, Note_on_c, 0, 49, 95
2, 212880, Note_off_c, 0, 64, 95
2, 212880, Note_off_c, 0, 61, 95
2, 212880, Note_off_c, 0, 55, 95
2, 212880, Note_off_c, 0, 49, 95
2, 213120, Note_on_c, 0, 64, 95
2, 213120, Note_on_c, 0, 61, 95
2, 213120, Note_on_c, 0, 57, 95
2, 213120, Note_on_c, 0, 52, 95
2, 213120, Note_on_c, 0, 45, 95
2, 214080, Note_off_c, 0, 64, 95
2, 214080, Note_off_c, 0, 61, 95
2, 214080, Note_off_c, 0, 57, 95
2, 214080, Note_off_c, 0, 52, 95
2, 214080, Note_off_c, 0, 45, 95
2, 215520, Note_on_c, 0, 66, 95
2, 215520, Note_on_c, 0, 62, 95
2, 215520, Note_on_c, 0, 57, 95
2, 215520, Note_on_c, 0, 50, 95
2, 216000, Note_off_c, 0, 66, 95
2, 216000, Note_off_c, 0, 62, 95
2, 216000, Note_off_c, 0, 57, 95
2, 216000, Note_off_c, 0, 50, 95
2, 216240, Note_on_c, 0, 64, 95
2, 216240, Note_on_c, 0, 61, 95
2, 216240, Note_on_c, 0, 55, 95
2, 216240, Note_on_c, 0, 49, 95
2, 216720, Note_off_c, 0, 64, 95
2, 216720, Note_off_c, 0, 61, 95
2, 216720, Note_off_c, 0, 55, 95
2, 216720, Note_off_c, 0, 49, 95
2, 216960, Note_on_c, 0, 64, 95
2, 216960, Note_on_c, 0, 61, 95
2, 216960, Note_on_c, 0, 57, 95
2, 216960, Note_on_c, 0, 52, 95
2, 216960, Note_on_c, 0, 45, 95
2, 217920, Note_off_c, 0, 64, 95
2, 217920, Note_off_c, 0, 61, 95
2, 217920, Note_off_c, 0, 57, 95
2, 217920, Note_off_c, 0, 52, 95
2, 217920, Note_off_c, 0, 45, 95
2, 218880, Note_on_c, 0, 66, 95
2, 218880, Note_on_c, 0, 62, 95
2, 218880, Note_on_c, 0, 57, 95
2, 218880, Note_on_c, 0, 50, 95
2, 222720, Note_off_c, 0, 66, 95
2, 222720, Note_off_c, 0, 62, 95
2, 222720, Note_off_c, 0, 57, 95
2, 222720, Note_off_c, 0, 50, 95
2, 222720, Note_on_c, 0, 61, 95
2, 222720, Note_on_c, 0, 57, 95
2, 222720, Note_on_c, 0, 52, 95
2, 222720, Note_on_c, 0, 45, 95
2, 226560, Note_off_c, 0, 61, 95
2, 226560, Note_off_c, 0, 57, 95
2, 226560, Note_off_c, 0, 52, 95
2, 226560, Note_off_c, 0, 45, 95
2, 226560, Note_on_c, 0, 66, 95
2, 226560, Note_on_c, 0, 62, 95
2, 226560, Note_on_c, 0, 57, 95
2, 226560, Note_on_c, 0, 50, 95
2, 229920, Note_off_c, 0, 66, 95
2, 229920, Note_off_c, 0, 62, 95
2, 229920, Note_off_c, 0, 57, 95
2, 229920, Note_off_c, 0, 50, 95
2, 229920, Note_on_c, 0, 66, 95
2, 229920, Note_on_c, 0, 62, 95
2, 229920, Note_on_c, 0, 57, 95
2, 229920, Note_on_c, 0, 50, 95
2, 232800, Note_off_c, 0, 66, 95
2, 232800, Note_off_c, 0, 62, 95
2, 232800, Note_off_c, 0, 57, 95
2, 232800, Note_off_c, 0, 50, 95
2, 234720, Note_on_c, 0, 66, 95
2, 234720, Note_on_c, 0, 62, 95
2, 234720, Note_on_c, 0, 57, 95
2, 234720, Note_on_c, 0, 50, 95
2, 235200, Note_off_c, 0, 66, 95
2, 235200, Note_off_c, 0, 62, 95
2, 235200, Note_off_c, 0, 57, 95
2, 235200, Note_off_c, 0, 50, 95
2, 235440, Note_on_c, 0, 64, 95
2, 235440, Note_on_c, 0, 61, 95
2, 235440, Note_on_c, 0, 55, 95
2, 235440, Note_on_c, 0, 49, 95
2, 235920, Note_off_c, 0, 64, 95
2, 235920, Note_off_c, 0, 61, 95
2, 235920, Note_off_c, 0, 55, 95
2, 235920, Note_off_c, 0, 49, 95
2, 236160, Note_on_c, 0, 64, 95
2, 236160, Note_on_c, 0, 61, 95
2, 236160, Note_on_c, 0, 57, 95
2, 236160, Note_on_c, 0, 52, 95
2, 236160, Note_on_c, 0, 45, 95
2, 237120, Note_off_c, 0, 64, 95
2, 237120, Note_off_c, 0, 61, 95
2, 237120, Note_off_c, 0, 57, 95
2, 237120, Note_off_c, 0, 52, 95
2, 237120, Note_off_c, 0, 45, 95
2, 238560, Note_on_c, 0, 66, 95
2, 238560, Note_on_c, 0, 62, 95
2, 238560, Note_on_c, 0, 57, 95
2, 238560, Note_on_c, 0, 50, 95
2, 239040, Note_off_c, 0, 66, 95
2, 239040, Note_off_c, 0, 62, 95
2, 239040, Note_off_c, 0, 57, 95
2, 239040, Note_off_c, 0, 50, 95
2, 239280, Note_on_c, 0, 64, 95
2, 239280, Note_on_c, 0, 61, 95
2, 239280, Note_on_c, 0, 55, 95
2, 239280, Note_on_c, 0, 49, 95
2, 239760, Note_off_c, 0, 64, 95
2, 239760, Note_off_c, 0, 61, 95
2, 239760, Note_off_c, 0, 55, 95
2, 239760, Note_off_c, 0, 49, 95
2, 240000, Note_on_c, 0, 64, 95
2, 240000, Note_on_c, 0, 61, 95
2, 240000, Note_on_c, 0, 57, 95
2, 240000, Note_on_c, 0, 52, 95
2, 240000, Note_on_c, 0, 45, 95
2, 240960, Note_off_c, 0, 64, 95
2, 240960, Note_off_c, 0, 61, 95
2, 240960, Note_off_c, 0, 57, 95
2, 240960, Note_off_c, 0, 52, 95
2, 240960, Note_off_c, 0, 45, 95
2, 242400, Note_on_c, 0, 66, 95
2, 242400, Note_on_c, 0, 62, 95
2, 242400, Note_on_c, 0, 57, 95
2, 242400, Note_on_c, 0, 50, 95
2, 242880, Note_off_c, 0, 66, 95
2, 242880, Note_off_c, 0, 62, 95
2, 242880, Note_off_c, 0, 57, 95
2, 242880, Note_off_c, 0, 50, 95
2, 243120, Note_on_c, 0, 64, 95
2, 243120, Note_on_c, 0, 61, 95
2, 243120, Note_on_c, 0, 55, 95
2, 243120, Note_on_c, 0, 49, 95
2, 243600, Note_off_c, 0, 64, 95
2, 243600, Note_off_c, 0, 61, 95
2, 243600, Note_off_c, 0, 55, 95
2, 243600, Note_off_c, 0, 49, 95
2, 243840, Note_on_c, 0, 64, 95
2, 243840, Note_on_c, 0, 61, 95
2, 243840, Note_on_c, 0, 57, 95
2, 243840, Note_on_c, 0, 52, 95
2, 243840, Note_on_c, 0, 45, 95
2, 244800, Note_off_c, 0, 64, 95
2, 244800, Note_off_c, 0, 61, 95
2, 244800, Note_off_c, 0, 57, 95
2, 244800, Note_off_c, 0, 52, 95
2, 244800, Note_off_c, 0, 45, 95
2, 246240, Note_on_c, 0, 66, 95
2, 246240, Note_on_c, 0, 62, 95
2, 246240, Note_on_c, 0, 57, 95
2, 246240, Note_on_c, 0, 50, 95
2, 246720, Note_off_c, 0, 66, 95
2, 246720, Note_off_c, 0, 62, 95
2, 246720, Note_off_c, 0, 57, 95
2, 246720, Note_off_c, 0, 50, 95
2, 246960, Note_on_c, 0, 64, 95
2, 246960, Note_on_c, 0, 61, 95
2, 246960, Note_on_c, 0, 55, 95
2, 246960, Note_on_c, 0, 49, 95
2, 247440, Note_off_c, 0, 64, 95
2, 247440, Note_off_c, 0, 61, 95
2, 247440, Note_off_c, 0, 55, 95
2, 247440, Note_off_c, 0, 49, 95
2, 247680, Note_on_c, 0, 64, 95
2, 247680, Note_on_c, 0, 61, 95
2, 247680, Note_on_c, 0, 57, 95
2, 247680, Note_on_c, 0, 52, 95
2, 247680, Note_on_c, 0, 45, 95
2, 248640, Note_off_c, 0, 64, 95
2, 248640, Note_off_c, 0, 61, 95
2, 248640, Note_off_c, 0, 57, 95
2, 248640, Note_off_c, 0, 52, 95
2, 248640, Note_off_c, 0, 45, 95
2, 250080, Note_on_c, 0, 66, 95
2, 250080, Note_on_c, 0, 62, 95
2, 250080, Note_on_c, 0, 57, 95
2, 250080, Note_on_c, 0, 50, 95
2, 250560, Note_off_c, 0, 66, 95
2, 250560, Note_off_c, 0, 62, 95
2, 250560, Note_off_c, 0, 57, 95
2, 250560, Note_off_c, 0, 50, 95
2, 250800, Note_on_c, 0, 64, 95
2, 250800, Note_on_c, 0, 61, 95
2, 250800, Note_on_c, 0, 55, 95
2, 250800, Note_on_c, 0, 49, 95
2, 251280, Note_off_c, 0, 64, 95
2, 251280, Note_off_c, 0, 61, 95
2, 251280, Note_off_c, 0, 55, 95
2, 251280, Note_off_c, 0, 49, 95
2, 251520, Note_on_c, 0, 64, 95
2, 251520, Note_on_c, 0, 61, 95
2, 251520, Note_on_c, 0, 57, 95
2, 251520, Note_on_c, 0, 52, 95
2, 251520, Note_on_c, 0, 45, 95
2, 252480, Note_off_c, 0, 64, 95
2, 252480, Note_off_c, 0, 61, 95
2, 252480, Note_off_c, 0, 57, 95
2, 252480, Note_off_c, 0, 52, 95
2, 252480, Note_off_c, 0, 45, 95
2, 253920, Note_on_c, 0, 66, 95
2, 253920, Note_on_c, 0, 62, 95
2, 253920, Note_on_c, 0, 57, 95
2, 253920, Note_on_c, 0, 50, 95
2, 254400, Note_off_c, 0, 66, 95
2, 254400, Note_off_c, 0, 62, 95
2, 254400, Note_off_c, 0, 57, 95
2, 254400, Note_off_c, 0, 50, 95
2, 254640, Note_on_c, 0, 64, 95
2, 254640, Note_on_c, 0, 61, 95
2, 254640, Note_on_c, 0, 55, 95
2, 254640, Note_on_c, 0, 49, 95
2, 255120, Note_off_c, 0, 64, 95
2, 255120, Note_off_c, 0, 61, 95
2, 255120, Note_off_c, 0, 55, 95
2, 255120, Note_off_c, 0, 49, 95
2, 255360, Note_on_c, 0, 64, 95
2, 255360, Note_on_c, 0, 61, 95
2, 255360, Note_on_c, 0, 57, 95
2, 255360, Note_on_c, 0, 52, 95
2, 255360, Note_on_c, 0, 45, 95
2, 256320, Note_off_c, 0, 64, 95
2, 256320, Note_off_c, 0, 61, 95
2, 256320, Note_off_c, 0, 57, 95
2, 256320, Note_off_c, 0, 52, 95
2, 256320, Note_off_c, 0, 45, 95
2, 257760, Note_on_c, 0, 66, 95
2, 257760, Note_on_c, 0, 62, 95
2, 257760, Note_on_c, 0, 57, 95
2, 257760, Note_on_c, 0, 50, 95
2, 258240, Note_off_c, 0, 66, 95
2, 258240, Note_off_c, 0, 62, 95
2, 258240, Note_off_c, 0, 57, 95
2, 258240, Note_off_c, 0, 50, 95
2, 258480, Note_on_c, 0, 64, 95
2, 258480, Note_on_c, 0, 61, 95
2, 258480, Note_on_c, 0, 55, 95
2, 258480, Note_on_c, 0, 49, 95
2, 258960, Note_off_c, 0, 64, 95
2, 258960, Note_off_c, 0, 61, 95
2, 258960, Note_off_c, 0, 55, 95
2, 258960, Note_off_c, 0, 49, 95
2, 259200, Note_on_c, 0, 64, 95
2, 259200, Note_on_c, 0, 61, 95
2, 259200, Note_on_c, 0, 57, 95
2, 259200, Note_on_c, 0, 52, 95
2, 259200, Note_on_c, 0, 45, 95
2, 260160, Note_off_c, 0, 64, 95
2, 260160, Note_off_c, 0, 61, 95
2, 260160, Note_off_c, 0, 57, 95
2, 260160, Note_off_c, 0, 52, 95
2, 260160, Note_off_c, 0, 45, 95
2, 261600, Note_on_c, 0, 66, 95
2, 261600, Note_on_c, 0, 62, 95
2, 261600, Note_on_c, 0, 57, 95
2, 261600, Note_on_c, 0, 50, 95
2, 262080, Note_off_c, 0, 66, 95
2, 262080, Note_off_c, 0, 62, 95
2, 262080, Note_off_c, 0, 57, 95
2, 262080, Note_off_c, 0, 50, 95
2, 262320, Note_on_c, 0, 64, 95
2, 262320, Note_on_c, 0, 61, 95
2, 262320, Note_on_c, 0, 55, 95
2, 262320, Note_on_c, 0, 49, 95
2, 262800, Note_off_c, 0, 64, 95
2, 262800, Note_off_c, 0, 61, 95
2, 262800, Note_off_c, 0, 55, 95
2, 262800, Note_off_c, 0, 49, 95
2, 263040, Note_on_c, 0, 64, 95
2, 263040, Note_on_c, 0, 61, 95
2, 263040, Note_on_c, 0, 57, 95
2, 263040, Note_on_c, 0, 52, 95
2, 263040, Note_on_c, 0, 45, 95
2, 264000, Note_off_c, 0, 64, 95
2, 264000, Note_off_c, 0, 61, 95
2, 264000, Note_off_c, 0, 57, 95
2, 264000, Note_off_c, 0, 52, 95
2, 264000, Note_off_c, 0, 45, 95
2, 264960, Note_on_c, 0, 66, 95
2, 264960, Note_on_c, 0, 62, 95
2, 264960, Note_on_c, 0, 57, 95
2, 264960, Note_on_c, 0, 50, 95
2, 266880, Note_off_c, 0, 66, 95
2, 266880, Note_off_c, 0, 62, 95
2, 266880, Note_off_c, 0, 57, 95
2, 266880, Note_off_c, 0, 50, 95
2, 266880, Note_on_c, 0, 61, 95
2, 266880, Note_on_c, 0, 57, 95
2, 266880, Note_on_c, 0, 52, 95
2, 266880, Note_on_c, 0, 45, 95
2, 268800, Note_off_c, 0, 61, 95
2, 268800, Note_off_c, 0, 57, 95
2, 268800, Note_off_c, 0, 52, 95
2, 268800, Note_off_c, 0, 45, 95
2, 268800, Note_on_c, 0, 66, 95
2, 268800, Note_on_c, 0, 62, 95
2, 268800, Note_on_c, 0, 59, 95
2, 268800, Note_on_c, 0, 54, 95
2, 268800, Note_on_c, 0, 47, 95
2, 268800, Note_on_c, 0, 42, 95
2, 272640, Note_off_c, 0, 66, 95
2, 272640, Note_off_c, 0, 62, 95
2, 272640, Note_off_c, 0, 59, 95
2, 272640, Note_off_c, 0, 54, 95
2, 272640, Note_off_c, 0, 47, 95
2, 272640, Note_off_c, 0, 42, 95
2, 273120, Note_on_c, 0, 66, 95
2, 273120, Note_on_c, 0, 62, 95
2, 273120, Note_on_c, 0, 57, 95
2, 273120, Note_on_c, 0, 50, 95
2, 273600, Note_off_c, 0, 66, 95
2, 273600, Note_off_c, 0, 62, 95
2, 273600, Note_off_c, 0, 57, 95
2, 273600, Note_off_c, 0, 50, 95
2, 273840, Note_on_c, 0, 64, 95
2, 273840, Note_on_c, 0, 61, 95
2, 273840, Note_on_c, 0, 55, 95
2, 273840, Note_on_c, 0, 49, 95
2, 274320, Note_off_c, 0, 64, 95
2, 274320, Note_off_c, 0, 61, 95
2, 274320, Note_off_c, 0, 55, 95
2, 274320, Note_off_c, 0, 49, 95
2, 274560, Note_on_c, 0, 64, 95
2, 274560, Note_on_c, 0, 61, 95
2, 274560, Note_on_c, 0, 57, 95
2, 274560, Note_on_c, 0, 52, 95
2, 274560, Note_on_c, 0, 45, 95
2, 275520, Note_off_c, 0, 64, 95
2, 275520, Note_off_c, 0, 61, 95
2, 275520, Note_off_c, 0, 57, 95
2, 275520, Note_off_c, 0, 52, 95
2, 275520, Note_off_c, 0, 45, 95
2, 276960, Note_on_c, 0, 66, 95
2, 276960, Note_on_c, 0, 62, 95
2, 276960, Note_on_c, 0, 57, 95
2, 276960, Note_on_c, 0, 50, 95
2, 277440, Note_off_c, 0, 66, 95
2, 277440, Note_off_c, 0, 62, 95
2, 277440, Note_off_c, 0, 57, 95
2, 277440, Note_off_c, 0, 50, 95
2, 277680, Note_on_c, 0, 64, 95
2, 277680, Note_on_c, 0, 61, 95
2, 277680, Note_on_c, 0, 55, 95
2, 277680, Note_on_c, 0, 49, 95
2, 278160, Note_off_c, 0, 64, 95
2, 278160, Note_off_c, 0, 61, 95
2, 278160, Note_off_c, 0, 55, 95
2, 278160, Note_off_c, 0, 49, 95
2, 278400, Note_on_c, 0, 64, 95
2, 278400, Note_on_c, 0, 61, 95
2, 278400, Note_on_c, 0, 57, 95
2, 278400, Note_on_c, 0, 52, 95
2, 278400, Note_on_c, 0, 45, 95
2, 279360, Note_off_c, 0, 64, 95
2, 279360, Note_off_c, 0, 61, 95
2, 279360, Note_off_c, 0, 57, 95
2, 279360, Note_off_c, 0, 52, 95
2, 279360, Note_off_c, 0, 45, 95
2, 280320, Note_on_c, 0, 66, 95
2, 280320, Note_on_c, 0, 62, 95
2, 280320, Note_on_c, 0, 57, 95
2, 280320, Note_on_c, 0, 50, 95
2, 282240, Note_off_c, 0, 66, 95
2, 282240, Note_off_c, 0, 62, 95
2, 282240, Note_off_c, 0, 57, 95
2, 282240, Note_off_c, 0, 50, 95
2, 282240, Note_on_c, 0, 61, 95
2, 282240, Note_on_c, 0, 57, 95
2, 282240, Note_on_c, 0, 52, 95
2, 282240, Note_on_c, 0, 45, 95
2, 284160, Note_off_c, 0, 61, 95
2, 284160, Note_off_c, 0, 57, 95
2, 284160, Note_off_c, 0, 52, 95
2, 284160, Note_off_c, 0, 45, 95
2, 284160, Note_on_c, 0, 66, 95
2, 284160, Note_on_c, 0, 62, 95
2, 284160, Note_on_c, 0, 59, 95
2, 284160, Note_on_c, 0, 54, 95
2, 284160, Note_on_c, 0, 47, 95
2, 284160, Note_on_c, 0, 42, 95
2, 288000, Note_off_c, 0, 66, 95
2, 288000, Note_off_c, 0, 62, 95
2, 288000, Note_off_c, 0, 59, 95
2, 288000, Note_off_c, 0, 54, 95
2, 288000, Note_off_c, 0, 47, 95
2, 288000, Note_off_c, 0, 42, 95
2, 288480, Note_on_c, 0, 66, 95
2, 288480, Note_on_c, 0, 62, 95
2, 288480, Note_on_c, 0, 57, 95
2, 288480, Note_on_c, 0, 50, 95
2, 288960, Note_off_c, 0, 66, 95
2, 288960, Note_off_c, 0, 62, 95
2, 288960, Note_off_c, 0, 57, 95
2, 288960, Note_off_c, 0, 50, 95
2, 289200, Note_on_c, 0, 64, 95
2, 289200, Note_on_c, 0, 61, 95
2, 289200, Note_on_c, 0, 55, 95
2, 289200, Note_on_c, 0, 49, 95
2, 289680, Note_off_c, 0, 64, 95
2, 289680, Note_off_c, 0, 61, 95
2, 289680, Note_off_c, 0, 55, 95
2, 289680, Note_off_c, 0, 49, 95
2, 289920, Note_on_c, 0, 64, 95
2, 289920, Note_on_c, 0, 61, 95
2, 289920, Note_on_c, 0, 57, 95
2, 289920, Note_on_c, 0, 52, 95
2, 289920, Note_on_c, 0, 45, 95
2, 290880, Note_off_c, 0, 64, 95
2, 290880, Note_off_c, 0, 61, 95
2, 290880, Note_off_c, 0, 57, 95
2, 290880, Note_off_c, 0, 52, 95
2, 290880, Note_off_c, 0, 45, 95
2, 292320, Note_on_c, 0, 66, 95
2, 292320, Note_on_c, 0, 62, 95
2, 292320, Note_on_c, 0, 57, 95
2, 292320, Note_on_c, 0, 50, 95
2, 292800, Note_off_c, 0, 66, 95
2, 292800, Note_off_c, 0, 62, 95
2, 292800, Note_off_c, 0, 57, 95
2, 292800, Note_off_c, 0, 50, 95
2, 293040, Note_on_c, 0, 64, 95
2, 293040, Note_on_c, 0, 61, 95
2, 293040, Note_on_c, 0, 55, 95
2, 293040, Note_on_c, 0, 49, 95
2, 293520, Note_off_c, 0, 64, 95
2, 293520, Note_off_c, 0, 61, 95
2, 293520, Note_off_c, 0, 55, 95
2, 293520, Note_off_c, 0, 49, 95
2, 293760, Note_on_c, 0, 64, 95
2, 293760, Note_on_c, 0, 61, 95
2, 293760, Note_on_c, 0, 57, 95
2, 293760, Note_on_c, 0, 52, 95
2, 293760, Note_on_c, 0, 45, 95
2, 294720, Note_off_c, 0, 64, 95
2, 294720, Note_off_c, 0, 61, 95
2, 294720, Note_off_c, 0, 57, 95
2, 294720, Note_off_c, 0, 52, 95
2, 294720, Note_off_c, 0, 45, 95
2, 296160, Note_on_c, 0, 66, 95
2, 296160, Note_on_c, 0, 62, 95
2, 296160, Note_on_c, 0, 57, 95
2, 296160, Note_on_c, 0, 50, 95
2, 296640, Note_off_c, 0, 66, 95
2, 296640, Note_off_c, 0, 62, 95
2, 296640, Note_off_c, 0, 57, 95
2, 296640, Note_off_c, 0, 50, 95
2, 296880, Note_on_c, 0, 64, 95
2, 296880, Note_on_c, 0, 61, 95
2, 296880, Note_on_c, 0, 55, 95
2, 296880, Note_on_c, 0, 49, 95
2, 297360, Note_off_c, 0, 64, 95
2, 297360, Note_off_c, 0, 61, 95
2, 297360, Note_off_c, 0, 55, 95
2, 297360, Note_off_c, 0, 49, 95
2, 297600, Note_on_c, 0, 64, 95
2, 297600, Note_on_c, 0, 61, 95
2, 297600, Note_on_c, 0, 57, 95
2, 297600, Note_on_c, 0, 52, 95
2, 297600, Note_on_c, 0, 45, 95
2, 298560, Note_off_c, 0, 64, 95
2, 298560, Note_off_c, 0, 61, 95
2, 298560, Note_off_c, 0, 57, 95
2, 298560, Note_off_c, 0, 52, 95
2, 298560, Note_off_c, 0, 45, 95
2, 300000, Note_on_c, 0, 66, 95
2, 300000, Note_on_c, 0, 62, 95
2, 300000, Note_on_c, 0, 57, 95
2, 300000, Note_on_c, 0, 50, 95
2, 300480, Note_off_c, 0, 66, 95
2, 300480, Note_off_c, 0, 62, 95
2, 300480, Note_off_c, 0, 57, 95
2, 300480, Note_off_c, 0, 50, 95
2, 300720, Note_on_c, 0, 64, 95
2, 300720, Note_on_c, 0, 61, 95
2, 300720, Note_on_c, 0, 55, 95
2, 300720, Note_on_c, 0, 49, 95
2, 301200, Note_off_c, 0, 64, 95
2, 301200, Note_off_c, 0, 61, 95
2, 301200, Note_off_c, 0, 55, 95
2, 301200, Note_off_c, 0, 49, 95
2, 301440, Note_on_c, 0, 64, 95
2, 301440, Note_on_c, 0, 61, 95
2, 301440, Note_on_c, 0, 57, 95
2, 301440, Note_on_c, 0, 52, 95
2, 301440, Note_on_c, 0, 45, 95
2, 302400, Note_off_c, 0, 64, 95
2, 302400, Note_off_c, 0, 61, 95
2, 302400, Note_off_c, 0, 57, 95
2, 302400, Note_off_c, 0, 52, 95
2, 302400, Note_off_c, 0, 45, 95
2, 303840, Note_on_c, 0, 66, 95
2, 303840, Note_on_c, 0, 62, 95
2, 303840, Note_on_c, 0, 57, 95
2, 303840, Note_on_c, 0, 50, 95
2, 304320, Note_off_c, 0, 66, 95
2, 304320, Note_off_c, 0, 62, 95
2, 304320, Note_off_c, 0, 57, 95
2, 304320, Note_off_c, 0, 50, 95
2, 304560, Note_on_c, 0, 64, 95
2, 304560, Note_on_c, 0, 61, 95
2, 304560, Note_on_c, 0, 55, 95
2, 304560, Note_on_c, 0, 49, 95
2, 305040, Note_off_c, 0, 64, 95
2, 305040, Note_off_c, 0, 61, 95
2, 305040, Note_off_c, 0, 55, 95
2, 305040, Note_off_c, 0, 49, 95
2, 305280, Note_on_c, 0, 64, 95
2, 305280, Note_on_c, 0, 61, 95
2, 305280, Note_on_c, 0, 57, 95
2, 305280, Note_on_c, 0, 52, 95
2, 305280, Note_on_c, 0, 45, 95
2, 306240, Note_off_c, 0, 64, 95
2, 306240, Note_off_c, 0, 61, 95
2, 306240, Note_off_c, 0, 57, 95
2, 306240, Note_off_c, 0, 52, 95
2, 306240, Note_off_c, 0, 45, 95
2, 307680, Note_on_c, 0, 66, 95
2, 307680, Note_on_c, 0, 62, 95
2, 307680, Note_on_c, 0, 57, 95
2, 307680, Note_on_c, 0, 50, 95
2, 308160, Note_off_c, 0, 66, 95
2, 308160, Note_off_c, 0, 62, 95
2, 308160, Note_off_c, 0, 57, 95
2, 308160, Note_off_c, 0, 50, 95
2, 308400, Note_on_c, 0, 64, 95
2, 308400, Note_on_c, 0, 61, 95
2, 308400, Note_on_c, 0, 55, 95
2, 308400, Note_on_c, 0, 49, 95
2, 308880, Note_off_c, 0, 64, 95
2, 308880, Note_off_c, 0, 61, 95
2, 308880, Note_off_c, 0, 55, 95
2, 308880, Note_off_c, 0, 49, 95
2, 309120, Note_on_c, 0, 64, 95
2, 309120, Note_on_c, 0, 61, 95
2, 309120, Note_on_c, 0, 57, 95
2, 309120, Note_on_c, 0, 52, 95
2, 309120, Note_on_c, 0, 45, 95
2, 310080, Note_off_c, 0, 64, 95
2, 310080, Note_off_c, 0, 61, 95
2, 310080, Note_off_c, 0, 57, 95
2, 310080, Note_off_c, 0, 52, 95
2, 310080, Note_off_c, 0, 45, 95
2, 311520, Note_on_c, 0, 66, 95
2, 311520, Note_on_c, 0, 62, 95
2, 311520, Note_on_c, 0, 57, 95
2, 311520, Note_on_c, 0, 50, 95
2, 312000, Note_off_c, 0, 66, 95
2, 312000, Note_off_c, 0, 62, 95
2, 312000, Note_off_c, 0, 57, 95
2, 312000, Note_off_c, 0, 50, 95
2, 312240, Note_on_c, 0, 64, 95
2, 312240, Note_on_c, 0, 61, 95
2, 312240, Note_on_c, 0, 55, 95
2, 312240, Note_on_c, 0, 49, 95
2, 312720, Note_off_c, 0, 64, 95
2, 312720, Note_off_c, 0, 61, 95
2, 312720, Note_off_c, 0, 55, 95
2, 312720, Note_off_c, 0, 49, 95
2, 312960, Note_on_c, 0, 64, 95
2, 312960, Note_on_c, 0, 61, 95
2, 312960, Note_on_c, 0, 57, 95
2, 312960, Note_on_c, 0, 52, 95
2, 312960, Note_on_c, 0, 45, 95
2, 313920, Note_off_c, 0, 64, 95
2, 313920, Note_off_c, 0, 61, 95
2, 313920, Note_off_c, 0, 57, 95
2, 313920, Note_off_c, 0, 52, 95
2, 313920, Note_off_c, 0, 45, 95
2, 315360, Note_on_c, 0, 66, 95
2, 315360, Note_on_c, 0, 62, 95
2, 315360, Note_on_c, 0, 57, 95
2, 315360, Note_on_c, 0, 50, 95
2, 315840, Note_off_c, 0, 66, 95
2, 315840, Note_off_c, 0, 62, 95
2, 315840, Note_off_c, 0, 57, 95
2, 315840, Note_off_c, 0, 50, 95
2, 316080, Note_on_c, 0, 64, 95
2, 316080, Note_on_c, 0, 61, 95
2, 316080, Note_on_c, 0, 55, 95
2, 316080, Note_on_c, 0, 49, 95
2, 316560, Note_off_c, 0, 64, 95
2, 316560, Note_off_c, 0, 61, 95
2, 316560, Note_off_c, 0, 55, 95
2, 316560, Note_off_c, 0, 49, 95
2, 316800, Note_on_c, 0, 64, 95
2, 316800, Note_on_c, 0, 61, 95
2, 316800, Note_on_c, 0, 57, 95
2, 316800, Note_on_c, 0, 52, 95
2, 316800, Note_on_c, 0, 45, 95
2, 317760, Note_off_c, 0, 64, 95
2, 317760, Note_off_c, 0, 61, 95
2, 317760, Note_off_c, 0, 57, 95
2, 317760, Note_off_c, 0, 52, 95
2, 317760, Note_off_c, 0, 45, 95
2, 319200, Note_on_c, 0, 66, 95
2, 319200, Note_on_c, 0, 62, 95
2, 319200, Note_on_c, 0, 57, 95
2, 319200, Note_on_c, 0, 50, 95
2, 319680, Note_off_c, 0, 66, 95
2, 319680, Note_off_c, 0, 62, 95
2, 319680, Note_off_c, 0, 57, 95
2, 319680, Note_off_c, 0, 50, 95
2, 319920, Note_on_c, 0, 64, 95
2, 319920, Note_on_c, 0, 61, 95
2, 319920, Note_on_c, 0, 55, 95
2, 319920, Note_on_c, 0, 49, 95
2, 320400, Note_off_c, 0, 64, 95
2, 320400, Note_off_c, 0, 61, 95
2, 320400, Note_off_c, 0, 55, 95
2, 320400, Note_off_c, 0, 49, 95
2, 320640, Note_on_c, 0, 64, 95
2, 320640, Note_on_c, 0, 61, 95
2, 320640, Note_on_c, 0, 57, 95
2, 320640, Note_on_c, 0, 52, 95
2, 320640, Note_on_c, 0, 45, 95
2, 321600, Note_off_c, 0, 64, 95
2, 321600, Note_off_c, 0, 61, 95
2, 321600, Note_off_c, 0, 57, 95
2, 321600, Note_off_c, 0, 52, 95
2, 321600, Note_off_c, 0, 45, 95
2, 323040, Note_on_c, 0, 66, 95
2, 323040, Note_on_c, 0, 62, 95
2, 323040, Note_on_c, 0, 57, 95
2, 323040, Note_on_c, 0, 50, 95
2, 323520, Note_off_c, 0, 66, 95
2, 323520, Note_off_c, 0, 62, 95
2, 323520, Note_off_c, 0, 57, 95
2, 323520, Note_off_c, 0, 50, 95
2, 323760, Note_on_c, 0, 64, 95
2, 323760, Note_on_c, 0, 61, 95
2, 323760, Note_on_c, 0, 55, 95
2, 323760, Note_on_c, 0, 49, 95
2, 324240, Note_off_c, 0, 64, 95
2, 324240, Note_off_c, 0, 61, 95
2, 324240, Note_off_c, 0, 55, 95
2, 324240, Note_off_c, 0, 49, 95
2, 324480, Note_on_c, 0, 64, 95
2, 324480, Note_on_c, 0, 61, 95
2, 324480, Note_on_c, 0, 57, 95
2, 324480, Note_on_c, 0, 52, 95
2, 324480, Note_on_c, 0, 45, 95
2, 325440, Note_off_c, 0, 64, 95
2, 325440, Note_off_c, 0, 61, 95
2, 325440, Note_off_c, 0, 57, 95
2, 325440, Note_off_c, 0, 52, 95
2, 325440, Note_off_c, 0, 45, 95
2, 326880, Note_on_c, 0, 66, 95
2, 326880, Note_on_c, 0, 62, 95
2, 326880, Note_on_c, 0, 57, 95
2, 326880, Note_on_c, 0, 50, 95
2, 327360, Note_off_c, 0, 66, 95
2, 327360, Note_off_c, 0, 62, 95
2, 327360, Note_off_c, 0, 57, 95
2, 327360, Note_off_c, 0, 50, 95
2, 327600, Note_on_c, 0, 64, 95
2, 327600, Note_on_c, 0, 61, 95
2, 327600, Note_on_c, 0, 55, 95
2, 327600, Note_on_c, 0, 49, 95
2, 328080, Note_off_c, 0, 64, 95
2, 328080, Note_off_c, 0, 61, 95
2, 328080, Note_off_c, 0, 55, 95
2, 328080, Note_off_c, 0, 49, 95
2, 328320, Note_on_c, 0, 64, 95
2, 328320, Note_on_c, 0, 61, 95
2, 328320, Note_on_c, 0, 57, 95
2, 328320, Note_on_c, 0, 52, 95
2, 328320, Note_on_c, 0, 45, 95
2, 329280, Note_off_c, 0, 64, 95
2, 329280, Note_off_c, 0, 61, 95
2, 329280, Note_off_c, 0, 57, 95
2, 329280, Note_off_c, 0, 52, 95
2, 329280, Note_off_c, 0, 45, 95
2, 330720, Note_on_c, 0, 66, 95
2, 330720, Note_on_c, 0, 62, 95
2, 330720, Note_on_c, 0, 57, 95
2, 330720, Note_on_c, 0, 50, 95
2, 331200, Note_off_c, 0, 66, 95
2, 331200, Note_off_c, 0, 62, 95
2, 331200, Note_off_c, 0, 57, 95
2, 331200, Note_off_c, 0, 50, 95
2, 331440, Note_on_c, 0, 64, 95
2, 331440, Note_on_c, 0, 61, 95
2, 331440, Note_on_c, 0, 55, 95
2, 331440, Note_on_c, 0, 49, 95
2, 331920, Note_off_c, 0, 64, 95
2, 331920, Note_off_c, 0, 61, 95
2, 331920, Note_off_c, 0, 55, 95
2, 331920, Note_off_c, 0, 49, 95
2, 332160, Note_on_c, 0, 64, 95
2, 332160, Note_on_c, 0, 61, 95
2, 332160, Note_on_c, 0, 57, 95
2, 332160, Note_on_c, 0, 52, 95
2, 332160, Note_on_c, 0, 45, 95
2, 333120, Note_off_c, 0, 64, 95
2, 333120, Note_off_c, 0, 61, 95
2, 333120, Note_off_c, 0, 57, 95
2, 333120, Note_off_c, 0, 52, 95
2, 333120, Note_off_c, 0, 45, 95
2, 334560, Note_on_c, 0, 66, 95
2, 334560, Note_on_c, 0, 62, 95
2, 334560, Note_on_c, 0, 57, 95
2, 334560, Note_on_c, 0, 50, 95
2, 335040, Note_off_c, 0, 66, 95
2, 335040, Note_off_c, 0, 62, 95
2, 335040, Note_off_c, 0, 57, 95
2, 335040, Note_off_c, 0, 50, 95
2, 335280, Note_on_c, 0, 64, 95
2, 335280, Note_on_c, 0, 61, 95
2, 335280, Note_on_c, 0, 55, 95
2, 335280, Note_on_c, 0, 49, 95
2, 335760, Note_off_c, 0, 64, 95
2, 335760, Note_off_c, 0, 61, 95
2, 335760, Note_off_c, 0, 55, 95
2, 335760, Note_off_c, 0, 49, 95
2, 336000, Note_on_c, 0, 64, 95
2, 336000, Note_on_c, 0, 61, 95
2, 336000, Note_on_c, 0, 57, 95
2, 336000, Note_on_c, 0, 52, 95
2, 336000, Note_on_c, 0, 45, 95
2, 336960, Note_off_c, 0, 64, 95
2, 336960, Note_off_c, 0, 61, 95
2, 336960, Note_off_c, 0, 57, 95
2, 336960, Note_off_c, 0, 52, 95
2, 336960, Note_off_c, 0, 45, 95
2, 338400, Note_on_c, 0, 66, 95
2, 338400, Note_on_c, 0, 62, 95
2, 338400, Note_on_c, 0, 57, 95
2, 338400, Note_on_c, 0, 50, 95
2, 338880, Note_off_c, 0, 66, 95
2, 338880, Note_off_c, 0, 62, 95
2, 338880, Note_off_c, 0, 57, 95
2, 338880, Note_off_c, 0, 50, 95
2, 339120, Note_on_c, 0, 64, 95
2, 339120, Note_on_c, 0, 61, 95
2, 339120, Note_on_c, 0, 55, 95
2, 339120, Note_on_c, 0, 49, 95
2, 339600, Note_off_c, 0, 64, 95
2, 339600, Note_off_c, 0, 61, 95
2, 339600, Note_off_c, 0, 55, 95
2, 339600, Note_off_c, 0, 49, 95
2, 339840, Note_on_c, 0, 64, 95
2, 339840, Note_on_c, 0, 61, 95
2, 339840, Note_on_c, 0, 57, 95
2, 339840, Note_on_c, 0, 52, 95
2, 339840, Note_on_c, 0, 45, 95
2, 340800, Note_off_c, 0, 64, 95
2, 340800, Note_off_c, 0, 61, 95
2, 340800, Note_off_c, 0, 57, 95
2, 340800, Note_off_c, 0, 52, 95
2, 340800, Note_off_c, 0, 45, 95
2, 342240, Note_on_c, 0, 66, 95
2, 342240, Note_on_c, 0, 62, 95
2, 342240, Note_on_c, 0, 57, 95
2, 342240, Note_on_c, 0, 50, 95
2, 342720, Note_off_c, 0, 66, 95
2, 342720, Note_off_c, 0, 62, 95
2, 342720, Note_off_c, 0, 57, 95
2, 342720, Note_off_c, 0, 50, 95
2, 342960, Note_on_c, 0, 64, 95
2, 342960, Note_on_c, 0, 61, 95
2, 342960, Note_on_c, 0, 55, 95
2, 342960, Note_on_c, 0, 49, 95
2, 343440, Note_off_c, 0, 64, 95
2, 343440, Note_off_c, 0, 61, 95
2, 343440, Note_off_c, 0, 55, 95
2, 343440, Note_off_c, 0, 49, 95
2, 343680, Note_on_c, 0, 64, 95
2, 343680, Note_on_c, 0, 61, 95
2, 343680, Note_on_c, 0, 57, 95
2, 343680, Note_on_c, 0, 52, 95
2, 343680, Note_on_c, 0, 45, 95
2, 344640, Note_off_c, 0, 64, 95
2, 344640, Note_off_c, 0, 61, 95
2, 344640, Note_off_c, 0, 57, 95
2, 344640, Note_off_c, 0, 52, 95
2, 344640, Note_off_c, 0, 45, 95
2, 346080, Note_on_c, 0, 66, 95
2, 346080, Note_on_c, 0, 62, 95
2, 346080, Note_on_c, 0, 57, 95
2, 346080, Note_on_c, 0, 50, 95
2, 346560, Note_off_c, 0, 66, 95
2, 346560, Note_off_c, 0, 62, 95
2, 346560, Note_off_c, 0, 57, 95
2, 346560, Note_off_c, 0, 50, 95
2, 346800, Note_on_c, 0, 64, 95
2, 346800, Note_on_c, 0, 61, 95
2, 346800, Note_on_c, 0, 55, 95
2, 346800, Note_on_c, 0, 49, 95
2, 347280, Note_off_c, 0, 64, 95
2, 347280, Note_off_c, 0, 61, 95
2, 347280, Note_off_c, 0, 55, 95
2, 347280, Note_off_c, 0, 49, 95
2, 347520, Note_on_c, 0, 64, 95
2, 347520, Note_on_c, 0, 61, 95
2, 347520, Note_on_c, 0, 57, 95
2, 347520, Note_on_c, 0, 52, 95
2, 347520, Note_on_c, 0, 45, 95
2, 348480, Note_off_c, 0, 64, 95
2, 348480, Note_off_c, 0, 61, 95
2, 348480, Note_off_c, 0, 57, 95
2, 348480, Note_off_c, 0, 52, 95
2, 348480, Note_off_c, 0, 45, 95
2, 349920, Note_on_c, 0, 66, 95
2, 349920, Note_on_c, 0, 62, 95
2, 349920, Note_on_c, 0, 57, 95
2, 349920, Note_on_c, 0, 50, 95
2, 350400, Note_off_c, 0, 66, 95
2, 350400, Note_off_c, 0, 62, 95
2, 350400, Note_off_c, 0, 57, 95
2, 350400, Note_off_c, 0, 50, 95
2, 350640, Note_on_c, 0, 64, 95
2, 350640, Note_on_c, 0, 61, 95
2, 350640, Note_on_c, 0, 55, 95
2, 350640, Note_on_c, 0, 49, 95
2, 351120, Note_off_c, 0, 64, 95
2, 351120, Note_off_c, 0, 61, 95
2, 351120, Note_off_c, 0, 55, 95
2, 351120, Note_off_c, 0, 49, 95
2, 351360, Note_on_c, 0, 64, 95
2, 351360, Note_on_c, 0, 61, 95
2, 351360, Note_on_c, 0, 57, 95
2, 351360, Note_on_c, 0, 52, 95
2, 351360, Note_on_c, 0, 45, 95
2, 352320, Note_off_c, 0, 64, 95
2, 352320, Note_off_c, 0, 61, 95
2, 352320, Note_off_c, 0, 57, 95
2, 352320, Note_off_c, 0, 52, 95
2, 352320, Note_off_c, 0, 45, 95
2, 353760, Note_on_c, 0, 66, 95
2, 353760, Note_on_c, 0, 62, 95
2, 353760, Note_on_c, 0, 57, 95
2, 353760, Note_on_c, 0, 50, 95
2, 354240, Note_off_c, 0, 66, 95
2, 354240, Note_off_c, 0, 62, 95
2, 354240, Note_off_c, 0, 57, 95
2, 354240, Note_off_c, 0, 50, 95
2, 354480, Note_on_c, 0, 64, 95
2, 354480, Note_on_c, 0, 61, 95
2, 354480, Note_on_c, 0, 55, 95
2, 354480, Note_on_c, 0, 49, 95
2, 354960, Note_off_c, 0, 64, 95
2, 354960, Note_off_c, 0, 61, 95
2, 354960, Note_off_c, 0, 55, 95
2, 354960, Note_off_c, 0, 49, 95
2, 355200, Note_on_c, 0, 64, 95
2, 355200, Note_on_c, 0, 61, 95
2, 355200, Note_on_c, 0, 57, 95
2, 355200, Note_on_c, 0, 52, 95
2, 355200, Note_on_c, 0, 45, 95
2, 356160, Note_off_c, 0, 64, 95
2, 356160, Note_off_c, 0, 61, 95
2, 356160, Note_off_c, 0, 57, 95
2, 356160, Note_off_c, 0, 52, 95
2, 356160, Note_off_c, 0, 45, 95
2, 357600, Note_on_c, 0, 66, 95
2, 357600, Note_on_c, 0, 62, 95
2, 357600, Note_on_c, 0, 57, 95
2, 357600, Note_on_c, 0, 50, 95
2, 358080, Note_off_c, 0, 66, 95
2, 358080, Note_off_c, 0, 62, 95
2, 358080, Note_off_c, 0, 57, 95
2, 358080, Note_off_c, 0, 50, 95
2, 358320, Note_on_c, 0, 64, 95
2, 358320, Note_on_c, 0, 61, 95
2, 358320, Note_on_c, 0, 55, 95
2, 358320, Note_on_c, 0, 49, 95
2, 358800, Note_off_c, 0, 64, 95
2, 358800, Note_off_c, 0, 61, 95
2, 358800, Note_off_c, 0, 55, 95
2, 358800, Note_off_c, 0, 49, 95
2, 359040, Note_on_c, 0, 64, 95
2, 359040, Note_on_c, 0, 61, 95
2, 359040, Note_on_c, 0, 57, 95
2, 359040, Note_on_c, 0, 52, 95
2, 359040, Note_on_c, 0, 45, 95
2, 360000, Note_off_c, 0, 64, 95
2, 360000, Note_off_c, 0, 61, 95
2, 360000, Note_off_c, 0, 57, 95
2, 360000, Note_off_c, 0, 52, 95
2, 360000, Note_off_c, 0, 45, 95
2, 361440, Note_on_c, 0, 66, 95
2, 361440, Note_on_c, 0, 62, 95
2, 361440, Note_on_c, 0, 57, 95
2, 361440, Note_on_c, 0, 50, 95
2, 361920, Note_off_c, 0, 66, 95
2, 361920, Note_off_c, 0, 62, 95
2, 361920, Note_off_c, 0, 57, 95
2, 361920, Note_off_c, 0, 50, 95
2, 362160, Note_on_c, 0, 64, 95
2, 362160, Note_on_c, 0, 61, 95
2, 362160, Note_on_c, 0, 55, 95
2, 362160, Note_on_c, 0, 49, 95
2, 362640, Note_off_c, 0, 64, 95
2, 362640, Note_off_c, 0, 61, 95
2, 362640, Note_off_c, 0, 55, 95
2, 362640, Note_off_c, 0, 49, 95
2, 362880, Note_on_c, 0, 64, 95
2, 362880, Note_on_c, 0, 61, 95
2, 362880, Note_on_c, 0, 57, 95
2, 362880, Note_on_c, 0, 52, 95
2, 362880, Note_on_c, 0, 45, 95
2, 363840, Note_off_c, 0, 64, 95
2, 363840, Note_off_c, 0, 61, 95
2, 363840, Note_off_c, 0, 57, 95
2, 363840, Note_off_c, 0, 52, 95
2, 363840, Note_off_c, 0, 45, 95
2, 365280, Note_on_c, 0, 66, 95
2, 365280, Note_on_c, 0, 62, 95
2, 365280, Note_on_c, 0, 57, 95
2, 365280, Note_on_c, 0, 50, 95
2, 365760, Note_off_c, 0, 66, 95
2, 365760, Note_off_c, 0, 62, 95
2, 365760, Note_off_c, 0, 57, 95
2, 365760, Note_off_c, 0, 50, 95
2, 366000, Note_on_c, 0, 64, 95
2, 366000, Note_on_c, 0, 61, 95
2, 366000, Note_on_c, 0, 55, 95
2, 366000, Note_on_c, 0, 49, 95
2, 366480, Note_off_c, 0, 64, 95
2, 366480, Note_off_c, 0, 61, 95
2, 366480, Note_off_c, 0, 55, 95
2, 366480, Note_off_c, 0, 49, 95
2, 366720, Note_on_c, 0, 64, 95
2, 366720, Note_on_c, 0, 61, 95
2, 366720, Note_on_c, 0, 57, 95
2, 366720, Note_on_c, 0, 52, 95
2, 366720, Note_on_c, 0, 45, 95
2, 367680, Note_off_c, 0, 64, 95
2, 367680, Note_off_c, 0, 61, 95
2, 367680, Note_off_c, 0, 57, 95
2, 367680, Note_off_c, 0, 52, 95
2, 367680, Note_off_c, 0, 45, 95
2, 369120, Note_on_c, 0, 66, 95
2, 369120, Note_on_c, 0, 62, 95
2, 369120, Note_on_c, 0, 57, 95
2, 369120, Note_on_c, 0, 50, 95
2, 369600, Note_off_c, 0, 66, 95
2, 369600, Note_off_c, 0, 62, 95
2, 369600, Note_off_c, 0, 57, 95
2, 369600, Note_off_c, 0, 50, 95
2, 369840, Note_on_c, 0, 64, 95
2, 369840, Note_on_c, 0, 61, 95
2, 369840, Note_on_c, 0, 55, 95
2, 369840, Note_on_c, 0, 49, 95
2, 370320, Note_off_c, 0, 64, 95
2, 370320, Note_off_c, 0, 61, 95
2, 370320, Note_off_c, 0, 55, 95
2, 370320, Note_off_c, 0, 49, 95
2, 370560, Note_on_c, 0, 64, 95
2, 370560, Note_on_c, 0, 61, 95
2, 370560, Note_on_c, 0, 57, 95
2, 370560, Note_on_c, 0, 52, 95
2, 370560, Note_on_c, 0, 45, 95
2, 371520, Note_off_c, 0, 64, 95
2, 371520, Note_off_c, 0, 61, 95
2, 371520, Note_off_c, 0, 57, 95
2, 371520, Note_off_c, 0, 52, 95
2, 371520, Note_off_c, 0, 45, 95
2, 372960, Note_on_c, 0, 66, 95
2, 372960, Note_on_c, 0, 62, 95
2, 372960, Note_on_c, 0, 57, 95
2, 372960, Note_on_c, 0, 50, 95
2, 373440, Note_off_c, 0, 66, 95
2, 373440, Note_off_c, 0, 62, 95
2, 373440, Note_off_c, 0, 57, 95
2, 373440, Note_off_c, 0, 50, 95
2, 373680, Note_on_c, 0, 64, 95
2, 373680, Note_on_c, 0, 61, 95
2, 373680, Note_on_c, 0, 55, 95
2, 373680, Note_on_c, 0, 49, 95
2, 374160, Note_off_c, 0, 64, 95
2, 374160, Note_off_c, 0, 61, 95
2, 374160, Note_off_c, 0, 55, 95
2, 374160, Note_off_c, 0, 49, 95
2, 374400, Note_on_c, 0, 64, 95
2, 374400, Note_on_c, 0, 61, 95
2, 374400, Note_on_c, 0, 57, 95
2, 374400, Note_on_c, 0, 52, 95
2, 374400, Note_on_c, 0, 45, 95
2, 375360, Note_off_c, 0, 64, 95
2, 375360, Note_off_c, 0, 61, 95
2, 375360, Note_off_c, 0, 57, 95
2, 375360, Note_off_c, 0, 52, 95
2, 375360, Note_off_c, 0, 45, 95
2, 376800, Note_on_c, 0, 66, 95
2, 376800, Note_on_c, 0, 62, 95
2, 376800, Note_on_c, 0, 57, 95
2, 376800, Note_on_c, 0, 50, 95
2, 377280, Note_off_c, 0, 66, 95
2, 377280, Note_off_c, 0, 62, 95
2, 377280, Note_off_c, 0, 57, 95
2, 377280, Note_off_c, 0, 50, 95
2, 377520, Note_on_c, 0, 64, 95
2, 377520, Note_on_c, 0, 61, 95
2, 377520, Note_on_c, 0, 55, 95
2, 377520, Note_on_c, 0, 49, 95
2, 378000, Note_off_c, 0, 64, 95
2, 378000, Note_off_c, 0, 61, 95
2, 378000, Note_off_c, 0, 55, 95
2, 378000, Note_off_c, 0, 49, 95
2, 378240, Note_on_c, 0, 64, 95
2, 378240, Note_on_c, 0, 61, 95
2, 378240, Note_on_c, 0, 57, 95
2, 378240, Note_on_c, 0, 52, 95
2, 378240, Note_on_c, 0, 45, 95
2, 379200, Note_off_c, 0, 64, 95
2, 379200, Note_off_c, 0, 61, 95
2, 379200, Note_off_c, 0, 57, 95
2, 379200, Note_off_c, 0, 52, 95
2, 379200, Note_off_c, 0, 45, 95
2, 379200, End_track
3, 0, Start_track
3, 0, Pitch_bend_c, 6, 8192
3, 0, Control_c, 6, 7, 127
3, 0, Control_c, 6, 10, 63
3, 0, Control_c, 6, 93, 0
3, 0, Control_c, 6, 91, 0
3, 0, Control_c, 6, 95, 0
3, 0, Control_c, 6, 92, 0
3, 0, Control_c, 6, 11, 127
3, 0, Program_c, 6, 33
3, 0, Control_c, 7, 7, 127
3, 0, Control_c, 7, 10, 63
3, 0, Control_c, 7, 93, 0
3, 0, Control_c, 7, 91, 0
3, 0, Control_c, 7, 95, 0
3, 0, Control_c, 7, 92, 0
3, 0, Control_c, 7, 11, 127
3, 0, Program_c, 7, 33
3, 27360, Note_on_c, 6, 38, 95
3, 27840, Note_off_c, 6, 38, 95
3, 28080, Note_on_c, 6, 37, 95
3, 28560, Note_off_c, 6, 37, 95
3, 28800, Note_on_c, 6, 33, 95
3, 29280, Note_off_c, 6, 33, 95
3, 29280, Note_on_c, 6, 31, 95
3, 29760, Note_off_c, 6, 31, 95
3, 29760, Note_on_c, 6, 33, 95
3, 30240, Note_off_c, 6, 33, 95
3, 31200, Note_on_c, 6, 38, 95
3, 31680, Note_off_c, 6, 38, 95
3, 31920, Note_on_c, 6, 37, 95
3, 32400, Note_off_c, 6, 37, 95
3, 32640, Note_on_c, 6, 33, 95
3, 33120, Note_off_c, 6, 33, 95
3, 33120, Note_on_c, 6, 31, 95
3, 33600, Note_off_c, 6, 31, 95
3, 33600, Note_on_c, 6, 33, 95
3, 34080, Note_off_c, 6, 33, 95
3, 35040, Note_on_c, 6, 38, 95
3, 35520, Note_off_c, 6, 38, 95
3, 35760, Note_on_c, 6, 37, 95
3, 36240, Note_off_c, 6, 37, 95
3, 36480, Note_on_c, 6, 33, 95
3, 36960, Note_off_c, 6, 33, 95
3, 36960, Note_on_c, 6, 31, 95
3, 37440, Note_off_c, 6, 31, 95
3, 37440, Note_on_c, 6, 33, 95
3, 37920, Note_off_c, 6, 33, 95
3, 38880, Note_on_c, 6, 38, 95
3, 39360, Note_off_c, 6, 38, 95
3, 39600, Note_on_c, 6, 37, 95
3, 40080, Note_off_c, 6, 37, 95
3, 40320, Note_on_c, 6, 33, 95
3, 40800, Note_off_c, 6, 33, 95
3, 40800, Note_on_c, 6, 31, 95
3, 41280, Note_off_c, 6, 31, 95
3, 41280, Note_on_c, 6, 33, 95
3, 41760, Note_off_c, 6, 33, 95
3, 42240, Note_on_c, 6, 33, 95
3, 43680, Note_off_c, 6, 33, 95
3, 43680, Note_on_c, 6, 33, 95
3, 44640, Note_off_c, 6, 33, 95
3, 44640, Note_on_c, 6, 31, 95
3, 45120, Note_off_c, 6, 31, 95
3, 45120, Note_on_c, 6, 33, 95
3, 46080, Note_off_c, 6, 33, 95
3, 46080, Note_on_c, 6, 35, 95
3, 47520, Note_off_c, 6, 35, 95
3, 47520, Note_on_c, 6, 35, 95
3, 48480, Note_off_c, 6, 35, 95
3, 48480, Note_on_c, 6, 33, 95
3, 48960, Note_off_c, 6, 33, 95
3, 48960, Note_on_c, 6, 35, 95
3, 49920, Note_off_c, 6, 35, 95
3, 50400, Note_on_c, 6, 38, 95
3, 50880, Note_off_c, 6, 38, 95
3, 51120, Note_on_c, 6, 37, 95
3, 51600, Note_off_c, 6, 37, 95
3, 51840, Note_on_c, 6, 33, 95
3, 52320, Note_off_c, 6, 33, 95
3, 52320, Note_on_c, 6, 31, 95
3, 52800, Note_off_c, 6, 31, 95
3, 52800, Note_on_c, 6, 33, 95
3, 53280, Note_off_c, 6, 33, 95
3, 54240, Note_on_c, 6, 38, 95
3, 54720, Note_off_c, 6, 38, 95
3, 54960, Note_on_c, 6, 37, 95
3, 55440, Note_off_c, 6, 37, 95
3, 55680, Note_on_c, 6, 33, 95
3, 56160, Note_off_c, 6, 33, 95
3, 56160, Note_on_c, 6, 31, 95
3, 56640, Note_off_c, 6, 31, 95
3, 56640, Note_on_c, 6, 33, 95
3, 57120, Note_off_c, 6, 33, 95
3, 57600, Note_on_c, 6, 38, 95
3, 59520, Note_off_c, 6, 38, 95
3, 60000, Note_on_c, 6, 38, 95
3, 60480, Note_off_c, 6, 38, 95
3, 60480, Note_on_c, 6, 37, 95
3, 60960, Note_off_c, 6, 37, 95
3, 60960, Note_on_c, 6, 35, 95
3, 61440, Note_off_c, 6, 35, 95
3, 61440, Note_on_c, 6, 33, 95
3, 62880, Note_off_c, 6, 33, 95
3, 62880, Note_on_c, 6, 33, 95
3, 63840, Note_off_c, 6, 33, 95
3, 63840, Note_on_c, 6, 33, 95
3, 64320, Note_off_c, 6, 33, 95
3, 64320, Note_on_c, 6, 37, 95
3, 64800, Note_off_c, 6, 37, 95
3, 64800, Note_on_c, 6, 38, 95
3, 65280, Note_off_c, 6, 38, 95
3, 65280, Note_on_c, 6, 35, 95
3, 67200, Note_off_c, 6, 35, 95
3, 67200, Note_on_c, 6, 38, 95
3, 67680, Note_off_c, 6, 38, 95
3, 67680, Note_on_c, 6, 37, 95
3, 68160, Note_off_c, 6, 37, 95
3, 68160, Note_on_c, 6, 35, 95
3, 68640, Note_off_c, 6, 35, 95
3, 68640, Note_on_c, 6, 38, 95
3, 69120, Note_off_c, 6, 38, 95
3, 73440, Note_on_c, 6, 38, 95
3, 73920, Note_off_c, 6, 38, 95
3, 74160, Note_on_c, 6, 37, 95
3, 74640, Note_off_c, 6, 37, 95
3, 74880, Note_on_c, 6, 33, 95
3, 75360, Note_off_c, 6, 33, 95
3, 75360, Note_on_c, 6, 31, 95
3, 75840, Note_off_c, 6, 31, 95
3, 75840, Note_on_c, 6, 33, 95
3, 76320, Note_off_c, 6, 33, 95
3, 77280, Note_on_c, 6, 38, 95
3, 77760, Note_off_c, 6, 38, 95
3, 78000, Note_on_c, 6, 37, 95
3, 78480, Note_off_c, 6, 37, 95
3, 78720, Note_on_c, 6, 33, 95
3, 79200, Note_off_c, 6, 33, 95
3, 79200, Note_on_c, 6, 31, 95
3, 79680, Note_off_c, 6, 31, 95
3, 79680, Note_on_c, 6, 33, 95
3, 80160, Note_off_c, 6, 33, 95
3, 81120, Note_on_c, 6, 38, 95
3, 81600, Note_off_c, 6, 38, 95
3, 81840, Note_on_c, 6, 37, 95
3, 82320, Note_off_c, 6, 37, 95
3, 82560, Note_on_c, 6, 33, 95
3, 83040, Note_off_c, 6, 33, 95
3, 83040, Note_on_c, 6, 31, 95
3, 83520, Note_off_c, 6, 31, 95
3, 83520, Note_on_c, 6, 33, 95
3, 84000, Note_off_c, 6, 33, 95
3, 84960, Note_on_c, 6, 38, 95
3, 85440, Note_off_c, 6, 38, 95
3, 85680, Note_on_c, 6, 37, 95
3, 86160, Note_off_c, 6, 37, 95
3, 86400, Note_on_c, 6, 33, 95
3, 86880, Note_off_c, 6, 33, 95
3, 86880, Note_on_c, 6, 31, 95
3, 87360, Note_off_c, 6, 31, 95
3, 87360, Note_on_c, 6, 33, 95
3, 87840, Note_off_c, 6, 33, 95
3, 88800, Note_on_c, 6, 38, 95
3, 89280, Note_off_c, 6, 38, 95
3, 89520, Note_on_c, 6, 37, 95
3, 90000, Note_off_c, 6, 37, 95
3, 90240, Note_on_c, 6, 33, 95
3, 90720, Note_off_c, 6, 33, 95
3, 90720, Note_on_c, 6, 31, 95
3, 91200, Note_off_c, 6, 31, 95
3, 91200, Note_on_c, 6, 33, 95
3, 91680, Note_off_c, 6, 33, 95
3, 92640, Note_on_c, 6, 38, 95
3, 93120, Note_off_c, 6, 38, 95
3, 93360, Note_on_c, 6, 37, 95
3, 93840, Note_off_c, 6, 37, 95
3, 94080, Note_on_c, 6, 33, 95
3, 94560, Note_off_c, 6, 33, 95
3, 94560, Note_on_c, 6, 31, 95
3, 95040, Note_off_c, 6, 31, 95
3, 95040, Note_on_c, 6, 33, 95
3, 95520, Note_off_c, 6, 33, 95
3, 96480, Note_on_c, 6, 38, 95
3, 96960, Note_off_c, 6, 38, 95
3, 97200, Note_on_c, 6, 37, 95
3, 97680, Note_off_c, 6, 37, 95
3, 97920, Note_on_c, 6, 33, 95
3, 98400, Note_off_c, 6, 33, 95
3, 98400, Note_on_c, 6, 31, 95
3, 98880, Note_off_c, 6, 31, 95
3, 98880, Note_on_c, 6, 33, 95
3, 99360, Note_off_c, 6, 33, 95
3, 100320, Note_on_c, 6, 38, 95
3, 100800, Note_off_c, 6, 38, 95
3, 101040, Note_on_c, 6, 37, 95
3, 101520, Note_off_c, 6, 37, 95
3, 101760, Note_on_c, 6, 33, 95
3, 102240, Note_off_c, 6, 33, 95
3, 102240, Note_on_c, 6, 31, 95
3, 102720, Note_off_c, 6, 31, 95
3, 102720, Note_on_c, 6, 33, 95
3, 103200, Note_off_c, 6, 33, 95
3, 103680, Note_on_c, 6, 33, 95
3, 105120, Note_off_c, 6, 33, 95
3, 105120, Note_on_c, 6, 33, 95
3, 106080, Note_off_c, 6, 33, 95
3, 106080, Note_on_c, 6, 31, 95
3, 106560, Note_off_c, 6, 31, 95
3, 106560, Note_on_c, 6, 33, 95
3, 107520, Note_off_c, 6, 33, 95
3, 107520, Note_on_c, 6, 35, 95
3, 108960, Note_off_c, 6, 35, 95
3, 108960, Note_on_c, 6, 35, 95
3, 109920, Note_off_c, 6, 35, 95
3, 109920, Note_on_c, 6, 33, 95
3, 110400, Note_off_c, 6, 33, 95
3, 110400, Note_on_c, 6, 35, 95
3, 111360, Note_off_c, 6, 35, 95
3, 111840, Note_on_c, 6, 38, 95
3, 112320, Note_off_c, 6, 38, 95
3, 112560, Note_on_c, 6, 37, 95
3, 113040, Note_off_c, 6, 37, 95
3, 113280, Note_on_c, 6, 33, 95
3, 113760, Note_off_c, 6, 33, 95
3, 113760, Note_on_c, 6, 31, 95
3, 114240, Note_off_c, 6, 31, 95
3, 114240, Note_on_c, 6, 33, 95
3, 114720, Note_off_c, 6, 33, 95
3, 115680, Note_on_c, 6, 38, 95
3, 116160, Note_off_c, 6, 38, 95
3, 116400, Note_on_c, 6, 37, 95
3, 116880, Note_off_c, 6, 37, 95
3, 117120, Note_on_c, 6, 33, 95
3, 117600, Note_off_c, 6, 33, 95
3, 117600, Note_on_c, 6, 31, 95
3, 118080, Note_off_c, 6, 31, 95
3, 118080, Note_on_c, 6, 33, 95
3, 118560, Note_off_c, 6, 33, 95
3, 119040, Note_on_c, 6, 38, 95
3, 120960, Note_off_c, 6, 38, 95
3, 121440, Note_on_c, 6, 38, 95
3, 121920, Note_off_c, 6, 38, 95
3, 121920, Note_on_c, 6, 37, 95
3, 122400, Note_off_c, 6, 37, 95
3, 122400, Note_on_c, 6, 35, 95
3, 122880, Note_off_c, 6, 35, 95
3, 122880, Note_on_c, 6, 33, 95
3, 124320, Note_off_c, 6, 33, 95
3, 124320, Note_on_c, 6, 33, 95
3, 125280, Note_off_c, 6, 33, 95
3, 125280, Note_on_c, 6, 33, 95
3, 125760, Note_off_c, 6, 33, 95
3, 125760, Note_on_c, 6, 37, 95
3, 126240, Note_off_c, 6, 37, 95
3, 126240, Note_on_c, 6, 38, 95
3, 126720, Note_off_c, 6, 38, 95
3, 126720, Note_on_c, 6, 35, 95
3, 128640, Note_off_c, 6, 35, 95
3, 128640, Note_on_c, 6, 38, 95
3, 129120, Note_off_c, 6, 38, 95
3, 129120, Note_on_c, 6, 37, 95
3, 129600, Note_off_c, 6, 37, 95
3, 129600, Note_on_c, 6, 35, 95
3, 130080, Note_off_c, 6, 35, 95
3, 130080, Note_on_c, 6, 38, 95
3, 130560, Note_off_c, 6, 38, 95
3, 134880, Note_on_c, 6, 38, 95
3, 135360, Note_off_c, 6, 38, 95
3, 135600, Note_on_c, 6, 37, 95
3, 136080, Note_off_c, 6, 37, 95
3, 136320, Note_on_c, 6, 33, 95
3, 136800, Note_off_c, 6, 33, 95
3, 136800, Note_on_c, 6, 31, 95
3, 137280, Note_off_c, 6, 31, 95
3, 137280, Note_on_c, 6, 33, 95
3, 137760, Note_off_c, 6, 33, 95
3, 138720, Note_on_c, 6, 38, 95
3, 139200, Note_off_c, 6, 38, 95
3, 139440, Note_on_c, 6, 37, 95
3, 139920, Note_off_c, 6, 37, 95
3, 140160, Note_on_c, 6, 33, 95
3, 140640, Note_off_c, 6, 33, 95
3, 140640, Note_on_c, 6, 31, 95
3, 141120, Note_off_c, 6, 31, 95
3, 141120, Note_on_c, 6, 33, 95
3, 141600, Note_off_c, 6, 33, 95
3, 142560, Note_on_c, 6, 38, 95
3, 143040, Note_off_c, 6, 38, 95
3, 143280, Note_on_c, 6, 37, 95
3, 143760, Note_off_c, 6, 37, 95
3, 144000, Note_on_c, 6, 33, 95
3, 144480, Note_off_c, 6, 33, 95
3, 144480, Note_on_c, 6, 31, 95
3, 144960, Note_off_c, 6, 31, 95
3, 144960, Note_on_c, 6, 33, 95
3, 145440, Note_off_c, 6, 33, 95
3, 146400, Note_on_c, 6, 38, 95
3, 146880, Note_off_c, 6, 38, 95
3, 147120, Note_on_c, 6, 37, 95
3, 147600, Note_off_c, 6, 37, 95
3, 147840, Note_on_c, 6, 33, 95
3, 148320, Note_off_c, 6, 33, 95
3, 148320, Note_on_c, 6, 31, 95
3, 148800, Note_off_c, 6, 31, 95
3, 148800, Note_on_c, 6, 33, 95
3, 149280, Note_off_c, 6, 33, 95
3, 149760, Note_on_c, 6, 38, 95
3, 151680, Note_off_c, 6, 38, 95
3, 151680, Note_on_c, 6, 33, 95
3, 153600, Note_off_c, 6, 33, 95
3, 153600, Note_on_c, 6, 35, 95
3, 156000, Note_off_c, 6, 35, 95
3, 156000, Note_on_c, 6, 33, 95
3, 156480, Note_off_c, 6, 33, 95
3, 156480, Note_on_c, 6, 35, 95
3, 157440, Note_off_c, 6, 35, 95
3, 157920, Note_on_c, 6, 38, 95
3, 158400, Note_off_c, 6, 38, 95
3, 158640, Note_on_c, 6, 37, 95
3, 159120, Note_off_c, 6, 37, 95
3, 159360, Note_on_c, 6, 33, 95
3, 159840, Note_off_c, 6, 33, 95
3, 159840, Note_on_c, 6, 31, 95
3, 160320, Note_off_c, 6, 31, 95
3, 160320, Note_on_c, 6, 33, 95
3, 160800, Note_off_c, 6, 33, 95
3, 161760, Note_on_c, 6, 38, 95
3, 162240, Note_off_c, 6, 38, 95
3, 162480, Note_on_c, 6, 37, 95
3, 162960, Note_off_c, 6, 37, 95
3, 163200, Note_on_c, 6, 33, 95
3, 163680, Note_off_c, 6, 33, 95
3, 163680, Note_on_c, 6, 31, 95
3, 164160, Note_off_c, 6, 31, 95
3, 164160, Note_on_c, 6, 33, 95
3, 164640, Note_off_c, 6, 33, 95
3, 165120, Note_on_c, 6, 38, 95
3, 167040, Note_off_c, 6, 38, 95
3, 167040, Note_on_c, 6, 33, 95
3, 168960, Note_off_c, 6, 33, 95
3, 168960, Note_on_c, 6, 35, 95
3, 171360, Note_off_c, 6, 35, 95
3, 171360, Note_on_c, 6, 33, 95
3, 171840, Note_off_c, 6, 33, 95
3, 171840, Note_on_c, 6, 35, 95
3, 172800, Note_off_c, 6, 35, 95
3, 173280, Note_on_c, 6, 38, 95
3, 173760, Note_off_c, 6, 38, 95
3, 174000, Note_on_c, 6, 37, 95
3, 174480, Note_off_c, 6, 37, 95
3, 174720, Note_on_c, 6, 33, 95
3, 175200, Note_off_c, 6, 33, 95
3, 175200, Note_on_c, 6, 31, 95
3, 175680, Note_off_c, 6, 31, 95
3, 175680, Note_on_c, 6, 33, 95
3, 176160, Note_off_c, 6, 33, 95
3, 177120, Note_on_c, 6, 38, 95
3, 177600, Note_off_c, 6, 38, 95
3, 177840, Note_on_c, 6, 37, 95
3, 178320, Note_off_c, 6, 37, 95
3, 178560, Note_on_c, 6, 33, 95
3, 179040, Note_off_c, 6, 33, 95
3, 179040, Note_on_c, 6, 31, 95
3, 179520, Note_off_c, 6, 31, 95
3, 179520, Note_on_c, 6, 33, 95
3, 180000, Note_off_c, 6, 33, 95
3, 180960, Note_on_c, 6, 38, 95
3, 181440, Note_off_c, 6, 38, 95
3, 181680, Note_on_c, 6, 37, 95
3, 182160, Note_off_c, 6, 37, 95
3, 182400, Note_on_c, 6, 33, 95
3, 182880, Note_off_c, 6, 33, 95
3, 182880, Note_on_c, 6, 31, 95
3, 183360, Note_off_c, 6, 31, 95
3, 183360, Note_on_c, 6, 33, 95
3, 183840, Note_off_c, 6, 33, 95
3, 184800, Note_on_c, 6, 38, 95
3, 185280, Note_off_c, 6, 38, 95
3, 185520, Note_on_c, 6, 37, 95
3, 186000, Note_off_c, 6, 37, 95
3, 186240, Note_on_c, 6, 33, 95
3, 186720, Note_off_c, 6, 33, 95
3, 186720, Note_on_c, 6, 31, 95
3, 187200, Note_off_c, 6, 31, 95
3, 187200, Note_on_c, 6, 33, 95
3, 187680, Note_off_c, 6, 33, 95
3, 188640, Note_on_c, 6, 38, 95
3, 189120, Note_off_c, 6, 38, 95
3, 189360, Note_on_c, 6, 37, 95
3, 189840, Note_off_c, 6, 37, 95
3, 190080, Note_on_c, 6, 33, 95
3, 190560, Note_off_c, 6, 33, 95
3, 190560, Note_on_c, 6, 31, 95
3, 191040, Note_off_c, 6, 31, 95
3, 191040, Note_on_c, 6, 33, 95
3, 191520, Note_off_c, 6, 33, 95
3, 192480, Note_on_c, 6, 38, 95
3, 192960, Note_off_c, 6, 38, 95
3, 193200, Note_on_c, 6, 37, 95
3, 193680, Note_off_c, 6, 37, 95
3, 193920, Note_on_c, 6, 33, 95
3, 194400, Note_off_c, 6, 33, 95
3, 194400, Note_on_c, 6, 31, 95
3, 194880, Note_off_c, 6, 31, 95
3, 194880, Note_on_c, 6, 33, 95
3, 195360, Note_off_c, 6, 33, 95
3, 196320, Note_on_c, 6, 38, 95
3, 196800, Note_off_c, 6, 38, 95
3, 197040, Note_on_c, 6, 37, 95
3, 197520, Note_off_c, 6, 37, 95
3, 197760, Note_on_c, 6, 33, 95
3, 198240, Note_off_c, 6, 33, 95
3, 198240, Note_on_c, 6, 31, 95
3, 198720, Note_off_c, 6, 31, 95
3, 198720, Note_on_c, 6, 33, 95
3, 199200, Note_off_c, 6, 33, 95
3, 200160, Note_on_c, 6, 38, 95
3, 200640, Note_off_c, 6, 38, 95
3, 200880, Note_on_c, 6, 37, 95
3, 201360, Note_off_c, 6, 37, 95
3, 201600, Note_on_c, 6, 33, 95
3, 202080, Note_off_c, 6, 33, 95
3, 202080, Note_on_c, 6, 31, 95
3, 202560, Note_off_c, 6, 31, 95
3, 202560, Note_on_c, 6, 33, 95
3, 203040, Note_off_c, 6, 33, 95
3, 203520, Note_on_c, 6, 38, 95
3, 205440, Note_off_c, 6, 38, 95
3, 205440, Note_on_c, 6, 33, 95
3, 207360, Note_off_c, 6, 33, 95
3, 207360, Note_on_c, 6, 35, 95
3, 209760, Note_off_c, 6, 35, 95
3, 209760, Note_on_c, 6, 33, 95
3, 210240, Note_off_c, 6, 33, 95
3, 210240, Note_on_c, 6, 35, 95
3, 211200, Note_off_c, 6, 35, 95
3, 211680, Note_on_c, 6, 38, 95
3, 212160, Note_off_c, 6, 38, 95
3, 212400, Note_on_c, 6, 37, 95
3, 212880, Note_off_c, 6, 37, 95
3, 213120, Note_on_c, 6, 33, 95
3, 213600, Note_off_c, 6, 33, 95
3, 213600, Note_on_c, 6, 31, 95
3, 214080, Note_off_c, 6, 31, 95
3, 214080, Note_on_c, 6, 33, 95
3, 214560, Note_off_c, 6, 33, 95
3, 215520, Note_on_c, 6, 38, 95
3, 216000, Note_off_c, 6, 38, 95
3, 216240, Note_on_c, 6, 37, 95
3, 216720, Note_off_c, 6, 37, 95
3, 216960, Note_on_c, 6, 33, 95
3, 217440, Note_off_c, 6, 33, 95
3, 217440, Note_on_c, 6, 31, 95
3, 217920, Note_off_c, 6, 31, 95
3, 217920, Note_on_c, 6, 33, 95
3, 218400, Note_off_c, 6, 33, 95
3, 218880, Note_on_c, 6, 38, 95
3, 220800, Note_off_c, 6, 38, 95
3, 221280, Note_on_c, 6, 38, 95
3, 221760, Note_off_c, 6, 38, 95
3, 221760, Note_on_c, 6, 37, 95
3, 222240, Note_off_c, 6, 37, 95
3, 222240, Note_on_c, 6, 35, 95
3, 222720, Note_off_c, 6, 35, 95
3, 222720, Note_on_c, 6, 33, 95
3, 224160, Note_off_c, 6, 33, 95
3, 224160, Note_on_c, 6, 33, 95
3, 225120, Note_off_c, 6, 33, 95
3, 225120, Note_on_c, 6, 33, 95
3, 225600, Note_off_c, 6, 33, 95
3, 225600, Note_on_c, 6, 37, 95
3, 226080, Note_off_c, 6, 37, 95
3, 226080, Note_on_c, 6, 38, 95
3, 226560, Note_off_c, 6, 38, 95
3, 226560, Note_on_c, 6, 35, 95
3, 228480, Note_off_c, 6, 35, 95
3, 228480, Note_on_c, 6, 38, 95
3, 228960, Note_off_c, 6, 38, 95
3, 228960, Note_on_c, 6, 37, 95
3, 229440, Note_off_c, 6, 37, 95
3, 229440, Note_on_c, 6, 35, 95
3, 229920, Note_off_c, 6, 35, 95
3, 229920, Note_on_c, 6, 38, 95
3, 230400, Note_off_c, 6, 38, 95
3, 234720, Note_on_c, 6, 38, 95
3, 235200, Note_off_c, 6, 38, 95
3, 235440, Note_on_c, 6, 37, 95
3, 235920, Note_off_c, 6, 37, 95
3, 236160, Note_on_c, 6, 33, 95
3, 236640, Note_off_c, 6, 33, 95
3, 236640, Note_on_c, 6, 31, 95
3, 237120, Note_off_c, 6, 31, 95
3, 237120, Note_on_c, 6, 33, 95
3, 237600, Note_off_c, 6, 33, 95
3, 238560, Note_on_c, 6, 38, 95
3, 239040, Note_off_c, 6, 38, 95
3, 239280, Note_on_c, 6, 37, 95
3, 239760, Note_off_c, 6, 37, 95
3, 240000, Note_on_c, 6, 33, 95
3, 240480, Note_off_c, 6, 33, 95
3, 240480, Note_on_c, 6, 31, 95
3, 240960, Note_off_c, 6, 31, 95
3, 240960, Note_on_c, 6, 33, 95
3, 241440, Note_off_c, 6, 33, 95
3, 242400, Note_on_c, 6, 38, 95
3, 242880, Note_off_c, 6, 38, 95
3, 243120, Note_on_c, 6, 37, 95
3, 243600, Note_off_c, 6, 37, 95
3, 243840, Note_on_c, 6, 33, 95
3, 244320, Note_off_c, 6, 33, 95
3, 244320, Note_on_c, 6, 31, 95
3, 244800, Note_off_c, 6, 31, 95
3, 244800, Note_on_c, 6, 33, 95
3, 245280, Note_off_c, 6, 33, 95
3, 246240, Note_on_c, 6, 38, 95
3, 246720, Note_off_c, 6, 38, 95
3, 246960, Note_on_c, 6, 37, 95
3, 247440, Note_off_c, 6, 37, 95
3, 247680, Note_on_c, 6, 33, 95
3, 248160, Note_off_c, 6, 33, 95
3, 248160, Note_on_c, 6, 31, 95
3, 248640, Note_off_c, 6, 31, 95
3, 248640, Note_on_c, 6, 33, 95
3, 249120, Note_off_c, 6, 33, 95
3, 250080, Note_on_c, 6, 38, 95
3, 250560, Note_off_c, 6, 38, 95
3, 250800, Note_on_c, 6, 37, 95
3, 251280, Note_off_c, 6, 37, 95
3, 251520, Note_on_c, 6, 33, 95
3, 252000, Note_off_c, 6, 33, 95
3, 252000, Note_on_c, 6, 31, 95
3, 252480, Note_off_c, 6, 31, 95
3, 252480, Note_on_c, 6, 33, 95
3, 252960, Note_off_c, 6, 33, 95
3, 253920, Note_on_c, 6, 38, 95
3, 254400, Note_off_c, 6, 38, 95
3, 254640, Note_on_c, 6, 37, 95
3, 255120, Note_off_c, 6, 37, 95
3, 255360, Note_on_c, 6, 33, 95
3, 255840, Note_off_c, 6, 33, 95
3, 255840, Note_on_c, 6, 31, 95
3, 256320, Note_off_c, 6, 31, 95
3, 256320, Note_on_c, 6, 33, 95
3, 256800, Note_off_c, 6, 33, 95
3, 257760, Note_on_c, 6, 38, 95
3, 258240, Note_off_c, 6, 38, 95
3, 258480, Note_on_c, 6, 37, 95
3, 258960, Note_off_c, 6, 37, 95
3, 259200, Note_on_c, 6, 33, 95
3, 259680, Note_off_c, 6, 33, 95
3, 259680, Note_on_c, 6, 31, 95
3, 260160, Note_off_c, 6, 31, 95
3, 260160, Note_on_c, 6, 33, 95
3, 260640, Note_off_c, 6, 33, 95
3, 261600, Note_on_c, 6, 38, 95
3, 262080, Note_off_c, 6, 38, 95
3, 262320, Note_on_c, 6, 37, 95
3, 262800, Note_off_c, 6, 37, 95
3, 263040, Note_on_c, 6, 33, 95
3, 263520, Note_off_c, 6, 33, 95
3, 263520, Note_on_c, 6, 31, 95
3, 264000, Note_off_c, 6, 31, 95
3, 264000, Note_on_c, 6, 33, 95
3, 264480, Note_off_c, 6, 33, 95
3, 264960, Note_on_c, 6, 38, 95
3, 266880, Note_off_c, 6, 38, 95
3, 266880, Note_on_c, 6, 33, 95
3, 268800, Note_off_c, 6, 33, 95
3, 268800, Note_on_c, 6, 35, 95
3, 271200, Note_off_c, 6, 35, 95
3, 271200, Note_on_c, 6, 33, 95
3, 271680, Note_off_c, 6, 33, 95
3, 271680, Note_on_c, 6, 35, 95
3, 272640, Note_off_c, 6, 35, 95
3, 273120, Note_on_c, 6, 38, 95
3, 273600, Note_off_c, 6, 38, 95
3, 273840, Note_on_c, 6, 37, 95
3, 274320, Note_off_c, 6, 37, 95
3, 274560, Note_on_c, 6, 33, 95
3, 275040, Note_off_c, 6, 33, 95
3, 275040, Note_on_c, 6, 31, 95
3, 275520, Note_off_c, 6, 31, 95
3, 275520, Note_on_c, 6, 33, 95
3, 276000, Note_off_c, 6, 33, 95
3, 276960, Note_on_c, 6, 38, 95
3, 277440, Note_off_c, 6, 38, 95
3, 277680, Note_on_c, 6, 37, 95
3, 278160, Note_off_c, 6, 37, 95
3, 278400, Note_on_c, 6, 33, 95
3, 278880, Note_off_c, 6, 33, 95
3, 278880, Note_on_c, 6, 31, 95
3, 279360, Note_off_c, 6, 31, 95
3, 279360, Note_on_c, 6, 33, 95
3, 279840, Note_off_c, 6, 33, 95
3, 280320, Note_on_c, 6, 38, 95
3, 282240, Note_off_c, 6, 38, 95
3, 282240, Note_on_c, 6, 33, 95
3, 284160, Note_off_c, 6, 33, 95
3, 284160, Note_on_c, 6, 35, 95
3, 286560, Note_off_c, 6, 35, 95
3, 286560, Note_on_c, 6, 33, 95
3, 287040, Note_off_c, 6, 33, 95
3, 287040, Note_on_c, 6, 35, 95
3, 288000, Note_off_c, 6, 35, 95
3, 288480, Note_on_c, 6, 38, 95
3, 288960, Note_off_c, 6, 38, 95
3, 289200, Note_on_c, 6, 37, 95
3, 289680, Note_off_c, 6, 37, 95
3, 289920, Note_on_c, 6, 33, 95
3, 290400, Note_off_c, 6, 33, 95
3, 290400, Note_on_c, 6, 31, 95
3, 290880, Note_off_c, 6, 31, 95
3, 290880, Note_on_c, 6, 33, 95
3, 291360, Note_off_c, 6, 33, 95
3, 292320, Note_on_c, 6, 38, 95
3, 292800, Note_off_c, 6, 38, 95
3, 293040, Note_on_c, 6, 37, 95
3, 293520, Note_off_c, 6, 37, 95
3, 293760, Note_on_c, 6, 33, 95
3, 294240, Note_off_c, 6, 33, 95
3, 294240, Note_on_c, 6, 31, 95
3, 294720, Note_off_c, 6, 31, 95
3, 294720, Note_on_c, 6, 33, 95
3, 295200, Note_off_c, 6, 33, 95
3, 296160, Note_on_c, 6, 38, 95
3, 296640, Note_off_c, 6, 38, 95
3, 296880, Note_on_c, 6, 37, 95
3, 297360, Note_off_c, 6, 37, 95
3, 297600, Note_on_c, 6, 33, 95
3, 298080, Note_off_c, 6, 33, 95
3, 298080, Note_on_c, 6, 31, 95
3, 298560, Note_off_c, 6, 31, 95
3, 298560, Note_on_c, 6, 33, 95
3, 299040, Note_off_c, 6, 33, 95
3, 300000, Note_on_c, 6, 38, 95
3, 300480, Note_off_c, 6, 38, 95
3, 300720, Note_on_c, 6, 37, 95
3, 301200, Note_off_c, 6, 37, 95
3, 301440, Note_on_c, 6, 33, 95
3, 301920, Note_off_c, 6, 33, 95
3, 301920, Note_on_c, 6, 31, 95
3, 302400, Note_off_c, 6, 31, 95
3, 302400, Note_on_c, 6, 33, 95
3, 302880, Note_off_c, 6, 33, 95
3, 303840, Note_on_c, 6, 38, 95
3, 304320, Note_off_c, 6, 38, 95
3, 304560, Note_on_c, 6, 37, 95
3, 305040, Note_off_c, 6, 37, 95
3, 305280, Note_on_c, 6, 33, 95
3, 305760, Note_off_c, 6, 33, 95
3, 305760, Note_on_c, 6, 31, 95
3, 306240, Note_off_c, 6, 31, 95
3, 306240, Note_on_c, 6, 33, 95
3, 306720, Note_off_c, 6, 33, 95
3, 307680, Note_on_c, 6, 38, 95
3, 308160, Note_off_c, 6, 38, 95
3, 308400, Note_on_c, 6, 37, 95
3, 308880, Note_off_c, 6, 37, 95
3, 309120, Note_on_c, 6, 33, 95
3, 309600, Note_off_c, 6, 33, 95
3, 309600, Note_on_c, 6, 31, 95
3, 310080, Note_off_c, 6, 31, 95
3, 310080, Note_on_c, 6, 33, 95
3, 310560, Note_off_c, 6, 33, 95
3, 311520, Note_on_c, 6, 38, 95
3, 312000, Note_off_c, 6, 38, 95
3, 312240, Note_on_c, 6, 37, 95
3, 312720, Note_off_c, 6, 37, 95
3, 312960, Note_on_c, 6, 33, 95
3, 313440, Note_off_c, 6, 33, 95
3, 313440, Note_on_c, 6, 31, 95
3, 313920, Note_off_c, 6, 31, 95
3, 313920, Note_on_c, 6, 33, 95
3, 314400, Note_off_c, 6, 33, 95
3, 315360, Note_on_c, 6, 38, 95
3, 315840, Note_off_c, 6, 38, 95
3, 316080, Note_on_c, 6, 37, 95
3, 316560, Note_off_c, 6, 37, 95
3, 316800, Note_on_c, 6, 33, 95
3, 317280, Note_off_c, 6, 33, 95
3, 317280, Note_on_c, 6, 31, 95
3, 317760, Note_off_c, 6, 31, 95
3, 317760, Note_on_c, 6, 33, 95
3, 318240, Note_off_c, 6, 33, 95
3, 319200, Note_on_c, 6, 38, 95
3, 319680, Note_off_c, 6, 38, 95
3, 319920, Note_on_c, 6, 37, 95
3, 320400, Note_off_c, 6, 37, 95
3, 320640, Note_on_c, 6, 33, 95
3, 321120, Note_off_c, 6, 33, 95
3, 321120, Note_on_c, 6, 31, 95
3, 321600, Note_off_c, 6, 31, 95
3, 321600, Note_on_c, 6, 33, 95
3, 322080, Note_off_c, 6, 33, 95
3, 323040, Note_on_c, 6, 38, 95
3, 323520, Note_off_c, 6, 38, 95
3, 323760, Note_on_c, 6, 37, 95
3, 324240, Note_off_c, 6, 37, 95
3, 324480, Note_on_c, 6, 33, 95
3, 324960, Note_off_c, 6, 33, 95
3, 324960, Note_on_c, 6, 31, 95
3, 325440, Note_off_c, 6, 31, 95
3, 325440, Note_on_c, 6, 33, 95
3, 325920, Note_off_c, 6, 33, 95
3, 326880, Note_on_c, 6, 38, 95
3, 327360, Note_off_c, 6, 38, 95
3, 327600, Note_on_c, 6, 37, 95
3, 328080, Note_off_c, 6, 37, 95
3, 328320, Note_on_c, 6, 33, 95
3, 328800, Note_off_c, 6, 33, 95
3, 328800, Note_on_c, 6, 31, 95
3, 329280, Note_off_c, 6, 31, 95
3, 329280, Note_on_c, 6, 33, 95
3, 329760, Note_off_c, 6, 33, 95
3, 330720, Note_on_c, 6, 38, 95
3, 331200, Note_off_c, 6, 38, 95
3, 331440, Note_on_c, 6, 37, 95
3, 331920, Note_off_c, 6, 37, 95
3, 332160, Note_on_c, 6, 33, 95
3, 332640, Note_off_c, 6, 33, 95
3, 332640, Note_on_c, 6, 31, 95
3, 333120, Note_off_c, 6, 31, 95
3, 333120, Note_on_c, 6, 33, 95
3, 333600, Note_off_c, 6, 33, 95
3, 334560, Note_on_c, 6, 38, 95
3, 335040, Note_off_c, 6, 38, 95
3, 335280, Note_on_c, 6, 37, 95
3, 335760, Note_off_c, 6, 37, 95
3, 336000, Note_on_c, 6, 33, 95
3, 336480, Note_off_c, 6, 33, 95
3, 336480, Note_on_c, 6, 31, 95
3, 336960, Note_off_c, 6, 31, 95
3, 336960, Note_on_c, 6, 33, 95
3, 337440, Note_off_c, 6, 33, 95
3, 338400, Note_on_c, 6, 38, 95
3, 338880, Note_off_c, 6, 38, 95
3, 339120, Note_on_c, 6, 37, 95
3, 339600, Note_off_c, 6, 37, 95
3, 339840, Note_on_c, 6, 33, 95
3, 340320, Note_off_c, 6, 33, 95
3, 340320, Note_on_c, 6, 31, 95
3, 340800, Note_off_c, 6, 31, 95
3, 340800, Note_on_c, 6, 33, 95
3, 341280, Note_off_c, 6, 33, 95
3, 342240, Note_on_c, 6, 38, 95
3, 342720, Note_off_c, 6, 38, 95
3, 342960, Note_on_c, 6, 37, 95
3, 343440, Note_off_c, 6, 37, 95
3, 343680, Note_on_c, 6, 33, 95
3, 344160, Note_off_c, 6, 33, 95
3, 344160, Note_on_c, 6, 31, 95
3, 344640, Note_off_c, 6, 31, 95
3, 344640, Note_on_c, 6, 33, 95
3, 345120, Note_off_c, 6, 33, 95
3, 346080, Note_on_c, 6, 38, 95
3, 346560, Note_off_c, 6, 38, 95
3, 346800, Note_on_c, 6, 37, 95
3, 347280, Note_off_c, 6, 37, 95
3, 347520, Note_on_c, 6, 33, 95
3, 348000, Note_off_c, 6, 33, 95
3, 348000, Note_on_c, 6, 31, 95
3, 348480, Note_off_c, 6, 31, 95
3, 348480, Note_on_c, 6, 33, 95
3, 348960, Note_off_c, 6, 33, 95
3, 349920, Note_on_c, 6, 38, 95
3, 350400, Note_off_c, 6, 38, 95
3, 350640, Note_on_c, 6, 37, 95
3, 351120, Note_off_c, 6, 37, 95
3, 351360, Note_on_c, 6, 33, 95
3, 351840, Note_off_c, 6, 33, 95
3, 351840, Note_on_c, 6, 31, 95
3, 352320, Note_off_c, 6, 31, 95
3, 352320, Note_on_c, 6, 33, 95
3, 352800, Note_off_c, 6, 33, 95
3, 353760, Note_on_c, 6, 38, 95
3, 354240, Note_off_c, 6, 38, 95
3, 354480, Note_on_c, 6, 37, 95
3, 354960, Note_off_c, 6, 37, 95
3, 355200, Note_on_c, 6, 33, 95
3, 355680, Note_off_c, 6, 33, 95
3, 355680, Note_on_c, 6, 31, 95
3, 356160, Note_off_c, 6, 31, 95
3, 356160, Note_on_c, 6, 33, 95
3, 356640, Note_off_c, 6, 33, 95
3, 357600, Note_on_c, 6, 38, 95
3, 358080, Note_off_c, 6, 38, 95
3, 358320, Note_on_c, 6, 37, 95
3, 358800, Note_off_c, 6, 37, 95
3, 359040, Note_on_c, 6, 33, 95
3, 359520, Note_off_c, 6, 33, 95
3, 359520, Note_on_c, 6, 31, 95
3, 360000, Note_off_c, 6, 31, 95
3, 360000, Note_on_c, 6, 33, 95
3, 360480, Note_off_c, 6, 33, 95
3, 361440, Note_on_c, 6, 38, 95
3, 361920, Note_off_c, 6, 38, 95
3, 362160, Note_on_c, 6, 37, 95
3, 362640, Note_off_c, 6, 37, 95
3, 362880, Note_on_c, 6, 33, 95
3, 363360, Note_off_c, 6, 33, 95
3, 363360, Note_on_c, 6, 31, 95
3, 363840, Note_off_c, 6, 31, 95
3, 363840, Note_on_c, 6, 33, 95
3, 364320, Note_off_c, 6, 33, 95
3, 365280, Note_on_c, 6, 38, 95
3, 365760, Note_off_c, 6, 38, 95
3, 366000, Note_on_c, 6, 37, 95
3, 366480, Note_off_c, 6, 37, 95
3, 366720, Note_on_c, 6, 33, 95
3, 367200, Note_off_c, 6, 33, 95
3, 367200, Note_on_c, 6, 31, 95
3, 367680, Note_off_c, 6, 31, 95
3, 367680, Note_on_c, 6, 33, 95
3, 368160, Note_off_c, 6, 33, 95
3, 369120, Note_on_c, 6, 38, 95
3, 369600, Note_off_c, 6, 38, 95
3, 369840, Note_on_c, 6, 37, 95
3, 370320, Note_off_c, 6, 37, 95
3, 370560, Note_on_c, 6, 33, 95
3, 371040, Note_off_c, 6, 33, 95
3, 371040, Note_on_c, 6, 31, 95
3, 371520, Note_off_c, 6, 31, 95
3, 371520, Note_on_c, 6, 33, 95
3, 372000, Note_off_c, 6, 33, 95
3, 372960, Note_on_c, 6, 38, 95
3, 373440, Note_off_c, 6, 38, 95
3, 373680, Note_on_c, 6, 37, 95
3, 374160, Note_off_c, 6, 37, 95
3, 374400, Note_on_c, 6, 33, 95
3, 374880, Note_off_c, 6, 33, 95
3, 374880, Note_on_c, 6, 31, 95
3, 375360, Note_off_c, 6, 31, 95
3, 375360, Note_on_c, 6, 33, 95
3, 375840, Note_off_c, 6, 33, 95
3, 376800, Note_on_c, 6, 38, 95
3, 377280, Note_off_c, 6, 38, 95
3, 377520, Note_on_c, 6, 37, 95
3, 378000, Note_off_c, 6, 37, 95
3, 378240, Note_on_c, 6, 33, 95
3, 378720, Note_off_c, 6, 33, 95
3, 378720, Note_on_c, 6, 31, 95
3, 379200, Note_off_c, 6, 31, 95
3, 379200, Note_on_c, 6, 33, 95
3, 379680, Note_off_c, 6, 33, 95
3, 379680, End_track
4, 0, Start_track
4, 0, Pitch_bend_c, 4, 8192
4, 0, Control_c, 4, 7, 127
4, 0, Control_c, 4, 10, 63
4, 0, Control_c, 4, 93, 0
4, 0, Control_c, 4, 91, 39
4, 0, Control_c, 4, 95, 0
4, 0, Control_c, 4, 92, 0
4, 0, Control_c, 4, 11, 127
4, 0, Program_c, 4, 28
4, 0, Control_c, 5, 7, 127
4, 0, Control_c, 5, 10, 63
4, 0, Control_c, 5, 93, 0
4, 0, Control_c, 5, 91, 39
4, 0, Control_c, 5, 95, 0
4, 0, Control_c, 5, 92, 0
4, 0, Control_c, 5, 11, 127
4, 0, Program_c, 5, 28
4, 250080, Note_on_c, 4, 45, 95
4, 250560, Note_off_c, 4, 45, 95
4, 250560, Note_on_c, 4, 57, 95
4, 251040, Note_off_c, 4, 57, 95
4, 251520, Note_on_c, 4, 45, 95
4, 252000, Note_off_c, 4, 45, 95
4, 252240, Note_on_c, 4, 57, 95
4, 252720, Note_off_c, 4, 57, 95
4, 252960, Note_on_c, 4, 45, 95
4, 253440, Note_off_c, 4, 45, 95
4, 253920, Note_on_c, 4, 45, 95
4, 254400, Note_off_c, 4, 45, 95
4, 254400, Note_on_c, 4, 57, 95
4, 254880, Note_off_c, 4, 57, 95
4, 255360, Note_on_c, 4, 45, 95
4, 255840, Note_off_c, 4, 45, 95
4, 256080, Note_on_c, 4, 57, 95
4, 256560, Note_off_c, 4, 57, 95
4, 256800, Note_on_c, 4, 45, 95
4, 257280, Note_off_c, 4, 45, 95
4, 257760, Note_on_c, 4, 45, 95
4, 258240, Note_off_c, 4, 45, 95
4, 258240, Note_on_c, 4, 57, 95
4, 258720, Note_off_c, 4, 57, 95
4, 259200, Note_on_c, 4, 45, 95
4, 259680, Note_off_c, 4, 45, 95
4, 259920, Note_on_c, 4, 57, 95
4, 260400, Note_off_c, 4, 57, 95
4, 260640, Note_on_c, 4, 45, 95
4, 261120, Note_off_c, 4, 45, 95
4, 261600, Note_on_c, 4, 45, 95
4, 262080, Note_off_c, 4, 45, 95
4, 262080, Note_on_c, 4, 57, 95
4, 262560, Note_off_c, 4, 57, 95
4, 263040, Note_on_c, 4, 45, 95
4, 263520, Note_off_c, 4, 45, 95
4, 263760, Note_on_c, 4, 57, 95
4, 264240, Note_off_c, 4, 57, 95
4, 264480, Note_on_c, 4, 45, 95
4, 264960, Note_off_c, 4, 45, 95
4, 273120, Note_on_c, 4, 45, 95
4, 273600, Note_off_c, 4, 45, 95
4, 273600, Note_on_c, 4, 57, 95
4, 274080, Note_off_c, 4, 57, 95
4, 274560, Note_on_c, 4, 45, 95
4, 275040, Note_off_c, 4, 45, 95
4, 275280, Note_on_c, 4, 57, 95
4, 275760, Note_off_c, 4, 57, 95
4, 276000, Note_on_c, 4, 45, 95
4, 276480, Note_off_c, 4, 45, 95
4, 276960, Note_on_c, 4, 45, 95
4, 277440, Note_off_c, 4, 45, 95
4, 277440, Note_on_c, 4, 57, 95
4, 277920, Note_off_c, 4, 57, 95
4, 278400, Note_on_c, 4, 45, 95
4, 278880, Note_off_c, 4, 45, 95
4, 279120, Note_on_c, 4, 57, 95
4, 279600, Note_off_c, 4, 57, 95
4, 279840, Note_on_c, 4, 45, 95
4, 280320, Note_off_c, 4, 45, 95
4, 288480, Note_on_c, 4, 45, 95
4, 288960, Note_off_c, 4, 45, 95
4, 288960, Note_on_c, 4, 57, 95
4, 289440, Note_off_c, 4, 57, 95
4, 289920, Note_on_c, 4, 45, 95
4, 290400, Note_off_c, 4, 45, 95
4, 290640, Note_on_c, 4, 57, 95
4, 291120, Note_off_c, 4, 57, 95
4, 291360, Note_on_c, 4, 45, 95
4, 291840, Note_off_c, 4, 45, 95
4, 292320, Note_on_c, 4, 45, 95
4, 292800, Note_off_c, 4, 45, 95
4, 292800, Note_on_c, 4, 57, 95
4, 293280, Note_off_c, 4, 57, 95
4, 293760, Note_on_c, 4, 45, 95
4, 294240, Note_off_c, 4, 45, 95
4, 294480, Note_on_c, 4, 57, 95
4, 294960, Note_off_c, 4, 57, 95
4, 295200, Note_on_c, 4, 45, 95
4, 295680, Note_off_c, 4, 45, 95
4, 296160, Note_on_c, 4, 45, 95
4, 296640, Note_off_c, 4, 45, 95
4, 296640, Note_on_c, 4, 57, 95
4, 297120, Note_off_c, 4, 57, 95
4, 297600, Note_on_c, 4, 45, 95
4, 298080, Note_off_c, 4, 45, 95
4, 298320, Note_on_c, 4, 57, 95
4, 298800, Note_off_c, 4, 57, 95
4, 299040, Note_on_c, 4, 45, 95
4, 299520, Note_off_c, 4, 45, 95
4, 300000, Note_on_c, 4, 45, 95
4, 300480, Note_off_c, 4, 45, 95
4, 300480, Note_on_c, 4, 57, 95
4, 300960, Note_off_c, 4, 57, 95
4, 301440, Note_on_c, 4, 45, 95
4, 301920, Note_off_c, 4, 45, 95
4, 302160, Note_on_c, 4, 57, 95
4, 302640, Note_off_c, 4, 57, 95
4, 302880, Note_on_c, 4, 45, 95
4, 303360, Note_off_c, 4, 45, 95
4, 303840, Note_on_c, 4, 45, 95
4, 304320, Note_off_c, 4, 45, 95
4, 304320, Note_on_c, 4, 57, 95
4, 304800, Note_off_c, 4, 57, 95
4, 305280, Note_on_c, 4, 45, 95
4, 305760, Note_off_c, 4, 45, 95
4, 306000, Note_on_c, 4, 57, 95
4, 306480, Note_off_c, 4, 57, 95
4, 306720, Note_on_c, 4, 45, 95
4, 307200, Note_off_c, 4, 45, 95
4, 307680, Note_on_c, 4, 45, 95
4, 308160, Note_off_c, 4, 45, 95
4, 308160, Note_on_c, 4, 57, 95
4, 308640, Note_off_c, 4, 57, 95
4, 309120, Note_on_c, 4, 45, 95
4, 309600, Note_off_c, 4, 45, 95
4, 309840, Note_on_c, 4, 57, 95
4, 310320, Note_off_c, 4, 57, 95
4, 310560, Note_on_c, 4, 45, 95
4, 311040, Note_off_c, 4, 45, 95
4, 311520, Note_on_c, 4, 45, 95
4, 312000, Note_off_c, 4, 45, 95
4, 312000, Note_on_c, 4, 57, 95
4, 312480, Note_off_c, 4, 57, 95
4, 312960, Note_on_c, 4, 45, 95
4, 313440, Note_off_c, 4, 45, 95
4, 313680, Note_on_c, 4, 57, 95
4, 314160, Note_off_c, 4, 57, 95
4, 314400, Note_on_c, 4, 45, 95
4, 314880, Note_off_c, 4, 45, 95
4, 315360, Note_on_c, 4, 45, 95
4, 315840, Note_off_c, 4, 45, 95
4, 315840, Note_on_c, 4, 57, 95
4, 316320, Note_off_c, 4, 57, 95
4, 316800, Note_on_c, 4, 45, 95
4, 317280, Note_off_c, 4, 45, 95
4, 317520, Note_on_c, 4, 57, 95
4, 318000, Note_off_c, 4, 57, 95
4, 318240, Note_on_c, 4, 45, 95
4, 318720, Note_off_c, 4, 45, 95
4, 319200, Note_on_c, 4, 45, 95
4, 319680, Note_off_c, 4, 45, 95
4, 319680, Note_on_c, 4, 57, 95
4, 320160, Note_off_c, 4, 57, 95
4, 320640, Note_on_c, 4, 45, 95
4, 321120, Note_off_c, 4, 45, 95
4, 321360, Note_on_c, 4, 57, 95
4, 321840, Note_off_c, 4, 57, 95
4, 322080, Note_on_c, 4, 45, 95
4, 322560, Note_off_c, 4, 45, 95
4, 323040, Note_on_c, 4, 45, 95
4, 323520, Note_off_c, 4, 45, 95
4, 323520, Note_on_c, 4, 57, 95
4, 324000, Note_off_c, 4, 57, 95
4, 324480, Note_on_c, 4, 45, 95
4, 324960, Note_off_c, 4, 45, 95
4, 325200, Note_on_c, 4, 57, 95
4, 325680, Note_off_c, 4, 57, 95
4, 325920, Note_on_c, 4, 45, 95
4, 326400, Note_off_c, 4, 45, 95
4, 326880, Note_on_c, 4, 45, 95
4, 327360, Note_off_c, 4, 45, 95
4, 327360, Note_on_c, 4, 57, 95
4, 327840, Note_off_c, 4, 57, 95
4, 328320, Note_on_c, 4, 45, 95
4, 328800, Note_off_c, 4, 45, 95
4, 329040, Note_on_c, 4, 57, 95
4, 329520, Note_off_c, 4, 57, 95
4, 329760, Note_on_c, 4, 45, 95
4, 330240, Note_off_c, 4, 45, 95
4, 330720, Note_on_c, 4, 45, 95
4, 331200, Note_off_c, 4, 45, 95
4, 331200, Note_on_c, 4, 57, 95
4, 331680, Note_off_c, 4, 57, 95
4, 332160, Note_on_c, 4, 45, 95
4, 332640, Note_off_c, 4, 45, 95
4, 332880, Note_on_c, 4, 57, 95
4, 333360, Note_off_c, 4, 57, 95
4, 333600, Note_on_c, 4, 45, 95
4, 334080, Note_off_c, 4, 45, 95
4, 334560, Note_on_c, 4, 45, 95
4, 335040, Note_off_c, 4, 45, 95
4, 335040, Note_on_c, 4, 57, 95
4, 335520, Note_off_c, 4, 57, 95
4, 336000, Note_on_c, 4, 45, 95
4, 336480, Note_off_c, 4, 45, 95
4, 336720, Note_on_c, 4, 57, 95
4, 337200, Note_off_c, 4, 57, 95
4, 337440, Note_on_c, 4, 45, 95
4, 337920, Note_off_c, 4, 45, 95
4, 338400, Note_on_c, 4, 45, 95
4, 338880, Note_off_c, 4, 45, 95
4, 338880, Note_on_c, 4, 57, 95
4, 339360, Note_off_c, 4, 57, 95
4, 339840, Note_on_c, 4, 45, 95
4, 340320, Note_off_c, 4, 45, 95
4, 340560, Note_on_c, 4, 57, 95
4, 341040, Note_off_c, 4, 57, 95
4, 341280, Note_on_c, 4, 45, 95
4, 341760, Note_off_c, 4, 45, 95
4, 342240, Note_on_c, 4, 45, 95
4, 342720, Note_off_c, 4, 45, 95
4, 342720, Note_on_c, 4, 57, 95
4, 343200, Note_off_c, 4, 57, 95
4, 343680, Note_on_c, 4, 45, 95
4, 344160, Note_off_c, 4, 45, 95
4, 344400, Note_on_c, 4, 57, 95
4, 344880, Note_off_c, 4, 57, 95
4, 345120, Note_on_c, 4, 45, 95
4, 345600, Note_off_c, 4, 45, 95
4, 346080, Note_on_c, 4, 45, 95
4, 346560, Note_off_c, 4, 45, 95
4, 346560, Note_on_c, 4, 57, 95
4, 347040, Note_off_c, 4, 57, 95
4, 347520, Note_on_c, 4, 45, 95
4, 348000, Note_off_c, 4, 45, 95
4, 348240, Note_on_c, 4, 57, 95
4, 348720, Note_off_c, 4, 57, 95
4, 348960, Note_on_c, 4, 45, 95
4, 349440, Note_off_c, 4, 45, 95
4, 349920, Note_on_c, 4, 45, 95
4, 350400, Note_off_c, 4, 45, 95
4, 350400, Note_on_c, 4, 57, 95
4, 350880, Note_off_c, 4, 57, 95
4, 351360, Note_on_c, 4, 45, 95
4, 351840, Note_off_c, 4, 45, 95
4, 352080, Note_on_c, 4, 57, 95
4, 352560, Note_off_c, 4, 57, 95
4, 352800, Note_on_c, 4, 45, 95
4, 353280, Note_off_c, 4, 45, 95
4, 353760, Note_on_c, 4, 45, 95
4, 354240, Note_off_c, 4, 45, 95
4, 354240, Note_on_c, 4, 57, 95
4, 354720, Note_off_c, 4, 57, 95
4, 355200, Note_on_c, 4, 45, 95
4, 355680, Note_off_c, 4, 45, 95
4, 355920, Note_on_c, 4, 57, 95
4, 356400, Note_off_c, 4, 57, 95
4, 356640, Note_on_c, 4, 45, 95
4, 357120, Note_off_c, 4, 45, 95
4, 357600, Note_on_c, 4, 45, 95
4, 358080, Note_off_c, 4, 45, 95
4, 358080, Note_on_c, 4, 57, 95
4, 358560, Note_off_c, 4, 57, 95
4, 359040, Note_on_c, 4, 45, 95
4, 359520, Note_off_c, 4, 45, 95
4, 359760, Note_on_c, 4, 57, 95
4, 360240, Note_off_c, 4, 57, 95
4, 360480, Note_on_c, 4, 45, 95
4, 360960, Note_off_c, 4, 45, 95
4, 361440, Note_on_c, 4, 45, 95
4, 361920, Note_off_c, 4, 45, 95
4, 361920, Note_on_c, 4, 57, 95
4, 362400, Note_off_c, 4, 57, 95
4, 362880, Note_on_c, 4, 45, 95
4, 363360, Note_off_c, 4, 45, 95
4, 363600, Note_on_c, 4, 57, 95
4, 364080, Note_off_c, 4, 57, 95
4, 364320, Note_on_c, 4, 45, 95
4, 364800, Note_off_c, 4, 45, 95
4, 365280, Note_on_c, 4, 45, 95
4, 365760, Note_off_c, 4, 45, 95
4, 365760, Note_on_c, 4, 57, 95
4, 366240, Note_off_c, 4, 57, 95
4, 366720, Note_on_c, 4, 45, 95
4, 367200, Note_off_c, 4, 45, 95
4, 367440, Note_on_c, 4, 57, 95
4, 367920, Note_off_c, 4, 57, 95
4, 368160, Note_on_c, 4, 45, 95
4, 368640, Note_off_c, 4, 45, 95
4, 369120, Note_on_c, 4, 45, 95
4, 369600, Note_off_c, 4, 45, 95
4, 369600, Note_on_c, 4, 57, 95
4, 370080, Note_off_c, 4, 57, 95
4, 370560, Note_on_c, 4, 45, 95
4, 371040, Note_off_c, 4, 45, 95
4, 371280, Note_on_c, 4, 57, 95
4, 371760, Note_off_c, 4, 57, 95
4, 372000, Note_on_c, 4, 45, 95
4, 372480, Note_off_c, 4, 45, 95
4, 372960, Note_on_c, 4, 45, 95
4, 373440, Note_off_c, 4, 45, 95
4, 373440, Note_on_c, 4, 57, 95
4, 373920, Note_off_c, 4, 57, 95
4, 374400, Note_on_c, 4, 45, 95
4, 374880, Note_off_c, 4, 45, 95
4, 375120, Note_on_c, 4, 57, 95
4, 375600, Note_off_c, 4, 57, 95
4, 375840, Note_on_c, 4, 45, 95
4, 376320, Note_off_c, 4, 45, 95
4, 376800, Note_on_c, 4, 45, 95
4, 377280, Note_off_c, 4, 45, 95
4, 377280, Note_on_c, 4, 57, 95
4, 377760, Note_off_c, 4, 57, 95
4, 378240, Note_on_c, 4, 45, 95
4, 378720, Note_off_c, 4, 45, 95
4, 378960, Note_on_c, 4, 57, 95
4, 379440, Note_off_c, 4, 57, 95
4, 379680, Note_on_c, 4, 45, 95
4, 380160, Note_off_c, 4, 45, 95
4, 380160, End_track
5, 0, Start_track
5, 0, Pitch_bend_c, 2, 8192
5, 0, Control_c, 2, 7, 95
5, 0, Control_c, 2, 10, 63
5, 0, Control_c, 2, 93, 0
5, 0, Control_c, 2, 91, 47
5, 0, Control_c, 2, 95, 0
5, 0, Control_c, 2, 92, 0
5, 0, Control_c, 2, 11, 127
5, 0, Program_c, 2, 0
5, 0, Control_c, 3, 7, 95
5, 0, Control_c, 3, 10, 63
5, 0, Control_c, 3, 93, 0
5, 0, Control_c, 3, 91, 47
5, 0, Control_c, 3, 95, 0
5, 0, Control_c, 3, 92, 0
5, 0, Control_c, 3, 11, 127
5, 0, Program_c, 3, 0
5, 42240, Note_on_c, 2, 66, 95
5, 42240, Note_on_c, 2, 62, 95
5, 42240, Note_on_c, 2, 57, 95
5, 42240, Note_on_c, 2, 50, 95
5, 43200, Note_off_c, 2, 66, 95
5, 43200, Note_off_c, 2, 62, 95
5, 43200, Note_off_c, 2, 57, 95
5, 43200, Note_off_c, 2, 50, 95
5, 43200, Note_on_c, 2, 50, 95
5, 43680, Note_off_c, 2, 50, 95
5, 43680, Note_on_c, 2, 66, 79
5, 43680, Note_on_c, 2, 62, 79
5, 43680, Note_on_c, 2, 57, 79
5, 46080, Note_off_c, 2, 66, 79
5, 46080, Note_off_c, 2, 62, 79
5, 46080, Note_off_c, 2, 57, 79
5, 46080, Note_on_c, 2, 66, 95
5, 46080, Note_on_c, 2, 62, 95
5, 46080, Note_on_c, 2, 59, 95
5, 46080, Note_on_c, 2, 54, 95
5, 46080, Note_on_c, 2, 47, 95
5, 46080, Note_on_c, 2, 42, 95
5, 47040, Note_off_c, 2, 66, 95
5, 47040, Note_off_c, 2, 62, 95
5, 47040, Note_off_c, 2, 59, 95
5, 47040, Note_off_c, 2, 54, 95
5, 47040, Note_off_c, 2, 47, 95
5, 47040, Note_off_c, 2, 42, 95
5, 47040, Note_on_c, 2, 47, 95
5, 47520, Note_off_c, 2, 47, 95
5, 47520, Note_on_c, 2, 62, 79
5, 47520, Note_on_c, 2, 59, 79
5, 47520, Note_on_c, 2, 54, 79
5, 49920, Note_off_c, 2, 62, 79
5, 49920, Note_off_c, 2, 59, 79
5, 49920, Note_off_c, 2, 54, 79
5, 57600, Note_on_c, 2, 66, 79
5, 57600, Note_on_c, 2, 62, 79
5, 57600, Note_on_c, 2, 57, 79
5, 57600, Note_on_c, 2, 50, 79
5, 59040, Note_off_c, 2, 66, 79
5, 59040, Note_off_c, 2, 62, 79
5, 59040, Note_off_c, 2, 57, 79
5, 59040, Note_off_c, 2, 50, 79
5, 59040, Note_on_c, 2, 66, 95
5, 59040, Note_on_c, 2, 62, 95
5, 59040, Note_on_c, 2, 57, 95
5, 59040, Note_on_c, 2, 50, 95
5, 60960, Note_off_c, 2, 66, 95
5, 60960, Note_off_c, 2, 62, 95
5, 60960, Note_off_c, 2, 57, 95
5, 60960, Note_off_c, 2, 50, 95
5, 61440, Note_on_c, 2, 61, 79
5, 61440, Note_on_c, 2, 57, 79
5, 61440, Note_on_c, 2, 52, 79
5, 61440, Note_on_c, 2, 45, 79
5, 62880, Note_off_c, 2, 61, 79
5, 62880, Note_off_c, 2, 57, 79
5, 62880, Note_off_c, 2, 52, 79
5, 62880, Note_off_c, 2, 45, 79
5, 62880, Note_on_c, 2, 61, 95
5, 62880, Note_on_c, 2, 57, 95
5, 62880, Note_on_c, 2, 52, 95
5, 62880, Note_on_c, 2, 45, 95
5, 64800, Note_off_c, 2, 61, 95
5, 64800, Note_off_c, 2, 57, 95
5, 64800, Note_off_c, 2, 52, 95
5, 64800, Note_off_c, 2, 45, 95
5, 65280, Note_on_c, 2, 66, 79
5, 65280, Note_on_c, 2, 62, 79
5, 65280, Note_on_c, 2, 57, 79
5, 65280, Note_on_c, 2, 50, 79
5, 66720, Note_off_c, 2, 66, 79
5, 66720, Note_off_c, 2, 62, 79
5, 66720, Note_off_c, 2, 57, 79
5, 66720, Note_off_c, 2, 50, 79
5, 66720, Note_on_c, 2, 66, 95
5, 66720, Note_on_c, 2, 62, 95
5, 66720, Note_on_c, 2, 57, 95
5, 66720, Note_on_c, 2, 50, 95
5, 68640, Note_off_c, 2, 66, 95
5, 68640, Note_off_c, 2, 62, 95
5, 68640, Note_off_c, 2, 57, 95
5, 68640, Note_off_c, 2, 50, 95
5, 68640, Note_on_c, 2, 66, 95
5, 68640, Note_on_c, 2, 62, 95
5, 68640, Note_on_c, 2, 57, 95
5, 68640, Note_on_c, 2, 50, 95
5, 70080, Note_off_c, 2, 66, 95
5, 70080, Note_off_c, 2, 62, 95
5, 70080, Note_off_c, 2, 57, 95
5, 70080, Note_off_c, 2, 50, 95
5, 103680, Note_on_c, 2, 66, 95
5, 103680, Note_on_c, 2, 62, 95
5, 103680, Note_on_c, 2, 57, 95
5, 103680, Note_on_c, 2, 50, 95
5, 104640, Note_off_c, 2, 66, 95
5, 104640, Note_off_c, 2, 62, 95
5, 104640, Note_off_c, 2, 57, 95
5, 104640, Note_off_c, 2, 50, 95
5, 104640, Note_on_c, 2, 50, 95
5, 105120, Note_off_c, 2, 50, 95
5, 105120, Note_on_c, 2, 66, 79
5, 105120, Note_on_c, 2, 62, 79
5, 105120, Note_on_c, 2, 57, 79
5, 107520, Note_off_c, 2, 66, 79
5, 107520, Note_off_c, 2, 62, 79
5, 107520, Note_off_c, 2, 57, 79
5, 107520, Note_on_c, 2, 66, 95
5, 107520, Note_on_c, 2, 62, 95
5, 107520, Note_on_c, 2, 59, 95
5, 107520, Note_on_c, 2, 54, 95
5, 107520, Note_on_c, 2, 47, 95
5, 107520, Note_on_c, 2, 42, 95
5, 108480, Note_off_c, 2, 66, 95
5, 108480, Note_off_c, 2, 62, 95
5, 108480, Note_off_c, 2, 59, 95
5, 108480, Note_off_c, 2, 54, 95
5, 108480, Note_off_c, 2, 47, 95
5, 108480, Note_off_c, 2, 42, 95
5, 108480, Note_on_c, 2, 47, 95
5, 108960, Note_off_c, 2, 47, 95
5, 108960, Note_on_c, 2, 62, 79
5, 108960, Note_on_c, 2, 59, 79
5, 108960, Note_on_c, 2, 54, 79
5, 111360, Note_off_c, 2, 62, 79
5, 111360, Note_off_c, 2, 59, 79
5, 111360, Note_off_c, 2, 54, 79
5, 119040, Note_on_c, 2, 66, 79
5, 119040, Note_on_c, 2, 62, 79
5, 119040, Note_on_c, 2, 57, 79
5, 119040, Note_on_c, 2, 50, 79
5, 120480, Note_off_c, 2, 66, 79
5, 120480, Note_off_c, 2, 62, 79
5, 120480, Note_off_c, 2, 57, 79
5, 120480, Note_off_c, 2, 50, 79
5, 120480, Note_on_c, 2, 66, 95
5, 120480, Note_on_c, 2, 62, 95
5, 120480, Note_on_c, 2, 57, 95
5, 120480, Note_on_c, 2, 50, 95
5, 122400, Note_off_c, 2, 66, 95
5, 122400, Note_off_c, 2, 62, 95
5, 122400, Note_off_c, 2, 57, 95
5, 122400, Note_off_c, 2, 50, 95
5, 122880, Note_on_c, 2, 61, 79
5, 122880, Note_on_c, 2, 57, 79
5, 122880, Note_on_c, 2, 52, 79
5, 122880, Note_on_c, 2, 45, 79
5, 124320, Note_off_c, 2, 61, 79
5, 124320, Note_off_c, 2, 57, 79
5, 124320, Note_off_c, 2, 52, 79
5, 124320, Note_off_c, 2, 45, 79
5, 124320, Note_on_c, 2, 61, 95
5, 124320, Note_on_c, 2, 57, 95
5, 124320, Note_on_c, 2, 52, 95
5, 124320, Note_on_c, 2, 45, 95
5, 126240, Note_off_c, 2, 61, 95
5, 126240, Note_off_c, 2, 57, 95
5, 126240, Note_off_c, 2, 52, 95
5, 126240, Note_off_c, 2, 45, 95
5, 126720, Note_on_c, 2, 66, 79
5, 126720, Note_on_c, 2, 62, 79
5, 126720, Note_on_c, 2, 57, 79
5, 126720, Note_on_c, 2, 50, 79
5, 128160, Note_off_c, 2, 66, 79
5, 128160, Note_off_c, 2, 62, 79
5, 128160, Note_off_c, 2, 57, 79
5, 128160, Note_off_c, 2, 50, 79
5, 128160, Note_on_c, 2, 66, 95
5, 128160, Note_on_c, 2, 62, 95
5, 128160, Note_on_c, 2, 57, 95
5, 128160, Note_on_c, 2, 50, 95
5, 130080, Note_off_c, 2, 66, 95
5, 130080, Note_off_c, 2, 62, 95
5, 130080, Note_off_c, 2, 57, 95
5, 130080, Note_off_c, 2, 50, 95
5, 130080, Note_on_c, 2, 66, 95
5, 130080, Note_on_c, 2, 62, 95
5, 130080, Note_on_c, 2, 57, 95
5, 130080, Note_on_c, 2, 50, 95
5, 131520, Note_off_c, 2, 66, 95
5, 131520, Note_off_c, 2, 62, 95
5, 131520, Note_off_c, 2, 57, 95
5, 131520, Note_off_c, 2, 50, 95
5, 149760, Note_on_c, 2, 66, 95
5, 149760, Note_on_c, 2, 62, 95
5, 149760, Note_on_c, 2, 57, 95
5, 149760, Note_on_c, 2, 50, 95
5, 151680, Note_off_c, 2, 66, 95
5, 151680, Note_off_c, 2, 62, 95
5, 151680, Note_off_c, 2, 57, 95
5, 151680, Note_off_c, 2, 50, 95
5, 151680, Note_on_c, 2, 61, 95
5, 151680, Note_on_c, 2, 57, 95
5, 151680, Note_on_c, 2, 52, 95
5, 151680, Note_on_c, 2, 45, 95
5, 153600, Note_off_c, 2, 61, 95
5, 153600, Note_off_c, 2, 57, 95
5, 153600, Note_off_c, 2, 52, 95
5, 153600, Note_off_c, 2, 45, 95
5, 153600, Note_on_c, 2, 66, 95
5, 153600, Note_on_c, 2, 62, 95
5, 153600, Note_on_c, 2, 59, 95
5, 153600, Note_on_c, 2, 54, 95
5, 153600, Note_on_c, 2, 47, 95
5, 153600, Note_on_c, 2, 42, 95
5, 155040, Note_off_c, 2, 66, 95
5, 155040, Note_off_c, 2, 62, 95
5, 155040, Note_off_c, 2, 59, 95
5, 155040, Note_off_c, 2, 54, 95
5, 155040, Note_off_c, 2, 47, 95
5, 155040, Note_off_c, 2, 42, 95
5, 155040, Note_on_c, 2, 66, 95
5, 155040, Note_on_c, 2, 62, 95
5, 155040, Note_on_c, 2, 59, 95
5, 155040, Note_on_c, 2, 54, 95
5, 156960, Note_off_c, 2, 66, 95
5, 156960, Note_off_c, 2, 62, 95
5, 156960, Note_off_c, 2, 59, 95
5, 156960, Note_off_c, 2, 54, 95
5, 165120, Note_on_c, 2, 66, 95
5, 165120, Note_on_c, 2, 62, 95
5, 165120, Note_on_c, 2, 57, 95
5, 165120, Note_on_c, 2, 50, 95
5, 167040, Note_off_c, 2, 66, 95
5, 167040, Note_off_c, 2, 62, 95
5, 167040, Note_off_c, 2, 57, 95
5, 167040, Note_off_c, 2, 50, 95
5, 167040, Note_on_c, 2, 61, 95
5, 167040, Note_on_c, 2, 57, 95
5, 167040, Note_on_c, 2, 52, 95
5, 167040, Note_on_c, 2, 45, 95
5, 168960, Note_off_c, 2, 61, 95
5, 168960, Note_off_c, 2, 57, 95
5, 168960, Note_off_c, 2, 52, 95
5, 168960, Note_off_c, 2, 45, 95
5, 168960, Note_on_c, 2, 66, 95
5, 168960, Note_on_c, 2, 62, 95
5, 168960, Note_on_c, 2, 59, 95
5, 168960, Note_on_c, 2, 54, 95
5, 168960, Note_on_c, 2, 47, 95
5, 168960, Note_on_c, 2, 42, 95
5, 170400, Note_off_c, 2, 66, 95
5, 170400, Note_off_c, 2, 62, 95
5, 170400, Note_off_c, 2, 59, 95
5, 170400, Note_off_c, 2, 54, 95
5, 170400, Note_off_c, 2, 47, 95
5, 170400, Note_off_c, 2, 42, 95
5, 170400, Note_on_c, 2, 66, 95
5, 170400, Note_on_c, 2, 62, 95
5, 170400, Note_on_c, 2, 59, 95
5, 170400, Note_on_c, 2, 54, 95
5, 172320, Note_off_c, 2, 66, 95
5, 172320, Note_off_c, 2, 62, 95
5, 172320, Note_off_c, 2, 59, 95
5, 172320, Note_off_c, 2, 54, 95
5, 203520, Note_on_c, 2, 66, 95
5, 203520, Note_on_c, 2, 62, 95
5, 203520, Note_on_c, 2, 57, 95
5, 203520, Note_on_c, 2, 50, 95
5, 207360, Note_off_c, 2, 66, 95
5, 207360, Note_off_c, 2, 62, 95
5, 207360, Note_off_c, 2, 57, 95
5, 207360, Note_off_c, 2, 50, 95
5, 207360, Note_on_c, 2, 66, 79
5, 207360, Note_on_c, 2, 62, 79
5, 207360, Note_on_c, 2, 59, 79
5, 207360, Note_on_c, 2, 54, 79
5, 207360, Note_on_c, 2, 47, 79
5, 207360, Note_on_c, 2, 42, 79
5, 208800, Note_off_c, 2, 66, 79
5, 208800, Note_off_c, 2, 62, 79
5, 208800, Note_off_c, 2, 59, 79
5, 208800, Note_off_c, 2, 54, 79
5, 208800, Note_off_c, 2, 47, 79
5, 208800, Note_off_c, 2, 42, 79
5, 208800, Note_on_c, 2, 66, 95
5, 208800, Note_on_c, 2, 62, 95
5, 208800, Note_on_c, 2, 59, 95
5, 208800, Note_on_c, 2, 54, 95
5, 210720, Note_off_c, 2, 66, 95
5, 210720, Note_off_c, 2, 62, 95
5, 210720, Note_off_c, 2, 59, 95
5, 210720, Note_off_c, 2, 54, 95
5, 218880, Note_on_c, 2, 66, 79
5, 218880, Note_on_c, 2, 62, 79
5, 218880, Note_on_c, 2, 57, 79
5, 218880, Note_on_c, 2, 50, 79
5, 220320, Note_off_c, 2, 66, 79
5, 220320, Note_off_c, 2, 62, 79
5, 220320, Note_off_c, 2, 57, 79
5, 220320, Note_off_c, 2, 50, 79
5, 220320, Note_on_c, 2, 66, 95
5, 220320, Note_on_c, 2, 62, 95
5, 220320, Note_on_c, 2, 57, 95
5, 220320, Note_on_c, 2, 50, 95
5, 222240, Note_off_c, 2, 66, 95
5, 222240, Note_off_c, 2, 62, 95
5, 222240, Note_off_c, 2, 57, 95
5, 222240, Note_off_c, 2, 50, 95
5, 222720, Note_on_c, 2, 61, 79
5, 222720, Note_on_c, 2, 57, 79
5, 222720, Note_on_c, 2, 52, 79
5, 222720, Note_on_c, 2, 45, 79
5, 224160, Note_off_c, 2, 61, 79
5, 224160, Note_off_c, 2, 57, 79
5, 224160, Note_off_c, 2, 52, 79
5, 224160, Note_off_c, 2, 45, 79
5, 224160, Note_on_c, 2, 61, 95
5, 224160, Note_on_c, 2, 57, 95
5, 224160, Note_on_c, 2, 52, 95
5, 224160, Note_on_c, 2, 45, 95
5, 226080, Note_off_c, 2, 61, 95
5, 226080, Note_off_c, 2, 57, 95
5, 226080, Note_off_c, 2, 52, 95
5, 226080, Note_off_c, 2, 45, 95
5, 226560, Note_on_c, 2, 66, 79
5, 226560, Note_on_c, 2, 62, 79
5, 226560, Note_on_c, 2, 57, 79
5, 226560, Note_on_c, 2, 50, 79
5, 228000, Note_off_c, 2, 66, 79
5, 228000, Note_off_c, 2, 62, 79
5, 228000, Note_off_c, 2, 57, 79
5, 228000, Note_off_c, 2, 50, 79
5, 228000, Note_on_c, 2, 66, 95
5, 228000, Note_on_c, 2, 62, 95
5, 228000, Note_on_c, 2, 57, 95
5, 228000, Note_on_c, 2, 50, 95
5, 229920, Note_off_c, 2, 66, 95
5, 229920, Note_off_c, 2, 62, 95
5, 229920, Note_off_c, 2, 57, 95
5, 229920, Note_off_c, 2, 50, 95
5, 229920, Note_on_c, 2, 66, 95
5, 229920, Note_on_c, 2, 62, 95
5, 229920, Note_on_c, 2, 57, 95
5, 229920, Note_on_c, 2, 50, 95
5, 231360, Note_off_c, 2, 66, 95
5, 231360, Note_off_c, 2, 62, 95
5, 231360, Note_off_c, 2, 57, 95
5, 231360, Note_off_c, 2, 50, 95
5, 231360, End_track
6, 0, Start_track
6, 0, Pitch_bend_c, 9, 8192
6, 0, Control_c, 9, 7, 95
6, 0, Control_c, 9, 10, 63
6, 0, Control_c, 9, 93, 0
6, 0, Control_c, 9, 91, 0
6, 0, Control_c, 9, 95, 0
6, 0, Control_c, 9, 92, 0
6, 0, Control_c, 9, 11, 127
6, 0, Program_c, 9, 0
6, 3360, Note_on_c, 9, 40, 95
6, 3360, Note_on_c, 9, 40, 95
6, 3600, Note_off_c, 9, 40, 95
6, 3600, Note_off_c, 9, 40, 95
6, 3600, Note_on_c, 9, 40, 95
6, 3600, Note_on_c, 9, 40, 95
6, 3840, Note_off_c, 9, 40, 95
6, 3840, Note_off_c, 9, 40, 95
6, 3840, Note_on_c, 9, 42, 95
6, 3840, Note_on_c, 9, 35, 95
6, 3840, Note_on_c, 9, 35, 95
6, 4320, Note_off_c, 9, 42, 95
6, 4320, Note_off_c, 9, 35, 95
6, 4320, Note_off_c, 9, 35, 95
6, 4320, Note_on_c, 9, 42, 95
6, 4800, Note_off_c, 9, 42, 95
6, 4800, Note_on_c, 9, 42, 95
6, 4800, Note_on_c, 9, 40, 95
6, 4800, Note_on_c, 9, 40, 95
6, 5280, Note_off_c, 9, 42, 95
6, 5280, Note_off_c, 9, 40, 95
6, 5280, Note_off_c, 9, 40, 95
6, 5280, Note_on_c, 9, 42, 95
6, 5760, Note_off_c, 9, 42, 95
6, 5760, Note_on_c, 9, 42, 95
6, 5760, Note_on_c, 9, 35, 95
6, 5760, Note_on_c, 9, 35, 95
6, 6240, Note_off_c, 9, 42, 95
6, 6240, Note_off_c, 9, 35, 95
6, 6240, Note_off_c, 9, 35, 95
6, 6240, Note_on_c, 9, 42, 95
6, 6240, Note_on_c, 9, 35, 95
6, 6240, Note_on_c, 9, 35, 95
6, 6720, Note_off_c, 9, 42, 95
6, 6720, Note_off_c, 9, 35, 95
6, 6720, Note_off_c, 9, 35, 95
6, 6720, Note_on_c, 9, 42, 95
6, 6720, Note_on_c, 9, 40, 95
6, 6720, Note_on_c, 9, 40, 95
6, 7200, Note_off_c, 9, 42, 95
6, 7200, Note_off_c, 9, 40, 95
6, 7200, Note_off_c, 9, 40, 95
6, 7200, Note_on_c, 9, 46, 95
6, 7200, Note_on_c, 9, 55, 95
6, 7680, Note_off_c, 9, 46, 95
6, 7680, Note_off_c, 9, 55, 95
6, 7680, Note_on_c, 9, 42, 95
6, 7680, Note_on_c, 9, 35, 95
6, 7680, Note_on_c, 9, 35, 95
6, 8160, Note_off_c, 9, 42, 95
6, 8160, Note_off_c, 9, 35, 95
6, 8160, Note_off_c, 9, 35, 95
6, 8160, Note_on_c, 9, 42, 95
6, 8640, Note_off_c, 9, 42, 95
6, 8640, Note_on_c, 9, 42, 95
6, 8640, Note_on_c, 9, 40, 95
6, 8640, Note_on_c, 9, 40, 95
6, 9120, Note_off_c, 9, 42, 95
6, 9120, Note_off_c, 9, 40, 95
6, 9120, Note_off_c, 9, 40, 95
6, 9120, Note_on_c, 9, 42, 95
6, 9360, Note_off_c, 9, 42, 95
6, 9360, Note_on_c, 9, 42, 95
6, 9600, Note_off_c, 9, 42, 95
6, 9600, Note_on_c, 9, 42, 95
6, 9600, Note_on_c, 9, 35, 95
6, 9600, Note_on_c, 9, 35, 95
6, 10080, Note_off_c, 9, 42, 95
6, 10080, Note_off_c, 9, 35, 95
6, 10080, Note_off_c, 9, 35, 95
6, 10080, Note_on_c, 9, 42, 95
6, 10560, Note_off_c, 9, 42, 95
6, 10560, Note_on_c, 9, 42, 95
6, 10560, Note_on_c, 9, 40, 95
6, 10560, Note_on_c, 9, 40, 95
6, 11040, Note_off_c, 9, 42, 95
6, 11040, Note_off_c, 9, 40, 95
6, 11040, Note_off_c, 9, 40, 95
6, 11040, Note_on_c, 9, 46, 95
6, 11040, Note_on_c, 9, 55, 95
6, 11520, Note_off_c, 9, 46, 95
6, 11520, Note_off_c, 9, 55, 95
6, 11520, Note_on_c, 9, 42, 95
6, 11520, Note_on_c, 9, 35, 95
6, 11520, Note_on_c, 9, 35, 95
6, 12000, Note_off_c, 9, 42, 95
6, 12000, Note_off_c, 9, 35, 95
6, 12000, Note_off_c, 9, 35, 95
6, 12000, Note_on_c, 9, 42, 95
6, 12480, Note_off_c, 9, 42, 95
6, 12480, Note_on_c, 9, 42, 95
6, 12480, Note_on_c, 9, 40, 95
6, 12480, Note_on_c, 9, 40, 95
6, 12960, Note_off_c, 9, 42, 95
6, 12960, Note_off_c, 9, 40, 95
6, 12960, Note_off_c, 9, 40, 95
6, 12960, Note_on_c, 9, 42, 95
6, 13200, Note_off_c, 9, 42, 95
6, 13200, Note_on_c, 9, 42, 95
6, 13440, Note_off_c, 9, 42, 95
6, 13440, Note_on_c, 9, 42, 95
6, 13440, Note_on_c, 9, 35, 95
6, 13440, Note_on_c, 9, 35, 95
6, 13920, Note_off_c, 9, 42, 95
6, 13920, Note_off_c, 9, 35, 95
6, 13920, Note_off_c, 9, 35, 95
6, 13920, Note_on_c, 9, 42, 95
6, 14400, Note_off_c, 9, 42, 95
6, 14400, Note_on_c, 9, 42, 95
6, 14400, Note_on_c, 9, 40, 95
6, 14400, Note_on_c, 9, 40, 95
6, 14880, Note_off_c, 9, 42, 95
6, 14880, Note_off_c, 9, 40, 95
6, 14880, Note_off_c, 9, 40, 95
6, 14880, Note_on_c, 9, 46, 95
6, 14880, Note_on_c, 9, 55, 95
6, 15360, Note_off_c, 9, 46, 95
6, 15360, Note_off_c, 9, 55, 95
6, 15360, Note_on_c, 9, 42, 95
6, 15360, Note_on_c, 9, 35, 95
6, 15360, Note_on_c, 9, 35, 95
6, 15840, Note_off_c, 9, 42, 95
6, 15840, Note_off_c, 9, 35, 95
6, 15840, Note_off_c, 9, 35, 95
6, 15840, Note_on_c, 9, 42, 95
6, 16320, Note_off_c, 9, 42, 95
6, 16320, Note_on_c, 9, 42, 95
6, 16320, Note_on_c, 9, 40, 95
6, 16320, Note_on_c, 9, 40, 95
6, 16800, Note_off_c, 9, 42, 95
6, 16800, Note_off_c, 9, 40, 95
6, 16800, Note_off_c, 9, 40, 95
6, 16800, Note_on_c, 9, 42, 95
6, 17040, Note_off_c, 9, 42, 95
6, 17040, Note_on_c, 9, 42, 95
6, 17280, Note_off_c, 9, 42, 95
6, 17280, Note_on_c, 9, 42, 95
6, 17280, Note_on_c, 9, 35, 95
6, 17280, Note_on_c, 9, 35, 95
6, 17760, Note_off_c, 9, 42, 95
6, 17760, Note_off_c, 9, 35, 95
6, 17760, Note_off_c, 9, 35, 95
6, 17760, Note_on_c, 9, 42, 95
6, 18240, Note_off_c, 9, 42, 95
6, 18240, Note_on_c, 9, 42, 95
6, 18240, Note_on_c, 9, 40, 95
6, 18240, Note_on_c, 9, 40, 95
6, 18720, Note_off_c, 9, 42, 95
6, 18720, Note_off_c, 9, 40, 95
6, 18720, Note_off_c, 9, 40, 95
6, 18720, Note_on_c, 9, 46, 95
6, 18720, Note_on_c, 9, 55, 95
6, 19200, Note_off_c, 9, 46, 95
6, 19200, Note_off_c, 9, 55, 95
6, 19200, Note_on_c, 9, 42, 95
6, 19200, Note_on_c, 9, 35, 95
6, 19200, Note_on_c, 9, 35, 95
6, 19680, Note_off_c, 9, 42, 95
6, 19680, Note_off_c, 9, 35, 95
6, 19680, Note_off_c, 9, 35, 95
6, 19680, Note_on_c, 9, 42, 95
6, 20160, Note_off_c, 9, 42, 95
6, 20160, Note_on_c, 9, 42, 95
6, 20160, Note_on_c, 9, 40, 95
6, 20160, Note_on_c, 9, 40, 95
6, 20640, Note_off_c, 9, 42, 95
6, 20640, Note_off_c, 9, 40, 95
6, 20640, Note_off_c, 9, 40, 95
6, 20640, Note_on_c, 9, 42, 95
6, 20880, Note_off_c, 9, 42, 95
6, 20880, Note_on_c, 9, 42, 95
6, 21120, Note_off_c, 9, 42, 95
6, 21120, Note_on_c, 9, 42, 95
6, 21120, Note_on_c, 9, 35, 95
6, 21120, Note_on_c, 9, 35, 95
6, 21600, Note_off_c, 9, 42, 95
6, 21600, Note_off_c, 9, 35, 95
6, 21600, Note_off_c, 9, 35, 95
6, 21600, Note_on_c, 9, 42, 95
6, 22080, Note_off_c, 9, 42, 95
6, 22080, Note_on_c, 9, 42, 95
6, 22080, Note_on_c, 9, 40, 95
6, 22080, Note_on_c, 9, 40, 95
6, 22560, Note_off_c, 9, 42, 95
6, 22560, Note_off_c, 9, 40, 95
6, 22560, Note_off_c, 9, 40, 95
6, 22560, Note_on_c, 9, 46, 95
6, 22560, Note_on_c, 9, 55, 95
6, 23040, Note_off_c, 9, 46, 95
6, 23040, Note_off_c, 9, 55, 95
6, 23040, Note_on_c, 9, 42, 95
6, 23040, Note_on_c, 9, 35, 95
6, 23040, Note_on_c, 9, 35, 95
6, 23520, Note_off_c, 9, 42, 95
6, 23520, Note_off_c, 9, 35, 95
6, 23520, Note_off_c, 9, 35, 95
6, 23520, Note_on_c, 9, 42, 95
6, 24000, Note_off_c, 9, 42, 95
6, 24000, Note_on_c, 9, 42, 95
6, 24000, Note_on_c, 9, 40, 95
6, 24000, Note_on_c, 9, 40, 95
6, 24480, Note_off_c, 9, 42, 95
6, 24480, Note_off_c, 9, 40, 95
6, 24480, Note_off_c, 9, 40, 95
6, 24480, Note_on_c, 9, 42, 95
6, 24720, Note_off_c, 9, 42, 95
6, 24720, Note_on_c, 9, 42, 95
6, 24960, Note_off_c, 9, 42, 95
6, 24960, Note_on_c, 9, 42, 95
6, 24960, Note_on_c, 9, 35, 95
6, 24960, Note_on_c, 9, 35, 95
6, 25440, Note_off_c, 9, 42, 95
6, 25440, Note_off_c, 9, 35, 95
6, 25440, Note_off_c, 9, 35, 95
6, 25440, Note_on_c, 9, 42, 95
6, 25920, Note_off_c, 9, 42, 95
6, 25920, Note_on_c, 9, 42, 95
6, 25920, Note_on_c, 9, 40, 95
6, 25920, Note_on_c, 9, 40, 95
6, 26400, Note_off_c, 9, 42, 95
6, 26400, Note_off_c, 9, 40, 95
6, 26400, Note_off_c, 9, 40, 95
6, 26400, Note_on_c, 9, 46, 95
6, 26400, Note_on_c, 9, 55, 95
6, 26880, Note_off_c, 9, 46, 95
6, 26880, Note_off_c, 9, 55, 95
6, 26880, Note_on_c, 9, 42, 95
6, 26880, Note_on_c, 9, 35, 95
6, 26880, Note_on_c, 9, 35, 95
6, 27360, Note_off_c, 9, 42, 95
6, 27360, Note_off_c, 9, 35, 95
6, 27360, Note_off_c, 9, 35, 95
6, 27360, Note_on_c, 9, 42, 95
6, 27840, Note_off_c, 9, 42, 95
6, 27840, Note_on_c, 9, 42, 95
6, 27840, Note_on_c, 9, 40, 95
6, 27840, Note_on_c, 9, 40, 95
6, 28320, Note_off_c, 9, 42, 95
6, 28320, Note_off_c, 9, 40, 95
6, 28320, Note_off_c, 9, 40, 95
6, 28320, Note_on_c, 9, 42, 95
6, 28560, Note_off_c, 9, 42, 95
6, 28560, Note_on_c, 9, 42, 95
6, 28800, Note_off_c, 9, 42, 95
6, 28800, Note_on_c, 9, 42, 95
6, 28800, Note_on_c, 9, 35, 95
6, 28800, Note_on_c, 9, 35, 95
6, 29280, Note_off_c, 9, 42, 95
6, 29280, Note_off_c, 9, 35, 95
6, 29280, Note_off_c, 9, 35, 95
6, 29280, Note_on_c, 9, 42, 95
6, 29760, Note_off_c, 9, 42, 95
6, 29760, Note_on_c, 9, 42, 95
6, 29760, Note_on_c, 9, 40, 95
6, 29760, Note_on_c, 9, 40, 95
6, 30240, Note_off_c, 9, 42, 95
6, 30240, Note_off_c, 9, 40, 95
6, 30240, Note_off_c, 9, 40, 95
6, 30240, Note_on_c, 9, 46, 95
6, 30240, Note_on_c, 9, 55, 95
6, 30720, Note_off_c, 9, 46, 95
6, 30720, Note_off_c, 9, 55, 95
6, 30720, Note_on_c, 9, 42, 95
6, 30720, Note_on_c, 9, 35, 95
6, 30720, Note_on_c, 9, 35, 95
6, 31200, Note_off_c, 9, 42, 95
6, 31200, Note_off_c, 9, 35, 95
6, 31200, Note_off_c, 9, 35, 95
6, 31200, Note_on_c, 9, 42, 95
6, 31680, Note_off_c, 9, 42, 95
6, 31680, Note_on_c, 9, 42, 95
6, 31680, Note_on_c, 9, 40, 95
6, 31680, Note_on_c, 9, 40, 95
6, 32160, Note_off_c, 9, 42, 95
6, 32160, Note_off_c, 9, 40, 95
6, 32160, Note_off_c, 9, 40, 95
6, 32160, Note_on_c, 9, 42, 95
6, 32400, Note_off_c, 9, 42, 95
6, 32400, Note_on_c, 9, 42, 95
6, 32640, Note_off_c, 9, 42, 95
6, 32640, Note_on_c, 9, 42, 95
6, 32640, Note_on_c, 9, 35, 95
6, 32640, Note_on_c, 9, 35, 95
6, 33120, Note_off_c, 9, 42, 95
6, 33120, Note_off_c, 9, 35, 95
6, 33120, Note_off_c, 9, 35, 95
6, 33120, Note_on_c, 9, 42, 95
6, 33600, Note_off_c, 9, 42, 95
6, 33600, Note_on_c, 9, 42, 95
6, 33600, Note_on_c, 9, 40, 95
6, 33600, Note_on_c, 9, 40, 95
6, 34080, Note_off_c, 9, 42, 95
6, 34080, Note_off_c, 9, 40, 95
6, 34080, Note_off_c, 9, 40, 95
6, 34080, Note_on_c, 9, 46, 95
6, 34080, Note_on_c, 9, 55, 95
6, 34560, Note_off_c, 9, 46, 95
6, 34560, Note_off_c, 9, 55, 95
6, 34560, Note_on_c, 9, 42, 95
6, 34560, Note_on_c, 9, 35, 95
6, 34560, Note_on_c, 9, 35, 95
6, 35040, Note_off_c, 9, 42, 95
6, 35040, Note_off_c, 9, 35, 95
6, 35040, Note_off_c, 9, 35, 95
6, 35040, Note_on_c, 9, 42, 95
6, 35520, Note_off_c, 9, 42, 95
6, 35520, Note_on_c, 9, 42, 95
6, 35520, Note_on_c, 9, 40, 95
6, 35520, Note_on_c, 9, 40, 95
6, 36000, Note_off_c, 9, 42, 95
6, 36000, Note_off_c, 9, 40, 95
6, 36000, Note_off_c, 9, 40, 95
6, 36000, Note_on_c, 9, 42, 95
6, 36240, Note_off_c, 9, 42, 95
6, 36240, Note_on_c, 9, 42, 95
6, 36480, Note_off_c, 9, 42, 95
6, 36480, Note_on_c, 9, 42, 95
6, 36480, Note_on_c, 9, 35, 95
6, 36480, Note_on_c, 9, 35, 95
6, 36960, Note_off_c, 9, 42, 95
6, 36960, Note_off_c, 9, 35, 95
6, 36960, Note_off_c, 9, 35, 95
6, 36960, Note_on_c, 9, 42, 95
6, 37440, Note_off_c, 9, 42, 95
6, 37440, Note_on_c, 9, 42, 95
6, 37440, Note_on_c, 9, 40, 95
6, 37440, Note_on_c, 9, 40, 95
6, 37920, Note_off_c, 9, 42, 95
6, 37920, Note_off_c, 9, 40, 95
6, 37920, Note_off_c, 9, 40, 95
6, 37920, Note_on_c, 9, 46, 95
6, 37920, Note_on_c, 9, 55, 95
6, 38400, Note_off_c, 9, 46, 95
6, 38400, Note_off_c, 9, 55, 95
6, 38400, Note_on_c, 9, 42, 95
6, 38400, Note_on_c, 9, 35, 95
6, 38400, Note_on_c, 9, 35, 95
6, 38880, Note_off_c, 9, 42, 95
6, 38880, Note_off_c, 9, 35, 95
6, 38880, Note_off_c, 9, 35, 95
6, 38880, Note_on_c, 9, 42, 95
6, 39360, Note_off_c, 9, 42, 95
6, 39360, Note_on_c, 9, 42, 95
6, 39360, Note_on_c, 9, 40, 95
6, 39360, Note_on_c, 9, 40, 95
6, 39840, Note_off_c, 9, 42, 95
6, 39840, Note_off_c, 9, 40, 95
6, 39840, Note_off_c, 9, 40, 95
6, 39840, Note_on_c, 9, 42, 95
6, 40080, Note_off_c, 9, 42, 95
6, 40080, Note_on_c, 9, 42, 95
6, 40320, Note_off_c, 9, 42, 95
6, 40320, Note_on_c, 9, 42, 95
6, 40320, Note_on_c, 9, 35, 95
6, 40320, Note_on_c, 9, 35, 95
6, 40800, Note_off_c, 9, 42, 95
6, 40800, Note_off_c, 9, 35, 95
6, 40800, Note_off_c, 9, 35, 95
6, 40800, Note_on_c, 9, 42, 95
6, 41280, Note_off_c, 9, 42, 95
6, 41280, Note_on_c, 9, 42, 95
6, 41280, Note_on_c, 9, 40, 95
6, 41280, Note_on_c, 9, 40, 95
6, 41760, Note_off_c, 9, 42, 95
6, 41760, Note_off_c, 9, 40, 95
6, 41760, Note_off_c, 9, 40, 95
6, 41760, Note_on_c, 9, 46, 95
6, 41760, Note_on_c, 9, 55, 95
6, 42240, Note_off_c, 9, 46, 95
6, 42240, Note_off_c, 9, 55, 95
6, 42240, Note_on_c, 9, 57, 95
6, 42240, Note_on_c, 9, 35, 95
6, 42240, Note_on_c, 9, 35, 95
6, 42720, Note_off_c, 9, 57, 95
6, 42720, Note_off_c, 9, 35, 95
6, 42720, Note_off_c, 9, 35, 95
6, 42720, Note_on_c, 9, 42, 95
6, 43200, Note_off_c, 9, 42, 95
6, 43200, Note_on_c, 9, 42, 95
6, 43200, Note_on_c, 9, 40, 95
6, 43200, Note_on_c, 9, 40, 95
6, 43680, Note_off_c, 9, 42, 95
6, 43680, Note_off_c, 9, 40, 95
6, 43680, Note_off_c, 9, 40, 95
6, 43680, Note_on_c, 9, 42, 95
6, 43920, Note_off_c, 9, 42, 95
6, 43920, Note_on_c, 9, 42, 95
6, 44160, Note_off_c, 9, 42, 95
6, 44160, Note_on_c, 9, 42, 95
6, 44160, Note_on_c, 9, 35, 95
6, 44160, Note_on_c, 9, 35, 95
6, 44640, Note_off_c, 9, 42, 95
6, 44640, Note_off_c, 9, 35, 95
6, 44640, Note_off_c, 9, 35, 95
6, 44640, Note_on_c, 9, 42, 95
6, 45120, Note_off_c, 9, 42, 95
6, 45120, Note_on_c, 9, 42, 95
6, 45120, Note_on_c, 9, 40, 95
6, 45120, Note_on_c, 9, 40, 95
6, 45600, Note_off_c, 9, 42, 95
6, 45600, Note_off_c, 9, 40, 95
6, 45600, Note_off_c, 9, 40, 95
6, 45600, Note_on_c, 9, 46, 95
6, 46080, Note_off_c, 9, 46, 95
6, 46080, Note_on_c, 9, 57, 95
6, 46080, Note_on_c, 9, 35, 95
6, 46080, Note_on_c, 9, 35, 95
6, 46560, Note_off_c, 9, 57, 95
6, 46560, Note_off_c, 9, 35, 95
6, 46560, Note_off_c, 9, 35, 95
6, 46560, Note_on_c, 9, 42, 95
6, 47040, Note_off_c, 9, 42, 95
6, 47040, Note_on_c, 9, 42, 95
6, 47040, Note_on_c, 9, 40, 95
6, 47040, Note_on_c, 9, 40, 95
6, 47520, Note_off_c, 9, 42, 95
6, 47520, Note_off_c, 9, 40, 95
6, 47520, Note_off_c, 9, 40, 95
6, 47520, Note_on_c, 9, 42, 95
6, 47760, Note_off_c, 9, 42, 95
6, 47760, Note_on_c, 9, 42, 95
6, 48000, Note_off_c, 9, 42, 95
6, 48000, Note_on_c, 9, 42, 95
6, 48000, Note_on_c, 9, 35, 95
6, 48000, Note_on_c, 9, 35, 95
6, 48480, Note_off_c, 9, 42, 95
6, 48480, Note_off_c, 9, 35, 95
6, 48480, Note_off_c, 9, 35, 95
6, 48480, Note_on_c, 9, 42, 95
6, 48960, Note_off_c, 9, 42, 95
6, 48960, Note_on_c, 9, 42, 95
6, 48960, Note_on_c, 9, 40, 95
6, 48960, Note_on_c, 9, 40, 95
6, 49440, Note_off_c, 9, 42, 95
6, 49440, Note_off_c, 9, 40, 95
6, 49440, Note_off_c, 9, 40, 95
6, 49440, Note_on_c, 9, 46, 95
6, 49440, Note_on_c, 9, 55, 95
6, 49920, Note_off_c, 9, 46, 95
6, 49920, Note_off_c, 9, 55, 95
6, 49920, Note_on_c, 9, 42, 95
6, 49920, Note_on_c, 9, 35, 95
6, 49920, Note_on_c, 9, 35, 95
6, 50400, Note_off_c, 9, 42, 95
6, 50400, Note_off_c, 9, 35, 95
6, 50400, Note_off_c, 9, 35, 95
6, 50400, Note_on_c, 9, 42, 95
6, 50880, Note_off_c, 9, 42, 95
6, 50880, Note_on_c, 9, 42, 95
6, 50880, Note_on_c, 9, 40, 95
6, 50880, Note_on_c, 9, 40, 95
6, 51360, Note_off_c, 9, 42, 95
6, 51360, Note_off_c, 9, 40, 95
6, 51360, Note_off_c, 9, 40, 95
6, 51360, Note_on_c, 9, 42, 95
6, 51600, Note_off_c, 9, 42, 95
6, 51600, Note_on_c, 9, 42, 95
6, 51840, Note_off_c, 9, 42, 95
6, 51840, Note_on_c, 9, 42, 95
6, 51840, Note_on_c, 9, 35, 95
6, 51840, Note_on_c, 9, 35, 95
6, 52320, Note_off_c, 9, 42, 95
6, 52320, Note_off_c, 9, 35, 95
6, 52320, Note_off_c, 9, 35, 95
6, 52320, Note_on_c, 9, 42, 95
6, 52800, Note_off_c, 9, 42, 95
6, 52800, Note_on_c, 9, 42, 95
6, 52800, Note_on_c, 9, 40, 95
6, 52800, Note_on_c, 9, 40, 95
6, 53280, Note_off_c, 9, 42, 95
6, 53280, Note_off_c, 9, 40, 95
6, 53280, Note_off_c, 9, 40, 95
6, 53280, Note_on_c, 9, 46, 95
6, 53280, Note_on_c, 9, 55, 95
6, 53760, Note_off_c, 9, 46, 95
6, 53760, Note_off_c, 9, 55, 95
6, 53760, Note_on_c, 9, 42, 95
6, 53760, Note_on_c, 9, 35, 95
6, 53760, Note_on_c, 9, 35, 95
6, 54240, Note_off_c, 9, 42, 95
6, 54240, Note_off_c, 9, 35, 95
6, 54240, Note_off_c, 9, 35, 95
6, 54240, Note_on_c, 9, 42, 95
6, 54720, Note_off_c, 9, 42, 95
6, 54720, Note_on_c, 9, 42, 95
6, 54720, Note_on_c, 9, 40, 95
6, 54720, Note_on_c, 9, 40, 95
6, 55200, Note_off_c, 9, 42, 95
6, 55200, Note_off_c, 9, 40, 95
6, 55200, Note_off_c, 9, 40, 95
6, 55200, Note_on_c, 9, 42, 95
6, 55440, Note_off_c, 9, 42, 95
6, 55440, Note_on_c, 9, 42, 95
6, 55680, Note_off_c, 9, 42, 95
6, 55680, Note_on_c, 9, 42, 95
6, 55680, Note_on_c, 9, 35, 95
6, 55680, Note_on_c, 9, 35, 95
6, 56160, Note_off_c, 9, 42, 95
6, 56160, Note_off_c, 9, 35, 95
6, 56160, Note_off_c, 9, 35, 95
6, 56160, Note_on_c, 9, 42, 95
6, 56640, Note_off_c, 9, 42, 95
6, 56640, Note_on_c, 9, 42, 95
6, 56640, Note_on_c, 9, 40, 95
6, 56640, Note_on_c, 9, 40, 95
6, 57120, Note_off_c, 9, 42, 95
6, 57120, Note_off_c, 9, 40, 95
6, 57120, Note_off_c, 9, 40, 95
6, 57120, Note_on_c, 9, 46, 95
6, 57120, Note_on_c, 9, 55, 95
6, 57600, Note_off_c, 9, 46, 95
6, 57600, Note_off_c, 9, 55, 95
6, 57600, Note_on_c, 9, 57, 95
6, 57600, Note_on_c, 9, 35, 95
6, 57600, Note_on_c, 9, 35, 95
6, 58080, Note_off_c, 9, 57, 95
6, 58080, Note_off_c, 9, 35, 95
6, 58080, Note_off_c, 9, 35, 95
6, 58080, Note_on_c, 9, 42, 95
6, 58560, Note_off_c, 9, 42, 95
6, 58560, Note_on_c, 9, 42, 95
6, 58560, Note_on_c, 9, 40, 95
6, 58560, Note_on_c, 9, 40, 95
6, 59040, Note_off_c, 9, 42, 95
6, 59040, Note_off_c, 9, 40, 95
6, 59040, Note_off_c, 9, 40, 95
6, 59040, Note_on_c, 9, 42, 95
6, 59280, Note_off_c, 9, 42, 95
6, 59280, Note_on_c, 9, 42, 95
6, 59520, Note_off_c, 9, 42, 95
6, 59520, Note_on_c, 9, 42, 95
6, 59520, Note_on_c, 9, 35, 95
6, 59520, Note_on_c, 9, 35, 95
6, 60000, Note_off_c, 9, 42, 95
6, 60000, Note_off_c, 9, 35, 95
6, 60000, Note_off_c, 9, 35, 95
6, 60000, Note_on_c, 9, 42, 95
6, 60480, Note_off_c, 9, 42, 95
6, 60480, Note_on_c, 9, 42, 95
6, 60480, Note_on_c, 9, 40, 95
6, 60480, Note_on_c, 9, 40, 95
6, 60960, Note_off_c, 9, 42, 95
6, 60960, Note_off_c, 9, 40, 95
6, 60960, Note_off_c, 9, 40, 95
6, 60960, Note_on_c, 9, 42, 95
6, 61440, Note_off_c, 9, 42, 95
6, 61440, Note_on_c, 9, 57, 95
6, 61440, Note_on_c, 9, 35, 95
6, 61440, Note_on_c, 9, 35, 95
6, 61920, Note_off_c, 9, 57, 95
6, 61920, Note_off_c, 9, 35, 95
6, 61920, Note_off_c, 9, 35, 95
6, 61920, Note_on_c, 9, 42, 95
6, 62400, Note_off_c, 9, 42, 95
6, 62400, Note_on_c, 9, 42, 95
6, 62400, Note_on_c, 9, 40, 95
6, 62400, Note_on_c, 9, 40, 95
6, 62880, Note_off_c, 9, 42, 95
6, 62880, Note_off_c, 9, 40, 95
6, 62880, Note_off_c, 9, 40, 95
6, 62880, Note_on_c, 9, 42, 95
6, 63120, Note_off_c, 9, 42, 95
6, 63120, Note_on_c, 9, 42, 95
6, 63360, Note_off_c, 9, 42, 95
6, 63360, Note_on_c, 9, 42, 95
6, 63360, Note_on_c, 9, 35, 95
6, 63360, Note_on_c, 9, 35, 95
6, 63840, Note_off_c, 9, 42, 95
6, 63840, Note_off_c, 9, 35, 95
6, 63840, Note_off_c, 9, 35, 95
6, 63840, Note_on_c, 9, 42, 95
6, 64320, Note_off_c, 9, 42, 95
6, 64320, Note_on_c, 9, 42, 95
6, 64320, Note_on_c, 9, 40, 95
6, 64320, Note_on_c, 9, 40, 95
6, 64800, Note_off_c, 9, 42, 95
6, 64800, Note_off_c, 9, 40, 95
6, 64800, Note_off_c, 9, 40, 95
6, 64800, Note_on_c, 9, 42, 95
6, 65280, Note_off_c, 9, 42, 95
6, 65280, Note_on_c, 9, 57, 95
6, 65280, Note_on_c, 9, 35, 95
6, 65280, Note_on_c, 9, 35, 95
6, 65760, Note_off_c, 9, 57, 95
6, 65760, Note_off_c, 9, 35, 95
6, 65760, Note_off_c, 9, 35, 95
6, 65760, Note_on_c, 9, 42, 95
6, 66240, Note_off_c, 9, 42, 95
6, 66240, Note_on_c, 9, 42, 95
6, 66240, Note_on_c, 9, 40, 95
6, 66240, Note_on_c, 9, 40, 95
6, 66720, Note_off_c, 9, 42, 95
6, 66720, Note_off_c, 9, 40, 95
6, 66720, Note_off_c, 9, 40, 95
6, 66720, Note_on_c, 9, 42, 95
6, 66960, Note_off_c, 9, 42, 95
6, 66960, Note_on_c, 9, 42, 95
6, 67200, Note_off_c, 9, 42, 95
6, 67200, Note_on_c, 9, 42, 95
6, 67200, Note_on_c, 9, 35, 95
6, 67200, Note_on_c, 9, 35, 95
6, 67680, Note_off_c, 9, 42, 95
6, 67680, Note_off_c, 9, 35, 95
6, 67680, Note_off_c, 9, 35, 95
6, 67680, Note_on_c, 9, 42, 95
6, 68160, Note_off_c, 9, 42, 95
6, 68160, Note_on_c, 9, 42, 95
6, 68160, Note_on_c, 9, 40, 95
6, 68160, Note_on_c, 9, 40, 95
6, 68640, Note_off_c, 9, 42, 95
6, 68640, Note_off_c, 9, 40, 95
6, 68640, Note_off_c, 9, 40, 95
6, 68640, Note_on_c, 9, 49, 95
6, 71040, Note_off_c, 9, 49, 95
6, 71520, Note_on_c, 9, 35, 95
6, 71520, Note_on_c, 9, 35, 95
6, 72000, Note_off_c, 9, 35, 95
6, 72000, Note_off_c, 9, 35, 95
6, 72000, Note_on_c, 9, 40, 95
6, 72000, Note_on_c, 9, 40, 95
6, 72960, Note_off_c, 9, 40, 95
6, 72960, Note_off_c, 9, 40, 95
6, 72960, Note_on_c, 9, 42, 95
6, 72960, Note_on_c, 9, 35, 95
6, 72960, Note_on_c, 9, 35, 95
6, 73440, Note_off_c, 9, 42, 95
6, 73440, Note_off_c, 9, 35, 95
6, 73440, Note_off_c, 9, 35, 95
6, 73440, Note_on_c, 9, 42, 95
6, 73920, Note_off_c, 9, 42, 95
6, 73920, Note_on_c, 9, 42, 95
6, 73920, Note_on_c, 9, 40, 95
6, 73920, Note_on_c, 9, 40, 95
6, 74400, Note_off_c, 9, 42, 95
6, 74400, Note_off_c, 9, 40, 95
6, 74400, Note_off_c, 9, 40, 95
6, 74400, Note_on_c, 9, 42, 95
6, 74640, Note_off_c, 9, 42, 95
6, 74640, Note_on_c, 9, 42, 95
6, 74880, Note_off_c, 9, 42, 95
6, 74880, Note_on_c, 9, 42, 95
6, 74880, Note_on_c, 9, 35, 95
6, 74880, Note_on_c, 9, 35, 95
6, 75360, Note_off_c, 9, 42, 95
6, 75360, Note_off_c, 9, 35, 95
6, 75360, Note_off_c, 9, 35, 95
6, 75360, Note_on_c, 9, 42, 95
6, 75840, Note_off_c, 9, 42, 95
6, 75840, Note_on_c, 9, 42, 95
6, 75840, Note_on_c, 9, 40, 95
6, 75840, Note_on_c, 9, 40, 95
6, 76320, Note_off_c, 9, 42, 95
6, 76320, Note_off_c, 9, 40, 95
6, 76320, Note_off_c, 9, 40, 95
6, 76320, Note_on_c, 9, 46, 95
6, 76320, Note_on_c, 9, 55, 95
6, 76800, Note_off_c, 9, 46, 95
6, 76800, Note_off_c, 9, 55, 95
6, 76800, Note_on_c, 9, 42, 95
6, 76800, Note_on_c, 9, 35, 95
6, 76800, Note_on_c, 9, 35, 95
6, 77280, Note_off_c, 9, 42, 95
6, 77280, Note_off_c, 9, 35, 95
6, 77280, Note_off_c, 9, 35, 95
6, 77280, Note_on_c, 9, 42, 95
6, 77760, Note_off_c, 9, 42, 95
6, 77760, Note_on_c, 9, 42, 95
6, 77760, Note_on_c, 9, 40, 95
6, 77760, Note_on_c, 9, 40, 95
6, 78240, Note_off_c, 9, 42, 95
6, 78240, Note_off_c, 9, 40, 95
6, 78240, Note_off_c, 9, 40, 95
6, 78240, Note_on_c, 9, 42, 95
6, 78480, Note_off_c, 9, 42, 95
6, 78480, Note_on_c, 9, 42, 95
6, 78720, Note_off_c, 9, 42, 95
6, 78720, Note_on_c, 9, 42, 95
6, 78720, Note_on_c, 9, 35, 95
6, 78720, Note_on_c, 9, 35, 95
6, 79200, Note_off_c, 9, 42, 95
6, 79200, Note_off_c, 9, 35, 95
6, 79200, Note_off_c, 9, 35, 95
6, 79200, Note_on_c, 9, 42, 95
6, 79680, Note_off_c, 9, 42, 95
6, 79680, Note_on_c, 9, 42, 95
6, 79680, Note_on_c, 9, 40, 95
6, 79680, Note_on_c, 9, 40, 95
6, 80160, Note_off_c, 9, 42, 95
6, 80160, Note_off_c, 9, 40, 95
6, 80160, Note_off_c, 9, 40, 95
6, 80160, Note_on_c, 9, 46, 95
6, 80160, Note_on_c, 9, 55, 95
6, 80640, Note_off_c, 9, 46, 95
6, 80640, Note_off_c, 9, 55, 95
6, 80640, Note_on_c, 9, 42, 95
6, 80640, Note_on_c, 9, 35, 95
6, 80640, Note_on_c, 9, 35, 95
6, 81120, Note_off_c, 9, 42, 95
6, 81120, Note_off_c, 9, 35, 95
6, 81120, Note_off_c, 9, 35, 95
6, 81120, Note_on_c, 9, 42, 95
6, 81600, Note_off_c, 9, 42, 95
6, 81600, Note_on_c, 9, 42, 95
6, 81600, Note_on_c, 9, 40, 95
6, 81600, Note_on_c, 9, 40, 95
6, 82080, Note_off_c, 9, 42, 95
6, 82080, Note_off_c, 9, 40, 95
6, 82080, Note_off_c, 9, 40, 95
6, 82080, Note_on_c, 9, 42, 95
6, 82320, Note_off_c, 9, 42, 95
6, 82320, Note_on_c, 9, 42, 95
6, 82560, Note_off_c, 9, 42, 95
6, 82560, Note_on_c, 9, 42, 95
6, 82560, Note_on_c, 9, 35, 95
6, 82560, Note_on_c, 9, 35, 95
6, 83040, Note_off_c, 9, 42, 95
6, 83040, Note_off_c, 9, 35, 95
6, 83040, Note_off_c, 9, 35, 95
6, 83040, Note_on_c, 9, 42, 95
6, 83520, Note_off_c, 9, 42, 95
6, 83520, Note_on_c, 9, 42, 95
6, 83520, Note_on_c, 9, 40, 95
6, 83520, Note_on_c, 9, 40, 95
6, 84000, Note_off_c, 9, 42, 95
6, 84000, Note_off_c, 9, 40, 95
6, 84000, Note_off_c, 9, 40, 95
6, 84000, Note_on_c, 9, 46, 95
6, 84000, Note_on_c, 9, 55, 95
6, 84480, Note_off_c, 9, 46, 95
6, 84480, Note_off_c, 9, 55, 95
6, 84480, Note_on_c, 9, 42, 95
6, 84480, Note_on_c, 9, 35, 95
6, 84480, Note_on_c, 9, 35, 95
6, 84960, Note_off_c, 9, 42, 95
6, 84960, Note_off_c, 9, 35, 95
6, 84960, Note_off_c, 9, 35, 95
6, 84960, Note_on_c, 9, 42, 95
6, 85440, Note_off_c, 9, 42, 95
6, 85440, Note_on_c, 9, 42, 95
6, 85440, Note_on_c, 9, 40, 95
6, 85440, Note_on_c, 9, 40, 95
6, 85920, Note_off_c, 9, 42, 95
6, 85920, Note_off_c, 9, 40, 95
6, 85920, Note_off_c, 9, 40, 95
6, 85920, Note_on_c, 9, 42, 95
6, 86160, Note_off_c, 9, 42, 95
6, 86160, Note_on_c, 9, 42, 95
6, 86400, Note_off_c, 9, 42, 95
6, 86400, Note_on_c, 9, 42, 95
6, 86400, Note_on_c, 9, 35, 95
6, 86400, Note_on_c, 9, 35, 95
6, 86880, Note_off_c, 9, 42, 95
6, 86880, Note_off_c, 9, 35, 95
6, 86880, Note_off_c, 9, 35, 95
6, 86880, Note_on_c, 9, 42, 95
6, 87360, Note_off_c, 9, 42, 95
6, 87360, Note_on_c, 9, 42, 95
6, 87360, Note_on_c, 9, 40, 95
6, 87360, Note_on_c, 9, 40, 95
6, 87840, Note_off_c, 9, 42, 95
6, 87840, Note_off_c, 9, 40, 95
6, 87840, Note_off_c, 9, 40, 95
6, 87840, Note_on_c, 9, 46, 95
6, 87840, Note_on_c, 9, 55, 95
6, 88320, Note_off_c, 9, 46, 95
6, 88320, Note_off_c, 9, 55, 95
6, 88320, Note_on_c, 9, 42, 95
6, 88320, Note_on_c, 9, 35, 95
6, 88320, Note_on_c, 9, 35, 95
6, 88800, Note_off_c, 9, 42, 95
6, 88800, Note_off_c, 9, 35, 95
6, 88800, Note_off_c, 9, 35, 95
6, 88800, Note_on_c, 9, 42, 95
6, 89280, Note_off_c, 9, 42, 95
6, 89280, Note_on_c, 9, 42, 95
6, 89280, Note_on_c, 9, 40, 95
6, 89280, Note_on_c, 9, 40, 95
6, 89760, Note_off_c, 9, 42, 95
6, 89760, Note_off_c, 9, 40, 95
6, 89760, Note_off_c, 9, 40, 95
6, 89760, Note_on_c, 9, 42, 95
6, 90000, Note_off_c, 9, 42, 95
6, 90000, Note_on_c, 9, 42, 95
6, 90240, Note_off_c, 9, 42, 95
6, 90240, Note_on_c, 9, 42, 95
6, 90240, Note_on_c, 9, 35, 95
6, 90240, Note_on_c, 9, 35, 95
6, 90720, Note_off_c, 9, 42, 95
6, 90720, Note_off_c, 9, 35, 95
6, 90720, Note_off_c, 9, 35, 95
6, 90720, Note_on_c, 9, 42, 95
6, 91200, Note_off_c, 9, 42, 95
6, 91200, Note_on_c, 9, 42, 95
6, 91200, Note_on_c, 9, 40, 95
6, 91200, Note_on_c, 9, 40, 95
6, 91680, Note_off_c, 9, 42, 95
6, 91680, Note_off_c, 9, 40, 95
6, 91680, Note_off_c, 9, 40, 95
6, 91680, Note_on_c, 9, 46, 95
6, 91680, Note_on_c, 9, 55, 95
6, 92160, Note_off_c, 9, 46, 95
6, 92160, Note_off_c, 9, 55, 95
6, 92160, Note_on_c, 9, 42, 95
6, 92160, Note_on_c, 9, 35, 95
6, 92160, Note_on_c, 9, 35, 95
6, 92640, Note_off_c, 9, 42, 95
6, 92640, Note_off_c, 9, 35, 95
6, 92640, Note_off_c, 9, 35, 95
6, 92640, Note_on_c, 9, 42, 95
6, 93120, Note_off_c, 9, 42, 95
6, 93120, Note_on_c, 9, 42, 95
6, 93120, Note_on_c, 9, 40, 95
6, 93120, Note_on_c, 9, 40, 95
6, 93600, Note_off_c, 9, 42, 95
6, 93600, Note_off_c, 9, 40, 95
6, 93600, Note_off_c, 9, 40, 95
6, 93600, Note_on_c, 9, 42, 95
6, 93840, Note_off_c, 9, 42, 95
6, 93840, Note_on_c, 9, 42, 95
6, 94080, Note_off_c, 9, 42, 95
6, 94080, Note_on_c, 9, 42, 95
6, 94080, Note_on_c, 9, 35, 95
6, 94080, Note_on_c, 9, 35, 95
6, 94560, Note_off_c, 9, 42, 95
6, 94560, Note_off_c, 9, 35, 95
6, 94560, Note_off_c, 9, 35, 95
6, 94560, Note_on_c, 9, 42, 95
6, 95040, Note_off_c, 9, 42, 95
6, 95040, Note_on_c, 9, 42, 95
6, 95040, Note_on_c, 9, 40, 95
6, 95040, Note_on_c, 9, 40, 95
6, 95520, Note_off_c, 9, 42, 95
6, 95520, Note_off_c, 9, 40, 95
6, 95520, Note_off_c, 9, 40, 95
6, 95520, Note_on_c, 9, 46, 95
6, 95520, Note_on_c, 9, 55, 95
6, 96000, Note_off_c, 9, 46, 95
6, 96000, Note_off_c, 9, 55, 95
6, 96000, Note_on_c, 9, 42, 95
6, 96000, Note_on_c, 9, 35, 95
6, 96000, Note_on_c, 9, 35, 95
6, 96480, Note_off_c, 9, 42, 95
6, 96480, Note_off_c, 9, 35, 95
6, 96480, Note_off_c, 9, 35, 95
6, 96480, Note_on_c, 9, 42, 95
6, 96960, Note_off_c, 9, 42, 95
6, 96960, Note_on_c, 9, 42, 95
6, 96960, Note_on_c, 9, 40, 95
6, 96960, Note_on_c, 9, 40, 95
6, 97440, Note_off_c, 9, 42, 95
6, 97440, Note_off_c, 9, 40, 95
6, 97440, Note_off_c, 9, 40, 95
6, 97440, Note_on_c, 9, 42, 95
6, 97680, Note_off_c, 9, 42, 95
6, 97680, Note_on_c, 9, 42, 95
6, 97920, Note_off_c, 9, 42, 95
6, 97920, Note_on_c, 9, 42, 95
6, 97920, Note_on_c, 9, 35, 95
6, 97920, Note_on_c, 9, 35, 95
6, 98400, Note_off_c, 9, 42, 95
6, 98400, Note_off_c, 9, 35, 95
6, 98400, Note_off_c, 9, 35, 95
6, 98400, Note_on_c, 9, 42, 95
6, 98880, Note_off_c, 9, 42, 95
6, 98880, Note_on_c, 9, 42, 95
6, 98880, Note_on_c, 9, 40, 95
6, 98880, Note_on_c, 9, 40, 95
6, 99360, Note_off_c, 9, 42, 95
6, 99360, Note_off_c, 9, 40, 95
6, 99360, Note_off_c, 9, 40, 95
6, 99360, Note_on_c, 9, 46, 95
6, 99360, Note_on_c, 9, 55, 95
6, 99840, Note_off_c, 9, 46, 95
6, 99840, Note_off_c, 9, 55, 95
6, 99840, Note_on_c, 9, 42, 95
6, 99840, Note_on_c, 9, 35, 95
6, 99840, Note_on_c, 9, 35, 95
6, 100320, Note_off_c, 9, 42, 95
6, 100320, Note_off_c, 9, 35, 95
6, 100320, Note_off_c, 9, 35, 95
6, 100320, Note_on_c, 9, 42, 95
6, 100800, Note_off_c, 9, 42, 95
6, 100800, Note_on_c, 9, 42, 95
6, 100800, Note_on_c, 9, 40, 95
6, 100800, Note_on_c, 9, 40, 95
6, 101280, Note_off_c, 9, 42, 95
6, 101280, Note_off_c, 9, 40, 95
6, 101280, Note_off_c, 9, 40, 95
6, 101280, Note_on_c, 9, 42, 95
6, 101520, Note_off_c, 9, 42, 95
6, 101520, Note_on_c, 9, 42, 95
6, 101760, Note_off_c, 9, 42, 95
6, 101760, Note_on_c, 9, 42, 95
6, 101760, Note_on_c, 9, 35, 95
6, 101760, Note_on_c, 9, 35, 95
6, 102240, Note_off_c, 9, 42, 95
6, 102240, Note_off_c, 9, 35, 95
6, 102240, Note_off_c, 9, 35, 95
6, 102240, Note_on_c, 9, 42, 95
6, 102720, Note_off_c, 9, 42, 95
6, 102720, Note_on_c, 9, 42, 95
6, 102720, Note_on_c, 9, 40, 95
6, 102720, Note_on_c, 9, 40, 95
6, 103200, Note_off_c, 9, 42, 95
6, 103200, Note_off_c, 9, 40, 95
6, 103200, Note_off_c, 9, 40, 95
6, 103200, Note_on_c, 9, 46, 95
6, 103200, Note_on_c, 9, 55, 95
6, 103680, Note_off_c, 9, 46, 95
6, 103680, Note_off_c, 9, 55, 95
6, 103680, Note_on_c, 9, 57, 95
6, 103680, Note_on_c, 9, 35, 95
6, 103680, Note_on_c, 9, 35, 95
6, 104160, Note_off_c, 9, 57, 95
6, 104160, Note_off_c, 9, 35, 95
6, 104160, Note_off_c, 9, 35, 95
6, 104160, Note_on_c, 9, 42, 95
6, 104640, Note_off_c, 9, 42, 95
6, 104640, Note_on_c, 9, 42, 95
6, 104640, Note_on_c, 9, 40, 95
6, 104640, Note_on_c, 9, 40, 95
6, 105120, Note_off_c, 9, 42, 95
6, 105120, Note_off_c, 9, 40, 95
6, 105120, Note_off_c, 9, 40, 95
6, 105120, Note_on_c, 9, 42, 95
6, 105360, Note_off_c, 9, 42, 95
6, 105360, Note_on_c, 9, 42, 95
6, 105600, Note_off_c, 9, 42, 95
6, 105600, Note_on_c, 9, 42, 95
6, 105600, Note_on_c, 9, 35, 95
6, 105600, Note_on_c, 9, 35, 95
6, 106080, Note_off_c, 9, 42, 95
6, 106080, Note_off_c, 9, 35, 95
6, 106080, Note_off_c, 9, 35, 95
6, 106080, Note_on_c, 9, 42, 95
6, 106560, Note_off_c, 9, 42, 95
6, 106560, Note_on_c, 9, 42, 95
6, 106560, Note_on_c, 9, 40, 95
6, 106560, Note_on_c, 9, 40, 95
6, 107040, Note_off_c, 9, 42, 95
6, 107040, Note_off_c, 9, 40, 95
6, 107040, Note_off_c, 9, 40, 95
6, 107040, Note_on_c, 9, 46, 95
6, 107520, Note_off_c, 9, 46, 95
6, 107520, Note_on_c, 9, 57, 95
6, 107520, Note_on_c, 9, 35, 95
6, 107520, Note_on_c, 9, 35, 95
6, 108000, Note_off_c, 9, 57, 95
6, 108000, Note_off_c, 9, 35, 95
6, 108000, Note_off_c, 9, 35, 95
6, 108000, Note_on_c, 9, 42, 95
6, 108480, Note_off_c, 9, 42, 95
6, 108480, Note_on_c, 9, 42, 95
6, 108480, Note_on_c, 9, 40, 95
6, 108480, Note_on_c, 9, 40, 95
6, 108960, Note_off_c, 9, 42, 95
6, 108960, Note_off_c, 9, 40, 95
6, 108960, Note_off_c, 9, 40, 95
6, 108960, Note_on_c, 9, 42, 95
6, 109200, Note_off_c, 9, 42, 95
6, 109200, Note_on_c, 9, 42, 95
6, 109440, Note_off_c, 9, 42, 95
6, 109440, Note_on_c, 9, 42, 95
6, 109440, Note_on_c, 9, 35, 95
6, 109440, Note_on_c, 9, 35, 95
6, 109920, Note_off_c, 9, 42, 95
6, 109920, Note_off_c, 9, 35, 95
6, 109920, Note_off_c, 9, 35, 95
6, 109920, Note_on_c, 9, 42, 95
6, 110400, Note_off_c, 9, 42, 95
6, 110400, Note_on_c, 9, 42, 95
6, 110400, Note_on_c, 9, 40, 95
6, 110400, Note_on_c, 9, 40, 95
6, 110880, Note_off_c, 9, 42, 95
6, 110880, Note_off_c, 9, 40, 95
6, 110880, Note_off_c, 9, 40, 95
6, 110880, Note_on_c, 9, 46, 95
6, 110880, Note_on_c, 9, 55, 95
6, 111360, Note_off_c, 9, 46, 95
6, 111360, Note_off_c, 9, 55, 95
6, 111360, Note_on_c, 9, 42, 95
6, 111360, Note_on_c, 9, 35, 95
6, 111360, Note_on_c, 9, 35, 95
6, 111840, Note_off_c, 9, 42, 95
6, 111840, Note_off_c, 9, 35, 95
6, 111840, Note_off_c, 9, 35, 95
6, 111840, Note_on_c, 9, 42, 95
6, 112320, Note_off_c, 9, 42, 95
6, 112320, Note_on_c, 9, 42, 95
6, 112320, Note_on_c, 9, 40, 95
6, 112320, Note_on_c, 9, 40, 95
6, 112800, Note_off_c, 9, 42, 95
6, 112800, Note_off_c, 9, 40, 95
6, 112800, Note_off_c, 9, 40, 95
6, 112800, Note_on_c, 9, 42, 95
6, 113040, Note_off_c, 9, 42, 95
6, 113040, Note_on_c, 9, 42, 95
6, 113280, Note_off_c, 9, 42, 95
6, 113280, Note_on_c, 9, 42, 95
6, 113280, Note_on_c, 9, 35, 95
6, 113280, Note_on_c, 9, 35, 95
6, 113760, Note_off_c, 9, 42, 95
6, 113760, Note_off_c, 9, 35, 95
6, 113760, Note_off_c, 9, 35, 95
6, 113760, Note_on_c, 9, 42, 95
6, 114240, Note_off_c, 9, 42, 95
6, 114240, Note_on_c, 9, 42, 95
6, 114240, Note_on_c, 9, 40, 95
6, 114240, Note_on_c, 9, 40, 95
6, 114720, Note_off_c, 9, 42, 95
6, 114720, Note_off_c, 9, 40, 95
6, 114720, Note_off_c, 9, 40, 95
6, 114720, Note_on_c, 9, 46, 95
6, 114720, Note_on_c, 9, 55, 95
6, 115200, Note_off_c, 9, 46, 95
6, 115200, Note_off_c, 9, 55, 95
6, 115200, Note_on_c, 9, 42, 95
6, 115200, Note_on_c, 9, 35, 95
6, 115200, Note_on_c, 9, 35, 95
6, 115680, Note_off_c, 9, 42, 95
6, 115680, Note_off_c, 9, 35, 95
6, 115680, Note_off_c, 9, 35, 95
6, 115680, Note_on_c, 9, 42, 95
6, 116160, Note_off_c, 9, 42, 95
6, 116160, Note_on_c, 9, 42, 95
6, 116160, Note_on_c, 9, 40, 95
6, 116160, Note_on_c, 9, 40, 95
6, 116640, Note_off_c, 9, 42, 95
6, 116640, Note_off_c, 9, 40, 95
6, 116640, Note_off_c, 9, 40, 95
6, 116640, Note_on_c, 9, 42, 95
6, 116880, Note_off_c, 9, 42, 95
6, 116880, Note_on_c, 9, 42, 95
6, 117120, Note_off_c, 9, 42, 95
6, 117120, Note_on_c, 9, 42, 95
6, 117120, Note_on_c, 9, 35, 95
6, 117120, Note_on_c, 9, 35, 95
6, 117600, Note_off_c, 9, 42, 95
6, 117600, Note_off_c, 9, 35, 95
6, 117600, Note_off_c, 9, 35, 95
6, 117600, Note_on_c, 9, 42, 95
6, 118080, Note_off_c, 9, 42, 95
6, 118080, Note_on_c, 9, 42, 95
6, 118080, Note_on_c, 9, 40, 95
6, 118080, Note_on_c, 9, 40, 95
6, 118560, Note_off_c, 9, 42, 95
6, 118560, Note_off_c, 9, 40, 95
6, 118560, Note_off_c, 9, 40, 95
6, 118560, Note_on_c, 9, 46, 95
6, 118560, Note_on_c, 9, 55, 95
6, 119040, Note_off_c, 9, 46, 95
6, 119040, Note_off_c, 9, 55, 95
6, 119040, Note_on_c, 9, 57, 95
6, 119040, Note_on_c, 9, 35, 95
6, 119040, Note_on_c, 9, 35, 95
6, 119520, Note_off_c, 9, 57, 95
6, 119520, Note_off_c, 9, 35, 95
6, 119520, Note_off_c, 9, 35, 95
6, 119520, Note_on_c, 9, 42, 95
6, 120000, Note_off_c, 9, 42, 95
6, 120000, Note_on_c, 9, 42, 95
6, 120000, Note_on_c, 9, 40, 95
6, 120000, Note_on_c, 9, 40, 95
6, 120480, Note_off_c, 9, 42, 95
6, 120480, Note_off_c, 9, 40, 95
6, 120480, Note_off_c, 9, 40, 95
6, 120480, Note_on_c, 9, 42, 95
6, 120720, Note_off_c, 9, 42, 95
6, 120720, Note_on_c, 9, 42, 95
6, 120960, Note_off_c, 9, 42, 95
6, 120960, Note_on_c, 9, 42, 95
6, 120960, Note_on_c, 9, 35, 95
6, 120960, Note_on_c, 9, 35, 95
6, 121440, Note_off_c, 9, 42, 95
6, 121440, Note_off_c, 9, 35, 95
6, 121440, Note_off_c, 9, 35, 95
6, 121440, Note_on_c, 9, 42, 95
6, 121920, Note_off_c, 9, 42, 95
6, 121920, Note_on_c, 9, 42, 95
6, 121920, Note_on_c, 9, 40, 95
6, 121920, Note_on_c, 9, 40, 95
6, 122400, Note_off_c, 9, 42, 95
6, 122400, Note_off_c, 9, 40, 95
6, 122400, Note_off_c, 9, 40, 95
6, 122400, Note_on_c, 9, 42, 95
6, 122880, Note_off_c, 9, 42, 95
6, 122880, Note_on_c, 9, 57, 95
6, 122880, Note_on_c, 9, 35, 95
6, 122880, Note_on_c, 9, 35, 95
6, 123360, Note_off_c, 9, 57, 95
6, 123360, Note_off_c, 9, 35, 95
6, 123360, Note_off_c, 9, 35, 95
6, 123360, Note_on_c, 9, 42, 95
6, 123840, Note_off_c, 9, 42, 95
6, 123840, Note_on_c, 9, 42, 95
6, 123840, Note_on_c, 9, 40, 95
6, 123840, Note_on_c, 9, 40, 95
6, 124320, Note_off_c, 9, 42, 95
6, 124320, Note_off_c, 9, 40, 95
6, 124320, Note_off_c, 9, 40, 95
6, 124320, Note_on_c, 9, 42, 95
6, 124560, Note_off_c, 9, 42, 95
6, 124560, Note_on_c, 9, 42, 95
6, 124800, Note_off_c, 9, 42, 95
6, 124800, Note_on_c, 9, 42, 95
6, 124800, Note_on_c, 9, 35, 95
6, 124800, Note_on_c, 9, 35, 95
6, 125280, Note_off_c, 9, 42, 95
6, 125280, Note_off_c, 9, 35, 95
6, 125280, Note_off_c, 9, 35, 95
6, 125280, Note_on_c, 9, 42, 95
6, 125760, Note_off_c, 9, 42, 95
6, 125760, Note_on_c, 9, 42, 95
6, 125760, Note_on_c, 9, 40, 95
6, 125760, Note_on_c, 9, 40, 95
6, 126240, Note_off_c, 9, 42, 95
6, 126240, Note_off_c, 9, 40, 95
6, 126240, Note_off_c, 9, 40, 95
6, 126240, Note_on_c, 9, 42, 95
6, 126720, Note_off_c, 9, 42, 95
6, 126720, Note_on_c, 9, 57, 95
6, 126720, Note_on_c, 9, 35, 95
6, 126720, Note_on_c, 9, 35, 95
6, 127200, Note_off_c, 9, 57, 95
6, 127200, Note_off_c, 9, 35, 95
6, 127200, Note_off_c, 9, 35, 95
6, 127200, Note_on_c, 9, 42, 95
6, 127680, Note_off_c, 9, 42, 95
6, 127680, Note_on_c, 9, 42, 95
6, 127680, Note_on_c, 9, 40, 95
6, 127680, Note_on_c, 9, 40, 95
6, 128160, Note_off_c, 9, 42, 95
6, 128160, Note_off_c, 9, 40, 95
6, 128160, Note_off_c, 9, 40, 95
6, 128160, Note_on_c, 9, 42, 95
6, 128400, Note_off_c, 9, 42, 95
6, 128400, Note_on_c, 9, 42, 95
6, 128640, Note_off_c, 9, 42, 95
6, 128640, Note_on_c, 9, 42, 95
6, 128640, Note_on_c, 9, 35, 95
6, 128640, Note_on_c, 9, 35, 95
6, 129120, Note_off_c, 9, 42, 95
6, 129120, Note_off_c, 9, 35, 95
6, 129120, Note_off_c, 9, 35, 95
6, 129120, Note_on_c, 9, 42, 95
6, 129600, Note_off_c, 9, 42, 95
6, 129600, Note_on_c, 9, 42, 95
6, 129600, Note_on_c, 9, 40, 95
6, 129600, Note_on_c, 9, 40, 95
6, 130080, Note_off_c, 9, 42, 95
6, 130080, Note_off_c, 9, 40, 95
6, 130080, Note_off_c, 9, 40, 95
6, 130080, Note_on_c, 9, 49, 95
6, 132480, Note_off_c, 9, 49, 95
6, 132960, Note_on_c, 9, 35, 95
6, 132960, Note_on_c, 9, 35, 95
6, 133440, Note_off_c, 9, 35, 95
6, 133440, Note_off_c, 9, 35, 95
6, 133440, Note_on_c, 9, 40, 95
6, 133440, Note_on_c, 9, 40, 95
6, 134400, Note_off_c, 9, 40, 95
6, 134400, Note_off_c, 9, 40, 95
6, 134400, Note_on_c, 9, 42, 95
6, 134400, Note_on_c, 9, 35, 95
6, 134400, Note_on_c, 9, 35, 95
6, 134880, Note_off_c, 9, 42, 95
6, 134880, Note_off_c, 9, 35, 95
6, 134880, Note_off_c, 9, 35, 95
6, 134880, Note_on_c, 9, 42, 95
6, 135360, Note_off_c, 9, 42, 95
6, 135360, Note_on_c, 9, 42, 95
6, 135360, Note_on_c, 9, 40, 95
6, 135360, Note_on_c, 9, 40, 95
6, 135840, Note_off_c, 9, 42, 95
6, 135840, Note_off_c, 9, 40, 95
6, 135840, Note_off_c, 9, 40, 95
6, 135840, Note_on_c, 9, 42, 95
6, 136080, Note_off_c, 9, 42, 95
6, 136080, Note_on_c, 9, 42, 95
6, 136320, Note_off_c, 9, 42, 95
6, 136320, Note_on_c, 9, 42, 95
6, 136320, Note_on_c, 9, 35, 95
6, 136320, Note_on_c, 9, 35, 95
6, 136800, Note_off_c, 9, 42, 95
6, 136800, Note_off_c, 9, 35, 95
6, 136800, Note_off_c, 9, 35, 95
6, 136800, Note_on_c, 9, 42, 95
6, 137280, Note_off_c, 9, 42, 95
6, 137280, Note_on_c, 9, 42, 95
6, 137280, Note_on_c, 9, 40, 95
6, 137280, Note_on_c, 9, 40, 95
6, 137760, Note_off_c, 9, 42, 95
6, 137760, Note_off_c, 9, 40, 95
6, 137760, Note_off_c, 9, 40, 95
6, 137760, Note_on_c, 9, 46, 95
6, 137760, Note_on_c, 9, 55, 95
6, 138240, Note_off_c, 9, 46, 95
6, 138240, Note_off_c, 9, 55, 95
6, 138240, Note_on_c, 9, 42, 95
6, 138240, Note_on_c, 9, 35, 95
6, 138240, Note_on_c, 9, 35, 95
6, 138720, Note_off_c, 9, 42, 95
6, 138720, Note_off_c, 9, 35, 95
6, 138720, Note_off_c, 9, 35, 95
6, 138720, Note_on_c, 9, 42, 95
6, 139200, Note_off_c, 9, 42, 95
6, 139200, Note_on_c, 9, 42, 95
6, 139200, Note_on_c, 9, 40, 95
6, 139200, Note_on_c, 9, 40, 95
6, 139680, Note_off_c, 9, 42, 95
6, 139680, Note_off_c, 9, 40, 95
6, 139680, Note_off_c, 9, 40, 95
6, 139680, Note_on_c, 9, 42, 95
6, 139920, Note_off_c, 9, 42, 95
6, 139920, Note_on_c, 9, 42, 95
6, 140160, Note_off_c, 9, 42, 95
6, 140160, Note_on_c, 9, 42, 95
6, 140160, Note_on_c, 9, 35, 95
6, 140160, Note_on_c, 9, 35, 95
6, 140640, Note_off_c, 9, 42, 95
6, 140640, Note_off_c, 9, 35, 95
6, 140640, Note_off_c, 9, 35, 95
6, 140640, Note_on_c, 9, 42, 95
6, 141120, Note_off_c, 9, 42, 95
6, 141120, Note_on_c, 9, 42, 95
6, 141120, Note_on_c, 9, 40, 95
6, 141120, Note_on_c, 9, 40, 95
6, 141600, Note_off_c, 9, 42, 95
6, 141600, Note_off_c, 9, 40, 95
6, 141600, Note_off_c, 9, 40, 95
6, 141600, Note_on_c, 9, 46, 95
6, 141600, Note_on_c, 9, 55, 95
6, 142080, Note_off_c, 9, 46, 95
6, 142080, Note_off_c, 9, 55, 95
6, 142080, Note_on_c, 9, 42, 95
6, 142080, Note_on_c, 9, 35, 95
6, 142080, Note_on_c, 9, 35, 95
6, 142560, Note_off_c, 9, 42, 95
6, 142560, Note_off_c, 9, 35, 95
6, 142560, Note_off_c, 9, 35, 95
6, 142560, Note_on_c, 9, 42, 95
6, 143040, Note_off_c, 9, 42, 95
6, 143040, Note_on_c, 9, 42, 95
6, 143040, Note_on_c, 9, 40, 95
6, 143040, Note_on_c, 9, 40, 95
6, 143520, Note_off_c, 9, 42, 95
6, 143520, Note_off_c, 9, 40, 95
6, 143520, Note_off_c, 9, 40, 95
6, 143520, Note_on_c, 9, 42, 95
6, 143760, Note_off_c, 9, 42, 95
6, 143760, Note_on_c, 9, 42, 95
6, 144000, Note_off_c, 9, 42, 95
6, 144000, Note_on_c, 9, 42, 95
6, 144000, Note_on_c, 9, 35, 95
6, 144000, Note_on_c, 9, 35, 95
6, 144480, Note_off_c, 9, 42, 95
6, 144480, Note_off_c, 9, 35, 95
6, 144480, Note_off_c, 9, 35, 95
6, 144480, Note_on_c, 9, 42, 95
6, 144960, Note_off_c, 9, 42, 95
6, 144960, Note_on_c, 9, 42, 95
6, 144960, Note_on_c, 9, 40, 95
6, 144960, Note_on_c, 9, 40, 95
6, 145440, Note_off_c, 9, 42, 95
6, 145440, Note_off_c, 9, 40, 95
6, 145440, Note_off_c, 9, 40, 95
6, 145440, Note_on_c, 9, 46, 95
6, 145440, Note_on_c, 9, 55, 95
6, 145920, Note_off_c, 9, 46, 95
6, 145920, Note_off_c, 9, 55, 95
6, 145920, Note_on_c, 9, 42, 95
6, 145920, Note_on_c, 9, 35, 95
6, 145920, Note_on_c, 9, 35, 95
6, 146400, Note_off_c, 9, 42, 95
6, 146400, Note_off_c, 9, 35, 95
6, 146400, Note_off_c, 9, 35, 95
6, 146400, Note_on_c, 9, 42, 95
6, 146880, Note_off_c, 9, 42, 95
6, 146880, Note_on_c, 9, 42, 95
6, 146880, Note_on_c, 9, 40, 95
6, 146880, Note_on_c, 9, 40, 95
6, 147360, Note_off_c, 9, 42, 95
6, 147360, Note_off_c, 9, 40, 95
6, 147360, Note_off_c, 9, 40, 95
6, 147360, Note_on_c, 9, 42, 95
6, 147600, Note_off_c, 9, 42, 95
6, 147600, Note_on_c, 9, 42, 95
6, 147840, Note_off_c, 9, 42, 95
6, 147840, Note_on_c, 9, 42, 95
6, 147840, Note_on_c, 9, 35, 95
6, 147840, Note_on_c, 9, 35, 95
6, 148320, Note_off_c, 9, 42, 95
6, 148320, Note_off_c, 9, 35, 95
6, 148320, Note_off_c, 9, 35, 95
6, 148320, Note_on_c, 9, 42, 95
6, 148800, Note_off_c, 9, 42, 95
6, 148800, Note_on_c, 9, 42, 95
6, 148800, Note_on_c, 9, 40, 95
6, 148800, Note_on_c, 9, 40, 95
6, 149280, Note_off_c, 9, 42, 95
6, 149280, Note_off_c, 9, 40, 95
6, 149280, Note_off_c, 9, 40, 95
6, 149280, Note_on_c, 9, 46, 95
6, 149280, Note_on_c, 9, 55, 95
6, 149760, Note_off_c, 9, 46, 95
6, 149760, Note_off_c, 9, 55, 95
6, 149760, Note_on_c, 9, 57, 95
6, 149760, Note_on_c, 9, 35, 95
6, 149760, Note_on_c, 9, 35, 95
6, 150240, Note_off_c, 9, 57, 95
6, 150240, Note_off_c, 9, 35, 95
6, 150240, Note_off_c, 9, 35, 95
6, 150240, Note_on_c, 9, 42, 95
6, 150720, Note_off_c, 9, 42, 95
6, 150720, Note_on_c, 9, 42, 95
6, 150720, Note_on_c, 9, 40, 95
6, 150720, Note_on_c, 9, 40, 95
6, 151200, Note_off_c, 9, 42, 95
6, 151200, Note_off_c, 9, 40, 95
6, 151200, Note_off_c, 9, 40, 95
6, 151200, Note_on_c, 9, 42, 95
6, 151680, Note_off_c, 9, 42, 95
6, 151680, Note_on_c, 9, 57, 95
6, 151680, Note_on_c, 9, 35, 95
6, 151680, Note_on_c, 9, 35, 95
6, 152160, Note_off_c, 9, 57, 95
6, 152160, Note_off_c, 9, 35, 95
6, 152160, Note_off_c, 9, 35, 95
6, 152160, Note_on_c, 9, 42, 95
6, 152640, Note_off_c, 9, 42, 95
6, 152640, Note_on_c, 9, 42, 95
6, 152640, Note_on_c, 9, 40, 95
6, 152640, Note_on_c, 9, 40, 95
6, 153120, Note_off_c, 9, 42, 95
6, 153120, Note_off_c, 9, 40, 95
6, 153120, Note_off_c, 9, 40, 95
6, 153120, Note_on_c, 9, 46, 79
6, 153600, Note_off_c, 9, 46, 79
6, 153600, Note_on_c, 9, 57, 95
6, 153600, Note_on_c, 9, 35, 95
6, 153600, Note_on_c, 9, 35, 95
6, 154080, Note_off_c, 9, 57, 95
6, 154080, Note_off_c, 9, 35, 95
6, 154080, Note_off_c, 9, 35, 95
6, 154080, Note_on_c, 9, 42, 95
6, 154560, Note_off_c, 9, 42, 95
6, 154560, Note_on_c, 9, 42, 95
6, 154560, Note_on_c, 9, 40, 95
6, 154560, Note_on_c, 9, 40, 95
6, 155040, Note_off_c, 9, 42, 95
6, 155040, Note_off_c, 9, 40, 95
6, 155040, Note_off_c, 9, 40, 95
6, 155040, Note_on_c, 9, 46, 95
6, 155520, Note_off_c, 9, 46, 95
6, 155520, Note_on_c, 9, 42, 95
6, 155520, Note_on_c, 9, 35, 95
6, 155520, Note_on_c, 9, 35, 95
6, 156000, Note_off_c, 9, 42, 95
6, 156000, Note_off_c, 9, 35, 95
6, 156000, Note_off_c, 9, 35, 95
6, 156000, Note_on_c, 9, 46, 95
6, 156480, Note_off_c, 9, 46, 95
6, 156480, Note_on_c, 9, 42, 95
6, 156480, Note_on_c, 9, 40, 95
6, 156480, Note_on_c, 9, 40, 95
6, 156960, Note_off_c, 9, 42, 95
6, 156960, Note_off_c, 9, 40, 95
6, 156960, Note_off_c, 9, 40, 95
6, 156960, Note_on_c, 9, 46, 95
6, 157440, Note_off_c, 9, 46, 95
6, 157440, Note_on_c, 9, 42, 95
6, 157440, Note_on_c, 9, 35, 95
6, 157440, Note_on_c, 9, 35, 95
6, 157920, Note_off_c, 9, 42, 95
6, 157920, Note_off_c, 9, 35, 95
6, 157920, Note_off_c, 9, 35, 95
6, 157920, Note_on_c, 9, 42, 95
6, 158400, Note_off_c, 9, 42, 95
6, 158400, Note_on_c, 9, 42, 95
6, 158400, Note_on_c, 9, 40, 95
6, 158400, Note_on_c, 9, 40, 95
6, 158880, Note_off_c, 9, 42, 95
6, 158880, Note_off_c, 9, 40, 95
6, 158880, Note_off_c, 9, 40, 95
6, 158880, Note_on_c, 9, 42, 95
6, 159120, Note_off_c, 9, 42, 95
6, 159120, Note_on_c, 9, 42, 95
6, 159360, Note_off_c, 9, 42, 95
6, 159360, Note_on_c, 9, 42, 95
6, 159360, Note_on_c, 9, 35, 95
6, 159360, Note_on_c, 9, 35, 95
6, 159840, Note_off_c, 9, 42, 95
6, 159840, Note_off_c, 9, 35, 95
6, 159840, Note_off_c, 9, 35, 95
6, 159840, Note_on_c, 9, 42, 95
6, 160320, Note_off_c, 9, 42, 95
6, 160320, Note_on_c, 9, 42, 95
6, 160320, Note_on_c, 9, 40, 95
6, 160320, Note_on_c, 9, 40, 95
6, 160800, Note_off_c, 9, 42, 95
6, 160800, Note_off_c, 9, 40, 95
6, 160800, Note_off_c, 9, 40, 95
6, 160800, Note_on_c, 9, 46, 95
6, 160800, Note_on_c, 9, 55, 95
6, 161280, Note_off_c, 9, 46, 95
6, 161280, Note_off_c, 9, 55, 95
6, 161280, Note_on_c, 9, 42, 95
6, 161280, Note_on_c, 9, 35, 95
6, 161280, Note_on_c, 9, 35, 95
6, 161760, Note_off_c, 9, 42, 95
6, 161760, Note_off_c, 9, 35, 95
6, 161760, Note_off_c, 9, 35, 95
6, 161760, Note_on_c, 9, 42, 95
6, 162240, Note_off_c, 9, 42, 95
6, 162240, Note_on_c, 9, 42, 95
6, 162240, Note_on_c, 9, 40, 95
6, 162240, Note_on_c, 9, 40, 95
6, 162720, Note_off_c, 9, 42, 95
6, 162720, Note_off_c, 9, 40, 95
6, 162720, Note_off_c, 9, 40, 95
6, 162720, Note_on_c, 9, 42, 95
6, 162960, Note_off_c, 9, 42, 95
6, 162960, Note_on_c, 9, 42, 95
6, 163200, Note_off_c, 9, 42, 95
6, 163200, Note_on_c, 9, 42, 95
6, 163200, Note_on_c, 9, 35, 95
6, 163200, Note_on_c, 9, 35, 95
6, 163680, Note_off_c, 9, 42, 95
6, 163680, Note_off_c, 9, 35, 95
6, 163680, Note_off_c, 9, 35, 95
6, 163680, Note_on_c, 9, 42, 95
6, 164160, Note_off_c, 9, 42, 95
6, 164160, Note_on_c, 9, 42, 95
6, 164160, Note_on_c, 9, 40, 95
6, 164160, Note_on_c, 9, 40, 95
6, 164640, Note_off_c, 9, 42, 95
6, 164640, Note_off_c, 9, 40, 95
6, 164640, Note_off_c, 9, 40, 95
6, 164640, Note_on_c, 9, 46, 95
6, 164640, Note_on_c, 9, 55, 95
6, 165120, Note_off_c, 9, 46, 95
6, 165120, Note_off_c, 9, 55, 95
6, 165120, Note_on_c, 9, 57, 95
6, 165120, Note_on_c, 9, 35, 95
6, 165120, Note_on_c, 9, 35, 95
6, 165600, Note_off_c, 9, 57, 95
6, 165600, Note_off_c, 9, 35, 95
6, 165600, Note_off_c, 9, 35, 95
6, 165600, Note_on_c, 9, 42, 95
6, 166080, Note_off_c, 9, 42, 95
6, 166080, Note_on_c, 9, 42, 95
6, 166080, Note_on_c, 9, 40, 95
6, 166080, Note_on_c, 9, 40, 95
6, 166560, Note_off_c, 9, 42, 95
6, 166560, Note_off_c, 9, 40, 95
6, 166560, Note_off_c, 9, 40, 95
6, 166560, Note_on_c, 9, 42, 95
6, 167040, Note_off_c, 9, 42, 95
6, 167040, Note_on_c, 9, 57, 95
6, 167040, Note_on_c, 9, 35, 95
6, 167040, Note_on_c, 9, 35, 95
6, 167520, Note_off_c, 9, 57, 95
6, 167520, Note_off_c, 9, 35, 95
6, 167520, Note_off_c, 9, 35, 95
6, 167520, Note_on_c, 9, 42, 95
6, 168000, Note_off_c, 9, 42, 95
6, 168000, Note_on_c, 9, 42, 95
6, 168000, Note_on_c, 9, 40, 95
6, 168000, Note_on_c, 9, 40, 95
6, 168480, Note_off_c, 9, 42, 95
6, 168480, Note_off_c, 9, 40, 95
6, 168480, Note_off_c, 9, 40, 95
6, 168480, Note_on_c, 9, 46, 79
6, 168960, Note_off_c, 9, 46, 79
6, 168960, Note_on_c, 9, 57, 95
6, 168960, Note_on_c, 9, 35, 95
6, 168960, Note_on_c, 9, 35, 95
6, 169440, Note_off_c, 9, 57, 95
6, 169440, Note_off_c, 9, 35, 95
6, 169440, Note_off_c, 9, 35, 95
6, 169440, Note_on_c, 9, 42, 95
6, 169920, Note_off_c, 9, 42, 95
6, 169920, Note_on_c, 9, 42, 95
6, 169920, Note_on_c, 9, 40, 95
6, 169920, Note_on_c, 9, 40, 95
6, 170400, Note_off_c, 9, 42, 95
6, 170400, Note_off_c, 9, 40, 95
6, 170400, Note_off_c, 9, 40, 95
6, 170400, Note_on_c, 9, 46, 95
6, 170880, Note_off_c, 9, 46, 95
6, 170880, Note_on_c, 9, 42, 95
6, 170880, Note_on_c, 9, 35, 95
6, 170880, Note_on_c, 9, 35, 95
6, 171360, Note_off_c, 9, 42, 95
6, 171360, Note_off_c, 9, 35, 95
6, 171360, Note_off_c, 9, 35, 95
6, 171360, Note_on_c, 9, 46, 95
6, 171840, Note_off_c, 9, 46, 95
6, 171840, Note_on_c, 9, 42, 95
6, 171840, Note_on_c, 9, 40, 95
6, 171840, Note_on_c, 9, 40, 95
6, 172320, Note_off_c, 9, 42, 95
6, 172320, Note_off_c, 9, 40, 95
6, 172320, Note_off_c, 9, 40, 95
6, 172320, Note_on_c, 9, 46, 95
6, 172800, Note_off_c, 9, 46, 95
6, 172800, Note_on_c, 9, 42, 95
6, 172800, Note_on_c, 9, 35, 95
6, 172800, Note_on_c, 9, 35, 95
6, 173280, Note_off_c, 9, 42, 95
6, 173280, Note_off_c, 9, 35, 95
6, 173280, Note_off_c, 9, 35, 95
6, 173280, Note_on_c, 9, 42, 95
6, 173760, Note_off_c, 9, 42, 95
6, 173760, Note_on_c, 9, 42, 95
6, 173760, Note_on_c, 9, 40, 95
6, 173760, Note_on_c, 9, 40, 95
6, 174240, Note_off_c, 9, 42, 95
6, 174240, Note_off_c, 9, 40, 95
6, 174240, Note_off_c, 9, 40, 95
6, 174240, Note_on_c, 9, 42, 95
6, 174480, Note_off_c, 9, 42, 95
6, 174480, Note_on_c, 9, 42, 95
6, 174720, Note_off_c, 9, 42, 95
6, 174720, Note_on_c, 9, 42, 95
6, 174720, Note_on_c, 9, 35, 95
6, 174720, Note_on_c, 9, 35, 95
6, 175200, Note_off_c, 9, 42, 95
6, 175200, Note_off_c, 9, 35, 95
6, 175200, Note_off_c, 9, 35, 95
6, 175200, Note_on_c, 9, 42, 95
6, 175680, Note_off_c, 9, 42, 95
6, 175680, Note_on_c, 9, 42, 95
6, 175680, Note_on_c, 9, 40, 95
6, 175680, Note_on_c, 9, 40, 95
6, 176160, Note_off_c, 9, 42, 95
6, 176160, Note_off_c, 9, 40, 95
6, 176160, Note_off_c, 9, 40, 95
6, 176160, Note_on_c, 9, 46, 95
6, 176160, Note_on_c, 9, 55, 95
6, 176640, Note_off_c, 9, 46, 95
6, 176640, Note_off_c, 9, 55, 95
6, 176640, Note_on_c, 9, 42, 95
6, 176640, Note_on_c, 9, 35, 95
6, 176640, Note_on_c, 9, 35, 95
6, 177120, Note_off_c, 9, 42, 95
6, 177120, Note_off_c, 9, 35, 95
6, 177120, Note_off_c, 9, 35, 95
6, 177120, Note_on_c, 9, 42, 95
6, 177600, Note_off_c, 9, 42, 95
6, 177600, Note_on_c, 9, 42, 95
6, 177600, Note_on_c, 9, 40, 95
6, 177600, Note_on_c, 9, 40, 95
6, 178080, Note_off_c, 9, 42, 95
6, 178080, Note_off_c, 9, 40, 95
6, 178080, Note_off_c, 9, 40, 95
6, 178080, Note_on_c, 9, 42, 95
6, 178320, Note_off_c, 9, 42, 95
6, 178320, Note_on_c, 9, 42, 95
6, 178560, Note_off_c, 9, 42, 95
6, 178560, Note_on_c, 9, 42, 95
6, 178560, Note_on_c, 9, 35, 95
6, 178560, Note_on_c, 9, 35, 95
6, 179040, Note_off_c, 9, 42, 95
6, 179040, Note_off_c, 9, 35, 95
6, 179040, Note_off_c, 9, 35, 95
6, 179040, Note_on_c, 9, 42, 95
6, 179520, Note_off_c, 9, 42, 95
6, 179520, Note_on_c, 9, 42, 95
6, 179520, Note_on_c, 9, 40, 95
6, 179520, Note_on_c, 9, 40, 95
6, 180000, Note_off_c, 9, 42, 95
6, 180000, Note_off_c, 9, 40, 95
6, 180000, Note_off_c, 9, 40, 95
6, 180000, Note_on_c, 9, 46, 95
6, 180000, Note_on_c, 9, 55, 95
6, 180480, Note_off_c, 9, 46, 95
6, 180480, Note_off_c, 9, 55, 95
6, 180480, Note_on_c, 9, 42, 95
6, 180480, Note_on_c, 9, 35, 95
6, 180480, Note_on_c, 9, 35, 95
6, 180960, Note_off_c, 9, 42, 95
6, 180960, Note_off_c, 9, 35, 95
6, 180960, Note_off_c, 9, 35, 95
6, 180960, Note_on_c, 9, 42, 95
6, 181440, Note_off_c, 9, 42, 95
6, 181440, Note_on_c, 9, 42, 95
6, 181440, Note_on_c, 9, 40, 95
6, 181440, Note_on_c, 9, 40, 95
6, 181920, Note_off_c, 9, 42, 95
6, 181920, Note_off_c, 9, 40, 95
6, 181920, Note_off_c, 9, 40, 95
6, 181920, Note_on_c, 9, 42, 95
6, 182160, Note_off_c, 9, 42, 95
6, 182160, Note_on_c, 9, 42, 95
6, 182400, Note_off_c, 9, 42, 95
6, 182400, Note_on_c, 9, 42, 95
6, 182400, Note_on_c, 9, 35, 95
6, 182400, Note_on_c, 9, 35, 95
6, 182880, Note_off_c, 9, 42, 95
6, 182880, Note_off_c, 9, 35, 95
6, 182880, Note_off_c, 9, 35, 95
6, 182880, Note_on_c, 9, 42, 95
6, 183360, Note_off_c, 9, 42, 95
6, 183360, Note_on_c, 9, 42, 95
6, 183360, Note_on_c, 9, 40, 95
6, 183360, Note_on_c, 9, 40, 95
6, 183840, Note_off_c, 9, 42, 95
6, 183840, Note_off_c, 9, 40, 95
6, 183840, Note_off_c, 9, 40, 95
6, 183840, Note_on_c, 9, 46, 95
6, 183840, Note_on_c, 9, 55, 95
6, 184320, Note_off_c, 9, 46, 95
6, 184320, Note_off_c, 9, 55, 95
6, 184320, Note_on_c, 9, 42, 95
6, 184320, Note_on_c, 9, 35, 95
6, 184320, Note_on_c, 9, 35, 95
6, 184800, Note_off_c, 9, 42, 95
6, 184800, Note_off_c, 9, 35, 95
6, 184800, Note_off_c, 9, 35, 95
6, 184800, Note_on_c, 9, 42, 95
6, 185280, Note_off_c, 9, 42, 95
6, 185280, Note_on_c, 9, 42, 95
6, 185280, Note_on_c, 9, 40, 95
6, 185280, Note_on_c, 9, 40, 95
6, 185760, Note_off_c, 9, 42, 95
6, 185760, Note_off_c, 9, 40, 95
6, 185760, Note_off_c, 9, 40, 95
6, 185760, Note_on_c, 9, 42, 95
6, 186000, Note_off_c, 9, 42, 95
6, 186000, Note_on_c, 9, 42, 95
6, 186240, Note_off_c, 9, 42, 95
6, 186240, Note_on_c, 9, 42, 95
6, 186240, Note_on_c, 9, 35, 95
6, 186240, Note_on_c, 9, 35, 95
6, 186720, Note_off_c, 9, 42, 95
6, 186720, Note_off_c, 9, 35, 95
6, 186720, Note_off_c, 9, 35, 95
6, 186720, Note_on_c, 9, 42, 95
6, 187200, Note_off_c, 9, 42, 95
6, 187200, Note_on_c, 9, 42, 95
6, 187200, Note_on_c, 9, 40, 95
6, 187200, Note_on_c, 9, 40, 95
6, 187680, Note_off_c, 9, 42, 95
6, 187680, Note_off_c, 9, 40, 95
6, 187680, Note_off_c, 9, 40, 95
6, 187680, Note_on_c, 9, 46, 95
6, 187680, Note_on_c, 9, 55, 95
6, 188160, Note_off_c, 9, 46, 95
6, 188160, Note_off_c, 9, 55, 95
6, 188160, Note_on_c, 9, 42, 95
6, 188160, Note_on_c, 9, 35, 95
6, 188160, Note_on_c, 9, 35, 95
6, 188640, Note_off_c, 9, 42, 95
6, 188640, Note_off_c, 9, 35, 95
6, 188640, Note_off_c, 9, 35, 95
6, 188640, Note_on_c, 9, 42, 95
6, 189120, Note_off_c, 9, 42, 95
6, 189120, Note_on_c, 9, 42, 95
6, 189120, Note_on_c, 9, 40, 95
6, 189120, Note_on_c, 9, 40, 95
6, 189600, Note_off_c, 9, 42, 95
6, 189600, Note_off_c, 9, 40, 95
6, 189600, Note_off_c, 9, 40, 95
6, 189600, Note_on_c, 9, 42, 95
6, 189840, Note_off_c, 9, 42, 95
6, 189840, Note_on_c, 9, 42, 95
6, 190080, Note_off_c, 9, 42, 95
6, 190080, Note_on_c, 9, 42, 95
6, 190080, Note_on_c, 9, 35, 95
6, 190080, Note_on_c, 9, 35, 95
6, 190560, Note_off_c, 9, 42, 95
6, 190560, Note_off_c, 9, 35, 95
6, 190560, Note_off_c, 9, 35, 95
6, 190560, Note_on_c, 9, 42, 95
6, 191040, Note_off_c, 9, 42, 95
6, 191040, Note_on_c, 9, 42, 95
6, 191040, Note_on_c, 9, 40, 95
6, 191040, Note_on_c, 9, 40, 95
6, 191520, Note_off_c, 9, 42, 95
6, 191520, Note_off_c, 9, 40, 95
6, 191520, Note_off_c, 9, 40, 95
6, 191520, Note_on_c, 9, 46, 95
6, 191520, Note_on_c, 9, 55, 95
6, 192000, Note_off_c, 9, 46, 95
6, 192000, Note_off_c, 9, 55, 95
6, 192000, Note_on_c, 9, 42, 95
6, 192000, Note_on_c, 9, 35, 95
6, 192000, Note_on_c, 9, 35, 95
6, 192480, Note_off_c, 9, 42, 95
6, 192480, Note_off_c, 9, 35, 95
6, 192480, Note_off_c, 9, 35, 95
6, 192480, Note_on_c, 9, 42, 95
6, 192960, Note_off_c, 9, 42, 95
6, 192960, Note_on_c, 9, 42, 95
6, 192960, Note_on_c, 9, 40, 95
6, 192960, Note_on_c, 9, 40, 95
6, 193440, Note_off_c, 9, 42, 95
6, 193440, Note_off_c, 9, 40, 95
6, 193440, Note_off_c, 9, 40, 95
6, 193440, Note_on_c, 9, 42, 95
6, 193680, Note_off_c, 9, 42, 95
6, 193680, Note_on_c, 9, 42, 95
6, 193920, Note_off_c, 9, 42, 95
6, 193920, Note_on_c, 9, 42, 95
6, 193920, Note_on_c, 9, 35, 95
6, 193920, Note_on_c, 9, 35, 95
6, 194400, Note_off_c, 9, 42, 95
6, 194400, Note_off_c, 9, 35, 95
6, 194400, Note_off_c, 9, 35, 95
6, 194400, Note_on_c, 9, 42, 95
6, 194880, Note_off_c, 9, 42, 95
6, 194880, Note_on_c, 9, 42, 95
6, 194880, Note_on_c, 9, 40, 95
6, 194880, Note_on_c, 9, 40, 95
6, 195360, Note_off_c, 9, 42, 95
6, 195360, Note_off_c, 9, 40, 95
6, 195360, Note_off_c, 9, 40, 95
6, 195360, Note_on_c, 9, 46, 95
6, 195360, Note_on_c, 9, 55, 95
6, 195840, Note_off_c, 9, 46, 95
6, 195840, Note_off_c, 9, 55, 95
6, 195840, Note_on_c, 9, 42, 95
6, 195840, Note_on_c, 9, 35, 95
6, 195840, Note_on_c, 9, 35, 95
6, 196320, Note_off_c, 9, 42, 95
6, 196320, Note_off_c, 9, 35, 95
6, 196320, Note_off_c, 9, 35, 95
6, 196320, Note_on_c, 9, 42, 95
6, 196800, Note_off_c, 9, 42, 95
6, 196800, Note_on_c, 9, 42, 95
6, 196800, Note_on_c, 9, 40, 95
6, 196800, Note_on_c, 9, 40, 95
6, 197280, Note_off_c, 9, 42, 95
6, 197280, Note_off_c, 9, 40, 95
6, 197280, Note_off_c, 9, 40, 95
6, 197280, Note_on_c, 9, 42, 95
6, 197520, Note_off_c, 9, 42, 95
6, 197520, Note_on_c, 9, 42, 95
6, 197760, Note_off_c, 9, 42, 95
6, 197760, Note_on_c, 9, 42, 95
6, 197760, Note_on_c, 9, 35, 95
6, 197760, Note_on_c, 9, 35, 95
6, 198240, Note_off_c, 9, 42, 95
6, 198240, Note_off_c, 9, 35, 95
6, 198240, Note_off_c, 9, 35, 95
6, 198240, Note_on_c, 9, 42, 95
6, 198720, Note_off_c, 9, 42, 95
6, 198720, Note_on_c, 9, 42, 95
6, 198720, Note_on_c, 9, 40, 95
6, 198720, Note_on_c, 9, 40, 95
6, 199200, Note_off_c, 9, 42, 95
6, 199200, Note_off_c, 9, 40, 95
6, 199200, Note_off_c, 9, 40, 95
6, 199200, Note_on_c, 9, 46, 95
6, 199200, Note_on_c, 9, 55, 95
6, 199680, Note_off_c, 9, 46, 95
6, 199680, Note_off_c, 9, 55, 95
6, 199680, Note_on_c, 9, 42, 95
6, 199680, Note_on_c, 9, 35, 95
6, 199680, Note_on_c, 9, 35, 95
6, 200160, Note_off_c, 9, 42, 95
6, 200160, Note_off_c, 9, 35, 95
6, 200160, Note_off_c, 9, 35, 95
6, 200160, Note_on_c, 9, 42, 95
6, 200640, Note_off_c, 9, 42, 95
6, 200640, Note_on_c, 9, 42, 95
6, 200640, Note_on_c, 9, 40, 95
6, 200640, Note_on_c, 9, 40, 95
6, 201120, Note_off_c, 9, 42, 95
6, 201120, Note_off_c, 9, 40, 95
6, 201120, Note_off_c, 9, 40, 95
6, 201120, Note_on_c, 9, 42, 95
6, 201360, Note_off_c, 9, 42, 95
6, 201360, Note_on_c, 9, 42, 95
6, 201600, Note_off_c, 9, 42, 95
6, 201600, Note_on_c, 9, 42, 95
6, 201600, Note_on_c, 9, 35, 95
6, 201600, Note_on_c, 9, 35, 95
6, 202080, Note_off_c, 9, 42, 95
6, 202080, Note_off_c, 9, 35, 95
6, 202080, Note_off_c, 9, 35, 95
6, 202080, Note_on_c, 9, 42, 95
6, 202560, Note_off_c, 9, 42, 95
6, 202560, Note_on_c, 9, 42, 95
6, 202560, Note_on_c, 9, 40, 95
6, 202560, Note_on_c, 9, 40, 95
6, 203040, Note_off_c, 9, 42, 95
6, 203040, Note_off_c, 9, 40, 95
6, 203040, Note_off_c, 9, 40, 95
6, 203040, Note_on_c, 9, 46, 95
6, 203040, Note_on_c, 9, 55, 95
6, 203520, Note_off_c, 9, 46, 95
6, 203520, Note_off_c, 9, 55, 95
6, 203520, Note_on_c, 9, 57, 95
6, 203520, Note_on_c, 9, 35, 95
6, 203520, Note_on_c, 9, 35, 95
6, 204000, Note_off_c, 9, 57, 95
6, 204000, Note_off_c, 9, 35, 95
6, 204000, Note_off_c, 9, 35, 95
6, 204000, Note_on_c, 9, 42, 95
6, 204480, Note_off_c, 9, 42, 95
6, 204480, Note_on_c, 9, 42, 95
6, 204480, Note_on_c, 9, 40, 95
6, 204480, Note_on_c, 9, 40, 95
6, 204960, Note_off_c, 9, 42, 95
6, 204960, Note_off_c, 9, 40, 95
6, 204960, Note_off_c, 9, 40, 95
6, 204960, Note_on_c, 9, 42, 95
6, 205200, Note_off_c, 9, 42, 95
6, 205200, Note_on_c, 9, 42, 95
6, 205440, Note_off_c, 9, 42, 95
6, 205440, Note_on_c, 9, 42, 95
6, 205440, Note_on_c, 9, 35, 95
6, 205440, Note_on_c, 9, 35, 95
6, 205920, Note_off_c, 9, 42, 95
6, 205920, Note_off_c, 9, 35, 95
6, 205920, Note_off_c, 9, 35, 95
6, 205920, Note_on_c, 9, 42, 95
6, 206400, Note_off_c, 9, 42, 95
6, 206400, Note_on_c, 9, 42, 95
6, 206400, Note_on_c, 9, 40, 95
6, 206400, Note_on_c, 9, 40, 95
6, 206880, Note_off_c, 9, 42, 95
6, 206880, Note_off_c, 9, 40, 95
6, 206880, Note_off_c, 9, 40, 95
6, 206880, Note_on_c, 9, 46, 95
6, 207360, Note_off_c, 9, 46, 95
6, 207360, Note_on_c, 9, 57, 95
6, 207360, Note_on_c, 9, 35, 95
6, 207360, Note_on_c, 9, 35, 95
6, 207840, Note_off_c, 9, 57, 95
6, 207840, Note_off_c, 9, 35, 95
6, 207840, Note_off_c, 9, 35, 95
6, 207840, Note_on_c, 9, 42, 95
6, 208320, Note_off_c, 9, 42, 95
6, 208320, Note_on_c, 9, 42, 95
6, 208320, Note_on_c, 9, 40, 95
6, 208320, Note_on_c, 9, 40, 95
6, 208800, Note_off_c, 9, 42, 95
6, 208800, Note_off_c, 9, 40, 95
6, 208800, Note_off_c, 9, 40, 95
6, 208800, Note_on_c, 9, 42, 95
6, 209040, Note_off_c, 9, 42, 95
6, 209040, Note_on_c, 9, 42, 95
6, 209280, Note_off_c, 9, 42, 95
6, 209280, Note_on_c, 9, 42, 95
6, 209280, Note_on_c, 9, 35, 95
6, 209280, Note_on_c, 9, 35, 95
6, 209760, Note_off_c, 9, 42, 95
6, 209760, Note_off_c, 9, 35, 95
6, 209760, Note_off_c, 9, 35, 95
6, 209760, Note_on_c, 9, 42, 95
6, 210240, Note_off_c, 9, 42, 95
6, 210240, Note_on_c, 9, 42, 95
6, 210240, Note_on_c, 9, 40, 95
6, 210240, Note_on_c, 9, 40, 95
6, 210720, Note_off_c, 9, 42, 95
6, 210720, Note_off_c, 9, 40, 95
6, 210720, Note_off_c, 9, 40, 95
6, 210720, Note_on_c, 9, 46, 95
6, 210720, Note_on_c, 9, 55, 95
6, 211200, Note_off_c, 9, 46, 95
6, 211200, Note_off_c, 9, 55, 95
6, 211200, Note_on_c, 9, 42, 95
6, 211200, Note_on_c, 9, 35, 95
6, 211200, Note_on_c, 9, 35, 95
6, 211680, Note_off_c, 9, 42, 95
6, 211680, Note_off_c, 9, 35, 95
6, 211680, Note_off_c, 9, 35, 95
6, 211680, Note_on_c, 9, 42, 95
6, 212160, Note_off_c, 9, 42, 95
6, 212160, Note_on_c, 9, 42, 95
6, 212160, Note_on_c, 9, 40, 95
6, 212160, Note_on_c, 9, 40, 95
6, 212640, Note_off_c, 9, 42, 95
6, 212640, Note_off_c, 9, 40, 95
6, 212640, Note_off_c, 9, 40, 95
6, 212640, Note_on_c, 9, 42, 95
6, 212880, Note_off_c, 9, 42, 95
6, 212880, Note_on_c, 9, 42, 95
6, 213120, Note_off_c, 9, 42, 95
6, 213120, Note_on_c, 9, 42, 95
6, 213120, Note_on_c, 9, 35, 95
6, 213120, Note_on_c, 9, 35, 95
6, 213600, Note_off_c, 9, 42, 95
6, 213600, Note_off_c, 9, 35, 95
6, 213600, Note_off_c, 9, 35, 95
6, 213600, Note_on_c, 9, 42, 95
6, 214080, Note_off_c, 9, 42, 95
6, 214080, Note_on_c, 9, 42, 95
6, 214080, Note_on_c, 9, 40, 95
6, 214080, Note_on_c, 9, 40, 95
6, 214560, Note_off_c, 9, 42, 95
6, 214560, Note_off_c, 9, 40, 95
6, 214560, Note_off_c, 9, 40, 95
6, 214560, Note_on_c, 9, 46, 95
6, 214560, Note_on_c, 9, 55, 95
6, 215040, Note_off_c, 9, 46, 95
6, 215040, Note_off_c, 9, 55, 95
6, 215040, Note_on_c, 9, 42, 95
6, 215040, Note_on_c, 9, 35, 95
6, 215040, Note_on_c, 9, 35, 95
6, 215520, Note_off_c, 9, 42, 95
6, 215520, Note_off_c, 9, 35, 95
6, 215520, Note_off_c, 9, 35, 95
6, 215520, Note_on_c, 9, 42, 95
6, 216000, Note_off_c, 9, 42, 95
6, 216000, Note_on_c, 9, 42, 95
6, 216000, Note_on_c, 9, 40, 95
6, 216000, Note_on_c, 9, 40, 95
6, 216480, Note_off_c, 9, 42, 95
6, 216480, Note_off_c, 9, 40, 95
6, 216480, Note_off_c, 9, 40, 95
6, 216480, Note_on_c, 9, 42, 95
6, 216720, Note_off_c, 9, 42, 95
6, 216720, Note_on_c, 9, 42, 95
6, 216960, Note_off_c, 9, 42, 95
6, 216960, Note_on_c, 9, 42, 95
6, 216960, Note_on_c, 9, 35, 95
6, 216960, Note_on_c, 9, 35, 95
6, 217440, Note_off_c, 9, 42, 95
6, 217440, Note_off_c, 9, 35, 95
6, 217440, Note_off_c, 9, 35, 95
6, 217440, Note_on_c, 9, 42, 95
6, 217920, Note_off_c, 9, 42, 95
6, 217920, Note_on_c, 9, 42, 95
6, 217920, Note_on_c, 9, 40, 95
6, 217920, Note_on_c, 9, 40, 95
6, 218400, Note_off_c, 9, 42, 95
6, 218400, Note_off_c, 9, 40, 95
6, 218400, Note_off_c, 9, 40, 95
6, 218400, Note_on_c, 9, 46, 95
6, 218400, Note_on_c, 9, 55, 95
6, 218880, Note_off_c, 9, 46, 95
6, 218880, Note_off_c, 9, 55, 95
6, 218880, Note_on_c, 9, 57, 95
6, 218880, Note_on_c, 9, 35, 95
6, 218880, Note_on_c, 9, 35, 95
6, 219360, Note_off_c, 9, 57, 95
6, 219360, Note_off_c, 9, 35, 95
6, 219360, Note_off_c, 9, 35, 95
6, 219360, Note_on_c, 9, 42, 95
6, 219840, Note_off_c, 9, 42, 95
6, 219840, Note_on_c, 9, 42, 95
6, 219840, Note_on_c, 9, 40, 95
6, 219840, Note_on_c, 9, 40, 95
6, 220320, Note_off_c, 9, 42, 95
6, 220320, Note_off_c, 9, 40, 95
6, 220320, Note_off_c, 9, 40, 95
6, 220320, Note_on_c, 9, 42, 95
6, 220560, Note_off_c, 9, 42, 95
6, 220560, Note_on_c, 9, 42, 95
6, 220800, Note_off_c, 9, 42, 95
6, 220800, Note_on_c, 9, 42, 95
6, 220800, Note_on_c, 9, 35, 95
6, 220800, Note_on_c, 9, 35, 95
6, 221280, Note_off_c, 9, 42, 95
6, 221280, Note_off_c, 9, 35, 95
6, 221280, Note_off_c, 9, 35, 95
6, 221280, Note_on_c, 9, 42, 95
6, 221760, Note_off_c, 9, 42, 95
6, 221760, Note_on_c, 9, 42, 95
6, 221760, Note_on_c, 9, 40, 95
6, 221760, Note_on_c, 9, 40, 95
6, 222240, Note_off_c, 9, 42, 95
6, 222240, Note_off_c, 9, 40, 95
6, 222240, Note_off_c, 9, 40, 95
6, 222240, Note_on_c, 9, 42, 95
6, 222720, Note_off_c, 9, 42, 95
6, 222720, Note_on_c, 9, 57, 95
6, 222720, Note_on_c, 9, 35, 95
6, 222720, Note_on_c, 9, 35, 95
6, 223200, Note_off_c, 9, 57, 95
6, 223200, Note_off_c, 9, 35, 95
6, 223200, Note_off_c, 9, 35, 95
6, 223200, Note_on_c, 9, 42, 95
6, 223680, Note_off_c, 9, 42, 95
6, 223680, Note_on_c, 9, 42, 95
6, 223680, Note_on_c, 9, 40, 95
6, 223680, Note_on_c, 9, 40, 95
6, 224160, Note_off_c, 9, 42, 95
6, 224160, Note_off_c, 9, 40, 95
6, 224160, Note_off_c, 9, 40, 95
6, 224160, Note_on_c, 9, 42, 95
6, 224400, Note_off_c, 9, 42, 95
6, 224400, Note_on_c, 9, 42, 95
6, 224640, Note_off_c, 9, 42, 95
6, 224640, Note_on_c, 9, 42, 95
6, 224640, Note_on_c, 9, 35, 95
6, 224640, Note_on_c, 9, 35, 95
6, 225120, Note_off_c, 9, 42, 95
6, 225120, Note_off_c, 9, 35, 95
6, 225120, Note_off_c, 9, 35, 95
6, 225120, Note_on_c, 9, 42, 95
6, 225600, Note_off_c, 9, 42, 95
6, 225600, Note_on_c, 9, 42, 95
6, 225600, Note_on_c, 9, 40, 95
6, 225600, Note_on_c, 9, 40, 95
6, 226080, Note_off_c, 9, 42, 95
6, 226080, Note_off_c, 9, 40, 95
6, 226080, Note_off_c, 9, 40, 95
6, 226080, Note_on_c, 9, 42, 95
6, 226560, Note_off_c, 9, 42, 95
6, 226560, Note_on_c, 9, 57, 95
6, 226560, Note_on_c, 9, 35, 95
6, 226560, Note_on_c, 9, 35, 95
6, 227040, Note_off_c, 9, 57, 95
6, 227040, Note_off_c, 9, 35, 95
6, 227040, Note_off_c, 9, 35, 95
6, 227040, Note_on_c, 9, 42, 95
6, 227520, Note_off_c, 9, 42, 95
6, 227520, Note_on_c, 9, 42, 95
6, 227520, Note_on_c, 9, 40, 95
6, 227520, Note_on_c, 9, 40, 95
6, 228000, Note_off_c, 9, 42, 95
6, 228000, Note_off_c, 9, 40, 95
6, 228000, Note_off_c, 9, 40, 95
6, 228000, Note_on_c, 9, 42, 95
6, 228240, Note_off_c, 9, 42, 95
6, 228240, Note_on_c, 9, 42, 95
6, 228480, Note_off_c, 9, 42, 95
6, 228480, Note_on_c, 9, 42, 95
6, 228480, Note_on_c, 9, 35, 95
6, 228480, Note_on_c, 9, 35, 95
6, 228960, Note_off_c, 9, 42, 95
6, 228960, Note_off_c, 9, 35, 95
6, 228960, Note_off_c, 9, 35, 95
6, 228960, Note_on_c, 9, 42, 95
6, 229440, Note_off_c, 9, 42, 95
6, 229440, Note_on_c, 9, 42, 95
6, 229440, Note_on_c, 9, 40, 95
6, 229440, Note_on_c, 9, 40, 95
6, 229920, Note_off_c, 9, 42, 95
6, 229920, Note_off_c, 9, 40, 95
6, 229920, Note_off_c, 9, 40, 95
6, 229920, Note_on_c, 9, 49, 95
6, 232320, Note_off_c, 9, 49, 95
6, 232800, Note_on_c, 9, 35, 95
6, 232800, Note_on_c, 9, 35, 95
6, 233280, Note_off_c, 9, 35, 95
6, 233280, Note_off_c, 9, 35, 95
6, 233280, Note_on_c, 9, 40, 95
6, 233280, Note_on_c, 9, 40, 95
6, 234240, Note_off_c, 9, 40, 95
6, 234240, Note_off_c, 9, 40, 95
6, 234240, Note_on_c, 9, 42, 95
6, 234240, Note_on_c, 9, 35, 95
6, 234240, Note_on_c, 9, 35, 95
6, 234720, Note_off_c, 9, 42, 95
6, 234720, Note_off_c, 9, 35, 95
6, 234720, Note_off_c, 9, 35, 95
6, 234720, Note_on_c, 9, 42, 95
6, 235200, Note_off_c, 9, 42, 95
6, 235200, Note_on_c, 9, 42, 95
6, 235200, Note_on_c, 9, 40, 95
6, 235200, Note_on_c, 9, 40, 95
6, 235680, Note_off_c, 9, 42, 95
6, 235680, Note_off_c, 9, 40, 95
6, 235680, Note_off_c, 9, 40, 95
6, 235680, Note_on_c, 9, 42, 95
6, 235920, Note_off_c, 9, 42, 95
6, 235920, Note_on_c, 9, 42, 95
6, 236160, Note_off_c, 9, 42, 95
6, 236160, Note_on_c, 9, 42, 95
6, 236160, Note_on_c, 9, 35, 95
6, 236160, Note_on_c, 9, 35, 95
6, 236640, Note_off_c, 9, 42, 95
6, 236640, Note_off_c, 9, 35, 95
6, 236640, Note_off_c, 9, 35, 95
6, 236640, Note_on_c, 9, 42, 95
6, 237120, Note_off_c, 9, 42, 95
6, 237120, Note_on_c, 9, 42, 95
6, 237120, Note_on_c, 9, 40, 95
6, 237120, Note_on_c, 9, 40, 95
6, 237600, Note_off_c, 9, 42, 95
6, 237600, Note_off_c, 9, 40, 95
6, 237600, Note_off_c, 9, 40, 95
6, 237600, Note_on_c, 9, 46, 95
6, 237600, Note_on_c, 9, 55, 95
6, 238080, Note_off_c, 9, 46, 95
6, 238080, Note_off_c, 9, 55, 95
6, 238080, Note_on_c, 9, 42, 95
6, 238080, Note_on_c, 9, 35, 95
6, 238080, Note_on_c, 9, 35, 95
6, 238560, Note_off_c, 9, 42, 95
6, 238560, Note_off_c, 9, 35, 95
6, 238560, Note_off_c, 9, 35, 95
6, 238560, Note_on_c, 9, 42, 95
6, 239040, Note_off_c, 9, 42, 95
6, 239040, Note_on_c, 9, 42, 95
6, 239040, Note_on_c, 9, 40, 95
6, 239040, Note_on_c, 9, 40, 95
6, 239520, Note_off_c, 9, 42, 95
6, 239520, Note_off_c, 9, 40, 95
6, 239520, Note_off_c, 9, 40, 95
6, 239520, Note_on_c, 9, 42, 95
6, 239760, Note_off_c, 9, 42, 95
6, 239760, Note_on_c, 9, 42, 95
6, 240000, Note_off_c, 9, 42, 95
6, 240000, Note_on_c, 9, 42, 95
6, 240000, Note_on_c, 9, 35, 95
6, 240000, Note_on_c, 9, 35, 95
6, 240480, Note_off_c, 9, 42, 95
6, 240480, Note_off_c, 9, 35, 95
6, 240480, Note_off_c, 9, 35, 95
6, 240480, Note_on_c, 9, 42, 95
6, 240960, Note_off_c, 9, 42, 95
6, 240960, Note_on_c, 9, 42, 95
6, 240960, Note_on_c, 9, 40, 95
6, 240960, Note_on_c, 9, 40, 95
6, 241440, Note_off_c, 9, 42, 95
6, 241440, Note_off_c, 9, 40, 95
6, 241440, Note_off_c, 9, 40, 95
6, 241440, Note_on_c, 9, 46, 95
6, 241440, Note_on_c, 9, 55, 95
6, 241920, Note_off_c, 9, 46, 95
6, 241920, Note_off_c, 9, 55, 95
6, 241920, Note_on_c, 9, 42, 95
6, 241920, Note_on_c, 9, 35, 95
6, 241920, Note_on_c, 9, 35, 95
6, 242400, Note_off_c, 9, 42, 95
6, 242400, Note_off_c, 9, 35, 95
6, 242400, Note_off_c, 9, 35, 95
6, 242400, Note_on_c, 9, 42, 95
6, 242880, Note_off_c, 9, 42, 95
6, 242880, Note_on_c, 9, 42, 95
6, 242880, Note_on_c, 9, 40, 95
6, 242880, Note_on_c, 9, 40, 95
6, 243360, Note_off_c, 9, 42, 95
6, 243360, Note_off_c, 9, 40, 95
6, 243360, Note_off_c, 9, 40, 95
6, 243360, Note_on_c, 9, 42, 95
6, 243600, Note_off_c, 9, 42, 95
6, 243600, Note_on_c, 9, 42, 95
6, 243840, Note_off_c, 9, 42, 95
6, 243840, Note_on_c, 9, 42, 95
6, 243840, Note_on_c, 9, 35, 95
6, 243840, Note_on_c, 9, 35, 95
6, 244320, Note_off_c, 9, 42, 95
6, 244320, Note_off_c, 9, 35, 95
6, 244320, Note_off_c, 9, 35, 95
6, 244320, Note_on_c, 9, 42, 95
6, 244800, Note_off_c, 9, 42, 95
6, 244800, Note_on_c, 9, 42, 95
6, 244800, Note_on_c, 9, 40, 95
6, 244800, Note_on_c, 9, 40, 95
6, 245280, Note_off_c, 9, 42, 95
6, 245280, Note_off_c, 9, 40, 95
6, 245280, Note_off_c, 9, 40, 95
6, 245280, Note_on_c, 9, 46, 95
6, 245280, Note_on_c, 9, 55, 95
6, 245760, Note_off_c, 9, 46, 95
6, 245760, Note_off_c, 9, 55, 95
6, 245760, Note_on_c, 9, 42, 95
6, 245760, Note_on_c, 9, 35, 95
6, 245760, Note_on_c, 9, 35, 95
6, 246240, Note_off_c, 9, 42, 95
6, 246240, Note_off_c, 9, 35, 95
6, 246240, Note_off_c, 9, 35, 95
6, 246240, Note_on_c, 9, 42, 95
6, 246720, Note_off_c, 9, 42, 95
6, 246720, Note_on_c, 9, 42, 95
6, 246720, Note_on_c, 9, 40, 95
6, 246720, Note_on_c, 9, 40, 95
6, 247200, Note_off_c, 9, 42, 95
6, 247200, Note_off_c, 9, 40, 95
6, 247200, Note_off_c, 9, 40, 95
6, 247200, Note_on_c, 9, 42, 95
6, 247440, Note_off_c, 9, 42, 95
6, 247440, Note_on_c, 9, 42, 95
6, 247680, Note_off_c, 9, 42, 95
6, 247680, Note_on_c, 9, 42, 95
6, 247680, Note_on_c, 9, 35, 95
6, 247680, Note_on_c, 9, 35, 95
6, 248160, Note_off_c, 9, 42, 95
6, 248160, Note_off_c, 9, 35, 95
6, 248160, Note_off_c, 9, 35, 95
6, 248160, Note_on_c, 9, 42, 95
6, 248640, Note_off_c, 9, 42, 95
6, 248640, Note_on_c, 9, 42, 95
6, 248640, Note_on_c, 9, 40, 95
6, 248640, Note_on_c, 9, 40, 95
6, 249120, Note_off_c, 9, 42, 95
6, 249120, Note_off_c, 9, 40, 95
6, 249120, Note_off_c, 9, 40, 95
6, 249120, Note_on_c, 9, 46, 95
6, 249120, Note_on_c, 9, 55, 95
6, 249600, Note_off_c, 9, 46, 95
6, 249600, Note_off_c, 9, 55, 95
6, 249600, Note_on_c, 9, 42, 95
6, 249600, Note_on_c, 9, 35, 95
6, 249600, Note_on_c, 9, 35, 95
6, 250080, Note_off_c, 9, 42, 95
6, 250080, Note_off_c, 9, 35, 95
6, 250080, Note_off_c, 9, 35, 95
6, 250080, Note_on_c, 9, 42, 95
6, 250560, Note_off_c, 9, 42, 95
6, 250560, Note_on_c, 9, 42, 95
6, 250560, Note_on_c, 9, 40, 95
6, 250560, Note_on_c, 9, 40, 95
6, 251040, Note_off_c, 9, 42, 95
6, 251040, Note_off_c, 9, 40, 95
6, 251040, Note_off_c, 9, 40, 95
6, 251040, Note_on_c, 9, 42, 95
6, 251280, Note_off_c, 9, 42, 95
6, 251280, Note_on_c, 9, 42, 95
6, 251520, Note_off_c, 9, 42, 95
6, 251520, Note_on_c, 9, 42, 95
6, 251520, Note_on_c, 9, 35, 95
6, 251520, Note_on_c, 9, 35, 95
6, 252000, Note_off_c, 9, 42, 95
6, 252000, Note_off_c, 9, 35, 95
6, 252000, Note_off_c, 9, 35, 95
6, 252000, Note_on_c, 9, 42, 95
6, 252480, Note_off_c, 9, 42, 95
6, 252480, Note_on_c, 9, 42, 95
6, 252480, Note_on_c, 9, 40, 95
6, 252480, Note_on_c, 9, 40, 95
6, 252960, Note_off_c, 9, 42, 95
6, 252960, Note_off_c, 9, 40, 95
6, 252960, Note_off_c, 9, 40, 95
6, 252960, Note_on_c, 9, 46, 95
6, 252960, Note_on_c, 9, 55, 95
6, 253440, Note_off_c, 9, 46, 95
6, 253440, Note_off_c, 9, 55, 95
6, 253440, Note_on_c, 9, 42, 95
6, 253440, Note_on_c, 9, 35, 95
6, 253440, Note_on_c, 9, 35, 95
6, 253920, Note_off_c, 9, 42, 95
6, 253920, Note_off_c, 9, 35, 95
6, 253920, Note_off_c, 9, 35, 95
6, 253920, Note_on_c, 9, 42, 95
6, 254400, Note_off_c, 9, 42, 95
6, 254400, Note_on_c, 9, 42, 95
6, 254400, Note_on_c, 9, 40, 95
6, 254400, Note_on_c, 9, 40, 95
6, 254880, Note_off_c, 9, 42, 95
6, 254880, Note_off_c, 9, 40, 95
6, 254880, Note_off_c, 9, 40, 95
6, 254880, Note_on_c, 9, 42, 95
6, 255120, Note_off_c, 9, 42, 95
6, 255120, Note_on_c, 9, 42, 95
6, 255360, Note_off_c, 9, 42, 95
6, 255360, Note_on_c, 9, 42, 95
6, 255360, Note_on_c, 9, 35, 95
6, 255360, Note_on_c, 9, 35, 95
6, 255840, Note_off_c, 9, 42, 95
6, 255840, Note_off_c, 9, 35, 95
6, 255840, Note_off_c, 9, 35, 95
6, 255840, Note_on_c, 9, 42, 95
6, 256320, Note_off_c, 9, 42, 95
6, 256320, Note_on_c, 9, 42, 95
6, 256320, Note_on_c, 9, 40, 95
6, 256320, Note_on_c, 9, 40, 95
6, 256800, Note_off_c, 9, 42, 95
6, 256800, Note_off_c, 9, 40, 95
6, 256800, Note_off_c, 9, 40, 95
6, 256800, Note_on_c, 9, 46, 95
6, 256800, Note_on_c, 9, 55, 95
6, 257280, Note_off_c, 9, 46, 95
6, 257280, Note_off_c, 9, 55, 95
6, 257280, Note_on_c, 9, 42, 95
6, 257280, Note_on_c, 9, 35, 95
6, 257280, Note_on_c, 9, 35, 95
6, 257760, Note_off_c, 9, 42, 95
6, 257760, Note_off_c, 9, 35, 95
6, 257760, Note_off_c, 9, 35, 95
6, 257760, Note_on_c, 9, 42, 95
6, 258240, Note_off_c, 9, 42, 95
6, 258240, Note_on_c, 9, 42, 95
6, 258240, Note_on_c, 9, 40, 95
6, 258240, Note_on_c, 9, 40, 95
6, 258720, Note_off_c, 9, 42, 95
6, 258720, Note_off_c, 9, 40, 95
6, 258720, Note_off_c, 9, 40, 95
6, 258720, Note_on_c, 9, 42, 95
6, 258960, Note_off_c, 9, 42, 95
6, 258960, Note_on_c, 9, 42, 95
6, 259200, Note_off_c, 9, 42, 95
6, 259200, Note_on_c, 9, 42, 95
6, 259200, Note_on_c, 9, 35, 95
6, 259200, Note_on_c, 9, 35, 95
6, 259680, Note_off_c, 9, 42, 95
6, 259680, Note_off_c, 9, 35, 95
6, 259680, Note_off_c, 9, 35, 95
6, 259680, Note_on_c, 9, 42, 95
6, 260160, Note_off_c, 9, 42, 95
6, 260160, Note_on_c, 9, 42, 95
6, 260160, Note_on_c, 9, 40, 95
6, 260160, Note_on_c, 9, 40, 95
6, 260640, Note_off_c, 9, 42, 95
6, 260640, Note_off_c, 9, 40, 95
6, 260640, Note_off_c, 9, 40, 95
6, 260640, Note_on_c, 9, 46, 95
6, 260640, Note_on_c, 9, 55, 95
6, 261120, Note_off_c, 9, 46, 95
6, 261120, Note_off_c, 9, 55, 95
6, 261120, Note_on_c, 9, 42, 95
6, 261120, Note_on_c, 9, 35, 95
6, 261120, Note_on_c, 9, 35, 95
6, 261600, Note_off_c, 9, 42, 95
6, 261600, Note_off_c, 9, 35, 95
6, 261600, Note_off_c, 9, 35, 95
6, 261600, Note_on_c, 9, 42, 95
6, 262080, Note_off_c, 9, 42, 95
6, 262080, Note_on_c, 9, 42, 95
6, 262080, Note_on_c, 9, 40, 95
6, 262080, Note_on_c, 9, 40, 95
6, 262560, Note_off_c, 9, 42, 95
6, 262560, Note_off_c, 9, 40, 95
6, 262560, Note_off_c, 9, 40, 95
6, 262560, Note_on_c, 9, 42, 95
6, 262800, Note_off_c, 9, 42, 95
6, 262800, Note_on_c, 9, 42, 95
6, 263040, Note_off_c, 9, 42, 95
6, 263040, Note_on_c, 9, 42, 95
6, 263040, Note_on_c, 9, 35, 95
6, 263040, Note_on_c, 9, 35, 95
6, 263520, Note_off_c, 9, 42, 95
6, 263520, Note_off_c, 9, 35, 95
6, 263520, Note_off_c, 9, 35, 95
6, 263520, Note_on_c, 9, 42, 95
6, 264000, Note_off_c, 9, 42, 95
6, 264000, Note_on_c, 9, 42, 95
6, 264000, Note_on_c, 9, 40, 95
6, 264000, Note_on_c, 9, 40, 95
6, 264480, Note_off_c, 9, 42, 95
6, 264480, Note_off_c, 9, 40, 95
6, 264480, Note_off_c, 9, 40, 95
6, 264480, Note_on_c, 9, 46, 95
6, 264480, Note_on_c, 9, 55, 95
6, 264960, Note_off_c, 9, 46, 95
6, 264960, Note_off_c, 9, 55, 95
6, 264960, Note_on_c, 9, 57, 95
6, 264960, Note_on_c, 9, 35, 95
6, 264960, Note_on_c, 9, 35, 95
6, 265440, Note_off_c, 9, 57, 95
6, 265440, Note_off_c, 9, 35, 95
6, 265440, Note_off_c, 9, 35, 95
6, 265440, Note_on_c, 9, 42, 95
6, 265920, Note_off_c, 9, 42, 95
6, 265920, Note_on_c, 9, 42, 95
6, 265920, Note_on_c, 9, 40, 95
6, 265920, Note_on_c, 9, 40, 95
6, 266400, Note_off_c, 9, 42, 95
6, 266400, Note_off_c, 9, 40, 95
6, 266400, Note_off_c, 9, 40, 95
6, 266400, Note_on_c, 9, 42, 95
6, 266880, Note_off_c, 9, 42, 95
6, 266880, Note_on_c, 9, 57, 95
6, 266880, Note_on_c, 9, 35, 95
6, 266880, Note_on_c, 9, 35, 95
6, 267360, Note_off_c, 9, 57, 95
6, 267360, Note_off_c, 9, 35, 95
6, 267360, Note_off_c, 9, 35, 95
6, 267360, Note_on_c, 9, 42, 95
6, 267840, Note_off_c, 9, 42, 95
6, 267840, Note_on_c, 9, 42, 95
6, 267840, Note_on_c, 9, 40, 95
6, 267840, Note_on_c, 9, 40, 95
6, 268320, Note_off_c, 9, 42, 95
6, 268320, Note_off_c, 9, 40, 95
6, 268320, Note_off_c, 9, 40, 95
6, 268320, Note_on_c, 9, 46, 79
6, 268800, Note_off_c, 9, 46, 79
6, 268800, Note_on_c, 9, 57, 95
6, 268800, Note_on_c, 9, 35, 95
6, 268800, Note_on_c, 9, 35, 95
6, 269280, Note_off_c, 9, 57, 95
6, 269280, Note_off_c, 9, 35, 95
6, 269280, Note_off_c, 9, 35, 95
6, 269280, Note_on_c, 9, 42, 95
6, 269760, Note_off_c, 9, 42, 95
6, 269760, Note_on_c, 9, 42, 95
6, 269760, Note_on_c, 9, 40, 95
6, 269760, Note_on_c, 9, 40, 95
6, 270240, Note_off_c, 9, 42, 95
6, 270240, Note_off_c, 9, 40, 95
6, 270240, Note_off_c, 9, 40, 95
6, 270240, Note_on_c, 9, 46, 95
6, 270720, Note_off_c, 9, 46, 95
6, 270720, Note_on_c, 9, 42, 95
6, 270720, Note_on_c, 9, 35, 95
6, 270720, Note_on_c, 9, 35, 95
6, 271200, Note_off_c, 9, 42, 95
6, 271200, Note_off_c, 9, 35, 95
6, 271200, Note_off_c, 9, 35, 95
6, 271200, Note_on_c, 9, 46, 95
6, 271680, Note_off_c, 9, 46, 95
6, 271680, Note_on_c, 9, 42, 95
6, 271680, Note_on_c, 9, 40, 95
6, 271680, Note_on_c, 9, 40, 95
6, 272160, Note_off_c, 9, 42, 95
6, 272160, Note_off_c, 9, 40, 95
6, 272160, Note_off_c, 9, 40, 95
6, 272160, Note_on_c, 9, 46, 95
6, 272640, Note_off_c, 9, 46, 95
6, 272640, Note_on_c, 9, 42, 95
6, 272640, Note_on_c, 9, 35, 95
6, 272640, Note_on_c, 9, 35, 95
6, 273120, Note_off_c, 9, 42, 95
6, 273120, Note_off_c, 9, 35, 95
6, 273120, Note_off_c, 9, 35, 95
6, 273120, Note_on_c, 9, 42, 95
6, 273600, Note_off_c, 9, 42, 95
6, 273600, Note_on_c, 9, 42, 95
6, 273600, Note_on_c, 9, 40, 95
6, 273600, Note_on_c, 9, 40, 95
6, 274080, Note_off_c, 9, 42, 95
6, 274080, Note_off_c, 9, 40, 95
6, 274080, Note_off_c, 9, 40, 95
6, 274080, Note_on_c, 9, 42, 95
6, 274320, Note_off_c, 9, 42, 95
6, 274320, Note_on_c, 9, 42, 95
6, 274560, Note_off_c, 9, 42, 95
6, 274560, Note_on_c, 9, 42, 95
6, 274560, Note_on_c, 9, 35, 95
6, 274560, Note_on_c, 9, 35, 95
6, 275040, Note_off_c, 9, 42, 95
6, 275040, Note_off_c, 9, 35, 95
6, 275040, Note_off_c, 9, 35, 95
6, 275040, Note_on_c, 9, 42, 95
6, 275520, Note_off_c, 9, 42, 95
6, 275520, Note_on_c, 9, 42, 95
6, 275520, Note_on_c, 9, 40, 95
6, 275520, Note_on_c, 9, 40, 95
6, 276000, Note_off_c, 9, 42, 95
6, 276000, Note_off_c, 9, 40, 95
6, 276000, Note_off_c, 9, 40, 95
6, 276000, Note_on_c, 9, 46, 95
6, 276000, Note_on_c, 9, 55, 95
6, 276480, Note_off_c, 9, 46, 95
6, 276480, Note_off_c, 9, 55, 95
6, 276480, Note_on_c, 9, 42, 95
6, 276480, Note_on_c, 9, 35, 95
6, 276480, Note_on_c, 9, 35, 95
6, 276960, Note_off_c, 9, 42, 95
6, 276960, Note_off_c, 9, 35, 95
6, 276960, Note_off_c, 9, 35, 95
6, 276960, Note_on_c, 9, 42, 95
6, 277440, Note_off_c, 9, 42, 95
6, 277440, Note_on_c, 9, 42, 95
6, 277440, Note_on_c, 9, 40, 95
6, 277440, Note_on_c, 9, 40, 95
6, 277920, Note_off_c, 9, 42, 95
6, 277920, Note_off_c, 9, 40, 95
6, 277920, Note_off_c, 9, 40, 95
6, 277920, Note_on_c, 9, 42, 95
6, 278160, Note_off_c, 9, 42, 95
6, 278160, Note_on_c, 9, 42, 95
6, 278400, Note_off_c, 9, 42, 95
6, 278400, Note_on_c, 9, 42, 95
6, 278400, Note_on_c, 9, 35, 95
6, 278400, Note_on_c, 9, 35, 95
6, 278880, Note_off_c, 9, 42, 95
6, 278880, Note_off_c, 9, 35, 95
6, 278880, Note_off_c, 9, 35, 95
6, 278880, Note_on_c, 9, 42, 95
6, 279360, Note_off_c, 9, 42, 95
6, 279360, Note_on_c, 9, 42, 95
6, 279360, Note_on_c, 9, 40, 95
6, 279360, Note_on_c, 9, 40, 95
6, 279840, Note_off_c, 9, 42, 95
6, 279840, Note_off_c, 9, 40, 95
6, 279840, Note_off_c, 9, 40, 95
6, 279840, Note_on_c, 9, 46, 95
6, 279840, Note_on_c, 9, 55, 95
6, 280320, Note_off_c, 9, 46, 95
6, 280320, Note_off_c, 9, 55, 95
6, 280320, Note_on_c, 9, 57, 95
6, 280320, Note_on_c, 9, 35, 95
6, 280320, Note_on_c, 9, 35, 95
6, 280800, Note_off_c, 9, 57, 95
6, 280800, Note_off_c, 9, 35, 95
6, 280800, Note_off_c, 9, 35, 95
6, 280800, Note_on_c, 9, 42, 95
6, 281280, Note_off_c, 9, 42, 95
6, 281280, Note_on_c, 9, 42, 95
6, 281280, Note_on_c, 9, 40, 95
6, 281280, Note_on_c, 9, 40, 95
6, 281760, Note_off_c, 9, 42, 95
6, 281760, Note_off_c, 9, 40, 95
6, 281760, Note_off_c, 9, 40, 95
6, 281760, Note_on_c, 9, 42, 95
6, 282240, Note_off_c, 9, 42, 95
6, 282240, Note_on_c, 9, 57, 95
6, 282240, Note_on_c, 9, 35, 95
6, 282240, Note_on_c, 9, 35, 95
6, 282720, Note_off_c, 9, 57, 95
6, 282720, Note_off_c, 9, 35, 95
6, 282720, Note_off_c, 9, 35, 95
6, 282720, Note_on_c, 9, 42, 95
6, 283200, Note_off_c, 9, 42, 95
6, 283200, Note_on_c, 9, 42, 95
6, 283200, Note_on_c, 9, 40, 95
6, 283200, Note_on_c, 9, 40, 95
6, 283680, Note_off_c, 9, 42, 95
6, 283680, Note_off_c, 9, 40, 95
6, 283680, Note_off_c, 9, 40, 95
6, 283680, Note_on_c, 9, 46, 79
6, 284160, Note_off_c, 9, 46, 79
6, 284160, Note_on_c, 9, 57, 95
6, 284160, Note_on_c, 9, 35, 95
6, 284160, Note_on_c, 9, 35, 95
6, 284640, Note_off_c, 9, 57, 95
6, 284640, Note_off_c, 9, 35, 95
6, 284640, Note_off_c, 9, 35, 95
6, 284640, Note_on_c, 9, 42, 95
6, 285120, Note_off_c, 9, 42, 95
6, 285120, Note_on_c, 9, 42, 95
6, 285120, Note_on_c, 9, 40, 95
6, 285120, Note_on_c, 9, 40, 95
6, 285600, Note_off_c, 9, 42, 95
6, 285600, Note_off_c, 9, 40, 95
6, 285600, Note_off_c, 9, 40, 95
6, 285600, Note_on_c, 9, 46, 95
6, 286080, Note_off_c, 9, 46, 95
6, 286080, Note_on_c, 9, 42, 95
6, 286080, Note_on_c, 9, 35, 95
6, 286080, Note_on_c, 9, 35, 95
6, 286560, Note_off_c, 9, 42, 95
6, 286560, Note_off_c, 9, 35, 95
6, 286560, Note_off_c, 9, 35, 95
6, 286560, Note_on_c, 9, 46, 95
6, 287040, Note_off_c, 9, 46, 95
6, 287040, Note_on_c, 9, 42, 95
6, 287040, Note_on_c, 9, 40, 95
6, 287040, Note_on_c, 9, 40, 95
6, 287520, Note_off_c, 9, 42, 95
6, 287520, Note_off_c, 9, 40, 95
6, 287520, Note_off_c, 9, 40, 95
6, 287520, Note_on_c, 9, 46, 95
6, 288000, Note_off_c, 9, 46, 95
6, 288000, Note_on_c, 9, 42, 95
6, 288000, Note_on_c, 9, 35, 95
6, 288000, Note_on_c, 9, 35, 95
6, 288480, Note_off_c, 9, 42, 95
6, 288480, Note_off_c, 9, 35, 95
6, 288480, Note_off_c, 9, 35, 95
6, 288480, Note_on_c, 9, 42, 95
6, 288960, Note_off_c, 9, 42, 95
6, 288960, Note_on_c, 9, 42, 95
6, 288960, Note_on_c, 9, 40, 95
6, 288960, Note_on_c, 9, 40, 95
6, 289440, Note_off_c, 9, 42, 95
6, 289440, Note_off_c, 9, 40, 95
6, 289440, Note_off_c, 9, 40, 95
6, 289440, Note_on_c, 9, 42, 95
6, 289680, Note_off_c, 9, 42, 95
6, 289680, Note_on_c, 9, 42, 95
6, 289920, Note_off_c, 9, 42, 95
6, 289920, Note_on_c, 9, 42, 95
6, 289920, Note_on_c, 9, 35, 95
6, 289920, Note_on_c, 9, 35, 95
6, 290400, Note_off_c, 9, 42, 95
6, 290400, Note_off_c, 9, 35, 95
6, 290400, Note_off_c, 9, 35, 95
6, 290400, Note_on_c, 9, 42, 95
6, 290880, Note_off_c, 9, 42, 95
6, 290880, Note_on_c, 9, 42, 95
6, 290880, Note_on_c, 9, 40, 95
6, 290880, Note_on_c, 9, 40, 95
6, 291360, Note_off_c, 9, 42, 95
6, 291360, Note_off_c, 9, 40, 95
6, 291360, Note_off_c, 9, 40, 95
6, 291360, Note_on_c, 9, 46, 95
6, 291360, Note_on_c, 9, 55, 95
6, 291840, Note_off_c, 9, 46, 95
6, 291840, Note_off_c, 9, 55, 95
6, 291840, Note_on_c, 9, 42, 95
6, 291840, Note_on_c, 9, 35, 95
6, 291840, Note_on_c, 9, 35, 95
6, 292320, Note_off_c, 9, 42, 95
6, 292320, Note_off_c, 9, 35, 95
6, 292320, Note_off_c, 9, 35, 95
6, 292320, Note_on_c, 9, 42, 95
6, 292800, Note_off_c, 9, 42, 95
6, 292800, Note_on_c, 9, 42, 95
6, 292800, Note_on_c, 9, 40, 95
6, 292800, Note_on_c, 9, 40, 95
6, 293280, Note_off_c, 9, 42, 95
6, 293280, Note_off_c, 9, 40, 95
6, 293280, Note_off_c, 9, 40, 95
6, 293280, Note_on_c, 9, 42, 95
6, 293520, Note_off_c, 9, 42, 95
6, 293520, Note_on_c, 9, 42, 95
6, 293760, Note_off_c, 9, 42, 95
6, 293760, Note_on_c, 9, 42, 95
6, 293760, Note_on_c, 9, 35, 95
6, 293760, Note_on_c, 9, 35, 95
6, 294240, Note_off_c, 9, 42, 95
6, 294240, Note_off_c, 9, 35, 95
6, 294240, Note_off_c, 9, 35, 95
6, 294240, Note_on_c, 9, 42, 95
6, 294720, Note_off_c, 9, 42, 95
6, 294720, Note_on_c, 9, 42, 95
6, 294720, Note_on_c, 9, 40, 95
6, 294720, Note_on_c, 9, 40, 95
6, 295200, Note_off_c, 9, 42, 95
6, 295200, Note_off_c, 9, 40, 95
6, 295200, Note_off_c, 9, 40, 95
6, 295200, Note_on_c, 9, 46, 95
6, 295200, Note_on_c, 9, 55, 95
6, 295680, Note_off_c, 9, 46, 95
6, 295680, Note_off_c, 9, 55, 95
6, 295680, Note_on_c, 9, 42, 95
6, 295680, Note_on_c, 9, 35, 95
6, 295680, Note_on_c, 9, 35, 95
6, 296160, Note_off_c, 9, 42, 95
6, 296160, Note_off_c, 9, 35, 95
6, 296160, Note_off_c, 9, 35, 95
6, 296160, Note_on_c, 9, 42, 95
6, 296640, Note_off_c, 9, 42, 95
6, 296640, Note_on_c, 9, 42, 95
6, 296640, Note_on_c, 9, 40, 95
6, 296640, Note_on_c, 9, 40, 95
6, 297120, Note_off_c, 9, 42, 95
6, 297120, Note_off_c, 9, 40, 95
6, 297120, Note_off_c, 9, 40, 95
6, 297120, Note_on_c, 9, 42, 95
6, 297360, Note_off_c, 9, 42, 95
6, 297360, Note_on_c, 9, 42, 95
6, 297600, Note_off_c, 9, 42, 95
6, 297600, Note_on_c, 9, 42, 95
6, 297600, Note_on_c, 9, 35, 95
6, 297600, Note_on_c, 9, 35, 95
6, 298080, Note_off_c, 9, 42, 95
6, 298080, Note_off_c, 9, 35, 95
6, 298080, Note_off_c, 9, 35, 95
6, 298080, Note_on_c, 9, 42, 95
6, 298560, Note_off_c, 9, 42, 95
6, 298560, Note_on_c, 9, 42, 95
6, 298560, Note_on_c, 9, 40, 95
6, 298560, Note_on_c, 9, 40, 95
6, 299040, Note_off_c, 9, 42, 95
6, 299040, Note_off_c, 9, 40, 95
6, 299040, Note_off_c, 9, 40, 95
6, 299040, Note_on_c, 9, 46, 95
6, 299040, Note_on_c, 9, 55, 95
6, 299520, Note_off_c, 9, 46, 95
6, 299520, Note_off_c, 9, 55, 95
6, 299520, Note_on_c, 9, 42, 95
6, 299520, Note_on_c, 9, 35, 95
6, 299520, Note_on_c, 9, 35, 95
6, 300000, Note_off_c, 9, 42, 95
6, 300000, Note_off_c, 9, 35, 95
6, 300000, Note_off_c, 9, 35, 95
6, 300000, Note_on_c, 9, 42, 95
6, 300480, Note_off_c, 9, 42, 95
6, 300480, Note_on_c, 9, 42, 95
6, 300480, Note_on_c, 9, 40, 95
6, 300480, Note_on_c, 9, 40, 95
6, 300960, Note_off_c, 9, 42, 95
6, 300960, Note_off_c, 9, 40, 95
6, 300960, Note_off_c, 9, 40, 95
6, 300960, Note_on_c, 9, 42, 95
6, 301200, Note_off_c, 9, 42, 95
6, 301200, Note_on_c, 9, 42, 95
6, 301440, Note_off_c, 9, 42, 95
6, 301440, Note_on_c, 9, 42, 95
6, 301440, Note_on_c, 9, 35, 95
6, 301440, Note_on_c, 9, 35, 95
6, 301920, Note_off_c, 9, 42, 95
6, 301920, Note_off_c, 9, 35, 95
6, 301920, Note_off_c, 9, 35, 95
6, 301920, Note_on_c, 9, 42, 95
6, 302400, Note_off_c, 9, 42, 95
6, 302400, Note_on_c, 9, 42, 95
6, 302400, Note_on_c, 9, 40, 95
6, 302400, Note_on_c, 9, 40, 95
6, 302880, Note_off_c, 9, 42, 95
6, 302880, Note_off_c, 9, 40, 95
6, 302880, Note_off_c, 9, 40, 95
6, 302880, Note_on_c, 9, 46, 95
6, 302880, Note_on_c, 9, 55, 95
6, 303360, Note_off_c, 9, 46, 95
6, 303360, Note_off_c, 9, 55, 95
6, 303360, Note_on_c, 9, 42, 95
6, 303360, Note_on_c, 9, 35, 95
6, 303360, Note_on_c, 9, 35, 95
6, 303840, Note_off_c, 9, 42, 95
6, 303840, Note_off_c, 9, 35, 95
6, 303840, Note_off_c, 9, 35, 95
6, 303840, Note_on_c, 9, 42, 95
6, 304320, Note_off_c, 9, 42, 95
6, 304320, Note_on_c, 9, 42, 95
6, 304320, Note_on_c, 9, 40, 95
6, 304320, Note_on_c, 9, 40, 95
6, 304800, Note_off_c, 9, 42, 95
6, 304800, Note_off_c, 9, 40, 95
6, 304800, Note_off_c, 9, 40, 95
6, 304800, Note_on_c, 9, 42, 95
6, 305040, Note_off_c, 9, 42, 95
6, 305040, Note_on_c, 9, 42, 95
6, 305280, Note_off_c, 9, 42, 95
6, 305280, Note_on_c, 9, 42, 95
6, 305280, Note_on_c, 9, 35, 95
6, 305280, Note_on_c, 9, 35, 95
6, 305760, Note_off_c, 9, 42, 95
6, 305760, Note_off_c, 9, 35, 95
6, 305760, Note_off_c, 9, 35, 95
6, 305760, Note_on_c, 9, 42, 95
6, 306240, Note_off_c, 9, 42, 95
6, 306240, Note_on_c, 9, 42, 95
6, 306240, Note_on_c, 9, 40, 95
6, 306240, Note_on_c, 9, 40, 95
6, 306720, Note_off_c, 9, 42, 95
6, 306720, Note_off_c, 9, 40, 95
6, 306720, Note_off_c, 9, 40, 95
6, 306720, Note_on_c, 9, 46, 95
6, 306720, Note_on_c, 9, 55, 95
6, 307200, Note_off_c, 9, 46, 95
6, 307200, Note_off_c, 9, 55, 95
6, 307200, Note_on_c, 9, 42, 95
6, 307200, Note_on_c, 9, 35, 95
6, 307200, Note_on_c, 9, 35, 95
6, 307680, Note_off_c, 9, 42, 95
6, 307680, Note_off_c, 9, 35, 95
6, 307680, Note_off_c, 9, 35, 95
6, 307680, Note_on_c, 9, 42, 95
6, 308160, Note_off_c, 9, 42, 95
6, 308160, Note_on_c, 9, 42, 95
6, 308160, Note_on_c, 9, 40, 95
6, 308160, Note_on_c, 9, 40, 95
6, 308640, Note_off_c, 9, 42, 95
6, 308640, Note_off_c, 9, 40, 95
6, 308640, Note_off_c, 9, 40, 95
6, 308640, Note_on_c, 9, 42, 95
6, 308880, Note_off_c, 9, 42, 95
6, 308880, Note_on_c, 9, 42, 95
6, 309120, Note_off_c, 9, 42, 95
6, 309120, Note_on_c, 9, 42, 95
6, 309120, Note_on_c, 9, 35, 95
6, 309120, Note_on_c, 9, 35, 95
6, 309600, Note_off_c, 9, 42, 95
6, 309600, Note_off_c, 9, 35, 95
6, 309600, Note_off_c, 9, 35, 95
6, 309600, Note_on_c, 9, 42, 95
6, 310080, Note_off_c, 9, 42, 95
6, 310080, Note_on_c, 9, 42, 95
6, 310080, Note_on_c, 9, 40, 95
6, 310080, Note_on_c, 9, 40, 95
6, 310560, Note_off_c, 9, 42, 95
6, 310560, Note_off_c, 9, 40, 95
6, 310560, Note_off_c, 9, 40, 95
6, 310560, Note_on_c, 9, 46, 95
6, 310560, Note_on_c, 9, 55, 95
6, 311040, Note_off_c, 9, 46, 95
6, 311040, Note_off_c, 9, 55, 95
6, 311040, Note_on_c, 9, 42, 95
6, 311040, Note_on_c, 9, 35, 95
6, 311040, Note_on_c, 9, 35, 95
6, 311520, Note_off_c, 9, 42, 95
6, 311520, Note_off_c, 9, 35, 95
6, 311520, Note_off_c, 9, 35, 95
6, 311520, Note_on_c, 9, 42, 95
6, 312000, Note_off_c, 9, 42, 95
6, 312000, Note_on_c, 9, 42, 95
6, 312000, Note_on_c, 9, 40, 95
6, 312000, Note_on_c, 9, 40, 95
6, 312480, Note_off_c, 9, 42, 95
6, 312480, Note_off_c, 9, 40, 95
6, 312480, Note_off_c, 9, 40, 95
6, 312480, Note_on_c, 9, 42, 95
6, 312720, Note_off_c, 9, 42, 95
6, 312720, Note_on_c, 9, 42, 95
6, 312960, Note_off_c, 9, 42, 95
6, 312960, Note_on_c, 9, 42, 95
6, 312960, Note_on_c, 9, 35, 95
6, 312960, Note_on_c, 9, 35, 95
6, 313440, Note_off_c, 9, 42, 95
6, 313440, Note_off_c, 9, 35, 95
6, 313440, Note_off_c, 9, 35, 95
6, 313440, Note_on_c, 9, 42, 95
6, 313920, Note_off_c, 9, 42, 95
6, 313920, Note_on_c, 9, 42, 95
6, 313920, Note_on_c, 9, 40, 95
6, 313920, Note_on_c, 9, 40, 95
6, 314400, Note_off_c, 9, 42, 95
6, 314400, Note_off_c, 9, 40, 95
6, 314400, Note_off_c, 9, 40, 95
6, 314400, Note_on_c, 9, 46, 95
6, 314400, Note_on_c, 9, 55, 95
6, 314880, Note_off_c, 9, 46, 95
6, 314880, Note_off_c, 9, 55, 95
6, 314880, Note_on_c, 9, 42, 95
6, 314880, Note_on_c, 9, 35, 95
6, 314880, Note_on_c, 9, 35, 95
6, 315360, Note_off_c, 9, 42, 95
6, 315360, Note_off_c, 9, 35, 95
6, 315360, Note_off_c, 9, 35, 95
6, 315360, Note_on_c, 9, 42, 95
6, 315840, Note_off_c, 9, 42, 95
6, 315840, Note_on_c, 9, 42, 95
6, 315840, Note_on_c, 9, 40, 95
6, 315840, Note_on_c, 9, 40, 95
6, 316320, Note_off_c, 9, 42, 95
6, 316320, Note_off_c, 9, 40, 95
6, 316320, Note_off_c, 9, 40, 95
6, 316320, Note_on_c, 9, 42, 95
6, 316560, Note_off_c, 9, 42, 95
6, 316560, Note_on_c, 9, 42, 95
6, 316800, Note_off_c, 9, 42, 95
6, 316800, Note_on_c, 9, 42, 95
6, 316800, Note_on_c, 9, 35, 95
6, 316800, Note_on_c, 9, 35, 95
6, 317280, Note_off_c, 9, 42, 95
6, 317280, Note_off_c, 9, 35, 95
6, 317280, Note_off_c, 9, 35, 95
6, 317280, Note_on_c, 9, 42, 95
6, 317760, Note_off_c, 9, 42, 95
6, 317760, Note_on_c, 9, 42, 95
6, 317760, Note_on_c, 9, 40, 95
6, 317760, Note_on_c, 9, 40, 95
6, 318240, Note_off_c, 9, 42, 95
6, 318240, Note_off_c, 9, 40, 95
6, 318240, Note_off_c, 9, 40, 95
6, 318240, Note_on_c, 9, 46, 95
6, 318240, Note_on_c, 9, 55, 95
6, 318720, Note_off_c, 9, 46, 95
6, 318720, Note_off_c, 9, 55, 95
6, 318720, Note_on_c, 9, 42, 95
6, 318720, Note_on_c, 9, 35, 95
6, 318720, Note_on_c, 9, 35, 95
6, 319200, Note_off_c, 9, 42, 95
6, 319200, Note_off_c, 9, 35, 95
6, 319200, Note_off_c, 9, 35, 95
6, 319200, Note_on_c, 9, 42, 95
6, 319680, Note_off_c, 9, 42, 95
6, 319680, Note_on_c, 9, 42, 95
6, 319680, Note_on_c, 9, 40, 95
6, 319680, Note_on_c, 9, 40, 95
6, 320160, Note_off_c, 9, 42, 95
6, 320160, Note_off_c, 9, 40, 95
6, 320160, Note_off_c, 9, 40, 95
6, 320160, Note_on_c, 9, 42, 95
6, 320400, Note_off_c, 9, 42, 95
6, 320400, Note_on_c, 9, 42, 95
6, 320640, Note_off_c, 9, 42, 95
6, 320640, Note_on_c, 9, 42, 95
6, 320640, Note_on_c, 9, 35, 95
6, 320640, Note_on_c, 9, 35, 95
6, 321120, Note_off_c, 9, 42, 95
6, 321120, Note_off_c, 9, 35, 95
6, 321120, Note_off_c, 9, 35, 95
6, 321120, Note_on_c, 9, 42, 95
6, 321600, Note_off_c, 9, 42, 95
6, 321600, Note_on_c, 9, 42, 95
6, 321600, Note_on_c, 9, 40, 95
6, 321600, Note_on_c, 9, 40, 95
6, 322080, Note_off_c, 9, 42, 95
6, 322080, Note_off_c, 9, 40, 95
6, 322080, Note_off_c, 9, 40, 95
6, 322080, Note_on_c, 9, 46, 95
6, 322080, Note_on_c, 9, 55, 95
6, 322560, Note_off_c, 9, 46, 95
6, 322560, Note_off_c, 9, 55, 95
6, 322560, Note_on_c, 9, 42, 95
6, 322560, Note_on_c, 9, 35, 95
6, 322560, Note_on_c, 9, 35, 95
6, 323040, Note_off_c, 9, 42, 95
6, 323040, Note_off_c, 9, 35, 95
6, 323040, Note_off_c, 9, 35, 95
6, 323040, Note_on_c, 9, 42, 95
6, 323520, Note_off_c, 9, 42, 95
6, 323520, Note_on_c, 9, 42, 95
6, 323520, Note_on_c, 9, 40, 95
6, 323520, Note_on_c, 9, 40, 95
6, 324000, Note_off_c, 9, 42, 95
6, 324000, Note_off_c, 9, 40, 95
6, 324000, Note_off_c, 9, 40, 95
6, 324000, Note_on_c, 9, 42, 95
6, 324240, Note_off_c, 9, 42, 95
6, 324240, Note_on_c, 9, 42, 95
6, 324480, Note_off_c, 9, 42, 95
6, 324480, Note_on_c, 9, 42, 95
6, 324480, Note_on_c, 9, 35, 95
6, 324480, Note_on_c, 9, 35, 95
6, 324960, Note_off_c, 9, 42, 95
6, 324960, Note_off_c, 9, 35, 95
6, 324960, Note_off_c, 9, 35, 95
6, 324960, Note_on_c, 9, 42, 95
6, 325440, Note_off_c, 9, 42, 95
6, 325440, Note_on_c, 9, 42, 95
6, 325440, Note_on_c, 9, 40, 95
6, 325440, Note_on_c, 9, 40, 95
6, 325920, Note_off_c, 9, 42, 95
6, 325920, Note_off_c, 9, 40, 95
6, 325920, Note_off_c, 9, 40, 95
6, 325920, Note_on_c, 9, 46, 95
6, 325920, Note_on_c, 9, 55, 95
6, 326400, Note_off_c, 9, 46, 95
6, 326400, Note_off_c, 9, 55, 95
6, 326400, Note_on_c, 9, 42, 95
6, 326400, Note_on_c, 9, 35, 95
6, 326400, Note_on_c, 9, 35, 95
6, 326880, Note_off_c, 9, 42, 95
6, 326880, Note_off_c, 9, 35, 95
6, 326880, Note_off_c, 9, 35, 95
6, 326880, Note_on_c, 9, 42, 95
6, 327360, Note_off_c, 9, 42, 95
6, 327360, Note_on_c, 9, 42, 95
6, 327360, Note_on_c, 9, 40, 95
6, 327360, Note_on_c, 9, 40, 95
6, 327840, Note_off_c, 9, 42, 95
6, 327840, Note_off_c, 9, 40, 95
6, 327840, Note_off_c, 9, 40, 95
6, 327840, Note_on_c, 9, 42, 95
6, 328080, Note_off_c, 9, 42, 95
6, 328080, Note_on_c, 9, 42, 95
6, 328320, Note_off_c, 9, 42, 95
6, 328320, Note_on_c, 9, 42, 95
6, 328320, Note_on_c, 9, 35, 95
6, 328320, Note_on_c, 9, 35, 95
6, 328800, Note_off_c, 9, 42, 95
6, 328800, Note_off_c, 9, 35, 95
6, 328800, Note_off_c, 9, 35, 95
6, 328800, Note_on_c, 9, 42, 95
6, 329280, Note_off_c, 9, 42, 95
6, 329280, Note_on_c, 9, 42, 95
6, 329280, Note_on_c, 9, 40, 95
6, 329280, Note_on_c, 9, 40, 95
6, 329760, Note_off_c, 9, 42, 95
6, 329760, Note_off_c, 9, 40, 95
6, 329760, Note_off_c, 9, 40, 95
6, 329760, Note_on_c, 9, 46, 95
6, 329760, Note_on_c, 9, 55, 95
6, 330240, Note_off_c, 9, 46, 95
6, 330240, Note_off_c, 9, 55, 95
6, 330240, Note_on_c, 9, 42, 95
6, 330240, Note_on_c, 9, 35, 95
6, 330240, Note_on_c, 9, 35, 95
6, 330720, Note_off_c, 9, 42, 95
6, 330720, Note_off_c, 9, 35, 95
6, 330720, Note_off_c, 9, 35, 95
6, 330720, Note_on_c, 9, 42, 95
6, 331200, Note_off_c, 9, 42, 95
6, 331200, Note_on_c, 9, 42, 95
6, 331200, Note_on_c, 9, 40, 95
6, 331200, Note_on_c, 9, 40, 95
6, 331680, Note_off_c, 9, 42, 95
6, 331680, Note_off_c, 9, 40, 95
6, 331680, Note_off_c, 9, 40, 95
6, 331680, Note_on_c, 9, 42, 95
6, 331920, Note_off_c, 9, 42, 95
6, 331920, Note_on_c, 9, 42, 95
6, 332160, Note_off_c, 9, 42, 95
6, 332160, Note_on_c, 9, 42, 95
6, 332160, Note_on_c, 9, 35, 95
6, 332160, Note_on_c, 9, 35, 95
6, 332640, Note_off_c, 9, 42, 95
6, 332640, Note_off_c, 9, 35, 95
6, 332640, Note_off_c, 9, 35, 95
6, 332640, Note_on_c, 9, 42, 95
6, 333120, Note_off_c, 9, 42, 95
6, 333120, Note_on_c, 9, 42, 95
6, 333120, Note_on_c, 9, 40, 95
6, 333120, Note_on_c, 9, 40, 95
6, 333600, Note_off_c, 9, 42, 95
6, 333600, Note_off_c, 9, 40, 95
6, 333600, Note_off_c, 9, 40, 95
6, 333600, Note_on_c, 9, 46, 95
6, 333600, Note_on_c, 9, 55, 95
6, 334080, Note_off_c, 9, 46, 95
6, 334080, Note_off_c, 9, 55, 95
6, 334080, Note_on_c, 9, 42, 95
6, 334080, Note_on_c, 9, 35, 95
6, 334080, Note_on_c, 9, 35, 95
6, 334560, Note_off_c, 9, 42, 95
6, 334560, Note_off_c, 9, 35, 95
6, 334560, Note_off_c, 9, 35, 95
6, 334560, Note_on_c, 9, 42, 95
6, 335040, Note_off_c, 9, 42, 95
6, 335040, Note_on_c, 9, 42, 95
6, 335040, Note_on_c, 9, 40, 95
6, 335040, Note_on_c, 9, 40, 95
6, 335520, Note_off_c, 9, 42, 95
6, 335520, Note_off_c, 9, 40, 95
6, 335520, Note_off_c, 9, 40, 95
6, 335520, Note_on_c, 9, 42, 95
6, 335760, Note_off_c, 9, 42, 95
6, 335760, Note_on_c, 9, 42, 95
6, 336000, Note_off_c, 9, 42, 95
6, 336000, Note_on_c, 9, 42, 95
6, 336000, Note_on_c, 9, 35, 95
6, 336000, Note_on_c, 9, 35, 95
6, 336480, Note_off_c, 9, 42, 95
6, 336480, Note_off_c, 9, 35, 95
6, 336480, Note_off_c, 9, 35, 95
6, 336480, Note_on_c, 9, 42, 95
6, 336960, Note_off_c, 9, 42, 95
6, 336960, Note_on_c, 9, 42, 95
6, 336960, Note_on_c, 9, 40, 95
6, 336960, Note_on_c, 9, 40, 95
6, 337440, Note_off_c, 9, 42, 95
6, 337440, Note_off_c, 9, 40, 95
6, 337440, Note_off_c, 9, 40, 95
6, 337440, Note_on_c, 9, 46, 95
6, 337440, Note_on_c, 9, 55, 95
6, 337920, Note_off_c, 9, 46, 95
6, 337920, Note_off_c, 9, 55, 95
6, 337920, Note_on_c, 9, 42, 95
6, 337920, Note_on_c, 9, 35, 95
6, 337920, Note_on_c, 9, 35, 95
6, 338400, Note_off_c, 9, 42, 95
6, 338400, Note_off_c, 9, 35, 95
6, 338400, Note_off_c, 9, 35, 95
6, 338400, Note_on_c, 9, 42, 95
6, 338880, Note_off_c, 9, 42, 95
6, 338880, Note_on_c, 9, 42, 95
6, 338880, Note_on_c, 9, 40, 95
6, 338880, Note_on_c, 9, 40, 95
6, 339360, Note_off_c, 9, 42, 95
6, 339360, Note_off_c, 9, 40, 95
6, 339360, Note_off_c, 9, 40, 95
6, 339360, Note_on_c, 9, 42, 95
6, 339600, Note_off_c, 9, 42, 95
6, 339600, Note_on_c, 9, 42, 95
6, 339840, Note_off_c, 9, 42, 95
6, 339840, Note_on_c, 9, 42, 95
6, 339840, Note_on_c, 9, 35, 95
6, 339840, Note_on_c, 9, 35, 95
6, 340320, Note_off_c, 9, 42, 95
6, 340320, Note_off_c, 9, 35, 95
6, 340320, Note_off_c, 9, 35, 95
6, 340320, Note_on_c, 9, 42, 95
6, 340800, Note_off_c, 9, 42, 95
6, 340800, Note_on_c, 9, 42, 95
6, 340800, Note_on_c, 9, 40, 95
6, 340800, Note_on_c, 9, 40, 95
6, 341280, Note_off_c, 9, 42, 95
6, 341280, Note_off_c, 9, 40, 95
6, 341280, Note_off_c, 9, 40, 95
6, 341280, Note_on_c, 9, 46, 95
6, 341280, Note_on_c, 9, 55, 95
6, 341760, Note_off_c, 9, 46, 95
6, 341760, Note_off_c, 9, 55, 95
6, 341760, Note_on_c, 9, 42, 95
6, 341760, Note_on_c, 9, 35, 95
6, 341760, Note_on_c, 9, 35, 95
6, 342240, Note_off_c, 9, 42, 95
6, 342240, Note_off_c, 9, 35, 95
6, 342240, Note_off_c, 9, 35, 95
6, 342240, Note_on_c, 9, 42, 95
6, 342720, Note_off_c, 9, 42, 95
6, 342720, Note_on_c, 9, 42, 95
6, 342720, Note_on_c, 9, 40, 95
6, 342720, Note_on_c, 9, 40, 95
6, 343200, Note_off_c, 9, 42, 95
6, 343200, Note_off_c, 9, 40, 95
6, 343200, Note_off_c, 9, 40, 95
6, 343200, Note_on_c, 9, 42, 95
6, 343440, Note_off_c, 9, 42, 95
6, 343440, Note_on_c, 9, 42, 95
6, 343680, Note_off_c, 9, 42, 95
6, 343680, Note_on_c, 9, 42, 95
6, 343680, Note_on_c, 9, 35, 95
6, 343680, Note_on_c, 9, 35, 95
6, 344160, Note_off_c, 9, 42, 95
6, 344160, Note_off_c, 9, 35, 95
6, 344160, Note_off_c, 9, 35, 95
6, 344160, Note_on_c, 9, 42, 95
6, 344640, Note_off_c, 9, 42, 95
6, 344640, Note_on_c, 9, 42, 95
6, 344640, Note_on_c, 9, 40, 95
6, 344640, Note_on_c, 9, 40, 95
6, 345120, Note_off_c, 9, 42, 95
6, 345120, Note_off_c, 9, 40, 95
6, 345120, Note_off_c, 9, 40, 95
6, 345120, Note_on_c, 9, 46, 95
6, 345120, Note_on_c, 9, 55, 95
6, 345600, Note_off_c, 9, 46, 95
6, 345600, Note_off_c, 9, 55, 95
6, 345600, Note_on_c, 9, 42, 95
6, 345600, Note_on_c, 9, 35, 95
6, 345600, Note_on_c, 9, 35, 95
6, 346080, Note_off_c, 9, 42, 95
6, 346080, Note_off_c, 9, 35, 95
6, 346080, Note_off_c, 9, 35, 95
6, 346080, Note_on_c, 9, 42, 95
6, 346560, Note_off_c, 9, 42, 95
6, 346560, Note_on_c, 9, 42, 95
6, 346560, Note_on_c, 9, 40, 95
6, 346560, Note_on_c, 9, 40, 95
6, 347040, Note_off_c, 9, 42, 95
6, 347040, Note_off_c, 9, 40, 95
6, 347040, Note_off_c, 9, 40, 95
6, 347040, Note_on_c, 9, 42, 95
6, 347280, Note_off_c, 9, 42, 95
6, 347280, Note_on_c, 9, 42, 95
6, 347520, Note_off_c, 9, 42, 95
6, 347520, Note_on_c, 9, 42, 95
6, 347520, Note_on_c, 9, 35, 95
6, 347520, Note_on_c, 9, 35, 95
6, 348000, Note_off_c, 9, 42, 95
6, 348000, Note_off_c, 9, 35, 95
6, 348000, Note_off_c, 9, 35, 95
6, 348000, Note_on_c, 9, 42, 95
6, 348480, Note_off_c, 9, 42, 95
6, 348480, Note_on_c, 9, 42, 95
6, 348480, Note_on_c, 9, 40, 95
6, 348480, Note_on_c, 9, 40, 95
6, 348960, Note_off_c, 9, 42, 95
6, 348960, Note_off_c, 9, 40, 95
6, 348960, Note_off_c, 9, 40, 95
6, 348960, Note_on_c, 9, 46, 95
6, 348960, Note_on_c, 9, 55, 95
6, 349440, Note_off_c, 9, 46, 95
6, 349440, Note_off_c, 9, 55, 95
6, 349440, Note_on_c, 9, 42, 95
6, 349440, Note_on_c, 9, 35, 95
6, 349440, Note_on_c, 9, 35, 95
6, 349920, Note_off_c, 9, 42, 95
6, 349920, Note_off_c, 9, 35, 95
6, 349920, Note_off_c, 9, 35, 95
6, 349920, Note_on_c, 9, 42, 95
6, 350400, Note_off_c, 9, 42, 95
6, 350400, Note_on_c, 9, 42, 95
6, 350400, Note_on_c, 9, 40, 95
6, 350400, Note_on_c, 9, 40, 95
6, 350880, Note_off_c, 9, 42, 95
6, 350880, Note_off_c, 9, 40, 95
6, 350880, Note_off_c, 9, 40, 95
6, 350880, Note_on_c, 9, 42, 95
6, 351120, Note_off_c, 9, 42, 95
6, 351120, Note_on_c, 9, 42, 95
6, 351360, Note_off_c, 9, 42, 95
6, 351360, Note_on_c, 9, 42, 95
6, 351360, Note_on_c, 9, 35, 95
6, 351360, Note_on_c, 9, 35, 95
6, 351840, Note_off_c, 9, 42, 95
6, 351840, Note_off_c, 9, 35, 95
6, 351840, Note_off_c, 9, 35, 95
6, 351840, Note_on_c, 9, 42, 95
6, 352320, Note_off_c, 9, 42, 95
6, 352320, Note_on_c, 9, 42, 95
6, 352320, Note_on_c, 9, 40, 95
6, 352320, Note_on_c, 9, 40, 95
6, 352800, Note_off_c, 9, 42, 95
6, 352800, Note_off_c, 9, 40, 95
6, 352800, Note_off_c, 9, 40, 95
6, 352800, Note_on_c, 9, 46, 95
6, 352800, Note_on_c, 9, 55, 95
6, 353280, Note_off_c, 9, 46, 95
6, 353280, Note_off_c, 9, 55, 95
6, 353280, Note_on_c, 9, 42, 95
6, 353280, Note_on_c, 9, 35, 95
6, 353280, Note_on_c, 9, 35, 95
6, 353760, Note_off_c, 9, 42, 95
6, 353760, Note_off_c, 9, 35, 95
6, 353760, Note_off_c, 9, 35, 95
6, 353760, Note_on_c, 9, 42, 95
6, 354240, Note_off_c, 9, 42, 95
6, 354240, Note_on_c, 9, 42, 95
6, 354240, Note_on_c, 9, 40, 95
6, 354240, Note_on_c, 9, 40, 95
6, 354720, Note_off_c, 9, 42, 95
6, 354720, Note_off_c, 9, 40, 95
6, 354720, Note_off_c, 9, 40, 95
6, 354720, Note_on_c, 9, 42, 95
6, 354960, Note_off_c, 9, 42, 95
6, 354960, Note_on_c, 9, 42, 95
6, 355200, Note_off_c, 9, 42, 95
6, 355200, Note_on_c, 9, 42, 95
6, 355200, Note_on_c, 9, 35, 95
6, 355200, Note_on_c, 9, 35, 95
6, 355680, Note_off_c, 9, 42, 95
6, 355680, Note_off_c, 9, 35, 95
6, 355680, Note_off_c, 9, 35, 95
6, 355680, Note_on_c, 9, 42, 95
6, 356160, Note_off_c, 9, 42, 95
6, 356160, Note_on_c, 9, 42, 95
6, 356160, Note_on_c, 9, 40, 95
6, 356160, Note_on_c, 9, 40, 95
6, 356640, Note_off_c, 9, 42, 95
6, 356640, Note_off_c, 9, 40, 95
6, 356640, Note_off_c, 9, 40, 95
6, 356640, Note_on_c, 9, 46, 95
6, 356640, Note_on_c, 9, 55, 95
6, 357120, Note_off_c, 9, 46, 95
6, 357120, Note_off_c, 9, 55, 95
6, 357120, Note_on_c, 9, 42, 95
6, 357120, Note_on_c, 9, 35, 95
6, 357120, Note_on_c, 9, 35, 95
6, 357600, Note_off_c, 9, 42, 95
6, 357600, Note_off_c, 9, 35, 95
6, 357600, Note_off_c, 9, 35, 95
6, 357600, Note_on_c, 9, 42, 95
6, 358080, Note_off_c, 9, 42, 95
6, 358080, Note_on_c, 9, 42, 95
6, 358080, Note_on_c, 9, 40, 95
6, 358080, Note_on_c, 9, 40, 95
6, 358560, Note_off_c, 9, 42, 95
6, 358560, Note_off_c, 9, 40, 95
6, 358560, Note_off_c, 9, 40, 95
6, 358560, Note_on_c, 9, 42, 95
6, 358800, Note_off_c, 9, 42, 95
6, 358800, Note_on_c, 9, 42, 95
6, 359040, Note_off_c, 9, 42, 95
6, 359040, Note_on_c, 9, 42, 95
6, 359040, Note_on_c, 9, 35, 95
6, 359040, Note_on_c, 9, 35, 95
6, 359520, Note_off_c, 9, 42, 95
6, 359520, Note_off_c, 9, 35, 95
6, 359520, Note_off_c, 9, 35, 95
6, 359520, Note_on_c, 9, 42, 95
6, 360000, Note_off_c, 9, 42, 95
6, 360000, Note_on_c, 9, 42, 95
6, 360000, Note_on_c, 9, 40, 95
6, 360000, Note_on_c, 9, 40, 95
6, 360480, Note_off_c, 9, 42, 95
6, 360480, Note_off_c, 9, 40, 95
6, 360480, Note_off_c, 9, 40, 95
6, 360480, Note_on_c, 9, 46, 95
6, 360480, Note_on_c, 9, 55, 95
6, 360960, Note_off_c, 9, 46, 95
6, 360960, Note_off_c, 9, 55, 95
6, 360960, Note_on_c, 9, 42, 95
6, 360960, Note_on_c, 9, 35, 95
6, 360960, Note_on_c, 9, 35, 95
6, 361440, Note_off_c, 9, 42, 95
6, 361440, Note_off_c, 9, 35, 95
6, 361440, Note_off_c, 9, 35, 95
6, 361440, Note_on_c, 9, 42, 95
6, 361920, Note_off_c, 9, 42, 95
6, 361920, Note_on_c, 9, 42, 95
6, 361920, Note_on_c, 9, 40, 95
6, 361920, Note_on_c, 9, 40, 95
6, 362400, Note_off_c, 9, 42, 95
6, 362400, Note_off_c, 9, 40, 95
6, 362400, Note_off_c, 9, 40, 95
6, 362400, Note_on_c, 9, 42, 95
6, 362640, Note_off_c, 9, 42, 95
6, 362640, Note_on_c, 9, 42, 95
6, 362880, Note_off_c, 9, 42, 95
6, 362880, Note_on_c, 9, 42, 95
6, 362880, Note_on_c, 9, 35, 95
6, 362880, Note_on_c, 9, 35, 95
6, 363360, Note_off_c, 9, 42, 95
6, 363360, Note_off_c, 9, 35, 95
6, 363360, Note_off_c, 9, 35, 95
6, 363360, Note_on_c, 9, 42, 95
6, 363840, Note_off_c, 9, 42, 95
6, 363840, Note_on_c, 9, 42, 95
6, 363840, Note_on_c, 9, 40, 95
6, 363840, Note_on_c, 9, 40, 95
6, 364320, Note_off_c, 9, 42, 95
6, 364320, Note_off_c, 9, 40, 95
6, 364320, Note_off_c, 9, 40, 95
6, 364320, Note_on_c, 9, 46, 95
6, 364320, Note_on_c, 9, 55, 95
6, 364800, Note_off_c, 9, 46, 95
6, 364800, Note_off_c, 9, 55, 95
6, 364800, Note_on_c, 9, 42, 95
6, 364800, Note_on_c, 9, 35, 95
6, 364800, Note_on_c, 9, 35, 95
6, 365280, Note_off_c, 9, 42, 95
6, 365280, Note_off_c, 9, 35, 95
6, 365280, Note_off_c, 9, 35, 95
6, 365280, Note_on_c, 9, 42, 95
6, 365760, Note_off_c, 9, 42, 95
6, 365760, Note_on_c, 9, 42, 95
6, 365760, Note_on_c, 9, 40, 95
6, 365760, Note_on_c, 9, 40, 95
6, 366240, Note_off_c, 9, 42, 95
6, 366240, Note_off_c, 9, 40, 95
6, 366240, Note_off_c, 9, 40, 95
6, 366240, Note_on_c, 9, 42, 95
6, 366480, Note_off_c, 9, 42, 95
6, 366480, Note_on_c, 9, 42, 95
6, 366720, Note_off_c, 9, 42, 95
6, 366720, Note_on_c, 9, 42, 95
6, 366720, Note_on_c, 9, 35, 95
6, 366720, Note_on_c, 9, 35, 95
6, 367200, Note_off_c, 9, 42, 95
6, 367200, Note_off_c, 9, 35, 95
6, 367200, Note_off_c, 9, 35, 95
6, 367200, Note_on_c, 9, 42, 95
6, 367680, Note_off_c, 9, 42, 95
6, 367680, Note_on_c, 9, 42, 95
6, 367680, Note_on_c, 9, 40, 95
6, 367680, Note_on_c, 9, 40, 95
6, 368160, Note_off_c, 9, 42, 95
6, 368160, Note_off_c, 9, 40, 95
6, 368160, Note_off_c, 9, 40, 95
6, 368160, Note_on_c, 9, 46, 95
6, 368160, Note_on_c, 9, 55, 95
6, 368640, Note_off_c, 9, 46, 95
6, 368640, Note_off_c, 9, 55, 95
6, 368640, Note_on_c, 9, 42, 95
6, 368640, Note_on_c, 9, 35, 95
6, 368640, Note_on_c, 9, 35, 95
6, 369120, Note_off_c, 9, 42, 95
6, 369120, Note_off_c, 9, 35, 95
6, 369120, Note_off_c, 9, 35, 95
6, 369120, Note_on_c, 9, 42, 95
6, 369600, Note_off_c, 9, 42, 95
6, 369600, Note_on_c, 9, 42, 95
6, 369600, Note_on_c, 9, 40, 95
6, 369600, Note_on_c, 9, 40, 95
6, 370080, Note_off_c, 9, 42, 95
6, 370080, Note_off_c, 9, 40, 95
6, 370080, Note_off_c, 9, 40, 95
6, 370080, Note_on_c, 9, 42, 95
6, 370320, Note_off_c, 9, 42, 95
6, 370320, Note_on_c, 9, 42, 95
6, 370560, Note_off_c, 9, 42, 95
6, 370560, Note_on_c, 9, 42, 95
6, 370560, Note_on_c, 9, 35, 95
6, 370560, Note_on_c, 9, 35, 95
6, 371040, Note_off_c, 9, 42, 95
6, 371040, Note_off_c, 9, 35, 95
6, 371040, Note_off_c, 9, 35, 95
6, 371040, Note_on_c, 9, 42, 95
6, 371520, Note_off_c, 9, 42, 95
6, 371520, Note_on_c, 9, 42, 95
6, 371520, Note_on_c, 9, 40, 95
6, 371520, Note_on_c, 9, 40, 95
6, 372000, Note_off_c, 9, 42, 95
6, 372000, Note_off_c, 9, 40, 95
6, 372000, Note_off_c, 9, 40, 95
6, 372000, Note_on_c, 9, 46, 95
6, 372000, Note_on_c, 9, 55, 95
6, 372480, Note_off_c, 9, 46, 95
6, 372480, Note_off_c, 9, 55, 95
6, 372480, Note_on_c, 9, 42, 95
6, 372480, Note_on_c, 9, 35, 95
6, 372480, Note_on_c, 9, 35, 95
6, 372960, Note_off_c, 9, 42, 95
6, 372960, Note_off_c, 9, 35, 95
6, 372960, Note_off_c, 9, 35, 95
6, 372960, Note_on_c, 9, 42, 95
6, 373440, Note_off_c, 9, 42, 95
6, 373440, Note_on_c, 9, 42, 95
6, 373440, Note_on_c, 9, 40, 95
6, 373440, Note_on_c, 9, 40, 95
6, 373920, Note_off_c, 9, 42, 95
6, 373920, Note_off_c, 9, 40, 95
6, 373920, Note_off_c, 9, 40, 95
6, 373920, Note_on_c, 9, 42, 95
6, 374160, Note_off_c, 9, 42, 95
6, 374160, Note_on_c, 9, 42, 95
6, 374400, Note_off_c, 9, 42, 95
6, 374400, Note_on_c, 9, 42, 95
6, 374400, Note_on_c, 9, 35, 95
6, 374400, Note_on_c, 9, 35, 95
6, 374880, Note_off_c, 9, 42, 95
6, 374880, Note_off_c, 9, 35, 95
6, 374880, Note_off_c, 9, 35, 95
6, 374880, Note_on_c, 9, 42, 95
6, 375360, Note_off_c, 9, 42, 95
6, 375360, Note_on_c, 9, 42, 95
6, 375360, Note_on_c, 9, 40, 95
6, 375360, Note_on_c, 9, 40, 95
6, 375840, Note_off_c, 9, 42, 95
6, 375840, Note_off_c, 9, 40, 95
6, 375840, Note_off_c, 9, 40, 95
6, 375840, Note_on_c, 9, 46, 95
6, 375840, Note_on_c, 9, 55, 95
6, 376320, Note_off_c, 9, 46, 95
6, 376320, Note_off_c, 9, 55, 95
6, 376320, Note_on_c, 9, 42, 95
6, 376320, Note_on_c, 9, 35, 95
6, 376320, Note_on_c, 9, 35, 95
6, 376800, Note_off_c, 9, 42, 95
6, 376800, Note_off_c, 9, 35, 95
6, 376800, Note_off_c, 9, 35, 95
6, 376800, Note_on_c, 9, 42, 95
6, 377280, Note_off_c, 9, 42, 95
6, 377280, Note_on_c, 9, 42, 95
6, 377280, Note_on_c, 9, 40, 95
6, 377280, Note_on_c, 9, 40, 95
6, 377760, Note_off_c, 9, 42, 95
6, 377760, Note_off_c, 9, 40, 95
6, 377760, Note_off_c, 9, 40, 95
6, 377760, Note_on_c, 9, 42, 95
6, 378000, Note_off_c, 9, 42, 95
6, 378000, Note_on_c, 9, 42, 95
6, 378240, Note_off_c, 9, 42, 95
6, 378240, Note_on_c, 9, 42, 95
6, 378240, Note_on_c, 9, 35, 95
6, 378240, Note_on_c, 9, 35, 95
6, 378720, Note_off_c, 9, 42, 95
6, 378720, Note_off_c, 9, 35, 95
6, 378720, Note_off_c, 9, 35, 95
6, 378720, Note_on_c, 9, 42, 95
6, 379200, Note_off_c, 9, 42, 95
6, 379200, Note_on_c, 9, 42, 95
6, 379200, Note_on_c, 9, 40, 95
6, 379200, Note_on_c, 9, 40, 95
6, 379680, Note_off_c, 9, 42, 95
6, 379680, Note_off_c, 9, 40, 95
6, 379680, Note_off_c, 9, 40, 95
6, 379680, Note_on_c, 9, 46, 95
6, 379680, Note_on_c, 9, 55, 95
6, 380160, Note_off_c, 9, 46, 95
6, 380160, Note_off_c, 9, 55, 95
6, 380160, End_track
0, 0, End_of_file
