0, 0, Header, 1, 6, 480
1, 0, Start_track
1, 0, Title_t, "04-david_bowie_1976-tvc15"
1, 0, Tempo, 555554
1, 0, Time_signature, 4, 2, 24, 8
1, 0, End_track
2, 0, Start_track
2, 0, Title_t, "Roy Bittan-Piano"
2, 0, Text_t, "@LENGL"
2, 0, Text_t, "@TTVC15"
2, 0, Text_t, "@TDavid Bowie - 1976"
2, 0, Text_t, "@TSequence : GuitarPro file Tab by Kid Galahad"
2, 1, Text_t, "@Thttp://profile.ultimate-guitar.com/Kid+Galahad/"
2, 1, Text_t, "@TGM Format by Th. Leroy / 2011"
2, 2, Text_t, "@Thttp://www.rppmf.com/david_bowie.htm"
2, 16, Control_c, 0, 121, 0
2, 16, Control_c, 0, 123, 0
2, 16, Control_c, 0, 100, 0
2, 16, Control_c, 0, 38, 0
2, 16, Control_c, 0, 101, 0
2, 16, Control_c, 0, 6, 12
2, 16, Pitch_bend_c, 0, 8192
2, 30, Program_c, 0, 1
2, 30, Control_c, 0, 7, 104
2, 30, Control_c, 0, 10, 30
2, 240, Note_on_c, 0, 67, 76
2, 240, Note_on_c, 0, 79, 76
2, 314, Note_on_c, 0, 60, 76
2, 321, Note_off_c, 0, 67, 80
2, 321, Note_off_c, 0, 79, 80
2, 360, Note_on_c, 0, 67, 76
2, 360, Note_on_c, 0, 79, 76
2, 441, Note_off_c, 0, 67, 80
2, 441, Note_off_c, 0, 79, 80
2, 480, Note_on_c, 0, 67, 76
2, 480, Note_on_c, 0, 79, 76
2, 515, Note_off_c, 0, 60, 80
2, 681, Note_off_c, 0, 67, 80
2, 681, Note_off_c, 0, 79, 80
2, 720, Note_on_c, 0, 67, 76
2, 720, Note_on_c, 0, 79, 76
2, 921, Note_off_c, 0, 67, 80
2, 921, Note_off_c, 0, 79, 80
2, 960, Note_on_c, 0, 67, 76
2, 960, Note_on_c, 0, 79, 76
2, 1161, Note_off_c, 0, 67, 80
2, 1161, Note_off_c, 0, 79, 80
2, 1200, Note_on_c, 0, 62, 76
2, 1200, Note_on_c, 0, 74, 76
2, 1401, Note_off_c, 0, 62, 80
2, 1401, Note_off_c, 0, 74, 80
2, 1440, Note_on_c, 0, 60, 76
2, 1440, Note_on_c, 0, 72, 76
2, 1641, Note_off_c, 0, 60, 80
2, 1641, Note_off_c, 0, 72, 80
2, 1680, Note_on_c, 0, 70, 76
2, 1881, Note_off_c, 0, 70, 80
2, 1994, Note_on_c, 0, 60, 76
2, 2160, Note_on_c, 0, 64, 76
2, 2160, Note_on_c, 0, 67, 76
2, 2195, Note_off_c, 0, 60, 80
2, 2361, Note_off_c, 0, 64, 80
2, 2361, Note_off_c, 0, 67, 80
2, 2400, Note_on_c, 0, 64, 76
2, 2400, Note_on_c, 0, 67, 76
2, 2601, Note_off_c, 0, 64, 80
2, 2601, Note_off_c, 0, 67, 80
2, 2640, Note_on_c, 0, 64, 76
2, 2640, Note_on_c, 0, 67, 76
2, 2841, Note_off_c, 0, 64, 80
2, 2841, Note_off_c, 0, 67, 80
2, 2880, Note_on_c, 0, 63, 76
2, 2880, Note_on_c, 0, 67, 76
2, 2921, Note_off_c, 0, 63, 80
2, 2921, Note_off_c, 0, 67, 80
2, 2960, Note_on_c, 0, 62, 76
2, 3001, Note_off_c, 0, 62, 80
2, 3040, Note_on_c, 0, 60, 76
2, 3081, Note_off_c, 0, 60, 80
2, 3120, Note_on_c, 0, 57, 76
2, 3321, Note_off_c, 0, 57, 80
2, 3360, Note_on_c, 0, 55, 76
2, 3360, Note_on_c, 0, 60, 76
2, 3360, Note_on_c, 0, 64, 76
2, 3561, Note_off_c, 0, 55, 80
2, 3561, Note_off_c, 0, 60, 80
2, 3561, Note_off_c, 0, 64, 80
2, 3600, Note_on_c, 0, 57, 76
2, 3801, Note_off_c, 0, 57, 80
2, 3840, Note_on_c, 0, 55, 76
2, 3840, Note_on_c, 0, 64, 76
2, 4041, Note_off_c, 0, 55, 80
2, 4041, Note_off_c, 0, 64, 80
2, 4080, Note_on_c, 0, 60, 76
2, 4154, Note_on_c, 0, 60, 76
2, 4161, Note_off_c, 0, 60, 80
2, 4200, Note_on_c, 0, 60, 76
2, 4281, Note_off_c, 0, 60, 80
2, 4320, Note_on_c, 0, 60, 76
2, 4355, Note_off_c, 0, 60, 80
2, 4521, Note_off_c, 0, 60, 80
2, 4560, Note_on_c, 0, 57, 76
2, 4560, Note_on_c, 0, 60, 76
2, 4560, Note_on_c, 0, 64, 76
2, 4761, Note_off_c, 0, 57, 80
2, 4761, Note_off_c, 0, 60, 80
2, 4761, Note_off_c, 0, 64, 80
2, 4800, Note_on_c, 0, 55, 76
2, 4800, Note_on_c, 0, 60, 76
2, 4800, Note_on_c, 0, 64, 76
2, 5001, Note_off_c, 0, 55, 80
2, 5001, Note_off_c, 0, 60, 80
2, 5001, Note_off_c, 0, 64, 80
2, 5040, Note_on_c, 0, 60, 76
2, 5241, Note_off_c, 0, 60, 80
2, 5280, Note_on_c, 0, 55, 76
2, 5280, Note_on_c, 0, 60, 76
2, 5280, Note_on_c, 0, 64, 76
2, 5481, Note_off_c, 0, 55, 80
2, 5481, Note_off_c, 0, 60, 80
2, 5481, Note_off_c, 0, 64, 80
2, 5520, Note_on_c, 0, 57, 76
2, 5520, Note_on_c, 0, 65, 76
2, 5721, Note_off_c, 0, 57, 80
2, 5721, Note_off_c, 0, 65, 80
2, 5834, Note_on_c, 0, 60, 76
2, 6000, Note_on_c, 0, 60, 76
2, 6000, Note_on_c, 0, 69, 76
2, 6035, Note_off_c, 0, 60, 80
2, 6201, Note_off_c, 0, 60, 80
2, 6201, Note_off_c, 0, 69, 80
2, 6240, Note_on_c, 0, 67, 76
2, 6441, Note_off_c, 0, 67, 80
2, 6480, Note_on_c, 0, 60, 76
2, 6480, Note_on_c, 0, 69, 76
2, 6681, Note_off_c, 0, 60, 80
2, 6681, Note_off_c, 0, 69, 80
2, 6720, Note_on_c, 0, 63, 76
2, 6720, Note_on_c, 0, 67, 76
2, 6761, Note_off_c, 0, 63, 80
2, 6761, Note_off_c, 0, 67, 80
2, 6800, Note_on_c, 0, 62, 76
2, 6841, Note_off_c, 0, 62, 80
2, 6880, Note_on_c, 0, 60, 76
2, 6921, Note_off_c, 0, 60, 80
2, 6960, Note_on_c, 0, 57, 76
2, 7161, Note_off_c, 0, 57, 80
2, 7200, Note_on_c, 0, 55, 76
2, 7200, Note_on_c, 0, 60, 76
2, 7200, Note_on_c, 0, 64, 76
2, 7401, Note_off_c, 0, 55, 80
2, 7401, Note_off_c, 0, 60, 80
2, 7401, Note_off_c, 0, 64, 80
2, 7440, Note_on_c, 0, 57, 76
2, 7641, Note_off_c, 0, 57, 80
2, 7680, Note_on_c, 0, 55, 76
2, 7680, Note_on_c, 0, 64, 76
2, 7881, Note_off_c, 0, 55, 80
2, 7881, Note_off_c, 0, 64, 80
2, 7920, Note_on_c, 0, 60, 76
2, 7994, Note_on_c, 0, 63, 76
2, 8001, Note_off_c, 0, 60, 80
2, 8040, Note_on_c, 0, 60, 76
2, 8121, Note_off_c, 0, 60, 80
2, 8160, Note_on_c, 0, 60, 76
2, 8195, Note_off_c, 0, 63, 80
2, 8361, Note_off_c, 0, 60, 80
2, 8400, Note_on_c, 0, 58, 76
2, 8400, Note_on_c, 0, 60, 76
2, 8400, Note_on_c, 0, 64, 76
2, 8601, Note_off_c, 0, 58, 80
2, 8601, Note_off_c, 0, 60, 80
2, 8601, Note_off_c, 0, 64, 80
2, 8640, Note_on_c, 0, 60, 76
2, 8841, Note_off_c, 0, 60, 80
2, 8880, Note_on_c, 0, 55, 76
2, 8880, Note_on_c, 0, 60, 76
2, 8880, Note_on_c, 0, 64, 76
2, 9081, Note_off_c, 0, 55, 80
2, 9081, Note_off_c, 0, 60, 80
2, 9081, Note_off_c, 0, 64, 80
2, 9120, Note_on_c, 0, 57, 76
2, 9120, Note_on_c, 0, 60, 76
2, 9120, Note_on_c, 0, 65, 76
2, 9321, Note_off_c, 0, 57, 80
2, 9321, Note_off_c, 0, 60, 80
2, 9321, Note_off_c, 0, 65, 80
2, 9360, Note_on_c, 0, 55, 76
2, 9360, Note_on_c, 0, 64, 76
2, 9561, Note_off_c, 0, 55, 80
2, 9561, Note_off_c, 0, 64, 80
2, 9674, Note_on_c, 0, 55, 76
2, 9840, Note_on_c, 0, 63, 76
2, 9840, Note_on_c, 0, 67, 76
2, 9875, Note_off_c, 0, 55, 80
2, 10041, Note_off_c, 0, 63, 80
2, 10041, Note_off_c, 0, 67, 80
2, 10080, Note_on_c, 0, 63, 76
2, 10080, Note_on_c, 0, 67, 76
2, 10281, Note_off_c, 0, 63, 80
2, 10281, Note_off_c, 0, 67, 80
2, 10320, Note_on_c, 0, 63, 76
2, 10320, Note_on_c, 0, 67, 76
2, 10521, Note_off_c, 0, 63, 80
2, 10521, Note_off_c, 0, 67, 80
2, 10560, Note_on_c, 0, 63, 76
2, 10560, Note_on_c, 0, 67, 76
2, 10601, Note_off_c, 0, 63, 80
2, 10601, Note_off_c, 0, 67, 80
2, 10640, Note_on_c, 0, 62, 76
2, 10681, Note_off_c, 0, 62, 80
2, 10720, Note_on_c, 0, 60, 76
2, 10761, Note_off_c, 0, 60, 80
2, 10800, Note_on_c, 0, 57, 76
2, 11001, Note_off_c, 0, 57, 80
2, 11040, Note_on_c, 0, 60, 76
2, 11040, Note_on_c, 0, 67, 76
2, 11241, Note_off_c, 0, 60, 80
2, 11241, Note_off_c, 0, 67, 80
2, 11280, Note_on_c, 0, 62, 76
2, 11481, Note_off_c, 0, 62, 80
2, 11520, Note_on_c, 0, 72, 76
2, 11594, Note_on_c, 0, 60, 76
2, 11721, Note_off_c, 0, 72, 80
2, 11760, Note_on_c, 0, 64, 76
2, 11760, Note_on_c, 0, 72, 76
2, 11961, Note_off_c, 0, 64, 80
2, 11961, Note_off_c, 0, 72, 80
2, 12000, Note_on_c, 0, 65, 76
2, 12000, Note_on_c, 0, 72, 76
2, 12035, Note_off_c, 0, 60, 80
2, 12201, Note_off_c, 0, 65, 80
2, 12201, Note_off_c, 0, 72, 80
2, 12240, Note_on_c, 0, 66, 76
2, 12240, Note_on_c, 0, 72, 76
2, 12441, Note_off_c, 0, 66, 80
2, 12441, Note_off_c, 0, 72, 80
2, 12480, Note_on_c, 0, 67, 76
2, 12480, Note_on_c, 0, 72, 76
2, 12681, Note_off_c, 0, 67, 80
2, 12681, Note_off_c, 0, 72, 80
2, 12720, Note_on_c, 0, 63, 76
2, 12921, Note_off_c, 0, 63, 80
2, 12960, Note_on_c, 0, 60, 76
2, 12960, Note_on_c, 0, 67, 76
2, 13041, Note_off_c, 0, 60, 80
2, 13041, Note_off_c, 0, 67, 80
2, 13080, Note_on_c, 0, 57, 76
2, 13080, Note_on_c, 0, 64, 76
2, 13401, Note_off_c, 0, 57, 80
2, 13401, Note_off_c, 0, 64, 80
2, 13440, Note_on_c, 0, 67, 76
2, 13514, Note_on_c, 0, 60, 76
2, 13595, Note_off_c, 0, 60, 80
2, 13641, Note_off_c, 0, 67, 80
2, 13680, Note_on_c, 0, 57, 76
2, 13680, Note_on_c, 0, 69, 76
2, 13881, Note_off_c, 0, 57, 80
2, 13881, Note_off_c, 0, 69, 80
2, 13920, Note_on_c, 0, 55, 76
2, 13920, Note_on_c, 0, 67, 76
2, 14121, Note_off_c, 0, 55, 80
2, 14121, Note_off_c, 0, 67, 80
2, 14160, Note_on_c, 0, 57, 76
2, 14160, Note_on_c, 0, 69, 76
2, 14361, Note_off_c, 0, 57, 80
2, 14361, Note_off_c, 0, 69, 80
2, 14400, Note_on_c, 0, 61, 76
2, 14400, Note_on_c, 0, 64, 76
2, 14441, Note_off_c, 0, 61, 80
2, 14441, Note_off_c, 0, 64, 80
2, 14480, Note_on_c, 0, 62, 76
2, 14521, Note_off_c, 0, 62, 80
2, 14560, Note_on_c, 0, 60, 76
2, 14601, Note_off_c, 0, 60, 80
2, 14640, Note_on_c, 0, 57, 76
2, 14841, Note_off_c, 0, 57, 80
2, 14880, Note_on_c, 0, 55, 76
2, 14880, Note_on_c, 0, 60, 76
2, 14880, Note_on_c, 0, 64, 76
2, 15081, Note_off_c, 0, 55, 80
2, 15081, Note_off_c, 0, 60, 80
2, 15081, Note_off_c, 0, 64, 80
2, 15120, Note_on_c, 0, 57, 76
2, 15321, Note_off_c, 0, 57, 80
2, 15360, Note_on_c, 0, 55, 76
2, 15360, Note_on_c, 0, 64, 76
2, 15434, Note_on_c, 0, 69, 76
2, 15635, Note_off_c, 0, 69, 80
2, 15801, Note_off_c, 0, 64, 80
2, 16080, Note_on_c, 0, 64, 76
2, 16080, Note_on_c, 0, 67, 76
2, 16281, Note_off_c, 0, 64, 80
2, 16281, Note_off_c, 0, 67, 80
2, 16320, Note_on_c, 0, 64, 76
2, 16320, Note_on_c, 0, 67, 76
2, 16521, Note_off_c, 0, 64, 80
2, 16521, Note_off_c, 0, 67, 80
2, 16560, Note_on_c, 0, 69, 76
2, 16761, Note_off_c, 0, 69, 80
2, 16800, Note_on_c, 0, 64, 76
2, 16800, Note_on_c, 0, 72, 76
2, 17001, Note_off_c, 0, 64, 80
2, 17001, Note_off_c, 0, 72, 80
2, 17040, Note_on_c, 0, 69, 76
2, 17241, Note_off_c, 0, 55, 80
2, 17241, Note_off_c, 0, 69, 80
2, 17280, Note_on_c, 0, 63, 76
2, 17361, Note_off_c, 0, 63, 80
2, 17400, Note_on_c, 0, 64, 76
2, 17481, Note_off_c, 0, 64, 80
2, 17520, Note_on_c, 0, 67, 76
2, 17721, Note_off_c, 0, 67, 80
2, 17760, Note_on_c, 0, 69, 76
2, 17834, Note_on_c, 0, 60, 76
2, 17915, Note_off_c, 0, 60, 80
2, 17961, Note_off_c, 0, 69, 80
2, 18000, Note_on_c, 0, 64, 76
2, 18000, Note_on_c, 0, 72, 76
2, 18201, Note_off_c, 0, 64, 80
2, 18441, Note_off_c, 0, 72, 80
2, 18480, Note_on_c, 0, 72, 76
2, 18681, Note_off_c, 0, 72, 80
2, 18960, Note_on_c, 0, 72, 76
2, 19161, Note_off_c, 0, 72, 80
2, 19274, Note_on_c, 0, 69, 76
2, 19440, Note_on_c, 0, 60, 76
2, 19440, Note_on_c, 0, 63, 76
2, 19475, Note_off_c, 0, 69, 80
2, 19521, Note_off_c, 0, 60, 80
2, 19521, Note_off_c, 0, 63, 80
2, 19560, Note_on_c, 0, 64, 76
2, 19641, Note_off_c, 0, 64, 80
2, 19680, Note_on_c, 0, 67, 76
2, 19881, Note_off_c, 0, 67, 80
2, 19920, Note_on_c, 0, 64, 76
2, 19920, Note_on_c, 0, 69, 76
2, 20121, Note_off_c, 0, 64, 80
2, 20121, Note_off_c, 0, 69, 80
2, 20160, Note_on_c, 0, 72, 76
2, 20361, Note_off_c, 0, 72, 80
2, 20400, Note_on_c, 0, 72, 76
2, 20601, Note_off_c, 0, 72, 80
2, 20640, Note_on_c, 0, 69, 76
2, 20841, Note_off_c, 0, 69, 80
2, 20880, Note_on_c, 0, 72, 76
2, 21081, Note_off_c, 0, 72, 80
2, 21120, Note_on_c, 0, 63, 76
2, 21201, Note_off_c, 0, 63, 80
2, 21240, Note_on_c, 0, 64, 76
2, 21321, Note_off_c, 0, 64, 80
2, 21360, Note_on_c, 0, 67, 76
2, 21561, Note_off_c, 0, 67, 80
2, 21600, Note_on_c, 0, 69, 76
2, 21674, Note_on_c, 0, 60, 76
2, 21755, Note_off_c, 0, 60, 80
2, 21801, Note_off_c, 0, 69, 80
2, 21840, Note_on_c, 0, 64, 76
2, 21840, Note_on_c, 0, 72, 76
2, 22041, Note_off_c, 0, 64, 80
2, 22281, Note_off_c, 0, 72, 80
2, 22320, Note_on_c, 0, 72, 76
2, 22521, Note_off_c, 0, 72, 80
2, 22800, Note_on_c, 0, 72, 76
2, 23001, Note_off_c, 0, 72, 80
2, 23114, Note_on_c, 0, 69, 76
2, 23280, Note_on_c, 0, 60, 76
2, 23280, Note_on_c, 0, 63, 76
2, 23315, Note_off_c, 0, 69, 80
2, 23361, Note_off_c, 0, 60, 80
2, 23361, Note_off_c, 0, 63, 80
2, 23400, Note_on_c, 0, 64, 76
2, 23481, Note_off_c, 0, 64, 80
2, 23520, Note_on_c, 0, 67, 76
2, 23721, Note_off_c, 0, 67, 80
2, 23760, Note_on_c, 0, 64, 76
2, 23760, Note_on_c, 0, 69, 76
2, 23961, Note_off_c, 0, 64, 80
2, 23961, Note_off_c, 0, 69, 80
2, 24000, Note_on_c, 0, 72, 76
2, 24201, Note_off_c, 0, 72, 80
2, 24240, Note_on_c, 0, 72, 76
2, 24441, Note_off_c, 0, 72, 80
2, 24480, Note_on_c, 0, 69, 76
2, 24681, Note_off_c, 0, 69, 80
2, 24720, Note_on_c, 0, 72, 76
2, 24921, Note_off_c, 0, 72, 80
2, 24960, Note_on_c, 0, 63, 76
2, 25041, Note_off_c, 0, 63, 80
2, 25080, Note_on_c, 0, 64, 76
2, 25161, Note_off_c, 0, 64, 80
2, 25200, Note_on_c, 0, 67, 76
2, 25401, Note_off_c, 0, 67, 80
2, 25440, Note_on_c, 0, 69, 76
2, 25514, Note_on_c, 0, 65, 76
2, 25595, Note_off_c, 0, 65, 80
2, 25641, Note_off_c, 0, 69, 80
2, 25680, Note_on_c, 0, 64, 76
2, 25680, Note_on_c, 0, 72, 76
2, 25881, Note_off_c, 0, 64, 80
2, 26121, Note_off_c, 0, 72, 80
2, 26160, Note_on_c, 0, 72, 76
2, 26361, Note_off_c, 0, 72, 80
2, 26640, Note_on_c, 0, 72, 76
2, 26841, Note_off_c, 0, 72, 80
2, 26954, Note_on_c, 0, 75, 76
2, 27120, Note_on_c, 0, 60, 76
2, 27120, Note_on_c, 0, 63, 76
2, 27201, Note_off_c, 0, 60, 80
2, 27201, Note_off_c, 0, 63, 80
2, 27240, Note_on_c, 0, 64, 76
2, 27321, Note_off_c, 0, 64, 80
2, 27360, Note_on_c, 0, 67, 76
2, 27561, Note_off_c, 0, 67, 80
2, 27600, Note_on_c, 0, 64, 76
2, 27600, Note_on_c, 0, 69, 76
2, 27801, Note_off_c, 0, 64, 80
2, 27801, Note_off_c, 0, 69, 80
2, 27840, Note_on_c, 0, 72, 76
2, 28041, Note_off_c, 0, 72, 80
2, 28080, Note_on_c, 0, 72, 76
2, 28281, Note_off_c, 0, 72, 80
2, 28320, Note_on_c, 0, 69, 76
2, 28355, Note_off_c, 0, 75, 80
2, 28521, Note_off_c, 0, 69, 80
2, 28560, Note_on_c, 0, 72, 76
2, 28761, Note_off_c, 0, 72, 80
2, 28800, Note_on_c, 0, 68, 76
2, 28874, Note_on_c, 0, 60, 76
2, 28881, Note_off_c, 0, 68, 80
2, 28920, Note_on_c, 0, 69, 76
2, 28955, Note_off_c, 0, 60, 80
2, 29001, Note_off_c, 0, 69, 80
2, 29040, Note_on_c, 0, 72, 76
2, 29241, Note_off_c, 0, 72, 80
2, 29280, Note_on_c, 0, 74, 76
2, 29481, Note_off_c, 0, 74, 80
2, 29520, Note_on_c, 0, 69, 76
2, 29520, Note_on_c, 0, 77, 76
2, 30681, Note_off_c, 0, 69, 80
2, 30681, Note_off_c, 0, 77, 80
2, 30720, Note_on_c, 0, 72, 76
2, 30720, Note_on_c, 0, 80, 76
2, 30794, Note_on_c, 0, 69, 76
2, 30995, Note_off_c, 0, 69, 80
2, 32121, Note_off_c, 0, 72, 80
2, 32121, Note_off_c, 0, 80, 80
2, 32160, Note_on_c, 0, 72, 76
2, 32160, Note_on_c, 0, 75, 76
2, 32160, Note_on_c, 0, 80, 76
2, 32241, Note_off_c, 0, 72, 80
2, 32241, Note_off_c, 0, 75, 80
2, 32241, Note_off_c, 0, 80, 80
2, 32280, Note_on_c, 0, 72, 76
2, 32280, Note_on_c, 0, 75, 76
2, 32280, Note_on_c, 0, 80, 76
2, 32601, Note_off_c, 0, 72, 80
2, 32601, Note_off_c, 0, 75, 80
2, 32601, Note_off_c, 0, 80, 80
2, 32640, Note_on_c, 0, 63, 76
2, 32721, Note_off_c, 0, 63, 80
2, 32760, Note_on_c, 0, 64, 76
2, 32841, Note_off_c, 0, 64, 80
2, 32880, Note_on_c, 0, 67, 76
2, 33081, Note_off_c, 0, 67, 80
2, 33120, Note_on_c, 0, 69, 76
2, 33194, Note_on_c, 0, 63, 76
2, 33275, Note_off_c, 0, 63, 80
2, 33321, Note_off_c, 0, 69, 80
2, 33360, Note_on_c, 0, 64, 76
2, 33360, Note_on_c, 0, 72, 76
2, 33561, Note_off_c, 0, 64, 80
2, 33801, Note_off_c, 0, 72, 80
2, 33840, Note_on_c, 0, 72, 76
2, 34041, Note_off_c, 0, 72, 80
2, 34320, Note_on_c, 0, 72, 76
2, 34521, Note_off_c, 0, 72, 80
2, 34597, Note_on_c, 0, 60, 76
2, 34678, Note_off_c, 0, 60, 80
2, 34800, Note_on_c, 0, 60, 76
2, 34800, Note_on_c, 0, 63, 76
2, 34881, Note_off_c, 0, 60, 80
2, 34881, Note_off_c, 0, 63, 80
2, 34920, Note_on_c, 0, 64, 76
2, 35001, Note_off_c, 0, 64, 80
2, 35040, Note_on_c, 0, 67, 76
2, 35241, Note_off_c, 0, 67, 80
2, 35280, Note_on_c, 0, 64, 76
2, 35280, Note_on_c, 0, 69, 76
2, 35481, Note_off_c, 0, 64, 80
2, 35481, Note_off_c, 0, 69, 80
2, 35520, Note_on_c, 0, 72, 76
2, 35721, Note_off_c, 0, 72, 80
2, 35760, Note_on_c, 0, 72, 76
2, 35961, Note_off_c, 0, 72, 80
2, 36000, Note_on_c, 0, 69, 76
2, 36201, Note_off_c, 0, 69, 80
2, 36240, Note_on_c, 0, 72, 76
2, 36441, Note_off_c, 0, 72, 80
2, 36600, Note_on_c, 0, 64, 76
2, 36681, Note_off_c, 0, 64, 80
2, 36720, Note_on_c, 0, 67, 76
2, 36921, Note_off_c, 0, 67, 80
2, 36960, Note_on_c, 0, 69, 76
2, 37161, Note_off_c, 0, 69, 80
2, 37200, Note_on_c, 0, 64, 76
2, 37200, Note_on_c, 0, 72, 76
2, 37401, Note_off_c, 0, 64, 80
2, 37641, Note_off_c, 0, 72, 80
2, 37680, Note_on_c, 0, 72, 76
2, 37881, Note_off_c, 0, 72, 80
2, 37920, Note_on_c, 0, 69, 76
2, 38121, Note_off_c, 0, 69, 80
2, 38160, Note_on_c, 0, 72, 76
2, 38361, Note_off_c, 0, 72, 80
2, 38640, Note_on_c, 0, 60, 76
2, 38640, Note_on_c, 0, 63, 76
2, 38721, Note_off_c, 0, 60, 80
2, 38721, Note_off_c, 0, 63, 80
2, 38760, Note_on_c, 0, 64, 76
2, 38841, Note_off_c, 0, 64, 80
2, 38880, Note_on_c, 0, 67, 76
2, 39081, Note_off_c, 0, 67, 80
2, 39120, Note_on_c, 0, 64, 76
2, 39120, Note_on_c, 0, 69, 76
2, 39321, Note_off_c, 0, 64, 80
2, 39321, Note_off_c, 0, 69, 80
2, 39360, Note_on_c, 0, 72, 76
2, 39561, Note_off_c, 0, 72, 80
2, 39600, Note_on_c, 0, 72, 76
2, 39801, Note_off_c, 0, 72, 80
2, 39840, Note_on_c, 0, 69, 76
2, 40041, Note_off_c, 0, 69, 80
2, 40080, Note_on_c, 0, 72, 76
2, 40281, Note_off_c, 0, 72, 80
2, 40320, Note_on_c, 0, 60, 76
2, 40320, Note_on_c, 0, 63, 76
2, 40401, Note_off_c, 0, 60, 80
2, 40401, Note_off_c, 0, 63, 80
2, 40440, Note_on_c, 0, 64, 76
2, 40521, Note_off_c, 0, 64, 80
2, 40560, Note_on_c, 0, 67, 76
2, 40761, Note_off_c, 0, 67, 80
2, 40800, Note_on_c, 0, 69, 76
2, 41001, Note_off_c, 0, 69, 80
2, 41040, Note_on_c, 0, 64, 76
2, 41040, Note_on_c, 0, 72, 76
2, 41241, Note_off_c, 0, 64, 80
2, 41481, Note_off_c, 0, 72, 80
2, 41520, Note_on_c, 0, 72, 76
2, 41721, Note_off_c, 0, 72, 80
2, 41760, Note_on_c, 0, 69, 76
2, 41961, Note_off_c, 0, 69, 80
2, 42000, Note_on_c, 0, 72, 76
2, 42201, Note_off_c, 0, 72, 80
2, 42480, Note_on_c, 0, 60, 76
2, 42480, Note_on_c, 0, 63, 76
2, 42561, Note_off_c, 0, 63, 80
2, 42600, Note_on_c, 0, 64, 76
2, 42681, Note_off_c, 0, 64, 80
2, 42720, Note_on_c, 0, 67, 76
2, 42921, Note_off_c, 0, 67, 80
2, 42960, Note_on_c, 0, 64, 76
2, 42960, Note_on_c, 0, 69, 76
2, 43161, Note_off_c, 0, 64, 80
2, 43161, Note_off_c, 0, 69, 80
2, 43200, Note_on_c, 0, 72, 76
2, 43401, Note_off_c, 0, 72, 80
2, 43440, Note_on_c, 0, 72, 76
2, 43641, Note_off_c, 0, 72, 80
2, 43680, Note_on_c, 0, 69, 76
2, 43881, Note_off_c, 0, 60, 80
2, 43881, Note_off_c, 0, 69, 80
2, 43920, Note_on_c, 0, 72, 76
2, 44121, Note_off_c, 0, 72, 80
2, 44160, Note_on_c, 0, 65, 76
2, 44160, Note_on_c, 0, 68, 76
2, 44241, Note_off_c, 0, 65, 80
2, 44241, Note_off_c, 0, 68, 80
2, 44280, Note_on_c, 0, 69, 76
2, 44361, Note_off_c, 0, 69, 80
2, 44400, Note_on_c, 0, 72, 76
2, 44601, Note_off_c, 0, 72, 80
2, 44640, Note_on_c, 0, 74, 76
2, 44841, Note_off_c, 0, 74, 80
2, 44880, Note_on_c, 0, 69, 76
2, 44880, Note_on_c, 0, 77, 76
2, 46041, Note_off_c, 0, 69, 80
2, 46041, Note_off_c, 0, 77, 80
2, 46080, Note_on_c, 0, 72, 76
2, 46080, Note_on_c, 0, 75, 76
2, 46080, Note_on_c, 0, 80, 95
2, 47481, Note_off_c, 0, 72, 80
2, 47481, Note_off_c, 0, 75, 80
2, 47481, Note_off_c, 0, 80, 80
2, 47520, Note_on_c, 0, 72, 76
2, 47520, Note_on_c, 0, 75, 76
2, 47520, Note_on_c, 0, 80, 76
2, 47601, Note_off_c, 0, 72, 80
2, 47601, Note_off_c, 0, 75, 80
2, 47601, Note_off_c, 0, 80, 80
2, 47640, Note_on_c, 0, 72, 76
2, 47640, Note_on_c, 0, 75, 76
2, 47640, Note_on_c, 0, 80, 76
2, 47961, Note_off_c, 0, 72, 80
2, 47961, Note_off_c, 0, 75, 80
2, 47961, Note_off_c, 0, 80, 80
2, 48240, Note_on_c, 0, 64, 76
2, 48240, Note_on_c, 0, 67, 76
2, 48441, Note_off_c, 0, 64, 80
2, 48441, Note_off_c, 0, 67, 80
2, 48480, Note_on_c, 0, 68, 76
2, 48681, Note_off_c, 0, 68, 80
2, 48720, Note_on_c, 0, 71, 76
2, 48921, Note_off_c, 0, 71, 80
2, 48960, Note_on_c, 0, 67, 76
2, 48960, Note_on_c, 0, 73, 76
2, 49161, Note_off_c, 0, 67, 80
2, 49161, Note_off_c, 0, 73, 80
2, 49200, Note_on_c, 0, 76, 76
2, 49881, Note_off_c, 0, 76, 80
2, 50160, Note_on_c, 0, 71, 76
2, 50160, Note_on_c, 0, 79, 76
2, 50361, Note_off_c, 0, 71, 80
2, 50361, Note_off_c, 0, 79, 80
2, 50400, Note_on_c, 0, 71, 76
2, 50400, Note_on_c, 0, 79, 76
2, 50601, Note_off_c, 0, 71, 80
2, 50601, Note_off_c, 0, 79, 80
2, 50640, Note_on_c, 0, 74, 76
2, 50841, Note_off_c, 0, 74, 80
2, 50880, Note_on_c, 0, 71, 76
2, 50880, Note_on_c, 0, 79, 76
2, 51321, Note_off_c, 0, 71, 80
2, 51321, Note_off_c, 0, 79, 80
2, 51360, Note_on_c, 0, 71, 76
2, 51360, Note_on_c, 0, 79, 76
2, 51441, Note_off_c, 0, 71, 80
2, 51441, Note_off_c, 0, 79, 80
2, 51480, Note_on_c, 0, 71, 76
2, 51480, Note_on_c, 0, 79, 76
2, 51801, Note_off_c, 0, 71, 80
2, 51801, Note_off_c, 0, 79, 80
2, 51840, Note_on_c, 0, 60, 76
2, 51840, Note_on_c, 0, 63, 76
2, 51921, Note_off_c, 0, 60, 80
2, 51921, Note_off_c, 0, 63, 80
2, 51960, Note_on_c, 0, 64, 76
2, 52041, Note_off_c, 0, 64, 80
2, 52080, Note_on_c, 0, 67, 76
2, 52281, Note_off_c, 0, 67, 80
2, 52320, Note_on_c, 0, 69, 76
2, 52521, Note_off_c, 0, 69, 80
2, 52560, Note_on_c, 0, 64, 76
2, 52560, Note_on_c, 0, 72, 76
2, 52761, Note_off_c, 0, 64, 80
2, 53001, Note_off_c, 0, 72, 80
2, 53040, Note_on_c, 0, 72, 76
2, 53241, Note_off_c, 0, 72, 80
2, 53280, Note_on_c, 0, 69, 76
2, 53481, Note_off_c, 0, 69, 80
2, 53520, Note_on_c, 0, 72, 76
2, 53721, Note_off_c, 0, 72, 80
2, 54000, Note_on_c, 0, 60, 76
2, 54000, Note_on_c, 0, 63, 76
2, 54081, Note_off_c, 0, 60, 80
2, 54081, Note_off_c, 0, 63, 80
2, 54120, Note_on_c, 0, 64, 76
2, 54201, Note_off_c, 0, 64, 80
2, 54240, Note_on_c, 0, 67, 76
2, 54441, Note_off_c, 0, 67, 80
2, 54480, Note_on_c, 0, 64, 76
2, 54480, Note_on_c, 0, 69, 76
2, 54681, Note_off_c, 0, 64, 80
2, 54681, Note_off_c, 0, 69, 80
2, 54720, Note_on_c, 0, 72, 76
2, 54921, Note_off_c, 0, 72, 80
2, 54960, Note_on_c, 0, 72, 76
2, 55161, Note_off_c, 0, 72, 80
2, 55200, Note_on_c, 0, 69, 76
2, 55401, Note_off_c, 0, 69, 80
2, 55440, Note_on_c, 0, 72, 76
2, 55641, Note_off_c, 0, 72, 80
2, 55680, Note_on_c, 0, 60, 76
2, 55680, Note_on_c, 0, 63, 76
2, 55761, Note_off_c, 0, 60, 80
2, 55761, Note_off_c, 0, 63, 80
2, 55800, Note_on_c, 0, 64, 76
2, 55881, Note_off_c, 0, 64, 80
2, 55920, Note_on_c, 0, 67, 76
2, 56121, Note_off_c, 0, 67, 80
2, 56160, Note_on_c, 0, 69, 76
2, 56361, Note_off_c, 0, 69, 80
2, 56400, Note_on_c, 0, 64, 76
2, 56400, Note_on_c, 0, 72, 76
2, 56601, Note_off_c, 0, 64, 80
2, 56841, Note_off_c, 0, 72, 80
2, 56880, Note_on_c, 0, 72, 76
2, 57081, Note_off_c, 0, 72, 80
2, 57120, Note_on_c, 0, 69, 76
2, 57321, Note_off_c, 0, 69, 80
2, 57360, Note_on_c, 0, 72, 76
2, 57561, Note_off_c, 0, 72, 80
2, 57840, Note_on_c, 0, 60, 76
2, 57840, Note_on_c, 0, 63, 76
2, 57921, Note_off_c, 0, 60, 80
2, 57921, Note_off_c, 0, 63, 80
2, 57960, Note_on_c, 0, 64, 76
2, 58041, Note_off_c, 0, 64, 80
2, 58080, Note_on_c, 0, 67, 76
2, 58281, Note_off_c, 0, 67, 80
2, 58320, Note_on_c, 0, 64, 76
2, 58320, Note_on_c, 0, 69, 76
2, 58521, Note_off_c, 0, 64, 80
2, 58521, Note_off_c, 0, 69, 80
2, 58560, Note_on_c, 0, 72, 76
2, 58761, Note_off_c, 0, 72, 80
2, 58800, Note_on_c, 0, 72, 76
2, 59001, Note_off_c, 0, 72, 80
2, 59040, Note_on_c, 0, 69, 76
2, 59241, Note_off_c, 0, 69, 80
2, 59280, Note_on_c, 0, 72, 76
2, 59481, Note_off_c, 0, 72, 80
2, 59520, Note_on_c, 0, 60, 76
2, 59520, Note_on_c, 0, 63, 76
2, 59601, Note_off_c, 0, 60, 80
2, 59601, Note_off_c, 0, 63, 80
2, 59640, Note_on_c, 0, 64, 76
2, 59721, Note_off_c, 0, 64, 80
2, 59760, Note_on_c, 0, 67, 76
2, 59961, Note_off_c, 0, 67, 80
2, 60000, Note_on_c, 0, 69, 76
2, 60201, Note_off_c, 0, 69, 80
2, 60240, Note_on_c, 0, 64, 76
2, 60240, Note_on_c, 0, 72, 76
2, 60441, Note_off_c, 0, 64, 80
2, 60681, Note_off_c, 0, 72, 80
2, 60720, Note_on_c, 0, 72, 76
2, 60921, Note_off_c, 0, 72, 80
2, 60960, Note_on_c, 0, 69, 76
2, 61161, Note_off_c, 0, 69, 80
2, 61200, Note_on_c, 0, 72, 76
2, 61401, Note_off_c, 0, 72, 80
2, 61680, Note_on_c, 0, 60, 76
2, 61680, Note_on_c, 0, 63, 76
2, 61761, Note_off_c, 0, 63, 80
2, 61800, Note_on_c, 0, 64, 76
2, 61881, Note_off_c, 0, 64, 80
2, 61920, Note_on_c, 0, 67, 76
2, 62121, Note_off_c, 0, 67, 80
2, 62160, Note_on_c, 0, 64, 76
2, 62160, Note_on_c, 0, 69, 76
2, 62361, Note_off_c, 0, 64, 80
2, 62361, Note_off_c, 0, 69, 80
2, 62400, Note_on_c, 0, 72, 76
2, 62601, Note_off_c, 0, 72, 80
2, 62640, Note_on_c, 0, 72, 76
2, 62841, Note_off_c, 0, 72, 80
2, 62880, Note_on_c, 0, 69, 76
2, 63081, Note_off_c, 0, 60, 80
2, 63081, Note_off_c, 0, 69, 80
2, 63120, Note_on_c, 0, 72, 76
2, 63321, Note_off_c, 0, 72, 80
2, 63360, Note_on_c, 0, 65, 76
2, 63360, Note_on_c, 0, 68, 76
2, 63441, Note_off_c, 0, 65, 80
2, 63441, Note_off_c, 0, 68, 80
2, 63480, Note_on_c, 0, 69, 76
2, 63561, Note_off_c, 0, 69, 80
2, 63600, Note_on_c, 0, 72, 76
2, 63801, Note_off_c, 0, 72, 80
2, 63840, Note_on_c, 0, 74, 76
2, 64041, Note_off_c, 0, 74, 80
2, 64080, Note_on_c, 0, 69, 76
2, 64080, Note_on_c, 0, 77, 76
2, 65241, Note_off_c, 0, 69, 80
2, 65241, Note_off_c, 0, 77, 80
2, 65280, Note_on_c, 0, 72, 76
2, 65280, Note_on_c, 0, 75, 76
2, 65280, Note_on_c, 0, 80, 76
2, 66681, Note_off_c, 0, 72, 80
2, 66681, Note_off_c, 0, 75, 80
2, 66681, Note_off_c, 0, 80, 80
2, 66720, Note_on_c, 0, 72, 76
2, 66720, Note_on_c, 0, 75, 76
2, 66720, Note_on_c, 0, 80, 76
2, 66801, Note_off_c, 0, 72, 80
2, 66801, Note_off_c, 0, 75, 80
2, 66801, Note_off_c, 0, 80, 80
2, 66840, Note_on_c, 0, 72, 76
2, 66840, Note_on_c, 0, 75, 76
2, 66840, Note_on_c, 0, 80, 76
2, 67161, Note_off_c, 0, 72, 80
2, 67161, Note_off_c, 0, 75, 80
2, 67161, Note_off_c, 0, 80, 80
2, 67440, Note_on_c, 0, 64, 76
2, 67440, Note_on_c, 0, 67, 76
2, 67641, Note_off_c, 0, 64, 80
2, 67641, Note_off_c, 0, 67, 80
2, 67680, Note_on_c, 0, 68, 76
2, 67881, Note_off_c, 0, 68, 80
2, 67920, Note_on_c, 0, 71, 76
2, 68121, Note_off_c, 0, 71, 80
2, 68160, Note_on_c, 0, 67, 76
2, 68160, Note_on_c, 0, 73, 76
2, 68361, Note_off_c, 0, 67, 80
2, 68361, Note_off_c, 0, 73, 80
2, 68400, Note_on_c, 0, 76, 76
2, 69081, Note_off_c, 0, 76, 80
2, 69360, Note_on_c, 0, 71, 76
2, 69360, Note_on_c, 0, 79, 76
2, 69561, Note_off_c, 0, 71, 80
2, 69561, Note_off_c, 0, 79, 80
2, 69600, Note_on_c, 0, 71, 76
2, 69600, Note_on_c, 0, 79, 76
2, 69801, Note_off_c, 0, 71, 80
2, 69801, Note_off_c, 0, 79, 80
2, 69840, Note_on_c, 0, 74, 76
2, 70041, Note_off_c, 0, 74, 80
2, 70080, Note_on_c, 0, 71, 76
2, 70080, Note_on_c, 0, 79, 76
2, 70521, Note_off_c, 0, 71, 80
2, 70521, Note_off_c, 0, 79, 80
2, 70560, Note_on_c, 0, 71, 76
2, 70560, Note_on_c, 0, 79, 76
2, 70641, Note_off_c, 0, 71, 80
2, 70641, Note_off_c, 0, 79, 80
2, 70680, Note_on_c, 0, 71, 76
2, 70680, Note_on_c, 0, 79, 76
2, 71001, Note_off_c, 0, 71, 80
2, 71001, Note_off_c, 0, 79, 80
2, 71040, Note_on_c, 0, 60, 76
2, 71040, Note_on_c, 0, 63, 76
2, 71121, Note_off_c, 0, 60, 80
2, 71121, Note_off_c, 0, 63, 80
2, 71160, Note_on_c, 0, 64, 76
2, 71241, Note_off_c, 0, 64, 80
2, 71280, Note_on_c, 0, 67, 76
2, 71481, Note_off_c, 0, 67, 80
2, 71520, Note_on_c, 0, 69, 76
2, 71721, Note_off_c, 0, 69, 80
2, 71760, Note_on_c, 0, 64, 76
2, 71760, Note_on_c, 0, 72, 76
2, 71961, Note_off_c, 0, 64, 80
2, 72201, Note_off_c, 0, 72, 80
2, 72240, Note_on_c, 0, 72, 76
2, 72441, Note_off_c, 0, 72, 80
2, 72480, Note_on_c, 0, 69, 76
2, 72681, Note_off_c, 0, 69, 80
2, 72720, Note_on_c, 0, 72, 76
2, 72921, Note_off_c, 0, 72, 80
2, 73200, Note_on_c, 0, 60, 76
2, 73200, Note_on_c, 0, 63, 76
2, 73281, Note_off_c, 0, 60, 80
2, 73281, Note_off_c, 0, 63, 80
2, 73320, Note_on_c, 0, 64, 76
2, 73401, Note_off_c, 0, 64, 80
2, 73440, Note_on_c, 0, 67, 76
2, 73641, Note_off_c, 0, 67, 80
2, 73680, Note_on_c, 0, 64, 76
2, 73680, Note_on_c, 0, 69, 76
2, 73881, Note_off_c, 0, 64, 80
2, 73881, Note_off_c, 0, 69, 80
2, 73920, Note_on_c, 0, 72, 76
2, 74121, Note_off_c, 0, 72, 80
2, 74160, Note_on_c, 0, 72, 76
2, 74361, Note_off_c, 0, 72, 80
2, 74400, Note_on_c, 0, 69, 76
2, 74601, Note_off_c, 0, 69, 80
2, 74640, Note_on_c, 0, 72, 76
2, 74841, Note_off_c, 0, 72, 80
2, 74880, Note_on_c, 0, 60, 76
2, 74880, Note_on_c, 0, 63, 76
2, 74961, Note_off_c, 0, 60, 80
2, 74961, Note_off_c, 0, 63, 80
2, 75000, Note_on_c, 0, 64, 76
2, 75081, Note_off_c, 0, 64, 80
2, 75120, Note_on_c, 0, 67, 76
2, 75321, Note_off_c, 0, 67, 80
2, 75360, Note_on_c, 0, 69, 76
2, 75561, Note_off_c, 0, 69, 80
2, 75600, Note_on_c, 0, 64, 76
2, 75600, Note_on_c, 0, 72, 76
2, 75801, Note_off_c, 0, 64, 80
2, 76041, Note_off_c, 0, 72, 80
2, 76080, Note_on_c, 0, 72, 76
2, 76281, Note_off_c, 0, 72, 80
2, 76320, Note_on_c, 0, 69, 76
2, 76521, Note_off_c, 0, 69, 80
2, 76560, Note_on_c, 0, 72, 76
2, 76761, Note_off_c, 0, 72, 80
2, 77040, Note_on_c, 0, 60, 76
2, 77040, Note_on_c, 0, 63, 76
2, 77121, Note_off_c, 0, 60, 80
2, 77121, Note_off_c, 0, 63, 80
2, 77160, Note_on_c, 0, 64, 76
2, 77241, Note_off_c, 0, 64, 80
2, 77280, Note_on_c, 0, 67, 76
2, 77481, Note_off_c, 0, 67, 80
2, 77520, Note_on_c, 0, 64, 76
2, 77520, Note_on_c, 0, 69, 76
2, 77721, Note_off_c, 0, 64, 80
2, 77721, Note_off_c, 0, 69, 80
2, 77760, Note_on_c, 0, 72, 76
2, 77961, Note_off_c, 0, 72, 80
2, 78000, Note_on_c, 0, 72, 76
2, 78201, Note_off_c, 0, 72, 80
2, 78240, Note_on_c, 0, 69, 76
2, 78441, Note_off_c, 0, 69, 80
2, 78480, Note_on_c, 0, 72, 76
2, 78681, Note_off_c, 0, 72, 80
2, 78720, Note_on_c, 0, 60, 76
2, 78720, Note_on_c, 0, 63, 76
2, 78801, Note_off_c, 0, 60, 80
2, 78801, Note_off_c, 0, 63, 80
2, 78840, Note_on_c, 0, 64, 76
2, 78921, Note_off_c, 0, 64, 80
2, 78960, Note_on_c, 0, 67, 76
2, 79161, Note_off_c, 0, 67, 80
2, 79200, Note_on_c, 0, 69, 76
2, 79401, Note_off_c, 0, 69, 80
2, 79440, Note_on_c, 0, 64, 76
2, 79440, Note_on_c, 0, 72, 76
2, 79641, Note_off_c, 0, 64, 80
2, 79881, Note_off_c, 0, 72, 80
2, 79920, Note_on_c, 0, 72, 76
2, 80121, Note_off_c, 0, 72, 80
2, 80160, Note_on_c, 0, 69, 76
2, 80361, Note_off_c, 0, 69, 80
2, 80400, Note_on_c, 0, 72, 76
2, 80601, Note_off_c, 0, 72, 80
2, 80880, Note_on_c, 0, 60, 76
2, 80880, Note_on_c, 0, 63, 76
2, 80961, Note_off_c, 0, 63, 80
2, 81000, Note_on_c, 0, 64, 76
2, 81081, Note_off_c, 0, 64, 80
2, 81120, Note_on_c, 0, 67, 76
2, 81321, Note_off_c, 0, 67, 80
2, 81360, Note_on_c, 0, 64, 76
2, 81360, Note_on_c, 0, 69, 76
2, 81561, Note_off_c, 0, 64, 80
2, 81561, Note_off_c, 0, 69, 80
2, 81600, Note_on_c, 0, 72, 76
2, 81801, Note_off_c, 0, 72, 80
2, 81840, Note_on_c, 0, 72, 76
2, 82041, Note_off_c, 0, 72, 80
2, 82080, Note_on_c, 0, 69, 76
2, 82281, Note_off_c, 0, 60, 80
2, 82281, Note_off_c, 0, 69, 80
2, 82320, Note_on_c, 0, 72, 76
2, 82521, Note_off_c, 0, 72, 80
2, 82560, Note_on_c, 0, 65, 76
2, 82560, Note_on_c, 0, 68, 76
2, 82641, Note_off_c, 0, 65, 80
2, 82641, Note_off_c, 0, 68, 80
2, 82680, Note_on_c, 0, 69, 76
2, 82761, Note_off_c, 0, 69, 80
2, 82800, Note_on_c, 0, 72, 76
2, 83001, Note_off_c, 0, 72, 80
2, 83040, Note_on_c, 0, 74, 76
2, 83241, Note_off_c, 0, 74, 80
2, 83280, Note_on_c, 0, 69, 76
2, 83280, Note_on_c, 0, 77, 76
2, 84441, Note_off_c, 0, 69, 80
2, 84441, Note_off_c, 0, 77, 80
2, 84480, Note_on_c, 0, 72, 76
2, 84480, Note_on_c, 0, 75, 76
2, 84480, Note_on_c, 0, 80, 76
2, 85881, Note_off_c, 0, 72, 80
2, 85881, Note_off_c, 0, 75, 80
2, 85881, Note_off_c, 0, 80, 80
2, 85920, Note_on_c, 0, 72, 76
2, 85920, Note_on_c, 0, 75, 76
2, 85920, Note_on_c, 0, 80, 76
2, 86001, Note_off_c, 0, 72, 80
2, 86001, Note_off_c, 0, 75, 80
2, 86001, Note_off_c, 0, 80, 80
2, 86040, Note_on_c, 0, 72, 76
2, 86040, Note_on_c, 0, 75, 76
2, 86040, Note_on_c, 0, 80, 76
2, 86361, Note_off_c, 0, 72, 80
2, 86361, Note_off_c, 0, 75, 80
2, 86361, Note_off_c, 0, 80, 80
2, 86640, Note_on_c, 0, 64, 76
2, 86640, Note_on_c, 0, 67, 76
2, 86841, Note_off_c, 0, 64, 80
2, 86841, Note_off_c, 0, 67, 80
2, 86880, Note_on_c, 0, 68, 76
2, 87081, Note_off_c, 0, 68, 80
2, 87120, Note_on_c, 0, 71, 76
2, 87321, Note_off_c, 0, 71, 80
2, 87360, Note_on_c, 0, 67, 76
2, 87360, Note_on_c, 0, 73, 76
2, 87561, Note_off_c, 0, 67, 80
2, 87561, Note_off_c, 0, 73, 80
2, 87600, Note_on_c, 0, 76, 76
2, 88281, Note_off_c, 0, 76, 80
2, 88560, Note_on_c, 0, 71, 76
2, 88560, Note_on_c, 0, 79, 76
2, 88761, Note_off_c, 0, 71, 80
2, 88761, Note_off_c, 0, 79, 80
2, 88800, Note_on_c, 0, 71, 76
2, 88800, Note_on_c, 0, 79, 76
2, 89001, Note_off_c, 0, 71, 80
2, 89001, Note_off_c, 0, 79, 80
2, 89040, Note_on_c, 0, 72, 76
2, 89040, Note_on_c, 0, 79, 76
2, 89241, Note_off_c, 0, 72, 80
2, 89241, Note_off_c, 0, 79, 80
2, 89280, Note_on_c, 0, 71, 76
2, 89280, Note_on_c, 0, 79, 76
2, 89721, Note_off_c, 0, 71, 80
2, 89721, Note_off_c, 0, 79, 80
2, 90240, Note_on_c, 0, 57, 76
2, 90240, Note_on_c, 0, 60, 76
2, 90240, Note_on_c, 0, 63, 76
2, 90240, Note_on_c, 0, 67, 76
2, 90441, Note_off_c, 0, 57, 80
2, 90441, Note_off_c, 0, 60, 80
2, 90441, Note_off_c, 0, 63, 80
2, 90441, Note_off_c, 0, 67, 80
2, 90480, Note_on_c, 0, 57, 76
2, 90480, Note_on_c, 0, 60, 76
2, 90480, Note_on_c, 0, 63, 76
2, 90480, Note_on_c, 0, 67, 76
2, 90681, Note_off_c, 0, 57, 80
2, 90681, Note_off_c, 0, 60, 80
2, 90681, Note_off_c, 0, 63, 80
2, 90681, Note_off_c, 0, 67, 80
2, 90720, Note_on_c, 0, 57, 76
2, 90720, Note_on_c, 0, 60, 76
2, 90720, Note_on_c, 0, 63, 76
2, 90720, Note_on_c, 0, 67, 76
2, 90921, Note_off_c, 0, 57, 80
2, 90921, Note_off_c, 0, 60, 80
2, 90921, Note_off_c, 0, 63, 80
2, 90921, Note_off_c, 0, 67, 80
2, 90960, Note_on_c, 0, 57, 76
2, 90960, Note_on_c, 0, 60, 76
2, 90960, Note_on_c, 0, 63, 76
2, 90960, Note_on_c, 0, 67, 76
2, 91161, Note_off_c, 0, 57, 80
2, 91161, Note_off_c, 0, 60, 80
2, 91161, Note_off_c, 0, 63, 80
2, 91161, Note_off_c, 0, 67, 80
2, 91200, Note_on_c, 0, 57, 76
2, 91200, Note_on_c, 0, 60, 76
2, 91200, Note_on_c, 0, 63, 76
2, 91200, Note_on_c, 0, 67, 76
2, 91401, Note_off_c, 0, 57, 80
2, 91401, Note_off_c, 0, 60, 80
2, 91401, Note_off_c, 0, 63, 80
2, 91401, Note_off_c, 0, 67, 80
2, 91440, Note_on_c, 0, 57, 76
2, 91440, Note_on_c, 0, 60, 76
2, 91440, Note_on_c, 0, 63, 76
2, 91440, Note_on_c, 0, 67, 76
2, 91641, Note_off_c, 0, 57, 80
2, 91641, Note_off_c, 0, 60, 80
2, 91641, Note_off_c, 0, 63, 80
2, 91641, Note_off_c, 0, 67, 80
2, 91680, Note_on_c, 0, 57, 76
2, 91680, Note_on_c, 0, 60, 76
2, 91680, Note_on_c, 0, 63, 76
2, 91680, Note_on_c, 0, 67, 76
2, 91881, Note_off_c, 0, 57, 80
2, 91881, Note_off_c, 0, 60, 80
2, 91881, Note_off_c, 0, 63, 80
2, 91881, Note_off_c, 0, 67, 80
2, 91920, Note_on_c, 0, 57, 76
2, 91920, Note_on_c, 0, 60, 76
2, 91920, Note_on_c, 0, 63, 76
2, 91920, Note_on_c, 0, 67, 76
2, 92121, Note_off_c, 0, 57, 80
2, 92121, Note_off_c, 0, 60, 80
2, 92121, Note_off_c, 0, 63, 80
2, 92121, Note_off_c, 0, 67, 80
2, 92160, Note_on_c, 0, 57, 76
2, 92160, Note_on_c, 0, 60, 76
2, 92160, Note_on_c, 0, 63, 76
2, 92160, Note_on_c, 0, 67, 76
2, 92361, Note_off_c, 0, 57, 80
2, 92361, Note_off_c, 0, 60, 80
2, 92361, Note_off_c, 0, 63, 80
2, 92361, Note_off_c, 0, 67, 80
2, 92400, Note_on_c, 0, 57, 76
2, 92400, Note_on_c, 0, 60, 76
2, 92400, Note_on_c, 0, 63, 76
2, 92400, Note_on_c, 0, 67, 76
2, 92601, Note_off_c, 0, 57, 80
2, 92601, Note_off_c, 0, 60, 80
2, 92601, Note_off_c, 0, 63, 80
2, 92601, Note_off_c, 0, 67, 80
2, 92640, Note_on_c, 0, 57, 76
2, 92640, Note_on_c, 0, 60, 76
2, 92640, Note_on_c, 0, 63, 76
2, 92640, Note_on_c, 0, 67, 76
2, 92841, Note_off_c, 0, 57, 80
2, 92841, Note_off_c, 0, 60, 80
2, 92841, Note_off_c, 0, 63, 80
2, 92841, Note_off_c, 0, 67, 80
2, 92880, Note_on_c, 0, 57, 76
2, 92880, Note_on_c, 0, 60, 76
2, 92880, Note_on_c, 0, 63, 76
2, 92880, Note_on_c, 0, 67, 76
2, 93081, Note_off_c, 0, 57, 80
2, 93081, Note_off_c, 0, 60, 80
2, 93081, Note_off_c, 0, 63, 80
2, 93081, Note_off_c, 0, 67, 80
2, 93120, Note_on_c, 0, 62, 76
2, 93120, Note_on_c, 0, 67, 76
2, 93321, Note_off_c, 0, 62, 80
2, 93321, Note_off_c, 0, 67, 80
2, 93360, Note_on_c, 0, 60, 76
2, 93561, Note_off_c, 0, 60, 80
2, 93600, Note_on_c, 0, 62, 76
2, 93801, Note_off_c, 0, 62, 80
2, 93840, Note_on_c, 0, 57, 76
2, 94041, Note_off_c, 0, 57, 80
2, 94080, Note_on_c, 0, 57, 76
2, 94080, Note_on_c, 0, 60, 76
2, 94080, Note_on_c, 0, 63, 76
2, 94080, Note_on_c, 0, 67, 76
2, 94281, Note_off_c, 0, 57, 80
2, 94281, Note_off_c, 0, 60, 80
2, 94281, Note_off_c, 0, 63, 80
2, 94281, Note_off_c, 0, 67, 80
2, 94320, Note_on_c, 0, 57, 76
2, 94320, Note_on_c, 0, 60, 76
2, 94320, Note_on_c, 0, 63, 76
2, 94320, Note_on_c, 0, 67, 76
2, 94521, Note_off_c, 0, 57, 80
2, 94521, Note_off_c, 0, 60, 80
2, 94521, Note_off_c, 0, 63, 80
2, 94521, Note_off_c, 0, 67, 80
2, 94560, Note_on_c, 0, 57, 76
2, 94560, Note_on_c, 0, 60, 76
2, 94560, Note_on_c, 0, 63, 76
2, 94560, Note_on_c, 0, 67, 76
2, 94761, Note_off_c, 0, 57, 80
2, 94761, Note_off_c, 0, 60, 80
2, 94761, Note_off_c, 0, 63, 80
2, 94761, Note_off_c, 0, 67, 80
2, 94800, Note_on_c, 0, 57, 76
2, 94800, Note_on_c, 0, 60, 76
2, 94800, Note_on_c, 0, 63, 76
2, 94800, Note_on_c, 0, 67, 76
2, 95001, Note_off_c, 0, 57, 80
2, 95001, Note_off_c, 0, 60, 80
2, 95001, Note_off_c, 0, 63, 80
2, 95001, Note_off_c, 0, 67, 80
2, 95040, Note_on_c, 0, 57, 76
2, 95040, Note_on_c, 0, 60, 76
2, 95040, Note_on_c, 0, 63, 76
2, 95040, Note_on_c, 0, 67, 76
2, 95241, Note_off_c, 0, 57, 80
2, 95241, Note_off_c, 0, 60, 80
2, 95241, Note_off_c, 0, 63, 80
2, 95241, Note_off_c, 0, 67, 80
2, 95280, Note_on_c, 0, 57, 76
2, 95280, Note_on_c, 0, 60, 76
2, 95280, Note_on_c, 0, 63, 76
2, 95280, Note_on_c, 0, 67, 76
2, 95481, Note_off_c, 0, 57, 80
2, 95481, Note_off_c, 0, 60, 80
2, 95481, Note_off_c, 0, 63, 80
2, 95481, Note_off_c, 0, 67, 80
2, 95520, Note_on_c, 0, 57, 76
2, 95520, Note_on_c, 0, 60, 76
2, 95520, Note_on_c, 0, 63, 76
2, 95520, Note_on_c, 0, 67, 76
2, 95721, Note_off_c, 0, 57, 80
2, 95721, Note_off_c, 0, 60, 80
2, 95721, Note_off_c, 0, 63, 80
2, 95721, Note_off_c, 0, 67, 80
2, 95760, Note_on_c, 0, 57, 76
2, 95760, Note_on_c, 0, 60, 76
2, 95760, Note_on_c, 0, 63, 76
2, 95760, Note_on_c, 0, 67, 76
2, 95961, Note_off_c, 0, 57, 80
2, 95961, Note_off_c, 0, 60, 80
2, 95961, Note_off_c, 0, 63, 80
2, 95961, Note_off_c, 0, 67, 80
2, 96000, Note_on_c, 0, 60, 76
2, 96000, Note_on_c, 0, 63, 76
2, 96201, Note_off_c, 0, 60, 80
2, 96201, Note_off_c, 0, 63, 80
2, 96240, Note_on_c, 0, 60, 76
2, 96240, Note_on_c, 0, 64, 76
2, 96441, Note_off_c, 0, 60, 80
2, 96441, Note_off_c, 0, 64, 80
2, 96480, Note_on_c, 0, 60, 76
2, 96480, Note_on_c, 0, 65, 76
2, 96681, Note_off_c, 0, 60, 80
2, 96681, Note_off_c, 0, 65, 80
2, 96720, Note_on_c, 0, 60, 76
2, 96720, Note_on_c, 0, 66, 76
2, 96921, Note_off_c, 0, 60, 80
2, 96921, Note_off_c, 0, 66, 80
2, 96960, Note_on_c, 0, 60, 76
2, 96960, Note_on_c, 0, 67, 76
2, 97161, Note_off_c, 0, 60, 80
2, 97161, Note_off_c, 0, 67, 80
2, 97200, Note_on_c, 0, 60, 76
2, 97200, Note_on_c, 0, 63, 76
2, 97401, Note_off_c, 0, 60, 80
2, 97401, Note_off_c, 0, 63, 80
2, 97440, Note_on_c, 0, 60, 76
2, 97440, Note_on_c, 0, 67, 76
2, 97521, Note_off_c, 0, 60, 80
2, 97521, Note_off_c, 0, 67, 80
2, 97560, Note_on_c, 0, 60, 76
2, 97560, Note_on_c, 0, 67, 76
2, 97881, Note_off_c, 0, 60, 80
2, 97881, Note_off_c, 0, 67, 80
2, 97920, Note_on_c, 0, 61, 76
2, 97920, Note_on_c, 0, 64, 76
2, 97920, Note_on_c, 0, 69, 76
2, 98121, Note_off_c, 0, 61, 80
2, 98121, Note_off_c, 0, 64, 80
2, 98121, Note_off_c, 0, 69, 80
2, 98160, Note_on_c, 0, 61, 76
2, 98160, Note_on_c, 0, 64, 76
2, 98160, Note_on_c, 0, 69, 76
2, 98361, Note_off_c, 0, 61, 80
2, 98361, Note_off_c, 0, 64, 80
2, 98361, Note_off_c, 0, 69, 80
2, 98400, Note_on_c, 0, 61, 76
2, 98400, Note_on_c, 0, 64, 76
2, 98400, Note_on_c, 0, 69, 76
2, 98601, Note_off_c, 0, 61, 80
2, 98601, Note_off_c, 0, 64, 80
2, 98601, Note_off_c, 0, 69, 80
2, 98640, Note_on_c, 0, 61, 76
2, 98640, Note_on_c, 0, 64, 76
2, 98640, Note_on_c, 0, 69, 76
2, 98841, Note_off_c, 0, 61, 80
2, 98841, Note_off_c, 0, 64, 80
2, 98841, Note_off_c, 0, 69, 80
2, 98880, Note_on_c, 0, 61, 76
2, 98880, Note_on_c, 0, 64, 76
2, 98880, Note_on_c, 0, 69, 76
2, 99081, Note_off_c, 0, 61, 80
2, 99081, Note_off_c, 0, 64, 80
2, 99081, Note_off_c, 0, 69, 80
2, 99120, Note_on_c, 0, 61, 76
2, 99120, Note_on_c, 0, 64, 76
2, 99120, Note_on_c, 0, 69, 76
2, 99321, Note_off_c, 0, 61, 80
2, 99321, Note_off_c, 0, 64, 80
2, 99321, Note_off_c, 0, 69, 80
2, 99360, Note_on_c, 0, 61, 76
2, 99360, Note_on_c, 0, 64, 76
2, 99360, Note_on_c, 0, 69, 76
2, 99561, Note_off_c, 0, 61, 80
2, 99561, Note_off_c, 0, 64, 80
2, 99561, Note_off_c, 0, 69, 80
2, 99600, Note_on_c, 0, 61, 76
2, 99600, Note_on_c, 0, 64, 76
2, 99600, Note_on_c, 0, 69, 76
2, 99801, Note_off_c, 0, 61, 80
2, 99801, Note_off_c, 0, 64, 80
2, 99801, Note_off_c, 0, 69, 80
2, 99840, Note_on_c, 0, 61, 76
2, 99840, Note_on_c, 0, 69, 76
2, 100041, Note_off_c, 0, 61, 80
2, 100041, Note_off_c, 0, 69, 80
2, 100080, Note_on_c, 0, 62, 76
2, 100080, Note_on_c, 0, 71, 76
2, 100281, Note_off_c, 0, 62, 80
2, 100281, Note_off_c, 0, 71, 80
2, 100320, Note_on_c, 0, 63, 76
2, 100320, Note_on_c, 0, 72, 76
2, 100401, Note_off_c, 0, 63, 80
2, 100401, Note_off_c, 0, 72, 80
2, 100440, Note_on_c, 0, 64, 76
2, 100440, Note_on_c, 0, 73, 76
2, 100641, Note_off_c, 0, 64, 80
2, 100641, Note_off_c, 0, 73, 80
2, 100680, Note_on_c, 0, 64, 76
2, 100680, Note_on_c, 0, 73, 76
2, 100761, Note_off_c, 0, 64, 80
2, 100761, Note_off_c, 0, 73, 80
2, 100800, Note_on_c, 0, 61, 76
2, 100800, Note_on_c, 0, 69, 76
2, 101001, Note_off_c, 0, 61, 80
2, 101001, Note_off_c, 0, 69, 80
2, 101040, Note_on_c, 0, 63, 76
2, 101040, Note_on_c, 0, 71, 76
2, 101241, Note_off_c, 0, 63, 80
2, 101241, Note_off_c, 0, 71, 80
2, 101280, Note_on_c, 0, 63, 76
2, 101280, Note_on_c, 0, 72, 76
2, 101361, Note_off_c, 0, 63, 80
2, 101361, Note_off_c, 0, 72, 80
2, 101400, Note_on_c, 0, 64, 76
2, 101400, Note_on_c, 0, 72, 76
2, 101721, Note_off_c, 0, 64, 80
2, 101721, Note_off_c, 0, 72, 80
2, 101760, Note_on_c, 0, 61, 76
2, 101760, Note_on_c, 0, 64, 76
2, 101760, Note_on_c, 0, 69, 76
2, 101961, Note_off_c, 0, 61, 80
2, 101961, Note_off_c, 0, 64, 80
2, 101961, Note_off_c, 0, 69, 80
2, 102000, Note_on_c, 0, 61, 76
2, 102000, Note_on_c, 0, 64, 76
2, 102000, Note_on_c, 0, 69, 76
2, 102201, Note_off_c, 0, 61, 80
2, 102201, Note_off_c, 0, 64, 80
2, 102201, Note_off_c, 0, 69, 80
2, 102240, Note_on_c, 0, 61, 76
2, 102240, Note_on_c, 0, 64, 76
2, 102240, Note_on_c, 0, 69, 76
2, 102441, Note_off_c, 0, 61, 80
2, 102441, Note_off_c, 0, 64, 80
2, 102441, Note_off_c, 0, 69, 80
2, 102480, Note_on_c, 0, 61, 76
2, 102480, Note_on_c, 0, 64, 76
2, 102480, Note_on_c, 0, 69, 76
2, 102681, Note_off_c, 0, 61, 80
2, 102681, Note_off_c, 0, 64, 80
2, 102681, Note_off_c, 0, 69, 80
2, 102720, Note_on_c, 0, 61, 76
2, 102720, Note_on_c, 0, 64, 76
2, 102720, Note_on_c, 0, 69, 76
2, 102921, Note_off_c, 0, 61, 80
2, 102921, Note_off_c, 0, 64, 80
2, 102921, Note_off_c, 0, 69, 80
2, 102960, Note_on_c, 0, 61, 76
2, 102960, Note_on_c, 0, 64, 76
2, 102960, Note_on_c, 0, 69, 76
2, 103161, Note_off_c, 0, 61, 80
2, 103161, Note_off_c, 0, 64, 80
2, 103161, Note_off_c, 0, 69, 80
2, 103200, Note_on_c, 0, 61, 76
2, 103200, Note_on_c, 0, 64, 76
2, 103200, Note_on_c, 0, 69, 76
2, 103401, Note_off_c, 0, 61, 80
2, 103401, Note_off_c, 0, 64, 80
2, 103401, Note_off_c, 0, 69, 80
2, 103440, Note_on_c, 0, 61, 76
2, 103440, Note_on_c, 0, 64, 76
2, 103440, Note_on_c, 0, 69, 76
2, 103641, Note_off_c, 0, 61, 80
2, 103641, Note_off_c, 0, 64, 80
2, 103641, Note_off_c, 0, 69, 80
2, 103680, Note_on_c, 0, 61, 76
2, 103680, Note_on_c, 0, 64, 76
2, 103680, Note_on_c, 0, 69, 76
2, 103881, Note_off_c, 0, 61, 80
2, 103881, Note_off_c, 0, 64, 80
2, 103881, Note_off_c, 0, 69, 80
2, 103920, Note_on_c, 0, 61, 76
2, 103920, Note_on_c, 0, 64, 76
2, 103920, Note_on_c, 0, 69, 76
2, 104121, Note_off_c, 0, 61, 80
2, 104121, Note_off_c, 0, 64, 80
2, 104121, Note_off_c, 0, 69, 80
2, 104160, Note_on_c, 0, 61, 76
2, 104160, Note_on_c, 0, 64, 76
2, 104160, Note_on_c, 0, 69, 76
2, 104361, Note_off_c, 0, 61, 80
2, 104361, Note_off_c, 0, 64, 80
2, 104361, Note_off_c, 0, 69, 80
2, 104400, Note_on_c, 0, 61, 76
2, 104400, Note_on_c, 0, 64, 76
2, 104400, Note_on_c, 0, 69, 76
2, 104601, Note_off_c, 0, 61, 80
2, 104601, Note_off_c, 0, 64, 80
2, 104601, Note_off_c, 0, 69, 80
2, 104640, Note_on_c, 0, 61, 76
2, 104640, Note_on_c, 0, 64, 76
2, 104640, Note_on_c, 0, 69, 76
2, 104841, Note_off_c, 0, 61, 80
2, 104841, Note_off_c, 0, 64, 80
2, 104841, Note_off_c, 0, 69, 80
2, 104880, Note_on_c, 0, 61, 76
2, 104880, Note_on_c, 0, 64, 76
2, 104880, Note_on_c, 0, 69, 76
2, 105081, Note_off_c, 0, 61, 80
2, 105081, Note_off_c, 0, 64, 80
2, 105081, Note_off_c, 0, 69, 80
2, 105120, Note_on_c, 0, 61, 76
2, 105120, Note_on_c, 0, 64, 76
2, 105120, Note_on_c, 0, 69, 76
2, 105201, Note_off_c, 0, 61, 80
2, 105201, Note_off_c, 0, 64, 80
2, 105201, Note_off_c, 0, 69, 80
2, 105240, Note_on_c, 0, 61, 76
2, 105240, Note_on_c, 0, 64, 76
2, 105240, Note_on_c, 0, 69, 76
2, 105561, Note_off_c, 0, 61, 80
2, 105561, Note_off_c, 0, 64, 80
2, 105561, Note_off_c, 0, 69, 80
2, 105840, Note_on_c, 0, 60, 76
2, 105840, Note_on_c, 0, 64, 76
2, 105840, Note_on_c, 0, 67, 76
2, 106041, Note_off_c, 0, 60, 80
2, 106041, Note_off_c, 0, 64, 80
2, 106041, Note_off_c, 0, 67, 80
2, 106080, Note_on_c, 0, 60, 76
2, 106080, Note_on_c, 0, 64, 76
2, 106080, Note_on_c, 0, 67, 76
2, 106281, Note_off_c, 0, 60, 80
2, 106281, Note_off_c, 0, 64, 80
2, 106281, Note_off_c, 0, 67, 80
2, 106320, Note_on_c, 0, 62, 76
2, 106320, Note_on_c, 0, 66, 76
2, 106320, Note_on_c, 0, 69, 76
2, 106521, Note_off_c, 0, 62, 80
2, 106521, Note_off_c, 0, 66, 80
2, 106521, Note_off_c, 0, 69, 80
2, 106560, Note_on_c, 0, 62, 76
2, 106560, Note_on_c, 0, 66, 76
2, 106560, Note_on_c, 0, 69, 76
2, 106761, Note_off_c, 0, 62, 80
2, 106761, Note_off_c, 0, 66, 80
2, 106761, Note_off_c, 0, 69, 80
2, 106800, Note_on_c, 0, 60, 76
2, 106800, Note_on_c, 0, 64, 76
2, 106800, Note_on_c, 0, 67, 76
2, 107001, Note_off_c, 0, 60, 80
2, 107001, Note_off_c, 0, 64, 80
2, 107001, Note_off_c, 0, 67, 80
2, 107040, Note_on_c, 0, 60, 76
2, 107040, Note_on_c, 0, 64, 76
2, 107040, Note_on_c, 0, 67, 76
2, 107241, Note_off_c, 0, 60, 80
2, 107241, Note_off_c, 0, 64, 80
2, 107241, Note_off_c, 0, 67, 80
2, 107280, Note_on_c, 0, 59, 76
2, 107280, Note_on_c, 0, 62, 76
2, 107280, Note_on_c, 0, 66, 76
2, 108921, Note_off_c, 0, 59, 80
2, 108921, Note_off_c, 0, 62, 80
2, 108921, Note_off_c, 0, 66, 80
2, 108960, Note_on_c, 0, 57, 76
2, 108960, Note_on_c, 0, 62, 76
2, 108960, Note_on_c, 0, 66, 76
2, 109161, Note_off_c, 0, 57, 80
2, 109161, Note_off_c, 0, 62, 80
2, 109161, Note_off_c, 0, 66, 80
2, 109200, Note_on_c, 0, 60, 76
2, 109200, Note_on_c, 0, 64, 76
2, 109200, Note_on_c, 0, 67, 76
2, 109401, Note_off_c, 0, 60, 80
2, 109401, Note_off_c, 0, 64, 80
2, 109401, Note_off_c, 0, 67, 80
2, 109920, Note_on_c, 0, 55, 76
2, 109920, Note_on_c, 0, 60, 76
2, 109920, Note_on_c, 0, 64, 76
2, 110121, Note_off_c, 0, 55, 80
2, 110121, Note_off_c, 0, 60, 80
2, 110121, Note_off_c, 0, 64, 80
2, 110160, Note_on_c, 0, 57, 76
2, 110160, Note_on_c, 0, 62, 76
2, 110160, Note_on_c, 0, 66, 76
2, 110361, Note_off_c, 0, 57, 80
2, 110361, Note_off_c, 0, 62, 80
2, 110361, Note_off_c, 0, 66, 80
2, 110400, Note_on_c, 0, 55, 76
2, 110400, Note_on_c, 0, 60, 76
2, 110400, Note_on_c, 0, 64, 76
2, 110601, Note_off_c, 0, 55, 80
2, 110601, Note_off_c, 0, 60, 80
2, 110601, Note_off_c, 0, 64, 80
2, 110640, Note_on_c, 0, 55, 76
2, 110640, Note_on_c, 0, 60, 76
2, 110640, Note_on_c, 0, 64, 76
2, 110841, Note_off_c, 0, 55, 80
2, 110841, Note_off_c, 0, 60, 80
2, 110841, Note_off_c, 0, 64, 80
2, 110880, Note_on_c, 0, 57, 76
2, 110880, Note_on_c, 0, 62, 76
2, 110880, Note_on_c, 0, 66, 76
2, 111321, Note_off_c, 0, 57, 80
2, 111321, Note_off_c, 0, 62, 80
2, 111321, Note_off_c, 0, 66, 80
2, 111360, Note_on_c, 0, 67, 76
2, 111360, Note_on_c, 0, 79, 76
2, 111561, Note_off_c, 0, 67, 80
2, 111561, Note_off_c, 0, 79, 80
2, 111600, Note_on_c, 0, 66, 76
2, 111600, Note_on_c, 0, 78, 76
2, 111681, Note_off_c, 0, 66, 80
2, 111681, Note_off_c, 0, 78, 80
2, 111720, Note_on_c, 0, 67, 76
2, 111720, Note_on_c, 0, 79, 76
2, 111921, Note_off_c, 0, 67, 80
2, 111921, Note_off_c, 0, 79, 80
2, 111960, Note_on_c, 0, 66, 76
2, 111960, Note_on_c, 0, 78, 76
2, 112041, Note_off_c, 0, 66, 80
2, 112041, Note_off_c, 0, 78, 80
2, 112080, Note_on_c, 0, 62, 76
2, 112080, Note_on_c, 0, 74, 76
2, 112521, Note_off_c, 0, 62, 80
2, 112521, Note_off_c, 0, 74, 80
2, 112560, Note_on_c, 0, 64, 76
2, 112560, Note_on_c, 0, 76, 76
2, 112881, Note_off_c, 0, 64, 80
2, 112881, Note_off_c, 0, 76, 80
2, 112920, Note_on_c, 0, 60, 76
2, 112920, Note_on_c, 0, 72, 76
2, 113241, Note_off_c, 0, 60, 80
2, 113241, Note_off_c, 0, 72, 80
2, 113520, Note_on_c, 0, 60, 76
2, 113520, Note_on_c, 0, 64, 76
2, 113520, Note_on_c, 0, 67, 76
2, 113721, Note_off_c, 0, 60, 80
2, 113721, Note_off_c, 0, 64, 80
2, 113721, Note_off_c, 0, 67, 80
2, 113760, Note_on_c, 0, 60, 76
2, 113760, Note_on_c, 0, 64, 76
2, 113760, Note_on_c, 0, 67, 76
2, 113961, Note_off_c, 0, 60, 80
2, 113961, Note_off_c, 0, 64, 80
2, 113961, Note_off_c, 0, 67, 80
2, 114000, Note_on_c, 0, 62, 76
2, 114000, Note_on_c, 0, 66, 76
2, 114000, Note_on_c, 0, 69, 76
2, 114201, Note_off_c, 0, 62, 80
2, 114201, Note_off_c, 0, 66, 80
2, 114201, Note_off_c, 0, 69, 80
2, 114240, Note_on_c, 0, 62, 76
2, 114240, Note_on_c, 0, 66, 76
2, 114240, Note_on_c, 0, 69, 76
2, 114441, Note_off_c, 0, 62, 80
2, 114441, Note_off_c, 0, 66, 80
2, 114441, Note_off_c, 0, 69, 80
2, 114480, Note_on_c, 0, 60, 76
2, 114480, Note_on_c, 0, 64, 76
2, 114480, Note_on_c, 0, 67, 76
2, 114681, Note_off_c, 0, 60, 80
2, 114681, Note_off_c, 0, 64, 80
2, 114681, Note_off_c, 0, 67, 80
2, 114720, Note_on_c, 0, 60, 76
2, 114720, Note_on_c, 0, 64, 76
2, 114720, Note_on_c, 0, 67, 76
2, 114921, Note_off_c, 0, 60, 80
2, 114921, Note_off_c, 0, 64, 80
2, 114921, Note_off_c, 0, 67, 80
2, 114960, Note_on_c, 0, 59, 76
2, 114960, Note_on_c, 0, 62, 76
2, 114960, Note_on_c, 0, 66, 76
2, 116601, Note_off_c, 0, 59, 80
2, 116601, Note_off_c, 0, 62, 80
2, 116601, Note_off_c, 0, 66, 80
2, 116640, Note_on_c, 0, 57, 76
2, 116640, Note_on_c, 0, 62, 76
2, 116640, Note_on_c, 0, 66, 76
2, 116841, Note_off_c, 0, 57, 80
2, 116841, Note_off_c, 0, 62, 80
2, 116841, Note_off_c, 0, 66, 80
2, 116880, Note_on_c, 0, 60, 76
2, 116880, Note_on_c, 0, 64, 76
2, 116880, Note_on_c, 0, 67, 76
2, 117081, Note_off_c, 0, 60, 80
2, 117081, Note_off_c, 0, 64, 80
2, 117081, Note_off_c, 0, 67, 80
2, 117600, Note_on_c, 0, 55, 76
2, 117600, Note_on_c, 0, 60, 76
2, 117600, Note_on_c, 0, 64, 76
2, 117801, Note_off_c, 0, 55, 80
2, 117801, Note_off_c, 0, 60, 80
2, 117801, Note_off_c, 0, 64, 80
2, 117840, Note_on_c, 0, 57, 76
2, 117840, Note_on_c, 0, 62, 76
2, 117840, Note_on_c, 0, 66, 76
2, 118041, Note_off_c, 0, 57, 80
2, 118041, Note_off_c, 0, 62, 80
2, 118041, Note_off_c, 0, 66, 80
2, 118080, Note_on_c, 0, 55, 76
2, 118080, Note_on_c, 0, 60, 76
2, 118080, Note_on_c, 0, 64, 76
2, 118281, Note_off_c, 0, 55, 80
2, 118281, Note_off_c, 0, 60, 80
2, 118281, Note_off_c, 0, 64, 80
2, 118320, Note_on_c, 0, 55, 76
2, 118320, Note_on_c, 0, 60, 76
2, 118320, Note_on_c, 0, 64, 76
2, 118521, Note_off_c, 0, 55, 80
2, 118521, Note_off_c, 0, 60, 80
2, 118521, Note_off_c, 0, 64, 80
2, 118560, Note_on_c, 0, 57, 76
2, 118560, Note_on_c, 0, 62, 76
2, 118560, Note_on_c, 0, 66, 76
2, 119001, Note_off_c, 0, 57, 80
2, 119001, Note_off_c, 0, 62, 80
2, 119001, Note_off_c, 0, 66, 80
2, 119040, Note_on_c, 0, 64, 76
2, 119040, Note_on_c, 0, 76, 76
2, 119241, Note_off_c, 0, 64, 80
2, 119241, Note_off_c, 0, 76, 80
2, 119280, Note_on_c, 0, 66, 76
2, 119280, Note_on_c, 0, 78, 76
2, 119361, Note_off_c, 0, 66, 80
2, 119361, Note_off_c, 0, 78, 80
2, 119400, Note_on_c, 0, 66, 76
2, 119400, Note_on_c, 0, 78, 76
2, 119721, Note_off_c, 0, 66, 80
2, 119721, Note_off_c, 0, 78, 80
2, 119760, Note_on_c, 0, 72, 76
2, 119760, Note_on_c, 0, 76, 76
2, 119760, Note_on_c, 0, 79, 76
2, 119841, Note_off_c, 0, 72, 80
2, 119841, Note_off_c, 0, 76, 80
2, 119841, Note_off_c, 0, 79, 80
2, 119880, Note_on_c, 0, 72, 76
2, 119880, Note_on_c, 0, 76, 76
2, 119880, Note_on_c, 0, 79, 76
2, 120201, Note_off_c, 0, 72, 80
2, 120201, Note_off_c, 0, 76, 80
2, 120201, Note_off_c, 0, 79, 80
2, 120240, Note_on_c, 0, 72, 76
2, 120321, Note_off_c, 0, 72, 80
2, 120360, Note_on_c, 0, 72, 76
2, 120561, Note_off_c, 0, 72, 80
2, 120600, Note_on_c, 0, 74, 76
2, 120681, Note_off_c, 0, 74, 80
2, 120720, Note_on_c, 0, 77, 76
2, 120921, Note_off_c, 0, 77, 80
2, 121200, Note_on_c, 0, 60, 76
2, 121200, Note_on_c, 0, 64, 76
2, 121200, Note_on_c, 0, 67, 76
2, 121401, Note_off_c, 0, 60, 80
2, 121401, Note_off_c, 0, 64, 80
2, 121401, Note_off_c, 0, 67, 80
2, 121440, Note_on_c, 0, 60, 76
2, 121440, Note_on_c, 0, 64, 76
2, 121440, Note_on_c, 0, 67, 76
2, 121641, Note_off_c, 0, 60, 80
2, 121641, Note_off_c, 0, 64, 80
2, 121641, Note_off_c, 0, 67, 80
2, 121680, Note_on_c, 0, 62, 76
2, 121680, Note_on_c, 0, 66, 76
2, 121680, Note_on_c, 0, 69, 76
2, 121881, Note_off_c, 0, 62, 80
2, 121881, Note_off_c, 0, 66, 80
2, 121881, Note_off_c, 0, 69, 80
2, 121920, Note_on_c, 0, 62, 76
2, 121920, Note_on_c, 0, 66, 76
2, 121920, Note_on_c, 0, 69, 76
2, 122121, Note_off_c, 0, 62, 80
2, 122121, Note_off_c, 0, 66, 80
2, 122121, Note_off_c, 0, 69, 80
2, 122160, Note_on_c, 0, 60, 76
2, 122160, Note_on_c, 0, 64, 76
2, 122160, Note_on_c, 0, 67, 76
2, 122361, Note_off_c, 0, 60, 80
2, 122361, Note_off_c, 0, 64, 80
2, 122361, Note_off_c, 0, 67, 80
2, 122400, Note_on_c, 0, 60, 76
2, 122400, Note_on_c, 0, 64, 76
2, 122400, Note_on_c, 0, 67, 76
2, 122601, Note_off_c, 0, 60, 80
2, 122601, Note_off_c, 0, 64, 80
2, 122601, Note_off_c, 0, 67, 80
2, 122640, Note_on_c, 0, 59, 76
2, 122640, Note_on_c, 0, 62, 76
2, 122640, Note_on_c, 0, 66, 76
2, 124281, Note_off_c, 0, 59, 80
2, 124281, Note_off_c, 0, 62, 80
2, 124281, Note_off_c, 0, 66, 80
2, 124320, Note_on_c, 0, 57, 76
2, 124320, Note_on_c, 0, 62, 76
2, 124320, Note_on_c, 0, 66, 76
2, 124521, Note_off_c, 0, 57, 80
2, 124521, Note_off_c, 0, 62, 80
2, 124521, Note_off_c, 0, 66, 80
2, 124560, Note_on_c, 0, 60, 76
2, 124560, Note_on_c, 0, 64, 76
2, 124560, Note_on_c, 0, 67, 76
2, 124761, Note_off_c, 0, 60, 80
2, 124761, Note_off_c, 0, 64, 80
2, 124761, Note_off_c, 0, 67, 80
2, 125280, Note_on_c, 0, 55, 76
2, 125280, Note_on_c, 0, 60, 76
2, 125280, Note_on_c, 0, 64, 76
2, 125481, Note_off_c, 0, 55, 80
2, 125481, Note_off_c, 0, 60, 80
2, 125481, Note_off_c, 0, 64, 80
2, 125520, Note_on_c, 0, 57, 76
2, 125520, Note_on_c, 0, 62, 76
2, 125520, Note_on_c, 0, 66, 76
2, 125721, Note_off_c, 0, 57, 80
2, 125721, Note_off_c, 0, 62, 80
2, 125721, Note_off_c, 0, 66, 80
2, 125760, Note_on_c, 0, 55, 76
2, 125760, Note_on_c, 0, 60, 76
2, 125760, Note_on_c, 0, 64, 76
2, 125961, Note_off_c, 0, 55, 80
2, 125961, Note_off_c, 0, 60, 80
2, 125961, Note_off_c, 0, 64, 80
2, 126000, Note_on_c, 0, 55, 76
2, 126000, Note_on_c, 0, 60, 76
2, 126000, Note_on_c, 0, 64, 76
2, 126201, Note_off_c, 0, 55, 80
2, 126201, Note_off_c, 0, 60, 80
2, 126201, Note_off_c, 0, 64, 80
2, 126240, Note_on_c, 0, 57, 76
2, 126240, Note_on_c, 0, 62, 76
2, 126240, Note_on_c, 0, 66, 76
2, 126681, Note_off_c, 0, 57, 80
2, 126681, Note_off_c, 0, 62, 80
2, 126681, Note_off_c, 0, 66, 80
2, 126720, Note_on_c, 0, 67, 76
2, 126720, Note_on_c, 0, 79, 76
2, 126921, Note_off_c, 0, 67, 80
2, 126921, Note_off_c, 0, 79, 80
2, 126960, Note_on_c, 0, 66, 76
2, 126960, Note_on_c, 0, 78, 76
2, 127161, Note_off_c, 0, 66, 80
2, 127161, Note_off_c, 0, 78, 80
2, 127200, Note_on_c, 0, 62, 76
2, 127200, Note_on_c, 0, 74, 76
2, 127401, Note_off_c, 0, 62, 80
2, 127401, Note_off_c, 0, 74, 80
2, 127440, Note_on_c, 0, 64, 76
2, 127440, Note_on_c, 0, 76, 76
2, 127881, Note_off_c, 0, 64, 80
2, 127881, Note_off_c, 0, 76, 80
2, 127920, Note_on_c, 0, 60, 76
2, 127920, Note_on_c, 0, 72, 76
2, 128601, Note_off_c, 0, 60, 80
2, 128601, Note_off_c, 0, 72, 80
2, 128880, Note_on_c, 0, 60, 76
2, 128880, Note_on_c, 0, 64, 76
2, 128880, Note_on_c, 0, 67, 76
2, 129081, Note_off_c, 0, 60, 80
2, 129081, Note_off_c, 0, 64, 80
2, 129081, Note_off_c, 0, 67, 80
2, 129120, Note_on_c, 0, 60, 76
2, 129120, Note_on_c, 0, 64, 76
2, 129120, Note_on_c, 0, 67, 76
2, 129321, Note_off_c, 0, 60, 80
2, 129321, Note_off_c, 0, 64, 80
2, 129321, Note_off_c, 0, 67, 80
2, 129360, Note_on_c, 0, 62, 76
2, 129360, Note_on_c, 0, 66, 76
2, 129360, Note_on_c, 0, 69, 76
2, 129561, Note_off_c, 0, 62, 80
2, 129561, Note_off_c, 0, 66, 80
2, 129561, Note_off_c, 0, 69, 80
2, 129600, Note_on_c, 0, 62, 76
2, 129600, Note_on_c, 0, 66, 76
2, 129600, Note_on_c, 0, 69, 76
2, 129801, Note_off_c, 0, 62, 80
2, 129801, Note_off_c, 0, 66, 80
2, 129801, Note_off_c, 0, 69, 80
2, 129840, Note_on_c, 0, 60, 76
2, 129840, Note_on_c, 0, 64, 76
2, 129840, Note_on_c, 0, 67, 76
2, 130041, Note_off_c, 0, 60, 80
2, 130041, Note_off_c, 0, 64, 80
2, 130041, Note_off_c, 0, 67, 80
2, 130080, Note_on_c, 0, 60, 76
2, 130080, Note_on_c, 0, 64, 76
2, 130080, Note_on_c, 0, 67, 76
2, 130281, Note_off_c, 0, 60, 80
2, 130281, Note_off_c, 0, 64, 80
2, 130281, Note_off_c, 0, 67, 80
2, 130320, Note_on_c, 0, 59, 76
2, 130320, Note_on_c, 0, 62, 76
2, 130320, Note_on_c, 0, 66, 76
2, 131961, Note_off_c, 0, 59, 80
2, 131961, Note_off_c, 0, 62, 80
2, 131961, Note_off_c, 0, 66, 80
2, 132000, Note_on_c, 0, 57, 76
2, 132000, Note_on_c, 0, 62, 76
2, 132000, Note_on_c, 0, 66, 76
2, 132201, Note_off_c, 0, 57, 80
2, 132201, Note_off_c, 0, 62, 80
2, 132201, Note_off_c, 0, 66, 80
2, 132240, Note_on_c, 0, 60, 76
2, 132240, Note_on_c, 0, 64, 76
2, 132240, Note_on_c, 0, 67, 76
2, 132441, Note_off_c, 0, 60, 80
2, 132441, Note_off_c, 0, 64, 80
2, 132441, Note_off_c, 0, 67, 80
2, 132960, Note_on_c, 0, 55, 76
2, 132960, Note_on_c, 0, 60, 76
2, 132960, Note_on_c, 0, 64, 76
2, 133161, Note_off_c, 0, 55, 80
2, 133161, Note_off_c, 0, 60, 80
2, 133161, Note_off_c, 0, 64, 80
2, 133200, Note_on_c, 0, 57, 76
2, 133200, Note_on_c, 0, 62, 76
2, 133200, Note_on_c, 0, 66, 76
2, 133401, Note_off_c, 0, 57, 80
2, 133401, Note_off_c, 0, 62, 80
2, 133401, Note_off_c, 0, 66, 80
2, 133440, Note_on_c, 0, 55, 76
2, 133440, Note_on_c, 0, 60, 76
2, 133440, Note_on_c, 0, 64, 76
2, 133641, Note_off_c, 0, 55, 80
2, 133641, Note_off_c, 0, 60, 80
2, 133641, Note_off_c, 0, 64, 80
2, 133680, Note_on_c, 0, 55, 76
2, 133680, Note_on_c, 0, 60, 76
2, 133680, Note_on_c, 0, 64, 76
2, 133881, Note_off_c, 0, 55, 80
2, 133881, Note_off_c, 0, 60, 80
2, 133881, Note_off_c, 0, 64, 80
2, 133920, Note_on_c, 0, 57, 76
2, 133920, Note_on_c, 0, 62, 76
2, 133920, Note_on_c, 0, 66, 76
2, 134361, Note_off_c, 0, 57, 80
2, 134361, Note_off_c, 0, 62, 80
2, 134361, Note_off_c, 0, 66, 80
2, 134400, Note_on_c, 0, 60, 76
2, 134400, Note_on_c, 0, 64, 76
2, 134400, Note_on_c, 0, 67, 76
2, 134601, Note_off_c, 0, 60, 80
2, 134601, Note_off_c, 0, 64, 80
2, 134601, Note_off_c, 0, 67, 80
2, 134640, Note_on_c, 0, 60, 76
2, 134640, Note_on_c, 0, 64, 76
2, 134640, Note_on_c, 0, 67, 76
2, 134841, Note_off_c, 0, 60, 80
2, 134841, Note_off_c, 0, 64, 80
2, 134841, Note_off_c, 0, 67, 80
2, 134880, Note_on_c, 0, 60, 76
2, 134880, Note_on_c, 0, 64, 76
2, 134880, Note_on_c, 0, 67, 76
2, 135081, Note_off_c, 0, 60, 80
2, 135081, Note_off_c, 0, 64, 80
2, 135081, Note_off_c, 0, 67, 80
2, 135120, Note_on_c, 0, 60, 76
2, 135120, Note_on_c, 0, 64, 76
2, 135120, Note_on_c, 0, 67, 76
2, 135201, Note_off_c, 0, 60, 80
2, 135201, Note_off_c, 0, 64, 80
2, 135201, Note_off_c, 0, 67, 80
2, 135240, Note_on_c, 0, 60, 76
2, 135240, Note_on_c, 0, 64, 76
2, 135240, Note_on_c, 0, 67, 76
2, 135441, Note_off_c, 0, 60, 80
2, 135441, Note_off_c, 0, 64, 80
2, 135441, Note_off_c, 0, 67, 80
2, 135480, Note_on_c, 0, 60, 76
2, 135480, Note_on_c, 0, 64, 76
2, 135480, Note_on_c, 0, 67, 76
2, 135561, Note_off_c, 0, 60, 80
2, 135561, Note_off_c, 0, 64, 80
2, 135561, Note_off_c, 0, 67, 80
2, 135600, Note_on_c, 0, 60, 76
2, 135600, Note_on_c, 0, 64, 76
2, 135600, Note_on_c, 0, 67, 76
2, 135681, Note_off_c, 0, 60, 80
2, 135681, Note_off_c, 0, 64, 80
2, 135681, Note_off_c, 0, 67, 80
2, 135720, Note_on_c, 0, 60, 76
2, 135720, Note_on_c, 0, 64, 76
2, 135720, Note_on_c, 0, 67, 76
2, 135801, Note_off_c, 0, 60, 80
2, 135801, Note_off_c, 0, 64, 80
2, 135801, Note_off_c, 0, 67, 80
2, 135840, Note_on_c, 0, 60, 76
2, 135840, Note_on_c, 0, 64, 76
2, 135840, Note_on_c, 0, 67, 76
2, 136041, Note_off_c, 0, 60, 80
2, 136041, Note_off_c, 0, 64, 80
2, 136041, Note_off_c, 0, 67, 80
2, 136080, Note_on_c, 0, 60, 76
2, 136080, Note_on_c, 0, 64, 76
2, 136080, Note_on_c, 0, 67, 76
2, 136281, Note_off_c, 0, 60, 80
2, 136281, Note_off_c, 0, 64, 80
2, 136281, Note_off_c, 0, 67, 80
2, 136560, Note_on_c, 0, 67, 76
2, 136560, Note_on_c, 0, 79, 76
2, 136641, Note_off_c, 0, 67, 80
2, 136641, Note_off_c, 0, 79, 80
2, 136680, Note_on_c, 0, 67, 76
2, 136680, Note_on_c, 0, 79, 76
2, 136761, Note_off_c, 0, 67, 80
2, 136761, Note_off_c, 0, 79, 80
2, 136800, Note_on_c, 0, 67, 76
2, 136800, Note_on_c, 0, 79, 76
2, 137001, Note_off_c, 0, 67, 80
2, 137001, Note_off_c, 0, 79, 80
2, 137040, Note_on_c, 0, 67, 76
2, 137040, Note_on_c, 0, 79, 76
2, 137241, Note_off_c, 0, 67, 80
2, 137241, Note_off_c, 0, 79, 80
2, 137280, Note_on_c, 0, 67, 76
2, 137280, Note_on_c, 0, 79, 76
2, 137481, Note_off_c, 0, 67, 80
2, 137481, Note_off_c, 0, 79, 80
2, 137520, Note_on_c, 0, 62, 76
2, 137520, Note_on_c, 0, 74, 76
2, 137721, Note_off_c, 0, 62, 80
2, 137721, Note_off_c, 0, 74, 80
2, 137760, Note_on_c, 0, 60, 76
2, 137760, Note_on_c, 0, 72, 76
2, 137961, Note_off_c, 0, 60, 80
2, 137961, Note_off_c, 0, 72, 80
2, 138000, Note_on_c, 0, 58, 76
2, 138000, Note_on_c, 0, 70, 76
2, 138201, Note_off_c, 0, 58, 80
2, 138201, Note_off_c, 0, 70, 80
2, 138480, Note_on_c, 0, 64, 76
2, 138480, Note_on_c, 0, 67, 76
2, 138681, Note_off_c, 0, 64, 80
2, 138681, Note_off_c, 0, 67, 80
2, 138720, Note_on_c, 0, 64, 76
2, 138720, Note_on_c, 0, 67, 76
2, 138921, Note_off_c, 0, 64, 80
2, 138921, Note_off_c, 0, 67, 80
2, 138960, Note_on_c, 0, 64, 76
2, 138960, Note_on_c, 0, 67, 76
2, 139161, Note_off_c, 0, 64, 80
2, 139161, Note_off_c, 0, 67, 80
2, 139200, Note_on_c, 0, 63, 76
2, 139200, Note_on_c, 0, 67, 76
2, 139241, Note_off_c, 0, 63, 80
2, 139241, Note_off_c, 0, 67, 80
2, 139280, Note_on_c, 0, 62, 76
2, 139321, Note_off_c, 0, 62, 80
2, 139360, Note_on_c, 0, 60, 76
2, 139401, Note_off_c, 0, 60, 80
2, 139440, Note_on_c, 0, 57, 76
2, 139641, Note_off_c, 0, 57, 80
2, 139680, Note_on_c, 0, 55, 76
2, 139680, Note_on_c, 0, 60, 76
2, 139680, Note_on_c, 0, 64, 76
2, 139881, Note_off_c, 0, 55, 80
2, 139881, Note_off_c, 0, 60, 80
2, 139881, Note_off_c, 0, 64, 80
2, 139920, Note_on_c, 0, 57, 76
2, 140121, Note_off_c, 0, 57, 80
2, 140160, Note_on_c, 0, 55, 76
2, 140160, Note_on_c, 0, 60, 76
2, 140160, Note_on_c, 0, 64, 76
2, 140361, Note_off_c, 0, 55, 80
2, 140361, Note_off_c, 0, 60, 80
2, 140361, Note_off_c, 0, 64, 80
2, 140400, Note_on_c, 0, 60, 76
2, 140481, Note_off_c, 0, 60, 80
2, 140520, Note_on_c, 0, 60, 76
2, 140601, Note_off_c, 0, 60, 80
2, 140640, Note_on_c, 0, 60, 76
2, 140841, Note_off_c, 0, 60, 80
2, 140880, Note_on_c, 0, 57, 76
2, 140880, Note_on_c, 0, 60, 76
2, 140880, Note_on_c, 0, 64, 76
2, 141081, Note_off_c, 0, 57, 80
2, 141081, Note_off_c, 0, 60, 80
2, 141081, Note_off_c, 0, 64, 80
2, 141120, Note_on_c, 0, 55, 76
2, 141120, Note_on_c, 0, 60, 76
2, 141120, Note_on_c, 0, 64, 76
2, 141321, Note_off_c, 0, 55, 80
2, 141321, Note_off_c, 0, 60, 80
2, 141321, Note_off_c, 0, 64, 80
2, 141360, Note_on_c, 0, 60, 76
2, 141561, Note_off_c, 0, 60, 80
2, 141600, Note_on_c, 0, 55, 76
2, 141600, Note_on_c, 0, 60, 76
2, 141600, Note_on_c, 0, 64, 76
2, 141801, Note_off_c, 0, 55, 80
2, 141801, Note_off_c, 0, 60, 80
2, 141801, Note_off_c, 0, 64, 80
2, 141840, Note_on_c, 0, 57, 76
2, 141840, Note_on_c, 0, 60, 76
2, 141840, Note_on_c, 0, 65, 76
2, 142041, Note_off_c, 0, 57, 80
2, 142041, Note_off_c, 0, 60, 80
2, 142041, Note_off_c, 0, 65, 80
2, 142320, Note_on_c, 0, 60, 76
2, 142320, Note_on_c, 0, 69, 76
2, 142521, Note_off_c, 0, 60, 80
2, 142521, Note_off_c, 0, 69, 80
2, 142560, Note_on_c, 0, 67, 76
2, 142761, Note_off_c, 0, 67, 80
2, 142800, Note_on_c, 0, 60, 76
2, 142800, Note_on_c, 0, 69, 76
2, 143001, Note_off_c, 0, 60, 80
2, 143001, Note_off_c, 0, 69, 80
2, 143040, Note_on_c, 0, 63, 76
2, 143040, Note_on_c, 0, 67, 76
2, 143081, Note_off_c, 0, 63, 80
2, 143081, Note_off_c, 0, 67, 80
2, 143120, Note_on_c, 0, 62, 76
2, 143161, Note_off_c, 0, 62, 80
2, 143200, Note_on_c, 0, 60, 76
2, 143241, Note_off_c, 0, 60, 80
2, 143280, Note_on_c, 0, 57, 76
2, 143481, Note_off_c, 0, 57, 80
2, 143520, Note_on_c, 0, 55, 76
2, 143520, Note_on_c, 0, 60, 76
2, 143520, Note_on_c, 0, 64, 76
2, 143721, Note_off_c, 0, 55, 80
2, 143721, Note_off_c, 0, 60, 80
2, 143721, Note_off_c, 0, 64, 80
2, 143760, Note_on_c, 0, 57, 76
2, 143961, Note_off_c, 0, 57, 80
2, 144000, Note_on_c, 0, 55, 76
2, 144000, Note_on_c, 0, 60, 76
2, 144000, Note_on_c, 0, 64, 76
2, 144201, Note_off_c, 0, 55, 80
2, 144201, Note_off_c, 0, 60, 80
2, 144201, Note_off_c, 0, 64, 80
2, 144240, Note_on_c, 0, 60, 76
2, 144321, Note_off_c, 0, 60, 80
2, 144360, Note_on_c, 0, 60, 76
2, 144441, Note_off_c, 0, 60, 80
2, 144480, Note_on_c, 0, 60, 76
2, 144681, Note_off_c, 0, 60, 80
2, 144720, Note_on_c, 0, 58, 76
2, 144720, Note_on_c, 0, 60, 76
2, 144720, Note_on_c, 0, 64, 76
2, 144921, Note_off_c, 0, 58, 80
2, 144921, Note_off_c, 0, 60, 80
2, 144921, Note_off_c, 0, 64, 80
2, 144960, Note_on_c, 0, 60, 76
2, 145161, Note_off_c, 0, 60, 80
2, 145200, Note_on_c, 0, 55, 76
2, 145200, Note_on_c, 0, 60, 76
2, 145200, Note_on_c, 0, 64, 76
2, 145401, Note_off_c, 0, 55, 80
2, 145401, Note_off_c, 0, 60, 80
2, 145401, Note_off_c, 0, 64, 80
2, 145440, Note_on_c, 0, 57, 76
2, 145440, Note_on_c, 0, 60, 76
2, 145440, Note_on_c, 0, 65, 76
2, 145641, Note_off_c, 0, 57, 80
2, 145641, Note_off_c, 0, 60, 80
2, 145641, Note_off_c, 0, 65, 80
2, 145680, Note_on_c, 0, 55, 76
2, 145680, Note_on_c, 0, 60, 76
2, 145680, Note_on_c, 0, 64, 76
2, 145881, Note_off_c, 0, 55, 80
2, 145881, Note_off_c, 0, 60, 80
2, 145881, Note_off_c, 0, 64, 80
2, 146160, Note_on_c, 0, 63, 76
2, 146160, Note_on_c, 0, 67, 76
2, 146361, Note_off_c, 0, 63, 80
2, 146361, Note_off_c, 0, 67, 80
2, 146400, Note_on_c, 0, 63, 76
2, 146400, Note_on_c, 0, 67, 76
2, 146601, Note_off_c, 0, 63, 80
2, 146601, Note_off_c, 0, 67, 80
2, 146640, Note_on_c, 0, 63, 76
2, 146640, Note_on_c, 0, 67, 76
2, 146841, Note_off_c, 0, 63, 80
2, 146841, Note_off_c, 0, 67, 80
2, 146880, Note_on_c, 0, 63, 76
2, 146880, Note_on_c, 0, 67, 76
2, 146921, Note_off_c, 0, 63, 80
2, 146921, Note_off_c, 0, 67, 80
2, 146960, Note_on_c, 0, 62, 76
2, 147001, Note_off_c, 0, 62, 80
2, 147040, Note_on_c, 0, 60, 76
2, 147081, Note_off_c, 0, 60, 80
2, 147120, Note_on_c, 0, 57, 76
2, 147321, Note_off_c, 0, 57, 80
2, 147360, Note_on_c, 0, 60, 76
2, 147360, Note_on_c, 0, 67, 76
2, 147561, Note_off_c, 0, 60, 80
2, 147561, Note_off_c, 0, 67, 80
2, 147600, Note_on_c, 0, 62, 76
2, 147801, Note_off_c, 0, 62, 80
2, 147840, Note_on_c, 0, 63, 76
2, 147840, Note_on_c, 0, 72, 76
2, 148041, Note_off_c, 0, 63, 80
2, 148041, Note_off_c, 0, 72, 80
2, 148080, Note_on_c, 0, 64, 76
2, 148080, Note_on_c, 0, 72, 76
2, 148281, Note_off_c, 0, 64, 80
2, 148281, Note_off_c, 0, 72, 80
2, 148320, Note_on_c, 0, 65, 76
2, 148320, Note_on_c, 0, 72, 76
2, 148521, Note_off_c, 0, 65, 80
2, 148521, Note_off_c, 0, 72, 80
2, 148560, Note_on_c, 0, 66, 76
2, 148560, Note_on_c, 0, 72, 76
2, 148761, Note_off_c, 0, 66, 80
2, 148761, Note_off_c, 0, 72, 80
2, 148800, Note_on_c, 0, 67, 76
2, 148800, Note_on_c, 0, 72, 76
2, 149001, Note_off_c, 0, 67, 80
2, 149001, Note_off_c, 0, 72, 80
2, 149040, Note_on_c, 0, 63, 76
2, 149241, Note_off_c, 0, 63, 80
2, 149280, Note_on_c, 0, 60, 76
2, 149280, Note_on_c, 0, 67, 76
2, 149361, Note_off_c, 0, 60, 80
2, 149361, Note_off_c, 0, 67, 80
2, 149400, Note_on_c, 0, 57, 76
2, 149400, Note_on_c, 0, 64, 76
2, 149721, Note_off_c, 0, 57, 80
2, 149721, Note_off_c, 0, 64, 80
2, 149760, Note_on_c, 0, 55, 76
2, 149760, Note_on_c, 0, 67, 76
2, 149961, Note_off_c, 0, 55, 80
2, 149961, Note_off_c, 0, 67, 80
2, 150000, Note_on_c, 0, 57, 76
2, 150000, Note_on_c, 0, 69, 76
2, 150201, Note_off_c, 0, 57, 80
2, 150201, Note_off_c, 0, 69, 80
2, 150240, Note_on_c, 0, 55, 76
2, 150240, Note_on_c, 0, 67, 76
2, 150441, Note_off_c, 0, 55, 80
2, 150441, Note_off_c, 0, 67, 80
2, 150480, Note_on_c, 0, 57, 76
2, 150480, Note_on_c, 0, 69, 76
2, 150681, Note_off_c, 0, 57, 80
2, 150681, Note_off_c, 0, 69, 80
2, 150720, Note_on_c, 0, 61, 76
2, 150720, Note_on_c, 0, 64, 76
2, 150761, Note_off_c, 0, 61, 80
2, 150761, Note_off_c, 0, 64, 80
2, 150800, Note_on_c, 0, 62, 76
2, 150841, Note_off_c, 0, 62, 80
2, 150880, Note_on_c, 0, 60, 76
2, 150921, Note_off_c, 0, 60, 80
2, 150960, Note_on_c, 0, 57, 76
2, 151161, Note_off_c, 0, 57, 80
2, 151200, Note_on_c, 0, 55, 76
2, 151200, Note_on_c, 0, 60, 76
2, 151200, Note_on_c, 0, 64, 76
2, 151401, Note_off_c, 0, 55, 80
2, 151401, Note_off_c, 0, 60, 80
2, 151401, Note_off_c, 0, 64, 80
2, 151440, Note_on_c, 0, 57, 76
2, 151641, Note_off_c, 0, 57, 80
2, 151680, Note_on_c, 0, 55, 76
2, 151680, Note_on_c, 0, 60, 76
2, 151680, Note_on_c, 0, 64, 76
2, 152121, Note_off_c, 0, 60, 80
2, 152121, Note_off_c, 0, 64, 80
2, 152400, Note_on_c, 0, 64, 76
2, 152400, Note_on_c, 0, 67, 76
2, 152601, Note_off_c, 0, 64, 80
2, 152601, Note_off_c, 0, 67, 80
2, 152640, Note_on_c, 0, 64, 76
2, 152640, Note_on_c, 0, 67, 76
2, 152841, Note_off_c, 0, 64, 80
2, 152841, Note_off_c, 0, 67, 80
2, 152880, Note_on_c, 0, 69, 76
2, 153081, Note_off_c, 0, 69, 80
2, 153120, Note_on_c, 0, 64, 76
2, 153120, Note_on_c, 0, 72, 76
2, 153321, Note_off_c, 0, 64, 80
2, 153321, Note_off_c, 0, 72, 80
2, 153360, Note_on_c, 0, 69, 76
2, 153561, Note_off_c, 0, 55, 80
2, 153561, Note_off_c, 0, 69, 80
2, 153600, Note_on_c, 0, 60, 76
2, 153600, Note_on_c, 0, 63, 76
2, 153681, Note_off_c, 0, 60, 80
2, 153681, Note_off_c, 0, 63, 80
2, 153720, Note_on_c, 0, 64, 76
2, 153801, Note_off_c, 0, 64, 80
2, 153840, Note_on_c, 0, 67, 76
2, 154041, Note_off_c, 0, 67, 80
2, 154080, Note_on_c, 0, 69, 76
2, 154281, Note_off_c, 0, 69, 80
2, 154320, Note_on_c, 0, 64, 76
2, 154320, Note_on_c, 0, 72, 76
2, 154521, Note_off_c, 0, 64, 80
2, 154761, Note_off_c, 0, 72, 80
2, 154800, Note_on_c, 0, 72, 76
2, 155001, Note_off_c, 0, 72, 80
2, 155040, Note_on_c, 0, 69, 76
2, 155241, Note_off_c, 0, 69, 80
2, 155280, Note_on_c, 0, 72, 76
2, 155481, Note_off_c, 0, 72, 80
2, 155760, Note_on_c, 0, 60, 76
2, 155760, Note_on_c, 0, 63, 76
2, 155841, Note_off_c, 0, 60, 80
2, 155841, Note_off_c, 0, 63, 80
2, 155880, Note_on_c, 0, 64, 76
2, 155961, Note_off_c, 0, 64, 80
2, 156000, Note_on_c, 0, 67, 76
2, 156201, Note_off_c, 0, 67, 80
2, 156240, Note_on_c, 0, 64, 76
2, 156240, Note_on_c, 0, 69, 76
2, 156441, Note_off_c, 0, 64, 80
2, 156441, Note_off_c, 0, 69, 80
2, 156480, Note_on_c, 0, 72, 76
2, 156681, Note_off_c, 0, 72, 80
2, 156720, Note_on_c, 0, 72, 76
2, 156921, Note_off_c, 0, 72, 80
2, 156960, Note_on_c, 0, 69, 76
2, 157161, Note_off_c, 0, 69, 80
2, 157200, Note_on_c, 0, 72, 76
2, 157401, Note_off_c, 0, 72, 80
2, 157440, Note_on_c, 0, 60, 76
2, 157440, Note_on_c, 0, 63, 76
2, 157521, Note_off_c, 0, 60, 80
2, 157521, Note_off_c, 0, 63, 80
2, 157560, Note_on_c, 0, 64, 76
2, 157641, Note_off_c, 0, 64, 80
2, 157680, Note_on_c, 0, 67, 76
2, 157881, Note_off_c, 0, 67, 80
2, 157920, Note_on_c, 0, 69, 76
2, 158121, Note_off_c, 0, 69, 80
2, 158160, Note_on_c, 0, 64, 76
2, 158160, Note_on_c, 0, 72, 76
2, 158361, Note_off_c, 0, 64, 80
2, 158601, Note_off_c, 0, 72, 80
2, 158640, Note_on_c, 0, 72, 76
2, 158841, Note_off_c, 0, 72, 80
2, 158880, Note_on_c, 0, 69, 76
2, 159081, Note_off_c, 0, 69, 80
2, 159120, Note_on_c, 0, 72, 76
2, 159321, Note_off_c, 0, 72, 80
2, 159600, Note_on_c, 0, 60, 76
2, 159600, Note_on_c, 0, 63, 76
2, 159681, Note_off_c, 0, 60, 80
2, 159681, Note_off_c, 0, 63, 80
2, 159720, Note_on_c, 0, 64, 76
2, 159801, Note_off_c, 0, 64, 80
2, 159840, Note_on_c, 0, 67, 76
2, 160041, Note_off_c, 0, 67, 80
2, 160080, Note_on_c, 0, 64, 76
2, 160080, Note_on_c, 0, 69, 76
2, 160281, Note_off_c, 0, 64, 80
2, 160281, Note_off_c, 0, 69, 80
2, 160320, Note_on_c, 0, 72, 76
2, 160521, Note_off_c, 0, 72, 80
2, 160560, Note_on_c, 0, 72, 76
2, 160761, Note_off_c, 0, 72, 80
2, 160800, Note_on_c, 0, 69, 76
2, 161001, Note_off_c, 0, 69, 80
2, 161040, Note_on_c, 0, 72, 76
2, 161241, Note_off_c, 0, 72, 80
2, 161280, Note_on_c, 0, 60, 76
2, 161280, Note_on_c, 0, 63, 76
2, 161361, Note_off_c, 0, 60, 80
2, 161361, Note_off_c, 0, 63, 80
2, 161400, Note_on_c, 0, 64, 76
2, 161481, Note_off_c, 0, 64, 80
2, 161520, Note_on_c, 0, 67, 76
2, 161721, Note_off_c, 0, 67, 80
2, 161760, Note_on_c, 0, 69, 76
2, 161961, Note_off_c, 0, 69, 80
2, 162000, Note_on_c, 0, 64, 76
2, 162000, Note_on_c, 0, 72, 76
2, 162201, Note_off_c, 0, 64, 80
2, 162441, Note_off_c, 0, 72, 80
2, 162480, Note_on_c, 0, 72, 76
2, 162681, Note_off_c, 0, 72, 80
2, 162720, Note_on_c, 0, 69, 76
2, 162921, Note_off_c, 0, 69, 80
2, 162960, Note_on_c, 0, 72, 76
2, 163161, Note_off_c, 0, 72, 80
2, 163440, Note_on_c, 0, 60, 76
2, 163440, Note_on_c, 0, 63, 76
2, 163521, Note_off_c, 0, 60, 80
2, 163521, Note_off_c, 0, 63, 80
2, 163560, Note_on_c, 0, 64, 76
2, 163641, Note_off_c, 0, 64, 80
2, 163680, Note_on_c, 0, 67, 76
2, 163881, Note_off_c, 0, 67, 80
2, 163920, Note_on_c, 0, 64, 76
2, 163920, Note_on_c, 0, 69, 76
2, 164121, Note_off_c, 0, 64, 80
2, 164121, Note_off_c, 0, 69, 80
2, 164160, Note_on_c, 0, 72, 76
2, 164361, Note_off_c, 0, 72, 80
2, 164400, Note_on_c, 0, 72, 76
2, 164601, Note_off_c, 0, 72, 80
2, 164640, Note_on_c, 0, 69, 76
2, 164841, Note_off_c, 0, 69, 80
2, 164880, Note_on_c, 0, 72, 76
2, 165081, Note_off_c, 0, 72, 80
2, 165120, Note_on_c, 0, 65, 76
2, 165120, Note_on_c, 0, 68, 76
2, 165201, Note_off_c, 0, 65, 80
2, 165201, Note_off_c, 0, 68, 80
2, 165240, Note_on_c, 0, 69, 76
2, 165321, Note_off_c, 0, 69, 80
2, 165360, Note_on_c, 0, 72, 76
2, 165561, Note_off_c, 0, 72, 80
2, 165600, Note_on_c, 0, 74, 76
2, 165801, Note_off_c, 0, 74, 80
2, 165840, Note_on_c, 0, 69, 76
2, 165840, Note_on_c, 0, 77, 76
2, 167001, Note_off_c, 0, 69, 80
2, 167001, Note_off_c, 0, 77, 80
2, 167040, Note_on_c, 0, 72, 76
2, 167040, Note_on_c, 0, 75, 76
2, 167040, Note_on_c, 0, 80, 76
2, 168441, Note_off_c, 0, 72, 80
2, 168441, Note_off_c, 0, 75, 80
2, 168441, Note_off_c, 0, 80, 80
2, 168480, Note_on_c, 0, 72, 76
2, 168480, Note_on_c, 0, 75, 76
2, 168480, Note_on_c, 0, 80, 76
2, 168561, Note_off_c, 0, 72, 80
2, 168561, Note_off_c, 0, 75, 80
2, 168561, Note_off_c, 0, 80, 80
2, 168600, Note_on_c, 0, 72, 76
2, 168600, Note_on_c, 0, 75, 76
2, 168600, Note_on_c, 0, 80, 76
2, 168921, Note_off_c, 0, 72, 80
2, 168921, Note_off_c, 0, 75, 80
2, 168921, Note_off_c, 0, 80, 80
2, 168960, Note_on_c, 0, 60, 76
2, 168960, Note_on_c, 0, 63, 76
2, 169041, Note_off_c, 0, 60, 80
2, 169041, Note_off_c, 0, 63, 80
2, 169080, Note_on_c, 0, 64, 76
2, 169161, Note_off_c, 0, 64, 80
2, 169200, Note_on_c, 0, 67, 76
2, 169401, Note_off_c, 0, 67, 80
2, 169440, Note_on_c, 0, 69, 76
2, 169641, Note_off_c, 0, 69, 80
2, 169680, Note_on_c, 0, 64, 76
2, 169680, Note_on_c, 0, 72, 76
2, 169881, Note_off_c, 0, 64, 80
2, 170121, Note_off_c, 0, 72, 80
2, 170160, Note_on_c, 0, 72, 76
2, 170361, Note_off_c, 0, 72, 80
2, 170400, Note_on_c, 0, 69, 76
2, 170601, Note_off_c, 0, 69, 80
2, 170640, Note_on_c, 0, 72, 76
2, 170841, Note_off_c, 0, 72, 80
2, 171120, Note_on_c, 0, 60, 76
2, 171120, Note_on_c, 0, 63, 76
2, 171201, Note_off_c, 0, 60, 80
2, 171201, Note_off_c, 0, 63, 80
2, 171240, Note_on_c, 0, 64, 76
2, 171321, Note_off_c, 0, 64, 80
2, 171360, Note_on_c, 0, 67, 76
2, 171561, Note_off_c, 0, 67, 80
2, 171600, Note_on_c, 0, 64, 76
2, 171600, Note_on_c, 0, 69, 76
2, 171801, Note_off_c, 0, 64, 80
2, 171801, Note_off_c, 0, 69, 80
2, 171840, Note_on_c, 0, 72, 76
2, 172041, Note_off_c, 0, 72, 80
2, 172080, Note_on_c, 0, 72, 76
2, 172281, Note_off_c, 0, 72, 80
2, 172320, Note_on_c, 0, 69, 76
2, 172521, Note_off_c, 0, 69, 80
2, 172560, Note_on_c, 0, 72, 76
2, 172761, Note_off_c, 0, 72, 80
2, 172800, Note_on_c, 0, 60, 76
2, 172800, Note_on_c, 0, 63, 76
2, 172881, Note_off_c, 0, 60, 80
2, 172881, Note_off_c, 0, 63, 80
2, 172920, Note_on_c, 0, 64, 76
2, 173001, Note_off_c, 0, 64, 80
2, 173040, Note_on_c, 0, 67, 76
2, 173241, Note_off_c, 0, 67, 80
2, 173280, Note_on_c, 0, 69, 76
2, 173481, Note_off_c, 0, 69, 80
2, 173520, Note_on_c, 0, 64, 76
2, 173520, Note_on_c, 0, 72, 76
2, 173721, Note_off_c, 0, 64, 80
2, 173961, Note_off_c, 0, 72, 80
2, 174000, Note_on_c, 0, 72, 76
2, 174201, Note_off_c, 0, 72, 80
2, 174240, Note_on_c, 0, 69, 76
2, 174441, Note_off_c, 0, 69, 80
2, 174480, Note_on_c, 0, 72, 76
2, 174681, Note_off_c, 0, 72, 80
2, 174960, Note_on_c, 0, 60, 76
2, 174960, Note_on_c, 0, 63, 76
2, 175041, Note_off_c, 0, 60, 80
2, 175041, Note_off_c, 0, 63, 80
2, 175080, Note_on_c, 0, 64, 76
2, 175161, Note_off_c, 0, 64, 80
2, 175200, Note_on_c, 0, 67, 76
2, 175401, Note_off_c, 0, 67, 80
2, 175440, Note_on_c, 0, 64, 76
2, 175440, Note_on_c, 0, 69, 76
2, 175641, Note_off_c, 0, 64, 80
2, 175641, Note_off_c, 0, 69, 80
2, 175680, Note_on_c, 0, 72, 76
2, 175881, Note_off_c, 0, 72, 80
2, 175920, Note_on_c, 0, 72, 76
2, 176121, Note_off_c, 0, 72, 80
2, 176160, Note_on_c, 0, 69, 76
2, 176361, Note_off_c, 0, 69, 80
2, 176400, Note_on_c, 0, 72, 76
2, 176601, Note_off_c, 0, 72, 80
2, 176640, Note_on_c, 0, 60, 76
2, 176640, Note_on_c, 0, 63, 76
2, 176721, Note_off_c, 0, 60, 80
2, 176721, Note_off_c, 0, 63, 80
2, 176760, Note_on_c, 0, 64, 76
2, 176841, Note_off_c, 0, 64, 80
2, 176880, Note_on_c, 0, 67, 76
2, 177081, Note_off_c, 0, 67, 80
2, 177120, Note_on_c, 0, 69, 76
2, 177321, Note_off_c, 0, 69, 80
2, 177360, Note_on_c, 0, 64, 76
2, 177360, Note_on_c, 0, 72, 76
2, 177561, Note_off_c, 0, 64, 80
2, 177801, Note_off_c, 0, 72, 80
2, 177840, Note_on_c, 0, 72, 76
2, 178041, Note_off_c, 0, 72, 80
2, 178080, Note_on_c, 0, 69, 76
2, 178281, Note_off_c, 0, 69, 80
2, 178320, Note_on_c, 0, 72, 76
2, 178521, Note_off_c, 0, 72, 80
2, 178800, Note_on_c, 0, 60, 76
2, 178800, Note_on_c, 0, 63, 76
2, 178881, Note_off_c, 0, 63, 80
2, 178920, Note_on_c, 0, 64, 76
2, 179001, Note_off_c, 0, 64, 80
2, 179040, Note_on_c, 0, 67, 76
2, 179241, Note_off_c, 0, 67, 80
2, 179280, Note_on_c, 0, 64, 76
2, 179280, Note_on_c, 0, 69, 76
2, 179481, Note_off_c, 0, 64, 80
2, 179481, Note_off_c, 0, 69, 80
2, 179520, Note_on_c, 0, 72, 76
2, 179721, Note_off_c, 0, 72, 80
2, 179760, Note_on_c, 0, 72, 76
2, 179961, Note_off_c, 0, 72, 80
2, 180000, Note_on_c, 0, 69, 76
2, 180201, Note_off_c, 0, 60, 80
2, 180201, Note_off_c, 0, 69, 80
2, 180240, Note_on_c, 0, 72, 76
2, 180441, Note_off_c, 0, 72, 80
2, 180480, Note_on_c, 0, 65, 76
2, 180480, Note_on_c, 0, 68, 76
2, 180561, Note_off_c, 0, 65, 80
2, 180561, Note_off_c, 0, 68, 80
2, 180600, Note_on_c, 0, 69, 76
2, 180681, Note_off_c, 0, 69, 80
2, 180720, Note_on_c, 0, 72, 76
2, 180921, Note_off_c, 0, 72, 80
2, 180960, Note_on_c, 0, 74, 76
2, 181161, Note_off_c, 0, 74, 80
2, 181200, Note_on_c, 0, 69, 76
2, 181200, Note_on_c, 0, 77, 76
2, 182361, Note_off_c, 0, 69, 80
2, 182361, Note_off_c, 0, 77, 80
2, 182400, Note_on_c, 0, 72, 76
2, 182400, Note_on_c, 0, 75, 76
2, 182400, Note_on_c, 0, 80, 76
2, 183801, Note_off_c, 0, 72, 80
2, 183801, Note_off_c, 0, 75, 80
2, 183801, Note_off_c, 0, 80, 80
2, 183840, Note_on_c, 0, 72, 76
2, 183840, Note_on_c, 0, 75, 76
2, 183840, Note_on_c, 0, 80, 76
2, 183921, Note_off_c, 0, 72, 80
2, 183921, Note_off_c, 0, 75, 80
2, 183921, Note_off_c, 0, 80, 80
2, 183960, Note_on_c, 0, 72, 76
2, 183960, Note_on_c, 0, 75, 76
2, 183960, Note_on_c, 0, 80, 76
2, 184281, Note_off_c, 0, 72, 80
2, 184281, Note_off_c, 0, 75, 80
2, 184281, Note_off_c, 0, 80, 80
2, 184560, Note_on_c, 0, 64, 76
2, 184560, Note_on_c, 0, 67, 76
2, 184761, Note_off_c, 0, 64, 80
2, 184761, Note_off_c, 0, 67, 80
2, 184800, Note_on_c, 0, 68, 76
2, 185001, Note_off_c, 0, 68, 80
2, 185040, Note_on_c, 0, 71, 76
2, 185241, Note_off_c, 0, 71, 80
2, 185280, Note_on_c, 0, 67, 76
2, 185280, Note_on_c, 0, 73, 76
2, 185481, Note_off_c, 0, 67, 80
2, 185481, Note_off_c, 0, 73, 80
2, 185520, Note_on_c, 0, 76, 76
2, 186201, Note_off_c, 0, 76, 80
2, 186480, Note_on_c, 0, 71, 76
2, 186480, Note_on_c, 0, 79, 76
2, 186681, Note_off_c, 0, 71, 80
2, 186681, Note_off_c, 0, 79, 80
2, 186720, Note_on_c, 0, 71, 76
2, 186720, Note_on_c, 0, 79, 76
2, 186921, Note_off_c, 0, 71, 80
2, 186921, Note_off_c, 0, 79, 80
2, 186960, Note_on_c, 0, 74, 76
2, 187161, Note_off_c, 0, 74, 80
2, 187200, Note_on_c, 0, 71, 76
2, 187200, Note_on_c, 0, 79, 76
2, 187641, Note_off_c, 0, 71, 80
2, 187641, Note_off_c, 0, 79, 80
2, 187680, Note_on_c, 0, 71, 76
2, 187680, Note_on_c, 0, 79, 76
2, 187761, Note_off_c, 0, 71, 80
2, 187761, Note_off_c, 0, 79, 80
2, 187800, Note_on_c, 0, 71, 76
2, 187800, Note_on_c, 0, 79, 76
2, 188121, Note_off_c, 0, 71, 80
2, 188121, Note_off_c, 0, 79, 80
2, 188160, Note_on_c, 0, 60, 76
2, 188160, Note_on_c, 0, 63, 76
2, 188241, Note_off_c, 0, 60, 80
2, 188241, Note_off_c, 0, 63, 80
2, 188280, Note_on_c, 0, 64, 76
2, 188361, Note_off_c, 0, 64, 80
2, 188400, Note_on_c, 0, 67, 76
2, 188601, Note_off_c, 0, 67, 80
2, 188640, Note_on_c, 0, 69, 76
2, 188841, Note_off_c, 0, 69, 80
2, 188880, Note_on_c, 0, 64, 76
2, 188880, Note_on_c, 0, 72, 76
2, 189081, Note_off_c, 0, 64, 80
2, 189321, Note_off_c, 0, 72, 80
2, 189360, Note_on_c, 0, 72, 76
2, 189561, Note_off_c, 0, 72, 80
2, 189600, Note_on_c, 0, 69, 76
2, 189801, Note_off_c, 0, 69, 80
2, 189840, Note_on_c, 0, 72, 76
2, 190041, Note_off_c, 0, 72, 80
2, 190320, Note_on_c, 0, 60, 76
2, 190320, Note_on_c, 0, 63, 76
2, 190401, Note_off_c, 0, 60, 80
2, 190401, Note_off_c, 0, 63, 80
2, 190440, Note_on_c, 0, 64, 76
2, 190521, Note_off_c, 0, 64, 80
2, 190560, Note_on_c, 0, 67, 76
2, 190761, Note_off_c, 0, 67, 80
2, 190800, Note_on_c, 0, 64, 76
2, 190800, Note_on_c, 0, 69, 76
2, 191001, Note_off_c, 0, 64, 80
2, 191001, Note_off_c, 0, 69, 80
2, 191040, Note_on_c, 0, 72, 76
2, 191241, Note_off_c, 0, 72, 80
2, 191280, Note_on_c, 0, 72, 76
2, 191481, Note_off_c, 0, 72, 80
2, 191520, Note_on_c, 0, 69, 76
2, 191721, Note_off_c, 0, 69, 80
2, 191760, Note_on_c, 0, 72, 76
2, 191961, Note_off_c, 0, 72, 80
2, 192000, Note_on_c, 0, 60, 76
2, 192000, Note_on_c, 0, 63, 76
2, 192081, Note_off_c, 0, 60, 80
2, 192081, Note_off_c, 0, 63, 80
2, 192120, Note_on_c, 0, 64, 76
2, 192201, Note_off_c, 0, 64, 80
2, 192240, Note_on_c, 0, 67, 76
2, 192441, Note_off_c, 0, 67, 80
2, 192480, Note_on_c, 0, 69, 76
2, 192681, Note_off_c, 0, 69, 80
2, 192720, Note_on_c, 0, 64, 76
2, 192720, Note_on_c, 0, 72, 76
2, 192921, Note_off_c, 0, 64, 80
2, 193161, Note_off_c, 0, 72, 80
2, 193200, Note_on_c, 0, 72, 76
2, 193401, Note_off_c, 0, 72, 80
2, 193440, Note_on_c, 0, 69, 76
2, 193641, Note_off_c, 0, 69, 80
2, 193680, Note_on_c, 0, 72, 76
2, 193881, Note_off_c, 0, 72, 80
2, 194160, Note_on_c, 0, 60, 76
2, 194160, Note_on_c, 0, 63, 76
2, 194241, Note_off_c, 0, 60, 80
2, 194241, Note_off_c, 0, 63, 80
2, 194280, Note_on_c, 0, 64, 76
2, 194361, Note_off_c, 0, 64, 80
2, 194400, Note_on_c, 0, 67, 76
2, 194601, Note_off_c, 0, 67, 80
2, 194640, Note_on_c, 0, 64, 76
2, 194640, Note_on_c, 0, 69, 76
2, 194841, Note_off_c, 0, 64, 80
2, 194841, Note_off_c, 0, 69, 80
2, 194880, Note_on_c, 0, 72, 76
2, 195081, Note_off_c, 0, 72, 80
2, 195120, Note_on_c, 0, 72, 76
2, 195321, Note_off_c, 0, 72, 80
2, 195360, Note_on_c, 0, 69, 76
2, 195561, Note_off_c, 0, 69, 80
2, 195600, Note_on_c, 0, 72, 76
2, 195801, Note_off_c, 0, 72, 80
2, 195840, Note_on_c, 0, 60, 76
2, 195840, Note_on_c, 0, 63, 76
2, 195921, Note_off_c, 0, 60, 80
2, 195921, Note_off_c, 0, 63, 80
2, 195960, Note_on_c, 0, 64, 76
2, 196041, Note_off_c, 0, 64, 80
2, 196080, Note_on_c, 0, 67, 76
2, 196281, Note_off_c, 0, 67, 80
2, 196320, Note_on_c, 0, 69, 76
2, 196521, Note_off_c, 0, 69, 80
2, 196560, Note_on_c, 0, 64, 76
2, 196560, Note_on_c, 0, 72, 76
2, 196761, Note_off_c, 0, 64, 80
2, 197001, Note_off_c, 0, 72, 80
2, 197040, Note_on_c, 0, 72, 76
2, 197241, Note_off_c, 0, 72, 80
2, 197280, Note_on_c, 0, 69, 76
2, 197481, Note_off_c, 0, 69, 80
2, 197520, Note_on_c, 0, 72, 76
2, 197721, Note_off_c, 0, 72, 80
2, 198000, Note_on_c, 0, 60, 76
2, 198000, Note_on_c, 0, 63, 76
2, 198081, Note_off_c, 0, 63, 80
2, 198120, Note_on_c, 0, 64, 76
2, 198201, Note_off_c, 0, 64, 80
2, 198240, Note_on_c, 0, 67, 76
2, 198441, Note_off_c, 0, 67, 80
2, 198480, Note_on_c, 0, 64, 76
2, 198480, Note_on_c, 0, 69, 76
2, 198681, Note_off_c, 0, 64, 80
2, 198681, Note_off_c, 0, 69, 80
2, 198720, Note_on_c, 0, 72, 76
2, 198921, Note_off_c, 0, 72, 80
2, 198960, Note_on_c, 0, 72, 76
2, 199161, Note_off_c, 0, 72, 80
2, 199200, Note_on_c, 0, 69, 76
2, 199401, Note_off_c, 0, 60, 80
2, 199401, Note_off_c, 0, 69, 80
2, 199440, Note_on_c, 0, 72, 76
2, 199641, Note_off_c, 0, 72, 80
2, 199680, Note_on_c, 0, 65, 76
2, 199680, Note_on_c, 0, 68, 76
2, 199761, Note_off_c, 0, 65, 80
2, 199761, Note_off_c, 0, 68, 80
2, 199800, Note_on_c, 0, 69, 76
2, 199881, Note_off_c, 0, 69, 80
2, 199920, Note_on_c, 0, 72, 76
2, 200121, Note_off_c, 0, 72, 80
2, 200160, Note_on_c, 0, 74, 76
2, 200361, Note_off_c, 0, 74, 80
2, 200400, Note_on_c, 0, 69, 76
2, 200400, Note_on_c, 0, 77, 76
2, 201561, Note_off_c, 0, 69, 80
2, 201561, Note_off_c, 0, 77, 80
2, 201600, Note_on_c, 0, 72, 76
2, 201600, Note_on_c, 0, 75, 76
2, 201600, Note_on_c, 0, 80, 76
2, 203001, Note_off_c, 0, 72, 80
2, 203001, Note_off_c, 0, 75, 80
2, 203001, Note_off_c, 0, 80, 80
2, 203040, Note_on_c, 0, 72, 76
2, 203040, Note_on_c, 0, 75, 76
2, 203040, Note_on_c, 0, 80, 76
2, 203121, Note_off_c, 0, 72, 80
2, 203121, Note_off_c, 0, 75, 80
2, 203121, Note_off_c, 0, 80, 80
2, 203160, Note_on_c, 0, 72, 76
2, 203160, Note_on_c, 0, 75, 76
2, 203160, Note_on_c, 0, 80, 76
2, 203481, Note_off_c, 0, 72, 80
2, 203481, Note_off_c, 0, 75, 80
2, 203481, Note_off_c, 0, 80, 80
2, 203760, Note_on_c, 0, 64, 76
2, 203760, Note_on_c, 0, 67, 76
2, 203961, Note_off_c, 0, 64, 80
2, 203961, Note_off_c, 0, 67, 80
2, 204000, Note_on_c, 0, 68, 76
2, 204201, Note_off_c, 0, 68, 80
2, 204240, Note_on_c, 0, 71, 76
2, 204441, Note_off_c, 0, 71, 80
2, 204480, Note_on_c, 0, 67, 76
2, 204480, Note_on_c, 0, 73, 76
2, 204681, Note_off_c, 0, 67, 80
2, 204681, Note_off_c, 0, 73, 80
2, 204720, Note_on_c, 0, 76, 76
2, 205401, Note_off_c, 0, 76, 80
2, 205680, Note_on_c, 0, 71, 76
2, 205680, Note_on_c, 0, 79, 76
2, 205881, Note_off_c, 0, 71, 80
2, 205881, Note_off_c, 0, 79, 80
2, 205920, Note_on_c, 0, 71, 76
2, 205920, Note_on_c, 0, 79, 76
2, 206121, Note_off_c, 0, 71, 80
2, 206121, Note_off_c, 0, 79, 80
2, 206160, Note_on_c, 0, 74, 76
2, 206361, Note_off_c, 0, 74, 80
2, 206400, Note_on_c, 0, 71, 76
2, 206400, Note_on_c, 0, 79, 76
2, 206841, Note_off_c, 0, 71, 80
2, 206841, Note_off_c, 0, 79, 80
2, 206880, Note_on_c, 0, 71, 76
2, 206880, Note_on_c, 0, 79, 76
2, 206961, Note_off_c, 0, 71, 80
2, 206961, Note_off_c, 0, 79, 80
2, 207000, Note_on_c, 0, 71, 76
2, 207000, Note_on_c, 0, 79, 76
2, 207321, Note_off_c, 0, 71, 80
2, 207321, Note_off_c, 0, 79, 80
2, 207360, Note_on_c, 0, 60, 76
2, 207360, Note_on_c, 0, 63, 76
2, 207441, Note_off_c, 0, 60, 80
2, 207441, Note_off_c, 0, 63, 80
2, 207480, Note_on_c, 0, 64, 76
2, 207561, Note_off_c, 0, 64, 80
2, 207600, Note_on_c, 0, 67, 76
2, 207801, Note_off_c, 0, 67, 80
2, 207840, Note_on_c, 0, 69, 76
2, 208041, Note_off_c, 0, 69, 80
2, 208080, Note_on_c, 0, 64, 76
2, 208080, Note_on_c, 0, 72, 76
2, 208281, Note_off_c, 0, 64, 80
2, 208521, Note_off_c, 0, 72, 80
2, 208560, Note_on_c, 0, 72, 76
2, 208761, Note_off_c, 0, 72, 80
2, 208800, Note_on_c, 0, 69, 76
2, 209001, Note_off_c, 0, 69, 80
2, 209040, Note_on_c, 0, 72, 76
2, 209241, Note_off_c, 0, 72, 80
2, 209520, Note_on_c, 0, 60, 76
2, 209520, Note_on_c, 0, 63, 76
2, 209601, Note_off_c, 0, 60, 80
2, 209601, Note_off_c, 0, 63, 80
2, 209640, Note_on_c, 0, 64, 76
2, 209721, Note_off_c, 0, 64, 80
2, 209760, Note_on_c, 0, 67, 76
2, 209961, Note_off_c, 0, 67, 80
2, 210000, Note_on_c, 0, 64, 76
2, 210000, Note_on_c, 0, 69, 76
2, 210201, Note_off_c, 0, 64, 80
2, 210201, Note_off_c, 0, 69, 80
2, 210240, Note_on_c, 0, 72, 76
2, 210441, Note_off_c, 0, 72, 80
2, 210480, Note_on_c, 0, 72, 76
2, 210681, Note_off_c, 0, 72, 80
2, 210720, Note_on_c, 0, 69, 76
2, 210921, Note_off_c, 0, 69, 80
2, 210960, Note_on_c, 0, 72, 76
2, 211161, Note_off_c, 0, 72, 80
2, 211200, Note_on_c, 0, 60, 76
2, 211200, Note_on_c, 0, 63, 76
2, 211281, Note_off_c, 0, 60, 80
2, 211281, Note_off_c, 0, 63, 80
2, 211320, Note_on_c, 0, 64, 76
2, 211401, Note_off_c, 0, 64, 80
2, 211440, Note_on_c, 0, 67, 76
2, 211641, Note_off_c, 0, 67, 80
2, 211680, Note_on_c, 0, 69, 76
2, 211881, Note_off_c, 0, 69, 80
2, 211920, Note_on_c, 0, 64, 76
2, 211920, Note_on_c, 0, 72, 76
2, 212121, Note_off_c, 0, 64, 80
2, 212361, Note_off_c, 0, 72, 80
2, 212400, Note_on_c, 0, 72, 76
2, 212601, Note_off_c, 0, 72, 80
2, 212640, Note_on_c, 0, 69, 76
2, 212841, Note_off_c, 0, 69, 80
2, 212880, Note_on_c, 0, 72, 76
2, 213081, Note_off_c, 0, 72, 80
2, 213360, Note_on_c, 0, 60, 76
2, 213360, Note_on_c, 0, 63, 76
2, 213441, Note_off_c, 0, 60, 80
2, 213441, Note_off_c, 0, 63, 80
2, 213480, Note_on_c, 0, 64, 76
2, 213561, Note_off_c, 0, 64, 80
2, 213600, Note_on_c, 0, 67, 76
2, 213801, Note_off_c, 0, 67, 80
2, 213840, Note_on_c, 0, 64, 76
2, 213840, Note_on_c, 0, 69, 76
2, 214041, Note_off_c, 0, 64, 80
2, 214041, Note_off_c, 0, 69, 80
2, 214080, Note_on_c, 0, 72, 76
2, 214281, Note_off_c, 0, 72, 80
2, 214320, Note_on_c, 0, 72, 76
2, 214521, Note_off_c, 0, 72, 80
2, 214560, Note_on_c, 0, 69, 76
2, 214761, Note_off_c, 0, 69, 80
2, 214800, Note_on_c, 0, 72, 76
2, 215001, Note_off_c, 0, 72, 80
2, 215040, Note_on_c, 0, 60, 76
2, 215040, Note_on_c, 0, 63, 76
2, 215121, Note_off_c, 0, 60, 80
2, 215121, Note_off_c, 0, 63, 80
2, 215160, Note_on_c, 0, 64, 76
2, 215241, Note_off_c, 0, 64, 80
2, 215280, Note_on_c, 0, 67, 76
2, 215481, Note_off_c, 0, 67, 80
2, 215520, Note_on_c, 0, 69, 76
2, 215721, Note_off_c, 0, 69, 80
2, 215760, Note_on_c, 0, 64, 76
2, 215760, Note_on_c, 0, 72, 76
2, 215961, Note_off_c, 0, 64, 80
2, 216201, Note_off_c, 0, 72, 80
2, 216240, Note_on_c, 0, 72, 76
2, 216441, Note_off_c, 0, 72, 80
2, 216480, Note_on_c, 0, 69, 76
2, 216681, Note_off_c, 0, 69, 80
2, 216720, Note_on_c, 0, 72, 76
2, 216921, Note_off_c, 0, 72, 80
2, 217200, Note_on_c, 0, 60, 76
2, 217200, Note_on_c, 0, 63, 76
2, 217281, Note_off_c, 0, 63, 80
2, 217320, Note_on_c, 0, 64, 76
2, 217401, Note_off_c, 0, 64, 80
2, 217440, Note_on_c, 0, 67, 76
2, 217641, Note_off_c, 0, 67, 80
2, 217680, Note_on_c, 0, 64, 76
2, 217680, Note_on_c, 0, 69, 76
2, 217881, Note_off_c, 0, 64, 80
2, 217881, Note_off_c, 0, 69, 80
2, 217920, Note_on_c, 0, 72, 76
2, 218121, Note_off_c, 0, 72, 80
2, 218160, Note_on_c, 0, 72, 76
2, 218361, Note_off_c, 0, 72, 80
2, 218400, Note_on_c, 0, 69, 76
2, 218601, Note_off_c, 0, 60, 80
2, 218601, Note_off_c, 0, 69, 80
2, 218640, Note_on_c, 0, 72, 76
2, 218841, Note_off_c, 0, 72, 80
2, 218880, Note_on_c, 0, 65, 76
2, 218880, Note_on_c, 0, 68, 76
2, 218961, Note_off_c, 0, 65, 80
2, 218961, Note_off_c, 0, 68, 80
2, 219000, Note_on_c, 0, 69, 76
2, 219081, Note_off_c, 0, 69, 80
2, 219120, Note_on_c, 0, 72, 76
2, 219321, Note_off_c, 0, 72, 80
2, 219360, Note_on_c, 0, 74, 76
2, 219561, Note_off_c, 0, 74, 80
2, 219600, Note_on_c, 0, 69, 76
2, 219600, Note_on_c, 0, 77, 76
2, 220761, Note_off_c, 0, 69, 80
2, 220761, Note_off_c, 0, 77, 80
2, 220800, Note_on_c, 0, 72, 76
2, 220800, Note_on_c, 0, 75, 76
2, 220800, Note_on_c, 0, 80, 76
2, 222201, Note_off_c, 0, 72, 80
2, 222201, Note_off_c, 0, 75, 80
2, 222201, Note_off_c, 0, 80, 80
2, 222240, Note_on_c, 0, 72, 76
2, 222240, Note_on_c, 0, 75, 76
2, 222240, Note_on_c, 0, 80, 76
2, 222321, Note_off_c, 0, 72, 80
2, 222321, Note_off_c, 0, 75, 80
2, 222321, Note_off_c, 0, 80, 80
2, 222360, Note_on_c, 0, 72, 76
2, 222360, Note_on_c, 0, 75, 76
2, 222360, Note_on_c, 0, 80, 76
2, 222681, Note_off_c, 0, 72, 80
2, 222681, Note_off_c, 0, 75, 80
2, 222681, Note_off_c, 0, 80, 80
2, 222960, Note_on_c, 0, 64, 76
2, 222960, Note_on_c, 0, 67, 76
2, 223161, Note_off_c, 0, 64, 80
2, 223161, Note_off_c, 0, 67, 80
2, 223200, Note_on_c, 0, 68, 76
2, 223401, Note_off_c, 0, 68, 80
2, 223440, Note_on_c, 0, 71, 76
2, 223641, Note_off_c, 0, 71, 80
2, 223680, Note_on_c, 0, 67, 76
2, 223680, Note_on_c, 0, 73, 76
2, 223881, Note_off_c, 0, 67, 80
2, 223881, Note_off_c, 0, 73, 80
2, 223920, Note_on_c, 0, 76, 76
2, 224601, Note_off_c, 0, 76, 80
2, 224880, Note_on_c, 0, 71, 76
2, 224880, Note_on_c, 0, 79, 76
2, 225081, Note_off_c, 0, 71, 80
2, 225081, Note_off_c, 0, 79, 80
2, 225120, Note_on_c, 0, 71, 76
2, 225120, Note_on_c, 0, 79, 76
2, 225321, Note_off_c, 0, 71, 80
2, 225321, Note_off_c, 0, 79, 80
2, 225360, Note_on_c, 0, 72, 76
2, 225360, Note_on_c, 0, 79, 76
2, 225561, Note_off_c, 0, 72, 80
2, 225561, Note_off_c, 0, 79, 80
2, 225600, Note_on_c, 0, 71, 76
2, 225600, Note_on_c, 0, 79, 76
2, 226041, Note_off_c, 0, 71, 80
2, 226041, Note_off_c, 0, 79, 80
2, 226560, Note_on_c, 0, 57, 76
2, 226560, Note_on_c, 0, 60, 76
2, 226560, Note_on_c, 0, 63, 76
2, 226560, Note_on_c, 0, 67, 76
2, 226761, Note_off_c, 0, 57, 80
2, 226761, Note_off_c, 0, 60, 80
2, 226761, Note_off_c, 0, 63, 80
2, 226761, Note_off_c, 0, 67, 80
2, 226800, Note_on_c, 0, 57, 76
2, 226800, Note_on_c, 0, 60, 76
2, 226800, Note_on_c, 0, 63, 76
2, 226800, Note_on_c, 0, 67, 76
2, 227001, Note_off_c, 0, 57, 80
2, 227001, Note_off_c, 0, 60, 80
2, 227001, Note_off_c, 0, 63, 80
2, 227001, Note_off_c, 0, 67, 80
2, 227040, Note_on_c, 0, 57, 76
2, 227040, Note_on_c, 0, 60, 76
2, 227040, Note_on_c, 0, 63, 76
2, 227040, Note_on_c, 0, 67, 76
2, 227241, Note_off_c, 0, 57, 80
2, 227241, Note_off_c, 0, 60, 80
2, 227241, Note_off_c, 0, 63, 80
2, 227241, Note_off_c, 0, 67, 80
2, 227280, Note_on_c, 0, 57, 76
2, 227280, Note_on_c, 0, 60, 76
2, 227280, Note_on_c, 0, 63, 76
2, 227280, Note_on_c, 0, 67, 76
2, 227481, Note_off_c, 0, 57, 80
2, 227481, Note_off_c, 0, 60, 80
2, 227481, Note_off_c, 0, 63, 80
2, 227481, Note_off_c, 0, 67, 80
2, 227520, Note_on_c, 0, 57, 76
2, 227520, Note_on_c, 0, 60, 76
2, 227520, Note_on_c, 0, 63, 76
2, 227520, Note_on_c, 0, 67, 76
2, 227721, Note_off_c, 0, 57, 80
2, 227721, Note_off_c, 0, 60, 80
2, 227721, Note_off_c, 0, 63, 80
2, 227721, Note_off_c, 0, 67, 80
2, 227760, Note_on_c, 0, 57, 76
2, 227760, Note_on_c, 0, 60, 76
2, 227760, Note_on_c, 0, 63, 76
2, 227760, Note_on_c, 0, 67, 76
2, 227961, Note_off_c, 0, 57, 80
2, 227961, Note_off_c, 0, 60, 80
2, 227961, Note_off_c, 0, 63, 80
2, 227961, Note_off_c, 0, 67, 80
2, 228000, Note_on_c, 0, 57, 76
2, 228000, Note_on_c, 0, 60, 76
2, 228000, Note_on_c, 0, 63, 76
2, 228000, Note_on_c, 0, 67, 76
2, 228201, Note_off_c, 0, 57, 80
2, 228201, Note_off_c, 0, 60, 80
2, 228201, Note_off_c, 0, 63, 80
2, 228201, Note_off_c, 0, 67, 80
2, 228240, Note_on_c, 0, 57, 76
2, 228240, Note_on_c, 0, 60, 76
2, 228240, Note_on_c, 0, 63, 76
2, 228240, Note_on_c, 0, 67, 76
2, 228441, Note_off_c, 0, 57, 80
2, 228441, Note_off_c, 0, 60, 80
2, 228441, Note_off_c, 0, 63, 80
2, 228441, Note_off_c, 0, 67, 80
2, 228480, Note_on_c, 0, 57, 76
2, 228480, Note_on_c, 0, 60, 76
2, 228480, Note_on_c, 0, 63, 76
2, 228480, Note_on_c, 0, 67, 76
2, 228681, Note_off_c, 0, 57, 80
2, 228681, Note_off_c, 0, 60, 80
2, 228681, Note_off_c, 0, 63, 80
2, 228681, Note_off_c, 0, 67, 80
2, 228720, Note_on_c, 0, 57, 76
2, 228720, Note_on_c, 0, 60, 76
2, 228720, Note_on_c, 0, 63, 76
2, 228720, Note_on_c, 0, 67, 76
2, 228921, Note_off_c, 0, 57, 80
2, 228921, Note_off_c, 0, 60, 80
2, 228921, Note_off_c, 0, 63, 80
2, 228921, Note_off_c, 0, 67, 80
2, 228960, Note_on_c, 0, 57, 76
2, 228960, Note_on_c, 0, 60, 76
2, 228960, Note_on_c, 0, 63, 76
2, 228960, Note_on_c, 0, 67, 76
2, 229161, Note_off_c, 0, 57, 80
2, 229161, Note_off_c, 0, 60, 80
2, 229161, Note_off_c, 0, 63, 80
2, 229161, Note_off_c, 0, 67, 80
2, 229200, Note_on_c, 0, 57, 76
2, 229200, Note_on_c, 0, 60, 76
2, 229200, Note_on_c, 0, 63, 76
2, 229200, Note_on_c, 0, 67, 76
2, 229401, Note_off_c, 0, 57, 80
2, 229401, Note_off_c, 0, 60, 80
2, 229401, Note_off_c, 0, 63, 80
2, 229401, Note_off_c, 0, 67, 80
2, 229440, Note_on_c, 0, 62, 76
2, 229440, Note_on_c, 0, 67, 76
2, 229641, Note_off_c, 0, 62, 80
2, 229641, Note_off_c, 0, 67, 80
2, 229680, Note_on_c, 0, 60, 76
2, 229881, Note_off_c, 0, 60, 80
2, 229920, Note_on_c, 0, 62, 76
2, 230121, Note_off_c, 0, 62, 80
2, 230160, Note_on_c, 0, 57, 76
2, 230361, Note_off_c, 0, 57, 80
2, 230400, Note_on_c, 0, 57, 76
2, 230400, Note_on_c, 0, 60, 76
2, 230400, Note_on_c, 0, 63, 76
2, 230400, Note_on_c, 0, 67, 76
2, 230601, Note_off_c, 0, 57, 80
2, 230601, Note_off_c, 0, 60, 80
2, 230601, Note_off_c, 0, 63, 80
2, 230601, Note_off_c, 0, 67, 80
2, 230640, Note_on_c, 0, 57, 76
2, 230640, Note_on_c, 0, 60, 76
2, 230640, Note_on_c, 0, 63, 76
2, 230640, Note_on_c, 0, 67, 76
2, 230841, Note_off_c, 0, 57, 80
2, 230841, Note_off_c, 0, 60, 80
2, 230841, Note_off_c, 0, 63, 80
2, 230841, Note_off_c, 0, 67, 80
2, 230880, Note_on_c, 0, 57, 76
2, 230880, Note_on_c, 0, 60, 76
2, 230880, Note_on_c, 0, 63, 76
2, 230880, Note_on_c, 0, 67, 76
2, 231081, Note_off_c, 0, 57, 80
2, 231081, Note_off_c, 0, 60, 80
2, 231081, Note_off_c, 0, 63, 80
2, 231081, Note_off_c, 0, 67, 80
2, 231120, Note_on_c, 0, 57, 76
2, 231120, Note_on_c, 0, 60, 76
2, 231120, Note_on_c, 0, 63, 76
2, 231120, Note_on_c, 0, 67, 76
2, 231321, Note_off_c, 0, 57, 80
2, 231321, Note_off_c, 0, 60, 80
2, 231321, Note_off_c, 0, 63, 80
2, 231321, Note_off_c, 0, 67, 80
2, 231360, Note_on_c, 0, 57, 76
2, 231360, Note_on_c, 0, 60, 76
2, 231360, Note_on_c, 0, 63, 76
2, 231360, Note_on_c, 0, 67, 76
2, 231561, Note_off_c, 0, 57, 80
2, 231561, Note_off_c, 0, 60, 80
2, 231561, Note_off_c, 0, 63, 80
2, 231561, Note_off_c, 0, 67, 80
2, 231600, Note_on_c, 0, 57, 76
2, 231600, Note_on_c, 0, 60, 76
2, 231600, Note_on_c, 0, 63, 76
2, 231600, Note_on_c, 0, 67, 76
2, 231801, Note_off_c, 0, 57, 80
2, 231801, Note_off_c, 0, 60, 80
2, 231801, Note_off_c, 0, 63, 80
2, 231801, Note_off_c, 0, 67, 80
2, 231840, Note_on_c, 0, 57, 76
2, 231840, Note_on_c, 0, 60, 76
2, 231840, Note_on_c, 0, 63, 76
2, 231840, Note_on_c, 0, 67, 76
2, 232041, Note_off_c, 0, 57, 80
2, 232041, Note_off_c, 0, 60, 80
2, 232041, Note_off_c, 0, 63, 80
2, 232041, Note_off_c, 0, 67, 80
2, 232080, Note_on_c, 0, 57, 76
2, 232080, Note_on_c, 0, 60, 76
2, 232080, Note_on_c, 0, 63, 76
2, 232080, Note_on_c, 0, 67, 76
2, 232281, Note_off_c, 0, 57, 80
2, 232281, Note_off_c, 0, 60, 80
2, 232281, Note_off_c, 0, 63, 80
2, 232281, Note_off_c, 0, 67, 80
2, 232320, Note_on_c, 0, 60, 76
2, 232320, Note_on_c, 0, 63, 76
2, 232521, Note_off_c, 0, 60, 80
2, 232521, Note_off_c, 0, 63, 80
2, 232560, Note_on_c, 0, 60, 76
2, 232560, Note_on_c, 0, 64, 76
2, 232761, Note_off_c, 0, 60, 80
2, 232761, Note_off_c, 0, 64, 80
2, 232800, Note_on_c, 0, 60, 76
2, 232800, Note_on_c, 0, 65, 76
2, 233001, Note_off_c, 0, 60, 80
2, 233001, Note_off_c, 0, 65, 80
2, 233040, Note_on_c, 0, 60, 76
2, 233040, Note_on_c, 0, 66, 76
2, 233241, Note_off_c, 0, 60, 80
2, 233241, Note_off_c, 0, 66, 80
2, 233280, Note_on_c, 0, 60, 76
2, 233280, Note_on_c, 0, 67, 76
2, 233481, Note_off_c, 0, 60, 80
2, 233481, Note_off_c, 0, 67, 80
2, 233520, Note_on_c, 0, 60, 76
2, 233520, Note_on_c, 0, 63, 76
2, 233721, Note_off_c, 0, 60, 80
2, 233721, Note_off_c, 0, 63, 80
2, 233760, Note_on_c, 0, 60, 76
2, 233760, Note_on_c, 0, 67, 76
2, 233841, Note_off_c, 0, 60, 80
2, 233841, Note_off_c, 0, 67, 80
2, 233880, Note_on_c, 0, 60, 76
2, 233880, Note_on_c, 0, 67, 76
2, 234201, Note_off_c, 0, 60, 80
2, 234201, Note_off_c, 0, 67, 80
2, 234240, Note_on_c, 0, 61, 76
2, 234240, Note_on_c, 0, 64, 76
2, 234240, Note_on_c, 0, 69, 76
2, 234441, Note_off_c, 0, 61, 80
2, 234441, Note_off_c, 0, 64, 80
2, 234441, Note_off_c, 0, 69, 80
2, 234480, Note_on_c, 0, 61, 76
2, 234480, Note_on_c, 0, 64, 76
2, 234480, Note_on_c, 0, 69, 76
2, 234681, Note_off_c, 0, 61, 80
2, 234681, Note_off_c, 0, 64, 80
2, 234681, Note_off_c, 0, 69, 80
2, 234720, Note_on_c, 0, 61, 76
2, 234720, Note_on_c, 0, 64, 76
2, 234720, Note_on_c, 0, 69, 76
2, 234921, Note_off_c, 0, 61, 80
2, 234921, Note_off_c, 0, 64, 80
2, 234921, Note_off_c, 0, 69, 80
2, 234960, Note_on_c, 0, 61, 76
2, 234960, Note_on_c, 0, 64, 76
2, 234960, Note_on_c, 0, 69, 76
2, 235161, Note_off_c, 0, 61, 80
2, 235161, Note_off_c, 0, 64, 80
2, 235161, Note_off_c, 0, 69, 80
2, 235200, Note_on_c, 0, 61, 76
2, 235200, Note_on_c, 0, 64, 76
2, 235200, Note_on_c, 0, 69, 76
2, 235401, Note_off_c, 0, 61, 80
2, 235401, Note_off_c, 0, 64, 80
2, 235401, Note_off_c, 0, 69, 80
2, 235440, Note_on_c, 0, 61, 76
2, 235440, Note_on_c, 0, 64, 76
2, 235440, Note_on_c, 0, 69, 76
2, 235641, Note_off_c, 0, 61, 80
2, 235641, Note_off_c, 0, 64, 80
2, 235641, Note_off_c, 0, 69, 80
2, 235680, Note_on_c, 0, 61, 76
2, 235680, Note_on_c, 0, 64, 76
2, 235680, Note_on_c, 0, 69, 76
2, 235881, Note_off_c, 0, 61, 80
2, 235881, Note_off_c, 0, 64, 80
2, 235881, Note_off_c, 0, 69, 80
2, 235920, Note_on_c, 0, 61, 76
2, 235920, Note_on_c, 0, 64, 76
2, 235920, Note_on_c, 0, 69, 76
2, 236121, Note_off_c, 0, 61, 80
2, 236121, Note_off_c, 0, 64, 80
2, 236121, Note_off_c, 0, 69, 80
2, 236160, Note_on_c, 0, 61, 76
2, 236160, Note_on_c, 0, 69, 76
2, 236361, Note_off_c, 0, 61, 80
2, 236361, Note_off_c, 0, 69, 80
2, 236400, Note_on_c, 0, 62, 76
2, 236400, Note_on_c, 0, 71, 76
2, 236601, Note_off_c, 0, 62, 80
2, 236601, Note_off_c, 0, 71, 80
2, 236640, Note_on_c, 0, 63, 76
2, 236640, Note_on_c, 0, 72, 76
2, 236721, Note_off_c, 0, 63, 80
2, 236721, Note_off_c, 0, 72, 80
2, 236760, Note_on_c, 0, 64, 76
2, 236760, Note_on_c, 0, 73, 76
2, 236961, Note_off_c, 0, 64, 80
2, 236961, Note_off_c, 0, 73, 80
2, 237000, Note_on_c, 0, 64, 76
2, 237000, Note_on_c, 0, 73, 76
2, 237081, Note_off_c, 0, 64, 80
2, 237081, Note_off_c, 0, 73, 80
2, 237120, Note_on_c, 0, 61, 76
2, 237120, Note_on_c, 0, 69, 76
2, 237321, Note_off_c, 0, 61, 80
2, 237321, Note_off_c, 0, 69, 80
2, 237360, Note_on_c, 0, 63, 76
2, 237360, Note_on_c, 0, 71, 76
2, 237561, Note_off_c, 0, 63, 80
2, 237561, Note_off_c, 0, 71, 80
2, 237600, Note_on_c, 0, 63, 76
2, 237600, Note_on_c, 0, 72, 76
2, 237681, Note_off_c, 0, 63, 80
2, 237681, Note_off_c, 0, 72, 80
2, 237720, Note_on_c, 0, 64, 76
2, 237720, Note_on_c, 0, 72, 76
2, 238041, Note_off_c, 0, 64, 80
2, 238041, Note_off_c, 0, 72, 80
2, 238080, Note_on_c, 0, 61, 76
2, 238080, Note_on_c, 0, 64, 76
2, 238080, Note_on_c, 0, 69, 76
2, 238281, Note_off_c, 0, 61, 80
2, 238281, Note_off_c, 0, 64, 80
2, 238281, Note_off_c, 0, 69, 80
2, 238320, Note_on_c, 0, 61, 76
2, 238320, Note_on_c, 0, 64, 76
2, 238320, Note_on_c, 0, 69, 76
2, 238521, Note_off_c, 0, 61, 80
2, 238521, Note_off_c, 0, 64, 80
2, 238521, Note_off_c, 0, 69, 80
2, 238560, Note_on_c, 0, 61, 76
2, 238560, Note_on_c, 0, 64, 76
2, 238560, Note_on_c, 0, 69, 76
2, 238761, Note_off_c, 0, 61, 80
2, 238761, Note_off_c, 0, 64, 80
2, 238761, Note_off_c, 0, 69, 80
2, 238800, Note_on_c, 0, 61, 76
2, 238800, Note_on_c, 0, 64, 76
2, 238800, Note_on_c, 0, 69, 76
2, 239001, Note_off_c, 0, 61, 80
2, 239001, Note_off_c, 0, 64, 80
2, 239001, Note_off_c, 0, 69, 80
2, 239040, Note_on_c, 0, 61, 76
2, 239040, Note_on_c, 0, 64, 76
2, 239040, Note_on_c, 0, 69, 76
2, 239241, Note_off_c, 0, 61, 80
2, 239241, Note_off_c, 0, 64, 80
2, 239241, Note_off_c, 0, 69, 80
2, 239280, Note_on_c, 0, 61, 76
2, 239280, Note_on_c, 0, 64, 76
2, 239280, Note_on_c, 0, 69, 76
2, 239481, Note_off_c, 0, 61, 80
2, 239481, Note_off_c, 0, 64, 80
2, 239481, Note_off_c, 0, 69, 80
2, 239520, Note_on_c, 0, 61, 76
2, 239520, Note_on_c, 0, 64, 76
2, 239520, Note_on_c, 0, 69, 76
2, 239721, Note_off_c, 0, 61, 80
2, 239721, Note_off_c, 0, 64, 80
2, 239721, Note_off_c, 0, 69, 80
2, 239760, Note_on_c, 0, 61, 76
2, 239760, Note_on_c, 0, 64, 76
2, 239760, Note_on_c, 0, 69, 76
2, 239961, Note_off_c, 0, 61, 80
2, 239961, Note_off_c, 0, 64, 80
2, 239961, Note_off_c, 0, 69, 80
2, 240000, Note_on_c, 0, 61, 76
2, 240000, Note_on_c, 0, 64, 76
2, 240000, Note_on_c, 0, 69, 76
2, 240201, Note_off_c, 0, 61, 80
2, 240201, Note_off_c, 0, 64, 80
2, 240201, Note_off_c, 0, 69, 80
2, 240240, Note_on_c, 0, 61, 76
2, 240240, Note_on_c, 0, 64, 76
2, 240240, Note_on_c, 0, 69, 76
2, 240441, Note_off_c, 0, 61, 80
2, 240441, Note_off_c, 0, 64, 80
2, 240441, Note_off_c, 0, 69, 80
2, 240480, Note_on_c, 0, 61, 76
2, 240480, Note_on_c, 0, 64, 76
2, 240480, Note_on_c, 0, 69, 76
2, 240681, Note_off_c, 0, 61, 80
2, 240681, Note_off_c, 0, 64, 80
2, 240681, Note_off_c, 0, 69, 80
2, 240720, Note_on_c, 0, 61, 76
2, 240720, Note_on_c, 0, 64, 76
2, 240720, Note_on_c, 0, 69, 76
2, 240921, Note_off_c, 0, 61, 80
2, 240921, Note_off_c, 0, 64, 80
2, 240921, Note_off_c, 0, 69, 80
2, 240960, Note_on_c, 0, 61, 76
2, 240960, Note_on_c, 0, 64, 76
2, 240960, Note_on_c, 0, 69, 76
2, 241161, Note_off_c, 0, 61, 80
2, 241161, Note_off_c, 0, 64, 80
2, 241161, Note_off_c, 0, 69, 80
2, 241200, Note_on_c, 0, 61, 76
2, 241200, Note_on_c, 0, 64, 76
2, 241200, Note_on_c, 0, 69, 76
2, 241401, Note_off_c, 0, 61, 80
2, 241401, Note_off_c, 0, 64, 80
2, 241401, Note_off_c, 0, 69, 80
2, 241440, Note_on_c, 0, 61, 76
2, 241440, Note_on_c, 0, 64, 76
2, 241440, Note_on_c, 0, 69, 76
2, 241521, Note_off_c, 0, 61, 80
2, 241521, Note_off_c, 0, 64, 80
2, 241521, Note_off_c, 0, 69, 80
2, 241560, Note_on_c, 0, 61, 76
2, 241560, Note_on_c, 0, 64, 76
2, 241560, Note_on_c, 0, 69, 76
2, 241881, Note_off_c, 0, 61, 80
2, 241881, Note_off_c, 0, 64, 80
2, 241881, Note_off_c, 0, 69, 80
2, 242160, Note_on_c, 0, 60, 76
2, 242160, Note_on_c, 0, 64, 76
2, 242160, Note_on_c, 0, 67, 76
2, 242361, Note_off_c, 0, 60, 80
2, 242361, Note_off_c, 0, 64, 80
2, 242361, Note_off_c, 0, 67, 80
2, 242400, Note_on_c, 0, 60, 76
2, 242400, Note_on_c, 0, 64, 76
2, 242400, Note_on_c, 0, 67, 76
2, 242601, Note_off_c, 0, 60, 80
2, 242601, Note_off_c, 0, 64, 80
2, 242601, Note_off_c, 0, 67, 80
2, 242640, Note_on_c, 0, 62, 76
2, 242640, Note_on_c, 0, 66, 76
2, 242640, Note_on_c, 0, 69, 76
2, 242841, Note_off_c, 0, 62, 80
2, 242841, Note_off_c, 0, 66, 80
2, 242841, Note_off_c, 0, 69, 80
2, 242880, Note_on_c, 0, 62, 76
2, 242880, Note_on_c, 0, 66, 76
2, 242880, Note_on_c, 0, 69, 76
2, 243081, Note_off_c, 0, 62, 80
2, 243081, Note_off_c, 0, 66, 80
2, 243081, Note_off_c, 0, 69, 80
2, 243120, Note_on_c, 0, 60, 76
2, 243120, Note_on_c, 0, 64, 76
2, 243120, Note_on_c, 0, 67, 76
2, 243321, Note_off_c, 0, 60, 80
2, 243321, Note_off_c, 0, 64, 80
2, 243321, Note_off_c, 0, 67, 80
2, 243360, Note_on_c, 0, 60, 76
2, 243360, Note_on_c, 0, 64, 76
2, 243360, Note_on_c, 0, 67, 76
2, 243561, Note_off_c, 0, 60, 80
2, 243561, Note_off_c, 0, 64, 80
2, 243561, Note_off_c, 0, 67, 80
2, 243600, Note_on_c, 0, 59, 76
2, 243600, Note_on_c, 0, 62, 76
2, 243600, Note_on_c, 0, 66, 76
2, 245241, Note_off_c, 0, 59, 80
2, 245241, Note_off_c, 0, 62, 80
2, 245241, Note_off_c, 0, 66, 80
2, 245280, Note_on_c, 0, 57, 76
2, 245280, Note_on_c, 0, 62, 76
2, 245280, Note_on_c, 0, 66, 76
2, 245481, Note_off_c, 0, 57, 80
2, 245481, Note_off_c, 0, 62, 80
2, 245481, Note_off_c, 0, 66, 80
2, 245520, Note_on_c, 0, 60, 76
2, 245520, Note_on_c, 0, 64, 76
2, 245520, Note_on_c, 0, 67, 76
2, 245721, Note_off_c, 0, 60, 80
2, 245721, Note_off_c, 0, 64, 80
2, 245721, Note_off_c, 0, 67, 80
2, 246240, Note_on_c, 0, 55, 76
2, 246240, Note_on_c, 0, 60, 76
2, 246240, Note_on_c, 0, 64, 76
2, 246441, Note_off_c, 0, 55, 80
2, 246441, Note_off_c, 0, 60, 80
2, 246441, Note_off_c, 0, 64, 80
2, 246480, Note_on_c, 0, 57, 76
2, 246480, Note_on_c, 0, 62, 76
2, 246480, Note_on_c, 0, 66, 76
2, 246681, Note_off_c, 0, 57, 80
2, 246681, Note_off_c, 0, 62, 80
2, 246681, Note_off_c, 0, 66, 80
2, 246720, Note_on_c, 0, 55, 76
2, 246720, Note_on_c, 0, 60, 76
2, 246720, Note_on_c, 0, 64, 76
2, 246921, Note_off_c, 0, 55, 80
2, 246921, Note_off_c, 0, 60, 80
2, 246921, Note_off_c, 0, 64, 80
2, 246960, Note_on_c, 0, 55, 76
2, 246960, Note_on_c, 0, 60, 76
2, 246960, Note_on_c, 0, 64, 76
2, 247161, Note_off_c, 0, 55, 80
2, 247161, Note_off_c, 0, 60, 80
2, 247161, Note_off_c, 0, 64, 80
2, 247200, Note_on_c, 0, 57, 76
2, 247200, Note_on_c, 0, 62, 76
2, 247200, Note_on_c, 0, 66, 76
2, 247641, Note_off_c, 0, 57, 80
2, 247641, Note_off_c, 0, 62, 80
2, 247641, Note_off_c, 0, 66, 80
2, 247680, Note_on_c, 0, 67, 76
2, 247680, Note_on_c, 0, 79, 76
2, 247881, Note_off_c, 0, 67, 80
2, 247881, Note_off_c, 0, 79, 80
2, 247920, Note_on_c, 0, 66, 76
2, 247920, Note_on_c, 0, 78, 76
2, 248001, Note_off_c, 0, 66, 80
2, 248001, Note_off_c, 0, 78, 80
2, 248040, Note_on_c, 0, 67, 76
2, 248040, Note_on_c, 0, 79, 76
2, 248241, Note_off_c, 0, 67, 80
2, 248241, Note_off_c, 0, 79, 80
2, 248280, Note_on_c, 0, 66, 76
2, 248280, Note_on_c, 0, 78, 76
2, 248361, Note_off_c, 0, 66, 80
2, 248361, Note_off_c, 0, 78, 80
2, 248400, Note_on_c, 0, 62, 76
2, 248400, Note_on_c, 0, 74, 76
2, 248841, Note_off_c, 0, 62, 80
2, 248841, Note_off_c, 0, 74, 80
2, 248880, Note_on_c, 0, 64, 76
2, 248880, Note_on_c, 0, 76, 76
2, 249201, Note_off_c, 0, 64, 80
2, 249201, Note_off_c, 0, 76, 80
2, 249240, Note_on_c, 0, 60, 76
2, 249240, Note_on_c, 0, 72, 76
2, 249561, Note_off_c, 0, 60, 80
2, 249561, Note_off_c, 0, 72, 80
2, 249840, Note_on_c, 0, 60, 76
2, 249840, Note_on_c, 0, 64, 76
2, 249840, Note_on_c, 0, 67, 76
2, 250041, Note_off_c, 0, 60, 80
2, 250041, Note_off_c, 0, 64, 80
2, 250041, Note_off_c, 0, 67, 80
2, 250080, Note_on_c, 0, 60, 76
2, 250080, Note_on_c, 0, 64, 76
2, 250080, Note_on_c, 0, 67, 76
2, 250281, Note_off_c, 0, 60, 80
2, 250281, Note_off_c, 0, 64, 80
2, 250281, Note_off_c, 0, 67, 80
2, 250320, Note_on_c, 0, 62, 76
2, 250320, Note_on_c, 0, 66, 76
2, 250320, Note_on_c, 0, 69, 76
2, 250521, Note_off_c, 0, 62, 80
2, 250521, Note_off_c, 0, 66, 80
2, 250521, Note_off_c, 0, 69, 80
2, 250560, Note_on_c, 0, 62, 76
2, 250560, Note_on_c, 0, 66, 76
2, 250560, Note_on_c, 0, 69, 76
2, 250761, Note_off_c, 0, 62, 80
2, 250761, Note_off_c, 0, 66, 80
2, 250761, Note_off_c, 0, 69, 80
2, 250800, Note_on_c, 0, 60, 76
2, 250800, Note_on_c, 0, 64, 76
2, 250800, Note_on_c, 0, 67, 76
2, 251001, Note_off_c, 0, 60, 80
2, 251001, Note_off_c, 0, 64, 80
2, 251001, Note_off_c, 0, 67, 80
2, 251040, Note_on_c, 0, 60, 76
2, 251040, Note_on_c, 0, 64, 76
2, 251040, Note_on_c, 0, 67, 76
2, 251241, Note_off_c, 0, 60, 80
2, 251241, Note_off_c, 0, 64, 80
2, 251241, Note_off_c, 0, 67, 80
2, 251280, Note_on_c, 0, 59, 76
2, 251280, Note_on_c, 0, 62, 76
2, 251280, Note_on_c, 0, 66, 76
2, 252921, Note_off_c, 0, 59, 80
2, 252921, Note_off_c, 0, 62, 80
2, 252921, Note_off_c, 0, 66, 80
2, 252960, Note_on_c, 0, 57, 76
2, 252960, Note_on_c, 0, 62, 76
2, 252960, Note_on_c, 0, 66, 76
2, 253161, Note_off_c, 0, 57, 80
2, 253161, Note_off_c, 0, 62, 80
2, 253161, Note_off_c, 0, 66, 80
2, 253200, Note_on_c, 0, 60, 76
2, 253200, Note_on_c, 0, 64, 76
2, 253200, Note_on_c, 0, 67, 76
2, 253401, Note_off_c, 0, 60, 80
2, 253401, Note_off_c, 0, 64, 80
2, 253401, Note_off_c, 0, 67, 80
2, 253920, Note_on_c, 0, 55, 76
2, 253920, Note_on_c, 0, 60, 76
2, 253920, Note_on_c, 0, 64, 76
2, 254121, Note_off_c, 0, 55, 80
2, 254121, Note_off_c, 0, 60, 80
2, 254121, Note_off_c, 0, 64, 80
2, 254160, Note_on_c, 0, 57, 76
2, 254160, Note_on_c, 0, 62, 76
2, 254160, Note_on_c, 0, 66, 76
2, 254361, Note_off_c, 0, 57, 80
2, 254361, Note_off_c, 0, 62, 80
2, 254361, Note_off_c, 0, 66, 80
2, 254400, Note_on_c, 0, 55, 76
2, 254400, Note_on_c, 0, 60, 76
2, 254400, Note_on_c, 0, 64, 76
2, 254601, Note_off_c, 0, 55, 80
2, 254601, Note_off_c, 0, 60, 80
2, 254601, Note_off_c, 0, 64, 80
2, 254640, Note_on_c, 0, 55, 76
2, 254640, Note_on_c, 0, 60, 76
2, 254640, Note_on_c, 0, 64, 76
2, 254841, Note_off_c, 0, 55, 80
2, 254841, Note_off_c, 0, 60, 80
2, 254841, Note_off_c, 0, 64, 80
2, 254880, Note_on_c, 0, 57, 76
2, 254880, Note_on_c, 0, 62, 76
2, 254880, Note_on_c, 0, 66, 76
2, 255321, Note_off_c, 0, 57, 80
2, 255321, Note_off_c, 0, 62, 80
2, 255321, Note_off_c, 0, 66, 80
2, 255360, Note_on_c, 0, 64, 76
2, 255360, Note_on_c, 0, 76, 76
2, 255561, Note_off_c, 0, 64, 80
2, 255561, Note_off_c, 0, 76, 80
2, 255600, Note_on_c, 0, 66, 76
2, 255600, Note_on_c, 0, 78, 76
2, 255681, Note_off_c, 0, 66, 80
2, 255681, Note_off_c, 0, 78, 80
2, 255720, Note_on_c, 0, 66, 76
2, 255720, Note_on_c, 0, 78, 76
2, 256041, Note_off_c, 0, 66, 80
2, 256041, Note_off_c, 0, 78, 80
2, 256080, Note_on_c, 0, 72, 76
2, 256080, Note_on_c, 0, 76, 76
2, 256080, Note_on_c, 0, 79, 76
2, 256161, Note_off_c, 0, 72, 80
2, 256161, Note_off_c, 0, 76, 80
2, 256161, Note_off_c, 0, 79, 80
2, 256200, Note_on_c, 0, 72, 76
2, 256200, Note_on_c, 0, 76, 76
2, 256200, Note_on_c, 0, 79, 76
2, 256521, Note_off_c, 0, 72, 80
2, 256521, Note_off_c, 0, 76, 80
2, 256521, Note_off_c, 0, 79, 80
2, 256560, Note_on_c, 0, 72, 76
2, 256641, Note_off_c, 0, 72, 80
2, 256680, Note_on_c, 0, 72, 76
2, 256881, Note_off_c, 0, 72, 80
2, 256920, Note_on_c, 0, 74, 76
2, 257001, Note_off_c, 0, 74, 80
2, 257040, Note_on_c, 0, 77, 76
2, 257241, Note_off_c, 0, 77, 80
2, 257520, Note_on_c, 0, 60, 76
2, 257520, Note_on_c, 0, 64, 76
2, 257520, Note_on_c, 0, 67, 76
2, 257721, Note_off_c, 0, 60, 80
2, 257721, Note_off_c, 0, 64, 80
2, 257721, Note_off_c, 0, 67, 80
2, 257760, Note_on_c, 0, 60, 76
2, 257760, Note_on_c, 0, 64, 76
2, 257760, Note_on_c, 0, 67, 76
2, 257961, Note_off_c, 0, 60, 80
2, 257961, Note_off_c, 0, 64, 80
2, 257961, Note_off_c, 0, 67, 80
2, 258000, Note_on_c, 0, 62, 76
2, 258000, Note_on_c, 0, 66, 76
2, 258000, Note_on_c, 0, 69, 76
2, 258201, Note_off_c, 0, 62, 80
2, 258201, Note_off_c, 0, 66, 80
2, 258201, Note_off_c, 0, 69, 80
2, 258240, Note_on_c, 0, 62, 76
2, 258240, Note_on_c, 0, 66, 76
2, 258240, Note_on_c, 0, 69, 76
2, 258441, Note_off_c, 0, 62, 80
2, 258441, Note_off_c, 0, 66, 80
2, 258441, Note_off_c, 0, 69, 80
2, 258480, Note_on_c, 0, 60, 76
2, 258480, Note_on_c, 0, 64, 76
2, 258480, Note_on_c, 0, 67, 76
2, 258681, Note_off_c, 0, 60, 80
2, 258681, Note_off_c, 0, 64, 80
2, 258681, Note_off_c, 0, 67, 80
2, 258720, Note_on_c, 0, 60, 76
2, 258720, Note_on_c, 0, 64, 76
2, 258720, Note_on_c, 0, 67, 76
2, 258921, Note_off_c, 0, 60, 80
2, 258921, Note_off_c, 0, 64, 80
2, 258921, Note_off_c, 0, 67, 80
2, 258960, Note_on_c, 0, 59, 76
2, 258960, Note_on_c, 0, 62, 76
2, 258960, Note_on_c, 0, 66, 76
2, 260601, Note_off_c, 0, 59, 80
2, 260601, Note_off_c, 0, 62, 80
2, 260601, Note_off_c, 0, 66, 80
2, 260640, Note_on_c, 0, 57, 76
2, 260640, Note_on_c, 0, 62, 76
2, 260640, Note_on_c, 0, 66, 76
2, 260841, Note_off_c, 0, 57, 80
2, 260841, Note_off_c, 0, 62, 80
2, 260841, Note_off_c, 0, 66, 80
2, 260880, Note_on_c, 0, 60, 76
2, 260880, Note_on_c, 0, 64, 76
2, 260880, Note_on_c, 0, 67, 76
2, 261081, Note_off_c, 0, 60, 80
2, 261081, Note_off_c, 0, 64, 80
2, 261081, Note_off_c, 0, 67, 80
2, 261600, Note_on_c, 0, 55, 76
2, 261600, Note_on_c, 0, 60, 76
2, 261600, Note_on_c, 0, 64, 76
2, 261801, Note_off_c, 0, 55, 80
2, 261801, Note_off_c, 0, 60, 80
2, 261801, Note_off_c, 0, 64, 80
2, 261840, Note_on_c, 0, 57, 76
2, 261840, Note_on_c, 0, 62, 76
2, 261840, Note_on_c, 0, 66, 76
2, 262041, Note_off_c, 0, 57, 80
2, 262041, Note_off_c, 0, 62, 80
2, 262041, Note_off_c, 0, 66, 80
2, 262080, Note_on_c, 0, 55, 76
2, 262080, Note_on_c, 0, 60, 76
2, 262080, Note_on_c, 0, 64, 76
2, 262281, Note_off_c, 0, 55, 80
2, 262281, Note_off_c, 0, 60, 80
2, 262281, Note_off_c, 0, 64, 80
2, 262320, Note_on_c, 0, 55, 76
2, 262320, Note_on_c, 0, 60, 76
2, 262320, Note_on_c, 0, 64, 76
2, 262521, Note_off_c, 0, 55, 80
2, 262521, Note_off_c, 0, 60, 80
2, 262521, Note_off_c, 0, 64, 80
2, 262560, Note_on_c, 0, 57, 76
2, 262560, Note_on_c, 0, 62, 76
2, 262560, Note_on_c, 0, 66, 76
2, 263001, Note_off_c, 0, 57, 80
2, 263001, Note_off_c, 0, 62, 80
2, 263001, Note_off_c, 0, 66, 80
2, 263040, Note_on_c, 0, 67, 76
2, 263040, Note_on_c, 0, 79, 76
2, 263241, Note_off_c, 0, 67, 80
2, 263241, Note_off_c, 0, 79, 80
2, 263280, Note_on_c, 0, 66, 76
2, 263280, Note_on_c, 0, 78, 76
2, 263481, Note_off_c, 0, 66, 80
2, 263481, Note_off_c, 0, 78, 80
2, 263520, Note_on_c, 0, 62, 76
2, 263520, Note_on_c, 0, 74, 76
2, 263721, Note_off_c, 0, 62, 80
2, 263721, Note_off_c, 0, 74, 80
2, 263760, Note_on_c, 0, 64, 76
2, 263760, Note_on_c, 0, 76, 76
2, 264201, Note_off_c, 0, 64, 80
2, 264201, Note_off_c, 0, 76, 80
2, 264240, Note_on_c, 0, 60, 76
2, 264240, Note_on_c, 0, 72, 76
2, 264921, Note_off_c, 0, 60, 80
2, 264921, Note_off_c, 0, 72, 80
2, 265200, Note_on_c, 0, 60, 76
2, 265200, Note_on_c, 0, 64, 76
2, 265200, Note_on_c, 0, 67, 76
2, 265401, Note_off_c, 0, 60, 80
2, 265401, Note_off_c, 0, 64, 80
2, 265401, Note_off_c, 0, 67, 80
2, 265440, Note_on_c, 0, 60, 76
2, 265440, Note_on_c, 0, 64, 76
2, 265440, Note_on_c, 0, 67, 76
2, 265641, Note_off_c, 0, 60, 80
2, 265641, Note_off_c, 0, 64, 80
2, 265641, Note_off_c, 0, 67, 80
2, 265680, Note_on_c, 0, 62, 76
2, 265680, Note_on_c, 0, 66, 76
2, 265680, Note_on_c, 0, 69, 76
2, 265881, Note_off_c, 0, 62, 80
2, 265881, Note_off_c, 0, 66, 80
2, 265881, Note_off_c, 0, 69, 80
2, 265920, Note_on_c, 0, 62, 76
2, 265920, Note_on_c, 0, 66, 76
2, 265920, Note_on_c, 0, 69, 76
2, 266121, Note_off_c, 0, 62, 80
2, 266121, Note_off_c, 0, 66, 80
2, 266121, Note_off_c, 0, 69, 80
2, 266160, Note_on_c, 0, 60, 76
2, 266160, Note_on_c, 0, 64, 76
2, 266160, Note_on_c, 0, 67, 76
2, 266361, Note_off_c, 0, 60, 80
2, 266361, Note_off_c, 0, 64, 80
2, 266361, Note_off_c, 0, 67, 80
2, 266400, Note_on_c, 0, 60, 76
2, 266400, Note_on_c, 0, 64, 76
2, 266400, Note_on_c, 0, 67, 76
2, 266601, Note_off_c, 0, 60, 80
2, 266601, Note_off_c, 0, 64, 80
2, 266601, Note_off_c, 0, 67, 80
2, 266640, Note_on_c, 0, 59, 76
2, 266640, Note_on_c, 0, 62, 76
2, 266640, Note_on_c, 0, 66, 76
2, 268281, Note_off_c, 0, 59, 80
2, 268281, Note_off_c, 0, 62, 80
2, 268281, Note_off_c, 0, 66, 80
2, 268320, Note_on_c, 0, 57, 76
2, 268320, Note_on_c, 0, 62, 76
2, 268320, Note_on_c, 0, 66, 76
2, 268521, Note_off_c, 0, 57, 80
2, 268521, Note_off_c, 0, 62, 80
2, 268521, Note_off_c, 0, 66, 80
2, 268560, Note_on_c, 0, 60, 76
2, 268560, Note_on_c, 0, 64, 76
2, 268560, Note_on_c, 0, 67, 76
2, 268761, Note_off_c, 0, 60, 80
2, 268761, Note_off_c, 0, 64, 80
2, 268761, Note_off_c, 0, 67, 80
2, 269280, Note_on_c, 0, 55, 76
2, 269280, Note_on_c, 0, 60, 76
2, 269280, Note_on_c, 0, 64, 76
2, 269481, Note_off_c, 0, 55, 80
2, 269481, Note_off_c, 0, 60, 80
2, 269481, Note_off_c, 0, 64, 80
2, 269520, Note_on_c, 0, 57, 76
2, 269520, Note_on_c, 0, 62, 76
2, 269520, Note_on_c, 0, 66, 76
2, 269721, Note_off_c, 0, 57, 80
2, 269721, Note_off_c, 0, 62, 80
2, 269721, Note_off_c, 0, 66, 80
2, 269760, Note_on_c, 0, 55, 76
2, 269760, Note_on_c, 0, 60, 76
2, 269760, Note_on_c, 0, 64, 76
2, 269961, Note_off_c, 0, 55, 80
2, 269961, Note_off_c, 0, 60, 80
2, 269961, Note_off_c, 0, 64, 80
2, 270000, Note_on_c, 0, 55, 76
2, 270000, Note_on_c, 0, 60, 76
2, 270000, Note_on_c, 0, 64, 76
2, 270201, Note_off_c, 0, 55, 80
2, 270201, Note_off_c, 0, 60, 80
2, 270201, Note_off_c, 0, 64, 80
2, 270240, Note_on_c, 0, 57, 76
2, 270240, Note_on_c, 0, 62, 76
2, 270240, Note_on_c, 0, 66, 76
2, 270681, Note_off_c, 0, 57, 80
2, 270681, Note_off_c, 0, 62, 80
2, 270681, Note_off_c, 0, 66, 80
2, 270720, Note_on_c, 0, 60, 76
2, 270720, Note_on_c, 0, 64, 76
2, 270720, Note_on_c, 0, 67, 76
2, 270921, Note_off_c, 0, 60, 80
2, 270921, Note_off_c, 0, 64, 80
2, 270921, Note_off_c, 0, 67, 80
2, 270960, Note_on_c, 0, 60, 76
2, 270960, Note_on_c, 0, 64, 76
2, 270960, Note_on_c, 0, 67, 76
2, 271161, Note_off_c, 0, 60, 80
2, 271161, Note_off_c, 0, 64, 80
2, 271161, Note_off_c, 0, 67, 80
2, 271200, Note_on_c, 0, 60, 76
2, 271200, Note_on_c, 0, 64, 76
2, 271200, Note_on_c, 0, 67, 76
2, 271401, Note_off_c, 0, 60, 80
2, 271401, Note_off_c, 0, 64, 80
2, 271401, Note_off_c, 0, 67, 80
2, 271440, Note_on_c, 0, 60, 76
2, 271440, Note_on_c, 0, 64, 76
2, 271440, Note_on_c, 0, 67, 76
2, 271521, Note_off_c, 0, 60, 80
2, 271521, Note_off_c, 0, 64, 80
2, 271521, Note_off_c, 0, 67, 80
2, 271560, Note_on_c, 0, 60, 76
2, 271560, Note_on_c, 0, 64, 76
2, 271560, Note_on_c, 0, 67, 76
2, 271761, Note_off_c, 0, 60, 80
2, 271761, Note_off_c, 0, 64, 80
2, 271761, Note_off_c, 0, 67, 80
2, 271800, Note_on_c, 0, 60, 76
2, 271800, Note_on_c, 0, 64, 76
2, 271800, Note_on_c, 0, 67, 76
2, 271881, Note_off_c, 0, 60, 80
2, 271881, Note_off_c, 0, 64, 80
2, 271881, Note_off_c, 0, 67, 80
2, 271920, Note_on_c, 0, 60, 76
2, 271920, Note_on_c, 0, 64, 76
2, 271920, Note_on_c, 0, 67, 76
2, 272001, Note_off_c, 0, 60, 80
2, 272001, Note_off_c, 0, 64, 80
2, 272001, Note_off_c, 0, 67, 80
2, 272040, Note_on_c, 0, 60, 76
2, 272040, Note_on_c, 0, 64, 76
2, 272040, Note_on_c, 0, 67, 76
2, 272121, Note_off_c, 0, 60, 80
2, 272121, Note_off_c, 0, 64, 80
2, 272121, Note_off_c, 0, 67, 80
2, 272160, Note_on_c, 0, 60, 76
2, 272160, Note_on_c, 0, 64, 76
2, 272160, Note_on_c, 0, 67, 76
2, 272361, Note_off_c, 0, 60, 80
2, 272361, Note_off_c, 0, 64, 80
2, 272361, Note_off_c, 0, 67, 80
2, 272400, Note_on_c, 0, 60, 76
2, 272400, Note_on_c, 0, 64, 76
2, 272400, Note_on_c, 0, 67, 76
2, 272601, Note_off_c, 0, 60, 80
2, 272601, Note_off_c, 0, 64, 80
2, 272601, Note_off_c, 0, 67, 80
2, 272601, End_track
3, 0, Start_track
3, 0, Title_t, "Carlos Alomar-Lead Guitar"
3, 30, Control_c, 1, 121, 0
3, 30, Control_c, 1, 123, 0
3, 30, Control_c, 1, 100, 0
3, 30, Control_c, 1, 38, 0
3, 30, Control_c, 1, 101, 0
3, 30, Control_c, 1, 6, 12
3, 30, Pitch_bend_c, 1, 8192
3, 60, Program_c, 1, 30
3, 60, Control_c, 1, 7, 86
3, 60, Control_c, 1, 10, 96
3, 240, Note_on_c, 1, 67, 80
3, 353, Note_off_c, 1, 67, 80
3, 360, Note_on_c, 1, 67, 80
3, 473, Note_off_c, 1, 67, 80
3, 480, Note_on_c, 1, 67, 80
3, 713, Note_off_c, 1, 67, 80
3, 720, Note_on_c, 1, 67, 80
3, 953, Note_off_c, 1, 67, 80
3, 960, Note_on_c, 1, 67, 80
3, 1193, Note_off_c, 1, 67, 80
3, 1200, Note_on_c, 1, 62, 80
3, 1433, Note_off_c, 1, 62, 80
3, 1440, Note_on_c, 1, 60, 80
3, 1673, Note_off_c, 1, 60, 80
3, 1680, Note_on_c, 1, 58, 80
3, 1913, Note_off_c, 1, 58, 80
3, 17280, Note_on_c, 1, 48, 80
3, 19193, Note_off_c, 1, 48, 80
3, 19200, Note_on_c, 1, 60, 80
3, 19673, Note_off_c, 1, 60, 80
3, 19680, Note_on_c, 1, 63, 80
3, 19913, Note_off_c, 1, 63, 80
3, 19920, Note_on_c, 1, 60, 80
3, 20153, Note_off_c, 1, 60, 80
3, 20160, Note_on_c, 1, 64, 80
3, 20393, Note_off_c, 1, 64, 80
3, 20400, Note_on_c, 1, 57, 80
3, 20633, Note_off_c, 1, 57, 80
3, 20640, Note_on_c, 1, 57, 80
3, 20873, Note_off_c, 1, 57, 80
3, 20880, Note_on_c, 1, 57, 80
3, 21113, Note_off_c, 1, 57, 80
3, 21120, Note_on_c, 1, 48, 80
3, 23033, Note_off_c, 1, 48, 80
3, 23040, Note_on_c, 1, 60, 80
3, 23513, Note_off_c, 1, 60, 80
3, 23520, Note_on_c, 1, 66, 80
3, 23753, Note_off_c, 1, 66, 80
3, 23760, Note_on_c, 1, 67, 80
3, 23993, Note_off_c, 1, 67, 80
3, 24000, Note_on_c, 1, 64, 80
3, 24473, Note_off_c, 1, 64, 80
3, 24960, Note_on_c, 1, 48, 80
3, 26873, Note_off_c, 1, 48, 80
3, 26880, Note_on_c, 1, 60, 80
3, 27353, Note_off_c, 1, 60, 80
3, 27360, Note_on_c, 1, 64, 80
3, 27593, Note_off_c, 1, 64, 80
3, 27600, Note_on_c, 1, 64, 80
3, 27833, Note_off_c, 1, 64, 80
3, 27840, Note_on_c, 1, 60, 80
3, 28073, Note_off_c, 1, 60, 80
3, 28080, Note_on_c, 1, 60, 80
3, 28553, Note_off_c, 1, 60, 80
3, 28800, Note_on_c, 1, 53, 80
3, 30713, Note_off_c, 1, 53, 80
3, 30720, Note_on_c, 1, 60, 80
3, 30720, Note_on_c, 1, 63, 80
3, 30720, Note_on_c, 1, 68, 80
3, 31193, Note_off_c, 1, 60, 80
3, 31193, Note_off_c, 1, 63, 80
3, 31193, Note_off_c, 1, 68, 80
3, 31200, Note_on_c, 1, 63, 80
3, 31433, Note_off_c, 1, 63, 80
3, 31440, Note_on_c, 1, 65, 80
3, 31673, Note_off_c, 1, 65, 80
3, 31680, Note_on_c, 1, 60, 80
3, 32153, Note_off_c, 1, 60, 80
3, 32640, Note_on_c, 1, 48, 80
3, 34553, Note_off_c, 1, 48, 80
3, 34560, Note_on_c, 1, 60, 80
3, 35033, Note_off_c, 1, 60, 80
3, 35040, Note_on_c, 1, 62, 80
3, 35273, Note_off_c, 1, 62, 80
3, 35280, Note_on_c, 1, 60, 80
3, 35513, Note_off_c, 1, 60, 80
3, 35520, Note_on_c, 1, 64, 80
3, 35753, Note_off_c, 1, 64, 80
3, 35760, Note_on_c, 1, 57, 80
3, 35993, Note_off_c, 1, 57, 80
3, 36000, Note_on_c, 1, 57, 80
3, 36473, Note_off_c, 1, 57, 80
3, 36480, Note_on_c, 1, 48, 80
3, 38393, Note_off_c, 1, 48, 80
3, 38400, Note_on_c, 1, 60, 80
3, 38873, Note_off_c, 1, 60, 80
3, 38880, Note_on_c, 1, 62, 80
3, 39113, Note_off_c, 1, 62, 80
3, 39120, Note_on_c, 1, 60, 80
3, 39353, Note_off_c, 1, 60, 80
3, 39360, Note_on_c, 1, 64, 80
3, 39593, Note_off_c, 1, 64, 80
3, 39600, Note_on_c, 1, 57, 80
3, 39833, Note_off_c, 1, 57, 80
3, 39840, Note_on_c, 1, 57, 80
3, 40313, Note_off_c, 1, 57, 80
3, 40320, Note_on_c, 1, 48, 80
3, 42233, Note_off_c, 1, 48, 80
3, 42240, Note_on_c, 1, 60, 80
3, 42713, Note_off_c, 1, 60, 80
3, 42720, Note_on_c, 1, 62, 80
3, 42953, Note_off_c, 1, 62, 80
3, 42960, Note_on_c, 1, 60, 80
3, 43193, Note_off_c, 1, 60, 80
3, 43200, Note_on_c, 1, 64, 80
3, 43433, Note_off_c, 1, 64, 80
3, 43440, Note_on_c, 1, 57, 80
3, 43673, Note_off_c, 1, 57, 80
3, 44160, Note_on_c, 1, 53, 80
3, 46073, Note_off_c, 1, 53, 80
3, 46080, Note_on_c, 1, 53, 80
3, 46080, Note_on_c, 1, 56, 80
3, 46553, Note_off_c, 1, 53, 80
3, 46553, Note_off_c, 1, 56, 80
3, 46560, Note_on_c, 1, 53, 80
3, 46560, Note_on_c, 1, 56, 80
3, 47033, Note_off_c, 1, 53, 80
3, 47033, Note_off_c, 1, 56, 80
3, 47040, Note_on_c, 1, 53, 80
3, 47040, Note_on_c, 1, 56, 80
3, 47513, Note_off_c, 1, 53, 80
3, 47513, Note_off_c, 1, 56, 80
3, 47520, Note_on_c, 1, 53, 80
3, 47520, Note_on_c, 1, 56, 80
3, 47993, Note_off_c, 1, 53, 80
3, 47993, Note_off_c, 1, 56, 80
3, 48000, Note_on_c, 1, 52, 80
3, 48473, Note_off_c, 1, 52, 80
3, 48480, Note_on_c, 1, 52, 80
3, 48953, Note_off_c, 1, 52, 80
3, 48960, Note_on_c, 1, 52, 80
3, 49433, Note_off_c, 1, 52, 80
3, 49440, Note_on_c, 1, 52, 80
3, 49913, Note_off_c, 1, 52, 80
3, 49920, Note_on_c, 1, 55, 80
3, 50393, Note_off_c, 1, 55, 80
3, 50400, Note_on_c, 1, 55, 80
3, 50873, Note_off_c, 1, 55, 80
3, 50880, Note_on_c, 1, 55, 80
3, 51353, Note_off_c, 1, 55, 80
3, 51360, Note_on_c, 1, 55, 80
3, 51833, Note_off_c, 1, 55, 80
3, 51840, Note_on_c, 1, 48, 80
3, 53753, Note_off_c, 1, 48, 80
3, 53760, Note_on_c, 1, 60, 80
3, 54233, Note_off_c, 1, 60, 80
3, 54240, Note_on_c, 1, 62, 80
3, 54473, Note_off_c, 1, 62, 80
3, 54480, Note_on_c, 1, 60, 80
3, 54713, Note_off_c, 1, 60, 80
3, 54720, Note_on_c, 1, 64, 80
3, 54953, Note_off_c, 1, 64, 80
3, 54960, Note_on_c, 1, 57, 80
3, 55193, Note_off_c, 1, 57, 80
3, 55200, Note_on_c, 1, 57, 80
3, 55673, Note_off_c, 1, 57, 80
3, 55680, Note_on_c, 1, 48, 80
3, 57593, Note_off_c, 1, 48, 80
3, 57600, Note_on_c, 1, 60, 80
3, 58073, Note_off_c, 1, 60, 80
3, 58080, Note_on_c, 1, 62, 80
3, 58313, Note_off_c, 1, 62, 80
3, 58320, Note_on_c, 1, 60, 80
3, 58553, Note_off_c, 1, 60, 80
3, 58560, Note_on_c, 1, 64, 80
3, 58793, Note_off_c, 1, 64, 80
3, 58800, Note_on_c, 1, 57, 80
3, 59033, Note_off_c, 1, 57, 80
3, 59040, Note_on_c, 1, 57, 80
3, 59513, Note_off_c, 1, 57, 80
3, 59520, Note_on_c, 1, 48, 80
3, 61433, Note_off_c, 1, 48, 80
3, 61440, Note_on_c, 1, 60, 80
3, 61913, Note_off_c, 1, 60, 80
3, 61920, Note_on_c, 1, 62, 80
3, 62153, Note_off_c, 1, 62, 80
3, 62160, Note_on_c, 1, 60, 80
3, 62393, Note_off_c, 1, 60, 80
3, 62400, Note_on_c, 1, 64, 80
3, 62633, Note_off_c, 1, 64, 80
3, 62640, Note_on_c, 1, 57, 80
3, 62873, Note_off_c, 1, 57, 80
3, 63360, Note_on_c, 1, 53, 80
3, 65273, Note_off_c, 1, 53, 80
3, 65280, Note_on_c, 1, 53, 80
3, 65280, Note_on_c, 1, 56, 80
3, 65753, Note_off_c, 1, 53, 80
3, 65753, Note_off_c, 1, 56, 80
3, 65760, Note_on_c, 1, 53, 80
3, 65760, Note_on_c, 1, 56, 80
3, 66233, Note_off_c, 1, 53, 80
3, 66233, Note_off_c, 1, 56, 80
3, 66240, Note_on_c, 1, 53, 80
3, 66240, Note_on_c, 1, 56, 80
3, 66713, Note_off_c, 1, 53, 80
3, 66713, Note_off_c, 1, 56, 80
3, 66720, Note_on_c, 1, 53, 80
3, 66720, Note_on_c, 1, 56, 80
3, 67193, Note_off_c, 1, 53, 80
3, 67193, Note_off_c, 1, 56, 80
3, 67200, Note_on_c, 1, 52, 80
3, 67673, Note_off_c, 1, 52, 80
3, 67680, Note_on_c, 1, 52, 80
3, 68153, Note_off_c, 1, 52, 80
3, 68160, Note_on_c, 1, 52, 80
3, 68633, Note_off_c, 1, 52, 80
3, 68640, Note_on_c, 1, 52, 80
3, 69113, Note_off_c, 1, 52, 80
3, 69120, Note_on_c, 1, 55, 80
3, 69593, Note_off_c, 1, 55, 80
3, 69600, Note_on_c, 1, 55, 80
3, 70073, Note_off_c, 1, 55, 80
3, 70080, Note_on_c, 1, 55, 80
3, 70553, Note_off_c, 1, 55, 80
3, 70560, Note_on_c, 1, 55, 80
3, 71033, Note_off_c, 1, 55, 80
3, 71040, Note_on_c, 1, 48, 80
3, 72953, Note_off_c, 1, 48, 80
3, 72960, Note_on_c, 1, 60, 80
3, 73433, Note_off_c, 1, 60, 80
3, 73440, Note_on_c, 1, 62, 80
3, 73673, Note_off_c, 1, 62, 80
3, 73680, Note_on_c, 1, 60, 80
3, 73913, Note_off_c, 1, 60, 80
3, 73920, Note_on_c, 1, 64, 80
3, 74153, Note_off_c, 1, 64, 80
3, 74160, Note_on_c, 1, 57, 80
3, 74393, Note_off_c, 1, 57, 80
3, 74400, Note_on_c, 1, 57, 80
3, 74873, Note_off_c, 1, 57, 80
3, 74880, Note_on_c, 1, 48, 80
3, 76793, Note_off_c, 1, 48, 80
3, 76800, Note_on_c, 1, 60, 80
3, 77273, Note_off_c, 1, 60, 80
3, 77280, Note_on_c, 1, 62, 80
3, 77513, Note_off_c, 1, 62, 80
3, 77520, Note_on_c, 1, 60, 80
3, 77753, Note_off_c, 1, 60, 80
3, 77760, Note_on_c, 1, 64, 80
3, 77993, Note_off_c, 1, 64, 80
3, 78000, Note_on_c, 1, 57, 80
3, 78233, Note_off_c, 1, 57, 80
3, 78240, Note_on_c, 1, 57, 80
3, 78713, Note_off_c, 1, 57, 80
3, 78720, Note_on_c, 1, 48, 80
3, 80633, Note_off_c, 1, 48, 80
3, 80640, Note_on_c, 1, 60, 80
3, 81113, Note_off_c, 1, 60, 80
3, 81120, Note_on_c, 1, 62, 80
3, 81353, Note_off_c, 1, 62, 80
3, 81360, Note_on_c, 1, 60, 80
3, 81593, Note_off_c, 1, 60, 80
3, 81600, Note_on_c, 1, 64, 80
3, 81833, Note_off_c, 1, 64, 80
3, 81840, Note_on_c, 1, 57, 80
3, 82073, Note_off_c, 1, 57, 80
3, 82560, Note_on_c, 1, 53, 80
3, 84473, Note_off_c, 1, 53, 80
3, 84480, Note_on_c, 1, 53, 80
3, 84480, Note_on_c, 1, 56, 80
3, 84953, Note_off_c, 1, 53, 80
3, 84953, Note_off_c, 1, 56, 80
3, 84960, Note_on_c, 1, 53, 80
3, 84960, Note_on_c, 1, 56, 80
3, 85433, Note_off_c, 1, 53, 80
3, 85433, Note_off_c, 1, 56, 80
3, 85440, Note_on_c, 1, 53, 80
3, 85440, Note_on_c, 1, 56, 80
3, 85913, Note_off_c, 1, 53, 80
3, 85913, Note_off_c, 1, 56, 80
3, 85920, Note_on_c, 1, 53, 80
3, 85920, Note_on_c, 1, 56, 80
3, 86393, Note_off_c, 1, 53, 80
3, 86393, Note_off_c, 1, 56, 80
3, 86400, Note_on_c, 1, 52, 80
3, 86873, Note_off_c, 1, 52, 80
3, 86880, Note_on_c, 1, 52, 80
3, 87353, Note_off_c, 1, 52, 80
3, 87360, Note_on_c, 1, 52, 80
3, 87833, Note_off_c, 1, 52, 80
3, 87840, Note_on_c, 1, 52, 80
3, 88313, Note_off_c, 1, 52, 80
3, 88320, Note_on_c, 1, 55, 80
3, 88793, Note_off_c, 1, 55, 80
3, 88800, Note_on_c, 1, 55, 80
3, 89273, Note_off_c, 1, 55, 80
3, 89280, Note_on_c, 1, 55, 80
3, 89753, Note_off_c, 1, 55, 80
3, 89760, Note_on_c, 1, 55, 80
3, 90233, Note_off_c, 1, 55, 80
3, 90240, Note_on_c, 1, 53, 80
3, 92153, Note_off_c, 1, 53, 80
3, 92160, Note_on_c, 1, 53, 80
3, 92160, Note_on_c, 1, 57, 80
3, 93113, Note_off_c, 1, 53, 80
3, 93113, Note_off_c, 1, 57, 80
3, 93120, Note_on_c, 1, 53, 80
3, 93120, Note_on_c, 1, 60, 80
3, 94073, Note_off_c, 1, 53, 80
3, 94073, Note_off_c, 1, 60, 80
3, 94080, Note_on_c, 1, 53, 80
3, 95993, Note_off_c, 1, 53, 80
3, 96000, Note_on_c, 1, 64, 80
3, 96473, Note_off_c, 1, 64, 80
3, 96480, Note_on_c, 1, 60, 80
3, 96953, Note_off_c, 1, 60, 80
3, 96960, Note_on_c, 1, 57, 80
3, 97433, Note_off_c, 1, 57, 80
3, 97440, Note_on_c, 1, 53, 80
3, 97913, Note_off_c, 1, 53, 80
3, 97920, Note_on_c, 1, 57, 80
3, 99833, Note_off_c, 1, 57, 80
3, 99840, Note_on_c, 1, 57, 80
3, 99840, Note_on_c, 1, 61, 80
3, 100793, Note_off_c, 1, 57, 80
3, 100793, Note_off_c, 1, 61, 80
3, 100800, Note_on_c, 1, 57, 80
3, 100800, Note_on_c, 1, 64, 80
3, 101753, Note_off_c, 1, 57, 80
3, 101753, Note_off_c, 1, 64, 80
3, 101760, Note_on_c, 1, 57, 80
3, 103673, Note_off_c, 1, 57, 80
3, 103680, Note_on_c, 1, 66, 80
3, 104153, Note_off_c, 1, 66, 80
3, 104160, Note_on_c, 1, 64, 80
3, 104633, Note_off_c, 1, 64, 80
3, 104640, Note_on_c, 1, 61, 80
3, 105113, Note_off_c, 1, 61, 80
3, 105120, Note_on_c, 1, 57, 80
3, 105593, Note_off_c, 1, 57, 80
3, 105840, Note_on_c, 1, 48, 80
3, 107513, Note_off_c, 1, 48, 80
3, 108960, Note_on_c, 1, 50, 80
3, 109193, Note_off_c, 1, 50, 80
3, 109200, Note_on_c, 1, 48, 80
3, 109433, Note_off_c, 1, 48, 80
3, 109920, Note_on_c, 1, 48, 80
3, 111353, Note_off_c, 1, 48, 80
3, 111360, Note_on_c, 1, 48, 80
3, 111833, Note_off_c, 1, 48, 80
3, 111840, Note_on_c, 1, 52, 80
3, 112313, Note_off_c, 1, 52, 80
3, 112320, Note_on_c, 1, 55, 80
3, 112793, Note_off_c, 1, 55, 80
3, 112800, Note_on_c, 1, 60, 80
3, 113273, Note_off_c, 1, 60, 80
3, 113520, Note_on_c, 1, 48, 80
3, 115193, Note_off_c, 1, 48, 80
3, 116640, Note_on_c, 1, 50, 80
3, 116873, Note_off_c, 1, 50, 80
3, 116880, Note_on_c, 1, 48, 80
3, 117113, Note_off_c, 1, 48, 80
3, 117600, Note_on_c, 1, 48, 80
3, 119033, Note_off_c, 1, 48, 80
3, 119040, Note_on_c, 1, 48, 80
3, 119513, Note_off_c, 1, 48, 80
3, 119520, Note_on_c, 1, 52, 80
3, 119993, Note_off_c, 1, 52, 80
3, 120000, Note_on_c, 1, 55, 80
3, 120473, Note_off_c, 1, 55, 80
3, 120480, Note_on_c, 1, 60, 80
3, 120953, Note_off_c, 1, 60, 80
3, 121200, Note_on_c, 1, 48, 80
3, 122873, Note_off_c, 1, 48, 80
3, 124320, Note_on_c, 1, 50, 80
3, 124553, Note_off_c, 1, 50, 80
3, 124560, Note_on_c, 1, 48, 80
3, 124793, Note_off_c, 1, 48, 80
3, 125280, Note_on_c, 1, 48, 80
3, 126713, Note_off_c, 1, 48, 80
3, 126720, Note_on_c, 1, 48, 80
3, 127193, Note_off_c, 1, 48, 80
3, 127200, Note_on_c, 1, 52, 80
3, 127673, Note_off_c, 1, 52, 80
3, 127680, Note_on_c, 1, 55, 80
3, 128153, Note_off_c, 1, 55, 80
3, 128160, Note_on_c, 1, 60, 80
3, 128633, Note_off_c, 1, 60, 80
3, 128880, Note_on_c, 1, 48, 80
3, 130553, Note_off_c, 1, 48, 80
3, 132000, Note_on_c, 1, 50, 80
3, 132233, Note_off_c, 1, 50, 80
3, 132240, Note_on_c, 1, 48, 80
3, 132473, Note_off_c, 1, 48, 80
3, 132960, Note_on_c, 1, 48, 80
3, 134393, Note_off_c, 1, 48, 80
3, 134400, Note_on_c, 1, 48, 80
3, 134873, Note_off_c, 1, 48, 80
3, 134880, Note_on_c, 1, 52, 80
3, 135353, Note_off_c, 1, 52, 80
3, 135360, Note_on_c, 1, 55, 80
3, 135833, Note_off_c, 1, 55, 80
3, 135840, Note_on_c, 1, 60, 80
3, 136313, Note_off_c, 1, 60, 80
3, 136560, Note_on_c, 1, 67, 80
3, 136673, Note_off_c, 1, 67, 80
3, 136680, Note_on_c, 1, 67, 80
3, 136793, Note_off_c, 1, 67, 80
3, 136800, Note_on_c, 1, 67, 80
3, 137033, Note_off_c, 1, 67, 80
3, 137040, Note_on_c, 1, 67, 80
3, 137273, Note_off_c, 1, 67, 80
3, 137280, Note_on_c, 1, 67, 80
3, 137513, Note_off_c, 1, 67, 80
3, 137520, Note_on_c, 1, 62, 80
3, 137753, Note_off_c, 1, 62, 80
3, 137760, Note_on_c, 1, 60, 80
3, 137993, Note_off_c, 1, 60, 80
3, 138000, Note_on_c, 1, 58, 80
3, 138233, Note_off_c, 1, 58, 80
3, 153600, Note_on_c, 1, 48, 80
3, 155513, Note_off_c, 1, 48, 80
3, 155520, Note_on_c, 1, 60, 80
3, 155993, Note_off_c, 1, 60, 80
3, 156000, Note_on_c, 1, 63, 80
3, 156233, Note_off_c, 1, 63, 80
3, 156240, Note_on_c, 1, 60, 80
3, 156473, Note_off_c, 1, 60, 80
3, 156480, Note_on_c, 1, 64, 80
3, 156713, Note_off_c, 1, 64, 80
3, 156720, Note_on_c, 1, 57, 80
3, 156953, Note_off_c, 1, 57, 80
3, 156960, Note_on_c, 1, 57, 80
3, 157193, Note_off_c, 1, 57, 80
3, 157200, Note_on_c, 1, 57, 80
3, 157433, Note_off_c, 1, 57, 80
3, 157440, Note_on_c, 1, 48, 80
3, 159353, Note_off_c, 1, 48, 80
3, 159360, Note_on_c, 1, 60, 80
3, 159833, Note_off_c, 1, 60, 80
3, 159840, Note_on_c, 1, 66, 80
3, 160073, Note_off_c, 1, 66, 80
3, 160080, Note_on_c, 1, 67, 80
3, 160313, Note_off_c, 1, 67, 80
3, 160320, Note_on_c, 1, 64, 80
3, 160793, Note_off_c, 1, 64, 80
3, 161280, Note_on_c, 1, 48, 80
3, 163193, Note_off_c, 1, 48, 80
3, 163200, Note_on_c, 1, 60, 80
3, 163673, Note_off_c, 1, 60, 80
3, 163680, Note_on_c, 1, 64, 80
3, 163913, Note_off_c, 1, 64, 80
3, 163920, Note_on_c, 1, 64, 80
3, 164153, Note_off_c, 1, 64, 80
3, 164160, Note_on_c, 1, 60, 80
3, 164393, Note_off_c, 1, 60, 80
3, 164400, Note_on_c, 1, 60, 80
3, 164873, Note_off_c, 1, 60, 80
3, 165120, Note_on_c, 1, 53, 80
3, 167033, Note_off_c, 1, 53, 80
3, 167040, Note_on_c, 1, 60, 80
3, 167040, Note_on_c, 1, 63, 80
3, 167040, Note_on_c, 1, 68, 80
3, 167513, Note_off_c, 1, 60, 80
3, 167513, Note_off_c, 1, 63, 80
3, 167513, Note_off_c, 1, 68, 80
3, 167520, Note_on_c, 1, 63, 80
3, 167753, Note_off_c, 1, 63, 80
3, 167760, Note_on_c, 1, 65, 80
3, 167993, Note_off_c, 1, 65, 80
3, 168000, Note_on_c, 1, 60, 80
3, 168473, Note_off_c, 1, 60, 80
3, 168960, Note_on_c, 1, 48, 80
3, 170873, Note_off_c, 1, 48, 80
3, 170880, Note_on_c, 1, 60, 80
3, 171353, Note_off_c, 1, 60, 80
3, 171360, Note_on_c, 1, 62, 80
3, 171593, Note_off_c, 1, 62, 80
3, 171600, Note_on_c, 1, 60, 80
3, 171833, Note_off_c, 1, 60, 80
3, 171840, Note_on_c, 1, 64, 80
3, 172073, Note_off_c, 1, 64, 80
3, 172080, Note_on_c, 1, 57, 80
3, 172313, Note_off_c, 1, 57, 80
3, 172320, Note_on_c, 1, 57, 80
3, 172793, Note_off_c, 1, 57, 80
3, 172800, Note_on_c, 1, 48, 80
3, 174713, Note_off_c, 1, 48, 80
3, 174720, Note_on_c, 1, 60, 80
3, 175193, Note_off_c, 1, 60, 80
3, 175200, Note_on_c, 1, 62, 80
3, 175433, Note_off_c, 1, 62, 80
3, 175440, Note_on_c, 1, 60, 80
3, 175673, Note_off_c, 1, 60, 80
3, 175680, Note_on_c, 1, 64, 80
3, 175913, Note_off_c, 1, 64, 80
3, 175920, Note_on_c, 1, 57, 80
3, 176153, Note_off_c, 1, 57, 80
3, 176160, Note_on_c, 1, 57, 80
3, 176633, Note_off_c, 1, 57, 80
3, 176640, Note_on_c, 1, 48, 80
3, 178553, Note_off_c, 1, 48, 80
3, 178560, Note_on_c, 1, 60, 80
3, 179033, Note_off_c, 1, 60, 80
3, 179040, Note_on_c, 1, 62, 80
3, 179273, Note_off_c, 1, 62, 80
3, 179280, Note_on_c, 1, 60, 80
3, 179513, Note_off_c, 1, 60, 80
3, 179520, Note_on_c, 1, 64, 80
3, 179753, Note_off_c, 1, 64, 80
3, 179760, Note_on_c, 1, 57, 80
3, 179993, Note_off_c, 1, 57, 80
3, 180480, Note_on_c, 1, 53, 80
3, 182393, Note_off_c, 1, 53, 80
3, 182400, Note_on_c, 1, 53, 80
3, 182400, Note_on_c, 1, 56, 80
3, 182873, Note_off_c, 1, 53, 80
3, 182873, Note_off_c, 1, 56, 80
3, 182880, Note_on_c, 1, 53, 80
3, 182880, Note_on_c, 1, 56, 80
3, 183353, Note_off_c, 1, 53, 80
3, 183353, Note_off_c, 1, 56, 80
3, 183360, Note_on_c, 1, 53, 80
3, 183360, Note_on_c, 1, 56, 80
3, 183833, Note_off_c, 1, 53, 80
3, 183833, Note_off_c, 1, 56, 80
3, 183840, Note_on_c, 1, 53, 80
3, 183840, Note_on_c, 1, 56, 80
3, 184313, Note_off_c, 1, 53, 80
3, 184313, Note_off_c, 1, 56, 80
3, 184320, Note_on_c, 1, 52, 80
3, 184793, Note_off_c, 1, 52, 80
3, 184800, Note_on_c, 1, 52, 80
3, 185273, Note_off_c, 1, 52, 80
3, 185280, Note_on_c, 1, 52, 80
3, 185753, Note_off_c, 1, 52, 80
3, 185760, Note_on_c, 1, 52, 80
3, 186233, Note_off_c, 1, 52, 80
3, 186240, Note_on_c, 1, 55, 80
3, 186713, Note_off_c, 1, 55, 80
3, 186720, Note_on_c, 1, 55, 80
3, 187193, Note_off_c, 1, 55, 80
3, 187200, Note_on_c, 1, 55, 80
3, 187673, Note_off_c, 1, 55, 80
3, 187680, Note_on_c, 1, 55, 80
3, 188153, Note_off_c, 1, 55, 80
3, 188160, Note_on_c, 1, 48, 80
3, 190073, Note_off_c, 1, 48, 80
3, 190080, Note_on_c, 1, 60, 80
3, 190553, Note_off_c, 1, 60, 80
3, 190560, Note_on_c, 1, 62, 80
3, 190793, Note_off_c, 1, 62, 80
3, 190800, Note_on_c, 1, 60, 80
3, 191033, Note_off_c, 1, 60, 80
3, 191040, Note_on_c, 1, 64, 80
3, 191273, Note_off_c, 1, 64, 80
3, 191280, Note_on_c, 1, 57, 80
3, 191513, Note_off_c, 1, 57, 80
3, 191520, Note_on_c, 1, 57, 80
3, 191993, Note_off_c, 1, 57, 80
3, 192000, Note_on_c, 1, 48, 80
3, 193913, Note_off_c, 1, 48, 80
3, 193920, Note_on_c, 1, 60, 80
3, 194393, Note_off_c, 1, 60, 80
3, 194400, Note_on_c, 1, 62, 80
3, 194633, Note_off_c, 1, 62, 80
3, 194640, Note_on_c, 1, 60, 80
3, 194873, Note_off_c, 1, 60, 80
3, 194880, Note_on_c, 1, 64, 80
3, 195113, Note_off_c, 1, 64, 80
3, 195120, Note_on_c, 1, 57, 80
3, 195353, Note_off_c, 1, 57, 80
3, 195360, Note_on_c, 1, 57, 80
3, 195833, Note_off_c, 1, 57, 80
3, 195840, Note_on_c, 1, 48, 80
3, 197753, Note_off_c, 1, 48, 80
3, 197760, Note_on_c, 1, 60, 80
3, 198233, Note_off_c, 1, 60, 80
3, 198240, Note_on_c, 1, 62, 80
3, 198473, Note_off_c, 1, 62, 80
3, 198480, Note_on_c, 1, 60, 80
3, 198713, Note_off_c, 1, 60, 80
3, 198720, Note_on_c, 1, 64, 80
3, 198953, Note_off_c, 1, 64, 80
3, 198960, Note_on_c, 1, 57, 80
3, 199193, Note_off_c, 1, 57, 80
3, 199680, Note_on_c, 1, 53, 80
3, 201593, Note_off_c, 1, 53, 80
3, 201600, Note_on_c, 1, 53, 80
3, 201600, Note_on_c, 1, 56, 80
3, 202073, Note_off_c, 1, 53, 80
3, 202073, Note_off_c, 1, 56, 80
3, 202080, Note_on_c, 1, 53, 80
3, 202080, Note_on_c, 1, 56, 80
3, 202553, Note_off_c, 1, 53, 80
3, 202553, Note_off_c, 1, 56, 80
3, 202560, Note_on_c, 1, 53, 80
3, 202560, Note_on_c, 1, 56, 80
3, 203033, Note_off_c, 1, 53, 80
3, 203033, Note_off_c, 1, 56, 80
3, 203040, Note_on_c, 1, 53, 80
3, 203040, Note_on_c, 1, 56, 80
3, 203513, Note_off_c, 1, 53, 80
3, 203513, Note_off_c, 1, 56, 80
3, 203520, Note_on_c, 1, 52, 80
3, 203993, Note_off_c, 1, 52, 80
3, 204000, Note_on_c, 1, 52, 80
3, 204473, Note_off_c, 1, 52, 80
3, 204480, Note_on_c, 1, 52, 80
3, 204953, Note_off_c, 1, 52, 80
3, 204960, Note_on_c, 1, 52, 80
3, 205433, Note_off_c, 1, 52, 80
3, 205440, Note_on_c, 1, 55, 80
3, 205913, Note_off_c, 1, 55, 80
3, 205920, Note_on_c, 1, 55, 80
3, 206393, Note_off_c, 1, 55, 80
3, 206400, Note_on_c, 1, 55, 80
3, 206873, Note_off_c, 1, 55, 80
3, 206880, Note_on_c, 1, 55, 80
3, 207353, Note_off_c, 1, 55, 80
3, 207360, Note_on_c, 1, 48, 80
3, 209273, Note_off_c, 1, 48, 80
3, 209280, Note_on_c, 1, 60, 80
3, 209753, Note_off_c, 1, 60, 80
3, 209760, Note_on_c, 1, 62, 80
3, 209993, Note_off_c, 1, 62, 80
3, 210000, Note_on_c, 1, 60, 80
3, 210233, Note_off_c, 1, 60, 80
3, 210240, Note_on_c, 1, 64, 80
3, 210473, Note_off_c, 1, 64, 80
3, 210480, Note_on_c, 1, 57, 80
3, 210713, Note_off_c, 1, 57, 80
3, 210720, Note_on_c, 1, 57, 80
3, 211193, Note_off_c, 1, 57, 80
3, 211200, Note_on_c, 1, 48, 80
3, 213113, Note_off_c, 1, 48, 80
3, 213120, Note_on_c, 1, 60, 80
3, 213593, Note_off_c, 1, 60, 80
3, 213600, Note_on_c, 1, 62, 80
3, 213833, Note_off_c, 1, 62, 80
3, 213840, Note_on_c, 1, 60, 80
3, 214073, Note_off_c, 1, 60, 80
3, 214080, Note_on_c, 1, 64, 80
3, 214313, Note_off_c, 1, 64, 80
3, 214320, Note_on_c, 1, 57, 80
3, 214553, Note_off_c, 1, 57, 80
3, 214560, Note_on_c, 1, 57, 80
3, 215033, Note_off_c, 1, 57, 80
3, 215040, Note_on_c, 1, 48, 80
3, 216953, Note_off_c, 1, 48, 80
3, 216960, Note_on_c, 1, 60, 80
3, 217433, Note_off_c, 1, 60, 80
3, 217440, Note_on_c, 1, 62, 80
3, 217673, Note_off_c, 1, 62, 80
3, 217680, Note_on_c, 1, 60, 80
3, 217913, Note_off_c, 1, 60, 80
3, 217920, Note_on_c, 1, 64, 80
3, 218153, Note_off_c, 1, 64, 80
3, 218160, Note_on_c, 1, 57, 80
3, 218393, Note_off_c, 1, 57, 80
3, 218880, Note_on_c, 1, 53, 80
3, 220793, Note_off_c, 1, 53, 80
3, 220800, Note_on_c, 1, 53, 80
3, 220800, Note_on_c, 1, 56, 80
3, 221273, Note_off_c, 1, 53, 80
3, 221273, Note_off_c, 1, 56, 80
3, 221280, Note_on_c, 1, 53, 80
3, 221280, Note_on_c, 1, 56, 80
3, 221753, Note_off_c, 1, 53, 80
3, 221753, Note_off_c, 1, 56, 80
3, 221760, Note_on_c, 1, 53, 80
3, 221760, Note_on_c, 1, 56, 80
3, 222233, Note_off_c, 1, 53, 80
3, 222233, Note_off_c, 1, 56, 80
3, 222240, Note_on_c, 1, 53, 80
3, 222240, Note_on_c, 1, 56, 80
3, 222713, Note_off_c, 1, 53, 80
3, 222713, Note_off_c, 1, 56, 80
3, 222720, Note_on_c, 1, 52, 80
3, 223193, Note_off_c, 1, 52, 80
3, 223200, Note_on_c, 1, 52, 80
3, 223673, Note_off_c, 1, 52, 80
3, 223680, Note_on_c, 1, 52, 80
3, 224153, Note_off_c, 1, 52, 80
3, 224160, Note_on_c, 1, 52, 80
3, 224633, Note_off_c, 1, 52, 80
3, 224640, Note_on_c, 1, 55, 80
3, 225113, Note_off_c, 1, 55, 80
3, 225120, Note_on_c, 1, 55, 80
3, 225593, Note_off_c, 1, 55, 80
3, 225600, Note_on_c, 1, 55, 80
3, 226073, Note_off_c, 1, 55, 80
3, 226080, Note_on_c, 1, 55, 80
3, 226553, Note_off_c, 1, 55, 80
3, 226560, Note_on_c, 1, 53, 80
3, 228473, Note_off_c, 1, 53, 80
3, 228480, Note_on_c, 1, 53, 80
3, 228480, Note_on_c, 1, 57, 80
3, 229433, Note_off_c, 1, 53, 80
3, 229433, Note_off_c, 1, 57, 80
3, 229440, Note_on_c, 1, 53, 80
3, 229440, Note_on_c, 1, 60, 80
3, 230393, Note_off_c, 1, 53, 80
3, 230393, Note_off_c, 1, 60, 80
3, 230400, Note_on_c, 1, 53, 80
3, 232313, Note_off_c, 1, 53, 80
3, 232320, Note_on_c, 1, 64, 80
3, 232793, Note_off_c, 1, 64, 80
3, 232800, Note_on_c, 1, 60, 80
3, 233273, Note_off_c, 1, 60, 80
3, 233280, Note_on_c, 1, 57, 80
3, 233753, Note_off_c, 1, 57, 80
3, 233760, Note_on_c, 1, 53, 80
3, 234233, Note_off_c, 1, 53, 80
3, 234240, Note_on_c, 1, 57, 80
3, 236153, Note_off_c, 1, 57, 80
3, 236160, Note_on_c, 1, 57, 80
3, 236160, Note_on_c, 1, 61, 80
3, 237113, Note_off_c, 1, 57, 80
3, 237113, Note_off_c, 1, 61, 80
3, 237120, Note_on_c, 1, 57, 80
3, 237120, Note_on_c, 1, 64, 80
3, 238073, Note_off_c, 1, 57, 80
3, 238073, Note_off_c, 1, 64, 80
3, 238080, Note_on_c, 1, 57, 80
3, 239993, Note_off_c, 1, 57, 80
3, 240000, Note_on_c, 1, 66, 80
3, 240473, Note_off_c, 1, 66, 80
3, 240480, Note_on_c, 1, 64, 80
3, 240953, Note_off_c, 1, 64, 80
3, 240960, Note_on_c, 1, 61, 80
3, 241433, Note_off_c, 1, 61, 80
3, 241440, Note_on_c, 1, 57, 80
3, 241913, Note_off_c, 1, 57, 80
3, 242160, Note_on_c, 1, 48, 80
3, 243833, Note_off_c, 1, 48, 80
3, 245280, Note_on_c, 1, 50, 80
3, 245513, Note_off_c, 1, 50, 80
3, 245520, Note_on_c, 1, 48, 80
3, 245753, Note_off_c, 1, 48, 80
3, 246240, Note_on_c, 1, 48, 80
3, 247673, Note_off_c, 1, 48, 80
3, 247680, Note_on_c, 1, 48, 80
3, 248153, Note_off_c, 1, 48, 80
3, 248160, Note_on_c, 1, 52, 80
3, 248633, Note_off_c, 1, 52, 80
3, 248640, Note_on_c, 1, 55, 80
3, 249113, Note_off_c, 1, 55, 80
3, 249120, Note_on_c, 1, 60, 80
3, 249593, Note_off_c, 1, 60, 80
3, 249840, Note_on_c, 1, 48, 80
3, 251513, Note_off_c, 1, 48, 80
3, 252960, Note_on_c, 1, 50, 80
3, 253193, Note_off_c, 1, 50, 80
3, 253200, Note_on_c, 1, 48, 80
3, 253433, Note_off_c, 1, 48, 80
3, 253920, Note_on_c, 1, 48, 80
3, 255353, Note_off_c, 1, 48, 80
3, 255360, Note_on_c, 1, 48, 80
3, 255833, Note_off_c, 1, 48, 80
3, 255840, Note_on_c, 1, 52, 80
3, 256313, Note_off_c, 1, 52, 80
3, 256320, Note_on_c, 1, 55, 80
3, 256793, Note_off_c, 1, 55, 80
3, 256800, Note_on_c, 1, 60, 80
3, 257273, Note_off_c, 1, 60, 80
3, 257520, Note_on_c, 1, 48, 80
3, 259193, Note_off_c, 1, 48, 80
3, 260640, Note_on_c, 1, 50, 80
3, 260873, Note_off_c, 1, 50, 80
3, 260880, Note_on_c, 1, 48, 80
3, 261113, Note_off_c, 1, 48, 80
3, 261600, Note_on_c, 1, 48, 80
3, 263033, Note_off_c, 1, 48, 80
3, 263040, Note_on_c, 1, 48, 80
3, 263513, Note_off_c, 1, 48, 80
3, 263520, Note_on_c, 1, 52, 80
3, 263993, Note_off_c, 1, 52, 80
3, 264000, Note_on_c, 1, 55, 80
3, 264473, Note_off_c, 1, 55, 80
3, 264480, Note_on_c, 1, 60, 80
3, 264953, Note_off_c, 1, 60, 80
3, 265200, Note_on_c, 1, 48, 80
3, 266873, Note_off_c, 1, 48, 80
3, 268320, Note_on_c, 1, 50, 80
3, 268553, Note_off_c, 1, 50, 80
3, 268560, Note_on_c, 1, 48, 80
3, 268793, Note_off_c, 1, 48, 80
3, 269280, Note_on_c, 1, 48, 80
3, 270713, Note_off_c, 1, 48, 80
3, 270720, Note_on_c, 1, 48, 80
3, 271193, Note_off_c, 1, 48, 80
3, 271200, Note_on_c, 1, 52, 80
3, 271673, Note_off_c, 1, 52, 80
3, 271680, Note_on_c, 1, 55, 80
3, 272153, Note_off_c, 1, 55, 80
3, 272160, Note_on_c, 1, 60, 80
3, 272633, Note_off_c, 1, 60, 80
3, 272633, End_track
4, 0, Start_track
4, 0, Title_t, "George Murray-Bass"
4, 60, Control_c, 2, 121, 0
4, 60, Control_c, 2, 123, 0
4, 60, Control_c, 2, 100, 0
4, 60, Control_c, 2, 38, 0
4, 60, Control_c, 2, 101, 0
4, 60, Control_c, 2, 6, 12
4, 60, Pitch_bend_c, 2, 8192
4, 120, Program_c, 2, 34
4, 120, Control_c, 2, 7, 107
4, 120, Control_c, 2, 10, 64
4, 240, Note_on_c, 2, 43, 104
4, 240, Note_on_c, 2, 55, 104
4, 358, Note_off_c, 2, 43, 80
4, 358, Note_off_c, 2, 55, 80
4, 360, Note_on_c, 2, 43, 104
4, 360, Note_on_c, 2, 55, 104
4, 478, Note_off_c, 2, 43, 80
4, 478, Note_off_c, 2, 55, 80
4, 480, Note_on_c, 2, 43, 104
4, 480, Note_on_c, 2, 55, 104
4, 718, Note_off_c, 2, 43, 80
4, 718, Note_off_c, 2, 55, 80
4, 720, Note_on_c, 2, 43, 104
4, 720, Note_on_c, 2, 55, 104
4, 958, Note_off_c, 2, 43, 80
4, 958, Note_off_c, 2, 55, 80
4, 960, Note_on_c, 2, 43, 104
4, 960, Note_on_c, 2, 55, 104
4, 1198, Note_off_c, 2, 43, 80
4, 1198, Note_off_c, 2, 55, 80
4, 1200, Note_on_c, 2, 38, 104
4, 1200, Note_on_c, 2, 50, 104
4, 1438, Note_off_c, 2, 38, 80
4, 1438, Note_off_c, 2, 50, 80
4, 1440, Note_on_c, 2, 36, 104
4, 1440, Note_on_c, 2, 48, 104
4, 1678, Note_off_c, 2, 36, 80
4, 1678, Note_off_c, 2, 48, 80
4, 1680, Note_on_c, 2, 34, 104
4, 1680, Note_on_c, 2, 46, 104
4, 1918, Note_off_c, 2, 34, 80
4, 1918, Note_off_c, 2, 46, 80
4, 1920, Note_on_c, 2, 36, 104
4, 2398, Note_off_c, 2, 36, 80
4, 2400, Note_on_c, 2, 40, 104
4, 2878, Note_off_c, 2, 40, 80
4, 2880, Note_on_c, 2, 43, 104
4, 3358, Note_off_c, 2, 43, 80
4, 3360, Note_on_c, 2, 45, 104
4, 3598, Note_off_c, 2, 45, 80
4, 3600, Note_on_c, 2, 43, 104
4, 3838, Note_off_c, 2, 43, 80
4, 3840, Note_on_c, 2, 48, 104
4, 4318, Note_off_c, 2, 48, 80
4, 4320, Note_on_c, 2, 40, 104
4, 4798, Note_off_c, 2, 40, 80
4, 4800, Note_on_c, 2, 43, 104
4, 5278, Note_off_c, 2, 43, 80
4, 5280, Note_on_c, 2, 45, 104
4, 5518, Note_off_c, 2, 45, 80
4, 5520, Note_on_c, 2, 43, 104
4, 5758, Note_off_c, 2, 43, 80
4, 5760, Note_on_c, 2, 36, 104
4, 6238, Note_off_c, 2, 36, 80
4, 6240, Note_on_c, 2, 40, 104
4, 6718, Note_off_c, 2, 40, 80
4, 6720, Note_on_c, 2, 43, 104
4, 7198, Note_off_c, 2, 43, 80
4, 7200, Note_on_c, 2, 45, 104
4, 7438, Note_off_c, 2, 45, 80
4, 7440, Note_on_c, 2, 43, 104
4, 7678, Note_off_c, 2, 43, 80
4, 7680, Note_on_c, 2, 48, 104
4, 8158, Note_off_c, 2, 48, 80
4, 8160, Note_on_c, 2, 45, 104
4, 8638, Note_off_c, 2, 45, 80
4, 8640, Note_on_c, 2, 43, 104
4, 9118, Note_off_c, 2, 43, 80
4, 9120, Note_on_c, 2, 36, 104
4, 9358, Note_off_c, 2, 36, 80
4, 9360, Note_on_c, 2, 38, 104
4, 9598, Note_off_c, 2, 38, 80
4, 9600, Note_on_c, 2, 36, 104
4, 10078, Note_off_c, 2, 36, 80
4, 10080, Note_on_c, 2, 40, 104
4, 10558, Note_off_c, 2, 40, 80
4, 10560, Note_on_c, 2, 43, 104
4, 11038, Note_off_c, 2, 43, 80
4, 11040, Note_on_c, 2, 45, 104
4, 11278, Note_off_c, 2, 45, 80
4, 11280, Note_on_c, 2, 43, 104
4, 11518, Note_off_c, 2, 43, 80
4, 11520, Note_on_c, 2, 47, 104
4, 11998, Note_off_c, 2, 47, 80
4, 12000, Note_on_c, 2, 38, 104
4, 12478, Note_off_c, 2, 38, 80
4, 12480, Note_on_c, 2, 40, 104
4, 12958, Note_off_c, 2, 40, 80
4, 12960, Note_on_c, 2, 50, 104
4, 13198, Note_off_c, 2, 50, 80
4, 13200, Note_on_c, 2, 48, 104
4, 13438, Note_off_c, 2, 48, 80
4, 13440, Note_on_c, 2, 36, 104
4, 13918, Note_off_c, 2, 36, 80
4, 13920, Note_on_c, 2, 40, 104
4, 14398, Note_off_c, 2, 40, 80
4, 14400, Note_on_c, 2, 43, 104
4, 14878, Note_off_c, 2, 43, 80
4, 14880, Note_on_c, 2, 45, 104
4, 15118, Note_off_c, 2, 45, 80
4, 15120, Note_on_c, 2, 43, 104
4, 15358, Note_off_c, 2, 43, 80
4, 15360, Note_on_c, 2, 48, 104
4, 15838, Note_off_c, 2, 48, 80
4, 15840, Note_on_c, 2, 45, 104
4, 16318, Note_off_c, 2, 45, 80
4, 16320, Note_on_c, 2, 43, 104
4, 16798, Note_off_c, 2, 43, 80
4, 16800, Note_on_c, 2, 36, 104
4, 17038, Note_off_c, 2, 36, 80
4, 17040, Note_on_c, 2, 38, 104
4, 17278, Note_off_c, 2, 38, 80
4, 17280, Note_on_c, 2, 36, 104
4, 17758, Note_off_c, 2, 36, 80
4, 17760, Note_on_c, 2, 43, 104
4, 18238, Note_off_c, 2, 43, 80
4, 18240, Note_on_c, 2, 45, 104
4, 18478, Note_off_c, 2, 45, 80
4, 18480, Note_on_c, 2, 43, 104
4, 18718, Note_off_c, 2, 43, 80
4, 18720, Note_on_c, 2, 45, 104
4, 19198, Note_off_c, 2, 45, 80
4, 19200, Note_on_c, 2, 48, 104
4, 19678, Note_off_c, 2, 48, 80
4, 19680, Note_on_c, 2, 43, 104
4, 20158, Note_off_c, 2, 43, 80
4, 20160, Note_on_c, 2, 45, 104
4, 20398, Note_off_c, 2, 45, 80
4, 20400, Note_on_c, 2, 43, 104
4, 20638, Note_off_c, 2, 43, 80
4, 20640, Note_on_c, 2, 45, 104
4, 21118, Note_off_c, 2, 45, 80
4, 21120, Note_on_c, 2, 48, 104
4, 21598, Note_off_c, 2, 48, 80
4, 21600, Note_on_c, 2, 43, 104
4, 22078, Note_off_c, 2, 43, 80
4, 22080, Note_on_c, 2, 45, 104
4, 22318, Note_off_c, 2, 45, 80
4, 22320, Note_on_c, 2, 43, 104
4, 22558, Note_off_c, 2, 43, 80
4, 22560, Note_on_c, 2, 45, 104
4, 23038, Note_off_c, 2, 45, 80
4, 23040, Note_on_c, 2, 48, 104
4, 23518, Note_off_c, 2, 48, 80
4, 23520, Note_on_c, 2, 43, 104
4, 23998, Note_off_c, 2, 43, 80
4, 24000, Note_on_c, 2, 45, 104
4, 24238, Note_off_c, 2, 45, 80
4, 24240, Note_on_c, 2, 43, 104
4, 24478, Note_off_c, 2, 43, 80
4, 24480, Note_on_c, 2, 45, 104
4, 24958, Note_off_c, 2, 45, 80
4, 24960, Note_on_c, 2, 48, 104
4, 25438, Note_off_c, 2, 48, 80
4, 25440, Note_on_c, 2, 43, 104
4, 25918, Note_off_c, 2, 43, 80
4, 25920, Note_on_c, 2, 45, 104
4, 26158, Note_off_c, 2, 45, 80
4, 26160, Note_on_c, 2, 43, 104
4, 26398, Note_off_c, 2, 43, 80
4, 26400, Note_on_c, 2, 45, 104
4, 26878, Note_off_c, 2, 45, 80
4, 26880, Note_on_c, 2, 48, 104
4, 27358, Note_off_c, 2, 48, 80
4, 27360, Note_on_c, 2, 43, 104
4, 27838, Note_off_c, 2, 43, 80
4, 27840, Note_on_c, 2, 45, 104
4, 28078, Note_off_c, 2, 45, 80
4, 28080, Note_on_c, 2, 43, 104
4, 28318, Note_off_c, 2, 43, 80
4, 28320, Note_on_c, 2, 45, 104
4, 28798, Note_off_c, 2, 45, 80
4, 28800, Note_on_c, 2, 53, 104
4, 29278, Note_off_c, 2, 53, 80
4, 29280, Note_on_c, 2, 48, 104
4, 29758, Note_off_c, 2, 48, 80
4, 29760, Note_on_c, 2, 50, 104
4, 29998, Note_off_c, 2, 50, 80
4, 30000, Note_on_c, 2, 48, 104
4, 30238, Note_off_c, 2, 48, 80
4, 30240, Note_on_c, 2, 50, 104
4, 30718, Note_off_c, 2, 50, 80
4, 30720, Note_on_c, 2, 41, 104
4, 30958, Note_off_c, 2, 41, 80
4, 30960, Note_on_c, 2, 48, 104
4, 31198, Note_off_c, 2, 48, 80
4, 31200, Note_on_c, 2, 53, 104
4, 31438, Note_off_c, 2, 53, 80
4, 31440, Note_on_c, 2, 44, 104
4, 31918, Note_off_c, 2, 44, 80
4, 31920, Note_on_c, 2, 43, 104
4, 32158, Note_off_c, 2, 43, 80
4, 32160, Note_on_c, 2, 41, 104
4, 32638, Note_off_c, 2, 41, 80
4, 32640, Note_on_c, 2, 48, 104
4, 33118, Note_off_c, 2, 48, 80
4, 33120, Note_on_c, 2, 43, 104
4, 33598, Note_off_c, 2, 43, 80
4, 33600, Note_on_c, 2, 45, 104
4, 33838, Note_off_c, 2, 45, 80
4, 33840, Note_on_c, 2, 43, 104
4, 34078, Note_off_c, 2, 43, 80
4, 34080, Note_on_c, 2, 45, 104
4, 34558, Note_off_c, 2, 45, 80
4, 34560, Note_on_c, 2, 48, 104
4, 35038, Note_off_c, 2, 48, 80
4, 35040, Note_on_c, 2, 43, 104
4, 35278, Note_off_c, 2, 43, 80
4, 35280, Note_on_c, 2, 45, 104
4, 35758, Note_off_c, 2, 45, 80
4, 35760, Note_on_c, 2, 43, 104
4, 35998, Note_off_c, 2, 43, 80
4, 36000, Note_on_c, 2, 45, 104
4, 36478, Note_off_c, 2, 45, 80
4, 36480, Note_on_c, 2, 48, 104
4, 36958, Note_off_c, 2, 48, 80
4, 36960, Note_on_c, 2, 43, 104
4, 37438, Note_off_c, 2, 43, 80
4, 37440, Note_on_c, 2, 45, 104
4, 37678, Note_off_c, 2, 45, 80
4, 37680, Note_on_c, 2, 43, 104
4, 37918, Note_off_c, 2, 43, 80
4, 37920, Note_on_c, 2, 45, 104
4, 38398, Note_off_c, 2, 45, 80
4, 38400, Note_on_c, 2, 48, 104
4, 38878, Note_off_c, 2, 48, 80
4, 38880, Note_on_c, 2, 43, 104
4, 39118, Note_off_c, 2, 43, 80
4, 39120, Note_on_c, 2, 45, 104
4, 39598, Note_off_c, 2, 45, 80
4, 39600, Note_on_c, 2, 43, 104
4, 39838, Note_off_c, 2, 43, 80
4, 39840, Note_on_c, 2, 45, 104
4, 40318, Note_off_c, 2, 45, 80
4, 40320, Note_on_c, 2, 48, 104
4, 40798, Note_off_c, 2, 48, 80
4, 40800, Note_on_c, 2, 43, 104
4, 41278, Note_off_c, 2, 43, 80
4, 41280, Note_on_c, 2, 45, 104
4, 41518, Note_off_c, 2, 45, 80
4, 41520, Note_on_c, 2, 43, 104
4, 41758, Note_off_c, 2, 43, 80
4, 41760, Note_on_c, 2, 45, 104
4, 42238, Note_off_c, 2, 45, 80
4, 42240, Note_on_c, 2, 48, 104
4, 42718, Note_off_c, 2, 48, 80
4, 42720, Note_on_c, 2, 43, 104
4, 42958, Note_off_c, 2, 43, 80
4, 42960, Note_on_c, 2, 45, 104
4, 43438, Note_off_c, 2, 45, 80
4, 43440, Note_on_c, 2, 43, 104
4, 43678, Note_off_c, 2, 43, 80
4, 43680, Note_on_c, 2, 45, 104
4, 44158, Note_off_c, 2, 45, 80
4, 44160, Note_on_c, 2, 53, 104
4, 44638, Note_off_c, 2, 53, 80
4, 44640, Note_on_c, 2, 48, 104
4, 45118, Note_off_c, 2, 48, 80
4, 45120, Note_on_c, 2, 50, 104
4, 45358, Note_off_c, 2, 50, 80
4, 45360, Note_on_c, 2, 48, 104
4, 45598, Note_off_c, 2, 48, 80
4, 45600, Note_on_c, 2, 50, 104
4, 46078, Note_off_c, 2, 50, 80
4, 46080, Note_on_c, 2, 41, 104
4, 46318, Note_off_c, 2, 41, 80
4, 46320, Note_on_c, 2, 48, 104
4, 46558, Note_off_c, 2, 48, 80
4, 46560, Note_on_c, 2, 53, 104
4, 46798, Note_off_c, 2, 53, 80
4, 46800, Note_on_c, 2, 44, 104
4, 47278, Note_off_c, 2, 44, 80
4, 47280, Note_on_c, 2, 43, 104
4, 47518, Note_off_c, 2, 43, 80
4, 47520, Note_on_c, 2, 41, 104
4, 47998, Note_off_c, 2, 41, 80
4, 48000, Note_on_c, 2, 40, 104
4, 48478, Note_off_c, 2, 40, 80
4, 48480, Note_on_c, 2, 35, 104
4, 48958, Note_off_c, 2, 35, 80
4, 48960, Note_on_c, 2, 40, 104
4, 49198, Note_off_c, 2, 40, 80
4, 49200, Note_on_c, 2, 41, 104
4, 49438, Note_off_c, 2, 41, 80
4, 49440, Note_on_c, 2, 42, 104
4, 49678, Note_off_c, 2, 42, 80
4, 49680, Note_on_c, 2, 43, 104
4, 49918, Note_off_c, 2, 43, 80
4, 49920, Note_on_c, 2, 43, 104
4, 50398, Note_off_c, 2, 43, 80
4, 50400, Note_on_c, 2, 38, 104
4, 50878, Note_off_c, 2, 38, 80
4, 50880, Note_on_c, 2, 43, 104
4, 51118, Note_off_c, 2, 43, 80
4, 51120, Note_on_c, 2, 40, 104
4, 51358, Note_off_c, 2, 40, 80
4, 51360, Note_on_c, 2, 43, 104
4, 51838, Note_off_c, 2, 43, 80
4, 51840, Note_on_c, 2, 48, 104
4, 52318, Note_off_c, 2, 48, 80
4, 52320, Note_on_c, 2, 43, 104
4, 52798, Note_off_c, 2, 43, 80
4, 52800, Note_on_c, 2, 45, 104
4, 53038, Note_off_c, 2, 45, 80
4, 53040, Note_on_c, 2, 43, 104
4, 53278, Note_off_c, 2, 43, 80
4, 53280, Note_on_c, 2, 45, 104
4, 53758, Note_off_c, 2, 45, 80
4, 53760, Note_on_c, 2, 48, 104
4, 54238, Note_off_c, 2, 48, 80
4, 54240, Note_on_c, 2, 43, 104
4, 54478, Note_off_c, 2, 43, 80
4, 54480, Note_on_c, 2, 45, 104
4, 54958, Note_off_c, 2, 45, 80
4, 54960, Note_on_c, 2, 43, 104
4, 55198, Note_off_c, 2, 43, 80
4, 55200, Note_on_c, 2, 45, 104
4, 55678, Note_off_c, 2, 45, 80
4, 55680, Note_on_c, 2, 48, 104
4, 56158, Note_off_c, 2, 48, 80
4, 56160, Note_on_c, 2, 43, 104
4, 56638, Note_off_c, 2, 43, 80
4, 56640, Note_on_c, 2, 45, 104
4, 56878, Note_off_c, 2, 45, 80
4, 56880, Note_on_c, 2, 43, 104
4, 57118, Note_off_c, 2, 43, 80
4, 57120, Note_on_c, 2, 45, 104
4, 57598, Note_off_c, 2, 45, 80
4, 57600, Note_on_c, 2, 48, 104
4, 58078, Note_off_c, 2, 48, 80
4, 58080, Note_on_c, 2, 43, 104
4, 58318, Note_off_c, 2, 43, 80
4, 58320, Note_on_c, 2, 45, 104
4, 58798, Note_off_c, 2, 45, 80
4, 58800, Note_on_c, 2, 43, 104
4, 59038, Note_off_c, 2, 43, 80
4, 59040, Note_on_c, 2, 45, 104
4, 59518, Note_off_c, 2, 45, 80
4, 59520, Note_on_c, 2, 48, 104
4, 59998, Note_off_c, 2, 48, 80
4, 60000, Note_on_c, 2, 43, 104
4, 60478, Note_off_c, 2, 43, 80
4, 60480, Note_on_c, 2, 45, 104
4, 60718, Note_off_c, 2, 45, 80
4, 60720, Note_on_c, 2, 43, 104
4, 60958, Note_off_c, 2, 43, 80
4, 60960, Note_on_c, 2, 45, 104
4, 61438, Note_off_c, 2, 45, 80
4, 61440, Note_on_c, 2, 48, 104
4, 61918, Note_off_c, 2, 48, 80
4, 61920, Note_on_c, 2, 43, 104
4, 62158, Note_off_c, 2, 43, 80
4, 62160, Note_on_c, 2, 45, 104
4, 62638, Note_off_c, 2, 45, 80
4, 62640, Note_on_c, 2, 43, 104
4, 62878, Note_off_c, 2, 43, 80
4, 62880, Note_on_c, 2, 45, 104
4, 63358, Note_off_c, 2, 45, 80
4, 63360, Note_on_c, 2, 53, 104
4, 63838, Note_off_c, 2, 53, 80
4, 63840, Note_on_c, 2, 48, 104
4, 64318, Note_off_c, 2, 48, 80
4, 64320, Note_on_c, 2, 50, 104
4, 64558, Note_off_c, 2, 50, 80
4, 64560, Note_on_c, 2, 48, 104
4, 64798, Note_off_c, 2, 48, 80
4, 64800, Note_on_c, 2, 50, 104
4, 65278, Note_off_c, 2, 50, 80
4, 65280, Note_on_c, 2, 41, 104
4, 65518, Note_off_c, 2, 41, 80
4, 65520, Note_on_c, 2, 48, 104
4, 65758, Note_off_c, 2, 48, 80
4, 65760, Note_on_c, 2, 53, 104
4, 65998, Note_off_c, 2, 53, 80
4, 66000, Note_on_c, 2, 44, 104
4, 66478, Note_off_c, 2, 44, 80
4, 66480, Note_on_c, 2, 43, 104
4, 66718, Note_off_c, 2, 43, 80
4, 66720, Note_on_c, 2, 41, 104
4, 67198, Note_off_c, 2, 41, 80
4, 67200, Note_on_c, 2, 40, 104
4, 67678, Note_off_c, 2, 40, 80
4, 67680, Note_on_c, 2, 35, 104
4, 68158, Note_off_c, 2, 35, 80
4, 68160, Note_on_c, 2, 40, 104
4, 68398, Note_off_c, 2, 40, 80
4, 68400, Note_on_c, 2, 41, 104
4, 68638, Note_off_c, 2, 41, 80
4, 68640, Note_on_c, 2, 42, 104
4, 68878, Note_off_c, 2, 42, 80
4, 68880, Note_on_c, 2, 43, 104
4, 69118, Note_off_c, 2, 43, 80
4, 69120, Note_on_c, 2, 43, 104
4, 69598, Note_off_c, 2, 43, 80
4, 69600, Note_on_c, 2, 38, 104
4, 70078, Note_off_c, 2, 38, 80
4, 70080, Note_on_c, 2, 43, 104
4, 70318, Note_off_c, 2, 43, 80
4, 70320, Note_on_c, 2, 40, 104
4, 70558, Note_off_c, 2, 40, 80
4, 70560, Note_on_c, 2, 43, 104
4, 71038, Note_off_c, 2, 43, 80
4, 71040, Note_on_c, 2, 48, 104
4, 71518, Note_off_c, 2, 48, 80
4, 71520, Note_on_c, 2, 43, 104
4, 71998, Note_off_c, 2, 43, 80
4, 72000, Note_on_c, 2, 45, 104
4, 72238, Note_off_c, 2, 45, 80
4, 72240, Note_on_c, 2, 43, 104
4, 72478, Note_off_c, 2, 43, 80
4, 72480, Note_on_c, 2, 45, 104
4, 72958, Note_off_c, 2, 45, 80
4, 72960, Note_on_c, 2, 48, 104
4, 73438, Note_off_c, 2, 48, 80
4, 73440, Note_on_c, 2, 43, 104
4, 73678, Note_off_c, 2, 43, 80
4, 73680, Note_on_c, 2, 45, 104
4, 74158, Note_off_c, 2, 45, 80
4, 74160, Note_on_c, 2, 43, 104
4, 74398, Note_off_c, 2, 43, 80
4, 74400, Note_on_c, 2, 45, 104
4, 74878, Note_off_c, 2, 45, 80
4, 74880, Note_on_c, 2, 48, 104
4, 75358, Note_off_c, 2, 48, 80
4, 75360, Note_on_c, 2, 43, 104
4, 75838, Note_off_c, 2, 43, 80
4, 75840, Note_on_c, 2, 45, 104
4, 76078, Note_off_c, 2, 45, 80
4, 76080, Note_on_c, 2, 43, 104
4, 76318, Note_off_c, 2, 43, 80
4, 76320, Note_on_c, 2, 45, 104
4, 76798, Note_off_c, 2, 45, 80
4, 76800, Note_on_c, 2, 48, 104
4, 77278, Note_off_c, 2, 48, 80
4, 77280, Note_on_c, 2, 43, 104
4, 77518, Note_off_c, 2, 43, 80
4, 77520, Note_on_c, 2, 45, 104
4, 77998, Note_off_c, 2, 45, 80
4, 78000, Note_on_c, 2, 43, 104
4, 78238, Note_off_c, 2, 43, 80
4, 78240, Note_on_c, 2, 45, 104
4, 78718, Note_off_c, 2, 45, 80
4, 78720, Note_on_c, 2, 48, 104
4, 79198, Note_off_c, 2, 48, 80
4, 79200, Note_on_c, 2, 43, 104
4, 79678, Note_off_c, 2, 43, 80
4, 79680, Note_on_c, 2, 45, 104
4, 79918, Note_off_c, 2, 45, 80
4, 79920, Note_on_c, 2, 43, 104
4, 80158, Note_off_c, 2, 43, 80
4, 80160, Note_on_c, 2, 45, 104
4, 80638, Note_off_c, 2, 45, 80
4, 80640, Note_on_c, 2, 48, 104
4, 81118, Note_off_c, 2, 48, 80
4, 81120, Note_on_c, 2, 43, 104
4, 81358, Note_off_c, 2, 43, 80
4, 81360, Note_on_c, 2, 45, 104
4, 81838, Note_off_c, 2, 45, 80
4, 81840, Note_on_c, 2, 43, 104
4, 82078, Note_off_c, 2, 43, 80
4, 82080, Note_on_c, 2, 45, 104
4, 82558, Note_off_c, 2, 45, 80
4, 82560, Note_on_c, 2, 53, 104
4, 83038, Note_off_c, 2, 53, 80
4, 83040, Note_on_c, 2, 48, 104
4, 83518, Note_off_c, 2, 48, 80
4, 83520, Note_on_c, 2, 50, 104
4, 83758, Note_off_c, 2, 50, 80
4, 83760, Note_on_c, 2, 48, 104
4, 83998, Note_off_c, 2, 48, 80
4, 84000, Note_on_c, 2, 50, 104
4, 84478, Note_off_c, 2, 50, 80
4, 84480, Note_on_c, 2, 41, 104
4, 84718, Note_off_c, 2, 41, 80
4, 84720, Note_on_c, 2, 48, 104
4, 84958, Note_off_c, 2, 48, 80
4, 84960, Note_on_c, 2, 53, 104
4, 85198, Note_off_c, 2, 53, 80
4, 85200, Note_on_c, 2, 44, 104
4, 85678, Note_off_c, 2, 44, 80
4, 85680, Note_on_c, 2, 43, 104
4, 85918, Note_off_c, 2, 43, 80
4, 85920, Note_on_c, 2, 41, 104
4, 86398, Note_off_c, 2, 41, 80
4, 86400, Note_on_c, 2, 40, 104
4, 86878, Note_off_c, 2, 40, 80
4, 86880, Note_on_c, 2, 35, 104
4, 87358, Note_off_c, 2, 35, 80
4, 87360, Note_on_c, 2, 40, 104
4, 87598, Note_off_c, 2, 40, 80
4, 87600, Note_on_c, 2, 41, 104
4, 87838, Note_off_c, 2, 41, 80
4, 87840, Note_on_c, 2, 42, 104
4, 88078, Note_off_c, 2, 42, 80
4, 88080, Note_on_c, 2, 43, 104
4, 88318, Note_off_c, 2, 43, 80
4, 88320, Note_on_c, 2, 43, 104
4, 88798, Note_off_c, 2, 43, 80
4, 88800, Note_on_c, 2, 38, 104
4, 89278, Note_off_c, 2, 38, 80
4, 89280, Note_on_c, 2, 43, 104
4, 89518, Note_off_c, 2, 43, 80
4, 89520, Note_on_c, 2, 38, 104
4, 89758, Note_off_c, 2, 38, 80
4, 89760, Note_on_c, 2, 43, 104
4, 90238, Note_off_c, 2, 43, 80
4, 90240, Note_on_c, 2, 41, 104
4, 90958, Note_off_c, 2, 41, 80
4, 90960, Note_on_c, 2, 36, 104
4, 91678, Note_off_c, 2, 36, 80
4, 91680, Note_on_c, 2, 38, 104
4, 91918, Note_off_c, 2, 38, 80
4, 91920, Note_on_c, 2, 39, 104
4, 92158, Note_off_c, 2, 39, 80
4, 92160, Note_on_c, 2, 41, 104
4, 92878, Note_off_c, 2, 41, 80
4, 92880, Note_on_c, 2, 36, 104
4, 93598, Note_off_c, 2, 36, 80
4, 93600, Note_on_c, 2, 38, 104
4, 93838, Note_off_c, 2, 38, 80
4, 93840, Note_on_c, 2, 39, 104
4, 94078, Note_off_c, 2, 39, 80
4, 94080, Note_on_c, 2, 41, 104
4, 94798, Note_off_c, 2, 41, 80
4, 94800, Note_on_c, 2, 36, 104
4, 95518, Note_off_c, 2, 36, 80
4, 95520, Note_on_c, 2, 38, 104
4, 95758, Note_off_c, 2, 38, 80
4, 95760, Note_on_c, 2, 39, 104
4, 95998, Note_off_c, 2, 39, 80
4, 96000, Note_on_c, 2, 41, 104
4, 96718, Note_off_c, 2, 41, 80
4, 96720, Note_on_c, 2, 36, 104
4, 97438, Note_off_c, 2, 36, 80
4, 97440, Note_on_c, 2, 43, 104
4, 97678, Note_off_c, 2, 43, 80
4, 97680, Note_on_c, 2, 44, 104
4, 97918, Note_off_c, 2, 44, 80
4, 97920, Note_on_c, 2, 41, 104
4, 98638, Note_off_c, 2, 41, 80
4, 98640, Note_on_c, 2, 36, 104
4, 99358, Note_off_c, 2, 36, 80
4, 99360, Note_on_c, 2, 43, 104
4, 99598, Note_off_c, 2, 43, 80
4, 99600, Note_on_c, 2, 44, 104
4, 99838, Note_off_c, 2, 44, 80
4, 99840, Note_on_c, 2, 41, 104
4, 100558, Note_off_c, 2, 41, 80
4, 100560, Note_on_c, 2, 36, 104
4, 101278, Note_off_c, 2, 36, 80
4, 101280, Note_on_c, 2, 43, 104
4, 101518, Note_off_c, 2, 43, 80
4, 101520, Note_on_c, 2, 44, 104
4, 101758, Note_off_c, 2, 44, 80
4, 101760, Note_on_c, 2, 41, 104
4, 102478, Note_off_c, 2, 41, 80
4, 102480, Note_on_c, 2, 36, 104
4, 103198, Note_off_c, 2, 36, 80
4, 103200, Note_on_c, 2, 43, 104
4, 103438, Note_off_c, 2, 43, 80
4, 103440, Note_on_c, 2, 44, 104
4, 103678, Note_off_c, 2, 44, 80
4, 103680, Note_on_c, 2, 45, 104
4, 104398, Note_off_c, 2, 45, 80
4, 104400, Note_on_c, 2, 40, 104
4, 104878, Note_off_c, 2, 40, 80
4, 104880, Note_on_c, 2, 43, 104
4, 105598, Note_off_c, 2, 43, 80
4, 105600, Note_on_c, 2, 48, 104
4, 105838, Note_off_c, 2, 48, 80
4, 105840, Note_on_c, 2, 43, 104
4, 106078, Note_off_c, 2, 43, 80
4, 106080, Note_on_c, 2, 48, 104
4, 106558, Note_off_c, 2, 48, 80
4, 106560, Note_on_c, 2, 48, 104
4, 106798, Note_off_c, 2, 48, 80
4, 106800, Note_on_c, 2, 45, 104
4, 107038, Note_off_c, 2, 45, 80
4, 107040, Note_on_c, 2, 48, 104
4, 107518, Note_off_c, 2, 48, 80
4, 107520, Note_on_c, 2, 50, 104
4, 107758, Note_off_c, 2, 50, 80
4, 107760, Note_on_c, 2, 45, 104
4, 107998, Note_off_c, 2, 45, 80
4, 108000, Note_on_c, 2, 50, 104
4, 108478, Note_off_c, 2, 50, 80
4, 108480, Note_on_c, 2, 50, 104
4, 108718, Note_off_c, 2, 50, 80
4, 108720, Note_on_c, 2, 47, 104
4, 108958, Note_off_c, 2, 47, 80
4, 108960, Note_on_c, 2, 50, 104
4, 109438, Note_off_c, 2, 50, 80
4, 109440, Note_on_c, 2, 48, 104
4, 109678, Note_off_c, 2, 48, 80
4, 109680, Note_on_c, 2, 43, 104
4, 109918, Note_off_c, 2, 43, 80
4, 109920, Note_on_c, 2, 48, 104
4, 110398, Note_off_c, 2, 48, 80
4, 110400, Note_on_c, 2, 48, 104
4, 110638, Note_off_c, 2, 48, 80
4, 110640, Note_on_c, 2, 45, 104
4, 110878, Note_off_c, 2, 45, 80
4, 110880, Note_on_c, 2, 48, 104
4, 111358, Note_off_c, 2, 48, 80
4, 111360, Note_on_c, 2, 36, 104
4, 111360, Note_on_c, 2, 48, 104
4, 113278, Note_off_c, 2, 36, 80
4, 113278, Note_off_c, 2, 48, 80
4, 113280, Note_on_c, 2, 48, 104
4, 113518, Note_off_c, 2, 48, 80
4, 113520, Note_on_c, 2, 43, 104
4, 113758, Note_off_c, 2, 43, 80
4, 113760, Note_on_c, 2, 48, 104
4, 114238, Note_off_c, 2, 48, 80
4, 114240, Note_on_c, 2, 48, 104
4, 114478, Note_off_c, 2, 48, 80
4, 114480, Note_on_c, 2, 45, 104
4, 114718, Note_off_c, 2, 45, 80
4, 114720, Note_on_c, 2, 48, 104
4, 115198, Note_off_c, 2, 48, 80
4, 115200, Note_on_c, 2, 50, 104
4, 115438, Note_off_c, 2, 50, 80
4, 115440, Note_on_c, 2, 45, 104
4, 115678, Note_off_c, 2, 45, 80
4, 115680, Note_on_c, 2, 50, 104
4, 116158, Note_off_c, 2, 50, 80
4, 116160, Note_on_c, 2, 50, 104
4, 116398, Note_off_c, 2, 50, 80
4, 116400, Note_on_c, 2, 47, 104
4, 116638, Note_off_c, 2, 47, 80
4, 116640, Note_on_c, 2, 50, 104
4, 117118, Note_off_c, 2, 50, 80
4, 117120, Note_on_c, 2, 48, 104
4, 117358, Note_off_c, 2, 48, 80
4, 117360, Note_on_c, 2, 43, 104
4, 117598, Note_off_c, 2, 43, 80
4, 117600, Note_on_c, 2, 48, 104
4, 118078, Note_off_c, 2, 48, 80
4, 118080, Note_on_c, 2, 48, 104
4, 118318, Note_off_c, 2, 48, 80
4, 118320, Note_on_c, 2, 45, 104
4, 118558, Note_off_c, 2, 45, 80
4, 118560, Note_on_c, 2, 48, 104
4, 119038, Note_off_c, 2, 48, 80
4, 119040, Note_on_c, 2, 36, 104
4, 119040, Note_on_c, 2, 48, 104
4, 120958, Note_off_c, 2, 36, 80
4, 120958, Note_off_c, 2, 48, 80
4, 120960, Note_on_c, 2, 48, 104
4, 121198, Note_off_c, 2, 48, 80
4, 121200, Note_on_c, 2, 43, 104
4, 121438, Note_off_c, 2, 43, 80
4, 121440, Note_on_c, 2, 48, 104
4, 121918, Note_off_c, 2, 48, 80
4, 121920, Note_on_c, 2, 48, 104
4, 122158, Note_off_c, 2, 48, 80
4, 122160, Note_on_c, 2, 45, 104
4, 122398, Note_off_c, 2, 45, 80
4, 122400, Note_on_c, 2, 48, 104
4, 122878, Note_off_c, 2, 48, 80
4, 122880, Note_on_c, 2, 50, 104
4, 123118, Note_off_c, 2, 50, 80
4, 123120, Note_on_c, 2, 45, 104
4, 123358, Note_off_c, 2, 45, 80
4, 123360, Note_on_c, 2, 50, 104
4, 123838, Note_off_c, 2, 50, 80
4, 123840, Note_on_c, 2, 50, 104
4, 124078, Note_off_c, 2, 50, 80
4, 124080, Note_on_c, 2, 47, 104
4, 124318, Note_off_c, 2, 47, 80
4, 124320, Note_on_c, 2, 50, 104
4, 124798, Note_off_c, 2, 50, 80
4, 124800, Note_on_c, 2, 48, 104
4, 125038, Note_off_c, 2, 48, 80
4, 125040, Note_on_c, 2, 43, 104
4, 125278, Note_off_c, 2, 43, 80
4, 125280, Note_on_c, 2, 48, 104
4, 125758, Note_off_c, 2, 48, 80
4, 125760, Note_on_c, 2, 48, 104
4, 125998, Note_off_c, 2, 48, 80
4, 126000, Note_on_c, 2, 45, 104
4, 126238, Note_off_c, 2, 45, 80
4, 126240, Note_on_c, 2, 48, 104
4, 126718, Note_off_c, 2, 48, 80
4, 126720, Note_on_c, 2, 36, 104
4, 126720, Note_on_c, 2, 48, 104
4, 128638, Note_off_c, 2, 36, 80
4, 128638, Note_off_c, 2, 48, 80
4, 128640, Note_on_c, 2, 48, 104
4, 128878, Note_off_c, 2, 48, 80
4, 128880, Note_on_c, 2, 43, 104
4, 129118, Note_off_c, 2, 43, 80
4, 129120, Note_on_c, 2, 48, 104
4, 129598, Note_off_c, 2, 48, 80
4, 129600, Note_on_c, 2, 48, 104
4, 129838, Note_off_c, 2, 48, 80
4, 129840, Note_on_c, 2, 45, 104
4, 130078, Note_off_c, 2, 45, 80
4, 130080, Note_on_c, 2, 48, 104
4, 130558, Note_off_c, 2, 48, 80
4, 130560, Note_on_c, 2, 50, 104
4, 130798, Note_off_c, 2, 50, 80
4, 130800, Note_on_c, 2, 45, 104
4, 131038, Note_off_c, 2, 45, 80
4, 131040, Note_on_c, 2, 50, 104
4, 131518, Note_off_c, 2, 50, 80
4, 131520, Note_on_c, 2, 50, 104
4, 131758, Note_off_c, 2, 50, 80
4, 131760, Note_on_c, 2, 47, 104
4, 131998, Note_off_c, 2, 47, 80
4, 132000, Note_on_c, 2, 50, 104
4, 132478, Note_off_c, 2, 50, 80
4, 132480, Note_on_c, 2, 48, 104
4, 132718, Note_off_c, 2, 48, 80
4, 132720, Note_on_c, 2, 43, 104
4, 132958, Note_off_c, 2, 43, 80
4, 132960, Note_on_c, 2, 48, 104
4, 133438, Note_off_c, 2, 48, 80
4, 133440, Note_on_c, 2, 48, 104
4, 133678, Note_off_c, 2, 48, 80
4, 133680, Note_on_c, 2, 45, 104
4, 133918, Note_off_c, 2, 45, 80
4, 133920, Note_on_c, 2, 48, 104
4, 134398, Note_off_c, 2, 48, 80
4, 134400, Note_on_c, 2, 36, 104
4, 134400, Note_on_c, 2, 48, 104
4, 136318, Note_off_c, 2, 36, 80
4, 136318, Note_off_c, 2, 48, 80
4, 136560, Note_on_c, 2, 43, 104
4, 136560, Note_on_c, 2, 55, 104
4, 136678, Note_off_c, 2, 43, 80
4, 136678, Note_off_c, 2, 55, 80
4, 136680, Note_on_c, 2, 43, 104
4, 136680, Note_on_c, 2, 55, 104
4, 136798, Note_off_c, 2, 43, 80
4, 136798, Note_off_c, 2, 55, 80
4, 136800, Note_on_c, 2, 43, 104
4, 136800, Note_on_c, 2, 55, 104
4, 137038, Note_off_c, 2, 43, 80
4, 137038, Note_off_c, 2, 55, 80
4, 137040, Note_on_c, 2, 43, 104
4, 137040, Note_on_c, 2, 55, 104
4, 137278, Note_off_c, 2, 43, 80
4, 137278, Note_off_c, 2, 55, 80
4, 137280, Note_on_c, 2, 43, 104
4, 137280, Note_on_c, 2, 55, 104
4, 137518, Note_off_c, 2, 43, 80
4, 137518, Note_off_c, 2, 55, 80
4, 137520, Note_on_c, 2, 38, 104
4, 137520, Note_on_c, 2, 50, 104
4, 137758, Note_off_c, 2, 38, 80
4, 137758, Note_off_c, 2, 50, 80
4, 137760, Note_on_c, 2, 36, 104
4, 137760, Note_on_c, 2, 48, 104
4, 137998, Note_off_c, 2, 36, 80
4, 137998, Note_off_c, 2, 48, 80
4, 138000, Note_on_c, 2, 34, 104
4, 138000, Note_on_c, 2, 46, 104
4, 138238, Note_off_c, 2, 34, 80
4, 138238, Note_off_c, 2, 46, 80
4, 138240, Note_on_c, 2, 36, 104
4, 138718, Note_off_c, 2, 36, 80
4, 138720, Note_on_c, 2, 40, 104
4, 139198, Note_off_c, 2, 40, 80
4, 139200, Note_on_c, 2, 43, 104
4, 139678, Note_off_c, 2, 43, 80
4, 139680, Note_on_c, 2, 45, 104
4, 139918, Note_off_c, 2, 45, 80
4, 139920, Note_on_c, 2, 43, 104
4, 140158, Note_off_c, 2, 43, 80
4, 140160, Note_on_c, 2, 48, 104
4, 140638, Note_off_c, 2, 48, 80
4, 140640, Note_on_c, 2, 40, 104
4, 141118, Note_off_c, 2, 40, 80
4, 141120, Note_on_c, 2, 43, 104
4, 141598, Note_off_c, 2, 43, 80
4, 141600, Note_on_c, 2, 45, 104
4, 141838, Note_off_c, 2, 45, 80
4, 141840, Note_on_c, 2, 43, 104
4, 142078, Note_off_c, 2, 43, 80
4, 142080, Note_on_c, 2, 36, 104
4, 142558, Note_off_c, 2, 36, 80
4, 142560, Note_on_c, 2, 40, 104
4, 143038, Note_off_c, 2, 40, 80
4, 143040, Note_on_c, 2, 43, 104
4, 143518, Note_off_c, 2, 43, 80
4, 143520, Note_on_c, 2, 45, 104
4, 143758, Note_off_c, 2, 45, 80
4, 143760, Note_on_c, 2, 43, 104
4, 143998, Note_off_c, 2, 43, 80
4, 144000, Note_on_c, 2, 48, 104
4, 144478, Note_off_c, 2, 48, 80
4, 144480, Note_on_c, 2, 45, 104
4, 144958, Note_off_c, 2, 45, 80
4, 144960, Note_on_c, 2, 43, 104
4, 145438, Note_off_c, 2, 43, 80
4, 145440, Note_on_c, 2, 36, 104
4, 145678, Note_off_c, 2, 36, 80
4, 145680, Note_on_c, 2, 38, 104
4, 145918, Note_off_c, 2, 38, 80
4, 145920, Note_on_c, 2, 36, 104
4, 146398, Note_off_c, 2, 36, 80
4, 146400, Note_on_c, 2, 40, 104
4, 146878, Note_off_c, 2, 40, 80
4, 146880, Note_on_c, 2, 43, 104
4, 147358, Note_off_c, 2, 43, 80
4, 147360, Note_on_c, 2, 45, 104
4, 147598, Note_off_c, 2, 45, 80
4, 147600, Note_on_c, 2, 43, 104
4, 147838, Note_off_c, 2, 43, 80
4, 147840, Note_on_c, 2, 47, 104
4, 148318, Note_off_c, 2, 47, 80
4, 148320, Note_on_c, 2, 38, 104
4, 148798, Note_off_c, 2, 38, 80
4, 148800, Note_on_c, 2, 40, 104
4, 149278, Note_off_c, 2, 40, 80
4, 149280, Note_on_c, 2, 50, 104
4, 149518, Note_off_c, 2, 50, 80
4, 149520, Note_on_c, 2, 48, 104
4, 149758, Note_off_c, 2, 48, 80
4, 149760, Note_on_c, 2, 36, 104
4, 150238, Note_off_c, 2, 36, 80
4, 150240, Note_on_c, 2, 40, 104
4, 150718, Note_off_c, 2, 40, 80
4, 150720, Note_on_c, 2, 43, 104
4, 151198, Note_off_c, 2, 43, 80
4, 151200, Note_on_c, 2, 45, 104
4, 151438, Note_off_c, 2, 45, 80
4, 151440, Note_on_c, 2, 43, 104
4, 151678, Note_off_c, 2, 43, 80
4, 151680, Note_on_c, 2, 48, 104
4, 152158, Note_off_c, 2, 48, 80
4, 152160, Note_on_c, 2, 45, 104
4, 152638, Note_off_c, 2, 45, 80
4, 152640, Note_on_c, 2, 43, 104
4, 153118, Note_off_c, 2, 43, 80
4, 153120, Note_on_c, 2, 36, 104
4, 153358, Note_off_c, 2, 36, 80
4, 153360, Note_on_c, 2, 38, 104
4, 153598, Note_off_c, 2, 38, 80
4, 153600, Note_on_c, 2, 36, 104
4, 154078, Note_off_c, 2, 36, 80
4, 154080, Note_on_c, 2, 43, 104
4, 154558, Note_off_c, 2, 43, 80
4, 154560, Note_on_c, 2, 45, 104
4, 154798, Note_off_c, 2, 45, 80
4, 154800, Note_on_c, 2, 43, 104
4, 155038, Note_off_c, 2, 43, 80
4, 155040, Note_on_c, 2, 45, 104
4, 155518, Note_off_c, 2, 45, 80
4, 155520, Note_on_c, 2, 48, 104
4, 155998, Note_off_c, 2, 48, 80
4, 156000, Note_on_c, 2, 43, 104
4, 156478, Note_off_c, 2, 43, 80
4, 156480, Note_on_c, 2, 45, 104
4, 156718, Note_off_c, 2, 45, 80
4, 156720, Note_on_c, 2, 43, 104
4, 156958, Note_off_c, 2, 43, 80
4, 156960, Note_on_c, 2, 45, 104
4, 157438, Note_off_c, 2, 45, 80
4, 157440, Note_on_c, 2, 48, 104
4, 157918, Note_off_c, 2, 48, 80
4, 157920, Note_on_c, 2, 43, 104
4, 158398, Note_off_c, 2, 43, 80
4, 158400, Note_on_c, 2, 45, 104
4, 158638, Note_off_c, 2, 45, 80
4, 158640, Note_on_c, 2, 43, 104
4, 158878, Note_off_c, 2, 43, 80
4, 158880, Note_on_c, 2, 45, 104
4, 159358, Note_off_c, 2, 45, 80
4, 159360, Note_on_c, 2, 48, 104
4, 159838, Note_off_c, 2, 48, 80
4, 159840, Note_on_c, 2, 43, 104
4, 160318, Note_off_c, 2, 43, 80
4, 160320, Note_on_c, 2, 45, 104
4, 160558, Note_off_c, 2, 45, 80
4, 160560, Note_on_c, 2, 43, 104
4, 160798, Note_off_c, 2, 43, 80
4, 160800, Note_on_c, 2, 45, 104
4, 161278, Note_off_c, 2, 45, 80
4, 161280, Note_on_c, 2, 48, 104
4, 161758, Note_off_c, 2, 48, 80
4, 161760, Note_on_c, 2, 43, 104
4, 162238, Note_off_c, 2, 43, 80
4, 162240, Note_on_c, 2, 45, 104
4, 162478, Note_off_c, 2, 45, 80
4, 162480, Note_on_c, 2, 43, 104
4, 162718, Note_off_c, 2, 43, 80
4, 162720, Note_on_c, 2, 45, 104
4, 163198, Note_off_c, 2, 45, 80
4, 163200, Note_on_c, 2, 48, 104
4, 163678, Note_off_c, 2, 48, 80
4, 163680, Note_on_c, 2, 43, 104
4, 164158, Note_off_c, 2, 43, 80
4, 164160, Note_on_c, 2, 45, 104
4, 164398, Note_off_c, 2, 45, 80
4, 164400, Note_on_c, 2, 43, 104
4, 164638, Note_off_c, 2, 43, 80
4, 164640, Note_on_c, 2, 45, 104
4, 165118, Note_off_c, 2, 45, 80
4, 165120, Note_on_c, 2, 53, 104
4, 165598, Note_off_c, 2, 53, 80
4, 165600, Note_on_c, 2, 48, 104
4, 166078, Note_off_c, 2, 48, 80
4, 166080, Note_on_c, 2, 50, 104
4, 166318, Note_off_c, 2, 50, 80
4, 166320, Note_on_c, 2, 48, 104
4, 166558, Note_off_c, 2, 48, 80
4, 166560, Note_on_c, 2, 50, 104
4, 167038, Note_off_c, 2, 50, 80
4, 167040, Note_on_c, 2, 41, 104
4, 167278, Note_off_c, 2, 41, 80
4, 167280, Note_on_c, 2, 48, 104
4, 167518, Note_off_c, 2, 48, 80
4, 167520, Note_on_c, 2, 53, 104
4, 167758, Note_off_c, 2, 53, 80
4, 167760, Note_on_c, 2, 44, 104
4, 168238, Note_off_c, 2, 44, 80
4, 168240, Note_on_c, 2, 43, 104
4, 168478, Note_off_c, 2, 43, 80
4, 168480, Note_on_c, 2, 41, 104
4, 168958, Note_off_c, 2, 41, 80
4, 168960, Note_on_c, 2, 48, 104
4, 169438, Note_off_c, 2, 48, 80
4, 169440, Note_on_c, 2, 43, 104
4, 169918, Note_off_c, 2, 43, 80
4, 169920, Note_on_c, 2, 45, 104
4, 170158, Note_off_c, 2, 45, 80
4, 170160, Note_on_c, 2, 43, 104
4, 170398, Note_off_c, 2, 43, 80
4, 170400, Note_on_c, 2, 45, 104
4, 170878, Note_off_c, 2, 45, 80
4, 170880, Note_on_c, 2, 48, 104
4, 171358, Note_off_c, 2, 48, 80
4, 171360, Note_on_c, 2, 43, 104
4, 171598, Note_off_c, 2, 43, 80
4, 171600, Note_on_c, 2, 45, 104
4, 172078, Note_off_c, 2, 45, 80
4, 172080, Note_on_c, 2, 43, 104
4, 172318, Note_off_c, 2, 43, 80
4, 172320, Note_on_c, 2, 45, 104
4, 172798, Note_off_c, 2, 45, 80
4, 172800, Note_on_c, 2, 48, 104
4, 173278, Note_off_c, 2, 48, 80
4, 173280, Note_on_c, 2, 43, 104
4, 173758, Note_off_c, 2, 43, 80
4, 173760, Note_on_c, 2, 45, 104
4, 173998, Note_off_c, 2, 45, 80
4, 174000, Note_on_c, 2, 43, 104
4, 174238, Note_off_c, 2, 43, 80
4, 174240, Note_on_c, 2, 45, 104
4, 174718, Note_off_c, 2, 45, 80
4, 174720, Note_on_c, 2, 48, 104
4, 175198, Note_off_c, 2, 48, 80
4, 175200, Note_on_c, 2, 43, 104
4, 175438, Note_off_c, 2, 43, 80
4, 175440, Note_on_c, 2, 45, 104
4, 175918, Note_off_c, 2, 45, 80
4, 175920, Note_on_c, 2, 43, 104
4, 176158, Note_off_c, 2, 43, 80
4, 176160, Note_on_c, 2, 45, 104
4, 176638, Note_off_c, 2, 45, 80
4, 176640, Note_on_c, 2, 48, 104
4, 177118, Note_off_c, 2, 48, 80
4, 177120, Note_on_c, 2, 43, 104
4, 177598, Note_off_c, 2, 43, 80
4, 177600, Note_on_c, 2, 45, 104
4, 177838, Note_off_c, 2, 45, 80
4, 177840, Note_on_c, 2, 43, 104
4, 178078, Note_off_c, 2, 43, 80
4, 178080, Note_on_c, 2, 45, 104
4, 178558, Note_off_c, 2, 45, 80
4, 178560, Note_on_c, 2, 48, 104
4, 179038, Note_off_c, 2, 48, 80
4, 179040, Note_on_c, 2, 43, 104
4, 179278, Note_off_c, 2, 43, 80
4, 179280, Note_on_c, 2, 45, 104
4, 179758, Note_off_c, 2, 45, 80
4, 179760, Note_on_c, 2, 43, 104
4, 179998, Note_off_c, 2, 43, 80
4, 180000, Note_on_c, 2, 45, 104
4, 180478, Note_off_c, 2, 45, 80
4, 180480, Note_on_c, 2, 53, 104
4, 180958, Note_off_c, 2, 53, 80
4, 180960, Note_on_c, 2, 48, 104
4, 181438, Note_off_c, 2, 48, 80
4, 181440, Note_on_c, 2, 50, 104
4, 181678, Note_off_c, 2, 50, 80
4, 181680, Note_on_c, 2, 48, 104
4, 181918, Note_off_c, 2, 48, 80
4, 181920, Note_on_c, 2, 50, 104
4, 182398, Note_off_c, 2, 50, 80
4, 182400, Note_on_c, 2, 41, 104
4, 182638, Note_off_c, 2, 41, 80
4, 182640, Note_on_c, 2, 48, 104
4, 182878, Note_off_c, 2, 48, 80
4, 182880, Note_on_c, 2, 53, 104
4, 183118, Note_off_c, 2, 53, 80
4, 183120, Note_on_c, 2, 44, 104
4, 183598, Note_off_c, 2, 44, 80
4, 183600, Note_on_c, 2, 43, 104
4, 183838, Note_off_c, 2, 43, 80
4, 183840, Note_on_c, 2, 41, 104
4, 184318, Note_off_c, 2, 41, 80
4, 184320, Note_on_c, 2, 40, 104
4, 184798, Note_off_c, 2, 40, 80
4, 184800, Note_on_c, 2, 35, 104
4, 185278, Note_off_c, 2, 35, 80
4, 185280, Note_on_c, 2, 40, 104
4, 185518, Note_off_c, 2, 40, 80
4, 185520, Note_on_c, 2, 41, 104
4, 185758, Note_off_c, 2, 41, 80
4, 185760, Note_on_c, 2, 42, 104
4, 185998, Note_off_c, 2, 42, 80
4, 186000, Note_on_c, 2, 43, 104
4, 186238, Note_off_c, 2, 43, 80
4, 186240, Note_on_c, 2, 43, 104
4, 186718, Note_off_c, 2, 43, 80
4, 186720, Note_on_c, 2, 38, 104
4, 187198, Note_off_c, 2, 38, 80
4, 187200, Note_on_c, 2, 43, 104
4, 187438, Note_off_c, 2, 43, 80
4, 187440, Note_on_c, 2, 40, 104
4, 187678, Note_off_c, 2, 40, 80
4, 187680, Note_on_c, 2, 43, 104
4, 188158, Note_off_c, 2, 43, 80
4, 188160, Note_on_c, 2, 48, 104
4, 188638, Note_off_c, 2, 48, 80
4, 188640, Note_on_c, 2, 43, 104
4, 189118, Note_off_c, 2, 43, 80
4, 189120, Note_on_c, 2, 45, 104
4, 189358, Note_off_c, 2, 45, 80
4, 189360, Note_on_c, 2, 43, 104
4, 189598, Note_off_c, 2, 43, 80
4, 189600, Note_on_c, 2, 45, 104
4, 190078, Note_off_c, 2, 45, 80
4, 190080, Note_on_c, 2, 48, 104
4, 190558, Note_off_c, 2, 48, 80
4, 190560, Note_on_c, 2, 43, 104
4, 190798, Note_off_c, 2, 43, 80
4, 190800, Note_on_c, 2, 45, 104
4, 191278, Note_off_c, 2, 45, 80
4, 191280, Note_on_c, 2, 43, 104
4, 191518, Note_off_c, 2, 43, 80
4, 191520, Note_on_c, 2, 45, 104
4, 191998, Note_off_c, 2, 45, 80
4, 192000, Note_on_c, 2, 48, 104
4, 192478, Note_off_c, 2, 48, 80
4, 192480, Note_on_c, 2, 43, 104
4, 192958, Note_off_c, 2, 43, 80
4, 192960, Note_on_c, 2, 45, 104
4, 193198, Note_off_c, 2, 45, 80
4, 193200, Note_on_c, 2, 43, 104
4, 193438, Note_off_c, 2, 43, 80
4, 193440, Note_on_c, 2, 45, 104
4, 193918, Note_off_c, 2, 45, 80
4, 193920, Note_on_c, 2, 48, 104
4, 194398, Note_off_c, 2, 48, 80
4, 194400, Note_on_c, 2, 43, 104
4, 194638, Note_off_c, 2, 43, 80
4, 194640, Note_on_c, 2, 45, 104
4, 195118, Note_off_c, 2, 45, 80
4, 195120, Note_on_c, 2, 43, 104
4, 195358, Note_off_c, 2, 43, 80
4, 195360, Note_on_c, 2, 45, 104
4, 195838, Note_off_c, 2, 45, 80
4, 195840, Note_on_c, 2, 48, 104
4, 196318, Note_off_c, 2, 48, 80
4, 196320, Note_on_c, 2, 43, 104
4, 196798, Note_off_c, 2, 43, 80
4, 196800, Note_on_c, 2, 45, 104
4, 197038, Note_off_c, 2, 45, 80
4, 197040, Note_on_c, 2, 43, 104
4, 197278, Note_off_c, 2, 43, 80
4, 197280, Note_on_c, 2, 45, 104
4, 197758, Note_off_c, 2, 45, 80
4, 197760, Note_on_c, 2, 48, 104
4, 198238, Note_off_c, 2, 48, 80
4, 198240, Note_on_c, 2, 43, 104
4, 198478, Note_off_c, 2, 43, 80
4, 198480, Note_on_c, 2, 45, 104
4, 198958, Note_off_c, 2, 45, 80
4, 198960, Note_on_c, 2, 43, 104
4, 199198, Note_off_c, 2, 43, 80
4, 199200, Note_on_c, 2, 45, 104
4, 199678, Note_off_c, 2, 45, 80
4, 199680, Note_on_c, 2, 53, 104
4, 200158, Note_off_c, 2, 53, 80
4, 200160, Note_on_c, 2, 48, 104
4, 200638, Note_off_c, 2, 48, 80
4, 200640, Note_on_c, 2, 50, 104
4, 200878, Note_off_c, 2, 50, 80
4, 200880, Note_on_c, 2, 48, 104
4, 201118, Note_off_c, 2, 48, 80
4, 201120, Note_on_c, 2, 50, 104
4, 201598, Note_off_c, 2, 50, 80
4, 201600, Note_on_c, 2, 41, 104
4, 201838, Note_off_c, 2, 41, 80
4, 201840, Note_on_c, 2, 48, 104
4, 202078, Note_off_c, 2, 48, 80
4, 202080, Note_on_c, 2, 53, 104
4, 202318, Note_off_c, 2, 53, 80
4, 202320, Note_on_c, 2, 44, 104
4, 202798, Note_off_c, 2, 44, 80
4, 202800, Note_on_c, 2, 43, 104
4, 203038, Note_off_c, 2, 43, 80
4, 203040, Note_on_c, 2, 41, 104
4, 203518, Note_off_c, 2, 41, 80
4, 203520, Note_on_c, 2, 40, 104
4, 203998, Note_off_c, 2, 40, 80
4, 204000, Note_on_c, 2, 35, 104
4, 204478, Note_off_c, 2, 35, 80
4, 204480, Note_on_c, 2, 40, 104
4, 204718, Note_off_c, 2, 40, 80
4, 204720, Note_on_c, 2, 41, 104
4, 204958, Note_off_c, 2, 41, 80
4, 204960, Note_on_c, 2, 42, 104
4, 205198, Note_off_c, 2, 42, 80
4, 205200, Note_on_c, 2, 43, 104
4, 205438, Note_off_c, 2, 43, 80
4, 205440, Note_on_c, 2, 43, 104
4, 205918, Note_off_c, 2, 43, 80
4, 205920, Note_on_c, 2, 38, 104
4, 206398, Note_off_c, 2, 38, 80
4, 206400, Note_on_c, 2, 43, 104
4, 206638, Note_off_c, 2, 43, 80
4, 206640, Note_on_c, 2, 40, 104
4, 206878, Note_off_c, 2, 40, 80
4, 206880, Note_on_c, 2, 43, 104
4, 207358, Note_off_c, 2, 43, 80
4, 207360, Note_on_c, 2, 48, 104
4, 207838, Note_off_c, 2, 48, 80
4, 207840, Note_on_c, 2, 43, 104
4, 208318, Note_off_c, 2, 43, 80
4, 208320, Note_on_c, 2, 45, 104
4, 208558, Note_off_c, 2, 45, 80
4, 208560, Note_on_c, 2, 43, 104
4, 208798, Note_off_c, 2, 43, 80
4, 208800, Note_on_c, 2, 45, 104
4, 209278, Note_off_c, 2, 45, 80
4, 209280, Note_on_c, 2, 48, 104
4, 209758, Note_off_c, 2, 48, 80
4, 209760, Note_on_c, 2, 43, 104
4, 209998, Note_off_c, 2, 43, 80
4, 210000, Note_on_c, 2, 45, 104
4, 210478, Note_off_c, 2, 45, 80
4, 210480, Note_on_c, 2, 43, 104
4, 210718, Note_off_c, 2, 43, 80
4, 210720, Note_on_c, 2, 45, 104
4, 211198, Note_off_c, 2, 45, 80
4, 211200, Note_on_c, 2, 48, 104
4, 211678, Note_off_c, 2, 48, 80
4, 211680, Note_on_c, 2, 43, 104
4, 212158, Note_off_c, 2, 43, 80
4, 212160, Note_on_c, 2, 45, 104
4, 212398, Note_off_c, 2, 45, 80
4, 212400, Note_on_c, 2, 43, 104
4, 212638, Note_off_c, 2, 43, 80
4, 212640, Note_on_c, 2, 45, 104
4, 213118, Note_off_c, 2, 45, 80
4, 213120, Note_on_c, 2, 48, 104
4, 213598, Note_off_c, 2, 48, 80
4, 213600, Note_on_c, 2, 43, 104
4, 213838, Note_off_c, 2, 43, 80
4, 213840, Note_on_c, 2, 45, 104
4, 214318, Note_off_c, 2, 45, 80
4, 214320, Note_on_c, 2, 43, 104
4, 214558, Note_off_c, 2, 43, 80
4, 214560, Note_on_c, 2, 45, 104
4, 215038, Note_off_c, 2, 45, 80
4, 215040, Note_on_c, 2, 48, 104
4, 215518, Note_off_c, 2, 48, 80
4, 215520, Note_on_c, 2, 43, 104
4, 215998, Note_off_c, 2, 43, 80
4, 216000, Note_on_c, 2, 45, 104
4, 216238, Note_off_c, 2, 45, 80
4, 216240, Note_on_c, 2, 43, 104
4, 216478, Note_off_c, 2, 43, 80
4, 216480, Note_on_c, 2, 45, 104
4, 216958, Note_off_c, 2, 45, 80
4, 216960, Note_on_c, 2, 48, 104
4, 217438, Note_off_c, 2, 48, 80
4, 217440, Note_on_c, 2, 43, 104
4, 217678, Note_off_c, 2, 43, 80
4, 217680, Note_on_c, 2, 45, 104
4, 218158, Note_off_c, 2, 45, 80
4, 218160, Note_on_c, 2, 43, 104
4, 218398, Note_off_c, 2, 43, 80
4, 218400, Note_on_c, 2, 45, 104
4, 218878, Note_off_c, 2, 45, 80
4, 218880, Note_on_c, 2, 53, 104
4, 219358, Note_off_c, 2, 53, 80
4, 219360, Note_on_c, 2, 48, 104
4, 219838, Note_off_c, 2, 48, 80
4, 219840, Note_on_c, 2, 50, 104
4, 220078, Note_off_c, 2, 50, 80
4, 220080, Note_on_c, 2, 48, 104
4, 220318, Note_off_c, 2, 48, 80
4, 220320, Note_on_c, 2, 50, 104
4, 220798, Note_off_c, 2, 50, 80
4, 220800, Note_on_c, 2, 41, 104
4, 221038, Note_off_c, 2, 41, 80
4, 221040, Note_on_c, 2, 48, 104
4, 221278, Note_off_c, 2, 48, 80
4, 221280, Note_on_c, 2, 53, 104
4, 221518, Note_off_c, 2, 53, 80
4, 221520, Note_on_c, 2, 44, 104
4, 221998, Note_off_c, 2, 44, 80
4, 222000, Note_on_c, 2, 43, 104
4, 222238, Note_off_c, 2, 43, 80
4, 222240, Note_on_c, 2, 41, 104
4, 222718, Note_off_c, 2, 41, 80
4, 222720, Note_on_c, 2, 40, 104
4, 223198, Note_off_c, 2, 40, 80
4, 223200, Note_on_c, 2, 35, 104
4, 223678, Note_off_c, 2, 35, 80
4, 223680, Note_on_c, 2, 40, 104
4, 223918, Note_off_c, 2, 40, 80
4, 223920, Note_on_c, 2, 41, 104
4, 224158, Note_off_c, 2, 41, 80
4, 224160, Note_on_c, 2, 42, 104
4, 224398, Note_off_c, 2, 42, 80
4, 224400, Note_on_c, 2, 43, 104
4, 224638, Note_off_c, 2, 43, 80
4, 224640, Note_on_c, 2, 43, 104
4, 225118, Note_off_c, 2, 43, 80
4, 225120, Note_on_c, 2, 38, 104
4, 225598, Note_off_c, 2, 38, 80
4, 225600, Note_on_c, 2, 43, 104
4, 225838, Note_off_c, 2, 43, 80
4, 225840, Note_on_c, 2, 38, 104
4, 226078, Note_off_c, 2, 38, 80
4, 226080, Note_on_c, 2, 43, 104
4, 226558, Note_off_c, 2, 43, 80
4, 226560, Note_on_c, 2, 41, 104
4, 227278, Note_off_c, 2, 41, 80
4, 227280, Note_on_c, 2, 36, 104
4, 227998, Note_off_c, 2, 36, 80
4, 228000, Note_on_c, 2, 38, 104
4, 228238, Note_off_c, 2, 38, 80
4, 228240, Note_on_c, 2, 39, 104
4, 228478, Note_off_c, 2, 39, 80
4, 228480, Note_on_c, 2, 41, 104
4, 229198, Note_off_c, 2, 41, 80
4, 229200, Note_on_c, 2, 36, 104
4, 229918, Note_off_c, 2, 36, 80
4, 229920, Note_on_c, 2, 38, 104
4, 230158, Note_off_c, 2, 38, 80
4, 230160, Note_on_c, 2, 39, 104
4, 230398, Note_off_c, 2, 39, 80
4, 230400, Note_on_c, 2, 41, 104
4, 231118, Note_off_c, 2, 41, 80
4, 231120, Note_on_c, 2, 36, 104
4, 231838, Note_off_c, 2, 36, 80
4, 231840, Note_on_c, 2, 38, 104
4, 232078, Note_off_c, 2, 38, 80
4, 232080, Note_on_c, 2, 39, 104
4, 232318, Note_off_c, 2, 39, 80
4, 232320, Note_on_c, 2, 41, 104
4, 233038, Note_off_c, 2, 41, 80
4, 233040, Note_on_c, 2, 36, 104
4, 233758, Note_off_c, 2, 36, 80
4, 233760, Note_on_c, 2, 43, 104
4, 233998, Note_off_c, 2, 43, 80
4, 234000, Note_on_c, 2, 44, 104
4, 234238, Note_off_c, 2, 44, 80
4, 234240, Note_on_c, 2, 41, 104
4, 234958, Note_off_c, 2, 41, 80
4, 234960, Note_on_c, 2, 36, 104
4, 235678, Note_off_c, 2, 36, 80
4, 235680, Note_on_c, 2, 43, 104
4, 235918, Note_off_c, 2, 43, 80
4, 235920, Note_on_c, 2, 44, 104
4, 236158, Note_off_c, 2, 44, 80
4, 236160, Note_on_c, 2, 41, 104
4, 236878, Note_off_c, 2, 41, 80
4, 236880, Note_on_c, 2, 36, 104
4, 237598, Note_off_c, 2, 36, 80
4, 237600, Note_on_c, 2, 43, 104
4, 237838, Note_off_c, 2, 43, 80
4, 237840, Note_on_c, 2, 44, 104
4, 238078, Note_off_c, 2, 44, 80
4, 238080, Note_on_c, 2, 41, 104
4, 238798, Note_off_c, 2, 41, 80
4, 238800, Note_on_c, 2, 36, 104
4, 239518, Note_off_c, 2, 36, 80
4, 239520, Note_on_c, 2, 43, 104
4, 239758, Note_off_c, 2, 43, 80
4, 239760, Note_on_c, 2, 44, 104
4, 239998, Note_off_c, 2, 44, 80
4, 240000, Note_on_c, 2, 45, 104
4, 240718, Note_off_c, 2, 45, 80
4, 240720, Note_on_c, 2, 40, 104
4, 241198, Note_off_c, 2, 40, 80
4, 241200, Note_on_c, 2, 43, 104
4, 241918, Note_off_c, 2, 43, 80
4, 241920, Note_on_c, 2, 48, 104
4, 242158, Note_off_c, 2, 48, 80
4, 242160, Note_on_c, 2, 43, 104
4, 242398, Note_off_c, 2, 43, 80
4, 242400, Note_on_c, 2, 48, 104
4, 242878, Note_off_c, 2, 48, 80
4, 242880, Note_on_c, 2, 48, 104
4, 243118, Note_off_c, 2, 48, 80
4, 243120, Note_on_c, 2, 45, 104
4, 243358, Note_off_c, 2, 45, 80
4, 243360, Note_on_c, 2, 48, 104
4, 243838, Note_off_c, 2, 48, 80
4, 243840, Note_on_c, 2, 50, 104
4, 244078, Note_off_c, 2, 50, 80
4, 244080, Note_on_c, 2, 45, 104
4, 244318, Note_off_c, 2, 45, 80
4, 244320, Note_on_c, 2, 50, 104
4, 244798, Note_off_c, 2, 50, 80
4, 244800, Note_on_c, 2, 50, 104
4, 245038, Note_off_c, 2, 50, 80
4, 245040, Note_on_c, 2, 47, 104
4, 245278, Note_off_c, 2, 47, 80
4, 245280, Note_on_c, 2, 50, 104
4, 245758, Note_off_c, 2, 50, 80
4, 245760, Note_on_c, 2, 48, 104
4, 245998, Note_off_c, 2, 48, 80
4, 246000, Note_on_c, 2, 43, 104
4, 246238, Note_off_c, 2, 43, 80
4, 246240, Note_on_c, 2, 48, 104
4, 246718, Note_off_c, 2, 48, 80
4, 246720, Note_on_c, 2, 48, 104
4, 246958, Note_off_c, 2, 48, 80
4, 246960, Note_on_c, 2, 45, 104
4, 247198, Note_off_c, 2, 45, 80
4, 247200, Note_on_c, 2, 48, 104
4, 247678, Note_off_c, 2, 48, 80
4, 247680, Note_on_c, 2, 36, 104
4, 247680, Note_on_c, 2, 48, 104
4, 249598, Note_off_c, 2, 36, 80
4, 249598, Note_off_c, 2, 48, 80
4, 249600, Note_on_c, 2, 48, 104
4, 249838, Note_off_c, 2, 48, 80
4, 249840, Note_on_c, 2, 43, 104
4, 250078, Note_off_c, 2, 43, 80
4, 250080, Note_on_c, 2, 48, 104
4, 250558, Note_off_c, 2, 48, 80
4, 250560, Note_on_c, 2, 48, 104
4, 250798, Note_off_c, 2, 48, 80
4, 250800, Note_on_c, 2, 45, 104
4, 251038, Note_off_c, 2, 45, 80
4, 251040, Note_on_c, 2, 48, 104
4, 251518, Note_off_c, 2, 48, 80
4, 251520, Note_on_c, 2, 50, 104
4, 251758, Note_off_c, 2, 50, 80
4, 251760, Note_on_c, 2, 45, 104
4, 251998, Note_off_c, 2, 45, 80
4, 252000, Note_on_c, 2, 50, 104
4, 252478, Note_off_c, 2, 50, 80
4, 252480, Note_on_c, 2, 50, 104
4, 252718, Note_off_c, 2, 50, 80
4, 252720, Note_on_c, 2, 47, 104
4, 252958, Note_off_c, 2, 47, 80
4, 252960, Note_on_c, 2, 50, 104
4, 253438, Note_off_c, 2, 50, 80
4, 253440, Note_on_c, 2, 48, 104
4, 253678, Note_off_c, 2, 48, 80
4, 253680, Note_on_c, 2, 43, 104
4, 253918, Note_off_c, 2, 43, 80
4, 253920, Note_on_c, 2, 48, 104
4, 254398, Note_off_c, 2, 48, 80
4, 254400, Note_on_c, 2, 48, 104
4, 254638, Note_off_c, 2, 48, 80
4, 254640, Note_on_c, 2, 45, 104
4, 254878, Note_off_c, 2, 45, 80
4, 254880, Note_on_c, 2, 48, 104
4, 255358, Note_off_c, 2, 48, 80
4, 255360, Note_on_c, 2, 36, 104
4, 255360, Note_on_c, 2, 48, 104
4, 257278, Note_off_c, 2, 36, 80
4, 257278, Note_off_c, 2, 48, 80
4, 257280, Note_on_c, 2, 48, 104
4, 257518, Note_off_c, 2, 48, 80
4, 257520, Note_on_c, 2, 43, 104
4, 257758, Note_off_c, 2, 43, 80
4, 257760, Note_on_c, 2, 48, 104
4, 258238, Note_off_c, 2, 48, 80
4, 258240, Note_on_c, 2, 48, 104
4, 258478, Note_off_c, 2, 48, 80
4, 258480, Note_on_c, 2, 45, 104
4, 258718, Note_off_c, 2, 45, 80
4, 258720, Note_on_c, 2, 48, 104
4, 259198, Note_off_c, 2, 48, 80
4, 259200, Note_on_c, 2, 50, 104
4, 259438, Note_off_c, 2, 50, 80
4, 259440, Note_on_c, 2, 45, 104
4, 259678, Note_off_c, 2, 45, 80
4, 259680, Note_on_c, 2, 50, 104
4, 260158, Note_off_c, 2, 50, 80
4, 260160, Note_on_c, 2, 50, 104
4, 260398, Note_off_c, 2, 50, 80
4, 260400, Note_on_c, 2, 47, 104
4, 260638, Note_off_c, 2, 47, 80
4, 260640, Note_on_c, 2, 50, 104
4, 261118, Note_off_c, 2, 50, 80
4, 261120, Note_on_c, 2, 48, 104
4, 261358, Note_off_c, 2, 48, 80
4, 261360, Note_on_c, 2, 43, 104
4, 261598, Note_off_c, 2, 43, 80
4, 261600, Note_on_c, 2, 48, 104
4, 262078, Note_off_c, 2, 48, 80
4, 262080, Note_on_c, 2, 48, 104
4, 262318, Note_off_c, 2, 48, 80
4, 262320, Note_on_c, 2, 45, 104
4, 262558, Note_off_c, 2, 45, 80
4, 262560, Note_on_c, 2, 48, 104
4, 263038, Note_off_c, 2, 48, 80
4, 263040, Note_on_c, 2, 36, 104
4, 263040, Note_on_c, 2, 48, 104
4, 264958, Note_off_c, 2, 36, 80
4, 264958, Note_off_c, 2, 48, 80
4, 264960, Note_on_c, 2, 48, 104
4, 265198, Note_off_c, 2, 48, 80
4, 265200, Note_on_c, 2, 43, 104
4, 265438, Note_off_c, 2, 43, 80
4, 265440, Note_on_c, 2, 48, 104
4, 265918, Note_off_c, 2, 48, 80
4, 265920, Note_on_c, 2, 48, 104
4, 266158, Note_off_c, 2, 48, 80
4, 266160, Note_on_c, 2, 45, 104
4, 266398, Note_off_c, 2, 45, 80
4, 266400, Note_on_c, 2, 48, 104
4, 266878, Note_off_c, 2, 48, 80
4, 266880, Note_on_c, 2, 50, 104
4, 267118, Note_off_c, 2, 50, 80
4, 267120, Note_on_c, 2, 45, 104
4, 267358, Note_off_c, 2, 45, 80
4, 267360, Note_on_c, 2, 50, 104
4, 267838, Note_off_c, 2, 50, 80
4, 267840, Note_on_c, 2, 50, 104
4, 268078, Note_off_c, 2, 50, 80
4, 268080, Note_on_c, 2, 47, 104
4, 268318, Note_off_c, 2, 47, 80
4, 268320, Note_on_c, 2, 50, 104
4, 268798, Note_off_c, 2, 50, 80
4, 268800, Note_on_c, 2, 48, 104
4, 269038, Note_off_c, 2, 48, 80
4, 269040, Note_on_c, 2, 43, 104
4, 269278, Note_off_c, 2, 43, 80
4, 269280, Note_on_c, 2, 48, 104
4, 269758, Note_off_c, 2, 48, 80
4, 269760, Note_on_c, 2, 48, 104
4, 269998, Note_off_c, 2, 48, 80
4, 270000, Note_on_c, 2, 45, 104
4, 270238, Note_off_c, 2, 45, 80
4, 270240, Note_on_c, 2, 48, 104
4, 270718, Note_off_c, 2, 48, 80
4, 270720, Note_on_c, 2, 36, 104
4, 270720, Note_on_c, 2, 48, 104
4, 272638, Note_off_c, 2, 36, 80
4, 272638, Note_off_c, 2, 48, 80
4, 272638, End_track
5, 0, Start_track
5, 0, Title_t, "Bowie-Vocals"
5, 120, Control_c, 3, 121, 0
5, 120, Control_c, 3, 123, 0
5, 120, Control_c, 3, 100, 0
5, 120, Control_c, 3, 38, 0
5, 120, Control_c, 3, 101, 0
5, 120, Control_c, 3, 6, 12
5, 120, Pitch_bend_c, 3, 8192
5, 180, Program_c, 3, 65
5, 180, Control_c, 3, 7, 104
5, 180, Control_c, 3, 10, 60
5, 210, Control_c, 3, 1, 15
5, 240, Note_on_c, 3, 67, 95
5, 354, Note_off_c, 3, 67, 80
5, 360, Note_on_c, 3, 67, 95
5, 474, Note_off_c, 3, 67, 80
5, 480, Note_on_c, 3, 67, 95
5, 714, Note_off_c, 3, 67, 80
5, 720, Note_on_c, 3, 67, 95
5, 954, Note_off_c, 3, 67, 80
5, 960, Note_on_c, 3, 67, 95
5, 1194, Note_off_c, 3, 67, 80
5, 1200, Note_on_c, 3, 62, 95
5, 1434, Note_off_c, 3, 62, 80
5, 1440, Note_on_c, 3, 60, 95
5, 1674, Note_off_c, 3, 60, 80
5, 1680, Note_on_c, 3, 58, 95
5, 1914, Note_off_c, 3, 58, 80
5, 5040, Note_on_c, 3, 64, 95
5, 5274, Note_off_c, 3, 64, 80
5, 5280, Note_on_c, 3, 65, 95
5, 5514, Note_off_c, 3, 65, 80
5, 5520, Note_on_c, 3, 64, 95
5, 5754, Note_off_c, 3, 64, 80
5, 5760, Note_on_c, 3, 65, 95
5, 5994, Note_off_c, 3, 65, 80
5, 6000, Note_on_c, 3, 64, 95
5, 6234, Note_off_c, 3, 64, 80
5, 8880, Note_on_c, 3, 64, 95
5, 9114, Note_off_c, 3, 64, 80
5, 9120, Note_on_c, 3, 65, 95
5, 9354, Note_off_c, 3, 65, 80
5, 9360, Note_on_c, 3, 64, 95
5, 9594, Note_off_c, 3, 64, 80
5, 9600, Note_on_c, 3, 65, 95
5, 9834, Note_off_c, 3, 65, 80
5, 9840, Note_on_c, 3, 63, 95
5, 10074, Note_off_c, 3, 63, 80
5, 12720, Note_on_c, 3, 63, 95
5, 12954, Note_off_c, 3, 63, 80
5, 12960, Note_on_c, 3, 65, 95
5, 13194, Note_off_c, 3, 65, 80
5, 13200, Note_on_c, 3, 64, 95
5, 13434, Note_off_c, 3, 64, 80
5, 13440, Note_on_c, 3, 65, 95
5, 13674, Note_off_c, 3, 65, 80
5, 13680, Note_on_c, 3, 64, 95
5, 13914, Note_off_c, 3, 64, 80
5, 15360, Note_on_c, 3, 72, 95
5, 16794, Note_off_c, 3, 72, 80
5, 16800, Note_on_c, 3, 69, 63
5, 17274, Note_off_c, 3, 69, 80
5, 17520, Note_on_c, 3, 63, 95
5, 17754, Note_off_c, 3, 63, 80
5, 17760, Note_on_c, 3, 63, 95
5, 17994, Note_off_c, 3, 63, 80
5, 18000, Note_on_c, 3, 60, 95
5, 18234, Note_off_c, 3, 60, 80
5, 18240, Note_on_c, 3, 62, 95
5, 18474, Note_off_c, 3, 62, 80
5, 18480, Note_on_c, 3, 59, 95
5, 18714, Note_off_c, 3, 59, 80
5, 18720, Note_on_c, 3, 59, 95
5, 19194, Note_off_c, 3, 59, 80
5, 19440, Note_on_c, 3, 63, 95
5, 19674, Note_off_c, 3, 63, 80
5, 19680, Note_on_c, 3, 63, 95
5, 19914, Note_off_c, 3, 63, 80
5, 19920, Note_on_c, 3, 60, 95
5, 20154, Note_off_c, 3, 60, 80
5, 20160, Note_on_c, 3, 64, 95
5, 20394, Note_off_c, 3, 64, 80
5, 20400, Note_on_c, 3, 57, 95
5, 20634, Note_off_c, 3, 57, 80
5, 20640, Note_on_c, 3, 57, 95
5, 20874, Note_off_c, 3, 57, 80
5, 20880, Note_on_c, 3, 57, 95
5, 21114, Note_off_c, 3, 57, 80
5, 21360, Note_on_c, 3, 63, 95
5, 21594, Note_off_c, 3, 63, 80
5, 21600, Note_on_c, 3, 63, 95
5, 21834, Note_off_c, 3, 63, 80
5, 21840, Note_on_c, 3, 57, 95
5, 22074, Note_off_c, 3, 57, 80
5, 22080, Note_on_c, 3, 62, 95
5, 22314, Note_off_c, 3, 62, 80
5, 22320, Note_on_c, 3, 57, 95
5, 22554, Note_off_c, 3, 57, 80
5, 22560, Note_on_c, 3, 57, 95
5, 22794, Note_off_c, 3, 57, 80
5, 22800, Note_on_c, 3, 55, 95
5, 23034, Note_off_c, 3, 55, 80
5, 23040, Note_on_c, 3, 64, 95
5, 23154, Note_off_c, 3, 64, 80
5, 23160, Note_on_c, 3, 64, 95
5, 23274, Note_off_c, 3, 64, 80
5, 23280, Note_on_c, 3, 65, 95
5, 23514, Note_off_c, 3, 65, 80
5, 23520, Note_on_c, 3, 66, 95
5, 23754, Note_off_c, 3, 66, 80
5, 23760, Note_on_c, 3, 67, 95
5, 23994, Note_off_c, 3, 67, 80
5, 24000, Note_on_c, 3, 64, 95
5, 24474, Note_off_c, 3, 64, 80
5, 25200, Note_on_c, 3, 63, 95
5, 25434, Note_off_c, 3, 63, 80
5, 25440, Note_on_c, 3, 63, 95
5, 25674, Note_off_c, 3, 63, 80
5, 25680, Note_on_c, 3, 60, 95
5, 25914, Note_off_c, 3, 60, 80
5, 25920, Note_on_c, 3, 62, 95
5, 26154, Note_off_c, 3, 62, 80
5, 26160, Note_on_c, 3, 57, 95
5, 26394, Note_off_c, 3, 57, 80
5, 26400, Note_on_c, 3, 57, 95
5, 26634, Note_off_c, 3, 57, 80
5, 26640, Note_on_c, 3, 57, 95
5, 26874, Note_off_c, 3, 57, 80
5, 27120, Note_on_c, 3, 64, 95
5, 27354, Note_off_c, 3, 64, 80
5, 27360, Note_on_c, 3, 64, 95
5, 27594, Note_off_c, 3, 64, 80
5, 27600, Note_on_c, 3, 64, 95
5, 27834, Note_off_c, 3, 64, 80
5, 27840, Note_on_c, 3, 60, 95
5, 28074, Note_off_c, 3, 60, 80
5, 28080, Note_on_c, 3, 60, 95
5, 28554, Note_off_c, 3, 60, 80
5, 29040, Note_on_c, 3, 63, 95
5, 29274, Note_off_c, 3, 63, 80
5, 29280, Note_on_c, 3, 63, 95
5, 29514, Note_off_c, 3, 63, 80
5, 29520, Note_on_c, 3, 60, 95
5, 29754, Note_off_c, 3, 60, 80
5, 29760, Note_on_c, 3, 63, 95
5, 29994, Note_off_c, 3, 63, 80
5, 30000, Note_on_c, 3, 60, 95
5, 30234, Note_off_c, 3, 60, 80
5, 30240, Note_on_c, 3, 60, 95
5, 30474, Note_off_c, 3, 60, 80
5, 30480, Note_on_c, 3, 60, 95
5, 30714, Note_off_c, 3, 60, 80
5, 30720, Note_on_c, 3, 63, 95
5, 30954, Note_off_c, 3, 63, 80
5, 30960, Note_on_c, 3, 63, 95
5, 31194, Note_off_c, 3, 63, 80
5, 31200, Note_on_c, 3, 63, 95
5, 31434, Note_off_c, 3, 63, 80
5, 31440, Note_on_c, 3, 65, 95
5, 31674, Note_off_c, 3, 65, 80
5, 31680, Note_on_c, 3, 60, 95
5, 32154, Note_off_c, 3, 60, 80
5, 32880, Note_on_c, 3, 63, 95
5, 33114, Note_off_c, 3, 63, 80
5, 33120, Note_on_c, 3, 63, 95
5, 33354, Note_off_c, 3, 63, 80
5, 33360, Note_on_c, 3, 62, 95
5, 33594, Note_off_c, 3, 62, 80
5, 33600, Note_on_c, 3, 60, 95
5, 33834, Note_off_c, 3, 60, 80
5, 33840, Note_on_c, 3, 60, 95
5, 34074, Note_off_c, 3, 60, 80
5, 34080, Note_on_c, 3, 60, 95
5, 34314, Note_off_c, 3, 60, 80
5, 34320, Note_on_c, 3, 58, 95
5, 34554, Note_off_c, 3, 58, 80
5, 34800, Note_on_c, 3, 63, 95
5, 35034, Note_off_c, 3, 63, 80
5, 35040, Note_on_c, 3, 62, 95
5, 35274, Note_off_c, 3, 62, 80
5, 35280, Note_on_c, 3, 60, 95
5, 35514, Note_off_c, 3, 60, 80
5, 35520, Note_on_c, 3, 64, 95
5, 35754, Note_off_c, 3, 64, 80
5, 35760, Note_on_c, 3, 57, 95
5, 35994, Note_off_c, 3, 57, 80
5, 36000, Note_on_c, 3, 57, 95
5, 36474, Note_off_c, 3, 57, 80
5, 36720, Note_on_c, 3, 63, 95
5, 36954, Note_off_c, 3, 63, 80
5, 36960, Note_on_c, 3, 62, 95
5, 37194, Note_off_c, 3, 62, 80
5, 37200, Note_on_c, 3, 60, 95
5, 37434, Note_off_c, 3, 60, 80
5, 37440, Note_on_c, 3, 64, 95
5, 37674, Note_off_c, 3, 64, 80
5, 37680, Note_on_c, 3, 57, 95
5, 37914, Note_off_c, 3, 57, 80
5, 37920, Note_on_c, 3, 57, 95
5, 38154, Note_off_c, 3, 57, 80
5, 38160, Note_on_c, 3, 55, 95
5, 38394, Note_off_c, 3, 55, 80
5, 38400, Note_on_c, 3, 57, 95
5, 38634, Note_off_c, 3, 57, 80
5, 38640, Note_on_c, 3, 60, 95
5, 38874, Note_off_c, 3, 60, 80
5, 38880, Note_on_c, 3, 62, 95
5, 39114, Note_off_c, 3, 62, 80
5, 39120, Note_on_c, 3, 60, 95
5, 39354, Note_off_c, 3, 60, 80
5, 39360, Note_on_c, 3, 64, 95
5, 39594, Note_off_c, 3, 64, 80
5, 39600, Note_on_c, 3, 57, 95
5, 39834, Note_off_c, 3, 57, 80
5, 39840, Note_on_c, 3, 57, 95
5, 40314, Note_off_c, 3, 57, 80
5, 40560, Note_on_c, 3, 63, 95
5, 40794, Note_off_c, 3, 63, 80
5, 40800, Note_on_c, 3, 62, 95
5, 41034, Note_off_c, 3, 62, 80
5, 41040, Note_on_c, 3, 60, 95
5, 41274, Note_off_c, 3, 60, 80
5, 41280, Note_on_c, 3, 64, 95
5, 41514, Note_off_c, 3, 64, 80
5, 41520, Note_on_c, 3, 57, 95
5, 41754, Note_off_c, 3, 57, 80
5, 41760, Note_on_c, 3, 57, 95
5, 41994, Note_off_c, 3, 57, 80
5, 42000, Note_on_c, 3, 57, 95
5, 42234, Note_off_c, 3, 57, 80
5, 42480, Note_on_c, 3, 63, 95
5, 42714, Note_off_c, 3, 63, 80
5, 42720, Note_on_c, 3, 62, 95
5, 42954, Note_off_c, 3, 62, 80
5, 42960, Note_on_c, 3, 60, 95
5, 43194, Note_off_c, 3, 60, 80
5, 43200, Note_on_c, 3, 64, 95
5, 43434, Note_off_c, 3, 64, 80
5, 43440, Note_on_c, 3, 57, 95
5, 43674, Note_off_c, 3, 57, 80
5, 44400, Note_on_c, 3, 63, 95
5, 44634, Note_off_c, 3, 63, 80
5, 44640, Note_on_c, 3, 62, 95
5, 44874, Note_off_c, 3, 62, 80
5, 44880, Note_on_c, 3, 60, 95
5, 45114, Note_off_c, 3, 60, 80
5, 45120, Note_on_c, 3, 64, 95
5, 45354, Note_off_c, 3, 64, 80
5, 45360, Note_on_c, 3, 64, 95
5, 45594, Note_off_c, 3, 64, 80
5, 45600, Note_on_c, 3, 64, 95
5, 45834, Note_off_c, 3, 64, 80
5, 45840, Note_on_c, 3, 60, 95
5, 46074, Note_off_c, 3, 60, 80
5, 46080, Note_on_c, 3, 63, 95
5, 46314, Note_off_c, 3, 63, 80
5, 46320, Note_on_c, 3, 63, 95
5, 46554, Note_off_c, 3, 63, 80
5, 46560, Note_on_c, 3, 63, 95
5, 46794, Note_off_c, 3, 63, 80
5, 46800, Note_on_c, 3, 65, 95
5, 47034, Note_off_c, 3, 65, 80
5, 47040, Note_on_c, 3, 60, 95
5, 47514, Note_off_c, 3, 60, 80
5, 48240, Note_on_c, 3, 68, 95
5, 48474, Note_off_c, 3, 68, 80
5, 48480, Note_on_c, 3, 68, 95
5, 48714, Note_off_c, 3, 68, 80
5, 48720, Note_on_c, 3, 68, 95
5, 48954, Note_off_c, 3, 68, 80
5, 48960, Note_on_c, 3, 70, 95
5, 49194, Note_off_c, 3, 70, 80
5, 49200, Note_on_c, 3, 68, 95
5, 49434, Note_off_c, 3, 68, 80
5, 49440, Note_on_c, 3, 68, 95
5, 49674, Note_off_c, 3, 68, 80
5, 49680, Note_on_c, 3, 67, 95
5, 49914, Note_off_c, 3, 67, 80
5, 49920, Note_on_c, 3, 67, 95
5, 50154, Note_off_c, 3, 67, 80
5, 50160, Note_on_c, 3, 67, 95
5, 50394, Note_off_c, 3, 67, 80
5, 50400, Note_on_c, 3, 67, 95
5, 50634, Note_off_c, 3, 67, 80
5, 50640, Note_on_c, 3, 69, 95
5, 50874, Note_off_c, 3, 69, 80
5, 50880, Note_on_c, 3, 67, 95
5, 51354, Note_off_c, 3, 67, 80
5, 52080, Note_on_c, 3, 63, 95
5, 52314, Note_off_c, 3, 63, 80
5, 52320, Note_on_c, 3, 63, 95
5, 52554, Note_off_c, 3, 63, 80
5, 52560, Note_on_c, 3, 62, 95
5, 52794, Note_off_c, 3, 62, 80
5, 52800, Note_on_c, 3, 60, 95
5, 53034, Note_off_c, 3, 60, 80
5, 53040, Note_on_c, 3, 60, 95
5, 53274, Note_off_c, 3, 60, 80
5, 53280, Note_on_c, 3, 60, 95
5, 53514, Note_off_c, 3, 60, 80
5, 53520, Note_on_c, 3, 58, 95
5, 53754, Note_off_c, 3, 58, 80
5, 54000, Note_on_c, 3, 63, 95
5, 54234, Note_off_c, 3, 63, 80
5, 54240, Note_on_c, 3, 62, 95
5, 54474, Note_off_c, 3, 62, 80
5, 54480, Note_on_c, 3, 60, 95
5, 54714, Note_off_c, 3, 60, 80
5, 54720, Note_on_c, 3, 64, 95
5, 54954, Note_off_c, 3, 64, 80
5, 54960, Note_on_c, 3, 57, 95
5, 55194, Note_off_c, 3, 57, 80
5, 55200, Note_on_c, 3, 57, 95
5, 55674, Note_off_c, 3, 57, 80
5, 55920, Note_on_c, 3, 63, 95
5, 56154, Note_off_c, 3, 63, 80
5, 56160, Note_on_c, 3, 62, 95
5, 56394, Note_off_c, 3, 62, 80
5, 56400, Note_on_c, 3, 60, 95
5, 56634, Note_off_c, 3, 60, 80
5, 56640, Note_on_c, 3, 64, 95
5, 56874, Note_off_c, 3, 64, 80
5, 56880, Note_on_c, 3, 57, 95
5, 57114, Note_off_c, 3, 57, 80
5, 57120, Note_on_c, 3, 57, 95
5, 57354, Note_off_c, 3, 57, 80
5, 57360, Note_on_c, 3, 55, 95
5, 57594, Note_off_c, 3, 55, 80
5, 57600, Note_on_c, 3, 57, 95
5, 57834, Note_off_c, 3, 57, 80
5, 57840, Note_on_c, 3, 60, 95
5, 58074, Note_off_c, 3, 60, 80
5, 58080, Note_on_c, 3, 62, 95
5, 58314, Note_off_c, 3, 62, 80
5, 58320, Note_on_c, 3, 60, 95
5, 58554, Note_off_c, 3, 60, 80
5, 58560, Note_on_c, 3, 64, 95
5, 58794, Note_off_c, 3, 64, 80
5, 58800, Note_on_c, 3, 57, 95
5, 59034, Note_off_c, 3, 57, 80
5, 59040, Note_on_c, 3, 57, 95
5, 59514, Note_off_c, 3, 57, 80
5, 59760, Note_on_c, 3, 63, 95
5, 59994, Note_off_c, 3, 63, 80
5, 60000, Note_on_c, 3, 62, 95
5, 60234, Note_off_c, 3, 62, 80
5, 60240, Note_on_c, 3, 60, 95
5, 60474, Note_off_c, 3, 60, 80
5, 60480, Note_on_c, 3, 64, 95
5, 60714, Note_off_c, 3, 64, 80
5, 60720, Note_on_c, 3, 57, 95
5, 60954, Note_off_c, 3, 57, 80
5, 60960, Note_on_c, 3, 57, 95
5, 61194, Note_off_c, 3, 57, 80
5, 61200, Note_on_c, 3, 57, 95
5, 61434, Note_off_c, 3, 57, 80
5, 61680, Note_on_c, 3, 63, 95
5, 61914, Note_off_c, 3, 63, 80
5, 61920, Note_on_c, 3, 62, 95
5, 62154, Note_off_c, 3, 62, 80
5, 62160, Note_on_c, 3, 60, 95
5, 62394, Note_off_c, 3, 60, 80
5, 62400, Note_on_c, 3, 64, 95
5, 62634, Note_off_c, 3, 64, 80
5, 62640, Note_on_c, 3, 57, 95
5, 62874, Note_off_c, 3, 57, 80
5, 63600, Note_on_c, 3, 63, 95
5, 63834, Note_off_c, 3, 63, 80
5, 63840, Note_on_c, 3, 62, 95
5, 64074, Note_off_c, 3, 62, 80
5, 64080, Note_on_c, 3, 60, 95
5, 64314, Note_off_c, 3, 60, 80
5, 64320, Note_on_c, 3, 64, 95
5, 64554, Note_off_c, 3, 64, 80
5, 64560, Note_on_c, 3, 64, 95
5, 64794, Note_off_c, 3, 64, 80
5, 64800, Note_on_c, 3, 64, 95
5, 65034, Note_off_c, 3, 64, 80
5, 65040, Note_on_c, 3, 60, 95
5, 65274, Note_off_c, 3, 60, 80
5, 65280, Note_on_c, 3, 63, 95
5, 65514, Note_off_c, 3, 63, 80
5, 65520, Note_on_c, 3, 63, 95
5, 65754, Note_off_c, 3, 63, 80
5, 65760, Note_on_c, 3, 63, 95
5, 65994, Note_off_c, 3, 63, 80
5, 66000, Note_on_c, 3, 65, 95
5, 66234, Note_off_c, 3, 65, 80
5, 66240, Note_on_c, 3, 60, 95
5, 66714, Note_off_c, 3, 60, 80
5, 67440, Note_on_c, 3, 68, 95
5, 67674, Note_off_c, 3, 68, 80
5, 67680, Note_on_c, 3, 68, 95
5, 67914, Note_off_c, 3, 68, 80
5, 67920, Note_on_c, 3, 68, 95
5, 68154, Note_off_c, 3, 68, 80
5, 68160, Note_on_c, 3, 70, 95
5, 68394, Note_off_c, 3, 70, 80
5, 68400, Note_on_c, 3, 68, 95
5, 68634, Note_off_c, 3, 68, 80
5, 68640, Note_on_c, 3, 68, 95
5, 68874, Note_off_c, 3, 68, 80
5, 68880, Note_on_c, 3, 67, 95
5, 69114, Note_off_c, 3, 67, 80
5, 69120, Note_on_c, 3, 67, 95
5, 69354, Note_off_c, 3, 67, 80
5, 69360, Note_on_c, 3, 67, 95
5, 69594, Note_off_c, 3, 67, 80
5, 69600, Note_on_c, 3, 67, 95
5, 69834, Note_off_c, 3, 67, 80
5, 69840, Note_on_c, 3, 69, 95
5, 70074, Note_off_c, 3, 69, 80
5, 70080, Note_on_c, 3, 67, 95
5, 70554, Note_off_c, 3, 67, 80
5, 71280, Note_on_c, 3, 63, 95
5, 71514, Note_off_c, 3, 63, 80
5, 71520, Note_on_c, 3, 63, 95
5, 71754, Note_off_c, 3, 63, 80
5, 71760, Note_on_c, 3, 62, 95
5, 71994, Note_off_c, 3, 62, 80
5, 72000, Note_on_c, 3, 60, 95
5, 72234, Note_off_c, 3, 60, 80
5, 72240, Note_on_c, 3, 60, 95
5, 72474, Note_off_c, 3, 60, 80
5, 72480, Note_on_c, 3, 60, 95
5, 72714, Note_off_c, 3, 60, 80
5, 72720, Note_on_c, 3, 58, 95
5, 72954, Note_off_c, 3, 58, 80
5, 73200, Note_on_c, 3, 63, 95
5, 73434, Note_off_c, 3, 63, 80
5, 73440, Note_on_c, 3, 62, 95
5, 73674, Note_off_c, 3, 62, 80
5, 73680, Note_on_c, 3, 60, 95
5, 73914, Note_off_c, 3, 60, 80
5, 73920, Note_on_c, 3, 64, 95
5, 74154, Note_off_c, 3, 64, 80
5, 74160, Note_on_c, 3, 57, 95
5, 74394, Note_off_c, 3, 57, 80
5, 74400, Note_on_c, 3, 57, 95
5, 74874, Note_off_c, 3, 57, 80
5, 75120, Note_on_c, 3, 63, 95
5, 75354, Note_off_c, 3, 63, 80
5, 75360, Note_on_c, 3, 62, 95
5, 75594, Note_off_c, 3, 62, 80
5, 75600, Note_on_c, 3, 60, 95
5, 75834, Note_off_c, 3, 60, 80
5, 75840, Note_on_c, 3, 64, 95
5, 76074, Note_off_c, 3, 64, 80
5, 76080, Note_on_c, 3, 57, 95
5, 76314, Note_off_c, 3, 57, 80
5, 76320, Note_on_c, 3, 57, 95
5, 76554, Note_off_c, 3, 57, 80
5, 76560, Note_on_c, 3, 55, 95
5, 76794, Note_off_c, 3, 55, 80
5, 76800, Note_on_c, 3, 57, 95
5, 77034, Note_off_c, 3, 57, 80
5, 77040, Note_on_c, 3, 60, 95
5, 77274, Note_off_c, 3, 60, 80
5, 77280, Note_on_c, 3, 62, 95
5, 77514, Note_off_c, 3, 62, 80
5, 77520, Note_on_c, 3, 60, 95
5, 77754, Note_off_c, 3, 60, 80
5, 77760, Note_on_c, 3, 64, 95
5, 77994, Note_off_c, 3, 64, 80
5, 78000, Note_on_c, 3, 57, 95
5, 78234, Note_off_c, 3, 57, 80
5, 78240, Note_on_c, 3, 57, 95
5, 78714, Note_off_c, 3, 57, 80
5, 78960, Note_on_c, 3, 63, 95
5, 79194, Note_off_c, 3, 63, 80
5, 79200, Note_on_c, 3, 62, 95
5, 79434, Note_off_c, 3, 62, 80
5, 79440, Note_on_c, 3, 60, 95
5, 79674, Note_off_c, 3, 60, 80
5, 79680, Note_on_c, 3, 64, 95
5, 79914, Note_off_c, 3, 64, 80
5, 79920, Note_on_c, 3, 57, 95
5, 80154, Note_off_c, 3, 57, 80
5, 80160, Note_on_c, 3, 57, 95
5, 80394, Note_off_c, 3, 57, 80
5, 80400, Note_on_c, 3, 57, 95
5, 80634, Note_off_c, 3, 57, 80
5, 80880, Note_on_c, 3, 63, 95
5, 81114, Note_off_c, 3, 63, 80
5, 81120, Note_on_c, 3, 62, 95
5, 81354, Note_off_c, 3, 62, 80
5, 81360, Note_on_c, 3, 60, 95
5, 81594, Note_off_c, 3, 60, 80
5, 81600, Note_on_c, 3, 64, 95
5, 81834, Note_off_c, 3, 64, 80
5, 81840, Note_on_c, 3, 57, 95
5, 82074, Note_off_c, 3, 57, 80
5, 82800, Note_on_c, 3, 63, 95
5, 83034, Note_off_c, 3, 63, 80
5, 83040, Note_on_c, 3, 62, 95
5, 83274, Note_off_c, 3, 62, 80
5, 83280, Note_on_c, 3, 60, 95
5, 83514, Note_off_c, 3, 60, 80
5, 83520, Note_on_c, 3, 64, 95
5, 83754, Note_off_c, 3, 64, 80
5, 83760, Note_on_c, 3, 64, 95
5, 83994, Note_off_c, 3, 64, 80
5, 84000, Note_on_c, 3, 64, 95
5, 84234, Note_off_c, 3, 64, 80
5, 84240, Note_on_c, 3, 60, 95
5, 84474, Note_off_c, 3, 60, 80
5, 84480, Note_on_c, 3, 63, 95
5, 84714, Note_off_c, 3, 63, 80
5, 84720, Note_on_c, 3, 63, 95
5, 84954, Note_off_c, 3, 63, 80
5, 84960, Note_on_c, 3, 63, 95
5, 85194, Note_off_c, 3, 63, 80
5, 85200, Note_on_c, 3, 65, 95
5, 85434, Note_off_c, 3, 65, 80
5, 85440, Note_on_c, 3, 60, 95
5, 85914, Note_off_c, 3, 60, 80
5, 86640, Note_on_c, 3, 68, 95
5, 86874, Note_off_c, 3, 68, 80
5, 86880, Note_on_c, 3, 68, 95
5, 87114, Note_off_c, 3, 68, 80
5, 87120, Note_on_c, 3, 68, 95
5, 87354, Note_off_c, 3, 68, 80
5, 87360, Note_on_c, 3, 70, 95
5, 87594, Note_off_c, 3, 70, 80
5, 87600, Note_on_c, 3, 68, 95
5, 87834, Note_off_c, 3, 68, 80
5, 87840, Note_on_c, 3, 68, 95
5, 88074, Note_off_c, 3, 68, 80
5, 88080, Note_on_c, 3, 67, 95
5, 88314, Note_off_c, 3, 67, 80
5, 88320, Note_on_c, 3, 67, 95
5, 88554, Note_off_c, 3, 67, 80
5, 88560, Note_on_c, 3, 67, 95
5, 88794, Note_off_c, 3, 67, 80
5, 88800, Note_on_c, 3, 67, 95
5, 89034, Note_off_c, 3, 67, 80
5, 89040, Note_on_c, 3, 69, 95
5, 89274, Note_off_c, 3, 69, 80
5, 89280, Note_on_c, 3, 67, 95
5, 89754, Note_off_c, 3, 67, 80
5, 90240, Note_on_c, 3, 63, 95
5, 91194, Note_off_c, 3, 63, 80
5, 91200, Note_on_c, 3, 62, 95
5, 91434, Note_off_c, 3, 62, 80
5, 91440, Note_on_c, 3, 60, 95
5, 91674, Note_off_c, 3, 60, 80
5, 94080, Note_on_c, 3, 63, 95
5, 95034, Note_off_c, 3, 63, 80
5, 95040, Note_on_c, 3, 62, 95
5, 95274, Note_off_c, 3, 62, 80
5, 95280, Note_on_c, 3, 60, 95
5, 95514, Note_off_c, 3, 60, 80
5, 97920, Note_on_c, 3, 64, 95
5, 98874, Note_off_c, 3, 64, 80
5, 98880, Note_on_c, 3, 62, 95
5, 99114, Note_off_c, 3, 62, 80
5, 99120, Note_on_c, 3, 61, 95
5, 99354, Note_off_c, 3, 61, 80
5, 101760, Note_on_c, 3, 64, 95
5, 102714, Note_off_c, 3, 64, 80
5, 102720, Note_on_c, 3, 62, 95
5, 102954, Note_off_c, 3, 62, 80
5, 102960, Note_on_c, 3, 61, 95
5, 103194, Note_off_c, 3, 61, 80
5, 105840, Note_on_c, 3, 60, 95
5, 106074, Note_off_c, 3, 60, 80
5, 106080, Note_on_c, 3, 60, 95
5, 106314, Note_off_c, 3, 60, 80
5, 106320, Note_on_c, 3, 62, 95
5, 106554, Note_off_c, 3, 62, 80
5, 106560, Note_on_c, 3, 62, 95
5, 106794, Note_off_c, 3, 62, 80
5, 106800, Note_on_c, 3, 60, 95
5, 107034, Note_off_c, 3, 60, 80
5, 107040, Note_on_c, 3, 60, 95
5, 107274, Note_off_c, 3, 60, 80
5, 107280, Note_on_c, 3, 62, 95
5, 107514, Note_off_c, 3, 62, 80
5, 108960, Note_on_c, 3, 62, 95
5, 109194, Note_off_c, 3, 62, 80
5, 109200, Note_on_c, 3, 60, 95
5, 109434, Note_off_c, 3, 60, 80
5, 109920, Note_on_c, 3, 60, 95
5, 110154, Note_off_c, 3, 60, 80
5, 110160, Note_on_c, 3, 62, 95
5, 110394, Note_off_c, 3, 62, 80
5, 110400, Note_on_c, 3, 62, 95
5, 110634, Note_off_c, 3, 62, 80
5, 110640, Note_on_c, 3, 60, 95
5, 110874, Note_off_c, 3, 60, 80
5, 110880, Note_on_c, 3, 60, 95
5, 111354, Note_off_c, 3, 60, 80
5, 111360, Note_on_c, 3, 67, 95
5, 111594, Note_off_c, 3, 67, 80
5, 111600, Note_on_c, 3, 66, 95
5, 111714, Note_off_c, 3, 66, 80
5, 111720, Note_on_c, 3, 67, 95
5, 111954, Note_off_c, 3, 67, 80
5, 111960, Note_on_c, 3, 66, 95
5, 112074, Note_off_c, 3, 66, 80
5, 112080, Note_on_c, 3, 62, 95
5, 112554, Note_off_c, 3, 62, 80
5, 112560, Note_on_c, 3, 64, 95
5, 112914, Note_off_c, 3, 64, 80
5, 112920, Note_on_c, 3, 60, 95
5, 113274, Note_off_c, 3, 60, 80
5, 113520, Note_on_c, 3, 60, 95
5, 113754, Note_off_c, 3, 60, 80
5, 113760, Note_on_c, 3, 60, 95
5, 113994, Note_off_c, 3, 60, 80
5, 114000, Note_on_c, 3, 62, 95
5, 114234, Note_off_c, 3, 62, 80
5, 114240, Note_on_c, 3, 62, 95
5, 114474, Note_off_c, 3, 62, 80
5, 114480, Note_on_c, 3, 60, 95
5, 114714, Note_off_c, 3, 60, 80
5, 114720, Note_on_c, 3, 60, 95
5, 114954, Note_off_c, 3, 60, 80
5, 114960, Note_on_c, 3, 62, 95
5, 115194, Note_off_c, 3, 62, 80
5, 116640, Note_on_c, 3, 62, 95
5, 116874, Note_off_c, 3, 62, 80
5, 116880, Note_on_c, 3, 60, 95
5, 117114, Note_off_c, 3, 60, 80
5, 117600, Note_on_c, 3, 60, 95
5, 117834, Note_off_c, 3, 60, 80
5, 117840, Note_on_c, 3, 62, 95
5, 118074, Note_off_c, 3, 62, 80
5, 118080, Note_on_c, 3, 62, 95
5, 118314, Note_off_c, 3, 62, 80
5, 118320, Note_on_c, 3, 60, 95
5, 118554, Note_off_c, 3, 60, 80
5, 118560, Note_on_c, 3, 60, 95
5, 119034, Note_off_c, 3, 60, 80
5, 119040, Note_on_c, 3, 64, 95
5, 119274, Note_off_c, 3, 64, 80
5, 119280, Note_on_c, 3, 66, 95
5, 119394, Note_off_c, 3, 66, 80
5, 119400, Note_on_c, 3, 66, 95
5, 119754, Note_off_c, 3, 66, 80
5, 119760, Note_on_c, 3, 60, 95
5, 119874, Note_off_c, 3, 60, 80
5, 119880, Note_on_c, 3, 60, 95
5, 120234, Note_off_c, 3, 60, 80
5, 120240, Note_on_c, 3, 60, 95
5, 120354, Note_off_c, 3, 60, 80
5, 120360, Note_on_c, 3, 60, 95
5, 120594, Note_off_c, 3, 60, 80
5, 120600, Note_on_c, 3, 62, 95
5, 120714, Note_off_c, 3, 62, 80
5, 120720, Note_on_c, 3, 65, 95
5, 120954, Note_off_c, 3, 65, 80
5, 121200, Note_on_c, 3, 60, 95
5, 121434, Note_off_c, 3, 60, 80
5, 121440, Note_on_c, 3, 60, 95
5, 121674, Note_off_c, 3, 60, 80
5, 121680, Note_on_c, 3, 62, 95
5, 121914, Note_off_c, 3, 62, 80
5, 121920, Note_on_c, 3, 62, 95
5, 122154, Note_off_c, 3, 62, 80
5, 122160, Note_on_c, 3, 60, 95
5, 122394, Note_off_c, 3, 60, 80
5, 122400, Note_on_c, 3, 60, 95
5, 122634, Note_off_c, 3, 60, 80
5, 122640, Note_on_c, 3, 62, 95
5, 122874, Note_off_c, 3, 62, 80
5, 124320, Note_on_c, 3, 62, 95
5, 124554, Note_off_c, 3, 62, 80
5, 124560, Note_on_c, 3, 60, 95
5, 124794, Note_off_c, 3, 60, 80
5, 125280, Note_on_c, 3, 60, 95
5, 125514, Note_off_c, 3, 60, 80
5, 125520, Note_on_c, 3, 62, 95
5, 125754, Note_off_c, 3, 62, 80
5, 125760, Note_on_c, 3, 62, 95
5, 125994, Note_off_c, 3, 62, 80
5, 126000, Note_on_c, 3, 60, 95
5, 126234, Note_off_c, 3, 60, 80
5, 126240, Note_on_c, 3, 60, 95
5, 126714, Note_off_c, 3, 60, 80
5, 126720, Note_on_c, 3, 67, 95
5, 126954, Note_off_c, 3, 67, 80
5, 126960, Note_on_c, 3, 66, 95
5, 127194, Note_off_c, 3, 66, 80
5, 127200, Note_on_c, 3, 62, 95
5, 127434, Note_off_c, 3, 62, 80
5, 127440, Note_on_c, 3, 64, 95
5, 127914, Note_off_c, 3, 64, 80
5, 127920, Note_on_c, 3, 60, 95
5, 128634, Note_off_c, 3, 60, 80
5, 128880, Note_on_c, 3, 60, 95
5, 129114, Note_off_c, 3, 60, 80
5, 129120, Note_on_c, 3, 60, 95
5, 129354, Note_off_c, 3, 60, 80
5, 129360, Note_on_c, 3, 62, 95
5, 129594, Note_off_c, 3, 62, 80
5, 129600, Note_on_c, 3, 62, 95
5, 129834, Note_off_c, 3, 62, 80
5, 129840, Note_on_c, 3, 60, 95
5, 130074, Note_off_c, 3, 60, 80
5, 130080, Note_on_c, 3, 60, 95
5, 130314, Note_off_c, 3, 60, 80
5, 130320, Note_on_c, 3, 62, 95
5, 130554, Note_off_c, 3, 62, 80
5, 132000, Note_on_c, 3, 62, 95
5, 132234, Note_off_c, 3, 62, 80
5, 132240, Note_on_c, 3, 60, 95
5, 132474, Note_off_c, 3, 60, 80
5, 132960, Note_on_c, 3, 60, 95
5, 133194, Note_off_c, 3, 60, 80
5, 133200, Note_on_c, 3, 62, 95
5, 133434, Note_off_c, 3, 62, 80
5, 133440, Note_on_c, 3, 62, 95
5, 133674, Note_off_c, 3, 62, 80
5, 133680, Note_on_c, 3, 60, 95
5, 133914, Note_off_c, 3, 60, 80
5, 133920, Note_on_c, 3, 60, 95
5, 134394, Note_off_c, 3, 60, 80
5, 136560, Note_on_c, 3, 67, 95
5, 136674, Note_off_c, 3, 67, 80
5, 136680, Note_on_c, 3, 67, 95
5, 136794, Note_off_c, 3, 67, 80
5, 136800, Note_on_c, 3, 67, 95
5, 137034, Note_off_c, 3, 67, 80
5, 137040, Note_on_c, 3, 67, 95
5, 137274, Note_off_c, 3, 67, 80
5, 137280, Note_on_c, 3, 67, 95
5, 137514, Note_off_c, 3, 67, 80
5, 137520, Note_on_c, 3, 62, 95
5, 137754, Note_off_c, 3, 62, 80
5, 137760, Note_on_c, 3, 60, 95
5, 137994, Note_off_c, 3, 60, 80
5, 138000, Note_on_c, 3, 58, 95
5, 138234, Note_off_c, 3, 58, 80
5, 141360, Note_on_c, 3, 64, 95
5, 141594, Note_off_c, 3, 64, 80
5, 141600, Note_on_c, 3, 65, 95
5, 141834, Note_off_c, 3, 65, 80
5, 141840, Note_on_c, 3, 64, 95
5, 142074, Note_off_c, 3, 64, 80
5, 142080, Note_on_c, 3, 65, 95
5, 142314, Note_off_c, 3, 65, 80
5, 142320, Note_on_c, 3, 64, 95
5, 142554, Note_off_c, 3, 64, 80
5, 145200, Note_on_c, 3, 64, 95
5, 145434, Note_off_c, 3, 64, 80
5, 145440, Note_on_c, 3, 65, 95
5, 145674, Note_off_c, 3, 65, 80
5, 145680, Note_on_c, 3, 64, 95
5, 145914, Note_off_c, 3, 64, 80
5, 145920, Note_on_c, 3, 65, 95
5, 146154, Note_off_c, 3, 65, 80
5, 146160, Note_on_c, 3, 63, 95
5, 146394, Note_off_c, 3, 63, 80
5, 149040, Note_on_c, 3, 63, 95
5, 149274, Note_off_c, 3, 63, 80
5, 149280, Note_on_c, 3, 65, 95
5, 149514, Note_off_c, 3, 65, 80
5, 149520, Note_on_c, 3, 64, 95
5, 149754, Note_off_c, 3, 64, 80
5, 149760, Note_on_c, 3, 65, 95
5, 149994, Note_off_c, 3, 65, 80
5, 150000, Note_on_c, 3, 64, 95
5, 150234, Note_off_c, 3, 64, 80
5, 151680, Note_on_c, 3, 72, 95
5, 153114, Note_off_c, 3, 72, 80
5, 153120, Note_on_c, 3, 69, 63
5, 153594, Note_off_c, 3, 69, 80
5, 153840, Note_on_c, 3, 63, 95
5, 154074, Note_off_c, 3, 63, 80
5, 154080, Note_on_c, 3, 63, 95
5, 154314, Note_off_c, 3, 63, 80
5, 154320, Note_on_c, 3, 60, 95
5, 154554, Note_off_c, 3, 60, 80
5, 154560, Note_on_c, 3, 62, 95
5, 154794, Note_off_c, 3, 62, 80
5, 154800, Note_on_c, 3, 59, 95
5, 155034, Note_off_c, 3, 59, 80
5, 155040, Note_on_c, 3, 59, 95
5, 155514, Note_off_c, 3, 59, 80
5, 155760, Note_on_c, 3, 63, 95
5, 155994, Note_off_c, 3, 63, 80
5, 156000, Note_on_c, 3, 63, 95
5, 156234, Note_off_c, 3, 63, 80
5, 156240, Note_on_c, 3, 60, 95
5, 156474, Note_off_c, 3, 60, 80
5, 156480, Note_on_c, 3, 64, 95
5, 156714, Note_off_c, 3, 64, 80
5, 156720, Note_on_c, 3, 57, 95
5, 156954, Note_off_c, 3, 57, 80
5, 156960, Note_on_c, 3, 57, 95
5, 157194, Note_off_c, 3, 57, 80
5, 157200, Note_on_c, 3, 57, 95
5, 157434, Note_off_c, 3, 57, 80
5, 157680, Note_on_c, 3, 63, 95
5, 157914, Note_off_c, 3, 63, 80
5, 157920, Note_on_c, 3, 63, 95
5, 158154, Note_off_c, 3, 63, 80
5, 158160, Note_on_c, 3, 57, 95
5, 158394, Note_off_c, 3, 57, 80
5, 158400, Note_on_c, 3, 62, 95
5, 158634, Note_off_c, 3, 62, 80
5, 158640, Note_on_c, 3, 57, 95
5, 158874, Note_off_c, 3, 57, 80
5, 158880, Note_on_c, 3, 57, 95
5, 159114, Note_off_c, 3, 57, 80
5, 159120, Note_on_c, 3, 55, 95
5, 159354, Note_off_c, 3, 55, 80
5, 159360, Note_on_c, 3, 64, 95
5, 159474, Note_off_c, 3, 64, 80
5, 159480, Note_on_c, 3, 64, 95
5, 159594, Note_off_c, 3, 64, 80
5, 159600, Note_on_c, 3, 65, 95
5, 159834, Note_off_c, 3, 65, 80
5, 159840, Note_on_c, 3, 66, 95
5, 160074, Note_off_c, 3, 66, 80
5, 160080, Note_on_c, 3, 67, 95
5, 160314, Note_off_c, 3, 67, 80
5, 160320, Note_on_c, 3, 64, 95
5, 160794, Note_off_c, 3, 64, 80
5, 161520, Note_on_c, 3, 63, 95
5, 161754, Note_off_c, 3, 63, 80
5, 161760, Note_on_c, 3, 63, 95
5, 161994, Note_off_c, 3, 63, 80
5, 162000, Note_on_c, 3, 60, 95
5, 162234, Note_off_c, 3, 60, 80
5, 162240, Note_on_c, 3, 62, 95
5, 162474, Note_off_c, 3, 62, 80
5, 162480, Note_on_c, 3, 57, 95
5, 162714, Note_off_c, 3, 57, 80
5, 162720, Note_on_c, 3, 57, 95
5, 162954, Note_off_c, 3, 57, 80
5, 162960, Note_on_c, 3, 57, 95
5, 163194, Note_off_c, 3, 57, 80
5, 163440, Note_on_c, 3, 64, 95
5, 163674, Note_off_c, 3, 64, 80
5, 163680, Note_on_c, 3, 64, 95
5, 163914, Note_off_c, 3, 64, 80
5, 163920, Note_on_c, 3, 64, 95
5, 164154, Note_off_c, 3, 64, 80
5, 164160, Note_on_c, 3, 60, 95
5, 164394, Note_off_c, 3, 60, 80
5, 164400, Note_on_c, 3, 60, 95
5, 164874, Note_off_c, 3, 60, 80
5, 165360, Note_on_c, 3, 63, 95
5, 165594, Note_off_c, 3, 63, 80
5, 165600, Note_on_c, 3, 63, 95
5, 165834, Note_off_c, 3, 63, 80
5, 165840, Note_on_c, 3, 60, 95
5, 166074, Note_off_c, 3, 60, 80
5, 166080, Note_on_c, 3, 63, 95
5, 166314, Note_off_c, 3, 63, 80
5, 166320, Note_on_c, 3, 60, 95
5, 166554, Note_off_c, 3, 60, 80
5, 166560, Note_on_c, 3, 60, 95
5, 166794, Note_off_c, 3, 60, 80
5, 166800, Note_on_c, 3, 60, 95
5, 167034, Note_off_c, 3, 60, 80
5, 167040, Note_on_c, 3, 63, 95
5, 167274, Note_off_c, 3, 63, 80
5, 167280, Note_on_c, 3, 63, 95
5, 167514, Note_off_c, 3, 63, 80
5, 167520, Note_on_c, 3, 63, 95
5, 167754, Note_off_c, 3, 63, 80
5, 167760, Note_on_c, 3, 65, 95
5, 167994, Note_off_c, 3, 65, 80
5, 168000, Note_on_c, 3, 60, 95
5, 168474, Note_off_c, 3, 60, 80
5, 169200, Note_on_c, 3, 63, 95
5, 169434, Note_off_c, 3, 63, 80
5, 169440, Note_on_c, 3, 63, 95
5, 169674, Note_off_c, 3, 63, 80
5, 169680, Note_on_c, 3, 62, 95
5, 169914, Note_off_c, 3, 62, 80
5, 169920, Note_on_c, 3, 60, 95
5, 170154, Note_off_c, 3, 60, 80
5, 170160, Note_on_c, 3, 60, 95
5, 170394, Note_off_c, 3, 60, 80
5, 170400, Note_on_c, 3, 60, 95
5, 170634, Note_off_c, 3, 60, 80
5, 170640, Note_on_c, 3, 58, 95
5, 170874, Note_off_c, 3, 58, 80
5, 171120, Note_on_c, 3, 63, 95
5, 171354, Note_off_c, 3, 63, 80
5, 171360, Note_on_c, 3, 62, 95
5, 171594, Note_off_c, 3, 62, 80
5, 171600, Note_on_c, 3, 60, 95
5, 171834, Note_off_c, 3, 60, 80
5, 171840, Note_on_c, 3, 64, 95
5, 172074, Note_off_c, 3, 64, 80
5, 172080, Note_on_c, 3, 57, 95
5, 172314, Note_off_c, 3, 57, 80
5, 172320, Note_on_c, 3, 57, 95
5, 172794, Note_off_c, 3, 57, 80
5, 173040, Note_on_c, 3, 63, 95
5, 173274, Note_off_c, 3, 63, 80
5, 173280, Note_on_c, 3, 62, 95
5, 173514, Note_off_c, 3, 62, 80
5, 173520, Note_on_c, 3, 60, 95
5, 173754, Note_off_c, 3, 60, 80
5, 173760, Note_on_c, 3, 64, 95
5, 173994, Note_off_c, 3, 64, 80
5, 174000, Note_on_c, 3, 57, 95
5, 174234, Note_off_c, 3, 57, 80
5, 174240, Note_on_c, 3, 57, 95
5, 174474, Note_off_c, 3, 57, 80
5, 174480, Note_on_c, 3, 55, 95
5, 174714, Note_off_c, 3, 55, 80
5, 174720, Note_on_c, 3, 57, 95
5, 174954, Note_off_c, 3, 57, 80
5, 174960, Note_on_c, 3, 60, 95
5, 175194, Note_off_c, 3, 60, 80
5, 175200, Note_on_c, 3, 62, 95
5, 175434, Note_off_c, 3, 62, 80
5, 175440, Note_on_c, 3, 60, 95
5, 175674, Note_off_c, 3, 60, 80
5, 175680, Note_on_c, 3, 64, 95
5, 175914, Note_off_c, 3, 64, 80
5, 175920, Note_on_c, 3, 57, 95
5, 176154, Note_off_c, 3, 57, 80
5, 176160, Note_on_c, 3, 57, 95
5, 176634, Note_off_c, 3, 57, 80
5, 176880, Note_on_c, 3, 63, 95
5, 177114, Note_off_c, 3, 63, 80
5, 177120, Note_on_c, 3, 62, 95
5, 177354, Note_off_c, 3, 62, 80
5, 177360, Note_on_c, 3, 60, 95
5, 177594, Note_off_c, 3, 60, 80
5, 177600, Note_on_c, 3, 64, 95
5, 177834, Note_off_c, 3, 64, 80
5, 177840, Note_on_c, 3, 57, 95
5, 178074, Note_off_c, 3, 57, 80
5, 178080, Note_on_c, 3, 57, 95
5, 178314, Note_off_c, 3, 57, 80
5, 178320, Note_on_c, 3, 57, 95
5, 178554, Note_off_c, 3, 57, 80
5, 178800, Note_on_c, 3, 63, 95
5, 179034, Note_off_c, 3, 63, 80
5, 179040, Note_on_c, 3, 62, 95
5, 179274, Note_off_c, 3, 62, 80
5, 179280, Note_on_c, 3, 60, 95
5, 179514, Note_off_c, 3, 60, 80
5, 179520, Note_on_c, 3, 64, 95
5, 179754, Note_off_c, 3, 64, 80
5, 179760, Note_on_c, 3, 57, 95
5, 179994, Note_off_c, 3, 57, 80
5, 180720, Note_on_c, 3, 63, 95
5, 180954, Note_off_c, 3, 63, 80
5, 180960, Note_on_c, 3, 62, 95
5, 181194, Note_off_c, 3, 62, 80
5, 181200, Note_on_c, 3, 60, 95
5, 181434, Note_off_c, 3, 60, 80
5, 181440, Note_on_c, 3, 64, 95
5, 181674, Note_off_c, 3, 64, 80
5, 181680, Note_on_c, 3, 64, 95
5, 181914, Note_off_c, 3, 64, 80
5, 181920, Note_on_c, 3, 64, 95
5, 182154, Note_off_c, 3, 64, 80
5, 182160, Note_on_c, 3, 60, 95
5, 182394, Note_off_c, 3, 60, 80
5, 182400, Note_on_c, 3, 63, 95
5, 182634, Note_off_c, 3, 63, 80
5, 182640, Note_on_c, 3, 63, 95
5, 182874, Note_off_c, 3, 63, 80
5, 182880, Note_on_c, 3, 63, 95
5, 183114, Note_off_c, 3, 63, 80
5, 183120, Note_on_c, 3, 65, 95
5, 183354, Note_off_c, 3, 65, 80
5, 183360, Note_on_c, 3, 60, 95
5, 183834, Note_off_c, 3, 60, 80
5, 184560, Note_on_c, 3, 68, 95
5, 184794, Note_off_c, 3, 68, 80
5, 184800, Note_on_c, 3, 68, 95
5, 185034, Note_off_c, 3, 68, 80
5, 185040, Note_on_c, 3, 68, 95
5, 185274, Note_off_c, 3, 68, 80
5, 185280, Note_on_c, 3, 70, 95
5, 185514, Note_off_c, 3, 70, 80
5, 185520, Note_on_c, 3, 68, 95
5, 185754, Note_off_c, 3, 68, 80
5, 185760, Note_on_c, 3, 68, 95
5, 185994, Note_off_c, 3, 68, 80
5, 186000, Note_on_c, 3, 67, 95
5, 186234, Note_off_c, 3, 67, 80
5, 186240, Note_on_c, 3, 67, 95
5, 186474, Note_off_c, 3, 67, 80
5, 186480, Note_on_c, 3, 67, 95
5, 186714, Note_off_c, 3, 67, 80
5, 186720, Note_on_c, 3, 67, 95
5, 186954, Note_off_c, 3, 67, 80
5, 186960, Note_on_c, 3, 69, 95
5, 187194, Note_off_c, 3, 69, 80
5, 187200, Note_on_c, 3, 67, 95
5, 187674, Note_off_c, 3, 67, 80
5, 188400, Note_on_c, 3, 63, 95
5, 188634, Note_off_c, 3, 63, 80
5, 188640, Note_on_c, 3, 63, 95
5, 188874, Note_off_c, 3, 63, 80
5, 188880, Note_on_c, 3, 62, 95
5, 189114, Note_off_c, 3, 62, 80
5, 189120, Note_on_c, 3, 60, 95
5, 189354, Note_off_c, 3, 60, 80
5, 189360, Note_on_c, 3, 60, 95
5, 189594, Note_off_c, 3, 60, 80
5, 189600, Note_on_c, 3, 60, 95
5, 189834, Note_off_c, 3, 60, 80
5, 189840, Note_on_c, 3, 58, 95
5, 190074, Note_off_c, 3, 58, 80
5, 190320, Note_on_c, 3, 63, 95
5, 190554, Note_off_c, 3, 63, 80
5, 190560, Note_on_c, 3, 62, 95
5, 190794, Note_off_c, 3, 62, 80
5, 190800, Note_on_c, 3, 60, 95
5, 191034, Note_off_c, 3, 60, 80
5, 191040, Note_on_c, 3, 64, 95
5, 191274, Note_off_c, 3, 64, 80
5, 191280, Note_on_c, 3, 57, 95
5, 191514, Note_off_c, 3, 57, 80
5, 191520, Note_on_c, 3, 57, 95
5, 191994, Note_off_c, 3, 57, 80
5, 192240, Note_on_c, 3, 63, 95
5, 192474, Note_off_c, 3, 63, 80
5, 192480, Note_on_c, 3, 62, 95
5, 192714, Note_off_c, 3, 62, 80
5, 192720, Note_on_c, 3, 60, 95
5, 192954, Note_off_c, 3, 60, 80
5, 192960, Note_on_c, 3, 64, 95
5, 193194, Note_off_c, 3, 64, 80
5, 193200, Note_on_c, 3, 57, 95
5, 193434, Note_off_c, 3, 57, 80
5, 193440, Note_on_c, 3, 57, 95
5, 193674, Note_off_c, 3, 57, 80
5, 193680, Note_on_c, 3, 55, 95
5, 193914, Note_off_c, 3, 55, 80
5, 193920, Note_on_c, 3, 57, 95
5, 194154, Note_off_c, 3, 57, 80
5, 194160, Note_on_c, 3, 60, 95
5, 194394, Note_off_c, 3, 60, 80
5, 194400, Note_on_c, 3, 62, 95
5, 194634, Note_off_c, 3, 62, 80
5, 194640, Note_on_c, 3, 60, 95
5, 194874, Note_off_c, 3, 60, 80
5, 194880, Note_on_c, 3, 64, 95
5, 195114, Note_off_c, 3, 64, 80
5, 195120, Note_on_c, 3, 57, 95
5, 195354, Note_off_c, 3, 57, 80
5, 195360, Note_on_c, 3, 57, 95
5, 195834, Note_off_c, 3, 57, 80
5, 196080, Note_on_c, 3, 63, 95
5, 196314, Note_off_c, 3, 63, 80
5, 196320, Note_on_c, 3, 62, 95
5, 196554, Note_off_c, 3, 62, 80
5, 196560, Note_on_c, 3, 60, 95
5, 196794, Note_off_c, 3, 60, 80
5, 196800, Note_on_c, 3, 64, 95
5, 197034, Note_off_c, 3, 64, 80
5, 197040, Note_on_c, 3, 57, 95
5, 197274, Note_off_c, 3, 57, 80
5, 197280, Note_on_c, 3, 57, 95
5, 197514, Note_off_c, 3, 57, 80
5, 197520, Note_on_c, 3, 57, 95
5, 197754, Note_off_c, 3, 57, 80
5, 198000, Note_on_c, 3, 63, 95
5, 198234, Note_off_c, 3, 63, 80
5, 198240, Note_on_c, 3, 62, 95
5, 198474, Note_off_c, 3, 62, 80
5, 198480, Note_on_c, 3, 60, 95
5, 198714, Note_off_c, 3, 60, 80
5, 198720, Note_on_c, 3, 64, 95
5, 198954, Note_off_c, 3, 64, 80
5, 198960, Note_on_c, 3, 57, 95
5, 199194, Note_off_c, 3, 57, 80
5, 199920, Note_on_c, 3, 63, 95
5, 200154, Note_off_c, 3, 63, 80
5, 200160, Note_on_c, 3, 62, 95
5, 200394, Note_off_c, 3, 62, 80
5, 200400, Note_on_c, 3, 60, 95
5, 200634, Note_off_c, 3, 60, 80
5, 200640, Note_on_c, 3, 64, 95
5, 200874, Note_off_c, 3, 64, 80
5, 200880, Note_on_c, 3, 64, 95
5, 201114, Note_off_c, 3, 64, 80
5, 201120, Note_on_c, 3, 64, 95
5, 201354, Note_off_c, 3, 64, 80
5, 201360, Note_on_c, 3, 60, 95
5, 201594, Note_off_c, 3, 60, 80
5, 201600, Note_on_c, 3, 63, 95
5, 201834, Note_off_c, 3, 63, 80
5, 201840, Note_on_c, 3, 63, 95
5, 202074, Note_off_c, 3, 63, 80
5, 202080, Note_on_c, 3, 63, 95
5, 202314, Note_off_c, 3, 63, 80
5, 202320, Note_on_c, 3, 65, 95
5, 202554, Note_off_c, 3, 65, 80
5, 202560, Note_on_c, 3, 60, 95
5, 203034, Note_off_c, 3, 60, 80
5, 203760, Note_on_c, 3, 68, 95
5, 203994, Note_off_c, 3, 68, 80
5, 204000, Note_on_c, 3, 68, 95
5, 204234, Note_off_c, 3, 68, 80
5, 204240, Note_on_c, 3, 68, 95
5, 204474, Note_off_c, 3, 68, 80
5, 204480, Note_on_c, 3, 70, 95
5, 204714, Note_off_c, 3, 70, 80
5, 204720, Note_on_c, 3, 68, 95
5, 204954, Note_off_c, 3, 68, 80
5, 204960, Note_on_c, 3, 68, 95
5, 205194, Note_off_c, 3, 68, 80
5, 205200, Note_on_c, 3, 67, 95
5, 205434, Note_off_c, 3, 67, 80
5, 205440, Note_on_c, 3, 67, 95
5, 205674, Note_off_c, 3, 67, 80
5, 205680, Note_on_c, 3, 67, 95
5, 205914, Note_off_c, 3, 67, 80
5, 205920, Note_on_c, 3, 67, 95
5, 206154, Note_off_c, 3, 67, 80
5, 206160, Note_on_c, 3, 69, 95
5, 206394, Note_off_c, 3, 69, 80
5, 206400, Note_on_c, 3, 67, 95
5, 206874, Note_off_c, 3, 67, 80
5, 207600, Note_on_c, 3, 63, 95
5, 207834, Note_off_c, 3, 63, 80
5, 207840, Note_on_c, 3, 63, 95
5, 208074, Note_off_c, 3, 63, 80
5, 208080, Note_on_c, 3, 62, 95
5, 208314, Note_off_c, 3, 62, 80
5, 208320, Note_on_c, 3, 60, 95
5, 208554, Note_off_c, 3, 60, 80
5, 208560, Note_on_c, 3, 60, 95
5, 208794, Note_off_c, 3, 60, 80
5, 208800, Note_on_c, 3, 60, 95
5, 209034, Note_off_c, 3, 60, 80
5, 209040, Note_on_c, 3, 58, 95
5, 209274, Note_off_c, 3, 58, 80
5, 209520, Note_on_c, 3, 63, 95
5, 209754, Note_off_c, 3, 63, 80
5, 209760, Note_on_c, 3, 62, 95
5, 209994, Note_off_c, 3, 62, 80
5, 210000, Note_on_c, 3, 60, 95
5, 210234, Note_off_c, 3, 60, 80
5, 210240, Note_on_c, 3, 64, 95
5, 210474, Note_off_c, 3, 64, 80
5, 210480, Note_on_c, 3, 57, 95
5, 210714, Note_off_c, 3, 57, 80
5, 210720, Note_on_c, 3, 57, 95
5, 211194, Note_off_c, 3, 57, 80
5, 211440, Note_on_c, 3, 63, 95
5, 211674, Note_off_c, 3, 63, 80
5, 211680, Note_on_c, 3, 62, 95
5, 211914, Note_off_c, 3, 62, 80
5, 211920, Note_on_c, 3, 60, 95
5, 212154, Note_off_c, 3, 60, 80
5, 212160, Note_on_c, 3, 64, 95
5, 212394, Note_off_c, 3, 64, 80
5, 212400, Note_on_c, 3, 57, 95
5, 212634, Note_off_c, 3, 57, 80
5, 212640, Note_on_c, 3, 57, 95
5, 212874, Note_off_c, 3, 57, 80
5, 212880, Note_on_c, 3, 55, 95
5, 213114, Note_off_c, 3, 55, 80
5, 213120, Note_on_c, 3, 57, 95
5, 213354, Note_off_c, 3, 57, 80
5, 213360, Note_on_c, 3, 60, 95
5, 213594, Note_off_c, 3, 60, 80
5, 213600, Note_on_c, 3, 62, 95
5, 213834, Note_off_c, 3, 62, 80
5, 213840, Note_on_c, 3, 60, 95
5, 214074, Note_off_c, 3, 60, 80
5, 214080, Note_on_c, 3, 64, 95
5, 214314, Note_off_c, 3, 64, 80
5, 214320, Note_on_c, 3, 57, 95
5, 214554, Note_off_c, 3, 57, 80
5, 214560, Note_on_c, 3, 57, 95
5, 215034, Note_off_c, 3, 57, 80
5, 215280, Note_on_c, 3, 63, 95
5, 215514, Note_off_c, 3, 63, 80
5, 215520, Note_on_c, 3, 62, 95
5, 215754, Note_off_c, 3, 62, 80
5, 215760, Note_on_c, 3, 60, 95
5, 215994, Note_off_c, 3, 60, 80
5, 216000, Note_on_c, 3, 64, 95
5, 216234, Note_off_c, 3, 64, 80
5, 216240, Note_on_c, 3, 57, 95
5, 216474, Note_off_c, 3, 57, 80
5, 216480, Note_on_c, 3, 57, 95
5, 216714, Note_off_c, 3, 57, 80
5, 216720, Note_on_c, 3, 57, 95
5, 216954, Note_off_c, 3, 57, 80
5, 217200, Note_on_c, 3, 63, 95
5, 217434, Note_off_c, 3, 63, 80
5, 217440, Note_on_c, 3, 62, 95
5, 217674, Note_off_c, 3, 62, 80
5, 217680, Note_on_c, 3, 60, 95
5, 217914, Note_off_c, 3, 60, 80
5, 217920, Note_on_c, 3, 64, 95
5, 218154, Note_off_c, 3, 64, 80
5, 218160, Note_on_c, 3, 57, 95
5, 218394, Note_off_c, 3, 57, 80
5, 219120, Note_on_c, 3, 63, 95
5, 219354, Note_off_c, 3, 63, 80
5, 219360, Note_on_c, 3, 62, 95
5, 219594, Note_off_c, 3, 62, 80
5, 219600, Note_on_c, 3, 60, 95
5, 219834, Note_off_c, 3, 60, 80
5, 219840, Note_on_c, 3, 64, 95
5, 220074, Note_off_c, 3, 64, 80
5, 220080, Note_on_c, 3, 64, 95
5, 220314, Note_off_c, 3, 64, 80
5, 220320, Note_on_c, 3, 64, 95
5, 220554, Note_off_c, 3, 64, 80
5, 220560, Note_on_c, 3, 60, 95
5, 220794, Note_off_c, 3, 60, 80
5, 220800, Note_on_c, 3, 63, 95
5, 221034, Note_off_c, 3, 63, 80
5, 221040, Note_on_c, 3, 63, 95
5, 221274, Note_off_c, 3, 63, 80
5, 221280, Note_on_c, 3, 63, 95
5, 221514, Note_off_c, 3, 63, 80
5, 221520, Note_on_c, 3, 65, 95
5, 221754, Note_off_c, 3, 65, 80
5, 221760, Note_on_c, 3, 60, 95
5, 222234, Note_off_c, 3, 60, 80
5, 222960, Note_on_c, 3, 68, 95
5, 223194, Note_off_c, 3, 68, 80
5, 223200, Note_on_c, 3, 68, 95
5, 223434, Note_off_c, 3, 68, 80
5, 223440, Note_on_c, 3, 68, 95
5, 223674, Note_off_c, 3, 68, 80
5, 223680, Note_on_c, 3, 70, 95
5, 223914, Note_off_c, 3, 70, 80
5, 223920, Note_on_c, 3, 68, 95
5, 224154, Note_off_c, 3, 68, 80
5, 224160, Note_on_c, 3, 68, 95
5, 224394, Note_off_c, 3, 68, 80
5, 224400, Note_on_c, 3, 67, 95
5, 224634, Note_off_c, 3, 67, 80
5, 224640, Note_on_c, 3, 67, 95
5, 224874, Note_off_c, 3, 67, 80
5, 224880, Note_on_c, 3, 67, 95
5, 225114, Note_off_c, 3, 67, 80
5, 225120, Note_on_c, 3, 67, 95
5, 225354, Note_off_c, 3, 67, 80
5, 225360, Note_on_c, 3, 69, 95
5, 225594, Note_off_c, 3, 69, 80
5, 225600, Note_on_c, 3, 67, 95
5, 226074, Note_off_c, 3, 67, 80
5, 226560, Note_on_c, 3, 63, 95
5, 227514, Note_off_c, 3, 63, 80
5, 227520, Note_on_c, 3, 62, 95
5, 227754, Note_off_c, 3, 62, 80
5, 227760, Note_on_c, 3, 60, 95
5, 227994, Note_off_c, 3, 60, 80
5, 230400, Note_on_c, 3, 63, 95
5, 231354, Note_off_c, 3, 63, 80
5, 231360, Note_on_c, 3, 62, 95
5, 231594, Note_off_c, 3, 62, 80
5, 231600, Note_on_c, 3, 60, 95
5, 231834, Note_off_c, 3, 60, 80
5, 234240, Note_on_c, 3, 64, 95
5, 235194, Note_off_c, 3, 64, 80
5, 235200, Note_on_c, 3, 62, 95
5, 235434, Note_off_c, 3, 62, 80
5, 235440, Note_on_c, 3, 61, 95
5, 235674, Note_off_c, 3, 61, 80
5, 238080, Note_on_c, 3, 64, 95
5, 239034, Note_off_c, 3, 64, 80
5, 239040, Note_on_c, 3, 62, 95
5, 239274, Note_off_c, 3, 62, 80
5, 239280, Note_on_c, 3, 61, 95
5, 239514, Note_off_c, 3, 61, 80
5, 242160, Note_on_c, 3, 60, 95
5, 242394, Note_off_c, 3, 60, 80
5, 242400, Note_on_c, 3, 60, 95
5, 242634, Note_off_c, 3, 60, 80
5, 242640, Note_on_c, 3, 62, 95
5, 242874, Note_off_c, 3, 62, 80
5, 242880, Note_on_c, 3, 62, 95
5, 243114, Note_off_c, 3, 62, 80
5, 243120, Note_on_c, 3, 60, 95
5, 243354, Note_off_c, 3, 60, 80
5, 243360, Note_on_c, 3, 60, 95
5, 243594, Note_off_c, 3, 60, 80
5, 243600, Note_on_c, 3, 62, 95
5, 243834, Note_off_c, 3, 62, 80
5, 245280, Note_on_c, 3, 62, 95
5, 245514, Note_off_c, 3, 62, 80
5, 245520, Note_on_c, 3, 60, 95
5, 245754, Note_off_c, 3, 60, 80
5, 246240, Note_on_c, 3, 60, 95
5, 246474, Note_off_c, 3, 60, 80
5, 246480, Note_on_c, 3, 62, 95
5, 246714, Note_off_c, 3, 62, 80
5, 246720, Note_on_c, 3, 62, 95
5, 246954, Note_off_c, 3, 62, 80
5, 246960, Note_on_c, 3, 60, 95
5, 247194, Note_off_c, 3, 60, 80
5, 247200, Note_on_c, 3, 60, 95
5, 247674, Note_off_c, 3, 60, 80
5, 247680, Note_on_c, 3, 67, 95
5, 247914, Note_off_c, 3, 67, 80
5, 247920, Note_on_c, 3, 66, 95
5, 248034, Note_off_c, 3, 66, 80
5, 248040, Note_on_c, 3, 67, 95
5, 248274, Note_off_c, 3, 67, 80
5, 248280, Note_on_c, 3, 66, 95
5, 248394, Note_off_c, 3, 66, 80
5, 248400, Note_on_c, 3, 62, 95
5, 248874, Note_off_c, 3, 62, 80
5, 248880, Note_on_c, 3, 64, 95
5, 249234, Note_off_c, 3, 64, 80
5, 249240, Note_on_c, 3, 60, 95
5, 249594, Note_off_c, 3, 60, 80
5, 249840, Note_on_c, 3, 60, 95
5, 250074, Note_off_c, 3, 60, 80
5, 250080, Note_on_c, 3, 60, 95
5, 250314, Note_off_c, 3, 60, 80
5, 250320, Note_on_c, 3, 62, 95
5, 250554, Note_off_c, 3, 62, 80
5, 250560, Note_on_c, 3, 62, 95
5, 250794, Note_off_c, 3, 62, 80
5, 250800, Note_on_c, 3, 60, 95
5, 251034, Note_off_c, 3, 60, 80
5, 251040, Note_on_c, 3, 60, 95
5, 251274, Note_off_c, 3, 60, 80
5, 251280, Note_on_c, 3, 62, 95
5, 251514, Note_off_c, 3, 62, 80
5, 252960, Note_on_c, 3, 62, 95
5, 253194, Note_off_c, 3, 62, 80
5, 253200, Note_on_c, 3, 60, 95
5, 253434, Note_off_c, 3, 60, 80
5, 253920, Note_on_c, 3, 60, 95
5, 254154, Note_off_c, 3, 60, 80
5, 254160, Note_on_c, 3, 62, 95
5, 254394, Note_off_c, 3, 62, 80
5, 254400, Note_on_c, 3, 62, 95
5, 254634, Note_off_c, 3, 62, 80
5, 254640, Note_on_c, 3, 60, 95
5, 254874, Note_off_c, 3, 60, 80
5, 254880, Note_on_c, 3, 60, 95
5, 255354, Note_off_c, 3, 60, 80
5, 255360, Note_on_c, 3, 64, 95
5, 255594, Note_off_c, 3, 64, 80
5, 255600, Note_on_c, 3, 66, 95
5, 255714, Note_off_c, 3, 66, 80
5, 255720, Note_on_c, 3, 66, 95
5, 256074, Note_off_c, 3, 66, 80
5, 256080, Note_on_c, 3, 60, 95
5, 256194, Note_off_c, 3, 60, 80
5, 256200, Note_on_c, 3, 60, 95
5, 256554, Note_off_c, 3, 60, 80
5, 256560, Note_on_c, 3, 60, 95
5, 256674, Note_off_c, 3, 60, 80
5, 256680, Note_on_c, 3, 60, 95
5, 256914, Note_off_c, 3, 60, 80
5, 256920, Note_on_c, 3, 62, 95
5, 257034, Note_off_c, 3, 62, 80
5, 257040, Note_on_c, 3, 65, 95
5, 257274, Note_off_c, 3, 65, 80
5, 257520, Note_on_c, 3, 60, 95
5, 257754, Note_off_c, 3, 60, 80
5, 257760, Note_on_c, 3, 60, 95
5, 257994, Note_off_c, 3, 60, 80
5, 258000, Note_on_c, 3, 62, 95
5, 258234, Note_off_c, 3, 62, 80
5, 258240, Note_on_c, 3, 62, 95
5, 258474, Note_off_c, 3, 62, 80
5, 258480, Note_on_c, 3, 60, 95
5, 258714, Note_off_c, 3, 60, 80
5, 258720, Note_on_c, 3, 60, 95
5, 258954, Note_off_c, 3, 60, 80
5, 258960, Note_on_c, 3, 62, 95
5, 259194, Note_off_c, 3, 62, 80
5, 260640, Note_on_c, 3, 62, 95
5, 260874, Note_off_c, 3, 62, 80
5, 260880, Note_on_c, 3, 60, 95
5, 261114, Note_off_c, 3, 60, 80
5, 261600, Note_on_c, 3, 60, 95
5, 261834, Note_off_c, 3, 60, 80
5, 261840, Note_on_c, 3, 62, 95
5, 262074, Note_off_c, 3, 62, 80
5, 262080, Note_on_c, 3, 62, 95
5, 262314, Note_off_c, 3, 62, 80
5, 262320, Note_on_c, 3, 60, 95
5, 262554, Note_off_c, 3, 60, 80
5, 262560, Note_on_c, 3, 60, 95
5, 263034, Note_off_c, 3, 60, 80
5, 263040, Note_on_c, 3, 67, 95
5, 263274, Note_off_c, 3, 67, 80
5, 263280, Note_on_c, 3, 66, 95
5, 263514, Note_off_c, 3, 66, 80
5, 263520, Note_on_c, 3, 62, 95
5, 263754, Note_off_c, 3, 62, 80
5, 263760, Note_on_c, 3, 64, 95
5, 264234, Note_off_c, 3, 64, 80
5, 264240, Note_on_c, 3, 60, 95
5, 264954, Note_off_c, 3, 60, 80
5, 265200, Note_on_c, 3, 60, 95
5, 265434, Note_off_c, 3, 60, 80
5, 265440, Note_on_c, 3, 60, 95
5, 265674, Note_off_c, 3, 60, 80
5, 265680, Note_on_c, 3, 62, 95
5, 265914, Note_off_c, 3, 62, 80
5, 265920, Note_on_c, 3, 62, 95
5, 266154, Note_off_c, 3, 62, 80
5, 266160, Note_on_c, 3, 60, 95
5, 266394, Note_off_c, 3, 60, 80
5, 266400, Note_on_c, 3, 60, 95
5, 266634, Note_off_c, 3, 60, 80
5, 266640, Note_on_c, 3, 62, 95
5, 266874, Note_off_c, 3, 62, 80
5, 268320, Note_on_c, 3, 62, 95
5, 268554, Note_off_c, 3, 62, 80
5, 268560, Note_on_c, 3, 60, 95
5, 268794, Note_off_c, 3, 60, 80
5, 269280, Note_on_c, 3, 60, 95
5, 269514, Note_off_c, 3, 60, 80
5, 269520, Note_on_c, 3, 62, 95
5, 269754, Note_off_c, 3, 62, 80
5, 269760, Note_on_c, 3, 62, 95
5, 269994, Note_off_c, 3, 62, 80
5, 270000, Note_on_c, 3, 60, 95
5, 270234, Note_off_c, 3, 60, 80
5, 270240, Note_on_c, 3, 60, 95
5, 270714, Note_off_c, 3, 60, 80
5, 270714, End_track
6, 0, Start_track
6, 0, Title_t, "Bowie-Backing Vocals"
6, 180, Control_c, 4, 121, 0
6, 180, Control_c, 4, 123, 0
6, 180, Control_c, 4, 100, 0
6, 180, Control_c, 4, 38, 0
6, 180, Control_c, 4, 101, 0
6, 180, Control_c, 4, 6, 12
6, 180, Pitch_bend_c, 4, 8192
6, 234, Program_c, 4, 65
6, 234, Control_c, 4, 7, 50
6, 234, Control_c, 4, 10, 80
6, 240, Note_on_c, 4, 62, 75
6, 354, Note_off_c, 4, 62, 80
6, 360, Note_on_c, 4, 62, 75
6, 474, Note_off_c, 4, 62, 80
6, 480, Note_on_c, 4, 62, 75
6, 714, Note_off_c, 4, 62, 80
6, 720, Note_on_c, 4, 62, 75
6, 954, Note_off_c, 4, 62, 80
6, 960, Note_on_c, 4, 62, 75
6, 1194, Note_off_c, 4, 62, 80
6, 1200, Note_on_c, 4, 57, 75
6, 1434, Note_off_c, 4, 57, 80
6, 1440, Note_on_c, 4, 55, 75
6, 1674, Note_off_c, 4, 55, 80
6, 1680, Note_on_c, 4, 53, 75
6, 1914, Note_off_c, 4, 53, 80
6, 5040, Note_on_c, 4, 59, 75
6, 5274, Note_off_c, 4, 59, 80
6, 5280, Note_on_c, 4, 60, 75
6, 5514, Note_off_c, 4, 60, 80
6, 5520, Note_on_c, 4, 59, 75
6, 5754, Note_off_c, 4, 59, 80
6, 5760, Note_on_c, 4, 60, 75
6, 5994, Note_off_c, 4, 60, 80
6, 6000, Note_on_c, 4, 59, 75
6, 6234, Note_off_c, 4, 59, 80
6, 8880, Note_on_c, 4, 59, 75
6, 9114, Note_off_c, 4, 59, 80
6, 9120, Note_on_c, 4, 60, 75
6, 9354, Note_off_c, 4, 60, 80
6, 9360, Note_on_c, 4, 59, 75
6, 9594, Note_off_c, 4, 59, 80
6, 9600, Note_on_c, 4, 60, 75
6, 9834, Note_off_c, 4, 60, 80
6, 9840, Note_on_c, 4, 58, 75
6, 10074, Note_off_c, 4, 58, 80
6, 12720, Note_on_c, 4, 58, 75
6, 12954, Note_off_c, 4, 58, 80
6, 12960, Note_on_c, 4, 60, 75
6, 13194, Note_off_c, 4, 60, 80
6, 13200, Note_on_c, 4, 59, 75
6, 13434, Note_off_c, 4, 59, 80
6, 13440, Note_on_c, 4, 60, 75
6, 13674, Note_off_c, 4, 60, 80
6, 13680, Note_on_c, 4, 59, 75
6, 13914, Note_off_c, 4, 59, 80
6, 15360, Note_on_c, 4, 67, 75
6, 16794, Note_off_c, 4, 67, 80
6, 16800, Note_on_c, 4, 64, 43
6, 17274, Note_off_c, 4, 64, 80
6, 17520, Note_on_c, 4, 58, 75
6, 17754, Note_off_c, 4, 58, 80
6, 17760, Note_on_c, 4, 58, 75
6, 17994, Note_off_c, 4, 58, 80
6, 18000, Note_on_c, 4, 55, 75
6, 18234, Note_off_c, 4, 55, 80
6, 18240, Note_on_c, 4, 57, 75
6, 18474, Note_off_c, 4, 57, 80
6, 18480, Note_on_c, 4, 54, 75
6, 18714, Note_off_c, 4, 54, 80
6, 18720, Note_on_c, 4, 54, 75
6, 19194, Note_off_c, 4, 54, 80
6, 19440, Note_on_c, 4, 58, 75
6, 19674, Note_off_c, 4, 58, 80
6, 19680, Note_on_c, 4, 58, 75
6, 19914, Note_off_c, 4, 58, 80
6, 19920, Note_on_c, 4, 55, 75
6, 20154, Note_off_c, 4, 55, 80
6, 20160, Note_on_c, 4, 59, 75
6, 20394, Note_off_c, 4, 59, 80
6, 20400, Note_on_c, 4, 52, 75
6, 20634, Note_off_c, 4, 52, 80
6, 20640, Note_on_c, 4, 52, 75
6, 20874, Note_off_c, 4, 52, 80
6, 20880, Note_on_c, 4, 52, 75
6, 21114, Note_off_c, 4, 52, 80
6, 21360, Note_on_c, 4, 58, 75
6, 21594, Note_off_c, 4, 58, 80
6, 21600, Note_on_c, 4, 58, 75
6, 21834, Note_off_c, 4, 58, 80
6, 21840, Note_on_c, 4, 52, 75
6, 22074, Note_off_c, 4, 52, 80
6, 22080, Note_on_c, 4, 57, 75
6, 22314, Note_off_c, 4, 57, 80
6, 22320, Note_on_c, 4, 52, 75
6, 22554, Note_off_c, 4, 52, 80
6, 22560, Note_on_c, 4, 52, 75
6, 22794, Note_off_c, 4, 52, 80
6, 22800, Note_on_c, 4, 50, 75
6, 23034, Note_off_c, 4, 50, 80
6, 23040, Note_on_c, 4, 59, 75
6, 23154, Note_off_c, 4, 59, 80
6, 23160, Note_on_c, 4, 59, 75
6, 23274, Note_off_c, 4, 59, 80
6, 23280, Note_on_c, 4, 60, 75
6, 23514, Note_off_c, 4, 60, 80
6, 23520, Note_on_c, 4, 61, 75
6, 23754, Note_off_c, 4, 61, 80
6, 23760, Note_on_c, 4, 62, 75
6, 23994, Note_off_c, 4, 62, 80
6, 24000, Note_on_c, 4, 59, 75
6, 24474, Note_off_c, 4, 59, 80
6, 25200, Note_on_c, 4, 58, 75
6, 25434, Note_off_c, 4, 58, 80
6, 25440, Note_on_c, 4, 58, 75
6, 25674, Note_off_c, 4, 58, 80
6, 25680, Note_on_c, 4, 55, 75
6, 25914, Note_off_c, 4, 55, 80
6, 25920, Note_on_c, 4, 57, 75
6, 26154, Note_off_c, 4, 57, 80
6, 26160, Note_on_c, 4, 52, 75
6, 26394, Note_off_c, 4, 52, 80
6, 26400, Note_on_c, 4, 52, 75
6, 26634, Note_off_c, 4, 52, 80
6, 26640, Note_on_c, 4, 52, 75
6, 26874, Note_off_c, 4, 52, 80
6, 27120, Note_on_c, 4, 59, 75
6, 27354, Note_off_c, 4, 59, 80
6, 27360, Note_on_c, 4, 59, 75
6, 27594, Note_off_c, 4, 59, 80
6, 27600, Note_on_c, 4, 59, 75
6, 27834, Note_off_c, 4, 59, 80
6, 27840, Note_on_c, 4, 55, 75
6, 28074, Note_off_c, 4, 55, 80
6, 28080, Note_on_c, 4, 55, 75
6, 28554, Note_off_c, 4, 55, 80
6, 29040, Note_on_c, 4, 58, 75
6, 29274, Note_off_c, 4, 58, 80
6, 29280, Note_on_c, 4, 58, 75
6, 29514, Note_off_c, 4, 58, 80
6, 29520, Note_on_c, 4, 55, 75
6, 29754, Note_off_c, 4, 55, 80
6, 29760, Note_on_c, 4, 58, 75
6, 29994, Note_off_c, 4, 58, 80
6, 30000, Note_on_c, 4, 55, 75
6, 30234, Note_off_c, 4, 55, 80
6, 30240, Note_on_c, 4, 55, 75
6, 30474, Note_off_c, 4, 55, 80
6, 30480, Note_on_c, 4, 55, 75
6, 30714, Note_off_c, 4, 55, 80
6, 30720, Note_on_c, 4, 58, 75
6, 30954, Note_off_c, 4, 58, 80
6, 30960, Note_on_c, 4, 58, 75
6, 31194, Note_off_c, 4, 58, 80
6, 31200, Note_on_c, 4, 58, 75
6, 31434, Note_off_c, 4, 58, 80
6, 31440, Note_on_c, 4, 60, 75
6, 31674, Note_off_c, 4, 60, 80
6, 31680, Note_on_c, 4, 55, 75
6, 32154, Note_off_c, 4, 55, 80
6, 32880, Note_on_c, 4, 58, 75
6, 33114, Note_off_c, 4, 58, 80
6, 33120, Note_on_c, 4, 58, 75
6, 33354, Note_off_c, 4, 58, 80
6, 33360, Note_on_c, 4, 57, 75
6, 33594, Note_off_c, 4, 57, 80
6, 33600, Note_on_c, 4, 55, 75
6, 33834, Note_off_c, 4, 55, 80
6, 33840, Note_on_c, 4, 55, 75
6, 34074, Note_off_c, 4, 55, 80
6, 34080, Note_on_c, 4, 55, 75
6, 34314, Note_off_c, 4, 55, 80
6, 34320, Note_on_c, 4, 53, 75
6, 34554, Note_off_c, 4, 53, 80
6, 34800, Note_on_c, 4, 58, 75
6, 35034, Note_off_c, 4, 58, 80
6, 35040, Note_on_c, 4, 57, 75
6, 35274, Note_off_c, 4, 57, 80
6, 35280, Note_on_c, 4, 55, 75
6, 35514, Note_off_c, 4, 55, 80
6, 35520, Note_on_c, 4, 59, 75
6, 35754, Note_off_c, 4, 59, 80
6, 35760, Note_on_c, 4, 52, 75
6, 35994, Note_off_c, 4, 52, 80
6, 36000, Note_on_c, 4, 52, 75
6, 36474, Note_off_c, 4, 52, 80
6, 36720, Note_on_c, 4, 58, 75
6, 36954, Note_off_c, 4, 58, 80
6, 36960, Note_on_c, 4, 57, 75
6, 37194, Note_off_c, 4, 57, 80
6, 37200, Note_on_c, 4, 55, 75
6, 37434, Note_off_c, 4, 55, 80
6, 37440, Note_on_c, 4, 59, 75
6, 37674, Note_off_c, 4, 59, 80
6, 37680, Note_on_c, 4, 52, 75
6, 37914, Note_off_c, 4, 52, 80
6, 37920, Note_on_c, 4, 52, 75
6, 38154, Note_off_c, 4, 52, 80
6, 38160, Note_on_c, 4, 50, 75
6, 38394, Note_off_c, 4, 50, 80
6, 38400, Note_on_c, 4, 52, 75
6, 38634, Note_off_c, 4, 52, 80
6, 38640, Note_on_c, 4, 55, 75
6, 38874, Note_off_c, 4, 55, 80
6, 38880, Note_on_c, 4, 57, 75
6, 39114, Note_off_c, 4, 57, 80
6, 39120, Note_on_c, 4, 55, 75
6, 39354, Note_off_c, 4, 55, 80
6, 39360, Note_on_c, 4, 59, 75
6, 39594, Note_off_c, 4, 59, 80
6, 39600, Note_on_c, 4, 52, 75
6, 39834, Note_off_c, 4, 52, 80
6, 39840, Note_on_c, 4, 52, 75
6, 40314, Note_off_c, 4, 52, 80
6, 40560, Note_on_c, 4, 58, 75
6, 40794, Note_off_c, 4, 58, 80
6, 40800, Note_on_c, 4, 57, 75
6, 41034, Note_off_c, 4, 57, 80
6, 41040, Note_on_c, 4, 55, 75
6, 41274, Note_off_c, 4, 55, 80
6, 41280, Note_on_c, 4, 59, 75
6, 41514, Note_off_c, 4, 59, 80
6, 41520, Note_on_c, 4, 52, 75
6, 41754, Note_off_c, 4, 52, 80
6, 41760, Note_on_c, 4, 52, 75
6, 41994, Note_off_c, 4, 52, 80
6, 42000, Note_on_c, 4, 52, 75
6, 42234, Note_off_c, 4, 52, 80
6, 42480, Note_on_c, 4, 58, 75
6, 42714, Note_off_c, 4, 58, 80
6, 42720, Note_on_c, 4, 57, 75
6, 42954, Note_off_c, 4, 57, 80
6, 42960, Note_on_c, 4, 55, 75
6, 43194, Note_off_c, 4, 55, 80
6, 43200, Note_on_c, 4, 59, 75
6, 43434, Note_off_c, 4, 59, 80
6, 43440, Note_on_c, 4, 52, 75
6, 43674, Note_off_c, 4, 52, 80
6, 44400, Note_on_c, 4, 58, 75
6, 44634, Note_off_c, 4, 58, 80
6, 44640, Note_on_c, 4, 57, 75
6, 44874, Note_off_c, 4, 57, 80
6, 44880, Note_on_c, 4, 55, 75
6, 45114, Note_off_c, 4, 55, 80
6, 45120, Note_on_c, 4, 59, 75
6, 45354, Note_off_c, 4, 59, 80
6, 45360, Note_on_c, 4, 59, 75
6, 45594, Note_off_c, 4, 59, 80
6, 45600, Note_on_c, 4, 59, 75
6, 45834, Note_off_c, 4, 59, 80
6, 45840, Note_on_c, 4, 55, 75
6, 46074, Note_off_c, 4, 55, 80
6, 46080, Note_on_c, 4, 58, 75
6, 46314, Note_off_c, 4, 58, 80
6, 46320, Note_on_c, 4, 58, 75
6, 46554, Note_off_c, 4, 58, 80
6, 46560, Note_on_c, 4, 58, 75
6, 46794, Note_off_c, 4, 58, 80
6, 46800, Note_on_c, 4, 60, 75
6, 47034, Note_off_c, 4, 60, 80
6, 47040, Note_on_c, 4, 55, 75
6, 47514, Note_off_c, 4, 55, 80
6, 48240, Note_on_c, 4, 63, 75
6, 48474, Note_off_c, 4, 63, 80
6, 48480, Note_on_c, 4, 63, 75
6, 48714, Note_off_c, 4, 63, 80
6, 48720, Note_on_c, 4, 63, 75
6, 48954, Note_off_c, 4, 63, 80
6, 48960, Note_on_c, 4, 65, 75
6, 49194, Note_off_c, 4, 65, 80
6, 49200, Note_on_c, 4, 63, 75
6, 49434, Note_off_c, 4, 63, 80
6, 49440, Note_on_c, 4, 63, 75
6, 49674, Note_off_c, 4, 63, 80
6, 49680, Note_on_c, 4, 62, 75
6, 49914, Note_off_c, 4, 62, 80
6, 49920, Note_on_c, 4, 62, 75
6, 50154, Note_off_c, 4, 62, 80
6, 50160, Note_on_c, 4, 62, 75
6, 50394, Note_off_c, 4, 62, 80
6, 50400, Note_on_c, 4, 62, 75
6, 50634, Note_off_c, 4, 62, 80
6, 50640, Note_on_c, 4, 64, 75
6, 50874, Note_off_c, 4, 64, 80
6, 50880, Note_on_c, 4, 62, 75
6, 51354, Note_off_c, 4, 62, 80
6, 52080, Note_on_c, 4, 58, 75
6, 52314, Note_off_c, 4, 58, 80
6, 52320, Note_on_c, 4, 58, 75
6, 52554, Note_off_c, 4, 58, 80
6, 52560, Note_on_c, 4, 57, 75
6, 52794, Note_off_c, 4, 57, 80
6, 52800, Note_on_c, 4, 55, 75
6, 53034, Note_off_c, 4, 55, 80
6, 53040, Note_on_c, 4, 55, 75
6, 53274, Note_off_c, 4, 55, 80
6, 53280, Note_on_c, 4, 55, 75
6, 53514, Note_off_c, 4, 55, 80
6, 53520, Note_on_c, 4, 53, 75
6, 53754, Note_off_c, 4, 53, 80
6, 54000, Note_on_c, 4, 58, 75
6, 54234, Note_off_c, 4, 58, 80
6, 54240, Note_on_c, 4, 57, 75
6, 54474, Note_off_c, 4, 57, 80
6, 54480, Note_on_c, 4, 55, 75
6, 54714, Note_off_c, 4, 55, 80
6, 54720, Note_on_c, 4, 59, 75
6, 54954, Note_off_c, 4, 59, 80
6, 54960, Note_on_c, 4, 52, 75
6, 55194, Note_off_c, 4, 52, 80
6, 55200, Note_on_c, 4, 52, 75
6, 55674, Note_off_c, 4, 52, 80
6, 55920, Note_on_c, 4, 58, 75
6, 56154, Note_off_c, 4, 58, 80
6, 56160, Note_on_c, 4, 57, 75
6, 56394, Note_off_c, 4, 57, 80
6, 56400, Note_on_c, 4, 55, 75
6, 56634, Note_off_c, 4, 55, 80
6, 56640, Note_on_c, 4, 59, 75
6, 56874, Note_off_c, 4, 59, 80
6, 56880, Note_on_c, 4, 52, 75
6, 57114, Note_off_c, 4, 52, 80
6, 57120, Note_on_c, 4, 52, 75
6, 57354, Note_off_c, 4, 52, 80
6, 57360, Note_on_c, 4, 50, 75
6, 57594, Note_off_c, 4, 50, 80
6, 57600, Note_on_c, 4, 52, 75
6, 57834, Note_off_c, 4, 52, 80
6, 57840, Note_on_c, 4, 55, 75
6, 58074, Note_off_c, 4, 55, 80
6, 58080, Note_on_c, 4, 57, 75
6, 58314, Note_off_c, 4, 57, 80
6, 58320, Note_on_c, 4, 55, 75
6, 58554, Note_off_c, 4, 55, 80
6, 58560, Note_on_c, 4, 59, 75
6, 58794, Note_off_c, 4, 59, 80
6, 58800, Note_on_c, 4, 52, 75
6, 59034, Note_off_c, 4, 52, 80
6, 59040, Note_on_c, 4, 52, 75
6, 59514, Note_off_c, 4, 52, 80
6, 59760, Note_on_c, 4, 58, 75
6, 59994, Note_off_c, 4, 58, 80
6, 60000, Note_on_c, 4, 57, 75
6, 60234, Note_off_c, 4, 57, 80
6, 60240, Note_on_c, 4, 55, 75
6, 60474, Note_off_c, 4, 55, 80
6, 60480, Note_on_c, 4, 59, 75
6, 60714, Note_off_c, 4, 59, 80
6, 60720, Note_on_c, 4, 52, 75
6, 60954, Note_off_c, 4, 52, 80
6, 60960, Note_on_c, 4, 52, 75
6, 61194, Note_off_c, 4, 52, 80
6, 61200, Note_on_c, 4, 52, 75
6, 61434, Note_off_c, 4, 52, 80
6, 61680, Note_on_c, 4, 58, 75
6, 61914, Note_off_c, 4, 58, 80
6, 61920, Note_on_c, 4, 57, 75
6, 62154, Note_off_c, 4, 57, 80
6, 62160, Note_on_c, 4, 55, 75
6, 62394, Note_off_c, 4, 55, 80
6, 62400, Note_on_c, 4, 59, 75
6, 62634, Note_off_c, 4, 59, 80
6, 62640, Note_on_c, 4, 52, 75
6, 62874, Note_off_c, 4, 52, 80
6, 63600, Note_on_c, 4, 58, 75
6, 63834, Note_off_c, 4, 58, 80
6, 63840, Note_on_c, 4, 57, 75
6, 64074, Note_off_c, 4, 57, 80
6, 64080, Note_on_c, 4, 55, 75
6, 64314, Note_off_c, 4, 55, 80
6, 64320, Note_on_c, 4, 59, 75
6, 64554, Note_off_c, 4, 59, 80
6, 64560, Note_on_c, 4, 59, 75
6, 64794, Note_off_c, 4, 59, 80
6, 64800, Note_on_c, 4, 59, 75
6, 65034, Note_off_c, 4, 59, 80
6, 65040, Note_on_c, 4, 55, 75
6, 65274, Note_off_c, 4, 55, 80
6, 65280, Note_on_c, 4, 58, 75
6, 65514, Note_off_c, 4, 58, 80
6, 65520, Note_on_c, 4, 58, 75
6, 65754, Note_off_c, 4, 58, 80
6, 65760, Note_on_c, 4, 58, 75
6, 65994, Note_off_c, 4, 58, 80
6, 66000, Note_on_c, 4, 60, 75
6, 66234, Note_off_c, 4, 60, 80
6, 66240, Note_on_c, 4, 55, 75
6, 66714, Note_off_c, 4, 55, 80
6, 67440, Note_on_c, 4, 63, 75
6, 67674, Note_off_c, 4, 63, 80
6, 67680, Note_on_c, 4, 63, 75
6, 67914, Note_off_c, 4, 63, 80
6, 67920, Note_on_c, 4, 63, 75
6, 68154, Note_off_c, 4, 63, 80
6, 68160, Note_on_c, 4, 65, 75
6, 68394, Note_off_c, 4, 65, 80
6, 68400, Note_on_c, 4, 63, 75
6, 68634, Note_off_c, 4, 63, 80
6, 68640, Note_on_c, 4, 63, 75
6, 68874, Note_off_c, 4, 63, 80
6, 68880, Note_on_c, 4, 62, 75
6, 69114, Note_off_c, 4, 62, 80
6, 69120, Note_on_c, 4, 62, 75
6, 69354, Note_off_c, 4, 62, 80
6, 69360, Note_on_c, 4, 62, 75
6, 69594, Note_off_c, 4, 62, 80
6, 69600, Note_on_c, 4, 62, 75
6, 69834, Note_off_c, 4, 62, 80
6, 69840, Note_on_c, 4, 64, 75
6, 70074, Note_off_c, 4, 64, 80
6, 70080, Note_on_c, 4, 62, 75
6, 70554, Note_off_c, 4, 62, 80
6, 71280, Note_on_c, 4, 58, 75
6, 71514, Note_off_c, 4, 58, 80
6, 71520, Note_on_c, 4, 58, 75
6, 71754, Note_off_c, 4, 58, 80
6, 71760, Note_on_c, 4, 57, 75
6, 71994, Note_off_c, 4, 57, 80
6, 72000, Note_on_c, 4, 55, 75
6, 72234, Note_off_c, 4, 55, 80
6, 72240, Note_on_c, 4, 55, 75
6, 72474, Note_off_c, 4, 55, 80
6, 72480, Note_on_c, 4, 55, 75
6, 72714, Note_off_c, 4, 55, 80
6, 72720, Note_on_c, 4, 53, 75
6, 72954, Note_off_c, 4, 53, 80
6, 73200, Note_on_c, 4, 58, 75
6, 73434, Note_off_c, 4, 58, 80
6, 73440, Note_on_c, 4, 57, 75
6, 73674, Note_off_c, 4, 57, 80
6, 73680, Note_on_c, 4, 55, 75
6, 73914, Note_off_c, 4, 55, 80
6, 73920, Note_on_c, 4, 59, 75
6, 74154, Note_off_c, 4, 59, 80
6, 74160, Note_on_c, 4, 52, 75
6, 74394, Note_off_c, 4, 52, 80
6, 74400, Note_on_c, 4, 52, 75
6, 74874, Note_off_c, 4, 52, 80
6, 75120, Note_on_c, 4, 58, 75
6, 75354, Note_off_c, 4, 58, 80
6, 75360, Note_on_c, 4, 57, 75
6, 75594, Note_off_c, 4, 57, 80
6, 75600, Note_on_c, 4, 55, 75
6, 75834, Note_off_c, 4, 55, 80
6, 75840, Note_on_c, 4, 59, 75
6, 76074, Note_off_c, 4, 59, 80
6, 76080, Note_on_c, 4, 52, 75
6, 76314, Note_off_c, 4, 52, 80
6, 76320, Note_on_c, 4, 52, 75
6, 76554, Note_off_c, 4, 52, 80
6, 76560, Note_on_c, 4, 50, 75
6, 76794, Note_off_c, 4, 50, 80
6, 76800, Note_on_c, 4, 52, 75
6, 77034, Note_off_c, 4, 52, 80
6, 77040, Note_on_c, 4, 55, 75
6, 77274, Note_off_c, 4, 55, 80
6, 77280, Note_on_c, 4, 57, 75
6, 77514, Note_off_c, 4, 57, 80
6, 77520, Note_on_c, 4, 55, 75
6, 77754, Note_off_c, 4, 55, 80
6, 77760, Note_on_c, 4, 59, 75
6, 77994, Note_off_c, 4, 59, 80
6, 78000, Note_on_c, 4, 52, 75
6, 78234, Note_off_c, 4, 52, 80
6, 78240, Note_on_c, 4, 52, 75
6, 78714, Note_off_c, 4, 52, 80
6, 78960, Note_on_c, 4, 58, 75
6, 79194, Note_off_c, 4, 58, 80
6, 79200, Note_on_c, 4, 57, 75
6, 79434, Note_off_c, 4, 57, 80
6, 79440, Note_on_c, 4, 55, 75
6, 79674, Note_off_c, 4, 55, 80
6, 79680, Note_on_c, 4, 59, 75
6, 79914, Note_off_c, 4, 59, 80
6, 79920, Note_on_c, 4, 52, 75
6, 80154, Note_off_c, 4, 52, 80
6, 80160, Note_on_c, 4, 52, 75
6, 80394, Note_off_c, 4, 52, 80
6, 80400, Note_on_c, 4, 52, 75
6, 80634, Note_off_c, 4, 52, 80
6, 80880, Note_on_c, 4, 58, 75
6, 81114, Note_off_c, 4, 58, 80
6, 81120, Note_on_c, 4, 57, 75
6, 81354, Note_off_c, 4, 57, 80
6, 81360, Note_on_c, 4, 55, 75
6, 81594, Note_off_c, 4, 55, 80
6, 81600, Note_on_c, 4, 59, 75
6, 81834, Note_off_c, 4, 59, 80
6, 81840, Note_on_c, 4, 52, 75
6, 82074, Note_off_c, 4, 52, 80
6, 82800, Note_on_c, 4, 58, 75
6, 83034, Note_off_c, 4, 58, 80
6, 83040, Note_on_c, 4, 57, 75
6, 83274, Note_off_c, 4, 57, 80
6, 83280, Note_on_c, 4, 55, 75
6, 83514, Note_off_c, 4, 55, 80
6, 83520, Note_on_c, 4, 59, 75
6, 83754, Note_off_c, 4, 59, 80
6, 83760, Note_on_c, 4, 59, 75
6, 83994, Note_off_c, 4, 59, 80
6, 84000, Note_on_c, 4, 59, 75
6, 84234, Note_off_c, 4, 59, 80
6, 84240, Note_on_c, 4, 55, 75
6, 84474, Note_off_c, 4, 55, 80
6, 84480, Note_on_c, 4, 58, 75
6, 84714, Note_off_c, 4, 58, 80
6, 84720, Note_on_c, 4, 58, 75
6, 84954, Note_off_c, 4, 58, 80
6, 84960, Note_on_c, 4, 58, 75
6, 85194, Note_off_c, 4, 58, 80
6, 85200, Note_on_c, 4, 60, 75
6, 85434, Note_off_c, 4, 60, 80
6, 85440, Note_on_c, 4, 55, 75
6, 85914, Note_off_c, 4, 55, 80
6, 86640, Note_on_c, 4, 63, 75
6, 86874, Note_off_c, 4, 63, 80
6, 86880, Note_on_c, 4, 63, 75
6, 87114, Note_off_c, 4, 63, 80
6, 87120, Note_on_c, 4, 63, 75
6, 87354, Note_off_c, 4, 63, 80
6, 87360, Note_on_c, 4, 65, 75
6, 87594, Note_off_c, 4, 65, 80
6, 87600, Note_on_c, 4, 63, 75
6, 87834, Note_off_c, 4, 63, 80
6, 87840, Note_on_c, 4, 63, 75
6, 88074, Note_off_c, 4, 63, 80
6, 88080, Note_on_c, 4, 62, 75
6, 88314, Note_off_c, 4, 62, 80
6, 88320, Note_on_c, 4, 62, 75
6, 88554, Note_off_c, 4, 62, 80
6, 88560, Note_on_c, 4, 62, 75
6, 88794, Note_off_c, 4, 62, 80
6, 88800, Note_on_c, 4, 62, 75
6, 89034, Note_off_c, 4, 62, 80
6, 89040, Note_on_c, 4, 64, 75
6, 89274, Note_off_c, 4, 64, 80
6, 89280, Note_on_c, 4, 62, 75
6, 89754, Note_off_c, 4, 62, 80
6, 90240, Note_on_c, 4, 58, 75
6, 91194, Note_off_c, 4, 58, 80
6, 91200, Note_on_c, 4, 57, 75
6, 91434, Note_off_c, 4, 57, 80
6, 91440, Note_on_c, 4, 55, 75
6, 91674, Note_off_c, 4, 55, 80
6, 94080, Note_on_c, 4, 58, 75
6, 95034, Note_off_c, 4, 58, 80
6, 95040, Note_on_c, 4, 57, 75
6, 95274, Note_off_c, 4, 57, 80
6, 95280, Note_on_c, 4, 55, 75
6, 95514, Note_off_c, 4, 55, 80
6, 97920, Note_on_c, 4, 59, 75
6, 98874, Note_off_c, 4, 59, 80
6, 98880, Note_on_c, 4, 57, 75
6, 99114, Note_off_c, 4, 57, 80
6, 99120, Note_on_c, 4, 56, 75
6, 99354, Note_off_c, 4, 56, 80
6, 101760, Note_on_c, 4, 59, 75
6, 102714, Note_off_c, 4, 59, 80
6, 102720, Note_on_c, 4, 57, 75
6, 102954, Note_off_c, 4, 57, 80
6, 102960, Note_on_c, 4, 56, 75
6, 103194, Note_off_c, 4, 56, 80
6, 105840, Note_on_c, 4, 55, 75
6, 106074, Note_off_c, 4, 55, 80
6, 106080, Note_on_c, 4, 55, 75
6, 106314, Note_off_c, 4, 55, 80
6, 106320, Note_on_c, 4, 57, 75
6, 106554, Note_off_c, 4, 57, 80
6, 106560, Note_on_c, 4, 57, 75
6, 106794, Note_off_c, 4, 57, 80
6, 106800, Note_on_c, 4, 55, 75
6, 107034, Note_off_c, 4, 55, 80
6, 107040, Note_on_c, 4, 55, 75
6, 107274, Note_off_c, 4, 55, 80
6, 107280, Note_on_c, 4, 57, 75
6, 107514, Note_off_c, 4, 57, 80
6, 108960, Note_on_c, 4, 57, 75
6, 109194, Note_off_c, 4, 57, 80
6, 109200, Note_on_c, 4, 55, 75
6, 109434, Note_off_c, 4, 55, 80
6, 109920, Note_on_c, 4, 55, 75
6, 110154, Note_off_c, 4, 55, 80
6, 110160, Note_on_c, 4, 57, 75
6, 110394, Note_off_c, 4, 57, 80
6, 110400, Note_on_c, 4, 57, 75
6, 110634, Note_off_c, 4, 57, 80
6, 110640, Note_on_c, 4, 55, 75
6, 110874, Note_off_c, 4, 55, 80
6, 110880, Note_on_c, 4, 55, 75
6, 111354, Note_off_c, 4, 55, 80
6, 111360, Note_on_c, 4, 62, 75
6, 111594, Note_off_c, 4, 62, 80
6, 111600, Note_on_c, 4, 61, 75
6, 111714, Note_off_c, 4, 61, 80
6, 111720, Note_on_c, 4, 62, 75
6, 111954, Note_off_c, 4, 62, 80
6, 111960, Note_on_c, 4, 61, 75
6, 112074, Note_off_c, 4, 61, 80
6, 112080, Note_on_c, 4, 57, 75
6, 112554, Note_off_c, 4, 57, 80
6, 112560, Note_on_c, 4, 59, 75
6, 112914, Note_off_c, 4, 59, 80
6, 112920, Note_on_c, 4, 55, 75
6, 113274, Note_off_c, 4, 55, 80
6, 113520, Note_on_c, 4, 55, 75
6, 113754, Note_off_c, 4, 55, 80
6, 113760, Note_on_c, 4, 55, 75
6, 113994, Note_off_c, 4, 55, 80
6, 114000, Note_on_c, 4, 57, 75
6, 114234, Note_off_c, 4, 57, 80
6, 114240, Note_on_c, 4, 57, 75
6, 114474, Note_off_c, 4, 57, 80
6, 114480, Note_on_c, 4, 55, 75
6, 114714, Note_off_c, 4, 55, 80
6, 114720, Note_on_c, 4, 55, 75
6, 114954, Note_off_c, 4, 55, 80
6, 114960, Note_on_c, 4, 57, 75
6, 115194, Note_off_c, 4, 57, 80
6, 116640, Note_on_c, 4, 57, 75
6, 116874, Note_off_c, 4, 57, 80
6, 116880, Note_on_c, 4, 55, 75
6, 117114, Note_off_c, 4, 55, 80
6, 117600, Note_on_c, 4, 55, 75
6, 117834, Note_off_c, 4, 55, 80
6, 117840, Note_on_c, 4, 57, 75
6, 118074, Note_off_c, 4, 57, 80
6, 118080, Note_on_c, 4, 57, 75
6, 118314, Note_off_c, 4, 57, 80
6, 118320, Note_on_c, 4, 55, 75
6, 118554, Note_off_c, 4, 55, 80
6, 118560, Note_on_c, 4, 55, 75
6, 119034, Note_off_c, 4, 55, 80
6, 119040, Note_on_c, 4, 59, 75
6, 119274, Note_off_c, 4, 59, 80
6, 119280, Note_on_c, 4, 61, 75
6, 119394, Note_off_c, 4, 61, 80
6, 119400, Note_on_c, 4, 61, 75
6, 119754, Note_off_c, 4, 61, 80
6, 119760, Note_on_c, 4, 55, 75
6, 119874, Note_off_c, 4, 55, 80
6, 119880, Note_on_c, 4, 55, 75
6, 120234, Note_off_c, 4, 55, 80
6, 120240, Note_on_c, 4, 55, 75
6, 120354, Note_off_c, 4, 55, 80
6, 120360, Note_on_c, 4, 55, 75
6, 120594, Note_off_c, 4, 55, 80
6, 120600, Note_on_c, 4, 57, 75
6, 120714, Note_off_c, 4, 57, 80
6, 120720, Note_on_c, 4, 60, 75
6, 120954, Note_off_c, 4, 60, 80
6, 121200, Note_on_c, 4, 55, 75
6, 121434, Note_off_c, 4, 55, 80
6, 121440, Note_on_c, 4, 55, 75
6, 121674, Note_off_c, 4, 55, 80
6, 121680, Note_on_c, 4, 57, 75
6, 121914, Note_off_c, 4, 57, 80
6, 121920, Note_on_c, 4, 57, 75
6, 122154, Note_off_c, 4, 57, 80
6, 122160, Note_on_c, 4, 55, 75
6, 122394, Note_off_c, 4, 55, 80
6, 122400, Note_on_c, 4, 55, 75
6, 122634, Note_off_c, 4, 55, 80
6, 122640, Note_on_c, 4, 57, 75
6, 122874, Note_off_c, 4, 57, 80
6, 124320, Note_on_c, 4, 57, 75
6, 124554, Note_off_c, 4, 57, 80
6, 124560, Note_on_c, 4, 55, 75
6, 124794, Note_off_c, 4, 55, 80
6, 125280, Note_on_c, 4, 55, 75
6, 125514, Note_off_c, 4, 55, 80
6, 125520, Note_on_c, 4, 57, 75
6, 125754, Note_off_c, 4, 57, 80
6, 125760, Note_on_c, 4, 57, 75
6, 125994, Note_off_c, 4, 57, 80
6, 126000, Note_on_c, 4, 55, 75
6, 126234, Note_off_c, 4, 55, 80
6, 126240, Note_on_c, 4, 55, 75
6, 126714, Note_off_c, 4, 55, 80
6, 126720, Note_on_c, 4, 62, 75
6, 126954, Note_off_c, 4, 62, 80
6, 126960, Note_on_c, 4, 61, 75
6, 127194, Note_off_c, 4, 61, 80
6, 127200, Note_on_c, 4, 57, 75
6, 127434, Note_off_c, 4, 57, 80
6, 127440, Note_on_c, 4, 59, 75
6, 127914, Note_off_c, 4, 59, 80
6, 127920, Note_on_c, 4, 55, 75
6, 128634, Note_off_c, 4, 55, 80
6, 128880, Note_on_c, 4, 55, 75
6, 129114, Note_off_c, 4, 55, 80
6, 129120, Note_on_c, 4, 55, 75
6, 129354, Note_off_c, 4, 55, 80
6, 129360, Note_on_c, 4, 57, 75
6, 129594, Note_off_c, 4, 57, 80
6, 129600, Note_on_c, 4, 57, 75
6, 129834, Note_off_c, 4, 57, 80
6, 129840, Note_on_c, 4, 55, 75
6, 130074, Note_off_c, 4, 55, 80
6, 130080, Note_on_c, 4, 55, 75
6, 130314, Note_off_c, 4, 55, 80
6, 130320, Note_on_c, 4, 57, 75
6, 130554, Note_off_c, 4, 57, 80
6, 132000, Note_on_c, 4, 57, 75
6, 132234, Note_off_c, 4, 57, 80
6, 132240, Note_on_c, 4, 55, 75
6, 132474, Note_off_c, 4, 55, 80
6, 132960, Note_on_c, 4, 55, 75
6, 133194, Note_off_c, 4, 55, 80
6, 133200, Note_on_c, 4, 57, 75
6, 133434, Note_off_c, 4, 57, 80
6, 133440, Note_on_c, 4, 57, 75
6, 133674, Note_off_c, 4, 57, 80
6, 133680, Note_on_c, 4, 55, 75
6, 133914, Note_off_c, 4, 55, 80
6, 133920, Note_on_c, 4, 55, 75
6, 134394, Note_off_c, 4, 55, 80
6, 136560, Note_on_c, 4, 62, 75
6, 136674, Note_off_c, 4, 62, 80
6, 136680, Note_on_c, 4, 62, 75
6, 136794, Note_off_c, 4, 62, 80
6, 136800, Note_on_c, 4, 62, 75
6, 137034, Note_off_c, 4, 62, 80
6, 137040, Note_on_c, 4, 62, 75
6, 137274, Note_off_c, 4, 62, 80
6, 137280, Note_on_c, 4, 62, 75
6, 137514, Note_off_c, 4, 62, 80
6, 137520, Note_on_c, 4, 57, 75
6, 137754, Note_off_c, 4, 57, 80
6, 137760, Note_on_c, 4, 55, 75
6, 137994, Note_off_c, 4, 55, 80
6, 138000, Note_on_c, 4, 53, 75
6, 138234, Note_off_c, 4, 53, 80
6, 141360, Note_on_c, 4, 59, 75
6, 141594, Note_off_c, 4, 59, 80
6, 141600, Note_on_c, 4, 60, 75
6, 141834, Note_off_c, 4, 60, 80
6, 141840, Note_on_c, 4, 59, 75
6, 142074, Note_off_c, 4, 59, 80
6, 142080, Note_on_c, 4, 60, 75
6, 142314, Note_off_c, 4, 60, 80
6, 142320, Note_on_c, 4, 59, 75
6, 142554, Note_off_c, 4, 59, 80
6, 145200, Note_on_c, 4, 59, 75
6, 145434, Note_off_c, 4, 59, 80
6, 145440, Note_on_c, 4, 60, 75
6, 145674, Note_off_c, 4, 60, 80
6, 145680, Note_on_c, 4, 59, 75
6, 145914, Note_off_c, 4, 59, 80
6, 145920, Note_on_c, 4, 60, 75
6, 146154, Note_off_c, 4, 60, 80
6, 146160, Note_on_c, 4, 58, 75
6, 146394, Note_off_c, 4, 58, 80
6, 149040, Note_on_c, 4, 58, 75
6, 149274, Note_off_c, 4, 58, 80
6, 149280, Note_on_c, 4, 60, 75
6, 149514, Note_off_c, 4, 60, 80
6, 149520, Note_on_c, 4, 59, 75
6, 149754, Note_off_c, 4, 59, 80
6, 149760, Note_on_c, 4, 60, 75
6, 149994, Note_off_c, 4, 60, 80
6, 150000, Note_on_c, 4, 59, 75
6, 150234, Note_off_c, 4, 59, 80
6, 151680, Note_on_c, 4, 67, 75
6, 153114, Note_off_c, 4, 67, 80
6, 153120, Note_on_c, 4, 64, 43
6, 153594, Note_off_c, 4, 64, 80
6, 153840, Note_on_c, 4, 58, 75
6, 154074, Note_off_c, 4, 58, 80
6, 154080, Note_on_c, 4, 58, 75
6, 154314, Note_off_c, 4, 58, 80
6, 154320, Note_on_c, 4, 55, 75
6, 154554, Note_off_c, 4, 55, 80
6, 154560, Note_on_c, 4, 57, 75
6, 154794, Note_off_c, 4, 57, 80
6, 154800, Note_on_c, 4, 54, 75
6, 155034, Note_off_c, 4, 54, 80
6, 155040, Note_on_c, 4, 54, 75
6, 155514, Note_off_c, 4, 54, 80
6, 155760, Note_on_c, 4, 58, 75
6, 155994, Note_off_c, 4, 58, 80
6, 156000, Note_on_c, 4, 58, 75
6, 156234, Note_off_c, 4, 58, 80
6, 156240, Note_on_c, 4, 55, 75
6, 156474, Note_off_c, 4, 55, 80
6, 156480, Note_on_c, 4, 59, 75
6, 156714, Note_off_c, 4, 59, 80
6, 156720, Note_on_c, 4, 52, 75
6, 156954, Note_off_c, 4, 52, 80
6, 156960, Note_on_c, 4, 52, 75
6, 157194, Note_off_c, 4, 52, 80
6, 157200, Note_on_c, 4, 52, 75
6, 157434, Note_off_c, 4, 52, 80
6, 157680, Note_on_c, 4, 58, 75
6, 157914, Note_off_c, 4, 58, 80
6, 157920, Note_on_c, 4, 58, 75
6, 158154, Note_off_c, 4, 58, 80
6, 158160, Note_on_c, 4, 52, 75
6, 158394, Note_off_c, 4, 52, 80
6, 158400, Note_on_c, 4, 57, 75
6, 158634, Note_off_c, 4, 57, 80
6, 158640, Note_on_c, 4, 52, 75
6, 158874, Note_off_c, 4, 52, 80
6, 158880, Note_on_c, 4, 52, 75
6, 159114, Note_off_c, 4, 52, 80
6, 159120, Note_on_c, 4, 50, 75
6, 159354, Note_off_c, 4, 50, 80
6, 159360, Note_on_c, 4, 59, 75
6, 159474, Note_off_c, 4, 59, 80
6, 159480, Note_on_c, 4, 59, 75
6, 159594, Note_off_c, 4, 59, 80
6, 159600, Note_on_c, 4, 60, 75
6, 159834, Note_off_c, 4, 60, 80
6, 159840, Note_on_c, 4, 61, 75
6, 160074, Note_off_c, 4, 61, 80
6, 160080, Note_on_c, 4, 62, 75
6, 160314, Note_off_c, 4, 62, 80
6, 160320, Note_on_c, 4, 59, 75
6, 160794, Note_off_c, 4, 59, 80
6, 161520, Note_on_c, 4, 58, 75
6, 161754, Note_off_c, 4, 58, 80
6, 161760, Note_on_c, 4, 58, 75
6, 161994, Note_off_c, 4, 58, 80
6, 162000, Note_on_c, 4, 55, 75
6, 162234, Note_off_c, 4, 55, 80
6, 162240, Note_on_c, 4, 57, 75
6, 162474, Note_off_c, 4, 57, 80
6, 162480, Note_on_c, 4, 52, 75
6, 162714, Note_off_c, 4, 52, 80
6, 162720, Note_on_c, 4, 52, 75
6, 162954, Note_off_c, 4, 52, 80
6, 162960, Note_on_c, 4, 52, 75
6, 163194, Note_off_c, 4, 52, 80
6, 163440, Note_on_c, 4, 59, 75
6, 163674, Note_off_c, 4, 59, 80
6, 163680, Note_on_c, 4, 59, 75
6, 163914, Note_off_c, 4, 59, 80
6, 163920, Note_on_c, 4, 59, 75
6, 164154, Note_off_c, 4, 59, 80
6, 164160, Note_on_c, 4, 55, 75
6, 164394, Note_off_c, 4, 55, 80
6, 164400, Note_on_c, 4, 55, 75
6, 164874, Note_off_c, 4, 55, 80
6, 165360, Note_on_c, 4, 58, 75
6, 165594, Note_off_c, 4, 58, 80
6, 165600, Note_on_c, 4, 58, 75
6, 165834, Note_off_c, 4, 58, 80
6, 165840, Note_on_c, 4, 55, 75
6, 166074, Note_off_c, 4, 55, 80
6, 166080, Note_on_c, 4, 58, 75
6, 166314, Note_off_c, 4, 58, 80
6, 166320, Note_on_c, 4, 55, 75
6, 166554, Note_off_c, 4, 55, 80
6, 166560, Note_on_c, 4, 55, 75
6, 166794, Note_off_c, 4, 55, 80
6, 166800, Note_on_c, 4, 55, 75
6, 167034, Note_off_c, 4, 55, 80
6, 167040, Note_on_c, 4, 58, 75
6, 167274, Note_off_c, 4, 58, 80
6, 167280, Note_on_c, 4, 58, 75
6, 167514, Note_off_c, 4, 58, 80
6, 167520, Note_on_c, 4, 58, 75
6, 167754, Note_off_c, 4, 58, 80
6, 167760, Note_on_c, 4, 60, 75
6, 167994, Note_off_c, 4, 60, 80
6, 168000, Note_on_c, 4, 55, 75
6, 168474, Note_off_c, 4, 55, 80
6, 169200, Note_on_c, 4, 58, 75
6, 169434, Note_off_c, 4, 58, 80
6, 169440, Note_on_c, 4, 58, 75
6, 169674, Note_off_c, 4, 58, 80
6, 169680, Note_on_c, 4, 57, 75
6, 169914, Note_off_c, 4, 57, 80
6, 169920, Note_on_c, 4, 55, 75
6, 170154, Note_off_c, 4, 55, 80
6, 170160, Note_on_c, 4, 55, 75
6, 170394, Note_off_c, 4, 55, 80
6, 170400, Note_on_c, 4, 55, 75
6, 170634, Note_off_c, 4, 55, 80
6, 170640, Note_on_c, 4, 53, 75
6, 170874, Note_off_c, 4, 53, 80
6, 171120, Note_on_c, 4, 58, 75
6, 171354, Note_off_c, 4, 58, 80
6, 171360, Note_on_c, 4, 57, 75
6, 171594, Note_off_c, 4, 57, 80
6, 171600, Note_on_c, 4, 55, 75
6, 171834, Note_off_c, 4, 55, 80
6, 171840, Note_on_c, 4, 59, 75
6, 172074, Note_off_c, 4, 59, 80
6, 172080, Note_on_c, 4, 52, 75
6, 172314, Note_off_c, 4, 52, 80
6, 172320, Note_on_c, 4, 52, 75
6, 172794, Note_off_c, 4, 52, 80
6, 173040, Note_on_c, 4, 58, 75
6, 173274, Note_off_c, 4, 58, 80
6, 173280, Note_on_c, 4, 57, 75
6, 173514, Note_off_c, 4, 57, 80
6, 173520, Note_on_c, 4, 55, 75
6, 173754, Note_off_c, 4, 55, 80
6, 173760, Note_on_c, 4, 59, 75
6, 173994, Note_off_c, 4, 59, 80
6, 174000, Note_on_c, 4, 52, 75
6, 174234, Note_off_c, 4, 52, 80
6, 174240, Note_on_c, 4, 52, 75
6, 174474, Note_off_c, 4, 52, 80
6, 174480, Note_on_c, 4, 50, 75
6, 174714, Note_off_c, 4, 50, 80
6, 174720, Note_on_c, 4, 52, 75
6, 174954, Note_off_c, 4, 52, 80
6, 174960, Note_on_c, 4, 55, 75
6, 175194, Note_off_c, 4, 55, 80
6, 175200, Note_on_c, 4, 57, 75
6, 175434, Note_off_c, 4, 57, 80
6, 175440, Note_on_c, 4, 55, 75
6, 175674, Note_off_c, 4, 55, 80
6, 175680, Note_on_c, 4, 59, 75
6, 175914, Note_off_c, 4, 59, 80
6, 175920, Note_on_c, 4, 52, 75
6, 176154, Note_off_c, 4, 52, 80
6, 176160, Note_on_c, 4, 52, 75
6, 176634, Note_off_c, 4, 52, 80
6, 176880, Note_on_c, 4, 58, 75
6, 177114, Note_off_c, 4, 58, 80
6, 177120, Note_on_c, 4, 57, 75
6, 177354, Note_off_c, 4, 57, 80
6, 177360, Note_on_c, 4, 55, 75
6, 177594, Note_off_c, 4, 55, 80
6, 177600, Note_on_c, 4, 59, 75
6, 177834, Note_off_c, 4, 59, 80
6, 177840, Note_on_c, 4, 52, 75
6, 178074, Note_off_c, 4, 52, 80
6, 178080, Note_on_c, 4, 52, 75
6, 178314, Note_off_c, 4, 52, 80
6, 178320, Note_on_c, 4, 52, 75
6, 178554, Note_off_c, 4, 52, 80
6, 178800, Note_on_c, 4, 58, 75
6, 179034, Note_off_c, 4, 58, 80
6, 179040, Note_on_c, 4, 57, 75
6, 179274, Note_off_c, 4, 57, 80
6, 179280, Note_on_c, 4, 55, 75
6, 179514, Note_off_c, 4, 55, 80
6, 179520, Note_on_c, 4, 59, 75
6, 179754, Note_off_c, 4, 59, 80
6, 179760, Note_on_c, 4, 52, 75
6, 179994, Note_off_c, 4, 52, 80
6, 180720, Note_on_c, 4, 58, 75
6, 180954, Note_off_c, 4, 58, 80
6, 180960, Note_on_c, 4, 57, 75
6, 181194, Note_off_c, 4, 57, 80
6, 181200, Note_on_c, 4, 55, 75
6, 181434, Note_off_c, 4, 55, 80
6, 181440, Note_on_c, 4, 59, 75
6, 181674, Note_off_c, 4, 59, 80
6, 181680, Note_on_c, 4, 59, 75
6, 181914, Note_off_c, 4, 59, 80
6, 181920, Note_on_c, 4, 59, 75
6, 182154, Note_off_c, 4, 59, 80
6, 182160, Note_on_c, 4, 55, 75
6, 182394, Note_off_c, 4, 55, 80
6, 182400, Note_on_c, 4, 58, 75
6, 182634, Note_off_c, 4, 58, 80
6, 182640, Note_on_c, 4, 58, 75
6, 182874, Note_off_c, 4, 58, 80
6, 182880, Note_on_c, 4, 58, 75
6, 183114, Note_off_c, 4, 58, 80
6, 183120, Note_on_c, 4, 60, 75
6, 183354, Note_off_c, 4, 60, 80
6, 183360, Note_on_c, 4, 55, 75
6, 183834, Note_off_c, 4, 55, 80
6, 184560, Note_on_c, 4, 63, 75
6, 184794, Note_off_c, 4, 63, 80
6, 184800, Note_on_c, 4, 63, 75
6, 185034, Note_off_c, 4, 63, 80
6, 185040, Note_on_c, 4, 63, 75
6, 185274, Note_off_c, 4, 63, 80
6, 185280, Note_on_c, 4, 65, 75
6, 185514, Note_off_c, 4, 65, 80
6, 185520, Note_on_c, 4, 63, 75
6, 185754, Note_off_c, 4, 63, 80
6, 185760, Note_on_c, 4, 63, 75
6, 185994, Note_off_c, 4, 63, 80
6, 186000, Note_on_c, 4, 62, 75
6, 186234, Note_off_c, 4, 62, 80
6, 186240, Note_on_c, 4, 62, 75
6, 186474, Note_off_c, 4, 62, 80
6, 186480, Note_on_c, 4, 62, 75
6, 186714, Note_off_c, 4, 62, 80
6, 186720, Note_on_c, 4, 62, 75
6, 186954, Note_off_c, 4, 62, 80
6, 186960, Note_on_c, 4, 64, 75
6, 187194, Note_off_c, 4, 64, 80
6, 187200, Note_on_c, 4, 62, 75
6, 187674, Note_off_c, 4, 62, 80
6, 188400, Note_on_c, 4, 58, 75
6, 188634, Note_off_c, 4, 58, 80
6, 188640, Note_on_c, 4, 58, 75
6, 188874, Note_off_c, 4, 58, 80
6, 188880, Note_on_c, 4, 57, 75
6, 189114, Note_off_c, 4, 57, 80
6, 189120, Note_on_c, 4, 55, 75
6, 189354, Note_off_c, 4, 55, 80
6, 189360, Note_on_c, 4, 55, 75
6, 189594, Note_off_c, 4, 55, 80
6, 189600, Note_on_c, 4, 55, 75
6, 189834, Note_off_c, 4, 55, 80
6, 189840, Note_on_c, 4, 53, 75
6, 190074, Note_off_c, 4, 53, 80
6, 190320, Note_on_c, 4, 58, 75
6, 190554, Note_off_c, 4, 58, 80
6, 190560, Note_on_c, 4, 57, 75
6, 190794, Note_off_c, 4, 57, 80
6, 190800, Note_on_c, 4, 55, 75
6, 191034, Note_off_c, 4, 55, 80
6, 191040, Note_on_c, 4, 59, 75
6, 191274, Note_off_c, 4, 59, 80
6, 191280, Note_on_c, 4, 52, 75
6, 191514, Note_off_c, 4, 52, 80
6, 191520, Note_on_c, 4, 52, 75
6, 191994, Note_off_c, 4, 52, 80
6, 192240, Note_on_c, 4, 58, 75
6, 192474, Note_off_c, 4, 58, 80
6, 192480, Note_on_c, 4, 57, 75
6, 192714, Note_off_c, 4, 57, 80
6, 192720, Note_on_c, 4, 55, 75
6, 192954, Note_off_c, 4, 55, 80
6, 192960, Note_on_c, 4, 59, 75
6, 193194, Note_off_c, 4, 59, 80
6, 193200, Note_on_c, 4, 52, 75
6, 193434, Note_off_c, 4, 52, 80
6, 193440, Note_on_c, 4, 52, 75
6, 193674, Note_off_c, 4, 52, 80
6, 193680, Note_on_c, 4, 50, 75
6, 193914, Note_off_c, 4, 50, 80
6, 193920, Note_on_c, 4, 52, 75
6, 194154, Note_off_c, 4, 52, 80
6, 194160, Note_on_c, 4, 55, 75
6, 194394, Note_off_c, 4, 55, 80
6, 194400, Note_on_c, 4, 57, 75
6, 194634, Note_off_c, 4, 57, 80
6, 194640, Note_on_c, 4, 55, 75
6, 194874, Note_off_c, 4, 55, 80
6, 194880, Note_on_c, 4, 59, 75
6, 195114, Note_off_c, 4, 59, 80
6, 195120, Note_on_c, 4, 52, 75
6, 195354, Note_off_c, 4, 52, 80
6, 195360, Note_on_c, 4, 52, 75
6, 195834, Note_off_c, 4, 52, 80
6, 196080, Note_on_c, 4, 58, 75
6, 196314, Note_off_c, 4, 58, 80
6, 196320, Note_on_c, 4, 57, 75
6, 196554, Note_off_c, 4, 57, 80
6, 196560, Note_on_c, 4, 55, 75
6, 196794, Note_off_c, 4, 55, 80
6, 196800, Note_on_c, 4, 59, 75
6, 197034, Note_off_c, 4, 59, 80
6, 197040, Note_on_c, 4, 52, 75
6, 197274, Note_off_c, 4, 52, 80
6, 197280, Note_on_c, 4, 52, 75
6, 197514, Note_off_c, 4, 52, 80
6, 197520, Note_on_c, 4, 52, 75
6, 197754, Note_off_c, 4, 52, 80
6, 198000, Note_on_c, 4, 58, 75
6, 198234, Note_off_c, 4, 58, 80
6, 198240, Note_on_c, 4, 57, 75
6, 198474, Note_off_c, 4, 57, 80
6, 198480, Note_on_c, 4, 55, 75
6, 198714, Note_off_c, 4, 55, 80
6, 198720, Note_on_c, 4, 59, 75
6, 198954, Note_off_c, 4, 59, 80
6, 198960, Note_on_c, 4, 52, 75
6, 199194, Note_off_c, 4, 52, 80
6, 199920, Note_on_c, 4, 58, 75
6, 200154, Note_off_c, 4, 58, 80
6, 200160, Note_on_c, 4, 57, 75
6, 200394, Note_off_c, 4, 57, 80
6, 200400, Note_on_c, 4, 55, 75
6, 200634, Note_off_c, 4, 55, 80
6, 200640, Note_on_c, 4, 59, 75
6, 200874, Note_off_c, 4, 59, 80
6, 200880, Note_on_c, 4, 59, 75
6, 201114, Note_off_c, 4, 59, 80
6, 201120, Note_on_c, 4, 59, 75
6, 201354, Note_off_c, 4, 59, 80
6, 201360, Note_on_c, 4, 55, 75
6, 201594, Note_off_c, 4, 55, 80
6, 201600, Note_on_c, 4, 58, 75
6, 201834, Note_off_c, 4, 58, 80
6, 201840, Note_on_c, 4, 58, 75
6, 202074, Note_off_c, 4, 58, 80
6, 202080, Note_on_c, 4, 58, 75
6, 202314, Note_off_c, 4, 58, 80
6, 202320, Note_on_c, 4, 60, 75
6, 202554, Note_off_c, 4, 60, 80
6, 202560, Note_on_c, 4, 55, 75
6, 203034, Note_off_c, 4, 55, 80
6, 203760, Note_on_c, 4, 63, 75
6, 203994, Note_off_c, 4, 63, 80
6, 204000, Note_on_c, 4, 63, 75
6, 204234, Note_off_c, 4, 63, 80
6, 204240, Note_on_c, 4, 63, 75
6, 204474, Note_off_c, 4, 63, 80
6, 204480, Note_on_c, 4, 65, 75
6, 204714, Note_off_c, 4, 65, 80
6, 204720, Note_on_c, 4, 63, 75
6, 204954, Note_off_c, 4, 63, 80
6, 204960, Note_on_c, 4, 63, 75
6, 205194, Note_off_c, 4, 63, 80
6, 205200, Note_on_c, 4, 62, 75
6, 205434, Note_off_c, 4, 62, 80
6, 205440, Note_on_c, 4, 62, 75
6, 205674, Note_off_c, 4, 62, 80
6, 205680, Note_on_c, 4, 62, 75
6, 205914, Note_off_c, 4, 62, 80
6, 205920, Note_on_c, 4, 62, 75
6, 206154, Note_off_c, 4, 62, 80
6, 206160, Note_on_c, 4, 64, 75
6, 206394, Note_off_c, 4, 64, 80
6, 206400, Note_on_c, 4, 62, 75
6, 206874, Note_off_c, 4, 62, 80
6, 207600, Note_on_c, 4, 58, 75
6, 207834, Note_off_c, 4, 58, 80
6, 207840, Note_on_c, 4, 58, 75
6, 208074, Note_off_c, 4, 58, 80
6, 208080, Note_on_c, 4, 57, 75
6, 208314, Note_off_c, 4, 57, 80
6, 208320, Note_on_c, 4, 55, 75
6, 208554, Note_off_c, 4, 55, 80
6, 208560, Note_on_c, 4, 55, 75
6, 208794, Note_off_c, 4, 55, 80
6, 208800, Note_on_c, 4, 55, 75
6, 209034, Note_off_c, 4, 55, 80
6, 209040, Note_on_c, 4, 53, 75
6, 209274, Note_off_c, 4, 53, 80
6, 209520, Note_on_c, 4, 58, 75
6, 209754, Note_off_c, 4, 58, 80
6, 209760, Note_on_c, 4, 57, 75
6, 209994, Note_off_c, 4, 57, 80
6, 210000, Note_on_c, 4, 55, 75
6, 210234, Note_off_c, 4, 55, 80
6, 210240, Note_on_c, 4, 59, 75
6, 210474, Note_off_c, 4, 59, 80
6, 210480, Note_on_c, 4, 52, 75
6, 210714, Note_off_c, 4, 52, 80
6, 210720, Note_on_c, 4, 52, 75
6, 211194, Note_off_c, 4, 52, 80
6, 211440, Note_on_c, 4, 58, 75
6, 211674, Note_off_c, 4, 58, 80
6, 211680, Note_on_c, 4, 57, 75
6, 211914, Note_off_c, 4, 57, 80
6, 211920, Note_on_c, 4, 55, 75
6, 212154, Note_off_c, 4, 55, 80
6, 212160, Note_on_c, 4, 59, 75
6, 212394, Note_off_c, 4, 59, 80
6, 212400, Note_on_c, 4, 52, 75
6, 212634, Note_off_c, 4, 52, 80
6, 212640, Note_on_c, 4, 52, 75
6, 212874, Note_off_c, 4, 52, 80
6, 212880, Note_on_c, 4, 50, 75
6, 213114, Note_off_c, 4, 50, 80
6, 213120, Note_on_c, 4, 52, 75
6, 213354, Note_off_c, 4, 52, 80
6, 213360, Note_on_c, 4, 55, 75
6, 213594, Note_off_c, 4, 55, 80
6, 213600, Note_on_c, 4, 57, 75
6, 213834, Note_off_c, 4, 57, 80
6, 213840, Note_on_c, 4, 55, 75
6, 214074, Note_off_c, 4, 55, 80
6, 214080, Note_on_c, 4, 59, 75
6, 214314, Note_off_c, 4, 59, 80
6, 214320, Note_on_c, 4, 52, 75
6, 214554, Note_off_c, 4, 52, 80
6, 214560, Note_on_c, 4, 52, 75
6, 215034, Note_off_c, 4, 52, 80
6, 215280, Note_on_c, 4, 58, 75
6, 215514, Note_off_c, 4, 58, 80
6, 215520, Note_on_c, 4, 57, 75
6, 215754, Note_off_c, 4, 57, 80
6, 215760, Note_on_c, 4, 55, 75
6, 215994, Note_off_c, 4, 55, 80
6, 216000, Note_on_c, 4, 59, 75
6, 216234, Note_off_c, 4, 59, 80
6, 216240, Note_on_c, 4, 52, 75
6, 216474, Note_off_c, 4, 52, 80
6, 216480, Note_on_c, 4, 52, 75
6, 216714, Note_off_c, 4, 52, 80
6, 216720, Note_on_c, 4, 52, 75
6, 216954, Note_off_c, 4, 52, 80
6, 217200, Note_on_c, 4, 58, 75
6, 217434, Note_off_c, 4, 58, 80
6, 217440, Note_on_c, 4, 57, 75
6, 217674, Note_off_c, 4, 57, 80
6, 217680, Note_on_c, 4, 55, 75
6, 217914, Note_off_c, 4, 55, 80
6, 217920, Note_on_c, 4, 59, 75
6, 218154, Note_off_c, 4, 59, 80
6, 218160, Note_on_c, 4, 52, 75
6, 218394, Note_off_c, 4, 52, 80
6, 219120, Note_on_c, 4, 58, 75
6, 219354, Note_off_c, 4, 58, 80
6, 219360, Note_on_c, 4, 57, 75
6, 219594, Note_off_c, 4, 57, 80
6, 219600, Note_on_c, 4, 55, 75
6, 219834, Note_off_c, 4, 55, 80
6, 219840, Note_on_c, 4, 59, 75
6, 220074, Note_off_c, 4, 59, 80
6, 220080, Note_on_c, 4, 59, 75
6, 220314, Note_off_c, 4, 59, 80
6, 220320, Note_on_c, 4, 59, 75
6, 220554, Note_off_c, 4, 59, 80
6, 220560, Note_on_c, 4, 55, 75
6, 220794, Note_off_c, 4, 55, 80
6, 220800, Note_on_c, 4, 58, 75
6, 221034, Note_off_c, 4, 58, 80
6, 221040, Note_on_c, 4, 58, 75
6, 221274, Note_off_c, 4, 58, 80
6, 221280, Note_on_c, 4, 58, 75
6, 221514, Note_off_c, 4, 58, 80
6, 221520, Note_on_c, 4, 60, 75
6, 221754, Note_off_c, 4, 60, 80
6, 221760, Note_on_c, 4, 55, 75
6, 222234, Note_off_c, 4, 55, 80
6, 222960, Note_on_c, 4, 63, 75
6, 223194, Note_off_c, 4, 63, 80
6, 223200, Note_on_c, 4, 63, 75
6, 223434, Note_off_c, 4, 63, 80
6, 223440, Note_on_c, 4, 63, 75
6, 223674, Note_off_c, 4, 63, 80
6, 223680, Note_on_c, 4, 65, 75
6, 223914, Note_off_c, 4, 65, 80
6, 223920, Note_on_c, 4, 63, 75
6, 224154, Note_off_c, 4, 63, 80
6, 224160, Note_on_c, 4, 63, 75
6, 224394, Note_off_c, 4, 63, 80
6, 224400, Note_on_c, 4, 62, 75
6, 224634, Note_off_c, 4, 62, 80
6, 224640, Note_on_c, 4, 62, 75
6, 224874, Note_off_c, 4, 62, 80
6, 224880, Note_on_c, 4, 62, 75
6, 225114, Note_off_c, 4, 62, 80
6, 225120, Note_on_c, 4, 62, 75
6, 225354, Note_off_c, 4, 62, 80
6, 225360, Note_on_c, 4, 64, 75
6, 225594, Note_off_c, 4, 64, 80
6, 225600, Note_on_c, 4, 62, 75
6, 226074, Note_off_c, 4, 62, 80
6, 226560, Note_on_c, 4, 58, 75
6, 227514, Note_off_c, 4, 58, 80
6, 227520, Note_on_c, 4, 57, 75
6, 227754, Note_off_c, 4, 57, 80
6, 227760, Note_on_c, 4, 55, 75
6, 227994, Note_off_c, 4, 55, 80
6, 230400, Note_on_c, 4, 58, 75
6, 231354, Note_off_c, 4, 58, 80
6, 231360, Note_on_c, 4, 57, 75
6, 231594, Note_off_c, 4, 57, 80
6, 231600, Note_on_c, 4, 55, 75
6, 231834, Note_off_c, 4, 55, 80
6, 234240, Note_on_c, 4, 59, 75
6, 235194, Note_off_c, 4, 59, 80
6, 235200, Note_on_c, 4, 57, 75
6, 235434, Note_off_c, 4, 57, 80
6, 235440, Note_on_c, 4, 56, 75
6, 235674, Note_off_c, 4, 56, 80
6, 238080, Note_on_c, 4, 59, 75
6, 239034, Note_off_c, 4, 59, 80
6, 239040, Note_on_c, 4, 57, 75
6, 239274, Note_off_c, 4, 57, 80
6, 239280, Note_on_c, 4, 56, 75
6, 239514, Note_off_c, 4, 56, 80
6, 242160, Note_on_c, 4, 55, 75
6, 242394, Note_off_c, 4, 55, 80
6, 242400, Note_on_c, 4, 55, 75
6, 242634, Note_off_c, 4, 55, 80
6, 242640, Note_on_c, 4, 57, 75
6, 242874, Note_off_c, 4, 57, 80
6, 242880, Note_on_c, 4, 57, 75
6, 243114, Note_off_c, 4, 57, 80
6, 243120, Note_on_c, 4, 55, 75
6, 243354, Note_off_c, 4, 55, 80
6, 243360, Note_on_c, 4, 55, 75
6, 243594, Note_off_c, 4, 55, 80
6, 243600, Note_on_c, 4, 57, 75
6, 243834, Note_off_c, 4, 57, 80
6, 245280, Note_on_c, 4, 57, 75
6, 245514, Note_off_c, 4, 57, 80
6, 245520, Note_on_c, 4, 55, 75
6, 245754, Note_off_c, 4, 55, 80
6, 246240, Note_on_c, 4, 55, 75
6, 246474, Note_off_c, 4, 55, 80
6, 246480, Note_on_c, 4, 57, 75
6, 246714, Note_off_c, 4, 57, 80
6, 246720, Note_on_c, 4, 57, 75
6, 246954, Note_off_c, 4, 57, 80
6, 246960, Note_on_c, 4, 55, 75
6, 247194, Note_off_c, 4, 55, 80
6, 247200, Note_on_c, 4, 55, 75
6, 247674, Note_off_c, 4, 55, 80
6, 247680, Note_on_c, 4, 62, 75
6, 247914, Note_off_c, 4, 62, 80
6, 247920, Note_on_c, 4, 61, 75
6, 248034, Note_off_c, 4, 61, 80
6, 248040, Note_on_c, 4, 62, 75
6, 248274, Note_off_c, 4, 62, 80
6, 248280, Note_on_c, 4, 61, 75
6, 248394, Note_off_c, 4, 61, 80
6, 248400, Note_on_c, 4, 57, 75
6, 248874, Note_off_c, 4, 57, 80
6, 248880, Note_on_c, 4, 59, 75
6, 249234, Note_off_c, 4, 59, 80
6, 249240, Note_on_c, 4, 55, 75
6, 249594, Note_off_c, 4, 55, 80
6, 249840, Note_on_c, 4, 55, 75
6, 250074, Note_off_c, 4, 55, 80
6, 250080, Note_on_c, 4, 55, 75
6, 250314, Note_off_c, 4, 55, 80
6, 250320, Note_on_c, 4, 57, 75
6, 250554, Note_off_c, 4, 57, 80
6, 250560, Note_on_c, 4, 57, 75
6, 250794, Note_off_c, 4, 57, 80
6, 250800, Note_on_c, 4, 55, 75
6, 251034, Note_off_c, 4, 55, 80
6, 251040, Note_on_c, 4, 55, 75
6, 251274, Note_off_c, 4, 55, 80
6, 251280, Note_on_c, 4, 57, 75
6, 251514, Note_off_c, 4, 57, 80
6, 252960, Note_on_c, 4, 57, 75
6, 253194, Note_off_c, 4, 57, 80
6, 253200, Note_on_c, 4, 55, 75
6, 253434, Note_off_c, 4, 55, 80
6, 253920, Note_on_c, 4, 55, 75
6, 254154, Note_off_c, 4, 55, 80
6, 254160, Note_on_c, 4, 57, 75
6, 254394, Note_off_c, 4, 57, 80
6, 254400, Note_on_c, 4, 57, 75
6, 254634, Note_off_c, 4, 57, 80
6, 254640, Note_on_c, 4, 55, 75
6, 254874, Note_off_c, 4, 55, 80
6, 254880, Note_on_c, 4, 55, 75
6, 255354, Note_off_c, 4, 55, 80
6, 255360, Note_on_c, 4, 59, 75
6, 255594, Note_off_c, 4, 59, 80
6, 255600, Note_on_c, 4, 61, 75
6, 255714, Note_off_c, 4, 61, 80
6, 255720, Note_on_c, 4, 61, 75
6, 256074, Note_off_c, 4, 61, 80
6, 256080, Note_on_c, 4, 55, 75
6, 256194, Note_off_c, 4, 55, 80
6, 256200, Note_on_c, 4, 55, 75
6, 256554, Note_off_c, 4, 55, 80
6, 256560, Note_on_c, 4, 55, 75
6, 256674, Note_off_c, 4, 55, 80
6, 256680, Note_on_c, 4, 55, 75
6, 256914, Note_off_c, 4, 55, 80
6, 256920, Note_on_c, 4, 57, 75
6, 257034, Note_off_c, 4, 57, 80
6, 257040, Note_on_c, 4, 60, 75
6, 257274, Note_off_c, 4, 60, 80
6, 257520, Note_on_c, 4, 55, 75
6, 257754, Note_off_c, 4, 55, 80
6, 257760, Note_on_c, 4, 55, 75
6, 257994, Note_off_c, 4, 55, 80
6, 258000, Note_on_c, 4, 57, 75
6, 258234, Note_off_c, 4, 57, 80
6, 258240, Note_on_c, 4, 57, 75
6, 258474, Note_off_c, 4, 57, 80
6, 258480, Note_on_c, 4, 55, 75
6, 258714, Note_off_c, 4, 55, 80
6, 258720, Note_on_c, 4, 55, 75
6, 258954, Note_off_c, 4, 55, 80
6, 258960, Note_on_c, 4, 57, 75
6, 259194, Note_off_c, 4, 57, 80
6, 260640, Note_on_c, 4, 57, 75
6, 260874, Note_off_c, 4, 57, 80
6, 260880, Note_on_c, 4, 55, 75
6, 261114, Note_off_c, 4, 55, 80
6, 261600, Note_on_c, 4, 55, 75
6, 261834, Note_off_c, 4, 55, 80
6, 261840, Note_on_c, 4, 57, 75
6, 262074, Note_off_c, 4, 57, 80
6, 262080, Note_on_c, 4, 57, 75
6, 262314, Note_off_c, 4, 57, 80
6, 262320, Note_on_c, 4, 55, 75
6, 262554, Note_off_c, 4, 55, 80
6, 262560, Note_on_c, 4, 55, 75
6, 263034, Note_off_c, 4, 55, 80
6, 263040, Note_on_c, 4, 62, 75
6, 263274, Note_off_c, 4, 62, 80
6, 263280, Note_on_c, 4, 61, 75
6, 263514, Note_off_c, 4, 61, 80
6, 263520, Note_on_c, 4, 57, 75
6, 263754, Note_off_c, 4, 57, 80
6, 263760, Note_on_c, 4, 59, 75
6, 264234, Note_off_c, 4, 59, 80
6, 264240, Note_on_c, 4, 55, 75
6, 264954, Note_off_c, 4, 55, 80
6, 265200, Note_on_c, 4, 55, 75
6, 265434, Note_off_c, 4, 55, 80
6, 265440, Note_on_c, 4, 55, 75
6, 265674, Note_off_c, 4, 55, 80
6, 265680, Note_on_c, 4, 57, 75
6, 265914, Note_off_c, 4, 57, 80
6, 265920, Note_on_c, 4, 57, 75
6, 266154, Note_off_c, 4, 57, 80
6, 266160, Note_on_c, 4, 55, 75
6, 266394, Note_off_c, 4, 55, 80
6, 266400, Note_on_c, 4, 55, 75
6, 266634, Note_off_c, 4, 55, 80
6, 266640, Note_on_c, 4, 57, 75
6, 266874, Note_off_c, 4, 57, 80
6, 268320, Note_on_c, 4, 57, 75
6, 268554, Note_off_c, 4, 57, 80
6, 268560, Note_on_c, 4, 55, 75
6, 268794, Note_off_c, 4, 55, 80
6, 269280, Note_on_c, 4, 55, 75
6, 269514, Note_off_c, 4, 55, 80
6, 269520, Note_on_c, 4, 57, 75
6, 269754, Note_off_c, 4, 57, 80
6, 269760, Note_on_c, 4, 57, 75
6, 269994, Note_off_c, 4, 57, 80
6, 270000, Note_on_c, 4, 55, 75
6, 270234, Note_off_c, 4, 55, 80
6, 270240, Note_on_c, 4, 55, 75
6, 270714, Note_off_c, 4, 55, 80
6, 270714, End_track
0, 0, End_of_file
