0, 0, Header, 1, 13, 240
1, 0, Start_track
1, 0, Time_signature, 4, 2, 24, 8
1, 0, Key_signature, 0, "major"
1, 0, Tempo, 480000
1, 1428, Tempo, 480000
1, 1432, Tempo, 483871
1, 1436, Tempo, 487805
1, 1440, Tempo, 495868
1, 1444, Tempo, 500000
1, 1448, Tempo, 504202
1, 1452, Tempo, 512821
1, 1456, Tempo, 517241
1, 1460, Tempo, 521739
1, 1464, Tempo, 530973
1, 1468, Tempo, 535714
1, 1472, Tempo, 545455
1, 1476, Tempo, 550459
1, 1480, Tempo, 555556
1, 1484, Tempo, 566038
1, 1488, Tempo, 571429
1, 1492, Tempo, 576923
1, 1496, Tempo, 588235
1, 1500, Tempo, 594059
1, 1504, Tempo, 600000
1, 1508, Tempo, 612245
1, 1512, Tempo, 618557
1, 1516, Tempo, 631579
1, 1520, Tempo, 638298
1, 1524, Tempo, 645161
1, 1528, Tempo, 659341
1, 1532, Tempo, 666667
1, 1536, Tempo, 674157
1, 1540, Tempo, 689655
1, 1544, Tempo, 697674
1, 1548, Tempo, 705882
1, 1552, Tempo, 722892
1, 1556, Tempo, 731707
1, 1560, Tempo, 750000
1, 1564, Tempo, 759494
1, 1568, Tempo, 769231
1, 1572, Tempo, 789474
1, 1576, Tempo, 800000
1, 1580, Tempo, 810811
1, 1584, Tempo, 833333
1, 1588, Tempo, 845070
1, 1592, Tempo, 857143
1, 1596, Tempo, 882353
1, 1600, Tempo, 895522
1, 1604, Tempo, 923077
1, 1608, Tempo, 937500
1, 1612, Tempo, 952381
1, 1616, Tempo, 983607
1, 1620, Tempo, 1000000
1, 1624, Tempo, 1016949
1, 1628, Tempo, 1052632
1, 1632, Tempo, 1071429
1, 1636, Tempo, 1111111
1, 1640, Tempo, 1132075
1, 1644, Tempo, 1111111
1, 1648, Tempo, 1090909
1, 1652, Tempo, 1071429
1, 1656, Tempo, 1034483
1, 1660, Tempo, 1016949
1, 1664, Tempo, 1000000
1, 1668, Tempo, 967742
1, 1672, Tempo, 952381
1, 1676, Tempo, 937500
1, 1680, Tempo, 923077
1, 1684, Tempo, 895522
1, 1688, Tempo, 882353
1, 1692, Tempo, 869565
1, 1696, Tempo, 845070
1, 1700, Tempo, 833333
1, 1704, Tempo, 821918
1, 1708, Tempo, 800000
1, 1712, Tempo, 789474
1, 1716, Tempo, 779221
1, 1720, Tempo, 769231
1, 1724, Tempo, 750000
1, 1728, Tempo, 740741
1, 1732, Tempo, 731707
1, 1736, Tempo, 714286
1, 1740, Tempo, 705882
1, 1744, Tempo, 697674
1, 1748, Tempo, 681818
1, 1752, Tempo, 674157
1, 1756, Tempo, 666667
1, 1760, Tempo, 659341
1, 1764, Tempo, 645161
1, 1768, Tempo, 638298
1, 1772, Tempo, 631579
1, 1776, Tempo, 618557
1, 1780, Tempo, 612245
1, 1784, Tempo, 606061
1, 1788, Tempo, 594059
1, 1792, Tempo, 588235
1, 1796, Tempo, 582524
1, 1800, Tempo, 576923
1, 1804, Tempo, 566038
1, 1808, Tempo, 560748
1, 1812, Tempo, 555556
1, 1816, Tempo, 545455
1, 1820, Tempo, 540541
1, 1824, Tempo, 535714
1, 1828, Tempo, 526316
1, 1832, Tempo, 521739
1, 1836, Tempo, 517241
1, 1840, Tempo, 512821
1, 1844, Tempo, 508475
1, 1848, Tempo, 504202
1, 1856, Tempo, 500000
1, 1860, Tempo, 495868
1, 1864, Tempo, 491803
1, 1868, Tempo, 487805
1, 1872, Tempo, 483871
1, 1876, Tempo, 480000
1, 12000, Tempo, 454545
1, 141562, Tempo, 451128
1, 141614, Tempo, 454545
1, 141662, Tempo, 458015
1, 141714, Tempo, 461538
1, 141762, Tempo, 465116
1, 141810, Tempo, 468750
1, 141862, Tempo, 472441
1, 141910, Tempo, 476190
1, 141962, Tempo, 480000
1, 142010, Tempo, 483871
1, 142058, Tempo, 487805
1, 142110, Tempo, 491803
1, 142158, Tempo, 495868
1, 142210, Tempo, 500000
1, 142258, Tempo, 504202
1, 142306, Tempo, 508475
1, 142358, Tempo, 512821
1, 142406, Tempo, 517241
1, 142458, Tempo, 521739
1, 142506, Tempo, 526316
1, 142554, Tempo, 530973
1, 142594, Tempo, 526316
1, 142594, End_track
2, 0, Start_track
2, 0, MIDI_port, 0
2, 0, Title_t, "Drone"
2, 0, Program_c, 0, 101
2, 0, Control_c, 0, 7, 55
2, 0, Control_c, 0, 10, 10
2, 0, Control_c, 0, 7, 80
2, 960, Note_on_c, 0, 48, 100
2, 15328, Note_on_c, 0, 48, 0
2, 106800, Note_on_c, 0, 48, 100
2, 120960, Note_on_c, 0, 48, 0
2, 120960, End_track
3, 0, Start_track
3, 0, MIDI_port, 0
3, 0, Title_t, "Sitar"
3, 0, Program_c, 1, 104
3, 0, Control_c, 1, 7, 110
3, 0, Control_c, 1, 10, 20
3, 0, Control_c, 1, 91, 100
3, 0, Control_c, 1, 93, 0
3, 0, Control_c, 1, 123, 0
3, 6720, Note_on_c, 1, 58, 100
3, 6776, Note_on_c, 1, 58, 100
3, 6780, Note_on_c, 1, 58, 0
3, 6836, Note_on_c, 1, 58, 0
3, 6840, Note_on_c, 1, 60, 100
3, 6900, Note_on_c, 1, 60, 0
3, 6902, Note_on_c, 1, 60, 100
3, 6954, Note_on_c, 1, 64, 100
3, 6962, Note_on_c, 1, 60, 0
3, 7008, Note_on_c, 1, 64, 100
3, 7014, Note_on_c, 1, 64, 0
3, 7068, Note_on_c, 1, 64, 0
3, 7072, Note_on_c, 1, 65, 100
3, 7132, Note_on_c, 1, 65, 0
3, 7140, Note_on_c, 1, 65, 100
3, 7194, Note_on_c, 1, 67, 100
3, 7200, Note_on_c, 1, 65, 0
3, 7254, Note_on_c, 1, 67, 0
3, 7254, Note_on_c, 1, 67, 100
3, 7314, Note_on_c, 1, 67, 0
3, 7320, Note_on_c, 1, 70, 100
3, 7380, Note_on_c, 1, 70, 0
3, 7380, Note_on_c, 1, 70, 100
3, 7432, Note_on_c, 1, 72, 100
3, 7440, Note_on_c, 1, 70, 0
3, 7492, Note_on_c, 1, 72, 0
3, 7502, Note_on_c, 1, 72, 100
3, 7560, Note_on_c, 1, 76, 100
3, 7562, Note_on_c, 1, 72, 0
3, 7618, Note_on_c, 1, 76, 100
3, 7620, Note_on_c, 1, 76, 0
3, 7678, Note_on_c, 1, 76, 0
3, 7680, Note_on_c, 1, 77, 100
3, 7740, Note_on_c, 1, 77, 0
3, 7740, Note_on_c, 1, 77, 100
3, 7792, Note_on_c, 1, 79, 100
3, 7800, Note_on_c, 1, 77, 0
3, 8452, Note_on_c, 1, 79, 0
3, 69000, Note_on_c, 1, 64, 100
3, 69102, Note_on_c, 1, 65, 100
3, 69120, Note_on_c, 1, 64, 0
3, 69218, Note_on_c, 1, 67, 100
3, 69222, Note_on_c, 1, 65, 0
3, 69458, Note_on_c, 1, 67, 0
3, 69472, Note_on_c, 1, 70, 100
3, 69592, Note_on_c, 1, 70, 0
3, 72586, Note_on_c, 1, 76, 100
3, 72826, Note_on_c, 1, 76, 0
3, 72850, Note_on_c, 1, 70, 100
3, 73074, Note_on_c, 1, 67, 100
3, 73090, Note_on_c, 1, 70, 0
3, 73194, Note_on_c, 1, 67, 0
3, 76214, Note_on_c, 1, 64, 100
3, 76312, Note_on_c, 1, 65, 100
3, 76334, Note_on_c, 1, 64, 0
3, 76432, Note_on_c, 1, 65, 0
3, 76448, Note_on_c, 1, 67, 100
3, 76670, Note_on_c, 1, 64, 100
3, 76688, Note_on_c, 1, 67, 0
3, 76790, Note_on_c, 1, 64, 0
3, 77396, Note_on_c, 1, 64, 100
3, 77516, Note_on_c, 1, 64, 0
3, 77520, Note_on_c, 1, 65, 100
3, 77640, Note_on_c, 1, 65, 0
3, 77651, Note_on_c, 1, 69, 100
3, 77766, Note_on_c, 1, 67, 100
3, 77771, Note_on_c, 1, 69, 0
3, 77874, Note_on_c, 1, 64, 100
3, 77886, Note_on_c, 1, 67, 0
3, 77994, Note_on_c, 1, 64, 0
3, 78608, Note_on_c, 1, 69, 100
3, 78724, Note_on_c, 1, 70, 100
3, 78728, Note_on_c, 1, 69, 0
3, 78844, Note_on_c, 1, 70, 0
3, 78862, Note_on_c, 1, 70, 100
3, 78960, Note_on_c, 1, 72, 100
3, 78982, Note_on_c, 1, 70, 0
3, 79200, Note_on_c, 1, 72, 0
3, 79200, Note_on_c, 1, 67, 100
3, 79320, Note_on_c, 1, 67, 0
3, 79320, Note_on_c, 1, 70, 100
3, 79440, Note_on_c, 1, 70, 0
3, 79440, Note_on_c, 1, 72, 100
3, 79680, Note_on_c, 1, 72, 0
3, 79680, Note_on_c, 1, 75, 100
3, 79800, Note_on_c, 1, 75, 0
3, 79800, Note_on_c, 1, 77, 100
3, 79920, Note_on_c, 1, 77, 0
3, 79920, Note_on_c, 1, 75, 100
3, 80040, Note_on_c, 1, 75, 0
3, 80040, Note_on_c, 1, 77, 100
3, 80280, Note_on_c, 1, 77, 0
3, 80280, Note_on_c, 1, 77, 100
3, 80400, Note_on_c, 1, 77, 0
3, 80400, Note_on_c, 1, 77, 100
3, 80520, Note_on_c, 1, 77, 0
3, 80520, Note_on_c, 1, 75, 100
3, 80640, Note_on_c, 1, 75, 0
3, 80640, Note_on_c, 1, 67, 100
3, 80760, Note_on_c, 1, 67, 0
3, 80760, Note_on_c, 1, 70, 100
3, 80880, Note_on_c, 1, 70, 0
3, 80880, Note_on_c, 1, 72, 100
3, 81000, Note_on_c, 1, 72, 0
3, 81000, Note_on_c, 1, 75, 100
3, 81120, Note_on_c, 1, 75, 0
3, 81120, Note_on_c, 1, 72, 100
3, 81240, Note_on_c, 1, 72, 0
3, 81240, Note_on_c, 1, 65, 100
3, 81360, Note_on_c, 1, 65, 0
3, 81360, Note_on_c, 1, 67, 100
3, 81480, Note_on_c, 1, 67, 0
3, 81480, Note_on_c, 1, 70, 100
3, 81960, Note_on_c, 1, 70, 0
3, 81968, Note_on_c, 1, 77, 100
3, 82072, Note_on_c, 1, 75, 100
3, 82088, Note_on_c, 1, 77, 0
3, 82192, Note_on_c, 1, 75, 0
3, 82194, Note_on_c, 1, 72, 100
3, 82302, Note_on_c, 1, 70, 100
3, 82314, Note_on_c, 1, 72, 0
3, 82422, Note_on_c, 1, 70, 0
3, 82440, Note_on_c, 1, 67, 100
3, 82548, Note_on_c, 1, 65, 100
3, 82560, Note_on_c, 1, 67, 0
3, 82668, Note_on_c, 1, 65, 0
3, 82680, Note_on_c, 1, 64, 100
3, 83160, Note_on_c, 1, 64, 0
3, 83396, Note_on_c, 1, 77, 100
3, 83516, Note_on_c, 1, 77, 0
3, 83516, Note_on_c, 1, 75, 100
3, 83636, Note_on_c, 1, 75, 0
3, 83640, Note_on_c, 1, 72, 100
3, 83760, Note_on_c, 1, 72, 0
3, 83760, Note_on_c, 1, 70, 100
3, 83874, Note_on_c, 1, 67, 100
3, 83880, Note_on_c, 1, 70, 0
3, 83994, Note_on_c, 1, 67, 0
3, 87014, Note_on_c, 1, 72, 100
3, 87134, Note_on_c, 1, 72, 0
3, 87134, Note_on_c, 1, 70, 100
3, 87246, Note_on_c, 1, 75, 100
3, 87254, Note_on_c, 1, 70, 0
3, 87480, Note_on_c, 1, 75, 100
3, 87486, Note_on_c, 1, 75, 0
3, 87600, Note_on_c, 1, 75, 0
3, 90604, Note_on_c, 1, 64, 100
3, 90698, Note_on_c, 1, 65, 100
3, 90724, Note_on_c, 1, 64, 0
3, 90818, Note_on_c, 1, 65, 0
3, 90832, Note_on_c, 1, 67, 100
3, 90938, Note_on_c, 1, 70, 100
3, 90952, Note_on_c, 1, 67, 0
3, 91058, Note_on_c, 1, 70, 0
3, 91062, Note_on_c, 1, 64, 100
3, 91182, Note_on_c, 1, 64, 0
3, 91792, Note_on_c, 1, 64, 100
3, 91910, Note_on_c, 1, 65, 100
3, 91912, Note_on_c, 1, 64, 0
3, 92030, Note_on_c, 1, 65, 0
3, 92030, Note_on_c, 1, 69, 100
3, 92150, Note_on_c, 1, 69, 0
3, 92160, Note_on_c, 1, 67, 100
3, 92280, Note_on_c, 1, 67, 0
3, 92286, Note_on_c, 1, 64, 100
3, 92526, Note_on_c, 1, 64, 0
3, 92974, Note_on_c, 1, 72, 100
3, 93094, Note_on_c, 1, 72, 0
3, 93120, Note_on_c, 1, 70, 100
3, 93240, Note_on_c, 1, 70, 0
3, 93264, Note_on_c, 1, 72, 100
3, 93480, Note_on_c, 1, 72, 100
3, 93504, Note_on_c, 1, 72, 0
3, 93600, Note_on_c, 1, 72, 0
3, 93600, Note_on_c, 1, 67, 100
3, 93716, Note_on_c, 1, 70, 100
3, 93720, Note_on_c, 1, 67, 0
3, 93828, Note_on_c, 1, 72, 100
3, 93836, Note_on_c, 1, 70, 0
3, 94068, Note_on_c, 1, 72, 0
3, 94098, Note_on_c, 1, 75, 100
3, 94188, Note_on_c, 1, 77, 100
3, 94218, Note_on_c, 1, 75, 0
3, 94302, Note_on_c, 1, 75, 100
3, 94308, Note_on_c, 1, 77, 0
3, 94422, Note_on_c, 1, 75, 0
3, 94446, Note_on_c, 1, 77, 100
3, 94680, Note_on_c, 1, 77, 100
3, 94686, Note_on_c, 1, 77, 0
3, 94800, Note_on_c, 1, 77, 0
3, 94800, Note_on_c, 1, 77, 100
3, 94920, Note_on_c, 1, 77, 0
3, 94920, Note_on_c, 1, 75, 100
3, 95040, Note_on_c, 1, 75, 0
3, 95040, Note_on_c, 1, 67, 100
3, 95160, Note_on_c, 1, 67, 0
3, 95160, Note_on_c, 1, 70, 100
3, 95280, Note_on_c, 1, 70, 0
3, 95280, Note_on_c, 1, 72, 100
3, 95400, Note_on_c, 1, 72, 0
3, 95400, Note_on_c, 1, 75, 100
3, 95520, Note_on_c, 1, 75, 0
3, 95520, Note_on_c, 1, 72, 100
3, 95640, Note_on_c, 1, 72, 0
3, 95640, Note_on_c, 1, 65, 100
3, 95760, Note_on_c, 1, 65, 0
3, 95760, Note_on_c, 1, 67, 100
3, 95880, Note_on_c, 1, 67, 0
3, 95880, Note_on_c, 1, 70, 100
3, 96240, Note_on_c, 1, 70, 0
3, 96342, Note_on_c, 1, 77, 100
3, 96462, Note_on_c, 1, 77, 0
3, 96474, Note_on_c, 1, 75, 100
3, 96594, Note_on_c, 1, 75, 0
3, 96622, Note_on_c, 1, 72, 100
3, 96720, Note_on_c, 1, 70, 100
3, 96742, Note_on_c, 1, 72, 0
3, 96834, Note_on_c, 1, 67, 100
3, 96840, Note_on_c, 1, 70, 0
3, 96954, Note_on_c, 1, 67, 0
3, 96960, Note_on_c, 1, 65, 100
3, 97080, Note_on_c, 1, 65, 0
3, 97080, Note_on_c, 1, 64, 100
3, 97200, Note_on_c, 1, 64, 0
3, 97200, Note_on_c, 1, 64, 100
3, 97432, Note_on_c, 1, 64, 100
3, 97560, Note_on_c, 1, 64, 0
3, 97672, Note_on_c, 1, 64, 0
3, 97800, Note_on_c, 1, 64, 100
3, 97912, Note_on_c, 1, 64, 100
3, 97920, Note_on_c, 1, 64, 0
3, 98018, Note_on_c, 1, 64, 100
3, 98152, Note_on_c, 1, 64, 0
3, 98258, Note_on_c, 1, 64, 0
3, 99360, Note_on_c, 1, 55, 100
3, 99412, Note_on_c, 1, 55, 100
3, 99420, Note_on_c, 1, 55, 0
3, 99472, Note_on_c, 1, 55, 0
3, 99476, Note_on_c, 1, 58, 100
3, 99518, Note_on_c, 1, 58, 100
3, 99536, Note_on_c, 1, 58, 0
3, 99578, Note_on_c, 1, 58, 0
3, 99592, Note_on_c, 1, 60, 100
3, 99652, Note_on_c, 1, 60, 0
3, 99666, Note_on_c, 1, 60, 100
3, 99718, Note_on_c, 1, 64, 100
3, 99726, Note_on_c, 1, 60, 0
3, 99778, Note_on_c, 1, 64, 0
3, 99780, Note_on_c, 1, 64, 100
3, 99838, Note_on_c, 1, 65, 100
3, 99840, Note_on_c, 1, 64, 0
3, 99894, Note_on_c, 1, 65, 100
3, 99898, Note_on_c, 1, 65, 0
3, 99954, Note_on_c, 1, 65, 0
3, 99966, Note_on_c, 1, 67, 100
3, 100020, Note_on_c, 1, 67, 100
3, 100026, Note_on_c, 1, 67, 0
3, 100072, Note_on_c, 1, 70, 100
3, 100080, Note_on_c, 1, 67, 0
3, 100132, Note_on_c, 1, 70, 0
3, 100142, Note_on_c, 1, 70, 100
3, 100198, Note_on_c, 1, 72, 100
3, 100202, Note_on_c, 1, 70, 0
3, 100258, Note_on_c, 1, 72, 0
3, 100260, Note_on_c, 1, 72, 100
3, 100320, Note_on_c, 1, 72, 0
3, 100320, Note_on_c, 1, 55, 100
3, 100324, Note_on_c, 1, 76, 100
3, 100360, Note_on_c, 1, 76, 100
3, 100372, Note_on_c, 1, 55, 100
3, 100380, Note_on_c, 1, 55, 0
3, 100384, Note_on_c, 1, 76, 0
3, 100420, Note_on_c, 1, 76, 0
3, 100432, Note_on_c, 1, 55, 0
3, 100436, Note_on_c, 1, 58, 100
3, 100454, Note_on_c, 1, 77, 100
3, 100478, Note_on_c, 1, 58, 100
3, 100496, Note_on_c, 1, 58, 0
3, 100510, Note_on_c, 1, 77, 100
3, 100514, Note_on_c, 1, 77, 0
3, 100538, Note_on_c, 1, 58, 0
3, 100552, Note_on_c, 1, 79, 100
3, 100552, Note_on_c, 1, 60, 100
3, 100570, Note_on_c, 1, 77, 0
3, 100612, Note_on_c, 1, 60, 0
3, 100612, Note_on_c, 1, 79, 0
3, 100620, Note_on_c, 1, 79, 100
3, 100626, Note_on_c, 1, 60, 100
3, 100678, Note_on_c, 1, 64, 100
3, 100680, Note_on_c, 1, 79, 0
3, 100686, Note_on_c, 1, 60, 0
3, 100738, Note_on_c, 1, 64, 0
3, 100740, Note_on_c, 1, 64, 100
3, 100798, Note_on_c, 1, 65, 100
3, 100800, Note_on_c, 1, 64, 0
3, 100854, Note_on_c, 1, 65, 100
3, 100858, Note_on_c, 1, 65, 0
3, 100914, Note_on_c, 1, 65, 0
3, 100926, Note_on_c, 1, 67, 100
3, 100980, Note_on_c, 1, 67, 100
3, 100986, Note_on_c, 1, 67, 0
3, 101032, Note_on_c, 1, 70, 100
3, 101040, Note_on_c, 1, 67, 0
3, 101092, Note_on_c, 1, 70, 0
3, 101102, Note_on_c, 1, 70, 100
3, 101140, Note_on_c, 1, 72, 100
3, 101162, Note_on_c, 1, 70, 0
3, 101440, Note_on_c, 1, 72, 0
3, 101830, Note_on_c, 1, 72, 100
3, 101890, Note_on_c, 1, 72, 0
3, 101894, Note_on_c, 1, 70, 100
3, 101992, Note_on_c, 1, 70, 100
3, 102014, Note_on_c, 1, 70, 0
3, 102029, Note_on_c, 1, 72, 100
3, 102112, Note_on_c, 1, 70, 0
3, 102389, Note_on_c, 1, 72, 0
3, 102480, Note_on_c, 1, 64, 100
3, 102600, Note_on_c, 1, 64, 0
3, 102600, Note_on_c, 1, 65, 100
3, 102720, Note_on_c, 1, 65, 0
3, 102720, Note_on_c, 1, 67, 100
3, 102840, Note_on_c, 1, 67, 0
3, 102854, Note_on_c, 1, 70, 100
3, 102960, Note_on_c, 1, 72, 100
3, 102974, Note_on_c, 1, 70, 0
3, 103552, Note_on_c, 1, 72, 100
3, 103560, Note_on_c, 1, 72, 0
3, 104152, Note_on_c, 1, 72, 0
3, 104152, End_track
4, 0, Start_track
4, 0, MIDI_port, 0
4, 0, Title_t, "Cello"
4, 0, Program_c, 2, 42
4, 0, Control_c, 2, 7, 100
4, 0, Control_c, 2, 10, 74
4, 0, Control_c, 2, 91, 100
4, 0, Control_c, 2, 93, 0
4, 0, Control_c, 2, 123, 0
4, 960, Note_on_c, 2, 60, 100
4, 1920, Note_on_c, 2, 60, 0
4, 1920, Note_on_c, 2, 64, 100
4, 2040, Note_on_c, 2, 64, 0
4, 2040, Note_on_c, 2, 65, 100
4, 2160, Note_on_c, 2, 65, 0
4, 2160, Note_on_c, 2, 67, 100
4, 2280, Note_on_c, 2, 67, 0
4, 2280, Note_on_c, 2, 70, 100
4, 2400, Note_on_c, 2, 70, 0
4, 2400, Note_on_c, 2, 72, 100
4, 2760, Note_on_c, 2, 72, 0
4, 2760, Note_on_c, 2, 70, 100
4, 2880, Note_on_c, 2, 70, 0
4, 2880, Note_on_c, 2, 72, 100
4, 3240, Note_on_c, 2, 72, 0
4, 3240, Note_on_c, 2, 70, 100
4, 3360, Note_on_c, 2, 70, 0
4, 3360, Note_on_c, 2, 72, 100
4, 3720, Note_on_c, 2, 72, 0
4, 3720, Note_on_c, 2, 70, 100
4, 4320, Note_on_c, 2, 70, 0
4, 4320, Note_on_c, 2, 67, 100
4, 4440, Note_on_c, 2, 67, 0
4, 4440, Note_on_c, 2, 70, 100
4, 4560, Note_on_c, 2, 70, 0
4, 4560, Note_on_c, 2, 67, 100
4, 4680, Note_on_c, 2, 67, 0
4, 4680, Note_on_c, 2, 65, 100
4, 5040, Note_on_c, 2, 65, 0
4, 5040, Note_on_c, 2, 64, 100
4, 5160, Note_on_c, 2, 64, 0
4, 5160, Note_on_c, 2, 65, 100
4, 5520, Note_on_c, 2, 65, 0
4, 5520, Note_on_c, 2, 64, 100
4, 5640, Note_on_c, 2, 64, 0
4, 5640, Note_on_c, 2, 65, 100
4, 5698, Note_on_c, 2, 65, 0
4, 5700, Note_on_c, 2, 64, 100
4, 5758, Note_on_c, 2, 64, 0
4, 5760, Note_on_c, 2, 65, 100
4, 6000, Note_on_c, 2, 65, 0
4, 6000, Note_on_c, 2, 64, 100
4, 6120, Note_on_c, 2, 64, 0
4, 6120, Note_on_c, 2, 60, 100
4, 6240, Note_on_c, 2, 60, 0
4, 6240, Note_on_c, 2, 60, 100
4, 11520, Note_on_c, 2, 60, 0
4, 11520, Note_on_c, 2, 64, 100
4, 11760, Note_on_c, 2, 64, 0
4, 11760, Note_on_c, 2, 65, 100
4, 12000, Note_on_c, 2, 65, 0
4, 12000, Note_on_c, 2, 67, 100
4, 12480, Note_on_c, 2, 67, 0
4, 12480, Note_on_c, 2, 70, 100
4, 13680, Note_on_c, 2, 70, 0
4, 13680, Note_on_c, 2, 70, 100
4, 13920, Note_on_c, 2, 70, 0
4, 13920, Note_on_c, 2, 69, 100
4, 14400, Note_on_c, 2, 69, 0
4, 14400, Note_on_c, 2, 64, 100
4, 14880, Note_on_c, 2, 64, 0
4, 14880, Note_on_c, 2, 67, 100
4, 15360, Note_on_c, 2, 67, 0
4, 15360, Note_on_c, 2, 62, 100
4, 15840, Note_on_c, 2, 62, 0
4, 15840, Note_on_c, 2, 67, 100
4, 16320, Note_on_c, 2, 67, 0
4, 16320, Note_on_c, 2, 65, 100
4, 16800, Note_on_c, 2, 65, 0
4, 16800, Note_on_c, 2, 64, 100
4, 17280, Note_on_c, 2, 64, 0
4, 17280, Note_on_c, 2, 64, 100
4, 17520, Note_on_c, 2, 64, 0
4, 17520, Note_on_c, 2, 65, 100
4, 17760, Note_on_c, 2, 65, 0
4, 17760, Note_on_c, 2, 67, 100
4, 18240, Note_on_c, 2, 67, 0
4, 18240, Note_on_c, 2, 70, 100
4, 19440, Note_on_c, 2, 70, 0
4, 19440, Note_on_c, 2, 70, 100
4, 19680, Note_on_c, 2, 70, 0
4, 19680, Note_on_c, 2, 69, 100
4, 20160, Note_on_c, 2, 69, 0
4, 20160, Note_on_c, 2, 64, 100
4, 20640, Note_on_c, 2, 64, 0
4, 20640, Note_on_c, 2, 67, 100
4, 21120, Note_on_c, 2, 67, 0
4, 21120, Note_on_c, 2, 62, 100
4, 21600, Note_on_c, 2, 62, 0
4, 21600, Note_on_c, 2, 67, 100
4, 22080, Note_on_c, 2, 67, 0
4, 22080, Note_on_c, 2, 65, 100
4, 22560, Note_on_c, 2, 65, 0
4, 22560, Note_on_c, 2, 64, 100
4, 23040, Note_on_c, 2, 64, 0
4, 23040, Note_on_c, 2, 64, 100
4, 23280, Note_on_c, 2, 64, 0
4, 23280, Note_on_c, 2, 65, 100
4, 23520, Note_on_c, 2, 65, 0
4, 23520, Note_on_c, 2, 67, 100
4, 24000, Note_on_c, 2, 67, 0
4, 24000, Note_on_c, 2, 64, 100
4, 24960, Note_on_c, 2, 64, 0
4, 24960, Note_on_c, 2, 64, 100
4, 25200, Note_on_c, 2, 64, 0
4, 25200, Note_on_c, 2, 65, 100
4, 25440, Note_on_c, 2, 65, 0
4, 25440, Note_on_c, 2, 69, 100
4, 25680, Note_on_c, 2, 69, 0
4, 25680, Note_on_c, 2, 67, 100
4, 25920, Note_on_c, 2, 67, 0
4, 25920, Note_on_c, 2, 69, 100
4, 26880, Note_on_c, 2, 69, 0
4, 26880, Note_on_c, 2, 64, 100
4, 27120, Note_on_c, 2, 64, 0
4, 27120, Note_on_c, 2, 65, 100
4, 27360, Note_on_c, 2, 65, 0
4, 27360, Note_on_c, 2, 67, 100
4, 27600, Note_on_c, 2, 67, 0
4, 27600, Note_on_c, 2, 70, 100
4, 27840, Note_on_c, 2, 70, 0
4, 27840, Note_on_c, 2, 72, 100
4, 28320, Note_on_c, 2, 72, 0
4, 28320, Note_on_c, 2, 72, 100
4, 28560, Note_on_c, 2, 72, 0
4, 28560, Note_on_c, 2, 67, 100
4, 28800, Note_on_c, 2, 67, 0
4, 28800, Note_on_c, 2, 72, 100
4, 29040, Note_on_c, 2, 72, 0
4, 29040, Note_on_c, 2, 70, 100
4, 29280, Note_on_c, 2, 70, 0
4, 29280, Note_on_c, 2, 67, 100
4, 29520, Note_on_c, 2, 67, 0
4, 29520, Note_on_c, 2, 65, 100
4, 29880, Note_on_c, 2, 65, 0
4, 29880, Note_on_c, 2, 64, 100
4, 30000, Note_on_c, 2, 64, 0
4, 30000, Note_on_c, 2, 65, 100
4, 30360, Note_on_c, 2, 65, 0
4, 30360, Note_on_c, 2, 64, 100
4, 30480, Note_on_c, 2, 64, 0
4, 30480, Note_on_c, 2, 65, 100
4, 31200, Note_on_c, 2, 65, 0
4, 31200, Note_on_c, 2, 67, 100
4, 31440, Note_on_c, 2, 67, 0
4, 31440, Note_on_c, 2, 64, 100
4, 32880, Note_on_c, 2, 64, 0
4, 32880, Note_on_c, 2, 64, 100
4, 33120, Note_on_c, 2, 64, 0
4, 33120, Note_on_c, 2, 65, 100
4, 33360, Note_on_c, 2, 65, 0
4, 33360, Note_on_c, 2, 67, 100
4, 33840, Note_on_c, 2, 67, 0
4, 33840, Note_on_c, 2, 70, 100
4, 35040, Note_on_c, 2, 70, 0
4, 35040, Note_on_c, 2, 70, 100
4, 35280, Note_on_c, 2, 70, 0
4, 35280, Note_on_c, 2, 69, 100
4, 35760, Note_on_c, 2, 69, 0
4, 35760, Note_on_c, 2, 64, 100
4, 36240, Note_on_c, 2, 64, 0
4, 36240, Note_on_c, 2, 67, 100
4, 36720, Note_on_c, 2, 67, 0
4, 36720, Note_on_c, 2, 62, 100
4, 37200, Note_on_c, 2, 62, 0
4, 37200, Note_on_c, 2, 67, 100
4, 37680, Note_on_c, 2, 67, 0
4, 37680, Note_on_c, 2, 65, 100
4, 38160, Note_on_c, 2, 65, 0
4, 38160, Note_on_c, 2, 64, 100
4, 38640, Note_on_c, 2, 64, 0
4, 38640, Note_on_c, 2, 64, 100
4, 38880, Note_on_c, 2, 64, 0
4, 38880, Note_on_c, 2, 65, 100
4, 39120, Note_on_c, 2, 65, 0
4, 39120, Note_on_c, 2, 67, 100
4, 39600, Note_on_c, 2, 67, 0
4, 39600, Note_on_c, 2, 70, 100
4, 40800, Note_on_c, 2, 70, 0
4, 40800, Note_on_c, 2, 70, 100
4, 41040, Note_on_c, 2, 70, 0
4, 41040, Note_on_c, 2, 69, 100
4, 41520, Note_on_c, 2, 69, 0
4, 41520, Note_on_c, 2, 64, 100
4, 42000, Note_on_c, 2, 64, 0
4, 42000, Note_on_c, 2, 67, 100
4, 42480, Note_on_c, 2, 67, 0
4, 42480, Note_on_c, 2, 62, 100
4, 42960, Note_on_c, 2, 62, 0
4, 42960, Note_on_c, 2, 67, 100
4, 43440, Note_on_c, 2, 67, 0
4, 43440, Note_on_c, 2, 65, 100
4, 43920, Note_on_c, 2, 65, 0
4, 43920, Note_on_c, 2, 64, 100
4, 44400, Note_on_c, 2, 64, 0
4, 44400, Note_on_c, 2, 64, 100
4, 44640, Note_on_c, 2, 64, 0
4, 44640, Note_on_c, 2, 65, 100
4, 44880, Note_on_c, 2, 65, 0
4, 44880, Note_on_c, 2, 67, 100
4, 45360, Note_on_c, 2, 67, 0
4, 45360, Note_on_c, 2, 64, 100
4, 45600, Note_on_c, 2, 64, 0
4, 45600, Note_on_c, 2, 65, 100
4, 45840, Note_on_c, 2, 65, 0
4, 45840, Note_on_c, 2, 67, 100
4, 46080, Note_on_c, 2, 67, 0
4, 46080, Note_on_c, 2, 70, 100
4, 46320, Note_on_c, 2, 70, 0
4, 46320, Note_on_c, 2, 64, 100
4, 46560, Note_on_c, 2, 64, 0
4, 46560, Note_on_c, 2, 65, 100
4, 46800, Note_on_c, 2, 65, 0
4, 46800, Note_on_c, 2, 67, 100
4, 47040, Note_on_c, 2, 67, 0
4, 47040, Note_on_c, 2, 70, 100
4, 47280, Note_on_c, 2, 70, 0
4, 47280, Note_on_c, 2, 72, 100
4, 48240, Note_on_c, 2, 72, 0
4, 48240, Note_on_c, 2, 67, 100
4, 48480, Note_on_c, 2, 67, 0
4, 48480, Note_on_c, 2, 70, 100
4, 48720, Note_on_c, 2, 70, 0
4, 48720, Note_on_c, 2, 72, 100
4, 48960, Note_on_c, 2, 72, 0
4, 48960, Note_on_c, 2, 75, 100
4, 49200, Note_on_c, 2, 75, 0
4, 49200, Note_on_c, 2, 77, 100
4, 49560, Note_on_c, 2, 77, 0
4, 49560, Note_on_c, 2, 75, 100
4, 49680, Note_on_c, 2, 75, 0
4, 49680, Note_on_c, 2, 77, 100
4, 50040, Note_on_c, 2, 77, 0
4, 50040, Note_on_c, 2, 75, 100
4, 50160, Note_on_c, 2, 75, 0
4, 50160, Note_on_c, 2, 77, 100
4, 51120, Note_on_c, 2, 77, 0
4, 51120, Note_on_c, 2, 77, 100
4, 51240, Note_on_c, 2, 77, 0
4, 51240, Note_on_c, 2, 75, 100
4, 51360, Note_on_c, 2, 75, 0
4, 51360, Note_on_c, 2, 72, 100
4, 51480, Note_on_c, 2, 72, 0
4, 51480, Note_on_c, 2, 70, 100
4, 51720, Note_on_c, 2, 70, 0
4, 51720, Note_on_c, 2, 67, 100
4, 51840, Note_on_c, 2, 67, 0
4, 51840, Note_on_c, 2, 70, 100
4, 52080, Note_on_c, 2, 70, 0
4, 52080, Note_on_c, 2, 67, 100
4, 52200, Note_on_c, 2, 67, 0
4, 52200, Note_on_c, 2, 70, 100
4, 52440, Note_on_c, 2, 70, 0
4, 52440, Note_on_c, 2, 67, 100
4, 52560, Note_on_c, 2, 67, 0
4, 52560, Note_on_c, 2, 65, 100
4, 52800, Note_on_c, 2, 65, 0
4, 52800, Note_on_c, 2, 65, 100
4, 53520, Note_on_c, 2, 65, 0
4, 53520, Note_on_c, 2, 65, 100
4, 54000, Note_on_c, 2, 65, 0
4, 54000, Note_on_c, 2, 65, 100
4, 54240, Note_on_c, 2, 65, 0
4, 54240, Note_on_c, 2, 69, 100
4, 54480, Note_on_c, 2, 69, 0
4, 54480, Note_on_c, 2, 70, 100
4, 54720, Note_on_c, 2, 70, 0
4, 54720, Note_on_c, 2, 69, 100
4, 54960, Note_on_c, 2, 69, 0
4, 54960, Note_on_c, 2, 72, 100
4, 55200, Note_on_c, 2, 72, 0
4, 55200, Note_on_c, 2, 69, 100
4, 55440, Note_on_c, 2, 69, 0
4, 55440, Note_on_c, 2, 70, 100
4, 55680, Note_on_c, 2, 70, 0
4, 55680, Note_on_c, 2, 69, 100
4, 55920, Note_on_c, 2, 69, 0
4, 55920, Note_on_c, 2, 65, 100
4, 56160, Note_on_c, 2, 65, 0
4, 56160, Note_on_c, 2, 69, 100
4, 56400, Note_on_c, 2, 69, 0
4, 56400, Note_on_c, 2, 67, 100
4, 56640, Note_on_c, 2, 67, 0
4, 56640, Note_on_c, 2, 64, 100
4, 56880, Note_on_c, 2, 64, 0
4, 56880, Note_on_c, 2, 67, 100
4, 57120, Note_on_c, 2, 67, 0
4, 57120, Note_on_c, 2, 65, 100
4, 57360, Note_on_c, 2, 65, 0
4, 57360, Note_on_c, 2, 62, 100
4, 57600, Note_on_c, 2, 62, 0
4, 57600, Note_on_c, 2, 67, 100
4, 57840, Note_on_c, 2, 67, 0
4, 57840, Note_on_c, 2, 65, 100
4, 58080, Note_on_c, 2, 65, 0
4, 58080, Note_on_c, 2, 64, 100
4, 60000, Note_on_c, 2, 64, 0
4, 60000, Note_on_c, 2, 65, 100
4, 60240, Note_on_c, 2, 65, 0
4, 60240, Note_on_c, 2, 69, 100
4, 60480, Note_on_c, 2, 69, 0
4, 60480, Note_on_c, 2, 70, 100
4, 60720, Note_on_c, 2, 70, 0
4, 60720, Note_on_c, 2, 69, 100
4, 60960, Note_on_c, 2, 69, 0
4, 60960, Note_on_c, 2, 72, 100
4, 61200, Note_on_c, 2, 72, 0
4, 61200, Note_on_c, 2, 69, 100
4, 61440, Note_on_c, 2, 69, 0
4, 61440, Note_on_c, 2, 70, 100
4, 61680, Note_on_c, 2, 70, 0
4, 61680, Note_on_c, 2, 69, 100
4, 61920, Note_on_c, 2, 69, 0
4, 61920, Note_on_c, 2, 65, 100
4, 62160, Note_on_c, 2, 65, 0
4, 62160, Note_on_c, 2, 69, 100
4, 62400, Note_on_c, 2, 69, 0
4, 62400, Note_on_c, 2, 67, 100
4, 62640, Note_on_c, 2, 67, 0
4, 62640, Note_on_c, 2, 64, 100
4, 62880, Note_on_c, 2, 64, 0
4, 62880, Note_on_c, 2, 70, 100
4, 63120, Note_on_c, 2, 70, 0
4, 63120, Note_on_c, 2, 69, 100
4, 63360, Note_on_c, 2, 69, 0
4, 63360, Note_on_c, 2, 65, 100
4, 63600, Note_on_c, 2, 65, 0
4, 63600, Note_on_c, 2, 69, 100
4, 63840, Note_on_c, 2, 69, 0
4, 63840, Note_on_c, 2, 67, 100
4, 64080, Note_on_c, 2, 67, 0
4, 64080, Note_on_c, 2, 64, 100
4, 64320, Note_on_c, 2, 64, 0
4, 64320, Note_on_c, 2, 67, 100
4, 64560, Note_on_c, 2, 67, 0
4, 64560, Note_on_c, 2, 65, 100
4, 64800, Note_on_c, 2, 65, 0
4, 64800, Note_on_c, 2, 64, 100
4, 65040, Note_on_c, 2, 64, 0
4, 65040, Note_on_c, 2, 62, 100
4, 65960, Note_on_c, 2, 60, 90
4, 66000, Note_on_c, 2, 62, 0
4, 68240, Note_on_c, 2, 60, 0
4, 68400, Note_on_c, 2, 64, 100
4, 68520, Note_on_c, 2, 64, 0
4, 68520, Note_on_c, 2, 65, 100
4, 68640, Note_on_c, 2, 65, 0
4, 68640, Note_on_c, 2, 67, 100
4, 68760, Note_on_c, 2, 67, 0
4, 68760, Note_on_c, 2, 70, 100
4, 68880, Note_on_c, 2, 70, 0
4, 69600, Note_on_c, 2, 69, 100
4, 69720, Note_on_c, 2, 69, 0
4, 69720, Note_on_c, 2, 70, 100
4, 69840, Note_on_c, 2, 70, 0
4, 69840, Note_on_c, 2, 69, 100
4, 70080, Note_on_c, 2, 69, 0
4, 70080, Note_on_c, 2, 64, 100
4, 70200, Note_on_c, 2, 64, 0
4, 70200, Note_on_c, 2, 67, 100
4, 70320, Note_on_c, 2, 67, 0
4, 70320, Note_on_c, 2, 69, 100
4, 70440, Note_on_c, 2, 69, 0
4, 70440, Note_on_c, 2, 67, 100
4, 70680, Note_on_c, 2, 67, 0
4, 70680, Note_on_c, 2, 62, 100
4, 70800, Note_on_c, 2, 62, 0
4, 70800, Note_on_c, 2, 67, 100
4, 70920, Note_on_c, 2, 67, 0
4, 70920, Note_on_c, 2, 69, 100
4, 71040, Note_on_c, 2, 69, 0
4, 71040, Note_on_c, 2, 67, 100
4, 71280, Note_on_c, 2, 67, 0
4, 71280, Note_on_c, 2, 65, 100
4, 71400, Note_on_c, 2, 65, 0
4, 71400, Note_on_c, 2, 65, 100
4, 71520, Note_on_c, 2, 65, 0
4, 71520, Note_on_c, 2, 67, 100
4, 71640, Note_on_c, 2, 67, 0
4, 71640, Note_on_c, 2, 65, 100
4, 71880, Note_on_c, 2, 65, 0
4, 71880, Note_on_c, 2, 64, 100
4, 72000, Note_on_c, 2, 64, 0
4, 72000, Note_on_c, 2, 64, 100
4, 72120, Note_on_c, 2, 64, 0
4, 72120, Note_on_c, 2, 65, 100
4, 72240, Note_on_c, 2, 65, 0
4, 72240, Note_on_c, 2, 67, 100
4, 72360, Note_on_c, 2, 67, 0
4, 72360, Note_on_c, 2, 70, 100
4, 72480, Note_on_c, 2, 70, 0
4, 73200, Note_on_c, 2, 69, 100
4, 73320, Note_on_c, 2, 69, 0
4, 73320, Note_on_c, 2, 70, 100
4, 73440, Note_on_c, 2, 70, 0
4, 73440, Note_on_c, 2, 69, 100
4, 73680, Note_on_c, 2, 69, 0
4, 73680, Note_on_c, 2, 64, 100
4, 73800, Note_on_c, 2, 64, 0
4, 73800, Note_on_c, 2, 67, 100
4, 73920, Note_on_c, 2, 67, 0
4, 73920, Note_on_c, 2, 69, 100
4, 74040, Note_on_c, 2, 69, 0
4, 74040, Note_on_c, 2, 67, 100
4, 74280, Note_on_c, 2, 67, 0
4, 74280, Note_on_c, 2, 62, 100
4, 74400, Note_on_c, 2, 62, 0
4, 74400, Note_on_c, 2, 67, 100
4, 74520, Note_on_c, 2, 67, 0
4, 74520, Note_on_c, 2, 69, 100
4, 74640, Note_on_c, 2, 69, 0
4, 74640, Note_on_c, 2, 67, 100
4, 74880, Note_on_c, 2, 67, 0
4, 74880, Note_on_c, 2, 65, 100
4, 75000, Note_on_c, 2, 65, 0
4, 75000, Note_on_c, 2, 65, 100
4, 75120, Note_on_c, 2, 65, 0
4, 75120, Note_on_c, 2, 67, 100
4, 75240, Note_on_c, 2, 67, 0
4, 75240, Note_on_c, 2, 65, 100
4, 75480, Note_on_c, 2, 65, 0
4, 75480, Note_on_c, 2, 64, 100
4, 75600, Note_on_c, 2, 64, 0
4, 75600, Note_on_c, 2, 64, 100
4, 75720, Note_on_c, 2, 64, 0
4, 75720, Note_on_c, 2, 65, 100
4, 75840, Note_on_c, 2, 65, 0
4, 75840, Note_on_c, 2, 67, 100
4, 76080, Note_on_c, 2, 67, 0
4, 76080, Note_on_c, 2, 64, 100
4, 76200, Note_on_c, 2, 64, 0
4, 76800, Note_on_c, 2, 64, 100
4, 76920, Note_on_c, 2, 64, 0
4, 76920, Note_on_c, 2, 65, 100
4, 77040, Note_on_c, 2, 65, 0
4, 77040, Note_on_c, 2, 69, 100
4, 77160, Note_on_c, 2, 69, 0
4, 77160, Note_on_c, 2, 67, 100
4, 77280, Note_on_c, 2, 67, 0
4, 77297, Note_on_c, 2, 64, 100
4, 77417, Note_on_c, 2, 64, 0
4, 78000, Note_on_c, 2, 64, 100
4, 78120, Note_on_c, 2, 64, 0
4, 78120, Note_on_c, 2, 65, 100
4, 78240, Note_on_c, 2, 65, 0
4, 78240, Note_on_c, 2, 67, 100
4, 78480, Note_on_c, 2, 67, 0
4, 78480, Note_on_c, 2, 70, 100
4, 78600, Note_on_c, 2, 70, 0
4, 78600, Note_on_c, 2, 72, 100
4, 78720, Note_on_c, 2, 72, 0
4, 78720, Note_on_c, 2, 70, 100
4, 78840, Note_on_c, 2, 70, 0
4, 78840, Note_on_c, 2, 70, 100
4, 78960, Note_on_c, 2, 70, 0
4, 78960, Note_on_c, 2, 72, 100
4, 79200, Note_on_c, 2, 72, 0
4, 79200, Note_on_c, 2, 67, 100
4, 79320, Note_on_c, 2, 67, 0
4, 79320, Note_on_c, 2, 70, 100
4, 79440, Note_on_c, 2, 70, 0
4, 79440, Note_on_c, 2, 72, 100
4, 79680, Note_on_c, 2, 72, 0
4, 79680, Note_on_c, 2, 75, 100
4, 79800, Note_on_c, 2, 75, 0
4, 79800, Note_on_c, 2, 77, 100
4, 79920, Note_on_c, 2, 77, 0
4, 79920, Note_on_c, 2, 75, 100
4, 80040, Note_on_c, 2, 75, 0
4, 80040, Note_on_c, 2, 77, 100
4, 80280, Note_on_c, 2, 77, 0
4, 80280, Note_on_c, 2, 77, 100
4, 80400, Note_on_c, 2, 77, 0
4, 80400, Note_on_c, 2, 77, 100
4, 80520, Note_on_c, 2, 77, 0
4, 80520, Note_on_c, 2, 75, 100
4, 80640, Note_on_c, 2, 75, 0
4, 80640, Note_on_c, 2, 67, 100
4, 80760, Note_on_c, 2, 67, 0
4, 80760, Note_on_c, 2, 70, 100
4, 80880, Note_on_c, 2, 70, 0
4, 80880, Note_on_c, 2, 72, 100
4, 81000, Note_on_c, 2, 72, 0
4, 81000, Note_on_c, 2, 75, 100
4, 81120, Note_on_c, 2, 75, 0
4, 81120, Note_on_c, 2, 72, 100
4, 81240, Note_on_c, 2, 72, 0
4, 81240, Note_on_c, 2, 65, 100
4, 81360, Note_on_c, 2, 65, 0
4, 81360, Note_on_c, 2, 67, 100
4, 81480, Note_on_c, 2, 67, 0
4, 81480, Note_on_c, 2, 70, 100
4, 81600, Note_on_c, 2, 70, 0
4, 81600, Note_on_c, 2, 70, 100
4, 81720, Note_on_c, 2, 70, 0
4, 81720, Note_on_c, 2, 67, 100
4, 81840, Note_on_c, 2, 67, 0
4, 81840, Note_on_c, 2, 65, 100
4, 81960, Note_on_c, 2, 65, 0
4, 81960, Note_on_c, 2, 77, 100
4, 82080, Note_on_c, 2, 77, 0
4, 82080, Note_on_c, 2, 75, 100
4, 82200, Note_on_c, 2, 75, 0
4, 82200, Note_on_c, 2, 72, 100
4, 82320, Note_on_c, 2, 72, 0
4, 82320, Note_on_c, 2, 70, 100
4, 82440, Note_on_c, 2, 70, 0
4, 82440, Note_on_c, 2, 67, 100
4, 82560, Note_on_c, 2, 67, 0
4, 82560, Note_on_c, 2, 65, 100
4, 82680, Note_on_c, 2, 65, 0
4, 82680, Note_on_c, 2, 64, 100
4, 82800, Note_on_c, 2, 64, 0
4, 82800, Note_on_c, 2, 64, 100
4, 82920, Note_on_c, 2, 64, 0
4, 82920, Note_on_c, 2, 65, 100
4, 83040, Note_on_c, 2, 65, 0
4, 83040, Note_on_c, 2, 67, 100
4, 83160, Note_on_c, 2, 67, 0
4, 83160, Note_on_c, 2, 70, 100
4, 83280, Note_on_c, 2, 70, 0
4, 84000, Note_on_c, 2, 69, 100
4, 84120, Note_on_c, 2, 69, 0
4, 84120, Note_on_c, 2, 70, 100
4, 84240, Note_on_c, 2, 70, 0
4, 84240, Note_on_c, 2, 69, 100
4, 84480, Note_on_c, 2, 69, 0
4, 84480, Note_on_c, 2, 64, 100
4, 84600, Note_on_c, 2, 64, 0
4, 84600, Note_on_c, 2, 67, 100
4, 84720, Note_on_c, 2, 67, 0
4, 84720, Note_on_c, 2, 69, 100
4, 84840, Note_on_c, 2, 69, 0
4, 84840, Note_on_c, 2, 67, 100
4, 85080, Note_on_c, 2, 67, 0
4, 85080, Note_on_c, 2, 62, 100
4, 85200, Note_on_c, 2, 62, 0
4, 85200, Note_on_c, 2, 67, 100
4, 85320, Note_on_c, 2, 67, 0
4, 85320, Note_on_c, 2, 69, 100
4, 85440, Note_on_c, 2, 69, 0
4, 85440, Note_on_c, 2, 67, 100
4, 85680, Note_on_c, 2, 67, 0
4, 85680, Note_on_c, 2, 65, 100
4, 85800, Note_on_c, 2, 65, 0
4, 85800, Note_on_c, 2, 65, 100
4, 85920, Note_on_c, 2, 65, 0
4, 85920, Note_on_c, 2, 67, 100
4, 86040, Note_on_c, 2, 67, 0
4, 86040, Note_on_c, 2, 65, 100
4, 86280, Note_on_c, 2, 65, 0
4, 86280, Note_on_c, 2, 64, 100
4, 86400, Note_on_c, 2, 64, 0
4, 86400, Note_on_c, 2, 64, 100
4, 86520, Note_on_c, 2, 64, 0
4, 86520, Note_on_c, 2, 65, 100
4, 86640, Note_on_c, 2, 65, 0
4, 86640, Note_on_c, 2, 67, 100
4, 86760, Note_on_c, 2, 67, 0
4, 86760, Note_on_c, 2, 70, 100
4, 86880, Note_on_c, 2, 70, 0
4, 87600, Note_on_c, 2, 67, 100
4, 87720, Note_on_c, 2, 67, 0
4, 87720, Note_on_c, 2, 70, 100
4, 87840, Note_on_c, 2, 70, 0
4, 87840, Note_on_c, 2, 69, 100
4, 88080, Note_on_c, 2, 69, 0
4, 88080, Note_on_c, 2, 64, 100
4, 88200, Note_on_c, 2, 64, 0
4, 88200, Note_on_c, 2, 67, 100
4, 88320, Note_on_c, 2, 67, 0
4, 88320, Note_on_c, 2, 69, 100
4, 88440, Note_on_c, 2, 69, 0
4, 88440, Note_on_c, 2, 67, 100
4, 88680, Note_on_c, 2, 67, 0
4, 88680, Note_on_c, 2, 64, 100
4, 88800, Note_on_c, 2, 64, 0
4, 88800, Note_on_c, 2, 67, 100
4, 88920, Note_on_c, 2, 67, 0
4, 88920, Note_on_c, 2, 69, 100
4, 89040, Note_on_c, 2, 69, 0
4, 89040, Note_on_c, 2, 67, 100
4, 89280, Note_on_c, 2, 67, 0
4, 89280, Note_on_c, 2, 65, 100
4, 89400, Note_on_c, 2, 65, 0
4, 89400, Note_on_c, 2, 65, 100
4, 89520, Note_on_c, 2, 65, 0
4, 89520, Note_on_c, 2, 67, 100
4, 89640, Note_on_c, 2, 67, 0
4, 89640, Note_on_c, 2, 65, 100
4, 89880, Note_on_c, 2, 65, 0
4, 89880, Note_on_c, 2, 64, 100
4, 90000, Note_on_c, 2, 64, 0
4, 90000, Note_on_c, 2, 64, 100
4, 90120, Note_on_c, 2, 64, 0
4, 90120, Note_on_c, 2, 65, 100
4, 90240, Note_on_c, 2, 65, 0
4, 90240, Note_on_c, 2, 67, 100
4, 90480, Note_on_c, 2, 67, 0
4, 90480, Note_on_c, 2, 64, 100
4, 90600, Note_on_c, 2, 64, 0
4, 91200, Note_on_c, 2, 64, 100
4, 91320, Note_on_c, 2, 64, 0
4, 91320, Note_on_c, 2, 65, 100
4, 91440, Note_on_c, 2, 65, 0
4, 91440, Note_on_c, 2, 67, 100
4, 91680, Note_on_c, 2, 67, 0
4, 91680, Note_on_c, 2, 64, 100
4, 91800, Note_on_c, 2, 64, 0
4, 92400, Note_on_c, 2, 64, 100
4, 92520, Note_on_c, 2, 64, 0
4, 92520, Note_on_c, 2, 65, 100
4, 92640, Note_on_c, 2, 65, 0
4, 92640, Note_on_c, 2, 67, 100
4, 92880, Note_on_c, 2, 67, 0
4, 92880, Note_on_c, 2, 70, 100
4, 93000, Note_on_c, 2, 70, 0
4, 93000, Note_on_c, 2, 72, 100
4, 93120, Note_on_c, 2, 72, 0
4, 93120, Note_on_c, 2, 70, 100
4, 93240, Note_on_c, 2, 70, 0
4, 93240, Note_on_c, 2, 72, 100
4, 93480, Note_on_c, 2, 72, 0
4, 93480, Note_on_c, 2, 72, 100
4, 93600, Note_on_c, 2, 72, 0
4, 93600, Note_on_c, 2, 67, 100
4, 93720, Note_on_c, 2, 67, 0
4, 93720, Note_on_c, 2, 70, 100
4, 93840, Note_on_c, 2, 70, 0
4, 93840, Note_on_c, 2, 72, 100
4, 94080, Note_on_c, 2, 72, 0
4, 94080, Note_on_c, 2, 75, 100
4, 94200, Note_on_c, 2, 75, 0
4, 94200, Note_on_c, 2, 77, 100
4, 94320, Note_on_c, 2, 77, 0
4, 94320, Note_on_c, 2, 75, 100
4, 94440, Note_on_c, 2, 75, 0
4, 94440, Note_on_c, 2, 77, 100
4, 94680, Note_on_c, 2, 77, 0
4, 94680, Note_on_c, 2, 77, 100
4, 94800, Note_on_c, 2, 77, 0
4, 94800, Note_on_c, 2, 77, 100
4, 94920, Note_on_c, 2, 77, 0
4, 94920, Note_on_c, 2, 75, 100
4, 95040, Note_on_c, 2, 75, 0
4, 95040, Note_on_c, 2, 67, 100
4, 95160, Note_on_c, 2, 67, 0
4, 95160, Note_on_c, 2, 70, 100
4, 95280, Note_on_c, 2, 70, 0
4, 95280, Note_on_c, 2, 72, 100
4, 95400, Note_on_c, 2, 72, 0
4, 95400, Note_on_c, 2, 75, 100
4, 95520, Note_on_c, 2, 75, 0
4, 95520, Note_on_c, 2, 72, 100
4, 95640, Note_on_c, 2, 72, 0
4, 95640, Note_on_c, 2, 65, 100
4, 95760, Note_on_c, 2, 65, 0
4, 95760, Note_on_c, 2, 67, 100
4, 95880, Note_on_c, 2, 67, 0
4, 95880, Note_on_c, 2, 70, 100
4, 96120, Note_on_c, 2, 70, 0
4, 96120, Note_on_c, 2, 67, 100
4, 96240, Note_on_c, 2, 67, 0
4, 96240, Note_on_c, 2, 65, 100
4, 96360, Note_on_c, 2, 65, 0
4, 96360, Note_on_c, 2, 77, 100
4, 96480, Note_on_c, 2, 77, 0
4, 96480, Note_on_c, 2, 75, 100
4, 96600, Note_on_c, 2, 75, 0
4, 96600, Note_on_c, 2, 72, 100
4, 96720, Note_on_c, 2, 72, 0
4, 96720, Note_on_c, 2, 70, 100
4, 96840, Note_on_c, 2, 70, 0
4, 96840, Note_on_c, 2, 67, 100
4, 96960, Note_on_c, 2, 67, 0
4, 96960, Note_on_c, 2, 65, 100
4, 97080, Note_on_c, 2, 65, 0
4, 97080, Note_on_c, 2, 64, 100
4, 97200, Note_on_c, 2, 64, 0
4, 97200, Note_on_c, 2, 64, 100
4, 97320, Note_on_c, 2, 64, 0
4, 97320, Note_on_c, 2, 65, 100
4, 97440, Note_on_c, 2, 65, 0
4, 97440, Note_on_c, 2, 64, 100
4, 97680, Note_on_c, 2, 64, 0
4, 97680, Note_on_c, 2, 60, 100
4, 97800, Note_on_c, 2, 60, 0
4, 97800, Note_on_c, 2, 64, 100
4, 97920, Note_on_c, 2, 64, 0
4, 97920, Note_on_c, 2, 65, 100
4, 98040, Note_on_c, 2, 65, 0
4, 98040, Note_on_c, 2, 64, 100
4, 98280, Note_on_c, 2, 64, 0
4, 98280, Note_on_c, 2, 60, 100
4, 98400, Note_on_c, 2, 60, 0
4, 98400, Note_on_c, 2, 64, 100
4, 98520, Note_on_c, 2, 64, 0
4, 98520, Note_on_c, 2, 65, 100
4, 98640, Note_on_c, 2, 65, 0
4, 98640, Note_on_c, 2, 64, 100
4, 98880, Note_on_c, 2, 64, 0
4, 98880, Note_on_c, 2, 60, 100
4, 99240, Note_on_c, 2, 60, 0
4, 99240, Note_on_c, 2, 58, 100
4, 99298, Note_on_c, 2, 58, 0
4, 99300, Note_on_c, 2, 58, 100
4, 99600, Note_on_c, 2, 58, 0
4, 99600, Note_on_c, 2, 60, 100
4, 101280, Note_on_c, 2, 60, 0
4, 106320, Note_on_c, 2, 64, 100
4, 106560, Note_on_c, 2, 64, 0
4, 106560, Note_on_c, 2, 65, 100
4, 106800, Note_on_c, 2, 65, 0
4, 106800, Note_on_c, 2, 67, 100
4, 107280, Note_on_c, 2, 67, 0
4, 107280, Note_on_c, 2, 70, 100
4, 108480, Note_on_c, 2, 70, 0
4, 108480, Note_on_c, 2, 70, 100
4, 108720, Note_on_c, 2, 70, 0
4, 108720, Note_on_c, 2, 69, 100
4, 109200, Note_on_c, 2, 69, 0
4, 109200, Note_on_c, 2, 64, 100
4, 109680, Note_on_c, 2, 64, 0
4, 109680, Note_on_c, 2, 67, 100
4, 110160, Note_on_c, 2, 67, 0
4, 110160, Note_on_c, 2, 62, 100
4, 110640, Note_on_c, 2, 62, 0
4, 110640, Note_on_c, 2, 67, 100
4, 111120, Note_on_c, 2, 67, 0
4, 111120, Note_on_c, 2, 65, 100
4, 111600, Note_on_c, 2, 65, 0
4, 111600, Note_on_c, 2, 64, 100
4, 112080, Note_on_c, 2, 64, 0
4, 112080, Note_on_c, 2, 64, 100
4, 112320, Note_on_c, 2, 64, 0
4, 112320, Note_on_c, 2, 65, 100
4, 112560, Note_on_c, 2, 65, 0
4, 112560, Note_on_c, 2, 67, 100
4, 113040, Note_on_c, 2, 67, 0
4, 113040, Note_on_c, 2, 70, 100
4, 114240, Note_on_c, 2, 70, 0
4, 114240, Note_on_c, 2, 70, 100
4, 114480, Note_on_c, 2, 70, 0
4, 114480, Note_on_c, 2, 69, 100
4, 114960, Note_on_c, 2, 69, 0
4, 114960, Note_on_c, 2, 64, 100
4, 115440, Note_on_c, 2, 64, 0
4, 115440, Note_on_c, 2, 67, 100
4, 115920, Note_on_c, 2, 67, 0
4, 115920, Note_on_c, 2, 62, 100
4, 116400, Note_on_c, 2, 62, 0
4, 116400, Note_on_c, 2, 67, 100
4, 116880, Note_on_c, 2, 67, 0
4, 116880, Note_on_c, 2, 65, 100
4, 117360, Note_on_c, 2, 65, 0
4, 117360, Note_on_c, 2, 64, 100
4, 117840, Note_on_c, 2, 64, 0
4, 117840, Note_on_c, 2, 64, 100
4, 118080, Note_on_c, 2, 64, 0
4, 118080, Note_on_c, 2, 65, 100
4, 118320, Note_on_c, 2, 65, 0
4, 118320, Note_on_c, 2, 67, 100
4, 118796, Note_on_c, 2, 64, 100
4, 118800, Note_on_c, 2, 67, 0
4, 119276, Note_on_c, 2, 64, 0
4, 119280, Note_on_c, 2, 64, 100
4, 119746, Note_on_c, 2, 64, 100
4, 119760, Note_on_c, 2, 64, 0
4, 119986, Note_on_c, 2, 64, 0
4, 120000, Note_on_c, 2, 65, 100
4, 120240, Note_on_c, 2, 65, 0
4, 120240, Note_on_c, 2, 69, 100
4, 120480, Note_on_c, 2, 69, 0
4, 120490, Note_on_c, 2, 67, 100
4, 120728, Note_on_c, 2, 69, 100
4, 120730, Note_on_c, 2, 67, 0
4, 121676, Note_on_c, 2, 64, 100
4, 121688, Note_on_c, 2, 69, 0
4, 121910, Note_on_c, 2, 65, 100
4, 121916, Note_on_c, 2, 64, 0
4, 122150, Note_on_c, 2, 65, 0
4, 122160, Note_on_c, 2, 69, 100
4, 122374, Note_on_c, 2, 70, 100
4, 122400, Note_on_c, 2, 69, 0
4, 122614, Note_on_c, 2, 70, 0
4, 122632, Note_on_c, 2, 72, 100
4, 123590, Note_on_c, 2, 77, 100
4, 123592, Note_on_c, 2, 72, 0
4, 123596, Note_on_c, 2, 67, 100
4, 123830, Note_on_c, 2, 77, 0
4, 123830, Note_on_c, 2, 77, 100
4, 123836, Note_on_c, 2, 67, 0
4, 123836, Note_on_c, 2, 70, 100
4, 124070, Note_on_c, 2, 77, 0
4, 124076, Note_on_c, 2, 70, 0
4, 124080, Note_on_c, 2, 75, 100
4, 124094, Note_on_c, 2, 72, 100
4, 124308, Note_on_c, 2, 72, 100
4, 124320, Note_on_c, 2, 75, 0
4, 124334, Note_on_c, 2, 72, 0
4, 124428, Note_on_c, 2, 72, 0
4, 124448, Note_on_c, 2, 70, 100
4, 124560, Note_on_c, 2, 72, 100
4, 124568, Note_on_c, 2, 70, 0
4, 124914, Note_on_c, 2, 70, 100
4, 124920, Note_on_c, 2, 72, 0
4, 125034, Note_on_c, 2, 70, 0
4, 125040, Note_on_c, 2, 72, 100
4, 125400, Note_on_c, 2, 72, 0
4, 125400, Note_on_c, 2, 70, 100
4, 125520, Note_on_c, 2, 70, 0
4, 125520, Note_on_c, 2, 72, 100
4, 126480, Note_on_c, 2, 72, 0
4, 126494, Note_on_c, 2, 77, 100
4, 126614, Note_on_c, 2, 77, 0
4, 126614, Note_on_c, 2, 75, 100
4, 126708, Note_on_c, 2, 72, 100
4, 126734, Note_on_c, 2, 75, 0
4, 126828, Note_on_c, 2, 72, 0
4, 126840, Note_on_c, 2, 70, 100
4, 127080, Note_on_c, 2, 70, 0
4, 127092, Note_on_c, 2, 67, 100
4, 127182, Note_on_c, 2, 70, 100
4, 127212, Note_on_c, 2, 67, 0
4, 127422, Note_on_c, 2, 70, 0
4, 127440, Note_on_c, 2, 67, 100
4, 127560, Note_on_c, 2, 67, 0
4, 127560, Note_on_c, 2, 70, 100
4, 127800, Note_on_c, 2, 70, 0
4, 127812, Note_on_c, 2, 67, 100
4, 127852, Note_on_c, 2, 64, 100
4, 127912, Note_on_c, 2, 64, 0
4, 127920, Note_on_c, 2, 65, 100
4, 127932, Note_on_c, 2, 67, 0
4, 128880, Note_on_c, 2, 65, 0
4, 128880, Note_on_c, 2, 77, 100
4, 129000, Note_on_c, 2, 77, 0
4, 129008, Note_on_c, 2, 75, 100
4, 129098, Note_on_c, 2, 72, 100
4, 129128, Note_on_c, 2, 75, 0
4, 129218, Note_on_c, 2, 72, 0
4, 129232, Note_on_c, 2, 70, 100
4, 129352, Note_on_c, 2, 70, 0
4, 129368, Note_on_c, 2, 67, 100
4, 129480, Note_on_c, 2, 65, 100
4, 129488, Note_on_c, 2, 67, 0
4, 129578, Note_on_c, 2, 63, 100
4, 129600, Note_on_c, 2, 65, 0
4, 129698, Note_on_c, 2, 63, 0
4, 129734, Note_on_c, 2, 65, 100
4, 129840, Note_on_c, 2, 65, 100
4, 129854, Note_on_c, 2, 65, 0
4, 130080, Note_on_c, 2, 65, 0
4, 130080, Note_on_c, 2, 69, 100
4, 130320, Note_on_c, 2, 69, 0
4, 130320, Note_on_c, 2, 70, 100
4, 130560, Note_on_c, 2, 70, 0
4, 130560, Note_on_c, 2, 69, 100
4, 130800, Note_on_c, 2, 69, 0
4, 130800, Note_on_c, 2, 72, 100
4, 131040, Note_on_c, 2, 72, 0
4, 131040, Note_on_c, 2, 69, 100
4, 131280, Note_on_c, 2, 69, 0
4, 131280, Note_on_c, 2, 70, 100
4, 131520, Note_on_c, 2, 70, 0
4, 131520, Note_on_c, 2, 69, 100
4, 131760, Note_on_c, 2, 69, 0
4, 131760, Note_on_c, 2, 65, 100
4, 132000, Note_on_c, 2, 65, 0
4, 132000, Note_on_c, 2, 69, 100
4, 132240, Note_on_c, 2, 69, 0
4, 132240, Note_on_c, 2, 67, 100
4, 132480, Note_on_c, 2, 67, 0
4, 132480, Note_on_c, 2, 64, 100
4, 132720, Note_on_c, 2, 64, 0
4, 132720, Note_on_c, 2, 67, 100
4, 132960, Note_on_c, 2, 67, 0
4, 132960, Note_on_c, 2, 65, 100
4, 133200, Note_on_c, 2, 65, 0
4, 133200, Note_on_c, 2, 62, 100
4, 133440, Note_on_c, 2, 62, 0
4, 133440, Note_on_c, 2, 67, 100
4, 133680, Note_on_c, 2, 67, 0
4, 133680, Note_on_c, 2, 65, 100
4, 133920, Note_on_c, 2, 65, 0
4, 133920, Note_on_c, 2, 64, 100
4, 135840, Note_on_c, 2, 64, 0
4, 135840, Note_on_c, 2, 65, 100
4, 136080, Note_on_c, 2, 65, 0
4, 136080, Note_on_c, 2, 69, 100
4, 136320, Note_on_c, 2, 69, 0
4, 136320, Note_on_c, 2, 70, 100
4, 136560, Note_on_c, 2, 70, 0
4, 136560, Note_on_c, 2, 69, 100
4, 136800, Note_on_c, 2, 69, 0
4, 136800, Note_on_c, 2, 72, 100
4, 137040, Note_on_c, 2, 72, 0
4, 137040, Note_on_c, 2, 69, 100
4, 137280, Note_on_c, 2, 69, 0
4, 137280, Note_on_c, 2, 70, 100
4, 137520, Note_on_c, 2, 70, 0
4, 137520, Note_on_c, 2, 69, 100
4, 137760, Note_on_c, 2, 69, 0
4, 137760, Note_on_c, 2, 65, 100
4, 138000, Note_on_c, 2, 65, 0
4, 138000, Note_on_c, 2, 69, 100
4, 138240, Note_on_c, 2, 69, 0
4, 138240, Note_on_c, 2, 67, 100
4, 138480, Note_on_c, 2, 67, 0
4, 138480, Note_on_c, 2, 64, 100
4, 138720, Note_on_c, 2, 64, 0
4, 138720, Note_on_c, 2, 70, 100
4, 138960, Note_on_c, 2, 70, 0
4, 138960, Note_on_c, 2, 69, 100
4, 139200, Note_on_c, 2, 69, 0
4, 139200, Note_on_c, 2, 65, 100
4, 139440, Note_on_c, 2, 65, 0
4, 139440, Note_on_c, 2, 69, 100
4, 139680, Note_on_c, 2, 69, 0
4, 139680, Note_on_c, 2, 67, 100
4, 139920, Note_on_c, 2, 67, 0
4, 139920, Note_on_c, 2, 64, 100
4, 140160, Note_on_c, 2, 64, 0
4, 140160, Note_on_c, 2, 67, 100
4, 140400, Note_on_c, 2, 67, 0
4, 140400, Note_on_c, 2, 65, 100
4, 140640, Note_on_c, 2, 65, 0
4, 140640, Note_on_c, 2, 64, 100
4, 140880, Note_on_c, 2, 64, 0
4, 140880, Note_on_c, 2, 62, 100
4, 141576, Note_on_c, 2, 60, 100
4, 141600, Note_on_c, 2, 62, 0
4, 141636, Note_on_c, 2, 60, 0
4, 141660, Note_on_c, 2, 58, 100
4, 141900, Note_on_c, 2, 58, 100
4, 142020, Note_on_c, 2, 58, 0
4, 142060, Note_on_c, 2, 60, 100
4, 142199, Note_on_c, 2, 58, 0
4, 143260, Note_on_c, 2, 60, 0
4, 143260, End_track
5, 0, Start_track
5, 0, MIDI_port, 0
5, 0, Title_t, "Strings"
5, 0, Program_c, 3, 50
5, 0, Control_c, 3, 7, 110
5, 0, Control_c, 3, 10, 35
5, 0, Control_c, 3, 91, 100
5, 0, Control_c, 3, 93, 0
5, 0, Control_c, 3, 123, 0
5, 31706, Note_on_c, 3, 60, 100
5, 31894, Note_on_c, 3, 58, 100
5, 31946, Note_on_c, 3, 60, 0
5, 32134, Note_on_c, 3, 58, 0
5, 32156, Note_on_c, 3, 55, 100
5, 32396, Note_on_c, 3, 55, 0
5, 32400, Note_on_c, 3, 53, 100
5, 32626, Note_on_c, 3, 52, 100
5, 32640, Note_on_c, 3, 53, 0
5, 32866, Note_on_c, 3, 52, 0
5, 33360, Note_on_c, 3, 48, 100
5, 33360, Note_on_c, 3, 60, 100
5, 33480, Note_on_c, 3, 60, 0
5, 33480, Note_on_c, 3, 48, 0
5, 33480, Note_on_c, 3, 50, 100
5, 33480, Note_on_c, 3, 62, 100
5, 33600, Note_on_c, 3, 62, 0
5, 33600, Note_on_c, 3, 50, 0
5, 33600, Note_on_c, 3, 52, 100
5, 33600, Note_on_c, 3, 64, 100
5, 33720, Note_on_c, 3, 64, 0
5, 33720, Note_on_c, 3, 52, 0
5, 33720, Note_on_c, 3, 65, 100
5, 33720, Note_on_c, 3, 53, 100
5, 33840, Note_on_c, 3, 53, 0
5, 33840, Note_on_c, 3, 65, 0
5, 33840, Note_on_c, 3, 55, 100
5, 33840, Note_on_c, 3, 67, 100
5, 37200, Note_on_c, 3, 67, 0
5, 37200, Note_on_c, 3, 55, 0
5, 37200, Note_on_c, 3, 57, 100
5, 37200, Note_on_c, 3, 69, 100
5, 37440, Note_on_c, 3, 69, 0
5, 37440, Note_on_c, 3, 57, 0
5, 37440, Note_on_c, 3, 55, 100
5, 37440, Note_on_c, 3, 67, 100
5, 37680, Note_on_c, 3, 67, 0
5, 37680, Note_on_c, 3, 55, 0
5, 37680, Note_on_c, 3, 53, 100
5, 37680, Note_on_c, 3, 65, 100
5, 37920, Note_on_c, 3, 65, 0
5, 37920, Note_on_c, 3, 53, 0
5, 37920, Note_on_c, 3, 55, 100
5, 37920, Note_on_c, 3, 67, 100
5, 38160, Note_on_c, 3, 67, 0
5, 38160, Note_on_c, 3, 55, 0
5, 38160, Note_on_c, 3, 48, 100
5, 38160, Note_on_c, 3, 64, 100
5, 39120, Note_on_c, 3, 64, 0
5, 39120, Note_on_c, 3, 48, 0
5, 39120, Note_on_c, 3, 48, 100
5, 39120, Note_on_c, 3, 60, 100
5, 39240, Note_on_c, 3, 60, 0
5, 39240, Note_on_c, 3, 48, 0
5, 39240, Note_on_c, 3, 50, 100
5, 39240, Note_on_c, 3, 62, 100
5, 39360, Note_on_c, 3, 62, 0
5, 39360, Note_on_c, 3, 50, 0
5, 39360, Note_on_c, 3, 52, 100
5, 39360, Note_on_c, 3, 64, 100
5, 39480, Note_on_c, 3, 64, 0
5, 39480, Note_on_c, 3, 52, 0
5, 39480, Note_on_c, 3, 65, 100
5, 39480, Note_on_c, 3, 53, 100
5, 39600, Note_on_c, 3, 53, 0
5, 39600, Note_on_c, 3, 65, 0
5, 39600, Note_on_c, 3, 55, 100
5, 39600, Note_on_c, 3, 67, 100
5, 42960, Note_on_c, 3, 67, 0
5, 42960, Note_on_c, 3, 55, 0
5, 42960, Note_on_c, 3, 57, 100
5, 42960, Note_on_c, 3, 69, 100
5, 43200, Note_on_c, 3, 69, 0
5, 43200, Note_on_c, 3, 57, 0
5, 43200, Note_on_c, 3, 55, 100
5, 43200, Note_on_c, 3, 67, 100
5, 43440, Note_on_c, 3, 67, 0
5, 43440, Note_on_c, 3, 55, 0
5, 43440, Note_on_c, 3, 53, 100
5, 43440, Note_on_c, 3, 65, 100
5, 43680, Note_on_c, 3, 65, 0
5, 43680, Note_on_c, 3, 53, 0
5, 43680, Note_on_c, 3, 55, 100
5, 43680, Note_on_c, 3, 67, 100
5, 43920, Note_on_c, 3, 67, 0
5, 43920, Note_on_c, 3, 55, 0
5, 43920, Note_on_c, 3, 48, 100
5, 43920, Note_on_c, 3, 64, 100
5, 44880, Note_on_c, 3, 64, 0
5, 44880, Note_on_c, 3, 48, 0
5, 45360, Note_on_c, 3, 48, 100
5, 45360, Note_on_c, 3, 64, 100
5, 45600, Note_on_c, 3, 64, 0
5, 45600, Note_on_c, 3, 48, 0
5, 45600, Note_on_c, 3, 50, 100
5, 45600, Note_on_c, 3, 65, 100
5, 45840, Note_on_c, 3, 65, 0
5, 45840, Note_on_c, 3, 50, 0
5, 45840, Note_on_c, 3, 55, 100
5, 45840, Note_on_c, 3, 67, 100
5, 46320, Note_on_c, 3, 67, 0
5, 46320, Note_on_c, 3, 55, 0
5, 46320, Note_on_c, 3, 48, 100
5, 46320, Note_on_c, 3, 64, 100
5, 46560, Note_on_c, 3, 64, 0
5, 46560, Note_on_c, 3, 48, 0
5, 46560, Note_on_c, 3, 50, 100
5, 46560, Note_on_c, 3, 65, 100
5, 46800, Note_on_c, 3, 65, 0
5, 46800, Note_on_c, 3, 50, 0
5, 46800, Note_on_c, 3, 55, 100
5, 46800, Note_on_c, 3, 67, 100
5, 47040, Note_on_c, 3, 67, 0
5, 47040, Note_on_c, 3, 55, 0
5, 47040, Note_on_c, 3, 58, 100
5, 47040, Note_on_c, 3, 70, 100
5, 47280, Note_on_c, 3, 70, 0
5, 47280, Note_on_c, 3, 58, 0
5, 47280, Note_on_c, 3, 48, 100
5, 47280, Note_on_c, 3, 64, 100
5, 47520, Note_on_c, 3, 64, 0
5, 47520, Note_on_c, 3, 48, 0
5, 47520, Note_on_c, 3, 50, 100
5, 47520, Note_on_c, 3, 65, 100
5, 47760, Note_on_c, 3, 65, 0
5, 47760, Note_on_c, 3, 50, 0
5, 47760, Note_on_c, 3, 55, 100
5, 47760, Note_on_c, 3, 67, 100
5, 48000, Note_on_c, 3, 67, 0
5, 48000, Note_on_c, 3, 55, 0
5, 48000, Note_on_c, 3, 58, 100
5, 48000, Note_on_c, 3, 70, 100
5, 48240, Note_on_c, 3, 70, 0
5, 48240, Note_on_c, 3, 58, 0
5, 48240, Note_on_c, 3, 60, 100
5, 48240, Note_on_c, 3, 72, 100
5, 51120, Note_on_c, 3, 72, 0
5, 51120, Note_on_c, 3, 60, 0
5, 51120, Note_on_c, 3, 65, 100
5, 51240, Note_on_c, 3, 65, 0
5, 51240, Note_on_c, 3, 63, 100
5, 51360, Note_on_c, 3, 63, 0
5, 51360, Note_on_c, 3, 60, 100
5, 51480, Note_on_c, 3, 60, 0
5, 51486, Note_on_c, 3, 58, 100
5, 51718, Note_on_c, 3, 55, 100
5, 51726, Note_on_c, 3, 58, 0
5, 51838, Note_on_c, 3, 55, 0
5, 51838, Note_on_c, 3, 58, 100
5, 52078, Note_on_c, 3, 58, 0
5, 52086, Note_on_c, 3, 55, 100
5, 52206, Note_on_c, 3, 55, 0
5, 52206, Note_on_c, 3, 58, 100
5, 52560, Note_on_c, 3, 53, 100
5, 52566, Note_on_c, 3, 58, 0
5, 53520, Note_on_c, 3, 53, 0
5, 54000, Note_on_c, 3, 48, 100
5, 58320, Note_on_c, 3, 84, 100
5, 58560, Note_on_c, 3, 84, 0
5, 58560, Note_on_c, 3, 82, 100
5, 58800, Note_on_c, 3, 82, 0
5, 58800, Note_on_c, 3, 79, 100
5, 59040, Note_on_c, 3, 79, 0
5, 59040, Note_on_c, 3, 48, 0
5, 59040, Note_on_c, 3, 48, 100
5, 59040, Note_on_c, 3, 82, 100
5, 59280, Note_on_c, 3, 82, 0
5, 59280, Note_on_c, 3, 48, 0
5, 59280, Note_on_c, 3, 48, 100
5, 59280, Note_on_c, 3, 79, 100
5, 59520, Note_on_c, 3, 79, 0
5, 59520, Note_on_c, 3, 48, 0
5, 59520, Note_on_c, 3, 48, 100
5, 59520, Note_on_c, 3, 77, 100
5, 59760, Note_on_c, 3, 77, 0
5, 59760, Note_on_c, 3, 48, 0
5, 59760, Note_on_c, 3, 48, 100
5, 59760, Note_on_c, 3, 76, 100
5, 60000, Note_on_c, 3, 76, 0
5, 60000, Note_on_c, 3, 48, 0
5, 60000, Note_on_c, 3, 48, 100
5, 60000, Note_on_c, 3, 77, 100
5, 62640, Note_on_c, 3, 77, 0
5, 62640, Note_on_c, 3, 48, 0
5, 62640, Note_on_c, 3, 76, 100
5, 62880, Note_on_c, 3, 76, 0
5, 62880, Note_on_c, 3, 82, 100
5, 62880, Note_on_c, 3, 48, 100
5, 63120, Note_on_c, 3, 82, 0
5, 63120, Note_on_c, 3, 81, 100
5, 63360, Note_on_c, 3, 81, 0
5, 63360, Note_on_c, 3, 77, 100
5, 63600, Note_on_c, 3, 77, 0
5, 63600, Note_on_c, 3, 48, 0
5, 63600, Note_on_c, 3, 81, 100
5, 63600, Note_on_c, 3, 48, 100
5, 63840, Note_on_c, 3, 81, 0
5, 63840, Note_on_c, 3, 79, 100
5, 64080, Note_on_c, 3, 79, 0
5, 64080, Note_on_c, 3, 48, 0
5, 64080, Note_on_c, 3, 48, 100
5, 64080, Note_on_c, 3, 76, 100
5, 64320, Note_on_c, 3, 76, 0
5, 64320, Note_on_c, 3, 48, 0
5, 64320, Note_on_c, 3, 48, 100
5, 64320, Note_on_c, 3, 79, 100
5, 64560, Note_on_c, 3, 79, 0
5, 64560, Note_on_c, 3, 48, 0
5, 64560, Note_on_c, 3, 48, 100
5, 64560, Note_on_c, 3, 77, 100
5, 64800, Note_on_c, 3, 77, 0
5, 64800, Note_on_c, 3, 48, 0
5, 64800, Note_on_c, 3, 48, 100
5, 64800, Note_on_c, 3, 76, 100
5, 65040, Note_on_c, 3, 76, 0
5, 65040, Note_on_c, 3, 48, 0
5, 65040, Note_on_c, 3, 74, 100
5, 65040, Note_on_c, 3, 48, 100
5, 66000, Note_on_c, 3, 48, 0
5, 66000, Note_on_c, 3, 74, 0
5, 75600, Note_on_c, 3, 84, 100
5, 75720, Note_on_c, 3, 84, 0
5, 75840, Note_on_c, 3, 84, 100
5, 75960, Note_on_c, 3, 84, 0
5, 75960, Note_on_c, 3, 84, 100
5, 76080, Note_on_c, 3, 84, 0
5, 76200, Note_on_c, 3, 84, 100
5, 76320, Note_on_c, 3, 84, 0
5, 76440, Note_on_c, 3, 84, 100
5, 76560, Note_on_c, 3, 84, 0
5, 76560, Note_on_c, 3, 84, 100
5, 76680, Note_on_c, 3, 84, 0
5, 76800, Note_on_c, 3, 84, 100
5, 76920, Note_on_c, 3, 84, 0
5, 77040, Note_on_c, 3, 84, 100
5, 77160, Note_on_c, 3, 84, 0
5, 77160, Note_on_c, 3, 84, 100
5, 77280, Note_on_c, 3, 84, 0
5, 77400, Note_on_c, 3, 84, 100
5, 77520, Note_on_c, 3, 84, 0
5, 77640, Note_on_c, 3, 84, 100
5, 77760, Note_on_c, 3, 84, 0
5, 77760, Note_on_c, 3, 84, 100
5, 77880, Note_on_c, 3, 84, 0
5, 78002, Note_on_c, 3, 84, 100
5, 78122, Note_on_c, 3, 84, 0
5, 78242, Note_on_c, 3, 84, 100
5, 78362, Note_on_c, 3, 84, 0
5, 78362, Note_on_c, 3, 84, 100
5, 78482, Note_on_c, 3, 84, 0
5, 78602, Note_on_c, 3, 84, 100
5, 78722, Note_on_c, 3, 84, 0
5, 78842, Note_on_c, 3, 84, 100
5, 78962, Note_on_c, 3, 84, 0
5, 78962, Note_on_c, 3, 84, 100
5, 79082, Note_on_c, 3, 84, 0
5, 79204, Note_on_c, 3, 84, 100
5, 79324, Note_on_c, 3, 84, 0
5, 79444, Note_on_c, 3, 84, 100
5, 79564, Note_on_c, 3, 84, 0
5, 79564, Note_on_c, 3, 84, 100
5, 79684, Note_on_c, 3, 84, 0
5, 79804, Note_on_c, 3, 84, 100
5, 79924, Note_on_c, 3, 84, 0
5, 80044, Note_on_c, 3, 84, 100
5, 80164, Note_on_c, 3, 84, 0
5, 80164, Note_on_c, 3, 84, 100
5, 80284, Note_on_c, 3, 84, 0
5, 80406, Note_on_c, 3, 84, 100
5, 80526, Note_on_c, 3, 84, 0
5, 80646, Note_on_c, 3, 84, 100
5, 80766, Note_on_c, 3, 84, 0
5, 80766, Note_on_c, 3, 84, 100
5, 80886, Note_on_c, 3, 84, 0
5, 81006, Note_on_c, 3, 84, 100
5, 81126, Note_on_c, 3, 84, 0
5, 81246, Note_on_c, 3, 84, 100
5, 81366, Note_on_c, 3, 84, 0
5, 81366, Note_on_c, 3, 84, 100
5, 81486, Note_on_c, 3, 84, 0
5, 81600, Note_on_c, 3, 58, 100
5, 81720, Note_on_c, 3, 58, 0
5, 81720, Note_on_c, 3, 55, 100
5, 81822, Note_on_c, 3, 53, 100
5, 81840, Note_on_c, 3, 55, 0
5, 81942, Note_on_c, 3, 53, 0
5, 81960, Note_on_c, 3, 65, 100
5, 82068, Note_on_c, 3, 63, 100
5, 82080, Note_on_c, 3, 65, 0
5, 82188, Note_on_c, 3, 63, 0
5, 82188, Note_on_c, 3, 60, 100
5, 82308, Note_on_c, 3, 60, 0
5, 82308, Note_on_c, 3, 58, 100
5, 82428, Note_on_c, 3, 58, 0
5, 82446, Note_on_c, 3, 55, 100
5, 82538, Note_on_c, 3, 53, 100
5, 82566, Note_on_c, 3, 55, 0
5, 82658, Note_on_c, 3, 53, 0
5, 82666, Note_on_c, 3, 52, 100
5, 82786, Note_on_c, 3, 52, 0
5, 82800, Note_on_c, 3, 52, 100
5, 82822, Note_on_c, 3, 64, 100
5, 82906, Note_on_c, 3, 53, 100
5, 82920, Note_on_c, 3, 52, 0
5, 82942, Note_on_c, 3, 64, 0
5, 82942, Note_on_c, 3, 65, 100
5, 83026, Note_on_c, 3, 53, 0
5, 83026, Note_on_c, 3, 55, 100
5, 83048, Note_on_c, 3, 67, 100
5, 83062, Note_on_c, 3, 65, 0
5, 83146, Note_on_c, 3, 55, 0
5, 83152, Note_on_c, 3, 58, 100
5, 83168, Note_on_c, 3, 67, 0
5, 83174, Note_on_c, 3, 70, 100
5, 83272, Note_on_c, 3, 58, 0
5, 83294, Note_on_c, 3, 70, 0
5, 84000, Note_on_c, 3, 69, 100
5, 84000, Note_on_c, 3, 57, 100
5, 84120, Note_on_c, 3, 57, 0
5, 84120, Note_on_c, 3, 69, 0
5, 84120, Note_on_c, 3, 70, 100
5, 84120, Note_on_c, 3, 58, 100
5, 84240, Note_on_c, 3, 58, 0
5, 84240, Note_on_c, 3, 70, 0
5, 84240, Note_on_c, 3, 69, 100
5, 84240, Note_on_c, 3, 57, 100
5, 84480, Note_on_c, 3, 57, 0
5, 84480, Note_on_c, 3, 69, 0
5, 84480, Note_on_c, 3, 64, 100
5, 84480, Note_on_c, 3, 52, 100
5, 84600, Note_on_c, 3, 52, 0
5, 84600, Note_on_c, 3, 64, 0
5, 84600, Note_on_c, 3, 67, 100
5, 84600, Note_on_c, 3, 55, 100
5, 84720, Note_on_c, 3, 55, 0
5, 84720, Note_on_c, 3, 67, 0
5, 84720, Note_on_c, 3, 69, 100
5, 84720, Note_on_c, 3, 57, 100
5, 84840, Note_on_c, 3, 57, 0
5, 84840, Note_on_c, 3, 69, 0
5, 84840, Note_on_c, 3, 67, 100
5, 84840, Note_on_c, 3, 55, 100
5, 85080, Note_on_c, 3, 55, 0
5, 85080, Note_on_c, 3, 67, 0
5, 85080, Note_on_c, 3, 62, 100
5, 85080, Note_on_c, 3, 50, 100
5, 85200, Note_on_c, 3, 50, 0
5, 85200, Note_on_c, 3, 62, 0
5, 85200, Note_on_c, 3, 67, 100
5, 85200, Note_on_c, 3, 55, 100
5, 85320, Note_on_c, 3, 55, 0
5, 85320, Note_on_c, 3, 67, 0
5, 85320, Note_on_c, 3, 69, 100
5, 85320, Note_on_c, 3, 57, 100
5, 85440, Note_on_c, 3, 57, 0
5, 85440, Note_on_c, 3, 69, 0
5, 85440, Note_on_c, 3, 67, 100
5, 85440, Note_on_c, 3, 55, 100
5, 85680, Note_on_c, 3, 55, 0
5, 85680, Note_on_c, 3, 67, 0
5, 85680, Note_on_c, 3, 65, 100
5, 85680, Note_on_c, 3, 53, 100
5, 85800, Note_on_c, 3, 53, 0
5, 85800, Note_on_c, 3, 65, 0
5, 85800, Note_on_c, 3, 65, 100
5, 85800, Note_on_c, 3, 53, 100
5, 85920, Note_on_c, 3, 53, 0
5, 85920, Note_on_c, 3, 65, 0
5, 85920, Note_on_c, 3, 67, 100
5, 85920, Note_on_c, 3, 55, 100
5, 86040, Note_on_c, 3, 55, 0
5, 86040, Note_on_c, 3, 67, 0
5, 86040, Note_on_c, 3, 65, 100
5, 86040, Note_on_c, 3, 53, 100
5, 86280, Note_on_c, 3, 53, 0
5, 86280, Note_on_c, 3, 65, 0
5, 86280, Note_on_c, 3, 64, 100
5, 86280, Note_on_c, 3, 52, 100
5, 86400, Note_on_c, 3, 52, 0
5, 86400, Note_on_c, 3, 64, 0
5, 86400, Note_on_c, 3, 64, 100
5, 86400, Note_on_c, 3, 52, 100
5, 86520, Note_on_c, 3, 52, 0
5, 86520, Note_on_c, 3, 64, 0
5, 86520, Note_on_c, 3, 65, 100
5, 86520, Note_on_c, 3, 53, 100
5, 86640, Note_on_c, 3, 53, 0
5, 86640, Note_on_c, 3, 65, 0
5, 86640, Note_on_c, 3, 67, 100
5, 86640, Note_on_c, 3, 55, 100
5, 86760, Note_on_c, 3, 55, 0
5, 86760, Note_on_c, 3, 67, 0
5, 86760, Note_on_c, 3, 70, 100
5, 86760, Note_on_c, 3, 58, 100
5, 86880, Note_on_c, 3, 58, 0
5, 86880, Note_on_c, 3, 70, 0
5, 87600, Note_on_c, 3, 67, 100
5, 87600, Note_on_c, 3, 55, 100
5, 87720, Note_on_c, 3, 55, 0
5, 87720, Note_on_c, 3, 67, 0
5, 87720, Note_on_c, 3, 70, 100
5, 87720, Note_on_c, 3, 58, 100
5, 87840, Note_on_c, 3, 58, 0
5, 87840, Note_on_c, 3, 70, 0
5, 87840, Note_on_c, 3, 69, 100
5, 87840, Note_on_c, 3, 57, 100
5, 88080, Note_on_c, 3, 57, 0
5, 88080, Note_on_c, 3, 69, 0
5, 88080, Note_on_c, 3, 64, 100
5, 88080, Note_on_c, 3, 52, 100
5, 88200, Note_on_c, 3, 52, 0
5, 88200, Note_on_c, 3, 64, 0
5, 88200, Note_on_c, 3, 67, 100
5, 88200, Note_on_c, 3, 55, 100
5, 88320, Note_on_c, 3, 55, 0
5, 88320, Note_on_c, 3, 67, 0
5, 88320, Note_on_c, 3, 69, 100
5, 88320, Note_on_c, 3, 57, 100
5, 88440, Note_on_c, 3, 57, 0
5, 88440, Note_on_c, 3, 69, 0
5, 88440, Note_on_c, 3, 67, 100
5, 88440, Note_on_c, 3, 55, 100
5, 88680, Note_on_c, 3, 55, 0
5, 88680, Note_on_c, 3, 67, 0
5, 88680, Note_on_c, 3, 64, 100
5, 88680, Note_on_c, 3, 52, 100
5, 88800, Note_on_c, 3, 52, 0
5, 88800, Note_on_c, 3, 64, 0
5, 88800, Note_on_c, 3, 67, 100
5, 88800, Note_on_c, 3, 55, 100
5, 88920, Note_on_c, 3, 55, 0
5, 88920, Note_on_c, 3, 67, 0
5, 88920, Note_on_c, 3, 69, 100
5, 88920, Note_on_c, 3, 57, 100
5, 89040, Note_on_c, 3, 57, 0
5, 89040, Note_on_c, 3, 69, 0
5, 89040, Note_on_c, 3, 67, 100
5, 89040, Note_on_c, 3, 55, 100
5, 89280, Note_on_c, 3, 55, 0
5, 89280, Note_on_c, 3, 67, 0
5, 89280, Note_on_c, 3, 65, 100
5, 89280, Note_on_c, 3, 53, 100
5, 89400, Note_on_c, 3, 53, 0
5, 89400, Note_on_c, 3, 65, 0
5, 89400, Note_on_c, 3, 65, 100
5, 89400, Note_on_c, 3, 53, 100
5, 89520, Note_on_c, 3, 53, 0
5, 89520, Note_on_c, 3, 65, 0
5, 89520, Note_on_c, 3, 67, 100
5, 89520, Note_on_c, 3, 55, 100
5, 89640, Note_on_c, 3, 55, 0
5, 89640, Note_on_c, 3, 67, 0
5, 89640, Note_on_c, 3, 65, 100
5, 89640, Note_on_c, 3, 53, 100
5, 89880, Note_on_c, 3, 53, 0
5, 89880, Note_on_c, 3, 65, 0
5, 89880, Note_on_c, 3, 64, 100
5, 89880, Note_on_c, 3, 52, 100
5, 90000, Note_on_c, 3, 52, 0
5, 90000, Note_on_c, 3, 64, 0
5, 90000, Note_on_c, 3, 64, 100
5, 90000, Note_on_c, 3, 52, 100
5, 90120, Note_on_c, 3, 52, 0
5, 90120, Note_on_c, 3, 64, 0
5, 90120, Note_on_c, 3, 65, 100
5, 90120, Note_on_c, 3, 53, 100
5, 90240, Note_on_c, 3, 53, 0
5, 90240, Note_on_c, 3, 65, 0
5, 90240, Note_on_c, 3, 67, 100
5, 90240, Note_on_c, 3, 55, 100
5, 90480, Note_on_c, 3, 55, 0
5, 90480, Note_on_c, 3, 67, 0
5, 90480, Note_on_c, 3, 64, 100
5, 90480, Note_on_c, 3, 52, 100
5, 90600, Note_on_c, 3, 52, 0
5, 90600, Note_on_c, 3, 64, 0
5, 91200, Note_on_c, 3, 64, 100
5, 91200, Note_on_c, 3, 52, 100
5, 91320, Note_on_c, 3, 52, 0
5, 91320, Note_on_c, 3, 64, 0
5, 91320, Note_on_c, 3, 65, 100
5, 91320, Note_on_c, 3, 53, 100
5, 91440, Note_on_c, 3, 53, 0
5, 91440, Note_on_c, 3, 65, 0
5, 91440, Note_on_c, 3, 67, 100
5, 91440, Note_on_c, 3, 55, 100
5, 91680, Note_on_c, 3, 55, 0
5, 91680, Note_on_c, 3, 67, 0
5, 91680, Note_on_c, 3, 64, 100
5, 91680, Note_on_c, 3, 52, 100
5, 91800, Note_on_c, 3, 52, 0
5, 91800, Note_on_c, 3, 64, 0
5, 92400, Note_on_c, 3, 64, 100
5, 92400, Note_on_c, 3, 52, 100
5, 92520, Note_on_c, 3, 52, 0
5, 92520, Note_on_c, 3, 64, 0
5, 92520, Note_on_c, 3, 65, 100
5, 92520, Note_on_c, 3, 53, 100
5, 92640, Note_on_c, 3, 53, 0
5, 92640, Note_on_c, 3, 65, 0
5, 92640, Note_on_c, 3, 67, 100
5, 92640, Note_on_c, 3, 55, 100
5, 92880, Note_on_c, 3, 55, 0
5, 92880, Note_on_c, 3, 67, 0
5, 92880, Note_on_c, 3, 70, 100
5, 92880, Note_on_c, 3, 58, 100
5, 93000, Note_on_c, 3, 58, 0
5, 93000, Note_on_c, 3, 70, 0
5, 93000, Note_on_c, 3, 72, 100
5, 93000, Note_on_c, 3, 60, 100
5, 93120, Note_on_c, 3, 60, 0
5, 93120, Note_on_c, 3, 72, 0
5, 93120, Note_on_c, 3, 70, 100
5, 93120, Note_on_c, 3, 58, 100
5, 93240, Note_on_c, 3, 58, 0
5, 93240, Note_on_c, 3, 70, 0
5, 93240, Note_on_c, 3, 72, 100
5, 93240, Note_on_c, 3, 60, 100
5, 93480, Note_on_c, 3, 60, 0
5, 93480, Note_on_c, 3, 72, 0
5, 93480, Note_on_c, 3, 72, 100
5, 93480, Note_on_c, 3, 60, 100
5, 93600, Note_on_c, 3, 60, 0
5, 93600, Note_on_c, 3, 72, 0
5, 93600, Note_on_c, 3, 67, 100
5, 93600, Note_on_c, 3, 55, 100
5, 93720, Note_on_c, 3, 55, 0
5, 93720, Note_on_c, 3, 67, 0
5, 93720, Note_on_c, 3, 70, 100
5, 93720, Note_on_c, 3, 58, 100
5, 93840, Note_on_c, 3, 58, 0
5, 93840, Note_on_c, 3, 70, 0
5, 93840, Note_on_c, 3, 72, 100
5, 93840, Note_on_c, 3, 60, 100
5, 94080, Note_on_c, 3, 60, 0
5, 94080, Note_on_c, 3, 72, 0
5, 94080, Note_on_c, 3, 75, 100
5, 94080, Note_on_c, 3, 63, 100
5, 94200, Note_on_c, 3, 63, 0
5, 94200, Note_on_c, 3, 75, 0
5, 94200, Note_on_c, 3, 77, 100
5, 94200, Note_on_c, 3, 65, 100
5, 94320, Note_on_c, 3, 65, 0
5, 94320, Note_on_c, 3, 77, 0
5, 94320, Note_on_c, 3, 75, 100
5, 94320, Note_on_c, 3, 63, 100
5, 94440, Note_on_c, 3, 63, 0
5, 94440, Note_on_c, 3, 75, 0
5, 94440, Note_on_c, 3, 77, 100
5, 94440, Note_on_c, 3, 65, 100
5, 94680, Note_on_c, 3, 65, 0
5, 94680, Note_on_c, 3, 77, 0
5, 94680, Note_on_c, 3, 77, 100
5, 94680, Note_on_c, 3, 65, 100
5, 94800, Note_on_c, 3, 65, 0
5, 94800, Note_on_c, 3, 77, 0
5, 94800, Note_on_c, 3, 77, 100
5, 94800, Note_on_c, 3, 65, 100
5, 94920, Note_on_c, 3, 65, 0
5, 94920, Note_on_c, 3, 77, 0
5, 94920, Note_on_c, 3, 75, 100
5, 94920, Note_on_c, 3, 63, 100
5, 95040, Note_on_c, 3, 63, 0
5, 95040, Note_on_c, 3, 75, 0
5, 95040, Note_on_c, 3, 67, 100
5, 95040, Note_on_c, 3, 55, 100
5, 95160, Note_on_c, 3, 55, 0
5, 95160, Note_on_c, 3, 67, 0
5, 95160, Note_on_c, 3, 70, 100
5, 95160, Note_on_c, 3, 58, 100
5, 95280, Note_on_c, 3, 58, 0
5, 95280, Note_on_c, 3, 70, 0
5, 95280, Note_on_c, 3, 72, 100
5, 95280, Note_on_c, 3, 60, 100
5, 95400, Note_on_c, 3, 60, 0
5, 95400, Note_on_c, 3, 72, 0
5, 95400, Note_on_c, 3, 75, 100
5, 95400, Note_on_c, 3, 63, 100
5, 95520, Note_on_c, 3, 63, 0
5, 95520, Note_on_c, 3, 75, 0
5, 95520, Note_on_c, 3, 72, 100
5, 95520, Note_on_c, 3, 60, 100
5, 95640, Note_on_c, 3, 60, 0
5, 95640, Note_on_c, 3, 72, 0
5, 95640, Note_on_c, 3, 65, 100
5, 95640, Note_on_c, 3, 53, 100
5, 95760, Note_on_c, 3, 53, 0
5, 95760, Note_on_c, 3, 65, 0
5, 95760, Note_on_c, 3, 67, 100
5, 95760, Note_on_c, 3, 55, 100
5, 95880, Note_on_c, 3, 55, 0
5, 95880, Note_on_c, 3, 67, 0
5, 95880, Note_on_c, 3, 70, 100
5, 95880, Note_on_c, 3, 58, 100
5, 96120, Note_on_c, 3, 58, 0
5, 96120, Note_on_c, 3, 70, 0
5, 96120, Note_on_c, 3, 67, 100
5, 96120, Note_on_c, 3, 55, 100
5, 96240, Note_on_c, 3, 55, 0
5, 96240, Note_on_c, 3, 67, 0
5, 96240, Note_on_c, 3, 65, 100
5, 96240, Note_on_c, 3, 53, 100
5, 96360, Note_on_c, 3, 53, 0
5, 96360, Note_on_c, 3, 65, 0
5, 96360, Note_on_c, 3, 77, 100
5, 96360, Note_on_c, 3, 65, 100
5, 96480, Note_on_c, 3, 65, 0
5, 96480, Note_on_c, 3, 77, 0
5, 96480, Note_on_c, 3, 75, 100
5, 96480, Note_on_c, 3, 63, 100
5, 96600, Note_on_c, 3, 63, 0
5, 96600, Note_on_c, 3, 75, 0
5, 96600, Note_on_c, 3, 72, 100
5, 96600, Note_on_c, 3, 60, 100
5, 96720, Note_on_c, 3, 60, 0
5, 96720, Note_on_c, 3, 72, 0
5, 96720, Note_on_c, 3, 70, 100
5, 96720, Note_on_c, 3, 58, 100
5, 96840, Note_on_c, 3, 58, 0
5, 96840, Note_on_c, 3, 70, 0
5, 96840, Note_on_c, 3, 67, 100
5, 96840, Note_on_c, 3, 55, 100
5, 96960, Note_on_c, 3, 55, 0
5, 96960, Note_on_c, 3, 67, 0
5, 96960, Note_on_c, 3, 65, 100
5, 96960, Note_on_c, 3, 53, 100
5, 97080, Note_on_c, 3, 53, 0
5, 97080, Note_on_c, 3, 65, 0
5, 97080, Note_on_c, 3, 64, 100
5, 97080, Note_on_c, 3, 52, 100
5, 97200, Note_on_c, 3, 52, 0
5, 97200, Note_on_c, 3, 64, 0
5, 101320, Note_on_c, 3, 60, 100
5, 101380, Note_on_c, 3, 60, 0
5, 101410, Note_on_c, 3, 58, 100
5, 101458, Note_on_c, 3, 55, 100
5, 101470, Note_on_c, 3, 58, 0
5, 101518, Note_on_c, 3, 55, 0
5, 101518, Note_on_c, 3, 58, 100
5, 101578, Note_on_c, 3, 58, 0
5, 101578, Note_on_c, 3, 55, 100
5, 101638, Note_on_c, 3, 55, 0
5, 101640, Note_on_c, 3, 53, 100
5, 101700, Note_on_c, 3, 53, 0
5, 101702, Note_on_c, 3, 52, 100
5, 101752, Note_on_c, 3, 48, 100
5, 101762, Note_on_c, 3, 52, 0
5, 101812, Note_on_c, 3, 48, 0
5, 101812, Note_on_c, 3, 52, 100
5, 101872, Note_on_c, 3, 52, 0
5, 101878, Note_on_c, 3, 53, 100
5, 101938, Note_on_c, 3, 53, 0
5, 101946, Note_on_c, 3, 52, 100
5, 101994, Note_on_c, 3, 48, 100
5, 102006, Note_on_c, 3, 52, 0
5, 102054, Note_on_c, 3, 48, 0
5, 102054, Note_on_c, 3, 46, 100
5, 102114, Note_on_c, 3, 46, 0
5, 102118, Note_on_c, 3, 43, 100
5, 102178, Note_on_c, 3, 43, 0
5, 102180, Note_on_c, 3, 46, 100
5, 102240, Note_on_c, 3, 46, 0
5, 102240, Note_on_c, 3, 48, 100
5, 103200, Note_on_c, 3, 48, 0
5, 106800, Note_on_c, 3, 48, 100
5, 106800, Note_on_c, 3, 60, 100
5, 106920, Note_on_c, 3, 60, 0
5, 106920, Note_on_c, 3, 48, 0
5, 106920, Note_on_c, 3, 50, 100
5, 106920, Note_on_c, 3, 62, 100
5, 107040, Note_on_c, 3, 62, 0
5, 107040, Note_on_c, 3, 50, 0
5, 107040, Note_on_c, 3, 52, 100
5, 107040, Note_on_c, 3, 64, 100
5, 107160, Note_on_c, 3, 64, 0
5, 107160, Note_on_c, 3, 52, 0
5, 107160, Note_on_c, 3, 65, 100
5, 107160, Note_on_c, 3, 53, 100
5, 107280, Note_on_c, 3, 53, 0
5, 107280, Note_on_c, 3, 65, 0
5, 107280, Note_on_c, 3, 55, 100
5, 107280, Note_on_c, 3, 67, 100
5, 110640, Note_on_c, 3, 67, 0
5, 110640, Note_on_c, 3, 55, 0
5, 110640, Note_on_c, 3, 57, 100
5, 110640, Note_on_c, 3, 69, 100
5, 110880, Note_on_c, 3, 69, 0
5, 110880, Note_on_c, 3, 57, 0
5, 110880, Note_on_c, 3, 55, 100
5, 110880, Note_on_c, 3, 67, 100
5, 111120, Note_on_c, 3, 67, 0
5, 111120, Note_on_c, 3, 55, 0
5, 111120, Note_on_c, 3, 53, 100
5, 111120, Note_on_c, 3, 65, 100
5, 111360, Note_on_c, 3, 65, 0
5, 111360, Note_on_c, 3, 53, 0
5, 111360, Note_on_c, 3, 55, 100
5, 111360, Note_on_c, 3, 67, 100
5, 111600, Note_on_c, 3, 67, 0
5, 111600, Note_on_c, 3, 55, 0
5, 111600, Note_on_c, 3, 48, 100
5, 111600, Note_on_c, 3, 64, 100
5, 112560, Note_on_c, 3, 64, 0
5, 112560, Note_on_c, 3, 48, 0
5, 112560, Note_on_c, 3, 48, 100
5, 112560, Note_on_c, 3, 60, 100
5, 112680, Note_on_c, 3, 60, 0
5, 112680, Note_on_c, 3, 48, 0
5, 112680, Note_on_c, 3, 50, 100
5, 112680, Note_on_c, 3, 62, 100
5, 112800, Note_on_c, 3, 62, 0
5, 112800, Note_on_c, 3, 50, 0
5, 112800, Note_on_c, 3, 52, 100
5, 112800, Note_on_c, 3, 64, 100
5, 112920, Note_on_c, 3, 64, 0
5, 112920, Note_on_c, 3, 52, 0
5, 112920, Note_on_c, 3, 65, 100
5, 112920, Note_on_c, 3, 53, 100
5, 113040, Note_on_c, 3, 53, 0
5, 113040, Note_on_c, 3, 65, 0
5, 113040, Note_on_c, 3, 55, 100
5, 113040, Note_on_c, 3, 67, 100
5, 116400, Note_on_c, 3, 67, 0
5, 116400, Note_on_c, 3, 55, 0
5, 116400, Note_on_c, 3, 57, 100
5, 116400, Note_on_c, 3, 69, 100
5, 116640, Note_on_c, 3, 69, 0
5, 116640, Note_on_c, 3, 57, 0
5, 116640, Note_on_c, 3, 55, 100
5, 116640, Note_on_c, 3, 67, 100
5, 116880, Note_on_c, 3, 67, 0
5, 116880, Note_on_c, 3, 55, 0
5, 116880, Note_on_c, 3, 53, 100
5, 116880, Note_on_c, 3, 65, 100
5, 117120, Note_on_c, 3, 65, 0
5, 117120, Note_on_c, 3, 53, 0
5, 117120, Note_on_c, 3, 55, 100
5, 117120, Note_on_c, 3, 67, 100
5, 117360, Note_on_c, 3, 67, 0
5, 117360, Note_on_c, 3, 55, 0
5, 117360, Note_on_c, 3, 48, 100
5, 117360, Note_on_c, 3, 64, 100
5, 118320, Note_on_c, 3, 64, 0
5, 118320, Note_on_c, 3, 48, 0
5, 118792, Note_on_c, 3, 52, 100
5, 118800, Note_on_c, 3, 64, 100
5, 119032, Note_on_c, 3, 52, 0
5, 119036, Note_on_c, 3, 53, 100
5, 119040, Note_on_c, 3, 64, 0
5, 119040, Note_on_c, 3, 65, 100
5, 119276, Note_on_c, 3, 53, 0
5, 119280, Note_on_c, 3, 65, 0
5, 119280, Note_on_c, 3, 55, 100
5, 119280, Note_on_c, 3, 67, 100
5, 119752, Note_on_c, 3, 52, 100
5, 119760, Note_on_c, 3, 67, 0
5, 119760, Note_on_c, 3, 55, 0
5, 119760, Note_on_c, 3, 64, 100
5, 120232, Note_on_c, 3, 52, 0
5, 120240, Note_on_c, 3, 64, 0
5, 120712, Note_on_c, 3, 64, 100
5, 120716, Note_on_c, 3, 52, 100
5, 120946, Note_on_c, 3, 65, 100
5, 120952, Note_on_c, 3, 64, 0
5, 120956, Note_on_c, 3, 52, 0
5, 120960, Note_on_c, 3, 53, 100
5, 121186, Note_on_c, 3, 65, 0
5, 121200, Note_on_c, 3, 53, 0
5, 121200, Note_on_c, 3, 57, 100
5, 121200, Note_on_c, 3, 69, 100
5, 121320, Note_on_c, 3, 69, 0
5, 121320, Note_on_c, 3, 57, 0
5, 121328, Note_on_c, 3, 55, 100
5, 121334, Note_on_c, 3, 67, 100
5, 121432, Note_on_c, 3, 57, 100
5, 121448, Note_on_c, 3, 55, 0
5, 121448, Note_on_c, 3, 69, 100
5, 121454, Note_on_c, 3, 67, 0
5, 122152, Note_on_c, 3, 57, 0
5, 122168, Note_on_c, 3, 69, 0
5, 123586, Note_on_c, 3, 55, 100
5, 123592, Note_on_c, 3, 67, 100
5, 123826, Note_on_c, 3, 55, 0
5, 123826, Note_on_c, 3, 58, 100
5, 123832, Note_on_c, 3, 67, 0
5, 123852, Note_on_c, 3, 70, 100
5, 124066, Note_on_c, 3, 58, 0
5, 124080, Note_on_c, 3, 60, 100
5, 124080, Note_on_c, 3, 72, 100
5, 124092, Note_on_c, 3, 70, 0
5, 124294, Note_on_c, 3, 75, 100
5, 124312, Note_on_c, 3, 63, 100
5, 124320, Note_on_c, 3, 72, 0
5, 124320, Note_on_c, 3, 60, 0
5, 124534, Note_on_c, 3, 75, 0
5, 124538, Note_on_c, 3, 65, 100
5, 124548, Note_on_c, 3, 77, 100
5, 124552, Note_on_c, 3, 63, 0
5, 124898, Note_on_c, 3, 65, 0
5, 124908, Note_on_c, 3, 77, 0
5, 124920, Note_on_c, 3, 75, 100
5, 124926, Note_on_c, 3, 63, 100
5, 125040, Note_on_c, 3, 75, 0
5, 125040, Note_on_c, 3, 65, 100
5, 125040, Note_on_c, 3, 77, 100
5, 125046, Note_on_c, 3, 63, 0
5, 125372, Note_on_c, 3, 63, 100
5, 125400, Note_on_c, 3, 77, 0
5, 125400, Note_on_c, 3, 65, 0
5, 125428, Note_on_c, 3, 75, 100
5, 125492, Note_on_c, 3, 63, 0
5, 125514, Note_on_c, 3, 65, 100
5, 125520, Note_on_c, 3, 77, 100
5, 125548, Note_on_c, 3, 75, 0
5, 126474, Note_on_c, 3, 65, 0
5, 126480, Note_on_c, 3, 77, 0
5, 126494, Note_on_c, 3, 77, 100
5, 126494, Note_on_c, 3, 65, 100
5, 126614, Note_on_c, 3, 65, 0
5, 126614, Note_on_c, 3, 77, 0
5, 126614, Note_on_c, 3, 75, 100
5, 126614, Note_on_c, 3, 63, 100
5, 126708, Note_on_c, 3, 72, 100
5, 126708, Note_on_c, 3, 60, 100
5, 126734, Note_on_c, 3, 63, 0
5, 126734, Note_on_c, 3, 75, 0
5, 126828, Note_on_c, 3, 72, 0
5, 126828, Note_on_c, 3, 60, 0
5, 126840, Note_on_c, 3, 70, 100
5, 126840, Note_on_c, 3, 58, 100
5, 127080, Note_on_c, 3, 58, 0
5, 127080, Note_on_c, 3, 70, 0
5, 127092, Note_on_c, 3, 67, 100
5, 127092, Note_on_c, 3, 55, 100
5, 127182, Note_on_c, 3, 70, 100
5, 127182, Note_on_c, 3, 58, 100
5, 127212, Note_on_c, 3, 55, 0
5, 127212, Note_on_c, 3, 67, 0
5, 127422, Note_on_c, 3, 70, 0
5, 127422, Note_on_c, 3, 58, 0
5, 127440, Note_on_c, 3, 67, 100
5, 127440, Note_on_c, 3, 55, 100
5, 127560, Note_on_c, 3, 55, 0
5, 127560, Note_on_c, 3, 67, 0
5, 127560, Note_on_c, 3, 70, 100
5, 127560, Note_on_c, 3, 58, 100
5, 127800, Note_on_c, 3, 58, 0
5, 127800, Note_on_c, 3, 70, 0
5, 127812, Note_on_c, 3, 67, 100
5, 127812, Note_on_c, 3, 55, 100
5, 127920, Note_on_c, 3, 65, 100
5, 127920, Note_on_c, 3, 53, 100
5, 127932, Note_on_c, 3, 55, 0
5, 127932, Note_on_c, 3, 67, 0
5, 128880, Note_on_c, 3, 65, 0
5, 128880, Note_on_c, 3, 53, 0
5, 129840, Note_on_c, 3, 48, 100
5, 134160, Note_on_c, 3, 84, 100
5, 134400, Note_on_c, 3, 84, 0
5, 134400, Note_on_c, 3, 82, 100
5, 134640, Note_on_c, 3, 82, 0
5, 134640, Note_on_c, 3, 79, 100
5, 134880, Note_on_c, 3, 79, 0
5, 134880, Note_on_c, 3, 48, 0
5, 134880, Note_on_c, 3, 48, 100
5, 134880, Note_on_c, 3, 82, 100
5, 135120, Note_on_c, 3, 82, 0
5, 135120, Note_on_c, 3, 48, 0
5, 135120, Note_on_c, 3, 48, 100
5, 135120, Note_on_c, 3, 79, 100
5, 135360, Note_on_c, 3, 79, 0
5, 135360, Note_on_c, 3, 48, 0
5, 135360, Note_on_c, 3, 48, 100
5, 135360, Note_on_c, 3, 77, 100
5, 135600, Note_on_c, 3, 77, 0
5, 135600, Note_on_c, 3, 48, 0
5, 135600, Note_on_c, 3, 48, 100
5, 135600, Note_on_c, 3, 76, 100
5, 135840, Note_on_c, 3, 76, 0
5, 135840, Note_on_c, 3, 48, 0
5, 135840, Note_on_c, 3, 48, 100
5, 135840, Note_on_c, 3, 77, 100
5, 138480, Note_on_c, 3, 77, 0
5, 138480, Note_on_c, 3, 48, 0
5, 138480, Note_on_c, 3, 76, 100
5, 138720, Note_on_c, 3, 76, 0
5, 138720, Note_on_c, 3, 82, 100
5, 138720, Note_on_c, 3, 48, 100
5, 138960, Note_on_c, 3, 82, 0
5, 138960, Note_on_c, 3, 81, 100
5, 139200, Note_on_c, 3, 81, 0
5, 139200, Note_on_c, 3, 77, 100
5, 139440, Note_on_c, 3, 77, 0
5, 139440, Note_on_c, 3, 48, 0
5, 139440, Note_on_c, 3, 81, 100
5, 139440, Note_on_c, 3, 48, 100
5, 139680, Note_on_c, 3, 81, 0
5, 139680, Note_on_c, 3, 79, 100
5, 139920, Note_on_c, 3, 79, 0
5, 139920, Note_on_c, 3, 48, 0
5, 139920, Note_on_c, 3, 48, 100
5, 139920, Note_on_c, 3, 76, 100
5, 140160, Note_on_c, 3, 76, 0
5, 140160, Note_on_c, 3, 48, 0
5, 140160, Note_on_c, 3, 48, 100
5, 140160, Note_on_c, 3, 79, 100
5, 140400, Note_on_c, 3, 79, 0
5, 140400, Note_on_c, 3, 48, 0
5, 140400, Note_on_c, 3, 48, 100
5, 140400, Note_on_c, 3, 77, 100
5, 140640, Note_on_c, 3, 77, 0
5, 140640, Note_on_c, 3, 48, 0
5, 140640, Note_on_c, 3, 48, 100
5, 140640, Note_on_c, 3, 76, 100
5, 140880, Note_on_c, 3, 76, 0
5, 140880, Note_on_c, 3, 48, 0
5, 140880, Note_on_c, 3, 48, 100
5, 140880, Note_on_c, 3, 74, 100
5, 141840, Note_on_c, 3, 74, 0
5, 143280, Note_on_c, 3, 48, 0
5, 143280, End_track
6, 0, Start_track
6, 0, MIDI_port, 0
6, 0, Title_t, "Drums"
6, 0, Program_c, 9, 0
6, 0, Control_c, 9, 7, 85
6, 0, Control_c, 9, 10, 100
6, 0, Control_c, 9, 91, 100
6, 0, Control_c, 9, 93, 0
6, 0, Control_c, 9, 123, 0
6, 7680, Note_on_c, 9, 63, 100
6, 7680, Note_on_c, 9, 60, 100
6, 7800, Note_on_c, 9, 60, 0
6, 7800, Note_on_c, 9, 64, 100
6, 7800, Note_on_c, 9, 60, 100
6, 7840, Note_on_c, 9, 60, 0
6, 7840, Note_on_c, 9, 60, 100
6, 7860, Note_on_c, 9, 63, 0
6, 7880, Note_on_c, 9, 60, 0
6, 7880, Note_on_c, 9, 60, 100
6, 7920, Note_on_c, 9, 60, 0
6, 7920, Note_on_c, 9, 60, 100
6, 7980, Note_on_c, 9, 60, 0
6, 7980, Note_on_c, 9, 64, 0
6, 7980, Note_on_c, 9, 60, 100
6, 8040, Note_on_c, 9, 60, 0
6, 8040, Note_on_c, 9, 64, 100
6, 8040, Note_on_c, 9, 60, 100
6, 8160, Note_on_c, 9, 60, 0
6, 8160, Note_on_c, 9, 64, 0
6, 8160, Note_on_c, 9, 62, 100
6, 8160, Note_on_c, 9, 63, 100
6, 8160, Note_on_c, 9, 60, 100
6, 8280, Note_on_c, 9, 60, 0
6, 8280, Note_on_c, 9, 62, 0
6, 8280, Note_on_c, 9, 60, 100
6, 8338, Note_on_c, 9, 60, 0
6, 8340, Note_on_c, 9, 60, 100
6, 8398, Note_on_c, 9, 60, 0
6, 8400, Note_on_c, 9, 63, 0
6, 8400, Note_on_c, 9, 62, 100
6, 8400, Note_on_c, 9, 60, 100
6, 8520, Note_on_c, 9, 60, 0
6, 8520, Note_on_c, 9, 62, 0
6, 8520, Note_on_c, 9, 60, 100
6, 8578, Note_on_c, 9, 60, 0
6, 8580, Note_on_c, 9, 60, 100
6, 8638, Note_on_c, 9, 60, 0
6, 8640, Note_on_c, 9, 64, 100
6, 8640, Note_on_c, 9, 60, 100
6, 8760, Note_on_c, 9, 60, 0
6, 8760, Note_on_c, 9, 64, 0
6, 8760, Note_on_c, 9, 60, 100
6, 8880, Note_on_c, 9, 60, 0
6, 8880, Note_on_c, 9, 63, 100
6, 8880, Note_on_c, 9, 60, 100
6, 9000, Note_on_c, 9, 60, 0
6, 9000, Note_on_c, 9, 60, 100
6, 9120, Note_on_c, 9, 60, 0
6, 9120, Note_on_c, 9, 63, 0
6, 9120, Note_on_c, 9, 62, 100
6, 9120, Note_on_c, 9, 63, 100
6, 9120, Note_on_c, 9, 60, 100
6, 9240, Note_on_c, 9, 60, 0
6, 9240, Note_on_c, 9, 62, 0
6, 9240, Note_on_c, 9, 60, 100
6, 9298, Note_on_c, 9, 60, 0
6, 9300, Note_on_c, 9, 60, 100
6, 9358, Note_on_c, 9, 60, 0
6, 9360, Note_on_c, 9, 63, 0
6, 9360, Note_on_c, 9, 62, 100
6, 9360, Note_on_c, 9, 60, 100
6, 9480, Note_on_c, 9, 60, 0
6, 9480, Note_on_c, 9, 62, 0
6, 9480, Note_on_c, 9, 60, 100
6, 9538, Note_on_c, 9, 60, 0
6, 9540, Note_on_c, 9, 60, 100
6, 9598, Note_on_c, 9, 60, 0
6, 9600, Note_on_c, 9, 64, 100
6, 9600, Note_on_c, 9, 60, 100
6, 9720, Note_on_c, 9, 60, 0
6, 9720, Note_on_c, 9, 64, 0
6, 9720, Note_on_c, 9, 60, 100
6, 9840, Note_on_c, 9, 60, 0
6, 9840, Note_on_c, 9, 63, 100
6, 9840, Note_on_c, 9, 60, 100
6, 9960, Note_on_c, 9, 60, 0
6, 9960, Note_on_c, 9, 60, 100
6, 10080, Note_on_c, 9, 60, 0
6, 10080, Note_on_c, 9, 63, 0
6, 10080, Note_on_c, 9, 62, 100
6, 10080, Note_on_c, 9, 63, 100
6, 10080, Note_on_c, 9, 60, 100
6, 10200, Note_on_c, 9, 60, 0
6, 10200, Note_on_c, 9, 62, 0
6, 10200, Note_on_c, 9, 60, 100
6, 10258, Note_on_c, 9, 60, 0
6, 10260, Note_on_c, 9, 60, 100
6, 10318, Note_on_c, 9, 60, 0
6, 10320, Note_on_c, 9, 63, 0
6, 10320, Note_on_c, 9, 62, 100
6, 10320, Note_on_c, 9, 60, 100
6, 10440, Note_on_c, 9, 60, 0
6, 10440, Note_on_c, 9, 62, 0
6, 10440, Note_on_c, 9, 60, 100
6, 10498, Note_on_c, 9, 60, 0
6, 10500, Note_on_c, 9, 60, 100
6, 10558, Note_on_c, 9, 60, 0
6, 10560, Note_on_c, 9, 64, 100
6, 10560, Note_on_c, 9, 60, 100
6, 10680, Note_on_c, 9, 60, 0
6, 10680, Note_on_c, 9, 64, 0
6, 10680, Note_on_c, 9, 60, 100
6, 10800, Note_on_c, 9, 60, 0
6, 10800, Note_on_c, 9, 63, 100
6, 10800, Note_on_c, 9, 60, 100
6, 10920, Note_on_c, 9, 60, 0
6, 10920, Note_on_c, 9, 64, 100
6, 10920, Note_on_c, 9, 60, 100
6, 10980, Note_on_c, 9, 64, 0
6, 10980, Note_on_c, 9, 61, 100
6, 11040, Note_on_c, 9, 61, 0
6, 11040, Note_on_c, 9, 60, 0
6, 11040, Note_on_c, 9, 63, 0
6, 11040, Note_on_c, 9, 62, 100
6, 11040, Note_on_c, 9, 63, 100
6, 11040, Note_on_c, 9, 60, 100
6, 11160, Note_on_c, 9, 60, 0
6, 11160, Note_on_c, 9, 62, 0
6, 11160, Note_on_c, 9, 60, 100
6, 11218, Note_on_c, 9, 60, 0
6, 11220, Note_on_c, 9, 60, 100
6, 11278, Note_on_c, 9, 60, 0
6, 11280, Note_on_c, 9, 63, 0
6, 11280, Note_on_c, 9, 62, 100
6, 11280, Note_on_c, 9, 60, 100
6, 11400, Note_on_c, 9, 60, 0
6, 11400, Note_on_c, 9, 62, 0
6, 11400, Note_on_c, 9, 60, 100
6, 11458, Note_on_c, 9, 60, 0
6, 11460, Note_on_c, 9, 60, 100
6, 11518, Note_on_c, 9, 60, 0
6, 11520, Note_on_c, 9, 64, 100
6, 11520, Note_on_c, 9, 60, 100
6, 11640, Note_on_c, 9, 60, 0
6, 11640, Note_on_c, 9, 64, 0
6, 11640, Note_on_c, 9, 60, 100
6, 11760, Note_on_c, 9, 60, 0
6, 11760, Note_on_c, 9, 63, 100
6, 11760, Note_on_c, 9, 60, 100
6, 11880, Note_on_c, 9, 60, 0
6, 11880, Note_on_c, 9, 64, 100
6, 11880, Note_on_c, 9, 60, 100
6, 11940, Note_on_c, 9, 64, 0
6, 11940, Note_on_c, 9, 61, 100
6, 12000, Note_on_c, 9, 61, 0
6, 12000, Note_on_c, 9, 60, 0
6, 12000, Note_on_c, 9, 63, 0
6, 12000, Note_on_c, 9, 62, 100
6, 12000, Note_on_c, 9, 63, 100
6, 12000, Note_on_c, 9, 60, 100
6, 12120, Note_on_c, 9, 60, 0
6, 12120, Note_on_c, 9, 62, 0
6, 12120, Note_on_c, 9, 60, 100
6, 12178, Note_on_c, 9, 60, 0
6, 12180, Note_on_c, 9, 60, 100
6, 12238, Note_on_c, 9, 60, 0
6, 12240, Note_on_c, 9, 63, 0
6, 12240, Note_on_c, 9, 62, 100
6, 12240, Note_on_c, 9, 60, 100
6, 12360, Note_on_c, 9, 60, 0
6, 12360, Note_on_c, 9, 62, 0
6, 12360, Note_on_c, 9, 60, 100
6, 12418, Note_on_c, 9, 60, 0
6, 12420, Note_on_c, 9, 60, 100
6, 12478, Note_on_c, 9, 60, 0
6, 12480, Note_on_c, 9, 64, 100
6, 12480, Note_on_c, 9, 60, 100
6, 12600, Note_on_c, 9, 60, 0
6, 12600, Note_on_c, 9, 64, 0
6, 12600, Note_on_c, 9, 60, 100
6, 12720, Note_on_c, 9, 60, 0
6, 12720, Note_on_c, 9, 63, 100
6, 12720, Note_on_c, 9, 60, 100
6, 12840, Note_on_c, 9, 60, 0
6, 12840, Note_on_c, 9, 60, 100
6, 12960, Note_on_c, 9, 60, 0
6, 12960, Note_on_c, 9, 63, 0
6, 12960, Note_on_c, 9, 62, 100
6, 12960, Note_on_c, 9, 63, 100
6, 12960, Note_on_c, 9, 60, 100
6, 13080, Note_on_c, 9, 60, 0
6, 13080, Note_on_c, 9, 62, 0
6, 13080, Note_on_c, 9, 60, 100
6, 13138, Note_on_c, 9, 60, 0
6, 13140, Note_on_c, 9, 60, 100
6, 13198, Note_on_c, 9, 60, 0
6, 13200, Note_on_c, 9, 63, 0
6, 13200, Note_on_c, 9, 62, 100
6, 13200, Note_on_c, 9, 60, 100
6, 13320, Note_on_c, 9, 60, 0
6, 13320, Note_on_c, 9, 62, 0
6, 13320, Note_on_c, 9, 60, 100
6, 13378, Note_on_c, 9, 60, 0
6, 13380, Note_on_c, 9, 60, 100
6, 13438, Note_on_c, 9, 60, 0
6, 13440, Note_on_c, 9, 64, 100
6, 13440, Note_on_c, 9, 60, 100
6, 13560, Note_on_c, 9, 60, 0
6, 13560, Note_on_c, 9, 64, 0
6, 13560, Note_on_c, 9, 60, 100
6, 13680, Note_on_c, 9, 60, 0
6, 13680, Note_on_c, 9, 63, 100
6, 13680, Note_on_c, 9, 60, 100
6, 13800, Note_on_c, 9, 60, 0
6, 13800, Note_on_c, 9, 60, 100
6, 13920, Note_on_c, 9, 60, 0
6, 13920, Note_on_c, 9, 63, 0
6, 13920, Note_on_c, 9, 62, 100
6, 13920, Note_on_c, 9, 63, 100
6, 13920, Note_on_c, 9, 60, 100
6, 14040, Note_on_c, 9, 60, 0
6, 14040, Note_on_c, 9, 62, 0
6, 14040, Note_on_c, 9, 60, 100
6, 14098, Note_on_c, 9, 60, 0
6, 14100, Note_on_c, 9, 60, 100
6, 14158, Note_on_c, 9, 60, 0
6, 14160, Note_on_c, 9, 63, 0
6, 14160, Note_on_c, 9, 62, 100
6, 14160, Note_on_c, 9, 60, 100
6, 14280, Note_on_c, 9, 60, 0
6, 14280, Note_on_c, 9, 62, 0
6, 14280, Note_on_c, 9, 60, 100
6, 14338, Note_on_c, 9, 60, 0
6, 14340, Note_on_c, 9, 60, 100
6, 14398, Note_on_c, 9, 60, 0
6, 14400, Note_on_c, 9, 64, 100
6, 14400, Note_on_c, 9, 60, 100
6, 14520, Note_on_c, 9, 60, 0
6, 14520, Note_on_c, 9, 64, 0
6, 14520, Note_on_c, 9, 60, 100
6, 14640, Note_on_c, 9, 60, 0
6, 14640, Note_on_c, 9, 63, 100
6, 14640, Note_on_c, 9, 60, 100
6, 14760, Note_on_c, 9, 60, 0
6, 14760, Note_on_c, 9, 64, 100
6, 14760, Note_on_c, 9, 60, 100
6, 14820, Note_on_c, 9, 64, 0
6, 14820, Note_on_c, 9, 61, 100
6, 14880, Note_on_c, 9, 61, 0
6, 14880, Note_on_c, 9, 60, 0
6, 14880, Note_on_c, 9, 63, 0
6, 14880, Note_on_c, 9, 62, 100
6, 14880, Note_on_c, 9, 63, 100
6, 14880, Note_on_c, 9, 60, 100
6, 15000, Note_on_c, 9, 60, 0
6, 15000, Note_on_c, 9, 62, 0
6, 15000, Note_on_c, 9, 60, 100
6, 15058, Note_on_c, 9, 60, 0
6, 15060, Note_on_c, 9, 60, 100
6, 15118, Note_on_c, 9, 60, 0
6, 15120, Note_on_c, 9, 63, 0
6, 15120, Note_on_c, 9, 62, 100
6, 15120, Note_on_c, 9, 60, 100
6, 15240, Note_on_c, 9, 60, 0
6, 15240, Note_on_c, 9, 62, 0
6, 15240, Note_on_c, 9, 60, 100
6, 15298, Note_on_c, 9, 60, 0
6, 15300, Note_on_c, 9, 60, 100
6, 15358, Note_on_c, 9, 60, 0
6, 15360, Note_on_c, 9, 64, 100
6, 15360, Note_on_c, 9, 60, 100
6, 15480, Note_on_c, 9, 60, 0
6, 15480, Note_on_c, 9, 64, 0
6, 15480, Note_on_c, 9, 60, 100
6, 15600, Note_on_c, 9, 60, 0
6, 15600, Note_on_c, 9, 63, 100
6, 15600, Note_on_c, 9, 60, 100
6, 15720, Note_on_c, 9, 60, 0
6, 15720, Note_on_c, 9, 60, 100
6, 15840, Note_on_c, 9, 60, 0
6, 15840, Note_on_c, 9, 63, 0
6, 15840, Note_on_c, 9, 62, 100
6, 15840, Note_on_c, 9, 63, 100
6, 15840, Note_on_c, 9, 60, 100
6, 15960, Note_on_c, 9, 60, 0
6, 15960, Note_on_c, 9, 62, 0
6, 15960, Note_on_c, 9, 60, 100
6, 16018, Note_on_c, 9, 60, 0
6, 16020, Note_on_c, 9, 60, 100
6, 16078, Note_on_c, 9, 60, 0
6, 16080, Note_on_c, 9, 63, 0
6, 16080, Note_on_c, 9, 62, 100
6, 16080, Note_on_c, 9, 60, 100
6, 16200, Note_on_c, 9, 60, 0
6, 16200, Note_on_c, 9, 62, 0
6, 16200, Note_on_c, 9, 60, 100
6, 16258, Note_on_c, 9, 60, 0
6, 16260, Note_on_c, 9, 60, 100
6, 16318, Note_on_c, 9, 60, 0
6, 16320, Note_on_c, 9, 64, 100
6, 16320, Note_on_c, 9, 60, 100
6, 16440, Note_on_c, 9, 60, 0
6, 16440, Note_on_c, 9, 64, 0
6, 16440, Note_on_c, 9, 60, 100
6, 16560, Note_on_c, 9, 60, 0
6, 16560, Note_on_c, 9, 63, 100
6, 16560, Note_on_c, 9, 60, 100
6, 16680, Note_on_c, 9, 60, 0
6, 16680, Note_on_c, 9, 60, 100
6, 16800, Note_on_c, 9, 60, 0
6, 16800, Note_on_c, 9, 63, 0
6, 16800, Note_on_c, 9, 62, 100
6, 16800, Note_on_c, 9, 63, 100
6, 16800, Note_on_c, 9, 60, 100
6, 16920, Note_on_c, 9, 60, 0
6, 16920, Note_on_c, 9, 62, 0
6, 16920, Note_on_c, 9, 60, 100
6, 16978, Note_on_c, 9, 60, 0
6, 16980, Note_on_c, 9, 60, 100
6, 17038, Note_on_c, 9, 60, 0
6, 17040, Note_on_c, 9, 63, 0
6, 17040, Note_on_c, 9, 62, 100
6, 17040, Note_on_c, 9, 60, 100
6, 17160, Note_on_c, 9, 60, 0
6, 17160, Note_on_c, 9, 62, 0
6, 17160, Note_on_c, 9, 60, 100
6, 17218, Note_on_c, 9, 60, 0
6, 17220, Note_on_c, 9, 60, 100
6, 17278, Note_on_c, 9, 60, 0
6, 17280, Note_on_c, 9, 64, 100
6, 17280, Note_on_c, 9, 60, 100
6, 17400, Note_on_c, 9, 60, 0
6, 17400, Note_on_c, 9, 64, 0
6, 17400, Note_on_c, 9, 60, 100
6, 17520, Note_on_c, 9, 60, 0
6, 17520, Note_on_c, 9, 63, 100
6, 17520, Note_on_c, 9, 60, 100
6, 17640, Note_on_c, 9, 60, 0
6, 17640, Note_on_c, 9, 64, 100
6, 17640, Note_on_c, 9, 60, 100
6, 17700, Note_on_c, 9, 64, 0
6, 17700, Note_on_c, 9, 61, 100
6, 17760, Note_on_c, 9, 61, 0
6, 17760, Note_on_c, 9, 60, 0
6, 17760, Note_on_c, 9, 63, 0
6, 17760, Note_on_c, 9, 62, 100
6, 17760, Note_on_c, 9, 63, 100
6, 17760, Note_on_c, 9, 60, 100
6, 17880, Note_on_c, 9, 60, 0
6, 17880, Note_on_c, 9, 62, 0
6, 17880, Note_on_c, 9, 60, 100
6, 17938, Note_on_c, 9, 60, 0
6, 17940, Note_on_c, 9, 60, 100
6, 17998, Note_on_c, 9, 60, 0
6, 18000, Note_on_c, 9, 63, 0
6, 18000, Note_on_c, 9, 62, 100
6, 18000, Note_on_c, 9, 60, 100
6, 18120, Note_on_c, 9, 60, 0
6, 18120, Note_on_c, 9, 62, 0
6, 18120, Note_on_c, 9, 60, 100
6, 18178, Note_on_c, 9, 60, 0
6, 18180, Note_on_c, 9, 60, 100
6, 18238, Note_on_c, 9, 60, 0
6, 18240, Note_on_c, 9, 64, 100
6, 18240, Note_on_c, 9, 60, 100
6, 18360, Note_on_c, 9, 60, 0
6, 18360, Note_on_c, 9, 64, 0
6, 18360, Note_on_c, 9, 60, 100
6, 18480, Note_on_c, 9, 60, 0
6, 18480, Note_on_c, 9, 63, 100
6, 18480, Note_on_c, 9, 60, 100
6, 18600, Note_on_c, 9, 60, 0
6, 18600, Note_on_c, 9, 60, 100
6, 18720, Note_on_c, 9, 60, 0
6, 18720, Note_on_c, 9, 63, 0
6, 18720, Note_on_c, 9, 62, 100
6, 18720, Note_on_c, 9, 63, 100
6, 18720, Note_on_c, 9, 60, 100
6, 18840, Note_on_c, 9, 60, 0
6, 18840, Note_on_c, 9, 62, 0
6, 18840, Note_on_c, 9, 60, 100
6, 18898, Note_on_c, 9, 60, 0
6, 18900, Note_on_c, 9, 60, 100
6, 18958, Note_on_c, 9, 60, 0
6, 18960, Note_on_c, 9, 63, 0
6, 18960, Note_on_c, 9, 62, 100
6, 18960, Note_on_c, 9, 60, 100
6, 19080, Note_on_c, 9, 60, 0
6, 19080, Note_on_c, 9, 62, 0
6, 19080, Note_on_c, 9, 60, 100
6, 19138, Note_on_c, 9, 60, 0
6, 19140, Note_on_c, 9, 60, 100
6, 19198, Note_on_c, 9, 60, 0
6, 19200, Note_on_c, 9, 64, 100
6, 19200, Note_on_c, 9, 60, 100
6, 19320, Note_on_c, 9, 60, 0
6, 19320, Note_on_c, 9, 64, 0
6, 19320, Note_on_c, 9, 60, 100
6, 19440, Note_on_c, 9, 60, 0
6, 19440, Note_on_c, 9, 63, 100
6, 19440, Note_on_c, 9, 60, 100
6, 19560, Note_on_c, 9, 60, 0
6, 19560, Note_on_c, 9, 60, 100
6, 19680, Note_on_c, 9, 60, 0
6, 19680, Note_on_c, 9, 63, 0
6, 19680, Note_on_c, 9, 62, 100
6, 19680, Note_on_c, 9, 63, 100
6, 19680, Note_on_c, 9, 60, 100
6, 19800, Note_on_c, 9, 60, 0
6, 19800, Note_on_c, 9, 62, 0
6, 19800, Note_on_c, 9, 60, 100
6, 19858, Note_on_c, 9, 60, 0
6, 19860, Note_on_c, 9, 60, 100
6, 19918, Note_on_c, 9, 60, 0
6, 19920, Note_on_c, 9, 63, 0
6, 19920, Note_on_c, 9, 62, 100
6, 19920, Note_on_c, 9, 60, 100
6, 20040, Note_on_c, 9, 60, 0
6, 20040, Note_on_c, 9, 62, 0
6, 20040, Note_on_c, 9, 60, 100
6, 20098, Note_on_c, 9, 60, 0
6, 20100, Note_on_c, 9, 60, 100
6, 20158, Note_on_c, 9, 60, 0
6, 20160, Note_on_c, 9, 64, 100
6, 20160, Note_on_c, 9, 60, 100
6, 20280, Note_on_c, 9, 60, 0
6, 20280, Note_on_c, 9, 64, 0
6, 20280, Note_on_c, 9, 60, 100
6, 20400, Note_on_c, 9, 60, 0
6, 20400, Note_on_c, 9, 63, 100
6, 20400, Note_on_c, 9, 60, 100
6, 20520, Note_on_c, 9, 60, 0
6, 20520, Note_on_c, 9, 64, 100
6, 20520, Note_on_c, 9, 60, 100
6, 20580, Note_on_c, 9, 64, 0
6, 20580, Note_on_c, 9, 61, 100
6, 20640, Note_on_c, 9, 61, 0
6, 20640, Note_on_c, 9, 60, 0
6, 20640, Note_on_c, 9, 63, 0
6, 20640, Note_on_c, 9, 62, 100
6, 20640, Note_on_c, 9, 63, 100
6, 20640, Note_on_c, 9, 60, 100
6, 20760, Note_on_c, 9, 60, 0
6, 20760, Note_on_c, 9, 62, 0
6, 20760, Note_on_c, 9, 60, 100
6, 20818, Note_on_c, 9, 60, 0
6, 20820, Note_on_c, 9, 60, 100
6, 20878, Note_on_c, 9, 60, 0
6, 20880, Note_on_c, 9, 63, 0
6, 20880, Note_on_c, 9, 62, 100
6, 20880, Note_on_c, 9, 60, 100
6, 21000, Note_on_c, 9, 60, 0
6, 21000, Note_on_c, 9, 62, 0
6, 21000, Note_on_c, 9, 60, 100
6, 21058, Note_on_c, 9, 60, 0
6, 21060, Note_on_c, 9, 60, 100
6, 21118, Note_on_c, 9, 60, 0
6, 21120, Note_on_c, 9, 64, 100
6, 21120, Note_on_c, 9, 60, 100
6, 21240, Note_on_c, 9, 60, 0
6, 21240, Note_on_c, 9, 64, 0
6, 21240, Note_on_c, 9, 60, 100
6, 21360, Note_on_c, 9, 60, 0
6, 21360, Note_on_c, 9, 63, 100
6, 21360, Note_on_c, 9, 60, 100
6, 21480, Note_on_c, 9, 60, 0
6, 21480, Note_on_c, 9, 60, 100
6, 21600, Note_on_c, 9, 60, 0
6, 21600, Note_on_c, 9, 63, 0
6, 21600, Note_on_c, 9, 62, 100
6, 21600, Note_on_c, 9, 63, 100
6, 21600, Note_on_c, 9, 60, 100
6, 21720, Note_on_c, 9, 60, 0
6, 21720, Note_on_c, 9, 62, 0
6, 21720, Note_on_c, 9, 60, 100
6, 21778, Note_on_c, 9, 60, 0
6, 21780, Note_on_c, 9, 60, 100
6, 21838, Note_on_c, 9, 60, 0
6, 21840, Note_on_c, 9, 63, 0
6, 21840, Note_on_c, 9, 62, 100
6, 21840, Note_on_c, 9, 60, 100
6, 21960, Note_on_c, 9, 60, 0
6, 21960, Note_on_c, 9, 62, 0
6, 21960, Note_on_c, 9, 60, 100
6, 22018, Note_on_c, 9, 60, 0
6, 22020, Note_on_c, 9, 60, 100
6, 22078, Note_on_c, 9, 60, 0
6, 22080, Note_on_c, 9, 64, 100
6, 22080, Note_on_c, 9, 60, 100
6, 22200, Note_on_c, 9, 60, 0
6, 22200, Note_on_c, 9, 64, 0
6, 22200, Note_on_c, 9, 60, 100
6, 22320, Note_on_c, 9, 60, 0
6, 22320, Note_on_c, 9, 63, 100
6, 22320, Note_on_c, 9, 60, 100
6, 22440, Note_on_c, 9, 60, 0
6, 22440, Note_on_c, 9, 60, 100
6, 22560, Note_on_c, 9, 60, 0
6, 22560, Note_on_c, 9, 63, 0
6, 22560, Note_on_c, 9, 62, 100
6, 22560, Note_on_c, 9, 63, 100
6, 22560, Note_on_c, 9, 60, 100
6, 22680, Note_on_c, 9, 60, 0
6, 22680, Note_on_c, 9, 62, 0
6, 22680, Note_on_c, 9, 60, 100
6, 22738, Note_on_c, 9, 60, 0
6, 22740, Note_on_c, 9, 60, 100
6, 22798, Note_on_c, 9, 60, 0
6, 22800, Note_on_c, 9, 63, 0
6, 22800, Note_on_c, 9, 62, 100
6, 22800, Note_on_c, 9, 60, 100
6, 22920, Note_on_c, 9, 60, 0
6, 22920, Note_on_c, 9, 62, 0
6, 22920, Note_on_c, 9, 60, 100
6, 22978, Note_on_c, 9, 60, 0
6, 22980, Note_on_c, 9, 60, 100
6, 23038, Note_on_c, 9, 60, 0
6, 23040, Note_on_c, 9, 64, 100
6, 23040, Note_on_c, 9, 60, 100
6, 23160, Note_on_c, 9, 60, 0
6, 23160, Note_on_c, 9, 64, 0
6, 23160, Note_on_c, 9, 60, 100
6, 23280, Note_on_c, 9, 60, 0
6, 23280, Note_on_c, 9, 63, 100
6, 23280, Note_on_c, 9, 60, 100
6, 23400, Note_on_c, 9, 60, 0
6, 23400, Note_on_c, 9, 64, 100
6, 23400, Note_on_c, 9, 60, 100
6, 23460, Note_on_c, 9, 64, 0
6, 23460, Note_on_c, 9, 61, 100
6, 23520, Note_on_c, 9, 61, 0
6, 23520, Note_on_c, 9, 60, 0
6, 23520, Note_on_c, 9, 63, 0
6, 23520, Note_on_c, 9, 62, 100
6, 23520, Note_on_c, 9, 63, 100
6, 23520, Note_on_c, 9, 60, 100
6, 23640, Note_on_c, 9, 60, 0
6, 23640, Note_on_c, 9, 62, 0
6, 23640, Note_on_c, 9, 60, 100
6, 23698, Note_on_c, 9, 60, 0
6, 23700, Note_on_c, 9, 60, 100
6, 23758, Note_on_c, 9, 60, 0
6, 23760, Note_on_c, 9, 63, 0
6, 23760, Note_on_c, 9, 62, 100
6, 23760, Note_on_c, 9, 60, 100
6, 23880, Note_on_c, 9, 60, 0
6, 23880, Note_on_c, 9, 62, 0
6, 23880, Note_on_c, 9, 60, 100
6, 23938, Note_on_c, 9, 60, 0
6, 23940, Note_on_c, 9, 60, 100
6, 23998, Note_on_c, 9, 60, 0
6, 24000, Note_on_c, 9, 64, 100
6, 24000, Note_on_c, 9, 60, 100
6, 24120, Note_on_c, 9, 60, 0
6, 24120, Note_on_c, 9, 64, 0
6, 24120, Note_on_c, 9, 60, 100
6, 24240, Note_on_c, 9, 60, 0
6, 24240, Note_on_c, 9, 63, 100
6, 24240, Note_on_c, 9, 60, 100
6, 24360, Note_on_c, 9, 60, 0
6, 24360, Note_on_c, 9, 60, 100
6, 24480, Note_on_c, 9, 60, 0
6, 24480, Note_on_c, 9, 63, 0
6, 24480, Note_on_c, 9, 62, 100
6, 24480, Note_on_c, 9, 63, 100
6, 24480, Note_on_c, 9, 60, 100
6, 24600, Note_on_c, 9, 60, 0
6, 24600, Note_on_c, 9, 62, 0
6, 24600, Note_on_c, 9, 60, 100
6, 24658, Note_on_c, 9, 60, 0
6, 24660, Note_on_c, 9, 60, 100
6, 24718, Note_on_c, 9, 60, 0
6, 24720, Note_on_c, 9, 63, 0
6, 24720, Note_on_c, 9, 62, 100
6, 24720, Note_on_c, 9, 60, 100
6, 24840, Note_on_c, 9, 60, 0
6, 24840, Note_on_c, 9, 62, 0
6, 24840, Note_on_c, 9, 60, 100
6, 24898, Note_on_c, 9, 60, 0
6, 24900, Note_on_c, 9, 60, 100
6, 24958, Note_on_c, 9, 60, 0
6, 24960, Note_on_c, 9, 64, 100
6, 24960, Note_on_c, 9, 60, 100
6, 25080, Note_on_c, 9, 60, 0
6, 25080, Note_on_c, 9, 64, 0
6, 25080, Note_on_c, 9, 60, 100
6, 25200, Note_on_c, 9, 60, 0
6, 25200, Note_on_c, 9, 63, 100
6, 25200, Note_on_c, 9, 60, 100
6, 25320, Note_on_c, 9, 60, 0
6, 25320, Note_on_c, 9, 60, 100
6, 25440, Note_on_c, 9, 60, 0
6, 25440, Note_on_c, 9, 63, 0
6, 25440, Note_on_c, 9, 62, 100
6, 25440, Note_on_c, 9, 63, 100
6, 25440, Note_on_c, 9, 60, 100
6, 25560, Note_on_c, 9, 60, 0
6, 25560, Note_on_c, 9, 62, 0
6, 25560, Note_on_c, 9, 60, 100
6, 25618, Note_on_c, 9, 60, 0
6, 25620, Note_on_c, 9, 60, 100
6, 25678, Note_on_c, 9, 60, 0
6, 25680, Note_on_c, 9, 63, 0
6, 25680, Note_on_c, 9, 62, 100
6, 25680, Note_on_c, 9, 60, 100
6, 25800, Note_on_c, 9, 60, 0
6, 25800, Note_on_c, 9, 62, 0
6, 25800, Note_on_c, 9, 60, 100
6, 25858, Note_on_c, 9, 60, 0
6, 25860, Note_on_c, 9, 60, 100
6, 25918, Note_on_c, 9, 60, 0
6, 25920, Note_on_c, 9, 64, 100
6, 25920, Note_on_c, 9, 60, 100
6, 26040, Note_on_c, 9, 60, 0
6, 26040, Note_on_c, 9, 64, 0
6, 26040, Note_on_c, 9, 60, 100
6, 26160, Note_on_c, 9, 60, 0
6, 26160, Note_on_c, 9, 63, 100
6, 26160, Note_on_c, 9, 60, 100
6, 26280, Note_on_c, 9, 60, 0
6, 26280, Note_on_c, 9, 64, 100
6, 26280, Note_on_c, 9, 60, 100
6, 26340, Note_on_c, 9, 64, 0
6, 26340, Note_on_c, 9, 61, 100
6, 26400, Note_on_c, 9, 61, 0
6, 26400, Note_on_c, 9, 60, 0
6, 26400, Note_on_c, 9, 63, 0
6, 26400, Note_on_c, 9, 62, 100
6, 26400, Note_on_c, 9, 63, 100
6, 26400, Note_on_c, 9, 60, 100
6, 26520, Note_on_c, 9, 60, 0
6, 26520, Note_on_c, 9, 62, 0
6, 26520, Note_on_c, 9, 60, 100
6, 26578, Note_on_c, 9, 60, 0
6, 26580, Note_on_c, 9, 60, 100
6, 26638, Note_on_c, 9, 60, 0
6, 26640, Note_on_c, 9, 63, 0
6, 26640, Note_on_c, 9, 62, 100
6, 26640, Note_on_c, 9, 60, 100
6, 26760, Note_on_c, 9, 60, 0
6, 26760, Note_on_c, 9, 62, 0
6, 26760, Note_on_c, 9, 60, 100
6, 26818, Note_on_c, 9, 60, 0
6, 26820, Note_on_c, 9, 60, 100
6, 26878, Note_on_c, 9, 60, 0
6, 26880, Note_on_c, 9, 64, 100
6, 26880, Note_on_c, 9, 60, 100
6, 27000, Note_on_c, 9, 60, 0
6, 27000, Note_on_c, 9, 64, 0
6, 27000, Note_on_c, 9, 60, 100
6, 27120, Note_on_c, 9, 60, 0
6, 27120, Note_on_c, 9, 63, 100
6, 27120, Note_on_c, 9, 60, 100
6, 27240, Note_on_c, 9, 60, 0
6, 27240, Note_on_c, 9, 60, 100
6, 27360, Note_on_c, 9, 60, 0
6, 27360, Note_on_c, 9, 63, 0
6, 27360, Note_on_c, 9, 62, 100
6, 27360, Note_on_c, 9, 63, 100
6, 27360, Note_on_c, 9, 60, 100
6, 27480, Note_on_c, 9, 60, 0
6, 27480, Note_on_c, 9, 62, 0
6, 27480, Note_on_c, 9, 60, 100
6, 27538, Note_on_c, 9, 60, 0
6, 27540, Note_on_c, 9, 60, 100
6, 27598, Note_on_c, 9, 60, 0
6, 27600, Note_on_c, 9, 63, 0
6, 27600, Note_on_c, 9, 62, 100
6, 27600, Note_on_c, 9, 60, 100
6, 27720, Note_on_c, 9, 60, 0
6, 27720, Note_on_c, 9, 62, 0
6, 27720, Note_on_c, 9, 60, 100
6, 27778, Note_on_c, 9, 60, 0
6, 27780, Note_on_c, 9, 60, 100
6, 27838, Note_on_c, 9, 60, 0
6, 27840, Note_on_c, 9, 64, 100
6, 27840, Note_on_c, 9, 60, 100
6, 27960, Note_on_c, 9, 60, 0
6, 27960, Note_on_c, 9, 64, 0
6, 27960, Note_on_c, 9, 60, 100
6, 28080, Note_on_c, 9, 60, 0
6, 28080, Note_on_c, 9, 63, 100
6, 28080, Note_on_c, 9, 60, 100
6, 28200, Note_on_c, 9, 60, 0
6, 28200, Note_on_c, 9, 60, 100
6, 28320, Note_on_c, 9, 60, 0
6, 28320, Note_on_c, 9, 63, 0
6, 28320, Note_on_c, 9, 62, 100
6, 28320, Note_on_c, 9, 63, 100
6, 28320, Note_on_c, 9, 60, 100
6, 28440, Note_on_c, 9, 60, 0
6, 28440, Note_on_c, 9, 62, 0
6, 28440, Note_on_c, 9, 60, 100
6, 28498, Note_on_c, 9, 60, 0
6, 28500, Note_on_c, 9, 60, 100
6, 28558, Note_on_c, 9, 60, 0
6, 28560, Note_on_c, 9, 63, 0
6, 28560, Note_on_c, 9, 62, 100
6, 28560, Note_on_c, 9, 60, 100
6, 28680, Note_on_c, 9, 60, 0
6, 28680, Note_on_c, 9, 62, 0
6, 28680, Note_on_c, 9, 60, 100
6, 28738, Note_on_c, 9, 60, 0
6, 28740, Note_on_c, 9, 60, 100
6, 28798, Note_on_c, 9, 60, 0
6, 28800, Note_on_c, 9, 64, 100
6, 28800, Note_on_c, 9, 60, 100
6, 28920, Note_on_c, 9, 60, 0
6, 28920, Note_on_c, 9, 64, 0
6, 28920, Note_on_c, 9, 60, 100
6, 29040, Note_on_c, 9, 60, 0
6, 29040, Note_on_c, 9, 63, 100
6, 29040, Note_on_c, 9, 60, 100
6, 29160, Note_on_c, 9, 60, 0
6, 29160, Note_on_c, 9, 60, 100
6, 29280, Note_on_c, 9, 60, 0
6, 29280, Note_on_c, 9, 63, 0
6, 29280, Note_on_c, 9, 60, 100
6, 29400, Note_on_c, 9, 60, 0
6, 29400, Note_on_c, 9, 60, 100
6, 29520, Note_on_c, 9, 60, 0
6, 29520, Note_on_c, 9, 63, 100
6, 29520, Note_on_c, 9, 60, 100
6, 29634, Note_on_c, 9, 60, 100
6, 29640, Note_on_c, 9, 60, 0
6, 29640, Note_on_c, 9, 63, 0
6, 29754, Note_on_c, 9, 60, 0
6, 29760, Note_on_c, 9, 63, 100
6, 29760, Note_on_c, 9, 60, 100
6, 29880, Note_on_c, 9, 60, 0
6, 29880, Note_on_c, 9, 63, 0
6, 29880, Note_on_c, 9, 60, 100
6, 30000, Note_on_c, 9, 60, 0
6, 30000, Note_on_c, 9, 63, 100
6, 30000, Note_on_c, 9, 60, 100
6, 30120, Note_on_c, 9, 60, 0
6, 30120, Note_on_c, 9, 63, 0
6, 30120, Note_on_c, 9, 60, 100
6, 30240, Note_on_c, 9, 60, 0
6, 30240, Note_on_c, 9, 63, 100
6, 30240, Note_on_c, 9, 60, 100
6, 30360, Note_on_c, 9, 60, 0
6, 30360, Note_on_c, 9, 63, 0
6, 30360, Note_on_c, 9, 60, 100
6, 30420, Note_on_c, 9, 60, 0
6, 30420, Note_on_c, 9, 60, 100
6, 30480, Note_on_c, 9, 60, 0
6, 30480, Note_on_c, 9, 64, 100
6, 30480, Note_on_c, 9, 60, 100
6, 30600, Note_on_c, 9, 60, 0
6, 30600, Note_on_c, 9, 64, 0
6, 30600, Note_on_c, 9, 63, 100
6, 30600, Note_on_c, 9, 60, 100
6, 30720, Note_on_c, 9, 60, 0
6, 30720, Note_on_c, 9, 63, 0
6, 30720, Note_on_c, 9, 64, 100
6, 30720, Note_on_c, 9, 60, 100
6, 30840, Note_on_c, 9, 60, 0
6, 30840, Note_on_c, 9, 64, 0
6, 30840, Note_on_c, 9, 63, 100
6, 30840, Note_on_c, 9, 60, 100
6, 30960, Note_on_c, 9, 60, 0
6, 30960, Note_on_c, 9, 63, 0
6, 30960, Note_on_c, 9, 64, 100
6, 30960, Note_on_c, 9, 60, 100
6, 31020, Note_on_c, 9, 60, 0
6, 31020, Note_on_c, 9, 60, 100
6, 31080, Note_on_c, 9, 60, 0
6, 31080, Note_on_c, 9, 64, 0
6, 31080, Note_on_c, 9, 64, 100
6, 31080, Note_on_c, 9, 60, 100
6, 31200, Note_on_c, 9, 60, 0
6, 31200, Note_on_c, 9, 64, 0
6, 31200, Note_on_c, 9, 63, 100
6, 31200, Note_on_c, 9, 60, 100
6, 31320, Note_on_c, 9, 60, 0
6, 31320, Note_on_c, 9, 63, 0
6, 31320, Note_on_c, 9, 60, 100
6, 31380, Note_on_c, 9, 60, 0
6, 31380, Note_on_c, 9, 60, 100
6, 31440, Note_on_c, 9, 60, 0
6, 31440, Note_on_c, 9, 64, 100
6, 31440, Note_on_c, 9, 60, 100
6, 31560, Note_on_c, 9, 60, 0
6, 31560, Note_on_c, 9, 64, 0
6, 31560, Note_on_c, 9, 60, 100
6, 31680, Note_on_c, 9, 60, 0
6, 31680, Note_on_c, 9, 64, 100
6, 31680, Note_on_c, 9, 60, 100
6, 31800, Note_on_c, 9, 60, 0
6, 31800, Note_on_c, 9, 64, 0
6, 31800, Note_on_c, 9, 60, 100
6, 31920, Note_on_c, 9, 60, 0
6, 31920, Note_on_c, 9, 63, 100
6, 31920, Note_on_c, 9, 60, 100
6, 32040, Note_on_c, 9, 60, 0
6, 32040, Note_on_c, 9, 63, 0
6, 32040, Note_on_c, 9, 60, 100
6, 32160, Note_on_c, 9, 60, 0
6, 32160, Note_on_c, 9, 63, 100
6, 32160, Note_on_c, 9, 60, 100
6, 32280, Note_on_c, 9, 60, 0
6, 32280, Note_on_c, 9, 63, 0
6, 32280, Note_on_c, 9, 60, 100
6, 32340, Note_on_c, 9, 60, 0
6, 32340, Note_on_c, 9, 60, 100
6, 32400, Note_on_c, 9, 60, 0
6, 32400, Note_on_c, 9, 64, 100
6, 32400, Note_on_c, 9, 60, 100
6, 32460, Note_on_c, 9, 64, 0
6, 32460, Note_on_c, 9, 64, 100
6, 32520, Note_on_c, 9, 64, 0
6, 32520, Note_on_c, 9, 60, 0
6, 32520, Note_on_c, 9, 64, 100
6, 32520, Note_on_c, 9, 60, 100
6, 32580, Note_on_c, 9, 64, 0
6, 32640, Note_on_c, 9, 60, 0
6, 32640, Note_on_c, 9, 60, 100
6, 32760, Note_on_c, 9, 60, 0
6, 32760, Note_on_c, 9, 60, 100
6, 32880, Note_on_c, 9, 60, 0
6, 32880, Note_on_c, 9, 64, 100
6, 32880, Note_on_c, 9, 60, 100
6, 32940, Note_on_c, 9, 64, 0
6, 32940, Note_on_c, 9, 64, 100
6, 33000, Note_on_c, 9, 64, 0
6, 33000, Note_on_c, 9, 60, 0
6, 33000, Note_on_c, 9, 64, 100
6, 33000, Note_on_c, 9, 60, 100
6, 33060, Note_on_c, 9, 64, 0
6, 33120, Note_on_c, 9, 60, 0
6, 33120, Note_on_c, 9, 60, 100
6, 33240, Note_on_c, 9, 60, 0
6, 33240, Note_on_c, 9, 63, 100
6, 33240, Note_on_c, 9, 60, 100
6, 33300, Note_on_c, 9, 63, 0
6, 33300, Note_on_c, 9, 60, 100
6, 33300, Note_on_c, 9, 63, 100
6, 33360, Note_on_c, 9, 63, 0
6, 33360, Note_on_c, 9, 60, 0
6, 33360, Note_on_c, 9, 60, 0
6, 33360, Note_on_c, 9, 62, 100
6, 33360, Note_on_c, 9, 63, 100
6, 33360, Note_on_c, 9, 60, 100
6, 33480, Note_on_c, 9, 60, 0
6, 33480, Note_on_c, 9, 62, 0
6, 33480, Note_on_c, 9, 60, 100
6, 33538, Note_on_c, 9, 60, 0
6, 33540, Note_on_c, 9, 60, 100
6, 33598, Note_on_c, 9, 60, 0
6, 33600, Note_on_c, 9, 63, 0
6, 33600, Note_on_c, 9, 62, 100
6, 33600, Note_on_c, 9, 60, 100
6, 33720, Note_on_c, 9, 60, 0
6, 33720, Note_on_c, 9, 62, 0
6, 33720, Note_on_c, 9, 60, 100
6, 33778, Note_on_c, 9, 60, 0
6, 33780, Note_on_c, 9, 60, 100
6, 33838, Note_on_c, 9, 60, 0
6, 33840, Note_on_c, 9, 64, 100
6, 33840, Note_on_c, 9, 60, 100
6, 33960, Note_on_c, 9, 60, 0
6, 33960, Note_on_c, 9, 64, 0
6, 33960, Note_on_c, 9, 60, 100
6, 34080, Note_on_c, 9, 60, 0
6, 34080, Note_on_c, 9, 63, 100
6, 34080, Note_on_c, 9, 60, 100
6, 34200, Note_on_c, 9, 60, 0
6, 34200, Note_on_c, 9, 60, 100
6, 34320, Note_on_c, 9, 60, 0
6, 34320, Note_on_c, 9, 63, 0
6, 34320, Note_on_c, 9, 62, 100
6, 34320, Note_on_c, 9, 63, 100
6, 34320, Note_on_c, 9, 60, 100
6, 34440, Note_on_c, 9, 60, 0
6, 34440, Note_on_c, 9, 62, 0
6, 34440, Note_on_c, 9, 60, 100
6, 34498, Note_on_c, 9, 60, 0
6, 34500, Note_on_c, 9, 60, 100
6, 34558, Note_on_c, 9, 60, 0
6, 34560, Note_on_c, 9, 63, 0
6, 34560, Note_on_c, 9, 62, 100
6, 34560, Note_on_c, 9, 60, 100
6, 34680, Note_on_c, 9, 60, 0
6, 34680, Note_on_c, 9, 62, 0
6, 34680, Note_on_c, 9, 60, 100
6, 34738, Note_on_c, 9, 60, 0
6, 34740, Note_on_c, 9, 60, 100
6, 34798, Note_on_c, 9, 60, 0
6, 34800, Note_on_c, 9, 64, 100
6, 34800, Note_on_c, 9, 60, 100
6, 34920, Note_on_c, 9, 60, 0
6, 34920, Note_on_c, 9, 64, 0
6, 34920, Note_on_c, 9, 60, 100
6, 35040, Note_on_c, 9, 60, 0
6, 35040, Note_on_c, 9, 63, 100
6, 35040, Note_on_c, 9, 60, 100
6, 35160, Note_on_c, 9, 60, 0
6, 35160, Note_on_c, 9, 60, 100
6, 35280, Note_on_c, 9, 60, 0
6, 35280, Note_on_c, 9, 63, 0
6, 35280, Note_on_c, 9, 62, 100
6, 35280, Note_on_c, 9, 63, 100
6, 35280, Note_on_c, 9, 60, 100
6, 35400, Note_on_c, 9, 60, 0
6, 35400, Note_on_c, 9, 62, 0
6, 35400, Note_on_c, 9, 60, 100
6, 35458, Note_on_c, 9, 60, 0
6, 35460, Note_on_c, 9, 60, 100
6, 35518, Note_on_c, 9, 60, 0
6, 35520, Note_on_c, 9, 63, 0
6, 35520, Note_on_c, 9, 62, 100
6, 35520, Note_on_c, 9, 60, 100
6, 35640, Note_on_c, 9, 60, 0
6, 35640, Note_on_c, 9, 62, 0
6, 35640, Note_on_c, 9, 60, 100
6, 35698, Note_on_c, 9, 60, 0
6, 35700, Note_on_c, 9, 60, 100
6, 35758, Note_on_c, 9, 60, 0
6, 35760, Note_on_c, 9, 64, 100
6, 35760, Note_on_c, 9, 60, 100
6, 35880, Note_on_c, 9, 60, 0
6, 35880, Note_on_c, 9, 64, 0
6, 35880, Note_on_c, 9, 60, 100
6, 36000, Note_on_c, 9, 60, 0
6, 36000, Note_on_c, 9, 63, 100
6, 36000, Note_on_c, 9, 60, 100
6, 36120, Note_on_c, 9, 60, 0
6, 36120, Note_on_c, 9, 64, 100
6, 36120, Note_on_c, 9, 60, 100
6, 36180, Note_on_c, 9, 64, 0
6, 36180, Note_on_c, 9, 61, 100
6, 36240, Note_on_c, 9, 61, 0
6, 36240, Note_on_c, 9, 60, 0
6, 36240, Note_on_c, 9, 63, 0
6, 36240, Note_on_c, 9, 62, 100
6, 36240, Note_on_c, 9, 63, 100
6, 36240, Note_on_c, 9, 60, 100
6, 36360, Note_on_c, 9, 60, 0
6, 36360, Note_on_c, 9, 62, 0
6, 36360, Note_on_c, 9, 60, 100
6, 36418, Note_on_c, 9, 60, 0
6, 36420, Note_on_c, 9, 60, 100
6, 36478, Note_on_c, 9, 60, 0
6, 36480, Note_on_c, 9, 63, 0
6, 36480, Note_on_c, 9, 62, 100
6, 36480, Note_on_c, 9, 60, 100
6, 36600, Note_on_c, 9, 60, 0
6, 36600, Note_on_c, 9, 62, 0
6, 36600, Note_on_c, 9, 60, 100
6, 36658, Note_on_c, 9, 60, 0
6, 36660, Note_on_c, 9, 60, 100
6, 36718, Note_on_c, 9, 60, 0
6, 36720, Note_on_c, 9, 64, 100
6, 36720, Note_on_c, 9, 60, 100
6, 36840, Note_on_c, 9, 60, 0
6, 36840, Note_on_c, 9, 64, 0
6, 36840, Note_on_c, 9, 60, 100
6, 36960, Note_on_c, 9, 60, 0
6, 36960, Note_on_c, 9, 63, 100
6, 36960, Note_on_c, 9, 60, 100
6, 37080, Note_on_c, 9, 60, 0
6, 37080, Note_on_c, 9, 60, 100
6, 37200, Note_on_c, 9, 60, 0
6, 37200, Note_on_c, 9, 63, 0
6, 37200, Note_on_c, 9, 62, 100
6, 37200, Note_on_c, 9, 63, 100
6, 37200, Note_on_c, 9, 60, 100
6, 37320, Note_on_c, 9, 60, 0
6, 37320, Note_on_c, 9, 62, 0
6, 37320, Note_on_c, 9, 60, 100
6, 37378, Note_on_c, 9, 60, 0
6, 37380, Note_on_c, 9, 60, 100
6, 37438, Note_on_c, 9, 60, 0
6, 37440, Note_on_c, 9, 63, 0
6, 37440, Note_on_c, 9, 62, 100
6, 37440, Note_on_c, 9, 60, 100
6, 37560, Note_on_c, 9, 60, 0
6, 37560, Note_on_c, 9, 62, 0
6, 37560, Note_on_c, 9, 60, 100
6, 37618, Note_on_c, 9, 60, 0
6, 37620, Note_on_c, 9, 60, 100
6, 37678, Note_on_c, 9, 60, 0
6, 37680, Note_on_c, 9, 64, 100
6, 37680, Note_on_c, 9, 60, 100
6, 37800, Note_on_c, 9, 60, 0
6, 37800, Note_on_c, 9, 64, 0
6, 37800, Note_on_c, 9, 60, 100
6, 37920, Note_on_c, 9, 60, 0
6, 37920, Note_on_c, 9, 63, 100
6, 37920, Note_on_c, 9, 60, 100
6, 38040, Note_on_c, 9, 60, 0
6, 38040, Note_on_c, 9, 60, 100
6, 38160, Note_on_c, 9, 60, 0
6, 38160, Note_on_c, 9, 63, 0
6, 38160, Note_on_c, 9, 62, 100
6, 38160, Note_on_c, 9, 63, 100
6, 38160, Note_on_c, 9, 60, 100
6, 38280, Note_on_c, 9, 60, 0
6, 38280, Note_on_c, 9, 62, 0
6, 38280, Note_on_c, 9, 60, 100
6, 38338, Note_on_c, 9, 60, 0
6, 38340, Note_on_c, 9, 60, 100
6, 38398, Note_on_c, 9, 60, 0
6, 38400, Note_on_c, 9, 63, 0
6, 38400, Note_on_c, 9, 62, 100
6, 38400, Note_on_c, 9, 60, 100
6, 38520, Note_on_c, 9, 60, 0
6, 38520, Note_on_c, 9, 62, 0
6, 38520, Note_on_c, 9, 60, 100
6, 38578, Note_on_c, 9, 60, 0
6, 38580, Note_on_c, 9, 60, 100
6, 38638, Note_on_c, 9, 60, 0
6, 38640, Note_on_c, 9, 64, 100
6, 38640, Note_on_c, 9, 60, 100
6, 38760, Note_on_c, 9, 60, 0
6, 38760, Note_on_c, 9, 64, 0
6, 38760, Note_on_c, 9, 60, 100
6, 38880, Note_on_c, 9, 60, 0
6, 38880, Note_on_c, 9, 63, 100
6, 38880, Note_on_c, 9, 60, 100
6, 39000, Note_on_c, 9, 60, 0
6, 39000, Note_on_c, 9, 64, 100
6, 39000, Note_on_c, 9, 60, 100
6, 39060, Note_on_c, 9, 64, 0
6, 39060, Note_on_c, 9, 61, 100
6, 39120, Note_on_c, 9, 61, 0
6, 39120, Note_on_c, 9, 60, 0
6, 39120, Note_on_c, 9, 63, 0
6, 39120, Note_on_c, 9, 62, 100
6, 39120, Note_on_c, 9, 63, 100
6, 39120, Note_on_c, 9, 60, 100
6, 39240, Note_on_c, 9, 60, 0
6, 39240, Note_on_c, 9, 62, 0
6, 39240, Note_on_c, 9, 60, 100
6, 39298, Note_on_c, 9, 60, 0
6, 39300, Note_on_c, 9, 60, 100
6, 39358, Note_on_c, 9, 60, 0
6, 39360, Note_on_c, 9, 63, 0
6, 39360, Note_on_c, 9, 62, 100
6, 39360, Note_on_c, 9, 60, 100
6, 39480, Note_on_c, 9, 60, 0
6, 39480, Note_on_c, 9, 62, 0
6, 39480, Note_on_c, 9, 60, 100
6, 39538, Note_on_c, 9, 60, 0
6, 39540, Note_on_c, 9, 60, 100
6, 39598, Note_on_c, 9, 60, 0
6, 39600, Note_on_c, 9, 64, 100
6, 39600, Note_on_c, 9, 60, 100
6, 39720, Note_on_c, 9, 60, 0
6, 39720, Note_on_c, 9, 64, 0
6, 39720, Note_on_c, 9, 60, 100
6, 39840, Note_on_c, 9, 60, 0
6, 39840, Note_on_c, 9, 63, 100
6, 39840, Note_on_c, 9, 60, 100
6, 39960, Note_on_c, 9, 60, 0
6, 39960, Note_on_c, 9, 60, 100
6, 40080, Note_on_c, 9, 60, 0
6, 40080, Note_on_c, 9, 63, 0
6, 40080, Note_on_c, 9, 62, 100
6, 40080, Note_on_c, 9, 63, 100
6, 40080, Note_on_c, 9, 60, 100
6, 40200, Note_on_c, 9, 60, 0
6, 40200, Note_on_c, 9, 62, 0
6, 40200, Note_on_c, 9, 60, 100
6, 40258, Note_on_c, 9, 60, 0
6, 40260, Note_on_c, 9, 60, 100
6, 40318, Note_on_c, 9, 60, 0
6, 40320, Note_on_c, 9, 63, 0
6, 40320, Note_on_c, 9, 62, 100
6, 40320, Note_on_c, 9, 60, 100
6, 40440, Note_on_c, 9, 60, 0
6, 40440, Note_on_c, 9, 62, 0
6, 40440, Note_on_c, 9, 60, 100
6, 40498, Note_on_c, 9, 60, 0
6, 40500, Note_on_c, 9, 60, 100
6, 40558, Note_on_c, 9, 60, 0
6, 40560, Note_on_c, 9, 64, 100
6, 40560, Note_on_c, 9, 60, 100
6, 40680, Note_on_c, 9, 60, 0
6, 40680, Note_on_c, 9, 64, 0
6, 40680, Note_on_c, 9, 60, 100
6, 40800, Note_on_c, 9, 60, 0
6, 40800, Note_on_c, 9, 63, 100
6, 40800, Note_on_c, 9, 60, 100
6, 40920, Note_on_c, 9, 60, 0
6, 40920, Note_on_c, 9, 60, 100
6, 41040, Note_on_c, 9, 60, 0
6, 41040, Note_on_c, 9, 63, 0
6, 41040, Note_on_c, 9, 62, 100
6, 41040, Note_on_c, 9, 63, 100
6, 41040, Note_on_c, 9, 60, 100
6, 41160, Note_on_c, 9, 60, 0
6, 41160, Note_on_c, 9, 62, 0
6, 41160, Note_on_c, 9, 60, 100
6, 41218, Note_on_c, 9, 60, 0
6, 41220, Note_on_c, 9, 60, 100
6, 41278, Note_on_c, 9, 60, 0
6, 41280, Note_on_c, 9, 63, 0
6, 41280, Note_on_c, 9, 62, 100
6, 41280, Note_on_c, 9, 60, 100
6, 41400, Note_on_c, 9, 60, 0
6, 41400, Note_on_c, 9, 62, 0
6, 41400, Note_on_c, 9, 60, 100
6, 41458, Note_on_c, 9, 60, 0
6, 41460, Note_on_c, 9, 60, 100
6, 41518, Note_on_c, 9, 60, 0
6, 41520, Note_on_c, 9, 64, 100
6, 41520, Note_on_c, 9, 60, 100
6, 41640, Note_on_c, 9, 60, 0
6, 41640, Note_on_c, 9, 64, 0
6, 41640, Note_on_c, 9, 60, 100
6, 41760, Note_on_c, 9, 60, 0
6, 41760, Note_on_c, 9, 63, 100
6, 41760, Note_on_c, 9, 60, 100
6, 41880, Note_on_c, 9, 60, 0
6, 41880, Note_on_c, 9, 64, 100
6, 41880, Note_on_c, 9, 60, 100
6, 41940, Note_on_c, 9, 64, 0
6, 41940, Note_on_c, 9, 61, 100
6, 42000, Note_on_c, 9, 61, 0
6, 42000, Note_on_c, 9, 60, 0
6, 42000, Note_on_c, 9, 63, 0
6, 42000, Note_on_c, 9, 62, 100
6, 42000, Note_on_c, 9, 63, 100
6, 42000, Note_on_c, 9, 60, 100
6, 42120, Note_on_c, 9, 60, 0
6, 42120, Note_on_c, 9, 62, 0
6, 42120, Note_on_c, 9, 60, 100
6, 42178, Note_on_c, 9, 60, 0
6, 42180, Note_on_c, 9, 60, 100
6, 42238, Note_on_c, 9, 60, 0
6, 42240, Note_on_c, 9, 63, 0
6, 42240, Note_on_c, 9, 62, 100
6, 42240, Note_on_c, 9, 60, 100
6, 42360, Note_on_c, 9, 60, 0
6, 42360, Note_on_c, 9, 62, 0
6, 42360, Note_on_c, 9, 60, 100
6, 42418, Note_on_c, 9, 60, 0
6, 42420, Note_on_c, 9, 60, 100
6, 42478, Note_on_c, 9, 60, 0
6, 42480, Note_on_c, 9, 64, 100
6, 42480, Note_on_c, 9, 60, 100
6, 42600, Note_on_c, 9, 60, 0
6, 42600, Note_on_c, 9, 64, 0
6, 42600, Note_on_c, 9, 60, 100
6, 42720, Note_on_c, 9, 60, 0
6, 42720, Note_on_c, 9, 63, 100
6, 42720, Note_on_c, 9, 60, 100
6, 42840, Note_on_c, 9, 60, 0
6, 42840, Note_on_c, 9, 60, 100
6, 42960, Note_on_c, 9, 60, 0
6, 42960, Note_on_c, 9, 63, 0
6, 42960, Note_on_c, 9, 62, 100
6, 42960, Note_on_c, 9, 63, 100
6, 42960, Note_on_c, 9, 60, 100
6, 43080, Note_on_c, 9, 60, 0
6, 43080, Note_on_c, 9, 62, 0
6, 43080, Note_on_c, 9, 60, 100
6, 43138, Note_on_c, 9, 60, 0
6, 43140, Note_on_c, 9, 60, 100
6, 43198, Note_on_c, 9, 60, 0
6, 43200, Note_on_c, 9, 63, 0
6, 43200, Note_on_c, 9, 62, 100
6, 43200, Note_on_c, 9, 60, 100
6, 43320, Note_on_c, 9, 60, 0
6, 43320, Note_on_c, 9, 62, 0
6, 43320, Note_on_c, 9, 60, 100
6, 43378, Note_on_c, 9, 60, 0
6, 43380, Note_on_c, 9, 60, 100
6, 43438, Note_on_c, 9, 60, 0
6, 43440, Note_on_c, 9, 64, 100
6, 43440, Note_on_c, 9, 60, 100
6, 43560, Note_on_c, 9, 60, 0
6, 43560, Note_on_c, 9, 64, 0
6, 43560, Note_on_c, 9, 60, 100
6, 43680, Note_on_c, 9, 60, 0
6, 43680, Note_on_c, 9, 63, 100
6, 43680, Note_on_c, 9, 60, 100
6, 43800, Note_on_c, 9, 60, 0
6, 43800, Note_on_c, 9, 60, 100
6, 43920, Note_on_c, 9, 60, 0
6, 43920, Note_on_c, 9, 63, 0
6, 43920, Note_on_c, 9, 62, 100
6, 43920, Note_on_c, 9, 63, 100
6, 43920, Note_on_c, 9, 60, 100
6, 44040, Note_on_c, 9, 60, 0
6, 44040, Note_on_c, 9, 62, 0
6, 44040, Note_on_c, 9, 60, 100
6, 44098, Note_on_c, 9, 60, 0
6, 44100, Note_on_c, 9, 60, 100
6, 44158, Note_on_c, 9, 60, 0
6, 44160, Note_on_c, 9, 63, 0
6, 44160, Note_on_c, 9, 62, 100
6, 44160, Note_on_c, 9, 60, 100
6, 44280, Note_on_c, 9, 60, 0
6, 44280, Note_on_c, 9, 62, 0
6, 44280, Note_on_c, 9, 60, 100
6, 44338, Note_on_c, 9, 60, 0
6, 44340, Note_on_c, 9, 60, 100
6, 44398, Note_on_c, 9, 60, 0
6, 44400, Note_on_c, 9, 64, 100
6, 44400, Note_on_c, 9, 60, 100
6, 44520, Note_on_c, 9, 60, 0
6, 44520, Note_on_c, 9, 64, 0
6, 44520, Note_on_c, 9, 60, 100
6, 44640, Note_on_c, 9, 60, 0
6, 44640, Note_on_c, 9, 63, 100
6, 44640, Note_on_c, 9, 60, 100
6, 44760, Note_on_c, 9, 60, 0
6, 44760, Note_on_c, 9, 64, 100
6, 44760, Note_on_c, 9, 60, 100
6, 44820, Note_on_c, 9, 64, 0
6, 44820, Note_on_c, 9, 61, 100
6, 44880, Note_on_c, 9, 61, 0
6, 44880, Note_on_c, 9, 60, 0
6, 44880, Note_on_c, 9, 63, 0
6, 44880, Note_on_c, 9, 63, 100
6, 44880, Note_on_c, 9, 60, 100
6, 45000, Note_on_c, 9, 60, 0
6, 45000, Note_on_c, 9, 63, 0
6, 45106, Note_on_c, 9, 60, 100
6, 45120, Note_on_c, 9, 64, 100
6, 45226, Note_on_c, 9, 60, 0
6, 45240, Note_on_c, 9, 64, 0
6, 45360, Note_on_c, 9, 60, 100
6, 45480, Note_on_c, 9, 60, 0
6, 45480, Note_on_c, 9, 64, 100
6, 45596, Note_on_c, 9, 60, 100
6, 45600, Note_on_c, 9, 64, 0
6, 45606, Note_on_c, 9, 63, 100
6, 45716, Note_on_c, 9, 60, 0
6, 45726, Note_on_c, 9, 63, 0
6, 45840, Note_on_c, 9, 62, 100
6, 45840, Note_on_c, 9, 63, 100
6, 45840, Note_on_c, 9, 60, 100
6, 45960, Note_on_c, 9, 60, 0
6, 45960, Note_on_c, 9, 62, 0
6, 45960, Note_on_c, 9, 60, 100
6, 46018, Note_on_c, 9, 60, 0
6, 46020, Note_on_c, 9, 60, 100
6, 46078, Note_on_c, 9, 60, 0
6, 46080, Note_on_c, 9, 63, 0
6, 46080, Note_on_c, 9, 62, 100
6, 46080, Note_on_c, 9, 60, 100
6, 46200, Note_on_c, 9, 60, 0
6, 46200, Note_on_c, 9, 62, 0
6, 46200, Note_on_c, 9, 60, 100
6, 46258, Note_on_c, 9, 60, 0
6, 46260, Note_on_c, 9, 60, 100
6, 46318, Note_on_c, 9, 60, 0
6, 46320, Note_on_c, 9, 64, 100
6, 46320, Note_on_c, 9, 60, 100
6, 46440, Note_on_c, 9, 60, 0
6, 46440, Note_on_c, 9, 64, 0
6, 46440, Note_on_c, 9, 60, 100
6, 46560, Note_on_c, 9, 60, 0
6, 46560, Note_on_c, 9, 63, 100
6, 46560, Note_on_c, 9, 60, 100
6, 46680, Note_on_c, 9, 60, 0
6, 46680, Note_on_c, 9, 64, 100
6, 46680, Note_on_c, 9, 60, 100
6, 46740, Note_on_c, 9, 64, 0
6, 46740, Note_on_c, 9, 61, 100
6, 46800, Note_on_c, 9, 61, 0
6, 46800, Note_on_c, 9, 60, 0
6, 46800, Note_on_c, 9, 63, 0
6, 46800, Note_on_c, 9, 63, 100
6, 46800, Note_on_c, 9, 60, 100
6, 46920, Note_on_c, 9, 60, 0
6, 46920, Note_on_c, 9, 63, 0
6, 47026, Note_on_c, 9, 60, 100
6, 47040, Note_on_c, 9, 64, 100
6, 47146, Note_on_c, 9, 60, 0
6, 47160, Note_on_c, 9, 64, 0
6, 47280, Note_on_c, 9, 60, 100
6, 47400, Note_on_c, 9, 60, 0
6, 47400, Note_on_c, 9, 64, 100
6, 47516, Note_on_c, 9, 60, 100
6, 47520, Note_on_c, 9, 64, 0
6, 47526, Note_on_c, 9, 63, 100
6, 47636, Note_on_c, 9, 60, 0
6, 47646, Note_on_c, 9, 63, 0
6, 47760, Note_on_c, 9, 64, 100
6, 47760, Note_on_c, 9, 60, 100
6, 47820, Note_on_c, 9, 64, 0
6, 47880, Note_on_c, 9, 60, 0
6, 48000, Note_on_c, 9, 63, 100
6, 48002, Note_on_c, 9, 60, 100
6, 48060, Note_on_c, 9, 63, 0
6, 48068, Note_on_c, 9, 60, 100
6, 48116, Note_on_c, 9, 60, 100
6, 48122, Note_on_c, 9, 60, 0
6, 48128, Note_on_c, 9, 60, 0
6, 48176, Note_on_c, 9, 60, 0
6, 48240, Note_on_c, 9, 64, 100
6, 48254, Note_on_c, 9, 60, 100
6, 48300, Note_on_c, 9, 64, 0
6, 48314, Note_on_c, 9, 60, 0
6, 48382, Note_on_c, 9, 60, 100
6, 48442, Note_on_c, 9, 60, 0
6, 48480, Note_on_c, 9, 63, 100
6, 48480, Note_on_c, 9, 60, 100
6, 48540, Note_on_c, 9, 60, 0
6, 48540, Note_on_c, 9, 63, 0
6, 48720, Note_on_c, 9, 63, 100
6, 48720, Note_on_c, 9, 60, 100
6, 48840, Note_on_c, 9, 60, 0
6, 48840, Note_on_c, 9, 63, 0
6, 48946, Note_on_c, 9, 60, 100
6, 48960, Note_on_c, 9, 64, 100
6, 49066, Note_on_c, 9, 60, 0
6, 49080, Note_on_c, 9, 64, 0
6, 49200, Note_on_c, 9, 60, 100
6, 49320, Note_on_c, 9, 60, 0
6, 49320, Note_on_c, 9, 64, 100
6, 49436, Note_on_c, 9, 60, 100
6, 49440, Note_on_c, 9, 64, 0
6, 49446, Note_on_c, 9, 63, 100
6, 49556, Note_on_c, 9, 60, 0
6, 49566, Note_on_c, 9, 63, 0
6, 49680, Note_on_c, 9, 63, 100
6, 49680, Note_on_c, 9, 60, 100
6, 49800, Note_on_c, 9, 60, 0
6, 49800, Note_on_c, 9, 63, 0
6, 49906, Note_on_c, 9, 60, 100
6, 49920, Note_on_c, 9, 64, 100
6, 50026, Note_on_c, 9, 60, 0
6, 50040, Note_on_c, 9, 64, 0
6, 50160, Note_on_c, 9, 60, 100
6, 50280, Note_on_c, 9, 60, 0
6, 50280, Note_on_c, 9, 64, 100
6, 50396, Note_on_c, 9, 60, 100
6, 50400, Note_on_c, 9, 64, 0
6, 50406, Note_on_c, 9, 63, 100
6, 50516, Note_on_c, 9, 60, 0
6, 50526, Note_on_c, 9, 63, 0
6, 50640, Note_on_c, 9, 64, 100
6, 50640, Note_on_c, 9, 60, 100
6, 50760, Note_on_c, 9, 60, 0
6, 50760, Note_on_c, 9, 64, 0
6, 50876, Note_on_c, 9, 60, 100
6, 50880, Note_on_c, 9, 64, 100
6, 50996, Note_on_c, 9, 60, 0
6, 51000, Note_on_c, 9, 64, 0
6, 53520, Note_on_c, 9, 63, 100
6, 53520, Note_on_c, 9, 60, 100
6, 53640, Note_on_c, 9, 60, 0
6, 53640, Note_on_c, 9, 64, 100
6, 53640, Note_on_c, 9, 60, 100
6, 53680, Note_on_c, 9, 60, 0
6, 53680, Note_on_c, 9, 60, 100
6, 53700, Note_on_c, 9, 63, 0
6, 53720, Note_on_c, 9, 60, 0
6, 53720, Note_on_c, 9, 60, 100
6, 53760, Note_on_c, 9, 60, 0
6, 53760, Note_on_c, 9, 60, 100
6, 53820, Note_on_c, 9, 60, 0
6, 53820, Note_on_c, 9, 64, 0
6, 53820, Note_on_c, 9, 60, 100
6, 53880, Note_on_c, 9, 60, 0
6, 53880, Note_on_c, 9, 64, 100
6, 53880, Note_on_c, 9, 60, 100
6, 54000, Note_on_c, 9, 60, 0
6, 54000, Note_on_c, 9, 64, 0
6, 54000, Note_on_c, 9, 62, 100
6, 54000, Note_on_c, 9, 63, 100
6, 54000, Note_on_c, 9, 60, 100
6, 54120, Note_on_c, 9, 60, 0
6, 54120, Note_on_c, 9, 62, 0
6, 54120, Note_on_c, 9, 60, 100
6, 54178, Note_on_c, 9, 60, 0
6, 54180, Note_on_c, 9, 60, 100
6, 54238, Note_on_c, 9, 60, 0
6, 54240, Note_on_c, 9, 63, 0
6, 54240, Note_on_c, 9, 62, 100
6, 54240, Note_on_c, 9, 60, 100
6, 54360, Note_on_c, 9, 60, 0
6, 54360, Note_on_c, 9, 62, 0
6, 54360, Note_on_c, 9, 60, 100
6, 54418, Note_on_c, 9, 60, 0
6, 54420, Note_on_c, 9, 60, 100
6, 54478, Note_on_c, 9, 60, 0
6, 54480, Note_on_c, 9, 64, 100
6, 54480, Note_on_c, 9, 60, 100
6, 54600, Note_on_c, 9, 60, 0
6, 54600, Note_on_c, 9, 64, 0
6, 54600, Note_on_c, 9, 60, 100
6, 54720, Note_on_c, 9, 60, 0
6, 54720, Note_on_c, 9, 63, 100
6, 54720, Note_on_c, 9, 60, 100
6, 54840, Note_on_c, 9, 60, 0
6, 54840, Note_on_c, 9, 64, 100
6, 54840, Note_on_c, 9, 60, 100
6, 54900, Note_on_c, 9, 64, 0
6, 54900, Note_on_c, 9, 61, 100
6, 54960, Note_on_c, 9, 61, 0
6, 54960, Note_on_c, 9, 60, 0
6, 54960, Note_on_c, 9, 63, 0
6, 54960, Note_on_c, 9, 62, 100
6, 54960, Note_on_c, 9, 63, 100
6, 54960, Note_on_c, 9, 60, 100
6, 55080, Note_on_c, 9, 60, 0
6, 55080, Note_on_c, 9, 62, 0
6, 55080, Note_on_c, 9, 60, 100
6, 55138, Note_on_c, 9, 60, 0
6, 55140, Note_on_c, 9, 60, 100
6, 55198, Note_on_c, 9, 60, 0
6, 55200, Note_on_c, 9, 63, 0
6, 55200, Note_on_c, 9, 62, 100
6, 55200, Note_on_c, 9, 60, 100
6, 55320, Note_on_c, 9, 60, 0
6, 55320, Note_on_c, 9, 62, 0
6, 55320, Note_on_c, 9, 60, 100
6, 55378, Note_on_c, 9, 60, 0
6, 55380, Note_on_c, 9, 60, 100
6, 55438, Note_on_c, 9, 60, 0
6, 55440, Note_on_c, 9, 64, 100
6, 55440, Note_on_c, 9, 60, 100
6, 55560, Note_on_c, 9, 60, 0
6, 55560, Note_on_c, 9, 64, 0
6, 55560, Note_on_c, 9, 60, 100
6, 55680, Note_on_c, 9, 60, 0
6, 55680, Note_on_c, 9, 63, 100
6, 55680, Note_on_c, 9, 60, 100
6, 55800, Note_on_c, 9, 60, 0
6, 55800, Note_on_c, 9, 60, 100
6, 55920, Note_on_c, 9, 60, 0
6, 55920, Note_on_c, 9, 63, 0
6, 55920, Note_on_c, 9, 62, 100
6, 55920, Note_on_c, 9, 63, 100
6, 55920, Note_on_c, 9, 60, 100
6, 56040, Note_on_c, 9, 60, 0
6, 56040, Note_on_c, 9, 62, 0
6, 56040, Note_on_c, 9, 60, 100
6, 56098, Note_on_c, 9, 60, 0
6, 56100, Note_on_c, 9, 60, 100
6, 56158, Note_on_c, 9, 60, 0
6, 56160, Note_on_c, 9, 63, 0
6, 56160, Note_on_c, 9, 62, 100
6, 56160, Note_on_c, 9, 60, 100
6, 56280, Note_on_c, 9, 60, 0
6, 56280, Note_on_c, 9, 62, 0
6, 56280, Note_on_c, 9, 60, 100
6, 56338, Note_on_c, 9, 60, 0
6, 56340, Note_on_c, 9, 60, 100
6, 56398, Note_on_c, 9, 60, 0
6, 56400, Note_on_c, 9, 64, 100
6, 56400, Note_on_c, 9, 60, 100
6, 56520, Note_on_c, 9, 60, 0
6, 56520, Note_on_c, 9, 64, 0
6, 56520, Note_on_c, 9, 60, 100
6, 56640, Note_on_c, 9, 60, 0
6, 56640, Note_on_c, 9, 63, 100
6, 56640, Note_on_c, 9, 60, 100
6, 56760, Note_on_c, 9, 60, 0
6, 56760, Note_on_c, 9, 60, 100
6, 56880, Note_on_c, 9, 60, 0
6, 56880, Note_on_c, 9, 63, 0
6, 56880, Note_on_c, 9, 62, 100
6, 56880, Note_on_c, 9, 63, 100
6, 56880, Note_on_c, 9, 60, 100
6, 57000, Note_on_c, 9, 60, 0
6, 57000, Note_on_c, 9, 62, 0
6, 57000, Note_on_c, 9, 60, 100
6, 57058, Note_on_c, 9, 60, 0
6, 57060, Note_on_c, 9, 60, 100
6, 57118, Note_on_c, 9, 60, 0
6, 57120, Note_on_c, 9, 63, 0
6, 57120, Note_on_c, 9, 62, 100
6, 57120, Note_on_c, 9, 60, 100
6, 57240, Note_on_c, 9, 60, 0
6, 57240, Note_on_c, 9, 62, 0
6, 57240, Note_on_c, 9, 60, 100
6, 57298, Note_on_c, 9, 60, 0
6, 57300, Note_on_c, 9, 60, 100
6, 57358, Note_on_c, 9, 60, 0
6, 57360, Note_on_c, 9, 64, 100
6, 57360, Note_on_c, 9, 60, 100
6, 57480, Note_on_c, 9, 60, 0
6, 57480, Note_on_c, 9, 64, 0
6, 57480, Note_on_c, 9, 60, 100
6, 57600, Note_on_c, 9, 60, 0
6, 57600, Note_on_c, 9, 63, 100
6, 57600, Note_on_c, 9, 60, 100
6, 57720, Note_on_c, 9, 60, 0
6, 57720, Note_on_c, 9, 60, 100
6, 57840, Note_on_c, 9, 60, 0
6, 57840, Note_on_c, 9, 63, 0
6, 57840, Note_on_c, 9, 60, 100
6, 57960, Note_on_c, 9, 60, 0
6, 57960, Note_on_c, 9, 60, 100
6, 58080, Note_on_c, 9, 60, 0
6, 58080, Note_on_c, 9, 63, 100
6, 58080, Note_on_c, 9, 60, 100
6, 58194, Note_on_c, 9, 60, 100
6, 58200, Note_on_c, 9, 60, 0
6, 58200, Note_on_c, 9, 63, 0
6, 58314, Note_on_c, 9, 60, 0
6, 58320, Note_on_c, 9, 63, 100
6, 58320, Note_on_c, 9, 60, 100
6, 58440, Note_on_c, 9, 60, 0
6, 58440, Note_on_c, 9, 63, 0
6, 58440, Note_on_c, 9, 60, 100
6, 58560, Note_on_c, 9, 60, 0
6, 58560, Note_on_c, 9, 63, 100
6, 58560, Note_on_c, 9, 60, 100
6, 58680, Note_on_c, 9, 60, 0
6, 58680, Note_on_c, 9, 63, 0
6, 58680, Note_on_c, 9, 60, 100
6, 58800, Note_on_c, 9, 60, 0
6, 58800, Note_on_c, 9, 63, 100
6, 58800, Note_on_c, 9, 60, 100
6, 58920, Note_on_c, 9, 60, 0
6, 58920, Note_on_c, 9, 63, 0
6, 58920, Note_on_c, 9, 60, 100
6, 58980, Note_on_c, 9, 60, 0
6, 58980, Note_on_c, 9, 60, 100
6, 59040, Note_on_c, 9, 60, 0
6, 59040, Note_on_c, 9, 64, 100
6, 59040, Note_on_c, 9, 60, 100
6, 59160, Note_on_c, 9, 60, 0
6, 59160, Note_on_c, 9, 64, 0
6, 59160, Note_on_c, 9, 63, 100
6, 59160, Note_on_c, 9, 60, 100
6, 59280, Note_on_c, 9, 60, 0
6, 59280, Note_on_c, 9, 63, 0
6, 59280, Note_on_c, 9, 64, 100
6, 59280, Note_on_c, 9, 60, 100
6, 59400, Note_on_c, 9, 60, 0
6, 59400, Note_on_c, 9, 64, 0
6, 59400, Note_on_c, 9, 63, 100
6, 59400, Note_on_c, 9, 60, 100
6, 59520, Note_on_c, 9, 60, 0
6, 59520, Note_on_c, 9, 63, 0
6, 59520, Note_on_c, 9, 64, 100
6, 59520, Note_on_c, 9, 60, 100
6, 59580, Note_on_c, 9, 60, 0
6, 59580, Note_on_c, 9, 60, 100
6, 59640, Note_on_c, 9, 60, 0
6, 59640, Note_on_c, 9, 64, 0
6, 59640, Note_on_c, 9, 64, 100
6, 59640, Note_on_c, 9, 60, 100
6, 59760, Note_on_c, 9, 60, 0
6, 59760, Note_on_c, 9, 64, 0
6, 59760, Note_on_c, 9, 63, 100
6, 59760, Note_on_c, 9, 60, 100
6, 59880, Note_on_c, 9, 60, 0
6, 59880, Note_on_c, 9, 63, 0
6, 59880, Note_on_c, 9, 60, 100
6, 59940, Note_on_c, 9, 60, 0
6, 59940, Note_on_c, 9, 60, 100
6, 60000, Note_on_c, 9, 60, 0
6, 60000, Note_on_c, 9, 62, 100
6, 60000, Note_on_c, 9, 63, 100
6, 60000, Note_on_c, 9, 60, 100
6, 60120, Note_on_c, 9, 60, 0
6, 60120, Note_on_c, 9, 62, 0
6, 60120, Note_on_c, 9, 60, 100
6, 60178, Note_on_c, 9, 60, 0
6, 60180, Note_on_c, 9, 60, 100
6, 60238, Note_on_c, 9, 60, 0
6, 60240, Note_on_c, 9, 63, 0
6, 60240, Note_on_c, 9, 62, 100
6, 60240, Note_on_c, 9, 60, 100
6, 60360, Note_on_c, 9, 60, 0
6, 60360, Note_on_c, 9, 62, 0
6, 60360, Note_on_c, 9, 60, 100
6, 60418, Note_on_c, 9, 60, 0
6, 60420, Note_on_c, 9, 60, 100
6, 60478, Note_on_c, 9, 60, 0
6, 60480, Note_on_c, 9, 64, 100
6, 60480, Note_on_c, 9, 60, 100
6, 60600, Note_on_c, 9, 60, 0
6, 60600, Note_on_c, 9, 64, 0
6, 60600, Note_on_c, 9, 60, 100
6, 60720, Note_on_c, 9, 60, 0
6, 60720, Note_on_c, 9, 63, 100
6, 60720, Note_on_c, 9, 60, 100
6, 60840, Note_on_c, 9, 60, 0
6, 60840, Note_on_c, 9, 64, 100
6, 60840, Note_on_c, 9, 60, 100
6, 60900, Note_on_c, 9, 64, 0
6, 60900, Note_on_c, 9, 61, 100
6, 60960, Note_on_c, 9, 61, 0
6, 60960, Note_on_c, 9, 60, 0
6, 60960, Note_on_c, 9, 63, 0
6, 60960, Note_on_c, 9, 62, 100
6, 60960, Note_on_c, 9, 63, 100
6, 60960, Note_on_c, 9, 60, 100
6, 61080, Note_on_c, 9, 60, 0
6, 61080, Note_on_c, 9, 62, 0
6, 61080, Note_on_c, 9, 60, 100
6, 61138, Note_on_c, 9, 60, 0
6, 61140, Note_on_c, 9, 60, 100
6, 61198, Note_on_c, 9, 60, 0
6, 61200, Note_on_c, 9, 63, 0
6, 61200, Note_on_c, 9, 62, 100
6, 61200, Note_on_c, 9, 60, 100
6, 61320, Note_on_c, 9, 60, 0
6, 61320, Note_on_c, 9, 62, 0
6, 61320, Note_on_c, 9, 60, 100
6, 61378, Note_on_c, 9, 60, 0
6, 61380, Note_on_c, 9, 60, 100
6, 61438, Note_on_c, 9, 60, 0
6, 61440, Note_on_c, 9, 64, 100
6, 61440, Note_on_c, 9, 60, 100
6, 61560, Note_on_c, 9, 60, 0
6, 61560, Note_on_c, 9, 64, 0
6, 61560, Note_on_c, 9, 60, 100
6, 61680, Note_on_c, 9, 60, 0
6, 61680, Note_on_c, 9, 63, 100
6, 61680, Note_on_c, 9, 60, 100
6, 61800, Note_on_c, 9, 60, 0
6, 61800, Note_on_c, 9, 60, 100
6, 61920, Note_on_c, 9, 60, 0
6, 61920, Note_on_c, 9, 63, 0
6, 61920, Note_on_c, 9, 62, 100
6, 61920, Note_on_c, 9, 63, 100
6, 61920, Note_on_c, 9, 60, 100
6, 62040, Note_on_c, 9, 60, 0
6, 62040, Note_on_c, 9, 62, 0
6, 62040, Note_on_c, 9, 60, 100
6, 62098, Note_on_c, 9, 60, 0
6, 62100, Note_on_c, 9, 60, 100
6, 62158, Note_on_c, 9, 60, 0
6, 62160, Note_on_c, 9, 63, 0
6, 62160, Note_on_c, 9, 62, 100
6, 62160, Note_on_c, 9, 60, 100
6, 62280, Note_on_c, 9, 60, 0
6, 62280, Note_on_c, 9, 62, 0
6, 62280, Note_on_c, 9, 60, 100
6, 62338, Note_on_c, 9, 60, 0
6, 62340, Note_on_c, 9, 60, 100
6, 62398, Note_on_c, 9, 60, 0
6, 62400, Note_on_c, 9, 64, 100
6, 62400, Note_on_c, 9, 60, 100
6, 62520, Note_on_c, 9, 60, 0
6, 62520, Note_on_c, 9, 64, 0
6, 62520, Note_on_c, 9, 60, 100
6, 62640, Note_on_c, 9, 60, 0
6, 62640, Note_on_c, 9, 63, 100
6, 62640, Note_on_c, 9, 60, 100
6, 62760, Note_on_c, 9, 60, 0
6, 62760, Note_on_c, 9, 60, 100
6, 62880, Note_on_c, 9, 60, 0
6, 62880, Note_on_c, 9, 63, 0
6, 62880, Note_on_c, 9, 62, 100
6, 62880, Note_on_c, 9, 63, 100
6, 62880, Note_on_c, 9, 60, 100
6, 63000, Note_on_c, 9, 60, 0
6, 63000, Note_on_c, 9, 62, 0
6, 63000, Note_on_c, 9, 60, 100
6, 63058, Note_on_c, 9, 60, 0
6, 63060, Note_on_c, 9, 60, 100
6, 63118, Note_on_c, 9, 60, 0
6, 63120, Note_on_c, 9, 63, 0
6, 63120, Note_on_c, 9, 62, 100
6, 63120, Note_on_c, 9, 60, 100
6, 63240, Note_on_c, 9, 60, 0
6, 63240, Note_on_c, 9, 62, 0
6, 63240, Note_on_c, 9, 60, 100
6, 63298, Note_on_c, 9, 60, 0
6, 63300, Note_on_c, 9, 60, 100
6, 63358, Note_on_c, 9, 60, 0
6, 63360, Note_on_c, 9, 64, 100
6, 63360, Note_on_c, 9, 60, 100
6, 63480, Note_on_c, 9, 60, 0
6, 63480, Note_on_c, 9, 64, 0
6, 63480, Note_on_c, 9, 60, 100
6, 63600, Note_on_c, 9, 60, 0
6, 63600, Note_on_c, 9, 63, 100
6, 63600, Note_on_c, 9, 60, 100
6, 63720, Note_on_c, 9, 60, 0
6, 63720, Note_on_c, 9, 60, 100
6, 63840, Note_on_c, 9, 60, 0
6, 63840, Note_on_c, 9, 63, 0
6, 63840, Note_on_c, 9, 60, 100
6, 63960, Note_on_c, 9, 60, 0
6, 63960, Note_on_c, 9, 60, 100
6, 64080, Note_on_c, 9, 60, 0
6, 64080, Note_on_c, 9, 63, 100
6, 64080, Note_on_c, 9, 60, 100
6, 64194, Note_on_c, 9, 60, 100
6, 64200, Note_on_c, 9, 60, 0
6, 64200, Note_on_c, 9, 63, 0
6, 64314, Note_on_c, 9, 60, 0
6, 64320, Note_on_c, 9, 63, 100
6, 64320, Note_on_c, 9, 60, 100
6, 64440, Note_on_c, 9, 60, 0
6, 64440, Note_on_c, 9, 63, 0
6, 64440, Note_on_c, 9, 60, 100
6, 64560, Note_on_c, 9, 60, 0
6, 64560, Note_on_c, 9, 63, 100
6, 64560, Note_on_c, 9, 60, 100
6, 64680, Note_on_c, 9, 60, 0
6, 64680, Note_on_c, 9, 63, 0
6, 64680, Note_on_c, 9, 60, 100
6, 64800, Note_on_c, 9, 60, 0
6, 64800, Note_on_c, 9, 63, 100
6, 64800, Note_on_c, 9, 60, 100
6, 64860, Note_on_c, 9, 60, 100
6, 64920, Note_on_c, 9, 60, 0
6, 64920, Note_on_c, 9, 60, 0
6, 64920, Note_on_c, 9, 63, 0
6, 64920, Note_on_c, 9, 60, 100
6, 64980, Note_on_c, 9, 60, 0
6, 66000, Note_on_c, 9, 64, 127
6, 66000, Note_on_c, 9, 66, 100
6, 66120, Note_on_c, 9, 66, 0
6, 66120, Note_on_c, 9, 65, 100
6, 66240, Note_on_c, 9, 65, 0
6, 66240, Note_on_c, 9, 64, 0
6, 66240, Note_on_c, 9, 64, 120
6, 66240, Note_on_c, 9, 66, 100
6, 66360, Note_on_c, 9, 66, 0
6, 66360, Note_on_c, 9, 64, 0
6, 66360, Note_on_c, 9, 63, 127
6, 66480, Note_on_c, 9, 63, 0
6, 66480, Note_on_c, 9, 65, 100
6, 66600, Note_on_c, 9, 65, 0
6, 66600, Note_on_c, 9, 66, 100
6, 66720, Note_on_c, 9, 66, 0
6, 66720, Note_on_c, 9, 65, 100
6, 66840, Note_on_c, 9, 65, 0
6, 66840, Note_on_c, 9, 64, 127
6, 66840, Note_on_c, 9, 66, 100
6, 66960, Note_on_c, 9, 64, 0
6, 66960, Note_on_c, 9, 63, 127
6, 67080, Note_on_c, 9, 66, 0
6, 67080, Note_on_c, 9, 65, 100
6, 67200, Note_on_c, 9, 65, 0
6, 67200, Note_on_c, 9, 63, 0
6, 67200, Note_on_c, 9, 64, 127
6, 67200, Note_on_c, 9, 66, 100
6, 67320, Note_on_c, 9, 66, 0
6, 67320, Note_on_c, 9, 65, 100
6, 67440, Note_on_c, 9, 65, 0
6, 67440, Note_on_c, 9, 64, 0
6, 67440, Note_on_c, 9, 64, 120
6, 67440, Note_on_c, 9, 66, 100
6, 67560, Note_on_c, 9, 66, 0
6, 67560, Note_on_c, 9, 64, 0
6, 67560, Note_on_c, 9, 63, 127
6, 67680, Note_on_c, 9, 63, 0
6, 67680, Note_on_c, 9, 65, 100
6, 67800, Note_on_c, 9, 65, 0
6, 67800, Note_on_c, 9, 66, 100
6, 67920, Note_on_c, 9, 66, 0
6, 67920, Note_on_c, 9, 65, 100
6, 68040, Note_on_c, 9, 65, 0
6, 68040, Note_on_c, 9, 64, 127
6, 68040, Note_on_c, 9, 66, 100
6, 68160, Note_on_c, 9, 64, 0
6, 68160, Note_on_c, 9, 63, 127
6, 68280, Note_on_c, 9, 66, 0
6, 68280, Note_on_c, 9, 65, 100
6, 68400, Note_on_c, 9, 65, 0
6, 68400, Note_on_c, 9, 63, 0
6, 68400, Note_on_c, 9, 64, 127
6, 68400, Note_on_c, 9, 66, 100
6, 68520, Note_on_c, 9, 66, 0
6, 68520, Note_on_c, 9, 65, 100
6, 68640, Note_on_c, 9, 65, 0
6, 68640, Note_on_c, 9, 64, 0
6, 68640, Note_on_c, 9, 64, 120
6, 68640, Note_on_c, 9, 66, 100
6, 68760, Note_on_c, 9, 66, 0
6, 68760, Note_on_c, 9, 64, 0
6, 68760, Note_on_c, 9, 63, 127
6, 68880, Note_on_c, 9, 63, 0
6, 68880, Note_on_c, 9, 65, 100
6, 69000, Note_on_c, 9, 65, 0
6, 69000, Note_on_c, 9, 66, 100
6, 69120, Note_on_c, 9, 66, 0
6, 69120, Note_on_c, 9, 65, 100
6, 69240, Note_on_c, 9, 65, 0
6, 69240, Note_on_c, 9, 64, 127
6, 69240, Note_on_c, 9, 66, 100
6, 69360, Note_on_c, 9, 64, 0
6, 69360, Note_on_c, 9, 63, 127
6, 69480, Note_on_c, 9, 66, 0
6, 69480, Note_on_c, 9, 65, 100
6, 69600, Note_on_c, 9, 65, 0
6, 69600, Note_on_c, 9, 63, 0
6, 69600, Note_on_c, 9, 64, 127
6, 69600, Note_on_c, 9, 66, 100
6, 69720, Note_on_c, 9, 66, 0
6, 69720, Note_on_c, 9, 65, 100
6, 69840, Note_on_c, 9, 65, 0
6, 69840, Note_on_c, 9, 64, 0
6, 69840, Note_on_c, 9, 64, 120
6, 69840, Note_on_c, 9, 66, 100
6, 69960, Note_on_c, 9, 66, 0
6, 69960, Note_on_c, 9, 64, 0
6, 69960, Note_on_c, 9, 63, 127
6, 70080, Note_on_c, 9, 63, 0
6, 70080, Note_on_c, 9, 65, 100
6, 70200, Note_on_c, 9, 65, 0
6, 70200, Note_on_c, 9, 66, 100
6, 70320, Note_on_c, 9, 66, 0
6, 70320, Note_on_c, 9, 65, 100
6, 70440, Note_on_c, 9, 65, 0
6, 70440, Note_on_c, 9, 64, 127
6, 70440, Note_on_c, 9, 66, 100
6, 70560, Note_on_c, 9, 64, 0
6, 70560, Note_on_c, 9, 63, 127
6, 70680, Note_on_c, 9, 66, 0
6, 70680, Note_on_c, 9, 65, 100
6, 70800, Note_on_c, 9, 65, 0
6, 70800, Note_on_c, 9, 63, 0
6, 70800, Note_on_c, 9, 64, 127
6, 70800, Note_on_c, 9, 66, 100
6, 70920, Note_on_c, 9, 66, 0
6, 70920, Note_on_c, 9, 65, 100
6, 71040, Note_on_c, 9, 65, 0
6, 71040, Note_on_c, 9, 64, 0
6, 71040, Note_on_c, 9, 64, 120
6, 71040, Note_on_c, 9, 66, 100
6, 71160, Note_on_c, 9, 66, 0
6, 71160, Note_on_c, 9, 64, 0
6, 71160, Note_on_c, 9, 63, 127
6, 71280, Note_on_c, 9, 63, 0
6, 71280, Note_on_c, 9, 65, 100
6, 71400, Note_on_c, 9, 65, 0
6, 71400, Note_on_c, 9, 66, 100
6, 71520, Note_on_c, 9, 66, 0
6, 71520, Note_on_c, 9, 65, 100
6, 71640, Note_on_c, 9, 65, 0
6, 71640, Note_on_c, 9, 64, 127
6, 71640, Note_on_c, 9, 66, 100
6, 71760, Note_on_c, 9, 64, 0
6, 71760, Note_on_c, 9, 63, 127
6, 71880, Note_on_c, 9, 66, 0
6, 71880, Note_on_c, 9, 65, 100
6, 72000, Note_on_c, 9, 65, 0
6, 72000, Note_on_c, 9, 63, 0
6, 72000, Note_on_c, 9, 64, 127
6, 72000, Note_on_c, 9, 66, 100
6, 72120, Note_on_c, 9, 66, 0
6, 72120, Note_on_c, 9, 65, 100
6, 72240, Note_on_c, 9, 65, 0
6, 72240, Note_on_c, 9, 64, 0
6, 72240, Note_on_c, 9, 64, 120
6, 72240, Note_on_c, 9, 66, 100
6, 72360, Note_on_c, 9, 66, 0
6, 72360, Note_on_c, 9, 64, 0
6, 72360, Note_on_c, 9, 63, 127
6, 72480, Note_on_c, 9, 63, 0
6, 72480, Note_on_c, 9, 65, 100
6, 72600, Note_on_c, 9, 65, 0
6, 72600, Note_on_c, 9, 66, 100
6, 72720, Note_on_c, 9, 66, 0
6, 72720, Note_on_c, 9, 65, 100
6, 72840, Note_on_c, 9, 65, 0
6, 72840, Note_on_c, 9, 64, 127
6, 72840, Note_on_c, 9, 66, 100
6, 72960, Note_on_c, 9, 64, 0
6, 72960, Note_on_c, 9, 63, 127
6, 73080, Note_on_c, 9, 66, 0
6, 73080, Note_on_c, 9, 65, 100
6, 73200, Note_on_c, 9, 65, 0
6, 73200, Note_on_c, 9, 63, 0
6, 73200, Note_on_c, 9, 64, 127
6, 73200, Note_on_c, 9, 66, 100
6, 73320, Note_on_c, 9, 66, 0
6, 73320, Note_on_c, 9, 65, 100
6, 73440, Note_on_c, 9, 65, 0
6, 73440, Note_on_c, 9, 64, 0
6, 73440, Note_on_c, 9, 64, 120
6, 73440, Note_on_c, 9, 66, 100
6, 73560, Note_on_c, 9, 66, 0
6, 73560, Note_on_c, 9, 64, 0
6, 73560, Note_on_c, 9, 63, 127
6, 73680, Note_on_c, 9, 63, 0
6, 73680, Note_on_c, 9, 65, 100
6, 73800, Note_on_c, 9, 65, 0
6, 73800, Note_on_c, 9, 66, 100
6, 73920, Note_on_c, 9, 66, 0
6, 73920, Note_on_c, 9, 65, 100
6, 74040, Note_on_c, 9, 65, 0
6, 74040, Note_on_c, 9, 64, 127
6, 74040, Note_on_c, 9, 66, 100
6, 74160, Note_on_c, 9, 64, 0
6, 74160, Note_on_c, 9, 63, 127
6, 74280, Note_on_c, 9, 66, 0
6, 74280, Note_on_c, 9, 65, 100
6, 74400, Note_on_c, 9, 65, 0
6, 74400, Note_on_c, 9, 63, 0
6, 74400, Note_on_c, 9, 64, 127
6, 74400, Note_on_c, 9, 66, 100
6, 74520, Note_on_c, 9, 66, 0
6, 74520, Note_on_c, 9, 65, 100
6, 74640, Note_on_c, 9, 65, 0
6, 74640, Note_on_c, 9, 64, 0
6, 74640, Note_on_c, 9, 64, 120
6, 74640, Note_on_c, 9, 66, 100
6, 74760, Note_on_c, 9, 66, 0
6, 74760, Note_on_c, 9, 64, 0
6, 74760, Note_on_c, 9, 63, 127
6, 74880, Note_on_c, 9, 63, 0
6, 74880, Note_on_c, 9, 65, 100
6, 75000, Note_on_c, 9, 65, 0
6, 75000, Note_on_c, 9, 66, 100
6, 75120, Note_on_c, 9, 66, 0
6, 75120, Note_on_c, 9, 65, 100
6, 75240, Note_on_c, 9, 65, 0
6, 75240, Note_on_c, 9, 64, 127
6, 75240, Note_on_c, 9, 66, 100
6, 75360, Note_on_c, 9, 64, 0
6, 75360, Note_on_c, 9, 63, 127
6, 75480, Note_on_c, 9, 66, 0
6, 75480, Note_on_c, 9, 65, 100
6, 75600, Note_on_c, 9, 65, 0
6, 75600, Note_on_c, 9, 63, 0
6, 75600, Note_on_c, 9, 64, 127
6, 75600, Note_on_c, 9, 66, 100
6, 75720, Note_on_c, 9, 66, 0
6, 75720, Note_on_c, 9, 65, 100
6, 75840, Note_on_c, 9, 65, 0
6, 75840, Note_on_c, 9, 64, 0
6, 75840, Note_on_c, 9, 64, 120
6, 75840, Note_on_c, 9, 66, 100
6, 75960, Note_on_c, 9, 66, 0
6, 75960, Note_on_c, 9, 64, 0
6, 75960, Note_on_c, 9, 63, 127
6, 76080, Note_on_c, 9, 63, 0
6, 76080, Note_on_c, 9, 65, 100
6, 76200, Note_on_c, 9, 65, 0
6, 76200, Note_on_c, 9, 66, 100
6, 76320, Note_on_c, 9, 66, 0
6, 76320, Note_on_c, 9, 65, 100
6, 76440, Note_on_c, 9, 65, 0
6, 76440, Note_on_c, 9, 64, 127
6, 76440, Note_on_c, 9, 66, 100
6, 76560, Note_on_c, 9, 64, 0
6, 76560, Note_on_c, 9, 63, 127
6, 76680, Note_on_c, 9, 66, 0
6, 76680, Note_on_c, 9, 65, 100
6, 76800, Note_on_c, 9, 65, 0
6, 76800, Note_on_c, 9, 63, 0
6, 76800, Note_on_c, 9, 64, 127
6, 76800, Note_on_c, 9, 66, 100
6, 76920, Note_on_c, 9, 66, 0
6, 76920, Note_on_c, 9, 65, 100
6, 77040, Note_on_c, 9, 65, 0
6, 77040, Note_on_c, 9, 64, 0
6, 77040, Note_on_c, 9, 64, 120
6, 77040, Note_on_c, 9, 66, 100
6, 77160, Note_on_c, 9, 66, 0
6, 77160, Note_on_c, 9, 64, 0
6, 77160, Note_on_c, 9, 63, 127
6, 77280, Note_on_c, 9, 63, 0
6, 77280, Note_on_c, 9, 65, 100
6, 77400, Note_on_c, 9, 65, 0
6, 77400, Note_on_c, 9, 66, 100
6, 77520, Note_on_c, 9, 66, 0
6, 77520, Note_on_c, 9, 65, 100
6, 77640, Note_on_c, 9, 65, 0
6, 77640, Note_on_c, 9, 64, 127
6, 77640, Note_on_c, 9, 66, 100
6, 77760, Note_on_c, 9, 64, 0
6, 77760, Note_on_c, 9, 63, 127
6, 77880, Note_on_c, 9, 66, 0
6, 77880, Note_on_c, 9, 65, 100
6, 78000, Note_on_c, 9, 65, 0
6, 78000, Note_on_c, 9, 63, 0
6, 78000, Note_on_c, 9, 64, 127
6, 78000, Note_on_c, 9, 66, 100
6, 78120, Note_on_c, 9, 66, 0
6, 78120, Note_on_c, 9, 65, 100
6, 78240, Note_on_c, 9, 65, 0
6, 78240, Note_on_c, 9, 64, 0
6, 78240, Note_on_c, 9, 64, 120
6, 78240, Note_on_c, 9, 66, 100
6, 78360, Note_on_c, 9, 66, 0
6, 78360, Note_on_c, 9, 64, 0
6, 78360, Note_on_c, 9, 63, 127
6, 78480, Note_on_c, 9, 63, 0
6, 78480, Note_on_c, 9, 65, 100
6, 78600, Note_on_c, 9, 65, 0
6, 78600, Note_on_c, 9, 66, 100
6, 78720, Note_on_c, 9, 66, 0
6, 78720, Note_on_c, 9, 65, 100
6, 78840, Note_on_c, 9, 65, 0
6, 78840, Note_on_c, 9, 64, 127
6, 78840, Note_on_c, 9, 66, 100
6, 78960, Note_on_c, 9, 64, 0
6, 78960, Note_on_c, 9, 63, 127
6, 79080, Note_on_c, 9, 66, 0
6, 79080, Note_on_c, 9, 65, 100
6, 79200, Note_on_c, 9, 65, 0
6, 79200, Note_on_c, 9, 63, 0
6, 79200, Note_on_c, 9, 64, 127
6, 79200, Note_on_c, 9, 66, 100
6, 79320, Note_on_c, 9, 66, 0
6, 79320, Note_on_c, 9, 65, 100
6, 79440, Note_on_c, 9, 65, 0
6, 79440, Note_on_c, 9, 64, 0
6, 79440, Note_on_c, 9, 64, 120
6, 79440, Note_on_c, 9, 66, 100
6, 79560, Note_on_c, 9, 66, 0
6, 79560, Note_on_c, 9, 64, 0
6, 79560, Note_on_c, 9, 63, 127
6, 79680, Note_on_c, 9, 63, 0
6, 79680, Note_on_c, 9, 65, 100
6, 79800, Note_on_c, 9, 65, 0
6, 79800, Note_on_c, 9, 66, 100
6, 79920, Note_on_c, 9, 66, 0
6, 79920, Note_on_c, 9, 65, 100
6, 80040, Note_on_c, 9, 65, 0
6, 80040, Note_on_c, 9, 64, 127
6, 80040, Note_on_c, 9, 66, 100
6, 80160, Note_on_c, 9, 64, 0
6, 80160, Note_on_c, 9, 63, 127
6, 80280, Note_on_c, 9, 66, 0
6, 80280, Note_on_c, 9, 65, 100
6, 80400, Note_on_c, 9, 65, 0
6, 80400, Note_on_c, 9, 63, 0
6, 80400, Note_on_c, 9, 64, 127
6, 80400, Note_on_c, 9, 66, 100
6, 80520, Note_on_c, 9, 66, 0
6, 80520, Note_on_c, 9, 65, 100
6, 80640, Note_on_c, 9, 65, 0
6, 80640, Note_on_c, 9, 64, 0
6, 80640, Note_on_c, 9, 64, 120
6, 80640, Note_on_c, 9, 66, 100
6, 80760, Note_on_c, 9, 66, 0
6, 80760, Note_on_c, 9, 64, 0
6, 80760, Note_on_c, 9, 63, 127
6, 80880, Note_on_c, 9, 63, 0
6, 80880, Note_on_c, 9, 65, 100
6, 81000, Note_on_c, 9, 65, 0
6, 81000, Note_on_c, 9, 66, 100
6, 81120, Note_on_c, 9, 66, 0
6, 81120, Note_on_c, 9, 65, 100
6, 81240, Note_on_c, 9, 65, 0
6, 81240, Note_on_c, 9, 64, 127
6, 81240, Note_on_c, 9, 66, 100
6, 81360, Note_on_c, 9, 64, 0
6, 81360, Note_on_c, 9, 63, 127
6, 81480, Note_on_c, 9, 66, 0
6, 81480, Note_on_c, 9, 65, 100
6, 81600, Note_on_c, 9, 65, 0
6, 81600, Note_on_c, 9, 63, 0
6, 81600, Note_on_c, 9, 64, 127
6, 81600, Note_on_c, 9, 66, 100
6, 81720, Note_on_c, 9, 66, 0
6, 81720, Note_on_c, 9, 65, 100
6, 81840, Note_on_c, 9, 65, 0
6, 81840, Note_on_c, 9, 64, 0
6, 81840, Note_on_c, 9, 64, 120
6, 81840, Note_on_c, 9, 66, 100
6, 81960, Note_on_c, 9, 66, 0
6, 81960, Note_on_c, 9, 64, 0
6, 81960, Note_on_c, 9, 63, 127
6, 82080, Note_on_c, 9, 63, 0
6, 82080, Note_on_c, 9, 65, 100
6, 82200, Note_on_c, 9, 65, 0
6, 82200, Note_on_c, 9, 66, 100
6, 82320, Note_on_c, 9, 66, 0
6, 82320, Note_on_c, 9, 65, 100
6, 82440, Note_on_c, 9, 65, 0
6, 82440, Note_on_c, 9, 64, 127
6, 82440, Note_on_c, 9, 66, 100
6, 82560, Note_on_c, 9, 64, 0
6, 82560, Note_on_c, 9, 63, 127
6, 82680, Note_on_c, 9, 66, 0
6, 82680, Note_on_c, 9, 65, 100
6, 82800, Note_on_c, 9, 65, 0
6, 82800, Note_on_c, 9, 63, 0
6, 82800, Note_on_c, 9, 64, 127
6, 82800, Note_on_c, 9, 66, 100
6, 82920, Note_on_c, 9, 66, 0
6, 82920, Note_on_c, 9, 65, 100
6, 83040, Note_on_c, 9, 65, 0
6, 83040, Note_on_c, 9, 64, 0
6, 83040, Note_on_c, 9, 64, 120
6, 83040, Note_on_c, 9, 66, 100
6, 83160, Note_on_c, 9, 66, 0
6, 83160, Note_on_c, 9, 64, 0
6, 83160, Note_on_c, 9, 63, 127
6, 83280, Note_on_c, 9, 63, 0
6, 83280, Note_on_c, 9, 65, 100
6, 83400, Note_on_c, 9, 65, 0
6, 83400, Note_on_c, 9, 66, 100
6, 83520, Note_on_c, 9, 66, 0
6, 83520, Note_on_c, 9, 65, 100
6, 83640, Note_on_c, 9, 65, 0
6, 83640, Note_on_c, 9, 64, 127
6, 83640, Note_on_c, 9, 66, 100
6, 83760, Note_on_c, 9, 64, 0
6, 83760, Note_on_c, 9, 63, 127
6, 83880, Note_on_c, 9, 66, 0
6, 83880, Note_on_c, 9, 65, 100
6, 84000, Note_on_c, 9, 65, 0
6, 84000, Note_on_c, 9, 63, 0
6, 84000, Note_on_c, 9, 64, 127
6, 84000, Note_on_c, 9, 66, 100
6, 84120, Note_on_c, 9, 66, 0
6, 84120, Note_on_c, 9, 65, 100
6, 84240, Note_on_c, 9, 65, 0
6, 84240, Note_on_c, 9, 64, 0
6, 84240, Note_on_c, 9, 64, 120
6, 84240, Note_on_c, 9, 66, 100
6, 84360, Note_on_c, 9, 66, 0
6, 84360, Note_on_c, 9, 64, 0
6, 84360, Note_on_c, 9, 63, 127
6, 84480, Note_on_c, 9, 63, 0
6, 84480, Note_on_c, 9, 65, 100
6, 84600, Note_on_c, 9, 65, 0
6, 84600, Note_on_c, 9, 66, 100
6, 84720, Note_on_c, 9, 66, 0
6, 84720, Note_on_c, 9, 65, 100
6, 84840, Note_on_c, 9, 65, 0
6, 84840, Note_on_c, 9, 64, 127
6, 84840, Note_on_c, 9, 66, 100
6, 84960, Note_on_c, 9, 64, 0
6, 84960, Note_on_c, 9, 63, 127
6, 85080, Note_on_c, 9, 66, 0
6, 85080, Note_on_c, 9, 65, 100
6, 85200, Note_on_c, 9, 65, 0
6, 85200, Note_on_c, 9, 63, 0
6, 85200, Note_on_c, 9, 64, 127
6, 85200, Note_on_c, 9, 66, 100
6, 85320, Note_on_c, 9, 66, 0
6, 85320, Note_on_c, 9, 65, 100
6, 85440, Note_on_c, 9, 65, 0
6, 85440, Note_on_c, 9, 64, 0
6, 85440, Note_on_c, 9, 64, 120
6, 85440, Note_on_c, 9, 66, 100
6, 85560, Note_on_c, 9, 66, 0
6, 85560, Note_on_c, 9, 64, 0
6, 85560, Note_on_c, 9, 63, 127
6, 85680, Note_on_c, 9, 63, 0
6, 85680, Note_on_c, 9, 65, 100
6, 85800, Note_on_c, 9, 65, 0
6, 85800, Note_on_c, 9, 66, 100
6, 85920, Note_on_c, 9, 66, 0
6, 85920, Note_on_c, 9, 65, 100
6, 86040, Note_on_c, 9, 65, 0
6, 86040, Note_on_c, 9, 64, 127
6, 86040, Note_on_c, 9, 66, 100
6, 86160, Note_on_c, 9, 64, 0
6, 86160, Note_on_c, 9, 63, 127
6, 86280, Note_on_c, 9, 66, 0
6, 86280, Note_on_c, 9, 65, 100
6, 86400, Note_on_c, 9, 65, 0
6, 86400, Note_on_c, 9, 63, 0
6, 86400, Note_on_c, 9, 64, 127
6, 86400, Note_on_c, 9, 66, 100
6, 86520, Note_on_c, 9, 66, 0
6, 86520, Note_on_c, 9, 65, 100
6, 86640, Note_on_c, 9, 65, 0
6, 86640, Note_on_c, 9, 64, 0
6, 86640, Note_on_c, 9, 64, 120
6, 86640, Note_on_c, 9, 66, 100
6, 86760, Note_on_c, 9, 66, 0
6, 86760, Note_on_c, 9, 64, 0
6, 86760, Note_on_c, 9, 63, 127
6, 86880, Note_on_c, 9, 63, 0
6, 86880, Note_on_c, 9, 65, 100
6, 87000, Note_on_c, 9, 65, 0
6, 87000, Note_on_c, 9, 66, 100
6, 87120, Note_on_c, 9, 66, 0
6, 87120, Note_on_c, 9, 65, 100
6, 87240, Note_on_c, 9, 65, 0
6, 87240, Note_on_c, 9, 64, 127
6, 87240, Note_on_c, 9, 66, 100
6, 87360, Note_on_c, 9, 64, 0
6, 87360, Note_on_c, 9, 63, 127
6, 87480, Note_on_c, 9, 66, 0
6, 87480, Note_on_c, 9, 65, 100
6, 87600, Note_on_c, 9, 65, 0
6, 87600, Note_on_c, 9, 63, 0
6, 87600, Note_on_c, 9, 64, 127
6, 87600, Note_on_c, 9, 66, 100
6, 87720, Note_on_c, 9, 66, 0
6, 87720, Note_on_c, 9, 65, 100
6, 87840, Note_on_c, 9, 65, 0
6, 87840, Note_on_c, 9, 64, 0
6, 87840, Note_on_c, 9, 64, 120
6, 87840, Note_on_c, 9, 66, 100
6, 87960, Note_on_c, 9, 66, 0
6, 87960, Note_on_c, 9, 64, 0
6, 87960, Note_on_c, 9, 63, 127
6, 88080, Note_on_c, 9, 63, 0
6, 88080, Note_on_c, 9, 65, 100
6, 88200, Note_on_c, 9, 65, 0
6, 88200, Note_on_c, 9, 66, 100
6, 88320, Note_on_c, 9, 66, 0
6, 88320, Note_on_c, 9, 65, 100
6, 88440, Note_on_c, 9, 65, 0
6, 88440, Note_on_c, 9, 64, 127
6, 88440, Note_on_c, 9, 66, 100
6, 88560, Note_on_c, 9, 64, 0
6, 88560, Note_on_c, 9, 63, 127
6, 88680, Note_on_c, 9, 66, 0
6, 88680, Note_on_c, 9, 65, 100
6, 88800, Note_on_c, 9, 65, 0
6, 88800, Note_on_c, 9, 63, 0
6, 88800, Note_on_c, 9, 64, 127
6, 88800, Note_on_c, 9, 66, 100
6, 88920, Note_on_c, 9, 66, 0
6, 88920, Note_on_c, 9, 65, 100
6, 89040, Note_on_c, 9, 65, 0
6, 89040, Note_on_c, 9, 64, 0
6, 89040, Note_on_c, 9, 64, 120
6, 89040, Note_on_c, 9, 66, 100
6, 89160, Note_on_c, 9, 66, 0
6, 89160, Note_on_c, 9, 64, 0
6, 89160, Note_on_c, 9, 63, 127
6, 89280, Note_on_c, 9, 63, 0
6, 89280, Note_on_c, 9, 65, 100
6, 89400, Note_on_c, 9, 65, 0
6, 89400, Note_on_c, 9, 66, 100
6, 89520, Note_on_c, 9, 66, 0
6, 89520, Note_on_c, 9, 65, 100
6, 89640, Note_on_c, 9, 65, 0
6, 89640, Note_on_c, 9, 64, 127
6, 89640, Note_on_c, 9, 66, 100
6, 89760, Note_on_c, 9, 64, 0
6, 89760, Note_on_c, 9, 63, 127
6, 89880, Note_on_c, 9, 66, 0
6, 89880, Note_on_c, 9, 65, 100
6, 90000, Note_on_c, 9, 65, 0
6, 90000, Note_on_c, 9, 63, 0
6, 90000, Note_on_c, 9, 64, 127
6, 90000, Note_on_c, 9, 66, 100
6, 90120, Note_on_c, 9, 66, 0
6, 90120, Note_on_c, 9, 65, 100
6, 90240, Note_on_c, 9, 65, 0
6, 90240, Note_on_c, 9, 64, 0
6, 90240, Note_on_c, 9, 64, 120
6, 90240, Note_on_c, 9, 66, 100
6, 90360, Note_on_c, 9, 66, 0
6, 90360, Note_on_c, 9, 64, 0
6, 90360, Note_on_c, 9, 63, 127
6, 90480, Note_on_c, 9, 63, 0
6, 90480, Note_on_c, 9, 65, 100
6, 90600, Note_on_c, 9, 65, 0
6, 90600, Note_on_c, 9, 66, 100
6, 90720, Note_on_c, 9, 66, 0
6, 90720, Note_on_c, 9, 65, 100
6, 90840, Note_on_c, 9, 65, 0
6, 90840, Note_on_c, 9, 64, 127
6, 90840, Note_on_c, 9, 66, 100
6, 90960, Note_on_c, 9, 64, 0
6, 90960, Note_on_c, 9, 63, 127
6, 91080, Note_on_c, 9, 66, 0
6, 91080, Note_on_c, 9, 65, 100
6, 91200, Note_on_c, 9, 65, 0
6, 91200, Note_on_c, 9, 63, 0
6, 91200, Note_on_c, 9, 64, 127
6, 91200, Note_on_c, 9, 66, 100
6, 91320, Note_on_c, 9, 66, 0
6, 91320, Note_on_c, 9, 65, 100
6, 91440, Note_on_c, 9, 65, 0
6, 91440, Note_on_c, 9, 64, 0
6, 91440, Note_on_c, 9, 64, 120
6, 91440, Note_on_c, 9, 66, 100
6, 91560, Note_on_c, 9, 66, 0
6, 91560, Note_on_c, 9, 64, 0
6, 91560, Note_on_c, 9, 63, 127
6, 91680, Note_on_c, 9, 63, 0
6, 91680, Note_on_c, 9, 65, 100
6, 91800, Note_on_c, 9, 65, 0
6, 91800, Note_on_c, 9, 66, 100
6, 91920, Note_on_c, 9, 66, 0
6, 91920, Note_on_c, 9, 65, 100
6, 92040, Note_on_c, 9, 65, 0
6, 92040, Note_on_c, 9, 64, 127
6, 92040, Note_on_c, 9, 66, 100
6, 92160, Note_on_c, 9, 64, 0
6, 92160, Note_on_c, 9, 63, 127
6, 92280, Note_on_c, 9, 66, 0
6, 92280, Note_on_c, 9, 65, 100
6, 92400, Note_on_c, 9, 65, 0
6, 92400, Note_on_c, 9, 63, 0
6, 92400, Note_on_c, 9, 64, 127
6, 92400, Note_on_c, 9, 66, 100
6, 92520, Note_on_c, 9, 66, 0
6, 92520, Note_on_c, 9, 65, 100
6, 92640, Note_on_c, 9, 65, 0
6, 92640, Note_on_c, 9, 64, 0
6, 92640, Note_on_c, 9, 64, 120
6, 92640, Note_on_c, 9, 66, 100
6, 92760, Note_on_c, 9, 66, 0
6, 92760, Note_on_c, 9, 64, 0
6, 92760, Note_on_c, 9, 63, 127
6, 92880, Note_on_c, 9, 63, 0
6, 92880, Note_on_c, 9, 65, 100
6, 93000, Note_on_c, 9, 65, 0
6, 93000, Note_on_c, 9, 66, 100
6, 93120, Note_on_c, 9, 66, 0
6, 93120, Note_on_c, 9, 65, 100
6, 93240, Note_on_c, 9, 65, 0
6, 93240, Note_on_c, 9, 64, 127
6, 93240, Note_on_c, 9, 66, 100
6, 93360, Note_on_c, 9, 64, 0
6, 93360, Note_on_c, 9, 63, 127
6, 93480, Note_on_c, 9, 66, 0
6, 93480, Note_on_c, 9, 65, 100
6, 93600, Note_on_c, 9, 65, 0
6, 93600, Note_on_c, 9, 63, 0
6, 93600, Note_on_c, 9, 64, 127
6, 93600, Note_on_c, 9, 66, 100
6, 93720, Note_on_c, 9, 66, 0
6, 93720, Note_on_c, 9, 65, 100
6, 93840, Note_on_c, 9, 65, 0
6, 93840, Note_on_c, 9, 64, 0
6, 93840, Note_on_c, 9, 64, 120
6, 93840, Note_on_c, 9, 66, 100
6, 93960, Note_on_c, 9, 66, 0
6, 93960, Note_on_c, 9, 64, 0
6, 93960, Note_on_c, 9, 63, 127
6, 94080, Note_on_c, 9, 63, 0
6, 94080, Note_on_c, 9, 65, 100
6, 94200, Note_on_c, 9, 65, 0
6, 94200, Note_on_c, 9, 66, 100
6, 94320, Note_on_c, 9, 66, 0
6, 94320, Note_on_c, 9, 65, 100
6, 94440, Note_on_c, 9, 65, 0
6, 94440, Note_on_c, 9, 64, 127
6, 94440, Note_on_c, 9, 66, 100
6, 94560, Note_on_c, 9, 64, 0
6, 94560, Note_on_c, 9, 63, 127
6, 94680, Note_on_c, 9, 66, 0
6, 94680, Note_on_c, 9, 65, 100
6, 94800, Note_on_c, 9, 65, 0
6, 94800, Note_on_c, 9, 63, 0
6, 94800, Note_on_c, 9, 64, 127
6, 94800, Note_on_c, 9, 66, 100
6, 94920, Note_on_c, 9, 66, 0
6, 94920, Note_on_c, 9, 65, 100
6, 95040, Note_on_c, 9, 65, 0
6, 95040, Note_on_c, 9, 64, 0
6, 95040, Note_on_c, 9, 64, 120
6, 95040, Note_on_c, 9, 66, 100
6, 95160, Note_on_c, 9, 66, 0
6, 95160, Note_on_c, 9, 64, 0
6, 95160, Note_on_c, 9, 63, 127
6, 95280, Note_on_c, 9, 63, 0
6, 95280, Note_on_c, 9, 65, 100
6, 95400, Note_on_c, 9, 65, 0
6, 95400, Note_on_c, 9, 66, 100
6, 95520, Note_on_c, 9, 66, 0
6, 95520, Note_on_c, 9, 65, 100
6, 95640, Note_on_c, 9, 65, 0
6, 95640, Note_on_c, 9, 64, 127
6, 95640, Note_on_c, 9, 66, 100
6, 95760, Note_on_c, 9, 64, 0
6, 95760, Note_on_c, 9, 63, 127
6, 95880, Note_on_c, 9, 66, 0
6, 95880, Note_on_c, 9, 65, 100
6, 96000, Note_on_c, 9, 65, 0
6, 96000, Note_on_c, 9, 63, 0
6, 96000, Note_on_c, 9, 64, 127
6, 96000, Note_on_c, 9, 66, 100
6, 96120, Note_on_c, 9, 66, 0
6, 96120, Note_on_c, 9, 65, 100
6, 96240, Note_on_c, 9, 65, 0
6, 96240, Note_on_c, 9, 64, 0
6, 96240, Note_on_c, 9, 64, 120
6, 96240, Note_on_c, 9, 66, 100
6, 96360, Note_on_c, 9, 66, 0
6, 96360, Note_on_c, 9, 64, 0
6, 96360, Note_on_c, 9, 63, 127
6, 96480, Note_on_c, 9, 63, 0
6, 96480, Note_on_c, 9, 65, 100
6, 96600, Note_on_c, 9, 65, 0
6, 96600, Note_on_c, 9, 66, 100
6, 96720, Note_on_c, 9, 66, 0
6, 96720, Note_on_c, 9, 65, 100
6, 96840, Note_on_c, 9, 65, 0
6, 96840, Note_on_c, 9, 64, 127
6, 96840, Note_on_c, 9, 66, 100
6, 96960, Note_on_c, 9, 64, 0
6, 96960, Note_on_c, 9, 63, 127
6, 97080, Note_on_c, 9, 66, 0
6, 97080, Note_on_c, 9, 65, 100
6, 97200, Note_on_c, 9, 65, 0
6, 97200, Note_on_c, 9, 63, 0
6, 97200, Note_on_c, 9, 64, 127
6, 97200, Note_on_c, 9, 66, 100
6, 97320, Note_on_c, 9, 66, 0
6, 97320, Note_on_c, 9, 65, 100
6, 97440, Note_on_c, 9, 65, 0
6, 97440, Note_on_c, 9, 64, 0
6, 97440, Note_on_c, 9, 64, 120
6, 97440, Note_on_c, 9, 66, 100
6, 97560, Note_on_c, 9, 66, 0
6, 97560, Note_on_c, 9, 64, 0
6, 97560, Note_on_c, 9, 63, 127
6, 97680, Note_on_c, 9, 63, 0
6, 97680, Note_on_c, 9, 65, 100
6, 97800, Note_on_c, 9, 65, 0
6, 97800, Note_on_c, 9, 66, 100
6, 97920, Note_on_c, 9, 66, 0
6, 97920, Note_on_c, 9, 65, 100
6, 98040, Note_on_c, 9, 65, 0
6, 98040, Note_on_c, 9, 64, 127
6, 98040, Note_on_c, 9, 66, 100
6, 98160, Note_on_c, 9, 64, 0
6, 98160, Note_on_c, 9, 63, 127
6, 98280, Note_on_c, 9, 66, 0
6, 98280, Note_on_c, 9, 65, 100
6, 98400, Note_on_c, 9, 65, 0
6, 98400, Note_on_c, 9, 63, 0
6, 98400, Note_on_c, 9, 64, 127
6, 98400, Note_on_c, 9, 66, 100
6, 98520, Note_on_c, 9, 66, 0
6, 98520, Note_on_c, 9, 65, 100
6, 98640, Note_on_c, 9, 65, 0
6, 98640, Note_on_c, 9, 64, 0
6, 98652, Note_on_c, 9, 66, 100
6, 98654, Note_on_c, 9, 64, 127
6, 98772, Note_on_c, 9, 66, 0
6, 98894, Note_on_c, 9, 64, 0
6, 103200, Note_on_c, 9, 64, 100
6, 103200, Note_on_c, 9, 66, 100
6, 103440, Note_on_c, 9, 66, 0
6, 103440, Note_on_c, 9, 64, 0
6, 103560, Note_on_c, 9, 60, 100
6, 103680, Note_on_c, 9, 60, 0
6, 103680, Note_on_c, 9, 66, 100
6, 103680, Note_on_c, 9, 64, 100
6, 103920, Note_on_c, 9, 64, 0
6, 103920, Note_on_c, 9, 66, 0
6, 104040, Note_on_c, 9, 60, 100
6, 104160, Note_on_c, 9, 60, 0
6, 104160, Note_on_c, 9, 65, 100
6, 104160, Note_on_c, 9, 64, 100
6, 104400, Note_on_c, 9, 64, 0
6, 104400, Note_on_c, 9, 65, 0
6, 104400, Note_on_c, 9, 64, 100
6, 104400, Note_on_c, 9, 65, 100
6, 104640, Note_on_c, 9, 65, 0
6, 104640, Note_on_c, 9, 64, 0
6, 104640, Note_on_c, 9, 65, 100
6, 104640, Note_on_c, 9, 64, 100
6, 104880, Note_on_c, 9, 64, 0
6, 104880, Note_on_c, 9, 65, 0
6, 104880, Note_on_c, 9, 65, 100
6, 104880, Note_on_c, 9, 64, 100
6, 105120, Note_on_c, 9, 64, 0
6, 105120, Note_on_c, 9, 65, 0
6, 105120, Note_on_c, 9, 64, 100
6, 105120, Note_on_c, 9, 65, 100
6, 105360, Note_on_c, 9, 65, 0
6, 105360, Note_on_c, 9, 64, 0
6, 105360, Note_on_c, 9, 60, 100
6, 105480, Note_on_c, 9, 64, 100
6, 105480, Note_on_c, 9, 65, 100
6, 105600, Note_on_c, 9, 60, 0
6, 105600, Note_on_c, 9, 60, 100
6, 105840, Note_on_c, 9, 60, 0
6, 105840, Note_on_c, 9, 65, 0
6, 105840, Note_on_c, 9, 64, 0
6, 105840, Note_on_c, 9, 65, 100
6, 105840, Note_on_c, 9, 64, 100
6, 106080, Note_on_c, 9, 64, 0
6, 106080, Note_on_c, 9, 65, 0
6, 106800, Note_on_c, 9, 62, 100
6, 106800, Note_on_c, 9, 63, 100
6, 106800, Note_on_c, 9, 60, 100
6, 106920, Note_on_c, 9, 60, 0
6, 106920, Note_on_c, 9, 62, 0
6, 106920, Note_on_c, 9, 60, 100
6, 106978, Note_on_c, 9, 60, 0
6, 106980, Note_on_c, 9, 60, 100
6, 107038, Note_on_c, 9, 60, 0
6, 107040, Note_on_c, 9, 63, 0
6, 107040, Note_on_c, 9, 62, 100
6, 107040, Note_on_c, 9, 60, 100
6, 107160, Note_on_c, 9, 60, 0
6, 107160, Note_on_c, 9, 62, 0
6, 107160, Note_on_c, 9, 60, 100
6, 107218, Note_on_c, 9, 60, 0
6, 107220, Note_on_c, 9, 60, 100
6, 107278, Note_on_c, 9, 60, 0
6, 107280, Note_on_c, 9, 64, 100
6, 107280, Note_on_c, 9, 60, 100
6, 107400, Note_on_c, 9, 60, 0
6, 107400, Note_on_c, 9, 64, 0
6, 107400, Note_on_c, 9, 60, 100
6, 107520, Note_on_c, 9, 60, 0
6, 107520, Note_on_c, 9, 63, 100
6, 107520, Note_on_c, 9, 60, 100
6, 107640, Note_on_c, 9, 60, 0
6, 107640, Note_on_c, 9, 60, 100
6, 107760, Note_on_c, 9, 60, 0
6, 107760, Note_on_c, 9, 63, 0
6, 107760, Note_on_c, 9, 62, 100
6, 107760, Note_on_c, 9, 63, 100
6, 107760, Note_on_c, 9, 60, 100
6, 107880, Note_on_c, 9, 60, 0
6, 107880, Note_on_c, 9, 62, 0
6, 107880, Note_on_c, 9, 60, 100
6, 107938, Note_on_c, 9, 60, 0
6, 107940, Note_on_c, 9, 60, 100
6, 107998, Note_on_c, 9, 60, 0
6, 108000, Note_on_c, 9, 63, 0
6, 108000, Note_on_c, 9, 62, 100
6, 108000, Note_on_c, 9, 60, 100
6, 108120, Note_on_c, 9, 60, 0
6, 108120, Note_on_c, 9, 62, 0
6, 108120, Note_on_c, 9, 60, 100
6, 108178, Note_on_c, 9, 60, 0
6, 108180, Note_on_c, 9, 60, 100
6, 108238, Note_on_c, 9, 60, 0
6, 108240, Note_on_c, 9, 64, 100
6, 108240, Note_on_c, 9, 60, 100
6, 108360, Note_on_c, 9, 60, 0
6, 108360, Note_on_c, 9, 64, 0
6, 108360, Note_on_c, 9, 60, 100
6, 108480, Note_on_c, 9, 60, 0
6, 108480, Note_on_c, 9, 63, 100
6, 108480, Note_on_c, 9, 60, 100
6, 108600, Note_on_c, 9, 60, 0
6, 108600, Note_on_c, 9, 60, 100
6, 108720, Note_on_c, 9, 60, 0
6, 108720, Note_on_c, 9, 63, 0
6, 108720, Note_on_c, 9, 62, 100
6, 108720, Note_on_c, 9, 63, 100
6, 108720, Note_on_c, 9, 60, 100
6, 108840, Note_on_c, 9, 60, 0
6, 108840, Note_on_c, 9, 62, 0
6, 108840, Note_on_c, 9, 60, 100
6, 108898, Note_on_c, 9, 60, 0
6, 108900, Note_on_c, 9, 60, 100
6, 108958, Note_on_c, 9, 60, 0
6, 108960, Note_on_c, 9, 63, 0
6, 108960, Note_on_c, 9, 62, 100
6, 108960, Note_on_c, 9, 60, 100
6, 109080, Note_on_c, 9, 60, 0
6, 109080, Note_on_c, 9, 62, 0
6, 109080, Note_on_c, 9, 60, 100
6, 109138, Note_on_c, 9, 60, 0
6, 109140, Note_on_c, 9, 60, 100
6, 109198, Note_on_c, 9, 60, 0
6, 109200, Note_on_c, 9, 64, 100
6, 109200, Note_on_c, 9, 60, 100
6, 109320, Note_on_c, 9, 60, 0
6, 109320, Note_on_c, 9, 64, 0
6, 109320, Note_on_c, 9, 60, 100
6, 109440, Note_on_c, 9, 60, 0
6, 109440, Note_on_c, 9, 63, 100
6, 109440, Note_on_c, 9, 60, 100
6, 109560, Note_on_c, 9, 60, 0
6, 109560, Note_on_c, 9, 64, 100
6, 109560, Note_on_c, 9, 60, 100
6, 109620, Note_on_c, 9, 64, 0
6, 109620, Note_on_c, 9, 61, 100
6, 109680, Note_on_c, 9, 61, 0
6, 109680, Note_on_c, 9, 60, 0
6, 109680, Note_on_c, 9, 63, 0
6, 109680, Note_on_c, 9, 62, 100
6, 109680, Note_on_c, 9, 63, 100
6, 109680, Note_on_c, 9, 60, 100
6, 109800, Note_on_c, 9, 60, 0
6, 109800, Note_on_c, 9, 62, 0
6, 109800, Note_on_c, 9, 60, 100
6, 109858, Note_on_c, 9, 60, 0
6, 109860, Note_on_c, 9, 60, 100
6, 109918, Note_on_c, 9, 60, 0
6, 109920, Note_on_c, 9, 63, 0
6, 109920, Note_on_c, 9, 62, 100
6, 109920, Note_on_c, 9, 60, 100
6, 110040, Note_on_c, 9, 60, 0
6, 110040, Note_on_c, 9, 62, 0
6, 110040, Note_on_c, 9, 60, 100
6, 110098, Note_on_c, 9, 60, 0
6, 110100, Note_on_c, 9, 60, 100
6, 110158, Note_on_c, 9, 60, 0
6, 110160, Note_on_c, 9, 64, 100
6, 110160, Note_on_c, 9, 60, 100
6, 110280, Note_on_c, 9, 60, 0
6, 110280, Note_on_c, 9, 64, 0
6, 110280, Note_on_c, 9, 60, 100
6, 110400, Note_on_c, 9, 60, 0
6, 110400, Note_on_c, 9, 63, 100
6, 110400, Note_on_c, 9, 60, 100
6, 110520, Note_on_c, 9, 60, 0
6, 110520, Note_on_c, 9, 60, 100
6, 110640, Note_on_c, 9, 60, 0
6, 110640, Note_on_c, 9, 63, 0
6, 110640, Note_on_c, 9, 62, 100
6, 110640, Note_on_c, 9, 63, 100
6, 110640, Note_on_c, 9, 60, 100
6, 110760, Note_on_c, 9, 60, 0
6, 110760, Note_on_c, 9, 62, 0
6, 110760, Note_on_c, 9, 60, 100
6, 110818, Note_on_c, 9, 60, 0
6, 110820, Note_on_c, 9, 60, 100
6, 110878, Note_on_c, 9, 60, 0
6, 110880, Note_on_c, 9, 63, 0
6, 110880, Note_on_c, 9, 62, 100
6, 110880, Note_on_c, 9, 60, 100
6, 111000, Note_on_c, 9, 60, 0
6, 111000, Note_on_c, 9, 62, 0
6, 111000, Note_on_c, 9, 60, 100
6, 111058, Note_on_c, 9, 60, 0
6, 111060, Note_on_c, 9, 60, 100
6, 111118, Note_on_c, 9, 60, 0
6, 111120, Note_on_c, 9, 64, 100
6, 111120, Note_on_c, 9, 60, 100
6, 111240, Note_on_c, 9, 60, 0
6, 111240, Note_on_c, 9, 64, 0
6, 111240, Note_on_c, 9, 60, 100
6, 111360, Note_on_c, 9, 60, 0
6, 111360, Note_on_c, 9, 63, 100
6, 111360, Note_on_c, 9, 60, 100
6, 111480, Note_on_c, 9, 60, 0
6, 111480, Note_on_c, 9, 60, 100
6, 111600, Note_on_c, 9, 60, 0
6, 111600, Note_on_c, 9, 63, 0
6, 111600, Note_on_c, 9, 62, 100
6, 111600, Note_on_c, 9, 63, 100
6, 111600, Note_on_c, 9, 60, 100
6, 111720, Note_on_c, 9, 60, 0
6, 111720, Note_on_c, 9, 62, 0
6, 111720, Note_on_c, 9, 60, 100
6, 111778, Note_on_c, 9, 60, 0
6, 111780, Note_on_c, 9, 60, 100
6, 111838, Note_on_c, 9, 60, 0
6, 111840, Note_on_c, 9, 63, 0
6, 111840, Note_on_c, 9, 62, 100
6, 111840, Note_on_c, 9, 60, 100
6, 111960, Note_on_c, 9, 60, 0
6, 111960, Note_on_c, 9, 62, 0
6, 111960, Note_on_c, 9, 60, 100
6, 112018, Note_on_c, 9, 60, 0
6, 112020, Note_on_c, 9, 60, 100
6, 112078, Note_on_c, 9, 60, 0
6, 112080, Note_on_c, 9, 64, 100
6, 112080, Note_on_c, 9, 60, 100
6, 112200, Note_on_c, 9, 60, 0
6, 112200, Note_on_c, 9, 64, 0
6, 112200, Note_on_c, 9, 60, 100
6, 112320, Note_on_c, 9, 60, 0
6, 112320, Note_on_c, 9, 63, 100
6, 112320, Note_on_c, 9, 60, 100
6, 112440, Note_on_c, 9, 60, 0
6, 112440, Note_on_c, 9, 64, 100
6, 112440, Note_on_c, 9, 60, 100
6, 112500, Note_on_c, 9, 64, 0
6, 112500, Note_on_c, 9, 61, 100
6, 112560, Note_on_c, 9, 61, 0
6, 112560, Note_on_c, 9, 60, 0
6, 112560, Note_on_c, 9, 63, 0
6, 112560, Note_on_c, 9, 62, 100
6, 112560, Note_on_c, 9, 63, 100
6, 112560, Note_on_c, 9, 60, 100
6, 112680, Note_on_c, 9, 60, 0
6, 112680, Note_on_c, 9, 62, 0
6, 112680, Note_on_c, 9, 60, 100
6, 112738, Note_on_c, 9, 60, 0
6, 112740, Note_on_c, 9, 60, 100
6, 112798, Note_on_c, 9, 60, 0
6, 112800, Note_on_c, 9, 63, 0
6, 112800, Note_on_c, 9, 62, 100
6, 112800, Note_on_c, 9, 60, 100
6, 112920, Note_on_c, 9, 60, 0
6, 112920, Note_on_c, 9, 62, 0
6, 112920, Note_on_c, 9, 60, 100
6, 112978, Note_on_c, 9, 60, 0
6, 112980, Note_on_c, 9, 60, 100
6, 113038, Note_on_c, 9, 60, 0
6, 113040, Note_on_c, 9, 64, 100
6, 113040, Note_on_c, 9, 60, 100
6, 113160, Note_on_c, 9, 60, 0
6, 113160, Note_on_c, 9, 64, 0
6, 113160, Note_on_c, 9, 60, 100
6, 113280, Note_on_c, 9, 60, 0
6, 113280, Note_on_c, 9, 63, 100
6, 113280, Note_on_c, 9, 60, 100
6, 113400, Note_on_c, 9, 60, 0
6, 113400, Note_on_c, 9, 60, 100
6, 113520, Note_on_c, 9, 60, 0
6, 113520, Note_on_c, 9, 63, 0
6, 113520, Note_on_c, 9, 62, 100
6, 113520, Note_on_c, 9, 63, 100
6, 113520, Note_on_c, 9, 60, 100
6, 113640, Note_on_c, 9, 60, 0
6, 113640, Note_on_c, 9, 62, 0
6, 113640, Note_on_c, 9, 60, 100
6, 113698, Note_on_c, 9, 60, 0
6, 113700, Note_on_c, 9, 60, 100
6, 113758, Note_on_c, 9, 60, 0
6, 113760, Note_on_c, 9, 63, 0
6, 113760, Note_on_c, 9, 62, 100
6, 113760, Note_on_c, 9, 60, 100
6, 113880, Note_on_c, 9, 60, 0
6, 113880, Note_on_c, 9, 62, 0
6, 113880, Note_on_c, 9, 60, 100
6, 113938, Note_on_c, 9, 60, 0
6, 113940, Note_on_c, 9, 60, 100
6, 113998, Note_on_c, 9, 60, 0
6, 114000, Note_on_c, 9, 64, 100
6, 114000, Note_on_c, 9, 60, 100
6, 114120, Note_on_c, 9, 60, 0
6, 114120, Note_on_c, 9, 64, 0
6, 114120, Note_on_c, 9, 60, 100
6, 114240, Note_on_c, 9, 60, 0
6, 114240, Note_on_c, 9, 63, 100
6, 114240, Note_on_c, 9, 60, 100
6, 114360, Note_on_c, 9, 60, 0
6, 114360, Note_on_c, 9, 60, 100
6, 114480, Note_on_c, 9, 60, 0
6, 114480, Note_on_c, 9, 63, 0
6, 114480, Note_on_c, 9, 62, 100
6, 114480, Note_on_c, 9, 63, 100
6, 114480, Note_on_c, 9, 60, 100
6, 114600, Note_on_c, 9, 60, 0
6, 114600, Note_on_c, 9, 62, 0
6, 114600, Note_on_c, 9, 60, 100
6, 114658, Note_on_c, 9, 60, 0
6, 114660, Note_on_c, 9, 60, 100
6, 114718, Note_on_c, 9, 60, 0
6, 114720, Note_on_c, 9, 63, 0
6, 114720, Note_on_c, 9, 62, 100
6, 114720, Note_on_c, 9, 60, 100
6, 114840, Note_on_c, 9, 60, 0
6, 114840, Note_on_c, 9, 62, 0
6, 114840, Note_on_c, 9, 60, 100
6, 114898, Note_on_c, 9, 60, 0
6, 114900, Note_on_c, 9, 60, 100
6, 114958, Note_on_c, 9, 60, 0
6, 114960, Note_on_c, 9, 64, 100
6, 114960, Note_on_c, 9, 60, 100
6, 115080, Note_on_c, 9, 60, 0
6, 115080, Note_on_c, 9, 64, 0
6, 115080, Note_on_c, 9, 60, 100
6, 115200, Note_on_c, 9, 60, 0
6, 115200, Note_on_c, 9, 63, 100
6, 115200, Note_on_c, 9, 60, 100
6, 115320, Note_on_c, 9, 60, 0
6, 115320, Note_on_c, 9, 64, 100
6, 115320, Note_on_c, 9, 60, 100
6, 115380, Note_on_c, 9, 64, 0
6, 115380, Note_on_c, 9, 61, 100
6, 115440, Note_on_c, 9, 61, 0
6, 115440, Note_on_c, 9, 60, 0
6, 115440, Note_on_c, 9, 63, 0
6, 115440, Note_on_c, 9, 62, 100
6, 115440, Note_on_c, 9, 63, 100
6, 115440, Note_on_c, 9, 60, 100
6, 115560, Note_on_c, 9, 60, 0
6, 115560, Note_on_c, 9, 62, 0
6, 115560, Note_on_c, 9, 60, 100
6, 115618, Note_on_c, 9, 60, 0
6, 115620, Note_on_c, 9, 60, 100
6, 115678, Note_on_c, 9, 60, 0
6, 115680, Note_on_c, 9, 63, 0
6, 115680, Note_on_c, 9, 62, 100
6, 115680, Note_on_c, 9, 60, 100
6, 115800, Note_on_c, 9, 60, 0
6, 115800, Note_on_c, 9, 62, 0
6, 115800, Note_on_c, 9, 60, 100
6, 115858, Note_on_c, 9, 60, 0
6, 115860, Note_on_c, 9, 60, 100
6, 115918, Note_on_c, 9, 60, 0
6, 115920, Note_on_c, 9, 64, 100
6, 115920, Note_on_c, 9, 60, 100
6, 116040, Note_on_c, 9, 60, 0
6, 116040, Note_on_c, 9, 64, 0
6, 116040, Note_on_c, 9, 60, 100
6, 116160, Note_on_c, 9, 60, 0
6, 116160, Note_on_c, 9, 63, 100
6, 116160, Note_on_c, 9, 60, 100
6, 116280, Note_on_c, 9, 60, 0
6, 116280, Note_on_c, 9, 60, 100
6, 116400, Note_on_c, 9, 60, 0
6, 116400, Note_on_c, 9, 63, 0
6, 116400, Note_on_c, 9, 62, 100
6, 116400, Note_on_c, 9, 63, 100
6, 116400, Note_on_c, 9, 60, 100
6, 116520, Note_on_c, 9, 60, 0
6, 116520, Note_on_c, 9, 62, 0
6, 116520, Note_on_c, 9, 60, 100
6, 116578, Note_on_c, 9, 60, 0
6, 116580, Note_on_c, 9, 60, 100
6, 116638, Note_on_c, 9, 60, 0
6, 116640, Note_on_c, 9, 63, 0
6, 116640, Note_on_c, 9, 62, 100
6, 116640, Note_on_c, 9, 60, 100
6, 116760, Note_on_c, 9, 60, 0
6, 116760, Note_on_c, 9, 62, 0
6, 116760, Note_on_c, 9, 60, 100
6, 116818, Note_on_c, 9, 60, 0
6, 116820, Note_on_c, 9, 60, 100
6, 116878, Note_on_c, 9, 60, 0
6, 116880, Note_on_c, 9, 64, 100
6, 116880, Note_on_c, 9, 60, 100
6, 117000, Note_on_c, 9, 60, 0
6, 117000, Note_on_c, 9, 64, 0
6, 117000, Note_on_c, 9, 60, 100
6, 117120, Note_on_c, 9, 60, 0
6, 117120, Note_on_c, 9, 63, 100
6, 117120, Note_on_c, 9, 60, 100
6, 117240, Note_on_c, 9, 60, 0
6, 117240, Note_on_c, 9, 60, 100
6, 117360, Note_on_c, 9, 60, 0
6, 117360, Note_on_c, 9, 63, 0
6, 117360, Note_on_c, 9, 62, 100
6, 117360, Note_on_c, 9, 63, 100
6, 117360, Note_on_c, 9, 60, 100
6, 117480, Note_on_c, 9, 60, 0
6, 117480, Note_on_c, 9, 62, 0
6, 117480, Note_on_c, 9, 60, 100
6, 117538, Note_on_c, 9, 60, 0
6, 117540, Note_on_c, 9, 60, 100
6, 117598, Note_on_c, 9, 60, 0
6, 117600, Note_on_c, 9, 63, 0
6, 117600, Note_on_c, 9, 62, 100
6, 117600, Note_on_c, 9, 60, 100
6, 117720, Note_on_c, 9, 60, 0
6, 117720, Note_on_c, 9, 62, 0
6, 117720, Note_on_c, 9, 60, 100
6, 117778, Note_on_c, 9, 60, 0
6, 117780, Note_on_c, 9, 60, 100
6, 117838, Note_on_c, 9, 60, 0
6, 117840, Note_on_c, 9, 64, 100
6, 117840, Note_on_c, 9, 60, 100
6, 117960, Note_on_c, 9, 60, 0
6, 117960, Note_on_c, 9, 64, 0
6, 117960, Note_on_c, 9, 60, 100
6, 118080, Note_on_c, 9, 60, 0
6, 118080, Note_on_c, 9, 63, 100
6, 118080, Note_on_c, 9, 60, 100
6, 118200, Note_on_c, 9, 60, 0
6, 118200, Note_on_c, 9, 64, 100
6, 118200, Note_on_c, 9, 60, 100
6, 118260, Note_on_c, 9, 64, 0
6, 118260, Note_on_c, 9, 61, 100
6, 118320, Note_on_c, 9, 61, 0
6, 118320, Note_on_c, 9, 60, 0
6, 118320, Note_on_c, 9, 63, 0
6, 118320, Note_on_c, 9, 62, 100
6, 118320, Note_on_c, 9, 63, 100
6, 118320, Note_on_c, 9, 60, 100
6, 118440, Note_on_c, 9, 60, 0
6, 118440, Note_on_c, 9, 62, 0
6, 118440, Note_on_c, 9, 60, 100
6, 118498, Note_on_c, 9, 60, 0
6, 118500, Note_on_c, 9, 60, 100
6, 118558, Note_on_c, 9, 60, 0
6, 118560, Note_on_c, 9, 63, 0
6, 118560, Note_on_c, 9, 62, 100
6, 118560, Note_on_c, 9, 60, 100
6, 118680, Note_on_c, 9, 60, 0
6, 118680, Note_on_c, 9, 62, 0
6, 118680, Note_on_c, 9, 60, 100
6, 118738, Note_on_c, 9, 60, 0
6, 118740, Note_on_c, 9, 60, 100
6, 118798, Note_on_c, 9, 60, 0
6, 118800, Note_on_c, 9, 64, 100
6, 118800, Note_on_c, 9, 60, 100
6, 118920, Note_on_c, 9, 60, 0
6, 118920, Note_on_c, 9, 64, 0
6, 118920, Note_on_c, 9, 60, 100
6, 119040, Note_on_c, 9, 60, 0
6, 119040, Note_on_c, 9, 63, 100
6, 119040, Note_on_c, 9, 60, 100
6, 119160, Note_on_c, 9, 60, 0
6, 119160, Note_on_c, 9, 60, 100
6, 119280, Note_on_c, 9, 60, 0
6, 119280, Note_on_c, 9, 63, 0
6, 119280, Note_on_c, 9, 62, 100
6, 119280, Note_on_c, 9, 63, 100
6, 119280, Note_on_c, 9, 60, 100
6, 119400, Note_on_c, 9, 60, 0
6, 119400, Note_on_c, 9, 62, 0
6, 119400, Note_on_c, 9, 60, 100
6, 119458, Note_on_c, 9, 60, 0
6, 119460, Note_on_c, 9, 60, 100
6, 119518, Note_on_c, 9, 60, 0
6, 119520, Note_on_c, 9, 63, 0
6, 119520, Note_on_c, 9, 62, 100
6, 119520, Note_on_c, 9, 60, 100
6, 119640, Note_on_c, 9, 60, 0
6, 119640, Note_on_c, 9, 62, 0
6, 119640, Note_on_c, 9, 60, 100
6, 119698, Note_on_c, 9, 60, 0
6, 119700, Note_on_c, 9, 60, 100
6, 119758, Note_on_c, 9, 60, 0
6, 119760, Note_on_c, 9, 64, 100
6, 119760, Note_on_c, 9, 60, 100
6, 119880, Note_on_c, 9, 60, 0
6, 119880, Note_on_c, 9, 64, 0
6, 119880, Note_on_c, 9, 60, 100
6, 120000, Note_on_c, 9, 60, 0
6, 120000, Note_on_c, 9, 63, 100
6, 120000, Note_on_c, 9, 60, 100
6, 120120, Note_on_c, 9, 60, 0
6, 120120, Note_on_c, 9, 60, 100
6, 120240, Note_on_c, 9, 60, 0
6, 120240, Note_on_c, 9, 63, 0
6, 120240, Note_on_c, 9, 62, 100
6, 120240, Note_on_c, 9, 63, 100
6, 120240, Note_on_c, 9, 60, 100
6, 120360, Note_on_c, 9, 60, 0
6, 120360, Note_on_c, 9, 62, 0
6, 120360, Note_on_c, 9, 60, 100
6, 120418, Note_on_c, 9, 60, 0
6, 120420, Note_on_c, 9, 60, 100
6, 120478, Note_on_c, 9, 60, 0
6, 120480, Note_on_c, 9, 63, 0
6, 120480, Note_on_c, 9, 62, 100
6, 120480, Note_on_c, 9, 60, 100
6, 120600, Note_on_c, 9, 60, 0
6, 120600, Note_on_c, 9, 62, 0
6, 120600, Note_on_c, 9, 60, 100
6, 120658, Note_on_c, 9, 60, 0
6, 120660, Note_on_c, 9, 60, 100
6, 120718, Note_on_c, 9, 60, 0
6, 120720, Note_on_c, 9, 64, 100
6, 120720, Note_on_c, 9, 60, 100
6, 120840, Note_on_c, 9, 60, 0
6, 120840, Note_on_c, 9, 64, 0
6, 120840, Note_on_c, 9, 60, 100
6, 120960, Note_on_c, 9, 60, 0
6, 120960, Note_on_c, 9, 63, 100
6, 120960, Note_on_c, 9, 60, 100
6, 121080, Note_on_c, 9, 60, 0
6, 121080, Note_on_c, 9, 64, 100
6, 121080, Note_on_c, 9, 60, 100
6, 121140, Note_on_c, 9, 64, 0
6, 121140, Note_on_c, 9, 61, 100
6, 121200, Note_on_c, 9, 61, 0
6, 121200, Note_on_c, 9, 60, 0
6, 121200, Note_on_c, 9, 63, 0
6, 121200, Note_on_c, 9, 62, 100
6, 121200, Note_on_c, 9, 63, 100
6, 121200, Note_on_c, 9, 60, 100
6, 121320, Note_on_c, 9, 60, 0
6, 121320, Note_on_c, 9, 62, 0
6, 121320, Note_on_c, 9, 60, 100
6, 121378, Note_on_c, 9, 60, 0
6, 121380, Note_on_c, 9, 60, 100
6, 121438, Note_on_c, 9, 60, 0
6, 121440, Note_on_c, 9, 63, 0
6, 121440, Note_on_c, 9, 62, 100
6, 121440, Note_on_c, 9, 60, 100
6, 121560, Note_on_c, 9, 60, 0
6, 121560, Note_on_c, 9, 62, 0
6, 121560, Note_on_c, 9, 60, 100
6, 121618, Note_on_c, 9, 60, 0
6, 121620, Note_on_c, 9, 60, 100
6, 121678, Note_on_c, 9, 60, 0
6, 121680, Note_on_c, 9, 64, 100
6, 121680, Note_on_c, 9, 60, 100
6, 121800, Note_on_c, 9, 60, 0
6, 121800, Note_on_c, 9, 64, 0
6, 121800, Note_on_c, 9, 60, 100
6, 121920, Note_on_c, 9, 60, 0
6, 121920, Note_on_c, 9, 63, 100
6, 121920, Note_on_c, 9, 60, 100
6, 122040, Note_on_c, 9, 60, 0
6, 122040, Note_on_c, 9, 60, 100
6, 122160, Note_on_c, 9, 60, 0
6, 122160, Note_on_c, 9, 63, 0
6, 122160, Note_on_c, 9, 62, 100
6, 122160, Note_on_c, 9, 63, 100
6, 122160, Note_on_c, 9, 60, 100
6, 122280, Note_on_c, 9, 60, 0
6, 122280, Note_on_c, 9, 62, 0
6, 122280, Note_on_c, 9, 60, 100
6, 122338, Note_on_c, 9, 60, 0
6, 122340, Note_on_c, 9, 60, 100
6, 122398, Note_on_c, 9, 60, 0
6, 122400, Note_on_c, 9, 63, 0
6, 122400, Note_on_c, 9, 62, 100
6, 122400, Note_on_c, 9, 60, 100
6, 122520, Note_on_c, 9, 60, 0
6, 122520, Note_on_c, 9, 62, 0
6, 122520, Note_on_c, 9, 60, 100
6, 122578, Note_on_c, 9, 60, 0
6, 122580, Note_on_c, 9, 60, 100
6, 122638, Note_on_c, 9, 60, 0
6, 122640, Note_on_c, 9, 64, 100
6, 122640, Note_on_c, 9, 60, 100
6, 122760, Note_on_c, 9, 60, 0
6, 122760, Note_on_c, 9, 64, 0
6, 122760, Note_on_c, 9, 60, 100
6, 122880, Note_on_c, 9, 60, 0
6, 122880, Note_on_c, 9, 63, 100
6, 122880, Note_on_c, 9, 60, 100
6, 123000, Note_on_c, 9, 60, 0
6, 123000, Note_on_c, 9, 60, 100
6, 123120, Note_on_c, 9, 60, 0
6, 123120, Note_on_c, 9, 63, 0
6, 123120, Note_on_c, 9, 62, 100
6, 123120, Note_on_c, 9, 63, 100
6, 123120, Note_on_c, 9, 60, 100
6, 123240, Note_on_c, 9, 60, 0
6, 123240, Note_on_c, 9, 62, 0
6, 123240, Note_on_c, 9, 60, 100
6, 123298, Note_on_c, 9, 60, 0
6, 123300, Note_on_c, 9, 60, 100
6, 123358, Note_on_c, 9, 60, 0
6, 123360, Note_on_c, 9, 63, 0
6, 123360, Note_on_c, 9, 62, 100
6, 123360, Note_on_c, 9, 60, 100
6, 123480, Note_on_c, 9, 60, 0
6, 123480, Note_on_c, 9, 62, 0
6, 123480, Note_on_c, 9, 60, 100
6, 123538, Note_on_c, 9, 60, 0
6, 123540, Note_on_c, 9, 60, 100
6, 123598, Note_on_c, 9, 60, 0
6, 123600, Note_on_c, 9, 64, 100
6, 123600, Note_on_c, 9, 60, 100
6, 123720, Note_on_c, 9, 60, 0
6, 123720, Note_on_c, 9, 64, 0
6, 123720, Note_on_c, 9, 60, 100
6, 123840, Note_on_c, 9, 60, 0
6, 123840, Note_on_c, 9, 63, 100
6, 123840, Note_on_c, 9, 60, 100
6, 123960, Note_on_c, 9, 60, 0
6, 123960, Note_on_c, 9, 64, 100
6, 123960, Note_on_c, 9, 60, 100
6, 124020, Note_on_c, 9, 64, 0
6, 124020, Note_on_c, 9, 61, 100
6, 124080, Note_on_c, 9, 61, 0
6, 124080, Note_on_c, 9, 60, 0
6, 124080, Note_on_c, 9, 63, 0
6, 124080, Note_on_c, 9, 62, 100
6, 124080, Note_on_c, 9, 63, 100
6, 124080, Note_on_c, 9, 60, 100
6, 124200, Note_on_c, 9, 60, 0
6, 124200, Note_on_c, 9, 62, 0
6, 124200, Note_on_c, 9, 60, 100
6, 124258, Note_on_c, 9, 60, 0
6, 124260, Note_on_c, 9, 60, 100
6, 124318, Note_on_c, 9, 60, 0
6, 124320, Note_on_c, 9, 63, 0
6, 124320, Note_on_c, 9, 62, 100
6, 124320, Note_on_c, 9, 60, 100
6, 124440, Note_on_c, 9, 60, 0
6, 124440, Note_on_c, 9, 62, 0
6, 124440, Note_on_c, 9, 60, 100
6, 124498, Note_on_c, 9, 60, 0
6, 124500, Note_on_c, 9, 60, 100
6, 124558, Note_on_c, 9, 60, 0
6, 124560, Note_on_c, 9, 64, 100
6, 124560, Note_on_c, 9, 60, 100
6, 124680, Note_on_c, 9, 60, 0
6, 124680, Note_on_c, 9, 64, 0
6, 124680, Note_on_c, 9, 60, 100
6, 124800, Note_on_c, 9, 60, 0
6, 124800, Note_on_c, 9, 63, 100
6, 124800, Note_on_c, 9, 60, 100
6, 124920, Note_on_c, 9, 60, 0
6, 124920, Note_on_c, 9, 60, 100
6, 125040, Note_on_c, 9, 60, 0
6, 125040, Note_on_c, 9, 63, 0
6, 125040, Note_on_c, 9, 62, 100
6, 125040, Note_on_c, 9, 63, 100
6, 125040, Note_on_c, 9, 60, 100
6, 125160, Note_on_c, 9, 60, 0
6, 125160, Note_on_c, 9, 62, 0
6, 125160, Note_on_c, 9, 60, 100
6, 125218, Note_on_c, 9, 60, 0
6, 125220, Note_on_c, 9, 60, 100
6, 125278, Note_on_c, 9, 60, 0
6, 125280, Note_on_c, 9, 63, 0
6, 125280, Note_on_c, 9, 62, 100
6, 125280, Note_on_c, 9, 60, 100
6, 125400, Note_on_c, 9, 60, 0
6, 125400, Note_on_c, 9, 62, 0
6, 125400, Note_on_c, 9, 60, 100
6, 125458, Note_on_c, 9, 60, 0
6, 125460, Note_on_c, 9, 60, 100
6, 125518, Note_on_c, 9, 60, 0
6, 125520, Note_on_c, 9, 64, 100
6, 125520, Note_on_c, 9, 60, 100
6, 125640, Note_on_c, 9, 60, 0
6, 125640, Note_on_c, 9, 64, 0
6, 125640, Note_on_c, 9, 60, 100
6, 125760, Note_on_c, 9, 60, 0
6, 125760, Note_on_c, 9, 63, 100
6, 125760, Note_on_c, 9, 60, 100
6, 125880, Note_on_c, 9, 60, 0
6, 125880, Note_on_c, 9, 60, 100
6, 126000, Note_on_c, 9, 60, 0
6, 126000, Note_on_c, 9, 63, 0
6, 126000, Note_on_c, 9, 62, 100
6, 126000, Note_on_c, 9, 63, 100
6, 126000, Note_on_c, 9, 60, 100
6, 126120, Note_on_c, 9, 60, 0
6, 126120, Note_on_c, 9, 62, 0
6, 126120, Note_on_c, 9, 60, 100
6, 126178, Note_on_c, 9, 60, 0
6, 126180, Note_on_c, 9, 60, 100
6, 126238, Note_on_c, 9, 60, 0
6, 126240, Note_on_c, 9, 63, 0
6, 126240, Note_on_c, 9, 62, 100
6, 126240, Note_on_c, 9, 60, 100
6, 126360, Note_on_c, 9, 60, 0
6, 126360, Note_on_c, 9, 62, 0
6, 126360, Note_on_c, 9, 60, 100
6, 126418, Note_on_c, 9, 60, 0
6, 126420, Note_on_c, 9, 60, 100
6, 126478, Note_on_c, 9, 60, 0
6, 126480, Note_on_c, 9, 64, 100
6, 126480, Note_on_c, 9, 60, 100
6, 126600, Note_on_c, 9, 60, 0
6, 126600, Note_on_c, 9, 64, 0
6, 126600, Note_on_c, 9, 60, 100
6, 126720, Note_on_c, 9, 60, 0
6, 126720, Note_on_c, 9, 63, 100
6, 126720, Note_on_c, 9, 60, 100
6, 126840, Note_on_c, 9, 60, 0
6, 126840, Note_on_c, 9, 64, 100
6, 126840, Note_on_c, 9, 60, 100
6, 126900, Note_on_c, 9, 64, 0
6, 126900, Note_on_c, 9, 61, 100
6, 126960, Note_on_c, 9, 61, 0
6, 126960, Note_on_c, 9, 60, 0
6, 126960, Note_on_c, 9, 63, 0
6, 126960, Note_on_c, 9, 62, 100
6, 126960, Note_on_c, 9, 63, 100
6, 126960, Note_on_c, 9, 60, 100
6, 127080, Note_on_c, 9, 60, 0
6, 127080, Note_on_c, 9, 62, 0
6, 127080, Note_on_c, 9, 60, 100
6, 127138, Note_on_c, 9, 60, 0
6, 127140, Note_on_c, 9, 60, 100
6, 127198, Note_on_c, 9, 60, 0
6, 127200, Note_on_c, 9, 63, 0
6, 127200, Note_on_c, 9, 62, 100
6, 127200, Note_on_c, 9, 60, 100
6, 127320, Note_on_c, 9, 60, 0
6, 127320, Note_on_c, 9, 62, 0
6, 127320, Note_on_c, 9, 60, 100
6, 127378, Note_on_c, 9, 60, 0
6, 127380, Note_on_c, 9, 60, 100
6, 127438, Note_on_c, 9, 60, 0
6, 127440, Note_on_c, 9, 64, 100
6, 127440, Note_on_c, 9, 60, 100
6, 127560, Note_on_c, 9, 60, 0
6, 127560, Note_on_c, 9, 64, 0
6, 127560, Note_on_c, 9, 60, 100
6, 127680, Note_on_c, 9, 60, 0
6, 127680, Note_on_c, 9, 63, 100
6, 127680, Note_on_c, 9, 60, 100
6, 127800, Note_on_c, 9, 60, 0
6, 127800, Note_on_c, 9, 60, 100
6, 127920, Note_on_c, 9, 60, 0
6, 127920, Note_on_c, 9, 63, 0
6, 127920, Note_on_c, 9, 62, 100
6, 127920, Note_on_c, 9, 63, 100
6, 127920, Note_on_c, 9, 60, 100
6, 128040, Note_on_c, 9, 60, 0
6, 128040, Note_on_c, 9, 62, 0
6, 128040, Note_on_c, 9, 60, 100
6, 128098, Note_on_c, 9, 60, 0
6, 128100, Note_on_c, 9, 60, 100
6, 128158, Note_on_c, 9, 60, 0
6, 128160, Note_on_c, 9, 63, 0
6, 128160, Note_on_c, 9, 62, 100
6, 128160, Note_on_c, 9, 60, 100
6, 128280, Note_on_c, 9, 60, 0
6, 128280, Note_on_c, 9, 62, 0
6, 128280, Note_on_c, 9, 60, 100
6, 128338, Note_on_c, 9, 60, 0
6, 128340, Note_on_c, 9, 60, 100
6, 128398, Note_on_c, 9, 60, 0
6, 128400, Note_on_c, 9, 64, 100
6, 128400, Note_on_c, 9, 60, 100
6, 128520, Note_on_c, 9, 60, 0
6, 128520, Note_on_c, 9, 64, 0
6, 128520, Note_on_c, 9, 60, 100
6, 128640, Note_on_c, 9, 60, 0
6, 128640, Note_on_c, 9, 63, 100
6, 128640, Note_on_c, 9, 60, 100
6, 128760, Note_on_c, 9, 60, 0
6, 128760, Note_on_c, 9, 60, 100
6, 128880, Note_on_c, 9, 60, 0
6, 128880, Note_on_c, 9, 63, 0
6, 128880, Note_on_c, 9, 62, 100
6, 128880, Note_on_c, 9, 63, 100
6, 128880, Note_on_c, 9, 60, 100
6, 129000, Note_on_c, 9, 60, 0
6, 129000, Note_on_c, 9, 62, 0
6, 129000, Note_on_c, 9, 60, 100
6, 129058, Note_on_c, 9, 60, 0
6, 129060, Note_on_c, 9, 60, 100
6, 129118, Note_on_c, 9, 60, 0
6, 129120, Note_on_c, 9, 63, 0
6, 129120, Note_on_c, 9, 62, 100
6, 129120, Note_on_c, 9, 60, 100
6, 129240, Note_on_c, 9, 60, 0
6, 129240, Note_on_c, 9, 62, 0
6, 129240, Note_on_c, 9, 60, 100
6, 129298, Note_on_c, 9, 60, 0
6, 129300, Note_on_c, 9, 60, 100
6, 129358, Note_on_c, 9, 60, 0
6, 129360, Note_on_c, 9, 64, 100
6, 129360, Note_on_c, 9, 60, 100
6, 129480, Note_on_c, 9, 60, 0
6, 129480, Note_on_c, 9, 64, 0
6, 129480, Note_on_c, 9, 60, 100
6, 129600, Note_on_c, 9, 60, 0
6, 129600, Note_on_c, 9, 63, 100
6, 129600, Note_on_c, 9, 60, 100
6, 129720, Note_on_c, 9, 60, 0
6, 129720, Note_on_c, 9, 64, 100
6, 129720, Note_on_c, 9, 60, 100
6, 129780, Note_on_c, 9, 64, 0
6, 129780, Note_on_c, 9, 61, 100
6, 129840, Note_on_c, 9, 61, 0
6, 129840, Note_on_c, 9, 60, 0
6, 129840, Note_on_c, 9, 63, 0
6, 129840, Note_on_c, 9, 62, 100
6, 129840, Note_on_c, 9, 63, 100
6, 129840, Note_on_c, 9, 60, 100
6, 129960, Note_on_c, 9, 60, 0
6, 129960, Note_on_c, 9, 62, 0
6, 129960, Note_on_c, 9, 60, 100
6, 130018, Note_on_c, 9, 60, 0
6, 130020, Note_on_c, 9, 60, 100
6, 130078, Note_on_c, 9, 60, 0
6, 130080, Note_on_c, 9, 63, 0
6, 130080, Note_on_c, 9, 62, 100
6, 130080, Note_on_c, 9, 60, 100
6, 130200, Note_on_c, 9, 60, 0
6, 130200, Note_on_c, 9, 62, 0
6, 130200, Note_on_c, 9, 60, 100
6, 130258, Note_on_c, 9, 60, 0
6, 130260, Note_on_c, 9, 60, 100
6, 130318, Note_on_c, 9, 60, 0
6, 130320, Note_on_c, 9, 64, 100
6, 130320, Note_on_c, 9, 60, 100
6, 130440, Note_on_c, 9, 60, 0
6, 130440, Note_on_c, 9, 64, 0
6, 130440, Note_on_c, 9, 60, 100
6, 130560, Note_on_c, 9, 60, 0
6, 130560, Note_on_c, 9, 63, 100
6, 130560, Note_on_c, 9, 60, 100
6, 130680, Note_on_c, 9, 60, 0
6, 130680, Note_on_c, 9, 64, 100
6, 130680, Note_on_c, 9, 60, 100
6, 130740, Note_on_c, 9, 64, 0
6, 130740, Note_on_c, 9, 61, 100
6, 130800, Note_on_c, 9, 61, 0
6, 130800, Note_on_c, 9, 60, 0
6, 130800, Note_on_c, 9, 63, 0
6, 130800, Note_on_c, 9, 62, 100
6, 130800, Note_on_c, 9, 63, 100
6, 130800, Note_on_c, 9, 60, 100
6, 130920, Note_on_c, 9, 60, 0
6, 130920, Note_on_c, 9, 62, 0
6, 130920, Note_on_c, 9, 60, 100
6, 130978, Note_on_c, 9, 60, 0
6, 130980, Note_on_c, 9, 60, 100
6, 131038, Note_on_c, 9, 60, 0
6, 131040, Note_on_c, 9, 63, 0
6, 131040, Note_on_c, 9, 62, 100
6, 131040, Note_on_c, 9, 60, 100
6, 131160, Note_on_c, 9, 60, 0
6, 131160, Note_on_c, 9, 62, 0
6, 131160, Note_on_c, 9, 60, 100
6, 131218, Note_on_c, 9, 60, 0
6, 131220, Note_on_c, 9, 60, 100
6, 131278, Note_on_c, 9, 60, 0
6, 131280, Note_on_c, 9, 64, 100
6, 131280, Note_on_c, 9, 60, 100
6, 131400, Note_on_c, 9, 60, 0
6, 131400, Note_on_c, 9, 64, 0
6, 131400, Note_on_c, 9, 60, 100
6, 131520, Note_on_c, 9, 60, 0
6, 131520, Note_on_c, 9, 63, 100
6, 131520, Note_on_c, 9, 60, 100
6, 131640, Note_on_c, 9, 60, 0
6, 131640, Note_on_c, 9, 60, 100
6, 131760, Note_on_c, 9, 60, 0
6, 131760, Note_on_c, 9, 63, 0
6, 131760, Note_on_c, 9, 62, 100
6, 131760, Note_on_c, 9, 63, 100
6, 131760, Note_on_c, 9, 60, 100
6, 131880, Note_on_c, 9, 60, 0
6, 131880, Note_on_c, 9, 62, 0
6, 131880, Note_on_c, 9, 60, 100
6, 131938, Note_on_c, 9, 60, 0
6, 131940, Note_on_c, 9, 60, 100
6, 131998, Note_on_c, 9, 60, 0
6, 132000, Note_on_c, 9, 63, 0
6, 132000, Note_on_c, 9, 62, 100
6, 132000, Note_on_c, 9, 60, 100
6, 132120, Note_on_c, 9, 60, 0
6, 132120, Note_on_c, 9, 62, 0
6, 132120, Note_on_c, 9, 60, 100
6, 132178, Note_on_c, 9, 60, 0
6, 132180, Note_on_c, 9, 60, 100
6, 132238, Note_on_c, 9, 60, 0
6, 132240, Note_on_c, 9, 64, 100
6, 132240, Note_on_c, 9, 60, 100
6, 132360, Note_on_c, 9, 60, 0
6, 132360, Note_on_c, 9, 64, 0
6, 132360, Note_on_c, 9, 60, 100
6, 132480, Note_on_c, 9, 60, 0
6, 132480, Note_on_c, 9, 63, 100
6, 132480, Note_on_c, 9, 60, 100
6, 132600, Note_on_c, 9, 60, 0
6, 132600, Note_on_c, 9, 60, 100
6, 132720, Note_on_c, 9, 60, 0
6, 132720, Note_on_c, 9, 63, 0
6, 132720, Note_on_c, 9, 62, 100
6, 132720, Note_on_c, 9, 63, 100
6, 132720, Note_on_c, 9, 60, 100
6, 132840, Note_on_c, 9, 60, 0
6, 132840, Note_on_c, 9, 62, 0
6, 132840, Note_on_c, 9, 60, 100
6, 132898, Note_on_c, 9, 60, 0
6, 132900, Note_on_c, 9, 60, 100
6, 132958, Note_on_c, 9, 60, 0
6, 132960, Note_on_c, 9, 63, 0
6, 132960, Note_on_c, 9, 62, 100
6, 132960, Note_on_c, 9, 60, 100
6, 133080, Note_on_c, 9, 60, 0
6, 133080, Note_on_c, 9, 62, 0
6, 133080, Note_on_c, 9, 60, 100
6, 133138, Note_on_c, 9, 60, 0
6, 133140, Note_on_c, 9, 60, 100
6, 133198, Note_on_c, 9, 60, 0
6, 133200, Note_on_c, 9, 64, 100
6, 133200, Note_on_c, 9, 60, 100
6, 133320, Note_on_c, 9, 60, 0
6, 133320, Note_on_c, 9, 64, 0
6, 133320, Note_on_c, 9, 60, 100
6, 133440, Note_on_c, 9, 60, 0
6, 133440, Note_on_c, 9, 63, 100
6, 133440, Note_on_c, 9, 60, 100
6, 133560, Note_on_c, 9, 60, 0
6, 133560, Note_on_c, 9, 60, 100
6, 133680, Note_on_c, 9, 60, 0
6, 133680, Note_on_c, 9, 63, 0
6, 133680, Note_on_c, 9, 60, 100
6, 133800, Note_on_c, 9, 60, 0
6, 133800, Note_on_c, 9, 60, 100
6, 133920, Note_on_c, 9, 60, 0
6, 133920, Note_on_c, 9, 63, 100
6, 133920, Note_on_c, 9, 60, 100
6, 134034, Note_on_c, 9, 60, 100
6, 134040, Note_on_c, 9, 60, 0
6, 134040, Note_on_c, 9, 63, 0
6, 134154, Note_on_c, 9, 60, 0
6, 134160, Note_on_c, 9, 63, 100
6, 134160, Note_on_c, 9, 60, 100
6, 134280, Note_on_c, 9, 60, 0
6, 134280, Note_on_c, 9, 63, 0
6, 134280, Note_on_c, 9, 60, 100
6, 134400, Note_on_c, 9, 60, 0
6, 134400, Note_on_c, 9, 63, 100
6, 134400, Note_on_c, 9, 60, 100
6, 134520, Note_on_c, 9, 60, 0
6, 134520, Note_on_c, 9, 63, 0
6, 134520, Note_on_c, 9, 60, 100
6, 134640, Note_on_c, 9, 60, 0
6, 134640, Note_on_c, 9, 63, 100
6, 134640, Note_on_c, 9, 60, 100
6, 134760, Note_on_c, 9, 60, 0
6, 134760, Note_on_c, 9, 63, 0
6, 134760, Note_on_c, 9, 60, 100
6, 134820, Note_on_c, 9, 60, 0
6, 134820, Note_on_c, 9, 60, 100
6, 134880, Note_on_c, 9, 60, 0
6, 134880, Note_on_c, 9, 64, 100
6, 134880, Note_on_c, 9, 60, 100
6, 135000, Note_on_c, 9, 60, 0
6, 135000, Note_on_c, 9, 64, 0
6, 135000, Note_on_c, 9, 63, 100
6, 135000, Note_on_c, 9, 60, 100
6, 135120, Note_on_c, 9, 60, 0
6, 135120, Note_on_c, 9, 63, 0
6, 135120, Note_on_c, 9, 64, 100
6, 135120, Note_on_c, 9, 60, 100
6, 135240, Note_on_c, 9, 60, 0
6, 135240, Note_on_c, 9, 64, 0
6, 135240, Note_on_c, 9, 63, 100
6, 135240, Note_on_c, 9, 60, 100
6, 135360, Note_on_c, 9, 60, 0
6, 135360, Note_on_c, 9, 63, 0
6, 135360, Note_on_c, 9, 64, 100
6, 135360, Note_on_c, 9, 60, 100
6, 135420, Note_on_c, 9, 60, 0
6, 135420, Note_on_c, 9, 60, 100
6, 135480, Note_on_c, 9, 60, 0
6, 135480, Note_on_c, 9, 64, 0
6, 135480, Note_on_c, 9, 64, 100
6, 135480, Note_on_c, 9, 60, 100
6, 135600, Note_on_c, 9, 60, 0
6, 135600, Note_on_c, 9, 64, 0
6, 135600, Note_on_c, 9, 63, 100
6, 135600, Note_on_c, 9, 60, 100
6, 135720, Note_on_c, 9, 60, 0
6, 135720, Note_on_c, 9, 63, 0
6, 135720, Note_on_c, 9, 60, 100
6, 135780, Note_on_c, 9, 60, 0
6, 135780, Note_on_c, 9, 60, 100
6, 135840, Note_on_c, 9, 60, 0
6, 135840, Note_on_c, 9, 62, 100
6, 135840, Note_on_c, 9, 63, 100
6, 135840, Note_on_c, 9, 60, 100
6, 135960, Note_on_c, 9, 60, 0
6, 135960, Note_on_c, 9, 62, 0
6, 135960, Note_on_c, 9, 60, 100
6, 136018, Note_on_c, 9, 60, 0
6, 136020, Note_on_c, 9, 60, 100
6, 136078, Note_on_c, 9, 60, 0
6, 136080, Note_on_c, 9, 63, 0
6, 136080, Note_on_c, 9, 62, 100
6, 136080, Note_on_c, 9, 60, 100
6, 136200, Note_on_c, 9, 60, 0
6, 136200, Note_on_c, 9, 62, 0
6, 136200, Note_on_c, 9, 60, 100
6, 136258, Note_on_c, 9, 60, 0
6, 136260, Note_on_c, 9, 60, 100
6, 136318, Note_on_c, 9, 60, 0
6, 136320, Note_on_c, 9, 64, 100
6, 136320, Note_on_c, 9, 60, 100
6, 136440, Note_on_c, 9, 60, 0
6, 136440, Note_on_c, 9, 64, 0
6, 136440, Note_on_c, 9, 60, 100
6, 136560, Note_on_c, 9, 60, 0
6, 136560, Note_on_c, 9, 63, 100
6, 136560, Note_on_c, 9, 60, 100
6, 136680, Note_on_c, 9, 60, 0
6, 136680, Note_on_c, 9, 64, 100
6, 136680, Note_on_c, 9, 60, 100
6, 136740, Note_on_c, 9, 64, 0
6, 136740, Note_on_c, 9, 61, 100
6, 136800, Note_on_c, 9, 61, 0
6, 136800, Note_on_c, 9, 60, 0
6, 136800, Note_on_c, 9, 63, 0
6, 136800, Note_on_c, 9, 62, 100
6, 136800, Note_on_c, 9, 63, 100
6, 136800, Note_on_c, 9, 60, 100
6, 136920, Note_on_c, 9, 60, 0
6, 136920, Note_on_c, 9, 62, 0
6, 136920, Note_on_c, 9, 60, 100
6, 136978, Note_on_c, 9, 60, 0
6, 136980, Note_on_c, 9, 60, 100
6, 137038, Note_on_c, 9, 60, 0
6, 137040, Note_on_c, 9, 63, 0
6, 137040, Note_on_c, 9, 62, 100
6, 137040, Note_on_c, 9, 60, 100
6, 137160, Note_on_c, 9, 60, 0
6, 137160, Note_on_c, 9, 62, 0
6, 137160, Note_on_c, 9, 60, 100
6, 137218, Note_on_c, 9, 60, 0
6, 137220, Note_on_c, 9, 60, 100
6, 137278, Note_on_c, 9, 60, 0
6, 137280, Note_on_c, 9, 64, 100
6, 137280, Note_on_c, 9, 60, 100
6, 137400, Note_on_c, 9, 60, 0
6, 137400, Note_on_c, 9, 64, 0
6, 137400, Note_on_c, 9, 60, 100
6, 137520, Note_on_c, 9, 60, 0
6, 137520, Note_on_c, 9, 63, 100
6, 137520, Note_on_c, 9, 60, 100
6, 137640, Note_on_c, 9, 60, 0
6, 137640, Note_on_c, 9, 60, 100
6, 137760, Note_on_c, 9, 60, 0
6, 137760, Note_on_c, 9, 63, 0
6, 137760, Note_on_c, 9, 62, 100
6, 137760, Note_on_c, 9, 63, 100
6, 137760, Note_on_c, 9, 60, 100
6, 137880, Note_on_c, 9, 60, 0
6, 137880, Note_on_c, 9, 62, 0
6, 137880, Note_on_c, 9, 60, 100
6, 137938, Note_on_c, 9, 60, 0
6, 137940, Note_on_c, 9, 60, 100
6, 137998, Note_on_c, 9, 60, 0
6, 138000, Note_on_c, 9, 63, 0
6, 138000, Note_on_c, 9, 62, 100
6, 138000, Note_on_c, 9, 60, 100
6, 138120, Note_on_c, 9, 60, 0
6, 138120, Note_on_c, 9, 62, 0
6, 138120, Note_on_c, 9, 60, 100
6, 138178, Note_on_c, 9, 60, 0
6, 138180, Note_on_c, 9, 60, 100
6, 138238, Note_on_c, 9, 60, 0
6, 138240, Note_on_c, 9, 64, 100
6, 138240, Note_on_c, 9, 60, 100
6, 138360, Note_on_c, 9, 60, 0
6, 138360, Note_on_c, 9, 64, 0
6, 138360, Note_on_c, 9, 60, 100
6, 138480, Note_on_c, 9, 60, 0
6, 138480, Note_on_c, 9, 63, 100
6, 138480, Note_on_c, 9, 60, 100
6, 138600, Note_on_c, 9, 60, 0
6, 138600, Note_on_c, 9, 60, 100
6, 138720, Note_on_c, 9, 60, 0
6, 138720, Note_on_c, 9, 63, 0
6, 138720, Note_on_c, 9, 62, 100
6, 138720, Note_on_c, 9, 63, 100
6, 138720, Note_on_c, 9, 60, 100
6, 138840, Note_on_c, 9, 60, 0
6, 138840, Note_on_c, 9, 62, 0
6, 138840, Note_on_c, 9, 60, 100
6, 138898, Note_on_c, 9, 60, 0
6, 138900, Note_on_c, 9, 60, 100
6, 138958, Note_on_c, 9, 60, 0
6, 138960, Note_on_c, 9, 63, 0
6, 138960, Note_on_c, 9, 62, 100
6, 138960, Note_on_c, 9, 60, 100
6, 139080, Note_on_c, 9, 60, 0
6, 139080, Note_on_c, 9, 62, 0
6, 139080, Note_on_c, 9, 60, 100
6, 139138, Note_on_c, 9, 60, 0
6, 139140, Note_on_c, 9, 60, 100
6, 139198, Note_on_c, 9, 60, 0
6, 139200, Note_on_c, 9, 64, 100
6, 139200, Note_on_c, 9, 60, 100
6, 139320, Note_on_c, 9, 60, 0
6, 139320, Note_on_c, 9, 64, 0
6, 139320, Note_on_c, 9, 60, 100
6, 139440, Note_on_c, 9, 60, 0
6, 139440, Note_on_c, 9, 63, 100
6, 139440, Note_on_c, 9, 60, 100
6, 139560, Note_on_c, 9, 60, 0
6, 139560, Note_on_c, 9, 60, 100
6, 139680, Note_on_c, 9, 60, 0
6, 139680, Note_on_c, 9, 63, 0
6, 139680, Note_on_c, 9, 60, 100
6, 139800, Note_on_c, 9, 60, 0
6, 139800, Note_on_c, 9, 60, 100
6, 139920, Note_on_c, 9, 60, 0
6, 139920, Note_on_c, 9, 64, 100
6, 139920, Note_on_c, 9, 60, 100
6, 139984, Note_on_c, 9, 63, 100
6, 139984, Note_on_c, 9, 60, 100
6, 140034, Note_on_c, 9, 60, 100
6, 140040, Note_on_c, 9, 60, 0
6, 140040, Note_on_c, 9, 64, 0
6, 140044, Note_on_c, 9, 60, 0
6, 140100, Note_on_c, 9, 60, 100
6, 140104, Note_on_c, 9, 63, 0
6, 140154, Note_on_c, 9, 60, 0
6, 140160, Note_on_c, 9, 60, 0
6, 140160, Note_on_c, 9, 63, 100
6, 140160, Note_on_c, 9, 60, 100
6, 140220, Note_on_c, 9, 60, 100
6, 140280, Note_on_c, 9, 60, 0
6, 140280, Note_on_c, 9, 60, 0
6, 140280, Note_on_c, 9, 63, 0
6, 140280, Note_on_c, 9, 60, 100
6, 140344, Note_on_c, 9, 60, 100
6, 140396, Note_on_c, 9, 64, 100
6, 140400, Note_on_c, 9, 60, 0
6, 140400, Note_on_c, 9, 60, 100
6, 140404, Note_on_c, 9, 60, 0
6, 140446, Note_on_c, 9, 60, 100
6, 140456, Note_on_c, 9, 63, 100
6, 140506, Note_on_c, 9, 60, 0
6, 140516, Note_on_c, 9, 63, 0
6, 140516, Note_on_c, 9, 64, 0
6, 140520, Note_on_c, 9, 60, 0
6, 140520, Note_on_c, 9, 60, 100
6, 140576, Note_on_c, 9, 60, 100
6, 140636, Note_on_c, 9, 60, 0
6, 140640, Note_on_c, 9, 60, 0
6, 140640, Note_on_c, 9, 63, 100
6, 140640, Note_on_c, 9, 60, 100
6, 140760, Note_on_c, 9, 60, 0
6, 140760, Note_on_c, 9, 63, 0
6, 140760, End_track
7, 0, Start_track
7, 0, MIDI_port, 0
7, 0, Title_t, "Melody accompanyment"
7, 0, Program_c, 4, 64
7, 0, Control_c, 4, 7, 100
7, 0, Control_c, 4, 10, 60
7, 0, Control_c, 4, 91, 100
7, 0, Control_c, 4, 93, 0
7, 0, Control_c, 4, 123, 0
7, 11520, Note_on_c, 4, 64, 100
7, 11760, Note_on_c, 4, 64, 0
7, 11760, Note_on_c, 4, 65, 100
7, 12000, Note_on_c, 4, 65, 0
7, 12000, Note_on_c, 4, 67, 100
7, 12480, Note_on_c, 4, 67, 0
7, 12480, Note_on_c, 4, 70, 100
7, 13680, Note_on_c, 4, 70, 0
7, 13680, Note_on_c, 4, 70, 100
7, 13920, Note_on_c, 4, 70, 0
7, 13920, Note_on_c, 4, 69, 100
7, 14400, Note_on_c, 4, 69, 0
7, 14400, Note_on_c, 4, 64, 100
7, 14880, Note_on_c, 4, 64, 0
7, 14880, Note_on_c, 4, 67, 100
7, 15360, Note_on_c, 4, 67, 0
7, 15360, Note_on_c, 4, 62, 100
7, 15840, Note_on_c, 4, 62, 0
7, 15840, Note_on_c, 4, 67, 100
7, 16320, Note_on_c, 4, 67, 0
7, 16320, Note_on_c, 4, 65, 100
7, 16800, Note_on_c, 4, 65, 0
7, 16800, Note_on_c, 4, 64, 100
7, 17280, Note_on_c, 4, 64, 0
7, 17280, Note_on_c, 4, 64, 100
7, 17520, Note_on_c, 4, 64, 0
7, 17520, Note_on_c, 4, 65, 100
7, 17760, Note_on_c, 4, 65, 0
7, 17760, Note_on_c, 4, 67, 100
7, 18240, Note_on_c, 4, 67, 0
7, 18240, Note_on_c, 4, 70, 100
7, 19440, Note_on_c, 4, 70, 0
7, 19440, Note_on_c, 4, 70, 100
7, 19680, Note_on_c, 4, 70, 0
7, 19680, Note_on_c, 4, 69, 100
7, 20160, Note_on_c, 4, 69, 0
7, 20160, Note_on_c, 4, 64, 100
7, 20640, Note_on_c, 4, 64, 0
7, 20640, Note_on_c, 4, 67, 100
7, 21120, Note_on_c, 4, 67, 0
7, 21120, Note_on_c, 4, 62, 100
7, 21600, Note_on_c, 4, 62, 0
7, 21600, Note_on_c, 4, 67, 100
7, 22080, Note_on_c, 4, 67, 0
7, 22080, Note_on_c, 4, 65, 100
7, 22560, Note_on_c, 4, 65, 0
7, 22560, Note_on_c, 4, 64, 100
7, 23040, Note_on_c, 4, 64, 0
7, 23040, Note_on_c, 4, 64, 100
7, 23280, Note_on_c, 4, 64, 0
7, 23280, Note_on_c, 4, 65, 100
7, 23520, Note_on_c, 4, 65, 0
7, 23520, Note_on_c, 4, 67, 100
7, 24000, Note_on_c, 4, 67, 0
7, 24000, Note_on_c, 4, 64, 100
7, 24960, Note_on_c, 4, 64, 0
7, 24960, Note_on_c, 4, 64, 100
7, 25200, Note_on_c, 4, 64, 0
7, 25200, Note_on_c, 4, 65, 100
7, 25440, Note_on_c, 4, 65, 0
7, 25440, Note_on_c, 4, 69, 100
7, 25680, Note_on_c, 4, 69, 0
7, 25680, Note_on_c, 4, 67, 100
7, 25920, Note_on_c, 4, 67, 0
7, 25920, Note_on_c, 4, 69, 100
7, 26880, Note_on_c, 4, 69, 0
7, 26880, Note_on_c, 4, 64, 100
7, 27120, Note_on_c, 4, 64, 0
7, 27120, Note_on_c, 4, 65, 100
7, 27360, Note_on_c, 4, 65, 0
7, 27360, Note_on_c, 4, 67, 100
7, 27600, Note_on_c, 4, 67, 0
7, 27600, Note_on_c, 4, 70, 100
7, 27840, Note_on_c, 4, 70, 0
7, 27840, Note_on_c, 4, 72, 100
7, 28320, Note_on_c, 4, 72, 0
7, 28320, Note_on_c, 4, 72, 100
7, 28560, Note_on_c, 4, 72, 0
7, 28560, Note_on_c, 4, 67, 100
7, 28800, Note_on_c, 4, 67, 0
7, 28800, Note_on_c, 4, 72, 100
7, 29040, Note_on_c, 4, 72, 0
7, 29040, Note_on_c, 4, 70, 100
7, 29280, Note_on_c, 4, 70, 0
7, 29280, Note_on_c, 4, 67, 100
7, 29520, Note_on_c, 4, 67, 0
7, 29520, Note_on_c, 4, 65, 100
7, 29880, Note_on_c, 4, 65, 0
7, 29880, Note_on_c, 4, 64, 100
7, 30000, Note_on_c, 4, 64, 0
7, 30000, Note_on_c, 4, 65, 100
7, 30360, Note_on_c, 4, 65, 0
7, 30360, Note_on_c, 4, 64, 100
7, 30480, Note_on_c, 4, 64, 0
7, 30480, Note_on_c, 4, 65, 100
7, 31200, Note_on_c, 4, 65, 0
7, 31200, Note_on_c, 4, 67, 100
7, 31440, Note_on_c, 4, 67, 0
7, 31440, Note_on_c, 4, 64, 100
7, 32880, Note_on_c, 4, 64, 0
7, 32880, Note_on_c, 4, 64, 100
7, 33120, Note_on_c, 4, 64, 0
7, 33120, Note_on_c, 4, 65, 100
7, 33360, Note_on_c, 4, 65, 0
7, 33360, Note_on_c, 4, 67, 100
7, 33840, Note_on_c, 4, 67, 0
7, 33840, Note_on_c, 4, 70, 100
7, 35040, Note_on_c, 4, 70, 0
7, 35040, Note_on_c, 4, 70, 100
7, 35280, Note_on_c, 4, 70, 0
7, 35280, Note_on_c, 4, 69, 100
7, 35760, Note_on_c, 4, 69, 0
7, 35760, Note_on_c, 4, 64, 100
7, 36240, Note_on_c, 4, 64, 0
7, 36240, Note_on_c, 4, 67, 100
7, 36720, Note_on_c, 4, 67, 0
7, 36720, Note_on_c, 4, 62, 100
7, 37200, Note_on_c, 4, 62, 0
7, 37200, Note_on_c, 4, 67, 100
7, 37680, Note_on_c, 4, 67, 0
7, 37680, Note_on_c, 4, 65, 100
7, 38160, Note_on_c, 4, 65, 0
7, 38160, Note_on_c, 4, 64, 100
7, 38640, Note_on_c, 4, 64, 0
7, 38640, Note_on_c, 4, 64, 100
7, 38880, Note_on_c, 4, 64, 0
7, 38880, Note_on_c, 4, 65, 100
7, 39120, Note_on_c, 4, 65, 0
7, 39120, Note_on_c, 4, 67, 100
7, 39600, Note_on_c, 4, 67, 0
7, 39600, Note_on_c, 4, 70, 100
7, 40800, Note_on_c, 4, 70, 0
7, 40800, Note_on_c, 4, 70, 100
7, 41040, Note_on_c, 4, 70, 0
7, 41040, Note_on_c, 4, 69, 100
7, 41520, Note_on_c, 4, 69, 0
7, 41520, Note_on_c, 4, 64, 100
7, 42000, Note_on_c, 4, 64, 0
7, 42000, Note_on_c, 4, 67, 100
7, 42480, Note_on_c, 4, 67, 0
7, 42480, Note_on_c, 4, 62, 100
7, 42960, Note_on_c, 4, 62, 0
7, 42960, Note_on_c, 4, 67, 100
7, 43440, Note_on_c, 4, 67, 0
7, 43440, Note_on_c, 4, 65, 100
7, 43920, Note_on_c, 4, 65, 0
7, 43920, Note_on_c, 4, 64, 100
7, 44400, Note_on_c, 4, 64, 0
7, 44400, Note_on_c, 4, 64, 100
7, 44640, Note_on_c, 4, 64, 0
7, 44640, Note_on_c, 4, 65, 100
7, 44880, Note_on_c, 4, 65, 0
7, 44880, Note_on_c, 4, 67, 100
7, 45360, Note_on_c, 4, 67, 0
7, 45368, Note_on_c, 4, 64, 100
7, 45596, Note_on_c, 4, 65, 100
7, 45608, Note_on_c, 4, 64, 0
7, 45836, Note_on_c, 4, 65, 0
7, 45840, Note_on_c, 4, 67, 100
7, 46080, Note_on_c, 4, 67, 0
7, 46080, Note_on_c, 4, 70, 100
7, 46320, Note_on_c, 4, 70, 0
7, 46332, Note_on_c, 4, 64, 100
7, 46556, Note_on_c, 4, 65, 100
7, 46572, Note_on_c, 4, 64, 0
7, 46796, Note_on_c, 4, 65, 0
7, 46800, Note_on_c, 4, 67, 100
7, 47030, Note_on_c, 4, 70, 100
7, 47040, Note_on_c, 4, 67, 0
7, 47270, Note_on_c, 4, 70, 0
7, 47292, Note_on_c, 4, 72, 100
7, 48240, Note_on_c, 4, 67, 100
7, 48252, Note_on_c, 4, 72, 0
7, 48478, Note_on_c, 4, 70, 100
7, 48480, Note_on_c, 4, 67, 0
7, 48718, Note_on_c, 4, 70, 0
7, 48720, Note_on_c, 4, 72, 100
7, 48946, Note_on_c, 4, 75, 100
7, 48960, Note_on_c, 4, 72, 0
7, 49186, Note_on_c, 4, 75, 0
7, 49204, Note_on_c, 4, 77, 100
7, 49558, Note_on_c, 4, 75, 100
7, 49564, Note_on_c, 4, 77, 0
7, 49678, Note_on_c, 4, 75, 0
7, 49680, Note_on_c, 4, 77, 100
7, 50040, Note_on_c, 4, 77, 0
7, 50048, Note_on_c, 4, 75, 100
7, 50168, Note_on_c, 4, 75, 0
7, 50174, Note_on_c, 4, 77, 100
7, 51134, Note_on_c, 4, 77, 0
7, 54000, Note_on_c, 4, 65, 100
7, 54240, Note_on_c, 4, 65, 0
7, 54240, Note_on_c, 4, 69, 100
7, 54480, Note_on_c, 4, 69, 0
7, 54480, Note_on_c, 4, 70, 100
7, 54720, Note_on_c, 4, 70, 0
7, 54720, Note_on_c, 4, 69, 100
7, 54960, Note_on_c, 4, 69, 0
7, 54960, Note_on_c, 4, 72, 100
7, 55200, Note_on_c, 4, 72, 0
7, 55200, Note_on_c, 4, 69, 100
7, 55440, Note_on_c, 4, 69, 0
7, 55440, Note_on_c, 4, 70, 100
7, 55680, Note_on_c, 4, 70, 0
7, 55680, Note_on_c, 4, 69, 100
7, 55920, Note_on_c, 4, 69, 0
7, 55920, Note_on_c, 4, 65, 100
7, 56160, Note_on_c, 4, 65, 0
7, 56160, Note_on_c, 4, 69, 100
7, 56400, Note_on_c, 4, 69, 0
7, 56400, Note_on_c, 4, 67, 100
7, 56640, Note_on_c, 4, 67, 0
7, 56640, Note_on_c, 4, 64, 100
7, 56880, Note_on_c, 4, 64, 0
7, 56880, Note_on_c, 4, 67, 100
7, 57120, Note_on_c, 4, 67, 0
7, 57120, Note_on_c, 4, 65, 100
7, 57360, Note_on_c, 4, 65, 0
7, 57360, Note_on_c, 4, 62, 100
7, 57600, Note_on_c, 4, 62, 0
7, 57600, Note_on_c, 4, 67, 100
7, 57840, Note_on_c, 4, 67, 0
7, 57840, Note_on_c, 4, 65, 100
7, 58080, Note_on_c, 4, 65, 0
7, 58080, Note_on_c, 4, 64, 100
7, 60000, Note_on_c, 4, 64, 0
7, 60000, Note_on_c, 4, 65, 100
7, 60240, Note_on_c, 4, 65, 0
7, 60240, Note_on_c, 4, 69, 100
7, 60480, Note_on_c, 4, 69, 0
7, 60480, Note_on_c, 4, 70, 100
7, 60720, Note_on_c, 4, 70, 0
7, 60720, Note_on_c, 4, 69, 100
7, 60960, Note_on_c, 4, 69, 0
7, 60960, Note_on_c, 4, 72, 100
7, 61200, Note_on_c, 4, 72, 0
7, 61200, Note_on_c, 4, 69, 100
7, 61440, Note_on_c, 4, 69, 0
7, 61440, Note_on_c, 4, 70, 100
7, 61680, Note_on_c, 4, 70, 0
7, 61680, Note_on_c, 4, 69, 100
7, 61920, Note_on_c, 4, 69, 0
7, 61920, Note_on_c, 4, 65, 100
7, 62160, Note_on_c, 4, 65, 0
7, 62160, Note_on_c, 4, 69, 100
7, 62400, Note_on_c, 4, 69, 0
7, 62400, Note_on_c, 4, 67, 100
7, 62640, Note_on_c, 4, 67, 0
7, 62640, Note_on_c, 4, 64, 100
7, 62880, Note_on_c, 4, 64, 0
7, 62880, Note_on_c, 4, 70, 100
7, 63120, Note_on_c, 4, 70, 0
7, 63120, Note_on_c, 4, 69, 100
7, 63360, Note_on_c, 4, 69, 0
7, 63360, Note_on_c, 4, 65, 100
7, 63600, Note_on_c, 4, 65, 0
7, 63600, Note_on_c, 4, 69, 100
7, 63840, Note_on_c, 4, 69, 0
7, 63840, Note_on_c, 4, 67, 100
7, 64080, Note_on_c, 4, 67, 0
7, 64080, Note_on_c, 4, 64, 100
7, 64320, Note_on_c, 4, 64, 0
7, 64320, Note_on_c, 4, 67, 100
7, 64560, Note_on_c, 4, 67, 0
7, 64560, Note_on_c, 4, 65, 100
7, 64800, Note_on_c, 4, 65, 0
7, 64800, Note_on_c, 4, 64, 100
7, 65040, Note_on_c, 4, 64, 0
7, 65040, Note_on_c, 4, 62, 100
7, 66000, Note_on_c, 4, 62, 0
7, 106800, Note_on_c, 4, 67, 100
7, 107280, Note_on_c, 4, 67, 0
7, 107280, Note_on_c, 4, 70, 100
7, 108480, Note_on_c, 4, 70, 0
7, 108480, Note_on_c, 4, 70, 100
7, 108720, Note_on_c, 4, 70, 0
7, 108720, Note_on_c, 4, 69, 100
7, 109200, Note_on_c, 4, 69, 0
7, 109200, Note_on_c, 4, 64, 100
7, 109680, Note_on_c, 4, 64, 0
7, 109680, Note_on_c, 4, 67, 100
7, 110160, Note_on_c, 4, 67, 0
7, 110160, Note_on_c, 4, 62, 100
7, 110640, Note_on_c, 4, 62, 0
7, 110640, Note_on_c, 4, 67, 100
7, 111120, Note_on_c, 4, 67, 0
7, 111120, Note_on_c, 4, 65, 100
7, 111600, Note_on_c, 4, 65, 0
7, 111600, Note_on_c, 4, 64, 100
7, 112080, Note_on_c, 4, 64, 0
7, 112080, Note_on_c, 4, 64, 100
7, 112320, Note_on_c, 4, 64, 0
7, 112320, Note_on_c, 4, 65, 100
7, 112560, Note_on_c, 4, 65, 0
7, 112560, Note_on_c, 4, 67, 100
7, 113040, Note_on_c, 4, 67, 0
7, 113040, Note_on_c, 4, 70, 100
7, 114240, Note_on_c, 4, 70, 0
7, 114240, Note_on_c, 4, 70, 100
7, 114480, Note_on_c, 4, 70, 0
7, 114480, Note_on_c, 4, 69, 100
7, 114960, Note_on_c, 4, 69, 0
7, 114960, Note_on_c, 4, 64, 100
7, 115440, Note_on_c, 4, 64, 0
7, 115440, Note_on_c, 4, 67, 100
7, 115920, Note_on_c, 4, 67, 0
7, 115920, Note_on_c, 4, 62, 100
7, 116400, Note_on_c, 4, 62, 0
7, 116400, Note_on_c, 4, 67, 100
7, 116880, Note_on_c, 4, 67, 0
7, 116880, Note_on_c, 4, 65, 100
7, 117360, Note_on_c, 4, 65, 0
7, 117360, Note_on_c, 4, 64, 100
7, 117840, Note_on_c, 4, 64, 0
7, 117840, Note_on_c, 4, 64, 100
7, 118080, Note_on_c, 4, 64, 0
7, 118080, Note_on_c, 4, 65, 100
7, 118320, Note_on_c, 4, 65, 0
7, 118320, Note_on_c, 4, 67, 100
7, 118792, Note_on_c, 4, 52, 100
7, 118800, Note_on_c, 4, 67, 0
7, 118800, Note_on_c, 4, 64, 100
7, 119032, Note_on_c, 4, 52, 0
7, 119036, Note_on_c, 4, 53, 100
7, 119040, Note_on_c, 4, 64, 0
7, 119040, Note_on_c, 4, 65, 100
7, 119276, Note_on_c, 4, 53, 0
7, 119280, Note_on_c, 4, 65, 0
7, 119280, Note_on_c, 4, 55, 100
7, 119280, Note_on_c, 4, 67, 100
7, 119752, Note_on_c, 4, 52, 100
7, 119760, Note_on_c, 4, 67, 0
7, 119760, Note_on_c, 4, 55, 0
7, 119760, Note_on_c, 4, 64, 100
7, 120232, Note_on_c, 4, 52, 0
7, 120240, Note_on_c, 4, 64, 0
7, 120712, Note_on_c, 4, 64, 100
7, 120716, Note_on_c, 4, 52, 100
7, 120946, Note_on_c, 4, 65, 100
7, 120952, Note_on_c, 4, 64, 0
7, 120956, Note_on_c, 4, 52, 0
7, 120960, Note_on_c, 4, 53, 100
7, 121186, Note_on_c, 4, 65, 0
7, 121200, Note_on_c, 4, 53, 0
7, 121200, Note_on_c, 4, 57, 100
7, 121200, Note_on_c, 4, 69, 100
7, 121320, Note_on_c, 4, 69, 0
7, 121320, Note_on_c, 4, 57, 0
7, 121328, Note_on_c, 4, 55, 100
7, 121334, Note_on_c, 4, 67, 100
7, 121432, Note_on_c, 4, 57, 100
7, 121448, Note_on_c, 4, 55, 0
7, 121448, Note_on_c, 4, 69, 100
7, 121454, Note_on_c, 4, 67, 0
7, 122152, Note_on_c, 4, 57, 0
7, 122168, Note_on_c, 4, 69, 0
7, 123586, Note_on_c, 4, 55, 100
7, 123592, Note_on_c, 4, 67, 100
7, 123826, Note_on_c, 4, 55, 0
7, 123826, Note_on_c, 4, 58, 100
7, 123832, Note_on_c, 4, 67, 0
7, 123852, Note_on_c, 4, 70, 100
7, 124066, Note_on_c, 4, 58, 0
7, 124080, Note_on_c, 4, 60, 100
7, 124080, Note_on_c, 4, 72, 100
7, 124092, Note_on_c, 4, 70, 0
7, 124294, Note_on_c, 4, 75, 100
7, 124312, Note_on_c, 4, 63, 100
7, 124320, Note_on_c, 4, 72, 0
7, 124320, Note_on_c, 4, 60, 0
7, 124534, Note_on_c, 4, 75, 0
7, 124538, Note_on_c, 4, 65, 100
7, 124548, Note_on_c, 4, 77, 100
7, 124552, Note_on_c, 4, 63, 0
7, 124898, Note_on_c, 4, 65, 0
7, 124908, Note_on_c, 4, 77, 0
7, 124920, Note_on_c, 4, 75, 100
7, 124926, Note_on_c, 4, 63, 100
7, 125040, Note_on_c, 4, 75, 0
7, 125040, Note_on_c, 4, 65, 100
7, 125040, Note_on_c, 4, 77, 100
7, 125046, Note_on_c, 4, 63, 0
7, 125372, Note_on_c, 4, 63, 100
7, 125400, Note_on_c, 4, 77, 0
7, 125400, Note_on_c, 4, 65, 0
7, 125428, Note_on_c, 4, 75, 100
7, 125492, Note_on_c, 4, 63, 0
7, 125514, Note_on_c, 4, 65, 100
7, 125520, Note_on_c, 4, 77, 100
7, 125548, Note_on_c, 4, 75, 0
7, 126474, Note_on_c, 4, 65, 0
7, 126480, Note_on_c, 4, 77, 0
7, 126494, Note_on_c, 4, 77, 100
7, 126494, Note_on_c, 4, 65, 100
7, 126614, Note_on_c, 4, 65, 0
7, 126614, Note_on_c, 4, 77, 0
7, 126614, Note_on_c, 4, 75, 100
7, 126614, Note_on_c, 4, 63, 100
7, 126708, Note_on_c, 4, 72, 100
7, 126708, Note_on_c, 4, 60, 100
7, 126734, Note_on_c, 4, 63, 0
7, 126734, Note_on_c, 4, 75, 0
7, 126828, Note_on_c, 4, 72, 0
7, 126828, Note_on_c, 4, 60, 0
7, 126840, Note_on_c, 4, 70, 100
7, 126840, Note_on_c, 4, 58, 100
7, 127080, Note_on_c, 4, 58, 0
7, 127080, Note_on_c, 4, 70, 0
7, 127092, Note_on_c, 4, 67, 100
7, 127092, Note_on_c, 4, 55, 100
7, 127182, Note_on_c, 4, 70, 100
7, 127182, Note_on_c, 4, 58, 100
7, 127212, Note_on_c, 4, 55, 0
7, 127212, Note_on_c, 4, 67, 0
7, 127422, Note_on_c, 4, 70, 0
7, 127422, Note_on_c, 4, 58, 0
7, 127440, Note_on_c, 4, 67, 100
7, 127440, Note_on_c, 4, 55, 100
7, 127560, Note_on_c, 4, 55, 0
7, 127560, Note_on_c, 4, 67, 0
7, 127560, Note_on_c, 4, 70, 100
7, 127560, Note_on_c, 4, 58, 100
7, 127800, Note_on_c, 4, 58, 0
7, 127800, Note_on_c, 4, 70, 0
7, 127812, Note_on_c, 4, 67, 100
7, 127812, Note_on_c, 4, 55, 100
7, 127920, Note_on_c, 4, 65, 100
7, 127920, Note_on_c, 4, 53, 100
7, 127932, Note_on_c, 4, 55, 0
7, 127932, Note_on_c, 4, 67, 0
7, 128880, Note_on_c, 4, 65, 0
7, 128880, Note_on_c, 4, 53, 0
7, 129840, Note_on_c, 4, 65, 100
7, 130080, Note_on_c, 4, 65, 0
7, 130080, Note_on_c, 4, 69, 100
7, 130320, Note_on_c, 4, 69, 0
7, 130320, Note_on_c, 4, 70, 100
7, 130560, Note_on_c, 4, 70, 0
7, 130560, Note_on_c, 4, 69, 100
7, 130800, Note_on_c, 4, 69, 0
7, 130800, Note_on_c, 4, 72, 100
7, 131040, Note_on_c, 4, 72, 0
7, 131040, Note_on_c, 4, 69, 100
7, 131280, Note_on_c, 4, 69, 0
7, 131280, Note_on_c, 4, 70, 100
7, 131520, Note_on_c, 4, 70, 0
7, 131520, Note_on_c, 4, 69, 100
7, 131760, Note_on_c, 4, 69, 0
7, 131760, Note_on_c, 4, 65, 100
7, 132000, Note_on_c, 4, 65, 0
7, 132000, Note_on_c, 4, 69, 100
7, 132240, Note_on_c, 4, 69, 0
7, 132240, Note_on_c, 4, 67, 100
7, 132480, Note_on_c, 4, 67, 0
7, 132480, Note_on_c, 4, 64, 100
7, 132720, Note_on_c, 4, 64, 0
7, 132720, Note_on_c, 4, 67, 100
7, 132960, Note_on_c, 4, 67, 0
7, 132960, Note_on_c, 4, 65, 100
7, 133200, Note_on_c, 4, 65, 0
7, 133200, Note_on_c, 4, 62, 100
7, 133440, Note_on_c, 4, 62, 0
7, 133440, Note_on_c, 4, 67, 100
7, 133680, Note_on_c, 4, 67, 0
7, 133680, Note_on_c, 4, 65, 100
7, 133920, Note_on_c, 4, 65, 0
7, 133920, Note_on_c, 4, 64, 100
7, 135840, Note_on_c, 4, 64, 0
7, 135840, Note_on_c, 4, 65, 100
7, 136080, Note_on_c, 4, 65, 0
7, 136080, Note_on_c, 4, 69, 100
7, 136320, Note_on_c, 4, 69, 0
7, 136320, Note_on_c, 4, 70, 100
7, 136560, Note_on_c, 4, 70, 0
7, 136560, Note_on_c, 4, 69, 100
7, 136800, Note_on_c, 4, 69, 0
7, 136800, Note_on_c, 4, 72, 100
7, 137040, Note_on_c, 4, 72, 0
7, 137040, Note_on_c, 4, 69, 100
7, 137280, Note_on_c, 4, 69, 0
7, 137280, Note_on_c, 4, 70, 100
7, 137520, Note_on_c, 4, 70, 0
7, 137520, Note_on_c, 4, 69, 100
7, 137760, Note_on_c, 4, 69, 0
7, 137760, Note_on_c, 4, 65, 100
7, 138000, Note_on_c, 4, 65, 0
7, 138000, Note_on_c, 4, 69, 100
7, 138240, Note_on_c, 4, 69, 0
7, 138240, Note_on_c, 4, 67, 100
7, 138480, Note_on_c, 4, 67, 0
7, 138480, Note_on_c, 4, 64, 100
7, 138720, Note_on_c, 4, 64, 0
7, 138720, Note_on_c, 4, 70, 100
7, 138960, Note_on_c, 4, 70, 0
7, 138960, Note_on_c, 4, 69, 100
7, 139200, Note_on_c, 4, 69, 0
7, 139200, Note_on_c, 4, 65, 100
7, 139440, Note_on_c, 4, 65, 0
7, 139440, Note_on_c, 4, 69, 100
7, 139680, Note_on_c, 4, 69, 0
7, 139680, Note_on_c, 4, 67, 100
7, 139920, Note_on_c, 4, 67, 0
7, 139920, Note_on_c, 4, 64, 100
7, 140160, Note_on_c, 4, 64, 0
7, 140160, Note_on_c, 4, 67, 100
7, 140400, Note_on_c, 4, 67, 0
7, 140400, Note_on_c, 4, 65, 100
7, 140640, Note_on_c, 4, 65, 0
7, 140640, Note_on_c, 4, 64, 100
7, 140880, Note_on_c, 4, 64, 0
7, 140880, Note_on_c, 4, 62, 100
7, 141840, Note_on_c, 4, 62, 0
7, 141840, End_track
8, 0, Start_track
8, 0, MIDI_port, 0
8, 0, Program_c, 6, 103
8, 0, Control_c, 6, 7, 90
8, 0, Control_c, 6, 10, 60
8, 0, Control_c, 6, 91, 100
8, 0, Control_c, 6, 93, 0
8, 0, Control_c, 6, 123, 0
8, 84000, Note_on_c, 6, 57, 100
8, 84120, Note_on_c, 6, 57, 0
8, 84120, Note_on_c, 6, 58, 100
8, 84240, Note_on_c, 6, 58, 0
8, 84240, Note_on_c, 6, 57, 100
8, 84480, Note_on_c, 6, 57, 0
8, 84480, Note_on_c, 6, 52, 100
8, 84600, Note_on_c, 6, 52, 0
8, 84600, Note_on_c, 6, 55, 100
8, 84720, Note_on_c, 6, 55, 0
8, 84720, Note_on_c, 6, 57, 100
8, 84840, Note_on_c, 6, 57, 0
8, 84840, Note_on_c, 6, 55, 100
8, 85080, Note_on_c, 6, 55, 0
8, 85080, Note_on_c, 6, 50, 100
8, 85200, Note_on_c, 6, 50, 0
8, 85200, Note_on_c, 6, 55, 100
8, 85320, Note_on_c, 6, 55, 0
8, 85320, Note_on_c, 6, 57, 100
8, 85440, Note_on_c, 6, 57, 0
8, 85440, Note_on_c, 6, 55, 100
8, 85680, Note_on_c, 6, 55, 0
8, 85680, Note_on_c, 6, 53, 100
8, 85800, Note_on_c, 6, 53, 0
8, 85800, Note_on_c, 6, 53, 100
8, 85920, Note_on_c, 6, 53, 0
8, 85920, Note_on_c, 6, 55, 100
8, 86040, Note_on_c, 6, 55, 0
8, 86040, Note_on_c, 6, 53, 100
8, 86280, Note_on_c, 6, 53, 0
8, 86280, Note_on_c, 6, 52, 100
8, 86400, Note_on_c, 6, 52, 0
8, 86400, Note_on_c, 6, 52, 100
8, 86520, Note_on_c, 6, 52, 0
8, 86520, Note_on_c, 6, 53, 100
8, 86640, Note_on_c, 6, 53, 0
8, 86640, Note_on_c, 6, 55, 100
8, 86760, Note_on_c, 6, 55, 0
8, 86760, Note_on_c, 6, 58, 100
8, 86880, Note_on_c, 6, 58, 0
8, 87600, Note_on_c, 6, 55, 100
8, 87720, Note_on_c, 6, 55, 0
8, 87720, Note_on_c, 6, 58, 100
8, 87840, Note_on_c, 6, 58, 0
8, 87840, Note_on_c, 6, 57, 100
8, 88080, Note_on_c, 6, 57, 0
8, 88080, Note_on_c, 6, 52, 100
8, 88200, Note_on_c, 6, 52, 0
8, 88200, Note_on_c, 6, 55, 100
8, 88320, Note_on_c, 6, 55, 0
8, 88320, Note_on_c, 6, 57, 100
8, 88440, Note_on_c, 6, 57, 0
8, 88440, Note_on_c, 6, 55, 100
8, 88680, Note_on_c, 6, 55, 0
8, 88680, Note_on_c, 6, 52, 100
8, 88800, Note_on_c, 6, 52, 0
8, 88800, Note_on_c, 6, 55, 100
8, 88920, Note_on_c, 6, 55, 0
8, 88920, Note_on_c, 6, 57, 100
8, 89040, Note_on_c, 6, 57, 0
8, 89040, Note_on_c, 6, 55, 100
8, 89280, Note_on_c, 6, 55, 0
8, 89280, Note_on_c, 6, 53, 100
8, 89400, Note_on_c, 6, 53, 0
8, 89400, Note_on_c, 6, 53, 100
8, 89520, Note_on_c, 6, 53, 0
8, 89520, Note_on_c, 6, 55, 100
8, 89640, Note_on_c, 6, 55, 0
8, 89640, Note_on_c, 6, 53, 100
8, 89880, Note_on_c, 6, 53, 0
8, 89880, Note_on_c, 6, 52, 100
8, 90000, Note_on_c, 6, 52, 0
8, 90000, Note_on_c, 6, 52, 100
8, 90120, Note_on_c, 6, 52, 0
8, 90120, Note_on_c, 6, 53, 100
8, 90240, Note_on_c, 6, 53, 0
8, 90240, Note_on_c, 6, 55, 100
8, 90480, Note_on_c, 6, 55, 0
8, 90480, Note_on_c, 6, 52, 100
8, 90600, Note_on_c, 6, 52, 0
8, 91200, Note_on_c, 6, 52, 100
8, 91320, Note_on_c, 6, 52, 0
8, 91320, Note_on_c, 6, 53, 100
8, 91440, Note_on_c, 6, 53, 0
8, 91440, Note_on_c, 6, 55, 100
8, 91680, Note_on_c, 6, 55, 0
8, 91680, Note_on_c, 6, 52, 100
8, 91800, Note_on_c, 6, 52, 0
8, 92400, Note_on_c, 6, 52, 100
8, 92520, Note_on_c, 6, 52, 0
8, 92520, Note_on_c, 6, 53, 100
8, 92640, Note_on_c, 6, 53, 0
8, 92640, Note_on_c, 6, 55, 100
8, 92880, Note_on_c, 6, 55, 0
8, 92880, Note_on_c, 6, 58, 100
8, 93000, Note_on_c, 6, 58, 0
8, 93000, Note_on_c, 6, 60, 100
8, 93120, Note_on_c, 6, 60, 0
8, 93120, Note_on_c, 6, 58, 100
8, 93240, Note_on_c, 6, 58, 0
8, 93240, Note_on_c, 6, 60, 100
8, 93480, Note_on_c, 6, 60, 0
8, 93480, Note_on_c, 6, 60, 100
8, 93600, Note_on_c, 6, 60, 0
8, 93600, Note_on_c, 6, 55, 100
8, 93720, Note_on_c, 6, 55, 0
8, 93720, Note_on_c, 6, 58, 100
8, 93840, Note_on_c, 6, 58, 0
8, 93840, Note_on_c, 6, 60, 100
8, 94080, Note_on_c, 6, 60, 0
8, 94080, Note_on_c, 6, 63, 100
8, 94200, Note_on_c, 6, 63, 0
8, 94200, Note_on_c, 6, 65, 100
8, 94320, Note_on_c, 6, 65, 0
8, 94320, Note_on_c, 6, 63, 100
8, 94440, Note_on_c, 6, 63, 0
8, 94440, Note_on_c, 6, 65, 100
8, 94680, Note_on_c, 6, 65, 0
8, 94680, Note_on_c, 6, 65, 100
8, 94800, Note_on_c, 6, 65, 0
8, 94800, Note_on_c, 6, 65, 100
8, 94920, Note_on_c, 6, 65, 0
8, 94920, Note_on_c, 6, 63, 100
8, 95040, Note_on_c, 6, 63, 0
8, 95040, Note_on_c, 6, 55, 100
8, 95160, Note_on_c, 6, 55, 0
8, 95160, Note_on_c, 6, 58, 100
8, 95280, Note_on_c, 6, 58, 0
8, 95280, Note_on_c, 6, 60, 100
8, 95400, Note_on_c, 6, 60, 0
8, 95400, Note_on_c, 6, 63, 100
8, 95520, Note_on_c, 6, 63, 0
8, 95520, Note_on_c, 6, 60, 100
8, 95640, Note_on_c, 6, 60, 0
8, 95640, Note_on_c, 6, 53, 100
8, 95760, Note_on_c, 6, 53, 0
8, 95760, Note_on_c, 6, 55, 100
8, 95880, Note_on_c, 6, 55, 0
8, 95880, Note_on_c, 6, 58, 100
8, 96120, Note_on_c, 6, 58, 0
8, 96120, Note_on_c, 6, 55, 100
8, 96240, Note_on_c, 6, 55, 0
8, 96240, Note_on_c, 6, 53, 100
8, 96360, Note_on_c, 6, 53, 0
8, 96360, Note_on_c, 6, 65, 100
8, 96480, Note_on_c, 6, 65, 0
8, 96480, Note_on_c, 6, 63, 100
8, 96600, Note_on_c, 6, 63, 0
8, 96600, Note_on_c, 6, 60, 100
8, 96720, Note_on_c, 6, 60, 0
8, 96720, Note_on_c, 6, 58, 100
8, 96840, Note_on_c, 6, 58, 0
8, 96840, Note_on_c, 6, 55, 100
8, 96960, Note_on_c, 6, 55, 0
8, 96960, Note_on_c, 6, 53, 100
8, 97080, Note_on_c, 6, 53, 0
8, 97080, Note_on_c, 6, 52, 100
8, 97200, Note_on_c, 6, 52, 0
8, 97200, End_track
9, 0, Start_track
9, 0, MIDI_port, 0
9, 0, Title_t, "Within You and Without You"
9, 0, End_track
10, 0, Start_track
10, 0, MIDI_port, 0
10, 0, Title_t, "Beatles"
10, 0, End_track
11, 0, Start_track
11, 0, MIDI_port, 0
11, 0, Title_t, "Resequenced by Elton Smith for AWE64 6/98"
11, 0, End_track
12, 0, Start_track
12, 0, MIDI_port, 0
12, 0, Title_t, "With apologies to George Harrison"
12, 0, End_track
13, 0, Start_track
13, 0, MIDI_port, 0
13, 0, Title_t, "cots@airmail.net"
13, 0, End_track
0, 0, End_of_file
