0, 0, Header, 1, 8, 960
1, 0, Start_track
1, 0, Control_c, 0, 101, 0
1, 0, Control_c, 0, 100, 0
1, 0, Control_c, 0, 6, 12
1, 0, Control_c, 0, 38, 0
1, 0, Control_c, 1, 101, 0
1, 0, Control_c, 1, 100, 0
1, 0, Control_c, 1, 6, 12
1, 0, Control_c, 1, 38, 0
1, 0, Control_c, 2, 101, 0
1, 0, Control_c, 2, 100, 0
1, 0, Control_c, 2, 6, 12
1, 0, Control_c, 2, 38, 0
1, 0, Control_c, 3, 101, 0
1, 0, Control_c, 3, 100, 0
1, 0, Control_c, 3, 6, 12
1, 0, Control_c, 3, 38, 0
1, 0, Control_c, 4, 101, 0
1, 0, Control_c, 4, 100, 0
1, 0, Control_c, 4, 6, 12
1, 0, Control_c, 4, 38, 0
1, 0, Control_c, 5, 101, 0
1, 0, Control_c, 5, 100, 0
1, 0, Control_c, 5, 6, 12
1, 0, Control_c, 5, 38, 0
1, 0, Control_c, 6, 101, 0
1, 0, Control_c, 6, 100, 0
1, 0, Control_c, 6, 6, 12
1, 0, Control_c, 6, 38, 0
1, 0, Control_c, 7, 101, 0
1, 0, Control_c, 7, 100, 0
1, 0, Control_c, 7, 6, 12
1, 0, Control_c, 7, 38, 0
1, 0, Control_c, 8, 101, 0
1, 0, Control_c, 8, 100, 0
1, 0, Control_c, 8, 6, 12
1, 0, Control_c, 8, 38, 0
1, 0, Control_c, 9, 101, 0
1, 0, Control_c, 9, 100, 0
1, 0, Control_c, 9, 6, 12
1, 0, Control_c, 9, 38, 0
1, 0, Control_c, 10, 101, 0
1, 0, Control_c, 10, 100, 0
1, 0, Control_c, 10, 6, 12
1, 0, Control_c, 10, 38, 0
1, 0, Control_c, 11, 101, 0
1, 0, Control_c, 11, 100, 0
1, 0, Control_c, 11, 6, 12
1, 0, Control_c, 11, 38, 0
1, 0, Control_c, 12, 101, 0
1, 0, Control_c, 12, 100, 0
1, 0, Control_c, 12, 6, 12
1, 0, Control_c, 12, 38, 0
1, 0, Control_c, 13, 101, 0
1, 0, Control_c, 13, 100, 0
1, 0, Control_c, 13, 6, 12
1, 0, Control_c, 13, 38, 0
1, 0, Control_c, 14, 101, 0
1, 0, Control_c, 14, 100, 0
1, 0, Control_c, 14, 6, 12
1, 0, Control_c, 14, 38, 0
1, 0, Control_c, 15, 101, 0
1, 0, Control_c, 15, 100, 0
1, 0, Control_c, 15, 6, 12
1, 0, Control_c, 15, 38, 0
1, 0, Time_signature, 4, 2, 24, 8
1, 0, Tempo, 750000
1, 0, End_track
2, 0, Start_track
2, 0, Pitch_bend_c, 0, 8192
2, 0, Control_c, 0, 7, 127
2, 0, Control_c, 0, 10, 63
2, 0, Control_c, 0, 93, 0
2, 0, Control_c, 0, 91, 0
2, 0, Control_c, 0, 95, 0
2, 0, Control_c, 0, 92, 0
2, 0, Control_c, 0, 11, 127
2, 0, Program_c, 0, 107
2, 0, Control_c, 1, 7, 127
2, 0, Control_c, 1, 10, 63
2, 0, Control_c, 1, 93, 0
2, 0, Control_c, 1, 91, 0
2, 0, Control_c, 1, 95, 0
2, 0, Control_c, 1, 92, 0
2, 0, Control_c, 1, 11, 127
2, 0, Program_c, 1, 107
2, 7200, Note_on_c, 0, 67, 95
2, 7680, Note_off_c, 0, 67, 95
2, 15840, Note_on_c, 0, 69, 95
2, 18720, Note_off_c, 0, 69, 95
2, 18720, Note_on_c, 0, 67, 95
2, 18960, Note_off_c, 0, 67, 95
2, 18960, Note_on_c, 0, 62, 95
2, 19200, Note_off_c, 0, 62, 95
2, 19200, Note_on_c, 0, 64, 95
2, 20160, Note_off_c, 0, 64, 95
2, 24000, Note_on_c, 0, 50, 95
2, 24040, Note_off_c, 0, 50, 95
2, 31680, Note_on_c, 0, 59, 95
2, 31920, Note_off_c, 0, 59, 95
2, 31920, Note_on_c, 0, 60, 95
2, 32400, Note_off_c, 0, 60, 95
2, 32400, Note_on_c, 0, 59, 95
2, 33120, Note_off_c, 0, 59, 95
2, 33120, Note_on_c, 0, 55, 95
2, 33360, Note_off_c, 0, 55, 95
2, 33360, Note_on_c, 0, 55, 95
2, 34080, Note_off_c, 0, 55, 95
2, 35520, Note_on_c, 0, 59, 95
2, 35760, Note_off_c, 0, 59, 95
2, 35760, Note_on_c, 0, 60, 95
2, 36240, Note_off_c, 0, 60, 95
2, 36240, Note_on_c, 0, 59, 95
2, 36960, Note_off_c, 0, 59, 95
2, 36960, Note_on_c, 0, 59, 95
2, 37440, Note_off_c, 0, 59, 95
2, 37440, Note_on_c, 0, 60, 95
2, 37920, Note_off_c, 0, 60, 95
2, 37920, Note_on_c, 0, 62, 95
2, 38400, Note_off_c, 0, 62, 95
2, 38400, Note_on_c, 0, 66, 95
2, 38880, Note_off_c, 0, 66, 95
2, 38880, Note_on_c, 0, 64, 95
2, 39360, Note_off_c, 0, 64, 95
2, 39840, Note_on_c, 0, 52, 95
2, 40080, Note_off_c, 0, 52, 95
2, 40080, Note_on_c, 0, 52, 95
2, 40320, Note_off_c, 0, 52, 95
2, 40320, Note_on_c, 0, 52, 95
2, 40800, Note_off_c, 0, 52, 95
2, 40800, Note_on_c, 0, 54, 95
2, 41280, Note_off_c, 0, 54, 95
2, 41280, Note_on_c, 0, 55, 95
2, 41760, Note_off_c, 0, 55, 95
2, 41760, Note_on_c, 0, 57, 95
2, 42720, Note_off_c, 0, 57, 95
2, 43680, Note_on_c, 0, 57, 95
2, 44160, Note_off_c, 0, 57, 95
2, 44160, Note_on_c, 0, 57, 95
2, 44640, Note_off_c, 0, 57, 95
2, 44640, Note_on_c, 0, 59, 95
2, 45120, Note_off_c, 0, 59, 95
2, 45120, Note_on_c, 0, 60, 95
2, 45600, Note_off_c, 0, 60, 95
2, 45600, Note_on_c, 0, 62, 95
2, 46560, Note_off_c, 0, 62, 95
2, 47520, Note_on_c, 0, 50, 95
2, 48000, Note_off_c, 0, 50, 95
2, 48000, Note_on_c, 0, 50, 95
2, 48480, Note_off_c, 0, 50, 95
2, 48480, Note_on_c, 0, 52, 95
2, 48960, Note_off_c, 0, 52, 95
2, 48960, Note_on_c, 0, 54, 95
2, 49440, Note_off_c, 0, 54, 95
2, 49440, Note_on_c, 0, 57, 95
2, 49680, Note_off_c, 0, 57, 95
2, 49680, Note_on_c, 0, 59, 95
2, 49920, Note_off_c, 0, 59, 95
2, 49920, Note_on_c, 0, 55, 95
2, 50400, Note_off_c, 0, 55, 95
2, 52320, Note_on_c, 0, 59, 95
2, 52560, Note_off_c, 0, 59, 95
2, 52560, Note_on_c, 0, 59, 95
2, 53280, Note_off_c, 0, 59, 95
2, 53280, Note_on_c, 0, 60, 95
2, 53520, Note_off_c, 0, 60, 95
2, 53520, Note_on_c, 0, 59, 95
2, 53760, Note_off_c, 0, 59, 95
2, 53760, Note_on_c, 0, 57, 95
2, 54000, Note_off_c, 0, 57, 95
2, 54000, Note_on_c, 0, 55, 95
2, 54240, Note_off_c, 0, 55, 95
2, 54240, Note_on_c, 0, 57, 95
2, 54720, Note_off_c, 0, 57, 95
2, 56160, Note_on_c, 0, 55, 95
2, 56640, Note_off_c, 0, 55, 95
2, 56640, Note_on_c, 0, 59, 95
2, 57120, Note_off_c, 0, 59, 95
2, 57120, Note_on_c, 0, 60, 95
2, 57600, Note_off_c, 0, 60, 95
2, 57600, Note_on_c, 0, 59, 95
2, 57840, Note_off_c, 0, 59, 95
2, 57840, Note_on_c, 0, 57, 95
2, 58080, Note_off_c, 0, 57, 95
2, 58080, Note_on_c, 0, 55, 95
2, 58320, Note_off_c, 0, 55, 95
2, 58320, Note_on_c, 0, 57, 95
2, 59040, Note_off_c, 0, 57, 95
2, 59040, Note_on_c, 0, 55, 95
2, 60000, Note_off_c, 0, 55, 95
2, 62400, Note_on_c, 0, 59, 95
2, 62640, Note_off_c, 0, 59, 95
2, 62640, Note_on_c, 0, 60, 95
2, 63360, Note_off_c, 0, 60, 95
2, 63360, Note_on_c, 0, 59, 95
2, 63840, Note_off_c, 0, 59, 95
2, 63840, Note_on_c, 0, 55, 95
2, 64080, Note_off_c, 0, 55, 95
2, 64080, Note_on_c, 0, 55, 95
2, 65280, Note_off_c, 0, 55, 95
2, 65280, Note_on_c, 0, 59, 95
2, 65760, Note_off_c, 0, 59, 95
2, 65760, Note_on_c, 0, 59, 95
2, 66000, Note_off_c, 0, 59, 95
2, 66000, Note_on_c, 0, 59, 95
2, 66720, Note_off_c, 0, 59, 95
2, 66720, Note_on_c, 0, 59, 95
2, 67200, Note_off_c, 0, 59, 95
2, 67200, Note_on_c, 0, 60, 95
2, 68160, Note_off_c, 0, 60, 95
2, 68160, Note_on_c, 0, 62, 95
2, 68640, Note_off_c, 0, 62, 95
2, 68640, Note_on_c, 0, 66, 95
2, 68880, Note_off_c, 0, 66, 95
2, 68880, Note_on_c, 0, 62, 95
2, 69120, Note_off_c, 0, 62, 95
2, 69120, Note_on_c, 0, 64, 95
2, 70080, Note_off_c, 0, 64, 95
2, 70560, Note_on_c, 0, 52, 95
2, 70800, Note_off_c, 0, 52, 95
2, 70800, Note_on_c, 0, 52, 95
2, 71040, Note_off_c, 0, 52, 95
2, 71040, Note_on_c, 0, 52, 95
2, 71520, Note_off_c, 0, 52, 95
2, 71520, Note_on_c, 0, 54, 95
2, 72000, Note_off_c, 0, 54, 95
2, 72000, Note_on_c, 0, 55, 95
2, 72480, Note_off_c, 0, 55, 95
2, 72480, Note_on_c, 0, 57, 95
2, 73920, Note_off_c, 0, 57, 95
2, 74400, Note_on_c, 0, 57, 95
2, 74640, Note_off_c, 0, 57, 95
2, 74640, Note_on_c, 0, 57, 95
2, 74880, Note_off_c, 0, 57, 95
2, 74880, Note_on_c, 0, 57, 95
2, 75120, Note_off_c, 0, 57, 95
2, 75120, Note_on_c, 0, 59, 95
2, 75840, Note_off_c, 0, 59, 95
2, 75840, Note_on_c, 0, 60, 95
2, 76320, Note_off_c, 0, 60, 95
2, 76320, Note_on_c, 0, 64, 95
2, 76800, Note_off_c, 0, 64, 95
2, 76800, Note_on_c, 0, 62, 95
2, 77760, Note_off_c, 0, 62, 95
2, 78240, Note_on_c, 0, 50, 95
2, 78480, Note_off_c, 0, 50, 95
2, 78480, Note_on_c, 0, 50, 95
2, 78720, Note_off_c, 0, 50, 95
2, 78720, Note_on_c, 0, 50, 95
2, 79200, Note_off_c, 0, 50, 95
2, 79200, Note_on_c, 0, 52, 95
2, 79680, Note_off_c, 0, 52, 95
2, 79680, Note_on_c, 0, 54, 95
2, 80160, Note_off_c, 0, 54, 95
2, 80160, Note_on_c, 0, 57, 95
2, 80400, Note_off_c, 0, 57, 95
2, 80400, Note_on_c, 0, 59, 95
2, 80640, Note_off_c, 0, 59, 95
2, 80640, Note_on_c, 0, 55, 95
2, 81600, Note_off_c, 0, 55, 95
2, 82800, Note_on_c, 0, 57, 95
2, 83040, Note_off_c, 0, 57, 95
2, 83040, Note_on_c, 0, 57, 95
2, 83520, Note_off_c, 0, 57, 95
2, 83520, Note_on_c, 0, 59, 95
2, 84000, Note_off_c, 0, 59, 95
2, 84000, Note_on_c, 0, 60, 95
2, 84480, Note_off_c, 0, 60, 95
2, 84480, Note_on_c, 0, 61, 95
2, 84960, Note_off_c, 0, 61, 95
2, 84960, Note_on_c, 0, 50, 95
2, 85200, Note_off_c, 0, 50, 95
2, 85200, Note_on_c, 0, 50, 95
2, 86400, Note_off_c, 0, 50, 95
2, 86880, Note_on_c, 0, 61, 95
2, 87360, Note_off_c, 0, 61, 95
2, 87360, Note_on_c, 0, 57, 95
2, 87840, Note_off_c, 0, 57, 95
2, 87840, Note_on_c, 0, 57, 95
2, 88320, Note_off_c, 0, 57, 95
2, 88320, Note_on_c, 0, 60, 95
2, 88800, Note_off_c, 0, 60, 95
2, 88800, Note_on_c, 0, 50, 95
2, 89280, Note_off_c, 0, 50, 95
2, 89280, Note_on_c, 0, 50, 95
2, 89520, Note_off_c, 0, 50, 95
2, 89520, Note_on_c, 0, 52, 95
2, 90000, Note_off_c, 0, 52, 95
2, 90000, Note_on_c, 0, 50, 95
2, 91200, Note_off_c, 0, 50, 95
2, 93600, Note_on_c, 0, 60, 95
2, 94080, Note_off_c, 0, 60, 95
2, 94080, Note_on_c, 0, 62, 95
2, 94560, Note_off_c, 0, 62, 95
2, 94560, Note_on_c, 0, 60, 95
2, 95040, Note_off_c, 0, 60, 95
2, 95040, Note_on_c, 0, 57, 95
2, 95520, Note_off_c, 0, 57, 95
2, 95520, Note_on_c, 0, 60, 95
2, 96480, Note_off_c, 0, 60, 95
2, 96480, Note_on_c, 0, 62, 95
2, 97440, Note_off_c, 0, 62, 95
2, 100800, Note_on_c, 0, 60, 95
2, 101280, Note_off_c, 0, 60, 95
2, 101280, Note_on_c, 0, 60, 95
2, 101760, Note_off_c, 0, 60, 95
2, 101760, Note_on_c, 0, 62, 95
2, 102240, Note_off_c, 0, 62, 95
2, 102240, Note_on_c, 0, 60, 95
2, 102720, Note_off_c, 0, 60, 95
2, 102720, Note_on_c, 0, 57, 95
2, 103200, Note_off_c, 0, 57, 95
2, 103200, Note_on_c, 0, 67, 95
2, 104160, Note_off_c, 0, 67, 95
2, 104160, Note_on_c, 0, 64, 95
2, 104640, Note_off_c, 0, 64, 95
2, 104640, Note_on_c, 0, 62, 95
2, 104880, Note_off_c, 0, 62, 95
2, 104880, Note_on_c, 0, 60, 95
2, 105120, Note_off_c, 0, 60, 95
2, 105120, Note_on_c, 0, 57, 95
2, 105600, Note_off_c, 0, 57, 95
2, 108240, Note_on_c, 0, 60, 95
2, 108480, Note_off_c, 0, 60, 95
2, 108480, Note_on_c, 0, 60, 95
2, 108960, Note_off_c, 0, 60, 95
2, 108960, Note_on_c, 0, 60, 95
2, 109200, Note_off_c, 0, 60, 95
2, 109200, Note_on_c, 0, 62, 95
2, 109920, Note_off_c, 0, 62, 95
2, 109920, Note_on_c, 0, 60, 95
2, 110400, Note_off_c, 0, 60, 95
2, 110400, Note_on_c, 0, 57, 95
2, 110880, Note_off_c, 0, 57, 95
2, 110880, Note_on_c, 0, 60, 95
2, 111840, Note_off_c, 0, 60, 95
2, 111840, Note_on_c, 0, 62, 95
2, 112800, Note_off_c, 0, 62, 95
2, 114240, Note_on_c, 0, 57, 95
2, 114720, Note_off_c, 0, 57, 95
2, 114720, Note_on_c, 0, 60, 95
2, 115200, Note_off_c, 0, 60, 95
2, 115200, Note_on_c, 0, 62, 95
2, 115680, Note_off_c, 0, 62, 95
2, 115680, Note_on_c, 0, 60, 95
2, 115920, Note_off_c, 0, 60, 95
2, 115920, Note_on_c, 0, 62, 95
2, 116640, Note_off_c, 0, 62, 95
2, 116640, Note_on_c, 0, 60, 95
2, 116880, Note_off_c, 0, 60, 95
2, 116880, Note_on_c, 0, 62, 95
2, 117600, Note_off_c, 0, 62, 95
2, 117600, Note_on_c, 0, 60, 95
2, 118080, Note_off_c, 0, 60, 95
2, 118080, Note_on_c, 0, 60, 95
2, 118560, Note_off_c, 0, 60, 95
2, 118560, Note_on_c, 0, 57, 95
2, 119040, Note_off_c, 0, 57, 95
2, 119040, Note_on_c, 0, 68, 95
2, 119520, Note_off_c, 0, 68, 95
2, 119520, Note_on_c, 0, 68, 95
2, 120000, Note_off_c, 0, 68, 95
2, 120000, Note_on_c, 0, 68, 95
2, 120480, Note_off_c, 0, 68, 95
2, 120480, Note_on_c, 0, 64, 95
2, 120720, Note_off_c, 0, 64, 95
2, 120720, Note_on_c, 0, 62, 95
2, 120960, Note_off_c, 0, 62, 95
2, 120960, Note_on_c, 0, 64, 95
2, 121920, Note_off_c, 0, 64, 95
2, 122400, Note_on_c, 0, 64, 95
2, 122440, Note_off_c, 0, 64, 95
2, 129600, Note_on_c, 0, 67, 95
2, 131520, Note_off_c, 0, 67, 95
2, 131520, Note_on_c, 0, 64, 95
2, 132480, Note_off_c, 0, 64, 95
2, 137520, Note_on_c, 0, 69, 95
2, 138240, Note_off_c, 0, 69, 95
2, 139200, Note_on_c, 0, 59, 95
2, 139440, Note_off_c, 0, 59, 95
2, 139440, Note_on_c, 0, 60, 95
2, 139920, Note_off_c, 0, 60, 95
2, 139920, Note_on_c, 0, 59, 95
2, 140640, Note_off_c, 0, 59, 95
2, 140640, Note_on_c, 0, 57, 95
2, 140880, Note_off_c, 0, 57, 95
2, 140880, Note_on_c, 0, 55, 95
2, 141600, Note_off_c, 0, 55, 95
2, 142080, Note_on_c, 0, 59, 95
2, 142560, Note_off_c, 0, 59, 95
2, 142560, Note_on_c, 0, 60, 95
2, 142800, Note_off_c, 0, 60, 95
2, 142800, Note_on_c, 0, 59, 95
2, 143520, Note_off_c, 0, 59, 95
2, 143520, Note_on_c, 0, 59, 95
2, 144000, Note_off_c, 0, 59, 95
2, 144000, Note_on_c, 0, 60, 95
2, 144960, Note_off_c, 0, 60, 95
2, 144960, Note_on_c, 0, 62, 95
2, 145440, Note_off_c, 0, 62, 95
2, 145440, Note_on_c, 0, 66, 95
2, 145920, Note_off_c, 0, 66, 95
2, 145920, Note_on_c, 0, 64, 95
2, 146880, Note_off_c, 0, 64, 95
2, 147600, Note_on_c, 0, 52, 95
2, 147840, Note_off_c, 0, 52, 95
2, 147840, Note_on_c, 0, 52, 95
2, 148320, Note_off_c, 0, 52, 95
2, 148320, Note_on_c, 0, 54, 95
2, 148800, Note_off_c, 0, 54, 95
2, 148800, Note_on_c, 0, 55, 95
2, 149280, Note_off_c, 0, 55, 95
2, 149280, Note_on_c, 0, 57, 95
2, 149760, Note_off_c, 0, 57, 95
2, 151680, Note_on_c, 0, 57, 95
2, 152160, Note_off_c, 0, 57, 95
2, 152160, Note_on_c, 0, 59, 95
2, 152640, Note_off_c, 0, 59, 95
2, 152640, Note_on_c, 0, 60, 95
2, 153120, Note_off_c, 0, 60, 95
2, 153120, Note_on_c, 0, 62, 95
2, 154080, Note_off_c, 0, 62, 95
2, 155040, Note_on_c, 0, 50, 95
2, 155520, Note_off_c, 0, 50, 95
2, 155520, Note_on_c, 0, 50, 95
2, 156000, Note_off_c, 0, 50, 95
2, 156000, Note_on_c, 0, 52, 95
2, 156480, Note_off_c, 0, 52, 95
2, 156480, Note_on_c, 0, 54, 95
2, 156960, Note_off_c, 0, 54, 95
2, 156960, Note_on_c, 0, 57, 95
2, 157200, Note_off_c, 0, 57, 95
2, 157200, Note_on_c, 0, 59, 95
2, 157440, Note_off_c, 0, 59, 95
2, 157440, Note_on_c, 0, 55, 95
2, 157920, Note_off_c, 0, 55, 95
2, 159840, Note_on_c, 0, 57, 95
2, 160320, Note_off_c, 0, 57, 95
2, 160320, Note_on_c, 0, 59, 95
2, 160560, Note_off_c, 0, 59, 95
2, 160560, Note_on_c, 0, 60, 95
2, 160800, Note_off_c, 0, 60, 95
2, 160800, Note_on_c, 0, 59, 95
2, 161280, Note_off_c, 0, 59, 95
2, 161280, Note_on_c, 0, 57, 95
2, 161520, Note_off_c, 0, 57, 95
2, 161520, Note_on_c, 0, 55, 95
2, 161760, Note_off_c, 0, 55, 95
2, 161760, Note_on_c, 0, 57, 95
2, 162240, Note_off_c, 0, 57, 95
2, 163680, Note_on_c, 0, 55, 95
2, 163920, Note_off_c, 0, 55, 95
2, 163920, Note_on_c, 0, 55, 95
2, 164640, Note_off_c, 0, 55, 95
2, 164640, Note_on_c, 0, 59, 95
2, 164880, Note_off_c, 0, 59, 95
2, 164880, Note_on_c, 0, 60, 95
2, 165120, Note_off_c, 0, 60, 95
2, 165120, Note_on_c, 0, 59, 95
2, 165600, Note_off_c, 0, 59, 95
2, 165600, Note_on_c, 0, 57, 95
2, 165840, Note_off_c, 0, 57, 95
2, 165840, Note_on_c, 0, 55, 95
2, 166320, Note_off_c, 0, 55, 95
2, 166320, Note_on_c, 0, 57, 95
2, 166800, Note_off_c, 0, 57, 95
2, 166800, Note_on_c, 0, 55, 95
2, 167520, Note_off_c, 0, 55, 95
2, 170400, Note_on_c, 0, 60, 95
2, 170880, Note_off_c, 0, 60, 95
2, 170880, Note_on_c, 0, 62, 95
2, 171360, Note_off_c, 0, 62, 95
2, 171360, Note_on_c, 0, 60, 95
2, 171840, Note_off_c, 0, 60, 95
2, 171840, Note_on_c, 0, 57, 95
2, 172320, Note_off_c, 0, 57, 95
2, 172320, Note_on_c, 0, 60, 95
2, 173280, Note_off_c, 0, 60, 95
2, 173280, Note_on_c, 0, 62, 95
2, 174240, Note_off_c, 0, 62, 95
2, 177600, Note_on_c, 0, 60, 95
2, 178080, Note_off_c, 0, 60, 95
2, 178080, Note_on_c, 0, 60, 95
2, 178560, Note_off_c, 0, 60, 95
2, 178560, Note_on_c, 0, 62, 95
2, 179040, Note_off_c, 0, 62, 95
2, 179040, Note_on_c, 0, 60, 95
2, 179520, Note_off_c, 0, 60, 95
2, 179520, Note_on_c, 0, 57, 95
2, 180000, Note_off_c, 0, 57, 95
2, 180000, Note_on_c, 0, 67, 95
2, 180960, Note_off_c, 0, 67, 95
2, 180960, Note_on_c, 0, 64, 95
2, 181440, Note_off_c, 0, 64, 95
2, 181440, Note_on_c, 0, 62, 95
2, 181680, Note_off_c, 0, 62, 95
2, 181680, Note_on_c, 0, 60, 95
2, 181920, Note_off_c, 0, 60, 95
2, 181920, Note_on_c, 0, 57, 95
2, 182400, Note_off_c, 0, 57, 95
2, 185040, Note_on_c, 0, 60, 95
2, 185280, Note_off_c, 0, 60, 95
2, 185280, Note_on_c, 0, 60, 95
2, 185760, Note_off_c, 0, 60, 95
2, 185760, Note_on_c, 0, 60, 95
2, 186000, Note_off_c, 0, 60, 95
2, 186000, Note_on_c, 0, 62, 95
2, 186720, Note_off_c, 0, 62, 95
2, 186720, Note_on_c, 0, 60, 95
2, 187200, Note_off_c, 0, 60, 95
2, 187200, Note_on_c, 0, 57, 95
2, 187680, Note_off_c, 0, 57, 95
2, 187680, Note_on_c, 0, 60, 95
2, 188640, Note_off_c, 0, 60, 95
2, 188640, Note_on_c, 0, 62, 95
2, 189600, Note_off_c, 0, 62, 95
2, 191040, Note_on_c, 0, 57, 95
2, 191520, Note_off_c, 0, 57, 95
2, 191520, Note_on_c, 0, 60, 95
2, 192000, Note_off_c, 0, 60, 95
2, 192000, Note_on_c, 0, 62, 95
2, 192480, Note_off_c, 0, 62, 95
2, 192480, Note_on_c, 0, 60, 95
2, 192720, Note_off_c, 0, 60, 95
2, 192720, Note_on_c, 0, 62, 95
2, 193440, Note_off_c, 0, 62, 95
2, 193440, Note_on_c, 0, 60, 95
2, 193680, Note_off_c, 0, 60, 95
2, 193680, Note_on_c, 0, 62, 95
2, 194400, Note_off_c, 0, 62, 95
2, 194400, Note_on_c, 0, 60, 95
2, 194880, Note_off_c, 0, 60, 95
2, 194880, Note_on_c, 0, 60, 95
2, 195360, Note_off_c, 0, 60, 95
2, 195360, Note_on_c, 0, 57, 95
2, 195840, Note_off_c, 0, 57, 95
2, 195840, Note_on_c, 0, 68, 95
2, 196320, Note_off_c, 0, 68, 95
2, 196320, Note_on_c, 0, 68, 95
2, 196800, Note_off_c, 0, 68, 95
2, 196800, Note_on_c, 0, 68, 95
2, 197280, Note_off_c, 0, 68, 95
2, 197280, Note_on_c, 0, 64, 95
2, 197520, Note_off_c, 0, 64, 95
2, 197520, Note_on_c, 0, 62, 95
2, 197760, Note_off_c, 0, 62, 95
2, 197760, Note_on_c, 0, 64, 95
2, 198720, Note_off_c, 0, 64, 95
2, 199200, Note_on_c, 0, 64, 95
2, 199240, Note_off_c, 0, 64, 95
2, 206400, Note_on_c, 0, 67, 95
2, 208320, Note_off_c, 0, 67, 95
2, 208320, Note_on_c, 0, 64, 95
2, 209280, Note_off_c, 0, 64, 95
2, 214320, Note_on_c, 0, 69, 95
2, 215040, Note_off_c, 0, 69, 95
2, 215040, Note_on_c, 0, 67, 95
2, 215280, Note_off_c, 0, 67, 95
2, 215280, Note_on_c, 0, 62, 95
2, 215520, Note_off_c, 0, 62, 95
2, 215520, Note_on_c, 0, 64, 95
2, 216000, Note_off_c, 0, 64, 95
2, 221760, Note_on_c, 0, 71, 95
2, 222240, Note_off_c, 0, 71, 95
2, 222240, Note_on_c, 0, 74, 95
2, 223680, Note_off_c, 0, 74, 95
2, 228480, Note_on_c, 0, 64, 95
2, 228960, Note_off_c, 0, 64, 95
2, 228960, Note_on_c, 0, 64, 95
2, 229440, Note_off_c, 0, 64, 95
2, 229440, Note_on_c, 0, 64, 95
2, 229920, Note_off_c, 0, 64, 95
2, 229920, Note_on_c, 0, 64, 95
2, 230400, Note_off_c, 0, 64, 95
2, 230400, Note_on_c, 0, 62, 95
2, 234240, Note_off_c, 0, 62, 95
2, 234240, Note_on_c, 0, 59, 95
2, 241920, Note_off_c, 0, 59, 95
2, 241920, End_track
3, 0, Start_track
3, 0, Pitch_bend_c, 2, 8192
3, 0, Control_c, 2, 7, 95
3, 0, Control_c, 2, 10, 79
3, 0, Control_c, 2, 93, 0
3, 0, Control_c, 2, 91, 0
3, 0, Control_c, 2, 95, 0
3, 0, Control_c, 2, 92, 0
3, 0, Control_c, 2, 11, 127
3, 0, Program_c, 2, 30
3, 0, Control_c, 3, 7, 95
3, 0, Control_c, 3, 10, 79
3, 0, Control_c, 3, 93, 0
3, 0, Control_c, 3, 91, 0
3, 0, Control_c, 3, 95, 0
3, 0, Control_c, 3, 92, 0
3, 0, Control_c, 3, 11, 127
3, 0, Program_c, 3, 30
3, 0, Note_on_c, 2, 67, 95
3, 0, Note_on_c, 2, 62, 95
3, 0, Note_on_c, 2, 55, 95
3, 0, Note_on_c, 2, 50, 95
3, 0, Note_on_c, 2, 43, 95
3, 960, Note_off_c, 2, 67, 95
3, 960, Note_off_c, 2, 62, 95
3, 960, Note_off_c, 2, 55, 95
3, 960, Note_off_c, 2, 50, 95
3, 960, Note_off_c, 2, 43, 95
3, 960, Note_on_c, 2, 64, 95
3, 960, Note_on_c, 2, 59, 95
3, 960, Note_on_c, 2, 55, 95
3, 960, Note_on_c, 2, 50, 95
3, 960, Note_on_c, 2, 40, 95
3, 1000, Note_off_c, 2, 64, 95
3, 1000, Note_off_c, 2, 59, 95
3, 1000, Note_off_c, 2, 55, 95
3, 1000, Note_off_c, 2, 50, 95
3, 1000, Note_off_c, 2, 40, 95
3, 1440, Note_on_c, 2, 64, 95
3, 1440, Note_on_c, 2, 59, 95
3, 1440, Note_on_c, 2, 55, 95
3, 1440, Note_on_c, 2, 50, 95
3, 1440, Note_on_c, 2, 40, 95
3, 1480, Note_off_c, 2, 64, 95
3, 1480, Note_off_c, 2, 59, 95
3, 1480, Note_off_c, 2, 55, 95
3, 1480, Note_off_c, 2, 50, 95
3, 1480, Note_off_c, 2, 40, 95
3, 1920, Note_on_c, 2, 66, 95
3, 1920, Note_on_c, 2, 62, 95
3, 1920, Note_on_c, 2, 57, 95
3, 1920, Note_on_c, 2, 50, 95
3, 2160, Note_off_c, 2, 66, 95
3, 2160, Note_on_c, 2, 67, 95
3, 2400, Note_off_c, 2, 67, 95
3, 2400, Note_on_c, 2, 66, 95
3, 2640, Note_off_c, 2, 66, 95
3, 2640, Note_on_c, 2, 67, 95
3, 2880, Note_off_c, 2, 62, 95
3, 2880, Note_off_c, 2, 57, 95
3, 2880, Note_off_c, 2, 50, 95
3, 2880, Note_off_c, 2, 67, 95
3, 2880, Note_on_c, 2, 66, 95
3, 3360, Note_off_c, 2, 66, 95
3, 3360, Note_on_c, 3, 62, 95
3, 3480, Pitch_bend_c, 3, 6528
3, 3600, Pitch_bend_c, 3, 4736
3, 3600, Pitch_bend_c, 3, 8192
3, 3600, Note_off_c, 3, 62, 95
3, 3600, Note_on_c, 2, 57, 47
3, 3840, Note_off_c, 2, 57, 47
3, 3840, Note_on_c, 2, 62, 95
3, 3840, Note_on_c, 2, 55, 95
3, 3840, Note_on_c, 2, 48, 95
3, 5280, Note_off_c, 2, 62, 95
3, 5280, Note_off_c, 2, 55, 95
3, 5280, Note_off_c, 2, 48, 95
3, 5280, Note_on_c, 2, 67, 95
3, 5280, Note_on_c, 2, 62, 95
3, 5280, Note_on_c, 2, 55, 95
3, 5280, Note_on_c, 2, 47, 95
3, 6720, Note_off_c, 2, 67, 95
3, 6720, Note_off_c, 2, 62, 95
3, 6720, Note_off_c, 2, 55, 95
3, 6720, Note_off_c, 2, 47, 95
3, 6720, Note_on_c, 2, 67, 95
3, 6720, Note_on_c, 2, 62, 95
3, 6720, Note_on_c, 2, 55, 95
3, 6720, Note_on_c, 2, 52, 95
3, 6720, Note_on_c, 2, 45, 95
3, 7680, Note_off_c, 2, 67, 95
3, 7680, Note_off_c, 2, 62, 95
3, 7680, Note_off_c, 2, 55, 95
3, 7680, Note_off_c, 2, 52, 95
3, 7680, Note_off_c, 2, 45, 95
3, 7680, Note_on_c, 2, 67, 95
3, 7680, Note_on_c, 2, 62, 95
3, 7680, Note_on_c, 2, 55, 95
3, 7680, Note_on_c, 2, 50, 95
3, 7680, Note_on_c, 2, 43, 95
3, 8640, Note_off_c, 2, 67, 95
3, 8640, Note_off_c, 2, 62, 95
3, 8640, Note_off_c, 2, 55, 95
3, 8640, Note_off_c, 2, 50, 95
3, 8640, Note_off_c, 2, 43, 95
3, 8640, Note_on_c, 2, 64, 95
3, 8640, Note_on_c, 2, 59, 95
3, 8640, Note_on_c, 2, 55, 95
3, 8640, Note_on_c, 2, 50, 95
3, 8640, Note_on_c, 2, 45, 95
3, 8640, Note_on_c, 2, 40, 95
3, 8680, Note_off_c, 2, 64, 95
3, 8680, Note_off_c, 2, 59, 95
3, 8680, Note_off_c, 2, 55, 95
3, 8680, Note_off_c, 2, 50, 95
3, 8680, Note_off_c, 2, 45, 95
3, 8680, Note_off_c, 2, 40, 95
3, 9120, Note_on_c, 2, 64, 95
3, 9120, Note_on_c, 2, 59, 95
3, 9120, Note_on_c, 2, 55, 95
3, 9120, Note_on_c, 2, 50, 95
3, 9120, Note_on_c, 2, 40, 95
3, 9160, Note_off_c, 2, 64, 95
3, 9160, Note_off_c, 2, 59, 95
3, 9160, Note_off_c, 2, 55, 95
3, 9160, Note_off_c, 2, 50, 95
3, 9160, Note_off_c, 2, 40, 95
3, 9360, Note_on_c, 2, 64, 95
3, 9360, Note_on_c, 2, 59, 95
3, 9360, Note_on_c, 2, 55, 95
3, 9360, Note_on_c, 2, 50, 95
3, 9360, Note_on_c, 2, 40, 95
3, 9400, Note_off_c, 2, 64, 95
3, 9400, Note_off_c, 2, 59, 95
3, 9400, Note_off_c, 2, 55, 95
3, 9400, Note_off_c, 2, 50, 95
3, 9400, Note_off_c, 2, 40, 95
3, 9600, Note_on_c, 2, 66, 95
3, 9600, Note_on_c, 2, 62, 95
3, 9600, Note_on_c, 2, 57, 95
3, 9600, Note_on_c, 2, 50, 95
3, 9840, Note_off_c, 2, 66, 95
3, 9840, Note_on_c, 2, 67, 95
3, 10080, Note_off_c, 2, 67, 95
3, 10080, Note_on_c, 2, 66, 95
3, 10320, Note_off_c, 2, 66, 95
3, 10320, Note_on_c, 2, 67, 95
3, 10560, Note_off_c, 2, 62, 95
3, 10560, Note_off_c, 2, 57, 95
3, 10560, Note_off_c, 2, 50, 95
3, 10560, Note_off_c, 2, 67, 95
3, 10560, Note_on_c, 2, 66, 95
3, 11040, Note_off_c, 2, 66, 95
3, 11040, Note_on_c, 3, 62, 95
3, 11160, Pitch_bend_c, 3, 6528
3, 11280, Pitch_bend_c, 3, 4736
3, 11280, Pitch_bend_c, 3, 8192
3, 11280, Note_off_c, 3, 62, 95
3, 11280, Note_on_c, 2, 57, 47
3, 11520, Note_off_c, 2, 57, 47
3, 11520, Note_on_c, 2, 62, 95
3, 11520, Note_on_c, 2, 55, 95
3, 11520, Note_on_c, 2, 48, 95
3, 12960, Note_off_c, 2, 62, 95
3, 12960, Note_off_c, 2, 55, 95
3, 12960, Note_off_c, 2, 48, 95
3, 12960, Note_on_c, 2, 67, 95
3, 12960, Note_on_c, 2, 62, 95
3, 12960, Note_on_c, 2, 55, 95
3, 12960, Note_on_c, 2, 47, 95
3, 14400, Note_off_c, 2, 67, 95
3, 14400, Note_off_c, 2, 62, 95
3, 14400, Note_off_c, 2, 55, 95
3, 14400, Note_off_c, 2, 47, 95
3, 14400, Note_on_c, 2, 67, 95
3, 14400, Note_on_c, 2, 62, 95
3, 14400, Note_on_c, 2, 55, 95
3, 14400, Note_on_c, 2, 52, 95
3, 14400, Note_on_c, 2, 45, 95
3, 15360, Note_off_c, 2, 67, 95
3, 15360, Note_off_c, 2, 62, 95
3, 15360, Note_off_c, 2, 55, 95
3, 15360, Note_off_c, 2, 52, 95
3, 15360, Note_off_c, 2, 45, 95
3, 15360, Note_on_c, 2, 67, 95
3, 15360, Note_on_c, 2, 62, 95
3, 15360, Note_on_c, 2, 55, 95
3, 15360, Note_on_c, 2, 50, 95
3, 15360, Note_on_c, 2, 43, 95
3, 16320, Note_off_c, 2, 67, 95
3, 16320, Note_off_c, 2, 62, 95
3, 16320, Note_off_c, 2, 55, 95
3, 16320, Note_off_c, 2, 50, 95
3, 16320, Note_off_c, 2, 43, 95
3, 16320, Note_on_c, 2, 64, 95
3, 16320, Note_on_c, 2, 59, 95
3, 16320, Note_on_c, 2, 55, 95
3, 16320, Note_on_c, 2, 50, 95
3, 16320, Note_on_c, 2, 40, 95
3, 16360, Note_off_c, 2, 64, 95
3, 16360, Note_off_c, 2, 59, 95
3, 16360, Note_off_c, 2, 55, 95
3, 16360, Note_off_c, 2, 50, 95
3, 16360, Note_off_c, 2, 40, 95
3, 16800, Note_on_c, 2, 64, 95
3, 16800, Note_on_c, 2, 59, 95
3, 16800, Note_on_c, 2, 55, 95
3, 16800, Note_on_c, 2, 50, 95
3, 16800, Note_on_c, 2, 40, 95
3, 16840, Note_off_c, 2, 64, 95
3, 16840, Note_off_c, 2, 59, 95
3, 16840, Note_off_c, 2, 55, 95
3, 16840, Note_off_c, 2, 50, 95
3, 16840, Note_off_c, 2, 40, 95
3, 17280, Note_on_c, 2, 66, 95
3, 17280, Note_on_c, 2, 62, 95
3, 17280, Note_on_c, 2, 57, 95
3, 17280, Note_on_c, 2, 50, 95
3, 17520, Note_off_c, 2, 66, 95
3, 17520, Note_on_c, 2, 67, 95
3, 17760, Note_off_c, 2, 67, 95
3, 17760, Note_on_c, 2, 66, 95
3, 18000, Note_off_c, 2, 66, 95
3, 18000, Note_on_c, 2, 67, 95
3, 18240, Note_off_c, 2, 62, 95
3, 18240, Note_off_c, 2, 57, 95
3, 18240, Note_off_c, 2, 50, 95
3, 18240, Note_off_c, 2, 67, 95
3, 18240, Note_on_c, 2, 66, 95
3, 18720, Note_off_c, 2, 66, 95
3, 18720, Note_on_c, 3, 62, 95
3, 18840, Pitch_bend_c, 3, 6528
3, 18960, Pitch_bend_c, 3, 4736
3, 18960, Pitch_bend_c, 3, 8192
3, 18960, Note_off_c, 3, 62, 95
3, 18960, Note_on_c, 2, 57, 47
3, 19200, Note_off_c, 2, 57, 47
3, 19200, Note_on_c, 2, 62, 95
3, 19200, Note_on_c, 2, 55, 95
3, 19200, Note_on_c, 2, 48, 95
3, 20640, Note_off_c, 2, 62, 95
3, 20640, Note_off_c, 2, 55, 95
3, 20640, Note_off_c, 2, 48, 95
3, 20640, Note_on_c, 2, 67, 95
3, 20640, Note_on_c, 2, 62, 95
3, 20640, Note_on_c, 2, 55, 95
3, 20640, Note_on_c, 2, 47, 95
3, 22080, Note_off_c, 2, 67, 95
3, 22080, Note_off_c, 2, 62, 95
3, 22080, Note_off_c, 2, 55, 95
3, 22080, Note_off_c, 2, 47, 95
3, 22080, Note_on_c, 2, 67, 95
3, 22080, Note_on_c, 2, 62, 95
3, 22080, Note_on_c, 2, 55, 95
3, 22080, Note_on_c, 2, 52, 95
3, 22080, Note_on_c, 2, 45, 95
3, 23040, Note_off_c, 2, 67, 95
3, 23040, Note_off_c, 2, 62, 95
3, 23040, Note_off_c, 2, 55, 95
3, 23040, Note_off_c, 2, 52, 95
3, 23040, Note_off_c, 2, 45, 95
3, 23040, Note_on_c, 2, 67, 95
3, 23040, Note_on_c, 2, 62, 95
3, 23040, Note_on_c, 2, 55, 95
3, 23040, Note_on_c, 2, 50, 95
3, 23040, Note_on_c, 2, 43, 95
3, 24000, Note_off_c, 2, 67, 95
3, 24000, Note_off_c, 2, 62, 95
3, 24000, Note_off_c, 2, 55, 95
3, 24000, Note_off_c, 2, 50, 95
3, 24000, Note_off_c, 2, 43, 95
3, 24000, Note_on_c, 2, 64, 95
3, 24000, Note_on_c, 2, 59, 95
3, 24000, Note_on_c, 2, 55, 95
3, 24000, Note_on_c, 2, 50, 95
3, 24000, Note_on_c, 2, 40, 95
3, 24040, Note_off_c, 2, 64, 95
3, 24040, Note_off_c, 2, 59, 95
3, 24040, Note_off_c, 2, 55, 95
3, 24040, Note_off_c, 2, 50, 95
3, 24040, Note_off_c, 2, 40, 95
3, 24480, Note_on_c, 2, 64, 95
3, 24480, Note_on_c, 2, 59, 95
3, 24480, Note_on_c, 2, 55, 95
3, 24480, Note_on_c, 2, 50, 95
3, 24480, Note_on_c, 2, 40, 95
3, 24520, Note_off_c, 2, 64, 95
3, 24520, Note_off_c, 2, 59, 95
3, 24520, Note_off_c, 2, 55, 95
3, 24520, Note_off_c, 2, 50, 95
3, 24520, Note_off_c, 2, 40, 95
3, 24960, Note_on_c, 2, 66, 95
3, 24960, Note_on_c, 2, 62, 95
3, 24960, Note_on_c, 2, 57, 95
3, 24960, Note_on_c, 2, 50, 95
3, 25200, Note_off_c, 2, 66, 95
3, 25200, Note_on_c, 2, 67, 95
3, 25440, Note_off_c, 2, 67, 95
3, 25440, Note_on_c, 2, 66, 95
3, 25680, Note_off_c, 2, 66, 95
3, 25680, Note_on_c, 2, 67, 95
3, 25920, Note_off_c, 2, 62, 95
3, 25920, Note_off_c, 2, 57, 95
3, 25920, Note_off_c, 2, 50, 95
3, 25920, Note_off_c, 2, 67, 95
3, 25920, Note_on_c, 2, 66, 95
3, 26400, Note_off_c, 2, 66, 95
3, 26400, Note_on_c, 3, 62, 95
3, 26520, Pitch_bend_c, 3, 6528
3, 26640, Pitch_bend_c, 3, 4736
3, 26640, Pitch_bend_c, 3, 8192
3, 26640, Note_off_c, 3, 62, 95
3, 26640, Note_on_c, 2, 57, 47
3, 26880, Note_off_c, 2, 57, 47
3, 26880, Note_on_c, 2, 62, 95
3, 26880, Note_on_c, 2, 55, 95
3, 26880, Note_on_c, 2, 48, 95
3, 28320, Note_off_c, 2, 62, 95
3, 28320, Note_off_c, 2, 55, 95
3, 28320, Note_off_c, 2, 48, 95
3, 28320, Note_on_c, 2, 67, 95
3, 28320, Note_on_c, 2, 62, 95
3, 28320, Note_on_c, 2, 55, 95
3, 28320, Note_on_c, 2, 47, 95
3, 29760, Note_off_c, 2, 67, 95
3, 29760, Note_off_c, 2, 62, 95
3, 29760, Note_off_c, 2, 55, 95
3, 29760, Note_off_c, 2, 47, 95
3, 29760, Note_on_c, 2, 67, 95
3, 29760, Note_on_c, 2, 62, 95
3, 29760, Note_on_c, 2, 55, 95
3, 29760, Note_on_c, 2, 52, 95
3, 29760, Note_on_c, 2, 45, 95
3, 30720, Note_off_c, 2, 67, 95
3, 30720, Note_off_c, 2, 62, 95
3, 30720, Note_off_c, 2, 55, 95
3, 30720, Note_off_c, 2, 52, 95
3, 30720, Note_off_c, 2, 45, 95
3, 30720, Note_on_c, 2, 43, 95
3, 32640, Note_off_c, 2, 43, 95
3, 35040, Note_on_c, 2, 66, 95
3, 36960, Note_off_c, 2, 66, 95
3, 36960, Note_on_c, 2, 66, 95
3, 37200, Note_off_c, 2, 66, 95
3, 37200, Note_on_c, 2, 64, 95
3, 37440, Note_off_c, 2, 64, 95
3, 37440, Note_on_c, 2, 66, 95
3, 37920, Note_off_c, 2, 66, 95
3, 37920, Note_on_c, 2, 67, 95
3, 38400, Note_off_c, 2, 67, 95
3, 38400, Note_on_c, 2, 64, 95
3, 40320, Note_off_c, 2, 64, 95
3, 40320, Note_on_c, 2, 48, 95
3, 40800, Note_off_c, 2, 48, 95
3, 40800, Note_on_c, 2, 47, 95
3, 41280, Note_off_c, 2, 47, 95
3, 41280, Note_on_c, 2, 48, 95
3, 41760, Note_off_c, 2, 48, 95
3, 41760, Note_on_c, 2, 49, 95
3, 42240, Note_off_c, 2, 49, 95
3, 42240, Note_on_c, 2, 50, 95
3, 43080, Note_on_c, 3, 50, 95
3, 43200, Note_off_c, 2, 50, 95
3, 43200, Note_off_c, 3, 50, 95
3, 43200, Note_on_c, 3, 52, 95
3, 43680, Note_off_c, 3, 52, 95
3, 43680, Note_on_c, 2, 50, 95
3, 44520, Note_on_c, 3, 45, 95
3, 44640, Note_off_c, 2, 50, 95
3, 44640, Note_off_c, 3, 45, 95
3, 44640, Note_on_c, 3, 47, 95
3, 45120, Note_off_c, 3, 47, 95
3, 45120, Note_on_c, 2, 45, 95
3, 46080, Note_off_c, 2, 45, 95
3, 46080, Note_on_c, 2, 43, 95
3, 48000, Note_off_c, 2, 43, 95
3, 48480, Note_on_c, 2, 67, 95
3, 48480, Note_on_c, 2, 62, 95
3, 48480, Note_on_c, 2, 55, 95
3, 48480, Note_on_c, 2, 50, 95
3, 48480, Note_on_c, 2, 43, 95
3, 48960, Note_off_c, 2, 67, 95
3, 48960, Note_off_c, 2, 62, 95
3, 48960, Note_off_c, 2, 55, 95
3, 48960, Note_off_c, 2, 50, 95
3, 48960, Note_off_c, 2, 43, 95
3, 48960, Note_on_c, 2, 67, 95
3, 48960, Note_on_c, 2, 62, 95
3, 48960, Note_on_c, 2, 55, 95
3, 48960, Note_on_c, 2, 50, 95
3, 48960, Note_on_c, 2, 43, 95
3, 49920, Note_off_c, 2, 67, 95
3, 49920, Note_off_c, 2, 62, 95
3, 49920, Note_off_c, 2, 55, 95
3, 49920, Note_off_c, 2, 50, 95
3, 49920, Note_off_c, 2, 43, 95
3, 51360, Note_on_c, 2, 76, 31
3, 51360, Note_on_c, 2, 88, 95
3, 52080, Note_off_c, 2, 76, 31
3, 52080, Note_off_c, 2, 88, 95
3, 52080, Note_on_c, 2, 83, 31
3, 52080, Note_on_c, 2, 95, 95
3, 52800, Note_off_c, 2, 83, 31
3, 52800, Note_off_c, 2, 95, 95
3, 52800, Note_on_c, 2, 76, 31
3, 52800, Note_on_c, 2, 88, 95
3, 53760, Note_off_c, 2, 76, 31
3, 53760, Note_off_c, 2, 88, 95
3, 53760, Note_on_c, 2, 57, 95
3, 57600, Note_off_c, 2, 57, 95
3, 57600, Note_on_c, 2, 48, 95
3, 61440, Note_off_c, 2, 48, 95
3, 61440, Note_on_c, 2, 43, 95
3, 61500, Note_on_c, 2, 50, 95
3, 61560, Note_on_c, 2, 55, 95
3, 65280, Note_off_c, 2, 55, 95
3, 65280, Note_off_c, 2, 50, 95
3, 65280, Note_off_c, 2, 43, 95
3, 65280, Note_on_c, 2, 47, 95
3, 65340, Note_on_c, 2, 54, 95
3, 65400, Note_on_c, 2, 59, 95
3, 65460, Note_on_c, 2, 62, 95
3, 69120, Note_off_c, 2, 62, 95
3, 69120, Note_off_c, 2, 59, 95
3, 69120, Note_off_c, 2, 54, 95
3, 69120, Note_off_c, 2, 47, 95
3, 69120, Note_on_c, 2, 48, 95
3, 71040, Note_off_c, 2, 48, 95
3, 71040, Note_on_c, 2, 48, 95
3, 71520, Note_off_c, 2, 48, 95
3, 71520, Note_on_c, 2, 47, 95
3, 72000, Note_off_c, 2, 47, 95
3, 72000, Note_on_c, 2, 48, 95
3, 72480, Note_off_c, 2, 48, 95
3, 72480, Note_on_c, 2, 49, 95
3, 72960, Note_off_c, 2, 49, 95
3, 72960, Note_on_c, 2, 50, 95
3, 73800, Note_on_c, 3, 50, 95
3, 73920, Note_off_c, 2, 50, 95
3, 73920, Note_off_c, 3, 50, 95
3, 73920, Note_on_c, 3, 52, 95
3, 74400, Note_off_c, 3, 52, 95
3, 74400, Note_on_c, 2, 50, 95
3, 75240, Note_on_c, 3, 45, 95
3, 75360, Note_off_c, 2, 50, 95
3, 75360, Note_off_c, 3, 45, 95
3, 75360, Note_on_c, 3, 47, 95
3, 75840, Note_off_c, 3, 47, 95
3, 75840, Note_on_c, 2, 45, 95
3, 76800, Note_off_c, 2, 45, 95
3, 76800, Note_on_c, 2, 43, 95
3, 78720, Note_off_c, 2, 43, 95
3, 80640, Note_on_c, 2, 40, 95
3, 82080, Note_off_c, 2, 40, 95
3, 82080, Note_on_c, 2, 64, 95
3, 82800, Note_off_c, 2, 64, 95
3, 82800, Note_on_c, 2, 59, 95
3, 84480, Note_off_c, 2, 59, 95
3, 84480, Note_on_c, 2, 45, 95
3, 87840, Note_off_c, 2, 45, 95
3, 87840, Note_on_c, 2, 45, 95
3, 88080, Note_off_c, 2, 45, 95
3, 88080, Note_on_c, 2, 47, 95
3, 88320, Note_off_c, 2, 47, 95
3, 88320, Note_on_c, 2, 60, 95
3, 88320, Note_on_c, 2, 55, 95
3, 88320, Note_on_c, 2, 48, 95
3, 91200, Note_off_c, 2, 60, 95
3, 91200, Note_off_c, 2, 55, 95
3, 91200, Note_off_c, 2, 48, 95
3, 91200, Note_on_c, 2, 60, 95
3, 91200, Note_on_c, 2, 55, 95
3, 91200, Note_on_c, 2, 48, 95
3, 91680, Note_off_c, 2, 60, 95
3, 91680, Note_off_c, 2, 55, 95
3, 91680, Note_off_c, 2, 48, 95
3, 91680, Note_on_c, 2, 60, 95
3, 91680, Note_on_c, 2, 55, 95
3, 91680, Note_on_c, 2, 48, 95
3, 92160, Note_off_c, 2, 60, 95
3, 92160, Note_off_c, 2, 55, 95
3, 92160, Note_off_c, 2, 48, 95
3, 92160, Note_on_c, 2, 69, 95
3, 92160, Note_on_c, 2, 64, 95
3, 92160, Note_on_c, 2, 60, 95
3, 92160, Note_on_c, 2, 57, 95
3, 92160, Note_on_c, 2, 52, 95
3, 92160, Note_on_c, 2, 45, 95
3, 92400, Note_off_c, 2, 69, 95
3, 92400, Note_off_c, 2, 64, 95
3, 92400, Note_off_c, 2, 60, 95
3, 92400, Note_off_c, 2, 57, 95
3, 92400, Note_off_c, 2, 52, 95
3, 92400, Note_off_c, 2, 45, 95
3, 92400, Note_on_c, 2, 69, 95
3, 92400, Note_on_c, 2, 64, 95
3, 92400, Note_on_c, 2, 60, 95
3, 92400, Note_on_c, 2, 57, 95
3, 92400, Note_on_c, 2, 52, 95
3, 92400, Note_on_c, 2, 45, 95
3, 92640, Note_off_c, 2, 69, 95
3, 92640, Note_off_c, 2, 64, 95
3, 92640, Note_off_c, 2, 60, 95
3, 92640, Note_off_c, 2, 57, 95
3, 92640, Note_off_c, 2, 52, 95
3, 92640, Note_off_c, 2, 45, 95
3, 92640, Note_on_c, 2, 69, 95
3, 92640, Note_on_c, 2, 64, 95
3, 92640, Note_on_c, 2, 60, 95
3, 92640, Note_on_c, 2, 57, 95
3, 92640, Note_on_c, 2, 52, 95
3, 92640, Note_on_c, 2, 45, 95
3, 92880, Note_off_c, 2, 69, 95
3, 92880, Note_off_c, 2, 64, 95
3, 92880, Note_off_c, 2, 60, 95
3, 92880, Note_off_c, 2, 57, 95
3, 92880, Note_off_c, 2, 52, 95
3, 92880, Note_off_c, 2, 45, 95
3, 92880, Note_on_c, 2, 69, 95
3, 92880, Note_on_c, 2, 64, 95
3, 92880, Note_on_c, 2, 60, 95
3, 92880, Note_on_c, 2, 57, 95
3, 92880, Note_on_c, 2, 52, 95
3, 92880, Note_on_c, 2, 45, 95
3, 93120, Note_off_c, 2, 69, 95
3, 93120, Note_off_c, 2, 64, 95
3, 93120, Note_off_c, 2, 60, 95
3, 93120, Note_off_c, 2, 57, 95
3, 93120, Note_off_c, 2, 52, 95
3, 93120, Note_off_c, 2, 45, 95
3, 93120, Note_on_c, 2, 69, 95
3, 93120, Note_on_c, 2, 64, 95
3, 93120, Note_on_c, 2, 60, 95
3, 93120, Note_on_c, 2, 57, 95
3, 93120, Note_on_c, 2, 52, 95
3, 93120, Note_on_c, 2, 45, 95
3, 94080, Note_off_c, 2, 69, 95
3, 94080, Note_off_c, 2, 64, 95
3, 94080, Note_off_c, 2, 60, 95
3, 94080, Note_off_c, 2, 57, 95
3, 94080, Note_off_c, 2, 52, 95
3, 94080, Note_off_c, 2, 45, 95
3, 94080, Note_on_c, 2, 67, 95
3, 94080, Note_on_c, 2, 62, 95
3, 94080, Note_on_c, 2, 59, 95
3, 94080, Note_on_c, 2, 55, 95
3, 94080, Note_on_c, 2, 50, 95
3, 94080, Note_on_c, 2, 43, 95
3, 94320, Note_off_c, 2, 67, 95
3, 94320, Note_off_c, 2, 62, 95
3, 94320, Note_off_c, 2, 59, 95
3, 94320, Note_off_c, 2, 55, 95
3, 94320, Note_off_c, 2, 50, 95
3, 94320, Note_off_c, 2, 43, 95
3, 94320, Note_on_c, 2, 67, 95
3, 94320, Note_on_c, 2, 62, 95
3, 94320, Note_on_c, 2, 59, 95
3, 94320, Note_on_c, 2, 55, 95
3, 94320, Note_on_c, 2, 50, 95
3, 94320, Note_on_c, 2, 43, 95
3, 94560, Note_off_c, 2, 67, 95
3, 94560, Note_off_c, 2, 62, 95
3, 94560, Note_off_c, 2, 59, 95
3, 94560, Note_off_c, 2, 55, 95
3, 94560, Note_off_c, 2, 50, 95
3, 94560, Note_off_c, 2, 43, 95
3, 94560, Note_on_c, 2, 67, 95
3, 94560, Note_on_c, 2, 62, 95
3, 94560, Note_on_c, 2, 59, 95
3, 94560, Note_on_c, 2, 55, 95
3, 94560, Note_on_c, 2, 50, 95
3, 94560, Note_on_c, 2, 43, 95
3, 94800, Note_off_c, 2, 67, 95
3, 94800, Note_off_c, 2, 62, 95
3, 94800, Note_off_c, 2, 59, 95
3, 94800, Note_off_c, 2, 55, 95
3, 94800, Note_off_c, 2, 50, 95
3, 94800, Note_off_c, 2, 43, 95
3, 94800, Note_on_c, 2, 67, 95
3, 94800, Note_on_c, 2, 62, 95
3, 94800, Note_on_c, 2, 59, 95
3, 94800, Note_on_c, 2, 55, 95
3, 94800, Note_on_c, 2, 50, 95
3, 94800, Note_on_c, 2, 43, 95
3, 95040, Note_off_c, 2, 67, 95
3, 95040, Note_off_c, 2, 62, 95
3, 95040, Note_off_c, 2, 59, 95
3, 95040, Note_off_c, 2, 55, 95
3, 95040, Note_off_c, 2, 50, 95
3, 95040, Note_off_c, 2, 43, 95
3, 95040, Note_on_c, 2, 67, 95
3, 95040, Note_on_c, 2, 62, 95
3, 95040, Note_on_c, 2, 59, 95
3, 95040, Note_on_c, 2, 55, 95
3, 95040, Note_on_c, 2, 50, 95
3, 95040, Note_on_c, 2, 43, 95
3, 96000, Note_off_c, 2, 67, 95
3, 96000, Note_off_c, 2, 62, 95
3, 96000, Note_off_c, 2, 59, 95
3, 96000, Note_off_c, 2, 55, 95
3, 96000, Note_off_c, 2, 50, 95
3, 96000, Note_off_c, 2, 43, 95
3, 96000, Note_on_c, 2, 65, 95
3, 96000, Note_on_c, 2, 60, 95
3, 96000, Note_on_c, 2, 57, 95
3, 96000, Note_on_c, 2, 53, 95
3, 96000, Note_on_c, 2, 48, 95
3, 96000, Note_on_c, 2, 41, 95
3, 96480, Note_off_c, 2, 65, 95
3, 96480, Note_off_c, 2, 60, 95
3, 96480, Note_off_c, 2, 57, 95
3, 96480, Note_off_c, 2, 53, 95
3, 96480, Note_off_c, 2, 48, 95
3, 96480, Note_off_c, 2, 41, 95
3, 96480, Note_on_c, 2, 64, 95
3, 96480, Note_on_c, 2, 59, 95
3, 96480, Note_on_c, 2, 57, 95
3, 96480, Note_on_c, 2, 53, 95
3, 96480, Note_on_c, 2, 48, 95
3, 96480, Note_on_c, 2, 40, 95
3, 96960, Note_off_c, 2, 64, 95
3, 96960, Note_off_c, 2, 59, 95
3, 96960, Note_off_c, 2, 57, 95
3, 96960, Note_off_c, 2, 53, 95
3, 96960, Note_off_c, 2, 48, 95
3, 96960, Note_off_c, 2, 40, 95
3, 96960, Note_on_c, 2, 65, 95
3, 96960, Note_on_c, 2, 60, 95
3, 96960, Note_on_c, 2, 57, 95
3, 96960, Note_on_c, 2, 53, 95
3, 96960, Note_on_c, 2, 48, 95
3, 96960, Note_on_c, 2, 41, 95
3, 97440, Note_off_c, 2, 65, 95
3, 97440, Note_off_c, 2, 60, 95
3, 97440, Note_off_c, 2, 57, 95
3, 97440, Note_off_c, 2, 53, 95
3, 97440, Note_off_c, 2, 48, 95
3, 97440, Note_off_c, 2, 41, 95
3, 97440, Note_on_c, 2, 64, 95
3, 97440, Note_on_c, 2, 59, 95
3, 97440, Note_on_c, 2, 57, 95
3, 97440, Note_on_c, 2, 53, 95
3, 97440, Note_on_c, 2, 48, 95
3, 97440, Note_on_c, 2, 40, 95
3, 97920, Note_off_c, 2, 64, 95
3, 97920, Note_off_c, 2, 59, 95
3, 97920, Note_off_c, 2, 57, 95
3, 97920, Note_off_c, 2, 53, 95
3, 97920, Note_off_c, 2, 48, 95
3, 97920, Note_off_c, 2, 40, 95
3, 97920, Note_on_c, 2, 65, 95
3, 97920, Note_on_c, 2, 60, 95
3, 97920, Note_on_c, 2, 57, 95
3, 97920, Note_on_c, 2, 53, 95
3, 97920, Note_on_c, 2, 48, 95
3, 97920, Note_on_c, 2, 41, 95
3, 98400, Note_off_c, 2, 65, 95
3, 98400, Note_off_c, 2, 60, 95
3, 98400, Note_off_c, 2, 57, 95
3, 98400, Note_off_c, 2, 53, 95
3, 98400, Note_off_c, 2, 48, 95
3, 98400, Note_off_c, 2, 41, 95
3, 98400, Note_on_c, 2, 64, 95
3, 98400, Note_on_c, 2, 59, 95
3, 98400, Note_on_c, 2, 57, 95
3, 98400, Note_on_c, 2, 53, 95
3, 98400, Note_on_c, 2, 48, 95
3, 98400, Note_on_c, 2, 40, 95
3, 98880, Note_off_c, 2, 64, 95
3, 98880, Note_off_c, 2, 59, 95
3, 98880, Note_off_c, 2, 57, 95
3, 98880, Note_off_c, 2, 53, 95
3, 98880, Note_off_c, 2, 48, 95
3, 98880, Note_off_c, 2, 40, 95
3, 98880, Note_on_c, 2, 65, 95
3, 98880, Note_on_c, 2, 60, 95
3, 98880, Note_on_c, 2, 57, 95
3, 98880, Note_on_c, 2, 53, 95
3, 98880, Note_on_c, 2, 48, 95
3, 98880, Note_on_c, 2, 41, 95
3, 99360, Note_off_c, 2, 65, 95
3, 99360, Note_off_c, 2, 60, 95
3, 99360, Note_off_c, 2, 57, 95
3, 99360, Note_off_c, 2, 53, 95
3, 99360, Note_off_c, 2, 48, 95
3, 99360, Note_off_c, 2, 41, 95
3, 99360, Note_on_c, 2, 67, 95
3, 99360, Note_on_c, 2, 62, 95
3, 99360, Note_on_c, 2, 59, 95
3, 99360, Note_on_c, 2, 55, 95
3, 99360, Note_on_c, 2, 50, 95
3, 99360, Note_on_c, 2, 43, 95
3, 99840, Note_off_c, 2, 67, 95
3, 99840, Note_off_c, 2, 62, 95
3, 99840, Note_off_c, 2, 59, 95
3, 99840, Note_off_c, 2, 55, 95
3, 99840, Note_off_c, 2, 50, 95
3, 99840, Note_off_c, 2, 43, 95
3, 99840, Note_on_c, 2, 69, 95
3, 99840, Note_on_c, 2, 64, 95
3, 99840, Note_on_c, 2, 60, 95
3, 99840, Note_on_c, 2, 57, 95
3, 99840, Note_on_c, 2, 52, 95
3, 99840, Note_on_c, 2, 45, 95
3, 100080, Note_off_c, 2, 69, 95
3, 100080, Note_off_c, 2, 64, 95
3, 100080, Note_off_c, 2, 60, 95
3, 100080, Note_off_c, 2, 57, 95
3, 100080, Note_off_c, 2, 52, 95
3, 100080, Note_off_c, 2, 45, 95
3, 100080, Note_on_c, 2, 69, 95
3, 100080, Note_on_c, 2, 64, 95
3, 100080, Note_on_c, 2, 60, 95
3, 100080, Note_on_c, 2, 57, 95
3, 100080, Note_on_c, 2, 52, 95
3, 100080, Note_on_c, 2, 45, 95
3, 100320, Note_off_c, 2, 69, 95
3, 100320, Note_off_c, 2, 64, 95
3, 100320, Note_off_c, 2, 60, 95
3, 100320, Note_off_c, 2, 57, 95
3, 100320, Note_off_c, 2, 52, 95
3, 100320, Note_off_c, 2, 45, 95
3, 100320, Note_on_c, 2, 69, 95
3, 100320, Note_on_c, 2, 64, 95
3, 100320, Note_on_c, 2, 60, 95
3, 100320, Note_on_c, 2, 57, 95
3, 100320, Note_on_c, 2, 52, 95
3, 100320, Note_on_c, 2, 45, 95
3, 100560, Note_off_c, 2, 69, 95
3, 100560, Note_off_c, 2, 64, 95
3, 100560, Note_off_c, 2, 60, 95
3, 100560, Note_off_c, 2, 57, 95
3, 100560, Note_off_c, 2, 52, 95
3, 100560, Note_off_c, 2, 45, 95
3, 100560, Note_on_c, 2, 69, 95
3, 100560, Note_on_c, 2, 64, 95
3, 100560, Note_on_c, 2, 60, 95
3, 100560, Note_on_c, 2, 57, 95
3, 100560, Note_on_c, 2, 52, 95
3, 100560, Note_on_c, 2, 45, 95
3, 100800, Note_off_c, 2, 69, 95
3, 100800, Note_off_c, 2, 64, 95
3, 100800, Note_off_c, 2, 60, 95
3, 100800, Note_off_c, 2, 57, 95
3, 100800, Note_off_c, 2, 52, 95
3, 100800, Note_off_c, 2, 45, 95
3, 100800, Note_on_c, 2, 69, 95
3, 100800, Note_on_c, 2, 64, 95
3, 100800, Note_on_c, 2, 60, 95
3, 100800, Note_on_c, 2, 57, 95
3, 100800, Note_on_c, 2, 52, 95
3, 100800, Note_on_c, 2, 45, 95
3, 101760, Note_off_c, 2, 69, 95
3, 101760, Note_off_c, 2, 64, 95
3, 101760, Note_off_c, 2, 60, 95
3, 101760, Note_off_c, 2, 57, 95
3, 101760, Note_off_c, 2, 52, 95
3, 101760, Note_off_c, 2, 45, 95
3, 101760, Note_on_c, 2, 67, 95
3, 101760, Note_on_c, 2, 62, 95
3, 101760, Note_on_c, 2, 59, 95
3, 101760, Note_on_c, 2, 55, 95
3, 101760, Note_on_c, 2, 50, 95
3, 101760, Note_on_c, 2, 43, 95
3, 102000, Note_off_c, 2, 67, 95
3, 102000, Note_off_c, 2, 62, 95
3, 102000, Note_off_c, 2, 59, 95
3, 102000, Note_off_c, 2, 55, 95
3, 102000, Note_off_c, 2, 50, 95
3, 102000, Note_off_c, 2, 43, 95
3, 102000, Note_on_c, 2, 67, 95
3, 102000, Note_on_c, 2, 62, 95
3, 102000, Note_on_c, 2, 59, 95
3, 102000, Note_on_c, 2, 55, 95
3, 102000, Note_on_c, 2, 50, 95
3, 102000, Note_on_c, 2, 43, 95
3, 102240, Note_off_c, 2, 67, 95
3, 102240, Note_off_c, 2, 62, 95
3, 102240, Note_off_c, 2, 59, 95
3, 102240, Note_off_c, 2, 55, 95
3, 102240, Note_off_c, 2, 50, 95
3, 102240, Note_off_c, 2, 43, 95
3, 102240, Note_on_c, 2, 67, 95
3, 102240, Note_on_c, 2, 62, 95
3, 102240, Note_on_c, 2, 59, 95
3, 102240, Note_on_c, 2, 55, 95
3, 102240, Note_on_c, 2, 50, 95
3, 102240, Note_on_c, 2, 43, 95
3, 102480, Note_off_c, 2, 67, 95
3, 102480, Note_off_c, 2, 62, 95
3, 102480, Note_off_c, 2, 59, 95
3, 102480, Note_off_c, 2, 55, 95
3, 102480, Note_off_c, 2, 50, 95
3, 102480, Note_off_c, 2, 43, 95
3, 102480, Note_on_c, 2, 67, 95
3, 102480, Note_on_c, 2, 62, 95
3, 102480, Note_on_c, 2, 59, 95
3, 102480, Note_on_c, 2, 55, 95
3, 102480, Note_on_c, 2, 50, 95
3, 102480, Note_on_c, 2, 43, 95
3, 102720, Note_off_c, 2, 67, 95
3, 102720, Note_off_c, 2, 62, 95
3, 102720, Note_off_c, 2, 59, 95
3, 102720, Note_off_c, 2, 55, 95
3, 102720, Note_off_c, 2, 50, 95
3, 102720, Note_off_c, 2, 43, 95
3, 102720, Note_on_c, 2, 67, 95
3, 102720, Note_on_c, 2, 62, 95
3, 102720, Note_on_c, 2, 59, 95
3, 102720, Note_on_c, 2, 55, 95
3, 102720, Note_on_c, 2, 50, 95
3, 102720, Note_on_c, 2, 43, 95
3, 103680, Note_off_c, 2, 67, 95
3, 103680, Note_off_c, 2, 62, 95
3, 103680, Note_off_c, 2, 59, 95
3, 103680, Note_off_c, 2, 55, 95
3, 103680, Note_off_c, 2, 50, 95
3, 103680, Note_off_c, 2, 43, 95
3, 103680, Note_on_c, 2, 65, 95
3, 103680, Note_on_c, 2, 60, 95
3, 103680, Note_on_c, 2, 57, 95
3, 103680, Note_on_c, 2, 53, 95
3, 103680, Note_on_c, 2, 48, 95
3, 103680, Note_on_c, 2, 41, 95
3, 104160, Note_off_c, 2, 65, 95
3, 104160, Note_off_c, 2, 60, 95
3, 104160, Note_off_c, 2, 57, 95
3, 104160, Note_off_c, 2, 53, 95
3, 104160, Note_off_c, 2, 48, 95
3, 104160, Note_off_c, 2, 41, 95
3, 104160, Note_on_c, 2, 64, 95
3, 104160, Note_on_c, 2, 59, 95
3, 104160, Note_on_c, 2, 57, 95
3, 104160, Note_on_c, 2, 53, 95
3, 104160, Note_on_c, 2, 48, 95
3, 104160, Note_on_c, 2, 40, 95
3, 104640, Note_off_c, 2, 64, 95
3, 104640, Note_off_c, 2, 59, 95
3, 104640, Note_off_c, 2, 57, 95
3, 104640, Note_off_c, 2, 53, 95
3, 104640, Note_off_c, 2, 48, 95
3, 104640, Note_off_c, 2, 40, 95
3, 104640, Note_on_c, 2, 65, 95
3, 104640, Note_on_c, 2, 60, 95
3, 104640, Note_on_c, 2, 57, 95
3, 104640, Note_on_c, 2, 53, 95
3, 104640, Note_on_c, 2, 48, 95
3, 104640, Note_on_c, 2, 41, 95
3, 105120, Note_off_c, 2, 65, 95
3, 105120, Note_off_c, 2, 60, 95
3, 105120, Note_off_c, 2, 57, 95
3, 105120, Note_off_c, 2, 53, 95
3, 105120, Note_off_c, 2, 48, 95
3, 105120, Note_off_c, 2, 41, 95
3, 105120, Note_on_c, 2, 64, 95
3, 105120, Note_on_c, 2, 59, 95
3, 105120, Note_on_c, 2, 57, 95
3, 105120, Note_on_c, 2, 53, 95
3, 105120, Note_on_c, 2, 48, 95
3, 105120, Note_on_c, 2, 40, 95
3, 105600, Note_off_c, 2, 64, 95
3, 105600, Note_off_c, 2, 59, 95
3, 105600, Note_off_c, 2, 57, 95
3, 105600, Note_off_c, 2, 53, 95
3, 105600, Note_off_c, 2, 48, 95
3, 105600, Note_off_c, 2, 40, 95
3, 105600, Note_on_c, 2, 65, 95
3, 105600, Note_on_c, 2, 60, 95
3, 105600, Note_on_c, 2, 57, 95
3, 105600, Note_on_c, 2, 53, 95
3, 105600, Note_on_c, 2, 48, 95
3, 105600, Note_on_c, 2, 41, 95
3, 106080, Note_off_c, 2, 65, 95
3, 106080, Note_off_c, 2, 60, 95
3, 106080, Note_off_c, 2, 57, 95
3, 106080, Note_off_c, 2, 53, 95
3, 106080, Note_off_c, 2, 48, 95
3, 106080, Note_off_c, 2, 41, 95
3, 106080, Note_on_c, 2, 64, 95
3, 106080, Note_on_c, 2, 59, 95
3, 106080, Note_on_c, 2, 57, 95
3, 106080, Note_on_c, 2, 53, 95
3, 106080, Note_on_c, 2, 48, 95
3, 106080, Note_on_c, 2, 40, 95
3, 106560, Note_off_c, 2, 64, 95
3, 106560, Note_off_c, 2, 59, 95
3, 106560, Note_off_c, 2, 57, 95
3, 106560, Note_off_c, 2, 53, 95
3, 106560, Note_off_c, 2, 48, 95
3, 106560, Note_off_c, 2, 40, 95
3, 106560, Note_on_c, 2, 65, 95
3, 106560, Note_on_c, 2, 60, 95
3, 106560, Note_on_c, 2, 57, 95
3, 106560, Note_on_c, 2, 53, 95
3, 106560, Note_on_c, 2, 48, 95
3, 106560, Note_on_c, 2, 41, 95
3, 107040, Note_off_c, 2, 65, 95
3, 107040, Note_off_c, 2, 60, 95
3, 107040, Note_off_c, 2, 57, 95
3, 107040, Note_off_c, 2, 53, 95
3, 107040, Note_off_c, 2, 48, 95
3, 107040, Note_off_c, 2, 41, 95
3, 107040, Note_on_c, 2, 67, 95
3, 107040, Note_on_c, 2, 62, 95
3, 107040, Note_on_c, 2, 59, 95
3, 107040, Note_on_c, 2, 55, 95
3, 107040, Note_on_c, 2, 50, 95
3, 107040, Note_on_c, 2, 43, 95
3, 107520, Note_off_c, 2, 67, 95
3, 107520, Note_off_c, 2, 62, 95
3, 107520, Note_off_c, 2, 59, 95
3, 107520, Note_off_c, 2, 55, 95
3, 107520, Note_off_c, 2, 50, 95
3, 107520, Note_off_c, 2, 43, 95
3, 107520, Note_on_c, 2, 69, 95
3, 107520, Note_on_c, 2, 64, 95
3, 107520, Note_on_c, 2, 60, 95
3, 107520, Note_on_c, 2, 57, 95
3, 107520, Note_on_c, 2, 52, 95
3, 107520, Note_on_c, 2, 45, 95
3, 107760, Note_off_c, 2, 69, 95
3, 107760, Note_off_c, 2, 64, 95
3, 107760, Note_off_c, 2, 60, 95
3, 107760, Note_off_c, 2, 57, 95
3, 107760, Note_off_c, 2, 52, 95
3, 107760, Note_off_c, 2, 45, 95
3, 107760, Note_on_c, 2, 69, 95
3, 107760, Note_on_c, 2, 64, 95
3, 107760, Note_on_c, 2, 60, 95
3, 107760, Note_on_c, 2, 57, 95
3, 107760, Note_on_c, 2, 52, 95
3, 107760, Note_on_c, 2, 45, 95
3, 108000, Note_off_c, 2, 69, 95
3, 108000, Note_off_c, 2, 64, 95
3, 108000, Note_off_c, 2, 60, 95
3, 108000, Note_off_c, 2, 57, 95
3, 108000, Note_off_c, 2, 52, 95
3, 108000, Note_off_c, 2, 45, 95
3, 108000, Note_on_c, 2, 69, 95
3, 108000, Note_on_c, 2, 64, 95
3, 108000, Note_on_c, 2, 60, 95
3, 108000, Note_on_c, 2, 57, 95
3, 108000, Note_on_c, 2, 52, 95
3, 108000, Note_on_c, 2, 45, 95
3, 108240, Note_off_c, 2, 69, 95
3, 108240, Note_off_c, 2, 64, 95
3, 108240, Note_off_c, 2, 60, 95
3, 108240, Note_off_c, 2, 57, 95
3, 108240, Note_off_c, 2, 52, 95
3, 108240, Note_off_c, 2, 45, 95
3, 108240, Note_on_c, 2, 69, 95
3, 108240, Note_on_c, 2, 64, 95
3, 108240, Note_on_c, 2, 60, 95
3, 108240, Note_on_c, 2, 57, 95
3, 108240, Note_on_c, 2, 52, 95
3, 108240, Note_on_c, 2, 45, 95
3, 108480, Note_off_c, 2, 69, 95
3, 108480, Note_off_c, 2, 64, 95
3, 108480, Note_off_c, 2, 60, 95
3, 108480, Note_off_c, 2, 57, 95
3, 108480, Note_off_c, 2, 52, 95
3, 108480, Note_off_c, 2, 45, 95
3, 108480, Note_on_c, 2, 69, 95
3, 108480, Note_on_c, 2, 64, 95
3, 108480, Note_on_c, 2, 60, 95
3, 108480, Note_on_c, 2, 57, 95
3, 108480, Note_on_c, 2, 52, 95
3, 108480, Note_on_c, 2, 45, 95
3, 109440, Note_off_c, 2, 69, 95
3, 109440, Note_off_c, 2, 64, 95
3, 109440, Note_off_c, 2, 60, 95
3, 109440, Note_off_c, 2, 57, 95
3, 109440, Note_off_c, 2, 52, 95
3, 109440, Note_off_c, 2, 45, 95
3, 109440, Note_on_c, 2, 67, 95
3, 109440, Note_on_c, 2, 62, 95
3, 109440, Note_on_c, 2, 59, 95
3, 109440, Note_on_c, 2, 55, 95
3, 109440, Note_on_c, 2, 50, 95
3, 109440, Note_on_c, 2, 43, 95
3, 109680, Note_off_c, 2, 67, 95
3, 109680, Note_off_c, 2, 62, 95
3, 109680, Note_off_c, 2, 59, 95
3, 109680, Note_off_c, 2, 55, 95
3, 109680, Note_off_c, 2, 50, 95
3, 109680, Note_off_c, 2, 43, 95
3, 109680, Note_on_c, 2, 67, 95
3, 109680, Note_on_c, 2, 62, 95
3, 109680, Note_on_c, 2, 59, 95
3, 109680, Note_on_c, 2, 55, 95
3, 109680, Note_on_c, 2, 50, 95
3, 109680, Note_on_c, 2, 43, 95
3, 109920, Note_off_c, 2, 67, 95
3, 109920, Note_off_c, 2, 62, 95
3, 109920, Note_off_c, 2, 59, 95
3, 109920, Note_off_c, 2, 55, 95
3, 109920, Note_off_c, 2, 50, 95
3, 109920, Note_off_c, 2, 43, 95
3, 109920, Note_on_c, 2, 67, 95
3, 109920, Note_on_c, 2, 62, 95
3, 109920, Note_on_c, 2, 59, 95
3, 109920, Note_on_c, 2, 55, 95
3, 109920, Note_on_c, 2, 50, 95
3, 109920, Note_on_c, 2, 43, 95
3, 110160, Note_off_c, 2, 67, 95
3, 110160, Note_off_c, 2, 62, 95
3, 110160, Note_off_c, 2, 59, 95
3, 110160, Note_off_c, 2, 55, 95
3, 110160, Note_off_c, 2, 50, 95
3, 110160, Note_off_c, 2, 43, 95
3, 110160, Note_on_c, 2, 67, 95
3, 110160, Note_on_c, 2, 62, 95
3, 110160, Note_on_c, 2, 59, 95
3, 110160, Note_on_c, 2, 55, 95
3, 110160, Note_on_c, 2, 50, 95
3, 110160, Note_on_c, 2, 43, 95
3, 110400, Note_off_c, 2, 67, 95
3, 110400, Note_off_c, 2, 62, 95
3, 110400, Note_off_c, 2, 59, 95
3, 110400, Note_off_c, 2, 55, 95
3, 110400, Note_off_c, 2, 50, 95
3, 110400, Note_off_c, 2, 43, 95
3, 110400, Note_on_c, 2, 67, 95
3, 110400, Note_on_c, 2, 62, 95
3, 110400, Note_on_c, 2, 59, 95
3, 110400, Note_on_c, 2, 55, 95
3, 110400, Note_on_c, 2, 50, 95
3, 110400, Note_on_c, 2, 43, 95
3, 111360, Note_off_c, 2, 67, 95
3, 111360, Note_off_c, 2, 62, 95
3, 111360, Note_off_c, 2, 59, 95
3, 111360, Note_off_c, 2, 55, 95
3, 111360, Note_off_c, 2, 50, 95
3, 111360, Note_off_c, 2, 43, 95
3, 111360, Note_on_c, 2, 65, 95
3, 111360, Note_on_c, 2, 60, 95
3, 111360, Note_on_c, 2, 57, 95
3, 111360, Note_on_c, 2, 53, 95
3, 111360, Note_on_c, 2, 48, 95
3, 111360, Note_on_c, 2, 41, 95
3, 111840, Note_off_c, 2, 65, 95
3, 111840, Note_off_c, 2, 60, 95
3, 111840, Note_off_c, 2, 57, 95
3, 111840, Note_off_c, 2, 53, 95
3, 111840, Note_off_c, 2, 48, 95
3, 111840, Note_off_c, 2, 41, 95
3, 111840, Note_on_c, 2, 64, 95
3, 111840, Note_on_c, 2, 59, 95
3, 111840, Note_on_c, 2, 57, 95
3, 111840, Note_on_c, 2, 53, 95
3, 111840, Note_on_c, 2, 48, 95
3, 111840, Note_on_c, 2, 40, 95
3, 112320, Note_off_c, 2, 64, 95
3, 112320, Note_off_c, 2, 59, 95
3, 112320, Note_off_c, 2, 57, 95
3, 112320, Note_off_c, 2, 53, 95
3, 112320, Note_off_c, 2, 48, 95
3, 112320, Note_off_c, 2, 40, 95
3, 112320, Note_on_c, 2, 65, 95
3, 112320, Note_on_c, 2, 60, 95
3, 112320, Note_on_c, 2, 57, 95
3, 112320, Note_on_c, 2, 53, 95
3, 112320, Note_on_c, 2, 48, 95
3, 112320, Note_on_c, 2, 41, 95
3, 112800, Note_off_c, 2, 65, 95
3, 112800, Note_off_c, 2, 60, 95
3, 112800, Note_off_c, 2, 57, 95
3, 112800, Note_off_c, 2, 53, 95
3, 112800, Note_off_c, 2, 48, 95
3, 112800, Note_off_c, 2, 41, 95
3, 112800, Note_on_c, 2, 64, 95
3, 112800, Note_on_c, 2, 59, 95
3, 112800, Note_on_c, 2, 57, 95
3, 112800, Note_on_c, 2, 53, 95
3, 112800, Note_on_c, 2, 48, 95
3, 112800, Note_on_c, 2, 40, 95
3, 113280, Note_off_c, 2, 64, 95
3, 113280, Note_off_c, 2, 59, 95
3, 113280, Note_off_c, 2, 57, 95
3, 113280, Note_off_c, 2, 53, 95
3, 113280, Note_off_c, 2, 48, 95
3, 113280, Note_off_c, 2, 40, 95
3, 113280, Note_on_c, 2, 65, 95
3, 113280, Note_on_c, 2, 60, 95
3, 113280, Note_on_c, 2, 57, 95
3, 113280, Note_on_c, 2, 53, 95
3, 113280, Note_on_c, 2, 48, 95
3, 113280, Note_on_c, 2, 41, 95
3, 113760, Note_off_c, 2, 65, 95
3, 113760, Note_off_c, 2, 60, 95
3, 113760, Note_off_c, 2, 57, 95
3, 113760, Note_off_c, 2, 53, 95
3, 113760, Note_off_c, 2, 48, 95
3, 113760, Note_off_c, 2, 41, 95
3, 113760, Note_on_c, 2, 64, 95
3, 113760, Note_on_c, 2, 59, 95
3, 113760, Note_on_c, 2, 57, 95
3, 113760, Note_on_c, 2, 53, 95
3, 113760, Note_on_c, 2, 48, 95
3, 113760, Note_on_c, 2, 40, 95
3, 114240, Note_off_c, 2, 64, 95
3, 114240, Note_off_c, 2, 59, 95
3, 114240, Note_off_c, 2, 57, 95
3, 114240, Note_off_c, 2, 53, 95
3, 114240, Note_off_c, 2, 48, 95
3, 114240, Note_off_c, 2, 40, 95
3, 114240, Note_on_c, 2, 65, 95
3, 114240, Note_on_c, 2, 60, 95
3, 114240, Note_on_c, 2, 57, 95
3, 114240, Note_on_c, 2, 53, 95
3, 114240, Note_on_c, 2, 48, 95
3, 114240, Note_on_c, 2, 41, 95
3, 114720, Note_off_c, 2, 65, 95
3, 114720, Note_off_c, 2, 60, 95
3, 114720, Note_off_c, 2, 57, 95
3, 114720, Note_off_c, 2, 53, 95
3, 114720, Note_off_c, 2, 48, 95
3, 114720, Note_off_c, 2, 41, 95
3, 114720, Note_on_c, 2, 67, 95
3, 114720, Note_on_c, 2, 62, 95
3, 114720, Note_on_c, 2, 59, 95
3, 114720, Note_on_c, 2, 55, 95
3, 114720, Note_on_c, 2, 50, 95
3, 114720, Note_on_c, 2, 43, 95
3, 115200, Note_off_c, 2, 67, 95
3, 115200, Note_off_c, 2, 62, 95
3, 115200, Note_off_c, 2, 59, 95
3, 115200, Note_off_c, 2, 55, 95
3, 115200, Note_off_c, 2, 50, 95
3, 115200, Note_off_c, 2, 43, 95
3, 115200, Note_on_c, 2, 66, 95
3, 115200, Note_on_c, 2, 62, 95
3, 115200, Note_on_c, 2, 57, 95
3, 115200, Note_on_c, 2, 50, 95
3, 115680, Note_off_c, 2, 66, 95
3, 115680, Note_off_c, 2, 62, 95
3, 115680, Note_off_c, 2, 57, 95
3, 115680, Note_off_c, 2, 50, 95
3, 115680, Note_on_c, 2, 66, 95
3, 115680, Note_on_c, 2, 62, 95
3, 115680, Note_on_c, 2, 57, 95
3, 115680, Note_on_c, 2, 50, 95
3, 116160, Note_off_c, 2, 66, 95
3, 116160, Note_off_c, 2, 62, 95
3, 116160, Note_off_c, 2, 57, 95
3, 116160, Note_off_c, 2, 50, 95
3, 116160, Note_on_c, 2, 66, 95
3, 116160, Note_on_c, 2, 62, 95
3, 116160, Note_on_c, 2, 57, 95
3, 116160, Note_on_c, 2, 50, 95
3, 116640, Note_off_c, 2, 66, 95
3, 116640, Note_off_c, 2, 62, 95
3, 116640, Note_off_c, 2, 57, 95
3, 116640, Note_off_c, 2, 50, 95
3, 116640, Note_on_c, 2, 59, 95
3, 116640, Note_on_c, 2, 55, 95
3, 116640, Note_on_c, 2, 50, 95
3, 116640, Note_on_c, 2, 45, 95
3, 116680, Note_off_c, 2, 59, 95
3, 116680, Note_off_c, 2, 55, 95
3, 116680, Note_off_c, 2, 50, 95
3, 116680, Note_off_c, 2, 45, 95
3, 117120, Note_on_c, 2, 66, 95
3, 117120, Note_on_c, 2, 62, 95
3, 117120, Note_on_c, 2, 57, 95
3, 117120, Note_on_c, 2, 50, 95
3, 118080, Note_off_c, 2, 66, 95
3, 118080, Note_off_c, 2, 62, 95
3, 118080, Note_off_c, 2, 57, 95
3, 118080, Note_off_c, 2, 50, 95
3, 118080, Note_on_c, 2, 66, 95
3, 118080, Note_on_c, 2, 62, 95
3, 118080, Note_on_c, 2, 57, 95
3, 118080, Note_on_c, 2, 50, 95
3, 118560, Note_off_c, 2, 66, 95
3, 118560, Note_off_c, 2, 62, 95
3, 118560, Note_off_c, 2, 57, 95
3, 118560, Note_off_c, 2, 50, 95
3, 118560, Note_on_c, 2, 66, 95
3, 118560, Note_on_c, 2, 62, 95
3, 118560, Note_on_c, 2, 57, 95
3, 118560, Note_on_c, 2, 50, 95
3, 118800, Note_off_c, 2, 66, 95
3, 118800, Note_off_c, 2, 62, 95
3, 118800, Note_off_c, 2, 57, 95
3, 118800, Note_off_c, 2, 50, 95
3, 118800, Note_on_c, 2, 66, 95
3, 118800, Note_on_c, 2, 62, 95
3, 118800, Note_on_c, 2, 57, 95
3, 118800, Note_on_c, 2, 50, 95
3, 119040, Note_off_c, 2, 66, 95
3, 119040, Note_off_c, 2, 62, 95
3, 119040, Note_off_c, 2, 57, 95
3, 119040, Note_off_c, 2, 50, 95
3, 119040, Note_on_c, 2, 64, 95
3, 119040, Note_on_c, 2, 59, 95
3, 119040, Note_on_c, 2, 56, 95
3, 119040, Note_on_c, 2, 52, 95
3, 119040, Note_on_c, 2, 47, 95
3, 119040, Note_on_c, 2, 40, 95
3, 119280, Note_off_c, 2, 64, 95
3, 119280, Note_off_c, 2, 59, 95
3, 119280, Note_off_c, 2, 56, 95
3, 119280, Note_off_c, 2, 52, 95
3, 119280, Note_off_c, 2, 47, 95
3, 119280, Note_off_c, 2, 40, 95
3, 119280, Note_on_c, 2, 64, 95
3, 119280, Note_on_c, 2, 59, 95
3, 119280, Note_on_c, 2, 56, 95
3, 119280, Note_on_c, 2, 52, 95
3, 119280, Note_on_c, 2, 47, 95
3, 119280, Note_on_c, 2, 40, 95
3, 119760, Note_off_c, 2, 64, 95
3, 119760, Note_off_c, 2, 59, 95
3, 119760, Note_off_c, 2, 56, 95
3, 119760, Note_off_c, 2, 52, 95
3, 119760, Note_off_c, 2, 47, 95
3, 119760, Note_off_c, 2, 40, 95
3, 119760, Note_on_c, 2, 64, 95
3, 119760, Note_on_c, 2, 59, 95
3, 119760, Note_on_c, 2, 55, 95
3, 119760, Note_on_c, 2, 50, 95
3, 119760, Note_on_c, 2, 45, 95
3, 119760, Note_on_c, 2, 40, 95
3, 119800, Note_off_c, 2, 64, 95
3, 119800, Note_off_c, 2, 59, 95
3, 119800, Note_off_c, 2, 55, 95
3, 119800, Note_off_c, 2, 50, 95
3, 119800, Note_off_c, 2, 45, 95
3, 119800, Note_off_c, 2, 40, 95
3, 120000, Note_on_c, 2, 64, 95
3, 120000, Note_on_c, 2, 59, 95
3, 120000, Note_on_c, 2, 56, 95
3, 120000, Note_on_c, 2, 52, 95
3, 120000, Note_on_c, 2, 47, 95
3, 120000, Note_on_c, 2, 40, 95
3, 120480, Note_off_c, 2, 64, 95
3, 120480, Note_off_c, 2, 59, 95
3, 120480, Note_off_c, 2, 56, 95
3, 120480, Note_off_c, 2, 52, 95
3, 120480, Note_off_c, 2, 47, 95
3, 120480, Note_off_c, 2, 40, 95
3, 120480, Note_on_c, 2, 64, 95
3, 120480, Note_on_c, 2, 59, 95
3, 120480, Note_on_c, 2, 55, 95
3, 120480, Note_on_c, 2, 50, 95
3, 120480, Note_on_c, 2, 45, 95
3, 120480, Note_on_c, 2, 40, 95
3, 120520, Note_off_c, 2, 64, 95
3, 120520, Note_off_c, 2, 59, 95
3, 120520, Note_off_c, 2, 55, 95
3, 120520, Note_off_c, 2, 50, 95
3, 120520, Note_off_c, 2, 45, 95
3, 120520, Note_off_c, 2, 40, 95
3, 120720, Note_on_c, 2, 64, 95
3, 120720, Note_on_c, 2, 59, 95
3, 120720, Note_on_c, 2, 56, 95
3, 120720, Note_on_c, 2, 52, 95
3, 120720, Note_on_c, 2, 47, 95
3, 120720, Note_on_c, 2, 40, 95
3, 121200, Note_off_c, 2, 64, 95
3, 121200, Note_off_c, 2, 59, 95
3, 121200, Note_off_c, 2, 56, 95
3, 121200, Note_off_c, 2, 52, 95
3, 121200, Note_off_c, 2, 47, 95
3, 121200, Note_off_c, 2, 40, 95
3, 121200, Note_on_c, 2, 64, 95
3, 121200, Note_on_c, 2, 59, 95
3, 121200, Note_on_c, 2, 55, 95
3, 121200, Note_on_c, 2, 50, 95
3, 121200, Note_on_c, 2, 45, 95
3, 121200, Note_on_c, 2, 40, 95
3, 121240, Note_off_c, 2, 64, 95
3, 121240, Note_off_c, 2, 59, 95
3, 121240, Note_off_c, 2, 55, 95
3, 121240, Note_off_c, 2, 50, 95
3, 121240, Note_off_c, 2, 45, 95
3, 121240, Note_off_c, 2, 40, 95
3, 121440, Note_on_c, 2, 64, 95
3, 121440, Note_on_c, 2, 59, 95
3, 121440, Note_on_c, 2, 56, 95
3, 121440, Note_on_c, 2, 52, 95
3, 121440, Note_on_c, 2, 47, 95
3, 121440, Note_on_c, 2, 40, 95
3, 121920, Note_off_c, 2, 64, 95
3, 121920, Note_off_c, 2, 59, 95
3, 121920, Note_off_c, 2, 56, 95
3, 121920, Note_off_c, 2, 52, 95
3, 121920, Note_off_c, 2, 47, 95
3, 121920, Note_off_c, 2, 40, 95
3, 121920, Note_on_c, 2, 64, 95
3, 121920, Note_on_c, 2, 59, 95
3, 121920, Note_on_c, 2, 55, 95
3, 121920, Note_on_c, 2, 50, 95
3, 121920, Note_on_c, 2, 45, 95
3, 121920, Note_on_c, 2, 40, 95
3, 121960, Note_off_c, 2, 64, 95
3, 121960, Note_off_c, 2, 59, 95
3, 121960, Note_off_c, 2, 55, 95
3, 121960, Note_off_c, 2, 50, 95
3, 121960, Note_off_c, 2, 45, 95
3, 121960, Note_off_c, 2, 40, 95
3, 122160, Note_on_c, 2, 64, 95
3, 122160, Note_on_c, 2, 59, 95
3, 122160, Note_on_c, 2, 56, 95
3, 122160, Note_on_c, 2, 52, 95
3, 122160, Note_on_c, 2, 47, 95
3, 122160, Note_on_c, 2, 40, 95
3, 122400, Note_off_c, 2, 64, 95
3, 122400, Note_off_c, 2, 59, 95
3, 122400, Note_off_c, 2, 56, 95
3, 122400, Note_off_c, 2, 52, 95
3, 122400, Note_off_c, 2, 47, 95
3, 122400, Note_off_c, 2, 40, 95
3, 122400, Note_on_c, 2, 64, 95
3, 122400, Note_on_c, 2, 55, 95
3, 122400, Note_on_c, 2, 50, 95
3, 122400, Note_on_c, 2, 45, 95
3, 122400, Note_on_c, 2, 40, 95
3, 122440, Note_off_c, 2, 64, 95
3, 122440, Note_off_c, 2, 55, 95
3, 122440, Note_off_c, 2, 50, 95
3, 122440, Note_off_c, 2, 45, 95
3, 122440, Note_off_c, 2, 40, 95
3, 122640, Note_on_c, 2, 64, 95
3, 122640, Note_on_c, 2, 59, 95
3, 122640, Note_on_c, 2, 55, 95
3, 122640, Note_on_c, 2, 50, 95
3, 122640, Note_on_c, 2, 45, 95
3, 122640, Note_on_c, 2, 40, 95
3, 122680, Note_off_c, 2, 64, 95
3, 122680, Note_off_c, 2, 59, 95
3, 122680, Note_off_c, 2, 55, 95
3, 122680, Note_off_c, 2, 50, 95
3, 122680, Note_off_c, 2, 45, 95
3, 122680, Note_off_c, 2, 40, 95
3, 122880, Note_on_c, 2, 67, 95
3, 122880, Note_on_c, 2, 62, 95
3, 122880, Note_on_c, 2, 55, 95
3, 122880, Note_on_c, 2, 50, 95
3, 122880, Note_on_c, 2, 43, 95
3, 123840, Note_off_c, 2, 67, 95
3, 123840, Note_off_c, 2, 62, 95
3, 123840, Note_off_c, 2, 55, 95
3, 123840, Note_off_c, 2, 50, 95
3, 123840, Note_off_c, 2, 43, 95
3, 123840, Note_on_c, 2, 67, 95
3, 123840, Note_on_c, 2, 62, 95
3, 123840, Note_on_c, 2, 55, 95
3, 123840, Note_on_c, 2, 50, 95
3, 123840, Note_on_c, 2, 43, 95
3, 124320, Note_off_c, 2, 67, 95
3, 124320, Note_off_c, 2, 62, 95
3, 124320, Note_off_c, 2, 55, 95
3, 124320, Note_off_c, 2, 50, 95
3, 124320, Note_off_c, 2, 43, 95
3, 124320, Note_on_c, 2, 64, 95
3, 124320, Note_on_c, 2, 59, 95
3, 124320, Note_on_c, 2, 55, 95
3, 124320, Note_on_c, 2, 50, 95
3, 124320, Note_on_c, 2, 40, 95
3, 124360, Note_off_c, 2, 64, 95
3, 124360, Note_off_c, 2, 59, 95
3, 124360, Note_off_c, 2, 55, 95
3, 124360, Note_off_c, 2, 50, 95
3, 124360, Note_off_c, 2, 40, 95
3, 124800, Note_on_c, 2, 66, 95
3, 124800, Note_on_c, 2, 62, 95
3, 124800, Note_on_c, 2, 57, 95
3, 124800, Note_on_c, 2, 50, 95
3, 125040, Note_off_c, 2, 66, 95
3, 125040, Note_on_c, 2, 67, 95
3, 125280, Note_off_c, 2, 67, 95
3, 125280, Note_on_c, 2, 66, 95
3, 125520, Note_off_c, 2, 66, 95
3, 125520, Note_on_c, 2, 67, 95
3, 125760, Note_off_c, 2, 62, 95
3, 125760, Note_off_c, 2, 57, 95
3, 125760, Note_off_c, 2, 50, 95
3, 125760, Note_off_c, 2, 67, 95
3, 125760, Note_on_c, 2, 66, 95
3, 126240, Note_off_c, 2, 66, 95
3, 126240, Note_on_c, 3, 62, 95
3, 126360, Pitch_bend_c, 3, 6528
3, 126480, Pitch_bend_c, 3, 4736
3, 126480, Pitch_bend_c, 3, 8192
3, 126480, Note_off_c, 3, 62, 95
3, 126480, Note_on_c, 2, 57, 95
3, 126720, Note_off_c, 2, 57, 95
3, 126720, Note_on_c, 2, 62, 95
3, 126720, Note_on_c, 2, 55, 95
3, 126720, Note_on_c, 2, 48, 95
3, 128160, Note_off_c, 2, 62, 95
3, 128160, Note_off_c, 2, 55, 95
3, 128160, Note_off_c, 2, 48, 95
3, 128160, Note_on_c, 2, 67, 95
3, 128160, Note_on_c, 2, 62, 95
3, 128160, Note_on_c, 2, 55, 95
3, 128160, Note_on_c, 2, 47, 95
3, 129600, Note_off_c, 2, 67, 95
3, 129600, Note_off_c, 2, 62, 95
3, 129600, Note_off_c, 2, 55, 95
3, 129600, Note_off_c, 2, 47, 95
3, 129600, Note_on_c, 2, 67, 95
3, 129600, Note_on_c, 2, 62, 95
3, 129600, Note_on_c, 2, 55, 95
3, 129600, Note_on_c, 2, 52, 95
3, 129600, Note_on_c, 2, 45, 95
3, 130560, Note_off_c, 2, 67, 95
3, 130560, Note_off_c, 2, 62, 95
3, 130560, Note_off_c, 2, 55, 95
3, 130560, Note_off_c, 2, 52, 95
3, 130560, Note_off_c, 2, 45, 95
3, 130560, Note_on_c, 2, 67, 95
3, 130560, Note_on_c, 2, 62, 95
3, 130560, Note_on_c, 2, 55, 95
3, 130560, Note_on_c, 2, 50, 95
3, 130560, Note_on_c, 2, 43, 95
3, 131520, Note_off_c, 2, 67, 95
3, 131520, Note_off_c, 2, 62, 95
3, 131520, Note_off_c, 2, 55, 95
3, 131520, Note_off_c, 2, 50, 95
3, 131520, Note_off_c, 2, 43, 95
3, 131520, Note_on_c, 2, 64, 95
3, 131520, Note_on_c, 2, 59, 95
3, 131520, Note_on_c, 2, 55, 95
3, 131520, Note_on_c, 2, 50, 95
3, 131520, Note_on_c, 2, 40, 95
3, 131560, Note_off_c, 2, 64, 95
3, 131560, Note_off_c, 2, 59, 95
3, 131560, Note_off_c, 2, 55, 95
3, 131560, Note_off_c, 2, 50, 95
3, 131560, Note_off_c, 2, 40, 95
3, 132000, Note_on_c, 2, 64, 95
3, 132000, Note_on_c, 2, 59, 95
3, 132000, Note_on_c, 2, 55, 95
3, 132000, Note_on_c, 2, 50, 95
3, 132000, Note_on_c, 2, 40, 95
3, 132040, Note_off_c, 2, 64, 95
3, 132040, Note_off_c, 2, 59, 95
3, 132040, Note_off_c, 2, 55, 95
3, 132040, Note_off_c, 2, 50, 95
3, 132040, Note_off_c, 2, 40, 95
3, 132480, Note_on_c, 2, 66, 95
3, 132480, Note_on_c, 2, 62, 95
3, 132480, Note_on_c, 2, 57, 95
3, 132480, Note_on_c, 2, 50, 95
3, 132720, Note_off_c, 2, 66, 95
3, 132720, Note_on_c, 2, 67, 95
3, 132960, Note_off_c, 2, 67, 95
3, 132960, Note_on_c, 2, 66, 95
3, 133200, Note_off_c, 2, 66, 95
3, 133200, Note_on_c, 2, 67, 95
3, 133440, Note_off_c, 2, 62, 95
3, 133440, Note_off_c, 2, 57, 95
3, 133440, Note_off_c, 2, 50, 95
3, 133440, Note_off_c, 2, 67, 95
3, 133440, Note_on_c, 2, 66, 95
3, 133920, Note_off_c, 2, 66, 95
3, 133920, Note_on_c, 3, 62, 95
3, 134040, Pitch_bend_c, 3, 6528
3, 134160, Pitch_bend_c, 3, 4736
3, 134160, Pitch_bend_c, 3, 8192
3, 134160, Note_off_c, 3, 62, 95
3, 134160, Note_on_c, 2, 57, 47
3, 134400, Note_off_c, 2, 57, 47
3, 134400, Note_on_c, 2, 62, 95
3, 134400, Note_on_c, 2, 55, 95
3, 134400, Note_on_c, 2, 48, 95
3, 135840, Note_off_c, 2, 62, 95
3, 135840, Note_off_c, 2, 55, 95
3, 135840, Note_off_c, 2, 48, 95
3, 135840, Note_on_c, 2, 67, 95
3, 135840, Note_on_c, 2, 62, 95
3, 135840, Note_on_c, 2, 55, 95
3, 135840, Note_on_c, 2, 47, 95
3, 137280, Note_off_c, 2, 67, 95
3, 137280, Note_off_c, 2, 62, 95
3, 137280, Note_off_c, 2, 55, 95
3, 137280, Note_off_c, 2, 47, 95
3, 137280, Note_on_c, 2, 67, 95
3, 137280, Note_on_c, 2, 62, 95
3, 137280, Note_on_c, 2, 55, 95
3, 137280, Note_on_c, 2, 52, 95
3, 137280, Note_on_c, 2, 45, 95
3, 138240, Note_off_c, 2, 67, 95
3, 138240, Note_off_c, 2, 62, 95
3, 138240, Note_off_c, 2, 55, 95
3, 138240, Note_off_c, 2, 52, 95
3, 138240, Note_off_c, 2, 45, 95
3, 138240, Note_on_c, 2, 67, 95
3, 138240, Note_on_c, 2, 62, 95
3, 138240, Note_on_c, 2, 55, 95
3, 138240, Note_on_c, 2, 50, 95
3, 138240, Note_on_c, 2, 43, 95
3, 140160, Note_off_c, 2, 67, 95
3, 140160, Note_off_c, 2, 62, 95
3, 140160, Note_off_c, 2, 55, 95
3, 140160, Note_off_c, 2, 50, 95
3, 140160, Note_off_c, 2, 43, 95
3, 142080, Note_on_c, 2, 66, 95
3, 144960, Note_off_c, 2, 66, 95
3, 145440, Note_on_c, 2, 66, 95
3, 145920, Note_off_c, 2, 66, 95
3, 145920, Note_on_c, 2, 64, 95
3, 147840, Note_off_c, 2, 64, 95
3, 147840, Note_on_c, 2, 48, 95
3, 148320, Note_off_c, 2, 48, 95
3, 148320, Note_on_c, 2, 47, 95
3, 148800, Note_off_c, 2, 47, 95
3, 148800, Note_on_c, 2, 48, 95
3, 149280, Note_off_c, 2, 48, 95
3, 149280, Note_on_c, 2, 49, 95
3, 149760, Note_off_c, 2, 49, 95
3, 149760, Note_on_c, 2, 50, 95
3, 150600, Note_on_c, 3, 50, 95
3, 150720, Note_off_c, 2, 50, 95
3, 150720, Note_off_c, 3, 50, 95
3, 150720, Note_on_c, 3, 52, 95
3, 151200, Note_off_c, 3, 52, 95
3, 151200, Note_on_c, 2, 50, 95
3, 152040, Note_on_c, 3, 45, 95
3, 152160, Note_off_c, 2, 50, 95
3, 152160, Note_off_c, 3, 45, 95
3, 152160, Note_on_c, 3, 47, 95
3, 152640, Note_off_c, 3, 47, 95
3, 152640, Note_on_c, 2, 45, 95
3, 153600, Note_off_c, 2, 45, 95
3, 153600, Note_on_c, 2, 43, 95
3, 156480, Note_off_c, 2, 43, 95
3, 156480, Note_on_c, 2, 42, 95
3, 157440, Note_off_c, 2, 42, 95
3, 157440, Note_on_c, 2, 47, 95
3, 157440, Note_on_c, 2, 40, 95
3, 159360, Note_off_c, 2, 47, 95
3, 159360, Note_off_c, 2, 40, 95
3, 159360, Note_on_c, 2, 47, 95
3, 159360, Note_on_c, 2, 40, 95
3, 161280, Note_off_c, 2, 47, 95
3, 161280, Note_off_c, 2, 40, 95
3, 161280, Note_on_c, 2, 52, 95
3, 161280, Note_on_c, 2, 45, 95
3, 164640, Note_off_c, 2, 52, 95
3, 164640, Note_off_c, 2, 45, 95
3, 164640, Note_on_c, 2, 50, 95
3, 164640, Note_on_c, 2, 45, 95
3, 164680, Note_off_c, 2, 50, 95
3, 164680, Note_off_c, 2, 45, 95
3, 164880, Note_on_c, 2, 50, 95
3, 164880, Note_on_c, 2, 45, 95
3, 164920, Note_off_c, 2, 50, 95
3, 164920, Note_off_c, 2, 45, 95
3, 165120, Note_on_c, 2, 60, 95
3, 165120, Note_on_c, 2, 55, 95
3, 165120, Note_on_c, 2, 48, 95
3, 167040, Note_off_c, 2, 60, 95
3, 167040, Note_off_c, 2, 55, 95
3, 167040, Note_off_c, 2, 48, 95
3, 167040, Note_on_c, 2, 60, 95
3, 167040, Note_on_c, 2, 55, 95
3, 167040, Note_on_c, 2, 48, 95
3, 167280, Note_off_c, 2, 60, 95
3, 167280, Note_off_c, 2, 55, 95
3, 167280, Note_off_c, 2, 48, 95
3, 167280, Note_on_c, 2, 60, 95
3, 167280, Note_on_c, 2, 55, 95
3, 167280, Note_on_c, 2, 48, 95
3, 167520, Note_off_c, 2, 60, 95
3, 167520, Note_off_c, 2, 55, 95
3, 167520, Note_off_c, 2, 48, 95
3, 167520, Note_on_c, 2, 60, 95
3, 167520, Note_on_c, 2, 55, 95
3, 167520, Note_on_c, 2, 48, 95
3, 167760, Note_off_c, 2, 60, 95
3, 167760, Note_off_c, 2, 55, 95
3, 167760, Note_off_c, 2, 48, 95
3, 167760, Note_on_c, 2, 60, 95
3, 167760, Note_on_c, 2, 55, 95
3, 167760, Note_on_c, 2, 48, 95
3, 168000, Note_off_c, 2, 60, 95
3, 168000, Note_off_c, 2, 55, 95
3, 168000, Note_off_c, 2, 48, 95
3, 168000, Note_on_c, 2, 60, 95
3, 168000, Note_on_c, 2, 55, 95
3, 168000, Note_on_c, 2, 48, 95
3, 168480, Note_off_c, 2, 60, 95
3, 168480, Note_off_c, 2, 55, 95
3, 168480, Note_off_c, 2, 48, 95
3, 168480, Note_on_c, 2, 60, 95
3, 168480, Note_on_c, 2, 55, 95
3, 168480, Note_on_c, 2, 48, 95
3, 168960, Note_off_c, 2, 60, 95
3, 168960, Note_off_c, 2, 55, 95
3, 168960, Note_off_c, 2, 48, 95
3, 168960, Note_on_c, 2, 69, 95
3, 168960, Note_on_c, 2, 64, 95
3, 168960, Note_on_c, 2, 60, 95
3, 168960, Note_on_c, 2, 57, 95
3, 168960, Note_on_c, 2, 52, 95
3, 168960, Note_on_c, 2, 45, 95
3, 169200, Note_off_c, 2, 69, 95
3, 169200, Note_off_c, 2, 64, 95
3, 169200, Note_off_c, 2, 60, 95
3, 169200, Note_off_c, 2, 57, 95
3, 169200, Note_off_c, 2, 52, 95
3, 169200, Note_off_c, 2, 45, 95
3, 169200, Note_on_c, 2, 69, 95
3, 169200, Note_on_c, 2, 64, 95
3, 169200, Note_on_c, 2, 60, 95
3, 169200, Note_on_c, 2, 57, 95
3, 169200, Note_on_c, 2, 52, 95
3, 169200, Note_on_c, 2, 45, 95
3, 169440, Note_off_c, 2, 69, 95
3, 169440, Note_off_c, 2, 64, 95
3, 169440, Note_off_c, 2, 60, 95
3, 169440, Note_off_c, 2, 57, 95
3, 169440, Note_off_c, 2, 52, 95
3, 169440, Note_off_c, 2, 45, 95
3, 169440, Note_on_c, 2, 69, 95
3, 169440, Note_on_c, 2, 64, 95
3, 169440, Note_on_c, 2, 60, 95
3, 169440, Note_on_c, 2, 57, 95
3, 169440, Note_on_c, 2, 52, 95
3, 169440, Note_on_c, 2, 45, 95
3, 169680, Note_off_c, 2, 69, 95
3, 169680, Note_off_c, 2, 64, 95
3, 169680, Note_off_c, 2, 60, 95
3, 169680, Note_off_c, 2, 57, 95
3, 169680, Note_off_c, 2, 52, 95
3, 169680, Note_off_c, 2, 45, 95
3, 169680, Note_on_c, 2, 69, 95
3, 169680, Note_on_c, 2, 64, 95
3, 169680, Note_on_c, 2, 60, 95
3, 169680, Note_on_c, 2, 57, 95
3, 169680, Note_on_c, 2, 52, 95
3, 169680, Note_on_c, 2, 45, 95
3, 169920, Note_off_c, 2, 69, 95
3, 169920, Note_off_c, 2, 64, 95
3, 169920, Note_off_c, 2, 60, 95
3, 169920, Note_off_c, 2, 57, 95
3, 169920, Note_off_c, 2, 52, 95
3, 169920, Note_off_c, 2, 45, 95
3, 169920, Note_on_c, 2, 69, 95
3, 169920, Note_on_c, 2, 64, 95
3, 169920, Note_on_c, 2, 60, 95
3, 169920, Note_on_c, 2, 57, 95
3, 169920, Note_on_c, 2, 52, 95
3, 169920, Note_on_c, 2, 45, 95
3, 170880, Note_off_c, 2, 69, 95
3, 170880, Note_off_c, 2, 64, 95
3, 170880, Note_off_c, 2, 60, 95
3, 170880, Note_off_c, 2, 57, 95
3, 170880, Note_off_c, 2, 52, 95
3, 170880, Note_off_c, 2, 45, 95
3, 170880, Note_on_c, 2, 67, 95
3, 170880, Note_on_c, 2, 62, 95
3, 170880, Note_on_c, 2, 59, 95
3, 170880, Note_on_c, 2, 55, 95
3, 170880, Note_on_c, 2, 50, 95
3, 170880, Note_on_c, 2, 43, 95
3, 171120, Note_off_c, 2, 67, 95
3, 171120, Note_off_c, 2, 62, 95
3, 171120, Note_off_c, 2, 59, 95
3, 171120, Note_off_c, 2, 55, 95
3, 171120, Note_off_c, 2, 50, 95
3, 171120, Note_off_c, 2, 43, 95
3, 171120, Note_on_c, 2, 67, 95
3, 171120, Note_on_c, 2, 62, 95
3, 171120, Note_on_c, 2, 59, 95
3, 171120, Note_on_c, 2, 55, 95
3, 171120, Note_on_c, 2, 50, 95
3, 171120, Note_on_c, 2, 43, 95
3, 171360, Note_off_c, 2, 67, 95
3, 171360, Note_off_c, 2, 62, 95
3, 171360, Note_off_c, 2, 59, 95
3, 171360, Note_off_c, 2, 55, 95
3, 171360, Note_off_c, 2, 50, 95
3, 171360, Note_off_c, 2, 43, 95
3, 171360, Note_on_c, 2, 67, 95
3, 171360, Note_on_c, 2, 62, 95
3, 171360, Note_on_c, 2, 59, 95
3, 171360, Note_on_c, 2, 55, 95
3, 171360, Note_on_c, 2, 50, 95
3, 171360, Note_on_c, 2, 43, 95
3, 171600, Note_off_c, 2, 67, 95
3, 171600, Note_off_c, 2, 62, 95
3, 171600, Note_off_c, 2, 59, 95
3, 171600, Note_off_c, 2, 55, 95
3, 171600, Note_off_c, 2, 50, 95
3, 171600, Note_off_c, 2, 43, 95
3, 171600, Note_on_c, 2, 67, 95
3, 171600, Note_on_c, 2, 62, 95
3, 171600, Note_on_c, 2, 59, 95
3, 171600, Note_on_c, 2, 55, 95
3, 171600, Note_on_c, 2, 50, 95
3, 171600, Note_on_c, 2, 43, 95
3, 171840, Note_off_c, 2, 67, 95
3, 171840, Note_off_c, 2, 62, 95
3, 171840, Note_off_c, 2, 59, 95
3, 171840, Note_off_c, 2, 55, 95
3, 171840, Note_off_c, 2, 50, 95
3, 171840, Note_off_c, 2, 43, 95
3, 171840, Note_on_c, 2, 67, 95
3, 171840, Note_on_c, 2, 62, 95
3, 171840, Note_on_c, 2, 59, 95
3, 171840, Note_on_c, 2, 55, 95
3, 171840, Note_on_c, 2, 50, 95
3, 171840, Note_on_c, 2, 43, 95
3, 172800, Note_off_c, 2, 67, 95
3, 172800, Note_off_c, 2, 62, 95
3, 172800, Note_off_c, 2, 59, 95
3, 172800, Note_off_c, 2, 55, 95
3, 172800, Note_off_c, 2, 50, 95
3, 172800, Note_off_c, 2, 43, 95
3, 172800, Note_on_c, 2, 65, 95
3, 172800, Note_on_c, 2, 60, 95
3, 172800, Note_on_c, 2, 57, 95
3, 172800, Note_on_c, 2, 53, 95
3, 172800, Note_on_c, 2, 48, 95
3, 172800, Note_on_c, 2, 41, 95
3, 173280, Note_off_c, 2, 65, 95
3, 173280, Note_off_c, 2, 60, 95
3, 173280, Note_off_c, 2, 57, 95
3, 173280, Note_off_c, 2, 53, 95
3, 173280, Note_off_c, 2, 48, 95
3, 173280, Note_off_c, 2, 41, 95
3, 173280, Note_on_c, 2, 64, 95
3, 173280, Note_on_c, 2, 59, 95
3, 173280, Note_on_c, 2, 57, 95
3, 173280, Note_on_c, 2, 53, 95
3, 173280, Note_on_c, 2, 48, 95
3, 173280, Note_on_c, 2, 40, 95
3, 173760, Note_off_c, 2, 64, 95
3, 173760, Note_off_c, 2, 59, 95
3, 173760, Note_off_c, 2, 57, 95
3, 173760, Note_off_c, 2, 53, 95
3, 173760, Note_off_c, 2, 48, 95
3, 173760, Note_off_c, 2, 40, 95
3, 173760, Note_on_c, 2, 65, 95
3, 173760, Note_on_c, 2, 60, 95
3, 173760, Note_on_c, 2, 57, 95
3, 173760, Note_on_c, 2, 53, 95
3, 173760, Note_on_c, 2, 48, 95
3, 173760, Note_on_c, 2, 41, 95
3, 174240, Note_off_c, 2, 65, 95
3, 174240, Note_off_c, 2, 60, 95
3, 174240, Note_off_c, 2, 57, 95
3, 174240, Note_off_c, 2, 53, 95
3, 174240, Note_off_c, 2, 48, 95
3, 174240, Note_off_c, 2, 41, 95
3, 174240, Note_on_c, 2, 64, 95
3, 174240, Note_on_c, 2, 59, 95
3, 174240, Note_on_c, 2, 57, 95
3, 174240, Note_on_c, 2, 53, 95
3, 174240, Note_on_c, 2, 48, 95
3, 174240, Note_on_c, 2, 40, 95
3, 174720, Note_off_c, 2, 64, 95
3, 174720, Note_off_c, 2, 59, 95
3, 174720, Note_off_c, 2, 57, 95
3, 174720, Note_off_c, 2, 53, 95
3, 174720, Note_off_c, 2, 48, 95
3, 174720, Note_off_c, 2, 40, 95
3, 174720, Note_on_c, 2, 65, 95
3, 174720, Note_on_c, 2, 60, 95
3, 174720, Note_on_c, 2, 57, 95
3, 174720, Note_on_c, 2, 53, 95
3, 174720, Note_on_c, 2, 48, 95
3, 174720, Note_on_c, 2, 41, 95
3, 175200, Note_off_c, 2, 65, 95
3, 175200, Note_off_c, 2, 60, 95
3, 175200, Note_off_c, 2, 57, 95
3, 175200, Note_off_c, 2, 53, 95
3, 175200, Note_off_c, 2, 48, 95
3, 175200, Note_off_c, 2, 41, 95
3, 175200, Note_on_c, 2, 64, 95
3, 175200, Note_on_c, 2, 59, 95
3, 175200, Note_on_c, 2, 57, 95
3, 175200, Note_on_c, 2, 53, 95
3, 175200, Note_on_c, 2, 48, 95
3, 175200, Note_on_c, 2, 40, 95
3, 175680, Note_off_c, 2, 64, 95
3, 175680, Note_off_c, 2, 59, 95
3, 175680, Note_off_c, 2, 57, 95
3, 175680, Note_off_c, 2, 53, 95
3, 175680, Note_off_c, 2, 48, 95
3, 175680, Note_off_c, 2, 40, 95
3, 175680, Note_on_c, 2, 65, 95
3, 175680, Note_on_c, 2, 60, 95
3, 175680, Note_on_c, 2, 57, 95
3, 175680, Note_on_c, 2, 53, 95
3, 175680, Note_on_c, 2, 48, 95
3, 175680, Note_on_c, 2, 41, 95
3, 176160, Note_off_c, 2, 65, 95
3, 176160, Note_off_c, 2, 60, 95
3, 176160, Note_off_c, 2, 57, 95
3, 176160, Note_off_c, 2, 53, 95
3, 176160, Note_off_c, 2, 48, 95
3, 176160, Note_off_c, 2, 41, 95
3, 176160, Note_on_c, 2, 67, 95
3, 176160, Note_on_c, 2, 62, 95
3, 176160, Note_on_c, 2, 59, 95
3, 176160, Note_on_c, 2, 55, 95
3, 176160, Note_on_c, 2, 50, 95
3, 176160, Note_on_c, 2, 43, 95
3, 176640, Note_off_c, 2, 67, 95
3, 176640, Note_off_c, 2, 62, 95
3, 176640, Note_off_c, 2, 59, 95
3, 176640, Note_off_c, 2, 55, 95
3, 176640, Note_off_c, 2, 50, 95
3, 176640, Note_off_c, 2, 43, 95
3, 176640, Note_on_c, 2, 69, 95
3, 176640, Note_on_c, 2, 64, 95
3, 176640, Note_on_c, 2, 60, 95
3, 176640, Note_on_c, 2, 57, 95
3, 176640, Note_on_c, 2, 52, 95
3, 176640, Note_on_c, 2, 45, 95
3, 176880, Note_off_c, 2, 69, 95
3, 176880, Note_off_c, 2, 64, 95
3, 176880, Note_off_c, 2, 60, 95
3, 176880, Note_off_c, 2, 57, 95
3, 176880, Note_off_c, 2, 52, 95
3, 176880, Note_off_c, 2, 45, 95
3, 176880, Note_on_c, 2, 69, 95
3, 176880, Note_on_c, 2, 64, 95
3, 176880, Note_on_c, 2, 60, 95
3, 176880, Note_on_c, 2, 57, 95
3, 176880, Note_on_c, 2, 52, 95
3, 176880, Note_on_c, 2, 45, 95
3, 177120, Note_off_c, 2, 69, 95
3, 177120, Note_off_c, 2, 64, 95
3, 177120, Note_off_c, 2, 60, 95
3, 177120, Note_off_c, 2, 57, 95
3, 177120, Note_off_c, 2, 52, 95
3, 177120, Note_off_c, 2, 45, 95
3, 177120, Note_on_c, 2, 69, 95
3, 177120, Note_on_c, 2, 64, 95
3, 177120, Note_on_c, 2, 60, 95
3, 177120, Note_on_c, 2, 57, 95
3, 177120, Note_on_c, 2, 52, 95
3, 177120, Note_on_c, 2, 45, 95
3, 177360, Note_off_c, 2, 69, 95
3, 177360, Note_off_c, 2, 64, 95
3, 177360, Note_off_c, 2, 60, 95
3, 177360, Note_off_c, 2, 57, 95
3, 177360, Note_off_c, 2, 52, 95
3, 177360, Note_off_c, 2, 45, 95
3, 177360, Note_on_c, 2, 69, 95
3, 177360, Note_on_c, 2, 64, 95
3, 177360, Note_on_c, 2, 60, 95
3, 177360, Note_on_c, 2, 57, 95
3, 177360, Note_on_c, 2, 52, 95
3, 177360, Note_on_c, 2, 45, 95
3, 177600, Note_off_c, 2, 69, 95
3, 177600, Note_off_c, 2, 64, 95
3, 177600, Note_off_c, 2, 60, 95
3, 177600, Note_off_c, 2, 57, 95
3, 177600, Note_off_c, 2, 52, 95
3, 177600, Note_off_c, 2, 45, 95
3, 177600, Note_on_c, 2, 69, 95
3, 177600, Note_on_c, 2, 64, 95
3, 177600, Note_on_c, 2, 60, 95
3, 177600, Note_on_c, 2, 57, 95
3, 177600, Note_on_c, 2, 52, 95
3, 177600, Note_on_c, 2, 45, 95
3, 178560, Note_off_c, 2, 69, 95
3, 178560, Note_off_c, 2, 64, 95
3, 178560, Note_off_c, 2, 60, 95
3, 178560, Note_off_c, 2, 57, 95
3, 178560, Note_off_c, 2, 52, 95
3, 178560, Note_off_c, 2, 45, 95
3, 178560, Note_on_c, 2, 67, 95
3, 178560, Note_on_c, 2, 62, 95
3, 178560, Note_on_c, 2, 59, 95
3, 178560, Note_on_c, 2, 55, 95
3, 178560, Note_on_c, 2, 50, 95
3, 178560, Note_on_c, 2, 43, 95
3, 178800, Note_off_c, 2, 67, 95
3, 178800, Note_off_c, 2, 62, 95
3, 178800, Note_off_c, 2, 59, 95
3, 178800, Note_off_c, 2, 55, 95
3, 178800, Note_off_c, 2, 50, 95
3, 178800, Note_off_c, 2, 43, 95
3, 178800, Note_on_c, 2, 67, 95
3, 178800, Note_on_c, 2, 62, 95
3, 178800, Note_on_c, 2, 59, 95
3, 178800, Note_on_c, 2, 55, 95
3, 178800, Note_on_c, 2, 50, 95
3, 178800, Note_on_c, 2, 43, 95
3, 179040, Note_off_c, 2, 67, 95
3, 179040, Note_off_c, 2, 62, 95
3, 179040, Note_off_c, 2, 59, 95
3, 179040, Note_off_c, 2, 55, 95
3, 179040, Note_off_c, 2, 50, 95
3, 179040, Note_off_c, 2, 43, 95
3, 179040, Note_on_c, 2, 67, 95
3, 179040, Note_on_c, 2, 62, 95
3, 179040, Note_on_c, 2, 59, 95
3, 179040, Note_on_c, 2, 55, 95
3, 179040, Note_on_c, 2, 50, 95
3, 179040, Note_on_c, 2, 43, 95
3, 179280, Note_off_c, 2, 67, 95
3, 179280, Note_off_c, 2, 62, 95
3, 179280, Note_off_c, 2, 59, 95
3, 179280, Note_off_c, 2, 55, 95
3, 179280, Note_off_c, 2, 50, 95
3, 179280, Note_off_c, 2, 43, 95
3, 179280, Note_on_c, 2, 67, 95
3, 179280, Note_on_c, 2, 62, 95
3, 179280, Note_on_c, 2, 59, 95
3, 179280, Note_on_c, 2, 55, 95
3, 179280, Note_on_c, 2, 50, 95
3, 179280, Note_on_c, 2, 43, 95
3, 179520, Note_off_c, 2, 67, 95
3, 179520, Note_off_c, 2, 62, 95
3, 179520, Note_off_c, 2, 59, 95
3, 179520, Note_off_c, 2, 55, 95
3, 179520, Note_off_c, 2, 50, 95
3, 179520, Note_off_c, 2, 43, 95
3, 179520, Note_on_c, 2, 67, 95
3, 179520, Note_on_c, 2, 62, 95
3, 179520, Note_on_c, 2, 59, 95
3, 179520, Note_on_c, 2, 55, 95
3, 179520, Note_on_c, 2, 50, 95
3, 179520, Note_on_c, 2, 43, 95
3, 180480, Note_off_c, 2, 67, 95
3, 180480, Note_off_c, 2, 62, 95
3, 180480, Note_off_c, 2, 59, 95
3, 180480, Note_off_c, 2, 55, 95
3, 180480, Note_off_c, 2, 50, 95
3, 180480, Note_off_c, 2, 43, 95
3, 180480, Note_on_c, 2, 65, 95
3, 180480, Note_on_c, 2, 60, 95
3, 180480, Note_on_c, 2, 57, 95
3, 180480, Note_on_c, 2, 53, 95
3, 180480, Note_on_c, 2, 48, 95
3, 180480, Note_on_c, 2, 41, 95
3, 180960, Note_off_c, 2, 65, 95
3, 180960, Note_off_c, 2, 60, 95
3, 180960, Note_off_c, 2, 57, 95
3, 180960, Note_off_c, 2, 53, 95
3, 180960, Note_off_c, 2, 48, 95
3, 180960, Note_off_c, 2, 41, 95
3, 180960, Note_on_c, 2, 64, 95
3, 180960, Note_on_c, 2, 59, 95
3, 180960, Note_on_c, 2, 57, 95
3, 180960, Note_on_c, 2, 53, 95
3, 180960, Note_on_c, 2, 48, 95
3, 180960, Note_on_c, 2, 40, 95
3, 181440, Note_off_c, 2, 64, 95
3, 181440, Note_off_c, 2, 59, 95
3, 181440, Note_off_c, 2, 57, 95
3, 181440, Note_off_c, 2, 53, 95
3, 181440, Note_off_c, 2, 48, 95
3, 181440, Note_off_c, 2, 40, 95
3, 181440, Note_on_c, 2, 65, 95
3, 181440, Note_on_c, 2, 60, 95
3, 181440, Note_on_c, 2, 57, 95
3, 181440, Note_on_c, 2, 53, 95
3, 181440, Note_on_c, 2, 48, 95
3, 181440, Note_on_c, 2, 41, 95
3, 181920, Note_off_c, 2, 65, 95
3, 181920, Note_off_c, 2, 60, 95
3, 181920, Note_off_c, 2, 57, 95
3, 181920, Note_off_c, 2, 53, 95
3, 181920, Note_off_c, 2, 48, 95
3, 181920, Note_off_c, 2, 41, 95
3, 181920, Note_on_c, 2, 64, 95
3, 181920, Note_on_c, 2, 59, 95
3, 181920, Note_on_c, 2, 57, 95
3, 181920, Note_on_c, 2, 53, 95
3, 181920, Note_on_c, 2, 48, 95
3, 181920, Note_on_c, 2, 40, 95
3, 182400, Note_off_c, 2, 64, 95
3, 182400, Note_off_c, 2, 59, 95
3, 182400, Note_off_c, 2, 57, 95
3, 182400, Note_off_c, 2, 53, 95
3, 182400, Note_off_c, 2, 48, 95
3, 182400, Note_off_c, 2, 40, 95
3, 182400, Note_on_c, 2, 65, 95
3, 182400, Note_on_c, 2, 60, 95
3, 182400, Note_on_c, 2, 57, 95
3, 182400, Note_on_c, 2, 53, 95
3, 182400, Note_on_c, 2, 48, 95
3, 182400, Note_on_c, 2, 41, 95
3, 182880, Note_off_c, 2, 65, 95
3, 182880, Note_off_c, 2, 60, 95
3, 182880, Note_off_c, 2, 57, 95
3, 182880, Note_off_c, 2, 53, 95
3, 182880, Note_off_c, 2, 48, 95
3, 182880, Note_off_c, 2, 41, 95
3, 182880, Note_on_c, 2, 64, 95
3, 182880, Note_on_c, 2, 59, 95
3, 182880, Note_on_c, 2, 57, 95
3, 182880, Note_on_c, 2, 53, 95
3, 182880, Note_on_c, 2, 48, 95
3, 182880, Note_on_c, 2, 40, 95
3, 183360, Note_off_c, 2, 64, 95
3, 183360, Note_off_c, 2, 59, 95
3, 183360, Note_off_c, 2, 57, 95
3, 183360, Note_off_c, 2, 53, 95
3, 183360, Note_off_c, 2, 48, 95
3, 183360, Note_off_c, 2, 40, 95
3, 183360, Note_on_c, 2, 65, 95
3, 183360, Note_on_c, 2, 60, 95
3, 183360, Note_on_c, 2, 57, 95
3, 183360, Note_on_c, 2, 53, 95
3, 183360, Note_on_c, 2, 48, 95
3, 183360, Note_on_c, 2, 41, 95
3, 183840, Note_off_c, 2, 65, 95
3, 183840, Note_off_c, 2, 60, 95
3, 183840, Note_off_c, 2, 57, 95
3, 183840, Note_off_c, 2, 53, 95
3, 183840, Note_off_c, 2, 48, 95
3, 183840, Note_off_c, 2, 41, 95
3, 183840, Note_on_c, 2, 67, 95
3, 183840, Note_on_c, 2, 62, 95
3, 183840, Note_on_c, 2, 59, 95
3, 183840, Note_on_c, 2, 55, 95
3, 183840, Note_on_c, 2, 50, 95
3, 183840, Note_on_c, 2, 43, 95
3, 184320, Note_off_c, 2, 67, 95
3, 184320, Note_off_c, 2, 62, 95
3, 184320, Note_off_c, 2, 59, 95
3, 184320, Note_off_c, 2, 55, 95
3, 184320, Note_off_c, 2, 50, 95
3, 184320, Note_off_c, 2, 43, 95
3, 184320, Note_on_c, 2, 69, 95
3, 184320, Note_on_c, 2, 64, 95
3, 184320, Note_on_c, 2, 60, 95
3, 184320, Note_on_c, 2, 57, 95
3, 184320, Note_on_c, 2, 52, 95
3, 184320, Note_on_c, 2, 45, 95
3, 184560, Note_off_c, 2, 69, 95
3, 184560, Note_off_c, 2, 64, 95
3, 184560, Note_off_c, 2, 60, 95
3, 184560, Note_off_c, 2, 57, 95
3, 184560, Note_off_c, 2, 52, 95
3, 184560, Note_off_c, 2, 45, 95
3, 184560, Note_on_c, 2, 69, 95
3, 184560, Note_on_c, 2, 64, 95
3, 184560, Note_on_c, 2, 60, 95
3, 184560, Note_on_c, 2, 57, 95
3, 184560, Note_on_c, 2, 52, 95
3, 184560, Note_on_c, 2, 45, 95
3, 184800, Note_off_c, 2, 69, 95
3, 184800, Note_off_c, 2, 64, 95
3, 184800, Note_off_c, 2, 60, 95
3, 184800, Note_off_c, 2, 57, 95
3, 184800, Note_off_c, 2, 52, 95
3, 184800, Note_off_c, 2, 45, 95
3, 184800, Note_on_c, 2, 69, 95
3, 184800, Note_on_c, 2, 64, 95
3, 184800, Note_on_c, 2, 60, 95
3, 184800, Note_on_c, 2, 57, 95
3, 184800, Note_on_c, 2, 52, 95
3, 184800, Note_on_c, 2, 45, 95
3, 185040, Note_off_c, 2, 69, 95
3, 185040, Note_off_c, 2, 64, 95
3, 185040, Note_off_c, 2, 60, 95
3, 185040, Note_off_c, 2, 57, 95
3, 185040, Note_off_c, 2, 52, 95
3, 185040, Note_off_c, 2, 45, 95
3, 185040, Note_on_c, 2, 69, 95
3, 185040, Note_on_c, 2, 64, 95
3, 185040, Note_on_c, 2, 60, 95
3, 185040, Note_on_c, 2, 57, 95
3, 185040, Note_on_c, 2, 52, 95
3, 185040, Note_on_c, 2, 45, 95
3, 185280, Note_off_c, 2, 69, 95
3, 185280, Note_off_c, 2, 64, 95
3, 185280, Note_off_c, 2, 60, 95
3, 185280, Note_off_c, 2, 57, 95
3, 185280, Note_off_c, 2, 52, 95
3, 185280, Note_off_c, 2, 45, 95
3, 185280, Note_on_c, 2, 69, 95
3, 185280, Note_on_c, 2, 64, 95
3, 185280, Note_on_c, 2, 60, 95
3, 185280, Note_on_c, 2, 57, 95
3, 185280, Note_on_c, 2, 52, 95
3, 185280, Note_on_c, 2, 45, 95
3, 186240, Note_off_c, 2, 69, 95
3, 186240, Note_off_c, 2, 64, 95
3, 186240, Note_off_c, 2, 60, 95
3, 186240, Note_off_c, 2, 57, 95
3, 186240, Note_off_c, 2, 52, 95
3, 186240, Note_off_c, 2, 45, 95
3, 186240, Note_on_c, 2, 67, 95
3, 186240, Note_on_c, 2, 62, 95
3, 186240, Note_on_c, 2, 59, 95
3, 186240, Note_on_c, 2, 55, 95
3, 186240, Note_on_c, 2, 50, 95
3, 186240, Note_on_c, 2, 43, 95
3, 186480, Note_off_c, 2, 67, 95
3, 186480, Note_off_c, 2, 62, 95
3, 186480, Note_off_c, 2, 59, 95
3, 186480, Note_off_c, 2, 55, 95
3, 186480, Note_off_c, 2, 50, 95
3, 186480, Note_off_c, 2, 43, 95
3, 186480, Note_on_c, 2, 67, 95
3, 186480, Note_on_c, 2, 62, 95
3, 186480, Note_on_c, 2, 59, 95
3, 186480, Note_on_c, 2, 55, 95
3, 186480, Note_on_c, 2, 50, 95
3, 186480, Note_on_c, 2, 43, 95
3, 186720, Note_off_c, 2, 67, 95
3, 186720, Note_off_c, 2, 62, 95
3, 186720, Note_off_c, 2, 59, 95
3, 186720, Note_off_c, 2, 55, 95
3, 186720, Note_off_c, 2, 50, 95
3, 186720, Note_off_c, 2, 43, 95
3, 186720, Note_on_c, 2, 67, 95
3, 186720, Note_on_c, 2, 62, 95
3, 186720, Note_on_c, 2, 59, 95
3, 186720, Note_on_c, 2, 55, 95
3, 186720, Note_on_c, 2, 50, 95
3, 186720, Note_on_c, 2, 43, 95
3, 186960, Note_off_c, 2, 67, 95
3, 186960, Note_off_c, 2, 62, 95
3, 186960, Note_off_c, 2, 59, 95
3, 186960, Note_off_c, 2, 55, 95
3, 186960, Note_off_c, 2, 50, 95
3, 186960, Note_off_c, 2, 43, 95
3, 186960, Note_on_c, 2, 67, 95
3, 186960, Note_on_c, 2, 62, 95
3, 186960, Note_on_c, 2, 59, 95
3, 186960, Note_on_c, 2, 55, 95
3, 186960, Note_on_c, 2, 50, 95
3, 186960, Note_on_c, 2, 43, 95
3, 187200, Note_off_c, 2, 67, 95
3, 187200, Note_off_c, 2, 62, 95
3, 187200, Note_off_c, 2, 59, 95
3, 187200, Note_off_c, 2, 55, 95
3, 187200, Note_off_c, 2, 50, 95
3, 187200, Note_off_c, 2, 43, 95
3, 187200, Note_on_c, 2, 67, 95
3, 187200, Note_on_c, 2, 62, 95
3, 187200, Note_on_c, 2, 59, 95
3, 187200, Note_on_c, 2, 55, 95
3, 187200, Note_on_c, 2, 50, 95
3, 187200, Note_on_c, 2, 43, 95
3, 188160, Note_off_c, 2, 67, 95
3, 188160, Note_off_c, 2, 62, 95
3, 188160, Note_off_c, 2, 59, 95
3, 188160, Note_off_c, 2, 55, 95
3, 188160, Note_off_c, 2, 50, 95
3, 188160, Note_off_c, 2, 43, 95
3, 188160, Note_on_c, 2, 65, 95
3, 188160, Note_on_c, 2, 60, 95
3, 188160, Note_on_c, 2, 57, 95
3, 188160, Note_on_c, 2, 53, 95
3, 188160, Note_on_c, 2, 48, 95
3, 188160, Note_on_c, 2, 41, 95
3, 188640, Note_off_c, 2, 65, 95
3, 188640, Note_off_c, 2, 60, 95
3, 188640, Note_off_c, 2, 57, 95
3, 188640, Note_off_c, 2, 53, 95
3, 188640, Note_off_c, 2, 48, 95
3, 188640, Note_off_c, 2, 41, 95
3, 188640, Note_on_c, 2, 64, 95
3, 188640, Note_on_c, 2, 59, 95
3, 188640, Note_on_c, 2, 57, 95
3, 188640, Note_on_c, 2, 53, 95
3, 188640, Note_on_c, 2, 48, 95
3, 188640, Note_on_c, 2, 40, 95
3, 189120, Note_off_c, 2, 64, 95
3, 189120, Note_off_c, 2, 59, 95
3, 189120, Note_off_c, 2, 57, 95
3, 189120, Note_off_c, 2, 53, 95
3, 189120, Note_off_c, 2, 48, 95
3, 189120, Note_off_c, 2, 40, 95
3, 189120, Note_on_c, 2, 65, 95
3, 189120, Note_on_c, 2, 60, 95
3, 189120, Note_on_c, 2, 57, 95
3, 189120, Note_on_c, 2, 53, 95
3, 189120, Note_on_c, 2, 48, 95
3, 189120, Note_on_c, 2, 41, 95
3, 189600, Note_off_c, 2, 65, 95
3, 189600, Note_off_c, 2, 60, 95
3, 189600, Note_off_c, 2, 57, 95
3, 189600, Note_off_c, 2, 53, 95
3, 189600, Note_off_c, 2, 48, 95
3, 189600, Note_off_c, 2, 41, 95
3, 189600, Note_on_c, 2, 64, 95
3, 189600, Note_on_c, 2, 59, 95
3, 189600, Note_on_c, 2, 57, 95
3, 189600, Note_on_c, 2, 53, 95
3, 189600, Note_on_c, 2, 48, 95
3, 189600, Note_on_c, 2, 40, 95
3, 190080, Note_off_c, 2, 64, 95
3, 190080, Note_off_c, 2, 59, 95
3, 190080, Note_off_c, 2, 57, 95
3, 190080, Note_off_c, 2, 53, 95
3, 190080, Note_off_c, 2, 48, 95
3, 190080, Note_off_c, 2, 40, 95
3, 190080, Note_on_c, 2, 65, 95
3, 190080, Note_on_c, 2, 60, 95
3, 190080, Note_on_c, 2, 57, 95
3, 190080, Note_on_c, 2, 53, 95
3, 190080, Note_on_c, 2, 48, 95
3, 190080, Note_on_c, 2, 41, 95
3, 190560, Note_off_c, 2, 65, 95
3, 190560, Note_off_c, 2, 60, 95
3, 190560, Note_off_c, 2, 57, 95
3, 190560, Note_off_c, 2, 53, 95
3, 190560, Note_off_c, 2, 48, 95
3, 190560, Note_off_c, 2, 41, 95
3, 190560, Note_on_c, 2, 64, 95
3, 190560, Note_on_c, 2, 59, 95
3, 190560, Note_on_c, 2, 57, 95
3, 190560, Note_on_c, 2, 53, 95
3, 190560, Note_on_c, 2, 48, 95
3, 190560, Note_on_c, 2, 40, 95
3, 191040, Note_off_c, 2, 64, 95
3, 191040, Note_off_c, 2, 59, 95
3, 191040, Note_off_c, 2, 57, 95
3, 191040, Note_off_c, 2, 53, 95
3, 191040, Note_off_c, 2, 48, 95
3, 191040, Note_off_c, 2, 40, 95
3, 191040, Note_on_c, 2, 65, 95
3, 191040, Note_on_c, 2, 60, 95
3, 191040, Note_on_c, 2, 57, 95
3, 191040, Note_on_c, 2, 53, 95
3, 191040, Note_on_c, 2, 48, 95
3, 191040, Note_on_c, 2, 41, 95
3, 191520, Note_off_c, 2, 65, 95
3, 191520, Note_off_c, 2, 60, 95
3, 191520, Note_off_c, 2, 57, 95
3, 191520, Note_off_c, 2, 53, 95
3, 191520, Note_off_c, 2, 48, 95
3, 191520, Note_off_c, 2, 41, 95
3, 191520, Note_on_c, 2, 67, 95
3, 191520, Note_on_c, 2, 62, 95
3, 191520, Note_on_c, 2, 59, 95
3, 191520, Note_on_c, 2, 55, 95
3, 191520, Note_on_c, 2, 50, 95
3, 191520, Note_on_c, 2, 43, 95
3, 192000, Note_off_c, 2, 67, 95
3, 192000, Note_off_c, 2, 62, 95
3, 192000, Note_off_c, 2, 59, 95
3, 192000, Note_off_c, 2, 55, 95
3, 192000, Note_off_c, 2, 50, 95
3, 192000, Note_off_c, 2, 43, 95
3, 192000, Note_on_c, 2, 66, 95
3, 192000, Note_on_c, 2, 62, 95
3, 192000, Note_on_c, 2, 57, 95
3, 192000, Note_on_c, 2, 50, 95
3, 192480, Note_off_c, 2, 66, 95
3, 192480, Note_off_c, 2, 62, 95
3, 192480, Note_off_c, 2, 57, 95
3, 192480, Note_off_c, 2, 50, 95
3, 192480, Note_on_c, 2, 66, 95
3, 192480, Note_on_c, 2, 62, 95
3, 192480, Note_on_c, 2, 57, 95
3, 192480, Note_on_c, 2, 50, 95
3, 192960, Note_off_c, 2, 66, 95
3, 192960, Note_off_c, 2, 62, 95
3, 192960, Note_off_c, 2, 57, 95
3, 192960, Note_off_c, 2, 50, 95
3, 192960, Note_on_c, 2, 66, 95
3, 192960, Note_on_c, 2, 62, 95
3, 192960, Note_on_c, 2, 57, 95
3, 192960, Note_on_c, 2, 50, 95
3, 193440, Note_off_c, 2, 66, 95
3, 193440, Note_off_c, 2, 62, 95
3, 193440, Note_off_c, 2, 57, 95
3, 193440, Note_off_c, 2, 50, 95
3, 193440, Note_on_c, 2, 59, 95
3, 193440, Note_on_c, 2, 55, 95
3, 193440, Note_on_c, 2, 50, 95
3, 193440, Note_on_c, 2, 45, 95
3, 193480, Note_off_c, 2, 59, 95
3, 193480, Note_off_c, 2, 55, 95
3, 193480, Note_off_c, 2, 50, 95
3, 193480, Note_off_c, 2, 45, 95
3, 193920, Note_on_c, 2, 66, 95
3, 193920, Note_on_c, 2, 62, 95
3, 193920, Note_on_c, 2, 57, 95
3, 193920, Note_on_c, 2, 50, 95
3, 194880, Note_off_c, 2, 66, 95
3, 194880, Note_off_c, 2, 62, 95
3, 194880, Note_off_c, 2, 57, 95
3, 194880, Note_off_c, 2, 50, 95
3, 194880, Note_on_c, 2, 66, 95
3, 194880, Note_on_c, 2, 62, 95
3, 194880, Note_on_c, 2, 57, 95
3, 194880, Note_on_c, 2, 50, 95
3, 195360, Note_off_c, 2, 66, 95
3, 195360, Note_off_c, 2, 62, 95
3, 195360, Note_off_c, 2, 57, 95
3, 195360, Note_off_c, 2, 50, 95
3, 195360, Note_on_c, 2, 66, 95
3, 195360, Note_on_c, 2, 62, 95
3, 195360, Note_on_c, 2, 57, 95
3, 195360, Note_on_c, 2, 50, 95
3, 195600, Note_off_c, 2, 66, 95
3, 195600, Note_off_c, 2, 62, 95
3, 195600, Note_off_c, 2, 57, 95
3, 195600, Note_off_c, 2, 50, 95
3, 195600, Note_on_c, 2, 66, 95
3, 195600, Note_on_c, 2, 62, 95
3, 195600, Note_on_c, 2, 57, 95
3, 195600, Note_on_c, 2, 50, 95
3, 195840, Note_off_c, 2, 66, 95
3, 195840, Note_off_c, 2, 62, 95
3, 195840, Note_off_c, 2, 57, 95
3, 195840, Note_off_c, 2, 50, 95
3, 195840, Note_on_c, 2, 64, 95
3, 195840, Note_on_c, 2, 59, 95
3, 195840, Note_on_c, 2, 56, 95
3, 195840, Note_on_c, 2, 52, 95
3, 195840, Note_on_c, 2, 47, 95
3, 195840, Note_on_c, 2, 40, 95
3, 196080, Note_off_c, 2, 64, 95
3, 196080, Note_off_c, 2, 59, 95
3, 196080, Note_off_c, 2, 56, 95
3, 196080, Note_off_c, 2, 52, 95
3, 196080, Note_off_c, 2, 47, 95
3, 196080, Note_off_c, 2, 40, 95
3, 196080, Note_on_c, 2, 64, 95
3, 196080, Note_on_c, 2, 59, 95
3, 196080, Note_on_c, 2, 56, 95
3, 196080, Note_on_c, 2, 52, 95
3, 196080, Note_on_c, 2, 47, 95
3, 196080, Note_on_c, 2, 40, 95
3, 196560, Note_off_c, 2, 64, 95
3, 196560, Note_off_c, 2, 59, 95
3, 196560, Note_off_c, 2, 56, 95
3, 196560, Note_off_c, 2, 52, 95
3, 196560, Note_off_c, 2, 47, 95
3, 196560, Note_off_c, 2, 40, 95
3, 196560, Note_on_c, 2, 64, 95
3, 196560, Note_on_c, 2, 59, 95
3, 196560, Note_on_c, 2, 55, 95
3, 196560, Note_on_c, 2, 50, 95
3, 196560, Note_on_c, 2, 45, 95
3, 196560, Note_on_c, 2, 40, 95
3, 196600, Note_off_c, 2, 64, 95
3, 196600, Note_off_c, 2, 59, 95
3, 196600, Note_off_c, 2, 55, 95
3, 196600, Note_off_c, 2, 50, 95
3, 196600, Note_off_c, 2, 45, 95
3, 196600, Note_off_c, 2, 40, 95
3, 196800, Note_on_c, 2, 64, 95
3, 196800, Note_on_c, 2, 59, 95
3, 196800, Note_on_c, 2, 56, 95
3, 196800, Note_on_c, 2, 52, 95
3, 196800, Note_on_c, 2, 47, 95
3, 196800, Note_on_c, 2, 40, 95
3, 197280, Note_off_c, 2, 64, 95
3, 197280, Note_off_c, 2, 59, 95
3, 197280, Note_off_c, 2, 56, 95
3, 197280, Note_off_c, 2, 52, 95
3, 197280, Note_off_c, 2, 47, 95
3, 197280, Note_off_c, 2, 40, 95
3, 197280, Note_on_c, 2, 64, 95
3, 197280, Note_on_c, 2, 59, 95
3, 197280, Note_on_c, 2, 55, 95
3, 197280, Note_on_c, 2, 50, 95
3, 197280, Note_on_c, 2, 45, 95
3, 197280, Note_on_c, 2, 40, 95
3, 197320, Note_off_c, 2, 64, 95
3, 197320, Note_off_c, 2, 59, 95
3, 197320, Note_off_c, 2, 55, 95
3, 197320, Note_off_c, 2, 50, 95
3, 197320, Note_off_c, 2, 45, 95
3, 197320, Note_off_c, 2, 40, 95
3, 197520, Note_on_c, 2, 64, 95
3, 197520, Note_on_c, 2, 59, 95
3, 197520, Note_on_c, 2, 56, 95
3, 197520, Note_on_c, 2, 52, 95
3, 197520, Note_on_c, 2, 47, 95
3, 197520, Note_on_c, 2, 40, 95
3, 198000, Note_off_c, 2, 64, 95
3, 198000, Note_off_c, 2, 59, 95
3, 198000, Note_off_c, 2, 56, 95
3, 198000, Note_off_c, 2, 52, 95
3, 198000, Note_off_c, 2, 47, 95
3, 198000, Note_off_c, 2, 40, 95
3, 198000, Note_on_c, 2, 64, 95
3, 198000, Note_on_c, 2, 59, 95
3, 198000, Note_on_c, 2, 55, 95
3, 198000, Note_on_c, 2, 50, 95
3, 198000, Note_on_c, 2, 45, 95
3, 198000, Note_on_c, 2, 40, 95
3, 198040, Note_off_c, 2, 64, 95
3, 198040, Note_off_c, 2, 59, 95
3, 198040, Note_off_c, 2, 55, 95
3, 198040, Note_off_c, 2, 50, 95
3, 198040, Note_off_c, 2, 45, 95
3, 198040, Note_off_c, 2, 40, 95
3, 198240, Note_on_c, 2, 64, 95
3, 198240, Note_on_c, 2, 59, 95
3, 198240, Note_on_c, 2, 56, 95
3, 198240, Note_on_c, 2, 52, 95
3, 198240, Note_on_c, 2, 47, 95
3, 198240, Note_on_c, 2, 40, 95
3, 198720, Note_off_c, 2, 64, 95
3, 198720, Note_off_c, 2, 59, 95
3, 198720, Note_off_c, 2, 56, 95
3, 198720, Note_off_c, 2, 52, 95
3, 198720, Note_off_c, 2, 47, 95
3, 198720, Note_off_c, 2, 40, 95
3, 198720, Note_on_c, 2, 64, 95
3, 198720, Note_on_c, 2, 59, 95
3, 198720, Note_on_c, 2, 55, 95
3, 198720, Note_on_c, 2, 50, 95
3, 198720, Note_on_c, 2, 45, 95
3, 198720, Note_on_c, 2, 40, 95
3, 198760, Note_off_c, 2, 64, 95
3, 198760, Note_off_c, 2, 59, 95
3, 198760, Note_off_c, 2, 55, 95
3, 198760, Note_off_c, 2, 50, 95
3, 198760, Note_off_c, 2, 45, 95
3, 198760, Note_off_c, 2, 40, 95
3, 198960, Note_on_c, 2, 64, 95
3, 198960, Note_on_c, 2, 59, 95
3, 198960, Note_on_c, 2, 56, 95
3, 198960, Note_on_c, 2, 52, 95
3, 198960, Note_on_c, 2, 47, 95
3, 198960, Note_on_c, 2, 40, 95
3, 199200, Note_off_c, 2, 64, 95
3, 199200, Note_off_c, 2, 59, 95
3, 199200, Note_off_c, 2, 56, 95
3, 199200, Note_off_c, 2, 52, 95
3, 199200, Note_off_c, 2, 47, 95
3, 199200, Note_off_c, 2, 40, 95
3, 199200, Note_on_c, 2, 64, 95
3, 199200, Note_on_c, 2, 55, 95
3, 199200, Note_on_c, 2, 50, 95
3, 199200, Note_on_c, 2, 45, 95
3, 199200, Note_on_c, 2, 40, 95
3, 199240, Note_off_c, 2, 64, 95
3, 199240, Note_off_c, 2, 55, 95
3, 199240, Note_off_c, 2, 50, 95
3, 199240, Note_off_c, 2, 45, 95
3, 199240, Note_off_c, 2, 40, 95
3, 199440, Note_on_c, 2, 64, 95
3, 199440, Note_on_c, 2, 59, 95
3, 199440, Note_on_c, 2, 55, 95
3, 199440, Note_on_c, 2, 50, 95
3, 199440, Note_on_c, 2, 45, 95
3, 199440, Note_on_c, 2, 40, 95
3, 199480, Note_off_c, 2, 64, 95
3, 199480, Note_off_c, 2, 59, 95
3, 199480, Note_off_c, 2, 55, 95
3, 199480, Note_off_c, 2, 50, 95
3, 199480, Note_off_c, 2, 45, 95
3, 199480, Note_off_c, 2, 40, 95
3, 199680, Note_on_c, 2, 67, 95
3, 199680, Note_on_c, 2, 62, 95
3, 199680, Note_on_c, 2, 55, 95
3, 199680, Note_on_c, 2, 50, 95
3, 199680, Note_on_c, 2, 43, 95
3, 200640, Note_off_c, 2, 67, 95
3, 200640, Note_off_c, 2, 62, 95
3, 200640, Note_off_c, 2, 55, 95
3, 200640, Note_off_c, 2, 50, 95
3, 200640, Note_off_c, 2, 43, 95
3, 200640, Note_on_c, 2, 67, 95
3, 200640, Note_on_c, 2, 62, 95
3, 200640, Note_on_c, 2, 55, 95
3, 200640, Note_on_c, 2, 50, 95
3, 200640, Note_on_c, 2, 43, 95
3, 201120, Note_off_c, 2, 67, 95
3, 201120, Note_off_c, 2, 62, 95
3, 201120, Note_off_c, 2, 55, 95
3, 201120, Note_off_c, 2, 50, 95
3, 201120, Note_off_c, 2, 43, 95
3, 201120, Note_on_c, 2, 64, 95
3, 201120, Note_on_c, 2, 59, 95
3, 201120, Note_on_c, 2, 55, 95
3, 201120, Note_on_c, 2, 50, 95
3, 201120, Note_on_c, 2, 40, 95
3, 201160, Note_off_c, 2, 64, 95
3, 201160, Note_off_c, 2, 59, 95
3, 201160, Note_off_c, 2, 55, 95
3, 201160, Note_off_c, 2, 50, 95
3, 201160, Note_off_c, 2, 40, 95
3, 201600, Note_on_c, 2, 66, 95
3, 201600, Note_on_c, 2, 62, 95
3, 201600, Note_on_c, 2, 57, 95
3, 201600, Note_on_c, 2, 50, 95
3, 201840, Note_off_c, 2, 66, 95
3, 201840, Note_on_c, 2, 67, 95
3, 202080, Note_off_c, 2, 67, 95
3, 202080, Note_on_c, 2, 66, 95
3, 202320, Note_off_c, 2, 66, 95
3, 202320, Note_on_c, 2, 67, 95
3, 202560, Note_off_c, 2, 62, 95
3, 202560, Note_off_c, 2, 57, 95
3, 202560, Note_off_c, 2, 50, 95
3, 202560, Note_off_c, 2, 67, 95
3, 202560, Note_on_c, 2, 66, 95
3, 203040, Note_off_c, 2, 66, 95
3, 203040, Note_on_c, 3, 62, 95
3, 203160, Pitch_bend_c, 3, 6528
3, 203280, Pitch_bend_c, 3, 4736
3, 203280, Pitch_bend_c, 3, 8192
3, 203280, Note_off_c, 3, 62, 95
3, 203280, Note_on_c, 2, 57, 95
3, 203520, Note_off_c, 2, 57, 95
3, 203520, Note_on_c, 2, 62, 95
3, 203520, Note_on_c, 2, 55, 95
3, 203520, Note_on_c, 2, 48, 95
3, 204960, Note_off_c, 2, 62, 95
3, 204960, Note_off_c, 2, 55, 95
3, 204960, Note_off_c, 2, 48, 95
3, 204960, Note_on_c, 2, 67, 95
3, 204960, Note_on_c, 2, 62, 95
3, 204960, Note_on_c, 2, 55, 95
3, 204960, Note_on_c, 2, 47, 95
3, 206400, Note_off_c, 2, 67, 95
3, 206400, Note_off_c, 2, 62, 95
3, 206400, Note_off_c, 2, 55, 95
3, 206400, Note_off_c, 2, 47, 95
3, 206400, Note_on_c, 2, 67, 95
3, 206400, Note_on_c, 2, 62, 95
3, 206400, Note_on_c, 2, 55, 95
3, 206400, Note_on_c, 2, 52, 95
3, 206400, Note_on_c, 2, 45, 95
3, 207360, Note_off_c, 2, 67, 95
3, 207360, Note_off_c, 2, 62, 95
3, 207360, Note_off_c, 2, 55, 95
3, 207360, Note_off_c, 2, 52, 95
3, 207360, Note_off_c, 2, 45, 95
3, 207360, Note_on_c, 2, 67, 95
3, 207360, Note_on_c, 2, 62, 95
3, 207360, Note_on_c, 2, 55, 95
3, 207360, Note_on_c, 2, 50, 95
3, 207360, Note_on_c, 2, 43, 95
3, 208320, Note_off_c, 2, 67, 95
3, 208320, Note_off_c, 2, 62, 95
3, 208320, Note_off_c, 2, 55, 95
3, 208320, Note_off_c, 2, 50, 95
3, 208320, Note_off_c, 2, 43, 95
3, 208320, Note_on_c, 2, 64, 95
3, 208320, Note_on_c, 2, 59, 95
3, 208320, Note_on_c, 2, 55, 95
3, 208320, Note_on_c, 2, 50, 95
3, 208320, Note_on_c, 2, 40, 95
3, 208360, Note_off_c, 2, 64, 95
3, 208360, Note_off_c, 2, 59, 95
3, 208360, Note_off_c, 2, 55, 95
3, 208360, Note_off_c, 2, 50, 95
3, 208360, Note_off_c, 2, 40, 95
3, 208800, Note_on_c, 2, 64, 95
3, 208800, Note_on_c, 2, 59, 95
3, 208800, Note_on_c, 2, 55, 95
3, 208800, Note_on_c, 2, 50, 95
3, 208800, Note_on_c, 2, 40, 95
3, 208840, Note_off_c, 2, 64, 95
3, 208840, Note_off_c, 2, 59, 95
3, 208840, Note_off_c, 2, 55, 95
3, 208840, Note_off_c, 2, 50, 95
3, 208840, Note_off_c, 2, 40, 95
3, 209280, Note_on_c, 2, 66, 95
3, 209280, Note_on_c, 2, 62, 95
3, 209280, Note_on_c, 2, 57, 95
3, 209280, Note_on_c, 2, 50, 95
3, 209520, Note_off_c, 2, 66, 95
3, 209520, Note_on_c, 2, 67, 95
3, 209760, Note_off_c, 2, 67, 95
3, 209760, Note_on_c, 2, 66, 95
3, 210000, Note_off_c, 2, 66, 95
3, 210000, Note_on_c, 2, 67, 95
3, 210240, Note_off_c, 2, 62, 95
3, 210240, Note_off_c, 2, 57, 95
3, 210240, Note_off_c, 2, 50, 95
3, 210240, Note_off_c, 2, 67, 95
3, 210240, Note_on_c, 2, 66, 95
3, 210720, Note_off_c, 2, 66, 95
3, 210720, Note_on_c, 3, 62, 95
3, 210840, Pitch_bend_c, 3, 6528
3, 210960, Pitch_bend_c, 3, 4736
3, 210960, Pitch_bend_c, 3, 8192
3, 210960, Note_off_c, 3, 62, 95
3, 210960, Note_on_c, 2, 57, 95
3, 211200, Note_off_c, 2, 57, 95
3, 211200, Note_on_c, 2, 62, 95
3, 211200, Note_on_c, 2, 55, 95
3, 211200, Note_on_c, 2, 48, 95
3, 212640, Note_off_c, 2, 62, 95
3, 212640, Note_off_c, 2, 55, 95
3, 212640, Note_off_c, 2, 48, 95
3, 212640, Note_on_c, 2, 67, 95
3, 212640, Note_on_c, 2, 62, 95
3, 212640, Note_on_c, 2, 55, 95
3, 212640, Note_on_c, 2, 47, 95
3, 214080, Note_off_c, 2, 67, 95
3, 214080, Note_off_c, 2, 62, 95
3, 214080, Note_off_c, 2, 55, 95
3, 214080, Note_off_c, 2, 47, 95
3, 214080, Note_on_c, 2, 67, 95
3, 214080, Note_on_c, 2, 62, 95
3, 214080, Note_on_c, 2, 55, 95
3, 214080, Note_on_c, 2, 52, 95
3, 214080, Note_on_c, 2, 45, 95
3, 215040, Note_off_c, 2, 67, 95
3, 215040, Note_off_c, 2, 62, 95
3, 215040, Note_off_c, 2, 55, 95
3, 215040, Note_off_c, 2, 52, 95
3, 215040, Note_off_c, 2, 45, 95
3, 215040, Note_on_c, 2, 67, 95
3, 215040, Note_on_c, 2, 62, 95
3, 215040, Note_on_c, 2, 55, 95
3, 215040, Note_on_c, 2, 50, 95
3, 215040, Note_on_c, 2, 43, 95
3, 216000, Note_off_c, 2, 67, 95
3, 216000, Note_off_c, 2, 62, 95
3, 216000, Note_off_c, 2, 55, 95
3, 216000, Note_off_c, 2, 50, 95
3, 216000, Note_off_c, 2, 43, 95
3, 216000, Note_on_c, 2, 64, 95
3, 216000, Note_on_c, 2, 59, 95
3, 216000, Note_on_c, 2, 55, 95
3, 216000, Note_on_c, 2, 50, 95
3, 216000, Note_on_c, 2, 45, 95
3, 216000, Note_on_c, 2, 40, 95
3, 216040, Note_off_c, 2, 64, 95
3, 216040, Note_off_c, 2, 59, 95
3, 216040, Note_off_c, 2, 55, 95
3, 216040, Note_off_c, 2, 50, 95
3, 216040, Note_off_c, 2, 45, 95
3, 216040, Note_off_c, 2, 40, 95
3, 216480, Note_on_c, 2, 64, 95
3, 216480, Note_on_c, 2, 59, 95
3, 216480, Note_on_c, 2, 55, 95
3, 216480, Note_on_c, 2, 50, 95
3, 216480, Note_on_c, 2, 40, 95
3, 216520, Note_off_c, 2, 64, 95
3, 216520, Note_off_c, 2, 59, 95
3, 216520, Note_off_c, 2, 55, 95
3, 216520, Note_off_c, 2, 50, 95
3, 216520, Note_off_c, 2, 40, 95
3, 216960, Note_on_c, 2, 66, 95
3, 216960, Note_on_c, 2, 62, 95
3, 216960, Note_on_c, 2, 57, 95
3, 216960, Note_on_c, 2, 50, 95
3, 217200, Note_off_c, 2, 66, 95
3, 217200, Note_on_c, 2, 67, 95
3, 217440, Note_off_c, 2, 67, 95
3, 217440, Note_on_c, 2, 66, 95
3, 217680, Note_off_c, 2, 66, 95
3, 217680, Note_on_c, 2, 67, 95
3, 217920, Note_off_c, 2, 62, 95
3, 217920, Note_off_c, 2, 57, 95
3, 217920, Note_off_c, 2, 50, 95
3, 217920, Note_off_c, 2, 67, 95
3, 217920, Note_on_c, 2, 66, 95
3, 218400, Note_off_c, 2, 66, 95
3, 218400, Note_on_c, 3, 62, 95
3, 218520, Pitch_bend_c, 3, 6528
3, 218640, Pitch_bend_c, 3, 4736
3, 218640, Pitch_bend_c, 3, 8192
3, 218640, Note_off_c, 3, 62, 95
3, 218640, Note_on_c, 2, 57, 47
3, 218880, Note_off_c, 2, 57, 47
3, 218880, Note_on_c, 2, 62, 95
3, 218880, Note_on_c, 2, 55, 95
3, 218880, Note_on_c, 2, 48, 95
3, 220320, Note_off_c, 2, 62, 95
3, 220320, Note_off_c, 2, 55, 95
3, 220320, Note_off_c, 2, 48, 95
3, 220320, Note_on_c, 2, 67, 95
3, 220320, Note_on_c, 2, 62, 95
3, 220320, Note_on_c, 2, 55, 95
3, 220320, Note_on_c, 2, 47, 95
3, 221760, Note_off_c, 2, 67, 95
3, 221760, Note_off_c, 2, 62, 95
3, 221760, Note_off_c, 2, 55, 95
3, 221760, Note_off_c, 2, 47, 95
3, 221760, Note_on_c, 2, 67, 95
3, 221760, Note_on_c, 2, 62, 95
3, 221760, Note_on_c, 2, 55, 95
3, 221760, Note_on_c, 2, 52, 95
3, 221760, Note_on_c, 2, 45, 95
3, 222720, Note_off_c, 2, 67, 95
3, 222720, Note_off_c, 2, 62, 95
3, 222720, Note_off_c, 2, 55, 95
3, 222720, Note_off_c, 2, 52, 95
3, 222720, Note_off_c, 2, 45, 95
3, 222720, Note_on_c, 2, 67, 95
3, 222720, Note_on_c, 2, 62, 95
3, 222720, Note_on_c, 2, 55, 95
3, 222720, Note_on_c, 2, 50, 95
3, 222720, Note_on_c, 2, 43, 95
3, 223680, Note_off_c, 2, 67, 95
3, 223680, Note_off_c, 2, 62, 95
3, 223680, Note_off_c, 2, 55, 95
3, 223680, Note_off_c, 2, 50, 95
3, 223680, Note_off_c, 2, 43, 95
3, 223680, Note_on_c, 2, 64, 95
3, 223680, Note_on_c, 2, 59, 95
3, 223680, Note_on_c, 2, 55, 95
3, 223680, Note_on_c, 2, 50, 95
3, 223680, Note_on_c, 2, 45, 95
3, 223680, Note_on_c, 2, 40, 95
3, 223720, Note_off_c, 2, 64, 95
3, 223720, Note_off_c, 2, 59, 95
3, 223720, Note_off_c, 2, 55, 95
3, 223720, Note_off_c, 2, 50, 95
3, 223720, Note_off_c, 2, 45, 95
3, 223720, Note_off_c, 2, 40, 95
3, 224160, Note_on_c, 2, 64, 95
3, 224160, Note_on_c, 2, 59, 95
3, 224160, Note_on_c, 2, 55, 95
3, 224160, Note_on_c, 2, 50, 95
3, 224160, Note_on_c, 2, 40, 95
3, 224200, Note_off_c, 2, 64, 95
3, 224200, Note_off_c, 2, 59, 95
3, 224200, Note_off_c, 2, 55, 95
3, 224200, Note_off_c, 2, 50, 95
3, 224200, Note_off_c, 2, 40, 95
3, 224640, Note_on_c, 2, 66, 95
3, 224640, Note_on_c, 2, 62, 95
3, 224640, Note_on_c, 2, 57, 95
3, 224640, Note_on_c, 2, 50, 95
3, 224880, Note_off_c, 2, 66, 95
3, 224880, Note_on_c, 2, 67, 95
3, 225120, Note_off_c, 2, 67, 95
3, 225120, Note_on_c, 2, 66, 95
3, 225360, Note_off_c, 2, 66, 95
3, 225360, Note_on_c, 2, 67, 95
3, 225600, Note_off_c, 2, 62, 95
3, 225600, Note_off_c, 2, 57, 95
3, 225600, Note_off_c, 2, 50, 95
3, 225600, Note_off_c, 2, 67, 95
3, 225600, Note_on_c, 2, 66, 95
3, 226080, Note_off_c, 2, 66, 95
3, 226080, Note_on_c, 3, 62, 95
3, 226200, Pitch_bend_c, 3, 6528
3, 226320, Pitch_bend_c, 3, 4736
3, 226320, Pitch_bend_c, 3, 8192
3, 226320, Note_off_c, 3, 62, 95
3, 226320, Note_on_c, 2, 57, 47
3, 226560, Note_off_c, 2, 57, 47
3, 226560, Note_on_c, 2, 62, 95
3, 226560, Note_on_c, 2, 55, 95
3, 226560, Note_on_c, 2, 48, 95
3, 230400, Note_off_c, 2, 62, 95
3, 230400, Note_off_c, 2, 55, 95
3, 230400, Note_off_c, 2, 48, 95
3, 230400, Note_on_c, 2, 55, 95
3, 230400, Note_on_c, 2, 50, 95
3, 230400, Note_on_c, 2, 43, 95
3, 234240, Note_off_c, 2, 55, 95
3, 234240, Note_off_c, 2, 50, 95
3, 234240, Note_off_c, 2, 43, 95
3, 234240, Note_on_c, 2, 62, 95
3, 234320, Note_off_c, 2, 62, 95
3, 234320, Note_on_c, 2, 59, 70
3, 234400, Note_off_c, 2, 59, 70
3, 234400, Note_on_c, 2, 55, 70
3, 234480, Note_off_c, 2, 55, 70
3, 234480, Note_on_c, 2, 62, 70
3, 234560, Note_off_c, 2, 62, 70
3, 234560, Note_on_c, 2, 59, 70
3, 234640, Note_off_c, 2, 59, 70
3, 234640, Note_on_c, 2, 55, 70
3, 234720, Note_off_c, 2, 55, 70
3, 234720, Note_on_c, 2, 62, 70
3, 234800, Note_off_c, 2, 62, 70
3, 234800, Note_on_c, 2, 59, 70
3, 234880, Note_off_c, 2, 59, 70
3, 234880, Note_on_c, 2, 55, 70
3, 234960, Note_off_c, 2, 55, 70
3, 234960, Note_on_c, 2, 62, 70
3, 235040, Note_off_c, 2, 62, 70
3, 235040, Note_on_c, 2, 59, 70
3, 235120, Note_off_c, 2, 59, 70
3, 235120, Note_on_c, 2, 55, 70
3, 235200, Note_off_c, 2, 55, 70
3, 235200, Note_on_c, 2, 62, 70
3, 235280, Note_off_c, 2, 62, 70
3, 235280, Note_on_c, 2, 59, 70
3, 235360, Note_off_c, 2, 59, 70
3, 235360, Note_on_c, 2, 55, 70
3, 235440, Note_off_c, 2, 55, 70
3, 235440, Note_on_c, 2, 62, 70
3, 235520, Note_off_c, 2, 62, 70
3, 235520, Note_on_c, 2, 59, 70
3, 235600, Note_off_c, 2, 59, 70
3, 235600, Note_on_c, 2, 55, 70
3, 235680, Note_off_c, 2, 55, 70
3, 235680, Note_on_c, 2, 62, 70
3, 235760, Note_off_c, 2, 62, 70
3, 235760, Note_on_c, 2, 59, 70
3, 235840, Note_off_c, 2, 59, 70
3, 235840, Note_on_c, 2, 55, 70
3, 235920, Note_off_c, 2, 55, 70
3, 235920, Note_on_c, 2, 62, 70
3, 236000, Note_off_c, 2, 62, 70
3, 236000, Note_on_c, 2, 59, 70
3, 236080, Note_off_c, 2, 59, 70
3, 236080, Note_on_c, 2, 55, 70
3, 236160, Note_off_c, 2, 55, 70
3, 236160, Note_on_c, 2, 62, 70
3, 236240, Note_off_c, 2, 62, 70
3, 236240, Note_on_c, 2, 59, 70
3, 236320, Note_off_c, 2, 59, 70
3, 236320, Note_on_c, 2, 55, 70
3, 236400, Note_off_c, 2, 55, 70
3, 236400, Note_on_c, 2, 62, 70
3, 236480, Note_off_c, 2, 62, 70
3, 236480, Note_on_c, 2, 59, 70
3, 236560, Note_off_c, 2, 59, 70
3, 236560, Note_on_c, 2, 55, 70
3, 236640, Note_off_c, 2, 55, 70
3, 236640, Note_on_c, 2, 62, 70
3, 236720, Note_off_c, 2, 62, 70
3, 236720, Note_on_c, 2, 59, 70
3, 236800, Note_off_c, 2, 59, 70
3, 236800, Note_on_c, 2, 55, 70
3, 236880, Note_off_c, 2, 55, 70
3, 236880, Note_on_c, 2, 62, 70
3, 236960, Note_off_c, 2, 62, 70
3, 236960, Note_on_c, 2, 59, 70
3, 237040, Note_off_c, 2, 59, 70
3, 237040, Note_on_c, 2, 55, 70
3, 237120, Note_off_c, 2, 55, 70
3, 237120, Note_on_c, 3, 62, 70
3, 237240, Pitch_bend_c, 3, 6528
3, 237360, Pitch_bend_c, 3, 4736
3, 237360, Pitch_bend_c, 3, 8192
3, 237360, Note_off_c, 3, 62, 70
3, 237360, Note_on_c, 2, 57, 95
3, 237600, Note_off_c, 2, 57, 95
3, 237600, Note_on_c, 2, 59, 95
3, 237600, Note_on_c, 2, 55, 95
3, 237600, Note_on_c, 2, 50, 95
3, 238440, Note_on_c, 3, 52, 95
3, 238560, Note_off_c, 2, 59, 95
3, 238560, Note_off_c, 2, 55, 95
3, 238560, Note_off_c, 2, 50, 95
3, 238560, Note_off_c, 3, 52, 95
3, 238560, Note_on_c, 3, 59, 95
3, 239040, Note_off_c, 3, 59, 95
3, 239040, Note_on_c, 2, 67, 31
3, 239040, Note_on_c, 2, 79, 95
3, 240000, Note_off_c, 2, 67, 31
3, 240000, Note_off_c, 2, 79, 95
3, 240000, Note_on_c, 2, 62, 31
3, 240000, Note_on_c, 2, 74, 95
3, 240960, Note_off_c, 2, 62, 31
3, 240960, Note_off_c, 2, 74, 95
3, 240960, Note_on_c, 2, 60, 31
3, 240960, Note_on_c, 2, 72, 95
3, 241920, Note_off_c, 2, 60, 31
3, 241920, Note_off_c, 2, 72, 95
3, 241920, End_track
4, 0, Start_track
4, 0, Pitch_bend_c, 4, 8192
4, 0, Control_c, 4, 7, 95
4, 0, Control_c, 4, 10, 63
4, 0, Control_c, 4, 93, 0
4, 0, Control_c, 4, 91, 0
4, 0, Control_c, 4, 95, 0
4, 0, Control_c, 4, 92, 0
4, 0, Control_c, 4, 11, 127
4, 0, Program_c, 4, 29
4, 0, Control_c, 5, 7, 95
4, 0, Control_c, 5, 10, 63
4, 0, Control_c, 5, 93, 0
4, 0, Control_c, 5, 91, 0
4, 0, Control_c, 5, 95, 0
4, 0, Control_c, 5, 92, 0
4, 0, Control_c, 5, 11, 127
4, 0, Program_c, 5, 29
4, 35040, Note_on_c, 4, 62, 95
4, 36960, Note_off_c, 4, 62, 95
4, 36960, Note_on_c, 4, 62, 95
4, 37200, Note_off_c, 4, 62, 95
4, 37200, Note_on_c, 4, 61, 95
4, 37440, Note_off_c, 4, 61, 95
4, 37440, Note_on_c, 4, 62, 95
4, 37920, Note_off_c, 4, 62, 95
4, 37920, Note_on_c, 4, 67, 95
4, 38400, Note_off_c, 4, 67, 95
4, 38400, Note_on_c, 4, 60, 95
4, 40320, Note_off_c, 4, 60, 95
4, 40320, Note_on_c, 4, 48, 95
4, 40800, Note_off_c, 4, 48, 95
4, 40800, Note_on_c, 4, 47, 95
4, 41280, Note_off_c, 4, 47, 95
4, 41280, Note_on_c, 4, 48, 95
4, 41760, Note_off_c, 4, 48, 95
4, 41760, Note_on_c, 4, 49, 95
4, 42240, Note_off_c, 4, 49, 95
4, 42240, Note_on_c, 4, 50, 95
4, 43080, Note_on_c, 5, 50, 95
4, 43200, Note_off_c, 4, 50, 95
4, 43200, Note_off_c, 5, 50, 95
4, 43200, Note_on_c, 5, 52, 95
4, 43680, Note_off_c, 5, 52, 95
4, 43680, Note_on_c, 4, 50, 95
4, 44520, Note_on_c, 5, 45, 95
4, 44640, Note_off_c, 4, 50, 95
4, 44640, Note_off_c, 5, 45, 95
4, 44640, Note_on_c, 5, 47, 95
4, 45120, Note_off_c, 5, 47, 95
4, 45120, Note_on_c, 4, 45, 95
4, 46080, Note_off_c, 4, 45, 95
4, 46080, Note_on_c, 4, 43, 95
4, 48000, Note_off_c, 4, 43, 95
4, 69120, Note_on_c, 4, 48, 95
4, 71040, Note_off_c, 4, 48, 95
4, 71040, Note_on_c, 4, 48, 95
4, 71520, Note_off_c, 4, 48, 95
4, 71520, Note_on_c, 4, 47, 95
4, 72000, Note_off_c, 4, 47, 95
4, 72000, Note_on_c, 4, 48, 95
4, 72480, Note_off_c, 4, 48, 95
4, 72480, Note_on_c, 4, 49, 95
4, 72960, Note_off_c, 4, 49, 95
4, 72960, Note_on_c, 4, 50, 95
4, 73800, Note_on_c, 5, 50, 95
4, 73920, Note_off_c, 4, 50, 95
4, 73920, Note_off_c, 5, 50, 95
4, 73920, Note_on_c, 5, 52, 95
4, 74400, Note_off_c, 5, 52, 95
4, 74400, Note_on_c, 4, 50, 95
4, 75240, Note_on_c, 5, 45, 95
4, 75360, Note_off_c, 4, 50, 95
4, 75360, Note_off_c, 5, 45, 95
4, 75360, Note_on_c, 5, 47, 95
4, 75840, Note_off_c, 5, 47, 95
4, 75840, Note_on_c, 4, 45, 95
4, 76800, Note_off_c, 4, 45, 95
4, 76800, Note_on_c, 4, 43, 95
4, 78720, Note_off_c, 4, 43, 95
4, 142080, Note_on_c, 4, 62, 95
4, 144960, Note_off_c, 4, 62, 95
4, 145440, Note_on_c, 4, 62, 95
4, 145920, Note_off_c, 4, 62, 95
4, 145920, Note_on_c, 4, 60, 95
4, 147840, Note_off_c, 4, 60, 95
4, 147840, Note_on_c, 4, 48, 95
4, 148320, Note_off_c, 4, 48, 95
4, 148320, Note_on_c, 4, 47, 95
4, 148800, Note_off_c, 4, 47, 95
4, 148800, Note_on_c, 4, 48, 95
4, 149280, Note_off_c, 4, 48, 95
4, 149280, Note_on_c, 4, 49, 95
4, 149760, Note_off_c, 4, 49, 95
4, 149760, Note_on_c, 4, 50, 95
4, 150600, Note_on_c, 5, 50, 95
4, 150720, Note_off_c, 4, 50, 95
4, 150720, Note_off_c, 5, 50, 95
4, 150720, Note_on_c, 5, 52, 95
4, 151200, Note_off_c, 5, 52, 95
4, 151200, Note_on_c, 4, 50, 95
4, 152040, Note_on_c, 5, 45, 95
4, 152160, Note_off_c, 4, 50, 95
4, 152160, Note_off_c, 5, 45, 95
4, 152160, Note_on_c, 5, 47, 95
4, 152640, Note_off_c, 5, 47, 95
4, 152640, Note_on_c, 4, 45, 95
4, 153600, Note_off_c, 4, 45, 95
4, 153600, Note_on_c, 4, 43, 95
4, 156480, Note_off_c, 4, 43, 95
4, 156480, End_track
5, 0, Start_track
5, 0, Pitch_bend_c, 6, 8192
5, 0, Control_c, 6, 7, 95
5, 0, Control_c, 6, 10, 39
5, 0, Control_c, 6, 93, 0
5, 0, Control_c, 6, 91, 0
5, 0, Control_c, 6, 95, 0
5, 0, Control_c, 6, 92, 0
5, 0, Control_c, 6, 11, 127
5, 0, Program_c, 6, 30
5, 0, Control_c, 7, 7, 95
5, 0, Control_c, 7, 10, 39
5, 0, Control_c, 7, 93, 0
5, 0, Control_c, 7, 91, 0
5, 0, Control_c, 7, 95, 0
5, 0, Control_c, 7, 92, 0
5, 0, Control_c, 7, 11, 127
5, 0, Program_c, 7, 30
5, 0, Note_on_c, 6, 67, 95
5, 0, Note_on_c, 6, 62, 95
5, 0, Note_on_c, 6, 55, 95
5, 0, Note_on_c, 6, 50, 95
5, 0, Note_on_c, 6, 43, 95
5, 960, Note_off_c, 6, 67, 95
5, 960, Note_off_c, 6, 62, 95
5, 960, Note_off_c, 6, 55, 95
5, 960, Note_off_c, 6, 50, 95
5, 960, Note_off_c, 6, 43, 95
5, 960, Note_on_c, 6, 64, 95
5, 960, Note_on_c, 6, 59, 95
5, 960, Note_on_c, 6, 55, 95
5, 960, Note_on_c, 6, 50, 95
5, 960, Note_on_c, 6, 40, 95
5, 1000, Note_off_c, 6, 64, 95
5, 1000, Note_off_c, 6, 59, 95
5, 1000, Note_off_c, 6, 55, 95
5, 1000, Note_off_c, 6, 50, 95
5, 1000, Note_off_c, 6, 40, 95
5, 1920, Note_on_c, 6, 66, 95
5, 1920, Note_on_c, 6, 62, 95
5, 1920, Note_on_c, 6, 57, 95
5, 1920, Note_on_c, 6, 50, 95
5, 2160, Note_off_c, 6, 66, 95
5, 2160, Note_on_c, 6, 67, 95
5, 2400, Note_off_c, 6, 67, 95
5, 2400, Note_on_c, 6, 66, 95
5, 2640, Note_off_c, 6, 66, 95
5, 2640, Note_on_c, 6, 67, 95
5, 2880, Note_off_c, 6, 62, 95
5, 2880, Note_off_c, 6, 57, 95
5, 2880, Note_off_c, 6, 50, 95
5, 2880, Note_off_c, 6, 67, 95
5, 2880, Note_on_c, 6, 66, 95
5, 3360, Note_off_c, 6, 66, 95
5, 3360, Note_on_c, 6, 62, 95
5, 3840, Note_off_c, 6, 62, 95
5, 3840, Note_on_c, 6, 48, 95
5, 4320, Note_on_c, 6, 62, 95
5, 4560, Note_off_c, 6, 62, 95
5, 4560, Note_on_c, 6, 55, 95
5, 4800, Note_off_c, 6, 55, 95
5, 4800, Note_on_c, 6, 62, 95
5, 5040, Note_off_c, 6, 62, 95
5, 5040, Note_on_c, 6, 55, 95
5, 5280, Note_off_c, 6, 48, 95
5, 5280, Note_on_c, 6, 47, 95
5, 5520, Note_off_c, 6, 55, 95
5, 5520, Note_on_c, 6, 62, 95
5, 5760, Note_off_c, 6, 62, 95
5, 5760, Note_on_c, 6, 55, 95
5, 6000, Note_off_c, 6, 47, 95
5, 6000, Note_on_c, 6, 47, 95
5, 6240, Note_off_c, 6, 55, 95
5, 6240, Note_on_c, 6, 62, 95
5, 6480, Note_off_c, 6, 47, 95
5, 6720, Note_off_c, 6, 62, 95
5, 6720, Note_on_c, 6, 55, 95
5, 6720, Note_on_c, 6, 45, 95
5, 6960, Note_off_c, 6, 55, 95
5, 6960, Note_on_c, 6, 62, 95
5, 7200, Note_off_c, 6, 62, 95
5, 7200, Note_on_c, 6, 55, 95
5, 7680, Note_off_c, 6, 45, 95
5, 7680, Note_off_c, 6, 55, 95
5, 7680, Note_on_c, 6, 67, 95
5, 7680, Note_on_c, 6, 62, 95
5, 7680, Note_on_c, 6, 55, 95
5, 7680, Note_on_c, 6, 50, 95
5, 7680, Note_on_c, 6, 43, 95
5, 8640, Note_off_c, 6, 67, 95
5, 8640, Note_off_c, 6, 62, 95
5, 8640, Note_off_c, 6, 55, 95
5, 8640, Note_off_c, 6, 50, 95
5, 8640, Note_off_c, 6, 43, 95
5, 8640, Note_on_c, 6, 64, 95
5, 8640, Note_on_c, 6, 59, 95
5, 8640, Note_on_c, 6, 55, 95
5, 8640, Note_on_c, 6, 50, 95
5, 8640, Note_on_c, 6, 40, 95
5, 8680, Note_off_c, 6, 64, 95
5, 8680, Note_off_c, 6, 59, 95
5, 8680, Note_off_c, 6, 55, 95
5, 8680, Note_off_c, 6, 50, 95
5, 8680, Note_off_c, 6, 40, 95
5, 8880, Note_on_c, 6, 64, 95
5, 8880, Note_on_c, 6, 59, 95
5, 8880, Note_on_c, 6, 55, 95
5, 8880, Note_on_c, 6, 50, 95
5, 8880, Note_on_c, 6, 40, 95
5, 8920, Note_off_c, 6, 64, 95
5, 8920, Note_off_c, 6, 59, 95
5, 8920, Note_off_c, 6, 55, 95
5, 8920, Note_off_c, 6, 50, 95
5, 8920, Note_off_c, 6, 40, 95
5, 9120, Note_on_c, 6, 64, 95
5, 9120, Note_on_c, 6, 59, 95
5, 9120, Note_on_c, 6, 55, 95
5, 9120, Note_on_c, 6, 50, 95
5, 9120, Note_on_c, 6, 40, 95
5, 9160, Note_off_c, 6, 64, 95
5, 9160, Note_off_c, 6, 59, 95
5, 9160, Note_off_c, 6, 55, 95
5, 9160, Note_off_c, 6, 50, 95
5, 9160, Note_off_c, 6, 40, 95
5, 9360, Note_on_c, 6, 64, 95
5, 9360, Note_on_c, 6, 59, 95
5, 9360, Note_on_c, 6, 55, 95
5, 9360, Note_on_c, 6, 50, 95
5, 9360, Note_on_c, 6, 40, 95
5, 9400, Note_off_c, 6, 64, 95
5, 9400, Note_off_c, 6, 59, 95
5, 9400, Note_off_c, 6, 55, 95
5, 9400, Note_off_c, 6, 50, 95
5, 9400, Note_off_c, 6, 40, 95
5, 9600, Note_on_c, 6, 66, 95
5, 9600, Note_on_c, 6, 62, 95
5, 9600, Note_on_c, 6, 57, 95
5, 9600, Note_on_c, 6, 50, 95
5, 9840, Note_off_c, 6, 66, 95
5, 9840, Note_on_c, 6, 67, 95
5, 10080, Note_off_c, 6, 67, 95
5, 10080, Note_on_c, 6, 66, 95
5, 10320, Note_off_c, 6, 66, 95
5, 10320, Note_on_c, 6, 67, 95
5, 10560, Note_off_c, 6, 62, 95
5, 10560, Note_off_c, 6, 57, 95
5, 10560, Note_off_c, 6, 50, 95
5, 10560, Note_off_c, 6, 67, 95
5, 10560, Note_on_c, 6, 66, 95
5, 11040, Note_off_c, 6, 66, 95
5, 11040, Note_on_c, 6, 62, 95
5, 11520, Note_off_c, 6, 62, 95
5, 11520, Note_on_c, 6, 48, 95
5, 11760, Note_on_c, 6, 62, 95
5, 12000, Note_off_c, 6, 62, 95
5, 12000, Note_on_c, 6, 55, 95
5, 12240, Note_off_c, 6, 48, 95
5, 12240, Note_on_c, 6, 48, 95
5, 12480, Note_off_c, 6, 55, 95
5, 12480, Note_on_c, 6, 62, 95
5, 12960, Note_off_c, 6, 48, 95
5, 12960, Note_off_c, 6, 62, 95
5, 12960, Note_on_c, 6, 55, 95
5, 12960, Note_on_c, 6, 47, 95
5, 13200, Note_off_c, 6, 55, 95
5, 13200, Note_on_c, 6, 62, 95
5, 13440, Note_off_c, 6, 62, 95
5, 13440, Note_on_c, 6, 55, 95
5, 13680, Note_off_c, 6, 47, 95
5, 13680, Note_on_c, 6, 47, 95
5, 13920, Note_off_c, 6, 55, 95
5, 13920, Note_on_c, 6, 62, 95
5, 14400, Note_off_c, 6, 47, 95
5, 14400, Note_off_c, 6, 62, 95
5, 14400, Note_on_c, 6, 55, 95
5, 14400, Note_on_c, 6, 45, 95
5, 14640, Note_off_c, 6, 55, 95
5, 14640, Note_on_c, 6, 62, 95
5, 14880, Note_off_c, 6, 62, 95
5, 14880, Note_on_c, 6, 55, 95
5, 15120, Note_off_c, 6, 55, 95
5, 15120, Note_on_c, 6, 55, 95
5, 15360, Note_off_c, 6, 45, 95
5, 15360, Note_off_c, 6, 55, 95
5, 15360, Note_on_c, 6, 67, 95
5, 15360, Note_on_c, 6, 62, 95
5, 15360, Note_on_c, 6, 55, 95
5, 15360, Note_on_c, 6, 50, 95
5, 15360, Note_on_c, 6, 43, 95
5, 16320, Note_off_c, 6, 67, 95
5, 16320, Note_off_c, 6, 62, 95
5, 16320, Note_off_c, 6, 55, 95
5, 16320, Note_off_c, 6, 50, 95
5, 16320, Note_off_c, 6, 43, 95
5, 16320, Note_on_c, 6, 64, 95
5, 16320, Note_on_c, 6, 59, 95
5, 16320, Note_on_c, 6, 55, 95
5, 16320, Note_on_c, 6, 50, 95
5, 16320, Note_on_c, 6, 40, 95
5, 16360, Note_off_c, 6, 64, 95
5, 16360, Note_off_c, 6, 59, 95
5, 16360, Note_off_c, 6, 55, 95
5, 16360, Note_off_c, 6, 50, 95
5, 16360, Note_off_c, 6, 40, 95
5, 16560, Note_on_c, 6, 64, 95
5, 16560, Note_on_c, 6, 59, 95
5, 16560, Note_on_c, 6, 55, 95
5, 16560, Note_on_c, 6, 50, 95
5, 16560, Note_on_c, 6, 40, 95
5, 16600, Note_off_c, 6, 64, 95
5, 16600, Note_off_c, 6, 59, 95
5, 16600, Note_off_c, 6, 55, 95
5, 16600, Note_off_c, 6, 50, 95
5, 16600, Note_off_c, 6, 40, 95
5, 16800, Note_on_c, 6, 64, 95
5, 16800, Note_on_c, 6, 59, 95
5, 16800, Note_on_c, 6, 55, 95
5, 16800, Note_on_c, 6, 50, 95
5, 16800, Note_on_c, 6, 40, 95
5, 16840, Note_off_c, 6, 64, 95
5, 16840, Note_off_c, 6, 59, 95
5, 16840, Note_off_c, 6, 55, 95
5, 16840, Note_off_c, 6, 50, 95
5, 16840, Note_off_c, 6, 40, 95
5, 17040, Note_on_c, 6, 64, 95
5, 17040, Note_on_c, 6, 59, 95
5, 17040, Note_on_c, 6, 55, 95
5, 17040, Note_on_c, 6, 50, 95
5, 17040, Note_on_c, 6, 40, 95
5, 17080, Note_off_c, 6, 64, 95
5, 17080, Note_off_c, 6, 59, 95
5, 17080, Note_off_c, 6, 55, 95
5, 17080, Note_off_c, 6, 50, 95
5, 17080, Note_off_c, 6, 40, 95
5, 17280, Note_on_c, 6, 66, 95
5, 17280, Note_on_c, 6, 62, 95
5, 17280, Note_on_c, 6, 57, 95
5, 17280, Note_on_c, 6, 50, 95
5, 17520, Note_off_c, 6, 66, 95
5, 17520, Note_on_c, 6, 67, 95
5, 17760, Note_off_c, 6, 67, 95
5, 17760, Note_on_c, 6, 66, 95
5, 18000, Note_off_c, 6, 66, 95
5, 18000, Note_on_c, 6, 67, 95
5, 18240, Note_off_c, 6, 62, 95
5, 18240, Note_off_c, 6, 57, 95
5, 18240, Note_off_c, 6, 50, 95
5, 18240, Note_off_c, 6, 67, 95
5, 18240, Note_on_c, 6, 66, 95
5, 18720, Note_off_c, 6, 66, 95
5, 18720, Note_on_c, 6, 62, 95
5, 19200, Note_off_c, 6, 62, 95
5, 19200, Note_on_c, 6, 48, 95
5, 19440, Note_on_c, 6, 62, 95
5, 19680, Note_off_c, 6, 62, 95
5, 19680, Note_on_c, 6, 55, 95
5, 19920, Note_off_c, 6, 48, 95
5, 19920, Note_on_c, 6, 48, 95
5, 20160, Note_off_c, 6, 55, 95
5, 20160, Note_on_c, 6, 62, 95
5, 20640, Note_off_c, 6, 48, 95
5, 20640, Note_off_c, 6, 62, 95
5, 20640, Note_on_c, 6, 55, 95
5, 20640, Note_on_c, 6, 47, 95
5, 20880, Note_off_c, 6, 55, 95
5, 20880, Note_on_c, 6, 62, 95
5, 21120, Note_off_c, 6, 62, 95
5, 21120, Note_on_c, 6, 55, 95
5, 21360, Note_off_c, 6, 47, 95
5, 21360, Note_on_c, 6, 47, 95
5, 21600, Note_off_c, 6, 55, 95
5, 21600, Note_on_c, 6, 62, 95
5, 22080, Note_off_c, 6, 47, 95
5, 22080, Note_off_c, 6, 62, 95
5, 22080, Note_on_c, 6, 55, 95
5, 22080, Note_on_c, 6, 45, 95
5, 22320, Note_off_c, 6, 55, 95
5, 22320, Note_on_c, 6, 62, 95
5, 22560, Note_off_c, 6, 62, 95
5, 22560, Note_on_c, 6, 55, 95
5, 22800, Note_off_c, 6, 55, 95
5, 22800, Note_on_c, 6, 55, 95
5, 23040, Note_off_c, 6, 45, 95
5, 23040, Note_off_c, 6, 55, 95
5, 23040, Note_on_c, 6, 67, 95
5, 23040, Note_on_c, 6, 62, 95
5, 23040, Note_on_c, 6, 55, 95
5, 23040, Note_on_c, 6, 50, 95
5, 23040, Note_on_c, 6, 43, 95
5, 24000, Note_off_c, 6, 67, 95
5, 24000, Note_off_c, 6, 62, 95
5, 24000, Note_off_c, 6, 55, 95
5, 24000, Note_off_c, 6, 50, 95
5, 24000, Note_off_c, 6, 43, 95
5, 24000, Note_on_c, 6, 64, 95
5, 24000, Note_on_c, 6, 59, 95
5, 24000, Note_on_c, 6, 55, 95
5, 24000, Note_on_c, 6, 50, 95
5, 24000, Note_on_c, 6, 40, 95
5, 24040, Note_off_c, 6, 64, 95
5, 24040, Note_off_c, 6, 59, 95
5, 24040, Note_off_c, 6, 55, 95
5, 24040, Note_off_c, 6, 50, 95
5, 24040, Note_off_c, 6, 40, 95
5, 24480, Note_on_c, 6, 64, 95
5, 24480, Note_on_c, 6, 59, 95
5, 24480, Note_on_c, 6, 55, 95
5, 24480, Note_on_c, 6, 50, 95
5, 24480, Note_on_c, 6, 40, 95
5, 24520, Note_off_c, 6, 64, 95
5, 24520, Note_off_c, 6, 59, 95
5, 24520, Note_off_c, 6, 55, 95
5, 24520, Note_off_c, 6, 50, 95
5, 24520, Note_off_c, 6, 40, 95
5, 24720, Note_on_c, 6, 64, 95
5, 24720, Note_on_c, 6, 59, 95
5, 24720, Note_on_c, 6, 55, 95
5, 24720, Note_on_c, 6, 50, 95
5, 24720, Note_on_c, 6, 40, 95
5, 24760, Note_off_c, 6, 64, 95
5, 24760, Note_off_c, 6, 59, 95
5, 24760, Note_off_c, 6, 55, 95
5, 24760, Note_off_c, 6, 50, 95
5, 24760, Note_off_c, 6, 40, 95
5, 24960, Note_on_c, 6, 66, 95
5, 24960, Note_on_c, 6, 62, 95
5, 24960, Note_on_c, 6, 57, 95
5, 24960, Note_on_c, 6, 50, 95
5, 25200, Note_off_c, 6, 66, 95
5, 25200, Note_on_c, 6, 67, 95
5, 25440, Note_off_c, 6, 67, 95
5, 25440, Note_on_c, 6, 66, 95
5, 25680, Note_off_c, 6, 66, 95
5, 25680, Note_on_c, 6, 67, 95
5, 25920, Note_off_c, 6, 62, 95
5, 25920, Note_off_c, 6, 57, 95
5, 25920, Note_off_c, 6, 50, 95
5, 25920, Note_off_c, 6, 67, 95
5, 25920, Note_on_c, 6, 66, 95
5, 26400, Note_off_c, 6, 66, 95
5, 26400, Note_on_c, 6, 62, 95
5, 26880, Note_off_c, 6, 62, 95
5, 26880, Note_on_c, 6, 48, 95
5, 27120, Note_on_c, 6, 62, 95
5, 27360, Note_off_c, 6, 62, 95
5, 27360, Note_on_c, 6, 55, 95
5, 27600, Note_off_c, 6, 48, 95
5, 27600, Note_on_c, 6, 48, 95
5, 27840, Note_off_c, 6, 55, 95
5, 27840, Note_on_c, 6, 62, 95
5, 28320, Note_off_c, 6, 48, 95
5, 28320, Note_off_c, 6, 62, 95
5, 28320, Note_on_c, 6, 55, 95
5, 28320, Note_on_c, 6, 47, 95
5, 28560, Note_off_c, 6, 55, 95
5, 28560, Note_on_c, 6, 62, 95
5, 28800, Note_off_c, 6, 62, 95
5, 28800, Note_on_c, 6, 55, 95
5, 29040, Note_off_c, 6, 47, 95
5, 29040, Note_on_c, 6, 47, 95
5, 29280, Note_off_c, 6, 55, 95
5, 29280, Note_on_c, 6, 62, 95
5, 29760, Note_off_c, 6, 47, 95
5, 29760, Note_off_c, 6, 62, 95
5, 29760, Note_on_c, 6, 55, 95
5, 29760, Note_on_c, 6, 45, 95
5, 30000, Note_off_c, 6, 55, 95
5, 30000, Note_on_c, 6, 62, 95
5, 30240, Note_off_c, 6, 62, 95
5, 30240, Note_on_c, 6, 55, 95
5, 30480, Note_off_c, 6, 55, 95
5, 30480, Note_on_c, 6, 55, 95
5, 30720, Note_off_c, 6, 45, 95
5, 30720, Note_off_c, 6, 55, 95
5, 30720, Note_on_c, 6, 67, 95
5, 30720, Note_on_c, 6, 62, 95
5, 30720, Note_on_c, 6, 55, 95
5, 30720, Note_on_c, 6, 50, 95
5, 30720, Note_on_c, 6, 43, 95
5, 32640, Note_off_c, 6, 67, 95
5, 32640, Note_off_c, 6, 62, 95
5, 32640, Note_off_c, 6, 55, 95
5, 32640, Note_off_c, 6, 50, 95
5, 32640, Note_off_c, 6, 43, 95
5, 92160, Note_on_c, 6, 69, 95
5, 92160, Note_on_c, 6, 64, 95
5, 92160, Note_on_c, 6, 60, 95
5, 92160, Note_on_c, 6, 57, 95
5, 92160, Note_on_c, 6, 52, 95
5, 92160, Note_on_c, 6, 45, 95
5, 92400, Note_off_c, 6, 69, 95
5, 92400, Note_off_c, 6, 64, 95
5, 92400, Note_off_c, 6, 60, 95
5, 92400, Note_off_c, 6, 57, 95
5, 92400, Note_off_c, 6, 52, 95
5, 92400, Note_off_c, 6, 45, 95
5, 92400, Note_on_c, 6, 69, 95
5, 92400, Note_on_c, 6, 64, 95
5, 92400, Note_on_c, 6, 60, 95
5, 92400, Note_on_c, 6, 57, 95
5, 92400, Note_on_c, 6, 52, 95
5, 92400, Note_on_c, 6, 45, 95
5, 92640, Note_off_c, 6, 69, 95
5, 92640, Note_off_c, 6, 64, 95
5, 92640, Note_off_c, 6, 60, 95
5, 92640, Note_off_c, 6, 57, 95
5, 92640, Note_off_c, 6, 52, 95
5, 92640, Note_off_c, 6, 45, 95
5, 92640, Note_on_c, 6, 69, 95
5, 92640, Note_on_c, 6, 64, 95
5, 92640, Note_on_c, 6, 60, 95
5, 92640, Note_on_c, 6, 57, 95
5, 92640, Note_on_c, 6, 52, 95
5, 92640, Note_on_c, 6, 45, 95
5, 92880, Note_off_c, 6, 69, 95
5, 92880, Note_off_c, 6, 64, 95
5, 92880, Note_off_c, 6, 60, 95
5, 92880, Note_off_c, 6, 57, 95
5, 92880, Note_off_c, 6, 52, 95
5, 92880, Note_off_c, 6, 45, 95
5, 92880, Note_on_c, 6, 69, 95
5, 92880, Note_on_c, 6, 64, 95
5, 92880, Note_on_c, 6, 60, 95
5, 92880, Note_on_c, 6, 57, 95
5, 92880, Note_on_c, 6, 52, 95
5, 92880, Note_on_c, 6, 45, 95
5, 93120, Note_off_c, 6, 69, 95
5, 93120, Note_off_c, 6, 64, 95
5, 93120, Note_off_c, 6, 60, 95
5, 93120, Note_off_c, 6, 57, 95
5, 93120, Note_off_c, 6, 52, 95
5, 93120, Note_off_c, 6, 45, 95
5, 93120, Note_on_c, 6, 69, 95
5, 93120, Note_on_c, 6, 64, 95
5, 93120, Note_on_c, 6, 60, 95
5, 93120, Note_on_c, 6, 57, 95
5, 93120, Note_on_c, 6, 52, 95
5, 93120, Note_on_c, 6, 45, 95
5, 94080, Note_off_c, 6, 69, 95
5, 94080, Note_off_c, 6, 64, 95
5, 94080, Note_off_c, 6, 60, 95
5, 94080, Note_off_c, 6, 57, 95
5, 94080, Note_off_c, 6, 52, 95
5, 94080, Note_off_c, 6, 45, 95
5, 94080, Note_on_c, 6, 67, 95
5, 94080, Note_on_c, 6, 62, 95
5, 94080, Note_on_c, 6, 59, 95
5, 94080, Note_on_c, 6, 55, 95
5, 94080, Note_on_c, 6, 50, 95
5, 94080, Note_on_c, 6, 43, 95
5, 94320, Note_off_c, 6, 67, 95
5, 94320, Note_off_c, 6, 62, 95
5, 94320, Note_off_c, 6, 59, 95
5, 94320, Note_off_c, 6, 55, 95
5, 94320, Note_off_c, 6, 50, 95
5, 94320, Note_off_c, 6, 43, 95
5, 94320, Note_on_c, 6, 67, 95
5, 94320, Note_on_c, 6, 62, 95
5, 94320, Note_on_c, 6, 59, 95
5, 94320, Note_on_c, 6, 55, 95
5, 94320, Note_on_c, 6, 50, 95
5, 94320, Note_on_c, 6, 43, 95
5, 94560, Note_off_c, 6, 67, 95
5, 94560, Note_off_c, 6, 62, 95
5, 94560, Note_off_c, 6, 59, 95
5, 94560, Note_off_c, 6, 55, 95
5, 94560, Note_off_c, 6, 50, 95
5, 94560, Note_off_c, 6, 43, 95
5, 94560, Note_on_c, 6, 67, 95
5, 94560, Note_on_c, 6, 62, 95
5, 94560, Note_on_c, 6, 59, 95
5, 94560, Note_on_c, 6, 55, 95
5, 94560, Note_on_c, 6, 50, 95
5, 94560, Note_on_c, 6, 43, 95
5, 94800, Note_off_c, 6, 67, 95
5, 94800, Note_off_c, 6, 62, 95
5, 94800, Note_off_c, 6, 59, 95
5, 94800, Note_off_c, 6, 55, 95
5, 94800, Note_off_c, 6, 50, 95
5, 94800, Note_off_c, 6, 43, 95
5, 94800, Note_on_c, 6, 67, 95
5, 94800, Note_on_c, 6, 62, 95
5, 94800, Note_on_c, 6, 59, 95
5, 94800, Note_on_c, 6, 55, 95
5, 94800, Note_on_c, 6, 50, 95
5, 94800, Note_on_c, 6, 43, 95
5, 95040, Note_off_c, 6, 67, 95
5, 95040, Note_off_c, 6, 62, 95
5, 95040, Note_off_c, 6, 59, 95
5, 95040, Note_off_c, 6, 55, 95
5, 95040, Note_off_c, 6, 50, 95
5, 95040, Note_off_c, 6, 43, 95
5, 95040, Note_on_c, 6, 67, 95
5, 95040, Note_on_c, 6, 62, 95
5, 95040, Note_on_c, 6, 59, 95
5, 95040, Note_on_c, 6, 55, 95
5, 95040, Note_on_c, 6, 50, 95
5, 95040, Note_on_c, 6, 43, 95
5, 96000, Note_off_c, 6, 67, 95
5, 96000, Note_off_c, 6, 62, 95
5, 96000, Note_off_c, 6, 59, 95
5, 96000, Note_off_c, 6, 55, 95
5, 96000, Note_off_c, 6, 50, 95
5, 96000, Note_off_c, 6, 43, 95
5, 96000, Note_on_c, 6, 65, 95
5, 96000, Note_on_c, 6, 60, 95
5, 96000, Note_on_c, 6, 57, 95
5, 96000, Note_on_c, 6, 53, 95
5, 96000, Note_on_c, 6, 48, 95
5, 96000, Note_on_c, 6, 41, 95
5, 96480, Note_off_c, 6, 65, 95
5, 96480, Note_off_c, 6, 60, 95
5, 96480, Note_off_c, 6, 57, 95
5, 96480, Note_off_c, 6, 53, 95
5, 96480, Note_off_c, 6, 48, 95
5, 96480, Note_off_c, 6, 41, 95
5, 96480, Note_on_c, 6, 64, 95
5, 96480, Note_on_c, 6, 59, 95
5, 96480, Note_on_c, 6, 57, 95
5, 96480, Note_on_c, 6, 53, 95
5, 96480, Note_on_c, 6, 48, 95
5, 96480, Note_on_c, 6, 40, 95
5, 96960, Note_off_c, 6, 64, 95
5, 96960, Note_off_c, 6, 59, 95
5, 96960, Note_off_c, 6, 57, 95
5, 96960, Note_off_c, 6, 53, 95
5, 96960, Note_off_c, 6, 48, 95
5, 96960, Note_off_c, 6, 40, 95
5, 96960, Note_on_c, 6, 65, 95
5, 96960, Note_on_c, 6, 60, 95
5, 96960, Note_on_c, 6, 57, 95
5, 96960, Note_on_c, 6, 53, 95
5, 96960, Note_on_c, 6, 48, 95
5, 96960, Note_on_c, 6, 41, 95
5, 97440, Note_off_c, 6, 65, 95
5, 97440, Note_off_c, 6, 60, 95
5, 97440, Note_off_c, 6, 57, 95
5, 97440, Note_off_c, 6, 53, 95
5, 97440, Note_off_c, 6, 48, 95
5, 97440, Note_off_c, 6, 41, 95
5, 97440, Note_on_c, 6, 64, 95
5, 97440, Note_on_c, 6, 59, 95
5, 97440, Note_on_c, 6, 57, 95
5, 97440, Note_on_c, 6, 53, 95
5, 97440, Note_on_c, 6, 48, 95
5, 97440, Note_on_c, 6, 40, 95
5, 97920, Note_off_c, 6, 64, 95
5, 97920, Note_off_c, 6, 59, 95
5, 97920, Note_off_c, 6, 57, 95
5, 97920, Note_off_c, 6, 53, 95
5, 97920, Note_off_c, 6, 48, 95
5, 97920, Note_off_c, 6, 40, 95
5, 97920, Note_on_c, 6, 65, 95
5, 97920, Note_on_c, 6, 60, 95
5, 97920, Note_on_c, 6, 57, 95
5, 97920, Note_on_c, 6, 53, 95
5, 97920, Note_on_c, 6, 48, 95
5, 97920, Note_on_c, 6, 41, 95
5, 98400, Note_off_c, 6, 65, 95
5, 98400, Note_off_c, 6, 60, 95
5, 98400, Note_off_c, 6, 57, 95
5, 98400, Note_off_c, 6, 53, 95
5, 98400, Note_off_c, 6, 48, 95
5, 98400, Note_off_c, 6, 41, 95
5, 98400, Note_on_c, 6, 64, 95
5, 98400, Note_on_c, 6, 59, 95
5, 98400, Note_on_c, 6, 57, 95
5, 98400, Note_on_c, 6, 53, 95
5, 98400, Note_on_c, 6, 48, 95
5, 98400, Note_on_c, 6, 40, 95
5, 98880, Note_off_c, 6, 64, 95
5, 98880, Note_off_c, 6, 59, 95
5, 98880, Note_off_c, 6, 57, 95
5, 98880, Note_off_c, 6, 53, 95
5, 98880, Note_off_c, 6, 48, 95
5, 98880, Note_off_c, 6, 40, 95
5, 98880, Note_on_c, 6, 65, 95
5, 98880, Note_on_c, 6, 60, 95
5, 98880, Note_on_c, 6, 57, 95
5, 98880, Note_on_c, 6, 53, 95
5, 98880, Note_on_c, 6, 48, 95
5, 98880, Note_on_c, 6, 41, 95
5, 99360, Note_off_c, 6, 65, 95
5, 99360, Note_off_c, 6, 60, 95
5, 99360, Note_off_c, 6, 57, 95
5, 99360, Note_off_c, 6, 53, 95
5, 99360, Note_off_c, 6, 48, 95
5, 99360, Note_off_c, 6, 41, 95
5, 99360, Note_on_c, 6, 67, 95
5, 99360, Note_on_c, 6, 62, 95
5, 99360, Note_on_c, 6, 59, 95
5, 99360, Note_on_c, 6, 55, 95
5, 99360, Note_on_c, 6, 50, 95
5, 99360, Note_on_c, 6, 43, 95
5, 99840, Note_off_c, 6, 67, 95
5, 99840, Note_off_c, 6, 62, 95
5, 99840, Note_off_c, 6, 59, 95
5, 99840, Note_off_c, 6, 55, 95
5, 99840, Note_off_c, 6, 50, 95
5, 99840, Note_off_c, 6, 43, 95
5, 99840, Note_on_c, 6, 69, 95
5, 99840, Note_on_c, 6, 64, 95
5, 99840, Note_on_c, 6, 60, 95
5, 99840, Note_on_c, 6, 57, 95
5, 99840, Note_on_c, 6, 52, 95
5, 99840, Note_on_c, 6, 45, 95
5, 100080, Note_off_c, 6, 69, 95
5, 100080, Note_off_c, 6, 64, 95
5, 100080, Note_off_c, 6, 60, 95
5, 100080, Note_off_c, 6, 57, 95
5, 100080, Note_off_c, 6, 52, 95
5, 100080, Note_off_c, 6, 45, 95
5, 100080, Note_on_c, 6, 69, 95
5, 100080, Note_on_c, 6, 64, 95
5, 100080, Note_on_c, 6, 60, 95
5, 100080, Note_on_c, 6, 57, 95
5, 100080, Note_on_c, 6, 52, 95
5, 100080, Note_on_c, 6, 45, 95
5, 100320, Note_off_c, 6, 69, 95
5, 100320, Note_off_c, 6, 64, 95
5, 100320, Note_off_c, 6, 60, 95
5, 100320, Note_off_c, 6, 57, 95
5, 100320, Note_off_c, 6, 52, 95
5, 100320, Note_off_c, 6, 45, 95
5, 100320, Note_on_c, 6, 69, 95
5, 100320, Note_on_c, 6, 64, 95
5, 100320, Note_on_c, 6, 60, 95
5, 100320, Note_on_c, 6, 57, 95
5, 100320, Note_on_c, 6, 52, 95
5, 100320, Note_on_c, 6, 45, 95
5, 100560, Note_off_c, 6, 69, 95
5, 100560, Note_off_c, 6, 64, 95
5, 100560, Note_off_c, 6, 60, 95
5, 100560, Note_off_c, 6, 57, 95
5, 100560, Note_off_c, 6, 52, 95
5, 100560, Note_off_c, 6, 45, 95
5, 100560, Note_on_c, 6, 69, 95
5, 100560, Note_on_c, 6, 64, 95
5, 100560, Note_on_c, 6, 60, 95
5, 100560, Note_on_c, 6, 57, 95
5, 100560, Note_on_c, 6, 52, 95
5, 100560, Note_on_c, 6, 45, 95
5, 100800, Note_off_c, 6, 69, 95
5, 100800, Note_off_c, 6, 64, 95
5, 100800, Note_off_c, 6, 60, 95
5, 100800, Note_off_c, 6, 57, 95
5, 100800, Note_off_c, 6, 52, 95
5, 100800, Note_off_c, 6, 45, 95
5, 100800, Note_on_c, 6, 69, 95
5, 100800, Note_on_c, 6, 64, 95
5, 100800, Note_on_c, 6, 60, 95
5, 100800, Note_on_c, 6, 57, 95
5, 100800, Note_on_c, 6, 52, 95
5, 100800, Note_on_c, 6, 45, 95
5, 101760, Note_off_c, 6, 69, 95
5, 101760, Note_off_c, 6, 64, 95
5, 101760, Note_off_c, 6, 60, 95
5, 101760, Note_off_c, 6, 57, 95
5, 101760, Note_off_c, 6, 52, 95
5, 101760, Note_off_c, 6, 45, 95
5, 101760, Note_on_c, 6, 67, 95
5, 101760, Note_on_c, 6, 62, 95
5, 101760, Note_on_c, 6, 59, 95
5, 101760, Note_on_c, 6, 55, 95
5, 101760, Note_on_c, 6, 50, 95
5, 101760, Note_on_c, 6, 43, 95
5, 102000, Note_off_c, 6, 67, 95
5, 102000, Note_off_c, 6, 62, 95
5, 102000, Note_off_c, 6, 59, 95
5, 102000, Note_off_c, 6, 55, 95
5, 102000, Note_off_c, 6, 50, 95
5, 102000, Note_off_c, 6, 43, 95
5, 102000, Note_on_c, 6, 67, 95
5, 102000, Note_on_c, 6, 62, 95
5, 102000, Note_on_c, 6, 59, 95
5, 102000, Note_on_c, 6, 55, 95
5, 102000, Note_on_c, 6, 50, 95
5, 102000, Note_on_c, 6, 43, 95
5, 102240, Note_off_c, 6, 67, 95
5, 102240, Note_off_c, 6, 62, 95
5, 102240, Note_off_c, 6, 59, 95
5, 102240, Note_off_c, 6, 55, 95
5, 102240, Note_off_c, 6, 50, 95
5, 102240, Note_off_c, 6, 43, 95
5, 102240, Note_on_c, 6, 67, 95
5, 102240, Note_on_c, 6, 62, 95
5, 102240, Note_on_c, 6, 59, 95
5, 102240, Note_on_c, 6, 55, 95
5, 102240, Note_on_c, 6, 50, 95
5, 102240, Note_on_c, 6, 43, 95
5, 102480, Note_off_c, 6, 67, 95
5, 102480, Note_off_c, 6, 62, 95
5, 102480, Note_off_c, 6, 59, 95
5, 102480, Note_off_c, 6, 55, 95
5, 102480, Note_off_c, 6, 50, 95
5, 102480, Note_off_c, 6, 43, 95
5, 102480, Note_on_c, 6, 67, 95
5, 102480, Note_on_c, 6, 62, 95
5, 102480, Note_on_c, 6, 59, 95
5, 102480, Note_on_c, 6, 55, 95
5, 102480, Note_on_c, 6, 50, 95
5, 102480, Note_on_c, 6, 43, 95
5, 102720, Note_off_c, 6, 67, 95
5, 102720, Note_off_c, 6, 62, 95
5, 102720, Note_off_c, 6, 59, 95
5, 102720, Note_off_c, 6, 55, 95
5, 102720, Note_off_c, 6, 50, 95
5, 102720, Note_off_c, 6, 43, 95
5, 102720, Note_on_c, 6, 67, 95
5, 102720, Note_on_c, 6, 62, 95
5, 102720, Note_on_c, 6, 59, 95
5, 102720, Note_on_c, 6, 55, 95
5, 102720, Note_on_c, 6, 50, 95
5, 102720, Note_on_c, 6, 43, 95
5, 103680, Note_off_c, 6, 67, 95
5, 103680, Note_off_c, 6, 62, 95
5, 103680, Note_off_c, 6, 59, 95
5, 103680, Note_off_c, 6, 55, 95
5, 103680, Note_off_c, 6, 50, 95
5, 103680, Note_off_c, 6, 43, 95
5, 103680, Note_on_c, 6, 65, 95
5, 103680, Note_on_c, 6, 60, 95
5, 103680, Note_on_c, 6, 57, 95
5, 103680, Note_on_c, 6, 53, 95
5, 103680, Note_on_c, 6, 48, 95
5, 103680, Note_on_c, 6, 41, 95
5, 104160, Note_off_c, 6, 65, 95
5, 104160, Note_off_c, 6, 60, 95
5, 104160, Note_off_c, 6, 57, 95
5, 104160, Note_off_c, 6, 53, 95
5, 104160, Note_off_c, 6, 48, 95
5, 104160, Note_off_c, 6, 41, 95
5, 104160, Note_on_c, 6, 64, 95
5, 104160, Note_on_c, 6, 59, 95
5, 104160, Note_on_c, 6, 57, 95
5, 104160, Note_on_c, 6, 53, 95
5, 104160, Note_on_c, 6, 48, 95
5, 104160, Note_on_c, 6, 40, 95
5, 104640, Note_off_c, 6, 64, 95
5, 104640, Note_off_c, 6, 59, 95
5, 104640, Note_off_c, 6, 57, 95
5, 104640, Note_off_c, 6, 53, 95
5, 104640, Note_off_c, 6, 48, 95
5, 104640, Note_off_c, 6, 40, 95
5, 104640, Note_on_c, 6, 65, 95
5, 104640, Note_on_c, 6, 60, 95
5, 104640, Note_on_c, 6, 57, 95
5, 104640, Note_on_c, 6, 53, 95
5, 104640, Note_on_c, 6, 48, 95
5, 104640, Note_on_c, 6, 41, 95
5, 105120, Note_off_c, 6, 65, 95
5, 105120, Note_off_c, 6, 60, 95
5, 105120, Note_off_c, 6, 57, 95
5, 105120, Note_off_c, 6, 53, 95
5, 105120, Note_off_c, 6, 48, 95
5, 105120, Note_off_c, 6, 41, 95
5, 105120, Note_on_c, 6, 64, 95
5, 105120, Note_on_c, 6, 59, 95
5, 105120, Note_on_c, 6, 57, 95
5, 105120, Note_on_c, 6, 53, 95
5, 105120, Note_on_c, 6, 48, 95
5, 105120, Note_on_c, 6, 40, 95
5, 105600, Note_off_c, 6, 64, 95
5, 105600, Note_off_c, 6, 59, 95
5, 105600, Note_off_c, 6, 57, 95
5, 105600, Note_off_c, 6, 53, 95
5, 105600, Note_off_c, 6, 48, 95
5, 105600, Note_off_c, 6, 40, 95
5, 105600, Note_on_c, 6, 65, 95
5, 105600, Note_on_c, 6, 60, 95
5, 105600, Note_on_c, 6, 57, 95
5, 105600, Note_on_c, 6, 53, 95
5, 105600, Note_on_c, 6, 48, 95
5, 105600, Note_on_c, 6, 41, 95
5, 106080, Note_off_c, 6, 65, 95
5, 106080, Note_off_c, 6, 60, 95
5, 106080, Note_off_c, 6, 57, 95
5, 106080, Note_off_c, 6, 53, 95
5, 106080, Note_off_c, 6, 48, 95
5, 106080, Note_off_c, 6, 41, 95
5, 106080, Note_on_c, 6, 64, 95
5, 106080, Note_on_c, 6, 59, 95
5, 106080, Note_on_c, 6, 57, 95
5, 106080, Note_on_c, 6, 53, 95
5, 106080, Note_on_c, 6, 48, 95
5, 106080, Note_on_c, 6, 40, 95
5, 106560, Note_off_c, 6, 64, 95
5, 106560, Note_off_c, 6, 59, 95
5, 106560, Note_off_c, 6, 57, 95
5, 106560, Note_off_c, 6, 53, 95
5, 106560, Note_off_c, 6, 48, 95
5, 106560, Note_off_c, 6, 40, 95
5, 106560, Note_on_c, 6, 65, 95
5, 106560, Note_on_c, 6, 60, 95
5, 106560, Note_on_c, 6, 57, 95
5, 106560, Note_on_c, 6, 53, 95
5, 106560, Note_on_c, 6, 48, 95
5, 106560, Note_on_c, 6, 41, 95
5, 107040, Note_off_c, 6, 65, 95
5, 107040, Note_off_c, 6, 60, 95
5, 107040, Note_off_c, 6, 57, 95
5, 107040, Note_off_c, 6, 53, 95
5, 107040, Note_off_c, 6, 48, 95
5, 107040, Note_off_c, 6, 41, 95
5, 107040, Note_on_c, 6, 67, 95
5, 107040, Note_on_c, 6, 62, 95
5, 107040, Note_on_c, 6, 59, 95
5, 107040, Note_on_c, 6, 55, 95
5, 107040, Note_on_c, 6, 50, 95
5, 107040, Note_on_c, 6, 43, 95
5, 107520, Note_off_c, 6, 67, 95
5, 107520, Note_off_c, 6, 62, 95
5, 107520, Note_off_c, 6, 59, 95
5, 107520, Note_off_c, 6, 55, 95
5, 107520, Note_off_c, 6, 50, 95
5, 107520, Note_off_c, 6, 43, 95
5, 107520, Note_on_c, 6, 69, 95
5, 107520, Note_on_c, 6, 64, 95
5, 107520, Note_on_c, 6, 60, 95
5, 107520, Note_on_c, 6, 57, 95
5, 107520, Note_on_c, 6, 52, 95
5, 107520, Note_on_c, 6, 45, 95
5, 107760, Note_off_c, 6, 69, 95
5, 107760, Note_off_c, 6, 64, 95
5, 107760, Note_off_c, 6, 60, 95
5, 107760, Note_off_c, 6, 57, 95
5, 107760, Note_off_c, 6, 52, 95
5, 107760, Note_off_c, 6, 45, 95
5, 107760, Note_on_c, 6, 69, 95
5, 107760, Note_on_c, 6, 64, 95
5, 107760, Note_on_c, 6, 60, 95
5, 107760, Note_on_c, 6, 57, 95
5, 107760, Note_on_c, 6, 52, 95
5, 107760, Note_on_c, 6, 45, 95
5, 108000, Note_off_c, 6, 69, 95
5, 108000, Note_off_c, 6, 64, 95
5, 108000, Note_off_c, 6, 60, 95
5, 108000, Note_off_c, 6, 57, 95
5, 108000, Note_off_c, 6, 52, 95
5, 108000, Note_off_c, 6, 45, 95
5, 108000, Note_on_c, 6, 69, 95
5, 108000, Note_on_c, 6, 64, 95
5, 108000, Note_on_c, 6, 60, 95
5, 108000, Note_on_c, 6, 57, 95
5, 108000, Note_on_c, 6, 52, 95
5, 108000, Note_on_c, 6, 45, 95
5, 108240, Note_off_c, 6, 69, 95
5, 108240, Note_off_c, 6, 64, 95
5, 108240, Note_off_c, 6, 60, 95
5, 108240, Note_off_c, 6, 57, 95
5, 108240, Note_off_c, 6, 52, 95
5, 108240, Note_off_c, 6, 45, 95
5, 108240, Note_on_c, 6, 69, 95
5, 108240, Note_on_c, 6, 64, 95
5, 108240, Note_on_c, 6, 60, 95
5, 108240, Note_on_c, 6, 57, 95
5, 108240, Note_on_c, 6, 52, 95
5, 108240, Note_on_c, 6, 45, 95
5, 108480, Note_off_c, 6, 69, 95
5, 108480, Note_off_c, 6, 64, 95
5, 108480, Note_off_c, 6, 60, 95
5, 108480, Note_off_c, 6, 57, 95
5, 108480, Note_off_c, 6, 52, 95
5, 108480, Note_off_c, 6, 45, 95
5, 108480, Note_on_c, 6, 69, 95
5, 108480, Note_on_c, 6, 64, 95
5, 108480, Note_on_c, 6, 60, 95
5, 108480, Note_on_c, 6, 57, 95
5, 108480, Note_on_c, 6, 52, 95
5, 108480, Note_on_c, 6, 45, 95
5, 109440, Note_off_c, 6, 69, 95
5, 109440, Note_off_c, 6, 64, 95
5, 109440, Note_off_c, 6, 60, 95
5, 109440, Note_off_c, 6, 57, 95
5, 109440, Note_off_c, 6, 52, 95
5, 109440, Note_off_c, 6, 45, 95
5, 109440, Note_on_c, 6, 67, 95
5, 109440, Note_on_c, 6, 62, 95
5, 109440, Note_on_c, 6, 59, 95
5, 109440, Note_on_c, 6, 55, 95
5, 109440, Note_on_c, 6, 50, 95
5, 109440, Note_on_c, 6, 43, 95
5, 109680, Note_off_c, 6, 67, 95
5, 109680, Note_off_c, 6, 62, 95
5, 109680, Note_off_c, 6, 59, 95
5, 109680, Note_off_c, 6, 55, 95
5, 109680, Note_off_c, 6, 50, 95
5, 109680, Note_off_c, 6, 43, 95
5, 109680, Note_on_c, 6, 67, 95
5, 109680, Note_on_c, 6, 62, 95
5, 109680, Note_on_c, 6, 59, 95
5, 109680, Note_on_c, 6, 55, 95
5, 109680, Note_on_c, 6, 50, 95
5, 109680, Note_on_c, 6, 43, 95
5, 109920, Note_off_c, 6, 67, 95
5, 109920, Note_off_c, 6, 62, 95
5, 109920, Note_off_c, 6, 59, 95
5, 109920, Note_off_c, 6, 55, 95
5, 109920, Note_off_c, 6, 50, 95
5, 109920, Note_off_c, 6, 43, 95
5, 109920, Note_on_c, 6, 67, 95
5, 109920, Note_on_c, 6, 62, 95
5, 109920, Note_on_c, 6, 59, 95
5, 109920, Note_on_c, 6, 55, 95
5, 109920, Note_on_c, 6, 50, 95
5, 109920, Note_on_c, 6, 43, 95
5, 110160, Note_off_c, 6, 67, 95
5, 110160, Note_off_c, 6, 62, 95
5, 110160, Note_off_c, 6, 59, 95
5, 110160, Note_off_c, 6, 55, 95
5, 110160, Note_off_c, 6, 50, 95
5, 110160, Note_off_c, 6, 43, 95
5, 110160, Note_on_c, 6, 67, 95
5, 110160, Note_on_c, 6, 62, 95
5, 110160, Note_on_c, 6, 59, 95
5, 110160, Note_on_c, 6, 55, 95
5, 110160, Note_on_c, 6, 50, 95
5, 110160, Note_on_c, 6, 43, 95
5, 110400, Note_off_c, 6, 67, 95
5, 110400, Note_off_c, 6, 62, 95
5, 110400, Note_off_c, 6, 59, 95
5, 110400, Note_off_c, 6, 55, 95
5, 110400, Note_off_c, 6, 50, 95
5, 110400, Note_off_c, 6, 43, 95
5, 110400, Note_on_c, 6, 67, 95
5, 110400, Note_on_c, 6, 62, 95
5, 110400, Note_on_c, 6, 59, 95
5, 110400, Note_on_c, 6, 55, 95
5, 110400, Note_on_c, 6, 50, 95
5, 110400, Note_on_c, 6, 43, 95
5, 111360, Note_off_c, 6, 67, 95
5, 111360, Note_off_c, 6, 62, 95
5, 111360, Note_off_c, 6, 59, 95
5, 111360, Note_off_c, 6, 55, 95
5, 111360, Note_off_c, 6, 50, 95
5, 111360, Note_off_c, 6, 43, 95
5, 111360, Note_on_c, 6, 65, 95
5, 111360, Note_on_c, 6, 60, 95
5, 111360, Note_on_c, 6, 57, 95
5, 111360, Note_on_c, 6, 53, 95
5, 111360, Note_on_c, 6, 48, 95
5, 111360, Note_on_c, 6, 41, 95
5, 111840, Note_off_c, 6, 65, 95
5, 111840, Note_off_c, 6, 60, 95
5, 111840, Note_off_c, 6, 57, 95
5, 111840, Note_off_c, 6, 53, 95
5, 111840, Note_off_c, 6, 48, 95
5, 111840, Note_off_c, 6, 41, 95
5, 111840, Note_on_c, 6, 64, 95
5, 111840, Note_on_c, 6, 59, 95
5, 111840, Note_on_c, 6, 57, 95
5, 111840, Note_on_c, 6, 53, 95
5, 111840, Note_on_c, 6, 48, 95
5, 111840, Note_on_c, 6, 40, 95
5, 112320, Note_off_c, 6, 64, 95
5, 112320, Note_off_c, 6, 59, 95
5, 112320, Note_off_c, 6, 57, 95
5, 112320, Note_off_c, 6, 53, 95
5, 112320, Note_off_c, 6, 48, 95
5, 112320, Note_off_c, 6, 40, 95
5, 112320, Note_on_c, 6, 65, 95
5, 112320, Note_on_c, 6, 60, 95
5, 112320, Note_on_c, 6, 57, 95
5, 112320, Note_on_c, 6, 53, 95
5, 112320, Note_on_c, 6, 48, 95
5, 112320, Note_on_c, 6, 41, 95
5, 112800, Note_off_c, 6, 65, 95
5, 112800, Note_off_c, 6, 60, 95
5, 112800, Note_off_c, 6, 57, 95
5, 112800, Note_off_c, 6, 53, 95
5, 112800, Note_off_c, 6, 48, 95
5, 112800, Note_off_c, 6, 41, 95
5, 112800, Note_on_c, 6, 64, 95
5, 112800, Note_on_c, 6, 59, 95
5, 112800, Note_on_c, 6, 57, 95
5, 112800, Note_on_c, 6, 53, 95
5, 112800, Note_on_c, 6, 48, 95
5, 112800, Note_on_c, 6, 40, 95
5, 113280, Note_off_c, 6, 64, 95
5, 113280, Note_off_c, 6, 59, 95
5, 113280, Note_off_c, 6, 57, 95
5, 113280, Note_off_c, 6, 53, 95
5, 113280, Note_off_c, 6, 48, 95
5, 113280, Note_off_c, 6, 40, 95
5, 113280, Note_on_c, 6, 65, 95
5, 113280, Note_on_c, 6, 60, 95
5, 113280, Note_on_c, 6, 57, 95
5, 113280, Note_on_c, 6, 53, 95
5, 113280, Note_on_c, 6, 48, 95
5, 113280, Note_on_c, 6, 41, 95
5, 113760, Note_off_c, 6, 65, 95
5, 113760, Note_off_c, 6, 60, 95
5, 113760, Note_off_c, 6, 57, 95
5, 113760, Note_off_c, 6, 53, 95
5, 113760, Note_off_c, 6, 48, 95
5, 113760, Note_off_c, 6, 41, 95
5, 113760, Note_on_c, 6, 64, 95
5, 113760, Note_on_c, 6, 59, 95
5, 113760, Note_on_c, 6, 57, 95
5, 113760, Note_on_c, 6, 53, 95
5, 113760, Note_on_c, 6, 48, 95
5, 113760, Note_on_c, 6, 40, 95
5, 114240, Note_off_c, 6, 64, 95
5, 114240, Note_off_c, 6, 59, 95
5, 114240, Note_off_c, 6, 57, 95
5, 114240, Note_off_c, 6, 53, 95
5, 114240, Note_off_c, 6, 48, 95
5, 114240, Note_off_c, 6, 40, 95
5, 114240, Note_on_c, 6, 65, 95
5, 114240, Note_on_c, 6, 60, 95
5, 114240, Note_on_c, 6, 57, 95
5, 114240, Note_on_c, 6, 53, 95
5, 114240, Note_on_c, 6, 48, 95
5, 114240, Note_on_c, 6, 41, 95
5, 114720, Note_off_c, 6, 65, 95
5, 114720, Note_off_c, 6, 60, 95
5, 114720, Note_off_c, 6, 57, 95
5, 114720, Note_off_c, 6, 53, 95
5, 114720, Note_off_c, 6, 48, 95
5, 114720, Note_off_c, 6, 41, 95
5, 114720, Note_on_c, 6, 67, 95
5, 114720, Note_on_c, 6, 62, 95
5, 114720, Note_on_c, 6, 59, 95
5, 114720, Note_on_c, 6, 55, 95
5, 114720, Note_on_c, 6, 50, 95
5, 114720, Note_on_c, 6, 43, 95
5, 115200, Note_off_c, 6, 67, 95
5, 115200, Note_off_c, 6, 62, 95
5, 115200, Note_off_c, 6, 59, 95
5, 115200, Note_off_c, 6, 55, 95
5, 115200, Note_off_c, 6, 50, 95
5, 115200, Note_off_c, 6, 43, 95
5, 115200, Note_on_c, 6, 66, 95
5, 115200, Note_on_c, 6, 62, 95
5, 115200, Note_on_c, 6, 57, 95
5, 115200, Note_on_c, 6, 50, 95
5, 116160, Note_off_c, 6, 66, 95
5, 116160, Note_off_c, 6, 62, 95
5, 116160, Note_off_c, 6, 57, 95
5, 116160, Note_off_c, 6, 50, 95
5, 116160, Note_on_c, 6, 66, 95
5, 116160, Note_on_c, 6, 62, 95
5, 116160, Note_on_c, 6, 57, 95
5, 116160, Note_on_c, 6, 50, 95
5, 116640, Note_off_c, 6, 66, 95
5, 116640, Note_off_c, 6, 62, 95
5, 116640, Note_off_c, 6, 57, 95
5, 116640, Note_off_c, 6, 50, 95
5, 116640, Note_on_c, 6, 73, 95
5, 116640, Note_on_c, 6, 59, 95
5, 116640, Note_on_c, 6, 55, 95
5, 116640, Note_on_c, 6, 50, 95
5, 116680, Note_off_c, 6, 73, 95
5, 116680, Note_off_c, 6, 59, 95
5, 116680, Note_off_c, 6, 55, 95
5, 116680, Note_off_c, 6, 50, 95
5, 116880, Note_on_c, 6, 64, 95
5, 116880, Note_on_c, 6, 59, 95
5, 116880, Note_on_c, 6, 55, 95
5, 116880, Note_on_c, 6, 50, 95
5, 116920, Note_off_c, 6, 64, 95
5, 116920, Note_off_c, 6, 59, 95
5, 116920, Note_off_c, 6, 55, 95
5, 116920, Note_off_c, 6, 50, 95
5, 117120, Note_on_c, 6, 64, 95
5, 117120, Note_on_c, 6, 59, 95
5, 117120, Note_on_c, 6, 55, 95
5, 117120, Note_on_c, 6, 50, 95
5, 117160, Note_off_c, 6, 64, 95
5, 117160, Note_off_c, 6, 59, 95
5, 117160, Note_off_c, 6, 55, 95
5, 117160, Note_off_c, 6, 50, 95
5, 117360, Note_on_c, 6, 66, 95
5, 117360, Note_on_c, 6, 62, 95
5, 117360, Note_on_c, 6, 57, 95
5, 117360, Note_on_c, 6, 50, 95
5, 118080, Note_off_c, 6, 66, 95
5, 118080, Note_off_c, 6, 62, 95
5, 118080, Note_off_c, 6, 57, 95
5, 118080, Note_off_c, 6, 50, 95
5, 118080, Note_on_c, 6, 66, 95
5, 118080, Note_on_c, 6, 62, 95
5, 118080, Note_on_c, 6, 57, 95
5, 118080, Note_on_c, 6, 50, 95
5, 118560, Note_off_c, 6, 66, 95
5, 118560, Note_off_c, 6, 62, 95
5, 118560, Note_off_c, 6, 57, 95
5, 118560, Note_off_c, 6, 50, 95
5, 118560, Note_on_c, 6, 64, 95
5, 118560, Note_on_c, 6, 59, 95
5, 118560, Note_on_c, 6, 55, 95
5, 118560, Note_on_c, 6, 50, 95
5, 118600, Note_off_c, 6, 64, 95
5, 118600, Note_off_c, 6, 59, 95
5, 118600, Note_off_c, 6, 55, 95
5, 118600, Note_off_c, 6, 50, 95
5, 118800, Note_on_c, 6, 64, 95
5, 118800, Note_on_c, 6, 59, 95
5, 118800, Note_on_c, 6, 55, 95
5, 118800, Note_on_c, 6, 50, 95
5, 118840, Note_off_c, 6, 64, 95
5, 118840, Note_off_c, 6, 59, 95
5, 118840, Note_off_c, 6, 55, 95
5, 118840, Note_off_c, 6, 50, 95
5, 119040, Note_on_c, 6, 68, 95
5, 119040, Note_on_c, 6, 64, 95
5, 119040, Note_on_c, 6, 59, 95
5, 119040, Note_on_c, 6, 56, 95
5, 120000, Note_off_c, 6, 68, 95
5, 120000, Note_off_c, 6, 64, 95
5, 120000, Note_off_c, 6, 59, 95
5, 120000, Note_off_c, 6, 56, 95
5, 120000, Note_on_c, 6, 68, 95
5, 120000, Note_on_c, 6, 64, 95
5, 120000, Note_on_c, 6, 59, 95
5, 120000, Note_on_c, 6, 56, 95
5, 120480, Note_off_c, 6, 68, 95
5, 120480, Note_off_c, 6, 64, 95
5, 120480, Note_off_c, 6, 59, 95
5, 120480, Note_off_c, 6, 56, 95
5, 120480, Note_on_c, 6, 68, 95
5, 120480, Note_on_c, 6, 64, 95
5, 120480, Note_on_c, 6, 59, 95
5, 120480, Note_on_c, 6, 56, 95
5, 121440, Note_off_c, 6, 68, 95
5, 121440, Note_off_c, 6, 64, 95
5, 121440, Note_off_c, 6, 59, 95
5, 121440, Note_off_c, 6, 56, 95
5, 121440, Note_on_c, 6, 68, 95
5, 121440, Note_on_c, 6, 64, 95
5, 121440, Note_on_c, 6, 59, 95
5, 121440, Note_on_c, 6, 56, 95
5, 121680, Note_off_c, 6, 68, 95
5, 121680, Note_off_c, 6, 64, 95
5, 121680, Note_off_c, 6, 59, 95
5, 121680, Note_off_c, 6, 56, 95
5, 121680, Note_on_c, 6, 68, 95
5, 121680, Note_on_c, 6, 64, 95
5, 121680, Note_on_c, 6, 59, 95
5, 121680, Note_on_c, 6, 56, 95
5, 121920, Note_off_c, 6, 68, 95
5, 121920, Note_off_c, 6, 64, 95
5, 121920, Note_off_c, 6, 59, 95
5, 121920, Note_off_c, 6, 56, 95
5, 121920, Note_on_c, 6, 68, 95
5, 121920, Note_on_c, 6, 64, 95
5, 121920, Note_on_c, 6, 59, 95
5, 121920, Note_on_c, 6, 56, 95
5, 122880, Note_off_c, 6, 68, 95
5, 122880, Note_off_c, 6, 64, 95
5, 122880, Note_off_c, 6, 59, 95
5, 122880, Note_off_c, 6, 56, 95
5, 122880, Note_on_c, 6, 67, 95
5, 122880, Note_on_c, 6, 62, 95
5, 122880, Note_on_c, 6, 55, 95
5, 122880, Note_on_c, 6, 50, 95
5, 122880, Note_on_c, 6, 43, 95
5, 123840, Note_off_c, 6, 67, 95
5, 123840, Note_off_c, 6, 62, 95
5, 123840, Note_off_c, 6, 55, 95
5, 123840, Note_off_c, 6, 50, 95
5, 123840, Note_off_c, 6, 43, 95
5, 123840, Note_on_c, 6, 67, 95
5, 123840, Note_on_c, 6, 62, 95
5, 123840, Note_on_c, 6, 55, 95
5, 123840, Note_on_c, 6, 50, 95
5, 123840, Note_on_c, 6, 43, 95
5, 124320, Note_off_c, 6, 67, 95
5, 124320, Note_off_c, 6, 62, 95
5, 124320, Note_off_c, 6, 55, 95
5, 124320, Note_off_c, 6, 50, 95
5, 124320, Note_off_c, 6, 43, 95
5, 124320, Note_on_c, 6, 64, 95
5, 124320, Note_on_c, 6, 59, 95
5, 124320, Note_on_c, 6, 55, 95
5, 124320, Note_on_c, 6, 50, 95
5, 124320, Note_on_c, 6, 40, 95
5, 124360, Note_off_c, 6, 64, 95
5, 124360, Note_off_c, 6, 59, 95
5, 124360, Note_off_c, 6, 55, 95
5, 124360, Note_off_c, 6, 50, 95
5, 124360, Note_off_c, 6, 40, 95
5, 124800, Note_on_c, 6, 66, 95
5, 124800, Note_on_c, 6, 62, 95
5, 124800, Note_on_c, 6, 57, 95
5, 124800, Note_on_c, 6, 50, 95
5, 125040, Note_off_c, 6, 66, 95
5, 125040, Note_on_c, 6, 67, 95
5, 125280, Note_off_c, 6, 67, 95
5, 125280, Note_on_c, 6, 66, 95
5, 125520, Note_off_c, 6, 66, 95
5, 125520, Note_on_c, 6, 67, 95
5, 125760, Note_off_c, 6, 62, 95
5, 125760, Note_off_c, 6, 57, 95
5, 125760, Note_off_c, 6, 50, 95
5, 125760, Note_off_c, 6, 67, 95
5, 125760, Note_on_c, 6, 66, 95
5, 126240, Note_off_c, 6, 66, 95
5, 126240, Note_on_c, 6, 62, 95
5, 126720, Note_off_c, 6, 62, 95
5, 126720, Note_on_c, 6, 48, 95
5, 126960, Note_on_c, 6, 62, 95
5, 127200, Note_off_c, 6, 62, 95
5, 127200, Note_on_c, 6, 55, 95
5, 127440, Note_off_c, 6, 48, 95
5, 127440, Note_on_c, 6, 48, 95
5, 127680, Note_off_c, 6, 55, 95
5, 127680, Note_on_c, 6, 62, 95
5, 128160, Note_off_c, 6, 48, 95
5, 128160, Note_off_c, 6, 62, 95
5, 128160, Note_on_c, 6, 55, 95
5, 128160, Note_on_c, 6, 47, 95
5, 128400, Note_off_c, 6, 55, 95
5, 128400, Note_on_c, 6, 62, 95
5, 128640, Note_off_c, 6, 62, 95
5, 128640, Note_on_c, 6, 55, 95
5, 128880, Note_off_c, 6, 47, 95
5, 128880, Note_on_c, 6, 47, 95
5, 129120, Note_off_c, 6, 55, 95
5, 129120, Note_on_c, 6, 62, 95
5, 129600, Note_off_c, 6, 47, 95
5, 129600, Note_off_c, 6, 62, 95
5, 129600, Note_on_c, 6, 55, 95
5, 129600, Note_on_c, 6, 45, 95
5, 129840, Note_off_c, 6, 55, 95
5, 129840, Note_on_c, 6, 62, 95
5, 130080, Note_off_c, 6, 62, 95
5, 130080, Note_on_c, 6, 55, 95
5, 130320, Note_off_c, 6, 55, 95
5, 130320, Note_on_c, 6, 55, 95
5, 130560, Note_off_c, 6, 45, 95
5, 130560, Note_off_c, 6, 55, 95
5, 130560, Note_on_c, 6, 67, 95
5, 130560, Note_on_c, 6, 62, 95
5, 130560, Note_on_c, 6, 55, 95
5, 130560, Note_on_c, 6, 50, 95
5, 130560, Note_on_c, 6, 43, 95
5, 131520, Note_off_c, 6, 67, 95
5, 131520, Note_off_c, 6, 62, 95
5, 131520, Note_off_c, 6, 55, 95
5, 131520, Note_off_c, 6, 50, 95
5, 131520, Note_off_c, 6, 43, 95
5, 131520, Note_on_c, 6, 67, 95
5, 131520, Note_on_c, 6, 62, 95
5, 131520, Note_on_c, 6, 55, 95
5, 131520, Note_on_c, 6, 50, 95
5, 131520, Note_on_c, 6, 43, 95
5, 132000, Note_off_c, 6, 67, 95
5, 132000, Note_off_c, 6, 62, 95
5, 132000, Note_off_c, 6, 55, 95
5, 132000, Note_off_c, 6, 50, 95
5, 132000, Note_off_c, 6, 43, 95
5, 132000, Note_on_c, 6, 64, 95
5, 132000, Note_on_c, 6, 59, 95
5, 132000, Note_on_c, 6, 55, 95
5, 132000, Note_on_c, 6, 50, 95
5, 132000, Note_on_c, 6, 40, 95
5, 132040, Note_off_c, 6, 64, 95
5, 132040, Note_off_c, 6, 59, 95
5, 132040, Note_off_c, 6, 55, 95
5, 132040, Note_off_c, 6, 50, 95
5, 132040, Note_off_c, 6, 40, 95
5, 132480, Note_on_c, 6, 66, 95
5, 132480, Note_on_c, 6, 62, 95
5, 132480, Note_on_c, 6, 57, 95
5, 132480, Note_on_c, 6, 50, 95
5, 132720, Note_off_c, 6, 66, 95
5, 132720, Note_on_c, 6, 67, 95
5, 132960, Note_off_c, 6, 67, 95
5, 132960, Note_on_c, 6, 66, 95
5, 133200, Note_off_c, 6, 66, 95
5, 133200, Note_on_c, 6, 67, 95
5, 133440, Note_off_c, 6, 62, 95
5, 133440, Note_off_c, 6, 57, 95
5, 133440, Note_off_c, 6, 50, 95
5, 133440, Note_off_c, 6, 67, 95
5, 133440, Note_on_c, 6, 66, 95
5, 133920, Note_off_c, 6, 66, 95
5, 133920, Note_on_c, 6, 62, 95
5, 134400, Note_off_c, 6, 62, 95
5, 134400, Note_on_c, 6, 48, 95
5, 134640, Note_on_c, 6, 62, 95
5, 134880, Note_off_c, 6, 62, 95
5, 134880, Note_on_c, 6, 55, 95
5, 135120, Note_off_c, 6, 48, 95
5, 135120, Note_on_c, 6, 48, 95
5, 135360, Note_off_c, 6, 55, 95
5, 135360, Note_on_c, 6, 62, 95
5, 135840, Note_off_c, 6, 48, 95
5, 135840, Note_off_c, 6, 62, 95
5, 135840, Note_on_c, 6, 55, 95
5, 135840, Note_on_c, 6, 47, 95
5, 136080, Note_off_c, 6, 55, 95
5, 136080, Note_on_c, 6, 62, 95
5, 136320, Note_off_c, 6, 62, 95
5, 136320, Note_on_c, 6, 55, 95
5, 136560, Note_off_c, 6, 47, 95
5, 136560, Note_on_c, 6, 47, 95
5, 136800, Note_off_c, 6, 55, 95
5, 136800, Note_on_c, 6, 62, 95
5, 137280, Note_off_c, 6, 47, 95
5, 137280, Note_off_c, 6, 62, 95
5, 137280, Note_on_c, 6, 55, 95
5, 137280, Note_on_c, 6, 45, 95
5, 137520, Note_off_c, 6, 55, 95
5, 137520, Note_on_c, 6, 62, 95
5, 137760, Note_off_c, 6, 62, 95
5, 137760, Note_on_c, 6, 55, 95
5, 138000, Note_off_c, 6, 55, 95
5, 138000, Note_on_c, 6, 55, 95
5, 138240, Note_off_c, 6, 45, 95
5, 138240, Note_off_c, 6, 55, 95
5, 138240, Note_on_c, 6, 67, 95
5, 138240, Note_on_c, 6, 62, 95
5, 138240, Note_on_c, 6, 55, 95
5, 138240, Note_on_c, 6, 50, 95
5, 138240, Note_on_c, 6, 43, 95
5, 142080, Note_off_c, 6, 67, 95
5, 142080, Note_off_c, 6, 62, 95
5, 142080, Note_off_c, 6, 55, 95
5, 142080, Note_off_c, 6, 50, 95
5, 142080, Note_off_c, 6, 43, 95
5, 142080, Note_on_c, 6, 66, 95
5, 142080, Note_on_c, 6, 62, 95
5, 142080, Note_on_c, 6, 59, 95
5, 142080, Note_on_c, 6, 54, 95
5, 142080, Note_on_c, 6, 47, 95
5, 142800, Note_off_c, 6, 66, 95
5, 142800, Note_off_c, 6, 62, 95
5, 142800, Note_off_c, 6, 59, 95
5, 142800, Note_off_c, 6, 54, 95
5, 142800, Note_off_c, 6, 47, 95
5, 142800, Note_on_c, 6, 66, 95
5, 142800, Note_on_c, 6, 62, 95
5, 142800, Note_on_c, 6, 59, 95
5, 142800, Note_on_c, 6, 54, 95
5, 142800, Note_on_c, 6, 47, 95
5, 143040, Note_off_c, 6, 66, 95
5, 143040, Note_off_c, 6, 62, 95
5, 143040, Note_off_c, 6, 59, 95
5, 143040, Note_off_c, 6, 54, 95
5, 143040, Note_off_c, 6, 47, 95
5, 143040, Note_on_c, 6, 66, 95
5, 143040, Note_on_c, 6, 62, 95
5, 143040, Note_on_c, 6, 59, 95
5, 143040, Note_on_c, 6, 54, 95
5, 143040, Note_on_c, 6, 47, 95
5, 145920, Note_off_c, 6, 66, 95
5, 145920, Note_off_c, 6, 62, 95
5, 145920, Note_off_c, 6, 59, 95
5, 145920, Note_off_c, 6, 54, 95
5, 145920, Note_off_c, 6, 47, 95
5, 145920, Note_on_c, 6, 64, 95
5, 145920, Note_on_c, 6, 60, 95
5, 145920, Note_on_c, 6, 55, 95
5, 145920, Note_on_c, 6, 48, 95
5, 146640, Note_off_c, 6, 64, 95
5, 146640, Note_off_c, 6, 60, 95
5, 146640, Note_off_c, 6, 55, 95
5, 146640, Note_off_c, 6, 48, 95
5, 146640, Note_on_c, 6, 64, 95
5, 146640, Note_on_c, 6, 60, 95
5, 146640, Note_on_c, 6, 55, 95
5, 146640, Note_on_c, 6, 48, 95
5, 146880, Note_off_c, 6, 64, 95
5, 146880, Note_off_c, 6, 60, 95
5, 146880, Note_off_c, 6, 55, 95
5, 146880, Note_off_c, 6, 48, 95
5, 146880, Note_on_c, 6, 64, 95
5, 146880, Note_on_c, 6, 60, 95
5, 146880, Note_on_c, 6, 55, 95
5, 146880, Note_on_c, 6, 48, 95
5, 147360, Note_off_c, 6, 64, 95
5, 147360, Note_off_c, 6, 60, 95
5, 147360, Note_off_c, 6, 55, 95
5, 147360, Note_off_c, 6, 48, 95
5, 147360, Note_on_c, 6, 64, 95
5, 147360, Note_on_c, 6, 60, 95
5, 147360, Note_on_c, 6, 55, 95
5, 147360, Note_on_c, 6, 48, 95
5, 147600, Note_off_c, 6, 64, 95
5, 147600, Note_off_c, 6, 60, 95
5, 147600, Note_off_c, 6, 55, 95
5, 147600, Note_off_c, 6, 48, 95
5, 147600, Note_on_c, 6, 64, 95
5, 147600, Note_on_c, 6, 60, 95
5, 147600, Note_on_c, 6, 55, 95
5, 147600, Note_on_c, 6, 48, 95
5, 147840, Note_off_c, 6, 64, 95
5, 147840, Note_off_c, 6, 60, 95
5, 147840, Note_off_c, 6, 55, 95
5, 147840, Note_off_c, 6, 48, 95
5, 147840, Note_on_c, 6, 64, 95
5, 147840, Note_on_c, 6, 60, 95
5, 147840, Note_on_c, 6, 55, 95
5, 147840, Note_on_c, 6, 48, 95
5, 148800, Note_off_c, 6, 64, 95
5, 148800, Note_off_c, 6, 60, 95
5, 148800, Note_off_c, 6, 55, 95
5, 148800, Note_off_c, 6, 48, 95
5, 148800, Note_on_c, 6, 64, 95
5, 148800, Note_on_c, 6, 60, 95
5, 148800, Note_on_c, 6, 55, 95
5, 148800, Note_on_c, 6, 48, 95
5, 149760, Note_off_c, 6, 64, 95
5, 149760, Note_off_c, 6, 60, 95
5, 149760, Note_off_c, 6, 55, 95
5, 149760, Note_off_c, 6, 48, 95
5, 149760, Note_on_c, 6, 66, 95
5, 149760, Note_on_c, 6, 62, 95
5, 149760, Note_on_c, 6, 57, 95
5, 149760, Note_on_c, 6, 50, 95
5, 150720, Note_off_c, 6, 66, 95
5, 150720, Note_off_c, 6, 62, 95
5, 150720, Note_off_c, 6, 57, 95
5, 150720, Note_off_c, 6, 50, 95
5, 150720, Note_on_c, 6, 66, 95
5, 150720, Note_on_c, 6, 62, 95
5, 150720, Note_on_c, 6, 57, 95
5, 150720, Note_on_c, 6, 50, 95
5, 152160, Note_off_c, 6, 66, 95
5, 152160, Note_off_c, 6, 62, 95
5, 152160, Note_off_c, 6, 57, 95
5, 152160, Note_off_c, 6, 50, 95
5, 152160, Note_on_c, 6, 66, 95
5, 152160, Note_on_c, 6, 62, 95
5, 152160, Note_on_c, 6, 57, 95
5, 152160, Note_on_c, 6, 50, 95
5, 152400, Note_off_c, 6, 66, 95
5, 152400, Note_off_c, 6, 62, 95
5, 152400, Note_off_c, 6, 57, 95
5, 152400, Note_off_c, 6, 50, 95
5, 152400, Note_on_c, 6, 66, 95
5, 152400, Note_on_c, 6, 62, 95
5, 152400, Note_on_c, 6, 57, 95
5, 152400, Note_on_c, 6, 50, 95
5, 152640, Note_off_c, 6, 66, 95
5, 152640, Note_off_c, 6, 62, 95
5, 152640, Note_off_c, 6, 57, 95
5, 152640, Note_off_c, 6, 50, 95
5, 152640, Note_on_c, 6, 66, 95
5, 152640, Note_on_c, 6, 62, 95
5, 152640, Note_on_c, 6, 57, 95
5, 152640, Note_on_c, 6, 50, 95
5, 153120, Note_off_c, 6, 66, 95
5, 153120, Note_off_c, 6, 62, 95
5, 153120, Note_off_c, 6, 57, 95
5, 153120, Note_off_c, 6, 50, 95
5, 153120, Note_on_c, 6, 66, 95
5, 153120, Note_on_c, 6, 62, 95
5, 153120, Note_on_c, 6, 57, 95
5, 153120, Note_on_c, 6, 50, 95
5, 153600, Note_off_c, 6, 66, 95
5, 153600, Note_off_c, 6, 62, 95
5, 153600, Note_off_c, 6, 57, 95
5, 153600, Note_off_c, 6, 50, 95
5, 153600, Note_on_c, 6, 67, 95
5, 153600, Note_on_c, 6, 62, 95
5, 153600, Note_on_c, 6, 55, 95
5, 153600, Note_on_c, 6, 50, 95
5, 153600, Note_on_c, 6, 43, 95
5, 155280, Note_off_c, 6, 67, 95
5, 155280, Note_off_c, 6, 62, 95
5, 155280, Note_off_c, 6, 55, 95
5, 155280, Note_off_c, 6, 50, 95
5, 155280, Note_off_c, 6, 43, 95
5, 155280, Note_on_c, 6, 67, 95
5, 155280, Note_on_c, 6, 62, 95
5, 155280, Note_on_c, 6, 55, 95
5, 155280, Note_on_c, 6, 50, 95
5, 155280, Note_on_c, 6, 43, 95
5, 155520, Note_off_c, 6, 67, 95
5, 155520, Note_off_c, 6, 62, 95
5, 155520, Note_off_c, 6, 55, 95
5, 155520, Note_off_c, 6, 50, 95
5, 155520, Note_off_c, 6, 43, 95
5, 155520, Note_on_c, 6, 67, 95
5, 155520, Note_on_c, 6, 62, 95
5, 155520, Note_on_c, 6, 55, 95
5, 155520, Note_on_c, 6, 50, 95
5, 155520, Note_on_c, 6, 43, 95
5, 156000, Note_off_c, 6, 67, 95
5, 156000, Note_off_c, 6, 62, 95
5, 156000, Note_off_c, 6, 55, 95
5, 156000, Note_off_c, 6, 50, 95
5, 156000, Note_off_c, 6, 43, 95
5, 156000, Note_on_c, 6, 67, 95
5, 156000, Note_on_c, 6, 62, 95
5, 156000, Note_on_c, 6, 55, 95
5, 156000, Note_on_c, 6, 50, 95
5, 156000, Note_on_c, 6, 43, 95
5, 156240, Note_off_c, 6, 67, 95
5, 156240, Note_off_c, 6, 62, 95
5, 156240, Note_off_c, 6, 55, 95
5, 156240, Note_off_c, 6, 50, 95
5, 156240, Note_off_c, 6, 43, 95
5, 156240, Note_on_c, 6, 67, 95
5, 156240, Note_on_c, 6, 62, 95
5, 156240, Note_on_c, 6, 55, 95
5, 156240, Note_on_c, 6, 50, 95
5, 156240, Note_on_c, 6, 43, 95
5, 156480, Note_off_c, 6, 67, 95
5, 156480, Note_off_c, 6, 62, 95
5, 156480, Note_off_c, 6, 55, 95
5, 156480, Note_off_c, 6, 50, 95
5, 156480, Note_off_c, 6, 43, 95
5, 156480, Note_on_c, 6, 67, 95
5, 156480, Note_on_c, 6, 62, 95
5, 156480, Note_on_c, 6, 55, 95
5, 156480, Note_on_c, 6, 50, 95
5, 156480, Note_on_c, 6, 43, 95
5, 157440, Note_off_c, 6, 67, 95
5, 157440, Note_off_c, 6, 62, 95
5, 157440, Note_off_c, 6, 55, 95
5, 157440, Note_off_c, 6, 50, 95
5, 157440, Note_off_c, 6, 43, 95
5, 157440, Note_on_c, 6, 64, 95
5, 157440, Note_on_c, 6, 59, 95
5, 157440, Note_on_c, 6, 55, 95
5, 157440, Note_on_c, 6, 52, 95
5, 157440, Note_on_c, 6, 47, 95
5, 157440, Note_on_c, 6, 40, 95
5, 158400, Note_off_c, 6, 64, 95
5, 158400, Note_off_c, 6, 59, 95
5, 158400, Note_off_c, 6, 55, 95
5, 158400, Note_off_c, 6, 52, 95
5, 158400, Note_off_c, 6, 47, 95
5, 158400, Note_off_c, 6, 40, 95
5, 158400, Note_on_c, 6, 64, 95
5, 158400, Note_on_c, 6, 59, 95
5, 158400, Note_on_c, 6, 55, 95
5, 158400, Note_on_c, 6, 52, 95
5, 158400, Note_on_c, 6, 47, 95
5, 158400, Note_on_c, 6, 40, 95
5, 159120, Note_off_c, 6, 64, 95
5, 159120, Note_off_c, 6, 59, 95
5, 159120, Note_off_c, 6, 55, 95
5, 159120, Note_off_c, 6, 52, 95
5, 159120, Note_off_c, 6, 47, 95
5, 159120, Note_off_c, 6, 40, 95
5, 159120, Note_on_c, 6, 64, 95
5, 159120, Note_on_c, 6, 59, 95
5, 159120, Note_on_c, 6, 55, 95
5, 159120, Note_on_c, 6, 52, 95
5, 159120, Note_on_c, 6, 47, 95
5, 159120, Note_on_c, 6, 40, 95
5, 159360, Note_off_c, 6, 64, 95
5, 159360, Note_off_c, 6, 59, 95
5, 159360, Note_off_c, 6, 55, 95
5, 159360, Note_off_c, 6, 52, 95
5, 159360, Note_off_c, 6, 47, 95
5, 159360, Note_off_c, 6, 40, 95
5, 159360, Note_on_c, 6, 64, 95
5, 159360, Note_on_c, 6, 59, 95
5, 159360, Note_on_c, 6, 55, 95
5, 159360, Note_on_c, 6, 52, 95
5, 159360, Note_on_c, 6, 47, 95
5, 159360, Note_on_c, 6, 40, 95
5, 159600, Note_off_c, 6, 64, 95
5, 159600, Note_off_c, 6, 59, 95
5, 159600, Note_off_c, 6, 55, 95
5, 159600, Note_off_c, 6, 52, 95
5, 159600, Note_off_c, 6, 47, 95
5, 159600, Note_off_c, 6, 40, 95
5, 159600, Note_on_c, 6, 64, 95
5, 159600, Note_on_c, 6, 59, 95
5, 159600, Note_on_c, 6, 55, 95
5, 159600, Note_on_c, 6, 52, 95
5, 159600, Note_on_c, 6, 47, 95
5, 159600, Note_on_c, 6, 40, 95
5, 159840, Note_off_c, 6, 64, 95
5, 159840, Note_off_c, 6, 59, 95
5, 159840, Note_off_c, 6, 55, 95
5, 159840, Note_off_c, 6, 52, 95
5, 159840, Note_off_c, 6, 47, 95
5, 159840, Note_off_c, 6, 40, 95
5, 159840, Note_on_c, 6, 64, 95
5, 159840, Note_on_c, 6, 59, 95
5, 159840, Note_on_c, 6, 55, 95
5, 159840, Note_on_c, 6, 52, 95
5, 159840, Note_on_c, 6, 47, 95
5, 159840, Note_on_c, 6, 40, 95
5, 160320, Note_off_c, 6, 64, 95
5, 160320, Note_off_c, 6, 59, 95
5, 160320, Note_off_c, 6, 55, 95
5, 160320, Note_off_c, 6, 52, 95
5, 160320, Note_off_c, 6, 47, 95
5, 160320, Note_off_c, 6, 40, 95
5, 160320, Note_on_c, 6, 64, 95
5, 160320, Note_on_c, 6, 59, 95
5, 160320, Note_on_c, 6, 55, 95
5, 160320, Note_on_c, 6, 52, 95
5, 160320, Note_on_c, 6, 47, 95
5, 160320, Note_on_c, 6, 40, 95
5, 161280, Note_off_c, 6, 64, 95
5, 161280, Note_off_c, 6, 59, 95
5, 161280, Note_off_c, 6, 55, 95
5, 161280, Note_off_c, 6, 52, 95
5, 161280, Note_off_c, 6, 47, 95
5, 161280, Note_off_c, 6, 40, 95
5, 161280, Note_on_c, 6, 61, 95
5, 161280, Note_on_c, 6, 57, 95
5, 161280, Note_on_c, 6, 52, 95
5, 161280, Note_on_c, 6, 45, 95
5, 162240, Note_off_c, 6, 61, 95
5, 162240, Note_off_c, 6, 57, 95
5, 162240, Note_off_c, 6, 52, 95
5, 162240, Note_off_c, 6, 45, 95
5, 162240, Note_on_c, 6, 61, 95
5, 162240, Note_on_c, 6, 57, 95
5, 162240, Note_on_c, 6, 52, 95
5, 162240, Note_on_c, 6, 45, 95
5, 162960, Note_off_c, 6, 61, 95
5, 162960, Note_off_c, 6, 57, 95
5, 162960, Note_off_c, 6, 52, 95
5, 162960, Note_off_c, 6, 45, 95
5, 162960, Note_on_c, 6, 61, 95
5, 162960, Note_on_c, 6, 57, 95
5, 162960, Note_on_c, 6, 52, 95
5, 162960, Note_on_c, 6, 45, 95
5, 163200, Note_off_c, 6, 61, 95
5, 163200, Note_off_c, 6, 57, 95
5, 163200, Note_off_c, 6, 52, 95
5, 163200, Note_off_c, 6, 45, 95
5, 163200, Note_on_c, 6, 61, 95
5, 163200, Note_on_c, 6, 57, 95
5, 163200, Note_on_c, 6, 52, 95
5, 163200, Note_on_c, 6, 45, 95
5, 163440, Note_off_c, 6, 61, 95
5, 163440, Note_off_c, 6, 57, 95
5, 163440, Note_off_c, 6, 52, 95
5, 163440, Note_off_c, 6, 45, 95
5, 163440, Note_on_c, 6, 61, 95
5, 163440, Note_on_c, 6, 57, 95
5, 163440, Note_on_c, 6, 52, 95
5, 163440, Note_on_c, 6, 45, 95
5, 163680, Note_off_c, 6, 61, 95
5, 163680, Note_off_c, 6, 57, 95
5, 163680, Note_off_c, 6, 52, 95
5, 163680, Note_off_c, 6, 45, 95
5, 163680, Note_on_c, 6, 61, 95
5, 163680, Note_on_c, 6, 57, 95
5, 163680, Note_on_c, 6, 52, 95
5, 163680, Note_on_c, 6, 45, 95
5, 164160, Note_off_c, 6, 61, 95
5, 164160, Note_off_c, 6, 57, 95
5, 164160, Note_off_c, 6, 52, 95
5, 164160, Note_off_c, 6, 45, 95
5, 164160, Note_on_c, 6, 61, 95
5, 164160, Note_on_c, 6, 57, 95
5, 164160, Note_on_c, 6, 52, 95
5, 164160, Note_on_c, 6, 45, 95
5, 164640, Note_off_c, 6, 61, 95
5, 164640, Note_off_c, 6, 57, 95
5, 164640, Note_off_c, 6, 52, 95
5, 164640, Note_off_c, 6, 45, 95
5, 164640, Note_on_c, 6, 61, 95
5, 164640, Note_on_c, 6, 57, 95
5, 164640, Note_on_c, 6, 52, 95
5, 164640, Note_on_c, 6, 45, 95
5, 165120, Note_off_c, 6, 61, 95
5, 165120, Note_off_c, 6, 57, 95
5, 165120, Note_off_c, 6, 52, 95
5, 165120, Note_off_c, 6, 45, 95
5, 165120, Note_on_c, 6, 64, 95
5, 165120, Note_on_c, 6, 60, 95
5, 165120, Note_on_c, 6, 55, 95
5, 165120, Note_on_c, 6, 48, 95
5, 165840, Note_off_c, 6, 64, 95
5, 165840, Note_off_c, 6, 60, 95
5, 165840, Note_off_c, 6, 55, 95
5, 165840, Note_off_c, 6, 48, 95
5, 165840, Note_on_c, 6, 64, 95
5, 165840, Note_on_c, 6, 60, 95
5, 165840, Note_on_c, 6, 55, 95
5, 165840, Note_on_c, 6, 48, 95
5, 166080, Note_off_c, 6, 64, 95
5, 166080, Note_off_c, 6, 60, 95
5, 166080, Note_off_c, 6, 55, 95
5, 166080, Note_off_c, 6, 48, 95
5, 166080, Note_on_c, 6, 64, 95
5, 166080, Note_on_c, 6, 60, 95
5, 166080, Note_on_c, 6, 55, 95
5, 166080, Note_on_c, 6, 48, 95
5, 166800, Note_off_c, 6, 64, 95
5, 166800, Note_off_c, 6, 60, 95
5, 166800, Note_off_c, 6, 55, 95
5, 166800, Note_off_c, 6, 48, 95
5, 166800, Note_on_c, 6, 64, 95
5, 166800, Note_on_c, 6, 60, 95
5, 166800, Note_on_c, 6, 55, 95
5, 166800, Note_on_c, 6, 48, 95
5, 167040, Note_off_c, 6, 64, 95
5, 167040, Note_off_c, 6, 60, 95
5, 167040, Note_off_c, 6, 55, 95
5, 167040, Note_off_c, 6, 48, 95
5, 167040, Note_on_c, 6, 64, 95
5, 167040, Note_on_c, 6, 60, 95
5, 167040, Note_on_c, 6, 55, 95
5, 167040, Note_on_c, 6, 48, 95
5, 167280, Note_off_c, 6, 64, 95
5, 167280, Note_off_c, 6, 60, 95
5, 167280, Note_off_c, 6, 55, 95
5, 167280, Note_off_c, 6, 48, 95
5, 167280, Note_on_c, 6, 64, 95
5, 167280, Note_on_c, 6, 60, 95
5, 167280, Note_on_c, 6, 55, 95
5, 167280, Note_on_c, 6, 48, 95
5, 167520, Note_off_c, 6, 64, 95
5, 167520, Note_off_c, 6, 60, 95
5, 167520, Note_off_c, 6, 55, 95
5, 167520, Note_off_c, 6, 48, 95
5, 167520, Note_on_c, 6, 64, 95
5, 167520, Note_on_c, 6, 60, 95
5, 167520, Note_on_c, 6, 55, 95
5, 167520, Note_on_c, 6, 48, 95
5, 168000, Note_off_c, 6, 64, 95
5, 168000, Note_off_c, 6, 60, 95
5, 168000, Note_off_c, 6, 55, 95
5, 168000, Note_off_c, 6, 48, 95
5, 168000, Note_on_c, 6, 64, 95
5, 168000, Note_on_c, 6, 60, 95
5, 168000, Note_on_c, 6, 55, 95
5, 168000, Note_on_c, 6, 48, 95
5, 168480, Note_off_c, 6, 64, 95
5, 168480, Note_off_c, 6, 60, 95
5, 168480, Note_off_c, 6, 55, 95
5, 168480, Note_off_c, 6, 48, 95
5, 168480, Note_on_c, 6, 64, 95
5, 168480, Note_on_c, 6, 60, 95
5, 168480, Note_on_c, 6, 55, 95
5, 168480, Note_on_c, 6, 48, 95
5, 168960, Note_off_c, 6, 64, 95
5, 168960, Note_off_c, 6, 60, 95
5, 168960, Note_off_c, 6, 55, 95
5, 168960, Note_off_c, 6, 48, 95
5, 168960, Note_on_c, 6, 69, 95
5, 168960, Note_on_c, 6, 64, 95
5, 168960, Note_on_c, 6, 60, 95
5, 168960, Note_on_c, 6, 57, 95
5, 168960, Note_on_c, 6, 52, 95
5, 168960, Note_on_c, 6, 45, 95
5, 169200, Note_off_c, 6, 69, 95
5, 169200, Note_off_c, 6, 64, 95
5, 169200, Note_off_c, 6, 60, 95
5, 169200, Note_off_c, 6, 57, 95
5, 169200, Note_off_c, 6, 52, 95
5, 169200, Note_off_c, 6, 45, 95
5, 169200, Note_on_c, 6, 69, 95
5, 169200, Note_on_c, 6, 64, 95
5, 169200, Note_on_c, 6, 60, 95
5, 169200, Note_on_c, 6, 57, 95
5, 169200, Note_on_c, 6, 52, 95
5, 169200, Note_on_c, 6, 45, 95
5, 169440, Note_off_c, 6, 69, 95
5, 169440, Note_off_c, 6, 64, 95
5, 169440, Note_off_c, 6, 60, 95
5, 169440, Note_off_c, 6, 57, 95
5, 169440, Note_off_c, 6, 52, 95
5, 169440, Note_off_c, 6, 45, 95
5, 169440, Note_on_c, 6, 69, 95
5, 169440, Note_on_c, 6, 64, 95
5, 169440, Note_on_c, 6, 60, 95
5, 169440, Note_on_c, 6, 57, 95
5, 169440, Note_on_c, 6, 52, 95
5, 169440, Note_on_c, 6, 45, 95
5, 169680, Note_off_c, 6, 69, 95
5, 169680, Note_off_c, 6, 64, 95
5, 169680, Note_off_c, 6, 60, 95
5, 169680, Note_off_c, 6, 57, 95
5, 169680, Note_off_c, 6, 52, 95
5, 169680, Note_off_c, 6, 45, 95
5, 169680, Note_on_c, 6, 69, 95
5, 169680, Note_on_c, 6, 64, 95
5, 169680, Note_on_c, 6, 60, 95
5, 169680, Note_on_c, 6, 57, 95
5, 169680, Note_on_c, 6, 52, 95
5, 169680, Note_on_c, 6, 45, 95
5, 169920, Note_off_c, 6, 69, 95
5, 169920, Note_off_c, 6, 64, 95
5, 169920, Note_off_c, 6, 60, 95
5, 169920, Note_off_c, 6, 57, 95
5, 169920, Note_off_c, 6, 52, 95
5, 169920, Note_off_c, 6, 45, 95
5, 169920, Note_on_c, 6, 69, 95
5, 169920, Note_on_c, 6, 64, 95
5, 169920, Note_on_c, 6, 60, 95
5, 169920, Note_on_c, 6, 57, 95
5, 169920, Note_on_c, 6, 52, 95
5, 169920, Note_on_c, 6, 45, 95
5, 170880, Note_off_c, 6, 69, 95
5, 170880, Note_off_c, 6, 64, 95
5, 170880, Note_off_c, 6, 60, 95
5, 170880, Note_off_c, 6, 57, 95
5, 170880, Note_off_c, 6, 52, 95
5, 170880, Note_off_c, 6, 45, 95
5, 170880, Note_on_c, 6, 67, 95
5, 170880, Note_on_c, 6, 62, 95
5, 170880, Note_on_c, 6, 59, 95
5, 170880, Note_on_c, 6, 55, 95
5, 170880, Note_on_c, 6, 50, 95
5, 170880, Note_on_c, 6, 43, 95
5, 171120, Note_off_c, 6, 67, 95
5, 171120, Note_off_c, 6, 62, 95
5, 171120, Note_off_c, 6, 59, 95
5, 171120, Note_off_c, 6, 55, 95
5, 171120, Note_off_c, 6, 50, 95
5, 171120, Note_off_c, 6, 43, 95
5, 171120, Note_on_c, 6, 67, 95
5, 171120, Note_on_c, 6, 62, 95
5, 171120, Note_on_c, 6, 59, 95
5, 171120, Note_on_c, 6, 55, 95
5, 171120, Note_on_c, 6, 50, 95
5, 171120, Note_on_c, 6, 43, 95
5, 171360, Note_off_c, 6, 67, 95
5, 171360, Note_off_c, 6, 62, 95
5, 171360, Note_off_c, 6, 59, 95
5, 171360, Note_off_c, 6, 55, 95
5, 171360, Note_off_c, 6, 50, 95
5, 171360, Note_off_c, 6, 43, 95
5, 171360, Note_on_c, 6, 67, 95
5, 171360, Note_on_c, 6, 62, 95
5, 171360, Note_on_c, 6, 59, 95
5, 171360, Note_on_c, 6, 55, 95
5, 171360, Note_on_c, 6, 50, 95
5, 171360, Note_on_c, 6, 43, 95
5, 171600, Note_off_c, 6, 67, 95
5, 171600, Note_off_c, 6, 62, 95
5, 171600, Note_off_c, 6, 59, 95
5, 171600, Note_off_c, 6, 55, 95
5, 171600, Note_off_c, 6, 50, 95
5, 171600, Note_off_c, 6, 43, 95
5, 171600, Note_on_c, 6, 67, 95
5, 171600, Note_on_c, 6, 62, 95
5, 171600, Note_on_c, 6, 59, 95
5, 171600, Note_on_c, 6, 55, 95
5, 171600, Note_on_c, 6, 50, 95
5, 171600, Note_on_c, 6, 43, 95
5, 171840, Note_off_c, 6, 67, 95
5, 171840, Note_off_c, 6, 62, 95
5, 171840, Note_off_c, 6, 59, 95
5, 171840, Note_off_c, 6, 55, 95
5, 171840, Note_off_c, 6, 50, 95
5, 171840, Note_off_c, 6, 43, 95
5, 171840, Note_on_c, 6, 67, 95
5, 171840, Note_on_c, 6, 62, 95
5, 171840, Note_on_c, 6, 59, 95
5, 171840, Note_on_c, 6, 55, 95
5, 171840, Note_on_c, 6, 50, 95
5, 171840, Note_on_c, 6, 43, 95
5, 172800, Note_off_c, 6, 67, 95
5, 172800, Note_off_c, 6, 62, 95
5, 172800, Note_off_c, 6, 59, 95
5, 172800, Note_off_c, 6, 55, 95
5, 172800, Note_off_c, 6, 50, 95
5, 172800, Note_off_c, 6, 43, 95
5, 172800, Note_on_c, 6, 65, 95
5, 172800, Note_on_c, 6, 60, 95
5, 172800, Note_on_c, 6, 57, 95
5, 172800, Note_on_c, 6, 53, 95
5, 172800, Note_on_c, 6, 48, 95
5, 172800, Note_on_c, 6, 41, 95
5, 173280, Note_off_c, 6, 65, 95
5, 173280, Note_off_c, 6, 60, 95
5, 173280, Note_off_c, 6, 57, 95
5, 173280, Note_off_c, 6, 53, 95
5, 173280, Note_off_c, 6, 48, 95
5, 173280, Note_off_c, 6, 41, 95
5, 173280, Note_on_c, 6, 64, 95
5, 173280, Note_on_c, 6, 59, 95
5, 173280, Note_on_c, 6, 57, 95
5, 173280, Note_on_c, 6, 53, 95
5, 173280, Note_on_c, 6, 48, 95
5, 173280, Note_on_c, 6, 40, 95
5, 173760, Note_off_c, 6, 64, 95
5, 173760, Note_off_c, 6, 59, 95
5, 173760, Note_off_c, 6, 57, 95
5, 173760, Note_off_c, 6, 53, 95
5, 173760, Note_off_c, 6, 48, 95
5, 173760, Note_off_c, 6, 40, 95
5, 173760, Note_on_c, 6, 65, 95
5, 173760, Note_on_c, 6, 60, 95
5, 173760, Note_on_c, 6, 57, 95
5, 173760, Note_on_c, 6, 53, 95
5, 173760, Note_on_c, 6, 48, 95
5, 173760, Note_on_c, 6, 41, 95
5, 174240, Note_off_c, 6, 65, 95
5, 174240, Note_off_c, 6, 60, 95
5, 174240, Note_off_c, 6, 57, 95
5, 174240, Note_off_c, 6, 53, 95
5, 174240, Note_off_c, 6, 48, 95
5, 174240, Note_off_c, 6, 41, 95
5, 174240, Note_on_c, 6, 64, 95
5, 174240, Note_on_c, 6, 59, 95
5, 174240, Note_on_c, 6, 57, 95
5, 174240, Note_on_c, 6, 53, 95
5, 174240, Note_on_c, 6, 48, 95
5, 174240, Note_on_c, 6, 40, 95
5, 174720, Note_off_c, 6, 64, 95
5, 174720, Note_off_c, 6, 59, 95
5, 174720, Note_off_c, 6, 57, 95
5, 174720, Note_off_c, 6, 53, 95
5, 174720, Note_off_c, 6, 48, 95
5, 174720, Note_off_c, 6, 40, 95
5, 174720, Note_on_c, 6, 65, 95
5, 174720, Note_on_c, 6, 60, 95
5, 174720, Note_on_c, 6, 57, 95
5, 174720, Note_on_c, 6, 53, 95
5, 174720, Note_on_c, 6, 48, 95
5, 174720, Note_on_c, 6, 41, 95
5, 175200, Note_off_c, 6, 65, 95
5, 175200, Note_off_c, 6, 60, 95
5, 175200, Note_off_c, 6, 57, 95
5, 175200, Note_off_c, 6, 53, 95
5, 175200, Note_off_c, 6, 48, 95
5, 175200, Note_off_c, 6, 41, 95
5, 175200, Note_on_c, 6, 64, 95
5, 175200, Note_on_c, 6, 59, 95
5, 175200, Note_on_c, 6, 57, 95
5, 175200, Note_on_c, 6, 53, 95
5, 175200, Note_on_c, 6, 48, 95
5, 175200, Note_on_c, 6, 40, 95
5, 175680, Note_off_c, 6, 64, 95
5, 175680, Note_off_c, 6, 59, 95
5, 175680, Note_off_c, 6, 57, 95
5, 175680, Note_off_c, 6, 53, 95
5, 175680, Note_off_c, 6, 48, 95
5, 175680, Note_off_c, 6, 40, 95
5, 175680, Note_on_c, 6, 65, 95
5, 175680, Note_on_c, 6, 60, 95
5, 175680, Note_on_c, 6, 57, 95
5, 175680, Note_on_c, 6, 53, 95
5, 175680, Note_on_c, 6, 48, 95
5, 175680, Note_on_c, 6, 41, 95
5, 176160, Note_off_c, 6, 65, 95
5, 176160, Note_off_c, 6, 60, 95
5, 176160, Note_off_c, 6, 57, 95
5, 176160, Note_off_c, 6, 53, 95
5, 176160, Note_off_c, 6, 48, 95
5, 176160, Note_off_c, 6, 41, 95
5, 176160, Note_on_c, 6, 67, 95
5, 176160, Note_on_c, 6, 62, 95
5, 176160, Note_on_c, 6, 59, 95
5, 176160, Note_on_c, 6, 55, 95
5, 176160, Note_on_c, 6, 50, 95
5, 176160, Note_on_c, 6, 43, 95
5, 176640, Note_off_c, 6, 67, 95
5, 176640, Note_off_c, 6, 62, 95
5, 176640, Note_off_c, 6, 59, 95
5, 176640, Note_off_c, 6, 55, 95
5, 176640, Note_off_c, 6, 50, 95
5, 176640, Note_off_c, 6, 43, 95
5, 176640, Note_on_c, 6, 69, 95
5, 176640, Note_on_c, 6, 64, 95
5, 176640, Note_on_c, 6, 60, 95
5, 176640, Note_on_c, 6, 57, 95
5, 176640, Note_on_c, 6, 52, 95
5, 176640, Note_on_c, 6, 45, 95
5, 176880, Note_off_c, 6, 69, 95
5, 176880, Note_off_c, 6, 64, 95
5, 176880, Note_off_c, 6, 60, 95
5, 176880, Note_off_c, 6, 57, 95
5, 176880, Note_off_c, 6, 52, 95
5, 176880, Note_off_c, 6, 45, 95
5, 176880, Note_on_c, 6, 69, 95
5, 176880, Note_on_c, 6, 64, 95
5, 176880, Note_on_c, 6, 60, 95
5, 176880, Note_on_c, 6, 57, 95
5, 176880, Note_on_c, 6, 52, 95
5, 176880, Note_on_c, 6, 45, 95
5, 177120, Note_off_c, 6, 69, 95
5, 177120, Note_off_c, 6, 64, 95
5, 177120, Note_off_c, 6, 60, 95
5, 177120, Note_off_c, 6, 57, 95
5, 177120, Note_off_c, 6, 52, 95
5, 177120, Note_off_c, 6, 45, 95
5, 177120, Note_on_c, 6, 69, 95
5, 177120, Note_on_c, 6, 64, 95
5, 177120, Note_on_c, 6, 60, 95
5, 177120, Note_on_c, 6, 57, 95
5, 177120, Note_on_c, 6, 52, 95
5, 177120, Note_on_c, 6, 45, 95
5, 177360, Note_off_c, 6, 69, 95
5, 177360, Note_off_c, 6, 64, 95
5, 177360, Note_off_c, 6, 60, 95
5, 177360, Note_off_c, 6, 57, 95
5, 177360, Note_off_c, 6, 52, 95
5, 177360, Note_off_c, 6, 45, 95
5, 177360, Note_on_c, 6, 69, 95
5, 177360, Note_on_c, 6, 64, 95
5, 177360, Note_on_c, 6, 60, 95
5, 177360, Note_on_c, 6, 57, 95
5, 177360, Note_on_c, 6, 52, 95
5, 177360, Note_on_c, 6, 45, 95
5, 177600, Note_off_c, 6, 69, 95
5, 177600, Note_off_c, 6, 64, 95
5, 177600, Note_off_c, 6, 60, 95
5, 177600, Note_off_c, 6, 57, 95
5, 177600, Note_off_c, 6, 52, 95
5, 177600, Note_off_c, 6, 45, 95
5, 177600, Note_on_c, 6, 69, 95
5, 177600, Note_on_c, 6, 64, 95
5, 177600, Note_on_c, 6, 60, 95
5, 177600, Note_on_c, 6, 57, 95
5, 177600, Note_on_c, 6, 52, 95
5, 177600, Note_on_c, 6, 45, 95
5, 178560, Note_off_c, 6, 69, 95
5, 178560, Note_off_c, 6, 64, 95
5, 178560, Note_off_c, 6, 60, 95
5, 178560, Note_off_c, 6, 57, 95
5, 178560, Note_off_c, 6, 52, 95
5, 178560, Note_off_c, 6, 45, 95
5, 178560, Note_on_c, 6, 67, 95
5, 178560, Note_on_c, 6, 62, 95
5, 178560, Note_on_c, 6, 59, 95
5, 178560, Note_on_c, 6, 55, 95
5, 178560, Note_on_c, 6, 50, 95
5, 178560, Note_on_c, 6, 43, 95
5, 178800, Note_off_c, 6, 67, 95
5, 178800, Note_off_c, 6, 62, 95
5, 178800, Note_off_c, 6, 59, 95
5, 178800, Note_off_c, 6, 55, 95
5, 178800, Note_off_c, 6, 50, 95
5, 178800, Note_off_c, 6, 43, 95
5, 178800, Note_on_c, 6, 67, 95
5, 178800, Note_on_c, 6, 62, 95
5, 178800, Note_on_c, 6, 59, 95
5, 178800, Note_on_c, 6, 55, 95
5, 178800, Note_on_c, 6, 50, 95
5, 178800, Note_on_c, 6, 43, 95
5, 179040, Note_off_c, 6, 67, 95
5, 179040, Note_off_c, 6, 62, 95
5, 179040, Note_off_c, 6, 59, 95
5, 179040, Note_off_c, 6, 55, 95
5, 179040, Note_off_c, 6, 50, 95
5, 179040, Note_off_c, 6, 43, 95
5, 179040, Note_on_c, 6, 67, 95
5, 179040, Note_on_c, 6, 62, 95
5, 179040, Note_on_c, 6, 59, 95
5, 179040, Note_on_c, 6, 55, 95
5, 179040, Note_on_c, 6, 50, 95
5, 179040, Note_on_c, 6, 43, 95
5, 179280, Note_off_c, 6, 67, 95
5, 179280, Note_off_c, 6, 62, 95
5, 179280, Note_off_c, 6, 59, 95
5, 179280, Note_off_c, 6, 55, 95
5, 179280, Note_off_c, 6, 50, 95
5, 179280, Note_off_c, 6, 43, 95
5, 179280, Note_on_c, 6, 67, 95
5, 179280, Note_on_c, 6, 62, 95
5, 179280, Note_on_c, 6, 59, 95
5, 179280, Note_on_c, 6, 55, 95
5, 179280, Note_on_c, 6, 50, 95
5, 179280, Note_on_c, 6, 43, 95
5, 179520, Note_off_c, 6, 67, 95
5, 179520, Note_off_c, 6, 62, 95
5, 179520, Note_off_c, 6, 59, 95
5, 179520, Note_off_c, 6, 55, 95
5, 179520, Note_off_c, 6, 50, 95
5, 179520, Note_off_c, 6, 43, 95
5, 179520, Note_on_c, 6, 67, 95
5, 179520, Note_on_c, 6, 62, 95
5, 179520, Note_on_c, 6, 59, 95
5, 179520, Note_on_c, 6, 55, 95
5, 179520, Note_on_c, 6, 50, 95
5, 179520, Note_on_c, 6, 43, 95
5, 180480, Note_off_c, 6, 67, 95
5, 180480, Note_off_c, 6, 62, 95
5, 180480, Note_off_c, 6, 59, 95
5, 180480, Note_off_c, 6, 55, 95
5, 180480, Note_off_c, 6, 50, 95
5, 180480, Note_off_c, 6, 43, 95
5, 180480, Note_on_c, 6, 65, 95
5, 180480, Note_on_c, 6, 60, 95
5, 180480, Note_on_c, 6, 57, 95
5, 180480, Note_on_c, 6, 53, 95
5, 180480, Note_on_c, 6, 48, 95
5, 180480, Note_on_c, 6, 41, 95
5, 180960, Note_off_c, 6, 65, 95
5, 180960, Note_off_c, 6, 60, 95
5, 180960, Note_off_c, 6, 57, 95
5, 180960, Note_off_c, 6, 53, 95
5, 180960, Note_off_c, 6, 48, 95
5, 180960, Note_off_c, 6, 41, 95
5, 180960, Note_on_c, 6, 64, 95
5, 180960, Note_on_c, 6, 59, 95
5, 180960, Note_on_c, 6, 57, 95
5, 180960, Note_on_c, 6, 53, 95
5, 180960, Note_on_c, 6, 48, 95
5, 180960, Note_on_c, 6, 40, 95
5, 181440, Note_off_c, 6, 64, 95
5, 181440, Note_off_c, 6, 59, 95
5, 181440, Note_off_c, 6, 57, 95
5, 181440, Note_off_c, 6, 53, 95
5, 181440, Note_off_c, 6, 48, 95
5, 181440, Note_off_c, 6, 40, 95
5, 181440, Note_on_c, 6, 65, 95
5, 181440, Note_on_c, 6, 60, 95
5, 181440, Note_on_c, 6, 57, 95
5, 181440, Note_on_c, 6, 53, 95
5, 181440, Note_on_c, 6, 48, 95
5, 181440, Note_on_c, 6, 41, 95
5, 181920, Note_off_c, 6, 65, 95
5, 181920, Note_off_c, 6, 60, 95
5, 181920, Note_off_c, 6, 57, 95
5, 181920, Note_off_c, 6, 53, 95
5, 181920, Note_off_c, 6, 48, 95
5, 181920, Note_off_c, 6, 41, 95
5, 181920, Note_on_c, 6, 64, 95
5, 181920, Note_on_c, 6, 59, 95
5, 181920, Note_on_c, 6, 57, 95
5, 181920, Note_on_c, 6, 53, 95
5, 181920, Note_on_c, 6, 48, 95
5, 181920, Note_on_c, 6, 40, 95
5, 182400, Note_off_c, 6, 64, 95
5, 182400, Note_off_c, 6, 59, 95
5, 182400, Note_off_c, 6, 57, 95
5, 182400, Note_off_c, 6, 53, 95
5, 182400, Note_off_c, 6, 48, 95
5, 182400, Note_off_c, 6, 40, 95
5, 182400, Note_on_c, 6, 65, 95
5, 182400, Note_on_c, 6, 60, 95
5, 182400, Note_on_c, 6, 57, 95
5, 182400, Note_on_c, 6, 53, 95
5, 182400, Note_on_c, 6, 48, 95
5, 182400, Note_on_c, 6, 41, 95
5, 182880, Note_off_c, 6, 65, 95
5, 182880, Note_off_c, 6, 60, 95
5, 182880, Note_off_c, 6, 57, 95
5, 182880, Note_off_c, 6, 53, 95
5, 182880, Note_off_c, 6, 48, 95
5, 182880, Note_off_c, 6, 41, 95
5, 182880, Note_on_c, 6, 64, 95
5, 182880, Note_on_c, 6, 59, 95
5, 182880, Note_on_c, 6, 57, 95
5, 182880, Note_on_c, 6, 53, 95
5, 182880, Note_on_c, 6, 48, 95
5, 182880, Note_on_c, 6, 40, 95
5, 183360, Note_off_c, 6, 64, 95
5, 183360, Note_off_c, 6, 59, 95
5, 183360, Note_off_c, 6, 57, 95
5, 183360, Note_off_c, 6, 53, 95
5, 183360, Note_off_c, 6, 48, 95
5, 183360, Note_off_c, 6, 40, 95
5, 183360, Note_on_c, 6, 65, 95
5, 183360, Note_on_c, 6, 60, 95
5, 183360, Note_on_c, 6, 57, 95
5, 183360, Note_on_c, 6, 53, 95
5, 183360, Note_on_c, 6, 48, 95
5, 183360, Note_on_c, 6, 41, 95
5, 183840, Note_off_c, 6, 65, 95
5, 183840, Note_off_c, 6, 60, 95
5, 183840, Note_off_c, 6, 57, 95
5, 183840, Note_off_c, 6, 53, 95
5, 183840, Note_off_c, 6, 48, 95
5, 183840, Note_off_c, 6, 41, 95
5, 183840, Note_on_c, 6, 67, 95
5, 183840, Note_on_c, 6, 62, 95
5, 183840, Note_on_c, 6, 59, 95
5, 183840, Note_on_c, 6, 55, 95
5, 183840, Note_on_c, 6, 50, 95
5, 183840, Note_on_c, 6, 43, 95
5, 184320, Note_off_c, 6, 67, 95
5, 184320, Note_off_c, 6, 62, 95
5, 184320, Note_off_c, 6, 59, 95
5, 184320, Note_off_c, 6, 55, 95
5, 184320, Note_off_c, 6, 50, 95
5, 184320, Note_off_c, 6, 43, 95
5, 184320, Note_on_c, 6, 69, 95
5, 184320, Note_on_c, 6, 64, 95
5, 184320, Note_on_c, 6, 60, 95
5, 184320, Note_on_c, 6, 57, 95
5, 184320, Note_on_c, 6, 52, 95
5, 184320, Note_on_c, 6, 45, 95
5, 184560, Note_off_c, 6, 69, 95
5, 184560, Note_off_c, 6, 64, 95
5, 184560, Note_off_c, 6, 60, 95
5, 184560, Note_off_c, 6, 57, 95
5, 184560, Note_off_c, 6, 52, 95
5, 184560, Note_off_c, 6, 45, 95
5, 184560, Note_on_c, 6, 69, 95
5, 184560, Note_on_c, 6, 64, 95
5, 184560, Note_on_c, 6, 60, 95
5, 184560, Note_on_c, 6, 57, 95
5, 184560, Note_on_c, 6, 52, 95
5, 184560, Note_on_c, 6, 45, 95
5, 184800, Note_off_c, 6, 69, 95
5, 184800, Note_off_c, 6, 64, 95
5, 184800, Note_off_c, 6, 60, 95
5, 184800, Note_off_c, 6, 57, 95
5, 184800, Note_off_c, 6, 52, 95
5, 184800, Note_off_c, 6, 45, 95
5, 184800, Note_on_c, 6, 69, 95
5, 184800, Note_on_c, 6, 64, 95
5, 184800, Note_on_c, 6, 60, 95
5, 184800, Note_on_c, 6, 57, 95
5, 184800, Note_on_c, 6, 52, 95
5, 184800, Note_on_c, 6, 45, 95
5, 185040, Note_off_c, 6, 69, 95
5, 185040, Note_off_c, 6, 64, 95
5, 185040, Note_off_c, 6, 60, 95
5, 185040, Note_off_c, 6, 57, 95
5, 185040, Note_off_c, 6, 52, 95
5, 185040, Note_off_c, 6, 45, 95
5, 185040, Note_on_c, 6, 69, 95
5, 185040, Note_on_c, 6, 64, 95
5, 185040, Note_on_c, 6, 60, 95
5, 185040, Note_on_c, 6, 57, 95
5, 185040, Note_on_c, 6, 52, 95
5, 185040, Note_on_c, 6, 45, 95
5, 185280, Note_off_c, 6, 69, 95
5, 185280, Note_off_c, 6, 64, 95
5, 185280, Note_off_c, 6, 60, 95
5, 185280, Note_off_c, 6, 57, 95
5, 185280, Note_off_c, 6, 52, 95
5, 185280, Note_off_c, 6, 45, 95
5, 185280, Note_on_c, 6, 69, 95
5, 185280, Note_on_c, 6, 64, 95
5, 185280, Note_on_c, 6, 60, 95
5, 185280, Note_on_c, 6, 57, 95
5, 185280, Note_on_c, 6, 52, 95
5, 185280, Note_on_c, 6, 45, 95
5, 186240, Note_off_c, 6, 69, 95
5, 186240, Note_off_c, 6, 64, 95
5, 186240, Note_off_c, 6, 60, 95
5, 186240, Note_off_c, 6, 57, 95
5, 186240, Note_off_c, 6, 52, 95
5, 186240, Note_off_c, 6, 45, 95
5, 186240, Note_on_c, 6, 67, 95
5, 186240, Note_on_c, 6, 62, 95
5, 186240, Note_on_c, 6, 59, 95
5, 186240, Note_on_c, 6, 55, 95
5, 186240, Note_on_c, 6, 50, 95
5, 186240, Note_on_c, 6, 43, 95
5, 186480, Note_off_c, 6, 67, 95
5, 186480, Note_off_c, 6, 62, 95
5, 186480, Note_off_c, 6, 59, 95
5, 186480, Note_off_c, 6, 55, 95
5, 186480, Note_off_c, 6, 50, 95
5, 186480, Note_off_c, 6, 43, 95
5, 186480, Note_on_c, 6, 67, 95
5, 186480, Note_on_c, 6, 62, 95
5, 186480, Note_on_c, 6, 59, 95
5, 186480, Note_on_c, 6, 55, 95
5, 186480, Note_on_c, 6, 50, 95
5, 186480, Note_on_c, 6, 43, 95
5, 186720, Note_off_c, 6, 67, 95
5, 186720, Note_off_c, 6, 62, 95
5, 186720, Note_off_c, 6, 59, 95
5, 186720, Note_off_c, 6, 55, 95
5, 186720, Note_off_c, 6, 50, 95
5, 186720, Note_off_c, 6, 43, 95
5, 186720, Note_on_c, 6, 67, 95
5, 186720, Note_on_c, 6, 62, 95
5, 186720, Note_on_c, 6, 59, 95
5, 186720, Note_on_c, 6, 55, 95
5, 186720, Note_on_c, 6, 50, 95
5, 186720, Note_on_c, 6, 43, 95
5, 186960, Note_off_c, 6, 67, 95
5, 186960, Note_off_c, 6, 62, 95
5, 186960, Note_off_c, 6, 59, 95
5, 186960, Note_off_c, 6, 55, 95
5, 186960, Note_off_c, 6, 50, 95
5, 186960, Note_off_c, 6, 43, 95
5, 186960, Note_on_c, 6, 67, 95
5, 186960, Note_on_c, 6, 62, 95
5, 186960, Note_on_c, 6, 59, 95
5, 186960, Note_on_c, 6, 55, 95
5, 186960, Note_on_c, 6, 50, 95
5, 186960, Note_on_c, 6, 43, 95
5, 187200, Note_off_c, 6, 67, 95
5, 187200, Note_off_c, 6, 62, 95
5, 187200, Note_off_c, 6, 59, 95
5, 187200, Note_off_c, 6, 55, 95
5, 187200, Note_off_c, 6, 50, 95
5, 187200, Note_off_c, 6, 43, 95
5, 187200, Note_on_c, 6, 67, 95
5, 187200, Note_on_c, 6, 62, 95
5, 187200, Note_on_c, 6, 59, 95
5, 187200, Note_on_c, 6, 55, 95
5, 187200, Note_on_c, 6, 50, 95
5, 187200, Note_on_c, 6, 43, 95
5, 188160, Note_off_c, 6, 67, 95
5, 188160, Note_off_c, 6, 62, 95
5, 188160, Note_off_c, 6, 59, 95
5, 188160, Note_off_c, 6, 55, 95
5, 188160, Note_off_c, 6, 50, 95
5, 188160, Note_off_c, 6, 43, 95
5, 188160, Note_on_c, 6, 65, 95
5, 188160, Note_on_c, 6, 60, 95
5, 188160, Note_on_c, 6, 57, 95
5, 188160, Note_on_c, 6, 53, 95
5, 188160, Note_on_c, 6, 48, 95
5, 188160, Note_on_c, 6, 41, 95
5, 188640, Note_off_c, 6, 65, 95
5, 188640, Note_off_c, 6, 60, 95
5, 188640, Note_off_c, 6, 57, 95
5, 188640, Note_off_c, 6, 53, 95
5, 188640, Note_off_c, 6, 48, 95
5, 188640, Note_off_c, 6, 41, 95
5, 188640, Note_on_c, 6, 64, 95
5, 188640, Note_on_c, 6, 59, 95
5, 188640, Note_on_c, 6, 57, 95
5, 188640, Note_on_c, 6, 53, 95
5, 188640, Note_on_c, 6, 48, 95
5, 188640, Note_on_c, 6, 40, 95
5, 189120, Note_off_c, 6, 64, 95
5, 189120, Note_off_c, 6, 59, 95
5, 189120, Note_off_c, 6, 57, 95
5, 189120, Note_off_c, 6, 53, 95
5, 189120, Note_off_c, 6, 48, 95
5, 189120, Note_off_c, 6, 40, 95
5, 189120, Note_on_c, 6, 65, 95
5, 189120, Note_on_c, 6, 60, 95
5, 189120, Note_on_c, 6, 57, 95
5, 189120, Note_on_c, 6, 53, 95
5, 189120, Note_on_c, 6, 48, 95
5, 189120, Note_on_c, 6, 41, 95
5, 189600, Note_off_c, 6, 65, 95
5, 189600, Note_off_c, 6, 60, 95
5, 189600, Note_off_c, 6, 57, 95
5, 189600, Note_off_c, 6, 53, 95
5, 189600, Note_off_c, 6, 48, 95
5, 189600, Note_off_c, 6, 41, 95
5, 189600, Note_on_c, 6, 64, 95
5, 189600, Note_on_c, 6, 59, 95
5, 189600, Note_on_c, 6, 57, 95
5, 189600, Note_on_c, 6, 53, 95
5, 189600, Note_on_c, 6, 48, 95
5, 189600, Note_on_c, 6, 40, 95
5, 190080, Note_off_c, 6, 64, 95
5, 190080, Note_off_c, 6, 59, 95
5, 190080, Note_off_c, 6, 57, 95
5, 190080, Note_off_c, 6, 53, 95
5, 190080, Note_off_c, 6, 48, 95
5, 190080, Note_off_c, 6, 40, 95
5, 190080, Note_on_c, 6, 65, 95
5, 190080, Note_on_c, 6, 60, 95
5, 190080, Note_on_c, 6, 57, 95
5, 190080, Note_on_c, 6, 53, 95
5, 190080, Note_on_c, 6, 48, 95
5, 190080, Note_on_c, 6, 41, 95
5, 190560, Note_off_c, 6, 65, 95
5, 190560, Note_off_c, 6, 60, 95
5, 190560, Note_off_c, 6, 57, 95
5, 190560, Note_off_c, 6, 53, 95
5, 190560, Note_off_c, 6, 48, 95
5, 190560, Note_off_c, 6, 41, 95
5, 190560, Note_on_c, 6, 64, 95
5, 190560, Note_on_c, 6, 59, 95
5, 190560, Note_on_c, 6, 57, 95
5, 190560, Note_on_c, 6, 53, 95
5, 190560, Note_on_c, 6, 48, 95
5, 190560, Note_on_c, 6, 40, 95
5, 191040, Note_off_c, 6, 64, 95
5, 191040, Note_off_c, 6, 59, 95
5, 191040, Note_off_c, 6, 57, 95
5, 191040, Note_off_c, 6, 53, 95
5, 191040, Note_off_c, 6, 48, 95
5, 191040, Note_off_c, 6, 40, 95
5, 191040, Note_on_c, 6, 65, 95
5, 191040, Note_on_c, 6, 60, 95
5, 191040, Note_on_c, 6, 57, 95
5, 191040, Note_on_c, 6, 53, 95
5, 191040, Note_on_c, 6, 48, 95
5, 191040, Note_on_c, 6, 41, 95
5, 191520, Note_off_c, 6, 65, 95
5, 191520, Note_off_c, 6, 60, 95
5, 191520, Note_off_c, 6, 57, 95
5, 191520, Note_off_c, 6, 53, 95
5, 191520, Note_off_c, 6, 48, 95
5, 191520, Note_off_c, 6, 41, 95
5, 191520, Note_on_c, 6, 67, 95
5, 191520, Note_on_c, 6, 62, 95
5, 191520, Note_on_c, 6, 59, 95
5, 191520, Note_on_c, 6, 55, 95
5, 191520, Note_on_c, 6, 50, 95
5, 191520, Note_on_c, 6, 43, 95
5, 192000, Note_off_c, 6, 67, 95
5, 192000, Note_off_c, 6, 62, 95
5, 192000, Note_off_c, 6, 59, 95
5, 192000, Note_off_c, 6, 55, 95
5, 192000, Note_off_c, 6, 50, 95
5, 192000, Note_off_c, 6, 43, 95
5, 192000, Note_on_c, 6, 66, 95
5, 192000, Note_on_c, 6, 62, 95
5, 192000, Note_on_c, 6, 57, 95
5, 192000, Note_on_c, 6, 50, 95
5, 192960, Note_off_c, 6, 66, 95
5, 192960, Note_off_c, 6, 62, 95
5, 192960, Note_off_c, 6, 57, 95
5, 192960, Note_off_c, 6, 50, 95
5, 192960, Note_on_c, 6, 66, 95
5, 192960, Note_on_c, 6, 62, 95
5, 192960, Note_on_c, 6, 57, 95
5, 192960, Note_on_c, 6, 50, 95
5, 193440, Note_off_c, 6, 66, 95
5, 193440, Note_off_c, 6, 62, 95
5, 193440, Note_off_c, 6, 57, 95
5, 193440, Note_off_c, 6, 50, 95
5, 193440, Note_on_c, 6, 73, 95
5, 193440, Note_on_c, 6, 59, 95
5, 193440, Note_on_c, 6, 55, 95
5, 193440, Note_on_c, 6, 50, 95
5, 193480, Note_off_c, 6, 73, 95
5, 193480, Note_off_c, 6, 59, 95
5, 193480, Note_off_c, 6, 55, 95
5, 193480, Note_off_c, 6, 50, 95
5, 193680, Note_on_c, 6, 64, 95
5, 193680, Note_on_c, 6, 59, 95
5, 193680, Note_on_c, 6, 55, 95
5, 193680, Note_on_c, 6, 50, 95
5, 193720, Note_off_c, 6, 64, 95
5, 193720, Note_off_c, 6, 59, 95
5, 193720, Note_off_c, 6, 55, 95
5, 193720, Note_off_c, 6, 50, 95
5, 193920, Note_on_c, 6, 64, 95
5, 193920, Note_on_c, 6, 59, 95
5, 193920, Note_on_c, 6, 55, 95
5, 193920, Note_on_c, 6, 50, 95
5, 193960, Note_off_c, 6, 64, 95
5, 193960, Note_off_c, 6, 59, 95
5, 193960, Note_off_c, 6, 55, 95
5, 193960, Note_off_c, 6, 50, 95
5, 194160, Note_on_c, 6, 66, 95
5, 194160, Note_on_c, 6, 62, 95
5, 194160, Note_on_c, 6, 57, 95
5, 194160, Note_on_c, 6, 50, 95
5, 194880, Note_off_c, 6, 66, 95
5, 194880, Note_off_c, 6, 62, 95
5, 194880, Note_off_c, 6, 57, 95
5, 194880, Note_off_c, 6, 50, 95
5, 194880, Note_on_c, 6, 66, 95
5, 194880, Note_on_c, 6, 62, 95
5, 194880, Note_on_c, 6, 57, 95
5, 194880, Note_on_c, 6, 50, 95
5, 195360, Note_off_c, 6, 66, 95
5, 195360, Note_off_c, 6, 62, 95
5, 195360, Note_off_c, 6, 57, 95
5, 195360, Note_off_c, 6, 50, 95
5, 195360, Note_on_c, 6, 64, 95
5, 195360, Note_on_c, 6, 59, 95
5, 195360, Note_on_c, 6, 55, 95
5, 195360, Note_on_c, 6, 50, 95
5, 195400, Note_off_c, 6, 64, 95
5, 195400, Note_off_c, 6, 59, 95
5, 195400, Note_off_c, 6, 55, 95
5, 195400, Note_off_c, 6, 50, 95
5, 195600, Note_on_c, 6, 64, 95
5, 195600, Note_on_c, 6, 59, 95
5, 195600, Note_on_c, 6, 55, 95
5, 195600, Note_on_c, 6, 50, 95
5, 195640, Note_off_c, 6, 64, 95
5, 195640, Note_off_c, 6, 59, 95
5, 195640, Note_off_c, 6, 55, 95
5, 195640, Note_off_c, 6, 50, 95
5, 195840, Note_on_c, 6, 68, 95
5, 195840, Note_on_c, 6, 64, 95
5, 195840, Note_on_c, 6, 59, 95
5, 195840, Note_on_c, 6, 56, 95
5, 196800, Note_off_c, 6, 68, 95
5, 196800, Note_off_c, 6, 64, 95
5, 196800, Note_off_c, 6, 59, 95
5, 196800, Note_off_c, 6, 56, 95
5, 196800, Note_on_c, 6, 68, 95
5, 196800, Note_on_c, 6, 64, 95
5, 196800, Note_on_c, 6, 59, 95
5, 196800, Note_on_c, 6, 56, 95
5, 197280, Note_off_c, 6, 68, 95
5, 197280, Note_off_c, 6, 64, 95
5, 197280, Note_off_c, 6, 59, 95
5, 197280, Note_off_c, 6, 56, 95
5, 197280, Note_on_c, 6, 68, 95
5, 197280, Note_on_c, 6, 64, 95
5, 197280, Note_on_c, 6, 59, 95
5, 197280, Note_on_c, 6, 56, 95
5, 198240, Note_off_c, 6, 68, 95
5, 198240, Note_off_c, 6, 64, 95
5, 198240, Note_off_c, 6, 59, 95
5, 198240, Note_off_c, 6, 56, 95
5, 198240, Note_on_c, 6, 68, 95
5, 198240, Note_on_c, 6, 64, 95
5, 198240, Note_on_c, 6, 59, 95
5, 198240, Note_on_c, 6, 56, 95
5, 198480, Note_off_c, 6, 68, 95
5, 198480, Note_off_c, 6, 64, 95
5, 198480, Note_off_c, 6, 59, 95
5, 198480, Note_off_c, 6, 56, 95
5, 198480, Note_on_c, 6, 68, 95
5, 198480, Note_on_c, 6, 64, 95
5, 198480, Note_on_c, 6, 59, 95
5, 198480, Note_on_c, 6, 56, 95
5, 198720, Note_off_c, 6, 68, 95
5, 198720, Note_off_c, 6, 64, 95
5, 198720, Note_off_c, 6, 59, 95
5, 198720, Note_off_c, 6, 56, 95
5, 198720, Note_on_c, 6, 68, 95
5, 198720, Note_on_c, 6, 64, 95
5, 198720, Note_on_c, 6, 59, 95
5, 198720, Note_on_c, 6, 56, 95
5, 199680, Note_off_c, 6, 68, 95
5, 199680, Note_off_c, 6, 64, 95
5, 199680, Note_off_c, 6, 59, 95
5, 199680, Note_off_c, 6, 56, 95
5, 199680, Note_on_c, 6, 67, 95
5, 199680, Note_on_c, 6, 62, 95
5, 199680, Note_on_c, 6, 55, 95
5, 199680, Note_on_c, 6, 50, 95
5, 199680, Note_on_c, 6, 43, 95
5, 200640, Note_off_c, 6, 67, 95
5, 200640, Note_off_c, 6, 62, 95
5, 200640, Note_off_c, 6, 55, 95
5, 200640, Note_off_c, 6, 50, 95
5, 200640, Note_off_c, 6, 43, 95
5, 200640, Note_on_c, 6, 67, 95
5, 200640, Note_on_c, 6, 62, 95
5, 200640, Note_on_c, 6, 55, 95
5, 200640, Note_on_c, 6, 50, 95
5, 200640, Note_on_c, 6, 43, 95
5, 201120, Note_off_c, 6, 67, 95
5, 201120, Note_off_c, 6, 62, 95
5, 201120, Note_off_c, 6, 55, 95
5, 201120, Note_off_c, 6, 50, 95
5, 201120, Note_off_c, 6, 43, 95
5, 201120, Note_on_c, 6, 64, 95
5, 201120, Note_on_c, 6, 59, 95
5, 201120, Note_on_c, 6, 55, 95
5, 201120, Note_on_c, 6, 50, 95
5, 201120, Note_on_c, 6, 40, 95
5, 201160, Note_off_c, 6, 64, 95
5, 201160, Note_off_c, 6, 59, 95
5, 201160, Note_off_c, 6, 55, 95
5, 201160, Note_off_c, 6, 50, 95
5, 201160, Note_off_c, 6, 40, 95
5, 201600, Note_on_c, 6, 66, 95
5, 201600, Note_on_c, 6, 62, 95
5, 201600, Note_on_c, 6, 57, 95
5, 201600, Note_on_c, 6, 50, 95
5, 201840, Note_off_c, 6, 66, 95
5, 201840, Note_on_c, 6, 67, 95
5, 202080, Note_off_c, 6, 67, 95
5, 202080, Note_on_c, 6, 66, 95
5, 202320, Note_off_c, 6, 66, 95
5, 202320, Note_on_c, 6, 67, 95
5, 202560, Note_off_c, 6, 62, 95
5, 202560, Note_off_c, 6, 57, 95
5, 202560, Note_off_c, 6, 50, 95
5, 202560, Note_off_c, 6, 67, 95
5, 202560, Note_on_c, 6, 66, 95
5, 203040, Note_off_c, 6, 66, 95
5, 203040, Note_on_c, 6, 62, 95
5, 203520, Note_off_c, 6, 62, 95
5, 203520, Note_on_c, 6, 48, 95
5, 203760, Note_on_c, 6, 62, 95
5, 204000, Note_off_c, 6, 62, 95
5, 204000, Note_on_c, 6, 55, 95
5, 204240, Note_off_c, 6, 48, 95
5, 204240, Note_on_c, 6, 48, 95
5, 204480, Note_off_c, 6, 55, 95
5, 204480, Note_on_c, 6, 62, 95
5, 204960, Note_off_c, 6, 48, 95
5, 204960, Note_off_c, 6, 62, 95
5, 204960, Note_on_c, 6, 55, 95
5, 204960, Note_on_c, 6, 47, 95
5, 205200, Note_off_c, 6, 55, 95
5, 205200, Note_on_c, 6, 62, 95
5, 205440, Note_off_c, 6, 62, 95
5, 205440, Note_on_c, 6, 55, 95
5, 205680, Note_off_c, 6, 47, 95
5, 205680, Note_on_c, 6, 47, 95
5, 205920, Note_off_c, 6, 55, 95
5, 205920, Note_on_c, 6, 62, 95
5, 206400, Note_off_c, 6, 47, 95
5, 206400, Note_off_c, 6, 62, 95
5, 206400, Note_on_c, 6, 55, 95
5, 206400, Note_on_c, 6, 45, 95
5, 206640, Note_off_c, 6, 55, 95
5, 206640, Note_on_c, 6, 62, 95
5, 206880, Note_off_c, 6, 62, 95
5, 206880, Note_on_c, 6, 55, 95
5, 207120, Note_off_c, 6, 55, 95
5, 207120, Note_on_c, 6, 55, 95
5, 207360, Note_off_c, 6, 45, 95
5, 207360, Note_off_c, 6, 55, 95
5, 207360, Note_on_c, 6, 67, 95
5, 207360, Note_on_c, 6, 62, 95
5, 207360, Note_on_c, 6, 55, 95
5, 207360, Note_on_c, 6, 50, 95
5, 207360, Note_on_c, 6, 43, 95
5, 208320, Note_off_c, 6, 67, 95
5, 208320, Note_off_c, 6, 62, 95
5, 208320, Note_off_c, 6, 55, 95
5, 208320, Note_off_c, 6, 50, 95
5, 208320, Note_off_c, 6, 43, 95
5, 208320, Note_on_c, 6, 67, 95
5, 208320, Note_on_c, 6, 62, 95
5, 208320, Note_on_c, 6, 55, 95
5, 208320, Note_on_c, 6, 50, 95
5, 208320, Note_on_c, 6, 43, 95
5, 208800, Note_off_c, 6, 67, 95
5, 208800, Note_off_c, 6, 62, 95
5, 208800, Note_off_c, 6, 55, 95
5, 208800, Note_off_c, 6, 50, 95
5, 208800, Note_off_c, 6, 43, 95
5, 208800, Note_on_c, 6, 64, 95
5, 208800, Note_on_c, 6, 59, 95
5, 208800, Note_on_c, 6, 55, 95
5, 208800, Note_on_c, 6, 50, 95
5, 208800, Note_on_c, 6, 40, 95
5, 208840, Note_off_c, 6, 64, 95
5, 208840, Note_off_c, 6, 59, 95
5, 208840, Note_off_c, 6, 55, 95
5, 208840, Note_off_c, 6, 50, 95
5, 208840, Note_off_c, 6, 40, 95
5, 209280, Note_on_c, 6, 66, 95
5, 209280, Note_on_c, 6, 62, 95
5, 209280, Note_on_c, 6, 57, 95
5, 209280, Note_on_c, 6, 50, 95
5, 209520, Note_off_c, 6, 66, 95
5, 209520, Note_on_c, 6, 67, 95
5, 209760, Note_off_c, 6, 67, 95
5, 209760, Note_on_c, 6, 66, 95
5, 210000, Note_off_c, 6, 66, 95
5, 210000, Note_on_c, 6, 67, 95
5, 210240, Note_off_c, 6, 62, 95
5, 210240, Note_off_c, 6, 57, 95
5, 210240, Note_off_c, 6, 50, 95
5, 210240, Note_off_c, 6, 67, 95
5, 210240, Note_on_c, 6, 66, 95
5, 210720, Note_off_c, 6, 66, 95
5, 210720, Note_on_c, 6, 62, 95
5, 211200, Note_off_c, 6, 62, 95
5, 211200, Note_on_c, 6, 48, 95
5, 211440, Note_on_c, 6, 62, 95
5, 211680, Note_off_c, 6, 62, 95
5, 211680, Note_on_c, 6, 55, 95
5, 211920, Note_off_c, 6, 48, 95
5, 211920, Note_on_c, 6, 48, 95
5, 212160, Note_off_c, 6, 55, 95
5, 212160, Note_on_c, 6, 62, 95
5, 212640, Note_off_c, 6, 48, 95
5, 212640, Note_off_c, 6, 62, 95
5, 212640, Note_on_c, 6, 55, 95
5, 212640, Note_on_c, 6, 47, 95
5, 212880, Note_off_c, 6, 55, 95
5, 212880, Note_on_c, 6, 62, 95
5, 213120, Note_off_c, 6, 62, 95
5, 213120, Note_on_c, 6, 55, 95
5, 213360, Note_off_c, 6, 47, 95
5, 213360, Note_on_c, 6, 47, 95
5, 213600, Note_off_c, 6, 55, 95
5, 213600, Note_on_c, 6, 62, 95
5, 214080, Note_off_c, 6, 47, 95
5, 214080, Note_off_c, 6, 62, 95
5, 214080, Note_on_c, 6, 55, 95
5, 214080, Note_on_c, 6, 45, 95
5, 214320, Note_off_c, 6, 55, 95
5, 214320, Note_on_c, 6, 62, 95
5, 214560, Note_off_c, 6, 62, 95
5, 214560, Note_on_c, 6, 55, 95
5, 214800, Note_off_c, 6, 55, 95
5, 214800, Note_on_c, 6, 55, 95
5, 215040, Note_off_c, 6, 45, 95
5, 215040, Note_off_c, 6, 55, 95
5, 215040, Note_on_c, 6, 67, 95
5, 215040, Note_on_c, 6, 62, 95
5, 215040, Note_on_c, 6, 55, 95
5, 215040, Note_on_c, 6, 50, 95
5, 215040, Note_on_c, 6, 43, 95
5, 216000, Note_off_c, 6, 67, 95
5, 216000, Note_off_c, 6, 62, 95
5, 216000, Note_off_c, 6, 55, 95
5, 216000, Note_off_c, 6, 50, 95
5, 216000, Note_off_c, 6, 43, 95
5, 216000, Note_on_c, 6, 67, 95
5, 216000, Note_on_c, 6, 62, 95
5, 216000, Note_on_c, 6, 55, 95
5, 216000, Note_on_c, 6, 50, 95
5, 216000, Note_on_c, 6, 43, 95
5, 216040, Note_off_c, 6, 67, 95
5, 216040, Note_off_c, 6, 62, 95
5, 216040, Note_off_c, 6, 55, 95
5, 216040, Note_off_c, 6, 50, 95
5, 216040, Note_off_c, 6, 43, 95
5, 216480, Note_on_c, 6, 64, 95
5, 216480, Note_on_c, 6, 59, 95
5, 216480, Note_on_c, 6, 55, 95
5, 216480, Note_on_c, 6, 50, 95
5, 216480, Note_on_c, 6, 40, 95
5, 216520, Note_off_c, 6, 64, 95
5, 216520, Note_off_c, 6, 59, 95
5, 216520, Note_off_c, 6, 55, 95
5, 216520, Note_off_c, 6, 50, 95
5, 216520, Note_off_c, 6, 40, 95
5, 216960, Note_on_c, 6, 66, 95
5, 216960, Note_on_c, 6, 62, 95
5, 216960, Note_on_c, 6, 57, 95
5, 216960, Note_on_c, 6, 50, 95
5, 217200, Note_off_c, 6, 66, 95
5, 217200, Note_on_c, 6, 67, 95
5, 217440, Note_off_c, 6, 67, 95
5, 217440, Note_on_c, 6, 66, 95
5, 217680, Note_off_c, 6, 66, 95
5, 217680, Note_on_c, 6, 67, 95
5, 217920, Note_off_c, 6, 62, 95
5, 217920, Note_off_c, 6, 57, 95
5, 217920, Note_off_c, 6, 50, 95
5, 217920, Note_off_c, 6, 67, 95
5, 217920, Note_on_c, 6, 66, 95
5, 218400, Note_off_c, 6, 66, 95
5, 218400, Note_on_c, 6, 62, 95
5, 218880, Note_off_c, 6, 62, 95
5, 218880, Note_on_c, 6, 48, 95
5, 219120, Note_on_c, 6, 62, 95
5, 219360, Note_off_c, 6, 62, 95
5, 219360, Note_on_c, 6, 55, 95
5, 219600, Note_off_c, 6, 48, 95
5, 219600, Note_on_c, 6, 48, 95
5, 219840, Note_off_c, 6, 55, 95
5, 219840, Note_on_c, 6, 62, 95
5, 220320, Note_off_c, 6, 48, 95
5, 220320, Note_off_c, 6, 62, 95
5, 220320, Note_on_c, 6, 55, 95
5, 220320, Note_on_c, 6, 47, 95
5, 220560, Note_off_c, 6, 55, 95
5, 220560, Note_on_c, 6, 62, 95
5, 220800, Note_off_c, 6, 62, 95
5, 220800, Note_on_c, 6, 55, 95
5, 221040, Note_off_c, 6, 47, 95
5, 221040, Note_on_c, 6, 47, 95
5, 221280, Note_off_c, 6, 55, 95
5, 221280, Note_on_c, 6, 62, 95
5, 221760, Note_off_c, 6, 47, 95
5, 221760, Note_off_c, 6, 62, 95
5, 221760, Note_on_c, 6, 55, 95
5, 221760, Note_on_c, 6, 45, 95
5, 222000, Note_off_c, 6, 55, 95
5, 222000, Note_on_c, 6, 62, 95
5, 222240, Note_off_c, 6, 62, 95
5, 222240, Note_on_c, 6, 55, 95
5, 222480, Note_off_c, 6, 55, 95
5, 222480, Note_on_c, 6, 55, 95
5, 222720, Note_off_c, 6, 45, 95
5, 222720, Note_off_c, 6, 55, 95
5, 222720, Note_on_c, 6, 67, 95
5, 222720, Note_on_c, 6, 62, 95
5, 222720, Note_on_c, 6, 55, 95
5, 222720, Note_on_c, 6, 50, 95
5, 222720, Note_on_c, 6, 43, 95
5, 223680, Note_off_c, 6, 67, 95
5, 223680, Note_off_c, 6, 62, 95
5, 223680, Note_off_c, 6, 55, 95
5, 223680, Note_off_c, 6, 50, 95
5, 223680, Note_off_c, 6, 43, 95
5, 223680, Note_on_c, 6, 67, 95
5, 223680, Note_on_c, 6, 62, 95
5, 223680, Note_on_c, 6, 55, 95
5, 223680, Note_on_c, 6, 50, 95
5, 223680, Note_on_c, 6, 43, 95
5, 223720, Note_off_c, 6, 67, 95
5, 223720, Note_off_c, 6, 62, 95
5, 223720, Note_off_c, 6, 55, 95
5, 223720, Note_off_c, 6, 50, 95
5, 223720, Note_off_c, 6, 43, 95
5, 224160, Note_on_c, 6, 64, 95
5, 224160, Note_on_c, 6, 59, 95
5, 224160, Note_on_c, 6, 55, 95
5, 224160, Note_on_c, 6, 50, 95
5, 224160, Note_on_c, 6, 40, 95
5, 224200, Note_off_c, 6, 64, 95
5, 224200, Note_off_c, 6, 59, 95
5, 224200, Note_off_c, 6, 55, 95
5, 224200, Note_off_c, 6, 50, 95
5, 224200, Note_off_c, 6, 40, 95
5, 224640, Note_on_c, 6, 66, 95
5, 224640, Note_on_c, 6, 62, 95
5, 224640, Note_on_c, 6, 57, 95
5, 224640, Note_on_c, 6, 50, 95
5, 224880, Note_off_c, 6, 66, 95
5, 224880, Note_on_c, 6, 67, 95
5, 225120, Note_off_c, 6, 67, 95
5, 225120, Note_on_c, 6, 66, 95
5, 225360, Note_off_c, 6, 66, 95
5, 225360, Note_on_c, 6, 67, 95
5, 225600, Note_off_c, 6, 62, 95
5, 225600, Note_off_c, 6, 57, 95
5, 225600, Note_off_c, 6, 50, 95
5, 225600, Note_off_c, 6, 67, 95
5, 225600, Note_on_c, 6, 66, 95
5, 226080, Note_off_c, 6, 66, 95
5, 226080, Note_on_c, 6, 62, 95
5, 226560, Note_off_c, 6, 62, 95
5, 226560, Note_on_c, 6, 62, 95
5, 226560, Note_on_c, 6, 55, 95
5, 226560, Note_on_c, 6, 48, 95
5, 230400, Note_off_c, 6, 62, 95
5, 230400, Note_off_c, 6, 55, 95
5, 230400, Note_off_c, 6, 48, 95
5, 230400, Note_on_c, 6, 67, 95
5, 230400, Note_on_c, 6, 62, 95
5, 230400, Note_on_c, 6, 55, 95
5, 230400, Note_on_c, 6, 50, 95
5, 230400, Note_on_c, 6, 43, 95
5, 241920, Note_off_c, 6, 67, 95
5, 241920, Note_off_c, 6, 62, 95
5, 241920, Note_off_c, 6, 55, 95
5, 241920, Note_off_c, 6, 50, 95
5, 241920, Note_off_c, 6, 43, 95
5, 241920, End_track
6, 0, Start_track
6, 0, Pitch_bend_c, 8, 8192
6, 0, Control_c, 8, 7, 87
6, 0, Control_c, 8, 10, 63
6, 0, Control_c, 8, 93, 0
6, 0, Control_c, 8, 91, 0
6, 0, Control_c, 8, 95, 0
6, 0, Control_c, 8, 92, 0
6, 0, Control_c, 8, 11, 127
6, 0, Program_c, 8, 24
6, 0, Control_c, 10, 7, 87
6, 0, Control_c, 10, 10, 63
6, 0, Control_c, 10, 93, 0
6, 0, Control_c, 10, 91, 0
6, 0, Control_c, 10, 95, 0
6, 0, Control_c, 10, 92, 0
6, 0, Control_c, 10, 11, 127
6, 0, Program_c, 10, 24
6, 0, Note_on_c, 8, 67, 95
6, 0, Note_on_c, 8, 59, 95
6, 0, Note_on_c, 8, 55, 95
6, 0, Note_on_c, 8, 50, 95
6, 0, Note_on_c, 8, 47, 95
6, 0, Note_on_c, 8, 43, 95
6, 960, Note_off_c, 8, 67, 95
6, 960, Note_off_c, 8, 59, 95
6, 960, Note_off_c, 8, 55, 95
6, 960, Note_off_c, 8, 50, 95
6, 960, Note_off_c, 8, 47, 95
6, 960, Note_off_c, 8, 43, 95
6, 960, Note_on_c, 8, 64, 95
6, 960, Note_on_c, 8, 59, 95
6, 960, Note_on_c, 8, 55, 95
6, 960, Note_on_c, 8, 50, 95
6, 960, Note_on_c, 8, 45, 95
6, 960, Note_on_c, 8, 40, 95
6, 1000, Note_off_c, 8, 64, 95
6, 1000, Note_off_c, 8, 59, 95
6, 1000, Note_off_c, 8, 55, 95
6, 1000, Note_off_c, 8, 50, 95
6, 1000, Note_off_c, 8, 45, 95
6, 1000, Note_off_c, 8, 40, 95
6, 1920, Note_on_c, 8, 66, 95
6, 1920, Note_on_c, 8, 62, 95
6, 1920, Note_on_c, 8, 57, 95
6, 1920, Note_on_c, 8, 50, 95
6, 2400, Note_off_c, 8, 66, 95
6, 2400, Note_off_c, 8, 62, 95
6, 2400, Note_off_c, 8, 57, 95
6, 2400, Note_off_c, 8, 50, 95
6, 2400, Note_on_c, 8, 66, 95
6, 2400, Note_on_c, 8, 62, 95
6, 2400, Note_on_c, 8, 57, 95
6, 2400, Note_on_c, 8, 50, 95
6, 2640, Note_off_c, 8, 66, 95
6, 2640, Note_off_c, 8, 62, 95
6, 2640, Note_off_c, 8, 57, 95
6, 2640, Note_off_c, 8, 50, 95
6, 2640, Note_on_c, 8, 66, 95
6, 2640, Note_on_c, 8, 62, 95
6, 2640, Note_on_c, 8, 57, 95
6, 2640, Note_on_c, 8, 50, 95
6, 2880, Note_off_c, 8, 66, 95
6, 2880, Note_off_c, 8, 62, 95
6, 2880, Note_off_c, 8, 57, 95
6, 2880, Note_off_c, 8, 50, 95
6, 2880, Note_on_c, 8, 66, 95
6, 2880, Note_on_c, 8, 62, 95
6, 2880, Note_on_c, 8, 57, 95
6, 2880, Note_on_c, 8, 50, 95
6, 3360, Note_off_c, 8, 66, 95
6, 3360, Note_off_c, 8, 62, 95
6, 3360, Note_off_c, 8, 57, 95
6, 3360, Note_off_c, 8, 50, 95
6, 3360, Note_on_c, 8, 66, 95
6, 3360, Note_on_c, 8, 62, 95
6, 3360, Note_on_c, 8, 57, 95
6, 3360, Note_on_c, 8, 50, 95
6, 3600, Note_off_c, 8, 66, 95
6, 3600, Note_off_c, 8, 62, 95
6, 3600, Note_off_c, 8, 57, 95
6, 3600, Note_off_c, 8, 50, 95
6, 3600, Note_on_c, 8, 66, 95
6, 3600, Note_on_c, 8, 62, 95
6, 3600, Note_on_c, 8, 57, 95
6, 3600, Note_on_c, 8, 50, 95
6, 3840, Note_off_c, 8, 66, 95
6, 3840, Note_off_c, 8, 62, 95
6, 3840, Note_off_c, 8, 57, 95
6, 3840, Note_off_c, 8, 50, 95
6, 3840, Note_on_c, 8, 64, 95
6, 3840, Note_on_c, 8, 62, 95
6, 3840, Note_on_c, 8, 55, 95
6, 3840, Note_on_c, 8, 52, 95
6, 3840, Note_on_c, 8, 48, 95
6, 4560, Note_off_c, 8, 64, 95
6, 4560, Note_off_c, 8, 62, 95
6, 4560, Note_off_c, 8, 55, 95
6, 4560, Note_off_c, 8, 52, 95
6, 4560, Note_off_c, 8, 48, 95
6, 4560, Note_on_c, 8, 64, 95
6, 4560, Note_on_c, 8, 62, 95
6, 4560, Note_on_c, 8, 55, 95
6, 4560, Note_on_c, 8, 52, 95
6, 4560, Note_on_c, 8, 48, 95
6, 4800, Note_off_c, 8, 64, 95
6, 4800, Note_off_c, 8, 62, 95
6, 4800, Note_off_c, 8, 55, 95
6, 4800, Note_off_c, 8, 52, 95
6, 4800, Note_off_c, 8, 48, 95
6, 4800, Note_on_c, 8, 64, 95
6, 4800, Note_on_c, 8, 62, 95
6, 4800, Note_on_c, 8, 55, 95
6, 4800, Note_on_c, 8, 52, 95
6, 4800, Note_on_c, 8, 48, 95
6, 5280, Note_off_c, 8, 64, 95
6, 5280, Note_off_c, 8, 62, 95
6, 5280, Note_off_c, 8, 55, 95
6, 5280, Note_off_c, 8, 52, 95
6, 5280, Note_off_c, 8, 48, 95
6, 5280, Note_on_c, 8, 62, 95
6, 5280, Note_on_c, 8, 55, 95
6, 5280, Note_on_c, 8, 50, 95
6, 5280, Note_on_c, 8, 47, 95
6, 5760, Note_off_c, 8, 62, 95
6, 5760, Note_off_c, 8, 55, 95
6, 5760, Note_off_c, 8, 50, 95
6, 5760, Note_off_c, 8, 47, 95
6, 5760, Note_on_c, 8, 62, 95
6, 5760, Note_on_c, 8, 55, 95
6, 5760, Note_on_c, 8, 50, 95
6, 5760, Note_on_c, 8, 47, 95
6, 6000, Note_off_c, 8, 62, 95
6, 6000, Note_off_c, 8, 55, 95
6, 6000, Note_off_c, 8, 50, 95
6, 6000, Note_off_c, 8, 47, 95
6, 6000, Note_on_c, 8, 62, 95
6, 6000, Note_on_c, 8, 55, 95
6, 6000, Note_on_c, 8, 50, 95
6, 6000, Note_on_c, 8, 47, 95
6, 6240, Note_off_c, 8, 62, 95
6, 6240, Note_off_c, 8, 55, 95
6, 6240, Note_off_c, 8, 50, 95
6, 6240, Note_off_c, 8, 47, 95
6, 6240, Note_on_c, 8, 62, 95
6, 6240, Note_on_c, 8, 55, 95
6, 6240, Note_on_c, 8, 50, 95
6, 6240, Note_on_c, 8, 47, 95
6, 6720, Note_off_c, 8, 62, 95
6, 6720, Note_off_c, 8, 55, 95
6, 6720, Note_off_c, 8, 50, 95
6, 6720, Note_off_c, 8, 47, 95
6, 6720, Note_on_c, 8, 64, 95
6, 6720, Note_on_c, 8, 60, 95
6, 6720, Note_on_c, 8, 57, 95
6, 6720, Note_on_c, 8, 52, 95
6, 6720, Note_on_c, 8, 45, 95
6, 7200, Note_off_c, 8, 64, 95
6, 7200, Note_off_c, 8, 60, 95
6, 7200, Note_off_c, 8, 57, 95
6, 7200, Note_off_c, 8, 52, 95
6, 7200, Note_off_c, 8, 45, 95
6, 7200, Note_on_c, 8, 64, 95
6, 7200, Note_on_c, 8, 60, 95
6, 7200, Note_on_c, 8, 55, 95
6, 7200, Note_on_c, 8, 52, 95
6, 7200, Note_on_c, 8, 45, 95
6, 7440, Note_off_c, 8, 64, 95
6, 7440, Note_off_c, 8, 60, 95
6, 7440, Note_off_c, 8, 55, 95
6, 7440, Note_off_c, 8, 52, 95
6, 7440, Note_off_c, 8, 45, 95
6, 7440, Note_on_c, 8, 64, 95
6, 7440, Note_on_c, 8, 60, 95
6, 7440, Note_on_c, 8, 55, 95
6, 7440, Note_on_c, 8, 52, 95
6, 7440, Note_on_c, 8, 45, 95
6, 7680, Note_off_c, 8, 64, 95
6, 7680, Note_off_c, 8, 60, 95
6, 7680, Note_off_c, 8, 55, 95
6, 7680, Note_off_c, 8, 52, 95
6, 7680, Note_off_c, 8, 45, 95
6, 7680, Note_on_c, 8, 67, 95
6, 7680, Note_on_c, 8, 59, 95
6, 7680, Note_on_c, 8, 55, 95
6, 7680, Note_on_c, 8, 50, 95
6, 7680, Note_on_c, 8, 47, 95
6, 7680, Note_on_c, 8, 43, 95
6, 8640, Note_off_c, 8, 67, 95
6, 8640, Note_off_c, 8, 59, 95
6, 8640, Note_off_c, 8, 55, 95
6, 8640, Note_off_c, 8, 50, 95
6, 8640, Note_off_c, 8, 47, 95
6, 8640, Note_off_c, 8, 43, 95
6, 8640, Note_on_c, 8, 64, 95
6, 8640, Note_on_c, 8, 59, 95
6, 8640, Note_on_c, 8, 55, 95
6, 8640, Note_on_c, 8, 50, 95
6, 8640, Note_on_c, 8, 45, 95
6, 8640, Note_on_c, 8, 40, 95
6, 8680, Note_off_c, 8, 64, 95
6, 8680, Note_off_c, 8, 59, 95
6, 8680, Note_off_c, 8, 55, 95
6, 8680, Note_off_c, 8, 50, 95
6, 8680, Note_off_c, 8, 45, 95
6, 8680, Note_off_c, 8, 40, 95
6, 9600, Note_on_c, 8, 66, 95
6, 9600, Note_on_c, 8, 62, 95
6, 9600, Note_on_c, 8, 57, 95
6, 9600, Note_on_c, 8, 50, 95
6, 10080, Note_off_c, 8, 66, 95
6, 10080, Note_off_c, 8, 62, 95
6, 10080, Note_off_c, 8, 57, 95
6, 10080, Note_off_c, 8, 50, 95
6, 10080, Note_on_c, 8, 66, 95
6, 10080, Note_on_c, 8, 62, 95
6, 10080, Note_on_c, 8, 57, 95
6, 10080, Note_on_c, 8, 50, 95
6, 10320, Note_off_c, 8, 66, 95
6, 10320, Note_off_c, 8, 62, 95
6, 10320, Note_off_c, 8, 57, 95
6, 10320, Note_off_c, 8, 50, 95
6, 10320, Note_on_c, 8, 66, 95
6, 10320, Note_on_c, 8, 62, 95
6, 10320, Note_on_c, 8, 57, 95
6, 10320, Note_on_c, 8, 50, 95
6, 10560, Note_off_c, 8, 66, 95
6, 10560, Note_off_c, 8, 62, 95
6, 10560, Note_off_c, 8, 57, 95
6, 10560, Note_off_c, 8, 50, 95
6, 10560, Note_on_c, 8, 66, 95
6, 10560, Note_on_c, 8, 62, 95
6, 10560, Note_on_c, 8, 57, 95
6, 10560, Note_on_c, 8, 50, 95
6, 11040, Note_off_c, 8, 66, 95
6, 11040, Note_off_c, 8, 62, 95
6, 11040, Note_off_c, 8, 57, 95
6, 11040, Note_off_c, 8, 50, 95
6, 11040, Note_on_c, 8, 66, 95
6, 11040, Note_on_c, 8, 62, 95
6, 11040, Note_on_c, 8, 57, 95
6, 11040, Note_on_c, 8, 50, 95
6, 11280, Note_off_c, 8, 66, 95
6, 11280, Note_off_c, 8, 62, 95
6, 11280, Note_off_c, 8, 57, 95
6, 11280, Note_off_c, 8, 50, 95
6, 11280, Note_on_c, 8, 66, 95
6, 11280, Note_on_c, 8, 62, 95
6, 11280, Note_on_c, 8, 57, 95
6, 11280, Note_on_c, 8, 50, 95
6, 11520, Note_off_c, 8, 66, 95
6, 11520, Note_off_c, 8, 62, 95
6, 11520, Note_off_c, 8, 57, 95
6, 11520, Note_off_c, 8, 50, 95
6, 11520, Note_on_c, 8, 64, 95
6, 11520, Note_on_c, 8, 62, 95
6, 11520, Note_on_c, 8, 55, 95
6, 11520, Note_on_c, 8, 52, 95
6, 11520, Note_on_c, 8, 48, 95
6, 12240, Note_off_c, 8, 64, 95
6, 12240, Note_off_c, 8, 62, 95
6, 12240, Note_off_c, 8, 55, 95
6, 12240, Note_off_c, 8, 52, 95
6, 12240, Note_off_c, 8, 48, 95
6, 12240, Note_on_c, 8, 64, 95
6, 12240, Note_on_c, 8, 62, 95
6, 12240, Note_on_c, 8, 55, 95
6, 12240, Note_on_c, 8, 52, 95
6, 12240, Note_on_c, 8, 48, 95
6, 12480, Note_off_c, 8, 64, 95
6, 12480, Note_off_c, 8, 62, 95
6, 12480, Note_off_c, 8, 55, 95
6, 12480, Note_off_c, 8, 52, 95
6, 12480, Note_off_c, 8, 48, 95
6, 12480, Note_on_c, 8, 64, 95
6, 12480, Note_on_c, 8, 62, 95
6, 12480, Note_on_c, 8, 55, 95
6, 12480, Note_on_c, 8, 52, 95
6, 12480, Note_on_c, 8, 48, 95
6, 12960, Note_off_c, 8, 64, 95
6, 12960, Note_off_c, 8, 62, 95
6, 12960, Note_off_c, 8, 55, 95
6, 12960, Note_off_c, 8, 52, 95
6, 12960, Note_off_c, 8, 48, 95
6, 12960, Note_on_c, 8, 62, 95
6, 12960, Note_on_c, 8, 55, 95
6, 12960, Note_on_c, 8, 50, 95
6, 12960, Note_on_c, 8, 47, 95
6, 13440, Note_off_c, 8, 62, 95
6, 13440, Note_off_c, 8, 55, 95
6, 13440, Note_off_c, 8, 50, 95
6, 13440, Note_off_c, 8, 47, 95
6, 13440, Note_on_c, 8, 62, 95
6, 13440, Note_on_c, 8, 55, 95
6, 13440, Note_on_c, 8, 50, 95
6, 13440, Note_on_c, 8, 47, 95
6, 13680, Note_off_c, 8, 62, 95
6, 13680, Note_off_c, 8, 55, 95
6, 13680, Note_off_c, 8, 50, 95
6, 13680, Note_off_c, 8, 47, 95
6, 13680, Note_on_c, 8, 62, 95
6, 13680, Note_on_c, 8, 55, 95
6, 13680, Note_on_c, 8, 50, 95
6, 13680, Note_on_c, 8, 47, 95
6, 13920, Note_off_c, 8, 62, 95
6, 13920, Note_off_c, 8, 55, 95
6, 13920, Note_off_c, 8, 50, 95
6, 13920, Note_off_c, 8, 47, 95
6, 13920, Note_on_c, 8, 62, 95
6, 13920, Note_on_c, 8, 55, 95
6, 13920, Note_on_c, 8, 50, 95
6, 13920, Note_on_c, 8, 47, 95
6, 14400, Note_off_c, 8, 62, 95
6, 14400, Note_off_c, 8, 55, 95
6, 14400, Note_off_c, 8, 50, 95
6, 14400, Note_off_c, 8, 47, 95
6, 14400, Note_on_c, 8, 64, 95
6, 14400, Note_on_c, 8, 60, 95
6, 14400, Note_on_c, 8, 57, 95
6, 14400, Note_on_c, 8, 52, 95
6, 14400, Note_on_c, 8, 45, 95
6, 14880, Note_off_c, 8, 64, 95
6, 14880, Note_off_c, 8, 60, 95
6, 14880, Note_off_c, 8, 57, 95
6, 14880, Note_off_c, 8, 52, 95
6, 14880, Note_off_c, 8, 45, 95
6, 14880, Note_on_c, 8, 64, 95
6, 14880, Note_on_c, 8, 60, 95
6, 14880, Note_on_c, 8, 55, 95
6, 14880, Note_on_c, 8, 52, 95
6, 14880, Note_on_c, 8, 45, 95
6, 15120, Note_off_c, 8, 64, 95
6, 15120, Note_off_c, 8, 60, 95
6, 15120, Note_off_c, 8, 55, 95
6, 15120, Note_off_c, 8, 52, 95
6, 15120, Note_off_c, 8, 45, 95
6, 15120, Note_on_c, 8, 64, 95
6, 15120, Note_on_c, 8, 60, 95
6, 15120, Note_on_c, 8, 55, 95
6, 15120, Note_on_c, 8, 52, 95
6, 15120, Note_on_c, 8, 45, 95
6, 15360, Note_off_c, 8, 64, 95
6, 15360, Note_off_c, 8, 60, 95
6, 15360, Note_off_c, 8, 55, 95
6, 15360, Note_off_c, 8, 52, 95
6, 15360, Note_off_c, 8, 45, 95
6, 15360, Note_on_c, 8, 67, 95
6, 15360, Note_on_c, 8, 59, 95
6, 15360, Note_on_c, 8, 55, 95
6, 15360, Note_on_c, 8, 50, 95
6, 15360, Note_on_c, 8, 47, 95
6, 15360, Note_on_c, 8, 43, 95
6, 16320, Note_off_c, 8, 67, 95
6, 16320, Note_off_c, 8, 59, 95
6, 16320, Note_off_c, 8, 55, 95
6, 16320, Note_off_c, 8, 50, 95
6, 16320, Note_off_c, 8, 47, 95
6, 16320, Note_off_c, 8, 43, 95
6, 16320, Note_on_c, 8, 64, 95
6, 16320, Note_on_c, 8, 59, 95
6, 16320, Note_on_c, 8, 55, 95
6, 16320, Note_on_c, 8, 50, 95
6, 16320, Note_on_c, 8, 45, 95
6, 16320, Note_on_c, 8, 40, 95
6, 16360, Note_off_c, 8, 64, 95
6, 16360, Note_off_c, 8, 59, 95
6, 16360, Note_off_c, 8, 55, 95
6, 16360, Note_off_c, 8, 50, 95
6, 16360, Note_off_c, 8, 45, 95
6, 16360, Note_off_c, 8, 40, 95
6, 17280, Note_on_c, 8, 66, 95
6, 17280, Note_on_c, 8, 62, 95
6, 17280, Note_on_c, 8, 57, 95
6, 17280, Note_on_c, 8, 50, 95
6, 17760, Note_off_c, 8, 66, 95
6, 17760, Note_off_c, 8, 62, 95
6, 17760, Note_off_c, 8, 57, 95
6, 17760, Note_off_c, 8, 50, 95
6, 17760, Note_on_c, 8, 66, 95
6, 17760, Note_on_c, 8, 62, 95
6, 17760, Note_on_c, 8, 57, 95
6, 17760, Note_on_c, 8, 50, 95
6, 18000, Note_off_c, 8, 66, 95
6, 18000, Note_off_c, 8, 62, 95
6, 18000, Note_off_c, 8, 57, 95
6, 18000, Note_off_c, 8, 50, 95
6, 18000, Note_on_c, 8, 66, 95
6, 18000, Note_on_c, 8, 62, 95
6, 18000, Note_on_c, 8, 57, 95
6, 18000, Note_on_c, 8, 50, 95
6, 18240, Note_off_c, 8, 66, 95
6, 18240, Note_off_c, 8, 62, 95
6, 18240, Note_off_c, 8, 57, 95
6, 18240, Note_off_c, 8, 50, 95
6, 18240, Note_on_c, 8, 66, 95
6, 18240, Note_on_c, 8, 62, 95
6, 18240, Note_on_c, 8, 57, 95
6, 18240, Note_on_c, 8, 50, 95
6, 18720, Note_off_c, 8, 66, 95
6, 18720, Note_off_c, 8, 62, 95
6, 18720, Note_off_c, 8, 57, 95
6, 18720, Note_off_c, 8, 50, 95
6, 18720, Note_on_c, 8, 66, 95
6, 18720, Note_on_c, 8, 62, 95
6, 18720, Note_on_c, 8, 57, 95
6, 18720, Note_on_c, 8, 50, 95
6, 18960, Note_off_c, 8, 66, 95
6, 18960, Note_off_c, 8, 62, 95
6, 18960, Note_off_c, 8, 57, 95
6, 18960, Note_off_c, 8, 50, 95
6, 18960, Note_on_c, 8, 66, 95
6, 18960, Note_on_c, 8, 62, 95
6, 18960, Note_on_c, 8, 57, 95
6, 18960, Note_on_c, 8, 50, 95
6, 19200, Note_off_c, 8, 66, 95
6, 19200, Note_off_c, 8, 62, 95
6, 19200, Note_off_c, 8, 57, 95
6, 19200, Note_off_c, 8, 50, 95
6, 19200, Note_on_c, 8, 64, 95
6, 19200, Note_on_c, 8, 62, 95
6, 19200, Note_on_c, 8, 55, 95
6, 19200, Note_on_c, 8, 52, 95
6, 19200, Note_on_c, 8, 48, 95
6, 19920, Note_off_c, 8, 64, 95
6, 19920, Note_off_c, 8, 62, 95
6, 19920, Note_off_c, 8, 55, 95
6, 19920, Note_off_c, 8, 52, 95
6, 19920, Note_off_c, 8, 48, 95
6, 19920, Note_on_c, 8, 64, 95
6, 19920, Note_on_c, 8, 62, 95
6, 19920, Note_on_c, 8, 55, 95
6, 19920, Note_on_c, 8, 52, 95
6, 19920, Note_on_c, 8, 48, 95
6, 20160, Note_off_c, 8, 64, 95
6, 20160, Note_off_c, 8, 62, 95
6, 20160, Note_off_c, 8, 55, 95
6, 20160, Note_off_c, 8, 52, 95
6, 20160, Note_off_c, 8, 48, 95
6, 20160, Note_on_c, 8, 64, 95
6, 20160, Note_on_c, 8, 62, 95
6, 20160, Note_on_c, 8, 55, 95
6, 20160, Note_on_c, 8, 52, 95
6, 20160, Note_on_c, 8, 48, 95
6, 20640, Note_off_c, 8, 64, 95
6, 20640, Note_off_c, 8, 62, 95
6, 20640, Note_off_c, 8, 55, 95
6, 20640, Note_off_c, 8, 52, 95
6, 20640, Note_off_c, 8, 48, 95
6, 20640, Note_on_c, 8, 62, 95
6, 20640, Note_on_c, 8, 55, 95
6, 20640, Note_on_c, 8, 50, 95
6, 20640, Note_on_c, 8, 47, 95
6, 21120, Note_off_c, 8, 62, 95
6, 21120, Note_off_c, 8, 55, 95
6, 21120, Note_off_c, 8, 50, 95
6, 21120, Note_off_c, 8, 47, 95
6, 21120, Note_on_c, 8, 62, 95
6, 21120, Note_on_c, 8, 55, 95
6, 21120, Note_on_c, 8, 50, 95
6, 21120, Note_on_c, 8, 47, 95
6, 21360, Note_off_c, 8, 62, 95
6, 21360, Note_off_c, 8, 55, 95
6, 21360, Note_off_c, 8, 50, 95
6, 21360, Note_off_c, 8, 47, 95
6, 21360, Note_on_c, 8, 62, 95
6, 21360, Note_on_c, 8, 55, 95
6, 21360, Note_on_c, 8, 50, 95
6, 21360, Note_on_c, 8, 47, 95
6, 21600, Note_off_c, 8, 62, 95
6, 21600, Note_off_c, 8, 55, 95
6, 21600, Note_off_c, 8, 50, 95
6, 21600, Note_off_c, 8, 47, 95
6, 21600, Note_on_c, 8, 62, 95
6, 21600, Note_on_c, 8, 55, 95
6, 21600, Note_on_c, 8, 50, 95
6, 21600, Note_on_c, 8, 47, 95
6, 22080, Note_off_c, 8, 62, 95
6, 22080, Note_off_c, 8, 55, 95
6, 22080, Note_off_c, 8, 50, 95
6, 22080, Note_off_c, 8, 47, 95
6, 22080, Note_on_c, 8, 64, 95
6, 22080, Note_on_c, 8, 60, 95
6, 22080, Note_on_c, 8, 57, 95
6, 22080, Note_on_c, 8, 52, 95
6, 22080, Note_on_c, 8, 45, 95
6, 22560, Note_off_c, 8, 64, 95
6, 22560, Note_off_c, 8, 60, 95
6, 22560, Note_off_c, 8, 57, 95
6, 22560, Note_off_c, 8, 52, 95
6, 22560, Note_off_c, 8, 45, 95
6, 22560, Note_on_c, 8, 64, 95
6, 22560, Note_on_c, 8, 60, 95
6, 22560, Note_on_c, 8, 55, 95
6, 22560, Note_on_c, 8, 52, 95
6, 22560, Note_on_c, 8, 45, 95
6, 22800, Note_off_c, 8, 64, 95
6, 22800, Note_off_c, 8, 60, 95
6, 22800, Note_off_c, 8, 55, 95
6, 22800, Note_off_c, 8, 52, 95
6, 22800, Note_off_c, 8, 45, 95
6, 22800, Note_on_c, 8, 64, 95
6, 22800, Note_on_c, 8, 60, 95
6, 22800, Note_on_c, 8, 55, 95
6, 22800, Note_on_c, 8, 52, 95
6, 22800, Note_on_c, 8, 45, 95
6, 23040, Note_off_c, 8, 64, 95
6, 23040, Note_off_c, 8, 60, 95
6, 23040, Note_off_c, 8, 55, 95
6, 23040, Note_off_c, 8, 52, 95
6, 23040, Note_off_c, 8, 45, 95
6, 23040, Note_on_c, 8, 67, 95
6, 23040, Note_on_c, 8, 59, 95
6, 23040, Note_on_c, 8, 55, 95
6, 23040, Note_on_c, 8, 50, 95
6, 23040, Note_on_c, 8, 47, 95
6, 23040, Note_on_c, 8, 43, 95
6, 24000, Note_off_c, 8, 67, 95
6, 24000, Note_off_c, 8, 59, 95
6, 24000, Note_off_c, 8, 55, 95
6, 24000, Note_off_c, 8, 50, 95
6, 24000, Note_off_c, 8, 47, 95
6, 24000, Note_off_c, 8, 43, 95
6, 24000, Note_on_c, 8, 64, 95
6, 24000, Note_on_c, 8, 59, 95
6, 24000, Note_on_c, 8, 55, 95
6, 24000, Note_on_c, 8, 50, 95
6, 24000, Note_on_c, 8, 45, 95
6, 24000, Note_on_c, 8, 40, 95
6, 24040, Note_off_c, 8, 64, 95
6, 24040, Note_off_c, 8, 59, 95
6, 24040, Note_off_c, 8, 55, 95
6, 24040, Note_off_c, 8, 50, 95
6, 24040, Note_off_c, 8, 45, 95
6, 24040, Note_off_c, 8, 40, 95
6, 24960, Note_on_c, 8, 66, 95
6, 24960, Note_on_c, 8, 62, 95
6, 24960, Note_on_c, 8, 57, 95
6, 24960, Note_on_c, 8, 50, 95
6, 25440, Note_off_c, 8, 66, 95
6, 25440, Note_off_c, 8, 62, 95
6, 25440, Note_off_c, 8, 57, 95
6, 25440, Note_off_c, 8, 50, 95
6, 25440, Note_on_c, 8, 66, 95
6, 25440, Note_on_c, 8, 62, 95
6, 25440, Note_on_c, 8, 57, 95
6, 25440, Note_on_c, 8, 50, 95
6, 25680, Note_off_c, 8, 66, 95
6, 25680, Note_off_c, 8, 62, 95
6, 25680, Note_off_c, 8, 57, 95
6, 25680, Note_off_c, 8, 50, 95
6, 25680, Note_on_c, 8, 66, 95
6, 25680, Note_on_c, 8, 62, 95
6, 25680, Note_on_c, 8, 57, 95
6, 25680, Note_on_c, 8, 50, 95
6, 25920, Note_off_c, 8, 66, 95
6, 25920, Note_off_c, 8, 62, 95
6, 25920, Note_off_c, 8, 57, 95
6, 25920, Note_off_c, 8, 50, 95
6, 25920, Note_on_c, 8, 66, 95
6, 25920, Note_on_c, 8, 62, 95
6, 25920, Note_on_c, 8, 57, 95
6, 25920, Note_on_c, 8, 50, 95
6, 26400, Note_off_c, 8, 66, 95
6, 26400, Note_off_c, 8, 62, 95
6, 26400, Note_off_c, 8, 57, 95
6, 26400, Note_off_c, 8, 50, 95
6, 26400, Note_on_c, 8, 66, 95
6, 26400, Note_on_c, 8, 62, 95
6, 26400, Note_on_c, 8, 57, 95
6, 26400, Note_on_c, 8, 50, 95
6, 26640, Note_off_c, 8, 66, 95
6, 26640, Note_off_c, 8, 62, 95
6, 26640, Note_off_c, 8, 57, 95
6, 26640, Note_off_c, 8, 50, 95
6, 26640, Note_on_c, 8, 66, 95
6, 26640, Note_on_c, 8, 62, 95
6, 26640, Note_on_c, 8, 57, 95
6, 26640, Note_on_c, 8, 50, 95
6, 26880, Note_off_c, 8, 66, 95
6, 26880, Note_off_c, 8, 62, 95
6, 26880, Note_off_c, 8, 57, 95
6, 26880, Note_off_c, 8, 50, 95
6, 26880, Note_on_c, 8, 64, 95
6, 26880, Note_on_c, 8, 62, 95
6, 26880, Note_on_c, 8, 55, 95
6, 26880, Note_on_c, 8, 52, 95
6, 26880, Note_on_c, 8, 48, 95
6, 27600, Note_off_c, 8, 64, 95
6, 27600, Note_off_c, 8, 62, 95
6, 27600, Note_off_c, 8, 55, 95
6, 27600, Note_off_c, 8, 52, 95
6, 27600, Note_off_c, 8, 48, 95
6, 27600, Note_on_c, 8, 64, 95
6, 27600, Note_on_c, 8, 62, 95
6, 27600, Note_on_c, 8, 55, 95
6, 27600, Note_on_c, 8, 52, 95
6, 27600, Note_on_c, 8, 48, 95
6, 27840, Note_off_c, 8, 64, 95
6, 27840, Note_off_c, 8, 62, 95
6, 27840, Note_off_c, 8, 55, 95
6, 27840, Note_off_c, 8, 52, 95
6, 27840, Note_off_c, 8, 48, 95
6, 27840, Note_on_c, 8, 64, 95
6, 27840, Note_on_c, 8, 62, 95
6, 27840, Note_on_c, 8, 55, 95
6, 27840, Note_on_c, 8, 52, 95
6, 27840, Note_on_c, 8, 48, 95
6, 28320, Note_off_c, 8, 64, 95
6, 28320, Note_off_c, 8, 62, 95
6, 28320, Note_off_c, 8, 55, 95
6, 28320, Note_off_c, 8, 52, 95
6, 28320, Note_off_c, 8, 48, 95
6, 28320, Note_on_c, 8, 62, 95
6, 28320, Note_on_c, 8, 55, 95
6, 28320, Note_on_c, 8, 50, 95
6, 28320, Note_on_c, 8, 47, 95
6, 28800, Note_off_c, 8, 62, 95
6, 28800, Note_off_c, 8, 55, 95
6, 28800, Note_off_c, 8, 50, 95
6, 28800, Note_off_c, 8, 47, 95
6, 28800, Note_on_c, 8, 62, 95
6, 28800, Note_on_c, 8, 55, 95
6, 28800, Note_on_c, 8, 50, 95
6, 28800, Note_on_c, 8, 47, 95
6, 29040, Note_off_c, 8, 62, 95
6, 29040, Note_off_c, 8, 55, 95
6, 29040, Note_off_c, 8, 50, 95
6, 29040, Note_off_c, 8, 47, 95
6, 29040, Note_on_c, 8, 62, 95
6, 29040, Note_on_c, 8, 55, 95
6, 29040, Note_on_c, 8, 50, 95
6, 29040, Note_on_c, 8, 47, 95
6, 29280, Note_off_c, 8, 62, 95
6, 29280, Note_off_c, 8, 55, 95
6, 29280, Note_off_c, 8, 50, 95
6, 29280, Note_off_c, 8, 47, 95
6, 29280, Note_on_c, 8, 62, 95
6, 29280, Note_on_c, 8, 55, 95
6, 29280, Note_on_c, 8, 50, 95
6, 29280, Note_on_c, 8, 47, 95
6, 29760, Note_off_c, 8, 62, 95
6, 29760, Note_off_c, 8, 55, 95
6, 29760, Note_off_c, 8, 50, 95
6, 29760, Note_off_c, 8, 47, 95
6, 29760, Note_on_c, 8, 64, 95
6, 29760, Note_on_c, 8, 60, 95
6, 29760, Note_on_c, 8, 57, 95
6, 29760, Note_on_c, 8, 52, 95
6, 29760, Note_on_c, 8, 45, 95
6, 30240, Note_off_c, 8, 64, 95
6, 30240, Note_off_c, 8, 60, 95
6, 30240, Note_off_c, 8, 57, 95
6, 30240, Note_off_c, 8, 52, 95
6, 30240, Note_off_c, 8, 45, 95
6, 30240, Note_on_c, 8, 64, 95
6, 30240, Note_on_c, 8, 60, 95
6, 30240, Note_on_c, 8, 55, 95
6, 30240, Note_on_c, 8, 52, 95
6, 30240, Note_on_c, 8, 45, 95
6, 30480, Note_off_c, 8, 64, 95
6, 30480, Note_off_c, 8, 60, 95
6, 30480, Note_off_c, 8, 55, 95
6, 30480, Note_off_c, 8, 52, 95
6, 30480, Note_off_c, 8, 45, 95
6, 30480, Note_on_c, 8, 64, 95
6, 30480, Note_on_c, 8, 60, 95
6, 30480, Note_on_c, 8, 55, 95
6, 30480, Note_on_c, 8, 52, 95
6, 30480, Note_on_c, 8, 45, 95
6, 30720, Note_off_c, 8, 64, 95
6, 30720, Note_off_c, 8, 60, 95
6, 30720, Note_off_c, 8, 55, 95
6, 30720, Note_off_c, 8, 52, 95
6, 30720, Note_off_c, 8, 45, 95
6, 30720, Note_on_c, 8, 67, 95
6, 30720, Note_on_c, 8, 59, 95
6, 30720, Note_on_c, 8, 55, 95
6, 30720, Note_on_c, 8, 50, 95
6, 30720, Note_on_c, 8, 47, 95
6, 30720, Note_on_c, 8, 43, 95
6, 31200, Note_off_c, 8, 67, 95
6, 31200, Note_off_c, 8, 59, 95
6, 31200, Note_off_c, 8, 55, 95
6, 31200, Note_off_c, 8, 50, 95
6, 31200, Note_off_c, 8, 47, 95
6, 31200, Note_off_c, 8, 43, 95
6, 31200, Note_on_c, 8, 67, 95
6, 31200, Note_on_c, 8, 59, 95
6, 31200, Note_on_c, 8, 55, 95
6, 31200, Note_on_c, 8, 50, 95
6, 31200, Note_on_c, 8, 47, 95
6, 31200, Note_on_c, 8, 43, 95
6, 31680, Note_off_c, 8, 67, 95
6, 31680, Note_off_c, 8, 59, 95
6, 31680, Note_off_c, 8, 55, 95
6, 31680, Note_off_c, 8, 50, 95
6, 31680, Note_off_c, 8, 47, 95
6, 31680, Note_off_c, 8, 43, 95
6, 31680, Note_on_c, 8, 67, 95
6, 31680, Note_on_c, 8, 59, 95
6, 31680, Note_on_c, 8, 55, 95
6, 31680, Note_on_c, 8, 50, 95
6, 31680, Note_on_c, 8, 47, 95
6, 31680, Note_on_c, 8, 43, 95
6, 32160, Note_off_c, 8, 67, 95
6, 32160, Note_off_c, 8, 59, 95
6, 32160, Note_off_c, 8, 55, 95
6, 32160, Note_off_c, 8, 50, 95
6, 32160, Note_off_c, 8, 47, 95
6, 32160, Note_off_c, 8, 43, 95
6, 32160, Note_on_c, 8, 67, 95
6, 32160, Note_on_c, 8, 59, 95
6, 32160, Note_on_c, 8, 55, 95
6, 32160, Note_on_c, 8, 50, 95
6, 32160, Note_on_c, 8, 47, 95
6, 32160, Note_on_c, 8, 43, 95
6, 32400, Note_off_c, 8, 67, 95
6, 32400, Note_off_c, 8, 59, 95
6, 32400, Note_off_c, 8, 55, 95
6, 32400, Note_off_c, 8, 50, 95
6, 32400, Note_off_c, 8, 47, 95
6, 32400, Note_off_c, 8, 43, 95
6, 32400, Note_on_c, 8, 67, 95
6, 32400, Note_on_c, 8, 59, 95
6, 32400, Note_on_c, 8, 55, 95
6, 32400, Note_on_c, 8, 50, 95
6, 32400, Note_on_c, 8, 47, 95
6, 32400, Note_on_c, 8, 43, 95
6, 32640, Note_off_c, 8, 67, 95
6, 32640, Note_off_c, 8, 59, 95
6, 32640, Note_off_c, 8, 55, 95
6, 32640, Note_off_c, 8, 50, 95
6, 32640, Note_off_c, 8, 47, 95
6, 32640, Note_off_c, 8, 43, 95
6, 32640, Note_on_c, 8, 67, 95
6, 32640, Note_on_c, 8, 59, 95
6, 32640, Note_on_c, 8, 55, 95
6, 32640, Note_on_c, 8, 50, 95
6, 32640, Note_on_c, 8, 47, 95
6, 32640, Note_on_c, 8, 43, 95
6, 32880, Note_off_c, 8, 67, 95
6, 32880, Note_off_c, 8, 59, 95
6, 32880, Note_off_c, 8, 55, 95
6, 32880, Note_off_c, 8, 50, 95
6, 32880, Note_off_c, 8, 47, 95
6, 32880, Note_off_c, 8, 43, 95
6, 32880, Note_on_c, 8, 67, 95
6, 32880, Note_on_c, 8, 59, 95
6, 32880, Note_on_c, 8, 55, 95
6, 32880, Note_on_c, 8, 50, 95
6, 32880, Note_on_c, 8, 47, 95
6, 32880, Note_on_c, 8, 43, 95
6, 33120, Note_off_c, 8, 67, 95
6, 33120, Note_off_c, 8, 59, 95
6, 33120, Note_off_c, 8, 55, 95
6, 33120, Note_off_c, 8, 50, 95
6, 33120, Note_off_c, 8, 47, 95
6, 33120, Note_off_c, 8, 43, 95
6, 33120, Note_on_c, 8, 67, 95
6, 33120, Note_on_c, 8, 59, 95
6, 33120, Note_on_c, 8, 55, 95
6, 33120, Note_on_c, 8, 50, 95
6, 33120, Note_on_c, 8, 47, 95
6, 33120, Note_on_c, 8, 43, 95
6, 33600, Note_off_c, 8, 67, 95
6, 33600, Note_off_c, 8, 59, 95
6, 33600, Note_off_c, 8, 55, 95
6, 33600, Note_off_c, 8, 50, 95
6, 33600, Note_off_c, 8, 47, 95
6, 33600, Note_off_c, 8, 43, 95
6, 33600, Note_on_c, 8, 67, 95
6, 33600, Note_on_c, 8, 59, 95
6, 33600, Note_on_c, 8, 55, 95
6, 33600, Note_on_c, 8, 50, 95
6, 33600, Note_on_c, 8, 47, 95
6, 33600, Note_on_c, 8, 43, 95
6, 34080, Note_off_c, 8, 67, 95
6, 34080, Note_off_c, 8, 59, 95
6, 34080, Note_off_c, 8, 55, 95
6, 34080, Note_off_c, 8, 50, 95
6, 34080, Note_off_c, 8, 47, 95
6, 34080, Note_off_c, 8, 43, 95
6, 34080, Note_on_c, 8, 67, 95
6, 34080, Note_on_c, 8, 59, 95
6, 34080, Note_on_c, 8, 55, 95
6, 34080, Note_on_c, 8, 50, 95
6, 34080, Note_on_c, 8, 47, 95
6, 34080, Note_on_c, 8, 43, 95
6, 34320, Note_off_c, 8, 67, 95
6, 34320, Note_off_c, 8, 59, 95
6, 34320, Note_off_c, 8, 55, 95
6, 34320, Note_off_c, 8, 50, 95
6, 34320, Note_off_c, 8, 47, 95
6, 34320, Note_off_c, 8, 43, 95
6, 34320, Note_on_c, 8, 67, 95
6, 34320, Note_on_c, 8, 59, 95
6, 34320, Note_on_c, 8, 55, 95
6, 34320, Note_on_c, 8, 50, 95
6, 34320, Note_on_c, 8, 47, 95
6, 34320, Note_on_c, 8, 43, 95
6, 34560, Note_off_c, 8, 67, 95
6, 34560, Note_off_c, 8, 59, 95
6, 34560, Note_off_c, 8, 55, 95
6, 34560, Note_off_c, 8, 50, 95
6, 34560, Note_off_c, 8, 47, 95
6, 34560, Note_off_c, 8, 43, 95
6, 34560, Note_on_c, 8, 66, 95
6, 34560, Note_on_c, 8, 62, 95
6, 34560, Note_on_c, 8, 59, 95
6, 34560, Note_on_c, 8, 54, 95
6, 34560, Note_on_c, 8, 47, 95
6, 35040, Note_off_c, 8, 66, 95
6, 35040, Note_off_c, 8, 62, 95
6, 35040, Note_off_c, 8, 59, 95
6, 35040, Note_off_c, 8, 54, 95
6, 35040, Note_off_c, 8, 47, 95
6, 35040, Note_on_c, 8, 66, 95
6, 35040, Note_on_c, 8, 62, 95
6, 35040, Note_on_c, 8, 59, 95
6, 35040, Note_on_c, 8, 54, 95
6, 35040, Note_on_c, 8, 47, 95
6, 35280, Note_off_c, 8, 66, 95
6, 35280, Note_off_c, 8, 62, 95
6, 35280, Note_off_c, 8, 59, 95
6, 35280, Note_off_c, 8, 54, 95
6, 35280, Note_off_c, 8, 47, 95
6, 35280, Note_on_c, 8, 66, 95
6, 35280, Note_on_c, 8, 62, 95
6, 35280, Note_on_c, 8, 59, 95
6, 35280, Note_on_c, 8, 54, 95
6, 35280, Note_on_c, 8, 47, 95
6, 35520, Note_off_c, 8, 66, 95
6, 35520, Note_off_c, 8, 62, 95
6, 35520, Note_off_c, 8, 59, 95
6, 35520, Note_off_c, 8, 54, 95
6, 35520, Note_off_c, 8, 47, 95
6, 35520, Note_on_c, 8, 66, 95
6, 35520, Note_on_c, 8, 62, 95
6, 35520, Note_on_c, 8, 59, 95
6, 35520, Note_on_c, 8, 54, 95
6, 35520, Note_on_c, 8, 47, 95
6, 36000, Note_off_c, 8, 66, 95
6, 36000, Note_off_c, 8, 62, 95
6, 36000, Note_off_c, 8, 59, 95
6, 36000, Note_off_c, 8, 54, 95
6, 36000, Note_off_c, 8, 47, 95
6, 36000, Note_on_c, 8, 66, 95
6, 36000, Note_on_c, 8, 62, 95
6, 36000, Note_on_c, 8, 59, 95
6, 36000, Note_on_c, 8, 54, 95
6, 36000, Note_on_c, 8, 47, 95
6, 36240, Note_off_c, 8, 66, 95
6, 36240, Note_off_c, 8, 62, 95
6, 36240, Note_off_c, 8, 59, 95
6, 36240, Note_off_c, 8, 54, 95
6, 36240, Note_off_c, 8, 47, 95
6, 36240, Note_on_c, 8, 66, 95
6, 36240, Note_on_c, 8, 62, 95
6, 36240, Note_on_c, 8, 59, 95
6, 36240, Note_on_c, 8, 54, 95
6, 36240, Note_on_c, 8, 47, 95
6, 36480, Note_off_c, 8, 66, 95
6, 36480, Note_off_c, 8, 62, 95
6, 36480, Note_off_c, 8, 59, 95
6, 36480, Note_off_c, 8, 54, 95
6, 36480, Note_off_c, 8, 47, 95
6, 36480, Note_on_c, 8, 66, 95
6, 36480, Note_on_c, 8, 59, 95
6, 36480, Note_on_c, 8, 54, 95
6, 36480, Note_on_c, 8, 47, 95
6, 36720, Note_off_c, 8, 66, 95
6, 36720, Note_off_c, 8, 59, 95
6, 36720, Note_off_c, 8, 54, 95
6, 36720, Note_off_c, 8, 47, 95
6, 36720, Note_on_c, 8, 66, 95
6, 36720, Note_on_c, 8, 62, 95
6, 36720, Note_on_c, 8, 59, 95
6, 36720, Note_on_c, 8, 54, 95
6, 36720, Note_on_c, 8, 47, 95
6, 36960, Note_off_c, 8, 66, 95
6, 36960, Note_off_c, 8, 62, 95
6, 36960, Note_off_c, 8, 59, 95
6, 36960, Note_off_c, 8, 54, 95
6, 36960, Note_off_c, 8, 47, 95
6, 36960, Note_on_c, 8, 66, 95
6, 36960, Note_on_c, 8, 62, 95
6, 36960, Note_on_c, 8, 59, 95
6, 36960, Note_on_c, 8, 54, 95
6, 36960, Note_on_c, 8, 47, 95
6, 37440, Note_off_c, 8, 66, 95
6, 37440, Note_off_c, 8, 62, 95
6, 37440, Note_off_c, 8, 59, 95
6, 37440, Note_off_c, 8, 54, 95
6, 37440, Note_off_c, 8, 47, 95
6, 37440, Note_on_c, 8, 66, 95
6, 37440, Note_on_c, 8, 62, 95
6, 37440, Note_on_c, 8, 59, 95
6, 37440, Note_on_c, 8, 54, 95
6, 37440, Note_on_c, 8, 47, 95
6, 37920, Note_off_c, 8, 66, 95
6, 37920, Note_off_c, 8, 62, 95
6, 37920, Note_off_c, 8, 59, 95
6, 37920, Note_off_c, 8, 54, 95
6, 37920, Note_off_c, 8, 47, 95
6, 37920, Note_on_c, 8, 66, 95
6, 37920, Note_on_c, 8, 62, 95
6, 37920, Note_on_c, 8, 59, 95
6, 37920, Note_on_c, 8, 54, 95
6, 37920, Note_on_c, 8, 47, 95
6, 38160, Note_off_c, 8, 66, 95
6, 38160, Note_off_c, 8, 62, 95
6, 38160, Note_off_c, 8, 59, 95
6, 38160, Note_off_c, 8, 54, 95
6, 38160, Note_off_c, 8, 47, 95
6, 38160, Note_on_c, 8, 66, 95
6, 38160, Note_on_c, 8, 62, 95
6, 38160, Note_on_c, 8, 59, 95
6, 38160, Note_on_c, 8, 54, 95
6, 38160, Note_on_c, 8, 47, 95
6, 38400, Note_off_c, 8, 66, 95
6, 38400, Note_off_c, 8, 62, 95
6, 38400, Note_off_c, 8, 59, 95
6, 38400, Note_off_c, 8, 54, 95
6, 38400, Note_off_c, 8, 47, 95
6, 38400, Note_on_c, 8, 64, 95
6, 38400, Note_on_c, 8, 60, 95
6, 38400, Note_on_c, 8, 55, 95
6, 38400, Note_on_c, 8, 52, 95
6, 38400, Note_on_c, 8, 48, 95
6, 38400, Note_on_c, 8, 43, 95
6, 38880, Note_off_c, 8, 64, 95
6, 38880, Note_off_c, 8, 60, 95
6, 38880, Note_off_c, 8, 55, 95
6, 38880, Note_off_c, 8, 52, 95
6, 38880, Note_off_c, 8, 48, 95
6, 38880, Note_off_c, 8, 43, 95
6, 38880, Note_on_c, 8, 64, 95
6, 38880, Note_on_c, 8, 60, 95
6, 38880, Note_on_c, 8, 55, 95
6, 38880, Note_on_c, 8, 52, 95
6, 38880, Note_on_c, 8, 48, 95
6, 38880, Note_on_c, 8, 43, 95
6, 39120, Note_off_c, 8, 64, 95
6, 39120, Note_off_c, 8, 60, 95
6, 39120, Note_off_c, 8, 55, 95
6, 39120, Note_off_c, 8, 52, 95
6, 39120, Note_off_c, 8, 48, 95
6, 39120, Note_off_c, 8, 43, 95
6, 39120, Note_on_c, 8, 64, 95
6, 39120, Note_on_c, 8, 60, 95
6, 39120, Note_on_c, 8, 55, 95
6, 39120, Note_on_c, 8, 52, 95
6, 39120, Note_on_c, 8, 48, 95
6, 39120, Note_on_c, 8, 43, 95
6, 39360, Note_off_c, 8, 64, 95
6, 39360, Note_off_c, 8, 60, 95
6, 39360, Note_off_c, 8, 55, 95
6, 39360, Note_off_c, 8, 52, 95
6, 39360, Note_off_c, 8, 48, 95
6, 39360, Note_off_c, 8, 43, 95
6, 39360, Note_on_c, 8, 64, 95
6, 39360, Note_on_c, 8, 60, 95
6, 39360, Note_on_c, 8, 55, 95
6, 39360, Note_on_c, 8, 52, 95
6, 39360, Note_on_c, 8, 48, 95
6, 39360, Note_on_c, 8, 43, 95
6, 39840, Note_off_c, 8, 64, 95
6, 39840, Note_off_c, 8, 60, 95
6, 39840, Note_off_c, 8, 55, 95
6, 39840, Note_off_c, 8, 52, 95
6, 39840, Note_off_c, 8, 48, 95
6, 39840, Note_off_c, 8, 43, 95
6, 39840, Note_on_c, 8, 64, 95
6, 39840, Note_on_c, 8, 60, 95
6, 39840, Note_on_c, 8, 55, 95
6, 39840, Note_on_c, 8, 52, 95
6, 39840, Note_on_c, 8, 48, 95
6, 39840, Note_on_c, 8, 43, 95
6, 40080, Note_off_c, 8, 64, 95
6, 40080, Note_off_c, 8, 60, 95
6, 40080, Note_off_c, 8, 55, 95
6, 40080, Note_off_c, 8, 52, 95
6, 40080, Note_off_c, 8, 48, 95
6, 40080, Note_off_c, 8, 43, 95
6, 40080, Note_on_c, 8, 64, 95
6, 40080, Note_on_c, 8, 60, 95
6, 40080, Note_on_c, 8, 55, 95
6, 40080, Note_on_c, 8, 52, 95
6, 40080, Note_on_c, 8, 48, 95
6, 40080, Note_on_c, 8, 43, 95
6, 40320, Note_off_c, 8, 64, 95
6, 40320, Note_off_c, 8, 60, 95
6, 40320, Note_off_c, 8, 55, 95
6, 40320, Note_off_c, 8, 52, 95
6, 40320, Note_off_c, 8, 48, 95
6, 40320, Note_off_c, 8, 43, 95
6, 40320, Note_on_c, 8, 64, 95
6, 40320, Note_on_c, 8, 60, 95
6, 40320, Note_on_c, 8, 55, 95
6, 40320, Note_on_c, 8, 52, 95
6, 40320, Note_on_c, 8, 48, 95
6, 40320, Note_on_c, 8, 43, 95
6, 40800, Note_off_c, 8, 64, 95
6, 40800, Note_off_c, 8, 60, 95
6, 40800, Note_off_c, 8, 55, 95
6, 40800, Note_off_c, 8, 52, 95
6, 40800, Note_off_c, 8, 48, 95
6, 40800, Note_off_c, 8, 43, 95
6, 40800, Note_on_c, 8, 67, 95
6, 40800, Note_on_c, 8, 59, 95
6, 40800, Note_on_c, 8, 55, 95
6, 40800, Note_on_c, 8, 50, 95
6, 40800, Note_on_c, 8, 47, 95
6, 40800, Note_on_c, 8, 43, 95
6, 41280, Note_off_c, 8, 67, 95
6, 41280, Note_off_c, 8, 59, 95
6, 41280, Note_off_c, 8, 55, 95
6, 41280, Note_off_c, 8, 50, 95
6, 41280, Note_off_c, 8, 47, 95
6, 41280, Note_off_c, 8, 43, 95
6, 41280, Note_on_c, 8, 64, 95
6, 41280, Note_on_c, 8, 60, 95
6, 41280, Note_on_c, 8, 55, 95
6, 41280, Note_on_c, 8, 52, 95
6, 41280, Note_on_c, 8, 48, 95
6, 41280, Note_on_c, 8, 43, 95
6, 41760, Note_off_c, 8, 64, 95
6, 41760, Note_off_c, 8, 60, 95
6, 41760, Note_off_c, 8, 55, 95
6, 41760, Note_off_c, 8, 52, 95
6, 41760, Note_off_c, 8, 48, 95
6, 41760, Note_off_c, 8, 43, 95
6, 41760, Note_on_c, 8, 64, 95
6, 41760, Note_on_c, 8, 61, 95
6, 41760, Note_on_c, 8, 55, 95
6, 41760, Note_on_c, 8, 52, 95
6, 41760, Note_on_c, 8, 45, 95
6, 42240, Note_off_c, 8, 64, 95
6, 42240, Note_off_c, 8, 61, 95
6, 42240, Note_off_c, 8, 55, 95
6, 42240, Note_off_c, 8, 52, 95
6, 42240, Note_off_c, 8, 45, 95
6, 42240, Note_on_c, 8, 66, 95
6, 42240, Note_on_c, 8, 62, 95
6, 42240, Note_on_c, 8, 57, 95
6, 42240, Note_on_c, 8, 50, 95
6, 42720, Note_off_c, 8, 66, 95
6, 42720, Note_off_c, 8, 62, 95
6, 42720, Note_off_c, 8, 57, 95
6, 42720, Note_off_c, 8, 50, 95
6, 42720, Note_on_c, 8, 66, 95
6, 42720, Note_on_c, 8, 62, 95
6, 42720, Note_on_c, 8, 57, 95
6, 42720, Note_on_c, 8, 50, 95
6, 42960, Note_off_c, 8, 66, 95
6, 42960, Note_off_c, 8, 62, 95
6, 42960, Note_off_c, 8, 57, 95
6, 42960, Note_off_c, 8, 50, 95
6, 42960, Note_on_c, 8, 66, 95
6, 42960, Note_on_c, 8, 62, 95
6, 42960, Note_on_c, 8, 57, 95
6, 42960, Note_on_c, 8, 50, 95
6, 43200, Note_off_c, 8, 66, 95
6, 43200, Note_off_c, 8, 62, 95
6, 43200, Note_off_c, 8, 57, 95
6, 43200, Note_off_c, 8, 50, 95
6, 43200, Note_on_c, 8, 66, 95
6, 43200, Note_on_c, 8, 62, 95
6, 43200, Note_on_c, 8, 57, 95
6, 43200, Note_on_c, 8, 50, 95
6, 43680, Note_off_c, 8, 66, 95
6, 43680, Note_off_c, 8, 62, 95
6, 43680, Note_off_c, 8, 57, 95
6, 43680, Note_off_c, 8, 50, 95
6, 43680, Note_on_c, 8, 66, 95
6, 43680, Note_on_c, 8, 62, 95
6, 43680, Note_on_c, 8, 57, 95
6, 43680, Note_on_c, 8, 50, 95
6, 43920, Note_off_c, 8, 66, 95
6, 43920, Note_off_c, 8, 62, 95
6, 43920, Note_off_c, 8, 57, 95
6, 43920, Note_off_c, 8, 50, 95
6, 43920, Note_on_c, 8, 66, 95
6, 43920, Note_on_c, 8, 62, 95
6, 43920, Note_on_c, 8, 57, 95
6, 43920, Note_on_c, 8, 50, 95
6, 44160, Note_off_c, 8, 66, 95
6, 44160, Note_off_c, 8, 62, 95
6, 44160, Note_off_c, 8, 57, 95
6, 44160, Note_off_c, 8, 50, 95
6, 44160, Note_on_c, 8, 66, 95
6, 44160, Note_on_c, 8, 62, 95
6, 44160, Note_on_c, 8, 57, 95
6, 44160, Note_on_c, 8, 50, 95
6, 44400, Note_off_c, 8, 66, 95
6, 44400, Note_off_c, 8, 62, 95
6, 44400, Note_off_c, 8, 57, 95
6, 44400, Note_off_c, 8, 50, 95
6, 44400, Note_on_c, 8, 66, 95
6, 44400, Note_on_c, 8, 62, 95
6, 44400, Note_on_c, 8, 57, 95
6, 44400, Note_on_c, 8, 50, 95
6, 44640, Note_off_c, 8, 66, 95
6, 44640, Note_off_c, 8, 62, 95
6, 44640, Note_off_c, 8, 57, 95
6, 44640, Note_off_c, 8, 50, 95
6, 44640, Note_on_c, 8, 66, 95
6, 44640, Note_on_c, 8, 62, 95
6, 44640, Note_on_c, 8, 57, 95
6, 44640, Note_on_c, 8, 50, 95
6, 45120, Note_off_c, 8, 66, 95
6, 45120, Note_off_c, 8, 62, 95
6, 45120, Note_off_c, 8, 57, 95
6, 45120, Note_off_c, 8, 50, 95
6, 45120, Note_on_c, 8, 66, 95
6, 45120, Note_on_c, 8, 62, 95
6, 45120, Note_on_c, 8, 57, 95
6, 45120, Note_on_c, 8, 50, 95
6, 45600, Note_off_c, 8, 66, 95
6, 45600, Note_off_c, 8, 62, 95
6, 45600, Note_off_c, 8, 57, 95
6, 45600, Note_off_c, 8, 50, 95
6, 45600, Note_on_c, 8, 66, 95
6, 45600, Note_on_c, 8, 62, 95
6, 45600, Note_on_c, 8, 57, 95
6, 45600, Note_on_c, 8, 50, 95
6, 45840, Note_off_c, 8, 66, 95
6, 45840, Note_off_c, 8, 62, 95
6, 45840, Note_off_c, 8, 57, 95
6, 45840, Note_off_c, 8, 50, 95
6, 45840, Note_on_c, 8, 66, 95
6, 45840, Note_on_c, 8, 62, 95
6, 45840, Note_on_c, 8, 57, 95
6, 45840, Note_on_c, 8, 50, 95
6, 46080, Note_off_c, 8, 66, 95
6, 46080, Note_off_c, 8, 62, 95
6, 46080, Note_off_c, 8, 57, 95
6, 46080, Note_off_c, 8, 50, 95
6, 46080, Note_on_c, 8, 67, 95
6, 46080, Note_on_c, 8, 59, 95
6, 46080, Note_on_c, 8, 55, 95
6, 46080, Note_on_c, 8, 50, 95
6, 46080, Note_on_c, 8, 47, 95
6, 46080, Note_on_c, 8, 43, 95
6, 46560, Note_off_c, 8, 67, 95
6, 46560, Note_off_c, 8, 59, 95
6, 46560, Note_off_c, 8, 55, 95
6, 46560, Note_off_c, 8, 50, 95
6, 46560, Note_off_c, 8, 47, 95
6, 46560, Note_off_c, 8, 43, 95
6, 46560, Note_on_c, 8, 67, 95
6, 46560, Note_on_c, 8, 59, 95
6, 46560, Note_on_c, 8, 55, 95
6, 46560, Note_on_c, 8, 50, 95
6, 46560, Note_on_c, 8, 47, 95
6, 46560, Note_on_c, 8, 43, 95
6, 46800, Note_off_c, 8, 67, 95
6, 46800, Note_off_c, 8, 59, 95
6, 46800, Note_off_c, 8, 55, 95
6, 46800, Note_off_c, 8, 50, 95
6, 46800, Note_off_c, 8, 47, 95
6, 46800, Note_off_c, 8, 43, 95
6, 46800, Note_on_c, 8, 67, 95
6, 46800, Note_on_c, 8, 59, 95
6, 46800, Note_on_c, 8, 55, 95
6, 46800, Note_on_c, 8, 50, 95
6, 46800, Note_on_c, 8, 47, 95
6, 46800, Note_on_c, 8, 43, 95
6, 47040, Note_off_c, 8, 67, 95
6, 47040, Note_off_c, 8, 59, 95
6, 47040, Note_off_c, 8, 55, 95
6, 47040, Note_off_c, 8, 50, 95
6, 47040, Note_off_c, 8, 47, 95
6, 47040, Note_off_c, 8, 43, 95
6, 47040, Note_on_c, 8, 67, 95
6, 47040, Note_on_c, 8, 59, 95
6, 47040, Note_on_c, 8, 55, 95
6, 47040, Note_on_c, 8, 50, 95
6, 47040, Note_on_c, 8, 47, 95
6, 47040, Note_on_c, 8, 43, 95
6, 47520, Note_off_c, 8, 67, 95
6, 47520, Note_off_c, 8, 59, 95
6, 47520, Note_off_c, 8, 55, 95
6, 47520, Note_off_c, 8, 50, 95
6, 47520, Note_off_c, 8, 47, 95
6, 47520, Note_off_c, 8, 43, 95
6, 47520, Note_on_c, 8, 67, 95
6, 47520, Note_on_c, 8, 59, 95
6, 47520, Note_on_c, 8, 55, 95
6, 47520, Note_on_c, 8, 50, 95
6, 47520, Note_on_c, 8, 47, 95
6, 47520, Note_on_c, 8, 43, 95
6, 47760, Note_off_c, 8, 67, 95
6, 47760, Note_off_c, 8, 59, 95
6, 47760, Note_off_c, 8, 55, 95
6, 47760, Note_off_c, 8, 50, 95
6, 47760, Note_off_c, 8, 47, 95
6, 47760, Note_off_c, 8, 43, 95
6, 47760, Note_on_c, 8, 67, 95
6, 47760, Note_on_c, 8, 59, 95
6, 47760, Note_on_c, 8, 55, 95
6, 47760, Note_on_c, 8, 50, 95
6, 47760, Note_on_c, 8, 47, 95
6, 47760, Note_on_c, 8, 43, 95
6, 48000, Note_off_c, 8, 67, 95
6, 48000, Note_off_c, 8, 59, 95
6, 48000, Note_off_c, 8, 55, 95
6, 48000, Note_off_c, 8, 50, 95
6, 48000, Note_off_c, 8, 47, 95
6, 48000, Note_off_c, 8, 43, 95
6, 48000, Note_on_c, 8, 67, 95
6, 48000, Note_on_c, 8, 59, 95
6, 48000, Note_on_c, 8, 55, 95
6, 48000, Note_on_c, 8, 50, 95
6, 48000, Note_on_c, 8, 47, 95
6, 48000, Note_on_c, 8, 43, 95
6, 48480, Note_off_c, 8, 67, 95
6, 48480, Note_off_c, 8, 59, 95
6, 48480, Note_off_c, 8, 55, 95
6, 48480, Note_off_c, 8, 50, 95
6, 48480, Note_off_c, 8, 47, 95
6, 48480, Note_off_c, 8, 43, 95
6, 48480, Note_on_c, 8, 67, 95
6, 48480, Note_on_c, 8, 59, 95
6, 48480, Note_on_c, 8, 55, 95
6, 48480, Note_on_c, 8, 50, 95
6, 48480, Note_on_c, 8, 47, 95
6, 48480, Note_on_c, 8, 43, 95
6, 48960, Note_off_c, 8, 67, 95
6, 48960, Note_off_c, 8, 59, 95
6, 48960, Note_off_c, 8, 55, 95
6, 48960, Note_off_c, 8, 50, 95
6, 48960, Note_off_c, 8, 47, 95
6, 48960, Note_off_c, 8, 43, 95
6, 48960, Note_on_c, 8, 67, 95
6, 48960, Note_on_c, 8, 59, 95
6, 48960, Note_on_c, 8, 55, 95
6, 48960, Note_on_c, 8, 50, 95
6, 48960, Note_on_c, 8, 47, 95
6, 48960, Note_on_c, 8, 43, 95
6, 49200, Note_off_c, 8, 67, 95
6, 49200, Note_off_c, 8, 59, 95
6, 49200, Note_off_c, 8, 55, 95
6, 49200, Note_off_c, 8, 50, 95
6, 49200, Note_off_c, 8, 47, 95
6, 49200, Note_off_c, 8, 43, 95
6, 49200, Note_on_c, 8, 67, 95
6, 49200, Note_on_c, 8, 59, 95
6, 49200, Note_on_c, 8, 55, 95
6, 49200, Note_on_c, 8, 50, 95
6, 49200, Note_on_c, 8, 47, 95
6, 49200, Note_on_c, 8, 43, 95
6, 49440, Note_off_c, 8, 67, 95
6, 49440, Note_off_c, 8, 59, 95
6, 49440, Note_off_c, 8, 55, 95
6, 49440, Note_off_c, 8, 50, 95
6, 49440, Note_off_c, 8, 47, 95
6, 49440, Note_off_c, 8, 43, 95
6, 49440, Note_on_c, 8, 67, 95
6, 49440, Note_on_c, 8, 59, 95
6, 49440, Note_on_c, 8, 55, 95
6, 49440, Note_on_c, 8, 50, 95
6, 49440, Note_on_c, 8, 47, 95
6, 49440, Note_on_c, 8, 43, 95
6, 49680, Note_off_c, 8, 67, 95
6, 49680, Note_off_c, 8, 59, 95
6, 49680, Note_off_c, 8, 55, 95
6, 49680, Note_off_c, 8, 50, 95
6, 49680, Note_off_c, 8, 47, 95
6, 49680, Note_off_c, 8, 43, 95
6, 49680, Note_on_c, 8, 67, 95
6, 49680, Note_on_c, 8, 59, 95
6, 49680, Note_on_c, 8, 55, 95
6, 49680, Note_on_c, 8, 50, 95
6, 49680, Note_on_c, 8, 47, 95
6, 49680, Note_on_c, 8, 43, 95
6, 49920, Note_off_c, 8, 67, 95
6, 49920, Note_off_c, 8, 59, 95
6, 49920, Note_off_c, 8, 55, 95
6, 49920, Note_off_c, 8, 50, 95
6, 49920, Note_off_c, 8, 47, 95
6, 49920, Note_off_c, 8, 43, 95
6, 49920, Note_on_c, 8, 64, 95
6, 49920, Note_on_c, 8, 59, 95
6, 49920, Note_on_c, 8, 55, 95
6, 49920, Note_on_c, 8, 52, 95
6, 49920, Note_on_c, 8, 47, 95
6, 49920, Note_on_c, 8, 40, 95
6, 50160, Note_off_c, 8, 64, 95
6, 50160, Note_off_c, 8, 59, 95
6, 50160, Note_off_c, 8, 55, 95
6, 50160, Note_off_c, 8, 52, 95
6, 50160, Note_off_c, 8, 47, 95
6, 50160, Note_off_c, 8, 40, 95
6, 50160, Note_on_c, 8, 64, 95
6, 50160, Note_on_c, 8, 59, 95
6, 50160, Note_on_c, 8, 55, 95
6, 50160, Note_on_c, 8, 52, 95
6, 50160, Note_on_c, 8, 47, 95
6, 50160, Note_on_c, 8, 40, 95
6, 50400, Note_off_c, 8, 64, 95
6, 50400, Note_off_c, 8, 59, 95
6, 50400, Note_off_c, 8, 55, 95
6, 50400, Note_off_c, 8, 52, 95
6, 50400, Note_off_c, 8, 47, 95
6, 50400, Note_off_c, 8, 40, 95
6, 50400, Note_on_c, 8, 64, 95
6, 50400, Note_on_c, 8, 59, 95
6, 50400, Note_on_c, 8, 55, 95
6, 50400, Note_on_c, 8, 52, 95
6, 50400, Note_on_c, 8, 47, 95
6, 50400, Note_on_c, 8, 40, 95
6, 50640, Note_off_c, 8, 64, 95
6, 50640, Note_off_c, 8, 59, 95
6, 50640, Note_off_c, 8, 55, 95
6, 50640, Note_off_c, 8, 52, 95
6, 50640, Note_off_c, 8, 47, 95
6, 50640, Note_off_c, 8, 40, 95
6, 50640, Note_on_c, 8, 64, 95
6, 50640, Note_on_c, 8, 59, 95
6, 50640, Note_on_c, 8, 55, 95
6, 50640, Note_on_c, 8, 52, 95
6, 50640, Note_on_c, 8, 47, 95
6, 50640, Note_on_c, 8, 40, 95
6, 50880, Note_off_c, 8, 64, 95
6, 50880, Note_off_c, 8, 59, 95
6, 50880, Note_off_c, 8, 55, 95
6, 50880, Note_off_c, 8, 52, 95
6, 50880, Note_off_c, 8, 47, 95
6, 50880, Note_off_c, 8, 40, 95
6, 50880, Note_on_c, 8, 64, 95
6, 50880, Note_on_c, 8, 59, 95
6, 50880, Note_on_c, 8, 55, 95
6, 50880, Note_on_c, 8, 52, 95
6, 50880, Note_on_c, 8, 47, 95
6, 50880, Note_on_c, 8, 40, 95
6, 51360, Note_off_c, 8, 64, 95
6, 51360, Note_off_c, 8, 59, 95
6, 51360, Note_off_c, 8, 55, 95
6, 51360, Note_off_c, 8, 52, 95
6, 51360, Note_off_c, 8, 47, 95
6, 51360, Note_off_c, 8, 40, 95
6, 51360, Note_on_c, 8, 64, 95
6, 51360, Note_on_c, 8, 59, 95
6, 51360, Note_on_c, 8, 55, 95
6, 51360, Note_on_c, 8, 52, 95
6, 51360, Note_on_c, 8, 47, 95
6, 51360, Note_on_c, 8, 40, 95
6, 51600, Note_off_c, 8, 64, 95
6, 51600, Note_off_c, 8, 59, 95
6, 51600, Note_off_c, 8, 55, 95
6, 51600, Note_off_c, 8, 52, 95
6, 51600, Note_off_c, 8, 47, 95
6, 51600, Note_off_c, 8, 40, 95
6, 51600, Note_on_c, 8, 64, 95
6, 51600, Note_on_c, 8, 59, 95
6, 51600, Note_on_c, 8, 55, 95
6, 51600, Note_on_c, 8, 52, 95
6, 51600, Note_on_c, 8, 47, 95
6, 51600, Note_on_c, 8, 40, 95
6, 51840, Note_off_c, 8, 64, 95
6, 51840, Note_off_c, 8, 59, 95
6, 51840, Note_off_c, 8, 55, 95
6, 51840, Note_off_c, 8, 52, 95
6, 51840, Note_off_c, 8, 47, 95
6, 51840, Note_off_c, 8, 40, 95
6, 51840, Note_on_c, 8, 64, 95
6, 51840, Note_on_c, 8, 59, 95
6, 51840, Note_on_c, 8, 55, 95
6, 51840, Note_on_c, 8, 52, 95
6, 51840, Note_on_c, 8, 47, 95
6, 51840, Note_on_c, 8, 40, 95
6, 52080, Note_off_c, 8, 64, 95
6, 52080, Note_off_c, 8, 59, 95
6, 52080, Note_off_c, 8, 55, 95
6, 52080, Note_off_c, 8, 52, 95
6, 52080, Note_off_c, 8, 47, 95
6, 52080, Note_off_c, 8, 40, 95
6, 52080, Note_on_c, 8, 64, 95
6, 52080, Note_on_c, 8, 59, 95
6, 52080, Note_on_c, 8, 55, 95
6, 52080, Note_on_c, 8, 52, 95
6, 52080, Note_on_c, 8, 47, 95
6, 52080, Note_on_c, 8, 40, 95
6, 52320, Note_off_c, 8, 64, 95
6, 52320, Note_off_c, 8, 59, 95
6, 52320, Note_off_c, 8, 55, 95
6, 52320, Note_off_c, 8, 52, 95
6, 52320, Note_off_c, 8, 47, 95
6, 52320, Note_off_c, 8, 40, 95
6, 52320, Note_on_c, 8, 64, 95
6, 52320, Note_on_c, 8, 59, 95
6, 52320, Note_on_c, 8, 55, 95
6, 52320, Note_on_c, 8, 52, 95
6, 52320, Note_on_c, 8, 47, 95
6, 52320, Note_on_c, 8, 40, 95
6, 52800, Note_off_c, 8, 64, 95
6, 52800, Note_off_c, 8, 59, 95
6, 52800, Note_off_c, 8, 55, 95
6, 52800, Note_off_c, 8, 52, 95
6, 52800, Note_off_c, 8, 47, 95
6, 52800, Note_off_c, 8, 40, 95
6, 52800, Note_on_c, 8, 64, 95
6, 52800, Note_on_c, 8, 59, 95
6, 52800, Note_on_c, 8, 55, 95
6, 52800, Note_on_c, 8, 52, 95
6, 52800, Note_on_c, 8, 47, 95
6, 52800, Note_on_c, 8, 40, 95
6, 53280, Note_off_c, 8, 64, 95
6, 53280, Note_off_c, 8, 59, 95
6, 53280, Note_off_c, 8, 55, 95
6, 53280, Note_off_c, 8, 52, 95
6, 53280, Note_off_c, 8, 47, 95
6, 53280, Note_off_c, 8, 40, 95
6, 53280, Note_on_c, 8, 64, 95
6, 53280, Note_on_c, 8, 59, 95
6, 53280, Note_on_c, 8, 55, 95
6, 53280, Note_on_c, 8, 52, 95
6, 53280, Note_on_c, 8, 47, 95
6, 53280, Note_on_c, 8, 40, 95
6, 53520, Note_off_c, 8, 64, 95
6, 53520, Note_off_c, 8, 59, 95
6, 53520, Note_off_c, 8, 55, 95
6, 53520, Note_off_c, 8, 52, 95
6, 53520, Note_off_c, 8, 47, 95
6, 53520, Note_off_c, 8, 40, 95
6, 53520, Note_on_c, 8, 64, 95
6, 53520, Note_on_c, 8, 59, 95
6, 53520, Note_on_c, 8, 55, 95
6, 53520, Note_on_c, 8, 52, 95
6, 53520, Note_on_c, 8, 47, 95
6, 53520, Note_on_c, 8, 40, 95
6, 53760, Note_off_c, 8, 64, 95
6, 53760, Note_off_c, 8, 59, 95
6, 53760, Note_off_c, 8, 55, 95
6, 53760, Note_off_c, 8, 52, 95
6, 53760, Note_off_c, 8, 47, 95
6, 53760, Note_off_c, 8, 40, 95
6, 53760, Note_on_c, 8, 64, 95
6, 53760, Note_on_c, 8, 61, 95
6, 53760, Note_on_c, 8, 55, 95
6, 53760, Note_on_c, 8, 52, 95
6, 53760, Note_on_c, 8, 45, 95
6, 54240, Note_off_c, 8, 64, 95
6, 54240, Note_off_c, 8, 61, 95
6, 54240, Note_off_c, 8, 55, 95
6, 54240, Note_off_c, 8, 52, 95
6, 54240, Note_off_c, 8, 45, 95
6, 54240, Note_on_c, 8, 64, 95
6, 54240, Note_on_c, 8, 61, 95
6, 54240, Note_on_c, 8, 55, 95
6, 54240, Note_on_c, 8, 52, 95
6, 54240, Note_on_c, 8, 45, 95
6, 54480, Note_off_c, 8, 64, 95
6, 54480, Note_off_c, 8, 61, 95
6, 54480, Note_off_c, 8, 55, 95
6, 54480, Note_off_c, 8, 52, 95
6, 54480, Note_off_c, 8, 45, 95
6, 54480, Note_on_c, 8, 64, 95
6, 54480, Note_on_c, 8, 61, 95
6, 54480, Note_on_c, 8, 55, 95
6, 54480, Note_on_c, 8, 52, 95
6, 54480, Note_on_c, 8, 45, 95
6, 54720, Note_off_c, 8, 64, 95
6, 54720, Note_off_c, 8, 61, 95
6, 54720, Note_off_c, 8, 55, 95
6, 54720, Note_off_c, 8, 52, 95
6, 54720, Note_off_c, 8, 45, 95
6, 54720, Note_on_c, 8, 64, 95
6, 54720, Note_on_c, 8, 61, 95
6, 54720, Note_on_c, 8, 55, 95
6, 54720, Note_on_c, 8, 52, 95
6, 54720, Note_on_c, 8, 45, 95
6, 55200, Note_off_c, 8, 64, 95
6, 55200, Note_off_c, 8, 61, 95
6, 55200, Note_off_c, 8, 55, 95
6, 55200, Note_off_c, 8, 52, 95
6, 55200, Note_off_c, 8, 45, 95
6, 55200, Note_on_c, 8, 64, 95
6, 55200, Note_on_c, 8, 61, 95
6, 55200, Note_on_c, 8, 55, 95
6, 55200, Note_on_c, 8, 52, 95
6, 55200, Note_on_c, 8, 45, 95
6, 55440, Note_off_c, 8, 64, 95
6, 55440, Note_off_c, 8, 61, 95
6, 55440, Note_off_c, 8, 55, 95
6, 55440, Note_off_c, 8, 52, 95
6, 55440, Note_off_c, 8, 45, 95
6, 55440, Note_on_c, 8, 64, 95
6, 55440, Note_on_c, 8, 61, 95
6, 55440, Note_on_c, 8, 55, 95
6, 55440, Note_on_c, 8, 52, 95
6, 55440, Note_on_c, 8, 45, 95
6, 55680, Note_off_c, 8, 64, 95
6, 55680, Note_off_c, 8, 61, 95
6, 55680, Note_off_c, 8, 55, 95
6, 55680, Note_off_c, 8, 52, 95
6, 55680, Note_off_c, 8, 45, 95
6, 55680, Note_on_c, 8, 64, 95
6, 55680, Note_on_c, 8, 61, 95
6, 55680, Note_on_c, 8, 55, 95
6, 55680, Note_on_c, 8, 52, 95
6, 55680, Note_on_c, 8, 45, 95
6, 55920, Note_off_c, 8, 64, 95
6, 55920, Note_off_c, 8, 61, 95
6, 55920, Note_off_c, 8, 55, 95
6, 55920, Note_off_c, 8, 52, 95
6, 55920, Note_off_c, 8, 45, 95
6, 55920, Note_on_c, 8, 64, 95
6, 55920, Note_on_c, 8, 61, 95
6, 55920, Note_on_c, 8, 55, 95
6, 55920, Note_on_c, 8, 52, 95
6, 55920, Note_on_c, 8, 45, 95
6, 56160, Note_off_c, 8, 64, 95
6, 56160, Note_off_c, 8, 61, 95
6, 56160, Note_off_c, 8, 55, 95
6, 56160, Note_off_c, 8, 52, 95
6, 56160, Note_off_c, 8, 45, 95
6, 56160, Note_on_c, 8, 64, 95
6, 56160, Note_on_c, 8, 61, 95
6, 56160, Note_on_c, 8, 55, 95
6, 56160, Note_on_c, 8, 52, 95
6, 56160, Note_on_c, 8, 45, 95
6, 56640, Note_off_c, 8, 64, 95
6, 56640, Note_off_c, 8, 61, 95
6, 56640, Note_off_c, 8, 55, 95
6, 56640, Note_off_c, 8, 52, 95
6, 56640, Note_off_c, 8, 45, 95
6, 56640, Note_on_c, 8, 64, 95
6, 56640, Note_on_c, 8, 61, 95
6, 56640, Note_on_c, 8, 55, 95
6, 56640, Note_on_c, 8, 52, 95
6, 56640, Note_on_c, 8, 45, 95
6, 57120, Note_off_c, 8, 64, 95
6, 57120, Note_off_c, 8, 61, 95
6, 57120, Note_off_c, 8, 55, 95
6, 57120, Note_off_c, 8, 52, 95
6, 57120, Note_off_c, 8, 45, 95
6, 57120, Note_on_c, 8, 64, 95
6, 57120, Note_on_c, 8, 61, 95
6, 57120, Note_on_c, 8, 55, 95
6, 57120, Note_on_c, 8, 52, 95
6, 57120, Note_on_c, 8, 45, 95
6, 57360, Note_off_c, 8, 64, 95
6, 57360, Note_off_c, 8, 61, 95
6, 57360, Note_off_c, 8, 55, 95
6, 57360, Note_off_c, 8, 52, 95
6, 57360, Note_off_c, 8, 45, 95
6, 57360, Note_on_c, 8, 64, 95
6, 57360, Note_on_c, 8, 61, 95
6, 57360, Note_on_c, 8, 55, 95
6, 57360, Note_on_c, 8, 52, 95
6, 57360, Note_on_c, 8, 45, 95
6, 57600, Note_off_c, 8, 64, 95
6, 57600, Note_off_c, 8, 61, 95
6, 57600, Note_off_c, 8, 55, 95
6, 57600, Note_off_c, 8, 52, 95
6, 57600, Note_off_c, 8, 45, 95
6, 57600, Note_on_c, 8, 64, 95
6, 57600, Note_on_c, 8, 60, 95
6, 57600, Note_on_c, 8, 55, 95
6, 57600, Note_on_c, 8, 52, 95
6, 57600, Note_on_c, 8, 48, 95
6, 57600, Note_on_c, 8, 43, 95
6, 58080, Note_off_c, 8, 64, 95
6, 58080, Note_off_c, 8, 60, 95
6, 58080, Note_off_c, 8, 55, 95
6, 58080, Note_off_c, 8, 52, 95
6, 58080, Note_off_c, 8, 48, 95
6, 58080, Note_off_c, 8, 43, 95
6, 58080, Note_on_c, 8, 64, 95
6, 58080, Note_on_c, 8, 60, 95
6, 58080, Note_on_c, 8, 55, 95
6, 58080, Note_on_c, 8, 52, 95
6, 58080, Note_on_c, 8, 48, 95
6, 58080, Note_on_c, 8, 43, 95
6, 58320, Note_off_c, 8, 64, 95
6, 58320, Note_off_c, 8, 60, 95
6, 58320, Note_off_c, 8, 55, 95
6, 58320, Note_off_c, 8, 52, 95
6, 58320, Note_off_c, 8, 48, 95
6, 58320, Note_off_c, 8, 43, 95
6, 58320, Note_on_c, 8, 64, 95
6, 58320, Note_on_c, 8, 60, 95
6, 58320, Note_on_c, 8, 55, 95
6, 58320, Note_on_c, 8, 52, 95
6, 58320, Note_on_c, 8, 48, 95
6, 58320, Note_on_c, 8, 43, 95
6, 58560, Note_off_c, 8, 64, 95
6, 58560, Note_off_c, 8, 60, 95
6, 58560, Note_off_c, 8, 55, 95
6, 58560, Note_off_c, 8, 52, 95
6, 58560, Note_off_c, 8, 48, 95
6, 58560, Note_off_c, 8, 43, 95
6, 58560, Note_on_c, 8, 64, 95
6, 58560, Note_on_c, 8, 60, 95
6, 58560, Note_on_c, 8, 55, 95
6, 58560, Note_on_c, 8, 52, 95
6, 58560, Note_on_c, 8, 48, 95
6, 58560, Note_on_c, 8, 43, 95
6, 59040, Note_off_c, 8, 64, 95
6, 59040, Note_off_c, 8, 60, 95
6, 59040, Note_off_c, 8, 55, 95
6, 59040, Note_off_c, 8, 52, 95
6, 59040, Note_off_c, 8, 48, 95
6, 59040, Note_off_c, 8, 43, 95
6, 59040, Note_on_c, 8, 64, 95
6, 59040, Note_on_c, 8, 60, 95
6, 59040, Note_on_c, 8, 55, 95
6, 59040, Note_on_c, 8, 52, 95
6, 59040, Note_on_c, 8, 48, 95
6, 59040, Note_on_c, 8, 43, 95
6, 59280, Note_off_c, 8, 64, 95
6, 59280, Note_off_c, 8, 60, 95
6, 59280, Note_off_c, 8, 55, 95
6, 59280, Note_off_c, 8, 52, 95
6, 59280, Note_off_c, 8, 48, 95
6, 59280, Note_off_c, 8, 43, 95
6, 59280, Note_on_c, 8, 64, 95
6, 59280, Note_on_c, 8, 60, 95
6, 59280, Note_on_c, 8, 55, 95
6, 59280, Note_on_c, 8, 52, 95
6, 59280, Note_on_c, 8, 48, 95
6, 59280, Note_on_c, 8, 43, 95
6, 59520, Note_off_c, 8, 64, 95
6, 59520, Note_off_c, 8, 60, 95
6, 59520, Note_off_c, 8, 55, 95
6, 59520, Note_off_c, 8, 52, 95
6, 59520, Note_off_c, 8, 48, 95
6, 59520, Note_off_c, 8, 43, 95
6, 59520, Note_on_c, 8, 64, 95
6, 59520, Note_on_c, 8, 60, 95
6, 59520, Note_on_c, 8, 55, 95
6, 59520, Note_on_c, 8, 52, 95
6, 59520, Note_on_c, 8, 48, 95
6, 59520, Note_on_c, 8, 43, 95
6, 59760, Note_off_c, 8, 64, 95
6, 59760, Note_off_c, 8, 60, 95
6, 59760, Note_off_c, 8, 55, 95
6, 59760, Note_off_c, 8, 52, 95
6, 59760, Note_off_c, 8, 48, 95
6, 59760, Note_off_c, 8, 43, 95
6, 59760, Note_on_c, 8, 64, 95
6, 59760, Note_on_c, 8, 60, 95
6, 59760, Note_on_c, 8, 55, 95
6, 59760, Note_on_c, 8, 52, 95
6, 59760, Note_on_c, 8, 48, 95
6, 59760, Note_on_c, 8, 43, 95
6, 60000, Note_off_c, 8, 64, 95
6, 60000, Note_off_c, 8, 60, 95
6, 60000, Note_off_c, 8, 55, 95
6, 60000, Note_off_c, 8, 52, 95
6, 60000, Note_off_c, 8, 48, 95
6, 60000, Note_off_c, 8, 43, 95
6, 60000, Note_on_c, 8, 67, 95
6, 60000, Note_on_c, 8, 59, 95
6, 60000, Note_on_c, 8, 55, 95
6, 60000, Note_on_c, 8, 50, 95
6, 60000, Note_on_c, 8, 47, 95
6, 60000, Note_on_c, 8, 43, 95
6, 60240, Note_off_c, 8, 67, 95
6, 60240, Note_off_c, 8, 59, 95
6, 60240, Note_off_c, 8, 55, 95
6, 60240, Note_off_c, 8, 50, 95
6, 60240, Note_off_c, 8, 47, 95
6, 60240, Note_off_c, 8, 43, 95
6, 60240, Note_on_c, 8, 67, 95
6, 60240, Note_on_c, 8, 59, 95
6, 60240, Note_on_c, 8, 55, 95
6, 60240, Note_on_c, 8, 50, 95
6, 60240, Note_on_c, 8, 47, 95
6, 60240, Note_on_c, 8, 43, 95
6, 60480, Note_off_c, 8, 67, 95
6, 60480, Note_off_c, 8, 59, 95
6, 60480, Note_off_c, 8, 55, 95
6, 60480, Note_off_c, 8, 50, 95
6, 60480, Note_off_c, 8, 47, 95
6, 60480, Note_off_c, 8, 43, 95
6, 60480, Note_on_c, 8, 64, 95
6, 60480, Note_on_c, 8, 60, 95
6, 60480, Note_on_c, 8, 55, 95
6, 60480, Note_on_c, 8, 52, 95
6, 60480, Note_on_c, 8, 48, 95
6, 60480, Note_on_c, 8, 43, 95
6, 60720, Note_off_c, 8, 64, 95
6, 60720, Note_off_c, 8, 60, 95
6, 60720, Note_off_c, 8, 55, 95
6, 60720, Note_off_c, 8, 52, 95
6, 60720, Note_off_c, 8, 48, 95
6, 60720, Note_off_c, 8, 43, 95
6, 60720, Note_on_c, 8, 64, 95
6, 60720, Note_on_c, 8, 60, 95
6, 60720, Note_on_c, 8, 55, 95
6, 60720, Note_on_c, 8, 52, 95
6, 60720, Note_on_c, 8, 48, 95
6, 60720, Note_on_c, 8, 43, 95
6, 60960, Note_off_c, 8, 64, 95
6, 60960, Note_off_c, 8, 60, 95
6, 60960, Note_off_c, 8, 55, 95
6, 60960, Note_off_c, 8, 52, 95
6, 60960, Note_off_c, 8, 48, 95
6, 60960, Note_off_c, 8, 43, 95
6, 60960, Note_on_c, 8, 64, 95
6, 60960, Note_on_c, 8, 60, 95
6, 60960, Note_on_c, 8, 55, 95
6, 60960, Note_on_c, 8, 52, 95
6, 60960, Note_on_c, 8, 45, 95
6, 61200, Note_off_c, 8, 64, 95
6, 61200, Note_off_c, 8, 60, 95
6, 61200, Note_off_c, 8, 55, 95
6, 61200, Note_off_c, 8, 52, 95
6, 61200, Note_off_c, 8, 45, 95
6, 61200, Note_on_c, 8, 64, 95
6, 61200, Note_on_c, 8, 60, 95
6, 61200, Note_on_c, 8, 55, 95
6, 61200, Note_on_c, 8, 52, 95
6, 61200, Note_on_c, 8, 45, 95
6, 61440, Note_off_c, 8, 64, 95
6, 61440, Note_off_c, 8, 60, 95
6, 61440, Note_off_c, 8, 55, 95
6, 61440, Note_off_c, 8, 52, 95
6, 61440, Note_off_c, 8, 45, 95
6, 61440, Note_on_c, 8, 67, 95
6, 61440, Note_on_c, 8, 59, 95
6, 61440, Note_on_c, 8, 55, 95
6, 61440, Note_on_c, 8, 50, 95
6, 61440, Note_on_c, 8, 47, 95
6, 61440, Note_on_c, 8, 43, 95
6, 61920, Note_off_c, 8, 67, 95
6, 61920, Note_off_c, 8, 59, 95
6, 61920, Note_off_c, 8, 55, 95
6, 61920, Note_off_c, 8, 50, 95
6, 61920, Note_off_c, 8, 47, 95
6, 61920, Note_off_c, 8, 43, 95
6, 61920, Note_on_c, 8, 67, 95
6, 61920, Note_on_c, 8, 59, 95
6, 61920, Note_on_c, 8, 55, 95
6, 61920, Note_on_c, 8, 50, 95
6, 61920, Note_on_c, 8, 47, 95
6, 61920, Note_on_c, 8, 43, 95
6, 62160, Note_off_c, 8, 67, 95
6, 62160, Note_off_c, 8, 59, 95
6, 62160, Note_off_c, 8, 55, 95
6, 62160, Note_off_c, 8, 50, 95
6, 62160, Note_off_c, 8, 47, 95
6, 62160, Note_off_c, 8, 43, 95
6, 62160, Note_on_c, 8, 67, 95
6, 62160, Note_on_c, 8, 59, 95
6, 62160, Note_on_c, 8, 55, 95
6, 62160, Note_on_c, 8, 50, 95
6, 62160, Note_on_c, 8, 47, 95
6, 62160, Note_on_c, 8, 43, 95
6, 62400, Note_off_c, 8, 67, 95
6, 62400, Note_off_c, 8, 59, 95
6, 62400, Note_off_c, 8, 55, 95
6, 62400, Note_off_c, 8, 50, 95
6, 62400, Note_off_c, 8, 47, 95
6, 62400, Note_off_c, 8, 43, 95
6, 62400, Note_on_c, 8, 67, 95
6, 62400, Note_on_c, 8, 59, 95
6, 62400, Note_on_c, 8, 55, 95
6, 62400, Note_on_c, 8, 50, 95
6, 62400, Note_on_c, 8, 47, 95
6, 62400, Note_on_c, 8, 43, 95
6, 62880, Note_off_c, 8, 67, 95
6, 62880, Note_off_c, 8, 59, 95
6, 62880, Note_off_c, 8, 55, 95
6, 62880, Note_off_c, 8, 50, 95
6, 62880, Note_off_c, 8, 47, 95
6, 62880, Note_off_c, 8, 43, 95
6, 62880, Note_on_c, 8, 67, 95
6, 62880, Note_on_c, 8, 59, 95
6, 62880, Note_on_c, 8, 55, 95
6, 62880, Note_on_c, 8, 50, 95
6, 62880, Note_on_c, 8, 47, 95
6, 62880, Note_on_c, 8, 43, 95
6, 63120, Note_off_c, 8, 67, 95
6, 63120, Note_off_c, 8, 59, 95
6, 63120, Note_off_c, 8, 55, 95
6, 63120, Note_off_c, 8, 50, 95
6, 63120, Note_off_c, 8, 47, 95
6, 63120, Note_off_c, 8, 43, 95
6, 63120, Note_on_c, 8, 67, 95
6, 63120, Note_on_c, 8, 59, 95
6, 63120, Note_on_c, 8, 55, 95
6, 63120, Note_on_c, 8, 50, 95
6, 63120, Note_on_c, 8, 47, 95
6, 63120, Note_on_c, 8, 43, 95
6, 63360, Note_off_c, 8, 67, 95
6, 63360, Note_off_c, 8, 59, 95
6, 63360, Note_off_c, 8, 55, 95
6, 63360, Note_off_c, 8, 50, 95
6, 63360, Note_off_c, 8, 47, 95
6, 63360, Note_off_c, 8, 43, 95
6, 63360, Note_on_c, 8, 67, 95
6, 63360, Note_on_c, 8, 59, 95
6, 63360, Note_on_c, 8, 55, 95
6, 63360, Note_on_c, 8, 50, 95
6, 63360, Note_on_c, 8, 47, 95
6, 63360, Note_on_c, 8, 43, 95
6, 63840, Note_off_c, 8, 67, 95
6, 63840, Note_off_c, 8, 59, 95
6, 63840, Note_off_c, 8, 55, 95
6, 63840, Note_off_c, 8, 50, 95
6, 63840, Note_off_c, 8, 47, 95
6, 63840, Note_off_c, 8, 43, 95
6, 63840, Note_on_c, 8, 67, 95
6, 63840, Note_on_c, 8, 59, 95
6, 63840, Note_on_c, 8, 55, 95
6, 63840, Note_on_c, 8, 50, 95
6, 63840, Note_on_c, 8, 47, 95
6, 63840, Note_on_c, 8, 43, 95
6, 64080, Note_off_c, 8, 67, 95
6, 64080, Note_off_c, 8, 59, 95
6, 64080, Note_off_c, 8, 55, 95
6, 64080, Note_off_c, 8, 50, 95
6, 64080, Note_off_c, 8, 47, 95
6, 64080, Note_off_c, 8, 43, 95
6, 64080, Note_on_c, 8, 67, 95
6, 64080, Note_on_c, 8, 59, 95
6, 64080, Note_on_c, 8, 55, 95
6, 64080, Note_on_c, 8, 50, 95
6, 64080, Note_on_c, 8, 47, 95
6, 64080, Note_on_c, 8, 43, 95
6, 64320, Note_off_c, 8, 67, 95
6, 64320, Note_off_c, 8, 59, 95
6, 64320, Note_off_c, 8, 55, 95
6, 64320, Note_off_c, 8, 50, 95
6, 64320, Note_off_c, 8, 47, 95
6, 64320, Note_off_c, 8, 43, 95
6, 64320, Note_on_c, 8, 67, 95
6, 64320, Note_on_c, 8, 59, 95
6, 64320, Note_on_c, 8, 55, 95
6, 64320, Note_on_c, 8, 50, 95
6, 64320, Note_on_c, 8, 47, 95
6, 64320, Note_on_c, 8, 43, 95
6, 64800, Note_off_c, 8, 67, 95
6, 64800, Note_off_c, 8, 59, 95
6, 64800, Note_off_c, 8, 55, 95
6, 64800, Note_off_c, 8, 50, 95
6, 64800, Note_off_c, 8, 47, 95
6, 64800, Note_off_c, 8, 43, 95
6, 64800, Note_on_c, 8, 67, 95
6, 64800, Note_on_c, 8, 59, 95
6, 64800, Note_on_c, 8, 55, 95
6, 64800, Note_on_c, 8, 50, 95
6, 64800, Note_on_c, 8, 47, 95
6, 64800, Note_on_c, 8, 43, 95
6, 65040, Note_off_c, 8, 67, 95
6, 65040, Note_off_c, 8, 59, 95
6, 65040, Note_off_c, 8, 55, 95
6, 65040, Note_off_c, 8, 50, 95
6, 65040, Note_off_c, 8, 47, 95
6, 65040, Note_off_c, 8, 43, 95
6, 65040, Note_on_c, 8, 67, 95
6, 65040, Note_on_c, 8, 59, 95
6, 65040, Note_on_c, 8, 55, 95
6, 65040, Note_on_c, 8, 50, 95
6, 65040, Note_on_c, 8, 47, 95
6, 65040, Note_on_c, 8, 43, 95
6, 65280, Note_off_c, 8, 67, 95
6, 65280, Note_off_c, 8, 59, 95
6, 65280, Note_off_c, 8, 55, 95
6, 65280, Note_off_c, 8, 50, 95
6, 65280, Note_off_c, 8, 47, 95
6, 65280, Note_off_c, 8, 43, 95
6, 65280, Note_on_c, 8, 66, 95
6, 65280, Note_on_c, 8, 62, 95
6, 65280, Note_on_c, 8, 59, 95
6, 65280, Note_on_c, 8, 54, 95
6, 65280, Note_on_c, 8, 47, 95
6, 65760, Note_off_c, 8, 66, 95
6, 65760, Note_off_c, 8, 62, 95
6, 65760, Note_off_c, 8, 59, 95
6, 65760, Note_off_c, 8, 54, 95
6, 65760, Note_off_c, 8, 47, 95
6, 65760, Note_on_c, 8, 66, 95
6, 65760, Note_on_c, 8, 62, 95
6, 65760, Note_on_c, 8, 59, 95
6, 65760, Note_on_c, 8, 54, 95
6, 65760, Note_on_c, 8, 47, 95
6, 66000, Note_off_c, 8, 66, 95
6, 66000, Note_off_c, 8, 62, 95
6, 66000, Note_off_c, 8, 59, 95
6, 66000, Note_off_c, 8, 54, 95
6, 66000, Note_off_c, 8, 47, 95
6, 66000, Note_on_c, 8, 66, 95
6, 66000, Note_on_c, 8, 62, 95
6, 66000, Note_on_c, 8, 59, 95
6, 66000, Note_on_c, 8, 54, 95
6, 66000, Note_on_c, 8, 47, 95
6, 66240, Note_off_c, 8, 66, 95
6, 66240, Note_off_c, 8, 62, 95
6, 66240, Note_off_c, 8, 59, 95
6, 66240, Note_off_c, 8, 54, 95
6, 66240, Note_off_c, 8, 47, 95
6, 66240, Note_on_c, 8, 66, 95
6, 66240, Note_on_c, 8, 62, 95
6, 66240, Note_on_c, 8, 59, 95
6, 66240, Note_on_c, 8, 54, 95
6, 66240, Note_on_c, 8, 47, 95
6, 66720, Note_off_c, 8, 66, 95
6, 66720, Note_off_c, 8, 62, 95
6, 66720, Note_off_c, 8, 59, 95
6, 66720, Note_off_c, 8, 54, 95
6, 66720, Note_off_c, 8, 47, 95
6, 66720, Note_on_c, 8, 66, 95
6, 66720, Note_on_c, 8, 62, 95
6, 66720, Note_on_c, 8, 59, 95
6, 66720, Note_on_c, 8, 54, 95
6, 66720, Note_on_c, 8, 47, 95
6, 66960, Note_off_c, 8, 66, 95
6, 66960, Note_off_c, 8, 62, 95
6, 66960, Note_off_c, 8, 59, 95
6, 66960, Note_off_c, 8, 54, 95
6, 66960, Note_off_c, 8, 47, 95
6, 66960, Note_on_c, 8, 66, 95
6, 66960, Note_on_c, 8, 62, 95
6, 66960, Note_on_c, 8, 59, 95
6, 66960, Note_on_c, 8, 54, 95
6, 66960, Note_on_c, 8, 47, 95
6, 67200, Note_off_c, 8, 66, 95
6, 67200, Note_off_c, 8, 62, 95
6, 67200, Note_off_c, 8, 59, 95
6, 67200, Note_off_c, 8, 54, 95
6, 67200, Note_off_c, 8, 47, 95
6, 67200, Note_on_c, 8, 66, 95
6, 67200, Note_on_c, 8, 62, 95
6, 67200, Note_on_c, 8, 59, 95
6, 67200, Note_on_c, 8, 54, 95
6, 67200, Note_on_c, 8, 47, 95
6, 67680, Note_off_c, 8, 66, 95
6, 67680, Note_off_c, 8, 62, 95
6, 67680, Note_off_c, 8, 59, 95
6, 67680, Note_off_c, 8, 54, 95
6, 67680, Note_off_c, 8, 47, 95
6, 67680, Note_on_c, 8, 66, 95
6, 67680, Note_on_c, 8, 62, 95
6, 67680, Note_on_c, 8, 59, 95
6, 67680, Note_on_c, 8, 54, 95
6, 67680, Note_on_c, 8, 47, 95
6, 67920, Note_off_c, 8, 66, 95
6, 67920, Note_off_c, 8, 62, 95
6, 67920, Note_off_c, 8, 59, 95
6, 67920, Note_off_c, 8, 54, 95
6, 67920, Note_off_c, 8, 47, 95
6, 67920, Note_on_c, 8, 66, 95
6, 67920, Note_on_c, 8, 62, 95
6, 67920, Note_on_c, 8, 59, 95
6, 67920, Note_on_c, 8, 54, 95
6, 67920, Note_on_c, 8, 47, 95
6, 68160, Note_off_c, 8, 66, 95
6, 68160, Note_off_c, 8, 62, 95
6, 68160, Note_off_c, 8, 59, 95
6, 68160, Note_off_c, 8, 54, 95
6, 68160, Note_off_c, 8, 47, 95
6, 68160, Note_on_c, 8, 66, 95
6, 68160, Note_on_c, 8, 62, 95
6, 68160, Note_on_c, 8, 59, 95
6, 68160, Note_on_c, 8, 54, 95
6, 68160, Note_on_c, 8, 47, 95
6, 68640, Note_off_c, 8, 66, 95
6, 68640, Note_off_c, 8, 62, 95
6, 68640, Note_off_c, 8, 59, 95
6, 68640, Note_off_c, 8, 54, 95
6, 68640, Note_off_c, 8, 47, 95
6, 68640, Note_on_c, 8, 66, 95
6, 68640, Note_on_c, 8, 62, 95
6, 68640, Note_on_c, 8, 59, 95
6, 68640, Note_on_c, 8, 54, 95
6, 68640, Note_on_c, 8, 47, 95
6, 68880, Note_off_c, 8, 66, 95
6, 68880, Note_off_c, 8, 62, 95
6, 68880, Note_off_c, 8, 59, 95
6, 68880, Note_off_c, 8, 54, 95
6, 68880, Note_off_c, 8, 47, 95
6, 68880, Note_on_c, 8, 66, 95
6, 68880, Note_on_c, 8, 62, 95
6, 68880, Note_on_c, 8, 59, 95
6, 68880, Note_on_c, 8, 54, 95
6, 68880, Note_on_c, 8, 47, 95
6, 69120, Note_off_c, 8, 66, 95
6, 69120, Note_off_c, 8, 62, 95
6, 69120, Note_off_c, 8, 59, 95
6, 69120, Note_off_c, 8, 54, 95
6, 69120, Note_off_c, 8, 47, 95
6, 69120, Note_on_c, 8, 64, 95
6, 69120, Note_on_c, 8, 60, 95
6, 69120, Note_on_c, 8, 55, 95
6, 69120, Note_on_c, 8, 52, 95
6, 69120, Note_on_c, 8, 48, 95
6, 69120, Note_on_c, 8, 43, 95
6, 69600, Note_off_c, 8, 64, 95
6, 69600, Note_off_c, 8, 60, 95
6, 69600, Note_off_c, 8, 55, 95
6, 69600, Note_off_c, 8, 52, 95
6, 69600, Note_off_c, 8, 48, 95
6, 69600, Note_off_c, 8, 43, 95
6, 69600, Note_on_c, 8, 64, 95
6, 69600, Note_on_c, 8, 60, 95
6, 69600, Note_on_c, 8, 55, 95
6, 69600, Note_on_c, 8, 52, 95
6, 69600, Note_on_c, 8, 48, 95
6, 69600, Note_on_c, 8, 43, 95
6, 69840, Note_off_c, 8, 64, 95
6, 69840, Note_off_c, 8, 60, 95
6, 69840, Note_off_c, 8, 55, 95
6, 69840, Note_off_c, 8, 52, 95
6, 69840, Note_off_c, 8, 48, 95
6, 69840, Note_off_c, 8, 43, 95
6, 69840, Note_on_c, 8, 64, 95
6, 69840, Note_on_c, 8, 60, 95
6, 69840, Note_on_c, 8, 55, 95
6, 69840, Note_on_c, 8, 52, 95
6, 69840, Note_on_c, 8, 48, 95
6, 69840, Note_on_c, 8, 43, 95
6, 70080, Note_off_c, 8, 64, 95
6, 70080, Note_off_c, 8, 60, 95
6, 70080, Note_off_c, 8, 55, 95
6, 70080, Note_off_c, 8, 52, 95
6, 70080, Note_off_c, 8, 48, 95
6, 70080, Note_off_c, 8, 43, 95
6, 70080, Note_on_c, 8, 64, 95
6, 70080, Note_on_c, 8, 60, 95
6, 70080, Note_on_c, 8, 55, 95
6, 70080, Note_on_c, 8, 52, 95
6, 70080, Note_on_c, 8, 48, 95
6, 70080, Note_on_c, 8, 43, 95
6, 70560, Note_off_c, 8, 64, 95
6, 70560, Note_off_c, 8, 60, 95
6, 70560, Note_off_c, 8, 55, 95
6, 70560, Note_off_c, 8, 52, 95
6, 70560, Note_off_c, 8, 48, 95
6, 70560, Note_off_c, 8, 43, 95
6, 70560, Note_on_c, 8, 64, 95
6, 70560, Note_on_c, 8, 60, 95
6, 70560, Note_on_c, 8, 55, 95
6, 70560, Note_on_c, 8, 52, 95
6, 70560, Note_on_c, 8, 48, 95
6, 70560, Note_on_c, 8, 43, 95
6, 70800, Note_off_c, 8, 64, 95
6, 70800, Note_off_c, 8, 60, 95
6, 70800, Note_off_c, 8, 55, 95
6, 70800, Note_off_c, 8, 52, 95
6, 70800, Note_off_c, 8, 48, 95
6, 70800, Note_off_c, 8, 43, 95
6, 70800, Note_on_c, 8, 64, 95
6, 70800, Note_on_c, 8, 60, 95
6, 70800, Note_on_c, 8, 55, 95
6, 70800, Note_on_c, 8, 52, 95
6, 70800, Note_on_c, 8, 48, 95
6, 70800, Note_on_c, 8, 43, 95
6, 71040, Note_off_c, 8, 64, 95
6, 71040, Note_off_c, 8, 60, 95
6, 71040, Note_off_c, 8, 55, 95
6, 71040, Note_off_c, 8, 52, 95
6, 71040, Note_off_c, 8, 48, 95
6, 71040, Note_off_c, 8, 43, 95
6, 71040, Note_on_c, 8, 64, 95
6, 71040, Note_on_c, 8, 60, 95
6, 71040, Note_on_c, 8, 55, 95
6, 71040, Note_on_c, 8, 52, 95
6, 71040, Note_on_c, 8, 48, 95
6, 71040, Note_on_c, 8, 43, 95
6, 71520, Note_off_c, 8, 64, 95
6, 71520, Note_off_c, 8, 60, 95
6, 71520, Note_off_c, 8, 55, 95
6, 71520, Note_off_c, 8, 52, 95
6, 71520, Note_off_c, 8, 48, 95
6, 71520, Note_off_c, 8, 43, 95
6, 71520, Note_on_c, 8, 67, 95
6, 71520, Note_on_c, 8, 59, 95
6, 71520, Note_on_c, 8, 55, 95
6, 71520, Note_on_c, 8, 50, 95
6, 71520, Note_on_c, 8, 47, 95
6, 71520, Note_on_c, 8, 43, 95
6, 72000, Note_off_c, 8, 67, 95
6, 72000, Note_off_c, 8, 59, 95
6, 72000, Note_off_c, 8, 55, 95
6, 72000, Note_off_c, 8, 50, 95
6, 72000, Note_off_c, 8, 47, 95
6, 72000, Note_off_c, 8, 43, 95
6, 72000, Note_on_c, 8, 64, 95
6, 72000, Note_on_c, 8, 60, 95
6, 72000, Note_on_c, 8, 55, 95
6, 72000, Note_on_c, 8, 52, 95
6, 72000, Note_on_c, 8, 48, 95
6, 72000, Note_on_c, 8, 43, 95
6, 72480, Note_off_c, 8, 64, 95
6, 72480, Note_off_c, 8, 60, 95
6, 72480, Note_off_c, 8, 55, 95
6, 72480, Note_off_c, 8, 52, 95
6, 72480, Note_off_c, 8, 48, 95
6, 72480, Note_off_c, 8, 43, 95
6, 72480, Note_on_c, 8, 64, 95
6, 72480, Note_on_c, 8, 61, 95
6, 72480, Note_on_c, 8, 55, 95
6, 72480, Note_on_c, 8, 52, 95
6, 72480, Note_on_c, 8, 45, 95
6, 72960, Note_off_c, 8, 64, 95
6, 72960, Note_off_c, 8, 61, 95
6, 72960, Note_off_c, 8, 55, 95
6, 72960, Note_off_c, 8, 52, 95
6, 72960, Note_off_c, 8, 45, 95
6, 72960, Note_on_c, 8, 66, 95
6, 72960, Note_on_c, 8, 62, 95
6, 72960, Note_on_c, 8, 57, 95
6, 72960, Note_on_c, 8, 50, 95
6, 73440, Note_off_c, 8, 66, 95
6, 73440, Note_off_c, 8, 62, 95
6, 73440, Note_off_c, 8, 57, 95
6, 73440, Note_off_c, 8, 50, 95
6, 73440, Note_on_c, 8, 66, 95
6, 73440, Note_on_c, 8, 62, 95
6, 73440, Note_on_c, 8, 57, 95
6, 73440, Note_on_c, 8, 50, 95
6, 73680, Note_off_c, 8, 66, 95
6, 73680, Note_off_c, 8, 62, 95
6, 73680, Note_off_c, 8, 57, 95
6, 73680, Note_off_c, 8, 50, 95
6, 73680, Note_on_c, 8, 66, 95
6, 73680, Note_on_c, 8, 62, 95
6, 73680, Note_on_c, 8, 57, 95
6, 73680, Note_on_c, 8, 50, 95
6, 73920, Note_off_c, 8, 66, 95
6, 73920, Note_off_c, 8, 62, 95
6, 73920, Note_off_c, 8, 57, 95
6, 73920, Note_off_c, 8, 50, 95
6, 73920, Note_on_c, 8, 66, 95
6, 73920, Note_on_c, 8, 62, 95
6, 73920, Note_on_c, 8, 57, 95
6, 73920, Note_on_c, 8, 50, 95
6, 74400, Note_off_c, 8, 66, 95
6, 74400, Note_off_c, 8, 62, 95
6, 74400, Note_off_c, 8, 57, 95
6, 74400, Note_off_c, 8, 50, 95
6, 74400, Note_on_c, 8, 66, 95
6, 74400, Note_on_c, 8, 62, 95
6, 74400, Note_on_c, 8, 57, 95
6, 74400, Note_on_c, 8, 50, 95
6, 74640, Note_off_c, 8, 66, 95
6, 74640, Note_off_c, 8, 62, 95
6, 74640, Note_off_c, 8, 57, 95
6, 74640, Note_off_c, 8, 50, 95
6, 74640, Note_on_c, 8, 66, 95
6, 74640, Note_on_c, 8, 62, 95
6, 74640, Note_on_c, 8, 57, 95
6, 74640, Note_on_c, 8, 50, 95
6, 74880, Note_off_c, 8, 66, 95
6, 74880, Note_off_c, 8, 62, 95
6, 74880, Note_off_c, 8, 57, 95
6, 74880, Note_off_c, 8, 50, 95
6, 74880, Note_on_c, 8, 66, 95
6, 74880, Note_on_c, 8, 62, 95
6, 74880, Note_on_c, 8, 57, 95
6, 74880, Note_on_c, 8, 50, 95
6, 75360, Note_off_c, 8, 66, 95
6, 75360, Note_off_c, 8, 62, 95
6, 75360, Note_off_c, 8, 57, 95
6, 75360, Note_off_c, 8, 50, 95
6, 75360, Note_on_c, 8, 66, 95
6, 75360, Note_on_c, 8, 62, 95
6, 75360, Note_on_c, 8, 57, 95
6, 75360, Note_on_c, 8, 50, 95
6, 75600, Note_off_c, 8, 66, 95
6, 75600, Note_off_c, 8, 62, 95
6, 75600, Note_off_c, 8, 57, 95
6, 75600, Note_off_c, 8, 50, 95
6, 75600, Note_on_c, 8, 66, 95
6, 75600, Note_on_c, 8, 62, 95
6, 75600, Note_on_c, 8, 57, 95
6, 75600, Note_on_c, 8, 50, 95
6, 75840, Note_off_c, 8, 66, 95
6, 75840, Note_off_c, 8, 62, 95
6, 75840, Note_off_c, 8, 57, 95
6, 75840, Note_off_c, 8, 50, 95
6, 75840, Note_on_c, 8, 66, 95
6, 75840, Note_on_c, 8, 62, 95
6, 75840, Note_on_c, 8, 57, 95
6, 75840, Note_on_c, 8, 50, 95
6, 76080, Note_off_c, 8, 66, 95
6, 76080, Note_off_c, 8, 62, 95
6, 76080, Note_off_c, 8, 57, 95
6, 76080, Note_off_c, 8, 50, 95
6, 76080, Note_on_c, 8, 66, 95
6, 76080, Note_on_c, 8, 62, 95
6, 76080, Note_on_c, 8, 57, 95
6, 76080, Note_on_c, 8, 50, 95
6, 76320, Note_off_c, 8, 66, 95
6, 76320, Note_off_c, 8, 62, 95
6, 76320, Note_off_c, 8, 57, 95
6, 76320, Note_off_c, 8, 50, 95
6, 76320, Note_on_c, 8, 66, 95
6, 76320, Note_on_c, 8, 62, 95
6, 76320, Note_on_c, 8, 57, 95
6, 76320, Note_on_c, 8, 50, 95
6, 76560, Note_off_c, 8, 66, 95
6, 76560, Note_off_c, 8, 62, 95
6, 76560, Note_off_c, 8, 57, 95
6, 76560, Note_off_c, 8, 50, 95
6, 76560, Note_on_c, 8, 66, 95
6, 76560, Note_on_c, 8, 62, 95
6, 76560, Note_on_c, 8, 57, 95
6, 76560, Note_on_c, 8, 50, 95
6, 76800, Note_off_c, 8, 66, 95
6, 76800, Note_off_c, 8, 62, 95
6, 76800, Note_off_c, 8, 57, 95
6, 76800, Note_off_c, 8, 50, 95
6, 76800, Note_on_c, 8, 67, 95
6, 76800, Note_on_c, 8, 59, 95
6, 76800, Note_on_c, 8, 55, 95
6, 76800, Note_on_c, 8, 50, 95
6, 76800, Note_on_c, 8, 47, 95
6, 76800, Note_on_c, 8, 43, 95
6, 77280, Note_off_c, 8, 67, 95
6, 77280, Note_off_c, 8, 59, 95
6, 77280, Note_off_c, 8, 55, 95
6, 77280, Note_off_c, 8, 50, 95
6, 77280, Note_off_c, 8, 47, 95
6, 77280, Note_off_c, 8, 43, 95
6, 77280, Note_on_c, 8, 67, 95
6, 77280, Note_on_c, 8, 59, 95
6, 77280, Note_on_c, 8, 55, 95
6, 77280, Note_on_c, 8, 50, 95
6, 77280, Note_on_c, 8, 47, 95
6, 77280, Note_on_c, 8, 43, 95
6, 77520, Note_off_c, 8, 67, 95
6, 77520, Note_off_c, 8, 59, 95
6, 77520, Note_off_c, 8, 55, 95
6, 77520, Note_off_c, 8, 50, 95
6, 77520, Note_off_c, 8, 47, 95
6, 77520, Note_off_c, 8, 43, 95
6, 77520, Note_on_c, 8, 67, 95
6, 77520, Note_on_c, 8, 59, 95
6, 77520, Note_on_c, 8, 55, 95
6, 77520, Note_on_c, 8, 50, 95
6, 77520, Note_on_c, 8, 47, 95
6, 77520, Note_on_c, 8, 43, 95
6, 77760, Note_off_c, 8, 67, 95
6, 77760, Note_off_c, 8, 59, 95
6, 77760, Note_off_c, 8, 55, 95
6, 77760, Note_off_c, 8, 50, 95
6, 77760, Note_off_c, 8, 47, 95
6, 77760, Note_off_c, 8, 43, 95
6, 77760, Note_on_c, 8, 67, 95
6, 77760, Note_on_c, 8, 59, 95
6, 77760, Note_on_c, 8, 55, 95
6, 77760, Note_on_c, 8, 50, 95
6, 77760, Note_on_c, 8, 47, 95
6, 77760, Note_on_c, 8, 43, 95
6, 78240, Note_off_c, 8, 67, 95
6, 78240, Note_off_c, 8, 59, 95
6, 78240, Note_off_c, 8, 55, 95
6, 78240, Note_off_c, 8, 50, 95
6, 78240, Note_off_c, 8, 47, 95
6, 78240, Note_off_c, 8, 43, 95
6, 78240, Note_on_c, 8, 67, 95
6, 78240, Note_on_c, 8, 59, 95
6, 78240, Note_on_c, 8, 55, 95
6, 78240, Note_on_c, 8, 50, 95
6, 78240, Note_on_c, 8, 47, 95
6, 78240, Note_on_c, 8, 43, 95
6, 78480, Note_off_c, 8, 67, 95
6, 78480, Note_off_c, 8, 59, 95
6, 78480, Note_off_c, 8, 55, 95
6, 78480, Note_off_c, 8, 50, 95
6, 78480, Note_off_c, 8, 47, 95
6, 78480, Note_off_c, 8, 43, 95
6, 78480, Note_on_c, 8, 67, 95
6, 78480, Note_on_c, 8, 59, 95
6, 78480, Note_on_c, 8, 55, 95
6, 78480, Note_on_c, 8, 50, 95
6, 78480, Note_on_c, 8, 47, 95
6, 78480, Note_on_c, 8, 43, 95
6, 78720, Note_off_c, 8, 67, 95
6, 78720, Note_off_c, 8, 59, 95
6, 78720, Note_off_c, 8, 55, 95
6, 78720, Note_off_c, 8, 50, 95
6, 78720, Note_off_c, 8, 47, 95
6, 78720, Note_off_c, 8, 43, 95
6, 78720, Note_on_c, 8, 67, 95
6, 78720, Note_on_c, 8, 59, 95
6, 78720, Note_on_c, 8, 55, 95
6, 78720, Note_on_c, 8, 50, 95
6, 78720, Note_on_c, 8, 47, 95
6, 78720, Note_on_c, 8, 43, 95
6, 78960, Note_off_c, 8, 67, 95
6, 78960, Note_off_c, 8, 59, 95
6, 78960, Note_off_c, 8, 55, 95
6, 78960, Note_off_c, 8, 50, 95
6, 78960, Note_off_c, 8, 47, 95
6, 78960, Note_off_c, 8, 43, 95
6, 78960, Note_on_c, 8, 67, 95
6, 78960, Note_on_c, 8, 59, 95
6, 78960, Note_on_c, 8, 55, 95
6, 78960, Note_on_c, 8, 50, 95
6, 78960, Note_on_c, 8, 47, 95
6, 78960, Note_on_c, 8, 43, 95
6, 79200, Note_off_c, 8, 67, 95
6, 79200, Note_off_c, 8, 59, 95
6, 79200, Note_off_c, 8, 55, 95
6, 79200, Note_off_c, 8, 50, 95
6, 79200, Note_off_c, 8, 47, 95
6, 79200, Note_off_c, 8, 43, 95
6, 79200, Note_on_c, 8, 67, 95
6, 79200, Note_on_c, 8, 59, 95
6, 79200, Note_on_c, 8, 55, 95
6, 79200, Note_on_c, 8, 50, 95
6, 79200, Note_on_c, 8, 47, 95
6, 79200, Note_on_c, 8, 43, 95
6, 79680, Note_off_c, 8, 67, 95
6, 79680, Note_off_c, 8, 59, 95
6, 79680, Note_off_c, 8, 55, 95
6, 79680, Note_off_c, 8, 50, 95
6, 79680, Note_off_c, 8, 47, 95
6, 79680, Note_off_c, 8, 43, 95
6, 79680, Note_on_c, 8, 67, 95
6, 79680, Note_on_c, 8, 59, 95
6, 79680, Note_on_c, 8, 55, 95
6, 79680, Note_on_c, 8, 50, 95
6, 79680, Note_on_c, 8, 47, 95
6, 79680, Note_on_c, 8, 43, 95
6, 80160, Note_off_c, 8, 67, 95
6, 80160, Note_off_c, 8, 59, 95
6, 80160, Note_off_c, 8, 55, 95
6, 80160, Note_off_c, 8, 50, 95
6, 80160, Note_off_c, 8, 47, 95
6, 80160, Note_off_c, 8, 43, 95
6, 80160, Note_on_c, 8, 67, 95
6, 80160, Note_on_c, 8, 59, 95
6, 80160, Note_on_c, 8, 55, 95
6, 80160, Note_on_c, 8, 50, 95
6, 80160, Note_on_c, 8, 47, 95
6, 80160, Note_on_c, 8, 43, 95
6, 80400, Note_off_c, 8, 67, 95
6, 80400, Note_off_c, 8, 59, 95
6, 80400, Note_off_c, 8, 55, 95
6, 80400, Note_off_c, 8, 50, 95
6, 80400, Note_off_c, 8, 47, 95
6, 80400, Note_off_c, 8, 43, 95
6, 80400, Note_on_c, 8, 67, 95
6, 80400, Note_on_c, 8, 59, 95
6, 80400, Note_on_c, 8, 55, 95
6, 80400, Note_on_c, 8, 50, 95
6, 80400, Note_on_c, 8, 47, 95
6, 80400, Note_on_c, 8, 43, 95
6, 80640, Note_off_c, 8, 67, 95
6, 80640, Note_off_c, 8, 59, 95
6, 80640, Note_off_c, 8, 55, 95
6, 80640, Note_off_c, 8, 50, 95
6, 80640, Note_off_c, 8, 47, 95
6, 80640, Note_off_c, 8, 43, 95
6, 80640, Note_on_c, 8, 64, 95
6, 80640, Note_on_c, 8, 59, 95
6, 80640, Note_on_c, 8, 55, 95
6, 80640, Note_on_c, 8, 52, 95
6, 80640, Note_on_c, 8, 47, 95
6, 80640, Note_on_c, 8, 40, 95
6, 81120, Note_off_c, 8, 64, 95
6, 81120, Note_off_c, 8, 59, 95
6, 81120, Note_off_c, 8, 55, 95
6, 81120, Note_off_c, 8, 52, 95
6, 81120, Note_off_c, 8, 47, 95
6, 81120, Note_off_c, 8, 40, 95
6, 81120, Note_on_c, 8, 64, 95
6, 81120, Note_on_c, 8, 59, 95
6, 81120, Note_on_c, 8, 55, 95
6, 81120, Note_on_c, 8, 52, 95
6, 81120, Note_on_c, 8, 47, 95
6, 81120, Note_on_c, 8, 40, 95
6, 81360, Note_off_c, 8, 64, 95
6, 81360, Note_off_c, 8, 59, 95
6, 81360, Note_off_c, 8, 55, 95
6, 81360, Note_off_c, 8, 52, 95
6, 81360, Note_off_c, 8, 47, 95
6, 81360, Note_off_c, 8, 40, 95
6, 81360, Note_on_c, 8, 64, 95
6, 81360, Note_on_c, 8, 59, 95
6, 81360, Note_on_c, 8, 55, 95
6, 81360, Note_on_c, 8, 52, 95
6, 81360, Note_on_c, 8, 47, 95
6, 81360, Note_on_c, 8, 40, 95
6, 81600, Note_off_c, 8, 64, 95
6, 81600, Note_off_c, 8, 59, 95
6, 81600, Note_off_c, 8, 55, 95
6, 81600, Note_off_c, 8, 52, 95
6, 81600, Note_off_c, 8, 47, 95
6, 81600, Note_off_c, 8, 40, 95
6, 81600, Note_on_c, 8, 64, 95
6, 81600, Note_on_c, 8, 59, 95
6, 81600, Note_on_c, 8, 55, 95
6, 81600, Note_on_c, 8, 52, 95
6, 81600, Note_on_c, 8, 47, 95
6, 81600, Note_on_c, 8, 40, 95
6, 82080, Note_off_c, 8, 64, 95
6, 82080, Note_off_c, 8, 59, 95
6, 82080, Note_off_c, 8, 55, 95
6, 82080, Note_off_c, 8, 52, 95
6, 82080, Note_off_c, 8, 47, 95
6, 82080, Note_off_c, 8, 40, 95
6, 82080, Note_on_c, 8, 64, 95
6, 82080, Note_on_c, 8, 59, 95
6, 82080, Note_on_c, 8, 55, 95
6, 82080, Note_on_c, 8, 52, 95
6, 82080, Note_on_c, 8, 47, 95
6, 82080, Note_on_c, 8, 40, 95
6, 82320, Note_off_c, 8, 64, 95
6, 82320, Note_off_c, 8, 59, 95
6, 82320, Note_off_c, 8, 55, 95
6, 82320, Note_off_c, 8, 52, 95
6, 82320, Note_off_c, 8, 47, 95
6, 82320, Note_off_c, 8, 40, 95
6, 82320, Note_on_c, 8, 64, 95
6, 82320, Note_on_c, 8, 59, 95
6, 82320, Note_on_c, 8, 55, 95
6, 82320, Note_on_c, 8, 52, 95
6, 82320, Note_on_c, 8, 47, 95
6, 82320, Note_on_c, 8, 40, 95
6, 82560, Note_off_c, 8, 64, 95
6, 82560, Note_off_c, 8, 59, 95
6, 82560, Note_off_c, 8, 55, 95
6, 82560, Note_off_c, 8, 52, 95
6, 82560, Note_off_c, 8, 47, 95
6, 82560, Note_off_c, 8, 40, 95
6, 82560, Note_on_c, 8, 64, 95
6, 82560, Note_on_c, 8, 59, 95
6, 82560, Note_on_c, 8, 55, 95
6, 82560, Note_on_c, 8, 52, 95
6, 82560, Note_on_c, 8, 47, 95
6, 82560, Note_on_c, 8, 40, 95
6, 82800, Note_off_c, 8, 64, 95
6, 82800, Note_off_c, 8, 59, 95
6, 82800, Note_off_c, 8, 55, 95
6, 82800, Note_off_c, 8, 52, 95
6, 82800, Note_off_c, 8, 47, 95
6, 82800, Note_off_c, 8, 40, 95
6, 82800, Note_on_c, 8, 64, 95
6, 82800, Note_on_c, 8, 59, 95
6, 82800, Note_on_c, 8, 55, 95
6, 82800, Note_on_c, 8, 52, 95
6, 82800, Note_on_c, 8, 47, 95
6, 82800, Note_on_c, 8, 40, 95
6, 83040, Note_off_c, 8, 64, 95
6, 83040, Note_off_c, 8, 59, 95
6, 83040, Note_off_c, 8, 55, 95
6, 83040, Note_off_c, 8, 52, 95
6, 83040, Note_off_c, 8, 47, 95
6, 83040, Note_off_c, 8, 40, 95
6, 83040, Note_on_c, 8, 64, 95
6, 83040, Note_on_c, 8, 59, 95
6, 83040, Note_on_c, 8, 55, 95
6, 83040, Note_on_c, 8, 52, 95
6, 83040, Note_on_c, 8, 47, 95
6, 83040, Note_on_c, 8, 40, 95
6, 83520, Note_off_c, 8, 64, 95
6, 83520, Note_off_c, 8, 59, 95
6, 83520, Note_off_c, 8, 55, 95
6, 83520, Note_off_c, 8, 52, 95
6, 83520, Note_off_c, 8, 47, 95
6, 83520, Note_off_c, 8, 40, 95
6, 83520, Note_on_c, 8, 64, 95
6, 83520, Note_on_c, 8, 59, 95
6, 83520, Note_on_c, 8, 55, 95
6, 83520, Note_on_c, 8, 52, 95
6, 83520, Note_on_c, 8, 47, 95
6, 83520, Note_on_c, 8, 40, 95
6, 84000, Note_off_c, 8, 64, 95
6, 84000, Note_off_c, 8, 59, 95
6, 84000, Note_off_c, 8, 55, 95
6, 84000, Note_off_c, 8, 52, 95
6, 84000, Note_off_c, 8, 47, 95
6, 84000, Note_off_c, 8, 40, 95
6, 84000, Note_on_c, 8, 64, 95
6, 84000, Note_on_c, 8, 59, 95
6, 84000, Note_on_c, 8, 55, 95
6, 84000, Note_on_c, 8, 52, 95
6, 84000, Note_on_c, 8, 47, 95
6, 84000, Note_on_c, 8, 40, 95
6, 84240, Note_off_c, 8, 64, 95
6, 84240, Note_off_c, 8, 59, 95
6, 84240, Note_off_c, 8, 55, 95
6, 84240, Note_off_c, 8, 52, 95
6, 84240, Note_off_c, 8, 47, 95
6, 84240, Note_off_c, 8, 40, 95
6, 84240, Note_on_c, 8, 64, 95
6, 84240, Note_on_c, 8, 59, 95
6, 84240, Note_on_c, 8, 55, 95
6, 84240, Note_on_c, 8, 52, 95
6, 84240, Note_on_c, 8, 47, 95
6, 84240, Note_on_c, 8, 40, 95
6, 84480, Note_off_c, 8, 64, 95
6, 84480, Note_off_c, 8, 59, 95
6, 84480, Note_off_c, 8, 55, 95
6, 84480, Note_off_c, 8, 52, 95
6, 84480, Note_off_c, 8, 47, 95
6, 84480, Note_off_c, 8, 40, 95
6, 84480, Note_on_c, 8, 64, 95
6, 84480, Note_on_c, 8, 61, 95
6, 84480, Note_on_c, 8, 55, 95
6, 84480, Note_on_c, 8, 52, 95
6, 84480, Note_on_c, 8, 45, 95
6, 84960, Note_off_c, 8, 64, 95
6, 84960, Note_off_c, 8, 61, 95
6, 84960, Note_off_c, 8, 55, 95
6, 84960, Note_off_c, 8, 52, 95
6, 84960, Note_off_c, 8, 45, 95
6, 84960, Note_on_c, 8, 64, 95
6, 84960, Note_on_c, 8, 61, 95
6, 84960, Note_on_c, 8, 55, 95
6, 84960, Note_on_c, 8, 52, 95
6, 84960, Note_on_c, 8, 45, 95
6, 85200, Note_off_c, 8, 64, 95
6, 85200, Note_off_c, 8, 61, 95
6, 85200, Note_off_c, 8, 55, 95
6, 85200, Note_off_c, 8, 52, 95
6, 85200, Note_off_c, 8, 45, 95
6, 85200, Note_on_c, 8, 64, 95
6, 85200, Note_on_c, 8, 61, 95
6, 85200, Note_on_c, 8, 55, 95
6, 85200, Note_on_c, 8, 52, 95
6, 85200, Note_on_c, 8, 45, 95
6, 85440, Note_off_c, 8, 64, 95
6, 85440, Note_off_c, 8, 61, 95
6, 85440, Note_off_c, 8, 55, 95
6, 85440, Note_off_c, 8, 52, 95
6, 85440, Note_off_c, 8, 45, 95
6, 85440, Note_on_c, 8, 64, 95
6, 85440, Note_on_c, 8, 61, 95
6, 85440, Note_on_c, 8, 55, 95
6, 85440, Note_on_c, 8, 52, 95
6, 85440, Note_on_c, 8, 45, 95
6, 85920, Note_off_c, 8, 64, 95
6, 85920, Note_off_c, 8, 61, 95
6, 85920, Note_off_c, 8, 55, 95
6, 85920, Note_off_c, 8, 52, 95
6, 85920, Note_off_c, 8, 45, 95
6, 85920, Note_on_c, 8, 64, 95
6, 85920, Note_on_c, 8, 61, 95
6, 85920, Note_on_c, 8, 55, 95
6, 85920, Note_on_c, 8, 52, 95
6, 85920, Note_on_c, 8, 45, 95
6, 86160, Note_off_c, 8, 64, 95
6, 86160, Note_off_c, 8, 61, 95
6, 86160, Note_off_c, 8, 55, 95
6, 86160, Note_off_c, 8, 52, 95
6, 86160, Note_off_c, 8, 45, 95
6, 86160, Note_on_c, 8, 64, 95
6, 86160, Note_on_c, 8, 61, 95
6, 86160, Note_on_c, 8, 55, 95
6, 86160, Note_on_c, 8, 52, 95
6, 86160, Note_on_c, 8, 45, 95
6, 86400, Note_off_c, 8, 64, 95
6, 86400, Note_off_c, 8, 61, 95
6, 86400, Note_off_c, 8, 55, 95
6, 86400, Note_off_c, 8, 52, 95
6, 86400, Note_off_c, 8, 45, 95
6, 86400, Note_on_c, 8, 64, 95
6, 86400, Note_on_c, 8, 61, 95
6, 86400, Note_on_c, 8, 55, 95
6, 86400, Note_on_c, 8, 52, 95
6, 86400, Note_on_c, 8, 45, 95
6, 86640, Note_off_c, 8, 64, 95
6, 86640, Note_off_c, 8, 61, 95
6, 86640, Note_off_c, 8, 55, 95
6, 86640, Note_off_c, 8, 52, 95
6, 86640, Note_off_c, 8, 45, 95
6, 86640, Note_on_c, 8, 64, 95
6, 86640, Note_on_c, 8, 61, 95
6, 86640, Note_on_c, 8, 55, 95
6, 86640, Note_on_c, 8, 52, 95
6, 86640, Note_on_c, 8, 45, 95
6, 86880, Note_off_c, 8, 64, 95
6, 86880, Note_off_c, 8, 61, 95
6, 86880, Note_off_c, 8, 55, 95
6, 86880, Note_off_c, 8, 52, 95
6, 86880, Note_off_c, 8, 45, 95
6, 86880, Note_on_c, 8, 64, 95
6, 86880, Note_on_c, 8, 61, 95
6, 86880, Note_on_c, 8, 55, 95
6, 86880, Note_on_c, 8, 52, 95
6, 86880, Note_on_c, 8, 45, 95
6, 87360, Note_off_c, 8, 64, 95
6, 87360, Note_off_c, 8, 61, 95
6, 87360, Note_off_c, 8, 55, 95
6, 87360, Note_off_c, 8, 52, 95
6, 87360, Note_off_c, 8, 45, 95
6, 87360, Note_on_c, 8, 64, 95
6, 87360, Note_on_c, 8, 61, 95
6, 87360, Note_on_c, 8, 55, 95
6, 87360, Note_on_c, 8, 52, 95
6, 87360, Note_on_c, 8, 45, 95
6, 87840, Note_off_c, 8, 64, 95
6, 87840, Note_off_c, 8, 61, 95
6, 87840, Note_off_c, 8, 55, 95
6, 87840, Note_off_c, 8, 52, 95
6, 87840, Note_off_c, 8, 45, 95
6, 87840, Note_on_c, 8, 64, 95
6, 87840, Note_on_c, 8, 61, 95
6, 87840, Note_on_c, 8, 55, 95
6, 87840, Note_on_c, 8, 52, 95
6, 87840, Note_on_c, 8, 45, 95
6, 88320, Note_off_c, 8, 64, 95
6, 88320, Note_off_c, 8, 61, 95
6, 88320, Note_off_c, 8, 55, 95
6, 88320, Note_off_c, 8, 52, 95
6, 88320, Note_off_c, 8, 45, 95
6, 88320, Note_on_c, 8, 64, 95
6, 88320, Note_on_c, 8, 60, 95
6, 88320, Note_on_c, 8, 55, 95
6, 88320, Note_on_c, 8, 52, 95
6, 88320, Note_on_c, 8, 48, 95
6, 88320, Note_on_c, 8, 43, 95
6, 88800, Note_off_c, 8, 64, 95
6, 88800, Note_off_c, 8, 60, 95
6, 88800, Note_off_c, 8, 55, 95
6, 88800, Note_off_c, 8, 52, 95
6, 88800, Note_off_c, 8, 48, 95
6, 88800, Note_off_c, 8, 43, 95
6, 88800, Note_on_c, 8, 64, 95
6, 88800, Note_on_c, 8, 60, 95
6, 88800, Note_on_c, 8, 55, 95
6, 88800, Note_on_c, 8, 52, 95
6, 88800, Note_on_c, 8, 48, 95
6, 88800, Note_on_c, 8, 43, 95
6, 89040, Note_off_c, 8, 64, 95
6, 89040, Note_off_c, 8, 60, 95
6, 89040, Note_off_c, 8, 55, 95
6, 89040, Note_off_c, 8, 52, 95
6, 89040, Note_off_c, 8, 48, 95
6, 89040, Note_off_c, 8, 43, 95
6, 89040, Note_on_c, 8, 64, 95
6, 89040, Note_on_c, 8, 60, 95
6, 89040, Note_on_c, 8, 55, 95
6, 89040, Note_on_c, 8, 52, 95
6, 89040, Note_on_c, 8, 48, 95
6, 89040, Note_on_c, 8, 43, 95
6, 89280, Note_off_c, 8, 64, 95
6, 89280, Note_off_c, 8, 60, 95
6, 89280, Note_off_c, 8, 55, 95
6, 89280, Note_off_c, 8, 52, 95
6, 89280, Note_off_c, 8, 48, 95
6, 89280, Note_off_c, 8, 43, 95
6, 89280, Note_on_c, 8, 64, 95
6, 89280, Note_on_c, 8, 60, 95
6, 89280, Note_on_c, 8, 55, 95
6, 89280, Note_on_c, 8, 52, 95
6, 89280, Note_on_c, 8, 48, 95
6, 89280, Note_on_c, 8, 43, 95
6, 89760, Note_off_c, 8, 64, 95
6, 89760, Note_off_c, 8, 60, 95
6, 89760, Note_off_c, 8, 55, 95
6, 89760, Note_off_c, 8, 52, 95
6, 89760, Note_off_c, 8, 48, 95
6, 89760, Note_off_c, 8, 43, 95
6, 89760, Note_on_c, 8, 64, 95
6, 89760, Note_on_c, 8, 60, 95
6, 89760, Note_on_c, 8, 55, 95
6, 89760, Note_on_c, 8, 52, 95
6, 89760, Note_on_c, 8, 48, 95
6, 89760, Note_on_c, 8, 43, 95
6, 90000, Note_off_c, 8, 64, 95
6, 90000, Note_off_c, 8, 60, 95
6, 90000, Note_off_c, 8, 55, 95
6, 90000, Note_off_c, 8, 52, 95
6, 90000, Note_off_c, 8, 48, 95
6, 90000, Note_off_c, 8, 43, 95
6, 90000, Note_on_c, 8, 64, 95
6, 90000, Note_on_c, 8, 60, 95
6, 90000, Note_on_c, 8, 55, 95
6, 90000, Note_on_c, 8, 52, 95
6, 90000, Note_on_c, 8, 48, 95
6, 90000, Note_on_c, 8, 43, 95
6, 90240, Note_off_c, 8, 64, 95
6, 90240, Note_off_c, 8, 60, 95
6, 90240, Note_off_c, 8, 55, 95
6, 90240, Note_off_c, 8, 52, 95
6, 90240, Note_off_c, 8, 48, 95
6, 90240, Note_off_c, 8, 43, 95
6, 90240, Note_on_c, 8, 64, 95
6, 90240, Note_on_c, 8, 60, 95
6, 90240, Note_on_c, 8, 55, 95
6, 90240, Note_on_c, 8, 52, 95
6, 90240, Note_on_c, 8, 48, 95
6, 90240, Note_on_c, 8, 43, 95
6, 90480, Note_off_c, 8, 64, 95
6, 90480, Note_off_c, 8, 60, 95
6, 90480, Note_off_c, 8, 55, 95
6, 90480, Note_off_c, 8, 52, 95
6, 90480, Note_off_c, 8, 48, 95
6, 90480, Note_off_c, 8, 43, 95
6, 90480, Note_on_c, 8, 64, 95
6, 90480, Note_on_c, 8, 60, 95
6, 90480, Note_on_c, 8, 55, 95
6, 90480, Note_on_c, 8, 52, 95
6, 90480, Note_on_c, 8, 48, 95
6, 90480, Note_on_c, 8, 43, 95
6, 90720, Note_off_c, 8, 64, 95
6, 90720, Note_off_c, 8, 60, 95
6, 90720, Note_off_c, 8, 55, 95
6, 90720, Note_off_c, 8, 52, 95
6, 90720, Note_off_c, 8, 48, 95
6, 90720, Note_off_c, 8, 43, 95
6, 90720, Note_on_c, 8, 67, 95
6, 90720, Note_on_c, 8, 59, 95
6, 90720, Note_on_c, 8, 55, 95
6, 90720, Note_on_c, 8, 50, 95
6, 90720, Note_on_c, 8, 47, 95
6, 90720, Note_on_c, 8, 43, 95
6, 90960, Note_off_c, 8, 67, 95
6, 90960, Note_off_c, 8, 59, 95
6, 90960, Note_off_c, 8, 55, 95
6, 90960, Note_off_c, 8, 50, 95
6, 90960, Note_off_c, 8, 47, 95
6, 90960, Note_off_c, 8, 43, 95
6, 90960, Note_on_c, 8, 67, 95
6, 90960, Note_on_c, 8, 59, 95
6, 90960, Note_on_c, 8, 55, 95
6, 90960, Note_on_c, 8, 50, 95
6, 90960, Note_on_c, 8, 47, 95
6, 90960, Note_on_c, 8, 43, 95
6, 91200, Note_off_c, 8, 67, 95
6, 91200, Note_off_c, 8, 59, 95
6, 91200, Note_off_c, 8, 55, 95
6, 91200, Note_off_c, 8, 50, 95
6, 91200, Note_off_c, 8, 47, 95
6, 91200, Note_off_c, 8, 43, 95
6, 91200, Note_on_c, 8, 64, 95
6, 91200, Note_on_c, 8, 60, 95
6, 91200, Note_on_c, 8, 55, 95
6, 91200, Note_on_c, 8, 52, 95
6, 91200, Note_on_c, 8, 48, 95
6, 91200, Note_on_c, 8, 43, 95
6, 91440, Note_off_c, 8, 64, 95
6, 91440, Note_off_c, 8, 60, 95
6, 91440, Note_off_c, 8, 55, 95
6, 91440, Note_off_c, 8, 52, 95
6, 91440, Note_off_c, 8, 48, 95
6, 91440, Note_off_c, 8, 43, 95
6, 91440, Note_on_c, 8, 64, 95
6, 91440, Note_on_c, 8, 60, 95
6, 91440, Note_on_c, 8, 55, 95
6, 91440, Note_on_c, 8, 52, 95
6, 91440, Note_on_c, 8, 48, 95
6, 91440, Note_on_c, 8, 43, 95
6, 91680, Note_off_c, 8, 64, 95
6, 91680, Note_off_c, 8, 60, 95
6, 91680, Note_off_c, 8, 55, 95
6, 91680, Note_off_c, 8, 52, 95
6, 91680, Note_off_c, 8, 48, 95
6, 91680, Note_off_c, 8, 43, 95
6, 91680, Note_on_c, 8, 64, 95
6, 91680, Note_on_c, 8, 60, 95
6, 91680, Note_on_c, 8, 55, 95
6, 91680, Note_on_c, 8, 52, 95
6, 91680, Note_on_c, 8, 45, 95
6, 91920, Note_off_c, 8, 64, 95
6, 91920, Note_off_c, 8, 60, 95
6, 91920, Note_off_c, 8, 55, 95
6, 91920, Note_off_c, 8, 52, 95
6, 91920, Note_off_c, 8, 45, 95
6, 91920, Note_on_c, 8, 64, 95
6, 91920, Note_on_c, 8, 60, 95
6, 91920, Note_on_c, 8, 55, 95
6, 91920, Note_on_c, 8, 52, 95
6, 91920, Note_on_c, 8, 45, 95
6, 92160, Note_off_c, 8, 64, 95
6, 92160, Note_off_c, 8, 60, 95
6, 92160, Note_off_c, 8, 55, 95
6, 92160, Note_off_c, 8, 52, 95
6, 92160, Note_off_c, 8, 45, 95
6, 92160, Note_on_c, 8, 69, 95
6, 92160, Note_on_c, 8, 64, 95
6, 92160, Note_on_c, 8, 60, 95
6, 92160, Note_on_c, 8, 57, 95
6, 92160, Note_on_c, 8, 52, 95
6, 92160, Note_on_c, 8, 45, 95
6, 92400, Note_off_c, 8, 69, 95
6, 92400, Note_off_c, 8, 64, 95
6, 92400, Note_off_c, 8, 60, 95
6, 92400, Note_off_c, 8, 57, 95
6, 92400, Note_off_c, 8, 52, 95
6, 92400, Note_off_c, 8, 45, 95
6, 92400, Note_on_c, 8, 69, 95
6, 92400, Note_on_c, 8, 64, 95
6, 92400, Note_on_c, 8, 60, 95
6, 92400, Note_on_c, 8, 57, 95
6, 92400, Note_on_c, 8, 52, 95
6, 92400, Note_on_c, 8, 45, 95
6, 92640, Note_off_c, 8, 69, 95
6, 92640, Note_off_c, 8, 64, 95
6, 92640, Note_off_c, 8, 60, 95
6, 92640, Note_off_c, 8, 57, 95
6, 92640, Note_off_c, 8, 52, 95
6, 92640, Note_off_c, 8, 45, 95
6, 92640, Note_on_c, 8, 69, 95
6, 92640, Note_on_c, 8, 64, 95
6, 92640, Note_on_c, 8, 60, 95
6, 92640, Note_on_c, 8, 57, 95
6, 92640, Note_on_c, 8, 52, 95
6, 92640, Note_on_c, 8, 45, 95
6, 92880, Note_off_c, 8, 69, 95
6, 92880, Note_off_c, 8, 64, 95
6, 92880, Note_off_c, 8, 60, 95
6, 92880, Note_off_c, 8, 57, 95
6, 92880, Note_off_c, 8, 52, 95
6, 92880, Note_off_c, 8, 45, 95
6, 92880, Note_on_c, 8, 69, 95
6, 92880, Note_on_c, 8, 64, 95
6, 92880, Note_on_c, 8, 60, 95
6, 92880, Note_on_c, 8, 57, 95
6, 92880, Note_on_c, 8, 52, 95
6, 92880, Note_on_c, 8, 45, 95
6, 93120, Note_off_c, 8, 69, 95
6, 93120, Note_off_c, 8, 64, 95
6, 93120, Note_off_c, 8, 60, 95
6, 93120, Note_off_c, 8, 57, 95
6, 93120, Note_off_c, 8, 52, 95
6, 93120, Note_off_c, 8, 45, 95
6, 93120, Note_on_c, 8, 69, 95
6, 93120, Note_on_c, 8, 64, 95
6, 93120, Note_on_c, 8, 60, 95
6, 93120, Note_on_c, 8, 57, 95
6, 93120, Note_on_c, 8, 52, 95
6, 93120, Note_on_c, 8, 45, 95
6, 93600, Note_off_c, 8, 69, 95
6, 93600, Note_off_c, 8, 64, 95
6, 93600, Note_off_c, 8, 60, 95
6, 93600, Note_off_c, 8, 57, 95
6, 93600, Note_off_c, 8, 52, 95
6, 93600, Note_off_c, 8, 45, 95
6, 93600, Note_on_c, 8, 69, 95
6, 93600, Note_on_c, 8, 64, 95
6, 93600, Note_on_c, 8, 60, 95
6, 93600, Note_on_c, 8, 57, 95
6, 93600, Note_on_c, 8, 52, 95
6, 93600, Note_on_c, 8, 45, 95
6, 94080, Note_off_c, 8, 69, 95
6, 94080, Note_off_c, 8, 64, 95
6, 94080, Note_off_c, 8, 60, 95
6, 94080, Note_off_c, 8, 57, 95
6, 94080, Note_off_c, 8, 52, 95
6, 94080, Note_off_c, 8, 45, 95
6, 94080, Note_on_c, 8, 67, 95
6, 94080, Note_on_c, 8, 62, 95
6, 94080, Note_on_c, 8, 59, 95
6, 94080, Note_on_c, 8, 55, 95
6, 94080, Note_on_c, 8, 50, 95
6, 94080, Note_on_c, 8, 43, 95
6, 94320, Note_off_c, 8, 67, 95
6, 94320, Note_off_c, 8, 62, 95
6, 94320, Note_off_c, 8, 59, 95
6, 94320, Note_off_c, 8, 55, 95
6, 94320, Note_off_c, 8, 50, 95
6, 94320, Note_off_c, 8, 43, 95
6, 94320, Note_on_c, 8, 67, 95
6, 94320, Note_on_c, 8, 62, 95
6, 94320, Note_on_c, 8, 59, 95
6, 94320, Note_on_c, 8, 55, 95
6, 94320, Note_on_c, 8, 50, 95
6, 94320, Note_on_c, 8, 43, 95
6, 94560, Note_off_c, 8, 67, 95
6, 94560, Note_off_c, 8, 62, 95
6, 94560, Note_off_c, 8, 59, 95
6, 94560, Note_off_c, 8, 55, 95
6, 94560, Note_off_c, 8, 50, 95
6, 94560, Note_off_c, 8, 43, 95
6, 94560, Note_on_c, 8, 67, 95
6, 94560, Note_on_c, 8, 62, 95
6, 94560, Note_on_c, 8, 59, 95
6, 94560, Note_on_c, 8, 55, 95
6, 94560, Note_on_c, 8, 50, 95
6, 94560, Note_on_c, 8, 43, 95
6, 94800, Note_off_c, 8, 67, 95
6, 94800, Note_off_c, 8, 62, 95
6, 94800, Note_off_c, 8, 59, 95
6, 94800, Note_off_c, 8, 55, 95
6, 94800, Note_off_c, 8, 50, 95
6, 94800, Note_off_c, 8, 43, 95
6, 94800, Note_on_c, 8, 67, 95
6, 94800, Note_on_c, 8, 62, 95
6, 94800, Note_on_c, 8, 59, 95
6, 94800, Note_on_c, 8, 55, 95
6, 94800, Note_on_c, 8, 50, 95
6, 94800, Note_on_c, 8, 43, 95
6, 95040, Note_off_c, 8, 67, 95
6, 95040, Note_off_c, 8, 62, 95
6, 95040, Note_off_c, 8, 59, 95
6, 95040, Note_off_c, 8, 55, 95
6, 95040, Note_off_c, 8, 50, 95
6, 95040, Note_off_c, 8, 43, 95
6, 95040, Note_on_c, 8, 67, 95
6, 95040, Note_on_c, 8, 62, 95
6, 95040, Note_on_c, 8, 59, 95
6, 95040, Note_on_c, 8, 55, 95
6, 95040, Note_on_c, 8, 50, 95
6, 95040, Note_on_c, 8, 43, 95
6, 95520, Note_off_c, 8, 67, 95
6, 95520, Note_off_c, 8, 62, 95
6, 95520, Note_off_c, 8, 59, 95
6, 95520, Note_off_c, 8, 55, 95
6, 95520, Note_off_c, 8, 50, 95
6, 95520, Note_off_c, 8, 43, 95
6, 95520, Note_on_c, 8, 67, 95
6, 95520, Note_on_c, 8, 62, 95
6, 95520, Note_on_c, 8, 59, 95
6, 95520, Note_on_c, 8, 55, 95
6, 95520, Note_on_c, 8, 50, 95
6, 95520, Note_on_c, 8, 43, 95
6, 96000, Note_off_c, 8, 67, 95
6, 96000, Note_off_c, 8, 62, 95
6, 96000, Note_off_c, 8, 59, 95
6, 96000, Note_off_c, 8, 55, 95
6, 96000, Note_off_c, 8, 50, 95
6, 96000, Note_off_c, 8, 43, 95
6, 96000, Note_on_c, 8, 65, 95
6, 96000, Note_on_c, 8, 60, 95
6, 96000, Note_on_c, 8, 57, 95
6, 96000, Note_on_c, 8, 53, 95
6, 96000, Note_on_c, 8, 48, 95
6, 96000, Note_on_c, 8, 41, 95
6, 96480, Note_off_c, 8, 65, 95
6, 96480, Note_off_c, 8, 60, 95
6, 96480, Note_off_c, 8, 57, 95
6, 96480, Note_off_c, 8, 53, 95
6, 96480, Note_off_c, 8, 48, 95
6, 96480, Note_off_c, 8, 41, 95
6, 96480, Note_on_c, 8, 64, 95
6, 96480, Note_on_c, 8, 59, 95
6, 96480, Note_on_c, 8, 57, 95
6, 96480, Note_on_c, 8, 53, 95
6, 96480, Note_on_c, 8, 48, 95
6, 96480, Note_on_c, 8, 40, 95
6, 96960, Note_off_c, 8, 64, 95
6, 96960, Note_off_c, 8, 59, 95
6, 96960, Note_off_c, 8, 57, 95
6, 96960, Note_off_c, 8, 53, 95
6, 96960, Note_off_c, 8, 48, 95
6, 96960, Note_off_c, 8, 40, 95
6, 96960, Note_on_c, 8, 65, 95
6, 96960, Note_on_c, 8, 60, 95
6, 96960, Note_on_c, 8, 57, 95
6, 96960, Note_on_c, 8, 53, 95
6, 96960, Note_on_c, 8, 48, 95
6, 96960, Note_on_c, 8, 41, 95
6, 97440, Note_off_c, 8, 65, 95
6, 97440, Note_off_c, 8, 60, 95
6, 97440, Note_off_c, 8, 57, 95
6, 97440, Note_off_c, 8, 53, 95
6, 97440, Note_off_c, 8, 48, 95
6, 97440, Note_off_c, 8, 41, 95
6, 97440, Note_on_c, 8, 64, 95
6, 97440, Note_on_c, 8, 59, 95
6, 97440, Note_on_c, 8, 57, 95
6, 97440, Note_on_c, 8, 53, 95
6, 97440, Note_on_c, 8, 48, 95
6, 97440, Note_on_c, 8, 40, 95
6, 97920, Note_off_c, 8, 64, 95
6, 97920, Note_off_c, 8, 59, 95
6, 97920, Note_off_c, 8, 57, 95
6, 97920, Note_off_c, 8, 53, 95
6, 97920, Note_off_c, 8, 48, 95
6, 97920, Note_off_c, 8, 40, 95
6, 97920, Note_on_c, 8, 65, 95
6, 97920, Note_on_c, 8, 60, 95
6, 97920, Note_on_c, 8, 57, 95
6, 97920, Note_on_c, 8, 53, 95
6, 97920, Note_on_c, 8, 48, 95
6, 97920, Note_on_c, 8, 41, 95
6, 98400, Note_off_c, 8, 65, 95
6, 98400, Note_off_c, 8, 60, 95
6, 98400, Note_off_c, 8, 57, 95
6, 98400, Note_off_c, 8, 53, 95
6, 98400, Note_off_c, 8, 48, 95
6, 98400, Note_off_c, 8, 41, 95
6, 98400, Note_on_c, 8, 64, 95
6, 98400, Note_on_c, 8, 59, 95
6, 98400, Note_on_c, 8, 57, 95
6, 98400, Note_on_c, 8, 53, 95
6, 98400, Note_on_c, 8, 48, 95
6, 98400, Note_on_c, 8, 40, 95
6, 98880, Note_off_c, 8, 64, 95
6, 98880, Note_off_c, 8, 59, 95
6, 98880, Note_off_c, 8, 57, 95
6, 98880, Note_off_c, 8, 53, 95
6, 98880, Note_off_c, 8, 48, 95
6, 98880, Note_off_c, 8, 40, 95
6, 98880, Note_on_c, 8, 65, 95
6, 98880, Note_on_c, 8, 60, 95
6, 98880, Note_on_c, 8, 57, 95
6, 98880, Note_on_c, 8, 53, 95
6, 98880, Note_on_c, 8, 48, 95
6, 98880, Note_on_c, 8, 41, 95
6, 99360, Note_off_c, 8, 65, 95
6, 99360, Note_off_c, 8, 60, 95
6, 99360, Note_off_c, 8, 57, 95
6, 99360, Note_off_c, 8, 53, 95
6, 99360, Note_off_c, 8, 48, 95
6, 99360, Note_off_c, 8, 41, 95
6, 99360, Note_on_c, 8, 67, 95
6, 99360, Note_on_c, 8, 62, 95
6, 99360, Note_on_c, 8, 59, 95
6, 99360, Note_on_c, 8, 55, 95
6, 99360, Note_on_c, 8, 50, 95
6, 99360, Note_on_c, 8, 43, 95
6, 99840, Note_off_c, 8, 67, 95
6, 99840, Note_off_c, 8, 62, 95
6, 99840, Note_off_c, 8, 59, 95
6, 99840, Note_off_c, 8, 55, 95
6, 99840, Note_off_c, 8, 50, 95
6, 99840, Note_off_c, 8, 43, 95
6, 99840, Note_on_c, 8, 69, 95
6, 99840, Note_on_c, 8, 64, 95
6, 99840, Note_on_c, 8, 60, 95
6, 99840, Note_on_c, 8, 57, 95
6, 99840, Note_on_c, 8, 52, 95
6, 99840, Note_on_c, 8, 45, 95
6, 100080, Note_off_c, 8, 69, 95
6, 100080, Note_off_c, 8, 64, 95
6, 100080, Note_off_c, 8, 60, 95
6, 100080, Note_off_c, 8, 57, 95
6, 100080, Note_off_c, 8, 52, 95
6, 100080, Note_off_c, 8, 45, 95
6, 100080, Note_on_c, 8, 69, 95
6, 100080, Note_on_c, 8, 64, 95
6, 100080, Note_on_c, 8, 60, 95
6, 100080, Note_on_c, 8, 57, 95
6, 100080, Note_on_c, 8, 52, 95
6, 100080, Note_on_c, 8, 45, 95
6, 100320, Note_off_c, 8, 69, 95
6, 100320, Note_off_c, 8, 64, 95
6, 100320, Note_off_c, 8, 60, 95
6, 100320, Note_off_c, 8, 57, 95
6, 100320, Note_off_c, 8, 52, 95
6, 100320, Note_off_c, 8, 45, 95
6, 100320, Note_on_c, 8, 69, 95
6, 100320, Note_on_c, 8, 64, 95
6, 100320, Note_on_c, 8, 60, 95
6, 100320, Note_on_c, 8, 57, 95
6, 100320, Note_on_c, 8, 52, 95
6, 100320, Note_on_c, 8, 45, 95
6, 100560, Note_off_c, 8, 69, 95
6, 100560, Note_off_c, 8, 64, 95
6, 100560, Note_off_c, 8, 60, 95
6, 100560, Note_off_c, 8, 57, 95
6, 100560, Note_off_c, 8, 52, 95
6, 100560, Note_off_c, 8, 45, 95
6, 100560, Note_on_c, 8, 69, 95
6, 100560, Note_on_c, 8, 64, 95
6, 100560, Note_on_c, 8, 60, 95
6, 100560, Note_on_c, 8, 57, 95
6, 100560, Note_on_c, 8, 52, 95
6, 100560, Note_on_c, 8, 45, 95
6, 100800, Note_off_c, 8, 69, 95
6, 100800, Note_off_c, 8, 64, 95
6, 100800, Note_off_c, 8, 60, 95
6, 100800, Note_off_c, 8, 57, 95
6, 100800, Note_off_c, 8, 52, 95
6, 100800, Note_off_c, 8, 45, 95
6, 100800, Note_on_c, 8, 69, 95
6, 100800, Note_on_c, 8, 64, 95
6, 100800, Note_on_c, 8, 60, 95
6, 100800, Note_on_c, 8, 57, 95
6, 100800, Note_on_c, 8, 52, 95
6, 100800, Note_on_c, 8, 45, 95
6, 101280, Note_off_c, 8, 69, 95
6, 101280, Note_off_c, 8, 64, 95
6, 101280, Note_off_c, 8, 60, 95
6, 101280, Note_off_c, 8, 57, 95
6, 101280, Note_off_c, 8, 52, 95
6, 101280, Note_off_c, 8, 45, 95
6, 101280, Note_on_c, 8, 69, 95
6, 101280, Note_on_c, 8, 64, 95
6, 101280, Note_on_c, 8, 60, 95
6, 101280, Note_on_c, 8, 57, 95
6, 101280, Note_on_c, 8, 52, 95
6, 101280, Note_on_c, 8, 45, 95
6, 101760, Note_off_c, 8, 69, 95
6, 101760, Note_off_c, 8, 64, 95
6, 101760, Note_off_c, 8, 60, 95
6, 101760, Note_off_c, 8, 57, 95
6, 101760, Note_off_c, 8, 52, 95
6, 101760, Note_off_c, 8, 45, 95
6, 101760, Note_on_c, 8, 67, 95
6, 101760, Note_on_c, 8, 62, 95
6, 101760, Note_on_c, 8, 59, 95
6, 101760, Note_on_c, 8, 55, 95
6, 101760, Note_on_c, 8, 50, 95
6, 101760, Note_on_c, 8, 43, 95
6, 102000, Note_off_c, 8, 67, 95
6, 102000, Note_off_c, 8, 62, 95
6, 102000, Note_off_c, 8, 59, 95
6, 102000, Note_off_c, 8, 55, 95
6, 102000, Note_off_c, 8, 50, 95
6, 102000, Note_off_c, 8, 43, 95
6, 102000, Note_on_c, 8, 67, 95
6, 102000, Note_on_c, 8, 62, 95
6, 102000, Note_on_c, 8, 59, 95
6, 102000, Note_on_c, 8, 55, 95
6, 102000, Note_on_c, 8, 50, 95
6, 102000, Note_on_c, 8, 43, 95
6, 102240, Note_off_c, 8, 67, 95
6, 102240, Note_off_c, 8, 62, 95
6, 102240, Note_off_c, 8, 59, 95
6, 102240, Note_off_c, 8, 55, 95
6, 102240, Note_off_c, 8, 50, 95
6, 102240, Note_off_c, 8, 43, 95
6, 102240, Note_on_c, 8, 67, 95
6, 102240, Note_on_c, 8, 62, 95
6, 102240, Note_on_c, 8, 59, 95
6, 102240, Note_on_c, 8, 55, 95
6, 102240, Note_on_c, 8, 50, 95
6, 102240, Note_on_c, 8, 43, 95
6, 102480, Note_off_c, 8, 67, 95
6, 102480, Note_off_c, 8, 62, 95
6, 102480, Note_off_c, 8, 59, 95
6, 102480, Note_off_c, 8, 55, 95
6, 102480, Note_off_c, 8, 50, 95
6, 102480, Note_off_c, 8, 43, 95
6, 102480, Note_on_c, 8, 67, 95
6, 102480, Note_on_c, 8, 62, 95
6, 102480, Note_on_c, 8, 59, 95
6, 102480, Note_on_c, 8, 55, 95
6, 102480, Note_on_c, 8, 50, 95
6, 102480, Note_on_c, 8, 43, 95
6, 102720, Note_off_c, 8, 67, 95
6, 102720, Note_off_c, 8, 62, 95
6, 102720, Note_off_c, 8, 59, 95
6, 102720, Note_off_c, 8, 55, 95
6, 102720, Note_off_c, 8, 50, 95
6, 102720, Note_off_c, 8, 43, 95
6, 102720, Note_on_c, 8, 67, 95
6, 102720, Note_on_c, 8, 62, 95
6, 102720, Note_on_c, 8, 59, 95
6, 102720, Note_on_c, 8, 55, 95
6, 102720, Note_on_c, 8, 50, 95
6, 102720, Note_on_c, 8, 43, 95
6, 103200, Note_off_c, 8, 67, 95
6, 103200, Note_off_c, 8, 62, 95
6, 103200, Note_off_c, 8, 59, 95
6, 103200, Note_off_c, 8, 55, 95
6, 103200, Note_off_c, 8, 50, 95
6, 103200, Note_off_c, 8, 43, 95
6, 103200, Note_on_c, 8, 67, 95
6, 103200, Note_on_c, 8, 62, 95
6, 103200, Note_on_c, 8, 59, 95
6, 103200, Note_on_c, 8, 55, 95
6, 103200, Note_on_c, 8, 50, 95
6, 103200, Note_on_c, 8, 43, 95
6, 103680, Note_off_c, 8, 67, 95
6, 103680, Note_off_c, 8, 62, 95
6, 103680, Note_off_c, 8, 59, 95
6, 103680, Note_off_c, 8, 55, 95
6, 103680, Note_off_c, 8, 50, 95
6, 103680, Note_off_c, 8, 43, 95
6, 103680, Note_on_c, 8, 65, 95
6, 103680, Note_on_c, 8, 60, 95
6, 103680, Note_on_c, 8, 57, 95
6, 103680, Note_on_c, 8, 53, 95
6, 103680, Note_on_c, 8, 48, 95
6, 103680, Note_on_c, 8, 41, 95
6, 104160, Note_off_c, 8, 65, 95
6, 104160, Note_off_c, 8, 60, 95
6, 104160, Note_off_c, 8, 57, 95
6, 104160, Note_off_c, 8, 53, 95
6, 104160, Note_off_c, 8, 48, 95
6, 104160, Note_off_c, 8, 41, 95
6, 104160, Note_on_c, 8, 64, 95
6, 104160, Note_on_c, 8, 59, 95
6, 104160, Note_on_c, 8, 57, 95
6, 104160, Note_on_c, 8, 53, 95
6, 104160, Note_on_c, 8, 48, 95
6, 104160, Note_on_c, 8, 40, 95
6, 104640, Note_off_c, 8, 64, 95
6, 104640, Note_off_c, 8, 59, 95
6, 104640, Note_off_c, 8, 57, 95
6, 104640, Note_off_c, 8, 53, 95
6, 104640, Note_off_c, 8, 48, 95
6, 104640, Note_off_c, 8, 40, 95
6, 104640, Note_on_c, 8, 65, 95
6, 104640, Note_on_c, 8, 60, 95
6, 104640, Note_on_c, 8, 57, 95
6, 104640, Note_on_c, 8, 53, 95
6, 104640, Note_on_c, 8, 48, 95
6, 104640, Note_on_c, 8, 41, 95
6, 105120, Note_off_c, 8, 65, 95
6, 105120, Note_off_c, 8, 60, 95
6, 105120, Note_off_c, 8, 57, 95
6, 105120, Note_off_c, 8, 53, 95
6, 105120, Note_off_c, 8, 48, 95
6, 105120, Note_off_c, 8, 41, 95
6, 105120, Note_on_c, 8, 64, 95
6, 105120, Note_on_c, 8, 59, 95
6, 105120, Note_on_c, 8, 57, 95
6, 105120, Note_on_c, 8, 53, 95
6, 105120, Note_on_c, 8, 48, 95
6, 105120, Note_on_c, 8, 40, 95
6, 105600, Note_off_c, 8, 64, 95
6, 105600, Note_off_c, 8, 59, 95
6, 105600, Note_off_c, 8, 57, 95
6, 105600, Note_off_c, 8, 53, 95
6, 105600, Note_off_c, 8, 48, 95
6, 105600, Note_off_c, 8, 40, 95
6, 105600, Note_on_c, 8, 65, 95
6, 105600, Note_on_c, 8, 60, 95
6, 105600, Note_on_c, 8, 57, 95
6, 105600, Note_on_c, 8, 53, 95
6, 105600, Note_on_c, 8, 48, 95
6, 105600, Note_on_c, 8, 41, 95
6, 106080, Note_off_c, 8, 65, 95
6, 106080, Note_off_c, 8, 60, 95
6, 106080, Note_off_c, 8, 57, 95
6, 106080, Note_off_c, 8, 53, 95
6, 106080, Note_off_c, 8, 48, 95
6, 106080, Note_off_c, 8, 41, 95
6, 106080, Note_on_c, 8, 64, 95
6, 106080, Note_on_c, 8, 59, 95
6, 106080, Note_on_c, 8, 57, 95
6, 106080, Note_on_c, 8, 53, 95
6, 106080, Note_on_c, 8, 48, 95
6, 106080, Note_on_c, 8, 40, 95
6, 106560, Note_off_c, 8, 64, 95
6, 106560, Note_off_c, 8, 59, 95
6, 106560, Note_off_c, 8, 57, 95
6, 106560, Note_off_c, 8, 53, 95
6, 106560, Note_off_c, 8, 48, 95
6, 106560, Note_off_c, 8, 40, 95
6, 106560, Note_on_c, 8, 65, 95
6, 106560, Note_on_c, 8, 60, 95
6, 106560, Note_on_c, 8, 57, 95
6, 106560, Note_on_c, 8, 53, 95
6, 106560, Note_on_c, 8, 48, 95
6, 106560, Note_on_c, 8, 41, 95
6, 107040, Note_off_c, 8, 65, 95
6, 107040, Note_off_c, 8, 60, 95
6, 107040, Note_off_c, 8, 57, 95
6, 107040, Note_off_c, 8, 53, 95
6, 107040, Note_off_c, 8, 48, 95
6, 107040, Note_off_c, 8, 41, 95
6, 107040, Note_on_c, 8, 67, 95
6, 107040, Note_on_c, 8, 62, 95
6, 107040, Note_on_c, 8, 59, 95
6, 107040, Note_on_c, 8, 55, 95
6, 107040, Note_on_c, 8, 50, 95
6, 107040, Note_on_c, 8, 43, 95
6, 107520, Note_off_c, 8, 67, 95
6, 107520, Note_off_c, 8, 62, 95
6, 107520, Note_off_c, 8, 59, 95
6, 107520, Note_off_c, 8, 55, 95
6, 107520, Note_off_c, 8, 50, 95
6, 107520, Note_off_c, 8, 43, 95
6, 107520, Note_on_c, 8, 69, 95
6, 107520, Note_on_c, 8, 64, 95
6, 107520, Note_on_c, 8, 60, 95
6, 107520, Note_on_c, 8, 57, 95
6, 107520, Note_on_c, 8, 52, 95
6, 107520, Note_on_c, 8, 45, 95
6, 107760, Note_off_c, 8, 69, 95
6, 107760, Note_off_c, 8, 64, 95
6, 107760, Note_off_c, 8, 60, 95
6, 107760, Note_off_c, 8, 57, 95
6, 107760, Note_off_c, 8, 52, 95
6, 107760, Note_off_c, 8, 45, 95
6, 107760, Note_on_c, 8, 69, 95
6, 107760, Note_on_c, 8, 64, 95
6, 107760, Note_on_c, 8, 60, 95
6, 107760, Note_on_c, 8, 57, 95
6, 107760, Note_on_c, 8, 52, 95
6, 107760, Note_on_c, 8, 45, 95
6, 108000, Note_off_c, 8, 69, 95
6, 108000, Note_off_c, 8, 64, 95
6, 108000, Note_off_c, 8, 60, 95
6, 108000, Note_off_c, 8, 57, 95
6, 108000, Note_off_c, 8, 52, 95
6, 108000, Note_off_c, 8, 45, 95
6, 108000, Note_on_c, 8, 69, 95
6, 108000, Note_on_c, 8, 64, 95
6, 108000, Note_on_c, 8, 60, 95
6, 108000, Note_on_c, 8, 57, 95
6, 108000, Note_on_c, 8, 52, 95
6, 108000, Note_on_c, 8, 45, 95
6, 108240, Note_off_c, 8, 69, 95
6, 108240, Note_off_c, 8, 64, 95
6, 108240, Note_off_c, 8, 60, 95
6, 108240, Note_off_c, 8, 57, 95
6, 108240, Note_off_c, 8, 52, 95
6, 108240, Note_off_c, 8, 45, 95
6, 108240, Note_on_c, 8, 69, 95
6, 108240, Note_on_c, 8, 64, 95
6, 108240, Note_on_c, 8, 60, 95
6, 108240, Note_on_c, 8, 57, 95
6, 108240, Note_on_c, 8, 52, 95
6, 108240, Note_on_c, 8, 45, 95
6, 108480, Note_off_c, 8, 69, 95
6, 108480, Note_off_c, 8, 64, 95
6, 108480, Note_off_c, 8, 60, 95
6, 108480, Note_off_c, 8, 57, 95
6, 108480, Note_off_c, 8, 52, 95
6, 108480, Note_off_c, 8, 45, 95
6, 108480, Note_on_c, 8, 69, 95
6, 108480, Note_on_c, 8, 64, 95
6, 108480, Note_on_c, 8, 60, 95
6, 108480, Note_on_c, 8, 57, 95
6, 108480, Note_on_c, 8, 52, 95
6, 108480, Note_on_c, 8, 45, 95
6, 108960, Note_off_c, 8, 69, 95
6, 108960, Note_off_c, 8, 64, 95
6, 108960, Note_off_c, 8, 60, 95
6, 108960, Note_off_c, 8, 57, 95
6, 108960, Note_off_c, 8, 52, 95
6, 108960, Note_off_c, 8, 45, 95
6, 108960, Note_on_c, 8, 69, 95
6, 108960, Note_on_c, 8, 64, 95
6, 108960, Note_on_c, 8, 60, 95
6, 108960, Note_on_c, 8, 57, 95
6, 108960, Note_on_c, 8, 52, 95
6, 108960, Note_on_c, 8, 45, 95
6, 109440, Note_off_c, 8, 69, 95
6, 109440, Note_off_c, 8, 64, 95
6, 109440, Note_off_c, 8, 60, 95
6, 109440, Note_off_c, 8, 57, 95
6, 109440, Note_off_c, 8, 52, 95
6, 109440, Note_off_c, 8, 45, 95
6, 109440, Note_on_c, 8, 67, 95
6, 109440, Note_on_c, 8, 62, 95
6, 109440, Note_on_c, 8, 59, 95
6, 109440, Note_on_c, 8, 55, 95
6, 109440, Note_on_c, 8, 50, 95
6, 109440, Note_on_c, 8, 43, 95
6, 109680, Note_off_c, 8, 67, 95
6, 109680, Note_off_c, 8, 62, 95
6, 109680, Note_off_c, 8, 59, 95
6, 109680, Note_off_c, 8, 55, 95
6, 109680, Note_off_c, 8, 50, 95
6, 109680, Note_off_c, 8, 43, 95
6, 109680, Note_on_c, 8, 67, 95
6, 109680, Note_on_c, 8, 62, 95
6, 109680, Note_on_c, 8, 59, 95
6, 109680, Note_on_c, 8, 55, 95
6, 109680, Note_on_c, 8, 50, 95
6, 109680, Note_on_c, 8, 43, 95
6, 109920, Note_off_c, 8, 67, 95
6, 109920, Note_off_c, 8, 62, 95
6, 109920, Note_off_c, 8, 59, 95
6, 109920, Note_off_c, 8, 55, 95
6, 109920, Note_off_c, 8, 50, 95
6, 109920, Note_off_c, 8, 43, 95
6, 109920, Note_on_c, 8, 67, 95
6, 109920, Note_on_c, 8, 62, 95
6, 109920, Note_on_c, 8, 59, 95
6, 109920, Note_on_c, 8, 55, 95
6, 109920, Note_on_c, 8, 50, 95
6, 109920, Note_on_c, 8, 43, 95
6, 110160, Note_off_c, 8, 67, 95
6, 110160, Note_off_c, 8, 62, 95
6, 110160, Note_off_c, 8, 59, 95
6, 110160, Note_off_c, 8, 55, 95
6, 110160, Note_off_c, 8, 50, 95
6, 110160, Note_off_c, 8, 43, 95
6, 110160, Note_on_c, 8, 67, 95
6, 110160, Note_on_c, 8, 62, 95
6, 110160, Note_on_c, 8, 59, 95
6, 110160, Note_on_c, 8, 55, 95
6, 110160, Note_on_c, 8, 50, 95
6, 110160, Note_on_c, 8, 43, 95
6, 110400, Note_off_c, 8, 67, 95
6, 110400, Note_off_c, 8, 62, 95
6, 110400, Note_off_c, 8, 59, 95
6, 110400, Note_off_c, 8, 55, 95
6, 110400, Note_off_c, 8, 50, 95
6, 110400, Note_off_c, 8, 43, 95
6, 110400, Note_on_c, 8, 67, 95
6, 110400, Note_on_c, 8, 62, 95
6, 110400, Note_on_c, 8, 59, 95
6, 110400, Note_on_c, 8, 55, 95
6, 110400, Note_on_c, 8, 50, 95
6, 110400, Note_on_c, 8, 43, 95
6, 110880, Note_off_c, 8, 67, 95
6, 110880, Note_off_c, 8, 62, 95
6, 110880, Note_off_c, 8, 59, 95
6, 110880, Note_off_c, 8, 55, 95
6, 110880, Note_off_c, 8, 50, 95
6, 110880, Note_off_c, 8, 43, 95
6, 110880, Note_on_c, 8, 67, 95
6, 110880, Note_on_c, 8, 62, 95
6, 110880, Note_on_c, 8, 59, 95
6, 110880, Note_on_c, 8, 55, 95
6, 110880, Note_on_c, 8, 50, 95
6, 110880, Note_on_c, 8, 43, 95
6, 111360, Note_off_c, 8, 67, 95
6, 111360, Note_off_c, 8, 62, 95
6, 111360, Note_off_c, 8, 59, 95
6, 111360, Note_off_c, 8, 55, 95
6, 111360, Note_off_c, 8, 50, 95
6, 111360, Note_off_c, 8, 43, 95
6, 111360, Note_on_c, 8, 65, 95
6, 111360, Note_on_c, 8, 60, 95
6, 111360, Note_on_c, 8, 57, 95
6, 111360, Note_on_c, 8, 53, 95
6, 111360, Note_on_c, 8, 48, 95
6, 111360, Note_on_c, 8, 41, 95
6, 111840, Note_off_c, 8, 65, 95
6, 111840, Note_off_c, 8, 60, 95
6, 111840, Note_off_c, 8, 57, 95
6, 111840, Note_off_c, 8, 53, 95
6, 111840, Note_off_c, 8, 48, 95
6, 111840, Note_off_c, 8, 41, 95
6, 111840, Note_on_c, 8, 64, 95
6, 111840, Note_on_c, 8, 59, 95
6, 111840, Note_on_c, 8, 57, 95
6, 111840, Note_on_c, 8, 53, 95
6, 111840, Note_on_c, 8, 48, 95
6, 111840, Note_on_c, 8, 40, 95
6, 112320, Note_off_c, 8, 64, 95
6, 112320, Note_off_c, 8, 59, 95
6, 112320, Note_off_c, 8, 57, 95
6, 112320, Note_off_c, 8, 53, 95
6, 112320, Note_off_c, 8, 48, 95
6, 112320, Note_off_c, 8, 40, 95
6, 112320, Note_on_c, 8, 65, 95
6, 112320, Note_on_c, 8, 60, 95
6, 112320, Note_on_c, 8, 57, 95
6, 112320, Note_on_c, 8, 53, 95
6, 112320, Note_on_c, 8, 48, 95
6, 112320, Note_on_c, 8, 41, 95
6, 112800, Note_off_c, 8, 65, 95
6, 112800, Note_off_c, 8, 60, 95
6, 112800, Note_off_c, 8, 57, 95
6, 112800, Note_off_c, 8, 53, 95
6, 112800, Note_off_c, 8, 48, 95
6, 112800, Note_off_c, 8, 41, 95
6, 112800, Note_on_c, 8, 64, 95
6, 112800, Note_on_c, 8, 59, 95
6, 112800, Note_on_c, 8, 57, 95
6, 112800, Note_on_c, 8, 53, 95
6, 112800, Note_on_c, 8, 48, 95
6, 112800, Note_on_c, 8, 40, 95
6, 113280, Note_off_c, 8, 64, 95
6, 113280, Note_off_c, 8, 59, 95
6, 113280, Note_off_c, 8, 57, 95
6, 113280, Note_off_c, 8, 53, 95
6, 113280, Note_off_c, 8, 48, 95
6, 113280, Note_off_c, 8, 40, 95
6, 113280, Note_on_c, 8, 65, 95
6, 113280, Note_on_c, 8, 60, 95
6, 113280, Note_on_c, 8, 57, 95
6, 113280, Note_on_c, 8, 53, 95
6, 113280, Note_on_c, 8, 48, 95
6, 113280, Note_on_c, 8, 41, 95
6, 113760, Note_off_c, 8, 65, 95
6, 113760, Note_off_c, 8, 60, 95
6, 113760, Note_off_c, 8, 57, 95
6, 113760, Note_off_c, 8, 53, 95
6, 113760, Note_off_c, 8, 48, 95
6, 113760, Note_off_c, 8, 41, 95
6, 113760, Note_on_c, 8, 64, 95
6, 113760, Note_on_c, 8, 59, 95
6, 113760, Note_on_c, 8, 57, 95
6, 113760, Note_on_c, 8, 53, 95
6, 113760, Note_on_c, 8, 48, 95
6, 113760, Note_on_c, 8, 40, 95
6, 114240, Note_off_c, 8, 64, 95
6, 114240, Note_off_c, 8, 59, 95
6, 114240, Note_off_c, 8, 57, 95
6, 114240, Note_off_c, 8, 53, 95
6, 114240, Note_off_c, 8, 48, 95
6, 114240, Note_off_c, 8, 40, 95
6, 114240, Note_on_c, 8, 65, 95
6, 114240, Note_on_c, 8, 60, 95
6, 114240, Note_on_c, 8, 57, 95
6, 114240, Note_on_c, 8, 53, 95
6, 114240, Note_on_c, 8, 48, 95
6, 114240, Note_on_c, 8, 41, 95
6, 114720, Note_off_c, 8, 65, 95
6, 114720, Note_off_c, 8, 60, 95
6, 114720, Note_off_c, 8, 57, 95
6, 114720, Note_off_c, 8, 53, 95
6, 114720, Note_off_c, 8, 48, 95
6, 114720, Note_off_c, 8, 41, 95
6, 114720, Note_on_c, 8, 67, 95
6, 114720, Note_on_c, 8, 62, 95
6, 114720, Note_on_c, 8, 59, 95
6, 114720, Note_on_c, 8, 55, 95
6, 114720, Note_on_c, 8, 50, 95
6, 114720, Note_on_c, 8, 43, 95
6, 115200, Note_off_c, 8, 67, 95
6, 115200, Note_off_c, 8, 62, 95
6, 115200, Note_off_c, 8, 59, 95
6, 115200, Note_off_c, 8, 55, 95
6, 115200, Note_off_c, 8, 50, 95
6, 115200, Note_off_c, 8, 43, 95
6, 115200, Note_on_c, 8, 66, 95
6, 115200, Note_on_c, 8, 62, 95
6, 115200, Note_on_c, 8, 57, 95
6, 115200, Note_on_c, 8, 50, 95
6, 115680, Note_off_c, 8, 66, 95
6, 115680, Note_off_c, 8, 62, 95
6, 115680, Note_off_c, 8, 57, 95
6, 115680, Note_off_c, 8, 50, 95
6, 115680, Note_on_c, 8, 66, 95
6, 115680, Note_on_c, 8, 62, 95
6, 115680, Note_on_c, 8, 57, 95
6, 115680, Note_on_c, 8, 50, 95
6, 116160, Note_off_c, 8, 66, 95
6, 116160, Note_off_c, 8, 62, 95
6, 116160, Note_off_c, 8, 57, 95
6, 116160, Note_off_c, 8, 50, 95
6, 116160, Note_on_c, 8, 66, 95
6, 116160, Note_on_c, 8, 62, 95
6, 116160, Note_on_c, 8, 57, 95
6, 116160, Note_on_c, 8, 50, 95
6, 116640, Note_off_c, 8, 66, 95
6, 116640, Note_off_c, 8, 62, 95
6, 116640, Note_off_c, 8, 57, 95
6, 116640, Note_off_c, 8, 50, 95
6, 116640, Note_on_c, 8, 66, 95
6, 116640, Note_on_c, 8, 62, 95
6, 116640, Note_on_c, 8, 57, 95
6, 116640, Note_on_c, 8, 50, 95
6, 116880, Note_off_c, 8, 66, 95
6, 116880, Note_off_c, 8, 62, 95
6, 116880, Note_off_c, 8, 57, 95
6, 116880, Note_off_c, 8, 50, 95
6, 116880, Note_on_c, 8, 66, 95
6, 116880, Note_on_c, 8, 62, 95
6, 116880, Note_on_c, 8, 57, 95
6, 116880, Note_on_c, 8, 50, 95
6, 117120, Note_off_c, 8, 66, 95
6, 117120, Note_off_c, 8, 62, 95
6, 117120, Note_off_c, 8, 57, 95
6, 117120, Note_off_c, 8, 50, 95
6, 117120, Note_on_c, 8, 66, 95
6, 117120, Note_on_c, 8, 62, 95
6, 117120, Note_on_c, 8, 57, 95
6, 117120, Note_on_c, 8, 50, 95
6, 117600, Note_off_c, 8, 66, 95
6, 117600, Note_off_c, 8, 62, 95
6, 117600, Note_off_c, 8, 57, 95
6, 117600, Note_off_c, 8, 50, 95
6, 117600, Note_on_c, 8, 66, 95
6, 117600, Note_on_c, 8, 62, 95
6, 117600, Note_on_c, 8, 57, 95
6, 117600, Note_on_c, 8, 50, 95
6, 118080, Note_off_c, 8, 66, 95
6, 118080, Note_off_c, 8, 62, 95
6, 118080, Note_off_c, 8, 57, 95
6, 118080, Note_off_c, 8, 50, 95
6, 118080, Note_on_c, 8, 66, 95
6, 118080, Note_on_c, 8, 62, 95
6, 118080, Note_on_c, 8, 57, 95
6, 118080, Note_on_c, 8, 50, 95
6, 118560, Note_off_c, 8, 66, 95
6, 118560, Note_off_c, 8, 62, 95
6, 118560, Note_off_c, 8, 57, 95
6, 118560, Note_off_c, 8, 50, 95
6, 118560, Note_on_c, 8, 66, 95
6, 118560, Note_on_c, 8, 62, 95
6, 118560, Note_on_c, 8, 57, 95
6, 118560, Note_on_c, 8, 50, 95
6, 118800, Note_off_c, 8, 66, 95
6, 118800, Note_off_c, 8, 62, 95
6, 118800, Note_off_c, 8, 57, 95
6, 118800, Note_off_c, 8, 50, 95
6, 118800, Note_on_c, 8, 66, 95
6, 118800, Note_on_c, 8, 62, 95
6, 118800, Note_on_c, 8, 57, 95
6, 118800, Note_on_c, 8, 50, 95
6, 119040, Note_off_c, 8, 66, 95
6, 119040, Note_off_c, 8, 62, 95
6, 119040, Note_off_c, 8, 57, 95
6, 119040, Note_off_c, 8, 50, 95
6, 119040, Note_on_c, 8, 64, 95
6, 119040, Note_on_c, 8, 59, 95
6, 119040, Note_on_c, 8, 56, 95
6, 119040, Note_on_c, 8, 52, 95
6, 119040, Note_on_c, 8, 47, 95
6, 119040, Note_on_c, 8, 40, 95
6, 119520, Note_off_c, 8, 64, 95
6, 119520, Note_off_c, 8, 59, 95
6, 119520, Note_off_c, 8, 56, 95
6, 119520, Note_off_c, 8, 52, 95
6, 119520, Note_off_c, 8, 47, 95
6, 119520, Note_off_c, 8, 40, 95
6, 119520, Note_on_c, 8, 64, 95
6, 119520, Note_on_c, 8, 59, 95
6, 119520, Note_on_c, 8, 56, 95
6, 119520, Note_on_c, 8, 52, 95
6, 119520, Note_on_c, 8, 47, 95
6, 119520, Note_on_c, 8, 40, 95
6, 120000, Note_off_c, 8, 64, 95
6, 120000, Note_off_c, 8, 59, 95
6, 120000, Note_off_c, 8, 56, 95
6, 120000, Note_off_c, 8, 52, 95
6, 120000, Note_off_c, 8, 47, 95
6, 120000, Note_off_c, 8, 40, 95
6, 120000, Note_on_c, 8, 64, 95
6, 120000, Note_on_c, 8, 59, 95
6, 120000, Note_on_c, 8, 56, 95
6, 120000, Note_on_c, 8, 52, 95
6, 120000, Note_on_c, 8, 47, 95
6, 120000, Note_on_c, 8, 40, 95
6, 120480, Note_off_c, 8, 64, 95
6, 120480, Note_off_c, 8, 59, 95
6, 120480, Note_off_c, 8, 56, 95
6, 120480, Note_off_c, 8, 52, 95
6, 120480, Note_off_c, 8, 47, 95
6, 120480, Note_off_c, 8, 40, 95
6, 120480, Note_on_c, 8, 64, 95
6, 120480, Note_on_c, 8, 59, 95
6, 120480, Note_on_c, 8, 56, 95
6, 120480, Note_on_c, 8, 52, 95
6, 120480, Note_on_c, 8, 47, 95
6, 120480, Note_on_c, 8, 40, 95
6, 120720, Note_off_c, 8, 64, 95
6, 120720, Note_off_c, 8, 59, 95
6, 120720, Note_off_c, 8, 56, 95
6, 120720, Note_off_c, 8, 52, 95
6, 120720, Note_off_c, 8, 47, 95
6, 120720, Note_off_c, 8, 40, 95
6, 120720, Note_on_c, 8, 64, 95
6, 120720, Note_on_c, 8, 59, 95
6, 120720, Note_on_c, 8, 56, 95
6, 120720, Note_on_c, 8, 52, 95
6, 120720, Note_on_c, 8, 47, 95
6, 120720, Note_on_c, 8, 40, 95
6, 120960, Note_off_c, 8, 64, 95
6, 120960, Note_off_c, 8, 59, 95
6, 120960, Note_off_c, 8, 56, 95
6, 120960, Note_off_c, 8, 52, 95
6, 120960, Note_off_c, 8, 47, 95
6, 120960, Note_off_c, 8, 40, 95
6, 120960, Note_on_c, 8, 64, 95
6, 120960, Note_on_c, 8, 59, 95
6, 120960, Note_on_c, 8, 56, 95
6, 120960, Note_on_c, 8, 52, 95
6, 120960, Note_on_c, 8, 47, 95
6, 120960, Note_on_c, 8, 40, 95
6, 121200, Note_off_c, 8, 64, 95
6, 121200, Note_off_c, 8, 59, 95
6, 121200, Note_off_c, 8, 56, 95
6, 121200, Note_off_c, 8, 52, 95
6, 121200, Note_off_c, 8, 47, 95
6, 121200, Note_off_c, 8, 40, 95
6, 121200, Note_on_c, 8, 64, 95
6, 121200, Note_on_c, 8, 59, 95
6, 121200, Note_on_c, 8, 56, 95
6, 121200, Note_on_c, 8, 52, 95
6, 121200, Note_on_c, 8, 47, 95
6, 121200, Note_on_c, 8, 40, 95
6, 121440, Note_off_c, 8, 64, 95
6, 121440, Note_off_c, 8, 59, 95
6, 121440, Note_off_c, 8, 56, 95
6, 121440, Note_off_c, 8, 52, 95
6, 121440, Note_off_c, 8, 47, 95
6, 121440, Note_off_c, 8, 40, 95
6, 121440, Note_on_c, 8, 64, 95
6, 121440, Note_on_c, 8, 59, 95
6, 121440, Note_on_c, 8, 56, 95
6, 121440, Note_on_c, 8, 52, 95
6, 121440, Note_on_c, 8, 47, 95
6, 121440, Note_on_c, 8, 40, 95
6, 121920, Note_off_c, 8, 64, 95
6, 121920, Note_off_c, 8, 59, 95
6, 121920, Note_off_c, 8, 56, 95
6, 121920, Note_off_c, 8, 52, 95
6, 121920, Note_off_c, 8, 47, 95
6, 121920, Note_off_c, 8, 40, 95
6, 121920, Note_on_c, 8, 64, 95
6, 121920, Note_on_c, 8, 59, 95
6, 121920, Note_on_c, 8, 56, 95
6, 121920, Note_on_c, 8, 52, 95
6, 121920, Note_on_c, 8, 47, 95
6, 121920, Note_on_c, 8, 40, 95
6, 122400, Note_off_c, 8, 64, 95
6, 122400, Note_off_c, 8, 59, 95
6, 122400, Note_off_c, 8, 56, 95
6, 122400, Note_off_c, 8, 52, 95
6, 122400, Note_off_c, 8, 47, 95
6, 122400, Note_off_c, 8, 40, 95
6, 122400, Note_on_c, 8, 64, 95
6, 122400, Note_on_c, 8, 59, 95
6, 122400, Note_on_c, 8, 56, 95
6, 122400, Note_on_c, 8, 52, 95
6, 122400, Note_on_c, 8, 47, 95
6, 122400, Note_on_c, 8, 40, 95
6, 122640, Note_off_c, 8, 64, 95
6, 122640, Note_off_c, 8, 59, 95
6, 122640, Note_off_c, 8, 56, 95
6, 122640, Note_off_c, 8, 52, 95
6, 122640, Note_off_c, 8, 47, 95
6, 122640, Note_off_c, 8, 40, 95
6, 122640, Note_on_c, 8, 64, 95
6, 122640, Note_on_c, 8, 59, 95
6, 122640, Note_on_c, 8, 56, 95
6, 122640, Note_on_c, 8, 52, 95
6, 122640, Note_on_c, 8, 47, 95
6, 122640, Note_on_c, 8, 40, 95
6, 122880, Note_off_c, 8, 64, 95
6, 122880, Note_off_c, 8, 59, 95
6, 122880, Note_off_c, 8, 56, 95
6, 122880, Note_off_c, 8, 52, 95
6, 122880, Note_off_c, 8, 47, 95
6, 122880, Note_off_c, 8, 40, 95
6, 122880, Note_on_c, 8, 67, 95
6, 122880, Note_on_c, 8, 59, 95
6, 122880, Note_on_c, 8, 55, 95
6, 122880, Note_on_c, 8, 50, 95
6, 122880, Note_on_c, 8, 47, 95
6, 122880, Note_on_c, 8, 43, 95
6, 123840, Note_off_c, 8, 67, 95
6, 123840, Note_off_c, 8, 59, 95
6, 123840, Note_off_c, 8, 55, 95
6, 123840, Note_off_c, 8, 50, 95
6, 123840, Note_off_c, 8, 47, 95
6, 123840, Note_off_c, 8, 43, 95
6, 123840, Note_on_c, 8, 64, 95
6, 123840, Note_on_c, 8, 59, 95
6, 123840, Note_on_c, 8, 55, 95
6, 123840, Note_on_c, 8, 50, 95
6, 123840, Note_on_c, 8, 45, 95
6, 123840, Note_on_c, 8, 40, 95
6, 123880, Note_off_c, 8, 64, 95
6, 123880, Note_off_c, 8, 59, 95
6, 123880, Note_off_c, 8, 55, 95
6, 123880, Note_off_c, 8, 50, 95
6, 123880, Note_off_c, 8, 45, 95
6, 123880, Note_off_c, 8, 40, 95
6, 124800, Note_on_c, 8, 66, 95
6, 124800, Note_on_c, 8, 62, 95
6, 124800, Note_on_c, 8, 57, 95
6, 124800, Note_on_c, 8, 50, 95
6, 125280, Note_off_c, 8, 66, 95
6, 125280, Note_off_c, 8, 62, 95
6, 125280, Note_off_c, 8, 57, 95
6, 125280, Note_off_c, 8, 50, 95
6, 125280, Note_on_c, 8, 66, 95
6, 125280, Note_on_c, 8, 62, 95
6, 125280, Note_on_c, 8, 57, 95
6, 125280, Note_on_c, 8, 50, 95
6, 125520, Note_off_c, 8, 66, 95
6, 125520, Note_off_c, 8, 62, 95
6, 125520, Note_off_c, 8, 57, 95
6, 125520, Note_off_c, 8, 50, 95
6, 125520, Note_on_c, 8, 66, 95
6, 125520, Note_on_c, 8, 62, 95
6, 125520, Note_on_c, 8, 57, 95
6, 125520, Note_on_c, 8, 50, 95
6, 125760, Note_off_c, 8, 66, 95
6, 125760, Note_off_c, 8, 62, 95
6, 125760, Note_off_c, 8, 57, 95
6, 125760, Note_off_c, 8, 50, 95
6, 125760, Note_on_c, 8, 66, 95
6, 125760, Note_on_c, 8, 62, 95
6, 125760, Note_on_c, 8, 57, 95
6, 125760, Note_on_c, 8, 50, 95
6, 126240, Note_off_c, 8, 66, 95
6, 126240, Note_off_c, 8, 62, 95
6, 126240, Note_off_c, 8, 57, 95
6, 126240, Note_off_c, 8, 50, 95
6, 126240, Note_on_c, 8, 66, 95
6, 126240, Note_on_c, 8, 62, 95
6, 126240, Note_on_c, 8, 57, 95
6, 126240, Note_on_c, 8, 50, 95
6, 126480, Note_off_c, 8, 66, 95
6, 126480, Note_off_c, 8, 62, 95
6, 126480, Note_off_c, 8, 57, 95
6, 126480, Note_off_c, 8, 50, 95
6, 126480, Note_on_c, 8, 66, 95
6, 126480, Note_on_c, 8, 62, 95
6, 126480, Note_on_c, 8, 57, 95
6, 126480, Note_on_c, 8, 50, 95
6, 126720, Note_off_c, 8, 66, 95
6, 126720, Note_off_c, 8, 62, 95
6, 126720, Note_off_c, 8, 57, 95
6, 126720, Note_off_c, 8, 50, 95
6, 126720, Note_on_c, 8, 64, 95
6, 126720, Note_on_c, 8, 62, 95
6, 126720, Note_on_c, 8, 55, 95
6, 126720, Note_on_c, 8, 52, 95
6, 126720, Note_on_c, 8, 48, 95
6, 126960, Note_off_c, 8, 64, 95
6, 126960, Note_off_c, 8, 62, 95
6, 126960, Note_off_c, 8, 55, 95
6, 126960, Note_off_c, 8, 52, 95
6, 126960, Note_off_c, 8, 48, 95
6, 126960, Note_on_c, 8, 64, 95
6, 126960, Note_on_c, 8, 62, 95
6, 126960, Note_on_c, 8, 55, 95
6, 126960, Note_on_c, 8, 52, 95
6, 126960, Note_on_c, 8, 48, 95
6, 127200, Note_off_c, 8, 64, 95
6, 127200, Note_off_c, 8, 62, 95
6, 127200, Note_off_c, 8, 55, 95
6, 127200, Note_off_c, 8, 52, 95
6, 127200, Note_off_c, 8, 48, 95
6, 127200, Note_on_c, 8, 64, 95
6, 127200, Note_on_c, 8, 62, 95
6, 127200, Note_on_c, 8, 55, 95
6, 127200, Note_on_c, 8, 52, 95
6, 127200, Note_on_c, 8, 48, 95
6, 127440, Note_off_c, 8, 64, 95
6, 127440, Note_off_c, 8, 62, 95
6, 127440, Note_off_c, 8, 55, 95
6, 127440, Note_off_c, 8, 52, 95
6, 127440, Note_off_c, 8, 48, 95
6, 127440, Note_on_c, 8, 64, 95
6, 127440, Note_on_c, 8, 62, 95
6, 127440, Note_on_c, 8, 55, 95
6, 127440, Note_on_c, 8, 52, 95
6, 127440, Note_on_c, 8, 48, 95
6, 127680, Note_off_c, 8, 64, 95
6, 127680, Note_off_c, 8, 62, 95
6, 127680, Note_off_c, 8, 55, 95
6, 127680, Note_off_c, 8, 52, 95
6, 127680, Note_off_c, 8, 48, 95
6, 127680, Note_on_c, 8, 64, 95
6, 127680, Note_on_c, 8, 62, 95
6, 127680, Note_on_c, 8, 55, 95
6, 127680, Note_on_c, 8, 52, 95
6, 127680, Note_on_c, 8, 48, 95
6, 128160, Note_off_c, 8, 64, 95
6, 128160, Note_off_c, 8, 62, 95
6, 128160, Note_off_c, 8, 55, 95
6, 128160, Note_off_c, 8, 52, 95
6, 128160, Note_off_c, 8, 48, 95
6, 128160, Note_on_c, 8, 62, 95
6, 128160, Note_on_c, 8, 55, 95
6, 128160, Note_on_c, 8, 50, 95
6, 128160, Note_on_c, 8, 47, 95
6, 128400, Note_off_c, 8, 62, 95
6, 128400, Note_off_c, 8, 55, 95
6, 128400, Note_off_c, 8, 50, 95
6, 128400, Note_off_c, 8, 47, 95
6, 128400, Note_on_c, 8, 62, 95
6, 128400, Note_on_c, 8, 55, 95
6, 128400, Note_on_c, 8, 50, 95
6, 128400, Note_on_c, 8, 47, 95
6, 128640, Note_off_c, 8, 62, 95
6, 128640, Note_off_c, 8, 55, 95
6, 128640, Note_off_c, 8, 50, 95
6, 128640, Note_off_c, 8, 47, 95
6, 128640, Note_on_c, 8, 62, 95
6, 128640, Note_on_c, 8, 55, 95
6, 128640, Note_on_c, 8, 50, 95
6, 128640, Note_on_c, 8, 47, 95
6, 128880, Note_off_c, 8, 62, 95
6, 128880, Note_off_c, 8, 55, 95
6, 128880, Note_off_c, 8, 50, 95
6, 128880, Note_off_c, 8, 47, 95
6, 128880, Note_on_c, 8, 62, 95
6, 128880, Note_on_c, 8, 55, 95
6, 128880, Note_on_c, 8, 50, 95
6, 128880, Note_on_c, 8, 47, 95
6, 129120, Note_off_c, 8, 62, 95
6, 129120, Note_off_c, 8, 55, 95
6, 129120, Note_off_c, 8, 50, 95
6, 129120, Note_off_c, 8, 47, 95
6, 129120, Note_on_c, 8, 62, 95
6, 129120, Note_on_c, 8, 55, 95
6, 129120, Note_on_c, 8, 50, 95
6, 129120, Note_on_c, 8, 47, 95
6, 129600, Note_off_c, 8, 62, 95
6, 129600, Note_off_c, 8, 55, 95
6, 129600, Note_off_c, 8, 50, 95
6, 129600, Note_off_c, 8, 47, 95
6, 129600, Note_on_c, 8, 64, 95
6, 129600, Note_on_c, 8, 60, 95
6, 129600, Note_on_c, 8, 57, 95
6, 129600, Note_on_c, 8, 52, 95
6, 129600, Note_on_c, 8, 45, 95
6, 130080, Note_off_c, 8, 64, 95
6, 130080, Note_off_c, 8, 60, 95
6, 130080, Note_off_c, 8, 57, 95
6, 130080, Note_off_c, 8, 52, 95
6, 130080, Note_off_c, 8, 45, 95
6, 130080, Note_on_c, 8, 64, 95
6, 130080, Note_on_c, 8, 60, 95
6, 130080, Note_on_c, 8, 55, 95
6, 130080, Note_on_c, 8, 52, 95
6, 130080, Note_on_c, 8, 45, 95
6, 130320, Note_off_c, 8, 64, 95
6, 130320, Note_off_c, 8, 60, 95
6, 130320, Note_off_c, 8, 55, 95
6, 130320, Note_off_c, 8, 52, 95
6, 130320, Note_off_c, 8, 45, 95
6, 130320, Note_on_c, 8, 64, 95
6, 130320, Note_on_c, 8, 60, 95
6, 130320, Note_on_c, 8, 55, 95
6, 130320, Note_on_c, 8, 52, 95
6, 130320, Note_on_c, 8, 45, 95
6, 130560, Note_off_c, 8, 64, 95
6, 130560, Note_off_c, 8, 60, 95
6, 130560, Note_off_c, 8, 55, 95
6, 130560, Note_off_c, 8, 52, 95
6, 130560, Note_off_c, 8, 45, 95
6, 130560, Note_on_c, 8, 67, 95
6, 130560, Note_on_c, 8, 59, 95
6, 130560, Note_on_c, 8, 55, 95
6, 130560, Note_on_c, 8, 50, 95
6, 130560, Note_on_c, 8, 47, 95
6, 130560, Note_on_c, 8, 43, 95
6, 131520, Note_off_c, 8, 67, 95
6, 131520, Note_off_c, 8, 59, 95
6, 131520, Note_off_c, 8, 55, 95
6, 131520, Note_off_c, 8, 50, 95
6, 131520, Note_off_c, 8, 47, 95
6, 131520, Note_off_c, 8, 43, 95
6, 131520, Note_on_c, 8, 64, 95
6, 131520, Note_on_c, 8, 59, 95
6, 131520, Note_on_c, 8, 55, 95
6, 131520, Note_on_c, 8, 50, 95
6, 131520, Note_on_c, 8, 45, 95
6, 131520, Note_on_c, 8, 40, 95
6, 131560, Note_off_c, 8, 64, 95
6, 131560, Note_off_c, 8, 59, 95
6, 131560, Note_off_c, 8, 55, 95
6, 131560, Note_off_c, 8, 50, 95
6, 131560, Note_off_c, 8, 45, 95
6, 131560, Note_off_c, 8, 40, 95
6, 132480, Note_on_c, 8, 66, 95
6, 132480, Note_on_c, 8, 62, 95
6, 132480, Note_on_c, 8, 57, 95
6, 132480, Note_on_c, 8, 50, 95
6, 132960, Note_off_c, 8, 66, 95
6, 132960, Note_off_c, 8, 62, 95
6, 132960, Note_off_c, 8, 57, 95
6, 132960, Note_off_c, 8, 50, 95
6, 132960, Note_on_c, 8, 66, 95
6, 132960, Note_on_c, 8, 62, 95
6, 132960, Note_on_c, 8, 57, 95
6, 132960, Note_on_c, 8, 50, 95
6, 133200, Note_off_c, 8, 66, 95
6, 133200, Note_off_c, 8, 62, 95
6, 133200, Note_off_c, 8, 57, 95
6, 133200, Note_off_c, 8, 50, 95
6, 133200, Note_on_c, 8, 66, 95
6, 133200, Note_on_c, 8, 62, 95
6, 133200, Note_on_c, 8, 57, 95
6, 133200, Note_on_c, 8, 50, 95
6, 133440, Note_off_c, 8, 66, 95
6, 133440, Note_off_c, 8, 62, 95
6, 133440, Note_off_c, 8, 57, 95
6, 133440, Note_off_c, 8, 50, 95
6, 133440, Note_on_c, 8, 66, 95
6, 133440, Note_on_c, 8, 62, 95
6, 133440, Note_on_c, 8, 57, 95
6, 133440, Note_on_c, 8, 50, 95
6, 133920, Note_off_c, 8, 66, 95
6, 133920, Note_off_c, 8, 62, 95
6, 133920, Note_off_c, 8, 57, 95
6, 133920, Note_off_c, 8, 50, 95
6, 133920, Note_on_c, 8, 66, 95
6, 133920, Note_on_c, 8, 62, 95
6, 133920, Note_on_c, 8, 57, 95
6, 133920, Note_on_c, 8, 50, 95
6, 134160, Note_off_c, 8, 66, 95
6, 134160, Note_off_c, 8, 62, 95
6, 134160, Note_off_c, 8, 57, 95
6, 134160, Note_off_c, 8, 50, 95
6, 134160, Note_on_c, 8, 66, 95
6, 134160, Note_on_c, 8, 62, 95
6, 134160, Note_on_c, 8, 57, 95
6, 134160, Note_on_c, 8, 50, 95
6, 134400, Note_off_c, 8, 66, 95
6, 134400, Note_off_c, 8, 62, 95
6, 134400, Note_off_c, 8, 57, 95
6, 134400, Note_off_c, 8, 50, 95
6, 134400, Note_on_c, 8, 64, 95
6, 134400, Note_on_c, 8, 62, 95
6, 134400, Note_on_c, 8, 55, 95
6, 134400, Note_on_c, 8, 52, 95
6, 134400, Note_on_c, 8, 48, 95
6, 134880, Note_off_c, 8, 64, 95
6, 134880, Note_off_c, 8, 62, 95
6, 134880, Note_off_c, 8, 55, 95
6, 134880, Note_off_c, 8, 52, 95
6, 134880, Note_off_c, 8, 48, 95
6, 134880, Note_on_c, 8, 64, 95
6, 134880, Note_on_c, 8, 62, 95
6, 134880, Note_on_c, 8, 55, 95
6, 134880, Note_on_c, 8, 52, 95
6, 134880, Note_on_c, 8, 48, 95
6, 135120, Note_off_c, 8, 64, 95
6, 135120, Note_off_c, 8, 62, 95
6, 135120, Note_off_c, 8, 55, 95
6, 135120, Note_off_c, 8, 52, 95
6, 135120, Note_off_c, 8, 48, 95
6, 135120, Note_on_c, 8, 64, 95
6, 135120, Note_on_c, 8, 62, 95
6, 135120, Note_on_c, 8, 55, 95
6, 135120, Note_on_c, 8, 52, 95
6, 135120, Note_on_c, 8, 48, 95
6, 135360, Note_off_c, 8, 64, 95
6, 135360, Note_off_c, 8, 62, 95
6, 135360, Note_off_c, 8, 55, 95
6, 135360, Note_off_c, 8, 52, 95
6, 135360, Note_off_c, 8, 48, 95
6, 135360, Note_on_c, 8, 64, 95
6, 135360, Note_on_c, 8, 62, 95
6, 135360, Note_on_c, 8, 55, 95
6, 135360, Note_on_c, 8, 52, 95
6, 135360, Note_on_c, 8, 48, 95
6, 135840, Note_off_c, 8, 64, 95
6, 135840, Note_off_c, 8, 62, 95
6, 135840, Note_off_c, 8, 55, 95
6, 135840, Note_off_c, 8, 52, 95
6, 135840, Note_off_c, 8, 48, 95
6, 135840, Note_on_c, 8, 62, 95
6, 135840, Note_on_c, 8, 55, 95
6, 135840, Note_on_c, 8, 50, 95
6, 135840, Note_on_c, 8, 47, 95
6, 136080, Note_off_c, 8, 62, 95
6, 136080, Note_off_c, 8, 55, 95
6, 136080, Note_off_c, 8, 50, 95
6, 136080, Note_off_c, 8, 47, 95
6, 136080, Note_on_c, 8, 62, 95
6, 136080, Note_on_c, 8, 55, 95
6, 136080, Note_on_c, 8, 50, 95
6, 136080, Note_on_c, 8, 47, 95
6, 136320, Note_off_c, 8, 62, 95
6, 136320, Note_off_c, 8, 55, 95
6, 136320, Note_off_c, 8, 50, 95
6, 136320, Note_off_c, 8, 47, 95
6, 136320, Note_on_c, 8, 62, 95
6, 136320, Note_on_c, 8, 55, 95
6, 136320, Note_on_c, 8, 50, 95
6, 136320, Note_on_c, 8, 47, 95
6, 136560, Note_off_c, 8, 62, 95
6, 136560, Note_off_c, 8, 55, 95
6, 136560, Note_off_c, 8, 50, 95
6, 136560, Note_off_c, 8, 47, 95
6, 136560, Note_on_c, 8, 62, 95
6, 136560, Note_on_c, 8, 55, 95
6, 136560, Note_on_c, 8, 50, 95
6, 136560, Note_on_c, 8, 47, 95
6, 136800, Note_off_c, 8, 62, 95
6, 136800, Note_off_c, 8, 55, 95
6, 136800, Note_off_c, 8, 50, 95
6, 136800, Note_off_c, 8, 47, 95
6, 136800, Note_on_c, 8, 62, 95
6, 136800, Note_on_c, 8, 55, 95
6, 136800, Note_on_c, 8, 50, 95
6, 136800, Note_on_c, 8, 47, 95
6, 137280, Note_off_c, 8, 62, 95
6, 137280, Note_off_c, 8, 55, 95
6, 137280, Note_off_c, 8, 50, 95
6, 137280, Note_off_c, 8, 47, 95
6, 137280, Note_on_c, 8, 64, 95
6, 137280, Note_on_c, 8, 60, 95
6, 137280, Note_on_c, 8, 57, 95
6, 137280, Note_on_c, 8, 52, 95
6, 137280, Note_on_c, 8, 45, 95
6, 137760, Note_off_c, 8, 64, 95
6, 137760, Note_off_c, 8, 60, 95
6, 137760, Note_off_c, 8, 57, 95
6, 137760, Note_off_c, 8, 52, 95
6, 137760, Note_off_c, 8, 45, 95
6, 137760, Note_on_c, 8, 64, 95
6, 137760, Note_on_c, 8, 60, 95
6, 137760, Note_on_c, 8, 55, 95
6, 137760, Note_on_c, 8, 52, 95
6, 137760, Note_on_c, 8, 45, 95
6, 138000, Note_off_c, 8, 64, 95
6, 138000, Note_off_c, 8, 60, 95
6, 138000, Note_off_c, 8, 55, 95
6, 138000, Note_off_c, 8, 52, 95
6, 138000, Note_off_c, 8, 45, 95
6, 138000, Note_on_c, 8, 64, 95
6, 138000, Note_on_c, 8, 60, 95
6, 138000, Note_on_c, 8, 55, 95
6, 138000, Note_on_c, 8, 52, 95
6, 138000, Note_on_c, 8, 45, 95
6, 138240, Note_off_c, 8, 64, 95
6, 138240, Note_off_c, 8, 60, 95
6, 138240, Note_off_c, 8, 55, 95
6, 138240, Note_off_c, 8, 52, 95
6, 138240, Note_off_c, 8, 45, 95
6, 138240, Note_on_c, 8, 67, 95
6, 138240, Note_on_c, 8, 59, 95
6, 138240, Note_on_c, 8, 55, 95
6, 138240, Note_on_c, 8, 50, 95
6, 138240, Note_on_c, 8, 47, 95
6, 138240, Note_on_c, 8, 43, 95
6, 138720, Note_off_c, 8, 67, 95
6, 138720, Note_off_c, 8, 59, 95
6, 138720, Note_off_c, 8, 55, 95
6, 138720, Note_off_c, 8, 50, 95
6, 138720, Note_off_c, 8, 47, 95
6, 138720, Note_off_c, 8, 43, 95
6, 138720, Note_on_c, 8, 67, 95
6, 138720, Note_on_c, 8, 59, 95
6, 138720, Note_on_c, 8, 55, 95
6, 138720, Note_on_c, 8, 50, 95
6, 138720, Note_on_c, 8, 47, 95
6, 138720, Note_on_c, 8, 43, 95
6, 138960, Note_off_c, 8, 67, 95
6, 138960, Note_off_c, 8, 59, 95
6, 138960, Note_off_c, 8, 55, 95
6, 138960, Note_off_c, 8, 50, 95
6, 138960, Note_off_c, 8, 47, 95
6, 138960, Note_off_c, 8, 43, 95
6, 138960, Note_on_c, 8, 67, 95
6, 138960, Note_on_c, 8, 59, 95
6, 138960, Note_on_c, 8, 55, 95
6, 138960, Note_on_c, 8, 50, 95
6, 138960, Note_on_c, 8, 47, 95
6, 138960, Note_on_c, 8, 43, 95
6, 139200, Note_off_c, 8, 67, 95
6, 139200, Note_off_c, 8, 59, 95
6, 139200, Note_off_c, 8, 55, 95
6, 139200, Note_off_c, 8, 50, 95
6, 139200, Note_off_c, 8, 47, 95
6, 139200, Note_off_c, 8, 43, 95
6, 139200, Note_on_c, 8, 67, 95
6, 139200, Note_on_c, 8, 59, 95
6, 139200, Note_on_c, 8, 55, 95
6, 139200, Note_on_c, 8, 50, 95
6, 139200, Note_on_c, 8, 47, 95
6, 139200, Note_on_c, 8, 43, 95
6, 139680, Note_off_c, 8, 67, 95
6, 139680, Note_off_c, 8, 59, 95
6, 139680, Note_off_c, 8, 55, 95
6, 139680, Note_off_c, 8, 50, 95
6, 139680, Note_off_c, 8, 47, 95
6, 139680, Note_off_c, 8, 43, 95
6, 139680, Note_on_c, 8, 67, 95
6, 139680, Note_on_c, 8, 59, 95
6, 139680, Note_on_c, 8, 55, 95
6, 139680, Note_on_c, 8, 50, 95
6, 139680, Note_on_c, 8, 47, 95
6, 139680, Note_on_c, 8, 43, 95
6, 139920, Note_off_c, 8, 67, 95
6, 139920, Note_off_c, 8, 59, 95
6, 139920, Note_off_c, 8, 55, 95
6, 139920, Note_off_c, 8, 50, 95
6, 139920, Note_off_c, 8, 47, 95
6, 139920, Note_off_c, 8, 43, 95
6, 139920, Note_on_c, 8, 67, 95
6, 139920, Note_on_c, 8, 59, 95
6, 139920, Note_on_c, 8, 55, 95
6, 139920, Note_on_c, 8, 50, 95
6, 139920, Note_on_c, 8, 47, 95
6, 139920, Note_on_c, 8, 43, 95
6, 140160, Note_off_c, 8, 67, 95
6, 140160, Note_off_c, 8, 59, 95
6, 140160, Note_off_c, 8, 55, 95
6, 140160, Note_off_c, 8, 50, 95
6, 140160, Note_off_c, 8, 47, 95
6, 140160, Note_off_c, 8, 43, 95
6, 140160, Note_on_c, 8, 67, 95
6, 140160, Note_on_c, 8, 59, 95
6, 140160, Note_on_c, 8, 55, 95
6, 140160, Note_on_c, 8, 50, 95
6, 140160, Note_on_c, 8, 47, 95
6, 140160, Note_on_c, 8, 43, 95
6, 140400, Note_off_c, 8, 67, 95
6, 140400, Note_off_c, 8, 59, 95
6, 140400, Note_off_c, 8, 55, 95
6, 140400, Note_off_c, 8, 50, 95
6, 140400, Note_off_c, 8, 47, 95
6, 140400, Note_off_c, 8, 43, 95
6, 140400, Note_on_c, 8, 67, 95
6, 140400, Note_on_c, 8, 59, 95
6, 140400, Note_on_c, 8, 55, 95
6, 140400, Note_on_c, 8, 50, 95
6, 140400, Note_on_c, 8, 47, 95
6, 140400, Note_on_c, 8, 43, 95
6, 140640, Note_off_c, 8, 67, 95
6, 140640, Note_off_c, 8, 59, 95
6, 140640, Note_off_c, 8, 55, 95
6, 140640, Note_off_c, 8, 50, 95
6, 140640, Note_off_c, 8, 47, 95
6, 140640, Note_off_c, 8, 43, 95
6, 140640, Note_on_c, 8, 67, 95
6, 140640, Note_on_c, 8, 59, 95
6, 140640, Note_on_c, 8, 55, 95
6, 140640, Note_on_c, 8, 50, 95
6, 140640, Note_on_c, 8, 47, 95
6, 140640, Note_on_c, 8, 43, 95
6, 140880, Note_off_c, 8, 67, 95
6, 140880, Note_off_c, 8, 59, 95
6, 140880, Note_off_c, 8, 55, 95
6, 140880, Note_off_c, 8, 50, 95
6, 140880, Note_off_c, 8, 47, 95
6, 140880, Note_off_c, 8, 43, 95
6, 140880, Note_on_c, 8, 67, 95
6, 140880, Note_on_c, 8, 59, 95
6, 140880, Note_on_c, 8, 55, 95
6, 140880, Note_on_c, 8, 50, 95
6, 140880, Note_on_c, 8, 47, 95
6, 140880, Note_on_c, 8, 43, 95
6, 141120, Note_off_c, 8, 67, 95
6, 141120, Note_off_c, 8, 59, 95
6, 141120, Note_off_c, 8, 55, 95
6, 141120, Note_off_c, 8, 50, 95
6, 141120, Note_off_c, 8, 47, 95
6, 141120, Note_off_c, 8, 43, 95
6, 141120, Note_on_c, 8, 67, 95
6, 141120, Note_on_c, 8, 59, 95
6, 141120, Note_on_c, 8, 55, 95
6, 141120, Note_on_c, 8, 50, 95
6, 141120, Note_on_c, 8, 47, 95
6, 141120, Note_on_c, 8, 43, 95
6, 141600, Note_off_c, 8, 67, 95
6, 141600, Note_off_c, 8, 59, 95
6, 141600, Note_off_c, 8, 55, 95
6, 141600, Note_off_c, 8, 50, 95
6, 141600, Note_off_c, 8, 47, 95
6, 141600, Note_off_c, 8, 43, 95
6, 141600, Note_on_c, 8, 67, 95
6, 141600, Note_on_c, 8, 59, 95
6, 141600, Note_on_c, 8, 55, 95
6, 141600, Note_on_c, 8, 50, 95
6, 141600, Note_on_c, 8, 47, 95
6, 141600, Note_on_c, 8, 43, 95
6, 141840, Note_off_c, 8, 67, 95
6, 141840, Note_off_c, 8, 59, 95
6, 141840, Note_off_c, 8, 55, 95
6, 141840, Note_off_c, 8, 50, 95
6, 141840, Note_off_c, 8, 47, 95
6, 141840, Note_off_c, 8, 43, 95
6, 141840, Note_on_c, 8, 67, 95
6, 141840, Note_on_c, 8, 59, 95
6, 141840, Note_on_c, 8, 55, 95
6, 141840, Note_on_c, 8, 50, 95
6, 141840, Note_on_c, 8, 47, 95
6, 141840, Note_on_c, 8, 43, 95
6, 142080, Note_off_c, 8, 67, 95
6, 142080, Note_off_c, 8, 59, 95
6, 142080, Note_off_c, 8, 55, 95
6, 142080, Note_off_c, 8, 50, 95
6, 142080, Note_off_c, 8, 47, 95
6, 142080, Note_off_c, 8, 43, 95
6, 142080, Note_on_c, 8, 66, 95
6, 142080, Note_on_c, 8, 62, 95
6, 142080, Note_on_c, 8, 59, 95
6, 142080, Note_on_c, 8, 54, 95
6, 142080, Note_on_c, 8, 47, 95
6, 142560, Note_off_c, 8, 66, 95
6, 142560, Note_off_c, 8, 62, 95
6, 142560, Note_off_c, 8, 59, 95
6, 142560, Note_off_c, 8, 54, 95
6, 142560, Note_off_c, 8, 47, 95
6, 142560, Note_on_c, 8, 66, 95
6, 142560, Note_on_c, 8, 62, 95
6, 142560, Note_on_c, 8, 59, 95
6, 142560, Note_on_c, 8, 54, 95
6, 142560, Note_on_c, 8, 47, 95
6, 142800, Note_off_c, 8, 66, 95
6, 142800, Note_off_c, 8, 62, 95
6, 142800, Note_off_c, 8, 59, 95
6, 142800, Note_off_c, 8, 54, 95
6, 142800, Note_off_c, 8, 47, 95
6, 142800, Note_on_c, 8, 66, 95
6, 142800, Note_on_c, 8, 62, 95
6, 142800, Note_on_c, 8, 59, 95
6, 142800, Note_on_c, 8, 54, 95
6, 142800, Note_on_c, 8, 47, 95
6, 143040, Note_off_c, 8, 66, 95
6, 143040, Note_off_c, 8, 62, 95
6, 143040, Note_off_c, 8, 59, 95
6, 143040, Note_off_c, 8, 54, 95
6, 143040, Note_off_c, 8, 47, 95
6, 143040, Note_on_c, 8, 66, 95
6, 143040, Note_on_c, 8, 62, 95
6, 143040, Note_on_c, 8, 59, 95
6, 143040, Note_on_c, 8, 54, 95
6, 143040, Note_on_c, 8, 47, 95
6, 143520, Note_off_c, 8, 66, 95
6, 143520, Note_off_c, 8, 62, 95
6, 143520, Note_off_c, 8, 59, 95
6, 143520, Note_off_c, 8, 54, 95
6, 143520, Note_off_c, 8, 47, 95
6, 143520, Note_on_c, 8, 66, 95
6, 143520, Note_on_c, 8, 62, 95
6, 143520, Note_on_c, 8, 59, 95
6, 143520, Note_on_c, 8, 54, 95
6, 143520, Note_on_c, 8, 47, 95
6, 143760, Note_off_c, 8, 66, 95
6, 143760, Note_off_c, 8, 62, 95
6, 143760, Note_off_c, 8, 59, 95
6, 143760, Note_off_c, 8, 54, 95
6, 143760, Note_off_c, 8, 47, 95
6, 143760, Note_on_c, 8, 66, 95
6, 143760, Note_on_c, 8, 62, 95
6, 143760, Note_on_c, 8, 59, 95
6, 143760, Note_on_c, 8, 54, 95
6, 143760, Note_on_c, 8, 47, 95
6, 144000, Note_off_c, 8, 66, 95
6, 144000, Note_off_c, 8, 62, 95
6, 144000, Note_off_c, 8, 59, 95
6, 144000, Note_off_c, 8, 54, 95
6, 144000, Note_off_c, 8, 47, 95
6, 144000, Note_on_c, 8, 66, 95
6, 144000, Note_on_c, 8, 62, 95
6, 144000, Note_on_c, 8, 59, 95
6, 144000, Note_on_c, 8, 54, 95
6, 144000, Note_on_c, 8, 47, 95
6, 144240, Note_off_c, 8, 66, 95
6, 144240, Note_off_c, 8, 62, 95
6, 144240, Note_off_c, 8, 59, 95
6, 144240, Note_off_c, 8, 54, 95
6, 144240, Note_off_c, 8, 47, 95
6, 144240, Note_on_c, 8, 66, 95
6, 144240, Note_on_c, 8, 62, 95
6, 144240, Note_on_c, 8, 59, 95
6, 144240, Note_on_c, 8, 54, 95
6, 144240, Note_on_c, 8, 47, 95
6, 144480, Note_off_c, 8, 66, 95
6, 144480, Note_off_c, 8, 62, 95
6, 144480, Note_off_c, 8, 59, 95
6, 144480, Note_off_c, 8, 54, 95
6, 144480, Note_off_c, 8, 47, 95
6, 144480, Note_on_c, 8, 66, 95
6, 144480, Note_on_c, 8, 62, 95
6, 144480, Note_on_c, 8, 59, 95
6, 144480, Note_on_c, 8, 54, 95
6, 144480, Note_on_c, 8, 47, 95
6, 144960, Note_off_c, 8, 66, 95
6, 144960, Note_off_c, 8, 62, 95
6, 144960, Note_off_c, 8, 59, 95
6, 144960, Note_off_c, 8, 54, 95
6, 144960, Note_off_c, 8, 47, 95
6, 144960, Note_on_c, 8, 66, 95
6, 144960, Note_on_c, 8, 62, 95
6, 144960, Note_on_c, 8, 59, 95
6, 144960, Note_on_c, 8, 54, 95
6, 144960, Note_on_c, 8, 47, 95
6, 145440, Note_off_c, 8, 66, 95
6, 145440, Note_off_c, 8, 62, 95
6, 145440, Note_off_c, 8, 59, 95
6, 145440, Note_off_c, 8, 54, 95
6, 145440, Note_off_c, 8, 47, 95
6, 145440, Note_on_c, 8, 66, 95
6, 145440, Note_on_c, 8, 62, 95
6, 145440, Note_on_c, 8, 59, 95
6, 145440, Note_on_c, 8, 54, 95
6, 145440, Note_on_c, 8, 47, 95
6, 145680, Note_off_c, 8, 66, 95
6, 145680, Note_off_c, 8, 62, 95
6, 145680, Note_off_c, 8, 59, 95
6, 145680, Note_off_c, 8, 54, 95
6, 145680, Note_off_c, 8, 47, 95
6, 145680, Note_on_c, 8, 66, 95
6, 145680, Note_on_c, 8, 62, 95
6, 145680, Note_on_c, 8, 59, 95
6, 145680, Note_on_c, 8, 54, 95
6, 145680, Note_on_c, 8, 47, 95
6, 145920, Note_off_c, 8, 66, 95
6, 145920, Note_off_c, 8, 62, 95
6, 145920, Note_off_c, 8, 59, 95
6, 145920, Note_off_c, 8, 54, 95
6, 145920, Note_off_c, 8, 47, 95
6, 145920, Note_on_c, 8, 64, 95
6, 145920, Note_on_c, 8, 60, 95
6, 145920, Note_on_c, 8, 55, 95
6, 145920, Note_on_c, 8, 52, 95
6, 145920, Note_on_c, 8, 48, 95
6, 145920, Note_on_c, 8, 43, 95
6, 146400, Note_off_c, 8, 64, 95
6, 146400, Note_off_c, 8, 60, 95
6, 146400, Note_off_c, 8, 55, 95
6, 146400, Note_off_c, 8, 52, 95
6, 146400, Note_off_c, 8, 48, 95
6, 146400, Note_off_c, 8, 43, 95
6, 146400, Note_on_c, 8, 64, 95
6, 146400, Note_on_c, 8, 60, 95
6, 146400, Note_on_c, 8, 55, 95
6, 146400, Note_on_c, 8, 52, 95
6, 146400, Note_on_c, 8, 48, 95
6, 146400, Note_on_c, 8, 43, 95
6, 146640, Note_off_c, 8, 64, 95
6, 146640, Note_off_c, 8, 60, 95
6, 146640, Note_off_c, 8, 55, 95
6, 146640, Note_off_c, 8, 52, 95
6, 146640, Note_off_c, 8, 48, 95
6, 146640, Note_off_c, 8, 43, 95
6, 146640, Note_on_c, 8, 64, 95
6, 146640, Note_on_c, 8, 60, 95
6, 146640, Note_on_c, 8, 55, 95
6, 146640, Note_on_c, 8, 52, 95
6, 146640, Note_on_c, 8, 48, 95
6, 146640, Note_on_c, 8, 43, 95
6, 146880, Note_off_c, 8, 64, 95
6, 146880, Note_off_c, 8, 60, 95
6, 146880, Note_off_c, 8, 55, 95
6, 146880, Note_off_c, 8, 52, 95
6, 146880, Note_off_c, 8, 48, 95
6, 146880, Note_off_c, 8, 43, 95
6, 146880, Note_on_c, 8, 64, 95
6, 146880, Note_on_c, 8, 60, 95
6, 146880, Note_on_c, 8, 55, 95
6, 146880, Note_on_c, 8, 52, 95
6, 146880, Note_on_c, 8, 48, 95
6, 146880, Note_on_c, 8, 43, 95
6, 147360, Note_off_c, 8, 64, 95
6, 147360, Note_off_c, 8, 60, 95
6, 147360, Note_off_c, 8, 55, 95
6, 147360, Note_off_c, 8, 52, 95
6, 147360, Note_off_c, 8, 48, 95
6, 147360, Note_off_c, 8, 43, 95
6, 147360, Note_on_c, 8, 64, 95
6, 147360, Note_on_c, 8, 60, 95
6, 147360, Note_on_c, 8, 55, 95
6, 147360, Note_on_c, 8, 52, 95
6, 147360, Note_on_c, 8, 48, 95
6, 147360, Note_on_c, 8, 43, 95
6, 147600, Note_off_c, 8, 64, 95
6, 147600, Note_off_c, 8, 60, 95
6, 147600, Note_off_c, 8, 55, 95
6, 147600, Note_off_c, 8, 52, 95
6, 147600, Note_off_c, 8, 48, 95
6, 147600, Note_off_c, 8, 43, 95
6, 147600, Note_on_c, 8, 64, 95
6, 147600, Note_on_c, 8, 60, 95
6, 147600, Note_on_c, 8, 55, 95
6, 147600, Note_on_c, 8, 52, 95
6, 147600, Note_on_c, 8, 48, 95
6, 147600, Note_on_c, 8, 43, 95
6, 147840, Note_off_c, 8, 64, 95
6, 147840, Note_off_c, 8, 60, 95
6, 147840, Note_off_c, 8, 55, 95
6, 147840, Note_off_c, 8, 52, 95
6, 147840, Note_off_c, 8, 48, 95
6, 147840, Note_off_c, 8, 43, 95
6, 147840, Note_on_c, 8, 64, 95
6, 147840, Note_on_c, 8, 60, 95
6, 147840, Note_on_c, 8, 55, 95
6, 147840, Note_on_c, 8, 52, 95
6, 147840, Note_on_c, 8, 48, 95
6, 147840, Note_on_c, 8, 43, 95
6, 148320, Note_off_c, 8, 64, 95
6, 148320, Note_off_c, 8, 60, 95
6, 148320, Note_off_c, 8, 55, 95
6, 148320, Note_off_c, 8, 52, 95
6, 148320, Note_off_c, 8, 48, 95
6, 148320, Note_off_c, 8, 43, 95
6, 148320, Note_on_c, 8, 67, 95
6, 148320, Note_on_c, 8, 59, 95
6, 148320, Note_on_c, 8, 55, 95
6, 148320, Note_on_c, 8, 50, 95
6, 148320, Note_on_c, 8, 47, 95
6, 148320, Note_on_c, 8, 43, 95
6, 148800, Note_off_c, 8, 67, 95
6, 148800, Note_off_c, 8, 59, 95
6, 148800, Note_off_c, 8, 55, 95
6, 148800, Note_off_c, 8, 50, 95
6, 148800, Note_off_c, 8, 47, 95
6, 148800, Note_off_c, 8, 43, 95
6, 148800, Note_on_c, 8, 64, 95
6, 148800, Note_on_c, 8, 60, 95
6, 148800, Note_on_c, 8, 55, 95
6, 148800, Note_on_c, 8, 52, 95
6, 148800, Note_on_c, 8, 48, 95
6, 148800, Note_on_c, 8, 43, 95
6, 149280, Note_off_c, 8, 64, 95
6, 149280, Note_off_c, 8, 60, 95
6, 149280, Note_off_c, 8, 55, 95
6, 149280, Note_off_c, 8, 52, 95
6, 149280, Note_off_c, 8, 48, 95
6, 149280, Note_off_c, 8, 43, 95
6, 149280, Note_on_c, 8, 64, 95
6, 149280, Note_on_c, 8, 61, 95
6, 149280, Note_on_c, 8, 55, 95
6, 149280, Note_on_c, 8, 52, 95
6, 149280, Note_on_c, 8, 45, 95
6, 149520, Note_off_c, 8, 64, 95
6, 149520, Note_off_c, 8, 61, 95
6, 149520, Note_off_c, 8, 55, 95
6, 149520, Note_off_c, 8, 52, 95
6, 149520, Note_off_c, 8, 45, 95
6, 149520, Note_on_c, 8, 64, 95
6, 149520, Note_on_c, 8, 61, 95
6, 149520, Note_on_c, 8, 55, 95
6, 149520, Note_on_c, 8, 52, 95
6, 149520, Note_on_c, 8, 45, 95
6, 149760, Note_off_c, 8, 64, 95
6, 149760, Note_off_c, 8, 61, 95
6, 149760, Note_off_c, 8, 55, 95
6, 149760, Note_off_c, 8, 52, 95
6, 149760, Note_off_c, 8, 45, 95
6, 149760, Note_on_c, 8, 66, 95
6, 149760, Note_on_c, 8, 62, 95
6, 149760, Note_on_c, 8, 57, 95
6, 149760, Note_on_c, 8, 50, 95
6, 150240, Note_off_c, 8, 66, 95
6, 150240, Note_off_c, 8, 62, 95
6, 150240, Note_off_c, 8, 57, 95
6, 150240, Note_off_c, 8, 50, 95
6, 150240, Note_on_c, 8, 66, 95
6, 150240, Note_on_c, 8, 62, 95
6, 150240, Note_on_c, 8, 57, 95
6, 150240, Note_on_c, 8, 50, 95
6, 150480, Note_off_c, 8, 66, 95
6, 150480, Note_off_c, 8, 62, 95
6, 150480, Note_off_c, 8, 57, 95
6, 150480, Note_off_c, 8, 50, 95
6, 150480, Note_on_c, 8, 66, 95
6, 150480, Note_on_c, 8, 62, 95
6, 150480, Note_on_c, 8, 57, 95
6, 150480, Note_on_c, 8, 50, 95
6, 150720, Note_off_c, 8, 66, 95
6, 150720, Note_off_c, 8, 62, 95
6, 150720, Note_off_c, 8, 57, 95
6, 150720, Note_off_c, 8, 50, 95
6, 150720, Note_on_c, 8, 66, 95
6, 150720, Note_on_c, 8, 62, 95
6, 150720, Note_on_c, 8, 57, 95
6, 150720, Note_on_c, 8, 50, 95
6, 151200, Note_off_c, 8, 66, 95
6, 151200, Note_off_c, 8, 62, 95
6, 151200, Note_off_c, 8, 57, 95
6, 151200, Note_off_c, 8, 50, 95
6, 151200, Note_on_c, 8, 66, 95
6, 151200, Note_on_c, 8, 62, 95
6, 151200, Note_on_c, 8, 57, 95
6, 151200, Note_on_c, 8, 50, 95
6, 151440, Note_off_c, 8, 66, 95
6, 151440, Note_off_c, 8, 62, 95
6, 151440, Note_off_c, 8, 57, 95
6, 151440, Note_off_c, 8, 50, 95
6, 151440, Note_on_c, 8, 66, 95
6, 151440, Note_on_c, 8, 62, 95
6, 151440, Note_on_c, 8, 57, 95
6, 151440, Note_on_c, 8, 50, 95
6, 151680, Note_off_c, 8, 66, 95
6, 151680, Note_off_c, 8, 62, 95
6, 151680, Note_off_c, 8, 57, 95
6, 151680, Note_off_c, 8, 50, 95
6, 151680, Note_on_c, 8, 66, 95
6, 151680, Note_on_c, 8, 62, 95
6, 151680, Note_on_c, 8, 57, 95
6, 151680, Note_on_c, 8, 50, 95
6, 151920, Note_off_c, 8, 66, 95
6, 151920, Note_off_c, 8, 62, 95
6, 151920, Note_off_c, 8, 57, 95
6, 151920, Note_off_c, 8, 50, 95
6, 151920, Note_on_c, 8, 66, 95
6, 151920, Note_on_c, 8, 62, 95
6, 151920, Note_on_c, 8, 57, 95
6, 151920, Note_on_c, 8, 50, 95
6, 152160, Note_off_c, 8, 66, 95
6, 152160, Note_off_c, 8, 62, 95
6, 152160, Note_off_c, 8, 57, 95
6, 152160, Note_off_c, 8, 50, 95
6, 152160, Note_on_c, 8, 66, 95
6, 152160, Note_on_c, 8, 62, 95
6, 152160, Note_on_c, 8, 57, 95
6, 152160, Note_on_c, 8, 50, 95
6, 152640, Note_off_c, 8, 66, 95
6, 152640, Note_off_c, 8, 62, 95
6, 152640, Note_off_c, 8, 57, 95
6, 152640, Note_off_c, 8, 50, 95
6, 152640, Note_on_c, 8, 66, 95
6, 152640, Note_on_c, 8, 62, 95
6, 152640, Note_on_c, 8, 57, 95
6, 152640, Note_on_c, 8, 50, 95
6, 153120, Note_off_c, 8, 66, 95
6, 153120, Note_off_c, 8, 62, 95
6, 153120, Note_off_c, 8, 57, 95
6, 153120, Note_off_c, 8, 50, 95
6, 153120, Note_on_c, 8, 66, 95
6, 153120, Note_on_c, 8, 62, 95
6, 153120, Note_on_c, 8, 57, 95
6, 153120, Note_on_c, 8, 50, 95
6, 153360, Note_off_c, 8, 66, 95
6, 153360, Note_off_c, 8, 62, 95
6, 153360, Note_off_c, 8, 57, 95
6, 153360, Note_off_c, 8, 50, 95
6, 153360, Note_on_c, 8, 66, 95
6, 153360, Note_on_c, 8, 62, 95
6, 153360, Note_on_c, 8, 57, 95
6, 153360, Note_on_c, 8, 50, 95
6, 153600, Note_off_c, 8, 66, 95
6, 153600, Note_off_c, 8, 62, 95
6, 153600, Note_off_c, 8, 57, 95
6, 153600, Note_off_c, 8, 50, 95
6, 153600, Note_on_c, 8, 67, 95
6, 153600, Note_on_c, 8, 59, 95
6, 153600, Note_on_c, 8, 55, 95
6, 153600, Note_on_c, 8, 50, 95
6, 153600, Note_on_c, 8, 47, 95
6, 153600, Note_on_c, 8, 43, 95
6, 154080, Note_off_c, 8, 67, 95
6, 154080, Note_off_c, 8, 59, 95
6, 154080, Note_off_c, 8, 55, 95
6, 154080, Note_off_c, 8, 50, 95
6, 154080, Note_off_c, 8, 47, 95
6, 154080, Note_off_c, 8, 43, 95
6, 154080, Note_on_c, 8, 67, 95
6, 154080, Note_on_c, 8, 59, 95
6, 154080, Note_on_c, 8, 55, 95
6, 154080, Note_on_c, 8, 50, 95
6, 154080, Note_on_c, 8, 47, 95
6, 154080, Note_on_c, 8, 43, 95
6, 154320, Note_off_c, 8, 67, 95
6, 154320, Note_off_c, 8, 59, 95
6, 154320, Note_off_c, 8, 55, 95
6, 154320, Note_off_c, 8, 50, 95
6, 154320, Note_off_c, 8, 47, 95
6, 154320, Note_off_c, 8, 43, 95
6, 154320, Note_on_c, 8, 67, 95
6, 154320, Note_on_c, 8, 59, 95
6, 154320, Note_on_c, 8, 55, 95
6, 154320, Note_on_c, 8, 50, 95
6, 154320, Note_on_c, 8, 47, 95
6, 154320, Note_on_c, 8, 43, 95
6, 154560, Note_off_c, 8, 67, 95
6, 154560, Note_off_c, 8, 59, 95
6, 154560, Note_off_c, 8, 55, 95
6, 154560, Note_off_c, 8, 50, 95
6, 154560, Note_off_c, 8, 47, 95
6, 154560, Note_off_c, 8, 43, 95
6, 154560, Note_on_c, 8, 67, 95
6, 154560, Note_on_c, 8, 59, 95
6, 154560, Note_on_c, 8, 55, 95
6, 154560, Note_on_c, 8, 50, 95
6, 154560, Note_on_c, 8, 47, 95
6, 154560, Note_on_c, 8, 43, 95
6, 155040, Note_off_c, 8, 67, 95
6, 155040, Note_off_c, 8, 59, 95
6, 155040, Note_off_c, 8, 55, 95
6, 155040, Note_off_c, 8, 50, 95
6, 155040, Note_off_c, 8, 47, 95
6, 155040, Note_off_c, 8, 43, 95
6, 155040, Note_on_c, 8, 67, 95
6, 155040, Note_on_c, 8, 59, 95
6, 155040, Note_on_c, 8, 55, 95
6, 155040, Note_on_c, 8, 50, 95
6, 155040, Note_on_c, 8, 47, 95
6, 155040, Note_on_c, 8, 43, 95
6, 155280, Note_off_c, 8, 67, 95
6, 155280, Note_off_c, 8, 59, 95
6, 155280, Note_off_c, 8, 55, 95
6, 155280, Note_off_c, 8, 50, 95
6, 155280, Note_off_c, 8, 47, 95
6, 155280, Note_off_c, 8, 43, 95
6, 155280, Note_on_c, 8, 67, 95
6, 155280, Note_on_c, 8, 59, 95
6, 155280, Note_on_c, 8, 55, 95
6, 155280, Note_on_c, 8, 50, 95
6, 155280, Note_on_c, 8, 47, 95
6, 155280, Note_on_c, 8, 43, 95
6, 155520, Note_off_c, 8, 67, 95
6, 155520, Note_off_c, 8, 59, 95
6, 155520, Note_off_c, 8, 55, 95
6, 155520, Note_off_c, 8, 50, 95
6, 155520, Note_off_c, 8, 47, 95
6, 155520, Note_off_c, 8, 43, 95
6, 155520, Note_on_c, 8, 67, 95
6, 155520, Note_on_c, 8, 59, 95
6, 155520, Note_on_c, 8, 55, 95
6, 155520, Note_on_c, 8, 50, 95
6, 155520, Note_on_c, 8, 47, 95
6, 155520, Note_on_c, 8, 43, 95
6, 156000, Note_off_c, 8, 67, 95
6, 156000, Note_off_c, 8, 59, 95
6, 156000, Note_off_c, 8, 55, 95
6, 156000, Note_off_c, 8, 50, 95
6, 156000, Note_off_c, 8, 47, 95
6, 156000, Note_off_c, 8, 43, 95
6, 156000, Note_on_c, 8, 67, 95
6, 156000, Note_on_c, 8, 59, 95
6, 156000, Note_on_c, 8, 55, 95
6, 156000, Note_on_c, 8, 50, 95
6, 156000, Note_on_c, 8, 47, 95
6, 156000, Note_on_c, 8, 43, 95
6, 156240, Note_off_c, 8, 67, 95
6, 156240, Note_off_c, 8, 59, 95
6, 156240, Note_off_c, 8, 55, 95
6, 156240, Note_off_c, 8, 50, 95
6, 156240, Note_off_c, 8, 47, 95
6, 156240, Note_off_c, 8, 43, 95
6, 156240, Note_on_c, 8, 67, 95
6, 156240, Note_on_c, 8, 59, 95
6, 156240, Note_on_c, 8, 55, 95
6, 156240, Note_on_c, 8, 50, 95
6, 156240, Note_on_c, 8, 47, 95
6, 156240, Note_on_c, 8, 43, 95
6, 156480, Note_off_c, 8, 67, 95
6, 156480, Note_off_c, 8, 59, 95
6, 156480, Note_off_c, 8, 55, 95
6, 156480, Note_off_c, 8, 50, 95
6, 156480, Note_off_c, 8, 47, 95
6, 156480, Note_off_c, 8, 43, 95
6, 156480, Note_on_c, 8, 67, 95
6, 156480, Note_on_c, 8, 59, 95
6, 156480, Note_on_c, 8, 55, 95
6, 156480, Note_on_c, 8, 50, 95
6, 156480, Note_on_c, 8, 47, 95
6, 156480, Note_on_c, 8, 43, 95
6, 156720, Note_off_c, 8, 67, 95
6, 156720, Note_off_c, 8, 59, 95
6, 156720, Note_off_c, 8, 55, 95
6, 156720, Note_off_c, 8, 50, 95
6, 156720, Note_off_c, 8, 47, 95
6, 156720, Note_off_c, 8, 43, 95
6, 156720, Note_on_c, 8, 67, 95
6, 156720, Note_on_c, 8, 59, 95
6, 156720, Note_on_c, 8, 55, 95
6, 156720, Note_on_c, 8, 50, 95
6, 156720, Note_on_c, 8, 47, 95
6, 156720, Note_on_c, 8, 43, 95
6, 156960, Note_off_c, 8, 67, 95
6, 156960, Note_off_c, 8, 59, 95
6, 156960, Note_off_c, 8, 55, 95
6, 156960, Note_off_c, 8, 50, 95
6, 156960, Note_off_c, 8, 47, 95
6, 156960, Note_off_c, 8, 43, 95
6, 156960, Note_on_c, 8, 67, 95
6, 156960, Note_on_c, 8, 59, 95
6, 156960, Note_on_c, 8, 55, 95
6, 156960, Note_on_c, 8, 50, 95
6, 156960, Note_on_c, 8, 47, 95
6, 156960, Note_on_c, 8, 43, 95
6, 157200, Note_off_c, 8, 67, 95
6, 157200, Note_off_c, 8, 59, 95
6, 157200, Note_off_c, 8, 55, 95
6, 157200, Note_off_c, 8, 50, 95
6, 157200, Note_off_c, 8, 47, 95
6, 157200, Note_off_c, 8, 43, 95
6, 157200, Note_on_c, 8, 67, 95
6, 157200, Note_on_c, 8, 59, 95
6, 157200, Note_on_c, 8, 55, 95
6, 157200, Note_on_c, 8, 50, 95
6, 157200, Note_on_c, 8, 47, 95
6, 157200, Note_on_c, 8, 43, 95
6, 157440, Note_off_c, 8, 67, 95
6, 157440, Note_off_c, 8, 59, 95
6, 157440, Note_off_c, 8, 55, 95
6, 157440, Note_off_c, 8, 50, 95
6, 157440, Note_off_c, 8, 47, 95
6, 157440, Note_off_c, 8, 43, 95
6, 157440, Note_on_c, 8, 64, 95
6, 157440, Note_on_c, 8, 59, 95
6, 157440, Note_on_c, 8, 55, 95
6, 157440, Note_on_c, 8, 52, 95
6, 157440, Note_on_c, 8, 47, 95
6, 157440, Note_on_c, 8, 40, 95
6, 157920, Note_off_c, 8, 64, 95
6, 157920, Note_off_c, 8, 59, 95
6, 157920, Note_off_c, 8, 55, 95
6, 157920, Note_off_c, 8, 52, 95
6, 157920, Note_off_c, 8, 47, 95
6, 157920, Note_off_c, 8, 40, 95
6, 157920, Note_on_c, 8, 64, 95
6, 157920, Note_on_c, 8, 59, 95
6, 157920, Note_on_c, 8, 55, 95
6, 157920, Note_on_c, 8, 52, 95
6, 157920, Note_on_c, 8, 47, 95
6, 157920, Note_on_c, 8, 40, 95
6, 158400, Note_off_c, 8, 64, 95
6, 158400, Note_off_c, 8, 59, 95
6, 158400, Note_off_c, 8, 55, 95
6, 158400, Note_off_c, 8, 52, 95
6, 158400, Note_off_c, 8, 47, 95
6, 158400, Note_off_c, 8, 40, 95
6, 158400, Note_on_c, 8, 64, 95
6, 158400, Note_on_c, 8, 59, 95
6, 158400, Note_on_c, 8, 55, 95
6, 158400, Note_on_c, 8, 52, 95
6, 158400, Note_on_c, 8, 47, 95
6, 158400, Note_on_c, 8, 40, 95
6, 158880, Note_off_c, 8, 64, 95
6, 158880, Note_off_c, 8, 59, 95
6, 158880, Note_off_c, 8, 55, 95
6, 158880, Note_off_c, 8, 52, 95
6, 158880, Note_off_c, 8, 47, 95
6, 158880, Note_off_c, 8, 40, 95
6, 158880, Note_on_c, 8, 64, 95
6, 158880, Note_on_c, 8, 59, 95
6, 158880, Note_on_c, 8, 55, 95
6, 158880, Note_on_c, 8, 52, 95
6, 158880, Note_on_c, 8, 47, 95
6, 158880, Note_on_c, 8, 40, 95
6, 159120, Note_off_c, 8, 64, 95
6, 159120, Note_off_c, 8, 59, 95
6, 159120, Note_off_c, 8, 55, 95
6, 159120, Note_off_c, 8, 52, 95
6, 159120, Note_off_c, 8, 47, 95
6, 159120, Note_off_c, 8, 40, 95
6, 159120, Note_on_c, 8, 64, 95
6, 159120, Note_on_c, 8, 59, 95
6, 159120, Note_on_c, 8, 55, 95
6, 159120, Note_on_c, 8, 52, 95
6, 159120, Note_on_c, 8, 47, 95
6, 159120, Note_on_c, 8, 40, 95
6, 159360, Note_off_c, 8, 64, 95
6, 159360, Note_off_c, 8, 59, 95
6, 159360, Note_off_c, 8, 55, 95
6, 159360, Note_off_c, 8, 52, 95
6, 159360, Note_off_c, 8, 47, 95
6, 159360, Note_off_c, 8, 40, 95
6, 159360, Note_on_c, 8, 64, 95
6, 159360, Note_on_c, 8, 59, 95
6, 159360, Note_on_c, 8, 55, 95
6, 159360, Note_on_c, 8, 52, 95
6, 159360, Note_on_c, 8, 47, 95
6, 159360, Note_on_c, 8, 40, 95
6, 159600, Note_off_c, 8, 64, 95
6, 159600, Note_off_c, 8, 59, 95
6, 159600, Note_off_c, 8, 55, 95
6, 159600, Note_off_c, 8, 52, 95
6, 159600, Note_off_c, 8, 47, 95
6, 159600, Note_off_c, 8, 40, 95
6, 159600, Note_on_c, 8, 64, 95
6, 159600, Note_on_c, 8, 59, 95
6, 159600, Note_on_c, 8, 55, 95
6, 159600, Note_on_c, 8, 52, 95
6, 159600, Note_on_c, 8, 47, 95
6, 159600, Note_on_c, 8, 40, 95
6, 159840, Note_off_c, 8, 64, 95
6, 159840, Note_off_c, 8, 59, 95
6, 159840, Note_off_c, 8, 55, 95
6, 159840, Note_off_c, 8, 52, 95
6, 159840, Note_off_c, 8, 47, 95
6, 159840, Note_off_c, 8, 40, 95
6, 159840, Note_on_c, 8, 64, 95
6, 159840, Note_on_c, 8, 59, 95
6, 159840, Note_on_c, 8, 55, 95
6, 159840, Note_on_c, 8, 52, 95
6, 159840, Note_on_c, 8, 47, 95
6, 159840, Note_on_c, 8, 40, 95
6, 160320, Note_off_c, 8, 64, 95
6, 160320, Note_off_c, 8, 59, 95
6, 160320, Note_off_c, 8, 55, 95
6, 160320, Note_off_c, 8, 52, 95
6, 160320, Note_off_c, 8, 47, 95
6, 160320, Note_off_c, 8, 40, 95
6, 160320, Note_on_c, 8, 64, 95
6, 160320, Note_on_c, 8, 59, 95
6, 160320, Note_on_c, 8, 55, 95
6, 160320, Note_on_c, 8, 52, 95
6, 160320, Note_on_c, 8, 47, 95
6, 160320, Note_on_c, 8, 40, 95
6, 160800, Note_off_c, 8, 64, 95
6, 160800, Note_off_c, 8, 59, 95
6, 160800, Note_off_c, 8, 55, 95
6, 160800, Note_off_c, 8, 52, 95
6, 160800, Note_off_c, 8, 47, 95
6, 160800, Note_off_c, 8, 40, 95
6, 160800, Note_on_c, 8, 64, 95
6, 160800, Note_on_c, 8, 59, 95
6, 160800, Note_on_c, 8, 55, 95
6, 160800, Note_on_c, 8, 52, 95
6, 160800, Note_on_c, 8, 47, 95
6, 160800, Note_on_c, 8, 40, 95
6, 161040, Note_off_c, 8, 64, 95
6, 161040, Note_off_c, 8, 59, 95
6, 161040, Note_off_c, 8, 55, 95
6, 161040, Note_off_c, 8, 52, 95
6, 161040, Note_off_c, 8, 47, 95
6, 161040, Note_off_c, 8, 40, 95
6, 161040, Note_on_c, 8, 64, 95
6, 161040, Note_on_c, 8, 59, 95
6, 161040, Note_on_c, 8, 55, 95
6, 161040, Note_on_c, 8, 52, 95
6, 161040, Note_on_c, 8, 47, 95
6, 161040, Note_on_c, 8, 40, 95
6, 161280, Note_off_c, 8, 64, 95
6, 161280, Note_off_c, 8, 59, 95
6, 161280, Note_off_c, 8, 55, 95
6, 161280, Note_off_c, 8, 52, 95
6, 161280, Note_off_c, 8, 47, 95
6, 161280, Note_off_c, 8, 40, 95
6, 161280, Note_on_c, 8, 64, 95
6, 161280, Note_on_c, 8, 61, 95
6, 161280, Note_on_c, 8, 55, 95
6, 161280, Note_on_c, 8, 52, 95
6, 161280, Note_on_c, 8, 45, 95
6, 161760, Note_off_c, 8, 64, 95
6, 161760, Note_off_c, 8, 61, 95
6, 161760, Note_off_c, 8, 55, 95
6, 161760, Note_off_c, 8, 52, 95
6, 161760, Note_off_c, 8, 45, 95
6, 161760, Note_on_c, 8, 64, 95
6, 161760, Note_on_c, 8, 61, 95
6, 161760, Note_on_c, 8, 55, 95
6, 161760, Note_on_c, 8, 52, 95
6, 161760, Note_on_c, 8, 45, 95
6, 162000, Note_off_c, 8, 64, 95
6, 162000, Note_off_c, 8, 61, 95
6, 162000, Note_off_c, 8, 55, 95
6, 162000, Note_off_c, 8, 52, 95
6, 162000, Note_off_c, 8, 45, 95
6, 162000, Note_on_c, 8, 64, 95
6, 162000, Note_on_c, 8, 61, 95
6, 162000, Note_on_c, 8, 55, 95
6, 162000, Note_on_c, 8, 52, 95
6, 162000, Note_on_c, 8, 45, 95
6, 162240, Note_off_c, 8, 64, 95
6, 162240, Note_off_c, 8, 61, 95
6, 162240, Note_off_c, 8, 55, 95
6, 162240, Note_off_c, 8, 52, 95
6, 162240, Note_off_c, 8, 45, 95
6, 162240, Note_on_c, 8, 64, 95
6, 162240, Note_on_c, 8, 61, 95
6, 162240, Note_on_c, 8, 55, 95
6, 162240, Note_on_c, 8, 52, 95
6, 162240, Note_on_c, 8, 45, 95
6, 162720, Note_off_c, 8, 64, 95
6, 162720, Note_off_c, 8, 61, 95
6, 162720, Note_off_c, 8, 55, 95
6, 162720, Note_off_c, 8, 52, 95
6, 162720, Note_off_c, 8, 45, 95
6, 162720, Note_on_c, 8, 64, 95
6, 162720, Note_on_c, 8, 61, 95
6, 162720, Note_on_c, 8, 55, 95
6, 162720, Note_on_c, 8, 52, 95
6, 162720, Note_on_c, 8, 45, 95
6, 162960, Note_off_c, 8, 64, 95
6, 162960, Note_off_c, 8, 61, 95
6, 162960, Note_off_c, 8, 55, 95
6, 162960, Note_off_c, 8, 52, 95
6, 162960, Note_off_c, 8, 45, 95
6, 162960, Note_on_c, 8, 64, 95
6, 162960, Note_on_c, 8, 61, 95
6, 162960, Note_on_c, 8, 55, 95
6, 162960, Note_on_c, 8, 52, 95
6, 162960, Note_on_c, 8, 45, 95
6, 163200, Note_off_c, 8, 64, 95
6, 163200, Note_off_c, 8, 61, 95
6, 163200, Note_off_c, 8, 55, 95
6, 163200, Note_off_c, 8, 52, 95
6, 163200, Note_off_c, 8, 45, 95
6, 163200, Note_on_c, 8, 64, 95
6, 163200, Note_on_c, 8, 61, 95
6, 163200, Note_on_c, 8, 55, 95
6, 163200, Note_on_c, 8, 52, 95
6, 163200, Note_on_c, 8, 45, 95
6, 163440, Note_off_c, 8, 64, 95
6, 163440, Note_off_c, 8, 61, 95
6, 163440, Note_off_c, 8, 55, 95
6, 163440, Note_off_c, 8, 52, 95
6, 163440, Note_off_c, 8, 45, 95
6, 163440, Note_on_c, 8, 64, 95
6, 163440, Note_on_c, 8, 61, 95
6, 163440, Note_on_c, 8, 55, 95
6, 163440, Note_on_c, 8, 52, 95
6, 163440, Note_on_c, 8, 45, 95
6, 163680, Note_off_c, 8, 64, 95
6, 163680, Note_off_c, 8, 61, 95
6, 163680, Note_off_c, 8, 55, 95
6, 163680, Note_off_c, 8, 52, 95
6, 163680, Note_off_c, 8, 45, 95
6, 163680, Note_on_c, 8, 64, 95
6, 163680, Note_on_c, 8, 61, 95
6, 163680, Note_on_c, 8, 55, 95
6, 163680, Note_on_c, 8, 52, 95
6, 163680, Note_on_c, 8, 45, 95
6, 164160, Note_off_c, 8, 64, 95
6, 164160, Note_off_c, 8, 61, 95
6, 164160, Note_off_c, 8, 55, 95
6, 164160, Note_off_c, 8, 52, 95
6, 164160, Note_off_c, 8, 45, 95
6, 164160, Note_on_c, 8, 64, 95
6, 164160, Note_on_c, 8, 61, 95
6, 164160, Note_on_c, 8, 55, 95
6, 164160, Note_on_c, 8, 52, 95
6, 164160, Note_on_c, 8, 45, 95
6, 164640, Note_off_c, 8, 64, 95
6, 164640, Note_off_c, 8, 61, 95
6, 164640, Note_off_c, 8, 55, 95
6, 164640, Note_off_c, 8, 52, 95
6, 164640, Note_off_c, 8, 45, 95
6, 164640, Note_on_c, 8, 64, 95
6, 164640, Note_on_c, 8, 61, 95
6, 164640, Note_on_c, 8, 55, 95
6, 164640, Note_on_c, 8, 52, 95
6, 164640, Note_on_c, 8, 45, 95
6, 164880, Note_off_c, 8, 64, 95
6, 164880, Note_off_c, 8, 61, 95
6, 164880, Note_off_c, 8, 55, 95
6, 164880, Note_off_c, 8, 52, 95
6, 164880, Note_off_c, 8, 45, 95
6, 164880, Note_on_c, 8, 64, 95
6, 164880, Note_on_c, 8, 61, 95
6, 164880, Note_on_c, 8, 55, 95
6, 164880, Note_on_c, 8, 52, 95
6, 164880, Note_on_c, 8, 45, 95
6, 165120, Note_off_c, 8, 64, 95
6, 165120, Note_off_c, 8, 61, 95
6, 165120, Note_off_c, 8, 55, 95
6, 165120, Note_off_c, 8, 52, 95
6, 165120, Note_off_c, 8, 45, 95
6, 165120, Note_on_c, 8, 64, 95
6, 165120, Note_on_c, 8, 60, 95
6, 165120, Note_on_c, 8, 55, 95
6, 165120, Note_on_c, 8, 52, 95
6, 165120, Note_on_c, 8, 48, 95
6, 165120, Note_on_c, 8, 43, 95
6, 165600, Note_off_c, 8, 64, 95
6, 165600, Note_off_c, 8, 60, 95
6, 165600, Note_off_c, 8, 55, 95
6, 165600, Note_off_c, 8, 52, 95
6, 165600, Note_off_c, 8, 48, 95
6, 165600, Note_off_c, 8, 43, 95
6, 165600, Note_on_c, 8, 64, 95
6, 165600, Note_on_c, 8, 60, 95
6, 165600, Note_on_c, 8, 55, 95
6, 165600, Note_on_c, 8, 52, 95
6, 165600, Note_on_c, 8, 48, 95
6, 165600, Note_on_c, 8, 43, 95
6, 165840, Note_off_c, 8, 64, 95
6, 165840, Note_off_c, 8, 60, 95
6, 165840, Note_off_c, 8, 55, 95
6, 165840, Note_off_c, 8, 52, 95
6, 165840, Note_off_c, 8, 48, 95
6, 165840, Note_off_c, 8, 43, 95
6, 165840, Note_on_c, 8, 64, 95
6, 165840, Note_on_c, 8, 60, 95
6, 165840, Note_on_c, 8, 55, 95
6, 165840, Note_on_c, 8, 52, 95
6, 165840, Note_on_c, 8, 48, 95
6, 165840, Note_on_c, 8, 43, 95
6, 166080, Note_off_c, 8, 64, 95
6, 166080, Note_off_c, 8, 60, 95
6, 166080, Note_off_c, 8, 55, 95
6, 166080, Note_off_c, 8, 52, 95
6, 166080, Note_off_c, 8, 48, 95
6, 166080, Note_off_c, 8, 43, 95
6, 166080, Note_on_c, 8, 64, 95
6, 166080, Note_on_c, 8, 60, 95
6, 166080, Note_on_c, 8, 55, 95
6, 166080, Note_on_c, 8, 52, 95
6, 166080, Note_on_c, 8, 48, 95
6, 166080, Note_on_c, 8, 43, 95
6, 166560, Note_off_c, 8, 64, 95
6, 166560, Note_off_c, 8, 60, 95
6, 166560, Note_off_c, 8, 55, 95
6, 166560, Note_off_c, 8, 52, 95
6, 166560, Note_off_c, 8, 48, 95
6, 166560, Note_off_c, 8, 43, 95
6, 166560, Note_on_c, 8, 64, 95
6, 166560, Note_on_c, 8, 60, 95
6, 166560, Note_on_c, 8, 55, 95
6, 166560, Note_on_c, 8, 52, 95
6, 166560, Note_on_c, 8, 48, 95
6, 166560, Note_on_c, 8, 43, 95
6, 166800, Note_off_c, 8, 64, 95
6, 166800, Note_off_c, 8, 60, 95
6, 166800, Note_off_c, 8, 55, 95
6, 166800, Note_off_c, 8, 52, 95
6, 166800, Note_off_c, 8, 48, 95
6, 166800, Note_off_c, 8, 43, 95
6, 166800, Note_on_c, 8, 64, 95
6, 166800, Note_on_c, 8, 60, 95
6, 166800, Note_on_c, 8, 55, 95
6, 166800, Note_on_c, 8, 52, 95
6, 166800, Note_on_c, 8, 48, 95
6, 166800, Note_on_c, 8, 43, 95
6, 167040, Note_off_c, 8, 64, 95
6, 167040, Note_off_c, 8, 60, 95
6, 167040, Note_off_c, 8, 55, 95
6, 167040, Note_off_c, 8, 52, 95
6, 167040, Note_off_c, 8, 48, 95
6, 167040, Note_off_c, 8, 43, 95
6, 167040, Note_on_c, 8, 64, 95
6, 167040, Note_on_c, 8, 60, 95
6, 167040, Note_on_c, 8, 55, 95
6, 167040, Note_on_c, 8, 52, 95
6, 167040, Note_on_c, 8, 48, 95
6, 167040, Note_on_c, 8, 43, 95
6, 167280, Note_off_c, 8, 64, 95
6, 167280, Note_off_c, 8, 60, 95
6, 167280, Note_off_c, 8, 55, 95
6, 167280, Note_off_c, 8, 52, 95
6, 167280, Note_off_c, 8, 48, 95
6, 167280, Note_off_c, 8, 43, 95
6, 167280, Note_on_c, 8, 64, 95
6, 167280, Note_on_c, 8, 60, 95
6, 167280, Note_on_c, 8, 55, 95
6, 167280, Note_on_c, 8, 52, 95
6, 167280, Note_on_c, 8, 48, 95
6, 167280, Note_on_c, 8, 43, 95
6, 167520, Note_off_c, 8, 64, 95
6, 167520, Note_off_c, 8, 60, 95
6, 167520, Note_off_c, 8, 55, 95
6, 167520, Note_off_c, 8, 52, 95
6, 167520, Note_off_c, 8, 48, 95
6, 167520, Note_off_c, 8, 43, 95
6, 167520, Note_on_c, 8, 64, 95
6, 167520, Note_on_c, 8, 60, 95
6, 167520, Note_on_c, 8, 55, 95
6, 167520, Note_on_c, 8, 52, 95
6, 167520, Note_on_c, 8, 48, 95
6, 167520, Note_on_c, 8, 43, 95
6, 167760, Note_off_c, 8, 64, 95
6, 167760, Note_off_c, 8, 60, 95
6, 167760, Note_off_c, 8, 55, 95
6, 167760, Note_off_c, 8, 52, 95
6, 167760, Note_off_c, 8, 48, 95
6, 167760, Note_off_c, 8, 43, 95
6, 167760, Note_on_c, 8, 64, 95
6, 167760, Note_on_c, 8, 60, 95
6, 167760, Note_on_c, 8, 55, 95
6, 167760, Note_on_c, 8, 52, 95
6, 167760, Note_on_c, 8, 48, 95
6, 167760, Note_on_c, 8, 43, 95
6, 168000, Note_off_c, 8, 64, 95
6, 168000, Note_off_c, 8, 60, 95
6, 168000, Note_off_c, 8, 55, 95
6, 168000, Note_off_c, 8, 52, 95
6, 168000, Note_off_c, 8, 48, 95
6, 168000, Note_off_c, 8, 43, 95
6, 168000, Note_on_c, 8, 64, 95
6, 168000, Note_on_c, 8, 60, 95
6, 168000, Note_on_c, 8, 55, 95
6, 168000, Note_on_c, 8, 52, 95
6, 168000, Note_on_c, 8, 48, 95
6, 168000, Note_on_c, 8, 43, 95
6, 168240, Note_off_c, 8, 64, 95
6, 168240, Note_off_c, 8, 60, 95
6, 168240, Note_off_c, 8, 55, 95
6, 168240, Note_off_c, 8, 52, 95
6, 168240, Note_off_c, 8, 48, 95
6, 168240, Note_off_c, 8, 43, 95
6, 168240, Note_on_c, 8, 64, 95
6, 168240, Note_on_c, 8, 60, 95
6, 168240, Note_on_c, 8, 55, 95
6, 168240, Note_on_c, 8, 52, 95
6, 168240, Note_on_c, 8, 48, 95
6, 168240, Note_on_c, 8, 43, 95
6, 168480, Note_off_c, 8, 64, 95
6, 168480, Note_off_c, 8, 60, 95
6, 168480, Note_off_c, 8, 55, 95
6, 168480, Note_off_c, 8, 52, 95
6, 168480, Note_off_c, 8, 48, 95
6, 168480, Note_off_c, 8, 43, 95
6, 168480, Note_on_c, 8, 64, 95
6, 168480, Note_on_c, 8, 60, 95
6, 168480, Note_on_c, 8, 55, 95
6, 168480, Note_on_c, 8, 52, 95
6, 168480, Note_on_c, 8, 48, 95
6, 168480, Note_on_c, 8, 43, 95
6, 168720, Note_off_c, 8, 64, 95
6, 168720, Note_off_c, 8, 60, 95
6, 168720, Note_off_c, 8, 55, 95
6, 168720, Note_off_c, 8, 52, 95
6, 168720, Note_off_c, 8, 48, 95
6, 168720, Note_off_c, 8, 43, 95
6, 168720, Note_on_c, 8, 64, 95
6, 168720, Note_on_c, 8, 60, 95
6, 168720, Note_on_c, 8, 55, 95
6, 168720, Note_on_c, 8, 52, 95
6, 168720, Note_on_c, 8, 48, 95
6, 168720, Note_on_c, 8, 43, 95
6, 168960, Note_off_c, 8, 64, 95
6, 168960, Note_off_c, 8, 60, 95
6, 168960, Note_off_c, 8, 55, 95
6, 168960, Note_off_c, 8, 52, 95
6, 168960, Note_off_c, 8, 48, 95
6, 168960, Note_off_c, 8, 43, 95
6, 168960, Note_on_c, 8, 69, 95
6, 168960, Note_on_c, 8, 64, 95
6, 168960, Note_on_c, 8, 60, 95
6, 168960, Note_on_c, 8, 57, 95
6, 168960, Note_on_c, 8, 52, 95
6, 168960, Note_on_c, 8, 45, 95
6, 169200, Note_off_c, 8, 69, 95
6, 169200, Note_off_c, 8, 64, 95
6, 169200, Note_off_c, 8, 60, 95
6, 169200, Note_off_c, 8, 57, 95
6, 169200, Note_off_c, 8, 52, 95
6, 169200, Note_off_c, 8, 45, 95
6, 169200, Note_on_c, 8, 69, 95
6, 169200, Note_on_c, 8, 64, 95
6, 169200, Note_on_c, 8, 60, 95
6, 169200, Note_on_c, 8, 57, 95
6, 169200, Note_on_c, 8, 52, 95
6, 169200, Note_on_c, 8, 45, 95
6, 169440, Note_off_c, 8, 69, 95
6, 169440, Note_off_c, 8, 64, 95
6, 169440, Note_off_c, 8, 60, 95
6, 169440, Note_off_c, 8, 57, 95
6, 169440, Note_off_c, 8, 52, 95
6, 169440, Note_off_c, 8, 45, 95
6, 169440, Note_on_c, 8, 69, 95
6, 169440, Note_on_c, 8, 64, 95
6, 169440, Note_on_c, 8, 60, 95
6, 169440, Note_on_c, 8, 57, 95
6, 169440, Note_on_c, 8, 52, 95
6, 169440, Note_on_c, 8, 45, 95
6, 169680, Note_off_c, 8, 69, 95
6, 169680, Note_off_c, 8, 64, 95
6, 169680, Note_off_c, 8, 60, 95
6, 169680, Note_off_c, 8, 57, 95
6, 169680, Note_off_c, 8, 52, 95
6, 169680, Note_off_c, 8, 45, 95
6, 169680, Note_on_c, 8, 69, 95
6, 169680, Note_on_c, 8, 64, 95
6, 169680, Note_on_c, 8, 60, 95
6, 169680, Note_on_c, 8, 57, 95
6, 169680, Note_on_c, 8, 52, 95
6, 169680, Note_on_c, 8, 45, 95
6, 169920, Note_off_c, 8, 69, 95
6, 169920, Note_off_c, 8, 64, 95
6, 169920, Note_off_c, 8, 60, 95
6, 169920, Note_off_c, 8, 57, 95
6, 169920, Note_off_c, 8, 52, 95
6, 169920, Note_off_c, 8, 45, 95
6, 169920, Note_on_c, 8, 69, 95
6, 169920, Note_on_c, 8, 64, 95
6, 169920, Note_on_c, 8, 60, 95
6, 169920, Note_on_c, 8, 57, 95
6, 169920, Note_on_c, 8, 52, 95
6, 169920, Note_on_c, 8, 45, 95
6, 170400, Note_off_c, 8, 69, 95
6, 170400, Note_off_c, 8, 64, 95
6, 170400, Note_off_c, 8, 60, 95
6, 170400, Note_off_c, 8, 57, 95
6, 170400, Note_off_c, 8, 52, 95
6, 170400, Note_off_c, 8, 45, 95
6, 170400, Note_on_c, 8, 69, 95
6, 170400, Note_on_c, 8, 64, 95
6, 170400, Note_on_c, 8, 60, 95
6, 170400, Note_on_c, 8, 57, 95
6, 170400, Note_on_c, 8, 52, 95
6, 170400, Note_on_c, 8, 45, 95
6, 170880, Note_off_c, 8, 69, 95
6, 170880, Note_off_c, 8, 64, 95
6, 170880, Note_off_c, 8, 60, 95
6, 170880, Note_off_c, 8, 57, 95
6, 170880, Note_off_c, 8, 52, 95
6, 170880, Note_off_c, 8, 45, 95
6, 170880, Note_on_c, 8, 67, 95
6, 170880, Note_on_c, 8, 62, 95
6, 170880, Note_on_c, 8, 59, 95
6, 170880, Note_on_c, 8, 55, 95
6, 170880, Note_on_c, 8, 50, 95
6, 170880, Note_on_c, 8, 43, 95
6, 171120, Note_off_c, 8, 67, 95
6, 171120, Note_off_c, 8, 62, 95
6, 171120, Note_off_c, 8, 59, 95
6, 171120, Note_off_c, 8, 55, 95
6, 171120, Note_off_c, 8, 50, 95
6, 171120, Note_off_c, 8, 43, 95
6, 171120, Note_on_c, 8, 67, 95
6, 171120, Note_on_c, 8, 62, 95
6, 171120, Note_on_c, 8, 59, 95
6, 171120, Note_on_c, 8, 55, 95
6, 171120, Note_on_c, 8, 50, 95
6, 171120, Note_on_c, 8, 43, 95
6, 171360, Note_off_c, 8, 67, 95
6, 171360, Note_off_c, 8, 62, 95
6, 171360, Note_off_c, 8, 59, 95
6, 171360, Note_off_c, 8, 55, 95
6, 171360, Note_off_c, 8, 50, 95
6, 171360, Note_off_c, 8, 43, 95
6, 171360, Note_on_c, 8, 67, 95
6, 171360, Note_on_c, 8, 62, 95
6, 171360, Note_on_c, 8, 59, 95
6, 171360, Note_on_c, 8, 55, 95
6, 171360, Note_on_c, 8, 50, 95
6, 171360, Note_on_c, 8, 43, 95
6, 171600, Note_off_c, 8, 67, 95
6, 171600, Note_off_c, 8, 62, 95
6, 171600, Note_off_c, 8, 59, 95
6, 171600, Note_off_c, 8, 55, 95
6, 171600, Note_off_c, 8, 50, 95
6, 171600, Note_off_c, 8, 43, 95
6, 171600, Note_on_c, 8, 67, 95
6, 171600, Note_on_c, 8, 62, 95
6, 171600, Note_on_c, 8, 59, 95
6, 171600, Note_on_c, 8, 55, 95
6, 171600, Note_on_c, 8, 50, 95
6, 171600, Note_on_c, 8, 43, 95
6, 171840, Note_off_c, 8, 67, 95
6, 171840, Note_off_c, 8, 62, 95
6, 171840, Note_off_c, 8, 59, 95
6, 171840, Note_off_c, 8, 55, 95
6, 171840, Note_off_c, 8, 50, 95
6, 171840, Note_off_c, 8, 43, 95
6, 171840, Note_on_c, 8, 67, 95
6, 171840, Note_on_c, 8, 62, 95
6, 171840, Note_on_c, 8, 59, 95
6, 171840, Note_on_c, 8, 55, 95
6, 171840, Note_on_c, 8, 50, 95
6, 171840, Note_on_c, 8, 43, 95
6, 172320, Note_off_c, 8, 67, 95
6, 172320, Note_off_c, 8, 62, 95
6, 172320, Note_off_c, 8, 59, 95
6, 172320, Note_off_c, 8, 55, 95
6, 172320, Note_off_c, 8, 50, 95
6, 172320, Note_off_c, 8, 43, 95
6, 172320, Note_on_c, 8, 67, 95
6, 172320, Note_on_c, 8, 62, 95
6, 172320, Note_on_c, 8, 59, 95
6, 172320, Note_on_c, 8, 55, 95
6, 172320, Note_on_c, 8, 50, 95
6, 172320, Note_on_c, 8, 43, 95
6, 172800, Note_off_c, 8, 67, 95
6, 172800, Note_off_c, 8, 62, 95
6, 172800, Note_off_c, 8, 59, 95
6, 172800, Note_off_c, 8, 55, 95
6, 172800, Note_off_c, 8, 50, 95
6, 172800, Note_off_c, 8, 43, 95
6, 172800, Note_on_c, 8, 65, 95
6, 172800, Note_on_c, 8, 60, 95
6, 172800, Note_on_c, 8, 57, 95
6, 172800, Note_on_c, 8, 53, 95
6, 172800, Note_on_c, 8, 48, 95
6, 172800, Note_on_c, 8, 41, 95
6, 173280, Note_off_c, 8, 65, 95
6, 173280, Note_off_c, 8, 60, 95
6, 173280, Note_off_c, 8, 57, 95
6, 173280, Note_off_c, 8, 53, 95
6, 173280, Note_off_c, 8, 48, 95
6, 173280, Note_off_c, 8, 41, 95
6, 173280, Note_on_c, 8, 64, 95
6, 173280, Note_on_c, 8, 59, 95
6, 173280, Note_on_c, 8, 57, 95
6, 173280, Note_on_c, 8, 53, 95
6, 173280, Note_on_c, 8, 48, 95
6, 173280, Note_on_c, 8, 40, 95
6, 173760, Note_off_c, 8, 64, 95
6, 173760, Note_off_c, 8, 59, 95
6, 173760, Note_off_c, 8, 57, 95
6, 173760, Note_off_c, 8, 53, 95
6, 173760, Note_off_c, 8, 48, 95
6, 173760, Note_off_c, 8, 40, 95
6, 173760, Note_on_c, 8, 65, 95
6, 173760, Note_on_c, 8, 60, 95
6, 173760, Note_on_c, 8, 57, 95
6, 173760, Note_on_c, 8, 53, 95
6, 173760, Note_on_c, 8, 48, 95
6, 173760, Note_on_c, 8, 41, 95
6, 174240, Note_off_c, 8, 65, 95
6, 174240, Note_off_c, 8, 60, 95
6, 174240, Note_off_c, 8, 57, 95
6, 174240, Note_off_c, 8, 53, 95
6, 174240, Note_off_c, 8, 48, 95
6, 174240, Note_off_c, 8, 41, 95
6, 174240, Note_on_c, 8, 64, 95
6, 174240, Note_on_c, 8, 59, 95
6, 174240, Note_on_c, 8, 57, 95
6, 174240, Note_on_c, 8, 53, 95
6, 174240, Note_on_c, 8, 48, 95
6, 174240, Note_on_c, 8, 40, 95
6, 174720, Note_off_c, 8, 64, 95
6, 174720, Note_off_c, 8, 59, 95
6, 174720, Note_off_c, 8, 57, 95
6, 174720, Note_off_c, 8, 53, 95
6, 174720, Note_off_c, 8, 48, 95
6, 174720, Note_off_c, 8, 40, 95
6, 174720, Note_on_c, 8, 65, 95
6, 174720, Note_on_c, 8, 60, 95
6, 174720, Note_on_c, 8, 57, 95
6, 174720, Note_on_c, 8, 53, 95
6, 174720, Note_on_c, 8, 48, 95
6, 174720, Note_on_c, 8, 41, 95
6, 175200, Note_off_c, 8, 65, 95
6, 175200, Note_off_c, 8, 60, 95
6, 175200, Note_off_c, 8, 57, 95
6, 175200, Note_off_c, 8, 53, 95
6, 175200, Note_off_c, 8, 48, 95
6, 175200, Note_off_c, 8, 41, 95
6, 175200, Note_on_c, 8, 64, 95
6, 175200, Note_on_c, 8, 59, 95
6, 175200, Note_on_c, 8, 57, 95
6, 175200, Note_on_c, 8, 53, 95
6, 175200, Note_on_c, 8, 48, 95
6, 175200, Note_on_c, 8, 40, 95
6, 175680, Note_off_c, 8, 64, 95
6, 175680, Note_off_c, 8, 59, 95
6, 175680, Note_off_c, 8, 57, 95
6, 175680, Note_off_c, 8, 53, 95
6, 175680, Note_off_c, 8, 48, 95
6, 175680, Note_off_c, 8, 40, 95
6, 175680, Note_on_c, 8, 65, 95
6, 175680, Note_on_c, 8, 60, 95
6, 175680, Note_on_c, 8, 57, 95
6, 175680, Note_on_c, 8, 53, 95
6, 175680, Note_on_c, 8, 48, 95
6, 175680, Note_on_c, 8, 41, 95
6, 176160, Note_off_c, 8, 65, 95
6, 176160, Note_off_c, 8, 60, 95
6, 176160, Note_off_c, 8, 57, 95
6, 176160, Note_off_c, 8, 53, 95
6, 176160, Note_off_c, 8, 48, 95
6, 176160, Note_off_c, 8, 41, 95
6, 176160, Note_on_c, 8, 67, 95
6, 176160, Note_on_c, 8, 62, 95
6, 176160, Note_on_c, 8, 59, 95
6, 176160, Note_on_c, 8, 55, 95
6, 176160, Note_on_c, 8, 50, 95
6, 176160, Note_on_c, 8, 43, 95
6, 176640, Note_off_c, 8, 67, 95
6, 176640, Note_off_c, 8, 62, 95
6, 176640, Note_off_c, 8, 59, 95
6, 176640, Note_off_c, 8, 55, 95
6, 176640, Note_off_c, 8, 50, 95
6, 176640, Note_off_c, 8, 43, 95
6, 176640, Note_on_c, 8, 69, 95
6, 176640, Note_on_c, 8, 64, 95
6, 176640, Note_on_c, 8, 60, 95
6, 176640, Note_on_c, 8, 57, 95
6, 176640, Note_on_c, 8, 52, 95
6, 176640, Note_on_c, 8, 45, 95
6, 176880, Note_off_c, 8, 69, 95
6, 176880, Note_off_c, 8, 64, 95
6, 176880, Note_off_c, 8, 60, 95
6, 176880, Note_off_c, 8, 57, 95
6, 176880, Note_off_c, 8, 52, 95
6, 176880, Note_off_c, 8, 45, 95
6, 176880, Note_on_c, 8, 69, 95
6, 176880, Note_on_c, 8, 64, 95
6, 176880, Note_on_c, 8, 60, 95
6, 176880, Note_on_c, 8, 57, 95
6, 176880, Note_on_c, 8, 52, 95
6, 176880, Note_on_c, 8, 45, 95
6, 177120, Note_off_c, 8, 69, 95
6, 177120, Note_off_c, 8, 64, 95
6, 177120, Note_off_c, 8, 60, 95
6, 177120, Note_off_c, 8, 57, 95
6, 177120, Note_off_c, 8, 52, 95
6, 177120, Note_off_c, 8, 45, 95
6, 177120, Note_on_c, 8, 69, 95
6, 177120, Note_on_c, 8, 64, 95
6, 177120, Note_on_c, 8, 60, 95
6, 177120, Note_on_c, 8, 57, 95
6, 177120, Note_on_c, 8, 52, 95
6, 177120, Note_on_c, 8, 45, 95
6, 177360, Note_off_c, 8, 69, 95
6, 177360, Note_off_c, 8, 64, 95
6, 177360, Note_off_c, 8, 60, 95
6, 177360, Note_off_c, 8, 57, 95
6, 177360, Note_off_c, 8, 52, 95
6, 177360, Note_off_c, 8, 45, 95
6, 177360, Note_on_c, 8, 69, 95
6, 177360, Note_on_c, 8, 64, 95
6, 177360, Note_on_c, 8, 60, 95
6, 177360, Note_on_c, 8, 57, 95
6, 177360, Note_on_c, 8, 52, 95
6, 177360, Note_on_c, 8, 45, 95
6, 177600, Note_off_c, 8, 69, 95
6, 177600, Note_off_c, 8, 64, 95
6, 177600, Note_off_c, 8, 60, 95
6, 177600, Note_off_c, 8, 57, 95
6, 177600, Note_off_c, 8, 52, 95
6, 177600, Note_off_c, 8, 45, 95
6, 177600, Note_on_c, 8, 69, 95
6, 177600, Note_on_c, 8, 64, 95
6, 177600, Note_on_c, 8, 60, 95
6, 177600, Note_on_c, 8, 57, 95
6, 177600, Note_on_c, 8, 52, 95
6, 177600, Note_on_c, 8, 45, 95
6, 178080, Note_off_c, 8, 69, 95
6, 178080, Note_off_c, 8, 64, 95
6, 178080, Note_off_c, 8, 60, 95
6, 178080, Note_off_c, 8, 57, 95
6, 178080, Note_off_c, 8, 52, 95
6, 178080, Note_off_c, 8, 45, 95
6, 178080, Note_on_c, 8, 69, 95
6, 178080, Note_on_c, 8, 64, 95
6, 178080, Note_on_c, 8, 60, 95
6, 178080, Note_on_c, 8, 57, 95
6, 178080, Note_on_c, 8, 52, 95
6, 178080, Note_on_c, 8, 45, 95
6, 178560, Note_off_c, 8, 69, 95
6, 178560, Note_off_c, 8, 64, 95
6, 178560, Note_off_c, 8, 60, 95
6, 178560, Note_off_c, 8, 57, 95
6, 178560, Note_off_c, 8, 52, 95
6, 178560, Note_off_c, 8, 45, 95
6, 178560, Note_on_c, 8, 67, 95
6, 178560, Note_on_c, 8, 62, 95
6, 178560, Note_on_c, 8, 59, 95
6, 178560, Note_on_c, 8, 55, 95
6, 178560, Note_on_c, 8, 50, 95
6, 178560, Note_on_c, 8, 43, 95
6, 178800, Note_off_c, 8, 67, 95
6, 178800, Note_off_c, 8, 62, 95
6, 178800, Note_off_c, 8, 59, 95
6, 178800, Note_off_c, 8, 55, 95
6, 178800, Note_off_c, 8, 50, 95
6, 178800, Note_off_c, 8, 43, 95
6, 178800, Note_on_c, 8, 67, 95
6, 178800, Note_on_c, 8, 62, 95
6, 178800, Note_on_c, 8, 59, 95
6, 178800, Note_on_c, 8, 55, 95
6, 178800, Note_on_c, 8, 50, 95
6, 178800, Note_on_c, 8, 43, 95
6, 179040, Note_off_c, 8, 67, 95
6, 179040, Note_off_c, 8, 62, 95
6, 179040, Note_off_c, 8, 59, 95
6, 179040, Note_off_c, 8, 55, 95
6, 179040, Note_off_c, 8, 50, 95
6, 179040, Note_off_c, 8, 43, 95
6, 179040, Note_on_c, 8, 67, 95
6, 179040, Note_on_c, 8, 62, 95
6, 179040, Note_on_c, 8, 59, 95
6, 179040, Note_on_c, 8, 55, 95
6, 179040, Note_on_c, 8, 50, 95
6, 179040, Note_on_c, 8, 43, 95
6, 179280, Note_off_c, 8, 67, 95
6, 179280, Note_off_c, 8, 62, 95
6, 179280, Note_off_c, 8, 59, 95
6, 179280, Note_off_c, 8, 55, 95
6, 179280, Note_off_c, 8, 50, 95
6, 179280, Note_off_c, 8, 43, 95
6, 179280, Note_on_c, 8, 67, 95
6, 179280, Note_on_c, 8, 62, 95
6, 179280, Note_on_c, 8, 59, 95
6, 179280, Note_on_c, 8, 55, 95
6, 179280, Note_on_c, 8, 50, 95
6, 179280, Note_on_c, 8, 43, 95
6, 179520, Note_off_c, 8, 67, 95
6, 179520, Note_off_c, 8, 62, 95
6, 179520, Note_off_c, 8, 59, 95
6, 179520, Note_off_c, 8, 55, 95
6, 179520, Note_off_c, 8, 50, 95
6, 179520, Note_off_c, 8, 43, 95
6, 179520, Note_on_c, 8, 67, 95
6, 179520, Note_on_c, 8, 62, 95
6, 179520, Note_on_c, 8, 59, 95
6, 179520, Note_on_c, 8, 55, 95
6, 179520, Note_on_c, 8, 50, 95
6, 179520, Note_on_c, 8, 43, 95
6, 180000, Note_off_c, 8, 67, 95
6, 180000, Note_off_c, 8, 62, 95
6, 180000, Note_off_c, 8, 59, 95
6, 180000, Note_off_c, 8, 55, 95
6, 180000, Note_off_c, 8, 50, 95
6, 180000, Note_off_c, 8, 43, 95
6, 180000, Note_on_c, 8, 67, 95
6, 180000, Note_on_c, 8, 62, 95
6, 180000, Note_on_c, 8, 59, 95
6, 180000, Note_on_c, 8, 55, 95
6, 180000, Note_on_c, 8, 50, 95
6, 180000, Note_on_c, 8, 43, 95
6, 180480, Note_off_c, 8, 67, 95
6, 180480, Note_off_c, 8, 62, 95
6, 180480, Note_off_c, 8, 59, 95
6, 180480, Note_off_c, 8, 55, 95
6, 180480, Note_off_c, 8, 50, 95
6, 180480, Note_off_c, 8, 43, 95
6, 180480, Note_on_c, 8, 65, 95
6, 180480, Note_on_c, 8, 60, 95
6, 180480, Note_on_c, 8, 57, 95
6, 180480, Note_on_c, 8, 53, 95
6, 180480, Note_on_c, 8, 48, 95
6, 180480, Note_on_c, 8, 41, 95
6, 180960, Note_off_c, 8, 65, 95
6, 180960, Note_off_c, 8, 60, 95
6, 180960, Note_off_c, 8, 57, 95
6, 180960, Note_off_c, 8, 53, 95
6, 180960, Note_off_c, 8, 48, 95
6, 180960, Note_off_c, 8, 41, 95
6, 180960, Note_on_c, 8, 64, 95
6, 180960, Note_on_c, 8, 59, 95
6, 180960, Note_on_c, 8, 57, 95
6, 180960, Note_on_c, 8, 53, 95
6, 180960, Note_on_c, 8, 48, 95
6, 180960, Note_on_c, 8, 40, 95
6, 181440, Note_off_c, 8, 64, 95
6, 181440, Note_off_c, 8, 59, 95
6, 181440, Note_off_c, 8, 57, 95
6, 181440, Note_off_c, 8, 53, 95
6, 181440, Note_off_c, 8, 48, 95
6, 181440, Note_off_c, 8, 40, 95
6, 181440, Note_on_c, 8, 65, 95
6, 181440, Note_on_c, 8, 60, 95
6, 181440, Note_on_c, 8, 57, 95
6, 181440, Note_on_c, 8, 53, 95
6, 181440, Note_on_c, 8, 48, 95
6, 181440, Note_on_c, 8, 41, 95
6, 181920, Note_off_c, 8, 65, 95
6, 181920, Note_off_c, 8, 60, 95
6, 181920, Note_off_c, 8, 57, 95
6, 181920, Note_off_c, 8, 53, 95
6, 181920, Note_off_c, 8, 48, 95
6, 181920, Note_off_c, 8, 41, 95
6, 181920, Note_on_c, 8, 64, 95
6, 181920, Note_on_c, 8, 59, 95
6, 181920, Note_on_c, 8, 57, 95
6, 181920, Note_on_c, 8, 53, 95
6, 181920, Note_on_c, 8, 48, 95
6, 181920, Note_on_c, 8, 40, 95
6, 182400, Note_off_c, 8, 64, 95
6, 182400, Note_off_c, 8, 59, 95
6, 182400, Note_off_c, 8, 57, 95
6, 182400, Note_off_c, 8, 53, 95
6, 182400, Note_off_c, 8, 48, 95
6, 182400, Note_off_c, 8, 40, 95
6, 182400, Note_on_c, 8, 65, 95
6, 182400, Note_on_c, 8, 60, 95
6, 182400, Note_on_c, 8, 57, 95
6, 182400, Note_on_c, 8, 53, 95
6, 182400, Note_on_c, 8, 48, 95
6, 182400, Note_on_c, 8, 41, 95
6, 182880, Note_off_c, 8, 65, 95
6, 182880, Note_off_c, 8, 60, 95
6, 182880, Note_off_c, 8, 57, 95
6, 182880, Note_off_c, 8, 53, 95
6, 182880, Note_off_c, 8, 48, 95
6, 182880, Note_off_c, 8, 41, 95
6, 182880, Note_on_c, 8, 64, 95
6, 182880, Note_on_c, 8, 59, 95
6, 182880, Note_on_c, 8, 57, 95
6, 182880, Note_on_c, 8, 53, 95
6, 182880, Note_on_c, 8, 48, 95
6, 182880, Note_on_c, 8, 40, 95
6, 183360, Note_off_c, 8, 64, 95
6, 183360, Note_off_c, 8, 59, 95
6, 183360, Note_off_c, 8, 57, 95
6, 183360, Note_off_c, 8, 53, 95
6, 183360, Note_off_c, 8, 48, 95
6, 183360, Note_off_c, 8, 40, 95
6, 183360, Note_on_c, 8, 65, 95
6, 183360, Note_on_c, 8, 60, 95
6, 183360, Note_on_c, 8, 57, 95
6, 183360, Note_on_c, 8, 53, 95
6, 183360, Note_on_c, 8, 48, 95
6, 183360, Note_on_c, 8, 41, 95
6, 183840, Note_off_c, 8, 65, 95
6, 183840, Note_off_c, 8, 60, 95
6, 183840, Note_off_c, 8, 57, 95
6, 183840, Note_off_c, 8, 53, 95
6, 183840, Note_off_c, 8, 48, 95
6, 183840, Note_off_c, 8, 41, 95
6, 183840, Note_on_c, 8, 67, 95
6, 183840, Note_on_c, 8, 62, 95
6, 183840, Note_on_c, 8, 59, 95
6, 183840, Note_on_c, 8, 55, 95
6, 183840, Note_on_c, 8, 50, 95
6, 183840, Note_on_c, 8, 43, 95
6, 184320, Note_off_c, 8, 67, 95
6, 184320, Note_off_c, 8, 62, 95
6, 184320, Note_off_c, 8, 59, 95
6, 184320, Note_off_c, 8, 55, 95
6, 184320, Note_off_c, 8, 50, 95
6, 184320, Note_off_c, 8, 43, 95
6, 184320, Note_on_c, 8, 69, 95
6, 184320, Note_on_c, 8, 64, 95
6, 184320, Note_on_c, 8, 60, 95
6, 184320, Note_on_c, 8, 57, 95
6, 184320, Note_on_c, 8, 52, 95
6, 184320, Note_on_c, 8, 45, 95
6, 184560, Note_off_c, 8, 69, 95
6, 184560, Note_off_c, 8, 64, 95
6, 184560, Note_off_c, 8, 60, 95
6, 184560, Note_off_c, 8, 57, 95
6, 184560, Note_off_c, 8, 52, 95
6, 184560, Note_off_c, 8, 45, 95
6, 184560, Note_on_c, 8, 69, 95
6, 184560, Note_on_c, 8, 64, 95
6, 184560, Note_on_c, 8, 60, 95
6, 184560, Note_on_c, 8, 57, 95
6, 184560, Note_on_c, 8, 52, 95
6, 184560, Note_on_c, 8, 45, 95
6, 184800, Note_off_c, 8, 69, 95
6, 184800, Note_off_c, 8, 64, 95
6, 184800, Note_off_c, 8, 60, 95
6, 184800, Note_off_c, 8, 57, 95
6, 184800, Note_off_c, 8, 52, 95
6, 184800, Note_off_c, 8, 45, 95
6, 184800, Note_on_c, 8, 69, 95
6, 184800, Note_on_c, 8, 64, 95
6, 184800, Note_on_c, 8, 60, 95
6, 184800, Note_on_c, 8, 57, 95
6, 184800, Note_on_c, 8, 52, 95
6, 184800, Note_on_c, 8, 45, 95
6, 185040, Note_off_c, 8, 69, 95
6, 185040, Note_off_c, 8, 64, 95
6, 185040, Note_off_c, 8, 60, 95
6, 185040, Note_off_c, 8, 57, 95
6, 185040, Note_off_c, 8, 52, 95
6, 185040, Note_off_c, 8, 45, 95
6, 185040, Note_on_c, 8, 69, 95
6, 185040, Note_on_c, 8, 64, 95
6, 185040, Note_on_c, 8, 60, 95
6, 185040, Note_on_c, 8, 57, 95
6, 185040, Note_on_c, 8, 52, 95
6, 185040, Note_on_c, 8, 45, 95
6, 185280, Note_off_c, 8, 69, 95
6, 185280, Note_off_c, 8, 64, 95
6, 185280, Note_off_c, 8, 60, 95
6, 185280, Note_off_c, 8, 57, 95
6, 185280, Note_off_c, 8, 52, 95
6, 185280, Note_off_c, 8, 45, 95
6, 185280, Note_on_c, 8, 69, 95
6, 185280, Note_on_c, 8, 64, 95
6, 185280, Note_on_c, 8, 60, 95
6, 185280, Note_on_c, 8, 57, 95
6, 185280, Note_on_c, 8, 52, 95
6, 185280, Note_on_c, 8, 45, 95
6, 185760, Note_off_c, 8, 69, 95
6, 185760, Note_off_c, 8, 64, 95
6, 185760, Note_off_c, 8, 60, 95
6, 185760, Note_off_c, 8, 57, 95
6, 185760, Note_off_c, 8, 52, 95
6, 185760, Note_off_c, 8, 45, 95
6, 185760, Note_on_c, 8, 69, 95
6, 185760, Note_on_c, 8, 64, 95
6, 185760, Note_on_c, 8, 60, 95
6, 185760, Note_on_c, 8, 57, 95
6, 185760, Note_on_c, 8, 52, 95
6, 185760, Note_on_c, 8, 45, 95
6, 186240, Note_off_c, 8, 69, 95
6, 186240, Note_off_c, 8, 64, 95
6, 186240, Note_off_c, 8, 60, 95
6, 186240, Note_off_c, 8, 57, 95
6, 186240, Note_off_c, 8, 52, 95
6, 186240, Note_off_c, 8, 45, 95
6, 186240, Note_on_c, 8, 67, 95
6, 186240, Note_on_c, 8, 62, 95
6, 186240, Note_on_c, 8, 59, 95
6, 186240, Note_on_c, 8, 55, 95
6, 186240, Note_on_c, 8, 50, 95
6, 186240, Note_on_c, 8, 43, 95
6, 186480, Note_off_c, 8, 67, 95
6, 186480, Note_off_c, 8, 62, 95
6, 186480, Note_off_c, 8, 59, 95
6, 186480, Note_off_c, 8, 55, 95
6, 186480, Note_off_c, 8, 50, 95
6, 186480, Note_off_c, 8, 43, 95
6, 186480, Note_on_c, 8, 67, 95
6, 186480, Note_on_c, 8, 62, 95
6, 186480, Note_on_c, 8, 59, 95
6, 186480, Note_on_c, 8, 55, 95
6, 186480, Note_on_c, 8, 50, 95
6, 186480, Note_on_c, 8, 43, 95
6, 186720, Note_off_c, 8, 67, 95
6, 186720, Note_off_c, 8, 62, 95
6, 186720, Note_off_c, 8, 59, 95
6, 186720, Note_off_c, 8, 55, 95
6, 186720, Note_off_c, 8, 50, 95
6, 186720, Note_off_c, 8, 43, 95
6, 186720, Note_on_c, 8, 67, 95
6, 186720, Note_on_c, 8, 62, 95
6, 186720, Note_on_c, 8, 59, 95
6, 186720, Note_on_c, 8, 55, 95
6, 186720, Note_on_c, 8, 50, 95
6, 186720, Note_on_c, 8, 43, 95
6, 186960, Note_off_c, 8, 67, 95
6, 186960, Note_off_c, 8, 62, 95
6, 186960, Note_off_c, 8, 59, 95
6, 186960, Note_off_c, 8, 55, 95
6, 186960, Note_off_c, 8, 50, 95
6, 186960, Note_off_c, 8, 43, 95
6, 186960, Note_on_c, 8, 67, 95
6, 186960, Note_on_c, 8, 62, 95
6, 186960, Note_on_c, 8, 59, 95
6, 186960, Note_on_c, 8, 55, 95
6, 186960, Note_on_c, 8, 50, 95
6, 186960, Note_on_c, 8, 43, 95
6, 187200, Note_off_c, 8, 67, 95
6, 187200, Note_off_c, 8, 62, 95
6, 187200, Note_off_c, 8, 59, 95
6, 187200, Note_off_c, 8, 55, 95
6, 187200, Note_off_c, 8, 50, 95
6, 187200, Note_off_c, 8, 43, 95
6, 187200, Note_on_c, 8, 67, 95
6, 187200, Note_on_c, 8, 62, 95
6, 187200, Note_on_c, 8, 59, 95
6, 187200, Note_on_c, 8, 55, 95
6, 187200, Note_on_c, 8, 50, 95
6, 187200, Note_on_c, 8, 43, 95
6, 187680, Note_off_c, 8, 67, 95
6, 187680, Note_off_c, 8, 62, 95
6, 187680, Note_off_c, 8, 59, 95
6, 187680, Note_off_c, 8, 55, 95
6, 187680, Note_off_c, 8, 50, 95
6, 187680, Note_off_c, 8, 43, 95
6, 187680, Note_on_c, 8, 67, 95
6, 187680, Note_on_c, 8, 62, 95
6, 187680, Note_on_c, 8, 59, 95
6, 187680, Note_on_c, 8, 55, 95
6, 187680, Note_on_c, 8, 50, 95
6, 187680, Note_on_c, 8, 43, 95
6, 188160, Note_off_c, 8, 67, 95
6, 188160, Note_off_c, 8, 62, 95
6, 188160, Note_off_c, 8, 59, 95
6, 188160, Note_off_c, 8, 55, 95
6, 188160, Note_off_c, 8, 50, 95
6, 188160, Note_off_c, 8, 43, 95
6, 188160, Note_on_c, 8, 65, 95
6, 188160, Note_on_c, 8, 60, 95
6, 188160, Note_on_c, 8, 57, 95
6, 188160, Note_on_c, 8, 53, 95
6, 188160, Note_on_c, 8, 48, 95
6, 188160, Note_on_c, 8, 41, 95
6, 188640, Note_off_c, 8, 65, 95
6, 188640, Note_off_c, 8, 60, 95
6, 188640, Note_off_c, 8, 57, 95
6, 188640, Note_off_c, 8, 53, 95
6, 188640, Note_off_c, 8, 48, 95
6, 188640, Note_off_c, 8, 41, 95
6, 188640, Note_on_c, 8, 64, 95
6, 188640, Note_on_c, 8, 59, 95
6, 188640, Note_on_c, 8, 57, 95
6, 188640, Note_on_c, 8, 53, 95
6, 188640, Note_on_c, 8, 48, 95
6, 188640, Note_on_c, 8, 40, 95
6, 189120, Note_off_c, 8, 64, 95
6, 189120, Note_off_c, 8, 59, 95
6, 189120, Note_off_c, 8, 57, 95
6, 189120, Note_off_c, 8, 53, 95
6, 189120, Note_off_c, 8, 48, 95
6, 189120, Note_off_c, 8, 40, 95
6, 189120, Note_on_c, 8, 65, 95
6, 189120, Note_on_c, 8, 60, 95
6, 189120, Note_on_c, 8, 57, 95
6, 189120, Note_on_c, 8, 53, 95
6, 189120, Note_on_c, 8, 48, 95
6, 189120, Note_on_c, 8, 41, 95
6, 189600, Note_off_c, 8, 65, 95
6, 189600, Note_off_c, 8, 60, 95
6, 189600, Note_off_c, 8, 57, 95
6, 189600, Note_off_c, 8, 53, 95
6, 189600, Note_off_c, 8, 48, 95
6, 189600, Note_off_c, 8, 41, 95
6, 189600, Note_on_c, 8, 64, 95
6, 189600, Note_on_c, 8, 59, 95
6, 189600, Note_on_c, 8, 57, 95
6, 189600, Note_on_c, 8, 53, 95
6, 189600, Note_on_c, 8, 48, 95
6, 189600, Note_on_c, 8, 40, 95
6, 190080, Note_off_c, 8, 64, 95
6, 190080, Note_off_c, 8, 59, 95
6, 190080, Note_off_c, 8, 57, 95
6, 190080, Note_off_c, 8, 53, 95
6, 190080, Note_off_c, 8, 48, 95
6, 190080, Note_off_c, 8, 40, 95
6, 190080, Note_on_c, 8, 65, 95
6, 190080, Note_on_c, 8, 60, 95
6, 190080, Note_on_c, 8, 57, 95
6, 190080, Note_on_c, 8, 53, 95
6, 190080, Note_on_c, 8, 48, 95
6, 190080, Note_on_c, 8, 41, 95
6, 190560, Note_off_c, 8, 65, 95
6, 190560, Note_off_c, 8, 60, 95
6, 190560, Note_off_c, 8, 57, 95
6, 190560, Note_off_c, 8, 53, 95
6, 190560, Note_off_c, 8, 48, 95
6, 190560, Note_off_c, 8, 41, 95
6, 190560, Note_on_c, 8, 64, 95
6, 190560, Note_on_c, 8, 59, 95
6, 190560, Note_on_c, 8, 57, 95
6, 190560, Note_on_c, 8, 53, 95
6, 190560, Note_on_c, 8, 48, 95
6, 190560, Note_on_c, 8, 40, 95
6, 191040, Note_off_c, 8, 64, 95
6, 191040, Note_off_c, 8, 59, 95
6, 191040, Note_off_c, 8, 57, 95
6, 191040, Note_off_c, 8, 53, 95
6, 191040, Note_off_c, 8, 48, 95
6, 191040, Note_off_c, 8, 40, 95
6, 191040, Note_on_c, 8, 65, 95
6, 191040, Note_on_c, 8, 60, 95
6, 191040, Note_on_c, 8, 57, 95
6, 191040, Note_on_c, 8, 53, 95
6, 191040, Note_on_c, 8, 48, 95
6, 191040, Note_on_c, 8, 41, 95
6, 191520, Note_off_c, 8, 65, 95
6, 191520, Note_off_c, 8, 60, 95
6, 191520, Note_off_c, 8, 57, 95
6, 191520, Note_off_c, 8, 53, 95
6, 191520, Note_off_c, 8, 48, 95
6, 191520, Note_off_c, 8, 41, 95
6, 191520, Note_on_c, 8, 67, 95
6, 191520, Note_on_c, 8, 62, 95
6, 191520, Note_on_c, 8, 59, 95
6, 191520, Note_on_c, 8, 55, 95
6, 191520, Note_on_c, 8, 50, 95
6, 191520, Note_on_c, 8, 43, 95
6, 192000, Note_off_c, 8, 67, 95
6, 192000, Note_off_c, 8, 62, 95
6, 192000, Note_off_c, 8, 59, 95
6, 192000, Note_off_c, 8, 55, 95
6, 192000, Note_off_c, 8, 50, 95
6, 192000, Note_off_c, 8, 43, 95
6, 192000, Note_on_c, 8, 66, 95
6, 192000, Note_on_c, 8, 62, 95
6, 192000, Note_on_c, 8, 57, 95
6, 192000, Note_on_c, 8, 50, 95
6, 192480, Note_off_c, 8, 66, 95
6, 192480, Note_off_c, 8, 62, 95
6, 192480, Note_off_c, 8, 57, 95
6, 192480, Note_off_c, 8, 50, 95
6, 192480, Note_on_c, 8, 66, 95
6, 192480, Note_on_c, 8, 62, 95
6, 192480, Note_on_c, 8, 57, 95
6, 192480, Note_on_c, 8, 50, 95
6, 192960, Note_off_c, 8, 66, 95
6, 192960, Note_off_c, 8, 62, 95
6, 192960, Note_off_c, 8, 57, 95
6, 192960, Note_off_c, 8, 50, 95
6, 192960, Note_on_c, 8, 66, 95
6, 192960, Note_on_c, 8, 62, 95
6, 192960, Note_on_c, 8, 57, 95
6, 192960, Note_on_c, 8, 50, 95
6, 193440, Note_off_c, 8, 66, 95
6, 193440, Note_off_c, 8, 62, 95
6, 193440, Note_off_c, 8, 57, 95
6, 193440, Note_off_c, 8, 50, 95
6, 193440, Note_on_c, 8, 66, 95
6, 193440, Note_on_c, 8, 62, 95
6, 193440, Note_on_c, 8, 57, 95
6, 193440, Note_on_c, 8, 50, 95
6, 193680, Note_off_c, 8, 66, 95
6, 193680, Note_off_c, 8, 62, 95
6, 193680, Note_off_c, 8, 57, 95
6, 193680, Note_off_c, 8, 50, 95
6, 193680, Note_on_c, 8, 66, 95
6, 193680, Note_on_c, 8, 62, 95
6, 193680, Note_on_c, 8, 57, 95
6, 193680, Note_on_c, 8, 50, 95
6, 193920, Note_off_c, 8, 66, 95
6, 193920, Note_off_c, 8, 62, 95
6, 193920, Note_off_c, 8, 57, 95
6, 193920, Note_off_c, 8, 50, 95
6, 193920, Note_on_c, 8, 66, 95
6, 193920, Note_on_c, 8, 62, 95
6, 193920, Note_on_c, 8, 57, 95
6, 193920, Note_on_c, 8, 50, 95
6, 194400, Note_off_c, 8, 66, 95
6, 194400, Note_off_c, 8, 62, 95
6, 194400, Note_off_c, 8, 57, 95
6, 194400, Note_off_c, 8, 50, 95
6, 194400, Note_on_c, 8, 66, 95
6, 194400, Note_on_c, 8, 62, 95
6, 194400, Note_on_c, 8, 57, 95
6, 194400, Note_on_c, 8, 50, 95
6, 194880, Note_off_c, 8, 66, 95
6, 194880, Note_off_c, 8, 62, 95
6, 194880, Note_off_c, 8, 57, 95
6, 194880, Note_off_c, 8, 50, 95
6, 194880, Note_on_c, 8, 66, 95
6, 194880, Note_on_c, 8, 62, 95
6, 194880, Note_on_c, 8, 57, 95
6, 194880, Note_on_c, 8, 50, 95
6, 195360, Note_off_c, 8, 66, 95
6, 195360, Note_off_c, 8, 62, 95
6, 195360, Note_off_c, 8, 57, 95
6, 195360, Note_off_c, 8, 50, 95
6, 195360, Note_on_c, 8, 66, 95
6, 195360, Note_on_c, 8, 62, 95
6, 195360, Note_on_c, 8, 57, 95
6, 195360, Note_on_c, 8, 50, 95
6, 195600, Note_off_c, 8, 66, 95
6, 195600, Note_off_c, 8, 62, 95
6, 195600, Note_off_c, 8, 57, 95
6, 195600, Note_off_c, 8, 50, 95
6, 195600, Note_on_c, 8, 66, 95
6, 195600, Note_on_c, 8, 62, 95
6, 195600, Note_on_c, 8, 57, 95
6, 195600, Note_on_c, 8, 50, 95
6, 195840, Note_off_c, 8, 66, 95
6, 195840, Note_off_c, 8, 62, 95
6, 195840, Note_off_c, 8, 57, 95
6, 195840, Note_off_c, 8, 50, 95
6, 195840, Note_on_c, 8, 64, 95
6, 195840, Note_on_c, 8, 59, 95
6, 195840, Note_on_c, 8, 56, 95
6, 195840, Note_on_c, 8, 52, 95
6, 195840, Note_on_c, 8, 47, 95
6, 195840, Note_on_c, 8, 40, 95
6, 196320, Note_off_c, 8, 64, 95
6, 196320, Note_off_c, 8, 59, 95
6, 196320, Note_off_c, 8, 56, 95
6, 196320, Note_off_c, 8, 52, 95
6, 196320, Note_off_c, 8, 47, 95
6, 196320, Note_off_c, 8, 40, 95
6, 196320, Note_on_c, 8, 64, 95
6, 196320, Note_on_c, 8, 59, 95
6, 196320, Note_on_c, 8, 56, 95
6, 196320, Note_on_c, 8, 52, 95
6, 196320, Note_on_c, 8, 47, 95
6, 196320, Note_on_c, 8, 40, 95
6, 196800, Note_off_c, 8, 64, 95
6, 196800, Note_off_c, 8, 59, 95
6, 196800, Note_off_c, 8, 56, 95
6, 196800, Note_off_c, 8, 52, 95
6, 196800, Note_off_c, 8, 47, 95
6, 196800, Note_off_c, 8, 40, 95
6, 196800, Note_on_c, 8, 64, 95
6, 196800, Note_on_c, 8, 59, 95
6, 196800, Note_on_c, 8, 56, 95
6, 196800, Note_on_c, 8, 52, 95
6, 196800, Note_on_c, 8, 47, 95
6, 196800, Note_on_c, 8, 40, 95
6, 197280, Note_off_c, 8, 64, 95
6, 197280, Note_off_c, 8, 59, 95
6, 197280, Note_off_c, 8, 56, 95
6, 197280, Note_off_c, 8, 52, 95
6, 197280, Note_off_c, 8, 47, 95
6, 197280, Note_off_c, 8, 40, 95
6, 197280, Note_on_c, 8, 64, 95
6, 197280, Note_on_c, 8, 59, 95
6, 197280, Note_on_c, 8, 56, 95
6, 197280, Note_on_c, 8, 52, 95
6, 197280, Note_on_c, 8, 47, 95
6, 197280, Note_on_c, 8, 40, 95
6, 197520, Note_off_c, 8, 64, 95
6, 197520, Note_off_c, 8, 59, 95
6, 197520, Note_off_c, 8, 56, 95
6, 197520, Note_off_c, 8, 52, 95
6, 197520, Note_off_c, 8, 47, 95
6, 197520, Note_off_c, 8, 40, 95
6, 197520, Note_on_c, 8, 64, 95
6, 197520, Note_on_c, 8, 59, 95
6, 197520, Note_on_c, 8, 56, 95
6, 197520, Note_on_c, 8, 52, 95
6, 197520, Note_on_c, 8, 47, 95
6, 197520, Note_on_c, 8, 40, 95
6, 197760, Note_off_c, 8, 64, 95
6, 197760, Note_off_c, 8, 59, 95
6, 197760, Note_off_c, 8, 56, 95
6, 197760, Note_off_c, 8, 52, 95
6, 197760, Note_off_c, 8, 47, 95
6, 197760, Note_off_c, 8, 40, 95
6, 197760, Note_on_c, 8, 64, 95
6, 197760, Note_on_c, 8, 59, 95
6, 197760, Note_on_c, 8, 56, 95
6, 197760, Note_on_c, 8, 52, 95
6, 197760, Note_on_c, 8, 47, 95
6, 197760, Note_on_c, 8, 40, 95
6, 198000, Note_off_c, 8, 64, 95
6, 198000, Note_off_c, 8, 59, 95
6, 198000, Note_off_c, 8, 56, 95
6, 198000, Note_off_c, 8, 52, 95
6, 198000, Note_off_c, 8, 47, 95
6, 198000, Note_off_c, 8, 40, 95
6, 198000, Note_on_c, 8, 64, 95
6, 198000, Note_on_c, 8, 59, 95
6, 198000, Note_on_c, 8, 56, 95
6, 198000, Note_on_c, 8, 52, 95
6, 198000, Note_on_c, 8, 47, 95
6, 198000, Note_on_c, 8, 40, 95
6, 198240, Note_off_c, 8, 64, 95
6, 198240, Note_off_c, 8, 59, 95
6, 198240, Note_off_c, 8, 56, 95
6, 198240, Note_off_c, 8, 52, 95
6, 198240, Note_off_c, 8, 47, 95
6, 198240, Note_off_c, 8, 40, 95
6, 198240, Note_on_c, 8, 64, 95
6, 198240, Note_on_c, 8, 59, 95
6, 198240, Note_on_c, 8, 56, 95
6, 198240, Note_on_c, 8, 52, 95
6, 198240, Note_on_c, 8, 47, 95
6, 198240, Note_on_c, 8, 40, 95
6, 198720, Note_off_c, 8, 64, 95
6, 198720, Note_off_c, 8, 59, 95
6, 198720, Note_off_c, 8, 56, 95
6, 198720, Note_off_c, 8, 52, 95
6, 198720, Note_off_c, 8, 47, 95
6, 198720, Note_off_c, 8, 40, 95
6, 198720, Note_on_c, 8, 64, 95
6, 198720, Note_on_c, 8, 59, 95
6, 198720, Note_on_c, 8, 56, 95
6, 198720, Note_on_c, 8, 52, 95
6, 198720, Note_on_c, 8, 47, 95
6, 198720, Note_on_c, 8, 40, 95
6, 199200, Note_off_c, 8, 64, 95
6, 199200, Note_off_c, 8, 59, 95
6, 199200, Note_off_c, 8, 56, 95
6, 199200, Note_off_c, 8, 52, 95
6, 199200, Note_off_c, 8, 47, 95
6, 199200, Note_off_c, 8, 40, 95
6, 199200, Note_on_c, 8, 64, 95
6, 199200, Note_on_c, 8, 59, 95
6, 199200, Note_on_c, 8, 56, 95
6, 199200, Note_on_c, 8, 52, 95
6, 199200, Note_on_c, 8, 47, 95
6, 199200, Note_on_c, 8, 40, 95
6, 199440, Note_off_c, 8, 64, 95
6, 199440, Note_off_c, 8, 59, 95
6, 199440, Note_off_c, 8, 56, 95
6, 199440, Note_off_c, 8, 52, 95
6, 199440, Note_off_c, 8, 47, 95
6, 199440, Note_off_c, 8, 40, 95
6, 199440, Note_on_c, 8, 64, 95
6, 199440, Note_on_c, 8, 59, 95
6, 199440, Note_on_c, 8, 56, 95
6, 199440, Note_on_c, 8, 52, 95
6, 199440, Note_on_c, 8, 47, 95
6, 199440, Note_on_c, 8, 40, 95
6, 199680, Note_off_c, 8, 64, 95
6, 199680, Note_off_c, 8, 59, 95
6, 199680, Note_off_c, 8, 56, 95
6, 199680, Note_off_c, 8, 52, 95
6, 199680, Note_off_c, 8, 47, 95
6, 199680, Note_off_c, 8, 40, 95
6, 199680, Note_on_c, 8, 67, 95
6, 199680, Note_on_c, 8, 59, 95
6, 199680, Note_on_c, 8, 55, 95
6, 199680, Note_on_c, 8, 50, 95
6, 199680, Note_on_c, 8, 47, 95
6, 199680, Note_on_c, 8, 43, 95
6, 200640, Note_off_c, 8, 67, 95
6, 200640, Note_off_c, 8, 59, 95
6, 200640, Note_off_c, 8, 55, 95
6, 200640, Note_off_c, 8, 50, 95
6, 200640, Note_off_c, 8, 47, 95
6, 200640, Note_off_c, 8, 43, 95
6, 200640, Note_on_c, 8, 64, 95
6, 200640, Note_on_c, 8, 59, 95
6, 200640, Note_on_c, 8, 55, 95
6, 200640, Note_on_c, 8, 50, 95
6, 200640, Note_on_c, 8, 45, 95
6, 200640, Note_on_c, 8, 40, 95
6, 200680, Note_off_c, 8, 64, 95
6, 200680, Note_off_c, 8, 59, 95
6, 200680, Note_off_c, 8, 55, 95
6, 200680, Note_off_c, 8, 50, 95
6, 200680, Note_off_c, 8, 45, 95
6, 200680, Note_off_c, 8, 40, 95
6, 201600, Note_on_c, 8, 66, 95
6, 201600, Note_on_c, 8, 62, 95
6, 201600, Note_on_c, 8, 57, 95
6, 201600, Note_on_c, 8, 50, 95
6, 202080, Note_off_c, 8, 66, 95
6, 202080, Note_off_c, 8, 62, 95
6, 202080, Note_off_c, 8, 57, 95
6, 202080, Note_off_c, 8, 50, 95
6, 202080, Note_on_c, 8, 66, 95
6, 202080, Note_on_c, 8, 62, 95
6, 202080, Note_on_c, 8, 57, 95
6, 202080, Note_on_c, 8, 50, 95
6, 202320, Note_off_c, 8, 66, 95
6, 202320, Note_off_c, 8, 62, 95
6, 202320, Note_off_c, 8, 57, 95
6, 202320, Note_off_c, 8, 50, 95
6, 202320, Note_on_c, 8, 66, 95
6, 202320, Note_on_c, 8, 62, 95
6, 202320, Note_on_c, 8, 57, 95
6, 202320, Note_on_c, 8, 50, 95
6, 202560, Note_off_c, 8, 66, 95
6, 202560, Note_off_c, 8, 62, 95
6, 202560, Note_off_c, 8, 57, 95
6, 202560, Note_off_c, 8, 50, 95
6, 202560, Note_on_c, 8, 66, 95
6, 202560, Note_on_c, 8, 62, 95
6, 202560, Note_on_c, 8, 57, 95
6, 202560, Note_on_c, 8, 50, 95
6, 203040, Note_off_c, 8, 66, 95
6, 203040, Note_off_c, 8, 62, 95
6, 203040, Note_off_c, 8, 57, 95
6, 203040, Note_off_c, 8, 50, 95
6, 203040, Note_on_c, 8, 66, 95
6, 203040, Note_on_c, 8, 62, 95
6, 203040, Note_on_c, 8, 57, 95
6, 203040, Note_on_c, 8, 50, 95
6, 203280, Note_off_c, 8, 66, 95
6, 203280, Note_off_c, 8, 62, 95
6, 203280, Note_off_c, 8, 57, 95
6, 203280, Note_off_c, 8, 50, 95
6, 203280, Note_on_c, 8, 66, 95
6, 203280, Note_on_c, 8, 62, 95
6, 203280, Note_on_c, 8, 57, 95
6, 203280, Note_on_c, 8, 50, 95
6, 203520, Note_off_c, 8, 66, 95
6, 203520, Note_off_c, 8, 62, 95
6, 203520, Note_off_c, 8, 57, 95
6, 203520, Note_off_c, 8, 50, 95
6, 203520, Note_on_c, 8, 64, 95
6, 203520, Note_on_c, 8, 62, 95
6, 203520, Note_on_c, 8, 55, 95
6, 203520, Note_on_c, 8, 52, 95
6, 203520, Note_on_c, 8, 48, 95
6, 203760, Note_off_c, 8, 64, 95
6, 203760, Note_off_c, 8, 62, 95
6, 203760, Note_off_c, 8, 55, 95
6, 203760, Note_off_c, 8, 52, 95
6, 203760, Note_off_c, 8, 48, 95
6, 203760, Note_on_c, 8, 64, 95
6, 203760, Note_on_c, 8, 62, 95
6, 203760, Note_on_c, 8, 55, 95
6, 203760, Note_on_c, 8, 52, 95
6, 203760, Note_on_c, 8, 48, 95
6, 204000, Note_off_c, 8, 64, 95
6, 204000, Note_off_c, 8, 62, 95
6, 204000, Note_off_c, 8, 55, 95
6, 204000, Note_off_c, 8, 52, 95
6, 204000, Note_off_c, 8, 48, 95
6, 204000, Note_on_c, 8, 64, 95
6, 204000, Note_on_c, 8, 62, 95
6, 204000, Note_on_c, 8, 55, 95
6, 204000, Note_on_c, 8, 52, 95
6, 204000, Note_on_c, 8, 48, 95
6, 204240, Note_off_c, 8, 64, 95
6, 204240, Note_off_c, 8, 62, 95
6, 204240, Note_off_c, 8, 55, 95
6, 204240, Note_off_c, 8, 52, 95
6, 204240, Note_off_c, 8, 48, 95
6, 204240, Note_on_c, 8, 64, 95
6, 204240, Note_on_c, 8, 62, 95
6, 204240, Note_on_c, 8, 55, 95
6, 204240, Note_on_c, 8, 52, 95
6, 204240, Note_on_c, 8, 48, 95
6, 204480, Note_off_c, 8, 64, 95
6, 204480, Note_off_c, 8, 62, 95
6, 204480, Note_off_c, 8, 55, 95
6, 204480, Note_off_c, 8, 52, 95
6, 204480, Note_off_c, 8, 48, 95
6, 204480, Note_on_c, 8, 64, 95
6, 204480, Note_on_c, 8, 62, 95
6, 204480, Note_on_c, 8, 55, 95
6, 204480, Note_on_c, 8, 52, 95
6, 204480, Note_on_c, 8, 48, 95
6, 204960, Note_off_c, 8, 64, 95
6, 204960, Note_off_c, 8, 62, 95
6, 204960, Note_off_c, 8, 55, 95
6, 204960, Note_off_c, 8, 52, 95
6, 204960, Note_off_c, 8, 48, 95
6, 204960, Note_on_c, 8, 62, 95
6, 204960, Note_on_c, 8, 55, 95
6, 204960, Note_on_c, 8, 50, 95
6, 204960, Note_on_c, 8, 47, 95
6, 205200, Note_off_c, 8, 62, 95
6, 205200, Note_off_c, 8, 55, 95
6, 205200, Note_off_c, 8, 50, 95
6, 205200, Note_off_c, 8, 47, 95
6, 205200, Note_on_c, 8, 62, 95
6, 205200, Note_on_c, 8, 55, 95
6, 205200, Note_on_c, 8, 50, 95
6, 205200, Note_on_c, 8, 47, 95
6, 205440, Note_off_c, 8, 62, 95
6, 205440, Note_off_c, 8, 55, 95
6, 205440, Note_off_c, 8, 50, 95
6, 205440, Note_off_c, 8, 47, 95
6, 205440, Note_on_c, 8, 62, 95
6, 205440, Note_on_c, 8, 55, 95
6, 205440, Note_on_c, 8, 50, 95
6, 205440, Note_on_c, 8, 47, 95
6, 205680, Note_off_c, 8, 62, 95
6, 205680, Note_off_c, 8, 55, 95
6, 205680, Note_off_c, 8, 50, 95
6, 205680, Note_off_c, 8, 47, 95
6, 205680, Note_on_c, 8, 62, 95
6, 205680, Note_on_c, 8, 55, 95
6, 205680, Note_on_c, 8, 50, 95
6, 205680, Note_on_c, 8, 47, 95
6, 205920, Note_off_c, 8, 62, 95
6, 205920, Note_off_c, 8, 55, 95
6, 205920, Note_off_c, 8, 50, 95
6, 205920, Note_off_c, 8, 47, 95
6, 205920, Note_on_c, 8, 62, 95
6, 205920, Note_on_c, 8, 55, 95
6, 205920, Note_on_c, 8, 50, 95
6, 205920, Note_on_c, 8, 47, 95
6, 206400, Note_off_c, 8, 62, 95
6, 206400, Note_off_c, 8, 55, 95
6, 206400, Note_off_c, 8, 50, 95
6, 206400, Note_off_c, 8, 47, 95
6, 206400, Note_on_c, 8, 64, 95
6, 206400, Note_on_c, 8, 60, 95
6, 206400, Note_on_c, 8, 57, 95
6, 206400, Note_on_c, 8, 52, 95
6, 206400, Note_on_c, 8, 45, 95
6, 206880, Note_off_c, 8, 64, 95
6, 206880, Note_off_c, 8, 60, 95
6, 206880, Note_off_c, 8, 57, 95
6, 206880, Note_off_c, 8, 52, 95
6, 206880, Note_off_c, 8, 45, 95
6, 206880, Note_on_c, 8, 64, 95
6, 206880, Note_on_c, 8, 60, 95
6, 206880, Note_on_c, 8, 55, 95
6, 206880, Note_on_c, 8, 52, 95
6, 206880, Note_on_c, 8, 45, 95
6, 207120, Note_off_c, 8, 64, 95
6, 207120, Note_off_c, 8, 60, 95
6, 207120, Note_off_c, 8, 55, 95
6, 207120, Note_off_c, 8, 52, 95
6, 207120, Note_off_c, 8, 45, 95
6, 207120, Note_on_c, 8, 64, 95
6, 207120, Note_on_c, 8, 60, 95
6, 207120, Note_on_c, 8, 55, 95
6, 207120, Note_on_c, 8, 52, 95
6, 207120, Note_on_c, 8, 45, 95
6, 207360, Note_off_c, 8, 64, 95
6, 207360, Note_off_c, 8, 60, 95
6, 207360, Note_off_c, 8, 55, 95
6, 207360, Note_off_c, 8, 52, 95
6, 207360, Note_off_c, 8, 45, 95
6, 207360, Note_on_c, 8, 67, 95
6, 207360, Note_on_c, 8, 59, 95
6, 207360, Note_on_c, 8, 55, 95
6, 207360, Note_on_c, 8, 50, 95
6, 207360, Note_on_c, 8, 47, 95
6, 207360, Note_on_c, 8, 43, 95
6, 208320, Note_off_c, 8, 67, 95
6, 208320, Note_off_c, 8, 59, 95
6, 208320, Note_off_c, 8, 55, 95
6, 208320, Note_off_c, 8, 50, 95
6, 208320, Note_off_c, 8, 47, 95
6, 208320, Note_off_c, 8, 43, 95
6, 208320, Note_on_c, 8, 64, 95
6, 208320, Note_on_c, 8, 59, 95
6, 208320, Note_on_c, 8, 55, 95
6, 208320, Note_on_c, 8, 50, 95
6, 208320, Note_on_c, 8, 45, 95
6, 208320, Note_on_c, 8, 40, 95
6, 208360, Note_off_c, 8, 64, 95
6, 208360, Note_off_c, 8, 59, 95
6, 208360, Note_off_c, 8, 55, 95
6, 208360, Note_off_c, 8, 50, 95
6, 208360, Note_off_c, 8, 45, 95
6, 208360, Note_off_c, 8, 40, 95
6, 209280, Note_on_c, 8, 66, 95
6, 209280, Note_on_c, 8, 62, 95
6, 209280, Note_on_c, 8, 57, 95
6, 209280, Note_on_c, 8, 50, 95
6, 209760, Note_off_c, 8, 66, 95
6, 209760, Note_off_c, 8, 62, 95
6, 209760, Note_off_c, 8, 57, 95
6, 209760, Note_off_c, 8, 50, 95
6, 209760, Note_on_c, 8, 66, 95
6, 209760, Note_on_c, 8, 62, 95
6, 209760, Note_on_c, 8, 57, 95
6, 209760, Note_on_c, 8, 50, 95
6, 210000, Note_off_c, 8, 66, 95
6, 210000, Note_off_c, 8, 62, 95
6, 210000, Note_off_c, 8, 57, 95
6, 210000, Note_off_c, 8, 50, 95
6, 210000, Note_on_c, 8, 66, 95
6, 210000, Note_on_c, 8, 62, 95
6, 210000, Note_on_c, 8, 57, 95
6, 210000, Note_on_c, 8, 50, 95
6, 210240, Note_off_c, 8, 66, 95
6, 210240, Note_off_c, 8, 62, 95
6, 210240, Note_off_c, 8, 57, 95
6, 210240, Note_off_c, 8, 50, 95
6, 210240, Note_on_c, 8, 66, 95
6, 210240, Note_on_c, 8, 62, 95
6, 210240, Note_on_c, 8, 57, 95
6, 210240, Note_on_c, 8, 50, 95
6, 210720, Note_off_c, 8, 66, 95
6, 210720, Note_off_c, 8, 62, 95
6, 210720, Note_off_c, 8, 57, 95
6, 210720, Note_off_c, 8, 50, 95
6, 210720, Note_on_c, 8, 66, 95
6, 210720, Note_on_c, 8, 62, 95
6, 210720, Note_on_c, 8, 57, 95
6, 210720, Note_on_c, 8, 50, 95
6, 210960, Note_off_c, 8, 66, 95
6, 210960, Note_off_c, 8, 62, 95
6, 210960, Note_off_c, 8, 57, 95
6, 210960, Note_off_c, 8, 50, 95
6, 210960, Note_on_c, 8, 66, 95
6, 210960, Note_on_c, 8, 62, 95
6, 210960, Note_on_c, 8, 57, 95
6, 210960, Note_on_c, 8, 50, 95
6, 211200, Note_off_c, 8, 66, 95
6, 211200, Note_off_c, 8, 62, 95
6, 211200, Note_off_c, 8, 57, 95
6, 211200, Note_off_c, 8, 50, 95
6, 211200, Note_on_c, 8, 64, 95
6, 211200, Note_on_c, 8, 62, 95
6, 211200, Note_on_c, 8, 55, 95
6, 211200, Note_on_c, 8, 52, 95
6, 211200, Note_on_c, 8, 48, 95
6, 211680, Note_off_c, 8, 64, 95
6, 211680, Note_off_c, 8, 62, 95
6, 211680, Note_off_c, 8, 55, 95
6, 211680, Note_off_c, 8, 52, 95
6, 211680, Note_off_c, 8, 48, 95
6, 211680, Note_on_c, 8, 64, 95
6, 211680, Note_on_c, 8, 62, 95
6, 211680, Note_on_c, 8, 55, 95
6, 211680, Note_on_c, 8, 52, 95
6, 211680, Note_on_c, 8, 48, 95
6, 211920, Note_off_c, 8, 64, 95
6, 211920, Note_off_c, 8, 62, 95
6, 211920, Note_off_c, 8, 55, 95
6, 211920, Note_off_c, 8, 52, 95
6, 211920, Note_off_c, 8, 48, 95
6, 211920, Note_on_c, 8, 64, 95
6, 211920, Note_on_c, 8, 62, 95
6, 211920, Note_on_c, 8, 55, 95
6, 211920, Note_on_c, 8, 52, 95
6, 211920, Note_on_c, 8, 48, 95
6, 212160, Note_off_c, 8, 64, 95
6, 212160, Note_off_c, 8, 62, 95
6, 212160, Note_off_c, 8, 55, 95
6, 212160, Note_off_c, 8, 52, 95
6, 212160, Note_off_c, 8, 48, 95
6, 212160, Note_on_c, 8, 64, 95
6, 212160, Note_on_c, 8, 62, 95
6, 212160, Note_on_c, 8, 55, 95
6, 212160, Note_on_c, 8, 52, 95
6, 212160, Note_on_c, 8, 48, 95
6, 212640, Note_off_c, 8, 64, 95
6, 212640, Note_off_c, 8, 62, 95
6, 212640, Note_off_c, 8, 55, 95
6, 212640, Note_off_c, 8, 52, 95
6, 212640, Note_off_c, 8, 48, 95
6, 212640, Note_on_c, 8, 62, 95
6, 212640, Note_on_c, 8, 55, 95
6, 212640, Note_on_c, 8, 50, 95
6, 212640, Note_on_c, 8, 47, 95
6, 212880, Note_off_c, 8, 62, 95
6, 212880, Note_off_c, 8, 55, 95
6, 212880, Note_off_c, 8, 50, 95
6, 212880, Note_off_c, 8, 47, 95
6, 212880, Note_on_c, 8, 62, 95
6, 212880, Note_on_c, 8, 55, 95
6, 212880, Note_on_c, 8, 50, 95
6, 212880, Note_on_c, 8, 47, 95
6, 213120, Note_off_c, 8, 62, 95
6, 213120, Note_off_c, 8, 55, 95
6, 213120, Note_off_c, 8, 50, 95
6, 213120, Note_off_c, 8, 47, 95
6, 213120, Note_on_c, 8, 62, 95
6, 213120, Note_on_c, 8, 55, 95
6, 213120, Note_on_c, 8, 50, 95
6, 213120, Note_on_c, 8, 47, 95
6, 213360, Note_off_c, 8, 62, 95
6, 213360, Note_off_c, 8, 55, 95
6, 213360, Note_off_c, 8, 50, 95
6, 213360, Note_off_c, 8, 47, 95
6, 213360, Note_on_c, 8, 62, 95
6, 213360, Note_on_c, 8, 55, 95
6, 213360, Note_on_c, 8, 50, 95
6, 213360, Note_on_c, 8, 47, 95
6, 213600, Note_off_c, 8, 62, 95
6, 213600, Note_off_c, 8, 55, 95
6, 213600, Note_off_c, 8, 50, 95
6, 213600, Note_off_c, 8, 47, 95
6, 213600, Note_on_c, 8, 62, 95
6, 213600, Note_on_c, 8, 55, 95
6, 213600, Note_on_c, 8, 50, 95
6, 213600, Note_on_c, 8, 47, 95
6, 214080, Note_off_c, 8, 62, 95
6, 214080, Note_off_c, 8, 55, 95
6, 214080, Note_off_c, 8, 50, 95
6, 214080, Note_off_c, 8, 47, 95
6, 214080, Note_on_c, 8, 64, 95
6, 214080, Note_on_c, 8, 60, 95
6, 214080, Note_on_c, 8, 57, 95
6, 214080, Note_on_c, 8, 52, 95
6, 214080, Note_on_c, 8, 45, 95
6, 214560, Note_off_c, 8, 64, 95
6, 214560, Note_off_c, 8, 60, 95
6, 214560, Note_off_c, 8, 57, 95
6, 214560, Note_off_c, 8, 52, 95
6, 214560, Note_off_c, 8, 45, 95
6, 214560, Note_on_c, 8, 64, 95
6, 214560, Note_on_c, 8, 60, 95
6, 214560, Note_on_c, 8, 55, 95
6, 214560, Note_on_c, 8, 52, 95
6, 214560, Note_on_c, 8, 45, 95
6, 214800, Note_off_c, 8, 64, 95
6, 214800, Note_off_c, 8, 60, 95
6, 214800, Note_off_c, 8, 55, 95
6, 214800, Note_off_c, 8, 52, 95
6, 214800, Note_off_c, 8, 45, 95
6, 214800, Note_on_c, 8, 64, 95
6, 214800, Note_on_c, 8, 60, 95
6, 214800, Note_on_c, 8, 55, 95
6, 214800, Note_on_c, 8, 52, 95
6, 214800, Note_on_c, 8, 45, 95
6, 215040, Note_off_c, 8, 64, 95
6, 215040, Note_off_c, 8, 60, 95
6, 215040, Note_off_c, 8, 55, 95
6, 215040, Note_off_c, 8, 52, 95
6, 215040, Note_off_c, 8, 45, 95
6, 215040, Note_on_c, 8, 67, 95
6, 215040, Note_on_c, 8, 59, 95
6, 215040, Note_on_c, 8, 55, 95
6, 215040, Note_on_c, 8, 50, 95
6, 215040, Note_on_c, 8, 47, 95
6, 215040, Note_on_c, 8, 43, 95
6, 216000, Note_off_c, 8, 67, 95
6, 216000, Note_off_c, 8, 59, 95
6, 216000, Note_off_c, 8, 55, 95
6, 216000, Note_off_c, 8, 50, 95
6, 216000, Note_off_c, 8, 47, 95
6, 216000, Note_off_c, 8, 43, 95
6, 216000, Note_on_c, 8, 64, 95
6, 216000, Note_on_c, 8, 59, 95
6, 216000, Note_on_c, 8, 55, 95
6, 216000, Note_on_c, 8, 50, 95
6, 216000, Note_on_c, 8, 45, 95
6, 216000, Note_on_c, 8, 40, 95
6, 216040, Note_off_c, 8, 64, 95
6, 216040, Note_off_c, 8, 59, 95
6, 216040, Note_off_c, 8, 55, 95
6, 216040, Note_off_c, 8, 50, 95
6, 216040, Note_off_c, 8, 45, 95
6, 216040, Note_off_c, 8, 40, 95
6, 216960, Note_on_c, 8, 66, 95
6, 216960, Note_on_c, 8, 62, 95
6, 216960, Note_on_c, 8, 57, 95
6, 216960, Note_on_c, 8, 50, 95
6, 217440, Note_off_c, 8, 66, 95
6, 217440, Note_off_c, 8, 62, 95
6, 217440, Note_off_c, 8, 57, 95
6, 217440, Note_off_c, 8, 50, 95
6, 217440, Note_on_c, 8, 66, 95
6, 217440, Note_on_c, 8, 62, 95
6, 217440, Note_on_c, 8, 57, 95
6, 217440, Note_on_c, 8, 50, 95
6, 217680, Note_off_c, 8, 66, 95
6, 217680, Note_off_c, 8, 62, 95
6, 217680, Note_off_c, 8, 57, 95
6, 217680, Note_off_c, 8, 50, 95
6, 217680, Note_on_c, 8, 66, 95
6, 217680, Note_on_c, 8, 62, 95
6, 217680, Note_on_c, 8, 57, 95
6, 217680, Note_on_c, 8, 50, 95
6, 217920, Note_off_c, 8, 66, 95
6, 217920, Note_off_c, 8, 62, 95
6, 217920, Note_off_c, 8, 57, 95
6, 217920, Note_off_c, 8, 50, 95
6, 217920, Note_on_c, 8, 66, 95
6, 217920, Note_on_c, 8, 62, 95
6, 217920, Note_on_c, 8, 57, 95
6, 217920, Note_on_c, 8, 50, 95
6, 218400, Note_off_c, 8, 66, 95
6, 218400, Note_off_c, 8, 62, 95
6, 218400, Note_off_c, 8, 57, 95
6, 218400, Note_off_c, 8, 50, 95
6, 218400, Note_on_c, 8, 66, 95
6, 218400, Note_on_c, 8, 62, 95
6, 218400, Note_on_c, 8, 57, 95
6, 218400, Note_on_c, 8, 50, 95
6, 218640, Note_off_c, 8, 66, 95
6, 218640, Note_off_c, 8, 62, 95
6, 218640, Note_off_c, 8, 57, 95
6, 218640, Note_off_c, 8, 50, 95
6, 218640, Note_on_c, 8, 66, 95
6, 218640, Note_on_c, 8, 62, 95
6, 218640, Note_on_c, 8, 57, 95
6, 218640, Note_on_c, 8, 50, 95
6, 218880, Note_off_c, 8, 66, 95
6, 218880, Note_off_c, 8, 62, 95
6, 218880, Note_off_c, 8, 57, 95
6, 218880, Note_off_c, 8, 50, 95
6, 218880, Note_on_c, 8, 64, 95
6, 218880, Note_on_c, 8, 62, 95
6, 218880, Note_on_c, 8, 55, 95
6, 218880, Note_on_c, 8, 52, 95
6, 218880, Note_on_c, 8, 48, 95
6, 219360, Note_off_c, 8, 64, 95
6, 219360, Note_off_c, 8, 62, 95
6, 219360, Note_off_c, 8, 55, 95
6, 219360, Note_off_c, 8, 52, 95
6, 219360, Note_off_c, 8, 48, 95
6, 219360, Note_on_c, 8, 64, 95
6, 219360, Note_on_c, 8, 62, 95
6, 219360, Note_on_c, 8, 55, 95
6, 219360, Note_on_c, 8, 52, 95
6, 219360, Note_on_c, 8, 48, 95
6, 219600, Note_off_c, 8, 64, 95
6, 219600, Note_off_c, 8, 62, 95
6, 219600, Note_off_c, 8, 55, 95
6, 219600, Note_off_c, 8, 52, 95
6, 219600, Note_off_c, 8, 48, 95
6, 219600, Note_on_c, 8, 64, 95
6, 219600, Note_on_c, 8, 62, 95
6, 219600, Note_on_c, 8, 55, 95
6, 219600, Note_on_c, 8, 52, 95
6, 219600, Note_on_c, 8, 48, 95
6, 219840, Note_off_c, 8, 64, 95
6, 219840, Note_off_c, 8, 62, 95
6, 219840, Note_off_c, 8, 55, 95
6, 219840, Note_off_c, 8, 52, 95
6, 219840, Note_off_c, 8, 48, 95
6, 219840, Note_on_c, 8, 64, 95
6, 219840, Note_on_c, 8, 62, 95
6, 219840, Note_on_c, 8, 55, 95
6, 219840, Note_on_c, 8, 52, 95
6, 219840, Note_on_c, 8, 48, 95
6, 220320, Note_off_c, 8, 64, 95
6, 220320, Note_off_c, 8, 62, 95
6, 220320, Note_off_c, 8, 55, 95
6, 220320, Note_off_c, 8, 52, 95
6, 220320, Note_off_c, 8, 48, 95
6, 220320, Note_on_c, 8, 62, 95
6, 220320, Note_on_c, 8, 55, 95
6, 220320, Note_on_c, 8, 50, 95
6, 220320, Note_on_c, 8, 47, 95
6, 220560, Note_off_c, 8, 62, 95
6, 220560, Note_off_c, 8, 55, 95
6, 220560, Note_off_c, 8, 50, 95
6, 220560, Note_off_c, 8, 47, 95
6, 220560, Note_on_c, 8, 62, 95
6, 220560, Note_on_c, 8, 55, 95
6, 220560, Note_on_c, 8, 50, 95
6, 220560, Note_on_c, 8, 47, 95
6, 220800, Note_off_c, 8, 62, 95
6, 220800, Note_off_c, 8, 55, 95
6, 220800, Note_off_c, 8, 50, 95
6, 220800, Note_off_c, 8, 47, 95
6, 220800, Note_on_c, 8, 62, 95
6, 220800, Note_on_c, 8, 55, 95
6, 220800, Note_on_c, 8, 50, 95
6, 220800, Note_on_c, 8, 47, 95
6, 221040, Note_off_c, 8, 62, 95
6, 221040, Note_off_c, 8, 55, 95
6, 221040, Note_off_c, 8, 50, 95
6, 221040, Note_off_c, 8, 47, 95
6, 221040, Note_on_c, 8, 62, 95
6, 221040, Note_on_c, 8, 55, 95
6, 221040, Note_on_c, 8, 50, 95
6, 221040, Note_on_c, 8, 47, 95
6, 221280, Note_off_c, 8, 62, 95
6, 221280, Note_off_c, 8, 55, 95
6, 221280, Note_off_c, 8, 50, 95
6, 221280, Note_off_c, 8, 47, 95
6, 221280, Note_on_c, 8, 62, 95
6, 221280, Note_on_c, 8, 55, 95
6, 221280, Note_on_c, 8, 50, 95
6, 221280, Note_on_c, 8, 47, 95
6, 221760, Note_off_c, 8, 62, 95
6, 221760, Note_off_c, 8, 55, 95
6, 221760, Note_off_c, 8, 50, 95
6, 221760, Note_off_c, 8, 47, 95
6, 221760, Note_on_c, 8, 64, 95
6, 221760, Note_on_c, 8, 60, 95
6, 221760, Note_on_c, 8, 57, 95
6, 221760, Note_on_c, 8, 52, 95
6, 221760, Note_on_c, 8, 45, 95
6, 222000, Note_off_c, 8, 64, 95
6, 222000, Note_off_c, 8, 60, 95
6, 222000, Note_off_c, 8, 57, 95
6, 222000, Note_off_c, 8, 52, 95
6, 222000, Note_off_c, 8, 45, 95
6, 222000, Note_on_c, 8, 64, 95
6, 222000, Note_on_c, 8, 60, 95
6, 222000, Note_on_c, 8, 57, 95
6, 222000, Note_on_c, 8, 52, 95
6, 222000, Note_on_c, 8, 45, 95
6, 222240, Note_off_c, 8, 64, 95
6, 222240, Note_off_c, 8, 60, 95
6, 222240, Note_off_c, 8, 57, 95
6, 222240, Note_off_c, 8, 52, 95
6, 222240, Note_off_c, 8, 45, 95
6, 222240, Note_on_c, 8, 64, 95
6, 222240, Note_on_c, 8, 60, 95
6, 222240, Note_on_c, 8, 55, 95
6, 222240, Note_on_c, 8, 52, 95
6, 222240, Note_on_c, 8, 45, 95
6, 222480, Note_off_c, 8, 64, 95
6, 222480, Note_off_c, 8, 60, 95
6, 222480, Note_off_c, 8, 55, 95
6, 222480, Note_off_c, 8, 52, 95
6, 222480, Note_off_c, 8, 45, 95
6, 222480, Note_on_c, 8, 64, 95
6, 222480, Note_on_c, 8, 60, 95
6, 222480, Note_on_c, 8, 55, 95
6, 222480, Note_on_c, 8, 52, 95
6, 222480, Note_on_c, 8, 45, 95
6, 222720, Note_off_c, 8, 64, 95
6, 222720, Note_off_c, 8, 60, 95
6, 222720, Note_off_c, 8, 55, 95
6, 222720, Note_off_c, 8, 52, 95
6, 222720, Note_off_c, 8, 45, 95
6, 222720, Note_on_c, 8, 67, 95
6, 222720, Note_on_c, 8, 59, 95
6, 222720, Note_on_c, 8, 55, 95
6, 222720, Note_on_c, 8, 50, 95
6, 222720, Note_on_c, 8, 47, 95
6, 222720, Note_on_c, 8, 43, 95
6, 223680, Note_off_c, 8, 67, 95
6, 223680, Note_off_c, 8, 59, 95
6, 223680, Note_off_c, 8, 55, 95
6, 223680, Note_off_c, 8, 50, 95
6, 223680, Note_off_c, 8, 47, 95
6, 223680, Note_off_c, 8, 43, 95
6, 223680, Note_on_c, 8, 64, 95
6, 223680, Note_on_c, 8, 59, 95
6, 223680, Note_on_c, 8, 55, 95
6, 223680, Note_on_c, 8, 50, 95
6, 223680, Note_on_c, 8, 45, 95
6, 223680, Note_on_c, 8, 40, 95
6, 223720, Note_off_c, 8, 64, 95
6, 223720, Note_off_c, 8, 59, 95
6, 223720, Note_off_c, 8, 55, 95
6, 223720, Note_off_c, 8, 50, 95
6, 223720, Note_off_c, 8, 45, 95
6, 223720, Note_off_c, 8, 40, 95
6, 224640, Note_on_c, 8, 66, 95
6, 224640, Note_on_c, 8, 62, 95
6, 224640, Note_on_c, 8, 57, 95
6, 224640, Note_on_c, 8, 50, 95
6, 224880, Note_off_c, 8, 66, 95
6, 224880, Note_off_c, 8, 62, 95
6, 224880, Note_off_c, 8, 57, 95
6, 224880, Note_off_c, 8, 50, 95
6, 224880, Note_on_c, 8, 66, 95
6, 224880, Note_on_c, 8, 62, 95
6, 224880, Note_on_c, 8, 57, 95
6, 224880, Note_on_c, 8, 50, 95
6, 225120, Note_off_c, 8, 66, 95
6, 225120, Note_off_c, 8, 62, 95
6, 225120, Note_off_c, 8, 57, 95
6, 225120, Note_off_c, 8, 50, 95
6, 225120, Note_on_c, 8, 66, 95
6, 225120, Note_on_c, 8, 62, 95
6, 225120, Note_on_c, 8, 57, 95
6, 225120, Note_on_c, 8, 50, 95
6, 225360, Note_off_c, 8, 66, 95
6, 225360, Note_off_c, 8, 62, 95
6, 225360, Note_off_c, 8, 57, 95
6, 225360, Note_off_c, 8, 50, 95
6, 225360, Note_on_c, 8, 66, 95
6, 225360, Note_on_c, 8, 62, 95
6, 225360, Note_on_c, 8, 57, 95
6, 225360, Note_on_c, 8, 50, 95
6, 225600, Note_off_c, 8, 66, 95
6, 225600, Note_off_c, 8, 62, 95
6, 225600, Note_off_c, 8, 57, 95
6, 225600, Note_off_c, 8, 50, 95
6, 225600, Note_on_c, 8, 66, 95
6, 225600, Note_on_c, 8, 62, 95
6, 225600, Note_on_c, 8, 57, 95
6, 225600, Note_on_c, 8, 50, 95
6, 226080, Note_off_c, 8, 66, 95
6, 226080, Note_off_c, 8, 62, 95
6, 226080, Note_off_c, 8, 57, 95
6, 226080, Note_off_c, 8, 50, 95
6, 226080, Note_on_c, 8, 66, 95
6, 226080, Note_on_c, 8, 62, 95
6, 226080, Note_on_c, 8, 57, 95
6, 226080, Note_on_c, 8, 50, 95
6, 226320, Note_off_c, 8, 66, 95
6, 226320, Note_off_c, 8, 62, 95
6, 226320, Note_off_c, 8, 57, 95
6, 226320, Note_off_c, 8, 50, 95
6, 226320, Note_on_c, 8, 66, 95
6, 226320, Note_on_c, 8, 62, 95
6, 226320, Note_on_c, 8, 50, 95
6, 226560, Note_off_c, 8, 66, 95
6, 226560, Note_off_c, 8, 62, 95
6, 226560, Note_off_c, 8, 50, 95
6, 226560, Note_on_c, 8, 64, 95
6, 226560, Note_on_c, 8, 62, 95
6, 226560, Note_on_c, 8, 55, 95
6, 226560, Note_on_c, 8, 52, 95
6, 226560, Note_on_c, 8, 48, 95
6, 230400, Note_off_c, 8, 64, 95
6, 230400, Note_off_c, 8, 62, 95
6, 230400, Note_off_c, 8, 55, 95
6, 230400, Note_off_c, 8, 52, 95
6, 230400, Note_off_c, 8, 48, 95
6, 230400, Note_on_c, 8, 67, 95
6, 230400, Note_on_c, 8, 59, 95
6, 230400, Note_on_c, 8, 55, 95
6, 230400, Note_on_c, 8, 50, 95
6, 230400, Note_on_c, 8, 47, 95
6, 230400, Note_on_c, 8, 43, 95
6, 241920, Note_off_c, 8, 67, 95
6, 241920, Note_off_c, 8, 59, 95
6, 241920, Note_off_c, 8, 55, 95
6, 241920, Note_off_c, 8, 50, 95
6, 241920, Note_off_c, 8, 47, 95
6, 241920, Note_off_c, 8, 43, 95
6, 241920, End_track
7, 0, Start_track
7, 0, Pitch_bend_c, 11, 8192
7, 0, Control_c, 11, 7, 127
7, 0, Control_c, 11, 10, 103
7, 0, Control_c, 11, 93, 0
7, 0, Control_c, 11, 91, 0
7, 0, Control_c, 11, 95, 0
7, 0, Control_c, 11, 92, 0
7, 0, Control_c, 11, 11, 127
7, 0, Program_c, 11, 33
7, 0, Control_c, 12, 7, 127
7, 0, Control_c, 12, 10, 103
7, 0, Control_c, 12, 93, 0
7, 0, Control_c, 12, 91, 0
7, 0, Control_c, 12, 95, 0
7, 0, Control_c, 12, 92, 0
7, 0, Control_c, 12, 11, 127
7, 0, Program_c, 12, 33
7, 7680, Note_on_c, 11, 43, 95
7, 9120, Note_off_c, 11, 43, 95
7, 9600, Note_on_c, 11, 38, 95
7, 11040, Note_off_c, 11, 38, 95
7, 11520, Note_on_c, 11, 36, 95
7, 12960, Note_off_c, 11, 36, 95
7, 12960, Note_on_c, 11, 35, 95
7, 14400, Note_off_c, 11, 35, 95
7, 14400, Note_on_c, 11, 33, 95
7, 14880, Note_off_c, 11, 33, 95
7, 14880, Note_on_c, 11, 41, 95
7, 15360, Note_off_c, 11, 41, 95
7, 15360, Note_on_c, 11, 43, 95
7, 16800, Note_off_c, 11, 43, 95
7, 17280, Note_on_c, 11, 38, 95
7, 18720, Note_off_c, 11, 38, 95
7, 19200, Note_on_c, 11, 36, 95
7, 20640, Note_off_c, 11, 36, 95
7, 20640, Note_on_c, 11, 35, 95
7, 22080, Note_off_c, 11, 35, 95
7, 22080, Note_on_c, 11, 33, 95
7, 22560, Note_off_c, 11, 33, 95
7, 22560, Note_on_c, 11, 41, 95
7, 23040, Note_off_c, 11, 41, 95
7, 23040, Note_on_c, 11, 43, 95
7, 24480, Note_off_c, 11, 43, 95
7, 24960, Note_on_c, 11, 38, 95
7, 26400, Note_off_c, 11, 38, 95
7, 26880, Note_on_c, 11, 36, 95
7, 28320, Note_off_c, 11, 36, 95
7, 28320, Note_on_c, 11, 35, 95
7, 29760, Note_off_c, 11, 35, 95
7, 29760, Note_on_c, 11, 33, 95
7, 30240, Note_off_c, 11, 33, 95
7, 30240, Note_on_c, 11, 41, 95
7, 30720, Note_off_c, 11, 41, 95
7, 30720, Note_on_c, 11, 43, 95
7, 33120, Note_off_c, 11, 43, 95
7, 33120, Note_on_c, 11, 38, 95
7, 33600, Note_off_c, 11, 38, 95
7, 33600, Note_on_c, 11, 43, 95
7, 33840, Note_off_c, 11, 43, 95
7, 33840, Note_on_c, 11, 38, 95
7, 34080, Note_off_c, 11, 38, 95
7, 34080, Note_on_c, 11, 36, 95
7, 34560, Note_off_c, 11, 36, 95
7, 34560, Note_on_c, 11, 35, 95
7, 36240, Note_off_c, 11, 35, 95
7, 36240, Note_on_c, 11, 42, 95
7, 36480, Note_off_c, 11, 42, 95
7, 36480, Note_on_c, 11, 47, 95
7, 36960, Note_off_c, 11, 47, 95
7, 36960, Note_on_c, 11, 47, 95
7, 37440, Note_off_c, 11, 47, 95
7, 37440, Note_on_c, 11, 47, 95
7, 37680, Note_off_c, 11, 47, 95
7, 37680, Note_on_c, 11, 46, 95
7, 37920, Note_off_c, 11, 46, 95
7, 37920, Note_on_c, 11, 47, 95
7, 38400, Note_off_c, 11, 47, 95
7, 38400, Note_on_c, 11, 48, 95
7, 39360, Note_on_c, 11, 36, 95
7, 40320, Note_off_c, 11, 48, 95
7, 40320, Note_off_c, 11, 36, 95
7, 40320, Note_on_c, 11, 36, 95
7, 40800, Note_off_c, 11, 36, 95
7, 40800, Note_on_c, 11, 35, 95
7, 41280, Note_off_c, 11, 35, 95
7, 41280, Note_on_c, 11, 36, 95
7, 41760, Note_off_c, 11, 36, 95
7, 41760, Note_on_c, 11, 37, 95
7, 42240, Note_off_c, 11, 37, 95
7, 42240, Note_on_c, 11, 38, 95
7, 43200, Note_off_c, 11, 38, 95
7, 43200, Note_on_c, 11, 52, 95
7, 43680, Note_off_c, 11, 52, 95
7, 43680, Note_on_c, 11, 50, 95
7, 44640, Note_off_c, 11, 50, 95
7, 44640, Note_on_c, 11, 47, 95
7, 45120, Note_off_c, 11, 47, 95
7, 45120, Note_on_c, 11, 45, 95
7, 46080, Note_off_c, 11, 45, 95
7, 46080, Note_on_c, 11, 43, 95
7, 48000, Note_off_c, 11, 43, 95
7, 48000, Note_on_c, 11, 43, 95
7, 48480, Note_off_c, 11, 43, 95
7, 48480, Note_on_c, 11, 42, 95
7, 48960, Note_off_c, 11, 42, 95
7, 48960, Note_on_c, 11, 43, 95
7, 49440, Note_off_c, 11, 43, 95
7, 49440, Note_on_c, 11, 45, 95
7, 49920, Note_off_c, 11, 45, 95
7, 49920, Note_on_c, 11, 52, 95
7, 51840, Note_off_c, 11, 52, 95
7, 51840, Note_on_c, 11, 52, 95
7, 52320, Note_off_c, 11, 52, 95
7, 52320, Note_on_c, 11, 47, 95
7, 52800, Note_off_c, 11, 47, 95
7, 52800, Note_on_c, 11, 52, 95
7, 53040, Note_off_c, 11, 52, 95
7, 53040, Note_on_c, 11, 47, 95
7, 53280, Note_off_c, 11, 47, 95
7, 53280, Note_on_c, 11, 46, 95
7, 53760, Note_off_c, 11, 46, 95
7, 53760, Note_on_c, 11, 45, 95
7, 54720, Note_off_c, 11, 45, 95
7, 54720, Note_on_c, 11, 45, 95
7, 55440, Note_off_c, 11, 45, 95
7, 55440, Note_on_c, 11, 40, 95
7, 55680, Note_off_c, 11, 40, 95
7, 55680, Note_on_c, 11, 45, 95
7, 56160, Note_off_c, 11, 45, 95
7, 56160, Note_on_c, 11, 45, 95
7, 56640, Note_off_c, 11, 45, 95
7, 56640, Note_on_c, 11, 45, 95
7, 57120, Note_off_c, 11, 45, 95
7, 57120, Note_on_c, 11, 33, 95
7, 57360, Note_off_c, 11, 33, 95
7, 57360, Note_on_c, 11, 35, 95
7, 57600, Note_off_c, 11, 35, 95
7, 57600, Note_on_c, 11, 36, 95
7, 59520, Note_off_c, 11, 36, 95
7, 59520, Note_on_c, 11, 36, 95
7, 60000, Note_off_c, 11, 36, 95
7, 60000, Note_on_c, 11, 35, 95
7, 60480, Note_off_c, 11, 35, 95
7, 60480, Note_on_c, 11, 36, 95
7, 60960, Note_off_c, 11, 36, 95
7, 60960, Note_on_c, 11, 40, 95
7, 61200, Note_off_c, 11, 40, 95
7, 61200, Note_on_c, 11, 42, 95
7, 61440, Note_off_c, 11, 42, 95
7, 61440, Note_on_c, 11, 43, 95
7, 63840, Note_off_c, 11, 43, 95
7, 63840, Note_on_c, 11, 38, 95
7, 64320, Note_off_c, 11, 38, 95
7, 64320, Note_on_c, 11, 43, 95
7, 64560, Note_off_c, 11, 43, 95
7, 64560, Note_on_c, 11, 38, 95
7, 64800, Note_off_c, 11, 38, 95
7, 64800, Note_on_c, 11, 36, 95
7, 65280, Note_off_c, 11, 36, 95
7, 65280, Note_on_c, 11, 35, 95
7, 66960, Note_off_c, 11, 35, 95
7, 66960, Note_on_c, 11, 42, 95
7, 67200, Note_off_c, 11, 42, 95
7, 67200, Note_on_c, 11, 47, 95
7, 67680, Note_off_c, 11, 47, 95
7, 67680, Note_on_c, 11, 47, 95
7, 68160, Note_off_c, 11, 47, 95
7, 68160, Note_on_c, 11, 47, 95
7, 68400, Note_off_c, 11, 47, 95
7, 68400, Note_on_c, 11, 46, 95
7, 68640, Note_off_c, 11, 46, 95
7, 68640, Note_on_c, 11, 47, 95
7, 69120, Note_off_c, 11, 47, 95
7, 69120, Note_on_c, 11, 48, 95
7, 71040, Note_off_c, 11, 48, 95
7, 71040, Note_on_c, 11, 36, 95
7, 71520, Note_off_c, 11, 36, 95
7, 71520, Note_on_c, 11, 35, 95
7, 72000, Note_off_c, 11, 35, 95
7, 72000, Note_on_c, 11, 36, 95
7, 72480, Note_off_c, 11, 36, 95
7, 72480, Note_on_c, 11, 37, 95
7, 72960, Note_off_c, 11, 37, 95
7, 72960, Note_on_c, 11, 38, 95
7, 73920, Note_off_c, 11, 38, 95
7, 73920, Note_on_c, 11, 52, 95
7, 74400, Note_off_c, 11, 52, 95
7, 74400, Note_on_c, 11, 50, 95
7, 75360, Note_off_c, 11, 50, 95
7, 75360, Note_on_c, 11, 47, 95
7, 75840, Note_off_c, 11, 47, 95
7, 75840, Note_on_c, 11, 45, 95
7, 76800, Note_off_c, 11, 45, 95
7, 76800, Note_on_c, 11, 43, 95
7, 77760, Note_off_c, 11, 43, 95
7, 77760, Note_on_c, 11, 43, 95
7, 78240, Note_off_c, 11, 43, 95
7, 78240, Note_on_c, 11, 43, 95
7, 78480, Note_off_c, 11, 43, 95
7, 78480, Note_on_c, 11, 43, 95
7, 78720, Note_off_c, 11, 43, 95
7, 78720, Note_on_c, 11, 43, 95
7, 79200, Note_off_c, 11, 43, 95
7, 79200, Note_on_c, 11, 42, 95
7, 79680, Note_off_c, 11, 42, 95
7, 79680, Note_on_c, 11, 43, 95
7, 80160, Note_off_c, 11, 43, 95
7, 80160, Note_on_c, 11, 50, 95
7, 80400, Note_off_c, 11, 50, 95
7, 80400, Note_on_c, 11, 51, 95
7, 80640, Note_off_c, 11, 51, 95
7, 80640, Note_on_c, 11, 52, 95
7, 82320, Note_off_c, 11, 52, 95
7, 82320, Note_on_c, 11, 52, 95
7, 82560, Note_off_c, 11, 52, 95
7, 82560, Note_on_c, 11, 52, 95
7, 83040, Note_off_c, 11, 52, 95
7, 83040, Note_on_c, 11, 52, 95
7, 83520, Note_off_c, 11, 52, 95
7, 83520, Note_on_c, 11, 47, 95
7, 84000, Note_off_c, 11, 47, 95
7, 84000, Note_on_c, 11, 46, 95
7, 84480, Note_off_c, 11, 46, 95
7, 84480, Note_on_c, 11, 45, 95
7, 86160, Note_off_c, 11, 45, 95
7, 86160, Note_on_c, 11, 40, 95
7, 86400, Note_off_c, 11, 40, 95
7, 86400, Note_on_c, 11, 45, 95
7, 86880, Note_off_c, 11, 45, 95
7, 86880, Note_on_c, 11, 45, 95
7, 87360, Note_off_c, 11, 45, 95
7, 87360, Note_on_c, 11, 45, 95
7, 87840, Note_off_c, 11, 45, 95
7, 87840, Note_on_c, 11, 33, 95
7, 88080, Note_off_c, 11, 33, 95
7, 88080, Note_on_c, 11, 35, 95
7, 88320, Note_off_c, 11, 35, 95
7, 88320, Note_on_c, 11, 36, 95
7, 90240, Note_off_c, 11, 36, 95
7, 90240, Note_on_c, 11, 36, 95
7, 90720, Note_off_c, 11, 36, 95
7, 90720, Note_on_c, 11, 35, 95
7, 91200, Note_off_c, 11, 35, 95
7, 91200, Note_on_c, 11, 36, 95
7, 91680, Note_off_c, 11, 36, 95
7, 91680, Note_on_c, 11, 38, 95
7, 92160, Note_off_c, 11, 38, 95
7, 92160, Note_on_c, 11, 45, 95
7, 92400, Note_off_c, 11, 45, 95
7, 92400, Note_on_c, 11, 45, 95
7, 92640, Note_off_c, 11, 45, 95
7, 92640, Note_on_c, 11, 45, 95
7, 92880, Note_off_c, 11, 45, 95
7, 92880, Note_on_c, 11, 45, 95
7, 93120, Note_off_c, 11, 45, 95
7, 93120, Note_on_c, 11, 45, 95
7, 94080, Note_off_c, 11, 45, 95
7, 94080, Note_on_c, 11, 43, 95
7, 94320, Note_off_c, 11, 43, 95
7, 94320, Note_on_c, 11, 43, 95
7, 94560, Note_off_c, 11, 43, 95
7, 94560, Note_on_c, 11, 43, 95
7, 94800, Note_off_c, 11, 43, 95
7, 94800, Note_on_c, 11, 43, 95
7, 95040, Note_off_c, 11, 43, 95
7, 95040, Note_on_c, 11, 43, 95
7, 96000, Note_off_c, 11, 43, 95
7, 96000, Note_on_c, 11, 41, 95
7, 96480, Note_off_c, 11, 41, 95
7, 96480, Note_on_c, 11, 40, 95
7, 96960, Note_off_c, 11, 40, 95
7, 96960, Note_on_c, 11, 41, 95
7, 97440, Note_off_c, 11, 41, 95
7, 97440, Note_on_c, 11, 40, 95
7, 97920, Note_off_c, 11, 40, 95
7, 97920, Note_on_c, 11, 41, 95
7, 98400, Note_off_c, 11, 41, 95
7, 98400, Note_on_c, 11, 40, 95
7, 98880, Note_off_c, 11, 40, 95
7, 98880, Note_on_c, 11, 41, 95
7, 99360, Note_off_c, 11, 41, 95
7, 99360, Note_on_c, 11, 43, 95
7, 99840, Note_off_c, 11, 43, 95
7, 99840, Note_on_c, 11, 45, 95
7, 100080, Note_off_c, 11, 45, 95
7, 100080, Note_on_c, 11, 45, 95
7, 100320, Note_off_c, 11, 45, 95
7, 100320, Note_on_c, 11, 45, 95
7, 100560, Note_off_c, 11, 45, 95
7, 100560, Note_on_c, 11, 45, 95
7, 100800, Note_off_c, 11, 45, 95
7, 100800, Note_on_c, 12, 45, 95
7, 100920, Pitch_bend_c, 12, 7680
7, 101040, Pitch_bend_c, 12, 7040
7, 101160, Pitch_bend_c, 12, 6528
7, 101280, Pitch_bend_c, 12, 5888
7, 101400, Pitch_bend_c, 12, 5376
7, 101520, Pitch_bend_c, 12, 4736
7, 101520, Pitch_bend_c, 12, 8192
7, 101520, Note_off_c, 12, 45, 95
7, 101520, Note_on_c, 12, 40, 95
7, 101640, Pitch_bend_c, 12, 9216
7, 101760, Pitch_bend_c, 12, 10240
7, 101760, Pitch_bend_c, 12, 8192
7, 101760, Note_off_c, 12, 40, 95
7, 101760, Note_on_c, 11, 43, 95
7, 102000, Note_off_c, 11, 43, 95
7, 102000, Note_on_c, 11, 43, 95
7, 102240, Note_off_c, 11, 43, 95
7, 102240, Note_on_c, 11, 43, 95
7, 102480, Note_off_c, 11, 43, 95
7, 102480, Note_on_c, 11, 43, 95
7, 102720, Note_off_c, 11, 43, 95
7, 102720, Note_on_c, 11, 43, 95
7, 103680, Note_off_c, 11, 43, 95
7, 103680, Note_on_c, 11, 41, 95
7, 104160, Note_off_c, 11, 41, 95
7, 104160, Note_on_c, 11, 40, 95
7, 104640, Note_off_c, 11, 40, 95
7, 104640, Note_on_c, 11, 41, 95
7, 105120, Note_off_c, 11, 41, 95
7, 105120, Note_on_c, 11, 40, 95
7, 105600, Note_off_c, 11, 40, 95
7, 105600, Note_on_c, 11, 41, 95
7, 106080, Note_off_c, 11, 41, 95
7, 106080, Note_on_c, 11, 40, 95
7, 106560, Note_off_c, 11, 40, 95
7, 106560, Note_on_c, 11, 41, 95
7, 107040, Note_off_c, 11, 41, 95
7, 107040, Note_on_c, 11, 43, 95
7, 107520, Note_off_c, 11, 43, 95
7, 107520, Note_on_c, 11, 45, 95
7, 107760, Note_off_c, 11, 45, 95
7, 107760, Note_on_c, 11, 45, 95
7, 108000, Note_off_c, 11, 45, 95
7, 108000, Note_on_c, 11, 45, 95
7, 108240, Note_off_c, 11, 45, 95
7, 108240, Note_on_c, 11, 45, 95
7, 108480, Note_off_c, 11, 45, 95
7, 108480, Note_on_c, 11, 45, 95
7, 109440, Note_off_c, 11, 45, 95
7, 109440, Note_on_c, 11, 43, 95
7, 109680, Note_off_c, 11, 43, 95
7, 109680, Note_on_c, 11, 43, 95
7, 109920, Note_off_c, 11, 43, 95
7, 109920, Note_on_c, 11, 43, 95
7, 110160, Note_off_c, 11, 43, 95
7, 110160, Note_on_c, 11, 43, 95
7, 110400, Note_off_c, 11, 43, 95
7, 110400, Note_on_c, 11, 43, 95
7, 111360, Note_off_c, 11, 43, 95
7, 111360, Note_on_c, 11, 41, 95
7, 111840, Note_off_c, 11, 41, 95
7, 111840, Note_on_c, 11, 40, 95
7, 112320, Note_off_c, 11, 40, 95
7, 112320, Note_on_c, 11, 41, 95
7, 112800, Note_off_c, 11, 41, 95
7, 112800, Note_on_c, 11, 40, 95
7, 113280, Note_off_c, 11, 40, 95
7, 113280, Note_on_c, 11, 41, 95
7, 113760, Note_off_c, 11, 41, 95
7, 113760, Note_on_c, 11, 40, 95
7, 114240, Note_off_c, 11, 40, 95
7, 114240, Note_on_c, 11, 41, 95
7, 114720, Note_off_c, 11, 41, 95
7, 114720, Note_on_c, 11, 43, 95
7, 115200, Note_off_c, 11, 43, 95
7, 115200, Note_on_c, 11, 38, 95
7, 115920, Note_off_c, 11, 38, 95
7, 115920, Note_on_c, 11, 45, 95
7, 116160, Note_off_c, 11, 45, 95
7, 116160, Note_on_c, 11, 50, 95
7, 116880, Note_off_c, 11, 50, 95
7, 116880, Note_on_c, 11, 45, 95
7, 117120, Note_off_c, 11, 45, 95
7, 117120, Note_on_c, 11, 50, 95
7, 117360, Note_off_c, 11, 50, 95
7, 117360, Note_on_c, 11, 48, 95
7, 117600, Note_off_c, 11, 48, 95
7, 117600, Note_on_c, 11, 45, 95
7, 118080, Note_off_c, 11, 45, 95
7, 118080, Note_on_c, 11, 45, 95
7, 118560, Note_off_c, 11, 45, 95
7, 118560, Note_on_c, 12, 45, 95
7, 118680, Pitch_bend_c, 12, 7168
7, 118800, Pitch_bend_c, 12, 6144
7, 118800, Pitch_bend_c, 12, 8192
7, 118800, Note_off_c, 12, 45, 95
7, 118800, Note_on_c, 11, 42, 95
7, 119040, Note_off_c, 11, 42, 95
7, 119040, Note_on_c, 11, 40, 95
7, 119520, Note_off_c, 11, 40, 95
7, 119520, Note_on_c, 11, 40, 95
7, 120000, Note_off_c, 11, 40, 95
7, 120000, Note_on_c, 11, 40, 95
7, 120480, Note_off_c, 11, 40, 95
7, 120480, Note_on_c, 11, 40, 95
7, 121440, Note_off_c, 11, 40, 95
7, 121440, Note_on_c, 11, 40, 95
7, 121920, Note_off_c, 11, 40, 95
7, 121920, Note_on_c, 11, 40, 95
7, 122400, Note_off_c, 11, 40, 95
7, 122400, Note_on_c, 11, 42, 95
7, 122880, Note_off_c, 11, 42, 95
7, 122880, Note_on_c, 11, 43, 95
7, 124320, Note_off_c, 11, 43, 95
7, 124800, Note_on_c, 11, 38, 95
7, 125760, Note_on_c, 11, 45, 95
7, 126720, Note_off_c, 11, 38, 95
7, 126720, Note_off_c, 11, 45, 95
7, 126720, Note_on_c, 11, 36, 95
7, 128160, Note_off_c, 11, 36, 95
7, 128160, Note_on_c, 11, 35, 95
7, 129600, Note_off_c, 11, 35, 95
7, 129600, Note_on_c, 11, 33, 95
7, 130080, Note_off_c, 11, 33, 95
7, 130080, Note_on_c, 12, 41, 95
7, 130200, Pitch_bend_c, 12, 8448
7, 130320, Pitch_bend_c, 12, 8832
7, 130320, Pitch_bend_c, 12, 8192
7, 130320, Note_off_c, 12, 41, 95
7, 130320, Note_on_c, 11, 42, 95
7, 130560, Note_off_c, 11, 42, 95
7, 130560, Note_on_c, 11, 43, 95
7, 132000, Note_off_c, 11, 43, 95
7, 132480, Note_on_c, 11, 38, 95
7, 133440, Note_on_c, 11, 45, 95
7, 134400, Note_off_c, 11, 38, 95
7, 134400, Note_off_c, 11, 45, 95
7, 134400, Note_on_c, 11, 36, 95
7, 135840, Note_off_c, 11, 36, 95
7, 135840, Note_on_c, 11, 35, 95
7, 137280, Note_off_c, 11, 35, 95
7, 137280, Note_on_c, 11, 33, 95
7, 137760, Note_off_c, 11, 33, 95
7, 137760, Note_on_c, 12, 41, 95
7, 137880, Pitch_bend_c, 12, 8448
7, 138000, Pitch_bend_c, 12, 8832
7, 138000, Pitch_bend_c, 12, 8192
7, 138000, Note_off_c, 12, 41, 95
7, 138000, Note_on_c, 11, 42, 95
7, 138240, Note_off_c, 11, 42, 95
7, 138240, Note_on_c, 11, 43, 95
7, 140640, Note_off_c, 11, 43, 95
7, 140640, Note_on_c, 11, 38, 95
7, 141120, Note_off_c, 11, 38, 95
7, 141120, Note_on_c, 11, 43, 95
7, 141360, Note_off_c, 11, 43, 95
7, 141360, Note_on_c, 11, 38, 95
7, 141600, Note_off_c, 11, 38, 95
7, 141600, Note_on_c, 11, 36, 95
7, 142080, Note_off_c, 11, 36, 95
7, 142080, Note_on_c, 11, 35, 95
7, 143760, Note_off_c, 11, 35, 95
7, 143760, Note_on_c, 11, 42, 95
7, 144000, Note_off_c, 11, 42, 95
7, 144000, Note_on_c, 11, 47, 95
7, 144480, Note_off_c, 11, 47, 95
7, 144480, Note_on_c, 11, 47, 95
7, 144960, Note_off_c, 11, 47, 95
7, 144960, Note_on_c, 11, 47, 95
7, 145440, Note_off_c, 11, 47, 95
7, 145440, Note_on_c, 11, 35, 95
7, 145920, Note_off_c, 11, 35, 95
7, 145920, Note_on_c, 11, 36, 95
7, 147840, Note_off_c, 11, 36, 95
7, 147840, Note_on_c, 11, 36, 95
7, 148320, Note_off_c, 11, 36, 95
7, 148320, Note_on_c, 11, 35, 95
7, 148800, Note_off_c, 11, 35, 95
7, 148800, Note_on_c, 11, 36, 95
7, 149280, Note_off_c, 11, 36, 95
7, 149280, Note_on_c, 11, 37, 95
7, 149760, Note_off_c, 11, 37, 95
7, 149760, Note_on_c, 11, 38, 95
7, 150720, Note_off_c, 11, 38, 95
7, 150720, Note_on_c, 11, 52, 95
7, 151200, Note_off_c, 11, 52, 95
7, 151200, Note_on_c, 11, 50, 95
7, 152160, Note_off_c, 11, 50, 95
7, 152160, Note_on_c, 11, 47, 95
7, 152640, Note_off_c, 11, 47, 95
7, 152640, Note_on_c, 11, 45, 95
7, 153600, Note_off_c, 11, 45, 95
7, 153600, Note_on_c, 11, 43, 95
7, 155040, Note_off_c, 11, 43, 95
7, 155040, Note_on_c, 11, 43, 95
7, 155280, Note_off_c, 11, 43, 95
7, 155280, Note_on_c, 11, 43, 95
7, 155520, Note_off_c, 11, 43, 95
7, 155520, Note_on_c, 11, 43, 95
7, 155760, Note_off_c, 11, 43, 95
7, 155760, Note_on_c, 11, 42, 95
7, 156000, Note_off_c, 11, 42, 95
7, 156000, Note_on_c, 11, 43, 95
7, 156480, Note_off_c, 11, 43, 95
7, 156480, Note_on_c, 11, 43, 95
7, 156960, Note_off_c, 11, 43, 95
7, 156960, Note_on_c, 11, 50, 95
7, 157200, Note_off_c, 11, 50, 95
7, 157200, Note_on_c, 11, 51, 95
7, 157440, Note_off_c, 11, 51, 95
7, 157440, Note_on_c, 11, 52, 95
7, 159120, Note_off_c, 11, 52, 95
7, 159120, Note_on_c, 11, 40, 95
7, 159360, Note_off_c, 11, 40, 95
7, 159360, Note_on_c, 11, 52, 95
7, 159840, Note_off_c, 11, 52, 95
7, 159840, Note_on_c, 11, 52, 95
7, 160320, Note_off_c, 11, 52, 95
7, 160320, Note_on_c, 11, 43, 95
7, 160800, Note_off_c, 11, 43, 95
7, 160800, Note_on_c, 11, 44, 95
7, 161280, Note_off_c, 11, 44, 95
7, 161280, Note_on_c, 11, 45, 95
7, 162960, Note_off_c, 11, 45, 95
7, 162960, Note_on_c, 11, 40, 95
7, 163200, Note_off_c, 11, 40, 95
7, 163200, Note_on_c, 11, 45, 95
7, 163680, Note_off_c, 11, 45, 95
7, 163680, Note_on_c, 11, 45, 95
7, 164160, Note_off_c, 11, 45, 95
7, 164160, Note_on_c, 11, 45, 95
7, 164640, Note_off_c, 11, 45, 95
7, 164640, Note_on_c, 11, 33, 95
7, 164880, Note_off_c, 11, 33, 95
7, 164880, Note_on_c, 11, 35, 95
7, 165120, Note_off_c, 11, 35, 95
7, 165120, Note_on_c, 11, 36, 95
7, 167040, Note_off_c, 11, 36, 95
7, 167040, Note_on_c, 11, 36, 95
7, 167280, Note_off_c, 11, 36, 95
7, 167280, Note_on_c, 11, 35, 95
7, 167520, Note_off_c, 11, 35, 95
7, 167520, Note_on_c, 11, 36, 95
7, 167760, Note_off_c, 11, 36, 95
7, 167760, Note_on_c, 11, 36, 95
7, 168000, Note_off_c, 11, 36, 95
7, 168000, Note_on_c, 11, 36, 95
7, 168480, Note_off_c, 11, 36, 95
7, 168480, Note_on_c, 11, 38, 95
7, 168960, Note_off_c, 11, 38, 95
7, 168960, Note_on_c, 11, 45, 95
7, 169200, Note_off_c, 11, 45, 95
7, 169200, Note_on_c, 11, 45, 95
7, 169440, Note_off_c, 11, 45, 95
7, 169440, Note_on_c, 11, 45, 95
7, 169680, Note_off_c, 11, 45, 95
7, 169680, Note_on_c, 11, 45, 95
7, 169920, Note_off_c, 11, 45, 95
7, 169920, Note_on_c, 11, 45, 95
7, 170880, Note_off_c, 11, 45, 95
7, 170880, Note_on_c, 11, 43, 95
7, 171120, Note_off_c, 11, 43, 95
7, 171120, Note_on_c, 11, 43, 95
7, 171360, Note_off_c, 11, 43, 95
7, 171360, Note_on_c, 11, 43, 95
7, 171600, Note_off_c, 11, 43, 95
7, 171600, Note_on_c, 11, 43, 95
7, 171840, Note_off_c, 11, 43, 95
7, 171840, Note_on_c, 11, 43, 95
7, 172800, Note_off_c, 11, 43, 95
7, 172800, Note_on_c, 11, 41, 95
7, 173280, Note_off_c, 11, 41, 95
7, 173280, Note_on_c, 11, 40, 95
7, 173760, Note_off_c, 11, 40, 95
7, 173760, Note_on_c, 11, 41, 95
7, 174240, Note_off_c, 11, 41, 95
7, 174240, Note_on_c, 11, 40, 95
7, 174720, Note_off_c, 11, 40, 95
7, 174720, Note_on_c, 11, 41, 95
7, 175200, Note_off_c, 11, 41, 95
7, 175200, Note_on_c, 11, 40, 95
7, 175680, Note_off_c, 11, 40, 95
7, 175680, Note_on_c, 11, 41, 95
7, 176160, Note_off_c, 11, 41, 95
7, 176160, Note_on_c, 11, 43, 95
7, 176640, Note_off_c, 11, 43, 95
7, 176640, Note_on_c, 11, 45, 95
7, 176880, Note_off_c, 11, 45, 95
7, 176880, Note_on_c, 11, 45, 95
7, 177120, Note_off_c, 11, 45, 95
7, 177120, Note_on_c, 11, 45, 95
7, 177360, Note_off_c, 11, 45, 95
7, 177360, Note_on_c, 11, 45, 95
7, 177600, Note_off_c, 11, 45, 95
7, 177600, Note_on_c, 12, 45, 95
7, 177720, Pitch_bend_c, 12, 7680
7, 177840, Pitch_bend_c, 12, 7040
7, 177960, Pitch_bend_c, 12, 6528
7, 178080, Pitch_bend_c, 12, 5888
7, 178200, Pitch_bend_c, 12, 5376
7, 178320, Pitch_bend_c, 12, 4736
7, 178320, Pitch_bend_c, 12, 8192
7, 178320, Note_off_c, 12, 45, 95
7, 178320, Note_on_c, 12, 40, 95
7, 178440, Pitch_bend_c, 12, 9216
7, 178560, Pitch_bend_c, 12, 10240
7, 178560, Pitch_bend_c, 12, 8192
7, 178560, Note_off_c, 12, 40, 95
7, 178560, Note_on_c, 11, 43, 95
7, 178800, Note_off_c, 11, 43, 95
7, 178800, Note_on_c, 11, 43, 95
7, 179040, Note_off_c, 11, 43, 95
7, 179040, Note_on_c, 11, 43, 95
7, 179280, Note_off_c, 11, 43, 95
7, 179280, Note_on_c, 11, 43, 95
7, 179520, Note_off_c, 11, 43, 95
7, 179520, Note_on_c, 11, 43, 95
7, 180480, Note_off_c, 11, 43, 95
7, 180480, Note_on_c, 11, 41, 95
7, 180960, Note_off_c, 11, 41, 95
7, 180960, Note_on_c, 11, 40, 95
7, 181440, Note_off_c, 11, 40, 95
7, 181440, Note_on_c, 11, 41, 95
7, 181920, Note_off_c, 11, 41, 95
7, 181920, Note_on_c, 11, 40, 95
7, 182400, Note_off_c, 11, 40, 95
7, 182400, Note_on_c, 11, 41, 95
7, 182880, Note_off_c, 11, 41, 95
7, 182880, Note_on_c, 11, 40, 95
7, 183360, Note_off_c, 11, 40, 95
7, 183360, Note_on_c, 11, 41, 95
7, 183840, Note_off_c, 11, 41, 95
7, 183840, Note_on_c, 11, 43, 95
7, 184320, Note_off_c, 11, 43, 95
7, 184320, Note_on_c, 11, 45, 95
7, 184560, Note_off_c, 11, 45, 95
7, 184560, Note_on_c, 11, 45, 95
7, 184800, Note_off_c, 11, 45, 95
7, 184800, Note_on_c, 11, 45, 95
7, 185040, Note_off_c, 11, 45, 95
7, 185040, Note_on_c, 11, 45, 95
7, 185280, Note_off_c, 11, 45, 95
7, 185280, Note_on_c, 11, 45, 95
7, 186240, Note_off_c, 11, 45, 95
7, 186240, Note_on_c, 11, 43, 95
7, 186480, Note_off_c, 11, 43, 95
7, 186480, Note_on_c, 11, 43, 95
7, 186720, Note_off_c, 11, 43, 95
7, 186720, Note_on_c, 11, 43, 95
7, 186960, Note_off_c, 11, 43, 95
7, 186960, Note_on_c, 11, 43, 95
7, 187200, Note_off_c, 11, 43, 95
7, 187200, Note_on_c, 11, 43, 95
7, 188160, Note_off_c, 11, 43, 95
7, 188160, Note_on_c, 11, 41, 95
7, 188640, Note_off_c, 11, 41, 95
7, 188640, Note_on_c, 11, 40, 95
7, 189120, Note_off_c, 11, 40, 95
7, 189120, Note_on_c, 11, 41, 95
7, 189600, Note_off_c, 11, 41, 95
7, 189600, Note_on_c, 11, 40, 95
7, 190080, Note_off_c, 11, 40, 95
7, 190080, Note_on_c, 11, 41, 95
7, 190560, Note_off_c, 11, 41, 95
7, 190560, Note_on_c, 11, 40, 95
7, 191040, Note_off_c, 11, 40, 95
7, 191040, Note_on_c, 11, 41, 95
7, 191520, Note_off_c, 11, 41, 95
7, 191520, Note_on_c, 11, 43, 95
7, 192000, Note_off_c, 11, 43, 95
7, 192000, Note_on_c, 11, 38, 95
7, 192720, Note_off_c, 11, 38, 95
7, 192720, Note_on_c, 11, 45, 95
7, 192960, Note_off_c, 11, 45, 95
7, 192960, Note_on_c, 11, 50, 95
7, 193680, Note_off_c, 11, 50, 95
7, 193680, Note_on_c, 11, 45, 95
7, 193920, Note_off_c, 11, 45, 95
7, 193920, Note_on_c, 11, 50, 95
7, 194160, Note_off_c, 11, 50, 95
7, 194160, Note_on_c, 11, 48, 95
7, 194400, Note_off_c, 11, 48, 95
7, 194400, Note_on_c, 11, 45, 95
7, 194880, Note_off_c, 11, 45, 95
7, 194880, Note_on_c, 11, 45, 95
7, 195360, Note_off_c, 11, 45, 95
7, 195360, Note_on_c, 12, 45, 95
7, 195480, Pitch_bend_c, 12, 7168
7, 195600, Pitch_bend_c, 12, 6144
7, 195600, Pitch_bend_c, 12, 8192
7, 195600, Note_off_c, 12, 45, 95
7, 195600, Note_on_c, 11, 42, 95
7, 195840, Note_off_c, 11, 42, 95
7, 195840, Note_on_c, 11, 40, 95
7, 196320, Note_off_c, 11, 40, 95
7, 196320, Note_on_c, 11, 40, 95
7, 196800, Note_off_c, 11, 40, 95
7, 196800, Note_on_c, 11, 40, 95
7, 197280, Note_off_c, 11, 40, 95
7, 197280, Note_on_c, 11, 40, 95
7, 198240, Note_off_c, 11, 40, 95
7, 198240, Note_on_c, 11, 40, 95
7, 198720, Note_off_c, 11, 40, 95
7, 198720, Note_on_c, 11, 40, 95
7, 199200, Note_off_c, 11, 40, 95
7, 199200, Note_on_c, 11, 42, 95
7, 199680, Note_off_c, 11, 42, 95
7, 199680, Note_on_c, 11, 43, 95
7, 201120, Note_off_c, 11, 43, 95
7, 201600, Note_on_c, 11, 38, 95
7, 202560, Note_on_c, 11, 45, 95
7, 203520, Note_off_c, 11, 38, 95
7, 203520, Note_off_c, 11, 45, 95
7, 203520, Note_on_c, 11, 36, 95
7, 204960, Note_off_c, 11, 36, 95
7, 204960, Note_on_c, 11, 35, 95
7, 206400, Note_off_c, 11, 35, 95
7, 206400, Note_on_c, 11, 33, 95
7, 206880, Note_off_c, 11, 33, 95
7, 206880, Note_on_c, 12, 41, 95
7, 207000, Pitch_bend_c, 12, 8448
7, 207120, Pitch_bend_c, 12, 8832
7, 207120, Pitch_bend_c, 12, 8192
7, 207120, Note_off_c, 12, 41, 95
7, 207120, Note_on_c, 11, 42, 95
7, 207360, Note_off_c, 11, 42, 95
7, 207360, Note_on_c, 11, 43, 95
7, 208800, Note_off_c, 11, 43, 95
7, 209280, Note_on_c, 11, 38, 95
7, 210240, Note_on_c, 11, 45, 95
7, 211200, Note_off_c, 11, 38, 95
7, 211200, Note_off_c, 11, 45, 95
7, 211200, Note_on_c, 11, 36, 95
7, 212640, Note_off_c, 11, 36, 95
7, 212640, Note_on_c, 11, 35, 95
7, 214080, Note_off_c, 11, 35, 95
7, 214080, Note_on_c, 11, 33, 95
7, 214560, Note_off_c, 11, 33, 95
7, 214560, Note_on_c, 12, 41, 95
7, 214680, Pitch_bend_c, 12, 8448
7, 214800, Pitch_bend_c, 12, 8832
7, 214800, Pitch_bend_c, 12, 8192
7, 214800, Note_off_c, 12, 41, 95
7, 214800, Note_on_c, 11, 42, 95
7, 215040, Note_off_c, 11, 42, 95
7, 215040, Note_on_c, 11, 43, 95
7, 216480, Note_off_c, 11, 43, 95
7, 216960, Note_on_c, 11, 38, 95
7, 217920, Note_on_c, 11, 45, 95
7, 218880, Note_off_c, 11, 38, 95
7, 218880, Note_off_c, 11, 45, 95
7, 218880, Note_on_c, 11, 36, 95
7, 220320, Note_off_c, 11, 36, 95
7, 220320, Note_on_c, 11, 35, 95
7, 221760, Note_off_c, 11, 35, 95
7, 221760, Note_on_c, 11, 33, 95
7, 222240, Note_off_c, 11, 33, 95
7, 222240, Note_on_c, 11, 41, 95
7, 222720, Note_off_c, 11, 41, 95
7, 222720, Note_on_c, 11, 43, 95
7, 224160, Note_off_c, 11, 43, 95
7, 224640, Note_on_c, 11, 38, 95
7, 225360, Note_off_c, 11, 38, 95
7, 225360, Note_on_c, 11, 38, 95
7, 225600, Note_on_c, 11, 45, 95
7, 226560, Note_off_c, 11, 38, 95
7, 226560, Note_off_c, 11, 45, 95
7, 226560, Note_on_c, 11, 36, 95
7, 230400, Note_off_c, 11, 36, 95
7, 230400, Note_on_c, 11, 43, 95
7, 232320, Note_off_c, 11, 43, 95
7, 232320, Note_on_c, 11, 31, 95
7, 232560, Note_off_c, 11, 31, 95
7, 232560, Note_on_c, 11, 32, 95
7, 232800, Note_off_c, 11, 32, 95
7, 232800, Note_on_c, 11, 31, 95
7, 233040, Note_off_c, 11, 31, 95
7, 233040, Note_on_c, 11, 32, 95
7, 233280, Note_off_c, 11, 32, 95
7, 233280, Note_on_c, 11, 43, 95
7, 233520, Note_off_c, 11, 43, 95
7, 233520, Note_on_c, 11, 44, 95
7, 233760, Note_off_c, 11, 44, 95
7, 233760, Note_on_c, 11, 43, 95
7, 234000, Note_off_c, 11, 43, 95
7, 234000, Note_on_c, 11, 44, 95
7, 234240, Note_off_c, 11, 44, 95
7, 234240, Note_on_c, 11, 31, 95
7, 241920, Note_off_c, 11, 31, 95
7, 241920, End_track
8, 0, Start_track
8, 0, Pitch_bend_c, 9, 8192
8, 0, Control_c, 9, 7, 103
8, 0, Control_c, 9, 10, 39
8, 0, Control_c, 9, 93, 0
8, 0, Control_c, 9, 91, 0
8, 0, Control_c, 9, 95, 0
8, 0, Control_c, 9, 92, 0
8, 0, Control_c, 9, 11, 127
8, 0, Program_c, 9, 0
8, 7680, Note_on_c, 9, 49, 95
8, 7680, Note_on_c, 9, 36, 95
8, 8160, Note_off_c, 9, 49, 95
8, 8160, Note_on_c, 9, 42, 95
8, 8640, Note_off_c, 9, 36, 95
8, 8640, Note_off_c, 9, 42, 95
8, 8640, Note_on_c, 9, 42, 95
8, 8640, Note_on_c, 9, 40, 95
8, 9120, Note_off_c, 9, 42, 95
8, 9120, Note_on_c, 9, 42, 95
8, 9600, Note_off_c, 9, 40, 95
8, 9600, Note_off_c, 9, 42, 95
8, 9600, Note_on_c, 9, 49, 95
8, 9600, Note_on_c, 9, 36, 95
8, 10080, Note_off_c, 9, 49, 95
8, 10080, Note_on_c, 9, 42, 95
8, 10560, Note_off_c, 9, 36, 95
8, 10560, Note_off_c, 9, 42, 95
8, 10560, Note_on_c, 9, 42, 95
8, 10560, Note_on_c, 9, 40, 95
8, 11040, Note_off_c, 9, 42, 95
8, 11040, Note_on_c, 9, 42, 95
8, 11520, Note_off_c, 9, 40, 95
8, 11520, Note_off_c, 9, 42, 95
8, 11520, Note_on_c, 9, 49, 95
8, 11520, Note_on_c, 9, 36, 95
8, 12000, Note_off_c, 9, 49, 95
8, 12000, Note_on_c, 9, 42, 95
8, 12480, Note_off_c, 9, 36, 95
8, 12480, Note_off_c, 9, 42, 95
8, 12480, Note_on_c, 9, 42, 95
8, 12480, Note_on_c, 9, 40, 95
8, 12960, Note_off_c, 9, 42, 95
8, 12960, Note_off_c, 9, 40, 95
8, 12960, Note_on_c, 9, 49, 95
8, 12960, Note_on_c, 9, 36, 95
8, 13440, Note_off_c, 9, 49, 95
8, 13440, Note_on_c, 9, 42, 95
8, 13920, Note_off_c, 9, 36, 95
8, 13920, Note_off_c, 9, 42, 95
8, 13920, Note_on_c, 9, 42, 95
8, 13920, Note_on_c, 9, 40, 95
8, 14400, Note_off_c, 9, 42, 95
8, 14400, Note_off_c, 9, 40, 95
8, 14400, Note_on_c, 9, 42, 95
8, 14400, Note_on_c, 9, 40, 95
8, 14640, Note_off_c, 9, 40, 95
8, 14640, Note_on_c, 9, 40, 95
8, 14880, Note_off_c, 9, 40, 95
8, 14880, Note_on_c, 9, 40, 95
8, 15360, Note_off_c, 9, 42, 95
8, 15360, Note_off_c, 9, 40, 95
8, 15360, Note_on_c, 9, 49, 95
8, 15360, Note_on_c, 9, 36, 95
8, 15840, Note_off_c, 9, 49, 95
8, 15840, Note_on_c, 9, 42, 95
8, 16320, Note_off_c, 9, 36, 95
8, 16320, Note_off_c, 9, 42, 95
8, 16320, Note_on_c, 9, 42, 95
8, 16320, Note_on_c, 9, 40, 95
8, 16800, Note_off_c, 9, 42, 95
8, 16800, Note_on_c, 9, 42, 95
8, 17040, Note_off_c, 9, 40, 95
8, 17040, Note_on_c, 9, 36, 95
8, 17280, Note_off_c, 9, 42, 95
8, 17280, Note_off_c, 9, 36, 95
8, 17280, Note_on_c, 9, 49, 95
8, 17280, Note_on_c, 9, 36, 95
8, 17760, Note_off_c, 9, 49, 95
8, 17760, Note_on_c, 9, 42, 95
8, 18240, Note_off_c, 9, 36, 95
8, 18240, Note_off_c, 9, 42, 95
8, 18240, Note_on_c, 9, 42, 95
8, 18240, Note_on_c, 9, 40, 95
8, 18720, Note_off_c, 9, 42, 95
8, 18720, Note_on_c, 9, 42, 95
8, 19200, Note_off_c, 9, 40, 95
8, 19200, Note_off_c, 9, 42, 95
8, 19200, Note_on_c, 9, 49, 95
8, 19200, Note_on_c, 9, 40, 95
8, 19200, Note_on_c, 9, 36, 95
8, 19360, Note_off_c, 9, 40, 95
8, 19360, Note_off_c, 9, 36, 95
8, 19360, Note_on_c, 9, 40, 95
8, 19520, Note_off_c, 9, 40, 95
8, 19520, Note_on_c, 9, 40, 95
8, 19680, Note_off_c, 9, 40, 95
8, 19680, Note_on_c, 9, 40, 95
8, 19840, Note_off_c, 9, 40, 95
8, 19840, Note_on_c, 9, 40, 95
8, 20000, Note_off_c, 9, 40, 95
8, 20000, Note_on_c, 9, 40, 95
8, 20160, Note_off_c, 9, 40, 95
8, 20160, Note_on_c, 9, 40, 95
8, 20640, Note_off_c, 9, 49, 95
8, 20640, Note_off_c, 9, 40, 95
8, 20640, Note_on_c, 9, 49, 95
8, 20640, Note_on_c, 9, 40, 95
8, 20640, Note_on_c, 9, 36, 95
8, 20800, Note_off_c, 9, 40, 95
8, 20800, Note_off_c, 9, 36, 95
8, 20800, Note_on_c, 9, 40, 95
8, 20960, Note_off_c, 9, 40, 95
8, 20960, Note_on_c, 9, 40, 95
8, 21120, Note_off_c, 9, 40, 95
8, 21120, Note_on_c, 9, 40, 95
8, 21280, Note_off_c, 9, 40, 95
8, 21280, Note_on_c, 9, 40, 95
8, 21440, Note_off_c, 9, 40, 95
8, 21440, Note_on_c, 9, 40, 95
8, 21600, Note_off_c, 9, 40, 95
8, 21600, Note_on_c, 9, 40, 95
8, 21760, Note_off_c, 9, 40, 95
8, 21760, Note_on_c, 9, 40, 95
8, 21920, Note_off_c, 9, 40, 95
8, 21920, Note_on_c, 9, 40, 95
8, 22080, Note_off_c, 9, 49, 95
8, 22080, Note_off_c, 9, 40, 95
8, 22080, Note_on_c, 9, 41, 95
8, 22240, Note_off_c, 9, 41, 95
8, 22240, Note_on_c, 9, 41, 95
8, 22400, Note_off_c, 9, 41, 95
8, 22400, Note_on_c, 9, 41, 95
8, 22560, Note_off_c, 9, 41, 95
8, 22560, Note_on_c, 9, 41, 95
8, 23040, Note_off_c, 9, 41, 95
8, 23040, Note_on_c, 9, 49, 95
8, 23040, Note_on_c, 9, 36, 95
8, 23520, Note_off_c, 9, 49, 95
8, 23520, Note_on_c, 9, 42, 95
8, 24000, Note_off_c, 9, 36, 95
8, 24000, Note_off_c, 9, 42, 95
8, 24000, Note_on_c, 9, 42, 95
8, 24000, Note_on_c, 9, 40, 95
8, 24480, Note_off_c, 9, 42, 95
8, 24480, Note_on_c, 9, 42, 95
8, 24720, Note_off_c, 9, 40, 95
8, 24720, Note_on_c, 9, 36, 95
8, 24960, Note_off_c, 9, 42, 95
8, 24960, Note_off_c, 9, 36, 95
8, 24960, Note_on_c, 9, 49, 95
8, 24960, Note_on_c, 9, 36, 95
8, 25440, Note_off_c, 9, 49, 95
8, 25440, Note_on_c, 9, 42, 95
8, 25920, Note_off_c, 9, 36, 95
8, 25920, Note_off_c, 9, 42, 95
8, 25920, Note_on_c, 9, 42, 95
8, 25920, Note_on_c, 9, 40, 95
8, 26400, Note_off_c, 9, 42, 95
8, 26400, Note_on_c, 9, 42, 95
8, 26880, Note_off_c, 9, 40, 95
8, 26880, Note_off_c, 9, 42, 95
8, 26880, Note_on_c, 9, 49, 95
8, 26880, Note_on_c, 9, 36, 95
8, 27120, Note_off_c, 9, 36, 95
8, 27120, Note_on_c, 9, 40, 95
8, 27360, Note_off_c, 9, 49, 95
8, 27360, Note_on_c, 9, 42, 95
8, 27840, Note_off_c, 9, 40, 95
8, 27840, Note_off_c, 9, 42, 95
8, 27840, Note_on_c, 9, 42, 95
8, 27840, Note_on_c, 9, 40, 95
8, 28320, Note_off_c, 9, 42, 95
8, 28320, Note_off_c, 9, 40, 95
8, 28320, Note_on_c, 9, 49, 95
8, 28320, Note_on_c, 9, 36, 95
8, 28560, Note_off_c, 9, 36, 95
8, 28560, Note_on_c, 9, 40, 95
8, 28800, Note_off_c, 9, 49, 95
8, 28800, Note_on_c, 9, 42, 95
8, 29280, Note_off_c, 9, 40, 95
8, 29280, Note_off_c, 9, 42, 95
8, 29280, Note_on_c, 9, 42, 95
8, 29280, Note_on_c, 9, 40, 95
8, 29760, Note_off_c, 9, 42, 95
8, 29760, Note_off_c, 9, 40, 95
8, 29760, Note_on_c, 9, 42, 95
8, 29760, Note_on_c, 9, 40, 95
8, 30000, Note_off_c, 9, 40, 95
8, 30000, Note_on_c, 9, 40, 95
8, 30240, Note_off_c, 9, 40, 95
8, 30240, Note_on_c, 9, 40, 95
8, 30720, Note_off_c, 9, 42, 95
8, 30720, Note_off_c, 9, 40, 95
8, 30720, Note_on_c, 9, 49, 95
8, 30720, Note_on_c, 9, 36, 95
8, 31200, Note_off_c, 9, 49, 95
8, 31200, Note_on_c, 9, 42, 95
8, 31680, Note_off_c, 9, 36, 95
8, 31680, Note_off_c, 9, 42, 95
8, 31680, Note_on_c, 9, 42, 95
8, 31680, Note_on_c, 9, 40, 95
8, 32160, Note_off_c, 9, 42, 95
8, 32160, Note_on_c, 9, 42, 95
8, 32640, Note_off_c, 9, 40, 95
8, 32640, Note_off_c, 9, 42, 95
8, 32640, Note_on_c, 9, 42, 95
8, 33120, Note_off_c, 9, 42, 95
8, 33120, Note_on_c, 9, 42, 95
8, 33120, Note_on_c, 9, 36, 95
8, 33600, Note_off_c, 9, 42, 95
8, 33600, Note_off_c, 9, 36, 95
8, 33600, Note_on_c, 9, 42, 95
8, 33600, Note_on_c, 9, 40, 95
8, 34080, Note_off_c, 9, 40, 95
8, 34080, Note_on_c, 9, 36, 95
8, 34560, Note_off_c, 9, 42, 95
8, 34560, Note_off_c, 9, 36, 95
8, 34560, Note_on_c, 9, 42, 95
8, 34560, Note_on_c, 9, 36, 95
8, 35040, Note_off_c, 9, 42, 95
8, 35040, Note_on_c, 9, 42, 95
8, 35520, Note_off_c, 9, 36, 95
8, 35520, Note_off_c, 9, 42, 95
8, 35520, Note_on_c, 9, 42, 95
8, 35520, Note_on_c, 9, 40, 95
8, 36000, Note_off_c, 9, 42, 95
8, 36000, Note_on_c, 9, 42, 95
8, 36480, Note_off_c, 9, 40, 95
8, 36480, Note_off_c, 9, 42, 95
8, 36480, Note_on_c, 9, 42, 95
8, 36960, Note_off_c, 9, 42, 95
8, 36960, Note_on_c, 9, 42, 95
8, 36960, Note_on_c, 9, 36, 95
8, 37440, Note_off_c, 9, 42, 95
8, 37440, Note_off_c, 9, 36, 95
8, 37440, Note_on_c, 9, 42, 95
8, 37440, Note_on_c, 9, 40, 95
8, 37920, Note_off_c, 9, 42, 95
8, 37920, Note_off_c, 9, 40, 95
8, 37920, Note_on_c, 9, 42, 95
8, 37920, Note_on_c, 9, 36, 95
8, 38400, Note_off_c, 9, 42, 95
8, 38400, Note_off_c, 9, 36, 95
8, 38400, Note_on_c, 9, 49, 95
8, 38400, Note_on_c, 9, 36, 95
8, 38880, Note_off_c, 9, 49, 95
8, 38880, Note_on_c, 9, 42, 95
8, 39360, Note_off_c, 9, 36, 95
8, 39360, Note_off_c, 9, 42, 95
8, 39360, Note_on_c, 9, 42, 95
8, 39360, Note_on_c, 9, 40, 95
8, 39840, Note_off_c, 9, 42, 95
8, 39840, Note_off_c, 9, 40, 95
8, 39840, Note_on_c, 9, 42, 95
8, 39840, Note_on_c, 9, 40, 95
8, 40080, Note_off_c, 9, 40, 95
8, 40080, Note_on_c, 9, 40, 95
8, 40320, Note_off_c, 9, 42, 95
8, 40320, Note_off_c, 9, 40, 95
8, 40320, Note_on_c, 9, 49, 95
8, 40320, Note_on_c, 9, 36, 95
8, 40800, Note_off_c, 9, 49, 95
8, 40800, Note_off_c, 9, 36, 95
8, 40800, Note_on_c, 9, 49, 95
8, 40800, Note_on_c, 9, 36, 95
8, 41280, Note_off_c, 9, 49, 95
8, 41280, Note_off_c, 9, 36, 95
8, 41280, Note_on_c, 9, 49, 95
8, 41280, Note_on_c, 9, 36, 95
8, 41760, Note_off_c, 9, 49, 95
8, 41760, Note_off_c, 9, 36, 95
8, 41760, Note_on_c, 9, 49, 95
8, 41760, Note_on_c, 9, 40, 95
8, 42240, Note_off_c, 9, 40, 95
8, 42240, Note_on_c, 9, 36, 95
8, 42720, Note_off_c, 9, 49, 95
8, 42720, Note_on_c, 9, 42, 95
8, 43200, Note_off_c, 9, 36, 95
8, 43200, Note_off_c, 9, 42, 95
8, 43200, Note_on_c, 9, 42, 95
8, 43200, Note_on_c, 9, 40, 95
8, 43680, Note_off_c, 9, 42, 95
8, 43680, Note_on_c, 9, 42, 95
8, 44160, Note_off_c, 9, 40, 95
8, 44160, Note_off_c, 9, 42, 95
8, 44160, Note_on_c, 9, 42, 95
8, 44640, Note_on_c, 9, 36, 95
8, 45120, Note_off_c, 9, 42, 95
8, 45120, Note_off_c, 9, 36, 95
8, 45120, Note_on_c, 9, 42, 95
8, 45120, Note_on_c, 9, 40, 95
8, 45600, Note_off_c, 9, 40, 95
8, 45600, Note_on_c, 9, 36, 95
8, 46080, Note_off_c, 9, 42, 95
8, 46080, Note_off_c, 9, 36, 95
8, 46080, Note_on_c, 9, 36, 95
8, 46560, Note_on_c, 9, 42, 95
8, 47040, Note_off_c, 9, 36, 95
8, 47040, Note_off_c, 9, 42, 95
8, 47040, Note_on_c, 9, 42, 95
8, 47040, Note_on_c, 9, 40, 95
8, 47520, Note_off_c, 9, 42, 95
8, 47520, Note_on_c, 9, 42, 95
8, 48000, Note_off_c, 9, 40, 95
8, 48000, Note_off_c, 9, 42, 95
8, 48000, Note_on_c, 9, 42, 95
8, 48480, Note_off_c, 9, 42, 95
8, 48480, Note_on_c, 9, 42, 95
8, 48480, Note_on_c, 9, 36, 95
8, 48960, Note_off_c, 9, 42, 95
8, 48960, Note_off_c, 9, 36, 95
8, 48960, Note_on_c, 9, 42, 95
8, 48960, Note_on_c, 9, 40, 95
8, 49440, Note_off_c, 9, 42, 95
8, 49440, Note_off_c, 9, 40, 95
8, 49440, Note_on_c, 9, 42, 95
8, 49440, Note_on_c, 9, 36, 95
8, 49920, Note_off_c, 9, 42, 95
8, 49920, Note_off_c, 9, 36, 95
8, 49920, Note_on_c, 9, 49, 95
8, 49920, Note_on_c, 9, 36, 95
8, 50400, Note_off_c, 9, 49, 95
8, 50400, Note_on_c, 9, 42, 95
8, 50880, Note_off_c, 9, 36, 95
8, 50880, Note_off_c, 9, 42, 95
8, 50880, Note_on_c, 9, 42, 95
8, 50880, Note_on_c, 9, 40, 95
8, 51360, Note_off_c, 9, 42, 95
8, 51360, Note_on_c, 9, 42, 95
8, 51840, Note_off_c, 9, 40, 95
8, 51840, Note_off_c, 9, 42, 95
8, 51840, Note_on_c, 9, 42, 95
8, 52320, Note_off_c, 9, 42, 95
8, 52320, Note_on_c, 9, 42, 95
8, 52320, Note_on_c, 9, 36, 95
8, 52800, Note_off_c, 9, 42, 95
8, 52800, Note_off_c, 9, 36, 95
8, 52800, Note_on_c, 9, 42, 95
8, 52800, Note_on_c, 9, 40, 95
8, 53280, Note_off_c, 9, 42, 95
8, 53280, Note_off_c, 9, 40, 95
8, 53280, Note_on_c, 9, 42, 95
8, 53280, Note_on_c, 9, 36, 95
8, 53760, Note_off_c, 9, 42, 95
8, 53760, Note_off_c, 9, 36, 95
8, 53760, Note_on_c, 9, 42, 95
8, 53760, Note_on_c, 9, 36, 95
8, 54240, Note_off_c, 9, 42, 95
8, 54240, Note_on_c, 9, 42, 95
8, 54720, Note_off_c, 9, 36, 95
8, 54720, Note_off_c, 9, 42, 95
8, 54720, Note_on_c, 9, 42, 95
8, 54720, Note_on_c, 9, 40, 95
8, 55200, Note_off_c, 9, 42, 95
8, 55200, Note_on_c, 9, 42, 95
8, 55680, Note_off_c, 9, 40, 95
8, 55680, Note_off_c, 9, 42, 95
8, 55680, Note_on_c, 9, 42, 95
8, 56160, Note_on_c, 9, 36, 95
8, 56640, Note_off_c, 9, 42, 95
8, 56640, Note_off_c, 9, 36, 95
8, 56640, Note_on_c, 9, 42, 95
8, 56640, Note_on_c, 9, 40, 95
8, 57120, Note_off_c, 9, 40, 95
8, 57120, Note_on_c, 9, 36, 95
8, 57600, Note_off_c, 9, 42, 95
8, 57600, Note_off_c, 9, 36, 95
8, 57600, Note_on_c, 9, 42, 95
8, 57600, Note_on_c, 9, 36, 95
8, 58560, Note_off_c, 9, 42, 95
8, 58560, Note_off_c, 9, 36, 95
8, 58560, Note_on_c, 9, 42, 95
8, 58560, Note_on_c, 9, 40, 95
8, 59040, Note_off_c, 9, 42, 95
8, 59040, Note_on_c, 9, 42, 95
8, 59520, Note_off_c, 9, 40, 95
8, 59520, Note_off_c, 9, 42, 95
8, 59520, Note_on_c, 9, 42, 95
8, 60000, Note_off_c, 9, 42, 95
8, 60000, Note_on_c, 9, 42, 95
8, 60000, Note_on_c, 9, 36, 95
8, 60480, Note_off_c, 9, 42, 95
8, 60480, Note_off_c, 9, 36, 95
8, 60480, Note_on_c, 9, 42, 95
8, 60480, Note_on_c, 9, 40, 95
8, 60960, Note_off_c, 9, 42, 95
8, 60960, Note_off_c, 9, 40, 95
8, 60960, Note_on_c, 9, 42, 95
8, 60960, Note_on_c, 9, 36, 95
8, 61440, Note_off_c, 9, 42, 95
8, 61440, Note_off_c, 9, 36, 95
8, 61440, Note_on_c, 9, 49, 95
8, 61440, Note_on_c, 9, 36, 95
8, 61920, Note_off_c, 9, 49, 95
8, 61920, Note_on_c, 9, 42, 95
8, 62400, Note_off_c, 9, 36, 95
8, 62400, Note_off_c, 9, 42, 95
8, 62400, Note_on_c, 9, 42, 95
8, 62400, Note_on_c, 9, 40, 95
8, 62880, Note_off_c, 9, 42, 95
8, 62880, Note_on_c, 9, 42, 95
8, 63360, Note_off_c, 9, 40, 95
8, 63360, Note_off_c, 9, 42, 95
8, 63360, Note_on_c, 9, 42, 95
8, 63840, Note_on_c, 9, 36, 95
8, 64320, Note_off_c, 9, 42, 95
8, 64320, Note_off_c, 9, 36, 95
8, 64320, Note_on_c, 9, 42, 95
8, 64320, Note_on_c, 9, 40, 95
8, 64800, Note_off_c, 9, 42, 95
8, 64800, Note_on_c, 9, 42, 95
8, 65280, Note_off_c, 9, 40, 95
8, 65280, Note_off_c, 9, 42, 95
8, 65280, Note_on_c, 9, 49, 95
8, 65280, Note_on_c, 9, 36, 95
8, 65760, Note_off_c, 9, 49, 95
8, 65760, Note_on_c, 9, 42, 95
8, 66240, Note_off_c, 9, 36, 95
8, 66240, Note_off_c, 9, 42, 95
8, 66240, Note_on_c, 9, 42, 95
8, 66240, Note_on_c, 9, 40, 95
8, 66720, Note_off_c, 9, 42, 95
8, 66720, Note_on_c, 9, 42, 95
8, 67200, Note_off_c, 9, 40, 95
8, 67200, Note_off_c, 9, 42, 95
8, 67200, Note_on_c, 9, 42, 95
8, 67680, Note_off_c, 9, 42, 95
8, 67680, Note_on_c, 9, 42, 95
8, 67680, Note_on_c, 9, 36, 95
8, 68160, Note_off_c, 9, 42, 95
8, 68160, Note_off_c, 9, 36, 95
8, 68160, Note_on_c, 9, 42, 95
8, 68160, Note_on_c, 9, 40, 95
8, 68640, Note_off_c, 9, 42, 95
8, 68640, Note_off_c, 9, 40, 95
8, 68640, Note_on_c, 9, 42, 95
8, 68640, Note_on_c, 9, 36, 95
8, 69120, Note_off_c, 9, 42, 95
8, 69120, Note_off_c, 9, 36, 95
8, 69120, Note_on_c, 9, 42, 95
8, 69120, Note_on_c, 9, 36, 95
8, 69600, Note_off_c, 9, 42, 95
8, 69600, Note_on_c, 9, 42, 95
8, 70080, Note_off_c, 9, 36, 95
8, 70080, Note_off_c, 9, 42, 95
8, 70080, Note_on_c, 9, 42, 95
8, 70080, Note_on_c, 9, 40, 95
8, 70560, Note_off_c, 9, 42, 95
8, 70560, Note_on_c, 9, 42, 95
8, 71040, Note_off_c, 9, 40, 95
8, 71040, Note_off_c, 9, 42, 95
8, 71040, Note_on_c, 9, 49, 95
8, 71040, Note_on_c, 9, 36, 95
8, 71520, Note_off_c, 9, 49, 95
8, 71520, Note_off_c, 9, 36, 95
8, 71520, Note_on_c, 9, 49, 95
8, 71520, Note_on_c, 9, 36, 95
8, 72000, Note_off_c, 9, 49, 95
8, 72000, Note_off_c, 9, 36, 95
8, 72000, Note_on_c, 9, 49, 95
8, 72000, Note_on_c, 9, 36, 95
8, 72480, Note_off_c, 9, 49, 95
8, 72480, Note_off_c, 9, 36, 95
8, 72480, Note_on_c, 9, 49, 95
8, 72480, Note_on_c, 9, 40, 95
8, 72960, Note_off_c, 9, 40, 95
8, 72960, Note_on_c, 9, 36, 95
8, 73440, Note_off_c, 9, 49, 95
8, 73440, Note_on_c, 9, 42, 95
8, 73920, Note_off_c, 9, 36, 95
8, 73920, Note_off_c, 9, 42, 95
8, 73920, Note_on_c, 9, 42, 95
8, 73920, Note_on_c, 9, 40, 95
8, 74400, Note_off_c, 9, 42, 95
8, 74400, Note_on_c, 9, 42, 95
8, 74880, Note_off_c, 9, 40, 95
8, 74880, Note_off_c, 9, 42, 95
8, 74880, Note_on_c, 9, 42, 95
8, 75360, Note_off_c, 9, 42, 95
8, 75360, Note_on_c, 9, 42, 95
8, 75360, Note_on_c, 9, 36, 95
8, 75840, Note_off_c, 9, 42, 95
8, 75840, Note_off_c, 9, 36, 95
8, 75840, Note_on_c, 9, 42, 95
8, 75840, Note_on_c, 9, 40, 95
8, 76080, Note_off_c, 9, 40, 95
8, 76080, Note_on_c, 9, 40, 95
8, 76320, Note_off_c, 9, 40, 95
8, 76320, Note_on_c, 9, 40, 95
8, 76800, Note_off_c, 9, 42, 95
8, 76800, Note_off_c, 9, 40, 95
8, 76800, Note_on_c, 9, 49, 95
8, 76800, Note_on_c, 9, 36, 95
8, 77280, Note_off_c, 9, 49, 95
8, 77280, Note_on_c, 9, 42, 95
8, 77760, Note_off_c, 9, 36, 95
8, 77760, Note_off_c, 9, 42, 95
8, 77760, Note_on_c, 9, 42, 95
8, 77760, Note_on_c, 9, 40, 95
8, 78240, Note_off_c, 9, 42, 95
8, 78240, Note_on_c, 9, 42, 95
8, 78720, Note_off_c, 9, 40, 95
8, 78720, Note_off_c, 9, 42, 95
8, 78720, Note_on_c, 9, 42, 95
8, 79200, Note_on_c, 9, 36, 95
8, 79680, Note_off_c, 9, 42, 95
8, 79680, Note_off_c, 9, 36, 95
8, 79680, Note_on_c, 9, 42, 95
8, 79680, Note_on_c, 9, 40, 95
8, 80160, Note_off_c, 9, 40, 95
8, 80160, Note_on_c, 9, 36, 95
8, 80640, Note_off_c, 9, 42, 95
8, 80640, Note_off_c, 9, 36, 95
8, 80640, Note_on_c, 9, 49, 95
8, 80640, Note_on_c, 9, 36, 95
8, 81600, Note_off_c, 9, 49, 95
8, 81600, Note_off_c, 9, 36, 95
8, 81600, Note_on_c, 9, 42, 95
8, 81600, Note_on_c, 9, 40, 95
8, 82560, Note_off_c, 9, 42, 95
8, 82560, Note_off_c, 9, 40, 95
8, 82560, Note_on_c, 9, 42, 95
8, 83040, Note_off_c, 9, 42, 95
8, 83040, Note_on_c, 9, 42, 95
8, 83040, Note_on_c, 9, 36, 95
8, 83520, Note_off_c, 9, 42, 95
8, 83520, Note_off_c, 9, 36, 95
8, 83520, Note_on_c, 9, 42, 95
8, 83520, Note_on_c, 9, 40, 95
8, 84000, Note_off_c, 9, 40, 95
8, 84000, Note_on_c, 9, 36, 95
8, 84480, Note_off_c, 9, 42, 95
8, 84480, Note_off_c, 9, 36, 95
8, 84480, Note_on_c, 9, 36, 95
8, 84960, Note_on_c, 9, 42, 95
8, 85440, Note_off_c, 9, 36, 95
8, 85440, Note_off_c, 9, 42, 95
8, 85440, Note_on_c, 9, 42, 95
8, 85440, Note_on_c, 9, 40, 95
8, 85920, Note_off_c, 9, 42, 95
8, 85920, Note_on_c, 9, 42, 95
8, 86400, Note_off_c, 9, 40, 95
8, 86400, Note_off_c, 9, 42, 95
8, 86400, Note_on_c, 9, 42, 95
8, 86880, Note_off_c, 9, 42, 95
8, 86880, Note_on_c, 9, 42, 95
8, 86880, Note_on_c, 9, 36, 95
8, 87360, Note_off_c, 9, 42, 95
8, 87360, Note_off_c, 9, 36, 95
8, 87360, Note_on_c, 9, 42, 95
8, 87360, Note_on_c, 9, 40, 95
8, 87840, Note_off_c, 9, 42, 95
8, 87840, Note_off_c, 9, 40, 95
8, 87840, Note_on_c, 9, 42, 95
8, 87840, Note_on_c, 9, 36, 95
8, 88320, Note_off_c, 9, 42, 95
8, 88320, Note_off_c, 9, 36, 95
8, 88320, Note_on_c, 9, 36, 95
8, 88800, Note_on_c, 9, 42, 95
8, 89280, Note_off_c, 9, 36, 95
8, 89280, Note_off_c, 9, 42, 95
8, 89280, Note_on_c, 9, 42, 95
8, 89280, Note_on_c, 9, 40, 95
8, 89760, Note_off_c, 9, 42, 95
8, 89760, Note_on_c, 9, 42, 95
8, 90240, Note_off_c, 9, 40, 95
8, 90240, Note_off_c, 9, 42, 95
8, 90240, Note_on_c, 9, 42, 95
8, 90240, Note_on_c, 9, 40, 95
8, 90480, Note_off_c, 9, 40, 95
8, 90480, Note_on_c, 9, 40, 95
8, 90600, Note_off_c, 9, 40, 95
8, 90600, Note_on_c, 9, 40, 95
8, 90720, Note_off_c, 9, 40, 95
8, 90720, Note_on_c, 9, 40, 95
8, 90960, Note_off_c, 9, 40, 95
8, 90960, Note_on_c, 9, 40, 95
8, 91200, Note_off_c, 9, 42, 95
8, 91200, Note_off_c, 9, 40, 95
8, 91200, Note_on_c, 9, 40, 95
8, 91320, Note_off_c, 9, 40, 95
8, 91320, Note_on_c, 9, 40, 95
8, 91440, Note_off_c, 9, 40, 95
8, 91440, Note_on_c, 9, 40, 95
8, 91680, Note_off_c, 9, 40, 95
8, 91680, Note_on_c, 9, 40, 95
8, 91800, Note_off_c, 9, 40, 95
8, 91800, Note_on_c, 9, 40, 95
8, 91920, Note_off_c, 9, 40, 95
8, 91920, Note_on_c, 9, 40, 95
8, 92160, Note_off_c, 9, 40, 95
8, 92160, Note_on_c, 9, 49, 95
8, 92160, Note_on_c, 9, 36, 95
8, 92400, Note_off_c, 9, 49, 95
8, 92400, Note_on_c, 9, 42, 95
8, 92640, Note_off_c, 9, 42, 95
8, 92640, Note_on_c, 9, 42, 95
8, 92880, Note_off_c, 9, 36, 95
8, 92880, Note_off_c, 9, 42, 95
8, 92880, Note_on_c, 9, 42, 95
8, 92880, Note_on_c, 9, 36, 95
8, 93120, Note_off_c, 9, 42, 95
8, 93120, Note_off_c, 9, 36, 95
8, 93120, Note_on_c, 9, 42, 95
8, 93120, Note_on_c, 9, 40, 95
8, 93360, Note_off_c, 9, 42, 95
8, 93360, Note_off_c, 9, 40, 95
8, 93360, Note_on_c, 9, 42, 95
8, 93360, Note_on_c, 9, 40, 95
8, 93600, Note_off_c, 9, 42, 95
8, 93600, Note_on_c, 9, 42, 95
8, 93840, Note_off_c, 9, 40, 95
8, 93840, Note_off_c, 9, 42, 95
8, 93840, Note_on_c, 9, 42, 95
8, 93840, Note_on_c, 9, 36, 95
8, 94080, Note_off_c, 9, 42, 95
8, 94080, Note_off_c, 9, 36, 95
8, 94080, Note_on_c, 9, 42, 95
8, 94080, Note_on_c, 9, 36, 95
8, 94320, Note_off_c, 9, 42, 95
8, 94320, Note_on_c, 9, 42, 95
8, 94560, Note_off_c, 9, 42, 95
8, 94560, Note_on_c, 9, 42, 95
8, 94800, Note_off_c, 9, 36, 95
8, 94800, Note_off_c, 9, 42, 95
8, 94800, Note_on_c, 9, 42, 95
8, 94800, Note_on_c, 9, 36, 95
8, 95040, Note_off_c, 9, 42, 95
8, 95040, Note_off_c, 9, 36, 95
8, 95040, Note_on_c, 9, 42, 95
8, 95040, Note_on_c, 9, 40, 95
8, 95280, Note_off_c, 9, 42, 95
8, 95280, Note_off_c, 9, 40, 95
8, 95280, Note_on_c, 9, 42, 95
8, 95280, Note_on_c, 9, 40, 95
8, 95520, Note_off_c, 9, 42, 95
8, 95520, Note_on_c, 9, 42, 95
8, 95760, Note_off_c, 9, 40, 95
8, 95760, Note_off_c, 9, 42, 95
8, 95760, Note_on_c, 9, 42, 95
8, 95760, Note_on_c, 9, 36, 95
8, 96000, Note_off_c, 9, 42, 95
8, 96000, Note_off_c, 9, 36, 95
8, 96000, Note_on_c, 9, 42, 95
8, 96000, Note_on_c, 9, 36, 95
8, 96240, Note_off_c, 9, 42, 95
8, 96240, Note_on_c, 9, 42, 95
8, 96480, Note_off_c, 9, 42, 95
8, 96480, Note_on_c, 9, 42, 95
8, 96720, Note_off_c, 9, 36, 95
8, 96720, Note_off_c, 9, 42, 95
8, 96720, Note_on_c, 9, 42, 95
8, 96720, Note_on_c, 9, 36, 95
8, 96960, Note_off_c, 9, 42, 95
8, 96960, Note_off_c, 9, 36, 95
8, 96960, Note_on_c, 9, 42, 95
8, 96960, Note_on_c, 9, 40, 95
8, 97200, Note_off_c, 9, 42, 95
8, 97200, Note_off_c, 9, 40, 95
8, 97200, Note_on_c, 9, 42, 95
8, 97200, Note_on_c, 9, 40, 95
8, 97440, Note_off_c, 9, 42, 95
8, 97440, Note_on_c, 9, 42, 95
8, 97680, Note_off_c, 9, 40, 95
8, 97680, Note_off_c, 9, 42, 95
8, 97680, Note_on_c, 9, 42, 95
8, 97680, Note_on_c, 9, 36, 95
8, 97920, Note_off_c, 9, 42, 95
8, 97920, Note_off_c, 9, 36, 95
8, 97920, Note_on_c, 9, 42, 95
8, 97920, Note_on_c, 9, 40, 95
8, 98160, Note_off_c, 9, 42, 95
8, 98160, Note_off_c, 9, 40, 95
8, 98160, Note_on_c, 9, 42, 95
8, 98160, Note_on_c, 9, 40, 95
8, 98400, Note_off_c, 9, 42, 95
8, 98400, Note_off_c, 9, 40, 95
8, 98400, Note_on_c, 9, 42, 95
8, 98400, Note_on_c, 9, 40, 95
8, 98640, Note_off_c, 9, 42, 95
8, 98640, Note_off_c, 9, 40, 95
8, 98640, Note_on_c, 9, 42, 95
8, 98640, Note_on_c, 9, 36, 95
8, 98880, Note_off_c, 9, 42, 95
8, 98880, Note_off_c, 9, 36, 95
8, 98880, Note_on_c, 9, 42, 95
8, 98880, Note_on_c, 9, 40, 95
8, 99120, Note_off_c, 9, 42, 95
8, 99120, Note_off_c, 9, 40, 95
8, 99120, Note_on_c, 9, 42, 95
8, 99120, Note_on_c, 9, 40, 95
8, 99360, Note_off_c, 9, 42, 95
8, 99360, Note_off_c, 9, 40, 95
8, 99360, Note_on_c, 9, 42, 95
8, 99360, Note_on_c, 9, 40, 95
8, 99480, Note_off_c, 9, 40, 95
8, 99480, Note_on_c, 9, 40, 95
8, 99600, Note_off_c, 9, 42, 95
8, 99600, Note_off_c, 9, 40, 95
8, 99600, Note_on_c, 9, 42, 95
8, 99600, Note_on_c, 9, 40, 95
8, 99840, Note_off_c, 9, 42, 95
8, 99840, Note_off_c, 9, 40, 95
8, 99840, Note_on_c, 9, 49, 95
8, 99840, Note_on_c, 9, 36, 95
8, 100080, Note_off_c, 9, 49, 95
8, 100080, Note_on_c, 9, 42, 95
8, 100320, Note_off_c, 9, 42, 95
8, 100320, Note_on_c, 9, 42, 95
8, 100560, Note_off_c, 9, 36, 95
8, 100560, Note_off_c, 9, 42, 95
8, 100560, Note_on_c, 9, 42, 95
8, 100560, Note_on_c, 9, 36, 95
8, 100800, Note_off_c, 9, 42, 95
8, 100800, Note_off_c, 9, 36, 95
8, 100800, Note_on_c, 9, 42, 95
8, 100800, Note_on_c, 9, 40, 95
8, 101040, Note_off_c, 9, 42, 95
8, 101040, Note_off_c, 9, 40, 95
8, 101040, Note_on_c, 9, 42, 95
8, 101040, Note_on_c, 9, 40, 95
8, 101280, Note_off_c, 9, 42, 95
8, 101280, Note_on_c, 9, 42, 95
8, 101520, Note_off_c, 9, 40, 95
8, 101520, Note_off_c, 9, 42, 95
8, 101520, Note_on_c, 9, 42, 95
8, 101520, Note_on_c, 9, 36, 95
8, 101760, Note_off_c, 9, 42, 95
8, 101760, Note_off_c, 9, 36, 95
8, 101760, Note_on_c, 9, 42, 95
8, 101760, Note_on_c, 9, 36, 95
8, 102000, Note_off_c, 9, 42, 95
8, 102000, Note_on_c, 9, 42, 95
8, 102240, Note_off_c, 9, 42, 95
8, 102240, Note_on_c, 9, 42, 95
8, 102480, Note_off_c, 9, 36, 95
8, 102480, Note_off_c, 9, 42, 95
8, 102480, Note_on_c, 9, 42, 95
8, 102480, Note_on_c, 9, 36, 95
8, 102720, Note_off_c, 9, 42, 95
8, 102720, Note_off_c, 9, 36, 95
8, 102720, Note_on_c, 9, 42, 95
8, 102720, Note_on_c, 9, 40, 95
8, 102960, Note_off_c, 9, 42, 95
8, 102960, Note_off_c, 9, 40, 95
8, 102960, Note_on_c, 9, 42, 95
8, 102960, Note_on_c, 9, 40, 95
8, 103200, Note_off_c, 9, 42, 95
8, 103200, Note_on_c, 9, 42, 95
8, 103440, Note_off_c, 9, 40, 95
8, 103440, Note_off_c, 9, 42, 95
8, 103440, Note_on_c, 9, 42, 95
8, 103440, Note_on_c, 9, 36, 95
8, 103680, Note_off_c, 9, 42, 95
8, 103680, Note_off_c, 9, 36, 95
8, 103680, Note_on_c, 9, 42, 95
8, 103680, Note_on_c, 9, 36, 95
8, 103920, Note_off_c, 9, 42, 95
8, 103920, Note_on_c, 9, 42, 95
8, 104160, Note_off_c, 9, 42, 95
8, 104160, Note_on_c, 9, 42, 95
8, 104400, Note_off_c, 9, 36, 95
8, 104400, Note_off_c, 9, 42, 95
8, 104400, Note_on_c, 9, 42, 95
8, 104400, Note_on_c, 9, 36, 95
8, 104640, Note_off_c, 9, 42, 95
8, 104640, Note_off_c, 9, 36, 95
8, 104640, Note_on_c, 9, 42, 95
8, 104640, Note_on_c, 9, 40, 95
8, 104880, Note_off_c, 9, 42, 95
8, 104880, Note_off_c, 9, 40, 95
8, 104880, Note_on_c, 9, 42, 95
8, 104880, Note_on_c, 9, 40, 95
8, 105120, Note_off_c, 9, 42, 95
8, 105120, Note_on_c, 9, 42, 95
8, 105360, Note_off_c, 9, 40, 95
8, 105360, Note_off_c, 9, 42, 95
8, 105360, Note_on_c, 9, 42, 95
8, 105360, Note_on_c, 9, 36, 95
8, 105600, Note_off_c, 9, 42, 95
8, 105600, Note_off_c, 9, 36, 95
8, 105600, Note_on_c, 9, 42, 95
8, 105600, Note_on_c, 9, 40, 95
8, 105840, Note_off_c, 9, 42, 95
8, 105840, Note_off_c, 9, 40, 95
8, 105840, Note_on_c, 9, 42, 95
8, 105840, Note_on_c, 9, 40, 95
8, 106080, Note_off_c, 9, 42, 95
8, 106080, Note_off_c, 9, 40, 95
8, 106080, Note_on_c, 9, 42, 95
8, 106080, Note_on_c, 9, 40, 95
8, 106320, Note_off_c, 9, 42, 95
8, 106320, Note_off_c, 9, 40, 95
8, 106320, Note_on_c, 9, 42, 95
8, 106320, Note_on_c, 9, 36, 95
8, 106560, Note_off_c, 9, 42, 95
8, 106560, Note_off_c, 9, 36, 95
8, 106560, Note_on_c, 9, 42, 95
8, 106560, Note_on_c, 9, 40, 95
8, 106800, Note_off_c, 9, 42, 95
8, 106800, Note_off_c, 9, 40, 95
8, 106800, Note_on_c, 9, 42, 95
8, 106800, Note_on_c, 9, 40, 95
8, 107040, Note_off_c, 9, 42, 95
8, 107040, Note_off_c, 9, 40, 95
8, 107040, Note_on_c, 9, 42, 95
8, 107040, Note_on_c, 9, 40, 95
8, 107160, Note_off_c, 9, 40, 95
8, 107160, Note_on_c, 9, 40, 95
8, 107280, Note_off_c, 9, 42, 95
8, 107280, Note_off_c, 9, 40, 95
8, 107280, Note_on_c, 9, 42, 95
8, 107280, Note_on_c, 9, 40, 95
8, 107520, Note_off_c, 9, 42, 95
8, 107520, Note_off_c, 9, 40, 95
8, 107520, Note_on_c, 9, 49, 95
8, 107520, Note_on_c, 9, 36, 95
8, 107760, Note_off_c, 9, 49, 95
8, 107760, Note_on_c, 9, 42, 95
8, 108000, Note_off_c, 9, 42, 95
8, 108000, Note_on_c, 9, 42, 95
8, 108240, Note_off_c, 9, 36, 95
8, 108240, Note_off_c, 9, 42, 95
8, 108240, Note_on_c, 9, 42, 95
8, 108240, Note_on_c, 9, 36, 95
8, 108480, Note_off_c, 9, 42, 95
8, 108480, Note_off_c, 9, 36, 95
8, 108480, Note_on_c, 9, 42, 95
8, 108480, Note_on_c, 9, 40, 95
8, 108720, Note_off_c, 9, 42, 95
8, 108720, Note_off_c, 9, 40, 95
8, 108720, Note_on_c, 9, 42, 95
8, 108720, Note_on_c, 9, 40, 95
8, 108960, Note_off_c, 9, 42, 95
8, 108960, Note_on_c, 9, 42, 95
8, 109200, Note_off_c, 9, 40, 95
8, 109200, Note_off_c, 9, 42, 95
8, 109200, Note_on_c, 9, 42, 95
8, 109200, Note_on_c, 9, 36, 95
8, 109440, Note_off_c, 9, 42, 95
8, 109440, Note_off_c, 9, 36, 95
8, 109440, Note_on_c, 9, 42, 95
8, 109440, Note_on_c, 9, 36, 95
8, 109680, Note_off_c, 9, 42, 95
8, 109680, Note_on_c, 9, 42, 95
8, 109920, Note_off_c, 9, 42, 95
8, 109920, Note_on_c, 9, 42, 95
8, 110160, Note_off_c, 9, 36, 95
8, 110160, Note_off_c, 9, 42, 95
8, 110160, Note_on_c, 9, 42, 95
8, 110160, Note_on_c, 9, 36, 95
8, 110400, Note_off_c, 9, 42, 95
8, 110400, Note_off_c, 9, 36, 95
8, 110400, Note_on_c, 9, 42, 95
8, 110400, Note_on_c, 9, 40, 95
8, 110640, Note_off_c, 9, 42, 95
8, 110640, Note_off_c, 9, 40, 95
8, 110640, Note_on_c, 9, 42, 95
8, 110640, Note_on_c, 9, 40, 95
8, 110880, Note_off_c, 9, 42, 95
8, 110880, Note_on_c, 9, 42, 95
8, 111120, Note_off_c, 9, 40, 95
8, 111120, Note_off_c, 9, 42, 95
8, 111120, Note_on_c, 9, 42, 95
8, 111120, Note_on_c, 9, 36, 95
8, 111360, Note_off_c, 9, 42, 95
8, 111360, Note_off_c, 9, 36, 95
8, 111360, Note_on_c, 9, 42, 95
8, 111360, Note_on_c, 9, 36, 95
8, 111600, Note_off_c, 9, 42, 95
8, 111600, Note_on_c, 9, 42, 95
8, 111840, Note_off_c, 9, 42, 95
8, 111840, Note_on_c, 9, 42, 95
8, 112080, Note_off_c, 9, 36, 95
8, 112080, Note_off_c, 9, 42, 95
8, 112080, Note_on_c, 9, 42, 95
8, 112080, Note_on_c, 9, 36, 95
8, 112320, Note_off_c, 9, 42, 95
8, 112320, Note_off_c, 9, 36, 95
8, 112320, Note_on_c, 9, 42, 95
8, 112320, Note_on_c, 9, 40, 95
8, 112560, Note_off_c, 9, 42, 95
8, 112560, Note_off_c, 9, 40, 95
8, 112560, Note_on_c, 9, 42, 95
8, 112560, Note_on_c, 9, 40, 95
8, 112800, Note_off_c, 9, 42, 95
8, 112800, Note_on_c, 9, 42, 95
8, 113040, Note_off_c, 9, 40, 95
8, 113040, Note_off_c, 9, 42, 95
8, 113040, Note_on_c, 9, 42, 95
8, 113040, Note_on_c, 9, 36, 95
8, 113280, Note_off_c, 9, 42, 95
8, 113280, Note_off_c, 9, 36, 95
8, 113280, Note_on_c, 9, 42, 95
8, 113280, Note_on_c, 9, 40, 95
8, 113520, Note_off_c, 9, 42, 95
8, 113520, Note_off_c, 9, 40, 95
8, 113520, Note_on_c, 9, 42, 95
8, 113520, Note_on_c, 9, 40, 95
8, 113760, Note_off_c, 9, 42, 95
8, 113760, Note_off_c, 9, 40, 95
8, 113760, Note_on_c, 9, 42, 95
8, 113760, Note_on_c, 9, 40, 95
8, 114000, Note_off_c, 9, 42, 95
8, 114000, Note_off_c, 9, 40, 95
8, 114000, Note_on_c, 9, 42, 95
8, 114000, Note_on_c, 9, 36, 95
8, 114240, Note_off_c, 9, 42, 95
8, 114240, Note_off_c, 9, 36, 95
8, 114240, Note_on_c, 9, 42, 95
8, 114240, Note_on_c, 9, 40, 95
8, 114480, Note_off_c, 9, 42, 95
8, 114480, Note_off_c, 9, 40, 95
8, 114480, Note_on_c, 9, 42, 95
8, 114480, Note_on_c, 9, 40, 95
8, 114720, Note_off_c, 9, 42, 95
8, 114720, Note_off_c, 9, 40, 95
8, 114720, Note_on_c, 9, 42, 95
8, 114720, Note_on_c, 9, 40, 95
8, 114840, Note_off_c, 9, 40, 95
8, 114840, Note_on_c, 9, 40, 95
8, 114960, Note_off_c, 9, 42, 95
8, 114960, Note_off_c, 9, 40, 95
8, 114960, Note_on_c, 9, 42, 95
8, 114960, Note_on_c, 9, 40, 95
8, 115200, Note_off_c, 9, 42, 95
8, 115200, Note_off_c, 9, 40, 95
8, 115200, Note_on_c, 9, 49, 95
8, 115200, Note_on_c, 9, 36, 95
8, 115680, Note_off_c, 9, 49, 95
8, 115680, Note_on_c, 9, 42, 95
8, 115920, Note_off_c, 9, 36, 95
8, 115920, Note_on_c, 9, 36, 95
8, 116160, Note_off_c, 9, 42, 95
8, 116160, Note_off_c, 9, 36, 95
8, 116160, Note_on_c, 9, 42, 95
8, 116160, Note_on_c, 9, 40, 95
8, 116640, Note_off_c, 9, 42, 95
8, 116640, Note_on_c, 9, 42, 95
8, 116880, Note_off_c, 9, 40, 95
8, 116880, Note_on_c, 9, 36, 95
8, 117120, Note_off_c, 9, 42, 95
8, 117120, Note_off_c, 9, 36, 95
8, 117120, Note_on_c, 9, 49, 95
8, 117120, Note_on_c, 9, 36, 95
8, 117600, Note_off_c, 9, 49, 95
8, 117600, Note_on_c, 9, 42, 95
8, 117840, Note_off_c, 9, 36, 95
8, 117840, Note_on_c, 9, 36, 95
8, 118080, Note_off_c, 9, 42, 95
8, 118080, Note_off_c, 9, 36, 95
8, 118080, Note_on_c, 9, 42, 95
8, 118080, Note_on_c, 9, 40, 95
8, 118560, Note_off_c, 9, 42, 95
8, 118560, Note_on_c, 9, 42, 95
8, 118800, Note_off_c, 9, 40, 95
8, 118800, Note_on_c, 9, 36, 95
8, 119040, Note_off_c, 9, 42, 95
8, 119040, Note_off_c, 9, 36, 95
8, 119040, Note_on_c, 9, 49, 95
8, 119040, Note_on_c, 9, 36, 95
8, 119200, Note_off_c, 9, 36, 95
8, 119200, Note_on_c, 9, 40, 95
8, 119360, Note_off_c, 9, 40, 95
8, 119360, Note_on_c, 9, 40, 95
8, 119520, Note_off_c, 9, 40, 95
8, 119520, Note_on_c, 9, 40, 95
8, 119680, Note_off_c, 9, 40, 95
8, 119680, Note_on_c, 9, 40, 95
8, 119840, Note_off_c, 9, 40, 95
8, 119840, Note_on_c, 9, 40, 95
8, 120000, Note_off_c, 9, 49, 95
8, 120000, Note_off_c, 9, 40, 95
8, 120000, Note_on_c, 9, 40, 95
8, 120160, Note_off_c, 9, 40, 95
8, 120160, Note_on_c, 9, 40, 95
8, 120320, Note_off_c, 9, 40, 95
8, 120320, Note_on_c, 9, 40, 95
8, 120480, Note_off_c, 9, 40, 95
8, 120480, Note_on_c, 9, 40, 95
8, 120640, Note_off_c, 9, 40, 95
8, 120640, Note_on_c, 9, 40, 95
8, 120800, Note_off_c, 9, 40, 95
8, 120800, Note_on_c, 9, 40, 95
8, 120960, Note_off_c, 9, 40, 95
8, 120960, Note_on_c, 9, 40, 95
8, 121120, Note_off_c, 9, 40, 95
8, 121120, Note_on_c, 9, 40, 95
8, 121280, Note_off_c, 9, 40, 95
8, 121280, Note_on_c, 9, 40, 95
8, 121440, Note_off_c, 9, 40, 95
8, 121440, Note_on_c, 9, 40, 95
8, 121600, Note_off_c, 9, 40, 95
8, 121600, Note_on_c, 9, 40, 95
8, 121760, Note_off_c, 9, 40, 95
8, 121760, Note_on_c, 9, 40, 95
8, 121920, Note_off_c, 9, 40, 95
8, 121920, Note_on_c, 9, 41, 95
8, 122080, Note_off_c, 9, 41, 95
8, 122080, Note_on_c, 9, 41, 95
8, 122240, Note_off_c, 9, 41, 95
8, 122240, Note_on_c, 9, 41, 95
8, 122400, Note_off_c, 9, 41, 95
8, 122400, Note_on_c, 9, 41, 95
8, 122560, Note_off_c, 9, 41, 95
8, 122560, Note_on_c, 9, 41, 95
8, 122720, Note_off_c, 9, 41, 95
8, 122720, Note_on_c, 9, 41, 95
8, 122880, Note_off_c, 9, 41, 95
8, 122880, Note_on_c, 9, 49, 95
8, 122880, Note_on_c, 9, 36, 95
8, 123360, Note_off_c, 9, 49, 95
8, 123360, Note_on_c, 9, 42, 95
8, 123840, Note_off_c, 9, 36, 95
8, 123840, Note_off_c, 9, 42, 95
8, 123840, Note_on_c, 9, 42, 95
8, 123840, Note_on_c, 9, 40, 95
8, 124320, Note_off_c, 9, 42, 95
8, 124320, Note_on_c, 9, 42, 95
8, 124560, Note_off_c, 9, 40, 95
8, 124560, Note_on_c, 9, 36, 95
8, 124800, Note_off_c, 9, 42, 95
8, 124800, Note_off_c, 9, 36, 95
8, 124800, Note_on_c, 9, 49, 95
8, 124800, Note_on_c, 9, 36, 95
8, 125280, Note_off_c, 9, 49, 95
8, 125280, Note_on_c, 9, 42, 95
8, 125520, Note_off_c, 9, 36, 95
8, 125520, Note_on_c, 9, 36, 95
8, 125760, Note_off_c, 9, 42, 95
8, 125760, Note_off_c, 9, 36, 95
8, 125760, Note_on_c, 9, 42, 95
8, 125760, Note_on_c, 9, 40, 95
8, 126240, Note_off_c, 9, 42, 95
8, 126240, Note_on_c, 9, 42, 95
8, 126720, Note_off_c, 9, 40, 95
8, 126720, Note_off_c, 9, 42, 95
8, 126720, Note_on_c, 9, 49, 95
8, 126720, Note_on_c, 9, 36, 95
8, 127200, Note_off_c, 9, 49, 95
8, 127200, Note_on_c, 9, 42, 95
8, 127440, Note_off_c, 9, 36, 95
8, 127440, Note_on_c, 9, 36, 95
8, 127680, Note_off_c, 9, 42, 95
8, 127680, Note_off_c, 9, 36, 95
8, 127680, Note_on_c, 9, 42, 95
8, 127680, Note_on_c, 9, 40, 95
8, 128160, Note_off_c, 9, 42, 95
8, 128160, Note_off_c, 9, 40, 95
8, 128160, Note_on_c, 9, 49, 95
8, 128160, Note_on_c, 9, 36, 95
8, 128640, Note_off_c, 9, 49, 95
8, 128640, Note_on_c, 9, 42, 95
8, 128880, Note_off_c, 9, 36, 95
8, 128880, Note_on_c, 9, 36, 95
8, 129120, Note_off_c, 9, 42, 95
8, 129120, Note_off_c, 9, 36, 95
8, 129120, Note_on_c, 9, 42, 95
8, 129120, Note_on_c, 9, 40, 95
8, 129600, Note_off_c, 9, 42, 95
8, 129600, Note_off_c, 9, 40, 95
8, 129600, Note_on_c, 9, 40, 95
8, 129760, Note_off_c, 9, 40, 95
8, 129760, Note_on_c, 9, 40, 95
8, 129920, Note_off_c, 9, 40, 95
8, 129920, Note_on_c, 9, 40, 95
8, 130080, Note_off_c, 9, 40, 95
8, 130080, Note_on_c, 9, 40, 95
8, 130560, Note_off_c, 9, 40, 95
8, 130560, Note_on_c, 9, 49, 95
8, 130560, Note_on_c, 9, 36, 95
8, 131040, Note_off_c, 9, 49, 95
8, 131040, Note_on_c, 9, 42, 95
8, 131520, Note_off_c, 9, 36, 95
8, 131520, Note_off_c, 9, 42, 95
8, 131520, Note_on_c, 9, 42, 95
8, 131520, Note_on_c, 9, 40, 95
8, 132000, Note_off_c, 9, 42, 95
8, 132000, Note_on_c, 9, 42, 95
8, 132240, Note_off_c, 9, 40, 95
8, 132240, Note_on_c, 9, 36, 95
8, 132480, Note_off_c, 9, 42, 95
8, 132480, Note_off_c, 9, 36, 95
8, 132480, Note_on_c, 9, 49, 95
8, 132480, Note_on_c, 9, 36, 95
8, 132960, Note_off_c, 9, 49, 95
8, 132960, Note_on_c, 9, 42, 95
8, 133440, Note_off_c, 9, 36, 95
8, 133440, Note_off_c, 9, 42, 95
8, 133440, Note_on_c, 9, 42, 95
8, 133440, Note_on_c, 9, 40, 95
8, 133920, Note_off_c, 9, 42, 95
8, 133920, Note_on_c, 9, 42, 95
8, 134400, Note_off_c, 9, 40, 95
8, 134400, Note_off_c, 9, 42, 95
8, 134400, Note_on_c, 9, 49, 95
8, 134400, Note_on_c, 9, 36, 95
8, 134880, Note_off_c, 9, 49, 95
8, 134880, Note_on_c, 9, 42, 95
8, 135120, Note_off_c, 9, 36, 95
8, 135120, Note_on_c, 9, 36, 95
8, 135360, Note_off_c, 9, 42, 95
8, 135360, Note_off_c, 9, 36, 95
8, 135360, Note_on_c, 9, 42, 95
8, 135360, Note_on_c, 9, 40, 95
8, 135840, Note_off_c, 9, 42, 95
8, 135840, Note_off_c, 9, 40, 95
8, 135840, Note_on_c, 9, 49, 95
8, 135840, Note_on_c, 9, 36, 95
8, 136320, Note_off_c, 9, 49, 95
8, 136320, Note_on_c, 9, 42, 95
8, 136560, Note_off_c, 9, 36, 95
8, 136560, Note_on_c, 9, 36, 95
8, 136800, Note_off_c, 9, 42, 95
8, 136800, Note_off_c, 9, 36, 95
8, 136800, Note_on_c, 9, 42, 95
8, 136800, Note_on_c, 9, 40, 95
8, 137280, Note_off_c, 9, 42, 95
8, 137280, Note_off_c, 9, 40, 95
8, 137280, Note_on_c, 9, 40, 95
8, 137400, Note_off_c, 9, 40, 95
8, 137400, Note_on_c, 9, 40, 95
8, 137520, Note_off_c, 9, 40, 95
8, 137520, Note_on_c, 9, 40, 95
8, 137640, Note_off_c, 9, 40, 95
8, 137640, Note_on_c, 9, 40, 95
8, 137760, Note_off_c, 9, 40, 95
8, 137760, Note_on_c, 9, 40, 95
8, 138240, Note_off_c, 9, 40, 95
8, 138240, Note_on_c, 9, 49, 95
8, 138240, Note_on_c, 9, 36, 95
8, 138720, Note_off_c, 9, 49, 95
8, 138720, Note_on_c, 9, 42, 95
8, 139200, Note_off_c, 9, 36, 95
8, 139200, Note_off_c, 9, 42, 95
8, 139200, Note_on_c, 9, 42, 95
8, 139200, Note_on_c, 9, 40, 95
8, 139680, Note_off_c, 9, 42, 95
8, 139680, Note_on_c, 9, 42, 95
8, 140160, Note_off_c, 9, 40, 95
8, 140160, Note_off_c, 9, 42, 95
8, 140160, Note_on_c, 9, 42, 95
8, 140640, Note_off_c, 9, 42, 95
8, 140640, Note_on_c, 9, 42, 95
8, 140640, Note_on_c, 9, 36, 95
8, 141120, Note_off_c, 9, 42, 95
8, 141120, Note_off_c, 9, 36, 95
8, 141120, Note_on_c, 9, 42, 95
8, 141120, Note_on_c, 9, 40, 95
8, 141600, Note_off_c, 9, 42, 95
8, 141600, Note_off_c, 9, 40, 95
8, 141600, Note_on_c, 9, 42, 95
8, 141600, Note_on_c, 9, 36, 95
8, 142080, Note_off_c, 9, 42, 95
8, 142080, Note_off_c, 9, 36, 95
8, 142080, Note_on_c, 9, 42, 95
8, 142080, Note_on_c, 9, 36, 95
8, 142560, Note_off_c, 9, 42, 95
8, 142560, Note_on_c, 9, 42, 95
8, 143040, Note_off_c, 9, 36, 95
8, 143040, Note_off_c, 9, 42, 95
8, 143040, Note_on_c, 9, 42, 95
8, 143040, Note_on_c, 9, 40, 95
8, 143520, Note_off_c, 9, 42, 95
8, 143520, Note_on_c, 9, 42, 95
8, 144000, Note_off_c, 9, 40, 95
8, 144000, Note_off_c, 9, 42, 95
8, 144000, Note_on_c, 9, 42, 95
8, 144480, Note_off_c, 9, 42, 95
8, 144480, Note_on_c, 9, 42, 95
8, 144480, Note_on_c, 9, 36, 95
8, 144960, Note_off_c, 9, 42, 95
8, 144960, Note_off_c, 9, 36, 95
8, 144960, Note_on_c, 9, 42, 95
8, 144960, Note_on_c, 9, 40, 95
8, 145440, Note_off_c, 9, 42, 95
8, 145440, Note_off_c, 9, 40, 95
8, 145440, Note_on_c, 9, 42, 95
8, 145440, Note_on_c, 9, 36, 95
8, 145920, Note_off_c, 9, 42, 95
8, 145920, Note_off_c, 9, 36, 95
8, 145920, Note_on_c, 9, 42, 95
8, 145920, Note_on_c, 9, 36, 95
8, 146400, Note_off_c, 9, 42, 95
8, 146400, Note_on_c, 9, 42, 95
8, 146880, Note_off_c, 9, 36, 95
8, 146880, Note_off_c, 9, 42, 95
8, 146880, Note_on_c, 9, 42, 95
8, 146880, Note_on_c, 9, 40, 95
8, 147360, Note_off_c, 9, 40, 95
8, 147360, Note_on_c, 9, 40, 95
8, 147600, Note_off_c, 9, 40, 95
8, 147600, Note_on_c, 9, 40, 95
8, 147840, Note_off_c, 9, 42, 95
8, 147840, Note_off_c, 9, 40, 95
8, 147840, Note_on_c, 9, 49, 95
8, 147840, Note_on_c, 9, 36, 95
8, 148320, Note_off_c, 9, 49, 95
8, 148320, Note_off_c, 9, 36, 95
8, 148320, Note_on_c, 9, 49, 95
8, 148320, Note_on_c, 9, 36, 95
8, 148800, Note_off_c, 9, 49, 95
8, 148800, Note_off_c, 9, 36, 95
8, 148800, Note_on_c, 9, 49, 95
8, 148800, Note_on_c, 9, 36, 95
8, 149280, Note_off_c, 9, 49, 95
8, 149280, Note_off_c, 9, 36, 95
8, 149280, Note_on_c, 9, 49, 95
8, 149280, Note_on_c, 9, 36, 95
8, 149760, Note_off_c, 9, 36, 95
8, 149760, Note_on_c, 9, 36, 95
8, 150240, Note_off_c, 9, 49, 95
8, 150240, Note_on_c, 9, 42, 95
8, 150720, Note_off_c, 9, 36, 95
8, 150720, Note_off_c, 9, 42, 95
8, 150720, Note_on_c, 9, 42, 95
8, 150720, Note_on_c, 9, 40, 95
8, 151200, Note_off_c, 9, 42, 95
8, 151200, Note_on_c, 9, 42, 95
8, 151680, Note_off_c, 9, 40, 95
8, 151680, Note_off_c, 9, 42, 95
8, 151680, Note_on_c, 9, 42, 95
8, 152160, Note_off_c, 9, 42, 95
8, 152160, Note_on_c, 9, 42, 95
8, 152160, Note_on_c, 9, 36, 95
8, 152640, Note_off_c, 9, 42, 95
8, 152640, Note_off_c, 9, 36, 95
8, 152640, Note_on_c, 9, 42, 95
8, 152640, Note_on_c, 9, 40, 95
8, 153120, Note_off_c, 9, 42, 95
8, 153120, Note_off_c, 9, 40, 95
8, 153120, Note_on_c, 9, 42, 95
8, 153120, Note_on_c, 9, 36, 95
8, 153600, Note_off_c, 9, 42, 95
8, 153600, Note_off_c, 9, 36, 95
8, 153600, Note_on_c, 9, 36, 95
8, 154080, Note_on_c, 9, 42, 95
8, 154560, Note_off_c, 9, 36, 95
8, 154560, Note_off_c, 9, 42, 95
8, 154560, Note_on_c, 9, 42, 95
8, 154560, Note_on_c, 9, 40, 95
8, 155040, Note_off_c, 9, 42, 95
8, 155040, Note_on_c, 9, 42, 95
8, 155520, Note_off_c, 9, 40, 95
8, 155520, Note_off_c, 9, 42, 95
8, 155520, Note_on_c, 9, 42, 95
8, 156000, Note_off_c, 9, 42, 95
8, 156000, Note_on_c, 9, 42, 95
8, 156000, Note_on_c, 9, 36, 95
8, 156480, Note_off_c, 9, 42, 95
8, 156480, Note_off_c, 9, 36, 95
8, 156480, Note_on_c, 9, 42, 95
8, 156480, Note_on_c, 9, 40, 95
8, 156960, Note_off_c, 9, 42, 95
8, 156960, Note_off_c, 9, 40, 95
8, 156960, Note_on_c, 9, 42, 95
8, 156960, Note_on_c, 9, 36, 95
8, 157440, Note_off_c, 9, 42, 95
8, 157440, Note_off_c, 9, 36, 95
8, 157440, Note_on_c, 9, 42, 95
8, 157440, Note_on_c, 9, 36, 95
8, 157920, Note_off_c, 9, 42, 95
8, 157920, Note_on_c, 9, 42, 95
8, 158400, Note_off_c, 9, 36, 95
8, 158400, Note_off_c, 9, 42, 95
8, 158400, Note_on_c, 9, 42, 95
8, 158400, Note_on_c, 9, 40, 95
8, 158880, Note_off_c, 9, 42, 95
8, 158880, Note_on_c, 9, 42, 95
8, 159360, Note_off_c, 9, 40, 95
8, 159360, Note_off_c, 9, 42, 95
8, 159360, Note_on_c, 9, 42, 95
8, 159840, Note_off_c, 9, 42, 95
8, 159840, Note_on_c, 9, 42, 95
8, 159840, Note_on_c, 9, 36, 95
8, 160320, Note_off_c, 9, 42, 95
8, 160320, Note_off_c, 9, 36, 95
8, 160320, Note_on_c, 9, 42, 95
8, 160320, Note_on_c, 9, 40, 95
8, 160800, Note_off_c, 9, 42, 95
8, 160800, Note_off_c, 9, 40, 95
8, 160800, Note_on_c, 9, 42, 95
8, 160800, Note_on_c, 9, 36, 95
8, 161280, Note_off_c, 9, 42, 95
8, 161280, Note_off_c, 9, 36, 95
8, 161280, Note_on_c, 9, 42, 95
8, 161280, Note_on_c, 9, 36, 95
8, 161760, Note_off_c, 9, 42, 95
8, 161760, Note_on_c, 9, 42, 95
8, 162240, Note_off_c, 9, 36, 95
8, 162240, Note_off_c, 9, 42, 95
8, 162240, Note_on_c, 9, 42, 95
8, 162240, Note_on_c, 9, 40, 95
8, 162720, Note_off_c, 9, 42, 95
8, 162720, Note_on_c, 9, 42, 95
8, 163200, Note_off_c, 9, 40, 95
8, 163200, Note_off_c, 9, 42, 95
8, 163200, Note_on_c, 9, 42, 95
8, 163680, Note_off_c, 9, 42, 95
8, 163680, Note_on_c, 9, 42, 95
8, 163680, Note_on_c, 9, 36, 95
8, 164160, Note_off_c, 9, 42, 95
8, 164160, Note_off_c, 9, 36, 95
8, 164160, Note_on_c, 9, 42, 95
8, 164160, Note_on_c, 9, 40, 95
8, 164640, Note_off_c, 9, 42, 95
8, 164640, Note_off_c, 9, 40, 95
8, 164640, Note_on_c, 9, 42, 95
8, 164640, Note_on_c, 9, 36, 95
8, 165120, Note_off_c, 9, 42, 95
8, 165120, Note_off_c, 9, 36, 95
8, 165120, Note_on_c, 9, 42, 95
8, 165120, Note_on_c, 9, 36, 95
8, 165600, Note_off_c, 9, 42, 95
8, 165600, Note_on_c, 9, 42, 95
8, 166080, Note_off_c, 9, 36, 95
8, 166080, Note_off_c, 9, 42, 95
8, 166080, Note_on_c, 9, 42, 95
8, 166080, Note_on_c, 9, 40, 95
8, 166560, Note_off_c, 9, 42, 95
8, 166560, Note_on_c, 9, 42, 95
8, 167040, Note_off_c, 9, 40, 95
8, 167040, Note_off_c, 9, 42, 95
8, 167040, Note_on_c, 9, 42, 95
8, 167040, Note_on_c, 9, 36, 95
8, 167280, Note_off_c, 9, 36, 95
8, 167280, Note_on_c, 9, 40, 95
8, 167400, Note_off_c, 9, 40, 95
8, 167400, Note_on_c, 9, 40, 95
8, 167520, Note_off_c, 9, 40, 95
8, 167520, Note_on_c, 9, 40, 95
8, 167760, Note_off_c, 9, 40, 95
8, 167760, Note_on_c, 9, 41, 95
8, 168000, Note_off_c, 9, 42, 95
8, 168000, Note_off_c, 9, 41, 95
8, 168000, Note_on_c, 9, 40, 95
8, 168120, Note_off_c, 9, 40, 95
8, 168120, Note_on_c, 9, 40, 95
8, 168240, Note_off_c, 9, 40, 95
8, 168240, Note_on_c, 9, 40, 95
8, 168480, Note_off_c, 9, 40, 95
8, 168480, Note_on_c, 9, 41, 95
8, 168600, Note_off_c, 9, 41, 95
8, 168600, Note_on_c, 9, 41, 95
8, 168720, Note_off_c, 9, 41, 95
8, 168720, Note_on_c, 9, 41, 95
8, 168960, Note_off_c, 9, 41, 95
8, 168960, Note_on_c, 9, 49, 95
8, 168960, Note_on_c, 9, 36, 95
8, 169200, Note_off_c, 9, 49, 95
8, 169200, Note_on_c, 9, 42, 95
8, 169440, Note_off_c, 9, 42, 95
8, 169440, Note_on_c, 9, 42, 95
8, 169680, Note_off_c, 9, 36, 95
8, 169680, Note_off_c, 9, 42, 95
8, 169680, Note_on_c, 9, 42, 95
8, 169680, Note_on_c, 9, 36, 95
8, 169920, Note_off_c, 9, 42, 95
8, 169920, Note_off_c, 9, 36, 95
8, 169920, Note_on_c, 9, 42, 95
8, 169920, Note_on_c, 9, 40, 95
8, 170160, Note_off_c, 9, 42, 95
8, 170160, Note_off_c, 9, 40, 95
8, 170160, Note_on_c, 9, 42, 95
8, 170160, Note_on_c, 9, 40, 95
8, 170400, Note_off_c, 9, 42, 95
8, 170400, Note_on_c, 9, 42, 95
8, 170640, Note_off_c, 9, 40, 95
8, 170640, Note_off_c, 9, 42, 95
8, 170640, Note_on_c, 9, 42, 95
8, 170640, Note_on_c, 9, 36, 95
8, 170880, Note_off_c, 9, 42, 95
8, 170880, Note_off_c, 9, 36, 95
8, 170880, Note_on_c, 9, 42, 95
8, 170880, Note_on_c, 9, 36, 95
8, 171120, Note_off_c, 9, 42, 95
8, 171120, Note_on_c, 9, 42, 95
8, 171360, Note_off_c, 9, 42, 95
8, 171360, Note_on_c, 9, 42, 95
8, 171600, Note_off_c, 9, 36, 95
8, 171600, Note_off_c, 9, 42, 95
8, 171600, Note_on_c, 9, 42, 95
8, 171600, Note_on_c, 9, 36, 95
8, 171840, Note_off_c, 9, 42, 95
8, 171840, Note_off_c, 9, 36, 95
8, 171840, Note_on_c, 9, 42, 95
8, 171840, Note_on_c, 9, 40, 95
8, 172080, Note_off_c, 9, 42, 95
8, 172080, Note_off_c, 9, 40, 95
8, 172080, Note_on_c, 9, 42, 95
8, 172080, Note_on_c, 9, 40, 95
8, 172320, Note_off_c, 9, 42, 95
8, 172320, Note_on_c, 9, 42, 95
8, 172560, Note_off_c, 9, 40, 95
8, 172560, Note_off_c, 9, 42, 95
8, 172560, Note_on_c, 9, 42, 95
8, 172560, Note_on_c, 9, 36, 95
8, 172800, Note_off_c, 9, 42, 95
8, 172800, Note_off_c, 9, 36, 95
8, 172800, Note_on_c, 9, 42, 95
8, 172800, Note_on_c, 9, 36, 95
8, 173040, Note_off_c, 9, 42, 95
8, 173040, Note_on_c, 9, 42, 95
8, 173280, Note_off_c, 9, 42, 95
8, 173280, Note_on_c, 9, 42, 95
8, 173520, Note_off_c, 9, 36, 95
8, 173520, Note_off_c, 9, 42, 95
8, 173520, Note_on_c, 9, 42, 95
8, 173520, Note_on_c, 9, 36, 95
8, 173760, Note_off_c, 9, 42, 95
8, 173760, Note_off_c, 9, 36, 95
8, 173760, Note_on_c, 9, 42, 95
8, 173760, Note_on_c, 9, 40, 95
8, 174000, Note_off_c, 9, 42, 95
8, 174000, Note_off_c, 9, 40, 95
8, 174000, Note_on_c, 9, 42, 95
8, 174000, Note_on_c, 9, 40, 95
8, 174240, Note_off_c, 9, 42, 95
8, 174240, Note_on_c, 9, 42, 95
8, 174480, Note_off_c, 9, 40, 95
8, 174480, Note_off_c, 9, 42, 95
8, 174480, Note_on_c, 9, 42, 95
8, 174480, Note_on_c, 9, 36, 95
8, 174720, Note_off_c, 9, 42, 95
8, 174720, Note_off_c, 9, 36, 95
8, 174720, Note_on_c, 9, 42, 95
8, 174720, Note_on_c, 9, 40, 95
8, 174960, Note_off_c, 9, 42, 95
8, 174960, Note_off_c, 9, 40, 95
8, 174960, Note_on_c, 9, 42, 95
8, 174960, Note_on_c, 9, 40, 95
8, 175200, Note_off_c, 9, 42, 95
8, 175200, Note_off_c, 9, 40, 95
8, 175200, Note_on_c, 9, 42, 95
8, 175200, Note_on_c, 9, 40, 95
8, 175440, Note_off_c, 9, 42, 95
8, 175440, Note_off_c, 9, 40, 95
8, 175440, Note_on_c, 9, 42, 95
8, 175440, Note_on_c, 9, 36, 95
8, 175680, Note_off_c, 9, 42, 95
8, 175680, Note_off_c, 9, 36, 95
8, 175680, Note_on_c, 9, 42, 95
8, 175680, Note_on_c, 9, 40, 95
8, 175920, Note_off_c, 9, 42, 95
8, 175920, Note_off_c, 9, 40, 95
8, 175920, Note_on_c, 9, 42, 95
8, 175920, Note_on_c, 9, 40, 95
8, 176160, Note_off_c, 9, 42, 95
8, 176160, Note_off_c, 9, 40, 95
8, 176160, Note_on_c, 9, 42, 95
8, 176160, Note_on_c, 9, 40, 95
8, 176280, Note_off_c, 9, 40, 95
8, 176280, Note_on_c, 9, 40, 95
8, 176400, Note_off_c, 9, 42, 95
8, 176400, Note_off_c, 9, 40, 95
8, 176400, Note_on_c, 9, 42, 95
8, 176400, Note_on_c, 9, 40, 95
8, 176640, Note_off_c, 9, 42, 95
8, 176640, Note_off_c, 9, 40, 95
8, 176640, Note_on_c, 9, 49, 95
8, 176640, Note_on_c, 9, 36, 95
8, 176880, Note_off_c, 9, 49, 95
8, 176880, Note_on_c, 9, 42, 95
8, 177120, Note_off_c, 9, 42, 95
8, 177120, Note_on_c, 9, 42, 95
8, 177360, Note_off_c, 9, 36, 95
8, 177360, Note_off_c, 9, 42, 95
8, 177360, Note_on_c, 9, 42, 95
8, 177360, Note_on_c, 9, 36, 95
8, 177600, Note_off_c, 9, 42, 95
8, 177600, Note_off_c, 9, 36, 95
8, 177600, Note_on_c, 9, 42, 95
8, 177600, Note_on_c, 9, 40, 95
8, 177840, Note_off_c, 9, 42, 95
8, 177840, Note_off_c, 9, 40, 95
8, 177840, Note_on_c, 9, 42, 95
8, 177840, Note_on_c, 9, 40, 95
8, 178080, Note_off_c, 9, 42, 95
8, 178080, Note_on_c, 9, 42, 95
8, 178320, Note_off_c, 9, 40, 95
8, 178320, Note_off_c, 9, 42, 95
8, 178320, Note_on_c, 9, 42, 95
8, 178320, Note_on_c, 9, 36, 95
8, 178560, Note_off_c, 9, 42, 95
8, 178560, Note_off_c, 9, 36, 95
8, 178560, Note_on_c, 9, 42, 95
8, 178560, Note_on_c, 9, 36, 95
8, 178800, Note_off_c, 9, 42, 95
8, 178800, Note_on_c, 9, 42, 95
8, 179040, Note_off_c, 9, 42, 95
8, 179040, Note_on_c, 9, 42, 95
8, 179280, Note_off_c, 9, 36, 95
8, 179280, Note_off_c, 9, 42, 95
8, 179280, Note_on_c, 9, 42, 95
8, 179280, Note_on_c, 9, 36, 95
8, 179520, Note_off_c, 9, 42, 95
8, 179520, Note_off_c, 9, 36, 95
8, 179520, Note_on_c, 9, 42, 95
8, 179520, Note_on_c, 9, 40, 95
8, 179760, Note_off_c, 9, 42, 95
8, 179760, Note_off_c, 9, 40, 95
8, 179760, Note_on_c, 9, 42, 95
8, 179760, Note_on_c, 9, 40, 95
8, 180000, Note_off_c, 9, 42, 95
8, 180000, Note_on_c, 9, 42, 95
8, 180240, Note_off_c, 9, 40, 95
8, 180240, Note_off_c, 9, 42, 95
8, 180240, Note_on_c, 9, 42, 95
8, 180240, Note_on_c, 9, 36, 95
8, 180480, Note_off_c, 9, 42, 95
8, 180480, Note_off_c, 9, 36, 95
8, 180480, Note_on_c, 9, 42, 95
8, 180480, Note_on_c, 9, 36, 95
8, 180720, Note_off_c, 9, 42, 95
8, 180720, Note_on_c, 9, 42, 95
8, 180960, Note_off_c, 9, 42, 95
8, 180960, Note_on_c, 9, 42, 95
8, 181200, Note_off_c, 9, 36, 95
8, 181200, Note_off_c, 9, 42, 95
8, 181200, Note_on_c, 9, 42, 95
8, 181200, Note_on_c, 9, 36, 95
8, 181440, Note_off_c, 9, 42, 95
8, 181440, Note_off_c, 9, 36, 95
8, 181440, Note_on_c, 9, 42, 95
8, 181440, Note_on_c, 9, 40, 95
8, 181680, Note_off_c, 9, 42, 95
8, 181680, Note_off_c, 9, 40, 95
8, 181680, Note_on_c, 9, 42, 95
8, 181680, Note_on_c, 9, 40, 95
8, 181920, Note_off_c, 9, 42, 95
8, 181920, Note_on_c, 9, 42, 95
8, 182160, Note_off_c, 9, 40, 95
8, 182160, Note_off_c, 9, 42, 95
8, 182160, Note_on_c, 9, 42, 95
8, 182160, Note_on_c, 9, 36, 95
8, 182400, Note_off_c, 9, 42, 95
8, 182400, Note_off_c, 9, 36, 95
8, 182400, Note_on_c, 9, 42, 95
8, 182400, Note_on_c, 9, 40, 95
8, 182640, Note_off_c, 9, 42, 95
8, 182640, Note_off_c, 9, 40, 95
8, 182640, Note_on_c, 9, 42, 95
8, 182640, Note_on_c, 9, 40, 95
8, 182880, Note_off_c, 9, 42, 95
8, 182880, Note_off_c, 9, 40, 95
8, 182880, Note_on_c, 9, 42, 95
8, 182880, Note_on_c, 9, 40, 95
8, 183120, Note_off_c, 9, 42, 95
8, 183120, Note_off_c, 9, 40, 95
8, 183120, Note_on_c, 9, 42, 95
8, 183120, Note_on_c, 9, 36, 95
8, 183360, Note_off_c, 9, 42, 95
8, 183360, Note_off_c, 9, 36, 95
8, 183360, Note_on_c, 9, 42, 95
8, 183360, Note_on_c, 9, 40, 95
8, 183600, Note_off_c, 9, 42, 95
8, 183600, Note_off_c, 9, 40, 95
8, 183600, Note_on_c, 9, 42, 95
8, 183600, Note_on_c, 9, 40, 95
8, 183840, Note_off_c, 9, 42, 95
8, 183840, Note_off_c, 9, 40, 95
8, 183840, Note_on_c, 9, 42, 95
8, 183840, Note_on_c, 9, 40, 95
8, 183960, Note_off_c, 9, 40, 95
8, 183960, Note_on_c, 9, 40, 95
8, 184080, Note_off_c, 9, 42, 95
8, 184080, Note_off_c, 9, 40, 95
8, 184080, Note_on_c, 9, 42, 95
8, 184080, Note_on_c, 9, 40, 95
8, 184320, Note_off_c, 9, 42, 95
8, 184320, Note_off_c, 9, 40, 95
8, 184320, Note_on_c, 9, 49, 95
8, 184320, Note_on_c, 9, 36, 95
8, 184560, Note_off_c, 9, 49, 95
8, 184560, Note_on_c, 9, 42, 95
8, 184800, Note_off_c, 9, 42, 95
8, 184800, Note_on_c, 9, 42, 95
8, 185040, Note_off_c, 9, 36, 95
8, 185040, Note_off_c, 9, 42, 95
8, 185040, Note_on_c, 9, 42, 95
8, 185040, Note_on_c, 9, 36, 95
8, 185280, Note_off_c, 9, 42, 95
8, 185280, Note_off_c, 9, 36, 95
8, 185280, Note_on_c, 9, 42, 95
8, 185280, Note_on_c, 9, 40, 95
8, 185520, Note_off_c, 9, 42, 95
8, 185520, Note_off_c, 9, 40, 95
8, 185520, Note_on_c, 9, 42, 95
8, 185520, Note_on_c, 9, 40, 95
8, 185760, Note_off_c, 9, 42, 95
8, 185760, Note_on_c, 9, 42, 95
8, 186000, Note_off_c, 9, 40, 95
8, 186000, Note_off_c, 9, 42, 95
8, 186000, Note_on_c, 9, 42, 95
8, 186000, Note_on_c, 9, 36, 95
8, 186240, Note_off_c, 9, 42, 95
8, 186240, Note_off_c, 9, 36, 95
8, 186240, Note_on_c, 9, 42, 95
8, 186240, Note_on_c, 9, 36, 95
8, 186480, Note_off_c, 9, 42, 95
8, 186480, Note_on_c, 9, 42, 95
8, 186720, Note_off_c, 9, 42, 95
8, 186720, Note_on_c, 9, 42, 95
8, 186960, Note_off_c, 9, 36, 95
8, 186960, Note_off_c, 9, 42, 95
8, 186960, Note_on_c, 9, 42, 95
8, 186960, Note_on_c, 9, 36, 95
8, 187200, Note_off_c, 9, 42, 95
8, 187200, Note_off_c, 9, 36, 95
8, 187200, Note_on_c, 9, 42, 95
8, 187200, Note_on_c, 9, 40, 95
8, 187440, Note_off_c, 9, 42, 95
8, 187440, Note_off_c, 9, 40, 95
8, 187440, Note_on_c, 9, 42, 95
8, 187440, Note_on_c, 9, 40, 95
8, 187680, Note_off_c, 9, 42, 95
8, 187680, Note_on_c, 9, 42, 95
8, 187920, Note_off_c, 9, 40, 95
8, 187920, Note_off_c, 9, 42, 95
8, 187920, Note_on_c, 9, 42, 95
8, 187920, Note_on_c, 9, 36, 95
8, 188160, Note_off_c, 9, 42, 95
8, 188160, Note_off_c, 9, 36, 95
8, 188160, Note_on_c, 9, 42, 95
8, 188160, Note_on_c, 9, 36, 95
8, 188400, Note_off_c, 9, 42, 95
8, 188400, Note_on_c, 9, 42, 95
8, 188640, Note_off_c, 9, 42, 95
8, 188640, Note_on_c, 9, 42, 95
8, 188880, Note_off_c, 9, 36, 95
8, 188880, Note_off_c, 9, 42, 95
8, 188880, Note_on_c, 9, 42, 95
8, 188880, Note_on_c, 9, 36, 95
8, 189120, Note_off_c, 9, 42, 95
8, 189120, Note_off_c, 9, 36, 95
8, 189120, Note_on_c, 9, 42, 95
8, 189120, Note_on_c, 9, 40, 95
8, 189360, Note_off_c, 9, 42, 95
8, 189360, Note_off_c, 9, 40, 95
8, 189360, Note_on_c, 9, 42, 95
8, 189360, Note_on_c, 9, 40, 95
8, 189600, Note_off_c, 9, 42, 95
8, 189600, Note_on_c, 9, 42, 95
8, 189840, Note_off_c, 9, 40, 95
8, 189840, Note_off_c, 9, 42, 95
8, 189840, Note_on_c, 9, 42, 95
8, 189840, Note_on_c, 9, 36, 95
8, 190080, Note_off_c, 9, 42, 95
8, 190080, Note_off_c, 9, 36, 95
8, 190080, Note_on_c, 9, 42, 95
8, 190080, Note_on_c, 9, 40, 95
8, 190320, Note_off_c, 9, 42, 95
8, 190320, Note_off_c, 9, 40, 95
8, 190320, Note_on_c, 9, 42, 95
8, 190320, Note_on_c, 9, 40, 95
8, 190560, Note_off_c, 9, 42, 95
8, 190560, Note_off_c, 9, 40, 95
8, 190560, Note_on_c, 9, 42, 95
8, 190560, Note_on_c, 9, 40, 95
8, 190800, Note_off_c, 9, 42, 95
8, 190800, Note_off_c, 9, 40, 95
8, 190800, Note_on_c, 9, 42, 95
8, 190800, Note_on_c, 9, 36, 95
8, 191040, Note_off_c, 9, 42, 95
8, 191040, Note_off_c, 9, 36, 95
8, 191040, Note_on_c, 9, 42, 95
8, 191040, Note_on_c, 9, 40, 95
8, 191280, Note_off_c, 9, 42, 95
8, 191280, Note_off_c, 9, 40, 95
8, 191280, Note_on_c, 9, 42, 95
8, 191280, Note_on_c, 9, 40, 95
8, 191520, Note_off_c, 9, 42, 95
8, 191520, Note_off_c, 9, 40, 95
8, 191520, Note_on_c, 9, 42, 95
8, 191520, Note_on_c, 9, 40, 95
8, 191640, Note_off_c, 9, 40, 95
8, 191640, Note_on_c, 9, 40, 95
8, 191760, Note_off_c, 9, 42, 95
8, 191760, Note_off_c, 9, 40, 95
8, 191760, Note_on_c, 9, 42, 95
8, 191760, Note_on_c, 9, 40, 95
8, 192000, Note_off_c, 9, 42, 95
8, 192000, Note_off_c, 9, 40, 95
8, 192000, Note_on_c, 9, 49, 95
8, 192000, Note_on_c, 9, 36, 95
8, 192480, Note_off_c, 9, 49, 95
8, 192480, Note_on_c, 9, 42, 95
8, 192720, Note_off_c, 9, 36, 95
8, 192720, Note_on_c, 9, 36, 95
8, 192960, Note_off_c, 9, 42, 95
8, 192960, Note_off_c, 9, 36, 95
8, 192960, Note_on_c, 9, 42, 95
8, 192960, Note_on_c, 9, 40, 95
8, 193440, Note_off_c, 9, 42, 95
8, 193440, Note_on_c, 9, 42, 95
8, 193680, Note_off_c, 9, 40, 95
8, 193680, Note_on_c, 9, 36, 95
8, 193920, Note_off_c, 9, 42, 95
8, 193920, Note_off_c, 9, 36, 95
8, 193920, Note_on_c, 9, 49, 95
8, 193920, Note_on_c, 9, 36, 95
8, 194400, Note_off_c, 9, 49, 95
8, 194400, Note_on_c, 9, 42, 95
8, 194640, Note_off_c, 9, 36, 95
8, 194640, Note_on_c, 9, 36, 95
8, 194880, Note_off_c, 9, 42, 95
8, 194880, Note_off_c, 9, 36, 95
8, 194880, Note_on_c, 9, 42, 95
8, 194880, Note_on_c, 9, 40, 95
8, 195360, Note_off_c, 9, 42, 95
8, 195360, Note_on_c, 9, 42, 95
8, 195600, Note_off_c, 9, 40, 95
8, 195600, Note_on_c, 9, 36, 95
8, 195840, Note_off_c, 9, 42, 95
8, 195840, Note_off_c, 9, 36, 95
8, 195840, Note_on_c, 9, 49, 95
8, 195840, Note_on_c, 9, 36, 95
8, 196000, Note_off_c, 9, 36, 95
8, 196000, Note_on_c, 9, 40, 95
8, 196160, Note_off_c, 9, 40, 95
8, 196160, Note_on_c, 9, 40, 95
8, 196320, Note_off_c, 9, 40, 95
8, 196320, Note_on_c, 9, 40, 95
8, 196480, Note_off_c, 9, 40, 95
8, 196480, Note_on_c, 9, 40, 95
8, 196640, Note_off_c, 9, 40, 95
8, 196640, Note_on_c, 9, 40, 95
8, 196800, Note_off_c, 9, 49, 95
8, 196800, Note_off_c, 9, 40, 95
8, 196800, Note_on_c, 9, 40, 95
8, 196960, Note_off_c, 9, 40, 95
8, 196960, Note_on_c, 9, 40, 95
8, 197120, Note_off_c, 9, 40, 95
8, 197120, Note_on_c, 9, 40, 95
8, 197280, Note_off_c, 9, 40, 95
8, 197280, Note_on_c, 9, 40, 95
8, 197440, Note_off_c, 9, 40, 95
8, 197440, Note_on_c, 9, 40, 95
8, 197600, Note_off_c, 9, 40, 95
8, 197600, Note_on_c, 9, 40, 95
8, 197760, Note_off_c, 9, 40, 95
8, 197760, Note_on_c, 9, 40, 95
8, 197920, Note_off_c, 9, 40, 95
8, 197920, Note_on_c, 9, 40, 95
8, 198080, Note_off_c, 9, 40, 95
8, 198080, Note_on_c, 9, 40, 95
8, 198240, Note_off_c, 9, 40, 95
8, 198240, Note_on_c, 9, 40, 95
8, 198400, Note_off_c, 9, 40, 95
8, 198400, Note_on_c, 9, 40, 95
8, 198560, Note_off_c, 9, 40, 95
8, 198560, Note_on_c, 9, 40, 95
8, 198720, Note_off_c, 9, 40, 95
8, 198720, Note_on_c, 9, 41, 95
8, 198880, Note_off_c, 9, 41, 95
8, 198880, Note_on_c, 9, 41, 95
8, 199040, Note_off_c, 9, 41, 95
8, 199040, Note_on_c, 9, 41, 95
8, 199200, Note_off_c, 9, 41, 95
8, 199200, Note_on_c, 9, 41, 95
8, 199360, Note_off_c, 9, 41, 95
8, 199360, Note_on_c, 9, 41, 95
8, 199520, Note_off_c, 9, 41, 95
8, 199520, Note_on_c, 9, 41, 95
8, 199680, Note_off_c, 9, 41, 95
8, 199680, Note_on_c, 9, 49, 95
8, 199680, Note_on_c, 9, 36, 95
8, 200160, Note_off_c, 9, 49, 95
8, 200160, Note_on_c, 9, 42, 95
8, 200640, Note_off_c, 9, 36, 95
8, 200640, Note_off_c, 9, 42, 95
8, 200640, Note_on_c, 9, 42, 95
8, 200640, Note_on_c, 9, 40, 95
8, 201120, Note_off_c, 9, 42, 95
8, 201120, Note_on_c, 9, 42, 95
8, 201360, Note_off_c, 9, 40, 95
8, 201360, Note_on_c, 9, 36, 95
8, 201600, Note_off_c, 9, 42, 95
8, 201600, Note_off_c, 9, 36, 95
8, 201600, Note_on_c, 9, 49, 95
8, 201600, Note_on_c, 9, 36, 95
8, 202080, Note_off_c, 9, 49, 95
8, 202080, Note_on_c, 9, 42, 95
8, 202320, Note_off_c, 9, 36, 95
8, 202320, Note_on_c, 9, 36, 95
8, 202560, Note_off_c, 9, 42, 95
8, 202560, Note_off_c, 9, 36, 95
8, 202560, Note_on_c, 9, 42, 95
8, 202560, Note_on_c, 9, 40, 95
8, 203040, Note_off_c, 9, 42, 95
8, 203040, Note_on_c, 9, 42, 95
8, 203520, Note_off_c, 9, 40, 95
8, 203520, Note_off_c, 9, 42, 95
8, 203520, Note_on_c, 9, 49, 95
8, 203520, Note_on_c, 9, 36, 95
8, 204000, Note_off_c, 9, 49, 95
8, 204000, Note_on_c, 9, 42, 95
8, 204240, Note_off_c, 9, 36, 95
8, 204240, Note_on_c, 9, 36, 95
8, 204480, Note_off_c, 9, 42, 95
8, 204480, Note_off_c, 9, 36, 95
8, 204480, Note_on_c, 9, 42, 95
8, 204480, Note_on_c, 9, 40, 95
8, 204960, Note_off_c, 9, 42, 95
8, 204960, Note_off_c, 9, 40, 95
8, 204960, Note_on_c, 9, 49, 95
8, 204960, Note_on_c, 9, 36, 95
8, 205440, Note_off_c, 9, 49, 95
8, 205440, Note_on_c, 9, 42, 95
8, 205680, Note_off_c, 9, 36, 95
8, 205680, Note_on_c, 9, 36, 95
8, 205920, Note_off_c, 9, 42, 95
8, 205920, Note_off_c, 9, 36, 95
8, 205920, Note_on_c, 9, 42, 95
8, 205920, Note_on_c, 9, 40, 95
8, 206400, Note_off_c, 9, 42, 95
8, 206400, Note_off_c, 9, 40, 95
8, 206400, Note_on_c, 9, 40, 95
8, 206560, Note_off_c, 9, 40, 95
8, 206560, Note_on_c, 9, 40, 95
8, 206720, Note_off_c, 9, 40, 95
8, 206720, Note_on_c, 9, 40, 95
8, 206880, Note_off_c, 9, 40, 95
8, 206880, Note_on_c, 9, 40, 95
8, 207360, Note_off_c, 9, 40, 95
8, 207360, Note_on_c, 9, 49, 95
8, 207360, Note_on_c, 9, 36, 95
8, 207840, Note_off_c, 9, 49, 95
8, 207840, Note_on_c, 9, 42, 95
8, 208320, Note_off_c, 9, 36, 95
8, 208320, Note_off_c, 9, 42, 95
8, 208320, Note_on_c, 9, 42, 95
8, 208320, Note_on_c, 9, 40, 95
8, 208800, Note_off_c, 9, 42, 95
8, 208800, Note_on_c, 9, 42, 95
8, 209040, Note_off_c, 9, 40, 95
8, 209040, Note_on_c, 9, 36, 95
8, 209280, Note_off_c, 9, 42, 95
8, 209280, Note_off_c, 9, 36, 95
8, 209280, Note_on_c, 9, 49, 95
8, 209280, Note_on_c, 9, 36, 95
8, 209760, Note_off_c, 9, 49, 95
8, 209760, Note_on_c, 9, 42, 95
8, 210240, Note_off_c, 9, 36, 95
8, 210240, Note_off_c, 9, 42, 95
8, 210240, Note_on_c, 9, 42, 95
8, 210240, Note_on_c, 9, 40, 95
8, 210720, Note_off_c, 9, 42, 95
8, 210720, Note_on_c, 9, 42, 95
8, 211200, Note_off_c, 9, 40, 95
8, 211200, Note_off_c, 9, 42, 95
8, 211200, Note_on_c, 9, 49, 95
8, 211200, Note_on_c, 9, 36, 95
8, 211680, Note_off_c, 9, 49, 95
8, 211680, Note_on_c, 9, 42, 95
8, 211920, Note_off_c, 9, 36, 95
8, 211920, Note_on_c, 9, 36, 95
8, 212160, Note_off_c, 9, 42, 95
8, 212160, Note_off_c, 9, 36, 95
8, 212160, Note_on_c, 9, 42, 95
8, 212160, Note_on_c, 9, 40, 95
8, 212640, Note_off_c, 9, 42, 95
8, 212640, Note_off_c, 9, 40, 95
8, 212640, Note_on_c, 9, 49, 95
8, 212640, Note_on_c, 9, 36, 95
8, 213120, Note_off_c, 9, 49, 95
8, 213120, Note_on_c, 9, 42, 95
8, 213360, Note_off_c, 9, 36, 95
8, 213360, Note_on_c, 9, 36, 95
8, 213600, Note_off_c, 9, 42, 95
8, 213600, Note_off_c, 9, 36, 95
8, 213600, Note_on_c, 9, 42, 95
8, 213600, Note_on_c, 9, 40, 95
8, 214080, Note_off_c, 9, 42, 95
8, 214080, Note_off_c, 9, 40, 95
8, 214080, Note_on_c, 9, 40, 95
8, 214200, Note_off_c, 9, 40, 95
8, 214200, Note_on_c, 9, 40, 95
8, 214320, Note_off_c, 9, 40, 95
8, 214320, Note_on_c, 9, 40, 95
8, 214440, Note_off_c, 9, 40, 95
8, 214440, Note_on_c, 9, 40, 95
8, 214560, Note_off_c, 9, 40, 95
8, 214560, Note_on_c, 9, 40, 95
8, 215040, Note_off_c, 9, 40, 95
8, 215040, Note_on_c, 9, 49, 95
8, 215040, Note_on_c, 9, 36, 95
8, 215520, Note_off_c, 9, 49, 95
8, 215520, Note_on_c, 9, 42, 95
8, 216000, Note_off_c, 9, 36, 95
8, 216000, Note_off_c, 9, 42, 95
8, 216000, Note_on_c, 9, 42, 95
8, 216000, Note_on_c, 9, 40, 95
8, 216480, Note_off_c, 9, 42, 95
8, 216480, Note_on_c, 9, 42, 95
8, 216720, Note_off_c, 9, 40, 95
8, 216720, Note_on_c, 9, 36, 95
8, 216960, Note_off_c, 9, 42, 95
8, 216960, Note_off_c, 9, 36, 95
8, 216960, Note_on_c, 9, 49, 95
8, 216960, Note_on_c, 9, 36, 95
8, 217440, Note_off_c, 9, 49, 95
8, 217440, Note_on_c, 9, 42, 95
8, 217680, Note_off_c, 9, 36, 95
8, 217680, Note_on_c, 9, 36, 95
8, 217920, Note_off_c, 9, 42, 95
8, 217920, Note_off_c, 9, 36, 95
8, 217920, Note_on_c, 9, 42, 95
8, 217920, Note_on_c, 9, 40, 95
8, 218400, Note_off_c, 9, 42, 95
8, 218400, Note_on_c, 9, 42, 95
8, 218880, Note_off_c, 9, 40, 95
8, 218880, Note_off_c, 9, 42, 95
8, 218880, Note_on_c, 9, 49, 95
8, 218880, Note_on_c, 9, 36, 95
8, 219360, Note_off_c, 9, 49, 95
8, 219360, Note_on_c, 9, 42, 95
8, 219600, Note_off_c, 9, 36, 95
8, 219600, Note_on_c, 9, 36, 95
8, 219840, Note_off_c, 9, 42, 95
8, 219840, Note_off_c, 9, 36, 95
8, 219840, Note_on_c, 9, 42, 95
8, 219840, Note_on_c, 9, 40, 95
8, 220320, Note_off_c, 9, 42, 95
8, 220320, Note_off_c, 9, 40, 95
8, 220320, Note_on_c, 9, 49, 95
8, 220320, Note_on_c, 9, 36, 95
8, 220800, Note_off_c, 9, 49, 95
8, 220800, Note_on_c, 9, 42, 95
8, 221040, Note_off_c, 9, 36, 95
8, 221040, Note_on_c, 9, 36, 95
8, 221280, Note_off_c, 9, 42, 95
8, 221280, Note_off_c, 9, 36, 95
8, 221280, Note_on_c, 9, 42, 95
8, 221280, Note_on_c, 9, 40, 95
8, 221760, Note_off_c, 9, 42, 95
8, 221760, Note_off_c, 9, 40, 95
8, 221760, Note_on_c, 9, 49, 95
8, 221760, Note_on_c, 9, 36, 95
8, 222240, Note_off_c, 9, 49, 95
8, 222240, Note_on_c, 9, 42, 95
8, 222720, Note_off_c, 9, 36, 95
8, 222720, Note_off_c, 9, 42, 95
8, 222720, Note_on_c, 9, 49, 95
8, 222720, Note_on_c, 9, 36, 95
8, 223200, Note_off_c, 9, 49, 95
8, 223200, Note_on_c, 9, 42, 95
8, 223680, Note_off_c, 9, 36, 95
8, 223680, Note_off_c, 9, 42, 95
8, 223680, Note_on_c, 9, 42, 95
8, 223680, Note_on_c, 9, 40, 95
8, 224160, Note_off_c, 9, 42, 95
8, 224160, Note_on_c, 9, 42, 95
8, 224400, Note_off_c, 9, 40, 95
8, 224400, Note_on_c, 9, 36, 95
8, 224640, Note_off_c, 9, 42, 95
8, 224640, Note_off_c, 9, 36, 95
8, 224640, Note_on_c, 9, 49, 95
8, 224640, Note_on_c, 9, 36, 95
8, 225120, Note_off_c, 9, 49, 95
8, 225120, Note_on_c, 9, 42, 95
8, 225360, Note_off_c, 9, 36, 95
8, 225360, Note_on_c, 9, 36, 95
8, 225600, Note_off_c, 9, 42, 95
8, 225600, Note_off_c, 9, 36, 95
8, 225600, Note_on_c, 9, 42, 95
8, 225600, Note_on_c, 9, 40, 95
8, 226080, Note_off_c, 9, 42, 95
8, 226080, Note_on_c, 9, 42, 95
8, 226560, Note_off_c, 9, 40, 95
8, 226560, Note_off_c, 9, 42, 95
8, 226560, Note_on_c, 9, 49, 95
8, 226560, Note_on_c, 9, 36, 95
8, 227520, Note_off_c, 9, 49, 95
8, 227520, Note_off_c, 9, 36, 95
8, 230400, Note_on_c, 9, 49, 95
8, 230400, Note_on_c, 9, 36, 95
8, 231360, Note_off_c, 9, 49, 95
8, 231360, Note_off_c, 9, 36, 95
8, 233280, Note_on_c, 9, 49, 95
8, 233400, Note_off_c, 9, 49, 95
8, 233400, Note_on_c, 9, 57, 95
8, 233520, Note_off_c, 9, 57, 95
8, 233520, Note_on_c, 9, 49, 95
8, 233640, Note_off_c, 9, 49, 95
8, 233640, Note_on_c, 9, 57, 95
8, 233760, Note_off_c, 9, 57, 95
8, 233760, Note_on_c, 9, 49, 95
8, 233880, Note_off_c, 9, 49, 95
8, 233880, Note_on_c, 9, 57, 95
8, 234000, Note_off_c, 9, 57, 95
8, 234000, Note_on_c, 9, 49, 95
8, 234120, Note_off_c, 9, 49, 95
8, 234120, Note_on_c, 9, 57, 95
8, 234240, Note_off_c, 9, 57, 95
8, 234240, Note_on_c, 9, 49, 95
8, 234300, Note_off_c, 9, 49, 95
8, 234300, Note_on_c, 9, 57, 95
8, 234360, Note_off_c, 9, 57, 95
8, 234360, Note_on_c, 9, 49, 95
8, 234420, Note_off_c, 9, 49, 95
8, 234420, Note_on_c, 9, 57, 95
8, 234480, Note_off_c, 9, 57, 95
8, 234480, Note_on_c, 9, 49, 95
8, 234540, Note_off_c, 9, 49, 95
8, 234540, Note_on_c, 9, 57, 95
8, 234600, Note_off_c, 9, 57, 95
8, 234600, Note_on_c, 9, 49, 95
8, 234660, Note_off_c, 9, 49, 95
8, 234660, Note_on_c, 9, 57, 95
8, 234720, Note_off_c, 9, 57, 95
8, 234720, Note_on_c, 9, 49, 95
8, 234780, Note_off_c, 9, 49, 95
8, 234780, Note_on_c, 9, 57, 95
8, 234840, Note_off_c, 9, 57, 95
8, 234840, Note_on_c, 9, 49, 95
8, 234900, Note_off_c, 9, 49, 95
8, 234900, Note_on_c, 9, 57, 95
8, 234960, Note_off_c, 9, 57, 95
8, 234960, Note_on_c, 9, 49, 95
8, 235020, Note_off_c, 9, 49, 95
8, 235020, Note_on_c, 9, 57, 95
8, 235080, Note_off_c, 9, 57, 95
8, 235080, Note_on_c, 9, 49, 95
8, 235140, Note_off_c, 9, 49, 95
8, 235140, Note_on_c, 9, 57, 95
8, 235200, Note_off_c, 9, 57, 95
8, 235200, Note_on_c, 9, 49, 95
8, 235260, Note_off_c, 9, 49, 95
8, 235260, Note_on_c, 9, 57, 95
8, 235320, Note_off_c, 9, 57, 95
8, 235320, Note_on_c, 9, 49, 95
8, 235380, Note_off_c, 9, 49, 95
8, 235380, Note_on_c, 9, 57, 95
8, 235440, Note_off_c, 9, 57, 95
8, 235440, Note_on_c, 9, 49, 95
8, 235500, Note_off_c, 9, 49, 95
8, 235500, Note_on_c, 9, 57, 95
8, 235560, Note_off_c, 9, 57, 95
8, 235560, Note_on_c, 9, 49, 95
8, 235620, Note_off_c, 9, 49, 95
8, 235620, Note_on_c, 9, 57, 95
8, 235680, Note_off_c, 9, 57, 95
8, 235680, Note_on_c, 9, 49, 95
8, 235740, Note_off_c, 9, 49, 95
8, 235740, Note_on_c, 9, 57, 95
8, 235800, Note_off_c, 9, 57, 95
8, 235800, Note_on_c, 9, 49, 95
8, 235860, Note_off_c, 9, 49, 95
8, 235860, Note_on_c, 9, 57, 95
8, 235920, Note_off_c, 9, 57, 95
8, 235920, Note_on_c, 9, 49, 95
8, 235980, Note_off_c, 9, 49, 95
8, 235980, Note_on_c, 9, 57, 95
8, 236040, Note_off_c, 9, 57, 95
8, 236040, Note_on_c, 9, 49, 95
8, 236100, Note_off_c, 9, 49, 95
8, 236100, Note_on_c, 9, 57, 95
8, 236160, Note_off_c, 9, 57, 95
8, 236160, Note_on_c, 9, 49, 95
8, 236220, Note_off_c, 9, 49, 95
8, 236220, Note_on_c, 9, 57, 95
8, 236280, Note_off_c, 9, 57, 95
8, 236280, Note_on_c, 9, 49, 95
8, 236340, Note_off_c, 9, 49, 95
8, 236340, Note_on_c, 9, 57, 95
8, 236400, Note_off_c, 9, 57, 95
8, 236400, Note_on_c, 9, 49, 95
8, 236460, Note_off_c, 9, 49, 95
8, 236460, Note_on_c, 9, 57, 95
8, 236520, Note_off_c, 9, 57, 95
8, 236520, Note_on_c, 9, 49, 95
8, 236580, Note_off_c, 9, 49, 95
8, 236580, Note_on_c, 9, 57, 95
8, 236640, Note_off_c, 9, 57, 95
8, 236640, Note_on_c, 9, 49, 95
8, 236700, Note_off_c, 9, 49, 95
8, 236700, Note_on_c, 9, 57, 95
8, 236760, Note_off_c, 9, 57, 95
8, 236760, Note_on_c, 9, 49, 95
8, 236820, Note_off_c, 9, 49, 95
8, 236820, Note_on_c, 9, 57, 95
8, 236880, Note_off_c, 9, 57, 95
8, 236880, Note_on_c, 9, 49, 95
8, 236940, Note_off_c, 9, 49, 95
8, 236940, Note_on_c, 9, 57, 95
8, 237000, Note_off_c, 9, 57, 95
8, 237000, Note_on_c, 9, 49, 95
8, 237060, Note_off_c, 9, 49, 95
8, 237060, Note_on_c, 9, 57, 95
8, 237120, Note_off_c, 9, 57, 95
8, 237120, Note_on_c, 9, 49, 95
8, 237180, Note_off_c, 9, 49, 95
8, 237180, Note_on_c, 9, 57, 95
8, 237240, Note_off_c, 9, 57, 95
8, 237240, Note_on_c, 9, 49, 95
8, 237300, Note_off_c, 9, 49, 95
8, 237300, Note_on_c, 9, 57, 95
8, 237360, Note_off_c, 9, 57, 95
8, 237360, Note_on_c, 9, 49, 95
8, 237420, Note_off_c, 9, 49, 95
8, 237420, Note_on_c, 9, 57, 95
8, 237480, Note_off_c, 9, 57, 95
8, 237480, Note_on_c, 9, 49, 95
8, 237540, Note_off_c, 9, 49, 95
8, 237540, Note_on_c, 9, 57, 95
8, 237600, Note_off_c, 9, 57, 95
8, 237600, Note_on_c, 9, 49, 95
8, 237660, Note_off_c, 9, 49, 95
8, 237660, Note_on_c, 9, 57, 95
8, 237720, Note_off_c, 9, 57, 95
8, 237720, Note_on_c, 9, 49, 95
8, 237780, Note_off_c, 9, 49, 95
8, 237780, Note_on_c, 9, 57, 95
8, 237840, Note_off_c, 9, 57, 95
8, 237840, Note_on_c, 9, 49, 95
8, 237900, Note_off_c, 9, 49, 95
8, 237900, Note_on_c, 9, 57, 95
8, 237960, Note_off_c, 9, 57, 95
8, 237960, Note_on_c, 9, 49, 95
8, 238020, Note_off_c, 9, 49, 95
8, 238020, Note_on_c, 9, 57, 95
8, 238080, Note_off_c, 9, 57, 95
8, 238080, Note_on_c, 9, 49, 95
8, 238140, Note_off_c, 9, 49, 95
8, 238140, Note_on_c, 9, 57, 95
8, 238200, Note_off_c, 9, 57, 95
8, 238200, Note_on_c, 9, 49, 95
8, 238260, Note_off_c, 9, 49, 95
8, 238260, Note_on_c, 9, 57, 95
8, 238320, Note_off_c, 9, 57, 95
8, 238320, Note_on_c, 9, 49, 95
8, 238380, Note_off_c, 9, 49, 95
8, 238380, Note_on_c, 9, 57, 95
8, 238440, Note_off_c, 9, 57, 95
8, 238440, Note_on_c, 9, 49, 95
8, 238500, Note_off_c, 9, 49, 95
8, 238500, Note_on_c, 9, 57, 95
8, 238560, Note_off_c, 9, 57, 95
8, 238560, Note_on_c, 9, 49, 95
8, 238620, Note_off_c, 9, 49, 95
8, 238620, Note_on_c, 9, 57, 95
8, 238680, Note_off_c, 9, 57, 95
8, 238680, Note_on_c, 9, 49, 95
8, 238740, Note_off_c, 9, 49, 95
8, 238740, Note_on_c, 9, 57, 95
8, 238800, Note_off_c, 9, 57, 95
8, 238800, Note_on_c, 9, 49, 95
8, 238860, Note_off_c, 9, 49, 95
8, 238860, Note_on_c, 9, 57, 95
8, 238920, Note_off_c, 9, 57, 95
8, 238920, Note_on_c, 9, 49, 95
8, 238980, Note_off_c, 9, 49, 95
8, 238980, Note_on_c, 9, 57, 95
8, 239040, Note_off_c, 9, 57, 95
8, 239040, End_track
0, 0, End_of_file
