0, 0, Header, 1, 7, 960
1, 0, Start_track
1, 0, Control_c, 0, 101, 0
1, 0, Control_c, 0, 100, 0
1, 0, Control_c, 0, 6, 12
1, 0, Control_c, 0, 38, 0
1, 0, Control_c, 1, 101, 0
1, 0, Control_c, 1, 100, 0
1, 0, Control_c, 1, 6, 12
1, 0, Control_c, 1, 38, 0
1, 0, Control_c, 2, 101, 0
1, 0, Control_c, 2, 100, 0
1, 0, Control_c, 2, 6, 12
1, 0, Control_c, 2, 38, 0
1, 0, Control_c, 3, 101, 0
1, 0, Control_c, 3, 100, 0
1, 0, Control_c, 3, 6, 12
1, 0, Control_c, 3, 38, 0
1, 0, Control_c, 4, 101, 0
1, 0, Control_c, 4, 100, 0
1, 0, Control_c, 4, 6, 12
1, 0, Control_c, 4, 38, 0
1, 0, Control_c, 5, 101, 0
1, 0, Control_c, 5, 100, 0
1, 0, Control_c, 5, 6, 12
1, 0, Control_c, 5, 38, 0
1, 0, Control_c, 6, 101, 0
1, 0, Control_c, 6, 100, 0
1, 0, Control_c, 6, 6, 12
1, 0, Control_c, 6, 38, 0
1, 0, Control_c, 7, 101, 0
1, 0, Control_c, 7, 100, 0
1, 0, Control_c, 7, 6, 12
1, 0, Control_c, 7, 38, 0
1, 0, Control_c, 8, 101, 0
1, 0, Control_c, 8, 100, 0
1, 0, Control_c, 8, 6, 12
1, 0, Control_c, 8, 38, 0
1, 0, Control_c, 9, 101, 0
1, 0, Control_c, 9, 100, 0
1, 0, Control_c, 9, 6, 12
1, 0, Control_c, 9, 38, 0
1, 0, Control_c, 10, 101, 0
1, 0, Control_c, 10, 100, 0
1, 0, Control_c, 10, 6, 12
1, 0, Control_c, 10, 38, 0
1, 0, Control_c, 11, 101, 0
1, 0, Control_c, 11, 100, 0
1, 0, Control_c, 11, 6, 12
1, 0, Control_c, 11, 38, 0
1, 0, Control_c, 12, 101, 0
1, 0, Control_c, 12, 100, 0
1, 0, Control_c, 12, 6, 12
1, 0, Control_c, 12, 38, 0
1, 0, Control_c, 13, 101, 0
1, 0, Control_c, 13, 100, 0
1, 0, Control_c, 13, 6, 12
1, 0, Control_c, 13, 38, 0
1, 0, Control_c, 14, 101, 0
1, 0, Control_c, 14, 100, 0
1, 0, Control_c, 14, 6, 12
1, 0, Control_c, 14, 38, 0
1, 0, Control_c, 15, 101, 0
1, 0, Control_c, 15, 100, 0
1, 0, Control_c, 15, 6, 12
1, 0, Control_c, 15, 38, 0
1, 0, Time_signature, 4, 2, 24, 8
1, 0, Tempo, 480000
1, 126720, Time_signature, 2, 2, 24, 8
1, 128640, Time_signature, 4, 2, 24, 8
1, 255360, Time_signature, 2, 2, 24, 8
1, 257280, Time_signature, 4, 2, 24, 8
1, 257280, End_track
2, 0, Start_track
2, 0, Pitch_bend_c, 0, 8192
2, 0, Control_c, 0, 7, 87
2, 0, Control_c, 0, 10, 23
2, 0, Control_c, 0, 93, 0
2, 0, Control_c, 0, 91, 0
2, 0, Control_c, 0, 95, 55
2, 0, Control_c, 0, 92, 0
2, 0, Control_c, 0, 11, 127
2, 0, Program_c, 0, 27
2, 0, Control_c, 1, 7, 87
2, 0, Control_c, 1, 10, 23
2, 0, Control_c, 1, 93, 0
2, 0, Control_c, 1, 91, 0
2, 0, Control_c, 1, 95, 55
2, 0, Control_c, 1, 92, 0
2, 0, Control_c, 1, 11, 127
2, 0, Program_c, 1, 27
2, 0, Note_on_c, 0, 74, 127
2, 0, Note_on_c, 0, 68, 127
2, 0, Note_on_c, 0, 64, 127
2, 240, Note_off_c, 0, 74, 127
2, 240, Note_off_c, 0, 68, 127
2, 240, Note_off_c, 0, 64, 127
2, 480, Note_on_c, 0, 74, 95
2, 480, Note_on_c, 0, 68, 95
2, 480, Note_on_c, 0, 64, 95
2, 720, Note_off_c, 0, 74, 95
2, 720, Note_off_c, 0, 68, 95
2, 720, Note_off_c, 0, 64, 95
2, 960, Note_on_c, 0, 74, 95
2, 960, Note_on_c, 0, 68, 95
2, 960, Note_on_c, 0, 64, 95
2, 1200, Note_off_c, 0, 74, 95
2, 1200, Note_off_c, 0, 68, 95
2, 1200, Note_off_c, 0, 64, 95
2, 1440, Note_on_c, 0, 74, 127
2, 1440, Note_on_c, 0, 68, 127
2, 1440, Note_on_c, 0, 64, 127
2, 1680, Note_off_c, 0, 74, 127
2, 1680, Note_off_c, 0, 68, 127
2, 1680, Note_off_c, 0, 64, 127
2, 1920, Note_on_c, 0, 74, 95
2, 1920, Note_on_c, 0, 68, 95
2, 1920, Note_on_c, 0, 64, 95
2, 2160, Note_off_c, 0, 74, 95
2, 2160, Note_off_c, 0, 68, 95
2, 2160, Note_off_c, 0, 64, 95
2, 2400, Note_on_c, 0, 74, 95
2, 2400, Note_on_c, 0, 68, 95
2, 2400, Note_on_c, 0, 64, 95
2, 2640, Note_off_c, 0, 74, 95
2, 2640, Note_off_c, 0, 68, 95
2, 2640, Note_off_c, 0, 64, 95
2, 2880, Note_on_c, 0, 74, 127
2, 2880, Note_on_c, 0, 68, 127
2, 2880, Note_on_c, 0, 64, 127
2, 3120, Note_off_c, 0, 74, 127
2, 3120, Note_off_c, 0, 68, 127
2, 3120, Note_off_c, 0, 64, 127
2, 3360, Note_on_c, 0, 64, 47
2, 3360, Note_on_c, 0, 59, 47
2, 3840, Note_off_c, 0, 64, 47
2, 3840, Note_off_c, 0, 59, 47
2, 3840, Note_on_c, 0, 70, 127
2, 3840, Note_on_c, 0, 67, 127
2, 3840, Note_on_c, 0, 64, 127
2, 4080, Note_off_c, 0, 70, 127
2, 4080, Note_off_c, 0, 67, 127
2, 4080, Note_off_c, 0, 64, 127
2, 4320, Note_on_c, 0, 70, 95
2, 4320, Note_on_c, 0, 67, 95
2, 4320, Note_on_c, 0, 64, 95
2, 4560, Note_off_c, 0, 70, 95
2, 4560, Note_off_c, 0, 67, 95
2, 4560, Note_off_c, 0, 64, 95
2, 4800, Note_on_c, 0, 70, 95
2, 4800, Note_on_c, 0, 67, 95
2, 4800, Note_on_c, 0, 64, 95
2, 5040, Note_off_c, 0, 70, 95
2, 5040, Note_off_c, 0, 67, 95
2, 5040, Note_off_c, 0, 64, 95
2, 5280, Note_on_c, 0, 70, 127
2, 5280, Note_on_c, 0, 67, 127
2, 5280, Note_on_c, 0, 64, 127
2, 5520, Note_off_c, 0, 70, 127
2, 5520, Note_off_c, 0, 67, 127
2, 5520, Note_off_c, 0, 64, 127
2, 5760, Note_on_c, 0, 70, 95
2, 5760, Note_on_c, 0, 67, 95
2, 5760, Note_on_c, 0, 64, 95
2, 6000, Note_off_c, 0, 70, 95
2, 6000, Note_off_c, 0, 67, 95
2, 6000, Note_off_c, 0, 64, 95
2, 6240, Note_on_c, 0, 70, 95
2, 6240, Note_on_c, 0, 67, 95
2, 6240, Note_on_c, 0, 64, 95
2, 6480, Note_off_c, 0, 70, 95
2, 6480, Note_off_c, 0, 67, 95
2, 6480, Note_off_c, 0, 64, 95
2, 6720, Note_on_c, 0, 70, 127
2, 6720, Note_on_c, 0, 67, 127
2, 6720, Note_on_c, 0, 64, 127
2, 6960, Note_off_c, 0, 70, 127
2, 6960, Note_off_c, 0, 67, 127
2, 6960, Note_off_c, 0, 64, 127
2, 7200, Note_on_c, 0, 64, 47
2, 7200, Note_on_c, 0, 59, 47
2, 7680, Note_off_c, 0, 64, 47
2, 7680, Note_off_c, 0, 59, 47
2, 7680, Note_on_c, 0, 74, 127
2, 7680, Note_on_c, 0, 68, 127
2, 7680, Note_on_c, 0, 64, 127
2, 7920, Note_off_c, 0, 74, 127
2, 7920, Note_off_c, 0, 68, 127
2, 7920, Note_off_c, 0, 64, 127
2, 8160, Note_on_c, 0, 74, 95
2, 8160, Note_on_c, 0, 68, 95
2, 8160, Note_on_c, 0, 64, 95
2, 8400, Note_off_c, 0, 74, 95
2, 8400, Note_off_c, 0, 68, 95
2, 8400, Note_off_c, 0, 64, 95
2, 8640, Note_on_c, 0, 74, 95
2, 8640, Note_on_c, 0, 68, 95
2, 8640, Note_on_c, 0, 64, 95
2, 8880, Note_off_c, 0, 74, 95
2, 8880, Note_off_c, 0, 68, 95
2, 8880, Note_off_c, 0, 64, 95
2, 9120, Note_on_c, 0, 74, 127
2, 9120, Note_on_c, 0, 68, 127
2, 9120, Note_on_c, 0, 64, 127
2, 9360, Note_off_c, 0, 74, 127
2, 9360, Note_off_c, 0, 68, 127
2, 9360, Note_off_c, 0, 64, 127
2, 9600, Note_on_c, 0, 74, 95
2, 9600, Note_on_c, 0, 68, 95
2, 9600, Note_on_c, 0, 64, 95
2, 9840, Note_off_c, 0, 74, 95
2, 9840, Note_off_c, 0, 68, 95
2, 9840, Note_off_c, 0, 64, 95
2, 10080, Note_on_c, 0, 74, 95
2, 10080, Note_on_c, 0, 68, 95
2, 10080, Note_on_c, 0, 64, 95
2, 10320, Note_off_c, 0, 74, 95
2, 10320, Note_off_c, 0, 68, 95
2, 10320, Note_off_c, 0, 64, 95
2, 10560, Note_on_c, 0, 74, 127
2, 10560, Note_on_c, 0, 68, 127
2, 10560, Note_on_c, 0, 64, 127
2, 10800, Note_off_c, 0, 74, 127
2, 10800, Note_off_c, 0, 68, 127
2, 10800, Note_off_c, 0, 64, 127
2, 11040, Note_on_c, 0, 64, 47
2, 11040, Note_on_c, 0, 59, 47
2, 11520, Note_off_c, 0, 64, 47
2, 11520, Note_off_c, 0, 59, 47
2, 11520, Note_on_c, 0, 70, 127
2, 11520, Note_on_c, 0, 67, 127
2, 11520, Note_on_c, 0, 64, 127
2, 11760, Note_off_c, 0, 70, 127
2, 11760, Note_off_c, 0, 67, 127
2, 11760, Note_off_c, 0, 64, 127
2, 12000, Note_on_c, 0, 70, 95
2, 12000, Note_on_c, 0, 67, 95
2, 12000, Note_on_c, 0, 64, 95
2, 12240, Note_off_c, 0, 70, 95
2, 12240, Note_off_c, 0, 67, 95
2, 12240, Note_off_c, 0, 64, 95
2, 12480, Note_on_c, 0, 70, 95
2, 12480, Note_on_c, 0, 67, 95
2, 12480, Note_on_c, 0, 64, 95
2, 12720, Note_off_c, 0, 70, 95
2, 12720, Note_off_c, 0, 67, 95
2, 12720, Note_off_c, 0, 64, 95
2, 12960, Note_on_c, 0, 70, 127
2, 12960, Note_on_c, 0, 67, 127
2, 12960, Note_on_c, 0, 64, 127
2, 13200, Note_off_c, 0, 70, 127
2, 13200, Note_off_c, 0, 67, 127
2, 13200, Note_off_c, 0, 64, 127
2, 13440, Note_on_c, 0, 70, 95
2, 13440, Note_on_c, 0, 67, 95
2, 13440, Note_on_c, 0, 64, 95
2, 13680, Note_off_c, 0, 70, 95
2, 13680, Note_off_c, 0, 67, 95
2, 13680, Note_off_c, 0, 64, 95
2, 13920, Note_on_c, 0, 70, 95
2, 13920, Note_on_c, 0, 67, 95
2, 13920, Note_on_c, 0, 64, 95
2, 14160, Note_off_c, 0, 70, 95
2, 14160, Note_off_c, 0, 67, 95
2, 14160, Note_off_c, 0, 64, 95
2, 14400, Note_on_c, 0, 70, 127
2, 14400, Note_on_c, 0, 67, 127
2, 14400, Note_on_c, 0, 64, 127
2, 14640, Note_off_c, 0, 70, 127
2, 14640, Note_off_c, 0, 67, 127
2, 14640, Note_off_c, 0, 64, 127
2, 14880, Note_on_c, 0, 64, 47
2, 14880, Note_on_c, 0, 59, 47
2, 15360, Note_off_c, 0, 64, 47
2, 15360, Note_off_c, 0, 59, 47
2, 15360, Note_on_c, 0, 74, 127
2, 15360, Note_on_c, 0, 68, 127
2, 15360, Note_on_c, 0, 64, 127
2, 15600, Note_off_c, 0, 74, 127
2, 15600, Note_off_c, 0, 68, 127
2, 15600, Note_off_c, 0, 64, 127
2, 15840, Note_on_c, 0, 74, 95
2, 15840, Note_on_c, 0, 68, 95
2, 15840, Note_on_c, 0, 64, 95
2, 16080, Note_off_c, 0, 74, 95
2, 16080, Note_off_c, 0, 68, 95
2, 16080, Note_off_c, 0, 64, 95
2, 16320, Note_on_c, 0, 74, 95
2, 16320, Note_on_c, 0, 68, 95
2, 16320, Note_on_c, 0, 64, 95
2, 16560, Note_off_c, 0, 74, 95
2, 16560, Note_off_c, 0, 68, 95
2, 16560, Note_off_c, 0, 64, 95
2, 16800, Note_on_c, 0, 74, 127
2, 16800, Note_on_c, 0, 68, 127
2, 16800, Note_on_c, 0, 64, 127
2, 17040, Note_off_c, 0, 74, 127
2, 17040, Note_off_c, 0, 68, 127
2, 17040, Note_off_c, 0, 64, 127
2, 17280, Note_on_c, 0, 74, 95
2, 17280, Note_on_c, 0, 68, 95
2, 17280, Note_on_c, 0, 64, 95
2, 17520, Note_off_c, 0, 74, 95
2, 17520, Note_off_c, 0, 68, 95
2, 17520, Note_off_c, 0, 64, 95
2, 17760, Note_on_c, 0, 74, 95
2, 17760, Note_on_c, 0, 68, 95
2, 17760, Note_on_c, 0, 64, 95
2, 18000, Note_off_c, 0, 74, 95
2, 18000, Note_off_c, 0, 68, 95
2, 18000, Note_off_c, 0, 64, 95
2, 18240, Note_on_c, 0, 74, 127
2, 18240, Note_on_c, 0, 68, 127
2, 18240, Note_on_c, 0, 64, 127
2, 18480, Note_off_c, 0, 74, 127
2, 18480, Note_off_c, 0, 68, 127
2, 18480, Note_off_c, 0, 64, 127
2, 18720, Note_on_c, 0, 64, 47
2, 18720, Note_on_c, 0, 59, 47
2, 19200, Note_off_c, 0, 64, 47
2, 19200, Note_off_c, 0, 59, 47
2, 19200, Note_on_c, 0, 70, 127
2, 19200, Note_on_c, 0, 67, 127
2, 19200, Note_on_c, 0, 64, 127
2, 19440, Note_off_c, 0, 70, 127
2, 19440, Note_off_c, 0, 67, 127
2, 19440, Note_off_c, 0, 64, 127
2, 19680, Note_on_c, 0, 70, 95
2, 19680, Note_on_c, 0, 67, 95
2, 19680, Note_on_c, 0, 64, 95
2, 19920, Note_off_c, 0, 70, 95
2, 19920, Note_off_c, 0, 67, 95
2, 19920, Note_off_c, 0, 64, 95
2, 20160, Note_on_c, 0, 70, 95
2, 20160, Note_on_c, 0, 67, 95
2, 20160, Note_on_c, 0, 64, 95
2, 20400, Note_off_c, 0, 70, 95
2, 20400, Note_off_c, 0, 67, 95
2, 20400, Note_off_c, 0, 64, 95
2, 20640, Note_on_c, 0, 70, 127
2, 20640, Note_on_c, 0, 67, 127
2, 20640, Note_on_c, 0, 64, 127
2, 20880, Note_off_c, 0, 70, 127
2, 20880, Note_off_c, 0, 67, 127
2, 20880, Note_off_c, 0, 64, 127
2, 21120, Note_on_c, 0, 70, 95
2, 21120, Note_on_c, 0, 67, 95
2, 21120, Note_on_c, 0, 64, 95
2, 21360, Note_off_c, 0, 70, 95
2, 21360, Note_off_c, 0, 67, 95
2, 21360, Note_off_c, 0, 64, 95
2, 21600, Note_on_c, 0, 70, 95
2, 21600, Note_on_c, 0, 67, 95
2, 21600, Note_on_c, 0, 64, 95
2, 21840, Note_off_c, 0, 70, 95
2, 21840, Note_off_c, 0, 67, 95
2, 21840, Note_off_c, 0, 64, 95
2, 22080, Note_on_c, 0, 70, 127
2, 22080, Note_on_c, 0, 67, 127
2, 22080, Note_on_c, 0, 64, 127
2, 22320, Note_off_c, 0, 70, 127
2, 22320, Note_off_c, 0, 67, 127
2, 22320, Note_off_c, 0, 64, 127
2, 22560, Note_on_c, 0, 64, 47
2, 22560, Note_on_c, 0, 59, 47
2, 23040, Note_off_c, 0, 64, 47
2, 23040, Note_off_c, 0, 59, 47
2, 23040, Note_on_c, 0, 74, 127
2, 23040, Note_on_c, 0, 68, 127
2, 23040, Note_on_c, 0, 64, 127
2, 23280, Note_off_c, 0, 74, 127
2, 23280, Note_off_c, 0, 68, 127
2, 23280, Note_off_c, 0, 64, 127
2, 23520, Note_on_c, 0, 74, 95
2, 23520, Note_on_c, 0, 68, 95
2, 23520, Note_on_c, 0, 64, 95
2, 23760, Note_off_c, 0, 74, 95
2, 23760, Note_off_c, 0, 68, 95
2, 23760, Note_off_c, 0, 64, 95
2, 24000, Note_on_c, 0, 74, 95
2, 24000, Note_on_c, 0, 68, 95
2, 24000, Note_on_c, 0, 64, 95
2, 24240, Note_off_c, 0, 74, 95
2, 24240, Note_off_c, 0, 68, 95
2, 24240, Note_off_c, 0, 64, 95
2, 24480, Note_on_c, 0, 74, 127
2, 24480, Note_on_c, 0, 68, 127
2, 24480, Note_on_c, 0, 64, 127
2, 24720, Note_off_c, 0, 74, 127
2, 24720, Note_off_c, 0, 68, 127
2, 24720, Note_off_c, 0, 64, 127
2, 24960, Note_on_c, 0, 74, 95
2, 24960, Note_on_c, 0, 68, 95
2, 24960, Note_on_c, 0, 64, 95
2, 25200, Note_off_c, 0, 74, 95
2, 25200, Note_off_c, 0, 68, 95
2, 25200, Note_off_c, 0, 64, 95
2, 25440, Note_on_c, 0, 74, 95
2, 25440, Note_on_c, 0, 68, 95
2, 25440, Note_on_c, 0, 64, 95
2, 25680, Note_off_c, 0, 74, 95
2, 25680, Note_off_c, 0, 68, 95
2, 25680, Note_off_c, 0, 64, 95
2, 25920, Note_on_c, 0, 74, 127
2, 25920, Note_on_c, 0, 68, 127
2, 25920, Note_on_c, 0, 64, 127
2, 26160, Note_off_c, 0, 74, 127
2, 26160, Note_off_c, 0, 68, 127
2, 26160, Note_off_c, 0, 64, 127
2, 26400, Note_on_c, 0, 64, 47
2, 26400, Note_on_c, 0, 59, 47
2, 26880, Note_off_c, 0, 64, 47
2, 26880, Note_off_c, 0, 59, 47
2, 26880, Note_on_c, 0, 70, 127
2, 26880, Note_on_c, 0, 67, 127
2, 26880, Note_on_c, 0, 64, 127
2, 27120, Note_off_c, 0, 70, 127
2, 27120, Note_off_c, 0, 67, 127
2, 27120, Note_off_c, 0, 64, 127
2, 27360, Note_on_c, 0, 70, 95
2, 27360, Note_on_c, 0, 67, 95
2, 27360, Note_on_c, 0, 64, 95
2, 27600, Note_off_c, 0, 70, 95
2, 27600, Note_off_c, 0, 67, 95
2, 27600, Note_off_c, 0, 64, 95
2, 27840, Note_on_c, 0, 70, 95
2, 27840, Note_on_c, 0, 67, 95
2, 27840, Note_on_c, 0, 64, 95
2, 28080, Note_off_c, 0, 70, 95
2, 28080, Note_off_c, 0, 67, 95
2, 28080, Note_off_c, 0, 64, 95
2, 28320, Note_on_c, 0, 70, 127
2, 28320, Note_on_c, 0, 67, 127
2, 28320, Note_on_c, 0, 64, 127
2, 28560, Note_off_c, 0, 70, 127
2, 28560, Note_off_c, 0, 67, 127
2, 28560, Note_off_c, 0, 64, 127
2, 28800, Note_on_c, 0, 70, 95
2, 28800, Note_on_c, 0, 67, 95
2, 28800, Note_on_c, 0, 64, 95
2, 29040, Note_off_c, 0, 70, 95
2, 29040, Note_off_c, 0, 67, 95
2, 29040, Note_off_c, 0, 64, 95
2, 29280, Note_on_c, 0, 70, 95
2, 29280, Note_on_c, 0, 67, 95
2, 29280, Note_on_c, 0, 64, 95
2, 29520, Note_off_c, 0, 70, 95
2, 29520, Note_off_c, 0, 67, 95
2, 29520, Note_off_c, 0, 64, 95
2, 29760, Note_on_c, 0, 70, 127
2, 29760, Note_on_c, 0, 67, 127
2, 29760, Note_on_c, 0, 64, 127
2, 30000, Note_off_c, 0, 70, 127
2, 30000, Note_off_c, 0, 67, 127
2, 30000, Note_off_c, 0, 64, 127
2, 30240, Note_on_c, 0, 64, 47
2, 30240, Note_on_c, 0, 59, 47
2, 30720, Note_off_c, 0, 64, 47
2, 30720, Note_off_c, 0, 59, 47
2, 30720, Note_on_c, 0, 68, 95
2, 30720, Note_on_c, 0, 63, 95
2, 30720, Note_on_c, 0, 56, 95
2, 31200, Note_off_c, 0, 68, 95
2, 31200, Note_off_c, 0, 63, 95
2, 31200, Note_off_c, 0, 56, 95
2, 31200, Note_on_c, 0, 59, 95
2, 31200, Note_on_c, 0, 55, 95
2, 31200, Note_on_c, 0, 50, 95
2, 31262, Note_off_c, 0, 59, 95
2, 31262, Note_off_c, 0, 55, 95
2, 31262, Note_off_c, 0, 50, 95
2, 31680, Note_on_c, 0, 59, 95
2, 31680, Note_on_c, 0, 55, 95
2, 31680, Note_on_c, 0, 50, 95
2, 31742, Note_off_c, 0, 59, 95
2, 31742, Note_off_c, 0, 55, 95
2, 31742, Note_off_c, 0, 50, 95
2, 32160, Note_on_c, 0, 68, 95
2, 32160, Note_on_c, 0, 63, 95
2, 32160, Note_on_c, 0, 56, 95
2, 32640, Note_off_c, 0, 68, 95
2, 32640, Note_off_c, 0, 63, 95
2, 32640, Note_off_c, 0, 56, 95
2, 32640, Note_on_c, 0, 59, 95
2, 32640, Note_on_c, 0, 55, 95
2, 32640, Note_on_c, 0, 50, 95
2, 32702, Note_off_c, 0, 59, 95
2, 32702, Note_off_c, 0, 55, 95
2, 32702, Note_off_c, 0, 50, 95
2, 33120, Note_on_c, 0, 59, 95
2, 33120, Note_on_c, 0, 55, 95
2, 33120, Note_on_c, 0, 50, 95
2, 33182, Note_off_c, 0, 59, 95
2, 33182, Note_off_c, 0, 55, 95
2, 33182, Note_off_c, 0, 50, 95
2, 33600, Note_on_c, 1, 68, 95
2, 33600, Note_on_c, 1, 63, 95
2, 33600, Note_on_c, 1, 56, 95
2, 33720, Pitch_bend_c, 1, 7936
2, 33720, Pitch_bend_c, 1, 7936
2, 33720, Pitch_bend_c, 1, 7936
2, 33840, Pitch_bend_c, 1, 7680
2, 33840, Pitch_bend_c, 1, 7680
2, 33840, Pitch_bend_c, 1, 7680
2, 33960, Pitch_bend_c, 1, 7424
2, 33960, Pitch_bend_c, 1, 7424
2, 33960, Pitch_bend_c, 1, 7424
2, 34080, Pitch_bend_c, 1, 7168
2, 34080, Pitch_bend_c, 1, 7168
2, 34080, Pitch_bend_c, 1, 7168
2, 34200, Pitch_bend_c, 1, 6912
2, 34200, Pitch_bend_c, 1, 6912
2, 34200, Pitch_bend_c, 1, 6912
2, 34320, Pitch_bend_c, 1, 6656
2, 34320, Pitch_bend_c, 1, 6656
2, 34320, Pitch_bend_c, 1, 6656
2, 34440, Pitch_bend_c, 1, 6400
2, 34440, Pitch_bend_c, 1, 6400
2, 34440, Pitch_bend_c, 1, 6400
2, 34560, Pitch_bend_c, 1, 6144
2, 34560, Pitch_bend_c, 1, 8192
2, 34560, Note_off_c, 1, 68, 95
2, 34560, Pitch_bend_c, 1, 6144
2, 34560, Pitch_bend_c, 1, 8192
2, 34560, Note_off_c, 1, 63, 95
2, 34560, Pitch_bend_c, 1, 6144
2, 34560, Pitch_bend_c, 1, 8192
2, 34560, Note_off_c, 1, 56, 95
2, 34560, Note_on_c, 0, 65, 95
2, 34560, Note_on_c, 0, 60, 95
2, 34560, Note_on_c, 0, 53, 95
2, 35040, Note_off_c, 0, 65, 95
2, 35040, Note_off_c, 0, 60, 95
2, 35040, Note_off_c, 0, 53, 95
2, 35040, Note_on_c, 0, 59, 95
2, 35040, Note_on_c, 0, 55, 95
2, 35040, Note_on_c, 0, 50, 95
2, 35102, Note_off_c, 0, 59, 95
2, 35102, Note_off_c, 0, 55, 95
2, 35102, Note_off_c, 0, 50, 95
2, 35520, Note_on_c, 0, 59, 95
2, 35520, Note_on_c, 0, 55, 95
2, 35520, Note_on_c, 0, 50, 95
2, 35582, Note_off_c, 0, 59, 95
2, 35582, Note_off_c, 0, 55, 95
2, 35582, Note_off_c, 0, 50, 95
2, 36000, Note_on_c, 0, 65, 95
2, 36000, Note_on_c, 0, 60, 95
2, 36000, Note_on_c, 0, 53, 95
2, 36480, Note_off_c, 0, 65, 95
2, 36480, Note_off_c, 0, 60, 95
2, 36480, Note_off_c, 0, 53, 95
2, 36480, Note_on_c, 0, 59, 95
2, 36480, Note_on_c, 0, 55, 95
2, 36480, Note_on_c, 0, 50, 95
2, 36542, Note_off_c, 0, 59, 95
2, 36542, Note_off_c, 0, 55, 95
2, 36542, Note_off_c, 0, 50, 95
2, 36960, Note_on_c, 0, 59, 95
2, 36960, Note_on_c, 0, 55, 95
2, 36960, Note_on_c, 0, 50, 95
2, 37022, Note_off_c, 0, 59, 95
2, 37022, Note_off_c, 0, 55, 95
2, 37022, Note_off_c, 0, 50, 95
2, 37440, Note_on_c, 0, 65, 95
2, 37440, Note_on_c, 0, 60, 95
2, 37440, Note_on_c, 0, 53, 95
2, 38400, Note_off_c, 0, 65, 95
2, 38400, Note_off_c, 0, 60, 95
2, 38400, Note_off_c, 0, 53, 95
2, 38400, Note_on_c, 0, 68, 95
2, 38400, Note_on_c, 0, 63, 95
2, 38400, Note_on_c, 0, 56, 95
2, 38880, Note_off_c, 0, 68, 95
2, 38880, Note_off_c, 0, 63, 95
2, 38880, Note_off_c, 0, 56, 95
2, 38880, Note_on_c, 0, 59, 95
2, 38880, Note_on_c, 0, 55, 95
2, 38880, Note_on_c, 0, 50, 95
2, 38942, Note_off_c, 0, 59, 95
2, 38942, Note_off_c, 0, 55, 95
2, 38942, Note_off_c, 0, 50, 95
2, 39360, Note_on_c, 0, 59, 95
2, 39360, Note_on_c, 0, 55, 95
2, 39360, Note_on_c, 0, 50, 95
2, 39422, Note_off_c, 0, 59, 95
2, 39422, Note_off_c, 0, 55, 95
2, 39422, Note_off_c, 0, 50, 95
2, 39840, Note_on_c, 0, 68, 95
2, 39840, Note_on_c, 0, 63, 95
2, 39840, Note_on_c, 0, 56, 95
2, 40320, Note_off_c, 0, 68, 95
2, 40320, Note_off_c, 0, 63, 95
2, 40320, Note_off_c, 0, 56, 95
2, 40320, Note_on_c, 0, 59, 95
2, 40320, Note_on_c, 0, 55, 95
2, 40320, Note_on_c, 0, 50, 95
2, 40382, Note_off_c, 0, 59, 95
2, 40382, Note_off_c, 0, 55, 95
2, 40382, Note_off_c, 0, 50, 95
2, 40800, Note_on_c, 0, 59, 95
2, 40800, Note_on_c, 0, 55, 95
2, 40800, Note_on_c, 0, 50, 95
2, 40862, Note_off_c, 0, 59, 95
2, 40862, Note_off_c, 0, 55, 95
2, 40862, Note_off_c, 0, 50, 95
2, 41280, Note_on_c, 1, 68, 95
2, 41280, Note_on_c, 1, 63, 95
2, 41280, Note_on_c, 1, 56, 95
2, 41400, Pitch_bend_c, 1, 7936
2, 41400, Pitch_bend_c, 1, 7936
2, 41400, Pitch_bend_c, 1, 7936
2, 41520, Pitch_bend_c, 1, 7680
2, 41520, Pitch_bend_c, 1, 7680
2, 41520, Pitch_bend_c, 1, 7680
2, 41640, Pitch_bend_c, 1, 7424
2, 41640, Pitch_bend_c, 1, 7424
2, 41640, Pitch_bend_c, 1, 7424
2, 41760, Pitch_bend_c, 1, 7168
2, 41760, Pitch_bend_c, 1, 7168
2, 41760, Pitch_bend_c, 1, 7168
2, 41880, Pitch_bend_c, 1, 6912
2, 41880, Pitch_bend_c, 1, 6912
2, 41880, Pitch_bend_c, 1, 6912
2, 42000, Pitch_bend_c, 1, 6656
2, 42000, Pitch_bend_c, 1, 6656
2, 42000, Pitch_bend_c, 1, 6656
2, 42120, Pitch_bend_c, 1, 6400
2, 42120, Pitch_bend_c, 1, 6400
2, 42120, Pitch_bend_c, 1, 6400
2, 42240, Pitch_bend_c, 1, 6144
2, 42240, Pitch_bend_c, 1, 8192
2, 42240, Note_off_c, 1, 68, 95
2, 42240, Pitch_bend_c, 1, 6144
2, 42240, Pitch_bend_c, 1, 8192
2, 42240, Note_off_c, 1, 63, 95
2, 42240, Pitch_bend_c, 1, 6144
2, 42240, Pitch_bend_c, 1, 8192
2, 42240, Note_off_c, 1, 56, 95
2, 42240, Note_on_c, 0, 65, 95
2, 42240, Note_on_c, 0, 60, 95
2, 42240, Note_on_c, 0, 53, 95
2, 42720, Note_off_c, 0, 65, 95
2, 42720, Note_off_c, 0, 60, 95
2, 42720, Note_off_c, 0, 53, 95
2, 42720, Note_on_c, 0, 59, 95
2, 42720, Note_on_c, 0, 55, 95
2, 42720, Note_on_c, 0, 50, 95
2, 42782, Note_off_c, 0, 59, 95
2, 42782, Note_off_c, 0, 55, 95
2, 42782, Note_off_c, 0, 50, 95
2, 43200, Note_on_c, 0, 59, 95
2, 43200, Note_on_c, 0, 55, 95
2, 43200, Note_on_c, 0, 50, 95
2, 43262, Note_off_c, 0, 59, 95
2, 43262, Note_off_c, 0, 55, 95
2, 43262, Note_off_c, 0, 50, 95
2, 43680, Note_on_c, 0, 65, 95
2, 43680, Note_on_c, 0, 60, 95
2, 43680, Note_on_c, 0, 53, 95
2, 44160, Note_off_c, 0, 65, 95
2, 44160, Note_off_c, 0, 60, 95
2, 44160, Note_off_c, 0, 53, 95
2, 44160, Note_on_c, 0, 59, 95
2, 44160, Note_on_c, 0, 55, 95
2, 44160, Note_on_c, 0, 50, 95
2, 44222, Note_off_c, 0, 59, 95
2, 44222, Note_off_c, 0, 55, 95
2, 44222, Note_off_c, 0, 50, 95
2, 44640, Note_on_c, 0, 59, 95
2, 44640, Note_on_c, 0, 55, 95
2, 44640, Note_on_c, 0, 50, 95
2, 44702, Note_off_c, 0, 59, 95
2, 44702, Note_off_c, 0, 55, 95
2, 44702, Note_off_c, 0, 50, 95
2, 45120, Note_on_c, 0, 65, 95
2, 45120, Note_on_c, 0, 60, 95
2, 45120, Note_on_c, 0, 53, 95
2, 46080, Note_off_c, 0, 65, 95
2, 46080, Note_off_c, 0, 60, 95
2, 46080, Note_off_c, 0, 53, 95
2, 46080, Note_on_c, 0, 66, 95
2, 46080, Note_on_c, 0, 62, 95
2, 46080, Note_on_c, 0, 57, 95
2, 46080, Note_on_c, 0, 50, 95
2, 46560, Note_off_c, 0, 66, 95
2, 46560, Note_off_c, 0, 62, 95
2, 46560, Note_off_c, 0, 57, 95
2, 46560, Note_off_c, 0, 50, 95
2, 46560, Note_on_c, 0, 59, 95
2, 46560, Note_on_c, 0, 55, 95
2, 46560, Note_on_c, 0, 50, 95
2, 46560, Note_on_c, 0, 45, 95
2, 46622, Note_off_c, 0, 59, 95
2, 46622, Note_off_c, 0, 55, 95
2, 46622, Note_off_c, 0, 50, 95
2, 46622, Note_off_c, 0, 45, 95
2, 47040, Note_on_c, 0, 59, 95
2, 47040, Note_on_c, 0, 55, 95
2, 47040, Note_on_c, 0, 50, 95
2, 47040, Note_on_c, 0, 45, 95
2, 47102, Note_off_c, 0, 59, 95
2, 47102, Note_off_c, 0, 55, 95
2, 47102, Note_off_c, 0, 50, 95
2, 47102, Note_off_c, 0, 45, 95
2, 47520, Note_on_c, 0, 66, 95
2, 47520, Note_on_c, 0, 62, 95
2, 47520, Note_on_c, 0, 57, 95
2, 47520, Note_on_c, 0, 50, 95
2, 48000, Note_off_c, 0, 66, 95
2, 48000, Note_off_c, 0, 62, 95
2, 48000, Note_off_c, 0, 57, 95
2, 48000, Note_off_c, 0, 50, 95
2, 48000, Note_on_c, 0, 59, 95
2, 48000, Note_on_c, 0, 55, 95
2, 48000, Note_on_c, 0, 50, 95
2, 48000, Note_on_c, 0, 45, 95
2, 48062, Note_off_c, 0, 59, 95
2, 48062, Note_off_c, 0, 55, 95
2, 48062, Note_off_c, 0, 50, 95
2, 48062, Note_off_c, 0, 45, 95
2, 48640, Note_on_c, 0, 66, 95
2, 48640, Note_on_c, 0, 62, 95
2, 48640, Note_on_c, 0, 57, 95
2, 48640, Note_on_c, 0, 50, 95
2, 48960, Note_off_c, 0, 66, 95
2, 48960, Note_off_c, 0, 62, 95
2, 48960, Note_off_c, 0, 57, 95
2, 48960, Note_off_c, 0, 50, 95
2, 49280, Note_on_c, 0, 66, 95
2, 49280, Note_on_c, 0, 62, 95
2, 49280, Note_on_c, 0, 57, 95
2, 49280, Note_on_c, 0, 50, 95
2, 49600, Note_off_c, 0, 66, 95
2, 49600, Note_off_c, 0, 62, 95
2, 49600, Note_off_c, 0, 57, 95
2, 49600, Note_off_c, 0, 50, 95
2, 49920, Note_on_c, 0, 68, 95
2, 49920, Note_on_c, 0, 64, 95
2, 49920, Note_on_c, 0, 59, 95
2, 49920, Note_on_c, 0, 52, 95
2, 50400, Note_off_c, 0, 68, 95
2, 50400, Note_off_c, 0, 64, 95
2, 50400, Note_off_c, 0, 59, 95
2, 50400, Note_off_c, 0, 52, 95
2, 50400, Note_on_c, 0, 59, 95
2, 50400, Note_on_c, 0, 55, 95
2, 50400, Note_on_c, 0, 50, 95
2, 50400, Note_on_c, 0, 45, 95
2, 50462, Note_off_c, 0, 59, 95
2, 50462, Note_off_c, 0, 55, 95
2, 50462, Note_off_c, 0, 50, 95
2, 50462, Note_off_c, 0, 45, 95
2, 50880, Note_on_c, 0, 59, 95
2, 50880, Note_on_c, 0, 55, 95
2, 50880, Note_on_c, 0, 50, 95
2, 50880, Note_on_c, 0, 45, 95
2, 50942, Note_off_c, 0, 59, 95
2, 50942, Note_off_c, 0, 55, 95
2, 50942, Note_off_c, 0, 50, 95
2, 50942, Note_off_c, 0, 45, 95
2, 51360, Note_on_c, 0, 68, 95
2, 51360, Note_on_c, 0, 64, 95
2, 51360, Note_on_c, 0, 59, 95
2, 51360, Note_on_c, 0, 52, 95
2, 51840, Note_off_c, 0, 68, 95
2, 51840, Note_off_c, 0, 64, 95
2, 51840, Note_off_c, 0, 59, 95
2, 51840, Note_off_c, 0, 52, 95
2, 51840, Note_on_c, 0, 59, 95
2, 51840, Note_on_c, 0, 55, 95
2, 51840, Note_on_c, 0, 50, 95
2, 51840, Note_on_c, 0, 45, 95
2, 51902, Note_off_c, 0, 59, 95
2, 51902, Note_off_c, 0, 55, 95
2, 51902, Note_off_c, 0, 50, 95
2, 51902, Note_off_c, 0, 45, 95
2, 52320, Note_on_c, 0, 59, 95
2, 52320, Note_on_c, 0, 55, 95
2, 52320, Note_on_c, 0, 50, 95
2, 52320, Note_on_c, 0, 45, 95
2, 52382, Note_off_c, 0, 59, 95
2, 52382, Note_off_c, 0, 55, 95
2, 52382, Note_off_c, 0, 50, 95
2, 52382, Note_off_c, 0, 45, 95
2, 52800, Note_on_c, 0, 68, 95
2, 52800, Note_on_c, 0, 64, 95
2, 52800, Note_on_c, 0, 59, 95
2, 52800, Note_on_c, 0, 52, 95
2, 53760, Note_off_c, 0, 68, 95
2, 53760, Note_off_c, 0, 64, 95
2, 53760, Note_off_c, 0, 59, 95
2, 53760, Note_off_c, 0, 52, 95
2, 53760, Note_on_c, 0, 68, 95
2, 53760, Note_on_c, 0, 63, 95
2, 53760, Note_on_c, 0, 56, 95
2, 54240, Note_off_c, 0, 68, 95
2, 54240, Note_off_c, 0, 63, 95
2, 54240, Note_off_c, 0, 56, 95
2, 54240, Note_on_c, 0, 59, 95
2, 54240, Note_on_c, 0, 55, 95
2, 54240, Note_on_c, 0, 50, 95
2, 54302, Note_off_c, 0, 59, 95
2, 54302, Note_off_c, 0, 55, 95
2, 54302, Note_off_c, 0, 50, 95
2, 54720, Note_on_c, 0, 59, 95
2, 54720, Note_on_c, 0, 55, 95
2, 54720, Note_on_c, 0, 50, 95
2, 54782, Note_off_c, 0, 59, 95
2, 54782, Note_off_c, 0, 55, 95
2, 54782, Note_off_c, 0, 50, 95
2, 55200, Note_on_c, 0, 68, 95
2, 55200, Note_on_c, 0, 63, 95
2, 55200, Note_on_c, 0, 56, 95
2, 55680, Note_off_c, 0, 68, 95
2, 55680, Note_off_c, 0, 63, 95
2, 55680, Note_off_c, 0, 56, 95
2, 55680, Note_on_c, 0, 59, 95
2, 55680, Note_on_c, 0, 55, 95
2, 55680, Note_on_c, 0, 50, 95
2, 55742, Note_off_c, 0, 59, 95
2, 55742, Note_off_c, 0, 55, 95
2, 55742, Note_off_c, 0, 50, 95
2, 56160, Note_on_c, 0, 59, 95
2, 56160, Note_on_c, 0, 55, 95
2, 56160, Note_on_c, 0, 50, 95
2, 56222, Note_off_c, 0, 59, 95
2, 56222, Note_off_c, 0, 55, 95
2, 56222, Note_off_c, 0, 50, 95
2, 56640, Note_on_c, 1, 68, 95
2, 56640, Note_on_c, 1, 63, 95
2, 56640, Note_on_c, 1, 56, 95
2, 56760, Pitch_bend_c, 1, 7936
2, 56760, Pitch_bend_c, 1, 7936
2, 56760, Pitch_bend_c, 1, 7936
2, 56880, Pitch_bend_c, 1, 7680
2, 56880, Pitch_bend_c, 1, 7680
2, 56880, Pitch_bend_c, 1, 7680
2, 57000, Pitch_bend_c, 1, 7424
2, 57000, Pitch_bend_c, 1, 7424
2, 57000, Pitch_bend_c, 1, 7424
2, 57120, Pitch_bend_c, 1, 7168
2, 57120, Pitch_bend_c, 1, 7168
2, 57120, Pitch_bend_c, 1, 7168
2, 57240, Pitch_bend_c, 1, 6912
2, 57240, Pitch_bend_c, 1, 6912
2, 57240, Pitch_bend_c, 1, 6912
2, 57360, Pitch_bend_c, 1, 6656
2, 57360, Pitch_bend_c, 1, 6656
2, 57360, Pitch_bend_c, 1, 6656
2, 57480, Pitch_bend_c, 1, 6400
2, 57480, Pitch_bend_c, 1, 6400
2, 57480, Pitch_bend_c, 1, 6400
2, 57600, Pitch_bend_c, 1, 6144
2, 57600, Pitch_bend_c, 1, 8192
2, 57600, Note_off_c, 1, 68, 95
2, 57600, Pitch_bend_c, 1, 6144
2, 57600, Pitch_bend_c, 1, 8192
2, 57600, Note_off_c, 1, 63, 95
2, 57600, Pitch_bend_c, 1, 6144
2, 57600, Pitch_bend_c, 1, 8192
2, 57600, Note_off_c, 1, 56, 95
2, 57600, Note_on_c, 0, 65, 95
2, 57600, Note_on_c, 0, 60, 95
2, 57600, Note_on_c, 0, 53, 95
2, 58080, Note_off_c, 0, 65, 95
2, 58080, Note_off_c, 0, 60, 95
2, 58080, Note_off_c, 0, 53, 95
2, 58080, Note_on_c, 0, 59, 95
2, 58080, Note_on_c, 0, 55, 95
2, 58080, Note_on_c, 0, 50, 95
2, 58142, Note_off_c, 0, 59, 95
2, 58142, Note_off_c, 0, 55, 95
2, 58142, Note_off_c, 0, 50, 95
2, 58560, Note_on_c, 0, 59, 95
2, 58560, Note_on_c, 0, 55, 95
2, 58560, Note_on_c, 0, 50, 95
2, 58622, Note_off_c, 0, 59, 95
2, 58622, Note_off_c, 0, 55, 95
2, 58622, Note_off_c, 0, 50, 95
2, 59040, Note_on_c, 0, 65, 95
2, 59040, Note_on_c, 0, 60, 95
2, 59040, Note_on_c, 0, 53, 95
2, 59520, Note_off_c, 0, 65, 95
2, 59520, Note_off_c, 0, 60, 95
2, 59520, Note_off_c, 0, 53, 95
2, 59520, Note_on_c, 0, 59, 95
2, 59520, Note_on_c, 0, 55, 95
2, 59520, Note_on_c, 0, 50, 95
2, 59582, Note_off_c, 0, 59, 95
2, 59582, Note_off_c, 0, 55, 95
2, 59582, Note_off_c, 0, 50, 95
2, 60000, Note_on_c, 0, 59, 95
2, 60000, Note_on_c, 0, 55, 95
2, 60000, Note_on_c, 0, 50, 95
2, 60062, Note_off_c, 0, 59, 95
2, 60062, Note_off_c, 0, 55, 95
2, 60062, Note_off_c, 0, 50, 95
2, 60480, Note_on_c, 0, 65, 95
2, 60480, Note_on_c, 0, 60, 95
2, 60480, Note_on_c, 0, 53, 95
2, 61440, Note_off_c, 0, 65, 95
2, 61440, Note_off_c, 0, 60, 95
2, 61440, Note_off_c, 0, 53, 95
2, 61440, Note_on_c, 0, 68, 95
2, 61440, Note_on_c, 0, 63, 95
2, 61440, Note_on_c, 0, 56, 95
2, 61920, Note_off_c, 0, 68, 95
2, 61920, Note_off_c, 0, 63, 95
2, 61920, Note_off_c, 0, 56, 95
2, 61920, Note_on_c, 0, 59, 95
2, 61920, Note_on_c, 0, 55, 95
2, 61920, Note_on_c, 0, 50, 95
2, 61982, Note_off_c, 0, 59, 95
2, 61982, Note_off_c, 0, 55, 95
2, 61982, Note_off_c, 0, 50, 95
2, 62400, Note_on_c, 0, 59, 95
2, 62400, Note_on_c, 0, 55, 95
2, 62400, Note_on_c, 0, 50, 95
2, 62462, Note_off_c, 0, 59, 95
2, 62462, Note_off_c, 0, 55, 95
2, 62462, Note_off_c, 0, 50, 95
2, 62880, Note_on_c, 0, 68, 95
2, 62880, Note_on_c, 0, 63, 95
2, 62880, Note_on_c, 0, 56, 95
2, 63360, Note_off_c, 0, 68, 95
2, 63360, Note_off_c, 0, 63, 95
2, 63360, Note_off_c, 0, 56, 95
2, 63360, Note_on_c, 0, 59, 95
2, 63360, Note_on_c, 0, 55, 95
2, 63360, Note_on_c, 0, 50, 95
2, 63422, Note_off_c, 0, 59, 95
2, 63422, Note_off_c, 0, 55, 95
2, 63422, Note_off_c, 0, 50, 95
2, 63840, Note_on_c, 0, 59, 95
2, 63840, Note_on_c, 0, 55, 95
2, 63840, Note_on_c, 0, 50, 95
2, 63902, Note_off_c, 0, 59, 95
2, 63902, Note_off_c, 0, 55, 95
2, 63902, Note_off_c, 0, 50, 95
2, 64320, Note_on_c, 1, 68, 95
2, 64320, Note_on_c, 1, 63, 95
2, 64320, Note_on_c, 1, 56, 95
2, 64440, Pitch_bend_c, 1, 7936
2, 64440, Pitch_bend_c, 1, 7936
2, 64440, Pitch_bend_c, 1, 7936
2, 64560, Pitch_bend_c, 1, 7680
2, 64560, Pitch_bend_c, 1, 7680
2, 64560, Pitch_bend_c, 1, 7680
2, 64680, Pitch_bend_c, 1, 7424
2, 64680, Pitch_bend_c, 1, 7424
2, 64680, Pitch_bend_c, 1, 7424
2, 64800, Pitch_bend_c, 1, 7168
2, 64800, Pitch_bend_c, 1, 7168
2, 64800, Pitch_bend_c, 1, 7168
2, 64920, Pitch_bend_c, 1, 6912
2, 64920, Pitch_bend_c, 1, 6912
2, 64920, Pitch_bend_c, 1, 6912
2, 65040, Pitch_bend_c, 1, 6656
2, 65040, Pitch_bend_c, 1, 6656
2, 65040, Pitch_bend_c, 1, 6656
2, 65160, Pitch_bend_c, 1, 6400
2, 65160, Pitch_bend_c, 1, 6400
2, 65160, Pitch_bend_c, 1, 6400
2, 65280, Pitch_bend_c, 1, 6144
2, 65280, Pitch_bend_c, 1, 8192
2, 65280, Note_off_c, 1, 68, 95
2, 65280, Pitch_bend_c, 1, 6144
2, 65280, Pitch_bend_c, 1, 8192
2, 65280, Note_off_c, 1, 63, 95
2, 65280, Pitch_bend_c, 1, 6144
2, 65280, Pitch_bend_c, 1, 8192
2, 65280, Note_off_c, 1, 56, 95
2, 65280, Note_on_c, 0, 65, 95
2, 65280, Note_on_c, 0, 60, 95
2, 65280, Note_on_c, 0, 53, 95
2, 65760, Note_off_c, 0, 65, 95
2, 65760, Note_off_c, 0, 60, 95
2, 65760, Note_off_c, 0, 53, 95
2, 65760, Note_on_c, 0, 59, 95
2, 65760, Note_on_c, 0, 55, 95
2, 65760, Note_on_c, 0, 50, 95
2, 65822, Note_off_c, 0, 59, 95
2, 65822, Note_off_c, 0, 55, 95
2, 65822, Note_off_c, 0, 50, 95
2, 66240, Note_on_c, 0, 59, 95
2, 66240, Note_on_c, 0, 55, 95
2, 66240, Note_on_c, 0, 50, 95
2, 66302, Note_off_c, 0, 59, 95
2, 66302, Note_off_c, 0, 55, 95
2, 66302, Note_off_c, 0, 50, 95
2, 66720, Note_on_c, 0, 65, 95
2, 66720, Note_on_c, 0, 60, 95
2, 66720, Note_on_c, 0, 53, 95
2, 67200, Note_off_c, 0, 65, 95
2, 67200, Note_off_c, 0, 60, 95
2, 67200, Note_off_c, 0, 53, 95
2, 67200, Note_on_c, 0, 59, 95
2, 67200, Note_on_c, 0, 55, 95
2, 67200, Note_on_c, 0, 50, 95
2, 67262, Note_off_c, 0, 59, 95
2, 67262, Note_off_c, 0, 55, 95
2, 67262, Note_off_c, 0, 50, 95
2, 67680, Note_on_c, 0, 59, 95
2, 67680, Note_on_c, 0, 55, 95
2, 67680, Note_on_c, 0, 50, 95
2, 67742, Note_off_c, 0, 59, 95
2, 67742, Note_off_c, 0, 55, 95
2, 67742, Note_off_c, 0, 50, 95
2, 68160, Note_on_c, 0, 65, 95
2, 68160, Note_on_c, 0, 60, 95
2, 68160, Note_on_c, 0, 53, 95
2, 69120, Note_off_c, 0, 65, 95
2, 69120, Note_off_c, 0, 60, 95
2, 69120, Note_off_c, 0, 53, 95
2, 69120, Note_on_c, 0, 48, 95
2, 69240, Note_on_c, 0, 55, 95
2, 69360, Note_on_c, 0, 60, 95
2, 69480, Note_on_c, 0, 64, 95
2, 69600, Note_on_c, 0, 67, 95
2, 72960, Note_off_c, 0, 67, 95
2, 72960, Note_off_c, 0, 64, 95
2, 72960, Note_off_c, 0, 60, 95
2, 72960, Note_off_c, 0, 55, 95
2, 72960, Note_off_c, 0, 48, 95
2, 72960, Note_on_c, 0, 60, 95
2, 74400, Note_off_c, 0, 60, 95
2, 74400, Note_on_c, 0, 59, 95
2, 75360, Note_off_c, 0, 59, 95
2, 75360, Note_on_c, 0, 60, 95
2, 75840, Note_off_c, 0, 60, 95
2, 75840, Note_on_c, 0, 59, 95
2, 76320, Note_off_c, 0, 59, 95
2, 76320, Note_on_c, 0, 60, 70
2, 76800, Note_off_c, 0, 60, 70
2, 76800, Note_on_c, 0, 53, 95
2, 76920, Note_on_c, 0, 57, 95
2, 77040, Note_on_c, 0, 60, 95
2, 80640, Note_off_c, 0, 60, 95
2, 80640, Note_off_c, 0, 57, 95
2, 80640, Note_off_c, 0, 53, 95
2, 80640, Note_on_c, 0, 53, 95
2, 80760, Note_on_c, 0, 57, 95
2, 80880, Note_on_c, 0, 60, 95
2, 81000, Note_on_c, 0, 64, 95
2, 82080, Note_off_c, 0, 64, 95
2, 82080, Note_off_c, 0, 60, 95
2, 82080, Note_off_c, 0, 57, 95
2, 82080, Note_off_c, 0, 53, 95
2, 82080, Note_on_c, 0, 59, 95
2, 83040, Note_off_c, 0, 59, 95
2, 83040, Note_on_c, 0, 60, 70
2, 83520, Note_off_c, 0, 60, 70
2, 83520, Note_on_c, 0, 64, 95
2, 84480, Note_off_c, 0, 64, 95
2, 84480, Note_on_c, 0, 64, 95
2, 84480, Note_on_c, 0, 60, 95
2, 84480, Note_on_c, 0, 55, 95
2, 84480, Note_on_c, 0, 48, 95
2, 88320, Note_off_c, 0, 64, 95
2, 88320, Note_off_c, 0, 60, 95
2, 88320, Note_off_c, 0, 55, 95
2, 88320, Note_off_c, 0, 48, 95
2, 88320, Note_on_c, 0, 57, 95
2, 88320, Note_on_c, 0, 53, 95
2, 88320, Note_on_c, 0, 48, 95
2, 88320, Note_on_c, 0, 41, 95
2, 92160, Note_off_c, 0, 57, 95
2, 92160, Note_off_c, 0, 53, 95
2, 92160, Note_off_c, 0, 48, 95
2, 92160, Note_off_c, 0, 41, 95
2, 92160, Note_on_c, 0, 65, 95
2, 92160, Note_on_c, 0, 62, 95
2, 92160, Note_on_c, 0, 57, 95
2, 92160, Note_on_c, 0, 50, 95
2, 93600, Note_off_c, 0, 65, 95
2, 93600, Note_off_c, 0, 62, 95
2, 93600, Note_off_c, 0, 57, 95
2, 93600, Note_off_c, 0, 50, 95
2, 93600, Note_on_c, 0, 62, 95
2, 94080, Note_off_c, 0, 62, 95
2, 94080, Note_on_c, 0, 65, 95
2, 94560, Note_off_c, 0, 65, 95
2, 94560, Note_on_c, 0, 62, 95
2, 95040, Note_off_c, 0, 62, 95
2, 95040, Note_on_c, 0, 57, 95
2, 96000, Note_off_c, 0, 57, 95
2, 96000, Note_on_c, 0, 61, 95
2, 96000, Note_on_c, 0, 57, 95
2, 96000, Note_on_c, 0, 52, 95
2, 96000, Note_on_c, 0, 45, 95
2, 97440, Note_off_c, 0, 61, 95
2, 97440, Note_off_c, 0, 57, 95
2, 97440, Note_off_c, 0, 52, 95
2, 97440, Note_off_c, 0, 45, 95
2, 97440, Note_on_c, 0, 64, 95
2, 98400, Note_off_c, 0, 64, 95
2, 98400, Note_on_c, 0, 57, 95
2, 98880, Note_off_c, 0, 57, 95
2, 98880, Note_on_c, 0, 55, 95
2, 99360, Note_off_c, 0, 55, 95
2, 99360, Note_on_c, 0, 57, 95
2, 99840, Note_off_c, 0, 57, 95
2, 99840, Note_on_c, 0, 65, 95
2, 99840, Note_on_c, 0, 62, 95
2, 99840, Note_on_c, 0, 57, 95
2, 99840, Note_on_c, 0, 50, 95
2, 101280, Note_off_c, 0, 65, 95
2, 101280, Note_off_c, 0, 62, 95
2, 101280, Note_off_c, 0, 57, 95
2, 101280, Note_off_c, 0, 50, 95
2, 101280, Note_on_c, 0, 62, 95
2, 101760, Note_off_c, 0, 62, 95
2, 101760, Note_on_c, 0, 65, 95
2, 102240, Note_off_c, 0, 65, 95
2, 102240, Note_on_c, 0, 62, 95
2, 102720, Note_off_c, 0, 62, 95
2, 102720, Note_on_c, 0, 57, 95
2, 103680, Note_off_c, 0, 57, 95
2, 103680, Note_on_c, 0, 61, 95
2, 103680, Note_on_c, 0, 57, 95
2, 103680, Note_on_c, 0, 52, 95
2, 103680, Note_on_c, 0, 45, 95
2, 105120, Note_off_c, 0, 61, 95
2, 105120, Note_off_c, 0, 57, 95
2, 105120, Note_off_c, 0, 52, 95
2, 105120, Note_off_c, 0, 45, 95
2, 105120, Note_on_c, 0, 64, 95
2, 106080, Note_off_c, 0, 64, 95
2, 106080, Note_on_c, 0, 57, 95
2, 106560, Note_off_c, 0, 57, 95
2, 106560, Note_on_c, 0, 55, 95
2, 107040, Note_off_c, 0, 55, 95
2, 107040, Note_on_c, 0, 57, 95
2, 107520, Note_off_c, 0, 57, 95
2, 107520, Note_on_c, 0, 65, 95
2, 107520, Note_on_c, 0, 62, 95
2, 107520, Note_on_c, 0, 57, 95
2, 107520, Note_on_c, 0, 50, 95
2, 108960, Note_off_c, 0, 65, 95
2, 108960, Note_off_c, 0, 62, 95
2, 108960, Note_off_c, 0, 57, 95
2, 108960, Note_off_c, 0, 50, 95
2, 108960, Note_on_c, 0, 62, 95
2, 109440, Note_off_c, 0, 62, 95
2, 109440, Note_on_c, 0, 65, 95
2, 109920, Note_off_c, 0, 65, 95
2, 109920, Note_on_c, 0, 62, 95
2, 110400, Note_off_c, 0, 62, 95
2, 110400, Note_on_c, 0, 57, 95
2, 111360, Note_off_c, 0, 57, 95
2, 111360, Note_on_c, 0, 45, 95
2, 112320, Note_off_c, 0, 45, 95
2, 112320, Note_on_c, 0, 47, 95
2, 112800, Note_off_c, 0, 47, 95
2, 112800, Note_on_c, 0, 64, 95
2, 112800, Note_on_c, 0, 59, 95
2, 113280, Note_off_c, 0, 64, 95
2, 113280, Note_off_c, 0, 59, 95
2, 113280, Note_on_c, 0, 48, 95
2, 113760, Note_off_c, 0, 48, 95
2, 113760, Note_on_c, 0, 64, 95
2, 113760, Note_on_c, 0, 59, 95
2, 114240, Note_off_c, 0, 64, 95
2, 114240, Note_off_c, 0, 59, 95
2, 114240, Note_on_c, 0, 50, 95
2, 114720, Note_off_c, 0, 50, 95
2, 114720, Note_on_c, 0, 64, 95
2, 114720, Note_on_c, 0, 59, 95
2, 115200, Note_off_c, 0, 64, 95
2, 115200, Note_off_c, 0, 59, 95
2, 115200, Note_on_c, 0, 48, 95
2, 115320, Note_on_c, 0, 55, 95
2, 115440, Note_on_c, 0, 60, 95
2, 115560, Note_on_c, 0, 64, 95
2, 119040, Note_off_c, 0, 64, 95
2, 119040, Note_off_c, 0, 60, 95
2, 119040, Note_off_c, 0, 55, 95
2, 119040, Note_off_c, 0, 48, 95
2, 119040, Note_on_c, 0, 53, 95
2, 119160, Note_on_c, 0, 57, 95
2, 119280, Note_on_c, 0, 60, 95
2, 119400, Note_on_c, 0, 65, 95
2, 122400, Note_off_c, 0, 65, 95
2, 122400, Note_off_c, 0, 60, 95
2, 122400, Note_off_c, 0, 57, 95
2, 122400, Note_off_c, 0, 53, 95
2, 122400, Note_on_c, 0, 59, 47
2, 122400, Note_on_c, 0, 55, 47
2, 122400, Note_on_c, 0, 50, 47
2, 122880, Note_off_c, 0, 59, 47
2, 122880, Note_off_c, 0, 55, 47
2, 122880, Note_off_c, 0, 50, 47
2, 122880, Note_on_c, 0, 64, 95
2, 122880, Note_on_c, 0, 60, 95
2, 122880, Note_on_c, 0, 55, 95
2, 122880, Note_on_c, 0, 48, 95
2, 126720, Note_off_c, 0, 64, 95
2, 126720, Note_off_c, 0, 60, 95
2, 126720, Note_off_c, 0, 55, 95
2, 126720, Note_off_c, 0, 48, 95
2, 126720, Note_on_c, 0, 53, 95
2, 126840, Note_on_c, 0, 57, 95
2, 126960, Note_on_c, 0, 60, 95
2, 127080, Note_on_c, 0, 65, 95
2, 128640, Note_off_c, 0, 65, 95
2, 128640, Note_off_c, 0, 60, 95
2, 128640, Note_off_c, 0, 57, 95
2, 128640, Note_off_c, 0, 53, 95
2, 128640, Note_on_c, 0, 74, 127
2, 128640, Note_on_c, 0, 68, 127
2, 128640, Note_on_c, 0, 64, 127
2, 128880, Note_off_c, 0, 74, 127
2, 128880, Note_off_c, 0, 68, 127
2, 128880, Note_off_c, 0, 64, 127
2, 129120, Note_on_c, 0, 74, 95
2, 129120, Note_on_c, 0, 68, 95
2, 129120, Note_on_c, 0, 64, 95
2, 129360, Note_off_c, 0, 74, 95
2, 129360, Note_off_c, 0, 68, 95
2, 129360, Note_off_c, 0, 64, 95
2, 129600, Note_on_c, 0, 74, 95
2, 129600, Note_on_c, 0, 68, 95
2, 129600, Note_on_c, 0, 64, 95
2, 129840, Note_off_c, 0, 74, 95
2, 129840, Note_off_c, 0, 68, 95
2, 129840, Note_off_c, 0, 64, 95
2, 130080, Note_on_c, 0, 74, 127
2, 130080, Note_on_c, 0, 68, 127
2, 130080, Note_on_c, 0, 64, 127
2, 130320, Note_off_c, 0, 74, 127
2, 130320, Note_off_c, 0, 68, 127
2, 130320, Note_off_c, 0, 64, 127
2, 130560, Note_on_c, 0, 74, 95
2, 130560, Note_on_c, 0, 68, 95
2, 130560, Note_on_c, 0, 64, 95
2, 130800, Note_off_c, 0, 74, 95
2, 130800, Note_off_c, 0, 68, 95
2, 130800, Note_off_c, 0, 64, 95
2, 131040, Note_on_c, 0, 74, 95
2, 131040, Note_on_c, 0, 68, 95
2, 131040, Note_on_c, 0, 64, 95
2, 131280, Note_off_c, 0, 74, 95
2, 131280, Note_off_c, 0, 68, 95
2, 131280, Note_off_c, 0, 64, 95
2, 131520, Note_on_c, 0, 74, 127
2, 131520, Note_on_c, 0, 68, 127
2, 131520, Note_on_c, 0, 64, 127
2, 131760, Note_off_c, 0, 74, 127
2, 131760, Note_off_c, 0, 68, 127
2, 131760, Note_off_c, 0, 64, 127
2, 132000, Note_on_c, 0, 64, 47
2, 132000, Note_on_c, 0, 59, 47
2, 132480, Note_off_c, 0, 64, 47
2, 132480, Note_off_c, 0, 59, 47
2, 132480, Note_on_c, 0, 70, 127
2, 132480, Note_on_c, 0, 67, 127
2, 132480, Note_on_c, 0, 64, 127
2, 132720, Note_off_c, 0, 70, 127
2, 132720, Note_off_c, 0, 67, 127
2, 132720, Note_off_c, 0, 64, 127
2, 132960, Note_on_c, 0, 70, 95
2, 132960, Note_on_c, 0, 67, 95
2, 132960, Note_on_c, 0, 64, 95
2, 133200, Note_off_c, 0, 70, 95
2, 133200, Note_off_c, 0, 67, 95
2, 133200, Note_off_c, 0, 64, 95
2, 133440, Note_on_c, 0, 70, 95
2, 133440, Note_on_c, 0, 67, 95
2, 133440, Note_on_c, 0, 64, 95
2, 133680, Note_off_c, 0, 70, 95
2, 133680, Note_off_c, 0, 67, 95
2, 133680, Note_off_c, 0, 64, 95
2, 133920, Note_on_c, 0, 70, 127
2, 133920, Note_on_c, 0, 67, 127
2, 133920, Note_on_c, 0, 64, 127
2, 134160, Note_off_c, 0, 70, 127
2, 134160, Note_off_c, 0, 67, 127
2, 134160, Note_off_c, 0, 64, 127
2, 134400, Note_on_c, 0, 70, 95
2, 134400, Note_on_c, 0, 67, 95
2, 134400, Note_on_c, 0, 64, 95
2, 134640, Note_off_c, 0, 70, 95
2, 134640, Note_off_c, 0, 67, 95
2, 134640, Note_off_c, 0, 64, 95
2, 134880, Note_on_c, 0, 70, 95
2, 134880, Note_on_c, 0, 67, 95
2, 134880, Note_on_c, 0, 64, 95
2, 135120, Note_off_c, 0, 70, 95
2, 135120, Note_off_c, 0, 67, 95
2, 135120, Note_off_c, 0, 64, 95
2, 135360, Note_on_c, 0, 70, 127
2, 135360, Note_on_c, 0, 67, 127
2, 135360, Note_on_c, 0, 64, 127
2, 135600, Note_off_c, 0, 70, 127
2, 135600, Note_off_c, 0, 67, 127
2, 135600, Note_off_c, 0, 64, 127
2, 135840, Note_on_c, 0, 64, 47
2, 135840, Note_on_c, 0, 59, 47
2, 136320, Note_off_c, 0, 64, 47
2, 136320, Note_off_c, 0, 59, 47
2, 136320, Note_on_c, 0, 74, 127
2, 136320, Note_on_c, 0, 68, 127
2, 136320, Note_on_c, 0, 64, 127
2, 136560, Note_off_c, 0, 74, 127
2, 136560, Note_off_c, 0, 68, 127
2, 136560, Note_off_c, 0, 64, 127
2, 136800, Note_on_c, 0, 74, 95
2, 136800, Note_on_c, 0, 68, 95
2, 136800, Note_on_c, 0, 64, 95
2, 137040, Note_off_c, 0, 74, 95
2, 137040, Note_off_c, 0, 68, 95
2, 137040, Note_off_c, 0, 64, 95
2, 137280, Note_on_c, 0, 74, 95
2, 137280, Note_on_c, 0, 68, 95
2, 137280, Note_on_c, 0, 64, 95
2, 137520, Note_off_c, 0, 74, 95
2, 137520, Note_off_c, 0, 68, 95
2, 137520, Note_off_c, 0, 64, 95
2, 137760, Note_on_c, 0, 74, 127
2, 137760, Note_on_c, 0, 68, 127
2, 137760, Note_on_c, 0, 64, 127
2, 138000, Note_off_c, 0, 74, 127
2, 138000, Note_off_c, 0, 68, 127
2, 138000, Note_off_c, 0, 64, 127
2, 138240, Note_on_c, 0, 74, 95
2, 138240, Note_on_c, 0, 68, 95
2, 138240, Note_on_c, 0, 64, 95
2, 138480, Note_off_c, 0, 74, 95
2, 138480, Note_off_c, 0, 68, 95
2, 138480, Note_off_c, 0, 64, 95
2, 138720, Note_on_c, 0, 74, 95
2, 138720, Note_on_c, 0, 68, 95
2, 138720, Note_on_c, 0, 64, 95
2, 138960, Note_off_c, 0, 74, 95
2, 138960, Note_off_c, 0, 68, 95
2, 138960, Note_off_c, 0, 64, 95
2, 139200, Note_on_c, 0, 74, 127
2, 139200, Note_on_c, 0, 68, 127
2, 139200, Note_on_c, 0, 64, 127
2, 139440, Note_off_c, 0, 74, 127
2, 139440, Note_off_c, 0, 68, 127
2, 139440, Note_off_c, 0, 64, 127
2, 139680, Note_on_c, 0, 64, 47
2, 139680, Note_on_c, 0, 59, 47
2, 140160, Note_off_c, 0, 64, 47
2, 140160, Note_off_c, 0, 59, 47
2, 140160, Note_on_c, 0, 70, 127
2, 140160, Note_on_c, 0, 67, 127
2, 140160, Note_on_c, 0, 64, 127
2, 140400, Note_off_c, 0, 70, 127
2, 140400, Note_off_c, 0, 67, 127
2, 140400, Note_off_c, 0, 64, 127
2, 140640, Note_on_c, 0, 70, 95
2, 140640, Note_on_c, 0, 67, 95
2, 140640, Note_on_c, 0, 64, 95
2, 140880, Note_off_c, 0, 70, 95
2, 140880, Note_off_c, 0, 67, 95
2, 140880, Note_off_c, 0, 64, 95
2, 141120, Note_on_c, 0, 70, 95
2, 141120, Note_on_c, 0, 67, 95
2, 141120, Note_on_c, 0, 64, 95
2, 141360, Note_off_c, 0, 70, 95
2, 141360, Note_off_c, 0, 67, 95
2, 141360, Note_off_c, 0, 64, 95
2, 141600, Note_on_c, 0, 70, 127
2, 141600, Note_on_c, 0, 67, 127
2, 141600, Note_on_c, 0, 64, 127
2, 141840, Note_off_c, 0, 70, 127
2, 141840, Note_off_c, 0, 67, 127
2, 141840, Note_off_c, 0, 64, 127
2, 142080, Note_on_c, 0, 70, 95
2, 142080, Note_on_c, 0, 67, 95
2, 142080, Note_on_c, 0, 64, 95
2, 142320, Note_off_c, 0, 70, 95
2, 142320, Note_off_c, 0, 67, 95
2, 142320, Note_off_c, 0, 64, 95
2, 142560, Note_on_c, 0, 70, 95
2, 142560, Note_on_c, 0, 67, 95
2, 142560, Note_on_c, 0, 64, 95
2, 142800, Note_off_c, 0, 70, 95
2, 142800, Note_off_c, 0, 67, 95
2, 142800, Note_off_c, 0, 64, 95
2, 143040, Note_on_c, 0, 70, 127
2, 143040, Note_on_c, 0, 67, 127
2, 143040, Note_on_c, 0, 64, 127
2, 143280, Note_off_c, 0, 70, 127
2, 143280, Note_off_c, 0, 67, 127
2, 143280, Note_off_c, 0, 64, 127
2, 143520, Note_on_c, 0, 64, 47
2, 143520, Note_on_c, 0, 59, 47
2, 144000, Note_off_c, 0, 64, 47
2, 144000, Note_off_c, 0, 59, 47
2, 144000, Note_on_c, 0, 74, 127
2, 144000, Note_on_c, 0, 68, 127
2, 144000, Note_on_c, 0, 64, 127
2, 144240, Note_off_c, 0, 74, 127
2, 144240, Note_off_c, 0, 68, 127
2, 144240, Note_off_c, 0, 64, 127
2, 144480, Note_on_c, 0, 74, 95
2, 144480, Note_on_c, 0, 68, 95
2, 144480, Note_on_c, 0, 64, 95
2, 144720, Note_off_c, 0, 74, 95
2, 144720, Note_off_c, 0, 68, 95
2, 144720, Note_off_c, 0, 64, 95
2, 144960, Note_on_c, 0, 74, 95
2, 144960, Note_on_c, 0, 68, 95
2, 144960, Note_on_c, 0, 64, 95
2, 145200, Note_off_c, 0, 74, 95
2, 145200, Note_off_c, 0, 68, 95
2, 145200, Note_off_c, 0, 64, 95
2, 145440, Note_on_c, 0, 74, 127
2, 145440, Note_on_c, 0, 68, 127
2, 145440, Note_on_c, 0, 64, 127
2, 145680, Note_off_c, 0, 74, 127
2, 145680, Note_off_c, 0, 68, 127
2, 145680, Note_off_c, 0, 64, 127
2, 145920, Note_on_c, 0, 74, 95
2, 145920, Note_on_c, 0, 68, 95
2, 145920, Note_on_c, 0, 64, 95
2, 146160, Note_off_c, 0, 74, 95
2, 146160, Note_off_c, 0, 68, 95
2, 146160, Note_off_c, 0, 64, 95
2, 146400, Note_on_c, 0, 74, 95
2, 146400, Note_on_c, 0, 68, 95
2, 146400, Note_on_c, 0, 64, 95
2, 146640, Note_off_c, 0, 74, 95
2, 146640, Note_off_c, 0, 68, 95
2, 146640, Note_off_c, 0, 64, 95
2, 146880, Note_on_c, 0, 74, 127
2, 146880, Note_on_c, 0, 68, 127
2, 146880, Note_on_c, 0, 64, 127
2, 147120, Note_off_c, 0, 74, 127
2, 147120, Note_off_c, 0, 68, 127
2, 147120, Note_off_c, 0, 64, 127
2, 147360, Note_on_c, 0, 64, 47
2, 147360, Note_on_c, 0, 59, 47
2, 147840, Note_off_c, 0, 64, 47
2, 147840, Note_off_c, 0, 59, 47
2, 147840, Note_on_c, 0, 70, 127
2, 147840, Note_on_c, 0, 67, 127
2, 147840, Note_on_c, 0, 64, 127
2, 148080, Note_off_c, 0, 70, 127
2, 148080, Note_off_c, 0, 67, 127
2, 148080, Note_off_c, 0, 64, 127
2, 148320, Note_on_c, 0, 70, 95
2, 148320, Note_on_c, 0, 67, 95
2, 148320, Note_on_c, 0, 64, 95
2, 148560, Note_off_c, 0, 70, 95
2, 148560, Note_off_c, 0, 67, 95
2, 148560, Note_off_c, 0, 64, 95
2, 148800, Note_on_c, 0, 70, 95
2, 148800, Note_on_c, 0, 67, 95
2, 148800, Note_on_c, 0, 64, 95
2, 149040, Note_off_c, 0, 70, 95
2, 149040, Note_off_c, 0, 67, 95
2, 149040, Note_off_c, 0, 64, 95
2, 149280, Note_on_c, 0, 70, 127
2, 149280, Note_on_c, 0, 67, 127
2, 149280, Note_on_c, 0, 64, 127
2, 149520, Note_off_c, 0, 70, 127
2, 149520, Note_off_c, 0, 67, 127
2, 149520, Note_off_c, 0, 64, 127
2, 149760, Note_on_c, 0, 70, 95
2, 149760, Note_on_c, 0, 67, 95
2, 149760, Note_on_c, 0, 64, 95
2, 150000, Note_off_c, 0, 70, 95
2, 150000, Note_off_c, 0, 67, 95
2, 150000, Note_off_c, 0, 64, 95
2, 150240, Note_on_c, 0, 70, 95
2, 150240, Note_on_c, 0, 67, 95
2, 150240, Note_on_c, 0, 64, 95
2, 150480, Note_off_c, 0, 70, 95
2, 150480, Note_off_c, 0, 67, 95
2, 150480, Note_off_c, 0, 64, 95
2, 150720, Note_on_c, 0, 70, 127
2, 150720, Note_on_c, 0, 67, 127
2, 150720, Note_on_c, 0, 64, 127
2, 150960, Note_off_c, 0, 70, 127
2, 150960, Note_off_c, 0, 67, 127
2, 150960, Note_off_c, 0, 64, 127
2, 151200, Note_on_c, 0, 64, 47
2, 151200, Note_on_c, 0, 59, 47
2, 151680, Note_off_c, 0, 64, 47
2, 151680, Note_off_c, 0, 59, 47
2, 151680, Note_on_c, 0, 74, 127
2, 151680, Note_on_c, 0, 68, 127
2, 151680, Note_on_c, 0, 64, 127
2, 151920, Note_off_c, 0, 74, 127
2, 151920, Note_off_c, 0, 68, 127
2, 151920, Note_off_c, 0, 64, 127
2, 152160, Note_on_c, 0, 74, 95
2, 152160, Note_on_c, 0, 68, 95
2, 152160, Note_on_c, 0, 64, 95
2, 152400, Note_off_c, 0, 74, 95
2, 152400, Note_off_c, 0, 68, 95
2, 152400, Note_off_c, 0, 64, 95
2, 152640, Note_on_c, 0, 74, 95
2, 152640, Note_on_c, 0, 68, 95
2, 152640, Note_on_c, 0, 64, 95
2, 152880, Note_off_c, 0, 74, 95
2, 152880, Note_off_c, 0, 68, 95
2, 152880, Note_off_c, 0, 64, 95
2, 153120, Note_on_c, 0, 74, 127
2, 153120, Note_on_c, 0, 68, 127
2, 153120, Note_on_c, 0, 64, 127
2, 153360, Note_off_c, 0, 74, 127
2, 153360, Note_off_c, 0, 68, 127
2, 153360, Note_off_c, 0, 64, 127
2, 153600, Note_on_c, 0, 74, 95
2, 153600, Note_on_c, 0, 68, 95
2, 153600, Note_on_c, 0, 64, 95
2, 153840, Note_off_c, 0, 74, 95
2, 153840, Note_off_c, 0, 68, 95
2, 153840, Note_off_c, 0, 64, 95
2, 154080, Note_on_c, 0, 74, 95
2, 154080, Note_on_c, 0, 68, 95
2, 154080, Note_on_c, 0, 64, 95
2, 154320, Note_off_c, 0, 74, 95
2, 154320, Note_off_c, 0, 68, 95
2, 154320, Note_off_c, 0, 64, 95
2, 154560, Note_on_c, 0, 74, 127
2, 154560, Note_on_c, 0, 68, 127
2, 154560, Note_on_c, 0, 64, 127
2, 154800, Note_off_c, 0, 74, 127
2, 154800, Note_off_c, 0, 68, 127
2, 154800, Note_off_c, 0, 64, 127
2, 155040, Note_on_c, 0, 64, 47
2, 155040, Note_on_c, 0, 59, 47
2, 155520, Note_off_c, 0, 64, 47
2, 155520, Note_off_c, 0, 59, 47
2, 155520, Note_on_c, 0, 70, 127
2, 155520, Note_on_c, 0, 67, 127
2, 155520, Note_on_c, 0, 64, 127
2, 155760, Note_off_c, 0, 70, 127
2, 155760, Note_off_c, 0, 67, 127
2, 155760, Note_off_c, 0, 64, 127
2, 156000, Note_on_c, 0, 70, 95
2, 156000, Note_on_c, 0, 67, 95
2, 156000, Note_on_c, 0, 64, 95
2, 156240, Note_off_c, 0, 70, 95
2, 156240, Note_off_c, 0, 67, 95
2, 156240, Note_off_c, 0, 64, 95
2, 156480, Note_on_c, 0, 70, 95
2, 156480, Note_on_c, 0, 67, 95
2, 156480, Note_on_c, 0, 64, 95
2, 156720, Note_off_c, 0, 70, 95
2, 156720, Note_off_c, 0, 67, 95
2, 156720, Note_off_c, 0, 64, 95
2, 156960, Note_on_c, 0, 70, 127
2, 156960, Note_on_c, 0, 67, 127
2, 156960, Note_on_c, 0, 64, 127
2, 157200, Note_off_c, 0, 70, 127
2, 157200, Note_off_c, 0, 67, 127
2, 157200, Note_off_c, 0, 64, 127
2, 157440, Note_on_c, 0, 70, 95
2, 157440, Note_on_c, 0, 67, 95
2, 157440, Note_on_c, 0, 64, 95
2, 157680, Note_off_c, 0, 70, 95
2, 157680, Note_off_c, 0, 67, 95
2, 157680, Note_off_c, 0, 64, 95
2, 157920, Note_on_c, 0, 70, 95
2, 157920, Note_on_c, 0, 67, 95
2, 157920, Note_on_c, 0, 64, 95
2, 158160, Note_off_c, 0, 70, 95
2, 158160, Note_off_c, 0, 67, 95
2, 158160, Note_off_c, 0, 64, 95
2, 158400, Note_on_c, 0, 70, 127
2, 158400, Note_on_c, 0, 67, 127
2, 158400, Note_on_c, 0, 64, 127
2, 158640, Note_off_c, 0, 70, 127
2, 158640, Note_off_c, 0, 67, 127
2, 158640, Note_off_c, 0, 64, 127
2, 158880, Note_on_c, 0, 64, 47
2, 158880, Note_on_c, 0, 59, 47
2, 159360, Note_off_c, 0, 64, 47
2, 159360, Note_off_c, 0, 59, 47
2, 159360, Note_on_c, 0, 68, 95
2, 159360, Note_on_c, 0, 63, 95
2, 159360, Note_on_c, 0, 56, 95
2, 159840, Note_off_c, 0, 68, 95
2, 159840, Note_off_c, 0, 63, 95
2, 159840, Note_off_c, 0, 56, 95
2, 159840, Note_on_c, 0, 59, 95
2, 159840, Note_on_c, 0, 55, 95
2, 159840, Note_on_c, 0, 50, 95
2, 159902, Note_off_c, 0, 59, 95
2, 159902, Note_off_c, 0, 55, 95
2, 159902, Note_off_c, 0, 50, 95
2, 160320, Note_on_c, 0, 59, 95
2, 160320, Note_on_c, 0, 55, 95
2, 160320, Note_on_c, 0, 50, 95
2, 160382, Note_off_c, 0, 59, 95
2, 160382, Note_off_c, 0, 55, 95
2, 160382, Note_off_c, 0, 50, 95
2, 160800, Note_on_c, 0, 68, 95
2, 160800, Note_on_c, 0, 63, 95
2, 160800, Note_on_c, 0, 56, 95
2, 161280, Note_off_c, 0, 68, 95
2, 161280, Note_off_c, 0, 63, 95
2, 161280, Note_off_c, 0, 56, 95
2, 161280, Note_on_c, 0, 59, 95
2, 161280, Note_on_c, 0, 55, 95
2, 161280, Note_on_c, 0, 50, 95
2, 161342, Note_off_c, 0, 59, 95
2, 161342, Note_off_c, 0, 55, 95
2, 161342, Note_off_c, 0, 50, 95
2, 161760, Note_on_c, 0, 59, 95
2, 161760, Note_on_c, 0, 55, 95
2, 161760, Note_on_c, 0, 50, 95
2, 161822, Note_off_c, 0, 59, 95
2, 161822, Note_off_c, 0, 55, 95
2, 161822, Note_off_c, 0, 50, 95
2, 162240, Note_on_c, 1, 68, 95
2, 162240, Note_on_c, 1, 63, 95
2, 162240, Note_on_c, 1, 56, 95
2, 162360, Pitch_bend_c, 1, 7936
2, 162360, Pitch_bend_c, 1, 7936
2, 162360, Pitch_bend_c, 1, 7936
2, 162480, Pitch_bend_c, 1, 7680
2, 162480, Pitch_bend_c, 1, 7680
2, 162480, Pitch_bend_c, 1, 7680
2, 162600, Pitch_bend_c, 1, 7424
2, 162600, Pitch_bend_c, 1, 7424
2, 162600, Pitch_bend_c, 1, 7424
2, 162720, Pitch_bend_c, 1, 7168
2, 162720, Pitch_bend_c, 1, 7168
2, 162720, Pitch_bend_c, 1, 7168
2, 162840, Pitch_bend_c, 1, 6912
2, 162840, Pitch_bend_c, 1, 6912
2, 162840, Pitch_bend_c, 1, 6912
2, 162960, Pitch_bend_c, 1, 6656
2, 162960, Pitch_bend_c, 1, 6656
2, 162960, Pitch_bend_c, 1, 6656
2, 163080, Pitch_bend_c, 1, 6400
2, 163080, Pitch_bend_c, 1, 6400
2, 163080, Pitch_bend_c, 1, 6400
2, 163200, Pitch_bend_c, 1, 6144
2, 163200, Pitch_bend_c, 1, 8192
2, 163200, Note_off_c, 1, 68, 95
2, 163200, Pitch_bend_c, 1, 6144
2, 163200, Pitch_bend_c, 1, 8192
2, 163200, Note_off_c, 1, 63, 95
2, 163200, Pitch_bend_c, 1, 6144
2, 163200, Pitch_bend_c, 1, 8192
2, 163200, Note_off_c, 1, 56, 95
2, 163200, Note_on_c, 0, 65, 95
2, 163200, Note_on_c, 0, 60, 95
2, 163200, Note_on_c, 0, 53, 95
2, 163680, Note_off_c, 0, 65, 95
2, 163680, Note_off_c, 0, 60, 95
2, 163680, Note_off_c, 0, 53, 95
2, 163680, Note_on_c, 0, 59, 95
2, 163680, Note_on_c, 0, 55, 95
2, 163680, Note_on_c, 0, 50, 95
2, 163742, Note_off_c, 0, 59, 95
2, 163742, Note_off_c, 0, 55, 95
2, 163742, Note_off_c, 0, 50, 95
2, 164160, Note_on_c, 0, 59, 95
2, 164160, Note_on_c, 0, 55, 95
2, 164160, Note_on_c, 0, 50, 95
2, 164222, Note_off_c, 0, 59, 95
2, 164222, Note_off_c, 0, 55, 95
2, 164222, Note_off_c, 0, 50, 95
2, 164640, Note_on_c, 0, 65, 95
2, 164640, Note_on_c, 0, 60, 95
2, 164640, Note_on_c, 0, 53, 95
2, 165120, Note_off_c, 0, 65, 95
2, 165120, Note_off_c, 0, 60, 95
2, 165120, Note_off_c, 0, 53, 95
2, 165120, Note_on_c, 0, 59, 95
2, 165120, Note_on_c, 0, 55, 95
2, 165120, Note_on_c, 0, 50, 95
2, 165182, Note_off_c, 0, 59, 95
2, 165182, Note_off_c, 0, 55, 95
2, 165182, Note_off_c, 0, 50, 95
2, 165600, Note_on_c, 0, 59, 95
2, 165600, Note_on_c, 0, 55, 95
2, 165600, Note_on_c, 0, 50, 95
2, 165662, Note_off_c, 0, 59, 95
2, 165662, Note_off_c, 0, 55, 95
2, 165662, Note_off_c, 0, 50, 95
2, 166080, Note_on_c, 0, 65, 95
2, 166080, Note_on_c, 0, 60, 95
2, 166080, Note_on_c, 0, 53, 95
2, 167040, Note_off_c, 0, 65, 95
2, 167040, Note_off_c, 0, 60, 95
2, 167040, Note_off_c, 0, 53, 95
2, 167040, Note_on_c, 0, 68, 95
2, 167040, Note_on_c, 0, 63, 95
2, 167040, Note_on_c, 0, 56, 95
2, 167520, Note_off_c, 0, 68, 95
2, 167520, Note_off_c, 0, 63, 95
2, 167520, Note_off_c, 0, 56, 95
2, 167520, Note_on_c, 0, 59, 95
2, 167520, Note_on_c, 0, 55, 95
2, 167520, Note_on_c, 0, 50, 95
2, 167582, Note_off_c, 0, 59, 95
2, 167582, Note_off_c, 0, 55, 95
2, 167582, Note_off_c, 0, 50, 95
2, 168000, Note_on_c, 0, 59, 95
2, 168000, Note_on_c, 0, 55, 95
2, 168000, Note_on_c, 0, 50, 95
2, 168062, Note_off_c, 0, 59, 95
2, 168062, Note_off_c, 0, 55, 95
2, 168062, Note_off_c, 0, 50, 95
2, 168480, Note_on_c, 0, 68, 95
2, 168480, Note_on_c, 0, 63, 95
2, 168480, Note_on_c, 0, 56, 95
2, 168960, Note_off_c, 0, 68, 95
2, 168960, Note_off_c, 0, 63, 95
2, 168960, Note_off_c, 0, 56, 95
2, 168960, Note_on_c, 0, 59, 95
2, 168960, Note_on_c, 0, 55, 95
2, 168960, Note_on_c, 0, 50, 95
2, 169022, Note_off_c, 0, 59, 95
2, 169022, Note_off_c, 0, 55, 95
2, 169022, Note_off_c, 0, 50, 95
2, 169440, Note_on_c, 0, 59, 95
2, 169440, Note_on_c, 0, 55, 95
2, 169440, Note_on_c, 0, 50, 95
2, 169502, Note_off_c, 0, 59, 95
2, 169502, Note_off_c, 0, 55, 95
2, 169502, Note_off_c, 0, 50, 95
2, 169920, Note_on_c, 1, 68, 95
2, 169920, Note_on_c, 1, 63, 95
2, 169920, Note_on_c, 1, 56, 95
2, 170040, Pitch_bend_c, 1, 7936
2, 170040, Pitch_bend_c, 1, 7936
2, 170040, Pitch_bend_c, 1, 7936
2, 170160, Pitch_bend_c, 1, 7680
2, 170160, Pitch_bend_c, 1, 7680
2, 170160, Pitch_bend_c, 1, 7680
2, 170280, Pitch_bend_c, 1, 7424
2, 170280, Pitch_bend_c, 1, 7424
2, 170280, Pitch_bend_c, 1, 7424
2, 170400, Pitch_bend_c, 1, 7168
2, 170400, Pitch_bend_c, 1, 7168
2, 170400, Pitch_bend_c, 1, 7168
2, 170520, Pitch_bend_c, 1, 6912
2, 170520, Pitch_bend_c, 1, 6912
2, 170520, Pitch_bend_c, 1, 6912
2, 170640, Pitch_bend_c, 1, 6656
2, 170640, Pitch_bend_c, 1, 6656
2, 170640, Pitch_bend_c, 1, 6656
2, 170760, Pitch_bend_c, 1, 6400
2, 170760, Pitch_bend_c, 1, 6400
2, 170760, Pitch_bend_c, 1, 6400
2, 170880, Pitch_bend_c, 1, 6144
2, 170880, Pitch_bend_c, 1, 8192
2, 170880, Note_off_c, 1, 68, 95
2, 170880, Pitch_bend_c, 1, 6144
2, 170880, Pitch_bend_c, 1, 8192
2, 170880, Note_off_c, 1, 63, 95
2, 170880, Pitch_bend_c, 1, 6144
2, 170880, Pitch_bend_c, 1, 8192
2, 170880, Note_off_c, 1, 56, 95
2, 170880, Note_on_c, 0, 65, 95
2, 170880, Note_on_c, 0, 60, 95
2, 170880, Note_on_c, 0, 53, 95
2, 171360, Note_off_c, 0, 65, 95
2, 171360, Note_off_c, 0, 60, 95
2, 171360, Note_off_c, 0, 53, 95
2, 171360, Note_on_c, 0, 59, 95
2, 171360, Note_on_c, 0, 55, 95
2, 171360, Note_on_c, 0, 50, 95
2, 171422, Note_off_c, 0, 59, 95
2, 171422, Note_off_c, 0, 55, 95
2, 171422, Note_off_c, 0, 50, 95
2, 171840, Note_on_c, 0, 59, 95
2, 171840, Note_on_c, 0, 55, 95
2, 171840, Note_on_c, 0, 50, 95
2, 171902, Note_off_c, 0, 59, 95
2, 171902, Note_off_c, 0, 55, 95
2, 171902, Note_off_c, 0, 50, 95
2, 172320, Note_on_c, 0, 65, 95
2, 172320, Note_on_c, 0, 60, 95
2, 172320, Note_on_c, 0, 53, 95
2, 172800, Note_off_c, 0, 65, 95
2, 172800, Note_off_c, 0, 60, 95
2, 172800, Note_off_c, 0, 53, 95
2, 172800, Note_on_c, 0, 59, 95
2, 172800, Note_on_c, 0, 55, 95
2, 172800, Note_on_c, 0, 50, 95
2, 172862, Note_off_c, 0, 59, 95
2, 172862, Note_off_c, 0, 55, 95
2, 172862, Note_off_c, 0, 50, 95
2, 173280, Note_on_c, 0, 59, 95
2, 173280, Note_on_c, 0, 55, 95
2, 173280, Note_on_c, 0, 50, 95
2, 173342, Note_off_c, 0, 59, 95
2, 173342, Note_off_c, 0, 55, 95
2, 173342, Note_off_c, 0, 50, 95
2, 173760, Note_on_c, 0, 65, 95
2, 173760, Note_on_c, 0, 60, 95
2, 173760, Note_on_c, 0, 53, 95
2, 174720, Note_off_c, 0, 65, 95
2, 174720, Note_off_c, 0, 60, 95
2, 174720, Note_off_c, 0, 53, 95
2, 174720, Note_on_c, 0, 66, 95
2, 174720, Note_on_c, 0, 62, 95
2, 174720, Note_on_c, 0, 57, 95
2, 174720, Note_on_c, 0, 50, 95
2, 175200, Note_off_c, 0, 66, 95
2, 175200, Note_off_c, 0, 62, 95
2, 175200, Note_off_c, 0, 57, 95
2, 175200, Note_off_c, 0, 50, 95
2, 175200, Note_on_c, 0, 59, 95
2, 175200, Note_on_c, 0, 55, 95
2, 175200, Note_on_c, 0, 50, 95
2, 175200, Note_on_c, 0, 45, 95
2, 175262, Note_off_c, 0, 59, 95
2, 175262, Note_off_c, 0, 55, 95
2, 175262, Note_off_c, 0, 50, 95
2, 175262, Note_off_c, 0, 45, 95
2, 175680, Note_on_c, 0, 59, 95
2, 175680, Note_on_c, 0, 55, 95
2, 175680, Note_on_c, 0, 50, 95
2, 175680, Note_on_c, 0, 45, 95
2, 175742, Note_off_c, 0, 59, 95
2, 175742, Note_off_c, 0, 55, 95
2, 175742, Note_off_c, 0, 50, 95
2, 175742, Note_off_c, 0, 45, 95
2, 176160, Note_on_c, 0, 66, 95
2, 176160, Note_on_c, 0, 62, 95
2, 176160, Note_on_c, 0, 57, 95
2, 176160, Note_on_c, 0, 50, 95
2, 176640, Note_off_c, 0, 66, 95
2, 176640, Note_off_c, 0, 62, 95
2, 176640, Note_off_c, 0, 57, 95
2, 176640, Note_off_c, 0, 50, 95
2, 176640, Note_on_c, 0, 59, 95
2, 176640, Note_on_c, 0, 55, 95
2, 176640, Note_on_c, 0, 50, 95
2, 176640, Note_on_c, 0, 45, 95
2, 176702, Note_off_c, 0, 59, 95
2, 176702, Note_off_c, 0, 55, 95
2, 176702, Note_off_c, 0, 50, 95
2, 176702, Note_off_c, 0, 45, 95
2, 177280, Note_on_c, 0, 66, 95
2, 177280, Note_on_c, 0, 62, 95
2, 177280, Note_on_c, 0, 57, 95
2, 177280, Note_on_c, 0, 50, 95
2, 177600, Note_off_c, 0, 66, 95
2, 177600, Note_off_c, 0, 62, 95
2, 177600, Note_off_c, 0, 57, 95
2, 177600, Note_off_c, 0, 50, 95
2, 177920, Note_on_c, 0, 66, 95
2, 177920, Note_on_c, 0, 62, 95
2, 177920, Note_on_c, 0, 57, 95
2, 177920, Note_on_c, 0, 50, 95
2, 178240, Note_off_c, 0, 66, 95
2, 178240, Note_off_c, 0, 62, 95
2, 178240, Note_off_c, 0, 57, 95
2, 178240, Note_off_c, 0, 50, 95
2, 178560, Note_on_c, 0, 68, 95
2, 178560, Note_on_c, 0, 64, 95
2, 178560, Note_on_c, 0, 59, 95
2, 178560, Note_on_c, 0, 52, 95
2, 179040, Note_off_c, 0, 68, 95
2, 179040, Note_off_c, 0, 64, 95
2, 179040, Note_off_c, 0, 59, 95
2, 179040, Note_off_c, 0, 52, 95
2, 179040, Note_on_c, 0, 59, 95
2, 179040, Note_on_c, 0, 55, 95
2, 179040, Note_on_c, 0, 50, 95
2, 179040, Note_on_c, 0, 45, 95
2, 179102, Note_off_c, 0, 59, 95
2, 179102, Note_off_c, 0, 55, 95
2, 179102, Note_off_c, 0, 50, 95
2, 179102, Note_off_c, 0, 45, 95
2, 179520, Note_on_c, 0, 59, 95
2, 179520, Note_on_c, 0, 55, 95
2, 179520, Note_on_c, 0, 50, 95
2, 179520, Note_on_c, 0, 45, 95
2, 179582, Note_off_c, 0, 59, 95
2, 179582, Note_off_c, 0, 55, 95
2, 179582, Note_off_c, 0, 50, 95
2, 179582, Note_off_c, 0, 45, 95
2, 180000, Note_on_c, 0, 68, 95
2, 180000, Note_on_c, 0, 64, 95
2, 180000, Note_on_c, 0, 59, 95
2, 180000, Note_on_c, 0, 52, 95
2, 180480, Note_off_c, 0, 68, 95
2, 180480, Note_off_c, 0, 64, 95
2, 180480, Note_off_c, 0, 59, 95
2, 180480, Note_off_c, 0, 52, 95
2, 180480, Note_on_c, 0, 59, 95
2, 180480, Note_on_c, 0, 55, 95
2, 180480, Note_on_c, 0, 50, 95
2, 180480, Note_on_c, 0, 45, 95
2, 180542, Note_off_c, 0, 59, 95
2, 180542, Note_off_c, 0, 55, 95
2, 180542, Note_off_c, 0, 50, 95
2, 180542, Note_off_c, 0, 45, 95
2, 180960, Note_on_c, 0, 59, 95
2, 180960, Note_on_c, 0, 55, 95
2, 180960, Note_on_c, 0, 50, 95
2, 180960, Note_on_c, 0, 45, 95
2, 181022, Note_off_c, 0, 59, 95
2, 181022, Note_off_c, 0, 55, 95
2, 181022, Note_off_c, 0, 50, 95
2, 181022, Note_off_c, 0, 45, 95
2, 181440, Note_on_c, 0, 68, 95
2, 181440, Note_on_c, 0, 64, 95
2, 181440, Note_on_c, 0, 59, 95
2, 181440, Note_on_c, 0, 52, 95
2, 182400, Note_off_c, 0, 68, 95
2, 182400, Note_off_c, 0, 64, 95
2, 182400, Note_off_c, 0, 59, 95
2, 182400, Note_off_c, 0, 52, 95
2, 182400, Note_on_c, 0, 68, 95
2, 182400, Note_on_c, 0, 63, 95
2, 182400, Note_on_c, 0, 56, 95
2, 182880, Note_off_c, 0, 68, 95
2, 182880, Note_off_c, 0, 63, 95
2, 182880, Note_off_c, 0, 56, 95
2, 182880, Note_on_c, 0, 59, 95
2, 182880, Note_on_c, 0, 55, 95
2, 182880, Note_on_c, 0, 50, 95
2, 182942, Note_off_c, 0, 59, 95
2, 182942, Note_off_c, 0, 55, 95
2, 182942, Note_off_c, 0, 50, 95
2, 183360, Note_on_c, 0, 59, 95
2, 183360, Note_on_c, 0, 55, 95
2, 183360, Note_on_c, 0, 50, 95
2, 183422, Note_off_c, 0, 59, 95
2, 183422, Note_off_c, 0, 55, 95
2, 183422, Note_off_c, 0, 50, 95
2, 183840, Note_on_c, 0, 68, 95
2, 183840, Note_on_c, 0, 63, 95
2, 183840, Note_on_c, 0, 56, 95
2, 184320, Note_off_c, 0, 68, 95
2, 184320, Note_off_c, 0, 63, 95
2, 184320, Note_off_c, 0, 56, 95
2, 184320, Note_on_c, 0, 59, 95
2, 184320, Note_on_c, 0, 55, 95
2, 184320, Note_on_c, 0, 50, 95
2, 184382, Note_off_c, 0, 59, 95
2, 184382, Note_off_c, 0, 55, 95
2, 184382, Note_off_c, 0, 50, 95
2, 184800, Note_on_c, 0, 59, 95
2, 184800, Note_on_c, 0, 55, 95
2, 184800, Note_on_c, 0, 50, 95
2, 184862, Note_off_c, 0, 59, 95
2, 184862, Note_off_c, 0, 55, 95
2, 184862, Note_off_c, 0, 50, 95
2, 185280, Note_on_c, 1, 68, 95
2, 185280, Note_on_c, 1, 63, 95
2, 185280, Note_on_c, 1, 56, 95
2, 185400, Pitch_bend_c, 1, 7936
2, 185400, Pitch_bend_c, 1, 7936
2, 185400, Pitch_bend_c, 1, 7936
2, 185520, Pitch_bend_c, 1, 7680
2, 185520, Pitch_bend_c, 1, 7680
2, 185520, Pitch_bend_c, 1, 7680
2, 185640, Pitch_bend_c, 1, 7424
2, 185640, Pitch_bend_c, 1, 7424
2, 185640, Pitch_bend_c, 1, 7424
2, 185760, Pitch_bend_c, 1, 7168
2, 185760, Pitch_bend_c, 1, 7168
2, 185760, Pitch_bend_c, 1, 7168
2, 185880, Pitch_bend_c, 1, 6912
2, 185880, Pitch_bend_c, 1, 6912
2, 185880, Pitch_bend_c, 1, 6912
2, 186000, Pitch_bend_c, 1, 6656
2, 186000, Pitch_bend_c, 1, 6656
2, 186000, Pitch_bend_c, 1, 6656
2, 186120, Pitch_bend_c, 1, 6400
2, 186120, Pitch_bend_c, 1, 6400
2, 186120, Pitch_bend_c, 1, 6400
2, 186240, Pitch_bend_c, 1, 6144
2, 186240, Pitch_bend_c, 1, 8192
2, 186240, Note_off_c, 1, 68, 95
2, 186240, Pitch_bend_c, 1, 6144
2, 186240, Pitch_bend_c, 1, 8192
2, 186240, Note_off_c, 1, 63, 95
2, 186240, Pitch_bend_c, 1, 6144
2, 186240, Pitch_bend_c, 1, 8192
2, 186240, Note_off_c, 1, 56, 95
2, 186240, Note_on_c, 0, 65, 95
2, 186240, Note_on_c, 0, 60, 95
2, 186240, Note_on_c, 0, 53, 95
2, 186720, Note_off_c, 0, 65, 95
2, 186720, Note_off_c, 0, 60, 95
2, 186720, Note_off_c, 0, 53, 95
2, 186720, Note_on_c, 0, 59, 95
2, 186720, Note_on_c, 0, 55, 95
2, 186720, Note_on_c, 0, 50, 95
2, 186782, Note_off_c, 0, 59, 95
2, 186782, Note_off_c, 0, 55, 95
2, 186782, Note_off_c, 0, 50, 95
2, 187200, Note_on_c, 0, 59, 95
2, 187200, Note_on_c, 0, 55, 95
2, 187200, Note_on_c, 0, 50, 95
2, 187262, Note_off_c, 0, 59, 95
2, 187262, Note_off_c, 0, 55, 95
2, 187262, Note_off_c, 0, 50, 95
2, 187680, Note_on_c, 0, 65, 95
2, 187680, Note_on_c, 0, 60, 95
2, 187680, Note_on_c, 0, 53, 95
2, 188160, Note_off_c, 0, 65, 95
2, 188160, Note_off_c, 0, 60, 95
2, 188160, Note_off_c, 0, 53, 95
2, 188160, Note_on_c, 0, 59, 95
2, 188160, Note_on_c, 0, 55, 95
2, 188160, Note_on_c, 0, 50, 95
2, 188222, Note_off_c, 0, 59, 95
2, 188222, Note_off_c, 0, 55, 95
2, 188222, Note_off_c, 0, 50, 95
2, 188640, Note_on_c, 0, 59, 95
2, 188640, Note_on_c, 0, 55, 95
2, 188640, Note_on_c, 0, 50, 95
2, 188702, Note_off_c, 0, 59, 95
2, 188702, Note_off_c, 0, 55, 95
2, 188702, Note_off_c, 0, 50, 95
2, 189120, Note_on_c, 0, 65, 95
2, 189120, Note_on_c, 0, 60, 95
2, 189120, Note_on_c, 0, 53, 95
2, 190080, Note_off_c, 0, 65, 95
2, 190080, Note_off_c, 0, 60, 95
2, 190080, Note_off_c, 0, 53, 95
2, 190080, Note_on_c, 0, 68, 95
2, 190080, Note_on_c, 0, 63, 95
2, 190080, Note_on_c, 0, 56, 95
2, 190560, Note_off_c, 0, 68, 95
2, 190560, Note_off_c, 0, 63, 95
2, 190560, Note_off_c, 0, 56, 95
2, 190560, Note_on_c, 0, 59, 95
2, 190560, Note_on_c, 0, 55, 95
2, 190560, Note_on_c, 0, 50, 95
2, 190622, Note_off_c, 0, 59, 95
2, 190622, Note_off_c, 0, 55, 95
2, 190622, Note_off_c, 0, 50, 95
2, 191040, Note_on_c, 0, 59, 95
2, 191040, Note_on_c, 0, 55, 95
2, 191040, Note_on_c, 0, 50, 95
2, 191102, Note_off_c, 0, 59, 95
2, 191102, Note_off_c, 0, 55, 95
2, 191102, Note_off_c, 0, 50, 95
2, 191520, Note_on_c, 0, 68, 95
2, 191520, Note_on_c, 0, 63, 95
2, 191520, Note_on_c, 0, 56, 95
2, 192000, Note_off_c, 0, 68, 95
2, 192000, Note_off_c, 0, 63, 95
2, 192000, Note_off_c, 0, 56, 95
2, 192000, Note_on_c, 0, 59, 95
2, 192000, Note_on_c, 0, 55, 95
2, 192000, Note_on_c, 0, 50, 95
2, 192062, Note_off_c, 0, 59, 95
2, 192062, Note_off_c, 0, 55, 95
2, 192062, Note_off_c, 0, 50, 95
2, 192480, Note_on_c, 0, 59, 95
2, 192480, Note_on_c, 0, 55, 95
2, 192480, Note_on_c, 0, 50, 95
2, 192542, Note_off_c, 0, 59, 95
2, 192542, Note_off_c, 0, 55, 95
2, 192542, Note_off_c, 0, 50, 95
2, 192960, Note_on_c, 1, 68, 95
2, 192960, Note_on_c, 1, 63, 95
2, 192960, Note_on_c, 1, 56, 95
2, 193080, Pitch_bend_c, 1, 7936
2, 193080, Pitch_bend_c, 1, 7936
2, 193080, Pitch_bend_c, 1, 7936
2, 193200, Pitch_bend_c, 1, 7680
2, 193200, Pitch_bend_c, 1, 7680
2, 193200, Pitch_bend_c, 1, 7680
2, 193320, Pitch_bend_c, 1, 7424
2, 193320, Pitch_bend_c, 1, 7424
2, 193320, Pitch_bend_c, 1, 7424
2, 193440, Pitch_bend_c, 1, 7168
2, 193440, Pitch_bend_c, 1, 7168
2, 193440, Pitch_bend_c, 1, 7168
2, 193560, Pitch_bend_c, 1, 6912
2, 193560, Pitch_bend_c, 1, 6912
2, 193560, Pitch_bend_c, 1, 6912
2, 193680, Pitch_bend_c, 1, 6656
2, 193680, Pitch_bend_c, 1, 6656
2, 193680, Pitch_bend_c, 1, 6656
2, 193800, Pitch_bend_c, 1, 6400
2, 193800, Pitch_bend_c, 1, 6400
2, 193800, Pitch_bend_c, 1, 6400
2, 193920, Pitch_bend_c, 1, 6144
2, 193920, Pitch_bend_c, 1, 8192
2, 193920, Note_off_c, 1, 68, 95
2, 193920, Pitch_bend_c, 1, 6144
2, 193920, Pitch_bend_c, 1, 8192
2, 193920, Note_off_c, 1, 63, 95
2, 193920, Pitch_bend_c, 1, 6144
2, 193920, Pitch_bend_c, 1, 8192
2, 193920, Note_off_c, 1, 56, 95
2, 193920, Note_on_c, 0, 65, 95
2, 193920, Note_on_c, 0, 60, 95
2, 193920, Note_on_c, 0, 53, 95
2, 194400, Note_off_c, 0, 65, 95
2, 194400, Note_off_c, 0, 60, 95
2, 194400, Note_off_c, 0, 53, 95
2, 194400, Note_on_c, 0, 59, 95
2, 194400, Note_on_c, 0, 55, 95
2, 194400, Note_on_c, 0, 50, 95
2, 194462, Note_off_c, 0, 59, 95
2, 194462, Note_off_c, 0, 55, 95
2, 194462, Note_off_c, 0, 50, 95
2, 194880, Note_on_c, 0, 59, 95
2, 194880, Note_on_c, 0, 55, 95
2, 194880, Note_on_c, 0, 50, 95
2, 194942, Note_off_c, 0, 59, 95
2, 194942, Note_off_c, 0, 55, 95
2, 194942, Note_off_c, 0, 50, 95
2, 195360, Note_on_c, 0, 65, 95
2, 195360, Note_on_c, 0, 60, 95
2, 195360, Note_on_c, 0, 53, 95
2, 195840, Note_off_c, 0, 65, 95
2, 195840, Note_off_c, 0, 60, 95
2, 195840, Note_off_c, 0, 53, 95
2, 195840, Note_on_c, 0, 59, 95
2, 195840, Note_on_c, 0, 55, 95
2, 195840, Note_on_c, 0, 50, 95
2, 195902, Note_off_c, 0, 59, 95
2, 195902, Note_off_c, 0, 55, 95
2, 195902, Note_off_c, 0, 50, 95
2, 196320, Note_on_c, 0, 59, 95
2, 196320, Note_on_c, 0, 55, 95
2, 196320, Note_on_c, 0, 50, 95
2, 196382, Note_off_c, 0, 59, 95
2, 196382, Note_off_c, 0, 55, 95
2, 196382, Note_off_c, 0, 50, 95
2, 196800, Note_on_c, 0, 65, 95
2, 196800, Note_on_c, 0, 60, 95
2, 196800, Note_on_c, 0, 53, 95
2, 197760, Note_off_c, 0, 65, 95
2, 197760, Note_off_c, 0, 60, 95
2, 197760, Note_off_c, 0, 53, 95
2, 197760, Note_on_c, 0, 48, 95
2, 197880, Note_on_c, 0, 55, 95
2, 198000, Note_on_c, 0, 60, 95
2, 198120, Note_on_c, 0, 64, 95
2, 198240, Note_on_c, 0, 67, 95
2, 201600, Note_off_c, 0, 67, 95
2, 201600, Note_off_c, 0, 64, 95
2, 201600, Note_off_c, 0, 60, 95
2, 201600, Note_off_c, 0, 55, 95
2, 201600, Note_off_c, 0, 48, 95
2, 201600, Note_on_c, 0, 60, 95
2, 203040, Note_off_c, 0, 60, 95
2, 203040, Note_on_c, 0, 59, 95
2, 204000, Note_off_c, 0, 59, 95
2, 204000, Note_on_c, 0, 60, 95
2, 204480, Note_off_c, 0, 60, 95
2, 204480, Note_on_c, 0, 59, 95
2, 204960, Note_off_c, 0, 59, 95
2, 204960, Note_on_c, 0, 60, 70
2, 205440, Note_off_c, 0, 60, 70
2, 205440, Note_on_c, 0, 53, 95
2, 205560, Note_on_c, 0, 57, 95
2, 205680, Note_on_c, 0, 60, 95
2, 209280, Note_off_c, 0, 60, 95
2, 209280, Note_off_c, 0, 57, 95
2, 209280, Note_off_c, 0, 53, 95
2, 209280, Note_on_c, 0, 53, 95
2, 209400, Note_on_c, 0, 57, 95
2, 209520, Note_on_c, 0, 60, 95
2, 209640, Note_on_c, 0, 64, 95
2, 210720, Note_off_c, 0, 64, 95
2, 210720, Note_off_c, 0, 60, 95
2, 210720, Note_off_c, 0, 57, 95
2, 210720, Note_off_c, 0, 53, 95
2, 210720, Note_on_c, 0, 59, 95
2, 211680, Note_off_c, 0, 59, 95
2, 211680, Note_on_c, 0, 60, 70
2, 212160, Note_off_c, 0, 60, 70
2, 212160, Note_on_c, 0, 64, 95
2, 213120, Note_off_c, 0, 64, 95
2, 213120, Note_on_c, 0, 64, 95
2, 213120, Note_on_c, 0, 60, 95
2, 213120, Note_on_c, 0, 55, 95
2, 213120, Note_on_c, 0, 48, 95
2, 216960, Note_off_c, 0, 64, 95
2, 216960, Note_off_c, 0, 60, 95
2, 216960, Note_off_c, 0, 55, 95
2, 216960, Note_off_c, 0, 48, 95
2, 216960, Note_on_c, 0, 57, 95
2, 216960, Note_on_c, 0, 53, 95
2, 216960, Note_on_c, 0, 48, 95
2, 216960, Note_on_c, 0, 41, 95
2, 220800, Note_off_c, 0, 57, 95
2, 220800, Note_off_c, 0, 53, 95
2, 220800, Note_off_c, 0, 48, 95
2, 220800, Note_off_c, 0, 41, 95
2, 220800, Note_on_c, 0, 65, 95
2, 220800, Note_on_c, 0, 62, 95
2, 220800, Note_on_c, 0, 57, 95
2, 220800, Note_on_c, 0, 50, 95
2, 222240, Note_off_c, 0, 65, 95
2, 222240, Note_off_c, 0, 62, 95
2, 222240, Note_off_c, 0, 57, 95
2, 222240, Note_off_c, 0, 50, 95
2, 222240, Note_on_c, 0, 62, 95
2, 222720, Note_off_c, 0, 62, 95
2, 222720, Note_on_c, 0, 65, 95
2, 223200, Note_off_c, 0, 65, 95
2, 223200, Note_on_c, 0, 62, 95
2, 223680, Note_off_c, 0, 62, 95
2, 223680, Note_on_c, 0, 57, 95
2, 224640, Note_off_c, 0, 57, 95
2, 224640, Note_on_c, 0, 61, 95
2, 224640, Note_on_c, 0, 57, 95
2, 224640, Note_on_c, 0, 52, 95
2, 224640, Note_on_c, 0, 45, 95
2, 226080, Note_off_c, 0, 61, 95
2, 226080, Note_off_c, 0, 57, 95
2, 226080, Note_off_c, 0, 52, 95
2, 226080, Note_off_c, 0, 45, 95
2, 226080, Note_on_c, 0, 64, 95
2, 227040, Note_off_c, 0, 64, 95
2, 227040, Note_on_c, 0, 57, 95
2, 227520, Note_off_c, 0, 57, 95
2, 227520, Note_on_c, 0, 55, 95
2, 228000, Note_off_c, 0, 55, 95
2, 228000, Note_on_c, 0, 57, 95
2, 228480, Note_off_c, 0, 57, 95
2, 228480, Note_on_c, 0, 65, 95
2, 228480, Note_on_c, 0, 62, 95
2, 228480, Note_on_c, 0, 57, 95
2, 228480, Note_on_c, 0, 50, 95
2, 229920, Note_off_c, 0, 65, 95
2, 229920, Note_off_c, 0, 62, 95
2, 229920, Note_off_c, 0, 57, 95
2, 229920, Note_off_c, 0, 50, 95
2, 229920, Note_on_c, 0, 62, 95
2, 230400, Note_off_c, 0, 62, 95
2, 230400, Note_on_c, 0, 65, 95
2, 230880, Note_off_c, 0, 65, 95
2, 230880, Note_on_c, 0, 62, 95
2, 231360, Note_off_c, 0, 62, 95
2, 231360, Note_on_c, 0, 57, 95
2, 232320, Note_off_c, 0, 57, 95
2, 232320, Note_on_c, 0, 61, 95
2, 232320, Note_on_c, 0, 57, 95
2, 232320, Note_on_c, 0, 52, 95
2, 232320, Note_on_c, 0, 45, 95
2, 233760, Note_off_c, 0, 61, 95
2, 233760, Note_off_c, 0, 57, 95
2, 233760, Note_off_c, 0, 52, 95
2, 233760, Note_off_c, 0, 45, 95
2, 233760, Note_on_c, 0, 64, 95
2, 234720, Note_off_c, 0, 64, 95
2, 234720, Note_on_c, 0, 57, 95
2, 235200, Note_off_c, 0, 57, 95
2, 235200, Note_on_c, 0, 55, 95
2, 235680, Note_off_c, 0, 55, 95
2, 235680, Note_on_c, 0, 57, 95
2, 236160, Note_off_c, 0, 57, 95
2, 236160, Note_on_c, 0, 65, 95
2, 236160, Note_on_c, 0, 62, 95
2, 236160, Note_on_c, 0, 57, 95
2, 236160, Note_on_c, 0, 50, 95
2, 237600, Note_off_c, 0, 65, 95
2, 237600, Note_off_c, 0, 62, 95
2, 237600, Note_off_c, 0, 57, 95
2, 237600, Note_off_c, 0, 50, 95
2, 237600, Note_on_c, 0, 62, 95
2, 238080, Note_off_c, 0, 62, 95
2, 238080, Note_on_c, 0, 65, 95
2, 238560, Note_off_c, 0, 65, 95
2, 238560, Note_on_c, 0, 62, 95
2, 239040, Note_off_c, 0, 62, 95
2, 239040, Note_on_c, 0, 57, 95
2, 240000, Note_off_c, 0, 57, 95
2, 240000, Note_on_c, 0, 57, 95
2, 240000, Note_on_c, 0, 52, 95
2, 240000, Note_on_c, 0, 45, 95
2, 240062, Note_off_c, 0, 52, 95
2, 240960, Note_off_c, 0, 57, 95
2, 240960, Note_off_c, 0, 45, 95
2, 240960, Note_on_c, 0, 56, 95
2, 240960, Note_on_c, 0, 50, 95
2, 240960, Note_on_c, 0, 47, 95
2, 241022, Note_off_c, 0, 50, 95
2, 241440, Note_off_c, 0, 56, 95
2, 241440, Note_off_c, 0, 47, 95
2, 241440, Note_on_c, 0, 64, 95
2, 241440, Note_on_c, 0, 59, 95
2, 241920, Note_off_c, 0, 64, 95
2, 241920, Note_off_c, 0, 59, 95
2, 241920, Note_on_c, 0, 55, 95
2, 241920, Note_on_c, 0, 50, 95
2, 241920, Note_on_c, 0, 48, 95
2, 241982, Note_off_c, 0, 50, 95
2, 242400, Note_off_c, 0, 55, 95
2, 242400, Note_off_c, 0, 48, 95
2, 242400, Note_on_c, 0, 64, 95
2, 242400, Note_on_c, 0, 59, 95
2, 242880, Note_off_c, 0, 64, 95
2, 242880, Note_off_c, 0, 59, 95
2, 242880, Note_on_c, 0, 57, 95
2, 242880, Note_on_c, 0, 50, 95
2, 243360, Note_off_c, 0, 57, 95
2, 243360, Note_off_c, 0, 50, 95
2, 243360, Note_on_c, 0, 64, 95
2, 243360, Note_on_c, 0, 59, 95
2, 243840, Note_off_c, 0, 64, 95
2, 243840, Note_off_c, 0, 59, 95
2, 243840, Note_on_c, 0, 48, 95
2, 243960, Note_on_c, 0, 55, 95
2, 244080, Note_on_c, 0, 60, 95
2, 244200, Note_on_c, 0, 64, 95
2, 247680, Note_off_c, 0, 64, 95
2, 247680, Note_off_c, 0, 60, 95
2, 247680, Note_off_c, 0, 55, 95
2, 247680, Note_off_c, 0, 48, 95
2, 247680, Note_on_c, 0, 53, 95
2, 247800, Note_on_c, 0, 57, 95
2, 247920, Note_on_c, 0, 60, 95
2, 248040, Note_on_c, 0, 65, 95
2, 251040, Note_off_c, 0, 65, 95
2, 251040, Note_off_c, 0, 60, 95
2, 251040, Note_off_c, 0, 57, 95
2, 251040, Note_off_c, 0, 53, 95
2, 251040, Note_on_c, 0, 59, 47
2, 251040, Note_on_c, 0, 55, 47
2, 251040, Note_on_c, 0, 50, 47
2, 251520, Note_off_c, 0, 59, 47
2, 251520, Note_off_c, 0, 55, 47
2, 251520, Note_off_c, 0, 50, 47
2, 251520, Note_on_c, 0, 64, 95
2, 251520, Note_on_c, 0, 60, 95
2, 251520, Note_on_c, 0, 55, 95
2, 251520, Note_on_c, 0, 48, 95
2, 255360, Note_off_c, 0, 64, 95
2, 255360, Note_off_c, 0, 60, 95
2, 255360, Note_off_c, 0, 55, 95
2, 255360, Note_off_c, 0, 48, 95
2, 255360, Note_on_c, 0, 53, 95
2, 255480, Note_on_c, 0, 57, 95
2, 255600, Note_on_c, 0, 60, 95
2, 255720, Note_on_c, 0, 65, 95
2, 257280, Note_off_c, 0, 65, 95
2, 257280, Note_off_c, 0, 60, 95
2, 257280, Note_off_c, 0, 57, 95
2, 257280, Note_off_c, 0, 53, 95
2, 257280, Note_on_c, 0, 74, 127
2, 257280, Note_on_c, 0, 68, 127
2, 257280, Note_on_c, 0, 64, 127
2, 257520, Note_off_c, 0, 74, 127
2, 257520, Note_off_c, 0, 68, 127
2, 257520, Note_off_c, 0, 64, 127
2, 257760, Note_on_c, 0, 74, 95
2, 257760, Note_on_c, 0, 68, 95
2, 257760, Note_on_c, 0, 64, 95
2, 258000, Note_off_c, 0, 74, 95
2, 258000, Note_off_c, 0, 68, 95
2, 258000, Note_off_c, 0, 64, 95
2, 258240, Note_on_c, 0, 74, 95
2, 258240, Note_on_c, 0, 68, 95
2, 258240, Note_on_c, 0, 64, 95
2, 258480, Note_off_c, 0, 74, 95
2, 258480, Note_off_c, 0, 68, 95
2, 258480, Note_off_c, 0, 64, 95
2, 258720, Note_on_c, 0, 74, 127
2, 258720, Note_on_c, 0, 68, 127
2, 258720, Note_on_c, 0, 64, 127
2, 258960, Note_off_c, 0, 74, 127
2, 258960, Note_off_c, 0, 68, 127
2, 258960, Note_off_c, 0, 64, 127
2, 259200, Note_on_c, 0, 74, 95
2, 259200, Note_on_c, 0, 68, 95
2, 259200, Note_on_c, 0, 64, 95
2, 259440, Note_off_c, 0, 74, 95
2, 259440, Note_off_c, 0, 68, 95
2, 259440, Note_off_c, 0, 64, 95
2, 259680, Note_on_c, 0, 74, 95
2, 259680, Note_on_c, 0, 68, 95
2, 259680, Note_on_c, 0, 64, 95
2, 259920, Note_off_c, 0, 74, 95
2, 259920, Note_off_c, 0, 68, 95
2, 259920, Note_off_c, 0, 64, 95
2, 260160, Note_on_c, 0, 74, 127
2, 260160, Note_on_c, 0, 68, 127
2, 260160, Note_on_c, 0, 64, 127
2, 260400, Note_off_c, 0, 74, 127
2, 260400, Note_off_c, 0, 68, 127
2, 260400, Note_off_c, 0, 64, 127
2, 260640, Note_on_c, 0, 64, 47
2, 260640, Note_on_c, 0, 59, 47
2, 261120, Note_off_c, 0, 64, 47
2, 261120, Note_off_c, 0, 59, 47
2, 261120, Note_on_c, 0, 70, 127
2, 261120, Note_on_c, 0, 67, 127
2, 261120, Note_on_c, 0, 64, 127
2, 261360, Note_off_c, 0, 70, 127
2, 261360, Note_off_c, 0, 67, 127
2, 261360, Note_off_c, 0, 64, 127
2, 261600, Note_on_c, 0, 70, 95
2, 261600, Note_on_c, 0, 67, 95
2, 261600, Note_on_c, 0, 64, 95
2, 261840, Note_off_c, 0, 70, 95
2, 261840, Note_off_c, 0, 67, 95
2, 261840, Note_off_c, 0, 64, 95
2, 262080, Note_on_c, 0, 70, 95
2, 262080, Note_on_c, 0, 67, 95
2, 262080, Note_on_c, 0, 64, 95
2, 262320, Note_off_c, 0, 70, 95
2, 262320, Note_off_c, 0, 67, 95
2, 262320, Note_off_c, 0, 64, 95
2, 262560, Note_on_c, 0, 70, 127
2, 262560, Note_on_c, 0, 67, 127
2, 262560, Note_on_c, 0, 64, 127
2, 262800, Note_off_c, 0, 70, 127
2, 262800, Note_off_c, 0, 67, 127
2, 262800, Note_off_c, 0, 64, 127
2, 263040, Note_on_c, 0, 70, 95
2, 263040, Note_on_c, 0, 67, 95
2, 263040, Note_on_c, 0, 64, 95
2, 263280, Note_off_c, 0, 70, 95
2, 263280, Note_off_c, 0, 67, 95
2, 263280, Note_off_c, 0, 64, 95
2, 263520, Note_on_c, 0, 70, 95
2, 263520, Note_on_c, 0, 67, 95
2, 263520, Note_on_c, 0, 64, 95
2, 263760, Note_off_c, 0, 70, 95
2, 263760, Note_off_c, 0, 67, 95
2, 263760, Note_off_c, 0, 64, 95
2, 264000, Note_on_c, 0, 70, 127
2, 264000, Note_on_c, 0, 67, 127
2, 264000, Note_on_c, 0, 64, 127
2, 264240, Note_off_c, 0, 70, 127
2, 264240, Note_off_c, 0, 67, 127
2, 264240, Note_off_c, 0, 64, 127
2, 264480, Note_on_c, 0, 64, 47
2, 264480, Note_on_c, 0, 59, 47
2, 264960, Note_off_c, 0, 64, 47
2, 264960, Note_off_c, 0, 59, 47
2, 264960, Note_on_c, 0, 74, 127
2, 264960, Note_on_c, 0, 68, 127
2, 264960, Note_on_c, 0, 64, 127
2, 265200, Note_off_c, 0, 74, 127
2, 265200, Note_off_c, 0, 68, 127
2, 265200, Note_off_c, 0, 64, 127
2, 265440, Note_on_c, 0, 74, 95
2, 265440, Note_on_c, 0, 68, 95
2, 265440, Note_on_c, 0, 64, 95
2, 265680, Note_off_c, 0, 74, 95
2, 265680, Note_off_c, 0, 68, 95
2, 265680, Note_off_c, 0, 64, 95
2, 265920, Note_on_c, 0, 74, 95
2, 265920, Note_on_c, 0, 68, 95
2, 265920, Note_on_c, 0, 64, 95
2, 266160, Note_off_c, 0, 74, 95
2, 266160, Note_off_c, 0, 68, 95
2, 266160, Note_off_c, 0, 64, 95
2, 266400, Note_on_c, 0, 74, 127
2, 266400, Note_on_c, 0, 68, 127
2, 266400, Note_on_c, 0, 64, 127
2, 266640, Note_off_c, 0, 74, 127
2, 266640, Note_off_c, 0, 68, 127
2, 266640, Note_off_c, 0, 64, 127
2, 266880, Note_on_c, 0, 74, 95
2, 266880, Note_on_c, 0, 68, 95
2, 266880, Note_on_c, 0, 64, 95
2, 267120, Note_off_c, 0, 74, 95
2, 267120, Note_off_c, 0, 68, 95
2, 267120, Note_off_c, 0, 64, 95
2, 267360, Note_on_c, 0, 74, 95
2, 267360, Note_on_c, 0, 68, 95
2, 267360, Note_on_c, 0, 64, 95
2, 267600, Note_off_c, 0, 74, 95
2, 267600, Note_off_c, 0, 68, 95
2, 267600, Note_off_c, 0, 64, 95
2, 267840, Note_on_c, 0, 74, 127
2, 267840, Note_on_c, 0, 68, 127
2, 267840, Note_on_c, 0, 64, 127
2, 268080, Note_off_c, 0, 74, 127
2, 268080, Note_off_c, 0, 68, 127
2, 268080, Note_off_c, 0, 64, 127
2, 268320, Note_on_c, 0, 64, 47
2, 268320, Note_on_c, 0, 59, 47
2, 268800, Note_off_c, 0, 64, 47
2, 268800, Note_off_c, 0, 59, 47
2, 268800, Note_on_c, 0, 70, 127
2, 268800, Note_on_c, 0, 67, 127
2, 268800, Note_on_c, 0, 64, 127
2, 269040, Note_off_c, 0, 70, 127
2, 269040, Note_off_c, 0, 67, 127
2, 269040, Note_off_c, 0, 64, 127
2, 269280, Note_on_c, 0, 70, 95
2, 269280, Note_on_c, 0, 67, 95
2, 269280, Note_on_c, 0, 64, 95
2, 269520, Note_off_c, 0, 70, 95
2, 269520, Note_off_c, 0, 67, 95
2, 269520, Note_off_c, 0, 64, 95
2, 269760, Note_on_c, 0, 70, 95
2, 269760, Note_on_c, 0, 67, 95
2, 269760, Note_on_c, 0, 64, 95
2, 270000, Note_off_c, 0, 70, 95
2, 270000, Note_off_c, 0, 67, 95
2, 270000, Note_off_c, 0, 64, 95
2, 270240, Note_on_c, 0, 70, 127
2, 270240, Note_on_c, 0, 67, 127
2, 270240, Note_on_c, 0, 64, 127
2, 270480, Note_off_c, 0, 70, 127
2, 270480, Note_off_c, 0, 67, 127
2, 270480, Note_off_c, 0, 64, 127
2, 270720, Note_on_c, 0, 70, 95
2, 270720, Note_on_c, 0, 67, 95
2, 270720, Note_on_c, 0, 64, 95
2, 270960, Note_off_c, 0, 70, 95
2, 270960, Note_off_c, 0, 67, 95
2, 270960, Note_off_c, 0, 64, 95
2, 271200, Note_on_c, 0, 70, 95
2, 271200, Note_on_c, 0, 67, 95
2, 271200, Note_on_c, 0, 64, 95
2, 271440, Note_off_c, 0, 70, 95
2, 271440, Note_off_c, 0, 67, 95
2, 271440, Note_off_c, 0, 64, 95
2, 271680, Note_on_c, 0, 70, 127
2, 271680, Note_on_c, 0, 67, 127
2, 271680, Note_on_c, 0, 64, 127
2, 271920, Note_off_c, 0, 70, 127
2, 271920, Note_off_c, 0, 67, 127
2, 271920, Note_off_c, 0, 64, 127
2, 272160, Note_on_c, 0, 64, 47
2, 272160, Note_on_c, 0, 59, 47
2, 272640, Note_off_c, 0, 64, 47
2, 272640, Note_off_c, 0, 59, 47
2, 272640, Note_on_c, 0, 74, 127
2, 272640, Note_on_c, 0, 68, 127
2, 272640, Note_on_c, 0, 64, 127
2, 272880, Note_off_c, 0, 74, 127
2, 272880, Note_off_c, 0, 68, 127
2, 272880, Note_off_c, 0, 64, 127
2, 273120, Note_on_c, 0, 74, 95
2, 273120, Note_on_c, 0, 68, 95
2, 273120, Note_on_c, 0, 64, 95
2, 273360, Note_off_c, 0, 74, 95
2, 273360, Note_off_c, 0, 68, 95
2, 273360, Note_off_c, 0, 64, 95
2, 273600, Note_on_c, 0, 74, 95
2, 273600, Note_on_c, 0, 68, 95
2, 273600, Note_on_c, 0, 64, 95
2, 273840, Note_off_c, 0, 74, 95
2, 273840, Note_off_c, 0, 68, 95
2, 273840, Note_off_c, 0, 64, 95
2, 274080, Note_on_c, 0, 74, 127
2, 274080, Note_on_c, 0, 68, 127
2, 274080, Note_on_c, 0, 64, 127
2, 274320, Note_off_c, 0, 74, 127
2, 274320, Note_off_c, 0, 68, 127
2, 274320, Note_off_c, 0, 64, 127
2, 274560, Note_on_c, 0, 74, 95
2, 274560, Note_on_c, 0, 68, 95
2, 274560, Note_on_c, 0, 64, 95
2, 274800, Note_off_c, 0, 74, 95
2, 274800, Note_off_c, 0, 68, 95
2, 274800, Note_off_c, 0, 64, 95
2, 275040, Note_on_c, 0, 74, 95
2, 275040, Note_on_c, 0, 68, 95
2, 275040, Note_on_c, 0, 64, 95
2, 275280, Note_off_c, 0, 74, 95
2, 275280, Note_off_c, 0, 68, 95
2, 275280, Note_off_c, 0, 64, 95
2, 275520, Note_on_c, 0, 74, 127
2, 275520, Note_on_c, 0, 68, 127
2, 275520, Note_on_c, 0, 64, 127
2, 275760, Note_off_c, 0, 74, 127
2, 275760, Note_off_c, 0, 68, 127
2, 275760, Note_off_c, 0, 64, 127
2, 276000, Note_on_c, 0, 64, 47
2, 276000, Note_on_c, 0, 59, 47
2, 276480, Note_off_c, 0, 64, 47
2, 276480, Note_off_c, 0, 59, 47
2, 276480, Note_on_c, 0, 70, 127
2, 276480, Note_on_c, 0, 67, 127
2, 276480, Note_on_c, 0, 64, 127
2, 276720, Note_off_c, 0, 70, 127
2, 276720, Note_off_c, 0, 67, 127
2, 276720, Note_off_c, 0, 64, 127
2, 276960, Note_on_c, 0, 70, 95
2, 276960, Note_on_c, 0, 67, 95
2, 276960, Note_on_c, 0, 64, 95
2, 277200, Note_off_c, 0, 70, 95
2, 277200, Note_off_c, 0, 67, 95
2, 277200, Note_off_c, 0, 64, 95
2, 277440, Note_on_c, 0, 70, 95
2, 277440, Note_on_c, 0, 67, 95
2, 277440, Note_on_c, 0, 64, 95
2, 277680, Note_off_c, 0, 70, 95
2, 277680, Note_off_c, 0, 67, 95
2, 277680, Note_off_c, 0, 64, 95
2, 277920, Note_on_c, 0, 70, 127
2, 277920, Note_on_c, 0, 67, 127
2, 277920, Note_on_c, 0, 64, 127
2, 278160, Note_off_c, 0, 70, 127
2, 278160, Note_off_c, 0, 67, 127
2, 278160, Note_off_c, 0, 64, 127
2, 278400, Note_on_c, 0, 70, 95
2, 278400, Note_on_c, 0, 67, 95
2, 278400, Note_on_c, 0, 64, 95
2, 278640, Note_off_c, 0, 70, 95
2, 278640, Note_off_c, 0, 67, 95
2, 278640, Note_off_c, 0, 64, 95
2, 278880, Note_on_c, 0, 70, 95
2, 278880, Note_on_c, 0, 67, 95
2, 278880, Note_on_c, 0, 64, 95
2, 279120, Note_off_c, 0, 70, 95
2, 279120, Note_off_c, 0, 67, 95
2, 279120, Note_off_c, 0, 64, 95
2, 279360, Note_on_c, 0, 70, 127
2, 279360, Note_on_c, 0, 67, 127
2, 279360, Note_on_c, 0, 64, 127
2, 279600, Note_off_c, 0, 70, 127
2, 279600, Note_off_c, 0, 67, 127
2, 279600, Note_off_c, 0, 64, 127
2, 279840, Note_on_c, 0, 64, 47
2, 279840, Note_on_c, 0, 59, 47
2, 280320, Note_off_c, 0, 64, 47
2, 280320, Note_off_c, 0, 59, 47
2, 280320, Note_on_c, 0, 74, 127
2, 280320, Note_on_c, 0, 68, 127
2, 280320, Note_on_c, 0, 64, 127
2, 280560, Note_off_c, 0, 74, 127
2, 280560, Note_off_c, 0, 68, 127
2, 280560, Note_off_c, 0, 64, 127
2, 280800, Note_on_c, 0, 74, 95
2, 280800, Note_on_c, 0, 68, 95
2, 280800, Note_on_c, 0, 64, 95
2, 281040, Note_off_c, 0, 74, 95
2, 281040, Note_off_c, 0, 68, 95
2, 281040, Note_off_c, 0, 64, 95
2, 281280, Note_on_c, 0, 74, 95
2, 281280, Note_on_c, 0, 68, 95
2, 281280, Note_on_c, 0, 64, 95
2, 281520, Note_off_c, 0, 74, 95
2, 281520, Note_off_c, 0, 68, 95
2, 281520, Note_off_c, 0, 64, 95
2, 281760, Note_on_c, 0, 74, 127
2, 281760, Note_on_c, 0, 68, 127
2, 281760, Note_on_c, 0, 64, 127
2, 282000, Note_off_c, 0, 74, 127
2, 282000, Note_off_c, 0, 68, 127
2, 282000, Note_off_c, 0, 64, 127
2, 282240, Note_on_c, 0, 74, 95
2, 282240, Note_on_c, 0, 68, 95
2, 282240, Note_on_c, 0, 64, 95
2, 282480, Note_off_c, 0, 74, 95
2, 282480, Note_off_c, 0, 68, 95
2, 282480, Note_off_c, 0, 64, 95
2, 282720, Note_on_c, 0, 74, 95
2, 282720, Note_on_c, 0, 68, 95
2, 282720, Note_on_c, 0, 64, 95
2, 282960, Note_off_c, 0, 74, 95
2, 282960, Note_off_c, 0, 68, 95
2, 282960, Note_off_c, 0, 64, 95
2, 283200, Note_on_c, 0, 74, 127
2, 283200, Note_on_c, 0, 68, 127
2, 283200, Note_on_c, 0, 64, 127
2, 283440, Note_off_c, 0, 74, 127
2, 283440, Note_off_c, 0, 68, 127
2, 283440, Note_off_c, 0, 64, 127
2, 283680, Note_on_c, 0, 64, 47
2, 283680, Note_on_c, 0, 59, 47
2, 284160, Note_off_c, 0, 64, 47
2, 284160, Note_off_c, 0, 59, 47
2, 284160, Note_on_c, 0, 70, 127
2, 284160, Note_on_c, 0, 67, 127
2, 284160, Note_on_c, 0, 64, 127
2, 284400, Note_off_c, 0, 70, 127
2, 284400, Note_off_c, 0, 67, 127
2, 284400, Note_off_c, 0, 64, 127
2, 284640, Note_on_c, 0, 70, 95
2, 284640, Note_on_c, 0, 67, 95
2, 284640, Note_on_c, 0, 64, 95
2, 284880, Note_off_c, 0, 70, 95
2, 284880, Note_off_c, 0, 67, 95
2, 284880, Note_off_c, 0, 64, 95
2, 285120, Note_on_c, 0, 70, 95
2, 285120, Note_on_c, 0, 67, 95
2, 285120, Note_on_c, 0, 64, 95
2, 285360, Note_off_c, 0, 70, 95
2, 285360, Note_off_c, 0, 67, 95
2, 285360, Note_off_c, 0, 64, 95
2, 285600, Note_on_c, 0, 70, 127
2, 285600, Note_on_c, 0, 67, 127
2, 285600, Note_on_c, 0, 64, 127
2, 285840, Note_off_c, 0, 70, 127
2, 285840, Note_off_c, 0, 67, 127
2, 285840, Note_off_c, 0, 64, 127
2, 286080, Note_on_c, 0, 70, 95
2, 286080, Note_on_c, 0, 67, 95
2, 286080, Note_on_c, 0, 64, 95
2, 286320, Note_off_c, 0, 70, 95
2, 286320, Note_off_c, 0, 67, 95
2, 286320, Note_off_c, 0, 64, 95
2, 286560, Note_on_c, 0, 70, 95
2, 286560, Note_on_c, 0, 67, 95
2, 286560, Note_on_c, 0, 64, 95
2, 286800, Note_off_c, 0, 70, 95
2, 286800, Note_off_c, 0, 67, 95
2, 286800, Note_off_c, 0, 64, 95
2, 287040, Note_on_c, 0, 70, 127
2, 287040, Note_on_c, 0, 67, 127
2, 287040, Note_on_c, 0, 64, 127
2, 287280, Note_off_c, 0, 70, 127
2, 287280, Note_off_c, 0, 67, 127
2, 287280, Note_off_c, 0, 64, 127
2, 287520, Note_on_c, 0, 64, 47
2, 287520, Note_on_c, 0, 59, 47
2, 288000, Note_off_c, 0, 64, 47
2, 288000, Note_off_c, 0, 59, 47
2, 288000, Pitch_bend_c, 1, 8192
2, 288000, Note_on_c, 1, 58, 95
2, 288064, Pitch_bend_c, 1, 8320
2, 288128, Pitch_bend_c, 1, 8448
2, 288192, Pitch_bend_c, 1, 8576
2, 288256, Pitch_bend_c, 1, 8704
2, 288320, Pitch_bend_c, 1, 8832
2, 288320, Pitch_bend_c, 1, 8832
2, 288960, Pitch_bend_c, 1, 8832
2, 289920, Pitch_bend_c, 1, 8832
2, 290880, Pitch_bend_c, 1, 8832
2, 291072, Pitch_bend_c, 1, 8704
2, 291264, Pitch_bend_c, 1, 8576
2, 291456, Pitch_bend_c, 1, 8448
2, 291648, Pitch_bend_c, 1, 8320
2, 291840, Pitch_bend_c, 1, 8192
2, 291840, Pitch_bend_c, 1, 8192
2, 291840, Pitch_bend_c, 1, 8192
2, 291840, Note_off_c, 1, 58, 95
2, 291840, Note_on_c, 0, 55, 95
2, 294240, Note_off_c, 0, 55, 95
2, 294240, Note_on_c, 0, 52, 95
2, 294720, Note_off_c, 0, 52, 95
2, 294720, Note_on_c, 0, 55, 95
2, 294960, Note_off_c, 0, 55, 95
2, 294960, Note_on_c, 0, 57, 70
2, 295200, Note_off_c, 0, 57, 70
2, 295200, Note_on_c, 0, 64, 95
2, 295200, Note_on_c, 0, 59, 95
2, 295680, Note_off_c, 0, 64, 95
2, 295680, Note_off_c, 0, 59, 95
2, 295680, Note_on_c, 0, 59, 95
2, 295680, Pitch_bend_c, 1, 8192
2, 295680, Note_on_c, 1, 58, 95
2, 295744, Pitch_bend_c, 1, 8320
2, 295808, Pitch_bend_c, 1, 8448
2, 295872, Pitch_bend_c, 1, 8576
2, 295936, Pitch_bend_c, 1, 8704
2, 296000, Pitch_bend_c, 1, 8832
2, 296000, Pitch_bend_c, 1, 8832
2, 296640, Pitch_bend_c, 1, 8832
2, 297600, Pitch_bend_c, 1, 8832
2, 298560, Pitch_bend_c, 1, 8832
2, 298752, Pitch_bend_c, 1, 8704
2, 298944, Pitch_bend_c, 1, 8576
2, 299136, Pitch_bend_c, 1, 8448
2, 299328, Pitch_bend_c, 1, 8320
2, 299520, Note_off_c, 0, 59, 95
2, 299520, Pitch_bend_c, 1, 8192
2, 299520, Pitch_bend_c, 1, 8192
2, 299520, Pitch_bend_c, 1, 8192
2, 299520, Note_off_c, 1, 58, 95
2, 299520, Note_on_c, 0, 55, 95
2, 302400, Note_off_c, 0, 55, 95
2, 302400, Note_on_c, 0, 55, 95
2, 303360, Note_off_c, 0, 55, 95
2, 303360, Note_on_c, 0, 64, 95
2, 303360, Note_on_c, 0, 59, 95
2, 303360, Note_on_c, 0, 56, 95
2, 306240, Note_off_c, 0, 64, 95
2, 306240, Note_off_c, 0, 59, 95
2, 306240, Note_off_c, 0, 56, 95
2, 306240, Note_on_c, 0, 59, 47
2, 306240, Note_on_c, 0, 56, 47
2, 307200, Note_off_c, 0, 59, 47
2, 307200, Note_off_c, 0, 56, 47
2, 307200, Note_on_c, 0, 64, 95
2, 307200, Note_on_c, 0, 60, 95
2, 307200, Note_on_c, 0, 55, 95
2, 310080, Note_off_c, 0, 64, 95
2, 310080, Note_off_c, 0, 60, 95
2, 310080, Note_off_c, 0, 55, 95
2, 310080, Note_on_c, 1, 64, 47
2, 310080, Note_on_c, 1, 60, 47
2, 310080, Note_on_c, 1, 55, 47
2, 310200, Pitch_bend_c, 1, 8704
2, 310200, Pitch_bend_c, 1, 8832
2, 310200, Pitch_bend_c, 1, 8960
2, 310320, Pitch_bend_c, 1, 9344
2, 310320, Pitch_bend_c, 1, 9600
2, 310320, Pitch_bend_c, 1, 9728
2, 310440, Pitch_bend_c, 1, 9984
2, 310440, Pitch_bend_c, 1, 10240
2, 310440, Pitch_bend_c, 1, 10496
2, 310560, Pitch_bend_c, 1, 10624
2, 310560, Pitch_bend_c, 1, 11008
2, 310560, Pitch_bend_c, 1, 11264
2, 310680, Pitch_bend_c, 1, 11264
2, 310680, Pitch_bend_c, 1, 11648
2, 310680, Pitch_bend_c, 1, 12032
2, 310800, Pitch_bend_c, 1, 11776
2, 310800, Pitch_bend_c, 1, 12416
2, 310800, Pitch_bend_c, 1, 12928
2, 310920, Pitch_bend_c, 1, 12416
2, 310920, Pitch_bend_c, 1, 13056
2, 310920, Pitch_bend_c, 1, 13696
2, 311040, Pitch_bend_c, 1, 13056
2, 311040, Pitch_bend_c, 1, 8192
2, 311040, Note_off_c, 1, 64, 47
2, 311040, Pitch_bend_c, 1, 13824
2, 311040, Pitch_bend_c, 1, 8192
2, 311040, Note_off_c, 1, 60, 47
2, 311040, Pitch_bend_c, 1, 14464
2, 311040, Pitch_bend_c, 1, 8192
2, 311040, Note_off_c, 1, 55, 47
2, 311040, Note_on_c, 0, 71, 95
2, 311040, Note_on_c, 0, 68, 95
2, 311040, Note_on_c, 0, 64, 95
2, 312480, Note_off_c, 0, 71, 95
2, 312480, Note_off_c, 0, 68, 95
2, 312480, Note_off_c, 0, 64, 95
2, 312480, Note_on_c, 0, 71, 95
2, 312480, Note_on_c, 0, 68, 95
2, 312480, Note_on_c, 0, 64, 95
2, 313920, Note_off_c, 0, 71, 95
2, 313920, Note_off_c, 0, 68, 95
2, 313920, Note_off_c, 0, 64, 95
2, 313920, Note_on_c, 0, 71, 95
2, 313920, Note_on_c, 0, 68, 95
2, 313920, Note_on_c, 0, 64, 95
2, 314400, Note_off_c, 0, 71, 95
2, 314400, Note_off_c, 0, 68, 95
2, 314400, Note_off_c, 0, 64, 95
2, 314880, Note_on_c, 0, 70, 95
2, 314880, Note_on_c, 0, 64, 95
2, 314880, Note_on_c, 0, 60, 95
2, 316320, Note_off_c, 0, 70, 95
2, 316320, Note_off_c, 0, 64, 95
2, 316320, Note_off_c, 0, 60, 95
2, 316320, Note_on_c, 0, 70, 95
2, 316320, Note_on_c, 0, 64, 95
2, 316320, Note_on_c, 0, 60, 95
2, 317760, Note_off_c, 0, 70, 95
2, 317760, Note_off_c, 0, 64, 95
2, 317760, Note_off_c, 0, 60, 95
2, 317760, Note_on_c, 0, 70, 95
2, 317760, Note_on_c, 0, 64, 95
2, 317760, Note_on_c, 0, 60, 95
2, 318240, Note_off_c, 0, 70, 95
2, 318240, Note_off_c, 0, 64, 95
2, 318240, Note_off_c, 0, 60, 95
2, 318720, Pitch_bend_c, 1, 8192
2, 318720, Note_on_c, 1, 58, 95
2, 318784, Pitch_bend_c, 1, 8320
2, 318848, Pitch_bend_c, 1, 8448
2, 318912, Pitch_bend_c, 1, 8576
2, 318976, Pitch_bend_c, 1, 8704
2, 319040, Pitch_bend_c, 1, 8832
2, 319040, Pitch_bend_c, 1, 8832
2, 319680, Pitch_bend_c, 1, 8832
2, 320640, Pitch_bend_c, 1, 8832
2, 321600, Pitch_bend_c, 1, 8832
2, 321792, Pitch_bend_c, 1, 8704
2, 321984, Pitch_bend_c, 1, 8576
2, 322176, Pitch_bend_c, 1, 8448
2, 322368, Pitch_bend_c, 1, 8320
2, 322560, Pitch_bend_c, 1, 8192
2, 322560, Pitch_bend_c, 1, 8192
2, 322560, Pitch_bend_c, 1, 8192
2, 322560, Note_off_c, 1, 58, 95
2, 322560, Note_on_c, 0, 55, 95
2, 324960, Note_off_c, 0, 55, 95
2, 324960, Note_on_c, 0, 52, 95
2, 325440, Note_off_c, 0, 52, 95
2, 325440, Note_on_c, 0, 55, 95
2, 325680, Note_off_c, 0, 55, 95
2, 325680, Note_on_c, 0, 57, 70
2, 325920, Note_off_c, 0, 57, 70
2, 325920, Note_on_c, 0, 64, 95
2, 325920, Note_on_c, 0, 59, 95
2, 326400, Note_off_c, 0, 64, 95
2, 326400, Note_off_c, 0, 59, 95
2, 326400, Note_on_c, 0, 59, 95
2, 326400, Pitch_bend_c, 1, 8192
2, 326400, Note_on_c, 1, 58, 95
2, 326464, Pitch_bend_c, 1, 8320
2, 326528, Pitch_bend_c, 1, 8448
2, 326592, Pitch_bend_c, 1, 8576
2, 326656, Pitch_bend_c, 1, 8704
2, 326720, Pitch_bend_c, 1, 8832
2, 326720, Pitch_bend_c, 1, 8832
2, 327360, Pitch_bend_c, 1, 8832
2, 328320, Pitch_bend_c, 1, 8832
2, 329280, Pitch_bend_c, 1, 8832
2, 329472, Pitch_bend_c, 1, 8704
2, 329664, Pitch_bend_c, 1, 8576
2, 329856, Pitch_bend_c, 1, 8448
2, 330048, Pitch_bend_c, 1, 8320
2, 330240, Note_off_c, 0, 59, 95
2, 330240, Pitch_bend_c, 1, 8192
2, 330240, Pitch_bend_c, 1, 8192
2, 330240, Pitch_bend_c, 1, 8192
2, 330240, Note_off_c, 1, 58, 95
2, 330240, Note_on_c, 0, 55, 95
2, 333120, Note_off_c, 0, 55, 95
2, 333120, Note_on_c, 0, 55, 95
2, 334080, Note_off_c, 0, 55, 95
2, 334080, Note_on_c, 0, 64, 95
2, 334080, Note_on_c, 0, 59, 95
2, 334080, Note_on_c, 0, 56, 95
2, 336960, Note_off_c, 0, 64, 95
2, 336960, Note_off_c, 0, 59, 95
2, 336960, Note_off_c, 0, 56, 95
2, 336960, Note_on_c, 0, 59, 47
2, 336960, Note_on_c, 0, 56, 47
2, 337920, Note_off_c, 0, 59, 47
2, 337920, Note_off_c, 0, 56, 47
2, 337920, Note_on_c, 0, 64, 95
2, 337920, Note_on_c, 0, 60, 95
2, 337920, Note_on_c, 0, 55, 95
2, 340800, Note_off_c, 0, 64, 95
2, 340800, Note_off_c, 0, 60, 95
2, 340800, Note_off_c, 0, 55, 95
2, 340800, Note_on_c, 1, 64, 47
2, 340800, Note_on_c, 1, 60, 47
2, 340800, Note_on_c, 1, 55, 47
2, 340920, Pitch_bend_c, 1, 8704
2, 340920, Pitch_bend_c, 1, 8832
2, 340920, Pitch_bend_c, 1, 8960
2, 341040, Pitch_bend_c, 1, 9344
2, 341040, Pitch_bend_c, 1, 9600
2, 341040, Pitch_bend_c, 1, 9728
2, 341160, Pitch_bend_c, 1, 9984
2, 341160, Pitch_bend_c, 1, 10240
2, 341160, Pitch_bend_c, 1, 10496
2, 341280, Pitch_bend_c, 1, 10624
2, 341280, Pitch_bend_c, 1, 11008
2, 341280, Pitch_bend_c, 1, 11264
2, 341400, Pitch_bend_c, 1, 11264
2, 341400, Pitch_bend_c, 1, 11648
2, 341400, Pitch_bend_c, 1, 12032
2, 341520, Pitch_bend_c, 1, 11776
2, 341520, Pitch_bend_c, 1, 12416
2, 341520, Pitch_bend_c, 1, 12928
2, 341640, Pitch_bend_c, 1, 12416
2, 341640, Pitch_bend_c, 1, 13056
2, 341640, Pitch_bend_c, 1, 13696
2, 341760, Pitch_bend_c, 1, 13056
2, 341760, Pitch_bend_c, 1, 8192
2, 341760, Note_off_c, 1, 64, 47
2, 341760, Pitch_bend_c, 1, 13824
2, 341760, Pitch_bend_c, 1, 8192
2, 341760, Note_off_c, 1, 60, 47
2, 341760, Pitch_bend_c, 1, 14464
2, 341760, Pitch_bend_c, 1, 8192
2, 341760, Note_off_c, 1, 55, 47
2, 341760, Note_on_c, 0, 71, 95
2, 341760, Note_on_c, 0, 68, 95
2, 341760, Note_on_c, 0, 64, 95
2, 343200, Note_off_c, 0, 71, 95
2, 343200, Note_off_c, 0, 68, 95
2, 343200, Note_off_c, 0, 64, 95
2, 343200, Note_on_c, 0, 71, 95
2, 343200, Note_on_c, 0, 68, 95
2, 343200, Note_on_c, 0, 64, 95
2, 344640, Note_off_c, 0, 71, 95
2, 344640, Note_off_c, 0, 68, 95
2, 344640, Note_off_c, 0, 64, 95
2, 344640, Note_on_c, 0, 71, 95
2, 344640, Note_on_c, 0, 68, 95
2, 344640, Note_on_c, 0, 64, 95
2, 345120, Note_off_c, 0, 71, 95
2, 345120, Note_off_c, 0, 68, 95
2, 345120, Note_off_c, 0, 64, 95
2, 345600, Note_on_c, 0, 70, 95
2, 345600, Note_on_c, 0, 64, 95
2, 345600, Note_on_c, 0, 60, 95
2, 347040, Note_off_c, 0, 70, 95
2, 347040, Note_off_c, 0, 64, 95
2, 347040, Note_off_c, 0, 60, 95
2, 347040, Note_on_c, 0, 70, 95
2, 347040, Note_on_c, 0, 64, 95
2, 347040, Note_on_c, 0, 60, 95
2, 348480, Note_off_c, 0, 70, 95
2, 348480, Note_off_c, 0, 64, 95
2, 348480, Note_off_c, 0, 60, 95
2, 348480, Note_on_c, 0, 70, 95
2, 348480, Note_on_c, 0, 64, 95
2, 348480, Note_on_c, 0, 60, 95
2, 348960, Note_off_c, 0, 70, 95
2, 348960, Note_off_c, 0, 64, 95
2, 348960, Note_off_c, 0, 60, 95
2, 349440, Pitch_bend_c, 1, 8192
2, 349440, Note_on_c, 1, 58, 95
2, 349504, Pitch_bend_c, 1, 8320
2, 349568, Pitch_bend_c, 1, 8448
2, 349632, Pitch_bend_c, 1, 8576
2, 349696, Pitch_bend_c, 1, 8704
2, 349760, Pitch_bend_c, 1, 8832
2, 349760, Pitch_bend_c, 1, 8832
2, 350400, Pitch_bend_c, 1, 8832
2, 351360, Pitch_bend_c, 1, 8832
2, 352320, Pitch_bend_c, 1, 8832
2, 352512, Pitch_bend_c, 1, 8704
2, 352704, Pitch_bend_c, 1, 8576
2, 352896, Pitch_bend_c, 1, 8448
2, 353088, Pitch_bend_c, 1, 8320
2, 353280, Pitch_bend_c, 1, 8192
2, 353280, Pitch_bend_c, 1, 8192
2, 353280, Pitch_bend_c, 1, 8192
2, 353280, Note_off_c, 1, 58, 95
2, 353280, Note_on_c, 0, 55, 95
2, 355680, Note_off_c, 0, 55, 95
2, 355680, Note_on_c, 0, 52, 95
2, 356160, Note_off_c, 0, 52, 95
2, 356160, Note_on_c, 0, 55, 95
2, 356400, Note_off_c, 0, 55, 95
2, 356400, Note_on_c, 0, 57, 70
2, 356640, Note_off_c, 0, 57, 70
2, 356640, Note_on_c, 0, 64, 95
2, 356640, Note_on_c, 0, 59, 95
2, 357120, Note_off_c, 0, 64, 95
2, 357120, Note_off_c, 0, 59, 95
2, 357120, Note_on_c, 0, 59, 95
2, 357120, Pitch_bend_c, 1, 8192
2, 357120, Note_on_c, 1, 58, 95
2, 357184, Pitch_bend_c, 1, 8320
2, 357248, Pitch_bend_c, 1, 8448
2, 357312, Pitch_bend_c, 1, 8576
2, 357376, Pitch_bend_c, 1, 8704
2, 357440, Pitch_bend_c, 1, 8832
2, 357440, Pitch_bend_c, 1, 8832
2, 358080, Pitch_bend_c, 1, 8832
2, 359040, Pitch_bend_c, 1, 8832
2, 360000, Pitch_bend_c, 1, 8832
2, 360192, Pitch_bend_c, 1, 8704
2, 360384, Pitch_bend_c, 1, 8576
2, 360576, Pitch_bend_c, 1, 8448
2, 360768, Pitch_bend_c, 1, 8320
2, 360960, Note_off_c, 0, 59, 95
2, 360960, Pitch_bend_c, 1, 8192
2, 360960, Pitch_bend_c, 1, 8192
2, 360960, Pitch_bend_c, 1, 8192
2, 360960, Note_off_c, 1, 58, 95
2, 360960, Note_on_c, 0, 55, 95
2, 363840, Note_off_c, 0, 55, 95
2, 363840, Note_on_c, 0, 55, 95
2, 364800, Note_off_c, 0, 55, 95
2, 364800, Note_on_c, 0, 64, 95
2, 364800, Note_on_c, 0, 59, 95
2, 364800, Note_on_c, 0, 56, 95
2, 367680, Note_off_c, 0, 64, 95
2, 367680, Note_off_c, 0, 59, 95
2, 367680, Note_off_c, 0, 56, 95
2, 367680, Note_on_c, 0, 59, 47
2, 367680, Note_on_c, 0, 56, 47
2, 368640, Note_off_c, 0, 59, 47
2, 368640, Note_off_c, 0, 56, 47
2, 368640, Note_on_c, 0, 64, 95
2, 368640, Note_on_c, 0, 60, 95
2, 368640, Note_on_c, 0, 55, 95
2, 371520, Note_off_c, 0, 64, 95
2, 371520, Note_off_c, 0, 60, 95
2, 371520, Note_off_c, 0, 55, 95
2, 371520, Note_on_c, 1, 64, 47
2, 371520, Note_on_c, 1, 60, 47
2, 371520, Note_on_c, 1, 55, 47
2, 371640, Pitch_bend_c, 1, 8704
2, 371640, Pitch_bend_c, 1, 8832
2, 371640, Pitch_bend_c, 1, 8960
2, 371760, Pitch_bend_c, 1, 9344
2, 371760, Pitch_bend_c, 1, 9600
2, 371760, Pitch_bend_c, 1, 9728
2, 371880, Pitch_bend_c, 1, 9984
2, 371880, Pitch_bend_c, 1, 10240
2, 371880, Pitch_bend_c, 1, 10496
2, 372000, Pitch_bend_c, 1, 10624
2, 372000, Pitch_bend_c, 1, 11008
2, 372000, Pitch_bend_c, 1, 11264
2, 372120, Pitch_bend_c, 1, 11264
2, 372120, Pitch_bend_c, 1, 11648
2, 372120, Pitch_bend_c, 1, 12032
2, 372240, Pitch_bend_c, 1, 11776
2, 372240, Pitch_bend_c, 1, 12416
2, 372240, Pitch_bend_c, 1, 12928
2, 372360, Pitch_bend_c, 1, 12416
2, 372360, Pitch_bend_c, 1, 13056
2, 372360, Pitch_bend_c, 1, 13696
2, 372480, Pitch_bend_c, 1, 13056
2, 372480, Pitch_bend_c, 1, 8192
2, 372480, Note_off_c, 1, 64, 47
2, 372480, Pitch_bend_c, 1, 13824
2, 372480, Pitch_bend_c, 1, 8192
2, 372480, Note_off_c, 1, 60, 47
2, 372480, Pitch_bend_c, 1, 14464
2, 372480, Pitch_bend_c, 1, 8192
2, 372480, Note_off_c, 1, 55, 47
2, 372480, Note_on_c, 0, 71, 95
2, 372480, Note_on_c, 0, 68, 95
2, 372480, Note_on_c, 0, 64, 95
2, 373920, Note_off_c, 0, 71, 95
2, 373920, Note_off_c, 0, 68, 95
2, 373920, Note_off_c, 0, 64, 95
2, 373920, Note_on_c, 0, 71, 95
2, 373920, Note_on_c, 0, 68, 95
2, 373920, Note_on_c, 0, 64, 95
2, 375360, Note_off_c, 0, 71, 95
2, 375360, Note_off_c, 0, 68, 95
2, 375360, Note_off_c, 0, 64, 95
2, 375360, Note_on_c, 0, 71, 95
2, 375360, Note_on_c, 0, 68, 95
2, 375360, Note_on_c, 0, 64, 95
2, 375840, Note_off_c, 0, 71, 95
2, 375840, Note_off_c, 0, 68, 95
2, 375840, Note_off_c, 0, 64, 95
2, 376320, Note_on_c, 0, 70, 95
2, 376320, Note_on_c, 0, 64, 95
2, 376320, Note_on_c, 0, 60, 95
2, 377760, Note_off_c, 0, 70, 95
2, 377760, Note_off_c, 0, 64, 95
2, 377760, Note_off_c, 0, 60, 95
2, 377760, Note_on_c, 0, 70, 95
2, 377760, Note_on_c, 0, 64, 95
2, 377760, Note_on_c, 0, 60, 95
2, 379200, Note_off_c, 0, 70, 95
2, 379200, Note_off_c, 0, 64, 95
2, 379200, Note_off_c, 0, 60, 95
2, 379200, Note_on_c, 0, 70, 95
2, 379200, Note_on_c, 0, 64, 95
2, 379200, Note_on_c, 0, 60, 95
2, 379680, Note_off_c, 0, 70, 95
2, 379680, Note_off_c, 0, 64, 95
2, 379680, Note_off_c, 0, 60, 95
2, 380160, Note_on_c, 0, 76, 95
2, 381600, Note_off_c, 0, 76, 95
2, 381600, Note_on_c, 0, 71, 95
2, 382560, Note_off_c, 0, 71, 95
2, 382560, Note_on_c, 0, 76, 95
2, 383040, Note_off_c, 0, 76, 95
2, 383040, Note_on_c, 0, 55, 95
2, 384000, Note_off_c, 0, 55, 95
2, 384000, Note_on_c, 0, 72, 95
2, 385440, Note_off_c, 0, 72, 95
2, 385440, Note_on_c, 0, 67, 95
2, 385440, Note_on_c, 0, 55, 95
2, 386880, Note_off_c, 0, 67, 95
2, 386880, Note_off_c, 0, 55, 95
2, 386880, Note_on_c, 0, 55, 95
2, 387840, Note_off_c, 0, 55, 95
2, 387840, Note_on_c, 0, 76, 95
2, 389280, Note_off_c, 0, 76, 95
2, 389280, Note_on_c, 0, 55, 95
2, 390720, Note_off_c, 0, 55, 95
2, 390720, Note_on_c, 0, 55, 95
2, 391680, Note_off_c, 0, 55, 95
2, 391680, Note_on_c, 0, 64, 95
2, 391680, Note_on_c, 0, 60, 95
2, 391680, Note_on_c, 0, 55, 95
2, 393120, Note_off_c, 0, 64, 95
2, 393120, Note_off_c, 0, 60, 95
2, 393120, Note_off_c, 0, 55, 95
2, 393120, Note_on_c, 0, 64, 95
2, 393120, Note_on_c, 0, 60, 95
2, 393120, Note_on_c, 0, 55, 95
2, 394560, Note_off_c, 0, 64, 95
2, 394560, Note_off_c, 0, 60, 95
2, 394560, Note_off_c, 0, 55, 95
2, 394560, Note_on_c, 0, 64, 95
2, 394560, Note_on_c, 0, 60, 95
2, 394560, Note_on_c, 0, 55, 95
2, 395520, Note_off_c, 0, 64, 95
2, 395520, Note_off_c, 0, 60, 95
2, 395520, Note_off_c, 0, 55, 95
2, 395520, Note_on_c, 0, 64, 95
2, 395520, Note_on_c, 0, 55, 95
2, 396960, Note_off_c, 0, 64, 95
2, 396960, Note_off_c, 0, 55, 95
2, 396960, Note_on_c, 0, 64, 95
2, 396960, Note_on_c, 0, 55, 95
2, 398400, Note_off_c, 0, 64, 95
2, 398400, Note_off_c, 0, 55, 95
2, 398400, Note_on_c, 0, 64, 95
2, 398400, Note_on_c, 0, 55, 95
2, 399360, Note_off_c, 0, 64, 95
2, 399360, Note_off_c, 0, 55, 95
2, 399360, Note_on_c, 0, 64, 95
2, 399360, Note_on_c, 0, 60, 95
2, 399360, Note_on_c, 0, 55, 95
2, 400800, Note_off_c, 0, 64, 95
2, 400800, Note_off_c, 0, 60, 95
2, 400800, Note_off_c, 0, 55, 95
2, 400800, Note_on_c, 0, 64, 95
2, 400800, Note_on_c, 0, 60, 95
2, 400800, Note_on_c, 0, 55, 95
2, 402240, Note_off_c, 0, 64, 95
2, 402240, Note_off_c, 0, 60, 95
2, 402240, Note_off_c, 0, 55, 95
2, 402240, Note_on_c, 0, 64, 95
2, 402240, Note_on_c, 0, 60, 95
2, 402240, Note_on_c, 0, 55, 95
2, 403200, Note_off_c, 0, 64, 95
2, 403200, Note_off_c, 0, 60, 95
2, 403200, Note_off_c, 0, 55, 95
2, 403200, Note_on_c, 0, 64, 95
2, 403200, Note_on_c, 0, 55, 95
2, 404640, Note_off_c, 0, 64, 95
2, 404640, Note_off_c, 0, 55, 95
2, 404640, Note_on_c, 0, 64, 95
2, 404640, Note_on_c, 0, 55, 95
2, 406080, Note_off_c, 0, 64, 95
2, 406080, Note_off_c, 0, 55, 95
2, 406080, Note_on_c, 0, 64, 95
2, 406080, Note_on_c, 0, 55, 95
2, 407040, Note_off_c, 0, 64, 95
2, 407040, Note_off_c, 0, 55, 95
2, 407040, Note_on_c, 0, 64, 95
2, 407040, Note_on_c, 0, 60, 95
2, 407040, Note_on_c, 0, 55, 95
2, 408480, Note_off_c, 0, 64, 95
2, 408480, Note_off_c, 0, 60, 95
2, 408480, Note_off_c, 0, 55, 95
2, 408480, Note_on_c, 0, 64, 95
2, 408480, Note_on_c, 0, 60, 95
2, 408480, Note_on_c, 0, 55, 95
2, 409920, Note_off_c, 0, 64, 95
2, 409920, Note_off_c, 0, 60, 95
2, 409920, Note_off_c, 0, 55, 95
2, 409920, Note_on_c, 0, 64, 95
2, 409920, Note_on_c, 0, 60, 95
2, 409920, Note_on_c, 0, 55, 95
2, 410880, Note_off_c, 0, 64, 95
2, 410880, Note_off_c, 0, 60, 95
2, 410880, Note_off_c, 0, 55, 95
2, 410880, End_track
3, 0, Start_track
3, 0, Pitch_bend_c, 2, 8192
3, 0, Control_c, 2, 7, 39
3, 0, Control_c, 2, 10, 7
3, 0, Control_c, 2, 93, 0
3, 0, Control_c, 2, 91, 0
3, 0, Control_c, 2, 95, 0
3, 0, Control_c, 2, 92, 0
3, 0, Control_c, 2, 11, 127
3, 0, Program_c, 2, 29
3, 0, Control_c, 3, 7, 39
3, 0, Control_c, 3, 10, 7
3, 0, Control_c, 3, 93, 0
3, 0, Control_c, 3, 91, 0
3, 0, Control_c, 3, 95, 0
3, 0, Control_c, 3, 92, 0
3, 0, Control_c, 3, 11, 127
3, 0, Program_c, 3, 29
3, 288000, Note_on_c, 2, 76, 95
3, 289440, Note_off_c, 2, 76, 95
3, 289440, Pitch_bend_c, 3, 8192
3, 289440, Note_on_c, 3, 76, 95
3, 289494, Pitch_bend_c, 3, 8320
3, 289548, Pitch_bend_c, 3, 8448
3, 289602, Pitch_bend_c, 3, 8576
3, 289656, Pitch_bend_c, 3, 8704
3, 289710, Pitch_bend_c, 3, 8832
3, 289764, Pitch_bend_c, 3, 8960
3, 289818, Pitch_bend_c, 3, 9088
3, 289872, Pitch_bend_c, 3, 9216
3, 289926, Pitch_bend_c, 3, 9344
3, 289980, Pitch_bend_c, 3, 9472
3, 290034, Pitch_bend_c, 3, 9600
3, 290040, Pitch_bend_c, 3, 9600
3, 290640, Pitch_bend_c, 3, 9600
3, 290694, Pitch_bend_c, 3, 9472
3, 290748, Pitch_bend_c, 3, 9344
3, 290802, Pitch_bend_c, 3, 9216
3, 290856, Pitch_bend_c, 3, 9088
3, 290910, Pitch_bend_c, 3, 8960
3, 290964, Pitch_bend_c, 3, 8832
3, 291018, Pitch_bend_c, 3, 8704
3, 291072, Pitch_bend_c, 3, 8576
3, 291126, Pitch_bend_c, 3, 8448
3, 291180, Pitch_bend_c, 3, 8320
3, 291234, Pitch_bend_c, 3, 8192
3, 291240, Pitch_bend_c, 3, 8192
3, 291840, Pitch_bend_c, 3, 8192
3, 291840, Pitch_bend_c, 3, 8192
3, 291840, Note_off_c, 3, 76, 95
3, 291840, Note_on_c, 2, 70, 95
3, 294400, Note_off_c, 2, 70, 95
3, 294400, Note_on_c, 2, 69, 95
3, 295040, Note_off_c, 2, 69, 95
3, 295040, Note_on_c, 2, 70, 95
3, 295680, Note_off_c, 2, 70, 95
3, 295680, Note_on_c, 2, 76, 95
3, 297120, Note_off_c, 2, 76, 95
3, 297120, Pitch_bend_c, 3, 8192
3, 297120, Note_on_c, 3, 76, 95
3, 297174, Pitch_bend_c, 3, 8320
3, 297228, Pitch_bend_c, 3, 8448
3, 297282, Pitch_bend_c, 3, 8576
3, 297336, Pitch_bend_c, 3, 8704
3, 297390, Pitch_bend_c, 3, 8832
3, 297444, Pitch_bend_c, 3, 8960
3, 297498, Pitch_bend_c, 3, 9088
3, 297552, Pitch_bend_c, 3, 9216
3, 297606, Pitch_bend_c, 3, 9344
3, 297660, Pitch_bend_c, 3, 9472
3, 297714, Pitch_bend_c, 3, 9600
3, 297720, Pitch_bend_c, 3, 9600
3, 298320, Pitch_bend_c, 3, 9600
3, 298374, Pitch_bend_c, 3, 9472
3, 298428, Pitch_bend_c, 3, 9344
3, 298482, Pitch_bend_c, 3, 9216
3, 298536, Pitch_bend_c, 3, 9088
3, 298590, Pitch_bend_c, 3, 8960
3, 298644, Pitch_bend_c, 3, 8832
3, 298698, Pitch_bend_c, 3, 8704
3, 298752, Pitch_bend_c, 3, 8576
3, 298806, Pitch_bend_c, 3, 8448
3, 298860, Pitch_bend_c, 3, 8320
3, 298914, Pitch_bend_c, 3, 8192
3, 298920, Pitch_bend_c, 3, 8192
3, 299520, Pitch_bend_c, 3, 8192
3, 299520, Pitch_bend_c, 3, 8192
3, 299520, Note_off_c, 3, 76, 95
3, 299520, Note_on_c, 2, 70, 95
3, 302080, Note_off_c, 2, 70, 95
3, 302080, Note_on_c, 2, 69, 95
3, 302720, Note_off_c, 2, 69, 95
3, 302720, Note_on_c, 2, 70, 95
3, 303360, Note_off_c, 2, 70, 95
3, 303360, Note_on_c, 2, 76, 95
3, 304800, Note_off_c, 2, 76, 95
3, 304800, Pitch_bend_c, 3, 8192
3, 304800, Note_on_c, 3, 76, 95
3, 304854, Pitch_bend_c, 3, 8320
3, 304908, Pitch_bend_c, 3, 8448
3, 304962, Pitch_bend_c, 3, 8576
3, 305016, Pitch_bend_c, 3, 8704
3, 305070, Pitch_bend_c, 3, 8832
3, 305124, Pitch_bend_c, 3, 8960
3, 305178, Pitch_bend_c, 3, 9088
3, 305232, Pitch_bend_c, 3, 9216
3, 305286, Pitch_bend_c, 3, 9344
3, 305340, Pitch_bend_c, 3, 9472
3, 305394, Pitch_bend_c, 3, 9600
3, 305400, Pitch_bend_c, 3, 9600
3, 306000, Pitch_bend_c, 3, 9600
3, 306054, Pitch_bend_c, 3, 9472
3, 306108, Pitch_bend_c, 3, 9344
3, 306162, Pitch_bend_c, 3, 9216
3, 306216, Pitch_bend_c, 3, 9088
3, 306270, Pitch_bend_c, 3, 8960
3, 306324, Pitch_bend_c, 3, 8832
3, 306378, Pitch_bend_c, 3, 8704
3, 306432, Pitch_bend_c, 3, 8576
3, 306486, Pitch_bend_c, 3, 8448
3, 306540, Pitch_bend_c, 3, 8320
3, 306594, Pitch_bend_c, 3, 8192
3, 306600, Pitch_bend_c, 3, 8192
3, 307200, Pitch_bend_c, 3, 8192
3, 307200, Pitch_bend_c, 3, 8192
3, 307200, Note_off_c, 3, 76, 95
3, 307200, Note_on_c, 2, 70, 95
3, 309760, Note_off_c, 2, 70, 95
3, 309760, Note_on_c, 2, 69, 95
3, 310400, Note_off_c, 2, 69, 95
3, 310400, Note_on_c, 2, 70, 95
3, 311040, Note_off_c, 2, 70, 95
3, 311040, Note_on_c, 2, 76, 95
3, 312480, Note_off_c, 2, 76, 95
3, 312480, Pitch_bend_c, 3, 8192
3, 312480, Note_on_c, 3, 76, 95
3, 312534, Pitch_bend_c, 3, 8320
3, 312588, Pitch_bend_c, 3, 8448
3, 312642, Pitch_bend_c, 3, 8576
3, 312696, Pitch_bend_c, 3, 8704
3, 312750, Pitch_bend_c, 3, 8832
3, 312804, Pitch_bend_c, 3, 8960
3, 312858, Pitch_bend_c, 3, 9088
3, 312912, Pitch_bend_c, 3, 9216
3, 312966, Pitch_bend_c, 3, 9344
3, 313020, Pitch_bend_c, 3, 9472
3, 313074, Pitch_bend_c, 3, 9600
3, 313080, Pitch_bend_c, 3, 9600
3, 313680, Pitch_bend_c, 3, 9600
3, 313734, Pitch_bend_c, 3, 9472
3, 313788, Pitch_bend_c, 3, 9344
3, 313842, Pitch_bend_c, 3, 9216
3, 313896, Pitch_bend_c, 3, 9088
3, 313950, Pitch_bend_c, 3, 8960
3, 314004, Pitch_bend_c, 3, 8832
3, 314058, Pitch_bend_c, 3, 8704
3, 314112, Pitch_bend_c, 3, 8576
3, 314166, Pitch_bend_c, 3, 8448
3, 314220, Pitch_bend_c, 3, 8320
3, 314274, Pitch_bend_c, 3, 8192
3, 314280, Pitch_bend_c, 3, 8192
3, 314880, Pitch_bend_c, 3, 8192
3, 314880, Pitch_bend_c, 3, 8192
3, 314880, Note_off_c, 3, 76, 95
3, 314880, Note_on_c, 2, 70, 95
3, 317440, Note_off_c, 2, 70, 95
3, 317440, Note_on_c, 2, 69, 95
3, 318080, Note_off_c, 2, 69, 95
3, 318080, Note_on_c, 2, 70, 95
3, 318720, Note_off_c, 2, 70, 95
3, 318720, End_track
4, 0, Start_track
4, 0, Pitch_bend_c, 4, 8192
4, 0, Control_c, 4, 7, 103
4, 0, Control_c, 4, 10, 63
4, 0, Control_c, 4, 93, 0
4, 0, Control_c, 4, 91, 0
4, 0, Control_c, 4, 95, 0
4, 0, Control_c, 4, 92, 0
4, 0, Control_c, 4, 11, 127
4, 0, Program_c, 4, 33
4, 0, Control_c, 5, 7, 103
4, 0, Control_c, 5, 10, 63
4, 0, Control_c, 5, 93, 0
4, 0, Control_c, 5, 91, 0
4, 0, Control_c, 5, 95, 0
4, 0, Control_c, 5, 92, 0
4, 0, Control_c, 5, 11, 127
4, 0, Program_c, 5, 33
4, 0, Note_on_c, 4, 40, 95
4, 480, Note_off_c, 4, 40, 95
4, 1440, Note_on_c, 5, 35, 95
4, 1560, Pitch_bend_c, 5, 8448
4, 1680, Pitch_bend_c, 5, 8832
4, 1800, Pitch_bend_c, 5, 9216
4, 1920, Pitch_bend_c, 5, 9600
4, 1920, Pitch_bend_c, 5, 8192
4, 1920, Note_off_c, 5, 35, 95
4, 1920, Note_on_c, 4, 37, 95
4, 2880, Note_off_c, 4, 37, 95
4, 2880, Note_on_c, 4, 40, 95
4, 3360, Note_off_c, 4, 40, 95
4, 3840, Note_on_c, 4, 36, 95
4, 4320, Note_off_c, 4, 36, 95
4, 5280, Note_on_c, 5, 31, 95
4, 5400, Pitch_bend_c, 5, 8320
4, 5520, Pitch_bend_c, 5, 8448
4, 5640, Pitch_bend_c, 5, 8704
4, 5760, Pitch_bend_c, 5, 8832
4, 5760, Pitch_bend_c, 5, 8192
4, 5760, Note_off_c, 5, 31, 95
4, 5760, Note_on_c, 4, 32, 95
4, 6720, Note_off_c, 4, 32, 95
4, 6720, Note_on_c, 4, 36, 95
4, 7200, Note_off_c, 4, 36, 95
4, 7680, Note_on_c, 4, 40, 95
4, 8160, Note_off_c, 4, 40, 95
4, 9120, Note_on_c, 5, 35, 95
4, 9240, Pitch_bend_c, 5, 8448
4, 9360, Pitch_bend_c, 5, 8832
4, 9480, Pitch_bend_c, 5, 9216
4, 9600, Pitch_bend_c, 5, 9600
4, 9600, Pitch_bend_c, 5, 8192
4, 9600, Note_off_c, 5, 35, 95
4, 9600, Note_on_c, 4, 37, 95
4, 10560, Note_off_c, 4, 37, 95
4, 10560, Note_on_c, 4, 40, 95
4, 11040, Note_off_c, 4, 40, 95
4, 11520, Note_on_c, 4, 36, 95
4, 12000, Note_off_c, 4, 36, 95
4, 12960, Note_on_c, 5, 31, 95
4, 13080, Pitch_bend_c, 5, 8320
4, 13200, Pitch_bend_c, 5, 8448
4, 13320, Pitch_bend_c, 5, 8704
4, 13440, Pitch_bend_c, 5, 8832
4, 13440, Pitch_bend_c, 5, 8192
4, 13440, Note_off_c, 5, 31, 95
4, 13440, Note_on_c, 4, 32, 95
4, 14400, Note_off_c, 4, 32, 95
4, 14400, Note_on_c, 4, 36, 95
4, 14880, Note_off_c, 4, 36, 95
4, 15360, Note_on_c, 4, 40, 95
4, 15840, Note_off_c, 4, 40, 95
4, 16800, Note_on_c, 5, 35, 95
4, 16920, Pitch_bend_c, 5, 8448
4, 17040, Pitch_bend_c, 5, 8832
4, 17160, Pitch_bend_c, 5, 9216
4, 17280, Pitch_bend_c, 5, 9600
4, 17280, Pitch_bend_c, 5, 8192
4, 17280, Note_off_c, 5, 35, 95
4, 17280, Note_on_c, 4, 37, 95
4, 18240, Note_off_c, 4, 37, 95
4, 18240, Note_on_c, 4, 40, 95
4, 18720, Note_off_c, 4, 40, 95
4, 19200, Note_on_c, 4, 36, 95
4, 19680, Note_off_c, 4, 36, 95
4, 20640, Note_on_c, 5, 31, 95
4, 20760, Pitch_bend_c, 5, 8320
4, 20880, Pitch_bend_c, 5, 8448
4, 21000, Pitch_bend_c, 5, 8704
4, 21120, Pitch_bend_c, 5, 8832
4, 21120, Pitch_bend_c, 5, 8192
4, 21120, Note_off_c, 5, 31, 95
4, 21120, Note_on_c, 4, 32, 95
4, 22080, Note_off_c, 4, 32, 95
4, 22080, Note_on_c, 4, 36, 95
4, 22560, Note_off_c, 4, 36, 95
4, 23040, Note_on_c, 4, 40, 95
4, 23520, Note_off_c, 4, 40, 95
4, 24480, Note_on_c, 5, 35, 95
4, 24600, Pitch_bend_c, 5, 8448
4, 24720, Pitch_bend_c, 5, 8832
4, 24840, Pitch_bend_c, 5, 9216
4, 24960, Pitch_bend_c, 5, 9600
4, 24960, Pitch_bend_c, 5, 8192
4, 24960, Note_off_c, 5, 35, 95
4, 24960, Note_on_c, 4, 37, 95
4, 25920, Note_off_c, 4, 37, 95
4, 25920, Note_on_c, 4, 40, 95
4, 26400, Note_off_c, 4, 40, 95
4, 26880, Note_on_c, 4, 36, 95
4, 27360, Note_off_c, 4, 36, 95
4, 28320, Note_on_c, 5, 31, 95
4, 28440, Pitch_bend_c, 5, 8320
4, 28560, Pitch_bend_c, 5, 8448
4, 28680, Pitch_bend_c, 5, 8704
4, 28800, Pitch_bend_c, 5, 8832
4, 28800, Pitch_bend_c, 5, 8192
4, 28800, Note_off_c, 5, 31, 95
4, 28800, Note_on_c, 4, 32, 95
4, 29760, Note_off_c, 4, 32, 95
4, 29760, Note_on_c, 4, 36, 95
4, 30240, Note_off_c, 4, 36, 95
4, 30720, Note_on_c, 4, 44, 95
4, 31200, Note_off_c, 4, 44, 95
4, 32160, Note_on_c, 5, 39, 95
4, 32280, Pitch_bend_c, 5, 8448
4, 32400, Pitch_bend_c, 5, 8832
4, 32520, Pitch_bend_c, 5, 9216
4, 32640, Pitch_bend_c, 5, 9600
4, 32640, Pitch_bend_c, 5, 8192
4, 32640, Note_off_c, 5, 39, 95
4, 32640, Note_on_c, 4, 41, 95
4, 33600, Note_off_c, 4, 41, 95
4, 33600, Note_on_c, 4, 44, 95
4, 34080, Note_off_c, 4, 44, 95
4, 34560, Note_on_c, 4, 41, 95
4, 35040, Note_off_c, 4, 41, 95
4, 36000, Note_on_c, 5, 34, 95
4, 36120, Pitch_bend_c, 5, 8448
4, 36240, Pitch_bend_c, 5, 8832
4, 36360, Pitch_bend_c, 5, 9216
4, 36480, Pitch_bend_c, 5, 9600
4, 36480, Pitch_bend_c, 5, 8192
4, 36480, Note_off_c, 5, 34, 95
4, 36480, Note_on_c, 4, 36, 95
4, 37440, Note_off_c, 4, 36, 95
4, 37440, Note_on_c, 4, 41, 95
4, 37920, Note_off_c, 4, 41, 95
4, 38400, Note_on_c, 4, 44, 95
4, 38880, Note_off_c, 4, 44, 95
4, 39840, Note_on_c, 5, 39, 95
4, 39960, Pitch_bend_c, 5, 8448
4, 40080, Pitch_bend_c, 5, 8832
4, 40200, Pitch_bend_c, 5, 9216
4, 40320, Pitch_bend_c, 5, 9600
4, 40320, Pitch_bend_c, 5, 8192
4, 40320, Note_off_c, 5, 39, 95
4, 40320, Note_on_c, 4, 41, 95
4, 41280, Note_off_c, 4, 41, 95
4, 41280, Note_on_c, 4, 44, 95
4, 41760, Note_off_c, 4, 44, 95
4, 42240, Note_on_c, 4, 41, 95
4, 42720, Note_off_c, 4, 41, 95
4, 43680, Note_on_c, 5, 34, 95
4, 43800, Pitch_bend_c, 5, 8448
4, 43920, Pitch_bend_c, 5, 8832
4, 44040, Pitch_bend_c, 5, 9216
4, 44160, Pitch_bend_c, 5, 9600
4, 44160, Pitch_bend_c, 5, 8192
4, 44160, Note_off_c, 5, 34, 95
4, 44160, Note_on_c, 4, 36, 95
4, 45120, Note_off_c, 4, 36, 95
4, 45120, Note_on_c, 4, 41, 95
4, 45600, Note_off_c, 4, 41, 95
4, 46080, Note_on_c, 4, 38, 95
4, 46560, Note_off_c, 4, 38, 95
4, 47520, Note_on_c, 4, 33, 95
4, 48000, Note_off_c, 4, 33, 95
4, 48000, Note_on_c, 4, 38, 95
4, 48960, Note_off_c, 4, 38, 95
4, 48960, Note_on_c, 4, 39, 95
4, 49920, Note_off_c, 4, 39, 95
4, 49920, Note_on_c, 4, 40, 95
4, 50400, Note_off_c, 4, 40, 95
4, 51360, Note_on_c, 4, 35, 95
4, 51840, Note_off_c, 4, 35, 95
4, 51840, Note_on_c, 4, 40, 95
4, 52800, Note_off_c, 4, 40, 95
4, 52800, Note_on_c, 4, 41, 95
4, 53760, Note_off_c, 4, 41, 95
4, 53760, Note_on_c, 4, 44, 95
4, 54240, Note_off_c, 4, 44, 95
4, 55200, Note_on_c, 5, 39, 95
4, 55320, Pitch_bend_c, 5, 8448
4, 55440, Pitch_bend_c, 5, 8832
4, 55560, Pitch_bend_c, 5, 9216
4, 55680, Pitch_bend_c, 5, 9600
4, 55680, Pitch_bend_c, 5, 8192
4, 55680, Note_off_c, 5, 39, 95
4, 55680, Note_on_c, 4, 41, 95
4, 56640, Note_off_c, 4, 41, 95
4, 56640, Note_on_c, 4, 44, 95
4, 57120, Note_off_c, 4, 44, 95
4, 57600, Note_on_c, 4, 41, 95
4, 58080, Note_off_c, 4, 41, 95
4, 59040, Note_on_c, 5, 34, 95
4, 59160, Pitch_bend_c, 5, 8448
4, 59280, Pitch_bend_c, 5, 8832
4, 59400, Pitch_bend_c, 5, 9216
4, 59520, Pitch_bend_c, 5, 9600
4, 59520, Pitch_bend_c, 5, 8192
4, 59520, Note_off_c, 5, 34, 95
4, 59520, Note_on_c, 4, 36, 95
4, 60480, Note_off_c, 4, 36, 95
4, 60480, Note_on_c, 4, 41, 95
4, 60960, Note_off_c, 4, 41, 95
4, 61440, Note_on_c, 4, 44, 95
4, 61920, Note_off_c, 4, 44, 95
4, 62880, Note_on_c, 5, 39, 95
4, 63000, Pitch_bend_c, 5, 8448
4, 63120, Pitch_bend_c, 5, 8832
4, 63240, Pitch_bend_c, 5, 9216
4, 63360, Pitch_bend_c, 5, 9600
4, 63360, Pitch_bend_c, 5, 8192
4, 63360, Note_off_c, 5, 39, 95
4, 63360, Note_on_c, 4, 41, 95
4, 64320, Note_off_c, 4, 41, 95
4, 64320, Note_on_c, 4, 44, 95
4, 64800, Note_off_c, 4, 44, 95
4, 65280, Note_on_c, 4, 41, 95
4, 65760, Note_off_c, 4, 41, 95
4, 66720, Note_on_c, 5, 34, 95
4, 66840, Pitch_bend_c, 5, 8448
4, 66960, Pitch_bend_c, 5, 8832
4, 67080, Pitch_bend_c, 5, 9216
4, 67200, Pitch_bend_c, 5, 9600
4, 67200, Pitch_bend_c, 5, 8192
4, 67200, Note_off_c, 5, 34, 95
4, 67200, Note_on_c, 4, 36, 95
4, 68160, Note_off_c, 4, 36, 95
4, 68160, Note_on_c, 4, 41, 95
4, 68640, Note_off_c, 4, 41, 95
4, 69120, Note_on_c, 4, 36, 95
4, 70560, Note_off_c, 4, 36, 95
4, 70560, Note_on_c, 4, 36, 95
4, 71040, Note_off_c, 4, 36, 95
4, 71040, Note_on_c, 5, 52, 95
4, 71160, Pitch_bend_c, 5, 8192
4, 71280, Pitch_bend_c, 5, 8192
4, 71400, Pitch_bend_c, 5, 8192
4, 71520, Pitch_bend_c, 5, 8192
4, 71520, Pitch_bend_c, 5, 8192
4, 71520, Note_off_c, 5, 52, 95
4, 71520, Note_on_c, 4, 52, 95
4, 72000, Note_off_c, 4, 52, 95
4, 72000, Note_on_c, 4, 52, 95
4, 72960, Note_off_c, 4, 52, 95
4, 72960, Note_on_c, 4, 36, 95
4, 74880, Note_off_c, 4, 36, 95
4, 74880, Note_on_c, 4, 31, 95
4, 75360, Note_off_c, 4, 31, 95
4, 75360, Note_on_c, 4, 33, 95
4, 75840, Note_off_c, 4, 33, 95
4, 75840, Note_on_c, 4, 31, 95
4, 76320, Note_off_c, 4, 31, 95
4, 76800, Note_on_c, 4, 41, 95
4, 78720, Note_off_c, 4, 41, 95
4, 78720, Note_on_c, 4, 36, 95
4, 79200, Note_off_c, 4, 36, 95
4, 79200, Note_on_c, 4, 38, 95
4, 79680, Note_off_c, 4, 38, 95
4, 80640, Note_on_c, 4, 41, 95
4, 82560, Note_off_c, 4, 41, 95
4, 82560, Note_on_c, 4, 40, 95
4, 83040, Note_off_c, 4, 40, 95
4, 83520, Note_on_c, 4, 38, 95
4, 84480, Note_off_c, 4, 38, 95
4, 84480, Note_on_c, 4, 36, 95
4, 86400, Note_off_c, 4, 36, 95
4, 86400, Note_on_c, 4, 31, 95
4, 86640, Note_off_c, 4, 31, 95
4, 86880, Note_on_c, 4, 33, 95
4, 87120, Note_off_c, 4, 33, 95
4, 87360, Note_on_c, 4, 33, 95
4, 87840, Note_off_c, 4, 33, 95
4, 88320, Note_on_c, 4, 41, 95
4, 90240, Note_off_c, 4, 41, 95
4, 90240, Note_on_c, 4, 43, 95
4, 90480, Note_off_c, 4, 43, 95
4, 90720, Note_on_c, 4, 45, 95
4, 90960, Note_off_c, 4, 45, 95
4, 91200, Note_on_c, 4, 48, 95
4, 91680, Note_off_c, 4, 48, 95
4, 91680, Note_on_c, 4, 49, 95
4, 92160, Note_off_c, 4, 49, 95
4, 92160, Note_on_c, 4, 50, 95
4, 94080, Note_off_c, 4, 50, 95
4, 94080, Note_on_c, 4, 45, 95
4, 95040, Note_off_c, 4, 45, 95
4, 95040, Note_on_c, 4, 50, 95
4, 96000, Note_off_c, 4, 50, 95
4, 96000, Note_on_c, 4, 33, 95
4, 97920, Note_off_c, 4, 33, 95
4, 97920, Note_on_c, 4, 43, 95
4, 98160, Note_off_c, 4, 43, 95
4, 98400, Note_on_c, 4, 45, 95
4, 98640, Note_off_c, 4, 45, 95
4, 98880, Note_on_c, 4, 48, 95
4, 99360, Note_off_c, 4, 48, 95
4, 99360, Note_on_c, 4, 49, 95
4, 99840, Note_off_c, 4, 49, 95
4, 99840, Note_on_c, 4, 50, 95
4, 101760, Note_off_c, 4, 50, 95
4, 101760, Note_on_c, 4, 45, 95
4, 102720, Note_off_c, 4, 45, 95
4, 102720, Note_on_c, 4, 50, 95
4, 103680, Note_off_c, 4, 50, 95
4, 103680, Note_on_c, 4, 33, 95
4, 105600, Note_off_c, 4, 33, 95
4, 105600, Note_on_c, 4, 43, 95
4, 105840, Note_off_c, 4, 43, 95
4, 106080, Note_on_c, 4, 45, 95
4, 106320, Note_off_c, 4, 45, 95
4, 106560, Note_on_c, 4, 48, 95
4, 107040, Note_off_c, 4, 48, 95
4, 107040, Note_on_c, 4, 49, 95
4, 107520, Note_off_c, 4, 49, 95
4, 107520, Note_on_c, 4, 50, 95
4, 109440, Note_off_c, 4, 50, 95
4, 109440, Note_on_c, 4, 48, 95
4, 110400, Note_off_c, 4, 48, 95
4, 110400, Note_on_c, 4, 45, 95
4, 111360, Note_off_c, 4, 45, 95
4, 111360, Note_on_c, 4, 33, 95
4, 111600, Note_off_c, 4, 33, 95
4, 111840, Note_on_c, 4, 33, 95
4, 112320, Note_off_c, 4, 33, 95
4, 112320, Note_on_c, 4, 35, 95
4, 112560, Note_off_c, 4, 35, 95
4, 112800, Note_on_c, 4, 35, 95
4, 113280, Note_off_c, 4, 35, 95
4, 113760, Note_on_c, 4, 36, 95
4, 114240, Note_off_c, 4, 36, 95
4, 114720, Note_on_c, 4, 38, 95
4, 115200, Note_off_c, 4, 38, 95
4, 115200, Note_on_c, 4, 48, 95
4, 117120, Note_off_c, 4, 48, 95
4, 117120, Note_on_c, 4, 36, 95
4, 118080, Note_off_c, 4, 36, 95
4, 118080, Note_on_c, 4, 43, 95
4, 118320, Note_off_c, 4, 43, 95
4, 118560, Note_on_c, 4, 45, 95
4, 118800, Note_off_c, 4, 45, 95
4, 119040, Note_on_c, 4, 50, 95
4, 120960, Note_off_c, 4, 50, 95
4, 120960, Note_on_c, 4, 52, 95
4, 121920, Note_off_c, 4, 52, 95
4, 121920, Note_on_c, 4, 50, 95
4, 122880, Note_off_c, 4, 50, 95
4, 122880, Note_on_c, 4, 48, 95
4, 124800, Note_off_c, 4, 48, 95
4, 124800, Note_on_c, 4, 36, 95
4, 125760, Note_off_c, 4, 36, 95
4, 125760, Note_on_c, 4, 43, 95
4, 126000, Note_off_c, 4, 43, 95
4, 126240, Note_on_c, 4, 45, 95
4, 126480, Note_off_c, 4, 45, 95
4, 126720, Note_on_c, 4, 50, 95
4, 128640, Note_off_c, 4, 50, 95
4, 128640, Note_on_c, 4, 40, 95
4, 129120, Note_off_c, 4, 40, 95
4, 130080, Note_on_c, 5, 35, 95
4, 130200, Pitch_bend_c, 5, 8448
4, 130320, Pitch_bend_c, 5, 8832
4, 130440, Pitch_bend_c, 5, 9216
4, 130560, Pitch_bend_c, 5, 9600
4, 130560, Pitch_bend_c, 5, 8192
4, 130560, Note_off_c, 5, 35, 95
4, 130560, Note_on_c, 4, 37, 95
4, 131520, Note_off_c, 4, 37, 95
4, 131520, Note_on_c, 4, 40, 95
4, 132000, Note_off_c, 4, 40, 95
4, 132480, Note_on_c, 4, 36, 95
4, 132960, Note_off_c, 4, 36, 95
4, 133920, Note_on_c, 5, 31, 95
4, 134040, Pitch_bend_c, 5, 8320
4, 134160, Pitch_bend_c, 5, 8448
4, 134280, Pitch_bend_c, 5, 8704
4, 134400, Pitch_bend_c, 5, 8832
4, 134400, Pitch_bend_c, 5, 8192
4, 134400, Note_off_c, 5, 31, 95
4, 134400, Note_on_c, 4, 32, 95
4, 135360, Note_off_c, 4, 32, 95
4, 135360, Note_on_c, 4, 36, 95
4, 135840, Note_off_c, 4, 36, 95
4, 136320, Note_on_c, 4, 40, 95
4, 136800, Note_off_c, 4, 40, 95
4, 137760, Note_on_c, 5, 35, 95
4, 137880, Pitch_bend_c, 5, 8448
4, 138000, Pitch_bend_c, 5, 8832
4, 138120, Pitch_bend_c, 5, 9216
4, 138240, Pitch_bend_c, 5, 9600
4, 138240, Pitch_bend_c, 5, 8192
4, 138240, Note_off_c, 5, 35, 95
4, 138240, Note_on_c, 4, 37, 95
4, 139200, Note_off_c, 4, 37, 95
4, 139200, Note_on_c, 4, 40, 95
4, 139680, Note_off_c, 4, 40, 95
4, 140160, Note_on_c, 4, 36, 95
4, 140640, Note_off_c, 4, 36, 95
4, 141600, Note_on_c, 5, 31, 95
4, 141720, Pitch_bend_c, 5, 8320
4, 141840, Pitch_bend_c, 5, 8448
4, 141960, Pitch_bend_c, 5, 8704
4, 142080, Pitch_bend_c, 5, 8832
4, 142080, Pitch_bend_c, 5, 8192
4, 142080, Note_off_c, 5, 31, 95
4, 142080, Note_on_c, 4, 32, 95
4, 143040, Note_off_c, 4, 32, 95
4, 143040, Note_on_c, 4, 36, 95
4, 143520, Note_off_c, 4, 36, 95
4, 144000, Note_on_c, 4, 40, 95
4, 144480, Note_off_c, 4, 40, 95
4, 145440, Note_on_c, 5, 35, 95
4, 145560, Pitch_bend_c, 5, 8448
4, 145680, Pitch_bend_c, 5, 8832
4, 145800, Pitch_bend_c, 5, 9216
4, 145920, Pitch_bend_c, 5, 9600
4, 145920, Pitch_bend_c, 5, 8192
4, 145920, Note_off_c, 5, 35, 95
4, 145920, Note_on_c, 4, 37, 95
4, 146880, Note_off_c, 4, 37, 95
4, 146880, Note_on_c, 4, 40, 95
4, 147360, Note_off_c, 4, 40, 95
4, 147840, Note_on_c, 4, 36, 95
4, 148320, Note_off_c, 4, 36, 95
4, 149280, Note_on_c, 5, 31, 95
4, 149400, Pitch_bend_c, 5, 8320
4, 149520, Pitch_bend_c, 5, 8448
4, 149640, Pitch_bend_c, 5, 8704
4, 149760, Pitch_bend_c, 5, 8832
4, 149760, Pitch_bend_c, 5, 8192
4, 149760, Note_off_c, 5, 31, 95
4, 149760, Note_on_c, 4, 32, 95
4, 150720, Note_off_c, 4, 32, 95
4, 150720, Note_on_c, 4, 36, 95
4, 151200, Note_off_c, 4, 36, 95
4, 151680, Note_on_c, 4, 40, 95
4, 152160, Note_off_c, 4, 40, 95
4, 153120, Note_on_c, 5, 35, 95
4, 153240, Pitch_bend_c, 5, 8448
4, 153360, Pitch_bend_c, 5, 8832
4, 153480, Pitch_bend_c, 5, 9216
4, 153600, Pitch_bend_c, 5, 9600
4, 153600, Pitch_bend_c, 5, 8192
4, 153600, Note_off_c, 5, 35, 95
4, 153600, Note_on_c, 4, 37, 95
4, 154560, Note_off_c, 4, 37, 95
4, 154560, Note_on_c, 4, 40, 95
4, 155040, Note_off_c, 4, 40, 95
4, 155520, Note_on_c, 4, 36, 95
4, 156000, Note_off_c, 4, 36, 95
4, 156960, Note_on_c, 5, 31, 95
4, 157080, Pitch_bend_c, 5, 8320
4, 157200, Pitch_bend_c, 5, 8448
4, 157320, Pitch_bend_c, 5, 8704
4, 157440, Pitch_bend_c, 5, 8832
4, 157440, Pitch_bend_c, 5, 8192
4, 157440, Note_off_c, 5, 31, 95
4, 157440, Note_on_c, 4, 32, 95
4, 158400, Note_off_c, 4, 32, 95
4, 158400, Note_on_c, 4, 36, 95
4, 158880, Note_off_c, 4, 36, 95
4, 159360, Note_on_c, 4, 44, 95
4, 159840, Note_off_c, 4, 44, 95
4, 160800, Note_on_c, 5, 39, 95
4, 160920, Pitch_bend_c, 5, 8448
4, 161040, Pitch_bend_c, 5, 8832
4, 161160, Pitch_bend_c, 5, 9216
4, 161280, Pitch_bend_c, 5, 9600
4, 161280, Pitch_bend_c, 5, 8192
4, 161280, Note_off_c, 5, 39, 95
4, 161280, Note_on_c, 4, 41, 95
4, 162240, Note_off_c, 4, 41, 95
4, 162240, Note_on_c, 4, 44, 95
4, 162720, Note_off_c, 4, 44, 95
4, 163200, Note_on_c, 4, 41, 95
4, 163680, Note_off_c, 4, 41, 95
4, 164640, Note_on_c, 5, 34, 95
4, 164760, Pitch_bend_c, 5, 8448
4, 164880, Pitch_bend_c, 5, 8832
4, 165000, Pitch_bend_c, 5, 9216
4, 165120, Pitch_bend_c, 5, 9600
4, 165120, Pitch_bend_c, 5, 8192
4, 165120, Note_off_c, 5, 34, 95
4, 165120, Note_on_c, 4, 36, 95
4, 166080, Note_off_c, 4, 36, 95
4, 166080, Note_on_c, 4, 41, 95
4, 166560, Note_off_c, 4, 41, 95
4, 167040, Note_on_c, 4, 44, 95
4, 167520, Note_off_c, 4, 44, 95
4, 168480, Note_on_c, 5, 39, 95
4, 168600, Pitch_bend_c, 5, 8448
4, 168720, Pitch_bend_c, 5, 8832
4, 168840, Pitch_bend_c, 5, 9216
4, 168960, Pitch_bend_c, 5, 9600
4, 168960, Pitch_bend_c, 5, 8192
4, 168960, Note_off_c, 5, 39, 95
4, 168960, Note_on_c, 4, 41, 95
4, 169920, Note_off_c, 4, 41, 95
4, 169920, Note_on_c, 4, 44, 95
4, 170400, Note_off_c, 4, 44, 95
4, 170880, Note_on_c, 4, 41, 95
4, 171360, Note_off_c, 4, 41, 95
4, 172320, Note_on_c, 5, 34, 95
4, 172440, Pitch_bend_c, 5, 8448
4, 172560, Pitch_bend_c, 5, 8832
4, 172680, Pitch_bend_c, 5, 9216
4, 172800, Pitch_bend_c, 5, 9600
4, 172800, Pitch_bend_c, 5, 8192
4, 172800, Note_off_c, 5, 34, 95
4, 172800, Note_on_c, 4, 36, 95
4, 173760, Note_off_c, 4, 36, 95
4, 173760, Note_on_c, 4, 41, 95
4, 174240, Note_off_c, 4, 41, 95
4, 174720, Note_on_c, 4, 38, 95
4, 175200, Note_off_c, 4, 38, 95
4, 176160, Note_on_c, 4, 33, 95
4, 176640, Note_off_c, 4, 33, 95
4, 176640, Note_on_c, 4, 38, 95
4, 177600, Note_off_c, 4, 38, 95
4, 177600, Note_on_c, 4, 39, 95
4, 178560, Note_off_c, 4, 39, 95
4, 178560, Note_on_c, 4, 40, 95
4, 179040, Note_off_c, 4, 40, 95
4, 180000, Note_on_c, 4, 35, 95
4, 180480, Note_off_c, 4, 35, 95
4, 180480, Note_on_c, 4, 40, 95
4, 181440, Note_off_c, 4, 40, 95
4, 181440, Note_on_c, 4, 41, 95
4, 182400, Note_off_c, 4, 41, 95
4, 182400, Note_on_c, 4, 44, 95
4, 182880, Note_off_c, 4, 44, 95
4, 183840, Note_on_c, 5, 39, 95
4, 183960, Pitch_bend_c, 5, 8448
4, 184080, Pitch_bend_c, 5, 8832
4, 184200, Pitch_bend_c, 5, 9216
4, 184320, Pitch_bend_c, 5, 9600
4, 184320, Pitch_bend_c, 5, 8192
4, 184320, Note_off_c, 5, 39, 95
4, 184320, Note_on_c, 4, 41, 95
4, 185280, Note_off_c, 4, 41, 95
4, 185280, Note_on_c, 4, 44, 95
4, 185760, Note_off_c, 4, 44, 95
4, 186240, Note_on_c, 4, 41, 95
4, 186720, Note_off_c, 4, 41, 95
4, 187680, Note_on_c, 5, 34, 95
4, 187800, Pitch_bend_c, 5, 8448
4, 187920, Pitch_bend_c, 5, 8832
4, 188040, Pitch_bend_c, 5, 9216
4, 188160, Pitch_bend_c, 5, 9600
4, 188160, Pitch_bend_c, 5, 8192
4, 188160, Note_off_c, 5, 34, 95
4, 188160, Note_on_c, 4, 36, 95
4, 189120, Note_off_c, 4, 36, 95
4, 189120, Note_on_c, 4, 41, 95
4, 189600, Note_off_c, 4, 41, 95
4, 190080, Note_on_c, 4, 44, 95
4, 190560, Note_off_c, 4, 44, 95
4, 191520, Note_on_c, 5, 39, 95
4, 191640, Pitch_bend_c, 5, 8448
4, 191760, Pitch_bend_c, 5, 8832
4, 191880, Pitch_bend_c, 5, 9216
4, 192000, Pitch_bend_c, 5, 9600
4, 192000, Pitch_bend_c, 5, 8192
4, 192000, Note_off_c, 5, 39, 95
4, 192000, Note_on_c, 4, 41, 95
4, 192960, Note_off_c, 4, 41, 95
4, 192960, Note_on_c, 4, 44, 95
4, 193440, Note_off_c, 4, 44, 95
4, 193920, Note_on_c, 4, 41, 95
4, 194400, Note_off_c, 4, 41, 95
4, 195360, Note_on_c, 5, 34, 95
4, 195480, Pitch_bend_c, 5, 8448
4, 195600, Pitch_bend_c, 5, 8832
4, 195720, Pitch_bend_c, 5, 9216
4, 195840, Pitch_bend_c, 5, 9600
4, 195840, Pitch_bend_c, 5, 8192
4, 195840, Note_off_c, 5, 34, 95
4, 195840, Note_on_c, 4, 36, 95
4, 196800, Note_off_c, 4, 36, 95
4, 196800, Note_on_c, 4, 41, 95
4, 197280, Note_off_c, 4, 41, 95
4, 197760, Note_on_c, 4, 36, 95
4, 199200, Note_off_c, 4, 36, 95
4, 199200, Note_on_c, 4, 36, 95
4, 199680, Note_off_c, 4, 36, 95
4, 199680, Note_on_c, 5, 52, 95
4, 199800, Pitch_bend_c, 5, 8192
4, 199920, Pitch_bend_c, 5, 8192
4, 200040, Pitch_bend_c, 5, 8192
4, 200160, Pitch_bend_c, 5, 8192
4, 200160, Pitch_bend_c, 5, 8192
4, 200160, Note_off_c, 5, 52, 95
4, 200160, Note_on_c, 4, 52, 95
4, 200640, Note_off_c, 4, 52, 95
4, 200640, Note_on_c, 4, 52, 95
4, 201600, Note_off_c, 4, 52, 95
4, 201600, Note_on_c, 4, 36, 95
4, 203520, Note_off_c, 4, 36, 95
4, 203520, Note_on_c, 4, 31, 95
4, 204000, Note_off_c, 4, 31, 95
4, 204000, Note_on_c, 4, 33, 95
4, 204480, Note_off_c, 4, 33, 95
4, 204480, Note_on_c, 4, 31, 95
4, 204960, Note_off_c, 4, 31, 95
4, 205440, Note_on_c, 4, 41, 95
4, 207360, Note_off_c, 4, 41, 95
4, 207360, Note_on_c, 4, 36, 95
4, 207840, Note_off_c, 4, 36, 95
4, 207840, Note_on_c, 4, 38, 95
4, 208320, Note_off_c, 4, 38, 95
4, 209280, Note_on_c, 4, 41, 95
4, 211200, Note_off_c, 4, 41, 95
4, 211200, Note_on_c, 4, 40, 95
4, 211680, Note_off_c, 4, 40, 95
4, 212160, Note_on_c, 4, 38, 95
4, 213120, Note_off_c, 4, 38, 95
4, 213120, Note_on_c, 4, 36, 95
4, 215040, Note_off_c, 4, 36, 95
4, 215040, Note_on_c, 4, 31, 95
4, 215280, Note_off_c, 4, 31, 95
4, 215520, Note_on_c, 4, 33, 95
4, 215760, Note_off_c, 4, 33, 95
4, 216000, Note_on_c, 4, 33, 95
4, 216480, Note_off_c, 4, 33, 95
4, 216960, Note_on_c, 4, 41, 95
4, 218880, Note_off_c, 4, 41, 95
4, 218880, Note_on_c, 4, 43, 95
4, 219120, Note_off_c, 4, 43, 95
4, 219360, Note_on_c, 4, 45, 95
4, 219600, Note_off_c, 4, 45, 95
4, 219840, Note_on_c, 4, 48, 95
4, 220320, Note_off_c, 4, 48, 95
4, 220320, Note_on_c, 4, 49, 95
4, 220800, Note_off_c, 4, 49, 95
4, 220800, Note_on_c, 4, 50, 95
4, 222720, Note_off_c, 4, 50, 95
4, 222720, Note_on_c, 4, 45, 95
4, 223680, Note_off_c, 4, 45, 95
4, 223680, Note_on_c, 4, 50, 95
4, 224640, Note_off_c, 4, 50, 95
4, 224640, Note_on_c, 4, 33, 95
4, 226560, Note_off_c, 4, 33, 95
4, 226560, Note_on_c, 4, 43, 95
4, 226800, Note_off_c, 4, 43, 95
4, 227040, Note_on_c, 4, 45, 95
4, 227280, Note_off_c, 4, 45, 95
4, 227520, Note_on_c, 4, 48, 95
4, 228000, Note_off_c, 4, 48, 95
4, 228000, Note_on_c, 4, 49, 95
4, 228480, Note_off_c, 4, 49, 95
4, 228480, Note_on_c, 4, 50, 95
4, 230400, Note_off_c, 4, 50, 95
4, 230400, Note_on_c, 4, 45, 95
4, 231360, Note_off_c, 4, 45, 95
4, 231360, Note_on_c, 4, 50, 95
4, 232320, Note_off_c, 4, 50, 95
4, 232320, Note_on_c, 4, 33, 95
4, 234240, Note_off_c, 4, 33, 95
4, 234240, Note_on_c, 4, 43, 95
4, 234480, Note_off_c, 4, 43, 95
4, 234720, Note_on_c, 4, 45, 95
4, 234960, Note_off_c, 4, 45, 95
4, 235200, Note_on_c, 4, 48, 95
4, 235680, Note_off_c, 4, 48, 95
4, 235680, Note_on_c, 4, 49, 95
4, 236160, Note_off_c, 4, 49, 95
4, 236160, Note_on_c, 4, 50, 95
4, 238080, Note_off_c, 4, 50, 95
4, 238080, Note_on_c, 4, 48, 95
4, 239040, Note_off_c, 4, 48, 95
4, 239040, Note_on_c, 4, 45, 95
4, 240000, Note_off_c, 4, 45, 95
4, 240000, Note_on_c, 4, 33, 95
4, 240240, Note_off_c, 4, 33, 95
4, 240480, Note_on_c, 4, 33, 95
4, 240960, Note_off_c, 4, 33, 95
4, 240960, Note_on_c, 4, 35, 95
4, 241200, Note_off_c, 4, 35, 95
4, 241440, Note_on_c, 4, 35, 95
4, 241920, Note_off_c, 4, 35, 95
4, 242400, Note_on_c, 4, 36, 95
4, 242880, Note_off_c, 4, 36, 95
4, 243360, Note_on_c, 4, 38, 95
4, 243840, Note_off_c, 4, 38, 95
4, 243840, Note_on_c, 4, 48, 95
4, 245760, Note_off_c, 4, 48, 95
4, 245760, Note_on_c, 4, 36, 95
4, 246720, Note_off_c, 4, 36, 95
4, 246720, Note_on_c, 4, 43, 95
4, 246960, Note_off_c, 4, 43, 95
4, 247200, Note_on_c, 4, 45, 95
4, 247440, Note_off_c, 4, 45, 95
4, 247680, Note_on_c, 4, 50, 95
4, 249600, Note_off_c, 4, 50, 95
4, 249600, Note_on_c, 4, 52, 95
4, 250560, Note_off_c, 4, 52, 95
4, 250560, Note_on_c, 4, 50, 95
4, 251520, Note_off_c, 4, 50, 95
4, 251520, Note_on_c, 4, 48, 95
4, 253440, Note_off_c, 4, 48, 95
4, 253440, Note_on_c, 4, 36, 95
4, 254400, Note_off_c, 4, 36, 95
4, 254400, Note_on_c, 4, 43, 95
4, 254640, Note_off_c, 4, 43, 95
4, 254880, Note_on_c, 4, 45, 95
4, 255120, Note_off_c, 4, 45, 95
4, 255360, Note_on_c, 4, 50, 95
4, 257280, Note_off_c, 4, 50, 95
4, 257280, Note_on_c, 4, 40, 95
4, 257760, Note_off_c, 4, 40, 95
4, 258720, Note_on_c, 5, 35, 95
4, 258840, Pitch_bend_c, 5, 8448
4, 258960, Pitch_bend_c, 5, 8832
4, 259080, Pitch_bend_c, 5, 9216
4, 259200, Pitch_bend_c, 5, 9600
4, 259200, Pitch_bend_c, 5, 8192
4, 259200, Note_off_c, 5, 35, 95
4, 259200, Note_on_c, 4, 37, 95
4, 260160, Note_off_c, 4, 37, 95
4, 260160, Note_on_c, 4, 40, 95
4, 260640, Note_off_c, 4, 40, 95
4, 261120, Note_on_c, 4, 36, 95
4, 261600, Note_off_c, 4, 36, 95
4, 262560, Note_on_c, 5, 31, 95
4, 262680, Pitch_bend_c, 5, 8320
4, 262800, Pitch_bend_c, 5, 8448
4, 262920, Pitch_bend_c, 5, 8704
4, 263040, Pitch_bend_c, 5, 8832
4, 263040, Pitch_bend_c, 5, 8192
4, 263040, Note_off_c, 5, 31, 95
4, 263040, Note_on_c, 4, 32, 95
4, 264000, Note_off_c, 4, 32, 95
4, 264000, Note_on_c, 4, 36, 95
4, 264480, Note_off_c, 4, 36, 95
4, 264960, Note_on_c, 4, 40, 95
4, 265440, Note_off_c, 4, 40, 95
4, 266400, Note_on_c, 5, 35, 95
4, 266520, Pitch_bend_c, 5, 8448
4, 266640, Pitch_bend_c, 5, 8832
4, 266760, Pitch_bend_c, 5, 9216
4, 266880, Pitch_bend_c, 5, 9600
4, 266880, Pitch_bend_c, 5, 8192
4, 266880, Note_off_c, 5, 35, 95
4, 266880, Note_on_c, 4, 37, 95
4, 267840, Note_off_c, 4, 37, 95
4, 267840, Note_on_c, 4, 40, 95
4, 268320, Note_off_c, 4, 40, 95
4, 268800, Note_on_c, 4, 36, 95
4, 269280, Note_off_c, 4, 36, 95
4, 270240, Note_on_c, 5, 31, 95
4, 270360, Pitch_bend_c, 5, 8320
4, 270480, Pitch_bend_c, 5, 8448
4, 270600, Pitch_bend_c, 5, 8704
4, 270720, Pitch_bend_c, 5, 8832
4, 270720, Pitch_bend_c, 5, 8192
4, 270720, Note_off_c, 5, 31, 95
4, 270720, Note_on_c, 4, 32, 95
4, 271680, Note_off_c, 4, 32, 95
4, 271680, Note_on_c, 4, 36, 95
4, 272160, Note_off_c, 4, 36, 95
4, 272640, Note_on_c, 4, 40, 95
4, 273120, Note_off_c, 4, 40, 95
4, 274080, Note_on_c, 5, 35, 95
4, 274200, Pitch_bend_c, 5, 8448
4, 274320, Pitch_bend_c, 5, 8832
4, 274440, Pitch_bend_c, 5, 9216
4, 274560, Pitch_bend_c, 5, 9600
4, 274560, Pitch_bend_c, 5, 8192
4, 274560, Note_off_c, 5, 35, 95
4, 274560, Note_on_c, 4, 37, 95
4, 275520, Note_off_c, 4, 37, 95
4, 275520, Note_on_c, 4, 40, 95
4, 276000, Note_off_c, 4, 40, 95
4, 276480, Note_on_c, 4, 36, 95
4, 276960, Note_off_c, 4, 36, 95
4, 277920, Note_on_c, 5, 31, 95
4, 278040, Pitch_bend_c, 5, 8320
4, 278160, Pitch_bend_c, 5, 8448
4, 278280, Pitch_bend_c, 5, 8704
4, 278400, Pitch_bend_c, 5, 8832
4, 278400, Pitch_bend_c, 5, 8192
4, 278400, Note_off_c, 5, 31, 95
4, 278400, Note_on_c, 4, 32, 95
4, 279360, Note_off_c, 4, 32, 95
4, 279360, Note_on_c, 4, 36, 95
4, 279840, Note_off_c, 4, 36, 95
4, 280320, Note_on_c, 4, 40, 95
4, 280800, Note_off_c, 4, 40, 95
4, 281760, Note_on_c, 5, 35, 95
4, 281880, Pitch_bend_c, 5, 8448
4, 282000, Pitch_bend_c, 5, 8832
4, 282120, Pitch_bend_c, 5, 9216
4, 282240, Pitch_bend_c, 5, 9600
4, 282240, Pitch_bend_c, 5, 8192
4, 282240, Note_off_c, 5, 35, 95
4, 282240, Note_on_c, 4, 37, 95
4, 283200, Note_off_c, 4, 37, 95
4, 283200, Note_on_c, 4, 40, 95
4, 283680, Note_off_c, 4, 40, 95
4, 284160, Note_on_c, 4, 36, 95
4, 284640, Note_off_c, 4, 36, 95
4, 285600, Note_on_c, 5, 31, 95
4, 285720, Pitch_bend_c, 5, 8320
4, 285840, Pitch_bend_c, 5, 8448
4, 285960, Pitch_bend_c, 5, 8704
4, 286080, Pitch_bend_c, 5, 8832
4, 286080, Pitch_bend_c, 5, 8192
4, 286080, Note_off_c, 5, 31, 95
4, 286080, Note_on_c, 4, 32, 95
4, 287040, Note_off_c, 4, 32, 95
4, 287040, Note_on_c, 4, 36, 95
4, 287520, Note_off_c, 4, 36, 95
4, 288000, Note_on_c, 4, 40, 95
4, 288480, Note_off_c, 4, 40, 95
4, 289440, Note_on_c, 5, 35, 95
4, 289560, Pitch_bend_c, 5, 8448
4, 289680, Pitch_bend_c, 5, 8832
4, 289800, Pitch_bend_c, 5, 9216
4, 289920, Pitch_bend_c, 5, 9600
4, 289920, Pitch_bend_c, 5, 8192
4, 289920, Note_off_c, 5, 35, 95
4, 289920, Note_on_c, 4, 37, 95
4, 290880, Note_off_c, 4, 37, 95
4, 290880, Note_on_c, 4, 40, 95
4, 291360, Note_off_c, 4, 40, 95
4, 291840, Note_on_c, 4, 36, 95
4, 292320, Note_off_c, 4, 36, 95
4, 293280, Note_on_c, 5, 31, 95
4, 293400, Pitch_bend_c, 5, 8320
4, 293520, Pitch_bend_c, 5, 8448
4, 293640, Pitch_bend_c, 5, 8704
4, 293760, Pitch_bend_c, 5, 8832
4, 293760, Pitch_bend_c, 5, 8192
4, 293760, Note_off_c, 5, 31, 95
4, 293760, Note_on_c, 4, 32, 95
4, 294720, Note_off_c, 4, 32, 95
4, 294720, Note_on_c, 4, 36, 95
4, 295200, Note_off_c, 4, 36, 95
4, 295680, Note_on_c, 4, 40, 95
4, 296160, Note_off_c, 4, 40, 95
4, 297120, Note_on_c, 5, 35, 95
4, 297240, Pitch_bend_c, 5, 8448
4, 297360, Pitch_bend_c, 5, 8832
4, 297480, Pitch_bend_c, 5, 9216
4, 297600, Pitch_bend_c, 5, 9600
4, 297600, Pitch_bend_c, 5, 8192
4, 297600, Note_off_c, 5, 35, 95
4, 297600, Note_on_c, 4, 37, 95
4, 298560, Note_off_c, 4, 37, 95
4, 298560, Note_on_c, 4, 40, 95
4, 299040, Note_off_c, 4, 40, 95
4, 299520, Note_on_c, 4, 36, 95
4, 300000, Note_off_c, 4, 36, 95
4, 300960, Note_on_c, 5, 31, 95
4, 301080, Pitch_bend_c, 5, 8320
4, 301200, Pitch_bend_c, 5, 8448
4, 301320, Pitch_bend_c, 5, 8704
4, 301440, Pitch_bend_c, 5, 8832
4, 301440, Pitch_bend_c, 5, 8192
4, 301440, Note_off_c, 5, 31, 95
4, 301440, Note_on_c, 4, 32, 95
4, 302400, Note_off_c, 4, 32, 95
4, 302400, Note_on_c, 4, 36, 95
4, 302640, Note_off_c, 4, 36, 95
4, 302880, Note_on_c, 4, 31, 95
4, 303120, Note_off_c, 4, 31, 95
4, 303360, Note_on_c, 4, 40, 95
4, 303840, Note_off_c, 4, 40, 95
4, 304800, Note_on_c, 5, 35, 95
4, 304920, Pitch_bend_c, 5, 8448
4, 305040, Pitch_bend_c, 5, 8832
4, 305160, Pitch_bend_c, 5, 9216
4, 305280, Pitch_bend_c, 5, 9600
4, 305280, Pitch_bend_c, 5, 8192
4, 305280, Note_off_c, 5, 35, 95
4, 305280, Note_on_c, 4, 37, 95
4, 306240, Note_off_c, 4, 37, 95
4, 306240, Note_on_c, 4, 40, 95
4, 306720, Note_off_c, 4, 40, 95
4, 307200, Note_on_c, 4, 36, 95
4, 307680, Note_off_c, 4, 36, 95
4, 308640, Note_on_c, 5, 31, 95
4, 308760, Pitch_bend_c, 5, 8320
4, 308880, Pitch_bend_c, 5, 8448
4, 309000, Pitch_bend_c, 5, 8704
4, 309120, Pitch_bend_c, 5, 8832
4, 309120, Pitch_bend_c, 5, 8192
4, 309120, Note_off_c, 5, 31, 95
4, 309120, Note_on_c, 4, 32, 95
4, 310080, Note_off_c, 4, 32, 95
4, 310080, Note_on_c, 4, 36, 95
4, 310560, Note_off_c, 4, 36, 95
4, 311040, Note_on_c, 4, 40, 95
4, 311520, Note_off_c, 4, 40, 95
4, 312480, Note_on_c, 5, 35, 95
4, 312600, Pitch_bend_c, 5, 8448
4, 312720, Pitch_bend_c, 5, 8832
4, 312840, Pitch_bend_c, 5, 9216
4, 312960, Pitch_bend_c, 5, 9600
4, 312960, Pitch_bend_c, 5, 8192
4, 312960, Note_off_c, 5, 35, 95
4, 312960, Note_on_c, 4, 37, 95
4, 313920, Note_off_c, 4, 37, 95
4, 313920, Note_on_c, 4, 40, 95
4, 314400, Note_off_c, 4, 40, 95
4, 314880, Note_on_c, 4, 36, 95
4, 315360, Note_off_c, 4, 36, 95
4, 316320, Note_on_c, 5, 31, 95
4, 316440, Pitch_bend_c, 5, 8320
4, 316560, Pitch_bend_c, 5, 8448
4, 316680, Pitch_bend_c, 5, 8704
4, 316800, Pitch_bend_c, 5, 8832
4, 316800, Pitch_bend_c, 5, 8192
4, 316800, Note_off_c, 5, 31, 95
4, 316800, Note_on_c, 4, 32, 95
4, 317760, Note_off_c, 4, 32, 95
4, 317760, Note_on_c, 4, 36, 95
4, 318000, Note_off_c, 4, 36, 95
4, 318240, Note_on_c, 4, 31, 95
4, 318480, Note_off_c, 4, 31, 95
4, 318720, Note_on_c, 4, 40, 95
4, 319200, Note_off_c, 4, 40, 95
4, 320160, Note_on_c, 5, 35, 95
4, 320280, Pitch_bend_c, 5, 8448
4, 320400, Pitch_bend_c, 5, 8832
4, 320520, Pitch_bend_c, 5, 9216
4, 320640, Pitch_bend_c, 5, 9600
4, 320640, Pitch_bend_c, 5, 8192
4, 320640, Note_off_c, 5, 35, 95
4, 320640, Note_on_c, 4, 37, 95
4, 321600, Note_off_c, 4, 37, 95
4, 321600, Note_on_c, 4, 40, 95
4, 322080, Note_off_c, 4, 40, 95
4, 322560, Note_on_c, 4, 36, 95
4, 323040, Note_off_c, 4, 36, 95
4, 324000, Note_on_c, 5, 31, 95
4, 324120, Pitch_bend_c, 5, 8320
4, 324240, Pitch_bend_c, 5, 8448
4, 324360, Pitch_bend_c, 5, 8704
4, 324480, Pitch_bend_c, 5, 8832
4, 324480, Pitch_bend_c, 5, 8192
4, 324480, Note_off_c, 5, 31, 95
4, 324480, Note_on_c, 4, 32, 95
4, 325440, Note_off_c, 4, 32, 95
4, 325440, Note_on_c, 4, 36, 95
4, 325920, Note_off_c, 4, 36, 95
4, 326400, Note_on_c, 4, 40, 95
4, 326880, Note_off_c, 4, 40, 95
4, 327840, Note_on_c, 5, 35, 95
4, 327960, Pitch_bend_c, 5, 8448
4, 328080, Pitch_bend_c, 5, 8832
4, 328200, Pitch_bend_c, 5, 9216
4, 328320, Pitch_bend_c, 5, 9600
4, 328320, Pitch_bend_c, 5, 8192
4, 328320, Note_off_c, 5, 35, 95
4, 328320, Note_on_c, 4, 37, 95
4, 329280, Note_off_c, 4, 37, 95
4, 329280, Note_on_c, 4, 40, 95
4, 329760, Note_off_c, 4, 40, 95
4, 330240, Note_on_c, 4, 36, 95
4, 330720, Note_off_c, 4, 36, 95
4, 331680, Note_on_c, 5, 31, 95
4, 331800, Pitch_bend_c, 5, 8320
4, 331920, Pitch_bend_c, 5, 8448
4, 332040, Pitch_bend_c, 5, 8704
4, 332160, Pitch_bend_c, 5, 8832
4, 332160, Pitch_bend_c, 5, 8192
4, 332160, Note_off_c, 5, 31, 95
4, 332160, Note_on_c, 4, 32, 95
4, 333120, Note_off_c, 4, 32, 95
4, 333120, Note_on_c, 4, 36, 95
4, 333360, Note_off_c, 4, 36, 95
4, 333600, Note_on_c, 4, 31, 95
4, 333840, Note_off_c, 4, 31, 95
4, 334080, Note_on_c, 4, 40, 95
4, 334560, Note_off_c, 4, 40, 95
4, 335520, Note_on_c, 5, 35, 95
4, 335640, Pitch_bend_c, 5, 8448
4, 335760, Pitch_bend_c, 5, 8832
4, 335880, Pitch_bend_c, 5, 9216
4, 336000, Pitch_bend_c, 5, 9600
4, 336000, Pitch_bend_c, 5, 8192
4, 336000, Note_off_c, 5, 35, 95
4, 336000, Note_on_c, 4, 37, 95
4, 336960, Note_off_c, 4, 37, 95
4, 336960, Note_on_c, 4, 40, 95
4, 337440, Note_off_c, 4, 40, 95
4, 337920, Note_on_c, 4, 36, 95
4, 338400, Note_off_c, 4, 36, 95
4, 339360, Note_on_c, 5, 31, 95
4, 339480, Pitch_bend_c, 5, 8320
4, 339600, Pitch_bend_c, 5, 8448
4, 339720, Pitch_bend_c, 5, 8704
4, 339840, Pitch_bend_c, 5, 8832
4, 339840, Pitch_bend_c, 5, 8192
4, 339840, Note_off_c, 5, 31, 95
4, 339840, Note_on_c, 4, 32, 95
4, 340800, Note_off_c, 4, 32, 95
4, 340800, Note_on_c, 4, 36, 95
4, 341280, Note_off_c, 4, 36, 95
4, 341760, Note_on_c, 4, 40, 95
4, 342240, Note_off_c, 4, 40, 95
4, 343200, Note_on_c, 5, 35, 95
4, 343320, Pitch_bend_c, 5, 8448
4, 343440, Pitch_bend_c, 5, 8832
4, 343560, Pitch_bend_c, 5, 9216
4, 343680, Pitch_bend_c, 5, 9600
4, 343680, Pitch_bend_c, 5, 8192
4, 343680, Note_off_c, 5, 35, 95
4, 343680, Note_on_c, 4, 37, 95
4, 344640, Note_off_c, 4, 37, 95
4, 344640, Note_on_c, 4, 40, 95
4, 345120, Note_off_c, 4, 40, 95
4, 345600, Note_on_c, 4, 36, 95
4, 346080, Note_off_c, 4, 36, 95
4, 347040, Note_on_c, 5, 31, 95
4, 347160, Pitch_bend_c, 5, 8320
4, 347280, Pitch_bend_c, 5, 8448
4, 347400, Pitch_bend_c, 5, 8704
4, 347520, Pitch_bend_c, 5, 8832
4, 347520, Pitch_bend_c, 5, 8192
4, 347520, Note_off_c, 5, 31, 95
4, 347520, Note_on_c, 4, 32, 95
4, 348480, Note_off_c, 4, 32, 95
4, 348480, Note_on_c, 4, 36, 95
4, 348720, Note_off_c, 4, 36, 95
4, 348960, Note_on_c, 4, 31, 95
4, 349200, Note_off_c, 4, 31, 95
4, 349440, Note_on_c, 4, 40, 95
4, 349920, Note_off_c, 4, 40, 95
4, 350880, Note_on_c, 5, 35, 95
4, 351000, Pitch_bend_c, 5, 8448
4, 351120, Pitch_bend_c, 5, 8832
4, 351240, Pitch_bend_c, 5, 9216
4, 351360, Pitch_bend_c, 5, 9600
4, 351360, Pitch_bend_c, 5, 8192
4, 351360, Note_off_c, 5, 35, 95
4, 351360, Note_on_c, 4, 37, 95
4, 352320, Note_off_c, 4, 37, 95
4, 352320, Note_on_c, 4, 40, 95
4, 352800, Note_off_c, 4, 40, 95
4, 353280, Note_on_c, 4, 36, 95
4, 353760, Note_off_c, 4, 36, 95
4, 354720, Note_on_c, 5, 31, 95
4, 354840, Pitch_bend_c, 5, 8320
4, 354960, Pitch_bend_c, 5, 8448
4, 355080, Pitch_bend_c, 5, 8704
4, 355200, Pitch_bend_c, 5, 8832
4, 355200, Pitch_bend_c, 5, 8192
4, 355200, Note_off_c, 5, 31, 95
4, 355200, Note_on_c, 4, 32, 95
4, 356160, Note_off_c, 4, 32, 95
4, 356160, Note_on_c, 4, 36, 95
4, 356640, Note_off_c, 4, 36, 95
4, 357120, Note_on_c, 4, 40, 95
4, 357600, Note_off_c, 4, 40, 95
4, 358560, Note_on_c, 5, 35, 95
4, 358680, Pitch_bend_c, 5, 8448
4, 358800, Pitch_bend_c, 5, 8832
4, 358920, Pitch_bend_c, 5, 9216
4, 359040, Pitch_bend_c, 5, 9600
4, 359040, Pitch_bend_c, 5, 8192
4, 359040, Note_off_c, 5, 35, 95
4, 359040, Note_on_c, 4, 37, 95
4, 360000, Note_off_c, 4, 37, 95
4, 360000, Note_on_c, 4, 40, 95
4, 360480, Note_off_c, 4, 40, 95
4, 360960, Note_on_c, 4, 36, 95
4, 361440, Note_off_c, 4, 36, 95
4, 362400, Note_on_c, 5, 31, 95
4, 362520, Pitch_bend_c, 5, 8320
4, 362640, Pitch_bend_c, 5, 8448
4, 362760, Pitch_bend_c, 5, 8704
4, 362880, Pitch_bend_c, 5, 8832
4, 362880, Pitch_bend_c, 5, 8192
4, 362880, Note_off_c, 5, 31, 95
4, 362880, Note_on_c, 4, 32, 95
4, 363840, Note_off_c, 4, 32, 95
4, 363840, Note_on_c, 4, 36, 95
4, 364080, Note_off_c, 4, 36, 95
4, 364320, Note_on_c, 4, 31, 95
4, 364560, Note_off_c, 4, 31, 95
4, 364800, Note_on_c, 4, 40, 95
4, 365280, Note_off_c, 4, 40, 95
4, 366240, Note_on_c, 5, 35, 95
4, 366360, Pitch_bend_c, 5, 8448
4, 366480, Pitch_bend_c, 5, 8832
4, 366600, Pitch_bend_c, 5, 9216
4, 366720, Pitch_bend_c, 5, 9600
4, 366720, Pitch_bend_c, 5, 8192
4, 366720, Note_off_c, 5, 35, 95
4, 366720, Note_on_c, 4, 37, 95
4, 367680, Note_off_c, 4, 37, 95
4, 367680, Note_on_c, 4, 40, 95
4, 368160, Note_off_c, 4, 40, 95
4, 368640, Note_on_c, 4, 36, 95
4, 369120, Note_off_c, 4, 36, 95
4, 370080, Note_on_c, 5, 31, 95
4, 370200, Pitch_bend_c, 5, 8320
4, 370320, Pitch_bend_c, 5, 8448
4, 370440, Pitch_bend_c, 5, 8704
4, 370560, Pitch_bend_c, 5, 8832
4, 370560, Pitch_bend_c, 5, 8192
4, 370560, Note_off_c, 5, 31, 95
4, 370560, Note_on_c, 4, 32, 95
4, 371520, Note_off_c, 4, 32, 95
4, 371520, Note_on_c, 4, 36, 95
4, 372000, Note_off_c, 4, 36, 95
4, 372480, Note_on_c, 4, 40, 95
4, 372960, Note_off_c, 4, 40, 95
4, 373920, Note_on_c, 5, 35, 95
4, 374040, Pitch_bend_c, 5, 8448
4, 374160, Pitch_bend_c, 5, 8832
4, 374280, Pitch_bend_c, 5, 9216
4, 374400, Pitch_bend_c, 5, 9600
4, 374400, Pitch_bend_c, 5, 8192
4, 374400, Note_off_c, 5, 35, 95
4, 374400, Note_on_c, 4, 37, 95
4, 375360, Note_off_c, 4, 37, 95
4, 375360, Note_on_c, 4, 40, 95
4, 375840, Note_off_c, 4, 40, 95
4, 376320, Note_on_c, 4, 36, 95
4, 376800, Note_off_c, 4, 36, 95
4, 377760, Note_on_c, 5, 31, 95
4, 377880, Pitch_bend_c, 5, 8320
4, 378000, Pitch_bend_c, 5, 8448
4, 378120, Pitch_bend_c, 5, 8704
4, 378240, Pitch_bend_c, 5, 8832
4, 378240, Pitch_bend_c, 5, 8192
4, 378240, Note_off_c, 5, 31, 95
4, 378240, Note_on_c, 4, 32, 95
4, 379200, Note_off_c, 4, 32, 95
4, 379200, Note_on_c, 4, 36, 95
4, 379440, Note_off_c, 4, 36, 95
4, 379680, Note_on_c, 4, 31, 95
4, 379920, Note_off_c, 4, 31, 95
4, 380160, Note_on_c, 4, 40, 95
4, 380640, Note_off_c, 4, 40, 95
4, 381600, Note_on_c, 5, 35, 95
4, 381720, Pitch_bend_c, 5, 8448
4, 381840, Pitch_bend_c, 5, 8832
4, 381960, Pitch_bend_c, 5, 9216
4, 382080, Pitch_bend_c, 5, 9600
4, 382080, Pitch_bend_c, 5, 8192
4, 382080, Note_off_c, 5, 35, 95
4, 382080, Note_on_c, 4, 37, 95
4, 383040, Note_off_c, 4, 37, 95
4, 383040, Note_on_c, 4, 40, 95
4, 383520, Note_off_c, 4, 40, 95
4, 384000, Note_on_c, 4, 36, 95
4, 384480, Note_off_c, 4, 36, 95
4, 385440, Note_on_c, 5, 31, 95
4, 385560, Pitch_bend_c, 5, 8320
4, 385680, Pitch_bend_c, 5, 8448
4, 385800, Pitch_bend_c, 5, 8704
4, 385920, Pitch_bend_c, 5, 8832
4, 385920, Pitch_bend_c, 5, 8192
4, 385920, Note_off_c, 5, 31, 95
4, 385920, Note_on_c, 4, 32, 95
4, 386880, Note_off_c, 4, 32, 95
4, 386880, Note_on_c, 4, 36, 95
4, 387360, Note_off_c, 4, 36, 95
4, 387840, Note_on_c, 4, 40, 95
4, 388320, Note_off_c, 4, 40, 95
4, 389280, Note_on_c, 5, 35, 95
4, 389400, Pitch_bend_c, 5, 8448
4, 389520, Pitch_bend_c, 5, 8832
4, 389640, Pitch_bend_c, 5, 9216
4, 389760, Pitch_bend_c, 5, 9600
4, 389760, Pitch_bend_c, 5, 8192
4, 389760, Note_off_c, 5, 35, 95
4, 389760, Note_on_c, 4, 37, 95
4, 390720, Note_off_c, 4, 37, 95
4, 390720, Note_on_c, 4, 40, 95
4, 391200, Note_off_c, 4, 40, 95
4, 391680, Note_on_c, 4, 36, 95
4, 392160, Note_off_c, 4, 36, 95
4, 393120, Note_on_c, 5, 31, 95
4, 393240, Pitch_bend_c, 5, 8320
4, 393360, Pitch_bend_c, 5, 8448
4, 393480, Pitch_bend_c, 5, 8704
4, 393600, Pitch_bend_c, 5, 8832
4, 393600, Pitch_bend_c, 5, 8192
4, 393600, Note_off_c, 5, 31, 95
4, 393600, Note_on_c, 4, 32, 95
4, 394560, Note_off_c, 4, 32, 95
4, 394560, Note_on_c, 4, 36, 95
4, 394800, Note_off_c, 4, 36, 95
4, 395040, Note_on_c, 4, 31, 95
4, 395280, Note_off_c, 4, 31, 95
4, 395520, Note_on_c, 4, 40, 95
4, 396000, Note_off_c, 4, 40, 95
4, 396960, Note_on_c, 5, 35, 95
4, 397080, Pitch_bend_c, 5, 8448
4, 397200, Pitch_bend_c, 5, 8832
4, 397320, Pitch_bend_c, 5, 9216
4, 397440, Pitch_bend_c, 5, 9600
4, 397440, Pitch_bend_c, 5, 8192
4, 397440, Note_off_c, 5, 35, 95
4, 397440, Note_on_c, 4, 37, 95
4, 398400, Note_off_c, 4, 37, 95
4, 398400, Note_on_c, 4, 40, 95
4, 398880, Note_off_c, 4, 40, 95
4, 399360, Note_on_c, 4, 36, 95
4, 399840, Note_off_c, 4, 36, 95
4, 400800, Note_on_c, 5, 31, 95
4, 400920, Pitch_bend_c, 5, 8320
4, 401040, Pitch_bend_c, 5, 8448
4, 401160, Pitch_bend_c, 5, 8704
4, 401280, Pitch_bend_c, 5, 8832
4, 401280, Pitch_bend_c, 5, 8192
4, 401280, Note_off_c, 5, 31, 95
4, 401280, Note_on_c, 4, 32, 95
4, 402240, Note_off_c, 4, 32, 95
4, 402240, Note_on_c, 4, 36, 95
4, 402720, Note_off_c, 4, 36, 95
4, 403200, Note_on_c, 4, 40, 95
4, 403680, Note_off_c, 4, 40, 95
4, 404640, Note_on_c, 5, 35, 95
4, 404760, Pitch_bend_c, 5, 8448
4, 404880, Pitch_bend_c, 5, 8832
4, 405000, Pitch_bend_c, 5, 9216
4, 405120, Pitch_bend_c, 5, 9600
4, 405120, Pitch_bend_c, 5, 8192
4, 405120, Note_off_c, 5, 35, 95
4, 405120, Note_on_c, 4, 37, 95
4, 406080, Note_off_c, 4, 37, 95
4, 406080, Note_on_c, 4, 40, 95
4, 406560, Note_off_c, 4, 40, 95
4, 407040, Note_on_c, 4, 36, 95
4, 407520, Note_off_c, 4, 36, 95
4, 408480, Note_on_c, 5, 31, 95
4, 408600, Pitch_bend_c, 5, 8320
4, 408720, Pitch_bend_c, 5, 8448
4, 408840, Pitch_bend_c, 5, 8704
4, 408960, Pitch_bend_c, 5, 8832
4, 408960, Pitch_bend_c, 5, 8192
4, 408960, Note_off_c, 5, 31, 95
4, 408960, Note_on_c, 4, 32, 95
4, 409920, Note_off_c, 4, 32, 95
4, 409920, Note_on_c, 4, 36, 95
4, 410160, Note_off_c, 4, 36, 95
4, 410400, Note_on_c, 4, 31, 95
4, 410640, Note_off_c, 4, 31, 95
4, 410640, End_track
5, 0, Start_track
5, 0, Pitch_bend_c, 9, 8192
5, 0, Control_c, 9, 7, 103
5, 0, Control_c, 9, 10, 63
5, 0, Control_c, 9, 93, 0
5, 0, Control_c, 9, 91, 0
5, 0, Control_c, 9, 95, 0
5, 0, Control_c, 9, 92, 0
5, 0, Control_c, 9, 11, 127
5, 0, Program_c, 9, 0
5, 0, Note_on_c, 9, 42, 95
5, 0, Note_on_c, 9, 35, 95
5, 480, Note_off_c, 9, 42, 95
5, 480, Note_off_c, 9, 35, 95
5, 480, Note_on_c, 9, 42, 95
5, 960, Note_off_c, 9, 42, 95
5, 960, Note_on_c, 9, 42, 95
5, 960, Note_on_c, 9, 40, 95
5, 1440, Note_off_c, 9, 42, 95
5, 1440, Note_off_c, 9, 40, 95
5, 1440, Note_on_c, 9, 42, 95
5, 1440, Note_on_c, 9, 35, 95
5, 1920, Note_off_c, 9, 42, 95
5, 1920, Note_off_c, 9, 35, 95
5, 1920, Note_on_c, 9, 42, 95
5, 1920, Note_on_c, 9, 35, 95
5, 2400, Note_off_c, 9, 42, 95
5, 2400, Note_off_c, 9, 35, 95
5, 2400, Note_on_c, 9, 42, 95
5, 2880, Note_off_c, 9, 42, 95
5, 2880, Note_on_c, 9, 42, 95
5, 2880, Note_on_c, 9, 40, 95
5, 3360, Note_off_c, 9, 42, 95
5, 3360, Note_off_c, 9, 40, 95
5, 3360, Note_on_c, 9, 42, 95
5, 3840, Note_off_c, 9, 42, 95
5, 3840, Note_on_c, 9, 42, 95
5, 3840, Note_on_c, 9, 35, 95
5, 4320, Note_off_c, 9, 42, 95
5, 4320, Note_off_c, 9, 35, 95
5, 4320, Note_on_c, 9, 42, 95
5, 4800, Note_off_c, 9, 42, 95
5, 4800, Note_on_c, 9, 42, 95
5, 4800, Note_on_c, 9, 40, 95
5, 5280, Note_off_c, 9, 42, 95
5, 5280, Note_off_c, 9, 40, 95
5, 5280, Note_on_c, 9, 42, 95
5, 5280, Note_on_c, 9, 35, 95
5, 5760, Note_off_c, 9, 42, 95
5, 5760, Note_off_c, 9, 35, 95
5, 5760, Note_on_c, 9, 42, 95
5, 5760, Note_on_c, 9, 35, 95
5, 6240, Note_off_c, 9, 42, 95
5, 6240, Note_off_c, 9, 35, 95
5, 6240, Note_on_c, 9, 42, 95
5, 6720, Note_off_c, 9, 42, 95
5, 6720, Note_on_c, 9, 42, 95
5, 6720, Note_on_c, 9, 40, 95
5, 7200, Note_off_c, 9, 42, 95
5, 7200, Note_off_c, 9, 40, 95
5, 7200, Note_on_c, 9, 42, 95
5, 7680, Note_off_c, 9, 42, 95
5, 7680, Note_on_c, 9, 42, 95
5, 7680, Note_on_c, 9, 35, 95
5, 8160, Note_off_c, 9, 42, 95
5, 8160, Note_off_c, 9, 35, 95
5, 8160, Note_on_c, 9, 42, 95
5, 8640, Note_off_c, 9, 42, 95
5, 8640, Note_on_c, 9, 42, 95
5, 8640, Note_on_c, 9, 40, 95
5, 9120, Note_off_c, 9, 42, 95
5, 9120, Note_off_c, 9, 40, 95
5, 9120, Note_on_c, 9, 42, 95
5, 9120, Note_on_c, 9, 35, 95
5, 9600, Note_off_c, 9, 42, 95
5, 9600, Note_off_c, 9, 35, 95
5, 9600, Note_on_c, 9, 42, 95
5, 9600, Note_on_c, 9, 35, 95
5, 10080, Note_off_c, 9, 42, 95
5, 10080, Note_off_c, 9, 35, 95
5, 10080, Note_on_c, 9, 42, 95
5, 10560, Note_off_c, 9, 42, 95
5, 10560, Note_on_c, 9, 42, 95
5, 10560, Note_on_c, 9, 40, 95
5, 11040, Note_off_c, 9, 42, 95
5, 11040, Note_off_c, 9, 40, 95
5, 11040, Note_on_c, 9, 42, 95
5, 11520, Note_off_c, 9, 42, 95
5, 11520, Note_on_c, 9, 42, 95
5, 11520, Note_on_c, 9, 35, 95
5, 12000, Note_off_c, 9, 42, 95
5, 12000, Note_off_c, 9, 35, 95
5, 12000, Note_on_c, 9, 42, 95
5, 12480, Note_off_c, 9, 42, 95
5, 12480, Note_on_c, 9, 42, 95
5, 12480, Note_on_c, 9, 40, 95
5, 12960, Note_off_c, 9, 42, 95
5, 12960, Note_off_c, 9, 40, 95
5, 12960, Note_on_c, 9, 42, 95
5, 12960, Note_on_c, 9, 35, 95
5, 13440, Note_off_c, 9, 42, 95
5, 13440, Note_off_c, 9, 35, 95
5, 13440, Note_on_c, 9, 42, 95
5, 13440, Note_on_c, 9, 35, 95
5, 13920, Note_off_c, 9, 42, 95
5, 13920, Note_off_c, 9, 35, 95
5, 13920, Note_on_c, 9, 42, 95
5, 14400, Note_off_c, 9, 42, 95
5, 14400, Note_on_c, 9, 42, 95
5, 14400, Note_on_c, 9, 40, 95
5, 14880, Note_off_c, 9, 42, 95
5, 14880, Note_off_c, 9, 40, 95
5, 14880, Note_on_c, 9, 42, 95
5, 15360, Note_off_c, 9, 42, 95
5, 15360, Note_on_c, 9, 42, 95
5, 15360, Note_on_c, 9, 35, 95
5, 15840, Note_off_c, 9, 42, 95
5, 15840, Note_off_c, 9, 35, 95
5, 15840, Note_on_c, 9, 42, 95
5, 16320, Note_off_c, 9, 42, 95
5, 16320, Note_on_c, 9, 42, 95
5, 16320, Note_on_c, 9, 40, 95
5, 16800, Note_off_c, 9, 42, 95
5, 16800, Note_off_c, 9, 40, 95
5, 16800, Note_on_c, 9, 42, 95
5, 16800, Note_on_c, 9, 35, 95
5, 17280, Note_off_c, 9, 42, 95
5, 17280, Note_off_c, 9, 35, 95
5, 17280, Note_on_c, 9, 42, 95
5, 17280, Note_on_c, 9, 35, 95
5, 17760, Note_off_c, 9, 42, 95
5, 17760, Note_off_c, 9, 35, 95
5, 17760, Note_on_c, 9, 42, 95
5, 18240, Note_off_c, 9, 42, 95
5, 18240, Note_on_c, 9, 42, 95
5, 18240, Note_on_c, 9, 40, 95
5, 18720, Note_off_c, 9, 42, 95
5, 18720, Note_off_c, 9, 40, 95
5, 18720, Note_on_c, 9, 42, 95
5, 19200, Note_off_c, 9, 42, 95
5, 19200, Note_on_c, 9, 42, 95
5, 19200, Note_on_c, 9, 35, 95
5, 19680, Note_off_c, 9, 42, 95
5, 19680, Note_off_c, 9, 35, 95
5, 19680, Note_on_c, 9, 42, 95
5, 20160, Note_off_c, 9, 42, 95
5, 20160, Note_on_c, 9, 42, 95
5, 20160, Note_on_c, 9, 40, 95
5, 20640, Note_off_c, 9, 42, 95
5, 20640, Note_off_c, 9, 40, 95
5, 20640, Note_on_c, 9, 42, 95
5, 20640, Note_on_c, 9, 35, 95
5, 21120, Note_off_c, 9, 42, 95
5, 21120, Note_off_c, 9, 35, 95
5, 21120, Note_on_c, 9, 42, 95
5, 21120, Note_on_c, 9, 35, 95
5, 21600, Note_off_c, 9, 42, 95
5, 21600, Note_off_c, 9, 35, 95
5, 21600, Note_on_c, 9, 42, 95
5, 22080, Note_off_c, 9, 42, 95
5, 22080, Note_on_c, 9, 42, 95
5, 22080, Note_on_c, 9, 40, 95
5, 22560, Note_off_c, 9, 42, 95
5, 22560, Note_off_c, 9, 40, 95
5, 22560, Note_on_c, 9, 42, 95
5, 23040, Note_off_c, 9, 42, 95
5, 23040, Note_on_c, 9, 42, 95
5, 23040, Note_on_c, 9, 35, 95
5, 23520, Note_off_c, 9, 42, 95
5, 23520, Note_off_c, 9, 35, 95
5, 23520, Note_on_c, 9, 42, 95
5, 24000, Note_off_c, 9, 42, 95
5, 24000, Note_on_c, 9, 42, 95
5, 24000, Note_on_c, 9, 40, 95
5, 24480, Note_off_c, 9, 42, 95
5, 24480, Note_off_c, 9, 40, 95
5, 24480, Note_on_c, 9, 42, 95
5, 24480, Note_on_c, 9, 35, 95
5, 24960, Note_off_c, 9, 42, 95
5, 24960, Note_off_c, 9, 35, 95
5, 24960, Note_on_c, 9, 42, 95
5, 24960, Note_on_c, 9, 35, 95
5, 25440, Note_off_c, 9, 42, 95
5, 25440, Note_off_c, 9, 35, 95
5, 25440, Note_on_c, 9, 42, 95
5, 25920, Note_off_c, 9, 42, 95
5, 25920, Note_on_c, 9, 42, 95
5, 25920, Note_on_c, 9, 40, 95
5, 26400, Note_off_c, 9, 42, 95
5, 26400, Note_off_c, 9, 40, 95
5, 26400, Note_on_c, 9, 42, 95
5, 26880, Note_off_c, 9, 42, 95
5, 26880, Note_on_c, 9, 42, 95
5, 26880, Note_on_c, 9, 35, 95
5, 27360, Note_off_c, 9, 42, 95
5, 27360, Note_off_c, 9, 35, 95
5, 27360, Note_on_c, 9, 42, 95
5, 27840, Note_off_c, 9, 42, 95
5, 27840, Note_on_c, 9, 42, 95
5, 27840, Note_on_c, 9, 40, 95
5, 28320, Note_off_c, 9, 42, 95
5, 28320, Note_off_c, 9, 40, 95
5, 28320, Note_on_c, 9, 46, 95
5, 28800, Note_off_c, 9, 46, 95
5, 28800, Note_on_c, 9, 42, 95
5, 28800, Note_on_c, 9, 35, 95
5, 29280, Note_off_c, 9, 42, 95
5, 29280, Note_off_c, 9, 35, 95
5, 29280, Note_on_c, 9, 42, 95
5, 29760, Note_off_c, 9, 42, 95
5, 29760, Note_on_c, 9, 42, 95
5, 29760, Note_on_c, 9, 40, 95
5, 30240, Note_off_c, 9, 42, 95
5, 30240, Note_off_c, 9, 40, 95
5, 30240, Note_on_c, 9, 40, 95
5, 30480, Note_off_c, 9, 40, 95
5, 30480, Note_on_c, 9, 40, 95
5, 30720, Note_off_c, 9, 40, 95
5, 30720, Note_on_c, 9, 42, 95
5, 30720, Note_on_c, 9, 35, 95
5, 31200, Note_off_c, 9, 42, 95
5, 31200, Note_off_c, 9, 35, 95
5, 31200, Note_on_c, 9, 42, 95
5, 31680, Note_off_c, 9, 42, 95
5, 31680, Note_on_c, 9, 42, 95
5, 31680, Note_on_c, 9, 40, 95
5, 32160, Note_off_c, 9, 42, 95
5, 32160, Note_off_c, 9, 40, 95
5, 32160, Note_on_c, 9, 42, 95
5, 32160, Note_on_c, 9, 35, 95
5, 32640, Note_off_c, 9, 42, 95
5, 32640, Note_off_c, 9, 35, 95
5, 32640, Note_on_c, 9, 42, 95
5, 32640, Note_on_c, 9, 35, 95
5, 33120, Note_off_c, 9, 42, 95
5, 33120, Note_off_c, 9, 35, 95
5, 33120, Note_on_c, 9, 42, 95
5, 33600, Note_off_c, 9, 42, 95
5, 33600, Note_on_c, 9, 42, 95
5, 33600, Note_on_c, 9, 40, 95
5, 34080, Note_off_c, 9, 42, 95
5, 34080, Note_off_c, 9, 40, 95
5, 34080, Note_on_c, 9, 42, 95
5, 34560, Note_off_c, 9, 42, 95
5, 34560, Note_on_c, 9, 42, 95
5, 34560, Note_on_c, 9, 35, 95
5, 35040, Note_off_c, 9, 42, 95
5, 35040, Note_off_c, 9, 35, 95
5, 35040, Note_on_c, 9, 42, 95
5, 35520, Note_off_c, 9, 42, 95
5, 35520, Note_on_c, 9, 42, 95
5, 35520, Note_on_c, 9, 40, 95
5, 36000, Note_off_c, 9, 42, 95
5, 36000, Note_off_c, 9, 40, 95
5, 36000, Note_on_c, 9, 42, 95
5, 36000, Note_on_c, 9, 35, 95
5, 36480, Note_off_c, 9, 42, 95
5, 36480, Note_off_c, 9, 35, 95
5, 36480, Note_on_c, 9, 42, 95
5, 36480, Note_on_c, 9, 35, 95
5, 36960, Note_off_c, 9, 42, 95
5, 36960, Note_off_c, 9, 35, 95
5, 36960, Note_on_c, 9, 42, 95
5, 37440, Note_off_c, 9, 42, 95
5, 37440, Note_on_c, 9, 42, 95
5, 37440, Note_on_c, 9, 40, 95
5, 37920, Note_off_c, 9, 42, 95
5, 37920, Note_off_c, 9, 40, 95
5, 37920, Note_on_c, 9, 42, 95
5, 38400, Note_off_c, 9, 42, 95
5, 38400, Note_on_c, 9, 42, 95
5, 38400, Note_on_c, 9, 35, 95
5, 38880, Note_off_c, 9, 42, 95
5, 38880, Note_off_c, 9, 35, 95
5, 38880, Note_on_c, 9, 42, 95
5, 39360, Note_off_c, 9, 42, 95
5, 39360, Note_on_c, 9, 42, 95
5, 39360, Note_on_c, 9, 40, 95
5, 39840, Note_off_c, 9, 42, 95
5, 39840, Note_off_c, 9, 40, 95
5, 39840, Note_on_c, 9, 42, 95
5, 39840, Note_on_c, 9, 35, 95
5, 40320, Note_off_c, 9, 42, 95
5, 40320, Note_off_c, 9, 35, 95
5, 40320, Note_on_c, 9, 42, 95
5, 40320, Note_on_c, 9, 35, 95
5, 40800, Note_off_c, 9, 42, 95
5, 40800, Note_off_c, 9, 35, 95
5, 40800, Note_on_c, 9, 42, 95
5, 41280, Note_off_c, 9, 42, 95
5, 41280, Note_on_c, 9, 42, 95
5, 41280, Note_on_c, 9, 40, 95
5, 41760, Note_off_c, 9, 42, 95
5, 41760, Note_off_c, 9, 40, 95
5, 41760, Note_on_c, 9, 42, 95
5, 42240, Note_off_c, 9, 42, 95
5, 42240, Note_on_c, 9, 42, 95
5, 42240, Note_on_c, 9, 35, 95
5, 42720, Note_off_c, 9, 42, 95
5, 42720, Note_off_c, 9, 35, 95
5, 42720, Note_on_c, 9, 42, 95
5, 43200, Note_off_c, 9, 42, 95
5, 43200, Note_on_c, 9, 42, 95
5, 43200, Note_on_c, 9, 40, 95
5, 43680, Note_off_c, 9, 42, 95
5, 43680, Note_off_c, 9, 40, 95
5, 43680, Note_on_c, 9, 42, 95
5, 43680, Note_on_c, 9, 35, 95
5, 44160, Note_off_c, 9, 42, 95
5, 44160, Note_off_c, 9, 35, 95
5, 44160, Note_on_c, 9, 42, 95
5, 44160, Note_on_c, 9, 35, 95
5, 44640, Note_off_c, 9, 42, 95
5, 44640, Note_off_c, 9, 35, 95
5, 44640, Note_on_c, 9, 42, 95
5, 45120, Note_off_c, 9, 42, 95
5, 45120, Note_on_c, 9, 42, 95
5, 45120, Note_on_c, 9, 40, 95
5, 45600, Note_off_c, 9, 42, 95
5, 45600, Note_off_c, 9, 40, 95
5, 45600, Note_on_c, 9, 42, 95
5, 46080, Note_off_c, 9, 42, 95
5, 46080, Note_on_c, 9, 42, 95
5, 46080, Note_on_c, 9, 35, 95
5, 46560, Note_off_c, 9, 42, 95
5, 46560, Note_off_c, 9, 35, 95
5, 46560, Note_on_c, 9, 42, 95
5, 47040, Note_off_c, 9, 42, 95
5, 47040, Note_on_c, 9, 42, 95
5, 47040, Note_on_c, 9, 40, 95
5, 47520, Note_off_c, 9, 42, 95
5, 47520, Note_off_c, 9, 40, 95
5, 47520, Note_on_c, 9, 42, 95
5, 47520, Note_on_c, 9, 35, 95
5, 48000, Note_off_c, 9, 42, 95
5, 48000, Note_off_c, 9, 35, 95
5, 48000, Note_on_c, 9, 42, 95
5, 48000, Note_on_c, 9, 35, 95
5, 48480, Note_off_c, 9, 42, 95
5, 48480, Note_off_c, 9, 35, 95
5, 48480, Note_on_c, 9, 42, 95
5, 48960, Note_off_c, 9, 42, 95
5, 48960, Note_on_c, 9, 42, 95
5, 48960, Note_on_c, 9, 40, 95
5, 49440, Note_off_c, 9, 42, 95
5, 49440, Note_off_c, 9, 40, 95
5, 49440, Note_on_c, 9, 42, 95
5, 49920, Note_off_c, 9, 42, 95
5, 49920, Note_on_c, 9, 42, 95
5, 49920, Note_on_c, 9, 35, 95
5, 50400, Note_off_c, 9, 42, 95
5, 50400, Note_off_c, 9, 35, 95
5, 50400, Note_on_c, 9, 42, 95
5, 50880, Note_off_c, 9, 42, 95
5, 50880, Note_on_c, 9, 42, 95
5, 50880, Note_on_c, 9, 40, 95
5, 51360, Note_off_c, 9, 42, 95
5, 51360, Note_off_c, 9, 40, 95
5, 51360, Note_on_c, 9, 42, 95
5, 51360, Note_on_c, 9, 35, 95
5, 51840, Note_off_c, 9, 42, 95
5, 51840, Note_off_c, 9, 35, 95
5, 51840, Note_on_c, 9, 42, 95
5, 51840, Note_on_c, 9, 35, 95
5, 52320, Note_off_c, 9, 42, 95
5, 52320, Note_off_c, 9, 35, 95
5, 52320, Note_on_c, 9, 42, 95
5, 52800, Note_off_c, 9, 42, 95
5, 52800, Note_on_c, 9, 42, 95
5, 52800, Note_on_c, 9, 40, 95
5, 53280, Note_off_c, 9, 42, 95
5, 53280, Note_off_c, 9, 40, 95
5, 53280, Note_on_c, 9, 42, 95
5, 53760, Note_off_c, 9, 42, 95
5, 53760, Note_on_c, 9, 42, 95
5, 53760, Note_on_c, 9, 35, 95
5, 54240, Note_off_c, 9, 42, 95
5, 54240, Note_off_c, 9, 35, 95
5, 54240, Note_on_c, 9, 42, 95
5, 54720, Note_off_c, 9, 42, 95
5, 54720, Note_on_c, 9, 42, 95
5, 54720, Note_on_c, 9, 40, 95
5, 55200, Note_off_c, 9, 42, 95
5, 55200, Note_off_c, 9, 40, 95
5, 55200, Note_on_c, 9, 42, 95
5, 55200, Note_on_c, 9, 35, 95
5, 55680, Note_off_c, 9, 42, 95
5, 55680, Note_off_c, 9, 35, 95
5, 55680, Note_on_c, 9, 42, 95
5, 55680, Note_on_c, 9, 35, 95
5, 56160, Note_off_c, 9, 42, 95
5, 56160, Note_off_c, 9, 35, 95
5, 56160, Note_on_c, 9, 42, 95
5, 56640, Note_off_c, 9, 42, 95
5, 56640, Note_on_c, 9, 42, 95
5, 56640, Note_on_c, 9, 40, 95
5, 57120, Note_off_c, 9, 42, 95
5, 57120, Note_off_c, 9, 40, 95
5, 57120, Note_on_c, 9, 42, 95
5, 57600, Note_off_c, 9, 42, 95
5, 57600, Note_on_c, 9, 42, 95
5, 57600, Note_on_c, 9, 35, 95
5, 58080, Note_off_c, 9, 42, 95
5, 58080, Note_off_c, 9, 35, 95
5, 58080, Note_on_c, 9, 42, 95
5, 58560, Note_off_c, 9, 42, 95
5, 58560, Note_on_c, 9, 42, 95
5, 58560, Note_on_c, 9, 40, 95
5, 59040, Note_off_c, 9, 42, 95
5, 59040, Note_off_c, 9, 40, 95
5, 59040, Note_on_c, 9, 42, 95
5, 59040, Note_on_c, 9, 35, 95
5, 59520, Note_off_c, 9, 42, 95
5, 59520, Note_off_c, 9, 35, 95
5, 59520, Note_on_c, 9, 42, 95
5, 59520, Note_on_c, 9, 35, 95
5, 60000, Note_off_c, 9, 42, 95
5, 60000, Note_off_c, 9, 35, 95
5, 60000, Note_on_c, 9, 42, 95
5, 60480, Note_off_c, 9, 42, 95
5, 60480, Note_on_c, 9, 42, 95
5, 60480, Note_on_c, 9, 40, 95
5, 60960, Note_off_c, 9, 42, 95
5, 60960, Note_off_c, 9, 40, 95
5, 60960, Note_on_c, 9, 42, 95
5, 61440, Note_off_c, 9, 42, 95
5, 61440, Note_on_c, 9, 42, 95
5, 61440, Note_on_c, 9, 35, 95
5, 61920, Note_off_c, 9, 42, 95
5, 61920, Note_off_c, 9, 35, 95
5, 61920, Note_on_c, 9, 42, 95
5, 62400, Note_off_c, 9, 42, 95
5, 62400, Note_on_c, 9, 42, 95
5, 62400, Note_on_c, 9, 40, 95
5, 62880, Note_off_c, 9, 42, 95
5, 62880, Note_off_c, 9, 40, 95
5, 62880, Note_on_c, 9, 42, 95
5, 62880, Note_on_c, 9, 35, 95
5, 63360, Note_off_c, 9, 42, 95
5, 63360, Note_off_c, 9, 35, 95
5, 63360, Note_on_c, 9, 42, 95
5, 63360, Note_on_c, 9, 35, 95
5, 63840, Note_off_c, 9, 42, 95
5, 63840, Note_off_c, 9, 35, 95
5, 63840, Note_on_c, 9, 42, 95
5, 64320, Note_off_c, 9, 42, 95
5, 64320, Note_on_c, 9, 42, 95
5, 64320, Note_on_c, 9, 40, 95
5, 64800, Note_off_c, 9, 42, 95
5, 64800, Note_off_c, 9, 40, 95
5, 64800, Note_on_c, 9, 42, 95
5, 65280, Note_off_c, 9, 42, 95
5, 65280, Note_on_c, 9, 42, 95
5, 65280, Note_on_c, 9, 35, 95
5, 65760, Note_off_c, 9, 42, 95
5, 65760, Note_off_c, 9, 35, 95
5, 65760, Note_on_c, 9, 42, 95
5, 66240, Note_off_c, 9, 42, 95
5, 66240, Note_on_c, 9, 42, 95
5, 66240, Note_on_c, 9, 40, 95
5, 66720, Note_off_c, 9, 42, 95
5, 66720, Note_off_c, 9, 40, 95
5, 66720, Note_on_c, 9, 42, 95
5, 66720, Note_on_c, 9, 35, 95
5, 66960, Note_off_c, 9, 42, 95
5, 66960, Note_off_c, 9, 35, 95
5, 66960, Note_on_c, 9, 42, 95
5, 67200, Note_off_c, 9, 42, 95
5, 67200, Note_on_c, 9, 42, 95
5, 67200, Note_on_c, 9, 40, 95
5, 67200, Note_on_c, 9, 35, 95
5, 67680, Note_off_c, 9, 42, 95
5, 67680, Note_off_c, 9, 40, 95
5, 67680, Note_off_c, 9, 35, 95
5, 67680, Note_on_c, 9, 46, 95
5, 68160, Note_off_c, 9, 46, 95
5, 68160, Note_on_c, 9, 42, 95
5, 68160, Note_on_c, 9, 40, 95
5, 69120, Note_off_c, 9, 42, 95
5, 69120, Note_off_c, 9, 40, 95
5, 69120, Note_on_c, 9, 57, 95
5, 69120, Note_on_c, 9, 35, 95
5, 69600, Note_off_c, 9, 57, 95
5, 69600, Note_off_c, 9, 35, 95
5, 69600, Note_on_c, 9, 42, 95
5, 70080, Note_off_c, 9, 42, 95
5, 70080, Note_on_c, 9, 42, 95
5, 70080, Note_on_c, 9, 40, 95
5, 70560, Note_off_c, 9, 42, 95
5, 70560, Note_off_c, 9, 40, 95
5, 70560, Note_on_c, 9, 42, 95
5, 70560, Note_on_c, 9, 35, 95
5, 71040, Note_off_c, 9, 42, 95
5, 71040, Note_off_c, 9, 35, 95
5, 71040, Note_on_c, 9, 42, 95
5, 71040, Note_on_c, 9, 35, 95
5, 71520, Note_off_c, 9, 42, 95
5, 71520, Note_off_c, 9, 35, 95
5, 71520, Note_on_c, 9, 42, 95
5, 72000, Note_off_c, 9, 42, 95
5, 72000, Note_on_c, 9, 42, 95
5, 72000, Note_on_c, 9, 40, 95
5, 72480, Note_off_c, 9, 42, 95
5, 72480, Note_off_c, 9, 40, 95
5, 72480, Note_on_c, 9, 42, 95
5, 72960, Note_off_c, 9, 42, 95
5, 72960, Note_on_c, 9, 42, 95
5, 72960, Note_on_c, 9, 35, 95
5, 73440, Note_off_c, 9, 42, 95
5, 73440, Note_off_c, 9, 35, 95
5, 73440, Note_on_c, 9, 42, 95
5, 73920, Note_off_c, 9, 42, 95
5, 73920, Note_on_c, 9, 42, 95
5, 73920, Note_on_c, 9, 40, 95
5, 74400, Note_off_c, 9, 42, 95
5, 74400, Note_off_c, 9, 40, 95
5, 74400, Note_on_c, 9, 42, 95
5, 74400, Note_on_c, 9, 35, 95
5, 74880, Note_off_c, 9, 42, 95
5, 74880, Note_off_c, 9, 35, 95
5, 74880, Note_on_c, 9, 42, 95
5, 74880, Note_on_c, 9, 35, 95
5, 75360, Note_off_c, 9, 42, 95
5, 75360, Note_off_c, 9, 35, 95
5, 75360, Note_on_c, 9, 42, 95
5, 75840, Note_off_c, 9, 42, 95
5, 75840, Note_on_c, 9, 42, 95
5, 75840, Note_on_c, 9, 40, 95
5, 76320, Note_off_c, 9, 42, 95
5, 76320, Note_off_c, 9, 40, 95
5, 76320, Note_on_c, 9, 42, 95
5, 76800, Note_off_c, 9, 42, 95
5, 76800, Note_on_c, 9, 57, 95
5, 76800, Note_on_c, 9, 35, 95
5, 77280, Note_off_c, 9, 57, 95
5, 77280, Note_off_c, 9, 35, 95
5, 77280, Note_on_c, 9, 42, 95
5, 77760, Note_off_c, 9, 42, 95
5, 77760, Note_on_c, 9, 42, 95
5, 77760, Note_on_c, 9, 40, 95
5, 78240, Note_off_c, 9, 42, 95
5, 78240, Note_off_c, 9, 40, 95
5, 78240, Note_on_c, 9, 42, 95
5, 78240, Note_on_c, 9, 35, 95
5, 78720, Note_off_c, 9, 42, 95
5, 78720, Note_off_c, 9, 35, 95
5, 78720, Note_on_c, 9, 42, 95
5, 78720, Note_on_c, 9, 35, 95
5, 79200, Note_off_c, 9, 42, 95
5, 79200, Note_off_c, 9, 35, 95
5, 79200, Note_on_c, 9, 42, 95
5, 79680, Note_off_c, 9, 42, 95
5, 79680, Note_on_c, 9, 42, 95
5, 79680, Note_on_c, 9, 40, 95
5, 80160, Note_off_c, 9, 42, 95
5, 80160, Note_off_c, 9, 40, 95
5, 80160, Note_on_c, 9, 42, 95
5, 80640, Note_off_c, 9, 42, 95
5, 80640, Note_on_c, 9, 42, 95
5, 80640, Note_on_c, 9, 35, 95
5, 81120, Note_off_c, 9, 42, 95
5, 81120, Note_off_c, 9, 35, 95
5, 81120, Note_on_c, 9, 42, 95
5, 81600, Note_off_c, 9, 42, 95
5, 81600, Note_on_c, 9, 42, 95
5, 81600, Note_on_c, 9, 40, 95
5, 82080, Note_off_c, 9, 42, 95
5, 82080, Note_off_c, 9, 40, 95
5, 82080, Note_on_c, 9, 42, 95
5, 82080, Note_on_c, 9, 35, 95
5, 82560, Note_off_c, 9, 42, 95
5, 82560, Note_off_c, 9, 35, 95
5, 82560, Note_on_c, 9, 42, 95
5, 82560, Note_on_c, 9, 35, 95
5, 83040, Note_off_c, 9, 42, 95
5, 83040, Note_off_c, 9, 35, 95
5, 83040, Note_on_c, 9, 42, 95
5, 83520, Note_off_c, 9, 42, 95
5, 83520, Note_on_c, 9, 42, 95
5, 83520, Note_on_c, 9, 40, 95
5, 84000, Note_off_c, 9, 42, 95
5, 84000, Note_off_c, 9, 40, 95
5, 84000, Note_on_c, 9, 42, 95
5, 84480, Note_off_c, 9, 42, 95
5, 84480, Note_on_c, 9, 57, 95
5, 84480, Note_on_c, 9, 35, 95
5, 84960, Note_off_c, 9, 57, 95
5, 84960, Note_off_c, 9, 35, 95
5, 84960, Note_on_c, 9, 42, 95
5, 85440, Note_off_c, 9, 42, 95
5, 85440, Note_on_c, 9, 42, 95
5, 85440, Note_on_c, 9, 40, 95
5, 85920, Note_off_c, 9, 42, 95
5, 85920, Note_off_c, 9, 40, 95
5, 85920, Note_on_c, 9, 42, 95
5, 85920, Note_on_c, 9, 35, 95
5, 86400, Note_off_c, 9, 42, 95
5, 86400, Note_off_c, 9, 35, 95
5, 86400, Note_on_c, 9, 42, 95
5, 86400, Note_on_c, 9, 35, 95
5, 86880, Note_off_c, 9, 42, 95
5, 86880, Note_off_c, 9, 35, 95
5, 86880, Note_on_c, 9, 42, 95
5, 87360, Note_off_c, 9, 42, 95
5, 87360, Note_on_c, 9, 42, 95
5, 87360, Note_on_c, 9, 40, 95
5, 87840, Note_off_c, 9, 42, 95
5, 87840, Note_off_c, 9, 40, 95
5, 87840, Note_on_c, 9, 42, 95
5, 88320, Note_off_c, 9, 42, 95
5, 88320, Note_on_c, 9, 42, 95
5, 88320, Note_on_c, 9, 35, 95
5, 88800, Note_off_c, 9, 42, 95
5, 88800, Note_off_c, 9, 35, 95
5, 88800, Note_on_c, 9, 42, 95
5, 89280, Note_off_c, 9, 42, 95
5, 89280, Note_on_c, 9, 42, 95
5, 89280, Note_on_c, 9, 40, 95
5, 89760, Note_off_c, 9, 42, 95
5, 89760, Note_off_c, 9, 40, 95
5, 89760, Note_on_c, 9, 42, 95
5, 90240, Note_off_c, 9, 42, 95
5, 90240, Note_on_c, 9, 42, 95
5, 90240, Note_on_c, 9, 35, 95
5, 90720, Note_off_c, 9, 42, 95
5, 90720, Note_off_c, 9, 35, 95
5, 90720, Note_on_c, 9, 42, 95
5, 91200, Note_off_c, 9, 42, 95
5, 91200, Note_on_c, 9, 42, 95
5, 91200, Note_on_c, 9, 40, 95
5, 91680, Note_off_c, 9, 42, 95
5, 91680, Note_off_c, 9, 40, 95
5, 91680, Note_on_c, 9, 42, 95
5, 92160, Note_off_c, 9, 42, 95
5, 92160, Note_on_c, 9, 57, 95
5, 92160, Note_on_c, 9, 35, 95
5, 92640, Note_off_c, 9, 57, 95
5, 92640, Note_off_c, 9, 35, 95
5, 92640, Note_on_c, 9, 42, 95
5, 93120, Note_off_c, 9, 42, 95
5, 93120, Note_on_c, 9, 42, 95
5, 93120, Note_on_c, 9, 40, 95
5, 93600, Note_off_c, 9, 42, 95
5, 93600, Note_off_c, 9, 40, 95
5, 93600, Note_on_c, 9, 42, 95
5, 94080, Note_off_c, 9, 42, 95
5, 94080, Note_on_c, 9, 42, 95
5, 94080, Note_on_c, 9, 35, 95
5, 94560, Note_off_c, 9, 42, 95
5, 94560, Note_off_c, 9, 35, 95
5, 94560, Note_on_c, 9, 42, 95
5, 95040, Note_off_c, 9, 42, 95
5, 95040, Note_on_c, 9, 42, 95
5, 95040, Note_on_c, 9, 40, 95
5, 95520, Note_off_c, 9, 42, 95
5, 95520, Note_off_c, 9, 40, 95
5, 95520, Note_on_c, 9, 42, 95
5, 96000, Note_off_c, 9, 42, 95
5, 96000, Note_on_c, 9, 42, 95
5, 96000, Note_on_c, 9, 35, 95
5, 96480, Note_off_c, 9, 42, 95
5, 96480, Note_off_c, 9, 35, 95
5, 96480, Note_on_c, 9, 42, 95
5, 96960, Note_off_c, 9, 42, 95
5, 96960, Note_on_c, 9, 42, 95
5, 96960, Note_on_c, 9, 40, 95
5, 97440, Note_off_c, 9, 42, 95
5, 97440, Note_off_c, 9, 40, 95
5, 97440, Note_on_c, 9, 42, 95
5, 97920, Note_off_c, 9, 42, 95
5, 97920, Note_on_c, 9, 42, 95
5, 97920, Note_on_c, 9, 35, 95
5, 98400, Note_off_c, 9, 42, 95
5, 98400, Note_off_c, 9, 35, 95
5, 98400, Note_on_c, 9, 42, 95
5, 98880, Note_off_c, 9, 42, 95
5, 98880, Note_on_c, 9, 42, 95
5, 98880, Note_on_c, 9, 40, 95
5, 99360, Note_off_c, 9, 42, 95
5, 99360, Note_off_c, 9, 40, 95
5, 99360, Note_on_c, 9, 42, 95
5, 99840, Note_off_c, 9, 42, 95
5, 99840, Note_on_c, 9, 42, 95
5, 99840, Note_on_c, 9, 35, 95
5, 100320, Note_off_c, 9, 42, 95
5, 100320, Note_off_c, 9, 35, 95
5, 100320, Note_on_c, 9, 42, 95
5, 100800, Note_off_c, 9, 42, 95
5, 100800, Note_on_c, 9, 42, 95
5, 100800, Note_on_c, 9, 40, 95
5, 101280, Note_off_c, 9, 42, 95
5, 101280, Note_off_c, 9, 40, 95
5, 101280, Note_on_c, 9, 42, 95
5, 101280, Note_on_c, 9, 35, 95
5, 101760, Note_off_c, 9, 42, 95
5, 101760, Note_off_c, 9, 35, 95
5, 101760, Note_on_c, 9, 42, 95
5, 101760, Note_on_c, 9, 35, 95
5, 102240, Note_off_c, 9, 42, 95
5, 102240, Note_off_c, 9, 35, 95
5, 102240, Note_on_c, 9, 42, 95
5, 102720, Note_off_c, 9, 42, 95
5, 102720, Note_on_c, 9, 42, 95
5, 102720, Note_on_c, 9, 40, 95
5, 103200, Note_off_c, 9, 42, 95
5, 103200, Note_off_c, 9, 40, 95
5, 103200, Note_on_c, 9, 42, 95
5, 103680, Note_off_c, 9, 42, 95
5, 103680, Note_on_c, 9, 42, 95
5, 103680, Note_on_c, 9, 35, 95
5, 104160, Note_off_c, 9, 42, 95
5, 104160, Note_off_c, 9, 35, 95
5, 104160, Note_on_c, 9, 42, 95
5, 104640, Note_off_c, 9, 42, 95
5, 104640, Note_on_c, 9, 42, 95
5, 104640, Note_on_c, 9, 40, 95
5, 105120, Note_off_c, 9, 42, 95
5, 105120, Note_off_c, 9, 40, 95
5, 105120, Note_on_c, 9, 42, 95
5, 105120, Note_on_c, 9, 35, 95
5, 105600, Note_off_c, 9, 42, 95
5, 105600, Note_off_c, 9, 35, 95
5, 105600, Note_on_c, 9, 42, 95
5, 105600, Note_on_c, 9, 35, 95
5, 106080, Note_off_c, 9, 42, 95
5, 106080, Note_off_c, 9, 35, 95
5, 106080, Note_on_c, 9, 42, 95
5, 106560, Note_off_c, 9, 42, 95
5, 106560, Note_on_c, 9, 42, 95
5, 106560, Note_on_c, 9, 40, 95
5, 107040, Note_off_c, 9, 42, 95
5, 107040, Note_off_c, 9, 40, 95
5, 107040, Note_on_c, 9, 42, 95
5, 107520, Note_off_c, 9, 42, 95
5, 107520, Note_on_c, 9, 42, 95
5, 107520, Note_on_c, 9, 35, 95
5, 108000, Note_off_c, 9, 42, 95
5, 108000, Note_off_c, 9, 35, 95
5, 108000, Note_on_c, 9, 42, 95
5, 108480, Note_off_c, 9, 42, 95
5, 108480, Note_on_c, 9, 42, 95
5, 108480, Note_on_c, 9, 40, 95
5, 108960, Note_off_c, 9, 42, 95
5, 108960, Note_off_c, 9, 40, 95
5, 108960, Note_on_c, 9, 42, 95
5, 108960, Note_on_c, 9, 35, 95
5, 109440, Note_off_c, 9, 42, 95
5, 109440, Note_off_c, 9, 35, 95
5, 109440, Note_on_c, 9, 42, 95
5, 109440, Note_on_c, 9, 35, 95
5, 109920, Note_off_c, 9, 42, 95
5, 109920, Note_off_c, 9, 35, 95
5, 109920, Note_on_c, 9, 42, 95
5, 110400, Note_off_c, 9, 42, 95
5, 110400, Note_on_c, 9, 42, 95
5, 110400, Note_on_c, 9, 40, 95
5, 110880, Note_off_c, 9, 42, 95
5, 110880, Note_off_c, 9, 40, 95
5, 110880, Note_on_c, 9, 42, 95
5, 111360, Note_off_c, 9, 42, 95
5, 111360, Note_on_c, 9, 49, 95
5, 111360, Note_on_c, 9, 35, 95
5, 111840, Note_off_c, 9, 49, 95
5, 111840, Note_off_c, 9, 35, 95
5, 111840, Note_on_c, 9, 42, 95
5, 112320, Note_off_c, 9, 42, 95
5, 112320, Note_on_c, 9, 42, 95
5, 112320, Note_on_c, 9, 40, 95
5, 112800, Note_off_c, 9, 42, 95
5, 112800, Note_off_c, 9, 40, 95
5, 112800, Note_on_c, 9, 42, 95
5, 112800, Note_on_c, 9, 35, 95
5, 113280, Note_off_c, 9, 42, 95
5, 113280, Note_off_c, 9, 35, 95
5, 113280, Note_on_c, 9, 49, 95
5, 113280, Note_on_c, 9, 35, 95
5, 113760, Note_off_c, 9, 49, 95
5, 113760, Note_off_c, 9, 35, 95
5, 113760, Note_on_c, 9, 42, 95
5, 114240, Note_off_c, 9, 42, 95
5, 114240, Note_on_c, 9, 42, 95
5, 114240, Note_on_c, 9, 40, 95
5, 114720, Note_off_c, 9, 42, 95
5, 114720, Note_off_c, 9, 40, 95
5, 114720, Note_on_c, 9, 42, 95
5, 115200, Note_off_c, 9, 42, 95
5, 115200, Note_on_c, 9, 49, 95
5, 115200, Note_on_c, 9, 35, 95
5, 115680, Note_off_c, 9, 49, 95
5, 115680, Note_off_c, 9, 35, 95
5, 115680, Note_on_c, 9, 42, 95
5, 116160, Note_off_c, 9, 42, 95
5, 116160, Note_on_c, 9, 42, 95
5, 116160, Note_on_c, 9, 40, 95
5, 116640, Note_off_c, 9, 42, 95
5, 116640, Note_off_c, 9, 40, 95
5, 116640, Note_on_c, 9, 42, 95
5, 117120, Note_off_c, 9, 42, 95
5, 117120, Note_on_c, 9, 42, 95
5, 117120, Note_on_c, 9, 35, 95
5, 117600, Note_off_c, 9, 42, 95
5, 117600, Note_off_c, 9, 35, 95
5, 117600, Note_on_c, 9, 42, 95
5, 118080, Note_off_c, 9, 42, 95
5, 118080, Note_on_c, 9, 42, 95
5, 118080, Note_on_c, 9, 40, 95
5, 118560, Note_off_c, 9, 42, 95
5, 118560, Note_off_c, 9, 40, 95
5, 118560, Note_on_c, 9, 42, 95
5, 119040, Note_off_c, 9, 42, 95
5, 119040, Note_on_c, 9, 42, 95
5, 119040, Note_on_c, 9, 35, 95
5, 119520, Note_off_c, 9, 42, 95
5, 119520, Note_off_c, 9, 35, 95
5, 119520, Note_on_c, 9, 42, 95
5, 120000, Note_off_c, 9, 42, 95
5, 120000, Note_on_c, 9, 42, 95
5, 120000, Note_on_c, 9, 40, 95
5, 120480, Note_off_c, 9, 42, 95
5, 120480, Note_off_c, 9, 40, 95
5, 120480, Note_on_c, 9, 42, 95
5, 120960, Note_off_c, 9, 42, 95
5, 120960, Note_on_c, 9, 42, 95
5, 120960, Note_on_c, 9, 35, 95
5, 121440, Note_off_c, 9, 42, 95
5, 121440, Note_off_c, 9, 35, 95
5, 121440, Note_on_c, 9, 42, 95
5, 121920, Note_off_c, 9, 42, 95
5, 121920, Note_on_c, 9, 42, 95
5, 121920, Note_on_c, 9, 40, 95
5, 122400, Note_off_c, 9, 42, 95
5, 122400, Note_off_c, 9, 40, 95
5, 122400, Note_on_c, 9, 42, 95
5, 122880, Note_off_c, 9, 42, 95
5, 122880, Note_on_c, 9, 42, 95
5, 122880, Note_on_c, 9, 35, 95
5, 123360, Note_off_c, 9, 42, 95
5, 123360, Note_off_c, 9, 35, 95
5, 123360, Note_on_c, 9, 42, 95
5, 123840, Note_off_c, 9, 42, 95
5, 123840, Note_on_c, 9, 42, 95
5, 123840, Note_on_c, 9, 40, 95
5, 124320, Note_off_c, 9, 42, 95
5, 124320, Note_off_c, 9, 40, 95
5, 124320, Note_on_c, 9, 42, 95
5, 124800, Note_off_c, 9, 42, 95
5, 124800, Note_on_c, 9, 42, 95
5, 124800, Note_on_c, 9, 35, 95
5, 125280, Note_off_c, 9, 42, 95
5, 125280, Note_off_c, 9, 35, 95
5, 125280, Note_on_c, 9, 42, 95
5, 125760, Note_off_c, 9, 42, 95
5, 125760, Note_on_c, 9, 42, 95
5, 125760, Note_on_c, 9, 40, 95
5, 126240, Note_off_c, 9, 42, 95
5, 126240, Note_off_c, 9, 40, 95
5, 126240, Note_on_c, 9, 42, 95
5, 126720, Note_off_c, 9, 42, 95
5, 126720, Note_on_c, 9, 42, 95
5, 126720, Note_on_c, 9, 35, 95
5, 127200, Note_off_c, 9, 42, 95
5, 127200, Note_off_c, 9, 35, 95
5, 127200, Note_on_c, 9, 42, 95
5, 127680, Note_off_c, 9, 42, 95
5, 127680, Note_on_c, 9, 42, 95
5, 127680, Note_on_c, 9, 40, 95
5, 128160, Note_off_c, 9, 42, 95
5, 128160, Note_off_c, 9, 40, 95
5, 128160, Note_on_c, 9, 46, 95
5, 128640, Note_off_c, 9, 46, 95
5, 128640, Note_on_c, 9, 42, 95
5, 128640, Note_on_c, 9, 35, 95
5, 129120, Note_off_c, 9, 42, 95
5, 129120, Note_off_c, 9, 35, 95
5, 129120, Note_on_c, 9, 42, 95
5, 129600, Note_off_c, 9, 42, 95
5, 129600, Note_on_c, 9, 42, 95
5, 129600, Note_on_c, 9, 40, 95
5, 130080, Note_off_c, 9, 42, 95
5, 130080, Note_off_c, 9, 40, 95
5, 130080, Note_on_c, 9, 42, 95
5, 130080, Note_on_c, 9, 35, 95
5, 130560, Note_off_c, 9, 42, 95
5, 130560, Note_off_c, 9, 35, 95
5, 130560, Note_on_c, 9, 42, 95
5, 130560, Note_on_c, 9, 35, 95
5, 131040, Note_off_c, 9, 42, 95
5, 131040, Note_off_c, 9, 35, 95
5, 131040, Note_on_c, 9, 42, 95
5, 131520, Note_off_c, 9, 42, 95
5, 131520, Note_on_c, 9, 42, 95
5, 131520, Note_on_c, 9, 40, 95
5, 132000, Note_off_c, 9, 42, 95
5, 132000, Note_off_c, 9, 40, 95
5, 132000, Note_on_c, 9, 42, 95
5, 132480, Note_off_c, 9, 42, 95
5, 132480, Note_on_c, 9, 42, 95
5, 132480, Note_on_c, 9, 35, 95
5, 132960, Note_off_c, 9, 42, 95
5, 132960, Note_off_c, 9, 35, 95
5, 132960, Note_on_c, 9, 42, 95
5, 133440, Note_off_c, 9, 42, 95
5, 133440, Note_on_c, 9, 42, 95
5, 133440, Note_on_c, 9, 40, 95
5, 133920, Note_off_c, 9, 42, 95
5, 133920, Note_off_c, 9, 40, 95
5, 133920, Note_on_c, 9, 42, 95
5, 133920, Note_on_c, 9, 35, 95
5, 134400, Note_off_c, 9, 42, 95
5, 134400, Note_off_c, 9, 35, 95
5, 134400, Note_on_c, 9, 42, 95
5, 134400, Note_on_c, 9, 35, 95
5, 134880, Note_off_c, 9, 42, 95
5, 134880, Note_off_c, 9, 35, 95
5, 134880, Note_on_c, 9, 42, 95
5, 135360, Note_off_c, 9, 42, 95
5, 135360, Note_on_c, 9, 42, 95
5, 135360, Note_on_c, 9, 40, 95
5, 135840, Note_off_c, 9, 42, 95
5, 135840, Note_off_c, 9, 40, 95
5, 135840, Note_on_c, 9, 42, 95
5, 136320, Note_off_c, 9, 42, 95
5, 136320, Note_on_c, 9, 42, 95
5, 136320, Note_on_c, 9, 35, 95
5, 136800, Note_off_c, 9, 42, 95
5, 136800, Note_off_c, 9, 35, 95
5, 136800, Note_on_c, 9, 42, 95
5, 137280, Note_off_c, 9, 42, 95
5, 137280, Note_on_c, 9, 42, 95
5, 137280, Note_on_c, 9, 40, 95
5, 137760, Note_off_c, 9, 42, 95
5, 137760, Note_off_c, 9, 40, 95
5, 137760, Note_on_c, 9, 42, 95
5, 137760, Note_on_c, 9, 35, 95
5, 138240, Note_off_c, 9, 42, 95
5, 138240, Note_off_c, 9, 35, 95
5, 138240, Note_on_c, 9, 42, 95
5, 138240, Note_on_c, 9, 35, 95
5, 138720, Note_off_c, 9, 42, 95
5, 138720, Note_off_c, 9, 35, 95
5, 138720, Note_on_c, 9, 42, 95
5, 139200, Note_off_c, 9, 42, 95
5, 139200, Note_on_c, 9, 42, 95
5, 139200, Note_on_c, 9, 40, 95
5, 139680, Note_off_c, 9, 42, 95
5, 139680, Note_off_c, 9, 40, 95
5, 139680, Note_on_c, 9, 42, 95
5, 140160, Note_off_c, 9, 42, 95
5, 140160, Note_on_c, 9, 42, 95
5, 140160, Note_on_c, 9, 35, 95
5, 140640, Note_off_c, 9, 42, 95
5, 140640, Note_off_c, 9, 35, 95
5, 140640, Note_on_c, 9, 42, 95
5, 141120, Note_off_c, 9, 42, 95
5, 141120, Note_on_c, 9, 42, 95
5, 141120, Note_on_c, 9, 40, 95
5, 141600, Note_off_c, 9, 42, 95
5, 141600, Note_off_c, 9, 40, 95
5, 141600, Note_on_c, 9, 42, 95
5, 141600, Note_on_c, 9, 35, 95
5, 142080, Note_off_c, 9, 42, 95
5, 142080, Note_off_c, 9, 35, 95
5, 142080, Note_on_c, 9, 42, 95
5, 142080, Note_on_c, 9, 35, 95
5, 142560, Note_off_c, 9, 42, 95
5, 142560, Note_off_c, 9, 35, 95
5, 142560, Note_on_c, 9, 42, 95
5, 143040, Note_off_c, 9, 42, 95
5, 143040, Note_on_c, 9, 42, 95
5, 143040, Note_on_c, 9, 40, 95
5, 143520, Note_off_c, 9, 42, 95
5, 143520, Note_off_c, 9, 40, 95
5, 143520, Note_on_c, 9, 42, 95
5, 144000, Note_off_c, 9, 42, 95
5, 144000, Note_on_c, 9, 42, 95
5, 144000, Note_on_c, 9, 35, 95
5, 144480, Note_off_c, 9, 42, 95
5, 144480, Note_off_c, 9, 35, 95
5, 144480, Note_on_c, 9, 42, 95
5, 144960, Note_off_c, 9, 42, 95
5, 144960, Note_on_c, 9, 42, 95
5, 144960, Note_on_c, 9, 40, 95
5, 145440, Note_off_c, 9, 42, 95
5, 145440, Note_off_c, 9, 40, 95
5, 145440, Note_on_c, 9, 42, 95
5, 145440, Note_on_c, 9, 35, 95
5, 145920, Note_off_c, 9, 42, 95
5, 145920, Note_off_c, 9, 35, 95
5, 145920, Note_on_c, 9, 42, 95
5, 145920, Note_on_c, 9, 35, 95
5, 146400, Note_off_c, 9, 42, 95
5, 146400, Note_off_c, 9, 35, 95
5, 146400, Note_on_c, 9, 42, 95
5, 146880, Note_off_c, 9, 42, 95
5, 146880, Note_on_c, 9, 42, 95
5, 146880, Note_on_c, 9, 40, 95
5, 147360, Note_off_c, 9, 42, 95
5, 147360, Note_off_c, 9, 40, 95
5, 147360, Note_on_c, 9, 42, 95
5, 147840, Note_off_c, 9, 42, 95
5, 147840, Note_on_c, 9, 42, 95
5, 147840, Note_on_c, 9, 35, 95
5, 148320, Note_off_c, 9, 42, 95
5, 148320, Note_off_c, 9, 35, 95
5, 148320, Note_on_c, 9, 42, 95
5, 148800, Note_off_c, 9, 42, 95
5, 148800, Note_on_c, 9, 42, 95
5, 148800, Note_on_c, 9, 40, 95
5, 149280, Note_off_c, 9, 42, 95
5, 149280, Note_off_c, 9, 40, 95
5, 149280, Note_on_c, 9, 42, 95
5, 149280, Note_on_c, 9, 35, 95
5, 149760, Note_off_c, 9, 42, 95
5, 149760, Note_off_c, 9, 35, 95
5, 149760, Note_on_c, 9, 42, 95
5, 149760, Note_on_c, 9, 35, 95
5, 150240, Note_off_c, 9, 42, 95
5, 150240, Note_off_c, 9, 35, 95
5, 150240, Note_on_c, 9, 42, 95
5, 150720, Note_off_c, 9, 42, 95
5, 150720, Note_on_c, 9, 42, 95
5, 150720, Note_on_c, 9, 40, 95
5, 151200, Note_off_c, 9, 42, 95
5, 151200, Note_off_c, 9, 40, 95
5, 151200, Note_on_c, 9, 42, 95
5, 151680, Note_off_c, 9, 42, 95
5, 151680, Note_on_c, 9, 42, 95
5, 151680, Note_on_c, 9, 35, 95
5, 152160, Note_off_c, 9, 42, 95
5, 152160, Note_off_c, 9, 35, 95
5, 152160, Note_on_c, 9, 42, 95
5, 152640, Note_off_c, 9, 42, 95
5, 152640, Note_on_c, 9, 42, 95
5, 152640, Note_on_c, 9, 40, 95
5, 153120, Note_off_c, 9, 42, 95
5, 153120, Note_off_c, 9, 40, 95
5, 153120, Note_on_c, 9, 42, 95
5, 153120, Note_on_c, 9, 35, 95
5, 153600, Note_off_c, 9, 42, 95
5, 153600, Note_off_c, 9, 35, 95
5, 153600, Note_on_c, 9, 42, 95
5, 153600, Note_on_c, 9, 35, 95
5, 154080, Note_off_c, 9, 42, 95
5, 154080, Note_off_c, 9, 35, 95
5, 154080, Note_on_c, 9, 42, 95
5, 154560, Note_off_c, 9, 42, 95
5, 154560, Note_on_c, 9, 42, 95
5, 154560, Note_on_c, 9, 40, 95
5, 155040, Note_off_c, 9, 42, 95
5, 155040, Note_off_c, 9, 40, 95
5, 155040, Note_on_c, 9, 42, 95
5, 155520, Note_off_c, 9, 42, 95
5, 155520, Note_on_c, 9, 42, 95
5, 155520, Note_on_c, 9, 35, 95
5, 156000, Note_off_c, 9, 42, 95
5, 156000, Note_off_c, 9, 35, 95
5, 156000, Note_on_c, 9, 42, 95
5, 156480, Note_off_c, 9, 42, 95
5, 156480, Note_on_c, 9, 42, 95
5, 156480, Note_on_c, 9, 40, 95
5, 156960, Note_off_c, 9, 42, 95
5, 156960, Note_off_c, 9, 40, 95
5, 156960, Note_on_c, 9, 42, 95
5, 157440, Note_off_c, 9, 42, 95
5, 157440, Note_on_c, 9, 40, 95
5, 157920, Note_off_c, 9, 40, 95
5, 157920, Note_on_c, 9, 40, 95
5, 158160, Note_off_c, 9, 40, 95
5, 158160, Note_on_c, 9, 40, 95
5, 158400, Note_off_c, 9, 40, 95
5, 158400, Note_on_c, 9, 40, 95
5, 158880, Note_off_c, 9, 40, 95
5, 158880, Note_on_c, 9, 40, 95
5, 159120, Note_off_c, 9, 40, 95
5, 159120, Note_on_c, 9, 40, 95
5, 159360, Note_off_c, 9, 40, 95
5, 159360, Note_on_c, 9, 42, 95
5, 159360, Note_on_c, 9, 35, 95
5, 159840, Note_off_c, 9, 42, 95
5, 159840, Note_off_c, 9, 35, 95
5, 159840, Note_on_c, 9, 42, 95
5, 160320, Note_off_c, 9, 42, 95
5, 160320, Note_on_c, 9, 42, 95
5, 160320, Note_on_c, 9, 40, 95
5, 160800, Note_off_c, 9, 42, 95
5, 160800, Note_off_c, 9, 40, 95
5, 160800, Note_on_c, 9, 42, 95
5, 160800, Note_on_c, 9, 35, 95
5, 161280, Note_off_c, 9, 42, 95
5, 161280, Note_off_c, 9, 35, 95
5, 161280, Note_on_c, 9, 42, 95
5, 161280, Note_on_c, 9, 35, 95
5, 161760, Note_off_c, 9, 42, 95
5, 161760, Note_off_c, 9, 35, 95
5, 161760, Note_on_c, 9, 42, 95
5, 162240, Note_off_c, 9, 42, 95
5, 162240, Note_on_c, 9, 42, 95
5, 162240, Note_on_c, 9, 40, 95
5, 162720, Note_off_c, 9, 42, 95
5, 162720, Note_off_c, 9, 40, 95
5, 162720, Note_on_c, 9, 42, 95
5, 163200, Note_off_c, 9, 42, 95
5, 163200, Note_on_c, 9, 42, 95
5, 163200, Note_on_c, 9, 35, 95
5, 163680, Note_off_c, 9, 42, 95
5, 163680, Note_off_c, 9, 35, 95
5, 163680, Note_on_c, 9, 42, 95
5, 164160, Note_off_c, 9, 42, 95
5, 164160, Note_on_c, 9, 42, 95
5, 164160, Note_on_c, 9, 40, 95
5, 164640, Note_off_c, 9, 42, 95
5, 164640, Note_off_c, 9, 40, 95
5, 164640, Note_on_c, 9, 42, 95
5, 164640, Note_on_c, 9, 35, 95
5, 165120, Note_off_c, 9, 42, 95
5, 165120, Note_off_c, 9, 35, 95
5, 165120, Note_on_c, 9, 42, 95
5, 165120, Note_on_c, 9, 35, 95
5, 165600, Note_off_c, 9, 42, 95
5, 165600, Note_off_c, 9, 35, 95
5, 165600, Note_on_c, 9, 42, 95
5, 166080, Note_off_c, 9, 42, 95
5, 166080, Note_on_c, 9, 42, 95
5, 166080, Note_on_c, 9, 40, 95
5, 166560, Note_off_c, 9, 42, 95
5, 166560, Note_off_c, 9, 40, 95
5, 166560, Note_on_c, 9, 42, 95
5, 167040, Note_off_c, 9, 42, 95
5, 167040, Note_on_c, 9, 42, 95
5, 167040, Note_on_c, 9, 35, 95
5, 167520, Note_off_c, 9, 42, 95
5, 167520, Note_off_c, 9, 35, 95
5, 167520, Note_on_c, 9, 42, 95
5, 168000, Note_off_c, 9, 42, 95
5, 168000, Note_on_c, 9, 42, 95
5, 168000, Note_on_c, 9, 40, 95
5, 168480, Note_off_c, 9, 42, 95
5, 168480, Note_off_c, 9, 40, 95
5, 168480, Note_on_c, 9, 42, 95
5, 168480, Note_on_c, 9, 35, 95
5, 168960, Note_off_c, 9, 42, 95
5, 168960, Note_off_c, 9, 35, 95
5, 168960, Note_on_c, 9, 42, 95
5, 168960, Note_on_c, 9, 35, 95
5, 169440, Note_off_c, 9, 42, 95
5, 169440, Note_off_c, 9, 35, 95
5, 169440, Note_on_c, 9, 42, 95
5, 169920, Note_off_c, 9, 42, 95
5, 169920, Note_on_c, 9, 42, 95
5, 169920, Note_on_c, 9, 40, 95
5, 170400, Note_off_c, 9, 42, 95
5, 170400, Note_off_c, 9, 40, 95
5, 170400, Note_on_c, 9, 42, 95
5, 170880, Note_off_c, 9, 42, 95
5, 170880, Note_on_c, 9, 42, 95
5, 170880, Note_on_c, 9, 35, 95
5, 171360, Note_off_c, 9, 42, 95
5, 171360, Note_off_c, 9, 35, 95
5, 171360, Note_on_c, 9, 42, 95
5, 171840, Note_off_c, 9, 42, 95
5, 171840, Note_on_c, 9, 42, 95
5, 171840, Note_on_c, 9, 40, 95
5, 172320, Note_off_c, 9, 42, 95
5, 172320, Note_off_c, 9, 40, 95
5, 172320, Note_on_c, 9, 42, 95
5, 172320, Note_on_c, 9, 35, 95
5, 172800, Note_off_c, 9, 42, 95
5, 172800, Note_off_c, 9, 35, 95
5, 172800, Note_on_c, 9, 42, 95
5, 172800, Note_on_c, 9, 35, 95
5, 173280, Note_off_c, 9, 42, 95
5, 173280, Note_off_c, 9, 35, 95
5, 173280, Note_on_c, 9, 42, 95
5, 173760, Note_off_c, 9, 42, 95
5, 173760, Note_on_c, 9, 42, 95
5, 173760, Note_on_c, 9, 40, 95
5, 174240, Note_off_c, 9, 42, 95
5, 174240, Note_off_c, 9, 40, 95
5, 174240, Note_on_c, 9, 42, 95
5, 174720, Note_off_c, 9, 42, 95
5, 174720, Note_on_c, 9, 42, 95
5, 174720, Note_on_c, 9, 35, 95
5, 175200, Note_off_c, 9, 42, 95
5, 175200, Note_off_c, 9, 35, 95
5, 175200, Note_on_c, 9, 42, 95
5, 175680, Note_off_c, 9, 42, 95
5, 175680, Note_on_c, 9, 42, 95
5, 175680, Note_on_c, 9, 40, 95
5, 176160, Note_off_c, 9, 42, 95
5, 176160, Note_off_c, 9, 40, 95
5, 176160, Note_on_c, 9, 42, 95
5, 176160, Note_on_c, 9, 35, 95
5, 176640, Note_off_c, 9, 42, 95
5, 176640, Note_off_c, 9, 35, 95
5, 176640, Note_on_c, 9, 42, 95
5, 176640, Note_on_c, 9, 35, 95
5, 177120, Note_off_c, 9, 42, 95
5, 177120, Note_off_c, 9, 35, 95
5, 177120, Note_on_c, 9, 42, 95
5, 177600, Note_off_c, 9, 42, 95
5, 177600, Note_on_c, 9, 42, 95
5, 177600, Note_on_c, 9, 40, 95
5, 178080, Note_off_c, 9, 42, 95
5, 178080, Note_off_c, 9, 40, 95
5, 178080, Note_on_c, 9, 42, 95
5, 178560, Note_off_c, 9, 42, 95
5, 178560, Note_on_c, 9, 42, 95
5, 178560, Note_on_c, 9, 35, 95
5, 179040, Note_off_c, 9, 42, 95
5, 179040, Note_off_c, 9, 35, 95
5, 179040, Note_on_c, 9, 42, 95
5, 179520, Note_off_c, 9, 42, 95
5, 179520, Note_on_c, 9, 42, 95
5, 179520, Note_on_c, 9, 40, 95
5, 180000, Note_off_c, 9, 42, 95
5, 180000, Note_off_c, 9, 40, 95
5, 180000, Note_on_c, 9, 42, 95
5, 180000, Note_on_c, 9, 35, 95
5, 180480, Note_off_c, 9, 42, 95
5, 180480, Note_off_c, 9, 35, 95
5, 180480, Note_on_c, 9, 42, 95
5, 180480, Note_on_c, 9, 35, 95
5, 180960, Note_off_c, 9, 42, 95
5, 180960, Note_off_c, 9, 35, 95
5, 180960, Note_on_c, 9, 42, 95
5, 181440, Note_off_c, 9, 42, 95
5, 181440, Note_on_c, 9, 42, 95
5, 181440, Note_on_c, 9, 40, 95
5, 181920, Note_off_c, 9, 42, 95
5, 181920, Note_off_c, 9, 40, 95
5, 181920, Note_on_c, 9, 42, 95
5, 182400, Note_off_c, 9, 42, 95
5, 182400, Note_on_c, 9, 42, 95
5, 182400, Note_on_c, 9, 35, 95
5, 182880, Note_off_c, 9, 42, 95
5, 182880, Note_off_c, 9, 35, 95
5, 182880, Note_on_c, 9, 42, 95
5, 183360, Note_off_c, 9, 42, 95
5, 183360, Note_on_c, 9, 42, 95
5, 183360, Note_on_c, 9, 40, 95
5, 183840, Note_off_c, 9, 42, 95
5, 183840, Note_off_c, 9, 40, 95
5, 183840, Note_on_c, 9, 42, 95
5, 183840, Note_on_c, 9, 35, 95
5, 184320, Note_off_c, 9, 42, 95
5, 184320, Note_off_c, 9, 35, 95
5, 184320, Note_on_c, 9, 42, 95
5, 184320, Note_on_c, 9, 35, 95
5, 184800, Note_off_c, 9, 42, 95
5, 184800, Note_off_c, 9, 35, 95
5, 184800, Note_on_c, 9, 42, 95
5, 185280, Note_off_c, 9, 42, 95
5, 185280, Note_on_c, 9, 42, 95
5, 185280, Note_on_c, 9, 40, 95
5, 185760, Note_off_c, 9, 42, 95
5, 185760, Note_off_c, 9, 40, 95
5, 185760, Note_on_c, 9, 42, 95
5, 186240, Note_off_c, 9, 42, 95
5, 186240, Note_on_c, 9, 42, 95
5, 186240, Note_on_c, 9, 35, 95
5, 186720, Note_off_c, 9, 42, 95
5, 186720, Note_off_c, 9, 35, 95
5, 186720, Note_on_c, 9, 42, 95
5, 187200, Note_off_c, 9, 42, 95
5, 187200, Note_on_c, 9, 42, 95
5, 187200, Note_on_c, 9, 40, 95
5, 187680, Note_off_c, 9, 42, 95
5, 187680, Note_off_c, 9, 40, 95
5, 187680, Note_on_c, 9, 42, 95
5, 187680, Note_on_c, 9, 35, 95
5, 188160, Note_off_c, 9, 42, 95
5, 188160, Note_off_c, 9, 35, 95
5, 188160, Note_on_c, 9, 42, 95
5, 188160, Note_on_c, 9, 35, 95
5, 188640, Note_off_c, 9, 42, 95
5, 188640, Note_off_c, 9, 35, 95
5, 188640, Note_on_c, 9, 42, 95
5, 189120, Note_off_c, 9, 42, 95
5, 189120, Note_on_c, 9, 42, 95
5, 189120, Note_on_c, 9, 40, 95
5, 189600, Note_off_c, 9, 42, 95
5, 189600, Note_off_c, 9, 40, 95
5, 189600, Note_on_c, 9, 42, 95
5, 190080, Note_off_c, 9, 42, 95
5, 190080, Note_on_c, 9, 42, 95
5, 190080, Note_on_c, 9, 35, 95
5, 190560, Note_off_c, 9, 42, 95
5, 190560, Note_off_c, 9, 35, 95
5, 190560, Note_on_c, 9, 42, 95
5, 191040, Note_off_c, 9, 42, 95
5, 191040, Note_on_c, 9, 42, 95
5, 191040, Note_on_c, 9, 40, 95
5, 191520, Note_off_c, 9, 42, 95
5, 191520, Note_off_c, 9, 40, 95
5, 191520, Note_on_c, 9, 42, 95
5, 191520, Note_on_c, 9, 35, 95
5, 192000, Note_off_c, 9, 42, 95
5, 192000, Note_off_c, 9, 35, 95
5, 192000, Note_on_c, 9, 42, 95
5, 192000, Note_on_c, 9, 35, 95
5, 192480, Note_off_c, 9, 42, 95
5, 192480, Note_off_c, 9, 35, 95
5, 192480, Note_on_c, 9, 42, 95
5, 192960, Note_off_c, 9, 42, 95
5, 192960, Note_on_c, 9, 42, 95
5, 192960, Note_on_c, 9, 40, 95
5, 193440, Note_off_c, 9, 42, 95
5, 193440, Note_off_c, 9, 40, 95
5, 193440, Note_on_c, 9, 42, 95
5, 193920, Note_off_c, 9, 42, 95
5, 193920, Note_on_c, 9, 42, 95
5, 193920, Note_on_c, 9, 35, 95
5, 194400, Note_off_c, 9, 42, 95
5, 194400, Note_off_c, 9, 35, 95
5, 194400, Note_on_c, 9, 42, 95
5, 194880, Note_off_c, 9, 42, 95
5, 194880, Note_on_c, 9, 42, 95
5, 194880, Note_on_c, 9, 40, 95
5, 195360, Note_off_c, 9, 42, 95
5, 195360, Note_off_c, 9, 40, 95
5, 195360, Note_on_c, 9, 42, 95
5, 195360, Note_on_c, 9, 35, 95
5, 195600, Note_off_c, 9, 42, 95
5, 195600, Note_off_c, 9, 35, 95
5, 195600, Note_on_c, 9, 42, 95
5, 195840, Note_off_c, 9, 42, 95
5, 195840, Note_on_c, 9, 42, 95
5, 195840, Note_on_c, 9, 40, 95
5, 195840, Note_on_c, 9, 35, 95
5, 196320, Note_off_c, 9, 42, 95
5, 196320, Note_off_c, 9, 40, 95
5, 196320, Note_off_c, 9, 35, 95
5, 196320, Note_on_c, 9, 46, 95
5, 196800, Note_off_c, 9, 46, 95
5, 196800, Note_on_c, 9, 42, 95
5, 196800, Note_on_c, 9, 40, 95
5, 197760, Note_off_c, 9, 42, 95
5, 197760, Note_off_c, 9, 40, 95
5, 197760, Note_on_c, 9, 57, 95
5, 197760, Note_on_c, 9, 35, 95
5, 198240, Note_off_c, 9, 57, 95
5, 198240, Note_off_c, 9, 35, 95
5, 198240, Note_on_c, 9, 42, 95
5, 198720, Note_off_c, 9, 42, 95
5, 198720, Note_on_c, 9, 42, 95
5, 198720, Note_on_c, 9, 40, 95
5, 199200, Note_off_c, 9, 42, 95
5, 199200, Note_off_c, 9, 40, 95
5, 199200, Note_on_c, 9, 42, 95
5, 199200, Note_on_c, 9, 35, 95
5, 199680, Note_off_c, 9, 42, 95
5, 199680, Note_off_c, 9, 35, 95
5, 199680, Note_on_c, 9, 42, 95
5, 199680, Note_on_c, 9, 35, 95
5, 200160, Note_off_c, 9, 42, 95
5, 200160, Note_off_c, 9, 35, 95
5, 200160, Note_on_c, 9, 42, 95
5, 200640, Note_off_c, 9, 42, 95
5, 200640, Note_on_c, 9, 42, 95
5, 200640, Note_on_c, 9, 40, 95
5, 201120, Note_off_c, 9, 42, 95
5, 201120, Note_off_c, 9, 40, 95
5, 201120, Note_on_c, 9, 42, 95
5, 201600, Note_off_c, 9, 42, 95
5, 201600, Note_on_c, 9, 42, 95
5, 201600, Note_on_c, 9, 35, 95
5, 202080, Note_off_c, 9, 42, 95
5, 202080, Note_off_c, 9, 35, 95
5, 202080, Note_on_c, 9, 42, 95
5, 202560, Note_off_c, 9, 42, 95
5, 202560, Note_on_c, 9, 42, 95
5, 202560, Note_on_c, 9, 40, 95
5, 203040, Note_off_c, 9, 42, 95
5, 203040, Note_off_c, 9, 40, 95
5, 203040, Note_on_c, 9, 42, 95
5, 203040, Note_on_c, 9, 35, 95
5, 203520, Note_off_c, 9, 42, 95
5, 203520, Note_off_c, 9, 35, 95
5, 203520, Note_on_c, 9, 42, 95
5, 203520, Note_on_c, 9, 35, 95
5, 204000, Note_off_c, 9, 42, 95
5, 204000, Note_off_c, 9, 35, 95
5, 204000, Note_on_c, 9, 42, 95
5, 204480, Note_off_c, 9, 42, 95
5, 204480, Note_on_c, 9, 42, 95
5, 204480, Note_on_c, 9, 40, 95
5, 204960, Note_off_c, 9, 42, 95
5, 204960, Note_off_c, 9, 40, 95
5, 204960, Note_on_c, 9, 42, 95
5, 205440, Note_off_c, 9, 42, 95
5, 205440, Note_on_c, 9, 57, 95
5, 205440, Note_on_c, 9, 35, 95
5, 205920, Note_off_c, 9, 57, 95
5, 205920, Note_off_c, 9, 35, 95
5, 205920, Note_on_c, 9, 42, 95
5, 206400, Note_off_c, 9, 42, 95
5, 206400, Note_on_c, 9, 42, 95
5, 206400, Note_on_c, 9, 40, 95
5, 206880, Note_off_c, 9, 42, 95
5, 206880, Note_off_c, 9, 40, 95
5, 206880, Note_on_c, 9, 42, 95
5, 206880, Note_on_c, 9, 35, 95
5, 207360, Note_off_c, 9, 42, 95
5, 207360, Note_off_c, 9, 35, 95
5, 207360, Note_on_c, 9, 42, 95
5, 207360, Note_on_c, 9, 35, 95
5, 207840, Note_off_c, 9, 42, 95
5, 207840, Note_off_c, 9, 35, 95
5, 207840, Note_on_c, 9, 42, 95
5, 208320, Note_off_c, 9, 42, 95
5, 208320, Note_on_c, 9, 42, 95
5, 208320, Note_on_c, 9, 40, 95
5, 208800, Note_off_c, 9, 42, 95
5, 208800, Note_off_c, 9, 40, 95
5, 208800, Note_on_c, 9, 42, 95
5, 209280, Note_off_c, 9, 42, 95
5, 209280, Note_on_c, 9, 42, 95
5, 209280, Note_on_c, 9, 35, 95
5, 209760, Note_off_c, 9, 42, 95
5, 209760, Note_off_c, 9, 35, 95
5, 209760, Note_on_c, 9, 42, 95
5, 210240, Note_off_c, 9, 42, 95
5, 210240, Note_on_c, 9, 42, 95
5, 210240, Note_on_c, 9, 40, 95
5, 210720, Note_off_c, 9, 42, 95
5, 210720, Note_off_c, 9, 40, 95
5, 210720, Note_on_c, 9, 42, 95
5, 210720, Note_on_c, 9, 35, 95
5, 211200, Note_off_c, 9, 42, 95
5, 211200, Note_off_c, 9, 35, 95
5, 211200, Note_on_c, 9, 42, 95
5, 211200, Note_on_c, 9, 35, 95
5, 211680, Note_off_c, 9, 42, 95
5, 211680, Note_off_c, 9, 35, 95
5, 211680, Note_on_c, 9, 46, 95
5, 212160, Note_off_c, 9, 46, 95
5, 212160, Note_on_c, 9, 42, 95
5, 212160, Note_on_c, 9, 40, 95
5, 212640, Note_off_c, 9, 42, 95
5, 212640, Note_off_c, 9, 40, 95
5, 212640, Note_on_c, 9, 42, 95
5, 213120, Note_off_c, 9, 42, 95
5, 213120, Note_on_c, 9, 57, 95
5, 213120, Note_on_c, 9, 35, 95
5, 213600, Note_off_c, 9, 57, 95
5, 213600, Note_off_c, 9, 35, 95
5, 213600, Note_on_c, 9, 42, 95
5, 214080, Note_off_c, 9, 42, 95
5, 214080, Note_on_c, 9, 42, 95
5, 214080, Note_on_c, 9, 40, 95
5, 214560, Note_off_c, 9, 42, 95
5, 214560, Note_off_c, 9, 40, 95
5, 214560, Note_on_c, 9, 42, 95
5, 214560, Note_on_c, 9, 35, 95
5, 215040, Note_off_c, 9, 42, 95
5, 215040, Note_off_c, 9, 35, 95
5, 215040, Note_on_c, 9, 42, 95
5, 215040, Note_on_c, 9, 35, 95
5, 215520, Note_off_c, 9, 42, 95
5, 215520, Note_off_c, 9, 35, 95
5, 215520, Note_on_c, 9, 42, 95
5, 216000, Note_off_c, 9, 42, 95
5, 216000, Note_on_c, 9, 42, 95
5, 216000, Note_on_c, 9, 40, 95
5, 216480, Note_off_c, 9, 42, 95
5, 216480, Note_off_c, 9, 40, 95
5, 216480, Note_on_c, 9, 42, 95
5, 216960, Note_off_c, 9, 42, 95
5, 216960, Note_on_c, 9, 42, 95
5, 216960, Note_on_c, 9, 35, 95
5, 217440, Note_off_c, 9, 42, 95
5, 217440, Note_off_c, 9, 35, 95
5, 217440, Note_on_c, 9, 42, 95
5, 217920, Note_off_c, 9, 42, 95
5, 217920, Note_on_c, 9, 42, 95
5, 217920, Note_on_c, 9, 40, 95
5, 218400, Note_off_c, 9, 42, 95
5, 218400, Note_off_c, 9, 40, 95
5, 218400, Note_on_c, 9, 42, 95
5, 218880, Note_off_c, 9, 42, 95
5, 218880, Note_on_c, 9, 42, 95
5, 218880, Note_on_c, 9, 35, 95
5, 219360, Note_off_c, 9, 42, 95
5, 219360, Note_off_c, 9, 35, 95
5, 219360, Note_on_c, 9, 42, 95
5, 219840, Note_off_c, 9, 42, 95
5, 219840, Note_on_c, 9, 42, 95
5, 219840, Note_on_c, 9, 40, 95
5, 220320, Note_off_c, 9, 42, 95
5, 220320, Note_off_c, 9, 40, 95
5, 220320, Note_on_c, 9, 42, 95
5, 220800, Note_off_c, 9, 42, 95
5, 220800, Note_on_c, 9, 57, 95
5, 220800, Note_on_c, 9, 35, 95
5, 221280, Note_off_c, 9, 57, 95
5, 221280, Note_off_c, 9, 35, 95
5, 221280, Note_on_c, 9, 42, 95
5, 221760, Note_off_c, 9, 42, 95
5, 221760, Note_on_c, 9, 42, 95
5, 221760, Note_on_c, 9, 40, 95
5, 222240, Note_off_c, 9, 42, 95
5, 222240, Note_off_c, 9, 40, 95
5, 222240, Note_on_c, 9, 42, 95
5, 222720, Note_off_c, 9, 42, 95
5, 222720, Note_on_c, 9, 42, 95
5, 222720, Note_on_c, 9, 35, 95
5, 223200, Note_off_c, 9, 42, 95
5, 223200, Note_off_c, 9, 35, 95
5, 223200, Note_on_c, 9, 42, 95
5, 223680, Note_off_c, 9, 42, 95
5, 223680, Note_on_c, 9, 42, 95
5, 223680, Note_on_c, 9, 40, 95
5, 224160, Note_off_c, 9, 42, 95
5, 224160, Note_off_c, 9, 40, 95
5, 224160, Note_on_c, 9, 42, 95
5, 224640, Note_off_c, 9, 42, 95
5, 224640, Note_on_c, 9, 42, 95
5, 224640, Note_on_c, 9, 35, 95
5, 225120, Note_off_c, 9, 42, 95
5, 225120, Note_off_c, 9, 35, 95
5, 225120, Note_on_c, 9, 42, 95
5, 225600, Note_off_c, 9, 42, 95
5, 225600, Note_on_c, 9, 42, 95
5, 225600, Note_on_c, 9, 40, 95
5, 226080, Note_off_c, 9, 42, 95
5, 226080, Note_off_c, 9, 40, 95
5, 226080, Note_on_c, 9, 42, 95
5, 226560, Note_off_c, 9, 42, 95
5, 226560, Note_on_c, 9, 42, 95
5, 226560, Note_on_c, 9, 35, 95
5, 227040, Note_off_c, 9, 42, 95
5, 227040, Note_off_c, 9, 35, 95
5, 227040, Note_on_c, 9, 42, 95
5, 227520, Note_off_c, 9, 42, 95
5, 227520, Note_on_c, 9, 42, 95
5, 227520, Note_on_c, 9, 40, 95
5, 228000, Note_off_c, 9, 42, 95
5, 228000, Note_off_c, 9, 40, 95
5, 228000, Note_on_c, 9, 42, 95
5, 228480, Note_off_c, 9, 42, 95
5, 228480, Note_on_c, 9, 42, 95
5, 228480, Note_on_c, 9, 35, 95
5, 228960, Note_off_c, 9, 42, 95
5, 228960, Note_off_c, 9, 35, 95
5, 228960, Note_on_c, 9, 42, 95
5, 229440, Note_off_c, 9, 42, 95
5, 229440, Note_on_c, 9, 42, 95
5, 229440, Note_on_c, 9, 40, 95
5, 229920, Note_off_c, 9, 42, 95
5, 229920, Note_off_c, 9, 40, 95
5, 229920, Note_on_c, 9, 42, 95
5, 229920, Note_on_c, 9, 35, 95
5, 230400, Note_off_c, 9, 42, 95
5, 230400, Note_off_c, 9, 35, 95
5, 230400, Note_on_c, 9, 42, 95
5, 230400, Note_on_c, 9, 35, 95
5, 230880, Note_off_c, 9, 42, 95
5, 230880, Note_off_c, 9, 35, 95
5, 230880, Note_on_c, 9, 42, 95
5, 231360, Note_off_c, 9, 42, 95
5, 231360, Note_on_c, 9, 42, 95
5, 231360, Note_on_c, 9, 40, 95
5, 231840, Note_off_c, 9, 42, 95
5, 231840, Note_off_c, 9, 40, 95
5, 231840, Note_on_c, 9, 42, 95
5, 232320, Note_off_c, 9, 42, 95
5, 232320, Note_on_c, 9, 42, 95
5, 232320, Note_on_c, 9, 35, 95
5, 232800, Note_off_c, 9, 42, 95
5, 232800, Note_off_c, 9, 35, 95
5, 232800, Note_on_c, 9, 42, 95
5, 233280, Note_off_c, 9, 42, 95
5, 233280, Note_on_c, 9, 42, 95
5, 233280, Note_on_c, 9, 40, 95
5, 233760, Note_off_c, 9, 42, 95
5, 233760, Note_off_c, 9, 40, 95
5, 233760, Note_on_c, 9, 42, 95
5, 233760, Note_on_c, 9, 35, 95
5, 234240, Note_off_c, 9, 42, 95
5, 234240, Note_off_c, 9, 35, 95
5, 234240, Note_on_c, 9, 42, 95
5, 234240, Note_on_c, 9, 35, 95
5, 234720, Note_off_c, 9, 42, 95
5, 234720, Note_off_c, 9, 35, 95
5, 234720, Note_on_c, 9, 42, 95
5, 235200, Note_off_c, 9, 42, 95
5, 235200, Note_on_c, 9, 42, 95
5, 235200, Note_on_c, 9, 40, 95
5, 235680, Note_off_c, 9, 42, 95
5, 235680, Note_off_c, 9, 40, 95
5, 235680, Note_on_c, 9, 42, 95
5, 236160, Note_off_c, 9, 42, 95
5, 236160, Note_on_c, 9, 42, 95
5, 236160, Note_on_c, 9, 35, 95
5, 236640, Note_off_c, 9, 42, 95
5, 236640, Note_off_c, 9, 35, 95
5, 236640, Note_on_c, 9, 42, 95
5, 237120, Note_off_c, 9, 42, 95
5, 237120, Note_on_c, 9, 42, 95
5, 237120, Note_on_c, 9, 40, 95
5, 237600, Note_off_c, 9, 42, 95
5, 237600, Note_off_c, 9, 40, 95
5, 237600, Note_on_c, 9, 42, 95
5, 237600, Note_on_c, 9, 35, 95
5, 238080, Note_off_c, 9, 42, 95
5, 238080, Note_off_c, 9, 35, 95
5, 238080, Note_on_c, 9, 42, 95
5, 238080, Note_on_c, 9, 35, 95
5, 238560, Note_off_c, 9, 42, 95
5, 238560, Note_off_c, 9, 35, 95
5, 238560, Note_on_c, 9, 42, 95
5, 239040, Note_off_c, 9, 42, 95
5, 239040, Note_on_c, 9, 42, 95
5, 239040, Note_on_c, 9, 40, 95
5, 239520, Note_off_c, 9, 42, 95
5, 239520, Note_off_c, 9, 40, 95
5, 239520, Note_on_c, 9, 42, 95
5, 240000, Note_off_c, 9, 42, 95
5, 240000, Note_on_c, 9, 49, 95
5, 240000, Note_on_c, 9, 35, 95
5, 240480, Note_off_c, 9, 49, 95
5, 240480, Note_off_c, 9, 35, 95
5, 240480, Note_on_c, 9, 42, 95
5, 240960, Note_off_c, 9, 42, 95
5, 240960, Note_on_c, 9, 42, 95
5, 240960, Note_on_c, 9, 40, 95
5, 241440, Note_off_c, 9, 42, 95
5, 241440, Note_off_c, 9, 40, 95
5, 241440, Note_on_c, 9, 42, 95
5, 241440, Note_on_c, 9, 35, 95
5, 241920, Note_off_c, 9, 42, 95
5, 241920, Note_off_c, 9, 35, 95
5, 241920, Note_on_c, 9, 49, 95
5, 241920, Note_on_c, 9, 35, 95
5, 242400, Note_off_c, 9, 49, 95
5, 242400, Note_off_c, 9, 35, 95
5, 242400, Note_on_c, 9, 42, 95
5, 242880, Note_off_c, 9, 42, 95
5, 242880, Note_on_c, 9, 42, 95
5, 242880, Note_on_c, 9, 40, 95
5, 243360, Note_off_c, 9, 42, 95
5, 243360, Note_off_c, 9, 40, 95
5, 243360, Note_on_c, 9, 42, 95
5, 243840, Note_off_c, 9, 42, 95
5, 243840, Note_on_c, 9, 49, 95
5, 243840, Note_on_c, 9, 35, 95
5, 244320, Note_off_c, 9, 49, 95
5, 244320, Note_off_c, 9, 35, 95
5, 244320, Note_on_c, 9, 42, 95
5, 244800, Note_off_c, 9, 42, 95
5, 244800, Note_on_c, 9, 42, 95
5, 244800, Note_on_c, 9, 40, 95
5, 245280, Note_off_c, 9, 42, 95
5, 245280, Note_off_c, 9, 40, 95
5, 245280, Note_on_c, 9, 42, 95
5, 245760, Note_off_c, 9, 42, 95
5, 245760, Note_on_c, 9, 42, 95
5, 245760, Note_on_c, 9, 35, 95
5, 246240, Note_off_c, 9, 42, 95
5, 246240, Note_off_c, 9, 35, 95
5, 246240, Note_on_c, 9, 42, 95
5, 246720, Note_off_c, 9, 42, 95
5, 246720, Note_on_c, 9, 42, 95
5, 246720, Note_on_c, 9, 40, 95
5, 247200, Note_off_c, 9, 42, 95
5, 247200, Note_off_c, 9, 40, 95
5, 247200, Note_on_c, 9, 42, 95
5, 247680, Note_off_c, 9, 42, 95
5, 247680, Note_on_c, 9, 42, 95
5, 247680, Note_on_c, 9, 35, 95
5, 248160, Note_off_c, 9, 42, 95
5, 248160, Note_off_c, 9, 35, 95
5, 248160, Note_on_c, 9, 42, 95
5, 248640, Note_off_c, 9, 42, 95
5, 248640, Note_on_c, 9, 42, 95
5, 248640, Note_on_c, 9, 40, 95
5, 249120, Note_off_c, 9, 42, 95
5, 249120, Note_off_c, 9, 40, 95
5, 249120, Note_on_c, 9, 42, 95
5, 249600, Note_off_c, 9, 42, 95
5, 249600, Note_on_c, 9, 42, 95
5, 249600, Note_on_c, 9, 35, 95
5, 250080, Note_off_c, 9, 42, 95
5, 250080, Note_off_c, 9, 35, 95
5, 250080, Note_on_c, 9, 42, 95
5, 250560, Note_off_c, 9, 42, 95
5, 250560, Note_on_c, 9, 42, 95
5, 250560, Note_on_c, 9, 40, 95
5, 251040, Note_off_c, 9, 42, 95
5, 251040, Note_off_c, 9, 40, 95
5, 251040, Note_on_c, 9, 42, 95
5, 251520, Note_off_c, 9, 42, 95
5, 251520, Note_on_c, 9, 42, 95
5, 251520, Note_on_c, 9, 35, 95
5, 252000, Note_off_c, 9, 42, 95
5, 252000, Note_off_c, 9, 35, 95
5, 252000, Note_on_c, 9, 42, 95
5, 252480, Note_off_c, 9, 42, 95
5, 252480, Note_on_c, 9, 42, 95
5, 252480, Note_on_c, 9, 40, 95
5, 252960, Note_off_c, 9, 42, 95
5, 252960, Note_off_c, 9, 40, 95
5, 252960, Note_on_c, 9, 42, 95
5, 253440, Note_off_c, 9, 42, 95
5, 253440, Note_on_c, 9, 42, 95
5, 253440, Note_on_c, 9, 35, 95
5, 253920, Note_off_c, 9, 42, 95
5, 253920, Note_off_c, 9, 35, 95
5, 253920, Note_on_c, 9, 42, 95
5, 254400, Note_off_c, 9, 42, 95
5, 254400, Note_on_c, 9, 42, 95
5, 254400, Note_on_c, 9, 40, 95
5, 254880, Note_off_c, 9, 42, 95
5, 254880, Note_off_c, 9, 40, 95
5, 254880, Note_on_c, 9, 42, 95
5, 255360, Note_off_c, 9, 42, 95
5, 255360, Note_on_c, 9, 42, 95
5, 255360, Note_on_c, 9, 35, 95
5, 255840, Note_off_c, 9, 42, 95
5, 255840, Note_off_c, 9, 35, 95
5, 255840, Note_on_c, 9, 42, 95
5, 256320, Note_off_c, 9, 42, 95
5, 256320, Note_on_c, 9, 42, 95
5, 256320, Note_on_c, 9, 40, 95
5, 256800, Note_off_c, 9, 42, 95
5, 256800, Note_off_c, 9, 40, 95
5, 256800, Note_on_c, 9, 46, 95
5, 257280, Note_off_c, 9, 46, 95
5, 257280, Note_on_c, 9, 42, 95
5, 257280, Note_on_c, 9, 35, 95
5, 257760, Note_off_c, 9, 42, 95
5, 257760, Note_off_c, 9, 35, 95
5, 257760, Note_on_c, 9, 42, 95
5, 258240, Note_off_c, 9, 42, 95
5, 258240, Note_on_c, 9, 42, 95
5, 258240, Note_on_c, 9, 40, 95
5, 258720, Note_off_c, 9, 42, 95
5, 258720, Note_off_c, 9, 40, 95
5, 258720, Note_on_c, 9, 42, 95
5, 258720, Note_on_c, 9, 35, 95
5, 259200, Note_off_c, 9, 42, 95
5, 259200, Note_off_c, 9, 35, 95
5, 259200, Note_on_c, 9, 42, 95
5, 259200, Note_on_c, 9, 35, 95
5, 259680, Note_off_c, 9, 42, 95
5, 259680, Note_off_c, 9, 35, 95
5, 259680, Note_on_c, 9, 42, 95
5, 260160, Note_off_c, 9, 42, 95
5, 260160, Note_on_c, 9, 42, 95
5, 260160, Note_on_c, 9, 40, 95
5, 260640, Note_off_c, 9, 42, 95
5, 260640, Note_off_c, 9, 40, 95
5, 260640, Note_on_c, 9, 42, 95
5, 261120, Note_off_c, 9, 42, 95
5, 261120, Note_on_c, 9, 42, 95
5, 261120, Note_on_c, 9, 35, 95
5, 261600, Note_off_c, 9, 42, 95
5, 261600, Note_off_c, 9, 35, 95
5, 261600, Note_on_c, 9, 42, 95
5, 262080, Note_off_c, 9, 42, 95
5, 262080, Note_on_c, 9, 42, 95
5, 262080, Note_on_c, 9, 40, 95
5, 262560, Note_off_c, 9, 42, 95
5, 262560, Note_off_c, 9, 40, 95
5, 262560, Note_on_c, 9, 42, 95
5, 262560, Note_on_c, 9, 35, 95
5, 263040, Note_off_c, 9, 42, 95
5, 263040, Note_off_c, 9, 35, 95
5, 263040, Note_on_c, 9, 42, 95
5, 263040, Note_on_c, 9, 35, 95
5, 263520, Note_off_c, 9, 42, 95
5, 263520, Note_off_c, 9, 35, 95
5, 263520, Note_on_c, 9, 42, 95
5, 264000, Note_off_c, 9, 42, 95
5, 264000, Note_on_c, 9, 42, 95
5, 264000, Note_on_c, 9, 40, 95
5, 264480, Note_off_c, 9, 42, 95
5, 264480, Note_off_c, 9, 40, 95
5, 264480, Note_on_c, 9, 42, 95
5, 264960, Note_off_c, 9, 42, 95
5, 264960, Note_on_c, 9, 42, 95
5, 264960, Note_on_c, 9, 35, 95
5, 265440, Note_off_c, 9, 42, 95
5, 265440, Note_off_c, 9, 35, 95
5, 265440, Note_on_c, 9, 42, 95
5, 265920, Note_off_c, 9, 42, 95
5, 265920, Note_on_c, 9, 42, 95
5, 265920, Note_on_c, 9, 40, 95
5, 266400, Note_off_c, 9, 42, 95
5, 266400, Note_off_c, 9, 40, 95
5, 266400, Note_on_c, 9, 42, 95
5, 266400, Note_on_c, 9, 35, 95
5, 266880, Note_off_c, 9, 42, 95
5, 266880, Note_off_c, 9, 35, 95
5, 266880, Note_on_c, 9, 42, 95
5, 266880, Note_on_c, 9, 35, 95
5, 267360, Note_off_c, 9, 42, 95
5, 267360, Note_off_c, 9, 35, 95
5, 267360, Note_on_c, 9, 42, 95
5, 267840, Note_off_c, 9, 42, 95
5, 267840, Note_on_c, 9, 42, 95
5, 267840, Note_on_c, 9, 40, 95
5, 268320, Note_off_c, 9, 42, 95
5, 268320, Note_off_c, 9, 40, 95
5, 268320, Note_on_c, 9, 42, 95
5, 268800, Note_off_c, 9, 42, 95
5, 268800, Note_on_c, 9, 42, 95
5, 268800, Note_on_c, 9, 35, 95
5, 269280, Note_off_c, 9, 42, 95
5, 269280, Note_off_c, 9, 35, 95
5, 269280, Note_on_c, 9, 42, 95
5, 269760, Note_off_c, 9, 42, 95
5, 269760, Note_on_c, 9, 42, 95
5, 269760, Note_on_c, 9, 40, 95
5, 270240, Note_off_c, 9, 42, 95
5, 270240, Note_off_c, 9, 40, 95
5, 270240, Note_on_c, 9, 42, 95
5, 270240, Note_on_c, 9, 35, 95
5, 270720, Note_off_c, 9, 42, 95
5, 270720, Note_off_c, 9, 35, 95
5, 270720, Note_on_c, 9, 42, 95
5, 270720, Note_on_c, 9, 35, 95
5, 271200, Note_off_c, 9, 42, 95
5, 271200, Note_off_c, 9, 35, 95
5, 271200, Note_on_c, 9, 42, 95
5, 271680, Note_off_c, 9, 42, 95
5, 271680, Note_on_c, 9, 42, 95
5, 271680, Note_on_c, 9, 40, 95
5, 272160, Note_off_c, 9, 42, 95
5, 272160, Note_off_c, 9, 40, 95
5, 272160, Note_on_c, 9, 42, 95
5, 272640, Note_off_c, 9, 42, 95
5, 272640, Note_on_c, 9, 42, 95
5, 272640, Note_on_c, 9, 35, 95
5, 273120, Note_off_c, 9, 42, 95
5, 273120, Note_off_c, 9, 35, 95
5, 273120, Note_on_c, 9, 42, 95
5, 273600, Note_off_c, 9, 42, 95
5, 273600, Note_on_c, 9, 42, 95
5, 273600, Note_on_c, 9, 40, 95
5, 274080, Note_off_c, 9, 42, 95
5, 274080, Note_off_c, 9, 40, 95
5, 274080, Note_on_c, 9, 42, 95
5, 274080, Note_on_c, 9, 35, 95
5, 274560, Note_off_c, 9, 42, 95
5, 274560, Note_off_c, 9, 35, 95
5, 274560, Note_on_c, 9, 42, 95
5, 274560, Note_on_c, 9, 35, 95
5, 275040, Note_off_c, 9, 42, 95
5, 275040, Note_off_c, 9, 35, 95
5, 275040, Note_on_c, 9, 42, 95
5, 275520, Note_off_c, 9, 42, 95
5, 275520, Note_on_c, 9, 42, 95
5, 275520, Note_on_c, 9, 40, 95
5, 276000, Note_off_c, 9, 42, 95
5, 276000, Note_off_c, 9, 40, 95
5, 276000, Note_on_c, 9, 42, 95
5, 276480, Note_off_c, 9, 42, 95
5, 276480, Note_on_c, 9, 42, 95
5, 276480, Note_on_c, 9, 35, 95
5, 276960, Note_off_c, 9, 42, 95
5, 276960, Note_off_c, 9, 35, 95
5, 276960, Note_on_c, 9, 42, 95
5, 277440, Note_off_c, 9, 42, 95
5, 277440, Note_on_c, 9, 42, 95
5, 277440, Note_on_c, 9, 40, 95
5, 277920, Note_off_c, 9, 42, 95
5, 277920, Note_off_c, 9, 40, 95
5, 277920, Note_on_c, 9, 42, 95
5, 277920, Note_on_c, 9, 35, 95
5, 278400, Note_off_c, 9, 42, 95
5, 278400, Note_off_c, 9, 35, 95
5, 278400, Note_on_c, 9, 42, 95
5, 278400, Note_on_c, 9, 35, 95
5, 278880, Note_off_c, 9, 42, 95
5, 278880, Note_off_c, 9, 35, 95
5, 278880, Note_on_c, 9, 42, 95
5, 279360, Note_off_c, 9, 42, 95
5, 279360, Note_on_c, 9, 42, 95
5, 279360, Note_on_c, 9, 40, 95
5, 279840, Note_off_c, 9, 42, 95
5, 279840, Note_off_c, 9, 40, 95
5, 279840, Note_on_c, 9, 42, 95
5, 280320, Note_off_c, 9, 42, 95
5, 280320, Note_on_c, 9, 42, 95
5, 280320, Note_on_c, 9, 35, 95
5, 280800, Note_off_c, 9, 42, 95
5, 280800, Note_off_c, 9, 35, 95
5, 280800, Note_on_c, 9, 42, 95
5, 281280, Note_off_c, 9, 42, 95
5, 281280, Note_on_c, 9, 42, 95
5, 281280, Note_on_c, 9, 40, 95
5, 281760, Note_off_c, 9, 42, 95
5, 281760, Note_off_c, 9, 40, 95
5, 281760, Note_on_c, 9, 42, 95
5, 281760, Note_on_c, 9, 35, 95
5, 282240, Note_off_c, 9, 42, 95
5, 282240, Note_off_c, 9, 35, 95
5, 282240, Note_on_c, 9, 42, 95
5, 282240, Note_on_c, 9, 35, 95
5, 282720, Note_off_c, 9, 42, 95
5, 282720, Note_off_c, 9, 35, 95
5, 282720, Note_on_c, 9, 42, 95
5, 283200, Note_off_c, 9, 42, 95
5, 283200, Note_on_c, 9, 42, 95
5, 283200, Note_on_c, 9, 40, 95
5, 283680, Note_off_c, 9, 42, 95
5, 283680, Note_off_c, 9, 40, 95
5, 283680, Note_on_c, 9, 42, 95
5, 284160, Note_off_c, 9, 42, 95
5, 284160, Note_on_c, 9, 42, 95
5, 284160, Note_on_c, 9, 35, 95
5, 284640, Note_off_c, 9, 42, 95
5, 284640, Note_off_c, 9, 35, 95
5, 284640, Note_on_c, 9, 42, 95
5, 285120, Note_off_c, 9, 42, 95
5, 285120, Note_on_c, 9, 42, 95
5, 285120, Note_on_c, 9, 40, 95
5, 285600, Note_off_c, 9, 42, 95
5, 285600, Note_off_c, 9, 40, 95
5, 285600, Note_on_c, 9, 46, 95
5, 286080, Note_off_c, 9, 46, 95
5, 286080, Note_on_c, 9, 42, 95
5, 286080, Note_on_c, 9, 40, 95
5, 286560, Note_off_c, 9, 42, 95
5, 286560, Note_off_c, 9, 40, 95
5, 286560, Note_on_c, 9, 46, 95
5, 287040, Note_off_c, 9, 46, 95
5, 287040, Note_on_c, 9, 42, 95
5, 287040, Note_on_c, 9, 40, 95
5, 287520, Note_off_c, 9, 42, 95
5, 287520, Note_off_c, 9, 40, 95
5, 287520, Note_on_c, 9, 46, 95
5, 288000, Note_off_c, 9, 46, 95
5, 288000, Note_on_c, 9, 57, 95
5, 288000, Note_on_c, 9, 35, 95
5, 288480, Note_off_c, 9, 57, 95
5, 288480, Note_off_c, 9, 35, 95
5, 288480, Note_on_c, 9, 42, 95
5, 288960, Note_off_c, 9, 42, 95
5, 288960, Note_on_c, 9, 42, 95
5, 288960, Note_on_c, 9, 40, 95
5, 289440, Note_off_c, 9, 42, 95
5, 289440, Note_off_c, 9, 40, 95
5, 289440, Note_on_c, 9, 42, 95
5, 289920, Note_off_c, 9, 42, 95
5, 289920, Note_on_c, 9, 42, 95
5, 289920, Note_on_c, 9, 35, 95
5, 290400, Note_off_c, 9, 42, 95
5, 290400, Note_off_c, 9, 35, 95
5, 290400, Note_on_c, 9, 42, 95
5, 290880, Note_off_c, 9, 42, 95
5, 290880, Note_on_c, 9, 42, 95
5, 290880, Note_on_c, 9, 40, 95
5, 291360, Note_off_c, 9, 42, 95
5, 291360, Note_off_c, 9, 40, 95
5, 291360, Note_on_c, 9, 42, 95
5, 291840, Note_off_c, 9, 42, 95
5, 291840, Note_on_c, 9, 42, 95
5, 291840, Note_on_c, 9, 35, 95
5, 292320, Note_off_c, 9, 42, 95
5, 292320, Note_off_c, 9, 35, 95
5, 292320, Note_on_c, 9, 42, 95
5, 292800, Note_off_c, 9, 42, 95
5, 292800, Note_on_c, 9, 42, 95
5, 292800, Note_on_c, 9, 40, 95
5, 293280, Note_off_c, 9, 42, 95
5, 293280, Note_off_c, 9, 40, 95
5, 293280, Note_on_c, 9, 42, 95
5, 293760, Note_off_c, 9, 42, 95
5, 293760, Note_on_c, 9, 42, 95
5, 293760, Note_on_c, 9, 35, 95
5, 294240, Note_off_c, 9, 42, 95
5, 294240, Note_off_c, 9, 35, 95
5, 294240, Note_on_c, 9, 46, 95
5, 294720, Note_off_c, 9, 46, 95
5, 294720, Note_on_c, 9, 44, 95
5, 294720, Note_on_c, 9, 40, 95
5, 295200, Note_off_c, 9, 44, 95
5, 295200, Note_off_c, 9, 40, 95
5, 295200, Note_on_c, 9, 40, 95
5, 295440, Note_off_c, 9, 40, 95
5, 295440, Note_on_c, 9, 40, 95
5, 295680, Note_off_c, 9, 40, 95
5, 295680, Note_on_c, 9, 57, 95
5, 295680, Note_on_c, 9, 35, 95
5, 296160, Note_off_c, 9, 57, 95
5, 296160, Note_off_c, 9, 35, 95
5, 296160, Note_on_c, 9, 42, 95
5, 296640, Note_off_c, 9, 42, 95
5, 296640, Note_on_c, 9, 42, 95
5, 296640, Note_on_c, 9, 40, 95
5, 297120, Note_off_c, 9, 42, 95
5, 297120, Note_off_c, 9, 40, 95
5, 297120, Note_on_c, 9, 42, 95
5, 297600, Note_off_c, 9, 42, 95
5, 297600, Note_on_c, 9, 42, 95
5, 297600, Note_on_c, 9, 35, 95
5, 298080, Note_off_c, 9, 42, 95
5, 298080, Note_off_c, 9, 35, 95
5, 298080, Note_on_c, 9, 42, 95
5, 298560, Note_off_c, 9, 42, 95
5, 298560, Note_on_c, 9, 42, 95
5, 298560, Note_on_c, 9, 40, 95
5, 299040, Note_off_c, 9, 42, 95
5, 299040, Note_off_c, 9, 40, 95
5, 299040, Note_on_c, 9, 42, 95
5, 299520, Note_off_c, 9, 42, 95
5, 299520, Note_on_c, 9, 42, 95
5, 299520, Note_on_c, 9, 35, 95
5, 300000, Note_off_c, 9, 42, 95
5, 300000, Note_off_c, 9, 35, 95
5, 300000, Note_on_c, 9, 42, 95
5, 300480, Note_off_c, 9, 42, 95
5, 300480, Note_on_c, 9, 42, 95
5, 300480, Note_on_c, 9, 40, 95
5, 300960, Note_off_c, 9, 42, 95
5, 300960, Note_off_c, 9, 40, 95
5, 300960, Note_on_c, 9, 42, 95
5, 301440, Note_off_c, 9, 42, 95
5, 301440, Note_on_c, 9, 42, 95
5, 301440, Note_on_c, 9, 35, 95
5, 301920, Note_off_c, 9, 42, 95
5, 301920, Note_off_c, 9, 35, 95
5, 301920, Note_on_c, 9, 46, 95
5, 302400, Note_off_c, 9, 46, 95
5, 302400, Note_on_c, 9, 44, 95
5, 302400, Note_on_c, 9, 40, 95
5, 302880, Note_off_c, 9, 44, 95
5, 302880, Note_off_c, 9, 40, 95
5, 302880, Note_on_c, 9, 42, 95
5, 303360, Note_off_c, 9, 42, 95
5, 303360, Note_on_c, 9, 57, 95
5, 303360, Note_on_c, 9, 35, 95
5, 303840, Note_off_c, 9, 57, 95
5, 303840, Note_off_c, 9, 35, 95
5, 303840, Note_on_c, 9, 42, 95
5, 304320, Note_off_c, 9, 42, 95
5, 304320, Note_on_c, 9, 42, 95
5, 304320, Note_on_c, 9, 40, 95
5, 304800, Note_off_c, 9, 42, 95
5, 304800, Note_off_c, 9, 40, 95
5, 304800, Note_on_c, 9, 42, 95
5, 305280, Note_off_c, 9, 42, 95
5, 305280, Note_on_c, 9, 42, 95
5, 305280, Note_on_c, 9, 35, 95
5, 305760, Note_off_c, 9, 42, 95
5, 305760, Note_off_c, 9, 35, 95
5, 305760, Note_on_c, 9, 42, 95
5, 306240, Note_off_c, 9, 42, 95
5, 306240, Note_on_c, 9, 42, 95
5, 306240, Note_on_c, 9, 40, 95
5, 306720, Note_off_c, 9, 42, 95
5, 306720, Note_off_c, 9, 40, 95
5, 306720, Note_on_c, 9, 42, 95
5, 307200, Note_off_c, 9, 42, 95
5, 307200, Note_on_c, 9, 42, 95
5, 307200, Note_on_c, 9, 35, 95
5, 307680, Note_off_c, 9, 42, 95
5, 307680, Note_off_c, 9, 35, 95
5, 307680, Note_on_c, 9, 42, 95
5, 308160, Note_off_c, 9, 42, 95
5, 308160, Note_on_c, 9, 42, 95
5, 308160, Note_on_c, 9, 40, 95
5, 308640, Note_off_c, 9, 42, 95
5, 308640, Note_off_c, 9, 40, 95
5, 308640, Note_on_c, 9, 42, 95
5, 309120, Note_off_c, 9, 42, 95
5, 309120, Note_on_c, 9, 42, 95
5, 309120, Note_on_c, 9, 35, 95
5, 309600, Note_off_c, 9, 42, 95
5, 309600, Note_off_c, 9, 35, 95
5, 309600, Note_on_c, 9, 46, 95
5, 310080, Note_off_c, 9, 46, 95
5, 310080, Note_on_c, 9, 44, 95
5, 310080, Note_on_c, 9, 40, 95
5, 310560, Note_off_c, 9, 44, 95
5, 310560, Note_off_c, 9, 40, 95
5, 310560, Note_on_c, 9, 42, 95
5, 311040, Note_off_c, 9, 42, 95
5, 311040, Note_on_c, 9, 57, 95
5, 311040, Note_on_c, 9, 35, 95
5, 311520, Note_off_c, 9, 57, 95
5, 311520, Note_off_c, 9, 35, 95
5, 311520, Note_on_c, 9, 42, 95
5, 312000, Note_off_c, 9, 42, 95
5, 312000, Note_on_c, 9, 42, 95
5, 312000, Note_on_c, 9, 40, 95
5, 312480, Note_off_c, 9, 42, 95
5, 312480, Note_off_c, 9, 40, 95
5, 312480, Note_on_c, 9, 42, 95
5, 312960, Note_off_c, 9, 42, 95
5, 312960, Note_on_c, 9, 42, 95
5, 312960, Note_on_c, 9, 35, 95
5, 313440, Note_off_c, 9, 42, 95
5, 313440, Note_off_c, 9, 35, 95
5, 313440, Note_on_c, 9, 42, 95
5, 313920, Note_off_c, 9, 42, 95
5, 313920, Note_on_c, 9, 42, 95
5, 313920, Note_on_c, 9, 40, 95
5, 314400, Note_off_c, 9, 42, 95
5, 314400, Note_off_c, 9, 40, 95
5, 314400, Note_on_c, 9, 46, 95
5, 314880, Note_off_c, 9, 46, 95
5, 314880, Note_on_c, 9, 44, 95
5, 314880, Note_on_c, 9, 40, 95
5, 315120, Note_off_c, 9, 44, 95
5, 315120, Note_off_c, 9, 40, 95
5, 315120, Note_on_c, 9, 40, 95
5, 315360, Note_off_c, 9, 40, 95
5, 315360, Note_on_c, 9, 40, 95
5, 315600, Note_off_c, 9, 40, 95
5, 315600, Note_on_c, 9, 40, 95
5, 315840, Note_off_c, 9, 40, 95
5, 315840, Note_on_c, 9, 40, 95
5, 316080, Note_off_c, 9, 40, 95
5, 316080, Note_on_c, 9, 40, 95
5, 316320, Note_off_c, 9, 40, 95
5, 316320, Note_on_c, 9, 40, 95
5, 316560, Note_off_c, 9, 40, 95
5, 316560, Note_on_c, 9, 40, 95
5, 316800, Note_off_c, 9, 40, 95
5, 316800, Note_on_c, 9, 40, 95
5, 317040, Note_off_c, 9, 40, 95
5, 317040, Note_on_c, 9, 40, 95
5, 317280, Note_off_c, 9, 40, 95
5, 317280, Note_on_c, 9, 40, 95
5, 317520, Note_off_c, 9, 40, 95
5, 317520, Note_on_c, 9, 40, 95
5, 317760, Note_off_c, 9, 40, 95
5, 317760, Note_on_c, 9, 40, 95
5, 318000, Note_off_c, 9, 40, 95
5, 318000, Note_on_c, 9, 40, 95
5, 318240, Note_off_c, 9, 40, 95
5, 318240, Note_on_c, 9, 40, 95
5, 318480, Note_off_c, 9, 40, 95
5, 318480, Note_on_c, 9, 40, 95
5, 318720, Note_off_c, 9, 40, 95
5, 318720, Note_on_c, 9, 57, 95
5, 318720, Note_on_c, 9, 35, 95
5, 319200, Note_off_c, 9, 57, 95
5, 319200, Note_off_c, 9, 35, 95
5, 319200, Note_on_c, 9, 42, 95
5, 319680, Note_off_c, 9, 42, 95
5, 319680, Note_on_c, 9, 42, 95
5, 319680, Note_on_c, 9, 40, 95
5, 320160, Note_off_c, 9, 42, 95
5, 320160, Note_off_c, 9, 40, 95
5, 320160, Note_on_c, 9, 42, 95
5, 320640, Note_off_c, 9, 42, 95
5, 320640, Note_on_c, 9, 42, 95
5, 320640, Note_on_c, 9, 35, 95
5, 321120, Note_off_c, 9, 42, 95
5, 321120, Note_off_c, 9, 35, 95
5, 321120, Note_on_c, 9, 42, 95
5, 321600, Note_off_c, 9, 42, 95
5, 321600, Note_on_c, 9, 42, 95
5, 321600, Note_on_c, 9, 40, 95
5, 322080, Note_off_c, 9, 42, 95
5, 322080, Note_off_c, 9, 40, 95
5, 322080, Note_on_c, 9, 42, 95
5, 322560, Note_off_c, 9, 42, 95
5, 322560, Note_on_c, 9, 42, 95
5, 322560, Note_on_c, 9, 35, 95
5, 323040, Note_off_c, 9, 42, 95
5, 323040, Note_off_c, 9, 35, 95
5, 323040, Note_on_c, 9, 42, 95
5, 323520, Note_off_c, 9, 42, 95
5, 323520, Note_on_c, 9, 42, 95
5, 323520, Note_on_c, 9, 40, 95
5, 324000, Note_off_c, 9, 42, 95
5, 324000, Note_off_c, 9, 40, 95
5, 324000, Note_on_c, 9, 42, 95
5, 324480, Note_off_c, 9, 42, 95
5, 324480, Note_on_c, 9, 42, 95
5, 324480, Note_on_c, 9, 35, 95
5, 324960, Note_off_c, 9, 42, 95
5, 324960, Note_off_c, 9, 35, 95
5, 324960, Note_on_c, 9, 46, 95
5, 325440, Note_off_c, 9, 46, 95
5, 325440, Note_on_c, 9, 44, 95
5, 325440, Note_on_c, 9, 40, 95
5, 325920, Note_off_c, 9, 44, 95
5, 325920, Note_off_c, 9, 40, 95
5, 325920, Note_on_c, 9, 40, 95
5, 326160, Note_off_c, 9, 40, 95
5, 326160, Note_on_c, 9, 40, 95
5, 326400, Note_off_c, 9, 40, 95
5, 326400, Note_on_c, 9, 57, 95
5, 326400, Note_on_c, 9, 35, 95
5, 326880, Note_off_c, 9, 57, 95
5, 326880, Note_off_c, 9, 35, 95
5, 326880, Note_on_c, 9, 42, 95
5, 327360, Note_off_c, 9, 42, 95
5, 327360, Note_on_c, 9, 42, 95
5, 327360, Note_on_c, 9, 40, 95
5, 327840, Note_off_c, 9, 42, 95
5, 327840, Note_off_c, 9, 40, 95
5, 327840, Note_on_c, 9, 42, 95
5, 328320, Note_off_c, 9, 42, 95
5, 328320, Note_on_c, 9, 42, 95
5, 328320, Note_on_c, 9, 35, 95
5, 328800, Note_off_c, 9, 42, 95
5, 328800, Note_off_c, 9, 35, 95
5, 328800, Note_on_c, 9, 42, 95
5, 329280, Note_off_c, 9, 42, 95
5, 329280, Note_on_c, 9, 42, 95
5, 329280, Note_on_c, 9, 40, 95
5, 329760, Note_off_c, 9, 42, 95
5, 329760, Note_off_c, 9, 40, 95
5, 329760, Note_on_c, 9, 42, 95
5, 330240, Note_off_c, 9, 42, 95
5, 330240, Note_on_c, 9, 42, 95
5, 330240, Note_on_c, 9, 35, 95
5, 330720, Note_off_c, 9, 42, 95
5, 330720, Note_off_c, 9, 35, 95
5, 330720, Note_on_c, 9, 42, 95
5, 331200, Note_off_c, 9, 42, 95
5, 331200, Note_on_c, 9, 42, 95
5, 331200, Note_on_c, 9, 40, 95
5, 331680, Note_off_c, 9, 42, 95
5, 331680, Note_off_c, 9, 40, 95
5, 331680, Note_on_c, 9, 46, 95
5, 332160, Note_off_c, 9, 46, 95
5, 332160, Note_on_c, 9, 42, 95
5, 332160, Note_on_c, 9, 40, 95
5, 332400, Note_off_c, 9, 42, 95
5, 332400, Note_off_c, 9, 40, 95
5, 332400, Note_on_c, 9, 40, 95
5, 332640, Note_off_c, 9, 40, 95
5, 332640, Note_on_c, 9, 40, 95
5, 332880, Note_off_c, 9, 40, 95
5, 332880, Note_on_c, 9, 40, 95
5, 333120, Note_off_c, 9, 40, 95
5, 333120, Note_on_c, 9, 40, 95
5, 333360, Note_off_c, 9, 40, 95
5, 333360, Note_on_c, 9, 40, 95
5, 333600, Note_off_c, 9, 40, 95
5, 333600, Note_on_c, 9, 40, 95
5, 333840, Note_off_c, 9, 40, 95
5, 333840, Note_on_c, 9, 40, 95
5, 334080, Note_off_c, 9, 40, 95
5, 334080, Note_on_c, 9, 57, 95
5, 334080, Note_on_c, 9, 35, 95
5, 334560, Note_off_c, 9, 57, 95
5, 334560, Note_off_c, 9, 35, 95
5, 334560, Note_on_c, 9, 42, 95
5, 335040, Note_off_c, 9, 42, 95
5, 335040, Note_on_c, 9, 42, 95
5, 335040, Note_on_c, 9, 40, 95
5, 335520, Note_off_c, 9, 42, 95
5, 335520, Note_off_c, 9, 40, 95
5, 335520, Note_on_c, 9, 42, 95
5, 336000, Note_off_c, 9, 42, 95
5, 336000, Note_on_c, 9, 42, 95
5, 336000, Note_on_c, 9, 35, 95
5, 336480, Note_off_c, 9, 42, 95
5, 336480, Note_off_c, 9, 35, 95
5, 336480, Note_on_c, 9, 42, 95
5, 336960, Note_off_c, 9, 42, 95
5, 336960, Note_on_c, 9, 42, 95
5, 336960, Note_on_c, 9, 40, 95
5, 337440, Note_off_c, 9, 42, 95
5, 337440, Note_off_c, 9, 40, 95
5, 337440, Note_on_c, 9, 42, 95
5, 337920, Note_off_c, 9, 42, 95
5, 337920, Note_on_c, 9, 57, 95
5, 337920, Note_on_c, 9, 35, 95
5, 338400, Note_off_c, 9, 57, 95
5, 338400, Note_off_c, 9, 35, 95
5, 338400, Note_on_c, 9, 42, 95
5, 338880, Note_off_c, 9, 42, 95
5, 338880, Note_on_c, 9, 42, 95
5, 338880, Note_on_c, 9, 40, 95
5, 339360, Note_off_c, 9, 42, 95
5, 339360, Note_off_c, 9, 40, 95
5, 339360, Note_on_c, 9, 42, 95
5, 339840, Note_off_c, 9, 42, 95
5, 339840, Note_on_c, 9, 42, 95
5, 339840, Note_on_c, 9, 35, 95
5, 340320, Note_off_c, 9, 42, 95
5, 340320, Note_off_c, 9, 35, 95
5, 340320, Note_on_c, 9, 46, 95
5, 340800, Note_off_c, 9, 46, 95
5, 340800, Note_on_c, 9, 44, 95
5, 340800, Note_on_c, 9, 40, 95
5, 341040, Note_off_c, 9, 44, 95
5, 341040, Note_off_c, 9, 40, 95
5, 341040, Note_on_c, 9, 40, 95
5, 341280, Note_off_c, 9, 40, 95
5, 341280, Note_on_c, 9, 40, 95
5, 341520, Note_off_c, 9, 40, 95
5, 341520, Note_on_c, 9, 40, 95
5, 341760, Note_off_c, 9, 40, 95
5, 341760, Note_on_c, 9, 57, 95
5, 341760, Note_on_c, 9, 35, 95
5, 342240, Note_off_c, 9, 57, 95
5, 342240, Note_off_c, 9, 35, 95
5, 342240, Note_on_c, 9, 42, 95
5, 342720, Note_off_c, 9, 42, 95
5, 342720, Note_on_c, 9, 42, 95
5, 342720, Note_on_c, 9, 40, 95
5, 343200, Note_off_c, 9, 42, 95
5, 343200, Note_off_c, 9, 40, 95
5, 343200, Note_on_c, 9, 42, 95
5, 343680, Note_off_c, 9, 42, 95
5, 343680, Note_on_c, 9, 42, 95
5, 343680, Note_on_c, 9, 35, 95
5, 344160, Note_off_c, 9, 42, 95
5, 344160, Note_off_c, 9, 35, 95
5, 344160, Note_on_c, 9, 42, 95
5, 344640, Note_off_c, 9, 42, 95
5, 344640, Note_on_c, 9, 42, 95
5, 344640, Note_on_c, 9, 40, 95
5, 345120, Note_off_c, 9, 42, 95
5, 345120, Note_off_c, 9, 40, 95
5, 345120, Note_on_c, 9, 46, 95
5, 345600, Note_off_c, 9, 46, 95
5, 345600, Note_on_c, 9, 57, 95
5, 345600, Note_on_c, 9, 35, 95
5, 346080, Note_off_c, 9, 57, 95
5, 346080, Note_off_c, 9, 35, 95
5, 346080, Note_on_c, 9, 42, 95
5, 346560, Note_off_c, 9, 42, 95
5, 346560, Note_on_c, 9, 42, 95
5, 346560, Note_on_c, 9, 40, 95
5, 347040, Note_off_c, 9, 42, 95
5, 347040, Note_off_c, 9, 40, 95
5, 347040, Note_on_c, 9, 46, 95
5, 347520, Note_off_c, 9, 46, 95
5, 347520, Note_on_c, 9, 42, 95
5, 347520, Note_on_c, 9, 40, 95
5, 347760, Note_off_c, 9, 42, 95
5, 347760, Note_off_c, 9, 40, 95
5, 347760, Note_on_c, 9, 40, 95
5, 348000, Note_off_c, 9, 40, 95
5, 348000, Note_on_c, 9, 40, 95
5, 348240, Note_off_c, 9, 40, 95
5, 348240, Note_on_c, 9, 40, 95
5, 348480, Note_off_c, 9, 40, 95
5, 348480, Note_on_c, 9, 47, 95
5, 348720, Note_off_c, 9, 47, 95
5, 348720, Note_on_c, 9, 47, 95
5, 348960, Note_off_c, 9, 47, 95
5, 348960, Note_on_c, 9, 47, 95
5, 349200, Note_off_c, 9, 47, 95
5, 349200, Note_on_c, 9, 47, 95
5, 349440, Note_off_c, 9, 47, 95
5, 349440, Note_on_c, 9, 57, 95
5, 349440, Note_on_c, 9, 35, 95
5, 349920, Note_off_c, 9, 57, 95
5, 349920, Note_off_c, 9, 35, 95
5, 349920, Note_on_c, 9, 42, 95
5, 350400, Note_off_c, 9, 42, 95
5, 350400, Note_on_c, 9, 42, 95
5, 350400, Note_on_c, 9, 40, 95
5, 350880, Note_off_c, 9, 42, 95
5, 350880, Note_off_c, 9, 40, 95
5, 350880, Note_on_c, 9, 42, 95
5, 351360, Note_off_c, 9, 42, 95
5, 351360, Note_on_c, 9, 42, 95
5, 351360, Note_on_c, 9, 35, 95
5, 351840, Note_off_c, 9, 42, 95
5, 351840, Note_off_c, 9, 35, 95
5, 351840, Note_on_c, 9, 42, 95
5, 352320, Note_off_c, 9, 42, 95
5, 352320, Note_on_c, 9, 42, 95
5, 352320, Note_on_c, 9, 40, 95
5, 352800, Note_off_c, 9, 42, 95
5, 352800, Note_off_c, 9, 40, 95
5, 352800, Note_on_c, 9, 42, 95
5, 353280, Note_off_c, 9, 42, 95
5, 353280, Note_on_c, 9, 42, 95
5, 353280, Note_on_c, 9, 35, 95
5, 353760, Note_off_c, 9, 42, 95
5, 353760, Note_off_c, 9, 35, 95
5, 353760, Note_on_c, 9, 42, 95
5, 354240, Note_off_c, 9, 42, 95
5, 354240, Note_on_c, 9, 42, 95
5, 354240, Note_on_c, 9, 40, 95
5, 354720, Note_off_c, 9, 42, 95
5, 354720, Note_off_c, 9, 40, 95
5, 354720, Note_on_c, 9, 42, 95
5, 355200, Note_off_c, 9, 42, 95
5, 355200, Note_on_c, 9, 42, 95
5, 355200, Note_on_c, 9, 35, 95
5, 355680, Note_off_c, 9, 42, 95
5, 355680, Note_off_c, 9, 35, 95
5, 355680, Note_on_c, 9, 46, 95
5, 356160, Note_off_c, 9, 46, 95
5, 356160, Note_on_c, 9, 44, 95
5, 356160, Note_on_c, 9, 40, 95
5, 356640, Note_off_c, 9, 44, 95
5, 356640, Note_off_c, 9, 40, 95
5, 356640, Note_on_c, 9, 40, 95
5, 356880, Note_off_c, 9, 40, 95
5, 356880, Note_on_c, 9, 40, 95
5, 357120, Note_off_c, 9, 40, 95
5, 357120, Note_on_c, 9, 57, 95
5, 357120, Note_on_c, 9, 35, 95
5, 357600, Note_off_c, 9, 57, 95
5, 357600, Note_off_c, 9, 35, 95
5, 357600, Note_on_c, 9, 42, 95
5, 358080, Note_off_c, 9, 42, 95
5, 358080, Note_on_c, 9, 42, 95
5, 358080, Note_on_c, 9, 40, 95
5, 358560, Note_off_c, 9, 42, 95
5, 358560, Note_off_c, 9, 40, 95
5, 358560, Note_on_c, 9, 42, 95
5, 359040, Note_off_c, 9, 42, 95
5, 359040, Note_on_c, 9, 42, 95
5, 359040, Note_on_c, 9, 35, 95
5, 359520, Note_off_c, 9, 42, 95
5, 359520, Note_off_c, 9, 35, 95
5, 359520, Note_on_c, 9, 42, 95
5, 360000, Note_off_c, 9, 42, 95
5, 360000, Note_on_c, 9, 42, 95
5, 360000, Note_on_c, 9, 40, 95
5, 360480, Note_off_c, 9, 42, 95
5, 360480, Note_off_c, 9, 40, 95
5, 360480, Note_on_c, 9, 42, 95
5, 360960, Note_off_c, 9, 42, 95
5, 360960, Note_on_c, 9, 42, 95
5, 360960, Note_on_c, 9, 35, 95
5, 361440, Note_off_c, 9, 42, 95
5, 361440, Note_off_c, 9, 35, 95
5, 361440, Note_on_c, 9, 42, 95
5, 361920, Note_off_c, 9, 42, 95
5, 361920, Note_on_c, 9, 42, 95
5, 361920, Note_on_c, 9, 40, 95
5, 362400, Note_off_c, 9, 42, 95
5, 362400, Note_off_c, 9, 40, 95
5, 362400, Note_on_c, 9, 46, 95
5, 362880, Note_off_c, 9, 46, 95
5, 362880, Note_on_c, 9, 42, 95
5, 362880, Note_on_c, 9, 40, 95
5, 363120, Note_off_c, 9, 42, 95
5, 363120, Note_off_c, 9, 40, 95
5, 363120, Note_on_c, 9, 40, 95
5, 363360, Note_off_c, 9, 40, 95
5, 363360, Note_on_c, 9, 40, 95
5, 363600, Note_off_c, 9, 40, 95
5, 363600, Note_on_c, 9, 40, 95
5, 363840, Note_off_c, 9, 40, 95
5, 363840, Note_on_c, 9, 40, 95
5, 364080, Note_off_c, 9, 40, 95
5, 364080, Note_on_c, 9, 40, 95
5, 364320, Note_off_c, 9, 40, 95
5, 364320, Note_on_c, 9, 40, 95
5, 364560, Note_off_c, 9, 40, 95
5, 364560, Note_on_c, 9, 40, 95
5, 364800, Note_off_c, 9, 40, 95
5, 364800, Note_on_c, 9, 57, 95
5, 364800, Note_on_c, 9, 35, 95
5, 365280, Note_off_c, 9, 57, 95
5, 365280, Note_off_c, 9, 35, 95
5, 365280, Note_on_c, 9, 42, 95
5, 365760, Note_off_c, 9, 42, 95
5, 365760, Note_on_c, 9, 42, 95
5, 365760, Note_on_c, 9, 40, 95
5, 366240, Note_off_c, 9, 42, 95
5, 366240, Note_off_c, 9, 40, 95
5, 366240, Note_on_c, 9, 42, 95
5, 366720, Note_off_c, 9, 42, 95
5, 366720, Note_on_c, 9, 42, 95
5, 366720, Note_on_c, 9, 35, 95
5, 367200, Note_off_c, 9, 42, 95
5, 367200, Note_off_c, 9, 35, 95
5, 367200, Note_on_c, 9, 42, 95
5, 367680, Note_off_c, 9, 42, 95
5, 367680, Note_on_c, 9, 42, 95
5, 367680, Note_on_c, 9, 40, 95
5, 368160, Note_off_c, 9, 42, 95
5, 368160, Note_off_c, 9, 40, 95
5, 368160, Note_on_c, 9, 42, 95
5, 368640, Note_off_c, 9, 42, 95
5, 368640, Note_on_c, 9, 57, 95
5, 368640, Note_on_c, 9, 35, 95
5, 369120, Note_off_c, 9, 57, 95
5, 369120, Note_off_c, 9, 35, 95
5, 369120, Note_on_c, 9, 42, 95
5, 369600, Note_off_c, 9, 42, 95
5, 369600, Note_on_c, 9, 42, 95
5, 369600, Note_on_c, 9, 40, 95
5, 370080, Note_off_c, 9, 42, 95
5, 370080, Note_off_c, 9, 40, 95
5, 370080, Note_on_c, 9, 42, 95
5, 370560, Note_off_c, 9, 42, 95
5, 370560, Note_on_c, 9, 42, 95
5, 370560, Note_on_c, 9, 35, 95
5, 371040, Note_off_c, 9, 42, 95
5, 371040, Note_off_c, 9, 35, 95
5, 371040, Note_on_c, 9, 46, 95
5, 371520, Note_off_c, 9, 46, 95
5, 371520, Note_on_c, 9, 44, 95
5, 371520, Note_on_c, 9, 40, 95
5, 371760, Note_off_c, 9, 44, 95
5, 371760, Note_off_c, 9, 40, 95
5, 371760, Note_on_c, 9, 40, 95
5, 372000, Note_off_c, 9, 40, 95
5, 372000, Note_on_c, 9, 40, 95
5, 372240, Note_off_c, 9, 40, 95
5, 372240, Note_on_c, 9, 40, 95
5, 372480, Note_off_c, 9, 40, 95
5, 372480, Note_on_c, 9, 57, 95
5, 372480, Note_on_c, 9, 35, 95
5, 372960, Note_off_c, 9, 57, 95
5, 372960, Note_off_c, 9, 35, 95
5, 372960, Note_on_c, 9, 42, 95
5, 373440, Note_off_c, 9, 42, 95
5, 373440, Note_on_c, 9, 42, 95
5, 373440, Note_on_c, 9, 40, 95
5, 373920, Note_off_c, 9, 42, 95
5, 373920, Note_off_c, 9, 40, 95
5, 373920, Note_on_c, 9, 42, 95
5, 374400, Note_off_c, 9, 42, 95
5, 374400, Note_on_c, 9, 42, 95
5, 374400, Note_on_c, 9, 35, 95
5, 374880, Note_off_c, 9, 42, 95
5, 374880, Note_off_c, 9, 35, 95
5, 374880, Note_on_c, 9, 42, 95
5, 375360, Note_off_c, 9, 42, 95
5, 375360, Note_on_c, 9, 42, 95
5, 375360, Note_on_c, 9, 40, 95
5, 375840, Note_off_c, 9, 42, 95
5, 375840, Note_off_c, 9, 40, 95
5, 375840, Note_on_c, 9, 46, 95
5, 376320, Note_off_c, 9, 46, 95
5, 376320, Note_on_c, 9, 57, 95
5, 376320, Note_on_c, 9, 35, 95
5, 376800, Note_off_c, 9, 57, 95
5, 376800, Note_off_c, 9, 35, 95
5, 376800, Note_on_c, 9, 42, 95
5, 377280, Note_off_c, 9, 42, 95
5, 377280, Note_on_c, 9, 42, 95
5, 377280, Note_on_c, 9, 40, 95
5, 377760, Note_off_c, 9, 42, 95
5, 377760, Note_off_c, 9, 40, 95
5, 377760, Note_on_c, 9, 46, 95
5, 378240, Note_off_c, 9, 46, 95
5, 378240, Note_on_c, 9, 42, 95
5, 378240, Note_on_c, 9, 40, 95
5, 378480, Note_off_c, 9, 42, 95
5, 378480, Note_off_c, 9, 40, 95
5, 378480, Note_on_c, 9, 40, 95
5, 378720, Note_off_c, 9, 40, 95
5, 378720, Note_on_c, 9, 40, 95
5, 378960, Note_off_c, 9, 40, 95
5, 378960, Note_on_c, 9, 40, 95
5, 379200, Note_off_c, 9, 40, 95
5, 379200, Note_on_c, 9, 47, 95
5, 379440, Note_off_c, 9, 47, 95
5, 379440, Note_on_c, 9, 47, 95
5, 379680, Note_off_c, 9, 47, 95
5, 379680, Note_on_c, 9, 47, 95
5, 379920, Note_off_c, 9, 47, 95
5, 379920, Note_on_c, 9, 47, 95
5, 380160, Note_off_c, 9, 47, 95
5, 380160, Note_on_c, 9, 57, 95
5, 380160, Note_on_c, 9, 35, 95
5, 380640, Note_off_c, 9, 57, 95
5, 380640, Note_off_c, 9, 35, 95
5, 380640, Note_on_c, 9, 42, 95
5, 381120, Note_off_c, 9, 42, 95
5, 381120, Note_on_c, 9, 42, 95
5, 381120, Note_on_c, 9, 40, 95
5, 381600, Note_off_c, 9, 42, 95
5, 381600, Note_off_c, 9, 40, 95
5, 381600, Note_on_c, 9, 42, 95
5, 382080, Note_off_c, 9, 42, 95
5, 382080, Note_on_c, 9, 42, 95
5, 382080, Note_on_c, 9, 35, 95
5, 382560, Note_off_c, 9, 42, 95
5, 382560, Note_off_c, 9, 35, 95
5, 382560, Note_on_c, 9, 42, 95
5, 383040, Note_off_c, 9, 42, 95
5, 383040, Note_on_c, 9, 42, 95
5, 383040, Note_on_c, 9, 40, 95
5, 383520, Note_off_c, 9, 42, 95
5, 383520, Note_off_c, 9, 40, 95
5, 383520, Note_on_c, 9, 42, 95
5, 384000, Note_off_c, 9, 42, 95
5, 384000, Note_on_c, 9, 42, 95
5, 384000, Note_on_c, 9, 35, 95
5, 384480, Note_off_c, 9, 42, 95
5, 384480, Note_off_c, 9, 35, 95
5, 384480, Note_on_c, 9, 42, 95
5, 384960, Note_off_c, 9, 42, 95
5, 384960, Note_on_c, 9, 42, 95
5, 384960, Note_on_c, 9, 40, 95
5, 385440, Note_off_c, 9, 42, 95
5, 385440, Note_off_c, 9, 40, 95
5, 385440, Note_on_c, 9, 42, 95
5, 385920, Note_off_c, 9, 42, 95
5, 385920, Note_on_c, 9, 42, 95
5, 385920, Note_on_c, 9, 35, 95
5, 386400, Note_off_c, 9, 42, 95
5, 386400, Note_off_c, 9, 35, 95
5, 386400, Note_on_c, 9, 46, 95
5, 386880, Note_off_c, 9, 46, 95
5, 386880, Note_on_c, 9, 44, 95
5, 386880, Note_on_c, 9, 40, 95
5, 387360, Note_off_c, 9, 44, 95
5, 387360, Note_off_c, 9, 40, 95
5, 387360, Note_on_c, 9, 42, 95
5, 387840, Note_off_c, 9, 42, 95
5, 387840, Note_on_c, 9, 57, 95
5, 387840, Note_on_c, 9, 35, 95
5, 388320, Note_off_c, 9, 57, 95
5, 388320, Note_off_c, 9, 35, 95
5, 388320, Note_on_c, 9, 42, 95
5, 388800, Note_off_c, 9, 42, 95
5, 388800, Note_on_c, 9, 42, 95
5, 388800, Note_on_c, 9, 40, 95
5, 389280, Note_off_c, 9, 42, 95
5, 389280, Note_off_c, 9, 40, 95
5, 389280, Note_on_c, 9, 42, 95
5, 389760, Note_off_c, 9, 42, 95
5, 389760, Note_on_c, 9, 42, 95
5, 389760, Note_on_c, 9, 35, 95
5, 390240, Note_off_c, 9, 42, 95
5, 390240, Note_off_c, 9, 35, 95
5, 390240, Note_on_c, 9, 42, 95
5, 390720, Note_off_c, 9, 42, 95
5, 390720, Note_on_c, 9, 42, 95
5, 390720, Note_on_c, 9, 40, 95
5, 391200, Note_off_c, 9, 42, 95
5, 391200, Note_off_c, 9, 40, 95
5, 391200, Note_on_c, 9, 46, 95
5, 391680, Note_off_c, 9, 46, 95
5, 391680, Note_on_c, 9, 42, 95
5, 391680, Note_on_c, 9, 35, 95
5, 392160, Note_off_c, 9, 42, 95
5, 392160, Note_off_c, 9, 35, 95
5, 392160, Note_on_c, 9, 46, 95
5, 392640, Note_off_c, 9, 46, 95
5, 392640, Note_on_c, 9, 42, 95
5, 392640, Note_on_c, 9, 40, 95
5, 393120, Note_off_c, 9, 42, 95
5, 393120, Note_off_c, 9, 40, 95
5, 393120, Note_on_c, 9, 46, 95
5, 393600, Note_off_c, 9, 46, 95
5, 393600, Note_on_c, 9, 42, 95
5, 393600, Note_on_c, 9, 35, 95
5, 394080, Note_off_c, 9, 42, 95
5, 394080, Note_off_c, 9, 35, 95
5, 394080, Note_on_c, 9, 46, 95
5, 394560, Note_off_c, 9, 46, 95
5, 394560, Note_on_c, 9, 44, 95
5, 394560, Note_on_c, 9, 40, 95
5, 394800, Note_off_c, 9, 44, 95
5, 394800, Note_off_c, 9, 40, 95
5, 394800, Note_on_c, 9, 40, 95
5, 395040, Note_off_c, 9, 40, 95
5, 395040, Note_on_c, 9, 40, 95
5, 395280, Note_off_c, 9, 40, 95
5, 395280, Note_on_c, 9, 40, 95
5, 395520, Note_off_c, 9, 40, 95
5, 395520, Note_on_c, 9, 57, 95
5, 395520, Note_on_c, 9, 35, 95
5, 396000, Note_off_c, 9, 57, 95
5, 396000, Note_off_c, 9, 35, 95
5, 396000, Note_on_c, 9, 42, 95
5, 396480, Note_off_c, 9, 42, 95
5, 396480, Note_on_c, 9, 42, 95
5, 396480, Note_on_c, 9, 40, 95
5, 396960, Note_off_c, 9, 42, 95
5, 396960, Note_off_c, 9, 40, 95
5, 396960, Note_on_c, 9, 42, 95
5, 397440, Note_off_c, 9, 42, 95
5, 397440, Note_on_c, 9, 42, 95
5, 397440, Note_on_c, 9, 35, 95
5, 397920, Note_off_c, 9, 42, 95
5, 397920, Note_off_c, 9, 35, 95
5, 397920, Note_on_c, 9, 42, 95
5, 398400, Note_off_c, 9, 42, 95
5, 398400, Note_on_c, 9, 42, 95
5, 398400, Note_on_c, 9, 40, 95
5, 398880, Note_off_c, 9, 42, 95
5, 398880, Note_off_c, 9, 40, 95
5, 398880, Note_on_c, 9, 42, 95
5, 399360, Note_off_c, 9, 42, 95
5, 399360, Note_on_c, 9, 42, 95
5, 399360, Note_on_c, 9, 35, 95
5, 399840, Note_off_c, 9, 42, 95
5, 399840, Note_off_c, 9, 35, 95
5, 399840, Note_on_c, 9, 42, 95
5, 400320, Note_off_c, 9, 42, 95
5, 400320, Note_on_c, 9, 42, 95
5, 400320, Note_on_c, 9, 40, 95
5, 400800, Note_off_c, 9, 42, 95
5, 400800, Note_off_c, 9, 40, 95
5, 400800, Note_on_c, 9, 42, 95
5, 401280, Note_off_c, 9, 42, 95
5, 401280, Note_on_c, 9, 42, 95
5, 401280, Note_on_c, 9, 35, 95
5, 401760, Note_off_c, 9, 42, 95
5, 401760, Note_off_c, 9, 35, 95
5, 401760, Note_on_c, 9, 46, 95
5, 402240, Note_off_c, 9, 46, 95
5, 402240, Note_on_c, 9, 44, 95
5, 402240, Note_on_c, 9, 40, 95
5, 402720, Note_off_c, 9, 44, 95
5, 402720, Note_off_c, 9, 40, 95
5, 402720, Note_on_c, 9, 42, 95
5, 403200, Note_off_c, 9, 42, 95
5, 403200, Note_on_c, 9, 42, 95
5, 403200, Note_on_c, 9, 35, 95
5, 403680, Note_off_c, 9, 42, 95
5, 403680, Note_off_c, 9, 35, 95
5, 403680, Note_on_c, 9, 42, 95
5, 404160, Note_off_c, 9, 42, 95
5, 404160, Note_on_c, 9, 42, 95
5, 404160, Note_on_c, 9, 40, 95
5, 404640, Note_off_c, 9, 42, 95
5, 404640, Note_off_c, 9, 40, 95
5, 404640, Note_on_c, 9, 42, 95
5, 405120, Note_off_c, 9, 42, 95
5, 405120, Note_on_c, 9, 42, 95
5, 405120, Note_on_c, 9, 35, 95
5, 405600, Note_off_c, 9, 42, 95
5, 405600, Note_off_c, 9, 35, 95
5, 405600, Note_on_c, 9, 42, 95
5, 406080, Note_off_c, 9, 42, 95
5, 406080, Note_on_c, 9, 42, 95
5, 406080, Note_on_c, 9, 40, 95
5, 406560, Note_off_c, 9, 42, 95
5, 406560, Note_off_c, 9, 40, 95
5, 406560, Note_on_c, 9, 42, 95
5, 407040, Note_off_c, 9, 42, 95
5, 407040, Note_on_c, 9, 42, 95
5, 407040, Note_on_c, 9, 35, 95
5, 407520, Note_off_c, 9, 42, 95
5, 407520, Note_off_c, 9, 35, 95
5, 407520, Note_on_c, 9, 42, 95
5, 408000, Note_off_c, 9, 42, 95
5, 408000, Note_on_c, 9, 42, 95
5, 408000, Note_on_c, 9, 40, 95
5, 408480, Note_off_c, 9, 42, 95
5, 408480, Note_off_c, 9, 40, 95
5, 408480, Note_on_c, 9, 42, 95
5, 408960, Note_off_c, 9, 42, 95
5, 408960, Note_on_c, 9, 46, 95
5, 408960, Note_on_c, 9, 35, 95
5, 409920, Note_off_c, 9, 46, 95
5, 409920, Note_off_c, 9, 35, 95
5, 409920, Note_on_c, 9, 48, 95
5, 410160, Note_off_c, 9, 48, 95
5, 410160, Note_on_c, 9, 48, 95
5, 410400, Note_off_c, 9, 48, 95
5, 410400, Note_on_c, 9, 48, 95
5, 410640, Note_off_c, 9, 48, 95
5, 410640, Note_on_c, 9, 48, 95
5, 410880, Note_off_c, 9, 48, 95
5, 410880, End_track
6, 0, Start_track
6, 0, Pitch_bend_c, 6, 8192
6, 0, Control_c, 6, 7, 71
6, 0, Control_c, 6, 10, 95
6, 0, Control_c, 6, 93, 0
6, 0, Control_c, 6, 91, 0
6, 0, Control_c, 6, 95, 0
6, 0, Control_c, 6, 92, 0
6, 0, Control_c, 6, 11, 127
6, 0, Program_c, 6, 6
6, 0, Control_c, 7, 7, 71
6, 0, Control_c, 7, 10, 95
6, 0, Control_c, 7, 93, 0
6, 0, Control_c, 7, 91, 0
6, 0, Control_c, 7, 95, 0
6, 0, Control_c, 7, 92, 0
6, 0, Control_c, 7, 11, 127
6, 0, Program_c, 7, 6
6, 30720, Note_on_c, 6, 68, 95
6, 30720, Note_on_c, 6, 63, 95
6, 30960, Note_off_c, 6, 68, 95
6, 30960, Note_off_c, 6, 63, 95
6, 31200, Note_on_c, 6, 68, 95
6, 31200, Note_on_c, 6, 63, 95
6, 31440, Note_off_c, 6, 68, 95
6, 31440, Note_off_c, 6, 63, 95
6, 32160, Note_on_c, 6, 68, 95
6, 32160, Note_on_c, 6, 63, 95
6, 32400, Note_off_c, 6, 68, 95
6, 32400, Note_off_c, 6, 63, 95
6, 32400, Note_on_c, 6, 68, 95
6, 32400, Note_on_c, 6, 63, 95
6, 32640, Note_off_c, 6, 68, 95
6, 32640, Note_off_c, 6, 63, 95
6, 32640, Note_on_c, 6, 68, 95
6, 32640, Note_on_c, 6, 63, 95
6, 32880, Note_off_c, 6, 68, 95
6, 32880, Note_off_c, 6, 63, 95
6, 32880, Note_on_c, 6, 68, 95
6, 32880, Note_on_c, 6, 63, 95
6, 33120, Note_off_c, 6, 68, 95
6, 33120, Note_off_c, 6, 63, 95
6, 34560, Note_on_c, 6, 72, 95
6, 34560, Note_on_c, 6, 65, 95
6, 34800, Note_off_c, 6, 72, 95
6, 34800, Note_off_c, 6, 65, 95
6, 35040, Note_on_c, 6, 72, 95
6, 35040, Note_on_c, 6, 65, 95
6, 35280, Note_off_c, 6, 72, 95
6, 35280, Note_off_c, 6, 65, 95
6, 36000, Note_on_c, 6, 72, 95
6, 36000, Note_on_c, 6, 65, 95
6, 36240, Note_off_c, 6, 72, 95
6, 36240, Note_off_c, 6, 65, 95
6, 37440, Note_on_c, 6, 72, 95
6, 37440, Note_on_c, 6, 65, 95
6, 38400, Note_off_c, 6, 72, 95
6, 38400, Note_off_c, 6, 65, 95
6, 38400, Note_on_c, 6, 68, 95
6, 38400, Note_on_c, 6, 63, 95
6, 38640, Note_off_c, 6, 68, 95
6, 38640, Note_off_c, 6, 63, 95
6, 38880, Note_on_c, 6, 68, 95
6, 38880, Note_on_c, 6, 63, 95
6, 39120, Note_off_c, 6, 68, 95
6, 39120, Note_off_c, 6, 63, 95
6, 39840, Note_on_c, 6, 68, 95
6, 39840, Note_on_c, 6, 63, 95
6, 40080, Note_off_c, 6, 68, 95
6, 40080, Note_off_c, 6, 63, 95
6, 40080, Note_on_c, 6, 68, 95
6, 40080, Note_on_c, 6, 63, 95
6, 40320, Note_off_c, 6, 68, 95
6, 40320, Note_off_c, 6, 63, 95
6, 40320, Note_on_c, 6, 68, 95
6, 40320, Note_on_c, 6, 63, 95
6, 40560, Note_off_c, 6, 68, 95
6, 40560, Note_off_c, 6, 63, 95
6, 40560, Note_on_c, 6, 68, 95
6, 40560, Note_on_c, 6, 63, 95
6, 40800, Note_off_c, 6, 68, 95
6, 40800, Note_off_c, 6, 63, 95
6, 42240, Note_on_c, 6, 72, 95
6, 42240, Note_on_c, 6, 65, 95
6, 42480, Note_off_c, 6, 72, 95
6, 42480, Note_off_c, 6, 65, 95
6, 42720, Note_on_c, 6, 72, 95
6, 42720, Note_on_c, 6, 65, 95
6, 42960, Note_off_c, 6, 72, 95
6, 42960, Note_off_c, 6, 65, 95
6, 43680, Note_on_c, 6, 72, 95
6, 43680, Note_on_c, 6, 65, 95
6, 43920, Note_off_c, 6, 72, 95
6, 43920, Note_off_c, 6, 65, 95
6, 45120, Note_on_c, 6, 72, 95
6, 45120, Note_on_c, 6, 65, 95
6, 46080, Note_off_c, 6, 72, 95
6, 46080, Note_off_c, 6, 65, 95
6, 46080, Note_on_c, 6, 66, 95
6, 46080, Note_on_c, 6, 62, 95
6, 46320, Note_off_c, 6, 66, 95
6, 46320, Note_off_c, 6, 62, 95
6, 46320, Note_on_c, 6, 66, 95
6, 46320, Note_on_c, 6, 62, 95
6, 46560, Note_off_c, 6, 66, 95
6, 46560, Note_off_c, 6, 62, 95
6, 46560, Note_on_c, 6, 66, 95
6, 46560, Note_on_c, 6, 62, 95
6, 46800, Note_off_c, 6, 66, 95
6, 46800, Note_off_c, 6, 62, 95
6, 47520, Note_on_c, 6, 66, 95
6, 47520, Note_on_c, 6, 62, 95
6, 47760, Note_off_c, 6, 66, 95
6, 47760, Note_off_c, 6, 62, 95
6, 47760, Note_on_c, 6, 66, 95
6, 47760, Note_on_c, 6, 62, 95
6, 48000, Note_off_c, 6, 66, 95
6, 48000, Note_off_c, 6, 62, 95
6, 48000, Note_on_c, 6, 66, 95
6, 48000, Note_on_c, 6, 62, 95
6, 48240, Note_off_c, 6, 66, 95
6, 48240, Note_off_c, 6, 62, 95
6, 48240, Note_on_c, 6, 66, 95
6, 48240, Note_on_c, 6, 62, 95
6, 48480, Note_off_c, 6, 66, 95
6, 48480, Note_off_c, 6, 62, 95
6, 48960, Note_on_c, 6, 66, 95
6, 48960, Note_on_c, 6, 62, 95
6, 49920, Note_off_c, 6, 66, 95
6, 49920, Note_off_c, 6, 62, 95
6, 49920, Note_on_c, 6, 68, 95
6, 49920, Note_on_c, 6, 64, 95
6, 50160, Note_off_c, 6, 68, 95
6, 50160, Note_off_c, 6, 64, 95
6, 50160, Note_on_c, 6, 68, 95
6, 50160, Note_on_c, 6, 64, 95
6, 50400, Note_off_c, 6, 68, 95
6, 50400, Note_off_c, 6, 64, 95
6, 50400, Note_on_c, 6, 68, 95
6, 50400, Note_on_c, 6, 64, 95
6, 50640, Note_off_c, 6, 68, 95
6, 50640, Note_off_c, 6, 64, 95
6, 51360, Note_on_c, 6, 68, 95
6, 51360, Note_on_c, 6, 64, 95
6, 51600, Note_off_c, 6, 68, 95
6, 51600, Note_off_c, 6, 64, 95
6, 51600, Note_on_c, 6, 68, 95
6, 51600, Note_on_c, 6, 64, 95
6, 51840, Note_off_c, 6, 68, 95
6, 51840, Note_off_c, 6, 64, 95
6, 51840, Note_on_c, 6, 68, 95
6, 51840, Note_on_c, 6, 64, 95
6, 52080, Note_off_c, 6, 68, 95
6, 52080, Note_off_c, 6, 64, 95
6, 52080, Note_on_c, 6, 68, 95
6, 52080, Note_on_c, 6, 64, 95
6, 52320, Note_off_c, 6, 68, 95
6, 52320, Note_off_c, 6, 64, 95
6, 52800, Note_on_c, 6, 68, 95
6, 52800, Note_on_c, 6, 64, 95
6, 53760, Note_off_c, 6, 68, 95
6, 53760, Note_off_c, 6, 64, 95
6, 53760, Note_on_c, 6, 68, 95
6, 53760, Note_on_c, 6, 63, 95
6, 54000, Note_off_c, 6, 68, 95
6, 54000, Note_off_c, 6, 63, 95
6, 54000, Note_on_c, 6, 68, 95
6, 54000, Note_on_c, 6, 63, 95
6, 54240, Note_off_c, 6, 68, 95
6, 54240, Note_off_c, 6, 63, 95
6, 54240, Note_on_c, 6, 68, 95
6, 54240, Note_on_c, 6, 63, 95
6, 54480, Note_off_c, 6, 68, 95
6, 54480, Note_off_c, 6, 63, 95
6, 55200, Note_on_c, 6, 68, 95
6, 55200, Note_on_c, 6, 63, 95
6, 55440, Note_off_c, 6, 68, 95
6, 55440, Note_off_c, 6, 63, 95
6, 55440, Note_on_c, 6, 68, 95
6, 55440, Note_on_c, 6, 63, 95
6, 55680, Note_off_c, 6, 68, 95
6, 55680, Note_off_c, 6, 63, 95
6, 55680, Note_on_c, 6, 68, 95
6, 55680, Note_on_c, 6, 63, 95
6, 55920, Note_off_c, 6, 68, 95
6, 55920, Note_off_c, 6, 63, 95
6, 55920, Note_on_c, 6, 68, 95
6, 55920, Note_on_c, 6, 63, 95
6, 56160, Note_off_c, 6, 68, 95
6, 56160, Note_off_c, 6, 63, 95
6, 56640, Note_on_c, 6, 68, 95
6, 56640, Note_on_c, 6, 63, 95
6, 57600, Note_off_c, 6, 68, 95
6, 57600, Note_off_c, 6, 63, 95
6, 57600, Note_on_c, 6, 72, 95
6, 57600, Note_on_c, 6, 65, 95
6, 57840, Note_off_c, 6, 72, 95
6, 57840, Note_off_c, 6, 65, 95
6, 57840, Note_on_c, 6, 72, 95
6, 57840, Note_on_c, 6, 65, 95
6, 58080, Note_off_c, 6, 72, 95
6, 58080, Note_off_c, 6, 65, 95
6, 58080, Note_on_c, 6, 72, 95
6, 58080, Note_on_c, 6, 65, 95
6, 58320, Note_off_c, 6, 72, 95
6, 58320, Note_off_c, 6, 65, 95
6, 59040, Note_on_c, 6, 72, 95
6, 59040, Note_on_c, 6, 65, 95
6, 59280, Note_off_c, 6, 72, 95
6, 59280, Note_off_c, 6, 65, 95
6, 60000, Note_on_c, 6, 72, 95
6, 60000, Note_on_c, 6, 65, 95
6, 60240, Note_off_c, 6, 72, 95
6, 60240, Note_off_c, 6, 65, 95
6, 60480, Note_on_c, 6, 72, 95
6, 60480, Note_on_c, 6, 65, 95
6, 61440, Note_off_c, 6, 72, 95
6, 61440, Note_off_c, 6, 65, 95
6, 61440, Note_on_c, 6, 68, 95
6, 61440, Note_on_c, 6, 63, 95
6, 61680, Note_off_c, 6, 68, 95
6, 61680, Note_off_c, 6, 63, 95
6, 61680, Note_on_c, 6, 68, 95
6, 61680, Note_on_c, 6, 63, 95
6, 61920, Note_off_c, 6, 68, 95
6, 61920, Note_off_c, 6, 63, 95
6, 61920, Note_on_c, 6, 68, 95
6, 61920, Note_on_c, 6, 63, 95
6, 62160, Note_off_c, 6, 68, 95
6, 62160, Note_off_c, 6, 63, 95
6, 62880, Note_on_c, 6, 68, 95
6, 62880, Note_on_c, 6, 63, 95
6, 63120, Note_off_c, 6, 68, 95
6, 63120, Note_off_c, 6, 63, 95
6, 63120, Note_on_c, 6, 68, 95
6, 63120, Note_on_c, 6, 63, 95
6, 63360, Note_off_c, 6, 68, 95
6, 63360, Note_off_c, 6, 63, 95
6, 63360, Note_on_c, 6, 68, 95
6, 63360, Note_on_c, 6, 63, 95
6, 63600, Note_off_c, 6, 68, 95
6, 63600, Note_off_c, 6, 63, 95
6, 63600, Note_on_c, 6, 68, 95
6, 63600, Note_on_c, 6, 63, 95
6, 63840, Note_off_c, 6, 68, 95
6, 63840, Note_off_c, 6, 63, 95
6, 64320, Note_on_c, 6, 68, 95
6, 64320, Note_on_c, 6, 63, 95
6, 65280, Note_off_c, 6, 68, 95
6, 65280, Note_off_c, 6, 63, 95
6, 65280, Note_on_c, 6, 72, 95
6, 65280, Note_on_c, 6, 65, 95
6, 65520, Note_off_c, 6, 72, 95
6, 65520, Note_off_c, 6, 65, 95
6, 65520, Note_on_c, 6, 72, 95
6, 65520, Note_on_c, 6, 65, 95
6, 65760, Note_off_c, 6, 72, 95
6, 65760, Note_off_c, 6, 65, 95
6, 65760, Note_on_c, 6, 72, 95
6, 65760, Note_on_c, 6, 65, 95
6, 66000, Note_off_c, 6, 72, 95
6, 66000, Note_off_c, 6, 65, 95
6, 66720, Note_on_c, 6, 72, 95
6, 66720, Note_on_c, 6, 65, 95
6, 66960, Note_off_c, 6, 72, 95
6, 66960, Note_off_c, 6, 65, 95
6, 67680, Note_on_c, 6, 72, 95
6, 67680, Note_on_c, 6, 65, 95
6, 67920, Note_off_c, 6, 72, 95
6, 67920, Note_off_c, 6, 65, 95
6, 68160, Note_on_c, 6, 72, 95
6, 68160, Note_on_c, 6, 65, 95
6, 69120, Note_off_c, 6, 72, 95
6, 69120, Note_off_c, 6, 65, 95
6, 69120, Note_on_c, 6, 55, 95
6, 76800, Note_off_c, 6, 55, 95
6, 76800, Note_on_c, 6, 57, 95
6, 84480, Note_off_c, 6, 57, 95
6, 84480, Note_on_c, 6, 55, 95
6, 88320, Note_off_c, 6, 55, 95
6, 88320, Note_on_c, 6, 57, 95
6, 111360, Note_off_c, 6, 57, 95
6, 115200, Note_on_c, 6, 55, 95
6, 119040, Note_off_c, 6, 55, 95
6, 119040, Note_on_c, 6, 57, 95
6, 122880, Note_off_c, 6, 57, 95
6, 122880, Note_on_c, 6, 55, 95
6, 126720, Note_off_c, 6, 55, 95
6, 126720, Note_on_c, 6, 57, 95
6, 128640, Note_off_c, 6, 57, 95
6, 128640, Note_on_c, 6, 76, 95
6, 128640, Note_on_c, 6, 71, 95
6, 128640, Note_on_c, 6, 68, 95
6, 132480, Note_off_c, 6, 76, 95
6, 132480, Note_off_c, 6, 71, 95
6, 132480, Note_off_c, 6, 68, 95
6, 132480, Note_on_c, 6, 76, 95
6, 132480, Note_on_c, 6, 72, 95
6, 132480, Note_on_c, 6, 67, 95
6, 136320, Note_off_c, 6, 76, 95
6, 136320, Note_off_c, 6, 72, 95
6, 136320, Note_off_c, 6, 67, 95
6, 136320, Note_on_c, 6, 76, 95
6, 136320, Note_on_c, 6, 71, 95
6, 136320, Note_on_c, 6, 68, 95
6, 140160, Note_off_c, 6, 76, 95
6, 140160, Note_off_c, 6, 71, 95
6, 140160, Note_off_c, 6, 68, 95
6, 140160, Note_on_c, 6, 76, 95
6, 140160, Note_on_c, 6, 72, 95
6, 140160, Note_on_c, 6, 67, 95
6, 144000, Note_off_c, 6, 76, 95
6, 144000, Note_off_c, 6, 72, 95
6, 144000, Note_off_c, 6, 67, 95
6, 144000, Note_on_c, 6, 76, 95
6, 144000, Note_on_c, 6, 71, 95
6, 144000, Note_on_c, 6, 68, 95
6, 147840, Note_off_c, 6, 76, 95
6, 147840, Note_off_c, 6, 71, 95
6, 147840, Note_off_c, 6, 68, 95
6, 147840, Note_on_c, 6, 76, 95
6, 147840, Note_on_c, 6, 72, 95
6, 147840, Note_on_c, 6, 67, 95
6, 151680, Note_off_c, 6, 76, 95
6, 151680, Note_off_c, 6, 72, 95
6, 151680, Note_off_c, 6, 67, 95
6, 151680, Note_on_c, 6, 76, 95
6, 151680, Note_on_c, 6, 71, 95
6, 151680, Note_on_c, 6, 68, 95
6, 155520, Note_off_c, 6, 76, 95
6, 155520, Note_off_c, 6, 71, 95
6, 155520, Note_off_c, 6, 68, 95
6, 155520, Note_on_c, 6, 76, 95
6, 155520, Note_on_c, 6, 72, 95
6, 155520, Note_on_c, 6, 67, 95
6, 159360, Note_off_c, 6, 76, 95
6, 159360, Note_off_c, 6, 72, 95
6, 159360, Note_off_c, 6, 67, 95
6, 159360, Note_on_c, 6, 68, 95
6, 159360, Note_on_c, 6, 63, 95
6, 159600, Note_off_c, 6, 68, 95
6, 159600, Note_off_c, 6, 63, 95
6, 159840, Note_on_c, 6, 68, 95
6, 159840, Note_on_c, 6, 63, 95
6, 160080, Note_off_c, 6, 68, 95
6, 160080, Note_off_c, 6, 63, 95
6, 160800, Note_on_c, 6, 68, 95
6, 160800, Note_on_c, 6, 63, 95
6, 161040, Note_off_c, 6, 68, 95
6, 161040, Note_off_c, 6, 63, 95
6, 161040, Note_on_c, 6, 68, 95
6, 161040, Note_on_c, 6, 63, 95
6, 161280, Note_off_c, 6, 68, 95
6, 161280, Note_off_c, 6, 63, 95
6, 161280, Note_on_c, 6, 68, 95
6, 161280, Note_on_c, 6, 63, 95
6, 161520, Note_off_c, 6, 68, 95
6, 161520, Note_off_c, 6, 63, 95
6, 161520, Note_on_c, 6, 68, 95
6, 161520, Note_on_c, 6, 63, 95
6, 161760, Note_off_c, 6, 68, 95
6, 161760, Note_off_c, 6, 63, 95
6, 163200, Note_on_c, 6, 72, 95
6, 163200, Note_on_c, 6, 65, 95
6, 163440, Note_off_c, 6, 72, 95
6, 163440, Note_off_c, 6, 65, 95
6, 163680, Note_on_c, 6, 72, 95
6, 163680, Note_on_c, 6, 65, 95
6, 163920, Note_off_c, 6, 72, 95
6, 163920, Note_off_c, 6, 65, 95
6, 164640, Note_on_c, 6, 72, 95
6, 164640, Note_on_c, 6, 65, 95
6, 164880, Note_off_c, 6, 72, 95
6, 164880, Note_off_c, 6, 65, 95
6, 166080, Note_on_c, 6, 72, 95
6, 166080, Note_on_c, 6, 65, 95
6, 167040, Note_off_c, 6, 72, 95
6, 167040, Note_off_c, 6, 65, 95
6, 167040, Note_on_c, 6, 68, 95
6, 167040, Note_on_c, 6, 63, 95
6, 167280, Note_off_c, 6, 68, 95
6, 167280, Note_off_c, 6, 63, 95
6, 167520, Note_on_c, 6, 68, 95
6, 167520, Note_on_c, 6, 63, 95
6, 167760, Note_off_c, 6, 68, 95
6, 167760, Note_off_c, 6, 63, 95
6, 168480, Note_on_c, 6, 68, 95
6, 168480, Note_on_c, 6, 63, 95
6, 168720, Note_off_c, 6, 68, 95
6, 168720, Note_off_c, 6, 63, 95
6, 168720, Note_on_c, 6, 68, 95
6, 168720, Note_on_c, 6, 63, 95
6, 168960, Note_off_c, 6, 68, 95
6, 168960, Note_off_c, 6, 63, 95
6, 168960, Note_on_c, 6, 68, 95
6, 168960, Note_on_c, 6, 63, 95
6, 169200, Note_off_c, 6, 68, 95
6, 169200, Note_off_c, 6, 63, 95
6, 169200, Note_on_c, 6, 68, 95
6, 169200, Note_on_c, 6, 63, 95
6, 169440, Note_off_c, 6, 68, 95
6, 169440, Note_off_c, 6, 63, 95
6, 170880, Note_on_c, 6, 72, 95
6, 170880, Note_on_c, 6, 65, 95
6, 171120, Note_off_c, 6, 72, 95
6, 171120, Note_off_c, 6, 65, 95
6, 171360, Note_on_c, 6, 72, 95
6, 171360, Note_on_c, 6, 65, 95
6, 171600, Note_off_c, 6, 72, 95
6, 171600, Note_off_c, 6, 65, 95
6, 172320, Note_on_c, 6, 72, 95
6, 172320, Note_on_c, 6, 65, 95
6, 172560, Note_off_c, 6, 72, 95
6, 172560, Note_off_c, 6, 65, 95
6, 173760, Note_on_c, 6, 72, 95
6, 173760, Note_on_c, 6, 65, 95
6, 174720, Note_off_c, 6, 72, 95
6, 174720, Note_off_c, 6, 65, 95
6, 174720, Note_on_c, 6, 66, 95
6, 174720, Note_on_c, 6, 62, 95
6, 174960, Note_off_c, 6, 66, 95
6, 174960, Note_off_c, 6, 62, 95
6, 174960, Note_on_c, 6, 66, 95
6, 174960, Note_on_c, 6, 62, 95
6, 175200, Note_off_c, 6, 66, 95
6, 175200, Note_off_c, 6, 62, 95
6, 175200, Note_on_c, 6, 66, 95
6, 175200, Note_on_c, 6, 62, 95
6, 175440, Note_off_c, 6, 66, 95
6, 175440, Note_off_c, 6, 62, 95
6, 176160, Note_on_c, 6, 66, 95
6, 176160, Note_on_c, 6, 62, 95
6, 176400, Note_off_c, 6, 66, 95
6, 176400, Note_off_c, 6, 62, 95
6, 176400, Note_on_c, 6, 66, 95
6, 176400, Note_on_c, 6, 62, 95
6, 176640, Note_off_c, 6, 66, 95
6, 176640, Note_off_c, 6, 62, 95
6, 176640, Note_on_c, 6, 66, 95
6, 176640, Note_on_c, 6, 62, 95
6, 176880, Note_off_c, 6, 66, 95
6, 176880, Note_off_c, 6, 62, 95
6, 176880, Note_on_c, 6, 66, 95
6, 176880, Note_on_c, 6, 62, 95
6, 177120, Note_off_c, 6, 66, 95
6, 177120, Note_off_c, 6, 62, 95
6, 177600, Note_on_c, 6, 66, 95
6, 177600, Note_on_c, 6, 62, 95
6, 178560, Note_off_c, 6, 66, 95
6, 178560, Note_off_c, 6, 62, 95
6, 178560, Note_on_c, 6, 68, 95
6, 178560, Note_on_c, 6, 64, 95
6, 178800, Note_off_c, 6, 68, 95
6, 178800, Note_off_c, 6, 64, 95
6, 178800, Note_on_c, 6, 68, 95
6, 178800, Note_on_c, 6, 64, 95
6, 179040, Note_off_c, 6, 68, 95
6, 179040, Note_off_c, 6, 64, 95
6, 179040, Note_on_c, 6, 68, 95
6, 179040, Note_on_c, 6, 64, 95
6, 179280, Note_off_c, 6, 68, 95
6, 179280, Note_off_c, 6, 64, 95
6, 180000, Note_on_c, 6, 68, 95
6, 180000, Note_on_c, 6, 64, 95
6, 180240, Note_off_c, 6, 68, 95
6, 180240, Note_off_c, 6, 64, 95
6, 180240, Note_on_c, 6, 68, 95
6, 180240, Note_on_c, 6, 64, 95
6, 180480, Note_off_c, 6, 68, 95
6, 180480, Note_off_c, 6, 64, 95
6, 180480, Note_on_c, 6, 68, 95
6, 180480, Note_on_c, 6, 64, 95
6, 180720, Note_off_c, 6, 68, 95
6, 180720, Note_off_c, 6, 64, 95
6, 180720, Note_on_c, 6, 68, 95
6, 180720, Note_on_c, 6, 64, 95
6, 180960, Note_off_c, 6, 68, 95
6, 180960, Note_off_c, 6, 64, 95
6, 181440, Note_on_c, 6, 68, 95
6, 181440, Note_on_c, 6, 64, 95
6, 182400, Note_off_c, 6, 68, 95
6, 182400, Note_off_c, 6, 64, 95
6, 182400, Note_on_c, 6, 68, 95
6, 182400, Note_on_c, 6, 63, 95
6, 182640, Note_off_c, 6, 68, 95
6, 182640, Note_off_c, 6, 63, 95
6, 182640, Note_on_c, 6, 68, 95
6, 182640, Note_on_c, 6, 63, 95
6, 182880, Note_off_c, 6, 68, 95
6, 182880, Note_off_c, 6, 63, 95
6, 182880, Note_on_c, 6, 68, 95
6, 182880, Note_on_c, 6, 63, 95
6, 183120, Note_off_c, 6, 68, 95
6, 183120, Note_off_c, 6, 63, 95
6, 183840, Note_on_c, 6, 68, 95
6, 183840, Note_on_c, 6, 63, 95
6, 184080, Note_off_c, 6, 68, 95
6, 184080, Note_off_c, 6, 63, 95
6, 184080, Note_on_c, 6, 68, 95
6, 184080, Note_on_c, 6, 63, 95
6, 184320, Note_off_c, 6, 68, 95
6, 184320, Note_off_c, 6, 63, 95
6, 184320, Note_on_c, 6, 68, 95
6, 184320, Note_on_c, 6, 63, 95
6, 184560, Note_off_c, 6, 68, 95
6, 184560, Note_off_c, 6, 63, 95
6, 184560, Note_on_c, 6, 68, 95
6, 184560, Note_on_c, 6, 63, 95
6, 184800, Note_off_c, 6, 68, 95
6, 184800, Note_off_c, 6, 63, 95
6, 185280, Note_on_c, 6, 68, 95
6, 185280, Note_on_c, 6, 63, 95
6, 186240, Note_off_c, 6, 68, 95
6, 186240, Note_off_c, 6, 63, 95
6, 186240, Note_on_c, 6, 72, 95
6, 186240, Note_on_c, 6, 65, 95
6, 186480, Note_off_c, 6, 72, 95
6, 186480, Note_off_c, 6, 65, 95
6, 186480, Note_on_c, 6, 72, 95
6, 186480, Note_on_c, 6, 65, 95
6, 186720, Note_off_c, 6, 72, 95
6, 186720, Note_off_c, 6, 65, 95
6, 186720, Note_on_c, 6, 72, 95
6, 186720, Note_on_c, 6, 65, 95
6, 186960, Note_off_c, 6, 72, 95
6, 186960, Note_off_c, 6, 65, 95
6, 187680, Note_on_c, 6, 72, 95
6, 187680, Note_on_c, 6, 65, 95
6, 187920, Note_off_c, 6, 72, 95
6, 187920, Note_off_c, 6, 65, 95
6, 188640, Note_on_c, 6, 72, 95
6, 188640, Note_on_c, 6, 65, 95
6, 188880, Note_off_c, 6, 72, 95
6, 188880, Note_off_c, 6, 65, 95
6, 189120, Note_on_c, 6, 72, 95
6, 189120, Note_on_c, 6, 65, 95
6, 190080, Note_off_c, 6, 72, 95
6, 190080, Note_off_c, 6, 65, 95
6, 190080, Note_on_c, 6, 68, 95
6, 190080, Note_on_c, 6, 63, 95
6, 190320, Note_off_c, 6, 68, 95
6, 190320, Note_off_c, 6, 63, 95
6, 190320, Note_on_c, 6, 68, 95
6, 190320, Note_on_c, 6, 63, 95
6, 190560, Note_off_c, 6, 68, 95
6, 190560, Note_off_c, 6, 63, 95
6, 190560, Note_on_c, 6, 68, 95
6, 190560, Note_on_c, 6, 63, 95
6, 190800, Note_off_c, 6, 68, 95
6, 190800, Note_off_c, 6, 63, 95
6, 191520, Note_on_c, 6, 68, 95
6, 191520, Note_on_c, 6, 63, 95
6, 191760, Note_off_c, 6, 68, 95
6, 191760, Note_off_c, 6, 63, 95
6, 191760, Note_on_c, 6, 68, 95
6, 191760, Note_on_c, 6, 63, 95
6, 192000, Note_off_c, 6, 68, 95
6, 192000, Note_off_c, 6, 63, 95
6, 192000, Note_on_c, 6, 68, 95
6, 192000, Note_on_c, 6, 63, 95
6, 192240, Note_off_c, 6, 68, 95
6, 192240, Note_off_c, 6, 63, 95
6, 192240, Note_on_c, 6, 68, 95
6, 192240, Note_on_c, 6, 63, 95
6, 192480, Note_off_c, 6, 68, 95
6, 192480, Note_off_c, 6, 63, 95
6, 192960, Note_on_c, 6, 68, 95
6, 192960, Note_on_c, 6, 63, 95
6, 193920, Note_off_c, 6, 68, 95
6, 193920, Note_off_c, 6, 63, 95
6, 193920, Note_on_c, 6, 72, 95
6, 193920, Note_on_c, 6, 65, 95
6, 194160, Note_off_c, 6, 72, 95
6, 194160, Note_off_c, 6, 65, 95
6, 194160, Note_on_c, 6, 72, 95
6, 194160, Note_on_c, 6, 65, 95
6, 194400, Note_off_c, 6, 72, 95
6, 194400, Note_off_c, 6, 65, 95
6, 194400, Note_on_c, 6, 72, 95
6, 194400, Note_on_c, 6, 65, 95
6, 194640, Note_off_c, 6, 72, 95
6, 194640, Note_off_c, 6, 65, 95
6, 195360, Note_on_c, 6, 72, 95
6, 195360, Note_on_c, 6, 65, 95
6, 195600, Note_off_c, 6, 72, 95
6, 195600, Note_off_c, 6, 65, 95
6, 196320, Note_on_c, 6, 72, 95
6, 196320, Note_on_c, 6, 65, 95
6, 196560, Note_off_c, 6, 72, 95
6, 196560, Note_off_c, 6, 65, 95
6, 196800, Note_on_c, 6, 72, 95
6, 196800, Note_on_c, 6, 65, 95
6, 197760, Note_off_c, 6, 72, 95
6, 197760, Note_off_c, 6, 65, 95
6, 197760, Note_on_c, 6, 55, 95
6, 205440, Note_off_c, 6, 55, 95
6, 205440, Note_on_c, 6, 57, 95
6, 213120, Note_off_c, 6, 57, 95
6, 213120, Note_on_c, 6, 55, 95
6, 216960, Note_off_c, 6, 55, 95
6, 216960, Note_on_c, 6, 57, 95
6, 243840, Note_off_c, 6, 57, 95
6, 243840, Note_on_c, 6, 55, 95
6, 247680, Note_off_c, 6, 55, 95
6, 247680, Note_on_c, 6, 57, 95
6, 251520, Note_off_c, 6, 57, 95
6, 251520, Note_on_c, 6, 55, 95
6, 255360, Note_off_c, 6, 55, 95
6, 255360, Note_on_c, 6, 57, 95
6, 257280, Note_off_c, 6, 57, 95
6, 257280, Note_on_c, 6, 76, 95
6, 257280, Note_on_c, 6, 71, 95
6, 257280, Note_on_c, 6, 68, 95
6, 261120, Note_off_c, 6, 76, 95
6, 261120, Note_off_c, 6, 71, 95
6, 261120, Note_off_c, 6, 68, 95
6, 261120, Note_on_c, 6, 76, 95
6, 261120, Note_on_c, 6, 72, 95
6, 261120, Note_on_c, 6, 67, 95
6, 264960, Note_off_c, 6, 76, 95
6, 264960, Note_off_c, 6, 72, 95
6, 264960, Note_off_c, 6, 67, 95
6, 264960, Note_on_c, 6, 76, 95
6, 264960, Note_on_c, 6, 71, 95
6, 264960, Note_on_c, 6, 68, 95
6, 268800, Note_off_c, 6, 76, 95
6, 268800, Note_off_c, 6, 71, 95
6, 268800, Note_off_c, 6, 68, 95
6, 268800, Note_on_c, 6, 76, 95
6, 268800, Note_on_c, 6, 72, 95
6, 268800, Note_on_c, 6, 67, 95
6, 272640, Note_off_c, 6, 76, 95
6, 272640, Note_off_c, 6, 72, 95
6, 272640, Note_off_c, 6, 67, 95
6, 272640, Note_on_c, 6, 76, 95
6, 272640, Note_on_c, 6, 71, 95
6, 272640, Note_on_c, 6, 68, 95
6, 276480, Note_off_c, 6, 76, 95
6, 276480, Note_off_c, 6, 71, 95
6, 276480, Note_off_c, 6, 68, 95
6, 276480, Note_on_c, 6, 76, 95
6, 276480, Note_on_c, 6, 72, 95
6, 276480, Note_on_c, 6, 67, 95
6, 280320, Note_off_c, 6, 76, 95
6, 280320, Note_off_c, 6, 72, 95
6, 280320, Note_off_c, 6, 67, 95
6, 280320, Note_on_c, 6, 76, 95
6, 280320, Note_on_c, 6, 71, 95
6, 280320, Note_on_c, 6, 68, 95
6, 284160, Note_off_c, 6, 76, 95
6, 284160, Note_off_c, 6, 71, 95
6, 284160, Note_off_c, 6, 68, 95
6, 284160, Note_on_c, 6, 76, 95
6, 284160, Note_on_c, 6, 72, 95
6, 284160, Note_on_c, 6, 67, 95
6, 288000, Note_off_c, 6, 76, 95
6, 288000, Note_off_c, 6, 72, 95
6, 288000, Note_off_c, 6, 67, 95
6, 318720, Note_on_c, 6, 76, 95
6, 318720, Note_on_c, 6, 71, 95
6, 318960, Note_off_c, 6, 76, 95
6, 318960, Note_off_c, 6, 71, 95
6, 319200, Note_on_c, 6, 76, 95
6, 319200, Note_on_c, 6, 71, 95
6, 319440, Note_off_c, 6, 76, 95
6, 319440, Note_off_c, 6, 71, 95
6, 319680, Note_on_c, 6, 76, 95
6, 319680, Note_on_c, 6, 71, 95
6, 319920, Note_off_c, 6, 76, 95
6, 319920, Note_off_c, 6, 71, 95
6, 320160, Note_on_c, 6, 76, 95
6, 320160, Note_on_c, 6, 71, 95
6, 320400, Note_off_c, 6, 76, 95
6, 320400, Note_off_c, 6, 71, 95
6, 320400, Note_on_c, 6, 76, 95
6, 320400, Note_on_c, 6, 71, 95
6, 320640, Note_off_c, 6, 76, 95
6, 320640, Note_off_c, 6, 71, 95
6, 320640, Note_on_c, 6, 76, 95
6, 320640, Note_on_c, 6, 71, 95
6, 320880, Note_off_c, 6, 76, 95
6, 320880, Note_off_c, 6, 71, 95
6, 320880, Note_on_c, 6, 76, 95
6, 320880, Note_on_c, 6, 71, 95
6, 321120, Note_off_c, 6, 76, 95
6, 321120, Note_off_c, 6, 71, 95
6, 321120, Note_on_c, 6, 76, 95
6, 321120, Note_on_c, 6, 71, 95
6, 321360, Note_off_c, 6, 76, 95
6, 321360, Note_off_c, 6, 71, 95
6, 321600, Note_on_c, 6, 76, 95
6, 321600, Note_on_c, 6, 71, 95
6, 321840, Note_off_c, 6, 76, 95
6, 321840, Note_off_c, 6, 71, 95
6, 322080, Note_on_c, 6, 76, 95
6, 322080, Note_on_c, 6, 71, 95
6, 322320, Note_off_c, 6, 76, 95
6, 322320, Note_off_c, 6, 71, 95
6, 322560, Note_on_c, 6, 76, 95
6, 322560, Note_on_c, 6, 72, 95
6, 322800, Note_off_c, 6, 76, 95
6, 322800, Note_off_c, 6, 72, 95
6, 323040, Note_on_c, 6, 76, 95
6, 323040, Note_on_c, 6, 72, 95
6, 323280, Note_off_c, 6, 76, 95
6, 323280, Note_off_c, 6, 72, 95
6, 323520, Note_on_c, 6, 76, 95
6, 323520, Note_on_c, 6, 72, 95
6, 323760, Note_off_c, 6, 76, 95
6, 323760, Note_off_c, 6, 72, 95
6, 324000, Note_on_c, 6, 76, 95
6, 324000, Note_on_c, 6, 72, 95
6, 324240, Note_off_c, 6, 76, 95
6, 324240, Note_off_c, 6, 72, 95
6, 324240, Note_on_c, 6, 76, 95
6, 324240, Note_on_c, 6, 72, 95
6, 324480, Note_off_c, 6, 76, 95
6, 324480, Note_off_c, 6, 72, 95
6, 324480, Note_on_c, 6, 76, 95
6, 324480, Note_on_c, 6, 72, 95
6, 324720, Note_off_c, 6, 76, 95
6, 324720, Note_off_c, 6, 72, 95
6, 324720, Note_on_c, 6, 76, 95
6, 324720, Note_on_c, 6, 72, 95
6, 324960, Note_off_c, 6, 76, 95
6, 324960, Note_off_c, 6, 72, 95
6, 324960, Note_on_c, 6, 76, 95
6, 324960, Note_on_c, 6, 72, 95
6, 325200, Note_off_c, 6, 76, 95
6, 325200, Note_off_c, 6, 72, 95
6, 325440, Note_on_c, 6, 76, 95
6, 325440, Note_on_c, 6, 72, 95
6, 325680, Note_off_c, 6, 76, 95
6, 325680, Note_off_c, 6, 72, 95
6, 325920, Note_on_c, 6, 76, 95
6, 325920, Note_on_c, 6, 72, 95
6, 326160, Note_off_c, 6, 76, 95
6, 326160, Note_off_c, 6, 72, 95
6, 326400, Note_on_c, 6, 76, 95
6, 326400, Note_on_c, 6, 71, 95
6, 326640, Note_off_c, 6, 76, 95
6, 326640, Note_off_c, 6, 71, 95
6, 326880, Note_on_c, 6, 76, 95
6, 326880, Note_on_c, 6, 71, 95
6, 327120, Note_off_c, 6, 76, 95
6, 327120, Note_off_c, 6, 71, 95
6, 327360, Note_on_c, 6, 76, 95
6, 327360, Note_on_c, 6, 71, 95
6, 327600, Note_off_c, 6, 76, 95
6, 327600, Note_off_c, 6, 71, 95
6, 327840, Note_on_c, 6, 76, 95
6, 327840, Note_on_c, 6, 71, 95
6, 328080, Note_off_c, 6, 76, 95
6, 328080, Note_off_c, 6, 71, 95
6, 328080, Note_on_c, 6, 76, 95
6, 328080, Note_on_c, 6, 71, 95
6, 328320, Note_off_c, 6, 76, 95
6, 328320, Note_off_c, 6, 71, 95
6, 328320, Note_on_c, 6, 76, 95
6, 328320, Note_on_c, 6, 71, 95
6, 328560, Note_off_c, 6, 76, 95
6, 328560, Note_off_c, 6, 71, 95
6, 328560, Note_on_c, 6, 76, 95
6, 328560, Note_on_c, 6, 71, 95
6, 328800, Note_off_c, 6, 76, 95
6, 328800, Note_off_c, 6, 71, 95
6, 328800, Note_on_c, 6, 76, 95
6, 328800, Note_on_c, 6, 71, 95
6, 329040, Note_off_c, 6, 76, 95
6, 329040, Note_off_c, 6, 71, 95
6, 329280, Note_on_c, 6, 76, 95
6, 329280, Note_on_c, 6, 71, 95
6, 329520, Note_off_c, 6, 76, 95
6, 329520, Note_off_c, 6, 71, 95
6, 329760, Note_on_c, 6, 76, 95
6, 329760, Note_on_c, 6, 71, 95
6, 330000, Note_off_c, 6, 76, 95
6, 330000, Note_off_c, 6, 71, 95
6, 330240, Note_on_c, 6, 76, 95
6, 330240, Note_on_c, 6, 72, 95
6, 330480, Note_off_c, 6, 76, 95
6, 330480, Note_off_c, 6, 72, 95
6, 330720, Note_on_c, 6, 76, 95
6, 330720, Note_on_c, 6, 72, 95
6, 330960, Note_off_c, 6, 76, 95
6, 330960, Note_off_c, 6, 72, 95
6, 331200, Note_on_c, 6, 76, 95
6, 331200, Note_on_c, 6, 72, 95
6, 331440, Note_off_c, 6, 76, 95
6, 331440, Note_off_c, 6, 72, 95
6, 331680, Note_on_c, 6, 76, 95
6, 331680, Note_on_c, 6, 72, 95
6, 331920, Note_off_c, 6, 76, 95
6, 331920, Note_off_c, 6, 72, 95
6, 331920, Note_on_c, 6, 76, 95
6, 331920, Note_on_c, 6, 72, 95
6, 332160, Note_off_c, 6, 76, 95
6, 332160, Note_off_c, 6, 72, 95
6, 332160, Note_on_c, 6, 76, 95
6, 332160, Note_on_c, 6, 72, 95
6, 332400, Note_off_c, 6, 76, 95
6, 332400, Note_off_c, 6, 72, 95
6, 332400, Note_on_c, 6, 76, 95
6, 332400, Note_on_c, 6, 72, 95
6, 332640, Note_off_c, 6, 76, 95
6, 332640, Note_off_c, 6, 72, 95
6, 332640, Note_on_c, 6, 76, 95
6, 332640, Note_on_c, 6, 72, 95
6, 332880, Note_off_c, 6, 76, 95
6, 332880, Note_off_c, 6, 72, 95
6, 333120, Note_on_c, 6, 76, 95
6, 333120, Note_on_c, 6, 72, 95
6, 333360, Note_off_c, 6, 76, 95
6, 333360, Note_off_c, 6, 72, 95
6, 333600, Note_on_c, 6, 76, 95
6, 333600, Note_on_c, 6, 72, 95
6, 333840, Note_off_c, 6, 76, 95
6, 333840, Note_off_c, 6, 72, 95
6, 334080, Note_on_c, 6, 76, 95
6, 334080, Note_on_c, 6, 71, 95
6, 334320, Note_off_c, 6, 76, 95
6, 334320, Note_off_c, 6, 71, 95
6, 334560, Note_on_c, 6, 76, 95
6, 334560, Note_on_c, 6, 71, 95
6, 334800, Note_off_c, 6, 76, 95
6, 334800, Note_off_c, 6, 71, 95
6, 335040, Note_on_c, 6, 76, 95
6, 335040, Note_on_c, 6, 71, 95
6, 335280, Note_off_c, 6, 76, 95
6, 335280, Note_off_c, 6, 71, 95
6, 335520, Note_on_c, 6, 76, 95
6, 335520, Note_on_c, 6, 71, 95
6, 335760, Note_off_c, 6, 76, 95
6, 335760, Note_off_c, 6, 71, 95
6, 335760, Note_on_c, 6, 76, 95
6, 335760, Note_on_c, 6, 71, 95
6, 336000, Note_off_c, 6, 76, 95
6, 336000, Note_off_c, 6, 71, 95
6, 336000, Note_on_c, 6, 76, 95
6, 336000, Note_on_c, 6, 71, 95
6, 336240, Note_off_c, 6, 76, 95
6, 336240, Note_off_c, 6, 71, 95
6, 336240, Note_on_c, 6, 76, 95
6, 336240, Note_on_c, 6, 71, 95
6, 336480, Note_off_c, 6, 76, 95
6, 336480, Note_off_c, 6, 71, 95
6, 336480, Note_on_c, 6, 76, 95
6, 336480, Note_on_c, 6, 71, 95
6, 336720, Note_off_c, 6, 76, 95
6, 336720, Note_off_c, 6, 71, 95
6, 336960, Note_on_c, 6, 76, 95
6, 336960, Note_on_c, 6, 71, 95
6, 337200, Note_off_c, 6, 76, 95
6, 337200, Note_off_c, 6, 71, 95
6, 337440, Note_on_c, 6, 76, 95
6, 337440, Note_on_c, 6, 71, 95
6, 337680, Note_off_c, 6, 76, 95
6, 337680, Note_off_c, 6, 71, 95
6, 337920, Note_on_c, 6, 76, 95
6, 337920, Note_on_c, 6, 72, 95
6, 338160, Note_off_c, 6, 76, 95
6, 338160, Note_off_c, 6, 72, 95
6, 338400, Note_on_c, 6, 76, 95
6, 338400, Note_on_c, 6, 72, 95
6, 338640, Note_off_c, 6, 76, 95
6, 338640, Note_off_c, 6, 72, 95
6, 338880, Note_on_c, 6, 76, 95
6, 338880, Note_on_c, 6, 72, 95
6, 339120, Note_off_c, 6, 76, 95
6, 339120, Note_off_c, 6, 72, 95
6, 339360, Note_on_c, 6, 76, 95
6, 339360, Note_on_c, 6, 72, 95
6, 339600, Note_off_c, 6, 76, 95
6, 339600, Note_off_c, 6, 72, 95
6, 339600, Note_on_c, 6, 76, 95
6, 339600, Note_on_c, 6, 72, 95
6, 339840, Note_off_c, 6, 76, 95
6, 339840, Note_off_c, 6, 72, 95
6, 339840, Note_on_c, 6, 76, 95
6, 339840, Note_on_c, 6, 72, 95
6, 340080, Note_off_c, 6, 76, 95
6, 340080, Note_off_c, 6, 72, 95
6, 340080, Note_on_c, 6, 76, 95
6, 340080, Note_on_c, 6, 72, 95
6, 340320, Note_off_c, 6, 76, 95
6, 340320, Note_off_c, 6, 72, 95
6, 340320, Note_on_c, 6, 76, 95
6, 340320, Note_on_c, 6, 72, 95
6, 340560, Note_off_c, 6, 76, 95
6, 340560, Note_off_c, 6, 72, 95
6, 340800, Note_on_c, 6, 76, 95
6, 340800, Note_on_c, 6, 72, 95
6, 341040, Note_off_c, 6, 76, 95
6, 341040, Note_off_c, 6, 72, 95
6, 341280, Note_on_c, 6, 76, 95
6, 341280, Note_on_c, 6, 72, 95
6, 341520, Note_off_c, 6, 76, 95
6, 341520, Note_off_c, 6, 72, 95
6, 341760, Note_on_c, 6, 76, 95
6, 341760, Note_on_c, 6, 71, 95
6, 342000, Note_off_c, 6, 76, 95
6, 342000, Note_off_c, 6, 71, 95
6, 342240, Note_on_c, 6, 76, 95
6, 342240, Note_on_c, 6, 71, 95
6, 342480, Note_off_c, 6, 76, 95
6, 342480, Note_off_c, 6, 71, 95
6, 342720, Note_on_c, 6, 76, 95
6, 342720, Note_on_c, 6, 71, 95
6, 342960, Note_off_c, 6, 76, 95
6, 342960, Note_off_c, 6, 71, 95
6, 343200, Note_on_c, 6, 76, 95
6, 343200, Note_on_c, 6, 71, 95
6, 343440, Note_off_c, 6, 76, 95
6, 343440, Note_off_c, 6, 71, 95
6, 343440, Note_on_c, 6, 76, 95
6, 343440, Note_on_c, 6, 71, 95
6, 343680, Note_off_c, 6, 76, 95
6, 343680, Note_off_c, 6, 71, 95
6, 343680, Note_on_c, 6, 76, 95
6, 343680, Note_on_c, 6, 71, 95
6, 343920, Note_off_c, 6, 76, 95
6, 343920, Note_off_c, 6, 71, 95
6, 343920, Note_on_c, 6, 76, 95
6, 343920, Note_on_c, 6, 71, 95
6, 344160, Note_off_c, 6, 76, 95
6, 344160, Note_off_c, 6, 71, 95
6, 344160, Note_on_c, 6, 76, 95
6, 344160, Note_on_c, 6, 71, 95
6, 344400, Note_off_c, 6, 76, 95
6, 344400, Note_off_c, 6, 71, 95
6, 344640, Note_on_c, 6, 76, 95
6, 344640, Note_on_c, 6, 71, 95
6, 344880, Note_off_c, 6, 76, 95
6, 344880, Note_off_c, 6, 71, 95
6, 345120, Note_on_c, 6, 76, 95
6, 345120, Note_on_c, 6, 71, 95
6, 345360, Note_off_c, 6, 76, 95
6, 345360, Note_off_c, 6, 71, 95
6, 345600, Note_on_c, 6, 76, 95
6, 345600, Note_on_c, 6, 72, 95
6, 345840, Note_off_c, 6, 76, 95
6, 345840, Note_off_c, 6, 72, 95
6, 346080, Note_on_c, 6, 76, 95
6, 346080, Note_on_c, 6, 72, 95
6, 346320, Note_off_c, 6, 76, 95
6, 346320, Note_off_c, 6, 72, 95
6, 346560, Note_on_c, 6, 76, 95
6, 346560, Note_on_c, 6, 72, 95
6, 346800, Note_off_c, 6, 76, 95
6, 346800, Note_off_c, 6, 72, 95
6, 347040, Note_on_c, 6, 76, 95
6, 347040, Note_on_c, 6, 72, 95
6, 347280, Note_off_c, 6, 76, 95
6, 347280, Note_off_c, 6, 72, 95
6, 347280, Note_on_c, 6, 76, 95
6, 347280, Note_on_c, 6, 72, 95
6, 347520, Note_off_c, 6, 76, 95
6, 347520, Note_off_c, 6, 72, 95
6, 347520, Note_on_c, 6, 76, 95
6, 347520, Note_on_c, 6, 72, 95
6, 347760, Note_off_c, 6, 76, 95
6, 347760, Note_off_c, 6, 72, 95
6, 347760, Note_on_c, 6, 76, 95
6, 347760, Note_on_c, 6, 72, 95
6, 348000, Note_off_c, 6, 76, 95
6, 348000, Note_off_c, 6, 72, 95
6, 348000, Note_on_c, 6, 76, 95
6, 348000, Note_on_c, 6, 72, 95
6, 348240, Note_off_c, 6, 76, 95
6, 348240, Note_off_c, 6, 72, 95
6, 348480, Note_on_c, 6, 76, 95
6, 348480, Note_on_c, 6, 72, 95
6, 348720, Note_off_c, 6, 76, 95
6, 348720, Note_off_c, 6, 72, 95
6, 348960, Note_on_c, 6, 76, 95
6, 348960, Note_on_c, 6, 72, 95
6, 349200, Note_off_c, 6, 76, 95
6, 349200, Note_off_c, 6, 72, 95
6, 349440, Note_on_c, 6, 76, 95
6, 349440, Note_on_c, 6, 71, 95
6, 349680, Note_off_c, 6, 76, 95
6, 349680, Note_off_c, 6, 71, 95
6, 349920, Note_on_c, 6, 76, 95
6, 349920, Note_on_c, 6, 71, 95
6, 350160, Note_off_c, 6, 76, 95
6, 350160, Note_off_c, 6, 71, 95
6, 350400, Note_on_c, 6, 76, 95
6, 350400, Note_on_c, 6, 71, 95
6, 350640, Note_off_c, 6, 76, 95
6, 350640, Note_off_c, 6, 71, 95
6, 350880, Note_on_c, 6, 76, 95
6, 350880, Note_on_c, 6, 71, 95
6, 351120, Note_off_c, 6, 76, 95
6, 351120, Note_off_c, 6, 71, 95
6, 351120, Note_on_c, 6, 76, 95
6, 351120, Note_on_c, 6, 71, 95
6, 351360, Note_off_c, 6, 76, 95
6, 351360, Note_off_c, 6, 71, 95
6, 351360, Note_on_c, 6, 76, 95
6, 351360, Note_on_c, 6, 71, 95
6, 351600, Note_off_c, 6, 76, 95
6, 351600, Note_off_c, 6, 71, 95
6, 351600, Note_on_c, 6, 76, 95
6, 351600, Note_on_c, 6, 71, 95
6, 351840, Note_off_c, 6, 76, 95
6, 351840, Note_off_c, 6, 71, 95
6, 351840, Note_on_c, 6, 76, 95
6, 351840, Note_on_c, 6, 71, 95
6, 352080, Note_off_c, 6, 76, 95
6, 352080, Note_off_c, 6, 71, 95
6, 352320, Note_on_c, 6, 76, 95
6, 352320, Note_on_c, 6, 71, 95
6, 352560, Note_off_c, 6, 76, 95
6, 352560, Note_off_c, 6, 71, 95
6, 352800, Note_on_c, 6, 76, 95
6, 352800, Note_on_c, 6, 71, 95
6, 353040, Note_off_c, 6, 76, 95
6, 353040, Note_off_c, 6, 71, 95
6, 353280, Note_on_c, 6, 76, 95
6, 353280, Note_on_c, 6, 72, 95
6, 353520, Note_off_c, 6, 76, 95
6, 353520, Note_off_c, 6, 72, 95
6, 353760, Note_on_c, 6, 76, 95
6, 353760, Note_on_c, 6, 72, 95
6, 354000, Note_off_c, 6, 76, 95
6, 354000, Note_off_c, 6, 72, 95
6, 354240, Note_on_c, 6, 76, 95
6, 354240, Note_on_c, 6, 72, 95
6, 354480, Note_off_c, 6, 76, 95
6, 354480, Note_off_c, 6, 72, 95
6, 354720, Note_on_c, 6, 76, 95
6, 354720, Note_on_c, 6, 72, 95
6, 354960, Note_off_c, 6, 76, 95
6, 354960, Note_off_c, 6, 72, 95
6, 354960, Note_on_c, 6, 76, 95
6, 354960, Note_on_c, 6, 72, 95
6, 355200, Note_off_c, 6, 76, 95
6, 355200, Note_off_c, 6, 72, 95
6, 355200, Note_on_c, 6, 76, 95
6, 355200, Note_on_c, 6, 72, 95
6, 355440, Note_off_c, 6, 76, 95
6, 355440, Note_off_c, 6, 72, 95
6, 355440, Note_on_c, 6, 76, 95
6, 355440, Note_on_c, 6, 72, 95
6, 355680, Note_off_c, 6, 76, 95
6, 355680, Note_off_c, 6, 72, 95
6, 355680, Note_on_c, 6, 76, 95
6, 355680, Note_on_c, 6, 72, 95
6, 355920, Note_off_c, 6, 76, 95
6, 355920, Note_off_c, 6, 72, 95
6, 356160, Note_on_c, 6, 76, 95
6, 356160, Note_on_c, 6, 72, 95
6, 356400, Note_off_c, 6, 76, 95
6, 356400, Note_off_c, 6, 72, 95
6, 356640, Note_on_c, 6, 76, 95
6, 356640, Note_on_c, 6, 72, 95
6, 356880, Note_off_c, 6, 76, 95
6, 356880, Note_off_c, 6, 72, 95
6, 357120, Note_on_c, 6, 76, 95
6, 357120, Note_on_c, 6, 71, 95
6, 357360, Note_off_c, 6, 76, 95
6, 357360, Note_off_c, 6, 71, 95
6, 357600, Note_on_c, 6, 76, 95
6, 357600, Note_on_c, 6, 71, 95
6, 357840, Note_off_c, 6, 76, 95
6, 357840, Note_off_c, 6, 71, 95
6, 358080, Note_on_c, 6, 76, 95
6, 358080, Note_on_c, 6, 71, 95
6, 358320, Note_off_c, 6, 76, 95
6, 358320, Note_off_c, 6, 71, 95
6, 358560, Note_on_c, 6, 76, 95
6, 358560, Note_on_c, 6, 71, 95
6, 358800, Note_off_c, 6, 76, 95
6, 358800, Note_off_c, 6, 71, 95
6, 358800, Note_on_c, 6, 76, 95
6, 358800, Note_on_c, 6, 71, 95
6, 359040, Note_off_c, 6, 76, 95
6, 359040, Note_off_c, 6, 71, 95
6, 359040, Note_on_c, 6, 76, 95
6, 359040, Note_on_c, 6, 71, 95
6, 359280, Note_off_c, 6, 76, 95
6, 359280, Note_off_c, 6, 71, 95
6, 359280, Note_on_c, 6, 76, 95
6, 359280, Note_on_c, 6, 71, 95
6, 359520, Note_off_c, 6, 76, 95
6, 359520, Note_off_c, 6, 71, 95
6, 359520, Note_on_c, 6, 76, 95
6, 359520, Note_on_c, 6, 71, 95
6, 359760, Note_off_c, 6, 76, 95
6, 359760, Note_off_c, 6, 71, 95
6, 360000, Note_on_c, 6, 76, 95
6, 360000, Note_on_c, 6, 71, 95
6, 360240, Note_off_c, 6, 76, 95
6, 360240, Note_off_c, 6, 71, 95
6, 360480, Note_on_c, 6, 76, 95
6, 360480, Note_on_c, 6, 71, 95
6, 360720, Note_off_c, 6, 76, 95
6, 360720, Note_off_c, 6, 71, 95
6, 360960, Note_on_c, 6, 76, 95
6, 360960, Note_on_c, 6, 72, 95
6, 361200, Note_off_c, 6, 76, 95
6, 361200, Note_off_c, 6, 72, 95
6, 361440, Note_on_c, 6, 76, 95
6, 361440, Note_on_c, 6, 72, 95
6, 361680, Note_off_c, 6, 76, 95
6, 361680, Note_off_c, 6, 72, 95
6, 361920, Note_on_c, 6, 76, 95
6, 361920, Note_on_c, 6, 72, 95
6, 362160, Note_off_c, 6, 76, 95
6, 362160, Note_off_c, 6, 72, 95
6, 362400, Note_on_c, 6, 76, 95
6, 362400, Note_on_c, 6, 72, 95
6, 362640, Note_off_c, 6, 76, 95
6, 362640, Note_off_c, 6, 72, 95
6, 362640, Note_on_c, 6, 76, 95
6, 362640, Note_on_c, 6, 72, 95
6, 362880, Note_off_c, 6, 76, 95
6, 362880, Note_off_c, 6, 72, 95
6, 362880, Note_on_c, 6, 76, 95
6, 362880, Note_on_c, 6, 72, 95
6, 363120, Note_off_c, 6, 76, 95
6, 363120, Note_off_c, 6, 72, 95
6, 363120, Note_on_c, 6, 76, 95
6, 363120, Note_on_c, 6, 72, 95
6, 363360, Note_off_c, 6, 76, 95
6, 363360, Note_off_c, 6, 72, 95
6, 363360, Note_on_c, 6, 76, 95
6, 363360, Note_on_c, 6, 72, 95
6, 363600, Note_off_c, 6, 76, 95
6, 363600, Note_off_c, 6, 72, 95
6, 363840, Note_on_c, 6, 76, 95
6, 363840, Note_on_c, 6, 72, 95
6, 364080, Note_off_c, 6, 76, 95
6, 364080, Note_off_c, 6, 72, 95
6, 364320, Note_on_c, 6, 76, 95
6, 364320, Note_on_c, 6, 72, 95
6, 364560, Note_off_c, 6, 76, 95
6, 364560, Note_off_c, 6, 72, 95
6, 364800, Note_on_c, 6, 76, 95
6, 364800, Note_on_c, 6, 71, 95
6, 365040, Note_off_c, 6, 76, 95
6, 365040, Note_off_c, 6, 71, 95
6, 365280, Note_on_c, 6, 76, 95
6, 365280, Note_on_c, 6, 71, 95
6, 365520, Note_off_c, 6, 76, 95
6, 365520, Note_off_c, 6, 71, 95
6, 365760, Note_on_c, 6, 76, 95
6, 365760, Note_on_c, 6, 71, 95
6, 366000, Note_off_c, 6, 76, 95
6, 366000, Note_off_c, 6, 71, 95
6, 366240, Note_on_c, 6, 76, 95
6, 366240, Note_on_c, 6, 71, 95
6, 366480, Note_off_c, 6, 76, 95
6, 366480, Note_off_c, 6, 71, 95
6, 366480, Note_on_c, 6, 76, 95
6, 366480, Note_on_c, 6, 71, 95
6, 366720, Note_off_c, 6, 76, 95
6, 366720, Note_off_c, 6, 71, 95
6, 366720, Note_on_c, 6, 76, 95
6, 366720, Note_on_c, 6, 71, 95
6, 366960, Note_off_c, 6, 76, 95
6, 366960, Note_off_c, 6, 71, 95
6, 366960, Note_on_c, 6, 76, 95
6, 366960, Note_on_c, 6, 71, 95
6, 367200, Note_off_c, 6, 76, 95
6, 367200, Note_off_c, 6, 71, 95
6, 367200, Note_on_c, 6, 76, 95
6, 367200, Note_on_c, 6, 71, 95
6, 367440, Note_off_c, 6, 76, 95
6, 367440, Note_off_c, 6, 71, 95
6, 367680, Note_on_c, 6, 76, 95
6, 367680, Note_on_c, 6, 71, 95
6, 367920, Note_off_c, 6, 76, 95
6, 367920, Note_off_c, 6, 71, 95
6, 368160, Note_on_c, 6, 76, 95
6, 368160, Note_on_c, 6, 71, 95
6, 368400, Note_off_c, 6, 76, 95
6, 368400, Note_off_c, 6, 71, 95
6, 368640, Note_on_c, 6, 76, 95
6, 368640, Note_on_c, 6, 72, 95
6, 368880, Note_off_c, 6, 76, 95
6, 368880, Note_off_c, 6, 72, 95
6, 369120, Note_on_c, 6, 76, 95
6, 369120, Note_on_c, 6, 72, 95
6, 369360, Note_off_c, 6, 76, 95
6, 369360, Note_off_c, 6, 72, 95
6, 369600, Note_on_c, 6, 76, 95
6, 369600, Note_on_c, 6, 72, 95
6, 369840, Note_off_c, 6, 76, 95
6, 369840, Note_off_c, 6, 72, 95
6, 370080, Note_on_c, 6, 76, 95
6, 370080, Note_on_c, 6, 72, 95
6, 370320, Note_off_c, 6, 76, 95
6, 370320, Note_off_c, 6, 72, 95
6, 370320, Note_on_c, 6, 76, 95
6, 370320, Note_on_c, 6, 72, 95
6, 370560, Note_off_c, 6, 76, 95
6, 370560, Note_off_c, 6, 72, 95
6, 370560, Note_on_c, 6, 76, 95
6, 370560, Note_on_c, 6, 72, 95
6, 370800, Note_off_c, 6, 76, 95
6, 370800, Note_off_c, 6, 72, 95
6, 370800, Note_on_c, 6, 76, 95
6, 370800, Note_on_c, 6, 72, 95
6, 371040, Note_off_c, 6, 76, 95
6, 371040, Note_off_c, 6, 72, 95
6, 371040, Note_on_c, 6, 76, 95
6, 371040, Note_on_c, 6, 72, 95
6, 371280, Note_off_c, 6, 76, 95
6, 371280, Note_off_c, 6, 72, 95
6, 371520, Note_on_c, 6, 76, 95
6, 371520, Note_on_c, 6, 72, 95
6, 371760, Note_off_c, 6, 76, 95
6, 371760, Note_off_c, 6, 72, 95
6, 372000, Note_on_c, 6, 76, 95
6, 372000, Note_on_c, 6, 72, 95
6, 372240, Note_off_c, 6, 76, 95
6, 372240, Note_off_c, 6, 72, 95
6, 372480, Note_on_c, 6, 76, 95
6, 372480, Note_on_c, 6, 71, 95
6, 372720, Note_off_c, 6, 76, 95
6, 372720, Note_off_c, 6, 71, 95
6, 372960, Note_on_c, 6, 76, 95
6, 372960, Note_on_c, 6, 71, 95
6, 373200, Note_off_c, 6, 76, 95
6, 373200, Note_off_c, 6, 71, 95
6, 373440, Note_on_c, 6, 76, 95
6, 373440, Note_on_c, 6, 71, 95
6, 373680, Note_off_c, 6, 76, 95
6, 373680, Note_off_c, 6, 71, 95
6, 373920, Note_on_c, 6, 76, 95
6, 373920, Note_on_c, 6, 71, 95
6, 374160, Note_off_c, 6, 76, 95
6, 374160, Note_off_c, 6, 71, 95
6, 374160, Note_on_c, 6, 76, 95
6, 374160, Note_on_c, 6, 71, 95
6, 374400, Note_off_c, 6, 76, 95
6, 374400, Note_off_c, 6, 71, 95
6, 374400, Note_on_c, 6, 76, 95
6, 374400, Note_on_c, 6, 71, 95
6, 374640, Note_off_c, 6, 76, 95
6, 374640, Note_off_c, 6, 71, 95
6, 374640, Note_on_c, 6, 76, 95
6, 374640, Note_on_c, 6, 71, 95
6, 374880, Note_off_c, 6, 76, 95
6, 374880, Note_off_c, 6, 71, 95
6, 374880, Note_on_c, 6, 76, 95
6, 374880, Note_on_c, 6, 71, 95
6, 375120, Note_off_c, 6, 76, 95
6, 375120, Note_off_c, 6, 71, 95
6, 375360, Note_on_c, 6, 76, 95
6, 375360, Note_on_c, 6, 71, 95
6, 375600, Note_off_c, 6, 76, 95
6, 375600, Note_off_c, 6, 71, 95
6, 375840, Note_on_c, 6, 76, 95
6, 375840, Note_on_c, 6, 71, 95
6, 376080, Note_off_c, 6, 76, 95
6, 376080, Note_off_c, 6, 71, 95
6, 376320, Note_on_c, 6, 76, 95
6, 376320, Note_on_c, 6, 72, 95
6, 376560, Note_off_c, 6, 76, 95
6, 376560, Note_off_c, 6, 72, 95
6, 376800, Note_on_c, 6, 76, 95
6, 376800, Note_on_c, 6, 72, 95
6, 377040, Note_off_c, 6, 76, 95
6, 377040, Note_off_c, 6, 72, 95
6, 377280, Note_on_c, 6, 76, 95
6, 377280, Note_on_c, 6, 72, 95
6, 377520, Note_off_c, 6, 76, 95
6, 377520, Note_off_c, 6, 72, 95
6, 377760, Note_on_c, 6, 76, 95
6, 377760, Note_on_c, 6, 72, 95
6, 378000, Note_off_c, 6, 76, 95
6, 378000, Note_off_c, 6, 72, 95
6, 378000, Note_on_c, 6, 76, 95
6, 378000, Note_on_c, 6, 72, 95
6, 378240, Note_off_c, 6, 76, 95
6, 378240, Note_off_c, 6, 72, 95
6, 378240, Note_on_c, 6, 76, 95
6, 378240, Note_on_c, 6, 72, 95
6, 378480, Note_off_c, 6, 76, 95
6, 378480, Note_off_c, 6, 72, 95
6, 378480, Note_on_c, 6, 76, 95
6, 378480, Note_on_c, 6, 72, 95
6, 378720, Note_off_c, 6, 76, 95
6, 378720, Note_off_c, 6, 72, 95
6, 378720, Note_on_c, 6, 76, 95
6, 378720, Note_on_c, 6, 72, 95
6, 378960, Note_off_c, 6, 76, 95
6, 378960, Note_off_c, 6, 72, 95
6, 379200, Note_on_c, 6, 76, 95
6, 379200, Note_on_c, 6, 72, 95
6, 379440, Note_off_c, 6, 76, 95
6, 379440, Note_off_c, 6, 72, 95
6, 379680, Note_on_c, 6, 76, 95
6, 379680, Note_on_c, 6, 72, 95
6, 379920, Note_off_c, 6, 76, 95
6, 379920, Note_off_c, 6, 72, 95
6, 380160, Note_on_c, 6, 76, 95
6, 380160, Note_on_c, 6, 71, 95
6, 380400, Note_off_c, 6, 76, 95
6, 380400, Note_off_c, 6, 71, 95
6, 380640, Note_on_c, 6, 76, 95
6, 380640, Note_on_c, 6, 71, 95
6, 380880, Note_off_c, 6, 76, 95
6, 380880, Note_off_c, 6, 71, 95
6, 381120, Note_on_c, 6, 76, 95
6, 381120, Note_on_c, 6, 71, 95
6, 381360, Note_off_c, 6, 76, 95
6, 381360, Note_off_c, 6, 71, 95
6, 381600, Note_on_c, 6, 76, 95
6, 381600, Note_on_c, 6, 71, 95
6, 381840, Note_off_c, 6, 76, 95
6, 381840, Note_off_c, 6, 71, 95
6, 381840, Note_on_c, 6, 76, 95
6, 381840, Note_on_c, 6, 71, 95
6, 382080, Note_off_c, 6, 76, 95
6, 382080, Note_off_c, 6, 71, 95
6, 382080, Note_on_c, 6, 76, 95
6, 382080, Note_on_c, 6, 71, 95
6, 382320, Note_off_c, 6, 76, 95
6, 382320, Note_off_c, 6, 71, 95
6, 382320, Note_on_c, 6, 76, 95
6, 382320, Note_on_c, 6, 71, 95
6, 382560, Note_off_c, 6, 76, 95
6, 382560, Note_off_c, 6, 71, 95
6, 382560, Note_on_c, 6, 76, 95
6, 382560, Note_on_c, 6, 71, 95
6, 382800, Note_off_c, 6, 76, 95
6, 382800, Note_off_c, 6, 71, 95
6, 383040, Note_on_c, 6, 76, 95
6, 383040, Note_on_c, 6, 71, 95
6, 383280, Note_off_c, 6, 76, 95
6, 383280, Note_off_c, 6, 71, 95
6, 383520, Note_on_c, 6, 76, 95
6, 383520, Note_on_c, 6, 71, 95
6, 383760, Note_off_c, 6, 76, 95
6, 383760, Note_off_c, 6, 71, 95
6, 384000, Note_on_c, 6, 76, 95
6, 384000, Note_on_c, 6, 72, 95
6, 384240, Note_off_c, 6, 76, 95
6, 384240, Note_off_c, 6, 72, 95
6, 384480, Note_on_c, 6, 76, 95
6, 384480, Note_on_c, 6, 72, 95
6, 384720, Note_off_c, 6, 76, 95
6, 384720, Note_off_c, 6, 72, 95
6, 384960, Note_on_c, 6, 76, 95
6, 384960, Note_on_c, 6, 72, 95
6, 385200, Note_off_c, 6, 76, 95
6, 385200, Note_off_c, 6, 72, 95
6, 385440, Note_on_c, 6, 76, 95
6, 385440, Note_on_c, 6, 72, 95
6, 385680, Note_off_c, 6, 76, 95
6, 385680, Note_off_c, 6, 72, 95
6, 385680, Note_on_c, 6, 76, 95
6, 385680, Note_on_c, 6, 72, 95
6, 385920, Note_off_c, 6, 76, 95
6, 385920, Note_off_c, 6, 72, 95
6, 385920, Note_on_c, 6, 76, 95
6, 385920, Note_on_c, 6, 72, 95
6, 386160, Note_off_c, 6, 76, 95
6, 386160, Note_off_c, 6, 72, 95
6, 386160, Note_on_c, 6, 76, 95
6, 386160, Note_on_c, 6, 72, 95
6, 386400, Note_off_c, 6, 76, 95
6, 386400, Note_off_c, 6, 72, 95
6, 386400, Note_on_c, 6, 76, 95
6, 386400, Note_on_c, 6, 72, 95
6, 386640, Note_off_c, 6, 76, 95
6, 386640, Note_off_c, 6, 72, 95
6, 386880, Note_on_c, 6, 76, 95
6, 386880, Note_on_c, 6, 72, 95
6, 387120, Note_off_c, 6, 76, 95
6, 387120, Note_off_c, 6, 72, 95
6, 387360, Note_on_c, 6, 76, 95
6, 387360, Note_on_c, 6, 72, 95
6, 387600, Note_off_c, 6, 76, 95
6, 387600, Note_off_c, 6, 72, 95
6, 387840, Note_on_c, 6, 76, 95
6, 387840, Note_on_c, 6, 71, 95
6, 388080, Note_off_c, 6, 76, 95
6, 388080, Note_off_c, 6, 71, 95
6, 388320, Note_on_c, 6, 76, 95
6, 388320, Note_on_c, 6, 71, 95
6, 388560, Note_off_c, 6, 76, 95
6, 388560, Note_off_c, 6, 71, 95
6, 388800, Note_on_c, 6, 76, 95
6, 388800, Note_on_c, 6, 71, 95
6, 389040, Note_off_c, 6, 76, 95
6, 389040, Note_off_c, 6, 71, 95
6, 389280, Note_on_c, 6, 76, 95
6, 389280, Note_on_c, 6, 71, 95
6, 389520, Note_off_c, 6, 76, 95
6, 389520, Note_off_c, 6, 71, 95
6, 389520, Note_on_c, 6, 76, 95
6, 389520, Note_on_c, 6, 71, 95
6, 389760, Note_off_c, 6, 76, 95
6, 389760, Note_off_c, 6, 71, 95
6, 389760, Note_on_c, 6, 76, 95
6, 389760, Note_on_c, 6, 71, 95
6, 390000, Note_off_c, 6, 76, 95
6, 390000, Note_off_c, 6, 71, 95
6, 390000, Note_on_c, 6, 76, 95
6, 390000, Note_on_c, 6, 71, 95
6, 390240, Note_off_c, 6, 76, 95
6, 390240, Note_off_c, 6, 71, 95
6, 390240, Note_on_c, 6, 76, 95
6, 390240, Note_on_c, 6, 71, 95
6, 390480, Note_off_c, 6, 76, 95
6, 390480, Note_off_c, 6, 71, 95
6, 390720, Note_on_c, 6, 76, 95
6, 390720, Note_on_c, 6, 71, 95
6, 390960, Note_off_c, 6, 76, 95
6, 390960, Note_off_c, 6, 71, 95
6, 391200, Note_on_c, 6, 76, 95
6, 391200, Note_on_c, 6, 71, 95
6, 391440, Note_off_c, 6, 76, 95
6, 391440, Note_off_c, 6, 71, 95
6, 391680, Note_on_c, 6, 76, 95
6, 391680, Note_on_c, 6, 72, 95
6, 391920, Note_off_c, 6, 76, 95
6, 391920, Note_off_c, 6, 72, 95
6, 392160, Note_on_c, 6, 76, 95
6, 392160, Note_on_c, 6, 72, 95
6, 392400, Note_off_c, 6, 76, 95
6, 392400, Note_off_c, 6, 72, 95
6, 392640, Note_on_c, 6, 76, 95
6, 392640, Note_on_c, 6, 72, 95
6, 392880, Note_off_c, 6, 76, 95
6, 392880, Note_off_c, 6, 72, 95
6, 393120, Note_on_c, 6, 76, 95
6, 393120, Note_on_c, 6, 72, 95
6, 393360, Note_off_c, 6, 76, 95
6, 393360, Note_off_c, 6, 72, 95
6, 393360, Note_on_c, 6, 76, 95
6, 393360, Note_on_c, 6, 72, 95
6, 393600, Note_off_c, 6, 76, 95
6, 393600, Note_off_c, 6, 72, 95
6, 393600, Note_on_c, 6, 76, 95
6, 393600, Note_on_c, 6, 72, 95
6, 393840, Note_off_c, 6, 76, 95
6, 393840, Note_off_c, 6, 72, 95
6, 393840, Note_on_c, 6, 76, 95
6, 393840, Note_on_c, 6, 72, 95
6, 394080, Note_off_c, 6, 76, 95
6, 394080, Note_off_c, 6, 72, 95
6, 394080, Note_on_c, 6, 76, 95
6, 394080, Note_on_c, 6, 72, 95
6, 394320, Note_off_c, 6, 76, 95
6, 394320, Note_off_c, 6, 72, 95
6, 394560, Note_on_c, 6, 76, 95
6, 394560, Note_on_c, 6, 72, 95
6, 394800, Note_off_c, 6, 76, 95
6, 394800, Note_off_c, 6, 72, 95
6, 395040, Note_on_c, 6, 76, 95
6, 395040, Note_on_c, 6, 72, 95
6, 395280, Note_off_c, 6, 76, 95
6, 395280, Note_off_c, 6, 72, 95
6, 395520, Note_on_c, 6, 76, 95
6, 395520, Note_on_c, 6, 71, 95
6, 395760, Note_off_c, 6, 76, 95
6, 395760, Note_off_c, 6, 71, 95
6, 396000, Note_on_c, 6, 76, 95
6, 396000, Note_on_c, 6, 71, 95
6, 396240, Note_off_c, 6, 76, 95
6, 396240, Note_off_c, 6, 71, 95
6, 396480, Note_on_c, 6, 76, 95
6, 396480, Note_on_c, 6, 71, 95
6, 396720, Note_off_c, 6, 76, 95
6, 396720, Note_off_c, 6, 71, 95
6, 396960, Note_on_c, 6, 76, 95
6, 396960, Note_on_c, 6, 71, 95
6, 397200, Note_off_c, 6, 76, 95
6, 397200, Note_off_c, 6, 71, 95
6, 397200, Note_on_c, 6, 76, 95
6, 397200, Note_on_c, 6, 71, 95
6, 397440, Note_off_c, 6, 76, 95
6, 397440, Note_off_c, 6, 71, 95
6, 397440, Note_on_c, 6, 76, 95
6, 397440, Note_on_c, 6, 71, 95
6, 397680, Note_off_c, 6, 76, 95
6, 397680, Note_off_c, 6, 71, 95
6, 397680, Note_on_c, 6, 76, 95
6, 397680, Note_on_c, 6, 71, 95
6, 397920, Note_off_c, 6, 76, 95
6, 397920, Note_off_c, 6, 71, 95
6, 397920, Note_on_c, 6, 76, 95
6, 397920, Note_on_c, 6, 71, 95
6, 398160, Note_off_c, 6, 76, 95
6, 398160, Note_off_c, 6, 71, 95
6, 398400, Note_on_c, 6, 76, 95
6, 398400, Note_on_c, 6, 71, 95
6, 398640, Note_off_c, 6, 76, 95
6, 398640, Note_off_c, 6, 71, 95
6, 398880, Note_on_c, 6, 76, 95
6, 398880, Note_on_c, 6, 71, 95
6, 399120, Note_off_c, 6, 76, 95
6, 399120, Note_off_c, 6, 71, 95
6, 399360, Note_on_c, 6, 76, 95
6, 399360, Note_on_c, 6, 72, 95
6, 399600, Note_off_c, 6, 76, 95
6, 399600, Note_off_c, 6, 72, 95
6, 399840, Note_on_c, 6, 76, 95
6, 399840, Note_on_c, 6, 72, 95
6, 400080, Note_off_c, 6, 76, 95
6, 400080, Note_off_c, 6, 72, 95
6, 400320, Note_on_c, 6, 76, 95
6, 400320, Note_on_c, 6, 72, 95
6, 400560, Note_off_c, 6, 76, 95
6, 400560, Note_off_c, 6, 72, 95
6, 400800, Note_on_c, 6, 76, 95
6, 400800, Note_on_c, 6, 72, 95
6, 401040, Note_off_c, 6, 76, 95
6, 401040, Note_off_c, 6, 72, 95
6, 401040, Note_on_c, 6, 76, 95
6, 401040, Note_on_c, 6, 72, 95
6, 401280, Note_off_c, 6, 76, 95
6, 401280, Note_off_c, 6, 72, 95
6, 401280, Note_on_c, 6, 76, 95
6, 401280, Note_on_c, 6, 72, 95
6, 401520, Note_off_c, 6, 76, 95
6, 401520, Note_off_c, 6, 72, 95
6, 401520, Note_on_c, 6, 76, 95
6, 401520, Note_on_c, 6, 72, 95
6, 401760, Note_off_c, 6, 76, 95
6, 401760, Note_off_c, 6, 72, 95
6, 401760, Note_on_c, 6, 76, 95
6, 401760, Note_on_c, 6, 72, 95
6, 402000, Note_off_c, 6, 76, 95
6, 402000, Note_off_c, 6, 72, 95
6, 402240, Note_on_c, 6, 76, 95
6, 402240, Note_on_c, 6, 72, 95
6, 402480, Note_off_c, 6, 76, 95
6, 402480, Note_off_c, 6, 72, 95
6, 402720, Note_on_c, 6, 76, 95
6, 402720, Note_on_c, 6, 72, 95
6, 402960, Note_off_c, 6, 76, 95
6, 402960, Note_off_c, 6, 72, 95
6, 403200, Note_on_c, 6, 76, 95
6, 403200, Note_on_c, 6, 71, 95
6, 403440, Note_off_c, 6, 76, 95
6, 403440, Note_off_c, 6, 71, 95
6, 403680, Note_on_c, 6, 76, 95
6, 403680, Note_on_c, 6, 71, 95
6, 403920, Note_off_c, 6, 76, 95
6, 403920, Note_off_c, 6, 71, 95
6, 404160, Note_on_c, 6, 76, 95
6, 404160, Note_on_c, 6, 71, 95
6, 404400, Note_off_c, 6, 76, 95
6, 404400, Note_off_c, 6, 71, 95
6, 404640, Note_on_c, 6, 76, 95
6, 404640, Note_on_c, 6, 71, 95
6, 404880, Note_off_c, 6, 76, 95
6, 404880, Note_off_c, 6, 71, 95
6, 404880, Note_on_c, 6, 76, 95
6, 404880, Note_on_c, 6, 71, 95
6, 405120, Note_off_c, 6, 76, 95
6, 405120, Note_off_c, 6, 71, 95
6, 405120, Note_on_c, 6, 76, 95
6, 405120, Note_on_c, 6, 71, 95
6, 405360, Note_off_c, 6, 76, 95
6, 405360, Note_off_c, 6, 71, 95
6, 405360, Note_on_c, 6, 76, 95
6, 405360, Note_on_c, 6, 71, 95
6, 405600, Note_off_c, 6, 76, 95
6, 405600, Note_off_c, 6, 71, 95
6, 405600, Note_on_c, 6, 76, 95
6, 405600, Note_on_c, 6, 71, 95
6, 405840, Note_off_c, 6, 76, 95
6, 405840, Note_off_c, 6, 71, 95
6, 406080, Note_on_c, 6, 76, 95
6, 406080, Note_on_c, 6, 71, 95
6, 406320, Note_off_c, 6, 76, 95
6, 406320, Note_off_c, 6, 71, 95
6, 406560, Note_on_c, 6, 76, 95
6, 406560, Note_on_c, 6, 71, 95
6, 406800, Note_off_c, 6, 76, 95
6, 406800, Note_off_c, 6, 71, 95
6, 407040, Note_on_c, 6, 76, 95
6, 407040, Note_on_c, 6, 72, 95
6, 407280, Note_off_c, 6, 76, 95
6, 407280, Note_off_c, 6, 72, 95
6, 407520, Note_on_c, 6, 76, 95
6, 407520, Note_on_c, 6, 72, 95
6, 407760, Note_off_c, 6, 76, 95
6, 407760, Note_off_c, 6, 72, 95
6, 408000, Note_on_c, 6, 76, 95
6, 408000, Note_on_c, 6, 72, 95
6, 408240, Note_off_c, 6, 76, 95
6, 408240, Note_off_c, 6, 72, 95
6, 408480, Note_on_c, 6, 76, 95
6, 408480, Note_on_c, 6, 72, 95
6, 408720, Note_off_c, 6, 76, 95
6, 408720, Note_off_c, 6, 72, 95
6, 408720, Note_on_c, 6, 76, 95
6, 408720, Note_on_c, 6, 72, 95
6, 408960, Note_off_c, 6, 76, 95
6, 408960, Note_off_c, 6, 72, 95
6, 408960, Note_on_c, 6, 76, 95
6, 408960, Note_on_c, 6, 72, 95
6, 409200, Note_off_c, 6, 76, 95
6, 409200, Note_off_c, 6, 72, 95
6, 409200, Note_on_c, 6, 76, 95
6, 409200, Note_on_c, 6, 72, 95
6, 409440, Note_off_c, 6, 76, 95
6, 409440, Note_off_c, 6, 72, 95
6, 409440, Note_on_c, 6, 76, 95
6, 409440, Note_on_c, 6, 72, 95
6, 409680, Note_off_c, 6, 76, 95
6, 409680, Note_off_c, 6, 72, 95
6, 409920, Note_on_c, 6, 76, 95
6, 409920, Note_on_c, 6, 72, 95
6, 410160, Note_off_c, 6, 76, 95
6, 410160, Note_off_c, 6, 72, 95
6, 410400, Note_on_c, 6, 76, 95
6, 410400, Note_on_c, 6, 72, 95
6, 410640, Note_off_c, 6, 76, 95
6, 410640, Note_off_c, 6, 72, 95
6, 410640, End_track
7, 0, Start_track
7, 0, Pitch_bend_c, 8, 8192
7, 0, Control_c, 8, 7, 71
7, 0, Control_c, 8, 10, 95
7, 0, Control_c, 8, 93, 0
7, 0, Control_c, 8, 91, 0
7, 0, Control_c, 8, 95, 0
7, 0, Control_c, 8, 92, 0
7, 0, Control_c, 8, 11, 127
7, 0, Program_c, 8, 11
7, 0, Control_c, 10, 7, 71
7, 0, Control_c, 10, 10, 95
7, 0, Control_c, 10, 93, 0
7, 0, Control_c, 10, 91, 0
7, 0, Control_c, 10, 95, 0
7, 0, Control_c, 10, 92, 0
7, 0, Control_c, 10, 11, 127
7, 0, Program_c, 10, 11
7, 30720, Note_on_c, 10, 68, 95
7, 30880, Pitch_bend_c, 10, 8192
7, 31040, Pitch_bend_c, 10, 8320
7, 31200, Pitch_bend_c, 10, 8192
7, 31360, Pitch_bend_c, 10, 8320
7, 31520, Pitch_bend_c, 10, 8192
7, 31680, Pitch_bend_c, 10, 8320
7, 31840, Pitch_bend_c, 10, 8192
7, 32000, Pitch_bend_c, 10, 8320
7, 32160, Pitch_bend_c, 10, 8192
7, 32160, Pitch_bend_c, 10, 8320
7, 32160, Pitch_bend_c, 10, 8192
7, 32160, Note_off_c, 10, 68, 95
7, 32160, Note_on_c, 10, 71, 95
7, 32320, Pitch_bend_c, 10, 8192
7, 32480, Pitch_bend_c, 10, 8320
7, 32640, Pitch_bend_c, 10, 8192
7, 32800, Pitch_bend_c, 10, 8320
7, 32960, Pitch_bend_c, 10, 8192
7, 33120, Pitch_bend_c, 10, 8320
7, 33280, Pitch_bend_c, 10, 8192
7, 33440, Pitch_bend_c, 10, 8320
7, 33600, Pitch_bend_c, 10, 8192
7, 33600, Pitch_bend_c, 10, 8320
7, 33600, Pitch_bend_c, 10, 8192
7, 33600, Note_off_c, 10, 71, 95
7, 33600, Note_on_c, 10, 75, 95
7, 33760, Pitch_bend_c, 10, 8192
7, 33920, Pitch_bend_c, 10, 8320
7, 34080, Pitch_bend_c, 10, 8192
7, 34240, Pitch_bend_c, 10, 8320
7, 34400, Pitch_bend_c, 10, 8192
7, 34560, Pitch_bend_c, 10, 8320
7, 34560, Pitch_bend_c, 10, 8192
7, 34560, Note_off_c, 10, 75, 95
7, 34560, Note_on_c, 10, 72, 95
7, 34720, Pitch_bend_c, 10, 8192
7, 34880, Pitch_bend_c, 10, 8320
7, 35040, Pitch_bend_c, 10, 8192
7, 35200, Pitch_bend_c, 10, 8320
7, 35360, Pitch_bend_c, 10, 8192
7, 35520, Pitch_bend_c, 10, 8320
7, 35680, Pitch_bend_c, 10, 8192
7, 35840, Pitch_bend_c, 10, 8320
7, 36000, Pitch_bend_c, 10, 8192
7, 36000, Pitch_bend_c, 10, 8320
7, 36000, Pitch_bend_c, 10, 8192
7, 36000, Note_off_c, 10, 72, 95
7, 36000, Note_on_c, 10, 65, 95
7, 36160, Pitch_bend_c, 10, 8192
7, 36320, Pitch_bend_c, 10, 8320
7, 36480, Pitch_bend_c, 10, 8192
7, 36640, Pitch_bend_c, 10, 8320
7, 36800, Pitch_bend_c, 10, 8192
7, 36960, Pitch_bend_c, 10, 8320
7, 37120, Pitch_bend_c, 10, 8192
7, 37280, Pitch_bend_c, 10, 8320
7, 37440, Pitch_bend_c, 10, 8192
7, 37600, Pitch_bend_c, 10, 8320
7, 37760, Pitch_bend_c, 10, 8192
7, 37920, Pitch_bend_c, 10, 8320
7, 38080, Pitch_bend_c, 10, 8192
7, 38240, Pitch_bend_c, 10, 8320
7, 38400, Pitch_bend_c, 10, 8192
7, 38400, Pitch_bend_c, 10, 8320
7, 38400, Pitch_bend_c, 10, 8192
7, 38400, Note_off_c, 10, 65, 95
7, 38400, Note_on_c, 10, 68, 95
7, 38560, Pitch_bend_c, 10, 8192
7, 38720, Pitch_bend_c, 10, 8320
7, 38880, Pitch_bend_c, 10, 8192
7, 39040, Pitch_bend_c, 10, 8320
7, 39200, Pitch_bend_c, 10, 8192
7, 39360, Pitch_bend_c, 10, 8320
7, 39520, Pitch_bend_c, 10, 8192
7, 39680, Pitch_bend_c, 10, 8320
7, 39840, Pitch_bend_c, 10, 8192
7, 39840, Pitch_bend_c, 10, 8320
7, 39840, Pitch_bend_c, 10, 8192
7, 39840, Note_off_c, 10, 68, 95
7, 39840, Note_on_c, 10, 71, 95
7, 40000, Pitch_bend_c, 10, 8192
7, 40160, Pitch_bend_c, 10, 8320
7, 40320, Pitch_bend_c, 10, 8192
7, 40480, Pitch_bend_c, 10, 8320
7, 40640, Pitch_bend_c, 10, 8192
7, 40800, Pitch_bend_c, 10, 8320
7, 40960, Pitch_bend_c, 10, 8192
7, 41120, Pitch_bend_c, 10, 8320
7, 41280, Pitch_bend_c, 10, 8192
7, 41280, Pitch_bend_c, 10, 8320
7, 41280, Pitch_bend_c, 10, 8192
7, 41280, Note_off_c, 10, 71, 95
7, 41280, Note_on_c, 10, 63, 95
7, 41440, Pitch_bend_c, 10, 8192
7, 41600, Pitch_bend_c, 10, 8320
7, 41760, Pitch_bend_c, 10, 8192
7, 41920, Pitch_bend_c, 10, 8320
7, 42080, Pitch_bend_c, 10, 8192
7, 42240, Pitch_bend_c, 10, 8320
7, 42240, Pitch_bend_c, 10, 8192
7, 42240, Note_off_c, 10, 63, 95
7, 42240, Note_on_c, 10, 65, 95
7, 42400, Pitch_bend_c, 10, 8192
7, 42560, Pitch_bend_c, 10, 8320
7, 42720, Pitch_bend_c, 10, 8192
7, 42880, Pitch_bend_c, 10, 8320
7, 43040, Pitch_bend_c, 10, 8192
7, 43200, Pitch_bend_c, 10, 8320
7, 43360, Pitch_bend_c, 10, 8192
7, 43520, Pitch_bend_c, 10, 8320
7, 43680, Pitch_bend_c, 10, 8192
7, 43680, Pitch_bend_c, 10, 8320
7, 43680, Pitch_bend_c, 10, 8192
7, 43680, Note_off_c, 10, 65, 95
7, 43680, Note_on_c, 10, 72, 95
7, 43840, Pitch_bend_c, 10, 8192
7, 44000, Pitch_bend_c, 10, 8320
7, 44160, Pitch_bend_c, 10, 8192
7, 44320, Pitch_bend_c, 10, 8320
7, 44480, Pitch_bend_c, 10, 8192
7, 44640, Pitch_bend_c, 10, 8320
7, 44800, Pitch_bend_c, 10, 8192
7, 44960, Pitch_bend_c, 10, 8320
7, 45120, Pitch_bend_c, 10, 8192
7, 45280, Pitch_bend_c, 10, 8320
7, 45440, Pitch_bend_c, 10, 8192
7, 45600, Pitch_bend_c, 10, 8320
7, 45760, Pitch_bend_c, 10, 8192
7, 45920, Pitch_bend_c, 10, 8320
7, 46080, Pitch_bend_c, 10, 8192
7, 46080, Pitch_bend_c, 10, 8320
7, 46080, Pitch_bend_c, 10, 8192
7, 46080, Note_off_c, 10, 72, 95
7, 46080, Note_on_c, 10, 66, 95
7, 46240, Pitch_bend_c, 10, 8192
7, 46400, Pitch_bend_c, 10, 8320
7, 46560, Pitch_bend_c, 10, 8192
7, 46720, Pitch_bend_c, 10, 8320
7, 46880, Pitch_bend_c, 10, 8192
7, 47040, Pitch_bend_c, 10, 8320
7, 47200, Pitch_bend_c, 10, 8192
7, 47360, Pitch_bend_c, 10, 8320
7, 47520, Pitch_bend_c, 10, 8192
7, 47520, Pitch_bend_c, 10, 8320
7, 47520, Pitch_bend_c, 10, 8192
7, 47520, Note_off_c, 10, 66, 95
7, 47520, Note_on_c, 10, 69, 95
7, 47680, Pitch_bend_c, 10, 8192
7, 47840, Pitch_bend_c, 10, 8320
7, 48000, Pitch_bend_c, 10, 8192
7, 48160, Pitch_bend_c, 10, 8320
7, 48320, Pitch_bend_c, 10, 8192
7, 48480, Pitch_bend_c, 10, 8320
7, 48640, Pitch_bend_c, 10, 8192
7, 48800, Pitch_bend_c, 10, 8320
7, 48960, Pitch_bend_c, 10, 8192
7, 49120, Pitch_bend_c, 10, 8320
7, 49280, Pitch_bend_c, 10, 8192
7, 49440, Pitch_bend_c, 10, 8320
7, 49600, Pitch_bend_c, 10, 8192
7, 49760, Pitch_bend_c, 10, 8320
7, 49920, Pitch_bend_c, 10, 8192
7, 49920, Pitch_bend_c, 10, 8320
7, 49920, Pitch_bend_c, 10, 8192
7, 49920, Note_off_c, 10, 69, 95
7, 49920, Note_on_c, 10, 68, 95
7, 50080, Pitch_bend_c, 10, 8192
7, 50240, Pitch_bend_c, 10, 8320
7, 50400, Pitch_bend_c, 10, 8192
7, 50560, Pitch_bend_c, 10, 8320
7, 50720, Pitch_bend_c, 10, 8192
7, 50880, Pitch_bend_c, 10, 8320
7, 51040, Pitch_bend_c, 10, 8192
7, 51200, Pitch_bend_c, 10, 8320
7, 51360, Pitch_bend_c, 10, 8192
7, 51360, Pitch_bend_c, 10, 8320
7, 51360, Pitch_bend_c, 10, 8192
7, 51360, Note_off_c, 10, 68, 95
7, 51360, Note_on_c, 10, 71, 95
7, 51520, Pitch_bend_c, 10, 8192
7, 51680, Pitch_bend_c, 10, 8320
7, 51840, Pitch_bend_c, 10, 8192
7, 52000, Pitch_bend_c, 10, 8320
7, 52160, Pitch_bend_c, 10, 8192
7, 52320, Pitch_bend_c, 10, 8320
7, 52480, Pitch_bend_c, 10, 8192
7, 52640, Pitch_bend_c, 10, 8320
7, 52800, Pitch_bend_c, 10, 8192
7, 52960, Pitch_bend_c, 10, 8320
7, 53120, Pitch_bend_c, 10, 8192
7, 53280, Pitch_bend_c, 10, 8320
7, 53440, Pitch_bend_c, 10, 8192
7, 53600, Pitch_bend_c, 10, 8320
7, 53760, Pitch_bend_c, 10, 8192
7, 53760, Pitch_bend_c, 10, 8320
7, 53760, Pitch_bend_c, 10, 8192
7, 53760, Note_off_c, 10, 71, 95
7, 53760, Note_on_c, 10, 68, 95
7, 53920, Pitch_bend_c, 10, 8192
7, 54080, Pitch_bend_c, 10, 8320
7, 54240, Pitch_bend_c, 10, 8192
7, 54400, Pitch_bend_c, 10, 8320
7, 54560, Pitch_bend_c, 10, 8192
7, 54720, Pitch_bend_c, 10, 8320
7, 54880, Pitch_bend_c, 10, 8192
7, 55040, Pitch_bend_c, 10, 8320
7, 55200, Pitch_bend_c, 10, 8192
7, 55200, Pitch_bend_c, 10, 8320
7, 55200, Pitch_bend_c, 10, 8192
7, 55200, Note_off_c, 10, 68, 95
7, 55200, Note_on_c, 10, 63, 95
7, 55360, Pitch_bend_c, 10, 8192
7, 55520, Pitch_bend_c, 10, 8320
7, 55680, Pitch_bend_c, 10, 8192
7, 55840, Pitch_bend_c, 10, 8320
7, 56000, Pitch_bend_c, 10, 8192
7, 56160, Pitch_bend_c, 10, 8320
7, 56320, Pitch_bend_c, 10, 8192
7, 56480, Pitch_bend_c, 10, 8320
7, 56640, Pitch_bend_c, 10, 8192
7, 56640, Pitch_bend_c, 10, 8320
7, 56640, Pitch_bend_c, 10, 8192
7, 56640, Note_off_c, 10, 63, 95
7, 56640, Note_on_c, 10, 59, 95
7, 56800, Pitch_bend_c, 10, 8192
7, 56960, Pitch_bend_c, 10, 8320
7, 57120, Pitch_bend_c, 10, 8192
7, 57280, Pitch_bend_c, 10, 8320
7, 57440, Pitch_bend_c, 10, 8192
7, 57600, Pitch_bend_c, 10, 8320
7, 57600, Pitch_bend_c, 10, 8192
7, 57600, Note_off_c, 10, 59, 95
7, 57600, Note_on_c, 10, 65, 95
7, 57760, Pitch_bend_c, 10, 8192
7, 57920, Pitch_bend_c, 10, 8320
7, 58080, Pitch_bend_c, 10, 8192
7, 58240, Pitch_bend_c, 10, 8320
7, 58400, Pitch_bend_c, 10, 8192
7, 58560, Pitch_bend_c, 10, 8320
7, 58720, Pitch_bend_c, 10, 8192
7, 58880, Pitch_bend_c, 10, 8320
7, 59040, Pitch_bend_c, 10, 8192
7, 59040, Pitch_bend_c, 10, 8320
7, 59040, Pitch_bend_c, 10, 8192
7, 59040, Note_off_c, 10, 65, 95
7, 59040, Note_on_c, 10, 60, 95
7, 59200, Pitch_bend_c, 10, 8192
7, 59360, Pitch_bend_c, 10, 8320
7, 59520, Pitch_bend_c, 10, 8192
7, 59680, Pitch_bend_c, 10, 8320
7, 59840, Pitch_bend_c, 10, 8192
7, 60000, Pitch_bend_c, 10, 8320
7, 60160, Pitch_bend_c, 10, 8192
7, 60320, Pitch_bend_c, 10, 8320
7, 60480, Pitch_bend_c, 10, 8192
7, 60640, Pitch_bend_c, 10, 8320
7, 60800, Pitch_bend_c, 10, 8192
7, 60960, Pitch_bend_c, 10, 8320
7, 61120, Pitch_bend_c, 10, 8192
7, 61280, Pitch_bend_c, 10, 8320
7, 61440, Pitch_bend_c, 10, 8192
7, 61440, Pitch_bend_c, 10, 8320
7, 61440, Pitch_bend_c, 10, 8192
7, 61440, Note_off_c, 10, 60, 95
7, 61440, Note_on_c, 10, 63, 95
7, 61600, Pitch_bend_c, 10, 8192
7, 61760, Pitch_bend_c, 10, 8320
7, 61920, Pitch_bend_c, 10, 8192
7, 62080, Pitch_bend_c, 10, 8320
7, 62240, Pitch_bend_c, 10, 8192
7, 62400, Pitch_bend_c, 10, 8320
7, 62560, Pitch_bend_c, 10, 8192
7, 62720, Pitch_bend_c, 10, 8320
7, 62880, Pitch_bend_c, 10, 8192
7, 62880, Pitch_bend_c, 10, 8320
7, 62880, Pitch_bend_c, 10, 8192
7, 62880, Note_off_c, 10, 63, 95
7, 62880, Note_on_c, 10, 71, 95
7, 63040, Pitch_bend_c, 10, 8192
7, 63200, Pitch_bend_c, 10, 8320
7, 63360, Pitch_bend_c, 10, 8192
7, 63520, Pitch_bend_c, 10, 8320
7, 63680, Pitch_bend_c, 10, 8192
7, 63840, Pitch_bend_c, 10, 8320
7, 64000, Pitch_bend_c, 10, 8192
7, 64160, Pitch_bend_c, 10, 8320
7, 64320, Pitch_bend_c, 10, 8192
7, 64480, Pitch_bend_c, 10, 8320
7, 64640, Pitch_bend_c, 10, 8192
7, 64800, Pitch_bend_c, 10, 8320
7, 64960, Pitch_bend_c, 10, 8192
7, 65120, Pitch_bend_c, 10, 8320
7, 65280, Pitch_bend_c, 10, 8192
7, 65280, Pitch_bend_c, 10, 8320
7, 65280, Pitch_bend_c, 10, 8192
7, 65280, Note_off_c, 10, 71, 95
7, 65280, Note_on_c, 10, 65, 95
7, 65440, Pitch_bend_c, 10, 8192
7, 65600, Pitch_bend_c, 10, 8320
7, 65760, Pitch_bend_c, 10, 8192
7, 65920, Pitch_bend_c, 10, 8320
7, 66080, Pitch_bend_c, 10, 8192
7, 66240, Pitch_bend_c, 10, 8320
7, 66400, Pitch_bend_c, 10, 8192
7, 66560, Pitch_bend_c, 10, 8320
7, 66720, Pitch_bend_c, 10, 8192
7, 66720, Pitch_bend_c, 10, 8320
7, 66720, Pitch_bend_c, 10, 8192
7, 66720, Note_off_c, 10, 65, 95
7, 66720, Note_on_c, 10, 72, 95
7, 66880, Pitch_bend_c, 10, 8192
7, 67040, Pitch_bend_c, 10, 8320
7, 67200, Pitch_bend_c, 10, 8192
7, 67360, Pitch_bend_c, 10, 8320
7, 67520, Pitch_bend_c, 10, 8192
7, 67680, Pitch_bend_c, 10, 8320
7, 67840, Pitch_bend_c, 10, 8192
7, 68000, Pitch_bend_c, 10, 8320
7, 68160, Pitch_bend_c, 10, 8192
7, 68320, Pitch_bend_c, 10, 8320
7, 68480, Pitch_bend_c, 10, 8192
7, 68640, Pitch_bend_c, 10, 8320
7, 68800, Pitch_bend_c, 10, 8192
7, 68960, Pitch_bend_c, 10, 8320
7, 69120, Pitch_bend_c, 10, 8192
7, 69120, Pitch_bend_c, 10, 8320
7, 69120, Pitch_bend_c, 10, 8192
7, 69120, Note_off_c, 10, 72, 95
7, 159360, Note_on_c, 10, 68, 95
7, 159520, Pitch_bend_c, 10, 8192
7, 159680, Pitch_bend_c, 10, 8320
7, 159840, Pitch_bend_c, 10, 8192
7, 160000, Pitch_bend_c, 10, 8320
7, 160160, Pitch_bend_c, 10, 8192
7, 160320, Pitch_bend_c, 10, 8320
7, 160480, Pitch_bend_c, 10, 8192
7, 160640, Pitch_bend_c, 10, 8320
7, 160800, Pitch_bend_c, 10, 8192
7, 160800, Pitch_bend_c, 10, 8320
7, 160800, Pitch_bend_c, 10, 8192
7, 160800, Note_off_c, 10, 68, 95
7, 160800, Note_on_c, 10, 71, 95
7, 160960, Pitch_bend_c, 10, 8192
7, 161120, Pitch_bend_c, 10, 8320
7, 161280, Pitch_bend_c, 10, 8192
7, 161440, Pitch_bend_c, 10, 8320
7, 161600, Pitch_bend_c, 10, 8192
7, 161760, Pitch_bend_c, 10, 8320
7, 161920, Pitch_bend_c, 10, 8192
7, 162080, Pitch_bend_c, 10, 8320
7, 162240, Pitch_bend_c, 10, 8192
7, 162240, Pitch_bend_c, 10, 8320
7, 162240, Pitch_bend_c, 10, 8192
7, 162240, Note_off_c, 10, 71, 95
7, 162240, Note_on_c, 10, 75, 95
7, 162400, Pitch_bend_c, 10, 8192
7, 162560, Pitch_bend_c, 10, 8320
7, 162720, Pitch_bend_c, 10, 8192
7, 162880, Pitch_bend_c, 10, 8320
7, 163040, Pitch_bend_c, 10, 8192
7, 163200, Pitch_bend_c, 10, 8320
7, 163200, Pitch_bend_c, 10, 8192
7, 163200, Note_off_c, 10, 75, 95
7, 163200, Note_on_c, 10, 72, 95
7, 163360, Pitch_bend_c, 10, 8192
7, 163520, Pitch_bend_c, 10, 8320
7, 163680, Pitch_bend_c, 10, 8192
7, 163840, Pitch_bend_c, 10, 8320
7, 164000, Pitch_bend_c, 10, 8192
7, 164160, Pitch_bend_c, 10, 8320
7, 164320, Pitch_bend_c, 10, 8192
7, 164480, Pitch_bend_c, 10, 8320
7, 164640, Pitch_bend_c, 10, 8192
7, 164640, Pitch_bend_c, 10, 8320
7, 164640, Pitch_bend_c, 10, 8192
7, 164640, Note_off_c, 10, 72, 95
7, 164640, Note_on_c, 10, 65, 95
7, 164800, Pitch_bend_c, 10, 8192
7, 164960, Pitch_bend_c, 10, 8320
7, 165120, Pitch_bend_c, 10, 8192
7, 165280, Pitch_bend_c, 10, 8320
7, 165440, Pitch_bend_c, 10, 8192
7, 165600, Pitch_bend_c, 10, 8320
7, 165760, Pitch_bend_c, 10, 8192
7, 165920, Pitch_bend_c, 10, 8320
7, 166080, Pitch_bend_c, 10, 8192
7, 166240, Pitch_bend_c, 10, 8320
7, 166400, Pitch_bend_c, 10, 8192
7, 166560, Pitch_bend_c, 10, 8320
7, 166720, Pitch_bend_c, 10, 8192
7, 166880, Pitch_bend_c, 10, 8320
7, 167040, Pitch_bend_c, 10, 8192
7, 167040, Pitch_bend_c, 10, 8320
7, 167040, Pitch_bend_c, 10, 8192
7, 167040, Note_off_c, 10, 65, 95
7, 167040, Note_on_c, 10, 68, 95
7, 167200, Pitch_bend_c, 10, 8192
7, 167360, Pitch_bend_c, 10, 8320
7, 167520, Pitch_bend_c, 10, 8192
7, 167680, Pitch_bend_c, 10, 8320
7, 167840, Pitch_bend_c, 10, 8192
7, 168000, Pitch_bend_c, 10, 8320
7, 168160, Pitch_bend_c, 10, 8192
7, 168320, Pitch_bend_c, 10, 8320
7, 168480, Pitch_bend_c, 10, 8192
7, 168480, Pitch_bend_c, 10, 8320
7, 168480, Pitch_bend_c, 10, 8192
7, 168480, Note_off_c, 10, 68, 95
7, 168480, Note_on_c, 10, 71, 95
7, 168640, Pitch_bend_c, 10, 8192
7, 168800, Pitch_bend_c, 10, 8320
7, 168960, Pitch_bend_c, 10, 8192
7, 169120, Pitch_bend_c, 10, 8320
7, 169280, Pitch_bend_c, 10, 8192
7, 169440, Pitch_bend_c, 10, 8320
7, 169600, Pitch_bend_c, 10, 8192
7, 169760, Pitch_bend_c, 10, 8320
7, 169920, Pitch_bend_c, 10, 8192
7, 169920, Pitch_bend_c, 10, 8320
7, 169920, Pitch_bend_c, 10, 8192
7, 169920, Note_off_c, 10, 71, 95
7, 169920, Note_on_c, 10, 63, 95
7, 170080, Pitch_bend_c, 10, 8192
7, 170240, Pitch_bend_c, 10, 8320
7, 170400, Pitch_bend_c, 10, 8192
7, 170560, Pitch_bend_c, 10, 8320
7, 170720, Pitch_bend_c, 10, 8192
7, 170880, Pitch_bend_c, 10, 8320
7, 170880, Pitch_bend_c, 10, 8192
7, 170880, Note_off_c, 10, 63, 95
7, 170880, Note_on_c, 10, 65, 95
7, 171040, Pitch_bend_c, 10, 8192
7, 171200, Pitch_bend_c, 10, 8320
7, 171360, Pitch_bend_c, 10, 8192
7, 171520, Pitch_bend_c, 10, 8320
7, 171680, Pitch_bend_c, 10, 8192
7, 171840, Pitch_bend_c, 10, 8320
7, 172000, Pitch_bend_c, 10, 8192
7, 172160, Pitch_bend_c, 10, 8320
7, 172320, Pitch_bend_c, 10, 8192
7, 172320, Pitch_bend_c, 10, 8320
7, 172320, Pitch_bend_c, 10, 8192
7, 172320, Note_off_c, 10, 65, 95
7, 172320, Note_on_c, 10, 72, 95
7, 172480, Pitch_bend_c, 10, 8192
7, 172640, Pitch_bend_c, 10, 8320
7, 172800, Pitch_bend_c, 10, 8192
7, 172960, Pitch_bend_c, 10, 8320
7, 173120, Pitch_bend_c, 10, 8192
7, 173280, Pitch_bend_c, 10, 8320
7, 173440, Pitch_bend_c, 10, 8192
7, 173600, Pitch_bend_c, 10, 8320
7, 173760, Pitch_bend_c, 10, 8192
7, 173920, Pitch_bend_c, 10, 8320
7, 174080, Pitch_bend_c, 10, 8192
7, 174240, Pitch_bend_c, 10, 8320
7, 174400, Pitch_bend_c, 10, 8192
7, 174560, Pitch_bend_c, 10, 8320
7, 174720, Pitch_bend_c, 10, 8192
7, 174720, Pitch_bend_c, 10, 8320
7, 174720, Pitch_bend_c, 10, 8192
7, 174720, Note_off_c, 10, 72, 95
7, 174720, Note_on_c, 10, 66, 95
7, 174880, Pitch_bend_c, 10, 8192
7, 175040, Pitch_bend_c, 10, 8320
7, 175200, Pitch_bend_c, 10, 8192
7, 175360, Pitch_bend_c, 10, 8320
7, 175520, Pitch_bend_c, 10, 8192
7, 175680, Pitch_bend_c, 10, 8320
7, 175840, Pitch_bend_c, 10, 8192
7, 176000, Pitch_bend_c, 10, 8320
7, 176160, Pitch_bend_c, 10, 8192
7, 176160, Pitch_bend_c, 10, 8320
7, 176160, Pitch_bend_c, 10, 8192
7, 176160, Note_off_c, 10, 66, 95
7, 176160, Note_on_c, 10, 69, 95
7, 176320, Pitch_bend_c, 10, 8192
7, 176480, Pitch_bend_c, 10, 8320
7, 176640, Pitch_bend_c, 10, 8192
7, 176800, Pitch_bend_c, 10, 8320
7, 176960, Pitch_bend_c, 10, 8192
7, 177120, Pitch_bend_c, 10, 8320
7, 177280, Pitch_bend_c, 10, 8192
7, 177440, Pitch_bend_c, 10, 8320
7, 177600, Pitch_bend_c, 10, 8192
7, 177760, Pitch_bend_c, 10, 8320
7, 177920, Pitch_bend_c, 10, 8192
7, 178080, Pitch_bend_c, 10, 8320
7, 178240, Pitch_bend_c, 10, 8192
7, 178400, Pitch_bend_c, 10, 8320
7, 178560, Pitch_bend_c, 10, 8192
7, 178560, Pitch_bend_c, 10, 8320
7, 178560, Pitch_bend_c, 10, 8192
7, 178560, Note_off_c, 10, 69, 95
7, 178560, Note_on_c, 10, 68, 95
7, 178720, Pitch_bend_c, 10, 8192
7, 178880, Pitch_bend_c, 10, 8320
7, 179040, Pitch_bend_c, 10, 8192
7, 179200, Pitch_bend_c, 10, 8320
7, 179360, Pitch_bend_c, 10, 8192
7, 179520, Pitch_bend_c, 10, 8320
7, 179680, Pitch_bend_c, 10, 8192
7, 179840, Pitch_bend_c, 10, 8320
7, 180000, Pitch_bend_c, 10, 8192
7, 180000, Pitch_bend_c, 10, 8320
7, 180000, Pitch_bend_c, 10, 8192
7, 180000, Note_off_c, 10, 68, 95
7, 180000, Note_on_c, 10, 71, 95
7, 180160, Pitch_bend_c, 10, 8192
7, 180320, Pitch_bend_c, 10, 8320
7, 180480, Pitch_bend_c, 10, 8192
7, 180640, Pitch_bend_c, 10, 8320
7, 180800, Pitch_bend_c, 10, 8192
7, 180960, Pitch_bend_c, 10, 8320
7, 181120, Pitch_bend_c, 10, 8192
7, 181280, Pitch_bend_c, 10, 8320
7, 181440, Pitch_bend_c, 10, 8192
7, 181600, Pitch_bend_c, 10, 8320
7, 181760, Pitch_bend_c, 10, 8192
7, 181920, Pitch_bend_c, 10, 8320
7, 182080, Pitch_bend_c, 10, 8192
7, 182240, Pitch_bend_c, 10, 8320
7, 182400, Pitch_bend_c, 10, 8192
7, 182400, Pitch_bend_c, 10, 8320
7, 182400, Pitch_bend_c, 10, 8192
7, 182400, Note_off_c, 10, 71, 95
7, 182400, Note_on_c, 10, 68, 95
7, 182560, Pitch_bend_c, 10, 8192
7, 182720, Pitch_bend_c, 10, 8320
7, 182880, Pitch_bend_c, 10, 8192
7, 183040, Pitch_bend_c, 10, 8320
7, 183200, Pitch_bend_c, 10, 8192
7, 183360, Pitch_bend_c, 10, 8320
7, 183520, Pitch_bend_c, 10, 8192
7, 183680, Pitch_bend_c, 10, 8320
7, 183840, Pitch_bend_c, 10, 8192
7, 183840, Pitch_bend_c, 10, 8320
7, 183840, Pitch_bend_c, 10, 8192
7, 183840, Note_off_c, 10, 68, 95
7, 183840, Note_on_c, 10, 63, 95
7, 184000, Pitch_bend_c, 10, 8192
7, 184160, Pitch_bend_c, 10, 8320
7, 184320, Pitch_bend_c, 10, 8192
7, 184480, Pitch_bend_c, 10, 8320
7, 184640, Pitch_bend_c, 10, 8192
7, 184800, Pitch_bend_c, 10, 8320
7, 184960, Pitch_bend_c, 10, 8192
7, 185120, Pitch_bend_c, 10, 8320
7, 185280, Pitch_bend_c, 10, 8192
7, 185280, Pitch_bend_c, 10, 8320
7, 185280, Pitch_bend_c, 10, 8192
7, 185280, Note_off_c, 10, 63, 95
7, 185280, Note_on_c, 10, 59, 95
7, 185440, Pitch_bend_c, 10, 8192
7, 185600, Pitch_bend_c, 10, 8320
7, 185760, Pitch_bend_c, 10, 8192
7, 185920, Pitch_bend_c, 10, 8320
7, 186080, Pitch_bend_c, 10, 8192
7, 186240, Pitch_bend_c, 10, 8320
7, 186240, Pitch_bend_c, 10, 8192
7, 186240, Note_off_c, 10, 59, 95
7, 186240, Note_on_c, 10, 65, 95
7, 186400, Pitch_bend_c, 10, 8192
7, 186560, Pitch_bend_c, 10, 8320
7, 186720, Pitch_bend_c, 10, 8192
7, 186880, Pitch_bend_c, 10, 8320
7, 187040, Pitch_bend_c, 10, 8192
7, 187200, Pitch_bend_c, 10, 8320
7, 187360, Pitch_bend_c, 10, 8192
7, 187520, Pitch_bend_c, 10, 8320
7, 187680, Pitch_bend_c, 10, 8192
7, 187680, Pitch_bend_c, 10, 8320
7, 187680, Pitch_bend_c, 10, 8192
7, 187680, Note_off_c, 10, 65, 95
7, 187680, Note_on_c, 10, 60, 95
7, 187840, Pitch_bend_c, 10, 8192
7, 188000, Pitch_bend_c, 10, 8320
7, 188160, Pitch_bend_c, 10, 8192
7, 188320, Pitch_bend_c, 10, 8320
7, 188480, Pitch_bend_c, 10, 8192
7, 188640, Pitch_bend_c, 10, 8320
7, 188800, Pitch_bend_c, 10, 8192
7, 188960, Pitch_bend_c, 10, 8320
7, 189120, Pitch_bend_c, 10, 8192
7, 189280, Pitch_bend_c, 10, 8320
7, 189440, Pitch_bend_c, 10, 8192
7, 189600, Pitch_bend_c, 10, 8320
7, 189760, Pitch_bend_c, 10, 8192
7, 189920, Pitch_bend_c, 10, 8320
7, 190080, Pitch_bend_c, 10, 8192
7, 190080, Pitch_bend_c, 10, 8320
7, 190080, Pitch_bend_c, 10, 8192
7, 190080, Note_off_c, 10, 60, 95
7, 190080, Note_on_c, 10, 63, 95
7, 190240, Pitch_bend_c, 10, 8192
7, 190400, Pitch_bend_c, 10, 8320
7, 190560, Pitch_bend_c, 10, 8192
7, 190720, Pitch_bend_c, 10, 8320
7, 190880, Pitch_bend_c, 10, 8192
7, 191040, Pitch_bend_c, 10, 8320
7, 191200, Pitch_bend_c, 10, 8192
7, 191360, Pitch_bend_c, 10, 8320
7, 191520, Pitch_bend_c, 10, 8192
7, 191520, Pitch_bend_c, 10, 8320
7, 191520, Pitch_bend_c, 10, 8192
7, 191520, Note_off_c, 10, 63, 95
7, 191520, Note_on_c, 10, 71, 95
7, 191680, Pitch_bend_c, 10, 8192
7, 191840, Pitch_bend_c, 10, 8320
7, 192000, Pitch_bend_c, 10, 8192
7, 192160, Pitch_bend_c, 10, 8320
7, 192320, Pitch_bend_c, 10, 8192
7, 192480, Pitch_bend_c, 10, 8320
7, 192640, Pitch_bend_c, 10, 8192
7, 192800, Pitch_bend_c, 10, 8320
7, 192960, Pitch_bend_c, 10, 8192
7, 193120, Pitch_bend_c, 10, 8320
7, 193280, Pitch_bend_c, 10, 8192
7, 193440, Pitch_bend_c, 10, 8320
7, 193600, Pitch_bend_c, 10, 8192
7, 193760, Pitch_bend_c, 10, 8320
7, 193920, Pitch_bend_c, 10, 8192
7, 193920, Pitch_bend_c, 10, 8320
7, 193920, Pitch_bend_c, 10, 8192
7, 193920, Note_off_c, 10, 71, 95
7, 193920, Note_on_c, 10, 65, 95
7, 194080, Pitch_bend_c, 10, 8192
7, 194240, Pitch_bend_c, 10, 8320
7, 194400, Pitch_bend_c, 10, 8192
7, 194560, Pitch_bend_c, 10, 8320
7, 194720, Pitch_bend_c, 10, 8192
7, 194880, Pitch_bend_c, 10, 8320
7, 195040, Pitch_bend_c, 10, 8192
7, 195200, Pitch_bend_c, 10, 8320
7, 195360, Pitch_bend_c, 10, 8192
7, 195360, Pitch_bend_c, 10, 8320
7, 195360, Pitch_bend_c, 10, 8192
7, 195360, Note_off_c, 10, 65, 95
7, 195360, Note_on_c, 10, 72, 95
7, 195520, Pitch_bend_c, 10, 8192
7, 195680, Pitch_bend_c, 10, 8320
7, 195840, Pitch_bend_c, 10, 8192
7, 196000, Pitch_bend_c, 10, 8320
7, 196160, Pitch_bend_c, 10, 8192
7, 196320, Pitch_bend_c, 10, 8320
7, 196480, Pitch_bend_c, 10, 8192
7, 196640, Pitch_bend_c, 10, 8320
7, 196800, Pitch_bend_c, 10, 8192
7, 196960, Pitch_bend_c, 10, 8320
7, 197120, Pitch_bend_c, 10, 8192
7, 197280, Pitch_bend_c, 10, 8320
7, 197440, Pitch_bend_c, 10, 8192
7, 197600, Pitch_bend_c, 10, 8320
7, 197760, Pitch_bend_c, 10, 8192
7, 197760, Pitch_bend_c, 10, 8320
7, 197760, Pitch_bend_c, 10, 8192
7, 197760, Note_off_c, 10, 72, 95
7, 318720, Note_on_c, 10, 68, 95
7, 318880, Pitch_bend_c, 10, 8192
7, 319040, Pitch_bend_c, 10, 8320
7, 319200, Pitch_bend_c, 10, 8192
7, 319360, Pitch_bend_c, 10, 8320
7, 319520, Pitch_bend_c, 10, 8192
7, 319680, Pitch_bend_c, 10, 8320
7, 319840, Pitch_bend_c, 10, 8192
7, 320000, Pitch_bend_c, 10, 8320
7, 320160, Pitch_bend_c, 10, 8192
7, 320160, Pitch_bend_c, 10, 8320
7, 320160, Pitch_bend_c, 10, 8192
7, 320160, Note_off_c, 10, 68, 95
7, 320160, Note_on_c, 10, 71, 95
7, 320320, Pitch_bend_c, 10, 8192
7, 320480, Pitch_bend_c, 10, 8320
7, 320640, Pitch_bend_c, 10, 8192
7, 320800, Pitch_bend_c, 10, 8320
7, 320960, Pitch_bend_c, 10, 8192
7, 321120, Pitch_bend_c, 10, 8320
7, 321280, Pitch_bend_c, 10, 8192
7, 321440, Pitch_bend_c, 10, 8320
7, 321600, Pitch_bend_c, 10, 8192
7, 321600, Pitch_bend_c, 10, 8320
7, 321600, Pitch_bend_c, 10, 8192
7, 321600, Note_off_c, 10, 71, 95
7, 321600, Note_on_c, 8, 71, 95
7, 322560, Note_off_c, 8, 71, 95
7, 322560, Note_on_c, 10, 72, 95
7, 322720, Pitch_bend_c, 10, 8192
7, 322880, Pitch_bend_c, 10, 8320
7, 323040, Pitch_bend_c, 10, 8192
7, 323200, Pitch_bend_c, 10, 8320
7, 323360, Pitch_bend_c, 10, 8192
7, 323520, Pitch_bend_c, 10, 8320
7, 323680, Pitch_bend_c, 10, 8192
7, 323840, Pitch_bend_c, 10, 8320
7, 324000, Pitch_bend_c, 10, 8192
7, 324160, Pitch_bend_c, 10, 8320
7, 324320, Pitch_bend_c, 10, 8192
7, 324480, Pitch_bend_c, 10, 8320
7, 324640, Pitch_bend_c, 10, 8192
7, 324800, Pitch_bend_c, 10, 8320
7, 324960, Pitch_bend_c, 10, 8192
7, 325120, Pitch_bend_c, 10, 8320
7, 325280, Pitch_bend_c, 10, 8192
7, 325440, Pitch_bend_c, 10, 8320
7, 325600, Pitch_bend_c, 10, 8192
7, 325760, Pitch_bend_c, 10, 8320
7, 325920, Pitch_bend_c, 10, 8192
7, 326080, Pitch_bend_c, 10, 8320
7, 326240, Pitch_bend_c, 10, 8192
7, 326400, Pitch_bend_c, 10, 8320
7, 326400, Pitch_bend_c, 10, 8192
7, 326400, Note_off_c, 10, 72, 95
7, 326400, Note_on_c, 10, 68, 95
7, 326560, Pitch_bend_c, 10, 8192
7, 326720, Pitch_bend_c, 10, 8320
7, 326880, Pitch_bend_c, 10, 8192
7, 327040, Pitch_bend_c, 10, 8320
7, 327200, Pitch_bend_c, 10, 8192
7, 327360, Pitch_bend_c, 10, 8320
7, 327520, Pitch_bend_c, 10, 8192
7, 327680, Pitch_bend_c, 10, 8320
7, 327840, Pitch_bend_c, 10, 8192
7, 327840, Pitch_bend_c, 10, 8320
7, 327840, Pitch_bend_c, 10, 8192
7, 327840, Note_off_c, 10, 68, 95
7, 327840, Note_on_c, 10, 71, 95
7, 328000, Pitch_bend_c, 10, 8192
7, 328160, Pitch_bend_c, 10, 8320
7, 328320, Pitch_bend_c, 10, 8192
7, 328480, Pitch_bend_c, 10, 8320
7, 328640, Pitch_bend_c, 10, 8192
7, 328800, Pitch_bend_c, 10, 8320
7, 328960, Pitch_bend_c, 10, 8192
7, 329120, Pitch_bend_c, 10, 8320
7, 329280, Pitch_bend_c, 10, 8192
7, 329280, Pitch_bend_c, 10, 8320
7, 329280, Pitch_bend_c, 10, 8192
7, 329280, Note_off_c, 10, 71, 95
7, 329280, Note_on_c, 8, 71, 95
7, 330240, Note_off_c, 8, 71, 95
7, 330240, Note_on_c, 10, 72, 95
7, 330400, Pitch_bend_c, 10, 8192
7, 330560, Pitch_bend_c, 10, 8320
7, 330720, Pitch_bend_c, 10, 8192
7, 330880, Pitch_bend_c, 10, 8320
7, 331040, Pitch_bend_c, 10, 8192
7, 331200, Pitch_bend_c, 10, 8320
7, 331360, Pitch_bend_c, 10, 8192
7, 331520, Pitch_bend_c, 10, 8320
7, 331680, Pitch_bend_c, 10, 8192
7, 331840, Pitch_bend_c, 10, 8320
7, 332000, Pitch_bend_c, 10, 8192
7, 332160, Pitch_bend_c, 10, 8320
7, 332320, Pitch_bend_c, 10, 8192
7, 332480, Pitch_bend_c, 10, 8320
7, 332640, Pitch_bend_c, 10, 8192
7, 332800, Pitch_bend_c, 10, 8320
7, 332960, Pitch_bend_c, 10, 8192
7, 333120, Pitch_bend_c, 10, 8320
7, 333280, Pitch_bend_c, 10, 8192
7, 333440, Pitch_bend_c, 10, 8320
7, 333600, Pitch_bend_c, 10, 8192
7, 333760, Pitch_bend_c, 10, 8320
7, 333920, Pitch_bend_c, 10, 8192
7, 334080, Pitch_bend_c, 10, 8320
7, 334080, Pitch_bend_c, 10, 8192
7, 334080, Note_off_c, 10, 72, 95
7, 334080, Note_on_c, 10, 68, 95
7, 334240, Pitch_bend_c, 10, 8192
7, 334400, Pitch_bend_c, 10, 8320
7, 334560, Pitch_bend_c, 10, 8192
7, 334720, Pitch_bend_c, 10, 8320
7, 334880, Pitch_bend_c, 10, 8192
7, 335040, Pitch_bend_c, 10, 8320
7, 335200, Pitch_bend_c, 10, 8192
7, 335360, Pitch_bend_c, 10, 8320
7, 335520, Pitch_bend_c, 10, 8192
7, 335520, Pitch_bend_c, 10, 8320
7, 335520, Pitch_bend_c, 10, 8192
7, 335520, Note_off_c, 10, 68, 95
7, 335520, Note_on_c, 10, 71, 95
7, 335680, Pitch_bend_c, 10, 8192
7, 335840, Pitch_bend_c, 10, 8320
7, 336000, Pitch_bend_c, 10, 8192
7, 336160, Pitch_bend_c, 10, 8320
7, 336320, Pitch_bend_c, 10, 8192
7, 336480, Pitch_bend_c, 10, 8320
7, 336640, Pitch_bend_c, 10, 8192
7, 336800, Pitch_bend_c, 10, 8320
7, 336960, Pitch_bend_c, 10, 8192
7, 336960, Pitch_bend_c, 10, 8320
7, 336960, Pitch_bend_c, 10, 8192
7, 336960, Note_off_c, 10, 71, 95
7, 336960, Note_on_c, 8, 71, 95
7, 337920, Note_off_c, 8, 71, 95
7, 337920, Note_on_c, 10, 72, 95
7, 338080, Pitch_bend_c, 10, 8192
7, 338240, Pitch_bend_c, 10, 8320
7, 338400, Pitch_bend_c, 10, 8192
7, 338560, Pitch_bend_c, 10, 8320
7, 338720, Pitch_bend_c, 10, 8192
7, 338880, Pitch_bend_c, 10, 8320
7, 339040, Pitch_bend_c, 10, 8192
7, 339200, Pitch_bend_c, 10, 8320
7, 339360, Pitch_bend_c, 10, 8192
7, 339520, Pitch_bend_c, 10, 8320
7, 339680, Pitch_bend_c, 10, 8192
7, 339840, Pitch_bend_c, 10, 8320
7, 340000, Pitch_bend_c, 10, 8192
7, 340160, Pitch_bend_c, 10, 8320
7, 340320, Pitch_bend_c, 10, 8192
7, 340480, Pitch_bend_c, 10, 8320
7, 340640, Pitch_bend_c, 10, 8192
7, 340800, Pitch_bend_c, 10, 8320
7, 340960, Pitch_bend_c, 10, 8192
7, 341120, Pitch_bend_c, 10, 8320
7, 341280, Pitch_bend_c, 10, 8192
7, 341440, Pitch_bend_c, 10, 8320
7, 341600, Pitch_bend_c, 10, 8192
7, 341760, Pitch_bend_c, 10, 8320
7, 341760, Pitch_bend_c, 10, 8192
7, 341760, Note_off_c, 10, 72, 95
7, 341760, Note_on_c, 10, 68, 95
7, 341920, Pitch_bend_c, 10, 8192
7, 342080, Pitch_bend_c, 10, 8320
7, 342240, Pitch_bend_c, 10, 8192
7, 342400, Pitch_bend_c, 10, 8320
7, 342560, Pitch_bend_c, 10, 8192
7, 342720, Pitch_bend_c, 10, 8320
7, 342880, Pitch_bend_c, 10, 8192
7, 343040, Pitch_bend_c, 10, 8320
7, 343200, Pitch_bend_c, 10, 8192
7, 343200, Pitch_bend_c, 10, 8320
7, 343200, Pitch_bend_c, 10, 8192
7, 343200, Note_off_c, 10, 68, 95
7, 343200, Note_on_c, 10, 71, 95
7, 343360, Pitch_bend_c, 10, 8192
7, 343520, Pitch_bend_c, 10, 8320
7, 343680, Pitch_bend_c, 10, 8192
7, 343840, Pitch_bend_c, 10, 8320
7, 344000, Pitch_bend_c, 10, 8192
7, 344160, Pitch_bend_c, 10, 8320
7, 344320, Pitch_bend_c, 10, 8192
7, 344480, Pitch_bend_c, 10, 8320
7, 344640, Pitch_bend_c, 10, 8192
7, 344640, Pitch_bend_c, 10, 8320
7, 344640, Pitch_bend_c, 10, 8192
7, 344640, Note_off_c, 10, 71, 95
7, 344640, Note_on_c, 10, 59, 95
7, 344800, Pitch_bend_c, 10, 8192
7, 344960, Pitch_bend_c, 10, 8320
7, 345120, Pitch_bend_c, 10, 8192
7, 345280, Pitch_bend_c, 10, 8320
7, 345440, Pitch_bend_c, 10, 8192
7, 345600, Pitch_bend_c, 10, 8320
7, 345600, Pitch_bend_c, 10, 8192
7, 345600, Note_off_c, 10, 59, 95
7, 345600, Note_on_c, 10, 60, 95
7, 345760, Pitch_bend_c, 10, 8192
7, 345920, Pitch_bend_c, 10, 8320
7, 346080, Pitch_bend_c, 10, 8192
7, 346240, Pitch_bend_c, 10, 8320
7, 346400, Pitch_bend_c, 10, 8192
7, 346560, Pitch_bend_c, 10, 8320
7, 346720, Pitch_bend_c, 10, 8192
7, 346880, Pitch_bend_c, 10, 8320
7, 347040, Pitch_bend_c, 10, 8192
7, 347200, Pitch_bend_c, 10, 8320
7, 347360, Pitch_bend_c, 10, 8192
7, 347520, Pitch_bend_c, 10, 8320
7, 347680, Pitch_bend_c, 10, 8192
7, 347840, Pitch_bend_c, 10, 8320
7, 348000, Pitch_bend_c, 10, 8192
7, 348160, Pitch_bend_c, 10, 8320
7, 348320, Pitch_bend_c, 10, 8192
7, 348480, Pitch_bend_c, 10, 8320
7, 348640, Pitch_bend_c, 10, 8192
7, 348800, Pitch_bend_c, 10, 8320
7, 348960, Pitch_bend_c, 10, 8192
7, 349120, Pitch_bend_c, 10, 8320
7, 349280, Pitch_bend_c, 10, 8192
7, 349440, Pitch_bend_c, 10, 8320
7, 349440, Pitch_bend_c, 10, 8192
7, 349440, Note_off_c, 10, 60, 95
7, 349440, Note_on_c, 10, 68, 95
7, 349600, Pitch_bend_c, 10, 8192
7, 349760, Pitch_bend_c, 10, 8320
7, 349920, Pitch_bend_c, 10, 8192
7, 350080, Pitch_bend_c, 10, 8320
7, 350240, Pitch_bend_c, 10, 8192
7, 350400, Pitch_bend_c, 10, 8320
7, 350560, Pitch_bend_c, 10, 8192
7, 350720, Pitch_bend_c, 10, 8320
7, 350880, Pitch_bend_c, 10, 8192
7, 350880, Pitch_bend_c, 10, 8320
7, 350880, Pitch_bend_c, 10, 8192
7, 350880, Note_off_c, 10, 68, 95
7, 350880, Note_on_c, 10, 71, 95
7, 351040, Pitch_bend_c, 10, 8192
7, 351200, Pitch_bend_c, 10, 8320
7, 351360, Pitch_bend_c, 10, 8192
7, 351520, Pitch_bend_c, 10, 8320
7, 351680, Pitch_bend_c, 10, 8192
7, 351840, Pitch_bend_c, 10, 8320
7, 352000, Pitch_bend_c, 10, 8192
7, 352160, Pitch_bend_c, 10, 8320
7, 352320, Pitch_bend_c, 10, 8192
7, 352320, Pitch_bend_c, 10, 8320
7, 352320, Pitch_bend_c, 10, 8192
7, 352320, Note_off_c, 10, 71, 95
7, 352320, Note_on_c, 8, 71, 95
7, 353280, Note_off_c, 8, 71, 95
7, 353280, Note_on_c, 10, 72, 95
7, 353440, Pitch_bend_c, 10, 8192
7, 353600, Pitch_bend_c, 10, 8320
7, 353760, Pitch_bend_c, 10, 8192
7, 353920, Pitch_bend_c, 10, 8320
7, 354080, Pitch_bend_c, 10, 8192
7, 354240, Pitch_bend_c, 10, 8320
7, 354400, Pitch_bend_c, 10, 8192
7, 354560, Pitch_bend_c, 10, 8320
7, 354720, Pitch_bend_c, 10, 8192
7, 354880, Pitch_bend_c, 10, 8320
7, 355040, Pitch_bend_c, 10, 8192
7, 355200, Pitch_bend_c, 10, 8320
7, 355360, Pitch_bend_c, 10, 8192
7, 355520, Pitch_bend_c, 10, 8320
7, 355680, Pitch_bend_c, 10, 8192
7, 355840, Pitch_bend_c, 10, 8320
7, 356000, Pitch_bend_c, 10, 8192
7, 356160, Pitch_bend_c, 10, 8320
7, 356320, Pitch_bend_c, 10, 8192
7, 356480, Pitch_bend_c, 10, 8320
7, 356640, Pitch_bend_c, 10, 8192
7, 356800, Pitch_bend_c, 10, 8320
7, 356960, Pitch_bend_c, 10, 8192
7, 357120, Pitch_bend_c, 10, 8320
7, 357120, Pitch_bend_c, 10, 8192
7, 357120, Note_off_c, 10, 72, 95
7, 357120, Note_on_c, 10, 68, 95
7, 357280, Pitch_bend_c, 10, 8192
7, 357440, Pitch_bend_c, 10, 8320
7, 357600, Pitch_bend_c, 10, 8192
7, 357760, Pitch_bend_c, 10, 8320
7, 357920, Pitch_bend_c, 10, 8192
7, 358080, Pitch_bend_c, 10, 8320
7, 358240, Pitch_bend_c, 10, 8192
7, 358400, Pitch_bend_c, 10, 8320
7, 358560, Pitch_bend_c, 10, 8192
7, 358560, Pitch_bend_c, 10, 8320
7, 358560, Pitch_bend_c, 10, 8192
7, 358560, Note_off_c, 10, 68, 95
7, 358560, Note_on_c, 10, 71, 95
7, 358720, Pitch_bend_c, 10, 8192
7, 358880, Pitch_bend_c, 10, 8320
7, 359040, Pitch_bend_c, 10, 8192
7, 359200, Pitch_bend_c, 10, 8320
7, 359360, Pitch_bend_c, 10, 8192
7, 359520, Pitch_bend_c, 10, 8320
7, 359680, Pitch_bend_c, 10, 8192
7, 359840, Pitch_bend_c, 10, 8320
7, 360000, Pitch_bend_c, 10, 8192
7, 360000, Pitch_bend_c, 10, 8320
7, 360000, Pitch_bend_c, 10, 8192
7, 360000, Note_off_c, 10, 71, 95
7, 360000, Note_on_c, 8, 71, 95
7, 360960, Note_off_c, 8, 71, 95
7, 360960, Note_on_c, 10, 72, 95
7, 361120, Pitch_bend_c, 10, 8192
7, 361280, Pitch_bend_c, 10, 8320
7, 361440, Pitch_bend_c, 10, 8192
7, 361600, Pitch_bend_c, 10, 8320
7, 361760, Pitch_bend_c, 10, 8192
7, 361920, Pitch_bend_c, 10, 8320
7, 362080, Pitch_bend_c, 10, 8192
7, 362240, Pitch_bend_c, 10, 8320
7, 362400, Pitch_bend_c, 10, 8192
7, 362560, Pitch_bend_c, 10, 8320
7, 362720, Pitch_bend_c, 10, 8192
7, 362880, Pitch_bend_c, 10, 8320
7, 363040, Pitch_bend_c, 10, 8192
7, 363200, Pitch_bend_c, 10, 8320
7, 363360, Pitch_bend_c, 10, 8192
7, 363520, Pitch_bend_c, 10, 8320
7, 363680, Pitch_bend_c, 10, 8192
7, 363840, Pitch_bend_c, 10, 8320
7, 364000, Pitch_bend_c, 10, 8192
7, 364160, Pitch_bend_c, 10, 8320
7, 364320, Pitch_bend_c, 10, 8192
7, 364480, Pitch_bend_c, 10, 8320
7, 364640, Pitch_bend_c, 10, 8192
7, 364800, Pitch_bend_c, 10, 8320
7, 364800, Pitch_bend_c, 10, 8192
7, 364800, Note_off_c, 10, 72, 95
7, 364800, Note_on_c, 10, 68, 95
7, 364960, Pitch_bend_c, 10, 8192
7, 365120, Pitch_bend_c, 10, 8320
7, 365280, Pitch_bend_c, 10, 8192
7, 365440, Pitch_bend_c, 10, 8320
7, 365600, Pitch_bend_c, 10, 8192
7, 365760, Pitch_bend_c, 10, 8320
7, 365920, Pitch_bend_c, 10, 8192
7, 366080, Pitch_bend_c, 10, 8320
7, 366240, Pitch_bend_c, 10, 8192
7, 366240, Pitch_bend_c, 10, 8320
7, 366240, Pitch_bend_c, 10, 8192
7, 366240, Note_off_c, 10, 68, 95
7, 366240, Note_on_c, 10, 71, 95
7, 366400, Pitch_bend_c, 10, 8192
7, 366560, Pitch_bend_c, 10, 8320
7, 366720, Pitch_bend_c, 10, 8192
7, 366880, Pitch_bend_c, 10, 8320
7, 367040, Pitch_bend_c, 10, 8192
7, 367200, Pitch_bend_c, 10, 8320
7, 367360, Pitch_bend_c, 10, 8192
7, 367520, Pitch_bend_c, 10, 8320
7, 367680, Pitch_bend_c, 10, 8192
7, 367680, Pitch_bend_c, 10, 8320
7, 367680, Pitch_bend_c, 10, 8192
7, 367680, Note_off_c, 10, 71, 95
7, 367680, Note_on_c, 8, 71, 95
7, 368640, Note_off_c, 8, 71, 95
7, 368640, Note_on_c, 10, 72, 95
7, 368800, Pitch_bend_c, 10, 8192
7, 368960, Pitch_bend_c, 10, 8320
7, 369120, Pitch_bend_c, 10, 8192
7, 369280, Pitch_bend_c, 10, 8320
7, 369440, Pitch_bend_c, 10, 8192
7, 369600, Pitch_bend_c, 10, 8320
7, 369760, Pitch_bend_c, 10, 8192
7, 369920, Pitch_bend_c, 10, 8320
7, 370080, Pitch_bend_c, 10, 8192
7, 370240, Pitch_bend_c, 10, 8320
7, 370400, Pitch_bend_c, 10, 8192
7, 370560, Pitch_bend_c, 10, 8320
7, 370720, Pitch_bend_c, 10, 8192
7, 370880, Pitch_bend_c, 10, 8320
7, 371040, Pitch_bend_c, 10, 8192
7, 371200, Pitch_bend_c, 10, 8320
7, 371360, Pitch_bend_c, 10, 8192
7, 371520, Pitch_bend_c, 10, 8320
7, 371680, Pitch_bend_c, 10, 8192
7, 371840, Pitch_bend_c, 10, 8320
7, 372000, Pitch_bend_c, 10, 8192
7, 372160, Pitch_bend_c, 10, 8320
7, 372320, Pitch_bend_c, 10, 8192
7, 372480, Pitch_bend_c, 10, 8320
7, 372480, Pitch_bend_c, 10, 8192
7, 372480, Note_off_c, 10, 72, 95
7, 372480, Note_on_c, 10, 68, 95
7, 372640, Pitch_bend_c, 10, 8192
7, 372800, Pitch_bend_c, 10, 8320
7, 372960, Pitch_bend_c, 10, 8192
7, 373120, Pitch_bend_c, 10, 8320
7, 373280, Pitch_bend_c, 10, 8192
7, 373440, Pitch_bend_c, 10, 8320
7, 373600, Pitch_bend_c, 10, 8192
7, 373760, Pitch_bend_c, 10, 8320
7, 373920, Pitch_bend_c, 10, 8192
7, 373920, Pitch_bend_c, 10, 8320
7, 373920, Pitch_bend_c, 10, 8192
7, 373920, Note_off_c, 10, 68, 95
7, 373920, Note_on_c, 10, 71, 95
7, 374080, Pitch_bend_c, 10, 8192
7, 374240, Pitch_bend_c, 10, 8320
7, 374400, Pitch_bend_c, 10, 8192
7, 374560, Pitch_bend_c, 10, 8320
7, 374720, Pitch_bend_c, 10, 8192
7, 374880, Pitch_bend_c, 10, 8320
7, 375040, Pitch_bend_c, 10, 8192
7, 375200, Pitch_bend_c, 10, 8320
7, 375360, Pitch_bend_c, 10, 8192
7, 375360, Pitch_bend_c, 10, 8320
7, 375360, Pitch_bend_c, 10, 8192
7, 375360, Note_off_c, 10, 71, 95
7, 375360, Note_on_c, 10, 59, 95
7, 375520, Pitch_bend_c, 10, 8192
7, 375680, Pitch_bend_c, 10, 8320
7, 375840, Pitch_bend_c, 10, 8192
7, 376000, Pitch_bend_c, 10, 8320
7, 376160, Pitch_bend_c, 10, 8192
7, 376320, Pitch_bend_c, 10, 8320
7, 376320, Pitch_bend_c, 10, 8192
7, 376320, Note_off_c, 10, 59, 95
7, 376320, Note_on_c, 10, 60, 95
7, 376480, Pitch_bend_c, 10, 8192
7, 376640, Pitch_bend_c, 10, 8320
7, 376800, Pitch_bend_c, 10, 8192
7, 376960, Pitch_bend_c, 10, 8320
7, 377120, Pitch_bend_c, 10, 8192
7, 377280, Pitch_bend_c, 10, 8320
7, 377440, Pitch_bend_c, 10, 8192
7, 377600, Pitch_bend_c, 10, 8320
7, 377760, Pitch_bend_c, 10, 8192
7, 377920, Pitch_bend_c, 10, 8320
7, 378080, Pitch_bend_c, 10, 8192
7, 378240, Pitch_bend_c, 10, 8320
7, 378400, Pitch_bend_c, 10, 8192
7, 378560, Pitch_bend_c, 10, 8320
7, 378720, Pitch_bend_c, 10, 8192
7, 378880, Pitch_bend_c, 10, 8320
7, 379040, Pitch_bend_c, 10, 8192
7, 379200, Pitch_bend_c, 10, 8320
7, 379360, Pitch_bend_c, 10, 8192
7, 379520, Pitch_bend_c, 10, 8320
7, 379680, Pitch_bend_c, 10, 8192
7, 379840, Pitch_bend_c, 10, 8320
7, 380000, Pitch_bend_c, 10, 8192
7, 380160, Pitch_bend_c, 10, 8320
7, 380160, Pitch_bend_c, 10, 8192
7, 380160, Note_off_c, 10, 60, 95
7, 380160, Note_on_c, 10, 68, 95
7, 380320, Pitch_bend_c, 10, 8192
7, 380480, Pitch_bend_c, 10, 8320
7, 380640, Pitch_bend_c, 10, 8192
7, 380800, Pitch_bend_c, 10, 8320
7, 380960, Pitch_bend_c, 10, 8192
7, 381120, Pitch_bend_c, 10, 8320
7, 381280, Pitch_bend_c, 10, 8192
7, 381440, Pitch_bend_c, 10, 8320
7, 381600, Pitch_bend_c, 10, 8192
7, 381600, Pitch_bend_c, 10, 8320
7, 381600, Pitch_bend_c, 10, 8192
7, 381600, Note_off_c, 10, 68, 95
7, 381600, Note_on_c, 10, 71, 95
7, 381760, Pitch_bend_c, 10, 8192
7, 381920, Pitch_bend_c, 10, 8320
7, 382080, Pitch_bend_c, 10, 8192
7, 382240, Pitch_bend_c, 10, 8320
7, 382400, Pitch_bend_c, 10, 8192
7, 382560, Pitch_bend_c, 10, 8320
7, 382720, Pitch_bend_c, 10, 8192
7, 382880, Pitch_bend_c, 10, 8320
7, 383040, Pitch_bend_c, 10, 8192
7, 383040, Pitch_bend_c, 10, 8320
7, 383040, Pitch_bend_c, 10, 8192
7, 383040, Note_off_c, 10, 71, 95
7, 383040, Note_on_c, 8, 71, 95
7, 384000, Note_off_c, 8, 71, 95
7, 384000, Note_on_c, 10, 72, 95
7, 384160, Pitch_bend_c, 10, 8192
7, 384320, Pitch_bend_c, 10, 8320
7, 384480, Pitch_bend_c, 10, 8192
7, 384640, Pitch_bend_c, 10, 8320
7, 384800, Pitch_bend_c, 10, 8192
7, 384960, Pitch_bend_c, 10, 8320
7, 385120, Pitch_bend_c, 10, 8192
7, 385280, Pitch_bend_c, 10, 8320
7, 385440, Pitch_bend_c, 10, 8192
7, 385600, Pitch_bend_c, 10, 8320
7, 385760, Pitch_bend_c, 10, 8192
7, 385920, Pitch_bend_c, 10, 8320
7, 386080, Pitch_bend_c, 10, 8192
7, 386240, Pitch_bend_c, 10, 8320
7, 386400, Pitch_bend_c, 10, 8192
7, 386560, Pitch_bend_c, 10, 8320
7, 386720, Pitch_bend_c, 10, 8192
7, 386880, Pitch_bend_c, 10, 8320
7, 387040, Pitch_bend_c, 10, 8192
7, 387200, Pitch_bend_c, 10, 8320
7, 387360, Pitch_bend_c, 10, 8192
7, 387520, Pitch_bend_c, 10, 8320
7, 387680, Pitch_bend_c, 10, 8192
7, 387840, Pitch_bend_c, 10, 8320
7, 387840, Pitch_bend_c, 10, 8192
7, 387840, Note_off_c, 10, 72, 95
7, 387840, Note_on_c, 10, 68, 95
7, 388000, Pitch_bend_c, 10, 8192
7, 388160, Pitch_bend_c, 10, 8320
7, 388320, Pitch_bend_c, 10, 8192
7, 388480, Pitch_bend_c, 10, 8320
7, 388640, Pitch_bend_c, 10, 8192
7, 388800, Pitch_bend_c, 10, 8320
7, 388960, Pitch_bend_c, 10, 8192
7, 389120, Pitch_bend_c, 10, 8320
7, 389280, Pitch_bend_c, 10, 8192
7, 389280, Pitch_bend_c, 10, 8320
7, 389280, Pitch_bend_c, 10, 8192
7, 389280, Note_off_c, 10, 68, 95
7, 389280, Note_on_c, 10, 71, 95
7, 389440, Pitch_bend_c, 10, 8192
7, 389600, Pitch_bend_c, 10, 8320
7, 389760, Pitch_bend_c, 10, 8192
7, 389920, Pitch_bend_c, 10, 8320
7, 390080, Pitch_bend_c, 10, 8192
7, 390240, Pitch_bend_c, 10, 8320
7, 390400, Pitch_bend_c, 10, 8192
7, 390560, Pitch_bend_c, 10, 8320
7, 390720, Pitch_bend_c, 10, 8192
7, 390720, Pitch_bend_c, 10, 8320
7, 390720, Pitch_bend_c, 10, 8192
7, 390720, Note_off_c, 10, 71, 95
7, 390720, Note_on_c, 8, 71, 95
7, 391680, Note_off_c, 8, 71, 95
7, 391680, Note_on_c, 10, 72, 95
7, 391840, Pitch_bend_c, 10, 8192
7, 392000, Pitch_bend_c, 10, 8320
7, 392160, Pitch_bend_c, 10, 8192
7, 392320, Pitch_bend_c, 10, 8320
7, 392480, Pitch_bend_c, 10, 8192
7, 392640, Pitch_bend_c, 10, 8320
7, 392800, Pitch_bend_c, 10, 8192
7, 392960, Pitch_bend_c, 10, 8320
7, 393120, Pitch_bend_c, 10, 8192
7, 393280, Pitch_bend_c, 10, 8320
7, 393440, Pitch_bend_c, 10, 8192
7, 393600, Pitch_bend_c, 10, 8320
7, 393760, Pitch_bend_c, 10, 8192
7, 393920, Pitch_bend_c, 10, 8320
7, 394080, Pitch_bend_c, 10, 8192
7, 394240, Pitch_bend_c, 10, 8320
7, 394400, Pitch_bend_c, 10, 8192
7, 394560, Pitch_bend_c, 10, 8320
7, 394720, Pitch_bend_c, 10, 8192
7, 394880, Pitch_bend_c, 10, 8320
7, 395040, Pitch_bend_c, 10, 8192
7, 395200, Pitch_bend_c, 10, 8320
7, 395360, Pitch_bend_c, 10, 8192
7, 395520, Pitch_bend_c, 10, 8320
7, 395520, Pitch_bend_c, 10, 8192
7, 395520, Note_off_c, 10, 72, 95
7, 395520, Note_on_c, 10, 68, 95
7, 395680, Pitch_bend_c, 10, 8192
7, 395840, Pitch_bend_c, 10, 8320
7, 396000, Pitch_bend_c, 10, 8192
7, 396160, Pitch_bend_c, 10, 8320
7, 396320, Pitch_bend_c, 10, 8192
7, 396480, Pitch_bend_c, 10, 8320
7, 396640, Pitch_bend_c, 10, 8192
7, 396800, Pitch_bend_c, 10, 8320
7, 396960, Pitch_bend_c, 10, 8192
7, 396960, Pitch_bend_c, 10, 8320
7, 396960, Pitch_bend_c, 10, 8192
7, 396960, Note_off_c, 10, 68, 95
7, 396960, Note_on_c, 10, 71, 95
7, 397120, Pitch_bend_c, 10, 8192
7, 397280, Pitch_bend_c, 10, 8320
7, 397440, Pitch_bend_c, 10, 8192
7, 397600, Pitch_bend_c, 10, 8320
7, 397760, Pitch_bend_c, 10, 8192
7, 397920, Pitch_bend_c, 10, 8320
7, 398080, Pitch_bend_c, 10, 8192
7, 398240, Pitch_bend_c, 10, 8320
7, 398400, Pitch_bend_c, 10, 8192
7, 398400, Pitch_bend_c, 10, 8320
7, 398400, Pitch_bend_c, 10, 8192
7, 398400, Note_off_c, 10, 71, 95
7, 398400, Note_on_c, 8, 71, 95
7, 399360, Note_off_c, 8, 71, 95
7, 399360, Note_on_c, 10, 72, 95
7, 399520, Pitch_bend_c, 10, 8192
7, 399680, Pitch_bend_c, 10, 8320
7, 399840, Pitch_bend_c, 10, 8192
7, 400000, Pitch_bend_c, 10, 8320
7, 400160, Pitch_bend_c, 10, 8192
7, 400320, Pitch_bend_c, 10, 8320
7, 400480, Pitch_bend_c, 10, 8192
7, 400640, Pitch_bend_c, 10, 8320
7, 400800, Pitch_bend_c, 10, 8192
7, 400960, Pitch_bend_c, 10, 8320
7, 401120, Pitch_bend_c, 10, 8192
7, 401280, Pitch_bend_c, 10, 8320
7, 401440, Pitch_bend_c, 10, 8192
7, 401600, Pitch_bend_c, 10, 8320
7, 401760, Pitch_bend_c, 10, 8192
7, 401920, Pitch_bend_c, 10, 8320
7, 402080, Pitch_bend_c, 10, 8192
7, 402240, Pitch_bend_c, 10, 8320
7, 402400, Pitch_bend_c, 10, 8192
7, 402560, Pitch_bend_c, 10, 8320
7, 402720, Pitch_bend_c, 10, 8192
7, 402880, Pitch_bend_c, 10, 8320
7, 403040, Pitch_bend_c, 10, 8192
7, 403200, Pitch_bend_c, 10, 8320
7, 403200, Pitch_bend_c, 10, 8192
7, 403200, Note_off_c, 10, 72, 95
7, 403200, Note_on_c, 10, 68, 95
7, 403360, Pitch_bend_c, 10, 8192
7, 403520, Pitch_bend_c, 10, 8320
7, 403680, Pitch_bend_c, 10, 8192
7, 403840, Pitch_bend_c, 10, 8320
7, 404000, Pitch_bend_c, 10, 8192
7, 404160, Pitch_bend_c, 10, 8320
7, 404320, Pitch_bend_c, 10, 8192
7, 404480, Pitch_bend_c, 10, 8320
7, 404640, Pitch_bend_c, 10, 8192
7, 404640, Pitch_bend_c, 10, 8320
7, 404640, Pitch_bend_c, 10, 8192
7, 404640, Note_off_c, 10, 68, 95
7, 404640, Note_on_c, 10, 71, 95
7, 404800, Pitch_bend_c, 10, 8192
7, 404960, Pitch_bend_c, 10, 8320
7, 405120, Pitch_bend_c, 10, 8192
7, 405280, Pitch_bend_c, 10, 8320
7, 405440, Pitch_bend_c, 10, 8192
7, 405600, Pitch_bend_c, 10, 8320
7, 405760, Pitch_bend_c, 10, 8192
7, 405920, Pitch_bend_c, 10, 8320
7, 406080, Pitch_bend_c, 10, 8192
7, 406080, Pitch_bend_c, 10, 8320
7, 406080, Pitch_bend_c, 10, 8192
7, 406080, Note_off_c, 10, 71, 95
7, 406080, Note_on_c, 10, 59, 95
7, 406240, Pitch_bend_c, 10, 8192
7, 406400, Pitch_bend_c, 10, 8320
7, 406560, Pitch_bend_c, 10, 8192
7, 406720, Pitch_bend_c, 10, 8320
7, 406880, Pitch_bend_c, 10, 8192
7, 407040, Pitch_bend_c, 10, 8320
7, 407040, Pitch_bend_c, 10, 8192
7, 407040, Note_off_c, 10, 59, 95
7, 407040, Note_on_c, 10, 60, 95
7, 407200, Pitch_bend_c, 10, 8192
7, 407360, Pitch_bend_c, 10, 8320
7, 407520, Pitch_bend_c, 10, 8192
7, 407680, Pitch_bend_c, 10, 8320
7, 407840, Pitch_bend_c, 10, 8192
7, 408000, Pitch_bend_c, 10, 8320
7, 408160, Pitch_bend_c, 10, 8192
7, 408320, Pitch_bend_c, 10, 8320
7, 408480, Pitch_bend_c, 10, 8192
7, 408640, Pitch_bend_c, 10, 8320
7, 408800, Pitch_bend_c, 10, 8192
7, 408960, Pitch_bend_c, 10, 8320
7, 409120, Pitch_bend_c, 10, 8192
7, 409280, Pitch_bend_c, 10, 8320
7, 409440, Pitch_bend_c, 10, 8192
7, 409600, Pitch_bend_c, 10, 8320
7, 409760, Pitch_bend_c, 10, 8192
7, 409920, Pitch_bend_c, 10, 8320
7, 410080, Pitch_bend_c, 10, 8192
7, 410240, Pitch_bend_c, 10, 8320
7, 410400, Pitch_bend_c, 10, 8192
7, 410560, Pitch_bend_c, 10, 8320
7, 410720, Pitch_bend_c, 10, 8192
7, 410880, Pitch_bend_c, 10, 8320
7, 410880, Pitch_bend_c, 10, 8192
7, 410880, Note_off_c, 10, 60, 95
7, 410880, End_track
0, 0, End_of_file
