0, 0, Header, 1, 10, 480
1, 0, Start_track
1, 0, Tempo, 666666
1, 0, Title_t, "All I Need"
1, 0, Time_signature, 4, 2, 10, 44
1, 0, Marker_t, "Intro"
1, 23040, Marker_t, "Verse 1"
1, 55680, Marker_t, "Chorus 1"
1, 71040, Marker_t, "Verse 2"
1, 99840, Marker_t, "Chorus 2"
1, 115200, Marker_t, "Piano Break"
1, 134400, Marker_t, "Outro Verse"
1, 134400, End_track
2, 0, Start_track
2, 0, Title_t, "Soft karaoke"
2, 0, Text_t, "@KMIDI KARAOKE FILE"
2, 0, End_track
3, 0, Start_track
3, 0, Title_t, "Words"
3, 0, Text_t, "@LENGL"
3, 0, Text_t, "@TAll I Need"
3, 0, Text_t, "@TRadiohead"
3, 0, Text_t, "@T-Fly-"
3, 23520, Text_t, "\\I\222m"
3, 23760, Text_t, " the"
3, 24000, Text_t, " next"
3, 24720, Text_t, " act"
3, 26580, Text_t, "/Wait"
3, 27120, Text_t, "ing"
3, 27600, Text_t, " in"
3, 28080, Text_t, " the"
3, 28500, Text_t, " wings"
3, 33120, Text_t, "/I\222m"
3, 33360, Text_t, " an"
3, 33600, Text_t, " an"
3, 33840, Text_t, "i"
3, 34080, Text_t, "mal"
3, 36180, Text_t, "/Trapped"
3, 36720, Text_t, " in"
3, 37200, Text_t, " your"
3, 37680, Text_t, " hot"
3, 38100, Text_t, " car"
3, 42720, Text_t, "/I"
3, 42960, Text_t, " am"
3, 43200, Text_t, " all"
3, 43680, Text_t, " the"
3, 43920, Text_t, " days"
3, 45600, Text_t, "/that"
3, 45780, Text_t, " you"
3, 46320, Text_t, " choose"
3, 46800, Text_t, " to"
3, 47280, Text_t, " ig"
3, 47700, Text_t, "nore"
3, 56160, Text_t, "\\You're"
3, 56640, Text_t, " all"
3, 56880, Text_t, " I"
3, 57360, Text_t, " need"
3, 60000, Text_t, "/You're"
3, 60480, Text_t, " all"
3, 60641, Text_t, " I"
3, 61200, Text_t, " need"
3, 63600, Text_t, "/I\222m"
3, 63840, Text_t, " in"
3, 64080, Text_t, " the"
3, 64320, Text_t, " mid"
3, 64560, Text_t, "dle"
3, 64800, Text_t, " of"
3, 65040, Text_t, " your"
3, 65280, Text_t, " pic"
3, 66000, Text_t, "ture"
3, 67680, Text_t, "/Ly"
3, 67920, Text_t, "ing"
3, 68160, Text_t, " in"
3, 68400, Text_t, " the"
3, 68880, Text_t, " reeds"
3, 71520, Text_t, "\\I"
3, 71760, Text_t, " am"
3, 72000, Text_t, " a"
3, 72240, Text_t, " moth"
3, 74400, Text_t, "/who"
3, 74580, Text_t, " just"
3, 75120, Text_t, " wants"
3, 75600, Text_t, " to.share"
3, 76080, Text_t, " your"
3, 76500, Text_t, " light"
3, 80880, Text_t, "/I\222m"
3, 81120, Text_t, " just"
3, 81360, Text_t, " an"
3, 81600, Text_t, " in"
3, 82080, Text_t, "sect"
3, 84000, Text_t, "/trying.to"
3, 84180, Text_t, " get"
3, 84720, Text_t, " out"
3, 85200, Text_t, " of"
3, 85680, Text_t, " the"
3, 86100, Text_t, " night"
3, 90480, Text_t, "/I"
3, 90720, Text_t, " on"
3, 90960, Text_t, "ly"
3, 91200, Text_t, " stick"
3, 91680, Text_t, " with"
3, 91920, Text_t, " you"
3, 93780, Text_t, "/because"
3, 94320, Text_t, " there"
3, 94800, Text_t, " are"
3, 95280, Text_t, " no"
3, 95700, Text_t, " others"
3, 100320, Text_t, "\\You're"
3, 100800, Text_t, " all"
3, 101040, Text_t, " I"
3, 101520, Text_t, " need"
3, 104160, Text_t, "/You're"
3, 104640, Text_t, " all"
3, 104801, Text_t, " I"
3, 105360, Text_t, " need"
3, 107760, Text_t, "/I\222m"
3, 108000, Text_t, " in"
3, 108240, Text_t, " the"
3, 108480, Text_t, " mid"
3, 108720, Text_t, "dle"
3, 108960, Text_t, " of"
3, 109200, Text_t, " your"
3, 109440, Text_t, " pic"
3, 110160, Text_t, "ture"
3, 111840, Text_t, "/Ly"
3, 112080, Text_t, "ing"
3, 112320, Text_t, " in"
3, 112560, Text_t, " the"
3, 113040, Text_t, " reeds"
3, 134640, Text_t, "\\It\222s"
3, 134880, Text_t, " all"
3, 135360, Text_t, " wrong"
3, 136560, Text_t, "/It\222s"
3, 136800, Text_t, " all"
3, 137280, Text_t, " right"
3, 138480, Text_t, "/It\222s"
3, 138720, Text_t, " all"
3, 139200, Text_t, " wrong"
3, 140400, Text_t, "/It\222s"
3, 140640, Text_t, " all"
3, 141120, Text_t, " right"
3, 142320, Text_t, "/It\222s"
3, 142560, Text_t, " all"
3, 143040, Text_t, " wrong"
3, 144240, Text_t, "/It\222s"
3, 144480, Text_t, " all"
3, 144960, Text_t, " right"
3, 146160, Text_t, "/It\222s"
3, 146400, Text_t, " all"
3, 146880, Text_t, " wrong"
3, 148080, Text_t, "/It\222s"
3, 148320, Text_t, " all"
3, 148800, Text_t, " right"
3, 150000, Text_t, "/It\222s"
3, 150240, Text_t, " all"
3, 150720, Text_t, " wrong"
3, 151920, Text_t, "/It\222s"
3, 152160, Text_t, " all"
3, 152640, Text_t, " right"
3, 152640, End_track
4, 0, Start_track
4, 0, Title_t, "Voice"
4, 0, Control_c, 7, 100, 0
4, 0, Control_c, 7, 101, 0
4, 0, Control_c, 7, 6, 12
4, 0, Pitch_bend_c, 7, 8192
4, 0, Control_c, 7, 101, 0
4, 0, Control_c, 7, 100, 1
4, 0, Control_c, 7, 6, 64
4, 0, Control_c, 7, 38, 0
4, 0, Control_c, 7, 101, 127
4, 0, Control_c, 7, 100, 127
4, 0, Control_c, 6, 100, 0
4, 0, Control_c, 6, 101, 0
4, 0, Control_c, 6, 6, 12
4, 0, Pitch_bend_c, 6, 8192
4, 0, Control_c, 6, 101, 0
4, 0, Control_c, 6, 100, 1
4, 0, Control_c, 6, 6, 64
4, 0, Control_c, 6, 38, 0
4, 0, Control_c, 6, 101, 127
4, 0, Control_c, 6, 100, 127
4, 0, Control_c, 7, 101, 0
4, 0, Control_c, 7, 100, 2
4, 0, Control_c, 7, 6, 64
4, 0, Control_c, 7, 101, 127
4, 0, Control_c, 7, 100, 127
4, 0, Control_c, 6, 101, 0
4, 0, Control_c, 6, 100, 2
4, 0, Control_c, 6, 6, 64
4, 0, Control_c, 6, 101, 127
4, 0, Control_c, 6, 100, 127
4, 0, Program_c, 7, 73
4, 0, Program_c, 6, 73
4, 0, Control_c, 7, 0, 0
4, 0, Control_c, 6, 0, 0
4, 0, Control_c, 7, 7, 127
4, 0, Control_c, 6, 7, 127
4, 0, Control_c, 7, 10, 64
4, 0, Control_c, 6, 10, 64
4, 0, Control_c, 7, 93, 0
4, 0, Control_c, 6, 93, 0
4, 0, Control_c, 7, 91, 0
4, 0, Control_c, 6, 91, 0
4, 0, Control_c, 7, 92, 0
4, 0, Control_c, 6, 92, 0
4, 0, Control_c, 7, 95, 0
4, 0, Control_c, 6, 95, 0
4, 23520, Note_on_c, 6, 55, 95
4, 23760, Note_off_c, 6, 55, 80
4, 23760, Note_on_c, 6, 55, 95
4, 24000, Note_off_c, 6, 55, 80
4, 24000, Note_on_c, 6, 55, 95
4, 24480, Note_off_c, 6, 55, 80
4, 24720, Note_on_c, 7, 54, 95
4, 24912, Pitch_bend_c, 7, 8832
4, 24960, Pitch_bend_c, 7, 8832
4, 25380, Note_off_c, 7, 54, 80
4, 25380, Pitch_bend_c, 7, 8192
4, 26580, Note_on_c, 7, 54, 95
4, 26580, Pitch_bend_c, 7, 8832
4, 26640, Pitch_bend_c, 7, 8192
4, 27120, Note_off_c, 7, 54, 80
4, 27120, Note_on_c, 6, 52, 95
4, 27600, Note_off_c, 6, 52, 80
4, 27600, Note_on_c, 6, 50, 95
4, 28020, Note_off_c, 6, 50, 80
4, 28080, Note_on_c, 6, 48, 95
4, 28500, Note_on_c, 7, 54, 95
4, 28500, Pitch_bend_c, 7, 6784
4, 28530, Pitch_bend_c, 7, 7552
4, 28560, Note_off_c, 6, 48, 80
4, 28560, Pitch_bend_c, 7, 8192
4, 28656, Pitch_bend_c, 7, 8832
4, 28680, Pitch_bend_c, 7, 8832
4, 29040, Note_off_c, 7, 54, 80
4, 29040, Pitch_bend_c, 7, 8192
4, 33120, Note_on_c, 6, 55, 95
4, 33360, Note_off_c, 6, 55, 80
4, 33360, Note_on_c, 6, 55, 95
4, 33600, Note_off_c, 6, 55, 80
4, 33600, Note_on_c, 6, 55, 95
4, 33840, Note_off_c, 6, 55, 80
4, 33840, Note_on_c, 6, 55, 95
4, 34080, Note_off_c, 6, 55, 80
4, 34080, Note_on_c, 6, 55, 95
4, 34740, Note_off_c, 6, 55, 80
4, 36180, Note_on_c, 7, 54, 95
4, 36180, Pitch_bend_c, 7, 8832
4, 36240, Pitch_bend_c, 7, 8192
4, 36720, Note_off_c, 7, 54, 80
4, 36720, Note_on_c, 6, 52, 95
4, 37200, Note_off_c, 6, 52, 80
4, 37200, Note_on_c, 6, 50, 95
4, 37620, Note_off_c, 6, 50, 80
4, 37680, Note_on_c, 6, 48, 95
4, 38100, Note_on_c, 7, 50, 95
4, 38100, Pitch_bend_c, 7, 9600
4, 38130, Pitch_bend_c, 7, 8832
4, 38160, Note_off_c, 6, 48, 80
4, 38160, Pitch_bend_c, 7, 8192
4, 38880, Note_off_c, 7, 50, 80
4, 42720, Note_on_c, 6, 55, 95
4, 42960, Note_off_c, 6, 55, 80
4, 42960, Note_on_c, 6, 55, 95
4, 43200, Note_off_c, 6, 55, 80
4, 43200, Note_on_c, 6, 55, 95
4, 43680, Note_off_c, 6, 55, 80
4, 43680, Note_on_c, 6, 55, 95
4, 43920, Note_off_c, 6, 55, 80
4, 43920, Note_on_c, 7, 54, 95
4, 44112, Pitch_bend_c, 7, 8832
4, 44160, Pitch_bend_c, 7, 8832
4, 44640, Note_off_c, 7, 54, 80
4, 44640, Pitch_bend_c, 7, 8192
4, 45600, Note_on_c, 6, 55, 95
4, 45780, Note_off_c, 6, 55, 80
4, 45780, Note_on_c, 7, 54, 95
4, 45780, Pitch_bend_c, 7, 8832
4, 45840, Pitch_bend_c, 7, 8192
4, 46320, Note_off_c, 7, 54, 80
4, 46320, Note_on_c, 6, 52, 95
4, 46800, Note_off_c, 6, 52, 80
4, 46800, Note_on_c, 6, 50, 95
4, 47220, Note_off_c, 6, 50, 80
4, 47280, Note_on_c, 6, 48, 95
4, 47700, Note_on_c, 7, 54, 95
4, 47700, Pitch_bend_c, 7, 6784
4, 47730, Pitch_bend_c, 7, 7552
4, 47760, Note_off_c, 6, 48, 80
4, 47760, Pitch_bend_c, 7, 8192
4, 47856, Pitch_bend_c, 7, 8832
4, 47880, Pitch_bend_c, 7, 8832
4, 48240, Note_off_c, 7, 54, 80
4, 48240, Pitch_bend_c, 7, 8192
4, 56160, Note_on_c, 6, 52, 95
4, 56640, Note_off_c, 6, 52, 80
4, 56640, Note_on_c, 6, 55, 95
4, 56880, Note_off_c, 6, 55, 80
4, 56880, Note_on_c, 7, 57, 95
4, 56988, Pitch_bend_c, 7, 8832
4, 57000, Pitch_bend_c, 7, 9600
4, 57360, Note_off_c, 7, 57, 80
4, 57360, Pitch_bend_c, 7, 8192
4, 57360, Note_on_c, 6, 59, 95
4, 59040, Note_off_c, 6, 59, 80
4, 60000, Note_on_c, 6, 55, 95
4, 60480, Note_off_c, 6, 55, 80
4, 60480, Note_on_c, 6, 60, 95
4, 60600, Note_off_c, 6, 60, 80
4, 60641, Note_on_c, 7, 60, 95
4, 60641, Pitch_bend_c, 7, 6144
4, 60667, Pitch_bend_c, 7, 6784
4, 60694, Pitch_bend_c, 7, 7552
4, 60720, Pitch_bend_c, 7, 8192
4, 61200, Note_off_c, 7, 60, 80
4, 61200, Note_on_c, 7, 60, 95
4, 62112, Pitch_bend_c, 7, 7552
4, 62160, Pitch_bend_c, 7, 7552
4, 63096, Pitch_bend_c, 7, 6912
4, 63120, Pitch_bend_c, 7, 6144
4, 63600, Note_off_c, 7, 60, 80
4, 63600, Pitch_bend_c, 7, 8192
4, 63600, Pitch_bend_c, 7, 8192
4, 63600, Note_on_c, 6, 60, 95
4, 63840, Note_off_c, 6, 60, 80
4, 63840, Note_on_c, 6, 60, 95
4, 64080, Note_off_c, 6, 60, 80
4, 64080, Note_on_c, 6, 60, 95
4, 64320, Note_off_c, 6, 60, 80
4, 64320, Note_on_c, 6, 60, 95
4, 64560, Note_off_c, 6, 60, 80
4, 64560, Note_on_c, 6, 60, 95
4, 64800, Note_off_c, 6, 60, 80
4, 64800, Note_on_c, 6, 60, 95
4, 65040, Note_off_c, 6, 60, 80
4, 65040, Note_on_c, 6, 59, 95
4, 65280, Note_off_c, 6, 59, 80
4, 65280, Note_on_c, 6, 59, 95
4, 66000, Note_off_c, 6, 59, 80
4, 66000, Note_on_c, 6, 57, 95
4, 66960, Note_off_c, 6, 57, 80
4, 67680, Note_on_c, 6, 55, 95
4, 67920, Note_off_c, 6, 55, 80
4, 67920, Note_on_c, 6, 55, 95
4, 68160, Note_off_c, 6, 55, 80
4, 68160, Note_on_c, 6, 55, 95
4, 68400, Note_off_c, 6, 55, 80
4, 68400, Note_on_c, 6, 55, 95
4, 68880, Note_off_c, 6, 55, 80
4, 68880, Note_on_c, 7, 54, 95
4, 69072, Pitch_bend_c, 7, 8832
4, 69120, Pitch_bend_c, 7, 8832
4, 70080, Note_off_c, 7, 54, 80
4, 70080, Pitch_bend_c, 7, 8192
4, 71520, Note_on_c, 6, 55, 95
4, 71760, Note_off_c, 6, 55, 80
4, 71760, Note_on_c, 6, 55, 95
4, 72000, Note_off_c, 6, 55, 80
4, 72000, Note_on_c, 6, 55, 95
4, 72240, Note_off_c, 6, 55, 80
4, 72240, Note_on_c, 6, 55, 95
4, 72960, Note_off_c, 6, 55, 80
4, 74400, Note_on_c, 6, 55, 95
4, 74580, Note_off_c, 6, 55, 80
4, 74580, Note_on_c, 7, 54, 95
4, 74580, Pitch_bend_c, 7, 8832
4, 74640, Pitch_bend_c, 7, 8192
4, 75120, Note_off_c, 7, 54, 80
4, 75120, Note_on_c, 6, 52, 95
4, 75600, Note_off_c, 6, 52, 80
4, 75600, Note_on_c, 6, 50, 95
4, 76020, Note_off_c, 6, 50, 80
4, 76080, Note_on_c, 6, 48, 95
4, 76500, Note_on_c, 7, 54, 95
4, 76500, Pitch_bend_c, 7, 6784
4, 76530, Pitch_bend_c, 7, 7552
4, 76560, Note_off_c, 6, 48, 80
4, 76560, Pitch_bend_c, 7, 8192
4, 76656, Pitch_bend_c, 7, 8832
4, 76680, Pitch_bend_c, 7, 8832
4, 77040, Note_off_c, 7, 54, 80
4, 77040, Pitch_bend_c, 7, 8192
4, 80880, Note_on_c, 6, 55, 95
4, 81120, Note_off_c, 6, 55, 80
4, 81120, Note_on_c, 6, 55, 95
4, 81360, Note_off_c, 6, 55, 80
4, 81360, Note_on_c, 6, 55, 95
4, 81600, Note_off_c, 6, 55, 80
4, 81600, Note_on_c, 6, 55, 95
4, 82080, Note_off_c, 6, 55, 80
4, 82080, Note_on_c, 6, 55, 95
4, 82800, Note_off_c, 6, 55, 80
4, 84000, Note_on_c, 6, 55, 111
4, 84180, Note_off_c, 6, 55, 80
4, 84180, Note_on_c, 7, 54, 95
4, 84180, Pitch_bend_c, 7, 8832
4, 84240, Pitch_bend_c, 7, 8192
4, 84720, Note_off_c, 7, 54, 80
4, 84720, Note_on_c, 6, 52, 95
4, 85200, Note_off_c, 6, 52, 80
4, 85200, Note_on_c, 6, 50, 95
4, 85620, Note_off_c, 6, 50, 80
4, 85680, Note_on_c, 6, 48, 95
4, 86100, Note_on_c, 7, 50, 95
4, 86100, Pitch_bend_c, 7, 9600
4, 86130, Pitch_bend_c, 7, 8832
4, 86160, Note_off_c, 6, 48, 80
4, 86160, Pitch_bend_c, 7, 8192
4, 86880, Note_off_c, 7, 50, 80
4, 90480, Note_on_c, 6, 55, 95
4, 90720, Note_off_c, 6, 55, 80
4, 90720, Note_on_c, 6, 55, 95
4, 90960, Note_off_c, 6, 55, 80
4, 90960, Note_on_c, 6, 55, 95
4, 91200, Note_off_c, 6, 55, 80
4, 91200, Note_on_c, 6, 57, 95
4, 91680, Note_off_c, 6, 57, 80
4, 91680, Note_on_c, 6, 54, 95
4, 91920, Note_off_c, 6, 54, 80
4, 91920, Note_on_c, 6, 55, 95
4, 92580, Note_off_c, 6, 55, 80
4, 93780, Note_on_c, 7, 54, 95
4, 93780, Pitch_bend_c, 7, 8832
4, 93840, Pitch_bend_c, 7, 8192
4, 94320, Note_off_c, 7, 54, 80
4, 94320, Note_on_c, 6, 52, 95
4, 94800, Note_off_c, 6, 52, 80
4, 94800, Note_on_c, 6, 50, 95
4, 95220, Note_off_c, 6, 50, 80
4, 95280, Note_on_c, 6, 48, 95
4, 95700, Note_on_c, 7, 54, 95
4, 95700, Pitch_bend_c, 7, 6784
4, 95730, Pitch_bend_c, 7, 7552
4, 95760, Note_off_c, 6, 48, 80
4, 95760, Pitch_bend_c, 7, 8192
4, 95856, Pitch_bend_c, 7, 8832
4, 95880, Pitch_bend_c, 7, 8832
4, 96240, Note_off_c, 7, 54, 80
4, 96240, Pitch_bend_c, 7, 8192
4, 100320, Note_on_c, 6, 52, 95
4, 100800, Note_off_c, 6, 52, 80
4, 100800, Note_on_c, 6, 55, 95
4, 101040, Note_off_c, 6, 55, 80
4, 101040, Note_on_c, 7, 57, 95
4, 101148, Pitch_bend_c, 7, 8832
4, 101160, Pitch_bend_c, 7, 9600
4, 101520, Note_off_c, 7, 57, 80
4, 101520, Pitch_bend_c, 7, 8192
4, 101520, Note_on_c, 6, 59, 95
4, 103200, Note_off_c, 6, 59, 80
4, 104160, Note_on_c, 6, 55, 95
4, 104640, Note_off_c, 6, 55, 80
4, 104640, Note_on_c, 6, 60, 95
4, 104760, Note_off_c, 6, 60, 80
4, 104801, Note_on_c, 7, 60, 95
4, 104801, Pitch_bend_c, 7, 6144
4, 104827, Pitch_bend_c, 7, 6784
4, 104854, Pitch_bend_c, 7, 7552
4, 104880, Pitch_bend_c, 7, 8192
4, 105360, Note_off_c, 7, 60, 80
4, 105360, Note_on_c, 6, 60, 95
4, 106320, Note_off_c, 6, 60, 80
4, 106320, Note_on_c, 7, 59, 95
4, 107256, Pitch_bend_c, 7, 7552
4, 107280, Pitch_bend_c, 7, 6784
4, 107760, Note_off_c, 7, 59, 80
4, 107760, Pitch_bend_c, 7, 8192
4, 107760, Note_on_c, 6, 60, 95
4, 108000, Note_off_c, 6, 60, 80
4, 108000, Note_on_c, 6, 60, 95
4, 108240, Note_off_c, 6, 60, 80
4, 108240, Note_on_c, 6, 60, 95
4, 108480, Note_off_c, 6, 60, 80
4, 108480, Note_on_c, 6, 60, 95
4, 108720, Note_off_c, 6, 60, 80
4, 108720, Note_on_c, 6, 60, 95
4, 108960, Note_off_c, 6, 60, 80
4, 108960, Note_on_c, 6, 60, 95
4, 109200, Note_off_c, 6, 60, 80
4, 109200, Note_on_c, 6, 59, 95
4, 109440, Note_off_c, 6, 59, 80
4, 109440, Note_on_c, 6, 59, 95
4, 110160, Note_off_c, 6, 59, 80
4, 110160, Note_on_c, 6, 57, 95
4, 111120, Note_off_c, 6, 57, 80
4, 111840, Note_on_c, 6, 55, 95
4, 112080, Note_off_c, 6, 55, 80
4, 112080, Note_on_c, 6, 55, 95
4, 112320, Note_off_c, 6, 55, 80
4, 112320, Note_on_c, 6, 55, 95
4, 112560, Note_off_c, 6, 55, 80
4, 112560, Note_on_c, 6, 55, 95
4, 113040, Note_off_c, 6, 55, 80
4, 113040, Note_on_c, 7, 54, 95
4, 113232, Pitch_bend_c, 7, 8832
4, 113280, Pitch_bend_c, 7, 8832
4, 114240, Note_off_c, 7, 54, 80
4, 114240, Pitch_bend_c, 7, 8192
4, 134400, Control_c, 6, 7, 127
4, 134400, Control_c, 7, 7, 127
4, 134400, Control_c, 6, 10, 64
4, 134400, Control_c, 7, 10, 64
4, 134640, Note_on_c, 6, 60, 95
4, 134880, Note_off_c, 6, 60, 80
4, 134880, Note_on_c, 6, 62, 95
4, 135360, Note_off_c, 6, 62, 80
4, 135360, Note_on_c, 6, 62, 95
4, 136320, Note_off_c, 6, 62, 80
4, 136560, Note_on_c, 6, 62, 95
4, 136800, Note_off_c, 6, 62, 80
4, 136800, Note_on_c, 6, 64, 95
4, 137280, Note_off_c, 6, 64, 80
4, 137280, Note_on_c, 6, 64, 95
4, 138240, Note_off_c, 6, 64, 80
4, 138480, Note_on_c, 6, 64, 95
4, 138720, Note_off_c, 6, 64, 80
4, 138720, Note_on_c, 6, 66, 95
4, 139200, Note_off_c, 6, 66, 80
4, 139200, Note_on_c, 6, 66, 95
4, 140160, Note_off_c, 6, 66, 80
4, 140400, Note_on_c, 6, 64, 95
4, 140640, Note_off_c, 6, 64, 80
4, 140640, Note_on_c, 6, 66, 95
4, 141120, Note_off_c, 6, 66, 80
4, 141120, Note_on_c, 7, 67, 95
4, 141312, Pitch_bend_c, 7, 7552
4, 141360, Pitch_bend_c, 7, 7552
4, 141576, Pitch_bend_c, 7, 6912
4, 141600, Pitch_bend_c, 7, 6144
4, 141816, Pitch_bend_c, 7, 5504
4, 141840, Pitch_bend_c, 7, 4736
4, 142320, Note_off_c, 7, 67, 80
4, 142320, Pitch_bend_c, 7, 8192
4, 142320, Note_on_c, 6, 60, 95
4, 142560, Note_off_c, 6, 60, 80
4, 142560, Note_on_c, 6, 62, 95
4, 143040, Note_off_c, 6, 62, 80
4, 143040, Note_on_c, 6, 62, 95
4, 144000, Note_off_c, 6, 62, 80
4, 144240, Note_on_c, 6, 62, 95
4, 144480, Note_off_c, 6, 62, 80
4, 144480, Note_on_c, 6, 64, 95
4, 144960, Note_off_c, 6, 64, 80
4, 144960, Note_on_c, 6, 64, 95
4, 145920, Note_off_c, 6, 64, 80
4, 146160, Note_on_c, 6, 64, 95
4, 146400, Note_off_c, 6, 64, 80
4, 146400, Note_on_c, 6, 66, 95
4, 146880, Note_off_c, 6, 66, 80
4, 146880, Note_on_c, 6, 66, 95
4, 147840, Note_off_c, 6, 66, 80
4, 148080, Note_on_c, 6, 64, 95
4, 148320, Note_off_c, 6, 64, 80
4, 148320, Note_on_c, 6, 66, 95
4, 148800, Note_off_c, 6, 66, 80
4, 148800, Note_on_c, 7, 67, 95
4, 148992, Pitch_bend_c, 7, 7552
4, 149040, Pitch_bend_c, 7, 7552
4, 149256, Pitch_bend_c, 7, 6912
4, 149280, Pitch_bend_c, 7, 6144
4, 149496, Pitch_bend_c, 7, 5504
4, 149520, Pitch_bend_c, 7, 4736
4, 150000, Note_off_c, 7, 67, 80
4, 150000, Pitch_bend_c, 7, 8192
4, 150000, Note_on_c, 6, 60, 95
4, 150240, Note_off_c, 6, 60, 80
4, 150240, Note_on_c, 6, 62, 95
4, 150720, Note_off_c, 6, 62, 80
4, 150720, Note_on_c, 6, 62, 95
4, 151680, Note_off_c, 6, 62, 80
4, 151920, Note_on_c, 6, 62, 95
4, 152160, Note_off_c, 6, 62, 80
4, 152160, Note_on_c, 6, 64, 95
4, 152640, Note_off_c, 6, 64, 80
4, 152640, Note_on_c, 6, 64, 95
4, 154560, Note_off_c, 6, 64, 80
4, 154560, End_track
5, 0, Start_track
5, 0, Title_t, "Piano/samples noise"
5, 0, Control_c, 5, 100, 0
5, 0, Control_c, 5, 101, 0
5, 0, Control_c, 5, 6, 12
5, 0, Pitch_bend_c, 5, 8192
5, 0, Control_c, 5, 101, 0
5, 0, Control_c, 5, 100, 1
5, 0, Control_c, 5, 6, 64
5, 0, Control_c, 5, 38, 0
5, 0, Control_c, 5, 101, 127
5, 0, Control_c, 5, 100, 127
5, 0, Control_c, 4, 100, 0
5, 0, Control_c, 4, 101, 0
5, 0, Control_c, 4, 6, 12
5, 0, Pitch_bend_c, 4, 8192
5, 0, Control_c, 4, 101, 0
5, 0, Control_c, 4, 100, 1
5, 0, Control_c, 4, 6, 64
5, 0, Control_c, 4, 38, 0
5, 0, Control_c, 4, 101, 127
5, 0, Control_c, 4, 100, 127
5, 0, Control_c, 5, 101, 0
5, 0, Control_c, 5, 100, 2
5, 0, Control_c, 5, 6, 64
5, 0, Control_c, 5, 101, 127
5, 0, Control_c, 5, 100, 127
5, 0, Control_c, 4, 101, 0
5, 0, Control_c, 4, 100, 2
5, 0, Control_c, 4, 6, 64
5, 0, Control_c, 4, 101, 127
5, 0, Control_c, 4, 100, 127
5, 0, Program_c, 5, 1
5, 0, Program_c, 4, 1
5, 0, Control_c, 5, 0, 0
5, 0, Control_c, 4, 0, 0
5, 0, Control_c, 5, 7, 112
5, 0, Control_c, 4, 7, 112
5, 0, Control_c, 5, 10, 96
5, 0, Control_c, 4, 10, 96
5, 0, Control_c, 5, 93, 0
5, 0, Control_c, 4, 93, 0
5, 0, Control_c, 5, 91, 0
5, 0, Control_c, 4, 91, 0
5, 0, Control_c, 5, 92, 0
5, 0, Control_c, 4, 92, 0
5, 0, Control_c, 5, 95, 0
5, 0, Control_c, 4, 95, 0
5, 71040, Program_c, 4, 122
5, 71040, Program_c, 5, 122
5, 71040, Control_c, 4, 7, 0
5, 71040, Control_c, 5, 7, 0
5, 72000, Control_c, 4, 7, 7
5, 72000, Control_c, 5, 7, 7
5, 72000, Control_c, 4, 10, 127
5, 72000, Control_c, 5, 10, 127
5, 72000, Pitch_bend_c, 5, 8192
5, 72000, Note_on_c, 5, 69, 95
5, 72000, Pitch_bend_c, 5, 8192
5, 72002, Pitch_bend_c, 5, 8192
5, 72004, Pitch_bend_c, 5, 8192
5, 72005, Pitch_bend_c, 5, 8192
5, 72007, Pitch_bend_c, 5, 8192
5, 72008, Pitch_bend_c, 5, 8192
5, 72009, Pitch_bend_c, 5, 8192
5, 72012, Pitch_bend_c, 5, 8192
5, 72013, Pitch_bend_c, 5, 8192
5, 72014, Pitch_bend_c, 5, 8192
5, 72016, Pitch_bend_c, 5, 8192
5, 72017, Pitch_bend_c, 5, 8192
5, 72019, Pitch_bend_c, 5, 8192
5, 72021, Pitch_bend_c, 5, 8192
5, 72021, Pitch_bend_c, 5, 8192
5, 72023, Pitch_bend_c, 5, 8192
5, 72025, Pitch_bend_c, 5, 8192
5, 72026, Pitch_bend_c, 5, 8192
5, 72028, Pitch_bend_c, 5, 8192
5, 72030, Pitch_bend_c, 5, 8192
5, 72030, Pitch_bend_c, 5, 8192
5, 72033, Pitch_bend_c, 5, 8192
5, 72034, Pitch_bend_c, 5, 8192
5, 72035, Pitch_bend_c, 5, 8192
5, 72038, Pitch_bend_c, 5, 8192
5, 72038, Pitch_bend_c, 5, 8192
5, 72040, Pitch_bend_c, 5, 8192
5, 72042, Pitch_bend_c, 5, 8192
5, 72042, Pitch_bend_c, 5, 8192
5, 72045, Pitch_bend_c, 5, 8192
5, 72046, Pitch_bend_c, 5, 8192
5, 72047, Pitch_bend_c, 5, 8192
5, 72049, Pitch_bend_c, 5, 8192
5, 72051, Pitch_bend_c, 5, 8192
5, 72052, Pitch_bend_c, 5, 8192
5, 72054, Pitch_bend_c, 5, 8192
5, 72055, Pitch_bend_c, 5, 8192
5, 72056, Pitch_bend_c, 5, 8192
5, 72059, Pitch_bend_c, 5, 8192
5, 72059, Pitch_bend_c, 5, 8192
5, 72061, Pitch_bend_c, 5, 8192
5, 72063, Pitch_bend_c, 5, 8192
5, 72063, Pitch_bend_c, 5, 8192
5, 72066, Pitch_bend_c, 5, 8192
5, 72068, Pitch_bend_c, 5, 8192
5, 72068, Pitch_bend_c, 5, 8192
5, 72070, Pitch_bend_c, 5, 8192
5, 72072, Pitch_bend_c, 5, 8192
5, 72073, Pitch_bend_c, 5, 8192
5, 72075, Pitch_bend_c, 5, 8192
5, 72076, Pitch_bend_c, 5, 8192
5, 72077, Pitch_bend_c, 5, 8192
5, 72080, Pitch_bend_c, 5, 8320
5, 72080, Pitch_bend_c, 5, 8192
5, 72082, Pitch_bend_c, 5, 8320
5, 72084, Pitch_bend_c, 5, 8320
5, 72084, Pitch_bend_c, 5, 8192
5, 72087, Pitch_bend_c, 5, 8320
5, 72089, Pitch_bend_c, 5, 8320
5, 72089, Pitch_bend_c, 5, 8192
5, 72091, Pitch_bend_c, 5, 8320
5, 72093, Pitch_bend_c, 5, 8192
5, 72094, Pitch_bend_c, 5, 8320
5, 72096, Pitch_bend_c, 5, 8320
5, 72097, Pitch_bend_c, 5, 8192
5, 72098, Pitch_bend_c, 5, 8320
5, 72101, Pitch_bend_c, 5, 8320
5, 72101, Pitch_bend_c, 5, 8192
5, 72103, Pitch_bend_c, 5, 8320
5, 72105, Pitch_bend_c, 5, 8320
5, 72105, Pitch_bend_c, 5, 8192
5, 72108, Pitch_bend_c, 5, 8192
5, 72110, Pitch_bend_c, 5, 8192
5, 72110, Pitch_bend_c, 5, 8192
5, 72113, Pitch_bend_c, 5, 8192
5, 72114, Pitch_bend_c, 5, 8192
5, 72115, Pitch_bend_c, 5, 8192
5, 72117, Pitch_bend_c, 5, 8192
5, 72118, Pitch_bend_c, 5, 8192
5, 72120, Control_c, 4, 7, 15
5, 72120, Control_c, 5, 7, 15
5, 72120, Pitch_bend_c, 5, 8064
5, 72122, Pitch_bend_c, 5, 8064
5, 72122, Pitch_bend_c, 5, 8192
5, 72124, Pitch_bend_c, 5, 8064
5, 72127, Pitch_bend_c, 5, 8064
5, 72127, Pitch_bend_c, 5, 8192
5, 72129, Pitch_bend_c, 5, 8064
5, 72131, Pitch_bend_c, 5, 8064
5, 72131, Pitch_bend_c, 5, 8192
5, 72134, Pitch_bend_c, 5, 8064
5, 72135, Pitch_bend_c, 5, 8192
5, 72136, Pitch_bend_c, 5, 8064
5, 72138, Pitch_bend_c, 5, 8064
5, 72139, Pitch_bend_c, 5, 8192
5, 72141, Pitch_bend_c, 5, 8064
5, 72143, Pitch_bend_c, 5, 8064
5, 72143, Pitch_bend_c, 5, 8320
5, 72145, Pitch_bend_c, 5, 8064
5, 72148, Pitch_bend_c, 5, 8192
5, 72148, Pitch_bend_c, 5, 8320
5, 72150, Pitch_bend_c, 5, 8192
5, 72152, Pitch_bend_c, 5, 8192
5, 72152, Pitch_bend_c, 5, 8320
5, 72155, Pitch_bend_c, 5, 8320
5, 72156, Pitch_bend_c, 5, 8320
5, 72157, Pitch_bend_c, 5, 8320
5, 72159, Pitch_bend_c, 5, 8448
5, 72160, Pitch_bend_c, 5, 8320
5, 72162, Pitch_bend_c, 5, 8448
5, 72164, Pitch_bend_c, 5, 8448
5, 72165, Pitch_bend_c, 5, 8320
5, 72166, Pitch_bend_c, 5, 8448
5, 72169, Pitch_bend_c, 5, 8448
5, 72169, Pitch_bend_c, 5, 8320
5, 72171, Pitch_bend_c, 5, 8448
5, 72173, Pitch_bend_c, 5, 8448
5, 72173, Pitch_bend_c, 5, 8320
5, 72176, Pitch_bend_c, 5, 8448
5, 72177, Pitch_bend_c, 5, 8320
5, 72178, Pitch_bend_c, 5, 8448
5, 72180, Pitch_bend_c, 5, 8320
5, 72181, Pitch_bend_c, 5, 8320
5, 72183, Pitch_bend_c, 5, 8320
5, 72185, Pitch_bend_c, 5, 8320
5, 72186, Pitch_bend_c, 5, 8320
5, 72188, Pitch_bend_c, 5, 8192
5, 72190, Pitch_bend_c, 5, 8064
5, 72190, Pitch_bend_c, 5, 8320
5, 72192, Pitch_bend_c, 5, 8064
5, 72194, Pitch_bend_c, 5, 8320
5, 72195, Pitch_bend_c, 5, 8064
5, 72197, Pitch_bend_c, 5, 7936
5, 72198, Pitch_bend_c, 5, 8192
5, 72199, Pitch_bend_c, 5, 7936
5, 72202, Pitch_bend_c, 5, 7936
5, 72203, Pitch_bend_c, 5, 8192
5, 72204, Pitch_bend_c, 5, 7936
5, 72206, Pitch_bend_c, 5, 7936
5, 72207, Pitch_bend_c, 5, 8192
5, 72209, Pitch_bend_c, 5, 7936
5, 72211, Pitch_bend_c, 5, 7936
5, 72211, Pitch_bend_c, 5, 8064
5, 72213, Pitch_bend_c, 5, 7936
5, 72215, Pitch_bend_c, 5, 8064
5, 72216, Pitch_bend_c, 5, 7936
5, 72218, Pitch_bend_c, 5, 8064
5, 72219, Pitch_bend_c, 5, 8064
5, 72220, Pitch_bend_c, 5, 8064
5, 72223, Pitch_bend_c, 5, 8192
5, 72224, Pitch_bend_c, 5, 8064
5, 72225, Pitch_bend_c, 5, 8192
5, 72227, Pitch_bend_c, 5, 8320
5, 72228, Pitch_bend_c, 5, 8064
5, 72230, Pitch_bend_c, 5, 8448
5, 72232, Pitch_bend_c, 5, 8448
5, 72232, Pitch_bend_c, 5, 8064
5, 72234, Pitch_bend_c, 5, 8576
5, 72236, Pitch_bend_c, 5, 8064
5, 72237, Pitch_bend_c, 5, 8704
5, 72239, Pitch_bend_c, 5, 8704
5, 72240, Control_c, 4, 7, 22
5, 72240, Control_c, 5, 7, 22
5, 72240, Pitch_bend_c, 5, 8064
5, 72241, Pitch_bend_c, 5, 8704
5, 72244, Pitch_bend_c, 5, 8704
5, 72245, Pitch_bend_c, 5, 8064
5, 72246, Pitch_bend_c, 5, 8704
5, 72248, Pitch_bend_c, 5, 8704
5, 72249, Pitch_bend_c, 5, 8064
5, 72251, Pitch_bend_c, 5, 8704
5, 72253, Pitch_bend_c, 5, 8576
5, 72253, Pitch_bend_c, 5, 8064
5, 72255, Pitch_bend_c, 5, 8576
5, 72257, Pitch_bend_c, 5, 8064
5, 72258, Pitch_bend_c, 5, 8448
5, 72260, Pitch_bend_c, 5, 8320
5, 72262, Pitch_bend_c, 5, 8064
5, 72263, Pitch_bend_c, 5, 8192
5, 72265, Pitch_bend_c, 5, 8064
5, 72266, Pitch_bend_c, 5, 8192
5, 72267, Pitch_bend_c, 5, 7936
5, 72270, Pitch_bend_c, 5, 7808
5, 72270, Pitch_bend_c, 5, 8192
5, 72272, Pitch_bend_c, 5, 7808
5, 72274, Pitch_bend_c, 5, 7680
5, 72274, Pitch_bend_c, 5, 8192
5, 72277, Pitch_bend_c, 5, 7680
5, 72278, Pitch_bend_c, 5, 8320
5, 72279, Pitch_bend_c, 5, 7680
5, 72281, Pitch_bend_c, 5, 7680
5, 72283, Pitch_bend_c, 5, 8320
5, 72284, Pitch_bend_c, 5, 7680
5, 72286, Pitch_bend_c, 5, 7680
5, 72287, Pitch_bend_c, 5, 8320
5, 72288, Pitch_bend_c, 5, 7680
5, 72291, Pitch_bend_c, 5, 7808
5, 72291, Pitch_bend_c, 5, 8448
5, 72293, Pitch_bend_c, 5, 7936
5, 72295, Pitch_bend_c, 5, 7936
5, 72295, Pitch_bend_c, 5, 8448
5, 72298, Pitch_bend_c, 5, 8064
5, 72300, Pitch_bend_c, 5, 8192
5, 72300, Pitch_bend_c, 5, 8448
5, 72302, Pitch_bend_c, 5, 8320
5, 72304, Pitch_bend_c, 5, 8448
5, 72305, Pitch_bend_c, 5, 8448
5, 72307, Pitch_bend_c, 5, 8576
5, 72308, Pitch_bend_c, 5, 8448
5, 72309, Pitch_bend_c, 5, 8576
5, 72312, Pitch_bend_c, 5, 8704
5, 72312, Pitch_bend_c, 5, 8448
5, 72314, Pitch_bend_c, 5, 8704
5, 72316, Pitch_bend_c, 5, 8832
5, 72316, Pitch_bend_c, 5, 8448
5, 72319, Pitch_bend_c, 5, 8832
5, 72321, Pitch_bend_c, 5, 8832
5, 72321, Pitch_bend_c, 5, 8320
5, 72323, Pitch_bend_c, 5, 8704
5, 72325, Pitch_bend_c, 5, 8320
5, 72326, Pitch_bend_c, 5, 8704
5, 72328, Pitch_bend_c, 5, 8576
5, 72329, Pitch_bend_c, 5, 8320
5, 72330, Pitch_bend_c, 5, 8576
5, 72333, Pitch_bend_c, 5, 8448
5, 72333, Pitch_bend_c, 5, 8192
5, 72335, Pitch_bend_c, 5, 8320
5, 72338, Pitch_bend_c, 5, 8192
5, 72338, Pitch_bend_c, 5, 8192
5, 72340, Pitch_bend_c, 5, 8064
5, 72342, Pitch_bend_c, 5, 7936
5, 72342, Pitch_bend_c, 5, 8192
5, 72345, Pitch_bend_c, 5, 7808
5, 72346, Pitch_bend_c, 5, 8064
5, 72347, Pitch_bend_c, 5, 7808
5, 72349, Pitch_bend_c, 5, 7680
5, 72350, Pitch_bend_c, 5, 8064
5, 72352, Pitch_bend_c, 5, 7680
5, 72354, Pitch_bend_c, 5, 7552
5, 72354, Pitch_bend_c, 5, 8064
5, 72356, Pitch_bend_c, 5, 7552
5, 72359, Pitch_bend_c, 5, 7552
5, 72359, Pitch_bend_c, 5, 7936
5, 72360, Control_c, 4, 7, 30
5, 72360, Control_c, 5, 7, 30
5, 72361, Pitch_bend_c, 5, 7680
5, 72363, Pitch_bend_c, 5, 7680
5, 72363, Pitch_bend_c, 5, 7936
5, 72366, Pitch_bend_c, 5, 7808
5, 72367, Pitch_bend_c, 5, 7936
5, 72368, Pitch_bend_c, 5, 7808
5, 72370, Pitch_bend_c, 5, 7936
5, 72371, Pitch_bend_c, 5, 7936
5, 72373, Pitch_bend_c, 5, 8064
5, 72375, Pitch_bend_c, 5, 8192
5, 72375, Pitch_bend_c, 5, 7936
5, 72377, Pitch_bend_c, 5, 8320
5, 72380, Pitch_bend_c, 5, 8448
5, 72380, Pitch_bend_c, 5, 7936
5, 72382, Pitch_bend_c, 5, 8448
5, 72384, Pitch_bend_c, 5, 8576
5, 72384, Pitch_bend_c, 5, 7936
5, 72387, Pitch_bend_c, 5, 8704
5, 72388, Pitch_bend_c, 5, 8064
5, 72389, Pitch_bend_c, 5, 8704
5, 72391, Pitch_bend_c, 5, 8704
5, 72392, Pitch_bend_c, 5, 8064
5, 72394, Pitch_bend_c, 5, 8704
5, 72396, Pitch_bend_c, 5, 8704
5, 72397, Pitch_bend_c, 5, 8064
5, 72398, Pitch_bend_c, 5, 8704
5, 72401, Pitch_bend_c, 5, 8576
5, 72401, Pitch_bend_c, 5, 8192
5, 72403, Pitch_bend_c, 5, 8576
5, 72405, Pitch_bend_c, 5, 8448
5, 72405, Pitch_bend_c, 5, 8192
5, 72408, Pitch_bend_c, 5, 8320
5, 72409, Pitch_bend_c, 5, 8192
5, 72410, Pitch_bend_c, 5, 8320
5, 72413, Pitch_bend_c, 5, 8192
5, 72413, Pitch_bend_c, 5, 8320
5, 72415, Pitch_bend_c, 5, 8064
5, 72417, Pitch_bend_c, 5, 8064
5, 72418, Pitch_bend_c, 5, 8320
5, 72420, Pitch_bend_c, 5, 7936
5, 72422, Pitch_bend_c, 5, 7808
5, 72422, Pitch_bend_c, 5, 8320
5, 72424, Pitch_bend_c, 5, 7808
5, 72426, Pitch_bend_c, 5, 8320
5, 72427, Pitch_bend_c, 5, 7680
5, 72429, Pitch_bend_c, 5, 7680
5, 72430, Pitch_bend_c, 5, 8448
5, 72431, Pitch_bend_c, 5, 7680
5, 72434, Pitch_bend_c, 5, 7680
5, 72435, Pitch_bend_c, 5, 8448
5, 72436, Pitch_bend_c, 5, 7680
5, 72438, Pitch_bend_c, 5, 7680
5, 72439, Pitch_bend_c, 5, 8448
5, 72441, Pitch_bend_c, 5, 7808
5, 72443, Pitch_bend_c, 5, 7936
5, 72443, Pitch_bend_c, 5, 8448
5, 72445, Pitch_bend_c, 5, 7936
5, 72447, Pitch_bend_c, 5, 8448
5, 72448, Pitch_bend_c, 5, 8064
5, 72450, Pitch_bend_c, 5, 8192
5, 72451, Pitch_bend_c, 5, 8320
5, 72452, Pitch_bend_c, 5, 8320
5, 72455, Pitch_bend_c, 5, 8448
5, 72456, Pitch_bend_c, 5, 8320
5, 72457, Pitch_bend_c, 5, 8448
5, 72459, Pitch_bend_c, 5, 8576
5, 72460, Pitch_bend_c, 5, 8320
5, 72462, Pitch_bend_c, 5, 8576
5, 72464, Pitch_bend_c, 5, 8704
5, 72464, Pitch_bend_c, 5, 8320
5, 72466, Pitch_bend_c, 5, 8704
5, 72468, Pitch_bend_c, 5, 8192
5, 72469, Pitch_bend_c, 5, 8704
5, 72471, Pitch_bend_c, 5, 8704
5, 72473, Pitch_bend_c, 5, 8704
5, 72473, Pitch_bend_c, 5, 8192
5, 72476, Pitch_bend_c, 5, 8576
5, 72477, Pitch_bend_c, 5, 8192
5, 72478, Pitch_bend_c, 5, 8576
5, 72480, Control_c, 4, 7, 37
5, 72480, Control_c, 5, 7, 37
5, 72480, Pitch_bend_c, 5, 8448
5, 72481, Pitch_bend_c, 5, 8064
5, 72483, Pitch_bend_c, 5, 8320
5, 72485, Pitch_bend_c, 5, 8320
5, 72485, Pitch_bend_c, 5, 8064
5, 72488, Pitch_bend_c, 5, 8192
5, 72489, Pitch_bend_c, 5, 8064
5, 72490, Pitch_bend_c, 5, 8064
5, 72492, Pitch_bend_c, 5, 8064
5, 72494, Pitch_bend_c, 5, 8064
5, 72495, Pitch_bend_c, 5, 7936
5, 72497, Pitch_bend_c, 5, 7808
5, 72498, Pitch_bend_c, 5, 7936
5, 72499, Pitch_bend_c, 5, 7808
5, 72502, Pitch_bend_c, 5, 7680
5, 72502, Pitch_bend_c, 5, 7936
5, 72504, Pitch_bend_c, 5, 7680
5, 72506, Pitch_bend_c, 5, 7680
5, 72506, Pitch_bend_c, 5, 7936
5, 72509, Pitch_bend_c, 5, 7680
5, 72510, Pitch_bend_c, 5, 7936
5, 72511, Pitch_bend_c, 5, 7680
5, 72513, Pitch_bend_c, 5, 7808
5, 72515, Pitch_bend_c, 5, 7936
5, 72516, Pitch_bend_c, 5, 7808
5, 72518, Pitch_bend_c, 5, 7936
5, 72519, Pitch_bend_c, 5, 8064
5, 72520, Pitch_bend_c, 5, 7936
5, 72523, Pitch_bend_c, 5, 8064
5, 72523, Pitch_bend_c, 5, 8064
5, 72525, Pitch_bend_c, 5, 8192
5, 72527, Pitch_bend_c, 5, 8320
5, 72527, Pitch_bend_c, 5, 8064
5, 72530, Pitch_bend_c, 5, 8448
5, 72532, Pitch_bend_c, 5, 8576
5, 72532, Pitch_bend_c, 5, 8064
5, 72534, Pitch_bend_c, 5, 8576
5, 72536, Pitch_bend_c, 5, 8192
5, 72537, Pitch_bend_c, 5, 8704
5, 72539, Pitch_bend_c, 5, 8704
5, 72540, Pitch_bend_c, 5, 8192
5, 72541, Pitch_bend_c, 5, 8832
5, 72544, Pitch_bend_c, 5, 8832
5, 72544, Pitch_bend_c, 5, 8192
5, 72546, Pitch_bend_c, 5, 8832
5, 72548, Pitch_bend_c, 5, 8704
5, 72548, Pitch_bend_c, 5, 8320
5, 72551, Pitch_bend_c, 5, 8704
5, 72553, Pitch_bend_c, 5, 8576
5, 72553, Pitch_bend_c, 5, 8320
5, 72555, Pitch_bend_c, 5, 8576
5, 72557, Pitch_bend_c, 5, 8320
5, 72558, Pitch_bend_c, 5, 8448
5, 72560, Pitch_bend_c, 5, 8320
5, 72561, Pitch_bend_c, 5, 8320
5, 72563, Pitch_bend_c, 5, 8192
5, 72565, Pitch_bend_c, 5, 8064
5, 72565, Pitch_bend_c, 5, 8320
5, 72567, Pitch_bend_c, 5, 7936
5, 72570, Pitch_bend_c, 5, 7808
5, 72570, Pitch_bend_c, 5, 8320
5, 72572, Pitch_bend_c, 5, 7808
5, 72574, Pitch_bend_c, 5, 7680
5, 72574, Pitch_bend_c, 5, 8320
5, 72577, Pitch_bend_c, 5, 7680
5, 72578, Pitch_bend_c, 5, 8320
5, 72579, Pitch_bend_c, 5, 7552
5, 72581, Pitch_bend_c, 5, 7552
5, 72582, Pitch_bend_c, 5, 8320
5, 72584, Pitch_bend_c, 5, 7552
5, 72586, Pitch_bend_c, 5, 7680
5, 72586, Pitch_bend_c, 5, 8320
5, 72588, Pitch_bend_c, 5, 7680
5, 72591, Pitch_bend_c, 5, 7808
5, 72591, Pitch_bend_c, 5, 8320
5, 72593, Pitch_bend_c, 5, 7808
5, 72595, Pitch_bend_c, 5, 7936
5, 72595, Pitch_bend_c, 5, 8320
5, 72598, Pitch_bend_c, 5, 8064
5, 72599, Pitch_bend_c, 5, 8320
5, 72600, Control_c, 4, 7, 44
5, 72600, Control_c, 5, 7, 44
5, 72600, Pitch_bend_c, 5, 8192
5, 72602, Pitch_bend_c, 5, 8320
5, 72603, Pitch_bend_c, 5, 8192
5, 72605, Pitch_bend_c, 5, 8448
5, 72607, Pitch_bend_c, 5, 8448
5, 72608, Pitch_bend_c, 5, 8192
5, 72609, Pitch_bend_c, 5, 8576
5, 72612, Pitch_bend_c, 5, 8576
5, 72612, Pitch_bend_c, 5, 8192
5, 72614, Pitch_bend_c, 5, 8704
5, 72616, Pitch_bend_c, 5, 8704
5, 72616, Pitch_bend_c, 5, 8064
5, 72619, Pitch_bend_c, 5, 8704
5, 72620, Pitch_bend_c, 5, 8064
5, 72621, Pitch_bend_c, 5, 8704
5, 72623, Pitch_bend_c, 5, 8704
5, 72624, Pitch_bend_c, 5, 8064
5, 72626, Pitch_bend_c, 5, 8576
5, 72628, Pitch_bend_c, 5, 8576
5, 72629, Pitch_bend_c, 5, 8064
5, 72630, Pitch_bend_c, 5, 8448
5, 72633, Pitch_bend_c, 5, 8320
5, 72633, Pitch_bend_c, 5, 8064
5, 72635, Pitch_bend_c, 5, 8320
5, 72637, Pitch_bend_c, 5, 8064
5, 72638, Pitch_bend_c, 5, 8192
5, 72640, Pitch_bend_c, 5, 8064
5, 72641, Pitch_bend_c, 5, 8064
5, 72642, Pitch_bend_c, 5, 8064
5, 72645, Pitch_bend_c, 5, 7936
5, 72645, Pitch_bend_c, 5, 8064
5, 72647, Pitch_bend_c, 5, 7808
5, 72649, Pitch_bend_c, 5, 7808
5, 72650, Pitch_bend_c, 5, 8064
5, 72652, Pitch_bend_c, 5, 7680
5, 72654, Pitch_bend_c, 5, 7680
5, 72654, Pitch_bend_c, 5, 8064
5, 72656, Pitch_bend_c, 5, 7680
5, 72658, Pitch_bend_c, 5, 8064
5, 72659, Pitch_bend_c, 5, 7680
5, 72661, Pitch_bend_c, 5, 7680
5, 72662, Pitch_bend_c, 5, 8064
5, 72663, Pitch_bend_c, 5, 7808
5, 72666, Pitch_bend_c, 5, 7808
5, 72667, Pitch_bend_c, 5, 8064
5, 72668, Pitch_bend_c, 5, 7936
5, 72670, Pitch_bend_c, 5, 7936
5, 72671, Pitch_bend_c, 5, 8192
5, 72673, Pitch_bend_c, 5, 8064
5, 72675, Pitch_bend_c, 5, 8192
5, 72675, Pitch_bend_c, 5, 8192
5, 72677, Pitch_bend_c, 5, 8320
5, 72679, Pitch_bend_c, 5, 8192
5, 72680, Pitch_bend_c, 5, 8448
5, 72682, Pitch_bend_c, 5, 8448
5, 72683, Pitch_bend_c, 5, 8320
5, 72684, Pitch_bend_c, 5, 8576
5, 72687, Pitch_bend_c, 5, 8704
5, 72688, Pitch_bend_c, 5, 8320
5, 72689, Pitch_bend_c, 5, 8704
5, 72691, Pitch_bend_c, 5, 8704
5, 72692, Pitch_bend_c, 5, 8320
5, 72694, Pitch_bend_c, 5, 8704
5, 72696, Pitch_bend_c, 5, 8704
5, 72696, Pitch_bend_c, 5, 8320
5, 72698, Pitch_bend_c, 5, 8704
5, 72700, Pitch_bend_c, 5, 8320
5, 72701, Pitch_bend_c, 5, 8704
5, 72703, Pitch_bend_c, 5, 8576
5, 72705, Pitch_bend_c, 5, 8576
5, 72705, Pitch_bend_c, 5, 8320
5, 72708, Pitch_bend_c, 5, 8448
5, 72709, Pitch_bend_c, 5, 8320
5, 72710, Pitch_bend_c, 5, 8320
5, 72713, Pitch_bend_c, 5, 8192
5, 72713, Pitch_bend_c, 5, 8320
5, 72715, Pitch_bend_c, 5, 8064
5, 72717, Pitch_bend_c, 5, 7936
5, 72717, Pitch_bend_c, 5, 8320
5, 72720, Control_c, 4, 7, 52
5, 72720, Control_c, 5, 7, 52
5, 72720, Pitch_bend_c, 5, 7808
5, 72721, Pitch_bend_c, 5, 8320
5, 72722, Pitch_bend_c, 5, 7808
5, 72724, Pitch_bend_c, 5, 7680
5, 72726, Pitch_bend_c, 5, 8320
5, 72727, Pitch_bend_c, 5, 7680
5, 72729, Pitch_bend_c, 5, 7680
5, 72730, Pitch_bend_c, 5, 8320
5, 72731, Pitch_bend_c, 5, 7680
5, 72734, Pitch_bend_c, 5, 7680
5, 72734, Pitch_bend_c, 5, 8320
5, 72736, Pitch_bend_c, 5, 7680
5, 72738, Pitch_bend_c, 5, 7680
5, 72738, Pitch_bend_c, 5, 8192
5, 72741, Pitch_bend_c, 5, 7808
5, 72743, Pitch_bend_c, 5, 7936
5, 72743, Pitch_bend_c, 5, 8192
5, 72745, Pitch_bend_c, 5, 7936
5, 72747, Pitch_bend_c, 5, 8192
5, 72748, Pitch_bend_c, 5, 8064
5, 72750, Pitch_bend_c, 5, 8192
5, 72751, Pitch_bend_c, 5, 8064
5, 72752, Pitch_bend_c, 5, 8320
5, 72755, Pitch_bend_c, 5, 8448
5, 72755, Pitch_bend_c, 5, 8064
5, 72757, Pitch_bend_c, 5, 8448
5, 72759, Pitch_bend_c, 5, 8576
5, 72759, Pitch_bend_c, 5, 8064
5, 72762, Pitch_bend_c, 5, 8704
5, 72764, Pitch_bend_c, 5, 8704
5, 72764, Pitch_bend_c, 5, 8064
5, 72766, Pitch_bend_c, 5, 8704
5, 72768, Pitch_bend_c, 5, 8064
5, 72769, Pitch_bend_c, 5, 8704
5, 72771, Pitch_bend_c, 5, 8704
5, 72772, Pitch_bend_c, 5, 8064
5, 72773, Pitch_bend_c, 5, 8704
5, 72776, Pitch_bend_c, 5, 8704
5, 72776, Pitch_bend_c, 5, 8064
5, 72778, Pitch_bend_c, 5, 8576
5, 72780, Pitch_bend_c, 5, 8576
5, 72780, Pitch_bend_c, 5, 8064
5, 72783, Pitch_bend_c, 5, 8448
5, 72785, Pitch_bend_c, 5, 8320
5, 72785, Pitch_bend_c, 5, 8064
5, 72788, Pitch_bend_c, 5, 8192
5, 72789, Pitch_bend_c, 5, 8064
5, 72790, Pitch_bend_c, 5, 8064
5, 72792, Pitch_bend_c, 5, 7936
5, 72793, Pitch_bend_c, 5, 8064
5, 72795, Pitch_bend_c, 5, 7808
5, 72797, Pitch_bend_c, 5, 7808
5, 72797, Pitch_bend_c, 5, 8064
5, 72799, Pitch_bend_c, 5, 7680
5, 72802, Pitch_bend_c, 5, 7680
5, 72802, Pitch_bend_c, 5, 8064
5, 72804, Pitch_bend_c, 5, 7680
5, 72806, Pitch_bend_c, 5, 7680
5, 72806, Pitch_bend_c, 5, 8192
5, 72809, Pitch_bend_c, 5, 7680
5, 72810, Pitch_bend_c, 5, 8192
5, 72811, Pitch_bend_c, 5, 7680
5, 72813, Pitch_bend_c, 5, 7680
5, 72814, Pitch_bend_c, 5, 8192
5, 72816, Pitch_bend_c, 5, 7808
5, 72818, Pitch_bend_c, 5, 7936
5, 72818, Pitch_bend_c, 5, 8320
5, 72820, Pitch_bend_c, 5, 7936
5, 72823, Pitch_bend_c, 5, 8064
5, 72823, Pitch_bend_c, 5, 8320
5, 72825, Pitch_bend_c, 5, 8192
5, 72827, Pitch_bend_c, 5, 8320
5, 72827, Pitch_bend_c, 5, 8320
5, 72830, Pitch_bend_c, 5, 8448
5, 72831, Pitch_bend_c, 5, 8320
5, 72832, Pitch_bend_c, 5, 8448
5, 72834, Pitch_bend_c, 5, 8576
5, 72835, Pitch_bend_c, 5, 8320
5, 72837, Pitch_bend_c, 5, 8704
5, 72839, Pitch_bend_c, 5, 8704
5, 72840, Control_c, 4, 7, 59
5, 72840, Control_c, 5, 7, 59
5, 72840, Pitch_bend_c, 5, 8448
5, 72841, Pitch_bend_c, 5, 8704
5, 72844, Pitch_bend_c, 5, 8704
5, 72844, Pitch_bend_c, 5, 8448
5, 72846, Pitch_bend_c, 5, 8704
5, 72848, Pitch_bend_c, 5, 8704
5, 72848, Pitch_bend_c, 5, 8448
5, 72851, Pitch_bend_c, 5, 8704
5, 72852, Pitch_bend_c, 5, 8320
5, 72853, Pitch_bend_c, 5, 8576
5, 72855, Pitch_bend_c, 5, 8576
5, 72856, Pitch_bend_c, 5, 8320
5, 72858, Pitch_bend_c, 5, 8448
5, 72860, Pitch_bend_c, 5, 8320
5, 72861, Pitch_bend_c, 5, 8320
5, 72863, Pitch_bend_c, 5, 8192
5, 72865, Pitch_bend_c, 5, 8064
5, 72865, Pitch_bend_c, 5, 8320
5, 72867, Pitch_bend_c, 5, 7936
5, 72869, Pitch_bend_c, 5, 8320
5, 72870, Pitch_bend_c, 5, 7808
5, 72872, Pitch_bend_c, 5, 7808
5, 72873, Pitch_bend_c, 5, 8192
5, 72874, Pitch_bend_c, 5, 7680
5, 72877, Pitch_bend_c, 5, 7680
5, 72878, Pitch_bend_c, 5, 8192
5, 72879, Pitch_bend_c, 5, 7680
5, 72881, Pitch_bend_c, 5, 7680
5, 72882, Pitch_bend_c, 5, 8192
5, 72884, Pitch_bend_c, 5, 7680
5, 72886, Pitch_bend_c, 5, 7680
5, 72886, Pitch_bend_c, 5, 8064
5, 72888, Pitch_bend_c, 5, 7680
5, 72890, Pitch_bend_c, 5, 8064
5, 72891, Pitch_bend_c, 5, 7808
5, 72893, Pitch_bend_c, 5, 7936
5, 72894, Pitch_bend_c, 5, 8064
5, 72895, Pitch_bend_c, 5, 7936
5, 72898, Pitch_bend_c, 5, 8064
5, 72899, Pitch_bend_c, 5, 8064
5, 72900, Pitch_bend_c, 5, 8192
5, 72902, Pitch_bend_c, 5, 8320
5, 72903, Pitch_bend_c, 5, 8064
5, 72905, Pitch_bend_c, 5, 8448
5, 72907, Pitch_bend_c, 5, 8448
5, 72907, Pitch_bend_c, 5, 7936
5, 72909, Pitch_bend_c, 5, 8576
5, 72911, Pitch_bend_c, 5, 7936
5, 72912, Pitch_bend_c, 5, 8704
5, 72914, Pitch_bend_c, 5, 8704
5, 72915, Pitch_bend_c, 5, 7936
5, 72916, Pitch_bend_c, 5, 8704
5, 72919, Pitch_bend_c, 5, 8704
5, 72920, Pitch_bend_c, 5, 8064
5, 72921, Pitch_bend_c, 5, 8704
5, 72923, Pitch_bend_c, 5, 8704
5, 72924, Pitch_bend_c, 5, 8064
5, 72926, Pitch_bend_c, 5, 8704
5, 72928, Pitch_bend_c, 5, 8576
5, 72928, Pitch_bend_c, 5, 8064
5, 72930, Pitch_bend_c, 5, 8576
5, 72932, Pitch_bend_c, 5, 8064
5, 72933, Pitch_bend_c, 5, 8448
5, 72935, Pitch_bend_c, 5, 8320
5, 72937, Pitch_bend_c, 5, 8064
5, 72938, Pitch_bend_c, 5, 8192
5, 72940, Pitch_bend_c, 5, 8064
5, 72941, Pitch_bend_c, 5, 8192
5, 72942, Pitch_bend_c, 5, 7936
5, 72945, Pitch_bend_c, 5, 7808
5, 72945, Pitch_bend_c, 5, 8192
5, 72947, Pitch_bend_c, 5, 7808
5, 72949, Pitch_bend_c, 5, 7680
5, 72949, Pitch_bend_c, 5, 8192
5, 72952, Pitch_bend_c, 5, 7680
5, 72953, Pitch_bend_c, 5, 8320
5, 72954, Pitch_bend_c, 5, 7680
5, 72956, Pitch_bend_c, 5, 7680
5, 72958, Pitch_bend_c, 5, 8320
5, 72959, Pitch_bend_c, 5, 7680
5, 72960, Control_c, 4, 7, 66
5, 72960, Control_c, 5, 7, 66
5, 72961, Pitch_bend_c, 5, 7680
5, 72962, Pitch_bend_c, 5, 8320
5, 72963, Pitch_bend_c, 5, 7680
5, 72966, Pitch_bend_c, 5, 7808
5, 72966, Pitch_bend_c, 5, 8320
5, 72968, Pitch_bend_c, 5, 7936
5, 72970, Pitch_bend_c, 5, 7936
5, 72970, Pitch_bend_c, 5, 8448
5, 72973, Pitch_bend_c, 5, 8064
5, 72975, Pitch_bend_c, 5, 8192
5, 72975, Pitch_bend_c, 5, 8448
5, 72977, Pitch_bend_c, 5, 8320
5, 72979, Pitch_bend_c, 5, 8448
5, 72980, Pitch_bend_c, 5, 8448
5, 72982, Pitch_bend_c, 5, 8448
5, 72983, Pitch_bend_c, 5, 8448
5, 72984, Pitch_bend_c, 5, 8576
5, 72987, Pitch_bend_c, 5, 8576
5, 72987, Pitch_bend_c, 5, 8448
5, 72989, Pitch_bend_c, 5, 8704
5, 72991, Pitch_bend_c, 5, 8704
5, 72991, Pitch_bend_c, 5, 8320
5, 72994, Pitch_bend_c, 5, 8704
5, 72996, Pitch_bend_c, 5, 8704
5, 72996, Pitch_bend_c, 5, 8320
5, 72998, Pitch_bend_c, 5, 8704
5, 73000, Pitch_bend_c, 5, 8320
5, 73001, Pitch_bend_c, 5, 8576
5, 73003, Pitch_bend_c, 5, 8576
5, 73004, Pitch_bend_c, 5, 8320
5, 73005, Pitch_bend_c, 5, 8448
5, 73008, Pitch_bend_c, 5, 8320
5, 73008, Pitch_bend_c, 5, 8192
5, 73010, Pitch_bend_c, 5, 8320
5, 73013, Pitch_bend_c, 5, 8192
5, 73013, Pitch_bend_c, 5, 8192
5, 73015, Pitch_bend_c, 5, 8064
5, 73017, Pitch_bend_c, 5, 8064
5, 73017, Pitch_bend_c, 5, 8192
5, 73020, Pitch_bend_c, 5, 7936
5, 73021, Pitch_bend_c, 5, 8064
5, 73022, Pitch_bend_c, 5, 7808
5, 73024, Pitch_bend_c, 5, 7808
5, 73025, Pitch_bend_c, 5, 8064
5, 73027, Pitch_bend_c, 5, 7680
5, 73029, Pitch_bend_c, 5, 7680
5, 73029, Pitch_bend_c, 5, 8064
5, 73031, Pitch_bend_c, 5, 7680
5, 73034, Pitch_bend_c, 5, 7680
5, 73034, Pitch_bend_c, 5, 8064
5, 73036, Pitch_bend_c, 5, 7680
5, 73038, Pitch_bend_c, 5, 7808
5, 73038, Pitch_bend_c, 5, 7936
5, 73041, Pitch_bend_c, 5, 7808
5, 73042, Pitch_bend_c, 5, 7936
5, 73043, Pitch_bend_c, 5, 7936
5, 73045, Pitch_bend_c, 5, 7936
5, 73046, Pitch_bend_c, 5, 7936
5, 73048, Pitch_bend_c, 5, 8064
5, 73050, Pitch_bend_c, 5, 8192
5, 73050, Pitch_bend_c, 5, 7936
5, 73052, Pitch_bend_c, 5, 8320
5, 73055, Pitch_bend_c, 5, 8448
5, 73055, Pitch_bend_c, 5, 7936
5, 73057, Pitch_bend_c, 5, 8448
5, 73059, Pitch_bend_c, 5, 8576
5, 73059, Pitch_bend_c, 5, 8064
5, 73062, Pitch_bend_c, 5, 8704
5, 73063, Pitch_bend_c, 5, 8064
5, 73064, Pitch_bend_c, 5, 8704
5, 73066, Pitch_bend_c, 5, 8704
5, 73067, Pitch_bend_c, 5, 8064
5, 73069, Pitch_bend_c, 5, 8704
5, 73071, Pitch_bend_c, 5, 8704
5, 73072, Pitch_bend_c, 5, 8064
5, 73073, Pitch_bend_c, 5, 8704
5, 73076, Pitch_bend_c, 5, 8704
5, 73076, Pitch_bend_c, 5, 8192
5, 73078, Pitch_bend_c, 5, 8576
5, 73080, Control_c, 4, 7, 74
5, 73080, Control_c, 5, 7, 74
5, 73080, Pitch_bend_c, 5, 8576
5, 73080, Pitch_bend_c, 5, 8192
5, 73083, Pitch_bend_c, 5, 8448
5, 73084, Pitch_bend_c, 5, 8192
5, 73085, Pitch_bend_c, 5, 8320
5, 73088, Pitch_bend_c, 5, 8192
5, 73088, Pitch_bend_c, 5, 8320
5, 73090, Pitch_bend_c, 5, 8064
5, 73092, Pitch_bend_c, 5, 7936
5, 73093, Pitch_bend_c, 5, 8320
5, 73095, Pitch_bend_c, 5, 7808
5, 73097, Pitch_bend_c, 5, 7808
5, 73097, Pitch_bend_c, 5, 8320
5, 73099, Pitch_bend_c, 5, 7680
5, 73101, Pitch_bend_c, 5, 8320
5, 73102, Pitch_bend_c, 5, 7680
5, 73104, Pitch_bend_c, 5, 7680
5, 73105, Pitch_bend_c, 5, 8448
5, 73106, Pitch_bend_c, 5, 7680
5, 73109, Pitch_bend_c, 5, 7680
5, 73110, Pitch_bend_c, 5, 8448
5, 73111, Pitch_bend_c, 5, 7680
5, 73113, Pitch_bend_c, 5, 7680
5, 73114, Pitch_bend_c, 5, 8448
5, 73116, Pitch_bend_c, 5, 7808
5, 73118, Pitch_bend_c, 5, 7936
5, 73118, Pitch_bend_c, 5, 8448
5, 73120, Pitch_bend_c, 5, 7936
5, 73122, Pitch_bend_c, 5, 8448
5, 73123, Pitch_bend_c, 5, 8064
5, 73125, Pitch_bend_c, 5, 8192
5, 73126, Pitch_bend_c, 5, 8320
5, 73127, Pitch_bend_c, 5, 8320
5, 73130, Pitch_bend_c, 5, 8448
5, 73131, Pitch_bend_c, 5, 8320
5, 73132, Pitch_bend_c, 5, 8448
5, 73134, Pitch_bend_c, 5, 8576
5, 73135, Pitch_bend_c, 5, 8320
5, 73137, Pitch_bend_c, 5, 8704
5, 73139, Pitch_bend_c, 5, 8704
5, 73139, Pitch_bend_c, 5, 8320
5, 73141, Pitch_bend_c, 5, 8704
5, 73143, Pitch_bend_c, 5, 8192
5, 73144, Pitch_bend_c, 5, 8704
5, 73146, Pitch_bend_c, 5, 8704
5, 73148, Pitch_bend_c, 5, 8704
5, 73148, Pitch_bend_c, 5, 8192
5, 73151, Pitch_bend_c, 5, 8704
5, 73152, Pitch_bend_c, 5, 8192
5, 73153, Pitch_bend_c, 5, 8576
5, 73155, Pitch_bend_c, 5, 8576
5, 73156, Pitch_bend_c, 5, 8064
5, 73158, Pitch_bend_c, 5, 8448
5, 73160, Pitch_bend_c, 5, 8320
5, 73160, Pitch_bend_c, 5, 8064
5, 73163, Pitch_bend_c, 5, 8192
5, 73164, Pitch_bend_c, 5, 8064
5, 73165, Pitch_bend_c, 5, 8064
5, 73167, Pitch_bend_c, 5, 7936
5, 73169, Pitch_bend_c, 5, 8064
5, 73170, Pitch_bend_c, 5, 7808
5, 73172, Pitch_bend_c, 5, 7808
5, 73173, Pitch_bend_c, 5, 7936
5, 73174, Pitch_bend_c, 5, 7680
5, 73177, Pitch_bend_c, 5, 7680
5, 73177, Pitch_bend_c, 5, 7936
5, 73179, Pitch_bend_c, 5, 7680
5, 73181, Pitch_bend_c, 5, 7680
5, 73181, Pitch_bend_c, 5, 7936
5, 73184, Pitch_bend_c, 5, 7680
5, 73185, Pitch_bend_c, 5, 7936
5, 73186, Pitch_bend_c, 5, 7680
5, 73188, Pitch_bend_c, 5, 7680
5, 73190, Pitch_bend_c, 5, 7936
5, 73191, Pitch_bend_c, 5, 7808
5, 73193, Pitch_bend_c, 5, 7936
5, 73194, Pitch_bend_c, 5, 8064
5, 73195, Pitch_bend_c, 5, 7936
5, 73198, Pitch_bend_c, 5, 8064
5, 73198, Pitch_bend_c, 5, 8064
5, 73200, Control_c, 4, 7, 81
5, 73200, Control_c, 5, 7, 81
5, 73200, Pitch_bend_c, 5, 8192
5, 73202, Pitch_bend_c, 5, 8320
5, 73202, Pitch_bend_c, 5, 8064
5, 73205, Pitch_bend_c, 5, 8448
5, 73207, Pitch_bend_c, 5, 8448
5, 73207, Pitch_bend_c, 5, 8064
5, 73209, Pitch_bend_c, 5, 8576
5, 73211, Pitch_bend_c, 5, 8192
5, 73212, Pitch_bend_c, 5, 8576
5, 73214, Pitch_bend_c, 5, 8704
5, 73215, Pitch_bend_c, 5, 8192
5, 73216, Pitch_bend_c, 5, 8704
5, 73219, Pitch_bend_c, 5, 8704
5, 73219, Pitch_bend_c, 5, 8192
5, 73221, Pitch_bend_c, 5, 8704
5, 73223, Pitch_bend_c, 5, 8704
5, 73223, Pitch_bend_c, 5, 8320
5, 73226, Pitch_bend_c, 5, 8576
5, 73228, Pitch_bend_c, 5, 8576
5, 73228, Pitch_bend_c, 5, 8320
5, 73230, Pitch_bend_c, 5, 8448
5, 73232, Pitch_bend_c, 5, 8320
5, 73233, Pitch_bend_c, 5, 8320
5, 73235, Pitch_bend_c, 5, 8320
5, 73236, Pitch_bend_c, 5, 8448
5, 73238, Pitch_bend_c, 5, 8192
5, 73240, Pitch_bend_c, 5, 8064
5, 73240, Pitch_bend_c, 5, 8448
5, 73242, Pitch_bend_c, 5, 8064
5, 73245, Pitch_bend_c, 5, 7936
5, 73245, Pitch_bend_c, 5, 8448
5, 73247, Pitch_bend_c, 5, 7808
5, 73249, Pitch_bend_c, 5, 7808
5, 73249, Pitch_bend_c, 5, 8448
5, 73252, Pitch_bend_c, 5, 7680
5, 73253, Pitch_bend_c, 5, 8448
5, 73254, Pitch_bend_c, 5, 7680
5, 73256, Pitch_bend_c, 5, 7680
5, 73257, Pitch_bend_c, 5, 8448
5, 73259, Pitch_bend_c, 5, 7680
5, 73261, Pitch_bend_c, 5, 7680
5, 73261, Pitch_bend_c, 5, 8448
5, 73263, Pitch_bend_c, 5, 7808
5, 73266, Pitch_bend_c, 5, 7808
5, 73266, Pitch_bend_c, 5, 8320
5, 73268, Pitch_bend_c, 5, 7936
5, 73270, Pitch_bend_c, 5, 7936
5, 73270, Pitch_bend_c, 5, 8320
5, 73273, Pitch_bend_c, 5, 8064
5, 73274, Pitch_bend_c, 5, 8320
5, 73275, Pitch_bend_c, 5, 8192
5, 73277, Pitch_bend_c, 5, 8320
5, 73278, Pitch_bend_c, 5, 8192
5, 73280, Pitch_bend_c, 5, 8448
5, 73282, Pitch_bend_c, 5, 8448
5, 73283, Pitch_bend_c, 5, 8192
5, 73284, Pitch_bend_c, 5, 8576
5, 73287, Pitch_bend_c, 5, 8704
5, 73287, Pitch_bend_c, 5, 8192
5, 73289, Pitch_bend_c, 5, 8704
5, 73291, Pitch_bend_c, 5, 8704
5, 73291, Pitch_bend_c, 5, 8064
5, 73294, Pitch_bend_c, 5, 8704
5, 73295, Pitch_bend_c, 5, 8064
5, 73296, Pitch_bend_c, 5, 8704
5, 73298, Pitch_bend_c, 5, 8704
5, 73299, Pitch_bend_c, 5, 8064
5, 73301, Pitch_bend_c, 5, 8704
5, 73303, Pitch_bend_c, 5, 8576
5, 73304, Pitch_bend_c, 5, 7936
5, 73305, Pitch_bend_c, 5, 8576
5, 73308, Pitch_bend_c, 5, 8448
5, 73308, Pitch_bend_c, 5, 7936
5, 73310, Pitch_bend_c, 5, 8320
5, 73312, Pitch_bend_c, 5, 7936
5, 73313, Pitch_bend_c, 5, 8192
5, 73315, Pitch_bend_c, 5, 8064
5, 73316, Pitch_bend_c, 5, 7936
5, 73317, Pitch_bend_c, 5, 7936
5, 73320, Control_c, 4, 7, 89
5, 73320, Control_c, 5, 7, 89
5, 73320, Pitch_bend_c, 5, 7808
5, 73320, Pitch_bend_c, 5, 7936
5, 73322, Pitch_bend_c, 5, 7808
5, 73324, Pitch_bend_c, 5, 7680
5, 73325, Pitch_bend_c, 5, 7936
5, 73327, Pitch_bend_c, 5, 7680
5, 73329, Pitch_bend_c, 5, 7680
5, 73329, Pitch_bend_c, 5, 7936
5, 73331, Pitch_bend_c, 5, 7680
5, 73333, Pitch_bend_c, 5, 8064
5, 73334, Pitch_bend_c, 5, 7680
5, 73336, Pitch_bend_c, 5, 7680
5, 73337, Pitch_bend_c, 5, 8064
5, 73338, Pitch_bend_c, 5, 7680
5, 73341, Pitch_bend_c, 5, 7808
5, 73342, Pitch_bend_c, 5, 8064
5, 73343, Pitch_bend_c, 5, 7936
5, 73345, Pitch_bend_c, 5, 7936
5, 73346, Pitch_bend_c, 5, 8192
5, 73348, Pitch_bend_c, 5, 8064
5, 73350, Pitch_bend_c, 5, 8192
5, 73350, Pitch_bend_c, 5, 8192
5, 73352, Pitch_bend_c, 5, 8320
5, 73354, Pitch_bend_c, 5, 8192
5, 73355, Pitch_bend_c, 5, 8448
5, 73357, Pitch_bend_c, 5, 8448
5, 73358, Pitch_bend_c, 5, 8320
5, 73359, Pitch_bend_c, 5, 8576
5, 73362, Pitch_bend_c, 5, 8704
5, 73363, Pitch_bend_c, 5, 8320
5, 73364, Pitch_bend_c, 5, 8704
5, 73366, Pitch_bend_c, 5, 8704
5, 73367, Pitch_bend_c, 5, 8448
5, 73369, Pitch_bend_c, 5, 8704
5, 73371, Pitch_bend_c, 5, 8704
5, 73371, Pitch_bend_c, 5, 8448
5, 73373, Pitch_bend_c, 5, 8704
5, 73375, Pitch_bend_c, 5, 8448
5, 73376, Pitch_bend_c, 5, 8704
5, 73378, Pitch_bend_c, 5, 8576
5, 73380, Pitch_bend_c, 5, 8576
5, 73380, Pitch_bend_c, 5, 8448
5, 73383, Pitch_bend_c, 5, 8448
5, 73384, Pitch_bend_c, 5, 8448
5, 73385, Pitch_bend_c, 5, 8320
5, 73388, Pitch_bend_c, 5, 8192
5, 73388, Pitch_bend_c, 5, 8448
5, 73390, Pitch_bend_c, 5, 8064
5, 73392, Pitch_bend_c, 5, 7936
5, 73392, Pitch_bend_c, 5, 8448
5, 73395, Pitch_bend_c, 5, 7808
5, 73396, Pitch_bend_c, 5, 8448
5, 73397, Pitch_bend_c, 5, 7808
5, 73399, Pitch_bend_c, 5, 7680
5, 73401, Pitch_bend_c, 5, 8448
5, 73402, Pitch_bend_c, 5, 7680
5, 73404, Pitch_bend_c, 5, 7680
5, 73405, Pitch_bend_c, 5, 8320
5, 73406, Pitch_bend_c, 5, 7680
5, 73409, Pitch_bend_c, 5, 7680
5, 73409, Pitch_bend_c, 5, 8320
5, 73411, Pitch_bend_c, 5, 7680
5, 73413, Pitch_bend_c, 5, 7680
5, 73413, Pitch_bend_c, 5, 8320
5, 73416, Pitch_bend_c, 5, 7808
5, 73418, Pitch_bend_c, 5, 7936
5, 73418, Pitch_bend_c, 5, 8192
5, 73420, Pitch_bend_c, 5, 7936
5, 73422, Pitch_bend_c, 5, 8064
5, 73423, Pitch_bend_c, 5, 8064
5, 73425, Pitch_bend_c, 5, 8192
5, 73426, Pitch_bend_c, 5, 8064
5, 73427, Pitch_bend_c, 5, 8320
5, 73430, Pitch_bend_c, 5, 8448
5, 73430, Pitch_bend_c, 5, 8064
5, 73432, Pitch_bend_c, 5, 8448
5, 73434, Pitch_bend_c, 5, 8576
5, 73434, Pitch_bend_c, 5, 7936
5, 73437, Pitch_bend_c, 5, 8704
5, 73439, Pitch_bend_c, 5, 8704
5, 73439, Pitch_bend_c, 5, 7936
5, 73440, Control_c, 4, 7, 96
5, 73440, Control_c, 5, 7, 96
5, 73441, Pitch_bend_c, 5, 8704
5, 73443, Pitch_bend_c, 5, 7936
5, 73444, Pitch_bend_c, 5, 8704
5, 73446, Pitch_bend_c, 5, 8704
5, 73447, Pitch_bend_c, 5, 7936
5, 73448, Pitch_bend_c, 5, 8704
5, 73451, Pitch_bend_c, 5, 8704
5, 73451, Pitch_bend_c, 5, 7936
5, 73453, Pitch_bend_c, 5, 8576
5, 73455, Pitch_bend_c, 5, 8576
5, 73455, Pitch_bend_c, 5, 7936
5, 73458, Pitch_bend_c, 5, 8448
5, 73460, Pitch_bend_c, 5, 8320
5, 73460, Pitch_bend_c, 5, 7936
5, 73463, Pitch_bend_c, 5, 8192
5, 73464, Pitch_bend_c, 5, 7936
5, 73465, Pitch_bend_c, 5, 8064
5, 73467, Pitch_bend_c, 5, 7936
5, 73468, Pitch_bend_c, 5, 7936
5, 73470, Pitch_bend_c, 5, 7808
5, 73472, Pitch_bend_c, 5, 7808
5, 73472, Pitch_bend_c, 5, 8064
5, 73474, Pitch_bend_c, 5, 7680
5, 73477, Pitch_bend_c, 5, 7680
5, 73477, Pitch_bend_c, 5, 8064
5, 73479, Pitch_bend_c, 5, 7680
5, 73481, Pitch_bend_c, 5, 7680
5, 73481, Pitch_bend_c, 5, 8192
5, 73484, Pitch_bend_c, 5, 7680
5, 73485, Pitch_bend_c, 5, 8192
5, 73486, Pitch_bend_c, 5, 7680
5, 73488, Pitch_bend_c, 5, 7680
5, 73489, Pitch_bend_c, 5, 8192
5, 73491, Pitch_bend_c, 5, 7808
5, 73493, Pitch_bend_c, 5, 7936
5, 73493, Pitch_bend_c, 5, 8192
5, 73495, Pitch_bend_c, 5, 7936
5, 73498, Pitch_bend_c, 5, 8064
5, 73498, Pitch_bend_c, 5, 8320
5, 73500, Pitch_bend_c, 5, 8192
5, 73502, Pitch_bend_c, 5, 8320
5, 73502, Pitch_bend_c, 5, 8320
5, 73505, Pitch_bend_c, 5, 8320
5, 73506, Pitch_bend_c, 5, 8320
5, 73507, Pitch_bend_c, 5, 8448
5, 73509, Pitch_bend_c, 5, 8448
5, 73510, Pitch_bend_c, 5, 8320
5, 73512, Pitch_bend_c, 5, 8576
5, 73514, Pitch_bend_c, 5, 8576
5, 73515, Pitch_bend_c, 5, 8320
5, 73516, Pitch_bend_c, 5, 8576
5, 73519, Pitch_bend_c, 5, 8576
5, 73519, Pitch_bend_c, 5, 8320
5, 73521, Pitch_bend_c, 5, 8576
5, 73523, Pitch_bend_c, 5, 8576
5, 73523, Pitch_bend_c, 5, 8320
5, 73526, Pitch_bend_c, 5, 8576
5, 73527, Pitch_bend_c, 5, 8320
5, 73528, Pitch_bend_c, 5, 8448
5, 73530, Pitch_bend_c, 5, 8448
5, 73531, Pitch_bend_c, 5, 8320
5, 73533, Pitch_bend_c, 5, 8320
5, 73535, Pitch_bend_c, 5, 8320
5, 73536, Pitch_bend_c, 5, 8320
5, 73538, Pitch_bend_c, 5, 8192
5, 73540, Pitch_bend_c, 5, 8064
5, 73540, Pitch_bend_c, 5, 8320
5, 73542, Pitch_bend_c, 5, 8064
5, 73544, Pitch_bend_c, 5, 8192
5, 73545, Pitch_bend_c, 5, 7936
5, 73547, Pitch_bend_c, 5, 7936
5, 73548, Pitch_bend_c, 5, 8192
5, 73549, Pitch_bend_c, 5, 7808
5, 73552, Pitch_bend_c, 5, 7808
5, 73553, Pitch_bend_c, 5, 8192
5, 73554, Pitch_bend_c, 5, 7808
5, 73556, Pitch_bend_c, 5, 7808
5, 73557, Pitch_bend_c, 5, 8192
5, 73559, Pitch_bend_c, 5, 7808
5, 73561, Pitch_bend_c, 5, 7808
5, 73561, Pitch_bend_c, 5, 8192
5, 73563, Pitch_bend_c, 5, 7808
5, 73565, Pitch_bend_c, 5, 8064
5, 73566, Pitch_bend_c, 5, 7936
5, 73568, Pitch_bend_c, 5, 7936
5, 73569, Pitch_bend_c, 5, 8064
5, 73570, Pitch_bend_c, 5, 8064
5, 73573, Pitch_bend_c, 5, 8064
5, 73574, Pitch_bend_c, 5, 8064
5, 73575, Pitch_bend_c, 5, 8192
5, 73577, Pitch_bend_c, 5, 8192
5, 73578, Pitch_bend_c, 5, 8064
5, 73580, Pitch_bend_c, 5, 8320
5, 73582, Pitch_bend_c, 5, 8320
5, 73582, Pitch_bend_c, 5, 8064
5, 73584, Pitch_bend_c, 5, 8320
5, 73586, Pitch_bend_c, 5, 8064
5, 73587, Pitch_bend_c, 5, 8320
5, 73589, Pitch_bend_c, 5, 8448
5, 73590, Pitch_bend_c, 5, 8064
5, 73591, Pitch_bend_c, 5, 8448
5, 73594, Pitch_bend_c, 5, 8448
5, 73595, Pitch_bend_c, 5, 8064
5, 73596, Pitch_bend_c, 5, 8448
5, 73598, Pitch_bend_c, 5, 8448
5, 73599, Pitch_bend_c, 5, 8064
5, 73601, Pitch_bend_c, 5, 8320
5, 73603, Pitch_bend_c, 5, 8320
5, 73603, Pitch_bend_c, 5, 8064
5, 73605, Pitch_bend_c, 5, 8320
5, 73607, Pitch_bend_c, 5, 8064
5, 73608, Pitch_bend_c, 5, 8320
5, 73610, Pitch_bend_c, 5, 8192
5, 73612, Pitch_bend_c, 5, 8192
5, 73613, Pitch_bend_c, 5, 8192
5, 73615, Pitch_bend_c, 5, 8192
5, 73616, Pitch_bend_c, 5, 8192
5, 73617, Pitch_bend_c, 5, 8064
5, 73620, Pitch_bend_c, 5, 8064
5, 73620, Pitch_bend_c, 5, 8192
5, 73622, Pitch_bend_c, 5, 8064
5, 73624, Pitch_bend_c, 5, 8064
5, 73624, Pitch_bend_c, 5, 8192
5, 73627, Pitch_bend_c, 5, 7936
5, 73628, Pitch_bend_c, 5, 8192
5, 73629, Pitch_bend_c, 5, 7936
5, 73631, Pitch_bend_c, 5, 7936
5, 73633, Pitch_bend_c, 5, 8192
5, 73634, Pitch_bend_c, 5, 7936
5, 73636, Pitch_bend_c, 5, 7936
5, 73637, Pitch_bend_c, 5, 8192
5, 73638, Pitch_bend_c, 5, 8064
5, 73641, Pitch_bend_c, 5, 8064
5, 73641, Pitch_bend_c, 5, 8192
5, 73643, Pitch_bend_c, 5, 8064
5, 73645, Pitch_bend_c, 5, 8064
5, 73645, Pitch_bend_c, 5, 8192
5, 73648, Pitch_bend_c, 5, 8192
5, 73650, Pitch_bend_c, 5, 8192
5, 73650, Pitch_bend_c, 5, 8192
5, 73652, Pitch_bend_c, 5, 8192
5, 73654, Pitch_bend_c, 5, 8192
5, 73655, Pitch_bend_c, 5, 8192
5, 73657, Pitch_bend_c, 5, 8192
5, 73658, Pitch_bend_c, 5, 8192
5, 73659, Pitch_bend_c, 5, 8320
5, 73662, Pitch_bend_c, 5, 8320
5, 73662, Pitch_bend_c, 5, 8192
5, 73664, Pitch_bend_c, 5, 8320
5, 73666, Pitch_bend_c, 5, 8320
5, 73666, Pitch_bend_c, 5, 8192
5, 73669, Pitch_bend_c, 5, 8320
5, 73671, Pitch_bend_c, 5, 8320
5, 73671, Pitch_bend_c, 5, 8192
5, 73673, Pitch_bend_c, 5, 8320
5, 73675, Pitch_bend_c, 5, 8192
5, 73676, Pitch_bend_c, 5, 8320
5, 73678, Pitch_bend_c, 5, 8320
5, 73679, Pitch_bend_c, 5, 8192
5, 73680, Pitch_bend_c, 5, 8192
5, 73680, Note_off_c, 5, 69, 80
5, 73680, Pitch_bend_c, 5, 8192
5, 74880, Program_c, 4, 122
5, 74880, Program_c, 5, 122
5, 74880, Control_c, 4, 7, 0
5, 74880, Control_c, 5, 7, 0
5, 76320, Control_c, 4, 7, 7
5, 76320, Control_c, 5, 7, 7
5, 76320, Control_c, 4, 10, 127
5, 76320, Control_c, 5, 10, 127
5, 76320, Pitch_bend_c, 5, 8192
5, 76320, Note_on_c, 5, 69, 95
5, 76320, Pitch_bend_c, 5, 8192
5, 76322, Pitch_bend_c, 5, 8192
5, 76324, Pitch_bend_c, 5, 8192
5, 76325, Pitch_bend_c, 5, 8192
5, 76327, Pitch_bend_c, 5, 8192
5, 76328, Pitch_bend_c, 5, 8192
5, 76329, Pitch_bend_c, 5, 8192
5, 76332, Pitch_bend_c, 5, 8192
5, 76333, Pitch_bend_c, 5, 8192
5, 76334, Pitch_bend_c, 5, 8192
5, 76336, Pitch_bend_c, 5, 8192
5, 76337, Pitch_bend_c, 5, 8192
5, 76339, Pitch_bend_c, 5, 8192
5, 76341, Pitch_bend_c, 5, 8192
5, 76341, Pitch_bend_c, 5, 8192
5, 76343, Pitch_bend_c, 5, 8192
5, 76345, Pitch_bend_c, 5, 8192
5, 76346, Pitch_bend_c, 5, 8192
5, 76348, Pitch_bend_c, 5, 8192
5, 76350, Pitch_bend_c, 5, 8192
5, 76350, Pitch_bend_c, 5, 8192
5, 76353, Pitch_bend_c, 5, 8192
5, 76354, Pitch_bend_c, 5, 8192
5, 76355, Pitch_bend_c, 5, 8192
5, 76358, Pitch_bend_c, 5, 8192
5, 76358, Pitch_bend_c, 5, 8192
5, 76360, Pitch_bend_c, 5, 8192
5, 76362, Pitch_bend_c, 5, 8192
5, 76362, Pitch_bend_c, 5, 8192
5, 76365, Pitch_bend_c, 5, 8192
5, 76366, Pitch_bend_c, 5, 8192
5, 76367, Pitch_bend_c, 5, 8192
5, 76369, Pitch_bend_c, 5, 8192
5, 76371, Pitch_bend_c, 5, 8192
5, 76372, Pitch_bend_c, 5, 8192
5, 76374, Pitch_bend_c, 5, 8192
5, 76375, Pitch_bend_c, 5, 8192
5, 76376, Pitch_bend_c, 5, 8192
5, 76379, Pitch_bend_c, 5, 8192
5, 76379, Pitch_bend_c, 5, 8192
5, 76381, Pitch_bend_c, 5, 8192
5, 76383, Pitch_bend_c, 5, 8192
5, 76383, Pitch_bend_c, 5, 8192
5, 76386, Pitch_bend_c, 5, 8192
5, 76388, Pitch_bend_c, 5, 8192
5, 76388, Pitch_bend_c, 5, 8192
5, 76390, Pitch_bend_c, 5, 8192
5, 76392, Pitch_bend_c, 5, 8192
5, 76393, Pitch_bend_c, 5, 8192
5, 76395, Pitch_bend_c, 5, 8192
5, 76396, Pitch_bend_c, 5, 8192
5, 76397, Pitch_bend_c, 5, 8192
5, 76400, Pitch_bend_c, 5, 8320
5, 76400, Pitch_bend_c, 5, 8192
5, 76402, Pitch_bend_c, 5, 8320
5, 76404, Pitch_bend_c, 5, 8320
5, 76404, Pitch_bend_c, 5, 8192
5, 76407, Pitch_bend_c, 5, 8320
5, 76409, Pitch_bend_c, 5, 8320
5, 76409, Pitch_bend_c, 5, 8192
5, 76411, Pitch_bend_c, 5, 8320
5, 76413, Pitch_bend_c, 5, 8192
5, 76414, Pitch_bend_c, 5, 8320
5, 76416, Pitch_bend_c, 5, 8320
5, 76417, Pitch_bend_c, 5, 8192
5, 76418, Pitch_bend_c, 5, 8320
5, 76421, Pitch_bend_c, 5, 8320
5, 76421, Pitch_bend_c, 5, 8192
5, 76423, Pitch_bend_c, 5, 8320
5, 76425, Pitch_bend_c, 5, 8320
5, 76425, Pitch_bend_c, 5, 8192
5, 76428, Pitch_bend_c, 5, 8192
5, 76430, Pitch_bend_c, 5, 8192
5, 76430, Pitch_bend_c, 5, 8192
5, 76433, Pitch_bend_c, 5, 8192
5, 76434, Pitch_bend_c, 5, 8192
5, 76435, Pitch_bend_c, 5, 8192
5, 76437, Pitch_bend_c, 5, 8192
5, 76438, Pitch_bend_c, 5, 8192
5, 76440, Control_c, 4, 7, 15
5, 76440, Control_c, 5, 7, 15
5, 76440, Pitch_bend_c, 5, 8064
5, 76442, Pitch_bend_c, 5, 8064
5, 76442, Pitch_bend_c, 5, 8192
5, 76444, Pitch_bend_c, 5, 8064
5, 76447, Pitch_bend_c, 5, 8064
5, 76447, Pitch_bend_c, 5, 8192
5, 76449, Pitch_bend_c, 5, 8064
5, 76451, Pitch_bend_c, 5, 8064
5, 76451, Pitch_bend_c, 5, 8192
5, 76454, Pitch_bend_c, 5, 8064
5, 76455, Pitch_bend_c, 5, 8192
5, 76456, Pitch_bend_c, 5, 8064
5, 76458, Pitch_bend_c, 5, 8064
5, 76459, Pitch_bend_c, 5, 8192
5, 76461, Pitch_bend_c, 5, 8064
5, 76463, Pitch_bend_c, 5, 8064
5, 76463, Pitch_bend_c, 5, 8192
5, 76465, Pitch_bend_c, 5, 8064
5, 76468, Pitch_bend_c, 5, 8192
5, 76468, Pitch_bend_c, 5, 8320
5, 76470, Pitch_bend_c, 5, 8192
5, 76472, Pitch_bend_c, 5, 8320
5, 76472, Pitch_bend_c, 5, 8320
5, 76475, Pitch_bend_c, 5, 8320
5, 76476, Pitch_bend_c, 5, 8320
5, 76477, Pitch_bend_c, 5, 8448
5, 76479, Pitch_bend_c, 5, 8448
5, 76480, Pitch_bend_c, 5, 8320
5, 76482, Pitch_bend_c, 5, 8576
5, 76484, Pitch_bend_c, 5, 8576
5, 76485, Pitch_bend_c, 5, 8320
5, 76486, Pitch_bend_c, 5, 8576
5, 76489, Pitch_bend_c, 5, 8576
5, 76489, Pitch_bend_c, 5, 8320
5, 76491, Pitch_bend_c, 5, 8576
5, 76493, Pitch_bend_c, 5, 8576
5, 76493, Pitch_bend_c, 5, 8320
5, 76496, Pitch_bend_c, 5, 8576
5, 76497, Pitch_bend_c, 5, 8320
5, 76498, Pitch_bend_c, 5, 8448
5, 76500, Pitch_bend_c, 5, 8448
5, 76501, Pitch_bend_c, 5, 8320
5, 76503, Pitch_bend_c, 5, 8320
5, 76505, Pitch_bend_c, 5, 8320
5, 76506, Pitch_bend_c, 5, 8320
5, 76508, Pitch_bend_c, 5, 8192
5, 76510, Pitch_bend_c, 5, 8064
5, 76510, Pitch_bend_c, 5, 8320
5, 76512, Pitch_bend_c, 5, 8064
5, 76514, Pitch_bend_c, 5, 8192
5, 76515, Pitch_bend_c, 5, 7936
5, 76517, Pitch_bend_c, 5, 7936
5, 76518, Pitch_bend_c, 5, 8192
5, 76519, Pitch_bend_c, 5, 7808
5, 76522, Pitch_bend_c, 5, 7808
5, 76523, Pitch_bend_c, 5, 8192
5, 76524, Pitch_bend_c, 5, 7808
5, 76526, Pitch_bend_c, 5, 7808
5, 76527, Pitch_bend_c, 5, 8192
5, 76529, Pitch_bend_c, 5, 7808
5, 76531, Pitch_bend_c, 5, 7808
5, 76531, Pitch_bend_c, 5, 8192
5, 76533, Pitch_bend_c, 5, 7808
5, 76535, Pitch_bend_c, 5, 8064
5, 76536, Pitch_bend_c, 5, 7936
5, 76538, Pitch_bend_c, 5, 7936
5, 76539, Pitch_bend_c, 5, 8064
5, 76540, Pitch_bend_c, 5, 8064
5, 76543, Pitch_bend_c, 5, 8064
5, 76544, Pitch_bend_c, 5, 8064
5, 76545, Pitch_bend_c, 5, 8192
5, 76547, Pitch_bend_c, 5, 8320
5, 76548, Pitch_bend_c, 5, 8064
5, 76550, Pitch_bend_c, 5, 8320
5, 76552, Pitch_bend_c, 5, 8448
5, 76552, Pitch_bend_c, 5, 8064
5, 76554, Pitch_bend_c, 5, 8576
5, 76556, Pitch_bend_c, 5, 8064
5, 76557, Pitch_bend_c, 5, 8576
5, 76559, Pitch_bend_c, 5, 8576
5, 76560, Control_c, 4, 7, 22
5, 76560, Control_c, 5, 7, 22
5, 76560, Pitch_bend_c, 5, 8064
5, 76561, Pitch_bend_c, 5, 8704
5, 76564, Pitch_bend_c, 5, 8704
5, 76565, Pitch_bend_c, 5, 8064
5, 76566, Pitch_bend_c, 5, 8704
5, 76568, Pitch_bend_c, 5, 8704
5, 76569, Pitch_bend_c, 5, 8064
5, 76571, Pitch_bend_c, 5, 8576
5, 76573, Pitch_bend_c, 5, 8576
5, 76573, Pitch_bend_c, 5, 8064
5, 76575, Pitch_bend_c, 5, 8448
5, 76577, Pitch_bend_c, 5, 8064
5, 76578, Pitch_bend_c, 5, 8320
5, 76580, Pitch_bend_c, 5, 8320
5, 76582, Pitch_bend_c, 5, 8192
5, 76583, Pitch_bend_c, 5, 8192
5, 76585, Pitch_bend_c, 5, 8064
5, 76586, Pitch_bend_c, 5, 8192
5, 76587, Pitch_bend_c, 5, 8064
5, 76590, Pitch_bend_c, 5, 7936
5, 76590, Pitch_bend_c, 5, 8192
5, 76592, Pitch_bend_c, 5, 7808
5, 76594, Pitch_bend_c, 5, 7808
5, 76594, Pitch_bend_c, 5, 8192
5, 76597, Pitch_bend_c, 5, 7680
5, 76598, Pitch_bend_c, 5, 8320
5, 76599, Pitch_bend_c, 5, 7680
5, 76601, Pitch_bend_c, 5, 7680
5, 76603, Pitch_bend_c, 5, 8320
5, 76604, Pitch_bend_c, 5, 7680
5, 76606, Pitch_bend_c, 5, 7808
5, 76607, Pitch_bend_c, 5, 8448
5, 76608, Pitch_bend_c, 5, 7808
5, 76611, Pitch_bend_c, 5, 7808
5, 76611, Pitch_bend_c, 5, 8448
5, 76613, Pitch_bend_c, 5, 7936
5, 76615, Pitch_bend_c, 5, 8064
5, 76615, Pitch_bend_c, 5, 8448
5, 76618, Pitch_bend_c, 5, 8064
5, 76620, Pitch_bend_c, 5, 8192
5, 76620, Pitch_bend_c, 5, 8448
5, 76622, Pitch_bend_c, 5, 8320
5, 76624, Pitch_bend_c, 5, 8448
5, 76625, Pitch_bend_c, 5, 8320
5, 76627, Pitch_bend_c, 5, 8448
5, 76628, Pitch_bend_c, 5, 8448
5, 76629, Pitch_bend_c, 5, 8576
5, 76632, Pitch_bend_c, 5, 8576
5, 76632, Pitch_bend_c, 5, 8448
5, 76634, Pitch_bend_c, 5, 8576
5, 76636, Pitch_bend_c, 5, 8704
5, 76636, Pitch_bend_c, 5, 8448
5, 76639, Pitch_bend_c, 5, 8704
5, 76641, Pitch_bend_c, 5, 8704
5, 76641, Pitch_bend_c, 5, 8448
5, 76643, Pitch_bend_c, 5, 8704
5, 76645, Pitch_bend_c, 5, 8320
5, 76646, Pitch_bend_c, 5, 8576
5, 76648, Pitch_bend_c, 5, 8576
5, 76649, Pitch_bend_c, 5, 8320
5, 76650, Pitch_bend_c, 5, 8448
5, 76653, Pitch_bend_c, 5, 8320
5, 76653, Pitch_bend_c, 5, 8320
5, 76655, Pitch_bend_c, 5, 8320
5, 76658, Pitch_bend_c, 5, 8192
5, 76658, Pitch_bend_c, 5, 8192
5, 76660, Pitch_bend_c, 5, 8064
5, 76662, Pitch_bend_c, 5, 8064
5, 76662, Pitch_bend_c, 5, 8064
5, 76665, Pitch_bend_c, 5, 7936
5, 76666, Pitch_bend_c, 5, 8064
5, 76667, Pitch_bend_c, 5, 7808
5, 76669, Pitch_bend_c, 5, 7808
5, 76670, Pitch_bend_c, 5, 8064
5, 76672, Pitch_bend_c, 5, 7680
5, 76674, Pitch_bend_c, 5, 7680
5, 76674, Pitch_bend_c, 5, 7936
5, 76676, Pitch_bend_c, 5, 7680
5, 76679, Pitch_bend_c, 5, 7680
5, 76679, Pitch_bend_c, 5, 7936
5, 76680, Control_c, 4, 7, 30
5, 76680, Control_c, 5, 7, 30
5, 76681, Pitch_bend_c, 5, 7808
5, 76683, Pitch_bend_c, 5, 7808
5, 76683, Pitch_bend_c, 5, 7936
5, 76686, Pitch_bend_c, 5, 7808
5, 76687, Pitch_bend_c, 5, 7936
5, 76688, Pitch_bend_c, 5, 7936
5, 76690, Pitch_bend_c, 5, 8064
5, 76691, Pitch_bend_c, 5, 7936
5, 76693, Pitch_bend_c, 5, 8064
5, 76695, Pitch_bend_c, 5, 8192
5, 76695, Pitch_bend_c, 5, 7936
5, 76697, Pitch_bend_c, 5, 8320
5, 76700, Pitch_bend_c, 5, 8448
5, 76700, Pitch_bend_c, 5, 7936
5, 76702, Pitch_bend_c, 5, 8448
5, 76704, Pitch_bend_c, 5, 8576
5, 76704, Pitch_bend_c, 5, 7936
5, 76707, Pitch_bend_c, 5, 8704
5, 76708, Pitch_bend_c, 5, 7936
5, 76709, Pitch_bend_c, 5, 8704
5, 76711, Pitch_bend_c, 5, 8704
5, 76712, Pitch_bend_c, 5, 8064
5, 76714, Pitch_bend_c, 5, 8704
5, 76716, Pitch_bend_c, 5, 8704
5, 76717, Pitch_bend_c, 5, 8064
5, 76718, Pitch_bend_c, 5, 8704
5, 76721, Pitch_bend_c, 5, 8704
5, 76721, Pitch_bend_c, 5, 8192
5, 76723, Pitch_bend_c, 5, 8576
5, 76725, Pitch_bend_c, 5, 8576
5, 76725, Pitch_bend_c, 5, 8192
5, 76728, Pitch_bend_c, 5, 8448
5, 76729, Pitch_bend_c, 5, 8192
5, 76730, Pitch_bend_c, 5, 8320
5, 76733, Pitch_bend_c, 5, 8192
5, 76733, Pitch_bend_c, 5, 8320
5, 76735, Pitch_bend_c, 5, 8064
5, 76737, Pitch_bend_c, 5, 7936
5, 76738, Pitch_bend_c, 5, 8320
5, 76740, Pitch_bend_c, 5, 7808
5, 76742, Pitch_bend_c, 5, 7808
5, 76742, Pitch_bend_c, 5, 8448
5, 76744, Pitch_bend_c, 5, 7680
5, 76746, Pitch_bend_c, 5, 8448
5, 76747, Pitch_bend_c, 5, 7680
5, 76749, Pitch_bend_c, 5, 7680
5, 76750, Pitch_bend_c, 5, 8448
5, 76751, Pitch_bend_c, 5, 7680
5, 76754, Pitch_bend_c, 5, 7680
5, 76755, Pitch_bend_c, 5, 8448
5, 76756, Pitch_bend_c, 5, 7680
5, 76758, Pitch_bend_c, 5, 7680
5, 76759, Pitch_bend_c, 5, 8448
5, 76761, Pitch_bend_c, 5, 7808
5, 76763, Pitch_bend_c, 5, 7936
5, 76763, Pitch_bend_c, 5, 8448
5, 76765, Pitch_bend_c, 5, 7936
5, 76767, Pitch_bend_c, 5, 8448
5, 76768, Pitch_bend_c, 5, 8064
5, 76770, Pitch_bend_c, 5, 8192
5, 76771, Pitch_bend_c, 5, 8448
5, 76772, Pitch_bend_c, 5, 8320
5, 76775, Pitch_bend_c, 5, 8448
5, 76776, Pitch_bend_c, 5, 8448
5, 76777, Pitch_bend_c, 5, 8448
5, 76779, Pitch_bend_c, 5, 8576
5, 76780, Pitch_bend_c, 5, 8320
5, 76782, Pitch_bend_c, 5, 8704
5, 76784, Pitch_bend_c, 5, 8704
5, 76784, Pitch_bend_c, 5, 8320
5, 76786, Pitch_bend_c, 5, 8704
5, 76788, Pitch_bend_c, 5, 8320
5, 76789, Pitch_bend_c, 5, 8704
5, 76791, Pitch_bend_c, 5, 8704
5, 76793, Pitch_bend_c, 5, 8704
5, 76793, Pitch_bend_c, 5, 8192
5, 76796, Pitch_bend_c, 5, 8576
5, 76797, Pitch_bend_c, 5, 8064
5, 76798, Pitch_bend_c, 5, 8576
5, 76800, Control_c, 4, 7, 37
5, 76800, Control_c, 5, 7, 37
5, 76800, Pitch_bend_c, 5, 8448
5, 76801, Pitch_bend_c, 5, 8064
5, 76803, Pitch_bend_c, 5, 8320
5, 76805, Pitch_bend_c, 5, 8320
5, 76805, Pitch_bend_c, 5, 8064
5, 76808, Pitch_bend_c, 5, 8192
5, 76809, Pitch_bend_c, 5, 7936
5, 76810, Pitch_bend_c, 5, 8064
5, 76812, Pitch_bend_c, 5, 8064
5, 76814, Pitch_bend_c, 5, 7936
5, 76815, Pitch_bend_c, 5, 7936
5, 76817, Pitch_bend_c, 5, 7808
5, 76818, Pitch_bend_c, 5, 7936
5, 76819, Pitch_bend_c, 5, 7808
5, 76822, Pitch_bend_c, 5, 7680
5, 76822, Pitch_bend_c, 5, 7936
5, 76824, Pitch_bend_c, 5, 7680
5, 76826, Pitch_bend_c, 5, 7680
5, 76826, Pitch_bend_c, 5, 7936
5, 76829, Pitch_bend_c, 5, 7680
5, 76830, Pitch_bend_c, 5, 7936
5, 76831, Pitch_bend_c, 5, 7680
5, 76833, Pitch_bend_c, 5, 7680
5, 76835, Pitch_bend_c, 5, 7936
5, 76836, Pitch_bend_c, 5, 7808
5, 76838, Pitch_bend_c, 5, 7936
5, 76839, Pitch_bend_c, 5, 7936
5, 76840, Pitch_bend_c, 5, 7936
5, 76843, Pitch_bend_c, 5, 8064
5, 76843, Pitch_bend_c, 5, 7936
5, 76845, Pitch_bend_c, 5, 8192
5, 76847, Pitch_bend_c, 5, 8320
5, 76847, Pitch_bend_c, 5, 8064
5, 76850, Pitch_bend_c, 5, 8448
5, 76852, Pitch_bend_c, 5, 8448
5, 76852, Pitch_bend_c, 5, 8064
5, 76854, Pitch_bend_c, 5, 8576
5, 76856, Pitch_bend_c, 5, 8192
5, 76857, Pitch_bend_c, 5, 8704
5, 76859, Pitch_bend_c, 5, 8704
5, 76860, Pitch_bend_c, 5, 8192
5, 76861, Pitch_bend_c, 5, 8704
5, 76864, Pitch_bend_c, 5, 8704
5, 76864, Pitch_bend_c, 5, 8192
5, 76866, Pitch_bend_c, 5, 8704
5, 76868, Pitch_bend_c, 5, 8704
5, 76868, Pitch_bend_c, 5, 8320
5, 76871, Pitch_bend_c, 5, 8576
5, 76873, Pitch_bend_c, 5, 8576
5, 76873, Pitch_bend_c, 5, 8320
5, 76875, Pitch_bend_c, 5, 8448
5, 76877, Pitch_bend_c, 5, 8320
5, 76878, Pitch_bend_c, 5, 8320
5, 76880, Pitch_bend_c, 5, 8320
5, 76881, Pitch_bend_c, 5, 8448
5, 76883, Pitch_bend_c, 5, 8192
5, 76885, Pitch_bend_c, 5, 8064
5, 76885, Pitch_bend_c, 5, 8448
5, 76887, Pitch_bend_c, 5, 8064
5, 76890, Pitch_bend_c, 5, 7936
5, 76890, Pitch_bend_c, 5, 8448
5, 76892, Pitch_bend_c, 5, 7808
5, 76894, Pitch_bend_c, 5, 7808
5, 76894, Pitch_bend_c, 5, 8448
5, 76897, Pitch_bend_c, 5, 7680
5, 76898, Pitch_bend_c, 5, 8448
5, 76899, Pitch_bend_c, 5, 7680
5, 76901, Pitch_bend_c, 5, 7680
5, 76902, Pitch_bend_c, 5, 8448
5, 76904, Pitch_bend_c, 5, 7680
5, 76906, Pitch_bend_c, 5, 7680
5, 76906, Pitch_bend_c, 5, 8448
5, 76908, Pitch_bend_c, 5, 7680
5, 76911, Pitch_bend_c, 5, 7808
5, 76911, Pitch_bend_c, 5, 8320
5, 76913, Pitch_bend_c, 5, 7936
5, 76915, Pitch_bend_c, 5, 7936
5, 76915, Pitch_bend_c, 5, 8320
5, 76918, Pitch_bend_c, 5, 8064
5, 76919, Pitch_bend_c, 5, 8320
5, 76920, Control_c, 4, 7, 44
5, 76920, Control_c, 5, 7, 44
5, 76920, Pitch_bend_c, 5, 8192
5, 76922, Pitch_bend_c, 5, 8320
5, 76923, Pitch_bend_c, 5, 8192
5, 76925, Pitch_bend_c, 5, 8448
5, 76927, Pitch_bend_c, 5, 8576
5, 76928, Pitch_bend_c, 5, 8192
5, 76929, Pitch_bend_c, 5, 8576
5, 76932, Pitch_bend_c, 5, 8704
5, 76932, Pitch_bend_c, 5, 8192
5, 76934, Pitch_bend_c, 5, 8704
5, 76936, Pitch_bend_c, 5, 8704
5, 76936, Pitch_bend_c, 5, 8064
5, 76939, Pitch_bend_c, 5, 8832
5, 76940, Pitch_bend_c, 5, 8064
5, 76941, Pitch_bend_c, 5, 8704
5, 76943, Pitch_bend_c, 5, 8704
5, 76944, Pitch_bend_c, 5, 8064
5, 76946, Pitch_bend_c, 5, 8704
5, 76948, Pitch_bend_c, 5, 8576
5, 76949, Pitch_bend_c, 5, 7936
5, 76950, Pitch_bend_c, 5, 8576
5, 76953, Pitch_bend_c, 5, 8448
5, 76953, Pitch_bend_c, 5, 7936
5, 76955, Pitch_bend_c, 5, 8320
5, 76957, Pitch_bend_c, 5, 7936
5, 76958, Pitch_bend_c, 5, 8192
5, 76960, Pitch_bend_c, 5, 8064
5, 76961, Pitch_bend_c, 5, 7936
5, 76962, Pitch_bend_c, 5, 7936
5, 76965, Pitch_bend_c, 5, 7808
5, 76965, Pitch_bend_c, 5, 7936
5, 76967, Pitch_bend_c, 5, 7808
5, 76969, Pitch_bend_c, 5, 7680
5, 76970, Pitch_bend_c, 5, 7936
5, 76972, Pitch_bend_c, 5, 7680
5, 76974, Pitch_bend_c, 5, 7680
5, 76974, Pitch_bend_c, 5, 7936
5, 76976, Pitch_bend_c, 5, 7552
5, 76978, Pitch_bend_c, 5, 8064
5, 76979, Pitch_bend_c, 5, 7680
5, 76981, Pitch_bend_c, 5, 7680
5, 76982, Pitch_bend_c, 5, 8064
5, 76983, Pitch_bend_c, 5, 7680
5, 76986, Pitch_bend_c, 5, 7808
5, 76987, Pitch_bend_c, 5, 8064
5, 76988, Pitch_bend_c, 5, 7808
5, 76990, Pitch_bend_c, 5, 7936
5, 76991, Pitch_bend_c, 5, 8192
5, 76993, Pitch_bend_c, 5, 8064
5, 76995, Pitch_bend_c, 5, 8192
5, 76995, Pitch_bend_c, 5, 8192
5, 76997, Pitch_bend_c, 5, 8320
5, 76999, Pitch_bend_c, 5, 8192
5, 77000, Pitch_bend_c, 5, 8448
5, 77002, Pitch_bend_c, 5, 8448
5, 77003, Pitch_bend_c, 5, 8320
5, 77004, Pitch_bend_c, 5, 8576
5, 77007, Pitch_bend_c, 5, 8704
5, 77008, Pitch_bend_c, 5, 8320
5, 77009, Pitch_bend_c, 5, 8704
5, 77011, Pitch_bend_c, 5, 8704
5, 77012, Pitch_bend_c, 5, 8320
5, 77014, Pitch_bend_c, 5, 8704
5, 77016, Pitch_bend_c, 5, 8704
5, 77016, Pitch_bend_c, 5, 8320
5, 77018, Pitch_bend_c, 5, 8704
5, 77020, Pitch_bend_c, 5, 8320
5, 77021, Pitch_bend_c, 5, 8576
5, 77023, Pitch_bend_c, 5, 8576
5, 77025, Pitch_bend_c, 5, 8448
5, 77025, Pitch_bend_c, 5, 8320
5, 77028, Pitch_bend_c, 5, 8320
5, 77029, Pitch_bend_c, 5, 8320
5, 77030, Pitch_bend_c, 5, 8320
5, 77033, Pitch_bend_c, 5, 8192
5, 77033, Pitch_bend_c, 5, 8320
5, 77035, Pitch_bend_c, 5, 8064
5, 77037, Pitch_bend_c, 5, 8064
5, 77037, Pitch_bend_c, 5, 8320
5, 77040, Control_c, 4, 7, 52
5, 77040, Control_c, 5, 7, 52
5, 77040, Pitch_bend_c, 5, 7936
5, 77041, Pitch_bend_c, 5, 8320
5, 77042, Pitch_bend_c, 5, 7808
5, 77044, Pitch_bend_c, 5, 7808
5, 77046, Pitch_bend_c, 5, 8320
5, 77047, Pitch_bend_c, 5, 7680
5, 77049, Pitch_bend_c, 5, 7680
5, 77050, Pitch_bend_c, 5, 8320
5, 77051, Pitch_bend_c, 5, 7680
5, 77054, Pitch_bend_c, 5, 7680
5, 77054, Pitch_bend_c, 5, 8320
5, 77056, Pitch_bend_c, 5, 7680
5, 77058, Pitch_bend_c, 5, 7680
5, 77058, Pitch_bend_c, 5, 8192
5, 77061, Pitch_bend_c, 5, 7808
5, 77063, Pitch_bend_c, 5, 7936
5, 77063, Pitch_bend_c, 5, 8192
5, 77065, Pitch_bend_c, 5, 7936
5, 77067, Pitch_bend_c, 5, 8192
5, 77068, Pitch_bend_c, 5, 8064
5, 77070, Pitch_bend_c, 5, 8192
5, 77071, Pitch_bend_c, 5, 8064
5, 77072, Pitch_bend_c, 5, 8320
5, 77075, Pitch_bend_c, 5, 8448
5, 77075, Pitch_bend_c, 5, 8064
5, 77077, Pitch_bend_c, 5, 8448
5, 77079, Pitch_bend_c, 5, 8576
5, 77079, Pitch_bend_c, 5, 8064
5, 77082, Pitch_bend_c, 5, 8704
5, 77084, Pitch_bend_c, 5, 8704
5, 77084, Pitch_bend_c, 5, 8064
5, 77086, Pitch_bend_c, 5, 8704
5, 77088, Pitch_bend_c, 5, 8064
5, 77089, Pitch_bend_c, 5, 8704
5, 77091, Pitch_bend_c, 5, 8704
5, 77092, Pitch_bend_c, 5, 8064
5, 77093, Pitch_bend_c, 5, 8704
5, 77096, Pitch_bend_c, 5, 8704
5, 77096, Pitch_bend_c, 5, 8064
5, 77098, Pitch_bend_c, 5, 8576
5, 77100, Pitch_bend_c, 5, 8576
5, 77100, Pitch_bend_c, 5, 8064
5, 77103, Pitch_bend_c, 5, 8448
5, 77105, Pitch_bend_c, 5, 8320
5, 77105, Pitch_bend_c, 5, 8064
5, 77108, Pitch_bend_c, 5, 8192
5, 77109, Pitch_bend_c, 5, 8064
5, 77110, Pitch_bend_c, 5, 8064
5, 77112, Pitch_bend_c, 5, 7936
5, 77113, Pitch_bend_c, 5, 8064
5, 77115, Pitch_bend_c, 5, 7808
5, 77117, Pitch_bend_c, 5, 7808
5, 77117, Pitch_bend_c, 5, 8064
5, 77119, Pitch_bend_c, 5, 7680
5, 77122, Pitch_bend_c, 5, 7680
5, 77122, Pitch_bend_c, 5, 8064
5, 77124, Pitch_bend_c, 5, 7680
5, 77126, Pitch_bend_c, 5, 7680
5, 77126, Pitch_bend_c, 5, 8192
5, 77129, Pitch_bend_c, 5, 7680
5, 77130, Pitch_bend_c, 5, 8192
5, 77131, Pitch_bend_c, 5, 7680
5, 77133, Pitch_bend_c, 5, 7680
5, 77134, Pitch_bend_c, 5, 8192
5, 77136, Pitch_bend_c, 5, 7808
5, 77138, Pitch_bend_c, 5, 7936
5, 77138, Pitch_bend_c, 5, 8320
5, 77140, Pitch_bend_c, 5, 7936
5, 77143, Pitch_bend_c, 5, 8064
5, 77143, Pitch_bend_c, 5, 8320
5, 77145, Pitch_bend_c, 5, 8192
5, 77147, Pitch_bend_c, 5, 8320
5, 77147, Pitch_bend_c, 5, 8320
5, 77150, Pitch_bend_c, 5, 8448
5, 77151, Pitch_bend_c, 5, 8320
5, 77152, Pitch_bend_c, 5, 8448
5, 77154, Pitch_bend_c, 5, 8576
5, 77155, Pitch_bend_c, 5, 8448
5, 77157, Pitch_bend_c, 5, 8704
5, 77159, Pitch_bend_c, 5, 8704
5, 77160, Control_c, 4, 7, 59
5, 77160, Control_c, 5, 7, 59
5, 77160, Pitch_bend_c, 5, 8448
5, 77161, Pitch_bend_c, 5, 8704
5, 77164, Pitch_bend_c, 5, 8704
5, 77164, Pitch_bend_c, 5, 8448
5, 77166, Pitch_bend_c, 5, 8704
5, 77168, Pitch_bend_c, 5, 8704
5, 77168, Pitch_bend_c, 5, 8448
5, 77171, Pitch_bend_c, 5, 8576
5, 77172, Pitch_bend_c, 5, 8448
5, 77173, Pitch_bend_c, 5, 8576
5, 77175, Pitch_bend_c, 5, 8448
5, 77176, Pitch_bend_c, 5, 8320
5, 77178, Pitch_bend_c, 5, 8320
5, 77180, Pitch_bend_c, 5, 8320
5, 77181, Pitch_bend_c, 5, 8320
5, 77183, Pitch_bend_c, 5, 8192
5, 77185, Pitch_bend_c, 5, 8064
5, 77185, Pitch_bend_c, 5, 8320
5, 77187, Pitch_bend_c, 5, 8064
5, 77189, Pitch_bend_c, 5, 8320
5, 77190, Pitch_bend_c, 5, 7936
5, 77192, Pitch_bend_c, 5, 7808
5, 77193, Pitch_bend_c, 5, 8192
5, 77194, Pitch_bend_c, 5, 7808
5, 77197, Pitch_bend_c, 5, 7680
5, 77198, Pitch_bend_c, 5, 8192
5, 77199, Pitch_bend_c, 5, 7680
5, 77201, Pitch_bend_c, 5, 7680
5, 77202, Pitch_bend_c, 5, 8192
5, 77204, Pitch_bend_c, 5, 7680
5, 77206, Pitch_bend_c, 5, 7680
5, 77206, Pitch_bend_c, 5, 8064
5, 77208, Pitch_bend_c, 5, 7680
5, 77210, Pitch_bend_c, 5, 8064
5, 77211, Pitch_bend_c, 5, 7808
5, 77213, Pitch_bend_c, 5, 7936
5, 77214, Pitch_bend_c, 5, 8064
5, 77215, Pitch_bend_c, 5, 7936
5, 77218, Pitch_bend_c, 5, 8064
5, 77219, Pitch_bend_c, 5, 8064
5, 77220, Pitch_bend_c, 5, 8192
5, 77222, Pitch_bend_c, 5, 8320
5, 77223, Pitch_bend_c, 5, 7936
5, 77225, Pitch_bend_c, 5, 8448
5, 77227, Pitch_bend_c, 5, 8448
5, 77227, Pitch_bend_c, 5, 7936
5, 77229, Pitch_bend_c, 5, 8576
5, 77231, Pitch_bend_c, 5, 7936
5, 77232, Pitch_bend_c, 5, 8704
5, 77234, Pitch_bend_c, 5, 8704
5, 77235, Pitch_bend_c, 5, 7936
5, 77236, Pitch_bend_c, 5, 8704
5, 77239, Pitch_bend_c, 5, 8704
5, 77240, Pitch_bend_c, 5, 7936
5, 77241, Pitch_bend_c, 5, 8704
5, 77243, Pitch_bend_c, 5, 8704
5, 77244, Pitch_bend_c, 5, 8064
5, 77246, Pitch_bend_c, 5, 8576
5, 77248, Pitch_bend_c, 5, 8576
5, 77248, Pitch_bend_c, 5, 8064
5, 77250, Pitch_bend_c, 5, 8448
5, 77252, Pitch_bend_c, 5, 8064
5, 77253, Pitch_bend_c, 5, 8320
5, 77255, Pitch_bend_c, 5, 8320
5, 77257, Pitch_bend_c, 5, 8064
5, 77258, Pitch_bend_c, 5, 8192
5, 77260, Pitch_bend_c, 5, 8064
5, 77261, Pitch_bend_c, 5, 8192
5, 77262, Pitch_bend_c, 5, 8064
5, 77265, Pitch_bend_c, 5, 7936
5, 77265, Pitch_bend_c, 5, 8192
5, 77267, Pitch_bend_c, 5, 7808
5, 77269, Pitch_bend_c, 5, 7808
5, 77269, Pitch_bend_c, 5, 8192
5, 77272, Pitch_bend_c, 5, 7680
5, 77273, Pitch_bend_c, 5, 8320
5, 77274, Pitch_bend_c, 5, 7680
5, 77276, Pitch_bend_c, 5, 7680
5, 77278, Pitch_bend_c, 5, 8320
5, 77279, Pitch_bend_c, 5, 7680
5, 77280, Control_c, 4, 7, 66
5, 77280, Control_c, 5, 7, 66
5, 77281, Pitch_bend_c, 5, 7680
5, 77282, Pitch_bend_c, 5, 8448
5, 77283, Pitch_bend_c, 5, 7680
5, 77286, Pitch_bend_c, 5, 7808
5, 77286, Pitch_bend_c, 5, 8448
5, 77288, Pitch_bend_c, 5, 7936
5, 77290, Pitch_bend_c, 5, 7936
5, 77290, Pitch_bend_c, 5, 8448
5, 77293, Pitch_bend_c, 5, 8064
5, 77295, Pitch_bend_c, 5, 8192
5, 77295, Pitch_bend_c, 5, 8448
5, 77297, Pitch_bend_c, 5, 8320
5, 77299, Pitch_bend_c, 5, 8448
5, 77300, Pitch_bend_c, 5, 8448
5, 77302, Pitch_bend_c, 5, 8448
5, 77303, Pitch_bend_c, 5, 8448
5, 77304, Pitch_bend_c, 5, 8576
5, 77307, Pitch_bend_c, 5, 8704
5, 77307, Pitch_bend_c, 5, 8448
5, 77309, Pitch_bend_c, 5, 8704
5, 77311, Pitch_bend_c, 5, 8704
5, 77311, Pitch_bend_c, 5, 8448
5, 77314, Pitch_bend_c, 5, 8704
5, 77316, Pitch_bend_c, 5, 8704
5, 77316, Pitch_bend_c, 5, 8448
5, 77318, Pitch_bend_c, 5, 8704
5, 77320, Pitch_bend_c, 5, 8320
5, 77321, Pitch_bend_c, 5, 8576
5, 77323, Pitch_bend_c, 5, 8576
5, 77324, Pitch_bend_c, 5, 8320
5, 77325, Pitch_bend_c, 5, 8448
5, 77328, Pitch_bend_c, 5, 8320
5, 77328, Pitch_bend_c, 5, 8192
5, 77330, Pitch_bend_c, 5, 8320
5, 77333, Pitch_bend_c, 5, 8192
5, 77333, Pitch_bend_c, 5, 8192
5, 77335, Pitch_bend_c, 5, 8064
5, 77337, Pitch_bend_c, 5, 8064
5, 77337, Pitch_bend_c, 5, 8192
5, 77340, Pitch_bend_c, 5, 7936
5, 77341, Pitch_bend_c, 5, 8064
5, 77342, Pitch_bend_c, 5, 7808
5, 77344, Pitch_bend_c, 5, 7808
5, 77345, Pitch_bend_c, 5, 8064
5, 77347, Pitch_bend_c, 5, 7680
5, 77349, Pitch_bend_c, 5, 7680
5, 77349, Pitch_bend_c, 5, 7936
5, 77351, Pitch_bend_c, 5, 7680
5, 77354, Pitch_bend_c, 5, 7680
5, 77354, Pitch_bend_c, 5, 7936
5, 77356, Pitch_bend_c, 5, 7680
5, 77358, Pitch_bend_c, 5, 7680
5, 77358, Pitch_bend_c, 5, 7936
5, 77361, Pitch_bend_c, 5, 7808
5, 77362, Pitch_bend_c, 5, 7936
5, 77363, Pitch_bend_c, 5, 7936
5, 77365, Pitch_bend_c, 5, 7936
5, 77366, Pitch_bend_c, 5, 7936
5, 77368, Pitch_bend_c, 5, 8064
5, 77370, Pitch_bend_c, 5, 8192
5, 77370, Pitch_bend_c, 5, 7936
5, 77372, Pitch_bend_c, 5, 8320
5, 77375, Pitch_bend_c, 5, 8448
5, 77375, Pitch_bend_c, 5, 7936
5, 77377, Pitch_bend_c, 5, 8448
5, 77379, Pitch_bend_c, 5, 8576
5, 77379, Pitch_bend_c, 5, 7936
5, 77382, Pitch_bend_c, 5, 8576
5, 77383, Pitch_bend_c, 5, 7936
5, 77384, Pitch_bend_c, 5, 8704
5, 77386, Pitch_bend_c, 5, 8704
5, 77387, Pitch_bend_c, 5, 8064
5, 77389, Pitch_bend_c, 5, 8704
5, 77391, Pitch_bend_c, 5, 8704
5, 77392, Pitch_bend_c, 5, 8064
5, 77393, Pitch_bend_c, 5, 8704
5, 77396, Pitch_bend_c, 5, 8576
5, 77396, Pitch_bend_c, 5, 8192
5, 77398, Pitch_bend_c, 5, 8576
5, 77400, Control_c, 4, 7, 74
5, 77400, Control_c, 5, 7, 74
5, 77400, Pitch_bend_c, 5, 8448
5, 77400, Pitch_bend_c, 5, 8192
5, 77403, Pitch_bend_c, 5, 8320
5, 77404, Pitch_bend_c, 5, 8192
5, 77405, Pitch_bend_c, 5, 8320
5, 77408, Pitch_bend_c, 5, 8192
5, 77408, Pitch_bend_c, 5, 8320
5, 77410, Pitch_bend_c, 5, 8064
5, 77412, Pitch_bend_c, 5, 8064
5, 77413, Pitch_bend_c, 5, 8320
5, 77415, Pitch_bend_c, 5, 7936
5, 77417, Pitch_bend_c, 5, 7808
5, 77417, Pitch_bend_c, 5, 8448
5, 77419, Pitch_bend_c, 5, 7808
5, 77421, Pitch_bend_c, 5, 8448
5, 77422, Pitch_bend_c, 5, 7680
5, 77424, Pitch_bend_c, 5, 7680
5, 77425, Pitch_bend_c, 5, 8448
5, 77426, Pitch_bend_c, 5, 7680
5, 77429, Pitch_bend_c, 5, 7680
5, 77430, Pitch_bend_c, 5, 8448
5, 77431, Pitch_bend_c, 5, 7680
5, 77433, Pitch_bend_c, 5, 7808
5, 77434, Pitch_bend_c, 5, 8448
5, 77436, Pitch_bend_c, 5, 7808
5, 77438, Pitch_bend_c, 5, 7936
5, 77438, Pitch_bend_c, 5, 8448
5, 77440, Pitch_bend_c, 5, 7936
5, 77442, Pitch_bend_c, 5, 8448
5, 77443, Pitch_bend_c, 5, 8064
5, 77445, Pitch_bend_c, 5, 8192
5, 77446, Pitch_bend_c, 5, 8448
5, 77447, Pitch_bend_c, 5, 8320
5, 77450, Pitch_bend_c, 5, 8448
5, 77451, Pitch_bend_c, 5, 8448
5, 77452, Pitch_bend_c, 5, 8576
5, 77454, Pitch_bend_c, 5, 8576
5, 77455, Pitch_bend_c, 5, 8320
5, 77457, Pitch_bend_c, 5, 8704
5, 77459, Pitch_bend_c, 5, 8704
5, 77459, Pitch_bend_c, 5, 8320
5, 77461, Pitch_bend_c, 5, 8704
5, 77463, Pitch_bend_c, 5, 8192
5, 77464, Pitch_bend_c, 5, 8832
5, 77466, Pitch_bend_c, 5, 8704
5, 77468, Pitch_bend_c, 5, 8704
5, 77468, Pitch_bend_c, 5, 8192
5, 77471, Pitch_bend_c, 5, 8704
5, 77472, Pitch_bend_c, 5, 8192
5, 77473, Pitch_bend_c, 5, 8576
5, 77475, Pitch_bend_c, 5, 8576
5, 77476, Pitch_bend_c, 5, 8064
5, 77478, Pitch_bend_c, 5, 8448
5, 77480, Pitch_bend_c, 5, 8320
5, 77480, Pitch_bend_c, 5, 8064
5, 77483, Pitch_bend_c, 5, 8192
5, 77484, Pitch_bend_c, 5, 7936
5, 77485, Pitch_bend_c, 5, 8064
5, 77487, Pitch_bend_c, 5, 7936
5, 77489, Pitch_bend_c, 5, 7936
5, 77490, Pitch_bend_c, 5, 7808
5, 77492, Pitch_bend_c, 5, 7808
5, 77493, Pitch_bend_c, 5, 7936
5, 77494, Pitch_bend_c, 5, 7680
5, 77497, Pitch_bend_c, 5, 7680
5, 77497, Pitch_bend_c, 5, 7936
5, 77499, Pitch_bend_c, 5, 7680
5, 77501, Pitch_bend_c, 5, 7552
5, 77501, Pitch_bend_c, 5, 7936
5, 77504, Pitch_bend_c, 5, 7680
5, 77505, Pitch_bend_c, 5, 7936
5, 77506, Pitch_bend_c, 5, 7680
5, 77508, Pitch_bend_c, 5, 7680
5, 77510, Pitch_bend_c, 5, 7936
5, 77511, Pitch_bend_c, 5, 7808
5, 77513, Pitch_bend_c, 5, 7808
5, 77514, Pitch_bend_c, 5, 7936
5, 77515, Pitch_bend_c, 5, 7936
5, 77518, Pitch_bend_c, 5, 8064
5, 77518, Pitch_bend_c, 5, 7936
5, 77520, Control_c, 4, 7, 81
5, 77520, Control_c, 5, 7, 81
5, 77520, Pitch_bend_c, 5, 8192
5, 77522, Pitch_bend_c, 5, 8320
5, 77522, Pitch_bend_c, 5, 8064
5, 77525, Pitch_bend_c, 5, 8448
5, 77527, Pitch_bend_c, 5, 8448
5, 77527, Pitch_bend_c, 5, 8064
5, 77529, Pitch_bend_c, 5, 8576
5, 77531, Pitch_bend_c, 5, 8192
5, 77532, Pitch_bend_c, 5, 8576
5, 77534, Pitch_bend_c, 5, 8704
5, 77535, Pitch_bend_c, 5, 8192
5, 77536, Pitch_bend_c, 5, 8704
5, 77539, Pitch_bend_c, 5, 8704
5, 77539, Pitch_bend_c, 5, 8192
5, 77541, Pitch_bend_c, 5, 8704
5, 77543, Pitch_bend_c, 5, 8704
5, 77543, Pitch_bend_c, 5, 8320
5, 77546, Pitch_bend_c, 5, 8576
5, 77548, Pitch_bend_c, 5, 8576
5, 77548, Pitch_bend_c, 5, 8320
5, 77550, Pitch_bend_c, 5, 8448
5, 77552, Pitch_bend_c, 5, 8320
5, 77553, Pitch_bend_c, 5, 8320
5, 77555, Pitch_bend_c, 5, 8320
5, 77556, Pitch_bend_c, 5, 8320
5, 77558, Pitch_bend_c, 5, 8192
5, 77560, Pitch_bend_c, 5, 8064
5, 77560, Pitch_bend_c, 5, 8448
5, 77562, Pitch_bend_c, 5, 8064
5, 77565, Pitch_bend_c, 5, 7936
5, 77565, Pitch_bend_c, 5, 8448
5, 77567, Pitch_bend_c, 5, 7808
5, 77569, Pitch_bend_c, 5, 7808
5, 77569, Pitch_bend_c, 5, 8448
5, 77572, Pitch_bend_c, 5, 7680
5, 77573, Pitch_bend_c, 5, 8448
5, 77574, Pitch_bend_c, 5, 7680
5, 77576, Pitch_bend_c, 5, 7680
5, 77577, Pitch_bend_c, 5, 8448
5, 77579, Pitch_bend_c, 5, 7680
5, 77581, Pitch_bend_c, 5, 7680
5, 77581, Pitch_bend_c, 5, 8320
5, 77583, Pitch_bend_c, 5, 7808
5, 77586, Pitch_bend_c, 5, 7808
5, 77586, Pitch_bend_c, 5, 8320
5, 77588, Pitch_bend_c, 5, 7936
5, 77590, Pitch_bend_c, 5, 7936
5, 77590, Pitch_bend_c, 5, 8320
5, 77593, Pitch_bend_c, 5, 8064
5, 77594, Pitch_bend_c, 5, 8320
5, 77595, Pitch_bend_c, 5, 8192
5, 77597, Pitch_bend_c, 5, 8320
5, 77598, Pitch_bend_c, 5, 8192
5, 77600, Pitch_bend_c, 5, 8320
5, 77602, Pitch_bend_c, 5, 8448
5, 77603, Pitch_bend_c, 5, 8192
5, 77604, Pitch_bend_c, 5, 8448
5, 77607, Pitch_bend_c, 5, 8576
5, 77607, Pitch_bend_c, 5, 8192
5, 77609, Pitch_bend_c, 5, 8576
5, 77611, Pitch_bend_c, 5, 8576
5, 77611, Pitch_bend_c, 5, 8064
5, 77614, Pitch_bend_c, 5, 8576
5, 77615, Pitch_bend_c, 5, 8064
5, 77616, Pitch_bend_c, 5, 8576
5, 77618, Pitch_bend_c, 5, 8576
5, 77619, Pitch_bend_c, 5, 8064
5, 77621, Pitch_bend_c, 5, 8576
5, 77623, Pitch_bend_c, 5, 8448
5, 77624, Pitch_bend_c, 5, 8064
5, 77625, Pitch_bend_c, 5, 8448
5, 77628, Pitch_bend_c, 5, 8320
5, 77628, Pitch_bend_c, 5, 7936
5, 77630, Pitch_bend_c, 5, 8320
5, 77632, Pitch_bend_c, 5, 7936
5, 77633, Pitch_bend_c, 5, 8192
5, 77635, Pitch_bend_c, 5, 8064
5, 77636, Pitch_bend_c, 5, 7936
5, 77637, Pitch_bend_c, 5, 8064
5, 77640, Control_c, 4, 7, 89
5, 77640, Control_c, 5, 7, 89
5, 77640, Pitch_bend_c, 5, 7936
5, 77640, Pitch_bend_c, 5, 7936
5, 77642, Pitch_bend_c, 5, 7936
5, 77644, Pitch_bend_c, 5, 7808
5, 77645, Pitch_bend_c, 5, 7936
5, 77647, Pitch_bend_c, 5, 7808
5, 77649, Pitch_bend_c, 5, 7808
5, 77649, Pitch_bend_c, 5, 8064
5, 77651, Pitch_bend_c, 5, 7808
5, 77653, Pitch_bend_c, 5, 8064
5, 77654, Pitch_bend_c, 5, 7808
5, 77656, Pitch_bend_c, 5, 7808
5, 77657, Pitch_bend_c, 5, 8064
5, 77658, Pitch_bend_c, 5, 7808
5, 77661, Pitch_bend_c, 5, 7936
5, 77662, Pitch_bend_c, 5, 8064
5, 77663, Pitch_bend_c, 5, 7936
5, 77665, Pitch_bend_c, 5, 8064
5, 77666, Pitch_bend_c, 5, 8192
5, 77668, Pitch_bend_c, 5, 8064
5, 77670, Pitch_bend_c, 5, 8192
5, 77670, Pitch_bend_c, 5, 8192
5, 77672, Pitch_bend_c, 5, 8192
5, 77674, Pitch_bend_c, 5, 8192
5, 77675, Pitch_bend_c, 5, 8320
5, 77677, Pitch_bend_c, 5, 8320
5, 77678, Pitch_bend_c, 5, 8192
5, 77679, Pitch_bend_c, 5, 8320
5, 77682, Pitch_bend_c, 5, 8448
5, 77683, Pitch_bend_c, 5, 8192
5, 77684, Pitch_bend_c, 5, 8448
5, 77686, Pitch_bend_c, 5, 8448
5, 77687, Pitch_bend_c, 5, 8192
5, 77689, Pitch_bend_c, 5, 8448
5, 77691, Pitch_bend_c, 5, 8448
5, 77691, Pitch_bend_c, 5, 8192
5, 77693, Pitch_bend_c, 5, 8448
5, 77695, Pitch_bend_c, 5, 8192
5, 77696, Pitch_bend_c, 5, 8448
5, 77698, Pitch_bend_c, 5, 8320
5, 77700, Pitch_bend_c, 5, 8320
5, 77700, Pitch_bend_c, 5, 8192
5, 77703, Pitch_bend_c, 5, 8320
5, 77704, Pitch_bend_c, 5, 8192
5, 77705, Pitch_bend_c, 5, 8192
5, 77708, Pitch_bend_c, 5, 8192
5, 77708, Pitch_bend_c, 5, 8192
5, 77710, Pitch_bend_c, 5, 8192
5, 77712, Pitch_bend_c, 5, 8064
5, 77712, Pitch_bend_c, 5, 8192
5, 77715, Pitch_bend_c, 5, 8064
5, 77716, Pitch_bend_c, 5, 8192
5, 77717, Pitch_bend_c, 5, 8064
5, 77719, Pitch_bend_c, 5, 7936
5, 77721, Pitch_bend_c, 5, 8192
5, 77722, Pitch_bend_c, 5, 7936
5, 77724, Pitch_bend_c, 5, 7936
5, 77725, Pitch_bend_c, 5, 8192
5, 77726, Pitch_bend_c, 5, 7936
5, 77729, Pitch_bend_c, 5, 7936
5, 77729, Pitch_bend_c, 5, 8192
5, 77731, Pitch_bend_c, 5, 7936
5, 77733, Pitch_bend_c, 5, 7936
5, 77733, Pitch_bend_c, 5, 8192
5, 77736, Pitch_bend_c, 5, 8064
5, 77738, Pitch_bend_c, 5, 8064
5, 77738, Pitch_bend_c, 5, 8192
5, 77740, Pitch_bend_c, 5, 8064
5, 77742, Pitch_bend_c, 5, 8192
5, 77743, Pitch_bend_c, 5, 8192
5, 77745, Pitch_bend_c, 5, 8192
5, 77746, Pitch_bend_c, 5, 8192
5, 77747, Pitch_bend_c, 5, 8192
5, 77750, Pitch_bend_c, 5, 8192
5, 77750, Pitch_bend_c, 5, 8192
5, 77752, Pitch_bend_c, 5, 8192
5, 77754, Pitch_bend_c, 5, 8192
5, 77754, Pitch_bend_c, 5, 8192
5, 77757, Pitch_bend_c, 5, 8192
5, 77759, Pitch_bend_c, 5, 8192
5, 77759, Pitch_bend_c, 5, 8192
5, 77760, Control_c, 4, 7, 96
5, 77760, Control_c, 5, 7, 96
5, 77760, Pitch_bend_c, 5, 8192
5, 77760, Note_off_c, 5, 69, 80
5, 77760, Pitch_bend_c, 5, 8192
5, 78720, Program_c, 4, 122
5, 78720, Program_c, 5, 122
5, 78720, Control_c, 4, 7, 0
5, 78720, Control_c, 5, 7, 0
5, 80160, Control_c, 4, 7, 7
5, 80160, Control_c, 5, 7, 7
5, 80160, Control_c, 4, 10, 127
5, 80160, Control_c, 5, 10, 127
5, 80160, Pitch_bend_c, 5, 8192
5, 80160, Note_on_c, 5, 69, 95
5, 80160, Pitch_bend_c, 5, 8192
5, 80162, Pitch_bend_c, 5, 8192
5, 80164, Pitch_bend_c, 5, 8192
5, 80165, Pitch_bend_c, 5, 8192
5, 80167, Pitch_bend_c, 5, 8192
5, 80168, Pitch_bend_c, 5, 8192
5, 80169, Pitch_bend_c, 5, 8192
5, 80172, Pitch_bend_c, 5, 8192
5, 80173, Pitch_bend_c, 5, 8192
5, 80174, Pitch_bend_c, 5, 8192
5, 80176, Pitch_bend_c, 5, 8192
5, 80177, Pitch_bend_c, 5, 8192
5, 80179, Pitch_bend_c, 5, 8192
5, 80181, Pitch_bend_c, 5, 8192
5, 80181, Pitch_bend_c, 5, 8192
5, 80183, Pitch_bend_c, 5, 8192
5, 80185, Pitch_bend_c, 5, 8192
5, 80186, Pitch_bend_c, 5, 8192
5, 80188, Pitch_bend_c, 5, 8192
5, 80190, Pitch_bend_c, 5, 8192
5, 80190, Pitch_bend_c, 5, 8192
5, 80193, Pitch_bend_c, 5, 8192
5, 80194, Pitch_bend_c, 5, 8192
5, 80195, Pitch_bend_c, 5, 8192
5, 80198, Pitch_bend_c, 5, 8192
5, 80198, Pitch_bend_c, 5, 8192
5, 80200, Pitch_bend_c, 5, 8192
5, 80202, Pitch_bend_c, 5, 8192
5, 80202, Pitch_bend_c, 5, 8192
5, 80205, Pitch_bend_c, 5, 8192
5, 80206, Pitch_bend_c, 5, 8192
5, 80207, Pitch_bend_c, 5, 8192
5, 80209, Pitch_bend_c, 5, 8192
5, 80211, Pitch_bend_c, 5, 8192
5, 80212, Pitch_bend_c, 5, 8192
5, 80214, Pitch_bend_c, 5, 8192
5, 80215, Pitch_bend_c, 5, 8192
5, 80216, Pitch_bend_c, 5, 8192
5, 80219, Pitch_bend_c, 5, 8192
5, 80219, Pitch_bend_c, 5, 8192
5, 80221, Pitch_bend_c, 5, 8192
5, 80223, Pitch_bend_c, 5, 8192
5, 80223, Pitch_bend_c, 5, 8192
5, 80226, Pitch_bend_c, 5, 8192
5, 80228, Pitch_bend_c, 5, 8192
5, 80228, Pitch_bend_c, 5, 8192
5, 80230, Pitch_bend_c, 5, 8192
5, 80232, Pitch_bend_c, 5, 8192
5, 80233, Pitch_bend_c, 5, 8192
5, 80235, Pitch_bend_c, 5, 8192
5, 80236, Pitch_bend_c, 5, 8192
5, 80237, Pitch_bend_c, 5, 8192
5, 80240, Pitch_bend_c, 5, 8192
5, 80240, Pitch_bend_c, 5, 8192
5, 80242, Pitch_bend_c, 5, 8320
5, 80244, Pitch_bend_c, 5, 8320
5, 80244, Pitch_bend_c, 5, 8192
5, 80247, Pitch_bend_c, 5, 8320
5, 80249, Pitch_bend_c, 5, 8320
5, 80249, Pitch_bend_c, 5, 8192
5, 80251, Pitch_bend_c, 5, 8320
5, 80253, Pitch_bend_c, 5, 8192
5, 80254, Pitch_bend_c, 5, 8320
5, 80256, Pitch_bend_c, 5, 8320
5, 80257, Pitch_bend_c, 5, 8192
5, 80258, Pitch_bend_c, 5, 8320
5, 80261, Pitch_bend_c, 5, 8320
5, 80261, Pitch_bend_c, 5, 8192
5, 80263, Pitch_bend_c, 5, 8320
5, 80265, Pitch_bend_c, 5, 8320
5, 80265, Pitch_bend_c, 5, 8192
5, 80268, Pitch_bend_c, 5, 8192
5, 80270, Pitch_bend_c, 5, 8192
5, 80270, Pitch_bend_c, 5, 8192
5, 80273, Pitch_bend_c, 5, 8192
5, 80274, Pitch_bend_c, 5, 8192
5, 80275, Pitch_bend_c, 5, 8192
5, 80277, Pitch_bend_c, 5, 8192
5, 80278, Pitch_bend_c, 5, 8192
5, 80280, Control_c, 4, 7, 15
5, 80280, Control_c, 5, 7, 15
5, 80280, Pitch_bend_c, 5, 8064
5, 80282, Pitch_bend_c, 5, 8064
5, 80282, Pitch_bend_c, 5, 8192
5, 80284, Pitch_bend_c, 5, 8064
5, 80287, Pitch_bend_c, 5, 8064
5, 80287, Pitch_bend_c, 5, 8192
5, 80289, Pitch_bend_c, 5, 8064
5, 80291, Pitch_bend_c, 5, 8064
5, 80291, Pitch_bend_c, 5, 8192
5, 80294, Pitch_bend_c, 5, 8064
5, 80295, Pitch_bend_c, 5, 8192
5, 80296, Pitch_bend_c, 5, 8064
5, 80298, Pitch_bend_c, 5, 8064
5, 80299, Pitch_bend_c, 5, 8192
5, 80301, Pitch_bend_c, 5, 8064
5, 80303, Pitch_bend_c, 5, 8064
5, 80303, Pitch_bend_c, 5, 8192
5, 80305, Pitch_bend_c, 5, 8192
5, 80308, Pitch_bend_c, 5, 8192
5, 80308, Pitch_bend_c, 5, 8192
5, 80310, Pitch_bend_c, 5, 8192
5, 80312, Pitch_bend_c, 5, 8320
5, 80312, Pitch_bend_c, 5, 8320
5, 80315, Pitch_bend_c, 5, 8320
5, 80316, Pitch_bend_c, 5, 8320
5, 80317, Pitch_bend_c, 5, 8448
5, 80319, Pitch_bend_c, 5, 8448
5, 80320, Pitch_bend_c, 5, 8320
5, 80322, Pitch_bend_c, 5, 8576
5, 80324, Pitch_bend_c, 5, 8576
5, 80325, Pitch_bend_c, 5, 8320
5, 80326, Pitch_bend_c, 5, 8576
5, 80329, Pitch_bend_c, 5, 8576
5, 80329, Pitch_bend_c, 5, 8320
5, 80331, Pitch_bend_c, 5, 8576
5, 80333, Pitch_bend_c, 5, 8576
5, 80333, Pitch_bend_c, 5, 8320
5, 80336, Pitch_bend_c, 5, 8576
5, 80337, Pitch_bend_c, 5, 8320
5, 80338, Pitch_bend_c, 5, 8448
5, 80340, Pitch_bend_c, 5, 8448
5, 80341, Pitch_bend_c, 5, 8320
5, 80343, Pitch_bend_c, 5, 8320
5, 80345, Pitch_bend_c, 5, 8320
5, 80346, Pitch_bend_c, 5, 8320
5, 80348, Pitch_bend_c, 5, 8192
5, 80350, Pitch_bend_c, 5, 8064
5, 80350, Pitch_bend_c, 5, 8192
5, 80352, Pitch_bend_c, 5, 8064
5, 80354, Pitch_bend_c, 5, 8192
5, 80355, Pitch_bend_c, 5, 7936
5, 80357, Pitch_bend_c, 5, 7936
5, 80358, Pitch_bend_c, 5, 8192
5, 80359, Pitch_bend_c, 5, 7808
5, 80362, Pitch_bend_c, 5, 7808
5, 80363, Pitch_bend_c, 5, 8192
5, 80364, Pitch_bend_c, 5, 7808
5, 80366, Pitch_bend_c, 5, 7808
5, 80367, Pitch_bend_c, 5, 8192
5, 80369, Pitch_bend_c, 5, 7808
5, 80371, Pitch_bend_c, 5, 7808
5, 80371, Pitch_bend_c, 5, 8192
5, 80373, Pitch_bend_c, 5, 7808
5, 80375, Pitch_bend_c, 5, 8192
5, 80376, Pitch_bend_c, 5, 7936
5, 80378, Pitch_bend_c, 5, 7936
5, 80379, Pitch_bend_c, 5, 8064
5, 80380, Pitch_bend_c, 5, 8064
5, 80383, Pitch_bend_c, 5, 8064
5, 80384, Pitch_bend_c, 5, 8064
5, 80385, Pitch_bend_c, 5, 8192
5, 80387, Pitch_bend_c, 5, 8320
5, 80388, Pitch_bend_c, 5, 8064
5, 80390, Pitch_bend_c, 5, 8320
5, 80392, Pitch_bend_c, 5, 8448
5, 80392, Pitch_bend_c, 5, 8064
5, 80394, Pitch_bend_c, 5, 8576
5, 80396, Pitch_bend_c, 5, 8064
5, 80397, Pitch_bend_c, 5, 8576
5, 80399, Pitch_bend_c, 5, 8576
5, 80400, Control_c, 4, 7, 22
5, 80400, Control_c, 5, 7, 22
5, 80400, Pitch_bend_c, 5, 8064
5, 80401, Pitch_bend_c, 5, 8704
5, 80404, Pitch_bend_c, 5, 8704
5, 80405, Pitch_bend_c, 5, 8064
5, 80406, Pitch_bend_c, 5, 8704
5, 80408, Pitch_bend_c, 5, 8704
5, 80409, Pitch_bend_c, 5, 8064
5, 80411, Pitch_bend_c, 5, 8576
5, 80413, Pitch_bend_c, 5, 8576
5, 80413, Pitch_bend_c, 5, 8064
5, 80415, Pitch_bend_c, 5, 8448
5, 80417, Pitch_bend_c, 5, 8192
5, 80418, Pitch_bend_c, 5, 8320
5, 80420, Pitch_bend_c, 5, 8320
5, 80422, Pitch_bend_c, 5, 8192
5, 80423, Pitch_bend_c, 5, 8192
5, 80425, Pitch_bend_c, 5, 8064
5, 80426, Pitch_bend_c, 5, 8192
5, 80427, Pitch_bend_c, 5, 8064
5, 80430, Pitch_bend_c, 5, 7936
5, 80430, Pitch_bend_c, 5, 8192
5, 80432, Pitch_bend_c, 5, 7808
5, 80434, Pitch_bend_c, 5, 7808
5, 80434, Pitch_bend_c, 5, 8192
5, 80437, Pitch_bend_c, 5, 7680
5, 80438, Pitch_bend_c, 5, 8320
5, 80439, Pitch_bend_c, 5, 7680
5, 80441, Pitch_bend_c, 5, 7680
5, 80443, Pitch_bend_c, 5, 8320
5, 80444, Pitch_bend_c, 5, 7680
5, 80446, Pitch_bend_c, 5, 7808
5, 80447, Pitch_bend_c, 5, 8320
5, 80448, Pitch_bend_c, 5, 7808
5, 80451, Pitch_bend_c, 5, 7808
5, 80451, Pitch_bend_c, 5, 8320
5, 80453, Pitch_bend_c, 5, 7936
5, 80455, Pitch_bend_c, 5, 8064
5, 80455, Pitch_bend_c, 5, 8320
5, 80458, Pitch_bend_c, 5, 8064
5, 80460, Pitch_bend_c, 5, 8192
5, 80460, Pitch_bend_c, 5, 8448
5, 80462, Pitch_bend_c, 5, 8320
5, 80464, Pitch_bend_c, 5, 8448
5, 80465, Pitch_bend_c, 5, 8448
5, 80467, Pitch_bend_c, 5, 8448
5, 80468, Pitch_bend_c, 5, 8448
5, 80469, Pitch_bend_c, 5, 8576
5, 80472, Pitch_bend_c, 5, 8576
5, 80472, Pitch_bend_c, 5, 8320
5, 80474, Pitch_bend_c, 5, 8704
5, 80476, Pitch_bend_c, 5, 8704
5, 80476, Pitch_bend_c, 5, 8320
5, 80479, Pitch_bend_c, 5, 8704
5, 80481, Pitch_bend_c, 5, 8704
5, 80481, Pitch_bend_c, 5, 8320
5, 80483, Pitch_bend_c, 5, 8704
5, 80485, Pitch_bend_c, 5, 8320
5, 80486, Pitch_bend_c, 5, 8576
5, 80488, Pitch_bend_c, 5, 8576
5, 80489, Pitch_bend_c, 5, 8320
5, 80490, Pitch_bend_c, 5, 8448
5, 80493, Pitch_bend_c, 5, 8320
5, 80493, Pitch_bend_c, 5, 8192
5, 80495, Pitch_bend_c, 5, 8320
5, 80498, Pitch_bend_c, 5, 8192
5, 80498, Pitch_bend_c, 5, 8192
5, 80500, Pitch_bend_c, 5, 8064
5, 80502, Pitch_bend_c, 5, 8064
5, 80502, Pitch_bend_c, 5, 8192
5, 80505, Pitch_bend_c, 5, 7936
5, 80506, Pitch_bend_c, 5, 8064
5, 80507, Pitch_bend_c, 5, 7808
5, 80509, Pitch_bend_c, 5, 7808
5, 80510, Pitch_bend_c, 5, 8064
5, 80512, Pitch_bend_c, 5, 7680
5, 80514, Pitch_bend_c, 5, 7680
5, 80514, Pitch_bend_c, 5, 8064
5, 80516, Pitch_bend_c, 5, 7680
5, 80519, Pitch_bend_c, 5, 7680
5, 80519, Pitch_bend_c, 5, 8064
5, 80520, Control_c, 4, 7, 30
5, 80520, Control_c, 5, 7, 30
5, 80521, Pitch_bend_c, 5, 7680
5, 80523, Pitch_bend_c, 5, 7808
5, 80523, Pitch_bend_c, 5, 8064
5, 80526, Pitch_bend_c, 5, 7808
5, 80527, Pitch_bend_c, 5, 7936
5, 80528, Pitch_bend_c, 5, 7936
5, 80530, Pitch_bend_c, 5, 7936
5, 80531, Pitch_bend_c, 5, 7936
5, 80533, Pitch_bend_c, 5, 8064
5, 80535, Pitch_bend_c, 5, 8192
5, 80535, Pitch_bend_c, 5, 7936
5, 80537, Pitch_bend_c, 5, 8320
5, 80540, Pitch_bend_c, 5, 8320
5, 80540, Pitch_bend_c, 5, 8064
5, 80542, Pitch_bend_c, 5, 8448
5, 80544, Pitch_bend_c, 5, 8576
5, 80544, Pitch_bend_c, 5, 8064
5, 80547, Pitch_bend_c, 5, 8576
5, 80548, Pitch_bend_c, 5, 8064
5, 80549, Pitch_bend_c, 5, 8576
5, 80551, Pitch_bend_c, 5, 8704
5, 80552, Pitch_bend_c, 5, 8064
5, 80554, Pitch_bend_c, 5, 8704
5, 80556, Pitch_bend_c, 5, 8704
5, 80557, Pitch_bend_c, 5, 8064
5, 80558, Pitch_bend_c, 5, 8704
5, 80561, Pitch_bend_c, 5, 8576
5, 80561, Pitch_bend_c, 5, 8192
5, 80563, Pitch_bend_c, 5, 8576
5, 80565, Pitch_bend_c, 5, 8448
5, 80565, Pitch_bend_c, 5, 8192
5, 80568, Pitch_bend_c, 5, 8320
5, 80569, Pitch_bend_c, 5, 8192
5, 80570, Pitch_bend_c, 5, 8320
5, 80573, Pitch_bend_c, 5, 8192
5, 80573, Pitch_bend_c, 5, 8320
5, 80575, Pitch_bend_c, 5, 8064
5, 80577, Pitch_bend_c, 5, 8064
5, 80578, Pitch_bend_c, 5, 8320
5, 80580, Pitch_bend_c, 5, 7936
5, 80582, Pitch_bend_c, 5, 7808
5, 80582, Pitch_bend_c, 5, 8320
5, 80584, Pitch_bend_c, 5, 7808
5, 80586, Pitch_bend_c, 5, 8448
5, 80587, Pitch_bend_c, 5, 7680
5, 80589, Pitch_bend_c, 5, 7680
5, 80590, Pitch_bend_c, 5, 8448
5, 80591, Pitch_bend_c, 5, 7680
5, 80594, Pitch_bend_c, 5, 7680
5, 80595, Pitch_bend_c, 5, 8448
5, 80596, Pitch_bend_c, 5, 7808
5, 80598, Pitch_bend_c, 5, 7808
5, 80599, Pitch_bend_c, 5, 8448
5, 80601, Pitch_bend_c, 5, 7808
5, 80603, Pitch_bend_c, 5, 7936
5, 80603, Pitch_bend_c, 5, 8448
5, 80605, Pitch_bend_c, 5, 8064
5, 80607, Pitch_bend_c, 5, 8448
5, 80608, Pitch_bend_c, 5, 8064
5, 80610, Pitch_bend_c, 5, 8192
5, 80611, Pitch_bend_c, 5, 8448
5, 80612, Pitch_bend_c, 5, 8320
5, 80615, Pitch_bend_c, 5, 8320
5, 80616, Pitch_bend_c, 5, 8320
5, 80617, Pitch_bend_c, 5, 8448
5, 80619, Pitch_bend_c, 5, 8576
5, 80620, Pitch_bend_c, 5, 8320
5, 80622, Pitch_bend_c, 5, 8576
5, 80624, Pitch_bend_c, 5, 8576
5, 80624, Pitch_bend_c, 5, 8320
5, 80626, Pitch_bend_c, 5, 8704
5, 80628, Pitch_bend_c, 5, 8192
5, 80629, Pitch_bend_c, 5, 8704
5, 80631, Pitch_bend_c, 5, 8704
5, 80633, Pitch_bend_c, 5, 8704
5, 80633, Pitch_bend_c, 5, 8192
5, 80636, Pitch_bend_c, 5, 8576
5, 80637, Pitch_bend_c, 5, 8192
5, 80638, Pitch_bend_c, 5, 8576
5, 80640, Control_c, 4, 7, 37
5, 80640, Control_c, 5, 7, 37
5, 80640, Pitch_bend_c, 5, 8448
5, 80641, Pitch_bend_c, 5, 8064
5, 80643, Pitch_bend_c, 5, 8320
5, 80645, Pitch_bend_c, 5, 8320
5, 80645, Pitch_bend_c, 5, 8064
5, 80648, Pitch_bend_c, 5, 8192
5, 80649, Pitch_bend_c, 5, 8064
5, 80650, Pitch_bend_c, 5, 8064
5, 80652, Pitch_bend_c, 5, 8064
5, 80654, Pitch_bend_c, 5, 7936
5, 80655, Pitch_bend_c, 5, 7936
5, 80657, Pitch_bend_c, 5, 7808
5, 80658, Pitch_bend_c, 5, 7936
5, 80659, Pitch_bend_c, 5, 7808
5, 80662, Pitch_bend_c, 5, 7680
5, 80662, Pitch_bend_c, 5, 7936
5, 80664, Pitch_bend_c, 5, 7680
5, 80666, Pitch_bend_c, 5, 7680
5, 80666, Pitch_bend_c, 5, 7936
5, 80669, Pitch_bend_c, 5, 7680
5, 80670, Pitch_bend_c, 5, 7936
5, 80671, Pitch_bend_c, 5, 7808
5, 80673, Pitch_bend_c, 5, 7808
5, 80675, Pitch_bend_c, 5, 7936
5, 80676, Pitch_bend_c, 5, 7808
5, 80678, Pitch_bend_c, 5, 7936
5, 80679, Pitch_bend_c, 5, 7936
5, 80680, Pitch_bend_c, 5, 8064
5, 80683, Pitch_bend_c, 5, 8064
5, 80683, Pitch_bend_c, 5, 8064
5, 80685, Pitch_bend_c, 5, 8192
5, 80687, Pitch_bend_c, 5, 8320
5, 80687, Pitch_bend_c, 5, 8064
5, 80690, Pitch_bend_c, 5, 8448
5, 80692, Pitch_bend_c, 5, 8576
5, 80692, Pitch_bend_c, 5, 8064
5, 80694, Pitch_bend_c, 5, 8576
5, 80696, Pitch_bend_c, 5, 8192
5, 80697, Pitch_bend_c, 5, 8704
5, 80699, Pitch_bend_c, 5, 8704
5, 80700, Pitch_bend_c, 5, 8192
5, 80701, Pitch_bend_c, 5, 8704
5, 80704, Pitch_bend_c, 5, 8832
5, 80704, Pitch_bend_c, 5, 8192
5, 80706, Pitch_bend_c, 5, 8704
5, 80708, Pitch_bend_c, 5, 8704
5, 80708, Pitch_bend_c, 5, 8320
5, 80711, Pitch_bend_c, 5, 8704
5, 80713, Pitch_bend_c, 5, 8576
5, 80713, Pitch_bend_c, 5, 8320
5, 80715, Pitch_bend_c, 5, 8576
5, 80717, Pitch_bend_c, 5, 8320
5, 80718, Pitch_bend_c, 5, 8448
5, 80720, Pitch_bend_c, 5, 8320
5, 80721, Pitch_bend_c, 5, 8448
5, 80723, Pitch_bend_c, 5, 8192
5, 80725, Pitch_bend_c, 5, 8064
5, 80725, Pitch_bend_c, 5, 8448
5, 80727, Pitch_bend_c, 5, 7936
5, 80730, Pitch_bend_c, 5, 7808
5, 80730, Pitch_bend_c, 5, 8448
5, 80732, Pitch_bend_c, 5, 7808
5, 80734, Pitch_bend_c, 5, 7680
5, 80734, Pitch_bend_c, 5, 8448
5, 80737, Pitch_bend_c, 5, 7680
5, 80738, Pitch_bend_c, 5, 8448
5, 80739, Pitch_bend_c, 5, 7680
5, 80741, Pitch_bend_c, 5, 7552
5, 80742, Pitch_bend_c, 5, 8448
5, 80744, Pitch_bend_c, 5, 7680
5, 80746, Pitch_bend_c, 5, 7680
5, 80746, Pitch_bend_c, 5, 8448
5, 80748, Pitch_bend_c, 5, 7680
5, 80751, Pitch_bend_c, 5, 7808
5, 80751, Pitch_bend_c, 5, 8320
5, 80753, Pitch_bend_c, 5, 7808
5, 80755, Pitch_bend_c, 5, 7936
5, 80755, Pitch_bend_c, 5, 8320
5, 80758, Pitch_bend_c, 5, 8064
5, 80759, Pitch_bend_c, 5, 8320
5, 80760, Control_c, 4, 7, 44
5, 80760, Control_c, 5, 7, 44
5, 80760, Pitch_bend_c, 5, 8192
5, 80762, Pitch_bend_c, 5, 8320
5, 80763, Pitch_bend_c, 5, 8192
5, 80765, Pitch_bend_c, 5, 8448
5, 80767, Pitch_bend_c, 5, 8448
5, 80768, Pitch_bend_c, 5, 8192
5, 80769, Pitch_bend_c, 5, 8576
5, 80772, Pitch_bend_c, 5, 8704
5, 80772, Pitch_bend_c, 5, 8192
5, 80774, Pitch_bend_c, 5, 8704
5, 80776, Pitch_bend_c, 5, 8704
5, 80776, Pitch_bend_c, 5, 8064
5, 80779, Pitch_bend_c, 5, 8704
5, 80780, Pitch_bend_c, 5, 8064
5, 80781, Pitch_bend_c, 5, 8704
5, 80783, Pitch_bend_c, 5, 8704
5, 80784, Pitch_bend_c, 5, 8064
5, 80786, Pitch_bend_c, 5, 8704
5, 80788, Pitch_bend_c, 5, 8576
5, 80789, Pitch_bend_c, 5, 7936
5, 80790, Pitch_bend_c, 5, 8576
5, 80793, Pitch_bend_c, 5, 8448
5, 80793, Pitch_bend_c, 5, 7936
5, 80795, Pitch_bend_c, 5, 8320
5, 80797, Pitch_bend_c, 5, 7936
5, 80798, Pitch_bend_c, 5, 8192
5, 80800, Pitch_bend_c, 5, 8064
5, 80801, Pitch_bend_c, 5, 7936
5, 80802, Pitch_bend_c, 5, 7936
5, 80805, Pitch_bend_c, 5, 7808
5, 80805, Pitch_bend_c, 5, 7936
5, 80807, Pitch_bend_c, 5, 7808
5, 80809, Pitch_bend_c, 5, 7680
5, 80810, Pitch_bend_c, 5, 7936
5, 80812, Pitch_bend_c, 5, 7680
5, 80814, Pitch_bend_c, 5, 7680
5, 80814, Pitch_bend_c, 5, 7936
5, 80816, Pitch_bend_c, 5, 7680
5, 80818, Pitch_bend_c, 5, 8064
5, 80819, Pitch_bend_c, 5, 7680
5, 80821, Pitch_bend_c, 5, 7680
5, 80822, Pitch_bend_c, 5, 8064
5, 80823, Pitch_bend_c, 5, 7680
5, 80826, Pitch_bend_c, 5, 7808
5, 80827, Pitch_bend_c, 5, 8064
5, 80828, Pitch_bend_c, 5, 7936
5, 80830, Pitch_bend_c, 5, 7936
5, 80831, Pitch_bend_c, 5, 8192
5, 80833, Pitch_bend_c, 5, 8064
5, 80835, Pitch_bend_c, 5, 8192
5, 80835, Pitch_bend_c, 5, 8192
5, 80837, Pitch_bend_c, 5, 8320
5, 80839, Pitch_bend_c, 5, 8192
5, 80840, Pitch_bend_c, 5, 8448
5, 80842, Pitch_bend_c, 5, 8448
5, 80843, Pitch_bend_c, 5, 8320
5, 80844, Pitch_bend_c, 5, 8576
5, 80847, Pitch_bend_c, 5, 8704
5, 80848, Pitch_bend_c, 5, 8320
5, 80849, Pitch_bend_c, 5, 8704
5, 80851, Pitch_bend_c, 5, 8704
5, 80852, Pitch_bend_c, 5, 8320
5, 80854, Pitch_bend_c, 5, 8704
5, 80856, Pitch_bend_c, 5, 8704
5, 80856, Pitch_bend_c, 5, 8320
5, 80858, Pitch_bend_c, 5, 8704
5, 80860, Pitch_bend_c, 5, 8320
5, 80861, Pitch_bend_c, 5, 8704
5, 80863, Pitch_bend_c, 5, 8576
5, 80865, Pitch_bend_c, 5, 8576
5, 80865, Pitch_bend_c, 5, 8448
5, 80868, Pitch_bend_c, 5, 8448
5, 80869, Pitch_bend_c, 5, 8448
5, 80870, Pitch_bend_c, 5, 8320
5, 80873, Pitch_bend_c, 5, 8192
5, 80873, Pitch_bend_c, 5, 8448
5, 80875, Pitch_bend_c, 5, 8064
5, 80877, Pitch_bend_c, 5, 7936
5, 80877, Pitch_bend_c, 5, 8320
5, 80880, Control_c, 4, 7, 52
5, 80880, Control_c, 5, 7, 52
5, 80880, Pitch_bend_c, 5, 7808
5, 80881, Pitch_bend_c, 5, 8320
5, 80882, Pitch_bend_c, 5, 7808
5, 80884, Pitch_bend_c, 5, 7680
5, 80886, Pitch_bend_c, 5, 8320
5, 80887, Pitch_bend_c, 5, 7680
5, 80889, Pitch_bend_c, 5, 7680
5, 80890, Pitch_bend_c, 5, 8320
5, 80891, Pitch_bend_c, 5, 7680
5, 80894, Pitch_bend_c, 5, 7680
5, 80894, Pitch_bend_c, 5, 8320
5, 80896, Pitch_bend_c, 5, 7680
5, 80898, Pitch_bend_c, 5, 7680
5, 80898, Pitch_bend_c, 5, 8192
5, 80901, Pitch_bend_c, 5, 7808
5, 80903, Pitch_bend_c, 5, 7936
5, 80903, Pitch_bend_c, 5, 8192
5, 80905, Pitch_bend_c, 5, 7936
5, 80907, Pitch_bend_c, 5, 8192
5, 80908, Pitch_bend_c, 5, 8064
5, 80910, Pitch_bend_c, 5, 8192
5, 80911, Pitch_bend_c, 5, 8064
5, 80912, Pitch_bend_c, 5, 8320
5, 80915, Pitch_bend_c, 5, 8448
5, 80915, Pitch_bend_c, 5, 8064
5, 80917, Pitch_bend_c, 5, 8576
5, 80919, Pitch_bend_c, 5, 8576
5, 80919, Pitch_bend_c, 5, 8064
5, 80922, Pitch_bend_c, 5, 8704
5, 80924, Pitch_bend_c, 5, 8704
5, 80924, Pitch_bend_c, 5, 8064
5, 80926, Pitch_bend_c, 5, 8704
5, 80928, Pitch_bend_c, 5, 8064
5, 80929, Pitch_bend_c, 5, 8832
5, 80931, Pitch_bend_c, 5, 8704
5, 80932, Pitch_bend_c, 5, 7936
5, 80933, Pitch_bend_c, 5, 8704
5, 80936, Pitch_bend_c, 5, 8704
5, 80936, Pitch_bend_c, 5, 7936
5, 80938, Pitch_bend_c, 5, 8576
5, 80940, Pitch_bend_c, 5, 8576
5, 80940, Pitch_bend_c, 5, 7936
5, 80943, Pitch_bend_c, 5, 8448
5, 80945, Pitch_bend_c, 5, 8320
5, 80945, Pitch_bend_c, 5, 8064
5, 80948, Pitch_bend_c, 5, 8192
5, 80949, Pitch_bend_c, 5, 8064
5, 80950, Pitch_bend_c, 5, 8064
5, 80952, Pitch_bend_c, 5, 7936
5, 80953, Pitch_bend_c, 5, 8064
5, 80955, Pitch_bend_c, 5, 7808
5, 80957, Pitch_bend_c, 5, 7808
5, 80957, Pitch_bend_c, 5, 8064
5, 80959, Pitch_bend_c, 5, 7680
5, 80962, Pitch_bend_c, 5, 7680
5, 80962, Pitch_bend_c, 5, 8064
5, 80964, Pitch_bend_c, 5, 7680
5, 80966, Pitch_bend_c, 5, 7552
5, 80966, Pitch_bend_c, 5, 8192
5, 80969, Pitch_bend_c, 5, 7680
5, 80970, Pitch_bend_c, 5, 8192
5, 80971, Pitch_bend_c, 5, 7680
5, 80973, Pitch_bend_c, 5, 7680
5, 80974, Pitch_bend_c, 5, 8192
5, 80976, Pitch_bend_c, 5, 7808
5, 80978, Pitch_bend_c, 5, 7808
5, 80978, Pitch_bend_c, 5, 8320
5, 80980, Pitch_bend_c, 5, 7936
5, 80983, Pitch_bend_c, 5, 8064
5, 80983, Pitch_bend_c, 5, 8320
5, 80985, Pitch_bend_c, 5, 8192
5, 80987, Pitch_bend_c, 5, 8320
5, 80987, Pitch_bend_c, 5, 8320
5, 80990, Pitch_bend_c, 5, 8448
5, 80991, Pitch_bend_c, 5, 8320
5, 80992, Pitch_bend_c, 5, 8448
5, 80994, Pitch_bend_c, 5, 8576
5, 80995, Pitch_bend_c, 5, 8448
5, 80997, Pitch_bend_c, 5, 8704
5, 80999, Pitch_bend_c, 5, 8704
5, 81000, Control_c, 4, 7, 59
5, 81000, Control_c, 5, 7, 59
5, 81000, Pitch_bend_c, 5, 8448
5, 81001, Pitch_bend_c, 5, 8704
5, 81004, Pitch_bend_c, 5, 8704
5, 81004, Pitch_bend_c, 5, 8448
5, 81006, Pitch_bend_c, 5, 8704
5, 81008, Pitch_bend_c, 5, 8704
5, 81008, Pitch_bend_c, 5, 8448
5, 81011, Pitch_bend_c, 5, 8576
5, 81012, Pitch_bend_c, 5, 8448
5, 81013, Pitch_bend_c, 5, 8576
5, 81015, Pitch_bend_c, 5, 8448
5, 81016, Pitch_bend_c, 5, 8320
5, 81018, Pitch_bend_c, 5, 8320
5, 81020, Pitch_bend_c, 5, 8320
5, 81021, Pitch_bend_c, 5, 8320
5, 81023, Pitch_bend_c, 5, 8192
5, 81025, Pitch_bend_c, 5, 8064
5, 81025, Pitch_bend_c, 5, 8320
5, 81027, Pitch_bend_c, 5, 8064
5, 81029, Pitch_bend_c, 5, 8320
5, 81030, Pitch_bend_c, 5, 7936
5, 81032, Pitch_bend_c, 5, 7808
5, 81033, Pitch_bend_c, 5, 8192
5, 81034, Pitch_bend_c, 5, 7808
5, 81037, Pitch_bend_c, 5, 7680
5, 81038, Pitch_bend_c, 5, 8192
5, 81039, Pitch_bend_c, 5, 7680
5, 81041, Pitch_bend_c, 5, 7680
5, 81042, Pitch_bend_c, 5, 8192
5, 81044, Pitch_bend_c, 5, 7680
5, 81046, Pitch_bend_c, 5, 7680
5, 81046, Pitch_bend_c, 5, 8064
5, 81048, Pitch_bend_c, 5, 7680
5, 81050, Pitch_bend_c, 5, 8064
5, 81051, Pitch_bend_c, 5, 7808
5, 81053, Pitch_bend_c, 5, 7936
5, 81054, Pitch_bend_c, 5, 8064
5, 81055, Pitch_bend_c, 5, 7936
5, 81058, Pitch_bend_c, 5, 8064
5, 81059, Pitch_bend_c, 5, 8064
5, 81060, Pitch_bend_c, 5, 8192
5, 81062, Pitch_bend_c, 5, 8320
5, 81063, Pitch_bend_c, 5, 7936
5, 81065, Pitch_bend_c, 5, 8448
5, 81067, Pitch_bend_c, 5, 8448
5, 81067, Pitch_bend_c, 5, 7936
5, 81069, Pitch_bend_c, 5, 8576
5, 81071, Pitch_bend_c, 5, 7936
5, 81072, Pitch_bend_c, 5, 8704
5, 81074, Pitch_bend_c, 5, 8704
5, 81075, Pitch_bend_c, 5, 7936
5, 81076, Pitch_bend_c, 5, 8704
5, 81079, Pitch_bend_c, 5, 8704
5, 81080, Pitch_bend_c, 5, 7936
5, 81081, Pitch_bend_c, 5, 8704
5, 81083, Pitch_bend_c, 5, 8704
5, 81084, Pitch_bend_c, 5, 8064
5, 81086, Pitch_bend_c, 5, 8576
5, 81088, Pitch_bend_c, 5, 8576
5, 81088, Pitch_bend_c, 5, 8064
5, 81090, Pitch_bend_c, 5, 8448
5, 81092, Pitch_bend_c, 5, 8064
5, 81093, Pitch_bend_c, 5, 8320
5, 81095, Pitch_bend_c, 5, 8320
5, 81097, Pitch_bend_c, 5, 8064
5, 81098, Pitch_bend_c, 5, 8192
5, 81100, Pitch_bend_c, 5, 8064
5, 81101, Pitch_bend_c, 5, 8192
5, 81102, Pitch_bend_c, 5, 8064
5, 81105, Pitch_bend_c, 5, 7936
5, 81105, Pitch_bend_c, 5, 8192
5, 81107, Pitch_bend_c, 5, 7808
5, 81109, Pitch_bend_c, 5, 7808
5, 81109, Pitch_bend_c, 5, 8192
5, 81112, Pitch_bend_c, 5, 7680
5, 81113, Pitch_bend_c, 5, 8320
5, 81114, Pitch_bend_c, 5, 7680
5, 81116, Pitch_bend_c, 5, 7680
5, 81118, Pitch_bend_c, 5, 8320
5, 81119, Pitch_bend_c, 5, 7680
5, 81120, Control_c, 4, 7, 66
5, 81120, Control_c, 5, 7, 66
5, 81121, Pitch_bend_c, 5, 7680
5, 81122, Pitch_bend_c, 5, 8448
5, 81123, Pitch_bend_c, 5, 7680
5, 81126, Pitch_bend_c, 5, 7808
5, 81126, Pitch_bend_c, 5, 8448
5, 81128, Pitch_bend_c, 5, 7936
5, 81130, Pitch_bend_c, 5, 7936
5, 81130, Pitch_bend_c, 5, 8448
5, 81133, Pitch_bend_c, 5, 8064
5, 81135, Pitch_bend_c, 5, 8192
5, 81135, Pitch_bend_c, 5, 8448
5, 81137, Pitch_bend_c, 5, 8320
5, 81139, Pitch_bend_c, 5, 8448
5, 81140, Pitch_bend_c, 5, 8448
5, 81142, Pitch_bend_c, 5, 8448
5, 81143, Pitch_bend_c, 5, 8448
5, 81144, Pitch_bend_c, 5, 8576
5, 81147, Pitch_bend_c, 5, 8576
5, 81147, Pitch_bend_c, 5, 8448
5, 81149, Pitch_bend_c, 5, 8704
5, 81151, Pitch_bend_c, 5, 8704
5, 81151, Pitch_bend_c, 5, 8448
5, 81154, Pitch_bend_c, 5, 8704
5, 81156, Pitch_bend_c, 5, 8704
5, 81156, Pitch_bend_c, 5, 8448
5, 81158, Pitch_bend_c, 5, 8704
5, 81160, Pitch_bend_c, 5, 8320
5, 81161, Pitch_bend_c, 5, 8576
5, 81163, Pitch_bend_c, 5, 8576
5, 81164, Pitch_bend_c, 5, 8320
5, 81165, Pitch_bend_c, 5, 8448
5, 81168, Pitch_bend_c, 5, 8320
5, 81168, Pitch_bend_c, 5, 8320
5, 81170, Pitch_bend_c, 5, 8320
5, 81173, Pitch_bend_c, 5, 8192
5, 81173, Pitch_bend_c, 5, 8192
5, 81175, Pitch_bend_c, 5, 8064
5, 81177, Pitch_bend_c, 5, 8064
5, 81177, Pitch_bend_c, 5, 8064
5, 81180, Pitch_bend_c, 5, 7936
5, 81181, Pitch_bend_c, 5, 8064
5, 81182, Pitch_bend_c, 5, 7808
5, 81184, Pitch_bend_c, 5, 7808
5, 81185, Pitch_bend_c, 5, 8064
5, 81187, Pitch_bend_c, 5, 7680
5, 81189, Pitch_bend_c, 5, 7680
5, 81189, Pitch_bend_c, 5, 7936
5, 81191, Pitch_bend_c, 5, 7680
5, 81194, Pitch_bend_c, 5, 7680
5, 81194, Pitch_bend_c, 5, 7936
5, 81196, Pitch_bend_c, 5, 7680
5, 81198, Pitch_bend_c, 5, 7808
5, 81198, Pitch_bend_c, 5, 7936
5, 81201, Pitch_bend_c, 5, 7808
5, 81202, Pitch_bend_c, 5, 7936
5, 81203, Pitch_bend_c, 5, 7936
5, 81205, Pitch_bend_c, 5, 7936
5, 81206, Pitch_bend_c, 5, 7936
5, 81208, Pitch_bend_c, 5, 8064
5, 81210, Pitch_bend_c, 5, 8192
5, 81210, Pitch_bend_c, 5, 7936
5, 81212, Pitch_bend_c, 5, 8320
5, 81215, Pitch_bend_c, 5, 8448
5, 81215, Pitch_bend_c, 5, 7936
5, 81217, Pitch_bend_c, 5, 8448
5, 81219, Pitch_bend_c, 5, 8576
5, 81219, Pitch_bend_c, 5, 7936
5, 81222, Pitch_bend_c, 5, 8576
5, 81223, Pitch_bend_c, 5, 7936
5, 81224, Pitch_bend_c, 5, 8704
5, 81226, Pitch_bend_c, 5, 8704
5, 81227, Pitch_bend_c, 5, 8064
5, 81229, Pitch_bend_c, 5, 8704
5, 81231, Pitch_bend_c, 5, 8704
5, 81232, Pitch_bend_c, 5, 8064
5, 81233, Pitch_bend_c, 5, 8704
5, 81236, Pitch_bend_c, 5, 8576
5, 81236, Pitch_bend_c, 5, 8192
5, 81238, Pitch_bend_c, 5, 8576
5, 81240, Control_c, 4, 7, 74
5, 81240, Control_c, 5, 7, 74
5, 81240, Pitch_bend_c, 5, 8448
5, 81240, Pitch_bend_c, 5, 8192
5, 81243, Pitch_bend_c, 5, 8320
5, 81244, Pitch_bend_c, 5, 8192
5, 81245, Pitch_bend_c, 5, 8320
5, 81248, Pitch_bend_c, 5, 8192
5, 81248, Pitch_bend_c, 5, 8320
5, 81250, Pitch_bend_c, 5, 8064
5, 81252, Pitch_bend_c, 5, 8064
5, 81253, Pitch_bend_c, 5, 8320
5, 81255, Pitch_bend_c, 5, 7936
5, 81257, Pitch_bend_c, 5, 7808
5, 81257, Pitch_bend_c, 5, 8320
5, 81259, Pitch_bend_c, 5, 7808
5, 81261, Pitch_bend_c, 5, 8320
5, 81262, Pitch_bend_c, 5, 7680
5, 81264, Pitch_bend_c, 5, 7680
5, 81265, Pitch_bend_c, 5, 8320
5, 81266, Pitch_bend_c, 5, 7680
5, 81269, Pitch_bend_c, 5, 7680
5, 81270, Pitch_bend_c, 5, 8320
5, 81271, Pitch_bend_c, 5, 7680
5, 81273, Pitch_bend_c, 5, 7808
5, 81274, Pitch_bend_c, 5, 8320
5, 81276, Pitch_bend_c, 5, 7808
5, 81278, Pitch_bend_c, 5, 7936
5, 81278, Pitch_bend_c, 5, 8320
5, 81280, Pitch_bend_c, 5, 7936
5, 81282, Pitch_bend_c, 5, 8320
5, 81283, Pitch_bend_c, 5, 8064
5, 81285, Pitch_bend_c, 5, 8192
5, 81286, Pitch_bend_c, 5, 8320
5, 81287, Pitch_bend_c, 5, 8320
5, 81290, Pitch_bend_c, 5, 8448
5, 81291, Pitch_bend_c, 5, 8320
5, 81292, Pitch_bend_c, 5, 8448
5, 81294, Pitch_bend_c, 5, 8576
5, 81295, Pitch_bend_c, 5, 8320
5, 81297, Pitch_bend_c, 5, 8704
5, 81299, Pitch_bend_c, 5, 8704
5, 81299, Pitch_bend_c, 5, 8320
5, 81301, Pitch_bend_c, 5, 8704
5, 81303, Pitch_bend_c, 5, 8192
5, 81304, Pitch_bend_c, 5, 8704
5, 81306, Pitch_bend_c, 5, 8704
5, 81308, Pitch_bend_c, 5, 8704
5, 81308, Pitch_bend_c, 5, 8192
5, 81311, Pitch_bend_c, 5, 8576
5, 81312, Pitch_bend_c, 5, 8192
5, 81313, Pitch_bend_c, 5, 8576
5, 81315, Pitch_bend_c, 5, 8448
5, 81316, Pitch_bend_c, 5, 8064
5, 81318, Pitch_bend_c, 5, 8320
5, 81320, Pitch_bend_c, 5, 8320
5, 81320, Pitch_bend_c, 5, 8064
5, 81323, Pitch_bend_c, 5, 8192
5, 81324, Pitch_bend_c, 5, 8064
5, 81325, Pitch_bend_c, 5, 8064
5, 81327, Pitch_bend_c, 5, 8064
5, 81329, Pitch_bend_c, 5, 8064
5, 81330, Pitch_bend_c, 5, 7936
5, 81332, Pitch_bend_c, 5, 7808
5, 81333, Pitch_bend_c, 5, 8064
5, 81334, Pitch_bend_c, 5, 7808
5, 81337, Pitch_bend_c, 5, 7680
5, 81337, Pitch_bend_c, 5, 8064
5, 81339, Pitch_bend_c, 5, 7680
5, 81341, Pitch_bend_c, 5, 7680
5, 81341, Pitch_bend_c, 5, 8064
5, 81344, Pitch_bend_c, 5, 7680
5, 81345, Pitch_bend_c, 5, 8064
5, 81346, Pitch_bend_c, 5, 7680
5, 81348, Pitch_bend_c, 5, 7680
5, 81350, Pitch_bend_c, 5, 8064
5, 81351, Pitch_bend_c, 5, 7808
5, 81353, Pitch_bend_c, 5, 7936
5, 81354, Pitch_bend_c, 5, 8064
5, 81355, Pitch_bend_c, 5, 7936
5, 81358, Pitch_bend_c, 5, 8064
5, 81358, Pitch_bend_c, 5, 8064
5, 81360, Control_c, 4, 7, 81
5, 81360, Control_c, 5, 7, 81
5, 81360, Pitch_bend_c, 5, 8192
5, 81362, Pitch_bend_c, 5, 8320
5, 81362, Pitch_bend_c, 5, 8064
5, 81365, Pitch_bend_c, 5, 8448
5, 81367, Pitch_bend_c, 5, 8448
5, 81367, Pitch_bend_c, 5, 8064
5, 81369, Pitch_bend_c, 5, 8576
5, 81371, Pitch_bend_c, 5, 8192
5, 81372, Pitch_bend_c, 5, 8704
5, 81374, Pitch_bend_c, 5, 8704
5, 81375, Pitch_bend_c, 5, 8192
5, 81376, Pitch_bend_c, 5, 8704
5, 81379, Pitch_bend_c, 5, 8704
5, 81379, Pitch_bend_c, 5, 8192
5, 81381, Pitch_bend_c, 5, 8704
5, 81383, Pitch_bend_c, 5, 8704
5, 81383, Pitch_bend_c, 5, 8320
5, 81386, Pitch_bend_c, 5, 8704
5, 81388, Pitch_bend_c, 5, 8576
5, 81388, Pitch_bend_c, 5, 8320
5, 81390, Pitch_bend_c, 5, 8576
5, 81392, Pitch_bend_c, 5, 8320
5, 81393, Pitch_bend_c, 5, 8448
5, 81395, Pitch_bend_c, 5, 8320
5, 81396, Pitch_bend_c, 5, 8448
5, 81398, Pitch_bend_c, 5, 8192
5, 81400, Pitch_bend_c, 5, 8064
5, 81400, Pitch_bend_c, 5, 8448
5, 81402, Pitch_bend_c, 5, 7936
5, 81405, Pitch_bend_c, 5, 7808
5, 81405, Pitch_bend_c, 5, 8448
5, 81407, Pitch_bend_c, 5, 7808
5, 81409, Pitch_bend_c, 5, 7680
5, 81409, Pitch_bend_c, 5, 8448
5, 81412, Pitch_bend_c, 5, 7680
5, 81413, Pitch_bend_c, 5, 8448
5, 81414, Pitch_bend_c, 5, 7680
5, 81416, Pitch_bend_c, 5, 7680
5, 81417, Pitch_bend_c, 5, 8448
5, 81419, Pitch_bend_c, 5, 7680
5, 81421, Pitch_bend_c, 5, 7680
5, 81421, Pitch_bend_c, 5, 8448
5, 81423, Pitch_bend_c, 5, 7680
5, 81426, Pitch_bend_c, 5, 7808
5, 81426, Pitch_bend_c, 5, 8320
5, 81428, Pitch_bend_c, 5, 7936
5, 81430, Pitch_bend_c, 5, 7936
5, 81430, Pitch_bend_c, 5, 8320
5, 81433, Pitch_bend_c, 5, 8064
5, 81434, Pitch_bend_c, 5, 8320
5, 81435, Pitch_bend_c, 5, 8192
5, 81437, Pitch_bend_c, 5, 8320
5, 81438, Pitch_bend_c, 5, 8192
5, 81440, Pitch_bend_c, 5, 8320
5, 81442, Pitch_bend_c, 5, 8448
5, 81443, Pitch_bend_c, 5, 8192
5, 81444, Pitch_bend_c, 5, 8448
5, 81447, Pitch_bend_c, 5, 8448
5, 81447, Pitch_bend_c, 5, 8192
5, 81449, Pitch_bend_c, 5, 8576
5, 81451, Pitch_bend_c, 5, 8576
5, 81451, Pitch_bend_c, 5, 8064
5, 81454, Pitch_bend_c, 5, 8576
5, 81455, Pitch_bend_c, 5, 8064
5, 81456, Pitch_bend_c, 5, 8576
5, 81458, Pitch_bend_c, 5, 8576
5, 81459, Pitch_bend_c, 5, 8064
5, 81461, Pitch_bend_c, 5, 8448
5, 81463, Pitch_bend_c, 5, 8448
5, 81464, Pitch_bend_c, 5, 7936
5, 81465, Pitch_bend_c, 5, 8448
5, 81468, Pitch_bend_c, 5, 8320
5, 81468, Pitch_bend_c, 5, 7936
5, 81470, Pitch_bend_c, 5, 8320
5, 81472, Pitch_bend_c, 5, 7936
5, 81473, Pitch_bend_c, 5, 8192
5, 81475, Pitch_bend_c, 5, 8064
5, 81476, Pitch_bend_c, 5, 7936
5, 81477, Pitch_bend_c, 5, 8064
5, 81480, Control_c, 4, 7, 89
5, 81480, Control_c, 5, 7, 89
5, 81480, Pitch_bend_c, 5, 7936
5, 81480, Pitch_bend_c, 5, 7936
5, 81482, Pitch_bend_c, 5, 7936
5, 81484, Pitch_bend_c, 5, 7936
5, 81485, Pitch_bend_c, 5, 7936
5, 81487, Pitch_bend_c, 5, 7808
5, 81489, Pitch_bend_c, 5, 7808
5, 81489, Pitch_bend_c, 5, 7936
5, 81491, Pitch_bend_c, 5, 7808
5, 81493, Pitch_bend_c, 5, 8064
5, 81494, Pitch_bend_c, 5, 7808
5, 81496, Pitch_bend_c, 5, 7808
5, 81497, Pitch_bend_c, 5, 8064
5, 81498, Pitch_bend_c, 5, 7936
5, 81501, Pitch_bend_c, 5, 7936
5, 81502, Pitch_bend_c, 5, 8064
5, 81503, Pitch_bend_c, 5, 7936
5, 81505, Pitch_bend_c, 5, 8064
5, 81506, Pitch_bend_c, 5, 8192
5, 81508, Pitch_bend_c, 5, 8064
5, 81510, Pitch_bend_c, 5, 8192
5, 81510, Pitch_bend_c, 5, 8192
5, 81512, Pitch_bend_c, 5, 8192
5, 81514, Pitch_bend_c, 5, 8192
5, 81515, Pitch_bend_c, 5, 8320
5, 81517, Pitch_bend_c, 5, 8320
5, 81518, Pitch_bend_c, 5, 8192
5, 81519, Pitch_bend_c, 5, 8320
5, 81522, Pitch_bend_c, 5, 8448
5, 81523, Pitch_bend_c, 5, 8192
5, 81524, Pitch_bend_c, 5, 8448
5, 81526, Pitch_bend_c, 5, 8448
5, 81527, Pitch_bend_c, 5, 8320
5, 81529, Pitch_bend_c, 5, 8448
5, 81531, Pitch_bend_c, 5, 8448
5, 81531, Pitch_bend_c, 5, 8320
5, 81533, Pitch_bend_c, 5, 8448
5, 81535, Pitch_bend_c, 5, 8320
5, 81536, Pitch_bend_c, 5, 8448
5, 81538, Pitch_bend_c, 5, 8320
5, 81540, Pitch_bend_c, 5, 8320
5, 81540, Pitch_bend_c, 5, 8320
5, 81543, Pitch_bend_c, 5, 8320
5, 81544, Pitch_bend_c, 5, 8320
5, 81545, Pitch_bend_c, 5, 8192
5, 81548, Pitch_bend_c, 5, 8192
5, 81548, Pitch_bend_c, 5, 8320
5, 81550, Pitch_bend_c, 5, 8192
5, 81552, Pitch_bend_c, 5, 8064
5, 81552, Pitch_bend_c, 5, 8320
5, 81555, Pitch_bend_c, 5, 8064
5, 81556, Pitch_bend_c, 5, 8320
5, 81557, Pitch_bend_c, 5, 8064
5, 81559, Pitch_bend_c, 5, 7936
5, 81561, Pitch_bend_c, 5, 8320
5, 81562, Pitch_bend_c, 5, 7936
5, 81564, Pitch_bend_c, 5, 7936
5, 81565, Pitch_bend_c, 5, 8192
5, 81566, Pitch_bend_c, 5, 7936
5, 81569, Pitch_bend_c, 5, 7936
5, 81569, Pitch_bend_c, 5, 8192
5, 81571, Pitch_bend_c, 5, 7936
5, 81573, Pitch_bend_c, 5, 7936
5, 81573, Pitch_bend_c, 5, 8192
5, 81576, Pitch_bend_c, 5, 8064
5, 81578, Pitch_bend_c, 5, 8064
5, 81578, Pitch_bend_c, 5, 8192
5, 81580, Pitch_bend_c, 5, 8064
5, 81582, Pitch_bend_c, 5, 8192
5, 81583, Pitch_bend_c, 5, 8192
5, 81585, Pitch_bend_c, 5, 8192
5, 81586, Pitch_bend_c, 5, 8192
5, 81587, Pitch_bend_c, 5, 8192
5, 81590, Pitch_bend_c, 5, 8192
5, 81590, Pitch_bend_c, 5, 8192
5, 81592, Pitch_bend_c, 5, 8192
5, 81594, Pitch_bend_c, 5, 8192
5, 81594, Pitch_bend_c, 5, 8064
5, 81597, Pitch_bend_c, 5, 8192
5, 81599, Pitch_bend_c, 5, 8320
5, 81599, Pitch_bend_c, 5, 8064
5, 81600, Control_c, 4, 7, 96
5, 81600, Control_c, 5, 7, 96
5, 81600, Pitch_bend_c, 5, 8192
5, 81600, Note_off_c, 5, 69, 80
5, 81600, Pitch_bend_c, 5, 8192
5, 82560, Program_c, 4, 122
5, 82560, Program_c, 5, 122
5, 82560, Control_c, 4, 7, 0
5, 82560, Control_c, 5, 7, 0
5, 84000, Control_c, 4, 7, 6
5, 84000, Control_c, 5, 7, 6
5, 84000, Control_c, 4, 10, 127
5, 84000, Control_c, 5, 10, 127
5, 84000, Pitch_bend_c, 5, 8192
5, 84000, Note_on_c, 5, 69, 95
5, 84000, Pitch_bend_c, 5, 8192
5, 84002, Pitch_bend_c, 5, 8192
5, 84004, Pitch_bend_c, 5, 8192
5, 84005, Pitch_bend_c, 5, 8192
5, 84007, Pitch_bend_c, 5, 8192
5, 84008, Pitch_bend_c, 5, 8192
5, 84009, Pitch_bend_c, 5, 8192
5, 84012, Pitch_bend_c, 5, 8192
5, 84013, Pitch_bend_c, 5, 8192
5, 84014, Pitch_bend_c, 5, 8192
5, 84016, Pitch_bend_c, 5, 8192
5, 84017, Pitch_bend_c, 5, 8192
5, 84019, Pitch_bend_c, 5, 8192
5, 84021, Pitch_bend_c, 5, 8192
5, 84021, Pitch_bend_c, 5, 8192
5, 84023, Pitch_bend_c, 5, 8192
5, 84025, Pitch_bend_c, 5, 8192
5, 84026, Pitch_bend_c, 5, 8192
5, 84028, Pitch_bend_c, 5, 8192
5, 84030, Pitch_bend_c, 5, 8192
5, 84030, Pitch_bend_c, 5, 8192
5, 84033, Pitch_bend_c, 5, 8192
5, 84034, Pitch_bend_c, 5, 8192
5, 84035, Pitch_bend_c, 5, 8192
5, 84038, Pitch_bend_c, 5, 8192
5, 84038, Pitch_bend_c, 5, 8192
5, 84040, Pitch_bend_c, 5, 8192
5, 84042, Pitch_bend_c, 5, 8192
5, 84042, Pitch_bend_c, 5, 8192
5, 84045, Pitch_bend_c, 5, 8192
5, 84046, Pitch_bend_c, 5, 8192
5, 84047, Pitch_bend_c, 5, 8192
5, 84049, Pitch_bend_c, 5, 8192
5, 84051, Pitch_bend_c, 5, 8192
5, 84052, Pitch_bend_c, 5, 8192
5, 84054, Pitch_bend_c, 5, 8192
5, 84055, Pitch_bend_c, 5, 8192
5, 84056, Pitch_bend_c, 5, 8192
5, 84059, Pitch_bend_c, 5, 8192
5, 84059, Pitch_bend_c, 5, 8192
5, 84061, Pitch_bend_c, 5, 8192
5, 84063, Pitch_bend_c, 5, 8192
5, 84063, Pitch_bend_c, 5, 8192
5, 84066, Pitch_bend_c, 5, 8192
5, 84068, Pitch_bend_c, 5, 8192
5, 84068, Pitch_bend_c, 5, 8192
5, 84070, Pitch_bend_c, 5, 8192
5, 84072, Pitch_bend_c, 5, 8192
5, 84073, Pitch_bend_c, 5, 8192
5, 84075, Pitch_bend_c, 5, 8192
5, 84076, Pitch_bend_c, 5, 8192
5, 84077, Pitch_bend_c, 5, 8192
5, 84080, Pitch_bend_c, 5, 8320
5, 84080, Pitch_bend_c, 5, 8192
5, 84082, Pitch_bend_c, 5, 8320
5, 84084, Pitch_bend_c, 5, 8320
5, 84084, Pitch_bend_c, 5, 8192
5, 84087, Pitch_bend_c, 5, 8448
5, 84089, Pitch_bend_c, 5, 8448
5, 84089, Pitch_bend_c, 5, 8192
5, 84091, Pitch_bend_c, 5, 8448
5, 84093, Pitch_bend_c, 5, 8192
5, 84094, Pitch_bend_c, 5, 8448
5, 84096, Pitch_bend_c, 5, 8448
5, 84097, Pitch_bend_c, 5, 8192
5, 84098, Pitch_bend_c, 5, 8448
5, 84101, Pitch_bend_c, 5, 8448
5, 84101, Pitch_bend_c, 5, 8192
5, 84103, Pitch_bend_c, 5, 8320
5, 84105, Pitch_bend_c, 5, 8320
5, 84105, Pitch_bend_c, 5, 8192
5, 84108, Pitch_bend_c, 5, 8320
5, 84110, Pitch_bend_c, 5, 8192
5, 84110, Pitch_bend_c, 5, 8192
5, 84113, Pitch_bend_c, 5, 8192
5, 84114, Pitch_bend_c, 5, 8192
5, 84115, Pitch_bend_c, 5, 8192
5, 84117, Pitch_bend_c, 5, 8064
5, 84118, Pitch_bend_c, 5, 8192
5, 84120, Control_c, 4, 7, 11
5, 84120, Control_c, 5, 7, 11
5, 84120, Pitch_bend_c, 5, 8064
5, 84122, Pitch_bend_c, 5, 8064
5, 84122, Pitch_bend_c, 5, 8192
5, 84124, Pitch_bend_c, 5, 7936
5, 84127, Pitch_bend_c, 5, 7936
5, 84127, Pitch_bend_c, 5, 8192
5, 84129, Pitch_bend_c, 5, 7936
5, 84131, Pitch_bend_c, 5, 7936
5, 84131, Pitch_bend_c, 5, 8192
5, 84134, Pitch_bend_c, 5, 7936
5, 84135, Pitch_bend_c, 5, 8192
5, 84136, Pitch_bend_c, 5, 7936
5, 84138, Pitch_bend_c, 5, 7936
5, 84139, Pitch_bend_c, 5, 8192
5, 84141, Pitch_bend_c, 5, 8064
5, 84143, Pitch_bend_c, 5, 8064
5, 84143, Pitch_bend_c, 5, 8192
5, 84145, Pitch_bend_c, 5, 8064
5, 84148, Pitch_bend_c, 5, 8192
5, 84148, Pitch_bend_c, 5, 8320
5, 84150, Pitch_bend_c, 5, 8192
5, 84152, Pitch_bend_c, 5, 8192
5, 84152, Pitch_bend_c, 5, 8320
5, 84155, Pitch_bend_c, 5, 8320
5, 84156, Pitch_bend_c, 5, 8320
5, 84157, Pitch_bend_c, 5, 8320
5, 84159, Pitch_bend_c, 5, 8448
5, 84160, Pitch_bend_c, 5, 8320
5, 84162, Pitch_bend_c, 5, 8448
5, 84164, Pitch_bend_c, 5, 8448
5, 84165, Pitch_bend_c, 5, 8320
5, 84166, Pitch_bend_c, 5, 8576
5, 84169, Pitch_bend_c, 5, 8576
5, 84169, Pitch_bend_c, 5, 8320
5, 84171, Pitch_bend_c, 5, 8576
5, 84173, Pitch_bend_c, 5, 8448
5, 84173, Pitch_bend_c, 5, 8320
5, 84176, Pitch_bend_c, 5, 8448
5, 84177, Pitch_bend_c, 5, 8320
5, 84178, Pitch_bend_c, 5, 8448
5, 84180, Pitch_bend_c, 5, 8448
5, 84181, Pitch_bend_c, 5, 8320
5, 84183, Pitch_bend_c, 5, 8320
5, 84185, Pitch_bend_c, 5, 8320
5, 84186, Pitch_bend_c, 5, 8320
5, 84188, Pitch_bend_c, 5, 8192
5, 84190, Pitch_bend_c, 5, 8064
5, 84190, Pitch_bend_c, 5, 8320
5, 84192, Pitch_bend_c, 5, 8064
5, 84194, Pitch_bend_c, 5, 8192
5, 84195, Pitch_bend_c, 5, 7936
5, 84197, Pitch_bend_c, 5, 7936
5, 84198, Pitch_bend_c, 5, 8192
5, 84199, Pitch_bend_c, 5, 7936
5, 84202, Pitch_bend_c, 5, 7936
5, 84203, Pitch_bend_c, 5, 8192
5, 84204, Pitch_bend_c, 5, 7808
5, 84206, Pitch_bend_c, 5, 7808
5, 84207, Pitch_bend_c, 5, 8192
5, 84209, Pitch_bend_c, 5, 7808
5, 84211, Pitch_bend_c, 5, 7936
5, 84211, Pitch_bend_c, 5, 8192
5, 84213, Pitch_bend_c, 5, 7936
5, 84215, Pitch_bend_c, 5, 8064
5, 84216, Pitch_bend_c, 5, 7936
5, 84218, Pitch_bend_c, 5, 8064
5, 84219, Pitch_bend_c, 5, 8064
5, 84220, Pitch_bend_c, 5, 8064
5, 84223, Pitch_bend_c, 5, 8192
5, 84224, Pitch_bend_c, 5, 8064
5, 84225, Pitch_bend_c, 5, 8192
5, 84227, Pitch_bend_c, 5, 8320
5, 84228, Pitch_bend_c, 5, 8064
5, 84230, Pitch_bend_c, 5, 8448
5, 84232, Pitch_bend_c, 5, 8448
5, 84232, Pitch_bend_c, 5, 8064
5, 84234, Pitch_bend_c, 5, 8576
5, 84236, Pitch_bend_c, 5, 8064
5, 84237, Pitch_bend_c, 5, 8704
5, 84239, Pitch_bend_c, 5, 8704
5, 84240, Control_c, 4, 7, 17
5, 84240, Control_c, 5, 7, 17
5, 84240, Pitch_bend_c, 5, 8064
5, 84241, Pitch_bend_c, 5, 8704
5, 84244, Pitch_bend_c, 5, 8704
5, 84245, Pitch_bend_c, 5, 8064
5, 84246, Pitch_bend_c, 5, 8704
5, 84248, Pitch_bend_c, 5, 8704
5, 84249, Pitch_bend_c, 5, 8064
5, 84251, Pitch_bend_c, 5, 8576
5, 84253, Pitch_bend_c, 5, 8576
5, 84253, Pitch_bend_c, 5, 8064
5, 84255, Pitch_bend_c, 5, 8448
5, 84257, Pitch_bend_c, 5, 8064
5, 84258, Pitch_bend_c, 5, 8320
5, 84260, Pitch_bend_c, 5, 8320
5, 84262, Pitch_bend_c, 5, 8192
5, 84263, Pitch_bend_c, 5, 8192
5, 84265, Pitch_bend_c, 5, 8064
5, 84266, Pitch_bend_c, 5, 8192
5, 84267, Pitch_bend_c, 5, 8064
5, 84270, Pitch_bend_c, 5, 7936
5, 84270, Pitch_bend_c, 5, 8192
5, 84272, Pitch_bend_c, 5, 7808
5, 84274, Pitch_bend_c, 5, 7808
5, 84274, Pitch_bend_c, 5, 8192
5, 84277, Pitch_bend_c, 5, 7680
5, 84278, Pitch_bend_c, 5, 8320
5, 84279, Pitch_bend_c, 5, 7680
5, 84281, Pitch_bend_c, 5, 7680
5, 84283, Pitch_bend_c, 5, 8320
5, 84284, Pitch_bend_c, 5, 7680
5, 84286, Pitch_bend_c, 5, 7680
5, 84287, Pitch_bend_c, 5, 8320
5, 84288, Pitch_bend_c, 5, 7680
5, 84291, Pitch_bend_c, 5, 7808
5, 84291, Pitch_bend_c, 5, 8448
5, 84293, Pitch_bend_c, 5, 7936
5, 84295, Pitch_bend_c, 5, 7936
5, 84295, Pitch_bend_c, 5, 8448
5, 84298, Pitch_bend_c, 5, 8064
5, 84300, Pitch_bend_c, 5, 8192
5, 84300, Pitch_bend_c, 5, 8448
5, 84302, Pitch_bend_c, 5, 8320
5, 84304, Pitch_bend_c, 5, 8448
5, 84305, Pitch_bend_c, 5, 8448
5, 84307, Pitch_bend_c, 5, 8448
5, 84308, Pitch_bend_c, 5, 8448
5, 84309, Pitch_bend_c, 5, 8576
5, 84312, Pitch_bend_c, 5, 8704
5, 84312, Pitch_bend_c, 5, 8448
5, 84314, Pitch_bend_c, 5, 8704
5, 84316, Pitch_bend_c, 5, 8704
5, 84316, Pitch_bend_c, 5, 8448
5, 84319, Pitch_bend_c, 5, 8704
5, 84321, Pitch_bend_c, 5, 8704
5, 84321, Pitch_bend_c, 5, 8320
5, 84323, Pitch_bend_c, 5, 8704
5, 84325, Pitch_bend_c, 5, 8320
5, 84326, Pitch_bend_c, 5, 8576
5, 84328, Pitch_bend_c, 5, 8576
5, 84329, Pitch_bend_c, 5, 8320
5, 84330, Pitch_bend_c, 5, 8448
5, 84333, Pitch_bend_c, 5, 8320
5, 84333, Pitch_bend_c, 5, 8192
5, 84335, Pitch_bend_c, 5, 8320
5, 84338, Pitch_bend_c, 5, 8192
5, 84338, Pitch_bend_c, 5, 8192
5, 84340, Pitch_bend_c, 5, 8064
5, 84342, Pitch_bend_c, 5, 8064
5, 84342, Pitch_bend_c, 5, 8192
5, 84345, Pitch_bend_c, 5, 7936
5, 84346, Pitch_bend_c, 5, 8064
5, 84347, Pitch_bend_c, 5, 7808
5, 84349, Pitch_bend_c, 5, 7808
5, 84350, Pitch_bend_c, 5, 8064
5, 84352, Pitch_bend_c, 5, 7680
5, 84354, Pitch_bend_c, 5, 7680
5, 84354, Pitch_bend_c, 5, 8064
5, 84356, Pitch_bend_c, 5, 7680
5, 84359, Pitch_bend_c, 5, 7680
5, 84359, Pitch_bend_c, 5, 7936
5, 84360, Control_c, 4, 7, 22
5, 84360, Control_c, 5, 7, 22
5, 84361, Pitch_bend_c, 5, 7680
5, 84363, Pitch_bend_c, 5, 7680
5, 84363, Pitch_bend_c, 5, 7936
5, 84366, Pitch_bend_c, 5, 7808
5, 84367, Pitch_bend_c, 5, 7936
5, 84368, Pitch_bend_c, 5, 7936
5, 84370, Pitch_bend_c, 5, 7936
5, 84371, Pitch_bend_c, 5, 7936
5, 84373, Pitch_bend_c, 5, 8064
5, 84375, Pitch_bend_c, 5, 8192
5, 84375, Pitch_bend_c, 5, 7936
5, 84377, Pitch_bend_c, 5, 8320
5, 84380, Pitch_bend_c, 5, 8448
5, 84380, Pitch_bend_c, 5, 7936
5, 84382, Pitch_bend_c, 5, 8448
5, 84384, Pitch_bend_c, 5, 8576
5, 84384, Pitch_bend_c, 5, 7936
5, 84387, Pitch_bend_c, 5, 8576
5, 84388, Pitch_bend_c, 5, 8064
5, 84389, Pitch_bend_c, 5, 8704
5, 84391, Pitch_bend_c, 5, 8704
5, 84392, Pitch_bend_c, 5, 8064
5, 84394, Pitch_bend_c, 5, 8704
5, 84396, Pitch_bend_c, 5, 8704
5, 84397, Pitch_bend_c, 5, 8064
5, 84398, Pitch_bend_c, 5, 8704
5, 84401, Pitch_bend_c, 5, 8576
5, 84401, Pitch_bend_c, 5, 8192
5, 84403, Pitch_bend_c, 5, 8576
5, 84405, Pitch_bend_c, 5, 8448
5, 84405, Pitch_bend_c, 5, 8192
5, 84408, Pitch_bend_c, 5, 8320
5, 84409, Pitch_bend_c, 5, 8192
5, 84410, Pitch_bend_c, 5, 8320
5, 84413, Pitch_bend_c, 5, 8192
5, 84413, Pitch_bend_c, 5, 8320
5, 84415, Pitch_bend_c, 5, 8064
5, 84417, Pitch_bend_c, 5, 8064
5, 84418, Pitch_bend_c, 5, 8320
5, 84420, Pitch_bend_c, 5, 7936
5, 84422, Pitch_bend_c, 5, 7808
5, 84422, Pitch_bend_c, 5, 8320
5, 84424, Pitch_bend_c, 5, 7808
5, 84426, Pitch_bend_c, 5, 8320
5, 84427, Pitch_bend_c, 5, 7680
5, 84429, Pitch_bend_c, 5, 7680
5, 84430, Pitch_bend_c, 5, 8448
5, 84431, Pitch_bend_c, 5, 7680
5, 84434, Pitch_bend_c, 5, 7680
5, 84435, Pitch_bend_c, 5, 8448
5, 84436, Pitch_bend_c, 5, 7680
5, 84438, Pitch_bend_c, 5, 7808
5, 84439, Pitch_bend_c, 5, 8448
5, 84441, Pitch_bend_c, 5, 7808
5, 84443, Pitch_bend_c, 5, 7936
5, 84443, Pitch_bend_c, 5, 8448
5, 84445, Pitch_bend_c, 5, 7936
5, 84447, Pitch_bend_c, 5, 8448
5, 84448, Pitch_bend_c, 5, 8064
5, 84450, Pitch_bend_c, 5, 8192
5, 84451, Pitch_bend_c, 5, 8320
5, 84452, Pitch_bend_c, 5, 8320
5, 84455, Pitch_bend_c, 5, 8448
5, 84456, Pitch_bend_c, 5, 8320
5, 84457, Pitch_bend_c, 5, 8448
5, 84459, Pitch_bend_c, 5, 8576
5, 84460, Pitch_bend_c, 5, 8320
5, 84462, Pitch_bend_c, 5, 8704
5, 84464, Pitch_bend_c, 5, 8704
5, 84464, Pitch_bend_c, 5, 8320
5, 84466, Pitch_bend_c, 5, 8704
5, 84468, Pitch_bend_c, 5, 8192
5, 84469, Pitch_bend_c, 5, 8704
5, 84471, Pitch_bend_c, 5, 8704
5, 84473, Pitch_bend_c, 5, 8704
5, 84473, Pitch_bend_c, 5, 8192
5, 84476, Pitch_bend_c, 5, 8704
5, 84477, Pitch_bend_c, 5, 8192
5, 84478, Pitch_bend_c, 5, 8576
5, 84480, Control_c, 4, 7, 28
5, 84480, Control_c, 5, 7, 28
5, 84480, Pitch_bend_c, 5, 8576
5, 84481, Pitch_bend_c, 5, 8064
5, 84483, Pitch_bend_c, 5, 8448
5, 84485, Pitch_bend_c, 5, 8320
5, 84485, Pitch_bend_c, 5, 8064
5, 84488, Pitch_bend_c, 5, 8192
5, 84489, Pitch_bend_c, 5, 8064
5, 84490, Pitch_bend_c, 5, 8064
5, 84492, Pitch_bend_c, 5, 7936
5, 84494, Pitch_bend_c, 5, 8064
5, 84495, Pitch_bend_c, 5, 7808
5, 84497, Pitch_bend_c, 5, 7808
5, 84498, Pitch_bend_c, 5, 7936
5, 84499, Pitch_bend_c, 5, 7680
5, 84502, Pitch_bend_c, 5, 7680
5, 84502, Pitch_bend_c, 5, 7936
5, 84504, Pitch_bend_c, 5, 7680
5, 84506, Pitch_bend_c, 5, 7680
5, 84506, Pitch_bend_c, 5, 7936
5, 84509, Pitch_bend_c, 5, 7680
5, 84510, Pitch_bend_c, 5, 7936
5, 84511, Pitch_bend_c, 5, 7680
5, 84513, Pitch_bend_c, 5, 7680
5, 84515, Pitch_bend_c, 5, 7936
5, 84516, Pitch_bend_c, 5, 7808
5, 84518, Pitch_bend_c, 5, 7936
5, 84519, Pitch_bend_c, 5, 8064
5, 84520, Pitch_bend_c, 5, 7936
5, 84523, Pitch_bend_c, 5, 8064
5, 84523, Pitch_bend_c, 5, 8064
5, 84525, Pitch_bend_c, 5, 8192
5, 84527, Pitch_bend_c, 5, 8320
5, 84527, Pitch_bend_c, 5, 8064
5, 84530, Pitch_bend_c, 5, 8448
5, 84532, Pitch_bend_c, 5, 8448
5, 84532, Pitch_bend_c, 5, 8064
5, 84534, Pitch_bend_c, 5, 8576
5, 84536, Pitch_bend_c, 5, 8192
5, 84537, Pitch_bend_c, 5, 8704
5, 84539, Pitch_bend_c, 5, 8704
5, 84540, Pitch_bend_c, 5, 8192
5, 84541, Pitch_bend_c, 5, 8704
5, 84544, Pitch_bend_c, 5, 8704
5, 84544, Pitch_bend_c, 5, 8192
5, 84546, Pitch_bend_c, 5, 8704
5, 84548, Pitch_bend_c, 5, 8704
5, 84548, Pitch_bend_c, 5, 8320
5, 84551, Pitch_bend_c, 5, 8704
5, 84553, Pitch_bend_c, 5, 8576
5, 84553, Pitch_bend_c, 5, 8320
5, 84555, Pitch_bend_c, 5, 8576
5, 84557, Pitch_bend_c, 5, 8448
5, 84558, Pitch_bend_c, 5, 8448
5, 84560, Pitch_bend_c, 5, 8320
5, 84561, Pitch_bend_c, 5, 8448
5, 84563, Pitch_bend_c, 5, 8192
5, 84565, Pitch_bend_c, 5, 8064
5, 84565, Pitch_bend_c, 5, 8448
5, 84567, Pitch_bend_c, 5, 7936
5, 84570, Pitch_bend_c, 5, 7808
5, 84570, Pitch_bend_c, 5, 8448
5, 84572, Pitch_bend_c, 5, 7808
5, 84574, Pitch_bend_c, 5, 7680
5, 84574, Pitch_bend_c, 5, 8448
5, 84577, Pitch_bend_c, 5, 7680
5, 84578, Pitch_bend_c, 5, 8448
5, 84579, Pitch_bend_c, 5, 7680
5, 84581, Pitch_bend_c, 5, 7680
5, 84582, Pitch_bend_c, 5, 8448
5, 84584, Pitch_bend_c, 5, 7680
5, 84586, Pitch_bend_c, 5, 7680
5, 84586, Pitch_bend_c, 5, 8448
5, 84588, Pitch_bend_c, 5, 7680
5, 84591, Pitch_bend_c, 5, 7808
5, 84591, Pitch_bend_c, 5, 8448
5, 84593, Pitch_bend_c, 5, 7936
5, 84595, Pitch_bend_c, 5, 7936
5, 84595, Pitch_bend_c, 5, 8320
5, 84598, Pitch_bend_c, 5, 8064
5, 84599, Pitch_bend_c, 5, 8320
5, 84600, Control_c, 4, 7, 33
5, 84600, Control_c, 5, 7, 33
5, 84600, Pitch_bend_c, 5, 8192
5, 84602, Pitch_bend_c, 5, 8320
5, 84603, Pitch_bend_c, 5, 8192
5, 84605, Pitch_bend_c, 5, 8448
5, 84607, Pitch_bend_c, 5, 8448
5, 84608, Pitch_bend_c, 5, 8192
5, 84609, Pitch_bend_c, 5, 8576
5, 84612, Pitch_bend_c, 5, 8704
5, 84612, Pitch_bend_c, 5, 8192
5, 84614, Pitch_bend_c, 5, 8704
5, 84616, Pitch_bend_c, 5, 8704
5, 84616, Pitch_bend_c, 5, 8064
5, 84619, Pitch_bend_c, 5, 8704
5, 84620, Pitch_bend_c, 5, 8064
5, 84621, Pitch_bend_c, 5, 8704
5, 84623, Pitch_bend_c, 5, 8704
5, 84624, Pitch_bend_c, 5, 7936
5, 84626, Pitch_bend_c, 5, 8704
5, 84628, Pitch_bend_c, 5, 8576
5, 84629, Pitch_bend_c, 5, 7936
5, 84630, Pitch_bend_c, 5, 8576
5, 84633, Pitch_bend_c, 5, 8448
5, 84633, Pitch_bend_c, 5, 7936
5, 84635, Pitch_bend_c, 5, 8320
5, 84637, Pitch_bend_c, 5, 7936
5, 84638, Pitch_bend_c, 5, 8192
5, 84640, Pitch_bend_c, 5, 8064
5, 84641, Pitch_bend_c, 5, 7936
5, 84642, Pitch_bend_c, 5, 7936
5, 84645, Pitch_bend_c, 5, 7808
5, 84645, Pitch_bend_c, 5, 7936
5, 84647, Pitch_bend_c, 5, 7808
5, 84649, Pitch_bend_c, 5, 7680
5, 84650, Pitch_bend_c, 5, 7936
5, 84652, Pitch_bend_c, 5, 7680
5, 84654, Pitch_bend_c, 5, 7680
5, 84654, Pitch_bend_c, 5, 7936
5, 84656, Pitch_bend_c, 5, 7680
5, 84658, Pitch_bend_c, 5, 7936
5, 84659, Pitch_bend_c, 5, 7680
5, 84661, Pitch_bend_c, 5, 7680
5, 84662, Pitch_bend_c, 5, 8064
5, 84663, Pitch_bend_c, 5, 7680
5, 84666, Pitch_bend_c, 5, 7808
5, 84667, Pitch_bend_c, 5, 8064
5, 84668, Pitch_bend_c, 5, 7936
5, 84670, Pitch_bend_c, 5, 7936
5, 84671, Pitch_bend_c, 5, 8192
5, 84673, Pitch_bend_c, 5, 8064
5, 84675, Pitch_bend_c, 5, 8192
5, 84675, Pitch_bend_c, 5, 8192
5, 84677, Pitch_bend_c, 5, 8320
5, 84679, Pitch_bend_c, 5, 8192
5, 84680, Pitch_bend_c, 5, 8448
5, 84682, Pitch_bend_c, 5, 8576
5, 84683, Pitch_bend_c, 5, 8320
5, 84684, Pitch_bend_c, 5, 8576
5, 84687, Pitch_bend_c, 5, 8704
5, 84688, Pitch_bend_c, 5, 8320
5, 84689, Pitch_bend_c, 5, 8704
5, 84691, Pitch_bend_c, 5, 8832
5, 84692, Pitch_bend_c, 5, 8320
5, 84694, Pitch_bend_c, 5, 8832
5, 84696, Pitch_bend_c, 5, 8832
5, 84696, Pitch_bend_c, 5, 8320
5, 84698, Pitch_bend_c, 5, 8704
5, 84700, Pitch_bend_c, 5, 8320
5, 84701, Pitch_bend_c, 5, 8704
5, 84703, Pitch_bend_c, 5, 8576
5, 84705, Pitch_bend_c, 5, 8576
5, 84705, Pitch_bend_c, 5, 8320
5, 84708, Pitch_bend_c, 5, 8448
5, 84709, Pitch_bend_c, 5, 8320
5, 84710, Pitch_bend_c, 5, 8320
5, 84713, Pitch_bend_c, 5, 8192
5, 84713, Pitch_bend_c, 5, 8320
5, 84715, Pitch_bend_c, 5, 8064
5, 84717, Pitch_bend_c, 5, 7936
5, 84717, Pitch_bend_c, 5, 8320
5, 84720, Control_c, 4, 7, 39
5, 84720, Control_c, 5, 7, 39
5, 84720, Pitch_bend_c, 5, 7808
5, 84721, Pitch_bend_c, 5, 8320
5, 84722, Pitch_bend_c, 5, 7808
5, 84724, Pitch_bend_c, 5, 7680
5, 84726, Pitch_bend_c, 5, 8320
5, 84727, Pitch_bend_c, 5, 7680
5, 84729, Pitch_bend_c, 5, 7552
5, 84730, Pitch_bend_c, 5, 8320
5, 84731, Pitch_bend_c, 5, 7552
5, 84734, Pitch_bend_c, 5, 7552
5, 84734, Pitch_bend_c, 5, 8320
5, 84736, Pitch_bend_c, 5, 7680
5, 84738, Pitch_bend_c, 5, 7680
5, 84738, Pitch_bend_c, 5, 8192
5, 84741, Pitch_bend_c, 5, 7808
5, 84743, Pitch_bend_c, 5, 7808
5, 84743, Pitch_bend_c, 5, 8192
5, 84745, Pitch_bend_c, 5, 7936
5, 84747, Pitch_bend_c, 5, 8192
5, 84748, Pitch_bend_c, 5, 8064
5, 84750, Pitch_bend_c, 5, 8192
5, 84751, Pitch_bend_c, 5, 8064
5, 84752, Pitch_bend_c, 5, 8320
5, 84755, Pitch_bend_c, 5, 8448
5, 84755, Pitch_bend_c, 5, 8064
5, 84757, Pitch_bend_c, 5, 8448
5, 84759, Pitch_bend_c, 5, 8576
5, 84759, Pitch_bend_c, 5, 8064
5, 84762, Pitch_bend_c, 5, 8704
5, 84764, Pitch_bend_c, 5, 8704
5, 84764, Pitch_bend_c, 5, 8064
5, 84766, Pitch_bend_c, 5, 8704
5, 84768, Pitch_bend_c, 5, 8064
5, 84769, Pitch_bend_c, 5, 8704
5, 84771, Pitch_bend_c, 5, 8704
5, 84772, Pitch_bend_c, 5, 8064
5, 84773, Pitch_bend_c, 5, 8704
5, 84776, Pitch_bend_c, 5, 8704
5, 84776, Pitch_bend_c, 5, 8064
5, 84778, Pitch_bend_c, 5, 8576
5, 84780, Pitch_bend_c, 5, 8576
5, 84780, Pitch_bend_c, 5, 8064
5, 84783, Pitch_bend_c, 5, 8448
5, 84785, Pitch_bend_c, 5, 8320
5, 84785, Pitch_bend_c, 5, 8064
5, 84788, Pitch_bend_c, 5, 8192
5, 84789, Pitch_bend_c, 5, 8064
5, 84790, Pitch_bend_c, 5, 8064
5, 84792, Pitch_bend_c, 5, 7936
5, 84793, Pitch_bend_c, 5, 8064
5, 84795, Pitch_bend_c, 5, 7808
5, 84797, Pitch_bend_c, 5, 7808
5, 84797, Pitch_bend_c, 5, 8064
5, 84799, Pitch_bend_c, 5, 7680
5, 84802, Pitch_bend_c, 5, 7680
5, 84802, Pitch_bend_c, 5, 8064
5, 84804, Pitch_bend_c, 5, 7680
5, 84806, Pitch_bend_c, 5, 7680
5, 84806, Pitch_bend_c, 5, 8192
5, 84809, Pitch_bend_c, 5, 7680
5, 84810, Pitch_bend_c, 5, 8192
5, 84811, Pitch_bend_c, 5, 7680
5, 84813, Pitch_bend_c, 5, 7680
5, 84814, Pitch_bend_c, 5, 8192
5, 84816, Pitch_bend_c, 5, 7808
5, 84818, Pitch_bend_c, 5, 7936
5, 84818, Pitch_bend_c, 5, 8320
5, 84820, Pitch_bend_c, 5, 7936
5, 84823, Pitch_bend_c, 5, 8064
5, 84823, Pitch_bend_c, 5, 8320
5, 84825, Pitch_bend_c, 5, 8192
5, 84827, Pitch_bend_c, 5, 8320
5, 84827, Pitch_bend_c, 5, 8320
5, 84830, Pitch_bend_c, 5, 8448
5, 84831, Pitch_bend_c, 5, 8448
5, 84832, Pitch_bend_c, 5, 8448
5, 84834, Pitch_bend_c, 5, 8576
5, 84835, Pitch_bend_c, 5, 8448
5, 84837, Pitch_bend_c, 5, 8704
5, 84839, Pitch_bend_c, 5, 8704
5, 84840, Control_c, 4, 7, 44
5, 84840, Control_c, 5, 7, 44
5, 84840, Pitch_bend_c, 5, 8448
5, 84841, Pitch_bend_c, 5, 8704
5, 84844, Pitch_bend_c, 5, 8704
5, 84844, Pitch_bend_c, 5, 8448
5, 84846, Pitch_bend_c, 5, 8704
5, 84848, Pitch_bend_c, 5, 8704
5, 84848, Pitch_bend_c, 5, 8448
5, 84851, Pitch_bend_c, 5, 8704
5, 84852, Pitch_bend_c, 5, 8448
5, 84853, Pitch_bend_c, 5, 8576
5, 84855, Pitch_bend_c, 5, 8576
5, 84856, Pitch_bend_c, 5, 8448
5, 84858, Pitch_bend_c, 5, 8448
5, 84860, Pitch_bend_c, 5, 8320
5, 84861, Pitch_bend_c, 5, 8320
5, 84863, Pitch_bend_c, 5, 8192
5, 84865, Pitch_bend_c, 5, 8064
5, 84865, Pitch_bend_c, 5, 8320
5, 84867, Pitch_bend_c, 5, 7936
5, 84869, Pitch_bend_c, 5, 8320
5, 84870, Pitch_bend_c, 5, 7808
5, 84872, Pitch_bend_c, 5, 7808
5, 84873, Pitch_bend_c, 5, 8192
5, 84874, Pitch_bend_c, 5, 7680
5, 84877, Pitch_bend_c, 5, 7680
5, 84878, Pitch_bend_c, 5, 8192
5, 84879, Pitch_bend_c, 5, 7680
5, 84881, Pitch_bend_c, 5, 7680
5, 84882, Pitch_bend_c, 5, 8192
5, 84884, Pitch_bend_c, 5, 7680
5, 84886, Pitch_bend_c, 5, 7680
5, 84886, Pitch_bend_c, 5, 8064
5, 84888, Pitch_bend_c, 5, 7680
5, 84890, Pitch_bend_c, 5, 8064
5, 84891, Pitch_bend_c, 5, 7808
5, 84893, Pitch_bend_c, 5, 7936
5, 84894, Pitch_bend_c, 5, 8064
5, 84895, Pitch_bend_c, 5, 7936
5, 84898, Pitch_bend_c, 5, 8064
5, 84899, Pitch_bend_c, 5, 7936
5, 84900, Pitch_bend_c, 5, 8192
5, 84902, Pitch_bend_c, 5, 8320
5, 84903, Pitch_bend_c, 5, 7936
5, 84905, Pitch_bend_c, 5, 8448
5, 84907, Pitch_bend_c, 5, 8448
5, 84907, Pitch_bend_c, 5, 7936
5, 84909, Pitch_bend_c, 5, 8576
5, 84911, Pitch_bend_c, 5, 7936
5, 84912, Pitch_bend_c, 5, 8704
5, 84914, Pitch_bend_c, 5, 8704
5, 84915, Pitch_bend_c, 5, 7936
5, 84916, Pitch_bend_c, 5, 8704
5, 84919, Pitch_bend_c, 5, 8704
5, 84920, Pitch_bend_c, 5, 7936
5, 84921, Pitch_bend_c, 5, 8704
5, 84923, Pitch_bend_c, 5, 8704
5, 84924, Pitch_bend_c, 5, 7936
5, 84926, Pitch_bend_c, 5, 8704
5, 84928, Pitch_bend_c, 5, 8576
5, 84928, Pitch_bend_c, 5, 8064
5, 84930, Pitch_bend_c, 5, 8576
5, 84932, Pitch_bend_c, 5, 8064
5, 84933, Pitch_bend_c, 5, 8448
5, 84935, Pitch_bend_c, 5, 8320
5, 84937, Pitch_bend_c, 5, 8064
5, 84938, Pitch_bend_c, 5, 8192
5, 84940, Pitch_bend_c, 5, 8064
5, 84941, Pitch_bend_c, 5, 8192
5, 84942, Pitch_bend_c, 5, 7936
5, 84945, Pitch_bend_c, 5, 7808
5, 84945, Pitch_bend_c, 5, 8192
5, 84947, Pitch_bend_c, 5, 7808
5, 84949, Pitch_bend_c, 5, 7680
5, 84949, Pitch_bend_c, 5, 8192
5, 84952, Pitch_bend_c, 5, 7680
5, 84953, Pitch_bend_c, 5, 8320
5, 84954, Pitch_bend_c, 5, 7680
5, 84956, Pitch_bend_c, 5, 7680
5, 84958, Pitch_bend_c, 5, 8320
5, 84959, Pitch_bend_c, 5, 7680
5, 84960, Control_c, 4, 7, 50
5, 84960, Control_c, 5, 7, 50
5, 84961, Pitch_bend_c, 5, 7680
5, 84962, Pitch_bend_c, 5, 8320
5, 84963, Pitch_bend_c, 5, 7680
5, 84966, Pitch_bend_c, 5, 7808
5, 84966, Pitch_bend_c, 5, 8448
5, 84968, Pitch_bend_c, 5, 7936
5, 84970, Pitch_bend_c, 5, 7936
5, 84970, Pitch_bend_c, 5, 8448
5, 84973, Pitch_bend_c, 5, 8064
5, 84975, Pitch_bend_c, 5, 8192
5, 84975, Pitch_bend_c, 5, 8448
5, 84977, Pitch_bend_c, 5, 8320
5, 84979, Pitch_bend_c, 5, 8448
5, 84980, Pitch_bend_c, 5, 8448
5, 84982, Pitch_bend_c, 5, 8448
5, 84983, Pitch_bend_c, 5, 8448
5, 84984, Pitch_bend_c, 5, 8576
5, 84987, Pitch_bend_c, 5, 8704
5, 84987, Pitch_bend_c, 5, 8448
5, 84989, Pitch_bend_c, 5, 8704
5, 84991, Pitch_bend_c, 5, 8704
5, 84991, Pitch_bend_c, 5, 8448
5, 84994, Pitch_bend_c, 5, 8704
5, 84996, Pitch_bend_c, 5, 8704
5, 84996, Pitch_bend_c, 5, 8320
5, 84998, Pitch_bend_c, 5, 8704
5, 85000, Pitch_bend_c, 5, 8320
5, 85001, Pitch_bend_c, 5, 8576
5, 85003, Pitch_bend_c, 5, 8576
5, 85004, Pitch_bend_c, 5, 8320
5, 85005, Pitch_bend_c, 5, 8448
5, 85008, Pitch_bend_c, 5, 8320
5, 85008, Pitch_bend_c, 5, 8192
5, 85010, Pitch_bend_c, 5, 8320
5, 85013, Pitch_bend_c, 5, 8192
5, 85013, Pitch_bend_c, 5, 8192
5, 85015, Pitch_bend_c, 5, 8064
5, 85017, Pitch_bend_c, 5, 8064
5, 85017, Pitch_bend_c, 5, 8192
5, 85020, Pitch_bend_c, 5, 7936
5, 85021, Pitch_bend_c, 5, 8064
5, 85022, Pitch_bend_c, 5, 7808
5, 85024, Pitch_bend_c, 5, 7808
5, 85025, Pitch_bend_c, 5, 8064
5, 85027, Pitch_bend_c, 5, 7680
5, 85029, Pitch_bend_c, 5, 7680
5, 85029, Pitch_bend_c, 5, 8064
5, 85031, Pitch_bend_c, 5, 7680
5, 85034, Pitch_bend_c, 5, 7680
5, 85034, Pitch_bend_c, 5, 7936
5, 85036, Pitch_bend_c, 5, 7680
5, 85038, Pitch_bend_c, 5, 7680
5, 85038, Pitch_bend_c, 5, 7936
5, 85041, Pitch_bend_c, 5, 7808
5, 85042, Pitch_bend_c, 5, 7936
5, 85043, Pitch_bend_c, 5, 7936
5, 85045, Pitch_bend_c, 5, 7936
5, 85046, Pitch_bend_c, 5, 7936
5, 85048, Pitch_bend_c, 5, 8064
5, 85050, Pitch_bend_c, 5, 8192
5, 85050, Pitch_bend_c, 5, 7936
5, 85052, Pitch_bend_c, 5, 8320
5, 85055, Pitch_bend_c, 5, 8448
5, 85055, Pitch_bend_c, 5, 7936
5, 85057, Pitch_bend_c, 5, 8448
5, 85059, Pitch_bend_c, 5, 8576
5, 85059, Pitch_bend_c, 5, 7936
5, 85062, Pitch_bend_c, 5, 8704
5, 85063, Pitch_bend_c, 5, 8064
5, 85064, Pitch_bend_c, 5, 8704
5, 85066, Pitch_bend_c, 5, 8704
5, 85067, Pitch_bend_c, 5, 8064
5, 85069, Pitch_bend_c, 5, 8704
5, 85071, Pitch_bend_c, 5, 8704
5, 85072, Pitch_bend_c, 5, 8064
5, 85073, Pitch_bend_c, 5, 8704
5, 85076, Pitch_bend_c, 5, 8576
5, 85076, Pitch_bend_c, 5, 8192
5, 85078, Pitch_bend_c, 5, 8576
5, 85080, Control_c, 4, 7, 55
5, 85080, Control_c, 5, 7, 55
5, 85080, Pitch_bend_c, 5, 8448
5, 85080, Pitch_bend_c, 5, 8192
5, 85083, Pitch_bend_c, 5, 8320
5, 85084, Pitch_bend_c, 5, 8192
5, 85085, Pitch_bend_c, 5, 8320
5, 85088, Pitch_bend_c, 5, 8192
5, 85088, Pitch_bend_c, 5, 8320
5, 85090, Pitch_bend_c, 5, 8064
5, 85092, Pitch_bend_c, 5, 8064
5, 85093, Pitch_bend_c, 5, 8320
5, 85095, Pitch_bend_c, 5, 7936
5, 85097, Pitch_bend_c, 5, 7808
5, 85097, Pitch_bend_c, 5, 8320
5, 85099, Pitch_bend_c, 5, 7808
5, 85101, Pitch_bend_c, 5, 8448
5, 85102, Pitch_bend_c, 5, 7680
5, 85104, Pitch_bend_c, 5, 7680
5, 85105, Pitch_bend_c, 5, 8448
5, 85106, Pitch_bend_c, 5, 7680
5, 85109, Pitch_bend_c, 5, 7680
5, 85110, Pitch_bend_c, 5, 8448
5, 85111, Pitch_bend_c, 5, 7680
5, 85113, Pitch_bend_c, 5, 7680
5, 85114, Pitch_bend_c, 5, 8448
5, 85116, Pitch_bend_c, 5, 7808
5, 85118, Pitch_bend_c, 5, 7936
5, 85118, Pitch_bend_c, 5, 8448
5, 85120, Pitch_bend_c, 5, 7936
5, 85122, Pitch_bend_c, 5, 8448
5, 85123, Pitch_bend_c, 5, 8064
5, 85125, Pitch_bend_c, 5, 8192
5, 85126, Pitch_bend_c, 5, 8448
5, 85127, Pitch_bend_c, 5, 8320
5, 85130, Pitch_bend_c, 5, 8448
5, 85131, Pitch_bend_c, 5, 8320
5, 85132, Pitch_bend_c, 5, 8448
5, 85134, Pitch_bend_c, 5, 8576
5, 85135, Pitch_bend_c, 5, 8320
5, 85137, Pitch_bend_c, 5, 8576
5, 85139, Pitch_bend_c, 5, 8704
5, 85139, Pitch_bend_c, 5, 8320
5, 85141, Pitch_bend_c, 5, 8704
5, 85143, Pitch_bend_c, 5, 8192
5, 85144, Pitch_bend_c, 5, 8704
5, 85146, Pitch_bend_c, 5, 8704
5, 85148, Pitch_bend_c, 5, 8704
5, 85148, Pitch_bend_c, 5, 8192
5, 85151, Pitch_bend_c, 5, 8576
5, 85152, Pitch_bend_c, 5, 8192
5, 85153, Pitch_bend_c, 5, 8576
5, 85155, Pitch_bend_c, 5, 8448
5, 85156, Pitch_bend_c, 5, 8064
5, 85158, Pitch_bend_c, 5, 8320
5, 85160, Pitch_bend_c, 5, 8320
5, 85160, Pitch_bend_c, 5, 8064
5, 85163, Pitch_bend_c, 5, 8192
5, 85164, Pitch_bend_c, 5, 8064
5, 85165, Pitch_bend_c, 5, 8064
5, 85167, Pitch_bend_c, 5, 8064
5, 85169, Pitch_bend_c, 5, 7936
5, 85170, Pitch_bend_c, 5, 7936
5, 85172, Pitch_bend_c, 5, 7808
5, 85173, Pitch_bend_c, 5, 7936
5, 85174, Pitch_bend_c, 5, 7808
5, 85177, Pitch_bend_c, 5, 7680
5, 85177, Pitch_bend_c, 5, 7936
5, 85179, Pitch_bend_c, 5, 7680
5, 85181, Pitch_bend_c, 5, 7680
5, 85181, Pitch_bend_c, 5, 7936
5, 85184, Pitch_bend_c, 5, 7680
5, 85185, Pitch_bend_c, 5, 7936
5, 85186, Pitch_bend_c, 5, 7680
5, 85188, Pitch_bend_c, 5, 7808
5, 85190, Pitch_bend_c, 5, 7936
5, 85191, Pitch_bend_c, 5, 7808
5, 85193, Pitch_bend_c, 5, 7936
5, 85194, Pitch_bend_c, 5, 7936
5, 85195, Pitch_bend_c, 5, 7936
5, 85198, Pitch_bend_c, 5, 8064
5, 85198, Pitch_bend_c, 5, 8064
5, 85200, Control_c, 4, 7, 61
5, 85200, Control_c, 5, 7, 61
5, 85200, Pitch_bend_c, 5, 8192
5, 85202, Pitch_bend_c, 5, 8320
5, 85202, Pitch_bend_c, 5, 8064
5, 85205, Pitch_bend_c, 5, 8320
5, 85207, Pitch_bend_c, 5, 8448
5, 85207, Pitch_bend_c, 5, 8064
5, 85209, Pitch_bend_c, 5, 8576
5, 85211, Pitch_bend_c, 5, 8192
5, 85212, Pitch_bend_c, 5, 8576
5, 85214, Pitch_bend_c, 5, 8576
5, 85215, Pitch_bend_c, 5, 8192
5, 85216, Pitch_bend_c, 5, 8704
5, 85219, Pitch_bend_c, 5, 8704
5, 85219, Pitch_bend_c, 5, 8192
5, 85221, Pitch_bend_c, 5, 8704
5, 85223, Pitch_bend_c, 5, 8704
5, 85223, Pitch_bend_c, 5, 8320
5, 85226, Pitch_bend_c, 5, 8576
5, 85228, Pitch_bend_c, 5, 8576
5, 85228, Pitch_bend_c, 5, 8320
5, 85230, Pitch_bend_c, 5, 8448
5, 85232, Pitch_bend_c, 5, 8320
5, 85233, Pitch_bend_c, 5, 8320
5, 85235, Pitch_bend_c, 5, 8320
5, 85236, Pitch_bend_c, 5, 8448
5, 85238, Pitch_bend_c, 5, 8192
5, 85240, Pitch_bend_c, 5, 8064
5, 85240, Pitch_bend_c, 5, 8448
5, 85242, Pitch_bend_c, 5, 8064
5, 85245, Pitch_bend_c, 5, 7936
5, 85245, Pitch_bend_c, 5, 8448
5, 85247, Pitch_bend_c, 5, 7808
5, 85249, Pitch_bend_c, 5, 7808
5, 85249, Pitch_bend_c, 5, 8448
5, 85252, Pitch_bend_c, 5, 7680
5, 85253, Pitch_bend_c, 5, 8448
5, 85254, Pitch_bend_c, 5, 7680
5, 85256, Pitch_bend_c, 5, 7680
5, 85257, Pitch_bend_c, 5, 8448
5, 85259, Pitch_bend_c, 5, 7680
5, 85261, Pitch_bend_c, 5, 7808
5, 85261, Pitch_bend_c, 5, 8448
5, 85263, Pitch_bend_c, 5, 7808
5, 85266, Pitch_bend_c, 5, 7808
5, 85266, Pitch_bend_c, 5, 8320
5, 85268, Pitch_bend_c, 5, 7936
5, 85270, Pitch_bend_c, 5, 8064
5, 85270, Pitch_bend_c, 5, 8320
5, 85273, Pitch_bend_c, 5, 8064
5, 85274, Pitch_bend_c, 5, 8320
5, 85275, Pitch_bend_c, 5, 8192
5, 85277, Pitch_bend_c, 5, 8320
5, 85278, Pitch_bend_c, 5, 8192
5, 85280, Pitch_bend_c, 5, 8320
5, 85282, Pitch_bend_c, 5, 8448
5, 85283, Pitch_bend_c, 5, 8192
5, 85284, Pitch_bend_c, 5, 8448
5, 85287, Pitch_bend_c, 5, 8448
5, 85287, Pitch_bend_c, 5, 8192
5, 85289, Pitch_bend_c, 5, 8576
5, 85291, Pitch_bend_c, 5, 8576
5, 85291, Pitch_bend_c, 5, 8064
5, 85294, Pitch_bend_c, 5, 8576
5, 85295, Pitch_bend_c, 5, 8064
5, 85296, Pitch_bend_c, 5, 8576
5, 85298, Pitch_bend_c, 5, 8576
5, 85299, Pitch_bend_c, 5, 8064
5, 85301, Pitch_bend_c, 5, 8448
5, 85303, Pitch_bend_c, 5, 8448
5, 85304, Pitch_bend_c, 5, 7936
5, 85305, Pitch_bend_c, 5, 8448
5, 85308, Pitch_bend_c, 5, 8320
5, 85308, Pitch_bend_c, 5, 7936
5, 85310, Pitch_bend_c, 5, 8320
5, 85312, Pitch_bend_c, 5, 7936
5, 85313, Pitch_bend_c, 5, 8192
5, 85315, Pitch_bend_c, 5, 8064
5, 85316, Pitch_bend_c, 5, 7936
5, 85317, Pitch_bend_c, 5, 8064
5, 85320, Control_c, 4, 7, 66
5, 85320, Control_c, 5, 7, 66
5, 85320, Pitch_bend_c, 5, 7936
5, 85320, Pitch_bend_c, 5, 7936
5, 85322, Pitch_bend_c, 5, 7936
5, 85324, Pitch_bend_c, 5, 7936
5, 85325, Pitch_bend_c, 5, 7936
5, 85327, Pitch_bend_c, 5, 7808
5, 85329, Pitch_bend_c, 5, 7808
5, 85329, Pitch_bend_c, 5, 7936
5, 85331, Pitch_bend_c, 5, 7808
5, 85333, Pitch_bend_c, 5, 8064
5, 85334, Pitch_bend_c, 5, 7808
5, 85336, Pitch_bend_c, 5, 7808
5, 85337, Pitch_bend_c, 5, 8064
5, 85338, Pitch_bend_c, 5, 7936
5, 85341, Pitch_bend_c, 5, 7936
5, 85342, Pitch_bend_c, 5, 8064
5, 85343, Pitch_bend_c, 5, 7936
5, 85345, Pitch_bend_c, 5, 8064
5, 85346, Pitch_bend_c, 5, 8192
5, 85348, Pitch_bend_c, 5, 8064
5, 85350, Pitch_bend_c, 5, 8192
5, 85350, Pitch_bend_c, 5, 8192
5, 85352, Pitch_bend_c, 5, 8192
5, 85354, Pitch_bend_c, 5, 8192
5, 85355, Pitch_bend_c, 5, 8320
5, 85357, Pitch_bend_c, 5, 8320
5, 85358, Pitch_bend_c, 5, 8192
5, 85359, Pitch_bend_c, 5, 8320
5, 85362, Pitch_bend_c, 5, 8448
5, 85363, Pitch_bend_c, 5, 8320
5, 85364, Pitch_bend_c, 5, 8448
5, 85366, Pitch_bend_c, 5, 8448
5, 85367, Pitch_bend_c, 5, 8320
5, 85369, Pitch_bend_c, 5, 8448
5, 85371, Pitch_bend_c, 5, 8448
5, 85371, Pitch_bend_c, 5, 8320
5, 85373, Pitch_bend_c, 5, 8448
5, 85375, Pitch_bend_c, 5, 8320
5, 85376, Pitch_bend_c, 5, 8448
5, 85378, Pitch_bend_c, 5, 8320
5, 85380, Pitch_bend_c, 5, 8320
5, 85380, Pitch_bend_c, 5, 8320
5, 85383, Pitch_bend_c, 5, 8320
5, 85384, Pitch_bend_c, 5, 8320
5, 85385, Pitch_bend_c, 5, 8192
5, 85388, Pitch_bend_c, 5, 8192
5, 85388, Pitch_bend_c, 5, 8320
5, 85390, Pitch_bend_c, 5, 8192
5, 85392, Pitch_bend_c, 5, 8064
5, 85392, Pitch_bend_c, 5, 8320
5, 85395, Pitch_bend_c, 5, 8064
5, 85396, Pitch_bend_c, 5, 8320
5, 85397, Pitch_bend_c, 5, 8064
5, 85399, Pitch_bend_c, 5, 7936
5, 85401, Pitch_bend_c, 5, 8320
5, 85402, Pitch_bend_c, 5, 7936
5, 85404, Pitch_bend_c, 5, 7936
5, 85405, Pitch_bend_c, 5, 8192
5, 85406, Pitch_bend_c, 5, 7936
5, 85409, Pitch_bend_c, 5, 7936
5, 85409, Pitch_bend_c, 5, 8192
5, 85411, Pitch_bend_c, 5, 7936
5, 85413, Pitch_bend_c, 5, 7936
5, 85413, Pitch_bend_c, 5, 8192
5, 85416, Pitch_bend_c, 5, 8064
5, 85418, Pitch_bend_c, 5, 8064
5, 85418, Pitch_bend_c, 5, 8192
5, 85420, Pitch_bend_c, 5, 8064
5, 85422, Pitch_bend_c, 5, 8192
5, 85423, Pitch_bend_c, 5, 8192
5, 85425, Pitch_bend_c, 5, 8192
5, 85426, Pitch_bend_c, 5, 8192
5, 85427, Pitch_bend_c, 5, 8192
5, 85430, Pitch_bend_c, 5, 8192
5, 85430, Pitch_bend_c, 5, 8192
5, 85432, Pitch_bend_c, 5, 8192
5, 85434, Pitch_bend_c, 5, 8192
5, 85434, Pitch_bend_c, 5, 8064
5, 85437, Pitch_bend_c, 5, 8192
5, 85439, Pitch_bend_c, 5, 8192
5, 85439, Pitch_bend_c, 5, 8064
5, 85440, Control_c, 4, 7, 72
5, 85440, Control_c, 5, 7, 72
5, 85440, Pitch_bend_c, 5, 8192
5, 85440, Note_off_c, 5, 69, 80
5, 85440, Pitch_bend_c, 5, 8192
5, 86400, Program_c, 4, 122
5, 86400, Program_c, 5, 122
5, 86400, Control_c, 4, 7, 0
5, 86400, Control_c, 5, 7, 0
5, 87840, Control_c, 4, 7, 6
5, 87840, Control_c, 5, 7, 6
5, 87840, Control_c, 4, 10, 127
5, 87840, Control_c, 5, 10, 127
5, 87840, Pitch_bend_c, 5, 8192
5, 87840, Note_on_c, 5, 69, 95
5, 87840, Pitch_bend_c, 5, 8192
5, 87842, Pitch_bend_c, 5, 8192
5, 87844, Pitch_bend_c, 5, 8192
5, 87845, Pitch_bend_c, 5, 8192
5, 87847, Pitch_bend_c, 5, 8192
5, 87848, Pitch_bend_c, 5, 8192
5, 87849, Pitch_bend_c, 5, 8192
5, 87852, Pitch_bend_c, 5, 8192
5, 87853, Pitch_bend_c, 5, 8192
5, 87854, Pitch_bend_c, 5, 8192
5, 87856, Pitch_bend_c, 5, 8192
5, 87857, Pitch_bend_c, 5, 8192
5, 87859, Pitch_bend_c, 5, 8192
5, 87861, Pitch_bend_c, 5, 8192
5, 87861, Pitch_bend_c, 5, 8192
5, 87863, Pitch_bend_c, 5, 8192
5, 87865, Pitch_bend_c, 5, 8192
5, 87866, Pitch_bend_c, 5, 8192
5, 87868, Pitch_bend_c, 5, 8192
5, 87870, Pitch_bend_c, 5, 8192
5, 87870, Pitch_bend_c, 5, 8192
5, 87873, Pitch_bend_c, 5, 8192
5, 87874, Pitch_bend_c, 5, 8192
5, 87875, Pitch_bend_c, 5, 8192
5, 87878, Pitch_bend_c, 5, 8192
5, 87878, Pitch_bend_c, 5, 8192
5, 87880, Pitch_bend_c, 5, 8192
5, 87882, Pitch_bend_c, 5, 8192
5, 87882, Pitch_bend_c, 5, 8192
5, 87885, Pitch_bend_c, 5, 8192
5, 87886, Pitch_bend_c, 5, 8192
5, 87887, Pitch_bend_c, 5, 8192
5, 87889, Pitch_bend_c, 5, 8192
5, 87891, Pitch_bend_c, 5, 8192
5, 87892, Pitch_bend_c, 5, 8192
5, 87894, Pitch_bend_c, 5, 8192
5, 87895, Pitch_bend_c, 5, 8192
5, 87896, Pitch_bend_c, 5, 8192
5, 87899, Pitch_bend_c, 5, 8192
5, 87899, Pitch_bend_c, 5, 8192
5, 87901, Pitch_bend_c, 5, 8192
5, 87903, Pitch_bend_c, 5, 8192
5, 87903, Pitch_bend_c, 5, 8192
5, 87906, Pitch_bend_c, 5, 8192
5, 87908, Pitch_bend_c, 5, 8192
5, 87908, Pitch_bend_c, 5, 8192
5, 87910, Pitch_bend_c, 5, 8192
5, 87912, Pitch_bend_c, 5, 8192
5, 87913, Pitch_bend_c, 5, 8192
5, 87915, Pitch_bend_c, 5, 8192
5, 87916, Pitch_bend_c, 5, 8192
5, 87917, Pitch_bend_c, 5, 8192
5, 87920, Pitch_bend_c, 5, 8320
5, 87920, Pitch_bend_c, 5, 8192
5, 87922, Pitch_bend_c, 5, 8320
5, 87924, Pitch_bend_c, 5, 8320
5, 87924, Pitch_bend_c, 5, 8192
5, 87927, Pitch_bend_c, 5, 8320
5, 87929, Pitch_bend_c, 5, 8448
5, 87929, Pitch_bend_c, 5, 8192
5, 87931, Pitch_bend_c, 5, 8448
5, 87933, Pitch_bend_c, 5, 8192
5, 87934, Pitch_bend_c, 5, 8448
5, 87936, Pitch_bend_c, 5, 8448
5, 87937, Pitch_bend_c, 5, 8192
5, 87938, Pitch_bend_c, 5, 8448
5, 87941, Pitch_bend_c, 5, 8320
5, 87941, Pitch_bend_c, 5, 8192
5, 87943, Pitch_bend_c, 5, 8320
5, 87945, Pitch_bend_c, 5, 8320
5, 87945, Pitch_bend_c, 5, 8192
5, 87948, Pitch_bend_c, 5, 8320
5, 87950, Pitch_bend_c, 5, 8192
5, 87950, Pitch_bend_c, 5, 8192
5, 87953, Pitch_bend_c, 5, 8192
5, 87954, Pitch_bend_c, 5, 8192
5, 87955, Pitch_bend_c, 5, 8192
5, 87957, Pitch_bend_c, 5, 8064
5, 87958, Pitch_bend_c, 5, 8192
5, 87960, Control_c, 4, 7, 11
5, 87960, Control_c, 5, 7, 11
5, 87960, Pitch_bend_c, 5, 8064
5, 87962, Pitch_bend_c, 5, 8064
5, 87962, Pitch_bend_c, 5, 8192
5, 87964, Pitch_bend_c, 5, 8064
5, 87967, Pitch_bend_c, 5, 7936
5, 87967, Pitch_bend_c, 5, 8192
5, 87969, Pitch_bend_c, 5, 7936
5, 87971, Pitch_bend_c, 5, 7936
5, 87971, Pitch_bend_c, 5, 8192
5, 87974, Pitch_bend_c, 5, 7936
5, 87975, Pitch_bend_c, 5, 8192
5, 87976, Pitch_bend_c, 5, 7936
5, 87978, Pitch_bend_c, 5, 8064
5, 87979, Pitch_bend_c, 5, 8192
5, 87981, Pitch_bend_c, 5, 8064
5, 87983, Pitch_bend_c, 5, 8064
5, 87983, Pitch_bend_c, 5, 8320
5, 87985, Pitch_bend_c, 5, 8064
5, 87988, Pitch_bend_c, 5, 8192
5, 87988, Pitch_bend_c, 5, 8320
5, 87990, Pitch_bend_c, 5, 8192
5, 87992, Pitch_bend_c, 5, 8320
5, 87992, Pitch_bend_c, 5, 8320
5, 87995, Pitch_bend_c, 5, 8320
5, 87996, Pitch_bend_c, 5, 8320
5, 87997, Pitch_bend_c, 5, 8448
5, 87999, Pitch_bend_c, 5, 8448
5, 88000, Pitch_bend_c, 5, 8320
5, 88002, Pitch_bend_c, 5, 8576
5, 88004, Pitch_bend_c, 5, 8576
5, 88005, Pitch_bend_c, 5, 8448
5, 88006, Pitch_bend_c, 5, 8576
5, 88009, Pitch_bend_c, 5, 8576
5, 88009, Pitch_bend_c, 5, 8448
5, 88011, Pitch_bend_c, 5, 8576
5, 88013, Pitch_bend_c, 5, 8576
5, 88013, Pitch_bend_c, 5, 8448
5, 88016, Pitch_bend_c, 5, 8576
5, 88017, Pitch_bend_c, 5, 8320
5, 88018, Pitch_bend_c, 5, 8448
5, 88020, Pitch_bend_c, 5, 8448
5, 88021, Pitch_bend_c, 5, 8320
5, 88023, Pitch_bend_c, 5, 8320
5, 88025, Pitch_bend_c, 5, 8320
5, 88026, Pitch_bend_c, 5, 8320
5, 88028, Pitch_bend_c, 5, 8192
5, 88030, Pitch_bend_c, 5, 8064
5, 88030, Pitch_bend_c, 5, 8320
5, 88032, Pitch_bend_c, 5, 8064
5, 88034, Pitch_bend_c, 5, 8320
5, 88035, Pitch_bend_c, 5, 7936
5, 88037, Pitch_bend_c, 5, 7936
5, 88038, Pitch_bend_c, 5, 8192
5, 88039, Pitch_bend_c, 5, 7808
5, 88042, Pitch_bend_c, 5, 7808
5, 88043, Pitch_bend_c, 5, 8192
5, 88044, Pitch_bend_c, 5, 7808
5, 88046, Pitch_bend_c, 5, 7808
5, 88047, Pitch_bend_c, 5, 8192
5, 88049, Pitch_bend_c, 5, 7808
5, 88051, Pitch_bend_c, 5, 7808
5, 88051, Pitch_bend_c, 5, 8064
5, 88053, Pitch_bend_c, 5, 7808
5, 88055, Pitch_bend_c, 5, 8064
5, 88056, Pitch_bend_c, 5, 7936
5, 88058, Pitch_bend_c, 5, 7936
5, 88059, Pitch_bend_c, 5, 8064
5, 88060, Pitch_bend_c, 5, 8064
5, 88063, Pitch_bend_c, 5, 8064
5, 88064, Pitch_bend_c, 5, 8064
5, 88065, Pitch_bend_c, 5, 8192
5, 88067, Pitch_bend_c, 5, 8320
5, 88068, Pitch_bend_c, 5, 8064
5, 88070, Pitch_bend_c, 5, 8448
5, 88072, Pitch_bend_c, 5, 8448
5, 88072, Pitch_bend_c, 5, 7936
5, 88074, Pitch_bend_c, 5, 8576
5, 88076, Pitch_bend_c, 5, 7936
5, 88077, Pitch_bend_c, 5, 8576
5, 88079, Pitch_bend_c, 5, 8704
5, 88080, Control_c, 4, 7, 17
5, 88080, Control_c, 5, 7, 17
5, 88080, Pitch_bend_c, 5, 7936
5, 88081, Pitch_bend_c, 5, 8704
5, 88084, Pitch_bend_c, 5, 8704
5, 88085, Pitch_bend_c, 5, 8064
5, 88086, Pitch_bend_c, 5, 8704
5, 88088, Pitch_bend_c, 5, 8704
5, 88089, Pitch_bend_c, 5, 8064
5, 88091, Pitch_bend_c, 5, 8576
5, 88093, Pitch_bend_c, 5, 8576
5, 88093, Pitch_bend_c, 5, 8064
5, 88095, Pitch_bend_c, 5, 8448
5, 88097, Pitch_bend_c, 5, 8064
5, 88098, Pitch_bend_c, 5, 8320
5, 88100, Pitch_bend_c, 5, 8320
5, 88102, Pitch_bend_c, 5, 8064
5, 88103, Pitch_bend_c, 5, 8192
5, 88105, Pitch_bend_c, 5, 8064
5, 88106, Pitch_bend_c, 5, 8192
5, 88107, Pitch_bend_c, 5, 8064
5, 88110, Pitch_bend_c, 5, 7936
5, 88110, Pitch_bend_c, 5, 8192
5, 88112, Pitch_bend_c, 5, 7808
5, 88114, Pitch_bend_c, 5, 7808
5, 88114, Pitch_bend_c, 5, 8192
5, 88117, Pitch_bend_c, 5, 7680
5, 88118, Pitch_bend_c, 5, 8320
5, 88119, Pitch_bend_c, 5, 7680
5, 88121, Pitch_bend_c, 5, 7680
5, 88123, Pitch_bend_c, 5, 8320
5, 88124, Pitch_bend_c, 5, 7680
5, 88126, Pitch_bend_c, 5, 7680
5, 88127, Pitch_bend_c, 5, 8448
5, 88128, Pitch_bend_c, 5, 7808
5, 88131, Pitch_bend_c, 5, 7808
5, 88131, Pitch_bend_c, 5, 8448
5, 88133, Pitch_bend_c, 5, 7936
5, 88135, Pitch_bend_c, 5, 7936
5, 88135, Pitch_bend_c, 5, 8448
5, 88138, Pitch_bend_c, 5, 8064
5, 88140, Pitch_bend_c, 5, 8192
5, 88140, Pitch_bend_c, 5, 8448
5, 88142, Pitch_bend_c, 5, 8320
5, 88144, Pitch_bend_c, 5, 8448
5, 88145, Pitch_bend_c, 5, 8448
5, 88147, Pitch_bend_c, 5, 8448
5, 88148, Pitch_bend_c, 5, 8448
5, 88149, Pitch_bend_c, 5, 8576
5, 88152, Pitch_bend_c, 5, 8704
5, 88152, Pitch_bend_c, 5, 8448
5, 88154, Pitch_bend_c, 5, 8704
5, 88156, Pitch_bend_c, 5, 8704
5, 88156, Pitch_bend_c, 5, 8448
5, 88159, Pitch_bend_c, 5, 8704
5, 88161, Pitch_bend_c, 5, 8704
5, 88161, Pitch_bend_c, 5, 8448
5, 88163, Pitch_bend_c, 5, 8704
5, 88165, Pitch_bend_c, 5, 8320
5, 88166, Pitch_bend_c, 5, 8576
5, 88168, Pitch_bend_c, 5, 8576
5, 88169, Pitch_bend_c, 5, 8320
5, 88170, Pitch_bend_c, 5, 8448
5, 88173, Pitch_bend_c, 5, 8320
5, 88173, Pitch_bend_c, 5, 8192
5, 88175, Pitch_bend_c, 5, 8320
5, 88178, Pitch_bend_c, 5, 8192
5, 88178, Pitch_bend_c, 5, 8192
5, 88180, Pitch_bend_c, 5, 8064
5, 88182, Pitch_bend_c, 5, 8064
5, 88182, Pitch_bend_c, 5, 8192
5, 88185, Pitch_bend_c, 5, 7936
5, 88186, Pitch_bend_c, 5, 8064
5, 88187, Pitch_bend_c, 5, 7808
5, 88189, Pitch_bend_c, 5, 7808
5, 88190, Pitch_bend_c, 5, 8064
5, 88192, Pitch_bend_c, 5, 7680
5, 88194, Pitch_bend_c, 5, 7680
5, 88194, Pitch_bend_c, 5, 7936
5, 88196, Pitch_bend_c, 5, 7680
5, 88199, Pitch_bend_c, 5, 7680
5, 88199, Pitch_bend_c, 5, 7936
5, 88200, Control_c, 4, 7, 22
5, 88200, Control_c, 5, 7, 22
5, 88201, Pitch_bend_c, 5, 7680
5, 88203, Pitch_bend_c, 5, 7680
5, 88203, Pitch_bend_c, 5, 7936
5, 88206, Pitch_bend_c, 5, 7808
5, 88207, Pitch_bend_c, 5, 7936
5, 88208, Pitch_bend_c, 5, 7936
5, 88210, Pitch_bend_c, 5, 7936
5, 88211, Pitch_bend_c, 5, 7936
5, 88213, Pitch_bend_c, 5, 8064
5, 88215, Pitch_bend_c, 5, 8192
5, 88215, Pitch_bend_c, 5, 7936
5, 88217, Pitch_bend_c, 5, 8320
5, 88220, Pitch_bend_c, 5, 8448
5, 88220, Pitch_bend_c, 5, 7936
5, 88222, Pitch_bend_c, 5, 8448
5, 88224, Pitch_bend_c, 5, 8576
5, 88224, Pitch_bend_c, 5, 7936
5, 88227, Pitch_bend_c, 5, 8704
5, 88228, Pitch_bend_c, 5, 7936
5, 88229, Pitch_bend_c, 5, 8704
5, 88231, Pitch_bend_c, 5, 8704
5, 88232, Pitch_bend_c, 5, 8064
5, 88234, Pitch_bend_c, 5, 8704
5, 88236, Pitch_bend_c, 5, 8704
5, 88237, Pitch_bend_c, 5, 8064
5, 88238, Pitch_bend_c, 5, 8704
5, 88241, Pitch_bend_c, 5, 8704
5, 88241, Pitch_bend_c, 5, 8192
5, 88243, Pitch_bend_c, 5, 8576
5, 88245, Pitch_bend_c, 5, 8576
5, 88245, Pitch_bend_c, 5, 8192
5, 88248, Pitch_bend_c, 5, 8448
5, 88249, Pitch_bend_c, 5, 8192
5, 88250, Pitch_bend_c, 5, 8320
5, 88253, Pitch_bend_c, 5, 8192
5, 88253, Pitch_bend_c, 5, 8320
5, 88255, Pitch_bend_c, 5, 8064
5, 88257, Pitch_bend_c, 5, 7936
5, 88258, Pitch_bend_c, 5, 8320
5, 88260, Pitch_bend_c, 5, 7808
5, 88262, Pitch_bend_c, 5, 7808
5, 88262, Pitch_bend_c, 5, 8320
5, 88264, Pitch_bend_c, 5, 7680
5, 88266, Pitch_bend_c, 5, 8448
5, 88267, Pitch_bend_c, 5, 7680
5, 88269, Pitch_bend_c, 5, 7680
5, 88270, Pitch_bend_c, 5, 8448
5, 88271, Pitch_bend_c, 5, 7680
5, 88274, Pitch_bend_c, 5, 7680
5, 88275, Pitch_bend_c, 5, 8448
5, 88276, Pitch_bend_c, 5, 7680
5, 88278, Pitch_bend_c, 5, 7680
5, 88279, Pitch_bend_c, 5, 8448
5, 88281, Pitch_bend_c, 5, 7808
5, 88283, Pitch_bend_c, 5, 7936
5, 88283, Pitch_bend_c, 5, 8448
5, 88285, Pitch_bend_c, 5, 7936
5, 88287, Pitch_bend_c, 5, 8448
5, 88288, Pitch_bend_c, 5, 8064
5, 88290, Pitch_bend_c, 5, 8192
5, 88291, Pitch_bend_c, 5, 8448
5, 88292, Pitch_bend_c, 5, 8320
5, 88295, Pitch_bend_c, 5, 8448
5, 88296, Pitch_bend_c, 5, 8320
5, 88297, Pitch_bend_c, 5, 8448
5, 88299, Pitch_bend_c, 5, 8576
5, 88300, Pitch_bend_c, 5, 8320
5, 88302, Pitch_bend_c, 5, 8576
5, 88304, Pitch_bend_c, 5, 8704
5, 88304, Pitch_bend_c, 5, 8320
5, 88306, Pitch_bend_c, 5, 8704
5, 88308, Pitch_bend_c, 5, 8192
5, 88309, Pitch_bend_c, 5, 8704
5, 88311, Pitch_bend_c, 5, 8704
5, 88313, Pitch_bend_c, 5, 8704
5, 88313, Pitch_bend_c, 5, 8192
5, 88316, Pitch_bend_c, 5, 8576
5, 88317, Pitch_bend_c, 5, 8192
5, 88318, Pitch_bend_c, 5, 8576
5, 88320, Control_c, 4, 7, 28
5, 88320, Control_c, 5, 7, 28
5, 88320, Pitch_bend_c, 5, 8448
5, 88321, Pitch_bend_c, 5, 8064
5, 88323, Pitch_bend_c, 5, 8320
5, 88325, Pitch_bend_c, 5, 8320
5, 88325, Pitch_bend_c, 5, 8064
5, 88328, Pitch_bend_c, 5, 8192
5, 88329, Pitch_bend_c, 5, 8064
5, 88330, Pitch_bend_c, 5, 8064
5, 88332, Pitch_bend_c, 5, 8064
5, 88334, Pitch_bend_c, 5, 7936
5, 88335, Pitch_bend_c, 5, 7936
5, 88337, Pitch_bend_c, 5, 7808
5, 88338, Pitch_bend_c, 5, 7936
5, 88339, Pitch_bend_c, 5, 7808
5, 88342, Pitch_bend_c, 5, 7680
5, 88342, Pitch_bend_c, 5, 7936
5, 88344, Pitch_bend_c, 5, 7680
5, 88346, Pitch_bend_c, 5, 7680
5, 88346, Pitch_bend_c, 5, 7936
5, 88349, Pitch_bend_c, 5, 7680
5, 88350, Pitch_bend_c, 5, 7936
5, 88351, Pitch_bend_c, 5, 7680
5, 88353, Pitch_bend_c, 5, 7808
5, 88355, Pitch_bend_c, 5, 7936
5, 88356, Pitch_bend_c, 5, 7808
5, 88358, Pitch_bend_c, 5, 7936
5, 88359, Pitch_bend_c, 5, 7936
5, 88360, Pitch_bend_c, 5, 7936
5, 88363, Pitch_bend_c, 5, 8064
5, 88363, Pitch_bend_c, 5, 8064
5, 88365, Pitch_bend_c, 5, 8192
5, 88367, Pitch_bend_c, 5, 8320
5, 88367, Pitch_bend_c, 5, 8064
5, 88370, Pitch_bend_c, 5, 8448
5, 88372, Pitch_bend_c, 5, 8448
5, 88372, Pitch_bend_c, 5, 8064
5, 88374, Pitch_bend_c, 5, 8576
5, 88376, Pitch_bend_c, 5, 8192
5, 88377, Pitch_bend_c, 5, 8704
5, 88379, Pitch_bend_c, 5, 8704
5, 88380, Pitch_bend_c, 5, 8192
5, 88381, Pitch_bend_c, 5, 8704
5, 88384, Pitch_bend_c, 5, 8704
5, 88384, Pitch_bend_c, 5, 8192
5, 88386, Pitch_bend_c, 5, 8704
5, 88388, Pitch_bend_c, 5, 8704
5, 88388, Pitch_bend_c, 5, 8320
5, 88391, Pitch_bend_c, 5, 8704
5, 88393, Pitch_bend_c, 5, 8576
5, 88393, Pitch_bend_c, 5, 8320
5, 88395, Pitch_bend_c, 5, 8576
5, 88397, Pitch_bend_c, 5, 8320
5, 88398, Pitch_bend_c, 5, 8448
5, 88400, Pitch_bend_c, 5, 8320
5, 88401, Pitch_bend_c, 5, 8448
5, 88403, Pitch_bend_c, 5, 8192
5, 88405, Pitch_bend_c, 5, 8064
5, 88405, Pitch_bend_c, 5, 8448
5, 88407, Pitch_bend_c, 5, 7936
5, 88410, Pitch_bend_c, 5, 7808
5, 88410, Pitch_bend_c, 5, 8448
5, 88412, Pitch_bend_c, 5, 7808
5, 88414, Pitch_bend_c, 5, 7680
5, 88414, Pitch_bend_c, 5, 8448
5, 88417, Pitch_bend_c, 5, 7680
5, 88418, Pitch_bend_c, 5, 8448
5, 88419, Pitch_bend_c, 5, 7680
5, 88421, Pitch_bend_c, 5, 7680
5, 88422, Pitch_bend_c, 5, 8448
5, 88424, Pitch_bend_c, 5, 7680
5, 88426, Pitch_bend_c, 5, 7680
5, 88426, Pitch_bend_c, 5, 8448
5, 88428, Pitch_bend_c, 5, 7680
5, 88431, Pitch_bend_c, 5, 7808
5, 88431, Pitch_bend_c, 5, 8320
5, 88433, Pitch_bend_c, 5, 7936
5, 88435, Pitch_bend_c, 5, 7936
5, 88435, Pitch_bend_c, 5, 8320
5, 88438, Pitch_bend_c, 5, 8064
5, 88439, Pitch_bend_c, 5, 8320
5, 88440, Control_c, 4, 7, 33
5, 88440, Control_c, 5, 7, 33
5, 88440, Pitch_bend_c, 5, 8192
5, 88442, Pitch_bend_c, 5, 8320
5, 88443, Pitch_bend_c, 5, 8192
5, 88445, Pitch_bend_c, 5, 8448
5, 88447, Pitch_bend_c, 5, 8576
5, 88448, Pitch_bend_c, 5, 8192
5, 88449, Pitch_bend_c, 5, 8576
5, 88452, Pitch_bend_c, 5, 8704
5, 88452, Pitch_bend_c, 5, 8192
5, 88454, Pitch_bend_c, 5, 8704
5, 88456, Pitch_bend_c, 5, 8832
5, 88456, Pitch_bend_c, 5, 8064
5, 88459, Pitch_bend_c, 5, 8832
5, 88460, Pitch_bend_c, 5, 8064
5, 88461, Pitch_bend_c, 5, 8832
5, 88463, Pitch_bend_c, 5, 8704
5, 88464, Pitch_bend_c, 5, 8064
5, 88466, Pitch_bend_c, 5, 8704
5, 88468, Pitch_bend_c, 5, 8576
5, 88469, Pitch_bend_c, 5, 7936
5, 88470, Pitch_bend_c, 5, 8576
5, 88473, Pitch_bend_c, 5, 8448
5, 88473, Pitch_bend_c, 5, 7936
5, 88475, Pitch_bend_c, 5, 8320
5, 88477, Pitch_bend_c, 5, 7936
5, 88478, Pitch_bend_c, 5, 8192
5, 88480, Pitch_bend_c, 5, 8064
5, 88481, Pitch_bend_c, 5, 7936
5, 88482, Pitch_bend_c, 5, 7936
5, 88485, Pitch_bend_c, 5, 7808
5, 88485, Pitch_bend_c, 5, 7936
5, 88487, Pitch_bend_c, 5, 7808
5, 88489, Pitch_bend_c, 5, 7680
5, 88490, Pitch_bend_c, 5, 7936
5, 88492, Pitch_bend_c, 5, 7680
5, 88494, Pitch_bend_c, 5, 7552
5, 88494, Pitch_bend_c, 5, 7936
5, 88496, Pitch_bend_c, 5, 7552
5, 88498, Pitch_bend_c, 5, 8064
5, 88499, Pitch_bend_c, 5, 7552
5, 88501, Pitch_bend_c, 5, 7680
5, 88502, Pitch_bend_c, 5, 8064
5, 88503, Pitch_bend_c, 5, 7680
5, 88506, Pitch_bend_c, 5, 7808
5, 88507, Pitch_bend_c, 5, 8064
5, 88508, Pitch_bend_c, 5, 7808
5, 88510, Pitch_bend_c, 5, 7936
5, 88511, Pitch_bend_c, 5, 8192
5, 88513, Pitch_bend_c, 5, 8064
5, 88515, Pitch_bend_c, 5, 8192
5, 88515, Pitch_bend_c, 5, 8192
5, 88517, Pitch_bend_c, 5, 8320
5, 88519, Pitch_bend_c, 5, 8192
5, 88520, Pitch_bend_c, 5, 8448
5, 88522, Pitch_bend_c, 5, 8576
5, 88523, Pitch_bend_c, 5, 8320
5, 88524, Pitch_bend_c, 5, 8576
5, 88527, Pitch_bend_c, 5, 8704
5, 88528, Pitch_bend_c, 5, 8320
5, 88529, Pitch_bend_c, 5, 8704
5, 88531, Pitch_bend_c, 5, 8704
5, 88532, Pitch_bend_c, 5, 8320
5, 88534, Pitch_bend_c, 5, 8832
5, 88536, Pitch_bend_c, 5, 8704
5, 88536, Pitch_bend_c, 5, 8320
5, 88538, Pitch_bend_c, 5, 8704
5, 88540, Pitch_bend_c, 5, 8320
5, 88541, Pitch_bend_c, 5, 8704
5, 88543, Pitch_bend_c, 5, 8576
5, 88545, Pitch_bend_c, 5, 8576
5, 88545, Pitch_bend_c, 5, 8320
5, 88548, Pitch_bend_c, 5, 8448
5, 88549, Pitch_bend_c, 5, 8320
5, 88550, Pitch_bend_c, 5, 8320
5, 88553, Pitch_bend_c, 5, 8192
5, 88553, Pitch_bend_c, 5, 8320
5, 88555, Pitch_bend_c, 5, 8064
5, 88557, Pitch_bend_c, 5, 7936
5, 88557, Pitch_bend_c, 5, 8320
5, 88560, Control_c, 4, 7, 39
5, 88560, Control_c, 5, 7, 39
5, 88560, Pitch_bend_c, 5, 7808
5, 88561, Pitch_bend_c, 5, 8320
5, 88562, Pitch_bend_c, 5, 7808
5, 88564, Pitch_bend_c, 5, 7680
5, 88566, Pitch_bend_c, 5, 8320
5, 88567, Pitch_bend_c, 5, 7680
5, 88569, Pitch_bend_c, 5, 7680
5, 88570, Pitch_bend_c, 5, 8320
5, 88571, Pitch_bend_c, 5, 7552
5, 88574, Pitch_bend_c, 5, 7680
5, 88574, Pitch_bend_c, 5, 8320
5, 88576, Pitch_bend_c, 5, 7680
5, 88578, Pitch_bend_c, 5, 7680
5, 88578, Pitch_bend_c, 5, 8192
5, 88581, Pitch_bend_c, 5, 7808
5, 88583, Pitch_bend_c, 5, 7808
5, 88583, Pitch_bend_c, 5, 8192
5, 88585, Pitch_bend_c, 5, 7936
5, 88587, Pitch_bend_c, 5, 8192
5, 88588, Pitch_bend_c, 5, 8064
5, 88590, Pitch_bend_c, 5, 8192
5, 88591, Pitch_bend_c, 5, 8064
5, 88592, Pitch_bend_c, 5, 8320
5, 88595, Pitch_bend_c, 5, 8448
5, 88595, Pitch_bend_c, 5, 8064
5, 88597, Pitch_bend_c, 5, 8448
5, 88599, Pitch_bend_c, 5, 8576
5, 88599, Pitch_bend_c, 5, 8064
5, 88602, Pitch_bend_c, 5, 8704
5, 88604, Pitch_bend_c, 5, 8704
5, 88604, Pitch_bend_c, 5, 8064
5, 88606, Pitch_bend_c, 5, 8704
5, 88608, Pitch_bend_c, 5, 8064
5, 88609, Pitch_bend_c, 5, 8704
5, 88611, Pitch_bend_c, 5, 8704
5, 88612, Pitch_bend_c, 5, 8064
5, 88613, Pitch_bend_c, 5, 8704
5, 88616, Pitch_bend_c, 5, 8704
5, 88616, Pitch_bend_c, 5, 8064
5, 88618, Pitch_bend_c, 5, 8576
5, 88620, Pitch_bend_c, 5, 8576
5, 88620, Pitch_bend_c, 5, 8064
5, 88623, Pitch_bend_c, 5, 8448
5, 88625, Pitch_bend_c, 5, 8320
5, 88625, Pitch_bend_c, 5, 8064
5, 88628, Pitch_bend_c, 5, 8192
5, 88629, Pitch_bend_c, 5, 8064
5, 88630, Pitch_bend_c, 5, 8064
5, 88632, Pitch_bend_c, 5, 7936
5, 88633, Pitch_bend_c, 5, 8064
5, 88635, Pitch_bend_c, 5, 7808
5, 88637, Pitch_bend_c, 5, 7808
5, 88637, Pitch_bend_c, 5, 8064
5, 88639, Pitch_bend_c, 5, 7680
5, 88642, Pitch_bend_c, 5, 7680
5, 88642, Pitch_bend_c, 5, 8064
5, 88644, Pitch_bend_c, 5, 7680
5, 88646, Pitch_bend_c, 5, 7680
5, 88646, Pitch_bend_c, 5, 8192
5, 88649, Pitch_bend_c, 5, 7680
5, 88650, Pitch_bend_c, 5, 8192
5, 88651, Pitch_bend_c, 5, 7680
5, 88653, Pitch_bend_c, 5, 7680
5, 88654, Pitch_bend_c, 5, 8192
5, 88656, Pitch_bend_c, 5, 7808
5, 88658, Pitch_bend_c, 5, 7936
5, 88658, Pitch_bend_c, 5, 8320
5, 88660, Pitch_bend_c, 5, 7936
5, 88663, Pitch_bend_c, 5, 8064
5, 88663, Pitch_bend_c, 5, 8320
5, 88665, Pitch_bend_c, 5, 8192
5, 88667, Pitch_bend_c, 5, 8320
5, 88667, Pitch_bend_c, 5, 8320
5, 88670, Pitch_bend_c, 5, 8448
5, 88671, Pitch_bend_c, 5, 8448
5, 88672, Pitch_bend_c, 5, 8576
5, 88674, Pitch_bend_c, 5, 8576
5, 88675, Pitch_bend_c, 5, 8448
5, 88677, Pitch_bend_c, 5, 8704
5, 88679, Pitch_bend_c, 5, 8704
5, 88680, Control_c, 4, 7, 44
5, 88680, Control_c, 5, 7, 44
5, 88680, Pitch_bend_c, 5, 8448
5, 88681, Pitch_bend_c, 5, 8832
5, 88684, Pitch_bend_c, 5, 8832
5, 88684, Pitch_bend_c, 5, 8448
5, 88686, Pitch_bend_c, 5, 8832
5, 88688, Pitch_bend_c, 5, 8704
5, 88688, Pitch_bend_c, 5, 8448
5, 88691, Pitch_bend_c, 5, 8704
5, 88692, Pitch_bend_c, 5, 8448
5, 88693, Pitch_bend_c, 5, 8576
5, 88695, Pitch_bend_c, 5, 8576
5, 88696, Pitch_bend_c, 5, 8448
5, 88698, Pitch_bend_c, 5, 8448
5, 88700, Pitch_bend_c, 5, 8320
5, 88701, Pitch_bend_c, 5, 8320
5, 88703, Pitch_bend_c, 5, 8192
5, 88705, Pitch_bend_c, 5, 8064
5, 88705, Pitch_bend_c, 5, 8320
5, 88707, Pitch_bend_c, 5, 7936
5, 88709, Pitch_bend_c, 5, 8320
5, 88710, Pitch_bend_c, 5, 7808
5, 88712, Pitch_bend_c, 5, 7808
5, 88713, Pitch_bend_c, 5, 8192
5, 88714, Pitch_bend_c, 5, 7680
5, 88717, Pitch_bend_c, 5, 7680
5, 88718, Pitch_bend_c, 5, 8192
5, 88719, Pitch_bend_c, 5, 7552
5, 88721, Pitch_bend_c, 5, 7552
5, 88722, Pitch_bend_c, 5, 8192
5, 88724, Pitch_bend_c, 5, 7552
5, 88726, Pitch_bend_c, 5, 7680
5, 88726, Pitch_bend_c, 5, 8064
5, 88728, Pitch_bend_c, 5, 7680
5, 88730, Pitch_bend_c, 5, 8064
5, 88731, Pitch_bend_c, 5, 7808
5, 88733, Pitch_bend_c, 5, 7808
5, 88734, Pitch_bend_c, 5, 8064
5, 88735, Pitch_bend_c, 5, 7936
5, 88738, Pitch_bend_c, 5, 8064
5, 88739, Pitch_bend_c, 5, 7936
5, 88740, Pitch_bend_c, 5, 8192
5, 88742, Pitch_bend_c, 5, 8320
5, 88743, Pitch_bend_c, 5, 7936
5, 88745, Pitch_bend_c, 5, 8448
5, 88747, Pitch_bend_c, 5, 8448
5, 88747, Pitch_bend_c, 5, 7936
5, 88749, Pitch_bend_c, 5, 8576
5, 88751, Pitch_bend_c, 5, 7936
5, 88752, Pitch_bend_c, 5, 8576
5, 88754, Pitch_bend_c, 5, 8704
5, 88755, Pitch_bend_c, 5, 7936
5, 88756, Pitch_bend_c, 5, 8704
5, 88759, Pitch_bend_c, 5, 8704
5, 88760, Pitch_bend_c, 5, 7936
5, 88761, Pitch_bend_c, 5, 8704
5, 88763, Pitch_bend_c, 5, 8704
5, 88764, Pitch_bend_c, 5, 7936
5, 88766, Pitch_bend_c, 5, 8576
5, 88768, Pitch_bend_c, 5, 8576
5, 88768, Pitch_bend_c, 5, 8064
5, 88770, Pitch_bend_c, 5, 8448
5, 88772, Pitch_bend_c, 5, 8064
5, 88773, Pitch_bend_c, 5, 8320
5, 88775, Pitch_bend_c, 5, 8320
5, 88777, Pitch_bend_c, 5, 8064
5, 88778, Pitch_bend_c, 5, 8192
5, 88780, Pitch_bend_c, 5, 8064
5, 88781, Pitch_bend_c, 5, 8192
5, 88782, Pitch_bend_c, 5, 8064
5, 88785, Pitch_bend_c, 5, 7936
5, 88785, Pitch_bend_c, 5, 8192
5, 88787, Pitch_bend_c, 5, 7808
5, 88789, Pitch_bend_c, 5, 7808
5, 88789, Pitch_bend_c, 5, 8192
5, 88792, Pitch_bend_c, 5, 7680
5, 88793, Pitch_bend_c, 5, 8320
5, 88794, Pitch_bend_c, 5, 7680
5, 88796, Pitch_bend_c, 5, 7680
5, 88798, Pitch_bend_c, 5, 8320
5, 88799, Pitch_bend_c, 5, 7680
5, 88800, Control_c, 4, 7, 50
5, 88800, Control_c, 5, 7, 50
5, 88801, Pitch_bend_c, 5, 7680
5, 88802, Pitch_bend_c, 5, 8320
5, 88803, Pitch_bend_c, 5, 7808
5, 88806, Pitch_bend_c, 5, 7808
5, 88806, Pitch_bend_c, 5, 8448
5, 88808, Pitch_bend_c, 5, 7936
5, 88810, Pitch_bend_c, 5, 7936
5, 88810, Pitch_bend_c, 5, 8448
5, 88813, Pitch_bend_c, 5, 8064
5, 88815, Pitch_bend_c, 5, 8192
5, 88815, Pitch_bend_c, 5, 8448
5, 88817, Pitch_bend_c, 5, 8320
5, 88819, Pitch_bend_c, 5, 8448
5, 88820, Pitch_bend_c, 5, 8448
5, 88822, Pitch_bend_c, 5, 8448
5, 88823, Pitch_bend_c, 5, 8448
5, 88824, Pitch_bend_c, 5, 8576
5, 88827, Pitch_bend_c, 5, 8576
5, 88827, Pitch_bend_c, 5, 8448
5, 88829, Pitch_bend_c, 5, 8704
5, 88831, Pitch_bend_c, 5, 8704
5, 88831, Pitch_bend_c, 5, 8448
5, 88834, Pitch_bend_c, 5, 8704
5, 88836, Pitch_bend_c, 5, 8704
5, 88836, Pitch_bend_c, 5, 8320
5, 88838, Pitch_bend_c, 5, 8704
5, 88840, Pitch_bend_c, 5, 8320
5, 88841, Pitch_bend_c, 5, 8576
5, 88843, Pitch_bend_c, 5, 8576
5, 88844, Pitch_bend_c, 5, 8320
5, 88845, Pitch_bend_c, 5, 8448
5, 88848, Pitch_bend_c, 5, 8320
5, 88848, Pitch_bend_c, 5, 8192
5, 88850, Pitch_bend_c, 5, 8320
5, 88853, Pitch_bend_c, 5, 8192
5, 88853, Pitch_bend_c, 5, 8192
5, 88855, Pitch_bend_c, 5, 8064
5, 88857, Pitch_bend_c, 5, 8064
5, 88857, Pitch_bend_c, 5, 8192
5, 88860, Pitch_bend_c, 5, 7936
5, 88861, Pitch_bend_c, 5, 8064
5, 88862, Pitch_bend_c, 5, 7808
5, 88864, Pitch_bend_c, 5, 7808
5, 88865, Pitch_bend_c, 5, 8064
5, 88867, Pitch_bend_c, 5, 7680
5, 88869, Pitch_bend_c, 5, 7680
5, 88869, Pitch_bend_c, 5, 8064
5, 88871, Pitch_bend_c, 5, 7680
5, 88874, Pitch_bend_c, 5, 7680
5, 88874, Pitch_bend_c, 5, 7936
5, 88876, Pitch_bend_c, 5, 7680
5, 88878, Pitch_bend_c, 5, 7808
5, 88878, Pitch_bend_c, 5, 7936
5, 88881, Pitch_bend_c, 5, 7808
5, 88882, Pitch_bend_c, 5, 7936
5, 88883, Pitch_bend_c, 5, 7936
5, 88885, Pitch_bend_c, 5, 7936
5, 88886, Pitch_bend_c, 5, 7936
5, 88888, Pitch_bend_c, 5, 8064
5, 88890, Pitch_bend_c, 5, 8192
5, 88890, Pitch_bend_c, 5, 7936
5, 88892, Pitch_bend_c, 5, 8320
5, 88895, Pitch_bend_c, 5, 8448
5, 88895, Pitch_bend_c, 5, 7936
5, 88897, Pitch_bend_c, 5, 8448
5, 88899, Pitch_bend_c, 5, 8576
5, 88899, Pitch_bend_c, 5, 7936
5, 88902, Pitch_bend_c, 5, 8576
5, 88903, Pitch_bend_c, 5, 8064
5, 88904, Pitch_bend_c, 5, 8704
5, 88906, Pitch_bend_c, 5, 8704
5, 88907, Pitch_bend_c, 5, 8064
5, 88909, Pitch_bend_c, 5, 8704
5, 88911, Pitch_bend_c, 5, 8704
5, 88912, Pitch_bend_c, 5, 8064
5, 88913, Pitch_bend_c, 5, 8704
5, 88916, Pitch_bend_c, 5, 8576
5, 88916, Pitch_bend_c, 5, 8192
5, 88918, Pitch_bend_c, 5, 8576
5, 88920, Control_c, 4, 7, 55
5, 88920, Control_c, 5, 7, 55
5, 88920, Pitch_bend_c, 5, 8448
5, 88920, Pitch_bend_c, 5, 8192
5, 88923, Pitch_bend_c, 5, 8320
5, 88924, Pitch_bend_c, 5, 8192
5, 88925, Pitch_bend_c, 5, 8320
5, 88928, Pitch_bend_c, 5, 8192
5, 88928, Pitch_bend_c, 5, 8320
5, 88930, Pitch_bend_c, 5, 8064
5, 88932, Pitch_bend_c, 5, 8064
5, 88933, Pitch_bend_c, 5, 8320
5, 88935, Pitch_bend_c, 5, 7936
5, 88937, Pitch_bend_c, 5, 7808
5, 88937, Pitch_bend_c, 5, 8448
5, 88939, Pitch_bend_c, 5, 7808
5, 88941, Pitch_bend_c, 5, 8448
5, 88942, Pitch_bend_c, 5, 7680
5, 88944, Pitch_bend_c, 5, 7680
5, 88945, Pitch_bend_c, 5, 8448
5, 88946, Pitch_bend_c, 5, 7680
5, 88949, Pitch_bend_c, 5, 7680
5, 88950, Pitch_bend_c, 5, 8448
5, 88951, Pitch_bend_c, 5, 7680
5, 88953, Pitch_bend_c, 5, 7808
5, 88954, Pitch_bend_c, 5, 8448
5, 88956, Pitch_bend_c, 5, 7808
5, 88958, Pitch_bend_c, 5, 7936
5, 88958, Pitch_bend_c, 5, 8448
5, 88960, Pitch_bend_c, 5, 7936
5, 88962, Pitch_bend_c, 5, 8448
5, 88963, Pitch_bend_c, 5, 8064
5, 88965, Pitch_bend_c, 5, 8192
5, 88966, Pitch_bend_c, 5, 8448
5, 88967, Pitch_bend_c, 5, 8320
5, 88970, Pitch_bend_c, 5, 8448
5, 88971, Pitch_bend_c, 5, 8448
5, 88972, Pitch_bend_c, 5, 8448
5, 88974, Pitch_bend_c, 5, 8576
5, 88975, Pitch_bend_c, 5, 8320
5, 88977, Pitch_bend_c, 5, 8576
5, 88979, Pitch_bend_c, 5, 8704
5, 88979, Pitch_bend_c, 5, 8320
5, 88981, Pitch_bend_c, 5, 8704
5, 88983, Pitch_bend_c, 5, 8320
5, 88984, Pitch_bend_c, 5, 8704
5, 88986, Pitch_bend_c, 5, 8704
5, 88988, Pitch_bend_c, 5, 8704
5, 88988, Pitch_bend_c, 5, 8192
5, 88991, Pitch_bend_c, 5, 8576
5, 88992, Pitch_bend_c, 5, 8064
5, 88993, Pitch_bend_c, 5, 8576
5, 88995, Pitch_bend_c, 5, 8448
5, 88996, Pitch_bend_c, 5, 8064
5, 88998, Pitch_bend_c, 5, 8320
5, 89000, Pitch_bend_c, 5, 8320
5, 89000, Pitch_bend_c, 5, 8064
5, 89003, Pitch_bend_c, 5, 8192
5, 89004, Pitch_bend_c, 5, 7936
5, 89005, Pitch_bend_c, 5, 8064
5, 89007, Pitch_bend_c, 5, 8064
5, 89009, Pitch_bend_c, 5, 7936
5, 89010, Pitch_bend_c, 5, 7936
5, 89012, Pitch_bend_c, 5, 7808
5, 89013, Pitch_bend_c, 5, 7936
5, 89014, Pitch_bend_c, 5, 7808
5, 89017, Pitch_bend_c, 5, 7680
5, 89017, Pitch_bend_c, 5, 7936
5, 89019, Pitch_bend_c, 5, 7680
5, 89021, Pitch_bend_c, 5, 7680
5, 89021, Pitch_bend_c, 5, 7936
5, 89024, Pitch_bend_c, 5, 7680
5, 89025, Pitch_bend_c, 5, 7936
5, 89026, Pitch_bend_c, 5, 7680
5, 89028, Pitch_bend_c, 5, 7808
5, 89030, Pitch_bend_c, 5, 7936
5, 89031, Pitch_bend_c, 5, 7808
5, 89033, Pitch_bend_c, 5, 7936
5, 89034, Pitch_bend_c, 5, 7936
5, 89035, Pitch_bend_c, 5, 7936
5, 89038, Pitch_bend_c, 5, 8064
5, 89038, Pitch_bend_c, 5, 7936
5, 89040, Control_c, 4, 7, 61
5, 89040, Control_c, 5, 7, 61
5, 89040, Pitch_bend_c, 5, 8192
5, 89042, Pitch_bend_c, 5, 8320
5, 89042, Pitch_bend_c, 5, 8064
5, 89045, Pitch_bend_c, 5, 8448
5, 89047, Pitch_bend_c, 5, 8448
5, 89047, Pitch_bend_c, 5, 8064
5, 89049, Pitch_bend_c, 5, 8576
5, 89051, Pitch_bend_c, 5, 8192
5, 89052, Pitch_bend_c, 5, 8576
5, 89054, Pitch_bend_c, 5, 8704
5, 89055, Pitch_bend_c, 5, 8192
5, 89056, Pitch_bend_c, 5, 8704
5, 89059, Pitch_bend_c, 5, 8704
5, 89059, Pitch_bend_c, 5, 8192
5, 89061, Pitch_bend_c, 5, 8704
5, 89063, Pitch_bend_c, 5, 8704
5, 89063, Pitch_bend_c, 5, 8320
5, 89066, Pitch_bend_c, 5, 8576
5, 89068, Pitch_bend_c, 5, 8576
5, 89068, Pitch_bend_c, 5, 8320
5, 89070, Pitch_bend_c, 5, 8448
5, 89072, Pitch_bend_c, 5, 8320
5, 89073, Pitch_bend_c, 5, 8320
5, 89075, Pitch_bend_c, 5, 8320
5, 89076, Pitch_bend_c, 5, 8320
5, 89078, Pitch_bend_c, 5, 8192
5, 89080, Pitch_bend_c, 5, 8064
5, 89080, Pitch_bend_c, 5, 8448
5, 89082, Pitch_bend_c, 5, 8064
5, 89085, Pitch_bend_c, 5, 7936
5, 89085, Pitch_bend_c, 5, 8448
5, 89087, Pitch_bend_c, 5, 7808
5, 89089, Pitch_bend_c, 5, 7808
5, 89089, Pitch_bend_c, 5, 8448
5, 89092, Pitch_bend_c, 5, 7680
5, 89093, Pitch_bend_c, 5, 8448
5, 89094, Pitch_bend_c, 5, 7680
5, 89096, Pitch_bend_c, 5, 7680
5, 89097, Pitch_bend_c, 5, 8448
5, 89099, Pitch_bend_c, 5, 7680
5, 89101, Pitch_bend_c, 5, 7680
5, 89101, Pitch_bend_c, 5, 8320
5, 89103, Pitch_bend_c, 5, 7808
5, 89106, Pitch_bend_c, 5, 7808
5, 89106, Pitch_bend_c, 5, 8320
5, 89108, Pitch_bend_c, 5, 7936
5, 89110, Pitch_bend_c, 5, 7936
5, 89110, Pitch_bend_c, 5, 8320
5, 89113, Pitch_bend_c, 5, 8064
5, 89114, Pitch_bend_c, 5, 8320
5, 89115, Pitch_bend_c, 5, 8192
5, 89117, Pitch_bend_c, 5, 8320
5, 89118, Pitch_bend_c, 5, 8192
5, 89120, Pitch_bend_c, 5, 8320
5, 89122, Pitch_bend_c, 5, 8448
5, 89123, Pitch_bend_c, 5, 8192
5, 89124, Pitch_bend_c, 5, 8448
5, 89127, Pitch_bend_c, 5, 8576
5, 89127, Pitch_bend_c, 5, 8192
5, 89129, Pitch_bend_c, 5, 8576
5, 89131, Pitch_bend_c, 5, 8576
5, 89131, Pitch_bend_c, 5, 8064
5, 89134, Pitch_bend_c, 5, 8576
5, 89135, Pitch_bend_c, 5, 8064
5, 89136, Pitch_bend_c, 5, 8576
5, 89138, Pitch_bend_c, 5, 8576
5, 89139, Pitch_bend_c, 5, 8064
5, 89141, Pitch_bend_c, 5, 8576
5, 89143, Pitch_bend_c, 5, 8448
5, 89144, Pitch_bend_c, 5, 8064
5, 89145, Pitch_bend_c, 5, 8448
5, 89148, Pitch_bend_c, 5, 8320
5, 89148, Pitch_bend_c, 5, 7936
5, 89150, Pitch_bend_c, 5, 8320
5, 89152, Pitch_bend_c, 5, 7936
5, 89153, Pitch_bend_c, 5, 8192
5, 89155, Pitch_bend_c, 5, 8064
5, 89156, Pitch_bend_c, 5, 7936
5, 89157, Pitch_bend_c, 5, 8064
5, 89160, Control_c, 4, 7, 66
5, 89160, Control_c, 5, 7, 66
5, 89160, Pitch_bend_c, 5, 7936
5, 89160, Pitch_bend_c, 5, 7936
5, 89162, Pitch_bend_c, 5, 7936
5, 89164, Pitch_bend_c, 5, 7808
5, 89165, Pitch_bend_c, 5, 7936
5, 89167, Pitch_bend_c, 5, 7808
5, 89169, Pitch_bend_c, 5, 7808
5, 89169, Pitch_bend_c, 5, 8064
5, 89171, Pitch_bend_c, 5, 7808
5, 89173, Pitch_bend_c, 5, 8064
5, 89174, Pitch_bend_c, 5, 7808
5, 89176, Pitch_bend_c, 5, 7808
5, 89177, Pitch_bend_c, 5, 8064
5, 89178, Pitch_bend_c, 5, 7808
5, 89181, Pitch_bend_c, 5, 7936
5, 89182, Pitch_bend_c, 5, 8064
5, 89183, Pitch_bend_c, 5, 7936
5, 89185, Pitch_bend_c, 5, 8064
5, 89186, Pitch_bend_c, 5, 8192
5, 89188, Pitch_bend_c, 5, 8064
5, 89190, Pitch_bend_c, 5, 8192
5, 89190, Pitch_bend_c, 5, 8192
5, 89192, Pitch_bend_c, 5, 8192
5, 89194, Pitch_bend_c, 5, 8192
5, 89195, Pitch_bend_c, 5, 8320
5, 89197, Pitch_bend_c, 5, 8320
5, 89198, Pitch_bend_c, 5, 8192
5, 89199, Pitch_bend_c, 5, 8320
5, 89202, Pitch_bend_c, 5, 8448
5, 89203, Pitch_bend_c, 5, 8320
5, 89204, Pitch_bend_c, 5, 8448
5, 89206, Pitch_bend_c, 5, 8448
5, 89207, Pitch_bend_c, 5, 8320
5, 89209, Pitch_bend_c, 5, 8448
5, 89211, Pitch_bend_c, 5, 8448
5, 89211, Pitch_bend_c, 5, 8320
5, 89213, Pitch_bend_c, 5, 8448
5, 89215, Pitch_bend_c, 5, 8320
5, 89216, Pitch_bend_c, 5, 8448
5, 89218, Pitch_bend_c, 5, 8448
5, 89220, Pitch_bend_c, 5, 8320
5, 89220, Pitch_bend_c, 5, 8320
5, 89223, Pitch_bend_c, 5, 8320
5, 89224, Pitch_bend_c, 5, 8320
5, 89225, Pitch_bend_c, 5, 8192
5, 89228, Pitch_bend_c, 5, 8192
5, 89228, Pitch_bend_c, 5, 8320
5, 89230, Pitch_bend_c, 5, 8192
5, 89232, Pitch_bend_c, 5, 8064
5, 89232, Pitch_bend_c, 5, 8320
5, 89235, Pitch_bend_c, 5, 8064
5, 89236, Pitch_bend_c, 5, 8320
5, 89237, Pitch_bend_c, 5, 7936
5, 89239, Pitch_bend_c, 5, 7936
5, 89241, Pitch_bend_c, 5, 8320
5, 89242, Pitch_bend_c, 5, 7936
5, 89244, Pitch_bend_c, 5, 7936
5, 89245, Pitch_bend_c, 5, 8320
5, 89246, Pitch_bend_c, 5, 7936
5, 89249, Pitch_bend_c, 5, 7936
5, 89249, Pitch_bend_c, 5, 8192
5, 89251, Pitch_bend_c, 5, 7936
5, 89253, Pitch_bend_c, 5, 7936
5, 89253, Pitch_bend_c, 5, 8192
5, 89256, Pitch_bend_c, 5, 8064
5, 89258, Pitch_bend_c, 5, 8064
5, 89258, Pitch_bend_c, 5, 8192
5, 89260, Pitch_bend_c, 5, 8064
5, 89262, Pitch_bend_c, 5, 8192
5, 89263, Pitch_bend_c, 5, 8192
5, 89265, Pitch_bend_c, 5, 8192
5, 89266, Pitch_bend_c, 5, 8192
5, 89267, Pitch_bend_c, 5, 8192
5, 89270, Pitch_bend_c, 5, 8192
5, 89270, Pitch_bend_c, 5, 8064
5, 89272, Pitch_bend_c, 5, 8192
5, 89274, Pitch_bend_c, 5, 8192
5, 89274, Pitch_bend_c, 5, 8064
5, 89277, Pitch_bend_c, 5, 8192
5, 89279, Pitch_bend_c, 5, 8192
5, 89279, Pitch_bend_c, 5, 8064
5, 89280, Control_c, 4, 7, 72
5, 89280, Control_c, 5, 7, 72
5, 89280, Pitch_bend_c, 5, 8192
5, 89280, Note_off_c, 5, 69, 80
5, 89280, Pitch_bend_c, 5, 8192
5, 90240, Program_c, 4, 122
5, 90240, Program_c, 5, 122
5, 90240, Control_c, 4, 7, 0
5, 90240, Control_c, 5, 7, 0
5, 91680, Control_c, 4, 7, 7
5, 91680, Control_c, 5, 7, 7
5, 91680, Control_c, 4, 10, 127
5, 91680, Control_c, 5, 10, 127
5, 91680, Pitch_bend_c, 5, 8192
5, 91680, Note_on_c, 5, 69, 95
5, 91680, Pitch_bend_c, 5, 8192
5, 91682, Pitch_bend_c, 5, 8192
5, 91684, Pitch_bend_c, 5, 8192
5, 91685, Pitch_bend_c, 5, 8192
5, 91687, Pitch_bend_c, 5, 8192
5, 91688, Pitch_bend_c, 5, 8192
5, 91689, Pitch_bend_c, 5, 8192
5, 91692, Pitch_bend_c, 5, 8192
5, 91693, Pitch_bend_c, 5, 8192
5, 91694, Pitch_bend_c, 5, 8192
5, 91696, Pitch_bend_c, 5, 8192
5, 91697, Pitch_bend_c, 5, 8192
5, 91699, Pitch_bend_c, 5, 8192
5, 91701, Pitch_bend_c, 5, 8192
5, 91701, Pitch_bend_c, 5, 8192
5, 91703, Pitch_bend_c, 5, 8192
5, 91705, Pitch_bend_c, 5, 8192
5, 91706, Pitch_bend_c, 5, 8192
5, 91708, Pitch_bend_c, 5, 8192
5, 91710, Pitch_bend_c, 5, 8192
5, 91710, Pitch_bend_c, 5, 8192
5, 91713, Pitch_bend_c, 5, 8192
5, 91714, Pitch_bend_c, 5, 8192
5, 91715, Pitch_bend_c, 5, 8192
5, 91718, Pitch_bend_c, 5, 8192
5, 91718, Pitch_bend_c, 5, 8192
5, 91720, Pitch_bend_c, 5, 8192
5, 91722, Pitch_bend_c, 5, 8192
5, 91722, Pitch_bend_c, 5, 8192
5, 91725, Pitch_bend_c, 5, 8192
5, 91726, Pitch_bend_c, 5, 8192
5, 91727, Pitch_bend_c, 5, 8192
5, 91729, Pitch_bend_c, 5, 8192
5, 91731, Pitch_bend_c, 5, 8192
5, 91732, Pitch_bend_c, 5, 8192
5, 91734, Pitch_bend_c, 5, 8192
5, 91735, Pitch_bend_c, 5, 8192
5, 91736, Pitch_bend_c, 5, 8192
5, 91739, Pitch_bend_c, 5, 8192
5, 91739, Pitch_bend_c, 5, 8192
5, 91741, Pitch_bend_c, 5, 8192
5, 91743, Pitch_bend_c, 5, 8192
5, 91743, Pitch_bend_c, 5, 8192
5, 91746, Pitch_bend_c, 5, 8192
5, 91748, Pitch_bend_c, 5, 8192
5, 91748, Pitch_bend_c, 5, 8192
5, 91750, Pitch_bend_c, 5, 8192
5, 91752, Pitch_bend_c, 5, 8192
5, 91753, Pitch_bend_c, 5, 8192
5, 91755, Pitch_bend_c, 5, 8192
5, 91756, Pitch_bend_c, 5, 8192
5, 91757, Pitch_bend_c, 5, 8192
5, 91760, Pitch_bend_c, 5, 8192
5, 91760, Pitch_bend_c, 5, 8192
5, 91762, Pitch_bend_c, 5, 8320
5, 91764, Pitch_bend_c, 5, 8320
5, 91764, Pitch_bend_c, 5, 8192
5, 91767, Pitch_bend_c, 5, 8320
5, 91769, Pitch_bend_c, 5, 8320
5, 91769, Pitch_bend_c, 5, 8192
5, 91771, Pitch_bend_c, 5, 8320
5, 91773, Pitch_bend_c, 5, 8192
5, 91774, Pitch_bend_c, 5, 8320
5, 91776, Pitch_bend_c, 5, 8320
5, 91777, Pitch_bend_c, 5, 8192
5, 91778, Pitch_bend_c, 5, 8320
5, 91781, Pitch_bend_c, 5, 8320
5, 91781, Pitch_bend_c, 5, 8192
5, 91783, Pitch_bend_c, 5, 8320
5, 91785, Pitch_bend_c, 5, 8320
5, 91785, Pitch_bend_c, 5, 8192
5, 91788, Pitch_bend_c, 5, 8192
5, 91790, Pitch_bend_c, 5, 8192
5, 91790, Pitch_bend_c, 5, 8192
5, 91793, Pitch_bend_c, 5, 8192
5, 91794, Pitch_bend_c, 5, 8192
5, 91795, Pitch_bend_c, 5, 8192
5, 91797, Pitch_bend_c, 5, 8192
5, 91798, Pitch_bend_c, 5, 8192
5, 91800, Control_c, 4, 7, 15
5, 91800, Control_c, 5, 7, 15
5, 91800, Pitch_bend_c, 5, 8064
5, 91802, Pitch_bend_c, 5, 8064
5, 91802, Pitch_bend_c, 5, 8192
5, 91804, Pitch_bend_c, 5, 8064
5, 91807, Pitch_bend_c, 5, 8064
5, 91807, Pitch_bend_c, 5, 8192
5, 91809, Pitch_bend_c, 5, 8064
5, 91811, Pitch_bend_c, 5, 8064
5, 91811, Pitch_bend_c, 5, 8192
5, 91814, Pitch_bend_c, 5, 8064
5, 91815, Pitch_bend_c, 5, 8192
5, 91816, Pitch_bend_c, 5, 8064
5, 91818, Pitch_bend_c, 5, 8064
5, 91819, Pitch_bend_c, 5, 8192
5, 91821, Pitch_bend_c, 5, 8064
5, 91823, Pitch_bend_c, 5, 8064
5, 91823, Pitch_bend_c, 5, 8320
5, 91825, Pitch_bend_c, 5, 8192
5, 91828, Pitch_bend_c, 5, 8192
5, 91828, Pitch_bend_c, 5, 8320
5, 91830, Pitch_bend_c, 5, 8192
5, 91832, Pitch_bend_c, 5, 8192
5, 91832, Pitch_bend_c, 5, 8320
5, 91835, Pitch_bend_c, 5, 8320
5, 91836, Pitch_bend_c, 5, 8320
5, 91837, Pitch_bend_c, 5, 8320
5, 91839, Pitch_bend_c, 5, 8448
5, 91840, Pitch_bend_c, 5, 8320
5, 91842, Pitch_bend_c, 5, 8448
5, 91844, Pitch_bend_c, 5, 8448
5, 91845, Pitch_bend_c, 5, 8320
5, 91846, Pitch_bend_c, 5, 8576
5, 91849, Pitch_bend_c, 5, 8576
5, 91849, Pitch_bend_c, 5, 8320
5, 91851, Pitch_bend_c, 5, 8576
5, 91853, Pitch_bend_c, 5, 8448
5, 91853, Pitch_bend_c, 5, 8320
5, 91856, Pitch_bend_c, 5, 8448
5, 91857, Pitch_bend_c, 5, 8320
5, 91858, Pitch_bend_c, 5, 8448
5, 91860, Pitch_bend_c, 5, 8448
5, 91861, Pitch_bend_c, 5, 8320
5, 91863, Pitch_bend_c, 5, 8320
5, 91865, Pitch_bend_c, 5, 8320
5, 91866, Pitch_bend_c, 5, 8320
5, 91868, Pitch_bend_c, 5, 8192
5, 91870, Pitch_bend_c, 5, 8064
5, 91870, Pitch_bend_c, 5, 8320
5, 91872, Pitch_bend_c, 5, 8064
5, 91874, Pitch_bend_c, 5, 8320
5, 91875, Pitch_bend_c, 5, 7936
5, 91877, Pitch_bend_c, 5, 7936
5, 91878, Pitch_bend_c, 5, 8192
5, 91879, Pitch_bend_c, 5, 7936
5, 91882, Pitch_bend_c, 5, 7936
5, 91883, Pitch_bend_c, 5, 8192
5, 91884, Pitch_bend_c, 5, 7808
5, 91886, Pitch_bend_c, 5, 7808
5, 91887, Pitch_bend_c, 5, 8192
5, 91889, Pitch_bend_c, 5, 7808
5, 91891, Pitch_bend_c, 5, 7936
5, 91891, Pitch_bend_c, 5, 8064
5, 91893, Pitch_bend_c, 5, 7936
5, 91895, Pitch_bend_c, 5, 8064
5, 91896, Pitch_bend_c, 5, 7936
5, 91898, Pitch_bend_c, 5, 8064
5, 91899, Pitch_bend_c, 5, 8064
5, 91900, Pitch_bend_c, 5, 8064
5, 91903, Pitch_bend_c, 5, 8192
5, 91904, Pitch_bend_c, 5, 8064
5, 91905, Pitch_bend_c, 5, 8192
5, 91907, Pitch_bend_c, 5, 8320
5, 91908, Pitch_bend_c, 5, 8064
5, 91910, Pitch_bend_c, 5, 8448
5, 91912, Pitch_bend_c, 5, 8448
5, 91912, Pitch_bend_c, 5, 8064
5, 91914, Pitch_bend_c, 5, 8576
5, 91916, Pitch_bend_c, 5, 8064
5, 91917, Pitch_bend_c, 5, 8704
5, 91919, Pitch_bend_c, 5, 8704
5, 91920, Control_c, 4, 7, 22
5, 91920, Control_c, 5, 7, 22
5, 91920, Pitch_bend_c, 5, 8064
5, 91921, Pitch_bend_c, 5, 8704
5, 91924, Pitch_bend_c, 5, 8704
5, 91925, Pitch_bend_c, 5, 8064
5, 91926, Pitch_bend_c, 5, 8704
5, 91928, Pitch_bend_c, 5, 8704
5, 91929, Pitch_bend_c, 5, 8064
5, 91931, Pitch_bend_c, 5, 8576
5, 91933, Pitch_bend_c, 5, 8576
5, 91933, Pitch_bend_c, 5, 8064
5, 91935, Pitch_bend_c, 5, 8448
5, 91937, Pitch_bend_c, 5, 8064
5, 91938, Pitch_bend_c, 5, 8320
5, 91940, Pitch_bend_c, 5, 8320
5, 91942, Pitch_bend_c, 5, 8064
5, 91943, Pitch_bend_c, 5, 8192
5, 91945, Pitch_bend_c, 5, 8064
5, 91946, Pitch_bend_c, 5, 8192
5, 91947, Pitch_bend_c, 5, 8064
5, 91950, Pitch_bend_c, 5, 7936
5, 91950, Pitch_bend_c, 5, 8192
5, 91952, Pitch_bend_c, 5, 7808
5, 91954, Pitch_bend_c, 5, 7808
5, 91954, Pitch_bend_c, 5, 8192
5, 91957, Pitch_bend_c, 5, 7680
5, 91958, Pitch_bend_c, 5, 8320
5, 91959, Pitch_bend_c, 5, 7680
5, 91961, Pitch_bend_c, 5, 7680
5, 91963, Pitch_bend_c, 5, 8320
5, 91964, Pitch_bend_c, 5, 7680
5, 91966, Pitch_bend_c, 5, 7680
5, 91967, Pitch_bend_c, 5, 8448
5, 91968, Pitch_bend_c, 5, 7680
5, 91971, Pitch_bend_c, 5, 7808
5, 91971, Pitch_bend_c, 5, 8448
5, 91973, Pitch_bend_c, 5, 7936
5, 91975, Pitch_bend_c, 5, 7936
5, 91975, Pitch_bend_c, 5, 8448
5, 91978, Pitch_bend_c, 5, 8064
5, 91980, Pitch_bend_c, 5, 8192
5, 91980, Pitch_bend_c, 5, 8448
5, 91982, Pitch_bend_c, 5, 8320
5, 91984, Pitch_bend_c, 5, 8448
5, 91985, Pitch_bend_c, 5, 8448
5, 91987, Pitch_bend_c, 5, 8448
5, 91988, Pitch_bend_c, 5, 8448
5, 91989, Pitch_bend_c, 5, 8576
5, 91992, Pitch_bend_c, 5, 8576
5, 91992, Pitch_bend_c, 5, 8448
5, 91994, Pitch_bend_c, 5, 8704
5, 91996, Pitch_bend_c, 5, 8704
5, 91996, Pitch_bend_c, 5, 8448
5, 91999, Pitch_bend_c, 5, 8704
5, 92001, Pitch_bend_c, 5, 8704
5, 92001, Pitch_bend_c, 5, 8448
5, 92003, Pitch_bend_c, 5, 8704
5, 92005, Pitch_bend_c, 5, 8320
5, 92006, Pitch_bend_c, 5, 8576
5, 92008, Pitch_bend_c, 5, 8576
5, 92009, Pitch_bend_c, 5, 8320
5, 92010, Pitch_bend_c, 5, 8448
5, 92013, Pitch_bend_c, 5, 8320
5, 92013, Pitch_bend_c, 5, 8320
5, 92015, Pitch_bend_c, 5, 8320
5, 92018, Pitch_bend_c, 5, 8192
5, 92018, Pitch_bend_c, 5, 8192
5, 92020, Pitch_bend_c, 5, 8064
5, 92022, Pitch_bend_c, 5, 8064
5, 92022, Pitch_bend_c, 5, 8064
5, 92025, Pitch_bend_c, 5, 7936
5, 92026, Pitch_bend_c, 5, 8064
5, 92027, Pitch_bend_c, 5, 7808
5, 92029, Pitch_bend_c, 5, 7808
5, 92030, Pitch_bend_c, 5, 8064
5, 92032, Pitch_bend_c, 5, 7680
5, 92034, Pitch_bend_c, 5, 7680
5, 92034, Pitch_bend_c, 5, 7936
5, 92036, Pitch_bend_c, 5, 7680
5, 92039, Pitch_bend_c, 5, 7680
5, 92039, Pitch_bend_c, 5, 7936
5, 92040, Control_c, 4, 7, 30
5, 92040, Control_c, 5, 7, 30
5, 92041, Pitch_bend_c, 5, 7680
5, 92043, Pitch_bend_c, 5, 7808
5, 92043, Pitch_bend_c, 5, 7936
5, 92046, Pitch_bend_c, 5, 7808
5, 92047, Pitch_bend_c, 5, 7936
5, 92048, Pitch_bend_c, 5, 7936
5, 92050, Pitch_bend_c, 5, 7936
5, 92051, Pitch_bend_c, 5, 7936
5, 92053, Pitch_bend_c, 5, 8064
5, 92055, Pitch_bend_c, 5, 8192
5, 92055, Pitch_bend_c, 5, 7936
5, 92057, Pitch_bend_c, 5, 8320
5, 92060, Pitch_bend_c, 5, 8448
5, 92060, Pitch_bend_c, 5, 7936
5, 92062, Pitch_bend_c, 5, 8448
5, 92064, Pitch_bend_c, 5, 8576
5, 92064, Pitch_bend_c, 5, 7936
5, 92067, Pitch_bend_c, 5, 8576
5, 92068, Pitch_bend_c, 5, 7936
5, 92069, Pitch_bend_c, 5, 8704
5, 92071, Pitch_bend_c, 5, 8704
5, 92072, Pitch_bend_c, 5, 8064
5, 92074, Pitch_bend_c, 5, 8704
5, 92076, Pitch_bend_c, 5, 8704
5, 92077, Pitch_bend_c, 5, 8064
5, 92078, Pitch_bend_c, 5, 8704
5, 92081, Pitch_bend_c, 5, 8576
5, 92081, Pitch_bend_c, 5, 8192
5, 92083, Pitch_bend_c, 5, 8576
5, 92085, Pitch_bend_c, 5, 8448
5, 92085, Pitch_bend_c, 5, 8192
5, 92088, Pitch_bend_c, 5, 8320
5, 92089, Pitch_bend_c, 5, 8192
5, 92090, Pitch_bend_c, 5, 8320
5, 92093, Pitch_bend_c, 5, 8192
5, 92093, Pitch_bend_c, 5, 8320
5, 92095, Pitch_bend_c, 5, 8064
5, 92097, Pitch_bend_c, 5, 8064
5, 92098, Pitch_bend_c, 5, 8320
5, 92100, Pitch_bend_c, 5, 7936
5, 92102, Pitch_bend_c, 5, 7808
5, 92102, Pitch_bend_c, 5, 8448
5, 92104, Pitch_bend_c, 5, 7808
5, 92106, Pitch_bend_c, 5, 8448
5, 92107, Pitch_bend_c, 5, 7680
5, 92109, Pitch_bend_c, 5, 7680
5, 92110, Pitch_bend_c, 5, 8448
5, 92111, Pitch_bend_c, 5, 7680
5, 92114, Pitch_bend_c, 5, 7680
5, 92115, Pitch_bend_c, 5, 8448
5, 92116, Pitch_bend_c, 5, 7680
5, 92118, Pitch_bend_c, 5, 7808
5, 92119, Pitch_bend_c, 5, 8448
5, 92121, Pitch_bend_c, 5, 7808
5, 92123, Pitch_bend_c, 5, 7936
5, 92123, Pitch_bend_c, 5, 8448
5, 92125, Pitch_bend_c, 5, 7936
5, 92127, Pitch_bend_c, 5, 8448
5, 92128, Pitch_bend_c, 5, 8064
5, 92130, Pitch_bend_c, 5, 8192
5, 92131, Pitch_bend_c, 5, 8448
5, 92132, Pitch_bend_c, 5, 8320
5, 92135, Pitch_bend_c, 5, 8448
5, 92136, Pitch_bend_c, 5, 8448
5, 92137, Pitch_bend_c, 5, 8576
5, 92139, Pitch_bend_c, 5, 8576
5, 92140, Pitch_bend_c, 5, 8320
5, 92142, Pitch_bend_c, 5, 8704
5, 92144, Pitch_bend_c, 5, 8704
5, 92144, Pitch_bend_c, 5, 8320
5, 92146, Pitch_bend_c, 5, 8832
5, 92148, Pitch_bend_c, 5, 8192
5, 92149, Pitch_bend_c, 5, 8832
5, 92151, Pitch_bend_c, 5, 8832
5, 92153, Pitch_bend_c, 5, 8704
5, 92153, Pitch_bend_c, 5, 8192
5, 92156, Pitch_bend_c, 5, 8704
5, 92157, Pitch_bend_c, 5, 8192
5, 92158, Pitch_bend_c, 5, 8576
5, 92160, Control_c, 4, 7, 37
5, 92160, Control_c, 5, 7, 37
5, 92160, Pitch_bend_c, 5, 8576
5, 92161, Pitch_bend_c, 5, 8064
5, 92163, Pitch_bend_c, 5, 8448
5, 92165, Pitch_bend_c, 5, 8320
5, 92165, Pitch_bend_c, 5, 8064
5, 92168, Pitch_bend_c, 5, 8192
5, 92169, Pitch_bend_c, 5, 7936
5, 92170, Pitch_bend_c, 5, 8064
5, 92172, Pitch_bend_c, 5, 7936
5, 92174, Pitch_bend_c, 5, 7936
5, 92175, Pitch_bend_c, 5, 7808
5, 92177, Pitch_bend_c, 5, 7808
5, 92178, Pitch_bend_c, 5, 7936
5, 92179, Pitch_bend_c, 5, 7680
5, 92182, Pitch_bend_c, 5, 7680
5, 92182, Pitch_bend_c, 5, 7936
5, 92184, Pitch_bend_c, 5, 7552
5, 92186, Pitch_bend_c, 5, 7552
5, 92186, Pitch_bend_c, 5, 7936
5, 92189, Pitch_bend_c, 5, 7552
5, 92190, Pitch_bend_c, 5, 7936
5, 92191, Pitch_bend_c, 5, 7680
5, 92193, Pitch_bend_c, 5, 7680
5, 92195, Pitch_bend_c, 5, 7936
5, 92196, Pitch_bend_c, 5, 7808
5, 92198, Pitch_bend_c, 5, 7808
5, 92199, Pitch_bend_c, 5, 7936
5, 92200, Pitch_bend_c, 5, 7936
5, 92203, Pitch_bend_c, 5, 8064
5, 92203, Pitch_bend_c, 5, 7936
5, 92205, Pitch_bend_c, 5, 8192
5, 92207, Pitch_bend_c, 5, 8320
5, 92207, Pitch_bend_c, 5, 8064
5, 92210, Pitch_bend_c, 5, 8448
5, 92212, Pitch_bend_c, 5, 8448
5, 92212, Pitch_bend_c, 5, 8064
5, 92214, Pitch_bend_c, 5, 8576
5, 92216, Pitch_bend_c, 5, 8192
5, 92217, Pitch_bend_c, 5, 8704
5, 92219, Pitch_bend_c, 5, 8704
5, 92220, Pitch_bend_c, 5, 8192
5, 92221, Pitch_bend_c, 5, 8704
5, 92224, Pitch_bend_c, 5, 8704
5, 92224, Pitch_bend_c, 5, 8192
5, 92226, Pitch_bend_c, 5, 8704
5, 92228, Pitch_bend_c, 5, 8704
5, 92228, Pitch_bend_c, 5, 8320
5, 92231, Pitch_bend_c, 5, 8704
5, 92233, Pitch_bend_c, 5, 8576
5, 92233, Pitch_bend_c, 5, 8320
5, 92235, Pitch_bend_c, 5, 8576
5, 92237, Pitch_bend_c, 5, 8448
5, 92238, Pitch_bend_c, 5, 8448
5, 92240, Pitch_bend_c, 5, 8320
5, 92241, Pitch_bend_c, 5, 8448
5, 92243, Pitch_bend_c, 5, 8192
5, 92245, Pitch_bend_c, 5, 8064
5, 92245, Pitch_bend_c, 5, 8448
5, 92247, Pitch_bend_c, 5, 7936
5, 92250, Pitch_bend_c, 5, 7808
5, 92250, Pitch_bend_c, 5, 8448
5, 92252, Pitch_bend_c, 5, 7808
5, 92254, Pitch_bend_c, 5, 7680
5, 92254, Pitch_bend_c, 5, 8448
5, 92257, Pitch_bend_c, 5, 7680
5, 92258, Pitch_bend_c, 5, 8448
5, 92259, Pitch_bend_c, 5, 7680
5, 92261, Pitch_bend_c, 5, 7680
5, 92262, Pitch_bend_c, 5, 8448
5, 92264, Pitch_bend_c, 5, 7680
5, 92266, Pitch_bend_c, 5, 7680
5, 92266, Pitch_bend_c, 5, 8448
5, 92268, Pitch_bend_c, 5, 7680
5, 92271, Pitch_bend_c, 5, 7808
5, 92271, Pitch_bend_c, 5, 8448
5, 92273, Pitch_bend_c, 5, 7936
5, 92275, Pitch_bend_c, 5, 7936
5, 92275, Pitch_bend_c, 5, 8320
5, 92278, Pitch_bend_c, 5, 8064
5, 92279, Pitch_bend_c, 5, 8320
5, 92280, Control_c, 4, 7, 44
5, 92280, Control_c, 5, 7, 44
5, 92280, Pitch_bend_c, 5, 8192
5, 92282, Pitch_bend_c, 5, 8320
5, 92283, Pitch_bend_c, 5, 8320
5, 92285, Pitch_bend_c, 5, 8448
5, 92287, Pitch_bend_c, 5, 8448
5, 92288, Pitch_bend_c, 5, 8192
5, 92289, Pitch_bend_c, 5, 8576
5, 92292, Pitch_bend_c, 5, 8576
5, 92292, Pitch_bend_c, 5, 8064
5, 92294, Pitch_bend_c, 5, 8704
5, 92296, Pitch_bend_c, 5, 8704
5, 92296, Pitch_bend_c, 5, 8064
5, 92299, Pitch_bend_c, 5, 8704
5, 92300, Pitch_bend_c, 5, 8064
5, 92301, Pitch_bend_c, 5, 8704
5, 92303, Pitch_bend_c, 5, 8704
5, 92304, Pitch_bend_c, 5, 7936
5, 92306, Pitch_bend_c, 5, 8576
5, 92308, Pitch_bend_c, 5, 8576
5, 92309, Pitch_bend_c, 5, 7936
5, 92310, Pitch_bend_c, 5, 8448
5, 92313, Pitch_bend_c, 5, 8320
5, 92313, Pitch_bend_c, 5, 7936
5, 92315, Pitch_bend_c, 5, 8320
5, 92317, Pitch_bend_c, 5, 7936
5, 92318, Pitch_bend_c, 5, 8192
5, 92320, Pitch_bend_c, 5, 8064
5, 92321, Pitch_bend_c, 5, 7936
5, 92322, Pitch_bend_c, 5, 8064
5, 92325, Pitch_bend_c, 5, 7936
5, 92325, Pitch_bend_c, 5, 7936
5, 92327, Pitch_bend_c, 5, 7808
5, 92329, Pitch_bend_c, 5, 7808
5, 92330, Pitch_bend_c, 5, 7936
5, 92332, Pitch_bend_c, 5, 7680
5, 92334, Pitch_bend_c, 5, 7680
5, 92334, Pitch_bend_c, 5, 7936
5, 92336, Pitch_bend_c, 5, 7680
5, 92338, Pitch_bend_c, 5, 7936
5, 92339, Pitch_bend_c, 5, 7680
5, 92341, Pitch_bend_c, 5, 7680
5, 92342, Pitch_bend_c, 5, 8064
5, 92343, Pitch_bend_c, 5, 7808
5, 92346, Pitch_bend_c, 5, 7808
5, 92347, Pitch_bend_c, 5, 8064
5, 92348, Pitch_bend_c, 5, 7936
5, 92350, Pitch_bend_c, 5, 7936
5, 92351, Pitch_bend_c, 5, 8192
5, 92353, Pitch_bend_c, 5, 8064
5, 92355, Pitch_bend_c, 5, 8192
5, 92355, Pitch_bend_c, 5, 8192
5, 92357, Pitch_bend_c, 5, 8320
5, 92359, Pitch_bend_c, 5, 8192
5, 92360, Pitch_bend_c, 5, 8448
5, 92362, Pitch_bend_c, 5, 8448
5, 92363, Pitch_bend_c, 5, 8320
5, 92364, Pitch_bend_c, 5, 8576
5, 92367, Pitch_bend_c, 5, 8704
5, 92368, Pitch_bend_c, 5, 8320
5, 92369, Pitch_bend_c, 5, 8704
5, 92371, Pitch_bend_c, 5, 8704
5, 92372, Pitch_bend_c, 5, 8448
5, 92374, Pitch_bend_c, 5, 8704
5, 92376, Pitch_bend_c, 5, 8704
5, 92376, Pitch_bend_c, 5, 8448
5, 92378, Pitch_bend_c, 5, 8704
5, 92380, Pitch_bend_c, 5, 8448
5, 92381, Pitch_bend_c, 5, 8704
5, 92383, Pitch_bend_c, 5, 8576
5, 92385, Pitch_bend_c, 5, 8576
5, 92385, Pitch_bend_c, 5, 8448
5, 92388, Pitch_bend_c, 5, 8448
5, 92389, Pitch_bend_c, 5, 8448
5, 92390, Pitch_bend_c, 5, 8320
5, 92393, Pitch_bend_c, 5, 8192
5, 92393, Pitch_bend_c, 5, 8448
5, 92395, Pitch_bend_c, 5, 8064
5, 92397, Pitch_bend_c, 5, 7936
5, 92397, Pitch_bend_c, 5, 8448
5, 92400, Control_c, 4, 7, 52
5, 92400, Control_c, 5, 7, 52
5, 92400, Pitch_bend_c, 5, 7808
5, 92401, Pitch_bend_c, 5, 8448
5, 92402, Pitch_bend_c, 5, 7808
5, 92404, Pitch_bend_c, 5, 7680
5, 92406, Pitch_bend_c, 5, 8448
5, 92407, Pitch_bend_c, 5, 7680
5, 92409, Pitch_bend_c, 5, 7680
5, 92410, Pitch_bend_c, 5, 8320
5, 92411, Pitch_bend_c, 5, 7680
5, 92414, Pitch_bend_c, 5, 7680
5, 92414, Pitch_bend_c, 5, 8320
5, 92416, Pitch_bend_c, 5, 7680
5, 92418, Pitch_bend_c, 5, 7680
5, 92418, Pitch_bend_c, 5, 8192
5, 92421, Pitch_bend_c, 5, 7808
5, 92423, Pitch_bend_c, 5, 7936
5, 92423, Pitch_bend_c, 5, 8192
5, 92425, Pitch_bend_c, 5, 7936
5, 92427, Pitch_bend_c, 5, 8192
5, 92428, Pitch_bend_c, 5, 8064
5, 92430, Pitch_bend_c, 5, 8192
5, 92431, Pitch_bend_c, 5, 8064
5, 92432, Pitch_bend_c, 5, 8320
5, 92435, Pitch_bend_c, 5, 8448
5, 92435, Pitch_bend_c, 5, 8064
5, 92437, Pitch_bend_c, 5, 8448
5, 92439, Pitch_bend_c, 5, 8576
5, 92439, Pitch_bend_c, 5, 7936
5, 92442, Pitch_bend_c, 5, 8704
5, 92444, Pitch_bend_c, 5, 8704
5, 92444, Pitch_bend_c, 5, 7936
5, 92446, Pitch_bend_c, 5, 8704
5, 92448, Pitch_bend_c, 5, 7936
5, 92449, Pitch_bend_c, 5, 8704
5, 92451, Pitch_bend_c, 5, 8704
5, 92452, Pitch_bend_c, 5, 7936
5, 92453, Pitch_bend_c, 5, 8704
5, 92456, Pitch_bend_c, 5, 8704
5, 92456, Pitch_bend_c, 5, 7936
5, 92458, Pitch_bend_c, 5, 8576
5, 92460, Pitch_bend_c, 5, 8576
5, 92460, Pitch_bend_c, 5, 7936
5, 92463, Pitch_bend_c, 5, 8448
5, 92465, Pitch_bend_c, 5, 8320
5, 92465, Pitch_bend_c, 5, 7936
5, 92468, Pitch_bend_c, 5, 8192
5, 92469, Pitch_bend_c, 5, 7936
5, 92470, Pitch_bend_c, 5, 8064
5, 92472, Pitch_bend_c, 5, 7936
5, 92473, Pitch_bend_c, 5, 7936
5, 92475, Pitch_bend_c, 5, 7808
5, 92477, Pitch_bend_c, 5, 7808
5, 92477, Pitch_bend_c, 5, 8064
5, 92479, Pitch_bend_c, 5, 7680
5, 92482, Pitch_bend_c, 5, 7680
5, 92482, Pitch_bend_c, 5, 8064
5, 92484, Pitch_bend_c, 5, 7680
5, 92486, Pitch_bend_c, 5, 7680
5, 92486, Pitch_bend_c, 5, 8192
5, 92489, Pitch_bend_c, 5, 7680
5, 92490, Pitch_bend_c, 5, 8192
5, 92491, Pitch_bend_c, 5, 7680
5, 92493, Pitch_bend_c, 5, 7680
5, 92494, Pitch_bend_c, 5, 8192
5, 92496, Pitch_bend_c, 5, 7808
5, 92498, Pitch_bend_c, 5, 7936
5, 92498, Pitch_bend_c, 5, 8320
5, 92500, Pitch_bend_c, 5, 7936
5, 92503, Pitch_bend_c, 5, 8064
5, 92503, Pitch_bend_c, 5, 8320
5, 92505, Pitch_bend_c, 5, 8192
5, 92507, Pitch_bend_c, 5, 8320
5, 92507, Pitch_bend_c, 5, 8320
5, 92510, Pitch_bend_c, 5, 8448
5, 92511, Pitch_bend_c, 5, 8448
5, 92512, Pitch_bend_c, 5, 8448
5, 92514, Pitch_bend_c, 5, 8576
5, 92515, Pitch_bend_c, 5, 8448
5, 92517, Pitch_bend_c, 5, 8576
5, 92519, Pitch_bend_c, 5, 8704
5, 92520, Control_c, 4, 7, 59
5, 92520, Control_c, 5, 7, 59
5, 92520, Pitch_bend_c, 5, 8448
5, 92521, Pitch_bend_c, 5, 8704
5, 92524, Pitch_bend_c, 5, 8704
5, 92524, Pitch_bend_c, 5, 8448
5, 92526, Pitch_bend_c, 5, 8704
5, 92528, Pitch_bend_c, 5, 8704
5, 92528, Pitch_bend_c, 5, 8448
5, 92531, Pitch_bend_c, 5, 8576
5, 92532, Pitch_bend_c, 5, 8448
5, 92533, Pitch_bend_c, 5, 8576
5, 92535, Pitch_bend_c, 5, 8448
5, 92536, Pitch_bend_c, 5, 8448
5, 92538, Pitch_bend_c, 5, 8320
5, 92540, Pitch_bend_c, 5, 8320
5, 92541, Pitch_bend_c, 5, 8320
5, 92543, Pitch_bend_c, 5, 8192
5, 92545, Pitch_bend_c, 5, 8064
5, 92545, Pitch_bend_c, 5, 8320
5, 92547, Pitch_bend_c, 5, 8064
5, 92549, Pitch_bend_c, 5, 8320
5, 92550, Pitch_bend_c, 5, 7936
5, 92552, Pitch_bend_c, 5, 7808
5, 92553, Pitch_bend_c, 5, 8192
5, 92554, Pitch_bend_c, 5, 7808
5, 92557, Pitch_bend_c, 5, 7680
5, 92558, Pitch_bend_c, 5, 8192
5, 92559, Pitch_bend_c, 5, 7680
5, 92561, Pitch_bend_c, 5, 7680
5, 92562, Pitch_bend_c, 5, 8192
5, 92564, Pitch_bend_c, 5, 7680
5, 92566, Pitch_bend_c, 5, 7680
5, 92566, Pitch_bend_c, 5, 8064
5, 92568, Pitch_bend_c, 5, 7808
5, 92570, Pitch_bend_c, 5, 8064
5, 92571, Pitch_bend_c, 5, 7808
5, 92573, Pitch_bend_c, 5, 7936
5, 92574, Pitch_bend_c, 5, 8064
5, 92575, Pitch_bend_c, 5, 7936
5, 92578, Pitch_bend_c, 5, 8064
5, 92579, Pitch_bend_c, 5, 7936
5, 92580, Pitch_bend_c, 5, 8192
5, 92582, Pitch_bend_c, 5, 8320
5, 92583, Pitch_bend_c, 5, 7936
5, 92585, Pitch_bend_c, 5, 8448
5, 92587, Pitch_bend_c, 5, 8448
5, 92587, Pitch_bend_c, 5, 7936
5, 92589, Pitch_bend_c, 5, 8576
5, 92591, Pitch_bend_c, 5, 7936
5, 92592, Pitch_bend_c, 5, 8576
5, 92594, Pitch_bend_c, 5, 8704
5, 92595, Pitch_bend_c, 5, 7936
5, 92596, Pitch_bend_c, 5, 8704
5, 92599, Pitch_bend_c, 5, 8704
5, 92600, Pitch_bend_c, 5, 7936
5, 92601, Pitch_bend_c, 5, 8704
5, 92603, Pitch_bend_c, 5, 8704
5, 92604, Pitch_bend_c, 5, 7936
5, 92606, Pitch_bend_c, 5, 8576
5, 92608, Pitch_bend_c, 5, 8576
5, 92608, Pitch_bend_c, 5, 8064
5, 92610, Pitch_bend_c, 5, 8448
5, 92612, Pitch_bend_c, 5, 8064
5, 92613, Pitch_bend_c, 5, 8320
5, 92615, Pitch_bend_c, 5, 8320
5, 92617, Pitch_bend_c, 5, 8064
5, 92618, Pitch_bend_c, 5, 8192
5, 92620, Pitch_bend_c, 5, 8064
5, 92621, Pitch_bend_c, 5, 8192
5, 92622, Pitch_bend_c, 5, 8064
5, 92625, Pitch_bend_c, 5, 7936
5, 92625, Pitch_bend_c, 5, 8192
5, 92627, Pitch_bend_c, 5, 7808
5, 92629, Pitch_bend_c, 5, 7808
5, 92629, Pitch_bend_c, 5, 8192
5, 92632, Pitch_bend_c, 5, 7680
5, 92633, Pitch_bend_c, 5, 8320
5, 92634, Pitch_bend_c, 5, 7680
5, 92636, Pitch_bend_c, 5, 7680
5, 92638, Pitch_bend_c, 5, 8320
5, 92639, Pitch_bend_c, 5, 7680
5, 92640, Control_c, 4, 7, 66
5, 92640, Control_c, 5, 7, 66
5, 92641, Pitch_bend_c, 5, 7680
5, 92642, Pitch_bend_c, 5, 8320
5, 92643, Pitch_bend_c, 5, 7808
5, 92646, Pitch_bend_c, 5, 7808
5, 92646, Pitch_bend_c, 5, 8320
5, 92648, Pitch_bend_c, 5, 7936
5, 92650, Pitch_bend_c, 5, 7936
5, 92650, Pitch_bend_c, 5, 8320
5, 92653, Pitch_bend_c, 5, 8064
5, 92655, Pitch_bend_c, 5, 8192
5, 92655, Pitch_bend_c, 5, 8448
5, 92657, Pitch_bend_c, 5, 8320
5, 92659, Pitch_bend_c, 5, 8448
5, 92660, Pitch_bend_c, 5, 8448
5, 92662, Pitch_bend_c, 5, 8448
5, 92663, Pitch_bend_c, 5, 8448
5, 92664, Pitch_bend_c, 5, 8576
5, 92667, Pitch_bend_c, 5, 8704
5, 92667, Pitch_bend_c, 5, 8320
5, 92669, Pitch_bend_c, 5, 8704
5, 92671, Pitch_bend_c, 5, 8704
5, 92671, Pitch_bend_c, 5, 8320
5, 92674, Pitch_bend_c, 5, 8704
5, 92676, Pitch_bend_c, 5, 8704
5, 92676, Pitch_bend_c, 5, 8320
5, 92678, Pitch_bend_c, 5, 8704
5, 92680, Pitch_bend_c, 5, 8320
5, 92681, Pitch_bend_c, 5, 8704
5, 92683, Pitch_bend_c, 5, 8576
5, 92684, Pitch_bend_c, 5, 8320
5, 92685, Pitch_bend_c, 5, 8576
5, 92688, Pitch_bend_c, 5, 8448
5, 92688, Pitch_bend_c, 5, 8192
5, 92690, Pitch_bend_c, 5, 8320
5, 92693, Pitch_bend_c, 5, 8192
5, 92693, Pitch_bend_c, 5, 8192
5, 92695, Pitch_bend_c, 5, 8064
5, 92697, Pitch_bend_c, 5, 7936
5, 92697, Pitch_bend_c, 5, 8192
5, 92700, Pitch_bend_c, 5, 7808
5, 92701, Pitch_bend_c, 5, 8064
5, 92702, Pitch_bend_c, 5, 7808
5, 92704, Pitch_bend_c, 5, 7680
5, 92705, Pitch_bend_c, 5, 8064
5, 92707, Pitch_bend_c, 5, 7680
5, 92709, Pitch_bend_c, 5, 7680
5, 92709, Pitch_bend_c, 5, 8064
5, 92711, Pitch_bend_c, 5, 7680
5, 92714, Pitch_bend_c, 5, 7680
5, 92714, Pitch_bend_c, 5, 8064
5, 92716, Pitch_bend_c, 5, 7680
5, 92718, Pitch_bend_c, 5, 7680
5, 92718, Pitch_bend_c, 5, 8064
5, 92721, Pitch_bend_c, 5, 7808
5, 92722, Pitch_bend_c, 5, 7936
5, 92723, Pitch_bend_c, 5, 7936
5, 92725, Pitch_bend_c, 5, 7936
5, 92726, Pitch_bend_c, 5, 7936
5, 92728, Pitch_bend_c, 5, 8064
5, 92730, Pitch_bend_c, 5, 8192
5, 92730, Pitch_bend_c, 5, 7936
5, 92732, Pitch_bend_c, 5, 8320
5, 92735, Pitch_bend_c, 5, 8320
5, 92735, Pitch_bend_c, 5, 8064
5, 92737, Pitch_bend_c, 5, 8448
5, 92739, Pitch_bend_c, 5, 8576
5, 92739, Pitch_bend_c, 5, 8064
5, 92742, Pitch_bend_c, 5, 8576
5, 92743, Pitch_bend_c, 5, 8064
5, 92744, Pitch_bend_c, 5, 8576
5, 92746, Pitch_bend_c, 5, 8704
5, 92747, Pitch_bend_c, 5, 8064
5, 92749, Pitch_bend_c, 5, 8704
5, 92751, Pitch_bend_c, 5, 8704
5, 92752, Pitch_bend_c, 5, 8064
5, 92753, Pitch_bend_c, 5, 8704
5, 92756, Pitch_bend_c, 5, 8576
5, 92756, Pitch_bend_c, 5, 8192
5, 92758, Pitch_bend_c, 5, 8576
5, 92760, Control_c, 4, 7, 74
5, 92760, Control_c, 5, 7, 74
5, 92760, Pitch_bend_c, 5, 8448
5, 92760, Pitch_bend_c, 5, 8192
5, 92763, Pitch_bend_c, 5, 8320
5, 92764, Pitch_bend_c, 5, 8192
5, 92765, Pitch_bend_c, 5, 8320
5, 92768, Pitch_bend_c, 5, 8192
5, 92768, Pitch_bend_c, 5, 8320
5, 92770, Pitch_bend_c, 5, 8064
5, 92772, Pitch_bend_c, 5, 8064
5, 92773, Pitch_bend_c, 5, 8320
5, 92775, Pitch_bend_c, 5, 7936
5, 92777, Pitch_bend_c, 5, 7808
5, 92777, Pitch_bend_c, 5, 8448
5, 92779, Pitch_bend_c, 5, 7808
5, 92781, Pitch_bend_c, 5, 8448
5, 92782, Pitch_bend_c, 5, 7680
5, 92784, Pitch_bend_c, 5, 7680
5, 92785, Pitch_bend_c, 5, 8448
5, 92786, Pitch_bend_c, 5, 7680
5, 92789, Pitch_bend_c, 5, 7680
5, 92790, Pitch_bend_c, 5, 8448
5, 92791, Pitch_bend_c, 5, 7808
5, 92793, Pitch_bend_c, 5, 7808
5, 92794, Pitch_bend_c, 5, 8448
5, 92796, Pitch_bend_c, 5, 7808
5, 92798, Pitch_bend_c, 5, 7936
5, 92798, Pitch_bend_c, 5, 8448
5, 92800, Pitch_bend_c, 5, 8064
5, 92802, Pitch_bend_c, 5, 8448
5, 92803, Pitch_bend_c, 5, 8064
5, 92805, Pitch_bend_c, 5, 8192
5, 92806, Pitch_bend_c, 5, 8448
5, 92807, Pitch_bend_c, 5, 8320
5, 92810, Pitch_bend_c, 5, 8320
5, 92811, Pitch_bend_c, 5, 8448
5, 92812, Pitch_bend_c, 5, 8448
5, 92814, Pitch_bend_c, 5, 8576
5, 92815, Pitch_bend_c, 5, 8320
5, 92817, Pitch_bend_c, 5, 8576
5, 92819, Pitch_bend_c, 5, 8576
5, 92819, Pitch_bend_c, 5, 8320
5, 92821, Pitch_bend_c, 5, 8704
5, 92823, Pitch_bend_c, 5, 8192
5, 92824, Pitch_bend_c, 5, 8704
5, 92826, Pitch_bend_c, 5, 8704
5, 92828, Pitch_bend_c, 5, 8704
5, 92828, Pitch_bend_c, 5, 8192
5, 92831, Pitch_bend_c, 5, 8576
5, 92832, Pitch_bend_c, 5, 8192
5, 92833, Pitch_bend_c, 5, 8576
5, 92835, Pitch_bend_c, 5, 8448
5, 92836, Pitch_bend_c, 5, 8064
5, 92838, Pitch_bend_c, 5, 8320
5, 92840, Pitch_bend_c, 5, 8320
5, 92840, Pitch_bend_c, 5, 8064
5, 92843, Pitch_bend_c, 5, 8192
5, 92844, Pitch_bend_c, 5, 7936
5, 92845, Pitch_bend_c, 5, 8064
5, 92847, Pitch_bend_c, 5, 8064
5, 92849, Pitch_bend_c, 5, 7936
5, 92850, Pitch_bend_c, 5, 7936
5, 92852, Pitch_bend_c, 5, 7808
5, 92853, Pitch_bend_c, 5, 7936
5, 92854, Pitch_bend_c, 5, 7808
5, 92857, Pitch_bend_c, 5, 7680
5, 92857, Pitch_bend_c, 5, 7936
5, 92859, Pitch_bend_c, 5, 7680
5, 92861, Pitch_bend_c, 5, 7680
5, 92861, Pitch_bend_c, 5, 7936
5, 92864, Pitch_bend_c, 5, 7680
5, 92865, Pitch_bend_c, 5, 7936
5, 92866, Pitch_bend_c, 5, 7808
5, 92868, Pitch_bend_c, 5, 7808
5, 92870, Pitch_bend_c, 5, 7936
5, 92871, Pitch_bend_c, 5, 7808
5, 92873, Pitch_bend_c, 5, 7936
5, 92874, Pitch_bend_c, 5, 7936
5, 92875, Pitch_bend_c, 5, 8064
5, 92878, Pitch_bend_c, 5, 8064
5, 92878, Pitch_bend_c, 5, 7936
5, 92880, Control_c, 4, 7, 81
5, 92880, Control_c, 5, 7, 81
5, 92880, Pitch_bend_c, 5, 8192
5, 92882, Pitch_bend_c, 5, 8320
5, 92882, Pitch_bend_c, 5, 8064
5, 92885, Pitch_bend_c, 5, 8448
5, 92887, Pitch_bend_c, 5, 8448
5, 92887, Pitch_bend_c, 5, 8064
5, 92889, Pitch_bend_c, 5, 8576
5, 92891, Pitch_bend_c, 5, 8192
5, 92892, Pitch_bend_c, 5, 8576
5, 92894, Pitch_bend_c, 5, 8704
5, 92895, Pitch_bend_c, 5, 8192
5, 92896, Pitch_bend_c, 5, 8704
5, 92899, Pitch_bend_c, 5, 8704
5, 92899, Pitch_bend_c, 5, 8192
5, 92901, Pitch_bend_c, 5, 8704
5, 92903, Pitch_bend_c, 5, 8704
5, 92903, Pitch_bend_c, 5, 8320
5, 92906, Pitch_bend_c, 5, 8576
5, 92908, Pitch_bend_c, 5, 8576
5, 92908, Pitch_bend_c, 5, 8320
5, 92910, Pitch_bend_c, 5, 8448
5, 92912, Pitch_bend_c, 5, 8320
5, 92913, Pitch_bend_c, 5, 8320
5, 92915, Pitch_bend_c, 5, 8320
5, 92916, Pitch_bend_c, 5, 8320
5, 92918, Pitch_bend_c, 5, 8192
5, 92920, Pitch_bend_c, 5, 8064
5, 92920, Pitch_bend_c, 5, 8320
5, 92922, Pitch_bend_c, 5, 8064
5, 92925, Pitch_bend_c, 5, 7936
5, 92925, Pitch_bend_c, 5, 8320
5, 92927, Pitch_bend_c, 5, 7808
5, 92929, Pitch_bend_c, 5, 7808
5, 92929, Pitch_bend_c, 5, 8320
5, 92932, Pitch_bend_c, 5, 7680
5, 92933, Pitch_bend_c, 5, 8320
5, 92934, Pitch_bend_c, 5, 7680
5, 92936, Pitch_bend_c, 5, 7680
5, 92937, Pitch_bend_c, 5, 8320
5, 92939, Pitch_bend_c, 5, 7680
5, 92941, Pitch_bend_c, 5, 7680
5, 92941, Pitch_bend_c, 5, 8320
5, 92943, Pitch_bend_c, 5, 7808
5, 92946, Pitch_bend_c, 5, 7808
5, 92946, Pitch_bend_c, 5, 8320
5, 92948, Pitch_bend_c, 5, 7936
5, 92950, Pitch_bend_c, 5, 7936
5, 92950, Pitch_bend_c, 5, 8320
5, 92953, Pitch_bend_c, 5, 8064
5, 92954, Pitch_bend_c, 5, 8320
5, 92955, Pitch_bend_c, 5, 8192
5, 92957, Pitch_bend_c, 5, 8192
5, 92958, Pitch_bend_c, 5, 8192
5, 92960, Pitch_bend_c, 5, 8320
5, 92962, Pitch_bend_c, 5, 8320
5, 92963, Pitch_bend_c, 5, 8192
5, 92964, Pitch_bend_c, 5, 8448
5, 92967, Pitch_bend_c, 5, 8448
5, 92967, Pitch_bend_c, 5, 8192
5, 92969, Pitch_bend_c, 5, 8576
5, 92971, Pitch_bend_c, 5, 8576
5, 92971, Pitch_bend_c, 5, 8064
5, 92974, Pitch_bend_c, 5, 8576
5, 92975, Pitch_bend_c, 5, 8064
5, 92976, Pitch_bend_c, 5, 8576
5, 92978, Pitch_bend_c, 5, 8576
5, 92979, Pitch_bend_c, 5, 8064
5, 92981, Pitch_bend_c, 5, 8448
5, 92983, Pitch_bend_c, 5, 8448
5, 92984, Pitch_bend_c, 5, 8064
5, 92985, Pitch_bend_c, 5, 8448
5, 92988, Pitch_bend_c, 5, 8320
5, 92988, Pitch_bend_c, 5, 8064
5, 92990, Pitch_bend_c, 5, 8320
5, 92992, Pitch_bend_c, 5, 8064
5, 92993, Pitch_bend_c, 5, 8192
5, 92995, Pitch_bend_c, 5, 8064
5, 92996, Pitch_bend_c, 5, 8064
5, 92997, Pitch_bend_c, 5, 8064
5, 93000, Control_c, 4, 7, 89
5, 93000, Control_c, 5, 7, 89
5, 93000, Pitch_bend_c, 5, 7936
5, 93000, Pitch_bend_c, 5, 8064
5, 93002, Pitch_bend_c, 5, 7936
5, 93004, Pitch_bend_c, 5, 7936
5, 93005, Pitch_bend_c, 5, 8064
5, 93007, Pitch_bend_c, 5, 7808
5, 93009, Pitch_bend_c, 5, 7808
5, 93009, Pitch_bend_c, 5, 8064
5, 93011, Pitch_bend_c, 5, 7808
5, 93013, Pitch_bend_c, 5, 8064
5, 93014, Pitch_bend_c, 5, 7808
5, 93016, Pitch_bend_c, 5, 7808
5, 93017, Pitch_bend_c, 5, 8064
5, 93018, Pitch_bend_c, 5, 7936
5, 93021, Pitch_bend_c, 5, 7936
5, 93022, Pitch_bend_c, 5, 8064
5, 93023, Pitch_bend_c, 5, 8064
5, 93025, Pitch_bend_c, 5, 8064
5, 93026, Pitch_bend_c, 5, 8192
5, 93028, Pitch_bend_c, 5, 8192
5, 93030, Pitch_bend_c, 5, 8192
5, 93030, Pitch_bend_c, 5, 8192
5, 93032, Pitch_bend_c, 5, 8192
5, 93034, Pitch_bend_c, 5, 8192
5, 93035, Pitch_bend_c, 5, 8320
5, 93037, Pitch_bend_c, 5, 8320
5, 93038, Pitch_bend_c, 5, 8192
5, 93039, Pitch_bend_c, 5, 8320
5, 93042, Pitch_bend_c, 5, 8320
5, 93043, Pitch_bend_c, 5, 8192
5, 93044, Pitch_bend_c, 5, 8320
5, 93046, Pitch_bend_c, 5, 8320
5, 93047, Pitch_bend_c, 5, 8320
5, 93049, Pitch_bend_c, 5, 8320
5, 93051, Pitch_bend_c, 5, 8320
5, 93051, Pitch_bend_c, 5, 8320
5, 93053, Pitch_bend_c, 5, 8320
5, 93055, Pitch_bend_c, 5, 8320
5, 93056, Pitch_bend_c, 5, 8320
5, 93058, Pitch_bend_c, 5, 8320
5, 93060, Pitch_bend_c, 5, 8320
5, 93060, Pitch_bend_c, 5, 8320
5, 93063, Pitch_bend_c, 5, 8320
5, 93064, Pitch_bend_c, 5, 8320
5, 93065, Pitch_bend_c, 5, 8192
5, 93068, Pitch_bend_c, 5, 8192
5, 93068, Pitch_bend_c, 5, 8320
5, 93070, Pitch_bend_c, 5, 8192
5, 93072, Pitch_bend_c, 5, 8064
5, 93072, Pitch_bend_c, 5, 8320
5, 93075, Pitch_bend_c, 5, 8064
5, 93076, Pitch_bend_c, 5, 8320
5, 93077, Pitch_bend_c, 5, 8064
5, 93079, Pitch_bend_c, 5, 8064
5, 93081, Pitch_bend_c, 5, 8320
5, 93082, Pitch_bend_c, 5, 8064
5, 93084, Pitch_bend_c, 5, 8064
5, 93085, Pitch_bend_c, 5, 8192
5, 93086, Pitch_bend_c, 5, 8064
5, 93089, Pitch_bend_c, 5, 8064
5, 93089, Pitch_bend_c, 5, 8192
5, 93091, Pitch_bend_c, 5, 8064
5, 93093, Pitch_bend_c, 5, 8064
5, 93093, Pitch_bend_c, 5, 8192
5, 93096, Pitch_bend_c, 5, 8064
5, 93098, Pitch_bend_c, 5, 8064
5, 93098, Pitch_bend_c, 5, 8192
5, 93100, Pitch_bend_c, 5, 8064
5, 93102, Pitch_bend_c, 5, 8192
5, 93103, Pitch_bend_c, 5, 8192
5, 93105, Pitch_bend_c, 5, 8192
5, 93106, Pitch_bend_c, 5, 8192
5, 93107, Pitch_bend_c, 5, 8192
5, 93110, Pitch_bend_c, 5, 8192
5, 93110, Pitch_bend_c, 5, 8192
5, 93112, Pitch_bend_c, 5, 8192
5, 93114, Pitch_bend_c, 5, 8192
5, 93114, Pitch_bend_c, 5, 8064
5, 93117, Pitch_bend_c, 5, 8192
5, 93119, Pitch_bend_c, 5, 8192
5, 93119, Pitch_bend_c, 5, 8064
5, 93120, Control_c, 4, 7, 96
5, 93120, Control_c, 5, 7, 96
5, 93120, Pitch_bend_c, 5, 8192
5, 93120, Note_off_c, 5, 69, 80
5, 93120, Pitch_bend_c, 5, 8192
5, 94080, Program_c, 4, 122
5, 94080, Program_c, 5, 122
5, 94080, Control_c, 4, 7, 0
5, 94080, Control_c, 5, 7, 0
5, 95520, Control_c, 4, 7, 7
5, 95520, Control_c, 5, 7, 7
5, 95520, Control_c, 4, 10, 127
5, 95520, Control_c, 5, 10, 127
5, 95520, Pitch_bend_c, 5, 8192
5, 95520, Note_on_c, 5, 69, 95
5, 95520, Pitch_bend_c, 5, 8192
5, 95522, Pitch_bend_c, 5, 8192
5, 95524, Pitch_bend_c, 5, 8192
5, 95525, Pitch_bend_c, 5, 8192
5, 95527, Pitch_bend_c, 5, 8192
5, 95528, Pitch_bend_c, 5, 8192
5, 95529, Pitch_bend_c, 5, 8192
5, 95532, Pitch_bend_c, 5, 8192
5, 95533, Pitch_bend_c, 5, 8192
5, 95534, Pitch_bend_c, 5, 8192
5, 95536, Pitch_bend_c, 5, 8192
5, 95537, Pitch_bend_c, 5, 8192
5, 95539, Pitch_bend_c, 5, 8192
5, 95541, Pitch_bend_c, 5, 8192
5, 95541, Pitch_bend_c, 5, 8192
5, 95543, Pitch_bend_c, 5, 8192
5, 95545, Pitch_bend_c, 5, 8064
5, 95546, Pitch_bend_c, 5, 8192
5, 95548, Pitch_bend_c, 5, 8192
5, 95550, Pitch_bend_c, 5, 8192
5, 95550, Pitch_bend_c, 5, 8064
5, 95553, Pitch_bend_c, 5, 8192
5, 95554, Pitch_bend_c, 5, 8064
5, 95555, Pitch_bend_c, 5, 8192
5, 95558, Pitch_bend_c, 5, 8192
5, 95558, Pitch_bend_c, 5, 8064
5, 95560, Pitch_bend_c, 5, 8192
5, 95562, Pitch_bend_c, 5, 8192
5, 95562, Pitch_bend_c, 5, 8064
5, 95565, Pitch_bend_c, 5, 8192
5, 95566, Pitch_bend_c, 5, 8192
5, 95567, Pitch_bend_c, 5, 8192
5, 95569, Pitch_bend_c, 5, 8192
5, 95571, Pitch_bend_c, 5, 8192
5, 95572, Pitch_bend_c, 5, 8192
5, 95574, Pitch_bend_c, 5, 8192
5, 95575, Pitch_bend_c, 5, 8192
5, 95576, Pitch_bend_c, 5, 8192
5, 95579, Pitch_bend_c, 5, 8192
5, 95579, Pitch_bend_c, 5, 8192
5, 95581, Pitch_bend_c, 5, 8192
5, 95583, Pitch_bend_c, 5, 8192
5, 95583, Pitch_bend_c, 5, 8192
5, 95586, Pitch_bend_c, 5, 8192
5, 95588, Pitch_bend_c, 5, 8192
5, 95588, Pitch_bend_c, 5, 8192
5, 95590, Pitch_bend_c, 5, 8192
5, 95592, Pitch_bend_c, 5, 8192
5, 95593, Pitch_bend_c, 5, 8192
5, 95595, Pitch_bend_c, 5, 8192
5, 95596, Pitch_bend_c, 5, 8192
5, 95597, Pitch_bend_c, 5, 8192
5, 95600, Pitch_bend_c, 5, 8192
5, 95600, Pitch_bend_c, 5, 8192
5, 95602, Pitch_bend_c, 5, 8320
5, 95604, Pitch_bend_c, 5, 8320
5, 95604, Pitch_bend_c, 5, 8192
5, 95607, Pitch_bend_c, 5, 8320
5, 95609, Pitch_bend_c, 5, 8320
5, 95609, Pitch_bend_c, 5, 8192
5, 95611, Pitch_bend_c, 5, 8320
5, 95613, Pitch_bend_c, 5, 8320
5, 95614, Pitch_bend_c, 5, 8320
5, 95616, Pitch_bend_c, 5, 8320
5, 95617, Pitch_bend_c, 5, 8320
5, 95618, Pitch_bend_c, 5, 8320
5, 95621, Pitch_bend_c, 5, 8320
5, 95621, Pitch_bend_c, 5, 8320
5, 95623, Pitch_bend_c, 5, 8320
5, 95625, Pitch_bend_c, 5, 8320
5, 95625, Pitch_bend_c, 5, 8320
5, 95628, Pitch_bend_c, 5, 8192
5, 95630, Pitch_bend_c, 5, 8192
5, 95630, Pitch_bend_c, 5, 8320
5, 95633, Pitch_bend_c, 5, 8192
5, 95634, Pitch_bend_c, 5, 8192
5, 95635, Pitch_bend_c, 5, 8192
5, 95637, Pitch_bend_c, 5, 8192
5, 95638, Pitch_bend_c, 5, 8192
5, 95640, Control_c, 4, 7, 15
5, 95640, Control_c, 5, 7, 15
5, 95640, Pitch_bend_c, 5, 8064
5, 95642, Pitch_bend_c, 5, 8064
5, 95642, Pitch_bend_c, 5, 8192
5, 95644, Pitch_bend_c, 5, 8064
5, 95647, Pitch_bend_c, 5, 8064
5, 95647, Pitch_bend_c, 5, 8192
5, 95649, Pitch_bend_c, 5, 8064
5, 95651, Pitch_bend_c, 5, 8064
5, 95651, Pitch_bend_c, 5, 8192
5, 95654, Pitch_bend_c, 5, 8064
5, 95655, Pitch_bend_c, 5, 8192
5, 95656, Pitch_bend_c, 5, 8064
5, 95658, Pitch_bend_c, 5, 8064
5, 95659, Pitch_bend_c, 5, 8192
5, 95661, Pitch_bend_c, 5, 8064
5, 95663, Pitch_bend_c, 5, 8064
5, 95663, Pitch_bend_c, 5, 8192
5, 95665, Pitch_bend_c, 5, 8192
5, 95668, Pitch_bend_c, 5, 8192
5, 95668, Pitch_bend_c, 5, 8320
5, 95670, Pitch_bend_c, 5, 8192
5, 95672, Pitch_bend_c, 5, 8192
5, 95672, Pitch_bend_c, 5, 8320
5, 95675, Pitch_bend_c, 5, 8320
5, 95676, Pitch_bend_c, 5, 8320
5, 95677, Pitch_bend_c, 5, 8320
5, 95679, Pitch_bend_c, 5, 8448
5, 95680, Pitch_bend_c, 5, 8320
5, 95682, Pitch_bend_c, 5, 8448
5, 95684, Pitch_bend_c, 5, 8448
5, 95685, Pitch_bend_c, 5, 8320
5, 95686, Pitch_bend_c, 5, 8448
5, 95689, Pitch_bend_c, 5, 8448
5, 95689, Pitch_bend_c, 5, 8320
5, 95691, Pitch_bend_c, 5, 8448
5, 95693, Pitch_bend_c, 5, 8448
5, 95693, Pitch_bend_c, 5, 8320
5, 95696, Pitch_bend_c, 5, 8448
5, 95697, Pitch_bend_c, 5, 8320
5, 95698, Pitch_bend_c, 5, 8448
5, 95700, Pitch_bend_c, 5, 8320
5, 95701, Pitch_bend_c, 5, 8320
5, 95703, Pitch_bend_c, 5, 8320
5, 95705, Pitch_bend_c, 5, 8320
5, 95706, Pitch_bend_c, 5, 8320
5, 95708, Pitch_bend_c, 5, 8192
5, 95710, Pitch_bend_c, 5, 8064
5, 95710, Pitch_bend_c, 5, 8320
5, 95712, Pitch_bend_c, 5, 8064
5, 95714, Pitch_bend_c, 5, 8192
5, 95715, Pitch_bend_c, 5, 8064
5, 95717, Pitch_bend_c, 5, 7936
5, 95718, Pitch_bend_c, 5, 8192
5, 95719, Pitch_bend_c, 5, 7936
5, 95722, Pitch_bend_c, 5, 7936
5, 95723, Pitch_bend_c, 5, 8192
5, 95724, Pitch_bend_c, 5, 7936
5, 95726, Pitch_bend_c, 5, 7936
5, 95727, Pitch_bend_c, 5, 8192
5, 95729, Pitch_bend_c, 5, 7936
5, 95731, Pitch_bend_c, 5, 7936
5, 95731, Pitch_bend_c, 5, 8192
5, 95733, Pitch_bend_c, 5, 7936
5, 95735, Pitch_bend_c, 5, 8064
5, 95736, Pitch_bend_c, 5, 7936
5, 95738, Pitch_bend_c, 5, 8064
5, 95739, Pitch_bend_c, 5, 8064
5, 95740, Pitch_bend_c, 5, 8064
5, 95743, Pitch_bend_c, 5, 8192
5, 95744, Pitch_bend_c, 5, 8064
5, 95745, Pitch_bend_c, 5, 8192
5, 95747, Pitch_bend_c, 5, 8320
5, 95748, Pitch_bend_c, 5, 8064
5, 95750, Pitch_bend_c, 5, 8448
5, 95752, Pitch_bend_c, 5, 8576
5, 95752, Pitch_bend_c, 5, 8064
5, 95754, Pitch_bend_c, 5, 8576
5, 95756, Pitch_bend_c, 5, 8064
5, 95757, Pitch_bend_c, 5, 8704
5, 95759, Pitch_bend_c, 5, 8704
5, 95760, Control_c, 4, 7, 22
5, 95760, Control_c, 5, 7, 22
5, 95760, Pitch_bend_c, 5, 8064
5, 95761, Pitch_bend_c, 5, 8704
5, 95764, Pitch_bend_c, 5, 8832
5, 95765, Pitch_bend_c, 5, 8064
5, 95766, Pitch_bend_c, 5, 8704
5, 95768, Pitch_bend_c, 5, 8704
5, 95769, Pitch_bend_c, 5, 8064
5, 95771, Pitch_bend_c, 5, 8704
5, 95773, Pitch_bend_c, 5, 8576
5, 95773, Pitch_bend_c, 5, 8064
5, 95775, Pitch_bend_c, 5, 8576
5, 95777, Pitch_bend_c, 5, 8064
5, 95778, Pitch_bend_c, 5, 8448
5, 95780, Pitch_bend_c, 5, 8320
5, 95782, Pitch_bend_c, 5, 8192
5, 95783, Pitch_bend_c, 5, 8192
5, 95785, Pitch_bend_c, 5, 8064
5, 95786, Pitch_bend_c, 5, 8192
5, 95787, Pitch_bend_c, 5, 7936
5, 95790, Pitch_bend_c, 5, 7808
5, 95790, Pitch_bend_c, 5, 8192
5, 95792, Pitch_bend_c, 5, 7808
5, 95794, Pitch_bend_c, 5, 7680
5, 95794, Pitch_bend_c, 5, 8192
5, 95797, Pitch_bend_c, 5, 7680
5, 95798, Pitch_bend_c, 5, 8320
5, 95799, Pitch_bend_c, 5, 7680
5, 95801, Pitch_bend_c, 5, 7552
5, 95803, Pitch_bend_c, 5, 8320
5, 95804, Pitch_bend_c, 5, 7680
5, 95806, Pitch_bend_c, 5, 7680
5, 95807, Pitch_bend_c, 5, 8320
5, 95808, Pitch_bend_c, 5, 7680
5, 95811, Pitch_bend_c, 5, 7808
5, 95811, Pitch_bend_c, 5, 8320
5, 95813, Pitch_bend_c, 5, 7808
5, 95815, Pitch_bend_c, 5, 7936
5, 95815, Pitch_bend_c, 5, 8320
5, 95818, Pitch_bend_c, 5, 8064
5, 95820, Pitch_bend_c, 5, 8192
5, 95820, Pitch_bend_c, 5, 8448
5, 95822, Pitch_bend_c, 5, 8320
5, 95824, Pitch_bend_c, 5, 8448
5, 95825, Pitch_bend_c, 5, 8448
5, 95827, Pitch_bend_c, 5, 8448
5, 95828, Pitch_bend_c, 5, 8448
5, 95829, Pitch_bend_c, 5, 8576
5, 95832, Pitch_bend_c, 5, 8576
5, 95832, Pitch_bend_c, 5, 8320
5, 95834, Pitch_bend_c, 5, 8704
5, 95836, Pitch_bend_c, 5, 8704
5, 95836, Pitch_bend_c, 5, 8320
5, 95839, Pitch_bend_c, 5, 8704
5, 95841, Pitch_bend_c, 5, 8704
5, 95841, Pitch_bend_c, 5, 8320
5, 95843, Pitch_bend_c, 5, 8704
5, 95845, Pitch_bend_c, 5, 8320
5, 95846, Pitch_bend_c, 5, 8576
5, 95848, Pitch_bend_c, 5, 8576
5, 95849, Pitch_bend_c, 5, 8320
5, 95850, Pitch_bend_c, 5, 8448
5, 95853, Pitch_bend_c, 5, 8320
5, 95853, Pitch_bend_c, 5, 8192
5, 95855, Pitch_bend_c, 5, 8320
5, 95858, Pitch_bend_c, 5, 8192
5, 95858, Pitch_bend_c, 5, 8192
5, 95860, Pitch_bend_c, 5, 8064
5, 95862, Pitch_bend_c, 5, 8064
5, 95862, Pitch_bend_c, 5, 8192
5, 95865, Pitch_bend_c, 5, 7936
5, 95866, Pitch_bend_c, 5, 8064
5, 95867, Pitch_bend_c, 5, 7808
5, 95869, Pitch_bend_c, 5, 7808
5, 95870, Pitch_bend_c, 5, 8064
5, 95872, Pitch_bend_c, 5, 7680
5, 95874, Pitch_bend_c, 5, 7680
5, 95874, Pitch_bend_c, 5, 8064
5, 95876, Pitch_bend_c, 5, 7680
5, 95879, Pitch_bend_c, 5, 7680
5, 95879, Pitch_bend_c, 5, 8064
5, 95880, Control_c, 4, 7, 30
5, 95880, Control_c, 5, 7, 30
5, 95881, Pitch_bend_c, 5, 7680
5, 95883, Pitch_bend_c, 5, 7808
5, 95883, Pitch_bend_c, 5, 8064
5, 95886, Pitch_bend_c, 5, 7808
5, 95887, Pitch_bend_c, 5, 7936
5, 95888, Pitch_bend_c, 5, 7936
5, 95890, Pitch_bend_c, 5, 7936
5, 95891, Pitch_bend_c, 5, 7936
5, 95893, Pitch_bend_c, 5, 8064
5, 95895, Pitch_bend_c, 5, 8192
5, 95895, Pitch_bend_c, 5, 7936
5, 95897, Pitch_bend_c, 5, 8320
5, 95900, Pitch_bend_c, 5, 8448
5, 95900, Pitch_bend_c, 5, 8064
5, 95902, Pitch_bend_c, 5, 8576
5, 95904, Pitch_bend_c, 5, 8576
5, 95904, Pitch_bend_c, 5, 8064
5, 95907, Pitch_bend_c, 5, 8704
5, 95908, Pitch_bend_c, 5, 8064
5, 95909, Pitch_bend_c, 5, 8704
5, 95911, Pitch_bend_c, 5, 8832
5, 95912, Pitch_bend_c, 5, 8064
5, 95914, Pitch_bend_c, 5, 8832
5, 95916, Pitch_bend_c, 5, 8832
5, 95917, Pitch_bend_c, 5, 8064
5, 95918, Pitch_bend_c, 5, 8704
5, 95921, Pitch_bend_c, 5, 8704
5, 95921, Pitch_bend_c, 5, 8192
5, 95923, Pitch_bend_c, 5, 8576
5, 95925, Pitch_bend_c, 5, 8576
5, 95925, Pitch_bend_c, 5, 8192
5, 95928, Pitch_bend_c, 5, 8448
5, 95929, Pitch_bend_c, 5, 8192
5, 95930, Pitch_bend_c, 5, 8320
5, 95933, Pitch_bend_c, 5, 8192
5, 95933, Pitch_bend_c, 5, 8320
5, 95935, Pitch_bend_c, 5, 8064
5, 95937, Pitch_bend_c, 5, 7936
5, 95938, Pitch_bend_c, 5, 8320
5, 95940, Pitch_bend_c, 5, 7808
5, 95942, Pitch_bend_c, 5, 7808
5, 95942, Pitch_bend_c, 5, 8320
5, 95944, Pitch_bend_c, 5, 7680
5, 95946, Pitch_bend_c, 5, 8448
5, 95947, Pitch_bend_c, 5, 7680
5, 95949, Pitch_bend_c, 5, 7552
5, 95950, Pitch_bend_c, 5, 8448
5, 95951, Pitch_bend_c, 5, 7552
5, 95954, Pitch_bend_c, 5, 7552
5, 95955, Pitch_bend_c, 5, 8448
5, 95956, Pitch_bend_c, 5, 7680
5, 95958, Pitch_bend_c, 5, 7680
5, 95959, Pitch_bend_c, 5, 8448
5, 95961, Pitch_bend_c, 5, 7808
5, 95963, Pitch_bend_c, 5, 7808
5, 95963, Pitch_bend_c, 5, 8448
5, 95965, Pitch_bend_c, 5, 7936
5, 95967, Pitch_bend_c, 5, 8448
5, 95968, Pitch_bend_c, 5, 8064
5, 95970, Pitch_bend_c, 5, 8192
5, 95971, Pitch_bend_c, 5, 8448
5, 95972, Pitch_bend_c, 5, 8320
5, 95975, Pitch_bend_c, 5, 8448
5, 95976, Pitch_bend_c, 5, 8320
5, 95977, Pitch_bend_c, 5, 8576
5, 95979, Pitch_bend_c, 5, 8576
5, 95980, Pitch_bend_c, 5, 8320
5, 95982, Pitch_bend_c, 5, 8704
5, 95984, Pitch_bend_c, 5, 8704
5, 95984, Pitch_bend_c, 5, 8320
5, 95986, Pitch_bend_c, 5, 8704
5, 95988, Pitch_bend_c, 5, 8192
5, 95989, Pitch_bend_c, 5, 8832
5, 95991, Pitch_bend_c, 5, 8704
5, 95993, Pitch_bend_c, 5, 8704
5, 95993, Pitch_bend_c, 5, 8192
5, 95996, Pitch_bend_c, 5, 8704
5, 95997, Pitch_bend_c, 5, 8192
5, 95998, Pitch_bend_c, 5, 8576
5, 96000, Control_c, 4, 7, 37
5, 96000, Control_c, 5, 7, 37
5, 96000, Pitch_bend_c, 5, 8576
5, 96001, Pitch_bend_c, 5, 8064
5, 96003, Pitch_bend_c, 5, 8448
5, 96005, Pitch_bend_c, 5, 8320
5, 96005, Pitch_bend_c, 5, 8064
5, 96008, Pitch_bend_c, 5, 8192
5, 96009, Pitch_bend_c, 5, 8064
5, 96010, Pitch_bend_c, 5, 8064
5, 96012, Pitch_bend_c, 5, 7936
5, 96014, Pitch_bend_c, 5, 7936
5, 96015, Pitch_bend_c, 5, 7808
5, 96017, Pitch_bend_c, 5, 7808
5, 96018, Pitch_bend_c, 5, 7936
5, 96019, Pitch_bend_c, 5, 7680
5, 96022, Pitch_bend_c, 5, 7680
5, 96022, Pitch_bend_c, 5, 7936
5, 96024, Pitch_bend_c, 5, 7680
5, 96026, Pitch_bend_c, 5, 7552
5, 96026, Pitch_bend_c, 5, 7936
5, 96029, Pitch_bend_c, 5, 7680
5, 96030, Pitch_bend_c, 5, 7936
5, 96031, Pitch_bend_c, 5, 7680
5, 96033, Pitch_bend_c, 5, 7680
5, 96035, Pitch_bend_c, 5, 7936
5, 96036, Pitch_bend_c, 5, 7808
5, 96038, Pitch_bend_c, 5, 7808
5, 96039, Pitch_bend_c, 5, 7936
5, 96040, Pitch_bend_c, 5, 7936
5, 96043, Pitch_bend_c, 5, 8064
5, 96043, Pitch_bend_c, 5, 8064
5, 96045, Pitch_bend_c, 5, 8192
5, 96047, Pitch_bend_c, 5, 8320
5, 96047, Pitch_bend_c, 5, 8064
5, 96050, Pitch_bend_c, 5, 8448
5, 96052, Pitch_bend_c, 5, 8448
5, 96052, Pitch_bend_c, 5, 8064
5, 96054, Pitch_bend_c, 5, 8576
5, 96056, Pitch_bend_c, 5, 8192
5, 96057, Pitch_bend_c, 5, 8576
5, 96059, Pitch_bend_c, 5, 8704
5, 96060, Pitch_bend_c, 5, 8192
5, 96061, Pitch_bend_c, 5, 8704
5, 96064, Pitch_bend_c, 5, 8704
5, 96064, Pitch_bend_c, 5, 8192
5, 96066, Pitch_bend_c, 5, 8704
5, 96068, Pitch_bend_c, 5, 8704
5, 96068, Pitch_bend_c, 5, 8320
5, 96071, Pitch_bend_c, 5, 8576
5, 96073, Pitch_bend_c, 5, 8576
5, 96073, Pitch_bend_c, 5, 8320
5, 96075, Pitch_bend_c, 5, 8448
5, 96077, Pitch_bend_c, 5, 8320
5, 96078, Pitch_bend_c, 5, 8320
5, 96080, Pitch_bend_c, 5, 8320
5, 96081, Pitch_bend_c, 5, 8320
5, 96083, Pitch_bend_c, 5, 8192
5, 96085, Pitch_bend_c, 5, 8064
5, 96085, Pitch_bend_c, 5, 8448
5, 96087, Pitch_bend_c, 5, 8064
5, 96090, Pitch_bend_c, 5, 7936
5, 96090, Pitch_bend_c, 5, 8448
5, 96092, Pitch_bend_c, 5, 7808
5, 96094, Pitch_bend_c, 5, 7808
5, 96094, Pitch_bend_c, 5, 8448
5, 96097, Pitch_bend_c, 5, 7680
5, 96098, Pitch_bend_c, 5, 8448
5, 96099, Pitch_bend_c, 5, 7680
5, 96101, Pitch_bend_c, 5, 7680
5, 96102, Pitch_bend_c, 5, 8448
5, 96104, Pitch_bend_c, 5, 7680
5, 96106, Pitch_bend_c, 5, 7680
5, 96106, Pitch_bend_c, 5, 8320
5, 96108, Pitch_bend_c, 5, 7808
5, 96111, Pitch_bend_c, 5, 7808
5, 96111, Pitch_bend_c, 5, 8320
5, 96113, Pitch_bend_c, 5, 7936
5, 96115, Pitch_bend_c, 5, 7936
5, 96115, Pitch_bend_c, 5, 8320
5, 96118, Pitch_bend_c, 5, 8064
5, 96119, Pitch_bend_c, 5, 8320
5, 96120, Control_c, 4, 7, 44
5, 96120, Control_c, 5, 7, 44
5, 96120, Pitch_bend_c, 5, 8192
5, 96122, Pitch_bend_c, 5, 8320
5, 96123, Pitch_bend_c, 5, 8192
5, 96125, Pitch_bend_c, 5, 8448
5, 96127, Pitch_bend_c, 5, 8448
5, 96128, Pitch_bend_c, 5, 8192
5, 96129, Pitch_bend_c, 5, 8576
5, 96132, Pitch_bend_c, 5, 8576
5, 96132, Pitch_bend_c, 5, 8192
5, 96134, Pitch_bend_c, 5, 8704
5, 96136, Pitch_bend_c, 5, 8704
5, 96136, Pitch_bend_c, 5, 8064
5, 96139, Pitch_bend_c, 5, 8704
5, 96140, Pitch_bend_c, 5, 8064
5, 96141, Pitch_bend_c, 5, 8704
5, 96143, Pitch_bend_c, 5, 8704
5, 96144, Pitch_bend_c, 5, 8064
5, 96146, Pitch_bend_c, 5, 8576
5, 96148, Pitch_bend_c, 5, 8576
5, 96149, Pitch_bend_c, 5, 8064
5, 96150, Pitch_bend_c, 5, 8448
5, 96153, Pitch_bend_c, 5, 8320
5, 96153, Pitch_bend_c, 5, 7936
5, 96155, Pitch_bend_c, 5, 8320
5, 96157, Pitch_bend_c, 5, 7936
5, 96158, Pitch_bend_c, 5, 8192
5, 96160, Pitch_bend_c, 5, 8064
5, 96161, Pitch_bend_c, 5, 7936
5, 96162, Pitch_bend_c, 5, 8064
5, 96165, Pitch_bend_c, 5, 7936
5, 96165, Pitch_bend_c, 5, 7936
5, 96167, Pitch_bend_c, 5, 7808
5, 96169, Pitch_bend_c, 5, 7808
5, 96170, Pitch_bend_c, 5, 7936
5, 96172, Pitch_bend_c, 5, 7680
5, 96174, Pitch_bend_c, 5, 7680
5, 96174, Pitch_bend_c, 5, 8064
5, 96176, Pitch_bend_c, 5, 7680
5, 96178, Pitch_bend_c, 5, 8064
5, 96179, Pitch_bend_c, 5, 7680
5, 96181, Pitch_bend_c, 5, 7680
5, 96182, Pitch_bend_c, 5, 8064
5, 96183, Pitch_bend_c, 5, 7808
5, 96186, Pitch_bend_c, 5, 7808
5, 96187, Pitch_bend_c, 5, 8064
5, 96188, Pitch_bend_c, 5, 7936
5, 96190, Pitch_bend_c, 5, 7936
5, 96191, Pitch_bend_c, 5, 8192
5, 96193, Pitch_bend_c, 5, 8064
5, 96195, Pitch_bend_c, 5, 8192
5, 96195, Pitch_bend_c, 5, 8192
5, 96197, Pitch_bend_c, 5, 8320
5, 96199, Pitch_bend_c, 5, 8192
5, 96200, Pitch_bend_c, 5, 8448
5, 96202, Pitch_bend_c, 5, 8448
5, 96203, Pitch_bend_c, 5, 8320
5, 96204, Pitch_bend_c, 5, 8576
5, 96207, Pitch_bend_c, 5, 8576
5, 96208, Pitch_bend_c, 5, 8320
5, 96209, Pitch_bend_c, 5, 8704
5, 96211, Pitch_bend_c, 5, 8704
5, 96212, Pitch_bend_c, 5, 8448
5, 96214, Pitch_bend_c, 5, 8704
5, 96216, Pitch_bend_c, 5, 8704
5, 96216, Pitch_bend_c, 5, 8448
5, 96218, Pitch_bend_c, 5, 8704
5, 96220, Pitch_bend_c, 5, 8448
5, 96221, Pitch_bend_c, 5, 8576
5, 96223, Pitch_bend_c, 5, 8576
5, 96225, Pitch_bend_c, 5, 8448
5, 96225, Pitch_bend_c, 5, 8448
5, 96228, Pitch_bend_c, 5, 8320
5, 96229, Pitch_bend_c, 5, 8448
5, 96230, Pitch_bend_c, 5, 8320
5, 96233, Pitch_bend_c, 5, 8192
5, 96233, Pitch_bend_c, 5, 8448
5, 96235, Pitch_bend_c, 5, 8064
5, 96237, Pitch_bend_c, 5, 8064
5, 96237, Pitch_bend_c, 5, 8448
5, 96240, Control_c, 4, 7, 52
5, 96240, Control_c, 5, 7, 52
5, 96240, Pitch_bend_c, 5, 7936
5, 96241, Pitch_bend_c, 5, 8448
5, 96242, Pitch_bend_c, 5, 7808
5, 96244, Pitch_bend_c, 5, 7808
5, 96246, Pitch_bend_c, 5, 8448
5, 96247, Pitch_bend_c, 5, 7680
5, 96249, Pitch_bend_c, 5, 7680
5, 96250, Pitch_bend_c, 5, 8320
5, 96251, Pitch_bend_c, 5, 7680
5, 96254, Pitch_bend_c, 5, 7680
5, 96254, Pitch_bend_c, 5, 8320
5, 96256, Pitch_bend_c, 5, 7680
5, 96258, Pitch_bend_c, 5, 7808
5, 96258, Pitch_bend_c, 5, 8192
5, 96261, Pitch_bend_c, 5, 7808
5, 96263, Pitch_bend_c, 5, 7936
5, 96263, Pitch_bend_c, 5, 8192
5, 96265, Pitch_bend_c, 5, 7936
5, 96267, Pitch_bend_c, 5, 8192
5, 96268, Pitch_bend_c, 5, 8064
5, 96270, Pitch_bend_c, 5, 8192
5, 96271, Pitch_bend_c, 5, 8064
5, 96272, Pitch_bend_c, 5, 8320
5, 96275, Pitch_bend_c, 5, 8448
5, 96275, Pitch_bend_c, 5, 8064
5, 96277, Pitch_bend_c, 5, 8448
5, 96279, Pitch_bend_c, 5, 8576
5, 96279, Pitch_bend_c, 5, 7936
5, 96282, Pitch_bend_c, 5, 8576
5, 96284, Pitch_bend_c, 5, 8704
5, 96284, Pitch_bend_c, 5, 7936
5, 96286, Pitch_bend_c, 5, 8704
5, 96288, Pitch_bend_c, 5, 7936
5, 96289, Pitch_bend_c, 5, 8704
5, 96291, Pitch_bend_c, 5, 8704
5, 96292, Pitch_bend_c, 5, 7936
5, 96293, Pitch_bend_c, 5, 8704
5, 96296, Pitch_bend_c, 5, 8576
5, 96296, Pitch_bend_c, 5, 7936
5, 96298, Pitch_bend_c, 5, 8576
5, 96300, Pitch_bend_c, 5, 8448
5, 96300, Pitch_bend_c, 5, 7936
5, 96303, Pitch_bend_c, 5, 8320
5, 96305, Pitch_bend_c, 5, 8320
5, 96305, Pitch_bend_c, 5, 7936
5, 96308, Pitch_bend_c, 5, 8192
5, 96309, Pitch_bend_c, 5, 7936
5, 96310, Pitch_bend_c, 5, 8064
5, 96312, Pitch_bend_c, 5, 8064
5, 96313, Pitch_bend_c, 5, 7936
5, 96315, Pitch_bend_c, 5, 7936
5, 96317, Pitch_bend_c, 5, 7808
5, 96317, Pitch_bend_c, 5, 8064
5, 96319, Pitch_bend_c, 5, 7808
5, 96322, Pitch_bend_c, 5, 7680
5, 96322, Pitch_bend_c, 5, 8064
5, 96324, Pitch_bend_c, 5, 7680
5, 96326, Pitch_bend_c, 5, 7680
5, 96326, Pitch_bend_c, 5, 8192
5, 96329, Pitch_bend_c, 5, 7680
5, 96330, Pitch_bend_c, 5, 8192
5, 96331, Pitch_bend_c, 5, 7680
5, 96333, Pitch_bend_c, 5, 7808
5, 96334, Pitch_bend_c, 5, 8192
5, 96336, Pitch_bend_c, 5, 7808
5, 96338, Pitch_bend_c, 5, 7936
5, 96338, Pitch_bend_c, 5, 8320
5, 96340, Pitch_bend_c, 5, 7936
5, 96343, Pitch_bend_c, 5, 8064
5, 96343, Pitch_bend_c, 5, 8320
5, 96345, Pitch_bend_c, 5, 8192
5, 96347, Pitch_bend_c, 5, 8320
5, 96347, Pitch_bend_c, 5, 8320
5, 96350, Pitch_bend_c, 5, 8448
5, 96351, Pitch_bend_c, 5, 8320
5, 96352, Pitch_bend_c, 5, 8448
5, 96354, Pitch_bend_c, 5, 8576
5, 96355, Pitch_bend_c, 5, 8448
5, 96357, Pitch_bend_c, 5, 8704
5, 96359, Pitch_bend_c, 5, 8704
5, 96360, Control_c, 4, 7, 59
5, 96360, Control_c, 5, 7, 59
5, 96360, Pitch_bend_c, 5, 8448
5, 96361, Pitch_bend_c, 5, 8704
5, 96364, Pitch_bend_c, 5, 8704
5, 96364, Pitch_bend_c, 5, 8448
5, 96366, Pitch_bend_c, 5, 8704
5, 96368, Pitch_bend_c, 5, 8704
5, 96368, Pitch_bend_c, 5, 8448
5, 96371, Pitch_bend_c, 5, 8704
5, 96372, Pitch_bend_c, 5, 8448
5, 96373, Pitch_bend_c, 5, 8576
5, 96375, Pitch_bend_c, 5, 8576
5, 96376, Pitch_bend_c, 5, 8320
5, 96378, Pitch_bend_c, 5, 8448
5, 96380, Pitch_bend_c, 5, 8320
5, 96381, Pitch_bend_c, 5, 8320
5, 96383, Pitch_bend_c, 5, 8192
5, 96385, Pitch_bend_c, 5, 8064
5, 96385, Pitch_bend_c, 5, 8320
5, 96387, Pitch_bend_c, 5, 7936
5, 96389, Pitch_bend_c, 5, 8320
5, 96390, Pitch_bend_c, 5, 7808
5, 96392, Pitch_bend_c, 5, 7808
5, 96393, Pitch_bend_c, 5, 8192
5, 96394, Pitch_bend_c, 5, 7680
5, 96397, Pitch_bend_c, 5, 7680
5, 96398, Pitch_bend_c, 5, 8192
5, 96399, Pitch_bend_c, 5, 7680
5, 96401, Pitch_bend_c, 5, 7680
5, 96402, Pitch_bend_c, 5, 8192
5, 96404, Pitch_bend_c, 5, 7680
5, 96406, Pitch_bend_c, 5, 7680
5, 96406, Pitch_bend_c, 5, 8064
5, 96408, Pitch_bend_c, 5, 7680
5, 96410, Pitch_bend_c, 5, 8064
5, 96411, Pitch_bend_c, 5, 7808
5, 96413, Pitch_bend_c, 5, 7936
5, 96414, Pitch_bend_c, 5, 8064
5, 96415, Pitch_bend_c, 5, 7936
5, 96418, Pitch_bend_c, 5, 8064
5, 96419, Pitch_bend_c, 5, 8064
5, 96420, Pitch_bend_c, 5, 8192
5, 96422, Pitch_bend_c, 5, 8320
5, 96423, Pitch_bend_c, 5, 7936
5, 96425, Pitch_bend_c, 5, 8448
5, 96427, Pitch_bend_c, 5, 8576
5, 96427, Pitch_bend_c, 5, 7936
5, 96429, Pitch_bend_c, 5, 8576
5, 96431, Pitch_bend_c, 5, 7936
5, 96432, Pitch_bend_c, 5, 8704
5, 96434, Pitch_bend_c, 5, 8704
5, 96435, Pitch_bend_c, 5, 7936
5, 96436, Pitch_bend_c, 5, 8704
5, 96439, Pitch_bend_c, 5, 8832
5, 96440, Pitch_bend_c, 5, 7936
5, 96441, Pitch_bend_c, 5, 8704
5, 96443, Pitch_bend_c, 5, 8704
5, 96444, Pitch_bend_c, 5, 8064
5, 96446, Pitch_bend_c, 5, 8704
5, 96448, Pitch_bend_c, 5, 8576
5, 96448, Pitch_bend_c, 5, 8064
5, 96450, Pitch_bend_c, 5, 8576
5, 96452, Pitch_bend_c, 5, 8064
5, 96453, Pitch_bend_c, 5, 8448
5, 96455, Pitch_bend_c, 5, 8320
5, 96457, Pitch_bend_c, 5, 8064
5, 96458, Pitch_bend_c, 5, 8192
5, 96460, Pitch_bend_c, 5, 8064
5, 96461, Pitch_bend_c, 5, 8192
5, 96462, Pitch_bend_c, 5, 7936
5, 96465, Pitch_bend_c, 5, 7808
5, 96465, Pitch_bend_c, 5, 8192
5, 96467, Pitch_bend_c, 5, 7808
5, 96469, Pitch_bend_c, 5, 7680
5, 96469, Pitch_bend_c, 5, 8192
5, 96472, Pitch_bend_c, 5, 7680
5, 96473, Pitch_bend_c, 5, 8320
5, 96474, Pitch_bend_c, 5, 7680
5, 96476, Pitch_bend_c, 5, 7552
5, 96478, Pitch_bend_c, 5, 8320
5, 96479, Pitch_bend_c, 5, 7680
5, 96480, Control_c, 4, 7, 66
5, 96480, Control_c, 5, 7, 66
5, 96481, Pitch_bend_c, 5, 7680
5, 96482, Pitch_bend_c, 5, 8320
5, 96483, Pitch_bend_c, 5, 7680
5, 96486, Pitch_bend_c, 5, 7808
5, 96486, Pitch_bend_c, 5, 8448
5, 96488, Pitch_bend_c, 5, 7808
5, 96490, Pitch_bend_c, 5, 7936
5, 96490, Pitch_bend_c, 5, 8448
5, 96493, Pitch_bend_c, 5, 8064
5, 96495, Pitch_bend_c, 5, 8192
5, 96495, Pitch_bend_c, 5, 8448
5, 96497, Pitch_bend_c, 5, 8320
5, 96499, Pitch_bend_c, 5, 8448
5, 96500, Pitch_bend_c, 5, 8448
5, 96502, Pitch_bend_c, 5, 8448
5, 96503, Pitch_bend_c, 5, 8448
5, 96504, Pitch_bend_c, 5, 8576
5, 96507, Pitch_bend_c, 5, 8704
5, 96507, Pitch_bend_c, 5, 8448
5, 96509, Pitch_bend_c, 5, 8704
5, 96511, Pitch_bend_c, 5, 8704
5, 96511, Pitch_bend_c, 5, 8448
5, 96514, Pitch_bend_c, 5, 8704
5, 96516, Pitch_bend_c, 5, 8704
5, 96516, Pitch_bend_c, 5, 8320
5, 96518, Pitch_bend_c, 5, 8704
5, 96520, Pitch_bend_c, 5, 8320
5, 96521, Pitch_bend_c, 5, 8704
5, 96523, Pitch_bend_c, 5, 8576
5, 96524, Pitch_bend_c, 5, 8320
5, 96525, Pitch_bend_c, 5, 8576
5, 96528, Pitch_bend_c, 5, 8448
5, 96528, Pitch_bend_c, 5, 8192
5, 96530, Pitch_bend_c, 5, 8320
5, 96533, Pitch_bend_c, 5, 8192
5, 96533, Pitch_bend_c, 5, 8192
5, 96535, Pitch_bend_c, 5, 8064
5, 96537, Pitch_bend_c, 5, 7936
5, 96537, Pitch_bend_c, 5, 8192
5, 96540, Pitch_bend_c, 5, 7808
5, 96541, Pitch_bend_c, 5, 8064
5, 96542, Pitch_bend_c, 5, 7808
5, 96544, Pitch_bend_c, 5, 7680
5, 96545, Pitch_bend_c, 5, 8064
5, 96547, Pitch_bend_c, 5, 7680
5, 96549, Pitch_bend_c, 5, 7680
5, 96549, Pitch_bend_c, 5, 8064
5, 96551, Pitch_bend_c, 5, 7680
5, 96554, Pitch_bend_c, 5, 7680
5, 96554, Pitch_bend_c, 5, 7936
5, 96556, Pitch_bend_c, 5, 7680
5, 96558, Pitch_bend_c, 5, 7680
5, 96558, Pitch_bend_c, 5, 7936
5, 96561, Pitch_bend_c, 5, 7808
5, 96562, Pitch_bend_c, 5, 7936
5, 96563, Pitch_bend_c, 5, 7936
5, 96565, Pitch_bend_c, 5, 7936
5, 96566, Pitch_bend_c, 5, 7936
5, 96568, Pitch_bend_c, 5, 8064
5, 96570, Pitch_bend_c, 5, 8192
5, 96570, Pitch_bend_c, 5, 7936
5, 96572, Pitch_bend_c, 5, 8320
5, 96575, Pitch_bend_c, 5, 8448
5, 96575, Pitch_bend_c, 5, 7936
5, 96577, Pitch_bend_c, 5, 8576
5, 96579, Pitch_bend_c, 5, 8576
5, 96579, Pitch_bend_c, 5, 7936
5, 96582, Pitch_bend_c, 5, 8704
5, 96583, Pitch_bend_c, 5, 8064
5, 96584, Pitch_bend_c, 5, 8704
5, 96586, Pitch_bend_c, 5, 8832
5, 96587, Pitch_bend_c, 5, 8064
5, 96589, Pitch_bend_c, 5, 8832
5, 96591, Pitch_bend_c, 5, 8832
5, 96592, Pitch_bend_c, 5, 8064
5, 96593, Pitch_bend_c, 5, 8704
5, 96596, Pitch_bend_c, 5, 8704
5, 96596, Pitch_bend_c, 5, 8192
5, 96598, Pitch_bend_c, 5, 8576
5, 96600, Control_c, 4, 7, 74
5, 96600, Control_c, 5, 7, 74
5, 96600, Pitch_bend_c, 5, 8576
5, 96600, Pitch_bend_c, 5, 8192
5, 96603, Pitch_bend_c, 5, 8448
5, 96604, Pitch_bend_c, 5, 8192
5, 96605, Pitch_bend_c, 5, 8320
5, 96608, Pitch_bend_c, 5, 8192
5, 96608, Pitch_bend_c, 5, 8320
5, 96610, Pitch_bend_c, 5, 8064
5, 96612, Pitch_bend_c, 5, 7936
5, 96613, Pitch_bend_c, 5, 8320
5, 96615, Pitch_bend_c, 5, 7808
5, 96617, Pitch_bend_c, 5, 7808
5, 96617, Pitch_bend_c, 5, 8448
5, 96619, Pitch_bend_c, 5, 7680
5, 96621, Pitch_bend_c, 5, 8448
5, 96622, Pitch_bend_c, 5, 7680
5, 96624, Pitch_bend_c, 5, 7552
5, 96625, Pitch_bend_c, 5, 8448
5, 96626, Pitch_bend_c, 5, 7552
5, 96629, Pitch_bend_c, 5, 7552
5, 96630, Pitch_bend_c, 5, 8448
5, 96631, Pitch_bend_c, 5, 7680
5, 96633, Pitch_bend_c, 5, 7680
5, 96634, Pitch_bend_c, 5, 8448
5, 96636, Pitch_bend_c, 5, 7808
5, 96638, Pitch_bend_c, 5, 7808
5, 96638, Pitch_bend_c, 5, 8448
5, 96640, Pitch_bend_c, 5, 7936
5, 96642, Pitch_bend_c, 5, 8448
5, 96643, Pitch_bend_c, 5, 8064
5, 96645, Pitch_bend_c, 5, 8192
5, 96646, Pitch_bend_c, 5, 8448
5, 96647, Pitch_bend_c, 5, 8320
5, 96650, Pitch_bend_c, 5, 8448
5, 96651, Pitch_bend_c, 5, 8448
5, 96652, Pitch_bend_c, 5, 8448
5, 96654, Pitch_bend_c, 5, 8576
5, 96655, Pitch_bend_c, 5, 8320
5, 96657, Pitch_bend_c, 5, 8704
5, 96659, Pitch_bend_c, 5, 8704
5, 96659, Pitch_bend_c, 5, 8320
5, 96661, Pitch_bend_c, 5, 8704
5, 96663, Pitch_bend_c, 5, 8192
5, 96664, Pitch_bend_c, 5, 8704
5, 96666, Pitch_bend_c, 5, 8704
5, 96668, Pitch_bend_c, 5, 8704
5, 96668, Pitch_bend_c, 5, 8192
5, 96671, Pitch_bend_c, 5, 8576
5, 96672, Pitch_bend_c, 5, 8192
5, 96673, Pitch_bend_c, 5, 8576
5, 96675, Pitch_bend_c, 5, 8448
5, 96676, Pitch_bend_c, 5, 8064
5, 96678, Pitch_bend_c, 5, 8320
5, 96680, Pitch_bend_c, 5, 8320
5, 96680, Pitch_bend_c, 5, 8064
5, 96683, Pitch_bend_c, 5, 8192
5, 96684, Pitch_bend_c, 5, 7936
5, 96685, Pitch_bend_c, 5, 8064
5, 96687, Pitch_bend_c, 5, 8064
5, 96689, Pitch_bend_c, 5, 7936
5, 96690, Pitch_bend_c, 5, 7936
5, 96692, Pitch_bend_c, 5, 7808
5, 96693, Pitch_bend_c, 5, 7936
5, 96694, Pitch_bend_c, 5, 7808
5, 96697, Pitch_bend_c, 5, 7680
5, 96697, Pitch_bend_c, 5, 7936
5, 96699, Pitch_bend_c, 5, 7680
5, 96701, Pitch_bend_c, 5, 7680
5, 96701, Pitch_bend_c, 5, 7936
5, 96704, Pitch_bend_c, 5, 7680
5, 96705, Pitch_bend_c, 5, 7936
5, 96706, Pitch_bend_c, 5, 7680
5, 96708, Pitch_bend_c, 5, 7680
5, 96710, Pitch_bend_c, 5, 7936
5, 96711, Pitch_bend_c, 5, 7808
5, 96713, Pitch_bend_c, 5, 7936
5, 96714, Pitch_bend_c, 5, 7936
5, 96715, Pitch_bend_c, 5, 7936
5, 96718, Pitch_bend_c, 5, 8064
5, 96718, Pitch_bend_c, 5, 7936
5, 96720, Control_c, 4, 7, 81
5, 96720, Control_c, 5, 7, 81
5, 96720, Pitch_bend_c, 5, 8192
5, 96722, Pitch_bend_c, 5, 8320
5, 96722, Pitch_bend_c, 5, 8064
5, 96725, Pitch_bend_c, 5, 8448
5, 96727, Pitch_bend_c, 5, 8576
5, 96727, Pitch_bend_c, 5, 8064
5, 96729, Pitch_bend_c, 5, 8576
5, 96731, Pitch_bend_c, 5, 8192
5, 96732, Pitch_bend_c, 5, 8704
5, 96734, Pitch_bend_c, 5, 8704
5, 96735, Pitch_bend_c, 5, 8192
5, 96736, Pitch_bend_c, 5, 8704
5, 96739, Pitch_bend_c, 5, 8832
5, 96739, Pitch_bend_c, 5, 8192
5, 96741, Pitch_bend_c, 5, 8704
5, 96743, Pitch_bend_c, 5, 8704
5, 96743, Pitch_bend_c, 5, 8320
5, 96746, Pitch_bend_c, 5, 8704
5, 96748, Pitch_bend_c, 5, 8576
5, 96748, Pitch_bend_c, 5, 8320
5, 96750, Pitch_bend_c, 5, 8576
5, 96752, Pitch_bend_c, 5, 8320
5, 96753, Pitch_bend_c, 5, 8448
5, 96755, Pitch_bend_c, 5, 8320
5, 96756, Pitch_bend_c, 5, 8448
5, 96758, Pitch_bend_c, 5, 8192
5, 96760, Pitch_bend_c, 5, 8064
5, 96760, Pitch_bend_c, 5, 8448
5, 96762, Pitch_bend_c, 5, 7936
5, 96765, Pitch_bend_c, 5, 7808
5, 96765, Pitch_bend_c, 5, 8448
5, 96767, Pitch_bend_c, 5, 7808
5, 96769, Pitch_bend_c, 5, 7680
5, 96769, Pitch_bend_c, 5, 8448
5, 96772, Pitch_bend_c, 5, 7680
5, 96773, Pitch_bend_c, 5, 8448
5, 96774, Pitch_bend_c, 5, 7680
5, 96776, Pitch_bend_c, 5, 7552
5, 96777, Pitch_bend_c, 5, 8448
5, 96779, Pitch_bend_c, 5, 7680
5, 96781, Pitch_bend_c, 5, 7680
5, 96781, Pitch_bend_c, 5, 8448
5, 96783, Pitch_bend_c, 5, 7680
5, 96786, Pitch_bend_c, 5, 7808
5, 96786, Pitch_bend_c, 5, 8320
5, 96788, Pitch_bend_c, 5, 7808
5, 96790, Pitch_bend_c, 5, 7936
5, 96790, Pitch_bend_c, 5, 8320
5, 96793, Pitch_bend_c, 5, 8064
5, 96794, Pitch_bend_c, 5, 8320
5, 96795, Pitch_bend_c, 5, 8192
5, 96797, Pitch_bend_c, 5, 8320
5, 96798, Pitch_bend_c, 5, 8192
5, 96800, Pitch_bend_c, 5, 8320
5, 96802, Pitch_bend_c, 5, 8448
5, 96803, Pitch_bend_c, 5, 8192
5, 96804, Pitch_bend_c, 5, 8448
5, 96807, Pitch_bend_c, 5, 8576
5, 96807, Pitch_bend_c, 5, 8192
5, 96809, Pitch_bend_c, 5, 8576
5, 96811, Pitch_bend_c, 5, 8576
5, 96811, Pitch_bend_c, 5, 8064
5, 96814, Pitch_bend_c, 5, 8576
5, 96815, Pitch_bend_c, 5, 8064
5, 96816, Pitch_bend_c, 5, 8576
5, 96818, Pitch_bend_c, 5, 8576
5, 96819, Pitch_bend_c, 5, 8064
5, 96821, Pitch_bend_c, 5, 8576
5, 96823, Pitch_bend_c, 5, 8448
5, 96824, Pitch_bend_c, 5, 7936
5, 96825, Pitch_bend_c, 5, 8448
5, 96828, Pitch_bend_c, 5, 8320
5, 96828, Pitch_bend_c, 5, 7936
5, 96830, Pitch_bend_c, 5, 8320
5, 96832, Pitch_bend_c, 5, 7936
5, 96833, Pitch_bend_c, 5, 8192
5, 96835, Pitch_bend_c, 5, 8064
5, 96836, Pitch_bend_c, 5, 7936
5, 96837, Pitch_bend_c, 5, 8064
5, 96840, Control_c, 4, 7, 89
5, 96840, Control_c, 5, 7, 89
5, 96840, Pitch_bend_c, 5, 7936
5, 96840, Pitch_bend_c, 5, 7936
5, 96842, Pitch_bend_c, 5, 7936
5, 96844, Pitch_bend_c, 5, 7808
5, 96845, Pitch_bend_c, 5, 7936
5, 96847, Pitch_bend_c, 5, 7808
5, 96849, Pitch_bend_c, 5, 7808
5, 96849, Pitch_bend_c, 5, 7936
5, 96851, Pitch_bend_c, 5, 7808
5, 96853, Pitch_bend_c, 5, 8064
5, 96854, Pitch_bend_c, 5, 7808
5, 96856, Pitch_bend_c, 5, 7808
5, 96857, Pitch_bend_c, 5, 8064
5, 96858, Pitch_bend_c, 5, 7808
5, 96861, Pitch_bend_c, 5, 7936
5, 96862, Pitch_bend_c, 5, 8064
5, 96863, Pitch_bend_c, 5, 7936
5, 96865, Pitch_bend_c, 5, 8064
5, 96866, Pitch_bend_c, 5, 8192
5, 96868, Pitch_bend_c, 5, 8064
5, 96870, Pitch_bend_c, 5, 8192
5, 96870, Pitch_bend_c, 5, 8192
5, 96872, Pitch_bend_c, 5, 8192
5, 96874, Pitch_bend_c, 5, 8192
5, 96875, Pitch_bend_c, 5, 8320
5, 96877, Pitch_bend_c, 5, 8320
5, 96878, Pitch_bend_c, 5, 8192
5, 96879, Pitch_bend_c, 5, 8320
5, 96882, Pitch_bend_c, 5, 8448
5, 96883, Pitch_bend_c, 5, 8320
5, 96884, Pitch_bend_c, 5, 8448
5, 96886, Pitch_bend_c, 5, 8448
5, 96887, Pitch_bend_c, 5, 8320
5, 96889, Pitch_bend_c, 5, 8448
5, 96891, Pitch_bend_c, 5, 8448
5, 96891, Pitch_bend_c, 5, 8320
5, 96893, Pitch_bend_c, 5, 8448
5, 96895, Pitch_bend_c, 5, 8320
5, 96896, Pitch_bend_c, 5, 8448
5, 96898, Pitch_bend_c, 5, 8320
5, 96900, Pitch_bend_c, 5, 8320
5, 96900, Pitch_bend_c, 5, 8320
5, 96903, Pitch_bend_c, 5, 8320
5, 96904, Pitch_bend_c, 5, 8320
5, 96905, Pitch_bend_c, 5, 8192
5, 96908, Pitch_bend_c, 5, 8192
5, 96908, Pitch_bend_c, 5, 8320
5, 96910, Pitch_bend_c, 5, 8192
5, 96912, Pitch_bend_c, 5, 8064
5, 96912, Pitch_bend_c, 5, 8320
5, 96915, Pitch_bend_c, 5, 8064
5, 96916, Pitch_bend_c, 5, 8320
5, 96917, Pitch_bend_c, 5, 8064
5, 96919, Pitch_bend_c, 5, 7936
5, 96921, Pitch_bend_c, 5, 8320
5, 96922, Pitch_bend_c, 5, 7936
5, 96924, Pitch_bend_c, 5, 7936
5, 96925, Pitch_bend_c, 5, 8192
5, 96926, Pitch_bend_c, 5, 7936
5, 96929, Pitch_bend_c, 5, 7936
5, 96929, Pitch_bend_c, 5, 8192
5, 96931, Pitch_bend_c, 5, 7936
5, 96933, Pitch_bend_c, 5, 7936
5, 96933, Pitch_bend_c, 5, 8192
5, 96936, Pitch_bend_c, 5, 8064
5, 96938, Pitch_bend_c, 5, 8064
5, 96938, Pitch_bend_c, 5, 8192
5, 96940, Pitch_bend_c, 5, 8064
5, 96942, Pitch_bend_c, 5, 8192
5, 96943, Pitch_bend_c, 5, 8192
5, 96945, Pitch_bend_c, 5, 8192
5, 96946, Pitch_bend_c, 5, 8192
5, 96947, Pitch_bend_c, 5, 8192
5, 96950, Pitch_bend_c, 5, 8192
5, 96950, Pitch_bend_c, 5, 8192
5, 96952, Pitch_bend_c, 5, 8192
5, 96954, Pitch_bend_c, 5, 8320
5, 96954, Pitch_bend_c, 5, 8064
5, 96957, Pitch_bend_c, 5, 8320
5, 96959, Pitch_bend_c, 5, 8320
5, 96959, Pitch_bend_c, 5, 8064
5, 96960, Control_c, 4, 7, 96
5, 96960, Control_c, 5, 7, 96
5, 96960, Pitch_bend_c, 5, 8192
5, 96960, Note_off_c, 5, 69, 80
5, 96960, Pitch_bend_c, 5, 8192
5, 99840, Program_c, 4, 1
5, 99840, Program_c, 5, 1
5, 99840, Control_c, 4, 7, 112
5, 99840, Control_c, 5, 7, 112
5, 99840, Control_c, 4, 10, 80
5, 99840, Control_c, 5, 10, 80
5, 99840, Control_c, 4, 91, 64
5, 99840, Control_c, 5, 91, 64
5, 101280, Note_on_c, 4, 55, 95
5, 101520, Note_on_c, 4, 52, 95
5, 103200, Note_off_c, 4, 55, 80
5, 103200, Note_on_c, 4, 59, 95
5, 103440, Note_off_c, 4, 52, 80
5, 103440, Note_on_c, 4, 60, 95
5, 103440, Note_on_c, 4, 48, 79
5, 105120, Note_off_c, 4, 59, 80
5, 105120, Note_off_c, 4, 60, 80
5, 105120, Note_on_c, 4, 55, 95
5, 105360, Note_off_c, 4, 48, 80
5, 105360, Note_on_c, 4, 52, 95
5, 106800, Note_off_c, 4, 55, 80
5, 106800, Note_on_c, 4, 59, 95
5, 106800, Note_on_c, 4, 47, 95
5, 107040, Note_off_c, 4, 59, 80
5, 107040, Note_off_c, 4, 47, 80
5, 107040, Note_on_c, 4, 62, 95
5, 107040, Note_on_c, 4, 50, 79
5, 107280, Note_off_c, 4, 52, 80
5, 107280, Note_off_c, 4, 62, 80
5, 107280, Note_off_c, 4, 50, 80
5, 107280, Note_on_c, 4, 60, 95
5, 107280, Note_on_c, 4, 48, 79
5, 108960, Note_off_c, 4, 60, 80
5, 108960, Note_on_c, 4, 55, 95
5, 109200, Note_off_c, 4, 48, 80
5, 109200, Note_on_c, 4, 52, 95
5, 109440, Note_on_c, 4, 64, 95
5, 110880, Note_off_c, 4, 55, 80
5, 110880, Note_on_c, 4, 59, 95
5, 111120, Note_off_c, 4, 52, 80
5, 111120, Note_on_c, 4, 60, 95
5, 111120, Note_on_c, 4, 48, 79
5, 111360, Note_off_c, 4, 64, 80
5, 112800, Note_off_c, 4, 59, 80
5, 112800, Note_off_c, 4, 60, 80
5, 112800, Note_on_c, 4, 55, 95
5, 113040, Note_off_c, 4, 48, 80
5, 113040, Note_on_c, 4, 52, 95
5, 113760, Note_on_c, 4, 59, 79
5, 114000, Note_off_c, 4, 55, 80
5, 114000, Note_on_c, 4, 55, 79
5, 114720, Note_off_c, 4, 59, 80
5, 114720, Note_on_c, 4, 62, 79
5, 114960, Note_off_c, 4, 52, 80
5, 114960, Note_off_c, 4, 55, 80
5, 114960, Control_c, 4, 7, 88
5, 114960, Control_c, 5, 7, 88
5, 114960, Note_on_c, 4, 60, 95
5, 114960, Note_on_c, 4, 48, 79
5, 115200, Note_on_c, 4, 55, 95
5, 115440, Note_off_c, 4, 60, 80
5, 115440, Note_off_c, 4, 48, 80
5, 115440, Note_on_c, 4, 62, 95
5, 115440, Note_on_c, 4, 48, 95
5, 115680, Note_off_c, 4, 62, 80
5, 115680, Note_off_c, 4, 48, 80
5, 115680, Note_on_c, 4, 62, 95
5, 115680, Note_on_c, 4, 48, 95
5, 115920, Note_off_c, 4, 48, 80
5, 115920, Note_on_c, 4, 48, 95
5, 116160, Note_off_c, 4, 62, 80
5, 116160, Note_off_c, 4, 48, 80
5, 116160, Note_on_c, 4, 62, 95
5, 116160, Note_on_c, 4, 48, 95
5, 116400, Note_off_c, 4, 62, 80
5, 116400, Note_off_c, 4, 48, 80
5, 116400, Note_on_c, 4, 62, 95
5, 116400, Note_on_c, 4, 48, 95
5, 116640, Note_off_c, 4, 62, 80
5, 116640, Note_off_c, 4, 48, 80
5, 116640, Note_on_c, 4, 48, 95
5, 116880, Note_off_c, 4, 55, 80
5, 116880, Note_off_c, 4, 62, 80
5, 116880, Note_off_c, 4, 48, 80
5, 116880, Control_c, 4, 7, 89
5, 116880, Control_c, 5, 7, 89
5, 116880, Note_on_c, 4, 62, 95
5, 116880, Note_on_c, 4, 59, 95
5, 116880, Note_on_c, 4, 48, 95
5, 116880, Note_on_c, 4, 47, 95
5, 117000, Control_c, 4, 7, 89
5, 117000, Control_c, 5, 7, 89
5, 117120, Control_c, 4, 7, 90
5, 117120, Control_c, 5, 7, 90
5, 117240, Control_c, 4, 7, 90
5, 117240, Control_c, 5, 7, 90
5, 117360, Control_c, 4, 7, 91
5, 117360, Control_c, 5, 7, 91
5, 117360, Note_off_c, 4, 62, 80
5, 117360, Note_off_c, 4, 59, 80
5, 117360, Note_off_c, 4, 48, 80
5, 117360, Note_off_c, 4, 47, 80
5, 117360, Note_on_c, 4, 62, 95
5, 117360, Note_on_c, 4, 59, 95
5, 117360, Note_on_c, 4, 48, 95
5, 117360, Note_on_c, 4, 47, 95
5, 117480, Control_c, 4, 7, 92
5, 117480, Control_c, 5, 7, 92
5, 117600, Control_c, 4, 7, 92
5, 117600, Control_c, 5, 7, 92
5, 117600, Note_off_c, 4, 62, 80
5, 117600, Note_off_c, 4, 59, 80
5, 117600, Note_off_c, 4, 48, 80
5, 117600, Note_off_c, 4, 47, 80
5, 117600, Note_on_c, 4, 62, 95
5, 117600, Note_on_c, 4, 59, 95
5, 117600, Note_on_c, 4, 48, 95
5, 117600, Note_on_c, 4, 47, 95
5, 117720, Control_c, 4, 7, 93
5, 117720, Control_c, 5, 7, 93
5, 117840, Control_c, 4, 7, 94
5, 117840, Control_c, 5, 7, 94
5, 117960, Control_c, 4, 7, 94
5, 117960, Control_c, 5, 7, 94
5, 118080, Control_c, 4, 7, 95
5, 118080, Control_c, 5, 7, 95
5, 118080, Note_off_c, 4, 62, 80
5, 118080, Note_off_c, 4, 59, 80
5, 118080, Note_off_c, 4, 48, 80
5, 118080, Note_off_c, 4, 47, 80
5, 118080, Note_on_c, 4, 62, 95
5, 118080, Note_on_c, 4, 59, 95
5, 118080, Note_on_c, 4, 48, 95
5, 118080, Note_on_c, 4, 47, 95
5, 118200, Control_c, 4, 7, 95
5, 118200, Control_c, 5, 7, 95
5, 118320, Control_c, 4, 7, 96
5, 118320, Control_c, 5, 7, 96
5, 118320, Note_off_c, 4, 62, 80
5, 118320, Note_off_c, 4, 59, 80
5, 118320, Note_off_c, 4, 48, 80
5, 118320, Note_off_c, 4, 47, 80
5, 118320, Note_on_c, 4, 62, 95
5, 118320, Note_on_c, 4, 59, 95
5, 118320, Note_on_c, 4, 48, 95
5, 118320, Note_on_c, 4, 47, 95
5, 118440, Control_c, 4, 7, 97
5, 118440, Control_c, 5, 7, 97
5, 118560, Control_c, 4, 7, 97
5, 118560, Control_c, 5, 7, 97
5, 118680, Control_c, 4, 7, 98
5, 118680, Control_c, 5, 7, 98
5, 118800, Control_c, 4, 7, 98
5, 118800, Control_c, 5, 7, 98
5, 118800, Note_off_c, 4, 62, 80
5, 118800, Note_off_c, 4, 59, 80
5, 118800, Note_off_c, 4, 48, 80
5, 118800, Note_off_c, 4, 47, 80
5, 118800, Note_on_c, 4, 62, 95
5, 118800, Note_on_c, 4, 59, 95
5, 118800, Note_on_c, 4, 48, 95
5, 118800, Note_on_c, 4, 47, 95
5, 118920, Control_c, 4, 7, 99
5, 118920, Control_c, 5, 7, 99
5, 119040, Control_c, 4, 7, 100
5, 119040, Control_c, 5, 7, 100
5, 119160, Control_c, 4, 7, 100
5, 119160, Control_c, 5, 7, 100
5, 119280, Control_c, 4, 7, 101
5, 119280, Control_c, 5, 7, 101
5, 119280, Note_off_c, 4, 62, 80
5, 119280, Note_off_c, 4, 59, 80
5, 119280, Note_off_c, 4, 48, 80
5, 119280, Note_off_c, 4, 47, 80
5, 119280, Note_on_c, 4, 62, 95
5, 119280, Note_on_c, 4, 59, 95
5, 119280, Note_on_c, 4, 48, 95
5, 119280, Note_on_c, 4, 47, 95
5, 119400, Control_c, 4, 7, 102
5, 119400, Control_c, 5, 7, 102
5, 119520, Control_c, 4, 7, 102
5, 119520, Control_c, 5, 7, 102
5, 119520, Note_off_c, 4, 62, 80
5, 119520, Note_off_c, 4, 59, 80
5, 119520, Note_off_c, 4, 48, 80
5, 119520, Note_off_c, 4, 47, 80
5, 119520, Note_on_c, 4, 62, 95
5, 119520, Note_on_c, 4, 59, 95
5, 119520, Note_on_c, 4, 48, 95
5, 119520, Note_on_c, 4, 47, 95
5, 119640, Control_c, 4, 7, 103
5, 119640, Control_c, 5, 7, 103
5, 119760, Control_c, 4, 7, 103
5, 119760, Control_c, 5, 7, 103
5, 119880, Control_c, 4, 7, 104
5, 119880, Control_c, 5, 7, 104
5, 120000, Control_c, 4, 7, 105
5, 120000, Control_c, 5, 7, 105
5, 120000, Note_off_c, 4, 62, 80
5, 120000, Note_off_c, 4, 59, 80
5, 120000, Note_off_c, 4, 48, 80
5, 120000, Note_off_c, 4, 47, 80
5, 120000, Note_on_c, 4, 62, 95
5, 120000, Note_on_c, 4, 59, 95
5, 120000, Note_on_c, 4, 48, 95
5, 120000, Note_on_c, 4, 47, 95
5, 120120, Control_c, 4, 7, 105
5, 120120, Control_c, 5, 7, 105
5, 120240, Control_c, 4, 7, 106
5, 120240, Control_c, 5, 7, 106
5, 120240, Note_off_c, 4, 62, 80
5, 120240, Note_off_c, 4, 59, 80
5, 120240, Note_off_c, 4, 48, 80
5, 120240, Note_off_c, 4, 47, 80
5, 120240, Note_on_c, 4, 62, 95
5, 120240, Note_on_c, 4, 59, 95
5, 120240, Note_on_c, 4, 48, 95
5, 120240, Note_on_c, 4, 47, 95
5, 120360, Control_c, 4, 7, 106
5, 120360, Control_c, 5, 7, 106
5, 120480, Control_c, 4, 7, 107
5, 120480, Control_c, 5, 7, 107
5, 120600, Control_c, 4, 7, 108
5, 120600, Control_c, 5, 7, 108
5, 120720, Control_c, 4, 7, 108
5, 120720, Control_c, 5, 7, 108
5, 120720, Note_off_c, 4, 62, 80
5, 120720, Note_off_c, 4, 59, 80
5, 120720, Note_off_c, 4, 48, 80
5, 120720, Note_off_c, 4, 47, 80
5, 120720, Note_on_c, 4, 62, 95
5, 120720, Note_on_c, 4, 59, 95
5, 120720, Note_on_c, 4, 48, 95
5, 120720, Note_on_c, 4, 47, 95
5, 120840, Control_c, 4, 7, 109
5, 120840, Control_c, 5, 7, 109
5, 120960, Control_c, 4, 7, 110
5, 120960, Control_c, 5, 7, 110
5, 121080, Control_c, 4, 7, 110
5, 121080, Control_c, 5, 7, 110
5, 121200, Control_c, 4, 7, 111
5, 121200, Control_c, 5, 7, 111
5, 121200, Note_off_c, 4, 62, 80
5, 121200, Note_off_c, 4, 59, 80
5, 121200, Note_off_c, 4, 48, 80
5, 121200, Note_off_c, 4, 47, 80
5, 121200, Note_on_c, 4, 62, 95
5, 121200, Note_on_c, 4, 59, 95
5, 121200, Note_on_c, 4, 48, 95
5, 121200, Note_on_c, 4, 47, 95
5, 121320, Control_c, 4, 7, 111
5, 121320, Control_c, 5, 7, 111
5, 121440, Control_c, 4, 7, 112
5, 121440, Control_c, 5, 7, 112
5, 121440, Note_off_c, 4, 62, 80
5, 121440, Note_off_c, 4, 59, 80
5, 121440, Note_off_c, 4, 48, 80
5, 121440, Note_off_c, 4, 47, 80
5, 121440, Note_on_c, 4, 62, 95
5, 121440, Note_on_c, 4, 59, 95
5, 121440, Note_on_c, 4, 48, 95
5, 121440, Note_on_c, 4, 47, 95
5, 121560, Control_c, 4, 7, 113
5, 121560, Control_c, 5, 7, 113
5, 121680, Control_c, 4, 7, 113
5, 121680, Control_c, 5, 7, 113
5, 121800, Control_c, 4, 7, 114
5, 121800, Control_c, 5, 7, 114
5, 121920, Control_c, 4, 7, 114
5, 121920, Control_c, 5, 7, 114
5, 121920, Note_off_c, 4, 62, 80
5, 121920, Note_off_c, 4, 59, 80
5, 121920, Note_off_c, 4, 48, 80
5, 121920, Note_off_c, 4, 47, 80
5, 121920, Note_on_c, 4, 62, 95
5, 121920, Note_on_c, 4, 59, 95
5, 121920, Note_on_c, 4, 48, 95
5, 121920, Note_on_c, 4, 47, 95
5, 122040, Control_c, 4, 7, 115
5, 122040, Control_c, 5, 7, 115
5, 122160, Control_c, 4, 7, 116
5, 122160, Control_c, 5, 7, 116
5, 122160, Note_off_c, 4, 62, 80
5, 122160, Note_off_c, 4, 59, 80
5, 122160, Note_off_c, 4, 48, 80
5, 122160, Note_off_c, 4, 47, 80
5, 122160, Note_on_c, 4, 60, 127
5, 122160, Note_on_c, 4, 59, 95
5, 122160, Note_on_c, 4, 48, 95
5, 122160, Note_on_c, 4, 47, 95
5, 122280, Control_c, 4, 7, 116
5, 122280, Control_c, 5, 7, 116
5, 122400, Control_c, 4, 7, 117
5, 122400, Control_c, 5, 7, 117
5, 122520, Control_c, 4, 7, 118
5, 122520, Control_c, 5, 7, 118
5, 122640, Control_c, 4, 7, 118
5, 122640, Control_c, 5, 7, 118
5, 122640, Note_off_c, 4, 60, 80
5, 122640, Note_off_c, 4, 59, 80
5, 122640, Note_off_c, 4, 48, 80
5, 122640, Note_off_c, 4, 47, 80
5, 122640, Note_on_c, 4, 60, 95
5, 122640, Note_on_c, 4, 59, 95
5, 122640, Note_on_c, 4, 48, 95
5, 122640, Note_on_c, 4, 47, 95
5, 122760, Control_c, 4, 7, 119
5, 122760, Control_c, 5, 7, 119
5, 122880, Control_c, 4, 7, 119
5, 122880, Control_c, 5, 7, 119
5, 123000, Control_c, 4, 7, 120
5, 123000, Control_c, 5, 7, 120
5, 123120, Control_c, 4, 7, 121
5, 123120, Control_c, 5, 7, 121
5, 123120, Note_off_c, 4, 60, 80
5, 123120, Note_off_c, 4, 59, 80
5, 123120, Note_off_c, 4, 48, 80
5, 123120, Note_off_c, 4, 47, 80
5, 123120, Note_on_c, 4, 62, 111
5, 123120, Note_on_c, 4, 59, 111
5, 123120, Note_on_c, 4, 48, 111
5, 123120, Note_on_c, 4, 47, 111
5, 123240, Control_c, 4, 7, 121
5, 123240, Control_c, 5, 7, 121
5, 123360, Control_c, 4, 7, 122
5, 123360, Control_c, 5, 7, 122
5, 123360, Note_off_c, 4, 62, 80
5, 123360, Note_off_c, 4, 59, 80
5, 123360, Note_off_c, 4, 48, 80
5, 123360, Note_off_c, 4, 47, 80
5, 123360, Note_on_c, 4, 62, 111
5, 123360, Note_on_c, 4, 59, 111
5, 123360, Note_on_c, 4, 48, 111
5, 123360, Note_on_c, 4, 47, 111
5, 123480, Control_c, 4, 7, 122
5, 123480, Control_c, 5, 7, 122
5, 123600, Control_c, 4, 7, 123
5, 123600, Control_c, 5, 7, 123
5, 123720, Control_c, 4, 7, 124
5, 123720, Control_c, 5, 7, 124
5, 123840, Control_c, 4, 7, 124
5, 123840, Control_c, 5, 7, 124
5, 123840, Note_off_c, 4, 62, 80
5, 123840, Note_off_c, 4, 59, 80
5, 123840, Note_off_c, 4, 48, 80
5, 123840, Note_off_c, 4, 47, 80
5, 123840, Note_on_c, 4, 62, 111
5, 123840, Note_on_c, 4, 59, 111
5, 123840, Note_on_c, 4, 48, 111
5, 123840, Note_on_c, 4, 47, 111
5, 123960, Control_c, 4, 7, 125
5, 123960, Control_c, 5, 7, 125
5, 124080, Control_c, 4, 7, 126
5, 124080, Control_c, 5, 7, 126
5, 124080, Note_off_c, 4, 62, 80
5, 124080, Note_off_c, 4, 59, 80
5, 124080, Note_off_c, 4, 48, 80
5, 124080, Note_off_c, 4, 47, 80
5, 124080, Note_on_c, 4, 62, 111
5, 124080, Note_on_c, 4, 59, 111
5, 124080, Note_on_c, 4, 48, 111
5, 124080, Note_on_c, 4, 47, 111
5, 124200, Control_c, 4, 7, 126
5, 124200, Control_c, 5, 7, 126
5, 124320, Control_c, 4, 7, 127
5, 124320, Control_c, 5, 7, 127
5, 124440, Control_c, 4, 7, 127
5, 124440, Control_c, 5, 7, 127
5, 124560, Control_c, 4, 7, 127
5, 124560, Control_c, 5, 7, 127
5, 124560, Note_off_c, 4, 62, 80
5, 124560, Note_off_c, 4, 59, 80
5, 124560, Note_off_c, 4, 48, 80
5, 124560, Note_off_c, 4, 47, 80
5, 124560, Control_c, 4, 10, 81
5, 124560, Control_c, 5, 10, 81
5, 124560, Note_on_c, 4, 62, 111
5, 124560, Note_on_c, 4, 59, 111
5, 124560, Note_on_c, 4, 48, 111
5, 124560, Note_on_c, 4, 47, 111
5, 124680, Control_c, 4, 10, 81
5, 124680, Control_c, 5, 10, 81
5, 124800, Control_c, 4, 10, 82
5, 124800, Control_c, 5, 10, 82
5, 124920, Control_c, 4, 10, 83
5, 124920, Control_c, 5, 10, 83
5, 125040, Control_c, 4, 10, 84
5, 125040, Control_c, 5, 10, 84
5, 125040, Note_off_c, 4, 62, 80
5, 125040, Note_off_c, 4, 59, 80
5, 125040, Note_off_c, 4, 48, 80
5, 125040, Note_off_c, 4, 47, 80
5, 125040, Note_on_c, 4, 62, 111
5, 125040, Note_on_c, 4, 59, 111
5, 125040, Note_on_c, 4, 48, 111
5, 125040, Note_on_c, 4, 47, 111
5, 125160, Control_c, 4, 10, 84
5, 125160, Control_c, 5, 10, 84
5, 125280, Control_c, 4, 10, 85
5, 125280, Control_c, 5, 10, 85
5, 125280, Note_off_c, 4, 62, 80
5, 125280, Note_off_c, 4, 59, 80
5, 125280, Note_off_c, 4, 48, 80
5, 125280, Note_off_c, 4, 47, 80
5, 125280, Note_on_c, 4, 62, 111
5, 125280, Note_on_c, 4, 59, 111
5, 125280, Note_on_c, 4, 48, 111
5, 125280, Note_on_c, 4, 47, 111
5, 125400, Control_c, 4, 10, 86
5, 125400, Control_c, 5, 10, 86
5, 125520, Control_c, 4, 10, 87
5, 125520, Control_c, 5, 10, 87
5, 125640, Control_c, 4, 10, 87
5, 125640, Control_c, 5, 10, 87
5, 125760, Control_c, 4, 10, 88
5, 125760, Control_c, 5, 10, 88
5, 125760, Note_off_c, 4, 62, 80
5, 125760, Note_off_c, 4, 59, 80
5, 125760, Note_off_c, 4, 48, 80
5, 125760, Note_off_c, 4, 47, 80
5, 125760, Note_on_c, 4, 62, 111
5, 125760, Note_on_c, 4, 59, 111
5, 125760, Note_on_c, 4, 48, 111
5, 125760, Note_on_c, 4, 47, 111
5, 125880, Control_c, 4, 10, 89
5, 125880, Control_c, 5, 10, 89
5, 126000, Control_c, 4, 10, 90
5, 126000, Control_c, 5, 10, 90
5, 126000, Note_off_c, 4, 62, 80
5, 126000, Note_off_c, 4, 59, 80
5, 126000, Note_off_c, 4, 48, 80
5, 126000, Note_off_c, 4, 47, 80
5, 126000, Note_on_c, 4, 62, 111
5, 126000, Note_on_c, 4, 59, 111
5, 126000, Note_on_c, 4, 48, 111
5, 126000, Note_on_c, 4, 47, 111
5, 126120, Control_c, 4, 10, 90
5, 126120, Control_c, 5, 10, 90
5, 126240, Control_c, 4, 10, 91
5, 126240, Control_c, 5, 10, 91
5, 126360, Control_c, 4, 10, 92
5, 126360, Control_c, 5, 10, 92
5, 126480, Control_c, 4, 10, 93
5, 126480, Control_c, 5, 10, 93
5, 126480, Note_off_c, 4, 62, 80
5, 126480, Note_off_c, 4, 59, 80
5, 126480, Note_off_c, 4, 48, 80
5, 126480, Note_off_c, 4, 47, 80
5, 126480, Note_on_c, 4, 62, 111
5, 126480, Note_on_c, 4, 59, 111
5, 126480, Note_on_c, 4, 48, 111
5, 126480, Note_on_c, 4, 47, 111
5, 126600, Control_c, 4, 10, 93
5, 126600, Control_c, 5, 10, 93
5, 126720, Control_c, 4, 10, 94
5, 126720, Control_c, 5, 10, 94
5, 126840, Control_c, 4, 10, 95
5, 126840, Control_c, 5, 10, 95
5, 126960, Control_c, 4, 10, 96
5, 126960, Control_c, 5, 10, 96
5, 126960, Note_off_c, 4, 62, 80
5, 126960, Note_off_c, 4, 59, 80
5, 126960, Note_off_c, 4, 48, 80
5, 126960, Note_off_c, 4, 47, 80
5, 126960, Note_on_c, 4, 62, 111
5, 126960, Note_on_c, 4, 59, 111
5, 126960, Note_on_c, 4, 48, 111
5, 126960, Note_on_c, 4, 47, 111
5, 127080, Control_c, 4, 10, 96
5, 127080, Control_c, 5, 10, 96
5, 127200, Control_c, 4, 10, 97
5, 127200, Control_c, 5, 10, 97
5, 127200, Note_off_c, 4, 62, 80
5, 127200, Note_off_c, 4, 59, 80
5, 127200, Note_off_c, 4, 48, 80
5, 127200, Note_off_c, 4, 47, 80
5, 127200, Note_on_c, 4, 62, 111
5, 127200, Note_on_c, 4, 59, 111
5, 127200, Note_on_c, 4, 48, 111
5, 127200, Note_on_c, 4, 47, 111
5, 127320, Control_c, 4, 10, 98
5, 127320, Control_c, 5, 10, 98
5, 127440, Control_c, 4, 10, 98
5, 127440, Control_c, 5, 10, 98
5, 127560, Control_c, 4, 10, 99
5, 127560, Control_c, 5, 10, 99
5, 127680, Control_c, 4, 10, 100
5, 127680, Control_c, 5, 10, 100
5, 127680, Note_off_c, 4, 62, 80
5, 127680, Note_off_c, 4, 59, 80
5, 127680, Note_off_c, 4, 48, 80
5, 127680, Note_off_c, 4, 47, 80
5, 127680, Note_on_c, 4, 62, 111
5, 127680, Note_on_c, 4, 59, 111
5, 127680, Note_on_c, 4, 48, 111
5, 127680, Note_on_c, 4, 47, 111
5, 127800, Control_c, 4, 10, 101
5, 127800, Control_c, 5, 10, 101
5, 127920, Control_c, 4, 10, 101
5, 127920, Control_c, 5, 10, 101
5, 127920, Note_off_c, 4, 62, 80
5, 127920, Note_off_c, 4, 59, 80
5, 127920, Note_off_c, 4, 48, 80
5, 127920, Note_off_c, 4, 47, 80
5, 127920, Note_on_c, 4, 62, 111
5, 127920, Note_on_c, 4, 59, 111
5, 127920, Note_on_c, 4, 48, 111
5, 127920, Note_on_c, 4, 47, 111
5, 128040, Control_c, 4, 10, 102
5, 128040, Control_c, 5, 10, 102
5, 128160, Control_c, 4, 10, 103
5, 128160, Control_c, 5, 10, 103
5, 128280, Control_c, 4, 10, 104
5, 128280, Control_c, 5, 10, 104
5, 128400, Control_c, 4, 10, 104
5, 128400, Control_c, 5, 10, 104
5, 128400, Note_off_c, 4, 62, 80
5, 128400, Note_off_c, 4, 59, 80
5, 128400, Note_off_c, 4, 48, 80
5, 128400, Note_off_c, 4, 47, 80
5, 128400, Note_on_c, 4, 62, 111
5, 128400, Note_on_c, 4, 59, 111
5, 128400, Note_on_c, 4, 48, 111
5, 128400, Note_on_c, 4, 47, 111
5, 128520, Control_c, 4, 10, 105
5, 128520, Control_c, 5, 10, 105
5, 128640, Control_c, 4, 10, 106
5, 128640, Control_c, 5, 10, 106
5, 128760, Control_c, 4, 10, 107
5, 128760, Control_c, 5, 10, 107
5, 128880, Control_c, 4, 10, 107
5, 128880, Control_c, 5, 10, 107
5, 128880, Note_off_c, 4, 62, 80
5, 128880, Note_off_c, 4, 59, 80
5, 128880, Note_off_c, 4, 48, 80
5, 128880, Note_off_c, 4, 47, 80
5, 128880, Note_on_c, 4, 62, 111
5, 128880, Note_on_c, 4, 59, 111
5, 128880, Note_on_c, 4, 48, 111
5, 128880, Note_on_c, 4, 47, 111
5, 129000, Control_c, 4, 10, 108
5, 129000, Control_c, 5, 10, 108
5, 129120, Control_c, 4, 10, 109
5, 129120, Control_c, 5, 10, 109
5, 129120, Note_off_c, 4, 62, 80
5, 129120, Note_off_c, 4, 59, 80
5, 129120, Note_off_c, 4, 48, 80
5, 129120, Note_off_c, 4, 47, 80
5, 129120, Note_on_c, 4, 62, 111
5, 129120, Note_on_c, 4, 59, 111
5, 129120, Note_on_c, 4, 48, 111
5, 129120, Note_on_c, 4, 47, 111
5, 129240, Control_c, 4, 10, 110
5, 129240, Control_c, 5, 10, 110
5, 129360, Control_c, 4, 10, 110
5, 129360, Control_c, 5, 10, 110
5, 129480, Control_c, 4, 10, 111
5, 129480, Control_c, 5, 10, 111
5, 129600, Control_c, 4, 10, 112
5, 129600, Control_c, 5, 10, 112
5, 129600, Note_off_c, 4, 62, 80
5, 129600, Note_off_c, 4, 59, 80
5, 129600, Note_off_c, 4, 48, 80
5, 129600, Note_off_c, 4, 47, 80
5, 129600, Note_on_c, 4, 62, 111
5, 129600, Note_on_c, 4, 59, 111
5, 129600, Note_on_c, 4, 48, 111
5, 129600, Note_on_c, 4, 47, 111
5, 129720, Control_c, 4, 10, 112
5, 129720, Control_c, 5, 10, 112
5, 129840, Control_c, 4, 10, 113
5, 129840, Control_c, 5, 10, 113
5, 129840, Note_off_c, 4, 62, 80
5, 129840, Note_off_c, 4, 59, 80
5, 129840, Note_off_c, 4, 48, 80
5, 129840, Note_off_c, 4, 47, 80
5, 129840, Note_on_c, 4, 62, 111
5, 129840, Note_on_c, 4, 59, 111
5, 129840, Note_on_c, 4, 48, 111
5, 129840, Note_on_c, 4, 47, 111
5, 129960, Control_c, 4, 10, 114
5, 129960, Control_c, 5, 10, 114
5, 130080, Control_c, 4, 10, 115
5, 130080, Control_c, 5, 10, 115
5, 130200, Control_c, 4, 10, 115
5, 130200, Control_c, 5, 10, 115
5, 130320, Control_c, 4, 10, 116
5, 130320, Control_c, 5, 10, 116
5, 130320, Note_off_c, 4, 62, 80
5, 130320, Note_off_c, 4, 59, 80
5, 130320, Note_off_c, 4, 48, 80
5, 130320, Note_off_c, 4, 47, 80
5, 130320, Note_on_c, 4, 62, 111
5, 130320, Note_on_c, 4, 59, 111
5, 130320, Note_on_c, 4, 48, 111
5, 130320, Note_on_c, 4, 47, 111
5, 130440, Control_c, 4, 10, 117
5, 130440, Control_c, 5, 10, 117
5, 130560, Control_c, 4, 10, 118
5, 130560, Control_c, 5, 10, 118
5, 130680, Control_c, 4, 10, 118
5, 130680, Control_c, 5, 10, 118
5, 130800, Control_c, 4, 10, 119
5, 130800, Control_c, 5, 10, 119
5, 130800, Note_off_c, 4, 62, 80
5, 130800, Note_off_c, 4, 59, 80
5, 130800, Note_off_c, 4, 48, 80
5, 130800, Note_off_c, 4, 47, 80
5, 130800, Note_on_c, 4, 62, 111
5, 130800, Note_on_c, 4, 59, 111
5, 130800, Note_on_c, 4, 48, 111
5, 130800, Note_on_c, 4, 47, 111
5, 130920, Control_c, 4, 10, 120
5, 130920, Control_c, 5, 10, 120
5, 131040, Control_c, 4, 10, 121
5, 131040, Control_c, 5, 10, 121
5, 131040, Note_off_c, 4, 62, 80
5, 131040, Note_off_c, 4, 59, 80
5, 131040, Note_off_c, 4, 48, 80
5, 131040, Note_off_c, 4, 47, 80
5, 131040, Note_on_c, 4, 62, 111
5, 131040, Note_on_c, 4, 59, 111
5, 131040, Note_on_c, 4, 48, 111
5, 131040, Note_on_c, 4, 47, 111
5, 131160, Control_c, 4, 10, 121
5, 131160, Control_c, 5, 10, 121
5, 131280, Control_c, 4, 10, 122
5, 131280, Control_c, 5, 10, 122
5, 131400, Control_c, 4, 10, 123
5, 131400, Control_c, 5, 10, 123
5, 131520, Control_c, 4, 10, 124
5, 131520, Control_c, 5, 10, 124
5, 131520, Note_off_c, 4, 62, 80
5, 131520, Note_off_c, 4, 59, 80
5, 131520, Note_off_c, 4, 48, 80
5, 131520, Note_off_c, 4, 47, 80
5, 131520, Note_on_c, 4, 62, 111
5, 131520, Note_on_c, 4, 59, 111
5, 131520, Note_on_c, 4, 48, 111
5, 131520, Note_on_c, 4, 47, 111
5, 131640, Control_c, 4, 10, 124
5, 131640, Control_c, 5, 10, 124
5, 131760, Control_c, 4, 10, 125
5, 131760, Control_c, 5, 10, 125
5, 131760, Note_off_c, 4, 62, 80
5, 131760, Note_off_c, 4, 59, 80
5, 131760, Note_off_c, 4, 48, 80
5, 131760, Note_off_c, 4, 47, 80
5, 131760, Note_on_c, 4, 62, 111
5, 131760, Note_on_c, 4, 59, 111
5, 131760, Note_on_c, 4, 48, 111
5, 131760, Note_on_c, 4, 47, 111
5, 131880, Control_c, 4, 10, 126
5, 131880, Control_c, 5, 10, 126
5, 132000, Control_c, 4, 10, 127
5, 132000, Control_c, 5, 10, 127
5, 132120, Control_c, 4, 10, 127
5, 132120, Control_c, 5, 10, 127
5, 132240, Control_c, 4, 10, 127
5, 132240, Control_c, 5, 10, 127
5, 132240, Note_off_c, 4, 62, 80
5, 132240, Note_off_c, 4, 59, 80
5, 132240, Note_off_c, 4, 48, 80
5, 132240, Note_off_c, 4, 47, 80
5, 132240, Note_on_c, 4, 62, 111
5, 132240, Note_on_c, 4, 59, 111
5, 132240, Note_on_c, 4, 48, 111
5, 132240, Note_on_c, 4, 47, 111
5, 132720, Note_off_c, 4, 62, 80
5, 132720, Note_off_c, 4, 59, 80
5, 132720, Note_off_c, 4, 48, 80
5, 132720, Note_off_c, 4, 47, 80
5, 132720, Note_on_c, 4, 62, 111
5, 132720, Note_on_c, 4, 59, 111
5, 132720, Note_on_c, 4, 48, 111
5, 132720, Note_on_c, 4, 47, 111
5, 132960, Note_off_c, 4, 62, 80
5, 132960, Note_off_c, 4, 59, 80
5, 132960, Note_off_c, 4, 48, 80
5, 132960, Note_off_c, 4, 47, 80
5, 132960, Note_on_c, 4, 62, 111
5, 132960, Note_on_c, 4, 59, 111
5, 132960, Note_on_c, 4, 48, 111
5, 132960, Note_on_c, 4, 47, 111
5, 133440, Note_off_c, 4, 62, 80
5, 133440, Note_off_c, 4, 59, 80
5, 133440, Note_off_c, 4, 48, 80
5, 133440, Note_off_c, 4, 47, 80
5, 133440, Note_on_c, 4, 62, 111
5, 133440, Note_on_c, 4, 59, 111
5, 133440, Note_on_c, 4, 48, 111
5, 133440, Note_on_c, 4, 47, 111
5, 133680, Note_off_c, 4, 62, 80
5, 133680, Note_off_c, 4, 59, 80
5, 133680, Note_off_c, 4, 48, 80
5, 133680, Note_off_c, 4, 47, 80
5, 133680, Note_on_c, 4, 62, 95
5, 133680, Note_on_c, 4, 59, 95
5, 133680, Note_on_c, 4, 48, 95
5, 133680, Note_on_c, 4, 47, 95
5, 134160, Note_off_c, 4, 62, 80
5, 134160, Note_off_c, 4, 59, 80
5, 134160, Note_off_c, 4, 48, 80
5, 134160, Note_off_c, 4, 47, 80
5, 134160, Note_on_c, 4, 62, 95
5, 134160, Note_on_c, 4, 59, 95
5, 134160, Note_on_c, 4, 48, 95
5, 134160, Note_on_c, 4, 47, 95
5, 134640, Note_off_c, 4, 62, 80
5, 134640, Note_off_c, 4, 59, 80
5, 134640, Note_off_c, 4, 48, 80
5, 134640, Note_off_c, 4, 47, 80
5, 134640, Note_on_c, 4, 62, 95
5, 134640, Note_on_c, 4, 59, 95
5, 134640, Note_on_c, 4, 48, 95
5, 134640, Note_on_c, 4, 47, 95
5, 134880, Note_off_c, 4, 62, 80
5, 134880, Note_off_c, 4, 59, 80
5, 134880, Note_off_c, 4, 48, 80
5, 134880, Note_off_c, 4, 47, 80
5, 134880, Note_on_c, 4, 62, 95
5, 134880, Note_on_c, 4, 59, 95
5, 134880, Note_on_c, 4, 48, 95
5, 134880, Note_on_c, 4, 47, 95
5, 135360, Note_off_c, 4, 62, 80
5, 135360, Note_off_c, 4, 59, 80
5, 135360, Note_off_c, 4, 48, 80
5, 135360, Note_off_c, 4, 47, 80
5, 135360, Note_on_c, 4, 62, 95
5, 135360, Note_on_c, 4, 59, 95
5, 135360, Note_on_c, 4, 48, 95
5, 135360, Note_on_c, 4, 47, 95
5, 135600, Note_off_c, 4, 62, 80
5, 135600, Note_off_c, 4, 59, 80
5, 135600, Note_off_c, 4, 48, 80
5, 135600, Note_off_c, 4, 47, 80
5, 135600, Note_on_c, 4, 62, 95
5, 135600, Note_on_c, 4, 59, 95
5, 135600, Note_on_c, 4, 48, 95
5, 135600, Note_on_c, 4, 47, 95
5, 136080, Note_off_c, 4, 62, 80
5, 136080, Note_off_c, 4, 59, 80
5, 136080, Note_off_c, 4, 48, 80
5, 136080, Note_off_c, 4, 47, 80
5, 136080, Note_on_c, 4, 62, 95
5, 136080, Note_on_c, 4, 59, 95
5, 136080, Note_on_c, 4, 48, 95
5, 136080, Note_on_c, 4, 47, 95
5, 136560, Note_off_c, 4, 62, 80
5, 136560, Note_off_c, 4, 59, 80
5, 136560, Note_off_c, 4, 48, 80
5, 136560, Note_off_c, 4, 47, 80
5, 136560, Note_on_c, 4, 62, 95
5, 136560, Note_on_c, 4, 59, 95
5, 136560, Note_on_c, 4, 48, 95
5, 136560, Note_on_c, 4, 47, 95
5, 136800, Note_off_c, 4, 62, 80
5, 136800, Note_off_c, 4, 59, 80
5, 136800, Note_off_c, 4, 48, 80
5, 136800, Note_off_c, 4, 47, 80
5, 136800, Note_on_c, 4, 62, 95
5, 136800, Note_on_c, 4, 59, 95
5, 136800, Note_on_c, 4, 48, 95
5, 136800, Note_on_c, 4, 47, 95
5, 137280, Note_off_c, 4, 62, 80
5, 137280, Note_off_c, 4, 59, 80
5, 137280, Note_off_c, 4, 48, 80
5, 137280, Note_off_c, 4, 47, 80
5, 137280, Note_on_c, 4, 62, 95
5, 137280, Note_on_c, 4, 59, 95
5, 137280, Note_on_c, 4, 48, 95
5, 137280, Note_on_c, 4, 47, 95
5, 137520, Note_off_c, 4, 62, 80
5, 137520, Note_off_c, 4, 59, 80
5, 137520, Note_off_c, 4, 48, 80
5, 137520, Note_off_c, 4, 47, 80
5, 137520, Note_on_c, 4, 62, 95
5, 137520, Note_on_c, 4, 59, 95
5, 137520, Note_on_c, 4, 48, 95
5, 137520, Note_on_c, 4, 47, 95
5, 138000, Note_off_c, 4, 62, 80
5, 138000, Note_off_c, 4, 59, 80
5, 138000, Note_off_c, 4, 48, 80
5, 138000, Note_off_c, 4, 47, 80
5, 138000, Note_on_c, 4, 62, 95
5, 138000, Note_on_c, 4, 59, 95
5, 138000, Note_on_c, 4, 48, 95
5, 138000, Note_on_c, 4, 47, 95
5, 138480, Note_off_c, 4, 62, 80
5, 138480, Note_off_c, 4, 59, 80
5, 138480, Note_off_c, 4, 48, 80
5, 138480, Note_off_c, 4, 47, 80
5, 138480, Note_on_c, 4, 62, 95
5, 138480, Note_on_c, 4, 59, 95
5, 138480, Note_on_c, 4, 48, 95
5, 138480, Note_on_c, 4, 47, 95
5, 138720, Note_off_c, 4, 62, 80
5, 138720, Note_off_c, 4, 59, 80
5, 138720, Note_off_c, 4, 48, 80
5, 138720, Note_off_c, 4, 47, 80
5, 138720, Note_on_c, 4, 62, 111
5, 138720, Note_on_c, 4, 59, 111
5, 138720, Note_on_c, 4, 48, 111
5, 138720, Note_on_c, 4, 47, 111
5, 139200, Note_off_c, 4, 62, 80
5, 139200, Note_off_c, 4, 59, 80
5, 139200, Note_off_c, 4, 48, 80
5, 139200, Note_off_c, 4, 47, 80
5, 139200, Note_on_c, 4, 62, 111
5, 139200, Note_on_c, 4, 59, 111
5, 139200, Note_on_c, 4, 48, 111
5, 139200, Note_on_c, 4, 47, 111
5, 139440, Note_off_c, 4, 62, 80
5, 139440, Note_off_c, 4, 59, 80
5, 139440, Note_off_c, 4, 48, 80
5, 139440, Note_off_c, 4, 47, 80
5, 139440, Note_on_c, 4, 62, 111
5, 139440, Note_on_c, 4, 59, 111
5, 139440, Note_on_c, 4, 48, 111
5, 139440, Note_on_c, 4, 47, 111
5, 139920, Note_off_c, 4, 62, 80
5, 139920, Note_off_c, 4, 59, 80
5, 139920, Note_off_c, 4, 48, 80
5, 139920, Note_off_c, 4, 47, 80
5, 139920, Note_on_c, 4, 62, 111
5, 139920, Note_on_c, 4, 59, 111
5, 139920, Note_on_c, 4, 48, 111
5, 139920, Note_on_c, 4, 47, 111
5, 140400, Note_off_c, 4, 62, 80
5, 140400, Note_off_c, 4, 59, 80
5, 140400, Note_off_c, 4, 48, 80
5, 140400, Note_off_c, 4, 47, 80
5, 140400, Note_on_c, 4, 62, 111
5, 140400, Note_on_c, 4, 59, 111
5, 140400, Note_on_c, 4, 48, 111
5, 140400, Note_on_c, 4, 47, 111
5, 140640, Note_off_c, 4, 62, 80
5, 140640, Note_off_c, 4, 59, 80
5, 140640, Note_off_c, 4, 48, 80
5, 140640, Note_off_c, 4, 47, 80
5, 140640, Note_on_c, 4, 62, 111
5, 140640, Note_on_c, 4, 59, 111
5, 140640, Note_on_c, 4, 48, 111
5, 140640, Note_on_c, 4, 47, 111
5, 141120, Note_off_c, 4, 62, 80
5, 141120, Note_off_c, 4, 59, 80
5, 141120, Note_off_c, 4, 48, 80
5, 141120, Note_off_c, 4, 47, 80
5, 141120, Note_on_c, 4, 62, 111
5, 141120, Note_on_c, 4, 59, 111
5, 141120, Note_on_c, 4, 48, 111
5, 141120, Note_on_c, 4, 47, 111
5, 141360, Note_off_c, 4, 62, 80
5, 141360, Note_off_c, 4, 59, 80
5, 141360, Note_off_c, 4, 48, 80
5, 141360, Note_off_c, 4, 47, 80
5, 141360, Note_on_c, 4, 62, 111
5, 141360, Note_on_c, 4, 59, 111
5, 141360, Note_on_c, 4, 48, 111
5, 141360, Note_on_c, 4, 47, 111
5, 141840, Note_off_c, 4, 62, 80
5, 141840, Note_off_c, 4, 59, 80
5, 141840, Note_off_c, 4, 48, 80
5, 141840, Note_off_c, 4, 47, 80
5, 141840, Note_on_c, 4, 62, 111
5, 141840, Note_on_c, 4, 59, 111
5, 141840, Note_on_c, 4, 48, 111
5, 141840, Note_on_c, 4, 47, 111
5, 142320, Note_off_c, 4, 62, 80
5, 142320, Note_off_c, 4, 59, 80
5, 142320, Note_off_c, 4, 48, 80
5, 142320, Note_off_c, 4, 47, 80
5, 142320, Note_on_c, 4, 62, 111
5, 142320, Note_on_c, 4, 59, 111
5, 142320, Note_on_c, 4, 48, 111
5, 142320, Note_on_c, 4, 47, 111
5, 142560, Note_off_c, 4, 62, 80
5, 142560, Note_off_c, 4, 59, 80
5, 142560, Note_off_c, 4, 48, 80
5, 142560, Note_off_c, 4, 47, 80
5, 142560, Note_on_c, 4, 62, 111
5, 142560, Note_on_c, 4, 59, 111
5, 142560, Note_on_c, 4, 48, 111
5, 142560, Note_on_c, 4, 47, 111
5, 143040, Note_off_c, 4, 62, 80
5, 143040, Note_off_c, 4, 59, 80
5, 143040, Note_off_c, 4, 48, 80
5, 143040, Note_off_c, 4, 47, 80
5, 143040, Note_on_c, 4, 62, 111
5, 143040, Note_on_c, 4, 59, 111
5, 143040, Note_on_c, 4, 48, 111
5, 143040, Note_on_c, 4, 47, 111
5, 143280, Note_off_c, 4, 62, 80
5, 143280, Note_off_c, 4, 59, 80
5, 143280, Note_off_c, 4, 48, 80
5, 143280, Note_off_c, 4, 47, 80
5, 143280, Note_on_c, 4, 62, 111
5, 143280, Note_on_c, 4, 59, 111
5, 143280, Note_on_c, 4, 48, 111
5, 143280, Note_on_c, 4, 47, 111
5, 143760, Note_off_c, 4, 62, 80
5, 143760, Note_off_c, 4, 59, 80
5, 143760, Note_off_c, 4, 48, 80
5, 143760, Note_off_c, 4, 47, 80
5, 143760, Note_on_c, 4, 62, 111
5, 143760, Note_on_c, 4, 59, 111
5, 143760, Note_on_c, 4, 48, 111
5, 143760, Note_on_c, 4, 47, 111
5, 144240, Note_off_c, 4, 62, 80
5, 144240, Note_off_c, 4, 59, 80
5, 144240, Note_off_c, 4, 48, 80
5, 144240, Note_off_c, 4, 47, 80
5, 144240, Note_on_c, 4, 62, 111
5, 144240, Note_on_c, 4, 59, 111
5, 144240, Note_on_c, 4, 48, 111
5, 144240, Note_on_c, 4, 47, 111
5, 144480, Note_off_c, 4, 62, 80
5, 144480, Note_off_c, 4, 59, 80
5, 144480, Note_off_c, 4, 48, 80
5, 144480, Note_off_c, 4, 47, 80
5, 144480, Note_on_c, 4, 62, 111
5, 144480, Note_on_c, 4, 59, 111
5, 144480, Note_on_c, 4, 48, 111
5, 144480, Note_on_c, 4, 47, 111
5, 144960, Note_off_c, 4, 62, 80
5, 144960, Note_off_c, 4, 59, 80
5, 144960, Note_off_c, 4, 48, 80
5, 144960, Note_off_c, 4, 47, 80
5, 144960, Note_on_c, 4, 62, 111
5, 144960, Note_on_c, 4, 59, 111
5, 144960, Note_on_c, 4, 48, 111
5, 144960, Note_on_c, 4, 47, 111
5, 145200, Note_off_c, 4, 62, 80
5, 145200, Note_off_c, 4, 59, 80
5, 145200, Note_off_c, 4, 48, 80
5, 145200, Note_off_c, 4, 47, 80
5, 145200, Note_on_c, 4, 62, 111
5, 145200, Note_on_c, 4, 59, 111
5, 145200, Note_on_c, 4, 48, 111
5, 145200, Note_on_c, 4, 47, 111
5, 145680, Note_off_c, 4, 62, 80
5, 145680, Note_off_c, 4, 59, 80
5, 145680, Note_off_c, 4, 48, 80
5, 145680, Note_off_c, 4, 47, 80
5, 145680, Note_on_c, 4, 62, 111
5, 145680, Note_on_c, 4, 59, 111
5, 145680, Note_on_c, 4, 48, 111
5, 145680, Note_on_c, 4, 47, 111
5, 146160, Note_off_c, 4, 62, 80
5, 146160, Note_off_c, 4, 59, 80
5, 146160, Note_off_c, 4, 48, 80
5, 146160, Note_off_c, 4, 47, 80
5, 146160, Note_on_c, 4, 62, 111
5, 146160, Note_on_c, 4, 59, 111
5, 146160, Note_on_c, 4, 48, 111
5, 146160, Note_on_c, 4, 47, 111
5, 146400, Note_off_c, 4, 62, 80
5, 146400, Note_off_c, 4, 59, 80
5, 146400, Note_off_c, 4, 48, 80
5, 146400, Note_off_c, 4, 47, 80
5, 146400, Note_on_c, 4, 62, 111
5, 146400, Note_on_c, 4, 59, 111
5, 146400, Note_on_c, 4, 48, 111
5, 146400, Note_on_c, 4, 47, 111
5, 146880, Note_off_c, 4, 62, 80
5, 146880, Note_off_c, 4, 59, 80
5, 146880, Note_off_c, 4, 48, 80
5, 146880, Note_off_c, 4, 47, 80
5, 146880, Note_on_c, 4, 62, 111
5, 146880, Note_on_c, 4, 59, 111
5, 146880, Note_on_c, 4, 48, 111
5, 146880, Note_on_c, 4, 47, 111
5, 147120, Note_off_c, 4, 62, 80
5, 147120, Note_off_c, 4, 59, 80
5, 147120, Note_off_c, 4, 48, 80
5, 147120, Note_off_c, 4, 47, 80
5, 147120, Note_on_c, 4, 62, 111
5, 147120, Note_on_c, 4, 59, 111
5, 147120, Note_on_c, 4, 48, 111
5, 147120, Note_on_c, 4, 47, 111
5, 147600, Note_off_c, 4, 62, 80
5, 147600, Note_off_c, 4, 59, 80
5, 147600, Note_off_c, 4, 48, 80
5, 147600, Note_off_c, 4, 47, 80
5, 147600, Note_on_c, 4, 62, 111
5, 147600, Note_on_c, 4, 59, 111
5, 147600, Note_on_c, 4, 48, 111
5, 147600, Note_on_c, 4, 47, 111
5, 148080, Note_off_c, 4, 62, 80
5, 148080, Note_off_c, 4, 59, 80
5, 148080, Note_off_c, 4, 48, 80
5, 148080, Note_off_c, 4, 47, 80
5, 148080, Note_on_c, 4, 62, 111
5, 148080, Note_on_c, 4, 59, 111
5, 148080, Note_on_c, 4, 48, 111
5, 148080, Note_on_c, 4, 47, 111
5, 148320, Note_off_c, 4, 62, 80
5, 148320, Note_off_c, 4, 59, 80
5, 148320, Note_off_c, 4, 48, 80
5, 148320, Note_off_c, 4, 47, 80
5, 148320, Note_on_c, 4, 62, 127
5, 148320, Note_on_c, 4, 59, 127
5, 148320, Note_on_c, 4, 48, 127
5, 148320, Note_on_c, 4, 47, 127
5, 148800, Note_off_c, 4, 62, 80
5, 148800, Note_off_c, 4, 59, 80
5, 148800, Note_off_c, 4, 48, 80
5, 148800, Note_off_c, 4, 47, 80
5, 148800, Note_on_c, 4, 62, 127
5, 148800, Note_on_c, 4, 59, 127
5, 148800, Note_on_c, 4, 48, 127
5, 148800, Note_on_c, 4, 47, 127
5, 149040, Note_off_c, 4, 62, 80
5, 149040, Note_off_c, 4, 59, 80
5, 149040, Note_off_c, 4, 48, 80
5, 149040, Note_off_c, 4, 47, 80
5, 149040, Note_on_c, 4, 62, 127
5, 149040, Note_on_c, 4, 59, 127
5, 149040, Note_on_c, 4, 48, 127
5, 149040, Note_on_c, 4, 47, 127
5, 149520, Note_off_c, 4, 62, 80
5, 149520, Note_off_c, 4, 59, 80
5, 149520, Note_off_c, 4, 48, 80
5, 149520, Note_off_c, 4, 47, 80
5, 149520, Note_on_c, 4, 62, 127
5, 149520, Note_on_c, 4, 59, 127
5, 149520, Note_on_c, 4, 48, 127
5, 149520, Note_on_c, 4, 47, 127
5, 150000, Note_off_c, 4, 62, 80
5, 150000, Note_off_c, 4, 59, 80
5, 150000, Note_off_c, 4, 48, 80
5, 150000, Note_off_c, 4, 47, 80
5, 150000, Note_on_c, 4, 62, 111
5, 150000, Note_on_c, 4, 59, 111
5, 150000, Note_on_c, 4, 48, 111
5, 150000, Note_on_c, 4, 47, 111
5, 150240, Note_off_c, 4, 62, 80
5, 150240, Note_off_c, 4, 59, 80
5, 150240, Note_off_c, 4, 48, 80
5, 150240, Note_off_c, 4, 47, 80
5, 150240, Note_on_c, 4, 62, 111
5, 150240, Note_on_c, 4, 59, 111
5, 150240, Note_on_c, 4, 48, 111
5, 150240, Note_on_c, 4, 47, 111
5, 150720, Note_off_c, 4, 62, 80
5, 150720, Note_off_c, 4, 59, 80
5, 150720, Note_off_c, 4, 48, 80
5, 150720, Note_off_c, 4, 47, 80
5, 150720, Note_on_c, 4, 62, 111
5, 150720, Note_on_c, 4, 59, 111
5, 150720, Note_on_c, 4, 48, 111
5, 150720, Note_on_c, 4, 47, 111
5, 150960, Note_off_c, 4, 62, 80
5, 150960, Note_off_c, 4, 59, 80
5, 150960, Note_off_c, 4, 48, 80
5, 150960, Note_off_c, 4, 47, 80
5, 150960, Note_on_c, 4, 62, 111
5, 150960, Note_on_c, 4, 59, 111
5, 150960, Note_on_c, 4, 48, 111
5, 150960, Note_on_c, 4, 47, 111
5, 151440, Note_off_c, 4, 62, 80
5, 151440, Note_off_c, 4, 59, 80
5, 151440, Note_off_c, 4, 48, 80
5, 151440, Note_off_c, 4, 47, 80
5, 151440, Note_on_c, 4, 62, 111
5, 151440, Note_on_c, 4, 59, 111
5, 151440, Note_on_c, 4, 48, 111
5, 151440, Note_on_c, 4, 47, 111
5, 151920, Note_off_c, 4, 62, 80
5, 151920, Note_off_c, 4, 59, 80
5, 151920, Note_off_c, 4, 48, 80
5, 151920, Note_off_c, 4, 47, 80
5, 151920, Note_on_c, 4, 62, 111
5, 151920, Note_on_c, 4, 59, 111
5, 151920, Note_on_c, 4, 48, 111
5, 151920, Note_on_c, 4, 47, 111
5, 152160, Note_off_c, 4, 62, 80
5, 152160, Note_off_c, 4, 59, 80
5, 152160, Note_off_c, 4, 48, 80
5, 152160, Note_off_c, 4, 47, 80
5, 152160, Note_on_c, 4, 62, 111
5, 152160, Note_on_c, 4, 59, 111
5, 152160, Note_on_c, 4, 48, 111
5, 152160, Note_on_c, 4, 47, 111
5, 152640, Note_off_c, 4, 62, 80
5, 152640, Note_off_c, 4, 59, 80
5, 152640, Note_off_c, 4, 48, 80
5, 152640, Note_off_c, 4, 47, 80
5, 152640, Note_on_c, 4, 62, 111
5, 152640, Note_on_c, 4, 59, 111
5, 152640, Note_on_c, 4, 48, 111
5, 152640, Note_on_c, 4, 47, 111
5, 153360, Note_off_c, 4, 62, 80
5, 153360, Note_off_c, 4, 59, 80
5, 153360, Note_off_c, 4, 48, 80
5, 153360, Note_off_c, 4, 47, 80
5, 153360, Note_on_c, 4, 62, 111
5, 153360, Note_on_c, 4, 59, 111
5, 153360, Note_on_c, 4, 48, 111
5, 153360, Note_on_c, 4, 47, 111
5, 155520, Note_off_c, 4, 62, 80
5, 155520, Note_off_c, 4, 59, 80
5, 155520, Note_off_c, 4, 48, 80
5, 155520, Note_off_c, 4, 47, 80
5, 155520, End_track
6, 0, Start_track
6, 0, Title_t, "Metalophone"
6, 0, Control_c, 10, 100, 0
6, 0, Control_c, 10, 101, 0
6, 0, Control_c, 10, 6, 12
6, 0, Pitch_bend_c, 10, 8192
6, 0, Control_c, 10, 101, 0
6, 0, Control_c, 10, 100, 1
6, 0, Control_c, 10, 6, 64
6, 0, Control_c, 10, 38, 0
6, 0, Control_c, 10, 101, 127
6, 0, Control_c, 10, 100, 127
6, 0, Control_c, 8, 100, 0
6, 0, Control_c, 8, 101, 0
6, 0, Control_c, 8, 6, 12
6, 0, Pitch_bend_c, 8, 8192
6, 0, Control_c, 8, 101, 0
6, 0, Control_c, 8, 100, 1
6, 0, Control_c, 8, 6, 64
6, 0, Control_c, 8, 38, 0
6, 0, Control_c, 8, 101, 127
6, 0, Control_c, 8, 100, 127
6, 0, Control_c, 10, 101, 0
6, 0, Control_c, 10, 100, 2
6, 0, Control_c, 10, 6, 64
6, 0, Control_c, 10, 101, 127
6, 0, Control_c, 10, 100, 127
6, 0, Control_c, 8, 101, 0
6, 0, Control_c, 8, 100, 2
6, 0, Control_c, 8, 6, 64
6, 0, Control_c, 8, 101, 127
6, 0, Control_c, 8, 100, 127
6, 0, Program_c, 10, 10
6, 0, Program_c, 8, 10
6, 0, Control_c, 10, 0, 0
6, 0, Control_c, 8, 0, 0
6, 0, Control_c, 10, 7, 104
6, 0, Control_c, 8, 7, 104
6, 0, Control_c, 10, 10, 40
6, 0, Control_c, 8, 10, 40
6, 0, Control_c, 10, 93, 0
6, 0, Control_c, 8, 93, 0
6, 0, Control_c, 10, 91, 0
6, 0, Control_c, 8, 91, 0
6, 0, Control_c, 10, 92, 0
6, 0, Control_c, 8, 92, 0
6, 0, Control_c, 10, 95, 0
6, 0, Control_c, 8, 95, 0
6, 71040, Note_on_c, 8, 67, 95
6, 72480, Note_off_c, 8, 67, 80
6, 72480, Note_on_c, 8, 64, 95
6, 72720, Note_on_c, 8, 71, 95
6, 74400, Note_off_c, 8, 64, 80
6, 74400, Note_on_c, 8, 67, 95
6, 74640, Note_off_c, 8, 71, 80
6, 74640, Note_on_c, 8, 74, 95
6, 75360, Note_off_c, 8, 67, 80
6, 75360, Note_on_c, 8, 71, 95
6, 75600, Note_off_c, 8, 74, 80
6, 75600, Note_on_c, 8, 76, 95
6, 77280, Note_off_c, 8, 71, 80
6, 77280, Note_off_c, 8, 76, 80
6, 77280, Note_on_c, 8, 71, 95
6, 77280, Note_on_c, 8, 59, 95
6, 77520, Note_on_c, 8, 67, 95
6, 79200, Note_off_c, 8, 71, 80
6, 79200, Note_off_c, 8, 59, 80
6, 79200, Note_off_c, 8, 67, 80
6, 79200, Note_on_c, 8, 64, 95
6, 79440, Note_on_c, 8, 71, 95
6, 80160, Note_off_c, 8, 64, 80
6, 80160, Note_on_c, 8, 67, 95
6, 80400, Note_off_c, 8, 71, 80
6, 80400, Note_on_c, 8, 74, 95
6, 82080, Note_off_c, 8, 67, 80
6, 82080, Note_on_c, 8, 72, 95
6, 82320, Note_off_c, 8, 74, 80
6, 82320, Note_on_c, 8, 71, 95
6, 84000, Note_off_c, 8, 72, 80
6, 84000, Note_off_c, 8, 71, 80
6, 84000, Note_on_c, 8, 69, 95
6, 84240, Note_on_c, 8, 67, 95
6, 84960, Note_off_c, 8, 67, 80
6, 84960, Note_on_c, 8, 66, 95
6, 85200, Note_off_c, 8, 69, 80
6, 85200, Note_on_c, 8, 74, 95
6, 86880, Note_off_c, 8, 66, 80
6, 86880, Note_on_c, 8, 72, 95
6, 87120, Note_off_c, 8, 74, 80
6, 87120, Note_on_c, 8, 71, 95
6, 88800, Note_off_c, 8, 72, 80
6, 88800, Note_off_c, 8, 71, 80
6, 88800, Note_on_c, 8, 69, 95
6, 89040, Note_on_c, 8, 67, 95
6, 89760, Note_on_c, 8, 66, 95
6, 90000, Note_off_c, 8, 69, 80
6, 90000, Note_on_c, 8, 74, 95
6, 91680, Note_off_c, 8, 67, 80
6, 91680, Note_off_c, 8, 66, 80
6, 91680, Note_on_c, 8, 72, 95
6, 91920, Note_off_c, 8, 74, 80
6, 91920, Note_on_c, 8, 71, 95
6, 93600, Note_off_c, 8, 72, 80
6, 93600, Note_off_c, 8, 71, 80
6, 93600, Note_on_c, 8, 69, 95
6, 93840, Note_on_c, 8, 67, 95
6, 94320, Note_on_c, 8, 66, 95
6, 94800, Note_off_c, 8, 69, 80
6, 94800, Note_on_c, 8, 74, 95
6, 96000, Note_off_c, 8, 67, 80
6, 96480, Note_off_c, 8, 66, 80
6, 96480, Note_on_c, 8, 72, 95
6, 96720, Note_off_c, 8, 74, 80
6, 96720, Note_on_c, 8, 71, 95
6, 98400, Note_off_c, 8, 72, 80
6, 98400, Note_off_c, 8, 71, 80
6, 98400, Note_on_c, 8, 69, 95
6, 98640, Note_on_c, 8, 67, 95
6, 99360, Note_off_c, 8, 67, 80
6, 99360, Note_on_c, 8, 62, 95
6, 99600, Note_off_c, 8, 69, 80
6, 99600, Note_off_c, 8, 62, 80
6, 99600, Note_on_c, 8, 64, 95
6, 99840, Note_off_c, 8, 64, 80
6, 122880, Control_c, 8, 7, 80
6, 122880, Control_c, 10, 7, 80
6, 122880, Control_c, 8, 10, 40
6, 122880, Control_c, 10, 10, 40
6, 124800, Note_on_c, 8, 67, 95
6, 126240, Note_off_c, 8, 67, 80
6, 126240, Note_on_c, 8, 64, 95
6, 126480, Note_on_c, 8, 71, 95
6, 128160, Note_off_c, 8, 64, 80
6, 128160, Note_on_c, 8, 67, 95
6, 128400, Note_off_c, 8, 71, 80
6, 128400, Note_on_c, 8, 74, 95
6, 129120, Note_off_c, 8, 67, 80
6, 129120, Note_on_c, 8, 71, 95
6, 129360, Note_off_c, 8, 74, 80
6, 129360, Note_on_c, 8, 76, 95
6, 130560, Control_c, 8, 7, 88
6, 130560, Control_c, 10, 7, 88
6, 130560, Control_c, 8, 10, 32
6, 130560, Control_c, 10, 10, 32
6, 131040, Note_off_c, 8, 71, 80
6, 131040, Note_off_c, 8, 76, 80
6, 131040, Note_on_c, 8, 71, 95
6, 131040, Note_on_c, 8, 59, 95
6, 131280, Note_on_c, 8, 67, 95
6, 132960, Note_off_c, 8, 71, 80
6, 132960, Note_off_c, 8, 59, 80
6, 132960, Note_off_c, 8, 67, 80
6, 132960, Note_on_c, 8, 64, 95
6, 133200, Note_on_c, 8, 71, 95
6, 133920, Note_off_c, 8, 64, 80
6, 133920, Note_on_c, 8, 67, 95
6, 134160, Note_off_c, 8, 71, 80
6, 134160, Note_on_c, 8, 74, 95
6, 135840, Note_off_c, 8, 67, 80
6, 135840, Note_on_c, 8, 72, 95
6, 136080, Note_off_c, 8, 74, 80
6, 136080, Note_on_c, 8, 71, 95
6, 136320, Control_c, 8, 7, 96
6, 136320, Control_c, 10, 7, 96
6, 136320, Control_c, 8, 10, 24
6, 136320, Control_c, 10, 10, 24
6, 137760, Note_off_c, 8, 72, 80
6, 137760, Note_off_c, 8, 71, 80
6, 137760, Note_on_c, 8, 69, 95
6, 138000, Note_on_c, 8, 67, 95
6, 138720, Note_off_c, 8, 67, 80
6, 138720, Note_on_c, 8, 66, 95
6, 138960, Note_off_c, 8, 69, 80
6, 138960, Note_on_c, 8, 74, 95
6, 140640, Note_off_c, 8, 66, 80
6, 140640, Note_on_c, 8, 72, 95
6, 140880, Note_off_c, 8, 74, 80
6, 140880, Note_on_c, 8, 71, 95
6, 142080, Control_c, 8, 7, 104
6, 142080, Control_c, 10, 7, 104
6, 142080, Control_c, 8, 10, 16
6, 142080, Control_c, 10, 10, 16
6, 142560, Note_off_c, 8, 72, 80
6, 142560, Note_off_c, 8, 71, 80
6, 142560, Note_on_c, 8, 69, 95
6, 142800, Note_on_c, 8, 67, 95
6, 143520, Note_on_c, 8, 66, 95
6, 143760, Note_off_c, 8, 69, 80
6, 143760, Note_on_c, 8, 74, 95
6, 145440, Note_off_c, 8, 67, 80
6, 145440, Note_off_c, 8, 66, 80
6, 145440, Note_on_c, 8, 72, 95
6, 145680, Note_off_c, 8, 74, 80
6, 145680, Note_on_c, 8, 71, 95
6, 147360, Note_off_c, 8, 72, 80
6, 147360, Note_off_c, 8, 71, 80
6, 147360, Note_on_c, 8, 69, 95
6, 147600, Note_on_c, 8, 67, 95
6, 147840, Control_c, 8, 7, 112
6, 147840, Control_c, 10, 7, 112
6, 147840, Control_c, 8, 10, 0
6, 147840, Control_c, 10, 10, 0
6, 148080, Note_on_c, 8, 66, 95
6, 148560, Note_off_c, 8, 69, 80
6, 148560, Note_on_c, 8, 74, 95
6, 149760, Note_off_c, 8, 67, 80
6, 150240, Note_off_c, 8, 66, 80
6, 150240, Note_on_c, 8, 72, 95
6, 150480, Note_off_c, 8, 74, 80
6, 150480, Note_on_c, 8, 71, 95
6, 152160, Note_off_c, 8, 72, 80
6, 152160, Note_off_c, 8, 71, 80
6, 152160, Note_on_c, 8, 69, 95
6, 152400, Note_on_c, 8, 67, 95
6, 153120, Note_off_c, 8, 67, 80
6, 153120, Note_on_c, 8, 62, 95
6, 153360, Note_off_c, 8, 69, 80
6, 153360, Note_off_c, 8, 62, 80
6, 153360, Note_on_c, 8, 64, 95
6, 155520, Note_off_c, 8, 64, 80
6, 155520, End_track
7, 0, Start_track
7, 0, Title_t, "Samples"
7, 0, Control_c, 3, 100, 0
7, 0, Control_c, 3, 101, 0
7, 0, Control_c, 3, 6, 12
7, 0, Pitch_bend_c, 3, 8192
7, 0, Control_c, 3, 101, 0
7, 0, Control_c, 3, 100, 1
7, 0, Control_c, 3, 6, 64
7, 0, Control_c, 3, 38, 0
7, 0, Control_c, 3, 101, 127
7, 0, Control_c, 3, 100, 127
7, 0, Control_c, 2, 100, 0
7, 0, Control_c, 2, 101, 0
7, 0, Control_c, 2, 6, 12
7, 0, Pitch_bend_c, 2, 8192
7, 0, Control_c, 2, 101, 0
7, 0, Control_c, 2, 100, 1
7, 0, Control_c, 2, 6, 64
7, 0, Control_c, 2, 38, 0
7, 0, Control_c, 2, 101, 127
7, 0, Control_c, 2, 100, 127
7, 0, Control_c, 3, 101, 0
7, 0, Control_c, 3, 100, 2
7, 0, Control_c, 3, 6, 64
7, 0, Control_c, 3, 101, 127
7, 0, Control_c, 3, 100, 127
7, 0, Control_c, 2, 101, 0
7, 0, Control_c, 2, 100, 2
7, 0, Control_c, 2, 6, 64
7, 0, Control_c, 2, 101, 127
7, 0, Control_c, 2, 100, 127
7, 0, Program_c, 3, 89
7, 0, Program_c, 2, 89
7, 0, Control_c, 3, 0, 0
7, 0, Control_c, 2, 0, 0
7, 0, Control_c, 3, 7, 96
7, 0, Control_c, 2, 7, 96
7, 0, Control_c, 3, 10, 80
7, 0, Control_c, 2, 10, 80
7, 0, Control_c, 3, 93, 0
7, 0, Control_c, 2, 93, 0
7, 0, Control_c, 3, 91, 0
7, 0, Control_c, 2, 91, 0
7, 0, Control_c, 3, 92, 0
7, 0, Control_c, 2, 92, 0
7, 0, Control_c, 3, 95, 0
7, 0, Control_c, 2, 95, 0
7, 0, Note_on_c, 2, 60, 95
7, 0, Note_on_c, 2, 48, 95
7, 2880, Note_off_c, 2, 60, 80
7, 2880, Note_off_c, 2, 48, 80
7, 2880, Note_on_c, 2, 67, 95
7, 2880, Note_on_c, 2, 55, 95
7, 5760, Note_off_c, 2, 67, 80
7, 5760, Note_off_c, 2, 55, 80
7, 5760, Note_on_c, 2, 60, 95
7, 5760, Note_on_c, 2, 48, 95
7, 10080, Note_on_c, 2, 67, 95
7, 10080, Note_on_c, 2, 55, 95
7, 11520, Note_off_c, 2, 48, 80
7, 13440, Note_off_c, 2, 60, 80
7, 13440, Note_off_c, 2, 67, 80
7, 13440, Note_off_c, 2, 55, 80
7, 13440, Note_on_c, 2, 60, 95
7, 13440, Note_on_c, 2, 48, 95
7, 16320, Note_off_c, 2, 60, 80
7, 16320, Note_off_c, 2, 48, 80
7, 16320, Note_on_c, 2, 67, 95
7, 16320, Note_on_c, 2, 55, 95
7, 17280, Control_c, 2, 7, 95
7, 17280, Control_c, 3, 7, 95
7, 17400, Control_c, 2, 7, 94
7, 17400, Control_c, 3, 7, 94
7, 17520, Control_c, 2, 7, 93
7, 17520, Control_c, 3, 7, 93
7, 17640, Control_c, 2, 7, 92
7, 17640, Control_c, 3, 7, 92
7, 17760, Control_c, 2, 7, 91
7, 17760, Control_c, 3, 7, 91
7, 17880, Control_c, 2, 7, 90
7, 17880, Control_c, 3, 7, 90
7, 18000, Control_c, 2, 7, 90
7, 18000, Control_c, 3, 7, 90
7, 18120, Control_c, 2, 7, 89
7, 18120, Control_c, 3, 7, 89
7, 18240, Control_c, 2, 7, 88
7, 18240, Control_c, 3, 7, 88
7, 18360, Control_c, 2, 7, 87
7, 18360, Control_c, 3, 7, 87
7, 18480, Control_c, 2, 7, 86
7, 18480, Control_c, 3, 7, 86
7, 18600, Control_c, 2, 7, 85
7, 18600, Control_c, 3, 7, 85
7, 18720, Control_c, 2, 7, 84
7, 18720, Control_c, 3, 7, 84
7, 18840, Control_c, 2, 7, 83
7, 18840, Control_c, 3, 7, 83
7, 18960, Control_c, 2, 7, 82
7, 18960, Control_c, 3, 7, 82
7, 19080, Control_c, 2, 7, 81
7, 19080, Control_c, 3, 7, 81
7, 19200, Note_off_c, 2, 67, 80
7, 19200, Note_off_c, 2, 55, 80
7, 19200, Control_c, 2, 7, 80
7, 19200, Control_c, 3, 7, 80
7, 19200, Note_on_c, 2, 60, 95
7, 19200, Note_on_c, 2, 48, 95
7, 19320, Control_c, 2, 7, 79
7, 19320, Control_c, 3, 7, 79
7, 19440, Control_c, 2, 7, 79
7, 19440, Control_c, 3, 7, 79
7, 19560, Control_c, 2, 7, 78
7, 19560, Control_c, 3, 7, 78
7, 19680, Control_c, 2, 7, 77
7, 19680, Control_c, 3, 7, 77
7, 19800, Control_c, 2, 7, 76
7, 19800, Control_c, 3, 7, 76
7, 19920, Control_c, 2, 7, 75
7, 19920, Control_c, 3, 7, 75
7, 20040, Control_c, 2, 7, 74
7, 20040, Control_c, 3, 7, 74
7, 20160, Control_c, 2, 7, 73
7, 20160, Control_c, 3, 7, 73
7, 20280, Control_c, 2, 7, 72
7, 20280, Control_c, 3, 7, 72
7, 20400, Control_c, 2, 7, 71
7, 20400, Control_c, 3, 7, 71
7, 20520, Control_c, 2, 7, 70
7, 20520, Control_c, 3, 7, 70
7, 20640, Control_c, 2, 7, 69
7, 20640, Control_c, 3, 7, 69
7, 20760, Control_c, 2, 7, 68
7, 20760, Control_c, 3, 7, 68
7, 20880, Control_c, 2, 7, 68
7, 20880, Control_c, 3, 7, 68
7, 21000, Control_c, 2, 7, 67
7, 21000, Control_c, 3, 7, 67
7, 21120, Control_c, 2, 7, 66
7, 21120, Control_c, 3, 7, 66
7, 21240, Control_c, 2, 7, 65
7, 21240, Control_c, 3, 7, 65
7, 21360, Control_c, 2, 7, 64
7, 21360, Control_c, 3, 7, 64
7, 21480, Control_c, 2, 7, 63
7, 21480, Control_c, 3, 7, 63
7, 21600, Control_c, 2, 7, 62
7, 21600, Control_c, 3, 7, 62
7, 21720, Control_c, 2, 7, 61
7, 21720, Control_c, 3, 7, 61
7, 21840, Control_c, 2, 7, 60
7, 21840, Control_c, 3, 7, 60
7, 21960, Control_c, 2, 7, 59
7, 21960, Control_c, 3, 7, 59
7, 22080, Control_c, 2, 7, 58
7, 22080, Control_c, 3, 7, 58
7, 22200, Control_c, 2, 7, 57
7, 22200, Control_c, 3, 7, 57
7, 22320, Control_c, 2, 7, 57
7, 22320, Control_c, 3, 7, 57
7, 22440, Control_c, 2, 7, 56
7, 22440, Control_c, 3, 7, 56
7, 22560, Control_c, 2, 7, 55
7, 22560, Control_c, 3, 7, 55
7, 22680, Control_c, 2, 7, 54
7, 22680, Control_c, 3, 7, 54
7, 22800, Control_c, 2, 7, 53
7, 22800, Control_c, 3, 7, 53
7, 22920, Control_c, 2, 7, 52
7, 22920, Control_c, 3, 7, 52
7, 23040, Control_c, 2, 7, 51
7, 23040, Control_c, 3, 7, 51
7, 23160, Control_c, 2, 7, 50
7, 23160, Control_c, 3, 7, 50
7, 23280, Control_c, 2, 7, 49
7, 23280, Control_c, 3, 7, 49
7, 23400, Control_c, 2, 7, 48
7, 23400, Control_c, 3, 7, 48
7, 23520, Control_c, 2, 7, 47
7, 23520, Control_c, 3, 7, 47
7, 23520, Note_on_c, 2, 67, 95
7, 23520, Note_on_c, 2, 55, 95
7, 23640, Control_c, 2, 7, 46
7, 23640, Control_c, 3, 7, 46
7, 23760, Control_c, 2, 7, 46
7, 23760, Control_c, 3, 7, 46
7, 23880, Control_c, 2, 7, 45
7, 23880, Control_c, 3, 7, 45
7, 24000, Control_c, 2, 7, 44
7, 24000, Control_c, 3, 7, 44
7, 24120, Control_c, 2, 7, 43
7, 24120, Control_c, 3, 7, 43
7, 24240, Control_c, 2, 7, 42
7, 24240, Control_c, 3, 7, 42
7, 24360, Control_c, 2, 7, 41
7, 24360, Control_c, 3, 7, 41
7, 24480, Control_c, 2, 7, 40
7, 24480, Control_c, 3, 7, 40
7, 24960, Note_off_c, 2, 60, 80
7, 24960, Note_off_c, 2, 48, 80
7, 26400, Note_off_c, 2, 67, 80
7, 26400, Note_off_c, 2, 55, 80
7, 28560, Note_on_c, 3, 79, 127
7, 28560, Pitch_bend_c, 3, 8192
7, 28564, Pitch_bend_c, 3, 8192
7, 28568, Pitch_bend_c, 3, 8192
7, 28573, Pitch_bend_c, 3, 8192
7, 28577, Pitch_bend_c, 3, 8192
7, 28581, Pitch_bend_c, 3, 8192
7, 28585, Pitch_bend_c, 3, 8192
7, 28590, Pitch_bend_c, 3, 8192
7, 28594, Pitch_bend_c, 3, 8192
7, 28598, Pitch_bend_c, 3, 8192
7, 28602, Pitch_bend_c, 3, 8192
7, 28606, Pitch_bend_c, 3, 8192
7, 28611, Pitch_bend_c, 3, 8192
7, 28615, Pitch_bend_c, 3, 8192
7, 28619, Pitch_bend_c, 3, 8192
7, 28623, Pitch_bend_c, 3, 8192
7, 28628, Pitch_bend_c, 3, 8192
7, 28632, Pitch_bend_c, 3, 8192
7, 28636, Pitch_bend_c, 3, 8192
7, 28640, Pitch_bend_c, 3, 8192
7, 28644, Pitch_bend_c, 3, 8192
7, 28649, Pitch_bend_c, 3, 8192
7, 28653, Pitch_bend_c, 3, 8192
7, 28657, Pitch_bend_c, 3, 8192
7, 28661, Pitch_bend_c, 3, 8192
7, 28665, Pitch_bend_c, 3, 8192
7, 28670, Pitch_bend_c, 3, 8192
7, 28674, Pitch_bend_c, 3, 8192
7, 28678, Pitch_bend_c, 3, 8192
7, 28682, Pitch_bend_c, 3, 8192
7, 28687, Pitch_bend_c, 3, 8192
7, 28691, Pitch_bend_c, 3, 8192
7, 28695, Pitch_bend_c, 3, 8192
7, 28699, Pitch_bend_c, 3, 8192
7, 28703, Pitch_bend_c, 3, 8192
7, 28708, Pitch_bend_c, 3, 8192
7, 28712, Pitch_bend_c, 3, 8192
7, 28716, Pitch_bend_c, 3, 8320
7, 28720, Pitch_bend_c, 3, 8320
7, 28725, Pitch_bend_c, 3, 8320
7, 28729, Pitch_bend_c, 3, 8320
7, 28733, Pitch_bend_c, 3, 8320
7, 28737, Pitch_bend_c, 3, 8320
7, 28741, Pitch_bend_c, 3, 8320
7, 28746, Pitch_bend_c, 3, 8192
7, 28750, Pitch_bend_c, 3, 8192
7, 28754, Pitch_bend_c, 3, 8192
7, 28758, Pitch_bend_c, 3, 8192
7, 28763, Pitch_bend_c, 3, 8192
7, 28767, Pitch_bend_c, 3, 8192
7, 28771, Pitch_bend_c, 3, 8192
7, 28775, Pitch_bend_c, 3, 8192
7, 28779, Pitch_bend_c, 3, 8192
7, 28784, Pitch_bend_c, 3, 8064
7, 28788, Pitch_bend_c, 3, 8064
7, 28792, Pitch_bend_c, 3, 8064
7, 28796, Pitch_bend_c, 3, 8064
7, 28800, Pitch_bend_c, 3, 8064
7, 28805, Pitch_bend_c, 3, 8064
7, 28809, Pitch_bend_c, 3, 8064
7, 28813, Pitch_bend_c, 3, 8192
7, 28817, Pitch_bend_c, 3, 8192
7, 28822, Pitch_bend_c, 3, 8192
7, 28826, Pitch_bend_c, 3, 8192
7, 28830, Pitch_bend_c, 3, 8192
7, 28834, Pitch_bend_c, 3, 8192
7, 28838, Pitch_bend_c, 3, 8320
7, 28843, Pitch_bend_c, 3, 8320
7, 28847, Pitch_bend_c, 3, 8320
7, 28851, Pitch_bend_c, 3, 8320
7, 28855, Pitch_bend_c, 3, 8320
7, 28860, Pitch_bend_c, 3, 8320
7, 28864, Pitch_bend_c, 3, 8320
7, 28868, Pitch_bend_c, 3, 8320
7, 28872, Pitch_bend_c, 3, 8320
7, 28876, Pitch_bend_c, 3, 8320
7, 28881, Pitch_bend_c, 3, 8320
7, 28885, Pitch_bend_c, 3, 8320
7, 28889, Pitch_bend_c, 3, 8320
7, 28893, Pitch_bend_c, 3, 8192
7, 28898, Pitch_bend_c, 3, 8192
7, 28902, Pitch_bend_c, 3, 8192
7, 28906, Pitch_bend_c, 3, 8064
7, 28910, Pitch_bend_c, 3, 8064
7, 28914, Pitch_bend_c, 3, 8064
7, 28919, Pitch_bend_c, 3, 8064
7, 28923, Pitch_bend_c, 3, 8064
7, 28927, Pitch_bend_c, 3, 8064
7, 28931, Pitch_bend_c, 3, 8064
7, 28935, Pitch_bend_c, 3, 8064
7, 28940, Pitch_bend_c, 3, 8064
7, 28944, Pitch_bend_c, 3, 8064
7, 28948, Pitch_bend_c, 3, 8064
7, 28952, Pitch_bend_c, 3, 8064
7, 28957, Pitch_bend_c, 3, 8064
7, 28961, Pitch_bend_c, 3, 8192
7, 28965, Pitch_bend_c, 3, 8192
7, 28969, Pitch_bend_c, 3, 8192
7, 28973, Pitch_bend_c, 3, 8320
7, 28978, Pitch_bend_c, 3, 8320
7, 28982, Pitch_bend_c, 3, 8320
7, 28986, Pitch_bend_c, 3, 8320
7, 28990, Pitch_bend_c, 3, 8320
7, 28995, Pitch_bend_c, 3, 8320
7, 28999, Pitch_bend_c, 3, 8320
7, 29003, Pitch_bend_c, 3, 8320
7, 29007, Pitch_bend_c, 3, 8320
7, 29011, Pitch_bend_c, 3, 8320
7, 29016, Pitch_bend_c, 3, 8320
7, 29020, Pitch_bend_c, 3, 8320
7, 29024, Pitch_bend_c, 3, 8320
7, 29028, Pitch_bend_c, 3, 8192
7, 29033, Pitch_bend_c, 3, 8192
7, 29037, Pitch_bend_c, 3, 8192
7, 29041, Pitch_bend_c, 3, 8064
7, 29045, Pitch_bend_c, 3, 8064
7, 29049, Pitch_bend_c, 3, 8064
7, 29054, Pitch_bend_c, 3, 8064
7, 29058, Pitch_bend_c, 3, 8064
7, 29062, Pitch_bend_c, 3, 8064
7, 29066, Pitch_bend_c, 3, 8064
7, 29070, Pitch_bend_c, 3, 8064
7, 29075, Pitch_bend_c, 3, 8064
7, 29079, Pitch_bend_c, 3, 8064
7, 29083, Pitch_bend_c, 3, 8064
7, 29087, Pitch_bend_c, 3, 8064
7, 29092, Pitch_bend_c, 3, 8064
7, 29096, Pitch_bend_c, 3, 8192
7, 29100, Pitch_bend_c, 3, 8192
7, 29104, Pitch_bend_c, 3, 8192
7, 29108, Pitch_bend_c, 3, 8320
7, 29113, Pitch_bend_c, 3, 8320
7, 29117, Pitch_bend_c, 3, 8320
7, 29121, Pitch_bend_c, 3, 8320
7, 29125, Pitch_bend_c, 3, 8320
7, 29130, Pitch_bend_c, 3, 8320
7, 29134, Pitch_bend_c, 3, 8320
7, 29138, Pitch_bend_c, 3, 8320
7, 29142, Pitch_bend_c, 3, 8320
7, 29146, Pitch_bend_c, 3, 8320
7, 29151, Pitch_bend_c, 3, 8320
7, 29155, Pitch_bend_c, 3, 8320
7, 29159, Pitch_bend_c, 3, 8320
7, 29163, Pitch_bend_c, 3, 8192
7, 29168, Pitch_bend_c, 3, 8192
7, 29172, Pitch_bend_c, 3, 8192
7, 29176, Pitch_bend_c, 3, 8064
7, 29180, Pitch_bend_c, 3, 8064
7, 29184, Pitch_bend_c, 3, 8064
7, 29189, Pitch_bend_c, 3, 8064
7, 29193, Pitch_bend_c, 3, 8064
7, 29197, Pitch_bend_c, 3, 8064
7, 29201, Pitch_bend_c, 3, 8064
7, 29205, Pitch_bend_c, 3, 8064
7, 29210, Pitch_bend_c, 3, 8064
7, 29214, Pitch_bend_c, 3, 8064
7, 29218, Pitch_bend_c, 3, 8064
7, 29222, Pitch_bend_c, 3, 8064
7, 29227, Pitch_bend_c, 3, 8064
7, 29231, Pitch_bend_c, 3, 8192
7, 29235, Pitch_bend_c, 3, 8192
7, 29239, Pitch_bend_c, 3, 8192
7, 29243, Pitch_bend_c, 3, 8320
7, 29248, Pitch_bend_c, 3, 8320
7, 29252, Pitch_bend_c, 3, 8320
7, 29256, Pitch_bend_c, 3, 8320
7, 29260, Pitch_bend_c, 3, 8448
7, 29265, Pitch_bend_c, 3, 8448
7, 29269, Pitch_bend_c, 3, 8448
7, 29273, Pitch_bend_c, 3, 8448
7, 29277, Pitch_bend_c, 3, 8448
7, 29281, Pitch_bend_c, 3, 8320
7, 29286, Pitch_bend_c, 3, 8320
7, 29290, Pitch_bend_c, 3, 8320
7, 29294, Pitch_bend_c, 3, 8320
7, 29298, Pitch_bend_c, 3, 8192
7, 29303, Pitch_bend_c, 3, 8192
7, 29307, Pitch_bend_c, 3, 8192
7, 29311, Pitch_bend_c, 3, 8064
7, 29315, Pitch_bend_c, 3, 8064
7, 29319, Pitch_bend_c, 3, 8064
7, 29324, Pitch_bend_c, 3, 8064
7, 29328, Pitch_bend_c, 3, 7936
7, 29332, Pitch_bend_c, 3, 7936
7, 29336, Pitch_bend_c, 3, 7936
7, 29340, Pitch_bend_c, 3, 7936
7, 29345, Pitch_bend_c, 3, 7936
7, 29349, Pitch_bend_c, 3, 8064
7, 29353, Pitch_bend_c, 3, 8064
7, 29357, Pitch_bend_c, 3, 8064
7, 29362, Pitch_bend_c, 3, 8064
7, 29366, Pitch_bend_c, 3, 8192
7, 29370, Pitch_bend_c, 3, 8192
7, 29374, Pitch_bend_c, 3, 8192
7, 29378, Pitch_bend_c, 3, 8320
7, 29383, Pitch_bend_c, 3, 8320
7, 29387, Pitch_bend_c, 3, 8320
7, 29391, Pitch_bend_c, 3, 8448
7, 29395, Pitch_bend_c, 3, 8448
7, 29400, Pitch_bend_c, 3, 8448
7, 29404, Pitch_bend_c, 3, 8448
7, 29408, Pitch_bend_c, 3, 8448
7, 29412, Pitch_bend_c, 3, 8448
7, 29416, Pitch_bend_c, 3, 8448
7, 29421, Pitch_bend_c, 3, 8320
7, 29425, Pitch_bend_c, 3, 8320
7, 29429, Pitch_bend_c, 3, 8320
7, 29433, Pitch_bend_c, 3, 8192
7, 29438, Pitch_bend_c, 3, 8192
7, 29442, Pitch_bend_c, 3, 8192
7, 29446, Pitch_bend_c, 3, 8064
7, 29450, Pitch_bend_c, 3, 8064
7, 29454, Pitch_bend_c, 3, 8064
7, 29459, Pitch_bend_c, 3, 7936
7, 29463, Pitch_bend_c, 3, 7936
7, 29467, Pitch_bend_c, 3, 7936
7, 29471, Pitch_bend_c, 3, 7936
7, 29475, Pitch_bend_c, 3, 7936
7, 29480, Pitch_bend_c, 3, 7936
7, 29484, Pitch_bend_c, 3, 7936
7, 29488, Pitch_bend_c, 3, 8064
7, 29492, Pitch_bend_c, 3, 8064
7, 29497, Pitch_bend_c, 3, 8064
7, 29501, Pitch_bend_c, 3, 8192
7, 29505, Pitch_bend_c, 3, 8192
7, 29509, Pitch_bend_c, 3, 8192
7, 29513, Pitch_bend_c, 3, 8320
7, 29518, Pitch_bend_c, 3, 8320
7, 29522, Pitch_bend_c, 3, 8320
7, 29526, Pitch_bend_c, 3, 8320
7, 29530, Pitch_bend_c, 3, 8320
7, 29535, Pitch_bend_c, 3, 8320
7, 29539, Pitch_bend_c, 3, 8320
7, 29543, Pitch_bend_c, 3, 8320
7, 29547, Pitch_bend_c, 3, 8320
7, 29551, Pitch_bend_c, 3, 8320
7, 29556, Pitch_bend_c, 3, 8320
7, 29560, Pitch_bend_c, 3, 8320
7, 29564, Pitch_bend_c, 3, 8320
7, 29568, Pitch_bend_c, 3, 8192
7, 29573, Pitch_bend_c, 3, 8192
7, 29577, Pitch_bend_c, 3, 8192
7, 29581, Pitch_bend_c, 3, 8064
7, 29585, Pitch_bend_c, 3, 8064
7, 29589, Pitch_bend_c, 3, 8064
7, 29594, Pitch_bend_c, 3, 8064
7, 29598, Pitch_bend_c, 3, 8064
7, 29602, Pitch_bend_c, 3, 8064
7, 29606, Pitch_bend_c, 3, 8064
7, 29610, Pitch_bend_c, 3, 8064
7, 29615, Pitch_bend_c, 3, 8064
7, 29619, Pitch_bend_c, 3, 8064
7, 29623, Pitch_bend_c, 3, 8064
7, 29627, Pitch_bend_c, 3, 8064
7, 29632, Pitch_bend_c, 3, 8064
7, 29636, Pitch_bend_c, 3, 8192
7, 29640, Pitch_bend_c, 3, 8192
7, 29644, Pitch_bend_c, 3, 8192
7, 29648, Pitch_bend_c, 3, 8320
7, 29653, Pitch_bend_c, 3, 8320
7, 29657, Pitch_bend_c, 3, 8448
7, 29661, Pitch_bend_c, 3, 8448
7, 29665, Pitch_bend_c, 3, 8448
7, 29670, Pitch_bend_c, 3, 8448
7, 29674, Pitch_bend_c, 3, 8448
7, 29678, Pitch_bend_c, 3, 8448
7, 29682, Pitch_bend_c, 3, 8448
7, 29686, Pitch_bend_c, 3, 8448
7, 29691, Pitch_bend_c, 3, 8448
7, 29695, Pitch_bend_c, 3, 8320
7, 29699, Pitch_bend_c, 3, 8320
7, 29703, Pitch_bend_c, 3, 8320
7, 29708, Pitch_bend_c, 3, 8192
7, 29712, Pitch_bend_c, 3, 8064
7, 29716, Pitch_bend_c, 3, 8064
7, 29720, Pitch_bend_c, 3, 8064
7, 29724, Pitch_bend_c, 3, 7936
7, 29729, Pitch_bend_c, 3, 7936
7, 29733, Pitch_bend_c, 3, 7936
7, 29737, Pitch_bend_c, 3, 7936
7, 29741, Pitch_bend_c, 3, 7936
7, 29745, Pitch_bend_c, 3, 7936
7, 29750, Pitch_bend_c, 3, 7936
7, 29754, Pitch_bend_c, 3, 7936
7, 29758, Pitch_bend_c, 3, 7936
7, 29762, Pitch_bend_c, 3, 8064
7, 29767, Pitch_bend_c, 3, 8064
7, 29771, Pitch_bend_c, 3, 8192
7, 29775, Pitch_bend_c, 3, 8192
7, 29779, Pitch_bend_c, 3, 8192
7, 29783, Pitch_bend_c, 3, 8320
7, 29788, Pitch_bend_c, 3, 8320
7, 29792, Pitch_bend_c, 3, 8320
7, 29796, Pitch_bend_c, 3, 8320
7, 29800, Pitch_bend_c, 3, 8320
7, 29805, Pitch_bend_c, 3, 8320
7, 29809, Pitch_bend_c, 3, 8320
7, 29813, Pitch_bend_c, 3, 8320
7, 29817, Pitch_bend_c, 3, 8320
7, 29821, Pitch_bend_c, 3, 8320
7, 29826, Pitch_bend_c, 3, 8320
7, 29830, Pitch_bend_c, 3, 8320
7, 29834, Pitch_bend_c, 3, 8320
7, 29838, Pitch_bend_c, 3, 8192
7, 29843, Pitch_bend_c, 3, 8192
7, 29847, Pitch_bend_c, 3, 8192
7, 29851, Pitch_bend_c, 3, 8064
7, 29855, Pitch_bend_c, 3, 8064
7, 29859, Pitch_bend_c, 3, 8064
7, 29864, Pitch_bend_c, 3, 8064
7, 29868, Pitch_bend_c, 3, 8064
7, 29872, Pitch_bend_c, 3, 8064
7, 29876, Pitch_bend_c, 3, 8064
7, 29880, Pitch_bend_c, 3, 8064
7, 29885, Pitch_bend_c, 3, 8064
7, 29889, Pitch_bend_c, 3, 8064
7, 29893, Pitch_bend_c, 3, 8064
7, 29897, Pitch_bend_c, 3, 8064
7, 29902, Pitch_bend_c, 3, 8064
7, 29906, Pitch_bend_c, 3, 8192
7, 29910, Pitch_bend_c, 3, 8192
7, 29914, Pitch_bend_c, 3, 8192
7, 29918, Pitch_bend_c, 3, 8320
7, 29923, Pitch_bend_c, 3, 8320
7, 29927, Pitch_bend_c, 3, 8320
7, 29931, Pitch_bend_c, 3, 8320
7, 29935, Pitch_bend_c, 3, 8320
7, 29940, Pitch_bend_c, 3, 8320
7, 29944, Pitch_bend_c, 3, 8320
7, 29948, Pitch_bend_c, 3, 8320
7, 29952, Pitch_bend_c, 3, 8320
7, 29956, Pitch_bend_c, 3, 8320
7, 29961, Pitch_bend_c, 3, 8320
7, 29965, Pitch_bend_c, 3, 8320
7, 29969, Pitch_bend_c, 3, 8320
7, 29973, Pitch_bend_c, 3, 8192
7, 29978, Pitch_bend_c, 3, 8192
7, 29982, Pitch_bend_c, 3, 8192
7, 29986, Pitch_bend_c, 3, 8064
7, 29990, Pitch_bend_c, 3, 8064
7, 29994, Pitch_bend_c, 3, 8064
7, 29999, Pitch_bend_c, 3, 8064
7, 30003, Pitch_bend_c, 3, 8064
7, 30007, Pitch_bend_c, 3, 8064
7, 30011, Pitch_bend_c, 3, 8064
7, 30015, Pitch_bend_c, 3, 8064
7, 30020, Pitch_bend_c, 3, 8064
7, 30024, Pitch_bend_c, 3, 8064
7, 30028, Pitch_bend_c, 3, 8064
7, 30032, Pitch_bend_c, 3, 8064
7, 30037, Pitch_bend_c, 3, 8064
7, 30041, Pitch_bend_c, 3, 8192
7, 30045, Pitch_bend_c, 3, 8192
7, 30049, Pitch_bend_c, 3, 8192
7, 30053, Pitch_bend_c, 3, 8320
7, 30058, Pitch_bend_c, 3, 8320
7, 30062, Pitch_bend_c, 3, 8320
7, 30066, Pitch_bend_c, 3, 8448
7, 30070, Pitch_bend_c, 3, 8448
7, 30075, Pitch_bend_c, 3, 8448
7, 30079, Pitch_bend_c, 3, 8448
7, 30083, Pitch_bend_c, 3, 8448
7, 30087, Pitch_bend_c, 3, 8448
7, 30091, Pitch_bend_c, 3, 8448
7, 30096, Pitch_bend_c, 3, 8320
7, 30100, Pitch_bend_c, 3, 8320
7, 30104, Pitch_bend_c, 3, 8320
7, 30108, Pitch_bend_c, 3, 8192
7, 30113, Pitch_bend_c, 3, 8192
7, 30117, Pitch_bend_c, 3, 8192
7, 30121, Pitch_bend_c, 3, 8064
7, 30125, Pitch_bend_c, 3, 8064
7, 30129, Pitch_bend_c, 3, 8064
7, 30134, Pitch_bend_c, 3, 7936
7, 30138, Pitch_bend_c, 3, 7936
7, 30142, Pitch_bend_c, 3, 7936
7, 30146, Pitch_bend_c, 3, 7936
7, 30150, Pitch_bend_c, 3, 7936
7, 30155, Pitch_bend_c, 3, 7936
7, 30159, Pitch_bend_c, 3, 7936
7, 30163, Pitch_bend_c, 3, 8064
7, 30167, Pitch_bend_c, 3, 8064
7, 30172, Pitch_bend_c, 3, 8064
7, 30176, Pitch_bend_c, 3, 8192
7, 30180, Pitch_bend_c, 3, 8192
7, 30184, Pitch_bend_c, 3, 8192
7, 30188, Pitch_bend_c, 3, 8320
7, 30193, Pitch_bend_c, 3, 8320
7, 30197, Pitch_bend_c, 3, 8320
7, 30201, Pitch_bend_c, 3, 8320
7, 30205, Pitch_bend_c, 3, 8448
7, 30210, Pitch_bend_c, 3, 8448
7, 30214, Pitch_bend_c, 3, 8448
7, 30218, Pitch_bend_c, 3, 8448
7, 30222, Pitch_bend_c, 3, 8448
7, 30226, Pitch_bend_c, 3, 8320
7, 30231, Pitch_bend_c, 3, 8320
7, 30235, Pitch_bend_c, 3, 8320
7, 30239, Pitch_bend_c, 3, 8320
7, 30243, Pitch_bend_c, 3, 8192
7, 30248, Pitch_bend_c, 3, 8192
7, 30252, Pitch_bend_c, 3, 8192
7, 30256, Pitch_bend_c, 3, 8064
7, 30260, Pitch_bend_c, 3, 8064
7, 30264, Pitch_bend_c, 3, 8064
7, 30269, Pitch_bend_c, 3, 8064
7, 30273, Pitch_bend_c, 3, 7936
7, 30277, Pitch_bend_c, 3, 7936
7, 30281, Pitch_bend_c, 3, 7936
7, 30285, Pitch_bend_c, 3, 7936
7, 30290, Pitch_bend_c, 3, 7936
7, 30294, Pitch_bend_c, 3, 8064
7, 30298, Pitch_bend_c, 3, 8064
7, 30302, Pitch_bend_c, 3, 8064
7, 30307, Pitch_bend_c, 3, 8064
7, 30311, Pitch_bend_c, 3, 8192
7, 30315, Pitch_bend_c, 3, 8192
7, 30319, Pitch_bend_c, 3, 8192
7, 30323, Pitch_bend_c, 3, 8320
7, 30328, Pitch_bend_c, 3, 8320
7, 30332, Pitch_bend_c, 3, 8320
7, 30336, Pitch_bend_c, 3, 8320
7, 30340, Pitch_bend_c, 3, 8320
7, 30345, Pitch_bend_c, 3, 8320
7, 30349, Pitch_bend_c, 3, 8320
7, 30353, Pitch_bend_c, 3, 8320
7, 30357, Pitch_bend_c, 3, 8320
7, 30361, Pitch_bend_c, 3, 8320
7, 30366, Pitch_bend_c, 3, 8320
7, 30370, Pitch_bend_c, 3, 8320
7, 30374, Pitch_bend_c, 3, 8320
7, 30378, Pitch_bend_c, 3, 8192
7, 30383, Pitch_bend_c, 3, 8192
7, 30387, Pitch_bend_c, 3, 8192
7, 30391, Pitch_bend_c, 3, 8064
7, 30395, Pitch_bend_c, 3, 8064
7, 30399, Pitch_bend_c, 3, 8064
7, 30404, Pitch_bend_c, 3, 8064
7, 30408, Pitch_bend_c, 3, 8064
7, 30412, Pitch_bend_c, 3, 8064
7, 30416, Pitch_bend_c, 3, 8064
7, 30420, Pitch_bend_c, 3, 8064
7, 30425, Pitch_bend_c, 3, 8064
7, 30429, Pitch_bend_c, 3, 8064
7, 30433, Pitch_bend_c, 3, 8064
7, 30437, Pitch_bend_c, 3, 8064
7, 30442, Pitch_bend_c, 3, 8064
7, 30446, Pitch_bend_c, 3, 8192
7, 30450, Pitch_bend_c, 3, 8192
7, 30454, Pitch_bend_c, 3, 8192
7, 30458, Pitch_bend_c, 3, 8192
7, 30463, Pitch_bend_c, 3, 8320
7, 30467, Pitch_bend_c, 3, 8320
7, 30471, Pitch_bend_c, 3, 8320
7, 30475, Pitch_bend_c, 3, 8320
7, 30480, Pitch_bend_c, 3, 8320
7, 30484, Pitch_bend_c, 3, 8320
7, 30488, Pitch_bend_c, 3, 8320
7, 30492, Pitch_bend_c, 3, 8320
7, 30496, Pitch_bend_c, 3, 8320
7, 30501, Pitch_bend_c, 3, 8320
7, 30505, Pitch_bend_c, 3, 8320
7, 30509, Pitch_bend_c, 3, 8192
7, 30513, Pitch_bend_c, 3, 8192
7, 30518, Pitch_bend_c, 3, 8192
7, 30522, Pitch_bend_c, 3, 8192
7, 30526, Pitch_bend_c, 3, 8192
7, 30530, Pitch_bend_c, 3, 8064
7, 30534, Pitch_bend_c, 3, 8064
7, 30539, Pitch_bend_c, 3, 8064
7, 30543, Pitch_bend_c, 3, 8064
7, 30547, Pitch_bend_c, 3, 8064
7, 30551, Pitch_bend_c, 3, 8064
7, 30555, Pitch_bend_c, 3, 8064
7, 30560, Pitch_bend_c, 3, 8064
7, 30564, Pitch_bend_c, 3, 8064
7, 30568, Pitch_bend_c, 3, 8064
7, 30572, Pitch_bend_c, 3, 8064
7, 30577, Pitch_bend_c, 3, 8192
7, 30581, Pitch_bend_c, 3, 8192
7, 30585, Pitch_bend_c, 3, 8192
7, 30589, Pitch_bend_c, 3, 8192
7, 30593, Pitch_bend_c, 3, 8192
7, 30598, Pitch_bend_c, 3, 8192
7, 30602, Pitch_bend_c, 3, 8192
7, 30606, Pitch_bend_c, 3, 8192
7, 30610, Pitch_bend_c, 3, 8192
7, 30615, Pitch_bend_c, 3, 8192
7, 30619, Pitch_bend_c, 3, 8192
7, 30623, Pitch_bend_c, 3, 8192
7, 30627, Pitch_bend_c, 3, 8192
7, 30631, Pitch_bend_c, 3, 8192
7, 30636, Pitch_bend_c, 3, 8192
7, 30640, Pitch_bend_c, 3, 8192
7, 30644, Pitch_bend_c, 3, 8192
7, 30648, Pitch_bend_c, 3, 8192
7, 30653, Pitch_bend_c, 3, 8192
7, 30657, Pitch_bend_c, 3, 8192
7, 30661, Pitch_bend_c, 3, 8192
7, 30665, Pitch_bend_c, 3, 8192
7, 30669, Pitch_bend_c, 3, 8192
7, 30674, Pitch_bend_c, 3, 8192
7, 30678, Pitch_bend_c, 3, 8192
7, 30682, Pitch_bend_c, 3, 8192
7, 30686, Pitch_bend_c, 3, 8192
7, 30690, Pitch_bend_c, 3, 8192
7, 30695, Pitch_bend_c, 3, 8192
7, 30699, Pitch_bend_c, 3, 8192
7, 30703, Pitch_bend_c, 3, 8192
7, 30707, Pitch_bend_c, 3, 8192
7, 30712, Pitch_bend_c, 3, 8192
7, 30716, Pitch_bend_c, 3, 8192
7, 30720, Note_off_c, 3, 79, 80
7, 30720, Pitch_bend_c, 3, 8192
7, 36240, Note_on_c, 3, 79, 127
7, 36240, Pitch_bend_c, 3, 8192
7, 36244, Pitch_bend_c, 3, 8192
7, 36248, Pitch_bend_c, 3, 8192
7, 36253, Pitch_bend_c, 3, 8192
7, 36257, Pitch_bend_c, 3, 8192
7, 36261, Pitch_bend_c, 3, 8192
7, 36265, Pitch_bend_c, 3, 8192
7, 36270, Pitch_bend_c, 3, 8192
7, 36274, Pitch_bend_c, 3, 8192
7, 36278, Pitch_bend_c, 3, 8192
7, 36282, Pitch_bend_c, 3, 8192
7, 36286, Pitch_bend_c, 3, 8192
7, 36291, Pitch_bend_c, 3, 8192
7, 36295, Pitch_bend_c, 3, 8192
7, 36299, Pitch_bend_c, 3, 8192
7, 36303, Pitch_bend_c, 3, 8192
7, 36308, Pitch_bend_c, 3, 8192
7, 36312, Pitch_bend_c, 3, 8192
7, 36316, Pitch_bend_c, 3, 8192
7, 36320, Pitch_bend_c, 3, 8192
7, 36324, Pitch_bend_c, 3, 8192
7, 36329, Pitch_bend_c, 3, 8192
7, 36333, Pitch_bend_c, 3, 8192
7, 36337, Pitch_bend_c, 3, 8192
7, 36341, Pitch_bend_c, 3, 8192
7, 36345, Pitch_bend_c, 3, 8192
7, 36350, Pitch_bend_c, 3, 8192
7, 36354, Pitch_bend_c, 3, 8192
7, 36358, Pitch_bend_c, 3, 8192
7, 36362, Pitch_bend_c, 3, 8192
7, 36367, Pitch_bend_c, 3, 8192
7, 36371, Pitch_bend_c, 3, 8192
7, 36375, Pitch_bend_c, 3, 8192
7, 36379, Pitch_bend_c, 3, 8192
7, 36383, Pitch_bend_c, 3, 8192
7, 36388, Pitch_bend_c, 3, 8320
7, 36392, Pitch_bend_c, 3, 8320
7, 36396, Pitch_bend_c, 3, 8320
7, 36400, Pitch_bend_c, 3, 8320
7, 36405, Pitch_bend_c, 3, 8320
7, 36409, Pitch_bend_c, 3, 8320
7, 36413, Pitch_bend_c, 3, 8320
7, 36417, Pitch_bend_c, 3, 8320
7, 36421, Pitch_bend_c, 3, 8320
7, 36426, Pitch_bend_c, 3, 8320
7, 36430, Pitch_bend_c, 3, 8320
7, 36434, Pitch_bend_c, 3, 8192
7, 36438, Pitch_bend_c, 3, 8192
7, 36443, Pitch_bend_c, 3, 8192
7, 36447, Pitch_bend_c, 3, 8192
7, 36451, Pitch_bend_c, 3, 8192
7, 36455, Pitch_bend_c, 3, 8064
7, 36459, Pitch_bend_c, 3, 8064
7, 36464, Pitch_bend_c, 3, 8064
7, 36468, Pitch_bend_c, 3, 8064
7, 36472, Pitch_bend_c, 3, 8064
7, 36476, Pitch_bend_c, 3, 8064
7, 36480, Pitch_bend_c, 3, 8064
7, 36485, Pitch_bend_c, 3, 8064
7, 36489, Pitch_bend_c, 3, 8064
7, 36493, Pitch_bend_c, 3, 8064
7, 36497, Pitch_bend_c, 3, 8064
7, 36502, Pitch_bend_c, 3, 8192
7, 36506, Pitch_bend_c, 3, 8192
7, 36510, Pitch_bend_c, 3, 8192
7, 36514, Pitch_bend_c, 3, 8192
7, 36518, Pitch_bend_c, 3, 8320
7, 36523, Pitch_bend_c, 3, 8320
7, 36527, Pitch_bend_c, 3, 8320
7, 36531, Pitch_bend_c, 3, 8320
7, 36535, Pitch_bend_c, 3, 8448
7, 36540, Pitch_bend_c, 3, 8448
7, 36544, Pitch_bend_c, 3, 8448
7, 36548, Pitch_bend_c, 3, 8448
7, 36552, Pitch_bend_c, 3, 8448
7, 36556, Pitch_bend_c, 3, 8320
7, 36561, Pitch_bend_c, 3, 8320
7, 36565, Pitch_bend_c, 3, 8320
7, 36569, Pitch_bend_c, 3, 8320
7, 36573, Pitch_bend_c, 3, 8192
7, 36578, Pitch_bend_c, 3, 8192
7, 36582, Pitch_bend_c, 3, 8192
7, 36586, Pitch_bend_c, 3, 8064
7, 36590, Pitch_bend_c, 3, 8064
7, 36594, Pitch_bend_c, 3, 8064
7, 36599, Pitch_bend_c, 3, 8064
7, 36603, Pitch_bend_c, 3, 7936
7, 36607, Pitch_bend_c, 3, 7936
7, 36611, Pitch_bend_c, 3, 7936
7, 36615, Pitch_bend_c, 3, 7936
7, 36620, Pitch_bend_c, 3, 7936
7, 36624, Pitch_bend_c, 3, 8064
7, 36628, Pitch_bend_c, 3, 8064
7, 36632, Pitch_bend_c, 3, 8064
7, 36637, Pitch_bend_c, 3, 8064
7, 36641, Pitch_bend_c, 3, 8192
7, 36645, Pitch_bend_c, 3, 8192
7, 36649, Pitch_bend_c, 3, 8192
7, 36653, Pitch_bend_c, 3, 8320
7, 36658, Pitch_bend_c, 3, 8320
7, 36662, Pitch_bend_c, 3, 8320
7, 36666, Pitch_bend_c, 3, 8448
7, 36670, Pitch_bend_c, 3, 8448
7, 36675, Pitch_bend_c, 3, 8448
7, 36679, Pitch_bend_c, 3, 8448
7, 36683, Pitch_bend_c, 3, 8448
7, 36687, Pitch_bend_c, 3, 8448
7, 36691, Pitch_bend_c, 3, 8448
7, 36696, Pitch_bend_c, 3, 8320
7, 36700, Pitch_bend_c, 3, 8320
7, 36704, Pitch_bend_c, 3, 8320
7, 36708, Pitch_bend_c, 3, 8192
7, 36713, Pitch_bend_c, 3, 8192
7, 36717, Pitch_bend_c, 3, 8192
7, 36721, Pitch_bend_c, 3, 8064
7, 36725, Pitch_bend_c, 3, 8064
7, 36729, Pitch_bend_c, 3, 8064
7, 36734, Pitch_bend_c, 3, 7936
7, 36738, Pitch_bend_c, 3, 7936
7, 36742, Pitch_bend_c, 3, 7936
7, 36746, Pitch_bend_c, 3, 7936
7, 36750, Pitch_bend_c, 3, 7936
7, 36755, Pitch_bend_c, 3, 7936
7, 36759, Pitch_bend_c, 3, 7936
7, 36763, Pitch_bend_c, 3, 8064
7, 36767, Pitch_bend_c, 3, 8064
7, 36772, Pitch_bend_c, 3, 8064
7, 36776, Pitch_bend_c, 3, 8192
7, 36780, Pitch_bend_c, 3, 8192
7, 36784, Pitch_bend_c, 3, 8192
7, 36788, Pitch_bend_c, 3, 8320
7, 36793, Pitch_bend_c, 3, 8320
7, 36797, Pitch_bend_c, 3, 8320
7, 36801, Pitch_bend_c, 3, 8320
7, 36805, Pitch_bend_c, 3, 8448
7, 36810, Pitch_bend_c, 3, 8448
7, 36814, Pitch_bend_c, 3, 8448
7, 36818, Pitch_bend_c, 3, 8448
7, 36822, Pitch_bend_c, 3, 8448
7, 36826, Pitch_bend_c, 3, 8320
7, 36831, Pitch_bend_c, 3, 8320
7, 36835, Pitch_bend_c, 3, 8320
7, 36839, Pitch_bend_c, 3, 8320
7, 36843, Pitch_bend_c, 3, 8192
7, 36848, Pitch_bend_c, 3, 8192
7, 36852, Pitch_bend_c, 3, 8192
7, 36856, Pitch_bend_c, 3, 8064
7, 36860, Pitch_bend_c, 3, 8064
7, 36864, Pitch_bend_c, 3, 8064
7, 36869, Pitch_bend_c, 3, 8064
7, 36873, Pitch_bend_c, 3, 7936
7, 36877, Pitch_bend_c, 3, 7936
7, 36881, Pitch_bend_c, 3, 7936
7, 36885, Pitch_bend_c, 3, 7936
7, 36890, Pitch_bend_c, 3, 7936
7, 36894, Pitch_bend_c, 3, 8064
7, 36898, Pitch_bend_c, 3, 8064
7, 36902, Pitch_bend_c, 3, 8064
7, 36907, Pitch_bend_c, 3, 8064
7, 36911, Pitch_bend_c, 3, 8192
7, 36915, Pitch_bend_c, 3, 8192
7, 36919, Pitch_bend_c, 3, 8192
7, 36923, Pitch_bend_c, 3, 8320
7, 36928, Pitch_bend_c, 3, 8320
7, 36932, Pitch_bend_c, 3, 8320
7, 36936, Pitch_bend_c, 3, 8320
7, 36940, Pitch_bend_c, 3, 8448
7, 36945, Pitch_bend_c, 3, 8448
7, 36949, Pitch_bend_c, 3, 8448
7, 36953, Pitch_bend_c, 3, 8448
7, 36957, Pitch_bend_c, 3, 8448
7, 36961, Pitch_bend_c, 3, 8320
7, 36966, Pitch_bend_c, 3, 8320
7, 36970, Pitch_bend_c, 3, 8320
7, 36974, Pitch_bend_c, 3, 8320
7, 36978, Pitch_bend_c, 3, 8192
7, 36983, Pitch_bend_c, 3, 8192
7, 36987, Pitch_bend_c, 3, 8192
7, 36991, Pitch_bend_c, 3, 8064
7, 36995, Pitch_bend_c, 3, 8064
7, 36999, Pitch_bend_c, 3, 8064
7, 37004, Pitch_bend_c, 3, 8064
7, 37008, Pitch_bend_c, 3, 7936
7, 37012, Pitch_bend_c, 3, 7936
7, 37016, Pitch_bend_c, 3, 7936
7, 37020, Pitch_bend_c, 3, 7936
7, 37025, Pitch_bend_c, 3, 7936
7, 37029, Pitch_bend_c, 3, 8064
7, 37033, Pitch_bend_c, 3, 8064
7, 37037, Pitch_bend_c, 3, 8064
7, 37042, Pitch_bend_c, 3, 8064
7, 37046, Pitch_bend_c, 3, 8192
7, 37050, Pitch_bend_c, 3, 8192
7, 37054, Pitch_bend_c, 3, 8192
7, 37058, Pitch_bend_c, 3, 8320
7, 37063, Pitch_bend_c, 3, 8320
7, 37067, Pitch_bend_c, 3, 8320
7, 37071, Pitch_bend_c, 3, 8320
7, 37075, Pitch_bend_c, 3, 8320
7, 37080, Pitch_bend_c, 3, 8320
7, 37084, Pitch_bend_c, 3, 8320
7, 37088, Pitch_bend_c, 3, 8320
7, 37092, Pitch_bend_c, 3, 8320
7, 37096, Pitch_bend_c, 3, 8320
7, 37101, Pitch_bend_c, 3, 8320
7, 37105, Pitch_bend_c, 3, 8320
7, 37109, Pitch_bend_c, 3, 8320
7, 37113, Pitch_bend_c, 3, 8192
7, 37118, Pitch_bend_c, 3, 8192
7, 37122, Pitch_bend_c, 3, 8192
7, 37126, Pitch_bend_c, 3, 8064
7, 37130, Pitch_bend_c, 3, 8064
7, 37134, Pitch_bend_c, 3, 8064
7, 37139, Pitch_bend_c, 3, 8064
7, 37143, Pitch_bend_c, 3, 8064
7, 37147, Pitch_bend_c, 3, 8064
7, 37151, Pitch_bend_c, 3, 8064
7, 37155, Pitch_bend_c, 3, 8064
7, 37160, Pitch_bend_c, 3, 8064
7, 37164, Pitch_bend_c, 3, 8064
7, 37168, Pitch_bend_c, 3, 8064
7, 37172, Pitch_bend_c, 3, 8064
7, 37177, Pitch_bend_c, 3, 8064
7, 37181, Pitch_bend_c, 3, 8192
7, 37185, Pitch_bend_c, 3, 8192
7, 37189, Pitch_bend_c, 3, 8192
7, 37193, Pitch_bend_c, 3, 8320
7, 37198, Pitch_bend_c, 3, 8320
7, 37202, Pitch_bend_c, 3, 8320
7, 37206, Pitch_bend_c, 3, 8448
7, 37210, Pitch_bend_c, 3, 8448
7, 37215, Pitch_bend_c, 3, 8448
7, 37219, Pitch_bend_c, 3, 8448
7, 37223, Pitch_bend_c, 3, 8448
7, 37227, Pitch_bend_c, 3, 8448
7, 37231, Pitch_bend_c, 3, 8448
7, 37236, Pitch_bend_c, 3, 8320
7, 37240, Pitch_bend_c, 3, 8320
7, 37244, Pitch_bend_c, 3, 8320
7, 37248, Pitch_bend_c, 3, 8192
7, 37253, Pitch_bend_c, 3, 8192
7, 37257, Pitch_bend_c, 3, 8192
7, 37261, Pitch_bend_c, 3, 8064
7, 37265, Pitch_bend_c, 3, 8064
7, 37269, Pitch_bend_c, 3, 8064
7, 37274, Pitch_bend_c, 3, 7936
7, 37278, Pitch_bend_c, 3, 7936
7, 37282, Pitch_bend_c, 3, 7936
7, 37286, Pitch_bend_c, 3, 7936
7, 37290, Pitch_bend_c, 3, 7936
7, 37295, Pitch_bend_c, 3, 7936
7, 37299, Pitch_bend_c, 3, 7936
7, 37303, Pitch_bend_c, 3, 8064
7, 37307, Pitch_bend_c, 3, 8064
7, 37312, Pitch_bend_c, 3, 8064
7, 37316, Pitch_bend_c, 3, 8192
7, 37320, Pitch_bend_c, 3, 8192
7, 37324, Pitch_bend_c, 3, 8192
7, 37328, Pitch_bend_c, 3, 8320
7, 37333, Pitch_bend_c, 3, 8320
7, 37337, Pitch_bend_c, 3, 8320
7, 37341, Pitch_bend_c, 3, 8448
7, 37345, Pitch_bend_c, 3, 8448
7, 37350, Pitch_bend_c, 3, 8448
7, 37354, Pitch_bend_c, 3, 8448
7, 37358, Pitch_bend_c, 3, 8448
7, 37362, Pitch_bend_c, 3, 8448
7, 37366, Pitch_bend_c, 3, 8448
7, 37371, Pitch_bend_c, 3, 8320
7, 37375, Pitch_bend_c, 3, 8320
7, 37379, Pitch_bend_c, 3, 8320
7, 37383, Pitch_bend_c, 3, 8192
7, 37388, Pitch_bend_c, 3, 8192
7, 37392, Pitch_bend_c, 3, 8192
7, 37396, Pitch_bend_c, 3, 8064
7, 37400, Pitch_bend_c, 3, 8064
7, 37404, Pitch_bend_c, 3, 8064
7, 37409, Pitch_bend_c, 3, 7936
7, 37413, Pitch_bend_c, 3, 7936
7, 37417, Pitch_bend_c, 3, 7936
7, 37421, Pitch_bend_c, 3, 7936
7, 37425, Pitch_bend_c, 3, 7936
7, 37430, Pitch_bend_c, 3, 7936
7, 37434, Pitch_bend_c, 3, 7936
7, 37438, Pitch_bend_c, 3, 8064
7, 37442, Pitch_bend_c, 3, 8064
7, 37447, Pitch_bend_c, 3, 8064
7, 37451, Pitch_bend_c, 3, 8192
7, 37455, Pitch_bend_c, 3, 8192
7, 37459, Pitch_bend_c, 3, 8192
7, 37463, Pitch_bend_c, 3, 8320
7, 37468, Pitch_bend_c, 3, 8320
7, 37472, Pitch_bend_c, 3, 8320
7, 37476, Pitch_bend_c, 3, 8448
7, 37480, Pitch_bend_c, 3, 8448
7, 37485, Pitch_bend_c, 3, 8448
7, 37489, Pitch_bend_c, 3, 8448
7, 37493, Pitch_bend_c, 3, 8448
7, 37497, Pitch_bend_c, 3, 8448
7, 37501, Pitch_bend_c, 3, 8448
7, 37506, Pitch_bend_c, 3, 8320
7, 37510, Pitch_bend_c, 3, 8320
7, 37514, Pitch_bend_c, 3, 8320
7, 37518, Pitch_bend_c, 3, 8192
7, 37523, Pitch_bend_c, 3, 8192
7, 37527, Pitch_bend_c, 3, 8192
7, 37531, Pitch_bend_c, 3, 8064
7, 37535, Pitch_bend_c, 3, 8064
7, 37539, Pitch_bend_c, 3, 8064
7, 37544, Pitch_bend_c, 3, 7936
7, 37548, Pitch_bend_c, 3, 7936
7, 37552, Pitch_bend_c, 3, 7936
7, 37556, Pitch_bend_c, 3, 7936
7, 37560, Pitch_bend_c, 3, 7936
7, 37565, Pitch_bend_c, 3, 7936
7, 37569, Pitch_bend_c, 3, 7936
7, 37573, Pitch_bend_c, 3, 8064
7, 37577, Pitch_bend_c, 3, 8064
7, 37582, Pitch_bend_c, 3, 8064
7, 37586, Pitch_bend_c, 3, 8192
7, 37590, Pitch_bend_c, 3, 8192
7, 37594, Pitch_bend_c, 3, 8192
7, 37598, Pitch_bend_c, 3, 8320
7, 37603, Pitch_bend_c, 3, 8320
7, 37607, Pitch_bend_c, 3, 8320
7, 37611, Pitch_bend_c, 3, 8320
7, 37615, Pitch_bend_c, 3, 8320
7, 37620, Pitch_bend_c, 3, 8448
7, 37624, Pitch_bend_c, 3, 8448
7, 37628, Pitch_bend_c, 3, 8448
7, 37632, Pitch_bend_c, 3, 8320
7, 37636, Pitch_bend_c, 3, 8320
7, 37641, Pitch_bend_c, 3, 8320
7, 37645, Pitch_bend_c, 3, 8320
7, 37649, Pitch_bend_c, 3, 8320
7, 37653, Pitch_bend_c, 3, 8192
7, 37658, Pitch_bend_c, 3, 8192
7, 37662, Pitch_bend_c, 3, 8192
7, 37666, Pitch_bend_c, 3, 8064
7, 37670, Pitch_bend_c, 3, 8064
7, 37674, Pitch_bend_c, 3, 8064
7, 37679, Pitch_bend_c, 3, 8064
7, 37683, Pitch_bend_c, 3, 8064
7, 37687, Pitch_bend_c, 3, 7936
7, 37691, Pitch_bend_c, 3, 7936
7, 37695, Pitch_bend_c, 3, 7936
7, 37700, Pitch_bend_c, 3, 8064
7, 37704, Pitch_bend_c, 3, 8064
7, 37708, Pitch_bend_c, 3, 8064
7, 37712, Pitch_bend_c, 3, 8064
7, 37717, Pitch_bend_c, 3, 8064
7, 37721, Pitch_bend_c, 3, 8192
7, 37725, Pitch_bend_c, 3, 8192
7, 37729, Pitch_bend_c, 3, 8192
7, 37733, Pitch_bend_c, 3, 8320
7, 37738, Pitch_bend_c, 3, 8320
7, 37742, Pitch_bend_c, 3, 8320
7, 37746, Pitch_bend_c, 3, 8448
7, 37750, Pitch_bend_c, 3, 8448
7, 37755, Pitch_bend_c, 3, 8448
7, 37759, Pitch_bend_c, 3, 8448
7, 37763, Pitch_bend_c, 3, 8448
7, 37767, Pitch_bend_c, 3, 8448
7, 37771, Pitch_bend_c, 3, 8448
7, 37776, Pitch_bend_c, 3, 8320
7, 37780, Pitch_bend_c, 3, 8320
7, 37784, Pitch_bend_c, 3, 8320
7, 37788, Pitch_bend_c, 3, 8192
7, 37793, Pitch_bend_c, 3, 8192
7, 37797, Pitch_bend_c, 3, 8192
7, 37801, Pitch_bend_c, 3, 8064
7, 37805, Pitch_bend_c, 3, 8064
7, 37809, Pitch_bend_c, 3, 8064
7, 37814, Pitch_bend_c, 3, 7936
7, 37818, Pitch_bend_c, 3, 7936
7, 37822, Pitch_bend_c, 3, 7936
7, 37826, Pitch_bend_c, 3, 7936
7, 37830, Pitch_bend_c, 3, 7936
7, 37835, Pitch_bend_c, 3, 7936
7, 37839, Pitch_bend_c, 3, 7936
7, 37843, Pitch_bend_c, 3, 8064
7, 37847, Pitch_bend_c, 3, 8064
7, 37852, Pitch_bend_c, 3, 8064
7, 37856, Pitch_bend_c, 3, 8192
7, 37860, Pitch_bend_c, 3, 8192
7, 37864, Pitch_bend_c, 3, 8192
7, 37868, Pitch_bend_c, 3, 8320
7, 37873, Pitch_bend_c, 3, 8320
7, 37877, Pitch_bend_c, 3, 8320
7, 37881, Pitch_bend_c, 3, 8320
7, 37885, Pitch_bend_c, 3, 8320
7, 37890, Pitch_bend_c, 3, 8320
7, 37894, Pitch_bend_c, 3, 8320
7, 37898, Pitch_bend_c, 3, 8320
7, 37902, Pitch_bend_c, 3, 8320
7, 37906, Pitch_bend_c, 3, 8320
7, 37911, Pitch_bend_c, 3, 8320
7, 37915, Pitch_bend_c, 3, 8320
7, 37919, Pitch_bend_c, 3, 8320
7, 37923, Pitch_bend_c, 3, 8192
7, 37928, Pitch_bend_c, 3, 8192
7, 37932, Pitch_bend_c, 3, 8192
7, 37936, Pitch_bend_c, 3, 8064
7, 37940, Pitch_bend_c, 3, 8064
7, 37944, Pitch_bend_c, 3, 8064
7, 37949, Pitch_bend_c, 3, 8064
7, 37953, Pitch_bend_c, 3, 8064
7, 37957, Pitch_bend_c, 3, 8064
7, 37961, Pitch_bend_c, 3, 8064
7, 37965, Pitch_bend_c, 3, 8064
7, 37970, Pitch_bend_c, 3, 8064
7, 37974, Pitch_bend_c, 3, 8064
7, 37978, Pitch_bend_c, 3, 8064
7, 37982, Pitch_bend_c, 3, 8064
7, 37987, Pitch_bend_c, 3, 8064
7, 37991, Pitch_bend_c, 3, 8192
7, 37995, Pitch_bend_c, 3, 8192
7, 37999, Pitch_bend_c, 3, 8192
7, 38003, Pitch_bend_c, 3, 8320
7, 38008, Pitch_bend_c, 3, 8320
7, 38012, Pitch_bend_c, 3, 8320
7, 38016, Pitch_bend_c, 3, 8448
7, 38020, Pitch_bend_c, 3, 8448
7, 38025, Pitch_bend_c, 3, 8448
7, 38029, Pitch_bend_c, 3, 8448
7, 38033, Pitch_bend_c, 3, 8448
7, 38037, Pitch_bend_c, 3, 8448
7, 38041, Pitch_bend_c, 3, 8448
7, 38046, Pitch_bend_c, 3, 8320
7, 38050, Pitch_bend_c, 3, 8320
7, 38054, Pitch_bend_c, 3, 8320
7, 38058, Pitch_bend_c, 3, 8192
7, 38063, Pitch_bend_c, 3, 8192
7, 38067, Pitch_bend_c, 3, 8192
7, 38071, Pitch_bend_c, 3, 8064
7, 38075, Pitch_bend_c, 3, 8064
7, 38079, Pitch_bend_c, 3, 8064
7, 38084, Pitch_bend_c, 3, 7936
7, 38088, Pitch_bend_c, 3, 7936
7, 38092, Pitch_bend_c, 3, 7936
7, 38096, Pitch_bend_c, 3, 7936
7, 38100, Pitch_bend_c, 3, 7936
7, 38105, Pitch_bend_c, 3, 7936
7, 38109, Pitch_bend_c, 3, 7936
7, 38113, Pitch_bend_c, 3, 8064
7, 38117, Pitch_bend_c, 3, 8064
7, 38122, Pitch_bend_c, 3, 8064
7, 38126, Pitch_bend_c, 3, 8192
7, 38130, Pitch_bend_c, 3, 8192
7, 38134, Pitch_bend_c, 3, 8192
7, 38138, Pitch_bend_c, 3, 8320
7, 38143, Pitch_bend_c, 3, 8320
7, 38147, Pitch_bend_c, 3, 8320
7, 38151, Pitch_bend_c, 3, 8320
7, 38155, Pitch_bend_c, 3, 8320
7, 38160, Pitch_bend_c, 3, 8448
7, 38164, Pitch_bend_c, 3, 8448
7, 38168, Pitch_bend_c, 3, 8448
7, 38172, Pitch_bend_c, 3, 8320
7, 38176, Pitch_bend_c, 3, 8320
7, 38181, Pitch_bend_c, 3, 8320
7, 38185, Pitch_bend_c, 3, 8320
7, 38189, Pitch_bend_c, 3, 8320
7, 38193, Pitch_bend_c, 3, 8192
7, 38198, Pitch_bend_c, 3, 8192
7, 38202, Pitch_bend_c, 3, 8192
7, 38206, Pitch_bend_c, 3, 8064
7, 38210, Pitch_bend_c, 3, 8064
7, 38214, Pitch_bend_c, 3, 8064
7, 38219, Pitch_bend_c, 3, 8064
7, 38223, Pitch_bend_c, 3, 8064
7, 38227, Pitch_bend_c, 3, 7936
7, 38231, Pitch_bend_c, 3, 7936
7, 38235, Pitch_bend_c, 3, 7936
7, 38240, Pitch_bend_c, 3, 8064
7, 38244, Pitch_bend_c, 3, 8064
7, 38248, Pitch_bend_c, 3, 8064
7, 38252, Pitch_bend_c, 3, 8064
7, 38257, Pitch_bend_c, 3, 8064
7, 38261, Pitch_bend_c, 3, 8192
7, 38265, Pitch_bend_c, 3, 8192
7, 38269, Pitch_bend_c, 3, 8192
7, 38273, Pitch_bend_c, 3, 8192
7, 38278, Pitch_bend_c, 3, 8192
7, 38282, Pitch_bend_c, 3, 8192
7, 38286, Pitch_bend_c, 3, 8192
7, 38290, Pitch_bend_c, 3, 8192
7, 38295, Pitch_bend_c, 3, 8192
7, 38299, Pitch_bend_c, 3, 8192
7, 38303, Pitch_bend_c, 3, 8192
7, 38307, Pitch_bend_c, 3, 8192
7, 38311, Pitch_bend_c, 3, 8192
7, 38316, Pitch_bend_c, 3, 8192
7, 38320, Pitch_bend_c, 3, 8192
7, 38324, Pitch_bend_c, 3, 8192
7, 38328, Pitch_bend_c, 3, 8192
7, 38333, Pitch_bend_c, 3, 8192
7, 38337, Pitch_bend_c, 3, 8192
7, 38341, Pitch_bend_c, 3, 8192
7, 38345, Pitch_bend_c, 3, 8192
7, 38349, Pitch_bend_c, 3, 8192
7, 38354, Pitch_bend_c, 3, 8192
7, 38358, Pitch_bend_c, 3, 8192
7, 38362, Pitch_bend_c, 3, 8192
7, 38366, Pitch_bend_c, 3, 8192
7, 38370, Pitch_bend_c, 3, 8192
7, 38375, Pitch_bend_c, 3, 8192
7, 38379, Pitch_bend_c, 3, 8192
7, 38383, Pitch_bend_c, 3, 8192
7, 38387, Pitch_bend_c, 3, 8192
7, 38392, Pitch_bend_c, 3, 8192
7, 38396, Pitch_bend_c, 3, 8192
7, 38400, Note_off_c, 3, 79, 80
7, 38400, Pitch_bend_c, 3, 8192
7, 51360, Control_c, 2, 7, 64
7, 51360, Control_c, 3, 7, 64
7, 51360, Control_c, 2, 10, 127
7, 51360, Control_c, 3, 10, 127
7, 51360, Note_on_c, 3, 69, 95
7, 51360, Pitch_bend_c, 3, 8192
7, 51364, Pitch_bend_c, 3, 8192
7, 51368, Pitch_bend_c, 3, 8192
7, 51373, Pitch_bend_c, 3, 8192
7, 51377, Pitch_bend_c, 3, 8192
7, 51381, Pitch_bend_c, 3, 8192
7, 51385, Pitch_bend_c, 3, 8192
7, 51390, Pitch_bend_c, 3, 8192
7, 51394, Pitch_bend_c, 3, 8192
7, 51398, Pitch_bend_c, 3, 8192
7, 51402, Pitch_bend_c, 3, 8192
7, 51406, Pitch_bend_c, 3, 8192
7, 51411, Pitch_bend_c, 3, 8192
7, 51415, Pitch_bend_c, 3, 8192
7, 51419, Pitch_bend_c, 3, 8192
7, 51423, Pitch_bend_c, 3, 8192
7, 51428, Pitch_bend_c, 3, 8192
7, 51432, Pitch_bend_c, 3, 8192
7, 51436, Pitch_bend_c, 3, 8192
7, 51440, Pitch_bend_c, 3, 8192
7, 51444, Pitch_bend_c, 3, 8192
7, 51449, Pitch_bend_c, 3, 8192
7, 51453, Pitch_bend_c, 3, 8192
7, 51457, Pitch_bend_c, 3, 8192
7, 51461, Pitch_bend_c, 3, 8192
7, 51465, Pitch_bend_c, 3, 8192
7, 51470, Pitch_bend_c, 3, 8192
7, 51474, Pitch_bend_c, 3, 8192
7, 51478, Pitch_bend_c, 3, 8192
7, 51482, Pitch_bend_c, 3, 8192
7, 51487, Pitch_bend_c, 3, 8192
7, 51491, Pitch_bend_c, 3, 8192
7, 51495, Pitch_bend_c, 3, 8192
7, 51499, Pitch_bend_c, 3, 8192
7, 51503, Pitch_bend_c, 3, 8320
7, 51508, Pitch_bend_c, 3, 8320
7, 51512, Pitch_bend_c, 3, 8320
7, 51516, Pitch_bend_c, 3, 8320
7, 51520, Pitch_bend_c, 3, 8320
7, 51525, Pitch_bend_c, 3, 8320
7, 51529, Pitch_bend_c, 3, 8320
7, 51533, Pitch_bend_c, 3, 8320
7, 51537, Pitch_bend_c, 3, 8320
7, 51541, Pitch_bend_c, 3, 8320
7, 51546, Pitch_bend_c, 3, 8320
7, 51550, Pitch_bend_c, 3, 8320
7, 51554, Pitch_bend_c, 3, 8320
7, 51558, Pitch_bend_c, 3, 8192
7, 51563, Pitch_bend_c, 3, 8192
7, 51567, Pitch_bend_c, 3, 8192
7, 51571, Pitch_bend_c, 3, 8064
7, 51575, Pitch_bend_c, 3, 8064
7, 51579, Pitch_bend_c, 3, 8064
7, 51584, Pitch_bend_c, 3, 8064
7, 51588, Pitch_bend_c, 3, 8064
7, 51592, Pitch_bend_c, 3, 8064
7, 51596, Pitch_bend_c, 3, 8064
7, 51600, Pitch_bend_c, 3, 8064
7, 51605, Pitch_bend_c, 3, 8064
7, 51609, Pitch_bend_c, 3, 8064
7, 51613, Pitch_bend_c, 3, 8064
7, 51617, Pitch_bend_c, 3, 8064
7, 51622, Pitch_bend_c, 3, 8064
7, 51626, Pitch_bend_c, 3, 8192
7, 51630, Pitch_bend_c, 3, 8192
7, 51634, Pitch_bend_c, 3, 8192
7, 51638, Pitch_bend_c, 3, 8320
7, 51643, Pitch_bend_c, 3, 8320
7, 51647, Pitch_bend_c, 3, 8320
7, 51651, Pitch_bend_c, 3, 8448
7, 51655, Pitch_bend_c, 3, 8448
7, 51660, Pitch_bend_c, 3, 8448
7, 51664, Pitch_bend_c, 3, 8448
7, 51668, Pitch_bend_c, 3, 8448
7, 51672, Pitch_bend_c, 3, 8448
7, 51676, Pitch_bend_c, 3, 8448
7, 51681, Pitch_bend_c, 3, 8320
7, 51685, Pitch_bend_c, 3, 8320
7, 51689, Pitch_bend_c, 3, 8320
7, 51693, Pitch_bend_c, 3, 8192
7, 51698, Pitch_bend_c, 3, 8192
7, 51702, Pitch_bend_c, 3, 8192
7, 51706, Pitch_bend_c, 3, 8064
7, 51710, Pitch_bend_c, 3, 8064
7, 51714, Pitch_bend_c, 3, 8064
7, 51719, Pitch_bend_c, 3, 7936
7, 51723, Pitch_bend_c, 3, 7936
7, 51727, Pitch_bend_c, 3, 7936
7, 51731, Pitch_bend_c, 3, 7936
7, 51735, Pitch_bend_c, 3, 7936
7, 51740, Pitch_bend_c, 3, 7936
7, 51744, Pitch_bend_c, 3, 7936
7, 51748, Pitch_bend_c, 3, 8064
7, 51752, Pitch_bend_c, 3, 8064
7, 51757, Pitch_bend_c, 3, 8064
7, 51761, Pitch_bend_c, 3, 8192
7, 51765, Pitch_bend_c, 3, 8192
7, 51769, Pitch_bend_c, 3, 8192
7, 51773, Pitch_bend_c, 3, 8320
7, 51778, Pitch_bend_c, 3, 8320
7, 51782, Pitch_bend_c, 3, 8320
7, 51786, Pitch_bend_c, 3, 8448
7, 51790, Pitch_bend_c, 3, 8448
7, 51795, Pitch_bend_c, 3, 8448
7, 51799, Pitch_bend_c, 3, 8448
7, 51803, Pitch_bend_c, 3, 8448
7, 51807, Pitch_bend_c, 3, 8448
7, 51811, Pitch_bend_c, 3, 8448
7, 51816, Pitch_bend_c, 3, 8320
7, 51820, Pitch_bend_c, 3, 8320
7, 51824, Pitch_bend_c, 3, 8320
7, 51828, Pitch_bend_c, 3, 8192
7, 51833, Pitch_bend_c, 3, 8192
7, 51837, Pitch_bend_c, 3, 8192
7, 51841, Pitch_bend_c, 3, 8064
7, 51845, Pitch_bend_c, 3, 8064
7, 51849, Pitch_bend_c, 3, 8064
7, 51854, Pitch_bend_c, 3, 7936
7, 51858, Pitch_bend_c, 3, 7936
7, 51862, Pitch_bend_c, 3, 7936
7, 51866, Pitch_bend_c, 3, 7936
7, 51870, Pitch_bend_c, 3, 7936
7, 51875, Pitch_bend_c, 3, 7936
7, 51879, Pitch_bend_c, 3, 7936
7, 51883, Pitch_bend_c, 3, 8064
7, 51887, Pitch_bend_c, 3, 8064
7, 51892, Pitch_bend_c, 3, 8064
7, 51896, Pitch_bend_c, 3, 8192
7, 51900, Pitch_bend_c, 3, 8192
7, 51904, Pitch_bend_c, 3, 8192
7, 51908, Pitch_bend_c, 3, 8320
7, 51913, Pitch_bend_c, 3, 8320
7, 51917, Pitch_bend_c, 3, 8320
7, 51921, Pitch_bend_c, 3, 8448
7, 51925, Pitch_bend_c, 3, 8448
7, 51930, Pitch_bend_c, 3, 8448
7, 51934, Pitch_bend_c, 3, 8448
7, 51938, Pitch_bend_c, 3, 8448
7, 51942, Pitch_bend_c, 3, 8448
7, 51946, Pitch_bend_c, 3, 8448
7, 51951, Pitch_bend_c, 3, 8320
7, 51955, Pitch_bend_c, 3, 8320
7, 51959, Pitch_bend_c, 3, 8320
7, 51963, Pitch_bend_c, 3, 8192
7, 51968, Pitch_bend_c, 3, 8192
7, 51972, Pitch_bend_c, 3, 8192
7, 51976, Pitch_bend_c, 3, 8064
7, 51980, Pitch_bend_c, 3, 8064
7, 51984, Pitch_bend_c, 3, 8064
7, 51989, Pitch_bend_c, 3, 7936
7, 51993, Pitch_bend_c, 3, 7936
7, 51997, Pitch_bend_c, 3, 7936
7, 52001, Pitch_bend_c, 3, 7936
7, 52005, Pitch_bend_c, 3, 7936
7, 52010, Pitch_bend_c, 3, 7936
7, 52014, Pitch_bend_c, 3, 7936
7, 52018, Pitch_bend_c, 3, 8064
7, 52022, Pitch_bend_c, 3, 8064
7, 52027, Pitch_bend_c, 3, 8064
7, 52031, Pitch_bend_c, 3, 8192
7, 52035, Pitch_bend_c, 3, 8192
7, 52039, Pitch_bend_c, 3, 8192
7, 52043, Pitch_bend_c, 3, 8320
7, 52048, Pitch_bend_c, 3, 8320
7, 52052, Pitch_bend_c, 3, 8320
7, 52056, Pitch_bend_c, 3, 8320
7, 52060, Pitch_bend_c, 3, 8448
7, 52065, Pitch_bend_c, 3, 8448
7, 52069, Pitch_bend_c, 3, 8448
7, 52073, Pitch_bend_c, 3, 8448
7, 52077, Pitch_bend_c, 3, 8448
7, 52081, Pitch_bend_c, 3, 8320
7, 52086, Pitch_bend_c, 3, 8320
7, 52090, Pitch_bend_c, 3, 8320
7, 52094, Pitch_bend_c, 3, 8320
7, 52098, Pitch_bend_c, 3, 8192
7, 52103, Pitch_bend_c, 3, 8192
7, 52107, Pitch_bend_c, 3, 8192
7, 52111, Pitch_bend_c, 3, 8064
7, 52115, Pitch_bend_c, 3, 8064
7, 52119, Pitch_bend_c, 3, 8064
7, 52124, Pitch_bend_c, 3, 8064
7, 52128, Pitch_bend_c, 3, 7936
7, 52132, Pitch_bend_c, 3, 7936
7, 52136, Pitch_bend_c, 3, 7936
7, 52140, Pitch_bend_c, 3, 7936
7, 52145, Pitch_bend_c, 3, 7936
7, 52149, Pitch_bend_c, 3, 8064
7, 52153, Pitch_bend_c, 3, 8064
7, 52157, Pitch_bend_c, 3, 8064
7, 52162, Pitch_bend_c, 3, 8064
7, 52166, Pitch_bend_c, 3, 8192
7, 52170, Pitch_bend_c, 3, 8192
7, 52174, Pitch_bend_c, 3, 8192
7, 52178, Pitch_bend_c, 3, 8320
7, 52183, Pitch_bend_c, 3, 8320
7, 52187, Pitch_bend_c, 3, 8320
7, 52191, Pitch_bend_c, 3, 8448
7, 52195, Pitch_bend_c, 3, 8448
7, 52200, Pitch_bend_c, 3, 8448
7, 52204, Pitch_bend_c, 3, 8448
7, 52208, Pitch_bend_c, 3, 8448
7, 52212, Pitch_bend_c, 3, 8448
7, 52216, Pitch_bend_c, 3, 8448
7, 52221, Pitch_bend_c, 3, 8320
7, 52225, Pitch_bend_c, 3, 8320
7, 52229, Pitch_bend_c, 3, 8320
7, 52233, Pitch_bend_c, 3, 8192
7, 52238, Pitch_bend_c, 3, 8192
7, 52242, Pitch_bend_c, 3, 8192
7, 52246, Pitch_bend_c, 3, 8064
7, 52250, Pitch_bend_c, 3, 8064
7, 52254, Pitch_bend_c, 3, 8064
7, 52259, Pitch_bend_c, 3, 7936
7, 52263, Pitch_bend_c, 3, 7936
7, 52267, Pitch_bend_c, 3, 7936
7, 52271, Pitch_bend_c, 3, 7936
7, 52275, Pitch_bend_c, 3, 7936
7, 52280, Pitch_bend_c, 3, 7936
7, 52284, Pitch_bend_c, 3, 7936
7, 52288, Pitch_bend_c, 3, 8064
7, 52292, Pitch_bend_c, 3, 8064
7, 52297, Pitch_bend_c, 3, 8064
7, 52301, Pitch_bend_c, 3, 8192
7, 52305, Pitch_bend_c, 3, 8192
7, 52309, Pitch_bend_c, 3, 8192
7, 52313, Pitch_bend_c, 3, 8320
7, 52318, Pitch_bend_c, 3, 8320
7, 52322, Pitch_bend_c, 3, 8448
7, 52326, Pitch_bend_c, 3, 8448
7, 52330, Pitch_bend_c, 3, 8448
7, 52335, Pitch_bend_c, 3, 8448
7, 52339, Pitch_bend_c, 3, 8448
7, 52343, Pitch_bend_c, 3, 8448
7, 52347, Pitch_bend_c, 3, 8448
7, 52351, Pitch_bend_c, 3, 8448
7, 52356, Pitch_bend_c, 3, 8448
7, 52360, Pitch_bend_c, 3, 8320
7, 52364, Pitch_bend_c, 3, 8320
7, 52368, Pitch_bend_c, 3, 8320
7, 52373, Pitch_bend_c, 3, 8192
7, 52377, Pitch_bend_c, 3, 8064
7, 52381, Pitch_bend_c, 3, 8064
7, 52385, Pitch_bend_c, 3, 8064
7, 52389, Pitch_bend_c, 3, 7936
7, 52394, Pitch_bend_c, 3, 7936
7, 52398, Pitch_bend_c, 3, 7936
7, 52402, Pitch_bend_c, 3, 7936
7, 52406, Pitch_bend_c, 3, 7936
7, 52410, Pitch_bend_c, 3, 7936
7, 52415, Pitch_bend_c, 3, 7936
7, 52419, Pitch_bend_c, 3, 7936
7, 52423, Pitch_bend_c, 3, 7936
7, 52427, Pitch_bend_c, 3, 8064
7, 52432, Pitch_bend_c, 3, 8064
7, 52436, Pitch_bend_c, 3, 8192
7, 52440, Pitch_bend_c, 3, 8192
7, 52444, Pitch_bend_c, 3, 8192
7, 52448, Pitch_bend_c, 3, 8320
7, 52453, Pitch_bend_c, 3, 8320
7, 52457, Pitch_bend_c, 3, 8320
7, 52461, Pitch_bend_c, 3, 8320
7, 52465, Pitch_bend_c, 3, 8320
7, 52470, Pitch_bend_c, 3, 8448
7, 52474, Pitch_bend_c, 3, 8448
7, 52478, Pitch_bend_c, 3, 8448
7, 52482, Pitch_bend_c, 3, 8320
7, 52486, Pitch_bend_c, 3, 8320
7, 52491, Pitch_bend_c, 3, 8320
7, 52495, Pitch_bend_c, 3, 8320
7, 52499, Pitch_bend_c, 3, 8320
7, 52503, Pitch_bend_c, 3, 8192
7, 52508, Pitch_bend_c, 3, 8192
7, 52512, Pitch_bend_c, 3, 8192
7, 52516, Pitch_bend_c, 3, 8064
7, 52520, Pitch_bend_c, 3, 8064
7, 52524, Pitch_bend_c, 3, 8064
7, 52529, Pitch_bend_c, 3, 8064
7, 52533, Pitch_bend_c, 3, 8064
7, 52537, Pitch_bend_c, 3, 7936
7, 52541, Pitch_bend_c, 3, 7936
7, 52545, Pitch_bend_c, 3, 7936
7, 52550, Pitch_bend_c, 3, 8064
7, 52554, Pitch_bend_c, 3, 8064
7, 52558, Pitch_bend_c, 3, 8064
7, 52562, Pitch_bend_c, 3, 8064
7, 52567, Pitch_bend_c, 3, 8064
7, 52571, Pitch_bend_c, 3, 8192
7, 52575, Pitch_bend_c, 3, 8192
7, 52579, Pitch_bend_c, 3, 8192
7, 52583, Pitch_bend_c, 3, 8320
7, 52588, Pitch_bend_c, 3, 8320
7, 52592, Pitch_bend_c, 3, 8320
7, 52596, Pitch_bend_c, 3, 8448
7, 52600, Pitch_bend_c, 3, 8448
7, 52605, Pitch_bend_c, 3, 8448
7, 52609, Pitch_bend_c, 3, 8448
7, 52613, Pitch_bend_c, 3, 8448
7, 52617, Pitch_bend_c, 3, 8448
7, 52621, Pitch_bend_c, 3, 8448
7, 52626, Pitch_bend_c, 3, 8320
7, 52630, Pitch_bend_c, 3, 8320
7, 52634, Pitch_bend_c, 3, 8320
7, 52638, Pitch_bend_c, 3, 8192
7, 52643, Pitch_bend_c, 3, 8192
7, 52647, Pitch_bend_c, 3, 8192
7, 52651, Pitch_bend_c, 3, 8064
7, 52655, Pitch_bend_c, 3, 8064
7, 52659, Pitch_bend_c, 3, 8064
7, 52664, Pitch_bend_c, 3, 7936
7, 52668, Pitch_bend_c, 3, 7936
7, 52672, Pitch_bend_c, 3, 7936
7, 52676, Pitch_bend_c, 3, 7936
7, 52680, Pitch_bend_c, 3, 7936
7, 52685, Pitch_bend_c, 3, 7936
7, 52689, Pitch_bend_c, 3, 7936
7, 52693, Pitch_bend_c, 3, 8064
7, 52697, Pitch_bend_c, 3, 8064
7, 52702, Pitch_bend_c, 3, 8064
7, 52706, Pitch_bend_c, 3, 8192
7, 52710, Pitch_bend_c, 3, 8192
7, 52714, Pitch_bend_c, 3, 8192
7, 52718, Pitch_bend_c, 3, 8192
7, 52723, Pitch_bend_c, 3, 8192
7, 52727, Pitch_bend_c, 3, 8320
7, 52731, Pitch_bend_c, 3, 8320
7, 52735, Pitch_bend_c, 3, 8320
7, 52740, Pitch_bend_c, 3, 8320
7, 52744, Pitch_bend_c, 3, 8320
7, 52748, Pitch_bend_c, 3, 8320
7, 52752, Pitch_bend_c, 3, 8320
7, 52756, Pitch_bend_c, 3, 8320
7, 52761, Pitch_bend_c, 3, 8320
7, 52765, Pitch_bend_c, 3, 8192
7, 52769, Pitch_bend_c, 3, 8192
7, 52773, Pitch_bend_c, 3, 8192
7, 52778, Pitch_bend_c, 3, 8192
7, 52782, Pitch_bend_c, 3, 8192
7, 52786, Pitch_bend_c, 3, 8192
7, 52790, Pitch_bend_c, 3, 8192
7, 52794, Pitch_bend_c, 3, 8064
7, 52799, Pitch_bend_c, 3, 8064
7, 52800, Note_off_c, 3, 69, 80
7, 52800, Pitch_bend_c, 3, 8192
7, 55200, Note_on_c, 3, 69, 95
7, 55200, Pitch_bend_c, 3, 8192
7, 55204, Pitch_bend_c, 3, 8192
7, 55208, Pitch_bend_c, 3, 8192
7, 55213, Pitch_bend_c, 3, 8192
7, 55217, Pitch_bend_c, 3, 8192
7, 55221, Pitch_bend_c, 3, 8192
7, 55225, Pitch_bend_c, 3, 8192
7, 55230, Pitch_bend_c, 3, 8192
7, 55234, Pitch_bend_c, 3, 8192
7, 55238, Pitch_bend_c, 3, 8192
7, 55242, Pitch_bend_c, 3, 8192
7, 55246, Pitch_bend_c, 3, 8192
7, 55251, Pitch_bend_c, 3, 8192
7, 55255, Pitch_bend_c, 3, 8192
7, 55259, Pitch_bend_c, 3, 8192
7, 55263, Pitch_bend_c, 3, 8192
7, 55268, Pitch_bend_c, 3, 8192
7, 55272, Pitch_bend_c, 3, 8192
7, 55276, Pitch_bend_c, 3, 8192
7, 55280, Pitch_bend_c, 3, 8192
7, 55284, Pitch_bend_c, 3, 8192
7, 55289, Pitch_bend_c, 3, 8192
7, 55293, Pitch_bend_c, 3, 8192
7, 55297, Pitch_bend_c, 3, 8192
7, 55301, Pitch_bend_c, 3, 8192
7, 55305, Pitch_bend_c, 3, 8192
7, 55310, Pitch_bend_c, 3, 8192
7, 55314, Pitch_bend_c, 3, 8192
7, 55318, Pitch_bend_c, 3, 8192
7, 55322, Pitch_bend_c, 3, 8192
7, 55327, Pitch_bend_c, 3, 8192
7, 55331, Pitch_bend_c, 3, 8192
7, 55335, Pitch_bend_c, 3, 8192
7, 55339, Pitch_bend_c, 3, 8192
7, 55343, Pitch_bend_c, 3, 8192
7, 55348, Pitch_bend_c, 3, 8192
7, 55352, Pitch_bend_c, 3, 8192
7, 55356, Pitch_bend_c, 3, 8320
7, 55360, Pitch_bend_c, 3, 8320
7, 55365, Pitch_bend_c, 3, 8320
7, 55369, Pitch_bend_c, 3, 8320
7, 55373, Pitch_bend_c, 3, 8320
7, 55377, Pitch_bend_c, 3, 8320
7, 55381, Pitch_bend_c, 3, 8320
7, 55386, Pitch_bend_c, 3, 8192
7, 55390, Pitch_bend_c, 3, 8192
7, 55394, Pitch_bend_c, 3, 8192
7, 55398, Pitch_bend_c, 3, 8192
7, 55403, Pitch_bend_c, 3, 8192
7, 55407, Pitch_bend_c, 3, 8192
7, 55411, Pitch_bend_c, 3, 8192
7, 55415, Pitch_bend_c, 3, 8192
7, 55419, Pitch_bend_c, 3, 8192
7, 55424, Pitch_bend_c, 3, 8064
7, 55428, Pitch_bend_c, 3, 8064
7, 55432, Pitch_bend_c, 3, 8064
7, 55436, Pitch_bend_c, 3, 8064
7, 55440, Pitch_bend_c, 3, 8064
7, 55445, Pitch_bend_c, 3, 8064
7, 55449, Pitch_bend_c, 3, 8064
7, 55453, Pitch_bend_c, 3, 8192
7, 55457, Pitch_bend_c, 3, 8192
7, 55462, Pitch_bend_c, 3, 8192
7, 55466, Pitch_bend_c, 3, 8192
7, 55470, Pitch_bend_c, 3, 8192
7, 55474, Pitch_bend_c, 3, 8192
7, 55478, Pitch_bend_c, 3, 8320
7, 55483, Pitch_bend_c, 3, 8320
7, 55487, Pitch_bend_c, 3, 8320
7, 55491, Pitch_bend_c, 3, 8448
7, 55495, Pitch_bend_c, 3, 8448
7, 55500, Pitch_bend_c, 3, 8448
7, 55504, Pitch_bend_c, 3, 8448
7, 55508, Pitch_bend_c, 3, 8448
7, 55512, Pitch_bend_c, 3, 8448
7, 55516, Pitch_bend_c, 3, 8448
7, 55521, Pitch_bend_c, 3, 8320
7, 55525, Pitch_bend_c, 3, 8320
7, 55529, Pitch_bend_c, 3, 8320
7, 55533, Pitch_bend_c, 3, 8192
7, 55538, Pitch_bend_c, 3, 8192
7, 55542, Pitch_bend_c, 3, 8192
7, 55546, Pitch_bend_c, 3, 8064
7, 55550, Pitch_bend_c, 3, 8064
7, 55554, Pitch_bend_c, 3, 8064
7, 55559, Pitch_bend_c, 3, 7936
7, 55563, Pitch_bend_c, 3, 7936
7, 55567, Pitch_bend_c, 3, 7936
7, 55571, Pitch_bend_c, 3, 7936
7, 55575, Pitch_bend_c, 3, 7936
7, 55580, Pitch_bend_c, 3, 7936
7, 55584, Pitch_bend_c, 3, 7936
7, 55588, Pitch_bend_c, 3, 8064
7, 55592, Pitch_bend_c, 3, 8064
7, 55597, Pitch_bend_c, 3, 8064
7, 55601, Pitch_bend_c, 3, 8192
7, 55605, Pitch_bend_c, 3, 8192
7, 55609, Pitch_bend_c, 3, 8192
7, 55613, Pitch_bend_c, 3, 8320
7, 55618, Pitch_bend_c, 3, 8320
7, 55622, Pitch_bend_c, 3, 8320
7, 55626, Pitch_bend_c, 3, 8448
7, 55630, Pitch_bend_c, 3, 8448
7, 55635, Pitch_bend_c, 3, 8448
7, 55639, Pitch_bend_c, 3, 8448
7, 55643, Pitch_bend_c, 3, 8448
7, 55647, Pitch_bend_c, 3, 8448
7, 55651, Pitch_bend_c, 3, 8448
7, 55656, Pitch_bend_c, 3, 8320
7, 55660, Pitch_bend_c, 3, 8320
7, 55664, Pitch_bend_c, 3, 8320
7, 55668, Pitch_bend_c, 3, 8192
7, 55673, Pitch_bend_c, 3, 8192
7, 55677, Pitch_bend_c, 3, 8192
7, 55681, Pitch_bend_c, 3, 8064
7, 55685, Pitch_bend_c, 3, 8064
7, 55689, Pitch_bend_c, 3, 8064
7, 55694, Pitch_bend_c, 3, 7936
7, 55698, Pitch_bend_c, 3, 7936
7, 55702, Pitch_bend_c, 3, 7936
7, 55706, Pitch_bend_c, 3, 7936
7, 55710, Pitch_bend_c, 3, 7936
7, 55715, Pitch_bend_c, 3, 7936
7, 55719, Pitch_bend_c, 3, 7936
7, 55723, Pitch_bend_c, 3, 8064
7, 55727, Pitch_bend_c, 3, 8064
7, 55732, Pitch_bend_c, 3, 8064
7, 55736, Pitch_bend_c, 3, 8192
7, 55740, Pitch_bend_c, 3, 8192
7, 55744, Pitch_bend_c, 3, 8192
7, 55748, Pitch_bend_c, 3, 8320
7, 55753, Pitch_bend_c, 3, 8320
7, 55757, Pitch_bend_c, 3, 8320
7, 55761, Pitch_bend_c, 3, 8320
7, 55765, Pitch_bend_c, 3, 8448
7, 55770, Pitch_bend_c, 3, 8448
7, 55774, Pitch_bend_c, 3, 8448
7, 55778, Pitch_bend_c, 3, 8448
7, 55782, Pitch_bend_c, 3, 8448
7, 55786, Pitch_bend_c, 3, 8320
7, 55791, Pitch_bend_c, 3, 8320
7, 55795, Pitch_bend_c, 3, 8320
7, 55799, Pitch_bend_c, 3, 8320
7, 55803, Pitch_bend_c, 3, 8192
7, 55808, Pitch_bend_c, 3, 8192
7, 55812, Pitch_bend_c, 3, 8192
7, 55816, Pitch_bend_c, 3, 8064
7, 55820, Pitch_bend_c, 3, 8064
7, 55824, Pitch_bend_c, 3, 8064
7, 55829, Pitch_bend_c, 3, 8064
7, 55833, Pitch_bend_c, 3, 7936
7, 55837, Pitch_bend_c, 3, 7936
7, 55841, Pitch_bend_c, 3, 7936
7, 55845, Pitch_bend_c, 3, 7936
7, 55850, Pitch_bend_c, 3, 7936
7, 55854, Pitch_bend_c, 3, 8064
7, 55858, Pitch_bend_c, 3, 8064
7, 55862, Pitch_bend_c, 3, 8064
7, 55867, Pitch_bend_c, 3, 8064
7, 55871, Pitch_bend_c, 3, 8192
7, 55875, Pitch_bend_c, 3, 8192
7, 55879, Pitch_bend_c, 3, 8192
7, 55883, Pitch_bend_c, 3, 8320
7, 55888, Pitch_bend_c, 3, 8320
7, 55892, Pitch_bend_c, 3, 8320
7, 55896, Pitch_bend_c, 3, 8448
7, 55900, Pitch_bend_c, 3, 8448
7, 55905, Pitch_bend_c, 3, 8448
7, 55909, Pitch_bend_c, 3, 8448
7, 55913, Pitch_bend_c, 3, 8448
7, 55917, Pitch_bend_c, 3, 8448
7, 55921, Pitch_bend_c, 3, 8448
7, 55926, Pitch_bend_c, 3, 8320
7, 55930, Pitch_bend_c, 3, 8320
7, 55934, Pitch_bend_c, 3, 8320
7, 55938, Pitch_bend_c, 3, 8192
7, 55943, Pitch_bend_c, 3, 8192
7, 55947, Pitch_bend_c, 3, 8192
7, 55951, Pitch_bend_c, 3, 8064
7, 55955, Pitch_bend_c, 3, 8064
7, 55959, Pitch_bend_c, 3, 8064
7, 55964, Pitch_bend_c, 3, 7936
7, 55968, Pitch_bend_c, 3, 7936
7, 55972, Pitch_bend_c, 3, 7936
7, 55976, Pitch_bend_c, 3, 7936
7, 55980, Pitch_bend_c, 3, 7936
7, 55985, Pitch_bend_c, 3, 7936
7, 55989, Pitch_bend_c, 3, 7936
7, 55993, Pitch_bend_c, 3, 8064
7, 55997, Pitch_bend_c, 3, 8064
7, 56002, Pitch_bend_c, 3, 8064
7, 56006, Pitch_bend_c, 3, 8192
7, 56010, Pitch_bend_c, 3, 8192
7, 56014, Pitch_bend_c, 3, 8192
7, 56018, Pitch_bend_c, 3, 8320
7, 56023, Pitch_bend_c, 3, 8320
7, 56027, Pitch_bend_c, 3, 8320
7, 56031, Pitch_bend_c, 3, 8320
7, 56035, Pitch_bend_c, 3, 8320
7, 56040, Pitch_bend_c, 3, 8320
7, 56044, Pitch_bend_c, 3, 8320
7, 56048, Pitch_bend_c, 3, 8320
7, 56052, Pitch_bend_c, 3, 8320
7, 56056, Pitch_bend_c, 3, 8320
7, 56061, Pitch_bend_c, 3, 8320
7, 56065, Pitch_bend_c, 3, 8320
7, 56069, Pitch_bend_c, 3, 8320
7, 56073, Pitch_bend_c, 3, 8192
7, 56078, Pitch_bend_c, 3, 8192
7, 56082, Pitch_bend_c, 3, 8192
7, 56086, Pitch_bend_c, 3, 8064
7, 56090, Pitch_bend_c, 3, 8064
7, 56094, Pitch_bend_c, 3, 8064
7, 56099, Pitch_bend_c, 3, 8064
7, 56103, Pitch_bend_c, 3, 8064
7, 56107, Pitch_bend_c, 3, 8064
7, 56111, Pitch_bend_c, 3, 8064
7, 56115, Pitch_bend_c, 3, 8064
7, 56120, Pitch_bend_c, 3, 8064
7, 56124, Pitch_bend_c, 3, 8064
7, 56128, Pitch_bend_c, 3, 8064
7, 56132, Pitch_bend_c, 3, 8064
7, 56137, Pitch_bend_c, 3, 8064
7, 56141, Pitch_bend_c, 3, 8192
7, 56145, Pitch_bend_c, 3, 8192
7, 56149, Pitch_bend_c, 3, 8192
7, 56153, Pitch_bend_c, 3, 8320
7, 56158, Pitch_bend_c, 3, 8320
7, 56162, Pitch_bend_c, 3, 8320
7, 56166, Pitch_bend_c, 3, 8448
7, 56170, Pitch_bend_c, 3, 8448
7, 56175, Pitch_bend_c, 3, 8448
7, 56179, Pitch_bend_c, 3, 8448
7, 56183, Pitch_bend_c, 3, 8448
7, 56187, Pitch_bend_c, 3, 8448
7, 56191, Pitch_bend_c, 3, 8448
7, 56196, Pitch_bend_c, 3, 8320
7, 56200, Pitch_bend_c, 3, 8320
7, 56204, Pitch_bend_c, 3, 8320
7, 56208, Pitch_bend_c, 3, 8192
7, 56213, Pitch_bend_c, 3, 8192
7, 56217, Pitch_bend_c, 3, 8192
7, 56221, Pitch_bend_c, 3, 8064
7, 56225, Pitch_bend_c, 3, 8064
7, 56229, Pitch_bend_c, 3, 8064
7, 56234, Pitch_bend_c, 3, 7936
7, 56238, Pitch_bend_c, 3, 7936
7, 56242, Pitch_bend_c, 3, 7936
7, 56246, Pitch_bend_c, 3, 7936
7, 56250, Pitch_bend_c, 3, 7936
7, 56255, Pitch_bend_c, 3, 7936
7, 56259, Pitch_bend_c, 3, 7936
7, 56263, Pitch_bend_c, 3, 8064
7, 56267, Pitch_bend_c, 3, 8064
7, 56272, Pitch_bend_c, 3, 8064
7, 56276, Pitch_bend_c, 3, 8192
7, 56280, Pitch_bend_c, 3, 8192
7, 56284, Pitch_bend_c, 3, 8192
7, 56288, Pitch_bend_c, 3, 8320
7, 56293, Pitch_bend_c, 3, 8320
7, 56297, Pitch_bend_c, 3, 8320
7, 56301, Pitch_bend_c, 3, 8320
7, 56305, Pitch_bend_c, 3, 8448
7, 56310, Pitch_bend_c, 3, 8448
7, 56314, Pitch_bend_c, 3, 8448
7, 56318, Pitch_bend_c, 3, 8448
7, 56322, Pitch_bend_c, 3, 8448
7, 56326, Pitch_bend_c, 3, 8320
7, 56331, Pitch_bend_c, 3, 8320
7, 56335, Pitch_bend_c, 3, 8320
7, 56339, Pitch_bend_c, 3, 8320
7, 56343, Pitch_bend_c, 3, 8192
7, 56348, Pitch_bend_c, 3, 8192
7, 56352, Pitch_bend_c, 3, 8192
7, 56356, Pitch_bend_c, 3, 8064
7, 56360, Pitch_bend_c, 3, 8064
7, 56364, Pitch_bend_c, 3, 8064
7, 56369, Pitch_bend_c, 3, 8064
7, 56373, Pitch_bend_c, 3, 7936
7, 56377, Pitch_bend_c, 3, 7936
7, 56381, Pitch_bend_c, 3, 7936
7, 56385, Pitch_bend_c, 3, 7936
7, 56390, Pitch_bend_c, 3, 7936
7, 56394, Pitch_bend_c, 3, 8064
7, 56398, Pitch_bend_c, 3, 8064
7, 56402, Pitch_bend_c, 3, 8064
7, 56407, Pitch_bend_c, 3, 8064
7, 56411, Pitch_bend_c, 3, 8192
7, 56415, Pitch_bend_c, 3, 8192
7, 56419, Pitch_bend_c, 3, 8192
7, 56423, Pitch_bend_c, 3, 8320
7, 56428, Pitch_bend_c, 3, 8320
7, 56432, Pitch_bend_c, 3, 8320
7, 56436, Pitch_bend_c, 3, 8320
7, 56440, Pitch_bend_c, 3, 8448
7, 56445, Pitch_bend_c, 3, 8448
7, 56449, Pitch_bend_c, 3, 8448
7, 56453, Pitch_bend_c, 3, 8448
7, 56457, Pitch_bend_c, 3, 8448
7, 56461, Pitch_bend_c, 3, 8320
7, 56466, Pitch_bend_c, 3, 8320
7, 56470, Pitch_bend_c, 3, 8320
7, 56474, Pitch_bend_c, 3, 8320
7, 56478, Pitch_bend_c, 3, 8192
7, 56483, Pitch_bend_c, 3, 8192
7, 56487, Pitch_bend_c, 3, 8192
7, 56491, Pitch_bend_c, 3, 8064
7, 56495, Pitch_bend_c, 3, 8064
7, 56499, Pitch_bend_c, 3, 8064
7, 56504, Pitch_bend_c, 3, 8064
7, 56508, Pitch_bend_c, 3, 7936
7, 56512, Pitch_bend_c, 3, 7936
7, 56516, Pitch_bend_c, 3, 7936
7, 56520, Pitch_bend_c, 3, 7936
7, 56525, Pitch_bend_c, 3, 7936
7, 56529, Pitch_bend_c, 3, 8064
7, 56533, Pitch_bend_c, 3, 8064
7, 56537, Pitch_bend_c, 3, 8064
7, 56542, Pitch_bend_c, 3, 8064
7, 56546, Pitch_bend_c, 3, 8192
7, 56550, Pitch_bend_c, 3, 8192
7, 56554, Pitch_bend_c, 3, 8192
7, 56558, Pitch_bend_c, 3, 8320
7, 56563, Pitch_bend_c, 3, 8320
7, 56567, Pitch_bend_c, 3, 8320
7, 56571, Pitch_bend_c, 3, 8320
7, 56575, Pitch_bend_c, 3, 8448
7, 56580, Pitch_bend_c, 3, 8448
7, 56584, Pitch_bend_c, 3, 8448
7, 56588, Pitch_bend_c, 3, 8448
7, 56592, Pitch_bend_c, 3, 8448
7, 56596, Pitch_bend_c, 3, 8320
7, 56601, Pitch_bend_c, 3, 8320
7, 56605, Pitch_bend_c, 3, 8320
7, 56609, Pitch_bend_c, 3, 8320
7, 56613, Pitch_bend_c, 3, 8192
7, 56618, Pitch_bend_c, 3, 8192
7, 56622, Pitch_bend_c, 3, 8192
7, 56626, Pitch_bend_c, 3, 8064
7, 56630, Pitch_bend_c, 3, 8064
7, 56634, Pitch_bend_c, 3, 8064
7, 56639, Pitch_bend_c, 3, 8064
7, 56643, Pitch_bend_c, 3, 7936
7, 56647, Pitch_bend_c, 3, 7936
7, 56651, Pitch_bend_c, 3, 7936
7, 56655, Pitch_bend_c, 3, 7936
7, 56660, Pitch_bend_c, 3, 7936
7, 56664, Pitch_bend_c, 3, 8064
7, 56668, Pitch_bend_c, 3, 8064
7, 56672, Pitch_bend_c, 3, 8064
7, 56677, Pitch_bend_c, 3, 8064
7, 56681, Pitch_bend_c, 3, 8192
7, 56685, Pitch_bend_c, 3, 8192
7, 56689, Pitch_bend_c, 3, 8192
7, 56693, Pitch_bend_c, 3, 8320
7, 56698, Pitch_bend_c, 3, 8320
7, 56702, Pitch_bend_c, 3, 8320
7, 56706, Pitch_bend_c, 3, 8448
7, 56710, Pitch_bend_c, 3, 8448
7, 56715, Pitch_bend_c, 3, 8448
7, 56719, Pitch_bend_c, 3, 8448
7, 56723, Pitch_bend_c, 3, 8448
7, 56727, Pitch_bend_c, 3, 8448
7, 56731, Pitch_bend_c, 3, 8448
7, 56736, Pitch_bend_c, 3, 8320
7, 56740, Pitch_bend_c, 3, 8320
7, 56744, Pitch_bend_c, 3, 8320
7, 56748, Pitch_bend_c, 3, 8192
7, 56753, Pitch_bend_c, 3, 8192
7, 56757, Pitch_bend_c, 3, 8192
7, 56761, Pitch_bend_c, 3, 8064
7, 56765, Pitch_bend_c, 3, 8064
7, 56769, Pitch_bend_c, 3, 8064
7, 56774, Pitch_bend_c, 3, 7936
7, 56778, Pitch_bend_c, 3, 7936
7, 56782, Pitch_bend_c, 3, 7936
7, 56786, Pitch_bend_c, 3, 7936
7, 56790, Pitch_bend_c, 3, 7936
7, 56795, Pitch_bend_c, 3, 7936
7, 56799, Pitch_bend_c, 3, 7936
7, 56803, Pitch_bend_c, 3, 8064
7, 56807, Pitch_bend_c, 3, 8064
7, 56812, Pitch_bend_c, 3, 8064
7, 56816, Pitch_bend_c, 3, 8192
7, 56820, Pitch_bend_c, 3, 8192
7, 56824, Pitch_bend_c, 3, 8192
7, 56828, Pitch_bend_c, 3, 8320
7, 56833, Pitch_bend_c, 3, 8320
7, 56837, Pitch_bend_c, 3, 8320
7, 56841, Pitch_bend_c, 3, 8320
7, 56845, Pitch_bend_c, 3, 8320
7, 56850, Pitch_bend_c, 3, 8320
7, 56854, Pitch_bend_c, 3, 8320
7, 56858, Pitch_bend_c, 3, 8320
7, 56862, Pitch_bend_c, 3, 8320
7, 56866, Pitch_bend_c, 3, 8320
7, 56871, Pitch_bend_c, 3, 8320
7, 56875, Pitch_bend_c, 3, 8320
7, 56879, Pitch_bend_c, 3, 8320
7, 56883, Pitch_bend_c, 3, 8192
7, 56888, Pitch_bend_c, 3, 8192
7, 56892, Pitch_bend_c, 3, 8192
7, 56896, Pitch_bend_c, 3, 8064
7, 56900, Pitch_bend_c, 3, 8064
7, 56904, Pitch_bend_c, 3, 8064
7, 56909, Pitch_bend_c, 3, 8064
7, 56913, Pitch_bend_c, 3, 8064
7, 56917, Pitch_bend_c, 3, 8064
7, 56921, Pitch_bend_c, 3, 8064
7, 56925, Pitch_bend_c, 3, 8064
7, 56930, Pitch_bend_c, 3, 8064
7, 56934, Pitch_bend_c, 3, 8064
7, 56938, Pitch_bend_c, 3, 8064
7, 56942, Pitch_bend_c, 3, 8064
7, 56947, Pitch_bend_c, 3, 8064
7, 56951, Pitch_bend_c, 3, 8192
7, 56955, Pitch_bend_c, 3, 8192
7, 56959, Pitch_bend_c, 3, 8192
7, 56963, Pitch_bend_c, 3, 8192
7, 56968, Pitch_bend_c, 3, 8192
7, 56972, Pitch_bend_c, 3, 8320
7, 56976, Pitch_bend_c, 3, 8320
7, 56980, Pitch_bend_c, 3, 8320
7, 56985, Pitch_bend_c, 3, 8320
7, 56989, Pitch_bend_c, 3, 8320
7, 56993, Pitch_bend_c, 3, 8320
7, 56997, Pitch_bend_c, 3, 8320
7, 57001, Pitch_bend_c, 3, 8320
7, 57006, Pitch_bend_c, 3, 8320
7, 57010, Pitch_bend_c, 3, 8192
7, 57014, Pitch_bend_c, 3, 8192
7, 57018, Pitch_bend_c, 3, 8192
7, 57023, Pitch_bend_c, 3, 8192
7, 57027, Pitch_bend_c, 3, 8192
7, 57031, Pitch_bend_c, 3, 8192
7, 57035, Pitch_bend_c, 3, 8192
7, 57039, Pitch_bend_c, 3, 8064
7, 57044, Pitch_bend_c, 3, 8064
7, 57048, Pitch_bend_c, 3, 8064
7, 57052, Pitch_bend_c, 3, 8064
7, 57056, Pitch_bend_c, 3, 8064
7, 57060, Pitch_bend_c, 3, 8064
7, 57065, Pitch_bend_c, 3, 8064
7, 57069, Pitch_bend_c, 3, 8064
7, 57073, Pitch_bend_c, 3, 8064
7, 57077, Pitch_bend_c, 3, 8192
7, 57082, Pitch_bend_c, 3, 8192
7, 57086, Pitch_bend_c, 3, 8192
7, 57090, Pitch_bend_c, 3, 8192
7, 57094, Pitch_bend_c, 3, 8192
7, 57098, Pitch_bend_c, 3, 8192
7, 57103, Pitch_bend_c, 3, 8192
7, 57107, Pitch_bend_c, 3, 8192
7, 57111, Pitch_bend_c, 3, 8192
7, 57115, Pitch_bend_c, 3, 8192
7, 57120, Note_off_c, 3, 69, 80
7, 57120, Pitch_bend_c, 3, 8192
7, 59040, Control_c, 2, 7, 80
7, 59040, Control_c, 3, 7, 80
7, 59040, Control_c, 2, 10, 127
7, 59040, Control_c, 3, 10, 127
7, 59040, Note_on_c, 3, 69, 95
7, 59040, Pitch_bend_c, 3, 8192
7, 59044, Pitch_bend_c, 3, 8192
7, 59048, Pitch_bend_c, 3, 8192
7, 59053, Pitch_bend_c, 3, 8192
7, 59057, Pitch_bend_c, 3, 8192
7, 59061, Pitch_bend_c, 3, 8192
7, 59065, Pitch_bend_c, 3, 8192
7, 59070, Pitch_bend_c, 3, 8192
7, 59074, Pitch_bend_c, 3, 8192
7, 59078, Pitch_bend_c, 3, 8192
7, 59082, Pitch_bend_c, 3, 8192
7, 59086, Pitch_bend_c, 3, 8192
7, 59091, Pitch_bend_c, 3, 8192
7, 59095, Pitch_bend_c, 3, 8192
7, 59099, Pitch_bend_c, 3, 8192
7, 59103, Pitch_bend_c, 3, 8192
7, 59108, Pitch_bend_c, 3, 8192
7, 59112, Pitch_bend_c, 3, 8192
7, 59116, Pitch_bend_c, 3, 8192
7, 59120, Pitch_bend_c, 3, 8192
7, 59124, Pitch_bend_c, 3, 8192
7, 59129, Pitch_bend_c, 3, 8192
7, 59133, Pitch_bend_c, 3, 8192
7, 59137, Pitch_bend_c, 3, 8192
7, 59141, Pitch_bend_c, 3, 8192
7, 59145, Pitch_bend_c, 3, 8192
7, 59150, Pitch_bend_c, 3, 8192
7, 59154, Pitch_bend_c, 3, 8192
7, 59158, Pitch_bend_c, 3, 8192
7, 59162, Pitch_bend_c, 3, 8192
7, 59167, Pitch_bend_c, 3, 8192
7, 59171, Pitch_bend_c, 3, 8192
7, 59175, Pitch_bend_c, 3, 8192
7, 59179, Pitch_bend_c, 3, 8192
7, 59183, Pitch_bend_c, 3, 8192
7, 59188, Pitch_bend_c, 3, 8320
7, 59192, Pitch_bend_c, 3, 8320
7, 59196, Pitch_bend_c, 3, 8320
7, 59200, Pitch_bend_c, 3, 8320
7, 59205, Pitch_bend_c, 3, 8320
7, 59209, Pitch_bend_c, 3, 8320
7, 59213, Pitch_bend_c, 3, 8320
7, 59217, Pitch_bend_c, 3, 8320
7, 59221, Pitch_bend_c, 3, 8320
7, 59226, Pitch_bend_c, 3, 8320
7, 59230, Pitch_bend_c, 3, 8192
7, 59234, Pitch_bend_c, 3, 8192
7, 59238, Pitch_bend_c, 3, 8192
7, 59243, Pitch_bend_c, 3, 8192
7, 59247, Pitch_bend_c, 3, 8192
7, 59251, Pitch_bend_c, 3, 8192
7, 59255, Pitch_bend_c, 3, 8192
7, 59259, Pitch_bend_c, 3, 8064
7, 59264, Pitch_bend_c, 3, 8064
7, 59268, Pitch_bend_c, 3, 8064
7, 59272, Pitch_bend_c, 3, 8064
7, 59276, Pitch_bend_c, 3, 8064
7, 59280, Pitch_bend_c, 3, 8064
7, 59285, Pitch_bend_c, 3, 8064
7, 59289, Pitch_bend_c, 3, 8064
7, 59293, Pitch_bend_c, 3, 8064
7, 59297, Pitch_bend_c, 3, 8064
7, 59302, Pitch_bend_c, 3, 8192
7, 59306, Pitch_bend_c, 3, 8192
7, 59310, Pitch_bend_c, 3, 8192
7, 59314, Pitch_bend_c, 3, 8192
7, 59318, Pitch_bend_c, 3, 8320
7, 59323, Pitch_bend_c, 3, 8320
7, 59327, Pitch_bend_c, 3, 8320
7, 59331, Pitch_bend_c, 3, 8320
7, 59335, Pitch_bend_c, 3, 8448
7, 59340, Pitch_bend_c, 3, 8448
7, 59344, Pitch_bend_c, 3, 8448
7, 59348, Pitch_bend_c, 3, 8448
7, 59352, Pitch_bend_c, 3, 8448
7, 59356, Pitch_bend_c, 3, 8320
7, 59361, Pitch_bend_c, 3, 8320
7, 59365, Pitch_bend_c, 3, 8320
7, 59369, Pitch_bend_c, 3, 8320
7, 59373, Pitch_bend_c, 3, 8192
7, 59378, Pitch_bend_c, 3, 8192
7, 59382, Pitch_bend_c, 3, 8192
7, 59386, Pitch_bend_c, 3, 8064
7, 59390, Pitch_bend_c, 3, 8064
7, 59394, Pitch_bend_c, 3, 8064
7, 59399, Pitch_bend_c, 3, 8064
7, 59403, Pitch_bend_c, 3, 7936
7, 59407, Pitch_bend_c, 3, 7936
7, 59411, Pitch_bend_c, 3, 7936
7, 59415, Pitch_bend_c, 3, 7936
7, 59420, Pitch_bend_c, 3, 7936
7, 59424, Pitch_bend_c, 3, 8064
7, 59428, Pitch_bend_c, 3, 8064
7, 59432, Pitch_bend_c, 3, 8064
7, 59437, Pitch_bend_c, 3, 8064
7, 59441, Pitch_bend_c, 3, 8192
7, 59445, Pitch_bend_c, 3, 8192
7, 59449, Pitch_bend_c, 3, 8192
7, 59453, Pitch_bend_c, 3, 8320
7, 59458, Pitch_bend_c, 3, 8320
7, 59462, Pitch_bend_c, 3, 8320
7, 59466, Pitch_bend_c, 3, 8320
7, 59470, Pitch_bend_c, 3, 8320
7, 59475, Pitch_bend_c, 3, 8320
7, 59479, Pitch_bend_c, 3, 8320
7, 59483, Pitch_bend_c, 3, 8320
7, 59487, Pitch_bend_c, 3, 8320
7, 59491, Pitch_bend_c, 3, 8320
7, 59496, Pitch_bend_c, 3, 8320
7, 59500, Pitch_bend_c, 3, 8320
7, 59504, Pitch_bend_c, 3, 8320
7, 59508, Pitch_bend_c, 3, 8192
7, 59513, Pitch_bend_c, 3, 8192
7, 59517, Pitch_bend_c, 3, 8192
7, 59521, Pitch_bend_c, 3, 8064
7, 59525, Pitch_bend_c, 3, 8064
7, 59529, Pitch_bend_c, 3, 8064
7, 59534, Pitch_bend_c, 3, 8064
7, 59538, Pitch_bend_c, 3, 8064
7, 59542, Pitch_bend_c, 3, 8064
7, 59546, Pitch_bend_c, 3, 8064
7, 59550, Pitch_bend_c, 3, 8064
7, 59555, Pitch_bend_c, 3, 8064
7, 59559, Pitch_bend_c, 3, 8064
7, 59563, Pitch_bend_c, 3, 8064
7, 59567, Pitch_bend_c, 3, 8064
7, 59572, Pitch_bend_c, 3, 8064
7, 59576, Pitch_bend_c, 3, 8192
7, 59580, Pitch_bend_c, 3, 8192
7, 59584, Pitch_bend_c, 3, 8192
7, 59588, Pitch_bend_c, 3, 8320
7, 59593, Pitch_bend_c, 3, 8320
7, 59597, Pitch_bend_c, 3, 8320
7, 59601, Pitch_bend_c, 3, 8448
7, 59605, Pitch_bend_c, 3, 8448
7, 59610, Pitch_bend_c, 3, 8448
7, 59614, Pitch_bend_c, 3, 8448
7, 59618, Pitch_bend_c, 3, 8448
7, 59622, Pitch_bend_c, 3, 8448
7, 59626, Pitch_bend_c, 3, 8448
7, 59631, Pitch_bend_c, 3, 8320
7, 59635, Pitch_bend_c, 3, 8320
7, 59639, Pitch_bend_c, 3, 8320
7, 59643, Pitch_bend_c, 3, 8192
7, 59648, Pitch_bend_c, 3, 8192
7, 59652, Pitch_bend_c, 3, 8192
7, 59656, Pitch_bend_c, 3, 8064
7, 59660, Pitch_bend_c, 3, 8064
7, 59664, Pitch_bend_c, 3, 8064
7, 59669, Pitch_bend_c, 3, 7936
7, 59673, Pitch_bend_c, 3, 7936
7, 59677, Pitch_bend_c, 3, 7936
7, 59681, Pitch_bend_c, 3, 7936
7, 59685, Pitch_bend_c, 3, 7936
7, 59690, Pitch_bend_c, 3, 7936
7, 59694, Pitch_bend_c, 3, 7936
7, 59698, Pitch_bend_c, 3, 8064
7, 59702, Pitch_bend_c, 3, 8064
7, 59707, Pitch_bend_c, 3, 8064
7, 59711, Pitch_bend_c, 3, 8192
7, 59715, Pitch_bend_c, 3, 8192
7, 59719, Pitch_bend_c, 3, 8192
7, 59723, Pitch_bend_c, 3, 8320
7, 59728, Pitch_bend_c, 3, 8320
7, 59732, Pitch_bend_c, 3, 8320
7, 59736, Pitch_bend_c, 3, 8320
7, 59740, Pitch_bend_c, 3, 8448
7, 59745, Pitch_bend_c, 3, 8448
7, 59749, Pitch_bend_c, 3, 8448
7, 59753, Pitch_bend_c, 3, 8448
7, 59757, Pitch_bend_c, 3, 8448
7, 59761, Pitch_bend_c, 3, 8320
7, 59766, Pitch_bend_c, 3, 8320
7, 59770, Pitch_bend_c, 3, 8320
7, 59774, Pitch_bend_c, 3, 8320
7, 59778, Pitch_bend_c, 3, 8192
7, 59783, Pitch_bend_c, 3, 8192
7, 59787, Pitch_bend_c, 3, 8192
7, 59791, Pitch_bend_c, 3, 8064
7, 59795, Pitch_bend_c, 3, 8064
7, 59799, Pitch_bend_c, 3, 8064
7, 59804, Pitch_bend_c, 3, 8064
7, 59808, Pitch_bend_c, 3, 7936
7, 59812, Pitch_bend_c, 3, 7936
7, 59816, Pitch_bend_c, 3, 7936
7, 59820, Pitch_bend_c, 3, 7936
7, 59825, Pitch_bend_c, 3, 7936
7, 59829, Pitch_bend_c, 3, 8064
7, 59833, Pitch_bend_c, 3, 8064
7, 59837, Pitch_bend_c, 3, 8064
7, 59842, Pitch_bend_c, 3, 8064
7, 59846, Pitch_bend_c, 3, 8192
7, 59850, Pitch_bend_c, 3, 8192
7, 59854, Pitch_bend_c, 3, 8192
7, 59858, Pitch_bend_c, 3, 8320
7, 59863, Pitch_bend_c, 3, 8320
7, 59867, Pitch_bend_c, 3, 8320
7, 59871, Pitch_bend_c, 3, 8320
7, 59875, Pitch_bend_c, 3, 8448
7, 59880, Pitch_bend_c, 3, 8448
7, 59884, Pitch_bend_c, 3, 8448
7, 59888, Pitch_bend_c, 3, 8448
7, 59892, Pitch_bend_c, 3, 8448
7, 59896, Pitch_bend_c, 3, 8320
7, 59901, Pitch_bend_c, 3, 8320
7, 59905, Pitch_bend_c, 3, 8320
7, 59909, Pitch_bend_c, 3, 8320
7, 59913, Pitch_bend_c, 3, 8192
7, 59918, Pitch_bend_c, 3, 8192
7, 59922, Pitch_bend_c, 3, 8192
7, 59926, Pitch_bend_c, 3, 8064
7, 59930, Pitch_bend_c, 3, 8064
7, 59934, Pitch_bend_c, 3, 8064
7, 59939, Pitch_bend_c, 3, 8064
7, 59943, Pitch_bend_c, 3, 7936
7, 59947, Pitch_bend_c, 3, 7936
7, 59951, Pitch_bend_c, 3, 7936
7, 59955, Pitch_bend_c, 3, 7936
7, 59960, Pitch_bend_c, 3, 7936
7, 59964, Pitch_bend_c, 3, 8064
7, 59968, Pitch_bend_c, 3, 8064
7, 59972, Pitch_bend_c, 3, 8064
7, 59977, Pitch_bend_c, 3, 8064
7, 59981, Pitch_bend_c, 3, 8192
7, 59985, Pitch_bend_c, 3, 8192
7, 59989, Pitch_bend_c, 3, 8192
7, 59993, Pitch_bend_c, 3, 8320
7, 59998, Pitch_bend_c, 3, 8320
7, 60002, Pitch_bend_c, 3, 8320
7, 60006, Pitch_bend_c, 3, 8320
7, 60010, Pitch_bend_c, 3, 8448
7, 60015, Pitch_bend_c, 3, 8448
7, 60019, Pitch_bend_c, 3, 8448
7, 60023, Pitch_bend_c, 3, 8448
7, 60027, Pitch_bend_c, 3, 8448
7, 60031, Pitch_bend_c, 3, 8320
7, 60036, Pitch_bend_c, 3, 8320
7, 60040, Pitch_bend_c, 3, 8320
7, 60044, Pitch_bend_c, 3, 8320
7, 60048, Pitch_bend_c, 3, 8192
7, 60053, Pitch_bend_c, 3, 8192
7, 60057, Pitch_bend_c, 3, 8192
7, 60061, Pitch_bend_c, 3, 8064
7, 60065, Pitch_bend_c, 3, 8064
7, 60069, Pitch_bend_c, 3, 8064
7, 60074, Pitch_bend_c, 3, 8064
7, 60078, Pitch_bend_c, 3, 7936
7, 60082, Pitch_bend_c, 3, 7936
7, 60086, Pitch_bend_c, 3, 7936
7, 60090, Pitch_bend_c, 3, 7936
7, 60095, Pitch_bend_c, 3, 7936
7, 60099, Pitch_bend_c, 3, 8064
7, 60103, Pitch_bend_c, 3, 8064
7, 60107, Pitch_bend_c, 3, 8064
7, 60112, Pitch_bend_c, 3, 8064
7, 60116, Pitch_bend_c, 3, 8192
7, 60120, Pitch_bend_c, 3, 8192
7, 60124, Pitch_bend_c, 3, 8192
7, 60128, Pitch_bend_c, 3, 8320
7, 60133, Pitch_bend_c, 3, 8320
7, 60137, Pitch_bend_c, 3, 8320
7, 60141, Pitch_bend_c, 3, 8320
7, 60145, Pitch_bend_c, 3, 8320
7, 60150, Pitch_bend_c, 3, 8320
7, 60154, Pitch_bend_c, 3, 8320
7, 60158, Pitch_bend_c, 3, 8320
7, 60162, Pitch_bend_c, 3, 8320
7, 60166, Pitch_bend_c, 3, 8320
7, 60171, Pitch_bend_c, 3, 8320
7, 60175, Pitch_bend_c, 3, 8320
7, 60179, Pitch_bend_c, 3, 8320
7, 60183, Pitch_bend_c, 3, 8192
7, 60188, Pitch_bend_c, 3, 8192
7, 60192, Pitch_bend_c, 3, 8192
7, 60196, Pitch_bend_c, 3, 8064
7, 60200, Pitch_bend_c, 3, 8064
7, 60204, Pitch_bend_c, 3, 8064
7, 60209, Pitch_bend_c, 3, 8064
7, 60213, Pitch_bend_c, 3, 8064
7, 60217, Pitch_bend_c, 3, 8064
7, 60221, Pitch_bend_c, 3, 8064
7, 60225, Pitch_bend_c, 3, 8064
7, 60230, Pitch_bend_c, 3, 8064
7, 60234, Pitch_bend_c, 3, 8064
7, 60238, Pitch_bend_c, 3, 8064
7, 60242, Pitch_bend_c, 3, 8064
7, 60247, Pitch_bend_c, 3, 8064
7, 60251, Pitch_bend_c, 3, 8192
7, 60255, Pitch_bend_c, 3, 8192
7, 60259, Pitch_bend_c, 3, 8192
7, 60263, Pitch_bend_c, 3, 8320
7, 60268, Pitch_bend_c, 3, 8320
7, 60272, Pitch_bend_c, 3, 8320
7, 60276, Pitch_bend_c, 3, 8320
7, 60280, Pitch_bend_c, 3, 8320
7, 60285, Pitch_bend_c, 3, 8320
7, 60289, Pitch_bend_c, 3, 8320
7, 60293, Pitch_bend_c, 3, 8320
7, 60297, Pitch_bend_c, 3, 8320
7, 60301, Pitch_bend_c, 3, 8320
7, 60306, Pitch_bend_c, 3, 8320
7, 60310, Pitch_bend_c, 3, 8320
7, 60314, Pitch_bend_c, 3, 8320
7, 60318, Pitch_bend_c, 3, 8192
7, 60323, Pitch_bend_c, 3, 8192
7, 60327, Pitch_bend_c, 3, 8192
7, 60331, Pitch_bend_c, 3, 8064
7, 60335, Pitch_bend_c, 3, 8064
7, 60339, Pitch_bend_c, 3, 8064
7, 60344, Pitch_bend_c, 3, 8064
7, 60348, Pitch_bend_c, 3, 8064
7, 60352, Pitch_bend_c, 3, 8064
7, 60356, Pitch_bend_c, 3, 8064
7, 60360, Pitch_bend_c, 3, 8064
7, 60365, Pitch_bend_c, 3, 8064
7, 60369, Pitch_bend_c, 3, 8064
7, 60373, Pitch_bend_c, 3, 8064
7, 60377, Pitch_bend_c, 3, 8064
7, 60382, Pitch_bend_c, 3, 8064
7, 60386, Pitch_bend_c, 3, 8192
7, 60390, Pitch_bend_c, 3, 8192
7, 60394, Pitch_bend_c, 3, 8192
7, 60398, Pitch_bend_c, 3, 8192
7, 60403, Pitch_bend_c, 3, 8320
7, 60407, Pitch_bend_c, 3, 8320
7, 60411, Pitch_bend_c, 3, 8320
7, 60415, Pitch_bend_c, 3, 8320
7, 60420, Pitch_bend_c, 3, 8320
7, 60424, Pitch_bend_c, 3, 8320
7, 60428, Pitch_bend_c, 3, 8320
7, 60432, Pitch_bend_c, 3, 8320
7, 60436, Pitch_bend_c, 3, 8320
7, 60441, Pitch_bend_c, 3, 8320
7, 60445, Pitch_bend_c, 3, 8320
7, 60449, Pitch_bend_c, 3, 8192
7, 60453, Pitch_bend_c, 3, 8192
7, 60458, Pitch_bend_c, 3, 8192
7, 60462, Pitch_bend_c, 3, 8192
7, 60466, Pitch_bend_c, 3, 8192
7, 60470, Pitch_bend_c, 3, 8064
7, 60474, Pitch_bend_c, 3, 8064
7, 60479, Pitch_bend_c, 3, 8064
7, 60480, Note_off_c, 3, 69, 80
7, 60480, Pitch_bend_c, 3, 8192
7, 62880, Note_on_c, 3, 69, 95
7, 62880, Pitch_bend_c, 3, 8192
7, 62884, Pitch_bend_c, 3, 8192
7, 62888, Pitch_bend_c, 3, 8192
7, 62893, Pitch_bend_c, 3, 8192
7, 62897, Pitch_bend_c, 3, 8192
7, 62901, Pitch_bend_c, 3, 8192
7, 62905, Pitch_bend_c, 3, 8192
7, 62910, Pitch_bend_c, 3, 8192
7, 62914, Pitch_bend_c, 3, 8192
7, 62918, Pitch_bend_c, 3, 8192
7, 62922, Pitch_bend_c, 3, 8192
7, 62926, Pitch_bend_c, 3, 8192
7, 62931, Pitch_bend_c, 3, 8192
7, 62935, Pitch_bend_c, 3, 8192
7, 62939, Pitch_bend_c, 3, 8192
7, 62943, Pitch_bend_c, 3, 8192
7, 62948, Pitch_bend_c, 3, 8192
7, 62952, Pitch_bend_c, 3, 8192
7, 62956, Pitch_bend_c, 3, 8192
7, 62960, Pitch_bend_c, 3, 8192
7, 62964, Pitch_bend_c, 3, 8192
7, 62969, Pitch_bend_c, 3, 8192
7, 62973, Pitch_bend_c, 3, 8192
7, 62977, Pitch_bend_c, 3, 8192
7, 62981, Pitch_bend_c, 3, 8192
7, 62985, Pitch_bend_c, 3, 8192
7, 62990, Pitch_bend_c, 3, 8192
7, 62994, Pitch_bend_c, 3, 8192
7, 62998, Pitch_bend_c, 3, 8192
7, 63002, Pitch_bend_c, 3, 8192
7, 63007, Pitch_bend_c, 3, 8192
7, 63011, Pitch_bend_c, 3, 8192
7, 63015, Pitch_bend_c, 3, 8192
7, 63019, Pitch_bend_c, 3, 8192
7, 63023, Pitch_bend_c, 3, 8192
7, 63028, Pitch_bend_c, 3, 8320
7, 63032, Pitch_bend_c, 3, 8320
7, 63036, Pitch_bend_c, 3, 8320
7, 63040, Pitch_bend_c, 3, 8320
7, 63045, Pitch_bend_c, 3, 8320
7, 63049, Pitch_bend_c, 3, 8320
7, 63053, Pitch_bend_c, 3, 8320
7, 63057, Pitch_bend_c, 3, 8320
7, 63061, Pitch_bend_c, 3, 8320
7, 63066, Pitch_bend_c, 3, 8320
7, 63070, Pitch_bend_c, 3, 8320
7, 63074, Pitch_bend_c, 3, 8192
7, 63078, Pitch_bend_c, 3, 8192
7, 63083, Pitch_bend_c, 3, 8192
7, 63087, Pitch_bend_c, 3, 8192
7, 63091, Pitch_bend_c, 3, 8192
7, 63095, Pitch_bend_c, 3, 8064
7, 63099, Pitch_bend_c, 3, 8064
7, 63104, Pitch_bend_c, 3, 8064
7, 63108, Pitch_bend_c, 3, 8064
7, 63112, Pitch_bend_c, 3, 8064
7, 63116, Pitch_bend_c, 3, 8064
7, 63120, Pitch_bend_c, 3, 8064
7, 63125, Pitch_bend_c, 3, 8064
7, 63129, Pitch_bend_c, 3, 8064
7, 63133, Pitch_bend_c, 3, 8064
7, 63137, Pitch_bend_c, 3, 8064
7, 63142, Pitch_bend_c, 3, 8192
7, 63146, Pitch_bend_c, 3, 8192
7, 63150, Pitch_bend_c, 3, 8192
7, 63154, Pitch_bend_c, 3, 8192
7, 63158, Pitch_bend_c, 3, 8320
7, 63163, Pitch_bend_c, 3, 8320
7, 63167, Pitch_bend_c, 3, 8320
7, 63171, Pitch_bend_c, 3, 8320
7, 63175, Pitch_bend_c, 3, 8320
7, 63180, Pitch_bend_c, 3, 8320
7, 63184, Pitch_bend_c, 3, 8320
7, 63188, Pitch_bend_c, 3, 8320
7, 63192, Pitch_bend_c, 3, 8320
7, 63196, Pitch_bend_c, 3, 8320
7, 63201, Pitch_bend_c, 3, 8320
7, 63205, Pitch_bend_c, 3, 8320
7, 63209, Pitch_bend_c, 3, 8320
7, 63213, Pitch_bend_c, 3, 8192
7, 63218, Pitch_bend_c, 3, 8192
7, 63222, Pitch_bend_c, 3, 8192
7, 63226, Pitch_bend_c, 3, 8064
7, 63230, Pitch_bend_c, 3, 8064
7, 63234, Pitch_bend_c, 3, 8064
7, 63239, Pitch_bend_c, 3, 8064
7, 63243, Pitch_bend_c, 3, 8064
7, 63247, Pitch_bend_c, 3, 8064
7, 63251, Pitch_bend_c, 3, 8064
7, 63255, Pitch_bend_c, 3, 8064
7, 63260, Pitch_bend_c, 3, 8064
7, 63264, Pitch_bend_c, 3, 8064
7, 63268, Pitch_bend_c, 3, 8064
7, 63272, Pitch_bend_c, 3, 8064
7, 63277, Pitch_bend_c, 3, 8064
7, 63281, Pitch_bend_c, 3, 8192
7, 63285, Pitch_bend_c, 3, 8192
7, 63289, Pitch_bend_c, 3, 8192
7, 63293, Pitch_bend_c, 3, 8320
7, 63298, Pitch_bend_c, 3, 8320
7, 63302, Pitch_bend_c, 3, 8320
7, 63306, Pitch_bend_c, 3, 8448
7, 63310, Pitch_bend_c, 3, 8448
7, 63315, Pitch_bend_c, 3, 8448
7, 63319, Pitch_bend_c, 3, 8448
7, 63323, Pitch_bend_c, 3, 8448
7, 63327, Pitch_bend_c, 3, 8448
7, 63331, Pitch_bend_c, 3, 8448
7, 63336, Pitch_bend_c, 3, 8320
7, 63340, Pitch_bend_c, 3, 8320
7, 63344, Pitch_bend_c, 3, 8320
7, 63348, Pitch_bend_c, 3, 8192
7, 63353, Pitch_bend_c, 3, 8192
7, 63357, Pitch_bend_c, 3, 8192
7, 63361, Pitch_bend_c, 3, 8064
7, 63365, Pitch_bend_c, 3, 8064
7, 63369, Pitch_bend_c, 3, 8064
7, 63374, Pitch_bend_c, 3, 7936
7, 63378, Pitch_bend_c, 3, 7936
7, 63382, Pitch_bend_c, 3, 7936
7, 63386, Pitch_bend_c, 3, 7936
7, 63390, Pitch_bend_c, 3, 7936
7, 63395, Pitch_bend_c, 3, 7936
7, 63399, Pitch_bend_c, 3, 7936
7, 63403, Pitch_bend_c, 3, 8064
7, 63407, Pitch_bend_c, 3, 8064
7, 63412, Pitch_bend_c, 3, 8064
7, 63416, Pitch_bend_c, 3, 8192
7, 63420, Pitch_bend_c, 3, 8192
7, 63424, Pitch_bend_c, 3, 8192
7, 63428, Pitch_bend_c, 3, 8320
7, 63433, Pitch_bend_c, 3, 8320
7, 63437, Pitch_bend_c, 3, 8320
7, 63441, Pitch_bend_c, 3, 8320
7, 63445, Pitch_bend_c, 3, 8448
7, 63450, Pitch_bend_c, 3, 8448
7, 63454, Pitch_bend_c, 3, 8448
7, 63458, Pitch_bend_c, 3, 8448
7, 63462, Pitch_bend_c, 3, 8448
7, 63466, Pitch_bend_c, 3, 8320
7, 63471, Pitch_bend_c, 3, 8320
7, 63475, Pitch_bend_c, 3, 8320
7, 63479, Pitch_bend_c, 3, 8320
7, 63483, Pitch_bend_c, 3, 8192
7, 63488, Pitch_bend_c, 3, 8192
7, 63492, Pitch_bend_c, 3, 8192
7, 63496, Pitch_bend_c, 3, 8064
7, 63500, Pitch_bend_c, 3, 8064
7, 63504, Pitch_bend_c, 3, 8064
7, 63509, Pitch_bend_c, 3, 8064
7, 63513, Pitch_bend_c, 3, 7936
7, 63517, Pitch_bend_c, 3, 7936
7, 63521, Pitch_bend_c, 3, 7936
7, 63525, Pitch_bend_c, 3, 7936
7, 63530, Pitch_bend_c, 3, 7936
7, 63534, Pitch_bend_c, 3, 8064
7, 63538, Pitch_bend_c, 3, 8064
7, 63542, Pitch_bend_c, 3, 8064
7, 63547, Pitch_bend_c, 3, 8064
7, 63551, Pitch_bend_c, 3, 8192
7, 63555, Pitch_bend_c, 3, 8192
7, 63559, Pitch_bend_c, 3, 8192
7, 63563, Pitch_bend_c, 3, 8320
7, 63568, Pitch_bend_c, 3, 8320
7, 63572, Pitch_bend_c, 3, 8448
7, 63576, Pitch_bend_c, 3, 8448
7, 63580, Pitch_bend_c, 3, 8448
7, 63585, Pitch_bend_c, 3, 8448
7, 63589, Pitch_bend_c, 3, 8448
7, 63593, Pitch_bend_c, 3, 8448
7, 63597, Pitch_bend_c, 3, 8448
7, 63601, Pitch_bend_c, 3, 8448
7, 63606, Pitch_bend_c, 3, 8448
7, 63610, Pitch_bend_c, 3, 8320
7, 63614, Pitch_bend_c, 3, 8320
7, 63618, Pitch_bend_c, 3, 8192
7, 63623, Pitch_bend_c, 3, 8192
7, 63627, Pitch_bend_c, 3, 8192
7, 63631, Pitch_bend_c, 3, 8064
7, 63635, Pitch_bend_c, 3, 8064
7, 63639, Pitch_bend_c, 3, 7936
7, 63644, Pitch_bend_c, 3, 7936
7, 63648, Pitch_bend_c, 3, 7936
7, 63652, Pitch_bend_c, 3, 7936
7, 63656, Pitch_bend_c, 3, 7936
7, 63660, Pitch_bend_c, 3, 7936
7, 63665, Pitch_bend_c, 3, 7936
7, 63669, Pitch_bend_c, 3, 7936
7, 63673, Pitch_bend_c, 3, 7936
7, 63677, Pitch_bend_c, 3, 8064
7, 63682, Pitch_bend_c, 3, 8064
7, 63686, Pitch_bend_c, 3, 8192
7, 63690, Pitch_bend_c, 3, 8192
7, 63694, Pitch_bend_c, 3, 8192
7, 63698, Pitch_bend_c, 3, 8320
7, 63703, Pitch_bend_c, 3, 8320
7, 63707, Pitch_bend_c, 3, 8448
7, 63711, Pitch_bend_c, 3, 8448
7, 63715, Pitch_bend_c, 3, 8448
7, 63720, Pitch_bend_c, 3, 8448
7, 63724, Pitch_bend_c, 3, 8448
7, 63728, Pitch_bend_c, 3, 8448
7, 63732, Pitch_bend_c, 3, 8448
7, 63736, Pitch_bend_c, 3, 8448
7, 63741, Pitch_bend_c, 3, 8448
7, 63745, Pitch_bend_c, 3, 8320
7, 63749, Pitch_bend_c, 3, 8320
7, 63753, Pitch_bend_c, 3, 8320
7, 63758, Pitch_bend_c, 3, 8192
7, 63762, Pitch_bend_c, 3, 8064
7, 63766, Pitch_bend_c, 3, 8064
7, 63770, Pitch_bend_c, 3, 8064
7, 63774, Pitch_bend_c, 3, 7936
7, 63779, Pitch_bend_c, 3, 7936
7, 63783, Pitch_bend_c, 3, 7936
7, 63787, Pitch_bend_c, 3, 7936
7, 63791, Pitch_bend_c, 3, 7936
7, 63795, Pitch_bend_c, 3, 7936
7, 63800, Pitch_bend_c, 3, 7936
7, 63804, Pitch_bend_c, 3, 7936
7, 63808, Pitch_bend_c, 3, 7936
7, 63812, Pitch_bend_c, 3, 8064
7, 63817, Pitch_bend_c, 3, 8064
7, 63821, Pitch_bend_c, 3, 8192
7, 63825, Pitch_bend_c, 3, 8192
7, 63829, Pitch_bend_c, 3, 8192
7, 63833, Pitch_bend_c, 3, 8320
7, 63838, Pitch_bend_c, 3, 8320
7, 63842, Pitch_bend_c, 3, 8448
7, 63846, Pitch_bend_c, 3, 8448
7, 63850, Pitch_bend_c, 3, 8448
7, 63855, Pitch_bend_c, 3, 8448
7, 63859, Pitch_bend_c, 3, 8448
7, 63863, Pitch_bend_c, 3, 8448
7, 63867, Pitch_bend_c, 3, 8448
7, 63871, Pitch_bend_c, 3, 8448
7, 63876, Pitch_bend_c, 3, 8448
7, 63880, Pitch_bend_c, 3, 8320
7, 63884, Pitch_bend_c, 3, 8320
7, 63888, Pitch_bend_c, 3, 8192
7, 63893, Pitch_bend_c, 3, 8192
7, 63897, Pitch_bend_c, 3, 8192
7, 63901, Pitch_bend_c, 3, 8064
7, 63905, Pitch_bend_c, 3, 8064
7, 63909, Pitch_bend_c, 3, 7936
7, 63914, Pitch_bend_c, 3, 7936
7, 63918, Pitch_bend_c, 3, 7936
7, 63922, Pitch_bend_c, 3, 7936
7, 63926, Pitch_bend_c, 3, 7936
7, 63930, Pitch_bend_c, 3, 7936
7, 63935, Pitch_bend_c, 3, 7936
7, 63939, Pitch_bend_c, 3, 7936
7, 63943, Pitch_bend_c, 3, 7936
7, 63947, Pitch_bend_c, 3, 8064
7, 63952, Pitch_bend_c, 3, 8064
7, 63956, Pitch_bend_c, 3, 8192
7, 63960, Pitch_bend_c, 3, 8192
7, 63964, Pitch_bend_c, 3, 8192
7, 63968, Pitch_bend_c, 3, 8320
7, 63973, Pitch_bend_c, 3, 8320
7, 63977, Pitch_bend_c, 3, 8320
7, 63981, Pitch_bend_c, 3, 8320
7, 63985, Pitch_bend_c, 3, 8448
7, 63990, Pitch_bend_c, 3, 8448
7, 63994, Pitch_bend_c, 3, 8448
7, 63998, Pitch_bend_c, 3, 8448
7, 64002, Pitch_bend_c, 3, 8448
7, 64006, Pitch_bend_c, 3, 8320
7, 64011, Pitch_bend_c, 3, 8320
7, 64015, Pitch_bend_c, 3, 8320
7, 64019, Pitch_bend_c, 3, 8320
7, 64023, Pitch_bend_c, 3, 8192
7, 64028, Pitch_bend_c, 3, 8192
7, 64032, Pitch_bend_c, 3, 8192
7, 64036, Pitch_bend_c, 3, 8064
7, 64040, Pitch_bend_c, 3, 8064
7, 64044, Pitch_bend_c, 3, 8064
7, 64049, Pitch_bend_c, 3, 8064
7, 64053, Pitch_bend_c, 3, 7936
7, 64057, Pitch_bend_c, 3, 7936
7, 64061, Pitch_bend_c, 3, 7936
7, 64065, Pitch_bend_c, 3, 7936
7, 64070, Pitch_bend_c, 3, 7936
7, 64074, Pitch_bend_c, 3, 8064
7, 64078, Pitch_bend_c, 3, 8064
7, 64082, Pitch_bend_c, 3, 8064
7, 64087, Pitch_bend_c, 3, 8064
7, 64091, Pitch_bend_c, 3, 8192
7, 64095, Pitch_bend_c, 3, 8192
7, 64099, Pitch_bend_c, 3, 8192
7, 64103, Pitch_bend_c, 3, 8320
7, 64108, Pitch_bend_c, 3, 8320
7, 64112, Pitch_bend_c, 3, 8320
7, 64116, Pitch_bend_c, 3, 8448
7, 64120, Pitch_bend_c, 3, 8448
7, 64125, Pitch_bend_c, 3, 8448
7, 64129, Pitch_bend_c, 3, 8448
7, 64133, Pitch_bend_c, 3, 8448
7, 64137, Pitch_bend_c, 3, 8448
7, 64141, Pitch_bend_c, 3, 8448
7, 64146, Pitch_bend_c, 3, 8320
7, 64150, Pitch_bend_c, 3, 8320
7, 64154, Pitch_bend_c, 3, 8320
7, 64158, Pitch_bend_c, 3, 8192
7, 64163, Pitch_bend_c, 3, 8192
7, 64167, Pitch_bend_c, 3, 8192
7, 64171, Pitch_bend_c, 3, 8064
7, 64175, Pitch_bend_c, 3, 8064
7, 64179, Pitch_bend_c, 3, 8064
7, 64184, Pitch_bend_c, 3, 7936
7, 64188, Pitch_bend_c, 3, 7936
7, 64192, Pitch_bend_c, 3, 7936
7, 64196, Pitch_bend_c, 3, 7936
7, 64200, Pitch_bend_c, 3, 7936
7, 64205, Pitch_bend_c, 3, 7936
7, 64209, Pitch_bend_c, 3, 7936
7, 64213, Pitch_bend_c, 3, 8064
7, 64217, Pitch_bend_c, 3, 8064
7, 64222, Pitch_bend_c, 3, 8064
7, 64226, Pitch_bend_c, 3, 8192
7, 64230, Pitch_bend_c, 3, 8192
7, 64234, Pitch_bend_c, 3, 8192
7, 64238, Pitch_bend_c, 3, 8192
7, 64243, Pitch_bend_c, 3, 8320
7, 64247, Pitch_bend_c, 3, 8320
7, 64251, Pitch_bend_c, 3, 8320
7, 64255, Pitch_bend_c, 3, 8320
7, 64260, Pitch_bend_c, 3, 8320
7, 64264, Pitch_bend_c, 3, 8320
7, 64268, Pitch_bend_c, 3, 8320
7, 64272, Pitch_bend_c, 3, 8320
7, 64276, Pitch_bend_c, 3, 8320
7, 64281, Pitch_bend_c, 3, 8320
7, 64285, Pitch_bend_c, 3, 8320
7, 64289, Pitch_bend_c, 3, 8192
7, 64293, Pitch_bend_c, 3, 8192
7, 64298, Pitch_bend_c, 3, 8192
7, 64302, Pitch_bend_c, 3, 8192
7, 64306, Pitch_bend_c, 3, 8192
7, 64310, Pitch_bend_c, 3, 8064
7, 64314, Pitch_bend_c, 3, 8064
7, 64319, Pitch_bend_c, 3, 8064
7, 64320, Note_off_c, 3, 69, 80
7, 64320, Pitch_bend_c, 3, 8192
7, 66720, Note_on_c, 3, 69, 95
7, 66720, Pitch_bend_c, 3, 8192
7, 66724, Pitch_bend_c, 3, 8192
7, 66728, Pitch_bend_c, 3, 8192
7, 66733, Pitch_bend_c, 3, 8192
7, 66737, Pitch_bend_c, 3, 8192
7, 66741, Pitch_bend_c, 3, 8192
7, 66745, Pitch_bend_c, 3, 8192
7, 66750, Pitch_bend_c, 3, 8192
7, 66754, Pitch_bend_c, 3, 8192
7, 66758, Pitch_bend_c, 3, 8192
7, 66762, Pitch_bend_c, 3, 8192
7, 66766, Pitch_bend_c, 3, 8192
7, 66771, Pitch_bend_c, 3, 8192
7, 66775, Pitch_bend_c, 3, 8192
7, 66779, Pitch_bend_c, 3, 8192
7, 66783, Pitch_bend_c, 3, 8192
7, 66788, Pitch_bend_c, 3, 8192
7, 66792, Pitch_bend_c, 3, 8192
7, 66796, Pitch_bend_c, 3, 8192
7, 66800, Pitch_bend_c, 3, 8192
7, 66804, Pitch_bend_c, 3, 8192
7, 66809, Pitch_bend_c, 3, 8192
7, 66813, Pitch_bend_c, 3, 8192
7, 66817, Pitch_bend_c, 3, 8192
7, 66821, Pitch_bend_c, 3, 8192
7, 66825, Pitch_bend_c, 3, 8192
7, 66830, Pitch_bend_c, 3, 8192
7, 66834, Pitch_bend_c, 3, 8192
7, 66838, Pitch_bend_c, 3, 8192
7, 66842, Pitch_bend_c, 3, 8192
7, 66847, Pitch_bend_c, 3, 8192
7, 66851, Pitch_bend_c, 3, 8192
7, 66855, Pitch_bend_c, 3, 8192
7, 66859, Pitch_bend_c, 3, 8192
7, 66863, Pitch_bend_c, 3, 8192
7, 66868, Pitch_bend_c, 3, 8320
7, 66872, Pitch_bend_c, 3, 8320
7, 66876, Pitch_bend_c, 3, 8320
7, 66880, Pitch_bend_c, 3, 8320
7, 66885, Pitch_bend_c, 3, 8320
7, 66889, Pitch_bend_c, 3, 8320
7, 66893, Pitch_bend_c, 3, 8320
7, 66897, Pitch_bend_c, 3, 8320
7, 66901, Pitch_bend_c, 3, 8320
7, 66906, Pitch_bend_c, 3, 8320
7, 66910, Pitch_bend_c, 3, 8320
7, 66914, Pitch_bend_c, 3, 8192
7, 66918, Pitch_bend_c, 3, 8192
7, 66923, Pitch_bend_c, 3, 8192
7, 66927, Pitch_bend_c, 3, 8192
7, 66931, Pitch_bend_c, 3, 8192
7, 66935, Pitch_bend_c, 3, 8064
7, 66939, Pitch_bend_c, 3, 8064
7, 66944, Pitch_bend_c, 3, 8064
7, 66948, Pitch_bend_c, 3, 8064
7, 66952, Pitch_bend_c, 3, 8064
7, 66956, Pitch_bend_c, 3, 8064
7, 66960, Pitch_bend_c, 3, 8064
7, 66965, Pitch_bend_c, 3, 8064
7, 66969, Pitch_bend_c, 3, 8064
7, 66973, Pitch_bend_c, 3, 8064
7, 66977, Pitch_bend_c, 3, 8064
7, 66982, Pitch_bend_c, 3, 8192
7, 66986, Pitch_bend_c, 3, 8192
7, 66990, Pitch_bend_c, 3, 8192
7, 66994, Pitch_bend_c, 3, 8192
7, 66998, Pitch_bend_c, 3, 8320
7, 67003, Pitch_bend_c, 3, 8320
7, 67007, Pitch_bend_c, 3, 8320
7, 67011, Pitch_bend_c, 3, 8320
7, 67015, Pitch_bend_c, 3, 8320
7, 67020, Pitch_bend_c, 3, 8320
7, 67024, Pitch_bend_c, 3, 8320
7, 67028, Pitch_bend_c, 3, 8320
7, 67032, Pitch_bend_c, 3, 8320
7, 67036, Pitch_bend_c, 3, 8320
7, 67041, Pitch_bend_c, 3, 8320
7, 67045, Pitch_bend_c, 3, 8320
7, 67049, Pitch_bend_c, 3, 8320
7, 67053, Pitch_bend_c, 3, 8192
7, 67058, Pitch_bend_c, 3, 8192
7, 67062, Pitch_bend_c, 3, 8192
7, 67066, Pitch_bend_c, 3, 8064
7, 67070, Pitch_bend_c, 3, 8064
7, 67074, Pitch_bend_c, 3, 8064
7, 67079, Pitch_bend_c, 3, 8064
7, 67083, Pitch_bend_c, 3, 8064
7, 67087, Pitch_bend_c, 3, 8064
7, 67091, Pitch_bend_c, 3, 8064
7, 67095, Pitch_bend_c, 3, 8064
7, 67100, Pitch_bend_c, 3, 8064
7, 67104, Pitch_bend_c, 3, 8064
7, 67108, Pitch_bend_c, 3, 8064
7, 67112, Pitch_bend_c, 3, 8064
7, 67117, Pitch_bend_c, 3, 8064
7, 67121, Pitch_bend_c, 3, 8192
7, 67125, Pitch_bend_c, 3, 8192
7, 67129, Pitch_bend_c, 3, 8192
7, 67133, Pitch_bend_c, 3, 8320
7, 67138, Pitch_bend_c, 3, 8320
7, 67142, Pitch_bend_c, 3, 8448
7, 67146, Pitch_bend_c, 3, 8448
7, 67150, Pitch_bend_c, 3, 8448
7, 67155, Pitch_bend_c, 3, 8448
7, 67159, Pitch_bend_c, 3, 8448
7, 67163, Pitch_bend_c, 3, 8448
7, 67167, Pitch_bend_c, 3, 8448
7, 67171, Pitch_bend_c, 3, 8448
7, 67176, Pitch_bend_c, 3, 8448
7, 67180, Pitch_bend_c, 3, 8320
7, 67184, Pitch_bend_c, 3, 8320
7, 67188, Pitch_bend_c, 3, 8320
7, 67193, Pitch_bend_c, 3, 8192
7, 67197, Pitch_bend_c, 3, 8064
7, 67201, Pitch_bend_c, 3, 8064
7, 67205, Pitch_bend_c, 3, 8064
7, 67209, Pitch_bend_c, 3, 7936
7, 67214, Pitch_bend_c, 3, 7936
7, 67218, Pitch_bend_c, 3, 7936
7, 67222, Pitch_bend_c, 3, 7936
7, 67226, Pitch_bend_c, 3, 7936
7, 67230, Pitch_bend_c, 3, 7936
7, 67235, Pitch_bend_c, 3, 7936
7, 67239, Pitch_bend_c, 3, 7936
7, 67243, Pitch_bend_c, 3, 7936
7, 67247, Pitch_bend_c, 3, 8064
7, 67252, Pitch_bend_c, 3, 8064
7, 67256, Pitch_bend_c, 3, 8192
7, 67260, Pitch_bend_c, 3, 8192
7, 67264, Pitch_bend_c, 3, 8192
7, 67268, Pitch_bend_c, 3, 8320
7, 67273, Pitch_bend_c, 3, 8320
7, 67277, Pitch_bend_c, 3, 8320
7, 67281, Pitch_bend_c, 3, 8448
7, 67285, Pitch_bend_c, 3, 8448
7, 67290, Pitch_bend_c, 3, 8448
7, 67294, Pitch_bend_c, 3, 8448
7, 67298, Pitch_bend_c, 3, 8448
7, 67302, Pitch_bend_c, 3, 8448
7, 67306, Pitch_bend_c, 3, 8448
7, 67311, Pitch_bend_c, 3, 8320
7, 67315, Pitch_bend_c, 3, 8320
7, 67319, Pitch_bend_c, 3, 8320
7, 67323, Pitch_bend_c, 3, 8192
7, 67328, Pitch_bend_c, 3, 8192
7, 67332, Pitch_bend_c, 3, 8192
7, 67336, Pitch_bend_c, 3, 8064
7, 67340, Pitch_bend_c, 3, 8064
7, 67344, Pitch_bend_c, 3, 8064
7, 67349, Pitch_bend_c, 3, 7936
7, 67353, Pitch_bend_c, 3, 7936
7, 67357, Pitch_bend_c, 3, 7936
7, 67361, Pitch_bend_c, 3, 7936
7, 67365, Pitch_bend_c, 3, 7936
7, 67370, Pitch_bend_c, 3, 7936
7, 67374, Pitch_bend_c, 3, 7936
7, 67378, Pitch_bend_c, 3, 8064
7, 67382, Pitch_bend_c, 3, 8064
7, 67387, Pitch_bend_c, 3, 8064
7, 67391, Pitch_bend_c, 3, 8192
7, 67395, Pitch_bend_c, 3, 8192
7, 67399, Pitch_bend_c, 3, 8192
7, 67403, Pitch_bend_c, 3, 8320
7, 67408, Pitch_bend_c, 3, 8320
7, 67412, Pitch_bend_c, 3, 8320
7, 67416, Pitch_bend_c, 3, 8448
7, 67420, Pitch_bend_c, 3, 8448
7, 67425, Pitch_bend_c, 3, 8448
7, 67429, Pitch_bend_c, 3, 8448
7, 67433, Pitch_bend_c, 3, 8448
7, 67437, Pitch_bend_c, 3, 8448
7, 67441, Pitch_bend_c, 3, 8448
7, 67446, Pitch_bend_c, 3, 8320
7, 67450, Pitch_bend_c, 3, 8320
7, 67454, Pitch_bend_c, 3, 8320
7, 67458, Pitch_bend_c, 3, 8192
7, 67463, Pitch_bend_c, 3, 8192
7, 67467, Pitch_bend_c, 3, 8192
7, 67471, Pitch_bend_c, 3, 8064
7, 67475, Pitch_bend_c, 3, 8064
7, 67479, Pitch_bend_c, 3, 8064
7, 67484, Pitch_bend_c, 3, 7936
7, 67488, Pitch_bend_c, 3, 7936
7, 67492, Pitch_bend_c, 3, 7936
7, 67496, Pitch_bend_c, 3, 7936
7, 67500, Pitch_bend_c, 3, 7936
7, 67505, Pitch_bend_c, 3, 7936
7, 67509, Pitch_bend_c, 3, 7936
7, 67513, Pitch_bend_c, 3, 8064
7, 67517, Pitch_bend_c, 3, 8064
7, 67522, Pitch_bend_c, 3, 8064
7, 67526, Pitch_bend_c, 3, 8192
7, 67530, Pitch_bend_c, 3, 8192
7, 67534, Pitch_bend_c, 3, 8192
7, 67538, Pitch_bend_c, 3, 8320
7, 67543, Pitch_bend_c, 3, 8320
7, 67547, Pitch_bend_c, 3, 8320
7, 67551, Pitch_bend_c, 3, 8448
7, 67555, Pitch_bend_c, 3, 8448
7, 67560, Pitch_bend_c, 3, 8448
7, 67564, Pitch_bend_c, 3, 8448
7, 67568, Pitch_bend_c, 3, 8448
7, 67572, Pitch_bend_c, 3, 8448
7, 67576, Pitch_bend_c, 3, 8448
7, 67581, Pitch_bend_c, 3, 8320
7, 67585, Pitch_bend_c, 3, 8320
7, 67589, Pitch_bend_c, 3, 8320
7, 67593, Pitch_bend_c, 3, 8192
7, 67598, Pitch_bend_c, 3, 8192
7, 67602, Pitch_bend_c, 3, 8192
7, 67606, Pitch_bend_c, 3, 8064
7, 67610, Pitch_bend_c, 3, 8064
7, 67614, Pitch_bend_c, 3, 8064
7, 67619, Pitch_bend_c, 3, 7936
7, 67623, Pitch_bend_c, 3, 7936
7, 67627, Pitch_bend_c, 3, 7936
7, 67631, Pitch_bend_c, 3, 7936
7, 67635, Pitch_bend_c, 3, 7936
7, 67640, Pitch_bend_c, 3, 7936
7, 67644, Pitch_bend_c, 3, 7936
7, 67648, Pitch_bend_c, 3, 8064
7, 67652, Pitch_bend_c, 3, 8064
7, 67657, Pitch_bend_c, 3, 8064
7, 67661, Pitch_bend_c, 3, 8192
7, 67665, Pitch_bend_c, 3, 8192
7, 67669, Pitch_bend_c, 3, 8192
7, 67673, Pitch_bend_c, 3, 8320
7, 67678, Pitch_bend_c, 3, 8320
7, 67682, Pitch_bend_c, 3, 8448
7, 67686, Pitch_bend_c, 3, 8448
7, 67690, Pitch_bend_c, 3, 8448
7, 67695, Pitch_bend_c, 3, 8448
7, 67699, Pitch_bend_c, 3, 8448
7, 67703, Pitch_bend_c, 3, 8448
7, 67707, Pitch_bend_c, 3, 8448
7, 67711, Pitch_bend_c, 3, 8448
7, 67716, Pitch_bend_c, 3, 8448
7, 67720, Pitch_bend_c, 3, 8320
7, 67724, Pitch_bend_c, 3, 8320
7, 67728, Pitch_bend_c, 3, 8320
7, 67733, Pitch_bend_c, 3, 8192
7, 67737, Pitch_bend_c, 3, 8064
7, 67741, Pitch_bend_c, 3, 8064
7, 67745, Pitch_bend_c, 3, 8064
7, 67749, Pitch_bend_c, 3, 7936
7, 67754, Pitch_bend_c, 3, 7936
7, 67758, Pitch_bend_c, 3, 7936
7, 67762, Pitch_bend_c, 3, 7936
7, 67766, Pitch_bend_c, 3, 7936
7, 67770, Pitch_bend_c, 3, 7936
7, 67775, Pitch_bend_c, 3, 7936
7, 67779, Pitch_bend_c, 3, 7936
7, 67783, Pitch_bend_c, 3, 7936
7, 67787, Pitch_bend_c, 3, 8064
7, 67792, Pitch_bend_c, 3, 8064
7, 67796, Pitch_bend_c, 3, 8192
7, 67800, Pitch_bend_c, 3, 8192
7, 67804, Pitch_bend_c, 3, 8192
7, 67808, Pitch_bend_c, 3, 8320
7, 67813, Pitch_bend_c, 3, 8320
7, 67817, Pitch_bend_c, 3, 8320
7, 67821, Pitch_bend_c, 3, 8320
7, 67825, Pitch_bend_c, 3, 8448
7, 67830, Pitch_bend_c, 3, 8448
7, 67834, Pitch_bend_c, 3, 8448
7, 67838, Pitch_bend_c, 3, 8448
7, 67842, Pitch_bend_c, 3, 8448
7, 67846, Pitch_bend_c, 3, 8320
7, 67851, Pitch_bend_c, 3, 8320
7, 67855, Pitch_bend_c, 3, 8320
7, 67859, Pitch_bend_c, 3, 8320
7, 67863, Pitch_bend_c, 3, 8192
7, 67868, Pitch_bend_c, 3, 8192
7, 67872, Pitch_bend_c, 3, 8192
7, 67876, Pitch_bend_c, 3, 8064
7, 67880, Pitch_bend_c, 3, 8064
7, 67884, Pitch_bend_c, 3, 8064
7, 67889, Pitch_bend_c, 3, 8064
7, 67893, Pitch_bend_c, 3, 7936
7, 67897, Pitch_bend_c, 3, 7936
7, 67901, Pitch_bend_c, 3, 7936
7, 67905, Pitch_bend_c, 3, 7936
7, 67910, Pitch_bend_c, 3, 7936
7, 67914, Pitch_bend_c, 3, 8064
7, 67918, Pitch_bend_c, 3, 8064
7, 67922, Pitch_bend_c, 3, 8064
7, 67927, Pitch_bend_c, 3, 8064
7, 67931, Pitch_bend_c, 3, 8192
7, 67935, Pitch_bend_c, 3, 8192
7, 67939, Pitch_bend_c, 3, 8192
7, 67943, Pitch_bend_c, 3, 8320
7, 67948, Pitch_bend_c, 3, 8320
7, 67952, Pitch_bend_c, 3, 8320
7, 67956, Pitch_bend_c, 3, 8448
7, 67960, Pitch_bend_c, 3, 8448
7, 67965, Pitch_bend_c, 3, 8448
7, 67969, Pitch_bend_c, 3, 8448
7, 67973, Pitch_bend_c, 3, 8448
7, 67977, Pitch_bend_c, 3, 8448
7, 67981, Pitch_bend_c, 3, 8448
7, 67986, Pitch_bend_c, 3, 8320
7, 67990, Pitch_bend_c, 3, 8320
7, 67994, Pitch_bend_c, 3, 8320
7, 67998, Pitch_bend_c, 3, 8192
7, 68003, Pitch_bend_c, 3, 8192
7, 68007, Pitch_bend_c, 3, 8192
7, 68011, Pitch_bend_c, 3, 8064
7, 68015, Pitch_bend_c, 3, 8064
7, 68019, Pitch_bend_c, 3, 8064
7, 68024, Pitch_bend_c, 3, 7936
7, 68028, Pitch_bend_c, 3, 7936
7, 68032, Pitch_bend_c, 3, 7936
7, 68036, Pitch_bend_c, 3, 7936
7, 68040, Pitch_bend_c, 3, 7936
7, 68045, Pitch_bend_c, 3, 7936
7, 68049, Pitch_bend_c, 3, 7936
7, 68053, Pitch_bend_c, 3, 8064
7, 68057, Pitch_bend_c, 3, 8064
7, 68062, Pitch_bend_c, 3, 8064
7, 68066, Pitch_bend_c, 3, 8192
7, 68070, Pitch_bend_c, 3, 8192
7, 68074, Pitch_bend_c, 3, 8192
7, 68078, Pitch_bend_c, 3, 8192
7, 68083, Pitch_bend_c, 3, 8192
7, 68087, Pitch_bend_c, 3, 8320
7, 68091, Pitch_bend_c, 3, 8320
7, 68095, Pitch_bend_c, 3, 8320
7, 68100, Pitch_bend_c, 3, 8320
7, 68104, Pitch_bend_c, 3, 8320
7, 68108, Pitch_bend_c, 3, 8320
7, 68112, Pitch_bend_c, 3, 8320
7, 68116, Pitch_bend_c, 3, 8320
7, 68121, Pitch_bend_c, 3, 8320
7, 68125, Pitch_bend_c, 3, 8192
7, 68129, Pitch_bend_c, 3, 8192
7, 68133, Pitch_bend_c, 3, 8192
7, 68138, Pitch_bend_c, 3, 8192
7, 68142, Pitch_bend_c, 3, 8192
7, 68146, Pitch_bend_c, 3, 8192
7, 68150, Pitch_bend_c, 3, 8192
7, 68154, Pitch_bend_c, 3, 8064
7, 68159, Pitch_bend_c, 3, 8064
7, 68160, Note_off_c, 3, 69, 80
7, 68160, Pitch_bend_c, 3, 8192
7, 70560, Control_c, 2, 7, 112
7, 70560, Control_c, 3, 7, 112
7, 70560, Control_c, 2, 10, 127
7, 70560, Control_c, 3, 10, 127
7, 70560, Control_c, 2, 7, 28
7, 70560, Control_c, 3, 7, 28
7, 70560, Pitch_bend_c, 3, 8192
7, 70560, Note_on_c, 3, 69, 95
7, 70560, Pitch_bend_c, 3, 8192
7, 70562, Pitch_bend_c, 3, 8192
7, 70564, Pitch_bend_c, 3, 8192
7, 70565, Pitch_bend_c, 3, 8192
7, 70567, Pitch_bend_c, 3, 8192
7, 70568, Pitch_bend_c, 3, 8192
7, 70569, Pitch_bend_c, 3, 8192
7, 70572, Pitch_bend_c, 3, 8192
7, 70573, Pitch_bend_c, 3, 8192
7, 70574, Pitch_bend_c, 3, 8192
7, 70576, Pitch_bend_c, 3, 8192
7, 70577, Pitch_bend_c, 3, 8192
7, 70579, Pitch_bend_c, 3, 8192
7, 70581, Pitch_bend_c, 3, 8192
7, 70581, Pitch_bend_c, 3, 8192
7, 70583, Pitch_bend_c, 3, 8192
7, 70585, Pitch_bend_c, 3, 8192
7, 70586, Pitch_bend_c, 3, 8192
7, 70588, Pitch_bend_c, 3, 8192
7, 70590, Pitch_bend_c, 3, 8192
7, 70590, Pitch_bend_c, 3, 8192
7, 70593, Pitch_bend_c, 3, 8192
7, 70594, Pitch_bend_c, 3, 8192
7, 70595, Pitch_bend_c, 3, 8192
7, 70598, Pitch_bend_c, 3, 8192
7, 70598, Pitch_bend_c, 3, 8192
7, 70600, Pitch_bend_c, 3, 8192
7, 70602, Pitch_bend_c, 3, 8192
7, 70602, Pitch_bend_c, 3, 8192
7, 70605, Pitch_bend_c, 3, 8192
7, 70606, Pitch_bend_c, 3, 8192
7, 70607, Pitch_bend_c, 3, 8192
7, 70609, Pitch_bend_c, 3, 8192
7, 70611, Pitch_bend_c, 3, 8192
7, 70612, Pitch_bend_c, 3, 8192
7, 70614, Pitch_bend_c, 3, 8192
7, 70615, Pitch_bend_c, 3, 8192
7, 70616, Pitch_bend_c, 3, 8192
7, 70619, Pitch_bend_c, 3, 8192
7, 70619, Pitch_bend_c, 3, 8192
7, 70621, Pitch_bend_c, 3, 8192
7, 70623, Pitch_bend_c, 3, 8192
7, 70623, Pitch_bend_c, 3, 8192
7, 70626, Pitch_bend_c, 3, 8192
7, 70628, Pitch_bend_c, 3, 8192
7, 70628, Pitch_bend_c, 3, 8192
7, 70630, Pitch_bend_c, 3, 8192
7, 70632, Pitch_bend_c, 3, 8192
7, 70633, Pitch_bend_c, 3, 8192
7, 70635, Pitch_bend_c, 3, 8192
7, 70636, Pitch_bend_c, 3, 8192
7, 70637, Pitch_bend_c, 3, 8192
7, 70640, Pitch_bend_c, 3, 8320
7, 70640, Pitch_bend_c, 3, 8192
7, 70642, Pitch_bend_c, 3, 8320
7, 70644, Pitch_bend_c, 3, 8320
7, 70644, Pitch_bend_c, 3, 8192
7, 70647, Pitch_bend_c, 3, 8320
7, 70649, Pitch_bend_c, 3, 8448
7, 70649, Pitch_bend_c, 3, 8192
7, 70651, Pitch_bend_c, 3, 8448
7, 70653, Pitch_bend_c, 3, 8192
7, 70654, Pitch_bend_c, 3, 8448
7, 70656, Pitch_bend_c, 3, 8448
7, 70657, Pitch_bend_c, 3, 8192
7, 70658, Pitch_bend_c, 3, 8448
7, 70661, Pitch_bend_c, 3, 8320
7, 70661, Pitch_bend_c, 3, 8192
7, 70663, Pitch_bend_c, 3, 8320
7, 70665, Pitch_bend_c, 3, 8320
7, 70665, Pitch_bend_c, 3, 8192
7, 70668, Pitch_bend_c, 3, 8320
7, 70670, Pitch_bend_c, 3, 8192
7, 70670, Pitch_bend_c, 3, 8192
7, 70673, Pitch_bend_c, 3, 8192
7, 70674, Pitch_bend_c, 3, 8192
7, 70675, Pitch_bend_c, 3, 8192
7, 70677, Pitch_bend_c, 3, 8064
7, 70678, Pitch_bend_c, 3, 8192
7, 70680, Control_c, 2, 7, 56
7, 70680, Control_c, 3, 7, 56
7, 70680, Pitch_bend_c, 3, 8064
7, 70682, Pitch_bend_c, 3, 8064
7, 70682, Pitch_bend_c, 3, 8192
7, 70684, Pitch_bend_c, 3, 8064
7, 70687, Pitch_bend_c, 3, 7936
7, 70687, Pitch_bend_c, 3, 8192
7, 70689, Pitch_bend_c, 3, 7936
7, 70691, Pitch_bend_c, 3, 7936
7, 70691, Pitch_bend_c, 3, 8192
7, 70694, Pitch_bend_c, 3, 7936
7, 70695, Pitch_bend_c, 3, 8192
7, 70696, Pitch_bend_c, 3, 7936
7, 70698, Pitch_bend_c, 3, 8064
7, 70699, Pitch_bend_c, 3, 8192
7, 70701, Pitch_bend_c, 3, 8064
7, 70703, Pitch_bend_c, 3, 8064
7, 70703, Pitch_bend_c, 3, 8320
7, 70705, Pitch_bend_c, 3, 8064
7, 70708, Pitch_bend_c, 3, 8192
7, 70708, Pitch_bend_c, 3, 8320
7, 70710, Pitch_bend_c, 3, 8192
7, 70712, Pitch_bend_c, 3, 8320
7, 70712, Pitch_bend_c, 3, 8320
7, 70715, Pitch_bend_c, 3, 8448
7, 70716, Pitch_bend_c, 3, 8320
7, 70717, Pitch_bend_c, 3, 8448
7, 70719, Pitch_bend_c, 3, 8576
7, 70720, Pitch_bend_c, 3, 8320
7, 70722, Pitch_bend_c, 3, 8704
7, 70724, Pitch_bend_c, 3, 8704
7, 70725, Pitch_bend_c, 3, 8320
7, 70726, Pitch_bend_c, 3, 8704
7, 70729, Pitch_bend_c, 3, 8704
7, 70729, Pitch_bend_c, 3, 8320
7, 70731, Pitch_bend_c, 3, 8704
7, 70733, Pitch_bend_c, 3, 8704
7, 70733, Pitch_bend_c, 3, 8320
7, 70736, Pitch_bend_c, 3, 8576
7, 70737, Pitch_bend_c, 3, 8320
7, 70738, Pitch_bend_c, 3, 8576
7, 70740, Pitch_bend_c, 3, 8448
7, 70741, Pitch_bend_c, 3, 8320
7, 70743, Pitch_bend_c, 3, 8320
7, 70745, Pitch_bend_c, 3, 8320
7, 70746, Pitch_bend_c, 3, 8320
7, 70748, Pitch_bend_c, 3, 8192
7, 70750, Pitch_bend_c, 3, 8064
7, 70750, Pitch_bend_c, 3, 8320
7, 70752, Pitch_bend_c, 3, 8064
7, 70754, Pitch_bend_c, 3, 8320
7, 70755, Pitch_bend_c, 3, 7936
7, 70757, Pitch_bend_c, 3, 7808
7, 70758, Pitch_bend_c, 3, 8192
7, 70759, Pitch_bend_c, 3, 7808
7, 70762, Pitch_bend_c, 3, 7680
7, 70763, Pitch_bend_c, 3, 8192
7, 70764, Pitch_bend_c, 3, 7680
7, 70766, Pitch_bend_c, 3, 7680
7, 70767, Pitch_bend_c, 3, 8192
7, 70769, Pitch_bend_c, 3, 7680
7, 70771, Pitch_bend_c, 3, 7680
7, 70771, Pitch_bend_c, 3, 8064
7, 70773, Pitch_bend_c, 3, 7680
7, 70775, Pitch_bend_c, 3, 8064
7, 70776, Pitch_bend_c, 3, 7808
7, 70778, Pitch_bend_c, 3, 7936
7, 70779, Pitch_bend_c, 3, 8064
7, 70780, Pitch_bend_c, 3, 7936
7, 70783, Pitch_bend_c, 3, 8064
7, 70784, Pitch_bend_c, 3, 8064
7, 70785, Pitch_bend_c, 3, 8192
7, 70787, Pitch_bend_c, 3, 8320
7, 70788, Pitch_bend_c, 3, 8064
7, 70790, Pitch_bend_c, 3, 8448
7, 70792, Pitch_bend_c, 3, 8448
7, 70792, Pitch_bend_c, 3, 8064
7, 70794, Pitch_bend_c, 3, 8576
7, 70796, Pitch_bend_c, 3, 8064
7, 70797, Pitch_bend_c, 3, 8704
7, 70799, Pitch_bend_c, 3, 8704
7, 70800, Control_c, 2, 7, 84
7, 70800, Control_c, 3, 7, 84
7, 70800, Pitch_bend_c, 3, 8064
7, 70801, Pitch_bend_c, 3, 8704
7, 70804, Pitch_bend_c, 3, 8704
7, 70805, Pitch_bend_c, 3, 8064
7, 70806, Pitch_bend_c, 3, 8704
7, 70808, Pitch_bend_c, 3, 8704
7, 70809, Pitch_bend_c, 3, 8064
7, 70811, Pitch_bend_c, 3, 8704
7, 70813, Pitch_bend_c, 3, 8576
7, 70813, Pitch_bend_c, 3, 8064
7, 70815, Pitch_bend_c, 3, 8576
7, 70817, Pitch_bend_c, 3, 8064
7, 70818, Pitch_bend_c, 3, 8448
7, 70820, Pitch_bend_c, 3, 8320
7, 70822, Pitch_bend_c, 3, 8064
7, 70823, Pitch_bend_c, 3, 8192
7, 70825, Pitch_bend_c, 3, 8064
7, 70826, Pitch_bend_c, 3, 8192
7, 70827, Pitch_bend_c, 3, 7936
7, 70830, Pitch_bend_c, 3, 7808
7, 70830, Pitch_bend_c, 3, 8192
7, 70832, Pitch_bend_c, 3, 7808
7, 70834, Pitch_bend_c, 3, 7680
7, 70834, Pitch_bend_c, 3, 8192
7, 70837, Pitch_bend_c, 3, 7680
7, 70838, Pitch_bend_c, 3, 8320
7, 70839, Pitch_bend_c, 3, 7680
7, 70841, Pitch_bend_c, 3, 7680
7, 70843, Pitch_bend_c, 3, 8320
7, 70844, Pitch_bend_c, 3, 7680
7, 70846, Pitch_bend_c, 3, 7680
7, 70847, Pitch_bend_c, 3, 8320
7, 70848, Pitch_bend_c, 3, 7680
7, 70851, Pitch_bend_c, 3, 7808
7, 70851, Pitch_bend_c, 3, 8320
7, 70853, Pitch_bend_c, 3, 7936
7, 70855, Pitch_bend_c, 3, 7936
7, 70855, Pitch_bend_c, 3, 8448
7, 70858, Pitch_bend_c, 3, 8064
7, 70860, Pitch_bend_c, 3, 8192
7, 70860, Pitch_bend_c, 3, 8448
7, 70862, Pitch_bend_c, 3, 8320
7, 70864, Pitch_bend_c, 3, 8448
7, 70865, Pitch_bend_c, 3, 8448
7, 70867, Pitch_bend_c, 3, 8448
7, 70868, Pitch_bend_c, 3, 8448
7, 70869, Pitch_bend_c, 3, 8576
7, 70872, Pitch_bend_c, 3, 8704
7, 70872, Pitch_bend_c, 3, 8448
7, 70874, Pitch_bend_c, 3, 8704
7, 70876, Pitch_bend_c, 3, 8704
7, 70876, Pitch_bend_c, 3, 8320
7, 70879, Pitch_bend_c, 3, 8704
7, 70881, Pitch_bend_c, 3, 8704
7, 70881, Pitch_bend_c, 3, 8320
7, 70883, Pitch_bend_c, 3, 8704
7, 70885, Pitch_bend_c, 3, 8320
7, 70886, Pitch_bend_c, 3, 8576
7, 70888, Pitch_bend_c, 3, 8576
7, 70889, Pitch_bend_c, 3, 8320
7, 70890, Pitch_bend_c, 3, 8448
7, 70893, Pitch_bend_c, 3, 8320
7, 70893, Pitch_bend_c, 3, 8192
7, 70895, Pitch_bend_c, 3, 8320
7, 70898, Pitch_bend_c, 3, 8192
7, 70898, Pitch_bend_c, 3, 8192
7, 70900, Pitch_bend_c, 3, 8064
7, 70902, Pitch_bend_c, 3, 8064
7, 70902, Pitch_bend_c, 3, 8192
7, 70905, Pitch_bend_c, 3, 7936
7, 70906, Pitch_bend_c, 3, 8064
7, 70907, Pitch_bend_c, 3, 7808
7, 70909, Pitch_bend_c, 3, 7808
7, 70910, Pitch_bend_c, 3, 8064
7, 70912, Pitch_bend_c, 3, 7680
7, 70914, Pitch_bend_c, 3, 7680
7, 70914, Pitch_bend_c, 3, 8064
7, 70916, Pitch_bend_c, 3, 7680
7, 70919, Pitch_bend_c, 3, 7680
7, 70919, Pitch_bend_c, 3, 8064
7, 70920, Control_c, 2, 7, 112
7, 70920, Control_c, 3, 7, 112
7, 70921, Pitch_bend_c, 3, 7680
7, 70923, Pitch_bend_c, 3, 7680
7, 70923, Pitch_bend_c, 3, 7936
7, 70926, Pitch_bend_c, 3, 7808
7, 70927, Pitch_bend_c, 3, 7936
7, 70928, Pitch_bend_c, 3, 7936
7, 70930, Pitch_bend_c, 3, 7936
7, 70931, Pitch_bend_c, 3, 7936
7, 70933, Pitch_bend_c, 3, 8064
7, 70935, Pitch_bend_c, 3, 8192
7, 70935, Pitch_bend_c, 3, 7936
7, 70937, Pitch_bend_c, 3, 8320
7, 70940, Pitch_bend_c, 3, 8448
7, 70940, Pitch_bend_c, 3, 7936
7, 70942, Pitch_bend_c, 3, 8448
7, 70944, Pitch_bend_c, 3, 8576
7, 70944, Pitch_bend_c, 3, 8064
7, 70947, Pitch_bend_c, 3, 8576
7, 70948, Pitch_bend_c, 3, 8064
7, 70949, Pitch_bend_c, 3, 8704
7, 70951, Pitch_bend_c, 3, 8704
7, 70952, Pitch_bend_c, 3, 8064
7, 70954, Pitch_bend_c, 3, 8704
7, 70956, Pitch_bend_c, 3, 8704
7, 70957, Pitch_bend_c, 3, 8064
7, 70958, Pitch_bend_c, 3, 8704
7, 70961, Pitch_bend_c, 3, 8576
7, 70961, Pitch_bend_c, 3, 8192
7, 70963, Pitch_bend_c, 3, 8576
7, 70965, Pitch_bend_c, 3, 8448
7, 70965, Pitch_bend_c, 3, 8192
7, 70968, Pitch_bend_c, 3, 8320
7, 70969, Pitch_bend_c, 3, 8192
7, 70970, Pitch_bend_c, 3, 8320
7, 70973, Pitch_bend_c, 3, 8192
7, 70973, Pitch_bend_c, 3, 8320
7, 70975, Pitch_bend_c, 3, 8064
7, 70977, Pitch_bend_c, 3, 8064
7, 70978, Pitch_bend_c, 3, 8320
7, 70980, Pitch_bend_c, 3, 7936
7, 70982, Pitch_bend_c, 3, 7808
7, 70982, Pitch_bend_c, 3, 8320
7, 70984, Pitch_bend_c, 3, 7808
7, 70986, Pitch_bend_c, 3, 8448
7, 70987, Pitch_bend_c, 3, 7680
7, 70989, Pitch_bend_c, 3, 7680
7, 70990, Pitch_bend_c, 3, 8448
7, 70991, Pitch_bend_c, 3, 7680
7, 70994, Pitch_bend_c, 3, 7680
7, 70995, Pitch_bend_c, 3, 8448
7, 70996, Pitch_bend_c, 3, 7680
7, 70998, Pitch_bend_c, 3, 7808
7, 70999, Pitch_bend_c, 3, 8448
7, 71001, Pitch_bend_c, 3, 7808
7, 71003, Pitch_bend_c, 3, 7936
7, 71003, Pitch_bend_c, 3, 8448
7, 71005, Pitch_bend_c, 3, 7936
7, 71007, Pitch_bend_c, 3, 8448
7, 71008, Pitch_bend_c, 3, 8064
7, 71010, Pitch_bend_c, 3, 8192
7, 71011, Pitch_bend_c, 3, 8448
7, 71012, Pitch_bend_c, 3, 8320
7, 71015, Pitch_bend_c, 3, 8448
7, 71016, Pitch_bend_c, 3, 8320
7, 71017, Pitch_bend_c, 3, 8448
7, 71019, Pitch_bend_c, 3, 8576
7, 71020, Pitch_bend_c, 3, 8320
7, 71022, Pitch_bend_c, 3, 8576
7, 71024, Pitch_bend_c, 3, 8704
7, 71024, Pitch_bend_c, 3, 8320
7, 71026, Pitch_bend_c, 3, 8704
7, 71028, Pitch_bend_c, 3, 8192
7, 71029, Pitch_bend_c, 3, 8704
7, 71031, Pitch_bend_c, 3, 8704
7, 71033, Pitch_bend_c, 3, 8704
7, 71033, Pitch_bend_c, 3, 8192
7, 71036, Pitch_bend_c, 3, 8576
7, 71037, Pitch_bend_c, 3, 8192
7, 71038, Pitch_bend_c, 3, 8576
7, 71040, Pitch_bend_c, 3, 8448
7, 71041, Pitch_bend_c, 3, 8064
7, 71043, Pitch_bend_c, 3, 8320
7, 71045, Pitch_bend_c, 3, 8320
7, 71045, Pitch_bend_c, 3, 8064
7, 71048, Pitch_bend_c, 3, 8192
7, 71049, Pitch_bend_c, 3, 8064
7, 71050, Pitch_bend_c, 3, 8064
7, 71052, Pitch_bend_c, 3, 8064
7, 71054, Pitch_bend_c, 3, 7936
7, 71055, Pitch_bend_c, 3, 7936
7, 71057, Pitch_bend_c, 3, 7808
7, 71058, Pitch_bend_c, 3, 7936
7, 71059, Pitch_bend_c, 3, 7808
7, 71062, Pitch_bend_c, 3, 7680
7, 71062, Pitch_bend_c, 3, 7936
7, 71064, Pitch_bend_c, 3, 7680
7, 71066, Pitch_bend_c, 3, 7680
7, 71066, Pitch_bend_c, 3, 7936
7, 71069, Pitch_bend_c, 3, 7680
7, 71070, Pitch_bend_c, 3, 7936
7, 71071, Pitch_bend_c, 3, 7680
7, 71073, Pitch_bend_c, 3, 7808
7, 71075, Pitch_bend_c, 3, 7936
7, 71076, Pitch_bend_c, 3, 7808
7, 71078, Pitch_bend_c, 3, 7936
7, 71079, Pitch_bend_c, 3, 7936
7, 71080, Pitch_bend_c, 3, 7936
7, 71083, Pitch_bend_c, 3, 8064
7, 71083, Pitch_bend_c, 3, 8064
7, 71085, Pitch_bend_c, 3, 8192
7, 71087, Pitch_bend_c, 3, 8320
7, 71087, Pitch_bend_c, 3, 8064
7, 71090, Pitch_bend_c, 3, 8448
7, 71092, Pitch_bend_c, 3, 8448
7, 71092, Pitch_bend_c, 3, 8064
7, 71094, Pitch_bend_c, 3, 8576
7, 71096, Pitch_bend_c, 3, 8192
7, 71097, Pitch_bend_c, 3, 8576
7, 71099, Pitch_bend_c, 3, 8704
7, 71100, Pitch_bend_c, 3, 8192
7, 71101, Pitch_bend_c, 3, 8704
7, 71104, Pitch_bend_c, 3, 8704
7, 71104, Pitch_bend_c, 3, 8192
7, 71106, Pitch_bend_c, 3, 8704
7, 71108, Pitch_bend_c, 3, 8704
7, 71108, Pitch_bend_c, 3, 8320
7, 71111, Pitch_bend_c, 3, 8576
7, 71113, Pitch_bend_c, 3, 8576
7, 71113, Pitch_bend_c, 3, 8320
7, 71115, Pitch_bend_c, 3, 8448
7, 71117, Pitch_bend_c, 3, 8448
7, 71118, Pitch_bend_c, 3, 8320
7, 71120, Pitch_bend_c, 3, 8320
7, 71121, Pitch_bend_c, 3, 8448
7, 71123, Pitch_bend_c, 3, 8192
7, 71125, Pitch_bend_c, 3, 8064
7, 71125, Pitch_bend_c, 3, 8448
7, 71127, Pitch_bend_c, 3, 8064
7, 71130, Pitch_bend_c, 3, 7936
7, 71130, Pitch_bend_c, 3, 8448
7, 71132, Pitch_bend_c, 3, 7808
7, 71134, Pitch_bend_c, 3, 7808
7, 71134, Pitch_bend_c, 3, 8448
7, 71137, Pitch_bend_c, 3, 7680
7, 71138, Pitch_bend_c, 3, 8448
7, 71139, Pitch_bend_c, 3, 7680
7, 71141, Pitch_bend_c, 3, 7680
7, 71142, Pitch_bend_c, 3, 8448
7, 71144, Pitch_bend_c, 3, 7680
7, 71146, Pitch_bend_c, 3, 7680
7, 71146, Pitch_bend_c, 3, 8448
7, 71148, Pitch_bend_c, 3, 7808
7, 71151, Pitch_bend_c, 3, 7808
7, 71151, Pitch_bend_c, 3, 8448
7, 71153, Pitch_bend_c, 3, 7936
7, 71155, Pitch_bend_c, 3, 7936
7, 71155, Pitch_bend_c, 3, 8320
7, 71158, Pitch_bend_c, 3, 8064
7, 71159, Pitch_bend_c, 3, 8320
7, 71160, Pitch_bend_c, 3, 8192
7, 71162, Pitch_bend_c, 3, 8320
7, 71163, Pitch_bend_c, 3, 8320
7, 71165, Pitch_bend_c, 3, 8448
7, 71167, Pitch_bend_c, 3, 8448
7, 71168, Pitch_bend_c, 3, 8192
7, 71169, Pitch_bend_c, 3, 8576
7, 71172, Pitch_bend_c, 3, 8576
7, 71172, Pitch_bend_c, 3, 8064
7, 71174, Pitch_bend_c, 3, 8704
7, 71176, Pitch_bend_c, 3, 8704
7, 71176, Pitch_bend_c, 3, 8064
7, 71179, Pitch_bend_c, 3, 8704
7, 71180, Pitch_bend_c, 3, 8064
7, 71181, Pitch_bend_c, 3, 8704
7, 71183, Pitch_bend_c, 3, 8704
7, 71184, Pitch_bend_c, 3, 7936
7, 71186, Pitch_bend_c, 3, 8576
7, 71188, Pitch_bend_c, 3, 8576
7, 71189, Pitch_bend_c, 3, 7936
7, 71190, Pitch_bend_c, 3, 8448
7, 71193, Pitch_bend_c, 3, 8320
7, 71193, Pitch_bend_c, 3, 7936
7, 71195, Pitch_bend_c, 3, 8320
7, 71197, Pitch_bend_c, 3, 7936
7, 71198, Pitch_bend_c, 3, 8192
7, 71200, Pitch_bend_c, 3, 8064
7, 71201, Pitch_bend_c, 3, 7936
7, 71202, Pitch_bend_c, 3, 8064
7, 71205, Pitch_bend_c, 3, 7936
7, 71205, Pitch_bend_c, 3, 7936
7, 71207, Pitch_bend_c, 3, 7808
7, 71209, Pitch_bend_c, 3, 7808
7, 71210, Pitch_bend_c, 3, 7936
7, 71212, Pitch_bend_c, 3, 7680
7, 71214, Pitch_bend_c, 3, 7680
7, 71214, Pitch_bend_c, 3, 7936
7, 71216, Pitch_bend_c, 3, 7680
7, 71218, Pitch_bend_c, 3, 7936
7, 71219, Pitch_bend_c, 3, 7680
7, 71221, Pitch_bend_c, 3, 7680
7, 71222, Pitch_bend_c, 3, 8064
7, 71223, Pitch_bend_c, 3, 7808
7, 71226, Pitch_bend_c, 3, 7808
7, 71227, Pitch_bend_c, 3, 8064
7, 71228, Pitch_bend_c, 3, 7936
7, 71230, Pitch_bend_c, 3, 7936
7, 71231, Pitch_bend_c, 3, 8192
7, 71233, Pitch_bend_c, 3, 8064
7, 71235, Pitch_bend_c, 3, 8192
7, 71235, Pitch_bend_c, 3, 8192
7, 71237, Pitch_bend_c, 3, 8320
7, 71239, Pitch_bend_c, 3, 8192
7, 71240, Pitch_bend_c, 3, 8448
7, 71242, Pitch_bend_c, 3, 8576
7, 71243, Pitch_bend_c, 3, 8320
7, 71244, Pitch_bend_c, 3, 8576
7, 71247, Pitch_bend_c, 3, 8704
7, 71248, Pitch_bend_c, 3, 8320
7, 71249, Pitch_bend_c, 3, 8704
7, 71251, Pitch_bend_c, 3, 8832
7, 71252, Pitch_bend_c, 3, 8320
7, 71254, Pitch_bend_c, 3, 8832
7, 71256, Pitch_bend_c, 3, 8832
7, 71256, Pitch_bend_c, 3, 8448
7, 71258, Pitch_bend_c, 3, 8704
7, 71260, Pitch_bend_c, 3, 8448
7, 71261, Pitch_bend_c, 3, 8704
7, 71263, Pitch_bend_c, 3, 8576
7, 71265, Pitch_bend_c, 3, 8576
7, 71265, Pitch_bend_c, 3, 8448
7, 71268, Pitch_bend_c, 3, 8448
7, 71269, Pitch_bend_c, 3, 8448
7, 71270, Pitch_bend_c, 3, 8320
7, 71273, Pitch_bend_c, 3, 8192
7, 71273, Pitch_bend_c, 3, 8448
7, 71275, Pitch_bend_c, 3, 8064
7, 71277, Pitch_bend_c, 3, 7936
7, 71277, Pitch_bend_c, 3, 8448
7, 71280, Pitch_bend_c, 3, 7808
7, 71281, Pitch_bend_c, 3, 8448
7, 71282, Pitch_bend_c, 3, 7808
7, 71284, Pitch_bend_c, 3, 7680
7, 71286, Pitch_bend_c, 3, 8320
7, 71287, Pitch_bend_c, 3, 7680
7, 71289, Pitch_bend_c, 3, 7552
7, 71290, Pitch_bend_c, 3, 8320
7, 71291, Pitch_bend_c, 3, 7552
7, 71294, Pitch_bend_c, 3, 7552
7, 71294, Pitch_bend_c, 3, 8320
7, 71296, Pitch_bend_c, 3, 7680
7, 71298, Pitch_bend_c, 3, 7680
7, 71298, Pitch_bend_c, 3, 8192
7, 71301, Pitch_bend_c, 3, 7808
7, 71303, Pitch_bend_c, 3, 7808
7, 71303, Pitch_bend_c, 3, 8192
7, 71305, Pitch_bend_c, 3, 7936
7, 71307, Pitch_bend_c, 3, 8192
7, 71308, Pitch_bend_c, 3, 8064
7, 71310, Pitch_bend_c, 3, 8192
7, 71311, Pitch_bend_c, 3, 8064
7, 71312, Pitch_bend_c, 3, 8320
7, 71315, Pitch_bend_c, 3, 8448
7, 71315, Pitch_bend_c, 3, 8064
7, 71317, Pitch_bend_c, 3, 8576
7, 71319, Pitch_bend_c, 3, 8576
7, 71319, Pitch_bend_c, 3, 8064
7, 71322, Pitch_bend_c, 3, 8704
7, 71324, Pitch_bend_c, 3, 8704
7, 71324, Pitch_bend_c, 3, 7936
7, 71326, Pitch_bend_c, 3, 8832
7, 71328, Pitch_bend_c, 3, 7936
7, 71329, Pitch_bend_c, 3, 8832
7, 71331, Pitch_bend_c, 3, 8832
7, 71332, Pitch_bend_c, 3, 7936
7, 71333, Pitch_bend_c, 3, 8704
7, 71336, Pitch_bend_c, 3, 8704
7, 71336, Pitch_bend_c, 3, 7936
7, 71338, Pitch_bend_c, 3, 8576
7, 71340, Pitch_bend_c, 3, 8576
7, 71340, Pitch_bend_c, 3, 7936
7, 71343, Pitch_bend_c, 3, 8448
7, 71345, Pitch_bend_c, 3, 8320
7, 71345, Pitch_bend_c, 3, 7936
7, 71348, Pitch_bend_c, 3, 8192
7, 71349, Pitch_bend_c, 3, 7936
7, 71350, Pitch_bend_c, 3, 8064
7, 71352, Pitch_bend_c, 3, 7936
7, 71353, Pitch_bend_c, 3, 8064
7, 71355, Pitch_bend_c, 3, 7808
7, 71357, Pitch_bend_c, 3, 7808
7, 71357, Pitch_bend_c, 3, 8064
7, 71359, Pitch_bend_c, 3, 7680
7, 71362, Pitch_bend_c, 3, 7680
7, 71362, Pitch_bend_c, 3, 8064
7, 71364, Pitch_bend_c, 3, 7552
7, 71366, Pitch_bend_c, 3, 7552
7, 71366, Pitch_bend_c, 3, 8192
7, 71369, Pitch_bend_c, 3, 7552
7, 71370, Pitch_bend_c, 3, 8192
7, 71371, Pitch_bend_c, 3, 7680
7, 71373, Pitch_bend_c, 3, 7680
7, 71374, Pitch_bend_c, 3, 8192
7, 71376, Pitch_bend_c, 3, 7808
7, 71378, Pitch_bend_c, 3, 7808
7, 71378, Pitch_bend_c, 3, 8320
7, 71380, Pitch_bend_c, 3, 7936
7, 71383, Pitch_bend_c, 3, 8064
7, 71383, Pitch_bend_c, 3, 8320
7, 71385, Pitch_bend_c, 3, 8192
7, 71387, Pitch_bend_c, 3, 8320
7, 71387, Pitch_bend_c, 3, 8320
7, 71390, Pitch_bend_c, 3, 8448
7, 71391, Pitch_bend_c, 3, 8448
7, 71392, Pitch_bend_c, 3, 8448
7, 71394, Pitch_bend_c, 3, 8576
7, 71395, Pitch_bend_c, 3, 8448
7, 71397, Pitch_bend_c, 3, 8576
7, 71399, Pitch_bend_c, 3, 8704
7, 71400, Pitch_bend_c, 3, 8448
7, 71401, Pitch_bend_c, 3, 8704
7, 71404, Pitch_bend_c, 3, 8704
7, 71404, Pitch_bend_c, 3, 8448
7, 71406, Pitch_bend_c, 3, 8704
7, 71408, Pitch_bend_c, 3, 8704
7, 71408, Pitch_bend_c, 3, 8448
7, 71411, Pitch_bend_c, 3, 8576
7, 71412, Pitch_bend_c, 3, 8448
7, 71413, Pitch_bend_c, 3, 8576
7, 71415, Pitch_bend_c, 3, 8448
7, 71416, Pitch_bend_c, 3, 8448
7, 71418, Pitch_bend_c, 3, 8320
7, 71420, Pitch_bend_c, 3, 8320
7, 71421, Pitch_bend_c, 3, 8320
7, 71423, Pitch_bend_c, 3, 8192
7, 71425, Pitch_bend_c, 3, 8064
7, 71425, Pitch_bend_c, 3, 8320
7, 71427, Pitch_bend_c, 3, 8064
7, 71429, Pitch_bend_c, 3, 8320
7, 71430, Pitch_bend_c, 3, 7936
7, 71432, Pitch_bend_c, 3, 7808
7, 71433, Pitch_bend_c, 3, 8192
7, 71434, Pitch_bend_c, 3, 7808
7, 71437, Pitch_bend_c, 3, 7680
7, 71438, Pitch_bend_c, 3, 8192
7, 71439, Pitch_bend_c, 3, 7680
7, 71441, Pitch_bend_c, 3, 7680
7, 71442, Pitch_bend_c, 3, 8192
7, 71444, Pitch_bend_c, 3, 7680
7, 71446, Pitch_bend_c, 3, 7680
7, 71446, Pitch_bend_c, 3, 8064
7, 71448, Pitch_bend_c, 3, 7808
7, 71450, Pitch_bend_c, 3, 8064
7, 71451, Pitch_bend_c, 3, 7808
7, 71453, Pitch_bend_c, 3, 7936
7, 71454, Pitch_bend_c, 3, 8064
7, 71455, Pitch_bend_c, 3, 7936
7, 71458, Pitch_bend_c, 3, 8064
7, 71459, Pitch_bend_c, 3, 7936
7, 71460, Pitch_bend_c, 3, 8192
7, 71462, Pitch_bend_c, 3, 8192
7, 71463, Pitch_bend_c, 3, 7936
7, 71465, Pitch_bend_c, 3, 8320
7, 71467, Pitch_bend_c, 3, 8320
7, 71467, Pitch_bend_c, 3, 7936
7, 71469, Pitch_bend_c, 3, 8320
7, 71471, Pitch_bend_c, 3, 7936
7, 71472, Pitch_bend_c, 3, 8448
7, 71474, Pitch_bend_c, 3, 8448
7, 71475, Pitch_bend_c, 3, 7936
7, 71476, Pitch_bend_c, 3, 8448
7, 71479, Pitch_bend_c, 3, 8448
7, 71480, Pitch_bend_c, 3, 7936
7, 71481, Pitch_bend_c, 3, 8448
7, 71483, Pitch_bend_c, 3, 8448
7, 71484, Pitch_bend_c, 3, 7936
7, 71486, Pitch_bend_c, 3, 8448
7, 71488, Pitch_bend_c, 3, 8320
7, 71488, Pitch_bend_c, 3, 8064
7, 71490, Pitch_bend_c, 3, 8320
7, 71492, Pitch_bend_c, 3, 8064
7, 71493, Pitch_bend_c, 3, 8320
7, 71495, Pitch_bend_c, 3, 8192
7, 71497, Pitch_bend_c, 3, 8064
7, 71498, Pitch_bend_c, 3, 8192
7, 71500, Pitch_bend_c, 3, 8192
7, 71501, Pitch_bend_c, 3, 8192
7, 71502, Pitch_bend_c, 3, 8064
7, 71505, Pitch_bend_c, 3, 8064
7, 71505, Pitch_bend_c, 3, 8192
7, 71507, Pitch_bend_c, 3, 8064
7, 71509, Pitch_bend_c, 3, 7936
7, 71509, Pitch_bend_c, 3, 8192
7, 71512, Pitch_bend_c, 3, 7936
7, 71513, Pitch_bend_c, 3, 8192
7, 71514, Pitch_bend_c, 3, 7936
7, 71516, Pitch_bend_c, 3, 7936
7, 71518, Pitch_bend_c, 3, 8192
7, 71519, Pitch_bend_c, 3, 7936
7, 71520, Pitch_bend_c, 3, 8192
7, 71520, Note_off_c, 3, 69, 80
7, 71520, Pitch_bend_c, 3, 8192
7, 90240, Control_c, 2, 7, 113
7, 90240, Control_c, 3, 7, 113
7, 90240, Note_on_c, 2, 67, 95
7, 90360, Control_c, 2, 7, 114
7, 90360, Control_c, 3, 7, 114
7, 90480, Control_c, 2, 7, 115
7, 90480, Control_c, 3, 7, 115
7, 90600, Control_c, 2, 7, 116
7, 90600, Control_c, 3, 7, 116
7, 90720, Control_c, 2, 7, 117
7, 90720, Control_c, 3, 7, 117
7, 90840, Control_c, 2, 7, 118
7, 90840, Control_c, 3, 7, 118
7, 90960, Control_c, 2, 7, 119
7, 90960, Control_c, 3, 7, 119
7, 91080, Control_c, 2, 7, 120
7, 91080, Control_c, 3, 7, 120
7, 91200, Control_c, 2, 7, 120
7, 91200, Control_c, 3, 7, 120
7, 91320, Control_c, 2, 7, 121
7, 91320, Control_c, 3, 7, 121
7, 91440, Control_c, 2, 7, 122
7, 91440, Control_c, 3, 7, 122
7, 91560, Control_c, 2, 7, 123
7, 91560, Control_c, 3, 7, 123
7, 91680, Control_c, 2, 7, 124
7, 91680, Control_c, 3, 7, 124
7, 91800, Control_c, 2, 7, 125
7, 91800, Control_c, 3, 7, 125
7, 91920, Control_c, 2, 7, 126
7, 91920, Control_c, 3, 7, 126
7, 92040, Control_c, 2, 7, 127
7, 92040, Control_c, 3, 7, 127
7, 92160, Control_c, 2, 7, 127
7, 92160, Control_c, 3, 7, 127
7, 96000, Control_c, 2, 7, 122
7, 96000, Control_c, 3, 7, 122
7, 96120, Control_c, 2, 7, 116
7, 96120, Control_c, 3, 7, 116
7, 96240, Control_c, 2, 7, 110
7, 96240, Control_c, 3, 7, 110
7, 96360, Control_c, 2, 7, 104
7, 96360, Control_c, 3, 7, 104
7, 96480, Control_c, 2, 7, 97
7, 96480, Control_c, 3, 7, 97
7, 96600, Control_c, 2, 7, 91
7, 96600, Control_c, 3, 7, 91
7, 96720, Control_c, 2, 7, 85
7, 96720, Control_c, 3, 7, 85
7, 96840, Control_c, 2, 7, 79
7, 96840, Control_c, 3, 7, 79
7, 96960, Control_c, 2, 7, 73
7, 96960, Control_c, 3, 7, 73
7, 97080, Control_c, 2, 7, 67
7, 97080, Control_c, 3, 7, 67
7, 97200, Control_c, 2, 7, 61
7, 97200, Control_c, 3, 7, 61
7, 97320, Control_c, 2, 7, 55
7, 97320, Control_c, 3, 7, 55
7, 97440, Control_c, 2, 7, 48
7, 97440, Control_c, 3, 7, 48
7, 97560, Control_c, 2, 7, 42
7, 97560, Control_c, 3, 7, 42
7, 97680, Control_c, 2, 7, 36
7, 97680, Control_c, 3, 7, 36
7, 97800, Control_c, 2, 7, 30
7, 97800, Control_c, 3, 7, 30
7, 97920, Note_off_c, 2, 67, 80
7, 97920, Control_c, 2, 7, 24
7, 97920, Control_c, 3, 7, 24
7, 103200, Control_c, 2, 7, 80
7, 103200, Control_c, 3, 7, 80
7, 103200, Control_c, 2, 10, 127
7, 103200, Control_c, 3, 10, 127
7, 103200, Note_on_c, 3, 69, 95
7, 103200, Pitch_bend_c, 3, 8192
7, 103204, Pitch_bend_c, 3, 8192
7, 103208, Pitch_bend_c, 3, 8192
7, 103213, Pitch_bend_c, 3, 8192
7, 103217, Pitch_bend_c, 3, 8192
7, 103221, Pitch_bend_c, 3, 8192
7, 103225, Pitch_bend_c, 3, 8192
7, 103230, Pitch_bend_c, 3, 8192
7, 103234, Pitch_bend_c, 3, 8192
7, 103238, Pitch_bend_c, 3, 8192
7, 103242, Pitch_bend_c, 3, 8192
7, 103246, Pitch_bend_c, 3, 8192
7, 103251, Pitch_bend_c, 3, 8192
7, 103255, Pitch_bend_c, 3, 8192
7, 103259, Pitch_bend_c, 3, 8192
7, 103263, Pitch_bend_c, 3, 8192
7, 103268, Pitch_bend_c, 3, 8192
7, 103272, Pitch_bend_c, 3, 8192
7, 103276, Pitch_bend_c, 3, 8192
7, 103280, Pitch_bend_c, 3, 8192
7, 103284, Pitch_bend_c, 3, 8192
7, 103289, Pitch_bend_c, 3, 8192
7, 103293, Pitch_bend_c, 3, 8192
7, 103297, Pitch_bend_c, 3, 8192
7, 103301, Pitch_bend_c, 3, 8192
7, 103305, Pitch_bend_c, 3, 8192
7, 103310, Pitch_bend_c, 3, 8192
7, 103314, Pitch_bend_c, 3, 8192
7, 103318, Pitch_bend_c, 3, 8192
7, 103322, Pitch_bend_c, 3, 8192
7, 103327, Pitch_bend_c, 3, 8192
7, 103331, Pitch_bend_c, 3, 8192
7, 103335, Pitch_bend_c, 3, 8192
7, 103339, Pitch_bend_c, 3, 8192
7, 103343, Pitch_bend_c, 3, 8320
7, 103348, Pitch_bend_c, 3, 8320
7, 103352, Pitch_bend_c, 3, 8320
7, 103356, Pitch_bend_c, 3, 8320
7, 103360, Pitch_bend_c, 3, 8320
7, 103365, Pitch_bend_c, 3, 8320
7, 103369, Pitch_bend_c, 3, 8320
7, 103373, Pitch_bend_c, 3, 8320
7, 103377, Pitch_bend_c, 3, 8320
7, 103381, Pitch_bend_c, 3, 8320
7, 103386, Pitch_bend_c, 3, 8320
7, 103390, Pitch_bend_c, 3, 8320
7, 103394, Pitch_bend_c, 3, 8320
7, 103398, Pitch_bend_c, 3, 8192
7, 103403, Pitch_bend_c, 3, 8192
7, 103407, Pitch_bend_c, 3, 8192
7, 103411, Pitch_bend_c, 3, 8064
7, 103415, Pitch_bend_c, 3, 8064
7, 103419, Pitch_bend_c, 3, 8064
7, 103424, Pitch_bend_c, 3, 8064
7, 103428, Pitch_bend_c, 3, 8064
7, 103432, Pitch_bend_c, 3, 8064
7, 103436, Pitch_bend_c, 3, 8064
7, 103440, Pitch_bend_c, 3, 8064
7, 103445, Pitch_bend_c, 3, 8064
7, 103449, Pitch_bend_c, 3, 8064
7, 103453, Pitch_bend_c, 3, 8064
7, 103457, Pitch_bend_c, 3, 8064
7, 103462, Pitch_bend_c, 3, 8064
7, 103466, Pitch_bend_c, 3, 8192
7, 103470, Pitch_bend_c, 3, 8192
7, 103474, Pitch_bend_c, 3, 8192
7, 103478, Pitch_bend_c, 3, 8320
7, 103483, Pitch_bend_c, 3, 8320
7, 103487, Pitch_bend_c, 3, 8320
7, 103491, Pitch_bend_c, 3, 8320
7, 103495, Pitch_bend_c, 3, 8448
7, 103500, Pitch_bend_c, 3, 8448
7, 103504, Pitch_bend_c, 3, 8448
7, 103508, Pitch_bend_c, 3, 8448
7, 103512, Pitch_bend_c, 3, 8448
7, 103516, Pitch_bend_c, 3, 8320
7, 103521, Pitch_bend_c, 3, 8320
7, 103525, Pitch_bend_c, 3, 8320
7, 103529, Pitch_bend_c, 3, 8320
7, 103533, Pitch_bend_c, 3, 8192
7, 103538, Pitch_bend_c, 3, 8192
7, 103542, Pitch_bend_c, 3, 8192
7, 103546, Pitch_bend_c, 3, 8064
7, 103550, Pitch_bend_c, 3, 8064
7, 103554, Pitch_bend_c, 3, 8064
7, 103559, Pitch_bend_c, 3, 8064
7, 103563, Pitch_bend_c, 3, 7936
7, 103567, Pitch_bend_c, 3, 7936
7, 103571, Pitch_bend_c, 3, 7936
7, 103575, Pitch_bend_c, 3, 7936
7, 103580, Pitch_bend_c, 3, 7936
7, 103584, Pitch_bend_c, 3, 8064
7, 103588, Pitch_bend_c, 3, 8064
7, 103592, Pitch_bend_c, 3, 8064
7, 103597, Pitch_bend_c, 3, 8064
7, 103601, Pitch_bend_c, 3, 8192
7, 103605, Pitch_bend_c, 3, 8192
7, 103609, Pitch_bend_c, 3, 8192
7, 103613, Pitch_bend_c, 3, 8320
7, 103618, Pitch_bend_c, 3, 8320
7, 103622, Pitch_bend_c, 3, 8320
7, 103626, Pitch_bend_c, 3, 8448
7, 103630, Pitch_bend_c, 3, 8448
7, 103635, Pitch_bend_c, 3, 8448
7, 103639, Pitch_bend_c, 3, 8448
7, 103643, Pitch_bend_c, 3, 8448
7, 103647, Pitch_bend_c, 3, 8448
7, 103651, Pitch_bend_c, 3, 8448
7, 103656, Pitch_bend_c, 3, 8320
7, 103660, Pitch_bend_c, 3, 8320
7, 103664, Pitch_bend_c, 3, 8320
7, 103668, Pitch_bend_c, 3, 8192
7, 103673, Pitch_bend_c, 3, 8192
7, 103677, Pitch_bend_c, 3, 8192
7, 103681, Pitch_bend_c, 3, 8064
7, 103685, Pitch_bend_c, 3, 8064
7, 103689, Pitch_bend_c, 3, 8064
7, 103694, Pitch_bend_c, 3, 7936
7, 103698, Pitch_bend_c, 3, 7936
7, 103702, Pitch_bend_c, 3, 7936
7, 103706, Pitch_bend_c, 3, 7936
7, 103710, Pitch_bend_c, 3, 7936
7, 103715, Pitch_bend_c, 3, 7936
7, 103719, Pitch_bend_c, 3, 7936
7, 103723, Pitch_bend_c, 3, 8064
7, 103727, Pitch_bend_c, 3, 8064
7, 103732, Pitch_bend_c, 3, 8064
7, 103736, Pitch_bend_c, 3, 8192
7, 103740, Pitch_bend_c, 3, 8192
7, 103744, Pitch_bend_c, 3, 8192
7, 103748, Pitch_bend_c, 3, 8320
7, 103753, Pitch_bend_c, 3, 8320
7, 103757, Pitch_bend_c, 3, 8320
7, 103761, Pitch_bend_c, 3, 8448
7, 103765, Pitch_bend_c, 3, 8448
7, 103770, Pitch_bend_c, 3, 8448
7, 103774, Pitch_bend_c, 3, 8448
7, 103778, Pitch_bend_c, 3, 8448
7, 103782, Pitch_bend_c, 3, 8448
7, 103786, Pitch_bend_c, 3, 8448
7, 103791, Pitch_bend_c, 3, 8320
7, 103795, Pitch_bend_c, 3, 8320
7, 103799, Pitch_bend_c, 3, 8320
7, 103803, Pitch_bend_c, 3, 8192
7, 103808, Pitch_bend_c, 3, 8192
7, 103812, Pitch_bend_c, 3, 8192
7, 103816, Pitch_bend_c, 3, 8064
7, 103820, Pitch_bend_c, 3, 8064
7, 103824, Pitch_bend_c, 3, 8064
7, 103829, Pitch_bend_c, 3, 7936
7, 103833, Pitch_bend_c, 3, 7936
7, 103837, Pitch_bend_c, 3, 7936
7, 103841, Pitch_bend_c, 3, 7936
7, 103845, Pitch_bend_c, 3, 7936
7, 103850, Pitch_bend_c, 3, 7936
7, 103854, Pitch_bend_c, 3, 7936
7, 103858, Pitch_bend_c, 3, 8064
7, 103862, Pitch_bend_c, 3, 8064
7, 103867, Pitch_bend_c, 3, 8064
7, 103871, Pitch_bend_c, 3, 8192
7, 103875, Pitch_bend_c, 3, 8192
7, 103879, Pitch_bend_c, 3, 8192
7, 103883, Pitch_bend_c, 3, 8320
7, 103888, Pitch_bend_c, 3, 8320
7, 103892, Pitch_bend_c, 3, 8320
7, 103896, Pitch_bend_c, 3, 8320
7, 103900, Pitch_bend_c, 3, 8320
7, 103905, Pitch_bend_c, 3, 8320
7, 103909, Pitch_bend_c, 3, 8320
7, 103913, Pitch_bend_c, 3, 8320
7, 103917, Pitch_bend_c, 3, 8320
7, 103921, Pitch_bend_c, 3, 8320
7, 103926, Pitch_bend_c, 3, 8320
7, 103930, Pitch_bend_c, 3, 8320
7, 103934, Pitch_bend_c, 3, 8320
7, 103938, Pitch_bend_c, 3, 8192
7, 103943, Pitch_bend_c, 3, 8192
7, 103947, Pitch_bend_c, 3, 8192
7, 103951, Pitch_bend_c, 3, 8064
7, 103955, Pitch_bend_c, 3, 8064
7, 103959, Pitch_bend_c, 3, 8064
7, 103964, Pitch_bend_c, 3, 8064
7, 103968, Pitch_bend_c, 3, 8064
7, 103972, Pitch_bend_c, 3, 8064
7, 103976, Pitch_bend_c, 3, 8064
7, 103980, Pitch_bend_c, 3, 8064
7, 103985, Pitch_bend_c, 3, 8064
7, 103989, Pitch_bend_c, 3, 8064
7, 103993, Pitch_bend_c, 3, 8064
7, 103997, Pitch_bend_c, 3, 8064
7, 104002, Pitch_bend_c, 3, 8064
7, 104006, Pitch_bend_c, 3, 8192
7, 104010, Pitch_bend_c, 3, 8192
7, 104014, Pitch_bend_c, 3, 8192
7, 104018, Pitch_bend_c, 3, 8320
7, 104023, Pitch_bend_c, 3, 8320
7, 104027, Pitch_bend_c, 3, 8320
7, 104031, Pitch_bend_c, 3, 8448
7, 104035, Pitch_bend_c, 3, 8448
7, 104040, Pitch_bend_c, 3, 8448
7, 104044, Pitch_bend_c, 3, 8448
7, 104048, Pitch_bend_c, 3, 8448
7, 104052, Pitch_bend_c, 3, 8448
7, 104056, Pitch_bend_c, 3, 8448
7, 104061, Pitch_bend_c, 3, 8320
7, 104065, Pitch_bend_c, 3, 8320
7, 104069, Pitch_bend_c, 3, 8320
7, 104073, Pitch_bend_c, 3, 8192
7, 104078, Pitch_bend_c, 3, 8192
7, 104082, Pitch_bend_c, 3, 8192
7, 104086, Pitch_bend_c, 3, 8064
7, 104090, Pitch_bend_c, 3, 8064
7, 104094, Pitch_bend_c, 3, 8064
7, 104099, Pitch_bend_c, 3, 7936
7, 104103, Pitch_bend_c, 3, 7936
7, 104107, Pitch_bend_c, 3, 7936
7, 104111, Pitch_bend_c, 3, 7936
7, 104115, Pitch_bend_c, 3, 7936
7, 104120, Pitch_bend_c, 3, 7936
7, 104124, Pitch_bend_c, 3, 7936
7, 104128, Pitch_bend_c, 3, 8064
7, 104132, Pitch_bend_c, 3, 8064
7, 104137, Pitch_bend_c, 3, 8064
7, 104141, Pitch_bend_c, 3, 8192
7, 104145, Pitch_bend_c, 3, 8192
7, 104149, Pitch_bend_c, 3, 8192
7, 104153, Pitch_bend_c, 3, 8320
7, 104158, Pitch_bend_c, 3, 8320
7, 104162, Pitch_bend_c, 3, 8320
7, 104166, Pitch_bend_c, 3, 8448
7, 104170, Pitch_bend_c, 3, 8448
7, 104175, Pitch_bend_c, 3, 8448
7, 104179, Pitch_bend_c, 3, 8448
7, 104183, Pitch_bend_c, 3, 8448
7, 104187, Pitch_bend_c, 3, 8448
7, 104191, Pitch_bend_c, 3, 8448
7, 104196, Pitch_bend_c, 3, 8320
7, 104200, Pitch_bend_c, 3, 8320
7, 104204, Pitch_bend_c, 3, 8320
7, 104208, Pitch_bend_c, 3, 8192
7, 104213, Pitch_bend_c, 3, 8192
7, 104217, Pitch_bend_c, 3, 8192
7, 104221, Pitch_bend_c, 3, 8064
7, 104225, Pitch_bend_c, 3, 8064
7, 104229, Pitch_bend_c, 3, 8064
7, 104234, Pitch_bend_c, 3, 7936
7, 104238, Pitch_bend_c, 3, 7936
7, 104242, Pitch_bend_c, 3, 7936
7, 104246, Pitch_bend_c, 3, 7936
7, 104250, Pitch_bend_c, 3, 7936
7, 104255, Pitch_bend_c, 3, 7936
7, 104259, Pitch_bend_c, 3, 7936
7, 104263, Pitch_bend_c, 3, 8064
7, 104267, Pitch_bend_c, 3, 8064
7, 104272, Pitch_bend_c, 3, 8064
7, 104276, Pitch_bend_c, 3, 8192
7, 104280, Pitch_bend_c, 3, 8192
7, 104284, Pitch_bend_c, 3, 8192
7, 104288, Pitch_bend_c, 3, 8320
7, 104293, Pitch_bend_c, 3, 8320
7, 104297, Pitch_bend_c, 3, 8448
7, 104301, Pitch_bend_c, 3, 8448
7, 104305, Pitch_bend_c, 3, 8448
7, 104310, Pitch_bend_c, 3, 8448
7, 104314, Pitch_bend_c, 3, 8448
7, 104318, Pitch_bend_c, 3, 8448
7, 104322, Pitch_bend_c, 3, 8448
7, 104326, Pitch_bend_c, 3, 8448
7, 104331, Pitch_bend_c, 3, 8448
7, 104335, Pitch_bend_c, 3, 8320
7, 104339, Pitch_bend_c, 3, 8320
7, 104343, Pitch_bend_c, 3, 8192
7, 104348, Pitch_bend_c, 3, 8192
7, 104352, Pitch_bend_c, 3, 8192
7, 104356, Pitch_bend_c, 3, 8064
7, 104360, Pitch_bend_c, 3, 8064
7, 104364, Pitch_bend_c, 3, 7936
7, 104369, Pitch_bend_c, 3, 7936
7, 104373, Pitch_bend_c, 3, 7936
7, 104377, Pitch_bend_c, 3, 7936
7, 104381, Pitch_bend_c, 3, 7936
7, 104385, Pitch_bend_c, 3, 7936
7, 104390, Pitch_bend_c, 3, 7936
7, 104394, Pitch_bend_c, 3, 7936
7, 104398, Pitch_bend_c, 3, 7936
7, 104402, Pitch_bend_c, 3, 8064
7, 104407, Pitch_bend_c, 3, 8064
7, 104411, Pitch_bend_c, 3, 8192
7, 104415, Pitch_bend_c, 3, 8192
7, 104419, Pitch_bend_c, 3, 8192
7, 104423, Pitch_bend_c, 3, 8320
7, 104428, Pitch_bend_c, 3, 8320
7, 104432, Pitch_bend_c, 3, 8448
7, 104436, Pitch_bend_c, 3, 8448
7, 104440, Pitch_bend_c, 3, 8448
7, 104445, Pitch_bend_c, 3, 8448
7, 104449, Pitch_bend_c, 3, 8448
7, 104453, Pitch_bend_c, 3, 8448
7, 104457, Pitch_bend_c, 3, 8448
7, 104461, Pitch_bend_c, 3, 8448
7, 104466, Pitch_bend_c, 3, 8448
7, 104470, Pitch_bend_c, 3, 8320
7, 104474, Pitch_bend_c, 3, 8320
7, 104478, Pitch_bend_c, 3, 8320
7, 104483, Pitch_bend_c, 3, 8192
7, 104487, Pitch_bend_c, 3, 8064
7, 104491, Pitch_bend_c, 3, 8064
7, 104495, Pitch_bend_c, 3, 8064
7, 104499, Pitch_bend_c, 3, 7936
7, 104504, Pitch_bend_c, 3, 7936
7, 104508, Pitch_bend_c, 3, 7936
7, 104512, Pitch_bend_c, 3, 7936
7, 104516, Pitch_bend_c, 3, 7936
7, 104520, Pitch_bend_c, 3, 7936
7, 104525, Pitch_bend_c, 3, 7936
7, 104529, Pitch_bend_c, 3, 7936
7, 104533, Pitch_bend_c, 3, 7936
7, 104537, Pitch_bend_c, 3, 8064
7, 104542, Pitch_bend_c, 3, 8064
7, 104546, Pitch_bend_c, 3, 8192
7, 104550, Pitch_bend_c, 3, 8192
7, 104554, Pitch_bend_c, 3, 8192
7, 104558, Pitch_bend_c, 3, 8192
7, 104563, Pitch_bend_c, 3, 8192
7, 104567, Pitch_bend_c, 3, 8192
7, 104571, Pitch_bend_c, 3, 8320
7, 104575, Pitch_bend_c, 3, 8320
7, 104580, Pitch_bend_c, 3, 8320
7, 104584, Pitch_bend_c, 3, 8320
7, 104588, Pitch_bend_c, 3, 8320
7, 104592, Pitch_bend_c, 3, 8320
7, 104596, Pitch_bend_c, 3, 8320
7, 104601, Pitch_bend_c, 3, 8192
7, 104605, Pitch_bend_c, 3, 8192
7, 104609, Pitch_bend_c, 3, 8192
7, 104613, Pitch_bend_c, 3, 8192
7, 104618, Pitch_bend_c, 3, 8192
7, 104622, Pitch_bend_c, 3, 8192
7, 104626, Pitch_bend_c, 3, 8192
7, 104630, Pitch_bend_c, 3, 8192
7, 104634, Pitch_bend_c, 3, 8192
7, 104639, Pitch_bend_c, 3, 8064
7, 104640, Note_off_c, 3, 69, 80
7, 104640, Pitch_bend_c, 3, 8192
7, 107040, Note_on_c, 3, 69, 95
7, 107040, Pitch_bend_c, 3, 8192
7, 107044, Pitch_bend_c, 3, 8192
7, 107048, Pitch_bend_c, 3, 8192
7, 107053, Pitch_bend_c, 3, 8192
7, 107057, Pitch_bend_c, 3, 8192
7, 107061, Pitch_bend_c, 3, 8192
7, 107065, Pitch_bend_c, 3, 8192
7, 107070, Pitch_bend_c, 3, 8192
7, 107074, Pitch_bend_c, 3, 8192
7, 107078, Pitch_bend_c, 3, 8192
7, 107082, Pitch_bend_c, 3, 8192
7, 107086, Pitch_bend_c, 3, 8192
7, 107091, Pitch_bend_c, 3, 8192
7, 107095, Pitch_bend_c, 3, 8192
7, 107099, Pitch_bend_c, 3, 8192
7, 107103, Pitch_bend_c, 3, 8192
7, 107108, Pitch_bend_c, 3, 8192
7, 107112, Pitch_bend_c, 3, 8192
7, 107116, Pitch_bend_c, 3, 8192
7, 107120, Pitch_bend_c, 3, 8192
7, 107124, Pitch_bend_c, 3, 8192
7, 107129, Pitch_bend_c, 3, 8192
7, 107133, Pitch_bend_c, 3, 8192
7, 107137, Pitch_bend_c, 3, 8192
7, 107141, Pitch_bend_c, 3, 8192
7, 107145, Pitch_bend_c, 3, 8192
7, 107150, Pitch_bend_c, 3, 8192
7, 107154, Pitch_bend_c, 3, 8192
7, 107158, Pitch_bend_c, 3, 8192
7, 107162, Pitch_bend_c, 3, 8192
7, 107167, Pitch_bend_c, 3, 8192
7, 107171, Pitch_bend_c, 3, 8192
7, 107175, Pitch_bend_c, 3, 8192
7, 107179, Pitch_bend_c, 3, 8192
7, 107183, Pitch_bend_c, 3, 8192
7, 107188, Pitch_bend_c, 3, 8320
7, 107192, Pitch_bend_c, 3, 8320
7, 107196, Pitch_bend_c, 3, 8320
7, 107200, Pitch_bend_c, 3, 8320
7, 107205, Pitch_bend_c, 3, 8320
7, 107209, Pitch_bend_c, 3, 8320
7, 107213, Pitch_bend_c, 3, 8320
7, 107217, Pitch_bend_c, 3, 8320
7, 107221, Pitch_bend_c, 3, 8320
7, 107226, Pitch_bend_c, 3, 8320
7, 107230, Pitch_bend_c, 3, 8320
7, 107234, Pitch_bend_c, 3, 8320
7, 107238, Pitch_bend_c, 3, 8192
7, 107243, Pitch_bend_c, 3, 8192
7, 107247, Pitch_bend_c, 3, 8192
7, 107251, Pitch_bend_c, 3, 8064
7, 107255, Pitch_bend_c, 3, 8064
7, 107259, Pitch_bend_c, 3, 8064
7, 107264, Pitch_bend_c, 3, 8064
7, 107268, Pitch_bend_c, 3, 8064
7, 107272, Pitch_bend_c, 3, 8064
7, 107276, Pitch_bend_c, 3, 8064
7, 107280, Pitch_bend_c, 3, 8064
7, 107285, Pitch_bend_c, 3, 8064
7, 107289, Pitch_bend_c, 3, 8064
7, 107293, Pitch_bend_c, 3, 8064
7, 107297, Pitch_bend_c, 3, 8064
7, 107302, Pitch_bend_c, 3, 8192
7, 107306, Pitch_bend_c, 3, 8192
7, 107310, Pitch_bend_c, 3, 8192
7, 107314, Pitch_bend_c, 3, 8192
7, 107318, Pitch_bend_c, 3, 8320
7, 107323, Pitch_bend_c, 3, 8320
7, 107327, Pitch_bend_c, 3, 8320
7, 107331, Pitch_bend_c, 3, 8448
7, 107335, Pitch_bend_c, 3, 8448
7, 107340, Pitch_bend_c, 3, 8448
7, 107344, Pitch_bend_c, 3, 8448
7, 107348, Pitch_bend_c, 3, 8448
7, 107352, Pitch_bend_c, 3, 8448
7, 107356, Pitch_bend_c, 3, 8448
7, 107361, Pitch_bend_c, 3, 8320
7, 107365, Pitch_bend_c, 3, 8320
7, 107369, Pitch_bend_c, 3, 8320
7, 107373, Pitch_bend_c, 3, 8192
7, 107378, Pitch_bend_c, 3, 8192
7, 107382, Pitch_bend_c, 3, 8192
7, 107386, Pitch_bend_c, 3, 8064
7, 107390, Pitch_bend_c, 3, 8064
7, 107394, Pitch_bend_c, 3, 8064
7, 107399, Pitch_bend_c, 3, 7936
7, 107403, Pitch_bend_c, 3, 7936
7, 107407, Pitch_bend_c, 3, 7936
7, 107411, Pitch_bend_c, 3, 7936
7, 107415, Pitch_bend_c, 3, 7936
7, 107420, Pitch_bend_c, 3, 7936
7, 107424, Pitch_bend_c, 3, 7936
7, 107428, Pitch_bend_c, 3, 8064
7, 107432, Pitch_bend_c, 3, 8064
7, 107437, Pitch_bend_c, 3, 8064
7, 107441, Pitch_bend_c, 3, 8192
7, 107445, Pitch_bend_c, 3, 8192
7, 107449, Pitch_bend_c, 3, 8192
7, 107453, Pitch_bend_c, 3, 8320
7, 107458, Pitch_bend_c, 3, 8320
7, 107462, Pitch_bend_c, 3, 8320
7, 107466, Pitch_bend_c, 3, 8320
7, 107470, Pitch_bend_c, 3, 8448
7, 107475, Pitch_bend_c, 3, 8448
7, 107479, Pitch_bend_c, 3, 8448
7, 107483, Pitch_bend_c, 3, 8448
7, 107487, Pitch_bend_c, 3, 8448
7, 107491, Pitch_bend_c, 3, 8320
7, 107496, Pitch_bend_c, 3, 8320
7, 107500, Pitch_bend_c, 3, 8320
7, 107504, Pitch_bend_c, 3, 8320
7, 107508, Pitch_bend_c, 3, 8192
7, 107513, Pitch_bend_c, 3, 8192
7, 107517, Pitch_bend_c, 3, 8192
7, 107521, Pitch_bend_c, 3, 8064
7, 107525, Pitch_bend_c, 3, 8064
7, 107529, Pitch_bend_c, 3, 8064
7, 107534, Pitch_bend_c, 3, 8064
7, 107538, Pitch_bend_c, 3, 7936
7, 107542, Pitch_bend_c, 3, 7936
7, 107546, Pitch_bend_c, 3, 7936
7, 107550, Pitch_bend_c, 3, 7936
7, 107555, Pitch_bend_c, 3, 7936
7, 107559, Pitch_bend_c, 3, 8064
7, 107563, Pitch_bend_c, 3, 8064
7, 107567, Pitch_bend_c, 3, 8064
7, 107572, Pitch_bend_c, 3, 8064
7, 107576, Pitch_bend_c, 3, 8192
7, 107580, Pitch_bend_c, 3, 8192
7, 107584, Pitch_bend_c, 3, 8192
7, 107588, Pitch_bend_c, 3, 8320
7, 107593, Pitch_bend_c, 3, 8320
7, 107597, Pitch_bend_c, 3, 8320
7, 107601, Pitch_bend_c, 3, 8320
7, 107605, Pitch_bend_c, 3, 8320
7, 107610, Pitch_bend_c, 3, 8448
7, 107614, Pitch_bend_c, 3, 8448
7, 107618, Pitch_bend_c, 3, 8448
7, 107622, Pitch_bend_c, 3, 8320
7, 107626, Pitch_bend_c, 3, 8320
7, 107631, Pitch_bend_c, 3, 8320
7, 107635, Pitch_bend_c, 3, 8320
7, 107639, Pitch_bend_c, 3, 8320
7, 107643, Pitch_bend_c, 3, 8192
7, 107648, Pitch_bend_c, 3, 8192
7, 107652, Pitch_bend_c, 3, 8192
7, 107656, Pitch_bend_c, 3, 8064
7, 107660, Pitch_bend_c, 3, 8064
7, 107664, Pitch_bend_c, 3, 8064
7, 107669, Pitch_bend_c, 3, 8064
7, 107673, Pitch_bend_c, 3, 8064
7, 107677, Pitch_bend_c, 3, 7936
7, 107681, Pitch_bend_c, 3, 7936
7, 107685, Pitch_bend_c, 3, 7936
7, 107690, Pitch_bend_c, 3, 8064
7, 107694, Pitch_bend_c, 3, 8064
7, 107698, Pitch_bend_c, 3, 8064
7, 107702, Pitch_bend_c, 3, 8064
7, 107707, Pitch_bend_c, 3, 8064
7, 107711, Pitch_bend_c, 3, 8192
7, 107715, Pitch_bend_c, 3, 8192
7, 107719, Pitch_bend_c, 3, 8192
7, 107723, Pitch_bend_c, 3, 8320
7, 107728, Pitch_bend_c, 3, 8320
7, 107732, Pitch_bend_c, 3, 8320
7, 107736, Pitch_bend_c, 3, 8448
7, 107740, Pitch_bend_c, 3, 8448
7, 107745, Pitch_bend_c, 3, 8448
7, 107749, Pitch_bend_c, 3, 8448
7, 107753, Pitch_bend_c, 3, 8448
7, 107757, Pitch_bend_c, 3, 8448
7, 107761, Pitch_bend_c, 3, 8448
7, 107766, Pitch_bend_c, 3, 8320
7, 107770, Pitch_bend_c, 3, 8320
7, 107774, Pitch_bend_c, 3, 8320
7, 107778, Pitch_bend_c, 3, 8192
7, 107783, Pitch_bend_c, 3, 8192
7, 107787, Pitch_bend_c, 3, 8192
7, 107791, Pitch_bend_c, 3, 8064
7, 107795, Pitch_bend_c, 3, 8064
7, 107799, Pitch_bend_c, 3, 8064
7, 107804, Pitch_bend_c, 3, 7936
7, 107808, Pitch_bend_c, 3, 7936
7, 107812, Pitch_bend_c, 3, 7936
7, 107816, Pitch_bend_c, 3, 7936
7, 107820, Pitch_bend_c, 3, 7936
7, 107825, Pitch_bend_c, 3, 7936
7, 107829, Pitch_bend_c, 3, 7936
7, 107833, Pitch_bend_c, 3, 8064
7, 107837, Pitch_bend_c, 3, 8064
7, 107842, Pitch_bend_c, 3, 8064
7, 107846, Pitch_bend_c, 3, 8192
7, 107850, Pitch_bend_c, 3, 8192
7, 107854, Pitch_bend_c, 3, 8192
7, 107858, Pitch_bend_c, 3, 8320
7, 107863, Pitch_bend_c, 3, 8320
7, 107867, Pitch_bend_c, 3, 8320
7, 107871, Pitch_bend_c, 3, 8320
7, 107875, Pitch_bend_c, 3, 8320
7, 107880, Pitch_bend_c, 3, 8320
7, 107884, Pitch_bend_c, 3, 8320
7, 107888, Pitch_bend_c, 3, 8320
7, 107892, Pitch_bend_c, 3, 8320
7, 107896, Pitch_bend_c, 3, 8320
7, 107901, Pitch_bend_c, 3, 8320
7, 107905, Pitch_bend_c, 3, 8320
7, 107909, Pitch_bend_c, 3, 8320
7, 107913, Pitch_bend_c, 3, 8192
7, 107918, Pitch_bend_c, 3, 8192
7, 107922, Pitch_bend_c, 3, 8192
7, 107926, Pitch_bend_c, 3, 8064
7, 107930, Pitch_bend_c, 3, 8064
7, 107934, Pitch_bend_c, 3, 8064
7, 107939, Pitch_bend_c, 3, 8064
7, 107943, Pitch_bend_c, 3, 8064
7, 107947, Pitch_bend_c, 3, 8064
7, 107951, Pitch_bend_c, 3, 8064
7, 107955, Pitch_bend_c, 3, 8064
7, 107960, Pitch_bend_c, 3, 8064
7, 107964, Pitch_bend_c, 3, 8064
7, 107968, Pitch_bend_c, 3, 8064
7, 107972, Pitch_bend_c, 3, 8064
7, 107977, Pitch_bend_c, 3, 8064
7, 107981, Pitch_bend_c, 3, 8192
7, 107985, Pitch_bend_c, 3, 8192
7, 107989, Pitch_bend_c, 3, 8192
7, 107993, Pitch_bend_c, 3, 8320
7, 107998, Pitch_bend_c, 3, 8320
7, 108002, Pitch_bend_c, 3, 8320
7, 108006, Pitch_bend_c, 3, 8320
7, 108010, Pitch_bend_c, 3, 8320
7, 108015, Pitch_bend_c, 3, 8448
7, 108019, Pitch_bend_c, 3, 8448
7, 108023, Pitch_bend_c, 3, 8448
7, 108027, Pitch_bend_c, 3, 8320
7, 108031, Pitch_bend_c, 3, 8320
7, 108036, Pitch_bend_c, 3, 8320
7, 108040, Pitch_bend_c, 3, 8320
7, 108044, Pitch_bend_c, 3, 8320
7, 108048, Pitch_bend_c, 3, 8192
7, 108053, Pitch_bend_c, 3, 8192
7, 108057, Pitch_bend_c, 3, 8192
7, 108061, Pitch_bend_c, 3, 8064
7, 108065, Pitch_bend_c, 3, 8064
7, 108069, Pitch_bend_c, 3, 8064
7, 108074, Pitch_bend_c, 3, 8064
7, 108078, Pitch_bend_c, 3, 8064
7, 108082, Pitch_bend_c, 3, 7936
7, 108086, Pitch_bend_c, 3, 7936
7, 108090, Pitch_bend_c, 3, 7936
7, 108095, Pitch_bend_c, 3, 8064
7, 108099, Pitch_bend_c, 3, 8064
7, 108103, Pitch_bend_c, 3, 8064
7, 108107, Pitch_bend_c, 3, 8064
7, 108112, Pitch_bend_c, 3, 8064
7, 108116, Pitch_bend_c, 3, 8192
7, 108120, Pitch_bend_c, 3, 8192
7, 108124, Pitch_bend_c, 3, 8192
7, 108128, Pitch_bend_c, 3, 8320
7, 108133, Pitch_bend_c, 3, 8320
7, 108137, Pitch_bend_c, 3, 8320
7, 108141, Pitch_bend_c, 3, 8448
7, 108145, Pitch_bend_c, 3, 8448
7, 108150, Pitch_bend_c, 3, 8448
7, 108154, Pitch_bend_c, 3, 8448
7, 108158, Pitch_bend_c, 3, 8448
7, 108162, Pitch_bend_c, 3, 8448
7, 108166, Pitch_bend_c, 3, 8448
7, 108171, Pitch_bend_c, 3, 8320
7, 108175, Pitch_bend_c, 3, 8320
7, 108179, Pitch_bend_c, 3, 8320
7, 108183, Pitch_bend_c, 3, 8192
7, 108188, Pitch_bend_c, 3, 8192
7, 108192, Pitch_bend_c, 3, 8192
7, 108196, Pitch_bend_c, 3, 8064
7, 108200, Pitch_bend_c, 3, 8064
7, 108204, Pitch_bend_c, 3, 8064
7, 108209, Pitch_bend_c, 3, 7936
7, 108213, Pitch_bend_c, 3, 7936
7, 108217, Pitch_bend_c, 3, 7936
7, 108221, Pitch_bend_c, 3, 7936
7, 108225, Pitch_bend_c, 3, 7936
7, 108230, Pitch_bend_c, 3, 7936
7, 108234, Pitch_bend_c, 3, 7936
7, 108238, Pitch_bend_c, 3, 8064
7, 108242, Pitch_bend_c, 3, 8064
7, 108247, Pitch_bend_c, 3, 8064
7, 108251, Pitch_bend_c, 3, 8192
7, 108255, Pitch_bend_c, 3, 8192
7, 108259, Pitch_bend_c, 3, 8192
7, 108263, Pitch_bend_c, 3, 8320
7, 108268, Pitch_bend_c, 3, 8320
7, 108272, Pitch_bend_c, 3, 8320
7, 108276, Pitch_bend_c, 3, 8448
7, 108280, Pitch_bend_c, 3, 8448
7, 108285, Pitch_bend_c, 3, 8448
7, 108289, Pitch_bend_c, 3, 8448
7, 108293, Pitch_bend_c, 3, 8448
7, 108297, Pitch_bend_c, 3, 8448
7, 108301, Pitch_bend_c, 3, 8448
7, 108306, Pitch_bend_c, 3, 8320
7, 108310, Pitch_bend_c, 3, 8320
7, 108314, Pitch_bend_c, 3, 8320
7, 108318, Pitch_bend_c, 3, 8192
7, 108323, Pitch_bend_c, 3, 8192
7, 108327, Pitch_bend_c, 3, 8192
7, 108331, Pitch_bend_c, 3, 8064
7, 108335, Pitch_bend_c, 3, 8064
7, 108339, Pitch_bend_c, 3, 8064
7, 108344, Pitch_bend_c, 3, 7936
7, 108348, Pitch_bend_c, 3, 7936
7, 108352, Pitch_bend_c, 3, 7936
7, 108356, Pitch_bend_c, 3, 7936
7, 108360, Pitch_bend_c, 3, 7936
7, 108365, Pitch_bend_c, 3, 7936
7, 108369, Pitch_bend_c, 3, 7936
7, 108373, Pitch_bend_c, 3, 8064
7, 108377, Pitch_bend_c, 3, 8064
7, 108382, Pitch_bend_c, 3, 8064
7, 108386, Pitch_bend_c, 3, 8192
7, 108390, Pitch_bend_c, 3, 8192
7, 108394, Pitch_bend_c, 3, 8192
7, 108398, Pitch_bend_c, 3, 8192
7, 108403, Pitch_bend_c, 3, 8320
7, 108407, Pitch_bend_c, 3, 8320
7, 108411, Pitch_bend_c, 3, 8320
7, 108415, Pitch_bend_c, 3, 8320
7, 108420, Pitch_bend_c, 3, 8320
7, 108424, Pitch_bend_c, 3, 8320
7, 108428, Pitch_bend_c, 3, 8320
7, 108432, Pitch_bend_c, 3, 8320
7, 108436, Pitch_bend_c, 3, 8320
7, 108441, Pitch_bend_c, 3, 8320
7, 108445, Pitch_bend_c, 3, 8320
7, 108449, Pitch_bend_c, 3, 8192
7, 108453, Pitch_bend_c, 3, 8192
7, 108458, Pitch_bend_c, 3, 8192
7, 108462, Pitch_bend_c, 3, 8192
7, 108466, Pitch_bend_c, 3, 8192
7, 108470, Pitch_bend_c, 3, 8064
7, 108474, Pitch_bend_c, 3, 8064
7, 108479, Pitch_bend_c, 3, 8064
7, 108480, Note_off_c, 3, 69, 80
7, 108480, Pitch_bend_c, 3, 8192
7, 110880, Note_on_c, 3, 69, 95
7, 110880, Pitch_bend_c, 3, 8192
7, 110884, Pitch_bend_c, 3, 8192
7, 110888, Pitch_bend_c, 3, 8192
7, 110893, Pitch_bend_c, 3, 8192
7, 110897, Pitch_bend_c, 3, 8192
7, 110901, Pitch_bend_c, 3, 8192
7, 110905, Pitch_bend_c, 3, 8192
7, 110910, Pitch_bend_c, 3, 8192
7, 110914, Pitch_bend_c, 3, 8192
7, 110918, Pitch_bend_c, 3, 8192
7, 110922, Pitch_bend_c, 3, 8192
7, 110926, Pitch_bend_c, 3, 8192
7, 110931, Pitch_bend_c, 3, 8192
7, 110935, Pitch_bend_c, 3, 8192
7, 110939, Pitch_bend_c, 3, 8192
7, 110943, Pitch_bend_c, 3, 8192
7, 110948, Pitch_bend_c, 3, 8192
7, 110952, Pitch_bend_c, 3, 8192
7, 110956, Pitch_bend_c, 3, 8192
7, 110960, Pitch_bend_c, 3, 8192
7, 110964, Pitch_bend_c, 3, 8192
7, 110969, Pitch_bend_c, 3, 8192
7, 110973, Pitch_bend_c, 3, 8192
7, 110977, Pitch_bend_c, 3, 8192
7, 110981, Pitch_bend_c, 3, 8192
7, 110985, Pitch_bend_c, 3, 8192
7, 110990, Pitch_bend_c, 3, 8192
7, 110994, Pitch_bend_c, 3, 8192
7, 110998, Pitch_bend_c, 3, 8192
7, 111002, Pitch_bend_c, 3, 8192
7, 111007, Pitch_bend_c, 3, 8192
7, 111011, Pitch_bend_c, 3, 8192
7, 111015, Pitch_bend_c, 3, 8192
7, 111019, Pitch_bend_c, 3, 8192
7, 111023, Pitch_bend_c, 3, 8192
7, 111028, Pitch_bend_c, 3, 8320
7, 111032, Pitch_bend_c, 3, 8320
7, 111036, Pitch_bend_c, 3, 8320
7, 111040, Pitch_bend_c, 3, 8320
7, 111045, Pitch_bend_c, 3, 8320
7, 111049, Pitch_bend_c, 3, 8320
7, 111053, Pitch_bend_c, 3, 8320
7, 111057, Pitch_bend_c, 3, 8320
7, 111061, Pitch_bend_c, 3, 8320
7, 111066, Pitch_bend_c, 3, 8320
7, 111070, Pitch_bend_c, 3, 8192
7, 111074, Pitch_bend_c, 3, 8192
7, 111078, Pitch_bend_c, 3, 8192
7, 111083, Pitch_bend_c, 3, 8192
7, 111087, Pitch_bend_c, 3, 8192
7, 111091, Pitch_bend_c, 3, 8192
7, 111095, Pitch_bend_c, 3, 8192
7, 111099, Pitch_bend_c, 3, 8064
7, 111104, Pitch_bend_c, 3, 8064
7, 111108, Pitch_bend_c, 3, 8064
7, 111112, Pitch_bend_c, 3, 8064
7, 111116, Pitch_bend_c, 3, 8064
7, 111120, Pitch_bend_c, 3, 8064
7, 111125, Pitch_bend_c, 3, 8064
7, 111129, Pitch_bend_c, 3, 8064
7, 111133, Pitch_bend_c, 3, 8064
7, 111137, Pitch_bend_c, 3, 8064
7, 111142, Pitch_bend_c, 3, 8192
7, 111146, Pitch_bend_c, 3, 8192
7, 111150, Pitch_bend_c, 3, 8192
7, 111154, Pitch_bend_c, 3, 8192
7, 111158, Pitch_bend_c, 3, 8320
7, 111163, Pitch_bend_c, 3, 8320
7, 111167, Pitch_bend_c, 3, 8320
7, 111171, Pitch_bend_c, 3, 8320
7, 111175, Pitch_bend_c, 3, 8320
7, 111180, Pitch_bend_c, 3, 8320
7, 111184, Pitch_bend_c, 3, 8320
7, 111188, Pitch_bend_c, 3, 8320
7, 111192, Pitch_bend_c, 3, 8320
7, 111196, Pitch_bend_c, 3, 8320
7, 111201, Pitch_bend_c, 3, 8320
7, 111205, Pitch_bend_c, 3, 8320
7, 111209, Pitch_bend_c, 3, 8320
7, 111213, Pitch_bend_c, 3, 8192
7, 111218, Pitch_bend_c, 3, 8192
7, 111222, Pitch_bend_c, 3, 8192
7, 111226, Pitch_bend_c, 3, 8064
7, 111230, Pitch_bend_c, 3, 8064
7, 111234, Pitch_bend_c, 3, 8064
7, 111239, Pitch_bend_c, 3, 8064
7, 111243, Pitch_bend_c, 3, 8064
7, 111247, Pitch_bend_c, 3, 8064
7, 111251, Pitch_bend_c, 3, 8064
7, 111255, Pitch_bend_c, 3, 8064
7, 111260, Pitch_bend_c, 3, 8064
7, 111264, Pitch_bend_c, 3, 8064
7, 111268, Pitch_bend_c, 3, 8064
7, 111272, Pitch_bend_c, 3, 8064
7, 111277, Pitch_bend_c, 3, 8064
7, 111281, Pitch_bend_c, 3, 8192
7, 111285, Pitch_bend_c, 3, 8192
7, 111289, Pitch_bend_c, 3, 8192
7, 111293, Pitch_bend_c, 3, 8320
7, 111298, Pitch_bend_c, 3, 8320
7, 111302, Pitch_bend_c, 3, 8320
7, 111306, Pitch_bend_c, 3, 8448
7, 111310, Pitch_bend_c, 3, 8448
7, 111315, Pitch_bend_c, 3, 8448
7, 111319, Pitch_bend_c, 3, 8448
7, 111323, Pitch_bend_c, 3, 8448
7, 111327, Pitch_bend_c, 3, 8448
7, 111331, Pitch_bend_c, 3, 8448
7, 111336, Pitch_bend_c, 3, 8320
7, 111340, Pitch_bend_c, 3, 8320
7, 111344, Pitch_bend_c, 3, 8320
7, 111348, Pitch_bend_c, 3, 8192
7, 111353, Pitch_bend_c, 3, 8192
7, 111357, Pitch_bend_c, 3, 8192
7, 111361, Pitch_bend_c, 3, 8064
7, 111365, Pitch_bend_c, 3, 8064
7, 111369, Pitch_bend_c, 3, 8064
7, 111374, Pitch_bend_c, 3, 7936
7, 111378, Pitch_bend_c, 3, 7936
7, 111382, Pitch_bend_c, 3, 7936
7, 111386, Pitch_bend_c, 3, 7936
7, 111390, Pitch_bend_c, 3, 7936
7, 111395, Pitch_bend_c, 3, 7936
7, 111399, Pitch_bend_c, 3, 7936
7, 111403, Pitch_bend_c, 3, 8064
7, 111407, Pitch_bend_c, 3, 8064
7, 111412, Pitch_bend_c, 3, 8064
7, 111416, Pitch_bend_c, 3, 8192
7, 111420, Pitch_bend_c, 3, 8192
7, 111424, Pitch_bend_c, 3, 8192
7, 111428, Pitch_bend_c, 3, 8320
7, 111433, Pitch_bend_c, 3, 8320
7, 111437, Pitch_bend_c, 3, 8320
7, 111441, Pitch_bend_c, 3, 8320
7, 111445, Pitch_bend_c, 3, 8320
7, 111450, Pitch_bend_c, 3, 8320
7, 111454, Pitch_bend_c, 3, 8320
7, 111458, Pitch_bend_c, 3, 8320
7, 111462, Pitch_bend_c, 3, 8320
7, 111466, Pitch_bend_c, 3, 8320
7, 111471, Pitch_bend_c, 3, 8320
7, 111475, Pitch_bend_c, 3, 8320
7, 111479, Pitch_bend_c, 3, 8320
7, 111483, Pitch_bend_c, 3, 8192
7, 111488, Pitch_bend_c, 3, 8192
7, 111492, Pitch_bend_c, 3, 8192
7, 111496, Pitch_bend_c, 3, 8064
7, 111500, Pitch_bend_c, 3, 8064
7, 111504, Pitch_bend_c, 3, 8064
7, 111509, Pitch_bend_c, 3, 8064
7, 111513, Pitch_bend_c, 3, 8064
7, 111517, Pitch_bend_c, 3, 8064
7, 111521, Pitch_bend_c, 3, 8064
7, 111525, Pitch_bend_c, 3, 8064
7, 111530, Pitch_bend_c, 3, 8064
7, 111534, Pitch_bend_c, 3, 8064
7, 111538, Pitch_bend_c, 3, 8064
7, 111542, Pitch_bend_c, 3, 8064
7, 111547, Pitch_bend_c, 3, 8064
7, 111551, Pitch_bend_c, 3, 8192
7, 111555, Pitch_bend_c, 3, 8192
7, 111559, Pitch_bend_c, 3, 8192
7, 111563, Pitch_bend_c, 3, 8320
7, 111568, Pitch_bend_c, 3, 8320
7, 111572, Pitch_bend_c, 3, 8448
7, 111576, Pitch_bend_c, 3, 8448
7, 111580, Pitch_bend_c, 3, 8448
7, 111585, Pitch_bend_c, 3, 8448
7, 111589, Pitch_bend_c, 3, 8448
7, 111593, Pitch_bend_c, 3, 8448
7, 111597, Pitch_bend_c, 3, 8448
7, 111601, Pitch_bend_c, 3, 8448
7, 111606, Pitch_bend_c, 3, 8448
7, 111610, Pitch_bend_c, 3, 8320
7, 111614, Pitch_bend_c, 3, 8320
7, 111618, Pitch_bend_c, 3, 8320
7, 111623, Pitch_bend_c, 3, 8192
7, 111627, Pitch_bend_c, 3, 8064
7, 111631, Pitch_bend_c, 3, 8064
7, 111635, Pitch_bend_c, 3, 8064
7, 111639, Pitch_bend_c, 3, 7936
7, 111644, Pitch_bend_c, 3, 7936
7, 111648, Pitch_bend_c, 3, 7936
7, 111652, Pitch_bend_c, 3, 7936
7, 111656, Pitch_bend_c, 3, 7936
7, 111660, Pitch_bend_c, 3, 7936
7, 111665, Pitch_bend_c, 3, 7936
7, 111669, Pitch_bend_c, 3, 7936
7, 111673, Pitch_bend_c, 3, 7936
7, 111677, Pitch_bend_c, 3, 8064
7, 111682, Pitch_bend_c, 3, 8064
7, 111686, Pitch_bend_c, 3, 8192
7, 111690, Pitch_bend_c, 3, 8192
7, 111694, Pitch_bend_c, 3, 8192
7, 111698, Pitch_bend_c, 3, 8320
7, 111703, Pitch_bend_c, 3, 8320
7, 111707, Pitch_bend_c, 3, 8320
7, 111711, Pitch_bend_c, 3, 8320
7, 111715, Pitch_bend_c, 3, 8320
7, 111720, Pitch_bend_c, 3, 8448
7, 111724, Pitch_bend_c, 3, 8448
7, 111728, Pitch_bend_c, 3, 8448
7, 111732, Pitch_bend_c, 3, 8320
7, 111736, Pitch_bend_c, 3, 8320
7, 111741, Pitch_bend_c, 3, 8320
7, 111745, Pitch_bend_c, 3, 8320
7, 111749, Pitch_bend_c, 3, 8320
7, 111753, Pitch_bend_c, 3, 8192
7, 111758, Pitch_bend_c, 3, 8192
7, 111762, Pitch_bend_c, 3, 8192
7, 111766, Pitch_bend_c, 3, 8064
7, 111770, Pitch_bend_c, 3, 8064
7, 111774, Pitch_bend_c, 3, 8064
7, 111779, Pitch_bend_c, 3, 8064
7, 111783, Pitch_bend_c, 3, 8064
7, 111787, Pitch_bend_c, 3, 7936
7, 111791, Pitch_bend_c, 3, 7936
7, 111795, Pitch_bend_c, 3, 7936
7, 111800, Pitch_bend_c, 3, 8064
7, 111804, Pitch_bend_c, 3, 8064
7, 111808, Pitch_bend_c, 3, 8064
7, 111812, Pitch_bend_c, 3, 8064
7, 111817, Pitch_bend_c, 3, 8064
7, 111821, Pitch_bend_c, 3, 8192
7, 111825, Pitch_bend_c, 3, 8192
7, 111829, Pitch_bend_c, 3, 8192
7, 111833, Pitch_bend_c, 3, 8320
7, 111838, Pitch_bend_c, 3, 8320
7, 111842, Pitch_bend_c, 3, 8320
7, 111846, Pitch_bend_c, 3, 8320
7, 111850, Pitch_bend_c, 3, 8320
7, 111855, Pitch_bend_c, 3, 8320
7, 111859, Pitch_bend_c, 3, 8320
7, 111863, Pitch_bend_c, 3, 8320
7, 111867, Pitch_bend_c, 3, 8320
7, 111871, Pitch_bend_c, 3, 8320
7, 111876, Pitch_bend_c, 3, 8320
7, 111880, Pitch_bend_c, 3, 8320
7, 111884, Pitch_bend_c, 3, 8320
7, 111888, Pitch_bend_c, 3, 8192
7, 111893, Pitch_bend_c, 3, 8192
7, 111897, Pitch_bend_c, 3, 8192
7, 111901, Pitch_bend_c, 3, 8064
7, 111905, Pitch_bend_c, 3, 8064
7, 111909, Pitch_bend_c, 3, 8064
7, 111914, Pitch_bend_c, 3, 8064
7, 111918, Pitch_bend_c, 3, 8064
7, 111922, Pitch_bend_c, 3, 8064
7, 111926, Pitch_bend_c, 3, 8064
7, 111930, Pitch_bend_c, 3, 8064
7, 111935, Pitch_bend_c, 3, 8064
7, 111939, Pitch_bend_c, 3, 8064
7, 111943, Pitch_bend_c, 3, 8064
7, 111947, Pitch_bend_c, 3, 8064
7, 111952, Pitch_bend_c, 3, 8064
7, 111956, Pitch_bend_c, 3, 8192
7, 111960, Pitch_bend_c, 3, 8192
7, 111964, Pitch_bend_c, 3, 8192
7, 111968, Pitch_bend_c, 3, 8320
7, 111973, Pitch_bend_c, 3, 8320
7, 111977, Pitch_bend_c, 3, 8320
7, 111981, Pitch_bend_c, 3, 8320
7, 111985, Pitch_bend_c, 3, 8448
7, 111990, Pitch_bend_c, 3, 8448
7, 111994, Pitch_bend_c, 3, 8448
7, 111998, Pitch_bend_c, 3, 8448
7, 112002, Pitch_bend_c, 3, 8448
7, 112006, Pitch_bend_c, 3, 8320
7, 112011, Pitch_bend_c, 3, 8320
7, 112015, Pitch_bend_c, 3, 8320
7, 112019, Pitch_bend_c, 3, 8320
7, 112023, Pitch_bend_c, 3, 8192
7, 112028, Pitch_bend_c, 3, 8192
7, 112032, Pitch_bend_c, 3, 8192
7, 112036, Pitch_bend_c, 3, 8064
7, 112040, Pitch_bend_c, 3, 8064
7, 112044, Pitch_bend_c, 3, 8064
7, 112049, Pitch_bend_c, 3, 8064
7, 112053, Pitch_bend_c, 3, 7936
7, 112057, Pitch_bend_c, 3, 7936
7, 112061, Pitch_bend_c, 3, 7936
7, 112065, Pitch_bend_c, 3, 7936
7, 112070, Pitch_bend_c, 3, 7936
7, 112074, Pitch_bend_c, 3, 8064
7, 112078, Pitch_bend_c, 3, 8064
7, 112082, Pitch_bend_c, 3, 8064
7, 112087, Pitch_bend_c, 3, 8064
7, 112091, Pitch_bend_c, 3, 8192
7, 112095, Pitch_bend_c, 3, 8192
7, 112099, Pitch_bend_c, 3, 8192
7, 112103, Pitch_bend_c, 3, 8320
7, 112108, Pitch_bend_c, 3, 8320
7, 112112, Pitch_bend_c, 3, 8320
7, 112116, Pitch_bend_c, 3, 8448
7, 112120, Pitch_bend_c, 3, 8448
7, 112125, Pitch_bend_c, 3, 8448
7, 112129, Pitch_bend_c, 3, 8448
7, 112133, Pitch_bend_c, 3, 8448
7, 112137, Pitch_bend_c, 3, 8448
7, 112141, Pitch_bend_c, 3, 8448
7, 112146, Pitch_bend_c, 3, 8320
7, 112150, Pitch_bend_c, 3, 8320
7, 112154, Pitch_bend_c, 3, 8320
7, 112158, Pitch_bend_c, 3, 8192
7, 112163, Pitch_bend_c, 3, 8192
7, 112167, Pitch_bend_c, 3, 8192
7, 112171, Pitch_bend_c, 3, 8064
7, 112175, Pitch_bend_c, 3, 8064
7, 112179, Pitch_bend_c, 3, 8064
7, 112184, Pitch_bend_c, 3, 7936
7, 112188, Pitch_bend_c, 3, 7936
7, 112192, Pitch_bend_c, 3, 7936
7, 112196, Pitch_bend_c, 3, 7936
7, 112200, Pitch_bend_c, 3, 7936
7, 112205, Pitch_bend_c, 3, 7936
7, 112209, Pitch_bend_c, 3, 7936
7, 112213, Pitch_bend_c, 3, 8064
7, 112217, Pitch_bend_c, 3, 8064
7, 112222, Pitch_bend_c, 3, 8064
7, 112226, Pitch_bend_c, 3, 8192
7, 112230, Pitch_bend_c, 3, 8192
7, 112234, Pitch_bend_c, 3, 8192
7, 112238, Pitch_bend_c, 3, 8192
7, 112243, Pitch_bend_c, 3, 8320
7, 112247, Pitch_bend_c, 3, 8320
7, 112251, Pitch_bend_c, 3, 8320
7, 112255, Pitch_bend_c, 3, 8320
7, 112260, Pitch_bend_c, 3, 8320
7, 112264, Pitch_bend_c, 3, 8320
7, 112268, Pitch_bend_c, 3, 8320
7, 112272, Pitch_bend_c, 3, 8320
7, 112276, Pitch_bend_c, 3, 8320
7, 112281, Pitch_bend_c, 3, 8320
7, 112285, Pitch_bend_c, 3, 8320
7, 112289, Pitch_bend_c, 3, 8192
7, 112293, Pitch_bend_c, 3, 8192
7, 112298, Pitch_bend_c, 3, 8192
7, 112302, Pitch_bend_c, 3, 8192
7, 112306, Pitch_bend_c, 3, 8192
7, 112310, Pitch_bend_c, 3, 8064
7, 112314, Pitch_bend_c, 3, 8064
7, 112319, Pitch_bend_c, 3, 8064
7, 112320, Note_off_c, 3, 69, 80
7, 112320, Pitch_bend_c, 3, 8192
7, 113280, Control_c, 2, 7, 32
7, 113280, Control_c, 3, 7, 32
7, 115200, Control_c, 2, 7, 36
7, 115200, Control_c, 3, 7, 36
7, 115200, Note_on_c, 2, 74, 95
7, 115200, Note_on_c, 2, 67, 95
7, 115200, Note_on_c, 2, 64, 95
7, 115320, Control_c, 2, 7, 39
7, 115320, Control_c, 3, 7, 39
7, 115440, Control_c, 2, 7, 43
7, 115440, Control_c, 3, 7, 43
7, 115560, Control_c, 2, 7, 46
7, 115560, Control_c, 3, 7, 46
7, 115680, Control_c, 2, 7, 50
7, 115680, Control_c, 3, 7, 50
7, 115800, Control_c, 2, 7, 53
7, 115800, Control_c, 3, 7, 53
7, 115920, Control_c, 2, 7, 57
7, 115920, Control_c, 3, 7, 57
7, 116040, Control_c, 2, 7, 60
7, 116040, Control_c, 3, 7, 60
7, 116160, Control_c, 2, 7, 64
7, 116160, Control_c, 3, 7, 64
7, 124800, Control_c, 2, 7, 65
7, 124800, Control_c, 3, 7, 65
7, 124920, Control_c, 2, 7, 66
7, 124920, Control_c, 3, 7, 66
7, 125040, Control_c, 2, 7, 67
7, 125040, Control_c, 3, 7, 67
7, 125160, Control_c, 2, 7, 67
7, 125160, Control_c, 3, 7, 67
7, 125280, Control_c, 2, 7, 68
7, 125280, Control_c, 3, 7, 68
7, 125400, Control_c, 2, 7, 69
7, 125400, Control_c, 3, 7, 69
7, 125520, Control_c, 2, 7, 70
7, 125520, Control_c, 3, 7, 70
7, 125640, Control_c, 2, 7, 71
7, 125640, Control_c, 3, 7, 71
7, 125760, Control_c, 2, 7, 72
7, 125760, Control_c, 3, 7, 72
7, 125880, Control_c, 2, 7, 73
7, 125880, Control_c, 3, 7, 73
7, 126000, Control_c, 2, 7, 74
7, 126000, Control_c, 3, 7, 74
7, 126120, Control_c, 2, 7, 74
7, 126120, Control_c, 3, 7, 74
7, 126240, Control_c, 2, 7, 75
7, 126240, Control_c, 3, 7, 75
7, 126360, Control_c, 2, 7, 76
7, 126360, Control_c, 3, 7, 76
7, 126480, Control_c, 2, 7, 77
7, 126480, Control_c, 3, 7, 77
7, 126600, Control_c, 2, 7, 78
7, 126600, Control_c, 3, 7, 78
7, 126720, Control_c, 2, 7, 79
7, 126720, Control_c, 3, 7, 79
7, 126840, Control_c, 2, 7, 80
7, 126840, Control_c, 3, 7, 80
7, 126960, Control_c, 2, 7, 80
7, 126960, Control_c, 3, 7, 80
7, 127080, Control_c, 2, 7, 81
7, 127080, Control_c, 3, 7, 81
7, 127200, Control_c, 2, 7, 82
7, 127200, Control_c, 3, 7, 82
7, 127320, Control_c, 2, 7, 83
7, 127320, Control_c, 3, 7, 83
7, 127440, Control_c, 2, 7, 84
7, 127440, Control_c, 3, 7, 84
7, 127560, Control_c, 2, 7, 85
7, 127560, Control_c, 3, 7, 85
7, 127680, Control_c, 2, 7, 86
7, 127680, Control_c, 3, 7, 86
7, 127800, Control_c, 2, 7, 86
7, 127800, Control_c, 3, 7, 86
7, 127920, Control_c, 2, 7, 87
7, 127920, Control_c, 3, 7, 87
7, 128040, Control_c, 2, 7, 88
7, 128040, Control_c, 3, 7, 88
7, 128160, Control_c, 2, 7, 89
7, 128160, Control_c, 3, 7, 89
7, 128280, Control_c, 2, 7, 90
7, 128280, Control_c, 3, 7, 90
7, 128400, Control_c, 2, 7, 91
7, 128400, Control_c, 3, 7, 91
7, 128520, Control_c, 2, 7, 92
7, 128520, Control_c, 3, 7, 92
7, 128640, Control_c, 2, 7, 93
7, 128640, Control_c, 3, 7, 93
7, 128760, Control_c, 2, 7, 93
7, 128760, Control_c, 3, 7, 93
7, 128880, Control_c, 2, 7, 94
7, 128880, Control_c, 3, 7, 94
7, 129000, Control_c, 2, 7, 95
7, 129000, Control_c, 3, 7, 95
7, 129120, Control_c, 2, 7, 96
7, 129120, Control_c, 3, 7, 96
7, 153600, Note_off_c, 2, 64, 80
7, 155520, Note_off_c, 2, 74, 80
7, 155520, Note_off_c, 2, 67, 80
7, 155520, End_track
8, 0, Start_track
8, 0, Title_t, "Bass (low low low)"
8, 0, Control_c, 1, 100, 0
8, 0, Control_c, 1, 101, 0
8, 0, Control_c, 1, 6, 12
8, 0, Pitch_bend_c, 1, 8192
8, 0, Control_c, 1, 101, 0
8, 0, Control_c, 1, 100, 1
8, 0, Control_c, 1, 6, 64
8, 0, Control_c, 1, 38, 0
8, 0, Control_c, 1, 101, 127
8, 0, Control_c, 1, 100, 127
8, 0, Control_c, 0, 100, 0
8, 0, Control_c, 0, 101, 0
8, 0, Control_c, 0, 6, 12
8, 0, Pitch_bend_c, 0, 8192
8, 0, Control_c, 0, 101, 0
8, 0, Control_c, 0, 100, 1
8, 0, Control_c, 0, 6, 64
8, 0, Control_c, 0, 38, 0
8, 0, Control_c, 0, 101, 127
8, 0, Control_c, 0, 100, 127
8, 0, Control_c, 1, 101, 0
8, 0, Control_c, 1, 100, 2
8, 0, Control_c, 1, 6, 64
8, 0, Control_c, 1, 101, 127
8, 0, Control_c, 1, 100, 127
8, 0, Control_c, 0, 101, 0
8, 0, Control_c, 0, 100, 2
8, 0, Control_c, 0, 6, 64
8, 0, Control_c, 0, 101, 127
8, 0, Control_c, 0, 100, 127
8, 0, Program_c, 1, 87
8, 0, Program_c, 0, 87
8, 0, Control_c, 1, 0, 0
8, 0, Control_c, 0, 0, 0
8, 0, Control_c, 1, 7, 104
8, 0, Control_c, 0, 7, 104
8, 0, Control_c, 1, 10, 64
8, 0, Control_c, 0, 10, 64
8, 0, Control_c, 1, 93, 0
8, 0, Control_c, 0, 93, 0
8, 0, Control_c, 1, 91, 0
8, 0, Control_c, 0, 91, 0
8, 0, Control_c, 1, 92, 0
8, 0, Control_c, 0, 92, 0
8, 0, Control_c, 1, 95, 0
8, 0, Control_c, 0, 95, 0
8, 13440, Note_on_c, 0, 24, 95
8, 14880, Note_off_c, 0, 24, 80
8, 14880, Note_on_c, 0, 31, 95
8, 15120, Note_off_c, 0, 31, 80
8, 15120, Note_on_c, 0, 28, 95
8, 16800, Note_off_c, 0, 28, 80
8, 16800, Note_on_c, 0, 35, 95
8, 17040, Note_off_c, 0, 35, 80
8, 17040, Note_on_c, 0, 31, 95
8, 17760, Note_off_c, 0, 31, 80
8, 17760, Note_on_c, 0, 38, 95
8, 18000, Note_off_c, 0, 38, 80
8, 18000, Note_on_c, 0, 24, 95
8, 19680, Note_off_c, 0, 24, 80
8, 19680, Note_on_c, 0, 31, 95
8, 19920, Note_off_c, 0, 31, 80
8, 19920, Note_on_c, 0, 28, 95
8, 21600, Note_off_c, 0, 28, 80
8, 21600, Note_on_c, 0, 35, 95
8, 21840, Note_off_c, 0, 35, 80
8, 21840, Note_on_c, 0, 31, 95
8, 22560, Note_off_c, 0, 31, 80
8, 22560, Note_on_c, 0, 38, 95
8, 22800, Note_off_c, 0, 38, 80
8, 22800, Note_on_c, 0, 24, 95
8, 24480, Note_off_c, 0, 24, 80
8, 24480, Note_on_c, 0, 31, 95
8, 24720, Note_off_c, 0, 31, 80
8, 24720, Note_on_c, 0, 28, 95
8, 26400, Note_off_c, 0, 28, 80
8, 26400, Note_on_c, 0, 35, 95
8, 26640, Note_off_c, 0, 35, 80
8, 26640, Note_on_c, 0, 31, 95
8, 27360, Note_off_c, 0, 31, 80
8, 27360, Note_on_c, 0, 38, 95
8, 27600, Note_off_c, 0, 38, 80
8, 27600, Note_on_c, 0, 24, 95
8, 29280, Note_off_c, 0, 24, 80
8, 29280, Note_on_c, 0, 31, 95
8, 29520, Note_off_c, 0, 31, 80
8, 29520, Note_on_c, 0, 28, 95
8, 31200, Note_off_c, 0, 28, 80
8, 31200, Note_on_c, 0, 35, 95
8, 31440, Note_off_c, 0, 35, 80
8, 31440, Note_on_c, 0, 31, 95
8, 32160, Note_off_c, 0, 31, 80
8, 32160, Note_on_c, 0, 38, 95
8, 32400, Note_off_c, 0, 38, 80
8, 32400, Note_on_c, 0, 24, 95
8, 34080, Note_off_c, 0, 24, 80
8, 34080, Note_on_c, 0, 31, 95
8, 34320, Note_off_c, 0, 31, 80
8, 34320, Note_on_c, 0, 28, 95
8, 36000, Note_off_c, 0, 28, 80
8, 36000, Note_on_c, 0, 35, 95
8, 36240, Note_off_c, 0, 35, 80
8, 36240, Note_on_c, 0, 31, 95
8, 36960, Note_off_c, 0, 31, 80
8, 36960, Note_on_c, 0, 38, 95
8, 37200, Note_off_c, 0, 38, 80
8, 37200, Note_on_c, 0, 24, 95
8, 38880, Note_off_c, 0, 24, 80
8, 38880, Note_on_c, 0, 31, 95
8, 39120, Note_off_c, 0, 31, 80
8, 39120, Note_on_c, 0, 28, 95
8, 40800, Note_off_c, 0, 28, 80
8, 40800, Note_on_c, 0, 35, 95
8, 41040, Note_off_c, 0, 35, 80
8, 41040, Note_on_c, 0, 31, 95
8, 41760, Note_off_c, 0, 31, 80
8, 41760, Note_on_c, 0, 38, 95
8, 42000, Note_off_c, 0, 38, 80
8, 42000, Note_on_c, 0, 24, 95
8, 43680, Note_off_c, 0, 24, 80
8, 43680, Note_on_c, 0, 31, 95
8, 43920, Note_off_c, 0, 31, 80
8, 43920, Note_on_c, 0, 28, 95
8, 45600, Note_off_c, 0, 28, 80
8, 45600, Note_on_c, 0, 35, 95
8, 45840, Note_off_c, 0, 35, 80
8, 45840, Note_on_c, 0, 31, 95
8, 46560, Note_off_c, 0, 31, 80
8, 46560, Note_on_c, 0, 38, 95
8, 46800, Note_off_c, 0, 38, 80
8, 46800, Note_on_c, 0, 24, 95
8, 48480, Note_off_c, 0, 24, 80
8, 48480, Note_on_c, 0, 31, 95
8, 48720, Note_off_c, 0, 31, 80
8, 48720, Note_on_c, 0, 28, 95
8, 50400, Note_off_c, 0, 28, 80
8, 50400, Note_on_c, 0, 35, 95
8, 50640, Note_off_c, 0, 35, 80
8, 50640, Note_on_c, 0, 31, 95
8, 51360, Note_off_c, 0, 31, 80
8, 51360, Note_on_c, 0, 38, 95
8, 51600, Note_off_c, 0, 38, 80
8, 51600, Note_on_c, 0, 24, 95
8, 53280, Note_off_c, 0, 24, 80
8, 53280, Note_on_c, 0, 31, 95
8, 53520, Note_off_c, 0, 31, 80
8, 53520, Note_on_c, 0, 28, 95
8, 55200, Note_off_c, 0, 28, 80
8, 55200, Note_on_c, 0, 35, 95
8, 55440, Note_off_c, 0, 35, 80
8, 55440, Note_on_c, 0, 24, 79
8, 57120, Note_off_c, 0, 24, 80
8, 57120, Note_on_c, 0, 31, 95
8, 57360, Note_off_c, 0, 31, 80
8, 57360, Note_on_c, 0, 28, 95
8, 59040, Note_off_c, 0, 28, 80
8, 59040, Note_on_c, 0, 26, 79
8, 59280, Note_off_c, 0, 26, 80
8, 59280, Note_on_c, 0, 24, 79
8, 60960, Note_off_c, 0, 24, 80
8, 60960, Note_on_c, 0, 31, 95
8, 61200, Note_off_c, 0, 31, 80
8, 61200, Note_on_c, 0, 28, 95
8, 62880, Note_off_c, 0, 28, 80
8, 62880, Note_on_c, 0, 35, 95
8, 63120, Note_off_c, 0, 35, 80
8, 63120, Note_on_c, 0, 24, 79
8, 64800, Note_off_c, 0, 24, 80
8, 64800, Note_on_c, 0, 31, 95
8, 65040, Note_off_c, 0, 31, 80
8, 65040, Note_on_c, 0, 28, 95
8, 66480, Note_off_c, 0, 28, 80
8, 66480, Note_on_c, 0, 23, 79
8, 66720, Note_off_c, 0, 23, 80
8, 66720, Note_on_c, 0, 26, 79
8, 66960, Note_off_c, 0, 26, 80
8, 66960, Note_on_c, 0, 24, 79
8, 68640, Note_off_c, 0, 24, 80
8, 68640, Note_on_c, 0, 31, 95
8, 68880, Note_off_c, 0, 31, 80
8, 68880, Note_on_c, 0, 28, 95
8, 69600, Note_off_c, 0, 28, 80
8, 69600, Note_on_c, 0, 35, 79
8, 69840, Note_off_c, 0, 35, 80
8, 69840, Note_on_c, 0, 31, 79
8, 70560, Note_off_c, 0, 31, 80
8, 70560, Note_on_c, 0, 38, 79
8, 70800, Note_off_c, 0, 38, 80
8, 70800, Note_on_c, 0, 24, 79
8, 72480, Note_off_c, 0, 24, 80
8, 72480, Note_on_c, 0, 31, 95
8, 72720, Note_off_c, 0, 31, 80
8, 72720, Note_on_c, 0, 28, 95
8, 74400, Note_off_c, 0, 28, 80
8, 74400, Note_on_c, 0, 35, 95
8, 74640, Note_off_c, 0, 35, 80
8, 74640, Note_on_c, 0, 31, 95
8, 75360, Note_off_c, 0, 31, 80
8, 75360, Note_on_c, 0, 38, 95
8, 75600, Note_off_c, 0, 38, 80
8, 75600, Note_on_c, 0, 24, 95
8, 77280, Note_off_c, 0, 24, 80
8, 77280, Note_on_c, 0, 31, 95
8, 77520, Note_off_c, 0, 31, 80
8, 77520, Note_on_c, 0, 28, 95
8, 79200, Note_off_c, 0, 28, 80
8, 79200, Note_on_c, 0, 35, 95
8, 79440, Note_off_c, 0, 35, 80
8, 79440, Note_on_c, 0, 31, 95
8, 80160, Note_off_c, 0, 31, 80
8, 80160, Note_on_c, 0, 38, 95
8, 80400, Note_off_c, 0, 38, 80
8, 80400, Note_on_c, 0, 24, 95
8, 82080, Note_off_c, 0, 24, 80
8, 82080, Note_on_c, 0, 31, 95
8, 82320, Note_off_c, 0, 31, 80
8, 82320, Note_on_c, 0, 28, 95
8, 84000, Note_off_c, 0, 28, 80
8, 84000, Note_on_c, 0, 35, 95
8, 84240, Note_off_c, 0, 35, 80
8, 84240, Note_on_c, 0, 31, 95
8, 84960, Note_off_c, 0, 31, 80
8, 84960, Note_on_c, 0, 38, 95
8, 85200, Note_off_c, 0, 38, 80
8, 85200, Note_on_c, 0, 24, 95
8, 86880, Note_off_c, 0, 24, 80
8, 86880, Note_on_c, 0, 31, 95
8, 87120, Note_off_c, 0, 31, 80
8, 87120, Note_on_c, 0, 28, 95
8, 88800, Note_off_c, 0, 28, 80
8, 88800, Note_on_c, 0, 35, 95
8, 89040, Note_off_c, 0, 35, 80
8, 89040, Note_on_c, 0, 31, 95
8, 89760, Note_off_c, 0, 31, 80
8, 89760, Note_on_c, 0, 38, 95
8, 90000, Note_off_c, 0, 38, 80
8, 90000, Note_on_c, 0, 24, 95
8, 91680, Note_off_c, 0, 24, 80
8, 91680, Note_on_c, 0, 31, 95
8, 91920, Note_off_c, 0, 31, 80
8, 91920, Note_on_c, 0, 28, 95
8, 93600, Note_off_c, 0, 28, 80
8, 93600, Note_on_c, 0, 35, 95
8, 93840, Note_off_c, 0, 35, 80
8, 93840, Note_on_c, 0, 31, 95
8, 94560, Note_off_c, 0, 31, 80
8, 94560, Note_on_c, 0, 38, 95
8, 94800, Note_off_c, 0, 38, 80
8, 94800, Note_on_c, 0, 24, 95
8, 96480, Note_off_c, 0, 24, 80
8, 96480, Note_on_c, 0, 31, 95
8, 96720, Note_off_c, 0, 31, 80
8, 96720, Note_on_c, 0, 28, 95
8, 98400, Note_off_c, 0, 28, 80
8, 98400, Note_on_c, 0, 35, 95
8, 98640, Note_off_c, 0, 35, 80
8, 98640, Note_on_c, 0, 31, 95
8, 99360, Note_off_c, 0, 31, 80
8, 99360, Note_on_c, 0, 38, 95
8, 99600, Note_off_c, 0, 38, 80
8, 99600, Note_on_c, 0, 24, 95
8, 101280, Note_off_c, 0, 24, 80
8, 101280, Note_on_c, 0, 31, 95
8, 101520, Note_off_c, 0, 31, 80
8, 101520, Note_on_c, 0, 28, 95
8, 103200, Note_off_c, 0, 28, 80
8, 103200, Note_on_c, 0, 35, 95
8, 103440, Note_off_c, 0, 35, 80
8, 103440, Note_on_c, 0, 24, 79
8, 105120, Note_off_c, 0, 24, 80
8, 105120, Note_on_c, 0, 31, 95
8, 105360, Note_off_c, 0, 31, 80
8, 105360, Note_on_c, 0, 28, 95
8, 107040, Note_off_c, 0, 28, 80
8, 107040, Note_on_c, 0, 26, 79
8, 107280, Note_off_c, 0, 26, 80
8, 107280, Note_on_c, 0, 24, 79
8, 108960, Note_off_c, 0, 24, 80
8, 108960, Note_on_c, 0, 31, 95
8, 109200, Note_off_c, 0, 31, 80
8, 109200, Note_on_c, 0, 28, 95
8, 110880, Note_off_c, 0, 28, 80
8, 110880, Note_on_c, 0, 35, 95
8, 111120, Note_off_c, 0, 35, 80
8, 111120, Note_on_c, 0, 24, 79
8, 112800, Note_off_c, 0, 24, 80
8, 112800, Note_on_c, 0, 31, 95
8, 113040, Note_off_c, 0, 31, 80
8, 113040, Note_on_c, 0, 28, 95
8, 113760, Note_off_c, 0, 28, 80
8, 113760, Note_on_c, 0, 35, 79
8, 114000, Note_off_c, 0, 35, 80
8, 114000, Note_on_c, 0, 31, 79
8, 114720, Note_off_c, 0, 31, 80
8, 114720, Note_on_c, 0, 38, 79
8, 114960, Note_off_c, 0, 38, 80
8, 114960, Program_c, 0, 81
8, 114960, Program_c, 1, 81
8, 114960, Control_c, 0, 7, 104
8, 114960, Control_c, 1, 7, 104
8, 114960, Control_c, 0, 10, 63
8, 114960, Control_c, 1, 10, 63
8, 114960, Note_on_c, 0, 36, 111
8, 114960, Note_on_c, 0, 24, 79
8, 115080, Control_c, 0, 10, 61
8, 115080, Control_c, 1, 10, 61
8, 115200, Control_c, 0, 10, 60
8, 115200, Control_c, 1, 10, 60
8, 115320, Control_c, 0, 10, 58
8, 115320, Control_c, 1, 10, 58
8, 115440, Control_c, 0, 10, 57
8, 115440, Control_c, 1, 10, 57
8, 115560, Control_c, 0, 10, 55
8, 115560, Control_c, 1, 10, 55
8, 115680, Control_c, 0, 10, 54
8, 115680, Control_c, 1, 10, 54
8, 115800, Control_c, 0, 10, 53
8, 115800, Control_c, 1, 10, 53
8, 115920, Control_c, 0, 10, 51
8, 115920, Control_c, 1, 10, 51
8, 116040, Control_c, 0, 10, 50
8, 116040, Control_c, 1, 10, 50
8, 116160, Control_c, 0, 10, 48
8, 116160, Control_c, 1, 10, 48
8, 116280, Control_c, 0, 10, 47
8, 116280, Control_c, 1, 10, 47
8, 116400, Control_c, 0, 10, 46
8, 116400, Control_c, 1, 10, 46
8, 116520, Control_c, 0, 10, 44
8, 116520, Control_c, 1, 10, 44
8, 116640, Control_c, 0, 10, 43
8, 116640, Control_c, 1, 10, 43
8, 116640, Note_off_c, 0, 36, 80
8, 116640, Note_off_c, 0, 24, 80
8, 116640, Note_on_c, 0, 38, 111
8, 116640, Note_on_c, 0, 26, 95
8, 116760, Control_c, 0, 10, 41
8, 116760, Control_c, 1, 10, 41
8, 116880, Control_c, 0, 10, 40
8, 116880, Control_c, 1, 10, 40
8, 116880, Note_off_c, 0, 38, 80
8, 116880, Note_off_c, 0, 26, 80
8, 116880, Note_on_c, 0, 36, 111
8, 116880, Note_on_c, 0, 24, 95
8, 117000, Control_c, 0, 10, 38
8, 117000, Control_c, 1, 10, 38
8, 117120, Control_c, 0, 10, 37
8, 117120, Control_c, 1, 10, 37
8, 117240, Control_c, 0, 10, 36
8, 117240, Control_c, 1, 10, 36
8, 117360, Control_c, 0, 10, 34
8, 117360, Control_c, 1, 10, 34
8, 117480, Control_c, 0, 10, 33
8, 117480, Control_c, 1, 10, 33
8, 117600, Control_c, 0, 10, 31
8, 117600, Control_c, 1, 10, 31
8, 117720, Control_c, 0, 10, 30
8, 117720, Control_c, 1, 10, 30
8, 117840, Control_c, 0, 10, 28
8, 117840, Control_c, 1, 10, 28
8, 117960, Control_c, 0, 10, 27
8, 117960, Control_c, 1, 10, 27
8, 118080, Control_c, 0, 10, 26
8, 118080, Control_c, 1, 10, 26
8, 118200, Control_c, 0, 10, 24
8, 118200, Control_c, 1, 10, 24
8, 118320, Control_c, 0, 10, 23
8, 118320, Control_c, 1, 10, 23
8, 118440, Control_c, 0, 10, 21
8, 118440, Control_c, 1, 10, 21
8, 118560, Control_c, 0, 10, 20
8, 118560, Control_c, 1, 10, 20
8, 118560, Note_off_c, 0, 36, 80
8, 118560, Note_off_c, 0, 24, 80
8, 118560, Note_on_c, 0, 38, 111
8, 118560, Note_on_c, 0, 26, 95
8, 118680, Control_c, 0, 10, 18
8, 118680, Control_c, 1, 10, 18
8, 118800, Control_c, 0, 10, 17
8, 118800, Control_c, 1, 10, 17
8, 118800, Note_off_c, 0, 38, 80
8, 118800, Note_off_c, 0, 26, 80
8, 118800, Note_on_c, 0, 36, 111
8, 118800, Note_on_c, 0, 24, 95
8, 118920, Control_c, 0, 10, 16
8, 118920, Control_c, 1, 10, 16
8, 119040, Control_c, 0, 10, 14
8, 119040, Control_c, 1, 10, 14
8, 119160, Control_c, 0, 10, 13
8, 119160, Control_c, 1, 10, 13
8, 119280, Control_c, 0, 10, 11
8, 119280, Control_c, 1, 10, 11
8, 119400, Control_c, 0, 10, 10
8, 119400, Control_c, 1, 10, 10
8, 119520, Control_c, 0, 10, 9
8, 119520, Control_c, 1, 10, 9
8, 119640, Control_c, 0, 10, 7
8, 119640, Control_c, 1, 10, 7
8, 119760, Control_c, 0, 10, 6
8, 119760, Control_c, 1, 10, 6
8, 119880, Control_c, 0, 10, 4
8, 119880, Control_c, 1, 10, 4
8, 120000, Control_c, 0, 10, 3
8, 120000, Control_c, 1, 10, 3
8, 120120, Control_c, 0, 10, 1
8, 120120, Control_c, 1, 10, 1
8, 120240, Control_c, 0, 10, 0
8, 120240, Control_c, 1, 10, 0
8, 120480, Note_off_c, 0, 36, 80
8, 120480, Note_off_c, 0, 24, 80
8, 120480, Note_on_c, 0, 38, 111
8, 120480, Note_on_c, 0, 26, 95
8, 120720, Note_off_c, 0, 38, 80
8, 120720, Note_off_c, 0, 26, 80
8, 120720, Note_on_c, 0, 36, 111
8, 120720, Note_on_c, 0, 24, 95
8, 122400, Note_off_c, 0, 36, 80
8, 122400, Note_off_c, 0, 24, 80
8, 122400, Note_on_c, 0, 43, 111
8, 122400, Note_on_c, 0, 31, 95
8, 122640, Note_off_c, 0, 43, 80
8, 122640, Note_off_c, 0, 31, 80
8, 122640, Note_on_c, 0, 40, 111
8, 122640, Note_on_c, 0, 28, 95
8, 124320, Note_off_c, 0, 40, 80
8, 124320, Note_off_c, 0, 28, 80
8, 124320, Note_on_c, 0, 47, 111
8, 124320, Note_on_c, 0, 35, 95
8, 124560, Note_off_c, 0, 47, 80
8, 124560, Note_off_c, 0, 35, 80
8, 124560, Note_on_c, 0, 43, 111
8, 124560, Note_on_c, 0, 31, 95
8, 126240, Note_off_c, 0, 43, 80
8, 126240, Note_off_c, 0, 31, 80
8, 126240, Note_on_c, 0, 38, 111
8, 126240, Note_on_c, 0, 26, 95
8, 126480, Note_off_c, 0, 38, 80
8, 126480, Note_off_c, 0, 26, 80
8, 126480, Note_on_c, 0, 36, 111
8, 126480, Note_on_c, 0, 24, 95
8, 128160, Note_off_c, 0, 36, 80
8, 128160, Note_off_c, 0, 24, 80
8, 128160, Note_on_c, 0, 38, 111
8, 128160, Note_on_c, 0, 26, 95
8, 128400, Note_off_c, 0, 38, 80
8, 128400, Note_off_c, 0, 26, 80
8, 128400, Note_on_c, 0, 36, 111
8, 128400, Note_on_c, 0, 24, 95
8, 130080, Note_off_c, 0, 36, 80
8, 130080, Note_off_c, 0, 24, 80
8, 130080, Note_on_c, 0, 43, 111
8, 130080, Note_on_c, 0, 31, 95
8, 130320, Note_off_c, 0, 43, 80
8, 130320, Note_off_c, 0, 31, 80
8, 130320, Note_on_c, 0, 40, 111
8, 130320, Note_on_c, 0, 28, 95
8, 132000, Note_off_c, 0, 40, 80
8, 132000, Note_off_c, 0, 28, 80
8, 132000, Note_on_c, 0, 47, 111
8, 132000, Note_on_c, 0, 35, 95
8, 132240, Note_off_c, 0, 47, 80
8, 132240, Note_off_c, 0, 35, 80
8, 132240, Note_on_c, 0, 43, 111
8, 132240, Note_on_c, 0, 31, 95
8, 133920, Note_off_c, 0, 43, 80
8, 133920, Note_off_c, 0, 31, 80
8, 133920, Note_on_c, 0, 38, 111
8, 133920, Note_on_c, 0, 26, 95
8, 134160, Note_off_c, 0, 38, 80
8, 134160, Note_off_c, 0, 26, 80
8, 134160, Note_on_c, 0, 36, 111
8, 134160, Note_on_c, 0, 24, 95
8, 135840, Note_off_c, 0, 36, 80
8, 135840, Note_off_c, 0, 24, 80
8, 135840, Note_on_c, 0, 38, 111
8, 135840, Note_on_c, 0, 26, 95
8, 136080, Note_off_c, 0, 38, 80
8, 136080, Note_off_c, 0, 26, 80
8, 136080, Note_on_c, 0, 36, 111
8, 136080, Note_on_c, 0, 24, 95
8, 137760, Note_off_c, 0, 36, 80
8, 137760, Note_off_c, 0, 24, 80
8, 137760, Note_on_c, 0, 43, 111
8, 137760, Note_on_c, 0, 31, 95
8, 138000, Note_off_c, 0, 43, 80
8, 138000, Note_off_c, 0, 31, 80
8, 138000, Note_on_c, 0, 40, 111
8, 138000, Note_on_c, 0, 28, 95
8, 139680, Note_off_c, 0, 40, 80
8, 139680, Note_off_c, 0, 28, 80
8, 139680, Note_on_c, 0, 47, 111
8, 139680, Note_on_c, 0, 35, 95
8, 139920, Note_off_c, 0, 47, 80
8, 139920, Note_off_c, 0, 35, 80
8, 139920, Note_on_c, 0, 43, 111
8, 139920, Note_on_c, 0, 31, 95
8, 141600, Note_off_c, 0, 43, 80
8, 141600, Note_off_c, 0, 31, 80
8, 141600, Note_on_c, 0, 38, 111
8, 141600, Note_on_c, 0, 26, 95
8, 141840, Note_off_c, 0, 38, 80
8, 141840, Note_off_c, 0, 26, 80
8, 141840, Note_on_c, 0, 36, 111
8, 141840, Note_on_c, 0, 24, 95
8, 143520, Note_off_c, 0, 36, 80
8, 143520, Note_off_c, 0, 24, 80
8, 143520, Note_on_c, 0, 38, 111
8, 143520, Note_on_c, 0, 26, 95
8, 143760, Note_off_c, 0, 38, 80
8, 143760, Note_off_c, 0, 26, 80
8, 143760, Note_on_c, 0, 36, 111
8, 143760, Note_on_c, 0, 24, 95
8, 145440, Note_off_c, 0, 36, 80
8, 145440, Note_off_c, 0, 24, 80
8, 145440, Note_on_c, 0, 43, 111
8, 145440, Note_on_c, 0, 31, 95
8, 145680, Note_off_c, 0, 43, 80
8, 145680, Note_off_c, 0, 31, 80
8, 145680, Note_on_c, 0, 40, 111
8, 145680, Note_on_c, 0, 28, 95
8, 147360, Note_off_c, 0, 40, 80
8, 147360, Note_off_c, 0, 28, 80
8, 147360, Note_on_c, 0, 47, 111
8, 147360, Note_on_c, 0, 35, 95
8, 147600, Note_off_c, 0, 47, 80
8, 147600, Note_off_c, 0, 35, 80
8, 147600, Note_on_c, 0, 43, 111
8, 147600, Note_on_c, 0, 31, 95
8, 149280, Note_off_c, 0, 43, 80
8, 149280, Note_off_c, 0, 31, 80
8, 149280, Note_on_c, 0, 38, 111
8, 149280, Note_on_c, 0, 26, 95
8, 149520, Note_off_c, 0, 38, 80
8, 149520, Note_off_c, 0, 26, 80
8, 149520, Note_on_c, 0, 36, 111
8, 149520, Note_on_c, 0, 24, 95
8, 151200, Note_off_c, 0, 36, 80
8, 151200, Note_off_c, 0, 24, 80
8, 151200, Note_on_c, 0, 38, 111
8, 151200, Note_on_c, 0, 26, 95
8, 151440, Note_off_c, 0, 38, 80
8, 151440, Note_off_c, 0, 26, 80
8, 151440, Note_on_c, 0, 36, 111
8, 151440, Note_on_c, 0, 24, 95
8, 153120, Note_off_c, 0, 36, 80
8, 153120, Note_off_c, 0, 24, 80
8, 153120, Note_on_c, 0, 43, 111
8, 153120, Note_on_c, 0, 31, 95
8, 153360, Note_off_c, 0, 43, 80
8, 153360, Note_off_c, 0, 31, 80
8, 153360, Note_on_c, 0, 40, 111
8, 153360, Note_on_c, 0, 28, 95
8, 155040, Note_off_c, 0, 40, 80
8, 155040, Note_off_c, 0, 28, 80
8, 155040, End_track
9, 0, Start_track
9, 0, Title_t, "Synth bass"
9, 0, Control_c, 12, 100, 0
9, 0, Control_c, 12, 101, 0
9, 0, Control_c, 12, 6, 12
9, 0, Pitch_bend_c, 12, 8192
9, 0, Control_c, 12, 101, 0
9, 0, Control_c, 12, 100, 1
9, 0, Control_c, 12, 6, 64
9, 0, Control_c, 12, 38, 0
9, 0, Control_c, 12, 101, 127
9, 0, Control_c, 12, 100, 127
9, 0, Control_c, 11, 100, 0
9, 0, Control_c, 11, 101, 0
9, 0, Control_c, 11, 6, 12
9, 0, Pitch_bend_c, 11, 8192
9, 0, Control_c, 11, 101, 0
9, 0, Control_c, 11, 100, 1
9, 0, Control_c, 11, 6, 64
9, 0, Control_c, 11, 38, 0
9, 0, Control_c, 11, 101, 127
9, 0, Control_c, 11, 100, 127
9, 0, Control_c, 12, 101, 0
9, 0, Control_c, 12, 100, 2
9, 0, Control_c, 12, 6, 64
9, 0, Control_c, 12, 101, 127
9, 0, Control_c, 12, 100, 127
9, 0, Control_c, 11, 101, 0
9, 0, Control_c, 11, 100, 2
9, 0, Control_c, 11, 6, 64
9, 0, Control_c, 11, 101, 127
9, 0, Control_c, 11, 100, 127
9, 0, Program_c, 12, 81
9, 0, Program_c, 11, 81
9, 0, Control_c, 12, 0, 0
9, 0, Control_c, 11, 0, 0
9, 0, Control_c, 12, 7, 88
9, 0, Control_c, 11, 7, 88
9, 0, Control_c, 12, 10, 32
9, 0, Control_c, 11, 10, 32
9, 0, Control_c, 12, 93, 0
9, 0, Control_c, 11, 93, 0
9, 0, Control_c, 12, 91, 0
9, 0, Control_c, 11, 91, 0
9, 0, Control_c, 12, 92, 0
9, 0, Control_c, 11, 92, 0
9, 0, Control_c, 12, 95, 0
9, 0, Control_c, 11, 95, 0
9, 13440, Note_on_c, 11, 36, 95
9, 14880, Note_off_c, 11, 36, 80
9, 14880, Note_on_c, 11, 43, 95
9, 15120, Note_off_c, 11, 43, 80
9, 15120, Note_on_c, 11, 40, 95
9, 16800, Note_off_c, 11, 40, 80
9, 16800, Note_on_c, 11, 47, 95
9, 17040, Note_off_c, 11, 47, 80
9, 17040, Note_on_c, 11, 43, 95
9, 17760, Note_off_c, 11, 43, 80
9, 17760, Note_on_c, 11, 50, 95
9, 18000, Note_off_c, 11, 50, 80
9, 18000, Note_on_c, 11, 36, 95
9, 19680, Note_off_c, 11, 36, 80
9, 19680, Note_on_c, 11, 43, 95
9, 19920, Note_off_c, 11, 43, 80
9, 19920, Note_on_c, 11, 40, 95
9, 21600, Note_off_c, 11, 40, 80
9, 21600, Note_on_c, 11, 47, 95
9, 21840, Note_off_c, 11, 47, 80
9, 21840, Note_on_c, 11, 43, 95
9, 22560, Note_off_c, 11, 43, 80
9, 22560, Note_on_c, 11, 50, 95
9, 22800, Note_off_c, 11, 50, 80
9, 22800, Note_on_c, 11, 36, 95
9, 24480, Note_off_c, 11, 36, 80
9, 24480, Note_on_c, 11, 43, 95
9, 24720, Note_off_c, 11, 43, 80
9, 24720, Note_on_c, 11, 40, 95
9, 26400, Note_off_c, 11, 40, 80
9, 26400, Note_on_c, 11, 47, 95
9, 26640, Note_off_c, 11, 47, 80
9, 26640, Note_on_c, 11, 43, 95
9, 27360, Note_off_c, 11, 43, 80
9, 27360, Note_on_c, 11, 50, 95
9, 27600, Note_off_c, 11, 50, 80
9, 27600, Note_on_c, 11, 36, 95
9, 29280, Note_off_c, 11, 36, 80
9, 29280, Note_on_c, 11, 43, 95
9, 29520, Note_off_c, 11, 43, 80
9, 29520, Note_on_c, 11, 40, 95
9, 31200, Note_off_c, 11, 40, 80
9, 31200, Note_on_c, 11, 47, 95
9, 31440, Note_off_c, 11, 47, 80
9, 31440, Note_on_c, 11, 43, 95
9, 32160, Note_off_c, 11, 43, 80
9, 32160, Note_on_c, 11, 50, 95
9, 32400, Note_off_c, 11, 50, 80
9, 32400, Note_on_c, 11, 36, 95
9, 34080, Note_off_c, 11, 36, 80
9, 34080, Note_on_c, 11, 43, 95
9, 34320, Note_off_c, 11, 43, 80
9, 34320, Note_on_c, 11, 40, 95
9, 36000, Note_off_c, 11, 40, 80
9, 36000, Note_on_c, 11, 47, 95
9, 36240, Note_off_c, 11, 47, 80
9, 36240, Note_on_c, 11, 43, 95
9, 36960, Note_off_c, 11, 43, 80
9, 36960, Note_on_c, 11, 50, 95
9, 37200, Note_off_c, 11, 50, 80
9, 37200, Note_on_c, 11, 36, 95
9, 38880, Note_off_c, 11, 36, 80
9, 38880, Note_on_c, 11, 43, 95
9, 39120, Note_off_c, 11, 43, 80
9, 39120, Note_on_c, 11, 40, 95
9, 40800, Note_off_c, 11, 40, 80
9, 40800, Note_on_c, 11, 47, 95
9, 41040, Note_off_c, 11, 47, 80
9, 41040, Note_on_c, 11, 43, 95
9, 41760, Note_off_c, 11, 43, 80
9, 41760, Note_on_c, 11, 50, 95
9, 42000, Note_off_c, 11, 50, 80
9, 42000, Note_on_c, 11, 36, 95
9, 43680, Note_off_c, 11, 36, 80
9, 43680, Note_on_c, 11, 43, 95
9, 43920, Note_off_c, 11, 43, 80
9, 43920, Note_on_c, 11, 40, 95
9, 45600, Note_off_c, 11, 40, 80
9, 45600, Note_on_c, 11, 47, 95
9, 45840, Note_off_c, 11, 47, 80
9, 45840, Note_on_c, 11, 43, 95
9, 46560, Note_off_c, 11, 43, 80
9, 46560, Note_on_c, 11, 50, 95
9, 46800, Note_off_c, 11, 50, 80
9, 46800, Note_on_c, 11, 36, 95
9, 48480, Note_off_c, 11, 36, 80
9, 48480, Note_on_c, 11, 43, 95
9, 48720, Note_off_c, 11, 43, 80
9, 48720, Note_on_c, 11, 40, 95
9, 50400, Note_off_c, 11, 40, 80
9, 50400, Note_on_c, 11, 47, 95
9, 50640, Note_off_c, 11, 47, 80
9, 50640, Note_on_c, 11, 43, 95
9, 51360, Note_off_c, 11, 43, 80
9, 51360, Note_on_c, 11, 50, 95
9, 51600, Note_off_c, 11, 50, 80
9, 51600, Note_on_c, 11, 36, 95
9, 53280, Note_off_c, 11, 36, 80
9, 53280, Note_on_c, 11, 43, 95
9, 53520, Note_off_c, 11, 43, 80
9, 53520, Note_on_c, 11, 40, 95
9, 55200, Note_off_c, 11, 40, 80
9, 55200, Note_on_c, 11, 47, 95
9, 55440, Note_off_c, 11, 47, 80
9, 55440, Note_on_c, 11, 36, 79
9, 57120, Note_off_c, 11, 36, 80
9, 57120, Note_on_c, 11, 43, 95
9, 57360, Note_off_c, 11, 43, 80
9, 57360, Note_on_c, 11, 40, 95
9, 59040, Note_off_c, 11, 40, 80
9, 59040, Note_on_c, 11, 38, 79
9, 59280, Note_off_c, 11, 38, 80
9, 59280, Note_on_c, 11, 36, 79
9, 60960, Note_off_c, 11, 36, 80
9, 60960, Note_on_c, 11, 43, 95
9, 61200, Note_off_c, 11, 43, 80
9, 61200, Note_on_c, 11, 40, 95
9, 62880, Note_off_c, 11, 40, 80
9, 62880, Note_on_c, 11, 47, 95
9, 63120, Note_off_c, 11, 47, 80
9, 63120, Note_on_c, 11, 36, 79
9, 64800, Note_off_c, 11, 36, 80
9, 64800, Note_on_c, 11, 43, 95
9, 65040, Note_off_c, 11, 43, 80
9, 65040, Note_on_c, 11, 40, 95
9, 66480, Note_off_c, 11, 40, 80
9, 66480, Note_on_c, 11, 35, 79
9, 66720, Note_off_c, 11, 35, 80
9, 66720, Note_on_c, 11, 38, 79
9, 66960, Note_off_c, 11, 38, 80
9, 66960, Note_on_c, 11, 36, 79
9, 68640, Note_off_c, 11, 36, 80
9, 68640, Note_on_c, 11, 43, 95
9, 68880, Note_off_c, 11, 43, 80
9, 68880, Note_on_c, 11, 40, 95
9, 69600, Note_off_c, 11, 40, 80
9, 69600, Note_on_c, 11, 47, 79
9, 69840, Note_off_c, 11, 47, 80
9, 69840, Note_on_c, 11, 43, 79
9, 70560, Note_off_c, 11, 43, 80
9, 70560, Note_on_c, 11, 50, 79
9, 70800, Note_off_c, 11, 50, 80
9, 70800, Control_c, 11, 7, 112
9, 70800, Control_c, 12, 7, 112
9, 70800, Note_on_c, 11, 36, 79
9, 72480, Note_off_c, 11, 36, 80
9, 72480, Note_on_c, 11, 43, 95
9, 72720, Note_off_c, 11, 43, 80
9, 72720, Note_on_c, 11, 40, 95
9, 74400, Note_off_c, 11, 40, 80
9, 74400, Note_on_c, 11, 47, 95
9, 74640, Note_off_c, 11, 47, 80
9, 74640, Note_on_c, 11, 43, 95
9, 75360, Note_off_c, 11, 43, 80
9, 75360, Note_on_c, 11, 50, 95
9, 75600, Note_off_c, 11, 50, 80
9, 75600, Note_on_c, 11, 36, 95
9, 77280, Note_off_c, 11, 36, 80
9, 77280, Note_on_c, 11, 43, 95
9, 77520, Note_off_c, 11, 43, 80
9, 77520, Note_on_c, 11, 40, 95
9, 79200, Note_off_c, 11, 40, 80
9, 79200, Note_on_c, 11, 47, 95
9, 79440, Note_off_c, 11, 47, 80
9, 79440, Note_on_c, 11, 43, 95
9, 80160, Note_off_c, 11, 43, 80
9, 80160, Note_on_c, 11, 50, 95
9, 80400, Note_off_c, 11, 50, 80
9, 80400, Note_on_c, 11, 36, 95
9, 82080, Note_off_c, 11, 36, 80
9, 82080, Note_on_c, 11, 43, 95
9, 82320, Note_off_c, 11, 43, 80
9, 82320, Note_on_c, 11, 40, 95
9, 84000, Note_off_c, 11, 40, 80
9, 84000, Note_on_c, 11, 47, 95
9, 84240, Note_off_c, 11, 47, 80
9, 84240, Note_on_c, 11, 43, 95
9, 84960, Note_off_c, 11, 43, 80
9, 84960, Note_on_c, 11, 50, 95
9, 85200, Note_off_c, 11, 50, 80
9, 85200, Note_on_c, 11, 36, 95
9, 86880, Note_off_c, 11, 36, 80
9, 86880, Note_on_c, 11, 43, 95
9, 87120, Note_off_c, 11, 43, 80
9, 87120, Note_on_c, 11, 40, 95
9, 88800, Note_off_c, 11, 40, 80
9, 88800, Note_on_c, 11, 47, 95
9, 89040, Note_off_c, 11, 47, 80
9, 89040, Note_on_c, 11, 43, 95
9, 89760, Note_off_c, 11, 43, 80
9, 89760, Note_on_c, 11, 50, 95
9, 90000, Note_off_c, 11, 50, 80
9, 90000, Note_on_c, 11, 36, 95
9, 91680, Note_off_c, 11, 36, 80
9, 91680, Note_on_c, 11, 43, 95
9, 91920, Note_off_c, 11, 43, 80
9, 91920, Note_on_c, 11, 40, 95
9, 93600, Note_off_c, 11, 40, 80
9, 93600, Note_on_c, 11, 47, 95
9, 93840, Note_off_c, 11, 47, 80
9, 93840, Note_on_c, 11, 43, 95
9, 94560, Note_off_c, 11, 43, 80
9, 94560, Note_on_c, 11, 50, 95
9, 94800, Note_off_c, 11, 50, 80
9, 94800, Note_on_c, 11, 36, 95
9, 96480, Note_off_c, 11, 36, 80
9, 96480, Note_on_c, 11, 43, 95
9, 96720, Note_off_c, 11, 43, 80
9, 96720, Note_on_c, 11, 40, 95
9, 98400, Note_off_c, 11, 40, 80
9, 98400, Note_on_c, 11, 47, 95
9, 98640, Note_off_c, 11, 47, 80
9, 98640, Note_on_c, 11, 43, 95
9, 99360, Note_off_c, 11, 43, 80
9, 99360, Note_on_c, 11, 50, 95
9, 99600, Note_off_c, 11, 50, 80
9, 99600, Control_c, 11, 7, 88
9, 99600, Control_c, 12, 7, 88
9, 99600, Control_c, 11, 10, 32
9, 99600, Control_c, 12, 10, 32
9, 99600, Note_on_c, 11, 36, 95
9, 101280, Note_off_c, 11, 36, 80
9, 101280, Note_on_c, 11, 43, 95
9, 101520, Note_off_c, 11, 43, 80
9, 101520, Note_on_c, 11, 40, 95
9, 103200, Note_off_c, 11, 40, 80
9, 103200, Note_on_c, 11, 47, 95
9, 103440, Note_off_c, 11, 47, 80
9, 103440, Note_on_c, 11, 36, 79
9, 105120, Note_off_c, 11, 36, 80
9, 105120, Note_on_c, 11, 43, 95
9, 105360, Note_off_c, 11, 43, 80
9, 105360, Note_on_c, 11, 40, 95
9, 106800, Note_off_c, 11, 40, 80
9, 106800, Note_on_c, 11, 35, 95
9, 107040, Note_off_c, 11, 35, 80
9, 107040, Note_on_c, 11, 38, 79
9, 107280, Note_off_c, 11, 38, 80
9, 107280, Note_on_c, 11, 36, 79
9, 108960, Note_off_c, 11, 36, 80
9, 108960, Note_on_c, 11, 43, 95
9, 109200, Note_off_c, 11, 43, 80
9, 109200, Note_on_c, 11, 40, 95
9, 110880, Note_off_c, 11, 40, 80
9, 110880, Note_on_c, 11, 47, 95
9, 111120, Note_off_c, 11, 47, 80
9, 111120, Note_on_c, 11, 36, 79
9, 112800, Note_off_c, 11, 36, 80
9, 112800, Control_c, 11, 7, 89
9, 112800, Control_c, 12, 7, 89
9, 112800, Note_on_c, 11, 43, 95
9, 112920, Control_c, 11, 7, 89
9, 112920, Control_c, 12, 7, 89
9, 113040, Control_c, 11, 7, 90
9, 113040, Control_c, 12, 7, 90
9, 113040, Note_off_c, 11, 43, 80
9, 113040, Note_on_c, 11, 40, 95
9, 113160, Control_c, 11, 7, 91
9, 113160, Control_c, 12, 7, 91
9, 113280, Control_c, 11, 7, 92
9, 113280, Control_c, 12, 7, 92
9, 113400, Control_c, 11, 7, 92
9, 113400, Control_c, 12, 7, 92
9, 113520, Control_c, 11, 7, 93
9, 113520, Control_c, 12, 7, 93
9, 113640, Control_c, 11, 7, 94
9, 113640, Control_c, 12, 7, 94
9, 113760, Control_c, 11, 7, 95
9, 113760, Control_c, 12, 7, 95
9, 113760, Note_off_c, 11, 40, 80
9, 113760, Note_on_c, 11, 47, 79
9, 113880, Control_c, 11, 7, 95
9, 113880, Control_c, 12, 7, 95
9, 114000, Control_c, 11, 7, 96
9, 114000, Control_c, 12, 7, 96
9, 114000, Note_off_c, 11, 47, 80
9, 114000, Note_on_c, 11, 43, 79
9, 114120, Control_c, 11, 7, 97
9, 114120, Control_c, 12, 7, 97
9, 114240, Control_c, 11, 7, 97
9, 114240, Control_c, 12, 7, 97
9, 114360, Control_c, 11, 7, 98
9, 114360, Control_c, 12, 7, 98
9, 114480, Control_c, 11, 7, 99
9, 114480, Control_c, 12, 7, 99
9, 114600, Control_c, 11, 7, 100
9, 114600, Control_c, 12, 7, 100
9, 114720, Control_c, 11, 7, 100
9, 114720, Control_c, 12, 7, 100
9, 114720, Note_off_c, 11, 43, 80
9, 114720, Note_on_c, 11, 50, 79
9, 114840, Control_c, 11, 7, 101
9, 114840, Control_c, 12, 7, 101
9, 114960, Control_c, 11, 7, 102
9, 114960, Control_c, 12, 7, 102
9, 114960, Note_off_c, 11, 50, 80
9, 114960, Program_c, 11, 87
9, 114960, Program_c, 12, 87
9, 114960, Note_on_c, 11, 36, 79
9, 115080, Control_c, 11, 7, 103
9, 115080, Control_c, 12, 7, 103
9, 115200, Control_c, 11, 7, 103
9, 115200, Control_c, 12, 7, 103
9, 115320, Control_c, 11, 7, 104
9, 115320, Control_c, 12, 7, 104
9, 115440, Control_c, 11, 7, 105
9, 115440, Control_c, 12, 7, 105
9, 115560, Control_c, 11, 7, 105
9, 115560, Control_c, 12, 7, 105
9, 115680, Control_c, 11, 7, 106
9, 115680, Control_c, 12, 7, 106
9, 115800, Control_c, 11, 7, 107
9, 115800, Control_c, 12, 7, 107
9, 115920, Control_c, 11, 7, 108
9, 115920, Control_c, 12, 7, 108
9, 116040, Control_c, 11, 7, 108
9, 116040, Control_c, 12, 7, 108
9, 116160, Control_c, 11, 7, 109
9, 116160, Control_c, 12, 7, 109
9, 116280, Control_c, 11, 7, 110
9, 116280, Control_c, 12, 7, 110
9, 116400, Control_c, 11, 7, 111
9, 116400, Control_c, 12, 7, 111
9, 116520, Control_c, 11, 7, 111
9, 116520, Control_c, 12, 7, 111
9, 116640, Control_c, 11, 7, 112
9, 116640, Control_c, 12, 7, 112
9, 116640, Note_off_c, 11, 36, 80
9, 116640, Note_on_c, 11, 38, 95
9, 116880, Note_off_c, 11, 38, 80
9, 116880, Note_on_c, 11, 36, 95
9, 118560, Note_off_c, 11, 36, 80
9, 118560, Note_on_c, 11, 38, 95
9, 118800, Note_off_c, 11, 38, 80
9, 118800, Note_on_c, 11, 36, 95
9, 120480, Note_off_c, 11, 36, 80
9, 120480, Note_on_c, 11, 38, 95
9, 120720, Note_off_c, 11, 38, 80
9, 120720, Note_on_c, 11, 36, 95
9, 122400, Note_off_c, 11, 36, 80
9, 122400, Control_c, 11, 7, 127
9, 122400, Control_c, 12, 7, 127
9, 122400, Control_c, 11, 10, 64
9, 122400, Control_c, 12, 10, 64
9, 122400, Note_on_c, 11, 43, 95
9, 122640, Note_off_c, 11, 43, 80
9, 122640, Note_on_c, 11, 40, 95
9, 122880, Note_off_c, 11, 40, 80
9, 122880, Note_on_c, 11, 40, 95
9, 123120, Note_off_c, 11, 40, 80
9, 123120, Note_on_c, 11, 40, 95
9, 123360, Note_off_c, 11, 40, 80
9, 123360, Note_on_c, 11, 40, 95
9, 123600, Note_off_c, 11, 40, 80
9, 123600, Note_on_c, 11, 40, 95
9, 123840, Note_off_c, 11, 40, 80
9, 123840, Note_on_c, 11, 40, 95
9, 124080, Note_off_c, 11, 40, 80
9, 124080, Note_on_c, 11, 40, 95
9, 124320, Note_off_c, 11, 40, 80
9, 124320, Note_on_c, 11, 47, 95
9, 124560, Note_off_c, 11, 47, 80
9, 124560, Note_on_c, 11, 43, 95
9, 124800, Note_off_c, 11, 43, 80
9, 124800, Note_on_c, 11, 43, 95
9, 125040, Note_off_c, 11, 43, 80
9, 125040, Note_on_c, 11, 43, 95
9, 125280, Note_off_c, 11, 43, 80
9, 125280, Note_on_c, 11, 43, 95
9, 125520, Note_off_c, 11, 43, 80
9, 125520, Note_on_c, 11, 43, 95
9, 125760, Note_off_c, 11, 43, 80
9, 125760, Note_on_c, 11, 43, 95
9, 126000, Note_off_c, 11, 43, 80
9, 126000, Note_on_c, 11, 43, 95
9, 126240, Note_off_c, 11, 43, 80
9, 126240, Note_on_c, 11, 38, 95
9, 126480, Note_off_c, 11, 38, 80
9, 126480, Note_on_c, 11, 36, 95
9, 126720, Note_off_c, 11, 36, 80
9, 126720, Note_on_c, 11, 36, 95
9, 126960, Note_off_c, 11, 36, 80
9, 126960, Note_on_c, 11, 36, 95
9, 127200, Note_off_c, 11, 36, 80
9, 127200, Note_on_c, 11, 36, 95
9, 127440, Note_off_c, 11, 36, 80
9, 127440, Note_on_c, 11, 36, 95
9, 127680, Note_off_c, 11, 36, 80
9, 127680, Note_on_c, 11, 36, 95
9, 127920, Note_off_c, 11, 36, 80
9, 127920, Note_on_c, 11, 36, 95
9, 128160, Note_off_c, 11, 36, 80
9, 128160, Note_on_c, 11, 38, 95
9, 128400, Note_off_c, 11, 38, 80
9, 128400, Note_on_c, 11, 36, 95
9, 130080, Note_off_c, 11, 36, 80
9, 130080, Note_on_c, 11, 43, 95
9, 130320, Note_off_c, 11, 43, 80
9, 130320, Note_on_c, 11, 40, 95
9, 132000, Note_off_c, 11, 40, 80
9, 132000, Note_on_c, 11, 47, 95
9, 132240, Note_off_c, 11, 47, 80
9, 132240, Note_on_c, 11, 43, 95
9, 133920, Note_off_c, 11, 43, 80
9, 133920, Note_on_c, 11, 38, 95
9, 134160, Note_off_c, 11, 38, 80
9, 134160, Note_on_c, 11, 36, 95
9, 135840, Note_off_c, 11, 36, 80
9, 135840, Note_on_c, 11, 38, 95
9, 136080, Note_off_c, 11, 38, 80
9, 136080, Note_on_c, 11, 36, 95
9, 137760, Note_off_c, 11, 36, 80
9, 137760, Note_on_c, 11, 43, 95
9, 138000, Note_off_c, 11, 43, 80
9, 138000, Note_on_c, 11, 40, 95
9, 139680, Note_off_c, 11, 40, 80
9, 139680, Note_on_c, 11, 47, 95
9, 139920, Note_off_c, 11, 47, 80
9, 139920, Note_on_c, 11, 43, 95
9, 141600, Note_off_c, 11, 43, 80
9, 141600, Note_on_c, 11, 38, 95
9, 141840, Note_off_c, 11, 38, 80
9, 141840, Note_on_c, 11, 36, 95
9, 143520, Note_off_c, 11, 36, 80
9, 143520, Note_on_c, 11, 38, 95
9, 143760, Note_off_c, 11, 38, 80
9, 143760, Note_on_c, 11, 36, 95
9, 145440, Note_off_c, 11, 36, 80
9, 145440, Note_on_c, 11, 43, 95
9, 145680, Note_off_c, 11, 43, 80
9, 145680, Note_on_c, 11, 40, 95
9, 147360, Note_off_c, 11, 40, 80
9, 147360, Note_on_c, 11, 47, 95
9, 147600, Note_off_c, 11, 47, 80
9, 147600, Note_on_c, 11, 43, 95
9, 149280, Note_off_c, 11, 43, 80
9, 149280, Note_on_c, 11, 38, 95
9, 149520, Note_off_c, 11, 38, 80
9, 149520, Note_on_c, 11, 36, 95
9, 151200, Note_off_c, 11, 36, 80
9, 151200, Note_on_c, 11, 38, 95
9, 151440, Note_off_c, 11, 38, 80
9, 151440, Note_on_c, 11, 36, 95
9, 153120, Note_off_c, 11, 36, 80
9, 153120, Note_on_c, 11, 43, 95
9, 153360, Note_off_c, 11, 43, 80
9, 153360, Note_on_c, 11, 40, 47
9, 155520, Note_off_c, 11, 40, 80
9, 155520, End_track
10, 0, Start_track
10, 0, Title_t, "Drums"
10, 0, Control_c, 9, 100, 0
10, 0, Control_c, 9, 101, 0
10, 0, Control_c, 9, 6, 12
10, 0, Pitch_bend_c, 9, 8192
10, 0, Control_c, 9, 101, 0
10, 0, Control_c, 9, 100, 1
10, 0, Control_c, 9, 6, 64
10, 0, Control_c, 9, 38, 0
10, 0, Control_c, 9, 101, 127
10, 0, Control_c, 9, 100, 127
10, 0, Program_c, 9, 0
10, 0, Control_c, 9, 0, 0
10, 0, Control_c, 9, 7, 104
10, 0, Control_c, 9, 10, 64
10, 0, Control_c, 9, 93, 0
10, 0, Control_c, 9, 91, 0
10, 0, Control_c, 9, 92, 0
10, 0, Control_c, 9, 95, 0
10, 5760, Note_on_c, 9, 42, 95
10, 5760, Note_on_c, 9, 36, 95
10, 6000, Note_off_c, 9, 42, 80
10, 6000, Note_off_c, 9, 36, 80
10, 6000, Note_on_c, 9, 42, 95
10, 6000, Note_on_c, 9, 36, 95
10, 6240, Note_off_c, 9, 42, 80
10, 6240, Note_off_c, 9, 36, 80
10, 6240, Note_on_c, 9, 40, 95
10, 6480, Note_off_c, 9, 40, 80
10, 6480, Note_on_c, 9, 42, 95
10, 6480, Note_on_c, 9, 36, 95
10, 6720, Note_off_c, 9, 42, 80
10, 6720, Note_off_c, 9, 36, 80
10, 6720, Note_on_c, 9, 42, 95
10, 6960, Note_off_c, 9, 42, 80
10, 6960, Note_on_c, 9, 42, 79
10, 7080, Note_off_c, 9, 42, 80
10, 7110, Note_on_c, 9, 36, 95
10, 7200, Note_off_c, 9, 36, 80
10, 7200, Note_on_c, 9, 42, 95
10, 7200, Note_on_c, 9, 40, 95
10, 7440, Note_off_c, 9, 42, 80
10, 7440, Note_off_c, 9, 40, 80
10, 7440, Note_on_c, 9, 42, 95
10, 7680, Note_off_c, 9, 42, 80
10, 7680, Note_on_c, 9, 42, 95
10, 7680, Note_on_c, 9, 36, 95
10, 7920, Note_off_c, 9, 42, 80
10, 7920, Note_off_c, 9, 36, 80
10, 7920, Note_on_c, 9, 42, 95
10, 7920, Note_on_c, 9, 36, 95
10, 8160, Note_off_c, 9, 42, 80
10, 8160, Note_off_c, 9, 36, 80
10, 8160, Note_on_c, 9, 40, 95
10, 8400, Note_off_c, 9, 40, 80
10, 8400, Note_on_c, 9, 42, 95
10, 8400, Note_on_c, 9, 36, 95
10, 8640, Note_off_c, 9, 42, 80
10, 8640, Note_off_c, 9, 36, 80
10, 8640, Note_on_c, 9, 42, 95
10, 8880, Note_off_c, 9, 42, 80
10, 8880, Note_on_c, 9, 42, 79
10, 9000, Note_off_c, 9, 42, 80
10, 9030, Note_on_c, 9, 36, 95
10, 9120, Note_off_c, 9, 36, 80
10, 9120, Note_on_c, 9, 42, 95
10, 9120, Note_on_c, 9, 40, 95
10, 9360, Note_off_c, 9, 42, 80
10, 9360, Note_off_c, 9, 40, 80
10, 9360, Note_on_c, 9, 42, 95
10, 9600, Note_off_c, 9, 42, 80
10, 9600, Note_on_c, 9, 42, 95
10, 9600, Note_on_c, 9, 36, 95
10, 9840, Note_off_c, 9, 42, 80
10, 9840, Note_off_c, 9, 36, 80
10, 9840, Note_on_c, 9, 42, 95
10, 9840, Note_on_c, 9, 36, 95
10, 10080, Note_off_c, 9, 42, 80
10, 10080, Note_off_c, 9, 36, 80
10, 10080, Note_on_c, 9, 40, 95
10, 10320, Note_off_c, 9, 40, 80
10, 10320, Note_on_c, 9, 42, 95
10, 10320, Note_on_c, 9, 36, 95
10, 10560, Note_off_c, 9, 42, 80
10, 10560, Note_off_c, 9, 36, 80
10, 10560, Note_on_c, 9, 42, 95
10, 10800, Note_off_c, 9, 42, 80
10, 10800, Note_on_c, 9, 42, 79
10, 10920, Note_off_c, 9, 42, 80
10, 10950, Note_on_c, 9, 36, 95
10, 11040, Note_off_c, 9, 36, 80
10, 11040, Note_on_c, 9, 42, 95
10, 11040, Note_on_c, 9, 40, 95
10, 11280, Note_off_c, 9, 42, 80
10, 11280, Note_off_c, 9, 40, 80
10, 11280, Note_on_c, 9, 42, 95
10, 11520, Note_off_c, 9, 42, 80
10, 11520, Note_on_c, 9, 42, 95
10, 11520, Note_on_c, 9, 36, 95
10, 11760, Note_off_c, 9, 42, 80
10, 11760, Note_off_c, 9, 36, 80
10, 11760, Note_on_c, 9, 42, 95
10, 11760, Note_on_c, 9, 36, 95
10, 12000, Note_off_c, 9, 42, 80
10, 12000, Note_off_c, 9, 36, 80
10, 12000, Note_on_c, 9, 40, 95
10, 12240, Note_off_c, 9, 40, 80
10, 12240, Note_on_c, 9, 42, 95
10, 12240, Note_on_c, 9, 36, 95
10, 12480, Note_off_c, 9, 42, 80
10, 12480, Note_off_c, 9, 36, 80
10, 12480, Note_on_c, 9, 42, 95
10, 12720, Note_off_c, 9, 42, 80
10, 12720, Note_on_c, 9, 42, 79
10, 12840, Note_off_c, 9, 42, 80
10, 12870, Note_on_c, 9, 36, 95
10, 12960, Note_off_c, 9, 36, 80
10, 12960, Note_on_c, 9, 42, 95
10, 12960, Note_on_c, 9, 40, 95
10, 13200, Note_off_c, 9, 42, 80
10, 13200, Note_off_c, 9, 40, 80
10, 13200, Note_on_c, 9, 42, 95
10, 13440, Note_off_c, 9, 42, 80
10, 13440, Note_on_c, 9, 42, 95
10, 13440, Note_on_c, 9, 36, 95
10, 13680, Note_off_c, 9, 42, 80
10, 13680, Note_off_c, 9, 36, 80
10, 13680, Note_on_c, 9, 42, 95
10, 13680, Note_on_c, 9, 36, 95
10, 13920, Note_off_c, 9, 42, 80
10, 13920, Note_off_c, 9, 36, 80
10, 13920, Note_on_c, 9, 40, 95
10, 14160, Note_off_c, 9, 40, 80
10, 14160, Note_on_c, 9, 42, 95
10, 14160, Note_on_c, 9, 36, 95
10, 14400, Note_off_c, 9, 42, 80
10, 14400, Note_off_c, 9, 36, 80
10, 14400, Note_on_c, 9, 42, 95
10, 14640, Note_off_c, 9, 42, 80
10, 14640, Note_on_c, 9, 42, 79
10, 14760, Note_off_c, 9, 42, 80
10, 14790, Note_on_c, 9, 36, 95
10, 14880, Note_off_c, 9, 36, 80
10, 14880, Note_on_c, 9, 42, 95
10, 14880, Note_on_c, 9, 40, 95
10, 15120, Note_off_c, 9, 42, 80
10, 15120, Note_off_c, 9, 40, 80
10, 15120, Note_on_c, 9, 42, 95
10, 15360, Note_off_c, 9, 42, 80
10, 15360, Note_on_c, 9, 42, 95
10, 15360, Note_on_c, 9, 36, 95
10, 15600, Note_off_c, 9, 42, 80
10, 15600, Note_off_c, 9, 36, 80
10, 15600, Note_on_c, 9, 42, 95
10, 15600, Note_on_c, 9, 36, 95
10, 15840, Note_off_c, 9, 42, 80
10, 15840, Note_off_c, 9, 36, 80
10, 15840, Note_on_c, 9, 40, 95
10, 16080, Note_off_c, 9, 40, 80
10, 16080, Note_on_c, 9, 42, 95
10, 16080, Note_on_c, 9, 36, 95
10, 16320, Note_off_c, 9, 42, 80
10, 16320, Note_off_c, 9, 36, 80
10, 16320, Note_on_c, 9, 42, 95
10, 16560, Note_off_c, 9, 42, 80
10, 16560, Note_on_c, 9, 42, 79
10, 16680, Note_off_c, 9, 42, 80
10, 16710, Note_on_c, 9, 36, 95
10, 16800, Note_off_c, 9, 36, 80
10, 16800, Note_on_c, 9, 42, 95
10, 16800, Note_on_c, 9, 40, 95
10, 17040, Note_off_c, 9, 42, 80
10, 17040, Note_off_c, 9, 40, 80
10, 17040, Note_on_c, 9, 42, 95
10, 17280, Note_off_c, 9, 42, 80
10, 17280, Note_on_c, 9, 42, 95
10, 17280, Note_on_c, 9, 36, 95
10, 17520, Note_off_c, 9, 42, 80
10, 17520, Note_off_c, 9, 36, 80
10, 17520, Note_on_c, 9, 42, 95
10, 17520, Note_on_c, 9, 36, 95
10, 17760, Note_off_c, 9, 42, 80
10, 17760, Note_off_c, 9, 36, 80
10, 17760, Note_on_c, 9, 40, 95
10, 18000, Note_off_c, 9, 40, 80
10, 18000, Note_on_c, 9, 42, 95
10, 18000, Note_on_c, 9, 36, 95
10, 18240, Note_off_c, 9, 42, 80
10, 18240, Note_off_c, 9, 36, 80
10, 18240, Note_on_c, 9, 42, 95
10, 18480, Note_off_c, 9, 42, 80
10, 18480, Note_on_c, 9, 42, 79
10, 18600, Note_off_c, 9, 42, 80
10, 18630, Note_on_c, 9, 36, 95
10, 18720, Note_off_c, 9, 36, 80
10, 18720, Note_on_c, 9, 42, 95
10, 18720, Note_on_c, 9, 40, 95
10, 18960, Note_off_c, 9, 42, 80
10, 18960, Note_off_c, 9, 40, 80
10, 18960, Note_on_c, 9, 42, 95
10, 19200, Note_off_c, 9, 42, 80
10, 19200, Note_on_c, 9, 42, 95
10, 19200, Note_on_c, 9, 36, 95
10, 19440, Note_off_c, 9, 42, 80
10, 19440, Note_off_c, 9, 36, 80
10, 19440, Note_on_c, 9, 42, 95
10, 19440, Note_on_c, 9, 36, 95
10, 19680, Note_off_c, 9, 42, 80
10, 19680, Note_off_c, 9, 36, 80
10, 19680, Note_on_c, 9, 40, 95
10, 19920, Note_off_c, 9, 40, 80
10, 19920, Note_on_c, 9, 42, 95
10, 19920, Note_on_c, 9, 36, 95
10, 20160, Note_off_c, 9, 42, 80
10, 20160, Note_off_c, 9, 36, 80
10, 20160, Note_on_c, 9, 42, 95
10, 20400, Note_off_c, 9, 42, 80
10, 20400, Note_on_c, 9, 42, 79
10, 20520, Note_off_c, 9, 42, 80
10, 20550, Note_on_c, 9, 36, 95
10, 20640, Note_off_c, 9, 36, 80
10, 20640, Note_on_c, 9, 42, 95
10, 20640, Note_on_c, 9, 40, 95
10, 20880, Note_off_c, 9, 42, 80
10, 20880, Note_off_c, 9, 40, 80
10, 20880, Note_on_c, 9, 42, 95
10, 21120, Note_off_c, 9, 42, 80
10, 21120, Note_on_c, 9, 42, 95
10, 21120, Note_on_c, 9, 36, 95
10, 21360, Note_off_c, 9, 42, 80
10, 21360, Note_off_c, 9, 36, 80
10, 21360, Note_on_c, 9, 42, 95
10, 21360, Note_on_c, 9, 36, 95
10, 21600, Note_off_c, 9, 42, 80
10, 21600, Note_off_c, 9, 36, 80
10, 21600, Note_on_c, 9, 40, 95
10, 21840, Note_off_c, 9, 40, 80
10, 21840, Note_on_c, 9, 42, 95
10, 21840, Note_on_c, 9, 36, 95
10, 22080, Note_off_c, 9, 42, 80
10, 22080, Note_off_c, 9, 36, 80
10, 22080, Note_on_c, 9, 42, 95
10, 22320, Note_off_c, 9, 42, 80
10, 22320, Note_on_c, 9, 42, 79
10, 22440, Note_off_c, 9, 42, 80
10, 22470, Note_on_c, 9, 36, 95
10, 22560, Note_off_c, 9, 36, 80
10, 22560, Note_on_c, 9, 42, 95
10, 22560, Note_on_c, 9, 40, 95
10, 22800, Note_off_c, 9, 42, 80
10, 22800, Note_off_c, 9, 40, 80
10, 22800, Note_on_c, 9, 42, 95
10, 23040, Note_off_c, 9, 42, 80
10, 23040, Note_on_c, 9, 42, 95
10, 23040, Note_on_c, 9, 36, 95
10, 23280, Note_off_c, 9, 42, 80
10, 23280, Note_off_c, 9, 36, 80
10, 23280, Note_on_c, 9, 42, 95
10, 23280, Note_on_c, 9, 36, 95
10, 23520, Note_off_c, 9, 42, 80
10, 23520, Note_off_c, 9, 36, 80
10, 23520, Note_on_c, 9, 40, 95
10, 23760, Note_off_c, 9, 40, 80
10, 23760, Note_on_c, 9, 42, 95
10, 23760, Note_on_c, 9, 36, 95
10, 24000, Note_off_c, 9, 42, 80
10, 24000, Note_off_c, 9, 36, 80
10, 24000, Note_on_c, 9, 42, 95
10, 24240, Note_off_c, 9, 42, 80
10, 24240, Note_on_c, 9, 42, 79
10, 24360, Note_off_c, 9, 42, 80
10, 24390, Note_on_c, 9, 36, 95
10, 24480, Note_off_c, 9, 36, 80
10, 24480, Note_on_c, 9, 42, 95
10, 24480, Note_on_c, 9, 40, 95
10, 24720, Note_off_c, 9, 42, 80
10, 24720, Note_off_c, 9, 40, 80
10, 24720, Note_on_c, 9, 42, 95
10, 24960, Note_off_c, 9, 42, 80
10, 24960, Note_on_c, 9, 42, 95
10, 24960, Note_on_c, 9, 36, 95
10, 25200, Note_off_c, 9, 42, 80
10, 25200, Note_off_c, 9, 36, 80
10, 25200, Note_on_c, 9, 42, 95
10, 25200, Note_on_c, 9, 36, 95
10, 25440, Note_off_c, 9, 42, 80
10, 25440, Note_off_c, 9, 36, 80
10, 25440, Note_on_c, 9, 40, 95
10, 25680, Note_off_c, 9, 40, 80
10, 25680, Note_on_c, 9, 42, 95
10, 25680, Note_on_c, 9, 36, 95
10, 25920, Note_off_c, 9, 42, 80
10, 25920, Note_off_c, 9, 36, 80
10, 25920, Note_on_c, 9, 42, 95
10, 26160, Note_off_c, 9, 42, 80
10, 26160, Note_on_c, 9, 42, 79
10, 26280, Note_off_c, 9, 42, 80
10, 26310, Note_on_c, 9, 36, 95
10, 26400, Note_off_c, 9, 36, 80
10, 26400, Note_on_c, 9, 42, 95
10, 26400, Note_on_c, 9, 40, 95
10, 26640, Note_off_c, 9, 42, 80
10, 26640, Note_off_c, 9, 40, 80
10, 26640, Note_on_c, 9, 42, 95
10, 26880, Note_off_c, 9, 42, 80
10, 26880, Note_on_c, 9, 42, 95
10, 26880, Note_on_c, 9, 36, 95
10, 27120, Note_off_c, 9, 42, 80
10, 27120, Note_off_c, 9, 36, 80
10, 27120, Note_on_c, 9, 42, 95
10, 27120, Note_on_c, 9, 36, 95
10, 27360, Note_off_c, 9, 42, 80
10, 27360, Note_off_c, 9, 36, 80
10, 27360, Note_on_c, 9, 40, 95
10, 27600, Note_off_c, 9, 40, 80
10, 27600, Note_on_c, 9, 42, 95
10, 27600, Note_on_c, 9, 36, 95
10, 27840, Note_off_c, 9, 42, 80
10, 27840, Note_off_c, 9, 36, 80
10, 28230, Note_on_c, 9, 36, 95
10, 28320, Note_off_c, 9, 36, 80
10, 28320, Note_on_c, 9, 42, 95
10, 28320, Note_on_c, 9, 40, 95
10, 28560, Note_off_c, 9, 42, 80
10, 28560, Note_off_c, 9, 40, 80
10, 28560, Note_on_c, 9, 42, 95
10, 28800, Note_off_c, 9, 42, 80
10, 28800, Note_on_c, 9, 42, 95
10, 28800, Note_on_c, 9, 36, 95
10, 29040, Note_off_c, 9, 42, 80
10, 29040, Note_off_c, 9, 36, 80
10, 29040, Note_on_c, 9, 42, 95
10, 29040, Note_on_c, 9, 36, 95
10, 29280, Note_off_c, 9, 42, 80
10, 29280, Note_off_c, 9, 36, 80
10, 29280, Note_on_c, 9, 40, 95
10, 29520, Note_off_c, 9, 40, 80
10, 29520, Note_on_c, 9, 42, 95
10, 29520, Note_on_c, 9, 36, 95
10, 29760, Note_off_c, 9, 42, 80
10, 29760, Note_off_c, 9, 36, 80
10, 29760, Note_on_c, 9, 42, 95
10, 30000, Note_off_c, 9, 42, 80
10, 30000, Note_on_c, 9, 42, 79
10, 30120, Note_off_c, 9, 42, 80
10, 30150, Note_on_c, 9, 36, 95
10, 30240, Note_off_c, 9, 36, 80
10, 30240, Note_on_c, 9, 42, 95
10, 30240, Note_on_c, 9, 40, 95
10, 30480, Note_off_c, 9, 42, 80
10, 30480, Note_off_c, 9, 40, 80
10, 30480, Note_on_c, 9, 42, 95
10, 30720, Note_off_c, 9, 42, 80
10, 30720, Note_on_c, 9, 42, 95
10, 30720, Note_on_c, 9, 36, 95
10, 30960, Note_off_c, 9, 42, 80
10, 30960, Note_off_c, 9, 36, 80
10, 30960, Note_on_c, 9, 42, 95
10, 30960, Note_on_c, 9, 36, 95
10, 31200, Note_off_c, 9, 42, 80
10, 31200, Note_off_c, 9, 36, 80
10, 31200, Note_on_c, 9, 40, 95
10, 31440, Note_off_c, 9, 40, 80
10, 31440, Note_on_c, 9, 42, 95
10, 31440, Note_on_c, 9, 36, 95
10, 31680, Note_off_c, 9, 42, 80
10, 31680, Note_off_c, 9, 36, 80
10, 31680, Note_on_c, 9, 42, 95
10, 31920, Note_off_c, 9, 42, 80
10, 31920, Note_on_c, 9, 42, 79
10, 32040, Note_off_c, 9, 42, 80
10, 32070, Note_on_c, 9, 36, 95
10, 32160, Note_off_c, 9, 36, 80
10, 32160, Note_on_c, 9, 42, 95
10, 32160, Note_on_c, 9, 40, 95
10, 32400, Note_off_c, 9, 42, 80
10, 32400, Note_off_c, 9, 40, 80
10, 32400, Note_on_c, 9, 42, 95
10, 32640, Note_off_c, 9, 42, 80
10, 32640, Note_on_c, 9, 42, 95
10, 32640, Note_on_c, 9, 36, 95
10, 32880, Note_off_c, 9, 42, 80
10, 32880, Note_off_c, 9, 36, 80
10, 32880, Note_on_c, 9, 42, 95
10, 32880, Note_on_c, 9, 36, 95
10, 33120, Note_off_c, 9, 42, 80
10, 33120, Note_off_c, 9, 36, 80
10, 33120, Note_on_c, 9, 40, 95
10, 33360, Note_off_c, 9, 40, 80
10, 33360, Note_on_c, 9, 42, 95
10, 33360, Note_on_c, 9, 36, 95
10, 33600, Note_off_c, 9, 42, 80
10, 33600, Note_off_c, 9, 36, 80
10, 33600, Note_on_c, 9, 42, 95
10, 33840, Note_off_c, 9, 42, 80
10, 33840, Note_on_c, 9, 42, 79
10, 33960, Note_off_c, 9, 42, 80
10, 33990, Note_on_c, 9, 36, 95
10, 34080, Note_off_c, 9, 36, 80
10, 34080, Note_on_c, 9, 42, 95
10, 34080, Note_on_c, 9, 40, 95
10, 34320, Note_off_c, 9, 42, 80
10, 34320, Note_off_c, 9, 40, 80
10, 34320, Note_on_c, 9, 42, 95
10, 34560, Note_off_c, 9, 42, 80
10, 34560, Note_on_c, 9, 42, 95
10, 34560, Note_on_c, 9, 36, 95
10, 34800, Note_off_c, 9, 42, 80
10, 34800, Note_off_c, 9, 36, 80
10, 34800, Note_on_c, 9, 42, 95
10, 34800, Note_on_c, 9, 36, 95
10, 35040, Note_off_c, 9, 42, 80
10, 35040, Note_off_c, 9, 36, 80
10, 35040, Note_on_c, 9, 40, 95
10, 35280, Note_off_c, 9, 40, 80
10, 35280, Note_on_c, 9, 42, 95
10, 35280, Note_on_c, 9, 36, 95
10, 35520, Note_off_c, 9, 42, 80
10, 35520, Note_off_c, 9, 36, 80
10, 35520, Note_on_c, 9, 42, 95
10, 35760, Note_off_c, 9, 42, 80
10, 35760, Note_on_c, 9, 42, 79
10, 35880, Note_off_c, 9, 42, 80
10, 35910, Note_on_c, 9, 36, 95
10, 36000, Note_off_c, 9, 36, 80
10, 36000, Note_on_c, 9, 42, 95
10, 36000, Note_on_c, 9, 40, 95
10, 36240, Note_off_c, 9, 42, 80
10, 36240, Note_off_c, 9, 40, 80
10, 36240, Note_on_c, 9, 42, 95
10, 36480, Note_off_c, 9, 42, 80
10, 36480, Note_on_c, 9, 42, 95
10, 36480, Note_on_c, 9, 36, 95
10, 36720, Note_off_c, 9, 42, 80
10, 36720, Note_off_c, 9, 36, 80
10, 36720, Note_on_c, 9, 42, 95
10, 36720, Note_on_c, 9, 36, 95
10, 36960, Note_off_c, 9, 42, 80
10, 36960, Note_off_c, 9, 36, 80
10, 36960, Note_on_c, 9, 40, 95
10, 37200, Note_off_c, 9, 40, 80
10, 37200, Note_on_c, 9, 42, 95
10, 37200, Note_on_c, 9, 36, 95
10, 37440, Note_off_c, 9, 42, 80
10, 37440, Note_off_c, 9, 36, 80
10, 37830, Note_on_c, 9, 36, 95
10, 37920, Note_off_c, 9, 36, 80
10, 37920, Note_on_c, 9, 42, 95
10, 37920, Note_on_c, 9, 40, 95
10, 38160, Note_off_c, 9, 42, 80
10, 38160, Note_off_c, 9, 40, 80
10, 38160, Note_on_c, 9, 42, 95
10, 38400, Note_off_c, 9, 42, 80
10, 38400, Note_on_c, 9, 42, 95
10, 38400, Note_on_c, 9, 36, 95
10, 38640, Note_off_c, 9, 42, 80
10, 38640, Note_off_c, 9, 36, 80
10, 38640, Note_on_c, 9, 42, 95
10, 38640, Note_on_c, 9, 36, 95
10, 38880, Note_off_c, 9, 42, 80
10, 38880, Note_off_c, 9, 36, 80
10, 38880, Note_on_c, 9, 40, 95
10, 39120, Note_off_c, 9, 40, 80
10, 39120, Note_on_c, 9, 42, 95
10, 39120, Note_on_c, 9, 36, 95
10, 39360, Note_off_c, 9, 42, 80
10, 39360, Note_off_c, 9, 36, 80
10, 39360, Note_on_c, 9, 42, 95
10, 39600, Note_off_c, 9, 42, 80
10, 39600, Note_on_c, 9, 42, 79
10, 39720, Note_off_c, 9, 42, 80
10, 39750, Note_on_c, 9, 36, 95
10, 39840, Note_off_c, 9, 36, 80
10, 39840, Note_on_c, 9, 42, 95
10, 39840, Note_on_c, 9, 40, 95
10, 40080, Note_off_c, 9, 42, 80
10, 40080, Note_off_c, 9, 40, 80
10, 40080, Note_on_c, 9, 42, 95
10, 40320, Note_off_c, 9, 42, 80
10, 40320, Note_on_c, 9, 42, 95
10, 40320, Note_on_c, 9, 36, 95
10, 40560, Note_off_c, 9, 42, 80
10, 40560, Note_off_c, 9, 36, 80
10, 40560, Note_on_c, 9, 42, 95
10, 40560, Note_on_c, 9, 36, 95
10, 40800, Note_off_c, 9, 42, 80
10, 40800, Note_off_c, 9, 36, 80
10, 40800, Note_on_c, 9, 40, 95
10, 41040, Note_off_c, 9, 40, 80
10, 41040, Note_on_c, 9, 42, 95
10, 41040, Note_on_c, 9, 36, 95
10, 41280, Note_off_c, 9, 42, 80
10, 41280, Note_off_c, 9, 36, 80
10, 41280, Note_on_c, 9, 42, 95
10, 41520, Note_off_c, 9, 42, 80
10, 41520, Note_on_c, 9, 42, 79
10, 41640, Note_off_c, 9, 42, 80
10, 41670, Note_on_c, 9, 36, 95
10, 41760, Note_off_c, 9, 36, 80
10, 41760, Note_on_c, 9, 42, 95
10, 41760, Note_on_c, 9, 40, 95
10, 42000, Note_off_c, 9, 42, 80
10, 42000, Note_off_c, 9, 40, 80
10, 42000, Note_on_c, 9, 42, 95
10, 42240, Note_off_c, 9, 42, 80
10, 42240, Note_on_c, 9, 42, 95
10, 42240, Note_on_c, 9, 36, 95
10, 42480, Note_off_c, 9, 42, 80
10, 42480, Note_off_c, 9, 36, 80
10, 42480, Note_on_c, 9, 42, 95
10, 42480, Note_on_c, 9, 36, 95
10, 42720, Note_off_c, 9, 42, 80
10, 42720, Note_off_c, 9, 36, 80
10, 42720, Note_on_c, 9, 40, 95
10, 42960, Note_off_c, 9, 40, 80
10, 42960, Note_on_c, 9, 42, 95
10, 42960, Note_on_c, 9, 36, 95
10, 43200, Note_off_c, 9, 42, 80
10, 43200, Note_off_c, 9, 36, 80
10, 43200, Note_on_c, 9, 42, 95
10, 43440, Note_off_c, 9, 42, 80
10, 43440, Note_on_c, 9, 42, 79
10, 43560, Note_off_c, 9, 42, 80
10, 43590, Note_on_c, 9, 36, 95
10, 43680, Note_off_c, 9, 36, 80
10, 43680, Note_on_c, 9, 42, 95
10, 43680, Note_on_c, 9, 40, 95
10, 43920, Note_off_c, 9, 42, 80
10, 43920, Note_off_c, 9, 40, 80
10, 43920, Note_on_c, 9, 42, 95
10, 44160, Note_off_c, 9, 42, 80
10, 44160, Note_on_c, 9, 42, 95
10, 44160, Note_on_c, 9, 36, 95
10, 44400, Note_off_c, 9, 42, 80
10, 44400, Note_off_c, 9, 36, 80
10, 44400, Note_on_c, 9, 42, 95
10, 44400, Note_on_c, 9, 36, 95
10, 44640, Note_off_c, 9, 42, 80
10, 44640, Note_off_c, 9, 36, 80
10, 44640, Note_on_c, 9, 40, 95
10, 44880, Note_off_c, 9, 40, 80
10, 44880, Note_on_c, 9, 42, 95
10, 44880, Note_on_c, 9, 36, 95
10, 45120, Note_off_c, 9, 42, 80
10, 45120, Note_off_c, 9, 36, 80
10, 45120, Note_on_c, 9, 42, 95
10, 45360, Note_off_c, 9, 42, 80
10, 45360, Note_on_c, 9, 42, 79
10, 45480, Note_off_c, 9, 42, 80
10, 45510, Note_on_c, 9, 36, 95
10, 45600, Note_off_c, 9, 36, 80
10, 45600, Note_on_c, 9, 42, 95
10, 45600, Note_on_c, 9, 40, 95
10, 45840, Note_off_c, 9, 42, 80
10, 45840, Note_off_c, 9, 40, 80
10, 45840, Note_on_c, 9, 42, 95
10, 46080, Note_off_c, 9, 42, 80
10, 46080, Note_on_c, 9, 42, 95
10, 46080, Note_on_c, 9, 36, 95
10, 46320, Note_off_c, 9, 42, 80
10, 46320, Note_off_c, 9, 36, 80
10, 46320, Note_on_c, 9, 42, 95
10, 46320, Note_on_c, 9, 36, 95
10, 46560, Note_off_c, 9, 42, 80
10, 46560, Note_off_c, 9, 36, 80
10, 46560, Note_on_c, 9, 40, 95
10, 46800, Note_off_c, 9, 40, 80
10, 46800, Note_on_c, 9, 42, 95
10, 46800, Note_on_c, 9, 36, 95
10, 47040, Note_off_c, 9, 42, 80
10, 47040, Note_off_c, 9, 36, 80
10, 47040, Note_on_c, 9, 42, 95
10, 47280, Note_off_c, 9, 42, 80
10, 47280, Note_on_c, 9, 42, 79
10, 47400, Note_off_c, 9, 42, 80
10, 47430, Note_on_c, 9, 36, 95
10, 47520, Note_off_c, 9, 36, 80
10, 47520, Note_on_c, 9, 42, 95
10, 47520, Note_on_c, 9, 40, 95
10, 47760, Note_off_c, 9, 42, 80
10, 47760, Note_off_c, 9, 40, 80
10, 47760, Note_on_c, 9, 42, 95
10, 48000, Note_off_c, 9, 42, 80
10, 48000, Note_on_c, 9, 42, 95
10, 48000, Note_on_c, 9, 36, 95
10, 48240, Note_off_c, 9, 42, 80
10, 48240, Note_off_c, 9, 36, 80
10, 48240, Note_on_c, 9, 42, 95
10, 48240, Note_on_c, 9, 36, 95
10, 48480, Note_off_c, 9, 42, 80
10, 48480, Note_off_c, 9, 36, 80
10, 48480, Note_on_c, 9, 40, 95
10, 48720, Note_off_c, 9, 40, 80
10, 48720, Note_on_c, 9, 42, 95
10, 48720, Note_on_c, 9, 36, 95
10, 48960, Note_off_c, 9, 42, 80
10, 48960, Note_off_c, 9, 36, 80
10, 48960, Note_on_c, 9, 42, 95
10, 49200, Note_off_c, 9, 42, 80
10, 49200, Note_on_c, 9, 42, 79
10, 49320, Note_off_c, 9, 42, 80
10, 49350, Note_on_c, 9, 36, 95
10, 49440, Note_off_c, 9, 36, 80
10, 49440, Note_on_c, 9, 42, 95
10, 49440, Note_on_c, 9, 40, 95
10, 49680, Note_off_c, 9, 42, 80
10, 49680, Note_off_c, 9, 40, 80
10, 49680, Note_on_c, 9, 42, 95
10, 49920, Note_off_c, 9, 42, 80
10, 49920, Note_on_c, 9, 42, 95
10, 49920, Note_on_c, 9, 36, 95
10, 50160, Note_off_c, 9, 42, 80
10, 50160, Note_off_c, 9, 36, 80
10, 50160, Note_on_c, 9, 42, 95
10, 50160, Note_on_c, 9, 36, 95
10, 50400, Note_off_c, 9, 42, 80
10, 50400, Note_off_c, 9, 36, 80
10, 50400, Note_on_c, 9, 40, 95
10, 50640, Note_off_c, 9, 40, 80
10, 50640, Note_on_c, 9, 42, 95
10, 50640, Note_on_c, 9, 36, 95
10, 50880, Note_off_c, 9, 42, 80
10, 50880, Note_off_c, 9, 36, 80
10, 50880, Note_on_c, 9, 42, 95
10, 51120, Note_off_c, 9, 42, 80
10, 51120, Note_on_c, 9, 42, 79
10, 51240, Note_off_c, 9, 42, 80
10, 51270, Note_on_c, 9, 36, 95
10, 51360, Note_off_c, 9, 36, 80
10, 51360, Note_on_c, 9, 42, 95
10, 51360, Note_on_c, 9, 40, 95
10, 51600, Note_off_c, 9, 42, 80
10, 51600, Note_off_c, 9, 40, 80
10, 51600, Note_on_c, 9, 42, 95
10, 51840, Note_off_c, 9, 42, 80
10, 51840, Note_on_c, 9, 42, 95
10, 51840, Note_on_c, 9, 36, 95
10, 52080, Note_off_c, 9, 42, 80
10, 52080, Note_off_c, 9, 36, 80
10, 52080, Note_on_c, 9, 42, 95
10, 52080, Note_on_c, 9, 36, 95
10, 52320, Note_off_c, 9, 42, 80
10, 52320, Note_off_c, 9, 36, 80
10, 52320, Note_on_c, 9, 40, 95
10, 52560, Note_off_c, 9, 40, 80
10, 52560, Note_on_c, 9, 42, 95
10, 52560, Note_on_c, 9, 36, 95
10, 52800, Note_off_c, 9, 42, 80
10, 52800, Note_off_c, 9, 36, 80
10, 53190, Note_on_c, 9, 42, 95
10, 53280, Note_off_c, 9, 42, 80
10, 53280, Note_on_c, 9, 42, 95
10, 53280, Note_on_c, 9, 40, 95
10, 53520, Note_off_c, 9, 42, 80
10, 53520, Note_off_c, 9, 40, 80
10, 53520, Note_on_c, 9, 42, 95
10, 53760, Note_off_c, 9, 42, 80
10, 53760, Note_on_c, 9, 42, 95
10, 53760, Note_on_c, 9, 36, 95
10, 54000, Note_off_c, 9, 42, 80
10, 54000, Note_off_c, 9, 36, 80
10, 54000, Note_on_c, 9, 42, 95
10, 54000, Note_on_c, 9, 36, 95
10, 54240, Note_off_c, 9, 42, 80
10, 54240, Note_off_c, 9, 36, 80
10, 54240, Note_on_c, 9, 40, 95
10, 54480, Note_off_c, 9, 40, 80
10, 54480, Note_on_c, 9, 42, 95
10, 54480, Note_on_c, 9, 36, 95
10, 54720, Note_off_c, 9, 42, 80
10, 54720, Note_off_c, 9, 36, 80
10, 54720, Note_on_c, 9, 42, 95
10, 54960, Note_off_c, 9, 42, 80
10, 54960, Note_on_c, 9, 42, 79
10, 55080, Note_off_c, 9, 42, 80
10, 55110, Note_on_c, 9, 36, 95
10, 55200, Note_off_c, 9, 36, 80
10, 55200, Note_on_c, 9, 42, 95
10, 55200, Note_on_c, 9, 40, 95
10, 55440, Note_off_c, 9, 42, 80
10, 55440, Note_off_c, 9, 40, 80
10, 55440, Note_on_c, 9, 42, 95
10, 55680, Note_off_c, 9, 42, 80
10, 55680, Note_on_c, 9, 42, 95
10, 55680, Note_on_c, 9, 36, 95
10, 55920, Note_off_c, 9, 42, 80
10, 55920, Note_off_c, 9, 36, 80
10, 55920, Note_on_c, 9, 42, 95
10, 55920, Note_on_c, 9, 36, 95
10, 56160, Note_off_c, 9, 42, 80
10, 56160, Note_off_c, 9, 36, 80
10, 56160, Note_on_c, 9, 40, 95
10, 56400, Note_off_c, 9, 40, 80
10, 56400, Note_on_c, 9, 42, 95
10, 56400, Note_on_c, 9, 36, 95
10, 56640, Note_off_c, 9, 42, 80
10, 56640, Note_off_c, 9, 36, 80
10, 56640, Note_on_c, 9, 42, 95
10, 56880, Note_off_c, 9, 42, 80
10, 56880, Note_on_c, 9, 42, 79
10, 57000, Note_off_c, 9, 42, 80
10, 57000, Note_on_c, 9, 36, 95
10, 57120, Note_off_c, 9, 36, 80
10, 57120, Note_on_c, 9, 42, 95
10, 57120, Note_on_c, 9, 40, 95
10, 57360, Note_off_c, 9, 42, 80
10, 57360, Note_off_c, 9, 40, 80
10, 57360, Note_on_c, 9, 42, 95
10, 57600, Note_off_c, 9, 42, 80
10, 57600, Note_on_c, 9, 42, 95
10, 57600, Note_on_c, 9, 36, 95
10, 57840, Note_off_c, 9, 42, 80
10, 57840, Note_off_c, 9, 36, 80
10, 57840, Note_on_c, 9, 42, 95
10, 57840, Note_on_c, 9, 36, 95
10, 58080, Note_off_c, 9, 42, 80
10, 58080, Note_off_c, 9, 36, 80
10, 58080, Note_on_c, 9, 40, 95
10, 58320, Note_off_c, 9, 40, 80
10, 58320, Note_on_c, 9, 42, 95
10, 58320, Note_on_c, 9, 36, 95
10, 58560, Note_off_c, 9, 42, 80
10, 58560, Note_off_c, 9, 36, 80
10, 58560, Note_on_c, 9, 42, 95
10, 58800, Note_off_c, 9, 42, 80
10, 58800, Note_on_c, 9, 42, 79
10, 58920, Note_off_c, 9, 42, 80
10, 58920, Note_on_c, 9, 36, 95
10, 59040, Note_off_c, 9, 36, 80
10, 59040, Note_on_c, 9, 42, 95
10, 59040, Note_on_c, 9, 40, 95
10, 59280, Note_off_c, 9, 42, 80
10, 59280, Note_off_c, 9, 40, 80
10, 59280, Note_on_c, 9, 42, 95
10, 59520, Note_off_c, 9, 42, 80
10, 59520, Note_on_c, 9, 42, 95
10, 59520, Note_on_c, 9, 36, 95
10, 59760, Note_off_c, 9, 42, 80
10, 59760, Note_off_c, 9, 36, 80
10, 59760, Note_on_c, 9, 42, 95
10, 59760, Note_on_c, 9, 36, 95
10, 60000, Note_off_c, 9, 42, 80
10, 60000, Note_off_c, 9, 36, 80
10, 60000, Note_on_c, 9, 40, 95
10, 60240, Note_off_c, 9, 40, 80
10, 60240, Note_on_c, 9, 42, 95
10, 60240, Note_on_c, 9, 36, 95
10, 60480, Note_off_c, 9, 42, 80
10, 60480, Note_off_c, 9, 36, 80
10, 60480, Note_on_c, 9, 42, 95
10, 60720, Note_off_c, 9, 42, 80
10, 60720, Note_on_c, 9, 42, 79
10, 60840, Note_off_c, 9, 42, 80
10, 60840, Note_on_c, 9, 36, 95
10, 60960, Note_off_c, 9, 36, 80
10, 60960, Note_on_c, 9, 42, 95
10, 60960, Note_on_c, 9, 40, 95
10, 61200, Note_off_c, 9, 42, 80
10, 61200, Note_off_c, 9, 40, 80
10, 61200, Note_on_c, 9, 42, 95
10, 61440, Note_off_c, 9, 42, 80
10, 61440, Note_on_c, 9, 42, 95
10, 61440, Note_on_c, 9, 36, 95
10, 61680, Note_off_c, 9, 42, 80
10, 61680, Note_off_c, 9, 36, 80
10, 61680, Note_on_c, 9, 42, 95
10, 61680, Note_on_c, 9, 36, 95
10, 61920, Note_off_c, 9, 42, 80
10, 61920, Note_off_c, 9, 36, 80
10, 61920, Note_on_c, 9, 40, 95
10, 62160, Note_off_c, 9, 40, 80
10, 62160, Note_on_c, 9, 42, 95
10, 62160, Note_on_c, 9, 36, 95
10, 62400, Note_off_c, 9, 42, 80
10, 62400, Note_off_c, 9, 36, 80
10, 62400, Note_on_c, 9, 42, 95
10, 62640, Note_off_c, 9, 42, 80
10, 62640, Note_on_c, 9, 42, 79
10, 62760, Note_off_c, 9, 42, 80
10, 62760, Note_on_c, 9, 36, 95
10, 62880, Note_off_c, 9, 36, 80
10, 62880, Note_on_c, 9, 42, 95
10, 62880, Note_on_c, 9, 40, 95
10, 63120, Note_off_c, 9, 42, 80
10, 63120, Note_off_c, 9, 40, 80
10, 63120, Note_on_c, 9, 42, 95
10, 63360, Note_off_c, 9, 42, 80
10, 63360, Note_on_c, 9, 42, 95
10, 63360, Note_on_c, 9, 36, 95
10, 63600, Note_off_c, 9, 42, 80
10, 63600, Note_off_c, 9, 36, 80
10, 63600, Note_on_c, 9, 42, 95
10, 63600, Note_on_c, 9, 36, 95
10, 63840, Note_off_c, 9, 42, 80
10, 63840, Note_off_c, 9, 36, 80
10, 63840, Note_on_c, 9, 40, 95
10, 64080, Note_off_c, 9, 40, 80
10, 64080, Note_on_c, 9, 42, 95
10, 64080, Note_on_c, 9, 36, 95
10, 64320, Note_off_c, 9, 42, 80
10, 64320, Note_off_c, 9, 36, 80
10, 64320, Note_on_c, 9, 42, 95
10, 64560, Note_off_c, 9, 42, 80
10, 64560, Note_on_c, 9, 42, 79
10, 64680, Note_off_c, 9, 42, 80
10, 64680, Note_on_c, 9, 36, 95
10, 64800, Note_off_c, 9, 36, 80
10, 64800, Note_on_c, 9, 42, 95
10, 64800, Note_on_c, 9, 40, 95
10, 65040, Note_off_c, 9, 42, 80
10, 65040, Note_off_c, 9, 40, 80
10, 65040, Note_on_c, 9, 42, 95
10, 65280, Note_off_c, 9, 42, 80
10, 65280, Note_on_c, 9, 42, 95
10, 65280, Note_on_c, 9, 36, 95
10, 65520, Note_off_c, 9, 42, 80
10, 65520, Note_off_c, 9, 36, 80
10, 65520, Note_on_c, 9, 42, 95
10, 65520, Note_on_c, 9, 36, 95
10, 65760, Note_off_c, 9, 42, 80
10, 65760, Note_off_c, 9, 36, 80
10, 65760, Note_on_c, 9, 40, 95
10, 66000, Note_off_c, 9, 40, 80
10, 66000, Note_on_c, 9, 42, 95
10, 66000, Note_on_c, 9, 36, 95
10, 66240, Note_off_c, 9, 42, 80
10, 66240, Note_off_c, 9, 36, 80
10, 66240, Note_on_c, 9, 42, 95
10, 66480, Note_off_c, 9, 42, 80
10, 66480, Note_on_c, 9, 42, 79
10, 66600, Note_off_c, 9, 42, 80
10, 66600, Note_on_c, 9, 36, 95
10, 66720, Note_off_c, 9, 36, 80
10, 66720, Note_on_c, 9, 42, 95
10, 66720, Note_on_c, 9, 40, 95
10, 66960, Note_off_c, 9, 42, 80
10, 66960, Note_off_c, 9, 40, 80
10, 66960, Note_on_c, 9, 42, 95
10, 67200, Note_off_c, 9, 42, 80
10, 67200, Note_on_c, 9, 42, 95
10, 67200, Note_on_c, 9, 36, 95
10, 67440, Note_off_c, 9, 42, 80
10, 67440, Note_off_c, 9, 36, 80
10, 67440, Note_on_c, 9, 42, 95
10, 67440, Note_on_c, 9, 36, 95
10, 67680, Note_off_c, 9, 42, 80
10, 67680, Note_off_c, 9, 36, 80
10, 67680, Note_on_c, 9, 40, 95
10, 67920, Note_off_c, 9, 40, 80
10, 67920, Note_on_c, 9, 42, 95
10, 67920, Note_on_c, 9, 36, 95
10, 68160, Note_off_c, 9, 42, 80
10, 68160, Note_off_c, 9, 36, 80
10, 68160, Note_on_c, 9, 42, 95
10, 68400, Note_off_c, 9, 42, 80
10, 68400, Note_on_c, 9, 42, 79
10, 68520, Note_off_c, 9, 42, 80
10, 68520, Note_on_c, 9, 36, 95
10, 68640, Note_off_c, 9, 36, 80
10, 68640, Note_on_c, 9, 42, 95
10, 68640, Note_on_c, 9, 40, 95
10, 68880, Note_off_c, 9, 42, 80
10, 68880, Note_off_c, 9, 40, 80
10, 68880, Note_on_c, 9, 42, 95
10, 69120, Note_off_c, 9, 42, 80
10, 69120, Note_on_c, 9, 42, 95
10, 69120, Note_on_c, 9, 36, 95
10, 69360, Note_off_c, 9, 42, 80
10, 69360, Note_off_c, 9, 36, 80
10, 69360, Note_on_c, 9, 42, 95
10, 69360, Note_on_c, 9, 36, 95
10, 69600, Note_off_c, 9, 42, 80
10, 69600, Note_off_c, 9, 36, 80
10, 69600, Note_on_c, 9, 40, 95
10, 69840, Note_off_c, 9, 40, 80
10, 69840, Note_on_c, 9, 42, 95
10, 69840, Note_on_c, 9, 36, 95
10, 70080, Note_off_c, 9, 42, 80
10, 70080, Note_off_c, 9, 36, 80
10, 70080, Note_on_c, 9, 42, 95
10, 70320, Note_off_c, 9, 42, 80
10, 70320, Note_on_c, 9, 42, 79
10, 70440, Note_off_c, 9, 42, 80
10, 70440, Note_on_c, 9, 36, 95
10, 70560, Note_off_c, 9, 36, 80
10, 70560, Note_on_c, 9, 42, 95
10, 70560, Note_on_c, 9, 40, 95
10, 70800, Note_off_c, 9, 42, 80
10, 70800, Note_off_c, 9, 40, 80
10, 70800, Note_on_c, 9, 42, 95
10, 71040, Note_off_c, 9, 42, 80
10, 71040, Note_on_c, 9, 42, 95
10, 71040, Note_on_c, 9, 36, 95
10, 71280, Note_off_c, 9, 42, 80
10, 71280, Note_off_c, 9, 36, 80
10, 71280, Note_on_c, 9, 42, 95
10, 71280, Note_on_c, 9, 36, 95
10, 71520, Note_off_c, 9, 42, 80
10, 71520, Note_off_c, 9, 36, 80
10, 71520, Note_on_c, 9, 40, 95
10, 71760, Note_off_c, 9, 40, 80
10, 71760, Note_on_c, 9, 42, 95
10, 71760, Note_on_c, 9, 36, 95
10, 72000, Note_off_c, 9, 42, 80
10, 72000, Note_off_c, 9, 36, 80
10, 72000, Note_on_c, 9, 42, 95
10, 72240, Note_off_c, 9, 42, 80
10, 72240, Note_on_c, 9, 42, 79
10, 72360, Note_off_c, 9, 42, 80
10, 72390, Note_on_c, 9, 36, 95
10, 72480, Note_off_c, 9, 36, 80
10, 72480, Note_on_c, 9, 42, 95
10, 72480, Note_on_c, 9, 40, 95
10, 72720, Note_off_c, 9, 42, 80
10, 72720, Note_off_c, 9, 40, 80
10, 72720, Note_on_c, 9, 42, 95
10, 72960, Note_off_c, 9, 42, 80
10, 72960, Note_on_c, 9, 42, 95
10, 72960, Note_on_c, 9, 36, 95
10, 73200, Note_off_c, 9, 42, 80
10, 73200, Note_off_c, 9, 36, 80
10, 73200, Note_on_c, 9, 42, 95
10, 73200, Note_on_c, 9, 36, 95
10, 73440, Note_off_c, 9, 42, 80
10, 73440, Note_off_c, 9, 36, 80
10, 73440, Note_on_c, 9, 40, 95
10, 73680, Note_off_c, 9, 40, 80
10, 73680, Note_on_c, 9, 42, 95
10, 73680, Note_on_c, 9, 36, 95
10, 73920, Note_off_c, 9, 42, 80
10, 73920, Note_off_c, 9, 36, 80
10, 73920, Note_on_c, 9, 42, 95
10, 74160, Note_off_c, 9, 42, 80
10, 74160, Note_on_c, 9, 42, 79
10, 74280, Note_off_c, 9, 42, 80
10, 74310, Note_on_c, 9, 36, 95
10, 74400, Note_off_c, 9, 36, 80
10, 74400, Note_on_c, 9, 42, 95
10, 74400, Note_on_c, 9, 40, 95
10, 74640, Note_off_c, 9, 42, 80
10, 74640, Note_off_c, 9, 40, 80
10, 74640, Note_on_c, 9, 42, 95
10, 74880, Note_off_c, 9, 42, 80
10, 74880, Note_on_c, 9, 42, 95
10, 74880, Note_on_c, 9, 36, 95
10, 75120, Note_off_c, 9, 42, 80
10, 75120, Note_off_c, 9, 36, 80
10, 75120, Note_on_c, 9, 42, 95
10, 75120, Note_on_c, 9, 36, 95
10, 75360, Note_off_c, 9, 42, 80
10, 75360, Note_off_c, 9, 36, 80
10, 75360, Note_on_c, 9, 40, 95
10, 75600, Note_off_c, 9, 40, 80
10, 75600, Note_on_c, 9, 42, 95
10, 75600, Note_on_c, 9, 36, 95
10, 75840, Note_off_c, 9, 42, 80
10, 75840, Note_off_c, 9, 36, 80
10, 75840, Note_on_c, 9, 42, 95
10, 76080, Note_off_c, 9, 42, 80
10, 76080, Note_on_c, 9, 42, 79
10, 76200, Note_off_c, 9, 42, 80
10, 76230, Note_on_c, 9, 36, 95
10, 76320, Note_off_c, 9, 36, 80
10, 76320, Note_on_c, 9, 42, 95
10, 76320, Note_on_c, 9, 40, 95
10, 76560, Note_off_c, 9, 42, 80
10, 76560, Note_off_c, 9, 40, 80
10, 76560, Note_on_c, 9, 42, 95
10, 76800, Note_off_c, 9, 42, 80
10, 76800, Note_on_c, 9, 42, 95
10, 76800, Note_on_c, 9, 36, 95
10, 77040, Note_off_c, 9, 42, 80
10, 77040, Note_off_c, 9, 36, 80
10, 77040, Note_on_c, 9, 42, 95
10, 77040, Note_on_c, 9, 36, 95
10, 77280, Note_off_c, 9, 42, 80
10, 77280, Note_off_c, 9, 36, 80
10, 77280, Note_on_c, 9, 40, 95
10, 77520, Note_off_c, 9, 40, 80
10, 77520, Note_on_c, 9, 42, 95
10, 77520, Note_on_c, 9, 36, 95
10, 77760, Note_off_c, 9, 42, 80
10, 77760, Note_off_c, 9, 36, 80
10, 77760, Note_on_c, 9, 42, 95
10, 78000, Note_off_c, 9, 42, 80
10, 78000, Note_on_c, 9, 42, 79
10, 78120, Note_off_c, 9, 42, 80
10, 78150, Note_on_c, 9, 36, 95
10, 78240, Note_off_c, 9, 36, 80
10, 78240, Note_on_c, 9, 42, 95
10, 78240, Note_on_c, 9, 40, 95
10, 78480, Note_off_c, 9, 42, 80
10, 78480, Note_off_c, 9, 40, 80
10, 78480, Note_on_c, 9, 42, 95
10, 78720, Note_off_c, 9, 42, 80
10, 78720, Note_on_c, 9, 42, 95
10, 78720, Note_on_c, 9, 36, 95
10, 78960, Note_off_c, 9, 42, 80
10, 78960, Note_off_c, 9, 36, 80
10, 78960, Note_on_c, 9, 42, 95
10, 78960, Note_on_c, 9, 36, 95
10, 79200, Note_off_c, 9, 42, 80
10, 79200, Note_off_c, 9, 36, 80
10, 79200, Note_on_c, 9, 40, 95
10, 79440, Note_off_c, 9, 40, 80
10, 79440, Note_on_c, 9, 42, 95
10, 79440, Note_on_c, 9, 36, 95
10, 79680, Note_off_c, 9, 42, 80
10, 79680, Note_off_c, 9, 36, 80
10, 79680, Note_on_c, 9, 42, 95
10, 79920, Note_off_c, 9, 42, 80
10, 79920, Note_on_c, 9, 42, 79
10, 80040, Note_off_c, 9, 42, 80
10, 80070, Note_on_c, 9, 36, 95
10, 80160, Note_off_c, 9, 36, 80
10, 80160, Note_on_c, 9, 42, 95
10, 80160, Note_on_c, 9, 40, 95
10, 80400, Note_off_c, 9, 42, 80
10, 80400, Note_off_c, 9, 40, 80
10, 80400, Note_on_c, 9, 42, 95
10, 80640, Note_off_c, 9, 42, 80
10, 80640, Note_on_c, 9, 42, 95
10, 80640, Note_on_c, 9, 36, 95
10, 80880, Note_off_c, 9, 42, 80
10, 80880, Note_off_c, 9, 36, 80
10, 80880, Note_on_c, 9, 42, 95
10, 80880, Note_on_c, 9, 36, 95
10, 81120, Note_off_c, 9, 42, 80
10, 81120, Note_off_c, 9, 36, 80
10, 81120, Note_on_c, 9, 40, 95
10, 81360, Note_off_c, 9, 40, 80
10, 81360, Note_on_c, 9, 42, 95
10, 81360, Note_on_c, 9, 36, 95
10, 81600, Note_off_c, 9, 42, 80
10, 81600, Note_off_c, 9, 36, 80
10, 81600, Note_on_c, 9, 42, 95
10, 81840, Note_off_c, 9, 42, 80
10, 81840, Note_on_c, 9, 42, 79
10, 81960, Note_off_c, 9, 42, 80
10, 81990, Note_on_c, 9, 36, 95
10, 82080, Note_off_c, 9, 36, 80
10, 82080, Note_on_c, 9, 42, 95
10, 82080, Note_on_c, 9, 40, 95
10, 82320, Note_off_c, 9, 42, 80
10, 82320, Note_off_c, 9, 40, 80
10, 82320, Note_on_c, 9, 42, 95
10, 82560, Note_off_c, 9, 42, 80
10, 82560, Note_on_c, 9, 42, 95
10, 82560, Note_on_c, 9, 36, 95
10, 82800, Note_off_c, 9, 42, 80
10, 82800, Note_off_c, 9, 36, 80
10, 82800, Note_on_c, 9, 42, 95
10, 82800, Note_on_c, 9, 36, 95
10, 83040, Note_off_c, 9, 42, 80
10, 83040, Note_off_c, 9, 36, 80
10, 83040, Note_on_c, 9, 40, 95
10, 83280, Note_off_c, 9, 40, 80
10, 83280, Note_on_c, 9, 42, 95
10, 83280, Note_on_c, 9, 36, 95
10, 83520, Note_off_c, 9, 42, 80
10, 83520, Note_off_c, 9, 36, 80
10, 83520, Note_on_c, 9, 42, 95
10, 83760, Note_off_c, 9, 42, 80
10, 83760, Note_on_c, 9, 42, 79
10, 83880, Note_off_c, 9, 42, 80
10, 83910, Note_on_c, 9, 36, 95
10, 84000, Note_off_c, 9, 36, 80
10, 84000, Note_on_c, 9, 42, 95
10, 84000, Note_on_c, 9, 40, 95
10, 84240, Note_off_c, 9, 42, 80
10, 84240, Note_off_c, 9, 40, 80
10, 84240, Note_on_c, 9, 42, 95
10, 84480, Note_off_c, 9, 42, 80
10, 84480, Note_on_c, 9, 42, 95
10, 84480, Note_on_c, 9, 36, 95
10, 84720, Note_off_c, 9, 42, 80
10, 84720, Note_off_c, 9, 36, 80
10, 84720, Note_on_c, 9, 42, 95
10, 84720, Note_on_c, 9, 36, 95
10, 84960, Note_off_c, 9, 42, 80
10, 84960, Note_off_c, 9, 36, 80
10, 84960, Note_on_c, 9, 40, 95
10, 85200, Note_off_c, 9, 40, 80
10, 85200, Note_on_c, 9, 42, 95
10, 85200, Note_on_c, 9, 36, 95
10, 85440, Note_off_c, 9, 42, 80
10, 85440, Note_off_c, 9, 36, 80
10, 85440, Note_on_c, 9, 42, 95
10, 85680, Note_off_c, 9, 42, 80
10, 85680, Note_on_c, 9, 42, 79
10, 85800, Note_off_c, 9, 42, 80
10, 85830, Note_on_c, 9, 36, 95
10, 85920, Note_off_c, 9, 36, 80
10, 85920, Note_on_c, 9, 42, 95
10, 85920, Note_on_c, 9, 40, 95
10, 86160, Note_off_c, 9, 42, 80
10, 86160, Note_off_c, 9, 40, 80
10, 86160, Note_on_c, 9, 42, 95
10, 86400, Note_off_c, 9, 42, 80
10, 86400, Note_on_c, 9, 42, 95
10, 86400, Note_on_c, 9, 36, 95
10, 86640, Note_off_c, 9, 42, 80
10, 86640, Note_off_c, 9, 36, 80
10, 86640, Note_on_c, 9, 42, 95
10, 86640, Note_on_c, 9, 36, 95
10, 86880, Note_off_c, 9, 42, 80
10, 86880, Note_off_c, 9, 36, 80
10, 86880, Note_on_c, 9, 40, 95
10, 87120, Note_off_c, 9, 40, 80
10, 87120, Note_on_c, 9, 42, 95
10, 87120, Note_on_c, 9, 36, 95
10, 87360, Note_off_c, 9, 42, 80
10, 87360, Note_off_c, 9, 36, 80
10, 87360, Note_on_c, 9, 42, 95
10, 87600, Note_off_c, 9, 42, 80
10, 87600, Note_on_c, 9, 42, 79
10, 87720, Note_off_c, 9, 42, 80
10, 87750, Note_on_c, 9, 36, 95
10, 87840, Note_off_c, 9, 36, 80
10, 87840, Note_on_c, 9, 42, 95
10, 87840, Note_on_c, 9, 40, 95
10, 88080, Note_off_c, 9, 42, 80
10, 88080, Note_off_c, 9, 40, 80
10, 88080, Note_on_c, 9, 42, 95
10, 88320, Note_off_c, 9, 42, 80
10, 88320, Note_on_c, 9, 42, 95
10, 88320, Note_on_c, 9, 36, 95
10, 88560, Note_off_c, 9, 42, 80
10, 88560, Note_off_c, 9, 36, 80
10, 88560, Note_on_c, 9, 42, 95
10, 88560, Note_on_c, 9, 36, 95
10, 88800, Note_off_c, 9, 42, 80
10, 88800, Note_off_c, 9, 36, 80
10, 88800, Note_on_c, 9, 40, 95
10, 89040, Note_off_c, 9, 40, 80
10, 89040, Note_on_c, 9, 42, 95
10, 89040, Note_on_c, 9, 36, 95
10, 89280, Note_off_c, 9, 42, 80
10, 89280, Note_off_c, 9, 36, 80
10, 89280, Note_on_c, 9, 42, 95
10, 89520, Note_off_c, 9, 42, 80
10, 89520, Note_on_c, 9, 42, 79
10, 89640, Note_off_c, 9, 42, 80
10, 89670, Note_on_c, 9, 36, 95
10, 89760, Note_off_c, 9, 36, 80
10, 89760, Note_on_c, 9, 42, 95
10, 89760, Note_on_c, 9, 40, 95
10, 90000, Note_off_c, 9, 42, 80
10, 90000, Note_off_c, 9, 40, 80
10, 90000, Note_on_c, 9, 42, 95
10, 90240, Note_off_c, 9, 42, 80
10, 90240, Note_on_c, 9, 42, 95
10, 90240, Note_on_c, 9, 36, 95
10, 90480, Note_off_c, 9, 42, 80
10, 90480, Note_off_c, 9, 36, 80
10, 90480, Note_on_c, 9, 42, 95
10, 90480, Note_on_c, 9, 36, 95
10, 90720, Note_off_c, 9, 42, 80
10, 90720, Note_off_c, 9, 36, 80
10, 90720, Note_on_c, 9, 40, 95
10, 90960, Note_off_c, 9, 40, 80
10, 90960, Note_on_c, 9, 42, 95
10, 90960, Note_on_c, 9, 36, 95
10, 91200, Note_off_c, 9, 42, 80
10, 91200, Note_off_c, 9, 36, 80
10, 91200, Note_on_c, 9, 42, 95
10, 91440, Note_off_c, 9, 42, 80
10, 91440, Note_on_c, 9, 42, 79
10, 91560, Note_off_c, 9, 42, 80
10, 91590, Note_on_c, 9, 36, 95
10, 91680, Note_off_c, 9, 36, 80
10, 91680, Note_on_c, 9, 42, 95
10, 91680, Note_on_c, 9, 40, 95
10, 91920, Note_off_c, 9, 42, 80
10, 91920, Note_off_c, 9, 40, 80
10, 91920, Note_on_c, 9, 42, 95
10, 92160, Note_off_c, 9, 42, 80
10, 92160, Note_on_c, 9, 42, 95
10, 92160, Note_on_c, 9, 36, 95
10, 92400, Note_off_c, 9, 42, 80
10, 92400, Note_off_c, 9, 36, 80
10, 92400, Note_on_c, 9, 42, 95
10, 92400, Note_on_c, 9, 36, 95
10, 92640, Note_off_c, 9, 42, 80
10, 92640, Note_off_c, 9, 36, 80
10, 92640, Note_on_c, 9, 40, 95
10, 92880, Note_off_c, 9, 40, 80
10, 92880, Note_on_c, 9, 42, 95
10, 92880, Note_on_c, 9, 36, 95
10, 93120, Note_off_c, 9, 42, 80
10, 93120, Note_off_c, 9, 36, 80
10, 93120, Note_on_c, 9, 42, 95
10, 93360, Note_off_c, 9, 42, 80
10, 93360, Note_on_c, 9, 42, 79
10, 93480, Note_off_c, 9, 42, 80
10, 93510, Note_on_c, 9, 36, 95
10, 93600, Note_off_c, 9, 36, 80
10, 93600, Note_on_c, 9, 42, 95
10, 93600, Note_on_c, 9, 40, 95
10, 93840, Note_off_c, 9, 42, 80
10, 93840, Note_off_c, 9, 40, 80
10, 93840, Note_on_c, 9, 42, 95
10, 94080, Note_off_c, 9, 42, 80
10, 94080, Note_on_c, 9, 42, 95
10, 94080, Note_on_c, 9, 36, 95
10, 94320, Note_off_c, 9, 42, 80
10, 94320, Note_off_c, 9, 36, 80
10, 94320, Note_on_c, 9, 42, 95
10, 94320, Note_on_c, 9, 36, 95
10, 94560, Note_off_c, 9, 42, 80
10, 94560, Note_off_c, 9, 36, 80
10, 94560, Note_on_c, 9, 40, 95
10, 94800, Note_off_c, 9, 40, 80
10, 94800, Note_on_c, 9, 42, 95
10, 94800, Note_on_c, 9, 36, 95
10, 95040, Note_off_c, 9, 42, 80
10, 95040, Note_off_c, 9, 36, 80
10, 95040, Note_on_c, 9, 42, 95
10, 95280, Note_off_c, 9, 42, 80
10, 95280, Note_on_c, 9, 42, 79
10, 95400, Note_off_c, 9, 42, 80
10, 95430, Note_on_c, 9, 36, 95
10, 95520, Note_off_c, 9, 36, 80
10, 95520, Note_on_c, 9, 42, 95
10, 95520, Note_on_c, 9, 40, 95
10, 95760, Note_off_c, 9, 42, 80
10, 95760, Note_off_c, 9, 40, 80
10, 95760, Note_on_c, 9, 42, 95
10, 96000, Note_off_c, 9, 42, 80
10, 96000, Note_on_c, 9, 42, 95
10, 96000, Note_on_c, 9, 36, 95
10, 96240, Note_off_c, 9, 42, 80
10, 96240, Note_off_c, 9, 36, 80
10, 96240, Note_on_c, 9, 42, 95
10, 96240, Note_on_c, 9, 36, 95
10, 96480, Note_off_c, 9, 42, 80
10, 96480, Note_off_c, 9, 36, 80
10, 96480, Note_on_c, 9, 40, 95
10, 96720, Note_off_c, 9, 40, 80
10, 96720, Note_on_c, 9, 42, 95
10, 96720, Note_on_c, 9, 36, 95
10, 96960, Note_off_c, 9, 42, 80
10, 96960, Note_off_c, 9, 36, 80
10, 96960, Note_on_c, 9, 42, 95
10, 97200, Note_off_c, 9, 42, 80
10, 97200, Note_on_c, 9, 42, 79
10, 97320, Note_off_c, 9, 42, 80
10, 97350, Note_on_c, 9, 36, 95
10, 97440, Note_off_c, 9, 36, 80
10, 97440, Note_on_c, 9, 42, 95
10, 97440, Note_on_c, 9, 40, 95
10, 97680, Note_off_c, 9, 42, 80
10, 97680, Note_off_c, 9, 40, 80
10, 97680, Note_on_c, 9, 42, 95
10, 97920, Note_off_c, 9, 42, 80
10, 97920, Note_on_c, 9, 42, 95
10, 97920, Note_on_c, 9, 36, 95
10, 98160, Note_off_c, 9, 42, 80
10, 98160, Note_off_c, 9, 36, 80
10, 98160, Note_on_c, 9, 42, 95
10, 98160, Note_on_c, 9, 36, 95
10, 98400, Note_off_c, 9, 42, 80
10, 98400, Note_off_c, 9, 36, 80
10, 98400, Note_on_c, 9, 40, 95
10, 98640, Note_off_c, 9, 40, 80
10, 98640, Note_on_c, 9, 42, 95
10, 98640, Note_on_c, 9, 36, 95
10, 98880, Note_off_c, 9, 42, 80
10, 98880, Note_off_c, 9, 36, 80
10, 98880, Note_on_c, 9, 42, 95
10, 99120, Note_off_c, 9, 42, 80
10, 99120, Note_on_c, 9, 42, 79
10, 99240, Note_off_c, 9, 42, 80
10, 99270, Note_on_c, 9, 36, 95
10, 99360, Note_off_c, 9, 36, 80
10, 99360, Note_on_c, 9, 42, 95
10, 99360, Note_on_c, 9, 40, 95
10, 99600, Note_off_c, 9, 42, 80
10, 99600, Note_off_c, 9, 40, 80
10, 99600, Note_on_c, 9, 42, 95
10, 99840, Note_off_c, 9, 42, 80
10, 99840, Note_on_c, 9, 42, 95
10, 99840, Note_on_c, 9, 36, 95
10, 100080, Note_off_c, 9, 42, 80
10, 100080, Note_off_c, 9, 36, 80
10, 100080, Note_on_c, 9, 42, 95
10, 100080, Note_on_c, 9, 36, 95
10, 100320, Note_off_c, 9, 42, 80
10, 100320, Note_off_c, 9, 36, 80
10, 100320, Note_on_c, 9, 40, 95
10, 100560, Note_off_c, 9, 40, 80
10, 100560, Note_on_c, 9, 42, 95
10, 100560, Note_on_c, 9, 36, 95
10, 100800, Note_off_c, 9, 42, 80
10, 100800, Note_off_c, 9, 36, 80
10, 100800, Note_on_c, 9, 42, 95
10, 101040, Note_off_c, 9, 42, 80
10, 101040, Note_on_c, 9, 42, 79
10, 101160, Note_off_c, 9, 42, 80
10, 101160, Note_on_c, 9, 36, 95
10, 101280, Note_off_c, 9, 36, 80
10, 101280, Note_on_c, 9, 42, 95
10, 101280, Note_on_c, 9, 40, 95
10, 101520, Note_off_c, 9, 42, 80
10, 101520, Note_off_c, 9, 40, 80
10, 101520, Note_on_c, 9, 42, 95
10, 101760, Note_off_c, 9, 42, 80
10, 101760, Note_on_c, 9, 42, 95
10, 101760, Note_on_c, 9, 36, 95
10, 102000, Note_off_c, 9, 42, 80
10, 102000, Note_off_c, 9, 36, 80
10, 102000, Note_on_c, 9, 42, 95
10, 102000, Note_on_c, 9, 36, 95
10, 102240, Note_off_c, 9, 42, 80
10, 102240, Note_off_c, 9, 36, 80
10, 102240, Note_on_c, 9, 40, 95
10, 102480, Note_off_c, 9, 40, 80
10, 102480, Note_on_c, 9, 42, 95
10, 102480, Note_on_c, 9, 36, 95
10, 102720, Note_off_c, 9, 42, 80
10, 102720, Note_off_c, 9, 36, 80
10, 102720, Note_on_c, 9, 42, 95
10, 102960, Note_off_c, 9, 42, 80
10, 102960, Note_on_c, 9, 42, 79
10, 103080, Note_off_c, 9, 42, 80
10, 103080, Note_on_c, 9, 36, 95
10, 103200, Note_off_c, 9, 36, 80
10, 103200, Note_on_c, 9, 42, 95
10, 103200, Note_on_c, 9, 40, 95
10, 103440, Note_off_c, 9, 42, 80
10, 103440, Note_off_c, 9, 40, 80
10, 103440, Note_on_c, 9, 42, 95
10, 103680, Note_off_c, 9, 42, 80
10, 103680, Note_on_c, 9, 42, 95
10, 103680, Note_on_c, 9, 36, 95
10, 103920, Note_off_c, 9, 42, 80
10, 103920, Note_off_c, 9, 36, 80
10, 103920, Note_on_c, 9, 42, 95
10, 103920, Note_on_c, 9, 36, 95
10, 104160, Note_off_c, 9, 42, 80
10, 104160, Note_off_c, 9, 36, 80
10, 104160, Note_on_c, 9, 40, 95
10, 104400, Note_off_c, 9, 40, 80
10, 104400, Note_on_c, 9, 42, 95
10, 104400, Note_on_c, 9, 36, 95
10, 104640, Note_off_c, 9, 42, 80
10, 104640, Note_off_c, 9, 36, 80
10, 104640, Note_on_c, 9, 42, 95
10, 104880, Note_off_c, 9, 42, 80
10, 104880, Note_on_c, 9, 42, 79
10, 105000, Note_off_c, 9, 42, 80
10, 105000, Note_on_c, 9, 36, 95
10, 105120, Note_off_c, 9, 36, 80
10, 105120, Note_on_c, 9, 42, 95
10, 105120, Note_on_c, 9, 40, 95
10, 105360, Note_off_c, 9, 42, 80
10, 105360, Note_off_c, 9, 40, 80
10, 105360, Note_on_c, 9, 42, 95
10, 105600, Note_off_c, 9, 42, 80
10, 105600, Note_on_c, 9, 42, 95
10, 105600, Note_on_c, 9, 36, 95
10, 105840, Note_off_c, 9, 42, 80
10, 105840, Note_off_c, 9, 36, 80
10, 105840, Note_on_c, 9, 42, 95
10, 105840, Note_on_c, 9, 36, 95
10, 106080, Note_off_c, 9, 42, 80
10, 106080, Note_off_c, 9, 36, 80
10, 106080, Note_on_c, 9, 40, 95
10, 106320, Note_off_c, 9, 40, 80
10, 106320, Note_on_c, 9, 42, 95
10, 106320, Note_on_c, 9, 36, 95
10, 106560, Note_off_c, 9, 42, 80
10, 106560, Note_off_c, 9, 36, 80
10, 106560, Note_on_c, 9, 42, 95
10, 106800, Note_off_c, 9, 42, 80
10, 106800, Note_on_c, 9, 42, 79
10, 106920, Note_off_c, 9, 42, 80
10, 106920, Note_on_c, 9, 36, 95
10, 107040, Note_off_c, 9, 36, 80
10, 107040, Note_on_c, 9, 42, 95
10, 107040, Note_on_c, 9, 40, 95
10, 107280, Note_off_c, 9, 42, 80
10, 107280, Note_off_c, 9, 40, 80
10, 107280, Note_on_c, 9, 42, 95
10, 107520, Note_off_c, 9, 42, 80
10, 107520, Note_on_c, 9, 42, 95
10, 107520, Note_on_c, 9, 36, 95
10, 107760, Note_off_c, 9, 42, 80
10, 107760, Note_off_c, 9, 36, 80
10, 107760, Note_on_c, 9, 42, 95
10, 107760, Note_on_c, 9, 36, 95
10, 108000, Note_off_c, 9, 42, 80
10, 108000, Note_off_c, 9, 36, 80
10, 108000, Note_on_c, 9, 40, 95
10, 108240, Note_off_c, 9, 40, 80
10, 108240, Note_on_c, 9, 42, 95
10, 108240, Note_on_c, 9, 36, 95
10, 108480, Note_off_c, 9, 42, 80
10, 108480, Note_off_c, 9, 36, 80
10, 108480, Note_on_c, 9, 42, 95
10, 108720, Note_off_c, 9, 42, 80
10, 108720, Note_on_c, 9, 42, 79
10, 108840, Note_off_c, 9, 42, 80
10, 108840, Note_on_c, 9, 36, 95
10, 108960, Note_off_c, 9, 36, 80
10, 108960, Note_on_c, 9, 42, 95
10, 108960, Note_on_c, 9, 40, 95
10, 109200, Note_off_c, 9, 42, 80
10, 109200, Note_off_c, 9, 40, 80
10, 109200, Note_on_c, 9, 42, 95
10, 109440, Note_off_c, 9, 42, 80
10, 109440, Note_on_c, 9, 42, 95
10, 109440, Note_on_c, 9, 36, 95
10, 109680, Note_off_c, 9, 42, 80
10, 109680, Note_off_c, 9, 36, 80
10, 109680, Note_on_c, 9, 42, 95
10, 109680, Note_on_c, 9, 36, 95
10, 109920, Note_off_c, 9, 42, 80
10, 109920, Note_off_c, 9, 36, 80
10, 109920, Note_on_c, 9, 40, 95
10, 110160, Note_off_c, 9, 40, 80
10, 110160, Note_on_c, 9, 42, 95
10, 110160, Note_on_c, 9, 36, 95
10, 110400, Note_off_c, 9, 42, 80
10, 110400, Note_off_c, 9, 36, 80
10, 110400, Note_on_c, 9, 42, 95
10, 110640, Note_off_c, 9, 42, 80
10, 110640, Note_on_c, 9, 42, 79
10, 110760, Note_off_c, 9, 42, 80
10, 110760, Note_on_c, 9, 36, 95
10, 110880, Note_off_c, 9, 36, 80
10, 110880, Note_on_c, 9, 42, 95
10, 110880, Note_on_c, 9, 40, 95
10, 111120, Note_off_c, 9, 42, 80
10, 111120, Note_off_c, 9, 40, 80
10, 111120, Note_on_c, 9, 42, 95
10, 111360, Note_off_c, 9, 42, 80
10, 111360, Note_on_c, 9, 42, 95
10, 111360, Note_on_c, 9, 36, 95
10, 111600, Note_off_c, 9, 42, 80
10, 111600, Note_off_c, 9, 36, 80
10, 111600, Note_on_c, 9, 42, 95
10, 111600, Note_on_c, 9, 36, 95
10, 111840, Note_off_c, 9, 42, 80
10, 111840, Note_off_c, 9, 36, 80
10, 111840, Note_on_c, 9, 40, 95
10, 112080, Note_off_c, 9, 40, 80
10, 112080, Note_on_c, 9, 42, 95
10, 112080, Note_on_c, 9, 36, 95
10, 112320, Note_off_c, 9, 42, 80
10, 112320, Note_off_c, 9, 36, 80
10, 112320, Note_on_c, 9, 42, 95
10, 112560, Note_off_c, 9, 42, 80
10, 112560, Note_on_c, 9, 42, 79
10, 112680, Note_off_c, 9, 42, 80
10, 112680, Note_on_c, 9, 36, 95
10, 112800, Note_off_c, 9, 36, 80
10, 112800, Note_on_c, 9, 42, 95
10, 112800, Note_on_c, 9, 40, 95
10, 113040, Note_off_c, 9, 42, 80
10, 113040, Note_off_c, 9, 40, 80
10, 113040, Note_on_c, 9, 42, 95
10, 113280, Note_off_c, 9, 42, 80
10, 113280, Note_on_c, 9, 42, 95
10, 113280, Note_on_c, 9, 36, 95
10, 113520, Note_off_c, 9, 42, 80
10, 113520, Note_off_c, 9, 36, 80
10, 113520, Note_on_c, 9, 42, 95
10, 113520, Note_on_c, 9, 36, 95
10, 113760, Note_off_c, 9, 42, 80
10, 113760, Note_off_c, 9, 36, 80
10, 113760, Note_on_c, 9, 40, 95
10, 114000, Note_off_c, 9, 40, 80
10, 114000, Note_on_c, 9, 42, 95
10, 114000, Note_on_c, 9, 36, 95
10, 114240, Note_off_c, 9, 42, 80
10, 114240, Note_off_c, 9, 36, 80
10, 114240, Note_on_c, 9, 42, 95
10, 114480, Note_off_c, 9, 42, 80
10, 114480, Note_on_c, 9, 42, 79
10, 114600, Note_off_c, 9, 42, 80
10, 114600, Note_on_c, 9, 36, 95
10, 114720, Note_off_c, 9, 36, 80
10, 114720, Note_on_c, 9, 42, 95
10, 114720, Note_on_c, 9, 40, 95
10, 114960, Note_off_c, 9, 42, 80
10, 114960, Note_off_c, 9, 40, 80
10, 114960, Note_on_c, 9, 42, 95
10, 115200, Note_off_c, 9, 42, 80
10, 115200, Note_on_c, 9, 42, 95
10, 115200, Note_on_c, 9, 55, 95
10, 115200, Note_on_c, 9, 36, 95
10, 115440, Note_off_c, 9, 42, 80
10, 115440, Note_off_c, 9, 55, 80
10, 115440, Note_off_c, 9, 36, 80
10, 115440, Note_on_c, 9, 42, 95
10, 115440, Note_on_c, 9, 36, 95
10, 115680, Note_off_c, 9, 42, 80
10, 115680, Note_off_c, 9, 36, 80
10, 115680, Note_on_c, 9, 40, 95
10, 115920, Note_off_c, 9, 40, 80
10, 115920, Note_on_c, 9, 42, 95
10, 115920, Note_on_c, 9, 36, 95
10, 116160, Note_off_c, 9, 42, 80
10, 116160, Note_off_c, 9, 36, 80
10, 116160, Note_on_c, 9, 42, 95
10, 116400, Note_off_c, 9, 42, 80
10, 116400, Note_on_c, 9, 42, 79
10, 116520, Note_off_c, 9, 42, 80
10, 116520, Note_on_c, 9, 36, 95
10, 116640, Note_off_c, 9, 36, 80
10, 116640, Note_on_c, 9, 42, 95
10, 116640, Note_on_c, 9, 40, 95
10, 116880, Note_off_c, 9, 42, 80
10, 116880, Note_off_c, 9, 40, 80
10, 116880, Note_on_c, 9, 42, 95
10, 117120, Note_off_c, 9, 42, 80
10, 117120, Control_c, 9, 7, 104
10, 117120, Note_on_c, 9, 42, 95
10, 117120, Note_on_c, 9, 36, 95
10, 117240, Control_c, 9, 7, 104
10, 117360, Control_c, 9, 7, 104
10, 117360, Note_off_c, 9, 42, 80
10, 117360, Note_off_c, 9, 36, 80
10, 117360, Note_on_c, 9, 42, 95
10, 117360, Note_on_c, 9, 36, 95
10, 117480, Control_c, 9, 7, 105
10, 117600, Control_c, 9, 7, 105
10, 117600, Note_off_c, 9, 42, 80
10, 117600, Note_off_c, 9, 36, 80
10, 117600, Note_on_c, 9, 40, 95
10, 117720, Control_c, 9, 7, 105
10, 117840, Control_c, 9, 7, 105
10, 117840, Note_off_c, 9, 40, 80
10, 117840, Note_on_c, 9, 42, 95
10, 117840, Note_on_c, 9, 36, 95
10, 117960, Control_c, 9, 7, 105
10, 118080, Control_c, 9, 7, 105
10, 118080, Note_off_c, 9, 42, 80
10, 118080, Note_off_c, 9, 36, 80
10, 118080, Note_on_c, 9, 42, 95
10, 118200, Control_c, 9, 7, 106
10, 118320, Control_c, 9, 7, 106
10, 118320, Note_off_c, 9, 42, 80
10, 118320, Note_on_c, 9, 42, 79
10, 118440, Control_c, 9, 7, 106
10, 118440, Note_off_c, 9, 42, 80
10, 118440, Note_on_c, 9, 36, 95
10, 118560, Control_c, 9, 7, 106
10, 118560, Note_off_c, 9, 36, 80
10, 118560, Note_on_c, 9, 42, 95
10, 118560, Note_on_c, 9, 40, 95
10, 118680, Control_c, 9, 7, 106
10, 118800, Control_c, 9, 7, 106
10, 118800, Note_off_c, 9, 42, 80
10, 118800, Note_off_c, 9, 40, 80
10, 118800, Note_on_c, 9, 42, 95
10, 118920, Control_c, 9, 7, 107
10, 119040, Control_c, 9, 7, 107
10, 119040, Note_off_c, 9, 42, 80
10, 119040, Note_on_c, 9, 42, 95
10, 119040, Note_on_c, 9, 36, 95
10, 119160, Control_c, 9, 7, 107
10, 119280, Control_c, 9, 7, 107
10, 119280, Note_off_c, 9, 42, 80
10, 119280, Note_off_c, 9, 36, 80
10, 119280, Note_on_c, 9, 42, 95
10, 119280, Note_on_c, 9, 36, 95
10, 119400, Control_c, 9, 7, 107
10, 119520, Control_c, 9, 7, 107
10, 119520, Note_off_c, 9, 42, 80
10, 119520, Note_off_c, 9, 36, 80
10, 119520, Note_on_c, 9, 40, 95
10, 119640, Control_c, 9, 7, 108
10, 119760, Control_c, 9, 7, 108
10, 119760, Note_off_c, 9, 40, 80
10, 119760, Note_on_c, 9, 42, 95
10, 119760, Note_on_c, 9, 36, 95
10, 119880, Control_c, 9, 7, 108
10, 120000, Control_c, 9, 7, 108
10, 120000, Note_off_c, 9, 42, 80
10, 120000, Note_off_c, 9, 36, 80
10, 120000, Note_on_c, 9, 42, 95
10, 120120, Control_c, 9, 7, 108
10, 120240, Control_c, 9, 7, 108
10, 120240, Note_off_c, 9, 42, 80
10, 120240, Note_on_c, 9, 42, 79
10, 120360, Control_c, 9, 7, 109
10, 120360, Note_off_c, 9, 42, 80
10, 120360, Note_on_c, 9, 36, 95
10, 120480, Control_c, 9, 7, 109
10, 120480, Note_off_c, 9, 36, 80
10, 120480, Note_on_c, 9, 42, 95
10, 120480, Note_on_c, 9, 40, 95
10, 120600, Control_c, 9, 7, 109
10, 120720, Control_c, 9, 7, 109
10, 120720, Note_off_c, 9, 42, 80
10, 120720, Note_off_c, 9, 40, 80
10, 120720, Note_on_c, 9, 42, 95
10, 120840, Control_c, 9, 7, 109
10, 120960, Control_c, 9, 7, 109
10, 120960, Note_off_c, 9, 42, 80
10, 120960, Note_on_c, 9, 42, 95
10, 120960, Note_on_c, 9, 36, 95
10, 121080, Control_c, 9, 7, 110
10, 121200, Control_c, 9, 7, 110
10, 121200, Note_off_c, 9, 42, 80
10, 121200, Note_off_c, 9, 36, 80
10, 121200, Note_on_c, 9, 42, 95
10, 121200, Note_on_c, 9, 36, 95
10, 121320, Control_c, 9, 7, 110
10, 121440, Control_c, 9, 7, 110
10, 121440, Note_off_c, 9, 42, 80
10, 121440, Note_off_c, 9, 36, 80
10, 121440, Note_on_c, 9, 40, 95
10, 121560, Control_c, 9, 7, 110
10, 121680, Control_c, 9, 7, 110
10, 121680, Note_off_c, 9, 40, 80
10, 121680, Note_on_c, 9, 42, 95
10, 121680, Note_on_c, 9, 36, 95
10, 121800, Control_c, 9, 7, 111
10, 121920, Control_c, 9, 7, 111
10, 121920, Note_off_c, 9, 42, 80
10, 121920, Note_off_c, 9, 36, 80
10, 121920, Note_on_c, 9, 42, 95
10, 122040, Control_c, 9, 7, 111
10, 122160, Control_c, 9, 7, 111
10, 122160, Note_off_c, 9, 42, 80
10, 122160, Note_on_c, 9, 42, 79
10, 122280, Control_c, 9, 7, 111
10, 122280, Note_off_c, 9, 42, 80
10, 122280, Note_on_c, 9, 36, 95
10, 122400, Control_c, 9, 7, 111
10, 122400, Note_off_c, 9, 36, 80
10, 122400, Note_on_c, 9, 42, 95
10, 122400, Note_on_c, 9, 40, 95
10, 122400, Note_on_c, 9, 38, 95
10, 122520, Control_c, 9, 7, 112
10, 122640, Control_c, 9, 7, 112
10, 122640, Note_off_c, 9, 42, 80
10, 122640, Note_off_c, 9, 40, 80
10, 122640, Note_off_c, 9, 38, 80
10, 122640, Note_on_c, 9, 46, 95
10, 122640, Note_on_c, 9, 55, 127
10, 122760, Control_c, 9, 7, 112
10, 122880, Control_c, 9, 7, 112
10, 122880, Note_off_c, 9, 46, 80
10, 122880, Note_off_c, 9, 55, 80
10, 122880, Control_c, 9, 7, 127
10, 122880, Control_c, 9, 10, 64
10, 122880, Note_on_c, 9, 59, 95
10, 122880, Note_on_c, 9, 49, 50
10, 122880, Note_on_c, 9, 36, 95
10, 123120, Note_off_c, 9, 59, 80
10, 123120, Note_off_c, 9, 49, 80
10, 123120, Note_off_c, 9, 36, 80
10, 123120, Note_on_c, 9, 59, 95
10, 123120, Note_on_c, 9, 49, 50
10, 123120, Note_on_c, 9, 36, 95
10, 123360, Note_off_c, 9, 59, 80
10, 123360, Note_off_c, 9, 49, 80
10, 123360, Note_off_c, 9, 36, 80
10, 123360, Note_on_c, 9, 59, 95
10, 123360, Note_on_c, 9, 40, 95
10, 123360, Note_on_c, 9, 49, 50
10, 123600, Note_off_c, 9, 59, 80
10, 123600, Note_off_c, 9, 40, 80
10, 123600, Note_off_c, 9, 49, 80
10, 123600, Note_on_c, 9, 59, 95
10, 123600, Note_on_c, 9, 49, 50
10, 123600, Note_on_c, 9, 36, 95
10, 123840, Note_off_c, 9, 59, 80
10, 123840, Note_off_c, 9, 49, 80
10, 123840, Note_off_c, 9, 36, 80
10, 123840, Note_on_c, 9, 59, 95
10, 123840, Note_on_c, 9, 49, 50
10, 124080, Note_off_c, 9, 59, 80
10, 124080, Note_off_c, 9, 49, 80
10, 124080, Note_on_c, 9, 59, 79
10, 124080, Note_on_c, 9, 49, 50
10, 124200, Note_off_c, 9, 59, 80
10, 124200, Note_off_c, 9, 49, 80
10, 124200, Note_on_c, 9, 36, 95
10, 124320, Note_off_c, 9, 36, 80
10, 124320, Note_on_c, 9, 59, 95
10, 124320, Note_on_c, 9, 40, 95
10, 124320, Note_on_c, 9, 49, 50
10, 124560, Note_off_c, 9, 59, 80
10, 124560, Note_off_c, 9, 40, 80
10, 124560, Note_off_c, 9, 49, 80
10, 124560, Note_on_c, 9, 59, 95
10, 124560, Note_on_c, 9, 49, 50
10, 124800, Note_off_c, 9, 59, 80
10, 124800, Note_off_c, 9, 49, 80
10, 124800, Note_on_c, 9, 59, 95
10, 124800, Note_on_c, 9, 49, 50
10, 124800, Note_on_c, 9, 36, 95
10, 125040, Note_off_c, 9, 59, 80
10, 125040, Note_off_c, 9, 49, 80
10, 125040, Note_off_c, 9, 36, 80
10, 125040, Note_on_c, 9, 59, 95
10, 125040, Note_on_c, 9, 49, 50
10, 125040, Note_on_c, 9, 36, 95
10, 125280, Note_off_c, 9, 59, 80
10, 125280, Note_off_c, 9, 49, 80
10, 125280, Note_off_c, 9, 36, 80
10, 125280, Note_on_c, 9, 59, 95
10, 125280, Note_on_c, 9, 40, 95
10, 125280, Note_on_c, 9, 49, 50
10, 125520, Note_off_c, 9, 59, 80
10, 125520, Note_off_c, 9, 40, 80
10, 125520, Note_off_c, 9, 49, 80
10, 125520, Note_on_c, 9, 59, 95
10, 125520, Note_on_c, 9, 49, 50
10, 125520, Note_on_c, 9, 36, 95
10, 125760, Note_off_c, 9, 59, 80
10, 125760, Note_off_c, 9, 49, 80
10, 125760, Note_off_c, 9, 36, 80
10, 125760, Note_on_c, 9, 59, 95
10, 125760, Note_on_c, 9, 49, 50
10, 126000, Note_off_c, 9, 59, 80
10, 126000, Note_off_c, 9, 49, 80
10, 126000, Note_on_c, 9, 59, 79
10, 126000, Note_on_c, 9, 49, 50
10, 126120, Note_off_c, 9, 59, 80
10, 126120, Note_off_c, 9, 49, 80
10, 126120, Note_on_c, 9, 36, 95
10, 126240, Note_off_c, 9, 36, 80
10, 126240, Note_on_c, 9, 59, 95
10, 126240, Note_on_c, 9, 40, 95
10, 126240, Note_on_c, 9, 49, 50
10, 126480, Note_off_c, 9, 59, 80
10, 126480, Note_off_c, 9, 40, 80
10, 126480, Note_off_c, 9, 49, 80
10, 126480, Note_on_c, 9, 59, 95
10, 126480, Note_on_c, 9, 49, 50
10, 126720, Note_off_c, 9, 59, 80
10, 126720, Note_off_c, 9, 49, 80
10, 126720, Note_on_c, 9, 59, 95
10, 126720, Note_on_c, 9, 49, 50
10, 126720, Note_on_c, 9, 36, 95
10, 126960, Note_off_c, 9, 59, 80
10, 126960, Note_off_c, 9, 49, 80
10, 126960, Note_off_c, 9, 36, 80
10, 126960, Note_on_c, 9, 59, 95
10, 126960, Note_on_c, 9, 49, 50
10, 126960, Note_on_c, 9, 36, 95
10, 127200, Note_off_c, 9, 59, 80
10, 127200, Note_off_c, 9, 49, 80
10, 127200, Note_off_c, 9, 36, 80
10, 127200, Note_on_c, 9, 59, 95
10, 127200, Note_on_c, 9, 40, 95
10, 127200, Note_on_c, 9, 49, 50
10, 127440, Note_off_c, 9, 59, 80
10, 127440, Note_off_c, 9, 40, 80
10, 127440, Note_off_c, 9, 49, 80
10, 127440, Note_on_c, 9, 59, 95
10, 127440, Note_on_c, 9, 49, 50
10, 127440, Note_on_c, 9, 36, 95
10, 127680, Note_off_c, 9, 59, 80
10, 127680, Note_off_c, 9, 49, 80
10, 127680, Note_off_c, 9, 36, 80
10, 127680, Note_on_c, 9, 59, 95
10, 127680, Note_on_c, 9, 49, 50
10, 127920, Note_off_c, 9, 59, 80
10, 127920, Note_off_c, 9, 49, 80
10, 127920, Note_on_c, 9, 59, 79
10, 127920, Note_on_c, 9, 49, 50
10, 128040, Note_off_c, 9, 59, 80
10, 128040, Note_off_c, 9, 49, 80
10, 128040, Note_on_c, 9, 36, 95
10, 128160, Note_off_c, 9, 36, 80
10, 128160, Note_on_c, 9, 59, 95
10, 128160, Note_on_c, 9, 40, 95
10, 128160, Note_on_c, 9, 49, 50
10, 128400, Note_off_c, 9, 59, 80
10, 128400, Note_off_c, 9, 40, 80
10, 128400, Note_off_c, 9, 49, 80
10, 128400, Note_on_c, 9, 59, 95
10, 128400, Note_on_c, 9, 49, 50
10, 128640, Note_off_c, 9, 59, 80
10, 128640, Note_off_c, 9, 49, 80
10, 128640, Note_on_c, 9, 59, 95
10, 128640, Note_on_c, 9, 49, 50
10, 128640, Note_on_c, 9, 36, 95
10, 128880, Note_off_c, 9, 59, 80
10, 128880, Note_off_c, 9, 49, 80
10, 128880, Note_off_c, 9, 36, 80
10, 128880, Note_on_c, 9, 59, 95
10, 128880, Note_on_c, 9, 49, 50
10, 128880, Note_on_c, 9, 36, 95
10, 129120, Note_off_c, 9, 59, 80
10, 129120, Note_off_c, 9, 49, 80
10, 129120, Note_off_c, 9, 36, 80
10, 129120, Note_on_c, 9, 59, 95
10, 129120, Note_on_c, 9, 40, 95
10, 129120, Note_on_c, 9, 49, 50
10, 129360, Note_off_c, 9, 59, 80
10, 129360, Note_off_c, 9, 40, 80
10, 129360, Note_off_c, 9, 49, 80
10, 129360, Note_on_c, 9, 59, 95
10, 129360, Note_on_c, 9, 49, 50
10, 129360, Note_on_c, 9, 36, 95
10, 129600, Note_off_c, 9, 59, 80
10, 129600, Note_off_c, 9, 49, 80
10, 129600, Note_off_c, 9, 36, 80
10, 129600, Note_on_c, 9, 59, 95
10, 129600, Note_on_c, 9, 49, 50
10, 129840, Note_off_c, 9, 59, 80
10, 129840, Note_off_c, 9, 49, 80
10, 129840, Note_on_c, 9, 59, 79
10, 129840, Note_on_c, 9, 49, 50
10, 129960, Note_off_c, 9, 59, 80
10, 129960, Note_off_c, 9, 49, 80
10, 129960, Note_on_c, 9, 36, 95
10, 130080, Note_off_c, 9, 36, 80
10, 130080, Note_on_c, 9, 59, 95
10, 130080, Note_on_c, 9, 40, 95
10, 130080, Note_on_c, 9, 49, 50
10, 130320, Note_off_c, 9, 59, 80
10, 130320, Note_off_c, 9, 40, 80
10, 130320, Note_off_c, 9, 49, 80
10, 130320, Note_on_c, 9, 59, 95
10, 130320, Note_on_c, 9, 49, 50
10, 130560, Note_off_c, 9, 59, 80
10, 130560, Note_off_c, 9, 49, 80
10, 130560, Note_on_c, 9, 59, 95
10, 130560, Note_on_c, 9, 49, 50
10, 130560, Note_on_c, 9, 36, 95
10, 130800, Note_off_c, 9, 59, 80
10, 130800, Note_off_c, 9, 49, 80
10, 130800, Note_off_c, 9, 36, 80
10, 130800, Note_on_c, 9, 59, 95
10, 130800, Note_on_c, 9, 49, 50
10, 130800, Note_on_c, 9, 36, 95
10, 131040, Note_off_c, 9, 59, 80
10, 131040, Note_off_c, 9, 49, 80
10, 131040, Note_off_c, 9, 36, 80
10, 131040, Note_on_c, 9, 59, 95
10, 131040, Note_on_c, 9, 40, 95
10, 131040, Note_on_c, 9, 49, 50
10, 131280, Note_off_c, 9, 59, 80
10, 131280, Note_off_c, 9, 40, 80
10, 131280, Note_off_c, 9, 49, 80
10, 131280, Note_on_c, 9, 59, 95
10, 131280, Note_on_c, 9, 49, 50
10, 131280, Note_on_c, 9, 36, 95
10, 131520, Note_off_c, 9, 59, 80
10, 131520, Note_off_c, 9, 49, 80
10, 131520, Note_off_c, 9, 36, 80
10, 131520, Note_on_c, 9, 59, 95
10, 131520, Note_on_c, 9, 49, 50
10, 131760, Note_off_c, 9, 59, 80
10, 131760, Note_off_c, 9, 49, 80
10, 131760, Note_on_c, 9, 59, 79
10, 131760, Note_on_c, 9, 49, 50
10, 131880, Note_off_c, 9, 59, 80
10, 131880, Note_off_c, 9, 49, 80
10, 131880, Note_on_c, 9, 36, 95
10, 132000, Note_off_c, 9, 36, 80
10, 132000, Note_on_c, 9, 59, 95
10, 132000, Note_on_c, 9, 40, 95
10, 132000, Note_on_c, 9, 49, 50
10, 132240, Note_off_c, 9, 59, 80
10, 132240, Note_off_c, 9, 40, 80
10, 132240, Note_off_c, 9, 49, 80
10, 132240, Note_on_c, 9, 59, 95
10, 132240, Note_on_c, 9, 49, 50
10, 132480, Note_off_c, 9, 59, 80
10, 132480, Note_off_c, 9, 49, 80
10, 132480, Note_on_c, 9, 59, 95
10, 132480, Note_on_c, 9, 49, 63
10, 132480, Note_on_c, 9, 36, 95
10, 132720, Note_off_c, 9, 59, 80
10, 132720, Note_off_c, 9, 49, 80
10, 132720, Note_off_c, 9, 36, 80
10, 132720, Note_on_c, 9, 59, 95
10, 132720, Note_on_c, 9, 49, 63
10, 132720, Note_on_c, 9, 36, 95
10, 132960, Note_off_c, 9, 59, 80
10, 132960, Note_off_c, 9, 49, 80
10, 132960, Note_off_c, 9, 36, 80
10, 132960, Note_on_c, 9, 59, 95
10, 132960, Note_on_c, 9, 40, 95
10, 132960, Note_on_c, 9, 49, 63
10, 133200, Note_off_c, 9, 59, 80
10, 133200, Note_off_c, 9, 40, 80
10, 133200, Note_off_c, 9, 49, 80
10, 133200, Note_on_c, 9, 59, 95
10, 133200, Note_on_c, 9, 49, 63
10, 133200, Note_on_c, 9, 36, 95
10, 133440, Note_off_c, 9, 59, 80
10, 133440, Note_off_c, 9, 49, 80
10, 133440, Note_off_c, 9, 36, 80
10, 133440, Note_on_c, 9, 59, 95
10, 133440, Note_on_c, 9, 49, 63
10, 133680, Note_off_c, 9, 59, 80
10, 133680, Note_off_c, 9, 49, 80
10, 133680, Note_on_c, 9, 59, 79
10, 133680, Note_on_c, 9, 49, 63
10, 133800, Note_off_c, 9, 59, 80
10, 133800, Note_off_c, 9, 49, 80
10, 133800, Note_on_c, 9, 36, 95
10, 133920, Note_off_c, 9, 36, 80
10, 133920, Note_on_c, 9, 59, 95
10, 133920, Note_on_c, 9, 40, 95
10, 133920, Note_on_c, 9, 49, 63
10, 134160, Note_off_c, 9, 59, 80
10, 134160, Note_off_c, 9, 40, 80
10, 134160, Note_off_c, 9, 49, 80
10, 134160, Note_on_c, 9, 59, 95
10, 134160, Note_on_c, 9, 49, 63
10, 134400, Note_off_c, 9, 59, 80
10, 134400, Note_off_c, 9, 49, 80
10, 134400, Note_on_c, 9, 59, 95
10, 134400, Note_on_c, 9, 49, 63
10, 134400, Note_on_c, 9, 36, 95
10, 134640, Note_off_c, 9, 59, 80
10, 134640, Note_off_c, 9, 49, 80
10, 134640, Note_off_c, 9, 36, 80
10, 134640, Note_on_c, 9, 59, 95
10, 134640, Note_on_c, 9, 49, 63
10, 134640, Note_on_c, 9, 36, 95
10, 134880, Note_off_c, 9, 59, 80
10, 134880, Note_off_c, 9, 49, 80
10, 134880, Note_off_c, 9, 36, 80
10, 134880, Note_on_c, 9, 59, 95
10, 134880, Note_on_c, 9, 40, 95
10, 134880, Note_on_c, 9, 49, 63
10, 135120, Note_off_c, 9, 59, 80
10, 135120, Note_off_c, 9, 40, 80
10, 135120, Note_off_c, 9, 49, 80
10, 135120, Note_on_c, 9, 59, 95
10, 135120, Note_on_c, 9, 49, 63
10, 135120, Note_on_c, 9, 36, 95
10, 135360, Note_off_c, 9, 59, 80
10, 135360, Note_off_c, 9, 49, 80
10, 135360, Note_off_c, 9, 36, 80
10, 135360, Note_on_c, 9, 59, 95
10, 135360, Note_on_c, 9, 49, 63
10, 135600, Note_off_c, 9, 59, 80
10, 135600, Note_off_c, 9, 49, 80
10, 135600, Note_on_c, 9, 59, 79
10, 135600, Note_on_c, 9, 49, 63
10, 135720, Note_off_c, 9, 59, 80
10, 135720, Note_off_c, 9, 49, 80
10, 135720, Note_on_c, 9, 36, 95
10, 135840, Note_off_c, 9, 36, 80
10, 135840, Note_on_c, 9, 59, 95
10, 135840, Note_on_c, 9, 40, 95
10, 135840, Note_on_c, 9, 49, 63
10, 136080, Note_off_c, 9, 59, 80
10, 136080, Note_off_c, 9, 40, 80
10, 136080, Note_off_c, 9, 49, 80
10, 136080, Note_on_c, 9, 59, 95
10, 136080, Note_on_c, 9, 49, 63
10, 136320, Note_off_c, 9, 59, 80
10, 136320, Note_off_c, 9, 49, 80
10, 136320, Note_on_c, 9, 59, 95
10, 136320, Note_on_c, 9, 49, 63
10, 136320, Note_on_c, 9, 36, 95
10, 136560, Note_off_c, 9, 59, 80
10, 136560, Note_off_c, 9, 49, 80
10, 136560, Note_off_c, 9, 36, 80
10, 136560, Note_on_c, 9, 59, 95
10, 136560, Note_on_c, 9, 49, 63
10, 136560, Note_on_c, 9, 36, 95
10, 136800, Note_off_c, 9, 59, 80
10, 136800, Note_off_c, 9, 49, 80
10, 136800, Note_off_c, 9, 36, 80
10, 136800, Note_on_c, 9, 59, 95
10, 136800, Note_on_c, 9, 40, 95
10, 136800, Note_on_c, 9, 49, 63
10, 137040, Note_off_c, 9, 59, 80
10, 137040, Note_off_c, 9, 40, 80
10, 137040, Note_off_c, 9, 49, 80
10, 137040, Note_on_c, 9, 59, 95
10, 137040, Note_on_c, 9, 49, 63
10, 137040, Note_on_c, 9, 36, 95
10, 137280, Note_off_c, 9, 59, 80
10, 137280, Note_off_c, 9, 49, 80
10, 137280, Note_off_c, 9, 36, 80
10, 137280, Note_on_c, 9, 59, 95
10, 137280, Note_on_c, 9, 49, 63
10, 137520, Note_off_c, 9, 59, 80
10, 137520, Note_off_c, 9, 49, 80
10, 137520, Note_on_c, 9, 59, 79
10, 137520, Note_on_c, 9, 49, 63
10, 137640, Note_off_c, 9, 59, 80
10, 137640, Note_off_c, 9, 49, 80
10, 137640, Note_on_c, 9, 36, 95
10, 137760, Note_off_c, 9, 36, 80
10, 137760, Note_on_c, 9, 59, 95
10, 137760, Note_on_c, 9, 40, 95
10, 137760, Note_on_c, 9, 49, 63
10, 138000, Note_off_c, 9, 59, 80
10, 138000, Note_off_c, 9, 40, 80
10, 138000, Note_off_c, 9, 49, 80
10, 138000, Note_on_c, 9, 59, 95
10, 138000, Note_on_c, 9, 49, 63
10, 138240, Note_off_c, 9, 59, 80
10, 138240, Note_off_c, 9, 49, 80
10, 138240, Note_on_c, 9, 59, 95
10, 138240, Note_on_c, 9, 49, 63
10, 138240, Note_on_c, 9, 36, 95
10, 138480, Note_off_c, 9, 59, 80
10, 138480, Note_off_c, 9, 49, 80
10, 138480, Note_off_c, 9, 36, 80
10, 138480, Note_on_c, 9, 59, 95
10, 138480, Note_on_c, 9, 49, 63
10, 138480, Note_on_c, 9, 36, 95
10, 138720, Note_off_c, 9, 59, 80
10, 138720, Note_off_c, 9, 49, 80
10, 138720, Note_off_c, 9, 36, 80
10, 138720, Note_on_c, 9, 59, 95
10, 138720, Note_on_c, 9, 40, 95
10, 138720, Note_on_c, 9, 49, 63
10, 138960, Note_off_c, 9, 59, 80
10, 138960, Note_off_c, 9, 40, 80
10, 138960, Note_off_c, 9, 49, 80
10, 138960, Note_on_c, 9, 59, 95
10, 138960, Note_on_c, 9, 49, 63
10, 138960, Note_on_c, 9, 36, 95
10, 139200, Note_off_c, 9, 59, 80
10, 139200, Note_off_c, 9, 49, 80
10, 139200, Note_off_c, 9, 36, 80
10, 139200, Note_on_c, 9, 59, 95
10, 139200, Note_on_c, 9, 49, 63
10, 139440, Note_off_c, 9, 59, 80
10, 139440, Note_off_c, 9, 49, 80
10, 139440, Note_on_c, 9, 59, 79
10, 139440, Note_on_c, 9, 49, 63
10, 139560, Note_off_c, 9, 59, 80
10, 139560, Note_off_c, 9, 49, 80
10, 139560, Note_on_c, 9, 36, 95
10, 139680, Note_off_c, 9, 36, 80
10, 139680, Note_on_c, 9, 59, 95
10, 139680, Note_on_c, 9, 40, 95
10, 139680, Note_on_c, 9, 49, 63
10, 139920, Note_off_c, 9, 59, 80
10, 139920, Note_off_c, 9, 40, 80
10, 139920, Note_off_c, 9, 49, 80
10, 139920, Note_on_c, 9, 59, 95
10, 139920, Note_on_c, 9, 49, 63
10, 140160, Note_off_c, 9, 59, 80
10, 140160, Note_off_c, 9, 49, 80
10, 140160, Note_on_c, 9, 59, 95
10, 140160, Note_on_c, 9, 49, 63
10, 140160, Note_on_c, 9, 36, 95
10, 140400, Note_off_c, 9, 59, 80
10, 140400, Note_off_c, 9, 49, 80
10, 140400, Note_off_c, 9, 36, 80
10, 140400, Note_on_c, 9, 59, 95
10, 140400, Note_on_c, 9, 49, 63
10, 140400, Note_on_c, 9, 36, 95
10, 140640, Note_off_c, 9, 59, 80
10, 140640, Note_off_c, 9, 49, 80
10, 140640, Note_off_c, 9, 36, 80
10, 140640, Note_on_c, 9, 59, 95
10, 140640, Note_on_c, 9, 40, 95
10, 140640, Note_on_c, 9, 49, 63
10, 140880, Note_off_c, 9, 59, 80
10, 140880, Note_off_c, 9, 40, 80
10, 140880, Note_off_c, 9, 49, 80
10, 140880, Note_on_c, 9, 59, 95
10, 140880, Note_on_c, 9, 49, 63
10, 140880, Note_on_c, 9, 36, 95
10, 141120, Note_off_c, 9, 59, 80
10, 141120, Note_off_c, 9, 49, 80
10, 141120, Note_off_c, 9, 36, 80
10, 141120, Note_on_c, 9, 59, 95
10, 141120, Note_on_c, 9, 49, 63
10, 141360, Note_off_c, 9, 59, 80
10, 141360, Note_off_c, 9, 49, 80
10, 141360, Note_on_c, 9, 59, 79
10, 141360, Note_on_c, 9, 49, 63
10, 141480, Note_off_c, 9, 59, 80
10, 141480, Note_off_c, 9, 49, 80
10, 141480, Note_on_c, 9, 36, 95
10, 141600, Note_off_c, 9, 36, 80
10, 141600, Note_on_c, 9, 59, 95
10, 141600, Note_on_c, 9, 40, 95
10, 141600, Note_on_c, 9, 49, 63
10, 141840, Note_off_c, 9, 59, 80
10, 141840, Note_off_c, 9, 40, 80
10, 141840, Note_off_c, 9, 49, 80
10, 141840, Note_on_c, 9, 59, 95
10, 141840, Note_on_c, 9, 49, 63
10, 142080, Note_off_c, 9, 59, 80
10, 142080, Note_off_c, 9, 49, 80
10, 142080, Note_on_c, 9, 59, 95
10, 142080, Note_on_c, 9, 49, 63
10, 142080, Note_on_c, 9, 36, 95
10, 142320, Note_off_c, 9, 59, 80
10, 142320, Note_off_c, 9, 49, 80
10, 142320, Note_off_c, 9, 36, 80
10, 142320, Note_on_c, 9, 59, 95
10, 142320, Note_on_c, 9, 49, 63
10, 142320, Note_on_c, 9, 36, 95
10, 142560, Note_off_c, 9, 59, 80
10, 142560, Note_off_c, 9, 49, 80
10, 142560, Note_off_c, 9, 36, 80
10, 142560, Note_on_c, 9, 59, 95
10, 142560, Note_on_c, 9, 40, 95
10, 142560, Note_on_c, 9, 49, 63
10, 142800, Note_off_c, 9, 59, 80
10, 142800, Note_off_c, 9, 40, 80
10, 142800, Note_off_c, 9, 49, 80
10, 142800, Note_on_c, 9, 59, 95
10, 142800, Note_on_c, 9, 49, 63
10, 142800, Note_on_c, 9, 36, 95
10, 143040, Note_off_c, 9, 59, 80
10, 143040, Note_off_c, 9, 49, 80
10, 143040, Note_off_c, 9, 36, 80
10, 143040, Note_on_c, 9, 59, 95
10, 143040, Note_on_c, 9, 49, 63
10, 143280, Note_off_c, 9, 59, 80
10, 143280, Note_off_c, 9, 49, 80
10, 143280, Note_on_c, 9, 59, 79
10, 143280, Note_on_c, 9, 49, 63
10, 143400, Note_off_c, 9, 59, 80
10, 143400, Note_off_c, 9, 49, 80
10, 143400, Note_on_c, 9, 36, 95
10, 143520, Note_off_c, 9, 36, 80
10, 143520, Note_on_c, 9, 59, 95
10, 143520, Note_on_c, 9, 40, 95
10, 143520, Note_on_c, 9, 49, 63
10, 143760, Note_off_c, 9, 59, 80
10, 143760, Note_off_c, 9, 40, 80
10, 143760, Note_off_c, 9, 49, 80
10, 143760, Note_on_c, 9, 59, 95
10, 143760, Note_on_c, 9, 49, 63
10, 144000, Note_off_c, 9, 59, 80
10, 144000, Note_off_c, 9, 49, 80
10, 144000, Note_on_c, 9, 59, 95
10, 144000, Note_on_c, 9, 49, 63
10, 144000, Note_on_c, 9, 36, 95
10, 144240, Note_off_c, 9, 59, 80
10, 144240, Note_off_c, 9, 49, 80
10, 144240, Note_off_c, 9, 36, 80
10, 144240, Note_on_c, 9, 59, 95
10, 144240, Note_on_c, 9, 49, 63
10, 144240, Note_on_c, 9, 36, 95
10, 144480, Note_off_c, 9, 59, 80
10, 144480, Note_off_c, 9, 49, 80
10, 144480, Note_off_c, 9, 36, 80
10, 144480, Note_on_c, 9, 59, 95
10, 144480, Note_on_c, 9, 40, 95
10, 144480, Note_on_c, 9, 49, 63
10, 144720, Note_off_c, 9, 59, 80
10, 144720, Note_off_c, 9, 40, 80
10, 144720, Note_off_c, 9, 49, 80
10, 144720, Note_on_c, 9, 59, 95
10, 144720, Note_on_c, 9, 49, 63
10, 144720, Note_on_c, 9, 36, 95
10, 144960, Note_off_c, 9, 59, 80
10, 144960, Note_off_c, 9, 49, 80
10, 144960, Note_off_c, 9, 36, 80
10, 144960, Note_on_c, 9, 59, 95
10, 144960, Note_on_c, 9, 49, 63
10, 145200, Note_off_c, 9, 59, 80
10, 145200, Note_off_c, 9, 49, 80
10, 145200, Note_on_c, 9, 59, 79
10, 145200, Note_on_c, 9, 49, 63
10, 145320, Note_off_c, 9, 59, 80
10, 145320, Note_off_c, 9, 49, 80
10, 145320, Note_on_c, 9, 36, 95
10, 145440, Note_off_c, 9, 36, 80
10, 145440, Note_on_c, 9, 59, 95
10, 145440, Note_on_c, 9, 40, 95
10, 145440, Note_on_c, 9, 49, 63
10, 145680, Note_off_c, 9, 59, 80
10, 145680, Note_off_c, 9, 40, 80
10, 145680, Note_off_c, 9, 49, 80
10, 145680, Note_on_c, 9, 59, 95
10, 145680, Note_on_c, 9, 49, 63
10, 145920, Note_off_c, 9, 59, 80
10, 145920, Note_off_c, 9, 49, 80
10, 145920, Note_on_c, 9, 59, 95
10, 145920, Note_on_c, 9, 49, 76
10, 145920, Note_on_c, 9, 36, 95
10, 146160, Note_off_c, 9, 59, 80
10, 146160, Note_off_c, 9, 49, 80
10, 146160, Note_off_c, 9, 36, 80
10, 146160, Note_on_c, 9, 59, 95
10, 146160, Note_on_c, 9, 49, 76
10, 146160, Note_on_c, 9, 36, 95
10, 146400, Note_off_c, 9, 59, 80
10, 146400, Note_off_c, 9, 49, 80
10, 146400, Note_off_c, 9, 36, 80
10, 146400, Note_on_c, 9, 59, 95
10, 146400, Note_on_c, 9, 40, 95
10, 146400, Note_on_c, 9, 49, 76
10, 146640, Note_off_c, 9, 59, 80
10, 146640, Note_off_c, 9, 40, 80
10, 146640, Note_off_c, 9, 49, 80
10, 146640, Note_on_c, 9, 59, 95
10, 146640, Note_on_c, 9, 49, 76
10, 146640, Note_on_c, 9, 36, 95
10, 146880, Note_off_c, 9, 59, 80
10, 146880, Note_off_c, 9, 49, 80
10, 146880, Note_off_c, 9, 36, 80
10, 146880, Note_on_c, 9, 59, 95
10, 146880, Note_on_c, 9, 49, 76
10, 147120, Note_off_c, 9, 59, 80
10, 147120, Note_off_c, 9, 49, 80
10, 147120, Note_on_c, 9, 59, 79
10, 147120, Note_on_c, 9, 49, 76
10, 147240, Note_off_c, 9, 59, 80
10, 147240, Note_off_c, 9, 49, 80
10, 147240, Note_on_c, 9, 36, 95
10, 147360, Note_off_c, 9, 36, 80
10, 147360, Note_on_c, 9, 59, 95
10, 147360, Note_on_c, 9, 40, 95
10, 147360, Note_on_c, 9, 49, 76
10, 147600, Note_off_c, 9, 59, 80
10, 147600, Note_off_c, 9, 40, 80
10, 147600, Note_off_c, 9, 49, 80
10, 147600, Note_on_c, 9, 59, 95
10, 147600, Note_on_c, 9, 49, 76
10, 147840, Note_off_c, 9, 59, 80
10, 147840, Note_off_c, 9, 49, 80
10, 147840, Note_on_c, 9, 59, 95
10, 147840, Note_on_c, 9, 49, 76
10, 147840, Note_on_c, 9, 36, 95
10, 148080, Note_off_c, 9, 59, 80
10, 148080, Note_off_c, 9, 49, 80
10, 148080, Note_off_c, 9, 36, 80
10, 148080, Note_on_c, 9, 59, 95
10, 148080, Note_on_c, 9, 49, 76
10, 148080, Note_on_c, 9, 36, 95
10, 148320, Note_off_c, 9, 59, 80
10, 148320, Note_off_c, 9, 49, 80
10, 148320, Note_off_c, 9, 36, 80
10, 148320, Note_on_c, 9, 59, 95
10, 148320, Note_on_c, 9, 40, 95
10, 148320, Note_on_c, 9, 49, 76
10, 148560, Note_off_c, 9, 59, 80
10, 148560, Note_off_c, 9, 40, 80
10, 148560, Note_off_c, 9, 49, 80
10, 148560, Note_on_c, 9, 59, 95
10, 148560, Note_on_c, 9, 49, 76
10, 148560, Note_on_c, 9, 36, 95
10, 148800, Note_off_c, 9, 59, 80
10, 148800, Note_off_c, 9, 49, 80
10, 148800, Note_off_c, 9, 36, 80
10, 148800, Note_on_c, 9, 59, 95
10, 148800, Note_on_c, 9, 49, 76
10, 149040, Note_off_c, 9, 59, 80
10, 149040, Note_off_c, 9, 49, 80
10, 149040, Note_on_c, 9, 59, 79
10, 149040, Note_on_c, 9, 49, 76
10, 149160, Note_off_c, 9, 59, 80
10, 149160, Note_off_c, 9, 49, 80
10, 149160, Note_on_c, 9, 36, 95
10, 149280, Note_off_c, 9, 36, 80
10, 149280, Note_on_c, 9, 59, 95
10, 149280, Note_on_c, 9, 40, 95
10, 149280, Note_on_c, 9, 49, 76
10, 149520, Note_off_c, 9, 59, 80
10, 149520, Note_off_c, 9, 40, 80
10, 149520, Note_off_c, 9, 49, 80
10, 149520, Note_on_c, 9, 59, 95
10, 149520, Note_on_c, 9, 49, 76
10, 149760, Note_off_c, 9, 59, 80
10, 149760, Note_off_c, 9, 49, 80
10, 149760, Note_on_c, 9, 59, 95
10, 149760, Note_on_c, 9, 49, 76
10, 149760, Note_on_c, 9, 36, 95
10, 150000, Note_off_c, 9, 59, 80
10, 150000, Note_off_c, 9, 49, 80
10, 150000, Note_off_c, 9, 36, 80
10, 150000, Note_on_c, 9, 59, 95
10, 150000, Note_on_c, 9, 49, 76
10, 150000, Note_on_c, 9, 36, 95
10, 150240, Note_off_c, 9, 59, 80
10, 150240, Note_off_c, 9, 49, 80
10, 150240, Note_off_c, 9, 36, 80
10, 150240, Note_on_c, 9, 59, 95
10, 150240, Note_on_c, 9, 40, 95
10, 150240, Note_on_c, 9, 49, 76
10, 150480, Note_off_c, 9, 59, 80
10, 150480, Note_off_c, 9, 40, 80
10, 150480, Note_off_c, 9, 49, 80
10, 150480, Note_on_c, 9, 59, 95
10, 150480, Note_on_c, 9, 49, 76
10, 150480, Note_on_c, 9, 36, 95
10, 150720, Note_off_c, 9, 59, 80
10, 150720, Note_off_c, 9, 49, 80
10, 150720, Note_off_c, 9, 36, 80
10, 150720, Note_on_c, 9, 59, 95
10, 150720, Note_on_c, 9, 49, 76
10, 150960, Note_off_c, 9, 59, 80
10, 150960, Note_off_c, 9, 49, 80
10, 150960, Note_on_c, 9, 59, 79
10, 150960, Note_on_c, 9, 49, 76
10, 151080, Note_off_c, 9, 59, 80
10, 151080, Note_off_c, 9, 49, 80
10, 151080, Note_on_c, 9, 36, 95
10, 151200, Note_off_c, 9, 36, 80
10, 151200, Note_on_c, 9, 59, 95
10, 151200, Note_on_c, 9, 40, 95
10, 151200, Note_on_c, 9, 49, 76
10, 151440, Note_off_c, 9, 59, 80
10, 151440, Note_off_c, 9, 40, 80
10, 151440, Note_off_c, 9, 49, 80
10, 151440, Note_on_c, 9, 59, 95
10, 151440, Note_on_c, 9, 49, 76
10, 151680, Note_off_c, 9, 59, 80
10, 151680, Note_off_c, 9, 49, 80
10, 151680, Note_on_c, 9, 59, 95
10, 151680, Note_on_c, 9, 49, 76
10, 151680, Note_on_c, 9, 36, 95
10, 151920, Note_off_c, 9, 59, 80
10, 151920, Note_off_c, 9, 49, 80
10, 151920, Note_off_c, 9, 36, 80
10, 151920, Note_on_c, 9, 59, 95
10, 151920, Note_on_c, 9, 49, 76
10, 151920, Note_on_c, 9, 36, 95
10, 152160, Note_off_c, 9, 59, 80
10, 152160, Note_off_c, 9, 49, 80
10, 152160, Note_off_c, 9, 36, 80
10, 152160, Note_on_c, 9, 59, 95
10, 152160, Note_on_c, 9, 40, 95
10, 152160, Note_on_c, 9, 49, 76
10, 152400, Note_off_c, 9, 59, 80
10, 152400, Note_off_c, 9, 40, 80
10, 152400, Note_off_c, 9, 49, 80
10, 152400, Note_on_c, 9, 59, 95
10, 152400, Note_on_c, 9, 49, 76
10, 152400, Note_on_c, 9, 36, 95
10, 152640, Note_off_c, 9, 59, 80
10, 152640, Note_off_c, 9, 49, 80
10, 152640, Note_off_c, 9, 36, 80
10, 152640, Note_on_c, 9, 59, 95
10, 152640, Note_on_c, 9, 49, 76
10, 152880, Note_off_c, 9, 59, 80
10, 152880, Note_off_c, 9, 49, 80
10, 152880, Note_on_c, 9, 59, 79
10, 152880, Note_on_c, 9, 49, 76
10, 153000, Note_off_c, 9, 59, 80
10, 153000, Note_off_c, 9, 49, 80
10, 153000, Note_on_c, 9, 36, 95
10, 153120, Note_off_c, 9, 36, 80
10, 153120, Note_on_c, 9, 59, 95
10, 153120, Note_on_c, 9, 40, 95
10, 153120, Note_on_c, 9, 49, 76
10, 153360, Note_off_c, 9, 59, 80
10, 153360, Note_off_c, 9, 40, 80
10, 153360, Note_off_c, 9, 49, 80
10, 153360, Note_on_c, 9, 59, 95
10, 153360, Note_on_c, 9, 49, 76
10, 153360, Note_on_c, 9, 57, 95
10, 153360, Note_on_c, 9, 49, 95
10, 153360, Note_on_c, 9, 36, 95
10, 153600, Note_off_c, 9, 59, 80
10, 153600, Note_off_c, 9, 49, 80
10, 153600, Note_off_c, 9, 57, 80
10, 153600, Note_off_c, 9, 49, 80
10, 153600, Note_off_c, 9, 36, 80
10, 153600, End_track
0, 0, End_of_file
